<?xml version="1.0"?>
<svg xmlns="http://www.w3.org/2000/svg" xmlns:xlink="http://www.w3.org/1999/xlink" width="296.043488" height="247.405289">
	<defs>
		<marker id="CustomMarker-01" markerUnits="strokeWidth" markerWidth="21" markerHeight="12" viewBox="-21 -6 21 12" orient="auto-start-reverse">
			<path d="M 0 -0 L -14 -4, -14 -0.5, -14 0.5, -14 4 Z" fill="#000000" stroke="#000000" stroke-linejoin="round" />
		</marker>
		<marker id="CustomMarker-02" markerUnits="strokeWidth" markerWidth="21" markerHeight="12" viewBox="-21 -6 21 12" orient="auto-start-reverse">
			<path d="M 0 -0 L -14 -4, -14 -0.5, -14 0.5, -14 4 Z" fill="#000000" stroke="#000000" stroke-linejoin="round" />
		</marker>
	</defs>
	<path d="M -315.713 269.635 L 315.713 269.635" fill="none" stroke="#000000" stroke-width="2.5999999" stroke-linecap="round" stroke-linejoin="round" marker-end="url(#CustomMarker-01)" transform="matrix(0.384615 0 -0 0.384615 150.469 113.206)" />
	<path d="M -315.713 269.635 L -315.713 -269.635" fill="none" stroke="#000000" stroke-width="2.5999999" stroke-linecap="round" stroke-linejoin="round" marker-end="url(#CustomMarker-02)" transform="matrix(0.384615 0 -0 0.384615 150.469 113.206)" />
	<path d="M -240.569 6.28634 C -92.8418 194.195, 128.296 153.259, 240.569 -194.195" fill="none" stroke="#000000" stroke-width="4.33333302" stroke-linecap="round" stroke-linejoin="round" transform="matrix(0.384615 0 -0 0.384615 143.624 94.2513)" />
	<g transform="matrix(1 0 -0 1 279.683 207.305)">
		<svg width="27.0562763" height="27.0428486">
			<defs />
			<path d="M 7.82261 8.48502 C 7.76373 8.72106, 7.6435 8.89772, 7.46291 9.0155, 7.28233 9.13327, 7.10076 9.19215, 6.91723 9.19166, 6.72879 9.19215, 6.57225 9.1318, 6.4481 9.01108, 6.35682 8.92275, 6.30824 8.80743, 6.30235 8.66561, 6.30235 8.60869, 6.31315 8.53508, 6.33474 8.44577, 6.39412 8.24751, 6.48588 8.09686, 6.60955 7.99479, 6.7337 7.89272, 6.82007 7.83384, 6.86865 7.81764, 6.76658 7.73962, 6.55606 7.70036, 6.23758 7.69987, 5.95738 7.70036, 5.70662 7.84561, 5.48579 8.13612, 5.26497 8.42663, 5.10008 8.77602, 4.99212 9.18381 L 4.24819 12.0575 C 4.17262 12.346, 4.11618 12.6208, 4.0784 12.8819, 4.05681 12.9712, 4.04601 13.0497, 4.04601 13.1174, 4.04601 13.2804, 4.073 13.4345, 4.12698 13.5807, 4.18096 13.7382, 4.26193 13.8638, 4.36989 13.9581, 4.47785 14.0523, 4.61525 14.0994, 4.78209 14.0989, 4.99801 14.0994, 5.20559 14.0434, 5.40482 13.9306, 5.60455 13.8182, 5.78808 13.6666, 5.95492 13.4752, 6.12177 13.2843, 6.26997 13.062, 6.39952 12.8078, 6.52907 12.5541, 6.63114 12.2935, 6.70671 12.0261, 6.7391 11.8906, 6.83086 11.8224, 6.98151 11.8219 L 7.1675 11.8219 C 7.30784 11.8224, 7.37802 11.8749, 7.37802 11.979, 7.37802 12.0109, 7.37017 12.0398, 7.35397 12.0653, 7.2784 12.3799, 7.15572 12.69, 6.98593 12.9962, 6.81614 13.3024, 6.61838 13.5733, 6.39167 13.8089, 6.16495 14.0444, 5.90781 14.2383, 5.61927 14.3894, 5.33072 14.5415, 5.02206 14.6171, 4.69327 14.6171, 4.35909 14.6171, 4.07055 14.5454, 3.82813 14.4012, 3.58571 14.2579, 3.38844 14.0704, 3.2373 13.8398, 3.18921 13.7829, 3.15142 13.724, 3.12443 13.6636, 3.09744 13.6038, 3.0891 13.5944, 3.0999 13.6356, 2.97084 13.8506, 2.76621 14.068, 2.48551 14.2878, 2.20531 14.5077, 1.88192 14.6171, 1.51486 14.6171, 1.31023 14.6171, 1.10805 14.5911, 0.908331 14.5386, 0.709097 14.4866, 0.534891 14.4056, 0.386693 14.2957, 0.238494 14.1857, 0.12661 14.0523, 0.0510383 13.8948, 0.0137434 13.801, -0.00490405 13.699, -0.00539478 13.5885, -0.00490405 13.5105, 0.00589184 13.4187, 0.0269929 13.3137, 0.0863704 13.0787, 0.207579 12.902, 0.391109 12.7842, 0.574639 12.6665, 0.757679 12.6076, 0.940718 12.6071, 1.12965 12.6076, 1.29159 12.6679, 1.42604 12.7877, 1.51781 12.877, 1.56345 12.9923, 1.56345 13.1331, 1.56345 13.2068, 1.55265 13.2804, 1.53106 13.353, 1.48297 13.5365, 1.39513 13.6847, 1.26852 13.7971, 1.14191 13.91, 1.05113 13.9713, 0.997152 13.9811, 1.09971 14.0655, 1.30729 14.1048, 1.61988 14.0989, 1.90057 14.0994, 2.15378 13.9531, 2.38001 13.6597, 2.60672 13.3667, 2.77111 13.0159, 2.87367 12.6071 L 3.62546 9.71772 C 3.70103 9.44586, 3.76041 9.17891, 3.80359 8.91686, 3.81439 8.83344, 3.81979 8.75492, 3.81979 8.68131, 3.81979 8.51937, 3.79574 8.36774, 3.74667 8.22592, 3.69318 8.06938, 3.60976 7.94278, 3.4964 7.84561, 3.38304 7.74894, 3.2427 7.70036, 3.07585 7.69987, 2.85993 7.70036, 2.65089 7.75679, 2.44871 7.86917, 2.24653 7.98203, 2.06202 8.13219, 1.89517 8.32063, 1.72833 8.50907, 1.58013 8.72793, 1.45058 8.97624, 1.32103 9.22503, 1.22681 9.48806, 1.16694 9.76483, 1.10805 9.90665, 1.00844 9.97976, 0.868091 9.98467 L 0.689959 9.98467 C 0.560899 9.98516, 0.496124 9.9199, 0.496124 9.78838 L 0.496124 9.73342 C 0.577093 9.40954, 0.701246 9.09401, 0.868091 8.7878, 1.03494 8.48159, 1.23466 8.21071, 1.46628 7.97516, 1.69839 7.73962, 1.9575 7.54725, 2.2431 7.39807, 2.5287 7.24889, 2.83883 7.1743, 3.17252 7.17381, 3.4964 7.1743, 3.782 7.24497, 4.02982 7.3863, 4.27812 7.52762, 4.4803 7.71606, 4.63635 7.95112, 4.66874 8.00902, 4.69867 8.07085, 4.72566 8.13612, 4.75265 8.20188, 4.7605 8.21856, 4.74971 8.18666, 4.88466 7.95701, 5.09223 7.73078, 5.37243 7.508, 5.65313 7.2857, 5.97357 7.1743, 6.33474 7.17381, 6.53986 7.1743, 6.74302 7.19933, 6.9452 7.24889, 7.14738 7.29895, 7.32306 7.37844, 7.47126 7.48837, 7.61945 7.59829, 7.72888 7.73422, 7.79857 7.89616, 7.83635 7.99087, 7.855 8.09833, 7.855 8.21807, 7.855 8.29708, 7.8442 8.3859, 7.82261 8.48502 Z" stroke="none" fill="#000000" />
			<rect />
		</svg>
	</g>
	<path d="M 0 117.81 L 0 -117.81" fill="none" stroke="#000000" stroke-width="2.5999999" stroke-linecap="round" stroke-linejoin="round" stroke-dasharray="9.113, 6.487" transform="matrix(0.384615 0 0 0.384615 77.0069 171.041)" />
	<g transform="matrix(1 0 -0 1 10.2099 9.95443)">
		<svg width="27.0562763" height="36.0428467">
			<defs />
			<path d="M 5.63988 14.3737 C 5.52701 14.8134, 5.34888 15.2334, 5.10646 15.6339, 4.86405 16.0343, 4.57795 16.3906, 4.24917 16.7017, 3.92039 17.0133, 3.55136 17.266, 3.14161 17.4594, 2.73186 17.6532, 2.30591 17.7499, 1.86377 17.7499, 1.59976 17.7499, 1.35734 17.7018, 1.13652 17.6046, 0.915692 17.5079, 0.735106 17.3769, 0.594759 17.212, 0.454413 17.0472, 0.360194 16.8523, 0.311612 16.6271, 0.290021 16.528, 0.279225 16.4259, 0.279225 16.3209, 0.279225 16.185, 0.295419 16.0461, 0.327806 15.9048, 0.387184 15.6692, 0.508392 15.4925, 0.691432 15.3748, 0.874962 15.257, 1.05555 15.1981, 1.23319 15.1981, 1.42212 15.1981, 1.58111 15.2585, 1.71017 15.3787, 1.80194 15.468, 1.84757 15.5828, 1.84757 15.7242, 1.84757 15.7821, 1.83678 15.8527, 1.81519 15.9362, 1.7563 16.1717, 1.63509 16.3484, 1.45156 16.4661, 1.26852 16.5839, 1.12278 16.6428, 1.01482 16.6428, 1.04721 16.7841, 1.14829 16.9166, 1.31808 17.0393, 1.48787 17.1625, 1.70526 17.2238, 1.96927 17.2238, 2.26027 17.2238, 2.53262 17.1453, 2.78584 16.9883, 3.03905 16.8312, 3.27116 16.6207, 3.48119 16.3562, 3.69122 16.0922, 3.87573 15.786, 4.03472 15.4376, 4.19372 15.0897, 4.3218 14.7246, 4.41896 14.3423 L 4.46754 14.1539 C 4.38706 14.2275, 4.21727 14.3232, 3.95817 14.4404, 3.69956 14.5582, 3.41641 14.6171, 3.10922 14.6171, 2.74265 14.6171, 2.41534 14.5494, 2.1268 14.413, 1.83825 14.2775, 1.61056 14.068, 1.44371 13.7848, 1.28177 13.4816, 1.20375 13.1469, 1.20914 12.7798 L 1.20914 12.717 C 1.21994 12.3352, 1.26852 11.9559, 1.3544 11.5785, 1.44077 11.2179, 1.56639 10.8204, 1.73078 10.3856, 1.89517 9.9513, 2.0527 9.52977, 2.20335 9.121, 2.36529 8.6872, 2.44626 8.33094, 2.44626 8.05319, 2.44626 7.81813, 2.34664 7.70036, 2.14691 7.69987, 1.96388 7.70036, 1.79801 7.75287, 1.64981 7.85739, 1.50161 7.9624, 1.36716 8.10766, 1.24546 8.29315, 1.12425 8.47914, 1.01531 8.69898, 0.918146 8.95268, 0.820982 9.20688, 0.740013 9.47727, 0.675238 9.76483, 0.616351 9.90665, 0.516734 9.97976, 0.376388 9.98467 L 0.190404 9.98467 C 0.0608531 9.98516, -0.00392231 9.9199, -0.00392231 9.78838 L -0.00392231 9.73342 C 0.071649 9.44586, 0.171756 9.15192, 0.295419 8.85061, 0.419571 8.5498, 0.576112 8.27647, 0.764549 8.03012, 0.952987 7.78427, 1.1689 7.58013, 1.41132 7.4177, 1.65374 7.25576, 1.93149 7.1743, 2.24408 7.17381, 2.51398 7.1743, 2.74412 7.23221, 2.93551 7.34704, 3.12689 7.46236, 3.27214 7.61546, 3.37176 7.80635, 3.47187 7.99774, 3.52683 8.21316, 3.53762 8.45362 L 3.53762 8.50858 C 3.53762 8.73431, 3.49199 8.96691, 3.40022 9.20737, 3.24417 9.61614, 3.0891 10.0337, 2.93551 10.4602, 2.78191 10.8871, 2.66217 11.2704, 2.57581 11.6104, 2.48944 11.951, 2.43006 12.2881, 2.39767 12.6228, 2.37608 12.7121, 2.36283 12.8093, 2.35694 12.9133, 2.35694 13.1179, 2.39228 13.3196, 2.46245 13.5179, 2.51103 13.6965, 2.59985 13.8378, 2.7294 13.9424, 2.85895 14.0474, 3.01255 14.0994, 3.19019 14.0989, 3.53517 14.0994, 3.83696 13.9973, 4.09557 13.7932, 4.35468 13.589, 4.5809 13.3221, 4.77473 12.9918 L 6.07662 7.92756 C 6.1252 7.73422, 6.22335 7.59191, 6.37155 7.50014, 6.51974 7.40887, 6.66941 7.36274, 6.82007 7.36225, 6.97661 7.36274, 7.10616 7.40985, 7.20823 7.50358, 7.27889 7.57228, 7.31373 7.66355, 7.31373 7.77838, 7.31373 7.83629, 7.30834 7.89665, 7.29754 7.95897 Z" stroke="none" fill="#000000" />
			<rect />
		</svg>
	</g>
	<g transform="matrix(1 0 -0 1 8.49999 204.914)">
		<svg width="36.0612984" height="41.9571304">
			<defs />
			<path d="M 10.5125 8.92471 C 10.3187 9.68435, 10.0046 10.417, 9.57081 11.1236, 9.13701 11.8303, 8.59084 12.4766, 7.93327 13.0625, 7.34048 13.5915, 6.69223 14.012, 5.98854 14.3232, 5.28533 14.6343, 4.58065 14.7898, 3.87401 14.7898, 3.16296 14.7898, 2.53091 14.6333, 1.97835 14.3192, 1.4258 14.0052, 0.985129 13.5812, 0.656345 13.0468, 0.295173 12.456, 0.0875971 11.8013, 0.0336176 11.0839, 0.0120258 10.9116, 0.00123 10.7389, 0.00123 10.5657, 0.00123 10.0269, 0.0714033 9.46941, 0.21175 8.8933, 0.416872 8.12434, 0.733388 7.37746, 1.16179 6.65217, 1.59019 5.92738, 2.13882 5.27177, 2.80718 4.68487, 3.39997 4.15685, 4.04822 3.73139, 4.75143 3.40948, 5.45512 3.08757, 6.1652 2.92661, 6.88214 2.92612, 7.59369 2.92661, 8.22329 3.08904, 8.76995 3.41341, 9.31711 3.73826, 9.75483 4.16716, 10.0836 4.70057, 10.4448 5.29238, 10.6578 5.95191, 10.7225 6.67916, 10.7333 6.85779, 10.7387 7.03298, 10.7387 7.20522, 10.7387 7.76562, 10.6637 8.33879, 10.5125 8.92471 Z M 8.87889 4.96752 C 8.70125 4.52833, 8.43479 4.17108, 8.07901 3.89628, 7.72324 3.62147, 7.2865 3.48407, 6.76879 3.48358, 6.25696 3.48407, 5.74759 3.62442, 5.24068 3.90413, 4.73425 4.18433, 4.28131 4.54648, 3.88236 4.99108, 3.38133 5.53087, 2.98531 6.11582, 2.69383 6.74639, 2.40283 7.37746, 2.1766 8.01687, 2.01466 8.66561, 1.82623 9.37274, 1.70993 10.0612, 1.66674 10.7306, 1.65595 10.8567, 1.65055 10.9823, 1.65055 11.1074, 1.65055 11.6315, 1.73692 12.1443, 1.90965 12.6464, 2.0765 13.0919, 2.33265 13.4649, 2.67763 13.7657, 3.02261 14.067, 3.45395 14.2172, 3.97118 14.2167, 4.50508 14.2172, 5.02623 14.064, 5.5356 13.7578, 6.04497 13.4516, 6.50183 13.0733, 6.90619 12.6228, 7.4293 12.0163, 7.83611 11.3749, 8.12711 10.6997, 8.41859 10.0244, 8.65561 9.33594, 8.83865 8.6342, 9.00599 7.98056, 9.111 7.33673, 9.15419 6.70272 L 9.15419 6.42791 C 9.15419 5.9048, 9.06242 5.41801, 8.87889 4.96752 Z" stroke="none" fill="#000000" />
			<rect />
		</svg>
	</g>
	<g transform="matrix(1 0 -0 1 114.718 14.972)">
		<svg width="189.018036" height="92.9999771">
			<defs />
			<path d="M 5.63988 14.8561 C 5.52701 15.2958, 5.34888 15.7158, 5.10646 16.1163, 4.86405 16.5167, 4.57795 16.873, 4.24917 17.1841, 3.92039 17.4957, 3.55136 17.7484, 3.14161 17.9418, 2.73186 18.1356, 2.30591 18.2323, 1.86377 18.2323, 1.59976 18.2323, 1.35734 18.1842, 1.13652 18.087, 0.915692 17.9903, 0.735106 17.8593, 0.594759 17.6944, 0.454413 17.5296, 0.360194 17.3347, 0.311612 17.1095, 0.290021 17.0104, 0.279225 16.9083, 0.279225 16.8033, 0.279225 16.6674, 0.295419 16.5285, 0.327806 16.3871, 0.387184 16.1516, 0.508392 15.9749, 0.691432 15.8572, 0.874962 15.7394, 1.05555 15.6805, 1.23319 15.6805, 1.42212 15.6805, 1.58111 15.7409, 1.71017 15.8611, 1.80194 15.9504, 1.84757 16.0652, 1.84757 16.2066, 1.84757 16.2645, 1.83678 16.3351, 1.81519 16.4186, 1.7563 16.6541, 1.63509 16.8308, 1.45156 16.9485, 1.26852 17.0663, 1.12278 17.1252, 1.01482 17.1252, 1.04721 17.2665, 1.14829 17.399, 1.31808 17.5217, 1.48787 17.6449, 1.70526 17.7062, 1.96927 17.7062, 2.26027 17.7062, 2.53262 17.6277, 2.78584 17.4707, 3.03905 17.3136, 3.27116 17.1031, 3.48119 16.8386, 3.69122 16.5746, 3.87573 16.2684, 4.03472 15.92, 4.19372 15.5721, 4.3218 15.207, 4.41896 14.8247 L 4.46754 14.6363 C 4.38706 14.7099, 4.21727 14.8056, 3.95817 14.9228, 3.69956 15.0406, 3.41641 15.0995, 3.10922 15.0995, 2.74265 15.0995, 2.41534 15.0318, 2.1268 14.8954, 1.83825 14.7599, 1.61056 14.5504, 1.44371 14.2672, 1.28177 13.964, 1.20375 13.6293, 1.20914 13.2622 L 1.20914 13.1994 C 1.21994 12.8176, 1.26852 12.4383, 1.3544 12.0609, 1.44077 11.7003, 1.56639 11.3028, 1.73078 10.868, 1.89517 10.4337, 2.0527 10.0122, 2.20335 9.6034, 2.36529 9.1696, 2.44626 8.81334, 2.44626 8.53559, 2.44626 8.30053, 2.34664 8.18276, 2.14691 8.18227, 1.96388 8.18276, 1.79801 8.23527, 1.64981 8.33979, 1.50161 8.4448, 1.36716 8.59006, 1.24546 8.77555, 1.12425 8.96154, 1.01531 9.18138, 0.918146 9.43508, 0.820982 9.68928, 0.740013 9.95967, 0.675238 10.2472, 0.616351 10.389, 0.516734 10.4622, 0.376388 10.4671 L 0.190404 10.4671 C 0.0608531 10.4676, -0.00392231 10.4023, -0.00392231 10.2708 L -0.00392231 10.2158 C 0.071649 9.92826, 0.171756 9.63432, 0.295419 9.33301, 0.419571 9.0322, 0.576112 8.75887, 0.764549 8.51252, 0.952987 8.26667, 1.1689 8.06253, 1.41132 7.9001, 1.65374 7.73816, 1.93149 7.6567, 2.24408 7.65621, 2.51398 7.6567, 2.74412 7.71461, 2.93551 7.82944, 3.12689 7.94476, 3.27214 8.09786, 3.37176 8.28875, 3.47187 8.48014, 3.52683 8.69556, 3.53762 8.93602 L 3.53762 8.99098 C 3.53762 9.21671, 3.49199 9.44931, 3.40022 9.68977, 3.24417 10.0985, 3.0891 10.5161, 2.93551 10.9426, 2.78191 11.3695, 2.66217 11.7528, 2.57581 12.0928, 2.48944 12.4334, 2.43006 12.7705, 2.39767 13.1052, 2.37608 13.1945, 2.36283 13.2917, 2.35694 13.3957, 2.35694 13.6003, 2.39228 13.802, 2.46245 14.0003, 2.51103 14.1789, 2.59985 14.3202, 2.7294 14.4248, 2.85895 14.5298, 3.01255 14.5818, 3.19019 14.5813, 3.53517 14.5818, 3.83696 14.4797, 4.09557 14.2756, 4.35468 14.0714, 4.5809 13.8045, 4.77473 13.4742 L 6.07662 8.40996 C 6.1252 8.21662, 6.22335 8.07431, 6.37155 7.98254, 6.51974 7.89127, 6.66941 7.84514, 6.82007 7.84465, 6.97661 7.84514, 7.10616 7.89225, 7.20823 7.98598, 7.27889 8.05468, 7.31373 8.14595, 7.31373 8.26078, 7.31373 8.31869, 7.30834 8.37905, 7.29754 8.44137 Z" stroke="none" fill="#000000" />
			<polyline points="-5.628 -1.6884 5.628 -1.6884" fill="none" stroke="#000000" stroke-width="0.64319998" stroke-linecap="round" stroke-linejoin="round" transform="matrix(1 0 0 1 17.6089 10.0888)" />
			<polyline points="-5.628 1.6884 5.628 1.6884" fill="none" stroke="#000000" stroke-width="0.64319998" stroke-linecap="round" stroke-linejoin="round" transform="matrix(1 0 0 1 17.6089 10.0888)" />
			<path d="M 35.916 4.81395 C 35.8566 5.04459, 35.7354 5.22174, 35.5519 5.34442, 35.3689 5.46759, 35.1883 5.52893, 35.0101 5.52844, 34.8163 5.52893, 34.6598 5.46072, 34.541 5.3243, 34.4497 5.23597, 34.4011 5.1231, 34.3953 4.98668, 34.3953 4.92976, 34.4061 4.85615, 34.4276 4.76684, 34.4875 4.56859, 34.5886 4.41155, 34.7314 4.29624, 34.8742 4.18141, 34.9807 4.1181, 35.0504 4.10731, 34.9483 3.99248, 34.7461 3.93506, 34.4438 3.93457, 34.2662 3.93506, 34.0964 4.08964, 33.9345 4.39781, 33.9021 4.44541, 33.8658 4.55141, 33.8255 4.71629, 33.7853 4.88118, 33.7392 5.08286, 33.6881 5.32086, 33.6371 5.55935, 33.5841 5.81159, 33.5301 6.07854, 33.4761 6.34549, 33.4276 6.60214, 33.3844 6.8475 L 33.1822 7.84465, 34.6622 7.84465 C 34.8026 7.84514, 34.8727 7.91581, 34.8727 8.05664 L 34.8727 8.1116, 34.8403 8.25293 C 34.781 8.41045, 34.6759 8.48897, 34.5248 8.48848 L 33.0531 8.48848, 32.2768 12.3986 C 32.2012 12.7656, 32.1208 13.1567, 32.0344 13.5729, 31.948 13.989, 31.8538 14.4027, 31.7512 14.8134, 31.6487 15.2241, 31.5314 15.6128, 31.3994 15.9789, 31.2674 16.3454, 31.1256 16.6649, 30.9744 16.9368, 30.8832 17.0889, 30.7791 17.242, 30.6633 17.3961, 30.5475 17.5507, 30.4199 17.6881, 30.2796 17.8083, 30.1392 17.929, 29.9871 18.0296, 29.8222 18.1106, 29.6578 18.192, 29.4812 18.2323, 29.2927 18.2323, 29.0827 18.2323, 28.8859 18.1984, 28.7024 18.1302, 28.5193 18.0625, 28.3618 17.9683, 28.2293 17.8475, 28.0978 17.7273, 27.9992 17.5806, 27.9339 17.4079, 27.9128 17.3136, 27.902 17.2194, 27.9015 17.1252, 27.902 17.0364, 27.9128 16.9397, 27.9339 16.8347, 27.9938 16.5991, 28.1179 16.4225, 28.3064 16.3047, 28.4953 16.1869, 28.6813 16.128, 28.8638 16.128, 29.0533 16.128, 29.2093 16.1909, 29.333 16.3165, 29.4247 16.4058, 29.4704 16.5182, 29.4704 16.6541, 29.4704 16.712, 29.4596 16.7851, 29.438 16.8739, 29.3791 17.0732, 29.2765 17.2327, 29.1313 17.3529, 28.986 17.4736, 28.8781 17.5389, 28.8074 17.5492, 28.8997 17.6542, 29.0881 17.7062, 29.3732 17.7062, 29.5135 17.7062, 29.6446 17.6277, 29.7658 17.4707, 29.887 17.3136, 29.9851 17.0992, 30.0607 16.8268, 30.2496 16.1884, 30.4209 15.4808, 30.5745 14.7035, 30.7281 13.9262, 30.8802 13.1685, 31.0314 12.43 L 31.8317 8.48848, 30.6187 8.48848 C 30.5382 8.48897, 30.4788 8.46296, 30.441 8.40996, 30.4086 8.37905, 30.3924 8.33979, 30.3924 8.29219, 30.3924 8.26127, 30.4008 8.23232, 30.4165 8.20582 L 30.441 8.08805 C 30.4572 8.02033, 30.4935 7.96291, 30.55 7.91581, 30.6069 7.8687, 30.6672 7.84514, 30.732 7.84465 L 31.9613 7.84465, 32.1473 6.86321 C 32.1796 6.65956, 32.2228 6.4348, 32.2768 6.18846, 32.3308 5.94261, 32.3951 5.69774, 32.4706 5.45434, 32.5462 5.21094, 32.6316 4.97687, 32.7258 4.75163, 32.82 4.52687, 32.9349 4.33549, 33.0693 4.17797, 33.2636 3.95322, 33.4874 3.7692, 33.7406 3.62493, 33.9938 3.48114, 34.2608 3.40901, 34.541 3.40852, 34.7515 3.40901, 34.9522 3.44041, 35.1436 3.50323, 35.335 3.56604, 35.4969 3.6578, 35.6289 3.77803, 35.7609 3.89875, 35.8537 4.04253, 35.9077 4.20938, 35.9454 4.29378, 35.9641 4.39045, 35.9641 4.49988, 35.9641 4.5892, 35.9484 4.69421, 35.916 4.81395 Z" stroke="none" fill="#000000" />
			<path d="M 52.388 8.96742 C 52.3291 9.20346, 52.2089 9.38012, 52.0283 9.4979, 51.8477 9.61567, 51.6662 9.67455, 51.4827 9.67406, 51.2942 9.67455, 51.1377 9.6142, 51.0135 9.49348, 50.9222 9.40515, 50.8737 9.28983, 50.8678 9.14801, 50.8678 9.09109, 50.8786 9.01748, 50.9002 8.92817, 50.9595 8.72991, 51.0513 8.57926, 51.175 8.47719, 51.2991 8.37512, 51.3855 8.31623, 51.4341 8.30004, 51.332 8.22202, 51.1215 8.18276, 50.803 8.18227, 50.5228 8.18276, 50.272 8.32801, 50.0512 8.61852, 49.8304 8.90903, 49.6655 9.25842, 49.5575 9.66621 L 48.8136 12.5399 C 48.738 12.8284, 48.6816 13.1032, 48.6438 13.3643, 48.6222 13.4536, 48.6114 13.5321, 48.6114 13.5998, 48.6114 13.7628, 48.6384 13.9169, 48.6924 14.0631, 48.7464 14.2206, 48.8274 14.3462, 48.9353 14.4405, 49.0433 14.5347, 49.1807 14.5818, 49.3475 14.5813, 49.5634 14.5818, 49.771 14.5258, 49.9702 14.413, 50.17 14.3006, 50.3535 14.149, 50.5203 13.9576, 50.6872 13.7667, 50.8354 13.5444, 50.9649 13.2902, 51.0945 13.0365, 51.1966 12.7759, 51.2721 12.5085, 51.3045 12.373, 51.3963 12.3048, 51.5469 12.3043 L 51.7329 12.3043 C 51.8733 12.3048, 51.9434 12.3573, 51.9434 12.4614, 51.9434 12.4933, 51.9356 12.5222, 51.9194 12.5477, 51.8438 12.8623, 51.7211 13.1724, 51.5513 13.4786, 51.3816 13.7848, 51.1838 14.0557, 50.9571 14.2913, 50.7304 14.5268, 50.4732 14.7207, 50.1847 14.8718, 49.8961 15.0239, 49.5875 15.0995, 49.2587 15.0995, 48.9245 15.0995, 48.636 15.0278, 48.3936 14.8836, 48.1511 14.7403, 47.9539 14.5528, 47.8027 14.3222, 47.7546 14.2653, 47.7168 14.2064, 47.6899 14.146, 47.6629 14.0862, 47.6545 14.0768, 47.6653 14.118, 47.5363 14.333, 47.3316 14.5504, 47.0509 14.7702, 46.7707 14.9901, 46.4473 15.0995, 46.0803 15.0995, 45.8757 15.0995, 45.6735 15.0735, 45.4738 15.021, 45.2745 14.969, 45.1003 14.888, 44.9521 14.7781, 44.8039 14.6681, 44.692 14.5347, 44.6165 14.3772, 44.5792 14.2834, 44.5605 14.1814, 44.56 14.0709, 44.5605 13.9929, 44.5713 13.9011, 44.5924 13.7961, 44.6518 13.5611, 44.773 13.3844, 44.9565 13.2666, 45.1401 13.1489, 45.3231 13.09, 45.5061 13.0895, 45.6951 13.09, 45.857 13.1503, 45.9915 13.2701, 46.0832 13.3594, 46.1289 13.4747, 46.1289 13.6155, 46.1289 13.6892, 46.1181 13.7628, 46.0965 13.8354, 46.0484 14.0189, 45.9605 14.1671, 45.8339 14.2795, 45.7073 14.3924, 45.6166 14.4537, 45.5626 14.4635, 45.6651 14.5479, 45.8727 14.5872, 46.1853 14.5813, 46.466 14.5818, 46.7192 14.4355, 46.9454 14.1421, 47.1721 13.8491, 47.3365 13.4983, 47.4391 13.0895 L 48.1909 10.2001 C 48.2665 9.92826, 48.3258 9.66131, 48.369 9.39926, 48.3798 9.31584, 48.3852 9.23732, 48.3852 9.16371, 48.3852 9.00177, 48.3612 8.85014, 48.3121 8.70832, 48.2586 8.55178, 48.1752 8.42518, 48.0618 8.32801, 47.9485 8.23134, 47.8081 8.18276, 47.6413 8.18227, 47.4254 8.18276, 47.2163 8.23919, 47.0141 8.35157, 46.812 8.46443, 46.6274 8.61459, 46.4606 8.80303, 46.2937 8.99147, 46.1455 9.21033, 46.016 9.45864, 45.8864 9.70743, 45.7922 9.97046, 45.7324 10.2472, 45.6735 10.389, 45.5739 10.4622, 45.4335 10.4671 L 45.2554 10.4671 C 45.1263 10.4676, 45.0615 10.4023, 45.0615 10.2708 L 45.0615 10.2158 C 45.1425 9.89194, 45.2667 9.57641, 45.4335 9.2702, 45.6004 8.96399, 45.8001 8.69311, 46.0317 8.45756, 46.2638 8.22202, 46.5229 8.02965, 46.8085 7.88047, 47.0941 7.73129, 47.4043 7.6567, 47.7379 7.65621, 48.0618 7.6567, 48.3474 7.72737, 48.5952 7.8687, 48.8435 8.01002, 49.0457 8.19846, 49.2018 8.43352, 49.2342 8.49142, 49.2641 8.55325, 49.2911 8.61852, 49.3181 8.68428, 49.3259 8.70096, 49.3151 8.66906, 49.4501 8.43941, 49.6576 8.21318, 49.9379 7.9904, 50.2185 7.7681, 50.539 7.6567, 50.9002 7.65621, 51.1053 7.6567, 51.3084 7.68173, 51.5106 7.73129, 51.7128 7.78135, 51.8885 7.86084, 52.0367 7.97077, 52.1849 8.08069, 52.2943 8.21662, 52.364 8.37856, 52.4018 8.47327, 52.4204 8.58073, 52.4204 8.70047, 52.4204 8.77948, 52.4096 8.8683, 52.388 8.96742 Z" stroke="none" fill="#000000" />
			<path d="M 1.32574 7.67678 C -3.91634 4.22223, -3.91634 -4.22223, 1.32574 -7.67678 L 2.14904 -7.67678 C -2.57848 -4.22223, -2.57848 4.22223, 2.14904 7.67678" stroke="none" fill="#000000" transform="matrix(1 0 -0 1 41.5906 10.0888)" />
			<path d="M 1.32574 7.67678 C -3.91634 4.22223, -3.91634 -4.22223, 1.32574 -7.67678 L 2.14904 -7.67678 C -2.57848 -4.22223, -2.57848 4.22223, 2.14904 7.67678" stroke="none" fill="#000000" transform="matrix(-1 1.50996e-007 -1.50996e-007 -1 55.4006 10.0888)" />
			<rect />
		</svg>
	</g>
	<g transform="matrix(1 0 -0 1 75.0459 97.9174)">
		<svg width="66.0351563" height="45.0428467">
			<defs />
			<path d="M 15.628 3.69557 C 15.5957 3.85849, 15.496 3.93946, 15.3287 3.93897, 15.0755 3.93946, 14.836 3.94486, 14.6093 3.95516, 14.3831 3.96596, 14.2187 3.99344, 14.1161 4.0376, 14.0141 4.08226, 13.9331 4.21966, 13.8732 4.44932 L 11.6012 13.298 C 11.5693 13.4138, 11.5531 13.5051, 11.5531 13.5728, 11.5531 13.6361, 11.5693 13.6754, 11.6012 13.6906, 11.6767 13.7382, 11.824 13.7657, 12.0423 13.7735, 12.2607 13.7814, 12.4963 13.7853, 12.7495 13.7848, 12.9006 13.7853, 12.9757 13.8481, 12.9757 13.9733, 12.9757 14.0052, 12.9708 14.039, 12.96 14.0753 L 12.9276 14.1931 C 12.9114 14.2618, 12.8751 14.3192, 12.8182 14.3658, 12.7617 14.413, 12.6955 14.4365, 12.6199 14.4365, 11.979 14.4051, 11.3269 14.3894, 10.6634 14.3894, 10.0009 14.3894, 9.33257 14.4051, 8.65831 14.4365, 8.51846 14.4365, 8.44829 14.3688, 8.44829 14.2324 L 8.44829 14.1696, 8.48018 14.0361 C 8.52337 13.8638, 8.62887 13.7799, 8.79572 13.7848, 9.04893 13.7853, 9.28644 13.7814, 9.50726 13.7735, 9.72858 13.7657, 9.89297 13.7382, 10.0004 13.6906, 10.0976 13.6386, 10.1761 13.4973, 10.235 13.2666 L 12.5071 4.49643, 6.49963 14.2167 C 6.41915 14.3634, 6.29499 14.4365, 6.12766 14.4365 L 6.04669 14.4365 C 5.87984 14.4365, 5.77974 14.3531, 5.74735 14.1853 L 4.76934 4.5828, 2.64255 12.8662 C 2.61065 12.9609, 2.59446 13.0605, 2.59446 13.1646, 2.59446 13.1911, 2.59985 13.22, 2.61065 13.2509, 2.62145 13.377, 2.66414 13.4767, 2.73971 13.5493, 2.83687 13.644, 2.96642 13.7068, 3.12787 13.7382, 3.28981 13.7696, 3.47285 13.7853, 3.67748 13.7848, 3.82862 13.7853, 3.90419 13.8481, 3.90419 13.9733, 3.90419 14.0052, 3.8988 14.039, 3.888 14.0753 L 3.85561 14.1931 C 3.83942 14.2618, 3.80311 14.3192, 3.74618 14.3658, 3.68975 14.413, 3.62105 14.4365, 3.54008 14.4365, 3.00126 14.4051, 2.45705 14.3894, 1.90695 14.3894, 1.35734 14.3894, 0.799392 14.4051, 0.233098 14.4365, 0.15262 14.4365, 0.0932424 14.413, 0.0554568 14.3658, 0.0181619 14.3295, -0.000976309 14.2903, -0.000976309 14.2481, -0.000976309 14.2172, 0.00442164 14.1857, 0.0152175 14.1539 L 0.0471145 14.0361 C 0.0902981 13.8638, 0.195803 13.7799, 0.362649 13.7848, 0.567771 13.7853, 0.760134 13.7696, 0.94072 13.7382, 1.12131 13.7068, 1.29011 13.6415, 1.44616 13.5414, 1.57032 13.4634, 1.67141 13.3604, 1.74943 13.2318, 1.82795 13.1037, 1.88585 12.9663, 1.92315 12.8191 L 4.09018 4.41791 C 4.12257 4.30309, 4.13876 4.21426, 4.13876 4.15096, 4.13876 4.08864, 4.12551 4.05184, 4.09803 4.04104, 4.02295 3.99442, 3.87622 3.96596, 3.65785 3.95516, 3.43948 3.94486, 3.20344 3.93946, 2.95023 3.93897, 2.80498 3.93946, 2.72646 3.8688, 2.71566 3.72698 L 2.71566 3.67202, 2.74805 3.53069 C 2.80743 3.37415, 2.91244 3.29563, 3.0631 3.29514 L 5.68306 3.29514 C 5.8558 3.29563, 5.95247 3.37955, 5.97406 3.54639 L 6.89564 12.5207, 12.4585 3.51499 C 12.5394 3.36875, 12.6636 3.29563, 12.8304 3.29514 L 15.4499 3.29514 C 15.5255 3.29563, 15.5903 3.32164, 15.6442 3.37366, 15.6658 3.41586, 15.6766 3.45512, 15.6766 3.49143, 15.6766 3.52333, 15.6688 3.55228, 15.6521 3.5778 Z" stroke="none" fill="#000000" />
			<path d="M 2.44468 -0.319828 C 2.44468 0.102547, 2.41528 0.522449, 2.35647 0.940152, 2.29766 1.35785, 2.15201 1.75, 1.91953 2.11604, 1.75355 2.38315, 1.5315 2.58816, 1.25395 2.7316, 0.976399 2.87533, 0.674389 2.94705, 0.348196 2.94705, 0.0343688 2.94705, -0.262146 2.87533, -0.541347 2.7316, -0.820549 2.58816, -1.04342 2.38315, -1.2094 2.11604, -1.44161 1.75, -1.58725 1.35785, -1.64606 0.940152, -1.70487 0.522449, -1.73455 0.102547, -1.73455 -0.319828, -1.73455 -0.747424, -1.70487 -1.17475, -1.64606 -1.60124, -1.58725 -2.02774, -1.44161 -2.42703, -1.2094 -2.79967, -1.04342 -3.06897, -0.821373 -3.27865, -0.54382 -3.42814, -0.265993 -3.57764, 0.0313458 -3.65238, 0.348196 -3.65266, 0.671366 -3.65238, 0.972277 -3.57764, 1.25148 -3.42814, 1.53068 -3.27865, 1.75355 -3.06897, 1.91953 -2.79967, 2.15201 -2.42703, 2.29766 -2.02774, 2.35647 -1.60124, 2.41528 -1.17475, 2.44468 -0.747424, 2.44468 -0.319828 Z M 1.54799 -0.473718 C 1.54799 -0.658112, 1.54662 -0.852949, 1.5436 -1.05823, 1.54085 -1.26323, 1.53315 -1.46411, 1.52106 -1.6606, 1.50897 -1.85681, 1.48726 -2.0423, 1.45538 -2.2168, 1.42378 -2.39103, 1.38531 -2.53997, 1.33997 -2.66336, 1.24928 -2.86232, 1.11655 -3.02583, 0.941499 -3.15334, 0.766448 -3.28085, 0.568589 -3.3446, 0.348196 -3.34488, 0.133848 -3.3446, -0.0598893 -3.28002, -0.233566 -3.15114, -0.406968 -3.02198, -0.539149 -2.85957, -0.629834 -2.66336, -0.674902 -2.53997, -0.713375 -2.39103, -0.745252 -2.2168, -0.776855 -2.0423, -0.798839 -1.85681, -0.81093 -1.6606, -0.823022 -1.46411, -0.830442 -1.26323, -0.833465 -1.05823, -0.836487 -0.852949, -0.838136 -0.658112, -0.838136 -0.473718, -0.838136 -0.268164, -0.836487 -0.0518932, -0.833465 0.175096, -0.830442 0.402359, -0.823022 0.622203, -0.81093 0.834627, -0.798839 1.04733, -0.776855 1.24876, -0.745252 1.4392, -0.713375 1.62991, -0.674902 1.78957, -0.629834 1.91818, -0.545194 2.13253, -0.414387 2.3084, -0.237963 2.44608, -0.0615381 2.58403, 0.133848 2.65273, 0.348196 2.65246, 0.571612 2.65273, 0.77167 2.58403, 0.948094 2.44608, 1.12479 2.3084, 1.25533 2.13253, 1.33997 1.91818, 1.38531 1.78957, 1.42378 1.62991, 1.45538 1.4392, 1.48726 1.24876, 1.50897 1.04733, 1.52106 0.834627, 1.53315 0.622203, 1.54085 0.402359, 1.5436 0.175096, 1.54662 -0.0518932, 1.54799 -0.268164, 1.54799 -0.473718 Z" stroke="none" fill="#000000" transform="matrix(1.12 0 0 1 17.4467 13.9768)" />
			<rect />
		</svg>
	</g>
	<ellipse cx="944.36143779754639" cy="534.07670879364014" rx="6.8249998092651367" ry="6.8249998092651367" stroke="none" fill="#000000" transform="matrix(0.384615 0 0 0.384615 -286.209 -82.8358)" />
	<ellipse cx="1158.6855955123901" cy="556.46129131317139" rx="6.8249998092651367" ry="6.8249998092651367" stroke="none" fill="#000000" transform="matrix(0.384615 0 0 0.384615 -286.209 -82.8358)" />
	<ellipse cx="1304.4510984420776" cy="395.52864360809326" rx="6.8249998092651367" ry="6.8249998092651367" stroke="none" fill="#000000" transform="matrix(0.384615 0 0 0.384615 -286.209 -82.8358)" />
	<g transform="matrix(1 0 -0 1 151.599 103.599)">
		<svg width="50.9839096" height="38.9999886">
			<defs />
			<path d="M 15.6266 3.69557 C 15.5947 3.85849, 15.4951 3.93946, 15.3277 3.93897, 15.0745 3.93946, 14.8346 3.94486, 14.6078 3.95516, 14.3816 3.96596, 14.2172 3.99344, 14.1147 4.0376, 14.0126 4.08226, 13.9316 4.21966, 13.8718 4.44932 L 11.5992 13.298 C 11.5668 13.4138, 11.5506 13.5051, 11.5506 13.5728, 11.5506 13.6361, 11.5668 13.6754, 11.5992 13.6906, 11.6748 13.7382, 11.822 13.7657, 12.0404 13.7735, 12.2587 13.7814, 12.4948 13.7853, 12.748 13.7848, 12.8991 13.7853, 12.9742 13.8481, 12.9742 13.9733, 12.9742 14.0052, 12.9688 14.039, 12.958 14.0753 L 12.9256 14.1931 C 12.9099 14.2618, 12.8736 14.3192, 12.8167 14.3658, 12.7603 14.413, 12.694 14.4365, 12.6184 14.4365, 11.9771 14.4051, 11.3249 14.3894, 10.6614 14.3894, 9.99848 14.3894, 9.33011 14.4051, 8.65586 14.4365, 8.51552 14.4365, 8.44534 14.3688, 8.44534 14.2324 L 8.44534 14.1696, 8.47773 14.0361 C 8.52091 13.8638, 8.62642 13.7799, 8.79326 13.7848, 9.04648 13.7853, 9.28399 13.7814, 9.50481 13.7735, 9.72613 13.7657, 9.89052 13.7382, 9.99799 13.6906, 10.0952 13.6386, 10.1737 13.4973, 10.2326 13.2666 L 12.5051 4.49643, 6.49619 14.2167 C 6.41571 14.3634, 6.29156 14.4365, 6.12422 14.4365 L 6.04375 14.4365 C 5.8769 14.4365, 5.77679 14.3531, 5.7444 14.1853 L 4.7659 4.5828, 2.63911 12.8662 C 2.60672 12.9609, 2.59053 13.0605, 2.59053 13.1646, 2.59053 13.1911, 2.59593 13.22, 2.60672 13.2509, 2.61752 13.377, 2.6607 13.4767, 2.73578 13.5493, 2.83295 13.644, 2.9625 13.7068, 3.12444 13.7382, 3.28638 13.7696, 3.46942 13.7853, 3.67405 13.7848, 3.82519 13.7853, 3.90027 13.8481, 3.90027 13.9733, 3.90027 14.0052, 3.89487 14.039, 3.88408 14.0753 L 3.85218 14.1931 C 3.83598 14.2618, 3.79967 14.3192, 3.74275 14.3658, 3.68631 14.413, 3.61761 14.4365, 3.53664 14.4365, 2.99783 14.4051, 2.45313 14.3894, 1.90303 14.3894, 1.35342 14.3894, 0.795467 14.4051, 0.229174 14.4365, 0.148204 14.4365, 0.0888269 14.413, 0.0510413 14.3658, 0.0137464 14.3295, -0.00539182 14.2903, -0.00539182 14.2481, -0.00539182 14.2172, 6.1281e-006 14.1857, 0.010802 14.1539 L 0.042699 14.0361 C 0.0858826 13.8638, 0.191388 13.7799, 0.358234 13.7848, 0.563356 13.7853, 0.75621 13.7696, 0.936796 13.7382, 1.11738 13.7068, 1.28619 13.6415, 1.44224 13.5414, 1.56639 13.4634, 1.66748 13.3604, 1.74551 13.2318, 1.82353 13.1037, 1.88144 12.9663, 1.91922 12.8191 L 4.08625 4.41791 C 4.11864 4.30309, 4.13483 4.21426, 4.13483 4.15096, 4.13483 4.08864, 4.12159 4.05184, 4.0946 4.04104, 4.01902 3.99442, 3.8723 3.96596, 3.65393 3.95516, 3.43556 3.94486, 3.19952 3.93946, 2.9463 3.93897, 2.80105 3.93946, 2.72254 3.8688, 2.71174 3.72698 L 2.71174 3.67202, 2.74413 3.53069 C 2.8035 3.37415, 2.90852 3.29563, 3.05917 3.29514 L 5.67963 3.29514 C 5.85236 3.29563, 5.94904 3.37955, 5.97063 3.54639 L 6.8927 12.5207, 12.4565 3.51499 C 12.5375 3.36875, 12.6616 3.29563, 12.8285 3.29514 L 15.4489 3.29514 C 15.5245 3.29563, 15.5893 3.32164, 15.6428 3.37366, 15.6644 3.41586, 15.6752 3.45512, 15.6752 3.49143, 15.6752 3.52333, 15.6673 3.55228, 15.6511 3.5778 Z" stroke="none" fill="#000000" />
			<rect />
		</svg>
	</g>
	<g transform="matrix(1 0 -0 1 193.899 47.6135)">
		<svg width="62.9477272" height="38.9999886">
			<defs />
			<path d="M 15.6329 3.69557 C 15.601 3.85849, 15.5013 3.93946, 15.334 3.93897, 15.0808 3.93946, 14.8408 3.94486, 14.6141 3.95516, 14.3879 3.96596, 14.2235 3.99344, 14.1209 4.0376, 14.0189 4.08226, 13.9379 4.21966, 13.878 4.44932 L 11.6055 13.298 C 11.5731 13.4138, 11.5569 13.5051, 11.5569 13.5728, 11.5569 13.6361, 11.5731 13.6754, 11.6055 13.6906, 11.6811 13.7382, 11.8283 13.7657, 12.0467 13.7735, 12.265 13.7814, 12.5011 13.7853, 12.7543 13.7848, 12.9054 13.7853, 12.9805 13.8481, 12.9805 13.9733, 12.9805 14.0052, 12.9751 14.039, 12.9643 14.0753 L 12.9319 14.1931 C 12.9162 14.2618, 12.8799 14.3192, 12.823 14.3658, 12.7666 14.413, 12.7003 14.4365, 12.6247 14.4365, 11.9834 14.4051, 11.3312 14.3894, 10.6677 14.3894, 10.0048 14.3894, 9.3364 14.4051, 8.66215 14.4365, 8.5218 14.4365, 8.45163 14.3688, 8.45163 14.2324 L 8.45163 14.1696, 8.48401 14.0361 C 8.5272 13.8638, 8.6327 13.7799, 8.79955 13.7848, 9.05276 13.7853, 9.29027 13.7814, 9.5111 13.7735, 9.73241 13.7657, 9.8968 13.7382, 10.0043 13.6906, 10.1014 13.6386, 10.18 13.4973, 10.2388 13.2666 L 12.5114 4.49643, 6.50248 14.2167 C 6.422 14.3634, 6.29785 14.4365, 6.13051 14.4365 L 6.05003 14.4365 C 5.88318 14.4365, 5.78308 14.3531, 5.75069 14.1853 L 4.77219 4.5828, 2.6454 12.8662 C 2.61301 12.9609, 2.59682 13.0605, 2.59682 13.1646, 2.59682 13.1911, 2.60221 13.22, 2.61301 13.2509, 2.62381 13.377, 2.66699 13.4767, 2.74207 13.5493, 2.83923 13.644, 2.96878 13.7068, 3.13072 13.7382, 3.29266 13.7696, 3.4757 13.7853, 3.68033 13.7848, 3.83147 13.7853, 3.90655 13.8481, 3.90655 13.9733, 3.90655 14.0052, 3.90116 14.039, 3.89036 14.0753 L 3.85846 14.1931 C 3.84227 14.2618, 3.80596 14.3192, 3.74903 14.3658, 3.6926 14.413, 3.6239 14.4365, 3.54293 14.4365, 3.00412 14.4051, 2.45941 14.3894, 1.90931 14.3894, 1.3597 14.3894, 0.801752 14.4051, 0.235458 14.4365, 0.154489 14.4365, 0.0951118 14.413, 0.0573261 14.3658, 0.0200312 14.3295, 0.000893024 14.2903, 0.000893024 14.2481, 0.000893024 14.2172, 0.00629097 14.1857, 0.0170869 14.1539 L 0.0489838 14.0361 C 0.0921674 13.8638, 0.197673 13.7799, 0.364518 13.7848, 0.569641 13.7853, 0.762495 13.7696, 0.94308 13.7382, 1.12367 13.7068, 1.29247 13.6415, 1.44852 13.5414, 1.57268 13.4634, 1.67377 13.3604, 1.75179 13.2318, 1.82982 13.1037, 1.88772 12.9663, 1.92551 12.8191 L 4.09254 4.41791 C 4.12493 4.30309, 4.14112 4.21426, 4.14112 4.15096, 4.14112 4.08864, 4.12787 4.05184, 4.10088 4.04104, 4.02531 3.99442, 3.87858 3.96596, 3.66021 3.95516, 3.44184 3.94486, 3.2058 3.93946, 2.95259 3.93897, 2.80734 3.93946, 2.72882 3.8688, 2.71802 3.72698 L 2.71802 3.67202, 2.75041 3.53069 C 2.80979 3.37415, 2.9148 3.29563, 3.06546 3.29514 L 5.68591 3.29514 C 5.85865 3.29563, 5.95532 3.37955, 5.97691 3.54639 L 6.89898 12.5207, 12.4628 3.51499 C 12.5438 3.36875, 12.6679 3.29563, 12.8348 3.29514 L 15.4552 3.29514 C 15.5308 3.29563, 15.5956 3.32164, 15.6491 3.37366, 15.6706 3.41586, 15.6814 3.45512, 15.6814 3.49143, 15.6814 3.52333, 15.6736 3.55228, 15.6574 3.5778 Z" stroke="none" fill="#000000" />
			<path d="M 19.6881 4.87331 C 19.5266 5.48082, 19.2558 6.05693, 18.8759 6.60114, 18.4961 7.14584, 18.0231 7.62724, 17.4568 8.04534, 17.3974 8.07184, 17.3518 8.08508, 17.3194 8.08459 L 17.3032 8.1003 C 17.2222 8.10079, 17.1604 8.07184, 17.1172 8.01393 L 17.101 7.98252 C 17.074 7.9413, 17.0603 7.90205, 17.0603 7.86475, 17.0603 7.79212, 17.0981 7.72146, 17.1736 7.65276, 17.6643 7.27098, 18.0834 6.84061, 18.4309 6.36167, 18.7788 5.88272, 19.0173 5.37384, 19.1463 4.83405, 19.1679 4.78743, 19.1817 4.74179, 19.1871 4.69714, 19.1925 4.65297, 19.1841 4.68781, 19.1625 4.80264, 19.1841 4.78203, 19.1223 4.8046, 18.9765 4.86987, 18.8313 4.93563, 18.6777 4.96801, 18.5157 4.96752, 18.187 4.96801, 17.9632 4.86349, 17.8444 4.65346, 17.7748 4.53863, 17.7394 4.4081, 17.7394 4.26088, 17.7394 4.18286, 17.7502 4.09894, 17.7718 4.00963, 17.8312 3.79568, 17.9647 3.59399, 18.1722 3.40555, 18.3798 3.21712, 18.637 3.1229, 18.9442 3.12241, 19.1763 3.1229, 19.3544 3.1808, 19.4781 3.29563, 19.6022 3.41095, 19.6886 3.55228, 19.7367 3.71913, 19.7691 3.85064, 19.7852 3.98657, 19.7852 4.12741 L 19.7852 4.28444 C 19.7637 4.49447, 19.7313 4.69076, 19.6881 4.87331 Z" stroke="none" fill="#000000" />
			<rect />
		</svg>
	</g>
	<g transform="matrix(1 0 -0 1 70.4959 219.593)">
		<svg width="44.9376793" height="33.0857048">
			<defs />
			<path d="M 7.82335 8.48502 C 7.76446 8.72106, 7.64424 8.89772, 7.46365 9.0155, 7.28306 9.13327, 7.1015 9.19215, 6.91797 9.19166, 6.72953 9.19215, 6.57299 9.1318, 6.44883 9.01108, 6.35756 8.92275, 6.30898 8.80743, 6.30309 8.66561, 6.30309 8.60869, 6.31389 8.53508, 6.33548 8.44577, 6.39535 8.24751, 6.48711 8.09686, 6.61077 7.99479, 6.73493 7.89272, 6.82129 7.83384, 6.86938 7.81764, 6.76731 7.73962, 6.55679 7.70036, 6.23881 7.69987, 5.9586 7.70036, 5.70784 7.84561, 5.48702 8.13612, 5.26619 8.42663, 5.10131 8.77602, 4.99335 9.18381 L 4.24942 12.0575 C 4.17434 12.346, 4.1179 12.6208, 4.07963 12.8819, 4.05853 12.9712, 4.04773 13.0497, 4.04773 13.1174, 4.04773 13.2804, 4.07472 13.4345, 4.12821 13.5807, 4.18219 13.7382, 4.26316 13.8638, 4.37112 13.9581, 4.47907 14.0523, 4.61648 14.0994, 4.78332 14.0989, 4.99924 14.0994, 5.20682 14.0434, 5.40605 13.9306, 5.60528 13.8182, 5.78881 13.6666, 5.95566 13.4752, 6.123 13.2843, 6.27119 13.062, 6.40074 12.8078, 6.53029 12.5541, 6.63237 12.2935, 6.70745 12.0261, 6.73983 11.8906, 6.8316 11.8224, 6.98274 11.8219 L 7.16823 11.8219 C 7.30858 11.8224, 7.37875 11.8749, 7.37875 11.979, 7.37875 12.0109, 7.3709 12.0398, 7.35422 12.0653, 7.27914 12.3799, 7.15646 12.69, 6.98667 12.9962, 6.81688 13.3024, 6.61912 13.5733, 6.3924 13.8089, 6.16618 14.0444, 5.90904 14.2383, 5.6205 14.3894, 5.33195 14.5415, 5.02329 14.6171, 4.6945 14.6171, 4.36032 14.6171, 4.07177 14.5454, 3.82936 14.4012, 3.58694 14.2579, 3.39016 14.0704, 3.23902 13.8398, 3.19093 13.7829, 3.15314 13.724, 3.12615 13.6636, 3.09916 13.6038, 3.09082 13.5944, 3.10162 13.6356, 2.97207 13.8506, 2.76743 14.068, 2.48723 14.2878, 2.20703 14.5077, 1.88364 14.6171, 1.51658 14.6171, 1.31195 14.6171, 1.10977 14.5911, 0.910539 14.5386, 0.711306 14.4866, 0.5371 14.4056, 0.388901 14.2957, 0.240703 14.1857, 0.128818 14.0523, 0.053247 13.8948, 0.0159521 13.801, -0.00269534 13.699, -0.00318607 13.5885, -0.00269534 13.5105, 0.00810055 13.4187, 0.0292016 13.3137, 0.0885791 13.0787, 0.209788 12.902, 0.392827 12.7842, 0.576357 12.6665, 0.759397 12.6076, 0.942927 12.6071, 1.13136 12.6076, 1.2933 12.6679, 1.42776 12.7877, 1.51953 12.877, 1.56516 12.9923, 1.56516 13.1331, 1.56516 13.2068, 1.55437 13.2804, 1.53278 13.353, 1.48468 13.5365, 1.39685 13.6847, 1.27024 13.7971, 1.14363 13.91, 1.05334 13.9713, 0.99936 13.9811, 1.10192 14.0655, 1.3095 14.1048, 1.62209 14.0989, 1.90229 14.0994, 2.1555 13.9531, 2.38173 13.6597, 2.60844 13.3667, 2.77283 13.0159, 2.8749 12.6071 L 3.62718 9.71772 C 3.70275 9.44586, 3.76164 9.17891, 3.80482 8.91686, 3.81562 8.83344, 3.82102 8.75492, 3.82102 8.68131, 3.82102 8.51937, 3.79697 8.36774, 3.74839 8.22592, 3.69441 8.06938, 3.61099 7.94278, 3.49763 7.84561, 3.38476 7.74894, 3.24442 7.70036, 3.07708 7.69987, 2.86165 7.70036, 2.6531 7.75679, 2.45092 7.86917, 2.24874 7.98203, 2.06423 8.13219, 1.89689 8.32063, 1.73005 8.50907, 1.58185 8.72793, 1.4523 8.97624, 1.32275 9.22503, 1.22853 9.48806, 1.16915 9.76483, 1.11026 9.90665, 1.01016 9.97976, 0.869809 9.98467 L 0.692168 9.98467 C 0.562617 9.98516, 0.497842 9.9199, 0.497842 9.78838 L 0.497842 9.73342 C 0.578811 9.40954, 0.702964 9.09401, 0.869809 8.7878, 1.03715 8.48159, 1.23687 8.21071, 1.46849 7.97516, 1.70011 7.73962, 1.95921 7.54725, 2.24481 7.39807, 2.53041 7.24889, 2.84055 7.1743, 3.17424 7.17381, 3.49812 7.1743, 3.78372 7.24497, 4.03154 7.3863, 4.27935 7.52762, 4.48153 7.71606, 4.63758 7.95112, 4.66997 8.00902, 4.6999 8.07085, 4.72689 8.13612, 4.75388 8.20188, 4.76173 8.21856, 4.75093 8.18666, 4.88588 7.95701, 5.09346 7.73078, 5.37366 7.508, 5.65386 7.2857, 5.97431 7.1743, 6.33548 7.17381, 6.5406 7.1743, 6.74425 7.19933, 6.94643 7.24889, 7.14861 7.29895, 7.3233 7.37844, 7.4715 7.48837, 7.6197 7.59829, 7.72913 7.73422, 7.7993 7.89616, 7.83709 7.99087, 7.85574 8.09833, 7.85574 8.21807, 7.85574 8.29708, 7.84494 8.3859, 7.82335 8.48502 Z" stroke="none" fill="#000000" />
			<path d="M 2.44468 -0.319828 C 2.44468 0.102547, 2.41528 0.522449, 2.35647 0.940152, 2.29766 1.35785, 2.15201 1.75, 1.91953 2.11604, 1.75355 2.38315, 1.5315 2.58816, 1.25395 2.7316, 0.976399 2.87533, 0.674389 2.94705, 0.348196 2.94705, 0.0343688 2.94705, -0.262146 2.87533, -0.541347 2.7316, -0.820549 2.58816, -1.04342 2.38315, -1.2094 2.11604, -1.44161 1.75, -1.58725 1.35785, -1.64606 0.940152, -1.70487 0.522449, -1.73455 0.102547, -1.73455 -0.319828, -1.73455 -0.747424, -1.70487 -1.17475, -1.64606 -1.60124, -1.58725 -2.02774, -1.44161 -2.42703, -1.2094 -2.79967, -1.04342 -3.06897, -0.821373 -3.27865, -0.54382 -3.42814, -0.265993 -3.57764, 0.0313458 -3.65238, 0.348196 -3.65266, 0.671366 -3.65238, 0.972277 -3.57764, 1.25148 -3.42814, 1.53068 -3.27865, 1.75355 -3.06897, 1.91953 -2.79967, 2.15201 -2.42703, 2.29766 -2.02774, 2.35647 -1.60124, 2.41528 -1.17475, 2.44468 -0.747424, 2.44468 -0.319828 Z M 1.54799 -0.473718 C 1.54799 -0.658112, 1.54662 -0.852949, 1.5436 -1.05823, 1.54085 -1.26323, 1.53315 -1.46411, 1.52106 -1.6606, 1.50897 -1.85681, 1.48726 -2.0423, 1.45538 -2.2168, 1.42378 -2.39103, 1.38531 -2.53997, 1.33997 -2.66336, 1.24928 -2.86232, 1.11655 -3.02583, 0.941499 -3.15334, 0.766448 -3.28085, 0.568589 -3.3446, 0.348196 -3.34488, 0.133848 -3.3446, -0.0598893 -3.28002, -0.233566 -3.15114, -0.406968 -3.02198, -0.539149 -2.85957, -0.629834 -2.66336, -0.674902 -2.53997, -0.713375 -2.39103, -0.745252 -2.2168, -0.776855 -2.0423, -0.798839 -1.85681, -0.81093 -1.6606, -0.823022 -1.46411, -0.830442 -1.26323, -0.833465 -1.05823, -0.836487 -0.852949, -0.838136 -0.658112, -0.838136 -0.473718, -0.838136 -0.268164, -0.836487 -0.0518932, -0.833465 0.175096, -0.830442 0.402359, -0.823022 0.622203, -0.81093 0.834627, -0.798839 1.04733, -0.776855 1.24876, -0.745252 1.4392, -0.713375 1.62991, -0.674902 1.78957, -0.629834 1.91818, -0.545194 2.13253, -0.414387 2.3084, -0.237963 2.44608, -0.0615381 2.58403, 0.133848 2.65273, 0.348196 2.65246, 0.571612 2.65273, 0.77167 2.58403, 0.948094 2.44608, 1.12479 2.3084, 1.25533 2.13253, 1.33997 1.91818, 1.38531 1.78957, 1.42378 1.62991, 1.45538 1.4392, 1.48726 1.24876, 1.50897 1.04733, 1.52106 0.834627, 1.53315 0.622203, 1.54085 0.402359, 1.5436 0.175096, 1.54662 -0.0518932, 1.54799 -0.268164, 1.54799 -0.473718 Z" stroke="none" fill="#000000" transform="matrix(1.12 0 0 1 10.432 13.9768)" />
			<rect />
		</svg>
	</g>
	<g transform="matrix(1 0 -0 1 155.509 219.643)">
		<svg width="27.0562763" height="27.0428486">
			<defs />
			<path d="M 7.82261 8.48502 C 7.76373 8.72106, 7.6435 8.89772, 7.46291 9.0155, 7.28233 9.13327, 7.10076 9.19215, 6.91723 9.19166, 6.72879 9.19215, 6.57225 9.1318, 6.4481 9.01108, 6.35682 8.92275, 6.30824 8.80743, 6.30235 8.66561, 6.30235 8.60869, 6.31315 8.53508, 6.33474 8.44577, 6.39412 8.24751, 6.48588 8.09686, 6.60955 7.99479, 6.7337 7.89272, 6.82007 7.83384, 6.86865 7.81764, 6.76658 7.73962, 6.55606 7.70036, 6.23758 7.69987, 5.95738 7.70036, 5.70662 7.84561, 5.48579 8.13612, 5.26497 8.42663, 5.10008 8.77602, 4.99212 9.18381 L 4.24819 12.0575 C 4.17262 12.346, 4.11618 12.6208, 4.0784 12.8819, 4.05681 12.9712, 4.04601 13.0497, 4.04601 13.1174, 4.04601 13.2804, 4.073 13.4345, 4.12698 13.5807, 4.18096 13.7382, 4.26193 13.8638, 4.36989 13.9581, 4.47785 14.0523, 4.61525 14.0994, 4.78209 14.0989, 4.99801 14.0994, 5.20559 14.0434, 5.40482 13.9306, 5.60455 13.8182, 5.78808 13.6666, 5.95492 13.4752, 6.12177 13.2843, 6.26997 13.062, 6.39952 12.8078, 6.52907 12.5541, 6.63114 12.2935, 6.70671 12.0261, 6.7391 11.8906, 6.83086 11.8224, 6.98151 11.8219 L 7.1675 11.8219 C 7.30784 11.8224, 7.37802 11.8749, 7.37802 11.979, 7.37802 12.0109, 7.37017 12.0398, 7.35397 12.0653, 7.2784 12.3799, 7.15572 12.69, 6.98593 12.9962, 6.81614 13.3024, 6.61838 13.5733, 6.39167 13.8089, 6.16495 14.0444, 5.90781 14.2383, 5.61927 14.3894, 5.33072 14.5415, 5.02206 14.6171, 4.69327 14.6171, 4.35909 14.6171, 4.07055 14.5454, 3.82813 14.4012, 3.58571 14.2579, 3.38844 14.0704, 3.2373 13.8398, 3.18921 13.7829, 3.15142 13.724, 3.12443 13.6636, 3.09744 13.6038, 3.0891 13.5944, 3.0999 13.6356, 2.97084 13.8506, 2.76621 14.068, 2.48551 14.2878, 2.20531 14.5077, 1.88192 14.6171, 1.51486 14.6171, 1.31023 14.6171, 1.10805 14.5911, 0.908331 14.5386, 0.709097 14.4866, 0.534891 14.4056, 0.386693 14.2957, 0.238494 14.1857, 0.12661 14.0523, 0.0510383 13.8948, 0.0137434 13.801, -0.00490405 13.699, -0.00539478 13.5885, -0.00490405 13.5105, 0.00589184 13.4187, 0.0269929 13.3137, 0.0863704 13.0787, 0.207579 12.902, 0.391109 12.7842, 0.574639 12.6665, 0.757679 12.6076, 0.940718 12.6071, 1.12965 12.6076, 1.29159 12.6679, 1.42604 12.7877, 1.51781 12.877, 1.56345 12.9923, 1.56345 13.1331, 1.56345 13.2068, 1.55265 13.2804, 1.53106 13.353, 1.48297 13.5365, 1.39513 13.6847, 1.26852 13.7971, 1.14191 13.91, 1.05113 13.9713, 0.997152 13.9811, 1.09971 14.0655, 1.30729 14.1048, 1.61988 14.0989, 1.90057 14.0994, 2.15378 13.9531, 2.38001 13.6597, 2.60672 13.3667, 2.77111 13.0159, 2.87367 12.6071 L 3.62546 9.71772 C 3.70103 9.44586, 3.76041 9.17891, 3.80359 8.91686, 3.81439 8.83344, 3.81979 8.75492, 3.81979 8.68131, 3.81979 8.51937, 3.79574 8.36774, 3.74667 8.22592, 3.69318 8.06938, 3.60976 7.94278, 3.4964 7.84561, 3.38304 7.74894, 3.2427 7.70036, 3.07585 7.69987, 2.85993 7.70036, 2.65089 7.75679, 2.44871 7.86917, 2.24653 7.98203, 2.06202 8.13219, 1.89517 8.32063, 1.72833 8.50907, 1.58013 8.72793, 1.45058 8.97624, 1.32103 9.22503, 1.22681 9.48806, 1.16694 9.76483, 1.10805 9.90665, 1.00844 9.97976, 0.868091 9.98467 L 0.689959 9.98467 C 0.560899 9.98516, 0.496124 9.9199, 0.496124 9.78838 L 0.496124 9.73342 C 0.577093 9.40954, 0.701246 9.09401, 0.868091 8.7878, 1.03494 8.48159, 1.23466 8.21071, 1.46628 7.97516, 1.69839 7.73962, 1.9575 7.54725, 2.2431 7.39807, 2.5287 7.24889, 2.83883 7.1743, 3.17252 7.17381, 3.4964 7.1743, 3.782 7.24497, 4.02982 7.3863, 4.27812 7.52762, 4.4803 7.71606, 4.63635 7.95112, 4.66874 8.00902, 4.69867 8.07085, 4.72566 8.13612, 4.75265 8.20188, 4.7605 8.21856, 4.74971 8.18666, 4.88466 7.95701, 5.09223 7.73078, 5.37243 7.508, 5.65313 7.2857, 5.97357 7.1743, 6.33474 7.17381, 6.53986 7.1743, 6.74302 7.19933, 6.9452 7.24889, 7.14738 7.29895, 7.32306 7.37844, 7.47126 7.48837, 7.61945 7.59829, 7.72888 7.73422, 7.79857 7.89616, 7.83635 7.99087, 7.855 8.09833, 7.855 8.21807, 7.855 8.29708, 7.8442 8.3859, 7.82261 8.48502 Z" stroke="none" fill="#000000" />
			<rect />
		</svg>
	</g>
	<path d="M 0 111.44 L 0 -111.441" fill="none" stroke="#000000" stroke-width="2.5999999" stroke-linecap="round" stroke-linejoin="round" stroke-dasharray="9.113, 6.487" transform="matrix(0.384615 0 0 0.384615 159.439 174.05)" />
	<path d="M 0 191.907 L 0 -191.907" fill="none" stroke="#000000" stroke-width="2.5999999" stroke-linecap="round" stroke-linejoin="round" stroke-dasharray="9.113, 6.487" transform="matrix(0.384615 0 0 0.384615 215.503 143.101)" />
	<g transform="matrix(1 0 -0 1 191.085 219.643)">
		<svg width="155.956741" height="119.999977">
			<defs />
			<path d="M 7.82261 8.48502 C 7.76373 8.72106, 7.6435 8.89772, 7.46291 9.0155, 7.28233 9.13327, 7.10076 9.19215, 6.91723 9.19166, 6.72879 9.19215, 6.57225 9.1318, 6.4481 9.01108, 6.35682 8.92275, 6.30824 8.80743, 6.30235 8.66561, 6.30235 8.60869, 6.31315 8.53508, 6.33474 8.44577, 6.39412 8.24751, 6.48588 8.09686, 6.60955 7.99479, 6.7337 7.89272, 6.82007 7.83384, 6.86865 7.81764, 6.76658 7.73962, 6.55606 7.70036, 6.23758 7.69987, 5.95738 7.70036, 5.70662 7.84561, 5.48579 8.13612, 5.26497 8.42663, 5.10008 8.77602, 4.99212 9.18381 L 4.24819 12.0575 C 4.17262 12.346, 4.11618 12.6208, 4.0784 12.8819, 4.05681 12.9712, 4.04601 13.0497, 4.04601 13.1174, 4.04601 13.2804, 4.073 13.4345, 4.12698 13.5807, 4.18096 13.7382, 4.26193 13.8638, 4.36989 13.9581, 4.47785 14.0523, 4.61525 14.0994, 4.78209 14.0989, 4.99801 14.0994, 5.20559 14.0434, 5.40482 13.9306, 5.60455 13.8182, 5.78808 13.6666, 5.95492 13.4752, 6.12177 13.2843, 6.26997 13.062, 6.39952 12.8078, 6.52907 12.5541, 6.63114 12.2935, 6.70671 12.0261, 6.7391 11.8906, 6.83086 11.8224, 6.98151 11.8219 L 7.1675 11.8219 C 7.30784 11.8224, 7.37802 11.8749, 7.37802 11.979, 7.37802 12.0109, 7.37017 12.0398, 7.35397 12.0653, 7.2784 12.3799, 7.15572 12.69, 6.98593 12.9962, 6.81614 13.3024, 6.61838 13.5733, 6.39167 13.8089, 6.16495 14.0444, 5.90781 14.2383, 5.61927 14.3894, 5.33072 14.5415, 5.02206 14.6171, 4.69327 14.6171, 4.35909 14.6171, 4.07055 14.5454, 3.82813 14.4012, 3.58571 14.2579, 3.38844 14.0704, 3.2373 13.8398, 3.18921 13.7829, 3.15142 13.724, 3.12443 13.6636, 3.09744 13.6038, 3.0891 13.5944, 3.0999 13.6356, 2.97084 13.8506, 2.76621 14.068, 2.48551 14.2878, 2.20531 14.5077, 1.88192 14.6171, 1.51486 14.6171, 1.31023 14.6171, 1.10805 14.5911, 0.908331 14.5386, 0.709097 14.4866, 0.534891 14.4056, 0.386693 14.2957, 0.238494 14.1857, 0.12661 14.0523, 0.0510383 13.8948, 0.0137434 13.801, -0.00490405 13.699, -0.00539478 13.5885, -0.00490405 13.5105, 0.00589184 13.4187, 0.0269929 13.3137, 0.0863704 13.0787, 0.207579 12.902, 0.391109 12.7842, 0.574639 12.6665, 0.757679 12.6076, 0.940718 12.6071, 1.12965 12.6076, 1.29159 12.6679, 1.42604 12.7877, 1.51781 12.877, 1.56345 12.9923, 1.56345 13.1331, 1.56345 13.2068, 1.55265 13.2804, 1.53106 13.353, 1.48297 13.5365, 1.39513 13.6847, 1.26852 13.7971, 1.14191 13.91, 1.05113 13.9713, 0.997152 13.9811, 1.09971 14.0655, 1.30729 14.1048, 1.61988 14.0989, 1.90057 14.0994, 2.15378 13.9531, 2.38001 13.6597, 2.60672 13.3667, 2.77111 13.0159, 2.87367 12.6071 L 3.62546 9.71772 C 3.70103 9.44586, 3.76041 9.17891, 3.80359 8.91686, 3.81439 8.83344, 3.81979 8.75492, 3.81979 8.68131, 3.81979 8.51937, 3.79574 8.36774, 3.74667 8.22592, 3.69318 8.06938, 3.60976 7.94278, 3.4964 7.84561, 3.38304 7.74894, 3.2427 7.70036, 3.07585 7.69987, 2.85993 7.70036, 2.65089 7.75679, 2.44871 7.86917, 2.24653 7.98203, 2.06202 8.13219, 1.89517 8.32063, 1.72833 8.50907, 1.58013 8.72793, 1.45058 8.97624, 1.32103 9.22503, 1.22681 9.48806, 1.16694 9.76483, 1.10805 9.90665, 1.00844 9.97976, 0.868091 9.98467 L 0.689959 9.98467 C 0.560899 9.98516, 0.496124 9.9199, 0.496124 9.78838 L 0.496124 9.73342 C 0.577093 9.40954, 0.701246 9.09401, 0.868091 8.7878, 1.03494 8.48159, 1.23466 8.21071, 1.46628 7.97516, 1.69839 7.73962, 1.9575 7.54725, 2.2431 7.39807, 2.5287 7.24889, 2.83883 7.1743, 3.17252 7.17381, 3.4964 7.1743, 3.782 7.24497, 4.02982 7.3863, 4.27812 7.52762, 4.4803 7.71606, 4.63635 7.95112, 4.66874 8.00902, 4.69867 8.07085, 4.72566 8.13612, 4.75265 8.20188, 4.7605 8.21856, 4.74971 8.18666, 4.88466 7.95701, 5.09223 7.73078, 5.37243 7.508, 5.65313 7.2857, 5.97357 7.1743, 6.33474 7.17381, 6.53986 7.1743, 6.74302 7.19933, 6.9452 7.24889, 7.14738 7.29895, 7.32306 7.37844, 7.47126 7.48837, 7.61945 7.59829, 7.72888 7.73422, 7.79857 7.89616, 7.83635 7.99087, 7.855 8.09833, 7.855 8.21807, 7.855 8.29708, 7.8442 8.3859, 7.82261 8.48502 Z" stroke="none" fill="#000000" />
			<polyline points="-5.628 0 5.628 0" fill="none" stroke="#000000" stroke-width="0.64319998" stroke-linecap="round" stroke-linejoin="round" transform="matrix(1 0 0 1 18.1516 9.60638)" />
			<polyline points="0 -5.628 0 5.628" fill="none" stroke="#000000" stroke-width="0.64319998" stroke-linecap="round" stroke-linejoin="round" transform="matrix(1 0 0 1 18.1516 9.60638)" />
			<path d="M 40.8209 14.1303 C 40.8376 14.1676, 40.8455 14.2015, 40.8455 14.2324, 40.8455 14.2746, 40.8347 14.306, 40.8131 14.3266, 40.7807 14.3894, 40.7189 14.4208, 40.6271 14.4208 L 28.6603 14.4208 C 28.5745 14.4208, 28.5126 14.3894, 28.4744 14.3266, 28.4533 14.306, 28.4425 14.2746, 28.4425 14.2324, 28.4425 14.2015, 28.4508 14.1676, 28.4665 14.1303 L 34.1991 2.95752 C 34.2693 2.80638, 34.3935 2.73277, 34.5711 2.73768 L 34.7163 2.73768 C 34.8837 2.73817, 35.0078 2.80884, 35.0883 2.94967 L 40.8209 14.1303 Z M 34.1584 4.49643 L 29.7277 13.1253, 38.5813 13.1253 Z" stroke="none" fill="#000000" />
			<path d="M 49.1692 8.48502 C 49.1104 8.72106, 48.9901 8.89772, 48.8095 9.0155, 48.629 9.13327, 48.4474 9.19215, 48.2639 9.19166, 48.0754 9.19215, 47.9189 9.1318, 47.7947 9.01108, 47.7035 8.92275, 47.6549 8.80743, 47.649 8.66561, 47.649 8.60869, 47.6598 8.53508, 47.6814 8.44577, 47.7408 8.24751, 47.8325 8.09686, 47.9562 7.99479, 48.0803 7.89272, 48.1667 7.83384, 48.2153 7.81764, 48.1132 7.73962, 47.9027 7.70036, 47.5842 7.69987, 47.304 7.70036, 47.0533 7.84561, 46.8324 8.13612, 46.6116 8.42663, 46.4467 8.77602, 46.3388 9.18381 L 45.5948 12.0575 C 45.5193 12.346, 45.4628 12.6208, 45.425 12.8819, 45.4034 12.9712, 45.3926 13.0497, 45.3926 13.1174, 45.3926 13.2804, 45.4196 13.4345, 45.4736 13.5807, 45.5276 13.7382, 45.6086 13.8638, 45.7165 13.9581, 45.8245 14.0523, 45.9619 14.0994, 46.1287 14.0989, 46.3447 14.0994, 46.5522 14.0434, 46.7515 13.9306, 46.9512 13.8182, 47.1347 13.6666, 47.3016 13.4752, 47.4684 13.2843, 47.6166 13.062, 47.7462 12.8078, 47.8757 12.5541, 47.9778 12.2935, 48.0533 12.0261, 48.0857 11.8906, 48.1775 11.8224, 48.3281 11.8219 L 48.5141 11.8219 C 48.6545 11.8224, 48.7247 11.8749, 48.7247 11.979, 48.7247 12.0109, 48.7168 12.0398, 48.7006 12.0653, 48.625 12.3799, 48.5024 12.69, 48.3326 12.9962, 48.1628 13.3024, 47.965 13.5733, 47.7383 13.8089, 47.5116 14.0444, 47.2544 14.2383, 46.9659 14.3894, 46.6774 14.5415, 46.3687 14.6171, 46.0399 14.6171, 45.7057 14.6171, 45.4172 14.5454, 45.1748 14.4012, 44.9324 14.2579, 44.7351 14.0704, 44.5839 13.8398, 44.5358 13.7829, 44.4981 13.724, 44.4711 13.6636, 44.4441 13.6038, 44.4357 13.5944, 44.4465 13.6356, 44.3175 13.8506, 44.1128 14.068, 43.8321 14.2878, 43.5519 14.5077, 43.2286 14.6171, 42.8615 14.6171, 42.6569 14.6171, 42.4547 14.5911, 42.255 14.5386, 42.0557 14.4866, 41.8815 14.4056, 41.7333 14.2957, 41.5851 14.1857, 41.4732 14.0523, 41.3977 13.8948, 41.3604 13.801, 41.3417 13.699, 41.3412 13.5885, 41.3417 13.5105, 41.3525 13.4187, 41.3736 13.3137, 41.433 13.0787, 41.5542 12.902, 41.7377 12.7842, 41.9213 12.6665, 42.1043 12.6076, 42.2874 12.6071, 42.4763 12.6076, 42.6382 12.6679, 42.7727 12.7877, 42.8644 12.877, 42.9101 12.9923, 42.9101 13.1331, 42.9101 13.2068, 42.8993 13.2804, 42.8777 13.353, 42.8296 13.5365, 42.7418 13.6847, 42.6152 13.7971, 42.4885 13.91, 42.3978 13.9713, 42.3438 13.9811, 42.4463 14.0655, 42.6539 14.1048, 42.9665 14.0989, 43.2472 14.0994, 43.5004 13.9531, 43.7266 13.6597, 43.9534 13.3667, 44.1177 13.0159, 44.2203 12.6071 L 44.9721 9.71772 C 45.0477 9.44586, 45.107 9.17891, 45.1502 8.91686, 45.161 8.83344, 45.1664 8.75492, 45.1664 8.68131, 45.1664 8.51937, 45.1424 8.36774, 45.0933 8.22592, 45.0398 8.06938, 44.9564 7.94278, 44.843 7.84561, 44.7297 7.74894, 44.5893 7.70036, 44.4225 7.69987, 44.2066 7.70036, 43.9975 7.75679, 43.7953 7.86917, 43.5932 7.98203, 43.4087 8.13219, 43.2418 8.32063, 43.075 8.50907, 42.9268 8.72793, 42.7972 8.97624, 42.6677 9.22503, 42.5734 9.48806, 42.5136 9.76483, 42.4547 9.90665, 42.3551 9.97976, 42.2147 9.98467 L 42.0366 9.98467 C 41.9075 9.98516, 41.8428 9.9199, 41.8428 9.78838 L 41.8428 9.73342 C 41.9237 9.40954, 42.0479 9.09401, 42.2147 8.7878, 42.3816 8.48159, 42.5813 8.21071, 42.8129 7.97516, 43.045 7.73962, 43.3041 7.54725, 43.5897 7.39807, 43.8753 7.24889, 44.1855 7.1743, 44.5192 7.17381, 44.843 7.1743, 45.1286 7.24497, 45.3765 7.3863, 45.6248 7.52762, 45.8269 7.71606, 45.983 7.95112, 46.0154 8.00902, 46.0453 8.07085, 46.0723 8.13612, 46.0993 8.20188, 46.1071 8.21856, 46.0963 8.18666, 46.2313 7.95701, 46.4389 7.73078, 46.7191 7.508, 46.9998 7.2857, 47.3202 7.1743, 47.6814 7.17381, 47.8865 7.1743, 48.0897 7.19933, 48.2918 7.24889, 48.494 7.29895, 48.6697 7.37844, 48.8179 7.48837, 48.9661 7.59829, 49.0755 7.73422, 49.1452 7.89616, 49.183 7.99087, 49.2016 8.09833, 49.2016 8.21807, 49.2016 8.29708, 49.1908 8.3859, 49.1692 8.48502 Z" stroke="none" fill="#000000" />
			<rect />
		</svg>
	</g>
	<path d="M 72.8826 0 L -72.8829 0" fill="none" stroke="#000000" stroke-width="2.5999999" stroke-linecap="round" stroke-linejoin="round" stroke-dasharray="9.113, 6.487" transform="matrix(0.384615 0 0 0.384615 187.471 131.188)" />
	<g transform="matrix(1 0 -0 1 177.274 133.495)">
		<svg width="66.0351563" height="41.9571304">
			<defs />
			<path d="M 12.3811 14.1303 C 12.3973 14.1676, 12.4051 14.2015, 12.4051 14.2324, 12.4051 14.2746, 12.3943 14.306, 12.3727 14.3266, 12.3404 14.3894, 12.2785 14.4208, 12.1868 14.4208 L 0.218038 14.4208 C 0.131671 14.4208, 0.0698402 14.3894, 0.0320545 14.3266, 0.0104628 14.306, -0.00033319 14.2746, -0.00033319 14.2324, -0.00033319 14.2015, 0.00800914 14.1676, 0.0237122 14.1303 L 5.75781 2.95752 C 5.82798 2.80638, 5.95213 2.73277, 6.12977 2.73768 L 6.27503 2.73768 C 6.44236 2.73817, 6.56652 2.80884, 6.647 2.94967 L 12.3811 14.1303 Z M 5.71708 4.49643 L 1.28536 13.1253, 10.1409 13.1253 Z" stroke="none" fill="#000000" />
			<path d="M 20.7265 8.48502 C 20.6676 8.72106, 20.5473 8.89772, 20.3668 9.0155, 20.1862 9.13327, 20.0046 9.19215, 19.8211 9.19166, 19.6326 9.19215, 19.4761 9.1318, 19.3519 9.01108, 19.2607 8.92275, 19.2121 8.80743, 19.2062 8.66561, 19.2062 8.60869, 19.217 8.53508, 19.2386 8.44577, 19.298 8.24751, 19.3897 8.09686, 19.5134 7.99479, 19.6375 7.89272, 19.7239 7.83384, 19.7725 7.81764, 19.6704 7.73962, 19.4599 7.70036, 19.1414 7.69987, 18.8612 7.70036, 18.6105 7.84561, 18.3896 8.13612, 18.1688 8.42663, 18.0039 8.77602, 17.896 9.18381 L 17.152 12.0575 C 17.0765 12.346, 17.02 12.6208, 16.9822 12.8819, 16.9607 12.9712, 16.9499 13.0497, 16.9499 13.1174, 16.9499 13.2804, 16.9768 13.4345, 17.0308 13.5807, 17.0848 13.7382, 17.1658 13.8638, 17.2737 13.9581, 17.3817 14.0523, 17.5191 14.0994, 17.6859 14.0989, 17.9019 14.0994, 18.1094 14.0434, 18.3087 13.9306, 18.5084 13.8182, 18.6919 13.6666, 18.8588 13.4752, 19.0256 13.2843, 19.1738 13.062, 19.3034 12.8078, 19.4329 12.5541, 19.535 12.2935, 19.6106 12.0261, 19.6429 11.8906, 19.7347 11.8224, 19.8854 11.8219 L 20.0713 11.8219 C 20.2117 11.8224, 20.2819 11.8749, 20.2819 11.979, 20.2819 12.0109, 20.274 12.0398, 20.2578 12.0653, 20.1822 12.3799, 20.0596 12.69, 19.8898 12.9962, 19.72 13.3024, 19.5222 13.5733, 19.2955 13.8089, 19.0688 14.0444, 18.8117 14.2383, 18.5231 14.3894, 18.2346 14.5415, 17.9259 14.6171, 17.5971 14.6171, 17.2629 14.6171, 16.9744 14.5454, 16.732 14.4012, 16.4896 14.2579, 16.2923 14.0704, 16.1411 13.8398, 16.0931 13.7829, 16.0553 13.724, 16.0283 13.6636, 16.0013 13.6038, 15.9929 13.5944, 16.0037 13.6356, 15.8747 13.8506, 15.6701 14.068, 15.3894 14.2878, 15.1092 14.5077, 14.7858 14.6171, 14.4187 14.6171, 14.2141 14.6171, 14.0119 14.5911, 13.8122 14.5386, 13.6129 14.4866, 13.4387 14.4056, 13.2905 14.2957, 13.1423 14.1857, 13.0305 14.0523, 12.9549 13.8948, 12.9176 13.801, 12.8989 13.699, 12.8984 13.5885, 12.8989 13.5105, 12.9097 13.4187, 12.9308 13.3137, 12.9902 13.0787, 13.1114 12.902, 13.295 12.7842, 13.4785 12.6665, 13.6615 12.6076, 13.8446 12.6071, 14.0335 12.6076, 14.1954 12.6679, 14.3299 12.7877, 14.4217 12.877, 14.4673 12.9923, 14.4673 13.1331, 14.4673 13.2068, 14.4565 13.2804, 14.4349 13.353, 14.3868 13.5365, 14.299 13.6847, 14.1724 13.7971, 14.0458 13.91, 13.955 13.9713, 13.901 13.9811, 14.0036 14.0655, 14.2111 14.1048, 14.5237 14.0989, 14.8044 14.0994, 15.0576 13.9531, 15.2839 13.6597, 15.5106 13.3667, 15.675 13.0159, 15.7775 12.6071 L 16.5293 9.71772 C 16.6049 9.44586, 16.6643 9.17891, 16.7074 8.91686, 16.7182 8.83344, 16.7236 8.75492, 16.7236 8.68131, 16.7236 8.51937, 16.6996 8.36774, 16.6505 8.22592, 16.597 8.06938, 16.5136 7.94278, 16.4002 7.84561, 16.2869 7.74894, 16.1465 7.70036, 15.9797 7.69987, 15.7638 7.70036, 15.5547 7.75679, 15.3526 7.86917, 15.1504 7.98203, 14.9659 8.13219, 14.799 8.32063, 14.6322 8.50907, 14.484 8.72793, 14.3544 8.97624, 14.2249 9.22503, 14.1307 9.48806, 14.0708 9.76483, 14.0119 9.90665, 13.9123 9.97976, 13.7719 9.98467 L 13.5938 9.98467 C 13.4647 9.98516, 13.4 9.9199, 13.4 9.78838 L 13.4 9.73342 C 13.4809 9.40954, 13.6051 9.09401, 13.7719 8.7878, 13.9388 8.48159, 14.1385 8.21071, 14.3701 7.97516, 14.6022 7.73962, 14.8613 7.54725, 15.1469 7.39807, 15.4325 7.24889, 15.7427 7.1743, 16.0764 7.17381, 16.4002 7.1743, 16.6858 7.24497, 16.9337 7.3863, 17.182 7.52762, 17.3841 7.71606, 17.5402 7.95112, 17.5726 8.00902, 17.6025 8.07085, 17.6295 8.13612, 17.6565 8.20188, 17.6643 8.21856, 17.6536 8.18666, 17.7885 7.95701, 17.9961 7.73078, 18.2763 7.508, 18.557 7.2857, 18.8774 7.1743, 19.2386 7.17381, 19.4437 7.1743, 19.6469 7.19933, 19.849 7.24889, 20.0512 7.29895, 20.2269 7.37844, 20.3751 7.48837, 20.5233 7.59829, 20.6327 7.73422, 20.7024 7.89616, 20.7402 7.99087, 20.7588 8.09833, 20.7588 8.21807, 20.7588 8.29708, 20.748 8.3859, 20.7265 8.48502 Z" stroke="none" fill="#000000" />
			<rect />
		</svg>
	</g>
	<g transform="matrix(1 0 -0 1 221.381 92.4961)">
		<svg width="66.0351563" height="50.9571304">
			<defs />
			<path d="M 12.3811 14.1303 C 12.3973 14.1676, 12.4051 14.2015, 12.4051 14.2324, 12.4051 14.2746, 12.3943 14.306, 12.3727 14.3266, 12.3404 14.3894, 12.2785 14.4208, 12.1868 14.4208 L 0.218038 14.4208 C 0.131671 14.4208, 0.0698402 14.3894, 0.0320545 14.3266, 0.0104628 14.306, -0.00033319 14.2746, -0.00033319 14.2324, -0.00033319 14.2015, 0.00800914 14.1676, 0.0237122 14.1303 L 5.75781 2.95752 C 5.82798 2.80638, 5.95213 2.73277, 6.12977 2.73768 L 6.27503 2.73768 C 6.44236 2.73817, 6.56652 2.80884, 6.647 2.94967 L 12.3811 14.1303 Z M 5.71708 4.49643 L 1.28536 13.1253, 10.1409 13.1253 Z" stroke="none" fill="#000000" />
			<path d="M 18.8907 14.3737 C 18.7778 14.8134, 18.5997 15.2334, 18.3572 15.6339, 18.1148 16.0343, 17.8287 16.3906, 17.5 16.7017, 17.1712 17.0133, 16.8021 17.266, 16.3924 17.4594, 15.9826 17.6532, 15.5567 17.7499, 15.1141 17.7499, 14.8501 17.7499, 14.6076 17.7018, 14.3863 17.6046, 14.1655 17.5079, 13.9849 17.3769, 13.8446 17.212, 13.7042 17.0472, 13.61 16.8523, 13.5614 16.6271, 13.5398 16.528, 13.529 16.4259, 13.529 16.3209, 13.529 16.185, 13.5452 16.0461, 13.5776 15.9048, 13.637 15.6692, 13.7582 15.4925, 13.9417 15.3748, 14.1253 15.257, 14.3058 15.1981, 14.4835 15.1981, 14.6724 15.1981, 14.8314 15.2585, 14.9605 15.3787, 15.0522 15.468, 15.0979 15.5828, 15.0979 15.7242, 15.0979 15.7821, 15.0871 15.8527, 15.0655 15.9362, 15.0066 16.1717, 14.8854 16.3484, 14.7019 16.4661, 14.5183 16.5839, 14.3731 16.6428, 14.2651 16.6428, 14.2975 16.7841, 14.3986 16.9166, 14.5684 17.0393, 14.7382 17.1625, 14.9551 17.2238, 15.2191 17.2238, 15.5106 17.2238, 15.7829 17.1453, 16.0361 16.9883, 16.2898 16.8312, 16.5219 16.6207, 16.732 16.3562, 16.942 16.0922, 17.1265 15.786, 17.2855 15.4376, 17.4445 15.0897, 17.5726 14.7246, 17.6697 14.3423 L 17.7183 14.1539 C 17.6378 14.2275, 17.4681 14.3232, 17.209 14.4404, 16.9503 14.5582, 16.6672 14.6171, 16.3595 14.6171, 15.9934 14.6171, 15.6656 14.5494, 15.3771 14.413, 15.0885 14.2775, 14.8608 14.068, 14.6935 13.7848, 14.5321 13.4816, 14.454 13.1469, 14.4589 12.7798 L 14.4589 12.717 C 14.4697 12.3352, 14.5183 11.9559, 14.6047 11.5785, 14.6911 11.2179, 14.8167 10.8204, 14.9811 10.3856, 15.1455 9.9513, 15.303 9.52977, 15.4536 9.121, 15.6156 8.6872, 15.6965 8.33094, 15.6965 8.05319, 15.6965 7.81813, 15.5969 7.70036, 15.3972 7.69987, 15.2142 7.70036, 15.0483 7.75287, 14.9001 7.85739, 14.7519 7.9624, 14.617 8.10766, 14.4958 8.29315, 14.3745 8.47914, 14.2651 8.69898, 14.1679 8.95268, 14.0708 9.20688, 13.9903 9.47727, 13.9255 9.76483, 13.8662 9.90665, 13.7665 9.97976, 13.6262 9.98467 L 13.4402 9.98467 C 13.3107 9.98516, 13.2459 9.9199, 13.2459 9.78838 L 13.2459 9.73342 C 13.3215 9.44586, 13.4216 9.15192, 13.5452 8.85061, 13.6694 8.5498, 13.8259 8.27647, 14.0144 8.03012, 14.2033 7.78427, 14.4192 7.58013, 14.6616 7.4177, 14.904 7.25576, 15.1818 7.1743, 15.4944 7.17381, 15.7643 7.1743, 15.9944 7.23221, 16.1858 7.34704, 16.3772 7.46236, 16.5229 7.61546, 16.6225 7.80635, 16.7226 7.99774, 16.7776 8.21316, 16.7884 8.45362 L 16.7884 8.50858 C 16.7884 8.73431, 16.7428 8.96691, 16.6505 9.20737, 16.4945 9.61614, 16.3399 10.0337, 16.1858 10.4602, 16.0322 10.8871, 15.9125 11.2704, 15.8261 11.6104, 15.7397 11.951, 15.6804 12.2881, 15.648 12.6228, 15.6264 12.7121, 15.6131 12.8093, 15.6077 12.9133, 15.6077 13.1179, 15.6431 13.3196, 15.7127 13.5179, 15.7613 13.6965, 15.8501 13.8378, 15.9797 13.9424, 16.1092 14.0474, 16.2628 14.0994, 16.4405 14.0989, 16.786 14.0994, 17.0877 13.9973, 17.3464 13.7932, 17.6055 13.589, 17.8317 13.3221, 18.0255 12.9918 L 19.3274 7.92756 C 19.3765 7.73422, 19.4746 7.59191, 19.6228 7.50014, 19.771 7.40887, 19.9207 7.36274, 20.0713 7.36225, 20.2279 7.36274, 20.3574 7.40985, 20.46 7.50358, 20.5302 7.57228, 20.565 7.66355, 20.565 7.77838, 20.565 7.83629, 20.5596 7.89665, 20.5488 7.95897 Z" stroke="none" fill="#000000" />
			<rect />
		</svg>
	</g>
</svg>
