<?xml version="1.0"?>
<svg xmlns="http://www.w3.org/2000/svg" xmlns:xlink="http://www.w3.org/1999/xlink" width="344.583313" height="262.916656">
	<defs>
		<marker id="CustomMarker-01" markerUnits="strokeWidth" markerWidth="15.000001" markerHeight="9" viewBox="-15 -4.5 15 9" orient="auto-start-reverse">
			<path d="M 0 -0 L -10 -3, -8 -0.5, -8 0.5, -10 3 Z" fill="#000000" stroke="#000000" stroke-linejoin="round" />
		</marker>
		<marker id="CustomMarker-02" markerUnits="strokeWidth" markerWidth="15.000001" markerHeight="9" viewBox="-15 -4.5 15 9" orient="auto-start-reverse">
			<path d="M 0 -0 L -10 -3, -8 -0.5, -8 0.5, -10 3 Z" fill="#000000" stroke="#000000" stroke-linejoin="round" />
		</marker>
		<marker id="CustomMarker-03" markerUnits="strokeWidth" markerWidth="15.000001" markerHeight="9" viewBox="-15 -4.5 15 9" orient="auto-start-reverse">
			<path d="M 0 -0 L -10 -3, -8 -0.5, -8 0.5, -10 3 Z" fill="#000000" stroke="#000000" stroke-linejoin="round" />
		</marker>
		<marker id="CustomMarker-04" markerUnits="strokeWidth" markerWidth="15.000001" markerHeight="9" viewBox="-15 -4.5 15 9" orient="auto-start-reverse">
			<path d="M 0 -0 L -10 -3, -8 -0.5, -8 0.5, -10 3 Z" fill="#000000" stroke="#000000" stroke-linejoin="round" />
		</marker>
	</defs>
	<path d="M 184.539 -0 C 184.539 101.918, 101.918 184.539, -0 184.539, -101.918 184.539, -184.539 101.918, -184.539 -0, -184.539 -101.918, -101.918 -184.539, -0 -184.539, 101.918 -184.539, 184.539 -101.918, 184.539 -0 Z" fill="none" stroke="#000000" stroke-width="4" stroke-linecap="round" stroke-linejoin="round" transform="matrix(0.416667 0 0 0.416667 161.814 106.716)" />
	<g transform="matrix(1 0 -0 1 175.054 117.252)">
		<svg width="84.0452042" height="47.9999886">
			<defs />
			<path d="M 14.4446 16.4853 C 14.4635 16.5289, 14.4727 16.5684, 14.4727 16.6044, 14.4727 16.6537, 14.4601 16.6903, 14.4349 16.7143, 14.3971 16.7876, 14.3249 16.8243, 14.2179 16.8243 L 0.254377 16.8243 C 0.153616 16.8243, 0.0814795 16.7876, 0.0373963 16.7143, 0.0122058 16.6903, -0.000389338 16.6537, -0.000389338 16.6044, -0.000389338 16.5684, 0.00934333 16.5289, 0.0276636 16.4853 L 6.71744 3.45044 C 6.79931 3.27411, 6.94415 3.18824, 7.1514 3.19396 L 7.32087 3.19396 C 7.51609 3.19453, 7.66094 3.27697, 7.75483 3.44128 L 14.4446 16.4853 Z M 6.66992 5.24584 L 1.49959 15.3128, 11.8311 15.3128 Z" stroke="none" fill="#000000" />
			<path d="M 26.9455 9.57859 C 26.7194 10.4339, 26.3988 11.2589, 25.9831 12.0524, 25.5681 12.8465, 25.0774 13.5667, 24.5112 14.2136, 24.5112 14.5136, 24.5175 14.8039, 24.5301 15.0844, 24.5427 15.3655, 24.5713 15.6111, 24.6154 15.8218, 24.6595 16.0325, 24.7162 16.1899, 24.7849 16.2936, 24.8541 16.3978, 24.9452 16.4493, 25.0585 16.4487, 25.2663 16.4493, 25.4644 16.3668, 25.6534 16.202, 25.8423 16.0371, 25.9648 15.8384, 26.0209 15.606, 26.0587 15.4354, 26.1692 15.3501, 26.3512 15.3495 L 26.4646 15.3495 C 26.6095 15.3501, 26.6879 15.4233, 26.7005 15.5693 L 26.7005 15.6335 C 26.6564 15.8293, 26.578 16.013, 26.4646 16.1836, 26.3512 16.3548, 26.2144 16.506, 26.0541 16.6371, 25.8938 16.7682, 25.7192 16.8701, 25.5303 16.9434, 25.3419 17.0166, 25.1438 17.0533, 24.936 17.0533, 24.3887 17.0533, 23.9736 16.889, 23.6908 16.5592, 23.408 16.2294, 23.2253 15.8842, 23.1435 15.5235, 22.5962 15.9701, 21.9704 16.3365, 21.2656 16.6233, 20.5615 16.9102, 19.8286 17.0533, 19.0672 17.0533, 18.5142 17.0533, 18.0109 16.9405, 17.5581 16.7149, 17.1052 16.4894, 16.7468 16.1653, 16.4823 15.7434, 16.1995 15.3346, 16.0232 14.8617, 15.9539 14.3236, 15.9287 14.1713, 15.9161 14.0064, 15.9161 13.8289, 15.9161 13.4631, 15.9699 13.0846, 16.0764 12.693, 16.2276 12.1257, 16.4686 11.5807, 16.7984 11.0585, 17.1287 10.5364, 17.5392 10.0647, 18.0292 9.64271, 18.5079 9.25226, 19.0254 8.94253, 19.5819 8.71353, 20.1384 8.48452, 20.6937 8.37002, 21.2468 8.36945, 21.7752 8.37002, 22.2423 8.46964, 22.6477 8.66773, 23.0536 8.86639, 23.3965 9.13375, 23.6765 9.46924, 23.9564 9.8053, 24.1654 10.1975, 24.304 10.6463, 24.4425 11.0952, 24.5112 11.5669, 24.5112 12.061 L 24.5112 13.2701 C 24.845 12.8373, 25.1782 12.2848, 25.5114 11.6127, 25.8446 10.9412, 26.0993 10.2542, 26.2757 9.55111, 26.3135 9.3805, 26.424 9.29234, 26.606 9.28547 L 26.7005 9.28547 C 26.8642 9.28604, 26.9455 9.35932, 26.9455 9.50531 L 26.9455 9.57859 Z M 23.0204 14.8732 C 23.0147 14.8308, 23.0084 14.7672, 23.0021 14.6814, 22.9958 14.5961, 22.9923 14.5102, 22.9923 14.4243 L 22.9923 12.3633 C 22.9923 11.9179, 22.9626 11.4925, 22.903 11.086, 22.8435 10.6801, 22.7456 10.3183, 22.6105 10.0005, 22.4754 9.68336, 22.2893 9.43432, 22.0534 9.25398, 21.8175 9.07421, 21.5113 8.98375, 21.1334 8.98318, 20.7813 8.98375, 20.4258 9.07707, 20.0674 9.26314, 19.709 9.44978, 19.3884 9.70454, 19.105 10.0274, 18.7529 10.419, 18.4838 10.845, 18.2983 11.3059, 18.1128 11.7673, 17.9571 12.2448, 17.8312 12.7388, 17.7058 13.2278, 17.6147 13.6984, 17.5575 14.1495, 17.5449 14.2663, 17.5386 14.3819, 17.5386 14.4976, 17.5386 14.8216, 17.5924 15.1331, 17.6995 15.4319, 17.8191 15.7377, 18.0046 15.9838, 18.256 16.1699, 18.5079 16.3565, 18.8096 16.4493, 19.1617 16.4487, 19.8727 16.4493, 20.5569 16.309, 21.2141 16.0279, 21.8714 15.7474, 22.4736 15.3621, 23.0204 14.8732 Z" stroke="none" fill="#000000" />
			<rect />
		</svg>
	</g>
	<path d="M -355.744 276.443 L 355.744 276.443" fill="none" stroke="#000000" stroke-width="2.4000001" stroke-linecap="round" stroke-linejoin="round" marker-end="url(#CustomMarker-01)" transform="matrix(0.416667 0 -0 0.416667 173.024 123.8)" />
	<path d="M -355.744 276.443 L -355.744 -276.443" fill="none" stroke="#000000" stroke-width="2.4000001" stroke-linecap="round" stroke-linejoin="round" marker-end="url(#CustomMarker-02)" transform="matrix(0.416667 0 -0 0.416667 173.024 123.8)" />
	<g transform="matrix(1 0 -0 1 328.393 229.378)">
		<svg width="27.0562763" height="27.0428486">
			<defs />
			<path d="M 7.82261 8.48502 C 7.76373 8.72106, 7.6435 8.89772, 7.46291 9.0155, 7.28233 9.13327, 7.10076 9.19215, 6.91723 9.19166, 6.72879 9.19215, 6.57225 9.1318, 6.4481 9.01108, 6.35682 8.92275, 6.30824 8.80743, 6.30235 8.66561, 6.30235 8.60869, 6.31315 8.53508, 6.33474 8.44577, 6.39412 8.24751, 6.48588 8.09686, 6.60955 7.99479, 6.7337 7.89272, 6.82007 7.83384, 6.86865 7.81764, 6.76658 7.73962, 6.55606 7.70036, 6.23758 7.69987, 5.95738 7.70036, 5.70662 7.84561, 5.48579 8.13612, 5.26497 8.42663, 5.10008 8.77602, 4.99212 9.18381 L 4.24819 12.0575 C 4.17262 12.346, 4.11618 12.6208, 4.0784 12.8819, 4.05681 12.9712, 4.04601 13.0497, 4.04601 13.1174, 4.04601 13.2804, 4.073 13.4345, 4.12698 13.5807, 4.18096 13.7382, 4.26193 13.8638, 4.36989 13.9581, 4.47785 14.0523, 4.61525 14.0994, 4.78209 14.0989, 4.99801 14.0994, 5.20559 14.0434, 5.40482 13.9306, 5.60455 13.8182, 5.78808 13.6666, 5.95492 13.4752, 6.12177 13.2843, 6.26997 13.062, 6.39952 12.8078, 6.52907 12.5541, 6.63114 12.2935, 6.70671 12.0261, 6.7391 11.8906, 6.83086 11.8224, 6.98151 11.8219 L 7.1675 11.8219 C 7.30784 11.8224, 7.37802 11.8749, 7.37802 11.979, 7.37802 12.0109, 7.37017 12.0398, 7.35397 12.0653, 7.2784 12.3799, 7.15572 12.69, 6.98593 12.9962, 6.81614 13.3024, 6.61838 13.5733, 6.39167 13.8089, 6.16495 14.0444, 5.90781 14.2383, 5.61927 14.3894, 5.33072 14.5415, 5.02206 14.6171, 4.69327 14.6171, 4.35909 14.6171, 4.07055 14.5454, 3.82813 14.4012, 3.58571 14.2579, 3.38844 14.0704, 3.2373 13.8398, 3.18921 13.7829, 3.15142 13.724, 3.12443 13.6636, 3.09744 13.6038, 3.0891 13.5944, 3.0999 13.6356, 2.97084 13.8506, 2.76621 14.068, 2.48551 14.2878, 2.20531 14.5077, 1.88192 14.6171, 1.51486 14.6171, 1.31023 14.6171, 1.10805 14.5911, 0.908331 14.5386, 0.709097 14.4866, 0.534891 14.4056, 0.386693 14.2957, 0.238494 14.1857, 0.12661 14.0523, 0.0510383 13.8948, 0.0137434 13.801, -0.00490405 13.699, -0.00539478 13.5885, -0.00490405 13.5105, 0.00589184 13.4187, 0.0269929 13.3137, 0.0863704 13.0787, 0.207579 12.902, 0.391109 12.7842, 0.574639 12.6665, 0.757679 12.6076, 0.940718 12.6071, 1.12965 12.6076, 1.29159 12.6679, 1.42604 12.7877, 1.51781 12.877, 1.56345 12.9923, 1.56345 13.1331, 1.56345 13.2068, 1.55265 13.2804, 1.53106 13.353, 1.48297 13.5365, 1.39513 13.6847, 1.26852 13.7971, 1.14191 13.91, 1.05113 13.9713, 0.997152 13.9811, 1.09971 14.0655, 1.30729 14.1048, 1.61988 14.0989, 1.90057 14.0994, 2.15378 13.9531, 2.38001 13.6597, 2.60672 13.3667, 2.77111 13.0159, 2.87367 12.6071 L 3.62546 9.71772 C 3.70103 9.44586, 3.76041 9.17891, 3.80359 8.91686, 3.81439 8.83344, 3.81979 8.75492, 3.81979 8.68131, 3.81979 8.51937, 3.79574 8.36774, 3.74667 8.22592, 3.69318 8.06938, 3.60976 7.94278, 3.4964 7.84561, 3.38304 7.74894, 3.2427 7.70036, 3.07585 7.69987, 2.85993 7.70036, 2.65089 7.75679, 2.44871 7.86917, 2.24653 7.98203, 2.06202 8.13219, 1.89517 8.32063, 1.72833 8.50907, 1.58013 8.72793, 1.45058 8.97624, 1.32103 9.22503, 1.22681 9.48806, 1.16694 9.76483, 1.10805 9.90665, 1.00844 9.97976, 0.868091 9.98467 L 0.689959 9.98467 C 0.560899 9.98516, 0.496124 9.9199, 0.496124 9.78838 L 0.496124 9.73342 C 0.577093 9.40954, 0.701246 9.09401, 0.868091 8.7878, 1.03494 8.48159, 1.23466 8.21071, 1.46628 7.97516, 1.69839 7.73962, 1.9575 7.54725, 2.2431 7.39807, 2.5287 7.24889, 2.83883 7.1743, 3.17252 7.17381, 3.4964 7.1743, 3.782 7.24497, 4.02982 7.3863, 4.27812 7.52762, 4.4803 7.71606, 4.63635 7.95112, 4.66874 8.00902, 4.69867 8.07085, 4.72566 8.13612, 4.75265 8.20188, 4.7605 8.21856, 4.74971 8.18666, 4.88466 7.95701, 5.09223 7.73078, 5.37243 7.508, 5.65313 7.2857, 5.97357 7.1743, 6.33474 7.17381, 6.53986 7.1743, 6.74302 7.19933, 6.9452 7.24889, 7.14738 7.29895, 7.32306 7.37844, 7.47126 7.48837, 7.61945 7.59829, 7.72888 7.73422, 7.79857 7.89616, 7.83635 7.99087, 7.855 8.09833, 7.855 8.21807, 7.855 8.29708, 7.8442 8.3859, 7.82261 8.48502 Z" stroke="none" fill="#000000" />
			<rect />
		</svg>
	</g>
	<g transform="matrix(1 0 -0 1 8.74644 11.5729)">
		<svg width="27.0562763" height="36.0428467">
			<defs />
			<path d="M 5.63988 14.3737 C 5.52701 14.8134, 5.34888 15.2334, 5.10646 15.6339, 4.86405 16.0343, 4.57795 16.3906, 4.24917 16.7017, 3.92039 17.0133, 3.55136 17.266, 3.14161 17.4594, 2.73186 17.6532, 2.30591 17.7499, 1.86377 17.7499, 1.59976 17.7499, 1.35734 17.7018, 1.13652 17.6046, 0.915692 17.5079, 0.735106 17.3769, 0.594759 17.212, 0.454413 17.0472, 0.360194 16.8523, 0.311612 16.6271, 0.290021 16.528, 0.279225 16.4259, 0.279225 16.3209, 0.279225 16.185, 0.295419 16.0461, 0.327806 15.9048, 0.387184 15.6692, 0.508392 15.4925, 0.691432 15.3748, 0.874962 15.257, 1.05555 15.1981, 1.23319 15.1981, 1.42212 15.1981, 1.58111 15.2585, 1.71017 15.3787, 1.80194 15.468, 1.84757 15.5828, 1.84757 15.7242, 1.84757 15.7821, 1.83678 15.8527, 1.81519 15.9362, 1.7563 16.1717, 1.63509 16.3484, 1.45156 16.4661, 1.26852 16.5839, 1.12278 16.6428, 1.01482 16.6428, 1.04721 16.7841, 1.14829 16.9166, 1.31808 17.0393, 1.48787 17.1625, 1.70526 17.2238, 1.96927 17.2238, 2.26027 17.2238, 2.53262 17.1453, 2.78584 16.9883, 3.03905 16.8312, 3.27116 16.6207, 3.48119 16.3562, 3.69122 16.0922, 3.87573 15.786, 4.03472 15.4376, 4.19372 15.0897, 4.3218 14.7246, 4.41896 14.3423 L 4.46754 14.1539 C 4.38706 14.2275, 4.21727 14.3232, 3.95817 14.4404, 3.69956 14.5582, 3.41641 14.6171, 3.10922 14.6171, 2.74265 14.6171, 2.41534 14.5494, 2.1268 14.413, 1.83825 14.2775, 1.61056 14.068, 1.44371 13.7848, 1.28177 13.4816, 1.20375 13.1469, 1.20914 12.7798 L 1.20914 12.717 C 1.21994 12.3352, 1.26852 11.9559, 1.3544 11.5785, 1.44077 11.2179, 1.56639 10.8204, 1.73078 10.3856, 1.89517 9.9513, 2.0527 9.52977, 2.20335 9.121, 2.36529 8.6872, 2.44626 8.33094, 2.44626 8.05319, 2.44626 7.81813, 2.34664 7.70036, 2.14691 7.69987, 1.96388 7.70036, 1.79801 7.75287, 1.64981 7.85739, 1.50161 7.9624, 1.36716 8.10766, 1.24546 8.29315, 1.12425 8.47914, 1.01531 8.69898, 0.918146 8.95268, 0.820982 9.20688, 0.740013 9.47727, 0.675238 9.76483, 0.616351 9.90665, 0.516734 9.97976, 0.376388 9.98467 L 0.190404 9.98467 C 0.0608531 9.98516, -0.00392231 9.9199, -0.00392231 9.78838 L -0.00392231 9.73342 C 0.071649 9.44586, 0.171756 9.15192, 0.295419 8.85061, 0.419571 8.5498, 0.576112 8.27647, 0.764549 8.03012, 0.952987 7.78427, 1.1689 7.58013, 1.41132 7.4177, 1.65374 7.25576, 1.93149 7.1743, 2.24408 7.17381, 2.51398 7.1743, 2.74412 7.23221, 2.93551 7.34704, 3.12689 7.46236, 3.27214 7.61546, 3.37176 7.80635, 3.47187 7.99774, 3.52683 8.21316, 3.53762 8.45362 L 3.53762 8.50858 C 3.53762 8.73431, 3.49199 8.96691, 3.40022 9.20737, 3.24417 9.61614, 3.0891 10.0337, 2.93551 10.4602, 2.78191 10.8871, 2.66217 11.2704, 2.57581 11.6104, 2.48944 11.951, 2.43006 12.2881, 2.39767 12.6228, 2.37608 12.7121, 2.36283 12.8093, 2.35694 12.9133, 2.35694 13.1179, 2.39228 13.3196, 2.46245 13.5179, 2.51103 13.6965, 2.59985 13.8378, 2.7294 13.9424, 2.85895 14.0474, 3.01255 14.0994, 3.19019 14.0989, 3.53517 14.0994, 3.83696 13.9973, 4.09557 13.7932, 4.35468 13.589, 4.5809 13.3221, 4.77473 12.9918 L 6.07662 7.92756 C 6.1252 7.73422, 6.22335 7.59191, 6.37155 7.50014, 6.51974 7.40887, 6.66941 7.36274, 6.82007 7.36225, 6.97661 7.36274, 7.10616 7.40985, 7.20823 7.50358, 7.27889 7.57228, 7.31373 7.66355, 7.31373 7.77838, 7.31373 7.83629, 7.30834 7.89665, 7.29754 7.95897 Z" stroke="none" fill="#000000" />
			<rect />
		</svg>
	</g>
	<g transform="matrix(1 0 -0 1 9.30823 238.469)">
		<svg width="36.0612984" height="41.9571304">
			<defs />
			<path d="M 10.5115 8.92471 C 10.3172 9.68435, 10.0031 10.417, 9.56934 11.1236, 9.13554 11.8303, 8.58936 12.4766, 7.9318 13.0625, 7.339 13.5915, 6.69027 14.012, 5.98657 14.3232, 5.28287 14.6343, 4.5782 14.7898, 3.87205 14.7898, 3.1605 14.7898, 2.52796 14.6333, 1.9754 14.3192, 1.42285 14.0052, 0.982182 13.5812, 0.653397 13.0468, 0.292226 12.456, 0.0846499 11.8013, 0.0306704 11.0839, 0.00907862 10.9116, -0.00171733 10.7389, -0.00171733 10.5657, -0.00171733 10.0269, 0.0684561 9.46941, 0.208312 8.8933, 0.413434 8.12434, 0.72995 7.37746, 1.15884 6.65217, 1.58773 5.92738, 2.13587 5.27177, 2.80423 4.68487, 3.39752 4.15685, 4.04576 3.73139, 4.74946 3.40948, 5.45316 3.08757, 6.16323 2.92661, 6.88018 2.92612, 7.59172 2.92661, 8.22132 3.08904, 8.76848 3.41341, 9.31612 3.73826, 9.75385 4.16716, 10.0826 4.70057, 10.4438 5.29238, 10.6568 5.95191, 10.7216 6.67916, 10.7323 6.85779, 10.7377 7.03298, 10.7377 7.20522, 10.7377 7.76562, 10.6627 8.33879, 10.5115 8.92471 Z M 8.87791 4.96752 C 8.70027 4.52833, 8.43331 4.17108, 8.07705 3.89628, 7.72128 3.62147, 7.28453 3.48407, 6.76682 3.48358, 6.255 3.48407, 5.74563 3.62442, 5.23871 3.90413, 4.73228 4.18433, 4.27935 4.54648, 3.8799 4.99108, 3.37838 5.53087, 2.98237 6.11582, 2.69137 6.74639, 2.40037 7.37746, 2.17366 8.01687, 2.01172 8.66561, 1.82328 9.37274, 1.70747 10.0612, 1.66429 10.7306, 1.65349 10.8567, 1.64809 10.9823, 1.64809 11.1074, 1.64809 11.6315, 1.73446 12.1443, 1.9067 12.6464, 2.07404 13.0919, 2.3302 13.4649, 2.67517 13.7657, 3.02015 14.067, 3.4515 14.2172, 3.96872 14.2167, 4.50263 14.2172, 5.02475 14.064, 5.53412 13.7578, 6.04349 13.4516, 6.50036 13.0733, 6.90471 12.6228, 7.42782 12.0163, 7.83463 11.3749, 8.12563 10.6997, 8.41712 10.0244, 8.65414 9.33594, 8.83718 8.6342, 9.00451 7.98056, 9.10953 7.33673, 9.15271 6.70272 L 9.15271 6.42791 C 9.15271 5.9048, 9.06144 5.41801, 8.87791 4.96752 Z" stroke="none" fill="#000000" />
			<rect />
		</svg>
	</g>
	<ellipse cx="1271.2808351516724" cy="540.64216327667236" rx="6.3000001907348633" ry="6.3000001907348633" stroke="none" fill="#000000" transform="matrix(0.416667 0 0 0.416667 -297.917 -86.6667)" />
	<ellipse cx="1171.6861085891724" cy="635.53950214385986" rx="6.3000001907348633" ry="6.3000001907348633" stroke="none" fill="#000000" transform="matrix(0.416667 0 0 0.416667 -297.917 -86.6667)" />
	<g transform="matrix(1 0 -0 1 178.814 183.15)">
		<svg width="50.9839096" height="38.9999886">
			<defs />
			<path d="M 15.6266 3.69557 C 15.5947 3.85849, 15.4951 3.93946, 15.3277 3.93897, 15.0745 3.93946, 14.8346 3.94486, 14.6078 3.95516, 14.3816 3.96596, 14.2172 3.99344, 14.1147 4.0376, 14.0126 4.08226, 13.9316 4.21966, 13.8718 4.44932 L 11.5992 13.298 C 11.5668 13.4138, 11.5506 13.5051, 11.5506 13.5728, 11.5506 13.6361, 11.5668 13.6754, 11.5992 13.6906, 11.6748 13.7382, 11.822 13.7657, 12.0404 13.7735, 12.2587 13.7814, 12.4948 13.7853, 12.748 13.7848, 12.8991 13.7853, 12.9742 13.8481, 12.9742 13.9733, 12.9742 14.0052, 12.9688 14.039, 12.958 14.0753 L 12.9256 14.1931 C 12.9099 14.2618, 12.8736 14.3192, 12.8167 14.3658, 12.7603 14.413, 12.694 14.4365, 12.6184 14.4365, 11.9771 14.4051, 11.3249 14.3894, 10.6614 14.3894, 9.99848 14.3894, 9.33011 14.4051, 8.65586 14.4365, 8.51552 14.4365, 8.44534 14.3688, 8.44534 14.2324 L 8.44534 14.1696, 8.47773 14.0361 C 8.52091 13.8638, 8.62642 13.7799, 8.79326 13.7848, 9.04648 13.7853, 9.28399 13.7814, 9.50481 13.7735, 9.72613 13.7657, 9.89052 13.7382, 9.99799 13.6906, 10.0952 13.6386, 10.1737 13.4973, 10.2326 13.2666 L 12.5051 4.49643, 6.49619 14.2167 C 6.41571 14.3634, 6.29156 14.4365, 6.12422 14.4365 L 6.04375 14.4365 C 5.8769 14.4365, 5.77679 14.3531, 5.7444 14.1853 L 4.7659 4.5828, 2.63911 12.8662 C 2.60672 12.9609, 2.59053 13.0605, 2.59053 13.1646, 2.59053 13.1911, 2.59593 13.22, 2.60672 13.2509, 2.61752 13.377, 2.6607 13.4767, 2.73578 13.5493, 2.83295 13.644, 2.9625 13.7068, 3.12444 13.7382, 3.28638 13.7696, 3.46942 13.7853, 3.67405 13.7848, 3.82519 13.7853, 3.90027 13.8481, 3.90027 13.9733, 3.90027 14.0052, 3.89487 14.039, 3.88408 14.0753 L 3.85218 14.1931 C 3.83598 14.2618, 3.79967 14.3192, 3.74275 14.3658, 3.68631 14.413, 3.61761 14.4365, 3.53664 14.4365, 2.99783 14.4051, 2.45313 14.3894, 1.90303 14.3894, 1.35342 14.3894, 0.795467 14.4051, 0.229174 14.4365, 0.148204 14.4365, 0.0888269 14.413, 0.0510413 14.3658, 0.0137464 14.3295, -0.00539182 14.2903, -0.00539182 14.2481, -0.00539182 14.2172, 6.1281e-006 14.1857, 0.010802 14.1539 L 0.042699 14.0361 C 0.0858826 13.8638, 0.191388 13.7799, 0.358234 13.7848, 0.563356 13.7853, 0.75621 13.7696, 0.936796 13.7382, 1.11738 13.7068, 1.28619 13.6415, 1.44224 13.5414, 1.56639 13.4634, 1.66748 13.3604, 1.74551 13.2318, 1.82353 13.1037, 1.88144 12.9663, 1.91922 12.8191 L 4.08625 4.41791 C 4.11864 4.30309, 4.13483 4.21426, 4.13483 4.15096, 4.13483 4.08864, 4.12159 4.05184, 4.0946 4.04104, 4.01902 3.99442, 3.8723 3.96596, 3.65393 3.95516, 3.43556 3.94486, 3.19952 3.93946, 2.9463 3.93897, 2.80105 3.93946, 2.72254 3.8688, 2.71174 3.72698 L 2.71174 3.67202, 2.74413 3.53069 C 2.8035 3.37415, 2.90852 3.29563, 3.05917 3.29514 L 5.67963 3.29514 C 5.85236 3.29563, 5.94904 3.37955, 5.97063 3.54639 L 6.8927 12.5207, 12.4565 3.51499 C 12.5375 3.36875, 12.6616 3.29563, 12.8285 3.29514 L 15.4489 3.29514 C 15.5245 3.29563, 15.5893 3.32164, 15.6428 3.37366, 15.6644 3.41586, 15.6752 3.45512, 15.6752 3.49143, 15.6752 3.52333, 15.6673 3.55228, 15.6511 3.5778 Z" stroke="none" fill="#000000" />
			<rect />
		</svg>
	</g>
	<g transform="matrix(1 0 -0 1 238.693 124.657)">
		<svg width="62.9477272" height="38.9999886">
			<defs />
			<path d="M 15.6329 3.69557 C 15.601 3.85849, 15.5013 3.93946, 15.334 3.93897, 15.0808 3.93946, 14.8408 3.94486, 14.6141 3.95516, 14.3879 3.96596, 14.2235 3.99344, 14.1209 4.0376, 14.0189 4.08226, 13.9379 4.21966, 13.878 4.44932 L 11.6055 13.298 C 11.5731 13.4138, 11.5569 13.5051, 11.5569 13.5728, 11.5569 13.6361, 11.5731 13.6754, 11.6055 13.6906, 11.6811 13.7382, 11.8283 13.7657, 12.0467 13.7735, 12.265 13.7814, 12.5011 13.7853, 12.7543 13.7848, 12.9054 13.7853, 12.9805 13.8481, 12.9805 13.9733, 12.9805 14.0052, 12.9751 14.039, 12.9643 14.0753 L 12.9319 14.1931 C 12.9162 14.2618, 12.8799 14.3192, 12.823 14.3658, 12.7666 14.413, 12.7003 14.4365, 12.6247 14.4365, 11.9834 14.4051, 11.3312 14.3894, 10.6677 14.3894, 10.0048 14.3894, 9.3364 14.4051, 8.66215 14.4365, 8.5218 14.4365, 8.45163 14.3688, 8.45163 14.2324 L 8.45163 14.1696, 8.48401 14.0361 C 8.5272 13.8638, 8.6327 13.7799, 8.79955 13.7848, 9.05276 13.7853, 9.29027 13.7814, 9.5111 13.7735, 9.73241 13.7657, 9.8968 13.7382, 10.0043 13.6906, 10.1014 13.6386, 10.18 13.4973, 10.2388 13.2666 L 12.5114 4.49643, 6.50248 14.2167 C 6.422 14.3634, 6.29785 14.4365, 6.13051 14.4365 L 6.05003 14.4365 C 5.88318 14.4365, 5.78308 14.3531, 5.75069 14.1853 L 4.77219 4.5828, 2.6454 12.8662 C 2.61301 12.9609, 2.59682 13.0605, 2.59682 13.1646, 2.59682 13.1911, 2.60221 13.22, 2.61301 13.2509, 2.62381 13.377, 2.66699 13.4767, 2.74207 13.5493, 2.83923 13.644, 2.96878 13.7068, 3.13072 13.7382, 3.29266 13.7696, 3.4757 13.7853, 3.68033 13.7848, 3.83147 13.7853, 3.90655 13.8481, 3.90655 13.9733, 3.90655 14.0052, 3.90116 14.039, 3.89036 14.0753 L 3.85846 14.1931 C 3.84227 14.2618, 3.80596 14.3192, 3.74903 14.3658, 3.6926 14.413, 3.6239 14.4365, 3.54293 14.4365, 3.00412 14.4051, 2.45941 14.3894, 1.90931 14.3894, 1.3597 14.3894, 0.801752 14.4051, 0.235458 14.4365, 0.154489 14.4365, 0.0951118 14.413, 0.0573261 14.3658, 0.0200312 14.3295, 0.000893024 14.2903, 0.000893024 14.2481, 0.000893024 14.2172, 0.00629097 14.1857, 0.0170869 14.1539 L 0.0489838 14.0361 C 0.0921674 13.8638, 0.197673 13.7799, 0.364518 13.7848, 0.569641 13.7853, 0.762495 13.7696, 0.94308 13.7382, 1.12367 13.7068, 1.29247 13.6415, 1.44852 13.5414, 1.57268 13.4634, 1.67377 13.3604, 1.75179 13.2318, 1.82982 13.1037, 1.88772 12.9663, 1.92551 12.8191 L 4.09254 4.41791 C 4.12493 4.30309, 4.14112 4.21426, 4.14112 4.15096, 4.14112 4.08864, 4.12787 4.05184, 4.10088 4.04104, 4.02531 3.99442, 3.87858 3.96596, 3.66021 3.95516, 3.44184 3.94486, 3.2058 3.93946, 2.95259 3.93897, 2.80734 3.93946, 2.72882 3.8688, 2.71802 3.72698 L 2.71802 3.67202, 2.75041 3.53069 C 2.80979 3.37415, 2.9148 3.29563, 3.06546 3.29514 L 5.68591 3.29514 C 5.85865 3.29563, 5.95532 3.37955, 5.97691 3.54639 L 6.89898 12.5207, 12.4628 3.51499 C 12.5438 3.36875, 12.6679 3.29563, 12.8348 3.29514 L 15.4552 3.29514 C 15.5308 3.29563, 15.5956 3.32164, 15.6491 3.37366, 15.6706 3.41586, 15.6814 3.45512, 15.6814 3.49143, 15.6814 3.52333, 15.6736 3.55228, 15.6574 3.5778 Z" stroke="none" fill="#000000" />
			<path d="M 19.6881 4.87331 C 19.5266 5.48082, 19.2558 6.05693, 18.8759 6.60114, 18.4961 7.14584, 18.0231 7.62724, 17.4568 8.04534, 17.3974 8.07184, 17.3518 8.08508, 17.3194 8.08459 L 17.3032 8.1003 C 17.2222 8.10079, 17.1604 8.07184, 17.1172 8.01393 L 17.101 7.98252 C 17.074 7.9413, 17.0603 7.90205, 17.0603 7.86475, 17.0603 7.79212, 17.0981 7.72146, 17.1736 7.65276, 17.6643 7.27098, 18.0834 6.84061, 18.4309 6.36167, 18.7788 5.88272, 19.0173 5.37384, 19.1463 4.83405, 19.1679 4.78743, 19.1817 4.74179, 19.1871 4.69714, 19.1925 4.65297, 19.1841 4.68781, 19.1625 4.80264, 19.1841 4.78203, 19.1223 4.8046, 18.9765 4.86987, 18.8313 4.93563, 18.6777 4.96801, 18.5157 4.96752, 18.187 4.96801, 17.9632 4.86349, 17.8444 4.65346, 17.7748 4.53863, 17.7394 4.4081, 17.7394 4.26088, 17.7394 4.18286, 17.7502 4.09894, 17.7718 4.00963, 17.8312 3.79568, 17.9647 3.59399, 18.1722 3.40555, 18.3798 3.21712, 18.637 3.1229, 18.9442 3.12241, 19.1763 3.1229, 19.3544 3.1808, 19.4781 3.29563, 19.6022 3.41095, 19.6886 3.55228, 19.7367 3.71913, 19.7691 3.85064, 19.7852 3.98657, 19.7852 4.12741 L 19.7852 4.28444 C 19.7637 4.49447, 19.7313 4.69076, 19.6881 4.87331 Z" stroke="none" fill="#000000" />
			<rect />
		</svg>
	</g>
	<path d="M -105.575 234.829 L 105.574 -234.829" fill="none" stroke="#000000" stroke-width="3.20000029" stroke-linecap="round" stroke-linejoin="round" marker-end="url(#CustomMarker-03)" transform="matrix(0.416667 0 0 0.416667 230.643 141.139)" />
	<path d="M 61.2299 -25.0613 C 64.4855 -17.107, 66.16 -8.59471, 66.16 -3.83085e-005" fill="none" stroke="#000000" stroke-width="2.4000001" stroke-linecap="round" stroke-linejoin="round" transform="matrix(0.416667 0 -0 0.416667 37.6991 238.984)" />
	<path d="M 0 0 L 118.621 -48.5513" fill="none" stroke="#000000" stroke-width="1.20000005" stroke-linecap="round" stroke-linejoin="round" stroke-dasharray="6.606, 2.994, 0.012, 3.588" transform="matrix(0.416667 0 -0 0.416667 37.6991 238.984)" />
	<path d="M 0 0 L 138.936 0" fill="none" stroke="#000000" stroke-width="1.20000005" stroke-linecap="round" stroke-linejoin="round" stroke-dasharray="6.606, 2.994, 0.012, 3.588" transform="matrix(0.416667 0 -0 0.416667 37.6991 238.984)" />
	<g transform="matrix(1 0 -0 1 82.8463 216.873)">
		<svg width="39.020092" height="32.9571342">
			<defs />
			<path d="M 11.024 9.57859 C 10.7978 10.4339, 10.4772 11.2589, 10.0616 12.0524, 9.6465 12.8465, 9.15586 13.5667, 8.58965 14.2136, 8.58965 14.5136, 8.59595 14.8039, 8.60854 15.0844, 8.62114 15.3655, 8.64977 15.6111, 8.69385 15.8218, 8.73793 16.0325, 8.79461 16.1899, 8.86331 16.2936, 8.93258 16.3978, 9.02361 16.4493, 9.13697 16.4487, 9.34479 16.4493, 9.54288 16.3668, 9.73181 16.202, 9.92074 16.0371, 10.0433 15.8384, 10.0994 15.606, 10.1371 15.4354, 10.2476 15.3501, 10.4297 15.3495 L 10.5431 15.3495 C 10.6879 15.3501, 10.7663 15.4233, 10.7789 15.5693 L 10.7789 15.6335 C 10.7348 15.8293, 10.6564 16.013, 10.5431 16.1836, 10.4297 16.3548, 10.2929 16.506, 10.1326 16.6371, 9.97226 16.7682, 9.79765 16.8701, 9.60872 16.9434, 9.42036 17.0166, 9.22227 17.0533, 9.01445 17.0533, 8.46713 17.0533, 8.05206 16.889, 7.76925 16.5592, 7.48643 16.2294, 7.30379 15.8842, 7.22193 15.5235, 6.67461 15.9701, 6.04885 16.3365, 5.34409 16.6233, 4.63991 16.9102, 3.90709 17.0533, 3.14566 17.0533, 2.59261 17.0533, 2.08938 16.9405, 1.63652 16.7149, 1.18367 16.4894, 0.825274 16.1653, 0.560775 15.7434, 0.277955 15.3346, 0.101622 14.8617, 0.0323482 14.3236, 0.00715774 14.1713, -0.00543743 14.0064, -0.00543743 13.8289, -0.00543743 13.4631, 0.0483785 13.0846, 0.154865 12.693, 0.306008 12.1257, 0.547035 11.5807, 0.8768 11.0585, 1.20714 10.5364, 1.61763 10.0647, 2.1077 9.64271, 2.58631 9.25226, 3.10386 8.94253, 3.66034 8.71353, 4.21682 8.48452, 4.77216 8.37002, 5.3252 8.36945, 5.85363 8.37002, 6.3208 8.46964, 6.72613 8.66773, 7.13204 8.86639, 7.47497 9.13375, 7.75493 9.46924, 8.03489 9.8053, 8.24386 10.1975, 8.3824 10.6463, 8.52095 11.0952, 8.58965 11.5669, 8.58965 12.061 L 8.58965 13.2701 C 8.92342 12.8373, 9.25663 12.2848, 9.58983 11.6127, 9.92303 10.9412, 10.1778 10.2542, 10.3541 9.55111, 10.3919 9.3805, 10.5024 9.29234, 10.6845 9.28547 L 10.7789 9.28547 C 10.9427 9.28604, 11.024 9.35932, 11.024 9.50531 L 11.024 9.57859 Z M 7.09884 14.8732 C 7.09311 14.8308, 7.08681 14.7672, 7.08052 14.6814, 7.07422 14.5961, 7.07078 14.5102, 7.07078 14.4243 L 7.07078 12.3633 C 7.07078 11.9179, 7.04101 11.4925, 6.98147 11.086, 6.92193 10.6801, 6.82403 10.3183, 6.68892 10.0005, 6.55381 9.68336, 6.36774 9.43432, 6.13187 9.25398, 5.89599 9.07421, 5.5897 8.98375, 5.21184 8.98318, 4.85975 8.98375, 4.50422 9.07707, 4.14583 9.26314, 3.78744 9.44978, 3.46683 9.70454, 3.18344 10.0274, 2.83135 10.419, 2.56227 10.845, 2.37678 11.3059, 2.19128 11.7673, 2.03556 12.2448, 1.90961 12.7388, 1.78423 13.2278, 1.6932 13.6984, 1.63595 14.1495, 1.62335 14.2663, 1.61706 14.3819, 1.61706 14.4976, 1.61706 14.8216, 1.67087 15.1331, 1.77793 15.4319, 1.89758 15.7377, 2.08308 15.9838, 2.33441 16.1699, 2.58631 16.3565, 2.88803 16.4493, 3.24012 16.4487, 3.95118 16.4493, 4.63533 16.309, 5.29257 16.0279, 5.94981 15.7474, 6.55209 15.3621, 7.09884 14.8732 Z" stroke="none" fill="#000000" />
			<rect />
		</svg>
	</g>
	<g transform="matrix(1 0 -0 1 207.366 211.489)">
		<svg width="189.018051" height="128.999969">
			<defs />
			<path d="M 11.024 9.57859 C 10.7978 10.4339, 10.4772 11.2589, 10.0616 12.0524, 9.6465 12.8465, 9.15586 13.5667, 8.58965 14.2136, 8.58965 14.5136, 8.59595 14.8039, 8.60854 15.0844, 8.62114 15.3655, 8.64977 15.6111, 8.69385 15.8218, 8.73793 16.0325, 8.79461 16.1899, 8.86331 16.2936, 8.93258 16.3978, 9.02361 16.4493, 9.13697 16.4487, 9.34479 16.4493, 9.54288 16.3668, 9.73181 16.202, 9.92074 16.0371, 10.0433 15.8384, 10.0994 15.606, 10.1371 15.4354, 10.2476 15.3501, 10.4297 15.3495 L 10.5431 15.3495 C 10.6879 15.3501, 10.7663 15.4233, 10.7789 15.5693 L 10.7789 15.6335 C 10.7348 15.8293, 10.6564 16.013, 10.5431 16.1836, 10.4297 16.3548, 10.2929 16.506, 10.1326 16.6371, 9.97226 16.7682, 9.79765 16.8701, 9.60872 16.9434, 9.42036 17.0166, 9.22227 17.0533, 9.01445 17.0533, 8.46713 17.0533, 8.05206 16.889, 7.76925 16.5592, 7.48643 16.2294, 7.30379 15.8842, 7.22193 15.5235, 6.67461 15.9701, 6.04885 16.3365, 5.34409 16.6233, 4.63991 16.9102, 3.90709 17.0533, 3.14566 17.0533, 2.59261 17.0533, 2.08938 16.9405, 1.63652 16.7149, 1.18367 16.4894, 0.825274 16.1653, 0.560775 15.7434, 0.277955 15.3346, 0.101622 14.8617, 0.0323482 14.3236, 0.00715774 14.1713, -0.00543743 14.0064, -0.00543743 13.8289, -0.00543743 13.4631, 0.0483785 13.0846, 0.154865 12.693, 0.306008 12.1257, 0.547035 11.5807, 0.8768 11.0585, 1.20714 10.5364, 1.61763 10.0647, 2.1077 9.64271, 2.58631 9.25226, 3.10386 8.94253, 3.66034 8.71353, 4.21682 8.48452, 4.77216 8.37002, 5.3252 8.36945, 5.85363 8.37002, 6.3208 8.46964, 6.72613 8.66773, 7.13204 8.86639, 7.47497 9.13375, 7.75493 9.46924, 8.03489 9.8053, 8.24386 10.1975, 8.3824 10.6463, 8.52095 11.0952, 8.58965 11.5669, 8.58965 12.061 L 8.58965 13.2701 C 8.92342 12.8373, 9.25663 12.2848, 9.58983 11.6127, 9.92303 10.9412, 10.1778 10.2542, 10.3541 9.55111, 10.3919 9.3805, 10.5024 9.29234, 10.6845 9.28547 L 10.7789 9.28547 C 10.9427 9.28604, 11.024 9.35932, 11.024 9.50531 L 11.024 9.57859 Z M 7.09884 14.8732 C 7.09311 14.8308, 7.08681 14.7672, 7.08052 14.6814, 7.07422 14.5961, 7.07078 14.5102, 7.07078 14.4243 L 7.07078 12.3633 C 7.07078 11.9179, 7.04101 11.4925, 6.98147 11.086, 6.92193 10.6801, 6.82403 10.3183, 6.68892 10.0005, 6.55381 9.68336, 6.36774 9.43432, 6.13187 9.25398, 5.89599 9.07421, 5.5897 8.98375, 5.21184 8.98318, 4.85975 8.98375, 4.50422 9.07707, 4.14583 9.26314, 3.78744 9.44978, 3.46683 9.70454, 3.18344 10.0274, 2.83135 10.419, 2.56227 10.845, 2.37678 11.3059, 2.19128 11.7673, 2.03556 12.2448, 1.90961 12.7388, 1.78423 13.2278, 1.6932 13.6984, 1.63595 14.1495, 1.62335 14.2663, 1.61706 14.3819, 1.61706 14.4976, 1.61706 14.8216, 1.67087 15.1331, 1.77793 15.4319, 1.89758 15.7377, 2.08308 15.9838, 2.33441 16.1699, 2.58631 16.3565, 2.88803 16.4493, 3.24012 16.4487, 3.95118 16.4493, 4.63533 16.309, 5.29257 16.0279, 5.94981 15.7474, 6.55209 15.3621, 7.09884 14.8732 Z" stroke="none" fill="#000000" />
			<polyline points="-6.566 0 6.566 0" fill="none" stroke="#000000" stroke-width="0.750400007" stroke-linecap="round" stroke-linejoin="round" transform="matrix(1 0 0 1 23.0358 11.2074)" />
			<polyline points="0 -6.566 0 6.566" fill="none" stroke="#000000" stroke-width="0.750400007" stroke-linecap="round" stroke-linejoin="round" transform="matrix(1 0 0 1 23.0358 11.2074)" />
			<path d="M 49.4868 16.4853 C 49.5057 16.5289, 49.5149 16.5684, 49.5149 16.6044, 49.5149 16.6537, 49.5023 16.6903, 49.4771 16.7143, 49.4393 16.7876, 49.3671 16.8243, 49.2601 16.8243 L 35.2966 16.8243 C 35.1958 16.8243, 35.1237 16.7876, 35.0796 16.7143, 35.0544 16.6903, 35.0418 16.6537, 35.0418 16.6044, 35.0418 16.5684, 35.0515 16.5289, 35.0699 16.4853 L 41.7596 3.45044 C 41.8415 3.27411, 41.9864 3.18824, 42.1936 3.19396 L 42.3631 3.19396 C 42.5583 3.19453, 42.7031 3.27697, 42.797 3.44128 L 49.4868 16.4853 Z M 41.7121 5.24584 L 36.5418 15.3128, 46.8733 15.3128 Z" stroke="none" fill="#000000" />
			<path d="M 61.9877 9.57859 C 61.7616 10.4339, 61.441 11.2589, 61.0253 12.0524, 60.6103 12.8465, 60.1196 13.5667, 59.5534 14.2136, 59.5534 14.5136, 59.5597 14.8039, 59.5723 15.0844, 59.5849 15.3655, 59.6135 15.6111, 59.6576 15.8218, 59.7017 16.0325, 59.7584 16.1899, 59.8271 16.2936, 59.8963 16.3978, 59.9874 16.4493, 60.1007 16.4487, 60.3085 16.4493, 60.5066 16.3668, 60.6956 16.202, 60.8845 16.0371, 61.007 15.8384, 61.0631 15.606, 61.1009 15.4354, 61.2114 15.3501, 61.3934 15.3495 L 61.5068 15.3495 C 61.6516 15.3501, 61.7301 15.4233, 61.7427 15.5693 L 61.7427 15.6335 C 61.6986 15.8293, 61.6202 16.013, 61.5068 16.1836, 61.3934 16.3548, 61.2566 16.506, 61.0963 16.6371, 60.936 16.7682, 60.7614 16.8701, 60.5725 16.9434, 60.3841 17.0166, 60.186 17.0533, 59.9782 17.0533, 59.4309 17.0533, 59.0158 16.889, 58.733 16.5592, 58.4502 16.2294, 58.2675 15.8842, 58.1857 15.5235, 57.6384 15.9701, 57.0126 16.3365, 56.3078 16.6233, 55.6037 16.9102, 54.8708 17.0533, 54.1094 17.0533, 53.5564 17.0533, 53.0531 16.9405, 52.6003 16.7149, 52.1474 16.4894, 51.789 16.1653, 51.5245 15.7434, 51.2417 15.3346, 51.0654 14.8617, 50.9961 14.3236, 50.9709 14.1713, 50.9583 14.0064, 50.9583 13.8289, 50.9583 13.4631, 51.0121 13.0846, 51.1186 12.693, 51.2698 12.1257, 51.5108 11.5807, 51.8405 11.0585, 52.1709 10.5364, 52.5814 10.0647, 53.0714 9.64271, 53.5501 9.25226, 54.0676 8.94253, 54.6241 8.71353, 55.1806 8.48452, 55.7359 8.37002, 56.2889 8.36945, 56.8174 8.37002, 57.2845 8.46964, 57.6899 8.66773, 58.0958 8.86639, 58.4387 9.13375, 58.7187 9.46924, 58.9986 9.8053, 59.2076 10.1975, 59.3461 10.6463, 59.4847 11.0952, 59.5534 11.5669, 59.5534 12.061 L 59.5534 13.2701 C 59.8872 12.8373, 60.2204 12.2848, 60.5536 11.6127, 60.8868 10.9412, 61.1415 10.2542, 61.3179 9.55111, 61.3557 9.3805, 61.4662 9.29234, 61.6482 9.28547 L 61.7427 9.28547 C 61.9064 9.28604, 61.9877 9.35932, 61.9877 9.50531 L 61.9877 9.57859 Z M 58.0626 14.8732 C 58.0569 14.8308, 58.0506 14.7672, 58.0443 14.6814, 58.038 14.5961, 58.0345 14.5102, 58.0345 14.4243 L 58.0345 12.3633 C 58.0345 11.9179, 58.0048 11.4925, 57.9452 11.086, 57.8857 10.6801, 57.7878 10.3183, 57.6527 10.0005, 57.5176 9.68336, 57.3315 9.43432, 57.0956 9.25398, 56.8597 9.07421, 56.5534 8.98375, 56.1756 8.98318, 55.8235 8.98375, 55.468 9.07707, 55.1096 9.26314, 54.7512 9.44978, 54.4306 9.70454, 54.1472 10.0274, 53.7951 10.419, 53.526 10.845, 53.3405 11.3059, 53.155 11.7673, 52.9993 12.2448, 52.8734 12.7388, 52.748 13.2278, 52.6569 13.6984, 52.5997 14.1495, 52.5871 14.2663, 52.5808 14.3819, 52.5808 14.4976, 52.5808 14.8216, 52.6346 15.1331, 52.7417 15.4319, 52.8613 15.7377, 53.0468 15.9838, 53.2982 16.1699, 53.5501 16.3565, 53.8518 16.4493, 54.2039 16.4487, 54.9149 16.4493, 55.5991 16.309, 56.2563 16.0279, 56.9136 15.7474, 57.5158 15.3621, 58.0626 14.8732 Z" stroke="none" fill="#000000" />
			<rect />
		</svg>
	</g>
	<g transform="matrix(1 0 -0 1 295.921 143.072)">
		<svg width="36.0612984" height="38.9999886">
			<defs />
			<path d="M 10.0422 6.89901 C 10.0264 6.96771, 9.99259 7.0266, 9.94155 7.07616, 9.89052 7.12621, 9.82672 7.15075, 9.75115 7.15026 L 9.59756 7.15026 C 9.44641 7.15075, 9.37084 7.08794, 9.37084 6.96182 L 9.37084 6.90686 C 9.41403 6.6718, 9.45181 6.42742, 9.4842 6.17323, 9.51659 5.91953, 9.54358 5.68251, 9.56517 5.46217 L 9.56517 5.21092 C 9.56517 5.09119, 9.55977 4.98126, 9.54897 4.88116, 9.52738 4.71922, 9.4896 4.59654, 9.43562 4.51213, 9.29036 4.32419, 9.08671 4.19758, 8.82516 4.13182, 8.56409 4.06656, 8.27162 4.03368, 7.94824 4.03319 L 7.05071 4.03319 C 6.7813 4.03368, 6.61396 4.04938, 6.54919 4.0803, 6.5011 4.1279, 6.44712 4.28493, 6.38774 4.55139 L 4.13189 13.298 C 4.1103 13.377, 4.0995 13.4399, 4.0995 13.4865, 4.0995 13.5915, 4.13189 13.6543, 4.19617 13.6749, 4.34731 13.7225, 4.59022 13.7529, 4.9244 13.7657, 5.25859 13.7789, 5.59277 13.7853, 5.92646 13.7848, 6.0776 13.7853, 6.15317 13.8481, 6.15317 13.9733, 6.15317 14.0052, 6.14778 14.039, 6.13698 14.0753 L 6.10459 14.1931 C 6.07221 14.356, 5.96719 14.4365, 5.78906 14.4365, 4.90527 14.4051, 4.01313 14.3894, 3.11315 14.3894, 2.21807 14.3894, 1.31808 14.4051, 0.41221 14.4365, 0.331732 14.4365, 0.272354 14.413, 0.234569 14.3658, 0.197274 14.3295, 0.178136 14.2903, 0.178136 14.2481, 0.178136 14.2172, 0.183533 14.1857, 0.194329 14.1539 L 0.226226 14.0361 C 0.242911 13.9684, 0.280697 13.91, 0.339583 13.8599, 0.398961 13.8103, 0.46619 13.7853, 0.541761 13.7848, 0.870545 13.7853, 1.20767 13.7789, 1.55265 13.7657, 1.89763 13.7529, 2.14937 13.7225, 2.30836 13.6754, 2.46736 13.6283, 2.57384 13.4924, 2.62782 13.2666 L 4.88367 4.51213 C 4.93765 4.32958, 4.96464 4.19071, 4.96464 4.096 L 4.96464 4.06459 C 4.94305 4.04398, 4.79485 4.03368, 4.52005 4.03319 L 3.62252 4.03319 C 3.29913 4.03368, 2.9836 4.06803, 2.6764 4.13575, 2.36921 4.20396, 2.09441 4.33449, 1.8515 4.52784, 1.73863 4.61715, 1.63067 4.74572, 1.52811 4.91305, 1.42604 5.08088, 1.32495 5.27324, 1.22534 5.49014, 1.12572 5.70753, 1.03003 5.93915, 0.938265 6.18501, 0.8465 6.43135, 0.754735 6.6772, 0.66297 6.92256, 0.60899 7.08009, 0.509373 7.15615, 0.364119 7.15026 L 0.226226 7.15026 C 0.145748 7.15075, 0.0863704 7.12474, 0.0485848 7.07174, 0.0161971 7.04083, 3.21865e-006 7.00402, 3.21865e-006 6.96182, 3.21865e-006 6.93091, 0.00834554 6.8995, 0.0245394 6.8676, 0.164886 6.33958, 0.340074 5.80028, 0.550103 5.25067, 0.760133 4.70106, 0.959857 4.15391, 1.14829 3.6092, 1.20227 3.45266, 1.30483 3.37415, 1.45549 3.37366 L 10.3655 3.37366 C 10.5167 3.37415, 10.5918 3.43941, 10.5918 3.56995 L 10.5918 3.62491 Z" stroke="none" fill="#000000" />
			<rect />
		</svg>
	</g>
	<path d="M 41.4305 18.8093 C 36.6192 29.4073, 27.9297 37.7585, 17.1492 42.1453" fill="none" stroke="#000000" stroke-width="2.4000001" stroke-linecap="round" stroke-linejoin="round" transform="matrix(0.416667 0 -0 0.416667 161.814 106.716)" />
	<path d="M 0 0 L 68.3319 31.0225" fill="none" stroke="#000000" stroke-width="1.20000005" stroke-linecap="round" stroke-linejoin="round" stroke-dasharray="6.606, 2.994, 0.012, 3.588" transform="matrix(0.416667 0 -0 0.416667 161.814 106.716)" />
	<path d="M 0 0 L 26.9021 66.114" fill="none" stroke="#000000" stroke-width="1.20000005" stroke-linecap="round" stroke-linejoin="round" stroke-dasharray="6.606, 2.994, 0.012, 3.588" transform="matrix(0.416667 0 -0 0.416667 161.814 106.716)" />
	<path d="M -314.724 125.619 L 314.724 -125.618" fill="none" stroke="#000000" stroke-width="3.20000029" stroke-linecap="round" stroke-linejoin="round" marker-end="url(#CustomMarker-04)" transform="matrix(0.416667 0 0 0.416667 170.082 186.205)" />
	<ellipse cx="1103.3538331985474" cy="464.11802387237549" rx="6.3000001907348633" ry="6.3000001907348633" stroke="none" fill="#000000" transform="matrix(0.416667 0 0 0.416667 -297.917 -86.6667)" />
	<path d="M -34.0813 -85.3872 L 34.0818 85.3876" fill="none" stroke="#000000" stroke-width="2.4000001" stroke-linecap="round" stroke-linejoin="round" transform="matrix(0.416667 0 0 0.416667 176.015 142.294)" />
	<path d="M -83.9639 -38.1194 L 83.9631 38.1198" fill="none" stroke="#000000" stroke-width="2.4000001" stroke-linecap="round" stroke-linejoin="round" transform="matrix(0.416667 0 0 0.416667 196.799 122.599)" />
	<path d="M 17.4429 -37.9627 C 32.2733 -31.1483, 41.7776 -16.3214, 41.7776 -2.80436e-005" fill="none" stroke="#000000" stroke-width="2.4000001" stroke-linecap="round" stroke-linejoin="round" transform="matrix(0.416667 0 -0 0.416667 186.654 238.984)" />
	<path d="M 0 0 L 31.6478 -68.8782" fill="none" stroke="#000000" stroke-width="1.20000005" stroke-linecap="round" stroke-linejoin="round" stroke-dasharray="6.606, 2.994, 0.012, 3.588" transform="matrix(0.416667 0 -0 0.416667 186.654 238.984)" />
	<path d="M 0 0 L 87.7331 0" fill="none" stroke="#000000" stroke-width="1.20000005" stroke-linecap="round" stroke-linejoin="round" stroke-dasharray="6.606, 2.994, 0.012, 3.588" transform="matrix(0.416667 0 -0 0.416667 186.654 238.984)" />
	<g transform="matrix(1 0 -0 1 275.589 55.9989)">
		<svg width="50.9839096" height="38.9999886">
			<defs />
			<path d="M 10.0428 6.89901 C 10.0271 6.96771, 9.99323 7.0266, 9.9422 7.07616, 9.89116 7.12621, 9.82737 7.15075, 9.7518 7.15026 L 9.5982 7.15026 C 9.44755 7.15075, 9.37198 7.08794, 9.37198 6.96182 L 9.37198 6.90686 C 9.41516 6.6718, 9.45246 6.42742, 9.48484 6.17323, 9.51723 5.91953, 9.54422 5.68251, 9.56581 5.46217 L 9.56581 5.21092 C 9.56581 5.09119, 9.56042 4.98126, 9.54962 4.88116, 9.52803 4.71922, 9.49024 4.59654, 9.43626 4.51213, 9.29101 4.32419, 9.08785 4.19758, 8.82629 4.13182, 8.56474 4.06656, 8.27227 4.03368, 7.94839 4.03319 L 7.05086 4.03319 C 6.78145 4.03368, 6.61412 4.04938, 6.54934 4.0803, 6.50125 4.1279, 6.44727 4.28493, 6.38789 4.55139 L 4.13155 13.298 C 4.10996 13.377, 4.09916 13.4399, 4.09916 13.4865, 4.09916 13.5915, 4.13155 13.6543, 4.19584 13.6749, 4.34698 13.7225, 4.58989 13.7529, 4.92407 13.7657, 5.25825 13.7789, 5.59243 13.7853, 5.92661 13.7848, 6.07776 13.7853, 6.15333 13.8481, 6.15333 13.9733, 6.15333 14.0052, 6.14793 14.039, 6.13713 14.0753 L 6.10475 14.1931 C 6.07236 14.356, 5.96734 14.4365, 5.78921 14.4365, 4.90493 14.4051, 4.0128 14.3894, 3.11232 14.3894, 2.21724 14.3894, 1.31726 14.4051, 0.411383 14.4365, 0.330905 14.4365, 0.271527 14.413, 0.233251 14.3658, 0.195956 14.3295, 0.176818 14.2903, 0.176818 14.2481, 0.176818 14.2172, 0.182216 14.1857, 0.193012 14.1539 L 0.225399 14.0361 C 0.241593 13.9684, 0.279379 13.91, 0.338756 13.8599, 0.398134 13.8103, 0.465363 13.7853, 0.540934 13.7848, 0.869718 13.7853, 1.20684 13.7789, 1.55182 13.7657, 1.8968 13.7529, 2.14903 13.7225, 2.30803 13.6754, 2.46702 13.6283, 2.57351 13.4924, 2.627 13.2666 L 4.88334 4.51213 C 4.93732 4.32958, 4.96431 4.19071, 4.96431 4.096 L 4.96431 4.06459 C 4.94272 4.04398, 4.79452 4.03368, 4.51971 4.03319 L 3.62169 4.03319 C 3.29879 4.03368, 2.98326 4.06803, 2.67607 4.13575, 2.36888 4.20396, 2.09358 4.33449, 1.85067 4.52784, 1.73781 4.61715, 1.62985 4.74572, 1.52729 4.91305, 1.42522 5.08088, 1.32413 5.27324, 1.22402 5.49014, 1.1244 5.70753, 1.02871 5.93915, 0.936947 6.18501, 0.845673 6.43135, 0.753908 6.6772, 0.662142 6.92256, 0.608163 7.08009, 0.508546 7.15615, 0.362802 7.15026 L 0.225399 7.15026 C 0.144921 7.15075, 0.0855433 7.12474, 0.0472669 7.07174, 0.0148792 7.04083, -0.00131464 7.00402, -0.00131464 6.96182, -0.00131464 6.93091, 0.00702769 6.8995, 0.0232215 6.8676, 0.163568 6.33958, 0.338756 5.80028, 0.548785 5.25067, 0.759305 4.70106, 0.95903 4.15391, 1.14747 3.6092, 1.20145 3.45266, 1.30352 3.37415, 1.45466 3.37366 L 10.3667 3.37366 C 10.5178 3.37415, 10.5929 3.43941, 10.5929 3.56995 L 10.5929 3.62491 Z" stroke="none" fill="#000000" />
			<path d="M 15.1278 4.87331 C 14.9664 5.48082, 14.6955 6.05693, 14.3157 6.60114, 13.9358 7.14584, 13.4628 7.62724, 12.8965 8.04534, 12.8371 8.07184, 12.7915 8.08508, 12.7591 8.08459 L 12.7429 8.1003 C 12.6619 8.10079, 12.6001 8.07184, 12.5569 8.01393 L 12.5407 7.98252 C 12.5137 7.9413, 12.5 7.90205, 12.5 7.86475, 12.5 7.79212, 12.5378 7.72146, 12.6133 7.65276, 13.1041 7.27098, 13.5231 6.84061, 13.8706 6.36167, 14.2185 5.88272, 14.457 5.37384, 14.586 4.83405, 14.6076 4.78743, 14.6214 4.74179, 14.6268 4.69714, 14.6322 4.65297, 14.6238 4.68781, 14.6022 4.80264, 14.6238 4.78203, 14.562 4.8046, 14.4163 4.86987, 14.271 4.93563, 14.1174 4.96801, 13.9555 4.96752, 13.6267 4.96801, 13.4029 4.86349, 13.2842 4.65346, 13.2145 4.53863, 13.1791 4.4081, 13.1791 4.26088, 13.1791 4.18286, 13.1899 4.09894, 13.2115 4.00963, 13.2709 3.79568, 13.4044 3.59399, 13.612 3.40555, 13.8195 3.21712, 14.0767 3.1229, 14.3839 3.12241, 14.616 3.1229, 14.7941 3.1808, 14.9178 3.29563, 15.0419 3.41095, 15.1283 3.55228, 15.1764 3.71913, 15.2088 3.85064, 15.225 3.98657, 15.225 4.12741 L 15.225 4.28444 C 15.2034 4.49447, 15.171 4.69076, 15.1278 4.87331 Z" stroke="none" fill="#000000" />
			<rect />
		</svg>
	</g>
</svg>
