<?xml version="1.0"?>
<svg xmlns="http://www.w3.org/2000/svg" xmlns:xlink="http://www.w3.org/1999/xlink" width="351.363647" height="256.818176">
	<defs>
		<marker id="CustomMarker-01" markerUnits="strokeWidth" markerWidth="15.000001" markerHeight="9" viewBox="-15 -4.5 15 9" orient="auto-start-reverse">
			<path d="M 0 -0 L -10 -3, -8 -0.5, -8 0.5, -10 3 Z" fill="#000000" stroke="#000000" stroke-linejoin="round" />
		</marker>
		<marker id="CustomMarker-02" markerUnits="strokeWidth" markerWidth="15.000001" markerHeight="9" viewBox="-15 -4.5 15 9" orient="auto-start-reverse">
			<path d="M 0 -0 L -10 -3, -8 -0.5, -8 0.5, -10 3 Z" fill="#000000" stroke="#000000" stroke-linejoin="round" />
		</marker>
		<marker id="CustomMarker-03" markerUnits="strokeWidth" markerWidth="15.000001" markerHeight="9" viewBox="-15 -4.5 15 9" orient="auto-start-reverse">
			<path d="M 0 -0 L -10 -3, -8 -0.5, -8 0.5, -10 3 Z" fill="#000000" stroke="#000000" stroke-linejoin="round" />
		</marker>
		<marker id="CustomMarker-04" markerUnits="strokeWidth" markerWidth="15.000001" markerHeight="9" viewBox="-15 -4.5 15 9" orient="auto-start-reverse">
			<path d="M 0 -0 L -10 -3, -8 -0.5, -8 0.5, -10 3 Z" fill="#000000" stroke="#000000" stroke-linejoin="round" />
		</marker>
	</defs>
	<g transform="matrix(1 0 -0 1 231.957 123.012)">
		<svg width="84.0452042" height="47.9999886">
			<defs />
			<path d="M 14.4446 16.4853 C 14.4635 16.5289, 14.4727 16.5684, 14.4727 16.6044, 14.4727 16.6537, 14.4601 16.6903, 14.4349 16.7143, 14.3971 16.7876, 14.3249 16.8243, 14.2179 16.8243 L 0.254377 16.8243 C 0.153616 16.8243, 0.0814795 16.7876, 0.0373963 16.7143, 0.0122058 16.6903, -0.000389338 16.6537, -0.000389338 16.6044, -0.000389338 16.5684, 0.00934333 16.5289, 0.0276636 16.4853 L 6.71744 3.45044 C 6.79931 3.27411, 6.94415 3.18824, 7.1514 3.19396 L 7.32087 3.19396 C 7.51609 3.19453, 7.66094 3.27697, 7.75483 3.44128 L 14.4446 16.4853 Z M 6.66992 5.24584 L 1.49959 15.3128, 11.8311 15.3128 Z" stroke="none" fill="#000000" />
			<path d="M 26.9455 9.57859 C 26.7194 10.4339, 26.3988 11.2589, 25.9831 12.0524, 25.5681 12.8465, 25.0774 13.5667, 24.5112 14.2136, 24.5112 14.5136, 24.5175 14.8039, 24.5301 15.0844, 24.5427 15.3655, 24.5713 15.6111, 24.6154 15.8218, 24.6595 16.0325, 24.7162 16.1899, 24.7849 16.2936, 24.8541 16.3978, 24.9452 16.4493, 25.0585 16.4487, 25.2663 16.4493, 25.4644 16.3668, 25.6534 16.202, 25.8423 16.0371, 25.9648 15.8384, 26.0209 15.606, 26.0587 15.4354, 26.1692 15.3501, 26.3512 15.3495 L 26.4646 15.3495 C 26.6095 15.3501, 26.6879 15.4233, 26.7005 15.5693 L 26.7005 15.6335 C 26.6564 15.8293, 26.578 16.013, 26.4646 16.1836, 26.3512 16.3548, 26.2144 16.506, 26.0541 16.6371, 25.8938 16.7682, 25.7192 16.8701, 25.5303 16.9434, 25.3419 17.0166, 25.1438 17.0533, 24.936 17.0533, 24.3887 17.0533, 23.9736 16.889, 23.6908 16.5592, 23.408 16.2294, 23.2253 15.8842, 23.1435 15.5235, 22.5962 15.9701, 21.9704 16.3365, 21.2656 16.6233, 20.5615 16.9102, 19.8286 17.0533, 19.0672 17.0533, 18.5142 17.0533, 18.0109 16.9405, 17.5581 16.7149, 17.1052 16.4894, 16.7468 16.1653, 16.4823 15.7434, 16.1995 15.3346, 16.0232 14.8617, 15.9539 14.3236, 15.9287 14.1713, 15.9161 14.0064, 15.9161 13.8289, 15.9161 13.4631, 15.9699 13.0846, 16.0764 12.693, 16.2276 12.1257, 16.4686 11.5807, 16.7984 11.0585, 17.1287 10.5364, 17.5392 10.0647, 18.0292 9.64271, 18.5079 9.25226, 19.0254 8.94253, 19.5819 8.71353, 20.1384 8.48452, 20.6937 8.37002, 21.2468 8.36945, 21.7752 8.37002, 22.2423 8.46964, 22.6477 8.66773, 23.0536 8.86639, 23.3965 9.13375, 23.6765 9.46924, 23.9564 9.8053, 24.1654 10.1975, 24.304 10.6463, 24.4425 11.0952, 24.5112 11.5669, 24.5112 12.061 L 24.5112 13.2701 C 24.845 12.8373, 25.1782 12.2848, 25.5114 11.6127, 25.8446 10.9412, 26.0993 10.2542, 26.2757 9.55111, 26.3135 9.3805, 26.424 9.29234, 26.606 9.28547 L 26.7005 9.28547 C 26.8642 9.28604, 26.9455 9.35932, 26.9455 9.50531 L 26.9455 9.57859 Z M 23.0204 14.8732 C 23.0147 14.8308, 23.0084 14.7672, 23.0021 14.6814, 22.9958 14.5961, 22.9923 14.5102, 22.9923 14.4243 L 22.9923 12.3633 C 22.9923 11.9179, 22.9626 11.4925, 22.903 11.086, 22.8435 10.6801, 22.7456 10.3183, 22.6105 10.0005, 22.4754 9.68336, 22.2893 9.43432, 22.0534 9.25398, 21.8175 9.07421, 21.5113 8.98375, 21.1334 8.98318, 20.7813 8.98375, 20.4258 9.07707, 20.0674 9.26314, 19.709 9.44978, 19.3884 9.70454, 19.105 10.0274, 18.7529 10.419, 18.4838 10.845, 18.2983 11.3059, 18.1128 11.7673, 17.9571 12.2448, 17.8312 12.7388, 17.7058 13.2278, 17.6147 13.6984, 17.5575 14.1495, 17.5449 14.2663, 17.5386 14.3819, 17.5386 14.4976, 17.5386 14.8216, 17.5924 15.1331, 17.6995 15.4319, 17.8191 15.7377, 18.0046 15.9838, 18.256 16.1699, 18.5079 16.3565, 18.8096 16.4493, 19.1617 16.4487, 19.8727 16.4493, 20.5569 16.309, 21.2141 16.0279, 21.8714 15.7474, 22.4736 15.3621, 23.0204 14.8732 Z" stroke="none" fill="#000000" />
			<rect />
		</svg>
	</g>
	<path d="M -221.055 105.124 L 221.055 -105.124" fill="none" stroke="#000000" stroke-width="2.9333334" stroke-linecap="round" stroke-linejoin="round" transform="matrix(0.454545 0 0 0.454545 142.697 191.229)" />
	<path d="M -326.099 253.406 L 326.099 253.406" fill="none" stroke="#000000" stroke-width="2.20000005" stroke-linecap="round" stroke-linejoin="round" marker-end="url(#CustomMarker-01)" transform="matrix(0.454545 0 -0 0.454545 177.542 123.829)" />
	<path d="M -326.099 253.406 L -326.099 -253.406" fill="none" stroke="#000000" stroke-width="2.20000005" stroke-linecap="round" stroke-linejoin="round" marker-end="url(#CustomMarker-02)" transform="matrix(0.454545 0 -0 0.454545 177.542 123.829)" />
	<path d="M -261.5 197.5 C -83.5 202.5, 127.5 167.5, 261.5 -202.5" fill="none" stroke="#000000" stroke-width="3.66666675" stroke-linecap="round" stroke-linejoin="round" transform="matrix(0.454545 0 -0 0.454545 173.606 109.11)" />
	<g transform="matrix(1 0 -0 1 335.184 229.407)">
		<svg width="27.0562763" height="27.0428486">
			<defs />
			<path d="M 7.82261 8.48502 C 7.76373 8.72106, 7.6435 8.89772, 7.46291 9.0155, 7.28233 9.13327, 7.10076 9.19215, 6.91723 9.19166, 6.72879 9.19215, 6.57225 9.1318, 6.4481 9.01108, 6.35682 8.92275, 6.30824 8.80743, 6.30235 8.66561, 6.30235 8.60869, 6.31315 8.53508, 6.33474 8.44577, 6.39412 8.24751, 6.48588 8.09686, 6.60955 7.99479, 6.7337 7.89272, 6.82007 7.83384, 6.86865 7.81764, 6.76658 7.73962, 6.55606 7.70036, 6.23758 7.69987, 5.95738 7.70036, 5.70662 7.84561, 5.48579 8.13612, 5.26497 8.42663, 5.10008 8.77602, 4.99212 9.18381 L 4.24819 12.0575 C 4.17262 12.346, 4.11618 12.6208, 4.0784 12.8819, 4.05681 12.9712, 4.04601 13.0497, 4.04601 13.1174, 4.04601 13.2804, 4.073 13.4345, 4.12698 13.5807, 4.18096 13.7382, 4.26193 13.8638, 4.36989 13.9581, 4.47785 14.0523, 4.61525 14.0994, 4.78209 14.0989, 4.99801 14.0994, 5.20559 14.0434, 5.40482 13.9306, 5.60455 13.8182, 5.78808 13.6666, 5.95492 13.4752, 6.12177 13.2843, 6.26997 13.062, 6.39952 12.8078, 6.52907 12.5541, 6.63114 12.2935, 6.70671 12.0261, 6.7391 11.8906, 6.83086 11.8224, 6.98151 11.8219 L 7.1675 11.8219 C 7.30784 11.8224, 7.37802 11.8749, 7.37802 11.979, 7.37802 12.0109, 7.37017 12.0398, 7.35397 12.0653, 7.2784 12.3799, 7.15572 12.69, 6.98593 12.9962, 6.81614 13.3024, 6.61838 13.5733, 6.39167 13.8089, 6.16495 14.0444, 5.90781 14.2383, 5.61927 14.3894, 5.33072 14.5415, 5.02206 14.6171, 4.69327 14.6171, 4.35909 14.6171, 4.07055 14.5454, 3.82813 14.4012, 3.58571 14.2579, 3.38844 14.0704, 3.2373 13.8398, 3.18921 13.7829, 3.15142 13.724, 3.12443 13.6636, 3.09744 13.6038, 3.0891 13.5944, 3.0999 13.6356, 2.97084 13.8506, 2.76621 14.068, 2.48551 14.2878, 2.20531 14.5077, 1.88192 14.6171, 1.51486 14.6171, 1.31023 14.6171, 1.10805 14.5911, 0.908331 14.5386, 0.709097 14.4866, 0.534891 14.4056, 0.386693 14.2957, 0.238494 14.1857, 0.12661 14.0523, 0.0510383 13.8948, 0.0137434 13.801, -0.00490405 13.699, -0.00539478 13.5885, -0.00490405 13.5105, 0.00589184 13.4187, 0.0269929 13.3137, 0.0863704 13.0787, 0.207579 12.902, 0.391109 12.7842, 0.574639 12.6665, 0.757679 12.6076, 0.940718 12.6071, 1.12965 12.6076, 1.29159 12.6679, 1.42604 12.7877, 1.51781 12.877, 1.56345 12.9923, 1.56345 13.1331, 1.56345 13.2068, 1.55265 13.2804, 1.53106 13.353, 1.48297 13.5365, 1.39513 13.6847, 1.26852 13.7971, 1.14191 13.91, 1.05113 13.9713, 0.997152 13.9811, 1.09971 14.0655, 1.30729 14.1048, 1.61988 14.0989, 1.90057 14.0994, 2.15378 13.9531, 2.38001 13.6597, 2.60672 13.3667, 2.77111 13.0159, 2.87367 12.6071 L 3.62546 9.71772 C 3.70103 9.44586, 3.76041 9.17891, 3.80359 8.91686, 3.81439 8.83344, 3.81979 8.75492, 3.81979 8.68131, 3.81979 8.51937, 3.79574 8.36774, 3.74667 8.22592, 3.69318 8.06938, 3.60976 7.94278, 3.4964 7.84561, 3.38304 7.74894, 3.2427 7.70036, 3.07585 7.69987, 2.85993 7.70036, 2.65089 7.75679, 2.44871 7.86917, 2.24653 7.98203, 2.06202 8.13219, 1.89517 8.32063, 1.72833 8.50907, 1.58013 8.72793, 1.45058 8.97624, 1.32103 9.22503, 1.22681 9.48806, 1.16694 9.76483, 1.10805 9.90665, 1.00844 9.97976, 0.868091 9.98467 L 0.689959 9.98467 C 0.560899 9.98516, 0.496124 9.9199, 0.496124 9.78838 L 0.496124 9.73342 C 0.577093 9.40954, 0.701246 9.09401, 0.868091 8.7878, 1.03494 8.48159, 1.23466 8.21071, 1.46628 7.97516, 1.69839 7.73962, 1.9575 7.54725, 2.2431 7.39807, 2.5287 7.24889, 2.83883 7.1743, 3.17252 7.17381, 3.4964 7.1743, 3.782 7.24497, 4.02982 7.3863, 4.27812 7.52762, 4.4803 7.71606, 4.63635 7.95112, 4.66874 8.00902, 4.69867 8.07085, 4.72566 8.13612, 4.75265 8.20188, 4.7605 8.21856, 4.74971 8.18666, 4.88466 7.95701, 5.09223 7.73078, 5.37243 7.508, 5.65313 7.2857, 5.97357 7.1743, 6.33474 7.17381, 6.53986 7.1743, 6.74302 7.19933, 6.9452 7.24889, 7.14738 7.29895, 7.32306 7.37844, 7.47126 7.48837, 7.61945 7.59829, 7.72888 7.73422, 7.79857 7.89616, 7.83635 7.99087, 7.855 8.09833, 7.855 8.21807, 7.855 8.29708, 7.8442 8.3859, 7.82261 8.48502 Z" stroke="none" fill="#000000" />
			<rect />
		</svg>
	</g>
	<g transform="matrix(1 0 -0 1 10.4837 13.8744)">
		<svg width="27.0562763" height="36.0428467">
			<defs />
			<path d="M 5.63988 14.3737 C 5.52701 14.8134, 5.34888 15.2334, 5.10646 15.6339, 4.86405 16.0343, 4.57795 16.3906, 4.24917 16.7017, 3.92039 17.0133, 3.55136 17.266, 3.14161 17.4594, 2.73186 17.6532, 2.30591 17.7499, 1.86377 17.7499, 1.59976 17.7499, 1.35734 17.7018, 1.13652 17.6046, 0.915692 17.5079, 0.735106 17.3769, 0.594759 17.212, 0.454413 17.0472, 0.360194 16.8523, 0.311612 16.6271, 0.290021 16.528, 0.279225 16.4259, 0.279225 16.3209, 0.279225 16.185, 0.295419 16.0461, 0.327806 15.9048, 0.387184 15.6692, 0.508392 15.4925, 0.691432 15.3748, 0.874962 15.257, 1.05555 15.1981, 1.23319 15.1981, 1.42212 15.1981, 1.58111 15.2585, 1.71017 15.3787, 1.80194 15.468, 1.84757 15.5828, 1.84757 15.7242, 1.84757 15.7821, 1.83678 15.8527, 1.81519 15.9362, 1.7563 16.1717, 1.63509 16.3484, 1.45156 16.4661, 1.26852 16.5839, 1.12278 16.6428, 1.01482 16.6428, 1.04721 16.7841, 1.14829 16.9166, 1.31808 17.0393, 1.48787 17.1625, 1.70526 17.2238, 1.96927 17.2238, 2.26027 17.2238, 2.53262 17.1453, 2.78584 16.9883, 3.03905 16.8312, 3.27116 16.6207, 3.48119 16.3562, 3.69122 16.0922, 3.87573 15.786, 4.03472 15.4376, 4.19372 15.0897, 4.3218 14.7246, 4.41896 14.3423 L 4.46754 14.1539 C 4.38706 14.2275, 4.21727 14.3232, 3.95817 14.4404, 3.69956 14.5582, 3.41641 14.6171, 3.10922 14.6171, 2.74265 14.6171, 2.41534 14.5494, 2.1268 14.413, 1.83825 14.2775, 1.61056 14.068, 1.44371 13.7848, 1.28177 13.4816, 1.20375 13.1469, 1.20914 12.7798 L 1.20914 12.717 C 1.21994 12.3352, 1.26852 11.9559, 1.3544 11.5785, 1.44077 11.2179, 1.56639 10.8204, 1.73078 10.3856, 1.89517 9.9513, 2.0527 9.52977, 2.20335 9.121, 2.36529 8.6872, 2.44626 8.33094, 2.44626 8.05319, 2.44626 7.81813, 2.34664 7.70036, 2.14691 7.69987, 1.96388 7.70036, 1.79801 7.75287, 1.64981 7.85739, 1.50161 7.9624, 1.36716 8.10766, 1.24546 8.29315, 1.12425 8.47914, 1.01531 8.69898, 0.918146 8.95268, 0.820982 9.20688, 0.740013 9.47727, 0.675238 9.76483, 0.616351 9.90665, 0.516734 9.97976, 0.376388 9.98467 L 0.190404 9.98467 C 0.0608531 9.98516, -0.00392231 9.9199, -0.00392231 9.78838 L -0.00392231 9.73342 C 0.071649 9.44586, 0.171756 9.15192, 0.295419 8.85061, 0.419571 8.5498, 0.576112 8.27647, 0.764549 8.03012, 0.952987 7.78427, 1.1689 7.58013, 1.41132 7.4177, 1.65374 7.25576, 1.93149 7.1743, 2.24408 7.17381, 2.51398 7.1743, 2.74412 7.23221, 2.93551 7.34704, 3.12689 7.46236, 3.27214 7.61546, 3.37176 7.80635, 3.47187 7.99774, 3.52683 8.21316, 3.53762 8.45362 L 3.53762 8.50858 C 3.53762 8.73431, 3.49199 8.96691, 3.40022 9.20737, 3.24417 9.61614, 3.0891 10.0337, 2.93551 10.4602, 2.78191 10.8871, 2.66217 11.2704, 2.57581 11.6104, 2.48944 11.951, 2.43006 12.2881, 2.39767 12.6228, 2.37608 12.7121, 2.36283 12.8093, 2.35694 12.9133, 2.35694 13.1179, 2.39228 13.3196, 2.46245 13.5179, 2.51103 13.6965, 2.59985 13.8378, 2.7294 13.9424, 2.85895 14.0474, 3.01255 14.0994, 3.19019 14.0989, 3.53517 14.0994, 3.83696 13.9973, 4.09557 13.7932, 4.35468 13.589, 4.5809 13.3221, 4.77473 12.9918 L 6.07662 7.92756 C 6.1252 7.73422, 6.22335 7.59191, 6.37155 7.50014, 6.51974 7.40887, 6.66941 7.36274, 6.82007 7.36225, 6.97661 7.36274, 7.10616 7.40985, 7.20823 7.50358, 7.27889 7.57228, 7.31373 7.66355, 7.31373 7.77838, 7.31373 7.83629, 7.30834 7.89665, 7.29754 7.95897 Z" stroke="none" fill="#000000" />
			<rect />
		</svg>
	</g>
	<g transform="matrix(1 0 -0 1 8.77374 227.015)">
		<svg width="36.0612984" height="41.9571304">
			<defs />
			<path d="M 10.5125 8.92471 C 10.3187 9.68435, 10.0046 10.417, 9.57081 11.1236, 9.13701 11.8303, 8.59084 12.4766, 7.93327 13.0625, 7.34048 13.5915, 6.69223 14.012, 5.98854 14.3232, 5.28533 14.6343, 4.58065 14.7898, 3.87401 14.7898, 3.16296 14.7898, 2.53091 14.6333, 1.97835 14.3192, 1.4258 14.0052, 0.985129 13.5812, 0.656345 13.0468, 0.295173 12.456, 0.0875971 11.8013, 0.0336176 11.0839, 0.0120258 10.9116, 0.00123 10.7389, 0.00123 10.5657, 0.00123 10.0269, 0.0714033 9.46941, 0.21175 8.8933, 0.416872 8.12434, 0.733388 7.37746, 1.16179 6.65217, 1.59019 5.92738, 2.13882 5.27177, 2.80718 4.68487, 3.39997 4.15685, 4.04822 3.73139, 4.75143 3.40948, 5.45512 3.08757, 6.1652 2.92661, 6.88214 2.92612, 7.59369 2.92661, 8.22329 3.08904, 8.76995 3.41341, 9.31711 3.73826, 9.75483 4.16716, 10.0836 4.70057, 10.4448 5.29238, 10.6578 5.95191, 10.7225 6.67916, 10.7333 6.85779, 10.7387 7.03298, 10.7387 7.20522, 10.7387 7.76562, 10.6637 8.33879, 10.5125 8.92471 Z M 8.87889 4.96752 C 8.70125 4.52833, 8.43479 4.17108, 8.07901 3.89628, 7.72324 3.62147, 7.2865 3.48407, 6.76879 3.48358, 6.25696 3.48407, 5.74759 3.62442, 5.24068 3.90413, 4.73425 4.18433, 4.28131 4.54648, 3.88236 4.99108, 3.38133 5.53087, 2.98531 6.11582, 2.69383 6.74639, 2.40283 7.37746, 2.1766 8.01687, 2.01466 8.66561, 1.82623 9.37274, 1.70993 10.0612, 1.66674 10.7306, 1.65595 10.8567, 1.65055 10.9823, 1.65055 11.1074, 1.65055 11.6315, 1.73692 12.1443, 1.90965 12.6464, 2.0765 13.0919, 2.33265 13.4649, 2.67763 13.7657, 3.02261 14.067, 3.45395 14.2172, 3.97118 14.2167, 4.50508 14.2172, 5.02623 14.064, 5.5356 13.7578, 6.04497 13.4516, 6.50183 13.0733, 6.90619 12.6228, 7.4293 12.0163, 7.83611 11.3749, 8.12711 10.6997, 8.41859 10.0244, 8.65561 9.33594, 8.83865 8.6342, 9.00599 7.98056, 9.111 7.33673, 9.15419 6.70272 L 9.15419 6.42791 C 9.15419 5.9048, 9.06242 5.41801, 8.87889 4.96752 Z" stroke="none" fill="#000000" />
			<rect />
		</svg>
	</g>
	<g transform="matrix(1 0 -0 1 67.2625 172.746)">
		<svg width="66.0351563" height="45.0428467">
			<defs />
			<path d="M 15.628 3.69557 C 15.5957 3.85849, 15.496 3.93946, 15.3287 3.93897, 15.0755 3.93946, 14.836 3.94486, 14.6093 3.95516, 14.3831 3.96596, 14.2187 3.99344, 14.1161 4.0376, 14.0141 4.08226, 13.9331 4.21966, 13.8732 4.44932 L 11.6012 13.298 C 11.5693 13.4138, 11.5531 13.5051, 11.5531 13.5728, 11.5531 13.6361, 11.5693 13.6754, 11.6012 13.6906, 11.6767 13.7382, 11.824 13.7657, 12.0423 13.7735, 12.2607 13.7814, 12.4963 13.7853, 12.7495 13.7848, 12.9006 13.7853, 12.9757 13.8481, 12.9757 13.9733, 12.9757 14.0052, 12.9708 14.039, 12.96 14.0753 L 12.9276 14.1931 C 12.9114 14.2618, 12.8751 14.3192, 12.8182 14.3658, 12.7617 14.413, 12.6955 14.4365, 12.6199 14.4365, 11.979 14.4051, 11.3269 14.3894, 10.6634 14.3894, 10.0009 14.3894, 9.33257 14.4051, 8.65831 14.4365, 8.51846 14.4365, 8.44829 14.3688, 8.44829 14.2324 L 8.44829 14.1696, 8.48018 14.0361 C 8.52337 13.8638, 8.62887 13.7799, 8.79572 13.7848, 9.04893 13.7853, 9.28644 13.7814, 9.50726 13.7735, 9.72858 13.7657, 9.89297 13.7382, 10.0004 13.6906, 10.0976 13.6386, 10.1761 13.4973, 10.235 13.2666 L 12.5071 4.49643, 6.49963 14.2167 C 6.41915 14.3634, 6.29499 14.4365, 6.12766 14.4365 L 6.04669 14.4365 C 5.87984 14.4365, 5.77974 14.3531, 5.74735 14.1853 L 4.76934 4.5828, 2.64255 12.8662 C 2.61065 12.9609, 2.59446 13.0605, 2.59446 13.1646, 2.59446 13.1911, 2.59985 13.22, 2.61065 13.2509, 2.62145 13.377, 2.66414 13.4767, 2.73971 13.5493, 2.83687 13.644, 2.96642 13.7068, 3.12787 13.7382, 3.28981 13.7696, 3.47285 13.7853, 3.67748 13.7848, 3.82862 13.7853, 3.90419 13.8481, 3.90419 13.9733, 3.90419 14.0052, 3.8988 14.039, 3.888 14.0753 L 3.85561 14.1931 C 3.83942 14.2618, 3.80311 14.3192, 3.74618 14.3658, 3.68975 14.413, 3.62105 14.4365, 3.54008 14.4365, 3.00126 14.4051, 2.45705 14.3894, 1.90695 14.3894, 1.35734 14.3894, 0.799392 14.4051, 0.233098 14.4365, 0.15262 14.4365, 0.0932424 14.413, 0.0554568 14.3658, 0.0181619 14.3295, -0.000976309 14.2903, -0.000976309 14.2481, -0.000976309 14.2172, 0.00442164 14.1857, 0.0152175 14.1539 L 0.0471145 14.0361 C 0.0902981 13.8638, 0.195803 13.7799, 0.362649 13.7848, 0.567771 13.7853, 0.760134 13.7696, 0.94072 13.7382, 1.12131 13.7068, 1.29011 13.6415, 1.44616 13.5414, 1.57032 13.4634, 1.67141 13.3604, 1.74943 13.2318, 1.82795 13.1037, 1.88585 12.9663, 1.92315 12.8191 L 4.09018 4.41791 C 4.12257 4.30309, 4.13876 4.21426, 4.13876 4.15096, 4.13876 4.08864, 4.12551 4.05184, 4.09803 4.04104, 4.02295 3.99442, 3.87622 3.96596, 3.65785 3.95516, 3.43948 3.94486, 3.20344 3.93946, 2.95023 3.93897, 2.80498 3.93946, 2.72646 3.8688, 2.71566 3.72698 L 2.71566 3.67202, 2.74805 3.53069 C 2.80743 3.37415, 2.91244 3.29563, 3.0631 3.29514 L 5.68306 3.29514 C 5.8558 3.29563, 5.95247 3.37955, 5.97406 3.54639 L 6.89564 12.5207, 12.4585 3.51499 C 12.5394 3.36875, 12.6636 3.29563, 12.8304 3.29514 L 15.4499 3.29514 C 15.5255 3.29563, 15.5903 3.32164, 15.6442 3.37366, 15.6658 3.41586, 15.6766 3.45512, 15.6766 3.49143, 15.6766 3.52333, 15.6688 3.55228, 15.6521 3.5778 Z" stroke="none" fill="#000000" />
			<path d="M 2.44468 -0.319828 C 2.44468 0.102547, 2.41528 0.522449, 2.35647 0.940152, 2.29766 1.35785, 2.15201 1.75, 1.91953 2.11604, 1.75355 2.38315, 1.5315 2.58816, 1.25395 2.7316, 0.976399 2.87533, 0.674389 2.94705, 0.348196 2.94705, 0.0343688 2.94705, -0.262146 2.87533, -0.541347 2.7316, -0.820549 2.58816, -1.04342 2.38315, -1.2094 2.11604, -1.44161 1.75, -1.58725 1.35785, -1.64606 0.940152, -1.70487 0.522449, -1.73455 0.102547, -1.73455 -0.319828, -1.73455 -0.747424, -1.70487 -1.17475, -1.64606 -1.60124, -1.58725 -2.02774, -1.44161 -2.42703, -1.2094 -2.79967, -1.04342 -3.06897, -0.821373 -3.27865, -0.54382 -3.42814, -0.265993 -3.57764, 0.0313458 -3.65238, 0.348196 -3.65266, 0.671366 -3.65238, 0.972277 -3.57764, 1.25148 -3.42814, 1.53068 -3.27865, 1.75355 -3.06897, 1.91953 -2.79967, 2.15201 -2.42703, 2.29766 -2.02774, 2.35647 -1.60124, 2.41528 -1.17475, 2.44468 -0.747424, 2.44468 -0.319828 Z M 1.54799 -0.473718 C 1.54799 -0.658112, 1.54662 -0.852949, 1.5436 -1.05823, 1.54085 -1.26323, 1.53315 -1.46411, 1.52106 -1.6606, 1.50897 -1.85681, 1.48726 -2.0423, 1.45538 -2.2168, 1.42378 -2.39103, 1.38531 -2.53997, 1.33997 -2.66336, 1.24928 -2.86232, 1.11655 -3.02583, 0.941499 -3.15334, 0.766448 -3.28085, 0.568589 -3.3446, 0.348196 -3.34488, 0.133848 -3.3446, -0.0598893 -3.28002, -0.233566 -3.15114, -0.406968 -3.02198, -0.539149 -2.85957, -0.629834 -2.66336, -0.674902 -2.53997, -0.713375 -2.39103, -0.745252 -2.2168, -0.776855 -2.0423, -0.798839 -1.85681, -0.81093 -1.6606, -0.823022 -1.46411, -0.830442 -1.26323, -0.833465 -1.05823, -0.836487 -0.852949, -0.838136 -0.658112, -0.838136 -0.473718, -0.838136 -0.268164, -0.836487 -0.0518932, -0.833465 0.175096, -0.830442 0.402359, -0.823022 0.622203, -0.81093 0.834627, -0.798839 1.04733, -0.776855 1.24876, -0.745252 1.4392, -0.713375 1.62991, -0.674902 1.78957, -0.629834 1.91818, -0.545194 2.13253, -0.414387 2.3084, -0.237963 2.44608, -0.0615381 2.58403, 0.133848 2.65273, 0.348196 2.65246, 0.571612 2.65273, 0.77167 2.58403, 0.948094 2.44608, 1.12479 2.3084, 1.25533 2.13253, 1.33997 1.91818, 1.38531 1.78957, 1.42378 1.62991, 1.45538 1.4392, 1.48726 1.24876, 1.50897 1.04733, 1.52106 0.834627, 1.53315 0.622203, 1.54085 0.402359, 1.5436 0.175096, 1.54662 -0.0518932, 1.54799 -0.268164, 1.54799 -0.473718 Z" stroke="none" fill="#000000" transform="matrix(1.12 0 0 1 17.4467 13.9768)" />
			<rect />
		</svg>
	</g>
	<ellipse cx="912.01798105239868" cy="666.54245615005493" rx="5.7750000953674316" ry="5.7750000953674316" stroke="none" fill="#000000" transform="matrix(0.454545 0 0 0.454545 -337.273 -104.091)" />
	<ellipse cx="1108.1421875953674" cy="624.87619638442993" rx="5.7750000953674316" ry="5.7750000953674316" stroke="none" fill="#000000" transform="matrix(0.454545 0 0 0.454545 -337.273 -104.091)" />
	<ellipse cx="1284.2516846656799" cy="469.04166269302368" rx="5.7750000953674316" ry="5.7750000953674316" stroke="none" fill="#000000" transform="matrix(0.454545 0 0 0.454545 -337.273 -104.091)" />
	<g transform="matrix(1 0 -0 1 149.616 155.497)">
		<svg width="50.9839096" height="38.9999886">
			<defs />
			<path d="M 15.6266 3.69557 C 15.5947 3.85849, 15.4951 3.93946, 15.3277 3.93897, 15.0745 3.93946, 14.8346 3.94486, 14.6078 3.95516, 14.3816 3.96596, 14.2172 3.99344, 14.1147 4.0376, 14.0126 4.08226, 13.9316 4.21966, 13.8718 4.44932 L 11.5992 13.298 C 11.5668 13.4138, 11.5506 13.5051, 11.5506 13.5728, 11.5506 13.6361, 11.5668 13.6754, 11.5992 13.6906, 11.6748 13.7382, 11.822 13.7657, 12.0404 13.7735, 12.2587 13.7814, 12.4948 13.7853, 12.748 13.7848, 12.8991 13.7853, 12.9742 13.8481, 12.9742 13.9733, 12.9742 14.0052, 12.9688 14.039, 12.958 14.0753 L 12.9256 14.1931 C 12.9099 14.2618, 12.8736 14.3192, 12.8167 14.3658, 12.7603 14.413, 12.694 14.4365, 12.6184 14.4365, 11.9771 14.4051, 11.3249 14.3894, 10.6614 14.3894, 9.99848 14.3894, 9.33011 14.4051, 8.65586 14.4365, 8.51552 14.4365, 8.44534 14.3688, 8.44534 14.2324 L 8.44534 14.1696, 8.47773 14.0361 C 8.52091 13.8638, 8.62642 13.7799, 8.79326 13.7848, 9.04648 13.7853, 9.28399 13.7814, 9.50481 13.7735, 9.72613 13.7657, 9.89052 13.7382, 9.99799 13.6906, 10.0952 13.6386, 10.1737 13.4973, 10.2326 13.2666 L 12.5051 4.49643, 6.49619 14.2167 C 6.41571 14.3634, 6.29156 14.4365, 6.12422 14.4365 L 6.04375 14.4365 C 5.8769 14.4365, 5.77679 14.3531, 5.7444 14.1853 L 4.7659 4.5828, 2.63911 12.8662 C 2.60672 12.9609, 2.59053 13.0605, 2.59053 13.1646, 2.59053 13.1911, 2.59593 13.22, 2.60672 13.2509, 2.61752 13.377, 2.6607 13.4767, 2.73578 13.5493, 2.83295 13.644, 2.9625 13.7068, 3.12444 13.7382, 3.28638 13.7696, 3.46942 13.7853, 3.67405 13.7848, 3.82519 13.7853, 3.90027 13.8481, 3.90027 13.9733, 3.90027 14.0052, 3.89487 14.039, 3.88408 14.0753 L 3.85218 14.1931 C 3.83598 14.2618, 3.79967 14.3192, 3.74275 14.3658, 3.68631 14.413, 3.61761 14.4365, 3.53664 14.4365, 2.99783 14.4051, 2.45313 14.3894, 1.90303 14.3894, 1.35342 14.3894, 0.795467 14.4051, 0.229174 14.4365, 0.148204 14.4365, 0.0888269 14.413, 0.0510413 14.3658, 0.0137464 14.3295, -0.00539182 14.2903, -0.00539182 14.2481, -0.00539182 14.2172, 6.1281e-006 14.1857, 0.010802 14.1539 L 0.042699 14.0361 C 0.0858826 13.8638, 0.191388 13.7799, 0.358234 13.7848, 0.563356 13.7853, 0.75621 13.7696, 0.936796 13.7382, 1.11738 13.7068, 1.28619 13.6415, 1.44224 13.5414, 1.56639 13.4634, 1.66748 13.3604, 1.74551 13.2318, 1.82353 13.1037, 1.88144 12.9663, 1.91922 12.8191 L 4.08625 4.41791 C 4.11864 4.30309, 4.13483 4.21426, 4.13483 4.15096, 4.13483 4.08864, 4.12159 4.05184, 4.0946 4.04104, 4.01902 3.99442, 3.8723 3.96596, 3.65393 3.95516, 3.43556 3.94486, 3.19952 3.93946, 2.9463 3.93897, 2.80105 3.93946, 2.72254 3.8688, 2.71174 3.72698 L 2.71174 3.67202, 2.74413 3.53069 C 2.8035 3.37415, 2.90852 3.29563, 3.05917 3.29514 L 5.67963 3.29514 C 5.85236 3.29563, 5.94904 3.37955, 5.97063 3.54639 L 6.8927 12.5207, 12.4565 3.51499 C 12.5375 3.36875, 12.6616 3.29563, 12.8285 3.29514 L 15.4489 3.29514 C 15.5245 3.29563, 15.5893 3.32164, 15.6428 3.37366, 15.6644 3.41586, 15.6752 3.45512, 15.6752 3.49143, 15.6752 3.52333, 15.6673 3.55228, 15.6511 3.5778 Z" stroke="none" fill="#000000" />
			<rect />
		</svg>
	</g>
	<g transform="matrix(1 0 -0 1 221.37 94.7448)">
		<svg width="62.9477272" height="38.9999886">
			<defs />
			<path d="M 15.6329 3.69557 C 15.601 3.85849, 15.5013 3.93946, 15.334 3.93897, 15.0808 3.93946, 14.8408 3.94486, 14.6141 3.95516, 14.3879 3.96596, 14.2235 3.99344, 14.1209 4.0376, 14.0189 4.08226, 13.9379 4.21966, 13.878 4.44932 L 11.6055 13.298 C 11.5731 13.4138, 11.5569 13.5051, 11.5569 13.5728, 11.5569 13.6361, 11.5731 13.6754, 11.6055 13.6906, 11.6811 13.7382, 11.8283 13.7657, 12.0467 13.7735, 12.265 13.7814, 12.5011 13.7853, 12.7543 13.7848, 12.9054 13.7853, 12.9805 13.8481, 12.9805 13.9733, 12.9805 14.0052, 12.9751 14.039, 12.9643 14.0753 L 12.9319 14.1931 C 12.9162 14.2618, 12.8799 14.3192, 12.823 14.3658, 12.7666 14.413, 12.7003 14.4365, 12.6247 14.4365, 11.9834 14.4051, 11.3312 14.3894, 10.6677 14.3894, 10.0048 14.3894, 9.3364 14.4051, 8.66215 14.4365, 8.5218 14.4365, 8.45163 14.3688, 8.45163 14.2324 L 8.45163 14.1696, 8.48401 14.0361 C 8.5272 13.8638, 8.6327 13.7799, 8.79955 13.7848, 9.05276 13.7853, 9.29027 13.7814, 9.5111 13.7735, 9.73241 13.7657, 9.8968 13.7382, 10.0043 13.6906, 10.1014 13.6386, 10.18 13.4973, 10.2388 13.2666 L 12.5114 4.49643, 6.50248 14.2167 C 6.422 14.3634, 6.29785 14.4365, 6.13051 14.4365 L 6.05003 14.4365 C 5.88318 14.4365, 5.78308 14.3531, 5.75069 14.1853 L 4.77219 4.5828, 2.6454 12.8662 C 2.61301 12.9609, 2.59682 13.0605, 2.59682 13.1646, 2.59682 13.1911, 2.60221 13.22, 2.61301 13.2509, 2.62381 13.377, 2.66699 13.4767, 2.74207 13.5493, 2.83923 13.644, 2.96878 13.7068, 3.13072 13.7382, 3.29266 13.7696, 3.4757 13.7853, 3.68033 13.7848, 3.83147 13.7853, 3.90655 13.8481, 3.90655 13.9733, 3.90655 14.0052, 3.90116 14.039, 3.89036 14.0753 L 3.85846 14.1931 C 3.84227 14.2618, 3.80596 14.3192, 3.74903 14.3658, 3.6926 14.413, 3.6239 14.4365, 3.54293 14.4365, 3.00412 14.4051, 2.45941 14.3894, 1.90931 14.3894, 1.3597 14.3894, 0.801752 14.4051, 0.235458 14.4365, 0.154489 14.4365, 0.0951118 14.413, 0.0573261 14.3658, 0.0200312 14.3295, 0.000893024 14.2903, 0.000893024 14.2481, 0.000893024 14.2172, 0.00629097 14.1857, 0.0170869 14.1539 L 0.0489838 14.0361 C 0.0921674 13.8638, 0.197673 13.7799, 0.364518 13.7848, 0.569641 13.7853, 0.762495 13.7696, 0.94308 13.7382, 1.12367 13.7068, 1.29247 13.6415, 1.44852 13.5414, 1.57268 13.4634, 1.67377 13.3604, 1.75179 13.2318, 1.82982 13.1037, 1.88772 12.9663, 1.92551 12.8191 L 4.09254 4.41791 C 4.12493 4.30309, 4.14112 4.21426, 4.14112 4.15096, 4.14112 4.08864, 4.12787 4.05184, 4.10088 4.04104, 4.02531 3.99442, 3.87858 3.96596, 3.66021 3.95516, 3.44184 3.94486, 3.2058 3.93946, 2.95259 3.93897, 2.80734 3.93946, 2.72882 3.8688, 2.71802 3.72698 L 2.71802 3.67202, 2.75041 3.53069 C 2.80979 3.37415, 2.9148 3.29563, 3.06546 3.29514 L 5.68591 3.29514 C 5.85865 3.29563, 5.95532 3.37955, 5.97691 3.54639 L 6.89898 12.5207, 12.4628 3.51499 C 12.5438 3.36875, 12.6679 3.29563, 12.8348 3.29514 L 15.4552 3.29514 C 15.5308 3.29563, 15.5956 3.32164, 15.6491 3.37366, 15.6706 3.41586, 15.6814 3.45512, 15.6814 3.49143, 15.6814 3.52333, 15.6736 3.55228, 15.6574 3.5778 Z" stroke="none" fill="#000000" />
			<path d="M 19.6881 4.87331 C 19.5266 5.48082, 19.2558 6.05693, 18.8759 6.60114, 18.4961 7.14584, 18.0231 7.62724, 17.4568 8.04534, 17.3974 8.07184, 17.3518 8.08508, 17.3194 8.08459 L 17.3032 8.1003 C 17.2222 8.10079, 17.1604 8.07184, 17.1172 8.01393 L 17.101 7.98252 C 17.074 7.9413, 17.0603 7.90205, 17.0603 7.86475, 17.0603 7.79212, 17.0981 7.72146, 17.1736 7.65276, 17.6643 7.27098, 18.0834 6.84061, 18.4309 6.36167, 18.7788 5.88272, 19.0173 5.37384, 19.1463 4.83405, 19.1679 4.78743, 19.1817 4.74179, 19.1871 4.69714, 19.1925 4.65297, 19.1841 4.68781, 19.1625 4.80264, 19.1841 4.78203, 19.1223 4.8046, 18.9765 4.86987, 18.8313 4.93563, 18.6777 4.96801, 18.5157 4.96752, 18.187 4.96801, 17.9632 4.86349, 17.8444 4.65346, 17.7748 4.53863, 17.7394 4.4081, 17.7394 4.26088, 17.7394 4.18286, 17.7502 4.09894, 17.7718 4.00963, 17.8312 3.79568, 17.9647 3.59399, 18.1722 3.40555, 18.3798 3.21712, 18.637 3.1229, 18.9442 3.12241, 19.1763 3.1229, 19.3544 3.1808, 19.4781 3.29563, 19.6022 3.41095, 19.6886 3.55228, 19.7367 3.71913, 19.7691 3.85064, 19.7852 3.98657, 19.7852 4.12741 L 19.7852 4.28444 C 19.7637 4.49447, 19.7313 4.69076, 19.6881 4.87331 Z" stroke="none" fill="#000000" />
			<rect />
		</svg>
	</g>
	<path d="M -163.047 229.988 L 163.048 -229.987" fill="none" stroke="#000000" stroke-width="2.9333334" stroke-linecap="round" stroke-linejoin="round" marker-end="url(#CustomMarker-03)" transform="matrix(0.454545 0 0 0.454545 228.498 134.473)" />
	<path d="M 66.1943 -31.6085 C 70.9075 -21.7379, 73.3537 -10.9382, 73.3537 -4.209e-005" fill="none" stroke="#000000" stroke-width="2.20000005" stroke-linecap="round" stroke-linejoin="round" transform="matrix(0.454545 0 -0 0.454545 42.2168 239.013)" />
	<path d="M 0 0 L 131.52 -62.8021" fill="none" stroke="#000000" stroke-width="1.10000002" stroke-linecap="round" stroke-linejoin="round" stroke-dasharray="6.0555, 2.7445, 0.011, 3.289" transform="matrix(0.454545 0 -0 0.454545 42.2168 239.013)" />
	<path d="M 0 0 L 154.043 0" fill="none" stroke="#000000" stroke-width="1.10000002" stroke-linecap="round" stroke-linejoin="round" stroke-dasharray="6.0555, 2.7445, 0.011, 3.289" transform="matrix(0.454545 0 -0 0.454545 42.2168 239.013)" />
	<g transform="matrix(1 0 -0 1 87.3644 214.445)">
		<svg width="39.020092" height="32.9571342">
			<defs />
			<path d="M 11.024 9.57859 C 10.7978 10.4339, 10.4772 11.2589, 10.0616 12.0524, 9.6465 12.8465, 9.15586 13.5667, 8.58965 14.2136, 8.58965 14.5136, 8.59595 14.8039, 8.60854 15.0844, 8.62114 15.3655, 8.64977 15.6111, 8.69385 15.8218, 8.73793 16.0325, 8.79461 16.1899, 8.86331 16.2936, 8.93258 16.3978, 9.02361 16.4493, 9.13697 16.4487, 9.34479 16.4493, 9.54288 16.3668, 9.73181 16.202, 9.92074 16.0371, 10.0433 15.8384, 10.0994 15.606, 10.1371 15.4354, 10.2476 15.3501, 10.4297 15.3495 L 10.5431 15.3495 C 10.6879 15.3501, 10.7663 15.4233, 10.7789 15.5693 L 10.7789 15.6335 C 10.7348 15.8293, 10.6564 16.013, 10.5431 16.1836, 10.4297 16.3548, 10.2929 16.506, 10.1326 16.6371, 9.97226 16.7682, 9.79765 16.8701, 9.60872 16.9434, 9.42036 17.0166, 9.22227 17.0533, 9.01445 17.0533, 8.46713 17.0533, 8.05206 16.889, 7.76925 16.5592, 7.48643 16.2294, 7.30379 15.8842, 7.22193 15.5235, 6.67461 15.9701, 6.04885 16.3365, 5.34409 16.6233, 4.63991 16.9102, 3.90709 17.0533, 3.14566 17.0533, 2.59261 17.0533, 2.08938 16.9405, 1.63652 16.7149, 1.18367 16.4894, 0.825274 16.1653, 0.560775 15.7434, 0.277955 15.3346, 0.101622 14.8617, 0.0323482 14.3236, 0.00715774 14.1713, -0.00543743 14.0064, -0.00543743 13.8289, -0.00543743 13.4631, 0.0483785 13.0846, 0.154865 12.693, 0.306008 12.1257, 0.547035 11.5807, 0.8768 11.0585, 1.20714 10.5364, 1.61763 10.0647, 2.1077 9.64271, 2.58631 9.25226, 3.10386 8.94253, 3.66034 8.71353, 4.21682 8.48452, 4.77216 8.37002, 5.3252 8.36945, 5.85363 8.37002, 6.3208 8.46964, 6.72613 8.66773, 7.13204 8.86639, 7.47497 9.13375, 7.75493 9.46924, 8.03489 9.8053, 8.24386 10.1975, 8.3824 10.6463, 8.52095 11.0952, 8.58965 11.5669, 8.58965 12.061 L 8.58965 13.2701 C 8.92342 12.8373, 9.25663 12.2848, 9.58983 11.6127, 9.92303 10.9412, 10.1778 10.2542, 10.3541 9.55111, 10.3919 9.3805, 10.5024 9.29234, 10.6845 9.28547 L 10.7789 9.28547 C 10.9427 9.28604, 11.024 9.35932, 11.024 9.50531 L 11.024 9.57859 Z M 7.09884 14.8732 C 7.09311 14.8308, 7.08681 14.7672, 7.08052 14.6814, 7.07422 14.5961, 7.07078 14.5102, 7.07078 14.4243 L 7.07078 12.3633 C 7.07078 11.9179, 7.04101 11.4925, 6.98147 11.086, 6.92193 10.6801, 6.82403 10.3183, 6.68892 10.0005, 6.55381 9.68336, 6.36774 9.43432, 6.13187 9.25398, 5.89599 9.07421, 5.5897 8.98375, 5.21184 8.98318, 4.85975 8.98375, 4.50422 9.07707, 4.14583 9.26314, 3.78744 9.44978, 3.46683 9.70454, 3.18344 10.0274, 2.83135 10.419, 2.56227 10.845, 2.37678 11.3059, 2.19128 11.7673, 2.03556 12.2448, 1.90961 12.7388, 1.78423 13.2278, 1.6932 13.6984, 1.63595 14.1495, 1.62335 14.2663, 1.61706 14.3819, 1.61706 14.4976, 1.61706 14.8216, 1.67087 15.1331, 1.77793 15.4319, 1.89758 15.7377, 2.08308 15.9838, 2.33441 16.1699, 2.58631 16.3565, 2.88803 16.4493, 3.24012 16.4487, 3.95118 16.4493, 4.63533 16.309, 5.29257 16.0279, 5.94981 15.7474, 6.55209 15.3621, 7.09884 14.8732 Z" stroke="none" fill="#000000" />
			<rect />
		</svg>
	</g>
	<path d="M 26.7647 -37.5383 C 39.7475 -29.0757, 47.5154 -15.0236, 47.5154 -3.82574e-005" fill="none" stroke="#000000" stroke-width="2.20000005" stroke-linecap="round" stroke-linejoin="round" transform="matrix(0.454545 0 -0 0.454545 154.385 239.013)" />
	<path d="M 0 0 L 83.3762 -116.937" fill="none" stroke="#000000" stroke-width="1.10000002" stroke-linecap="round" stroke-linejoin="round" stroke-dasharray="6.0555, 2.7445, 0.011, 3.289" transform="matrix(0.454545 0 -0 0.454545 154.385 239.013)" />
	<path d="M 0 0 L 99.7823 0" fill="none" stroke="#000000" stroke-width="1.10000002" stroke-linecap="round" stroke-linejoin="round" stroke-dasharray="6.0555, 2.7445, 0.011, 3.289" transform="matrix(0.454545 0 -0 0.454545 154.385 239.013)" />
	<g transform="matrix(1 0 -0 1 183.606 214.445)">
		<svg width="189.018051" height="128.999969">
			<defs />
			<path d="M 11.024 9.57859 C 10.7978 10.4339, 10.4772 11.2589, 10.0616 12.0524, 9.6465 12.8465, 9.15586 13.5667, 8.58965 14.2136, 8.58965 14.5136, 8.59595 14.8039, 8.60854 15.0844, 8.62114 15.3655, 8.64977 15.6111, 8.69385 15.8218, 8.73793 16.0325, 8.79461 16.1899, 8.86331 16.2936, 8.93258 16.3978, 9.02361 16.4493, 9.13697 16.4487, 9.34479 16.4493, 9.54288 16.3668, 9.73181 16.202, 9.92074 16.0371, 10.0433 15.8384, 10.0994 15.606, 10.1371 15.4354, 10.2476 15.3501, 10.4297 15.3495 L 10.5431 15.3495 C 10.6879 15.3501, 10.7663 15.4233, 10.7789 15.5693 L 10.7789 15.6335 C 10.7348 15.8293, 10.6564 16.013, 10.5431 16.1836, 10.4297 16.3548, 10.2929 16.506, 10.1326 16.6371, 9.97226 16.7682, 9.79765 16.8701, 9.60872 16.9434, 9.42036 17.0166, 9.22227 17.0533, 9.01445 17.0533, 8.46713 17.0533, 8.05206 16.889, 7.76925 16.5592, 7.48643 16.2294, 7.30379 15.8842, 7.22193 15.5235, 6.67461 15.9701, 6.04885 16.3365, 5.34409 16.6233, 4.63991 16.9102, 3.90709 17.0533, 3.14566 17.0533, 2.59261 17.0533, 2.08938 16.9405, 1.63652 16.7149, 1.18367 16.4894, 0.825274 16.1653, 0.560775 15.7434, 0.277955 15.3346, 0.101622 14.8617, 0.0323482 14.3236, 0.00715774 14.1713, -0.00543743 14.0064, -0.00543743 13.8289, -0.00543743 13.4631, 0.0483785 13.0846, 0.154865 12.693, 0.306008 12.1257, 0.547035 11.5807, 0.8768 11.0585, 1.20714 10.5364, 1.61763 10.0647, 2.1077 9.64271, 2.58631 9.25226, 3.10386 8.94253, 3.66034 8.71353, 4.21682 8.48452, 4.77216 8.37002, 5.3252 8.36945, 5.85363 8.37002, 6.3208 8.46964, 6.72613 8.66773, 7.13204 8.86639, 7.47497 9.13375, 7.75493 9.46924, 8.03489 9.8053, 8.24386 10.1975, 8.3824 10.6463, 8.52095 11.0952, 8.58965 11.5669, 8.58965 12.061 L 8.58965 13.2701 C 8.92342 12.8373, 9.25663 12.2848, 9.58983 11.6127, 9.92303 10.9412, 10.1778 10.2542, 10.3541 9.55111, 10.3919 9.3805, 10.5024 9.29234, 10.6845 9.28547 L 10.7789 9.28547 C 10.9427 9.28604, 11.024 9.35932, 11.024 9.50531 L 11.024 9.57859 Z M 7.09884 14.8732 C 7.09311 14.8308, 7.08681 14.7672, 7.08052 14.6814, 7.07422 14.5961, 7.07078 14.5102, 7.07078 14.4243 L 7.07078 12.3633 C 7.07078 11.9179, 7.04101 11.4925, 6.98147 11.086, 6.92193 10.6801, 6.82403 10.3183, 6.68892 10.0005, 6.55381 9.68336, 6.36774 9.43432, 6.13187 9.25398, 5.89599 9.07421, 5.5897 8.98375, 5.21184 8.98318, 4.85975 8.98375, 4.50422 9.07707, 4.14583 9.26314, 3.78744 9.44978, 3.46683 9.70454, 3.18344 10.0274, 2.83135 10.419, 2.56227 10.845, 2.37678 11.3059, 2.19128 11.7673, 2.03556 12.2448, 1.90961 12.7388, 1.78423 13.2278, 1.6932 13.6984, 1.63595 14.1495, 1.62335 14.2663, 1.61706 14.3819, 1.61706 14.4976, 1.61706 14.8216, 1.67087 15.1331, 1.77793 15.4319, 1.89758 15.7377, 2.08308 15.9838, 2.33441 16.1699, 2.58631 16.3565, 2.88803 16.4493, 3.24012 16.4487, 3.95118 16.4493, 4.63533 16.309, 5.29257 16.0279, 5.94981 15.7474, 6.55209 15.3621, 7.09884 14.8732 Z" stroke="none" fill="#000000" />
			<polyline points="-6.566 0 6.566 0" fill="none" stroke="#000000" stroke-width="0.750400007" stroke-linecap="round" stroke-linejoin="round" transform="matrix(1 0 0 1 23.0358 11.2074)" />
			<polyline points="0 -6.566 0 6.566" fill="none" stroke="#000000" stroke-width="0.750400007" stroke-linecap="round" stroke-linejoin="round" transform="matrix(1 0 0 1 23.0358 11.2074)" />
			<path d="M 49.4868 16.4853 C 49.5057 16.5289, 49.5149 16.5684, 49.5149 16.6044, 49.5149 16.6537, 49.5023 16.6903, 49.4771 16.7143, 49.4393 16.7876, 49.3671 16.8243, 49.2601 16.8243 L 35.2966 16.8243 C 35.1958 16.8243, 35.1237 16.7876, 35.0796 16.7143, 35.0544 16.6903, 35.0418 16.6537, 35.0418 16.6044, 35.0418 16.5684, 35.0515 16.5289, 35.0699 16.4853 L 41.7596 3.45044 C 41.8415 3.27411, 41.9864 3.18824, 42.1936 3.19396 L 42.3631 3.19396 C 42.5583 3.19453, 42.7031 3.27697, 42.797 3.44128 L 49.4868 16.4853 Z M 41.7121 5.24584 L 36.5418 15.3128, 46.8733 15.3128 Z" stroke="none" fill="#000000" />
			<path d="M 61.9877 9.57859 C 61.7616 10.4339, 61.441 11.2589, 61.0253 12.0524, 60.6103 12.8465, 60.1196 13.5667, 59.5534 14.2136, 59.5534 14.5136, 59.5597 14.8039, 59.5723 15.0844, 59.5849 15.3655, 59.6135 15.6111, 59.6576 15.8218, 59.7017 16.0325, 59.7584 16.1899, 59.8271 16.2936, 59.8963 16.3978, 59.9874 16.4493, 60.1007 16.4487, 60.3085 16.4493, 60.5066 16.3668, 60.6956 16.202, 60.8845 16.0371, 61.007 15.8384, 61.0631 15.606, 61.1009 15.4354, 61.2114 15.3501, 61.3934 15.3495 L 61.5068 15.3495 C 61.6516 15.3501, 61.7301 15.4233, 61.7427 15.5693 L 61.7427 15.6335 C 61.6986 15.8293, 61.6202 16.013, 61.5068 16.1836, 61.3934 16.3548, 61.2566 16.506, 61.0963 16.6371, 60.936 16.7682, 60.7614 16.8701, 60.5725 16.9434, 60.3841 17.0166, 60.186 17.0533, 59.9782 17.0533, 59.4309 17.0533, 59.0158 16.889, 58.733 16.5592, 58.4502 16.2294, 58.2675 15.8842, 58.1857 15.5235, 57.6384 15.9701, 57.0126 16.3365, 56.3078 16.6233, 55.6037 16.9102, 54.8708 17.0533, 54.1094 17.0533, 53.5564 17.0533, 53.0531 16.9405, 52.6003 16.7149, 52.1474 16.4894, 51.789 16.1653, 51.5245 15.7434, 51.2417 15.3346, 51.0654 14.8617, 50.9961 14.3236, 50.9709 14.1713, 50.9583 14.0064, 50.9583 13.8289, 50.9583 13.4631, 51.0121 13.0846, 51.1186 12.693, 51.2698 12.1257, 51.5108 11.5807, 51.8405 11.0585, 52.1709 10.5364, 52.5814 10.0647, 53.0714 9.64271, 53.5501 9.25226, 54.0676 8.94253, 54.6241 8.71353, 55.1806 8.48452, 55.7359 8.37002, 56.2889 8.36945, 56.8174 8.37002, 57.2845 8.46964, 57.6899 8.66773, 58.0958 8.86639, 58.4387 9.13375, 58.7187 9.46924, 58.9986 9.8053, 59.2076 10.1975, 59.3461 10.6463, 59.4847 11.0952, 59.5534 11.5669, 59.5534 12.061 L 59.5534 13.2701 C 59.8872 12.8373, 60.2204 12.2848, 60.5536 11.6127, 60.8868 10.9412, 61.1415 10.2542, 61.3179 9.55111, 61.3557 9.3805, 61.4662 9.29234, 61.6482 9.28547 L 61.7427 9.28547 C 61.9064 9.28604, 61.9877 9.35932, 61.9877 9.50531 L 61.9877 9.57859 Z M 58.0626 14.8732 C 58.0569 14.8308, 58.0506 14.7672, 58.0443 14.6814, 58.038 14.5961, 58.0345 14.5102, 58.0345 14.4243 L 58.0345 12.3633 C 58.0345 11.9179, 58.0048 11.4925, 57.9452 11.086, 57.8857 10.6801, 57.7878 10.3183, 57.6527 10.0005, 57.5176 9.68336, 57.3315 9.43432, 57.0956 9.25398, 56.8597 9.07421, 56.5534 8.98375, 56.1756 8.98318, 55.8235 8.98375, 55.468 9.07707, 55.1096 9.26314, 54.7512 9.44978, 54.4306 9.70454, 54.1472 10.0274, 53.7951 10.419, 53.526 10.845, 53.3405 11.3059, 53.155 11.7673, 52.9993 12.2448, 52.8734 12.7388, 52.748 13.2278, 52.6569 13.6984, 52.5997 14.1495, 52.5871 14.2663, 52.5808 14.3819, 52.5808 14.4976, 52.5808 14.8216, 52.6346 15.1331, 52.7417 15.4319, 52.8613 15.7377, 53.0468 15.9838, 53.2982 16.1699, 53.5501 16.3565, 53.8518 16.4493, 54.2039 16.4487, 54.9149 16.4493, 55.5991 16.309, 56.2563 16.0279, 56.9136 15.7474, 57.5158 15.3621, 58.0626 14.8732 Z" stroke="none" fill="#000000" />
			<rect />
		</svg>
	</g>
	<g transform="matrix(1 0 -0 1 183.002 126.444)">
		<svg width="71.9527512" height="47.9999886">
			<defs />
			<path d="M 14.4446 16.4853 C 14.4635 16.5289, 14.4727 16.5684, 14.4727 16.6044, 14.4727 16.6537, 14.4601 16.6903, 14.4349 16.7143, 14.3971 16.7876, 14.3249 16.8243, 14.2179 16.8243 L 0.254377 16.8243 C 0.153616 16.8243, 0.0814795 16.7876, 0.0373963 16.7143, 0.0122058 16.6903, -0.000389338 16.6537, -0.000389338 16.6044, -0.000389338 16.5684, 0.00934333 16.5289, 0.0276636 16.4853 L 6.71744 3.45044 C 6.79931 3.27411, 6.94415 3.18824, 7.1514 3.19396 L 7.32087 3.19396 C 7.51609 3.19453, 7.66094 3.27697, 7.75483 3.44128 L 14.4446 16.4853 Z M 6.66992 5.24584 L 1.49959 15.3128, 11.8311 15.3128 Z" stroke="none" fill="#000000" />
			<path d="M 22.3305 10.4671 C 22.2738 10.7059, 22.1513 10.8879, 21.9624 11.0127, 21.774 11.1381, 21.5885 11.2005, 21.4059 11.1999, 21.2176 11.2005, 21.0664 11.1335, 20.9531 10.9984, 20.8592 10.9074, 20.8088 10.7854, 20.8019 10.632, 20.8019 10.5656, 20.8082 10.498, 20.8208 10.4305, 20.8781 10.2175, 20.9863 10.0526, 21.1466 9.93641, 21.3069 9.82076, 21.4374 9.75321, 21.5382 9.73431, 21.4941 9.54539, 21.3464 9.37306, 21.0945 9.21734, 20.8431 9.06161, 20.5414 8.98375, 20.1888 8.98318, 19.9752 8.98375, 19.7708 9.00665, 19.5762 9.05245, 19.3815 9.09826, 19.1989 9.18814, 19.0289 9.32211, 18.872 9.4389, 18.7432 9.58088, 18.6424 9.74863, 18.5416 9.91694, 18.4695 10.095, 18.4249 10.2839, 18.3876 10.3881, 18.3687 10.4923, 18.3687 10.5954, 18.3687 10.7671, 18.4191 10.9286, 18.5193 11.0809, 18.6642 11.3076, 18.8846 11.4478, 19.18 11.5022 L 20.1229 11.7037 C 20.4315 11.7713, 20.7097 11.8875, 20.9582 12.0524, 21.2067 12.2173, 21.4076 12.4159, 21.5616 12.6478, 21.7162 12.8803, 21.8244 13.1425, 21.8868 13.435, 21.8994 13.5518, 21.9057 13.6617, 21.9057 13.7648, 21.9057 13.9606, 21.8777 14.1655, 21.821 14.3785, 21.7145 14.7335, 21.5571 15.0879, 21.3492 15.4417, 21.142 15.796, 20.862 16.1012, 20.5099 16.3571, 20.1264 16.6262, 19.7273 16.8094, 19.3122 16.9067, 18.8972 17.0046, 18.4976 17.0533, 18.114 17.0533, 17.7304 17.0533, 17.3737 17.0018, 17.0434 16.8976, 16.7136 16.7939, 16.4256 16.6405, 16.18 16.4355, 15.935 16.2312, 15.7684 15.9821, 15.6802 15.6884, 15.6236 15.5424, 15.5921 15.3838, 15.5858 15.2121, 15.5858 15.0541, 15.6081 14.8858, 15.6516 14.7083, 15.7215 14.434, 15.8612 14.2279, 16.0718 14.0905, 16.2825 13.9531, 16.4943 13.8844, 16.7085 13.8839, 16.9283 13.8844, 17.1172 13.9549, 17.2741 14.0945, 17.3812 14.1987, 17.4378 14.3333, 17.4441 14.4976, 17.4441 14.5835, 17.4287 14.6693, 17.3966 14.7541, 17.3279 15.0232, 17.1877 15.2264, 16.977 15.3638, 16.7663 15.5012, 16.5951 15.5728, 16.4629 15.5785, 16.5321 15.8052, 16.7302 16.0067, 17.0571 16.1836, 17.3846 16.3611, 17.771 16.4493, 18.2176 16.4487, 18.4947 16.4493, 18.7666 16.4207, 19.0334 16.3623, 19.3008 16.3044, 19.5447 16.1899, 19.7645 16.0182, 19.9786 15.8722, 20.1533 15.6953, 20.2884 15.4875, 20.4235 15.2802, 20.5197 15.0541, 20.5758 14.809, 20.6136 14.6997, 20.6325 14.5835, 20.6325 14.461, 20.6325 14.2297, 20.5603 14.0218, 20.4155 13.8381, 20.2082 13.5701, 19.9122 13.3898, 19.5287 13.2976 L 18.5852 13.0869 C 18.0321 12.9713, 17.6239 12.6936, 17.3594 12.2534, 17.1831 11.9791, 17.0949 11.6705, 17.0949 11.3282, 17.0949 11.1335, 17.1201 10.9349, 17.1705 10.7328, 17.2524 10.4219, 17.3829 10.1105, 17.5621 9.79901, 17.7413 9.48756, 17.9834 9.21619, 18.2886 8.98375, 18.5937 8.75189, 18.9241 8.59158, 19.279 8.50284, 19.634 8.41468, 19.9752 8.37002, 20.3021 8.36945, 20.6233 8.37002, 20.9239 8.41926, 21.2032 8.51659, 21.4832 8.61448, 21.7219 8.75647, 21.92 8.94253, 22.1181 9.12917, 22.2612 9.3473, 22.3494 9.59691, 22.3746 9.73202, 22.3872 9.86599, 22.3872 9.99996, 22.3872 10.1471, 22.3683 10.3028, 22.3305 10.4671 Z" stroke="none" fill="#000000" />
			<rect />
		</svg>
	</g>
	<g transform="matrix(1 0 -0 1 113.618 168.736)">
		<svg width="23.9688396" height="32.9571342">
			<defs />
			<path d="M 6.74646 10.4671 C 6.69035 10.7059, 6.56783 10.8879, 6.37891 11.0127, 6.18998 11.1381, 6.00448 11.2005, 5.82185 11.1999, 5.6335 11.2005, 5.48235 11.1335, 5.369 10.9984, 5.27511 10.9074, 5.22473 10.7854, 5.21843 10.632, 5.21843 10.5656, 5.22473 10.498, 5.23675 10.4305, 5.294 10.2175, 5.4022 10.0526, 5.56251 9.93641, 5.72281 9.82076, 5.85334 9.75321, 5.9541 9.73431, 5.91059 9.54539, 5.76288 9.37306, 5.51098 9.21734, 5.25908 9.06161, 4.95736 8.98375, 4.6047 8.98318, 4.39115 8.98375, 4.18677 9.00665, 3.99154 9.05245, 3.79689 9.09826, 3.61426 9.18814, 3.44422 9.32211, 3.28735 9.4389, 3.15854 9.58088, 3.05778 9.74863, 2.95701 9.91694, 2.88488 10.095, 2.84079 10.2839, 2.80301 10.3881, 2.78412 10.4923, 2.78412 10.5954, 2.78412 10.7671, 2.8345 10.9286, 2.93469 11.0809, 3.07953 11.3076, 3.29995 11.4478, 3.59536 11.5022 L 4.53886 11.7037 C 4.84687 11.7713, 5.12511 11.8875, 5.37358 12.0524, 5.62205 12.2173, 5.82357 12.4159, 5.97758 12.6478, 6.13215 12.8803, 6.24036 13.1425, 6.30333 13.435, 6.31593 13.5518, 6.32223 13.6617, 6.32223 13.7648, 6.32223 13.9606, 6.29417 14.1655, 6.23692 14.3785, 6.13044 14.7335, 5.973 15.0879, 5.76575 15.4417, 5.5585 15.796, 5.27854 16.1012, 4.92588 16.3571, 4.54229 16.6262, 4.14268 16.8094, 3.72761 16.9067, 3.31254 17.0046, 2.91293 17.0533, 2.52935 17.0533, 2.14577 17.0533, 1.78852 17.0018, 1.45818 16.8976, 1.12842 16.7939, 0.840446 16.6405, 0.595412 16.4355, 0.350378 16.2312, 0.183205 15.9821, 0.0950381 15.6884, 0.0389322 15.5424, 0.00744417 15.3838, 0.000574052 15.2121, 0.000574052 15.0541, 0.0229019 14.8858, 0.0664127 14.7083, 0.136259 14.434, 0.275951 14.2279, 0.486635 14.0905, 0.697318 13.9531, 0.909719 13.8844, 1.12327 13.8839, 1.34368 13.8844, 1.53261 13.9549, 1.68948 14.0945, 1.79654 14.1987, 1.85322 14.3333, 1.85951 14.4976, 1.85951 14.5835, 1.84406 14.6693, 1.81199 14.7541, 1.74329 15.0232, 1.60303 15.2264, 1.39235 15.3638, 1.18166 15.5012, 1.01048 15.5728, 0.878232 15.5785, 0.947505 15.8052, 1.14559 16.0067, 1.4725 16.1836, 1.79997 16.3611, 2.18642 16.4493, 2.63297 16.4487, 2.91007 16.4493, 3.18201 16.4207, 3.44937 16.3623, 3.71673 16.3044, 3.96062 16.1899, 4.18047 16.0182, 4.39459 15.8722, 4.5692 15.6953, 4.70431 15.4875, 4.83943 15.2802, 4.93561 15.0541, 4.99171 14.809, 5.0295 14.6997, 5.04839 14.5835, 5.04839 14.461, 5.04839 14.2297, 4.97626 14.0218, 4.83141 13.8381, 4.62416 13.5701, 4.32818 13.3898, 3.94459 13.2976 L 3.0011 13.0869 C 2.44748 12.9713, 2.03871 12.6936, 1.77421 12.2534, 1.59845 11.9791, 1.51028 11.6705, 1.51028 11.3282, 1.51028 11.1335, 1.53547 10.9349, 1.58585 10.7328, 1.66772 10.4219, 1.79825 10.1105, 1.97745 9.79901, 2.15665 9.48756, 2.39882 9.21619, 2.70396 8.98375, 3.00911 8.75189, 3.33945 8.59158, 3.69441 8.50284, 4.04994 8.41468, 4.39115 8.37002, 4.71805 8.36945, 5.03923 8.37002, 5.3398 8.41926, 5.61918 8.51659, 5.89914 8.61448, 6.13845 8.75647, 6.33654 8.94253, 6.53463 9.12917, 6.67776 9.3473, 6.76535 9.59691, 6.79054 9.73202, 6.80313 9.86599, 6.80313 9.99996, 6.80313 10.1471, 6.78424 10.3028, 6.74646 10.4671 Z" stroke="none" fill="#000000" />
			<rect />
		</svg>
	</g>
	<g transform="matrix(1 0 -0 1 267.035 20.2439)">
		<svg width="39.020092" height="41.9571304">
			<defs />
			<path d="M 9.99872 7.47217 C 9.96633 7.61939, 9.87211 7.69496, 9.71557 7.69987 L 9.53744 7.69987 C 9.41378 7.70036, 9.34606 7.63755, 9.33526 7.51143 L 9.33526 7.44862 C 9.38924 7.11934, 9.41918 6.80283, 9.42457 6.49858, 9.42457 6.32633, 9.41918 6.15115, 9.40838 5.97252, 9.3544 5.51223, 9.23319 5.10542, 9.04475 4.7521, 8.85632 4.39878, 8.60261 4.11612, 8.28463 3.90413, 7.96664 3.69214, 7.57848 3.58614, 7.12014 3.58565, 6.55974 3.58614, 5.99639 3.72256, 5.43009 3.99442, 4.86429 4.26677, 4.35247 4.6304, 3.89413 5.0853, 3.36072 5.62509, 2.94311 6.22181, 2.64083 6.87594, 2.33903 7.53057, 2.10201 8.19746, 1.92928 8.8776, 1.74084 9.56903, 1.63288 10.2389, 1.60589 10.8876 L 1.60589 11.1074 C 1.60589 11.6786, 1.71925 12.1993, 1.94547 12.6699, 2.16139 13.1155, 2.47643 13.4742, 2.89158 13.7461, 3.30674 14.0184, 3.79991 14.1543, 4.37111 14.1539, 4.83485 14.1543, 5.29024 14.0552, 5.73778 13.856, 6.18531 13.6572, 6.59605 13.3888, 6.97047 13.0512, 7.34538 12.7136, 7.67269 12.3225, 7.9529 11.8774, 8.23359 11.4328, 8.43577 10.9612, 8.55943 10.4636, 8.59182 10.3174, 8.68604 10.2443, 8.84209 10.2438 L 9.02022 10.2438 C 9.15517 10.2443, 9.22779 10.3017, 9.23859 10.4165, 9.23859 10.4484, 9.23074 10.4774, 9.21405 10.5029, 9.0688 11.079, 8.82884 11.6261, 8.49465 12.1443, 8.16047 12.6625, 7.76299 13.117, 7.3022 13.5066, 6.84141 13.8967, 6.33597 14.2078, 5.78636 14.4404, 5.23675 14.6735, 4.67045 14.7898, 4.08797 14.7898, 3.34403 14.7898, 2.68254 14.6343, 2.10299 14.3232, 1.52394 14.012, 1.05334 13.5812, 0.692165 13.0311, 0.315291 12.4402, 0.0939746 11.7856, 0.0291992 11.0682, 0.00760746 10.8748, -0.00318849 10.6736, -0.00318849 10.4636, -0.00318849 9.9356, 0.0645312 9.3963, 0.198989 8.8462, 0.404111 8.07723, 0.72897 7.33526, 1.17356 6.62077, 1.61816 5.90628, 2.17464 5.25607, 2.843 4.66916, 3.47407 4.13575, 4.15716 3.71176, 4.89275 3.3977, 5.62884 3.08364, 6.3659 2.92661, 7.10395 2.92612, 7.69183 2.92661, 8.19433 3.05616, 8.61194 3.31526, 9.03003 3.57436, 9.33821 3.88695, 9.53744 4.25303 L 10.6293 3.03604 C 10.6725 2.96341, 10.7456 2.92661, 10.8477 2.92612 L 10.912 2.92612 C 11.0415 2.92661, 11.1063 2.98942, 11.1063 3.11456 L 11.1063 3.17737 Z" stroke="none" fill="#000000" />
			<rect />
		</svg>
	</g>
	<path d="M 24.0172 -34.1001 C 29.8886 -29.9647, 34.5927 -24.3833, 37.6741 -17.8964" fill="none" stroke="#000000" stroke-width="2.20000005" stroke-linecap="round" stroke-linejoin="round" transform="matrix(0.454545 0 -0 0.454545 211.736 158.474)" />
	<path d="M 0 0 L 68.9048 -97.8319" fill="none" stroke="#000000" stroke-width="1.10000002" stroke-linecap="round" stroke-linejoin="round" stroke-dasharray="6.0555, 2.7445, 0.011, 3.289" transform="matrix(0.454545 0 -0 0.454545 211.736 158.474)" />
	<path d="M 0 0 L 52.9427 -25.1494" fill="none" stroke="#000000" stroke-width="1.10000002" stroke-linecap="round" stroke-linejoin="round" stroke-dasharray="6.0555, 2.7445, 0.011, 3.289" transform="matrix(0.454545 0 -0 0.454545 211.736 158.474)" />
	<path d="M -69.3057 32.9584 L 69.3054 -32.9583" fill="none" stroke="#000000" stroke-width="2.9333334" stroke-linecap="round" stroke-linejoin="round" marker-end="url(#CustomMarker-04)" transform="matrix(0.454545 0 0 0.454545 294.266 119.305)" />
</svg>
