<?xml version="1.0"?>
<svg xmlns="http://www.w3.org/2000/svg" xmlns:xlink="http://www.w3.org/1999/xlink" width="306.5" height="304.5">
	<defs />
	<path d="M 0 0 L -227.299 482.682" fill="none" stroke="#0EA300" stroke-width="2.66666675" stroke-linecap="round" stroke-linejoin="round" transform="matrix(0.5 0 0 0.5 199.795 28.7584)" />
	<path d="M 0 0 L -374.835 62.1277" fill="none" stroke="#0EA300" stroke-width="2.66666675" stroke-linecap="round" stroke-linejoin="round" transform="matrix(0.5 0 0 0.5 273.563 239.036)" />
	<path d="M 0 0 L 105.045 148.889" fill="none" stroke="#0EA300" stroke-width="2.66666675" stroke-linecap="round" stroke-linejoin="round" transform="matrix(0.5 0 0 0.5 33.6228 195.655)" />
	<path d="M 0 0 L -417.431 -343.603" fill="none" stroke="#0050FF" stroke-width="2.66666675" stroke-linecap="round" stroke-linejoin="round" transform="matrix(0.5 0 0 0.5 273.563 239.036)" />
	<path d="M -234.702 -4.21639 L 234.702 -4.21639, 234.702 4.21639, -234.702 4.21639 Z" stroke="none" fill="#FFFFFF" transform="matrix(0.354466 -0.352638 0.352638 0.354466 116.601 111.523)" />
	<path d="M -234.702 -4.21639 L 234.702 -4.21639, 234.702 4.21639, -234.702 4.21639 Z" fill="none" stroke="#000000" stroke-width="2.4000001" stroke-linecap="round" stroke-linejoin="round" transform="matrix(0.354466 -0.352638 0.352638 0.354466 116.601 111.523)" />
	<path d="M 531.78 -72.3407 C 531.78 77.2238, 410.534 198.47, 260.97 198.47, 111.405 198.47, -9.84088 77.2238, -9.84088 -72.3407, -9.84088 -221.905, 111.405 -343.151, 260.97 -343.151, 410.534 -343.151, 531.78 -221.905, 531.78 -72.3407 Z" fill="none" stroke="#E60000" stroke-width="2.66666675" stroke-linecap="round" stroke-linejoin="round" stroke-dasharray="9.34667, 6.65333" transform="matrix(0.5 0 0 0.5 33.5904 195.538)" />
	<path d="M 0 0 L -269.894 76.9508" fill="none" stroke="#0050FF" stroke-width="2.66666675" stroke-linecap="round" stroke-linejoin="round" transform="matrix(0.5 0 0 0.5 199.795 28.7584)" />
	<path d="M -224.151 -4.21679 L 224.151 -4.21679, 224.151 4.21679, -224.151 4.21679 Z" stroke="none" fill="#FFFFFF" transform="matrix(-0.16455 -0.472147 0.472147 -0.16455 236.68 133.203)" />
	<path d="M -224.151 -4.21679 L 224.151 -4.21679, 224.151 4.21679, -224.151 4.21679 Z" fill="none" stroke="#000000" stroke-width="2.4000001" stroke-linecap="round" stroke-linejoin="round" transform="matrix(-0.16455 -0.472147 0.472147 -0.16455 236.68 133.203)" />
	<path d="M -244.295 -4.21667 L 244.295 -4.21667, 244.295 4.21667, -244.295 4.21667 Z" stroke="none" fill="#FFFFFF" transform="matrix(-0.49153 -0.0916434 0.0916434 -0.49153 153.486 216.648)" />
	<path d="M -244.295 -4.21667 L 244.295 -4.21667, 244.295 4.21667, -244.295 4.21667 Z" fill="none" stroke="#000000" stroke-width="2.4000001" stroke-linecap="round" stroke-linejoin="round" transform="matrix(-0.49153 -0.0916434 0.0916434 -0.49153 153.486 216.648)" />
	<path d="M 0 0 L 61.3367 -252.266" fill="none" stroke="#0050FF" stroke-width="2.66666675" stroke-linecap="round" stroke-linejoin="round" transform="matrix(0.5 0 0 0.5 34.1794 193.367)" />
	<g transform="matrix(1 0 -0 1 9.24675 196.658)">
		<svg width="41.9788857" height="45.0428467">
			<defs />
			<path d="M 12.3983 16.5678 C 12.3296 16.751, 12.2099 16.8426, 12.0399 16.8426, 11.4113 16.806, 10.7849 16.7876, 10.1621 16.7876 L 9.85061 16.7876 C 9.11493 16.8002, 8.37582 16.8185, 7.63385 16.8426, 7.46439 16.8426, 7.37279 16.7636, 7.36019 16.6044 L 7.36019 16.5311, 7.39798 16.3754 C 7.44836 16.1745, 7.57088 16.0766, 7.76553 16.0823, 7.99854 16.0829, 8.20636 16.0754, 8.38842 16.06, 8.57105 16.0451, 8.74738 15.9913, 8.91685 15.8991, 8.97982 15.8693, 9.03364 15.8264, 9.07715 15.7709, 9.10234 15.7228, 9.11837 15.6735, 9.12409 15.6243 L 9.12409 15.5693, 8.89795 12.5282, 4.63333 12.5282, 3.13335 15.093 C 3.05148 15.2401, 3.01026 15.3747, 3.01026 15.4961, 3.01026 15.6002, 3.04175 15.6953, 3.10473 15.78, 3.24327 15.9821, 3.50148 16.0829, 3.87819 16.0823, 4.04822 16.0829, 4.13925 16.1562, 4.15185 16.3021, 4.15185 16.3394, 4.14555 16.3789, 4.13295 16.4212 L 4.09574 16.5678 C 4.02647 16.751, 3.90395 16.8426, 3.72762 16.8426, 3.14938 16.8185, 2.57687 16.8002, 2.01009 16.7876 L 1.75589 16.7876 C 1.26525 16.7876, 0.768314 16.806, 0.265078 16.8426, 0.170614 16.8426, 0.101341 16.8123, 0.0572573 16.751, 0.0194716 16.7149, 0.000578821 16.672, 0.000578821 16.6228, 0.000578821 16.5867, 0.00687641 16.55, 0.0194716 16.5128 L 0.0572573 16.3754 C 0.107638 16.1745, 0.230728 16.0766, 0.425381 16.0823, 0.626904 16.0829, 0.824993 16.0617, 1.01965 16.0188, 1.21487 15.9764, 1.3975 15.8997, 1.56697 15.7897, 1.737 15.6798, 1.89444 15.547, 2.03871 15.3913, 2.18356 15.2356, 2.31237 15.0598, 2.42573 14.864 L 9.08631 3.45961 C 9.19967 3.289, 9.34451 3.20656, 9.52084 3.21228 L 9.70004 3.21228 C 9.90156 3.21285, 10.0143 3.30732, 10.0395 3.49625 L 10.8697 15.4319 C 10.8823 15.5911, 10.9012 15.7119, 10.9264 15.7943, 10.9515 15.8768, 10.9956 15.9363, 11.0586 15.9724, 11.1468 16.0279, 11.2928 16.06, 11.4971 16.0691, 11.7021 16.0783, 11.9328 16.0829, 12.1905 16.0823, 12.3668 16.0829, 12.455 16.1562, 12.455 16.3021, 12.455 16.3394, 12.4487 16.3789, 12.4361 16.4212 Z M 8.4451 6.03361 L 5.08618 11.7862, 8.84127 11.7862 Z" stroke="none" fill="#000000" />
			<rect />
		</svg>
	</g>
	<g transform="matrix(1 0 -0 1 280.285 244.069)">
		<svg width="44.9376793" height="45.0428467">
			<defs />
			<path d="M 13.0332 7.12367 C 12.9267 7.56393, 12.7143 7.97614, 12.3966 8.36086, 12.0788 8.74559, 11.7124 9.07249, 11.2973 9.34043, 10.9704 9.56084, 10.6355 9.73489, 10.2926 9.86313, 9.94965 9.99137, 9.82828 10.0463, 9.92904 10.0274, 9.91072 10.0217, 10.0756 10.1001, 10.4248 10.2616, 10.7741 10.4236, 11.0804 10.6446, 11.3443 10.9251, 11.6403 11.2251, 11.8418 11.5852, 11.9483 12.006, 11.9987 12.2144, 12.0273 12.4188, 12.033 12.6198, 12.033 12.8522, 11.9987 13.0938, 11.9294 13.3434, 11.8103 13.814, 11.5899 14.2634, 11.2693 14.6905, 10.9487 15.1182, 10.5645 15.4903, 10.118 15.8075, 9.64622 16.1499, 9.1447 16.4081, 8.61342 16.5821, 8.08213 16.7561, 7.55198 16.8426, 7.02298 16.8426 L 0.267942 16.8426 C 0.173478 16.8426, 0.104204 16.8151, 0.0601207 16.7602, 0.0166099 16.7178, -0.00571795 16.672, -0.00571795 16.6228, -0.00571795 16.5867, 0.000579656 16.55, 0.0131749 16.5128 L 0.0509605 16.3754 C 0.0887462 16.1745, 0.211263 16.0766, 0.418512 16.0823, 0.714499 16.0829, 0.991594 16.0783, 1.24922 16.0691, 1.50685 16.06, 1.70208 16.0279, 1.83376 15.9724, 1.94711 15.9117, 2.03528 15.7468, 2.09826 15.4777 L 4.74955 5.15423 C 4.78733 5.02027, 4.80565 4.91664, 4.80565 4.84279, 4.80565 4.77008, 4.7902 4.72714, 4.75871 4.71455, 4.67054 4.66016, 4.49936 4.62695, 4.24459 4.61436, 3.98983 4.60234, 3.71159 4.59604, 3.4093 4.59547, 3.31541 4.59604, 3.24614 4.56569, 3.20205 4.50386, 3.16427 4.4678, 3.14538 4.422, 3.14538 4.36646, 3.14538 4.33039, 3.15511 4.29662, 3.17343 4.2657 L 3.20205 4.1283 C 3.22095 4.04357, 3.26675 3.97486, 3.33888 3.92277, 3.41102 3.87124, 3.48831 3.84491, 3.57018 3.84433 L 9.82542 3.84433 C 10.3413 3.84491, 10.8285 3.92162, 11.2876 4.07391, 11.7468 4.22677, 12.1275 4.4678, 12.4292 4.79699, 12.7252 5.09698, 12.933 5.44507, 13.0521 5.84125, 13.1025 6.04334, 13.1277 6.24773, 13.1277 6.45498, 13.1277 6.67539, 13.0962 6.8981, 13.0332 7.12367 Z M 11.1273 7.08703 C 11.1903 6.84314, 11.2218 6.59925, 11.2218 6.35422 L 11.2218 6.13437 C 11.1966 5.84182, 11.1084 5.56988, 10.9573 5.31912, 10.8256 5.09355, 10.651 4.91664, 10.434 4.7884, 10.217 4.66016, 9.96397 4.59604, 9.67428 4.59547 L 7.18329 4.59547 C 6.85009 4.59604, 6.6583 4.61722, 6.60791 4.65959, 6.53234 4.72142, 6.46021 4.89832, 6.39093 5.19088 L 5.2213 9.78927, 7.79702 9.78927 C 8.15541 9.78985, 8.51094 9.72, 8.86303 9.57916, 9.2157 9.4389, 9.55176 9.24024, 9.87236 8.98318, 10.5393 8.44617, 10.9578 7.81412, 11.1273 7.08703 Z M 9.96683 13.2885 C 10.055 12.9776, 10.0991 12.669, 10.0991 12.3633 L 10.0991 12.1709 C 10.0739 11.8297, 9.98286 11.5148, 9.82542 11.2274, 9.68687 10.9778, 9.49966 10.7746, 9.26379 10.6188, 9.02791 10.4631, 8.75311 10.3853, 8.43823 10.3847 L 5.05126 10.3847, 3.73964 15.5144 C 3.68926 15.7228, 3.66407 15.8722, 3.66407 15.9632, 3.66407 16.0125, 3.6675 16.0399, 3.6738 16.0457, 3.6864 16.0646, 3.85014 16.0766, 4.16444 16.0823 L 6.68349 16.0823 C 7.02928 16.0829, 7.37851 16.0084, 7.73061 15.8585, 8.08327 15.709, 8.40731 15.5121, 8.70273 15.267, 9.0302 14.9928, 9.29871 14.6848, 9.50939 14.3424, 9.72008 14.0007, 9.87294 13.6491, 9.96683 13.2885 Z" stroke="none" fill="#000000" />
			<rect />
		</svg>
	</g>
	<g transform="matrix(1 0 -0 1 40.8521 51.2545)">
		<svg width="44.9376793" height="45.0428467">
			<defs />
			<path d="M 12.9791 7.44427 C 12.8411 7.9395, 12.6052 8.39636, 12.272 8.81429, 11.9388 9.23279, 11.5421 9.59462, 11.0829 9.8992, 10.586 10.2416, 10.0564 10.4998, 9.49308 10.6738, 8.9303 10.8478, 8.3721 10.9349, 7.81848 10.9343 L 5.01605 10.9343, 3.83668 15.5144 C 3.79889 15.6495, 3.78 15.756, 3.78 15.835, 3.78 15.9088, 3.79603 15.9546, 3.82752 15.9724, 3.91569 16.0279, 4.08858 16.06, 4.34621 16.0691, 4.60441 16.0783, 4.88094 16.0829, 5.17635 16.0823, 5.35269 16.0829, 5.44085 16.1682, 5.44085 16.3388 L 5.44085 16.4029, 5.40307 16.5678 C 5.33379 16.751, 5.21128 16.8426, 5.03494 16.8426, 4.24889 16.806, 3.4594 16.7876, 2.66704 16.7876, 1.86839 16.7876, 1.06974 16.806, 0.270517 16.8426, 0.101054 16.8426, 0.0100247 16.7636, -0.00314299 16.6044 L -0.00314299 16.5311, 0.0346427 16.3754 C 0.0850235 16.1745, 0.207541 16.0766, 0.402194 16.0823, 0.698181 16.0829, 0.978139 16.0783, 1.24207 16.0691, 1.50657 16.06, 1.70122 16.0279, 1.82717 15.9724, 1.94683 15.906, 2.03785 15.7411, 2.10083 15.4777 L 4.75212 5.15423 C 4.78991 5.02027, 4.80823 4.91664, 4.80823 4.84279, 4.80823 4.77008, 4.79277 4.72714, 4.76128 4.71455, 4.67312 4.66016, 4.50194 4.62695, 4.24717 4.61436, 3.9924 4.60234, 3.71416 4.59604, 3.41188 4.59547, 3.23612 4.59604, 3.14795 4.5136, 3.14795 4.34814 L 3.14795 4.27486, 3.20463 4.11914 C 3.24241 3.93651, 3.35921 3.84491, 3.55386 3.84433 L 9.60128 3.84433 C 10.1555 3.84491, 10.6696 3.93193, 11.1442 4.10597, 11.6194 4.28001, 12.0264 4.54108, 12.3659 4.88859, 12.6739 5.21263, 12.8909 5.59736, 13.0169 6.04277, 13.0547 6.25116, 13.0736 6.46185, 13.0736 6.67482, 13.0736 6.91986, 13.0421 7.17634, 12.9791 7.44427 Z M 10.9696 7.39847 C 11.0766 7.01432, 11.1488 6.64162, 11.1866 6.28093 L 11.1866 6.11605 C 11.1866 5.83552, 11.1081 5.57904, 10.9507 5.3466, 10.7434 5.07237, 10.4663 4.87886, 10.1205 4.7655, 9.77475 4.65272, 9.40033 4.59604, 8.99786 4.59547 L 7.22365 4.59547 C 6.90304 4.59604, 6.71125 4.62066, 6.64827 4.66932, 6.5853 4.71856, 6.51946 4.89203, 6.45019 5.19088 L 5.13857 10.2473, 7.49731 10.2473 C 7.90608 10.2479, 8.31542 10.19, 8.7242 10.0738, 9.13297 9.95817, 9.51655 9.7595, 9.87494 9.47783, 10.1961 9.2036, 10.4337 8.88299, 10.5877 8.51659, 10.7417 8.15018, 10.8688 7.77748, 10.9696 7.39847 Z" stroke="none" fill="#0050FF" />
			<rect />
		</svg>
	</g>
	<path d="M 0 -9.56653 L 9.97803 9.56653, -9.97803 9.56653 Z" stroke="none" fill="#FFFFFF" transform="matrix(0.5 0 -0 0.5 273.564 238.143)" />
	<path d="M 0 -9.56653 L 9.97803 9.56653, -9.97803 9.56653 Z" fill="none" stroke="#000000" stroke-width="2.4000001" stroke-linecap="round" stroke-linejoin="round" transform="matrix(0.5 0 -0 0.5 273.564 238.143)" />
	<path d="M 0 -9.56604 L 9.97748 9.56604, -9.97748 9.56604 Z" stroke="none" fill="#FFFFFF" transform="matrix(0.5 0 -0 0.5 33.4073 194.288)" />
	<path d="M 0 -9.56604 L 9.97748 9.56604, -9.97748 9.56604 Z" fill="none" stroke="#000000" stroke-width="2.4000001" stroke-linecap="round" stroke-linejoin="round" transform="matrix(0.5 0 -0 0.5 33.4073 194.288)" />
	<path d="M 0 -9.56624 L 9.97681 9.56624, -9.97681 9.56624 Z" stroke="none" fill="#FFFFFF" transform="matrix(0.5 0 -0 0.5 199.796 27.3706)" />
	<path d="M 0 -9.56624 L 9.97681 9.56624, -9.97681 9.56624 Z" fill="none" stroke="#000000" stroke-width="2.4000001" stroke-linecap="round" stroke-linejoin="round" transform="matrix(0.5 0 -0 0.5 199.796 27.3706)" />
	<ellipse cx="951.6954345703125" cy="371.4676513671875" rx="8" ry="8" stroke="none" fill="#0050FF" transform="matrix(0.5 0 0 0.5 -411 -118.5)" />
	<ellipse cx="951.6954550743103" cy="371.46764135360718" rx="5.3333334922790527" ry="5.3333334922790527" stroke="none" fill="#FFFFFF" transform="matrix(0.5 0 0 0.5 -411 -118.5)" />
	<g transform="matrix(1 0 -0 1 209.576 4.02021)">
		<svg width="41.9788857" height="47.9999886">
			<defs />
			<path d="M 11.6652 8.71754 C 11.6274 8.88929, 11.5175 8.97746, 11.3348 8.98318 L 11.127 8.98318 C 10.9827 8.98375, 10.9037 8.91047, 10.8911 8.76334 L 10.8911 8.69006 C 10.9541 8.3059, 10.989 7.93663, 10.9953 7.58168, 10.9953 7.38073, 10.989 7.17634, 10.9764 6.96795, 10.9135 6.43093, 10.7721 5.95632, 10.5522 5.54411, 10.3324 5.13191, 10.0364 4.80214, 9.6654 4.55482, 9.29441 4.30749, 8.84156 4.18383, 8.30684 4.18326, 7.65303 4.18383, 6.99579 4.34299, 6.33511 4.66016, 5.67501 4.9779, 5.07788 5.40213, 4.54316 5.93285, 3.92084 6.56261, 3.43363 7.25878, 3.08097 8.02194, 2.72887 8.78566, 2.45235 9.56371, 2.25083 10.3572, 2.03098 11.1639, 1.90503 11.9453, 1.87354 12.7022 L 1.87354 12.9587 C 1.87354 13.6251, 2.00579 14.2325, 2.26972 14.7816, 2.52162 15.3014, 2.88918 15.7199, 3.37352 16.0371, 3.85786 16.3548, 4.43323 16.5134, 5.09964 16.5128, 5.64066 16.5134, 6.17195 16.3978, 6.69408 16.1653, 7.2162 15.9334, 7.69539 15.6203, 8.13222 15.2264, 8.56962 14.8325, 8.95148 14.3762, 9.27838 13.857, 9.60586 13.3383, 9.84173 12.7881, 9.98601 12.2076, 10.0238 12.0369, 10.1337 11.9516, 10.3158 11.9511 L 10.5236 11.9511 C 10.681 11.9516, 10.7658 12.0186, 10.7784 12.1526, 10.7784 12.1898, 10.7692 12.2236, 10.7497 12.2534, 10.5803 12.9255, 10.3003 13.5638, 9.91043 14.1684, 9.52056 14.773, 9.05682 15.3031, 8.51924 15.7577, 7.98165 16.2128, 7.39196 16.5758, 6.75075 16.8472, 6.10954 17.1191, 5.44887 17.2548, 4.7693 17.2548, 3.90137 17.2548, 3.12963 17.0733, 2.4535 16.7103, 1.77793 16.3474, 1.2289 15.8447, 0.80753 15.2029, 0.367843 14.5136, 0.109641 13.7499, 0.0340694 12.9129, 0.00887895 12.6873, -0.00371623 12.4526, -0.00371623 12.2076, -0.00371623 11.5915, 0.0752901 10.9623, 0.232158 10.3206, 0.471467 9.42344, 0.850468 8.55781, 1.36916 7.72423, 1.88786 6.89066, 2.53708 6.13208, 3.31684 5.44736, 4.05309 4.82504, 4.85002 4.33039, 5.70821 3.96399, 6.56698 3.59758, 7.42689 3.41438, 8.28794 3.41381, 8.97381 3.41438, 9.56006 3.56552, 10.0473 3.86781, 10.535 4.17009, 10.8946 4.53478, 11.127 4.96187 L 12.4009 3.54205 C 12.4512 3.45732, 12.5365 3.41438, 12.6556 3.41381 L 12.7306 3.41381 C 12.8818 3.41438, 12.9573 3.48766, 12.9573 3.63365 L 12.9573 3.70693 Z" stroke="none" fill="#000000" />
			<rect />
		</svg>
	</g>
	<g transform="matrix(1 0 -0 1 64.2836 79.3948)">
		<svg width="39.020092" height="56.9999886">
			<defs />
			<path d="M 10.9882 6.6565 C 10.8817 7.08474, 10.6928 7.49408, 10.4225 7.88453, 10.1523 8.27556, 9.82484 8.61735, 9.44126 8.9099, 9.2718 9.05074, 9.15214 9.13948, 9.0823 9.17554, 9.30271 9.31066, 9.52599 9.53336, 9.75271 9.84424, 10.0355 10.2599, 10.2147 10.727, 10.2903 11.2457, 10.3029 11.4175, 10.3092 11.5881, 10.3092 11.7587, 10.3092 12.1137, 10.2651 12.4766, 10.1769 12.8488, 10.0264 13.411, 9.78591 13.9474, 9.45557 14.4569, 9.12524 14.9671, 8.70845 15.4233, 8.20521 15.8258, 7.74606 16.2174, 7.23996 16.5254, 6.68634 16.751, 6.13273 16.9771, 5.57625 17.0899, 5.01633 17.0899, 4.19249 17.0899, 3.51292 16.881, 2.9782 16.463, 2.44348 16.0451, 2.11371 15.6065, 1.98776 15.148 L 0.676138 20.2502 C 0.607437 20.403, 0.496942 20.4792, 0.3458 20.4792 L 0.251336 20.4792 C 0.170039 20.4792, 0.109926 20.4551, 0.0721399 20.4059, 0.0217591 20.3818, -0.00343132 20.3389, -0.00343132 20.2777, -0.00343132 20.2536, 0.00630134 20.2261, 0.0251942 20.1952 L 2.9782 8.64425 C 3.15453 7.9853, 3.41674 7.34294, 3.76597 6.71661, 4.1152 6.09086, 4.53085 5.53381, 5.01175 5.04489, 5.49266 4.55653, 6.03082 4.16265, 6.62509 3.86323, 7.21935 3.56438, 7.84396 3.41438, 8.49777 3.41381, 8.93803 3.41438, 9.33764 3.49854, 9.69603 3.66628, 10.0544 3.8346, 10.3567 4.06761, 10.6017 4.36646, 10.8285 4.66646, 10.9762 5.01741, 11.0449 5.41988, 11.0701 5.57904, 11.0826 5.73476, 11.0826 5.88705, 11.0826 6.1441, 11.0512 6.40059, 10.9882 6.6565 Z M 7.42202 9.20302 C 7.4661 9.18528, 7.43175 9.18871, 7.3184 9.21276, 7.20504 9.23738, 7.09512 9.2494, 6.98806 9.24883, 6.56039 9.2494, 6.29647 9.23738, 6.1957 9.21276, 6.09494 9.18871, 6.04456 9.19444, 6.04456 9.2305, 6.03826 9.2494, 6.09952 9.24654, 6.22834 9.22192, 6.35772 9.19787, 6.63253 9.18528, 7.0539 9.1847, 7.27431 9.18528, 7.39683 9.19157, 7.42202 9.20302 Z M 9.55405 4.72371 C 9.3279 4.25998, 8.93803 4.02811, 8.38441 4.02754, 7.84396 4.02811, 7.32183 4.15635, 6.81859 4.41284, 6.31536 4.66932, 5.85449 5.01454, 5.43598 5.44793, 5.01805 5.8819, 4.65165 6.37941, 4.33676 6.94104, 4.02246 7.50324, 3.79288 8.0832, 3.64804 8.6809 L 2.58202 12.8488 C 2.50645 13.1671, 2.46867 13.4785, 2.46867 13.7831, 2.46867 13.9423, 2.48126 14.1043, 2.50645 14.2686, 2.56943 14.7026, 2.71255 15.0816, 2.93583 15.405, 3.15911 15.7291, 3.45968 15.9884, 3.83696 16.1836, 4.21425 16.3794, 4.64821 16.4768, 5.13885 16.4762, 5.49152 16.4768, 5.84361 16.3823, 6.1957 16.1928, 6.5478 16.0039, 6.8684 15.756, 7.15809 15.4503, 7.50389 15.0781, 7.76953 14.6665, 7.95503 14.2142, 8.14052 13.7625, 8.29796 13.2936, 8.42677 12.8081, 8.55616 12.3226, 8.64547 11.8509, 8.69585 11.3923 L 8.69585 11.1083 C 8.69585 10.7854, 8.63918 10.4769, 8.52582 10.1832, 8.47544 10.0675, 8.41761 9.96103, 8.3512 9.86313, 8.28536 9.7658, 8.22067 9.68279, 8.15769 9.61523, 7.76152 9.76866, 7.34015 9.84481, 6.89359 9.84424 L 6.48768 9.84424 C 6.31192 9.84481, 6.13616 9.83107, 5.95983 9.80359, 5.7835 9.77611, 5.63922 9.71657, 5.52587 9.62439, 5.41251 9.56371, 5.35583 9.46294, 5.35583 9.32211, 5.35583 9.27402, 5.36213 9.22822, 5.37472 9.1847, 5.41881 9.00837, 5.52415 8.87841, 5.69075 8.79597, 5.85792 8.71353, 6.03712 8.65571, 6.22891 8.62193, 6.4207 8.58872, 6.60448 8.57155, 6.78024 8.57097 L 7.16725 8.57097 C 7.57603 8.57155, 7.95045 8.63853, 8.28994 8.7725, 8.32201 8.74845, 8.35979 8.71353, 8.4033 8.66773, 8.44738 8.62193, 8.50063 8.56868, 8.5636 8.50685, 8.81551 8.25094, 9.0136 7.9624, 9.15787 7.64179, 9.30271 7.32119, 9.41893 6.98054, 9.5071 6.61986, 9.60786 6.26032, 9.67084 5.9151, 9.69603 5.58476 L 9.69603 5.4382 C 9.69603 5.17599, 9.64908 4.93783, 9.55405 4.72371 Z" stroke="none" fill="#0050FF" />
			<rect />
		</svg>
	</g>
	<g transform="matrix(1 0 -0 1 81.6309 58.0264)">
		<svg width="39.020092" height="32.9571342">
			<defs />
			<path d="M 11.024 9.57859 C 10.7978 10.4339, 10.4772 11.2589, 10.0616 12.0524, 9.6465 12.8465, 9.15586 13.5667, 8.58965 14.2136, 8.58965 14.5136, 8.59595 14.8039, 8.60854 15.0844, 8.62114 15.3655, 8.64977 15.6111, 8.69385 15.8218, 8.73793 16.0325, 8.79461 16.1899, 8.86331 16.2936, 8.93258 16.3978, 9.02361 16.4493, 9.13697 16.4487, 9.34479 16.4493, 9.54288 16.3668, 9.73181 16.202, 9.92074 16.0371, 10.0433 15.8384, 10.0994 15.606, 10.1371 15.4354, 10.2476 15.3501, 10.4297 15.3495 L 10.5431 15.3495 C 10.6879 15.3501, 10.7663 15.4233, 10.7789 15.5693 L 10.7789 15.6335 C 10.7348 15.8293, 10.6564 16.013, 10.5431 16.1836, 10.4297 16.3548, 10.2929 16.506, 10.1326 16.6371, 9.97226 16.7682, 9.79765 16.8701, 9.60872 16.9434, 9.42036 17.0166, 9.22227 17.0533, 9.01445 17.0533, 8.46713 17.0533, 8.05206 16.889, 7.76925 16.5592, 7.48643 16.2294, 7.30379 15.8842, 7.22193 15.5235, 6.67461 15.9701, 6.04885 16.3365, 5.34409 16.6233, 4.63991 16.9102, 3.90709 17.0533, 3.14566 17.0533, 2.59261 17.0533, 2.08938 16.9405, 1.63652 16.7149, 1.18367 16.4894, 0.825274 16.1653, 0.560775 15.7434, 0.277955 15.3346, 0.101622 14.8617, 0.0323482 14.3236, 0.00715774 14.1713, -0.00543743 14.0064, -0.00543743 13.8289, -0.00543743 13.4631, 0.0483785 13.0846, 0.154865 12.693, 0.306008 12.1257, 0.547035 11.5807, 0.8768 11.0585, 1.20714 10.5364, 1.61763 10.0647, 2.1077 9.64271, 2.58631 9.25226, 3.10386 8.94253, 3.66034 8.71353, 4.21682 8.48452, 4.77216 8.37002, 5.3252 8.36945, 5.85363 8.37002, 6.3208 8.46964, 6.72613 8.66773, 7.13204 8.86639, 7.47497 9.13375, 7.75493 9.46924, 8.03489 9.8053, 8.24386 10.1975, 8.3824 10.6463, 8.52095 11.0952, 8.58965 11.5669, 8.58965 12.061 L 8.58965 13.2701 C 8.92342 12.8373, 9.25663 12.2848, 9.58983 11.6127, 9.92303 10.9412, 10.1778 10.2542, 10.3541 9.55111, 10.3919 9.3805, 10.5024 9.29234, 10.6845 9.28547 L 10.7789 9.28547 C 10.9427 9.28604, 11.024 9.35932, 11.024 9.50531 L 11.024 9.57859 Z M 7.09884 14.8732 C 7.09311 14.8308, 7.08681 14.7672, 7.08052 14.6814, 7.07422 14.5961, 7.07078 14.5102, 7.07078 14.4243 L 7.07078 12.3633 C 7.07078 11.9179, 7.04101 11.4925, 6.98147 11.086, 6.92193 10.6801, 6.82403 10.3183, 6.68892 10.0005, 6.55381 9.68336, 6.36774 9.43432, 6.13187 9.25398, 5.89599 9.07421, 5.5897 8.98375, 5.21184 8.98318, 4.85975 8.98375, 4.50422 9.07707, 4.14583 9.26314, 3.78744 9.44978, 3.46683 9.70454, 3.18344 10.0274, 2.83135 10.419, 2.56227 10.845, 2.37678 11.3059, 2.19128 11.7673, 2.03556 12.2448, 1.90961 12.7388, 1.78423 13.2278, 1.6932 13.6984, 1.63595 14.1495, 1.62335 14.2663, 1.61706 14.3819, 1.61706 14.4976, 1.61706 14.8216, 1.67087 15.1331, 1.77793 15.4319, 1.89758 15.7377, 2.08308 15.9838, 2.33441 16.1699, 2.58631 16.3565, 2.88803 16.4493, 3.24012 16.4487, 3.95118 16.4493, 4.63533 16.309, 5.29257 16.0279, 5.94981 15.7474, 6.55209 15.3621, 7.09884 14.8732 Z" stroke="none" fill="#0050FF" />
			<rect />
		</svg>
	</g>
	<ellipse cx="1150.6080813407898" cy="555.48015165328979" rx="3.2000002861022949" ry="3.2000002861022949" stroke="none" fill="#E60000" transform="matrix(0.5 0 0 0.5 -411 -118.5)" />
	<ellipse cx="994.29083251953125" cy="777.19873046875" rx="8" ry="8" stroke="none" fill="#0EA300" transform="matrix(0.5 0 0 0.5 -411 -118.5)" />
	<ellipse cx="994.29085302352905" cy="777.1987509727478" rx="5.3333334922790527" ry="5.3333334922790527" stroke="none" fill="#FFFFFF" transform="matrix(0.5 0 0 0.5 -411 -118.5)" />
	<g transform="matrix(1 0 -0 1 57.8514 273.565)">
		<svg width="57.0301361" height="45.0428467">
			<defs />
			<path d="M 12.9791 7.44427 C 12.8411 7.9395, 12.6052 8.39636, 12.272 8.81429, 11.9388 9.23279, 11.5421 9.59462, 11.0829 9.8992, 10.586 10.2416, 10.0564 10.4998, 9.49308 10.6738, 8.9303 10.8478, 8.3721 10.9349, 7.81848 10.9343 L 5.01605 10.9343, 3.83668 15.5144 C 3.79889 15.6495, 3.78 15.756, 3.78 15.835, 3.78 15.9088, 3.79603 15.9546, 3.82752 15.9724, 3.91569 16.0279, 4.08858 16.06, 4.34621 16.0691, 4.60441 16.0783, 4.88094 16.0829, 5.17635 16.0823, 5.35269 16.0829, 5.44085 16.1682, 5.44085 16.3388 L 5.44085 16.4029, 5.40307 16.5678 C 5.33379 16.751, 5.21128 16.8426, 5.03494 16.8426, 4.24889 16.806, 3.4594 16.7876, 2.66704 16.7876, 1.86839 16.7876, 1.06974 16.806, 0.270517 16.8426, 0.101054 16.8426, 0.0100247 16.7636, -0.00314299 16.6044 L -0.00314299 16.5311, 0.0346427 16.3754 C 0.0850235 16.1745, 0.207541 16.0766, 0.402194 16.0823, 0.698181 16.0829, 0.978139 16.0783, 1.24207 16.0691, 1.50657 16.06, 1.70122 16.0279, 1.82717 15.9724, 1.94683 15.906, 2.03785 15.7411, 2.10083 15.4777 L 4.75212 5.15423 C 4.78991 5.02027, 4.80823 4.91664, 4.80823 4.84279, 4.80823 4.77008, 4.79277 4.72714, 4.76128 4.71455, 4.67312 4.66016, 4.50194 4.62695, 4.24717 4.61436, 3.9924 4.60234, 3.71416 4.59604, 3.41188 4.59547, 3.23612 4.59604, 3.14795 4.5136, 3.14795 4.34814 L 3.14795 4.27486, 3.20463 4.11914 C 3.24241 3.93651, 3.35921 3.84491, 3.55386 3.84433 L 9.60128 3.84433 C 10.1555 3.84491, 10.6696 3.93193, 11.1442 4.10597, 11.6194 4.28001, 12.0264 4.54108, 12.3659 4.88859, 12.6739 5.21263, 12.8909 5.59736, 13.0169 6.04277, 13.0547 6.25116, 13.0736 6.46185, 13.0736 6.67482, 13.0736 6.91986, 13.0421 7.17634, 12.9791 7.44427 Z M 10.9696 7.39847 C 11.0766 7.01432, 11.1488 6.64162, 11.1866 6.28093 L 11.1866 6.11605 C 11.1866 5.83552, 11.1081 5.57904, 10.9507 5.3466, 10.7434 5.07237, 10.4663 4.87886, 10.1205 4.7655, 9.77475 4.65272, 9.40033 4.59604, 8.99786 4.59547 L 7.22365 4.59547 C 6.90304 4.59604, 6.71125 4.62066, 6.64827 4.66932, 6.5853 4.71856, 6.51946 4.89203, 6.45019 5.19088 L 5.13857 10.2473, 7.49731 10.2473 C 7.90608 10.2479, 8.31542 10.19, 8.7242 10.0738, 9.13297 9.95817, 9.51655 9.7595, 9.87494 9.47783, 10.1961 9.2036, 10.4337 8.88299, 10.5877 8.51659, 10.7417 8.15018, 10.8688 7.77748, 10.9696 7.39847 Z" stroke="none" fill="#0EA300" />
			<path d="M 15.1059 10.119 C 15.0556 10.2599, 14.9708 10.3303, 14.8512 10.3297 L 14.7756 10.3297, 14.7189 10.3022 C 14.5998 10.2725, 14.5334 10.19, 14.5208 10.0549 L 14.5208 9.9908, 15.4735 4.0825 C 15.5181 3.80197, 15.6515 3.59014, 15.8748 3.44644, 16.0981 3.30331, 16.3231 3.23117, 16.5492 3.2306, 16.7948 3.23117, 16.9929 3.30732, 17.1435 3.4596, 17.2385 3.55178, 17.2855 3.67372, 17.2855 3.82601, 17.2855 3.93651, 17.2574 4.06475, 17.2002 4.21074 Z" stroke="none" fill="#0EA300" />
			<rect />
		</svg>
	</g>
	<g transform="matrix(1 0 -0 1 78.4006 228.777)">
		<svg width="50.9839096" height="56.9999886">
			<defs />
			<path d="M 10.9882 6.6565 C 10.8817 7.08474, 10.6928 7.49408, 10.4225 7.88453, 10.1523 8.27556, 9.82484 8.61735, 9.44126 8.9099, 9.2718 9.05074, 9.15214 9.13948, 9.0823 9.17554, 9.30271 9.31066, 9.52599 9.53336, 9.75271 9.84424, 10.0355 10.2599, 10.2147 10.727, 10.2903 11.2457, 10.3029 11.4175, 10.3092 11.5881, 10.3092 11.7587, 10.3092 12.1137, 10.2651 12.4766, 10.1769 12.8488, 10.0264 13.411, 9.78591 13.9474, 9.45557 14.4569, 9.12524 14.9671, 8.70845 15.4233, 8.20521 15.8258, 7.74606 16.2174, 7.23996 16.5254, 6.68634 16.751, 6.13273 16.9771, 5.57625 17.0899, 5.01633 17.0899, 4.19249 17.0899, 3.51292 16.881, 2.9782 16.463, 2.44348 16.0451, 2.11371 15.6065, 1.98776 15.148 L 0.676138 20.2502 C 0.607437 20.403, 0.496942 20.4792, 0.3458 20.4792 L 0.251336 20.4792 C 0.170039 20.4792, 0.109926 20.4551, 0.0721399 20.4059, 0.0217591 20.3818, -0.00343132 20.3389, -0.00343132 20.2777, -0.00343132 20.2536, 0.00630134 20.2261, 0.0251942 20.1952 L 2.9782 8.64425 C 3.15453 7.9853, 3.41674 7.34294, 3.76597 6.71661, 4.1152 6.09086, 4.53085 5.53381, 5.01175 5.04489, 5.49266 4.55653, 6.03082 4.16265, 6.62509 3.86323, 7.21935 3.56438, 7.84396 3.41438, 8.49777 3.41381, 8.93803 3.41438, 9.33764 3.49854, 9.69603 3.66628, 10.0544 3.8346, 10.3567 4.06761, 10.6017 4.36646, 10.8285 4.66646, 10.9762 5.01741, 11.0449 5.41988, 11.0701 5.57904, 11.0826 5.73476, 11.0826 5.88705, 11.0826 6.1441, 11.0512 6.40059, 10.9882 6.6565 Z M 7.42202 9.20302 C 7.4661 9.18528, 7.43175 9.18871, 7.3184 9.21276, 7.20504 9.23738, 7.09512 9.2494, 6.98806 9.24883, 6.56039 9.2494, 6.29647 9.23738, 6.1957 9.21276, 6.09494 9.18871, 6.04456 9.19444, 6.04456 9.2305, 6.03826 9.2494, 6.09952 9.24654, 6.22834 9.22192, 6.35772 9.19787, 6.63253 9.18528, 7.0539 9.1847, 7.27431 9.18528, 7.39683 9.19157, 7.42202 9.20302 Z M 9.55405 4.72371 C 9.3279 4.25998, 8.93803 4.02811, 8.38441 4.02754, 7.84396 4.02811, 7.32183 4.15635, 6.81859 4.41284, 6.31536 4.66932, 5.85449 5.01454, 5.43598 5.44793, 5.01805 5.8819, 4.65165 6.37941, 4.33676 6.94104, 4.02246 7.50324, 3.79288 8.0832, 3.64804 8.6809 L 2.58202 12.8488 C 2.50645 13.1671, 2.46867 13.4785, 2.46867 13.7831, 2.46867 13.9423, 2.48126 14.1043, 2.50645 14.2686, 2.56943 14.7026, 2.71255 15.0816, 2.93583 15.405, 3.15911 15.7291, 3.45968 15.9884, 3.83696 16.1836, 4.21425 16.3794, 4.64821 16.4768, 5.13885 16.4762, 5.49152 16.4768, 5.84361 16.3823, 6.1957 16.1928, 6.5478 16.0039, 6.8684 15.756, 7.15809 15.4503, 7.50389 15.0781, 7.76953 14.6665, 7.95503 14.2142, 8.14052 13.7625, 8.29796 13.2936, 8.42677 12.8081, 8.55616 12.3226, 8.64547 11.8509, 8.69585 11.3923 L 8.69585 11.1083 C 8.69585 10.7854, 8.63918 10.4769, 8.52582 10.1832, 8.47544 10.0675, 8.41761 9.96103, 8.3512 9.86313, 8.28536 9.7658, 8.22067 9.68279, 8.15769 9.61523, 7.76152 9.76866, 7.34015 9.84481, 6.89359 9.84424 L 6.48768 9.84424 C 6.31192 9.84481, 6.13616 9.83107, 5.95983 9.80359, 5.7835 9.77611, 5.63922 9.71657, 5.52587 9.62439, 5.41251 9.56371, 5.35583 9.46294, 5.35583 9.32211, 5.35583 9.27402, 5.36213 9.22822, 5.37472 9.1847, 5.41881 9.00837, 5.52415 8.87841, 5.69075 8.79597, 5.85792 8.71353, 6.03712 8.65571, 6.22891 8.62193, 6.4207 8.58872, 6.60448 8.57155, 6.78024 8.57097 L 7.16725 8.57097 C 7.57603 8.57155, 7.95045 8.63853, 8.28994 8.7725, 8.32201 8.74845, 8.35979 8.71353, 8.4033 8.66773, 8.44738 8.62193, 8.50063 8.56868, 8.5636 8.50685, 8.81551 8.25094, 9.0136 7.9624, 9.15787 7.64179, 9.30271 7.32119, 9.41893 6.98054, 9.5071 6.61986, 9.60786 6.26032, 9.67084 5.9151, 9.69603 5.58476 L 9.69603 5.4382 C 9.69603 5.17599, 9.64908 4.93783, 9.55405 4.72371 Z" stroke="none" fill="#0EA300" />
			<path d="M 13.1153 10.119 C 13.0649 10.2599, 12.9802 10.3303, 12.8606 10.3297 L 12.785 10.3297, 12.7283 10.3022 C 12.6092 10.2725, 12.5428 10.19, 12.5302 10.0549 L 12.5302 9.9908, 13.4829 4.0825 C 13.5275 3.80197, 13.6609 3.59014, 13.8842 3.44644, 14.1075 3.30331, 14.3325 3.23117, 14.5586 3.2306, 14.8042 3.23117, 15.0023 3.30732, 15.1529 3.4596, 15.2479 3.55178, 15.2949 3.67372, 15.2949 3.82601, 15.2949 3.93651, 15.2668 4.06475, 15.2096 4.21074 Z" stroke="none" fill="#0EA300" />
			<rect />
		</svg>
	</g>
	<g transform="matrix(1 0 -0 1 101.508 242.598)">
		<svg width="50.9839096" height="47.9999886">
			<defs />
			<path d="M 11.024 9.57859 C 10.7978 10.4339, 10.4772 11.2589, 10.0616 12.0524, 9.6465 12.8465, 9.15586 13.5667, 8.58965 14.2136, 8.58965 14.5136, 8.59595 14.8039, 8.60854 15.0844, 8.62114 15.3655, 8.64977 15.6111, 8.69385 15.8218, 8.73793 16.0325, 8.79461 16.1899, 8.86331 16.2936, 8.93258 16.3978, 9.02361 16.4493, 9.13697 16.4487, 9.34479 16.4493, 9.54288 16.3668, 9.73181 16.202, 9.92074 16.0371, 10.0433 15.8384, 10.0994 15.606, 10.1371 15.4354, 10.2476 15.3501, 10.4297 15.3495 L 10.5431 15.3495 C 10.6879 15.3501, 10.7663 15.4233, 10.7789 15.5693 L 10.7789 15.6335 C 10.7348 15.8293, 10.6564 16.013, 10.5431 16.1836, 10.4297 16.3548, 10.2929 16.506, 10.1326 16.6371, 9.97226 16.7682, 9.79765 16.8701, 9.60872 16.9434, 9.42036 17.0166, 9.22227 17.0533, 9.01445 17.0533, 8.46713 17.0533, 8.05206 16.889, 7.76925 16.5592, 7.48643 16.2294, 7.30379 15.8842, 7.22193 15.5235, 6.67461 15.9701, 6.04885 16.3365, 5.34409 16.6233, 4.63991 16.9102, 3.90709 17.0533, 3.14566 17.0533, 2.59261 17.0533, 2.08938 16.9405, 1.63652 16.7149, 1.18367 16.4894, 0.825274 16.1653, 0.560775 15.7434, 0.277955 15.3346, 0.101622 14.8617, 0.0323482 14.3236, 0.00715774 14.1713, -0.00543743 14.0064, -0.00543743 13.8289, -0.00543743 13.4631, 0.0483785 13.0846, 0.154865 12.693, 0.306008 12.1257, 0.547035 11.5807, 0.8768 11.0585, 1.20714 10.5364, 1.61763 10.0647, 2.1077 9.64271, 2.58631 9.25226, 3.10386 8.94253, 3.66034 8.71353, 4.21682 8.48452, 4.77216 8.37002, 5.3252 8.36945, 5.85363 8.37002, 6.3208 8.46964, 6.72613 8.66773, 7.13204 8.86639, 7.47497 9.13375, 7.75493 9.46924, 8.03489 9.8053, 8.24386 10.1975, 8.3824 10.6463, 8.52095 11.0952, 8.58965 11.5669, 8.58965 12.061 L 8.58965 13.2701 C 8.92342 12.8373, 9.25663 12.2848, 9.58983 11.6127, 9.92303 10.9412, 10.1778 10.2542, 10.3541 9.55111, 10.3919 9.3805, 10.5024 9.29234, 10.6845 9.28547 L 10.7789 9.28547 C 10.9427 9.28604, 11.024 9.35932, 11.024 9.50531 L 11.024 9.57859 Z M 7.09884 14.8732 C 7.09311 14.8308, 7.08681 14.7672, 7.08052 14.6814, 7.07422 14.5961, 7.07078 14.5102, 7.07078 14.4243 L 7.07078 12.3633 C 7.07078 11.9179, 7.04101 11.4925, 6.98147 11.086, 6.92193 10.6801, 6.82403 10.3183, 6.68892 10.0005, 6.55381 9.68336, 6.36774 9.43432, 6.13187 9.25398, 5.89599 9.07421, 5.5897 8.98375, 5.21184 8.98318, 4.85975 8.98375, 4.50422 9.07707, 4.14583 9.26314, 3.78744 9.44978, 3.46683 9.70454, 3.18344 10.0274, 2.83135 10.419, 2.56227 10.845, 2.37678 11.3059, 2.19128 11.7673, 2.03556 12.2448, 1.90961 12.7388, 1.78423 13.2278, 1.6932 13.6984, 1.63595 14.1495, 1.62335 14.2663, 1.61706 14.3819, 1.61706 14.4976, 1.61706 14.8216, 1.67087 15.1331, 1.77793 15.4319, 1.89758 15.7377, 2.08308 15.9838, 2.33441 16.1699, 2.58631 16.3565, 2.88803 16.4493, 3.24012 16.4487, 3.95118 16.4493, 4.63533 16.309, 5.29257 16.0279, 5.94981 15.7474, 6.55209 15.3621, 7.09884 14.8732 Z" stroke="none" fill="#0EA300" />
			<path d="M 13.0586 10.119 C 13.0083 10.2599, 12.9235 10.3303, 12.8039 10.3297 L 12.7283 10.3297, 12.6716 10.3022 C 12.5526 10.2725, 12.4861 10.19, 12.4735 10.0549 L 12.4735 9.9908, 13.4262 4.0825 C 13.4709 3.80197, 13.6043 3.59014, 13.8275 3.44644, 14.0508 3.30331, 14.2758 3.23117, 14.5019 3.2306, 14.7476 3.23117, 14.9456 3.30732, 15.0962 3.4596, 15.1912 3.55178, 15.2382 3.67372, 15.2382 3.82601, 15.2382 3.93651, 15.2101 4.06475, 15.1529 4.21074 Z" stroke="none" fill="#0EA300" />
			<rect />
		</svg>
	</g>
</svg>
