<?xml version="1.0"?>
<svg xmlns="http://www.w3.org/2000/svg" xmlns:xlink="http://www.w3.org/1999/xlink" width="309.280029" height="229.653198">
	<defs>
		<marker id="CustomMarker-01" markerUnits="strokeWidth" markerWidth="9" markerHeight="6" viewBox="-9 -3 9 6" orient="auto-start-reverse">
			<path d="M 0 -0 L -6 -2, -6 -0.5, -6 0.5, -6 2 Z" fill="#0080FF" stroke="#0080FF" stroke-linejoin="round" />
		</marker>
	</defs>
	<path d="M -72.922 -13.7513 C -69.7171 -30.7465, -60.7299 -45.875, -47.7949 -56.7667 L -31.594 -67.1453" fill="none" stroke="#0080FF" stroke-width="4" stroke-linecap="round" stroke-linejoin="round" marker-end="url(#CustomMarker-01)" transform="matrix(0.333333 0 -0 0.333333 276.378 193.205)" />
	<path d="M -366.442 -6.32492 L 366.442 -6.32492, 366.442 6.32492, -366.442 6.32492 Z" stroke="none" fill="#FFFFFF" transform="matrix(-0.327687 -0.0610956 0.0610956 -0.327687 156.299 170.817)" />
	<path d="M -366.442 -6.32492 L 366.442 -6.32492, 366.442 6.32492, -366.442 6.32492 Z" fill="none" stroke="#000000" stroke-width="3.60000014" stroke-linecap="round" stroke-linejoin="round" transform="matrix(-0.327687 -0.0610956 0.0610956 -0.327687 156.299 170.817)" />
	<path d="M 0 0 L 221.305 474.313" fill="none" stroke="#000000" stroke-width="4" stroke-linecap="round" stroke-linejoin="round" transform="matrix(0.333333 0 0 0.333333 202.609 34.2074)" />
	<path d="M 0 0 L 496.845 -339.985" fill="none" stroke="#0080FF" stroke-width="4" stroke-linecap="round" stroke-linejoin="round" transform="matrix(0.333333 0 0 0.333333 36.9942 147.536)" />
	<g transform="matrix(1 0 -0 1 12.0607 150.827)">
		<svg width="41.9788857" height="45.0428467">
			<defs />
			<path d="M 12.3983 16.5678 C 12.3296 16.751, 12.2099 16.8426, 12.0399 16.8426, 11.4113 16.806, 10.7849 16.7876, 10.1621 16.7876 L 9.85061 16.7876 C 9.11493 16.8002, 8.37582 16.8185, 7.63385 16.8426, 7.46439 16.8426, 7.37279 16.7636, 7.36019 16.6044 L 7.36019 16.5311, 7.39798 16.3754 C 7.44836 16.1745, 7.57088 16.0766, 7.76553 16.0823, 7.99854 16.0829, 8.20636 16.0754, 8.38842 16.06, 8.57105 16.0451, 8.74738 15.9913, 8.91685 15.8991, 8.97982 15.8693, 9.03364 15.8264, 9.07715 15.7709, 9.10234 15.7228, 9.11837 15.6735, 9.12409 15.6243 L 9.12409 15.5693, 8.89795 12.5282, 4.63333 12.5282, 3.13335 15.093 C 3.05148 15.2401, 3.01026 15.3747, 3.01026 15.4961, 3.01026 15.6002, 3.04175 15.6953, 3.10473 15.78, 3.24327 15.9821, 3.50148 16.0829, 3.87819 16.0823, 4.04822 16.0829, 4.13925 16.1562, 4.15185 16.3021, 4.15185 16.3394, 4.14555 16.3789, 4.13295 16.4212 L 4.09574 16.5678 C 4.02647 16.751, 3.90395 16.8426, 3.72762 16.8426, 3.14938 16.8185, 2.57687 16.8002, 2.01009 16.7876 L 1.75589 16.7876 C 1.26525 16.7876, 0.768314 16.806, 0.265078 16.8426, 0.170614 16.8426, 0.101341 16.8123, 0.0572573 16.751, 0.0194716 16.7149, 0.000578821 16.672, 0.000578821 16.6228, 0.000578821 16.5867, 0.00687641 16.55, 0.0194716 16.5128 L 0.0572573 16.3754 C 0.107638 16.1745, 0.230728 16.0766, 0.425381 16.0823, 0.626904 16.0829, 0.824993 16.0617, 1.01965 16.0188, 1.21487 15.9764, 1.3975 15.8997, 1.56697 15.7897, 1.737 15.6798, 1.89444 15.547, 2.03871 15.3913, 2.18356 15.2356, 2.31237 15.0598, 2.42573 14.864 L 9.08631 3.45961 C 9.19967 3.289, 9.34451 3.20656, 9.52084 3.21228 L 9.70004 3.21228 C 9.90156 3.21285, 10.0143 3.30732, 10.0395 3.49625 L 10.8697 15.4319 C 10.8823 15.5911, 10.9012 15.7119, 10.9264 15.7943, 10.9515 15.8768, 10.9956 15.9363, 11.0586 15.9724, 11.1468 16.0279, 11.2928 16.06, 11.4971 16.0691, 11.7021 16.0783, 11.9328 16.0829, 12.1905 16.0823, 12.3668 16.0829, 12.455 16.1562, 12.455 16.3021, 12.455 16.3394, 12.4487 16.3789, 12.4361 16.4212 Z M 8.4451 6.03361 L 5.08618 11.7862, 8.84127 11.7862 Z" stroke="none" fill="#000000" />
			<rect />
		</svg>
	</g>
	<g transform="matrix(1 0 -0 1 283.098 198.238)">
		<svg width="44.9376793" height="45.0428467">
			<defs />
			<path d="M 13.0332 7.12367 C 12.9267 7.56393, 12.7143 7.97614, 12.3966 8.36086, 12.0788 8.74559, 11.7124 9.07249, 11.2973 9.34043, 10.9704 9.56084, 10.6355 9.73489, 10.2926 9.86313, 9.94965 9.99137, 9.82828 10.0463, 9.92904 10.0274, 9.91072 10.0217, 10.0756 10.1001, 10.4248 10.2616, 10.7741 10.4236, 11.0804 10.6446, 11.3443 10.9251, 11.6403 11.2251, 11.8418 11.5852, 11.9483 12.006, 11.9987 12.2144, 12.0273 12.4188, 12.033 12.6198, 12.033 12.8522, 11.9987 13.0938, 11.9294 13.3434, 11.8103 13.814, 11.5899 14.2634, 11.2693 14.6905, 10.9487 15.1182, 10.5645 15.4903, 10.118 15.8075, 9.64622 16.1499, 9.1447 16.4081, 8.61342 16.5821, 8.08213 16.7561, 7.55198 16.8426, 7.02298 16.8426 L 0.267942 16.8426 C 0.173478 16.8426, 0.104204 16.8151, 0.0601207 16.7602, 0.0166099 16.7178, -0.00571795 16.672, -0.00571795 16.6228, -0.00571795 16.5867, 0.000579656 16.55, 0.0131749 16.5128 L 0.0509605 16.3754 C 0.0887462 16.1745, 0.211263 16.0766, 0.418512 16.0823, 0.714499 16.0829, 0.991594 16.0783, 1.24922 16.0691, 1.50685 16.06, 1.70208 16.0279, 1.83376 15.9724, 1.94711 15.9117, 2.03528 15.7468, 2.09826 15.4777 L 4.74955 5.15423 C 4.78733 5.02027, 4.80565 4.91664, 4.80565 4.84279, 4.80565 4.77008, 4.7902 4.72714, 4.75871 4.71455, 4.67054 4.66016, 4.49936 4.62695, 4.24459 4.61436, 3.98983 4.60234, 3.71159 4.59604, 3.4093 4.59547, 3.31541 4.59604, 3.24614 4.56569, 3.20205 4.50386, 3.16427 4.4678, 3.14538 4.422, 3.14538 4.36646, 3.14538 4.33039, 3.15511 4.29662, 3.17343 4.2657 L 3.20205 4.1283 C 3.22095 4.04357, 3.26675 3.97486, 3.33888 3.92277, 3.41102 3.87124, 3.48831 3.84491, 3.57018 3.84433 L 9.82542 3.84433 C 10.3413 3.84491, 10.8285 3.92162, 11.2876 4.07391, 11.7468 4.22677, 12.1275 4.4678, 12.4292 4.79699, 12.7252 5.09698, 12.933 5.44507, 13.0521 5.84125, 13.1025 6.04334, 13.1277 6.24773, 13.1277 6.45498, 13.1277 6.67539, 13.0962 6.8981, 13.0332 7.12367 Z M 11.1273 7.08703 C 11.1903 6.84314, 11.2218 6.59925, 11.2218 6.35422 L 11.2218 6.13437 C 11.1966 5.84182, 11.1084 5.56988, 10.9573 5.31912, 10.8256 5.09355, 10.651 4.91664, 10.434 4.7884, 10.217 4.66016, 9.96397 4.59604, 9.67428 4.59547 L 7.18329 4.59547 C 6.85009 4.59604, 6.6583 4.61722, 6.60791 4.65959, 6.53234 4.72142, 6.46021 4.89832, 6.39093 5.19088 L 5.2213 9.78927, 7.79702 9.78927 C 8.15541 9.78985, 8.51094 9.72, 8.86303 9.57916, 9.2157 9.4389, 9.55176 9.24024, 9.87236 8.98318, 10.5393 8.44617, 10.9578 7.81412, 11.1273 7.08703 Z M 9.96683 13.2885 C 10.055 12.9776, 10.0991 12.669, 10.0991 12.3633 L 10.0991 12.1709 C 10.0739 11.8297, 9.98286 11.5148, 9.82542 11.2274, 9.68687 10.9778, 9.49966 10.7746, 9.26379 10.6188, 9.02791 10.4631, 8.75311 10.3853, 8.43823 10.3847 L 5.05126 10.3847, 3.73964 15.5144 C 3.68926 15.7228, 3.66407 15.8722, 3.66407 15.9632, 3.66407 16.0125, 3.6675 16.0399, 3.6738 16.0457, 3.6864 16.0646, 3.85014 16.0766, 4.16444 16.0823 L 6.68349 16.0823 C 7.02928 16.0829, 7.37851 16.0084, 7.73061 15.8585, 8.08327 15.709, 8.40731 15.5121, 8.70273 15.267, 9.0302 14.9928, 9.29871 14.6848, 9.50939 14.3424, 9.72008 14.0007, 9.87294 13.6491, 9.96683 13.2885 Z" stroke="none" fill="#000000" />
			<rect />
		</svg>
	</g>
	<g transform="matrix(1 0 -0 1 211.112 9)">
		<svg width="44.9376793" height="45.0428467">
			<defs />
			<path d="M 12.9791 7.44427 C 12.8411 7.9395, 12.6052 8.39636, 12.272 8.81429, 11.9388 9.23279, 11.5421 9.59462, 11.0829 9.8992, 10.586 10.2416, 10.0564 10.4998, 9.49308 10.6738, 8.9303 10.8478, 8.3721 10.9349, 7.81848 10.9343 L 5.01605 10.9343, 3.83668 15.5144 C 3.79889 15.6495, 3.78 15.756, 3.78 15.835, 3.78 15.9088, 3.79603 15.9546, 3.82752 15.9724, 3.91569 16.0279, 4.08858 16.06, 4.34621 16.0691, 4.60441 16.0783, 4.88094 16.0829, 5.17635 16.0823, 5.35269 16.0829, 5.44085 16.1682, 5.44085 16.3388 L 5.44085 16.4029, 5.40307 16.5678 C 5.33379 16.751, 5.21128 16.8426, 5.03494 16.8426, 4.24889 16.806, 3.4594 16.7876, 2.66704 16.7876, 1.86839 16.7876, 1.06974 16.806, 0.270517 16.8426, 0.101054 16.8426, 0.0100247 16.7636, -0.00314299 16.6044 L -0.00314299 16.5311, 0.0346427 16.3754 C 0.0850235 16.1745, 0.207541 16.0766, 0.402194 16.0823, 0.698181 16.0829, 0.978139 16.0783, 1.24207 16.0691, 1.50657 16.06, 1.70122 16.0279, 1.82717 15.9724, 1.94683 15.906, 2.03785 15.7411, 2.10083 15.4777 L 4.75212 5.15423 C 4.78991 5.02027, 4.80823 4.91664, 4.80823 4.84279, 4.80823 4.77008, 4.79277 4.72714, 4.76128 4.71455, 4.67312 4.66016, 4.50194 4.62695, 4.24717 4.61436, 3.9924 4.60234, 3.71416 4.59604, 3.41188 4.59547, 3.23612 4.59604, 3.14795 4.5136, 3.14795 4.34814 L 3.14795 4.27486, 3.20463 4.11914 C 3.24241 3.93651, 3.35921 3.84491, 3.55386 3.84433 L 9.60128 3.84433 C 10.1555 3.84491, 10.6696 3.93193, 11.1442 4.10597, 11.6194 4.28001, 12.0264 4.54108, 12.3659 4.88859, 12.6739 5.21263, 12.8909 5.59736, 13.0169 6.04277, 13.0547 6.25116, 13.0736 6.46185, 13.0736 6.67482, 13.0736 6.91986, 13.0421 7.17634, 12.9791 7.44427 Z M 10.9696 7.39847 C 11.0766 7.01432, 11.1488 6.64162, 11.1866 6.28093 L 11.1866 6.11605 C 11.1866 5.83552, 11.1081 5.57904, 10.9507 5.3466, 10.7434 5.07237, 10.4663 4.87886, 10.1205 4.7655, 9.77475 4.65272, 9.40033 4.59604, 8.99786 4.59547 L 7.22365 4.59547 C 6.90304 4.59604, 6.71125 4.62066, 6.64827 4.66932, 6.5853 4.71856, 6.51946 4.89203, 6.45019 5.19088 L 5.13857 10.2473, 7.49731 10.2473 C 7.90608 10.2479, 8.31542 10.19, 8.7242 10.0738, 9.13297 9.95817, 9.51655 9.7595, 9.87494 9.47783, 10.1961 9.2036, 10.4337 8.88299, 10.5877 8.51659, 10.7417 8.15018, 10.8688 7.77748, 10.9696 7.39847 Z" stroke="none" fill="#E60000" />
			<rect />
		</svg>
	</g>
	<ellipse cx="1288.53759765625" cy="335.05291748046875" rx="12" ry="12" stroke="none" fill="#E60000" transform="matrix(0.333333 0 0 0.333333 -226.903 -77.4769)" />
	<ellipse cx="1288.53759765625" cy="335.05291748046875" rx="8" ry="8" stroke="none" fill="#FFFFFF" transform="matrix(0.333333 0 0 0.333333 -226.903 -77.4769)" />
	<path d="M 0 -14.3494 L 14.9669 14.3494, -14.9669 14.3494 Z" stroke="none" fill="#FFFFFF" transform="matrix(0.333333 0 -0 0.333333 276.378 192.312)" />
	<path d="M 0 -14.3494 L 14.9669 14.3494, -14.9669 14.3494 Z" fill="none" stroke="#000000" stroke-width="3.60000014" stroke-linecap="round" stroke-linejoin="round" transform="matrix(0.333333 0 -0 0.333333 276.378 192.312)" />
	<g transform="matrix(1 0 -0 1 240.147 157.262)">
		<svg width="39.020092" height="56.9999886">
			<defs />
			<path d="M 10.9882 6.6565 C 10.8817 7.08474, 10.6928 7.49408, 10.4225 7.88453, 10.1523 8.27556, 9.82484 8.61735, 9.44126 8.9099, 9.2718 9.05074, 9.15214 9.13948, 9.0823 9.17554, 9.30271 9.31066, 9.52599 9.53336, 9.75271 9.84424, 10.0355 10.2599, 10.2147 10.727, 10.2903 11.2457, 10.3029 11.4175, 10.3092 11.5881, 10.3092 11.7587, 10.3092 12.1137, 10.2651 12.4766, 10.1769 12.8488, 10.0264 13.411, 9.78591 13.9474, 9.45557 14.4569, 9.12524 14.9671, 8.70845 15.4233, 8.20521 15.8258, 7.74606 16.2174, 7.23996 16.5254, 6.68634 16.751, 6.13273 16.9771, 5.57625 17.0899, 5.01633 17.0899, 4.19249 17.0899, 3.51292 16.881, 2.9782 16.463, 2.44348 16.0451, 2.11371 15.6065, 1.98776 15.148 L 0.676138 20.2502 C 0.607437 20.403, 0.496942 20.4792, 0.3458 20.4792 L 0.251336 20.4792 C 0.170039 20.4792, 0.109926 20.4551, 0.0721399 20.4059, 0.0217591 20.3818, -0.00343132 20.3389, -0.00343132 20.2777, -0.00343132 20.2536, 0.00630134 20.2261, 0.0251942 20.1952 L 2.9782 8.64425 C 3.15453 7.9853, 3.41674 7.34294, 3.76597 6.71661, 4.1152 6.09086, 4.53085 5.53381, 5.01175 5.04489, 5.49266 4.55653, 6.03082 4.16265, 6.62509 3.86323, 7.21935 3.56438, 7.84396 3.41438, 8.49777 3.41381, 8.93803 3.41438, 9.33764 3.49854, 9.69603 3.66628, 10.0544 3.8346, 10.3567 4.06761, 10.6017 4.36646, 10.8285 4.66646, 10.9762 5.01741, 11.0449 5.41988, 11.0701 5.57904, 11.0826 5.73476, 11.0826 5.88705, 11.0826 6.1441, 11.0512 6.40059, 10.9882 6.6565 Z M 7.42202 9.20302 C 7.4661 9.18528, 7.43175 9.18871, 7.3184 9.21276, 7.20504 9.23738, 7.09512 9.2494, 6.98806 9.24883, 6.56039 9.2494, 6.29647 9.23738, 6.1957 9.21276, 6.09494 9.18871, 6.04456 9.19444, 6.04456 9.2305, 6.03826 9.2494, 6.09952 9.24654, 6.22834 9.22192, 6.35772 9.19787, 6.63253 9.18528, 7.0539 9.1847, 7.27431 9.18528, 7.39683 9.19157, 7.42202 9.20302 Z M 9.55405 4.72371 C 9.3279 4.25998, 8.93803 4.02811, 8.38441 4.02754, 7.84396 4.02811, 7.32183 4.15635, 6.81859 4.41284, 6.31536 4.66932, 5.85449 5.01454, 5.43598 5.44793, 5.01805 5.8819, 4.65165 6.37941, 4.33676 6.94104, 4.02246 7.50324, 3.79288 8.0832, 3.64804 8.6809 L 2.58202 12.8488 C 2.50645 13.1671, 2.46867 13.4785, 2.46867 13.7831, 2.46867 13.9423, 2.48126 14.1043, 2.50645 14.2686, 2.56943 14.7026, 2.71255 15.0816, 2.93583 15.405, 3.15911 15.7291, 3.45968 15.9884, 3.83696 16.1836, 4.21425 16.3794, 4.64821 16.4768, 5.13885 16.4762, 5.49152 16.4768, 5.84361 16.3823, 6.1957 16.1928, 6.5478 16.0039, 6.8684 15.756, 7.15809 15.4503, 7.50389 15.0781, 7.76953 14.6665, 7.95503 14.2142, 8.14052 13.7625, 8.29796 13.2936, 8.42677 12.8081, 8.55616 12.3226, 8.64547 11.8509, 8.69585 11.3923 L 8.69585 11.1083 C 8.69585 10.7854, 8.63918 10.4769, 8.52582 10.1832, 8.47544 10.0675, 8.41761 9.96103, 8.3512 9.86313, 8.28536 9.7658, 8.22067 9.68279, 8.15769 9.61523, 7.76152 9.76866, 7.34015 9.84481, 6.89359 9.84424 L 6.48768 9.84424 C 6.31192 9.84481, 6.13616 9.83107, 5.95983 9.80359, 5.7835 9.77611, 5.63922 9.71657, 5.52587 9.62439, 5.41251 9.56371, 5.35583 9.46294, 5.35583 9.32211, 5.35583 9.27402, 5.36213 9.22822, 5.37472 9.1847, 5.41881 9.00837, 5.52415 8.87841, 5.69075 8.79597, 5.85792 8.71353, 6.03712 8.65571, 6.22891 8.62193, 6.4207 8.58872, 6.60448 8.57155, 6.78024 8.57097 L 7.16725 8.57097 C 7.57603 8.57155, 7.95045 8.63853, 8.28994 8.7725, 8.32201 8.74845, 8.35979 8.71353, 8.4033 8.66773, 8.44738 8.62193, 8.50063 8.56868, 8.5636 8.50685, 8.81551 8.25094, 9.0136 7.9624, 9.15787 7.64179, 9.30271 7.32119, 9.41893 6.98054, 9.5071 6.61986, 9.60786 6.26032, 9.67084 5.9151, 9.69603 5.58476 L 9.69603 5.4382 C 9.69603 5.17599, 9.64908 4.93783, 9.55405 4.72371 Z" stroke="none" fill="#0080FF" />
			<rect />
		</svg>
	</g>
	<path d="M 0 -14.3492 L 14.9667 14.3492, -14.9667 14.3492 Z" stroke="none" fill="#FFFFFF" transform="matrix(0.333333 0 -0 0.333333 35.2406 148.533)" />
	<path d="M 0 -14.3492 L 14.9667 14.3492, -14.9667 14.3492 Z" fill="none" stroke="#000000" stroke-width="3.60000014" stroke-linecap="round" stroke-linejoin="round" transform="matrix(0.333333 0 -0 0.333333 35.2406 148.533)" />
	<g transform="matrix(1 0 -0 1 191.683 42.8616)">
		<svg width="36.0612984" height="41.9571342">
			<defs />
			<path d="M 10.2774 8.9557 C 9.66139 10.1225, 9.09518 11.2921, 8.57935 12.4646, 8.06352 13.6371, 7.60723 14.8279, 7.21105 16.0365, 7.16067 16.4584, 7.09483 16.8827, 7.01296 17.3098, 6.93109 17.7374, 6.83663 18.1617, 6.72957 18.583, 6.72957 18.5956, 6.71068 18.6901, 6.67289 18.867, 6.62308 19.0994, 6.55095 19.3634, 6.45648 19.6593, 6.36202 19.9559, 6.24866 20.2381, 6.11641 20.5067, 5.98473 20.7757, 5.84275 20.9097, 5.69161 20.9097, 5.51585 20.9097, 5.42482 20.7694, 5.41852 20.4883, 5.41852 20.458, 5.42482 20.4334, 5.43684 20.4151, 5.43684 20.1769, 5.46719 19.9101, 5.52673 19.6135, 5.58684 19.3176, 5.6481 19.0536, 5.7105 18.8212 L 5.78607 18.5555 C 5.99389 17.7128, 6.2458 16.8672, 6.54121 16.0182, 6.5916 15.5304, 6.61621 15.0415, 6.61621 14.5526 L 6.61621 13.9571 C 6.579 13.3045, 6.47251 12.665, 6.29618 12.0387, 6.11985 11.4129, 5.79752 10.8999, 5.32864 10.4998, 4.86033 10.1001, 4.2735 9.89977, 3.56874 9.8992, 3.24814 9.89977, 2.93097 9.95187, 2.61609 10.0555, 2.30178 10.1597, 2.01266 10.3017, 1.74816 10.4814, 1.48424 10.6618, 1.25809 10.8753, 1.06917 11.1227, 0.880238 11.37, 0.751423 11.6431, 0.682149 11.9419, 0.606578 12.0953, 0.499519 12.1715, 0.360972 12.1709 L 0.238454 12.1709 C 0.157158 12.1715, 0.0970445 12.1469, 0.0592589 12.0976, 0.0157481 12.0736, -0.00657976 12.0312, -0.00657976 11.9694, -0.00657976 11.9453, 0.00315291 11.9179, 0.0214732 11.887, 0.13483 11.4415, 0.312881 11.007, 0.555052 10.5822, 0.797224 10.158, 1.09264 9.7824, 1.44187 9.4555, 1.7911 9.12917, 2.17468 8.86639, 2.59261 8.66773, 3.01112 8.46964, 3.44966 8.37002, 3.90881 8.36945, 4.40575 8.37002, 4.82597 8.47708, 5.16834 8.69063, 5.51127 8.90475, 5.79409 9.17497, 6.01737 9.5013, 6.24065 9.82821, 6.42786 10.1917, 6.579 10.5914, 6.73014 10.9915, 6.85896 11.3837, 6.96544 11.7679, 7.0788 12.1898, 7.16239 12.6175, 7.21563 13.0509, 7.26945 13.4848, 7.29922 13.7682, 7.30551 13.9022, 7.90321 12.3026, 8.68927 10.5959, 9.66425 8.78166, 9.71463 8.64769, 9.81196 8.57784, 9.95623 8.57097, 10.0444 8.57155, 10.1074 8.57784, 10.1452 8.58929, 10.2648 8.61448, 10.3244 8.68433, 10.3244 8.79998, 10.3244 8.83719, 10.3089 8.88929, 10.2774 8.9557 Z" stroke="none" fill="#8B8B8B" />
			<rect />
		</svg>
	</g>
	<g transform="matrix(1 0 -0 1 247.411 96.0969)">
		<svg width="30.0150681" height="32.9571342">
			<defs />
			<path d="M 8.46055 14.0579 C 8.38498 14.3579, 8.30025 14.6785, 8.20578 15.0203, 8.11189 15.3627, 7.98594 15.6798, 7.8285 15.973, 7.67163 16.2661, 7.47354 16.5197, 7.23423 16.7332, 6.9955 16.9468, 6.69665 17.0533, 6.33826 17.0533, 5.86021 17.0533, 5.47835 16.921, 5.19209 16.6554, 4.90584 16.3897, 4.74095 16.1195, 4.69687 15.8441, 4.48333 16.0892, 4.16444 16.352, 3.73964 16.6325, 3.31483 16.913, 2.86656 17.0533, 2.39481 17.0533, 1.89844 17.0533, 1.48223 16.9285, 1.14559 16.6783, 0.808958 16.4281, 0.546749 16.1132, 0.35782 15.7342, 0.131106 15.2831, 0.011452 14.7976, -0.00114328 14.2778 L -0.00114328 14.1403 C -0.00114328 13.6583, 0.0652679 13.1762, 0.196945 12.693, 0.348088 12.1623, 0.559344 11.6373, 0.829568 11.1181, 1.09979 10.5994, 1.45818 10.1167, 1.90474 9.67019, 2.26943 9.30436, 2.68622 8.99635, 3.15453 8.74559, 3.62284 8.4954, 4.09917 8.37002, 4.58351 8.36945, 5.00488 8.37002, 5.34782 8.48166, 5.61174 8.70437, 5.87624 8.92765, 6.04284 9.112, 6.11154 9.25799 L 6.07376 9.41371 C 6.11841 9.18814, 6.22375 9.01753, 6.39036 8.90131, 6.55696 8.78566, 6.72527 8.72727, 6.89474 8.7267, 7.08996 8.72727, 7.2537 8.78509, 7.38538 8.90074, 7.46725 8.99291, 7.51133 9.11486, 7.51705 9.26715, 7.51705 9.32268, 7.51076 9.38394, 7.49816 9.45035 L 6.14017 14.7449 C 6.07719 14.9957, 6.03311 15.231, 6.00792 15.4503, 5.99532 15.5607, 5.98903 15.6615, 5.98903 15.7525, 5.98903 15.8327, 5.99532 15.918, 6.00792 16.009, 6.02681 16.1562, 6.07089 16.2661, 6.14017 16.3394, 6.20944 16.4126, 6.30677 16.4493, 6.43215 16.4487, 6.5644 16.4493, 6.68863 16.3943, 6.80485 16.2844, 6.92164 16.1745, 7.0287 16.0113, 7.12603 15.7943, 7.22336 15.5779, 7.3161 15.318, 7.40427 15.0157, 7.49244 14.7134, 7.58347 14.3854, 7.67736 14.0304, 7.71514 13.8724, 7.8222 13.7928, 7.99853 13.7923 L 8.21552 13.7923 C 8.37925 13.7928, 8.46055 13.8598, 8.46055 13.9938 L 8.46055 14.0579 Z M 5.76288 10.687 C 5.73769 10.5776, 5.71594 10.4631, 5.69705 10.344, 5.67815 10.225, 5.64953 10.1076, 5.61174 9.9908, 5.51098 9.70454, 5.36785 9.46466, 5.18236 9.2723, 4.99687 9.07994, 4.76271 8.98375, 4.47989 8.98318, 4.21596 8.98375, 3.9549 9.07879, 3.69727 9.26772, 3.43964 9.45722, 3.20319 9.70111, 2.98908 9.99996, 2.68793 10.4219, 2.46179 10.8604, 2.31065 11.315, 2.15951 11.7702, 2.02096 12.2448, 1.89501 12.7388, 1.76963 13.2278, 1.66601 13.7012, 1.58356 14.1587, 1.53376 14.3911, 1.50856 14.611, 1.50856 14.8182, 1.50856 15.0386, 1.53376 15.2522, 1.58356 15.4594, 1.64081 15.7468, 1.74272 15.9838, 1.89043 16.1699, 2.03814 16.3565, 2.24424 16.4493, 2.50817 16.4487, 2.79786 16.4493, 3.08869 16.3485, 3.38067 16.147, 3.67322 15.9455, 3.94517 15.6981, 4.1965 15.4045, 4.29726 15.2831, 4.39344 15.1657, 4.48447 15.0524, 4.57607 14.9396, 4.65622 14.8188, 4.72492 14.69 L 5.76288 10.687 Z" stroke="none" fill="#8B8B8B" />
			<rect />
		</svg>
	</g>
	<g transform="matrix(1 0 -0 1 83.8002 67.1958)">
		<svg width="98.9678192" height="54.0428391">
			<defs />
			<path d="M 13.6778 10.4854 C 13.4643 11.3104, 13.1265 12.1074, 12.6639 12.8768, 12.2013 13.6463, 11.6214 14.3453, 10.9235 14.9739, 10.288 15.5424, 9.59012 15.9959, 8.82925 16.3348, 8.06838 16.6737, 7.30752 16.8426, 6.54608 16.8426 L 0.273665 16.8426 C 0.104202 16.8426, 0.0131732 16.7636, 5.44265e-006 16.6044 L 5.44265e-006 16.5311, 0.0377911 16.3754 C 0.0881719 16.1745, 0.210689 16.0766, 0.405342 16.0823, 0.70133 16.0829, 0.981287 16.0783, 1.24521 16.0691, 1.50971 16.06, 1.70437 16.0279, 1.82975 15.9724, 1.9494 15.906, 2.04043 15.7411, 2.10341 15.4777 L 4.75413 5.15423 C 4.79191 5.02027, 4.8108 4.91664, 4.8108 4.84279, 4.8108 4.77008, 4.79535 4.72714, 4.76329 4.71455, 4.67569 4.66016, 4.50451 4.62695, 4.24974 4.61436, 3.99498 4.60234, 3.71674 4.59604, 3.41445 4.59547, 3.23869 4.59604, 3.15053 4.5136, 3.15053 4.34814 L 3.15053 4.27486, 3.20721 4.11914 C 3.24499 3.93651, 3.36121 3.84491, 3.55586 3.84433 L 9.84774 3.84433 C 10.6275 3.84491, 11.3071 4.02525, 11.8853 4.38535, 12.4641 4.74604, 12.9296 5.21893, 13.2817 5.80461, 13.6589 6.46471, 13.8725 7.19752, 13.9229 8.00304, 13.9355 8.1748, 13.9418 8.33338, 13.9418 8.47937, 13.9418 9.13318, 13.8542 9.80187, 13.6778 10.4854 Z M 11.8573 6.22597 C 11.6437 5.71988, 11.3088 5.32141, 10.8525 5.03115, 10.3968 4.74146, 9.86378 4.59604, 9.25348 4.59547 L 7.22565 4.59547 C 6.90505 4.59604, 6.71325 4.62066, 6.65028 4.66932, 6.5873 4.71856, 6.52146 4.89203, 6.45219 5.19088 L 3.78258 15.5144 C 3.7322 15.7228, 3.70701 15.8722, 3.70701 15.9632 L 3.70701 16.0365 C 3.7322 16.0617, 3.8988 16.0766, 4.20681 16.0823 L 6.23521 16.0823 C 6.85123 16.0829, 7.4661 15.9443, 8.07926 15.6661, 8.69242 15.3884, 9.24088 15.002, 9.72523 14.5068, 10.2788 13.9331, 10.7036 13.2936, 10.9991 12.5883, 11.2945 11.8829, 11.5304 11.1702, 11.7061 10.4488, 11.9013 9.69825, 12.0364 8.95627, 12.112 8.22289, 12.1246 8.05228, 12.1309 7.8874, 12.1309 7.72824, 12.1309 7.19123, 12.0399 6.69085, 11.8573 6.22597 Z" stroke="none" fill="#0080FF" />
			<path d="M 3.7093 3.0535 C 3.67083 3.15609, 3.60382 3.20739, 3.5086 3.20739, 3.15658 3.18687, 2.80616 3.17661, 2.45734 3.17661 L 2.28325 3.17661 C 1.87127 3.18366, 1.45737 3.19392, 1.04187 3.20739, 0.946967 3.20739, 0.89567 3.16314, 0.888617 3.07402 L 0.888617 3.03298, 0.909777 2.94577 C 0.93799 2.83324, 1.0066 2.77842, 1.11561 2.78162, 1.24609 2.78194, 1.36247 2.77778, 1.46442 2.76912, 1.56638 2.76078, 1.66512 2.73065, 1.76002 2.67903, 1.79529 2.66236, 1.82543 2.63831, 1.84979 2.60721, 1.8639 2.58028, 1.87288 2.55271, 1.8764 2.52514 L 1.8764 2.49436, 1.74944 0.791305, -0.638106 0.791305, -1.47809 2.22762 C -1.52362 2.31001, -1.5467 2.38536, -1.5467 2.45332, -1.5467 2.51167, -1.52907 2.56489, -1.4938 2.61234, -1.41622 2.72552, -1.27194 2.78194, -1.06066 2.78162, -0.965445 2.78194, -0.914468 2.82298, -0.907415 2.90474, -0.907415 2.92558, -0.910942 2.9477, -0.917995 2.97142 L -0.939155 3.0535 C -0.977628 3.15609, -1.04656 3.20739, -1.1453 3.20739, -1.46912 3.19392, -1.78972 3.18366, -2.1068 3.17661 L -2.24915 3.17661 C -2.52391 3.17661, -2.80219 3.18687, -3.08401 3.20739, -3.13658 3.20739, -3.17538 3.1904, -3.20006 3.15609, -3.22122 3.13589, -3.2318 3.11185, -3.2318 3.08428, -3.2318 3.06408, -3.22828 3.04356, -3.22122 3.02272 L -3.20006 2.94577 C -3.17185 2.83324, -3.10324 2.77842, -2.99424 2.78162, -2.88138 2.78194, -2.77013 2.77008, -2.66113 2.74604, -2.55212 2.72231, -2.44985 2.67935, -2.35495 2.61779, -2.25973 2.55624, -2.17156 2.48186, -2.09077 2.39465, -2.00966 2.30745, -1.93752 2.20902, -1.87436 2.09938 L 1.85524 -4.28709 C 1.91872 -4.38263, 1.99951 -4.42879, 2.09826 -4.42559 L 2.19861 -4.42559 C 2.31146 -4.42527, 2.37462 -4.37237, 2.38873 -4.26657 L 2.85361 2.41742 C 2.86066 2.50654, 2.87124 2.57419, 2.88535 2.62036, 2.89945 2.66653, 2.92414 2.69987, 2.95941 2.72007, 3.00878 2.75117, 3.09053 2.76912, 3.20499 2.77425, 3.31945 2.77938, 3.44897 2.78194, 3.59324 2.78162, 3.69199 2.78194, 3.74104 2.82298, 3.74104 2.90474, 3.74104 2.92558, 3.73752 2.9477, 3.73046 2.97142 Z M 1.49616 -2.84564 L -0.384507 0.375801, 1.71802 0.375801 Z" stroke="none" fill="#0080FF" transform="matrix(1.12 0 0 1 18.148 16.3063)" />
			<path d="M 3.99564 -2.05567 C 3.91838 -1.77835, 3.78629 -1.5225, 3.59969 -1.28846, 3.4131 -1.0541, 3.19124 -0.851477, 2.93412 -0.680915, 2.65583 -0.489193, 2.35927 -0.3446, 2.04412 -0.247136, 1.72896 -0.149672, 1.41637 -0.10094, 1.10634 -0.10126 L -0.462699 -0.10126, -1.12283 2.46358 C -1.14399 2.53925, -1.15457 2.59888, -1.15457 2.64312, -1.15457 2.68448, -1.14559 2.71013, -1.12828 2.72007, -1.0789 2.75117, -0.981759 2.76912, -0.837487 2.77425, -0.693214 2.77938, -0.538362 2.78194, -0.372929 2.78162, -0.274183 2.78194, -0.224809 2.82972, -0.224809 2.92526 L -0.224809 2.96116, -0.24597 3.0535 C -0.284442 3.15609, -0.353372 3.20739, -0.452119 3.20739, -0.891989 3.18687, -1.3341 3.17661, -1.77782 3.17661, -2.22507 3.17661, -2.67231 3.18687, -3.11956 3.20739, -3.21446 3.20739, -3.26543 3.16314, -3.27281 3.07402 L -3.27281 3.03298, -3.25165 2.94577 C -3.22343 2.83324, -3.15482 2.77842, -3.04582 2.78162, -2.88006 2.78194, -2.72329 2.77938, -2.57549 2.77425, -2.42737 2.76912, -2.31836 2.75117, -2.24815 2.72007, -2.18114 2.68288, -2.13017 2.59054, -2.0949 2.44306 L -0.610498 -3.33809 C -0.589338 -3.41311, -0.578758 -3.47114, -0.578758 -3.5125, -0.578758 -3.55322, -0.587414 -3.57727, -0.605368 -3.58432, -0.654421 -3.61478, -0.750282 -3.63337, -0.892951 -3.64042, -1.03562 -3.64716, -1.19143 -3.65068, -1.36071 -3.651, -1.45914 -3.65068, -1.50851 -3.69685, -1.50851 -3.78951 L -1.50851 -3.83054, -1.47677 -3.91775 C -1.45561 -4.02002, -1.39053 -4.07132, -1.28153 -4.07164 L 2.10471 -4.07164 C 2.41474 -4.07132, 2.70264 -4.02259, 2.96842 -3.92512, 3.23452 -3.82766, 3.46247 -3.68146, 3.65227 -3.48685, 3.82508 -3.30539, 3.94659 -3.08994, 4.0168 -2.84051, 4.03796 -2.72381, 4.04854 -2.60583, 4.04854 -2.48656, 4.04854 -2.34935, 4.03091 -2.20571, 3.99564 -2.05567 Z M 2.87064 -2.08132 C 2.93059 -2.29645, 2.97099 -2.50516, 2.99215 -2.70714 L 2.99215 -2.79948 C 2.99215 -2.95657, 2.94822 -3.1002, 2.86006 -3.23037, 2.744 -3.38394, 2.58882 -3.4923, 2.39518 -3.55578, 2.20153 -3.61894, 1.99218 -3.65068, 1.76647 -3.651 L 0.773556 -3.651 C 0.594017 -3.65068, 0.486614 -3.6369, 0.451348 -3.60965, 0.416081 -3.58207, 0.379211 -3.48493, 0.340418 -3.31757 L -0.394089 -0.485987, 0.926805 -0.485987 C 1.15572 -0.485666, 1.38463 -0.518047, 1.61354 -0.58313, 1.84245 -0.647892, 2.05726 -0.759143, 2.25796 -0.916881, 2.4375 -1.07045, 2.57055 -1.24999, 2.65679 -1.45518, 2.74304 -1.66036, 2.81421 -1.86908, 2.87064 -2.08132 Z" stroke="none" fill="#0080FF" transform="matrix(1.12 0 0 1 26.6634 16.3063)" />
			<rect />
		</svg>
	</g>
	<g transform="matrix(1 0 -0 1 146.219 171.391)">
		<svg width="27.0562763" height="32.9571342">
			<defs />
			<path d="M 7.07136 14.6075 C 7.11601 14.651, 7.13777 14.6968, 7.13777 14.7449, 7.13777 14.8005, 7.11258 14.8617, 7.0622 14.9281, 6.56526 15.6186, 5.93206 16.1458, 5.16146 16.5088, 4.39087 16.8718, 3.61912 17.0533, 2.84566 17.0533, 2.29834 17.0533, 1.82373 16.9331, 1.42126 16.692, 1.01878 16.451, 0.701041 16.135, 0.468602 15.7434, 0.204675 15.3043, 0.053532 14.8251, 0.0157464 14.3052, 0.00315118 14.1776, -0.00314647 14.0493, -0.00314647 13.9205, -0.00314647 13.5301, 0.0472344 13.1241, 0.147424 12.7022, 0.298566 12.1411, 0.52986 11.6007, 0.841305 11.0814, 1.15275 10.5627, 1.54377 10.0858, 2.01552 9.65187, 2.44949 9.27402, 2.92925 8.96543, 3.45424 8.72727, 3.97923 8.4891, 4.50594 8.37002, 5.03379 8.36945, 5.35497 8.37002, 5.65554 8.41926, 5.93492 8.51659, 6.21488 8.61448, 6.45362 8.75647, 6.65171 8.94253, 6.84979 9.12917, 6.99292 9.3473, 7.08109 9.59691, 7.10628 9.73202, 7.11887 9.86599, 7.11887 9.99996, 7.11887 10.1471, 7.09998 10.3028, 7.0622 10.4671, 6.99292 10.7425, 6.85151 10.952, 6.63739 11.0952, 6.42385 11.2389, 6.2103 11.3104, 5.99618 11.3099, 5.77004 11.3104, 5.58741 11.2309, 5.44886 11.0717, 5.34238 10.9686, 5.28856 10.8341, 5.28856 10.6686, 5.28856 10.6022, 5.30116 10.5198, 5.32635 10.4213, 5.39562 10.1534, 5.53245 9.95358, 5.73684 9.82191, 5.94122 9.6908, 6.09981 9.6221, 6.21316 9.61523, 6.15019 9.46294, 6.00076 9.31982, 5.76489 9.18528, 5.52902 9.05131, 5.24791 8.98375, 4.92101 8.98318, 4.6067 8.98375, 4.28438 9.07994, 3.95404 9.2723, 3.62428 9.46466, 3.33344 9.7137, 3.08154 10.0183, 2.74204 10.4156, 2.48269 10.845, 2.3035 11.3059, 2.1243 11.7673, 1.97144 12.2448, 1.84549 12.7388, 1.72011 13.2278, 1.62278 13.7012, 1.55294 14.1587, 1.52774 14.3058, 1.51515 14.4432, 1.51515 14.5709, 1.51515 14.8709, 1.56553 15.1577, 1.66629 15.4319, 1.76076 15.7377, 1.91934 15.9838, 2.14262 16.1699, 2.3659 16.3565, 2.63498 16.4493, 2.94929 16.4487, 3.61569 16.4493, 4.26663 16.2787, 4.90212 15.9363, 5.5376 15.5945, 6.06259 15.1302, 6.47709 14.5434, 6.51488 14.477, 6.58759 14.4249, 6.69407 14.3877 L 6.76964 14.3877 C 6.83262 14.3882, 6.88644 14.4094, 6.92995 14.4518 L 7.07136 14.6075 Z" stroke="none" fill="#8B8B8B" />
			<rect />
		</svg>
	</g>
</svg>
