<?xml version="1.0"?>
<svg xmlns="http://www.w3.org/2000/svg" xmlns:xlink="http://www.w3.org/1999/xlink" width="309.280029" height="229.653198">
	<defs />
	<path d="M -366.442 -6.32492 L 366.442 -6.32492, 366.442 6.32492, -366.442 6.32492 Z" stroke="none" fill="#FFFFFF" transform="matrix(-0.327687 -0.0610956 0.0610956 -0.327687 156.299 170.817)" />
	<path d="M -366.442 -6.32492 L 366.442 -6.32492, 366.442 6.32492, -366.442 6.32492 Z" fill="none" stroke="#000000" stroke-width="3.60000014" stroke-linecap="round" stroke-linejoin="round" transform="matrix(-0.327687 -0.0610956 0.0610956 -0.327687 156.299 170.817)" />
	<path d="M 0 0 L 221.305 474.313" fill="none" stroke="#0080FF" stroke-width="4" stroke-linecap="round" stroke-linejoin="round" transform="matrix(0.333333 0 0 0.333333 202.609 34.2074)" />
	<path d="M 0 0 L 496.845 -339.985" fill="none" stroke="#0080FF" stroke-width="4" stroke-linecap="round" stroke-linejoin="round" transform="matrix(0.333333 0 0 0.333333 36.9942 147.536)" />
	<g transform="matrix(1 0 -0 1 12.0607 150.827)">
		<svg width="41.9788857" height="45.0428467">
			<defs />
			<path d="M 12.3983 16.5678 C 12.3296 16.751, 12.2099 16.8426, 12.0399 16.8426, 11.4113 16.806, 10.7849 16.7876, 10.1621 16.7876 L 9.85061 16.7876 C 9.11493 16.8002, 8.37582 16.8185, 7.63385 16.8426, 7.46439 16.8426, 7.37279 16.7636, 7.36019 16.6044 L 7.36019 16.5311, 7.39798 16.3754 C 7.44836 16.1745, 7.57088 16.0766, 7.76553 16.0823, 7.99854 16.0829, 8.20636 16.0754, 8.38842 16.06, 8.57105 16.0451, 8.74738 15.9913, 8.91685 15.8991, 8.97982 15.8693, 9.03364 15.8264, 9.07715 15.7709, 9.10234 15.7228, 9.11837 15.6735, 9.12409 15.6243 L 9.12409 15.5693, 8.89795 12.5282, 4.63333 12.5282, 3.13335 15.093 C 3.05148 15.2401, 3.01026 15.3747, 3.01026 15.4961, 3.01026 15.6002, 3.04175 15.6953, 3.10473 15.78, 3.24327 15.9821, 3.50148 16.0829, 3.87819 16.0823, 4.04822 16.0829, 4.13925 16.1562, 4.15185 16.3021, 4.15185 16.3394, 4.14555 16.3789, 4.13295 16.4212 L 4.09574 16.5678 C 4.02647 16.751, 3.90395 16.8426, 3.72762 16.8426, 3.14938 16.8185, 2.57687 16.8002, 2.01009 16.7876 L 1.75589 16.7876 C 1.26525 16.7876, 0.768314 16.806, 0.265078 16.8426, 0.170614 16.8426, 0.101341 16.8123, 0.0572573 16.751, 0.0194716 16.7149, 0.000578821 16.672, 0.000578821 16.6228, 0.000578821 16.5867, 0.00687641 16.55, 0.0194716 16.5128 L 0.0572573 16.3754 C 0.107638 16.1745, 0.230728 16.0766, 0.425381 16.0823, 0.626904 16.0829, 0.824993 16.0617, 1.01965 16.0188, 1.21487 15.9764, 1.3975 15.8997, 1.56697 15.7897, 1.737 15.6798, 1.89444 15.547, 2.03871 15.3913, 2.18356 15.2356, 2.31237 15.0598, 2.42573 14.864 L 9.08631 3.45961 C 9.19967 3.289, 9.34451 3.20656, 9.52084 3.21228 L 9.70004 3.21228 C 9.90156 3.21285, 10.0143 3.30732, 10.0395 3.49625 L 10.8697 15.4319 C 10.8823 15.5911, 10.9012 15.7119, 10.9264 15.7943, 10.9515 15.8768, 10.9956 15.9363, 11.0586 15.9724, 11.1468 16.0279, 11.2928 16.06, 11.4971 16.0691, 11.7021 16.0783, 11.9328 16.0829, 12.1905 16.0823, 12.3668 16.0829, 12.455 16.1562, 12.455 16.3021, 12.455 16.3394, 12.4487 16.3789, 12.4361 16.4212 Z M 8.4451 6.03361 L 5.08618 11.7862, 8.84127 11.7862 Z" stroke="none" fill="#000000" />
			<rect />
		</svg>
	</g>
	<g transform="matrix(1 0 -0 1 283.098 198.238)">
		<svg width="44.9376793" height="45.0428467">
			<defs />
			<path d="M 13.0332 7.12367 C 12.9267 7.56393, 12.7143 7.97614, 12.3966 8.36086, 12.0788 8.74559, 11.7124 9.07249, 11.2973 9.34043, 10.9704 9.56084, 10.6355 9.73489, 10.2926 9.86313, 9.94965 9.99137, 9.82828 10.0463, 9.92904 10.0274, 9.91072 10.0217, 10.0756 10.1001, 10.4248 10.2616, 10.7741 10.4236, 11.0804 10.6446, 11.3443 10.9251, 11.6403 11.2251, 11.8418 11.5852, 11.9483 12.006, 11.9987 12.2144, 12.0273 12.4188, 12.033 12.6198, 12.033 12.8522, 11.9987 13.0938, 11.9294 13.3434, 11.8103 13.814, 11.5899 14.2634, 11.2693 14.6905, 10.9487 15.1182, 10.5645 15.4903, 10.118 15.8075, 9.64622 16.1499, 9.1447 16.4081, 8.61342 16.5821, 8.08213 16.7561, 7.55198 16.8426, 7.02298 16.8426 L 0.267942 16.8426 C 0.173478 16.8426, 0.104204 16.8151, 0.0601207 16.7602, 0.0166099 16.7178, -0.00571795 16.672, -0.00571795 16.6228, -0.00571795 16.5867, 0.000579656 16.55, 0.0131749 16.5128 L 0.0509605 16.3754 C 0.0887462 16.1745, 0.211263 16.0766, 0.418512 16.0823, 0.714499 16.0829, 0.991594 16.0783, 1.24922 16.0691, 1.50685 16.06, 1.70208 16.0279, 1.83376 15.9724, 1.94711 15.9117, 2.03528 15.7468, 2.09826 15.4777 L 4.74955 5.15423 C 4.78733 5.02027, 4.80565 4.91664, 4.80565 4.84279, 4.80565 4.77008, 4.7902 4.72714, 4.75871 4.71455, 4.67054 4.66016, 4.49936 4.62695, 4.24459 4.61436, 3.98983 4.60234, 3.71159 4.59604, 3.4093 4.59547, 3.31541 4.59604, 3.24614 4.56569, 3.20205 4.50386, 3.16427 4.4678, 3.14538 4.422, 3.14538 4.36646, 3.14538 4.33039, 3.15511 4.29662, 3.17343 4.2657 L 3.20205 4.1283 C 3.22095 4.04357, 3.26675 3.97486, 3.33888 3.92277, 3.41102 3.87124, 3.48831 3.84491, 3.57018 3.84433 L 9.82542 3.84433 C 10.3413 3.84491, 10.8285 3.92162, 11.2876 4.07391, 11.7468 4.22677, 12.1275 4.4678, 12.4292 4.79699, 12.7252 5.09698, 12.933 5.44507, 13.0521 5.84125, 13.1025 6.04334, 13.1277 6.24773, 13.1277 6.45498, 13.1277 6.67539, 13.0962 6.8981, 13.0332 7.12367 Z M 11.1273 7.08703 C 11.1903 6.84314, 11.2218 6.59925, 11.2218 6.35422 L 11.2218 6.13437 C 11.1966 5.84182, 11.1084 5.56988, 10.9573 5.31912, 10.8256 5.09355, 10.651 4.91664, 10.434 4.7884, 10.217 4.66016, 9.96397 4.59604, 9.67428 4.59547 L 7.18329 4.59547 C 6.85009 4.59604, 6.6583 4.61722, 6.60791 4.65959, 6.53234 4.72142, 6.46021 4.89832, 6.39093 5.19088 L 5.2213 9.78927, 7.79702 9.78927 C 8.15541 9.78985, 8.51094 9.72, 8.86303 9.57916, 9.2157 9.4389, 9.55176 9.24024, 9.87236 8.98318, 10.5393 8.44617, 10.9578 7.81412, 11.1273 7.08703 Z M 9.96683 13.2885 C 10.055 12.9776, 10.0991 12.669, 10.0991 12.3633 L 10.0991 12.1709 C 10.0739 11.8297, 9.98286 11.5148, 9.82542 11.2274, 9.68687 10.9778, 9.49966 10.7746, 9.26379 10.6188, 9.02791 10.4631, 8.75311 10.3853, 8.43823 10.3847 L 5.05126 10.3847, 3.73964 15.5144 C 3.68926 15.7228, 3.66407 15.8722, 3.66407 15.9632, 3.66407 16.0125, 3.6675 16.0399, 3.6738 16.0457, 3.6864 16.0646, 3.85014 16.0766, 4.16444 16.0823 L 6.68349 16.0823 C 7.02928 16.0829, 7.37851 16.0084, 7.73061 15.8585, 8.08327 15.709, 8.40731 15.5121, 8.70273 15.267, 9.0302 14.9928, 9.29871 14.6848, 9.50939 14.3424, 9.72008 14.0007, 9.87294 13.6491, 9.96683 13.2885 Z" stroke="none" fill="#000000" />
			<rect />
		</svg>
	</g>
	<g transform="matrix(1 0 -0 1 211.112 9)">
		<svg width="44.9376793" height="45.0428467">
			<defs />
			<path d="M 12.9791 7.44427 C 12.8411 7.9395, 12.6052 8.39636, 12.272 8.81429, 11.9388 9.23279, 11.5421 9.59462, 11.0829 9.8992, 10.586 10.2416, 10.0564 10.4998, 9.49308 10.6738, 8.9303 10.8478, 8.3721 10.9349, 7.81848 10.9343 L 5.01605 10.9343, 3.83668 15.5144 C 3.79889 15.6495, 3.78 15.756, 3.78 15.835, 3.78 15.9088, 3.79603 15.9546, 3.82752 15.9724, 3.91569 16.0279, 4.08858 16.06, 4.34621 16.0691, 4.60441 16.0783, 4.88094 16.0829, 5.17635 16.0823, 5.35269 16.0829, 5.44085 16.1682, 5.44085 16.3388 L 5.44085 16.4029, 5.40307 16.5678 C 5.33379 16.751, 5.21128 16.8426, 5.03494 16.8426, 4.24889 16.806, 3.4594 16.7876, 2.66704 16.7876, 1.86839 16.7876, 1.06974 16.806, 0.270517 16.8426, 0.101054 16.8426, 0.0100247 16.7636, -0.00314299 16.6044 L -0.00314299 16.5311, 0.0346427 16.3754 C 0.0850235 16.1745, 0.207541 16.0766, 0.402194 16.0823, 0.698181 16.0829, 0.978139 16.0783, 1.24207 16.0691, 1.50657 16.06, 1.70122 16.0279, 1.82717 15.9724, 1.94683 15.906, 2.03785 15.7411, 2.10083 15.4777 L 4.75212 5.15423 C 4.78991 5.02027, 4.80823 4.91664, 4.80823 4.84279, 4.80823 4.77008, 4.79277 4.72714, 4.76128 4.71455, 4.67312 4.66016, 4.50194 4.62695, 4.24717 4.61436, 3.9924 4.60234, 3.71416 4.59604, 3.41188 4.59547, 3.23612 4.59604, 3.14795 4.5136, 3.14795 4.34814 L 3.14795 4.27486, 3.20463 4.11914 C 3.24241 3.93651, 3.35921 3.84491, 3.55386 3.84433 L 9.60128 3.84433 C 10.1555 3.84491, 10.6696 3.93193, 11.1442 4.10597, 11.6194 4.28001, 12.0264 4.54108, 12.3659 4.88859, 12.6739 5.21263, 12.8909 5.59736, 13.0169 6.04277, 13.0547 6.25116, 13.0736 6.46185, 13.0736 6.67482, 13.0736 6.91986, 13.0421 7.17634, 12.9791 7.44427 Z M 10.9696 7.39847 C 11.0766 7.01432, 11.1488 6.64162, 11.1866 6.28093 L 11.1866 6.11605 C 11.1866 5.83552, 11.1081 5.57904, 10.9507 5.3466, 10.7434 5.07237, 10.4663 4.87886, 10.1205 4.7655, 9.77475 4.65272, 9.40033 4.59604, 8.99786 4.59547 L 7.22365 4.59547 C 6.90304 4.59604, 6.71125 4.62066, 6.64827 4.66932, 6.5853 4.71856, 6.51946 4.89203, 6.45019 5.19088 L 5.13857 10.2473, 7.49731 10.2473 C 7.90608 10.2479, 8.31542 10.19, 8.7242 10.0738, 9.13297 9.95817, 9.51655 9.7595, 9.87494 9.47783, 10.1961 9.2036, 10.4337 8.88299, 10.5877 8.51659, 10.7417 8.15018, 10.8688 7.77748, 10.9696 7.39847 Z" stroke="none" fill="#E60000" />
			<rect />
		</svg>
	</g>
	<ellipse cx="1255.53759765625" cy="296.05291748046875" rx="12" ry="12" stroke="none" fill="#E60000" transform="matrix(0.333333 0 0 0.333333 -215.903 -64.4769)" />
	<ellipse cx="1255.53759765625" cy="296.05291748046875" rx="8" ry="8" stroke="none" fill="#FFFFFF" transform="matrix(0.333333 0 0 0.333333 -215.903 -64.4769)" />
	<path d="M 0 -14.3494 L 14.9669 14.3494, -14.9669 14.3494 Z" stroke="none" fill="#FFFFFF" transform="matrix(0.333333 0 -0 0.333333 276.378 192.312)" />
	<path d="M 0 -14.3494 L 14.9669 14.3494, -14.9669 14.3494 Z" fill="none" stroke="#000000" stroke-width="3.60000014" stroke-linecap="round" stroke-linejoin="round" transform="matrix(0.333333 0 -0 0.333333 276.378 192.312)" />
	<g transform="matrix(1 0 -0 1 240.147 157.262)">
		<svg width="39.020092" height="56.9999886">
			<defs />
			<path d="M 10.9882 6.6565 C 10.8817 7.08474, 10.6928 7.49408, 10.4225 7.88453, 10.1523 8.27556, 9.82484 8.61735, 9.44126 8.9099, 9.2718 9.05074, 9.15214 9.13948, 9.0823 9.17554, 9.30271 9.31066, 9.52599 9.53336, 9.75271 9.84424, 10.0355 10.2599, 10.2147 10.727, 10.2903 11.2457, 10.3029 11.4175, 10.3092 11.5881, 10.3092 11.7587, 10.3092 12.1137, 10.2651 12.4766, 10.1769 12.8488, 10.0264 13.411, 9.78591 13.9474, 9.45557 14.4569, 9.12524 14.9671, 8.70845 15.4233, 8.20521 15.8258, 7.74606 16.2174, 7.23996 16.5254, 6.68634 16.751, 6.13273 16.9771, 5.57625 17.0899, 5.01633 17.0899, 4.19249 17.0899, 3.51292 16.881, 2.9782 16.463, 2.44348 16.0451, 2.11371 15.6065, 1.98776 15.148 L 0.676138 20.2502 C 0.607437 20.403, 0.496942 20.4792, 0.3458 20.4792 L 0.251336 20.4792 C 0.170039 20.4792, 0.109926 20.4551, 0.0721399 20.4059, 0.0217591 20.3818, -0.00343132 20.3389, -0.00343132 20.2777, -0.00343132 20.2536, 0.00630134 20.2261, 0.0251942 20.1952 L 2.9782 8.64425 C 3.15453 7.9853, 3.41674 7.34294, 3.76597 6.71661, 4.1152 6.09086, 4.53085 5.53381, 5.01175 5.04489, 5.49266 4.55653, 6.03082 4.16265, 6.62509 3.86323, 7.21935 3.56438, 7.84396 3.41438, 8.49777 3.41381, 8.93803 3.41438, 9.33764 3.49854, 9.69603 3.66628, 10.0544 3.8346, 10.3567 4.06761, 10.6017 4.36646, 10.8285 4.66646, 10.9762 5.01741, 11.0449 5.41988, 11.0701 5.57904, 11.0826 5.73476, 11.0826 5.88705, 11.0826 6.1441, 11.0512 6.40059, 10.9882 6.6565 Z M 7.42202 9.20302 C 7.4661 9.18528, 7.43175 9.18871, 7.3184 9.21276, 7.20504 9.23738, 7.09512 9.2494, 6.98806 9.24883, 6.56039 9.2494, 6.29647 9.23738, 6.1957 9.21276, 6.09494 9.18871, 6.04456 9.19444, 6.04456 9.2305, 6.03826 9.2494, 6.09952 9.24654, 6.22834 9.22192, 6.35772 9.19787, 6.63253 9.18528, 7.0539 9.1847, 7.27431 9.18528, 7.39683 9.19157, 7.42202 9.20302 Z M 9.55405 4.72371 C 9.3279 4.25998, 8.93803 4.02811, 8.38441 4.02754, 7.84396 4.02811, 7.32183 4.15635, 6.81859 4.41284, 6.31536 4.66932, 5.85449 5.01454, 5.43598 5.44793, 5.01805 5.8819, 4.65165 6.37941, 4.33676 6.94104, 4.02246 7.50324, 3.79288 8.0832, 3.64804 8.6809 L 2.58202 12.8488 C 2.50645 13.1671, 2.46867 13.4785, 2.46867 13.7831, 2.46867 13.9423, 2.48126 14.1043, 2.50645 14.2686, 2.56943 14.7026, 2.71255 15.0816, 2.93583 15.405, 3.15911 15.7291, 3.45968 15.9884, 3.83696 16.1836, 4.21425 16.3794, 4.64821 16.4768, 5.13885 16.4762, 5.49152 16.4768, 5.84361 16.3823, 6.1957 16.1928, 6.5478 16.0039, 6.8684 15.756, 7.15809 15.4503, 7.50389 15.0781, 7.76953 14.6665, 7.95503 14.2142, 8.14052 13.7625, 8.29796 13.2936, 8.42677 12.8081, 8.55616 12.3226, 8.64547 11.8509, 8.69585 11.3923 L 8.69585 11.1083 C 8.69585 10.7854, 8.63918 10.4769, 8.52582 10.1832, 8.47544 10.0675, 8.41761 9.96103, 8.3512 9.86313, 8.28536 9.7658, 8.22067 9.68279, 8.15769 9.61523, 7.76152 9.76866, 7.34015 9.84481, 6.89359 9.84424 L 6.48768 9.84424 C 6.31192 9.84481, 6.13616 9.83107, 5.95983 9.80359, 5.7835 9.77611, 5.63922 9.71657, 5.52587 9.62439, 5.41251 9.56371, 5.35583 9.46294, 5.35583 9.32211, 5.35583 9.27402, 5.36213 9.22822, 5.37472 9.1847, 5.41881 9.00837, 5.52415 8.87841, 5.69075 8.79597, 5.85792 8.71353, 6.03712 8.65571, 6.22891 8.62193, 6.4207 8.58872, 6.60448 8.57155, 6.78024 8.57097 L 7.16725 8.57097 C 7.57603 8.57155, 7.95045 8.63853, 8.28994 8.7725, 8.32201 8.74845, 8.35979 8.71353, 8.4033 8.66773, 8.44738 8.62193, 8.50063 8.56868, 8.5636 8.50685, 8.81551 8.25094, 9.0136 7.9624, 9.15787 7.64179, 9.30271 7.32119, 9.41893 6.98054, 9.5071 6.61986, 9.60786 6.26032, 9.67084 5.9151, 9.69603 5.58476 L 9.69603 5.4382 C 9.69603 5.17599, 9.64908 4.93783, 9.55405 4.72371 Z" stroke="none" fill="#8B8B8B" />
			<rect />
		</svg>
	</g>
	<path d="M 0 -14.3492 L 14.9667 14.3492, -14.9667 14.3492 Z" stroke="none" fill="#FFFFFF" transform="matrix(0.333333 0 -0 0.333333 35.2406 148.533)" />
	<path d="M 0 -14.3492 L 14.9667 14.3492, -14.9667 14.3492 Z" fill="none" stroke="#000000" stroke-width="3.60000014" stroke-linecap="round" stroke-linejoin="round" transform="matrix(0.333333 0 -0 0.333333 35.2406 148.533)" />
	<g transform="matrix(1 0 -0 1 247.41 96.0969)">
		<svg width="30.0150681" height="32.9571342">
			<defs />
			<path d="M 8.45998 14.0579 C 8.38498 14.3579, 8.30025 14.6785, 8.20578 15.0203, 8.11132 15.3627, 7.98537 15.6798, 7.82793 15.973, 7.67106 16.2661, 7.47297 16.5197, 7.23366 16.7332, 6.99493 16.9468, 6.69607 17.0533, 6.33711 17.0533, 5.85964 17.0533, 5.4772 16.921, 5.19095 16.6554, 4.90469 16.3897, 4.73981 16.1195, 4.69573 15.8441, 4.48161 16.0892, 4.16272 16.352, 3.73792 16.6325, 3.31369 16.913, 2.86541 17.0533, 2.39366 17.0533, 1.89673 17.0533, 1.47994 16.9285, 1.1433 16.6783, 0.806667 16.4281, 0.544458 16.1132, 0.35553 15.7342, 0.129388 15.2831, 0.00973374 14.7976, -0.00286144 14.2778 L -0.00286144 14.1403 C -0.00286144 13.6583, 0.0635496 13.1762, 0.195227 12.693, 0.34637 12.1623, 0.557053 11.6373, 0.827278 11.1181, 1.09807 10.5994, 1.45647 10.1167, 1.90302 9.67019, 2.26828 9.30436, 2.68507 8.99635, 3.15338 8.74559, 3.6217 8.4954, 4.09803 8.37002, 4.58237 8.36945, 5.00374 8.37002, 5.34667 8.48166, 5.6106 8.70437, 5.8751 8.92765, 6.0417 9.112, 6.11097 9.25799 L 6.07318 9.41371 C 6.11727 9.18814, 6.22261 9.01753, 6.38921 8.90131, 6.55638 8.78566, 6.7247 8.72727, 6.89416 8.7267, 7.08882 8.72727, 7.25255 8.78509, 7.3848 8.90074, 7.46667 8.99291, 7.51076 9.11486, 7.51648 9.26715, 7.51648 9.32268, 7.51018 9.38394, 7.49759 9.45035 L 6.13902 14.7449 C 6.07605 14.9957, 6.03196 15.231, 6.00677 15.4503, 5.99475 15.5607, 5.98845 15.6615, 5.98845 15.7525, 5.98845 15.8327, 5.99475 15.918, 6.00677 16.009, 6.02624 16.1562, 6.07032 16.2661, 6.13902 16.3394, 6.2083 16.4126, 6.30562 16.4493, 6.43158 16.4487, 6.56383 16.4493, 6.68806 16.3943, 6.80428 16.2844, 6.92107 16.1745, 7.02813 16.0113, 7.12546 15.7943, 7.22278 15.5779, 7.31553 15.318, 7.4037 15.0157, 7.49186 14.7134, 7.58289 14.3854, 7.67678 14.0304, 7.71457 13.8724, 7.82163 13.7928, 7.99796 13.7923 L 8.21494 13.7923 C 8.37868 13.7928, 8.45998 13.8598, 8.45998 13.9938 L 8.45998 14.0579 Z M 5.76174 10.687 C 5.73655 10.5776, 5.71479 10.4631, 5.6959 10.344, 5.67701 10.225, 5.64838 10.1076, 5.6106 9.9908, 5.51041 9.70454, 5.36728 9.46466, 5.18179 9.2723, 4.99629 9.07994, 4.76156 8.98375, 4.47874 8.98318, 4.21482 8.98375, 3.95375 9.07879, 3.69555 9.26772, 3.43792 9.45722, 3.20205 9.70111, 2.98793 9.99996, 2.68622 10.4219, 2.46008 10.8604, 2.30893 11.315, 2.15779 11.7702, 2.01924 12.2448, 1.89329 12.7388, 1.76791 13.2278, 1.66429 13.7012, 1.58185 14.1587, 1.53204 14.3911, 1.50685 14.611, 1.50685 14.8182, 1.50685 15.0386, 1.53204 15.2522, 1.58185 15.4594, 1.6391 15.7468, 1.741 15.9838, 1.88871 16.1699, 2.03642 16.3565, 2.24252 16.4493, 2.50645 16.4487, 2.79614 16.4493, 3.08697 16.3485, 3.37953 16.147, 3.67208 15.9455, 3.94402 15.6981, 4.19535 15.4045, 4.29611 15.2831, 4.3923 15.1657, 4.48332 15.0524, 4.57493 14.9396, 4.65508 14.8188, 4.72378 14.69 L 5.76174 10.687 Z" stroke="none" fill="#0080FF" />
			<rect />
		</svg>
	</g>
	<g transform="matrix(1 0 -0 1 104.022 69.9205)">
		<svg width="23.9688396" height="47.9999886">
			<defs />
			<path d="M 6.63739 12.748 C 6.48625 13.2799, 6.27442 13.8054, 6.00076 14.3241, 5.7271 14.8434, 5.37043 15.3226, 4.9296 15.7617, 4.56491 16.1287, 4.15155 16.4355, 3.68897 16.6829, 3.22695 16.9302, 2.74719 17.0533, 2.25025 17.0533, 1.7722 17.0533, 1.37259 16.9256, 1.05199 16.6691, 0.731382 16.4126, 0.485775 16.0949, 0.31574 15.7159, 0.114789 15.2648, 0.00772941 14.7793, -0.00486588 14.2594 L -0.00486588 14.1403 C -0.00486588 13.6583, 0.0581102 13.1791, 0.184062 12.7022 L 2.08021 5.32828 C 2.1306 5.12733, 2.16208 4.97447, 2.17468 4.87027 L 2.17468 4.84279 C 2.17468 4.7884, 2.16208 4.7489, 2.13689 4.72371, 2.06132 4.67562, 1.91991 4.64184, 1.71209 4.62352, 1.50484 4.6052, 1.26553 4.59604, 0.995309 4.59547, 0.901417 4.59604, 0.832143 4.56569, 0.787488 4.50386, 0.749702 4.4678, 0.730809 4.422, 0.730809 4.36646, 0.730809 4.33039, 0.740542 4.29662, 0.759435 4.2657 L 0.787488 4.11914 C 0.837869 3.97315, 0.951226 3.88155, 1.12756 3.84433 L 3.62771 3.64281, 3.66549 3.64281 C 3.74107 3.64338, 3.80347 3.668, 3.85385 3.71609, 3.87904 3.76533, 3.89164 3.81456, 3.89164 3.86265, 3.89164 3.89987, 3.88248 3.93364, 3.86358 3.96342 L 2.50502 9.23967 C 2.64356 9.09997, 2.89833 8.91963, 3.26932 8.69979, 3.6403 8.47994, 4.03018 8.37002, 4.43895 8.36945, 4.93589 8.37002, 5.35612 8.49827, 5.69848 8.75475, 6.04141 9.01123, 6.30419 9.32554, 6.48625 9.69767, 6.70037 10.15, 6.81315 10.6389, 6.82575 11.1633 L 6.82575 11.2915 C 6.82575 11.7621, 6.76334 12.2476, 6.63739 12.748 Z M 5.26909 9.96332 C 5.21299 9.67076, 5.10593 9.43432, 4.94849 9.25398, 4.79162 9.07421, 4.58723 8.98375, 4.33533 8.98318, 4.03362 8.98375, 3.7382 9.08165, 3.44851 9.27688, 3.1594 9.47268, 2.8886 9.71943, 2.63669 10.0183, 2.44204 10.269, 2.27201 10.5043, 2.12716 10.7236 L 1.60847 12.7388 C 1.48251 13.2278, 1.38862 13.6984, 1.32565 14.1495, 1.30046 14.3396, 1.28786 14.5194, 1.28786 14.69, 1.28786 14.959, 1.31935 15.2155, 1.38233 15.4594, 1.4516 15.7411, 1.5661 15.9764, 1.7264 16.1653, 1.88671 16.3548, 2.09911 16.4493, 2.36303 16.4487, 2.62753 16.4493, 2.89032 16.352, 3.15138 16.1562, 3.41244 15.9609, 3.6466 15.7165, 3.85385 15.4228, 4.15614 15.014, 4.38399 14.5795, 4.538 14.118, 4.69258 13.6572, 4.83227 13.1854, 4.95765 12.7022, 5.0836 12.2018, 5.1941 11.7198, 5.28799 11.2549, 5.32577 11.0356, 5.34467 10.8221, 5.34467 10.6137, 5.34467 10.3944, 5.31947 10.1774, 5.26909 9.96332 Z" stroke="none" fill="#0080FF" />
			<rect />
		</svg>
	</g>
</svg>
