<?xml version="1.0"?>
<svg xmlns="http://www.w3.org/2000/svg" xmlns:xlink="http://www.w3.org/1999/xlink" width="183.823532" height="178.529419">
	<defs>
		<marker id="CustomMarker-01" markerUnits="strokeWidth" markerWidth="9" markerHeight="6" viewBox="-9 -3 9 6" orient="auto-start-reverse">
			<path d="M 0 -0 L -6 -2, -6 -0.5, -6 0.5, -6 2 Z" fill="#0080FF" stroke="#0080FF" stroke-linejoin="round" />
		</marker>
	</defs>
	<path d="M -38.2585 -64.9245 C -18.8133 -76.3829, 4.35021 -78.3424, 24.9667 -71.1058 L 44.3405 -60.9329" fill="none" stroke="#0080FF" stroke-width="4.53333378" stroke-linecap="round" stroke-linejoin="round" marker-end="url(#CustomMarker-01)" transform="matrix(0.207973 0.207973 -0.207973 0.207973 34.8341 153.449)" />
	<path d="M -200.248 31.5613 L 200.248 -31.5617" fill="none" stroke="#0080FF" stroke-width="4.53333378" stroke-linecap="round" stroke-linejoin="round" transform="matrix(0.294118 0 0 0.294118 93.7305 144.166)" />
	<path d="M -235.013 -7.16844 L 235.013 -7.16844, 235.013 7.16844, -235.013 7.16844 Z" stroke="none" fill="#FFFFFF" transform="matrix(-0.0746001 0.2845 -0.2845 -0.0746001 51.742 87.0489)" />
	<path d="M -235.013 -7.16844 L 235.013 -7.16844, 235.013 7.16844, -235.013 7.16844 Z" fill="none" stroke="#000000" stroke-width="4.0800004" stroke-linecap="round" stroke-linejoin="round" transform="matrix(-0.0746001 0.2845 -0.2845 -0.0746001 51.742 87.0489)" />
	<g transform="matrix(1 0 -0 1 8.22686 142.703)">
		<svg width="41.9788857" height="45.0428467">
			<defs />
			<path d="M 12.3983 16.5678 C 12.3296 16.751, 12.2099 16.8426, 12.0399 16.8426, 11.4113 16.806, 10.7849 16.7876, 10.1621 16.7876 L 9.85061 16.7876 C 9.11493 16.8002, 8.37582 16.8185, 7.63385 16.8426, 7.46439 16.8426, 7.37279 16.7636, 7.36019 16.6044 L 7.36019 16.5311, 7.39798 16.3754 C 7.44836 16.1745, 7.57088 16.0766, 7.76553 16.0823, 7.99854 16.0829, 8.20636 16.0754, 8.38842 16.06, 8.57105 16.0451, 8.74738 15.9913, 8.91685 15.8991, 8.97982 15.8693, 9.03364 15.8264, 9.07715 15.7709, 9.10234 15.7228, 9.11837 15.6735, 9.12409 15.6243 L 9.12409 15.5693, 8.89795 12.5282, 4.63333 12.5282, 3.13335 15.093 C 3.05148 15.2401, 3.01026 15.3747, 3.01026 15.4961, 3.01026 15.6002, 3.04175 15.6953, 3.10473 15.78, 3.24327 15.9821, 3.50148 16.0829, 3.87819 16.0823, 4.04822 16.0829, 4.13925 16.1562, 4.15185 16.3021, 4.15185 16.3394, 4.14555 16.3789, 4.13295 16.4212 L 4.09574 16.5678 C 4.02647 16.751, 3.90395 16.8426, 3.72762 16.8426, 3.14938 16.8185, 2.57687 16.8002, 2.01009 16.7876 L 1.75589 16.7876 C 1.26525 16.7876, 0.768314 16.806, 0.265078 16.8426, 0.170614 16.8426, 0.101341 16.8123, 0.0572573 16.751, 0.0194716 16.7149, 0.000578821 16.672, 0.000578821 16.6228, 0.000578821 16.5867, 0.00687641 16.55, 0.0194716 16.5128 L 0.0572573 16.3754 C 0.107638 16.1745, 0.230728 16.0766, 0.425381 16.0823, 0.626904 16.0829, 0.824993 16.0617, 1.01965 16.0188, 1.21487 15.9764, 1.3975 15.8997, 1.56697 15.7897, 1.737 15.6798, 1.89444 15.547, 2.03871 15.3913, 2.18356 15.2356, 2.31237 15.0598, 2.42573 14.864 L 9.08631 3.45961 C 9.19967 3.289, 9.34451 3.20656, 9.52084 3.21228 L 9.70004 3.21228 C 9.90156 3.21285, 10.0143 3.30732, 10.0395 3.49625 L 10.8697 15.4319 C 10.8823 15.5911, 10.9012 15.7119, 10.9264 15.7943, 10.9515 15.8768, 10.9956 15.9363, 11.0586 15.9724, 11.1468 16.0279, 11.2928 16.06, 11.4971 16.0691, 11.7021 16.0783, 11.9328 16.0829, 12.1905 16.0823, 12.3668 16.0829, 12.455 16.1562, 12.455 16.3021, 12.455 16.3394, 12.4487 16.3789, 12.4361 16.4212 Z M 8.4451 6.03361 L 5.08618 11.7862, 8.84127 11.7862 Z" stroke="none" fill="#000000" />
			<rect />
		</svg>
	</g>
	<g transform="matrix(1 0 -0 1 40.9306 8.98036)">
		<svg width="44.9376793" height="45.0428467">
			<defs />
			<path d="M 13.0332 7.12367 C 12.9267 7.56393, 12.7143 7.97614, 12.3966 8.36086, 12.0788 8.74559, 11.7124 9.07249, 11.2973 9.34043, 10.9704 9.56084, 10.6355 9.73489, 10.2926 9.86313, 9.94965 9.99137, 9.82828 10.0463, 9.92904 10.0274, 9.91072 10.0217, 10.0756 10.1001, 10.4248 10.2616, 10.7741 10.4236, 11.0804 10.6446, 11.3443 10.9251, 11.6403 11.2251, 11.8418 11.5852, 11.9483 12.006, 11.9987 12.2144, 12.0273 12.4188, 12.033 12.6198, 12.033 12.8522, 11.9987 13.0938, 11.9294 13.3434, 11.8103 13.814, 11.5899 14.2634, 11.2693 14.6905, 10.9487 15.1182, 10.5645 15.4903, 10.118 15.8075, 9.64622 16.1499, 9.1447 16.4081, 8.61342 16.5821, 8.08213 16.7561, 7.55198 16.8426, 7.02298 16.8426 L 0.267942 16.8426 C 0.173478 16.8426, 0.104204 16.8151, 0.0601207 16.7602, 0.0166099 16.7178, -0.00571795 16.672, -0.00571795 16.6228, -0.00571795 16.5867, 0.000579656 16.55, 0.0131749 16.5128 L 0.0509605 16.3754 C 0.0887462 16.1745, 0.211263 16.0766, 0.418512 16.0823, 0.714499 16.0829, 0.991594 16.0783, 1.24922 16.0691, 1.50685 16.06, 1.70208 16.0279, 1.83376 15.9724, 1.94711 15.9117, 2.03528 15.7468, 2.09826 15.4777 L 4.74955 5.15423 C 4.78733 5.02027, 4.80565 4.91664, 4.80565 4.84279, 4.80565 4.77008, 4.7902 4.72714, 4.75871 4.71455, 4.67054 4.66016, 4.49936 4.62695, 4.24459 4.61436, 3.98983 4.60234, 3.71159 4.59604, 3.4093 4.59547, 3.31541 4.59604, 3.24614 4.56569, 3.20205 4.50386, 3.16427 4.4678, 3.14538 4.422, 3.14538 4.36646, 3.14538 4.33039, 3.15511 4.29662, 3.17343 4.2657 L 3.20205 4.1283 C 3.22095 4.04357, 3.26675 3.97486, 3.33888 3.92277, 3.41102 3.87124, 3.48831 3.84491, 3.57018 3.84433 L 9.82542 3.84433 C 10.3413 3.84491, 10.8285 3.92162, 11.2876 4.07391, 11.7468 4.22677, 12.1275 4.4678, 12.4292 4.79699, 12.7252 5.09698, 12.933 5.44507, 13.0521 5.84125, 13.1025 6.04334, 13.1277 6.24773, 13.1277 6.45498, 13.1277 6.67539, 13.0962 6.8981, 13.0332 7.12367 Z M 11.1273 7.08703 C 11.1903 6.84314, 11.2218 6.59925, 11.2218 6.35422 L 11.2218 6.13437 C 11.1966 5.84182, 11.1084 5.56988, 10.9573 5.31912, 10.8256 5.09355, 10.651 4.91664, 10.434 4.7884, 10.217 4.66016, 9.96397 4.59604, 9.67428 4.59547 L 7.18329 4.59547 C 6.85009 4.59604, 6.6583 4.61722, 6.60791 4.65959, 6.53234 4.72142, 6.46021 4.89832, 6.39093 5.19088 L 5.2213 9.78927, 7.79702 9.78927 C 8.15541 9.78985, 8.51094 9.72, 8.86303 9.57916, 9.2157 9.4389, 9.55176 9.24024, 9.87236 8.98318, 10.5393 8.44617, 10.9578 7.81412, 11.1273 7.08703 Z M 9.96683 13.2885 C 10.055 12.9776, 10.0991 12.669, 10.0991 12.3633 L 10.0991 12.1709 C 10.0739 11.8297, 9.98286 11.5148, 9.82542 11.2274, 9.68687 10.9778, 9.49966 10.7746, 9.26379 10.6188, 9.02791 10.4631, 8.75311 10.3853, 8.43823 10.3847 L 5.05126 10.3847, 3.73964 15.5144 C 3.68926 15.7228, 3.66407 15.8722, 3.66407 15.9632, 3.66407 16.0125, 3.6675 16.0399, 3.6738 16.0457, 3.6864 16.0646, 3.85014 16.0766, 4.16444 16.0823 L 6.68349 16.0823 C 7.02928 16.0829, 7.37851 16.0084, 7.73061 15.8585, 8.08327 15.709, 8.40731 15.5121, 8.70273 15.267, 9.0302 14.9928, 9.29871 14.6848, 9.50939 14.3424, 9.72008 14.0007, 9.87294 13.6491, 9.96683 13.2885 Z" stroke="none" fill="#000000" />
			<rect />
		</svg>
	</g>
	<g transform="matrix(1 0 -0 1 157.307 134.894)">
		<svg width="44.9376793" height="45.0428467">
			<defs />
			<path d="M 12.9791 7.44427 C 12.8411 7.9395, 12.6052 8.39636, 12.272 8.81429, 11.9388 9.23279, 11.5421 9.59462, 11.0829 9.8992, 10.586 10.2416, 10.0564 10.4998, 9.49308 10.6738, 8.9303 10.8478, 8.3721 10.9349, 7.81848 10.9343 L 5.01605 10.9343, 3.83668 15.5144 C 3.79889 15.6495, 3.78 15.756, 3.78 15.835, 3.78 15.9088, 3.79603 15.9546, 3.82752 15.9724, 3.91569 16.0279, 4.08858 16.06, 4.34621 16.0691, 4.60441 16.0783, 4.88094 16.0829, 5.17635 16.0823, 5.35269 16.0829, 5.44085 16.1682, 5.44085 16.3388 L 5.44085 16.4029, 5.40307 16.5678 C 5.33379 16.751, 5.21128 16.8426, 5.03494 16.8426, 4.24889 16.806, 3.4594 16.7876, 2.66704 16.7876, 1.86839 16.7876, 1.06974 16.806, 0.270517 16.8426, 0.101054 16.8426, 0.0100247 16.7636, -0.00314299 16.6044 L -0.00314299 16.5311, 0.0346427 16.3754 C 0.0850235 16.1745, 0.207541 16.0766, 0.402194 16.0823, 0.698181 16.0829, 0.978139 16.0783, 1.24207 16.0691, 1.50657 16.06, 1.70122 16.0279, 1.82717 15.9724, 1.94683 15.906, 2.03785 15.7411, 2.10083 15.4777 L 4.75212 5.15423 C 4.78991 5.02027, 4.80823 4.91664, 4.80823 4.84279, 4.80823 4.77008, 4.79277 4.72714, 4.76128 4.71455, 4.67312 4.66016, 4.50194 4.62695, 4.24717 4.61436, 3.9924 4.60234, 3.71416 4.59604, 3.41188 4.59547, 3.23612 4.59604, 3.14795 4.5136, 3.14795 4.34814 L 3.14795 4.27486, 3.20463 4.11914 C 3.24241 3.93651, 3.35921 3.84491, 3.55386 3.84433 L 9.60128 3.84433 C 10.1555 3.84491, 10.6696 3.93193, 11.1442 4.10597, 11.6194 4.28001, 12.0264 4.54108, 12.3659 4.88859, 12.6739 5.21263, 12.8909 5.59736, 13.0169 6.04277, 13.0547 6.25116, 13.0736 6.46185, 13.0736 6.67482, 13.0736 6.91986, 13.0421 7.17634, 12.9791 7.44427 Z M 10.9696 7.39847 C 11.0766 7.01432, 11.1488 6.64162, 11.1866 6.28093 L 11.1866 6.11605 C 11.1866 5.83552, 11.1081 5.57904, 10.9507 5.3466, 10.7434 5.07237, 10.4663 4.87886, 10.1205 4.7655, 9.77475 4.65272, 9.40033 4.59604, 8.99786 4.59547 L 7.22365 4.59547 C 6.90304 4.59604, 6.71125 4.62066, 6.64827 4.66932, 6.5853 4.71856, 6.51946 4.89203, 6.45019 5.19088 L 5.13857 10.2473, 7.49731 10.2473 C 7.90608 10.2479, 8.31542 10.19, 8.7242 10.0738, 9.13297 9.95817, 9.51655 9.7595, 9.87494 9.47783, 10.1961 9.2036, 10.4337 8.88299, 10.5877 8.51659, 10.7417 8.15018, 10.8688 7.77748, 10.9696 7.39847 Z" stroke="none" fill="#E60000" />
			<rect />
		</svg>
	</g>
	<ellipse cx="1350.9319105148315" cy="667.60402965545654" rx="13.600001335144043" ry="13.600001335144043" stroke="none" fill="#E60000" transform="matrix(0.294118 0 0 0.294118 -244.706 -61.4706)" />
	<ellipse cx="1350.9319019317627" cy="667.6040210723877" rx="9.0666675567626953" ry="9.0666675567626953" stroke="none" fill="#FFFFFF" transform="matrix(0.294118 0 0 0.294118 -244.706 -61.4706)" />
	<path d="M 0 -16.2633 L 16.9627 16.2633, -16.9627 16.2633 Z" stroke="none" fill="#FFFFFF" transform="matrix(0.294118 0 -0 0.294118 34.8341 152.779)" />
	<path d="M 0 -16.2633 L 16.9627 16.2633, -16.9627 16.2633 Z" fill="none" stroke="#000000" stroke-width="4.0800004" stroke-linecap="round" stroke-linejoin="round" transform="matrix(0.294118 0 -0 0.294118 34.8341 152.779)" />
	<path d="M 0 -16.2632 L 16.9626 16.2632, -16.9626 16.2632 Z" stroke="none" fill="#FFFFFF" transform="matrix(0.294118 0 -0 0.294118 69.2739 19.1183)" />
	<path d="M 0 -16.2632 L 16.9626 16.2632, -16.9626 16.2632 Z" fill="none" stroke="#000000" stroke-width="4.0800004" stroke-linecap="round" stroke-linejoin="round" transform="matrix(0.294118 0 -0 0.294118 69.2739 19.1183)" />
	<g transform="matrix(1 0 -0 1 86.941 148.423)">
		<svg width="98.9678192" height="54.0428391">
			<defs />
			<path d="M 13.6764 10.4854 C 13.4623 11.3104, 13.1245 12.1074, 12.6619 12.8768, 12.1999 13.6463, 11.6199 14.3453, 10.9215 14.9739, 10.286 15.5424, 9.58811 15.9959, 8.82667 16.3348, 8.06581 16.6737, 7.30494 16.8426, 6.5435 16.8426 L 0.269371 16.8426 C 0.0999078 16.8426, 0.00887877 16.7636, -0.00428895 16.6044 L -0.00428895 16.5311, 0.0334967 16.3754 C 0.0838775 16.1745, 0.206395 16.0766, 0.401048 16.0823, 0.697035 16.0829, 0.976993 16.0783, 1.24092 16.0691, 1.50542 16.06, 1.70007 16.0279, 1.82602 15.9724, 1.94568 15.906, 2.03671 15.7411, 2.09968 15.4777 L 4.75098 5.15423 C 4.78876 5.02027, 4.80708 4.91664, 4.80708 4.84279, 4.80708 4.77008, 4.79163 4.72714, 4.76014 4.71455, 4.67197 4.66016, 4.50079 4.62695, 4.24602 4.61436, 3.99126 4.60234, 3.71302 4.59604, 3.41073 4.59547, 3.23497 4.59604, 3.1468 4.5136, 3.1468 4.34814 L 3.1468 4.27486, 3.20348 4.11914 C 3.24127 3.93651, 3.35806 3.84491, 3.55271 3.84433 L 9.84574 3.84433 C 10.6255 3.84491, 11.3051 4.02525, 11.8839 4.38535, 12.4627 4.74604, 12.9281 5.21893, 13.2802 5.80461, 13.6575 6.46471, 13.8711 7.19752, 13.9214 8.00304, 13.934 8.1748, 13.9403 8.33338, 13.9403 8.47937, 13.9403 9.13318, 13.8527 9.80187, 13.6764 10.4854 Z M 11.8552 6.22597 C 11.6417 5.71988, 11.3068 5.32141, 10.8505 5.03115, 10.3948 4.74146, 9.86177 4.59604, 9.25148 4.59547 L 7.2225 4.59547 C 6.9019 4.59604, 6.7101 4.62066, 6.64713 4.66932, 6.58415 4.71856, 6.51831 4.89203, 6.44904 5.19088 L 3.77886 15.5144 C 3.72847 15.7228, 3.70328 15.8722, 3.70328 15.9632 L 3.70328 16.0365 C 3.72847 16.0617, 3.89565 16.0766, 4.20366 16.0823 L 6.23206 16.0823 C 6.84865 16.0829, 7.46353 15.9443, 8.07668 15.6661, 8.69042 15.3884, 9.23888 15.002, 9.72322 14.5068, 10.2768 13.9331, 10.7016 13.2936, 10.9971 12.5883, 11.2925 11.8829, 11.5283 11.1702, 11.7041 10.4488, 11.8993 9.69825, 12.0344 8.95627, 12.11 8.22289, 12.1226 8.05228, 12.1289 7.8874, 12.1289 7.72824, 12.1289 7.19123, 12.0379 6.69085, 11.8552 6.22597 Z" stroke="none" fill="#0080FF" />
			<path d="M 3.71091 3.0535 C 3.67243 3.15609, 3.60543 3.20739, 3.51021 3.20739, 3.15818 3.18687, 2.80744 3.17661, 2.45862 3.17661 L 2.28421 3.17661 C 1.87223 3.18366, 1.45833 3.19392, 1.04283 3.20739, 0.947929 3.20739, 0.896632 3.16314, 0.889579 3.07402 L 0.889579 3.03298, 0.910739 2.94577 C 0.938952 2.83324, 1.00756 2.77842, 1.11657 2.78162, 1.24705 2.78194, 1.36343 2.77778, 1.46539 2.76912, 1.56766 2.76078, 1.66641 2.73065, 1.7613 2.67903, 1.79657 2.66236, 1.82671 2.63831, 1.85107 2.60721, 1.86518 2.58028, 1.87416 2.55271, 1.87736 2.52514 L 1.87736 2.49436, 1.75073 0.791305, -0.637465 0.791305, -1.47745 2.22762 C -1.5233 2.31001, -1.54638 2.38536, -1.54638 2.45332, -1.54638 2.51167, -1.52875 2.56489, -1.49348 2.61234, -1.4159 2.72552, -1.2713 2.78194, -1.06034 2.78162, -0.965124 2.78194, -0.914148 2.82298, -0.907094 2.90474, -0.907094 2.92558, -0.910621 2.9477, -0.917674 2.97142 L -0.938514 3.0535 C -0.977307 3.15609, -1.04592 3.20739, -1.14466 3.20739, -1.46847 3.19392, -1.78908 3.18366, -2.10648 3.17661 L -2.24883 3.17661 C -2.52359 3.17661, -2.80187 3.18687, -3.08368 3.20739, -3.13658 3.20739, -3.17538 3.1904, -3.20006 3.15609, -3.22122 3.13589, -3.2318 3.11185, -3.2318 3.08428, -3.2318 3.06408, -3.22828 3.04356, -3.22122 3.02272 L -3.20006 2.94577 C -3.17185 2.83324, -3.10292 2.77842, -2.99392 2.78162, -2.88106 2.78194, -2.77013 2.77008, -2.66113 2.74604, -2.5518 2.72231, -2.44953 2.67935, -2.35463 2.61779, -2.25941 2.55624, -2.17124 2.48186, -2.09045 2.39465, -2.00934 2.30745, -1.9372 2.20902, -1.87372 2.09938 L 1.8562 -4.28709 C 1.91968 -4.38263, 2.0008 -4.42879, 2.09954 -4.42559 L 2.19989 -4.42559 C 2.31275 -4.42527, 2.37591 -4.37237, 2.39001 -4.26657 L 2.85489 2.41742 C 2.86194 2.50654, 2.87252 2.57419, 2.88663 2.62036, 2.90074 2.66653, 2.92542 2.69987, 2.96069 2.72007, 3.01006 2.75117, 3.09182 2.76912, 3.20627 2.77425, 3.32105 2.77938, 3.45025 2.78194, 3.59453 2.78162, 3.69327 2.78194, 3.74265 2.82298, 3.74265 2.90474, 3.74265 2.92558, 3.73912 2.9477, 3.73207 2.97142 Z M 1.49713 -2.84564 L -0.383866 0.375801, 1.71898 0.375801 Z" stroke="none" fill="#0080FF" transform="matrix(1.12 0 0 1 18.1508 16.3063)" />
			<path d="M 3.99724 -2.05567 C 3.91998 -1.77835, 3.78789 -1.5225, 3.6013 -1.28846, 3.4147 -1.0541, 3.19252 -0.851477, 2.9354 -0.680915, 2.65711 -0.489193, 2.36055 -0.3446, 2.04508 -0.247136, 1.72992 -0.149672, 1.41733 -0.10094, 1.10731 -0.10126 L -0.462058 -0.10126, -1.1225 2.46358 C -1.14366 2.53925, -1.15424 2.59888, -1.15424 2.64312, -1.15424 2.68448, -1.14527 2.71013, -1.12763 2.72007, -1.07826 2.75117, -0.981438 2.76912, -0.837166 2.77425, -0.692573 2.77938, -0.53772 2.78194, -0.372288 2.78162, -0.273541 2.78194, -0.224168 2.82972, -0.224168 2.92526 L -0.224168 2.96116, -0.245328 3.0535 C -0.284122 3.15609, -0.352731 3.20739, -0.451478 3.20739, -0.891669 3.18687, -1.33378 3.17661, -1.7775 3.17661, -2.22475 3.17661, -2.67199 3.18687, -3.11956 3.20739, -3.21446 3.20739, -3.26543 3.16314, -3.27281 3.07402 L -3.27281 3.03298, -3.25165 2.94577 C -3.22343 2.83324, -3.15482 2.77842, -3.04582 2.78162, -2.88006 2.78194, -2.72329 2.77938, -2.57549 2.77425, -2.42737 2.76912, -2.31836 2.75117, -2.24783 2.72007, -2.18082 2.68288, -2.12985 2.59054, -2.09458 2.44306 L -0.609857 -3.33809 C -0.588697 -3.41311, -0.578437 -3.47114, -0.578437 -3.5125, -0.578437 -3.55322, -0.587094 -3.57727, -0.604727 -3.58432, -0.6541 -3.61478, -0.749961 -3.63337, -0.892631 -3.64042, -1.0353 -3.64716, -1.19111 -3.65068, -1.36039 -3.651, -1.45882 -3.65068, -1.50819 -3.69685, -1.50819 -3.78951 L -1.50819 -3.83054, -1.47645 -3.91775 C -1.45529 -4.02002, -1.38989 -4.07132, -1.28088 -4.07164 L 2.10567 -4.07164 C 2.41602 -4.07132, 2.70392 -4.02259, 2.9697 -3.92512, 3.23581 -3.82766, 3.46376 -3.68146, 3.65388 -3.48685, 3.82636 -3.30539, 3.94787 -3.08994, 4.0184 -2.84051, 4.03956 -2.72381, 4.05014 -2.60583, 4.05014 -2.48656, 4.05014 -2.34935, 4.03251 -2.20571, 3.99724 -2.05567 Z M 2.87192 -2.08132 C 2.93187 -2.29645, 2.97227 -2.50516, 2.99343 -2.70714 L 2.99343 -2.79948 C 2.99343 -2.95657, 2.94951 -3.1002, 2.86134 -3.23037, 2.74528 -3.38394, 2.59011 -3.4923, 2.39646 -3.55578, 2.20282 -3.61894, 1.99314 -3.65068, 1.76775 -3.651 L 0.774197 -3.651 C 0.594658 -3.65068, 0.487255 -3.6369, 0.451989 -3.60965, 0.416722 -3.58207, 0.379853 -3.48493, 0.341059 -3.31757 L -0.393448 -0.485987, 0.927446 -0.485987 C 1.15636 -0.485666, 1.38559 -0.518047, 1.6145 -0.58313, 1.84342 -0.647892, 2.05822 -0.759143, 2.25892 -0.916881, 2.43878 -1.07045, 2.57183 -1.24999, 2.65807 -1.45518, 2.74432 -1.66036, 2.81549 -1.86908, 2.87192 -2.08132 Z" stroke="none" fill="#0080FF" transform="matrix(1.12 0 0 1 26.6663 16.3063)" />
			<rect />
		</svg>
	</g>
	<g transform="matrix(1 0 -0 1 57.8118 116.251)">
		<svg width="39.020092" height="56.9999886">
			<defs />
			<path d="M 10.9882 6.6565 C 10.8817 7.08474, 10.6928 7.49408, 10.4225 7.88453, 10.1523 8.27556, 9.82484 8.61735, 9.44126 8.9099, 9.2718 9.05074, 9.15214 9.13948, 9.0823 9.17554, 9.30271 9.31066, 9.52599 9.53336, 9.75271 9.84424, 10.0355 10.2599, 10.2147 10.727, 10.2903 11.2457, 10.3029 11.4175, 10.3092 11.5881, 10.3092 11.7587, 10.3092 12.1137, 10.2651 12.4766, 10.1769 12.8488, 10.0264 13.411, 9.78591 13.9474, 9.45557 14.4569, 9.12524 14.9671, 8.70845 15.4233, 8.20521 15.8258, 7.74606 16.2174, 7.23996 16.5254, 6.68634 16.751, 6.13273 16.9771, 5.57625 17.0899, 5.01633 17.0899, 4.19249 17.0899, 3.51292 16.881, 2.9782 16.463, 2.44348 16.0451, 2.11371 15.6065, 1.98776 15.148 L 0.676138 20.2502 C 0.607437 20.403, 0.496942 20.4792, 0.3458 20.4792 L 0.251336 20.4792 C 0.170039 20.4792, 0.109926 20.4551, 0.0721399 20.4059, 0.0217591 20.3818, -0.00343132 20.3389, -0.00343132 20.2777, -0.00343132 20.2536, 0.00630134 20.2261, 0.0251942 20.1952 L 2.9782 8.64425 C 3.15453 7.9853, 3.41674 7.34294, 3.76597 6.71661, 4.1152 6.09086, 4.53085 5.53381, 5.01175 5.04489, 5.49266 4.55653, 6.03082 4.16265, 6.62509 3.86323, 7.21935 3.56438, 7.84396 3.41438, 8.49777 3.41381, 8.93803 3.41438, 9.33764 3.49854, 9.69603 3.66628, 10.0544 3.8346, 10.3567 4.06761, 10.6017 4.36646, 10.8285 4.66646, 10.9762 5.01741, 11.0449 5.41988, 11.0701 5.57904, 11.0826 5.73476, 11.0826 5.88705, 11.0826 6.1441, 11.0512 6.40059, 10.9882 6.6565 Z M 7.42202 9.20302 C 7.4661 9.18528, 7.43175 9.18871, 7.3184 9.21276, 7.20504 9.23738, 7.09512 9.2494, 6.98806 9.24883, 6.56039 9.2494, 6.29647 9.23738, 6.1957 9.21276, 6.09494 9.18871, 6.04456 9.19444, 6.04456 9.2305, 6.03826 9.2494, 6.09952 9.24654, 6.22834 9.22192, 6.35772 9.19787, 6.63253 9.18528, 7.0539 9.1847, 7.27431 9.18528, 7.39683 9.19157, 7.42202 9.20302 Z M 9.55405 4.72371 C 9.3279 4.25998, 8.93803 4.02811, 8.38441 4.02754, 7.84396 4.02811, 7.32183 4.15635, 6.81859 4.41284, 6.31536 4.66932, 5.85449 5.01454, 5.43598 5.44793, 5.01805 5.8819, 4.65165 6.37941, 4.33676 6.94104, 4.02246 7.50324, 3.79288 8.0832, 3.64804 8.6809 L 2.58202 12.8488 C 2.50645 13.1671, 2.46867 13.4785, 2.46867 13.7831, 2.46867 13.9423, 2.48126 14.1043, 2.50645 14.2686, 2.56943 14.7026, 2.71255 15.0816, 2.93583 15.405, 3.15911 15.7291, 3.45968 15.9884, 3.83696 16.1836, 4.21425 16.3794, 4.64821 16.4768, 5.13885 16.4762, 5.49152 16.4768, 5.84361 16.3823, 6.1957 16.1928, 6.5478 16.0039, 6.8684 15.756, 7.15809 15.4503, 7.50389 15.0781, 7.76953 14.6665, 7.95503 14.2142, 8.14052 13.7625, 8.29796 13.2936, 8.42677 12.8081, 8.55616 12.3226, 8.64547 11.8509, 8.69585 11.3923 L 8.69585 11.1083 C 8.69585 10.7854, 8.63918 10.4769, 8.52582 10.1832, 8.47544 10.0675, 8.41761 9.96103, 8.3512 9.86313, 8.28536 9.7658, 8.22067 9.68279, 8.15769 9.61523, 7.76152 9.76866, 7.34015 9.84481, 6.89359 9.84424 L 6.48768 9.84424 C 6.31192 9.84481, 6.13616 9.83107, 5.95983 9.80359, 5.7835 9.77611, 5.63922 9.71657, 5.52587 9.62439, 5.41251 9.56371, 5.35583 9.46294, 5.35583 9.32211, 5.35583 9.27402, 5.36213 9.22822, 5.37472 9.1847, 5.41881 9.00837, 5.52415 8.87841, 5.69075 8.79597, 5.85792 8.71353, 6.03712 8.65571, 6.22891 8.62193, 6.4207 8.58872, 6.60448 8.57155, 6.78024 8.57097 L 7.16725 8.57097 C 7.57603 8.57155, 7.95045 8.63853, 8.28994 8.7725, 8.32201 8.74845, 8.35979 8.71353, 8.4033 8.66773, 8.44738 8.62193, 8.50063 8.56868, 8.5636 8.50685, 8.81551 8.25094, 9.0136 7.9624, 9.15787 7.64179, 9.30271 7.32119, 9.41893 6.98054, 9.5071 6.61986, 9.60786 6.26032, 9.67084 5.9151, 9.69603 5.58476 L 9.69603 5.4382 C 9.69603 5.17599, 9.64908 4.93783, 9.55405 4.72371 Z" stroke="none" fill="#0080FF" />
			<rect />
		</svg>
	</g>
</svg>
