<?xml version="1.0"?>
<svg xmlns="http://www.w3.org/2000/svg" xmlns:xlink="http://www.w3.org/1999/xlink" width="302.170532" height="215.653061">
	<defs />
	<path d="M 2.21191 -11.8661 L -2.21191 11.8661" fill="none" stroke="#000000" stroke-width="3" stroke-linecap="round" stroke-linejoin="round" transform="matrix(0.333333 0 0 0.333333 181.95 155.753)" />
	<path d="M -39.0143 209.252 L 39.0143 -209.252" fill="none" stroke="#0080FF" stroke-width="4" stroke-linecap="round" stroke-linejoin="round" stroke-dasharray="14.02, 9.98" transform="matrix(0.333333 0 0 0.333333 186.544 89.958)" />
	<path d="M -366.442 -6.32522 L 366.442 -6.32522, 366.442 6.32522, -366.442 6.32522 Z" stroke="none" fill="#FFFFFF" transform="matrix(-0.327687 -0.0610956 0.0610956 -0.327687 153.239 155.924)" />
	<path d="M -366.442 -6.32522 L 366.442 -6.32522, 366.442 6.32522, -366.442 6.32522 Z" fill="none" stroke="#000000" stroke-width="3.60000014" stroke-linecap="round" stroke-linejoin="round" transform="matrix(-0.327687 -0.0610956 0.0610956 -0.327687 153.239 155.924)" />
	<g transform="matrix(1 0 -0 1 9 136.827)">
		<svg width="41.9788857" height="45.0428467">
			<defs />
			<path d="M 12.3983 16.5678 C 12.3296 16.751, 12.2099 16.8426, 12.0399 16.8426, 11.4113 16.806, 10.7849 16.7876, 10.1621 16.7876 L 9.85061 16.7876 C 9.11493 16.8002, 8.37582 16.8185, 7.63385 16.8426, 7.46439 16.8426, 7.37279 16.7636, 7.36019 16.6044 L 7.36019 16.5311, 7.39798 16.3754 C 7.44836 16.1745, 7.57088 16.0766, 7.76553 16.0823, 7.99854 16.0829, 8.20636 16.0754, 8.38842 16.06, 8.57105 16.0451, 8.74738 15.9913, 8.91685 15.8991, 8.97982 15.8693, 9.03364 15.8264, 9.07715 15.7709, 9.10234 15.7228, 9.11837 15.6735, 9.12409 15.6243 L 9.12409 15.5693, 8.89795 12.5282, 4.63333 12.5282, 3.13335 15.093 C 3.05148 15.2401, 3.01026 15.3747, 3.01026 15.4961, 3.01026 15.6002, 3.04175 15.6953, 3.10473 15.78, 3.24327 15.9821, 3.50148 16.0829, 3.87819 16.0823, 4.04822 16.0829, 4.13925 16.1562, 4.15185 16.3021, 4.15185 16.3394, 4.14555 16.3789, 4.13295 16.4212 L 4.09574 16.5678 C 4.02647 16.751, 3.90395 16.8426, 3.72762 16.8426, 3.14938 16.8185, 2.57687 16.8002, 2.01009 16.7876 L 1.75589 16.7876 C 1.26525 16.7876, 0.768314 16.806, 0.265078 16.8426, 0.170614 16.8426, 0.101341 16.8123, 0.0572573 16.751, 0.0194716 16.7149, 0.000578821 16.672, 0.000578821 16.6228, 0.000578821 16.5867, 0.00687641 16.55, 0.0194716 16.5128 L 0.0572573 16.3754 C 0.107638 16.1745, 0.230728 16.0766, 0.425381 16.0823, 0.626904 16.0829, 0.824993 16.0617, 1.01965 16.0188, 1.21487 15.9764, 1.3975 15.8997, 1.56697 15.7897, 1.737 15.6798, 1.89444 15.547, 2.03871 15.3913, 2.18356 15.2356, 2.31237 15.0598, 2.42573 14.864 L 9.08631 3.45961 C 9.19967 3.289, 9.34451 3.20656, 9.52084 3.21228 L 9.70004 3.21228 C 9.90156 3.21285, 10.0143 3.30732, 10.0395 3.49625 L 10.8697 15.4319 C 10.8823 15.5911, 10.9012 15.7119, 10.9264 15.7943, 10.9515 15.8768, 10.9956 15.9363, 11.0586 15.9724, 11.1468 16.0279, 11.2928 16.06, 11.4971 16.0691, 11.7021 16.0783, 11.9328 16.0829, 12.1905 16.0823, 12.3668 16.0829, 12.455 16.1562, 12.455 16.3021, 12.455 16.3394, 12.4487 16.3789, 12.4361 16.4212 Z M 8.4451 6.03361 L 5.08618 11.7862, 8.84127 11.7862 Z" stroke="none" fill="#000000" />
			<rect />
		</svg>
	</g>
	<g transform="matrix(1 0 -0 1 280.037 184.238)">
		<svg width="44.9376793" height="45.0428467">
			<defs />
			<path d="M 13.0332 7.12367 C 12.9267 7.56393, 12.7143 7.97614, 12.3966 8.36086, 12.0788 8.74559, 11.7124 9.07249, 11.2973 9.34043, 10.9704 9.56084, 10.6355 9.73489, 10.2926 9.86313, 9.94965 9.99137, 9.82828 10.0463, 9.92904 10.0274, 9.91072 10.0217, 10.0756 10.1001, 10.4248 10.2616, 10.7741 10.4236, 11.0804 10.6446, 11.3443 10.9251, 11.6403 11.2251, 11.8418 11.5852, 11.9483 12.006, 11.9987 12.2144, 12.0273 12.4188, 12.033 12.6198, 12.033 12.8522, 11.9987 13.0938, 11.9294 13.3434, 11.8103 13.814, 11.5899 14.2634, 11.2693 14.6905, 10.9487 15.1182, 10.5645 15.4903, 10.118 15.8075, 9.64622 16.1499, 9.1447 16.4081, 8.61342 16.5821, 8.08213 16.7561, 7.55198 16.8426, 7.02298 16.8426 L 0.267942 16.8426 C 0.173478 16.8426, 0.104204 16.8151, 0.0601207 16.7602, 0.0166099 16.7178, -0.00571795 16.672, -0.00571795 16.6228, -0.00571795 16.5867, 0.000579656 16.55, 0.0131749 16.5128 L 0.0509605 16.3754 C 0.0887462 16.1745, 0.211263 16.0766, 0.418512 16.0823, 0.714499 16.0829, 0.991594 16.0783, 1.24922 16.0691, 1.50685 16.06, 1.70208 16.0279, 1.83376 15.9724, 1.94711 15.9117, 2.03528 15.7468, 2.09826 15.4777 L 4.74955 5.15423 C 4.78733 5.02027, 4.80565 4.91664, 4.80565 4.84279, 4.80565 4.77008, 4.7902 4.72714, 4.75871 4.71455, 4.67054 4.66016, 4.49936 4.62695, 4.24459 4.61436, 3.98983 4.60234, 3.71159 4.59604, 3.4093 4.59547, 3.31541 4.59604, 3.24614 4.56569, 3.20205 4.50386, 3.16427 4.4678, 3.14538 4.422, 3.14538 4.36646, 3.14538 4.33039, 3.15511 4.29662, 3.17343 4.2657 L 3.20205 4.1283 C 3.22095 4.04357, 3.26675 3.97486, 3.33888 3.92277, 3.41102 3.87124, 3.48831 3.84491, 3.57018 3.84433 L 9.82542 3.84433 C 10.3413 3.84491, 10.8285 3.92162, 11.2876 4.07391, 11.7468 4.22677, 12.1275 4.4678, 12.4292 4.79699, 12.7252 5.09698, 12.933 5.44507, 13.0521 5.84125, 13.1025 6.04334, 13.1277 6.24773, 13.1277 6.45498, 13.1277 6.67539, 13.0962 6.8981, 13.0332 7.12367 Z M 11.1273 7.08703 C 11.1903 6.84314, 11.2218 6.59925, 11.2218 6.35422 L 11.2218 6.13437 C 11.1966 5.84182, 11.1084 5.56988, 10.9573 5.31912, 10.8256 5.09355, 10.651 4.91664, 10.434 4.7884, 10.217 4.66016, 9.96397 4.59604, 9.67428 4.59547 L 7.18329 4.59547 C 6.85009 4.59604, 6.6583 4.61722, 6.60791 4.65959, 6.53234 4.72142, 6.46021 4.89832, 6.39093 5.19088 L 5.2213 9.78927, 7.79702 9.78927 C 8.15541 9.78985, 8.51094 9.72, 8.86303 9.57916, 9.2157 9.4389, 9.55176 9.24024, 9.87236 8.98318, 10.5393 8.44617, 10.9578 7.81412, 11.1273 7.08703 Z M 9.96683 13.2885 C 10.055 12.9776, 10.0991 12.669, 10.0991 12.3633 L 10.0991 12.1709 C 10.0739 11.8297, 9.98286 11.5148, 9.82542 11.2274, 9.68687 10.9778, 9.49966 10.7746, 9.26379 10.6188, 9.02791 10.4631, 8.75311 10.3853, 8.43823 10.3847 L 5.05126 10.3847, 3.73964 15.5144 C 3.68926 15.7228, 3.66407 15.8722, 3.66407 15.9632, 3.66407 16.0125, 3.6675 16.0399, 3.6738 16.0457, 3.6864 16.0646, 3.85014 16.0766, 4.16444 16.0823 L 6.68349 16.0823 C 7.02928 16.0829, 7.37851 16.0084, 7.73061 15.8585, 8.08327 15.709, 8.40731 15.5121, 8.70273 15.267, 9.0302 14.9928, 9.29871 14.6848, 9.50939 14.3424, 9.72008 14.0007, 9.87294 13.6491, 9.96683 13.2885 Z" stroke="none" fill="#000000" />
			<rect />
		</svg>
	</g>
	<g transform="matrix(1 0 -0 1 208.052 9)">
		<svg width="44.9376793" height="45.0428467">
			<defs />
			<path d="M 12.9791 7.44427 C 12.8411 7.9395, 12.6052 8.39636, 12.272 8.81429, 11.9388 9.23279, 11.5421 9.59462, 11.0829 9.8992, 10.586 10.2416, 10.0564 10.4998, 9.49308 10.6738, 8.9303 10.8478, 8.3721 10.9349, 7.81848 10.9343 L 5.01605 10.9343, 3.83668 15.5144 C 3.79889 15.6495, 3.78 15.756, 3.78 15.835, 3.78 15.9088, 3.79603 15.9546, 3.82752 15.9724, 3.91569 16.0279, 4.08858 16.06, 4.34621 16.0691, 4.60441 16.0783, 4.88094 16.0829, 5.17635 16.0823, 5.35269 16.0829, 5.44085 16.1682, 5.44085 16.3388 L 5.44085 16.4029, 5.40307 16.5678 C 5.33379 16.751, 5.21128 16.8426, 5.03494 16.8426, 4.24889 16.806, 3.4594 16.7876, 2.66704 16.7876, 1.86839 16.7876, 1.06974 16.806, 0.270517 16.8426, 0.101054 16.8426, 0.0100247 16.7636, -0.00314299 16.6044 L -0.00314299 16.5311, 0.0346427 16.3754 C 0.0850235 16.1745, 0.207541 16.0766, 0.402194 16.0823, 0.698181 16.0829, 0.978139 16.0783, 1.24207 16.0691, 1.50657 16.06, 1.70122 16.0279, 1.82717 15.9724, 1.94683 15.906, 2.03785 15.7411, 2.10083 15.4777 L 4.75212 5.15423 C 4.78991 5.02027, 4.80823 4.91664, 4.80823 4.84279, 4.80823 4.77008, 4.79277 4.72714, 4.76128 4.71455, 4.67312 4.66016, 4.50194 4.62695, 4.24717 4.61436, 3.9924 4.60234, 3.71416 4.59604, 3.41188 4.59547, 3.23612 4.59604, 3.14795 4.5136, 3.14795 4.34814 L 3.14795 4.27486, 3.20463 4.11914 C 3.24241 3.93651, 3.35921 3.84491, 3.55386 3.84433 L 9.60128 3.84433 C 10.1555 3.84491, 10.6696 3.93193, 11.1442 4.10597, 11.6194 4.28001, 12.0264 4.54108, 12.3659 4.88859, 12.6739 5.21263, 12.8909 5.59736, 13.0169 6.04277, 13.0547 6.25116, 13.0736 6.46185, 13.0736 6.67482, 13.0736 6.91986, 13.0421 7.17634, 12.9791 7.44427 Z M 10.9696 7.39847 C 11.0766 7.01432, 11.1488 6.64162, 11.1866 6.28093 L 11.1866 6.11605 C 11.1866 5.83552, 11.1081 5.57904, 10.9507 5.3466, 10.7434 5.07237, 10.4663 4.87886, 10.1205 4.7655, 9.77475 4.65272, 9.40033 4.59604, 8.99786 4.59547 L 7.22365 4.59547 C 6.90304 4.59604, 6.71125 4.62066, 6.64827 4.66932, 6.5853 4.71856, 6.51946 4.89203, 6.45019 5.19088 L 5.13857 10.2473, 7.49731 10.2473 C 7.90608 10.2479, 8.31542 10.19, 8.7242 10.0738, 9.13297 9.95817, 9.51655 9.7595, 9.87494 9.47783, 10.1961 9.2036, 10.4337 8.88299, 10.5877 8.51659, 10.7417 8.15018, 10.8688 7.77748, 10.9696 7.39847 Z" stroke="none" fill="#E60000" />
			<rect />
		</svg>
	</g>
	<ellipse cx="1274.3902587890625" cy="274.14279174804687" rx="12" ry="12" stroke="none" fill="#E60000" transform="matrix(0.333333 0 0 0.333333 -225.248 -71.1735)" />
	<ellipse cx="1274.3902587890625" cy="274.14279174804687" rx="8" ry="8" stroke="none" fill="#FFFFFF" transform="matrix(0.333333 0 0 0.333333 -225.248 -71.1735)" />
	<path d="M 0 -14.3495 L 14.9661 14.3495, -14.9661 14.3495 Z" stroke="none" fill="#FFFFFF" transform="matrix(0.333333 0 -0 0.333333 273.317 178.312)" />
	<path d="M 0 -14.3495 L 14.9661 14.3495, -14.9661 14.3495 Z" fill="none" stroke="#000000" stroke-width="3.60000014" stroke-linecap="round" stroke-linejoin="round" transform="matrix(0.333333 0 -0 0.333333 273.317 178.312)" />
	<g transform="matrix(1 0 -0 1 76.6942 150.824)">
		<svg width="107.972839" height="54.0428391">
			<defs />
			<path d="M 13.6764 10.4854 C 13.4623 11.3104, 13.1245 12.1074, 12.6619 12.8768, 12.1999 13.6463, 11.6199 14.3453, 10.9215 14.9739, 10.286 15.5424, 9.58811 15.9959, 8.82667 16.3348, 8.06581 16.6737, 7.30494 16.8426, 6.5435 16.8426 L 0.269371 16.8426 C 0.0999078 16.8426, 0.00887877 16.7636, -0.00428895 16.6044 L -0.00428895 16.5311, 0.0334967 16.3754 C 0.0838775 16.1745, 0.206395 16.0766, 0.401048 16.0823, 0.697035 16.0829, 0.976993 16.0783, 1.24092 16.0691, 1.50542 16.06, 1.70007 16.0279, 1.82602 15.9724, 1.94568 15.906, 2.03671 15.7411, 2.09968 15.4777 L 4.75098 5.15423 C 4.78876 5.02027, 4.80708 4.91664, 4.80708 4.84279, 4.80708 4.77008, 4.79163 4.72714, 4.76014 4.71455, 4.67197 4.66016, 4.50079 4.62695, 4.24602 4.61436, 3.99126 4.60234, 3.71302 4.59604, 3.41073 4.59547, 3.23497 4.59604, 3.1468 4.5136, 3.1468 4.34814 L 3.1468 4.27486, 3.20348 4.11914 C 3.24127 3.93651, 3.35806 3.84491, 3.55271 3.84433 L 9.84574 3.84433 C 10.6255 3.84491, 11.3051 4.02525, 11.8839 4.38535, 12.4627 4.74604, 12.9281 5.21893, 13.2802 5.80461, 13.6575 6.46471, 13.8711 7.19752, 13.9214 8.00304, 13.934 8.1748, 13.9403 8.33338, 13.9403 8.47937, 13.9403 9.13318, 13.8527 9.80187, 13.6764 10.4854 Z M 11.8552 6.22597 C 11.6417 5.71988, 11.3068 5.32141, 10.8505 5.03115, 10.3948 4.74146, 9.86177 4.59604, 9.25148 4.59547 L 7.2225 4.59547 C 6.9019 4.59604, 6.7101 4.62066, 6.64713 4.66932, 6.58415 4.71856, 6.51831 4.89203, 6.44904 5.19088 L 3.77886 15.5144 C 3.72847 15.7228, 3.70328 15.8722, 3.70328 15.9632 L 3.70328 16.0365 C 3.72847 16.0617, 3.89565 16.0766, 4.20366 16.0823 L 6.23206 16.0823 C 6.84865 16.0829, 7.46353 15.9443, 8.07668 15.6661, 8.69042 15.3884, 9.23888 15.002, 9.72322 14.5068, 10.2768 13.9331, 10.7016 13.2936, 10.9971 12.5883, 11.2925 11.8829, 11.5283 11.1702, 11.7041 10.4488, 11.8993 9.69825, 12.0344 8.95627, 12.11 8.22289, 12.1226 8.05228, 12.1289 7.8874, 12.1289 7.72824, 12.1289 7.19123, 12.0379 6.69085, 11.8552 6.22597 Z" stroke="none" fill="#0080FF" />
			<path d="M 3.71091 3.0535 C 3.67243 3.15609, 3.60543 3.20739, 3.51021 3.20739, 3.15818 3.18687, 2.80744 3.17661, 2.45862 3.17661 L 2.28421 3.17661 C 1.87223 3.18366, 1.45833 3.19392, 1.04283 3.20739, 0.947929 3.20739, 0.896632 3.16314, 0.889579 3.07402 L 0.889579 3.03298, 0.910739 2.94577 C 0.938952 2.83324, 1.00756 2.77842, 1.11657 2.78162, 1.24705 2.78194, 1.36343 2.77778, 1.46539 2.76912, 1.56766 2.76078, 1.66641 2.73065, 1.7613 2.67903, 1.79657 2.66236, 1.82671 2.63831, 1.85107 2.60721, 1.86518 2.58028, 1.87416 2.55271, 1.87736 2.52514 L 1.87736 2.49436, 1.75073 0.791305, -0.637465 0.791305, -1.47745 2.22762 C -1.5233 2.31001, -1.54638 2.38536, -1.54638 2.45332, -1.54638 2.51167, -1.52875 2.56489, -1.49348 2.61234, -1.4159 2.72552, -1.2713 2.78194, -1.06034 2.78162, -0.965124 2.78194, -0.914148 2.82298, -0.907094 2.90474, -0.907094 2.92558, -0.910621 2.9477, -0.917674 2.97142 L -0.938514 3.0535 C -0.977307 3.15609, -1.04592 3.20739, -1.14466 3.20739, -1.46847 3.19392, -1.78908 3.18366, -2.10648 3.17661 L -2.24883 3.17661 C -2.52359 3.17661, -2.80187 3.18687, -3.08368 3.20739, -3.13658 3.20739, -3.17538 3.1904, -3.20006 3.15609, -3.22122 3.13589, -3.2318 3.11185, -3.2318 3.08428, -3.2318 3.06408, -3.22828 3.04356, -3.22122 3.02272 L -3.20006 2.94577 C -3.17185 2.83324, -3.10292 2.77842, -2.99392 2.78162, -2.88106 2.78194, -2.77013 2.77008, -2.66113 2.74604, -2.5518 2.72231, -2.44953 2.67935, -2.35463 2.61779, -2.25941 2.55624, -2.17124 2.48186, -2.09045 2.39465, -2.00934 2.30745, -1.9372 2.20902, -1.87372 2.09938 L 1.8562 -4.28709 C 1.91968 -4.38263, 2.0008 -4.42879, 2.09954 -4.42559 L 2.19989 -4.42559 C 2.31275 -4.42527, 2.37591 -4.37237, 2.39001 -4.26657 L 2.85489 2.41742 C 2.86194 2.50654, 2.87252 2.57419, 2.88663 2.62036, 2.90074 2.66653, 2.92542 2.69987, 2.96069 2.72007, 3.01006 2.75117, 3.09182 2.76912, 3.20627 2.77425, 3.32105 2.77938, 3.45025 2.78194, 3.59453 2.78162, 3.69327 2.78194, 3.74265 2.82298, 3.74265 2.90474, 3.74265 2.92558, 3.73912 2.9477, 3.73207 2.97142 Z M 1.49713 -2.84564 L -0.383866 0.375801, 1.71898 0.375801 Z" stroke="none" fill="#0080FF" transform="matrix(1.12 0 0 1 18.1508 16.3063)" />
			<path d="M 5.84732 -3.81002 C 5.82616 -3.70358, 5.76107 -3.65068, 5.65175 -3.651, 5.48631 -3.65068, 5.32986 -3.64716, 5.18174 -3.64042, 5.03394 -3.63337, 4.92654 -3.61542, 4.85953 -3.58656, 4.79284 -3.55739, 4.73994 -3.46762, 4.70083 -3.31757 L 3.21643 2.46358 C 3.19559 2.53925, 3.18501 2.59888, 3.18501 2.64312, 3.18501 2.68448, 3.19559 2.71013, 3.21643 2.72007, 3.2658 2.75117, 3.36198 2.76912, 3.50465 2.77425, 3.64732 2.77938, 3.80121 2.78194, 3.96664 2.78162, 4.06539 2.78194, 4.11444 2.82298, 4.11444 2.90474, 4.11444 2.92558, 4.11124 2.9477, 4.10418 2.97142 L 4.08302 3.04837 C 4.07244 3.09325, 4.04872 3.13076, 4.01153 3.16122, 3.97466 3.192, 3.93138 3.20739, 3.882 3.20739, 3.46329 3.18687, 3.03721 3.17661, 2.60375 3.17661, 2.17093 3.17661, 1.73427 3.18687, 1.29376 3.20739, 1.20238 3.20739, 1.15654 3.16314, 1.15654 3.07402 L 1.15654 3.03298, 1.17738 2.94577 C 1.20559 2.83324, 1.27452 2.77842, 1.38353 2.78162, 1.54896 2.78194, 1.70413 2.77938, 1.8484 2.77425, 1.993 2.76912, 2.1004 2.75117, 2.17061 2.72007, 2.23409 2.68608, 2.28539 2.59375, 2.32386 2.44306 L 3.80827 -3.2868, -0.116587 3.06376 C -0.169166 3.15962, -0.250279 3.20739, -0.359606 3.20739 L -0.412505 3.20739 C -0.521511 3.20739, -0.586915 3.15289, -0.608075 3.04324 L -1.24704 -3.23037, -2.63655 2.18145 C -2.65738 2.24333, -2.66796 2.30841, -2.66796 2.37638, -2.66796 2.39369, -2.66444 2.41261, -2.65738 2.43281, -2.65033 2.5152, -2.62244 2.58028, -2.57307 2.62773, -2.50959 2.68961, -2.42495 2.73065, -2.31947 2.75117, -2.21367 2.77169, -2.09408 2.78194, -1.96039 2.78162, -1.86164 2.78194, -1.81227 2.82298, -1.81227 2.90474, -1.81227 2.92558, -1.8158 2.9477, -1.82285 2.97142 L -1.84401 3.04837 C -1.85459 3.09325, -1.87831 3.13076, -1.9155 3.16122, -1.95237 3.192, -1.99726 3.20739, -2.05016 3.20739, -2.40218 3.18687, -2.75773 3.17661, -3.11713 3.17661, -3.47621 3.17661, -3.84074 3.18687, -4.21072 3.20739, -4.2633 3.20739, -4.30209 3.192, -4.32678 3.16122, -4.35114 3.1375, -4.36365 3.11185, -4.36365 3.08428, -4.36365 3.06408, -4.36012 3.04356, -4.35307 3.02272 L -4.33223 2.94577 C -4.30401 2.83324, -4.23508 2.77842, -4.12608 2.78162, -3.99207 2.78194, -3.86639 2.77169, -3.74841 2.75117, -3.63042 2.73065, -3.52013 2.68801, -3.41818 2.6226, -3.33707 2.57163, -3.27102 2.5043, -3.22005 2.4203, -3.16875 2.33662, -3.13092 2.24685, -3.10655 2.15067 L -1.69076 -3.33809 C -1.6696 -3.41311, -1.65902 -3.47114, -1.65902 -3.5125, -1.65902 -3.55322, -1.66768 -3.57727, -1.68563 -3.58432, -1.73468 -3.61478, -1.83054 -3.63337, -1.97321 -3.64042, -2.11588 -3.64716, -2.27009 -3.65068, -2.43553 -3.651, -2.53043 -3.65068, -2.58172 -3.69685, -2.58878 -3.78951 L -2.58878 -3.82541, -2.56762 -3.91775 C -2.52882 -4.02002, -2.46021 -4.07132, -2.36179 -4.07164 L -0.650074 -4.07164 C -0.537221 -4.07132, -0.474062 -4.01649, -0.459955 -3.90749 L 0.142142 1.95574, 3.77653 -3.92801 C 3.82943 -4.02355, 3.91054 -4.07132, 4.01954 -4.07164 L 5.73094 -4.07164 C 5.78031 -4.07132, 5.82263 -4.05433, 5.8579 -4.02034, 5.872 -3.99277, 5.87906 -3.96712, 5.87906 -3.9434, 5.87906 -3.92256, 5.87393 -3.90364, 5.86303 -3.88697 Z" stroke="none" fill="#0080FF" transform="matrix(1.12 0 0 1 27.9245 16.3063)" />
			<rect />
		</svg>
	</g>
	<path d="M -11.1234 -2.07367 L 11.1218 2.07367" fill="none" stroke="#000000" stroke-width="3" stroke-linecap="round" stroke-linejoin="round" transform="matrix(0.333333 0 0 0.333333 178.98 151.107)" />
	<g transform="matrix(1 0 -0 1 159.198 165.34)">
		<svg width="59.9889336" height="45.0428467">
			<defs />
			<path d="M 18.2327 4.3115 C 18.1949 4.50157, 18.0787 4.59604, 17.8835 4.59547, 17.5881 4.59604, 17.3087 4.60234, 17.0442 4.61436, 16.7803 4.62695, 16.5885 4.65901, 16.4688 4.71054, 16.3497 4.76264, 16.2553 4.92294, 16.1854 5.19088 L 13.5347 15.5144 C 13.4975 15.6495, 13.4786 15.756, 13.4786 15.835, 13.4786 15.9088, 13.4975 15.9546, 13.5347 15.9724, 13.6229 16.0279, 13.7946 16.06, 14.0494 16.0691, 14.3042 16.0783, 14.579 16.0829, 14.8744 16.0823, 15.0507 16.0829, 15.1383 16.1562, 15.1383 16.3021, 15.1383 16.3394, 15.1326 16.3789, 15.12 16.4212 L 15.0822 16.5586 C 15.0633 16.6388, 15.0209 16.7058, 14.9545 16.7602, 14.8887 16.8151, 14.8114 16.8426, 14.7232 16.8426, 13.9755 16.806, 13.2147 16.7876, 12.4406 16.7876, 11.6678 16.7876, 10.888 16.806, 10.1014 16.8426, 9.9382 16.8426, 9.85634 16.7636, 9.85634 16.6044 L 9.85634 16.5311, 9.89355 16.3754 C 9.94393 16.1745, 10.067 16.0766, 10.2617 16.0823, 10.5571 16.0829, 10.8342 16.0783, 11.0918 16.0691, 11.35 16.06, 11.5418 16.0279, 11.6672 15.9724, 11.7805 15.9117, 11.8721 15.7468, 11.9408 15.4777 L 14.5916 5.24584, 7.5829 16.5861 C 7.48901 16.7573, 7.34416 16.8426, 7.14894 16.8426 L 7.05447 16.8426 C 6.85982 16.8426, 6.74303 16.7453, 6.70524 16.5495 L 5.56423 5.3466, 3.08297 15.0106 C 3.04576 15.1211, 3.02687 15.2373, 3.02687 15.3586, 3.02687 15.3896, 3.03317 15.4233, 3.04576 15.4594, 3.05836 15.6065, 3.10816 15.7228, 3.19633 15.8075, 3.30969 15.918, 3.46083 15.9913, 3.64919 16.0279, 3.83811 16.0646, 4.05166 16.0829, 4.2904 16.0823, 4.46673 16.0829, 4.5549 16.1562, 4.5549 16.3021, 4.5549 16.3394, 4.5486 16.3789, 4.536 16.4212 L 4.49822 16.5586 C 4.47932 16.6388, 4.43696 16.7058, 4.37055 16.7602, 4.30471 16.8151, 4.22456 16.8426, 4.13009 16.8426, 3.50148 16.806, 2.86656 16.7876, 2.22478 16.7876, 1.58357 16.7876, 0.932627 16.806, 0.271951 16.8426, 0.178059 16.8426, 0.108785 16.8151, 0.0647021 16.7602, 0.0211914 16.7178, -0.00113648 16.672, -0.00113648 16.6228, -0.00113648 16.5867, 0.00516113 16.55, 0.0177563 16.5128 L 0.0549695 16.3754 C 0.10535 16.1745, 0.22844 16.0766, 0.423093 16.0823, 0.662402 16.0829, 0.886826 16.0646, 1.09751 16.0279, 1.30819 15.9913, 1.50514 15.9151, 1.68719 15.7983, 1.83204 15.7073, 1.94998 15.5871, 2.04101 15.4371, 2.13261 15.2877, 2.20016 15.1274, 2.24367 14.9556 L 4.77188 5.15423 C 4.80966 5.02027, 4.82856 4.91664, 4.82856 4.84279, 4.82856 4.77008, 4.8131 4.72714, 4.78104 4.71455, 4.69344 4.66016, 4.52226 4.62695, 4.2675 4.61436, 4.01273 4.60234, 3.73735 4.59604, 3.44194 4.59547, 3.27247 4.59604, 3.18087 4.5136, 3.16828 4.34814 L 3.16828 4.28402, 3.20606 4.11914 C 3.27534 3.93651, 3.39785 3.84491, 3.57361 3.84433 L 6.63024 3.84433 C 6.83177 3.84491, 6.94455 3.9428, 6.96974 4.13746 L 8.04491 14.6075, 14.5349 4.10082 C 14.6293 3.93021, 14.7742 3.84491, 14.9688 3.84433 L 18.0249 3.84433 C 18.1131 3.84491, 18.1886 3.87525, 18.2516 3.93593, 18.2768 3.98517, 18.2894 4.03097, 18.2894 4.07334, 18.2894 4.11055, 18.2802 4.14433, 18.2608 4.1741 Z" stroke="none" fill="#000000" />
			<rect />
		</svg>
	</g>
	<g transform="matrix(1 0 -0 1 195.612 81.7999)">
		<svg width="105.014053" height="54.0428391">
			<defs />
			<path d="M 13.6764 10.4854 C 13.4623 11.3104, 13.1245 12.1074, 12.6619 12.8768, 12.1999 13.6463, 11.6199 14.3453, 10.9215 14.9739, 10.286 15.5424, 9.58811 15.9959, 8.82667 16.3348, 8.06581 16.6737, 7.30494 16.8426, 6.5435 16.8426 L 0.269371 16.8426 C 0.0999078 16.8426, 0.00887877 16.7636, -0.00428895 16.6044 L -0.00428895 16.5311, 0.0334967 16.3754 C 0.0838775 16.1745, 0.206395 16.0766, 0.401048 16.0823, 0.697035 16.0829, 0.976993 16.0783, 1.24092 16.0691, 1.50542 16.06, 1.70007 16.0279, 1.82602 15.9724, 1.94568 15.906, 2.03671 15.7411, 2.09968 15.4777 L 4.75098 5.15423 C 4.78876 5.02027, 4.80708 4.91664, 4.80708 4.84279, 4.80708 4.77008, 4.79163 4.72714, 4.76014 4.71455, 4.67197 4.66016, 4.50079 4.62695, 4.24602 4.61436, 3.99126 4.60234, 3.71302 4.59604, 3.41073 4.59547, 3.23497 4.59604, 3.1468 4.5136, 3.1468 4.34814 L 3.1468 4.27486, 3.20348 4.11914 C 3.24127 3.93651, 3.35806 3.84491, 3.55271 3.84433 L 9.84574 3.84433 C 10.6255 3.84491, 11.3051 4.02525, 11.8839 4.38535, 12.4627 4.74604, 12.9281 5.21893, 13.2802 5.80461, 13.6575 6.46471, 13.8711 7.19752, 13.9214 8.00304, 13.934 8.1748, 13.9403 8.33338, 13.9403 8.47937, 13.9403 9.13318, 13.8527 9.80187, 13.6764 10.4854 Z M 11.8552 6.22597 C 11.6417 5.71988, 11.3068 5.32141, 10.8505 5.03115, 10.3948 4.74146, 9.86177 4.59604, 9.25148 4.59547 L 7.2225 4.59547 C 6.9019 4.59604, 6.7101 4.62066, 6.64713 4.66932, 6.58415 4.71856, 6.51831 4.89203, 6.44904 5.19088 L 3.77886 15.5144 C 3.72847 15.7228, 3.70328 15.8722, 3.70328 15.9632 L 3.70328 16.0365 C 3.72847 16.0617, 3.89565 16.0766, 4.20366 16.0823 L 6.23206 16.0823 C 6.84865 16.0829, 7.46353 15.9443, 8.07668 15.6661, 8.69042 15.3884, 9.23888 15.002, 9.72322 14.5068, 10.2768 13.9331, 10.7016 13.2936, 10.9971 12.5883, 11.2925 11.8829, 11.5283 11.1702, 11.7041 10.4488, 11.8993 9.69825, 12.0344 8.95627, 12.11 8.22289, 12.1226 8.05228, 12.1289 7.8874, 12.1289 7.72824, 12.1289 7.19123, 12.0379 6.69085, 11.8552 6.22597 Z" stroke="none" fill="#0080FF" />
			<path d="M 5.84714 -3.81002 C 5.82598 -3.70358, 5.7609 -3.65068, 5.65157 -3.651, 5.48614 -3.65068, 5.32968 -3.64716, 5.18156 -3.64042, 5.03376 -3.63337, 4.92636 -3.61542, 4.85935 -3.58656, 4.79267 -3.55739, 4.73977 -3.46762, 4.70065 -3.31757 L 3.21625 2.46358 C 3.19541 2.53925, 3.18483 2.59888, 3.18483 2.64312, 3.18483 2.68448, 3.19541 2.71013, 3.21625 2.72007, 3.26562 2.75117, 3.3618 2.76912, 3.50447 2.77425, 3.64714 2.77938, 3.80103 2.78194, 3.96647 2.78162, 4.06521 2.78194, 4.11427 2.82298, 4.11427 2.90474, 4.11427 2.92558, 4.11106 2.9477, 4.10401 2.97142 L 4.08285 3.04837 C 4.07227 3.09325, 4.04854 3.13076, 4.01135 3.16122, 3.97448 3.192, 3.9312 3.20739, 3.88183 3.20739, 3.46312 3.18687, 3.03703 3.17661, 2.60357 3.17661, 2.17076 3.17661, 1.73409 3.18687, 1.29358 3.20739, 1.20221 3.20739, 1.15636 3.16314, 1.15636 3.07402 L 1.15636 3.03298, 1.1772 2.94577 C 1.20541 2.83324, 1.27434 2.77842, 1.38335 2.78162, 1.54878 2.78194, 1.70395 2.77938, 1.84823 2.77425, 1.99282 2.76912, 2.10022 2.75117, 2.17043 2.72007, 2.23391 2.68608, 2.28521 2.59375, 2.32368 2.44306 L 3.80809 -3.2868, -0.116765 3.06376 C -0.169344 3.15962, -0.250457 3.20739, -0.359784 3.20739 L -0.412683 3.20739 C -0.521689 3.20739, -0.587093 3.15289, -0.608253 3.04324 L -1.24722 -3.23037, -2.63672 2.18145 C -2.65756 2.24333, -2.66814 2.30841, -2.66814 2.37638, -2.66814 2.39369, -2.66462 2.41261, -2.65756 2.43281, -2.65051 2.5152, -2.62262 2.58028, -2.57324 2.62773, -2.50976 2.68961, -2.42512 2.73065, -2.31964 2.75117, -2.21384 2.77169, -2.09426 2.78194, -1.96057 2.78162, -1.86182 2.78194, -1.81245 2.82298, -1.81245 2.90474, -1.81245 2.92558, -1.81597 2.9477, -1.82303 2.97142 L -1.84419 3.04837 C -1.85477 3.09325, -1.87849 3.13076, -1.91568 3.16122, -1.95255 3.192, -1.99744 3.20739, -2.05034 3.20739, -2.40236 3.18687, -2.75791 3.17661, -3.11731 3.17661, -3.47639 3.17661, -3.84092 3.18687, -4.2109 3.20739, -4.26348 3.20739, -4.30227 3.192, -4.32696 3.16122, -4.35132 3.1375, -4.36383 3.11185, -4.36383 3.08428, -4.36383 3.06408, -4.3603 3.04356, -4.35325 3.02272 L -4.33241 2.94577 C -4.30419 2.83324, -4.23526 2.77842, -4.12626 2.78162, -3.99224 2.78194, -3.86657 2.77169, -3.74858 2.75117, -3.6306 2.73065, -3.52031 2.68801, -3.41836 2.6226, -3.33725 2.57163, -3.2712 2.5043, -3.22023 2.4203, -3.16893 2.33662, -3.1311 2.24685, -3.10673 2.15067 L -1.69094 -3.33809 C -1.66978 -3.41311, -1.6592 -3.47114, -1.6592 -3.5125, -1.6592 -3.55322, -1.66785 -3.57727, -1.68581 -3.58432, -1.73486 -3.61478, -1.83072 -3.63337, -1.97339 -3.64042, -2.11606 -3.64716, -2.27027 -3.65068, -2.4357 -3.651, -2.5306 -3.65068, -2.5819 -3.69685, -2.58895 -3.78951 L -2.58895 -3.82541, -2.56779 -3.91775 C -2.529 -4.02002, -2.46039 -4.07132, -2.36196 -4.07164 L -0.650252 -4.07164 C -0.537399 -4.07132, -0.47424 -4.01649, -0.460133 -3.90749 L 0.141964 1.95574, 3.77635 -3.92801 C 3.82925 -4.02355, 3.91036 -4.07132, 4.01937 -4.07164 L 5.73076 -4.07164 C 5.78013 -4.07132, 5.82245 -4.05433, 5.85772 -4.02034, 5.87183 -3.99277, 5.87888 -3.96712, 5.87888 -3.9434, 5.87888 -3.92256, 5.87375 -3.90364, 5.86285 -3.88697 Z" stroke="none" fill="#0080FF" transform="matrix(1.12 0 0 1 19.2822 16.3063)" />
			<path d="M 3.99564 -2.05567 C 3.91838 -1.77835, 3.78629 -1.5225, 3.59969 -1.28846, 3.4131 -1.0541, 3.19124 -0.851477, 2.93412 -0.680915, 2.65583 -0.489193, 2.35927 -0.3446, 2.04412 -0.247136, 1.72896 -0.149672, 1.41637 -0.10094, 1.10634 -0.10126 L -0.462699 -0.10126, -1.12283 2.46358 C -1.14399 2.53925, -1.15457 2.59888, -1.15457 2.64312, -1.15457 2.68448, -1.14559 2.71013, -1.12828 2.72007, -1.0789 2.75117, -0.981759 2.76912, -0.837487 2.77425, -0.693214 2.77938, -0.538362 2.78194, -0.372929 2.78162, -0.274183 2.78194, -0.224809 2.82972, -0.224809 2.92526 L -0.224809 2.96116, -0.24597 3.0535 C -0.284442 3.15609, -0.353372 3.20739, -0.452119 3.20739, -0.891989 3.18687, -1.3341 3.17661, -1.77782 3.17661, -2.22507 3.17661, -2.67231 3.18687, -3.11956 3.20739, -3.21446 3.20739, -3.26543 3.16314, -3.27281 3.07402 L -3.27281 3.03298, -3.25165 2.94577 C -3.22343 2.83324, -3.15482 2.77842, -3.04582 2.78162, -2.88006 2.78194, -2.72329 2.77938, -2.57549 2.77425, -2.42737 2.76912, -2.31836 2.75117, -2.24815 2.72007, -2.18114 2.68288, -2.13017 2.59054, -2.0949 2.44306 L -0.610498 -3.33809 C -0.589338 -3.41311, -0.578758 -3.47114, -0.578758 -3.5125, -0.578758 -3.55322, -0.587414 -3.57727, -0.605368 -3.58432, -0.654421 -3.61478, -0.750282 -3.63337, -0.892951 -3.64042, -1.03562 -3.64716, -1.19143 -3.65068, -1.36071 -3.651, -1.45914 -3.65068, -1.50851 -3.69685, -1.50851 -3.78951 L -1.50851 -3.83054, -1.47677 -3.91775 C -1.45561 -4.02002, -1.39053 -4.07132, -1.28153 -4.07164 L 2.10471 -4.07164 C 2.41474 -4.07132, 2.70264 -4.02259, 2.96842 -3.92512, 3.23452 -3.82766, 3.46247 -3.68146, 3.65227 -3.48685, 3.82508 -3.30539, 3.94659 -3.08994, 4.0168 -2.84051, 4.03796 -2.72381, 4.04854 -2.60583, 4.04854 -2.48656, 4.04854 -2.34935, 4.03091 -2.20571, 3.99564 -2.05567 Z M 2.87064 -2.08132 C 2.93059 -2.29645, 2.97099 -2.50516, 2.99215 -2.70714 L 2.99215 -2.79948 C 2.99215 -2.95657, 2.94822 -3.1002, 2.86006 -3.23037, 2.744 -3.38394, 2.58882 -3.4923, 2.39518 -3.55578, 2.20153 -3.61894, 1.99218 -3.65068, 1.76647 -3.651 L 0.773556 -3.651 C 0.594017 -3.65068, 0.486614 -3.6369, 0.451348 -3.60965, 0.416081 -3.58207, 0.379211 -3.48493, 0.340418 -3.31757 L -0.394089 -0.485987, 0.926805 -0.485987 C 1.15572 -0.485666, 1.38463 -0.518047, 1.61354 -0.58313, 1.84245 -0.647892, 2.05726 -0.759143, 2.25796 -0.916881, 2.4375 -1.07045, 2.57055 -1.24999, 2.65679 -1.45518, 2.74304 -1.66036, 2.81421 -1.86908, 2.87064 -2.08132 Z" stroke="none" fill="#0080FF" transform="matrix(1.12 0 0 1 28.6624 16.3063)" />
			<rect />
		</svg>
	</g>
	<path d="M -209.409 -39.0417 L 209.409 39.0408" fill="none" stroke="#0080FF" stroke-width="4" stroke-linecap="round" stroke-linejoin="round" transform="matrix(0.333333 0 0 0.333333 103.236 146.549)" />
	<path d="M 0 -14.35 L 14.967 14.35, -14.967 14.35 Z" stroke="none" fill="#FFFFFF" transform="matrix(0.333333 0 -0 0.333333 33.1605 133.536)" />
	<path d="M 0 -14.35 L 14.967 14.35, -14.967 14.35 Z" fill="none" stroke="#000000" stroke-width="3.60000014" stroke-linecap="round" stroke-linejoin="round" transform="matrix(0.333333 0 -0 0.333333 33.1605 133.536)" />
	<ellipse cx="1196.4404296875" cy="692.22418212890625" rx="12" ry="12" stroke="none" fill="#000000" transform="matrix(0.333333 0 0 0.333333 -225.248 -71.1735)" />
	<ellipse cx="1196.4404296875" cy="692.22418212890625" rx="8" ry="8" stroke="none" fill="#FFFFFF" transform="matrix(0.333333 0 0 0.333333 -225.248 -71.1735)" />
</svg>
