<?xml version="1.0"?>
<svg xmlns="http://www.w3.org/2000/svg" xmlns:xlink="http://www.w3.org/1999/xlink" width="586.612427" height="262.23053">
	<defs>
		<pattern id="Fill_HP-01" patternTransform="rotate(135)" patternUnits="userSpaceOnUse" width="25" height="25">
			<rect width="25" height="25" fill="#FFFFFF" fill-opacity="0" />
			<path d="M 0 12.5 L 25 12.5" fill="none" stoke-width="5" stroke="#777777" />
		</pattern>
		<marker id="CustomMarker-01" markerUnits="strokeWidth" markerWidth="9" markerHeight="9" viewBox="-9 -4.5 9 9" orient="auto-start-reverse">
			<path d="M 0 -0 L -6 -3, -4.8 -0.5, -4.8 0.5, -6 3 Z" fill="#0080FF" stroke="#0080FF" stroke-linejoin="round" />
		</marker>
		<marker id="CustomMarker-02" markerUnits="strokeWidth" markerWidth="15.000001" markerHeight="9" viewBox="-15 -4.5 15 9" orient="auto-start-reverse">
			<path d="M 0 -0 L -10 -3, -8 -0.5, -8 0.5, -10 3 Z" fill="#000000" stroke="#000000" stroke-linejoin="round" />
		</marker>
		<marker id="CustomMarker-03" markerUnits="strokeWidth" markerWidth="9" markerHeight="9" viewBox="-9 -4.5 9 9" orient="auto-start-reverse">
			<path d="M 0 -0 L -6 -3, -4.8 -0.5, -4.8 0.5, -6 3 Z" fill="#E60000" stroke="#E60000" stroke-linejoin="round" />
		</marker>
		<marker id="CustomMarker-04" markerUnits="strokeWidth" markerWidth="9" markerHeight="9" viewBox="-9 -4.5 9 9" orient="auto-start-reverse">
			<path d="M 0 -0 L -6 -3, -4.8 -0.5, -4.8 0.5, -6 3 Z" fill="#0080FF" stroke="#0080FF" stroke-linejoin="round" />
		</marker>
		<marker id="CustomMarker-05" markerUnits="strokeWidth" markerWidth="15.000001" markerHeight="9" viewBox="-15 -4.5 15 9" orient="auto-start-reverse">
			<path d="M 0 -0 L -10 -3, -8 -0.5, -8 0.5, -10 3 Z" fill="#000000" stroke="#000000" stroke-linejoin="round" />
		</marker>
		<marker id="CustomMarker-06" markerUnits="strokeWidth" markerWidth="9" markerHeight="9" viewBox="-9 -4.5 9 9" orient="auto-start-reverse">
			<path d="M 0 -0 L -6 -3, -4.8 -0.5, -4.8 0.5, -6 3 Z" fill="#E60000" stroke="#E60000" stroke-linejoin="round" />
		</marker>
	</defs>
	<rect x="-626.573608" y="0" width="1253.14722" height="16.7007446" stroke="none" fill="url(#Fill_HP-01)" transform="matrix(0.454545 0 -0 0.454545 293.306 246.139)" />
	<path d="M -626.574 0 L 626.574 0" fill="none" stroke="#000000" stroke-width="2.9333334" stroke-linecap="round" stroke-linejoin="round" transform="matrix(0.454545 0 -0 0.454545 293.306 246.139)" />
	<path d="M 16.7017 -127.846 L -16.7019 127.845" fill="none" stroke="#8B8B8B" stroke-width="5.86666679" stroke-linecap="round" stroke-linejoin="round" transform="matrix(0.454545 0 0 0.454545 367.777 188.028)" />
	<path d="M -35.0437 -127.846 L 35.0442 127.845" fill="none" stroke="#8B8B8B" stroke-width="5.86666679" stroke-linecap="round" stroke-linejoin="round" transform="matrix(0.454545 0 0 0.454545 391.298 188.028)" />
	<path d="M 33.4036 -127.846 L -33.4043 127.845" fill="none" stroke="#8B8B8B" stroke-width="5.86666679" stroke-linecap="round" stroke-linejoin="round" transform="matrix(0.454545 0 0 0.454545 360.186 188.028)" />
	<rect x="-24.1553955" y="-17.0384521" width="48.310791" height="34.0769043" stroke="none" fill="#8B8B8B" transform="matrix(0.454545 0 -0 0.454545 375.369 127.092)" />
	<path d="M -24.1554 -17.0385 L 24.1554 -17.0385, 24.1554 17.0385, -24.1554 17.0385 Z" fill="none" stroke="#000000" stroke-width="2.20000005" stroke-linecap="round" stroke-linejoin="round" transform="matrix(0.454545 0 -0 0.454545 375.369 127.092)" />
	<path d="M -186.827 0 L 186.827 0" fill="none" stroke="#000000" stroke-width="2.9333334" stroke-linecap="round" stroke-linejoin="round" stroke-dasharray="10.2813, 7.31867" transform="matrix(0.454545 0 0 0.454545 460.291 127.092)" />
	<path d="M 0.0275324 -61.7864 C 34.151 -61.7712, 61.8011 -34.0962, 61.7859 0.0275248, 61.7819 9.11949, 59.7722 18.0502, 55.9551 26.2021 L 50.2689 35.9243" fill="none" stroke="#0080FF" stroke-width="2.9333334" stroke-linecap="round" stroke-linejoin="round" marker-end="url(#CustomMarker-01)" transform="matrix(0.454545 0 -0 0.454545 376.107 127.092)" />
	<path d="M -126.153 -90.1544 L 126.153 90.1539" fill="none" stroke="#000000" stroke-width="2.9333334" stroke-linecap="round" stroke-linejoin="round" marker-end="url(#CustomMarker-02)" transform="matrix(0.454545 0 0 0.454545 433.449 168.072)" />
	<g transform="matrix(1 0 -0 1 404.855 84.9473)">
		<svg width="173.966797" height="54.0428391">
			<defs />
			<path d="M 10.2148 11.2224 C 10.7565 12.9366, 11.664 14.394, 12.9397 15.5946, 14.2154 16.7953, 15.9472 17.8458, 18.1374 18.7451 L 17.3061 20.2272 C 15.1933 19.227, 13.5131 18.1741, 12.2632 17.0673, 11.0133 15.9604, 10.0858 14.6695, 9.48083 13.1922, 8.30834 15.9452, 5.68076 18.289, 1.59695 20.2272 L 0.708192 18.8389 C 3.04029 17.7895, 4.8436 16.6334, 6.11928 15.3695, 7.39496 14.1067, 8.1606 12.7243, 8.41738 11.2224 L 1.17133 11.2224, 1.17133 9.81536, 8.5147 9.81536, 8.5147 5.83824, 2.04132 5.83824, 2.04132 4.37496, 16.6683 4.37496, 16.6683 5.83824, 10.1175 5.83824, 10.1175 9.81536, 17.5383 9.81536, 17.5383 11.2224 Z" stroke="none" fill="#0080FF" />
			<path d="M 30.3299 7.88308 C 30.4588 7.42112, 30.6464 6.64609, 30.8903 5.55684 L 26.8124 5.55684, 26.8124 4.18736, 37.2089 4.18736, 37.2089 5.55684, 32.5131 5.55684 C 32.4239 5.97073, 32.2363 6.74576, 31.9526 7.88308 L 36.3202 7.88308, 36.3202 15.9874, 34.851 15.9874, 34.851 9.19628, 28.7446 9.19628, 28.7446 15.9686, 27.2767 15.9686, 27.2767 7.88308 Z M 26.1558 5.857 L 24.03 5.857, 24.03 17.7508 C 24.03 18.289, 23.9562 18.6982, 23.8084 18.9796, 23.6607 19.261, 23.4191 19.458, 23.0838 19.5706, 22.7485 19.6831, 22.2654 19.7394, 21.6346 19.7394, 21.1715 19.7394, 20.7142 19.7019, 20.2628 19.6268 L 19.9345 18.2011 C 20.5137 18.3019, 21.0612 18.3512, 21.576 18.3512, 21.9113 18.3512, 22.1505 18.2644, 22.2912 18.0897, 22.4331 17.915, 22.5034 17.6336, 22.5034 17.2443 L 22.5034 5.857, 19.9919 5.857, 19.9919 4.41248, 26.1558 4.41248 Z M 36.3589 20.1146 C 35.2895 19.2892, 33.7184 18.1331, 31.6431 16.644, 31.2186 17.3076, 30.5819 17.9209, 29.7307 18.4825, 28.8807 19.0453, 27.7281 19.6151, 26.2718 20.1896 L 25.5765 18.7826 C 27.2251 18.1589, 28.4269 17.5773, 29.1796 17.0391, 29.9336 16.5021, 30.4237 15.9206, 30.6488 15.2945, 30.8739 14.6695, 30.9865 13.7995, 30.9865 12.6856 L 30.9865 10.1155, 32.5131 10.1155, 32.5131 13.0608 C 32.5131 13.9496, 32.4228 14.707, 32.2422 15.3308, 33.8661 16.4072, 35.5405 17.5644, 37.2664 18.8014 Z" stroke="none" fill="#0080FF" />
			<path d="M 44.1878 17.1693 L 46.2748 16.7753, 46.3909 18.2011, 38.9713 19.5518, 38.7204 18.1823 C 39.2738 18.0709, 39.6537 18.0018, 39.8601 17.976 L 39.8601 11.2599, 41.2507 11.2599, 41.2507 17.7133, 42.7585 17.4319, 42.7585 9.85288, 40.1884 9.85288, 40.1884 3.981, 45.8691 3.981, 45.8691 9.85288, 44.1878 9.85288, 44.1878 12.7232, 46.3335 12.7232, 46.3335 14.0551, 44.1878 14.0551 Z M 48.8063 14.9181 L 48.8063 18.0885, 56.4005 18.0885, 56.4005 19.4955, 47.2996 19.4955, 47.2996 4.20612, 56.2071 4.20612, 56.2071 5.6694, 48.8063 5.6694, 48.8063 8.44588, 55.2796 8.44588, 55.2796 14.9181 Z M 44.4399 5.27544 L 41.6188 5.27544, 41.6188 8.55844, 44.4399 8.55844 Z M 53.8304 13.4923 L 53.8304 9.87164, 48.8063 9.87164, 48.8063 13.4923 Z" stroke="none" fill="#0080FF" />
			<rect />
		</svg>
	</g>
	<g transform="matrix(1 0 -0 1 497.649 197.271)">
		<svg width="221.950699" height="59.9571304">
			<defs />
			<path d="M 2.91015 20.3397 L 2.91015 4.14984, 15.9343 4.14984, 15.9343 20.2834, 14.369 20.2834, 14.369 19.0078, 4.49537 19.0078, 4.49537 20.3397 Z M 14.369 8.59596 L 14.369 5.65064, 4.49537 5.65064, 4.49537 8.59596 Z M 14.369 13.0046 L 14.369 10.0405, 4.49537 10.0405, 4.49537 13.0046 Z M 4.49537 14.4491 L 4.49537 17.5445, 14.369 17.5445, 14.369 14.4491 Z" stroke="none" fill="#000000" />
			<path d="M 25.8075 13.7737 C 25.2799 13.0116, 24.6948 12.2366, 24.05 11.4475 L 24.05 20.2834, 22.5034 20.2834, 22.5034 11.5225 C 21.7178 13.4372, 20.9452 14.9439, 20.1854 16.0437 L 19.4127 14.5054 C 20.0318 13.6436, 20.611 12.6657, 21.1515 11.5706, 21.6932 10.4767, 22.1435 9.36043, 22.5034 8.22076 L 22.5034 8.08944, 20.0881 8.08944, 20.0881 6.71996, 22.5034 6.71996, 22.5034 3.3244, 24.05 3.3244, 24.05 6.71996, 26.2718 6.71996, 26.2718 8.08944, 24.05 8.08944, 24.05 9.68404 C 24.3982 10.0229, 24.8648 10.5083, 25.4511 11.1391, 26.0373 11.7711, 26.4841 12.2741, 26.7936 12.6481 Z M 27.4701 4.3562 L 36.5511 4.3562, 36.5511 5.74444, 27.4701 5.74444 Z M 37.4211 10.3406 L 32.6479 10.3406, 32.6479 18.2386 C 32.6479 18.9515, 32.4744 19.4369, 32.1261 19.6925, 31.7791 19.9493, 31.1928 20.0771, 30.3686 20.0771, 29.8538 20.0771, 29.3321 20.0396, 28.8033 19.9645 L 28.475 18.5388 C 29.1456 18.6513, 29.7178 18.7076, 30.1939 18.7076, 30.555 18.7076, 30.7942 18.6267, 30.9102 18.4637, 31.0263 18.3019, 31.0838 18.0088, 31.0838 17.582 L 31.0838 10.3406, 26.5814 10.3406, 26.5814 8.9524, 37.4211 8.9524 Z M 29.6721 12.4418 C 29.3508 13.4056, 28.9123 14.4878, 28.3589 15.6884, 27.8055 16.8891, 27.2708 17.915, 26.7549 18.7639 L 25.4405 18.0322 C 25.9822 17.1834, 26.5181 16.1856, 27.0457 15.0412, 27.5733 13.8968, 27.9989 12.8428, 28.3202 11.879 Z M 34.9284 11.9165 C 35.3153 12.6305, 35.8007 13.6318, 36.387 14.9193, 36.9732 16.2078, 37.4211 17.2584, 37.7307 18.0698 L 36.3202 18.6513 C 36.0247 17.84, 35.5956 16.7859, 35.0351 15.4914, 34.4746 14.197, 34.0139 13.1992, 33.6527 12.498 Z" stroke="none" fill="#000000" />
			<path d="M 45.9237 7.20772 L 45.7877 9.66528, 45.749 10.0968, 54.0585 10.0968 C 54.0457 11.1239, 53.9847 12.328, 53.8745 13.7092, 53.7654 15.0916, 53.6458 16.1258, 53.5169 16.8128, 53.3621 17.6266, 53.1663 18.2363, 52.9283 18.6419, 52.6902 19.0488, 52.3397 19.3361, 51.8754 19.5049, 51.411 19.6737, 50.7345 19.7582, 49.8458 19.7582, 49.0731 19.7582, 48.1585 19.7148, 47.1021 19.6268 L 46.7926 18.1636 C 47.8619 18.289, 48.8222 18.3512, 49.6722 18.3512, 50.1999 18.3512, 50.6055 18.2961, 50.8893 18.1835, 51.173 18.0709, 51.3911 17.8716, 51.5459 17.5832, 51.7006 17.2959, 51.8367 16.8574, 51.9516 16.2688, 52.2095 14.9943, 52.3514 13.4431, 52.3772 11.6163 L 45.5943 11.6163 C 45.4149 12.8686, 45.1347 13.9789, 44.7548 14.9474, 44.3749 15.9171, 43.8496 16.8363, 43.1789 17.7051, 42.5094 18.5739, 41.6277 19.4768, 40.5326 20.4148 L 39.3343 19.1203 C 40.5197 18.146, 41.4413 17.2244, 42.0979 16.3544, 42.7545 15.4856, 43.2411 14.5194, 43.5565 13.456, 43.8719 12.3937, 44.0876 11.0606, 44.2037 9.45892, 44.2424 8.93481, 44.274 8.18441, 44.2998 7.20772 L 39.2182 7.20772, 39.2182 5.72568, 47.4492 5.72568 C 46.9215 4.4758, 46.5745 3.69491, 46.4068 3.38068 L 47.9522 2.87416, 49.0344 5.23792, 49.2466 5.72568, 56.3965 5.72568, 56.3965 7.20772 Z" stroke="none" fill="#000000" />
			<path d="M 74.3699 5.72568 L 74.3699 17.8259 C 74.3699 18.5892, 74.2128 19.1297, 73.8974 19.4486, 73.582 19.7675, 73.0438 19.927, 72.284 19.927, 71.4985 19.927, 70.7058 19.8895, 69.9074 19.8144 L 69.6365 18.3136 C 70.4362 18.4145, 71.1889 18.4637, 71.8971 18.4637, 72.2582 18.4637, 72.5056 18.3711, 72.6416 18.1835, 72.7777 17.9959, 72.8445 17.6828, 72.8445 17.2443 L 72.8445 7.13268, 60.9026 7.13268, 60.9026 19.9458, 59.3185 19.9458, 59.3185 5.72568, 64.4001 5.72568 C 64.8516 4.76423, 65.2385 3.84499, 65.5597 2.96796 L 67.4146 3.24936 C 67.1192 4.02556, 66.758 4.851, 66.3324 5.72568 Z M 63.2206 9.47768 L 70.4479 9.47768, 70.4479 16.6065, 63.2206 16.6065 Z M 64.7671 15.1432 L 68.96 15.1432, 68.96 10.941, 64.7671 10.941 Z" stroke="none" fill="#000000" />
			<rect />
		</svg>
	</g>
	<path d="M 0 -247.896 L 0 247.895" fill="none" stroke="#000000" stroke-width="2.9333334" stroke-linecap="round" stroke-linejoin="round" stroke-dasharray="10.2813, 7.31867" transform="matrix(0.454545 0 0 0.454545 376.107 133.46)" />
	<path d="M 94.7743 2.63777e-007 C 94.7743 15.9848, 90.7326 31.646, 83.1067 45.5574 L 77.0992 55.1173" fill="none" stroke="#E60000" stroke-width="2.9333334" stroke-linecap="round" stroke-linejoin="round" marker-end="url(#CustomMarker-03)" transform="matrix(0.454545 0 -0 0.454545 376.143 127.092)" />
	<g transform="matrix(1 0 -0 1 427.307 133.425)">
		<svg width="287.944672" height="90.0428391">
			<defs />
			<path d="M 18.0401 5.27544 L 18.0401 6.55112, 0.824269 6.55112, 0.824269 5.27544, 8.78437 5.27544 C 8.6296 4.95183, 8.39862 4.4887, 8.08908 3.8872 L 9.67313 3.39944 C 10.0343 4.06308, 10.3438 4.68919, 10.6006 5.27544 Z M 3.60661 11.2786 L 3.60661 7.733, 15.2577 7.733, 15.2577 11.2786 Z M 5.13321 10.2093 L 13.7311 10.2093, 13.7311 8.80232, 5.13321 8.80232 Z M 2.00263 20.6774 L 2.00263 12.423, 16.8805 12.423, 16.8805 18.5012 C 16.8805 19.0769, 16.8043 19.5178, 16.6495 19.8238, 16.4947 20.131, 16.2438 20.3468, 15.8956 20.471, 15.5485 20.5965, 15.0526 20.6586, 14.4077 20.6586, 13.8285 20.6586, 13.2481 20.6211, 12.6689 20.5461 L 12.398 19.2516 C 13.0804 19.3525, 13.7253 19.4017, 14.3303 19.4017, 14.7559 19.4017, 15.0455 19.3056, 15.2003 19.1109, 15.3551 18.9175, 15.4313 18.5962, 15.4313 18.1448 L 15.4313 13.6424, 3.43191 13.6424, 3.43191 20.6774 Z M 5.63504 14.7492 L 13.2293 14.7492, 13.2293 18.4637, 5.63504 18.4637 Z M 7.10301 17.3194 L 11.7602 17.3194, 11.7602 15.8748, 7.10301 15.8748 Z" stroke="none" fill="#E60000" />
			<path d="M 23.0252 10.003 L 23.0252 11.4475 C 23.0252 12.9366, 22.9548 14.204, 22.813 15.2476, 22.6723 16.2923, 22.4495 17.2396, 22.147 18.0897, 21.8445 18.9398, 21.4224 19.8332, 20.8807 20.7712 L 19.4901 20.0208 C 20.0435 19.0582, 20.4598 18.1741, 20.7365 17.3674, 21.0132 16.5608, 21.2102 15.6732, 21.3251 14.7035, 21.4411 13.735, 21.4986 12.5051, 21.4986 11.016 L 21.4986 5.35048, 28.7646 5.35048 C 28.4691 4.70092, 28.2369 4.23192, 28.0693 3.94348 L 29.6346 3.58704 C 29.828 3.93879, 30.1118 4.52622, 30.4846 5.35048 L 37.0928 5.35048, 37.0928 6.68244, 33.8661 6.68244, 33.8661 8.70852, 36.9955 8.70852, 36.9955 10.003, 33.8661 10.003, 33.8661 12.7794, 26.0596 12.7794, 26.0596 10.003 Z M 26.0596 8.70852 L 26.0596 6.68244, 23.0252 6.68244, 23.0252 8.70852 Z M 27.5475 8.70852 L 32.3583 8.70852, 32.3583 6.68244, 27.5475 6.68244 Z M 27.5475 11.5038 L 32.3583 11.5038, 32.3583 10.003, 27.5475 10.003 Z M 36.822 20.7524 C 35.2766 20.5156, 33.9435 20.2553, 32.8226 19.9739, 31.7017 19.6925, 30.6969 19.3454, 29.8081 18.9327, 28.0564 19.6585, 25.7641 20.3092, 22.929 20.8838 L 22.3111 19.533 C 24.6561 19.1578, 26.6388 18.6842, 28.2616 18.1073, 27.1289 17.3956, 26.0596 16.4388, 25.0548 15.237 L 23.9139 15.237, 23.9139 13.9988, 35.1606 13.9988, 35.1606 15.2558 C 34.1428 16.4201, 32.8812 17.4014, 31.3734 18.2011, 32.8038 18.69, 34.7748 19.0769, 37.2863 19.3642 Z M 26.7549 15.237 C 27.6061 16.1762, 28.5981 16.9395, 29.7307 17.5257, 31.058 16.9266, 32.1977 16.1633, 33.1509 15.237 Z" stroke="none" fill="#E60000" />
			<path d="M 54.9086 8.50216 L 54.9086 18.4262 C 54.9086 19.2141, 54.7703 19.7652, 54.4935 20.0771, 54.2168 20.3901, 53.6974 20.5531, 52.9376 20.5648, 52.3326 20.5777, 51.6045 20.5531, 50.7544 20.4898 L 50.4637 19.0078 C 51.1472 19.0957, 51.7335 19.1391, 52.2224 19.1391, 52.6996 19.1391, 53.0127 19.0711, 53.1604 18.9327, 53.3081 18.7967, 53.382 18.4966, 53.382 18.0322 L 53.382 16.7941, 48.7835 16.7941, 48.7835 20.471, 47.2369 20.471, 47.2369 16.7941, 42.4836 16.7941 C 42.3547 17.5457, 42.1495 18.2398, 41.8657 18.8764, 41.582 19.5143, 41.1763 20.2084, 40.6487 20.9588 L 39.2569 20.1146 C 39.7986 19.39, 40.2008 18.7369, 40.4646 18.1554, 40.7296 17.5738, 40.9066 16.943, 40.9969 16.2606, 41.0872 15.5794, 41.1317 14.6625, 41.1317 13.5111 L 41.1317 9.87164 C 40.6674 10.248, 40.3204 10.5236, 40.0882 10.6971 L 39.1021 9.45892 C 40.1844 8.62176, 41.215 7.66852, 42.194 6.5992, 43.1731 5.52988, 43.9915 4.45704, 44.6481 3.38068 L 46.1747 3.94348 C 46.0199 4.22019, 45.7631 4.63291, 45.402 5.18164 L 52.7242 5.18164, 52.7242 6.4198 C 52.5448 6.59568, 51.9011 7.2898, 50.792 8.50216 Z M 44.4159 6.53236 C 43.7206 7.37187, 43.1285 8.02847, 42.6384 8.50216 L 48.7448 8.50216 C 49.8399 7.34022, 50.4449 6.68362, 50.561 6.53236 Z M 42.6572 11.954 L 47.2369 11.954, 47.2369 9.92792, 42.6572 9.92792 Z M 48.7835 11.954 L 53.382 11.954, 53.382 9.92792, 48.7835 9.92792 Z M 47.2369 15.3683 L 47.2369 13.361, 42.6572 13.361, 42.6572 13.9238 C 42.6572 14.2873, 42.6443 14.7692, 42.6185 15.3683 Z M 48.7835 13.361 L 48.7835 15.3683, 53.382 15.3683, 53.382 13.361 Z" stroke="none" fill="#E60000" />
			<polyline points="-6.566 0 6.566 0" fill="none" stroke="#E60000" stroke-width="0.750400007" stroke-linecap="round" stroke-linejoin="round" transform="matrix(1 0 0 1 74.1654 12.3428)" />
			<path d="M 1.58945 9.52876 C -4.52631 5.24082, -4.52631 -5.24082, 1.58945 -9.52876 L 2.54996 -9.52876 C -2.96548 -5.24082, -2.96548 5.24082, 2.54996 9.52876" stroke="none" fill="#E60000" transform="matrix(1 0 -0 1 64.1288 12.3428)" />
			<path d="M 1.58945 9.52876 C -4.52631 5.24082, -4.52631 -5.24082, 1.58945 -9.52876 L 2.54996 -9.52876 C -2.96548 -5.24082, -2.96548 5.24082, 2.54996 9.52876" stroke="none" fill="#E60000" transform="matrix(-1 1.50996e-007 -1.50996e-007 -1 84.202 12.3428)" />
			<rect />
		</svg>
	</g>
	<path d="M 16.7017 -127.846 L -16.7019 127.845" fill="none" stroke="#8B8B8B" stroke-width="5.86666679" stroke-linecap="round" stroke-linejoin="round" transform="matrix(0.454545 0 0 0.454545 96.5665 188.028)" />
	<path d="M -35.0436 -127.846 L 35.0443 127.845" fill="none" stroke="#8B8B8B" stroke-width="5.86666679" stroke-linecap="round" stroke-linejoin="round" transform="matrix(0.454545 0 0 0.454545 120.087 188.028)" />
	<path d="M 33.4036 -127.846 L -33.4044 127.845" fill="none" stroke="#8B8B8B" stroke-width="5.86666679" stroke-linecap="round" stroke-linejoin="round" transform="matrix(0.454545 0 0 0.454545 88.9747 188.028)" />
	<rect x="-24.1552734" y="-17.0383911" width="48.3105469" height="34.0767822" stroke="none" fill="#8B8B8B" transform="matrix(0.454545 0 -0 0.454545 104.158 127.092)" />
	<path d="M -24.1553 -17.0384 L 24.1553 -17.0384, 24.1553 17.0384, -24.1553 17.0384 Z" fill="none" stroke="#000000" stroke-width="2.20000005" stroke-linecap="round" stroke-linejoin="round" transform="matrix(0.454545 0 -0 0.454545 104.158 127.092)" />
	<path d="M -186.827 0 L 186.827 0" fill="none" stroke="#000000" stroke-width="2.9333334" stroke-linecap="round" stroke-linejoin="round" stroke-dasharray="10.2813, 7.31867" transform="matrix(0.454545 0 0 0.454545 189.08 127.092)" />
	<path d="M 0.0297649 -66.8033 C 15.3046 -66.7965, 29.9934 -61.5611, 41.7458 -52.1537 L 49.9508 -44.3574" fill="none" stroke="#0080FF" stroke-width="2.9333334" stroke-linecap="round" stroke-linejoin="round" marker-end="url(#CustomMarker-04)" transform="matrix(0.454545 0 -0 0.454545 104.896 127.093)" />
	<path d="M -115.155 102.26 L 115.155 -102.26" fill="none" stroke="#000000" stroke-width="2.9333334" stroke-linecap="round" stroke-linejoin="round" marker-end="url(#CustomMarker-05)" transform="matrix(0.454545 0 0 0.454545 157.239 80.6106)" />
	<g transform="matrix(1 0 -0 1 75.5644 62.7046)">
		<svg width="173.966797" height="54.0428391">
			<defs />
			<path d="M 10.2148 11.2224 C 10.7565 12.9366, 11.664 14.394, 12.9397 15.5946, 14.2154 16.7953, 15.9472 17.8458, 18.1374 18.7451 L 17.3061 20.2272 C 15.1933 19.227, 13.5131 18.1741, 12.2632 17.0673, 11.0133 15.9604, 10.0858 14.6695, 9.48083 13.1922, 8.30834 15.9452, 5.68076 18.289, 1.59695 20.2272 L 0.708192 18.8389 C 3.04029 17.7895, 4.8436 16.6334, 6.11928 15.3695, 7.39496 14.1067, 8.1606 12.7243, 8.41738 11.2224 L 1.17133 11.2224, 1.17133 9.81536, 8.5147 9.81536, 8.5147 5.83824, 2.04132 5.83824, 2.04132 4.37496, 16.6683 4.37496, 16.6683 5.83824, 10.1175 5.83824, 10.1175 9.81536, 17.5383 9.81536, 17.5383 11.2224 Z" stroke="none" fill="#0080FF" />
			<path d="M 30.3299 7.88308 C 30.4588 7.42112, 30.6464 6.64609, 30.8903 5.55684 L 26.8124 5.55684, 26.8124 4.18736, 37.2089 4.18736, 37.2089 5.55684, 32.5131 5.55684 C 32.4239 5.97073, 32.2363 6.74576, 31.9526 7.88308 L 36.3202 7.88308, 36.3202 15.9874, 34.851 15.9874, 34.851 9.19628, 28.7446 9.19628, 28.7446 15.9686, 27.2767 15.9686, 27.2767 7.88308 Z M 26.1558 5.857 L 24.03 5.857, 24.03 17.7508 C 24.03 18.289, 23.9562 18.6982, 23.8084 18.9796, 23.6607 19.261, 23.4191 19.458, 23.0838 19.5706, 22.7485 19.6831, 22.2654 19.7394, 21.6346 19.7394, 21.1715 19.7394, 20.7142 19.7019, 20.2628 19.6268 L 19.9345 18.2011 C 20.5137 18.3019, 21.0612 18.3512, 21.576 18.3512, 21.9113 18.3512, 22.1505 18.2644, 22.2912 18.0897, 22.4331 17.915, 22.5034 17.6336, 22.5034 17.2443 L 22.5034 5.857, 19.9919 5.857, 19.9919 4.41248, 26.1558 4.41248 Z M 36.3589 20.1146 C 35.2895 19.2892, 33.7184 18.1331, 31.6431 16.644, 31.2186 17.3076, 30.5819 17.9209, 29.7307 18.4825, 28.8807 19.0453, 27.7281 19.6151, 26.2718 20.1896 L 25.5765 18.7826 C 27.2251 18.1589, 28.4269 17.5773, 29.1796 17.0391, 29.9336 16.5021, 30.4237 15.9206, 30.6488 15.2945, 30.8739 14.6695, 30.9865 13.7995, 30.9865 12.6856 L 30.9865 10.1155, 32.5131 10.1155, 32.5131 13.0608 C 32.5131 13.9496, 32.4228 14.707, 32.2422 15.3308, 33.8661 16.4072, 35.5405 17.5644, 37.2664 18.8014 Z" stroke="none" fill="#0080FF" />
			<path d="M 44.1878 17.1693 L 46.2748 16.7753, 46.3909 18.2011, 38.9713 19.5518, 38.7204 18.1823 C 39.2738 18.0709, 39.6537 18.0018, 39.8601 17.976 L 39.8601 11.2599, 41.2507 11.2599, 41.2507 17.7133, 42.7585 17.4319, 42.7585 9.85288, 40.1884 9.85288, 40.1884 3.981, 45.8691 3.981, 45.8691 9.85288, 44.1878 9.85288, 44.1878 12.7232, 46.3335 12.7232, 46.3335 14.0551, 44.1878 14.0551 Z M 48.8063 14.9181 L 48.8063 18.0885, 56.4005 18.0885, 56.4005 19.4955, 47.2996 19.4955, 47.2996 4.20612, 56.2071 4.20612, 56.2071 5.6694, 48.8063 5.6694, 48.8063 8.44588, 55.2796 8.44588, 55.2796 14.9181 Z M 44.4399 5.27544 L 41.6188 5.27544, 41.6188 8.55844, 44.4399 8.55844 Z M 53.8304 13.4923 L 53.8304 9.87164, 48.8063 9.87164, 48.8063 13.4923 Z" stroke="none" fill="#0080FF" />
			<rect />
		</svg>
	</g>
	<g transform="matrix(1 0 -0 1 213.431 9)">
		<svg width="221.950699" height="59.9571304">
			<defs />
			<path d="M 2.91015 20.3397 L 2.91015 4.14984, 15.9343 4.14984, 15.9343 20.2834, 14.369 20.2834, 14.369 19.0078, 4.49537 19.0078, 4.49537 20.3397 Z M 14.369 8.59596 L 14.369 5.65064, 4.49537 5.65064, 4.49537 8.59596 Z M 14.369 13.0046 L 14.369 10.0405, 4.49537 10.0405, 4.49537 13.0046 Z M 4.49537 14.4491 L 4.49537 17.5445, 14.369 17.5445, 14.369 14.4491 Z" stroke="none" fill="#000000" />
			<path d="M 25.8075 13.7737 C 25.2799 13.0116, 24.6948 12.2366, 24.05 11.4475 L 24.05 20.2834, 22.5034 20.2834, 22.5034 11.5225 C 21.7178 13.4372, 20.9452 14.9439, 20.1854 16.0437 L 19.4127 14.5054 C 20.0318 13.6436, 20.611 12.6657, 21.1515 11.5706, 21.6932 10.4767, 22.1435 9.36043, 22.5034 8.22076 L 22.5034 8.08944, 20.0881 8.08944, 20.0881 6.71996, 22.5034 6.71996, 22.5034 3.3244, 24.05 3.3244, 24.05 6.71996, 26.2718 6.71996, 26.2718 8.08944, 24.05 8.08944, 24.05 9.68404 C 24.3982 10.0229, 24.8648 10.5083, 25.4511 11.1391, 26.0373 11.7711, 26.4841 12.2741, 26.7936 12.6481 Z M 27.4701 4.3562 L 36.5511 4.3562, 36.5511 5.74444, 27.4701 5.74444 Z M 37.4211 10.3406 L 32.6479 10.3406, 32.6479 18.2386 C 32.6479 18.9515, 32.4744 19.4369, 32.1261 19.6925, 31.7791 19.9493, 31.1928 20.0771, 30.3686 20.0771, 29.8538 20.0771, 29.3321 20.0396, 28.8033 19.9645 L 28.475 18.5388 C 29.1456 18.6513, 29.7178 18.7076, 30.1939 18.7076, 30.555 18.7076, 30.7942 18.6267, 30.9102 18.4637, 31.0263 18.3019, 31.0838 18.0088, 31.0838 17.582 L 31.0838 10.3406, 26.5814 10.3406, 26.5814 8.9524, 37.4211 8.9524 Z M 29.6721 12.4418 C 29.3508 13.4056, 28.9123 14.4878, 28.3589 15.6884, 27.8055 16.8891, 27.2708 17.915, 26.7549 18.7639 L 25.4405 18.0322 C 25.9822 17.1834, 26.5181 16.1856, 27.0457 15.0412, 27.5733 13.8968, 27.9989 12.8428, 28.3202 11.879 Z M 34.9284 11.9165 C 35.3153 12.6305, 35.8007 13.6318, 36.387 14.9193, 36.9732 16.2078, 37.4211 17.2584, 37.7307 18.0698 L 36.3202 18.6513 C 36.0247 17.84, 35.5956 16.7859, 35.0351 15.4914, 34.4746 14.197, 34.0139 13.1992, 33.6527 12.498 Z" stroke="none" fill="#000000" />
			<path d="M 45.9237 7.20772 L 45.7877 9.66528, 45.749 10.0968, 54.0585 10.0968 C 54.0457 11.1239, 53.9847 12.328, 53.8745 13.7092, 53.7654 15.0916, 53.6458 16.1258, 53.5169 16.8128, 53.3621 17.6266, 53.1663 18.2363, 52.9283 18.6419, 52.6902 19.0488, 52.3397 19.3361, 51.8754 19.5049, 51.411 19.6737, 50.7345 19.7582, 49.8458 19.7582, 49.0731 19.7582, 48.1585 19.7148, 47.1021 19.6268 L 46.7926 18.1636 C 47.8619 18.289, 48.8222 18.3512, 49.6722 18.3512, 50.1999 18.3512, 50.6055 18.2961, 50.8893 18.1835, 51.173 18.0709, 51.3911 17.8716, 51.5459 17.5832, 51.7006 17.2959, 51.8367 16.8574, 51.9516 16.2688, 52.2095 14.9943, 52.3514 13.4431, 52.3772 11.6163 L 45.5943 11.6163 C 45.4149 12.8686, 45.1347 13.9789, 44.7548 14.9474, 44.3749 15.9171, 43.8496 16.8363, 43.1789 17.7051, 42.5094 18.5739, 41.6277 19.4768, 40.5326 20.4148 L 39.3343 19.1203 C 40.5197 18.146, 41.4413 17.2244, 42.0979 16.3544, 42.7545 15.4856, 43.2411 14.5194, 43.5565 13.456, 43.8719 12.3937, 44.0876 11.0606, 44.2037 9.45892, 44.2424 8.93481, 44.274 8.18441, 44.2998 7.20772 L 39.2182 7.20772, 39.2182 5.72568, 47.4492 5.72568 C 46.9215 4.4758, 46.5745 3.69491, 46.4068 3.38068 L 47.9522 2.87416, 49.0344 5.23792, 49.2466 5.72568, 56.3965 5.72568, 56.3965 7.20772 Z" stroke="none" fill="#000000" />
			<path d="M 74.3699 5.72568 L 74.3699 17.8259 C 74.3699 18.5892, 74.2128 19.1297, 73.8974 19.4486, 73.582 19.7675, 73.0438 19.927, 72.284 19.927, 71.4985 19.927, 70.7058 19.8895, 69.9074 19.8144 L 69.6365 18.3136 C 70.4362 18.4145, 71.1889 18.4637, 71.8971 18.4637, 72.2582 18.4637, 72.5056 18.3711, 72.6416 18.1835, 72.7777 17.9959, 72.8445 17.6828, 72.8445 17.2443 L 72.8445 7.13268, 60.9026 7.13268, 60.9026 19.9458, 59.3185 19.9458, 59.3185 5.72568, 64.4001 5.72568 C 64.8516 4.76423, 65.2385 3.84499, 65.5597 2.96796 L 67.4146 3.24936 C 67.1192 4.02556, 66.758 4.851, 66.3324 5.72568 Z M 63.2206 9.47768 L 70.4479 9.47768, 70.4479 16.6065, 63.2206 16.6065 Z M 64.7671 15.1432 L 68.96 15.1432, 68.96 10.941, 64.7671 10.941 Z" stroke="none" fill="#000000" />
			<rect />
		</svg>
	</g>
	<path d="M 0 -247.896 L 0 247.895" fill="none" stroke="#000000" stroke-width="2.9333334" stroke-linecap="round" stroke-linejoin="round" stroke-dasharray="10.2813, 7.31867" transform="matrix(0.454545 0 0 0.454545 104.896 133.46)" />
	<path d="M 49.9425 -44.3667 L 56.7004 -35.3234 C 63.2637 -24.7878, 66.803 -12.5615, 66.803 -3.93725e-005" fill="none" stroke="#E60000" stroke-width="2.9333334" stroke-linecap="round" stroke-linejoin="round" marker-start="url(#CustomMarker-06)" transform="matrix(0.454545 0 -0 0.454545 104.935 127.093)" />
	<g transform="matrix(1 0 -0 1 145.467 97.1374)">
		<svg width="287.944672" height="126.042824">
			<defs />
			<path d="M 18.0401 5.27544 L 18.0401 6.55112, 0.824269 6.55112, 0.824269 5.27544, 8.78437 5.27544 C 8.6296 4.95183, 8.39862 4.4887, 8.08908 3.8872 L 9.67313 3.39944 C 10.0343 4.06308, 10.3438 4.68919, 10.6006 5.27544 Z M 3.60661 11.2786 L 3.60661 7.733, 15.2577 7.733, 15.2577 11.2786 Z M 5.13321 10.2093 L 13.7311 10.2093, 13.7311 8.80232, 5.13321 8.80232 Z M 2.00263 20.6774 L 2.00263 12.423, 16.8805 12.423, 16.8805 18.5012 C 16.8805 19.0769, 16.8043 19.5178, 16.6495 19.8238, 16.4947 20.131, 16.2438 20.3468, 15.8956 20.471, 15.5485 20.5965, 15.0526 20.6586, 14.4077 20.6586, 13.8285 20.6586, 13.2481 20.6211, 12.6689 20.5461 L 12.398 19.2516 C 13.0804 19.3525, 13.7253 19.4017, 14.3303 19.4017, 14.7559 19.4017, 15.0455 19.3056, 15.2003 19.1109, 15.3551 18.9175, 15.4313 18.5962, 15.4313 18.1448 L 15.4313 13.6424, 3.43191 13.6424, 3.43191 20.6774 Z M 5.63504 14.7492 L 13.2293 14.7492, 13.2293 18.4637, 5.63504 18.4637 Z M 7.10301 17.3194 L 11.7602 17.3194, 11.7602 15.8748, 7.10301 15.8748 Z" stroke="none" fill="#E60000" />
			<path d="M 23.0252 10.003 L 23.0252 11.4475 C 23.0252 12.9366, 22.9548 14.204, 22.813 15.2476, 22.6723 16.2923, 22.4495 17.2396, 22.147 18.0897, 21.8445 18.9398, 21.4224 19.8332, 20.8807 20.7712 L 19.4901 20.0208 C 20.0435 19.0582, 20.4598 18.1741, 20.7365 17.3674, 21.0132 16.5608, 21.2102 15.6732, 21.3251 14.7035, 21.4411 13.735, 21.4986 12.5051, 21.4986 11.016 L 21.4986 5.35048, 28.7646 5.35048 C 28.4691 4.70092, 28.2369 4.23192, 28.0693 3.94348 L 29.6346 3.58704 C 29.828 3.93879, 30.1118 4.52622, 30.4846 5.35048 L 37.0928 5.35048, 37.0928 6.68244, 33.8661 6.68244, 33.8661 8.70852, 36.9955 8.70852, 36.9955 10.003, 33.8661 10.003, 33.8661 12.7794, 26.0596 12.7794, 26.0596 10.003 Z M 26.0596 8.70852 L 26.0596 6.68244, 23.0252 6.68244, 23.0252 8.70852 Z M 27.5475 8.70852 L 32.3583 8.70852, 32.3583 6.68244, 27.5475 6.68244 Z M 27.5475 11.5038 L 32.3583 11.5038, 32.3583 10.003, 27.5475 10.003 Z M 36.822 20.7524 C 35.2766 20.5156, 33.9435 20.2553, 32.8226 19.9739, 31.7017 19.6925, 30.6969 19.3454, 29.8081 18.9327, 28.0564 19.6585, 25.7641 20.3092, 22.929 20.8838 L 22.3111 19.533 C 24.6561 19.1578, 26.6388 18.6842, 28.2616 18.1073, 27.1289 17.3956, 26.0596 16.4388, 25.0548 15.237 L 23.9139 15.237, 23.9139 13.9988, 35.1606 13.9988, 35.1606 15.2558 C 34.1428 16.4201, 32.8812 17.4014, 31.3734 18.2011, 32.8038 18.69, 34.7748 19.0769, 37.2863 19.3642 Z M 26.7549 15.237 C 27.6061 16.1762, 28.5981 16.9395, 29.7307 17.5257, 31.058 16.9266, 32.1977 16.1633, 33.1509 15.237 Z" stroke="none" fill="#E60000" />
			<path d="M 54.9086 8.50216 L 54.9086 18.4262 C 54.9086 19.2141, 54.7703 19.7652, 54.4935 20.0771, 54.2168 20.3901, 53.6974 20.5531, 52.9376 20.5648, 52.3326 20.5777, 51.6045 20.5531, 50.7544 20.4898 L 50.4637 19.0078 C 51.1472 19.0957, 51.7335 19.1391, 52.2224 19.1391, 52.6996 19.1391, 53.0127 19.0711, 53.1604 18.9327, 53.3081 18.7967, 53.382 18.4966, 53.382 18.0322 L 53.382 16.7941, 48.7835 16.7941, 48.7835 20.471, 47.2369 20.471, 47.2369 16.7941, 42.4836 16.7941 C 42.3547 17.5457, 42.1495 18.2398, 41.8657 18.8764, 41.582 19.5143, 41.1763 20.2084, 40.6487 20.9588 L 39.2569 20.1146 C 39.7986 19.39, 40.2008 18.7369, 40.4646 18.1554, 40.7296 17.5738, 40.9066 16.943, 40.9969 16.2606, 41.0872 15.5794, 41.1317 14.6625, 41.1317 13.5111 L 41.1317 9.87164 C 40.6674 10.248, 40.3204 10.5236, 40.0882 10.6971 L 39.1021 9.45892 C 40.1844 8.62176, 41.215 7.66852, 42.194 6.5992, 43.1731 5.52988, 43.9915 4.45704, 44.6481 3.38068 L 46.1747 3.94348 C 46.0199 4.22019, 45.7631 4.63291, 45.402 5.18164 L 52.7242 5.18164, 52.7242 6.4198 C 52.5448 6.59568, 51.9011 7.2898, 50.792 8.50216 Z M 44.4159 6.53236 C 43.7206 7.37187, 43.1285 8.02847, 42.6384 8.50216 L 48.7448 8.50216 C 49.8399 7.34022, 50.4449 6.68362, 50.561 6.53236 Z M 42.6572 11.954 L 47.2369 11.954, 47.2369 9.92792, 42.6572 9.92792 Z M 48.7835 11.954 L 53.382 11.954, 53.382 9.92792, 48.7835 9.92792 Z M 47.2369 15.3683 L 47.2369 13.361, 42.6572 13.361, 42.6572 13.9238 C 42.6572 14.2873, 42.6443 14.7692, 42.6185 15.3683 Z M 48.7835 13.361 L 48.7835 15.3683, 53.382 15.3683, 53.382 13.361 Z" stroke="none" fill="#E60000" />
			<polyline points="-6.566 0 6.566 0" fill="none" stroke="#E60000" stroke-width="0.750400007" stroke-linecap="round" stroke-linejoin="round" transform="matrix(1 0 0 1 74.1654 12.3428)" />
			<polyline points="0 -6.566 0 6.566" fill="none" stroke="#E60000" stroke-width="0.750400007" stroke-linecap="round" stroke-linejoin="round" transform="matrix(1 0 0 1 74.1654 12.3428)" />
			<path d="M 1.58945 9.52876 C -4.52631 5.24082, -4.52631 -5.24082, 1.58945 -9.52876 L 2.54996 -9.52876 C -2.96548 -5.24082, -2.96548 5.24082, 2.54996 9.52876" stroke="none" fill="#E60000" transform="matrix(1 0 -0 1 64.1288 12.3428)" />
			<path d="M 1.58945 9.52876 C -4.52631 5.24082, -4.52631 -5.24082, 1.58945 -9.52876 L 2.54996 -9.52876 C -2.96548 -5.24082, -2.96548 5.24082, 2.54996 9.52876" stroke="none" fill="#E60000" transform="matrix(-1 1.50996e-007 -1.50996e-007 -1 84.202 12.3428)" />
			<rect />
		</svg>
	</g>
	<g transform="matrix(1 0 -0 1 191.438 133.988)">
		<svg width="227.996933" height="59.9571304">
			<defs />
			<path d="M 12.5329 11.091 C 13.9117 13.4314, 15.851 15.4692, 18.3496 17.2068 L 17.2287 18.4825 C 15.4641 17.1083, 14.0313 15.7048, 12.9292 14.272, 11.8282 12.8404, 10.93 11.1989, 10.2336 9.34636 L 10.2336 17.7321 C 10.2336 18.6079, 10.0636 19.2176, 9.72237 19.5612, 9.38117 19.9059, 8.77851 20.0771, 7.91555 20.0771, 7.06549 20.0771, 6.21542 20.0396, 5.36419 19.9645 L 5.03589 18.3699 C 6.09231 18.4954, 6.89078 18.5575, 7.43248 18.5575, 7.90851 18.5575, 8.22743 18.4485, 8.38807 18.2304, 8.54987 18.0123, 8.6296 17.6207, 8.6296 17.0567 L 8.6296 3.15556, 10.2336 3.15556, 10.2336 5.51932 C 10.6592 7.04592, 11.1681 8.42829, 11.7602 9.66528, 12.5082 9.07903, 13.2516 8.43767, 13.9926 7.74355, 14.7336 7.04943, 15.3867 6.38932, 15.953 5.7632 L 17.19 6.9826 C 15.5544 8.62176, 14.002 9.99124, 12.5329 11.091 Z M 7.16163 7.5454 L 7.16163 9.0462 C 6.8005 10.8108, 6.17908 12.4593, 5.29736 13.9906, 4.41564 15.5231, 3.19506 17.0638, 1.63564 18.6138 L 0.437344 17.5257 C 1.88069 16.1633, 3.01802 14.8137, 3.84815 13.4747, 4.67945 12.1369, 5.29384 10.6736, 5.69249 9.08372 L 0.997799 9.08372, 0.997799 7.5454 Z" stroke="none" fill="#000000" />
			<path d="M 29.3825 12.6856 L 37.2277 12.6856, 37.2277 14.1114, 29.3825 14.1114, 29.3825 20.1521, 27.7785 20.1521, 27.7785 14.1114, 19.9145 14.1114, 19.9145 12.6856, 27.7785 12.6856, 27.7785 5.4818, 20.7072 5.4818, 20.7072 4.05604, 36.455 4.05604, 36.455 5.4818, 29.3825 5.4818 Z M 31.1025 10.941 C 31.5668 10.4415, 32.1367 9.72977, 32.8132 8.80349, 33.4897 7.87839, 34.015 7.12096, 34.3879 6.53236 L 35.6436 7.37656 C 35.2825 7.94053, 34.7549 8.69093, 34.0596 9.62893, 33.3643 10.5669, 32.7909 11.2927, 32.3395 11.8039 Z M 22.7168 6.55112 C 23.1553 7.07757, 23.7158 7.79045, 24.3982 8.69093, 25.0806 9.59141, 25.6281 10.3418, 26.0397 10.941 L 24.7652 11.7852 C 24.3525 11.1485, 23.8119 10.3793, 23.1413 9.47885, 22.4718 8.57837, 21.9312 7.88425, 21.5185 7.39532 Z" stroke="none" fill="#000000" />
			<path d="M 45.9237 7.20772 L 45.7877 9.66528, 45.749 10.0968, 54.0585 10.0968 C 54.0457 11.1239, 53.9847 12.328, 53.8745 13.7092, 53.7654 15.0916, 53.6458 16.1258, 53.5169 16.8128, 53.3621 17.6266, 53.1663 18.2363, 52.9283 18.6419, 52.6902 19.0488, 52.3397 19.3361, 51.8754 19.5049, 51.411 19.6737, 50.7345 19.7582, 49.8458 19.7582, 49.0731 19.7582, 48.1585 19.7148, 47.1021 19.6268 L 46.7926 18.1636 C 47.8619 18.289, 48.8222 18.3512, 49.6722 18.3512, 50.1999 18.3512, 50.6055 18.2961, 50.8893 18.1835, 51.173 18.0709, 51.3911 17.8716, 51.5459 17.5832, 51.7006 17.2959, 51.8367 16.8574, 51.9516 16.2688, 52.2095 14.9943, 52.3514 13.4431, 52.3772 11.6163 L 45.5943 11.6163 C 45.4149 12.8686, 45.1347 13.9789, 44.7548 14.9474, 44.3749 15.9171, 43.8496 16.8363, 43.1789 17.7051, 42.5094 18.5739, 41.6277 19.4768, 40.5326 20.4148 L 39.3343 19.1203 C 40.5197 18.146, 41.4413 17.2244, 42.0979 16.3544, 42.7545 15.4856, 43.2411 14.5194, 43.5565 13.456, 43.8719 12.3937, 44.0876 11.0606, 44.2037 9.45892, 44.2424 8.93481, 44.274 8.18441, 44.2998 7.20772 L 39.2182 7.20772, 39.2182 5.72568, 47.4492 5.72568 C 46.9215 4.4758, 46.5745 3.69491, 46.4068 3.38068 L 47.9522 2.87416, 49.0344 5.23792, 49.2466 5.72568, 56.3965 5.72568, 56.3965 7.20772 Z" stroke="none" fill="#000000" />
			<path d="M 74.3699 5.72568 L 74.3699 17.8259 C 74.3699 18.5892, 74.2128 19.1297, 73.8974 19.4486, 73.582 19.7675, 73.0438 19.927, 72.284 19.927, 71.4985 19.927, 70.7058 19.8895, 69.9074 19.8144 L 69.6365 18.3136 C 70.4362 18.4145, 71.1889 18.4637, 71.8971 18.4637, 72.2582 18.4637, 72.5056 18.3711, 72.6416 18.1835, 72.7777 17.9959, 72.8445 17.6828, 72.8445 17.2443 L 72.8445 7.13268, 60.9026 7.13268, 60.9026 19.9458, 59.3185 19.9458, 59.3185 5.72568, 64.4001 5.72568 C 64.8516 4.76423, 65.2385 3.84499, 65.5597 2.96796 L 67.4146 3.24936 C 67.1192 4.02556, 66.758 4.851, 66.3324 5.72568 Z M 63.2206 9.47768 L 70.4479 9.47768, 70.4479 16.6065, 63.2206 16.6065 Z M 64.7671 15.1432 L 68.96 15.1432, 68.96 10.941, 64.7671 10.941 Z" stroke="none" fill="#000000" />
			<rect />
		</svg>
	</g>
	<g transform="matrix(1 0 -0 1 21.0218 22.3488)">
		<svg width="227.996933" height="59.9571304">
			<defs />
			<path d="M 5.38412 3.3244 L 6.89078 3.3244, 6.89078 12.0853, 5.38412 12.0853 Z M 1.80917 3.94348 L 3.29707 3.94348, 3.29707 11.6351, 1.80917 11.6351 Z M 7.35509 10.3594 C 8.92624 9.93496, 10.2336 9.47299, 11.2771 8.97116, 10.2852 8.05896, 9.40345 6.92163, 8.6296 5.55684 L 7.973 5.55684, 7.973 4.11232, 16.9579 4.11232, 16.9579 5.55684 C 16.1723 6.98377, 15.11 8.16565, 13.7698 9.10248, 14.9036 9.75439, 16.347 10.2914, 18.0987 10.7158 L 17.6156 12.1041 C 15.5028 11.5554, 13.7827 10.8237, 12.4555 9.90916, 11.1939 10.5728, 9.68602 11.1544, 7.93431 11.6538 Z M 10.1949 5.55684 C 10.8269 6.64609, 11.6066 7.55244, 12.5329 8.27704, 13.6678 7.56533, 14.5882 6.65899, 15.2964 5.55684 Z M 14.2529 15.4996 C 13.7898 16.2887, 13.2235 17.1834, 12.5528 18.1823 L 17.9826 18.1823, 17.9826 19.6081, 0.861789 19.6081, 0.861789 18.1823, 6.25294 18.1823 C 5.55765 16.9958, 4.96554 16.0765, 4.47543 15.4246 L 5.76987 14.7492, 2.02139 14.7492, 2.02139 13.3235, 8.72692 13.3235 C 8.49476 12.8744, 8.28254 12.4805, 8.08908 12.1416 L 9.67313 11.6538 C 9.91818 12.0806, 10.1949 12.6364, 10.5044 13.3235 L 16.7456 13.3235, 16.7456 14.7492, 12.9772 14.7492 Z M 5.86719 14.7492 C 6.09935 15.0506, 6.41475 15.4985, 6.8134 16.0918, 7.21322 16.6862, 7.52276 17.1705, 7.74085 17.5445 L 6.60118 18.1823, 10.6979 18.1823 C 11.5609 16.9453, 12.2761 15.801, 12.8424 14.7492 Z" stroke="none" fill="#000000" />
			<path d="M 34.6388 7.52664 L 34.6388 18.3699, 37.2863 18.3699, 37.2863 19.7206, 19.8958 19.7206, 19.8958 18.3699, 22.562 18.3699, 22.562 7.52664, 27.8172 7.52664, 27.8172 6.06336, 20.5711 6.06336, 20.5711 4.71264, 27.8172 4.71264, 27.8172 3.11804, 29.3637 3.11804, 29.3637 4.71264, 36.6098 4.71264, 36.6098 6.06336, 29.3637 6.06336, 29.3637 7.52664 Z M 33.1122 10.2656 L 33.1122 8.82108, 24.1074 8.82108, 24.1074 10.2656 Z M 24.1074 12.9295 L 33.1122 12.9295, 33.1122 11.4662, 24.1074 11.4662 Z M 33.1122 14.1489 L 24.1074 14.1489, 24.1074 15.6497, 33.1122 15.6497 Z M 33.1122 16.8879 L 24.1074 16.8879, 24.1074 18.3699, 33.1122 18.3699 Z" stroke="none" fill="#000000" />
			<path d="M 45.9237 7.20772 L 45.7877 9.66528, 45.749 10.0968, 54.0585 10.0968 C 54.0457 11.1239, 53.9847 12.328, 53.8745 13.7092, 53.7654 15.0916, 53.6458 16.1258, 53.5169 16.8128, 53.3621 17.6266, 53.1663 18.2363, 52.9283 18.6419, 52.6902 19.0488, 52.3397 19.3361, 51.8754 19.5049, 51.411 19.6737, 50.7345 19.7582, 49.8458 19.7582, 49.0731 19.7582, 48.1585 19.7148, 47.1021 19.6268 L 46.7926 18.1636 C 47.8619 18.289, 48.8222 18.3512, 49.6722 18.3512, 50.1999 18.3512, 50.6055 18.2961, 50.8893 18.1835, 51.173 18.0709, 51.3911 17.8716, 51.5459 17.5832, 51.7006 17.2959, 51.8367 16.8574, 51.9516 16.2688, 52.2095 14.9943, 52.3514 13.4431, 52.3772 11.6163 L 45.5943 11.6163 C 45.4149 12.8686, 45.1347 13.9789, 44.7548 14.9474, 44.3749 15.9171, 43.8496 16.8363, 43.1789 17.7051, 42.5094 18.5739, 41.6277 19.4768, 40.5326 20.4148 L 39.3343 19.1203 C 40.5197 18.146, 41.4413 17.2244, 42.0979 16.3544, 42.7545 15.4856, 43.2411 14.5194, 43.5565 13.456, 43.8719 12.3937, 44.0876 11.0606, 44.2037 9.45892, 44.2424 8.93481, 44.274 8.18441, 44.2998 7.20772 L 39.2182 7.20772, 39.2182 5.72568, 47.4492 5.72568 C 46.9215 4.4758, 46.5745 3.69491, 46.4068 3.38068 L 47.9522 2.87416, 49.0344 5.23792, 49.2466 5.72568, 56.3965 5.72568, 56.3965 7.20772 Z" stroke="none" fill="#000000" />
			<path d="M 74.3699 5.72568 L 74.3699 17.8259 C 74.3699 18.5892, 74.2128 19.1297, 73.8974 19.4486, 73.582 19.7675, 73.0438 19.927, 72.284 19.927, 71.4985 19.927, 70.7058 19.8895, 69.9074 19.8144 L 69.6365 18.3136 C 70.4362 18.4145, 71.1889 18.4637, 71.8971 18.4637, 72.2582 18.4637, 72.5056 18.3711, 72.6416 18.1835, 72.7777 17.9959, 72.8445 17.6828, 72.8445 17.2443 L 72.8445 7.13268, 60.9026 7.13268, 60.9026 19.9458, 59.3185 19.9458, 59.3185 5.72568, 64.4001 5.72568 C 64.8516 4.76423, 65.2385 3.84499, 65.5597 2.96796 L 67.4146 3.24936 C 67.1192 4.02556, 66.758 4.851, 66.3324 5.72568 Z M 63.2206 9.47768 L 70.4479 9.47768, 70.4479 16.6065, 63.2206 16.6065 Z M 64.7671 15.1432 L 68.96 15.1432, 68.96 10.941, 64.7671 10.941 Z" stroke="none" fill="#000000" />
			<rect />
		</svg>
	</g>
</svg>
