<?xml version="1.0" standalone="no"?><!DOCTYPE svg PUBLIC "-//W3C//DTD SVG 1.1//EN" "http://www.w3.org/Graphics/SVG/1.1/DTD/svg11.dtd"><svg class="icon" width="200px" height="200.00px" viewBox="0 0 1024 1024" version="1.1" xmlns="http://www.w3.org/2000/svg"><path d="M364.576 295.424m-182.912 0a182.912 182.912 0 1 0 365.824 0 182.912 182.912 0 1 0-365.824 0Z" fill="#FF0000" /><path d="M730.4 255.168m-73.184 0a73.184 73.184 0 1 0 146.368 0 73.184 73.184 0 1 0-146.368 0Z" fill="#FF0000" /><path d="M657.248 686.88l111.776-263.008c7.2-16.96-0.992-36.512-18.144-43.296-7.712-3.04-16.096-6.048-24.128-8.352-21.408-6.112-54.88-7.328-84.16 3.648-29.28 10.976-106.08 193.888-106.08 193.888l120.736 117.12zM436.416 630.688a20.4128 20.4128 0 0 0-14.464-5.984h-84.448c-15.584 0-30.624 5.664-42.336 15.936L115.84 797.92a20.4192 20.4192 0 0 0-5.376 23.232l2.72 6.496c6.016 14.432 20.128 23.84 35.776 23.84h19.168c13.568 0 26.816-4.192 37.92-12l138.144-97.312a20.496 20.496 0 0 1 12.864-3.712l131.424 6.912c0.352 0.032 0.704 0.032 1.088 0.032h42.08c7.232 0 10.848-8.736 5.728-13.856l-100.96-100.864zM475.584 627.0848l41.3856-41.3856 294.4928 294.4928-41.3856 41.3856zM764.5728 358.8768l124.384-124.384 41.3824 41.3888-124.384 124.3808z" fill="#FF0000" /></svg>