<?xml version="1.0" standalone="no"?><!DOCTYPE svg PUBLIC "-//W3C//DTD SVG 1.1//EN" "http://www.w3.org/Graphics/SVG/1.1/DTD/svg11.dtd"><svg class="icon" width="200px" height="200.00px" viewBox="0 0 1024 1024" version="1.1" xmlns="http://www.w3.org/2000/svg"><path d="M301.024 731.936c2.304 9.216 4.896 18.432 7.712 27.68l8.192 26.784 24.96-10.944c108.8-47.808 233.824-48.352 343.008-1.472l25.568 10.976 7.584-27.616c2.56-9.28 4.8-18.56 6.88-27.808-63.808-35.616-135.424-54.528-209.856-54.528-76.064 0-149.184 19.776-214.048 56.928zM166.144 773.888l34.88 36.192c30.112-31.232 63.744-57.408 100-78.176-4.416-17.504-7.872-34.944-10.432-52.256-45.376 24.16-87.36 55.744-124.448 94.24zM864 773.888c-38.56-40-82.368-72.544-129.76-96.992-2.24 17.472-5.344 35.04-9.312 52.64 37.856 21.12 72.928 48.128 104.192 80.544l34.88-36.192zM512 268.8c-66.592 0-122.848 29.568-162.688 85.472-42.464 59.584-64 145.504-64 255.328 0 6.624 0.192 13.28 0.48 19.936l285.76-352.064C552.832 271.744 532.928 268.8 512 268.8zM674.656 354.272c-16.224-22.752-35.2-41.056-56.416-54.88l-296.32 365.12c60.288-26.656 125.696-40.704 193.152-40.704 77.28 0 151.872 18.368 219.168 53.056 2.912-22.624 4.448-45.12 4.448-67.296-0.032-109.792-21.536-195.712-64.032-255.296z" fill="#FF0000" /><path d="M703.392 189.28l-37.76-32.992-94.112 121.184c16.576 5.088 32.16 12.48 46.72 21.92l85.152-110.112zM285.792 629.536L166.4 774.4l35.2 35.2 94.304-83.2c-10.592 4.672-5.344-28.8-5.344-46.72-2.464-16.864-4.064-33.568-4.768-50.144z" fill="#FF0000" /><path d="M703.744 726.656c-121.312-52.096-260.224-51.488-381.12 1.632l-20.704 9.088 6.784 22.208c27.04 88.448 70.976 157.472 97.568 193.984h63.648c-33.696-39.328-77.632-104.128-106.752-186.848 96.576-36.352 203.904-36.736 300.736-1.12-18.464 57.696-46.464 113.92-80.032 160.384-7.648 10.592-14.944 19.68-21.76 27.584h63.456c40.416-56.736 73.152-126.144 92.448-196.256l6.048-21.952-20.32-8.704z" fill="#FF0000" /><path d="M512 153.6m-96 0a96 96 0 1 0 192 0 96 96 0 1 0-192 0Z" fill="#FF0000" /></svg>