<?xml version="1.0" standalone="no"?><!DOCTYPE svg PUBLIC "-//W3C//DTD SVG 1.1//EN" "http://www.w3.org/Graphics/SVG/1.1/DTD/svg11.dtd"><svg class="icon" width="200px" height="200.00px" viewBox="0 0 1024 1024" version="1.1" xmlns="http://www.w3.org/2000/svg"><path d="M69.632 518.4c0 96.416 46.112 175.232 133.344 227.904 72.704 43.904 173.088 68.096 282.656 68.096 9.248 0 13.536-0.256 20.672-0.704l19.232-1.184 6.304-14.272c79.296-180.032 80.16-384.128 2.336-559.904l-6.368-14.368-15.712-0.832c-8.96-0.48-17.856-0.704-26.464-0.704-78.4 0-191.072 11.392-282.496 65.568-87.36 51.776-133.504 131.456-133.504 230.4z m51.2 0c0-81.024 36.48-143.712 108.416-186.368 63.52-37.664 154.592-58.432 256.384-58.432 2.624 0 5.28 0.032 7.968 0.064 63.712 154.56 62.816 331.2-2.464 489.472-1.6 0.032-3.36 0.032-5.504 0.032-168.288 0.032-364.8-64.096-364.8-244.768z" fill="#F4AE00" /><path d="M818.432 198.4s33.056 68.8 16 112-57.6 105.6-44.8 144c19.904 59.68 68.064 124.8 32 195.2s-67.2 124.8-22.4 179.2" fill="#F4AE00" /><path d="M779.456 845.088c-53.632-65.152-20.352-129.92 14.912-198.464l4.448-8.672c22.24-43.424 3.744-86.08-15.808-131.232-6.272-14.464-12.736-29.408-17.696-44.224-12.8-38.464 9.76-85.6 29.696-127.168 5.952-12.448 11.584-24.192 15.584-34.336 9.376-23.712-4.416-68.736-15.264-91.552l46.144-22.144c3.872 8.064 37.312 80.384 16.736 132.512-4.672 11.84-10.688 24.352-17.024 37.632-14.176 29.568-33.568 70.048-27.296 88.864 4.224 12.704 9.984 25.984 16.096 40.032 21.248 48.992 47.68 109.984 14.4 174.944l-4.48 8.736c-35.904 69.824-51.776 105.056-20.928 142.528l-39.52 32.544z" fill="#F4AE00" /><path d="M664 550.4h272c30.88 0 30.944-48 0-48h-272c-30.88 0-30.944 48 0 48zM664 707.2h272c30.88 0 30.944-48 0-48h-272c-30.88 0-30.944 48 0 48zM664 393.6h272c30.88 0 30.944-48 0-48h-272c-30.88 0-30.944 48 0 48z" fill="#F4AE00" /></svg>