<?xml version="1.0" standalone="no"?><!DOCTYPE svg PUBLIC "-//W3C//DTD SVG 1.1//EN" "http://www.w3.org/Graphics/SVG/1.1/DTD/svg11.dtd"><svg class="icon" width="200px" height="200.00px" viewBox="0 0 1024 1024" version="1.1" xmlns="http://www.w3.org/2000/svg"><path d="M954.272 457.472l-52.192-64.224-320 89.6L543.392 435.2H432v-51.2h54.4v-51.2h-160v51.2h54.4v51.2H274.368l1.376-46.784-185.216-64.608-25.632 153.984L224 534.208V713.6h429.216l175.2-246.592 55.104-15.424 31.008 38.176 39.744-32.288z m-732.416 21.376l-94.72-35.008 6.368-50.816 89.984 31.392-1.632 54.432zM626.784 662.4H275.2v-176h243.808l44.512 54.784 186.496-52.224-123.232 173.44zM934.4 534.4c-12.8 0-38.4 61.984-38.4 83.2 0 21.216 17.184 32 38.4 32s38.4-10.784 38.4-32-25.6-83.2-38.4-83.2z" fill="#ED0303" /></svg>