<svg width="328" height="328" xmlns="http://www.w3.org/2000/svg" xmlns:xlink="http://www.w3.org/1999/xlink" xml:space="preserve" overflow="hidden"><defs><clipPath id="clip0"><rect x="417" y="730" width="328" height="328"/></clipPath></defs><g clip-path="url(#clip0)" transform="translate(-417 -730)"><path d="M0 0C88.664 10.9181 169.391-52.1077 180.309-140.772 191.227-229.436 128.201-310.163 39.5375-321.081-49.1264-331.999-129.854-268.973-140.772-180.309-151.69-91.6452-88.664-10.9179 0 0" fill="#FFFFFF" transform="matrix(1.00048 0 0 -1 561.236 733.362)"/><path d="M0 0C-88.13 0-159.574-71.4435-159.574-159.573-159.574-247.703-88.13-319.147 0-319.147 88.13-319.147 159.574-247.703 159.574-159.573 159.445-71.4968 88.0766-0.128656 0 0M0-323.506C-90.516-323.506-163.894-250.128-163.894-159.612-163.894-69.0964-90.516 4.28123 0 4.28123 90.516 4.28123 163.894-69.0964 163.894-159.612 163.786-250.084 90.4715-323.399 0-323.506" fill="#FF0001" transform="matrix(1.00048 0 0 -1 581 734.281)"/><path d="M0 0C14.7724 81.4489 92.7751 135.501 174.224 120.728 255.673 105.956 309.725 27.9534 294.953-53.4957 280.18-134.945 202.177-188.997 120.728-174.224 39.2796-159.452-14.7724-81.4489 0 0" fill="#FF0001" transform="matrix(1.00048 0 0 -1 433.433 867.122)"/><path d="M0 0C-82.6917 0-149.727-67.0349-149.727-149.727-149.727-232.418-82.6915-299.453 0-299.453 82.6918-299.453 149.727-232.418 149.727-149.726L149.727-149.61C149.619-66.9625 82.6471 0.00966972 0 0.116692ZM0-299.687C-82.9065-299.566-150.018-232.26-149.898-149.353-149.811-89.1706-113.789-34.8574-58.3805-11.3647-21.0657 4.44512 21.0657 4.44512 58.3805-11.3647 134.731-43.6219 170.476-131.666 138.219-208.017 114.749-263.569 60.3063-299.676 0-299.687" fill="#FF0001" transform="matrix(1.00048 0 0 -1 581 744.284)"/><path d="M0 0C10.5388 64.9253 71.7146 109.014 136.64 98.4753 201.565 87.9364 245.654 26.7607 235.115-38.1646 224.576-103.09 163.401-147.179 98.4753-136.64 33.5502-126.101-10.5388-64.9253 0 0" fill="#0F218B" transform="matrix(1.00048 0 0 -1 463.4 874.823)"/><path d="M0 0 21.1728-2.8801 198.066-166.307 198.066-181.68 182.692-181.68 5.79921-17.2806Z" fill="#FF0001" fill-rule="evenodd" transform="matrix(1.00048 0 0 -1 481.9 803.053)"/><path d="M0 0 15.1788 0 15.1788 15.14-161.636 178.605-182.459 181.447-176.815 164.439ZM15.5681-0.311234 0-0.311234-177.01 164.166-182.887 181.719-182.614 181.719-161.403 178.8 15.5292 15.3345Z" fill="#FF0001" transform="matrix(1.00048 0 0 -1 664.641 984.578)"/><path d="M0 0 0 6.34399-5.99359 6.34399-5.99359 5.7212C-6.00096 2.89715-5.81904 0.0755549-5.44881-2.7244-5.17641-4.86518-4.78717-6.96679-4.32007-9.02955-4.20469-9.88016-3.99589-10.7155-3.69744-11.5204-3.52978-11.9267-3.38686-12.3425-3.26919-12.766-3.00974-13.5443-2.69851-13.9336-2.33516-13.9336-1.26526-11.8467-0.604439-9.57434-0.389083-7.23918-0.285339-4.02162-0.155535-1.59567 -3.63917e-16 0.0388428ZM-11.248 6.65539C-11.1548 6.74668-11.0759 6.85174-11.0145 6.96679-10.6526 7.40389-10.4592 7.95621-10.4695 8.52361-10.4933 9.18591-10.7724 9.81346-11.248 10.275L-17.0081 10.275-17.0081 15.7238C-17.1257 16.4634-17.7777 16.9984-18.526 16.9694-18.8355 16.9882-19.1406 16.8912-19.3824 16.6968-19.6179 16.4256-19.7549 16.0827-19.7715 15.7238L-19.7715 10.275-25.2981 10.275-25.5707 9.96358C-25.8994 9.51124-26.0766 8.96613-26.0765 8.40676-26.0527 7.74446-25.7739 7.11691-25.2981 6.65539L-22.7684 6.65539-22.7684 0.583953C-22.7684-2.41301-23.0797-5.52666-23.2354-8.796-23.3642-11.7205-23.6892-14.6331-24.2084-17.514-24.7627-20.6811-25.7447-23.7578-27.1275-26.6604L-27.1275-26.894C-27.148-27.101-27.148-27.3096-27.1275-27.5167-27.1423-27.9519-27.0047-28.3787-26.7383-28.7232-26.4065-29.0937-25.8863-29.2312-25.415-29.0736-24.7533-29.0736-24.1695-28.3728-23.6636-27.3999-23.1577-26.4269-23.002-25.6872-22.6516-24.8312-22.3135-23.7508-22.0663-22.6442-21.9121-21.5228-21.3673-18.6039-20.9-15.8405-20.5888-13.2328-20.1317-9.65727-19.8978-6.05652-19.8883-2.45201L-15.7628-2.45201C-15.5453-2.54363-15.3473-2.67556-15.1788-2.84109-14.7621-3.31032-14.5516-3.92755-14.5952-4.55362L-14.5952-9.10724C-14.5952-11.6371-14.5952-14.2837-14.8676-16.8914-14.926-19.3278-15.2921-21.747-15.9573-24.0915-16.1425-24.323-16.3662-24.5204-16.619-24.6755L-17.2416-24.6755C-17.8288-24.6089-18.4048-24.4649-18.9541-24.2472-19.276-24.1907-19.6053-24.1907-19.9272-24.2472-20.2348-24.2417-20.5357-24.3374-20.7835-24.5196-21.1128-24.7461-21.3588-25.0742-21.484-25.4538-21.5912-26.5275-21.0159-27.5538-20.044-28.0225L-17.592-28.762-16.4633-28.762C-15.5188-28.4872-14.6519-27.994-13.9336-27.322-13.1754-26.4806-12.7711-25.3794-12.8048-24.2472L-12.1042-14.2448-12.1042-0.93403C-12.2112-0.595098-12.3548-0.268949-12.5323 0.0388428-12.835 0.591164-13.3355 1.00844-13.9336 1.20658L-20.0052 1.20658-20.0052 6.65539ZM6.18846-26.6604C6.41332-27.0936 6.53329-27.5735 6.5387-28.0615 6.54525-28.6119 6.33563-29.1429 5.95491-29.5405 5.74939-29.7052 5.5278-29.8486 5.29327-29.9686 2.89125-28.3852 0.79472-26.3811-0.895187-24.0527-1.51798-23.1965-2.25731-22.0289-3.15249-20.55L-4.78717-22.7684C-5.38095-23.953-6.21632-25.0005-7.23918-25.8431L-10.0803-28.2172C-10.374-28.6352-10.854-28.8825-11.3647-28.8789-11.7772-28.882-12.1724-28.7125-12.4544-28.4118-12.7634-28.103-12.9322-27.681-12.9215-27.244-12.8961-26.8382-12.7901-26.4413-12.6101-26.0765L-7.39488-20.7835C-6.38284-19.6936-5.33211-18.526-4.32007-17.3195-5.33982-14.6932-6.13421-11.985-6.6944-9.22393-7.18346-7.08037-7.5473-4.91025-7.78396-2.7244L-8.01751-0.0388428-9.14625-3.93082C-9.4188-4.47577-9.73003-4.74816-10.1581-4.74816-10.4856-4.74423-10.7962-4.60295-11.0145-4.35908-11.3006-4.06948-11.5257-3.7253-11.6761-3.34703-10.8588-0.661474-10.1581 2.25747-9.49649 5.33211-9.0684 7.47289-8.67915 9.69135-8.36791 11.9098L-8.01767 14.4397C-8.01767 15.2569-7.43372 15.6849-6.6944 15.6849-6.46232 15.7221-6.22583 15.7221-5.99375 15.6849L-5.48765 15.6849C-5.44733 15.2709-5.44733 14.8538-5.48765 14.4397L-5.48765 13.0386-5.48765 11.1313C-5.44864 10.8342-5.44864 10.5334-5.48765 10.2361L5.5655 10.2361C5.88837 10.0931 6.14076 9.82673 6.26614 9.49665 6.45233 9.12215 6.54575 8.70832 6.5387 8.29023 6.56853 7.87001 6.47363 7.45027 6.26614 7.08364 6.06537 6.76684 5.70579 6.58705 5.33195 6.61655L2.80225 6.61655 2.80225 2.99696C2.84634-0.507415 2.59902-4.00933 2.06276-7.47256 1.57993-10.9032 0.499875-14.2227-1.12874-17.2806 0.194869-19.6587 1.8025-21.8673 3.65843-23.858 4.32007-24.5586 5.17641-25.4148 6.2273-26.3878ZM-37.7137 1.44013C-37.7293 2.06916-37.9325 2.67917-38.2977 3.19166L-38.6089 3.54174-51.8808 3.54174C-52.1277 3.29574-52.3258 3.00532-52.4645 2.68556-52.5256 2.40334-52.5256 2.11144-52.4645 1.82922-52.4632 1.3295-52.284 0.84651-51.9585 0.467097L-51.6861 0.194542-38.5701 0.194542C-38.2682 0.378758-38.0145 0.632138-37.8306 0.934193-37.8207 1.10268-37.8207 1.27165-37.8306 1.44013ZM-57.1741 13.1162C-57.1246 13.3077-57.1246 13.5086-57.1741 13.7-57.1484 14.1848-57.2852 14.6642-57.5632 15.0621-57.7395 15.4175-58.1006 15.6433-58.4972 15.6461-58.8198 15.6314-59.119 15.4747-59.3146 15.218-59.626 14.4397-59.8593 13.8169-60.0152 13.3109-60.4433 11.9097-60.8325 10.4308-61.1438 8.87402-62.7396 4.32023-64.3741-0.194542-65.97-4.74816-66.0421-5.20297-65.9598-5.66875-65.7364-6.07144-65.546-6.35432-65.221-6.5169-64.8802-6.49953-64.1465-6.49314-63.4876-6.04866-63.2065-5.37096L-62.078-2.91894-62.078-28.0615C-62.078-28.9177-61.572-29.3068-60.8714-29.3068-60.5288-29.3019-60.1988-29.178-59.9374-28.9567-59.631-28.7405-59.4106-28.4237-59.3146-28.0615L-59.3146 4.04784-57.2518 13.1162ZM-37.4025-16.5411C-36.7408-16.5411-36.4293-15.9183-36.4293-14.9843-36.4219-14.5536-36.5152-14.127-36.7018-13.7387-36.8277-13.3899-37.077-13.0992-37.4025-12.9215L-52.3478-12.9215C-52.5667-13.0613-52.7528-13.2474-52.8927-13.4663-53.2602-14.015-53.3867-14.6901-53.243-15.3345-53.291-15.5392-53.291-15.7525-53.243-15.9572-53.1402-16.302-52.8244-16.539-52.4645-16.5411L-45.5368-16.5411-45.5368-25.0257-45.5368-25.5317C-45.7102-25.8319-45.9672-26.0753-46.2762-26.2323L-47.5996-26.2323C-48.3825-26.035-49.14-25.7475-49.8569-25.376-50.2811-25.1641-50.7454-25.0447-51.2192-25.0257-51.6416-25.0298-52.0462-25.197-52.3478-25.4928-52.5651-25.7023-52.7372-25.9539-52.8537-26.2323-52.8885-27.056-52.4292-27.8213-51.6861-28.1784L-49.6624-28.9567-47.1325-29.5793-44.8362-29.5793C-44.2524-29.5793-43.7853-29.1513-43.4351-28.3729-43.0848-27.5944-42.968-26.9328-42.7734-26.2323L-42.7734-16.5411ZM-31.8757-11.0923C-31.8816-12.0368-31.9992-12.9776-32.2261-13.8944L-32.5763-15.0231C-32.5842-15.4448-32.751-15.8479-33.0432-16.1519-33.2953-16.3933-33.6285-16.5323-33.9773-16.5411-34.2505-16.5539-34.5173-16.4556-34.7169-16.2687-34.9446-16.0078-35.0811-15.6799-35.1062-15.3345-35.1327-14.6542-35.0673-13.9736-34.9116-13.3108-34.7854-12.6295-34.7074-11.9403-34.6781-11.248-34.6061-10.4946-34.9303-9.7579-35.5341-9.30194L-54.177-9.30194-54.8776-10.5084-54.8776-14.4005C-54.8844-14.7614-55.0228-15.1075-55.2669-15.3735-55.4965-15.5617-55.7876-15.6587-56.0842-15.6459-56.8386-15.6935-57.5014-15.1498-57.602-14.4005L-57.602-8.64031-56.7068-6.22714-55.7728-5.9159-35.1062-5.9159C-33.7863-6.09782-32.6769-6.99744-32.2261-8.25106-32.0727-8.57442-31.9553-8.91401-31.8757-9.2631L-31.8757-11.0531ZM-34.8726-1.12874C-34.9533-1.85069-35.3001-2.51675-35.8457-2.99679-36.1105-3.20871-36.3976-3.39145-36.7018-3.54158L-53.4765-3.54158C-54.1888-3.26083-54.7524-2.69703-55.0333-1.98475-55.1504-1.60222-55.2415-1.21216-55.3057-0.817173L-55.3057 4.63163-55.0722 5.52682C-54.7575 5.9908-54.3286 6.36612-53.8269 6.61655L-53.4765 6.61655-36.9354 6.61655C-36.2336 6.57508-35.6088 6.15863-35.3009 5.52682-35.117 5.19461-34.9733 4.84191-34.8726 4.4761L-34.8726-1.28427ZM-33.4715 9.18525-54.8776 9.18525C-55.3533 9.64678-55.6322 10.2743-55.6561 10.9366-55.6596 11.503-55.4672 12.0531-55.1112 12.4934-55.0497 12.6087-54.9709 12.7136-54.8776 12.8048L-46.5877 12.8048-46.5877 15.5292C-46.6354 15.9385-46.4565 16.3413-46.1205 16.5801-45.9674 16.6196-45.8066 16.6196-45.6535 16.5801L-44.5248 16.5801C-44.151 16.5957-43.8142 16.3551-43.7076 15.9963-43.697 15.7889-43.697 15.5809-43.7076 15.3735L-43.7076 12.6491-33.5882 12.6491C-33.2806 12.5908-33.02 12.3881-32.8877 12.1042-32.72 11.7802-32.6394 11.418-32.6542 11.0533-32.5325 10.2527-32.8998 9.4565-33.5882 9.02955ZM-95.4715-21.4061-95.783-21.9121C-96.0084-22.2959-96.298-22.6381-96.6392-22.924L-99.3638-22.924C-99.5937-22.8969-99.8104-22.8022-99.9862-22.6516-100.2-22.3882-100.31-22.0563-100.298-21.7175L-100.298-7.16117-95.4715-7.16117ZM-95.4715-3.54158-100.298-3.54158-100.298 8.56246-100.103 9.02955C-99.952 9.35586-99.6899 9.6181-99.3636 9.76904L-96.6392 9.76904C-96.6392 9.53566-96.3278 9.34095-96.2499 9.18525-95.9605 8.69537-95.7006 8.18845-95.4715 7.66727L-95.4715-3.30819ZM-92.7082-23.002-92.7082 10.314C-92.9418 11.1961-93.1363 11.8579-93.2922 12.2989-93.5645 12.9994-93.9926 13.3496-94.5374 13.3496L-100.998 13.3496C-101.327 13.1897-101.629 12.9796-101.893 12.727-102.556 12.0863-102.97 11.2311-103.061 10.314L-103.061-22.963C-102.988-23.4109-102.884-23.8531-102.75-24.2864-102.513-25.1265-101.972-25.8481-101.232-26.31L-95.0045-26.31C-94.6353-26.1771-94.2926-25.9794-93.9926-25.7264-93.2338-24.9982-92.7756-24.0124-92.7082-22.963ZM-83.7565-12.7268C-83.0364-12.5241-82.5624-11.8377-82.6278-11.0923-82.6645-10.479-82.7958-9.87508-83.017-9.30194-83.2894-8.64031-83.523-8.05635-83.7565-7.62843-84.4962-6.42184-85.2355-5.21526-85.9361-3.96983-86.5342-2.81225-87.5716-1.94296-88.8162-1.55666-89.4159-1.90723-89.7519-2.57903-89.6724-3.26919-89.6798-3.84216-89.5737-4.41087-89.361-4.94287-89.1525-5.4806-88.878-5.99064-88.5437-6.46068-87.9409-7.30015-87.3823-8.17075-86.8701-9.0684-86.132-10.5795-85.0688-11.9085-83.7565-12.9604ZM-72.4696 0.583953-77.2958 0.583953-77.2958-26.9716C-77.5372-27.7991-78.0782-28.507-78.8136-28.9567-79.1352-29.1344-79.4743-29.2779-79.8257-29.3848L-83.7177-29.3848C-84.2274-29.4779-84.7445-29.265-85.0409-28.84-85.3554-28.3973-85.5192-27.8652-85.508-27.322-85.5113-26.8872-85.4041-26.4587-85.1966-26.0766-84.9723-25.7251-84.5996-25.4956-84.1846-25.454L-81.1878-25.454C-80.8875-25.2845-80.6335-25.0439-80.4481-24.7533L-80.4481-24.2472-80.4481 0.583953-90.4119 0.583953C-90.7836 0.685731-91.0947 0.940257-91.2682 1.28443-91.4761 1.69433-91.5829 2.14799-91.5795 2.60771-91.5847 2.97139-91.5046 3.33114-91.3461 3.65843-91.2238 3.95737-90.9614 4.17601-90.6454 4.24239L-80.0591 4.24239-80.0591 14.5174C-80.0525 14.8783-79.9142 15.2244-79.6698 15.4904-79.4404 15.6786-79.1493 15.7756-78.8526 15.7628-78.0899 15.8123-77.415 15.2724-77.2958 14.5174L-77.2958 4.24239-72.4696 4.24239C-71.9416 3.87477-71.6577 3.24706-71.7302 2.60771-71.6785 1.85872-71.9472 1.12316-72.4696 0.583953M-109.483-25.6874-109.483-25.0647C-109.483-24.0915-110.106-23.352-111.312-22.8073-111.821-22.6063-112.305-22.3449-112.752-22.0288-113.479-21.6466-114.148-21.1616-114.737-20.5888-116.342-19.2368-117.792-17.7094-119.057-16.0352-120.874-13.6745-122.318-11.0492-123.339-8.25106L-110.923-8.25106-110.651-8.25106C-110.303-8.05389-109.999-7.78904-109.755-7.47273L-109.755-5.68235-110.689-4.43676-131.94-4.43676-131.94 15.0233C-132.04 15.7784-132.697 16.3343-133.458 16.3077-133.772 16.312-134.076 16.2014-134.314 15.9963-134.555 15.7285-134.693 15.3835-134.703 15.0233L-134.703-4.43676-140.658-4.43676-141.047-4.70932C-141.31-4.98105-141.498-5.31638-141.592-5.68235L-141.592-7.47273C-141.605-7.6281-141.605-7.78429-141.592-7.93966-141.45-8.21894-141.166-8.39824-140.853-8.40676L-135.131-8.40676-135.131-26.1545C-135.133-26.9307-134.903-27.6897-134.47-28.3339-134.12-28.8794-133.522-29.215-132.874-29.2291-132.503-29.2167-132.141-29.1093-131.823-28.9177L-129.721-27.3999C-128.009-26.2323-125.829-24.8312-123.183-23.2354-122.837-23.1259-122.545-22.8894-122.366-22.5737-122.166-22.2322-122.072-21.8398-122.093-21.4451-122.079-20.974-122.215-20.5105-122.482-20.1217-122.665-19.7538-123.045-19.5258-123.455-19.5381L-123.845-19.5381-132.135-24.9089-132.135-8.36791-126.841-8.36791C-125.617-12.4151-123.68-16.2112-121.12-19.5769-118.874-22.6142-115.957-25.0918-112.597-26.8161L-111.623-27.1275-111.04-27.1275C-110.694-27.1444-110.353-27.0488-110.067-26.8549-109.797-26.5988-109.631-26.2526-109.6-25.8821ZM-114.543 13.2329C-116.372 10.6642-118.435 8.09552-120.303 5.44881-121.821 3.54174-123.377 1.55683-125.012-0.272391-126.647-2.10161-126.919-2.49085-126.958-2.49085-127.157-2.64786-127.405-2.73047-127.659-2.7244-128.025-2.72309-128.364-2.5315-128.554-2.21846-128.793-1.83348-128.914-1.38703-128.904-0.93403-128.939-0.636727-128.939-0.33631-128.904-0.0388428L-117.539 14.6341C-117.254 15.4126-116.826 15.8016-116.255 15.8016-115.745 15.768-115.289 15.4737-115.049 15.0233-114.707 14.4497-114.57 13.7776-114.659 13.1162ZM-162.298 1.55683-163.582 1.55683C-164.017 1.37556-164.385 1.06236-164.633 0.661638L-164.983 0.0388428-164.983-15.5292C-164.242-13.4407-163.682-11.2921-163.31-9.10724-163.31-8.36791-163.037-7.35604-162.882-6.14945-162.588-4.44955-162.393-2.73424-162.298-1.01188L-162.298 1.44013ZM-156.304 1.55683-159.69 1.55683-160.157-3.89198-157.394-9.65235-157.16-7.86198C-156.888-5.9159-156.615-3.96983-156.421-1.43997-156.421-0.661638-156.421 0.311234-156.226 1.55683ZM-151.478-13.5832-151.478 0.0388428C-151.562 0.502006-151.794 0.925343-152.14 1.24559L-152.646 1.55683-153.774 1.55683C-153.875 1.09546-153.94 0.627057-153.969 0.155699L-153.969-1.40113C-153.919-4.03539-153.526-6.65211-152.801-9.18509-152.14-11.209-151.711-12.688-151.439-13.661ZM-156.304 10.0026-159.69 10.0026-159.69 4.86502-156.304 4.86502ZM-168.253-17.514C-168.236-17.4373-168.236-17.3575-168.253-17.2806L-168.253-16.58C-168.255-16.1629-168.348-15.7512-168.525-15.3735-168.754-15.0325-169.127-14.8168-169.537-14.7896L-171.833-15.4124-171.833-8.75716-169.303-8.75716C-168.72-8.75716-168.408-8.25106-168.408-7.23918-168.403-6.8755-168.483-6.51559-168.642-6.18829-168.75-5.91492-169.01-5.73169-169.303-5.7212L-171.833-5.7212-171.833 3.6586C-171.932 3.85117-172.049 4.03359-172.184 4.20338-172.363 4.4897-172.665 4.67654-173.001 4.70932-173.429 4.70932-173.779 4.35924-174.13 3.6586L-174.13-5.7212-176.037-5.7212C-176.278-5.38079-176.401-4.97073-176.387-4.55362-176.33-4.00376-176.239-3.45783-176.114-2.91911-175.948-2.34794-175.844-1.76087-175.803-1.16758L-174.674 6.383-169.809 6.383C-169.148 6.383-168.836 7.04447-168.836 7.93966-168.833 8.38266-168.925 8.82108-169.109 9.22409-169.221 9.57139-169.476 9.85443-169.809 10.0026L-173.935 10.0026C-173.74 10.7809-173.507 11.5984-173.312 12.4544-173.115 13.2442-173.011 14.0539-173.001 14.8676L-173.001 15.8016C-173.047 16.0911-173.112 16.3771-173.196 16.658L-173.701 16.658C-173.946 16.6986-174.196 16.6986-174.441 16.658-175.106 16.7012-175.68 16.1973-175.723 15.5324-175.725 15.5184-175.725 15.5043-175.725 15.4904L-175.959 13.6612-176.659 9.76888-179.423 9.76888C-179.503 9.66841-179.595 9.57712-179.695 9.49649-180.025 9.02988-180.201 8.47215-180.201 7.90082-180.177 7.23852-179.898 6.61098-179.423 6.14945L-177.321 6.14945C-177.321 4.82617-177.671 3.77529-177.788 2.91911-178.177 0.42809-178.566-1.90707-178.956-4.12553-179.243-4.54985-179.478-5.00728-179.656-5.48765-179.81-6.01916-179.889-6.56935-179.89-7.12232-179.89-8.13437-179.579-8.75716-178.956-8.99055L-173.896-8.99055-173.896-16.5411-179.929-18.8763C-180.233-19.1533-180.391-19.5559-180.357-19.966-180.384-20.4097-180.23-20.8453-179.929-21.1728-179.717-21.4812-179.369-21.6695-178.995-21.6785L-178.566-21.6785-173.974-20.1607-173.974-28.9177-173.624-29.5015C-173.424-29.7788-173.109-29.9506-172.767-29.9686-172.378-29.9686-171.989-29.6184-171.678-28.9177L-171.678-18.8763-168.214-17.3585ZM-148.403 9.88573-153.696 9.88573-153.696 4.74832-151.634 4.74832C-150.548 4.48806-149.643 3.7412-149.182 2.7244-148.946 2.21273-148.763 1.67794-148.637 1.12874L-148.637-25.5317C-148.764-26.6678-149.321-27.7123-150.194-28.4508-150.559-28.7428-150.965-28.9788-151.4-29.1513L-153.229-29.1513C-153.848-28.8784-154.384-28.4491-154.786-27.9058L-155.292-27.0497C-155.366-26.5476-155.255-26.0361-154.981-25.6095-154.723-25.3573-154.368-25.2295-154.008-25.2593L-153.307-25.2593-152.607-25.2593C-152.316-25.2765-152.027-25.1942-151.789-25.0257-151.576-24.7858-151.441-24.4875-151.4-24.1695L-151.4-18.8763-152.334-18.5649-154.864-10.3917-155.759-14.9843C-156.148-16.4633-156.46-17.5532-156.732-18.2925-157.199-19.6548-157.861-20.3553-158.639-20.3553-158.909-20.4087-159.187-20.4087-159.457-20.3553-159.497-19.9281-159.497-19.4981-159.457-19.0708-159.381-18.1627-159.172-17.2708-158.834-16.4243-158.528-15.6294-158.293-14.8088-158.133-13.9724L-160.469-8.4456-161.987-14.9843C-162.111-15.7615-162.334-16.52-162.648-17.2416-163.063-18.0979-163.53-18.526-164.049-18.526-164.415-18.4865-164.75-18.3049-164.983-18.0201L-164.983-28.3341C-164.983-28.6847-165.124-29.0205-165.373-29.2681-165.584-29.4904-165.884-29.6049-166.19-29.5793-166.938-29.6084-167.59-29.0736-167.708-28.3341L-167.708 1.05089C-167.462 2.12111-166.907 3.09562-166.112 3.85314-165.766 4.1647-165.387 4.43873-164.983 4.67048L-162.22 4.67048-162.22 9.80805-167.708 9.80805C-168.105 10.035-168.367 10.4418-168.408 10.8976L-168.408 12.2601C-168.41 12.6037-168.285 12.9363-168.058 13.1941L-167.708 13.4665-148.248 13.4665C-147.919 13.4707-147.623 13.2683-147.508 12.9605-147.317 12.6018-147.223 12.1993-147.236 11.793-147.236 10.7032-147.586 10.1193-148.248 10.1193ZM-186.973-18.8763-199.817-18.8763-199.817-29.1513C-199.916-29.5122-200.136-29.8281-200.44-30.0464-200.715-30.2707-201.058-30.3942-201.413-30.3969-202.074-30.3969-202.502-30.0076-202.58-29.1513L-202.58-18.8763-217.292-18.8763C-217.638-18.8686-217.945-18.6535-218.071-18.3315-218.251-17.9272-218.343-17.4896-218.343-17.0471-218.367-16.59-218.273-16.1343-218.071-15.7238-217.933-15.4168-217.629-15.2188-217.292-15.2178L-202.58-15.2178-202.58-8.56246-213.867-8.56246C-214.148-8.37726-214.376-8.12257-214.529-7.8228-214.594-7.48879-214.594-7.14527-214.529-6.81109-214.603-6.4384-214.603-6.05488-214.529-5.68235-214.493-5.52813-214.427-5.38276-214.334-5.25426-213.182-3.10513-212.206-0.866505-211.415 1.44013-210.948 2.60771-210.325 4.32007-209.508 6.57754L-216.825 6.57754C-217.326 7.02481-217.621 7.65793-217.642 8.32891-217.629 8.89221-217.438 9.43683-217.098 9.88573-217.032 10.0095-216.939 10.1162-216.825 10.1973L-208.574 10.1973-207.173 16.2687C-206.887 16.8791-206.289 17.2827-205.616 17.3196-205.236 17.3324-204.879 17.1388-204.682 16.8137-204.42 16.4115-204.322 15.9236-204.41 15.4514L-205.577 10.1973-188.102 10.1973C-187.74 10.2729-187.369 10.1181-187.168 9.80805-186.966 9.39733-186.872 8.94187-186.895 8.48477-186.886 8.05783-186.966 7.63367-187.129 7.23934-187.236 6.90025-187.52 6.64654-187.868 6.5777L-206.511 6.5777-210.403-4.63147-210.17-4.9427-202.386-4.9427-202.386 1.71252C-202.376 2.07276-202.238 2.41776-201.997 2.68556-201.771 2.88485-201.48 2.99532-201.179 2.99696-200.41 3.0258-199.74 2.47365-199.622 1.71252L-199.622-4.9427-189.737-4.9427C-189.378-4.93549-189.041-5.11151-188.841-5.40996-188.625-5.78856-188.518-6.21943-188.53-6.65523-188.422-7.43225-188.811-8.19402-189.503-8.56229L-199.622-8.56229-199.622-14.9843-186.779-14.9843C-186.429-14.9809-186.117-15.1998-186-15.5292-185.801-15.927-185.708-16.3692-185.728-16.8135-185.712-17.2662-185.792-17.7171-185.961-18.1368-186.112-18.4498-186.431-18.647-186.779-18.6427ZM-224.298-25.9988C-224.378-26.3266-224.571-26.6158-224.843-26.8159L-225.232-26.8159-256.368-26.8159-257.302-25.8819-257.302-24.0915-255.901-22.8461-251.542-22.8461-251.542 5.6045C-251.448 5.9577-251.243 6.27139-250.958 6.49969-250.679 6.7162-250.338 6.83895-249.985 6.8501-249.285 6.8501-248.896 6.42201-248.779 5.6045L-248.779-22.8461-240.061-22.8461-240.061 13.0384C-240.087 13.4165-239.944 13.7869-239.671 14.0504-239.4 14.2804-239.054 14.4048-238.698 14.4005-238.336 14.412-237.98 14.3025-237.687 14.0893-237.403 13.817-237.259 13.4296-237.297 13.0384L-237.297 3.65843-226.633 3.65843C-226.31 3.49192-226.03 3.25198-225.816 2.95795-225.7 2.79701-225.596 2.62803-225.504 2.45201L-225.504 0.583953C-225.583 0.222731-225.774-0.104236-226.049-0.350241L-226.4-0.622632-236.986-0.622632-236.986-23.002-225.037-23.002C-224.735-23.186-224.482-23.4396-224.298-23.7413L-224.298-24.2472-224.298-26.0376ZM-284.469-21.1728C-285.978-22.7824-287.604-24.2784-289.334-25.6484-290.943-26.9834-292.707-28.1202-294.588-29.0346-294.987-29.0075-295.349-28.7904-295.561-28.4508-295.759-28.0946-295.854-27.6901-295.833-27.2832-295.858-27.0503-295.858-26.8154-295.833-26.5826-295.846-26.4923-295.846-26.4005-295.833-26.31-295.088-25.5953-294.295-24.9321-293.459-24.3251-290.891-22.5737-289.567-21.6007-289.567-21.484L-286.571-19.032C-286.419-18.8971-286.228-18.8151-286.026-18.7984-285.714-18.7984-285.403-19.0708-285.13-19.5768-284.87-20.0681-284.736-20.6167-284.741-21.1728ZM-264.697-16.6188C-264.379-16.6183-264.097-16.4148-263.997-16.1129-263.806-15.7262-263.712-15.2988-263.724-14.8676-263.698-14.4725-263.793-14.0785-263.997-13.7389-264.113-13.4599-264.396-13.2872-264.697-13.3108L-293.888-13.3108-294.277-13.3108C-294.54-13.5191-294.73-13.8051-294.822-14.128L-294.822-15.3345C-294.757-15.8667-294.417-16.3251-293.926-16.5411L-280.149-16.5411-280.149-25.3371C-280.184-25.68-280.319-26.0048-280.538-26.2712-280.708-26.4311-280.928-26.5272-281.161-26.5435-281.634-26.5009-282.089-26.3405-282.484-26.0765L-283.574-25.3371-283.963-25.3371C-284.741-25.3371-285.13-25.9208-285.13-27.0106-285.123-27.4523-285.031-27.8885-284.858-28.2951-284.688-28.6353-284.396-28.8992-284.041-29.0344L-283.146-29.5403C-282.484-29.8776-281.775-30.1138-281.044-30.2412L-279.682-30.2412C-279.282-30.07-278.913-29.8332-278.592-29.5403-277.791-28.7868-277.304-27.7578-277.23-26.6604L-277.23-16.658ZM-263.53-27.5167C-263.241-27.82-263.087-28.2269-263.101-28.6453-263.115-29.0587-263.266-29.4556-263.53-29.7741-263.746-30.1092-264.105-30.3247-264.503-30.3578-264.642-30.4026-264.792-30.4026-264.931-30.3578L-270.224-25.1036C-270.651-24.5385-271.134-24.017-271.664-23.5468-272.687-22.7345-273.334-21.5394-273.454-20.2384-273.221-19.4991-272.91-19.1488-272.559-19.1098L-271.625-19.1098-263.335-27.5944ZM-267.422-10.2748-290.774-10.2748C-291.074-10.1055-291.328-9.86492-291.513-9.57434L-291.708-9.0684C-291.823-8.40692-291.622-7.72971-291.163-7.23918L-290.774-6.92778-267.422-6.92778C-267.126-6.92581-266.854-7.09168-266.721-7.35587-266.522-7.69743-266.427-8.08979-266.449-8.48461-266.428-8.91647-266.522-9.3462-266.721-9.73003-266.818-10.0401-267.097-10.2573-267.422-10.2748M-280.265 3.6586C-280.966 4.20338-281.55 4.63163-281.978 5.02088-283.047 6.08357-284.06 7.20083-285.014 8.36791L-281.122 8.36791C-280.781 8.83141-280.59 9.38848-280.577 9.96375-280.598 10.6347-280.893 11.2678-281.394 11.7149L-285.014 11.7149-285.014 15.6073C-285.133 16.3622-285.808 16.9022-286.571 16.8525-286.867 16.8653-287.158 16.7683-287.388 16.5801-287.623 16.3089-287.76 15.966-287.777 15.6073L-287.777 11.7149-293.926 11.7149C-294.549 11.7149-294.86 11.0533-294.86 10.1581-294.856 9.72004-294.777 9.28572-294.627 8.87402-294.49 8.54131-294.243 8.2663-293.926 8.09552L-288.166 8.09552-295.522 0.311398C-295.673-0.0183561-295.753-0.376627-295.756-0.739488-295.765-1.1802-295.643-1.61386-295.405-1.98475-295.193-2.29353-294.846-2.48184-294.471-2.49085L-294.199-2.49085-293.926-2.49085-291.98-0.544782C-290.609 0.867653-289.31 2.34843-288.088 3.89214L-288.088-3.89198C-288.088-4.74832-287.582-5.17641-286.921-5.17641-286.566-5.17379-286.223-5.05022-285.948-4.82601-285.643-4.59148-285.424-4.26336-285.325-3.89198L-285.325 3.89214C-284.958 3.40833-284.554 2.95303-284.119 2.53003-283.202 1.67516-282.133 1.00155-280.966 0.544946-280.773 0.658688-280.613 0.819304-280.499 1.01204-280.226 1.42686-280.09 1.9169-280.11 2.41317-280.051 2.80012-280.051 3.19363-280.11 3.58075ZM-261.661-2.41301C-261.643-2.52904-261.643-2.64721-261.661-2.76325L-261.661-3.30819C-261.658-3.75365-261.794-4.18912-262.051-4.55362-262.287-4.84912-262.645-5.02104-263.024-5.02072-263.308-4.9963-263.579-4.88796-263.802-4.70932L-270.691 2.84126-270.691-4.08669C-270.669-4.472-270.827-4.84568-271.119-5.0984-271.389-5.33162-271.736-5.45651-272.092-5.44881-272.445-5.47945-272.795-5.36719-273.065-5.13741-273.354-4.86862-273.498-4.47872-273.454-4.08669L-273.454 2.84126C-274.612 1.18118-275.873-0.404653-277.23-1.90707-277.736-2.41301-278.436-3.11349-279.292-3.89198-279.381-3.92165-279.476-3.92165-279.565-3.89198L-279.837-3.89198C-280.223-3.88854-280.578-3.68138-280.771-3.3472-281.008-2.99007-281.131-2.56903-281.122-2.14061-281.116-1.76546-281.036-1.39555-280.888-1.05089-278.889 0.891417-277.029 2.97254-275.323 5.17641L-273.337 8.36791-278.397 8.36791C-278.714 8.53869-278.961 8.81371-279.098 9.14641-279.281 9.54942-279.374 9.98767-279.37 10.4308-279.37 11.3259-279.059 11.8318-278.397 11.9875L-273.337 11.9875-273.337 15.3345C-272.948 16.0352-272.481 16.3856-272.014 16.3856-271.526 16.3495-271.081 16.0912-270.808 15.6849L-270.574 15.3345-270.574 11.9875-263.452 11.9875C-263.144 11.9292-262.884 11.7264-262.751 11.4426-262.578 11.1064-262.498 10.7304-262.518 10.3528-262.518 9.34095-262.829 8.64047-263.452 8.36791L-270.458 8.36791-262.907-0.42809C-262.418-0.652788-262.02-1.03712-261.778-1.51782L-261.506-2.25731Z" fill-rule="evenodd" transform="matrix(1.00048 0 0 -1 725.659 1097.76)"/></g></svg>