<svg width="1126" height="1126" xmlns="http://www.w3.org/2000/svg" xmlns:xlink="http://www.w3.org/1999/xlink" xml:space="preserve" overflow="hidden"><g transform="translate(-397 -34)"><path d="M532.899 1110.35C839.423 1123.08 1098.24 885.133 1110.98 578.884 1123.72 272.635 885.559 14.0533 579.035 1.32447 272.51-11.4036 13.6951 226.542 0.955161 532.79-11.7851 839.039 226.375 1097.62 532.899 1110.35" fill="#FFFFFF" fill-rule="evenodd" transform="matrix(1 0 0 -1 404 1153)"/><path d="M563.115 1110.88C260.715 1110.88 15.572 865.732 15.572 563.333 15.572 260.932 260.715 15.7899 563.115 15.7899 865.514 15.7899 1110.66 260.932 1110.66 563.333 1110.22 865.549 865.331 1110.43 563.115 1110.88M563.115 0.832397C252.454 0.758069 0.554932 252.538 0.481326 563.199 0.407359 873.859 252.188 1125.76 562.847 1125.83 873.508 1125.91 1125.41 874.127 1125.48 563.466L1125.48 563.199C1125.11 252.765 873.548 1.19971 563.115 0.832397" fill="#FF0001" fill-rule="evenodd" transform="matrix(1 0 0 -1 397 1160)"/><path d="M514.981 924.857C289.255 924.857 106.266 741.691 106.266 515.744 106.266 289.798 289.255 106.632 514.981 106.632 740.708 106.632 923.696 289.798 923.696 515.744 923.109 741.382 740.4 924.088 514.981 924.456ZM514.981 1030.74C799.132 1030.74 1029.48 800.171 1029.48 515.744 1029.48 231.318 799.132 0.744109 514.981 0.744109 230.831 0.744109 0.481398 231.318 0.481398 515.744 0.995996 799.958 231.045 1030.23 514.981 1030.74" fill="#FF0001" fill-rule="evenodd" transform="matrix(1 0 0 -1 445 1113)"/><path d="M515.152 923.403C289.701 923.477 106.878 740.792 106.804 515.365 106.731 289.938 289.434 107.133 514.885 107.06 740.336 106.986 923.159 289.671 923.233 515.098L923.233 515.632C923.012 740.937 740.48 923.569 515.152 923.938ZM515.152 105.991C289.111 105.991 105.869 289.214 105.869 515.231 105.869 741.249 289.112 924.472 515.152 924.472 741.037 924.472 924.213 741.493 924.435 515.632 924.214 289.707 741.101 106.613 515.152 106.392ZM515.152 1029.19C231.273 1029.26 1.08414 799.214 1.01051 515.365 0.936891 231.515 231.006 1.35034 514.885 1.27708 798.764 1.20347 1028.95 231.249 1029.03 515.098L1029.03 515.632C1028.73 799.307 798.857 1029.22 515.152 1029.59ZM515.152 0.742649C230.683 0.967103 0.256959 231.732 0.481438 516.172 0.644203 722.888 124.4 909.476 314.785 990.052 442.853 1044.31 587.452 1044.31 715.519 990.052 977.561 879.544 1100.39 577.554 989.874 315.539 909.369 124.679 722.315 0.640886 515.152 0.742649" fill="#FF0001" fill-rule="evenodd" transform="matrix(1 0 0 -1 445 1113)"/><rect x="922" y="124" width="74.9999" height="929" fill="#FF0001"/><path d="M94.2666 276.692 0.527088 183.047 0.527088 99.2733 64.6223 153.432 64.6223 0.692349 121.373 0.692349 121.373 153.432 180.528 96.8719 180.528 183.047Z" fill-rule="evenodd" transform="matrix(1 0 0 -1 921 880)"/><path d="M306.453 730.715 211.112 630.205 208.705 542.91 281.716 627.135 281.716 551.185 59.4748 423.045C24.1157 409.891 0.875739 375.948 1.44078 338.285L0.504706 170.501C7.05722 135.53 46.2368 124.451 69.1025 101.359L258.315 0.715132 257.646 74.9301 108.55 149.679C85.8174 164.628 65.7599 181.313 63.4868 210.812L64.8239 320.799C60.0098 347.495 75.1199 362.712 99.4571 372.323L329.186 507.003 329.186 627.135 393.505 537.837 393.505 630.205Z" fill-rule="evenodd" transform="matrix(1 0 0 -1 708 963)"/></g></svg>