<svg width="328" height="327" xmlns="http://www.w3.org/2000/svg" xmlns:xlink="http://www.w3.org/1999/xlink" xml:space="preserve" overflow="hidden"><defs><clipPath id="clip0"><rect x="131" y="204" width="328" height="327"/></clipPath></defs><g clip-path="url(#clip0)" transform="translate(-131 -204)"><path d="M0 0C62.9712 62.971 165.067 62.971 228.039 0 291.009-62.9712 291.01-165.067 228.039-228.038 165.067-291.01 62.971-291.01 0-228.038-62.9712-165.067-62.9712-62.9712 0 0" fill="#FFFFFF" transform="matrix(1.00355 0 0 -1 180.564 253.364)"/><path d="M0 0C-87.8546 0-159.075-71.2203-159.075-159.075-159.075-246.929-87.8546-318.15 0-318.15 87.8546-318.15 159.075-246.929 159.075-159.075 158.947-71.2734 87.8014-0.128254 0 0M0-322.495C-90.2331-322.495-163.382-249.347-163.382-159.114-163.382-68.8805-90.2331 4.26785 0 4.26785 90.2331 4.26785 163.382-68.8805 163.382-159.114 163.275-249.302 90.1889-322.388 0-322.495" fill="#FF0001" transform="matrix(1.00355 0 0 -1 295 208.267)"/><path d="M0 0C-65.5696 0-118.724-53.1547-118.724-118.724-118.724-184.294-65.5696-237.448 0-237.448 65.5694-237.448 118.724-184.294 118.724-118.724 118.596-53.2078 65.5163-0.128091 0 0M0 30.6897C82.5189 30.6683 149.397-36.2439 149.375-118.763 149.354-201.282 82.4415-268.16-0.0776062-268.138-82.5815-268.117-149.453-201.228-149.453-118.724-149.282-36.2607-82.4634 30.5404 0 30.6897" fill="#FF0001" fill-rule="evenodd" transform="matrix(1.00355 0 0 -1 295 248.657)"/><path d="M0 0C-65.4838 0.021403-118.586-53.0464-118.608-118.53-118.629-184.014-65.5614-237.116-0.0776062-237.138 65.4064-237.159 118.509-184.091 118.53-118.608 118.53-118.556 118.53-118.504 118.53-118.453 118.445-53.0193 65.4332 0.00963951 0 0.116328ZM0-237.448C-65.6553-237.448-118.879-184.224-118.879-118.569-118.879-52.9137-65.6552 0.310425 0 0.310425 65.6098 0.310261 118.815-52.8428 118.879-118.453 118.815-184.081 65.6287-237.268 0-237.332ZM0 30.6897C-82.4333 30.6897-149.259-36.1356-149.259-118.569-149.259-201.002-82.4332-267.828 0-267.828 82.4335-267.828 149.259-201.002 149.259-118.569L149.259-118.453C149.152-36.0635 82.3889 30.6994 0 30.8062ZM0-268.061C-82.3686-267.821-148.947-200.853-148.707-118.484-148.467-36.1153-81.4994 30.463 0.869353 30.223 83.2381 29.983 149.816-36.9848 149.576-119.353 149.402-179.246 113.416-233.224 58.1981-256.421 39.7791-264.176 19.9847-268.135 9.28716e-15-268.061" fill="#FF0001" transform="matrix(1.00355 0 0 -1 295 248.928)"/><path d="M0 0 21.1066-2.8711 197.447-165.787 197.447-181.112 182.121-181.112 5.78109-17.2266Z" fill="#FF0001" fill-rule="evenodd" transform="matrix(1.00355 0 0 -1 195.906 276.825)"/><path d="M0 0 15.1314 0 15.1314 15.0927-161.131 178.047-181.889 180.88-176.263 163.925ZM15.5194-0.310261 0-0.310261-176.457 163.653-182.315 181.151-182.044 181.151-160.898 178.242 15.4807 15.2866Z" fill="#FF0001" transform="matrix(1.00355 0 0 -1 378.636 457.782)"/><path d="M0 0 0 35.6561C-1.24105 40.582-5.24536 44.3287-10.2429 45.2394L-177.388 45.2394C-182.044 44.2306-184.721 42.0191-185.148 38.4108L-185.148 19.477-189.027 15.5971-189.027-7.29417-160.666-7.29417C-155.622 9.58331-138.085 11.2905-134.67-7.29417L-62.8927-7.29417C-61.7677 12.1053-39.3032 12.4157-36.5872-7.29417ZM-176.379 34.6085-165.322 34.6085-165.322 0.388031C-167.643-2.66541-172-3.25913-175.053-0.93781-175.553-0.557948-175.999-0.111916-176.379 0.388031L-176.379 34.7249ZM-154.419 34.6085-128.113 34.6085C-127.171 34.6085-126.406 33.8442-126.406 32.9013L-126.406 23.0852C-126.406 22.1424-127.171 21.3781-128.113 21.3781L-154.419 21.3781C-155.362 21.3781-156.126 22.1424-156.126 23.0852L-156.126 32.7849C-156.126 33.7278-155.362 34.4921-154.419 34.4921ZM-117.133 34.6085-88.8104 34.6085C-87.8053 34.6728-86.9384 33.9102-86.8742 32.905-86.8716 32.865-86.8703 32.825-86.8704 32.7849L-86.8704 23.0852C-86.9327 22.1086-87.7545 21.3553-88.7328 21.3781L-117.133 21.3781C-118.105 21.3561-118.915 22.1148-118.957 23.0852L-118.957 32.7849C-118.915 33.7554-118.105 34.5142-117.133 34.4921ZM-79.0719 34.6085-50.7487 34.6085C-49.7778 34.6305-48.9672 33.8718-48.9252 32.9013L-48.9252 23.0852C-48.9672 22.1148-49.7778 21.3561-50.7487 21.3781L-79.1106 21.3781C-80.0818 21.3561-80.8921 22.1148-80.9343 23.0852L-80.9343 32.7849C-80.8921 33.7554-80.0818 34.5142-79.1106 34.4921ZM-41.0104 34.6085-12.6872 34.6085C-11.7161 34.6305-10.9057 33.8718-10.8637 32.9013L-10.8637 23.0852C-10.9057 22.1148-11.7161 21.3561-12.6872 21.3781L-41.0104 21.3781C-41.9886 21.3553-42.8104 22.1086-42.8726 23.0852L-42.8726 32.7849C-42.8104 33.7615-41.9886 34.5148-41.0104 34.4921Z" fill-rule="evenodd" transform="matrix(1.00355 0 0 -1 389.655 381.775)"/><path d="M0 0C-0.835696 0.000163382-1.5134-0.677053-1.51373-1.51259-1.51373-1.52582-1.51357-1.53889-1.51308-1.55196L-1.51308-11.2905C-1.53464-12.1258-0.874745-12.8204-0.0393749-12.8419-0.026141-12.8423-0.0130705-12.8424 -2.35807e-16-12.8424L26.3056-12.8424C27.1627-12.8424 27.8575-12.1476 27.8575-11.2905L27.8575-1.59068C27.8575-0.733583 27.1627-0.0387214 26.3056-0.0387214ZM26.3056-13.2305 0-13.2305C-1.01983-13.2097-1.84164-12.3879-1.86239-11.3681L-1.86239-1.59068C-1.84164-0.570855-1.01983 0.250954 0 0.27154L26.3056 0.27154C27.3406 0.271867 28.1856-0.555987 28.2067-1.59068L28.2067-11.2905C28.2281-12.3402 27.3945-13.2086 26.3448-13.23 26.3317-13.2303 26.3186-13.2305 26.3056-13.2305M37.2856 0C36.4001 0.0220565 35.6592-0.667087 35.6172-1.55196L35.6172-11.2905C35.6592-12.1752 36.4001-12.8645 37.2856-12.8424L65.6086-12.8424C66.4861-12.8856 67.2323-12.2092 67.2756-11.3315 67.2763-11.3178 67.2767-11.304 67.2771-11.2905L67.2771-1.59068C67.2566-0.712507 66.5281-0.0169917 65.6498-0.0374144 65.6361-0.0375777 65.6223-0.0380679 65.6086-0.0387214ZM65.6086-13.2305 37.2856-13.2305C36.2289-13.2524 35.3489-12.4242 35.3069-11.3681L35.3069-1.59068C35.3489-0.534584 36.2289 0.293597 37.2856 0.27154L65.6086 0.27154C66.6505 0.272357 67.507-0.549779 67.5486-1.59068L67.5486-11.2905C67.5486-12.3619 66.6801-13.2305 65.6086-13.2305M75.3084 0.0776062C74.4309 0.120739 73.6847-0.55566 73.6414-1.43318 73.6408-1.44691 73.6403-1.46063 73.64-1.47435L73.64-11.2905C73.6604-12.1687 74.3889-12.8642 75.2672-12.8439 75.281-12.8436 75.2947-12.8431 75.3084-12.8424L103.632-12.8424C104.509-12.8856 105.255-12.2092 105.298-11.3315 105.299-11.3178 105.3-11.304 105.3-11.2905L105.3-1.59068C105.279-0.712507 104.551-0.0169917 103.673-0.0374144 103.659-0.0375777 103.645-0.0380679 103.632-0.0387214ZM103.67-13.2305 75.3084-13.2305C74.2445-13.253 73.3531-12.4304 73.2908-11.3681L73.2908-1.59068C73.3531-0.528376 74.2445 0.29425 75.3084 0.27154L103.632 0.27154C104.688 0.293597 105.568-0.534584 105.61-1.59068L105.61-11.2905C105.61-12.3619 104.742-13.2305 103.67-13.2305M113.409 0C112.531 0.0431327 111.785-0.633267 111.742-1.51079 111.741-1.52451 111.741-1.53824 111.74-1.55196L111.74-11.2905C111.761-12.1687 112.489-12.8642 113.367-12.8439 113.381-12.8436 113.395-12.8431 113.409-12.8424L141.732-12.8424C142.617-12.8645 143.358-12.1752 143.4-11.2905L143.4-1.59068C143.358-0.705971 142.617-0.0166649 141.732-0.0387214ZM141.732-13.2305 113.409-13.2305C112.338-13.2741 111.435-12.4417 111.391-11.3712 111.391-11.37 111.391-11.3691 111.391-11.3681L111.391-1.59068C111.433-0.520207 112.335 0.313692 113.406 0.271703 113.407 0.271703 113.408 0.271703 113.409 0.27154L141.732 0.27154C142.789 0.293597 143.668-0.534584 143.711-1.59068L143.711-11.2905C143.711-12.3619 142.842-13.2305 141.771-13.2308 141.758-13.2308 141.745-13.2306 141.732-13.2305M-21.6886-33.8326C-20.6374-35.5268-18.7529-36.521-16.761-36.4319-14.5089-36.6553-12.3077-35.6654-10.9801-33.8326L-10.9801 0.193934-21.6886 0.193934ZM-16.4507-36.7813-16.8775-36.7813C-18.9931-36.8384-20.9774-35.7575-22.0766-33.9489L-22.0766 0.504359-10.7084 0.504359-10.7084-33.9102C-11.9806-35.8147-14.1637-36.9064-16.4507-36.7813M20.2142-41.6311 91.3711-41.6311C92.0307-31.815 98.0057-27.198 103.709-26.9651L104.136-26.9651C109.878-26.9651 116.513-31.4658 117.987-41.5922L154.264-34.143 154.264 1.24154C153.045 6.11488 149.082 9.82021 144.137 10.7084L-22.9688 10.7084C-27.7023 9.66091-30.1467 7.4881-30.3793 4.03503L-30.3793-14.9764-34.2593-18.8562-34.2593-41.5148-6.16896-41.5148C-3.72461-33.4832 1.86239-28.2067 7.91485-28.2067L8.49698-28.2067C14.3944-28.7499 18.7399-33.5997 20.2142-41.6311M117.715-41.9802 117.715-41.9802C116.28-31.6986 109.49-27.2367 103.748-27.5084 98.0057-27.7799 92.3022-32.2806 91.7203-41.9802L19.9425-41.9802C18.4682-34.0265 14.2392-29.1379 8.61331-28.8275L8.10895-28.8275C3.10392-28.8275-2.98759-32.7073-5.70349-42.0191L-34.4145-42.0191-34.4145-18.7399-30.5347-14.86-30.5347 4.03503C-30.3019 7.64331-27.7023 9.97134-22.7749 11.0188L144.176 11.0188C149.26 10.1364 153.341 6.32989 154.574 1.31914L154.574-34.3756Z" transform="matrix(1.00355 0 0 -1 234.687 347.4)"/><path d="M0 0C-2.91407 0.021403-5.29372-2.32378-5.31513-5.23785-5.33653-8.15192-2.99152-10.5316-0.0772794-10.553 2.83679-10.5744 5.21644-8.2292 5.23785-5.31513 5.23801-5.28931 5.23801-5.2635 5.23785-5.23785 5.23785-2.34501 2.89283 0 0 0M0 4.19025C5.22837 4.21165 9.48413-0.00947613 9.50554-5.23785 9.52694-10.4662 5.30581-14.722 0.0774428-14.7434-5.15093-14.7648-9.40669-10.5437-9.42809-5.31529-9.42826-5.28948-9.42826-5.26366-9.42809-5.23785-9.42809-0.0307157-5.20697 4.19025 0 4.19025" fill-rule="evenodd" transform="matrix(1.00355 0 0 -1 242.397 383.521)"/><path d="M0 0C-2.80706-0.000163382-5.08247-2.27574-5.08247-5.0828-5.08231-7.88986-2.80673-10.1654 0.000326763-10.1653 2.80738-10.1653 5.08296-7.88969 5.0828-5.08247 5.0828-5.06956 5.0828-5.05682 5.08263-5.04391 4.95814-2.32819 2.71867-0.191156 0-0.193934ZM0-10.4757C-2.99919-10.4115-5.37836-7.92792-5.31415-4.92873-5.24994-1.92954-2.76638 0.449789 0.232819 0.385417 3.1861 0.322188 5.54762-2.08981 5.54827-5.04391 5.54893-8.04376 3.11765-10.4763 0.117635-10.4768 0.0784231-10.4768 0.0392116-10.4765 -1.8139e-16-10.4757M-1.8139e-16 4.22897C-5.14227 4.16476-9.25883-0.0560399-9.19446-5.19831-9.13008-10.3407-4.90929-14.4573 0.232982-14.3929 5.3447-14.3289 9.44901-10.156 9.42809-5.04391 9.40718 0.0988458 5.22118 4.2507 0.0784231 4.22978 0.0522821 4.22962 0.026141 4.22929 0 4.22897M0-14.6659C-5.313-14.7731-9.70698-10.5528-9.81416-5.23981-9.92134 0.0731949-5.70103 4.46718-0.388031 4.57436 4.92514 4.68137 9.31912 0.461226 9.42613-4.85178 9.42744-4.91582 9.42809-4.97987 9.42809-5.04391 9.42924-10.2831 5.23834-14.5604 0-14.6659" transform="matrix(1.00355 0 0 -1 242.397 383.715)"/><path d="M0 0C-2.91342 0.0642089-5.32738-2.24552-5.39159-5.1591-5.45596-8.07252-3.14607-10.4865-0.232492-10.5507 2.68093-10.6149 5.09489-8.30517 5.1591-5.39159 5.16024-5.34029 5.16057-5.28915 5.16024-5.23785 5.16057-2.37508 2.86244-0.0423158 0 0M0 4.19025C5.22837 4.19025 9.46681-0.0481975 9.46681-5.27657 9.46665-10.5051 5.22821-14.7435-0.000163382-14.7435-5.22853-14.7434-9.46698-10.5049-9.46698-5.27641-9.46698-5.26366-9.46698-5.25075-9.46681-5.23785-9.46681-0.0307157-5.24585 4.19025-0.0388848 4.19041-0.0258143 4.19041-0.0129071 4.19041 7.2556e-17 4.19025" fill-rule="evenodd" transform="matrix(1.00355 0 0 -1 340.128 383.521)"/><path d="M0 0C-2.80673-0.0429693-5.04734-2.35302-5.00438-5.15991-4.96141-7.96648-2.65136-10.2071 0.155376-10.1641 2.94675-10.1215 5.18115-7.83545 5.16024-5.04391 5.0346-2.2978 2.74857-0.149167 0-0.193934ZM0-10.4757C-2.99985-10.4971-5.4491-8.08265-5.4705-5.0828-5.49191-2.08295-3.07745 0.366301-0.0777696 0.387704 2.92224 0.409107 5.37149-2.00534 5.3929-5.00519 5.39306-5.0181 5.39306-5.03101 5.39306-5.04391 5.39306-8.02873 2.98482-10.4543 0-10.4757M0 4.22897C-5.14276 4.25037-9.32908 0.0988458-9.35032-5.04391-9.37173-10.1865-5.22004-14.3728-0.0774428-14.3942 5.06515-14.4156 9.25148-10.264 9.27288-5.12136 9.27304-5.09538 9.27304-5.06973 9.27288-5.04391 9.25164 0.0686202 5.11237 4.20773 0 4.22897M0-14.6659C-5.31398-14.6873-9.63935-10.3968-9.66091-5.0828-9.68231 0.231348-5.39175 4.55671-0.0776062 4.57811 5.23654 4.59952 9.56174 0.308954 9.58314-5.00519 9.58314-5.0181 9.58331-5.03084 9.58331-5.04391 9.58331-10.3429 5.29895-14.6445 0-14.6659" transform="matrix(1.00355 0 0 -1 340.128 383.715)"/><path d="M0 0C-0.207494 0.317614-0.552556 0.519063-0.931111 0.54308-1.38989 0.484916-1.80063 0.230041-2.05632-0.155212-2.05632-0.155212-2.48307-0.776062-2.90999-1.51324-3.76349-3.02632-4.46195-4.26785-5.04391-5.39306-6.78981-8.34177-8.41938-11.0188-9.93262-13.4631-9.95876-13.6304-9.95876-13.8005-9.93262-13.9675-9.96039-14.4287-9.79113-14.88-9.46681-15.2092-9.15214-15.5064-8.73601-15.6729-8.30289-15.6747-7.94769-15.6825-7.60181-15.5582-7.33305-15.3257-7.03439-15.0778-6.82918-14.7355-6.75092-14.3555L-5.04391-11.9502-5.04391-31.3495C-5.04391-32.1641-4.53939-32.591-3.80221-32.591-3.43689-32.5882-3.08236-32.4655-2.79366-32.2419-2.47605-32.0308-2.24274-31.7148-2.13409-31.3495L-2.13409-7.17784C-1.88363-6.43429-1.53105-5.72897-1.08632-5.08263-0.335749-4.03961 0.144429-2.8265 0.310261-1.55196 0.30438-0.994667 0.199325-0.442927 0 0.0776062ZM-0.698293 11.1351C-1.27519 9.35392-1.94865 7.60541-2.71589 5.89742-3.49195 4.11264-4.8887 1.51324-6.59587-1.86239-6.78981-2.24699-7.17441-2.49859-7.60459-2.52196-8.03723-2.50693-8.43849-2.29175-8.69092-1.93999-8.9984-1.56977-9.16358-1.10201-9.15655-0.62085-9.16554-0.199652-9.02846 0.211579-8.76852 0.54308-7.52699 2.71589-6.32417 5.12152-5.12152 7.72092-4.73349 8.61331-4.22913 9.73835-3.68605 11.0964L-3.45323 12.0275C-3.09347 12.6387-2.45383 13.0313-1.74606 13.0751-1.36473 13.0945-0.999405 12.9192-0.776062 12.6096-0.522331 12.1484-0.426916 11.6169-0.504359 11.0964ZM24.0551-3.95759 19.4382-3.95759 19.4382-27.2367C19.1722-28.9365 18.1997-30.4447 16.761-31.3882 16.1532-31.7174 15.4992-31.9527 14.8212-32.0867L12.4155-32.0867 8.76852-31.1943C8.02367-31.0152 7.32374-30.685 6.7122-30.2243 6.02894-29.7897 5.59598-29.0536 5.54811-28.2456 5.57507-27.7686 5.76704-27.3158 6.09135-26.9651 6.47514-26.8846 6.8715-26.8846 7.25528-26.9651 8.10764-27.0372 8.93779-27.2744 9.69963-27.6634 10.402-28.0681 11.1822-28.3192 11.9888-28.4008L13.851-28.4008C14.6707-28.3903 15.4172-27.9275 15.791-27.198 15.9844-26.8081 16.1529-26.4064 16.2953-25.9951L16.2953-4.26785 2.44435-4.26785 1.93999-3.95759C1.67335-3.49669 1.52664-2.97648 1.51324-2.44435 1.51275-1.95862 1.66175-1.48448 1.93999-1.08632 1.93999-1.08632 2.21153-0.814784 2.44435-0.62085L24.0551-0.62085C24.4079-0.63294 24.7232-0.843212 24.8701-1.16393 25.0683-1.56062 25.1617-2.00142 25.1416-2.44435 25.1648-2.90002 25.0714-3.35406 24.8701-3.76349 24.7273-4.08258 24.4045-4.28239 24.0551-4.26785ZM22.348 7.21656 3.647 7.21656C3.29524 7.53532 3.05115 7.95554 2.94871 8.41921L2.94871 9.62203 3.68589 10.8636 22.3867 10.8636C22.9182 10.4218 23.2302 9.76989 23.2404 9.07878 23.2299 8.51022 23.0245 7.96223 22.6586 7.52682L22.3867 7.21656ZM-30.0303-9.42809-36.8201-9.42809-36.8201-13.3081-30.0303-13.3081ZM-30.0303-5.74221-30.0303-1.86239-35.8501-1.86239-36.82-3.0652-36.82-5.78109ZM-20.059-9.42809-27.1203-9.42809-27.1203-13.3081-20.059-13.3081ZM-20.059-5.74221-20.059-3.02632-21.029-1.82366-27.1203-1.82366-27.1203-5.70349ZM-16.4118-31.6988C-15.6877-31.3024-15.2856-30.4983-15.4031-29.6812-15.3935-29.3056-15.4732-28.9334-15.6359-28.5949-15.817-28.3299-16.0963-28.1483-16.4118-28.0905L-30.0303-28.0905C-32.2422-28.1549-34.4514-27.8936-36.5872-27.3144-38.9269-26.6145-40.92-25.0644-42.1743-22.969L-42.4071-20.8349-42.4071-1.82366C-42.5244-1.46488-42.6671-1.11475-42.8339-0.776062-43.1901-0.143122-43.8536 0.255202-44.5798 0.271377L-48.7313 0.271377-49.1968 0.271377C-49.5534 0.0491778-49.7498-0.358622-49.7011-0.776062L-49.7011-2.2893-49.5072-2.79366C-49.2984-3.07647-49.0344-3.31403-48.7313-3.49195L-46.287-3.49195C-45.69-3.5524-45.255-4.08535-45.3157-4.68219-45.316-4.68644-45.3165-4.69052-45.317-4.6946L-45.317-21.8827C-45.699-23.4833-46.6863-24.874-48.0716-25.7625-49.4316-26.607-50.3099-28.0467-50.4385-29.6423-50.3581-30.3247-49.7671-30.8312-49.0805-30.8062-48.5552-30.7909-48.0448-30.6296-47.6061-30.3406-47.1753-30.087-46.8046-29.7428-46.5196-29.3319L-43.6098-25.9951C-42.1952-28.2526-39.9767-29.8888-37.4021-30.5734-36.6648-30.8062-34.2982-31.1554-30.263-31.7375ZM-42.4071 8.41921C-41.8167 7.95537-41.4966 7.22783-41.5535 6.47922-41.5198 6.0193-41.658 5.56298-41.9415 5.19896-42.231 4.84426-42.7019 4.69248-43.1442 4.81093L-48.227 9.62203C-48.2709 9.87886-48.2709 10.1411-48.227 10.3981-48.2459 10.5267-48.2459 10.6572-48.227 10.786-48.2684 11.0949-48.2684 11.4081-48.227 11.7172-48.2498 11.8324-48.2498 11.951-48.227 12.0664-47.9303 12.1005-47.6309 12.1005-47.3346 12.0664-46.3059 11.9417-45.3697 11.4109-44.735 10.5919-44.0379 9.74097-43.258 8.96131-42.4071 8.264ZM-17.149-22.6197-17.6535-24.1329C-17.8468-24.6868-18.2143-25.1632-18.701-25.4909-19.1338-25.7876-19.6507-25.9373-20.1753-25.9177-20.8396-25.9023-21.4961-25.771-22.1152-25.5297-22.7453-25.3107-23.3554-25.0382-23.9388-24.7149-24.5984-24.7149-24.9088-24.1716-24.9088-23.124-24.9189-22.7362-24.8391-22.3511-24.676-21.9988-24.3881-21.7132-23.995-21.5588-23.5897-21.5721-23.0724-21.602-22.5685-21.7479-22.1153-21.9988-21.7222-22.1955-21.3046-22.339-20.8738-22.4257-20.5524-22.4112-20.2539-22.2548-20.0588-21.9988L-20.0588-16.8775-27.1203-16.8775-27.1203-24.6373C-27.0782-25.0247-27.2398-25.4063-27.5471-25.646-27.8298-25.8811-28.1884-26.0053-28.5558-25.9951-28.9826-25.9966-29.3953-25.8452-29.7197-25.5684-30.0122-25.3009-30.1689-24.9165-30.1467-24.5209L-30.1467-16.7611-36.82-16.7611-36.82-24.0164C-37.1822-24.7149-37.5701-25.064-37.9839-25.064-38.3451-25.049-38.6771-24.8614-38.8763-24.5597L-39.2643-24.0164-39.2643-0.465801C-39.154 0.271213-38.7654 0.93781-38.178 1.39675-37.9205 1.61682-37.6331 1.79981-37.3243 1.93983L-28.7886 1.93983-28.7886 2.25025-32.2031 4.07392C-32.8155 4.23109-33.3854 4.52289-33.8713 4.92742-34.4349 5.26758-34.7968 5.86147-34.8413 6.51827-34.832 6.9496-34.6666 7.36311-34.3756 7.6822-34.0931 7.91714-33.7345 8.04131-33.3671 8.03118-32.6703 7.9459-32.0046 7.69282-31.4271 7.29417-30.8941 6.97753-30.336 6.70501-29.7588 6.47922-29.4198 6.16602-28.9785 5.98695-28.5171 5.97486-27.8386 6.02469-27.2089 6.34655-26.771 6.86725L-24.9088 8.57442-38.2945 8.57442C-38.7984 8.77881-39.1537 9.23808-39.2256 9.77724L-39.2256 11.0188C-39.1072 11.3705-38.908 11.6895-38.6435 11.95L-38.2555 12.2216-20.7962 12.2216C-20.1691 11.9321-19.6715 11.4207-19.3993 10.7861-19.3993 10.5533-19.3993 10.2427-19.089 9.77724-20.641 8.30289-22.1929 6.86725-23.7449 5.50939L-25.8788 3.76333C-25.7548 3.48199-25.6888 3.17842-25.6847 2.87094-25.661 2.65168-25.661 2.43063-25.6847 2.21137-25.66 2.12265-25.66 2.02871-25.6847 1.93983L-19.3993 1.93983C-18.6301 1.75995-17.9618 1.28663-17.537 0.62085-17.3013 0.282487-17.1059-0.0820175-16.9549-0.465637L-16.9549-22.5032ZM-57.1505-21.6886-70.7301-21.6886-70.7301-31.9703C-70.8541-32.3278-71.0842-32.639-71.3897-32.8627-71.6629-33.1285-72.0189-33.2927-72.3984-33.3282-73.1358-33.3282-73.5625-32.9402-73.6401-32.0867L-73.6401-21.6886-89.1596-21.6886C-89.5059-21.6928-89.8236-21.4963-89.9742-21.1842-90.1725-20.7875-90.266-20.3467-90.2459-19.9038-90.2693-19.4481-90.1758-18.9941-89.9742-18.5846-89.8407-18.2577-89.5117-18.0541-89.1596-18.0803L-73.6401-18.0803-73.6401-11.4459-85.5513-11.4459C-85.8504-11.2728-86.0931-11.0168-86.2496-10.7085-86.3808-10.3886-86.4466-10.0455-86.4437-9.6998-86.4349-9.31716-86.3695-8.93811-86.2496-8.57459-86.239-8.41954-86.239-8.264-86.2496-8.10911-84.9948-6.00166-83.9425-3.78032-83.1069-1.47435-82.6413-0.310425-81.9817 1.39675-81.1282 3.647L-88.888 3.647C-89.4092 4.07996-89.7201 4.71552-89.7414 5.3929-89.7276 5.95444-89.5376 6.49736-89.1983 6.94486L-88.888 7.25528-80.1582 7.25528-78.6839 13.3079C-78.3664 13.9227-77.7456 14.3219-77.0543 14.3554-76.6537 14.3723-76.2725 14.1818-76.0456 13.851-75.7839 13.4501-75.6866 12.964-75.7739 12.4931L-77.0156 7.25528-58.5474 7.25528C-58.1749 7.33648-57.7908 7.1829-57.5773 6.86725-57.1879 6.49785-56.9409 6.00362-56.879 5.4705-56.8695 5.04506-56.9487 4.62223-57.1118 4.22897-57.258 3.88832-57.5627 3.64161-57.9266 3.5694L-77.7915 3.5694-82.0593-7.60459-81.8265-7.91502-73.6401-7.91502-73.6401-1.28042C-73.6349-0.912649-73.481-0.562523-73.2132-0.310425-72.9762-0.106035-72.6726 0.00424792-72.3597 6.45748e-15-71.5694 0.0513018-70.8671-0.500438-70.7301-1.28042L-70.7301-7.91502-60.2932-7.91502C-59.9223-7.89394-59.5679-8.07121-59.3621-8.38065-59.1155-8.7463-58.9931-9.18155-59.0129-9.62219-58.9185-10.4149-59.3398-11.1797-60.0603-11.5233L-70.7301-11.5233-70.7301-18.1579-57.1505-18.1579C-56.7981-18.17-56.4826-18.3803-56.3359-18.7011-56.1376-19.0977-56.0439-19.5385-56.0642-19.9814-56.0485-20.4327-56.1278-20.8821-56.297-21.3005-56.4715-21.6038-56.8012-21.7837-57.1505-21.7662ZM-103.981-26.8875-103.981-20.5634C-104.059-20.2034-104.249-19.8776-104.524-19.6322L-104.951-19.3607-122.837-19.3607-123.302-19.9816-123.302-27.7412-123.07-28.0516-104.873-28.0516-104.136-27.7412-103.903-26.8101ZM-107.589-2.17281C-107.512-1.90666-107.512-1.62418-107.589-1.35819-107.647-1.20902-107.74-1.07603-107.861-0.969996L-118.026-0.969996-118.258-1.2417C-117.397-2.71932-116.28-4.03275-114.961-5.12152-114.377-5.59337-113.768-6.03384-113.137-6.44066L-107.55-2.2893ZM-101.032-29.3319C-101.211-30.1329-101.664-30.8463-102.312-31.3495L-103.244-31.7375-124.078-31.7375C-124.901-31.5957-125.591-31.0377-125.902-30.263-126.096-29.8751-126.215-29.4538-126.251-29.0216L-126.251-18.1579C-126.237-17.3697-125.789-16.6538-125.087-16.2955-124.768-16.1512-124.427-16.0597-124.078-16.024L-103.205-16.024C-102.473-16.0558-101.811-16.4679-101.459-17.1105-101.276-17.4467-101.121-17.797-100.993-18.1579L-100.993-29.4482ZM-95.9492-13.8124C-96.3631-12.9552-97.1515-12.3387-98.0833-12.1441-98.9272-11.9569-99.757-11.7105-100.566-11.4068L-109.296-8.07023C-107.861-6.86741-106.425-5.58699-104.989-4.19025-103.4-2.76915-102.496-0.735217-102.506 1.39675-102.498 1.5647-102.498 1.73299-102.506 1.90111-102.64 2.20255-102.872 2.44925-103.166 2.5994L-120.936 2.5994-129.665-3.45323C-129.994-3.57822-130.26-3.82966-130.403-4.15152-130.565-4.49005-130.645-4.86256-130.635-5.23801-130.655-5.64875-130.547-6.05557-130.325-6.40194-130.135-6.69946-129.774-6.84029-129.433-6.75109L-127.027-5.50955C-125.322-4.54135-123.688-3.45225-122.138-2.25042L-116.319-7.9539-118.258-8.76869C-119.772-9.35049-121.44-9.89389-123.302-10.4757-125.165-11.0578-127.182-11.4846-129.433-11.9113-130.037-12.2296-130.609-12.6065-131.14-13.0365-131.605-13.8477-131.426-14.8754-130.713-15.4809-130.394-15.7673-129.978-15.9201-129.549-15.9075-129.15-15.9268-128.759-15.7874-128.463-15.5196L-126.135-14.8988C-124.001-14.3557-122.255-13.7737-120.393-13.1916-117.793-12.3381-115.271-11.4068-112.904-10.3983-111.12-11.1742-109.645-11.7561-108.443-12.1829-105.183-13.4244-101.886-14.5496-98.5877-15.5196-98.3682-15.8385-98.0049-16.0276-97.6175-16.024-97.1012-16.0187-96.6214-15.7568-96.3372-15.3257-95.9734-14.8659-95.8185-14.275-95.9105-13.6959ZM-96.6864 3.68589-97.8894-1.16409C-98.1492-1.56846-98.6136-1.79328-99.092-1.74606-99.4905-1.76109-99.8795-1.62221-100.178-1.35819-100.488-1.13468-100.663-0.769527-100.644-0.388031L-100.644 0.0776062C-100.491 0.496843-100.361 0.924249-100.256 1.35786-99.9421 2.16431-99.7588 3.0157-99.7129 3.87982-99.6086 4.70767-100.092 5.49713-100.877 5.78093L-125.553 5.78093-126.523 4.88854-126.523 1.00872C-126.608 0.64307-126.83 0.323659-127.143 0.116328-127.424-0.126784-127.781-0.264025-128.152-0.271703-128.902-0.271703-129.329 0.155049-129.433 1.00872L-129.433 7.02246C-129.348 7.71667-128.966 8.33997-128.385 8.72964-128.107 8.90936-127.807 9.05281-127.493 9.15639L-114.844 9.15639-114.844 12.4544C-114.745 12.8243-114.527 13.1516-114.223 13.3855-113.92 13.6097-113.553 13.7319-113.176 13.7345-112.478 13.7345-112.051 13.3079-111.934 12.4544L-111.934 9.15639-99.0533 9.15639C-98.1184 8.89972-97.3661 8.20551-97.0357 7.29417-96.8676 6.81366-96.7379 6.32074-96.6477 5.81965L-96.6477 3.72461ZM-157.562 0.969996-157.562 7.60443-161.868 7.60443-162.373 0.969996ZM-138.356-30.4184-138.085-30.1078C-137.246-29.1621-137.332-27.7154-138.278-26.8764-138.304-26.8535-138.33-26.8317-138.356-26.8101L-152.712-26.8101-152.712-21.6886-141.072-21.6886C-140.73-21.7209-140.403-21.5348-140.257-21.2229-140.056-20.8137-139.963-20.3595-139.986-19.9038-139.966-19.4609-140.059-19.0201-140.257-18.6234-140.404-18.3027-140.72-18.0924-141.072-18.0803L-152.712-18.0803-152.712-15.3644C-152.864-14.6153-153.539-14.0884-154.303-14.1227-154.63-14.1003-154.952-14.2124-155.195-14.4333-155.441-14.6846-155.592-15.0139-155.622-15.3644L-155.622-18.0803-166.99-18.0803C-167.342-18.0541-167.671-18.2577-167.805-18.5846-168.006-18.9941-168.099-19.4481-168.076-19.9038-168.096-20.3467-168.003-20.7875-167.805-21.1842-167.654-21.4961-167.336-21.6928-166.99-21.6886L-155.583-21.6886-155.583-26.8488-170.132-26.8488C-170.831-26.8488-171.141-27.5084-171.141-28.4008-171.149-28.8301-171.056-29.2553-170.87-29.6423-170.746-30.0032-170.479-30.2975-170.132-30.4571ZM-150.461-2.67717-154.846-2.67717-154.846-12.6483C-155.005-12.965-155.246-13.2329-155.544-13.4244-155.733-13.5775-155.962-13.6719-156.204-13.6959-156.668-13.6541-157.085-13.3952-157.329-12.9977L-157.329-12.6483-157.329-2.67717-162.606-2.67717C-162.935-5.8136-163.76-8.87799-165.05-11.756-165.61-13.0032-166.258-14.2091-166.99-15.3642-167.257-15.6108-167.598-15.7609-167.96-15.791-168.328-15.7974-168.675-15.6237-168.891-15.3255-169.238-14.9453-169.419-14.4428-169.395-13.9288-169.394-13.5206-169.287-13.1195-169.085-12.7648-167.719-10.7271-166.648-8.50646-165.903-6.16912-165.551-5.02267-165.266-3.85678-165.05-2.67717L-169.667-2.67717C-170.188-2.24421-170.499-1.60865-170.52-0.931275-170.51-0.362544-170.305 0.185275-169.939 0.620686L-169.667 0.931111-164.817 0.931111-164.817 4.4229-164.817 7.56571-168.697 7.56571-169.163 8.18639C-169.44 8.55841-169.602 9.00363-169.628 9.46681-169.614 9.93245-169.451 10.3814-169.163 10.7472-169.035 10.9172-168.877 11.0619-168.697 11.174L-151.199 11.174C-150.874 11.1413-150.584 10.9534-150.423 10.6696-150.26 10.3311-150.18 9.95876-150.19 9.58331-150.072 8.76607-150.475 7.96191-151.199 7.56587L-154.846 7.56587-154.846 0.931111-150.461 0.931111C-150.109 0.919021-149.794 0.708749-149.647 0.388031-149.467-0.0150311-149.375-0.45126-149.375-0.89239-149.352-1.34806-149.445-1.8021-149.647-2.21153-149.801-2.51542-150.121-2.69857-150.461-2.67717M-145.612-7.52699-145.612 8.4581-145.844 8.80724C-146.151 9.21913-146.615 9.48577-147.125 9.54442-147.629 9.54442-148.095 9.15655-148.522 8.4581L-148.522-7.52699-148.289-8.10895-147.978-8.38065C-147.732-8.52868-147.451-8.6089-147.164-8.61347-146.879-8.63357-146.594-8.56593-146.349-8.41938-146.038-8.18198-145.786-7.87679-145.612-7.52699M-138.085-11.4068C-138.144-12.8312-138.937-14.123-140.18-14.8212-140.748-15.0715-141.349-15.2412-141.965-15.3255L-144.176-15.3255C-144.936-15.3124-145.687-15.1545-146.388-14.8599L-147.319-14.4331C-147.823-14.2287-148.178-13.7695-148.25-13.2305L-148.25-12.0277C-148.25-11.756-147.668-10.9024-147.164-10.9024-146.659-10.9622-146.172-11.1202-145.728-11.3681-145.325-11.6287-144.849-11.7512-144.37-11.7172L-142.896-11.7172C-142.183-11.5614-141.59-11.0697-141.305-10.3981-141.148-10.0503-141.031-9.68575-140.956-9.31177L-140.956 10.0877C-140.846 10.4631-140.614 10.791-140.296 11.0188-140.007 11.2426-139.653 11.3651-139.287 11.3679-138.589 11.3679-138.162 10.9412-138.046 10.0877L-138.046-11.3294ZM-177.349-28.9051C-177.053-29.1564-176.883-29.5255-176.884-29.9138-176.896-30.3715-177.092-30.8048-177.427-31.1167-177.703-31.4555-178.115-31.6545-178.552-31.6597-178.97-31.6651-179.351-31.421-179.522-31.0391-183.156-27.9641-186.285-24.3375-188.795-20.2918-191.368-16.0629-193.217-11.4338-194.265-6.59587L-194.498-6.59587C-195.008-9.86252-195.988-13.0383-197.408-16.024-198.747-18.7912-200.401-21.3948-202.335-23.7836-204.3-26.1033-206.385-28.3178-208.582-30.4184L-209.746-31.1554C-209.97-31.3668-210.255-31.5024-210.561-31.5434-210.929-31.5176-211.269-31.3336-211.492-31.0391-211.872-30.5968-212.079-30.0315-212.074-29.4482-212.074-28.8275-211.647-28.2068-210.832-27.4697-210.149-26.973-209.524-26.4003-208.97-25.7625-205.421-22.754-202.518-19.0585-200.434-14.8988-198.189-10.5878-196.793-5.88533-196.322-1.0476L-210.134-1.0476-211.104 0.193934-211.104 1.97871-210.134 2.90999-196.05 2.90999-196.05 11.6395C-196.117 12.2358-195.689 12.7737-195.093 12.841L-195.08 12.8424-193.877 12.8424C-193.494 12.8622-193.145 12.6242-193.024 12.2603-192.976 12.0562-192.976 11.8437-193.024 11.6395L-193.024 2.90982-178.668 2.90982C-178.009 2.90982-177.659 2.17265-177.659 1.12521-177.644 0.670191-177.737 0.217951-177.931-0.193934-178.078-0.550759-178.337-0.850237-178.668-1.0476L-192.674-1.0476C-191.895-4.18257-190.923-7.26639-189.765-10.2818-189.377-11.3681-188.795-12.7261-188.019-14.4333-187.176-16.2377-186.177-17.9645-185.031-19.5935-183.927-21.219-182.721-22.7741-181.423-24.2492-180.647-25.1804-179.289-26.6936-177.543-28.7886ZM-217.816-28.9051C-217.896-29.2425-218.104-29.5353-218.398-29.7197-218.526-29.7496-218.659-29.7496-218.786-29.7197L-251.571-29.7197-252.541-28.8274-252.541-27.0039-251.105-25.8012-246.488-25.8012-246.488 2.56068C-246.364 2.91816-246.134 3.22956-245.829 3.45307-245.54 3.67674-245.185 3.79944-244.82 3.80221-244.083 3.80221-243.656 3.37546-243.578 2.56068L-243.578-25.8012-234.344-25.8012-234.344 10.0877C-234.36 10.471-234.204 10.841-233.918 11.0964-233.62 11.3312-233.249 11.4545-232.87 11.4457-232.497 11.454-232.131 11.3455-231.822 11.1351-231.54 10.8637-231.397 10.4778-231.434 10.0877L-231.434 0.737177-220.493 0.737177C-220.137 0.590624-219.828 0.349146-219.601 0.0387214-219.485-0.121556-219.381-0.290166-219.29-0.465637L-219.29-2.2893C-219.378-2.64547-219.567-2.96881-219.834-3.22041L-220.26-3.49195-231.473-3.49195-231.473-25.8012-218.825-25.8012C-218.512-25.9821-218.246-26.2348-218.049-26.5385-217.973-26.6887-217.908-26.8442-217.855-27.004L-217.855-28.8275ZM-281.368-24.0942C-282.98-25.6881-284.69-27.1783-286.49-28.5558-288.223-29.8625-290.081-30.9933-292.038-31.9314-292.462-31.9229-292.854-31.705-293.086-31.3495-293.297-30.9984-293.404-30.595-293.396-30.1856L-293.396-29.4482C-293.402-29.3709-293.402-29.293-293.396-29.2154-292.597-28.505-291.755-27.8441-290.874-27.2367-288.158-25.4909-286.762-24.5208-286.568-24.3657L-283.425-21.9601C-283.26-21.8227-283.057-21.7412-282.843-21.7273-282.494-21.7273-282.183-21.9601-281.912-22.5032-281.64-22.9902-281.494-23.5367-281.485-24.0942ZM-260.495-19.5546C-260.147-19.5579-259.835-19.3396-259.719-19.0114-259.557-18.6315-259.477-18.2216-259.486-17.8087-259.468-17.4201-259.549-17.0332-259.719-16.6835-259.867-16.3927-260.168-16.212-260.495-16.2181L-291.34-16.2181-291.728-16.2181C-292.021-16.4025-292.23-16.6953-292.31-17.0327L-292.31-18.2353C-292.238-18.7745-291.883-19.2338-291.378-19.4383L-276.79-19.4383-276.79-28.2068C-276.836-28.5529-276.985-28.8772-277.217-29.1379-277.4-29.3-277.633-29.3958-277.877-29.4095-278.374-29.3749-278.855-29.2146-279.273-28.9438L-280.437-28.2068-280.825-28.2068C-281.64-28.2068-282.067-28.7886-282.067-29.875-282.07-30.3086-281.963-30.7357-281.756-31.1167-281.586-31.4779-281.279-31.7568-280.903-31.8926-280.609-32.0891-280.297-32.258-279.972-32.3969-279.272-32.7345-278.527-32.9697-277.76-33.0952L-276.286-33.0952C-275.88-32.9165-275.501-32.6812-275.161-32.3969-274.388-31.6191-273.932-30.5822-273.88-29.4869L-273.88-19.5158ZM-259.253-30.4184C-258.957-30.7156-258.802-31.1248-258.827-31.5434-258.84-31.9555-258.99-32.3512-259.253-32.6686-259.481-33.0086-259.854-33.2236-260.262-33.2506-260.414-33.2958-260.576-33.2958-260.728-33.2506L-266.392-28.0127C-266.841-27.4438-267.348-26.9236-267.905-26.4608-268.962-25.6666-269.649-24.4754-269.806-23.1628-269.535-22.4257-269.224-22.0377-268.837-22.0377L-267.867-22.0377-259.098-30.4958ZM-263.405-13.2305-287.926-13.2305C-288.236-13.0628-288.502-12.8235-288.701-12.532L-288.895-12.0277C-289.036-11.3598-288.815-10.6673-288.313-10.2042L-287.926-9.89373-263.405-9.89373C-263.089-9.8885-262.794-10.0509-262.629-10.3205-262.461-10.6713-262.381-11.0573-262.396-11.4457-262.386-11.8711-262.466-12.2941-262.629-12.6872-262.754-13.0084-263.06-13.2228-263.405-13.2305M-276.984 0.659571-278.769 2.0176C-280.019 3.00851-281.211 4.07065-282.338 5.19896L-278.032 5.19896C-278.026 5.28948-278.026 5.38015-278.032 5.4705-277.688 5.91555-277.497 6.4601-277.489 7.02246-277.51 7.69984-277.821 8.33556-278.342 8.76852L-282.338 8.76852-282.338 12.6483C-282.475 13.4283-283.178 13.9802-283.968 13.9288-284.281 13.933-284.585 13.8227-284.822 13.6183-285.082 13.3612-285.235 13.0142-285.248 12.6483L-285.248 8.76852-291.573 8.76852C-292.232 8.76852-292.581 8.10895-292.581 7.21656-292.564 6.77739-292.472 6.34443-292.31 5.93614-292.161 5.60006-291.901 5.32591-291.573 5.16008L-285.481 5.16008-293.241-2.59956C-293.389-2.94315-293.467-3.31207-293.474-3.68605-293.489-4.11983-293.351-4.54527-293.086-4.8887-292.874-5.24014-292.487-5.44845-292.077-5.43194L-291.805-5.43194-291.534-5.43194C-290.68-4.6946-290.021-4.03503-289.477-3.53067-287.887-1.97871-286.451-0.504522-285.21 0.89239L-285.21-6.86741C-285.21-7.72108-284.705-8.14784-283.968-8.14784-283.603-8.14506-283.248-8.02236-282.959-7.79853-282.632-7.58041-282.397-7.24875-282.3-6.86741L-282.3 0.892226C-281.104-0.630979-279.504-1.78723-277.683-2.44451-277.508-2.30989-277.352-2.15353-277.217-1.97871-276.904-1.5817-276.739-1.08763-276.751-0.582128-276.753-0.186255-276.818 0.207004-276.945 0.581965ZM-257.313-5.35418C-257.299-5.48325-257.299-5.6133-257.313-5.74221L-257.313-6.16912C-257.299-6.60944-257.451-7.03913-257.74-7.37177-257.976-7.69184-258.351-7.8794-258.749-7.87613-259.057-7.85571-259.353-7.74804-259.602-7.56587L-266.858 0.193934-266.858-6.75092C-266.836-7.1352-266.994-7.50787-267.285-7.7598-267.582-7.99458-267.953-8.1181-268.332-8.10895-268.707-8.13591-269.08-8.02563-269.38-7.79853-269.662-7.52715-269.806-7.14124-269.768-6.75092L-269.768 0.193934C-271.12-1.59117-272.585-3.28871-274.152-4.8887L-276.325-6.86741-276.635-6.86741-276.907-6.86741C-277.313-6.8684-277.693-6.66417-277.915-6.32433-278.163-5.97176-278.298-5.55236-278.303-5.12152-278.282-4.74558-278.19-4.37699-278.032-4.0352-275.926-2.11628-273.967-0.0411721-272.173 2.17265-271.514 2.98743-270.738 4.03487-269.768 5.31529L-275.044 5.31529C-275.381 5.46936-275.645 5.74727-275.781 6.09119-275.964 6.49311-276.057 6.93015-276.053 7.37161-276.053 8.264-275.743 8.80724-275.044 8.92357L-269.69 8.92357-269.69 12.2603C-269.25 12.9586-268.785 13.3079-268.293 13.3079-267.796 13.2723-267.34 13.0161-267.052 12.6095L-266.78 12.2603-266.78 8.92357-259.253 8.92357C-258.932 8.87717-258.655 8.67343-258.516 8.38049-258.317 8.06892-258.222 7.70213-258.244 7.33289-258.127 6.51582-258.529 5.71165-259.253 5.31529L-266.78 5.31529-258.632-3.56956C-258.134-3.79159-257.724-4.17407-257.469-4.65588-257.351-4.88217-257.247-5.11547-257.158-5.35418Z" fill-rule="evenodd" transform="matrix(1.00355 0 0 -1 429.643 567.854)"/></g></svg>