<svg width="328" height="327" xmlns="http://www.w3.org/2000/svg" xmlns:xlink="http://www.w3.org/1999/xlink" xml:space="preserve" overflow="hidden"><defs><clipPath id="clip0"><rect x="131" y="204" width="328" height="327"/></clipPath></defs><g clip-path="url(#clip0)" transform="translate(-131 -204)"><path d="M0 0C89.0042 0 161.157-72.1524 161.157-161.157 161.157-250.161 89.0042-322.313 0-322.313-89.0044-322.313-161.157-250.161-161.157-161.157-161.157-72.1524-89.0044 0 0 0" fill="#FFFFFF" transform="matrix(1.00393 0 0 -1 295.039 206.171)"/><path d="M0 0C-87.8051 0-158.985-71.1801-158.985-158.985-158.985-246.79-87.8051-317.97 0-317.97 87.8051-317.97 158.985-246.79 158.985-158.985 158.878-71.2243 87.7608-0.106817 0 0M0-322.313C-90.2037-322.335-163.346-249.228-163.367-159.024-163.388-68.8203-90.2813 4.3215-0.0775809 4.3429 90.1261 4.36429 163.268-68.7429 163.289-158.946L163.289-158.985C163.182-249.129 90.1443-322.185 0-322.313" fill="#FF0001" transform="matrix(1.00393 0 0 -1 295.039 208.343)"/><path d="M0 0C-65.5327 0-118.657-53.1246-118.657-118.657-118.657-184.19-65.5327-237.315 0-237.315 65.5325-237.315 118.657-184.19 118.657-118.657 118.529-53.1777 65.4794-0.128049 0 0M0 30.6725C82.494 30.6725 149.368-36.202 149.368-118.696 149.368-201.19 82.494-268.064 0-268.064-82.494-268.064-149.369-201.19-149.369-118.696L-149.369-118.657C-149.198-36.2404-82.4169 30.5233 0 30.6725" fill="#FF0001" fill-rule="evenodd" transform="matrix(1.00393 0 0 -1 295.039 248.671)"/><path d="M0 0C-65.4469 0.021396-118.519-53.0165-118.541-118.463-118.562-183.91-65.5243-236.983-0.0774176-237.004 65.3695-237.026 118.442-183.988 118.463-118.541L118.463-118.347C118.378-52.9569 65.3899 0.030869 0 0.11629ZM0-237.276C-65.6182-237.276-118.812-184.081-118.812-118.463-118.812-52.845-65.6181 0.349032 0 0.349032 65.573 0.349032 118.748-52.7743 118.812-118.347 118.748-183.939 65.5916-237.095 0-237.159ZM0 30.7113C-82.4084 30.7326-149.231-36.055-149.252-118.463-149.273-200.872-82.4856-267.694-0.0774176-267.715 82.3308-267.737 149.153-200.949 149.175-118.541L149.175-118.347C149.068-36.0044 82.3426 30.7209 0 30.8277ZM0-267.871C-19.9755-267.964-39.7624-264.006-58.1652-256.238-94.0277-240.972-122.558-212.373-137.735-176.473-153.487-139.296-153.487-97.3201-137.735-60.1428-105.576 15.8474-17.9026 51.3791 58.0877 19.2192 134.078-12.9405 169.61-100.614 137.45-176.604 122.315-212.367 93.8502-240.831 58.0877-255.966 39.7299-263.823 19.9685-267.873 0-267.871" fill="#FF0001" transform="matrix(1.00393 0 0 -1 295.039 248.981)"/><path d="M0 0 0 84.8051 28.7337 84.8051 29.4317 0 56.7694 31.448 56.7694-7.52273 16.4414-58.1265-25.9805-8.87999-25.9805 29.3929Z" fill-rule="evenodd" transform="matrix(1.00393 0 0 -1 241.122 380.667)"/><path d="M0 0 42.228-49.0528 82.4396 1.35726 82.4396 39.8625 55.0632 8.41451 55.0632 8.84112 54.404 93.4521 26.0193 93.4521 26.0193 8.41451 25.709 8.72466 0 37.8074ZM42.2669-49.5567-0.387741-0.11629-0.387741 38.6606-0.11629 38.3503 25.5927 9.26773 25.5927 93.8013 54.6367 93.8013 55.3346 9.42273 82.4784 40.8708 82.4784 1.2408Z" transform="matrix(1.00393 0 0 -1 215.195 389.508)"/><path d="M0 0 0-108.498-16.17-108.071-15.8208 0-30.5174-16.9068-30.5174 4.03274-8.80241 31.2154 13.9598 4.76967 13.9598-15.8209Z" fill="#FF0001" fill-rule="evenodd" transform="matrix(1.00393 0 0 -1 360.985 329.831)"/><path d="M0 0 15.8598-0.426613 15.8598 108.342 16.1313 108.032 29.8193 92.5215 29.8193 112.608 7.21241 138.899-14.3087 111.755-14.3087 91.2807 0.42645 108.342 0.42645 107.916ZM16.17-0.736937 16.17-0.736937-0.193871-0.31016 0.193871 107.296-14.5026 90.3888-14.5026 112.065 7.28999 139.209 30.0908 112.724 30.0908 91.6297 29.8193 91.9399 16.1313 107.451Z" fill="#FF0001" transform="matrix(1.00393 0 0 -1 344.907 437.747)"/><path d="M0 0C-0.243032 0.316693-0.610031 0.51432-1.00822 0.54274-1.50376 0.502071-1.95684 0.247279-2.24919-0.155162-2.58222-0.591575-2.89271-1.04465-3.17984-1.51242L-5.50645-5.38999C-7.36757-8.33709-9.15144-11.0127-10.8189-13.4556-10.8448-13.6226-10.8448-13.7927-10.8189-13.9598-10.8417-14.4274-10.6573-14.8813-10.3147-15.2005-9.9622-15.5118-9.50505-15.6779-9.03499-15.6659-8.65509-15.682-8.28254-15.5577-7.98806-15.3169-7.66744-15.0827-7.44613-14.7369-7.36757-14.3476L-5.50645-11.9434-5.50645-31.3317C-5.48636-32.0381-4.89723-32.5946-4.19084-32.5745-4.17695-32.574-4.16307-32.5735-4.14919-32.5727-3.75998-32.5703-3.38106-32.4484-3.06355-32.2237-2.71696-32.0265-2.45482-31.7094-2.32661-31.3317L-2.32661-7.17386C-2.05679-6.42435-1.67771-5.71877-1.2021-5.07983-0.401297-4.05413 0.11972-2.83832 0.31016-1.55113 0.326003-0.970496 0.234049-0.391824 0.0387088 0.154998ZM-0.814354 11.129C-1.419 9.35511-2.13143 7.61991-2.94709 5.93273-3.83903 4.11032-5.31241 1.51226-7.40644-1.82258-7.62596-2.21914-8.03918-2.46985-8.49225-2.48161-8.94924-2.47883-9.37896-2.26389-9.65547-1.90016-9.99013-1.54378-10.1711-1.07029-10.1597-0.581775-10.1686-0.160715-10.0316 0.250219-9.77176 0.581775-8.35277 2.91557-7.05839 5.32319-5.89419 7.79418-5.46774 8.64725-4.92467 9.77176-4.30435 11.129L-4.03274 12.0597C-3.64075 12.6935-2.95559 13.0873-2.21032 13.1066-1.80641 13.1314-1.41557 12.9578-1.16339 12.6411-0.891609 12.1871-0.795082 11.6492-0.891935 11.129ZM26.3295-3.95532 21.1721-3.95532 21.1721-27.2214C20.8193-28.9475 19.7661-30.4501 18.2638-31.3704 17.589-31.702 16.8711-31.9369 16.1311-32.0685L13.4942-32.0685 9.6166-31.1767C8.8243-30.9985 8.07397-30.6693 7.40628-30.2072 6.68372-29.7951 6.20647-29.0576 6.12677-28.2296 6.1498-27.7444 6.35804-27.2864 6.70822-26.95 7.11588-26.791 7.5505-26.7122 7.98789-26.7172 8.90367-26.8044 9.79642-27.0542 10.6248-27.4542 11.4086-27.8623 12.265-28.1127 13.1453-28.1909L15.1616-28.1909C16.0248-28.1952 16.8241-27.7362 17.2556-26.9887 17.4962-26.6178 17.6793-26.2124 17.7985-25.7867L17.7985-4.07161 2.67564-4.07161 2.13274-3.76145C1.83891-3.31083 1.67754-2.78687 1.66742-2.24919 1.66105-1.75659 1.82552-1.2769 2.13274-0.891935 2.28855-0.709824 2.47165-0.552866 2.67564-0.426613L26.1743-0.426613C26.547-0.43576 26.8868-0.642696 27.0663-0.969516 27.2778-1.36232 27.3846-1.80298 27.3764-2.24919 27.3895-2.70814 27.2827-3.16252 27.0663-3.56758 26.8892-3.89178 26.5434-4.08712 26.1743-4.07161ZM24.4682 7.21241 3.99386 7.21241C3.60612 7.50656 3.34333 7.93563 3.25709 8.41467 3.19993 8.81319 3.19993 9.21792 3.25709 9.6166L4.03257 10.8576 24.3519 10.8576C25.3464 10.1499 25.5792 8.76974 24.8715 7.77507 24.8081 7.68606 24.738 7.60146 24.6619 7.52273 24.5691 7.40922 24.4653 7.30534 24.3519 7.21241ZM-37.3422-21.1335C-37.3166-20.7979-37.3166-20.4608-37.3422-20.1253-37.575-19.4661-37.9627-19.1171-38.4667-19.1171-38.7356-19.0638-39.0121-19.0638-39.2811-19.1171L-43.8956-23.9642-43.8956-4.03274C-43.8832-3.32961-44.1161-2.64379-44.5546-2.09387-44.9866-1.60372-45.6074-1.32149-46.2607-1.31839L-51.9611-1.31839C-52.4971-1.29977-53.0118-1.52843-53.3572-1.93887-53.6642-2.324-53.8286-2.80353-53.8224-3.29613-53.8478-3.72617-53.6935-4.14788-53.3959-4.45951-53.1151-4.80936-52.6797-4.99817-52.2325-4.96354L-47.9282-4.96354-47.5017-5.19612C-47.2035-5.45059-46.9874-5.78802-46.8812-6.16564L-46.8812-26.9887C-46.8682-27.545-46.6627-28.0794-46.2998-28.5011-46.011-28.9324-45.5379-29.2049-45.0201-29.2379-44.7661-29.233-44.5264-29.1201-44.3608-28.9275-43.3527-27.8806-42.5772-27.0663-41.9954-26.4072-40.2504-24.5458-38.7769-22.8009-37.4974-21.2497ZM-42.2282 6.32064C-41.5453 5.95805-41.1363 5.23091-41.1811 4.45935-41.1597 3.98276-41.3113 3.51466-41.6077 3.1408-41.8337 2.78017-42.229 2.56082-42.6546 2.55919-42.8585 2.50986-43.0713 2.50986-43.2751 2.55919L-50.4101 9.77176C-50.7614 10.0019-50.9674 10.3988-50.9528 10.8187-50.9519 11.309-50.7399 11.7753-50.3712 12.0984-50.0424 12.4433-49.5565 12.5905-49.0916 12.4861-47.7371 11.7224-46.5185 10.7398-45.4853 9.57789-43.5851 7.52273-42.4995 6.39822-42.228 6.16548ZM-17.9539-29.9745-39.2035-29.9745C-39.5538-29.9278-39.8658-29.7292-40.0566-29.4316-40.237-29.1124-40.3308-28.7515-40.328-28.3846-40.4513-27.5358-39.9906-26.7095-39.2035-26.3684L-30.4787-26.3684-30.4787 11.439C-30.4378 11.8055-30.2737 12.1474-30.0134 12.4085-29.7329 12.6153-29.3924 12.7244-29.044 12.7187-28.2269 12.7788-27.4873 12.2364-27.299 11.439L-27.299 1.20193-19.5435 1.20193C-19.1984 1.14166-18.8914 0.946324-18.6906 0.659193-18.51 0.32584-18.4167-0.0475285-18.419-0.426613-18.3093-1.27298-18.7658-2.09174-19.5435-2.44306L-27.299-2.44306-27.299-26.3682-18.0701-26.3682C-17.7111-26.5158-17.4206-26.7925-17.2558-27.1438-17.0621-27.5433-16.9561-27.9798-16.9456-28.4234-16.9456-29.3153-17.3334-29.8584-18.0701-29.9745ZM-61.9267-21.7151-77.0109-21.7151-77.0109-31.9909C-77.1353-32.3591-77.3815-32.6738-77.7089-32.8829-78.0266-33.1076-78.4055-33.2294-78.7947-33.2319-79.477-33.2961-80.0823-32.7952-80.1464-32.1128-80.1502-32.0723-80.152-32.0316-80.1518-31.9909L-80.1518-21.7151-96.9423-21.7151C-97.3113-21.7307-97.6572-21.5353-97.8341-21.2109-98.0457-20.8181-98.1526-20.3775-98.1444-19.9313-98.149-19.4775-98.0564-19.0281-97.8729-18.613-97.6898-18.2756-97.325-18.0778-96.9423-18.1088L-80.0355-18.1088-80.0355-11.4779-92.987-11.4779C-93.306-11.3053-93.5737-11.0509-93.7626-10.7413-93.8285-10.4084-93.8285-10.0659-93.7626-9.73305-93.7605-9.34646-93.6815-8.96427-93.5299-8.60854-93.4967-8.44211-93.4309-8.28401-93.336-8.14305-91.9858-6.04902-90.843-3.82809-89.9236-1.51242-89.4583-0.349032-88.7217 1.35726-87.7909 3.60629L-96.3994 3.60629C-96.9433 4.02473-97.2708 4.66514-97.2913 5.35128-97.2873 5.92081-97.0811 6.47041-96.7096 6.90225L-96.3994 7.21241-86.8991 7.21241-85.3091 13.2616C-84.9171 13.8956-84.2318 14.2893-83.4867 14.3085-83.0663 14.3178-82.6651 14.1316-82.4009 13.8047-82.1227 13.4107-82.0242 12.9178-82.1294 12.4474L-83.4478 7.21241-63.4391 7.21241C-63.0313 7.33589-62.5906 7.17844-62.3533 6.82467-62.1057 6.43088-61.9839 5.97111-62.0043 5.50628-62.001 5.07314-62.1078 4.64603-62.3144 4.26548-62.4681 3.91481-62.7896 3.66639-63.1677 3.60629L-84.5336 3.60629-89.2257-7.60031-88.9542-7.91064-80.0355-7.91064-80.0355-1.27968C-80.0305-0.912188-79.8766-0.562176-79.6091-0.31016-79.3287-0.103387-78.988 0.00555316-78.6396-7.10816e-15-77.8226 0.0599414-77.0829-0.482308-76.8946-1.27968L-76.8946-7.91064-65.3778-7.91064C-64.9762-7.8979-64.5907-8.06923-64.3309-8.3758-64.0846-8.74149-63.9621-9.17643-63.9819-9.61676-63.9544-10.4873-64.5344-11.2607-65.3778-11.4779L-77.0109-11.4779-77.0109-18.1088-62.1981-18.1088C-61.8344-18.1154-61.5051-18.3249-61.3451-18.6518-61.1163-19.0379-61.0083-19.4834-61.0348-19.9313-61.0054-20.3749-61.0993-20.8178-61.3064-21.2109-61.4833-21.5353-61.8292-21.7307-62.1981-21.7151ZM-106.481-14.1924-125.366-14.1924-131.997-26.5622-116.137-25.3601-119.316-20.2416C-119.492-19.9293-119.611-19.5878-119.665-19.2334-119.667-18.6091-119.447-18.0045-119.045-17.5271-118.678-17.0854-118.092-16.8903-117.533-17.0232-116.007-18.5538-114.702-20.2896-113.655-22.1805-112.673-24.1193-111.665-26.0193-110.631-27.8806-110.165-28.5787-109.816-29.1216-109.583-29.548-109.195-30.0952-108.967-30.7397-108.924-31.4095-108.89-31.6538-108.89-31.9018-108.924-32.1461-109.105-32.5054-109.388-32.8023-109.739-32.9992L-111.29-32.9992C-112.123-32.0605-112.851-31.0333-113.461-29.9358-113.461-29.5867-113.926-29.0827-114.198-28.5011L-133.082-30.0522C-133.88-30.1002-134.671-29.882-135.331-29.4317-135.844-29.1002-136.151-28.5297-136.146-27.9193-136.134-27.5915-136.041-27.2717-135.874-26.9887L-128.739-14.3087-140.683-14.3087C-141.1-14.3464-141.487-14.0882-141.613-13.6884-141.651-13.4963-141.651-13.2987-141.613-13.1066-141.754-12.4536-141.598-11.7716-141.187-11.2455-141.008-11.0194-140.783-10.8344-140.527-10.7024L-106.481-10.7024C-105.939-10.9739-105.706-11.5943-105.706-12.4861-105.706-13.378-105.939-13.9985-106.481-14.3087ZM-113.073-5.4287-112.763-5.15725C-112.386-4.71088-112.168-4.15164-112.143-3.56758-112.178-2.87637-112.519-2.23678-113.073-1.82258L-135.409-1.82258C-135.658-1.96533-135.88-2.14875-136.068-2.36532-136.466-2.89793-136.608-3.5795-136.456-4.22677-136.485-4.43256-136.485-4.6413-136.456-4.84725-136.296-5.21491-135.926-5.44618-135.525-5.4287ZM-105.318-2.71435C-108.47-2.20999-111.429-0.871193-113.888 1.16322L-118.27 4.53677C-118.938 5.1615-119.572 5.82167-120.17 6.51451-121.152 7.76348-122.512 8.66113-124.047 9.07386-125.438 8.1246-126.736 7.04696-127.925 5.85532-129.028 4.7259-130.221 3.68844-131.492 2.75306L-135.37-0.193871C-136.675-1.22823-138.126-2.06447-139.674-2.67564L-140.295-2.67564C-140.786-2.68871-141.251-2.45597-141.536-2.05516-141.885-1.61597-142.064-1.06506-142.04-0.504194-142.041-0.0795408-141.962 0.341519-141.807 0.736773-139.685 1.91927-137.627 3.21365-135.642 4.61451-134.246 5.58386-132.733 6.66967-131.143 7.91047L-129.36 9.30644-126.49 11.7106C-125.87 12.3698-125.443 12.8739-125.172 13.2229-124.768 13.7367-124.188 14.0823-123.543 14.1924-123.166 14.1896-122.799 14.0675-122.496 13.8434-120.325 11.1605-117.824 8.76305-115.051 6.70838-113.021 5.14222-110.868 3.74169-108.614 2.52064-107.739 2.0109-106.832 1.5575-105.9 1.16339-105.469 0.962003-105.095 0.655273-104.814 0.271451-104.53-0.111063-104.367-0.570669-104.349-1.04693-104.35-1.68065-104.756-2.24282-105.357-2.4429Z" fill-rule="evenodd" transform="matrix(1.00393 0 0 -1 352.576 564.857)"/></g></svg>