<svg width="348" height="327" xmlns="http://www.w3.org/2000/svg" xmlns:xlink="http://www.w3.org/1999/xlink" xml:space="preserve" overflow="hidden"><defs><clipPath id="clip0"><rect x="186" y="730" width="348" height="327"/></clipPath></defs><g clip-path="url(#clip0)" transform="translate(-186 -730)"><path d="M0 0 151.776 280.212C157.173 290.331 153.345 302.91 143.225 308.307 140.244 309.897 136.919 310.736 133.54 310.75L-170.012 310.75C-181.48 310.726-190.758 301.409-190.734 289.94-190.727 286.546-189.888 283.206-188.291 280.212L-36.5153 0C-31.0509-10.0834-18.447-13.8279-8.36368-8.36351-4.82397-6.44547-1.91821-3.53971 0 0" fill="#FFFFFF" transform="matrix(1 0 0 -1.00045 378.549 1042.37)"/><path d="M0 0C-10.6978 0.0212188-19.3872-8.63379-19.4084-19.3315-19.4148-22.5752-18.6066-25.7688-17.0578-28.6188L134.718-308.83C139.809-318.239 151.563-321.739 160.972-316.648 164.282-314.857 166.999-312.141 168.79-308.83L170.012-309.485 168.877-308.83 320.566-28.6188C325.674-19.2194 322.195-7.45858 312.795-2.35076 309.958-0.808923 306.78-0.000869623 303.552-3.39847e-15ZM151.776-321.744C143.617-321.827 136.093-317.35 132.275-310.139L-19.5009-29.9277C-25.3076-19.1529-21.2802-5.71099-10.5054 0.0956585-7.277 1.8356-3.66737 2.74696 0 2.74836L303.552 2.74836C315.767 2.76001 325.679-7.13334 325.691-19.3491 325.695-23.044 324.772-26.6809 323.009-29.9277L171.233-310.139C167.422-317.336 159.919-321.811 151.776-321.744" fill="#FA0F0C" transform="matrix(1 0 0 -1.00045 208.538 732.749)"/><path d="M0 0-120.234-222.014C-120.94-223.303-122.557-223.776-123.846-223.07-124.292-222.826-124.658-222.459-124.902-222.014L-245.049 0C-245.723 1.30583-245.212 2.91115-243.906 3.5858-243.531 3.77955-243.115 3.8813-242.693 3.88269L-2.31215 3.88269C-0.866492 3.89417 0.314629 2.73166 0.325935 1.286 0.329587 0.836403 0.217232 0.393591 0 0M28.1826 34.3776-273.275 34.3776C-281.009 34.3456-287.253 28.05-287.221 20.316-287.212 18.0711-286.663 15.8614-285.621 13.8731L-134.892-264.55C-131.22-271.356-122.725-273.897-115.918-270.224-113.513-268.927-111.541-266.954-110.243-264.55L40.4851 13.8731C44.0754 20.7236 41.4325 29.1873 34.5819 32.7776 32.6068 33.8128 30.4126 34.3614 28.1826 34.3776" fill="#FA0F0C" transform="matrix(1 0 0 -1.00045 482.86 772.554)"/><path d="M0 0-2.05057 0C-2.56643-0.10505-2.93359-0.564037-2.92298-1.09068L-2.92298-7.54728C-2.92298-8.41969-2.57391-8.85606-1.87595-8.85606L-0.174446-8.85606C0.352893-8.90963 0.823707-8.52561 0.877275-7.99809 0.885102-7.9207 0.883537-7.84261 0.872579-7.76538L0.872579-1.30861C0.741614-0.436203 0.479858-0.218101 0-0.218101ZM-3.27187 3.88269 1.09068 3.88269C2.92298 3.88269 3.92635 2.48677 4.01366 0.218275L4.01366-8.507C4.01366-11.2119 2.87932-12.5643 0.916234-12.5643L-2.83567-12.5643C-5.14799-12.5643-6.19502-11.2119-6.10771-8.20158L-6.10771 0.523687C-6.0204 2.57408-5.10434 3.70824-3.27187 3.88269M-5.32244 11.3865 3.40283 11.3865C4.23176 11.3865 4.66796 10.5576 4.79893 9.24896 4.92972 7.94 4.23176 7.32935 3.40283 7.32935L-5.32244 7.32935C-6.45677 7.32935-7.06742 7.94-7.06742 9.24896-7.21387 10.2744-6.50113 11.2246-5.47549 11.3712-5.42471 11.3783-5.37357 11.3835-5.32244 11.3865M8.63796 25.1724 8.63796 20.2427 12.2589 20.2427C11.9041 20.6965 11.6107 21.1953 11.3865 21.726 11.3865 22.1623 10.9065 22.6858 10.6885 23.2528 10.1897 24.1588 10.4984 25.2968 11.3865 25.8267 12.1718 26.2631 12.9134 25.8267 13.6113 24.9543 15.3901 21.6127 16.9493 18.1589 18.2795 14.6149 18.6927 13.6326 18.4083 12.4953 17.5813 11.8229 16.6653 11.2557 15.9235 11.5611 15.3563 12.6953 14.7551 13.7075 14.286 14.7925 13.9604 15.9237L8.81241 15.9237C8.81241 12.0408 8.81241 8.55083 9.16148 5.36609 9.51054 2.18136 9.72864-0.872579 10.1648-4.31889 12.0342-1.294 13.5007 1.96169 14.5276 5.36609 14.9638 6.36946 15.749 6.50043 16.7524 5.8023 17.5667 5.1219 17.8488 3.99383 17.4504 3.01029 15.9049-1.55002 13.887-5.93657 11.43-10.0775 11.6815-13.2757 12.6828-16.3694 14.3529-19.1082 14.833-19.1082 15.2255-16.9705 15.5746-12.6514 15.5746-11.9537 15.5746-11.1682 15.9235-10.2956 15.9146-9.47645 16.5715-8.80528 17.3907-8.79641 17.469-8.79554 17.5474-8.80093 17.625-8.81241 18.5539-9.11295 19.1865-9.97388 19.1955-10.9501 18.5847-20.2862 17.1015-25.2158 14.833-25.7831 12.6516-25.3904 10.4703-21.4204 8.81241-13.9604 5.94839-17.8817 2.45477-21.3019-1.52688-24.0816-2.57391-24.6488-3.44649-24.0816-4.10097-22.9909-4.71109-22.1241-4.50291-20.9266-3.63607-20.3165-3.57519-20.2735-3.51188-20.2344-3.44649-20.1989 0.971716-17.1077 4.72501-13.1619 7.59094-8.59431 6.29989-0.469248 5.61463 7.74069 5.54054 15.9673L-6.89298 15.9673C-7.67825 15.9673-8.07079 15.4438-8.07079 14.4403L-8.07079-1.04703C-8.04175-8.41743-9.44949-15.7228-12.2154-22.5547-12.561-23.324-13.4649-23.6673-14.234-23.3217-14.3055-23.2895-14.3745-23.2518-14.4403-23.209-15.2854-22.9252-15.74-22.0098-15.456-21.1647-15.4195-21.056-15.3715-20.9518-15.3128-20.8532-12.908-14.5382-11.638-7.84765-11.5609-1.09068L-11.5609 15.7056C-11.7109 17.9561-10.0151 19.9051-7.76538 20.0683L5.32244 20.0683 5.32244 24.998C6.32581 27.3536 7.46015 27.3536 8.63796 25.1724M-18.2358 22.1623C-16.219 18.1-14.6114 13.8473-13.4369 9.46706-13.1202 8.38768-13.4411 7.22169-14.2658 6.45677-15.3128 6.0204-16.0108 6.45677-16.3599 7.7219-17.6457 11.9144-19.19 16.0231-20.9842 20.0246-21.6037 20.9064-21.4527 22.1143-20.6353 22.8166-19.719 23.3838-18.9338 23.1655-18.2358 22.1623M-13.0878-2.39929C-14.103-9.78134-16.2515-16.9623-19.4573-23.6889-20.1554-24.6924-20.9405-24.9105-21.8567-24.3433-22.6556-23.6311-22.8048-22.4382-22.2058-21.5513-19.2388-15.064-17.2679-8.1661-16.3599-1.09068-16.0981 0.34924-15.4436 0.916408-14.2658 0.654478-13.0878 0.392722-12.957-0.785269-13.0878-2.39929" transform="matrix(1 0 0 -1.00045 288.636 1120.72)"/><path d="M0 0-7.06742 0-7.06742-5.80212 0.174446-5.80212C1.00354-5.80212 1.39609-5.40975 1.39609-4.10079L1.39609-1.96309C1.39609-0.654478 0.916234 0 0 0M-18.4103-1.74498-18.4103-3.88269C-18.4103-5.32244-18.0175-5.97674-16.8834-5.80212L-10.1648-5.80212-10.1648 0-17.0578 0C-17.8967-0.0869623-18.5061-0.837447-18.419-1.67646-18.4165-1.69942-18.4137-1.72203-18.4103-1.74498M-7.06742 14.0042-7.06742 11.3865 5.01703 11.3865C5.8023 11.3865 6.28215 10.6012 6.36946 9.46706 6.45677 8.33255 5.8023 7.76538 5.01703 7.76538L-7.06742 7.76538-7.06742 3.88269 1.65785 3.88269C3.49014 3.88269 4.44986 2.48677 4.58082 0.218275L4.58082-6.2385C4.58082-8.98703 3.70824-10.2085 1.65785-9.90309L-7.06742-9.90309-7.06742-12.2589C-6.67157-12.1225-6.24163-12.1225-5.84595-12.2589-1.86099-14.7999 1.94343-17.6133 5.54054-20.6789 6.42547-21.5049 6.68827-22.8017 6.19502-23.9071 5.54054-25.0415 4.71162-25.2159 3.79556-24.3433 0.3962-21.3275-3.23604-18.5851-7.06742-16.1418L-7.06742-25.3904C-7.06742-26.8301-7.67807-27.5717-8.59431-27.5717-9.51054-27.5717-10.1648-26.8301-10.1648-25.3904L-10.1648-14.2656C-12.8795-17.8975-16.0626-21.1543-19.6317-23.9508-20.7661-24.8234-21.6823-24.7361-22.3803-23.7327-22.9913-22.5271-22.6187-21.0558-21.5077-20.2862-17.573-17.3483-14.0895-13.8503-11.1682-9.90309L-18.4103-9.90309C-20.5916-9.90309-21.6386-8.81241-21.5077-6.2385L-21.5077 0.218101C-21.5077 2.48677-20.5043 3.70824-18.4103 3.88269L-10.1648 3.88269-10.1648 7.54746-20.9842 7.54746C-21.9439 7.54746-22.4239 8.11445-22.5547 9.24879-22.6857 10.3831-21.9439 11.0374-20.9842 11.1684L-10.1648 11.1684-10.1648 14.0042C-10.2372 14.8685-9.59507 15.6278-8.73066 15.7002-8.68544 15.7038-8.63988 15.7057-8.59431 15.7056-7.67807 15.7929-7.15473 15.1384-7.06742 14.0042M-29.4477 13.5679C-27.2646 11.3214-25.3065 8.8665-23.6017 6.2385-23.0252 5.23965-23.0252 4.00913-23.6017 3.01029-24.0501 2.38294-24.922 2.23771-25.5493 2.68592-25.744 2.82506-25.8996 3.01185-26.0012 3.22839-27.7185 5.80073-29.6136 8.24976-31.6725 10.5576-32.4261 11.3359-32.4261 12.5714-31.6725 13.3498-31.0895 13.9679-30.1397 14.0609-29.4477 13.5679M-8.41986-29.0551 5.01703-29.0551C6.15136-29.0551 6.84932-29.7094 7.06742-31.0182 7.2857-32.327 6.32581-33.2432 5.19165-33.374L-7.89635-33.374C-11.6815-33.5951-15.4758-33.1521-19.1082-32.0653-21.8211-31.1108-24.2512-29.4908-26.1756-27.3536-27.7711-29.4332-29.7567-31.1821-32.0216-32.5015-33.0686-33.0686-33.9412-32.5015-34.5957-31.4546-35.25-30.4074-34.5957-29.2732-33.7668-28.837-30.3197-27.6688-28.1081-24.3066-28.4007-20.6789L-28.4007-8.20158C-28.27-7.36849-28.8395-6.58739-29.6726-6.4566-29.8293-6.4319-29.9889-6.4319-30.1458-6.4566L-32.8942-6.4566C-33.8102-6.4566-34.3339-5.75847-34.4211-4.31889-34.5084-2.87932-33.9412-2.31215-32.8942-2.13771L-27.9645-2.13771C-26.263-2.13771-25.3469-3.66459-25.2159-6.2385L-25.2159-19.5881C-24.5761-26.3357-18.9774-29.4912-8.41986-29.0551" transform="matrix(1 0 0 -1.00045 348.665 1111.03)"/><path d="M0 0 0-15.2692 9.9904-15.2692C11.0374-15.2692 11.6048-16.1418 11.6919-17.4069 11.7792-18.6718 11.0374-19.5881 9.9904-19.5881L-0.174446-19.5881-0.174446-43.059 12.3899-43.059C13.3061-43.059 13.8296-43.8443 13.9606-44.9786 14.0914-46.113 13.3061-46.9854 12.3899-47.1162L-14.3093-47.1162C-15.3128-47.1162-15.8364-46.2874-15.8364-44.9786-15.9611-44.0473-15.3069-43.1912-14.3754-43.0665-14.3535-43.0637-14.3314-43.0611-14.3093-43.059L-3.62093-43.059-3.62093 0.000173925C-3.74164 0.956237-3.0642 1.82934-2.10797 1.94987-2.04553 1.95769-1.98239 1.96222-1.91943 1.96326-0.911017 1.8716-0.147314 1.01224-0.174446 0.000173925ZM-21.8131-0.392548C-19.6216-2.41355-17.7271-4.73423-16.1854-7.28552-15.6191-8.20906-15.6191-9.37227-16.1854-10.2956-17.1015-11.1682-17.8431-11.1247-18.4539-10.2956-19.8824-8.21289-21.488-6.25694-23.2527-4.44986-23.4579-4.19402-23.6336-3.91609-23.7762-3.62093-24.5411-2.97794-24.7585-1.89108-24.2999-1.00337-24.0752-0.240712-23.2746 0.195491-22.5121-0.0292193-22.2808-0.0972238-22.0705-0.222102-21.9004-0.392548ZM-26.1756-15.4873-20.548-15.4873C-18.9338-15.4873-18.1485-16.5778-18.1485-18.7155L-18.1485-38.0856-18.1485-39.1763C-18.1485-39.1763-17.7994-39.1763-17.4505-38.5218-16.542-36.5602-15.741-34.5503-15.0511-32.5015-14.9613-31.6871-14.2289-31.0998-13.4145-31.1892-13.1897-31.2139-12.9736-31.2897-12.7824-31.4109-11.8663-32.0179-11.5171-33.1942-11.9537-34.2028-12.9367-37.4868-14.4074-40.6044-16.3162-43.4517-17.5813-44.7603-18.8028-45.1094-19.9371-44.5424-21.0715-43.9753-21.5077-42.6226-21.5077-40.4415L-21.5077-21.2896C-21.5077-20.2716-21.9004-19.7044-22.6857-19.5881L-26.1322-19.5881C-27.1792-19.5881-27.7025-18.9336-27.7025-17.625-27.7462-16.3599-27.2228-15.7927-26.1756-15.4873" transform="matrix(1 0 0 -1.00045 389.238 1096.41)"/><path d="M0 0 20.6789 0C21.8011-0.0927018 22.6491-1.05642 22.5984-2.18136 22.5984-3.57728 21.8567-4.31907 20.6789-4.31907L0-4.31907C-1.17782-4.31907-1.78864-3.57728-1.91961-2.18136-1.97039-1.05642-1.12234-0.0927018 0 0M-1.74498-12.6953 23.0782-12.6953C24.0818-12.6953 24.6053-13.5679 24.6053-14.8766 24.6053-16.1854 24.0816-17.0143 23.0782-17.0143L18.0614-17.0143 18.0614-39.831C18.7592-47.7418 13.8296-49.6758 3.27187-45.6331 2.12466-45.2659 1.4921-44.038 1.85925-42.8907 1.86464-42.8741 1.87021-42.8576 1.87595-42.8411 2.1911-41.8036 3.28752-41.218 4.32498-41.5334 4.36707-41.546 4.40881-41.5603 4.44986-41.576 11.6919-44.2808 15.0074-43.4954 14.4403-39.1765L14.4403-17.0143-1.91961-17.0143C-3.05394-17.0143-3.62093-16.3164-3.62093-14.8766-3.67311-13.767-2.84993-12.8097-1.74498-12.6953M-9.51054 0.872579C-8.89972 2.13771-8.1581 2.57391-7.24204 2.13771-6.25467 1.38253-5.89691 0.0589604-6.36946-1.09068-8.22072-5.35305-10.4242-9.45349-12.957-13.3498-13.8733-14.3529-14.702-14.4403-15.5309-13.3498-16.2583-12.3963-16.2583-11.0746-15.5309-10.1212-13.0783-6.71923-11.056-3.02646-9.51054 0.872579M-7.94-46.0695C-7.94-47.5091-8.63796-48.2943-9.64151-48.4689-10.6447-48.6434-11.3865-47.5091-11.3865-46.0695L-11.3865-25.434C-11.7048-25.8363-11.9963-26.259-12.2589-26.6993L-13.4369-28.4443C-14.3529-29.5786-15.2692-29.7094-16.2291-28.837-16.9443-27.8156-16.9443-26.4557-16.2291-25.434-13.4421-21.4713-11.1287-17.1959-9.33609-12.6953-8.76893-11.4301-7.98348-10.9066-7.06742-11.212-6.04544-11.9403-5.63498-13.2611-6.06405-14.4403-6.55887-15.7652-7.12691-17.0615-7.76538-18.3231L-8.11445-18.9338Z" transform="matrix(1 0 0 -1.00045 426.538 1097.67)"/><path d="M0 0C-0.214449-0.154097-0.380895-0.365937-0.479858-0.610823-5.06607 4.85945-10.1007 9.9377-15.5309 14.5712-12.4382 17.1178-9.52289 19.8726-6.80567 22.8166-5.88961 21.9004-4.97337 20.9842-4.01366 20.1554L7.5038 8.72527C6.8535 7.77599 6.13919 6.87245 5.36609 6.0204 1.78864 2.03596 0 0.0290454 0 0M2.61756-68.1442 55.7106-67.7516C58.6192-67.7516 61.5277-67.8824 64.4359-68.1442L64.4359-56.2343 37.4313-56.5397 37.4313-14.135 61.164-14.135 61.164-2.39946 37.4313-2.39946 37.7368 22.9474 25.7394 22.9474 26.0012-56.3215 4.1881-56.0161 16.4035-45.8949C15.4-39.5254 14.7893-35.0755 14.5276-32.458 10.2228-37.0115 5.45653-41.1052 0.305411-44.6732L0.567168-3.83904-26.4374-3.83904-26.4374-15.3563C-22.0749-15.3563-16.927-15.0511-11.2555-15.0511-11.2555-36.9224-11.4736-48.7451-11.91-50.5192-12.4633-51.9577-13.2438-53.2981-14.2222-54.4892-12.0845-58.8517-9.85943-63.6943-8.1581-68.4059-2.66122-62.6473 0.567168-59.6808 1.22147-58.8517 1.74168-58.4946 2.2111-58.0691 2.61756-57.5868L2.61756-68.1878Z" fill-rule="evenodd" transform="matrix(1 0 0 -1.00045 336.232 823.096)"/></g></svg>