<svg width="328" height="328" xmlns="http://www.w3.org/2000/svg" xmlns:xlink="http://www.w3.org/1999/xlink" xml:space="preserve" overflow="hidden"><defs><clipPath id="clip0"><rect x="245" y="354" width="328" height="328"/></clipPath></defs><g clip-path="url(#clip0)" transform="translate(-245 -354)"><path d="M0 0C34.152 82.4502 128.677 121.604 211.127 87.4517 293.577 53.2997 332.731-41.2252 298.579-123.675 264.427-206.126 169.902-245.279 87.4517-211.127 5.00148-176.975-34.152-82.4502 0 0" fill="#FFFFFF" transform="matrix(1.00048 0 0 -1 259.595 455.89)"/><path d="M0 0C-88.041 0-159.412-71.3712-159.412-159.412-159.412-247.453-88.041-318.825 0-318.825 88.041-318.825 159.412-247.453 159.412-159.412 159.284-71.4247 87.9877-0.1284 0 0M0-323.179C-90.4246-323.179-163.728-249.876-163.728-159.451-163.728-69.0267-90.4246 4.27697 0 4.27697 90.4246 4.27697 163.728-69.0267 163.728-159.451 163.621-249.832 90.3802-323.072 0-323.179" fill="#FF0001" transform="matrix(1.00048 0 0 -1 408.967 358.277)"/><path d="M0 0C-65.7087 0-118.976-53.2675-118.976-118.976-118.976-184.685-65.7087-237.952 0-237.952 65.7087-237.952 118.976-184.685 118.976-118.976 118.848-53.3208 65.6554-0.1284 0 0M0 30.7549C82.6943 30.7334 149.714-36.3208 149.692-119.015 149.671-201.709 82.6163-268.728-0.0777758-268.707-82.7568-268.686-149.77-201.655-149.77-118.976-149.599-36.3378-82.6384 30.6051 0 30.7549" fill="#FF0001" fill-rule="evenodd" transform="matrix(1.00048 0 0 -1 408.967 398.752)"/><path d="M0 0C-65.6228 0.021546-118.838-53.1589-118.859-118.782-118.881-184.404-65.7004-237.62-0.0776006-237.641 65.5451-237.662 118.76-184.482 118.782-118.859 118.782-118.807 118.782-118.756 118.782-118.704 118.696-53.1317 65.572 0.00963439 0 0.116664ZM0-237.952C-65.7947-237.952-119.132-184.615-119.132-118.82-119.132-53.0259-65.7945 0.311103 0.000175171 0.311103 65.7491 0.310928 119.067-52.955 119.132-118.704 119.067-184.472 65.768-237.771 0-237.835ZM0 30.7549C-82.6083 30.7549-149.576-36.2124-149.575-118.821-149.575-201.429-82.6081-268.396 0-268.396 82.6083-268.396 149.576-201.429 149.576-118.82L149.576-118.704C149.468-36.14 82.5638 30.7645 0 30.8716ZM0-268.629C-82.5434-268.389-149.263-201.279-149.023-118.735-148.782-36.192-81.6723 30.5277 0.871124 30.287 83.4147 30.0465 150.134-37.0632 149.894-119.607 149.719-179.626 113.657-233.719 58.3217-256.965 39.8636-264.736 20.0273-268.704 0-268.629" fill="#FF0001" transform="matrix(1.00048 0 0 -1 408.967 399.024)"/><path d="M0 0 21.1513-2.87718 197.866-166.139 197.866-181.497 182.508-181.497 5.79325-17.2631Z" fill="#FF0001" fill-rule="evenodd" transform="matrix(1.00048 0 0 -1 309.968 426.979)"/><path d="M0 0 15.1635 0 15.1635 15.1248-161.473 178.425-182.274 181.264-176.637 164.273ZM15.5524-0.310928 0-0.310928-176.831 164-182.702 181.536-182.43 181.536-161.24 178.659 15.5136 15.3581Z" fill="#FF0001" transform="matrix(1.00048 0 0 -1 492.523 608.321)"/><path d="M0 0C14.5027 12.7141 103.268 17.4964 119.793 0L126.558-25.3893C82.4751-19.2073 37.7453-19.2073-6.33768-25.3893ZM-11.6643 1.24424C-13.9972-15.9412-17.5353-30.5216-25.0783-35.615-29.2773-37.4035-32.6212-40.1251-30.0551-49.3791L-20.7236-96.0363-13.6472-96.0363-13.6472-115.866C-13.6472-124.769 2.7218-124.497 2.95496-115.866L2.95496-95.6863 119.948-96.1139 119.948-114.116C119.948-127.024 139-126.675 138.961-114.544L138.961-96.1139 146.271-96.1139 150.742-50.3898C153.397-41.3937 148.763-31.8559 140.05-28.3831L129.863 4.35457C128.152 9.99244 128.346 9.29263 122.825 11.5087 85.0719 26.4779 45.0632 27.8388 2.06071 12.9085-4.48069 12.1421-9.93831 7.55599-11.8198 1.24424ZM8.16506-42.7692C43.874-36.5464 80.3899-36.5464 116.099-42.7692 118.041-45.873 118.041-49.8133 116.099-52.9172L8.16506-52.9172C5.65381-50.0006 5.65381-45.6858 8.16506-42.7692M8.16506-60.9656 116.099-60.9656 116.099-71.1135 8.16506-71.1135ZM-13.6472-38.9589C-9.35254-38.9589-5.87102-42.4404-5.87102-46.735-5.87102-51.0297-9.35254-54.5112-13.6472-54.5112-17.9419-54.5112-21.4234-51.0297-21.4234-46.735-21.4234-42.4404-17.9419-38.9589-13.6472-38.9589M135.773-37.6757C140.067-37.6757 143.549-41.1572 143.549-45.4519 143.549-49.7466 140.067-53.2283 135.773-53.2283 131.478-53.2283 127.997-49.7466 127.997-45.4519 127.997-41.1572 131.478-37.6757 135.773-37.6757" fill-rule="evenodd" transform="matrix(1.00048 0 0 -1 348.751 467.571)"/><path d="M0 0-6.2599-25.1561C37.6953-19.013 82.2915-19.013 126.247-25.1561L119.52 0C110.889 9.09819 82.6223 11.6643 59.0215 11.2365 31.1827 10.6145 6.92082 5.98769 0 0M126.791-25.6615 126.558-25.6615C82.4881-19.4802 37.7712-19.4802-6.29879-25.6615L-6.53212-25.6615-6.53212-25.4283-0.19444 0C6.72638 6.02658 30.9105 10.7311 59.0604 11.3533 82.7388 11.8976 111.122 9.21486 119.831 0ZM8.16506-52.8783 115.788-52.8783C117.619-49.841 117.619-46.0398 115.788-43.0025 80.1375-36.8579 43.6986-36.8579 8.0484-43.0025 5.64453-45.7765 5.62806-49.8906 8.00951-52.6838ZM116.099-53.1894 7.81507-53.1894C5.19031-50.2414 5.19031-45.7947 7.81507-42.8469 43.5534-36.6632 80.0884-36.6632 115.827-42.8469 117.806-45.9963 117.806-50.0011 115.827-53.1505ZM135.539-37.9479C131.245-37.9479 127.763-41.4295 127.763-45.7241 127.763-50.0188 131.245-53.5003 135.539-53.5003 139.834-53.5003 143.316-50.0188 143.316-45.7241 143.423-41.4309 140.03-37.8633 135.736-37.756 135.67-37.7544 135.605-37.7535 135.539-37.7535ZM135.539-53.5003C131.118-53.6292 127.429-50.1493 127.3-45.7275 127.171-41.306 130.651-37.617 135.073-37.4881 139.494-37.3592 143.183-40.8393 143.312-45.261 143.314-45.3375 143.316-45.4142 143.316-45.4908 143.296-49.803 139.85-53.3174 135.539-53.4227ZM-13.8805-39.1144C-18.1752-39.1144-21.6567-42.5959-21.6567-46.8906-21.6567-51.1852-18.1752-54.6668-13.8805-54.6668-9.58587-54.6668-6.10435-51.1852-6.10435-46.8906-6.06143-42.5961-9.50792-39.0799-13.8024-39.037-13.8285-39.0368-13.8544-39.0366-13.8805-39.0366ZM-13.8805-54.6668C-18.1752-54.6654-21.6557-51.1828-21.6544-46.8881-21.653-42.5935-18.1703-39.113-13.8756-39.1144-9.65769-39.1156-6.2098-42.4794-6.10435-46.6961-6.10312-51.0234-9.55451-54.5613-13.8805-54.6668M8.08728-70.8802 115.71-70.8802 115.71-61.0433 8.08728-61.0433ZM116.021-71.1913 7.77618-71.1913 7.77618-60.7322 116.021-60.7322ZM2.60514-95.453 2.60514-95.453 119.754-95.8806 119.754-114.038C119.617-117.368 121.319-120.504 124.186-122.203 127.32-123.933 131.122-123.933 134.256-122.203 137.019-120.614 138.656-117.61 138.494-114.427L138.494-95.8806 145.804-95.8806 150.275-50.312C152.886-41.3822 148.294-31.9285 139.661-28.461L129.63 4.43235C128.113 9.33152 128.113 9.33152 124.303 10.8089L122.67 11.4309C84.0221 26.7502 43.4301 27.2168 2.13848 12.8696-4.37577 12.0989-9.7966 7.50502-11.6254 1.20535-13.7252-13.9583-16.9522-30.2107-25.1172-35.8872-29.0053-37.5202-32.6601-39.7753-30.0551-49.4567L-20.7236-96.1139-13.6085-96.1139-13.6085-116.06C-13.6085-120.376-9.72023-122.398-5.83214-122.475L-5.59881-122.475C-1.47757-122.475 2.68274-120.298 2.7994-116.06ZM129.318-123.797C127.523-123.798 125.758-123.343 124.186-122.475 121.218-120.729 119.465-117.478 119.637-114.038L119.637-96.1919 2.99384-95.7639 2.99384-116.06C2.99384-120.531-1.4385-122.786-5.71547-122.786L-6.06546-122.786C-9.95355-122.786-14.075-120.57-13.8416-116.06L-13.8416-96.3861-20.8791-96.3861-30.2107-49.7289C-32.8934-40.0087-29.0053-37.4813-25.1561-35.8095-17.1077-30.2107-13.8805-14.0361-11.8198 1.08869-9.89505 7.41831-4.39574 12.0011 2.17737 12.753 21.3016 19.579 41.4377 23.1408 61.7431 23.2898L64.5425 23.2898C84.5434 22.8573 104.302 18.8133 122.864 11.3533L124.497 10.7311C128.385 9.21468 128.385 9.17597 129.979 4.16031L140.011-28.461C148.749-31.9963 153.387-41.5761 150.742-50.6231L146.232-96.1528 138.922-96.1528 138.922-114.427C138.974-117.623 137.293-120.598 134.529-122.203 132.959-123.177 131.164-123.726 129.318-123.797" transform="matrix(1.00048 0 0 -1 348.984 467.649)"/><path d="M0 0C-0.30795 0.319862-0.72363 0.513951-1.16646 0.544256-1.72193 0.518856-2.24219 0.265734-2.60514-0.155552-2.60514-0.155552-3.1494-0.777583-3.69383-1.51628L-6.37657-5.40454C-8.55394-8.3595-10.6146-11.0422-12.5587-13.4918-12.585-13.6593-12.585-13.8297-12.5587-13.9972-12.5867-14.4928-12.3499-14.9662-11.9367-15.2414-11.5117-15.5606-10.9904-15.7253-10.4591-15.7079-10.0312-15.717-9.61039-15.5948-9.25375-15.3581-8.89692-15.1439-8.64398-14.7923-8.55394-14.3861L-6.37657-11.9754-6.37657-31.416C-6.29599-32.1847-5.60739-32.7426-4.83857-32.662-4.83279-32.6615-4.82718-32.6608-4.82123-32.6601-4.37034-32.6583-3.92785-32.5376-3.53827-32.3101-3.17952-32.1044-2.894-31.7917-2.7218-31.416L-2.7218-7.19304C-2.37689-6.43718-1.93231-5.73106-1.39979-5.09344-0.489252-4.10618 0.11824-2.87806 0.349816-1.55517 0.234203-0.960812-0.0187433-0.401667-0.388879 0.0776006ZM-0.933135 11.1589C-1.65536 9.36042-2.48637 7.60749-3.42161 5.90991-5.00077 3.22454-6.72708 0.628513-8.59283-1.86627-8.8738-2.27757-9.33888-2.52474-9.83689-2.52736-10.3507-2.52421-10.8415-2.31401-11.1978-1.94405-11.5695-1.60491-11.7813-1.12512-11.7811-0.622207-11.779-0.188133-11.6122 0.228773-11.3145 0.544256-9.75929 2.72163-8.24284 5.13233-6.72638 7.73729-6.22119 8.63154-5.59898 9.75911-4.89918 11.12L-4.5879 12.0532C-4.0743 12.713-3.28585 13.1001-2.44941 13.1029-1.99992 13.1245-1.56217 12.9551-1.24441 12.6365-0.939441 12.1938-0.827156 11.6466-0.933135 11.1198ZM30.1716-3.96587 24.1061-3.96587 24.1061-27.2944C23.6586-29.1058 22.4352-30.6279 20.7625-31.4547 19.9772-31.7863 19.1547-32.0212 18.3129-32.1547L15.1635-32.1547 10.5756-31.2603C9.68274-31.0867 8.82756-30.7577 8.04822-30.2883 7.03749-29.6662 6.57083-29.0442 6.57083-28.3053 6.59623-27.8026 6.83709-27.335 7.23175-27.0224 7.72083-26.9388 8.22041-26.9388 8.70932-27.0224 9.75158-27.0886 10.7762-27.3249 11.742-27.7222 12.6654-28.1314 13.6514-28.3812 14.6581-28.461L16.9909-28.461C17.9568-28.4898 18.8739-28.0382 19.4405-27.2557 19.7102-26.8892 19.9201-26.4825 20.0625-26.0503L20.0625-4.27697 2.68274-4.27697 2.09942-3.96587C1.74085-3.53985 1.53572-3.00593 1.51628-2.44941 1.51926-1.93581 1.72964-1.44516 2.09942-1.08869 2.09942-1.08869 2.4107-0.816471 2.68274-0.622207L29.8994-0.622207C30.3086-0.613623 30.6924-0.820325 30.9105-1.16646 31.1534-1.54921 31.2753-1.99625 31.2603-2.44941 31.2925-2.91151 31.1841-3.37221 30.9493-3.77143 30.7046-4.10355 30.3115-4.29273 29.8994-4.27697ZM28.0331 7.23193 4.23791 7.23193C3.7991 7.49889 3.48975 7.93489 3.38272 8.4371 3.32457 8.83684 3.32457 9.24289 3.38272 9.64245L4.31586 10.8867 27.8777 10.8867C28.8695 10.3286 29.2211 9.07209 28.6632 8.08028 28.5492 7.87795 28.402 7.6963 28.2277 7.54303L27.8777 7.23175ZM-38.0646-9.44819-46.6185-9.44819-46.6185-13.3363-38.0646-13.3363ZM-38.0646-5.75454-38.0646-1.86627-45.5299-1.86627-46.7741-3.07162-46.7741-5.79325ZM-25.5059-9.44819-34.5263-9.44819-34.5263-13.3363-25.5059-13.3363ZM-25.5059-5.75454-25.5059-3.03273-26.7113-1.82756-34.4876-1.82756-34.4876-5.71565ZM-20.918-31.7658C-20.0427-31.3917-19.578-30.4289-19.8293-29.5108-19.8251-29.1255-19.9332-28.7469-20.1406-28.4222-20.3822-28.1286-20.7332-27.946-21.1125-27.9166L-38.22-27.9166C-40.9887-27.9846-43.7557-27.7236-46.463-27.139-49.243-26.548-51.7309-25.0086-53.5005-22.7843L-53.8114-20.6458-53.8114-1.59423C-53.9596-1.22795-54.1418-0.876555-54.3558-0.544256-54.8901 0.132429-55.7099 0.520783-56.5719 0.505368L-61.782 0.505368C-61.9747 0.543205-62.1728 0.543205-62.3652 0.505368-62.7756 0.324416-63.0256-0.0975701-62.9874-0.544256L-62.9874-2.29404-62.7152-2.7994C-62.4592-3.09825-62.1406-3.33735-61.782-3.49939L-58.7104-3.49939C-58.5042-3.46786-58.2946-3.46786-58.0882-3.49939-57.6858-3.68927-57.4395-4.10495-57.4663-4.54918L-57.4663-21.7734C-57.6995-22.9398-58.8271-24.1452-60.9656-25.6615-63.104-27.1777-63.9205-28.1498-63.9205-29.5496-63.7147-30.3063-62.9893-30.801-62.2098-30.7162-61.5608-30.7004-60.9233-30.541-60.3433-30.2495-59.835-30.0118-59.3841-29.6669-59.0215-29.2386L-55.1334-25.8948C-53.1493-28.2768-50.4015-29.898-47.3572-30.4829-46.4628-30.716-43.469-31.066-38.3755-31.6492ZM-53.656 8.4371C-52.9638 8.03806-52.546 7.29183-52.5673 6.49305-52.553 6.01431-52.7357 5.55064-53.0727 5.20993-53.4824 4.83717-54.0505 4.6916-54.5892 4.82123L-61.0044 9.64245C-61.0959 9.89417-61.1609 10.155-61.1989 10.42-61.2182 10.549-61.2182 10.68-61.1989 10.8089-61.2213 11.1197-61.2213 11.4315-61.1989 11.742-61.2159 11.858-61.2159 11.9759-61.1989 12.0919-60.8238 12.1246-60.4464 12.1246-60.0713 12.0919-58.8439 11.9948-57.6888 11.4721-56.8053 10.6145-55.8919 9.75018-54.9031 8.96944-53.8503 8.28155ZM-21.8124-22.6676-22.4345-24.1841C-22.7034-24.7844-23.1516-25.287-23.7174-25.6226-24.3058-25.9249-24.9615-26.0722-25.6226-26.0503-26.4529-26.0311-27.2769-25.9004-28.0722-25.6615-28.8531-25.4376-29.6193-25.1649-30.3662-24.845-31.1827-24.845-31.5714-24.3007-31.5714-23.2508-31.594-22.851-31.4847-22.4548-31.2604-22.1234-30.8705-21.8265-30.3892-21.6749-29.8994-21.6956-29.2572-21.7284-28.6257-21.8732-28.0333-22.1234-27.5337-22.3271-27.0115-22.4706-26.4779-22.551-26.0968-22.552-25.7319-22.3975-25.4672-22.1234L-25.4672-16.991-34.5265-16.991-34.5265-24.7674C-34.5099-25.1782-34.7185-25.5656-35.0708-25.7781-35.4537-26.0211-35.9007-26.143-36.3539-26.1281-36.8144-26.1449-37.2711-26.0376-37.6757-25.817-38.0283-25.5861-38.2347-25.1883-38.22-24.7674L-38.22-16.991-46.7741-16.991-46.7741-24.2619C-47.046-24.8487-47.6077-25.2477-48.2513-25.3116-48.6791-25.2973-49.0839-25.1158-49.3791-24.8061L-49.8455-24.2619-49.8455-0.660919C-49.6725 0.123846-49.179 0.80053-48.4846 1.20535-48.1429 1.42607-47.7778 1.60859-47.396 1.74961L-36.665 1.74961-36.665 2.06071-40.9418 3.88809C-41.6931 4.02595-42.4078 4.31726-43.0414 4.74345-43.8579 5.24899-44.2854 5.75454-44.2854 6.33768-44.2664 6.79172-44.0542 7.21616-43.7023 7.50414-43.3196 7.7471-42.8723 7.86902-42.4192 7.85396-41.5608 7.77776-40.727 7.52656-39.9698 7.11526-39.2985 6.80521-38.6104 6.53264-37.9091 6.29879-37.4375 5.98033-36.884 5.80481-36.315 5.79325-35.4949 5.8253-34.7113 6.14149-34.0987 6.68767L-31.7658 8.39821-48.6013 8.39821C-49.3402 8.70949-49.7291 9.09819-49.7678 9.60356-49.8067 10.1091-49.7678 10.5367-49.7678 10.848-49.6049 11.2165-49.3507 11.5378-49.0291 11.7809L-48.5237 12.0532-26.4781 12.0532C-25.7415 11.8161-25.1272 11.2996-24.7674 10.6146-24.5828 10.2969-24.4389 9.95723-24.3396 9.60356-26.2837 8.12617-28.2277 6.68767-30.2107 5.32659L-32.9323 3.57716C-32.7498 3.31511-32.6545 3.00208-32.6601 2.68274-32.6161 2.46465-32.6161 2.23991-32.6601 2.02182L-32.6601 1.74961-24.8841 1.74961C-23.974 1.59966-23.1474 1.13108-22.551 0.427592-22.2551 0.101249-22.0064-0.265384-21.8124-0.660919L-21.8124-22.7454ZM-72.3576-21.7345-89.5042-21.7345-89.5042-32.038C-89.6764-32.4139-89.9619-32.7266-90.3207-32.9323-90.7117-33.1563-91.1533-33.2768-91.6038-33.2823-92.3689-33.3935-93.0791-32.8636-93.1905-32.0986-93.1935-32.0785-93.1959-32.0583-93.198-32.038L-93.198-21.7345-112.638-21.7345C-113.043-21.7679-113.433-21.573-113.649-21.2289-113.921-20.8579-114.058-20.4055-114.038-19.946-114.059-19.48-113.937-19.0188-113.688-18.624-113.459-18.2738-113.055-18.0792-112.638-18.1186L-93.198-18.1186-93.198-11.47-108.167-11.47C-108.532-11.3183-108.844-11.0612-109.061-10.7313-109.224-10.4195-109.304-10.0716-109.295-9.72023-109.293-9.33257-109.213-8.94947-109.061-8.59283L-108.789-8.12617C-107.262-6.05355-105.959-3.82485-104.901-1.47757L-102.413 3.65476-112.172 3.65476C-113.152 4.19079-113.511 5.41926-112.975 6.39881-112.859 6.61147-112.705 6.80136-112.522 6.95953L-112.172 7.27081-101.13 7.27081-99.3024 13.3363C-98.8047 13.9947-98.028 14.3829-97.2026 14.3859-96.7339 14.409-96.2786 14.2239-95.9585 13.8805-95.6336 13.5076-95.5168 12.9966-95.6474 12.5198L-97.1639 7.27081-73.8352 7.27081C-73.381 7.36873-72.9085 7.22124-72.5909 6.88193-72.3135 6.49901-72.1763 6.03236-72.2022 5.55992-72.1989 5.12567-72.3059 4.69738-72.5132 4.31586-72.7239 3.94537-73.1005 3.69926-73.5243 3.65476L-98.3692 3.65476-103.774-7.54303-103.501-7.85396-93.198-7.85396-93.198-1.20535C-93.1588-0.819974-92.9617-0.468056-92.6536-0.233327-92.3287-0.0259253-91.9503 0.0821551-91.5649 0.0777758-90.6626 0.18428-89.8069-0.34859-89.5042-1.20535L-89.5042-7.85396-76.3625-7.85396C-75.912-7.82733-75.4723-7.99742-75.1572-8.32061-74.8506-8.65939-74.696-9.10905-74.7294-9.56485-74.6592-10.4339-75.2127-11.2316-76.0514-11.47L-89.5042-11.47-89.5042-18.1186-72.3576-18.1186C-71.9484-18.1102-71.565-18.3166-71.3469-18.6629-71.1037-19.0458-70.9818-19.4928-70.9969-19.946-70.9837-20.4062-71.091-20.862-71.3078-21.2678-71.5609-21.5854-71.9526-21.7595-72.3576-21.7345M-136.706 0.46648C-136.691-4.21741-137.213-8.88764-138.261-13.4529-138.886-16.2833-139.825-19.0351-141.06-21.6569-141.41-22.6226-141.909-23.5275-142.538-24.3396L-148.137-10.0702-148.409-10.0702-149.109-10.0702C-149.562-10.0571-150.004-10.209-150.353-10.498-150.747-10.914-150.932-11.4851-150.858-12.0532L-147.826-20.8014-157.818-22.0067-151.481-4.47123-142.927-4.47123C-142.197-4.45267-141.62-3.84605-141.639-3.11611-141.64-3.08826-141.641-3.06058-141.644-3.03256-141.652-2.63142-141.774-2.24078-141.994-1.90516-142.209-1.55744-142.539-1.29591-142.927-1.16646L-162.367-1.16646-163.262-1.43868C-163.496-1.90936-163.616-2.42892-163.612-2.95496-163.626-3.34156-163.517-3.72273-163.3-4.04364-163.072-4.32286-162.728-4.48052-162.367-4.47123L-155.019-4.47123-161.318-22.0067C-161.335-22.2397-161.335-22.4735-161.318-22.7065-161.335-22.9265-161.335-23.1476-161.318-23.3674-161.327-24.0397-161.06-24.6866-160.579-25.1559-159.913-25.6257-159.086-25.8079-158.285-25.6615L-146.621-24.1452C-146.457-24.694-146.193-25.2079-145.843-25.6615-145.621-26.0635-145.212-26.3266-144.754-26.3613-144.411-26.3445-144.089-26.1903-143.86-25.9337L-147.243-30.7938C-146.997-31.2529-146.651-31.6514-146.232-31.9603-145.875-32.1971-145.454-32.3192-145.026-32.3101-144.067-32.2416-143.18-31.7765-142.577-31.0271-141.802-30.2884-141.204-29.3849-140.827-28.3831-140.555-28.3831-139.855-27.4111-138.767-25.5448-137.144-22.6219-135.915-19.4972-135.112-16.2522-133.728-10.7236-133.074-5.03739-133.168 0.660919L-127.958 0.660919-127.452 0.427592C-127.128 0.180076-126.884-0.158004-126.752-0.544256L-126.752-4.82105C-126.764-8.52679-127.011-12.228-127.491-15.9022-127.912-19.4939-128.574-23.0532-129.474-26.5557L-131.029-27.7609-133.168-27.7609-134.801-27.2944C-135.241-27.2569-135.683-27.2569-136.123-27.2944-136.707-27.2832-137.28-27.4605-137.756-27.7998-138.205-28.2186-138.434-28.8215-138.378-29.4327-137.66-30.3429-136.639-30.9641-135.501-31.1825-134.801-31.1825-133.712-31.5712-132.234-31.8434L-129.785-31.8434C-127.757-31.4248-126.118-29.9346-125.508-27.9553-124.985-26.0253-124.582-24.0646-124.303-22.0843-124.303-22.0843-124.108-20.6845-123.797-17.924-123.486-15.1635-123.253-12.2474-123.059-9.25357-122.864-6.25955-122.747-2.91589-122.747 0.894422-122.871 1.42449-123.067 1.93476-123.331 2.41088-123.895 3.4118-124.983 4.0009-126.13 3.92715L-132.857 3.92715-132.857 12.092C-133.419 12.8071-134.28 13.2229-135.19 13.2198-135.934 13.2851-136.62 12.8116-136.823 12.092L-136.823 3.92715-141.722 3.92715C-142.135 3.95028-142.532 3.75934-142.771 3.42161-143.012 3.0816-143.135 2.67188-143.121 2.25532-143.125 1.84017-143.003 1.4336-142.771 1.08886-142.532 0.751132-142.135 0.560196-141.722 0.583319ZM-160.268 6.22101-161.512 7.42636C-161.661 8.08711-161.488 8.77956-161.045 9.29263-160.826 9.52544-160.562 9.71077-160.268 9.83689L-145.415 9.83689C-144.974 9.87438-144.542 9.70148-144.249 9.37023-144.042 9.04547-143.933 8.6671-143.938 8.28155-143.836 7.38958-144.37 6.54718-145.221 6.25973ZM-199.149-9.33152-200.937-6.68767C-202.286-4.76797-203.739-2.92483-205.292-1.16646L-205.292 0.660919-200.393 0.660919C-200.257 0.72363-200.137 0.816646-200.043 0.933135-199.599 1.24722-199.326 1.75013-199.304 2.29404-199.34 2.59393-199.432 2.88419-199.577 3.1494-199.786 3.4887-200.064 3.78001-200.393 4.00475L-205.292 4.00475-205.292 12.4419C-205.351 13.2128-206.024 13.7894-206.795 13.7301-206.813 13.7287-206.83 13.7269-206.847 13.7252-207.299 13.7288-207.743 13.608-208.13 13.3752-208.517 13.1869-208.812 12.8504-208.947 12.4419L-208.947 4.00475-214.235 4.00475-214.585 3.69365C-215.015 3.31721-215.281 2.78662-215.323 2.21626-215.263 1.54115-214.849 0.9489-214.235 0.660919L-209.336 0.660919-210.308-1.78849C-211.046-3.73254-211.941-5.67658-212.913-7.85396-214.274-10.8089-215.518-13.2972-216.801-15.3581-216.992-15.7871-217.098-16.2494-217.112-16.7188-217.127-17.172-217.005-17.619-216.762-18.0019-216.501-18.3349-216.096-18.5227-215.673-18.5073L-214.973-18.5073C-213.002-16.8104-211.558-14.5842-210.813-12.0919-210.331-10.676-209.773-9.28738-209.141-7.93156L-209.141-31.2603C-208.828-32.0862-207.998-32.5972-207.119-32.5045-206.733-32.5187-206.352-32.4099-206.031-32.1934-205.708-31.9902-205.504-31.6418-205.487-31.2603L-205.487-7.03749C-204.981-7.85396-204.514-8.51488-204.165-9.02024-203.141-10.4619-201.939-11.7683-200.588-12.9083-200.133-12.9273-199.698-12.7242-199.421-12.3641-199.165-11.9423-199.031-11.4579-199.032-10.9645-199.029-10.4927-199.135-10.0268-199.343-9.60356ZM-172.243-27.7611C-172.603-28.8872-173.364-29.8419-174.382-30.444-174.868-30.7052-175.375-30.9264-175.898-31.1047L-181.108-31.1047C-182.348-30.9646-183.474-30.317-184.219-29.3162-184.571-28.838-184.859-28.3151-185.074-27.7611L-185.074 5.79325-186.318 6.9986-192.422 6.9986C-192.813 6.8758-193.154 6.63056-193.394 6.29879-193.503 6.14044-193.594 5.97105-193.667 5.79325L-193.667-10.0702C-193.691-13.0516-194.096-16.0174-194.872-18.8962-195.144-19.946-195.572-21.2289-196.116-22.7843-196.651-24.3398-197.315-25.8485-198.099-27.2944-198.623-28.2016-199.293-29.0162-200.082-29.7051-200.334-30.0393-200.715-30.2513-201.132-30.2884-201.625-30.2713-202.078-30.0087-202.337-29.5884-202.702-29.1693-202.897-28.628-202.881-28.0722-202.903-27.6786-202.779-27.2906-202.532-26.9835-201.005-24.564-199.814-21.9478-198.993-19.2073-198.367-17.0937-197.899-14.9363-197.594-12.7531-197.594-11.8976-197.594-11.0034-197.321-10.148L-197.321 8.32044C-197.084 9.05703-196.568 9.67135-195.883 10.0313L-194.872 10.42-183.869 10.42C-183.111 10.2806-182.432 9.86492-181.963 9.25357-181.746 8.96542-181.563 8.65221-181.419 8.32044L-181.419-25.8559C-181.263-26.3791-180.968-26.8496-180.564-27.2168-180.356-27.4077-180.12-27.565-179.864-27.6833L-177.453-27.6833C-176.948-27.4394-176.518-27.0632-176.209-26.5946-176.084-26.3578-175.98-26.1106-175.898-25.8559L-175.898-21.3456C-175.874-20.9557-175.674-20.598-175.354-20.3738-175.033-20.1572-174.652-20.0485-174.265-20.0627-173.373-19.9604-172.531-20.495-172.243-21.3456L-172.243-27.6833ZM-223.838-28.9664C-223.963-29.3281-224.23-29.623-224.577-29.7829L-225.083-29.7829-266.374-29.7829-267.618-28.8886-267.618-27.0611-265.752-25.8559-259.959-25.8559-259.959 2.56608C-259.787 2.94217-259.501 3.25485-259.142 3.4605-258.753 3.68787-258.31 3.80839-257.859 3.81031-257.077 3.90193-256.366 3.34734-256.265 2.56608L-256.265-25.8559-244.601-25.8559-244.601 10.1091C-244.626 10.5123-244.433 10.8979-244.095 11.12-243.696 11.3579-243.238 11.4789-242.773 11.47-242.313 11.4831-241.858 11.3758-241.452 11.1589-241.108 10.9242-240.915 10.5241-240.946 10.1091L-240.946 0.738695-227.182 0.738695C-226.75 0.611871-226.36 0.369961-226.055 0.0388879L-225.627-0.46648-225.627-2.29404C-225.79-2.66277-226.044-2.98386-226.366-3.22717L-226.871-3.49939-240.985-3.49939-240.985-25.8559-225.083-25.8559C-224.697-26.0081-224.36-26.2639-224.111-26.5946-224-26.7379-223.909-26.8947-223.838-27.0613L-223.838-28.8886ZM-303.933-24.1452C-305.983-25.7767-308.14-27.2706-310.388-28.6164-312.617-29.9468-314.959-31.0788-317.386-31.9991-317.888-31.9946-318.366-31.7837-318.708-31.416-318.949-31.0758-319.072-30.6661-319.058-30.2495-319.081-30.0038-319.081-29.7564-319.058-29.5108-319.074-29.4338-319.074-29.3544-319.058-29.2775-318.047-28.5567-316.995-27.8947-315.909-27.2944-312.487-25.5448-310.699-24.5728-310.504-24.4174L-306.616-22.0067C-306.393-21.8694-306.139-21.7893-305.877-21.7734-305.371-21.8142-304.918-22.106-304.672-22.551-304.343-23.0173-304.166-23.5743-304.167-24.1452ZM-277.611-19.596C-277.209-19.6156-276.832-19.4042-276.639-19.0517-276.472-18.6734-276.405-18.2582-276.445-17.8464-276.43-17.4477-276.539-17.0538-276.755-16.7188-276.979-16.4084-277.345-16.2327-277.727-16.2522L-316.609-16.2522-317.114-16.2522C-317.461-16.4121-317.728-16.7071-317.853-17.0686L-317.853-18.274C-317.853-18.7795-317.464-19.1684-316.686-19.4793L-298.334-19.4793-298.334-28.2664C-298.415-28.972-299.025-29.4968-299.734-29.4718-300.331-29.4397-300.914-29.2807-301.445-29.0053L-302.922-28.2664-303.428-28.2664C-304.478-28.2664-304.983-28.8498-304.983-29.9384-304.998-30.3851-304.86-30.8236-304.594-31.1827-304.355-31.5649-303.98-31.8425-303.544-31.9601L-302.378-32.4656C-301.473-32.7988-300.534-33.0335-299.579-33.1654L-297.712-33.1654C-297.213-33.0051-296.741-32.769-296.313-32.4656-295.357-31.7891-294.757-30.7178-294.68-29.5496L-294.68-19.5571ZM-276.056-30.4829C-275.696-30.7435-275.492-31.1669-275.511-31.6103-275.536-32.0436-275.732-32.4493-276.056-32.738-276.385-33.0997-276.849-33.3105-277.339-33.3212-277.531-33.366-277.73-33.366-277.922-33.3212L-285.27-28.1888C-285.83-27.5994-286.456-27.0774-287.137-26.6335-288.731-25.4672-289.547-24.3785-289.547-23.3287-289.547-22.2789-288.809-22.2011-288.303-22.2011L-287.098-22.2011-276.056-30.6771ZM-281.266-13.2583-312.37-13.2583C-312.747-13.1079-313.08-12.8675-313.343-12.5585L-313.615-12.0532C-313.757-11.3511-313.466-10.632-312.876-10.2258L-312.37-9.91484-281.266-9.91484C-280.905-9.90538-280.561-10.0632-280.333-10.3424-280.092-10.6677-279.968-11.0654-279.983-11.47-279.973-11.9102-280.095-12.3434-280.333-12.7141-280.525-13.0479-280.88-13.255-281.266-13.2583M-298.412 0.660919-300.667 2.02182C-302.212 3.00646-303.704 4.07062-305.139 5.20993L-299.773 5.20993-299.423 5.52121C-298.992 5.92533-298.74 6.48517-298.723 7.0762-298.774 7.79352-299.164 8.44341-299.773 8.82598L-305.139 8.82598-305.139 12.7141C-305.441 13.5708-306.297 14.1037-307.199 13.9972-307.585 14.0016-307.963 13.8933-308.288 13.6861-308.586 13.443-308.781 13.0954-308.832 12.7141L-308.832 8.82598-316.609 8.82598C-317.379 8.7666-317.956 8.09359-317.897 7.32301-317.895 7.3055-317.894 7.28798-317.892 7.27081-317.886 6.82027-317.766 6.37849-317.542 5.98769-317.342 5.61808-317.008 5.33956-316.609 5.20993L-308.832 5.20993-318.63-2.56608C-318.836-2.89207-318.944-3.26974-318.941-3.65476-318.945-4.10145-318.779-4.53272-318.475-4.86011-318.165-5.22254-317.707-5.42329-317.231-5.40454L-316.842-5.40454-316.492-5.40454-313.887-3.49939C-311.904-1.94405-309.999-0.466655-308.56 0.933135L-308.56-6.84305C-308.479-7.63342-307.773-8.20868-306.983-8.12792-306.977-8.1274-306.972-8.12687-306.966-8.12617-306.516-8.12074-306.074-8.0004-305.683-7.77636-305.314-7.5651-305.027-7.23665-304.866-6.84305L-304.866 0.933135C-304.352 0.444934-303.807-0.00963439-303.234-0.427592-301.957-1.29784-300.553-1.96682-299.073-2.4107-298.762-2.4107-298.529-2.0996-298.451-1.94422-298.071-1.57829-297.86-1.07152-297.868-0.544256-297.875-0.140662-297.967 0.257151-298.14 0.622031ZM-273.606-5.36566C-273.591-5.49476-273.591-5.62526-273.606-5.75454L-273.606-6.18213C-273.581-6.64843-273.784-7.09792-274.15-7.38748-274.479-7.71855-274.928-7.9009-275.395-7.89284-275.764-7.8755-276.125-7.76882-276.445-7.58174L-285.62 0.194264-285.62-6.76527C-285.604-7.1764-285.812-7.56387-286.165-7.77636-286.562-8.01792-287.022-8.13966-287.487-8.12617-287.949-8.15823-288.409-8.0498-288.809-7.81507-289.141-7.57053-289.33-7.17745-289.314-6.76527L-289.314 0.194264C-291.033-1.59405-292.879-3.2573-294.835-4.78234-295.535-5.28788-296.429-5.98769-297.557-6.76527L-297.946-6.76527-298.218-6.76527C-298.692-6.77315-299.146-6.57433-299.462-6.22101-299.766-5.89362-299.933-5.46235-299.929-5.01566-299.931-4.63064-299.823-4.2528-299.618-3.92698-297.008-2.03443-294.539 0.0446685-292.23 2.29404-291.414 3.11051-290.403 4.16031-289.236 5.44326L-295.885 5.44326C-296.277 5.58585-296.607 5.86086-296.818 6.22101-297.042 6.61182-297.163 7.0536-297.168 7.50397-297.256 8.27209-296.705 8.96612-295.937 9.05423-295.92 9.05615-295.902 9.05791-295.885 9.05931L-289.159 9.05931-289.159 12.4031C-288.768 13.0225-288.101 13.4141-287.37 13.4528-286.769 13.43-286.199 13.1798-285.776 12.753L-285.465 12.4031-285.465 9.05931-276.056 9.05931C-275.68 9.0241-275.338 8.82493-275.122 8.51488-274.895 8.21428-274.784 7.84134-274.811 7.46508-274.719 6.58695-275.23 5.75629-276.056 5.44326L-285.543 5.44326-275.472-3.34383C-274.869-3.52461-274.346-3.90946-273.995-4.43252L-273.606-5.13233Z" fill-rule="evenodd" transform="matrix(1.00048 0 0 -1 552.973 718.626)"/></g></svg>