<svg width="328" height="327" xmlns="http://www.w3.org/2000/svg" xmlns:xlink="http://www.w3.org/1999/xlink" xml:space="preserve" overflow="hidden"><defs><clipPath id="clip0"><rect x="131" y="204" width="328" height="327"/></clipPath></defs><g clip-path="url(#clip0)" transform="translate(-131 -204)"><path d="M0 0C88.7086 7.33992 166.571-58.6224 173.911-147.331 181.251-236.04 115.289-313.902 26.5803-321.242-62.1283-328.582-139.991-262.62-147.331-173.911-154.671-85.2026-88.7086-7.33992 0 0" fill="#FFFFFF" transform="matrix(1.00392 0 0 -1 281.682 206.773)"/><path d="M0 0C-87.8123 0-158.998-71.186-158.998-158.998-158.998-246.811-87.8123-317.997 0-317.997 87.8123-317.997 158.998-246.811 158.998-158.998 158.87-71.2392 87.7593-0.128223 0 0M0-322.34C-90.2112-322.362-163.359-249.248-163.38-159.037-163.402-68.826-90.2886 4.32186-0.0775873 4.34326 90.1336 4.36482 163.281-68.7484 163.303-158.96L163.303-159.037C163.196-249.183 90.1454-322.233 0-322.34" transform="matrix(1.00392 0 0 -1 295.039 208.344)"/><path d="M0 0-29.3953-29.3566-29.3953-55.6494-9.2685-38.6638-9.2685-86.5958 8.49279-86.5958 8.49279-38.6638 27.0685-56.4249 27.0685-29.3566Z" fill-rule="evenodd" transform="matrix(1.00392 0 0 -1 315.323 370.755)"/><path d="M0 0 0-47.971 17.7613-47.971 17.7613 0 36.337-17.8389 36.337 9.30705 9.19091 38.6636-20.1268 9.30705-20.1268-16.9857ZM0-47.971 0 0-20.1268-17.0246-20.1268 9.30705 9.2685 38.6636 36.4146 9.30705 36.4146-17.8389 17.8389-0.0777507 17.8389-47.971Z" transform="matrix(1.00392 0 0 -1 306.018 409.38)"/><path d="M0 0-29.977-31.5282-30.7527-58.9069-7.75595-32.3039-7.75595-56.1536-77.3274-96.3685C-88.3907-100.488-95.6606-111.129-95.4767-122.933L-95.7868-175.557C-93.7315-186.532-81.477-190.022-74.3027-197.236L-15.0854-228.803-15.2793-205.535-61.8154-182.266C-68.9511-177.574-75.2334-172.339-75.9702-163.109L-75.5436-128.595C-77.0561-120.141-72.2861-115.448-64.6851-112.424L7.09671-70.1144 7.09671-32.3426 27.2624-60.3806 27.2624-31.5669Z" fill-rule="evenodd" transform="matrix(1.00392 0 0 -1 315.128 252.708)"/><path d="M0 0 0-23.8497-69.5715-64.0259C-80.6198-68.1648-87.8813-78.7933-87.7205-90.5903L-88.0309-143.215C-86.6348-150.544-80.6626-154.577-74.8456-158.494-71.8793-160.355-69.1002-162.497-66.5466-164.893L-7.32947-196.46-7.56207-173.192-54.0983-149.924C-60.5745-145.658-67.5162-140.345-68.253-130.766L-67.8263-96.2909C-69.1837-88.5348-65.7323-83.5323-56.968-80.0809L14.8528-37.7329 14.8528 0 35.0185-27.9992 35.0185 0.77571 7.87225 32.2651-22.1047 0.77571-22.8803-26.6031ZM-7.32947-196.46-66.5466-164.893C-69.1099-162.509-71.888-160.367-74.8455-158.494-80.6626-154.616-86.4796-150.738-88.0309-143.215L-87.7205-90.5903C-87.8813-78.7933-80.6198-68.1648-69.5715-64.0259L0-23.8497 0 0-22.9966-26.6031-22.221 0.77571 7.75595 32.3426 34.9022 0.814422 34.9022-27.9992 14.7365 0 14.7365-37.7329-57.0455-80.1196C-65.8099-83.6099-69.2613-88.7289-67.9039-96.3298L-68.3306-130.805C-67.5549-140.384-60.5745-145.697-54.1757-149.963L-7.63966-173.231Z" transform="matrix(1.00392 0 0 -1 307.342 285.051)"/><path d="M0 0 175.175 191.842 178.984 188.364 3.8088-3.47787Z" transform="matrix(1.00392 0 0 -1 178.629 450.372)"/><path d="M0 0 175.175 191.842 178.984 188.364 3.8088-3.47787Z" transform="matrix(1.00392 0 0 -1 188.166 458.712)"/><path d="M0 0 175.175 191.842 178.984 188.364 3.8088-3.47787Z" transform="matrix(1.00392 0 0 -1 198.974 463.458)"/><path d="M0 0 175.176 191.842 178.984 188.364 3.8088-3.47787Z" transform="matrix(1.00392 0 0 -1 206.094 474.209)"/><path d="M0 0 175.175 191.842 178.984 188.364 3.8088-3.47787Z" transform="matrix(1.00392 0 0 -1 216.9 482.524)"/><path d="M0 0C-65.5379 0.0213978-118.684-53.0903-118.706-118.628-118.727-184.166-65.6157-237.313-0.0775873-237.334 65.4603-237.356 118.607-184.244 118.628-118.706L118.628-118.667C118.458-53.2339 65.4332-0.244196 0-0.116299ZM0 30.7138C82.501 30.7138 149.381-36.1663 149.381-118.667 149.381-201.168 82.501-268.048 0-268.048-82.5008-268.048-149.381-201.168-149.381-118.667-149.231-36.2284-82.4387 30.5643 0 30.7138" fill-rule="evenodd" transform="matrix(1.00392 0 0 -1 295.039 248.714)"/><path d="M0 0-15.5121 0-15.5121-10.2381C-15.6298-10.6211-15.8948-10.9419-16.2489-11.1299-16.5772-11.3673-16.9686-11.5022-17.3735-11.5177-18.0989-11.5822-18.7392-11.0465-18.8036-10.3212-18.806-10.2936-18.8077-10.2659-18.8083-10.2381L-18.8083 0-36.4146 0C-36.7922-0.00833043-37.1403 0.203524-37.3066 0.542785-37.5488 0.924677-37.6704 1.37076-37.6555 1.82257-37.6686 2.28172-37.5617 2.73614-37.3453 3.14106-37.1491 3.46513-36.793 3.65804-36.4146 3.64513L-18.8083 3.64513-18.8083 10.2766-32.1486 10.2766C-32.4941 10.4258-32.7802 10.6848-32.9632 11.0135-33.0468 11.3444-33.0468 11.6909-32.9632 12.0218-33.0177 12.3947-33.0177 12.7735-32.9632 13.1464L-32.7304 13.573C-31.3435 15.6648-30.1617 17.8856-29.2014 20.2044-28.6585 21.4066-27.9216 23.1129-26.9522 25.3621L-35.7552 25.3621C-36.3184 25.769-36.6617 26.413-36.6861 27.1072-36.6784 27.6832-36.4572 28.2361-36.0655 28.6585-35.9723 28.7717-35.8684 28.8754-35.7552 28.9688L-25.8274 28.9688-24.1987 35.0183C-23.7721 35.6544-23.064 36.0446-22.2986 36.0655-21.8711 36.0554-21.4657 35.8738-21.174 35.5613-20.8754 35.1765-20.7749 34.6739-20.9025 34.2039L-22.2597 28.9688-1.51238 28.9688C-1.10599 29.058-0.684238 28.9076-0.426485 28.581-0.167425 28.1905-0.0323417 27.7309-0.038712 27.2624-0.0356085 26.8292-0.142271 26.4022-0.349061 26.0215-0.50979 25.6602-0.848397 25.4098-1.24107 25.3621L-23.3843 25.3621-28.232 14.1936-27.9605 13.8832-18.692 13.8832-18.692 20.5147C-18.6512 20.8813-18.4872 21.223-18.2266 21.4842-17.3467 22.0562-16.1699 21.8069-15.5977 20.927-15.514 20.7983-15.4461 20.6598-15.3956 20.5147L-15.3956 13.8832-3.7616 13.8832C-3.34769 13.902-2.94766 13.7307-2.67586 13.4179-2.39851 13.066-2.26032 12.6242-2.28809 12.177-2.20364 11.3423-2.69988 10.5581-3.49012 10.2766L-15.3958 10.2766-15.3958 3.6453 0.116299 3.6453C0.500806 3.64187 0.854767 3.4354 1.04702 3.10235 1.25871 2.70951 1.36537 2.26882 1.35737 1.82257 1.38938 1.36194 1.28125 0.902136 1.04702 0.504236 0.866528 0.0949015 0.44576-0.154358 0-0.116463ZM-49.1345 1.20203C-49.1337 0.926311-49.2145 0.65647-49.3669 0.426485-49.5664 0.155501-49.8839-0.00326683-50.2202 -7.25383e-17L-59.6826 -7.25383e-17C-59.9479 0.0238479-60.2019 0.117606-60.4194 0.271474-60.6834 0.506686-60.8262 0.84905-60.8072 1.20203L-60.8072 7.13558-60.5746 7.60078C-60.3515 7.91554-60.0416 8.1581-59.6826 8.2989L-50.0651 8.2989-49.6386 8.0663C-49.3383 7.80577-49.111 7.47158-48.9792 7.09671L-48.9792 1.04702ZM-44.7133-9.92775C-43.9263-9.58636-43.4656-8.76018-43.5887-7.91129-43.5662-7.5423-43.6612-7.1756-43.8604-6.86411-44.0511-6.5665-44.3631-6.36788-44.7133-6.32116L-62.0481-6.32116-64.7627-5.97226C-66.8371-5.56946-68.8129-4.76598-70.5798-3.60659L-70.5798 5.42915-66.4691 5.42915C-65.6759 5.76792-65.2019 6.58953-65.3056 7.44561-65.2851 7.82668-65.3798 8.20498-65.5771 8.5315-65.787 8.82748-66.1096 9.02398-66.4691 9.07445L-70.5798 9.07445-70.5798 17.2182-64.8016 17.2182C-64.0971 17.2768-63.5737 17.8957-63.6325 18.5999-63.634 18.6175-63.636 18.6355-63.6383 18.6531-63.6466 19.0532-63.7676 19.4431-63.987 19.7777-64.1565 20.1167-64.4473 20.3798-64.8016 20.5146L-70.5798 20.5146-70.5798 26.1378-65.6158 26.1378C-64.879 26.1378-64.4912 26.797-64.4912 27.689-64.4831 28.135-64.5899 28.5758-64.8016 28.9687-64.9664 29.32-65.257 29.5967-65.6158 29.7444L-71.1227 29.7444-71.1227 33.9713C-71.1412 34.6993-71.7464 35.2743-72.4742 35.2558-72.5022 35.255-72.5299 35.2534-72.5575 35.2511-72.9589 35.2491-73.3504 35.1276-73.6821 34.902-74.0387 34.6985-74.3028 34.3651-74.4191 33.9713L-74.4191 29.7444-80.7401 29.7444C-81.5425 29.4162-82.0212 28.5866-81.9036 27.7277-81.9062 27.361-81.8126 26.9999-81.6321 26.6807-81.433 26.3733-81.1046 26.1734-80.7401 26.1378L-74.4191 26.1378-74.4191 20.3983-82.1751 20.3983C-82.4944 20.3806-82.7847 20.2065-82.9506 19.9329-83.144 19.5487-83.2373 19.1218-83.2221 18.692-83.2481 18.298-83.1533 17.9058-82.9506 17.5674-82.7607 17.2853-82.4369 17.1234-82.0973 17.1406L-74.3414 17.1406-74.3414-0.969596C-74.7818-0.470751-75.1837 0.0607631-75.5436 0.620372-76.3077 1.89819-76.8333 3.30424-77.0947 4.7699L-77.0947 7.48448C-77.0578 7.81949-77.0578 8.15761-77.0947 8.49279L-77.0947 10.5868-77.0947 12.1382C-77.0947 12.6422-77.0947 13.0688-77.2887 13.4955-77.5716 13.6973-77.9106 13.8058-78.2582 13.8056-78.6807 13.8102-79.0871 13.6421-79.3828 13.3403-79.6988 13.0062-79.8666 12.5589-79.8483 12.0992L-79.8483 11.7503C-79.8664 11.6347-79.8664 11.5169-79.8483 11.4014L-80.1973 8.5315C-80.5462 6.01097-80.9729 3.6453-81.4381 1.43479-82.076-1.62999-82.9181-4.64854-83.9589-7.60094-84.078-8.07823-83.9297-8.58279-83.5712-8.91944-83.1929-9.24351-82.7118-9.42237-82.2138-9.42351-81.706-9.46582-81.2155-9.22799-80.934-8.80314L-78.7624-1.58997C-77.0248-3.57653-75.1031-5.39452-73.0229-7.01928-71.0166-8.52529-68.5893-9.36601-66.0814-9.42351L-62.5135-10.0053ZM-45.8381-1.2022-45.8381 9.65611C-45.9103 10.0238-46.0413 10.3773-46.2259 10.7031-46.6625 11.4122-47.4495 11.8281-48.2812 11.7892L-61.7767 11.7892-62.2809 11.7892C-63.0633 11.4155-63.6033 10.671-63.7157 9.81128L-63.7157-1.04718C-63.6254-1.36652-63.5087-1.67785-63.3666-1.97774-63.0533-2.66051-62.4813-3.19072-61.7767-3.45157L-48.0484-3.45157-47.4669-3.21881C-46.6136-2.79853-46.0197-1.98754-45.8768-1.04718ZM-44.7133 25.0519C-44.6295 22.8366-44.8381 20.6199-45.3339 18.4592-45.6988 16.1837-47.424 14.3662-49.6773 13.8832L-51.6163 13.8832-54.1372 14.5814C-54.9745 14.8378-55.7167 15.3371-56.2699 16.0161-56.2887 16.1318-56.2887 16.2496-56.2699 16.365L-56.2699 16.5978C-56.3119 17.0418-56.1559 17.4816-55.8434 17.8-55.4659 18.0154-55.0367 18.1228-54.6024 18.1102-54.0903 18.0974-53.5821 18.0192-53.09 17.8776L-51.5776 17.4897C-49.6386 17.4897-48.514 18.7823-48.2036 21.3677-48.2036 23.0741-48.2036 24.315-47.971 24.9743L-47.971 27.3787C-48.1076 27.7513-48.3338 28.0845-48.6303 28.3483-48.7768 28.4419-48.9328 28.52-49.0956 28.5809L-54.0594 28.5809C-54.5623 26.373-55.2366 24.2077-56.076 22.1045-56.9243 20.0639-58.1036 18.177-59.5663 16.5204-60.3912 15.7785-61.1442 14.9605-61.8154 14.0771-62.4318 13.1435-63.4213 12.5213-64.5301 12.3707-64.9017 12.3924-65.2679 12.471-65.6158 12.6034-65.8703 12.9378-66.0067 13.3468-66.0038 13.7668-65.9649 14.3589-65.7013 14.9139-65.2668 15.318-64.805 15.7855-64.2836 16.1898-63.7157 16.5204-62.216 18.2477-60.8175 20.0603-59.5274 21.9495-58.2013 23.9152-57.4494 26.2116-57.3558 28.5809L-63.134 28.5809C-63.6909 28.7939-64.1003 29.2766-64.2198 29.8607L-64.2198 30.7138C-64.0752 31.0491-63.8486 31.3425-63.5605 31.5669L-63.0951 31.8384-46.1096 31.8384C-45.6506 31.8482-45.2213 31.6114-44.9848 31.2179-44.8804 31.031-44.7896 30.8365-44.7133 30.6362L-44.7133 24.8967ZM-90.2801-7.21317C-90.3734-7.56615-90.6133-7.86262-90.9392-8.02759L-91.3658-8.02759-128.517-8.02759-129.487-7.21317-129.487-5.42932-127.858-4.22712-122.623-4.22712-122.623 24.1599C-122.48 24.5294-122.222 24.8425-121.886 25.0519-121.542 25.2827-121.137 25.4044-120.722 25.4009-120.019 25.4653-119.396 24.947-119.331 24.2433-119.329 24.2156-119.327 24.1876-119.326 24.1599L-119.326-4.22712-108.856-4.22712-108.856 31.5669C-108.874 31.9588-108.701 32.3351-108.39 32.5752-108.051 32.8157-107.643 32.9382-107.227 32.9241-106.805 32.9377-106.388 32.8301-106.025 32.614-105.708 32.3618-105.535 31.9709-105.559 31.5669L-105.559 22.2208-93.1886 22.2208C-92.8127 22.0518-92.4709 21.8153-92.1803 21.5229L-91.8312 21.0188-91.8312 19.1959C-91.9472 18.8228-92.1616 18.4882-92.4517 18.2266L-92.9173 17.9939-105.676 17.9939-105.676-4.34342-91.3658-4.34342C-91.0163-4.48242-90.7184-4.72646-90.5127-5.04138-90.4056-5.19427-90.3267-5.36496-90.2801-5.54561ZM-162.295-2.52085C-164.119-4.15133-166.063-5.64215-168.112-6.98041-170.078-8.32863-172.184-9.45994-174.394-10.3544-174.85-10.3456-175.277-10.1319-175.557-9.77257-175.798-9.43347-175.921-9.02479-175.906-8.60925-175.935-8.37747-175.935-8.14307-175.906-7.91129-175.936-7.82325-175.936-7.72786-175.906-7.63966-175.011-6.92569-174.065-6.27771-173.076-5.70063L-168.228-2.83104-164.622-0.387937C-164.443-0.249749-164.227-0.168569-164.001-0.155175-163.528-0.205647-163.116-0.499989-162.915-0.930721-162.615-1.40719-162.454-1.95781-162.45-2.52085ZM-138.639 2.01662C-138.279 1.99669-137.942 2.19548-137.786 2.52069-137.579 2.90144-137.472 3.32841-137.475 3.7616-137.461 4.1595-137.569 4.55201-137.786 4.8862-137.964 5.18136-138.296 5.34732-138.639 5.31269L-173.541 5.31269-174.006 5.31269C-174.316 5.12844-174.55 4.83982-174.666 4.49843L-174.666 3.29624C-174.666 2.79216-174.278 2.40439-173.58 2.09404L-157.021 2.09404-157.021-6.67022C-157.061-7.02582-157.226-7.35544-157.486-7.60094-157.704-7.7798-157.979-7.87585-158.261-7.87242-158.807-7.83697-159.338-7.67771-159.813-7.40706-160.267-7.18883-160.707-6.94268-161.131-6.67022L-161.597-6.67022C-162.527-6.67022-162.993-7.25188-162.993-8.33778-162.997-8.78844-162.876-9.23126-162.644-9.61756-162.442-9.99145-162.088-10.26-161.674-10.3544L-160.627-10.8585C-159.82-11.1984-158.973-11.4329-158.106-11.5564L-156.633-11.5564C-156.172-11.3919-155.741-11.1564-155.353-10.8585-154.478-10.1367-153.944-9.08245-153.879-7.95001L-153.879 2.01662ZM-137.243-8.84201C-136.918-9.12508-136.734-9.53605-136.739-9.96662-136.772-10.4-136.949-10.8096-137.243-11.1299-137.54-11.4627-137.96-11.6588-138.406-11.6729-138.571-11.7173-138.745-11.7173-138.91-11.6729L-145.503-6.55392C-146.003-5.96638-146.577-5.44516-147.209-5.00267-148.366-4.28462-149.146-3.09255-149.342-1.74531-149.071-1.00831-148.722-0.620535-148.256-0.581823L-147.17-0.581823ZM-141.78 8.22132-169.663 8.22132C-170.008 8.38449-170.313 8.62297-170.555 8.91927L-170.555 9.42335C-170.722 10.1001-170.479 10.8119-169.934 11.2462L-169.469 11.5564-141.896 11.5564C-141.557 11.5736-141.233 11.4117-141.043 11.1298-140.826 10.7817-140.718 10.3764-140.733 9.96646-140.729 9.54536-140.836 9.1308-141.043 8.7641-141.196 8.43105-141.53 8.21838-141.896 8.22132ZM-157.292 22.1045C-158.106 22.6475-158.804 23.0741-159.309 23.4619-160.66 24.4478-161.955 25.5094-163.187 26.6417L-158.494 26.6417-158.184 26.9133C-157.793 27.3514-157.572 27.9159-157.564 28.5033-157.599 29.1944-157.94 29.834-158.494 30.2484L-163.342 30.2484-163.342 34.1265C-163.565 34.9298-164.335 35.4546-165.164 35.3672-165.521 35.3899-165.875 35.2946-166.173 35.0958-166.439 34.8385-166.603 34.4948-166.638 34.1265L-166.638 30.2484-173.774 30.2484C-174.516 30.1289-175.03 29.4432-174.937 28.697-174.931 28.2527-174.825 27.8151-174.627 27.4176-174.446 27.0636-174.143 26.7877-173.774 26.6417L-166.909 26.6417-175.713 18.8857C-175.893 18.5666-175.987 18.2056-175.984 17.8387-175.984 17.3892-175.834 16.9523-175.557 16.5978-175.285 16.2595-174.867 16.072-174.433 16.0936L-174.123 16.0936-173.774 16.0936-171.447 18.0326C-169.663 19.5451-168.034 21.0188-166.638 22.4536L-166.638 14.6975C-166.622 13.9909-166.036 13.4314-165.329 13.4474-165.287 13.4484-165.245 13.4515-165.203 13.4566-164.802 13.4585-164.41 13.5801-164.079 13.8056-163.732 14.0028-163.47 14.3202-163.342 14.6975L-163.342 22.4536C-162.895 21.9551-162.402 21.5007-161.868 21.0962-160.715 20.1933-159.398 19.5218-157.99 19.1185-157.771 19.2224-157.583 19.3829-157.447 19.5839-157.108 19.9682-156.927 20.4675-156.943 20.9799-156.945 21.3791-157.024 21.7743-157.176 22.1433ZM-135.032 16.0549C-134.999 15.941-134.999 15.8198-135.032 15.7058L-135.032 15.3569C-135.015 14.8901-135.198 14.4383-135.536 14.116-135.832 13.814-136.238 13.6461-136.661 13.6505-136.993 13.6707-137.314 13.7777-137.592 13.9608L-145.852 21.484-145.852 14.5425C-145.833 14.1523-146.026 13.782-146.356 13.573-146.682 13.304-147.097 13.1658-147.519 13.1853-147.936 13.1652-148.346 13.2883-148.683 13.5342-149.005 13.7648-149.181 14.1478-149.148 14.5425L-149.148 21.484C-150.685 19.7281-152.344 18.0823-154.112 16.5591-154.733 16.0161-155.586 15.3569-156.594 14.5425L-156.904 14.5425-157.214 14.5425C-157.648 14.5208-158.067 14.7083-158.339 15.0465-158.627 15.3948-158.779 15.8358-158.766 16.2876-158.768 16.6543-158.675 17.0155-158.494 17.3346-156.142 19.2604-153.927 21.3466-151.863 23.5784L-149.148 26.7194-155.082 26.7194C-155.451 26.8653-155.754 27.141-155.935 27.495-156.133 27.8929-156.239 28.3301-156.245 28.7748-156.338 29.5207-155.824 30.2065-155.082 30.326L-148.877 30.326-148.877 33.6223C-148.577 34.2403-147.972 34.6534-147.287 34.7082-146.733 34.6827-146.214 34.4301-145.852 34.01L-145.58 33.6223-145.58 30.326-137.243 30.326C-136.892 30.2793-136.58 30.0807-136.39 29.7831-136.187 29.4587-136.092 29.0786-136.118 28.6972-136.013 27.8615-136.471 27.0567-137.243 26.7194L-145.774 26.7194-136.7 17.9552C-136.148 17.7369-135.684 17.3413-135.381 16.8306-135.265 16.6037-135.162 16.3708-135.071 16.1324ZM-212.011 7.83354C-212.075 7.14179-212.427 6.50884-212.98 6.0884-213.576 5.68985-214.28 5.48665-214.997 5.50674-215.825 5.4708-216.633 5.76368-217.246 6.321L-217.246 28.6196-216.16 29.8218-214.221 29.8218C-213.617 29.6571-213.211 29.0899-213.252 28.4646-213.196 28.1047-213.196 27.7385-213.252 27.3787-213.37 26.9711-213.539 26.5804-213.756 26.2152L-215.966 19.2737C-216.007 18.5788-215.801 17.892-215.385 17.3346-214.989 16.6945-214.626 16.0344-214.299 15.3569-213.005 13.6808-212.152 11.7077-211.817 9.6174L-211.817 7.83354ZM-202.044 2.59811-209.8-7.058C-210.044-7.46406-210.491-7.70271-210.964-7.67853-211.47-7.68147-211.957-7.48677-212.321-7.13558-212.712-6.7795-212.925-6.26807-212.903-5.7395L-212.903-5.23543-204.449 5.62304C-204.16 6.02943-203.705 6.28555-203.208 6.321-202.768 6.29699-202.366 6.06716-202.122 5.70046-201.809 5.28868-201.645 4.78281-201.656 4.26567-201.634 3.64971-201.857 3.04992-202.277 2.59811ZM-209.257 7.52336-209.257 9.92758C-209.308 11.5955-209.746 13.2286-210.537 14.6975-211.003 15.6284-211.778 17.0632-212.825 18.9635-211.739 22.6088-210.653 26.2152-209.529 29.8218L-209.529 31.3343C-209.529 31.7608-209.8 32.1099-209.917 32.3426-210.32 33.0266-210.974 33.5272-211.739 33.7387L-218.06 33.7387-219.999 32.5364-220.271 31.3343-220.271-9.3848C-220.277-9.75248-220.103-10.0999-219.806-10.3155-219.465-10.5177-219.077-10.6249-218.681-10.6257-218.308-10.6344-217.942-10.5257-217.634-10.3155-217.37-10.0803-217.227-9.73778-217.246-9.3848L-217.246 2.24938-216.432 2.24938C-216.149 2.20936-215.861 2.20936-215.579 2.24938L-213.95 2.24938C-212.642 2.08293-211.351 2.66802-210.615 3.7616-209.743 4.86709-209.265 6.23181-209.257 7.63966ZM-184.516 9.03557-184.205 9.30705C-183.803 9.74154-183.569 10.3056-183.546 10.8972-183.579 11.5982-183.938 12.2436-184.516 12.6422L-194.986 12.6422-194.986 17.7611-188.355 17.7611C-187.976 17.7485-187.62 17.9413-187.424 18.2654-187.208 18.6704-187.101 19.1249-187.114 19.5839-187.099 20.0358-187.22 20.4819-187.463 20.8635-187.629 21.2029-187.977 21.4148-188.355 21.4066L-204.875 21.4066-205.418 21.4066C-205.782 21.1692-205.99 20.7542-205.961 20.3207L-205.961 19.1185C-205.961 18.6144-205.573 18.2266-204.914 17.9165L-198.321 17.9165-198.321 12.7975-207.047 12.7975-207.357 12.4871C-207.749 12.0646-207.97 11.512-207.978 10.9359-207.953 10.2417-207.61 9.59763-207.047 9.19091L-198.244 9.19091-198.244-4.69248C-198.316-5.23037-198.577-5.72529-198.981-6.0884-199.317-6.37098-199.744-6.5224-200.183-6.51521L-201.191-6.51521C-201.642-6.4685-202.097-6.4685-202.548-6.51521-202.951-6.52191-203.348-6.61436-203.712-6.78668-204.07-7.00311-204.364-7.31101-204.565-7.67853-204.692-8.48789-204.326-9.29545-203.634-9.73386-203.029-10.1809-202.292-10.413-201.54-10.3931L-197.662-10.3931C-196.837-10.3983-196.089-9.90978-195.762-9.1522L-194.948-6.78668-194.948 8.72539ZM-182.577-4.84766C-182.198-5.11603-181.968-5.54708-181.956-6.01097-181.956-6.51276-182.167-6.99135-182.538-7.32947-182.916-7.68294-183.416-7.87748-183.934-7.87242-184.393-7.88238-184.822-7.64554-185.059-7.25188L-191.535 4.42084C-191.562 4.62682-191.562 4.83557-191.535 5.04138-191.533 5.35875-191.439 5.66877-191.263 5.93322-190.918 6.36918-190.385 6.61403-189.829 6.59247-189.414 6.59607-189.009 6.47454-188.665 6.24357L-182.615-4.92508ZM-182.848 23.8108C-182.515 23.7203-182.218 23.531-181.995 23.268-181.807 22.9804-181.712 22.6419-181.724 22.2986-181.717 21.806-181.882 21.3262-182.189 20.9412-182.465 20.5517-182.913 20.3204-183.391 20.3207L-183.973 20.3207C-185.912 21.5229-187.851 22.8801-189.867 24.1986-190.565 24.7028-191.457 25.3621-192.504 26.2152-193.3 26.8339-194.052 27.5077-194.754 28.2318-195.441 28.9165-196.259 29.4572-197.158 29.8218-198.998 27.8156-201.009 25.9731-203.169 24.315L-204.643 23.2292-206.892 21.3677C-207.561 20.7286-208.393 20.2859-209.296 20.0879-209.774 19.9599-210.283 20.1095-210.615 20.4757-210.909 20.8935-211.046 21.4015-211.003 21.9107-211.001 22.4304-210.896 22.9449-210.692 23.423-208.403 24.8312-206.225 26.4128-204.177 28.1542-203.401 28.7748-202.471 29.6279-201.346 30.6749L-199.33 32.963C-198.76 33.7524-197.89 34.2715-196.925 34.3978-196.447 34.3548-195.984 34.2095-195.568 33.9713-193.728 32.0944-191.786 30.3208-189.751 28.6583-188.083 27.3011-186.493 26.0989-184.903 25.013-184.272 24.5256-183.597 24.0972-182.887 23.7334ZM-258.043 11.4401-260.796 11.4401-260.796 5.39044-258.043 5.39044ZM-251.993 11.4401-254.746 11.4401-254.746 5.39044-251.993 5.39044ZM-258.043 15.0465-258.043 20.4757-259.672 20.4757C-260.083 20.4984-260.467 20.2681-260.641 19.8942-260.672 19.6886-260.672 19.4793-260.641 19.2737L-260.641 15.0465ZM-251.993 15.0465-251.993 19.2737C-251.978 19.6373-252.12 19.9898-252.381 20.2433L-252.807 20.4757-254.746 20.4757-254.746 15.0465ZM-248.697-4.34342C-248.694-5.69099-249.291-6.96979-250.325-7.83371-250.841-8.23259-251.4-8.57103-251.993-8.84201L-253.583-8.84201C-254.249-8.69109-254.89-8.44281-255.483-8.10502-256.089-7.85118-256.506-7.2852-256.569-6.63151-256.553-6.21662-256.372-5.82558-256.065-5.54561-255.723-5.3514-255.333-5.25732-254.94-5.27414L-254.165-5.27414-253.35-5.27414C-253.005-5.2926-252.668-5.16617-252.42-4.92508-252.098-4.53845-251.896-4.06688-251.838-3.56787L-251.838 1.55109C-251.838 1.90015-252.032 2.09404-252.42 2.17163L-260.796 2.17163-261.339 1.55109C-261.53-0.720664-261.946-2.96808-262.58-5.15784-262.774-5.93339-263.123-6.90298-263.549-8.10518-263.976-9.30721-264.17-9.38496-264.868-9.38496-265.273-9.39803-265.666-9.24383-265.954-8.95831-266.308-8.66936-266.532-8.25023-266.574-7.79499-265.768-5.57126-265.133-3.2897-264.674-0.969596-264.257 1.35917-264.062 3.72256-264.092 6.08824L-264.092 22.6864C-263.983 23.1656-263.708 23.5913-263.317 23.8884L-262.696 24.1986-257.771 24.1986-255.018 28.0768C-254.864 28.4543-254.654 28.8071-254.397 29.1238-254.156 29.4182-253.984 29.7627-253.893 30.1321-253.893 30.4034-254.087 30.5973-254.475 30.7912L-258.586 30.7912-259.4 30.481C-260.563 28.6583-261.804 26.8357-263.278 25.013L-265.023 22.6473C-265.314 22.506-265.631 22.4268-265.954 22.4149-266.519 22.434-267.02 22.7832-267.234 23.3067-267.365 23.5766-267.456 23.8639-267.505 24.1599-266.657 25.728-265.657 27.2088-264.519 28.5809-263.839 29.4391-263.266 30.3767-262.813 31.3729-262.375 32.3931-261.612 33.2389-260.641 33.7773-260.204 34.043-259.735 34.2516-259.245 34.3978L-250.868 34.3978C-250.39 34.2418-249.971 33.9444-249.666 33.5447-249.481 33.3563-249.335 33.1321-249.24 32.8854-249.358 31.2894-249.999 29.7769-251.062 28.5809-252.132 27.3906-252.915 25.9712-253.35 24.4313L-250.054 24.4313C-249.586 24.3172-249.19 24.0062-248.968 23.5782-248.826 23.3832-248.733 23.1571-248.697 22.9188L-248.697-4.22712ZM-228.066-0.116463C-227.687-0.12904-227.331 0.0637033-227.135 0.387773-226.901 0.786-226.793 1.24548-226.825 1.7061-226.817 2.15235-226.923 2.59321-227.135 2.98589-227.327 3.31894-227.681 3.5254-228.066 3.52883L-235.201 3.52883-235.201 10.1603-228.88 10.1603C-228.093 10.5016-227.632 11.3279-227.756 12.1768-227.733 12.5458-227.828 12.9125-228.027 13.2238-228.209 13.5298-228.526 13.731-228.88 13.7668L-235.201 13.7668-235.201 17.6448C-235.176 18.0488-235.35 18.4396-235.667 18.692-236.029 18.9081-236.447 19.0156-236.869 19.0022-237.284 19.0162-237.693 18.8936-238.032 18.6531-238.343 18.4132-238.516 18.0367-238.498 17.6448L-238.498 13.7668-241.949 13.7668C-241.457 14.574-241.189 15.4975-241.173 16.4426-241.146 16.9034-241.315 17.3546-241.639 17.6837-242.048 17.9929-242.573 18.1064-243.074 17.9939-243.323 17.8506-243.557 17.6817-243.772 17.4897-244.187 17.0635-244.422 16.4944-244.431 15.8997-244.431 15.3956-245.323 13.4177-246.68 9.85016-247.161 8.69011-247.512 7.48056-247.727 6.24357-247.751 5.89206-247.589 5.55395-247.301 5.35156-247.014 5.1273-246.655 5.01671-246.292 5.04122-245.935 5.01867-245.581 5.11407-245.284 5.31269L-243.074 10.1602-238.381 10.1602-238.381 3.52883-245.827 3.52883C-246.206 3.54157-246.561 3.34883-246.758 3.02476-246.974 2.61967-247.081 2.16526-247.068 1.7061-247.083 1.2543-246.961 0.808215-246.719 0.426485-246.553 0.0872245-246.205-0.124793-245.827-0.116463L-238.653-0.116463-238.653-8.84201C-238.59-8.97759-238.497-9.09699-238.381-9.19108-238.028-9.60155-237.525-9.8531-236.985-9.88903-236.304-9.82696-235.696-9.43609-235.356-8.84201L-235.356-0.116463ZM-228.337 29.7444C-228.699 26.0989-228.932 24.1212-229.035 23.8108-229.374 21.8964-230.825 20.3697-232.719 19.9329L-234.193 19.9329C-235.124 19.9329-236.054 20.0492-236.985 20.282-237.964 20.3979-238.85 20.9182-239.428 21.7168-239.54 22.3334-239.353 22.9663-238.924 23.423-238.46 23.7502-237.901 23.9139-237.334 23.8884L-236.365 23.8884-235.007 23.5782C-234.764 23.5312-234.514 23.5312-234.27 23.5782-233.651 23.611-233.093 23.9635-232.797 24.5089-232.476 25.1202-232.204 25.7556-231.982 26.4093-232.005 26.8354-232.005 27.2625-231.982 27.689L-231.982 28.8911C-231.982 29.8994-232.332 30.481-233.029 30.6362L-237.14 30.6362C-238.001 28.3783-239.079 26.2095-240.359 24.1599-240.585 23.7304-240.858 23.3272-241.173 22.9578L-242.957 20.631C-243.765 19.3691-244.888 18.3398-246.215 17.6448-246.678 17.6674-247.112 17.8774-247.417 18.2266-247.624 18.5932-247.731 19.0077-247.727 19.4287L-247.727 20.1268C-247.754 20.2021-247.754 20.2843-247.727 20.3596-245.639 22.2865-243.895 24.5555-242.569 27.0685-242.065 27.9605-241.522 29.1625-240.863 30.6362L-246.486 30.6362C-246.843 30.7626-247.145 31.0094-247.339 31.3342-247.439 31.491-247.518 31.6605-247.572 31.8384-247.84 32.7971-247.383 33.8099-246.486 34.2428L-231.633 34.2428C-230.625 34.1182-229.706 33.603-229.074 32.8078-228.776 32.4139-228.528 31.9839-228.337 31.5282L-228.337 30.0157Z" fill-rule="evenodd" transform="matrix(1.00392 0 0 -1 428.616 598.394)"/></g></svg>