<svg width="327" height="328" xmlns="http://www.w3.org/2000/svg" xmlns:xlink="http://www.w3.org/1999/xlink" xml:space="preserve" overflow="hidden"><defs><clipPath id="clip0"><rect x="97" y="42" width="327" height="328"/></clipPath></defs><g clip-path="url(#clip0)" transform="translate(-97 -42)"><path d="M0 0C8.77071 88.6545 87.7495 153.413 176.404 144.642 265.058 135.871 329.817 56.8926 321.046-31.7618 312.275-120.416 233.297-185.175 144.642-176.404 55.9877-167.633-8.77071-88.6545 0 0" fill="#FFFFFF" transform="matrix(1 0 0 -1.00294 100.019 190.024)"/><path d="M0 0C-87.8868 0-159.133-71.2465-159.133-159.133-159.133-247.02-87.8868-318.266 0-318.266 87.8868-318.266 159.133-247.02 159.133-159.133 159.005-71.2996 87.8337-0.128332 0 0M0-322.614C-90.2877-322.635-163.498-249.46-163.519-159.172-163.54-68.8844-90.3652 4.32552-0.0776531 4.34694 90.21 4.36852 163.42-68.8069 163.441-159.094L163.441-159.172C163.335-249.394 90.2218-322.506 0-322.614" fill="#FF0001" transform="matrix(1 0 0 -1.00294 260.539 46.3597)"/><path d="M0 0C31.7297 76.6023 119.55 112.979 196.152 81.249 272.755 49.5193 309.131-38.3011 277.401-114.903 245.672-191.506 157.851-227.882 81.249-196.152 4.64676-164.423-31.7297-76.6023 0 0" fill="#FF0001" transform="matrix(1 0 0 -1.00294 121.857 148.346)"/><path d="M0 0C-82.5708 0.0214159-149.525-66.8981-149.546-149.469-149.568-232.04-82.6484-298.994-0.0776531-299.015 82.4931-299.037 149.447-232.117 149.469-149.546L149.469-149.508C149.383-66.9873 82.5201-0.106916 0 0M0-300.296C-83.2781-300.296-150.788-232.786-150.788-149.508-150.788-66.2294-83.2781 1.28087 0 1.28087 83.2781 1.28087 150.788-66.2294 150.788-149.508 150.703-232.75 83.2427-300.21 0-300.296" fill="#FFFFFF" transform="matrix(1 0 0 -1.00294 260.539 56.0526)"/><path d="M56.861 255.038 272.816 255.038 272.816 212.888 56.861 212.888Z" fill="#FFFFFF" transform="matrix(1 0 0 -1.00294 97.0198 440.3)"/><path d="M57.0162 213.043 272.661 213.043 272.661 254.883 57.0162 254.883ZM273.01 212.732 56.7057 212.732 56.7057 255.194 273.01 255.194Z" fill="#FFFFFF" transform="matrix(1 0 0 -1.00294 97.0198 440.3)"/><path d="M0 0C-0.353117-0.410989-0.856636-0.662749-1.39743-0.698551-2.0265-0.654411-2.62533-0.409518-3.10514 0L-4.58006 1.20305C-8.29924 5.65527-11.5265 10.4961-14.2058 15.6416-16.2893 19.5025-18.1174 23.4959-19.6783 27.5961L-21.386 32.6029C-23.0824 27.2038-25.3463 21.9995-28.1395 17.0776-30.8935 12.0789-34.3874 7.52516-38.5027 3.57073L-40.4043 1.39727C-40.9927 0.595722-41.8979 0.086481-42.8885 0-43.2807-0.00735661-43.6682 0.0861541-44.0139 0.271704-44.2384 0.703619-44.3581 1.18213-44.3633 1.66897-44.2492 2.73208-43.7014 3.70103-42.8495 4.3471L-40.3268 6.59806C-36.598 10.5659-33.4015 15.0019-30.8177 19.7947-28.8623 23.4153-27.2134 27.1935-25.8882 31.0892-25.4226 32.6805-24.918 34.272-24.4522 35.8631-24.3041 36.1296-24.1992 36.4178-24.1418 36.7172-24.1084 36.9096-24.1084 37.1066-24.1418 37.2993-24.1331 37.898-24.3718 38.4738-24.8016 38.8906L-25.1509 39.2011-35.9797 39.2011C-36.3441 39.3525-36.655 39.6093-36.8725 39.9387-37.0301 40.2235-37.1103 40.5446-37.1053 40.8701-37.1004 41.1995-37.0065 41.5212-36.8336 41.8016-36.8336 41.8016-36.8336 42.0345-36.6008 42.2286L-35.9797 42.8107-22.2398 42.8107-19.7947 41.6077-17.9706 34.6601C-16.0157 28.7501-13.5749 23.0121-10.6736 17.5046-7.76351 12.0129-4.14929 6.9242 0.0776531 2.36752 0.332028 2.0332 0.468534 1.62369 0.465755 1.20321 0.456764 0.896199 0.391045 0.593597 0.271541 0.310449 0.219064 0.199936 0.153835 0.0956359 0.0776531 0ZM-66.7972 22.0458-66.7972 34.1165-70.6786 34.1165C-71.0582 33.9552-71.3916 33.7016-71.6488 33.3792-71.7575 33.2414-71.8368 33.0828-71.8816 32.9133L-71.8816 23.249C-71.7592 22.8588-71.5141 22.5184-71.1831 22.2786L-70.6786 22.0458ZM-57.6372 23.249-57.6372 32.9133C-57.8001 33.2815-58.0538 33.6021-58.3747 33.8448L-58.8794 34.1165-63.1487 34.1165-63.1487 22.0458-58.8794 22.0458C-58.4891 22.1682-58.1489 22.4133-57.9091 22.7444-57.8006 22.9024-57.7097 23.0715-57.6372 23.249M-83.021 10.5571C-85.2902 9.6164-87.6422 8.88875-90.0462 8.38359L-93.3842 7.84018C-94.1604 8.20246-94.5485 8.66805-94.5485 9.23745-94.5046 9.94548-94.112 10.5855-93.5004 10.9452-92.8546 11.4474-92.0668 11.7326-91.2494 11.7604L-84.2242 13.895-83.6808 13.895C-83.2189 13.902-82.7779 13.7027-82.4777 13.3518-82.2005 12.9821-82.0506 12.5327-82.0506 12.0709-82.0202 11.3924-82.404 10.763-83.021 10.4796ZM-77.7036 16.3014-77.7036 19.9111C-77.7558 20.2655-77.8336 20.6157-77.9364 20.959-78.2397 21.6946-78.8074 22.2902-79.5279 22.628L-81.0805 22.628-79.5666 36.8336-79.5666 38.3472C-79.6433 38.8231-79.8009 39.2827-80.0324 39.7057-80.5045 40.6335-81.3296 41.3327-82.3224 41.6463L-92.4137 41.6463C-92.6902 41.5111-92.94 41.327-93.1512 41.103-93.6243 40.6077-93.8014 39.8995-93.617 39.2398-93.6483 39.0342-93.6483 38.8246-93.617 38.6188-93.424 38.2245-93.0057 37.9921-92.5689 38.0366L-84.6123 38.0366C-84.3282 37.9462-84.0646 37.8014-83.8361 37.6098-83.3824 37.1672-83.2042 36.5136-83.3703 35.9019L-84.9229 22.628-88.5713 22.628-88.5713 25.3448-87.6785 34.6988C-87.7112 35.0848-87.928 35.4316-88.2608 35.6302-88.6167 35.8667-89.0367 35.9885-89.4639 35.9795-89.8244 35.9827-90.1767 35.8741-90.4731 35.6691-90.7843 35.4379-90.9821 35.0848-91.0165 34.6987L-92.1033 24.4521-92.1033 22.0458C-92.0039 21.6181-91.8608 21.2019-91.6763 20.8037-91.332 20.0281-90.7281 19.3966-89.9686 19.0183L-82.206 19.0183-81.7014 18.7466C-81.3805 18.504-81.1266 18.1834-80.9639 17.8153L-80.9639 14.1667-82.206 4.23054C-82.3999 3.92778-82.6352 3.65362-82.9046 3.41559-83.4732 2.8797-84.19 2.52806-84.9617 2.40643L-87.9891 2.40643C-88.7375 2.15451-89.2388 1.44942-89.2311 0.659806-89.2424 0.091222-89.0176-0.456927-88.61-0.854021-88.2226-1.27956-87.672-1.51971-87.0964-1.51366L-83.875-1.51366C-82.6028-1.55748-81.3549-1.15989-80.3428-0.388102-79.3419 0.508587-78.6948 1.73387-78.5187 3.06624L-77.626 16.3402ZM-52.3586-1.20321C-55.1613-0.8277-57.9099-0.124245-60.5483 0.892765-63.0507 1.89702-65.4227 3.20029-67.6123 4.77395-69.1288 3.05038-70.8795 1.54816-72.8133 0.310449-73.7031-0.256174-74.623-0.774569-75.5689-1.24212-75.8108-1.39988-76.0951-1.48113-76.384-1.47476-76.8524-1.4723-77.2946-1.25831-77.5872-0.892765-77.9176-0.564824-78.0999-0.116071-78.0919 0.349357-78.1053 0.759529-77.967 1.16022-77.7038 1.47476-75.5506 2.78521-73.5234 4.2925-71.6488 5.97733L-70.3679 7.18038C-71.416 8.49999-72.4252 9.93616-73.4342 11.4886-73.7448 11.9932-74.1716 12.692-74.6374 13.5456-75.0418 13.8139-75.2885 14.2638-75.2972 14.749-75.2972 15.2377-75.0672 15.6977-74.6763 15.9908-74.3111 16.3701-73.8053 16.5808-73.2789 16.5731-72.8975 16.5558-72.5252 16.4495-72.1922 16.2627L-68.3109 10.5183-66.7583 16.5731-66.7583 18.669-72.231 18.669-73.8999 19.1349C-74.4118 19.3868-74.7191 19.9245-74.6763 20.4932L-74.6763 35.5914C-74.3155 36.3822-73.6815 37.0162-72.8908 37.377L-72.231 37.6874-66.7196 37.6874-66.7196 43.4705C-66.6988 43.8408-66.5137 44.1825-66.2149 44.4019-65.8865 44.6316-65.4892 44.7413-65.0893 44.7125-64.2126 44.805-63.3837 44.2948-63.0712 43.4705L-63.0712 37.7263-56.667 37.7263C-55.8931 37.4894-55.2225 36.9969-54.7651 36.3289-54.5583 36.007-54.3766 35.6696-54.2218 35.3197L-54.2218 20.8037C-54.4561 20.079-54.955 19.4692-55.6191 19.096-55.9557 18.9348-56.3065 18.8048-56.667 18.7079L-63.0712 18.7079-63.0712 16.3014C-63.3702 14.3335-63.8508 12.3975-64.5072 10.5183-64.7401 9.8196-65.0893 8.92684-65.5163 7.84018-62.6618 6.19361-59.7061 4.72883-56.667 3.45434L-52.3977 1.78537C-52.0376 1.8264-51.6787 1.69725-51.4273 1.43601-51.2 1.13586-51.0899 0.763453-51.1168 0.388102-51.1136-0.00866445-51.2211-0.398401-51.4273-0.737459-51.6506-1.04725-52.0161-1.22267-52.3977-1.20321ZM-101.729 1.78537C-101.849 1.44386-102.101 1.16447-102.428 1.00916L-102.932 1.00916-144.229 1.00916-145.432 1.90193-145.432 3.72604-143.608 4.92926-137.825 4.92926-137.825 33.3016C-137.665 33.6941-137.378 34.022-137.01 34.2329-136.62 34.4567-136.179 34.577-135.729 34.5823-134.941 34.6722-134.229 34.1062-134.139 33.3182-134.139 33.3125-134.138 33.307-134.138 33.3014L-134.138 4.92926-122.494 4.92926-122.494 40.7535C-122.502 41.162-122.296 41.5449-121.95 41.7628-121.568 42.0053-121.122 42.1269-120.669 42.112-120.204 42.1324-119.744 42.0107-119.35 41.7628-119 41.5534-118.803 41.1596-118.845 40.7535L-118.845 31.3996-105.067 31.3996C-104.662 31.2417-104.292 31.004-103.98 30.7011-103.82 30.5482-103.677 30.3792-103.553 30.1964L-103.553 28.3334C-103.704 27.9581-103.943 27.6247-104.252 27.3632-104.427 27.2734-104.609 27.1956-104.795 27.1302L-118.884 27.1302-118.884 4.77395-102.971 4.77395C-102.585 4.64218-102.248 4.39909-102.001 4.0754L-101.768 3.5709-101.768 1.74662ZM-181.645 6.63713C-183.704 5.0074-185.87 3.5163-188.126 2.17347-190.335 0.815276-192.676-0.316007-195.113-1.20321-195.619-1.22479-196.107-1.00982-196.432-0.621061-196.673-0.281676-196.796 0.127351-196.782 0.543408L-196.782 1.24212C-196.807 1.33089-196.807 1.42489-196.782 1.51366-195.78 2.23281-194.73 2.88134-193.638 3.45434L-188.243 6.32652-184.362 8.73295C-184.162 8.89316-183.918 8.98814-183.663 9.00465-183.159 8.95724-182.711 8.66772-182.46 8.22829-182.126 7.76286-181.937 7.20948-181.916 6.63713ZM-155.368 11.1781C-154.99 11.1654-154.633 11.3584-154.437 11.6826-154.23 12.0637-154.123 12.491-154.126 12.9247-154.112 13.3228-154.22 13.7158-154.437 14.0501-154.665 14.3289-155.009 14.4865-155.368 14.4773L-194.181 14.4773-194.686 14.4773C-195.015 14.3062-195.266 14.014-195.385 13.662L-195.385 12.459C-195.385 11.9543-194.958 11.5275-194.22 11.2558L-175.9 11.2558-175.9 2.48392C-175.95 2.11331-176.145 1.77785-176.444 1.55257-176.673 1.36473-176.963 1.26812-177.259 1.28087-177.866 1.31651-178.461 1.47476-179.005 1.74662L-180.48 2.48408-180.985 2.48408C-181.994 2.48408-182.499 1.94067-182.499 0.815112-182.504 0.376168-182.382-0.0549294-182.149-0.426847-181.906-0.796639-181.532-1.06017-181.101-1.16431-180.714-1.36441-180.312-1.53295-179.898-1.66897-178.997-2.01081-178.059-2.24524-177.104-2.36752L-175.279-2.36752C-174.769-2.20617-174.285-1.97075-173.843-1.66897-172.961-0.97565-172.4 0.0477362-172.291 1.16431L-172.291 11.1394ZM-153.855 0.310449C-153.49 0.0550928-153.285-0.3711-153.311-0.815112-153.325-1.26125-153.522-1.68205-153.855-1.97942-154.198-2.31586-154.655-2.51008-155.136-2.52299-155.313-2.57252-155.501-2.57252-155.679-2.52299L-163.014 2.60032C-163.591 3.18476-164.228 3.70528-164.916 4.15289-166.508 5.27845-167.284 6.36543-167.284 7.41334-167.284 8.46125-166.585 8.53874-166.081 8.57764L-164.839 8.57764-153.855 0.155143ZM-159.056 17.5046-189.951 17.5046C-190.336 17.6362-190.674 17.8795-190.921 18.2034-190.921 18.2034-190.921 18.4751-191.154 18.7079-191.326 19.4023-191.047 20.1303-190.455 20.5321L-189.951 20.8037-158.9 20.8037C-158.535 20.8413-158.179 20.6778-157.969 20.3768-157.723 20.0549-157.599 19.6559-157.619 19.2513-157.615 18.8122-157.736 18.3812-157.969 18.0091-158.152 17.6714-158.517 17.4736-158.9 17.5046ZM-176.172 31.3996C-177.065 31.9041-177.802 32.3701-178.384 32.7582-179.938 33.7284-181.441 34.7778-182.887 35.9019L-177.725 35.9019-177.375 36.2125C-176.518 36.9249-176.401 38.1973-177.113 39.0548-177.282 39.2585-177.49 39.427-177.725 39.5504L-182.926 39.5504-182.926 43.4316C-183.238 44.2561-184.067 44.7663-184.944 44.6737-185.332 44.7068-185.719 44.5963-186.031 44.3631-186.34 44.1478-186.539 43.807-186.574 43.4316L-186.574 39.5504-194.531 39.5504C-195.32 39.4698-195.894 38.7648-195.813 37.9758-195.813 37.9702-195.812 37.9647-195.812 37.959-195.814 37.5148-195.679 37.0804-195.423 36.717-195.218 36.3588-194.906 36.0739-194.531 35.9019L-186.768 35.9019-196.549 28.1394C-196.74 27.8222-196.847 27.4614-196.859 27.0915-196.868 26.626-196.685 26.1773-196.355 25.8493-196.035 25.5065-195.581 25.3219-195.113 25.3448L-194.763 25.3448C-194.65 25.309-194.528 25.309-194.414 25.3448L-191.814 27.2468C-189.795 28.7992-188.01 30.2743-186.458 31.6714L-186.458 23.9088C-186.377 23.1413-185.69 22.5843-184.922 22.6649-184.917 22.6656-184.911 22.666-184.905 22.6667-184.454 22.6629-184.011 22.7837-183.624 23.0161-183.248 23.1982-182.956 23.5176-182.809 23.9088L-182.809 31.6714C-182.149 31.0892-181.606 30.6234-181.179 30.313-179.902 29.4335-178.484 28.7773-176.987 28.3723-176.75 28.4642-176.547 28.6267-176.405 28.8379-176.026 29.2033-175.815 29.7091-175.823 30.2353-175.82 30.6395-175.913 31.0384-176.095 31.3996ZM-151.448 25.3448C-151.413 25.2312-151.413 25.1093-151.448 24.9955L-151.448 24.4521C-151.425 23.984-151.61 23.5297-151.953 23.2103-152.294 22.9044-152.737 22.7383-153.195 22.7444-153.579 22.7422-153.956 22.85-154.282 23.0548L-163.441 30.5845-163.441 23.6371C-163.433 23.2287-163.639 22.8457-163.985 22.628-164.367 22.3855-164.813 22.2637-165.266 22.2786-165.732 22.2531-166.193 22.3754-166.585 22.628-166.944 22.8338-167.154 23.2247-167.129 23.6371L-167.129 30.5845C-168.822 28.8019-170.652 27.1539-172.601 25.6554L-175.357 23.6371C-175.472 23.6075-175.592 23.6075-175.706 23.6371L-176.056 23.6371C-176.535 23.6131-177.002 23.797-177.336 24.1416-177.642 24.4826-177.808 24.926-177.802 25.3837-177.79 25.7537-177.683 26.1143-177.492 26.4316-174.879 28.3247-172.414 30.4137-170.117 32.6805-169.302 33.4956-168.293 34.5046-167.129 35.7855L-173.766 35.7855C-174.141 35.9575-174.453 36.2424-174.658 36.6006-174.886 36.9751-175.007 37.4046-175.008 37.8426-175.119 38.6062-174.59 39.3154-173.826 39.4265-173.806 39.4293-173.786 39.4319-173.766 39.434L-167.051 39.434-167.051 42.7331C-166.652 43.3422-165.992 43.73-165.266 43.7812-164.666 43.7583-164.097 43.5086-163.674 43.0824L-163.364 42.7331-163.364 39.434-153.893 39.434C-153.513 39.3825-153.166 39.1883-152.923 38.8906-152.303 37.8627-152.634 36.5269-153.662 35.907-153.737 35.8618-153.814 35.8213-153.893 35.7855L-163.364 35.7855-153.273 27.0525C-152.676 26.8387-152.161 26.4457-151.798 25.9271L-151.448 25.2284Z" fill-rule="evenodd" transform="matrix(1 0 0 -1.00294 358.775 437.732)"/></g></svg>