<svg width="1122" height="1122" xmlns="http://www.w3.org/2000/svg" xmlns:xlink="http://www.w3.org/1999/xlink" xml:space="preserve" overflow="hidden"><g transform="translate(-1570 -3135)"><path d="M553.481 1106.74C858.894 1106.74 1106.48 859.158 1106.48 553.745 1106.48 248.331 858.894 0.744401 553.481 0.744401 248.067 0.744401 0.480266 248.331 0.480266 553.745 0.480266 859.158 248.067 1106.74 553.481 1106.74" fill="#FFFFFF" fill-rule="evenodd" transform="matrix(1 0 0 -1 1578 4250)"/><path d="M561.114 1106.84C259.789 1106.84 15.5174 862.565 15.5174 561.241 15.5174 259.917 259.789 15.645 561.114 15.645 862.438 15.645 1106.71 259.917 1106.71 561.241 1106.27 862.383 862.256 1106.4 561.114 1106.84M561.114 0.740135C251.558 0.66724 0.553563 251.552 0.480308 561.107 0.406692 870.663 251.292 1121.67 560.848 1121.74 870.403 1121.81 1121.41 870.929 1121.48 561.373L1121.48 561.107C1121.11 251.777 870.444 1.10786 561.114 0.740135" fill="#FF0001" fill-rule="evenodd" transform="matrix(1 0 0 -1 1570 4257)"/><path d="M488.48 976.708C757.995 976.708 976.48 758.223 976.48 488.707 976.48 219.192 757.995 0.707307 488.48 0.707307 218.965 0.707307 0.48007 219.192 0.48007 488.707 0.48007 758.223 218.965 976.708 488.48 976.708" fill="#0F218B" fill-rule="evenodd" transform="matrix(1 0 0 -1 1643 4185)"/><path d="M513.481 920.287C288.412 920.361 105.898 738.144 105.825 513.294 105.751 288.444 288.146 106.108 513.215 106.035 738.284 105.961 920.798 288.179 920.871 513.028L920.871 513.161C920.285 737.651 738.19 919.449 513.481 919.888ZM513.481 1025.66C796.803 1025.66 1026.48 796.207 1026.48 513.161 1026.48 230.115 796.803 0.660985 513.481 0.660985 230.159 0.660985 0.480688 230.115 0.480688 513.161 0.993518 795.994 230.372 1025.15 513.481 1025.66" fill="#FF0001" fill-rule="evenodd" transform="matrix(1 0 0 -1 1618 4209)"/><path d="M513.152 919.87C288.577 919.944 106.463 737.969 106.39 513.417 106.317 288.865 288.311 106.771 512.886 106.698 737.461 106.624 919.574 288.6 919.648 513.151L919.648 513.55C919.428 737.98 737.606 919.903 513.152 920.27ZM513.152 105.633C287.99 105.633 105.459 288.145 105.459 513.284 105.459 738.423 287.99 920.935 513.152 920.935 738.211 920.935 920.699 738.585 920.846 513.55 920.626 288.502 738.224 106.12 513.152 105.899ZM513.152 1025.11C230.449 1025.11 1.27336 795.958 1.27336 513.284 1.27336 230.611 230.449 1.45905 513.152 1.45905 795.855 1.45905 1025.03 230.611 1025.03 513.284L1025.03 513.55C1024.74 796.102 795.733 1025.08 513.152 1025.38ZM513.152 0.66025C229.788 0.883942 0.256909 230.753 0.480622 514.087 0.642633 720 123.918 905.864 313.563 986.127 441.134 1040.17 585.171 1040.17 712.741 986.127 973.766 876.048 1096.12 575.232 986.031 314.234 905.837 124.116 719.511 0.558868 513.152 0.66025" fill="#FF0001" fill-rule="evenodd" transform="matrix(1 0 0 -1 1618 4210)"/><path d="M1787.26 3407.8 1841.81 3353.26 2131 3642.46 2420.19 3353.26 2474.74 3407.8 2185.54 3697 2474.74 3986.2 2420.19 4040.74 2131 3751.54 1841.81 4040.74 1787.26 3986.2 2076.46 3697Z" fill="#FF0001" fill-rule="evenodd"/></g></svg>