<svg width="328" height="327" xmlns="http://www.w3.org/2000/svg" xmlns:xlink="http://www.w3.org/1999/xlink" xml:space="preserve" overflow="hidden"><defs><clipPath id="clip0"><rect x="131" y="204" width="328" height="327"/></clipPath></defs><g clip-path="url(#clip0)" transform="translate(-131 -204)"><path d="M0 0 132.79 0 228.694-92.0989 228.694-231.606 135.547-322.734 1.86375-322.734-94.0402-230.674-94.0402-93.0308Z" fill="#FFFFFF" fill-rule="evenodd" transform="matrix(1.00375 0 0 -1 227.421 206.097)"/><path d="M0 0-95.1663-94.2345-95.1663-233.819 1.90247-327.005 137.333-327.005 231.606-234.635 231.606-93.1862 134.537 0ZM-91.0117-231.917-91.0117-96.0206 1.90247-4.27092 132.79-4.27092 227.413-95.0887 227.413-232.965 135.625-322.695 3.61084-322.695Z" fill="#FF0001" transform="matrix(1.00375 0 0 -1 226.524 204)"/><path d="M0 0 117.143 0 201.748-81.2271 201.748-204.31 119.589-284.722 1.63076-284.722-82.9744-203.495-82.9744-82.0815Z" fill="#FF0001" fill-rule="evenodd" transform="matrix(1.00375 0 0 -1 235.371 225.122)"/><path d="M0 0 116.211 0 197.127 79.1304 197.127 200.389 113.804 280.374-1.63076 280.374-83.1685 199.574-83.1685 79.9848ZM117.997-4.3098-1.63076-4.3098-87.595 78.1599-87.595 201.398-3.37801 284.684 115.512 284.684 201.398 202.253 201.398 77.3055Z" fill="#FF0001" transform="matrix(1.00375 0 0 -1 237.866 507.67)"/><path d="M0 0-0.582472-22.1316 19.7243-22.1316C18.4043 19.2843 18.3007 57.2835 19.4137 91.8659L15.531 91.8659C20.2421 101.883 25.1084 113.635 30.1301 127.121 30.6127 128.726 31.2365 130.285 31.9938 131.781 24.6101 134.16 17.364 136.946 10.2892 140.129 7.48734 121.18 0.883756 102.994-9.12447 86.663-12.3834 81.1773-16.5293 76.2703-21.394 72.1416-16.526 64.799-12.8319 56.7427-10.4446 48.2627-6.62499 52.8417-3.14715 57.6953-0.0388859 62.7841ZM58.2413 81.8483 98.6995 81.8483 98.6995 75.7913 58.2413 75.7913ZM40.4195 95.671 40.4195 63.2888C67.987 63.9878 93.4061 63.9878 116.677 63.2888 116.327 76.4514 116.327 87.3231 116.677 95.8262ZM43.448 117.453 28.15 118.152 28.15 99.3209C37.0026 99.6315 67.3529 99.8514 119.201 99.9808 123.588 99.9808 128.131 99.7478 132.829 99.3209L132.829 118.152 86.6243 117.453C89.3033 119.899 92.099 122.19 95.0109 124.365 89.3033 130.227 83.0909 136.285 76.3736 142.38 71.453 137.831 66.1093 133.762 60.4157 130.227 65.336 126.292 69.9803 122.024 74.3159 117.453ZM25.1213 21.6657 24.772 58.8236 136.828 58.8236C136.518 50.3981 136.518 37.7403 136.828 20.7728L117.414 20.7728 117.725 41.0018 43.9527 41.0018C43.9527 36.4201 43.9527 29.936 44.4576 21.5881ZM72.1416 18.2101C72.3692 11.2307 72.2136 4.24428 71.6757-2.71793 70.8992-4.03809 68.9188-4.77578 65.7738-4.77578 65.1137-4.77578 62.1629-4.30997 56.8823-3.37801 59.5546-10.1768 61.4182-17.2662 62.4346-24.5003 74.3159-24.1119 82.2367-22.7917 86.3135-20.6174 90.3905-18.4432 91.9048-14.3273 91.9825-7.99857L91.9825 18.2101 114.502 17.8606 114.502 36.1095C92.3448 35.4625 69.7213 35.4625 46.6319 36.1095L46.6319 17.8606Z" fill="#FFFFFF" fill-rule="evenodd" transform="matrix(1.00375 0 0 -1 239.58 426.482)"/><path d="M0 0C-0.249327 0.30978-0.613515 0.505844-1.00956 0.543423-1.5074 0.507968-1.96309 0.251615-2.25195-0.15538-2.58526-0.592275-2.89651-1.04584-3.18374-1.51443L-5.51347-5.39714C-7.4161-8.34806-9.16335-11.0271-10.8328-13.4733-10.8644-13.64-10.8644-13.8112-10.8328-13.978-10.8407-14.4513-10.6423-14.9049-10.2894-15.2204-9.93633-15.532-9.47869-15.6985-9.00797-15.6864-8.62761-15.7022-8.25444-15.5781-7.95969-15.3369-7.63863-15.1024-7.41708-14.7561-7.33833-14.3664L-5.47475-11.9589-5.47475-31.3728C-5.47769-32.059-4.92381-32.6176-4.23775-32.6206-4.1969-32.6207-4.15622-32.6191-4.1157-32.6152-3.72619-32.6127-3.34648-32.4908-3.02853-32.2657-2.70061-32.0562-2.45422-31.7412-2.32972-31.3728L-2.32972-7.18311C-2.02517-6.44101-1.63403-5.73714-1.16478-5.08654-0.368926-4.06015 0.140185-2.8408 0.310597-1.55315 0.29965-1.02116 0.19443-0.495224 0 0M-0.893069 10.9882C-1.49858 9.21204-2.21176 7.47459-3.02853 5.78518-3.9216 3.96032-5.39697 1.35888-7.49371-1.98024-7.72441-2.36665-8.13157-2.61385-8.58105-2.64032-9.03983-2.64343-9.47297-2.42694-9.74566-2.05801-10.0808-1.70118-10.2621-1.22703-10.2504-0.737852-10.2595-0.316316-10.1223 0.0952542-9.86216 0.427092-8.44919 2.75518-7.15321 5.15255-5.97945 7.6102-5.55235 8.50327-5.00877 9.62917-4.38757 10.9882L-4.1157 11.92C-3.72308 12.5549-3.03702 12.949-2.29084 12.9683-1.88744 12.9868-1.49907 12.8142-1.24239 12.5025-0.970351 12.0476-0.87379 11.5091-0.970678 10.9882ZM26.2862-4.1157 21.2386-4.1157 21.2386-27.4123C20.9172-29.1435 19.8719-30.655 18.3654-31.5669 17.6874-31.8923 16.9693-32.1275 16.23-32.2657L13.5897-32.2657 9.70678-31.3728C8.9137-31.1944 8.16229-30.8646 7.49371-30.4019 6.77024-29.9894 6.29233-29.2509 6.21227-28.4219 6.23564-27.9359 6.44395-27.4775 6.79474-27.1404 7.20305-26.9814 7.63798-26.9022 8.07618-26.9076 8.99294-26.995 9.88699-27.2447 10.7163-27.6453 11.5012-28.0541 12.3589-28.3047 13.2402-28.383L15.2593-28.383C16.1213-28.3792 16.918-27.9221 17.356-27.1795 17.581-26.7994 17.7634-26.3959 17.8995-25.9756L17.8995-4.23219 2.67904-4.23219 2.13546-3.9216C1.84153-3.47049 1.67994-2.94585 1.66964-2.40733 1.66344-1.91423 1.82797-1.43388 2.13546-1.04845 2.13546-1.04845 2.40733-0.776575 2.67904-0.582472L26.2086-0.582472C26.5754-0.579694 26.9099-0.792587 27.0628-1.12622 27.2919-1.51263 27.4-1.95884 27.3734-2.40733 27.3969-2.86334 27.3031-3.31788 27.1017-3.72749 26.918-4.04577 26.5759-4.23906 26.2086-4.23219ZM24.4226 7.06662 3.88287 7.06662C3.48209 7.34928 3.21528 7.7847 3.14502 8.27012 3.10777 8.67042 3.10777 9.07349 3.14502 9.47379L3.96032 10.7163 24.3062 10.7163C25.302 10.0077 25.535 8.62598 24.8264 7.62997 24.763 7.5406 24.6927 7.45613 24.6166 7.37705 24.5238 7.2635 24.4195 7.15942 24.3062 7.06645ZM-37.4685-21.3163C-37.4427-20.9803-37.4427-20.6429-37.4685-20.3068-37.7015-19.6467-38.0897-19.2972-38.5946-19.2972-38.8637-19.244-39.1408-19.244-39.4099-19.2972L-44.0303-24.1508-44.0303-4.19347C-44.0112-3.4816-44.2607-2.78835-44.7294-2.25195-45.1399-1.75411-45.7535-1.46884-46.3988-1.47554L-52.0678-1.47554C-52.5934-1.45708-53.0969-1.68713-53.4266-2.09674-53.7343-2.48233-53.899-2.96252-53.8926-3.45562-53.9121-3.87863-53.7735-4.29379-53.5044-4.62056-53.1999-4.96188-52.7574-5.14748-52.3006-5.12526L-47.9908-5.12526-47.5637-5.35825C-47.2649-5.61297-47.0487-5.95102-46.9425-6.32893L-46.9425-27.1795C-46.9293-27.7363-46.7236-28.2714-46.36-28.6936-46.0712-29.1256-45.5973-29.3982-45.0786-29.4314-44.8266-29.4175-44.5899-29.3061-44.4187-29.1207-43.448-28.0724-42.6327-27.2569-42.0501-26.5968-40.303-24.7332-38.8276-22.986-37.5462-21.4328ZM-42.3608 6.17355C-41.6772 5.8105-41.2676 5.08246-41.3125 4.3098-41.3124 3.83582-41.4619 3.37376-41.7396 2.98964-41.9733 2.61679-42.3868 2.39508-42.8268 2.40717-43.0319 2.36632-43.2429 2.36632-43.448 2.40717L-50.4759 9.78455C-50.8277 10.0149-51.0339 10.4124-51.0195 10.8328-51.0183 11.3238-50.8061 11.7904-50.4368 12.1141-50.1076 12.4595-49.6212 12.6069-49.1556 12.5025-47.7995 11.7378-46.5793 10.7538-45.5447 9.59028-43.6421 7.5326-42.5549 6.40637-42.2832 6.17339ZM-18.0548-30.1689-39.2934-30.1689C-39.6339-30.1217-39.9342-29.9217-40.1087-29.6254-40.3082-29.3136-40.4033-28.9465-40.3806-28.5771-40.4967-27.7391-40.0571-26.9223-39.2934-26.5581L-30.5571-26.5581-30.5571 11.2986C-30.5163 11.6656-30.3521 12.0079-30.0913 12.2695-29.8253 12.4763-29.4964 12.586-29.1595 12.5801-28.3318 12.6435-27.5785 12.103-27.3734 11.2986L-27.3734 1.04829-19.608 1.04829C-19.2623 0.987833-18.9549 0.79226-18.7536 0.5047-18.5863 0.167308-18.5063-0.206357-18.5206-0.582472-18.4045-1.42048-18.8443-2.23725-19.608-2.6016L-27.1793-2.6016-27.1793-26.5581-17.9383-26.5581C-17.5866-26.7172-17.2992-26.9911-17.1229-27.3347-16.9288-27.7346-16.8231-28.1715-16.8123-28.616-16.8123-29.5089-17.2005-30.0526-17.9383-30.1689ZM-62.124-21.8988-76.9949-21.8988-76.9949-32.1881C-77.1194-32.5567-77.366-32.8717-77.6939-33.0811-78.014-33.3019-78.3922-33.4233-78.7811-33.4305-79.4858-33.4952-80.1094-32.9762-80.174-32.2716-80.1764-32.2438-80.1782-32.216-80.1789-32.1881L-80.1789-21.8988-97.0689-21.8988C-97.4383-21.9143-97.7845-21.7188-97.9618-21.394-98.1737-21.0007-98.2806-20.5594-98.2724-20.1128-98.2958-19.6568-98.2023-19.2023-98.0007-18.7927-97.8174-18.4546-97.4521-18.2566-97.0689-18.288L-80.1789-18.288-80.1789-11.6483-93.186-11.6483C-93.8522-11.3357-94.2431-10.6317-94.1567-9.90121-94.2114-9.52771-94.2114-9.14849-94.1567-8.77515L-93.9237-8.30901C-92.59-6.20802-91.459-3.98483-90.5459-1.66964-90.041-0.504863-89.3033 1.2035-88.3715 3.45546L-96.564 3.45546C-97.1191 3.87029-97.4605 4.51077-97.4958 5.20287-97.4746 5.77668-97.255 6.3255-96.8746 6.75602-96.7813 6.86908-96.6773 6.97332-96.564 7.06662L-87.0512 7.06662-85.4593 13.1235C-85.0667 13.7584-84.3807 14.1525-83.6345 14.172-83.2229 14.1878-82.8305 13.9988-82.586 13.6671-82.2792 13.2859-82.1646 12.785-82.2756 12.3082L-83.5956 7.06662-63.5218 7.06662C-63.1143 7.16628-62.6867 7.01352-62.4346 6.67825-62.1866 6.284-62.0647 5.82358-62.0851 5.35809-62.0819 4.92446-62.1887 4.49672-62.3959 4.11554-62.5496 3.76458-62.8715 3.51591-63.2501 3.45562L-84.644 3.45562-89.3033-7.76558-89.0316-8.07618-80.14-8.07618-80.14-1.43666C-80.1089-1.06691-79.9431-0.721514-79.6742-0.466141-79.3933-0.258967-79.0521-0.149825-78.7033-0.15538-77.8852-0.0952542-77.1448-0.63835-76.9561-1.43666L-76.9561-8.07618-65.6185-8.07618C-65.2261-8.05739-64.8493-8.2314-64.609-8.54216-64.3312-8.89442-64.193-9.33687-64.2208-9.78471-64.1389-10.5969-64.5952-11.3681-65.3468-11.6872L-76.9949-11.6872-76.9949-18.3267-62.124-18.3267C-61.7459-18.3184-61.3973-18.5305-61.231-18.8703-61.0192-19.2636-60.9122-19.705-60.9204-20.1516-60.8908-20.5957-60.9849-21.0392-61.1921-21.433-61.3754-21.7709-61.7409-21.9688-62.124-21.9377ZM-111.008-1.47554C-111.032-0.829839-111.279-0.212402-111.707 0.271711-111.803 0.406995-111.921 0.525123-112.056 0.621194L-127.121 0.621194C-127.425 0.402584-127.666 0.107998-127.82-0.233152-127.956-0.498818-128.035-0.789482-128.053-1.08717-128.04-1.60609-127.816-2.0969-127.432-2.44622-127.353-2.5516-127.245-2.63232-127.121-2.67904L-112.056-2.67904C-111.716-2.54-111.43-2.29492-111.241-1.98024-111.134-1.82748-111.055-1.65641-111.008-1.47554M-133.217 10.1728C-133.168 10.377-133.168 10.5899-133.217 10.7939-133.217 11.28-133.366 11.7545-133.644 12.153-133.908 12.4861-134.307 12.6851-134.732 12.6966-135.089 12.6949-135.429 12.5392-135.663 12.2695-136.013 11.5316-136.285 10.8717-136.479 10.3669-137.011 8.92056-137.452 7.44224-137.799 5.94056-139.624 1.39777-141.682-3.1063-143.351-7.64893-143.439-8.11327-143.326-8.59297-143.041-8.96925-142.804-9.2591-142.443-9.41807-142.07-9.39634-141.265-9.40549-140.525-8.95291-140.167-8.2314L-138.847-5.82407-138.847-31.062C-138.827-31.7695-138.237-32.3266-137.53-32.3064-137.516-32.3062-137.502-32.3055-137.488-32.3046-137.088-32.2961-136.697-32.175-136.362-31.9551-136.034-31.7458-135.788-31.4306-135.663-31.062L-135.663 0.970514-133.295 10.0175ZM-110.464-19.4137C-109.765-19.4137-109.377-18.7538-109.377-17.8607-109.383-17.4281-109.49-17.0028-109.688-16.6183-109.829-16.2545-110.108-15.9612-110.464-15.8029L-127.665-15.8029C-127.914-15.9458-128.137-16.1297-128.325-16.3465-128.724-16.8798-128.866-17.5621-128.713-18.2102-128.724-18.4172-128.724-18.6244-128.713-18.8314-128.553-19.1997-128.183-19.4312-127.781-19.4139L-120.016-19.4139-120.016-27.8783-120.016-28.383C-120.222-28.6985-120.52-28.9427-120.87-29.0819L-122.19-29.0819C-123.087-28.8955-123.959-28.6089-124.792-28.2278-125.297-28.0163-125.836-27.8979-126.384-27.8783-127.187-27.9109-127.912-28.3697-128.286-29.0819-128.291-29.9549-127.723-30.7277-126.888-30.9846-126.129-31.3027-125.351-31.5749-124.559-31.7999L-121.647-32.4212-119.006-32.4212C-118.284-32.3712-117.659-31.8989-117.414-31.2174-117.181-30.4797-116.91-29.7807-116.638-29.0819L-116.638-19.4137ZM-104.135-14.0556C-104.139-15.0008-104.269-15.9409-104.524-16.8513-104.524-17.123-104.757-17.5114-104.912-17.9772-104.969-18.4091-105.175-18.8074-105.494-19.1033-105.789-19.3493-106.159-19.4864-106.543-19.4915-106.851-19.5103-107.156-19.4134-107.397-19.2198-107.659-18.9793-107.813-18.6432-107.824-18.288-107.871-17.6086-107.806-16.9267-107.63-16.2689-107.478-15.5924-107.387-14.9038-107.358-14.211-107.303-13.4256-107.693-12.6758-108.368-12.2697L-129.762-12.2697-130.577-13.4733-130.577-17.356C-130.583-17.7212-130.754-18.0641-131.043-18.288-131.298-18.5149-131.635-18.6273-131.975-18.5984-132.791-18.6659-133.54-18.1449-133.761-17.356L-133.761-11.6483-132.674-9.24113-131.625-8.93037-107.824-8.93037C-106.392-9.0766-105.141-9.95986-104.524-11.2601-104.372-11.5875-104.242-11.9246-104.135-12.2697ZM-107.591-4.1157C-107.699-4.86384-108.105-5.53602-108.717-5.97961-109.02-6.19593-109.345-6.37827-109.688-6.5232L-129.102-6.5232C-129.871-6.26407-130.501-5.70332-130.849-4.97005-130.849-4.69817-131.082-4.30997-131.237-3.8051L-131.237 1.63059-130.965 2.56255C-130.563 3.0233-130.057 3.38242-129.49 3.611L-129.102 3.611-110.076 3.611C-109.294 3.60986-108.571 3.19649-108.173 2.52366-107.975 2.19526-107.818 1.84283-107.707 1.47538L-107.707-4.27124ZM-105.999 6.17339-130.577 6.17339C-131.132 6.58822-131.473 7.2287-131.509 7.9208-131.481 8.49331-131.263 9.04016-130.888 9.47379-130.794 9.58718-130.69 9.69109-130.577 9.78455L-121.064 9.78455-121.064 12.5025C-121.105 12.9284-120.892 13.3387-120.521 13.5508-120.354 13.5843-120.183 13.5843-120.016 13.5508L-118.696 13.5508C-118.288 13.5932-117.904 13.3532-117.764 12.9683-117.732 12.7624-117.732 12.553-117.764 12.3469L-117.764 9.62917-106.116 9.62917C-105.77 9.59649-105.457 9.41154-105.261 9.12447-105.085 8.78887-104.992 8.41619-104.99 8.03713-104.88 7.18965-105.337 6.36994-106.116 6.01817Z" fill-rule="evenodd" transform="matrix(1.00375 0 0 -1 353.148 565.096)"/></g></svg>