<svg width="327" height="328" xmlns="http://www.w3.org/2000/svg" xmlns:xlink="http://www.w3.org/1999/xlink" xml:space="preserve" overflow="hidden"><defs><clipPath id="clip0"><rect x="-127" y="29" width="327" height="328"/></clipPath></defs><g clip-path="url(#clip0)" transform="translate(127 -29)"><path d="M0 0C89.3304 0 162.188 72.858 162.188 162.189 162.188 251.519 89.3304 324.377 0 324.377-89.3302 324.377-162.188 251.519-162.188 162.189-162.188 72.858-89.3302 0 0 0" fill="#FFFFFF" fill-rule="evenodd" transform="matrix(1 0 0 -1.00257 36.5001 355.51)"/><path d="M0 0C-88.7155 0-160.891-72.1744-160.891-160.891-160.891-249.607-88.7155-321.782 0-321.782 88.7155-321.782 160.891-249.607 160.891-160.891 160.891-72.1744 88.7155 0 0 0M0-324.377C-90.1465-324.377-163.486-251.037-163.486-160.891-163.486-70.7453-90.1465 2.59534 0 2.59534 90.1467 2.59534 163.486-70.7453 163.486-160.891 163.486-251.037 90.1467-324.377 0-324.377" fill="#FF0001" transform="matrix(1 0 0 -1.00257 36.4999 31.6018)"/><path d="M0 0C-68.9104 0-125.108-56.1989-125.108-125.109-125.108-194.017-68.9104-250.217 0-250.217 68.9085-250.217 125.106-194.017 125.106-125.109 125.106-56.1989 68.9085 0 0 0M0 27.2792C83.9343 27.2792 152.384-41.173 152.384-125.109 152.384-209.041 83.9343-277.496 0-277.496-83.936-277.496-152.386-209.041-152.386-125.109-152.386-41.173-83.936 27.2792 0 27.2792" fill="#FF0001" fill-rule="evenodd" transform="matrix(1 0 0 -1.00257 36.5006 67.4757)"/><path d="M0 0C-68.8939 0-124.944-56.0496-124.944-124.945-124.944-193.84-68.8939-249.889 0-249.889 68.8931-249.889 124.941-193.84 124.941-124.945 124.941-56.0496 68.8931 0 0 0M0-250.217C-69.0761-250.217-125.273-194.021-125.273-124.945-125.273-55.8687-69.0761 0.32779 0 0.32779 69.0743 0.32779 125.271-55.8687 125.271-124.945 125.271-194.021 69.0743-250.217 0-250.217M0 27.2798C-83.9355 27.2798-152.222-41.0092-152.222-124.945-152.222-208.88-83.9355-277.167 0-277.167 83.9335-277.167 152.219-208.88 152.219-124.945 152.219-41.0092 83.9335 27.2798 0 27.2798M0-277.495C-20.535-277.495-40.4823-273.451-59.2852-265.475-77.4403-257.775-93.7586-246.757-107.786-232.73-121.813-218.701-132.831-202.384-140.531-184.228-148.507-165.426-152.551-145.479-152.551-124.945-152.551-104.409-148.507-84.4634-140.531-65.6594-132.831-47.5032-121.813-31.1862-107.786-17.1576-93.7586-3.13076-77.4403 7.88707-59.2852 15.5874-40.4823 23.5639-20.535 27.6076-9.29312e-15 27.6076 20.535 27.6076 40.4815 23.5639 59.2844 15.5874 77.4385 7.88707 93.7566-3.13076 107.783-17.1576 121.811-31.1862 132.828-47.5032 140.528-65.6594 148.504-84.4634 152.549-104.409 152.549-124.945 152.549-145.479 148.504-165.426 140.528-184.228 132.828-202.384 121.811-218.701 107.783-232.73 93.7566-246.757 77.4385-257.775 59.2844-265.475 40.4815-273.451 20.535-277.495 0-277.495" fill="#FF0001" transform="matrix(1 0 0 -1.00257 36.5009 67.6403)"/><path d="M0 0C-0.375364 0.371114-0.768058 0.556017-1.17808 0.556017-1.65563 0.556017-2.13301 0.320924-2.61104-0.151388-2.78156-0.320433-3.14024-0.775415-3.68662-1.51764-4.77838-3.03561-5.68213-4.28301-6.39934-5.26099-8.58385-8.22925-10.6482-10.9271-12.5935-13.3552-12.6277-13.4569-12.6447-13.6251-12.6447-13.8613-12.6447-14.401-12.4397-14.8226-12.0305-15.1259-11.6209-15.429-11.1256-15.5814-10.5457-15.5814-10.0678-15.5814-9.65812-15.472-9.31692-15.2528-8.97605-15.0329-8.73687-14.7046-8.60069-14.2656L-6.45084-11.838-6.45084-31.2638C-6.314-32.1074-5.78463-32.528-4.86355-32.528-4.41969-32.528-3.99332-32.41-3.58427-32.1748-3.17409-31.9385-2.90123-31.6344-2.76504-31.2638L-2.76504-6.98103C-2.59404-6.50904-2.15033-5.80066-1.4341-4.85603-0.273022-3.3052 0.3067-2.12499 0.3067-1.31525 0.3067-0.910292 0.204194-0.472312 0 0M-0.921245 11.2312C-1.74064 9.24024-2.57736 7.48718-3.42978 5.96954-4.45435 4.14814-6.17733 1.55132-8.60069-1.8214-8.94139-2.25938-9.36891-2.47862-9.88013-2.47862-10.3922-2.47862-10.8445-2.28456-11.2372-1.89709-11.6296-1.50898-11.825-1.06266-11.825-0.556507-11.825-0.151388-11.6721 0.236565-11.3649 0.607351-9.79479 2.7997-8.25949 5.2108-6.75738 7.84129-6.24567 8.71791-5.63161 9.8476-4.91456 11.2312L-4.60786 12.1416C-3.99332 12.8502-3.2761 13.2035-2.45736 13.2035-1.94614 13.2035-1.54478 13.0433-1.25459 12.7233-0.964406 12.4029-0.853889 11.9054-0.921245 11.2312M30.4071-3.94574 24.5713-3.94574 24.5713-27.3177C24.0593-29.2068 22.9334-30.5896 21.1927-31.4664 20.6125-31.7358 19.7938-31.9717 18.7357-32.1748L15.6639-32.1748 11.0571-31.2638C10.1007-31.0956 9.24809-30.7747 8.49736-30.302 7.50794-29.6961 7.01307-29.0376 7.01307-28.3297 7.01307-27.8909 7.23492-27.4526 7.6783-27.0145 8.12249-26.8793 8.6172-26.8116 9.16308-26.8116 9.91397-26.8116 10.9371-27.056 12.2338-27.5451 13.5314-28.0345 14.5035-28.2787 15.1524-28.2787 15.3911-28.2455 15.5616-28.2287 15.6639-28.2287L17.5069-28.2287C18.531-28.2287 19.3496-27.8232 19.9643-27.0145 20.1693-26.7447 20.3735-26.3398 20.5785-25.8001L20.5785-3.94574 3.07076-3.94574 2.45654-3.64215C2.08102-3.13665 1.8935-2.63049 1.8935-2.12499 1.8935-1.61884 2.08102-1.16288 2.45654-0.75874 2.55921-0.6237 2.76406-0.472312 3.07076-0.303104L30.4071-0.303104C30.8508-0.303104 31.1922-0.480323 31.4304-0.835088 31.6696-1.18887 31.7893-1.61884 31.7893-2.12499 31.7893-2.66417 31.6782-3.10281 31.4564-3.44008 31.2345-3.77735 30.8845-3.94574 30.4071-3.94574M28.2566 7.28511 4.60721 7.28511C4.095 7.65623 3.80465 8.05235 3.73664 8.47398 3.66814 8.89529 3.65114 9.30842 3.68531 9.71321L4.60721 10.9271 28.2566 10.9271C28.9739 10.3879 29.3324 9.79757 29.3324 9.15703 29.3324 8.61687 29.093 8.0942 28.6157 7.58871 28.5468 7.52086 28.4272 7.41999 28.2566 7.28511M-37.9846-9.40962-46.5841-9.40962-46.5841-13.3554-37.9846-13.3554ZM-37.9846-5.76731-37.9846-1.8214-45.356-1.8214-46.5839-3.03561-46.5839-5.76731ZM-25.3917-9.40962-34.2983-9.40962-34.2983-13.3554-25.3917-13.3554ZM-25.3917-5.76731-25.3917-3.03561-26.6197-1.8214-34.2983-1.8214-34.2983-5.76731ZM-20.7838-31.8705C-19.9309-31.5674-19.5046-30.8927-19.5046-29.8474-19.5046-29.4086-19.6066-29.046-19.8113-28.7597-20.0161-28.4733-20.34-28.296-20.7838-28.2287L-37.9846-28.2287C-41.499-28.2287-44.2641-27.9754-46.2772-27.4699-49.348-26.6935-51.703-25.2271-53.3412-23.0681L-53.6483-20.9434-53.6483-1.8214C-53.8534-1.34893-54.0412-0.994814-54.2116-0.75874-54.7924-0.0506807-55.526 0.303594-56.4129 0.303594L-61.6342 0.303594C-61.9073 0.269916-62.112 0.219235-62.2487 0.151879-62.6582-0.0506807-62.8634-0.404465-62.8634-0.910292L-62.8634-2.42843C-62.7604-2.66417-62.6756-2.83289-62.6067-2.93409-62.3339-3.27103-62.0095-3.50711-61.6342-3.64215L-58.5629-3.64215C-58.2899-3.67583-58.085-3.72634-57.9489-3.79386-57.5393-3.99626-57.3341-4.35004-57.3341-4.85603L-57.3341-22.1579C-57.5393-23.3045-58.6996-24.5355-60.8154-25.8511-62.7951-27.0648-63.785-28.3634-63.785-29.7458-63.5456-30.5216-62.9823-30.9092-62.0952-30.9092-61.481-30.9092-60.8583-30.758-60.2264-30.4542-59.5952-30.1511-59.1434-29.8132-58.8701-29.4426L-55.1843-26.1037C-53.4437-28.3297-50.8155-29.8642-47.301-30.7076-46.3797-30.9092-43.3763-31.2972-38.2911-31.8705ZM-53.6483 8.49867C-52.9321 8.06053-52.5731 7.40266-52.5731 6.52654-52.5731 5.98621-52.7353 5.55641-53.0603 5.23581-53.3846 4.91587-53.8877 4.78949-54.5701 4.85652L-61.0195 9.71321C-61.1221 9.91544-61.1908 10.1685-61.225 10.4718-61.2586 10.6067-61.2766 10.742-61.2766 10.8766-61.2766 11.2135-61.242 11.5176-61.1736 11.7874-61.1736 11.8882-61.1221 12.0068-61.0195 12.1416-60.6102 12.2428-60.2354 12.2934-59.894 12.2934-58.8701 12.2934-57.7783 11.8042-56.6174 10.8266-55.0138 9.44329-54.0242 8.66788-53.6483 8.49867M-21.7053-22.7651-22.3196-24.2823C-22.6613-24.9228-23.1047-25.3875-23.6509-25.6737-24.1968-25.9601-24.8282-26.1037-25.5449-26.1037-26.227-26.1037-27.0465-25.9683-28.0018-25.6987-28.4795-25.5639-29.2474-25.2941-30.3058-24.8896-31.1245-24.8896-31.5337-24.3495-31.5337-23.2708-31.5337-22.8322-31.4322-22.4612-31.227-22.1579-30.8175-21.8544-30.3569-21.7026-29.8449-21.7026-29.4006-21.7026-28.7787-21.8462-27.9764-22.1329-27.1742-22.4192-26.6541-22.5624-26.415-22.5624-26.0049-22.5624-25.6646-22.4279-25.3917-22.1579L-25.3917-16.9978-34.2983-16.9978-34.2983-24.8896C-34.2983-25.3281-34.4778-25.6654-34.8358-25.9013-35.1943-26.1374-35.6295-26.2556-36.1414-26.2556-36.6878-26.2556-37.1307-26.1457-37.4724-25.9263-37.8137-25.7071-37.9846-25.362-37.9846-24.8896L-37.9846-16.9978-46.5839-16.9978-46.5839-24.2823C-47.028-24.9912-47.523-25.3445-48.0686-25.3445-48.4441-25.3445-48.8195-25.1764-49.195-24.8386-49.297-24.7378-49.4507-24.5524-49.6558-24.2823L-49.6558-0.607351C-49.5193 0.134876-49.0751 0.759067-48.3244 1.26473-48.0861 1.43377-47.71 1.61884-47.1985 1.82189L-36.4486 1.82189-36.4486 2.1245-40.7486 3.94623C-41.499 4.11495-42.1984 4.40105-42.8475 4.80601-43.6667 5.312-44.0759 5.85183-44.0759 6.42485-44.0759 6.82964-43.8882 7.21727-43.5127 7.58871-43.1373 7.82445-42.711 7.94233-42.2334 7.94233-41.6524 7.94233-40.8256 7.69808-39.7505 7.20909-38.6751 6.71994-37.9846 6.44152-37.6764 6.37417-37.1307 6.03738-36.6023 5.86834-36.0901 5.86834-35.4072 5.86834-34.665 6.1636-33.8631 6.75362-33.0617 7.34331-32.2846 7.92598-31.5337 8.49867L-48.4268 8.49867C-49.1777 8.80243-49.5699 9.20755-49.605 9.71321-49.6387 10.2192-49.6558 10.6238-49.6558 10.9271-49.5193 11.298-49.2806 11.6191-48.939 11.8882-48.8365 11.9561-48.6661 12.0399-48.4268 12.1416L-26.313 12.1416C-25.5621 11.9054-24.9814 11.4328-24.5721 10.7249-24.4355 10.4886-24.2993 10.1514-24.1626 9.71321-26.1079 8.19557-28.0706 6.76163-30.0498 5.41303-30.766 4.94105-31.6712 4.35053-32.7628 3.64215-32.5925 3.37272-32.5065 3.06945-32.5065 2.73169-32.5065 2.49611-32.5415 2.27638-32.609 2.07431-32.609 2.00679-32.6598 1.92244-32.7628 1.82189L-24.7772 1.82189C-23.8896 1.6862-23.1047 1.24822-22.422 0.505663-22.2171 0.269916-21.9779-0.100708-21.7053-0.607351ZM-70.7464-29.139C-70.8827-29.5096-71.1219-29.7795-71.4631-29.9486-71.5656-29.9824-71.7361-30.0156-71.9748-30.0494L-113.44-30.0494-114.668-29.139-114.668-27.3177-112.825-26.1037-106.99-26.1037-106.99 2.42875C-106.854 2.7997-106.581 3.10313-106.17 3.33904-105.761 3.57495-105.335 3.69315-104.891 3.69315-103.97 3.69315-103.44 3.27152-103.304 2.42875L-103.304-26.1037-91.6319-26.1037-91.6319 10.0168C-91.6319 10.4548-91.4534 10.7922-91.0946 11.0285-90.7365 11.2644-90.3013 11.3826-89.7898 11.3826-89.2432 11.3826-88.8 11.2727-88.4582 11.0538-88.1166 10.8346-87.9466 10.4886-87.9466 10.0168L-87.9466 0.607351-74.1252 0.607351C-73.7153 0.472802-73.3403 0.236565-72.9991-0.100708-72.8966-0.202396-72.7597-0.370623-72.5895-0.607351L-72.5895-2.42843C-72.7261-2.7997-72.9649-3.11915-73.3058-3.38891-73.4081-3.45659-73.5793-3.54128-73.8176-3.64215L-87.9466-3.64215-87.9466-26.1037-71.9748-26.1037C-71.5995-26.2386-71.2751-26.4746-71.0021-26.8116-70.9342-26.9129-70.8491-27.0815-70.7464-27.3177ZM-151.117-24.2823C-153.403-26.07-155.57-27.5708-157.618-28.7847-159.938-30.1673-162.276-31.2972-164.631-32.1748-165.279-32.1074-165.723-31.9125-165.962-31.5924-166.201-31.272-166.32-30.8757-166.32-30.4037-166.32-30.1004-166.304-29.8642-166.268-29.6961-166.268-29.6278-166.235-29.5438-166.167-29.4426-165.314-28.8017-164.255-28.1442-162.992-27.4699-159.58-25.6819-157.771-24.7211-157.567-24.5856L-153.573-22.1579C-153.3-21.9887-153.061-21.9054-152.857-21.9054-152.413-21.9054-152.012-22.1661-151.654-22.689-151.295-23.2116-151.117-23.7429-151.117-24.2823M-124.702-19.7295C-124.292-19.7295-123.976-19.553-123.754-19.1984-123.533-18.8441-123.422-18.4314-123.422-17.9588-123.422-17.4868-123.533-17.1074-123.754-16.8209-123.976-16.5342-124.292-16.3906-124.702-16.3906L-163.709-16.3906C-163.949-16.4246-164.119-16.458-164.222-16.4918-164.562-16.6604-164.802-16.9308-164.938-17.3013-164.938-17.605-164.921-18.0095-164.887-18.515-164.852-19.0211-164.46-19.4258-163.709-19.7295L-145.28-19.7295-145.28-28.5318C-145.383-28.9707-145.562-29.282-145.818-29.4677-146.074-29.6533-146.356-29.7458-146.663-29.7458-147.141-29.7458-147.721-29.5944-148.403-29.2904-148.574-29.2233-149.069-28.9707-149.888-28.5318-150.024-28.4979-150.195-28.4816-150.4-28.4816-151.423-28.4816-151.935-29.0376-151.935-30.1511-151.935-30.6229-151.816-31.0446-151.577-31.4152-151.338-31.7863-150.98-32.0389-150.502-32.1748-150.024-32.41-149.632-32.5791-149.324-32.6803-148.369-33.0172-147.43-33.2534-146.51-33.388L-144.666-33.388C-144.018-33.1521-143.54-32.9165-143.233-32.6803-142.277-31.9717-141.731-30.9939-141.595-29.7458L-141.595-19.7295ZM-123.166-30.6566C-122.791-30.9265-122.603-31.2972-122.603-31.77-122.603-32.1748-122.791-32.5627-123.166-32.9333-123.542-33.3044-123.968-33.4895-124.446-33.4895-124.685-33.4895-124.872-33.4563-125.009-33.388L-132.381-28.2287C-132.654-27.8909-133.285-27.3681-134.274-26.6597-135.879-25.5138-136.681-24.4173-136.681-23.3723-136.373-22.6298-135.964-22.2418-135.452-22.2081-134.94-22.1745-134.53-22.1579-134.224-22.1579ZM-128.387-13.3552-159.409-13.3552C-159.785-13.2206-160.109-12.9842-160.382-12.6468-160.45-12.5459-160.536-12.3779-160.637-12.1413-160.775-11.3991-160.536-10.7919-159.922-10.3199-159.819-10.2529-159.649-10.1518-159.409-10.0165L-128.387-10.0165C-127.978-10.0165-127.663-10.16-127.441-10.4461-127.219-10.7334-127.108-11.1127-127.108-11.584-127.108-12.0568-127.219-12.4698-127.441-12.824-127.663-13.1783-127.978-13.3552-128.387-13.3552M-145.588 0.607351C-146.51 1.14718-147.26 1.60217-147.84 1.97361-149.478 3.01845-150.98 4.08111-152.345 5.16012L-147.123 5.16012C-146.953 5.29532-146.833 5.39635-146.765 5.46387-146.287 5.96954-146.048 6.49188-146.048 7.0322-146.048 7.67274-146.407 8.26341-147.123 8.80243L-152.345 8.80243-152.345 12.7488C-152.652 13.5919-153.334 14.0132-154.393 14.0132-154.836 14.0132-155.203 13.9124-155.493 13.7098-155.783 13.5071-155.962 13.187-156.031 12.7488L-156.031 8.80243-164.016 8.80243C-164.87 8.66788-165.296 8.14538-165.296 7.23394-165.296 6.79629-165.177 6.37417-164.938 5.96954-164.699 5.56491-164.392 5.29532-164.016 5.16012L-156.337 5.16012-166.167-2.7312C-166.371-3.10281-166.473-3.45659-166.473-3.79386-166.473-4.26617-166.312-4.67914-165.987-5.03358-165.663-5.3872-165.245-5.56458-164.733-5.56458L-164.375-5.56458C-164.272-5.56458-164.153-5.53074-164.016-5.46338-162.959-4.68797-162.088-4.04743-161.406-3.54128-159.392-1.98946-157.6-0.50599-156.031 0.910782L-156.031-6.98103C-155.894-7.82396-155.365-8.24592-154.444-8.24592-154-8.24592-153.573-8.12805-153.164-7.89148-152.755-7.65574-152.481-7.35214-152.345-6.98103L-152.345 0.910782C-151.696 0.303594-151.15-0.151388-150.707-0.455473-149.376-1.36576-147.977-2.02314-146.51-2.42843-146.202-2.25938-145.997-2.10767-145.895-1.97312-145.52-1.56865-145.332-1.09601-145.332-0.556507-145.332-0.151388-145.417 0.236565-145.588 0.607351M-120.709-5.46338C-120.641-5.59826-120.607-5.7163-120.607-5.81717L-120.607-6.17177C-120.607-6.67792-120.786-7.0904-121.144-7.41132-121.503-7.73143-121.92-7.89148-122.398-7.89148-122.739-7.89148-123.098-7.79061-123.473-7.58772L-132.688 0-132.688-6.98103C-132.688-7.4195-132.866-7.75677-133.225-7.99317-133.583-8.22925-134.019-8.34696-134.53-8.34696-135.076-8.34696-135.52-8.23758-135.861-8.01851-136.203-7.79928-136.373-7.45334-136.373-6.98103L-136.373 0C-137.875-1.585-139.718-3.23719-141.902-4.95739-142.619-5.49706-143.54-6.17177-144.666-6.98103-144.803-7.04838-144.922-7.08206-145.025-7.08206L-145.383-7.08206C-145.895-7.08206-146.313-6.90533-146.637-6.55155-146.961-6.19695-147.123-5.78431-147.123-5.31151-147.123-4.97423-147.021-4.62012-146.816-4.24917-144.291-2.42843-141.817-0.337272-139.394 2.02331-138.575 2.83338-137.568 3.87871-136.373 5.16012L-143.131 5.16012C-143.506 5.29532-143.813 5.56491-144.052 5.96954-144.291 6.37417-144.41 6.79629-144.41 7.23394-144.41 8.14538-143.984 8.66788-143.131 8.80243L-136.373 8.80243-136.373 9.10586-136.373 12.1416C-135.827 12.8502-135.23 13.2035-134.582 13.2035-134.035 13.2035-133.507 12.9681-132.994 12.4956-132.927 12.4281-132.824 12.31-132.688 12.1416L-132.688 8.80243-123.166 8.80243C-122.723 8.73491-122.398 8.55802-122.193 8.27175-121.988 7.98434-121.886 7.62157-121.886 7.18342-121.886 6.13809-122.313 5.46387-123.166 5.16012L-132.688 5.16012-122.552-3.64215C-121.904-3.87822-121.409-4.24917-121.067-4.75533-120.965-4.92388-120.845-5.16012-120.709-5.46338" fill-rule="evenodd" transform="matrix(1 0 0 -1.00257 103.842 394.806)"/></g></svg>