<svg width="327" height="328" xmlns="http://www.w3.org/2000/svg" xmlns:xlink="http://www.w3.org/1999/xlink" xml:space="preserve" overflow="hidden"><defs><clipPath id="clip0"><rect x="193" y="292" width="327" height="328"/></clipPath></defs><g clip-path="url(#clip0)" transform="translate(-193 -292)"><path d="M0 0C34.1299 82.3969 128.593 121.525 210.99 87.3951 293.387 53.2652 332.515-41.1984 298.386-123.595 264.255-205.992 169.792-245.12 87.3951-210.99 4.9982-176.861-34.1299-82.3968 0 0" fill="#FFFFFF" transform="matrix(1 0 0 -1.00256 207.461 394.085)"/><path d="M0 0C-87.984 0-159.309-71.3251-159.309-159.309-159.309-247.293-87.984-318.618 0-318.618 87.984-318.618 159.309-247.293 159.309-159.309 159.181-71.3784 87.9307-0.128515 0 0M0-322.97C-90.366-322.97-163.622-249.714-163.622-159.348-163.622-68.9819-90.366 4.27407 0 4.27407 90.3662 4.27407 163.622-68.9819 163.622-159.348 163.515-249.67 90.3217-322.863 0-322.97" fill="#FF0001" transform="matrix(1 0 0 -1.00256 356.665 296.285)"/><path d="M0 0C-65.6661 0-118.899-53.2328-118.899-118.899-118.899-184.565-65.6661-237.798 0-237.798 65.6661-237.798 118.899-184.565 118.899-118.899 118.771-53.2859 65.6128-0.128347 0 0M0 30.735C82.6406 30.7135 149.617-36.2973 149.595-118.938 149.574-201.578 82.5629-268.554-0.0777104-268.533-82.7031-268.511-149.673-201.524-149.673-118.899-149.502-36.3142-82.5849 30.5855 0 30.735" fill="#FF0001" fill-rule="evenodd" transform="matrix(1 0 0 -1.00256 356.665 336.838)"/><path d="M0 0C-65.5802 0.0213913-118.761-53.1245-118.782-118.705-118.804-184.285-65.6579-237.466-0.0775433-237.487 65.5027-237.509 118.683-184.363 118.705-118.782L118.705-118.627C118.619-53.0974 65.5296 0.00952579 0 0.116649ZM0-237.798C-65.7519-237.798-119.054-184.495-119.054-118.743-119.054-52.9915-65.7519 0.310842 0 0.310842 65.7066 0.310842 118.99-52.9206 119.054-118.627 118.99-184.352 65.7253-237.617 0-237.681ZM0 30.735C-82.5547 30.735-149.479-36.1888-149.479-118.744-149.479-201.298-82.5547-268.222 0-268.222 82.5548-268.222 149.479-201.298 149.479-118.743L149.479-118.627C149.372-36.1166 82.5104 30.7446 0 30.8515ZM0-268.455C-82.49-268.215-149.167-201.149-148.926-118.659-148.686-36.1686-81.6193 30.5079 0.870524 30.2674 83.3607 30.027 150.037-37.0393 149.797-119.529 149.622-179.51 113.583-233.568 58.2838-256.799 39.8377-264.565 20.0144-268.53 0-268.455" fill="#FF0001" transform="matrix(1 0 0 -1.00256 356.665 337.11)"/><path d="M0 0 21.0988-2.87545 197.699-166.031 197.699-181.418 182.351-181.418 5.75074-17.2908Z" fill="#FF0001" fill-rule="evenodd" transform="matrix(1 0 0 -1.00256 253.115 365.002)"/><path d="M0 0 15.1148 0 15.1148 15.1148-161.369 178.31-182.195 181.146-176.25 164.049ZM15.5422-0.34978 0-0.34978-176.755 163.894-182.584 181.418-182.312 181.418-161.174 178.543 15.5035 15.3481Z" fill="#FF0001" transform="matrix(1 0 0 -1.00256 435.465 546.69)"/><path d="M0 0-15.7754 1.20459-41.2261 13.3664C-43.8977 14.6376-46.7588 15.4645-49.6966 15.8143L-89.9514 16.0474-97.9555 15.5422-129.584-3.10842-161.329-6.9941C-175.395-9.90833-172.132-27.1991-172.132-27.1991L-169.217-30.5795-159.387-30.5795-158.61-30.5795C-158.255-21.6738-150.749-14.7414-141.843-15.0955-132.938-15.4495-126.005-22.9562-126.359-31.8618L-126.359-33.0274-46.3938-33.0274-46.3938-31.7063-46.3938-30.5019C-46.3938-21.5961-39.1744-14.3766-30.2686-14.3766-21.363-14.3766-14.1435-21.5961-14.1435-30.5019L-2.02047-30.5019 0.310842-29.2973 2.21483-25.0232 5.75074-23.3135 5.75074-19.0394 0.971296-15.5422ZM-35.592-2.52567-70.5622-2.52567-70.5622 11.9676-52.2612 11.9676C-52.2612 11.9676-39.1665 8.89809-35.6308-2.64215ZM-75.3804 12.2007-75.3804-3.61362-113.809-3.61362-92.71 11.9288-75.3804 12.1619Z" fill-rule="evenodd" transform="matrix(1 0 0 -1.00256 439.972 441.472)"/><path d="M0 0C4.16294 0.0208899 7.55495-3.33687 7.57584-7.49997 7.5969-11.6631 4.23898-15.0549 0.0758721-15.0758-4.05648-15.0967-7.43513-11.7866-7.49914-7.65472-7.62815-3.49346-4.35914-0.0158763-0.198036 0.112973-0.132024 0.114978-0.0661792 0.116315 8.16374e-16 0.116482ZM0 6.06158C-7.51084 6.06158-13.5997-0.0272404-13.5997-7.53808-13.5997-15.0489-7.51084-21.1376 0-21.1376 7.51067-21.1376 13.5995-15.0489 13.5995-7.53808 13.5995-0.0272404 7.51067 6.06158 0 6.06158" fill-rule="evenodd" transform="matrix(1 0 0 -1.00256 410.131 464.962)"/><path d="M0 0C4.1631 0 7.53791-3.37497 7.53791-7.53808 7.53791-11.7013 4.16294-15.0762-0.000167119-15.076-4.16327-15.076-7.53808-11.701-7.53808-7.53791-7.53808-7.52504-7.53808-7.51217-7.53808-7.49914-7.51668-3.35124-4.14806 0 0 0M0 6.06158C-7.51084 6.08297-13.6169 0.0116983-13.6383-7.49914-13.6596-15.01-7.58838-21.116-0.0775433-21.1374 7.43329-21.159 13.5393-15.0875 13.5607-7.57668 13.5609-7.55094 13.5609-7.52504 13.5607-7.49914 13.5393-0.0185502 7.48059 6.04019 0 6.06158" fill-rule="evenodd" transform="matrix(1 0 0 -1.00256 296.905 465.702)"/><path d="M0 0C3.40873-1.80606 6.68126-3.85778 9.79168-6.13929 10.576-6.96085 10.7763-8.17931 10.2969-9.20893 9.75291-10.3358 9.01457-10.6077 8.15976-9.9471 5.27328-7.3011 2.04537-5.05335-1.43773-3.264-2.40585-2.83752-2.8549-1.71498-2.44779-0.738332-1.95546 0.116315-0.882723 0.439858 0 0M1.16566 34.3485 1.16566 31.2789 9.48083 31.2789C10.2192 31.2789 10.6465 30.5019 10.7631 29.3361 10.8798 28.1703 10.2192 27.4321 9.48083 27.4321L1.9817 27.4321C4.34677 23.8589 7.53056 20.9016 11.2682 18.8061 12.0195 18.1338 12.2818 17.0695 11.9288 16.125 11.4625 15.076 10.8409 14.8429 9.9471 15.3481 6.4157 17.4192 3.4104 20.2782 1.16566 23.702L1.16566 15.6589C1.16566 14.4932 0.505034 13.9493-0.466262 13.9493-1.43773 13.9493-2.09818 14.4932-2.09818 15.6589L-2.09818 23.1193C-3.86781 20.121-6.18792 17.4843-8.93686 15.3481-10.0248 14.5708-10.9184 14.6485-11.579 15.3481-12.1539 16.427-11.7978 17.7668-10.763 18.4177-7.6594 20.9363-5.09563 24.0551-3.22506 27.5877L-7.80998 27.5877C-8.70707 27.5006-9.5049 28.1571-9.59197 29.0543-9.59982 29.135-9.60166 29.2163-9.59732 29.2973-9.59732 30.5795-9.05334 31.279-7.9654 31.4344L-2.09818 31.4344-2.09818 34.6983C-1.01024 36.1748 0.0777104 36.136 1.16566 34.3485M5.40096 8.82021-21.7982 8.82021C-22.8861 8.82021-23.4689 9.40312-23.5855 10.5686-23.5874 11.5763-22.8039 12.4109-21.7982 12.4726L5.40096 12.4726C6.13929 12.4726 6.60555 11.6955 6.68326 10.5686 6.76097 9.4419 6.13929 8.82021 5.40096 8.82021M8.82038 2.48673-6.33348 2.48673-6.33348-5.94493C-5.90599-10.1415-8.7425-11.3071-14.8041-9.40329-15.5812-9.01457-15.8531-8.23747-15.62-7.07181-15.62-6.06158-14.8818-5.67303-13.988-5.94493-10.8409-6.95516-9.40312-6.64449-9.59732-4.97363L-9.59732 2.48673-25.7225 2.48673C-26.7327 2.48673-27.1991 3.06948-27.1991 4.2353-27.1991 5.40079-26.7327 6.02264-25.7225 6.13912L8.97563 6.13912C9.75291 6.13912 10.1802 5.36202 10.2969 4.2353 10.4134 3.10842 9.67519 2.48673 8.82038 2.48673M-17.6017 0.194192C-16.8246 0.699394-16.1252 0.466262-15.4647-0.582744-14.896-1.43856-15.0452-2.58266-15.8143-3.26384-18.9112-5.77881-22.3039-7.9059-25.9168-9.59748-26.8883-9.9471-27.5877-9.59748-28.015-8.43166-28.4462-7.51752-28.088-6.4259-27.1991-5.94493-23.6024-4.59912-20.3315-2.50679-17.6017 0.194192M-16.2806 34.5429-16.2806 31.279-11.8899 31.279C-11.1128 31.279-10.6853 30.5795-10.5688 29.5305-10.4521 28.4814-10.9573 27.8208-11.7344 27.8208L-15.62 27.8208C-13.7233 26.2686-11.9798 24.5379-10.4134 22.653-9.69291 21.8894-9.69291 20.6967-10.4134 19.933-11.2682 19.1946-12.0453 19.2337-12.667 19.933-13.2886 20.6325-15.076 22.653-16.5525 24.1683L-16.5525 15.3481C-16.5525 14.1824-17.1743 13.6383-18.0291 13.6383-18.8866 13.677-19.5506 14.4033-19.512 15.2608-19.5107 15.2899-19.5085 15.319-19.5056 15.3481L-19.5056 24.3626C-21.1526 21.4263-23.2956 18.7972-25.8391 16.5914-26.8106 15.6978-27.7042 15.6978-28.4425 16.5914-29.1127 17.4837-28.9327 18.7503-28.0404 19.4204-28.0194 19.4363-27.998 19.4518-27.9762 19.4667-25.1503 21.7619-22.7668 24.5535-20.9432 27.7042L-25.9168 27.7042C-26.7655 27.5755-27.5579 28.1589-27.6868 29.0075-27.6973 29.0777-27.7033 29.1486-27.7042 29.2196-27.8335 30.1548-27.1803 31.018-26.2449 31.1475-26.1877 31.1553-26.1301 31.1604-26.0723 31.1624L-19.2336 31.1624-19.2336 34.4262C-18.2623 36.1748-17.2519 36.1748-16.2806 34.5429" transform="matrix(1 0 0 -1.00256 223.584 679.489)"/><path d="M0 0 0-8.50954 12.3951-8.50954C13.3664-8.50954 13.9103-9.40329 14.027-10.8021 14.1435-12.2009 13.3664-12.9001 12.3951-12.9001L0-12.9001 0-35.9029 14.843-35.9029C15.8143-35.9029 16.2806-36.68 16.2806-37.8456 16.2806-39.0115 15.6589-39.8273 14.6487-39.944L-22.3422-39.944C-23.4301-39.944-23.9741-39.2444-23.9741-37.8456-24.1034-36.9103-23.4502-36.0473-22.5148-35.9179-22.4575-35.9101-22.4-35.905-22.3422-35.9029L-17.252-35.9029-17.252-7.34372C-17.3167-6.35888-16.5705-5.50791-15.5855-5.44324-15.5324-5.43973-15.4791-5.43856-15.4258-5.43989-14.42-5.50156-13.6366-6.33615-13.6384-7.34372L-13.6384-35.9029-3.69133-35.9029-3.69133-0.0777104C-3.82068 0.857655-3.16741 1.72066-2.23204 1.85001-2.17472 1.85786-2.11707 1.86288-2.05941 1.86505-1.10967 2.04002-0.197869 1.41199-0.0228953 0.462419 0.00518069 0.309839 0.0128682 0.154418 0 0" transform="matrix(1 0 0 -1.00256 260.925 647.195)"/><path d="M0 0C0.444537-1.16114-0.0367662-2.47203-1.12688-3.06964-2.21082-3.15237-3.18947-2.42256-3.41926-1.36002-5.50541 6.19427-8.00902 13.6272-10.9184 20.9044-11.5402 22.3032-11.3848 23.3135-10.4134 23.9741-9.44206 24.6345-8.31518 23.9741-7.65456 22.6141-4.9606 15.6978-2.42206 8.15959-0.0387716 0ZM-17.0966 33.5325-17.0966-0.19436C-16.3583-7.11075-20.244-9.09228-28.7533-6.13929-29.8396-5.80221-30.4469-4.64825-30.1097-3.56198-30.0988-3.52705-30.0871-3.49246-30.0744-3.4582-29.7093-2.47036-28.6235-1.95329-27.6266-2.29254-22.3034-4.23547-19.8554-3.4582-20.5936 2.96863e-16L-20.5936 33.3383C-20.5936 34.6206-20.0496 35.32-18.9617 35.4754-17.9431 35.3953-17.1523 34.5542-17.1354 33.5325ZM-27.8598 20.7101C-29.3745 13.4071-31.7891 6.32011-35.0481-0.388552-35.9027-1.78734-36.9131-2.17606-38.1175-1.55437-39.3221-0.932692-39.2056 0.388385-38.4673 1.90382-35.1294 8.23831-32.7091 15.0153-31.279 22.0311-30.9682 23.3135-30.2298 23.7797-29.1807 23.3912-28.1129 22.974-27.5397 21.8111-27.8598 20.7101" transform="matrix(1 0 0 -1.00256 318.159 681.008)"/><path d="M0 0 0-19.156C0.621683-25.2952-2.81061-27.0827-10.2969-24.518-11.2682-24.2849-11.6957-23.5078-11.5792-22.2257-11.4762-21.3518-10.6846-20.7266-9.8109-20.8296-9.69842-20.8428-9.58796-20.8678-9.48083-20.9046-4.77927-22.8084-2.68109-22.1869-3.10858-18.9618L-3.10858 0.194192C-3.10858 1.2432-2.60338 1.7484-1.63192 1.7484-0.690202 1.70762 0.0581575 0.942552 0.0777104 0ZM-8.66496-1.51544-8.66496-16.4749C-8.57722-17.4367-9.28564-18.2873-10.2472-18.3751-10.2638-18.3766-10.2803-18.3779-10.2969-18.3789-11.2682-18.3789-11.7344-17.835-11.7344-16.6691L-11.7344-1.70963C-11.7344-0.543973-11.2682 0.0777104-10.2969 0.194192-9.32541 0.310674-8.66496-0.388552-8.58708-1.51544ZM-27.2379-9.36435-22.1866-9.36435-22.1866-2.09818-27.2379-2.09818ZM-15.5812-2.09835-19.0004-2.09835-19.0004-9.36435-14.2601-9.36435C-13.4053-9.36435-12.9778-10.1415-12.9778-11.3071-12.9778-12.4729-13.5607-12.8225-14.4545-12.8225L-19.0004-12.8225-19.0004-22.4199C-19.0004-23.5857-19.6611-24.2074-20.6324-24.3239-21.49-24.2853-22.1538-23.559-22.1154-22.7015-22.114-22.6722-22.1119-22.6431-22.109-22.6141L-22.109-12.8225-27.3156-12.8225C-27.7819-17.2666-29.286-21.5391-31.7065-25.2952-32.1783-26.0632-33.1833-26.3032-33.9513-25.8313-34.0226-25.7875-34.0905-25.7382-34.1543-25.6839-34.9866-25.0767-35.1689-23.9099-34.5619-23.0778-34.5432-23.0522-34.524-23.0273-34.5041-23.0028-32.4228-19.9639-31.0913-16.4751-30.6184-12.8225L-35.32-12.8225C-36.1748-12.8225-36.68-12.2786-36.7577-11.1128-36.7881-10.2508-36.1716-9.50106-35.32-9.36435L-30.2688-9.36435-30.2688-2.09835-34.5041-2.09835C-35.3589-2.09835-35.8641-1.51527-35.9416-0.388552-36.0103 0.485815-35.3753 1.25807-34.5041 1.36002L-15.5812 1.36002C-14.7237 1.32392-14.0576 0.599289-14.0937-0.258366-14.0955-0.301984-14.0992-0.345268-14.1047-0.388552-14.1047-1.51544-14.6097-2.09835-15.5812-2.09835M-16.3972-26.0724-16.3972-28.1704-2.52567-28.1704C-1.476-28.1905-0.623856-29.0254-0.582911-30.0744-0.576895-31.04-1.35483-31.8278-2.32045-31.8337-2.38897-31.8342-2.45749-31.8307-2.52567-31.823L-16.3972-31.823-16.3972-36.4079 0.0777104-36.4079C1.16566-36.4079 1.74857-37.0687 1.86505-37.9623 1.86689-38.97 1.08343-39.8046 0.0777104-39.8663L-35.1258-39.8663C-36.1467-39.8245-36.9529-38.984-36.9519-37.9623-36.9519-37.0687-36.1748-36.5633-34.9703-36.4079L-19.6611-36.4079-19.6611-31.823-31.7065-31.823C-32.6634-31.9518-33.5437-31.2804-33.6725-30.3233-33.6837-30.2409-33.6887-30.1578-33.688-30.0746-33.6464-29.0105-32.7712-28.1699-31.7065-28.1706L-19.6611-28.1706-19.6611-26.2668C-19.7692-25.4151-19.1664-24.6372-18.3149-24.5291-18.2716-24.5237-18.2282-24.5201-18.1846-24.5182-17.0966-24.6736-16.5137-25.1787-16.3972-26.0724" transform="matrix(1 0 0 -1.00256 358.492 647.195)"/><path d="M0 0-13.716 0C-11.3723-2.34067-8.7644-4.40092-5.94476-6.13912-3.65957-4.77576-1.53532-3.15955 0.388552-1.32108 0.816043-0.971296 1.0104-0.621683 0.893753-0.388552 0.777104-0.155421 0.699561-0.0387716 0.155588-0.0387716ZM-17.9125-20.7102-17.9125-25.4893C-17.9125-26.3831-17.2908-26.8494-15.6589-26.8494L2.7588-26.8494C3.51702-26.8174 4.14121-26.2424 4.23547-25.4893L4.23547-20.5547C4.23547-19.3892 3.65239-18.7675 2.7588-18.6508L-15.9697-18.6508C-17.2908-18.6508-17.8736-19.3502-17.7571-20.749ZM7.4993-19.5444 7.4993-26.0723C7.4993-29.1419 6.10052-30.6184 2.91422-30.5019L-17.4462-30.5019C-20.0496-30.8515-21.3319-29.7636-21.0209-27.2379L-21.0209-18.6119C-21.0209-16.4362-19.6221-15.2703-16.7856-15.1539L3.06964-15.1539C5.44691-15.0025 7.49646-16.807 7.64787-19.1843 7.65623-19.3171 7.65857-19.4503 7.65472-19.5834ZM7.4993 7.65472-20.3992 7.65472C-21.7982 7.65472-22.3809 7.11075-22.1867 6.10035L-22.1867 2.21483C-22.1867 1.08795-22.8472 0.505034-23.8185 0.505034-24.79 0.505034-25.2562 1.08795-25.2562 2.21483L-25.2562 6.83868C-25.2562 9.63626-23.9351 11.035-21.3707 11.035L-9.05334 11.035C-9.30753 11.6706-9.52813 12.3192-9.71397 12.9778-10.1923 13.8503-9.90164 14.9446-9.05334 15.4647-8.21842 15.8576-7.22306 15.4993-6.83016 14.6644-6.80392 14.6087-6.78069 14.5516-6.7608 14.4934-6.55224 13.7079-6.27933 12.9414-5.94476 12.2009-5.90098 11.7764-5.73954 11.3728-5.47867 11.035L8.70373 11.035C10.8798 11.035 11.9676 9.90833 11.9676 7.14952 11.9201 5.71614 11.6982 4.29396 11.3071 2.91422L11.3071 2.52567C10.9963 0.997367 10.2969 0.297973 9.20893 0.427491 8.12099 0.557008 7.73244 1.45076 8.04328 3.10858 8.85932 6.41119 8.66496 7.88769 7.4993 7.65472M-11.579 3.22506 3.9634 3.22506C4.80752 3.18379 5.55755 2.67374 5.90616 1.90399 6.23003 1.0343 6.0345 0.0564863 5.40096-0.621683 3.20785-3.43647 0.585418-5.88844-2.37025-7.88769 2.12408-9.84515 6.92141-11.015 11.8123-11.3459 12.7101-11.6235 13.2711-12.5145 13.1334-13.4441 13.1334-14.7264 12.5115-15.3091 11.6569-15.1926 5.48936-14.7107-0.507708-12.9369-5.94493-9.98587-11.7301-12.9658-18.0368-14.7999-24.518-15.3868-25.7225-15.3868-26.422-14.9206-26.655-13.6383-26.7028-12.5782-25.922-11.6616-24.8678-11.5402-19.6089-11.4548-14.4341-10.2075-9.71397-7.88769-12.3732-6.47403-14.7036-4.51439-16.5525-2.13695-18.5537-3.87015-20.8779-5.19072-23.3912-6.02264-24.2637-6.43643-25.3065-6.06442-25.7201-5.19189-25.7711-5.0846-25.8109-4.9723-25.8391-4.85682-26.0333-3.84675-25.5671-3.06948-24.3625-2.56444-20.1086-1.1324-16.5191 1.79453-14.2599 5.67303-13.9307 6.46567-13.0213 6.84152-12.2284 6.51213-12.077 6.44913-11.9365 6.36273-11.8121 6.25594-11.0264 5.4282-10.9289 4.16294-11.579 3.22506" transform="matrix(1 0 0 -1.00256 388.722 658.492)"/><path d="M0 0-1.4765-4.42966 18.4177-4.42966C19.469-4.4081 20.3387-5.24303 20.3601-6.29421 20.3605-6.30724 20.3606-6.32045 20.3606-6.33348 20.4529-7.29475 19.7485-8.1489 18.7872-8.24115 18.6644-8.25301 18.5404-8.25167 18.4177-8.23747L-2.7197-8.23747-7.46036-19.3892 1.82628-19.3892 1.82628-12.8613C1.76194-11.9622 2.4386-11.1813 3.33754-11.1169 3.37764-11.1141 3.41792-11.1128 3.4582-11.1128 4.42214-11.1325 5.20493-11.898 5.2457-12.8613L5.2457-19.3892 16.9024-19.3892C17.9108-19.4097 18.7117-20.2438 18.6911-21.2522 18.6908-21.2657 18.6903-21.2794 18.6898-21.293 18.6898-22.5753 18.0679-23.197 17.0577-23.197L5.40096-23.197 5.40096-29.4917 20.0886-29.4917C21.118-29.5234 21.9269-30.3839 21.8951-31.4135 21.8929-31.4854 21.8864-31.5574 21.8759-31.6288 21.8605-32.5942 21.0652-33.3645 20.0996-33.3491 20.0439-33.3481 19.9883-33.3444 19.9331-33.3383L5.2457-33.3383 5.2457-42.353C5.3194-43.4089 4.63555-44.3695 3.61362-44.6454 2.44796-44.6454 1.82628-44.2568 1.82628-43.1301L1.82628-33.3772-16.436-33.3772C-17.4073-33.3772-17.8348-32.7555-17.7181-31.4732-17.7664-30.4984-17.0548-29.6513-16.0862-29.5305L1.82628-29.5305 1.82628-23.197-9.55838-23.197C-11.6567-23.197-12.2007-21.7982-11.1905-19.3115L-6.4889-8.35395-14.9595-8.35395C-15.8143-8.35395-16.3194-7.73244-16.436-6.45013-16.5525-5.16799-15.8143-4.66262-14.9595-4.54614L-5.16782-4.54614-3.06948 1.20443C-2.60321 2.37025-1.90399 2.7588-0.932525 2.37025-0.0611656 1.93491 0.341257 0.912303 0 0" transform="matrix(1 0 0 -1.00256 422.41 645.637)"/><path d="M278.946 19.6611 286.717 19.6611 286.717 23.5466 278.946 23.5466ZM285.785 31.0069 278.791 31.0069 278.791 27.1214 286.562 27.1214 286.562 29.6082C286.64 30.6963 286.29 31.2013 285.629 31.2013ZM268.183 19.6611 275.683 19.6611 275.683 23.5466 268.183 23.5466ZM268.183 29.4917 268.183 27.0049 275.683 27.0049 275.683 30.8905 269.349 30.8905C268.222 31.2013 267.911 30.6963 268.222 29.6859ZM266.241 45.0341 285.668 45.0341C286.521 44.9855 287.274 44.4589 287.611 43.6741 287.84 42.8707 287.506 42.0136 286.795 41.5757 284.637 39.8419 282.291 38.3562 279.801 37.1462 280.488 36.4672 280.494 35.3602 279.815 34.6734 279.811 34.6687 279.806 34.6642 279.801 34.6593L286.64 34.6593C288.932 34.6593 290.059 33.5326 290.059 30.7738L290.059 12.0065C290.525 7.77121 288.077 6.45013 282.754 8.12099 281.86 8.12099 281.472 8.89792 281.589 10.0637 281.705 11.2292 282.521 11.6955 283.376 11.579 285.902 10.5688 287.028 10.8021 286.834 12.3561L286.834 16.2416 279.063 16.2416 279.063 9.16999C279.063 8.00417 278.519 7.42143 277.431 7.42143 276.343 7.42143 275.799 8.00417 275.799 9.16999L275.799 16.2416 268.222 16.2416 268.222 9.36419C268.222 8.08205 267.6 7.42143 266.59 7.42143 265.58 7.42143 265.153 8.08205 265.153 9.36419L265.153 31.3955C264.919 33.7268 265.891 34.776 268.067 34.6593L277.198 34.6593C275.155 35.9002 273.026 36.9911 270.825 37.9233 270.079 38.3313 269.735 39.2167 270.009 40.0215 270.283 40.7622 271.069 41.18 271.836 40.993 273.401 40.4841 274.921 39.8472 276.382 39.089 277.725 39.461 279.027 39.9689 280.267 40.6044 280.695 40.8763 280.928 41.0707 280.928 41.1872 280.928 41.3037 280.695 41.4592 280.267 41.5757L266.085 41.5757C265.114 41.5757 264.609 42.1585 264.609 43.2855 264.5 44.1368 265.103 44.9149 265.955 45.0229 265.998 45.0284 266.041 45.0323 266.085 45.0341ZM257.265 43.2855C259.144 41.228 260.883 39.0471 262.471 36.7577 263.202 35.8793 263.202 34.6052 262.471 33.7268 261.617 33.0664 260.801 33.2606 260.023 34.2708 258.465 36.4789 256.778 38.5937 254.972 40.6044 254.286 41.2833 254.279 42.3904 254.958 43.0771 254.963 43.0818 254.968 43.0865 254.972 43.0912 255.567 43.6117 256.43 43.6901 257.109 43.2855ZM272.108 6.10035 290.37 6.10035C291.458 6.10035 292.041 5.43989 292.157 4.19636 292.18 3.17393 291.391 2.31594 290.37 2.2536L271.447 2.2536C267.078 2.18475 262.905 4.06467 260.062 7.38265 258.567 5.54434 256.872 3.87633 255.011 2.40902 254.354 1.92588 253.43 2.06693 252.947 2.72387 252.844 2.86342 252.767 3.01984 252.719 3.18613 252.114 4.16377 252.409 5.44574 253.379 6.06141 256.279 7.59506 258.143 10.5552 258.275 13.8326L258.275 22.0701C258.275 23.2359 257.809 23.7409 256.643 23.6243L253.69 23.6243C251.941 25.0231 251.941 26.4219 253.69 27.8596L258.741 27.8596C260.373 27.8596 261.267 26.4997 261.345 24.2072L261.345 14.2213C261.681 8.91096 265.269 6.20396 272.108 6.10035" transform="matrix(1 0 0 -1.00256 193.043 690.397)"/><path d="M0 0 19.7 0C20.7148-0.042114 21.5094-0.888405 21.4873-1.90399 21.4873-3.18613 20.7879-3.84692 19.7-3.84692L-0.116482-3.84692C-1.20443-3.84692-1.82628-3.18613-1.90399-1.90399-1.92588-0.888405-1.1314-0.042114-0.116482 0ZM-1.63192-11.3071 21.6815-11.3071C22.653-11.3071 23.1582-12.0842 23.1582-13.2499 23.1582-14.4157 22.653-15.1539 21.6815-15.1539L17.0966-15.1539 17.0966-35.4754C17.7444-42.5215 13.0685-44.244 3.06964-40.6432 2.05607-40.3634 1.46129-39.3149 1.74121-38.3014 1.75458-38.2526 1.77013-38.2043 1.78734-38.1565 2.15266-37.1686 3.23827-36.6517 4.2353-36.991 11.074-39.4257 14.2213-38.7265 13.6774-34.8926L13.6774-15.1539-1.86505-15.1539C-2.953-15.1539-3.49697-14.4934-3.49697-13.2499-3.53992-12.2208-2.74025-11.3517-1.71113-11.3088-1.68473-11.3076-1.65832-11.3071-1.63192-11.3071M-8.97563 0.776937C-8.43166 1.90399-7.73227 2.29254-6.83851 1.90399-5.89329 1.2788-5.54652 0.0569876-6.02264-0.971296-7.79678-4.77292-9.87591-8.42414-12.2395-11.8899-13.0945-12.7836-13.9103-12.8613-14.6874-11.8899-15.394-11.0616-15.394-9.84265-14.6874-9.01457-12.3924-5.99523-10.4744-2.707-8.97563 0.776937M-7.49914-41.0318C-7.49914-42.3269-8.04311-43.0265-9.13105-43.1301-10.219-43.2337-10.763-42.5343-10.763-41.0318L-10.763-22.6141C-11.0636-22.9819-11.3365-23.3716-11.579-23.7799-12.123-24.557-12.5115-25.0622-12.7057-25.2952-13.5995-26.3445-14.4543-26.461-15.3481-25.6839-16.0411-24.7781-16.0411-23.52-15.3481-22.6141-12.7427-19.1169-10.5643-15.321-8.85915-11.3071-8.31518-10.1802-7.57685-9.71397-6.72203-9.98604-5.74656-10.5843-5.33779-11.7941-5.75057-12.8613-6.20079-14.0435-6.7466-15.1871-7.38249-16.2807L-7.69333-16.8635Z" transform="matrix(1 0 0 -1.00256 504.124 646.221)"/></g></svg>