<svg width="328" height="327" xmlns="http://www.w3.org/2000/svg" xmlns:xlink="http://www.w3.org/1999/xlink" xml:space="preserve" overflow="hidden"><defs><clipPath id="clip0"><rect x="131" y="204" width="328" height="327"/></clipPath></defs><g clip-path="url(#clip0)" transform="translate(-131 -204)"><path d="M0 0C89.0212 0 161.187-72.166 161.187-161.187 161.187-250.208 89.0212-322.374 0-322.374-89.0212-322.374-161.187-250.208-161.187-161.187-161.187-72.166-89.0212 0 0 0" fill="#FFFFFF" transform="matrix(1.00392 0 0 -1 295.039 206.214)"/><path d="M0 0C-87.8217 0-159.015-71.1935-159.015-159.015-159.015-246.837-87.8217-318.031 0-318.031 87.8217-318.031 159.015-246.837 159.015-159.015 158.887-71.2468 87.7686-0.128237 0 0M0-322.374C-90.2208-322.396-163.376-249.275-163.398-159.054-163.419-68.8333-90.2982 4.32232-0.0775956 4.34388 90.1432 4.36528 163.299-68.7557 163.32-158.976L163.32-159.054C163.214-249.209 90.1549-322.267 0-322.374" fill="#FF0001" transform="matrix(1.00392 0 0 -1 295.039 208.347)"/><path d="M0 0 21.0986-2.90877 197.373-165.764 197.373-181.084 182.053-181.084 5.77883-17.2589Z" fill="#FF0001" fill-rule="evenodd" transform="matrix(1.00392 0 0 -1 195.946 276.84)"/><path d="M0 0 15.1259 0 15.1259 15.087-161.071 177.981-181.82 180.812-176.196 163.863ZM15.5137-0.310219 0-0.310219-176.39 163.631-182.247 181.122-181.975 181.122-160.838 178.252 15.4748 15.3587Z" fill="#FF0001" transform="matrix(1.00392 0 0 -1 378.674 457.768)"/><path d="M0 0C-65.5449 0-118.68-53.1347-118.68-118.68-118.68-184.225-65.5449-237.359 0-237.359 65.5451-237.359 118.68-184.225 118.68-118.68 118.573-53.1789 65.5006-0.106837 0 0M0 30.7171C82.5097 30.7171 149.397-36.1701 149.397-118.68 149.397-201.189 82.5097-268.076 0-268.076-82.5096-268.076-149.397-201.189-149.397-118.68-149.247-36.2321-82.4475 30.5676 0 30.7171" fill="#FF0001" fill-rule="evenodd" transform="matrix(1.00392 0 0 -1 295.039 248.722)"/><path d="M0 0C-65.4593 0.0214-118.542-53.0265-118.563-118.486-118.585-183.945-65.5367-237.028-0.0774322-237.049 65.3819-237.07 118.464-184.023 118.486-118.563L118.486-118.408C118.4-52.9994 65.4088 0.00947483 0 0.116312ZM0-237.359C-65.6307-237.359-118.835-184.155-118.835-118.525-118.835-52.8937-65.6305 0.310219 0.000163359 0.310219 65.5854 0.310219 118.771-52.823 118.835-118.408 118.771-184.012 65.604-237.179 0-237.243ZM0 30.7171C-82.4238 30.7385-149.259-36.0618-149.28-118.486-149.302-200.91-82.5012-267.745-0.0774322-267.766 82.3465-267.788 149.181-200.987 149.203-118.563L149.203-118.408C149.117-36.0349 82.3735 30.7265 0 30.8335ZM0-267.921C-19.9773-267.996-39.7645-264.039-58.1763-256.286-94.0316-240.998-122.56-212.399-137.762-176.507-153.516-139.323-153.516-97.3385-137.762-60.1542-122.514-24.3431-93.9708 4.15814-58.1375 19.3533-20.9533 35.1078 21.0308 35.1078 58.2151 19.3533 134.299-12.736 169.963-100.427 137.874-176.511 114.499-231.933 60.1883-267.951 0.0387161-267.921Z" fill="#FF0001" transform="matrix(1.00392 0 0 -1 295.039 248.993)"/><path d="M133.146 277.153 169.681 277.153 169.681 247.134 133.146 247.134Z" transform="matrix(1.00392 0 0 -1 131 601.155)"/><path d="M214.748 277.153 251.283 277.153 251.283 247.134 214.748 247.134Z" transform="matrix(1.00392 0 0 -1 131 601.155)"/><path d="M173.637 277.153 210.171 277.153 210.171 247.134 173.637 247.134Z" transform="matrix(1.00392 0 0 -1 131 601.155)"/><path d="M0 0C-8.91075 0-16.1343-7.22358-16.1343-16.1343-16.1343-25.0449-8.91075-32.2683 0-32.2683 8.91058-32.2683 16.1342-25.0449 16.1342-16.1343 16.1129-7.2324 8.90176-0.0212367 0 0M0-6.51574C5.31211-6.51574 9.61842-10.822 9.61842-16.1343 9.61842-21.4463 5.31211-25.7527 0-25.7527-5.31211-25.7527-9.61842-21.4463-9.61842-16.1343-9.61842-10.822-5.31227-6.51574 0-6.51574" fill-rule="evenodd" transform="matrix(1.00392 0 0 -1 236.323 389.353)"/><path d="M0 0C-6.10457 0-11.0534-4.9488-11.0534-11.0535-11.0534-17.1581-6.10457-22.1069 0-22.1069 6.10473-22.1069 11.0535-17.1581 11.0535-11.0535 11.0323-4.95762 6.09574-0.0212367 0 0M0 5.08079C8.91075 5.08079 16.1343-2.14278 16.1343-11.0535 16.1343-19.9641 8.91075-27.1877 0-27.1877-8.91058-27.1877-16.1342-19.9641-16.1342-11.0535-16.1129-2.1516-8.90176 5.05939 0 5.08079" fill-rule="evenodd" transform="matrix(1.00392 0 0 -1 335.221 394.434)"/><path d="M0 0 0-25.2873-30.019-25.2873-20.9823 0ZM131.168-37.6984 6.78724-37.6984 7.05858 7.21394-23.9687 7.21394-39.4823-27.692-52.0872-38.7455-43.1668-68.7257-52.0872-68.7257-52.0872-74.0778-41.5767-74.0778C-23.8524-55.9268-10.0064-59.9603 2.09426-74.0778L57.5169-74.0778C64.0872-62.1683 79.0681-57.8401 90.9776-64.4105 95.0479-66.6561 98.3995-70.0075 100.645-74.0778L131.168-74.0778Z" fill-rule="evenodd" transform="matrix(1.00392 0 0 -1 255.246 320.395)"/><path d="M270.093 24.0476 263.228 24.0476 263.228 20.1691 270.093 20.1691ZM270.093 27.6933 270.093 31.5718 264.237 31.5718 263.228 30.3694 263.228 27.6546ZM280.177 24.0476 273.08 24.0476 273.08 20.1691 280.177 20.1691ZM280.177 27.6933 280.177 30.4083 279.207 31.6105 273.08 31.6105 273.08 27.7322ZM284.055 1.74664C284.794 2.13135 285.213 2.93769 285.103 3.76347 285.128 4.14491 285.033 4.52488 284.831 4.84948 284.661 5.13209 284.379 5.32959 284.055 5.39232L270.132 5.39232C267.897 5.31374 265.663 5.56205 263.5 6.1294 261.131 6.83151 259.111 8.39502 257.837 10.512L257.566 12.6063 257.566 31.6105C257.454 31.9837 257.311 32.3471 257.139 32.6963 256.776 33.3413 256.095 33.741 255.355 33.7436L251.167 33.7436 250.701 33.7436C250.345 33.5214 250.148 33.1137 250.197 32.6963L250.197 31.0286 250.391 30.5246C250.578 30.2227 250.847 29.9803 251.167 29.8264L253.649 29.8264C253.815 29.8599 253.987 29.8599 254.153 29.8264 254.487 29.5884 254.666 29.187 254.618 28.7793L254.618 11.5591C254.188 10.0314 253.189 8.72681 251.826 7.91328 250.462 7.07377 249.582 5.63197 249.46 4.03481 249.54 3.35262 250.131 2.84653 250.817 2.87136 251.354 2.8877 251.877 3.04844 252.33 3.33677 252.769 3.57903 253.142 3.92519 253.416 4.34519L256.364 7.64177C257.828 5.38301 260.082 3.75138 262.685 3.06543 263.409 2.85846 265.814 2.47064 269.899 1.90183ZM257.721 41.8884C258.332 41.4208 258.667 40.6777 258.613 39.9104 258.627 39.4529 258.491 39.0033 258.225 38.6305 257.901 38.3059 257.43 38.1739 256.984 38.2814L251.826 43.0905C251.8 43.3356 251.8 43.5826 251.826 43.8274 251.807 43.9691 251.807 44.1125 251.826 44.2541 251.805 44.5511 251.805 44.8493 251.826 45.1461 251.792 45.2603 251.792 45.3813 251.826 45.4952 252.121 45.5445 252.423 45.5445 252.718 45.4952 253.754 45.3905 254.704 44.8731 255.355 44.0602 256.071 43.2134 256.863 42.4345 257.721 41.7332ZM283.319 10.8609 282.853 9.34839C282.619 8.79656 282.244 8.3153 281.767 7.95216 281.315 7.66611 280.79 7.51778 280.255 7.52546 279.577 7.55993 278.909 7.70401 278.277 7.95216 277.653 8.17089 277.044 8.43015 276.454 8.72779 275.795 8.72779 275.445 9.27079 275.445 10.3566 275.425 10.7379 275.519 11.1163 275.717 11.4426 276.001 11.7387 276.393 11.9066 276.803 11.9082 277.328 11.855 277.84 11.7107 278.315 11.4815 278.706 11.2795 279.124 11.1357 279.557 11.0548 279.874 11.0488 280.176 11.1925 280.371 11.4426L280.371 16.601 273.08 16.601 273.08 8.84426C273.096 8.46102 272.939 8.09101 272.653 7.83584 272.033 7.37027 271.179 7.37027 270.559 7.83584 270.245 8.07026 270.082 8.45579 270.132 8.84426L270.132 16.601 263.228 16.601 263.228 9.34839C262.892 8.65019 262.504 8.30109 262.065 8.30109 261.695 8.32184 261.353 8.50676 261.134 8.80538 261 8.97462 260.883 9.15644 260.785 9.34839L260.785 32.8904C260.896 33.6175 261.268 34.2794 261.832 34.7519 262.12 34.9695 262.432 35.1516 262.763 35.295L271.373 35.295 271.373 35.6053 267.921 37.3893C267.319 37.5711 266.754 37.8603 266.254 38.2427 265.679 38.5957 265.305 39.1996 265.245 39.8715 265.261 40.3015 265.426 40.7127 265.711 41.035 265.996 41.2642 266.353 41.3875 266.719 41.3841 267.425 41.2879 268.1 41.0363 268.697 40.6472 269.232 40.324 269.789 40.0388 270.365 39.7939 270.734 39.5068 271.179 39.3318 271.645 39.2898 272.329 39.3574 272.964 39.6749 273.429 40.1819L275.29 41.9271 261.755 41.9271C261.251 42.1315 260.896 42.5905 260.824 43.1294L260.824 44.3317C260.932 44.6991 261.132 45.0329 261.406 45.3014L261.793 45.5339 279.44 45.5339C280.079 45.2817 280.584 44.7762 280.836 44.1378 280.985 43.8173 281.09 43.478 281.147 43.1294 279.595 41.6169 278.044 40.1818 276.454 38.863L274.282 37.0791C274.349 36.7855 274.349 36.4805 274.282 36.187 274.303 35.9677 274.303 35.7469 274.282 35.5277 274.304 35.4517 274.304 35.371 274.282 35.295L280.681 35.295C281.444 35.1008 282.107 34.631 282.543 33.9762 282.794 33.6477 282.99 33.2811 283.125 32.8904L283.125 10.8609ZM242.673 11.6366 229.021 11.6366 229.021 1.3977C228.924 1.01658 228.689 0.684801 228.361 0.466717 228.073 0.243078 227.718 0.120396 227.353 0.117782 226.629 0.117782 226.202 0.544312 226.073 1.3977L226.073 11.6366 210.172 11.6366C209.819 11.6488 209.504 11.8591 209.357 12.1797 209.159 12.576 209.065 13.0168 209.086 13.4595 209.065 13.8983 209.145 14.3357 209.318 14.7394 209.475 15.0645 209.811 15.2636 210.172 15.2437L225.918 15.2437 225.918 21.9143 213.856 21.9143C213.557 22.0873 213.314 22.3433 213.158 22.6514 213.092 22.9843 213.092 23.3269 213.158 23.6598 213.103 24.0197 213.103 24.3858 213.158 24.7458 213.22 24.9085 213.298 25.0643 213.391 25.211 214.628 27.3264 215.68 29.5454 216.532 31.8433 216.998 33.0069 217.657 34.752 218.549 36.9628L210.792 36.9628C210.261 37.4043 209.949 38.0561 209.939 38.7468 209.953 39.3081 210.143 39.8508 210.482 40.2982L210.792 40.6085 219.635 40.6085 221.109 46.6201C221.453 47.251 222.098 47.6608 222.815 47.7059 223.201 47.703 223.561 47.5154 223.785 47.2018 224.059 46.8061 224.157 46.3149 224.056 45.8444L222.854 40.6085 241.432 40.6085C241.815 40.7084 242.216 40.5317 242.401 40.1819 242.653 39.8042 242.776 39.3552 242.75 38.902 242.743 38.4618 242.651 38.0272 242.479 37.6221 242.318 37.2929 242.02 37.0516 241.664 36.9628L221.729 36.9628 217.386 25.948 217.657 25.6376 225.918 25.6376 225.918 32.2698C225.956 32.6293 226.105 32.9683 226.345 33.2395 226.601 33.4324 226.917 33.5286 227.237 33.511 228.02 33.5835 228.728 33.0439 228.866 32.2698L228.866 25.6376 239.454 25.6376C239.835 25.6572 240.2 25.4819 240.423 25.1723 240.665 24.8046 240.787 24.371 240.772 23.9311 240.887 23.1241 240.44 22.3418 239.686 22.0308L229.021 22.0308 229.021 15.515 242.828 15.515C243.174 15.5194 243.492 15.3228 243.642 15.0109 243.841 14.6144 243.934 14.1739 243.914 13.731 243.937 13.2755 243.844 12.8216 243.642 12.4123 243.5 12.0933 243.177 11.8937 242.828 11.9082ZM178.136 17.8032C178.164 17.9832 178.164 18.1663 178.136 18.3464 178.163 18.7936 178.026 19.2355 177.748 19.5874 177.512 19.9073 177.137 20.0948 176.74 20.0915 176.246 20.0714 175.809 19.7697 175.615 19.3159L173.404 13.8862C172.784 12.645 172.279 11.6754 171.814 10.8609 170.579 8.57749 169.219 6.36333 167.742 4.22888 167.719 4.0616 167.719 3.89187 167.742 3.72475 167.717 3.22945 167.884 2.74362 168.207 2.36724 168.534 2.06437 168.964 1.89774 169.409 1.90183 169.696 1.91244 169.97 2.02206 170.185 2.21205 170.439 2.43552 170.638 2.71421 170.767 3.02655 170.767 3.02655 171.232 3.68603 172.086 5.00467 172.939 6.3233 174.064 8.45645 175.033 10.3566 176.253 12.7574 177.291 15.2466 178.136 17.8032M173.947 27.7322C174.591 27.2155 174.951 26.4237 174.917 25.5989 174.937 25.1825 174.814 24.7719 174.568 24.4354 174.288 24.1446 173.873 24.026 173.482 24.1252 172.04 25.0967 170.736 26.2577 169.603 27.577 169.215 28.0811 168.711 28.7015 168.13 29.5549 168.005 30.2218 168.223 30.9066 168.711 31.3777L169.138 31.6492C170.052 31.2592 170.873 30.6772 171.543 29.9427L173.792 27.7322ZM203.501 11.4428C203.473 9.17866 203.173 6.92593 202.609 4.73317 202.609 3.95737 202.143 2.98767 201.755 1.78551 201.468 1.1213 200.846 0.662584 200.127 0.583029 199.371 0.667812 198.691 1.07882 198.265 1.70792 197.654 2.46542 197.169 3.31684 196.83 4.22888 195.959 7.63475 195.311 11.0939 194.891 14.5842 194.697 15.8252 194.542 17.3767 194.387 19.3159 194.402 19.5095 194.402 19.704 194.387 19.8978 194.392 20.7396 194.178 21.5681 193.766 22.3023 193.575 22.6323 193.355 22.9438 193.107 23.2331L178.02 23.2331C177.499 23.4149 177.135 23.886 177.089 24.4354L177.089 25.6376C177.19 26.0082 177.391 26.3436 177.67 26.6073L178.058 26.8401 194.503 26.8401C195.375 26.8544 196.157 26.3067 196.442 25.4825 196.582 25.0413 196.673 24.5862 196.713 24.1252L196.713 20.2467C196.998 17.6611 197.192 15.6444 197.295 14.1964 197.455 12.1551 197.845 10.1384 198.459 8.18494 198.661 7.7839 198.792 7.35083 198.847 6.90503 198.847 6.24554 199.196 5.85773 199.428 5.7803L200.398 10.8998C200.398 12.102 200.902 12.6839 201.833 12.6839 202.556 12.662 203.183 12.1763 203.384 11.4815ZM175.925 37.0792C176.421 38.0661 176.216 39.2607 175.421 40.0267L173.947 41.6169C173.288 42.4703 172.745 43.0905 172.396 43.4785 171.951 44.1132 171.263 44.5346 170.495 44.6419 170.153 44.6129 169.822 44.5067 169.526 44.3317L169.293 43.4398C169.347 42.3544 169.853 41.3413 170.689 40.6472 171.169 40.2077 171.61 39.7275 172.008 39.2122L173.365 37.6995C173.759 37.1737 174.344 36.8251 174.994 36.7301 175.334 36.7411 175.661 36.8638 175.925 37.0792M198.808 31.6492C199.506 31.6492 199.816 32.3085 199.816 33.2395 199.824 33.6688 199.731 34.0937 199.545 34.4805 199.396 34.8259 199.137 35.1122 198.808 35.295L181.704 35.295 181.316 35.0235C181.052 34.7631 180.853 34.4444 180.734 34.0927L180.734 32.8904C180.801 32.3402 181.156 31.8669 181.665 31.6494ZM200.514 39.7939 181.704 39.7939 178.601 32.2698C178.238 32.0146 177.804 31.879 177.36 31.882 176.313 31.882 175.809 32.425 175.809 33.511L175.809 34.0927C177.011 36.1099 178.011 38.2402 178.795 40.4533 179.067 41.2291 179.377 42.2375 179.765 43.4396 179.905 44.1988 180.087 44.9496 180.308 45.6892 180.618 46.6588 181.083 47.1629 181.704 47.1629L182.325 47.1629C182.619 47.1028 182.873 46.9192 183.023 46.6588 183.092 46.2741 183.092 45.8801 183.023 45.4952 183.059 45.1213 183.059 44.7445 183.023 44.3704L183.023 43.5559 200.476 43.5559C200.816 43.5089 201.116 43.3088 201.29 43.0131 201.462 42.6779 201.542 42.3033 201.523 41.9271 201.633 41.1015 201.214 40.295 200.476 39.9104ZM146.217 20.2078C145.805 15.3391 143.77 10.7498 140.438 7.17653 137.663 3.89285 133.763 1.76297 129.5 1.20363L128.182 1.20363C127.523 1.20363 127.212 1.74664 127.212 2.79393 127.198 3.18207 127.278 3.56793 127.445 3.91849 130.522 4.95272 132.461 5.65092 133.262 6.01292 135.08 6.76568 136.769 7.79958 138.266 9.07705 139.949 10.5582 141.275 12.4012 142.144 14.4679L143.851 20.208C144.2 20.9062 144.587 21.2551 145.053 21.2551 145.409 21.2234 145.734 21.0397 145.945 20.7509 146.079 20.5818 146.196 20.4 146.294 20.208ZM160.993 3.91849C161.243 3.56433 161.39 3.14842 161.42 2.71633 161.421 2.2671 161.222 1.84073 160.877 1.55273 160.524 1.24153 160.067 1.07523 159.597 1.08732 159.202 1.0651 158.817 1.22176 158.55 1.51401L146.915 8.72779C146.413 9.02428 146.126 9.58248 146.178 10.1629 146.183 10.5881 146.333 10.9986 146.604 11.3263 146.789 11.6478 147.126 11.8527 147.496 11.8693L147.923 11.8693C150.723 10.5481 153.419 9.01824 155.99 7.29284L160.954 4.03497ZM158.278 10.2405 158.278 23.2718C158.146 23.8463 157.923 24.396 157.619 24.9008 157.165 25.9426 156.218 26.686 155.098 26.8788L133.805 26.8788C133.549 26.804 133.301 26.6997 133.069 26.5686 131.921 25.8084 131.126 24.6216 130.858 23.2718L130.858 10.2792C130.982 9.92161 131.212 9.61058 131.517 9.3871 131.806 9.16346 132.16 9.04095 132.526 9.038 133.301 9.038 133.689 9.46486 133.805 10.2792L133.805 21.9143C133.858 22.0692 133.936 22.2137 134.038 22.3412 134.202 22.6796 134.475 22.9531 134.814 23.1168L154.206 23.1168C154.444 23.08 154.67 22.9871 154.865 22.8453 155.078 22.5828 155.188 22.2521 155.176 21.9143L155.176 10.2792C155.205 9.92864 155.356 9.59963 155.602 9.34839 155.845 9.12753 156.167 9.01562 156.494 9.038 157.272 8.98377 157.969 9.51501 158.123 10.2792ZM138.615 46.7364C138.534 45.5156 138.103 44.3441 137.374 43.362L136.133 41.6169 136.133 29.5549C135.784 28.8569 135.357 28.5078 134.891 28.5078 134.405 28.5437 133.962 28.801 133.689 29.2058L133.456 29.5549 133.456 38.0099 129.578 34.1316C129.428 33.7057 129.021 33.4244 128.57 33.4334 128.163 33.436 127.778 33.6211 127.523 33.9375 127.22 34.2642 127.053 34.6944 127.057 35.1398 127.047 35.3078 127.047 35.4762 127.057 35.644 127.94 37.0404 128.967 38.3404 130.121 39.5224L131.711 40.9963C132.75 41.9673 133.65 43.0765 134.387 44.293 134.659 44.7195 135.008 45.3401 135.434 46.1158 135.467 46.5797 135.659 47.018 135.977 47.357 136.247 47.6505 136.626 47.8193 137.025 47.8222 137.606 47.8222 138.033 47.4344 138.382 46.6975ZM161.885 38.0099C161.575 38.7855 161.226 39.1735 160.722 39.1735 160.218 39.1735 159.946 38.8631 159.597 38.3201 159.255 37.7748 159.079 37.141 159.093 36.4974 159.061 36.2917 159.061 36.0824 159.093 35.8768 158.86 35.1529 158.705 34.6097 158.627 34.2479 158.627 33.511 158.084 33.1619 157.619 33.1619L144.626 33.1619C144.388 33.1987 144.162 33.2916 143.967 33.4334 143.754 33.6959 143.644 34.0266 143.657 34.3641L143.657 36.8076 146.372 37.3117C150.365 38.2309 154.261 39.5296 158.007 41.1902 158.683 41.3722 159.167 41.9655 159.209 42.664 159.218 43.127 159.067 43.579 158.783 43.9439 158.569 44.2984 158.188 44.5183 157.774 44.5258L157.309 44.5258 155.331 43.7111C153.469 42.9355 151.801 42.3149 150.366 41.8497 147.962 41.0739 145.751 40.4533 143.773 39.9879L143.773 45.728C143.659 45.9183 143.515 46.0887 143.346 46.2321 143.079 46.5608 142.684 46.7586 142.26 46.7751 142.001 46.7893 141.743 46.7215 141.524 46.5812 141.226 46.3569 140.986 46.0642 140.825 45.728L140.825 33.3558C140.956 32.792 141.151 32.2456 141.407 31.7268 141.857 30.6496 142.848 29.895 144.006 29.7488L158.278 29.7488C159.752 29.7488 160.761 30.7184 161.342 32.6963 161.667 34.5181 161.887 36.357 162.002 38.2036ZM120.619 10.8609C120.391 11.1759 120.037 11.3747 119.649 11.4039 119.184 11.4039 118.757 11.0161 118.447 10.2405 118.166 9.58036 118.059 8.85929 118.137 8.14606L117.904 6.47833C117.904 5.89661 117.594 5.54751 117.167 5.4312 116.646 6.18575 116.18 6.97641 115.771 7.79713 114.79 9.52089 114.022 11.3572 113.483 13.2656L117.361 25.3275 117.361 26.8401C117.361 27.6933 116.857 28.0811 116.12 28.0811 115.78 28.07 115.453 27.9473 115.189 27.7322 114.908 27.5149 114.726 27.1932 114.685 26.8401 114.685 26.1419 114.413 25.5601 114.297 25.1336 113.677 22.5478 112.978 20.1044 112.203 17.8032 111.931 19.4709 111.737 20.8672 111.582 21.9533 111.272 24.358 110.884 27.4218 110.496 31.0676L119.339 31.0676C119.452 31.1483 119.546 31.2545 119.611 31.3778 119.976 31.813 120.182 32.3608 120.192 32.9291 120.171 33.6062 119.86 34.2415 119.339 34.6744L110.263 34.6744 110.263 39.2122 110.263 43.75 110.263 46.1545C110.11 46.9189 109.412 47.4501 108.635 47.3957 108.307 47.4184 107.985 47.3062 107.743 47.0853 107.481 46.8453 107.327 46.5096 107.316 46.1545L107.316 44.6419 107.316 39.3285 107.316 34.6744 97.9689 34.6744 97.9689 38.5529 105.105 38.5529C105.853 38.9288 106.275 39.7418 106.152 40.5697 106.155 40.9487 106.061 41.3222 105.881 41.6556 105.711 41.9384 105.429 42.1359 105.105 42.1984L97.9689 42.1984 97.9689 46.0771C97.9689 46.8914 97.4259 47.3181 96.689 47.3181 96.3237 47.3153 95.9694 47.1928 95.6805 46.9692 95.3631 46.7581 95.1299 46.4423 95.0212 46.0771L95.0212 42.1984 88.3892 42.1984C87.6911 42.1984 87.3421 41.5393 87.3421 40.6085 87.3481 40.1764 87.4541 39.7515 87.6523 39.3672 87.8014 39.0221 88.0605 38.7357 88.3892 38.5529L95.0212 38.5529 95.0212 34.6744 87.2645 34.6744C86.5663 34.6744 86.256 34.0151 86.256 33.1232 86.2487 32.6939 86.3415 32.2688 86.5275 31.882 86.6515 31.5211 86.9178 31.2269 87.2645 31.0675L93.2761 31.0675C92.7878 30.5478 92.4524 29.9037 92.3064 29.2058 92.3064 28.7404 92.0349 28.0422 91.8022 27.1503L87.6523 27.1503 87.3421 26.8401C86.9761 26.4049 86.7708 25.8571 86.7602 25.2886 86.7853 24.5929 87.1106 23.9421 87.6523 23.5046L90.8326 23.5046C90.8326 23.1168 90.2508 21.8369 89.3976 19.6261 88.8887 18.3844 88.5496 17.08 88.3892 15.7477L88.3892 15.2437C88.5883 14.9523 88.8543 14.7129 89.1648 14.5453L95.5642 14.5453 95.5642 10.667 92.6555 10.3566C90.4867 10.0889 88.3366 9.68736 86.2173 9.15432 86.0584 8.78741 85.9791 8.39078 85.9845 7.99087 85.9636 7.4299 86.1124 6.87578 86.4112 6.40074 86.6247 5.99838 87.0416 5.74518 87.4972 5.74142L87.9238 5.74142 95.6805 6.94374 95.6805 1.51401C95.6583 1.11852 95.815 0.733972 96.1072 0.466717 96.3841 0.183616 96.7587 0.0173161 97.1544 0.00147023 97.5344-0.0147023 97.9071 0.109614 98.2015 0.350405 98.4925 0.602305 98.6499 0.974764 98.6282 1.35882L98.6282 7.37027 105.028 8.88298C105.056 8.98442 105.056 9.09159 105.028 9.1932 105.051 9.41242 105.051 9.63345 105.028 9.85268 105.059 10.2591 104.964 10.6656 104.756 11.0161 104.448 11.4263 103.948 11.6467 103.437 11.5978L98.5119 10.7057 98.5119 14.3127 103.67 14.3127 103.942 14.5842C104.26 14.9657 104.438 15.4448 104.446 15.9417 104.501 16.2104 104.501 16.4875 104.446 16.7561 104.282 17.0812 104.073 17.3814 103.825 17.6482L98.7058 17.6482 98.7058 21.2551 98.4732 21.6042C98.0239 22.3086 97.0887 22.5153 96.3845 22.0662 96.0876 21.8769 95.8663 21.59 95.7581 21.2551L95.7581 17.6482 92.5779 17.6482C92.5152 17.9553 92.5152 18.2719 92.5779 18.5792L93.9741 23.3496 104.136 23.3496C104.851 23.7534 105.25 24.5514 105.144 25.3662 105.164 25.7425 105.083 26.117 104.911 26.4522 104.754 26.7465 104.466 26.948 104.136 26.9951L94.7886 26.9951C94.8149 27.0969 94.8149 27.2037 94.7886 27.3053 94.8371 27.7696 94.8371 28.2376 94.7886 28.7017 94.835 29.0882 94.835 29.4788 94.7886 29.8651 94.7221 30.2343 94.5908 30.589 94.4008 30.9124L107.704 30.9124C107.704 30.0203 107.936 29.1284 108.014 28.2363 108.285 26.1419 108.557 23.9311 108.906 21.6042 109.371 18.036 109.798 15.2048 110.147 13.1104 109.41 11.9857 108.751 11.0936 108.285 10.3955 106.695 8.22366 105.26 6.51721 104.019 4.96579 103.848 4.64283 103.755 4.28409 103.748 3.91849 103.752 3.47563 103.887 3.04403 104.136 2.67762 104.367 2.3478 104.741 2.1467 105.144 2.13445L105.454 2.13445 105.726 2.13445C107.058 2.96366 108.164 4.10946 108.945 5.46992 109.488 6.36202 110.341 7.75825 111.388 9.65861 111.931 8.41757 112.397 7.37043 112.785 6.55593 113.908 4.28752 115.204 2.10913 116.663 0.0401863L117.245 0.0401863C117.489-0.000326718 117.738-0.000326718 117.982 0.0401863 118.662-0.0465573 119.283 0.434372 119.37 1.11427 119.373 1.144 119.376 1.1739 119.378 1.20363 119.378 1.20363 119.688 2.63874 120.231 5.0821 120.544 6.35205 120.713 7.65305 120.735 8.96057 120.772 9.51583 120.772 10.0729 120.735 10.6283ZM117.4 40.7248C117.856 40.2778 118.096 39.6556 118.059 39.0183 118.085 38.5109 117.949 38.0086 117.671 37.5832 117.445 37.2225 117.05 37.003 116.624 37.0015 116.279 37.0235 115.952 37.1601 115.693 37.3893 115.042 39.1578 114.196 40.8489 113.172 42.4312 113.172 42.7027 112.784 43.0131 112.474 43.4396 112.502 44.0769 112.733 44.6885 113.134 45.185 113.229 45.3201 113.347 45.438 113.482 45.5339 114.451 45.2849 115.269 44.6364 115.732 43.75ZM79.8566 4.50038C79.7648 4.17905 79.5577 3.90281 79.2749 3.72475L78.8482 3.72475 45.6491 3.72475 44.6794 4.61669 44.6794 6.43961 46.1532 7.64177 50.8073 7.64177 50.8073 35.9931C50.9192 36.3672 51.1508 36.6942 51.4666 36.9239 51.758 37.1426 52.1107 37.2647 52.475 37.273 53.2506 37.273 53.6385 36.8465 53.7549 35.9931L53.7549 7.64177 63.1019 7.64177 63.1019 43.4396C63.0858 43.8227 63.2425 44.1927 63.5285 44.448 63.8293 44.6772 64.1977 44.7999 64.5757 44.7971 64.9684 44.819 65.3554 44.6947 65.6617 44.448 65.9485 44.196 66.0936 43.8189 66.0495 43.4396L66.0495 34.0925 77.1417 34.0925C77.4815 33.9199 77.7844 33.6828 78.0339 33.3945L78.3829 32.8904 78.3829 31.0286C78.2747 30.6612 78.0744 30.3274 77.8011 30.0592L77.3745 29.8264 66.1271 29.8264 66.1271 7.48675 78.9258 7.48675C79.2608 7.35639 79.5368 7.10808 79.7014 6.78871 79.8016 6.63189 79.8798 6.46232 79.9342 6.28442L79.9342 4.46166ZM15.4748 9.34839C13.8349 7.7424 12.0853 6.25208 10.239 4.88819 8.503 3.5676 6.63074 2.43634 4.6541 1.51401 4.21466 1.50176 3.80153 1.72311 3.56809 2.09573 3.37059 2.45055 3.27649 2.85372 3.29659 3.25918 3.27257 3.49131 3.27257 3.7254 3.29659 3.95737 3.26702 4.04559 3.26702 4.14083 3.29659 4.22888 4.07957 4.94651 4.92315 5.59538 5.81771 6.16811L10.1614 9.038 13.3806 11.4428C13.5381 11.5965 13.7432 11.6924 13.9623 11.7142 14.3114 11.7142 14.6216 11.4428 14.932 10.9385 15.1988 10.4501 15.3451 9.90495 15.3585 9.34839ZM36.6122 13.8862C36.9505 13.8767 37.2593 14.0775 37.388 14.3903 37.5643 14.7806 37.6566 15.2032 37.6595 15.6315 37.6667 16.0234 37.5732 16.4107 37.388 16.7561 37.2232 17.0258 36.9281 17.188 36.6122 17.1828L5.58492 17.1828 5.15823 17.1828C4.88182 16.9808 4.67779 16.6953 4.5765 16.3683L4.5765 15.1661C4.63809 14.6107 5.01643 14.1415 5.5462 13.9638L20.2841 13.9638 20.2841 5.19841C20.2382 4.85258 20.0896 4.52831 19.8574 4.26759 19.6849 4.08937 19.4461 3.99119 19.1981 3.99625 18.7009 4.03072 18.2204 4.19081 17.8019 4.46166 17.3821 4.67452 16.98 4.92103 16.5996 5.19841L16.173 5.19841C15.3585 5.19841 14.9707 4.65557 14.9707 3.56956 14.9555 3.12718 15.0486 2.68775 15.2422 2.2898 15.427 1.94806 15.7305 1.68587 16.0954 1.55273 16.3978 1.34755 16.7232 1.17831 17.065 1.0486 17.7782 0.711102 18.5355 0.476028 19.3146 0.350569L20.7883 0.350569C21.2056 0.5301 21.5969 0.765011 21.9519 1.0486 22.7406 1.81476 23.1996 2.85829 23.2318 3.95754L23.2318 13.9249ZM37.8534 3.02639C38.1677 2.73937 38.3382 2.32721 38.3188 1.90183 38.3028 1.47187 38.1383 1.06069 37.8534 0.738383 37.6103 0.421303 37.2433 0.223639 36.845 0.195214 36.6932 0.149964 36.5313 0.149964 36.3796 0.195214L30.4844 5.31472C30.0257 5.87439 29.5195 6.39338 28.9717 6.86615 27.8771 7.61351 27.1674 8.80538 27.0325 10.124 27.2653 10.8609 27.6144 11.2487 28.0022 11.2876L29.0106 11.2876 37.8534 2.87136ZM33.6647 20.2078 8.80391 20.2078C8.48422 20.3621 8.215 20.6042 8.02828 20.906L8.02828 21.4103C7.88812 22.0778 8.10898 22.7701 8.61 23.2331L8.99782 23.5046 33.8586 23.5046C34.1786 23.5275 34.4823 23.3605 34.6342 23.0781 34.8197 22.7324 34.9131 22.3452 34.9058 21.9532 34.8986 21.5257 34.8063 21.1037 34.6342 20.7121 34.5055 20.3993 34.1968 20.1987 33.8586 20.2078ZM19.8963 34.0927C19.1594 34.5968 18.5388 35.0622 18.0734 35.4502 16.7936 36.4586 15.5912 37.5445 14.4664 38.5916L18.6553 38.5916 18.9653 38.902C19.3048 39.3493 19.4946 39.892 19.5085 40.4533 19.4982 41.1439 19.1865 41.7959 18.6553 42.2375L14.4664 42.2375 14.4664 46.1158C14.3125 46.8801 13.6153 47.4114 12.8376 47.357 12.5104 47.3794 12.1881 47.2675 11.9455 47.0466 11.6994 46.7953 11.5485 46.4662 11.5189 46.1158L11.5189 42.2375 5.11951 42.2375C4.46019 42.2375 4.11109 41.5782 4.11109 40.6472 4.10358 40.2179 4.19653 39.793 4.3826 39.4061 4.53174 39.0608 4.79083 38.7744 5.11951 38.5916L11.2862 38.5916 3.52937 30.8348C3.36748 30.5083 3.27502 30.1517 3.25787 29.7877 3.25771 29.338 3.40783 28.9012 3.68456 28.5465 3.89889 28.2222 4.26547 28.0316 4.6541 28.0424L4.96432 28.0424C5.05253 28.0128 5.14777 28.0128 5.23582 28.0424L7.33025 29.9427C8.9591 31.4942 10.3942 32.968 11.6353 34.3641L11.6353 26.6073C11.6353 25.7929 12.1783 25.3662 12.9152 25.3662 13.2804 25.369 13.6348 25.4917 13.9236 25.7153 14.2408 25.9264 14.4741 26.242 14.5827 26.6073L14.5827 34.3641C15.1259 33.7825 15.5524 33.3169 15.9015 33.0067 16.8984 32.1595 18.042 31.5023 19.2757 31.0676 19.4696 31.1921 19.6402 31.3496 19.7798 31.5329 20.0657 31.9418 20.215 32.4305 20.2065 32.9291 20.2016 33.3246 20.1361 33.717 20.0126 34.0927ZM39.8314 28.0424C39.8495 27.9267 39.8495 27.8089 39.8314 27.6933L39.8314 27.1503C39.8446 26.6986 39.6928 26.2574 39.4048 25.9092 39.1503 25.6173 38.7834 25.4479 38.3964 25.4438 38.0836 25.4396 37.7801 25.5498 37.5432 25.754L30.1353 33.2782 30.1353 26.3359C30.17 25.9496 30.01 25.5714 29.7086 25.3275 29.088 24.8619 28.2348 24.8619 27.6144 25.3275 27.313 25.5714 27.1531 25.9496 27.1877 26.3359L27.1877 33.2782C25.8377 31.5293 24.3598 29.8829 22.7664 28.3528L20.5556 26.3359C20.4676 26.3062 20.3722 26.3062 20.2841 26.3359L19.9738 26.3359C19.5763 26.3327 19.2014 26.5202 18.9653 26.8401 18.7169 27.2066 18.5819 27.6384 18.5775 28.0811 18.5747 28.448 18.6685 28.8092 18.8492 29.1284 20.9804 31.0585 22.964 33.1457 24.783 35.3725 25.4424 36.1871 26.2569 37.1954 27.1877 38.4753L21.8743 38.4753C21.5456 38.6583 21.2865 38.9445 21.1374 39.2898 20.9394 39.6739 20.8332 40.0988 20.8271 40.5309 20.8271 41.4617 21.1762 41.966 21.8743 42.1212L27.3429 42.1212 27.3429 45.4176C27.5994 46.2128 28.4516 46.6495 29.2467 46.393 29.5817 46.285 29.8686 46.0635 30.0577 45.7667 30.1589 45.668 30.2383 45.5491 30.2905 45.4176L30.2905 42.1212 38.0473 42.1212C38.3711 42.0583 38.653 41.8608 38.8229 41.5782 38.9901 41.2411 39.0701 40.8679 39.0557 40.4921 39.0557 39.445 38.7455 38.7857 38.0473 38.4753L30.2905 38.4753 38.4351 29.7488C38.936 29.512 39.3449 29.1166 39.5987 28.6243 39.7149 28.3974 39.8184 28.1642 39.909 27.9261Z" fill-rule="evenodd" transform="matrix(1.00392 0 0 -1 131 601.155)"/><path d="M0 0C-0.218738 0.305155-0.557381 0.502819-0.93082 0.542842-1.40342 0.495631-1.83028 0.239648-2.09426-0.155191-2.09426-0.155191-2.52096-0.775792-2.94765-1.51271L-5.11951-5.39101C-6.86468-8.33866-8.53241-11.0148-10.084-13.4193-10.1083-13.5866-10.1083-13.7563-10.084-13.9234-10.1129-14.4037-9.92847-14.8722-9.5797-15.2033-9.27193-15.5113-8.85145-15.6795-8.41626-15.6689-8.04887-15.679-7.69029-15.5549-7.40784-15.3198-7.11788-15.0648-6.91466-14.726-6.82596-14.3503L-5.11951-11.9456-5.11951-31.3377C-5.11951-32.1911-4.69298-32.6176-3.83959-32.6176-3.47432-32.6148-3.12-32.4921-2.83118-32.2685-2.5038-32.0504-2.26906-31.7188-2.17186-31.3377L-2.17186-7.21394C-1.8868-6.47849-1.52251-5.77638-1.08585-5.11967-0.33554-4.07695 0.144409-2.86417 0.310219-1.59014 0.304828-1.04566 0.199625-0.50674 0 0M-0.736913 11.1698C-1.31341 9.38923-1.98661 7.64112-2.75358 5.93386-3.56809 4.11109-4.92544 1.55126-6.86468-1.82292-7.07721-2.20812-7.4727-2.45708-7.91197-2.48224-8.34455-2.46721-8.74559-2.25223-8.99782-1.90052-9.29954-1.52724-9.46388-1.06167-9.46339-0.581885-9.46682-0.167606-9.34512 0.237851-9.11429 0.581885-7.83437 2.79246-6.59317 5.15823-5.23582 7.79566-4.84801 8.64888-4.34388 9.77361-3.762 11.1698L-3.52921 12.0619C-3.17505 12.6778-2.53256 13.0722-1.82276 13.1091-1.44164 13.1285-1.07654 12.9532-0.853224 12.6435-0.580578 12.2041-0.483543 11.6777-0.581885 11.1698ZM24.3565-3.91719 19.7022-3.91719 19.7022-27.1878C19.4092-28.8865 18.4266-30.3884 16.9874-31.3377 16.3514-31.6317 15.6892-31.8653 15.0094-32.0357L12.5661-32.0357 8.68776-31.1049C7.93745-30.965 7.23207-30.6457 6.63222-30.1742 5.93435-29.7487 5.48625-29.0114 5.42973-28.1963 5.46289-27.7093 5.65353-27.2465 5.9729-26.8775 6.3581-26.8152 6.75098-26.8152 7.13634-26.8775 8.00329-26.9616 8.84606-27.2117 9.61858-27.6144 10.3361-28.0156 11.1279-28.2663 11.9456-28.3515L13.846-28.3515C14.6827-28.3305 15.4412-27.8545 15.8239-27.1103 16.0321-26.7321 16.1886-26.3276 16.2894-25.9079L16.2894-4.18885 2.48208-4.18885 1.97795-3.91719C1.68423-3.46681 1.52283-2.94259 1.51254-2.40481 1.50633-1.91212 1.67084-1.4325 1.97795-1.04729 2.09737-0.846527 2.27249-0.684638 2.48208-0.581885L24.3565-0.581885C24.7089-0.593974 25.0243-0.804217 25.1709-1.12489 25.3826-1.51777 25.4894-1.95851 25.4811-2.40481 25.4904-2.84653 25.3976-3.2845 25.2097-3.68473 25.0534-4.00981 24.7167-4.20878 24.3565-4.18885ZM22.6499 7.21377 3.68456 7.21377C3.33269 7.53249 3.08863 7.95265 2.98637 8.41626L2.98637 9.65714 3.72328 10.8596 22.6888 10.8596C23.22 10.4179 23.5317 9.7661 23.542 9.07558 23.5255 8.50807 23.3208 7.96245 22.9603 7.52416L22.6888 7.21377Z" fill-rule="evenodd" transform="matrix(1.00392 0 0 -1 430.304 567.644)"/></g></svg>