<svg width="804" height="962" xmlns="http://www.w3.org/2000/svg" xmlns:xlink="http://www.w3.org/1999/xlink" xml:space="preserve" overflow="hidden"><g transform="translate(-1518 -540)"><path d="M57.6869 961.478 745.477 961.478C777.291 961.478 803.082 935.708 803.082 903.918L803.082 58.0373C803.082 26.2484 777.291 0.478124 745.477 0.478124L57.6869 0.478124C25.8724 0.478124 0.0816622 26.2484 0.0816622 58.0373L0.0816622 903.918C0.0816622 935.708 25.8724 961.478 57.6869 961.478" fill="#0F218B" fill-rule="evenodd" transform="matrix(1 0 0 -1 1518 1502)"/><path d="M727.908 910.125 40.841 910.125C34.7663 910.15 28.9332 907.747 24.6371 903.45 20.3954 899.152 18.0008 893.365 17.9647 887.325L17.9647 41.2952C17.917 28.7036 28.0815 18.4566 40.6673 18.4084L40.841 18.4084 727.908 18.4084C740.495 18.4084 750.698 28.6165 750.698 41.2088 750.698 41.2373 750.698 41.2662 750.698 41.2952L750.698 886.978C750.698 899.571 740.495 909.779 727.908 909.779ZM40.841 927.464 727.908 927.464C750.218 927.369 768.28 909.298 768.375 886.978L768.375 40.9486C768.327 18.609 750.238 0.511177 727.908 0.463447L40.841 0.463447C18.5117 0.511177 0.422194 18.609 0.374486 40.9486L0.374486 886.978C0.469561 909.298 18.5314 927.369 40.841 927.464" fill="#FFFFFF" fill-rule="evenodd" transform="matrix(1 0 0 -1 1536 1485)"/><path d="M0.0569264 539.978 539.057 539.978 539.057-0.0222647 0.0569264-0.0222647Z" fill="#FFFFFF" fill-rule="evenodd" transform="matrix(1 0 0 -1 1650 1292)"/><path d="M1863.68 985.901 1812.18 1077.43 1848.37 1077.43 1848.37 1141.72 1893.68 1055.27 1863.68 1055.27ZM1808.24 854.912C1803.13 854.912 1798.98 859.041 1798.98 864.134L1798.98 941.81C1798.98 946.903 1803.13 951.032 1808.24 951.032L1898.76 951.032C1903.87 951.032 1908.02 946.903 1908.02 941.81L1908.02 864.134C1908.02 859.041 1903.87 854.912 1898.76 854.912ZM1793.77 839 1913.23 839C1918.67 839 1923.08 843.394 1923.08 848.813L1923.08 1183.97 1943 1183.97 1943 1214 1764 1214 1764 1183.97 1783.92 1183.97 1783.92 848.813C1783.92 843.394 1788.33 839 1793.77 839Z" fill-rule="evenodd"/><path d="M2037 915.644C2029.11 915.644 2022.72 922.025 2022.72 929.897 2022.72 937.769 2029.11 944.151 2037 944.151 2044.89 944.151 2051.28 937.769 2051.28 929.897 2051.28 922.025 2044.89 915.644 2037 915.644ZM2011.88 849 2022.37 849 2022.37 886.367 2051.63 886.367 2051.63 849 2062.12 849 2062.12 886.367 2081 886.367 2081 906.013 2070 906.013 2070 954.744C2070 960.808 2065.08 965.723 2059 965.723L2050.61 965.723 2050.61 995 2023.39 995 2023.39 965.723 2015 965.723C2008.93 965.723 2004 960.808 2004 954.744L2004 906.013 1993 906.013 1993 886.367 2011.88 886.367Z" fill-rule="evenodd"/><path d="M1923.5 1086.97C1940.33 1086.77 1940.55 1086.89 1953.64 1087.45 1966.74 1088.02 1976.77 1103.63 1976.65 1116.57 1976.53 1129.51 1976.2 1141.15 1976.16 1154.9 1976.12 1168.65 1994.54 1184.44 2006.19 1184.5 2017.83 1184.56 2037.06 1171.48 2037.3 1155.26 2037.54 1139.05 2037.54 1045.3 2037.42 995.5" stroke="#000000" stroke-width="9.16667" stroke-miterlimit="8" fill="none" fill-rule="evenodd"/></g></svg>