<svg width="1044" height="1045" xmlns="http://www.w3.org/2000/svg" xmlns:xlink="http://www.w3.org/1999/xlink" xml:space="preserve" overflow="hidden"><g transform="translate(-1558 -498)"><path d="M0.931982 546.406C17.3018 831.183 261.43 1048.77 546.207 1032.4 830.983 1016.03 1048.57 771.901 1032.2 487.124 1015.83 202.347 771.701-15.2384 486.924 1.13138 202.148 17.5022-15.4384 261.629 0.931982 546.406" fill="#FFFFFF" fill-rule="evenodd" transform="matrix(1 0 0 -1 1563 1537)"/><path d="M521.427 1033.83C239.203 1033.89 10.3665 804.936 10.3059 522.442 10.2459 239.947 238.984 10.8916 521.208 10.8315 803.432 10.7705 1032.27 239.729 1032.33 522.223L1032.33 522.442C1031.97 804.726 803.44 1033.47 521.427 1033.83M521.427 0.44115C233.41 0.622912 0.0731688 234.477 0.253995 522.77 0.435583 811.062 234.065 1044.62 522.082 1044.44 809.971 1044.26 1043.25 810.606 1043.25 522.442 1042.95 234.146 809.447 0.562261 521.427 0.44115" fill="#192286" fill-rule="evenodd" transform="matrix(1 0 0 -1 1558 1543)"/><path d="M0.163517 483.535C5.01129 745.549 221.345 954.022 483.359 949.175 745.372 944.327 953.846 727.993 948.998 465.979 944.15 203.966 727.816-4.50797 465.803 0.340185 203.789 5.18796-4.68426 221.522 0.163517 483.535" fill="#0F218B" fill-rule="evenodd" transform="matrix(1 0 0 -1 1605 1495)"/><path d="M2341.78 843.301C2273.15 802.566 2188.57 794 2129.72 794 2123.26 794 2116.58 794.169 2109.85 794.53L2098.06 795.155 2093.28 805.958C2034.86 938.148 2035.51 1091.58 2095.03 1226.95L2099.76 1237.68 2114.2 1238.57C2119.56 1238.91 2122.78 1239.1 2129.72 1239.1 2211.97 1239.1 2287.32 1220.91 2341.9 1187.9 2407.38 1148.32 2442 1089.06 2442 1016.56 2442 942.166 2407.34 882.255 2341.78 843.301ZM1781.4 880.955 1981.26 845.659 2009.61 840.654C2032.79 836.564 2032.84 800.472 2009.61 804.563L1809.75 839.86 1781.4 844.864C1758.22 848.955 1758.18 885.046 1781.4 880.955ZM2016.82 1169.01 1810.83 1205.39 1781.4 1210.59C1758.22 1214.68 1758.18 1250.77 1781.4 1246.68L1987.39 1210.3 2016.82 1205.1C2040 1201.01 2040.05 1164.92 2016.82 1169.01ZM1781.4 972.386 1985.59 936.319C2008.77 932.229 2008.82 896.138 1985.59 900.228L1781.4 936.295C1758.22 940.385 1758.18 976.476 1781.4 972.386ZM1781.4 1063.82 1961.57 1032.01C1984.75 1027.92 1984.8 991.827 1961.57 995.917L1781.4 1027.73C1758.22 1031.82 1758.18 1067.91 1781.4 1063.82ZM1781.4 1155.25 1985.59 1119.18C2008.77 1115.09 2008.82 1079 1985.59 1083.09L1781.4 1119.16C1758.22 1123.25 1758.18 1159.34 1781.4 1155.25Z" fill="#FFFFFF" fill-rule="evenodd"/></g></svg>