<svg width="1044" height="925" xmlns="http://www.w3.org/2000/svg" xmlns:xlink="http://www.w3.org/1999/xlink" xml:space="preserve" overflow="hidden"><g transform="translate(-295 -540)"><path d="M966.983 0.0606203 31.0804 0.0606203C-8.80136 7.56007-7.13361 46.4449 20.6584 94.6347L462.276 858.449C478.952 884.141 520.64 900.112 545.653 858.449L978.378 110.744C1007.84 64.7765 1034.8-0.772138 966.983 0.0606203" fill="#CA65A3" fill-rule="evenodd" transform="matrix(1 0 0 -1 312 1449)"/><path d="M520.452 824.082 89.5585 76.7858 951.345 76.7858ZM999.318 0.331907 31.9623 0.331907C-9.2592 8.23566-7.53594 48.7624 21.1901 99.0608L477.65 897.375C494.886 924.105 537.975 941.494 563.829 897.375L1011.1 116.019C1041.55 68.1629 1069.41-0.530378 999.893 1.0503Z" fill-rule="evenodd" transform="matrix(1 0 0 -1 295 1465)"/><path d="M701.829 1256.23 701.829 1267.19 753.216 1267.19 753.216 1256.23ZM875.295 1226.08 875.295 1270.48 914.175 1270.48 914.175 1226.08ZM701.829 1220.87 701.829 1231.01 753.216 1231.01 753.216 1220.87ZM945.714 1213.75 945.714 1306.11C966.197 1294.97 981.966 1282.18 993.023 1267.74 985.229 1253.67 978.704 1235.95 973.447 1214.57 970.366 1219.5 967.465 1223.98 964.747 1228 958.946 1222.88 952.602 1218.13 945.714 1213.75ZM996.557 1162.22 996.014 1163.59C1000 1190.82 1005.53 1213.57 1012.6 1231.84 1019.12 1214.48 1023.66 1191.27 1026.19 1162.22ZM701.829 1155.64 701.829 1166.33 741.253 1166.33 741.253 1155.64ZM625.7 1155.64 625.7 1166.33 667.571 1166.33 667.571 1155.64ZM979.972 1080.27C986.135 1080.82 994.156 1081.96 1004.03 1083.7 1013.91 1085.44 1019.21 1086.71 1019.94 1087.54 1020.67 1088.36 1021.03 1089.32 1021.03 1090.41 1021.03 1091.51 1020.21 1093.02 1018.58 1094.94 1016.95 1096.86 1014.86 1101.29 1012.33 1108.23 1009.79 1115.17 1007.34 1123.03 1004.99 1131.8L1079.21 1131.8 1079.21 1162.22 1059.64 1162.22C1055.29 1209.91 1046.22 1245.08 1032.45 1267.74 1045.5 1284.73 1064.35 1298.35 1089 1308.58 1077.58 1318.81 1067.79 1328.95 1059.64 1339 1039.15 1324.02 1023.11 1309.4 1011.51 1295.15 999.367 1308.12 980.697 1322.74 955.502 1339 949.158 1330.23 940.73 1321.82 930.217 1313.79 931.848 1313.05 935.382 1311.32 940.82 1308.58L914.175 1308.58 914.175 1297.61 875.295 1297.61 875.295 1317.07 844.299 1317.07 844.299 1197.85 878.829 1197.85 878.829 1161.95 832.88 1161.95 832.88 1131.53 878.829 1131.53 878.829 1083.56 908.466 1083.56C913.722 1083.56 916.35 1084.84 916.35 1087.4 916.35 1088.68 915.625 1090.51 914.175 1092.88 912.725 1095.26 912 1101.56 912 1111.79L912 1131.53 957.134 1131.53 957.134 1161.95 912 1161.95 912 1197.85 945.714 1197.85 945.714 1204.98C960.396 1183.23 971.816 1141.67 979.972 1080.27ZM667.571 1080 700.742 1080C703.823 1080 705.364 1080.78 705.364 1082.33 705.364 1083.88 704.82 1085.94 703.733 1088.5 702.645 1091.05 702.101 1094.43 702.101 1098.64L805.963 1098.64 805.963 1123.85 701.829 1123.85 701.829 1132.9 778.502 1132.9 778.502 1188.26 701.829 1188.26 701.829 1197.85 785.843 1197.85 785.843 1231.01 811.945 1231.01 811.945 1256.23 785.843 1256.23 785.843 1300.9 753.216 1300.9 753.216 1289.94 701.829 1289.94 701.829 1302.27C701.829 1318.17 696.845 1328.17 686.876 1332.29 676.906 1336.4 664.127 1338.63 648.539 1339 647.27 1325.48 644.37 1314.61 639.839 1306.39 648.539 1307.48 654.747 1308.03 658.463 1308.03 662.179 1308.03 664.626 1307.48 665.804 1306.39 666.982 1305.29 667.571 1303.28 667.571 1300.36L667.571 1289.94 580.567 1289.94 580.567 1267.19 667.571 1267.19 667.571 1256.23 558 1256.23 558 1231.01 667.571 1231.01 667.571 1220.87 584.101 1220.87 584.101 1197.85 667.571 1197.85 667.571 1188.26 591.986 1188.26 591.986 1132.9 667.571 1132.9 667.571 1123.85 563.981 1123.85 563.981 1098.64 667.571 1098.64Z" fill-rule="evenodd"/></g></svg>