<svg width="1457" height="1458" xmlns="http://www.w3.org/2000/svg" xmlns:xlink="http://www.w3.org/1999/xlink" xml:space="preserve" overflow="hidden"><g transform="translate(-607 -2017)"><path d="M689.045 1441.74C1087.1 1459.8 1424.44 1151.98 1442.52 754.199 1460.59 356.42 1152.56 19.3121 754.503 1.24927 356.447-16.8142 19.1063 291.007 1.03012 688.787-17.045 1086.57 290.989 1423.67 689.045 1441.74" fill="#FFFFFF" fill-rule="evenodd" transform="matrix(1 0 0 -1 613 3468)"/><path d="M727.826 1442.84C333.849 1442.92 14.3998 1123.39 14.3153 729.144 14.2316 334.897 333.544 15.2284 727.521 15.1447 1121.5 15.0592 1440.95 334.592 1441.03 728.839L1441.03 728.991C1440.61 1123 1121.57 1442.33 727.826 1442.84M727.826 0.491464C325.762 0.744952 0.030576 327.11 0.28304 729.45 0.536566 1131.79 326.678 1457.74 728.741 1457.49 1130.63 1457.24 1456.28 1131.15 1456.28 728.991 1455.86 326.647 1129.89 0.659748 727.826 0.491464" fill="#192286" fill-rule="evenodd" transform="matrix(1 0 0 -1 607 3475)"/><path d="M662.783 1325.48C1028.67 1325.48 1325.28 1028.86 1325.28 662.977 1325.28 297.087 1028.67 0.476435 662.783 0.476435 296.895 0.476435 0.28293 297.087 0.28293 662.977 0.28293 1028.86 296.895 1325.48 662.783 1325.48" fill="#0F218B" fill-rule="evenodd" transform="matrix(1 0 0 -1 672 3409)"/><rect x="831" y="2961" width="995" height="58.9998" fill="#FFFFFF"/><path d="M1295 2813.38 1747 2813.38 1747 2898 1295 2898ZM1374.41 2391 1667.59 2391C1711.45 2391 1747 2426.54 1747 2470.37L1747 2787.98 1295 2787.98 1295 2470.37C1295 2426.54 1330.55 2391 1374.41 2391Z" fill="#FFFFFF" fill-rule="evenodd"/><path d="M1315 2888.45C1315 2881.58 1320.57 2876 1327.45 2876L1353.55 2876C1360.43 2876 1366 2881.58 1366 2888.45L1366 2952.55C1366 2959.42 1360.43 2965 1353.55 2965L1327.45 2965C1320.57 2965 1315 2959.42 1315 2952.55Z" fill="#FFFFFF" fill-rule="evenodd"/><path d="M1385 2888.21C1385 2881.47 1390.47 2876 1397.21 2876L1422.79 2876C1429.53 2876 1435 2881.47 1435 2888.21L1435 2952.79C1435 2959.53 1429.53 2965 1422.79 2965L1397.21 2965C1390.47 2965 1385 2959.53 1385 2952.79Z" fill="#FFFFFF" fill-rule="evenodd"/><path d="M1607 2888.45C1607 2881.58 1612.58 2876 1619.45 2876L1645.55 2876C1652.43 2876 1658 2881.58 1658 2888.45L1658 2952.55C1658 2959.42 1652.43 2965 1645.55 2965L1619.45 2965C1612.58 2965 1607 2959.42 1607 2952.55Z" fill="#FFFFFF" fill-rule="evenodd"/><path d="M1677 2888.45C1677 2881.58 1682.58 2876 1689.45 2876L1715.55 2876C1722.43 2876 1728 2881.58 1728 2888.45L1728 2952.55C1728 2959.42 1722.43 2965 1715.55 2965L1689.45 2965C1682.58 2965 1677 2959.42 1677 2952.55Z" fill="#FFFFFF" fill-rule="evenodd"/></g></svg>