<svg width="1458" height="1458" xmlns="http://www.w3.org/2000/svg" xmlns:xlink="http://www.w3.org/1999/xlink" xml:space="preserve" overflow="hidden"><g transform="translate(-697 -1177)"><path d="M688.567 1441.74C1086.35 1459.8 1423.45 1151.98 1441.52 754.199 1459.58 356.42 1151.76 19.3121 753.98 1.24927 356.2-16.8142 19.0931 291.007 1.02941 688.787-17.0332 1086.57 290.788 1423.67 688.567 1441.74" fill="#FFFFFF" fill-rule="evenodd" transform="matrix(1 0 0 -1 704 2627)"/><path d="M728.326 1442.84C334.078 1442.92 14.4097 1123.39 14.3251 729.144 14.2414 334.897 333.773 15.2284 728.02 15.1447 1122.27 15.0592 1441.94 334.592 1442.02 728.839L1442.02 728.991C1441.6 1123 1122.34 1442.33 728.326 1442.84M728.326 0.491464C325.986 0.744952 0.030597 327.11 0.283235 729.45 0.536935 1131.79 326.902 1457.74 729.241 1457.49 1131.4 1457.24 1457.28 1131.15 1457.28 728.991 1456.86 326.647 1130.67 0.659748 728.326 0.491464" fill="#192286" fill-rule="evenodd" transform="matrix(1 0 0 -1 697 2635)"/><path d="M662.783 1325.48C1028.67 1325.48 1325.28 1028.86 1325.28 662.977 1325.28 297.087 1028.67 0.476435 662.783 0.476435 296.895 0.476435 0.28293 297.087 0.28293 662.977 0.28293 1028.86 296.895 1325.48 662.783 1325.48" fill="#0F218B" fill-rule="evenodd" transform="matrix(1 0 0 -1 762 2569)"/><path d="M311.706 87.8968 409.841 96.9988 367.024 190.684C378.304 195.571 390.446 198.141 402.733 198.24 454.093 198.106 495.621 156.246 495.488 104.743 495.424 80.2164 485.728 56.7023 468.498 39.2944 451.385 21.5262 427.707 11.6433 403.075 11.9876 381.153 11.6695 359.859 19.3265 343.133 33.5404 326.485 47.285 315.329 66.5804 311.706 87.8968M310.335 99.6609 310.335 105.071C309.089 138.905 327.438 170.419 357.433 185.96L392.457 107.475C392.457 107.475 310.336 99.6609 310.335 99.6609M278.395 96.6554 331.915 242.635 352.382 196.437C318.125 179.207 297.091 143.471 298.604 105.071L298.604 98.3731ZM159.366 232.846 168.443 257.491 324.808 257.491 268.29 102.409ZM11.6508 105.071C11.8385 156.415 53.274 198.005 104.476 198.24 114.555 198.112 124.553 196.402 134.105 193.174 123.087 162.26 114.238 138.188 107.559 120.957L99.7662 101.722C99.7662 98.974 101.222 97.6858 104.133 97.6858 107.045 97.6858 111.584 103.869 116.293 116.577L143.524 189.481C177.547 175.687 199.152 141.828 197.387 105.071 197.293 53.6681 155.736 12.0347 104.476 11.9876 53.383 12.2703 12.0865 53.835 11.993 105.071ZM0.175955 105.071C0.175597 47.2514 46.8174 0.326231 104.476 0.136876 162.127 0.089298 208.9 46.9158 208.947 104.727 208.948 104.842 208.947 104.956 208.947 105.071 209.132 125.378 203.159 145.262 191.821 162.089 180.967 178.827 165.497 192.043 147.292 200.129L155.855 221.082 270.003 83.8608 300.231 86.8663C308.99 36.8008 352.3 0.246735 402.99 0.136876 460.688 0.295508 507.333 47.3268 507.175 105.185 507.1 132.884 496.088 159.426 476.548 179.005 457.176 198.983 430.432 210.046 402.647 209.575 388.771 209.637 375.024 206.892 362.229 201.503L337.396 257.491 346.473 283.252 344.76 283.938 351.182 302.83C357.299 302.678 363.408 303.371 369.337 304.891 377.129 306.866 381.068 310.473 381.068 315.625 381.068 325.242 377.729 330.137 371.049 330.137 365.911 329.903 360.82 329.038 355.892 327.561 351.383 326.308 346.767 325.474 342.105 325.071 337.921 325.146 333.744 325.49 329.603 326.101 324.465 326.788 321.211 327.131 319.841 327.131 316.074 327.131 314.103 324.555 314.103 319.661 314.103 318.115 317.871 315.281 325.236 311.074 331.036 307.693 337.255 305.095 343.732 303.345L337.396 286.171 336.026 287.202 328.832 268.654 172.468 268.654 188.053 311.589 226.93 313.392 219.052 326.874 180.517 326.874 174.181 304.891 137.787 204.079C127.059 207.723 115.802 209.552 104.476 209.489 47.0621 209.679 0.365619 163.16 0.176432 105.587 0.175597 105.415 0.175597 105.243 0.175955 105.071" fill="#FFFFFF" fill-rule="evenodd" transform="matrix(1 0 0 -1 1512 2071)"/><path d="M164.298 235.381 270.514 108.599 324.867 257.699 172.541 257.699ZM271.802 100.531 159.575 234.523 169.622 261.647 330.792 261.647ZM359.642 185.338C331.431 169.72 314.352 139.617 315.422 107.398L315.422 104.222 392.701 111.604ZM311.3 99.5009 311.3 107.226C310.109 141.773 328.882 173.93 359.556 189.887L361.532 191.089 398.711 107.827ZM335.514 239.244 284.424 101.131 299.536 102.419 299.536 107.226C298.134 145.663 318.851 181.514 352.859 199.501ZM278.671 96.4965 335.17 250.231 358.183 197.612 356.465 196.668C322.697 179.895 301.995 144.798 303.658 107.14L303.658 98.5565ZM106.94 198.213C56.6957 199.756 14.7137 160.29 13.1702 110.063 11.6264 59.8357 51.106 17.8675 101.35 16.3242 103.213 16.2672 105.077 16.2672 106.94 16.3242 157.207 16.2772 197.996 56.9751 198.043 107.226L198.043 107.226C200.087 142.49 179.74 175.234 147.211 189.029L120.764 118.213C115.527 104.307 111.147 98.0415 106.596 98.0415 103.497 97.6032 100.63 99.7598 100.192 102.858 100.131 103.281 100.12 103.71 100.156 104.136L100.156 104.908 107.97 124.136C114.41 140.788 123.083 164.393 133.73 194.179 125.054 196.866 116.022 198.226 106.94 198.213M106.94 12.1187C54.3724 13.6972 13.0379 57.5774 14.6173 110.127 16.1297 160.459 56.5912 200.907 106.94 202.419 117.258 202.296 127.489 200.529 137.25 197.183L139.311 196.582 138.538 194.522C127.548 163.707 118.618 139.415 112.006 122.333L104.278 103.449C104.278 102.505 104.278 101.904 106.596 101.904 108.915 101.904 110.632 102.763 116.814 119.071L144.892 194.007 146.953 193.149C181.617 179.031 203.701 144.698 202.165 107.312 202.117 54.7579 159.511 12.1658 106.94 12.1187M317.225 88.2558C327.104 38.5981 375.381 6.34882 425.056 16.2247 474.73 26.1009 506.99 74.362 497.111 124.02 487.232 173.678 438.954 205.927 389.28 196.051 383.759 194.953 378.35 193.35 373.123 191.261L416.056 96.8398ZM406.525 12.1187C360.729 11.9589 321.304 44.4105 312.674 89.3718L312.674 91.6035 410.389 100.188 367.542 193.922 369.517 194.78C381.106 199.747 393.573 202.345 406.182 202.419 458.82 202.289 501.386 159.524 501.255 106.903 501.193 81.837 491.252 57.8048 473.586 40.0152 456.003 21.9199 431.759 11.8348 406.525 12.1187M304.946 91.2601 304.946 89.3718C313.673 40.2873 356.311 4.49616 406.182 4.39291 463.085 5.00629 508.717 51.6179 508.104 108.502 507.816 135.164 497.197 160.676 478.481 179.672 459.414 199.214 433.142 210.048 405.838 209.63 392.191 209.682 378.673 206.997 366.082 201.733L364.193 200.96 337.832 259.501 346.419 284.051 344.702 284.737 352.258 306.883 353.718 306.883C359.835 306.811 365.933 307.591 371.835 309.201 382.054 311.776 382.054 316.411 382.054 317.784 382.054 328.943 377.589 330.231 374.154 330.231 369.176 330.003 364.246 329.167 359.471 327.742 354.793 326.391 349.987 325.528 345.131 325.167 340.846 325.301 336.573 325.702 332.337 326.369 327.271 327.055 323.751 327.398 322.806 327.398 321.862 327.398 319.114 327.398 319.114 321.99 322.192 319.361 325.598 317.139 329.246 315.381 334.878 312.124 340.911 309.613 347.192 307.913L349.51 307.312 340.924 285.252 339.55 286.282 333.281 269.115 172.112 269.115 189.285 316.068 226.293 317.784 220.283 326.369 184.734 326.369 178.809 305.853 141.543 202.849 139.654 203.45C102.743 215.801 62.0183 206.304 34.3834 178.9-5.12653 137.958-3.954 72.7494 37.0015 33.2531 55.8097 15.1148 80.8096 4.79848 106.94 4.39291 163.609 4.15571 209.741 49.887 209.978 106.537 209.98 106.824 209.98 107.111 209.978 107.398 210.121 127.306 204.223 146.789 193.063 163.278 182.369 179.681 167.162 192.647 149.271 200.617L147.468 201.475 157.6 227.226 273.863 88.1702ZM406.525 0.18737C355.291 0.197646 311.257 36.5151 301.511 86.7969L271.802 83.8781 158.888 219.244 152.706 203.364C170.57 195.026 185.74 181.854 196.498 165.338 228.792 116.042 214.997 49.9091 165.685 17.6246 148.229 6.19647 127.806 0.134553 106.94 0.18737 47.8518 0.28691 0.0320356 48.2526 0.132446 107.321 0.180021 135.579 11.4133 162.671 31.378 182.677 59.7129 210.499 101.101 220.405 138.968 208.428L174.774 307.141 181.471 330.488 222.858 330.488 233.162 313.321 192.118 311.432 177.951 272.634 330.792 272.634 338.004 292.462 339.464 291.433 344.015 303.965C338.035 305.745 332.274 308.193 326.842 311.261 315.937 317.784 314.735 319.93 314.735 321.647 314.735 330.231 320.23 331.175 322.548 331.175 324.867 331.175 327.185 331.175 332.595 330.145 336.662 329.543 340.763 329.199 344.874 329.115 349.381 329.508 353.839 330.341 358.183 331.604 363.293 333.113 368.571 333.979 373.896 334.18 379.392 334.18 386.003 331.261 386.003 317.613 386.003 311.347 381.452 307.055 372.694 304.909 367.094 303.416 361.316 302.694 355.521 302.763L350.197 287.14 351.915 286.454 342.47 259.673 366.684 206.196C379.269 211.115 392.668 213.619 406.182 213.578 465.08 213.747 512.963 166.153 513.132 107.274 513.213 78.8187 501.912 51.5122 481.744 31.4315 462.027 11.1313 434.826-0.167414 406.525 0.18737" stroke="#FFFFFF" stroke-width="5.72917" stroke-miterlimit="8" fill="#FFFFFF" fill-rule="evenodd" transform="matrix(1 0 0 -1 1509 2073)"/><path d="M0.0386974 32.0038 8.0386 32.0038 8.0386 0.00375139 0.0386974 0.00375139Z" fill="#FFFFFF" fill-rule="evenodd" transform="matrix(1 0 0 -1 1775 1958)"/><path d="M0.550107 0.707175 8.36153 0.707175 8.36153 33.3894 0.550107 33.3894ZM9.0406 0.00403611 0.0406611 0.00403611 0.0406611 34.0041 9.0406 34.0041Z" fill="#FFFFFF" fill-rule="evenodd" transform="matrix(1 0 0 -1 1774 1959)"/><path d="M0.0391474 30.0569 8.03916 30.0569 8.03916 0.0570282 0.0391474 0.0570282Z" fill="#FFFFFF" fill-rule="evenodd" transform="matrix(1 0 0 -1 1780 2033)"/><path d="M0.550905 0.741367 8.36156 0.741367 8.36156 29.3705 0.550905 29.3705ZM9.04118 0.0557249 0.0411317 0.0557249 0.0411317 30.0557 9.04118 30.0557Z" fill="#FFFFFF" fill-rule="evenodd" transform="matrix(1 0 0 -1 1779 2033)"/><path d="M0.0421671 9.06738 25.0423 9.06738 25.0423 0.0673288 0.0421671 0.0673288Z" fill="#FFFFFF" fill-rule="evenodd" transform="matrix(1 0 0 -1 1780 2042)"/><path d="M0.649705 0.684444 25.4362 0.684444 25.4362 9.45608 0.649705 9.45608ZM26.043 0.0702151 0.042831 0.0702151 0.042831 10.0702 26.043 10.0702Z" fill="#FFFFFF" fill-rule="evenodd" transform="matrix(1 0 0 -1 1779 2042)"/><path d="M0.0400298 9.99147 25.0402 9.99147 25.0402-0.00849445 0.0400298-0.00849445Z" fill="#FFFFFF" fill-rule="evenodd" transform="matrix(1 0 0 -1 1758 1929)"/><path d="M0.622627 0.602097 24.4558 0.602097 24.4558 10.38 0.622627 10.38ZM25.0392-0.0087507 0.0390955-0.0087507 0.0390955 10.9912 25.0392 10.9912Z" fill="#FFFFFF" fill-rule="evenodd" transform="matrix(1 0 0 -1 1758 1929)"/><path d="M22.6635 0.177458C35.09 0.177458 45.1635 10.251 45.1635 22.6775 45.1635 35.104 35.09 45.1775 22.6635 45.1775 10.2373 45.1775 0.163445 35.104 0.163445 22.6775 0.20984 10.2704 10.2563 0.223853 22.6635 0.177458" stroke="#FFFFFF" stroke-width="14.8958" stroke-miterlimit="8" fill="#0F218B" fill-rule="evenodd" transform="matrix(1 0 0 -1 1760.5 1999.5)"/><path d="M1406 1352C1406 1341.51 1414.51 1333 1425 1333L1425 1333C1435.49 1333 1444 1341.51 1444 1352L1444 2461C1444 2471.49 1435.49 2480 1425 2480L1425 2480C1414.51 2480 1406 2471.49 1406 2461Z" fill="#FFFFFF" fill-rule="evenodd"/><path d="M53.7078 108.135C83.255 108.135 107.208 83.9579 107.208 54.1345 107.208 24.311 83.255 0.134417 53.7078 0.134417 24.1606 0.134417 0.207813 24.311 0.207813 54.1345 0.207813 83.9579 24.1606 108.135 53.7078 108.135" fill="#FFFFFF" fill-rule="evenodd" transform="matrix(1 0 0 -1 1065 1727)"/><path d="M126.719 416.288C176.988 486.485 234.029 473.722 300.707 339.579L307.609 323.17C313.721 300.081 313.721 275.8 307.609 252.712 288.856 213.902 272.187 234.349 257.601 314.053L226.475 349.217C235.113 280.116 237.944 210.413 234.941 140.839L295.368 36.651C301.358 7.60834 263.461-13.099 246.01 10.6032L177.379 124.691 175.165 202.832 124.245 140.839 102.236 43.8134C87.9103-7.36857 44.0231 5.78483 48.5807 51.107 60.1712 98.9032 56.5249 172.617 83.4826 194.367 95.0731 214.162 112.915 227.837 118.385 253.754L122.031 316.528C95.6828 298.686 66.4828 285.472 35.6879 277.457-2.33927 280.452-9.89244 285.401 13.4184 304.676 61.8641 334.63 102.757 369.794 126.719 416.288" fill="#FFFFFF" fill-rule="evenodd" transform="matrix(1 0 0 -1 944 2193)"/></g></svg>