<svg width="1922" height="671" xmlns="http://www.w3.org/2000/svg" xmlns:xlink="http://www.w3.org/1999/xlink" xml:space="preserve" overflow="hidden"><defs><clipPath id="clip0"><rect x="890" y="732" width="1922" height="671"/></clipPath><clipPath id="clip1"><rect x="889" y="731" width="521" height="520"/></clipPath><clipPath id="clip2"><rect x="889" y="731" width="521" height="520"/></clipPath><clipPath id="clip3"><rect x="1739" y="731" width="237" height="520"/></clipPath><clipPath id="clip4"><rect x="1739" y="731" width="237" height="520"/></clipPath><clipPath id="clip5"><rect x="2305" y="735" width="507" height="513"/></clipPath><clipPath id="clip6"><rect x="2305" y="735" width="507" height="513"/></clipPath></defs><g clip-path="url(#clip0)" transform="translate(-890 -732)"><g clip-path="url(#clip1)"><g clip-path="url(#clip2)"><g><g><path d="M0 0C6.97739 141.648 127.462 250.82 269.109 243.842 410.757 236.865 519.929 116.381 512.952-25.2671 505.975-166.915 385.49-276.087 243.842-269.11 102.195-262.132-6.97739-141.648 0 0" fill="#FFFFFF" transform="matrix(1 0 0 -1.00036 892.966 979.001)"/></g><g><path d="M0 0C-140.379 0.0300962-254.203-113.745-254.233-254.124-254.263-394.503-140.487-508.327-0.10871-508.357 140.27-508.387 254.094-394.611 254.124-254.233L254.124-254.178C253.974-113.883 140.295-0.179799 0 0M0-513.574C-143.29-513.514-259.401-397.306-259.341-254.015-259.281-110.725-143.073 5.38592 0.21716 5.32573 143.486 5.2658 259.589-110.909 259.558-254.178 259.408-397.44 143.262-513.514 0-513.574" fill="#192286" transform="matrix(1 0 0 -1.00036 1149.39 737.327)"/></g><g><path d="M0 0C7.11593 130.129 118.375 229.852 248.505 222.736 378.634 215.62 478.356 104.36 471.241-25.7691 464.125-155.899 352.865-255.621 222.736-248.505 92.6063-241.389-7.11593-130.13 0 0" fill="#0F218B" transform="matrix(1 0 0 -1.00036 913.854 978.712)"/></g><g><path d="M0 0 0.489063 188.582-47.3359 140.214-47.064 213.473 34.2925 290.971 109.073 212.658 109.073 141.899 55.2704 188.365 55.1072-0.597773Z" fill="#FFFFFF" fill-rule="evenodd" transform="matrix(1 0 0 -1.00036 1118.52 1136.81)"/></g><g><path d="M0 0 55.1072-0.597773 55.1072 188.365 108.91 141.899 108.91 212.549 34.2925 290.971-47.064 213.69-47.064 140.431 0.760967 188.8 0.271644 0.217419ZM55.1072-0.597773 0 0 0.489063 188.582-47.3359 140.214-47.064 213.69 34.4557 291.188 109.073 212.658 109.073 142.007 55.2701 188.474Z" fill="#FFFFFF" transform="matrix(1 0 0 -1.00036 1118.52 1136.81)"/></g><g><path d="M0 0C-0.423422 0.494512-1.03391 0.790025-1.68461 0.815192-2.46789 0.75941-3.19409 0.386321-3.69561-0.217419-3.69561-0.217419-4.40209-1.08684-5.16279-2.11971L-8.96737-7.55414C-12.0649-11.7388-14.9454-15.4889-17.6626-18.9129-17.6968-19.1469-17.6968-19.3851-17.6626-19.6191-17.6927-20.3129-17.3899-20.9791-16.8474-21.4127-16.2138-21.8135-15.4772-22.0213-14.7279-22.0104-14.1343-22.0499-13.5433-21.8976-13.0431-21.5756-12.5434-21.2409-12.1778-20.7404-12.0105-20.1626L-9.02133-16.7934-9.02133-43.9664C-8.91263-45.0416-7.95292-45.8248-6.87802-45.7159-6.84948-45.713-6.82146-45.7096-6.79344-45.7055-6.16168-45.7112-5.54081-45.5418-4.99986-45.2164-4.47318-44.9614-4.0648-44.5138-3.85854-43.9666L-3.85854-9.94576C-3.36818-8.86463-2.72812-7.85848-1.95625-6.95637-0.69351-5.57013 0.153854-3.8562 0.489323-2.011 0.491139-1.27623 0.323794-0.551072 0 0.10871ZM-1.30425 15.7603C-2.33116 13.2275-3.51088 10.7594-4.83693 8.36934-7.06119 4.62651-9.47356 0.998882-12.0649-2.50006-12.4868-3.06981-13.1497-3.41099-13.8583-3.4237-15.2974-3.49194-16.5194-2.38071-16.5877-0.941544-16.6201-0.256596-16.3814 0.413563-15.9235 0.923901-13.6133 4.19946-11.4731 7.59151-9.51066 11.0866-8.74995 12.2824-7.9345 13.8583-6.90215 15.8148L-6.46731 17.0645C-5.76031 18.0074-4.65635 18.5694-3.47793 18.5865-2.83579 18.6342-2.20948 18.3717-1.79332 17.8797-1.32449 17.3019-1.14443 16.5418-1.30425 15.8145ZM42.5534-5.48892 34.4015-5.48892 34.4015-38.0969C33.777-40.6462 32.0415-42.781 29.673-43.9122 28.5758-44.3753 27.4259-44.704 26.2493-44.8903L21.956-44.8903 15.4886-43.6403C14.2199-43.4117 13.0039-42.9512 11.9017-42.2818 10.4888-41.4121 9.7823-40.4882 9.7823-39.5098 9.84898-38.7883 10.2011-38.1228 10.7607-37.6623 11.434-37.4814 12.1285-37.3899 12.8259-37.3904 14.3167-37.5297 15.7707-37.9347 17.119-38.5862 18.4119-39.152 19.7888-39.501 21.195-39.6185L24.5102-39.6185C25.8703-39.6468 27.1546-38.9943 27.9342-37.8794 28.3203-37.3732 28.6147-36.803 28.8039-36.1948L28.8039-5.54341 4.29338-5.54341 3.4237-5.16279C2.91855-4.54868 2.63186-3.78408 2.60877-2.98912 2.61889-2.27252 2.91181-1.58861 3.4237-1.08684L4.29338-0.434838 42.336-0.434838C42.9078-0.423163 43.4439-0.711671 43.749-1.19555 44.0886-1.73079 44.259-2.35555 44.238-2.98912 44.2616-3.63282 44.1117-4.27107 43.8032-4.83693 43.475-5.31717 42.9161-5.58648 42.336-5.54341ZM39.5098 10.2171 6.24989 10.2171C5.6529 10.6076 5.2261 11.2095 5.05409 11.9017 4.97314 12.4788 4.97314 13.0641 5.05409 13.6408L6.30437 15.3254 39.4556 15.3254C40.8364 14.5982 41.3659 12.8892 40.6389 11.5082 40.4659 11.18 40.2301 10.8891 39.9447 10.652L39.4556 10.2171ZM-74.6178-39.1295-70.3242-39.1295C-69.5661-39.0887-68.8292-39.3876-68.3134-39.9447-67.8433-40.5079-67.5924-41.2219-67.6069-41.9554-67.5787-42.6489-67.8114-43.3276-68.2592-43.8577-68.7973-44.41-69.5562-44.6897-70.3242-44.6186L-122.823-44.6186C-123.671-44.6534-124.496-44.339-125.105-43.749-125.665-43.2303-125.98-42.5008-125.975-41.7382-125.975-39.9447-124.888-39.0208-122.714-39.0208L-119.671-39.0208-119.671-0.978386C-119.746 0.305373-119.095 1.52271-117.986 2.17393-117.448 2.48942-116.86 2.70995-116.247 2.82593L-100.432 2.82593-100.432 8.26063-124.834 8.26063C-125.52 8.20822-126.188 8.49154-126.627 9.02133-127.424 10.0843-127.424 11.5455-126.627 12.6085-126.173 13.1173-125.515 13.3962-124.834 13.3692L-100.432 13.3692-100.432 15.9235C-100.391 16.4535-100.136 16.9442-99.7258 17.282-99.2487 17.5604-98.7007 17.6924-98.1497 17.6626-96.903 17.8185-95.7119 17.0993-95.2692 15.9235L-95.2692 12.4998-69.0199 12.4998C-68.5163 12.5128-68.0348 12.292-67.7157 11.9017-67.3706 11.4513-67.1975 10.8925-67.2266 10.3258-67.2131 9.71043-67.3833 9.10488-67.7157 8.58676-67.985 8.12001-68.481 7.83072-69.0199 7.82579L-95.2692 7.82579-95.2692 2.71722-78.5306 2.71722C-77.2144 2.80855-75.9568 2.15888-75.2698 1.03235-74.9971 0.493733-74.7789-0.0703109-74.6178-0.652257L-74.6178-39.4011ZM-114.508-39.1295-79.3458-39.1295-79.3458-28.2601-114.508-28.2601ZM-79.3458-15.5974-114.508-15.5974-114.508-22.8254-79.3458-22.8254ZM-79.3458-10.489-79.3458-3.69561C-79.5717-3.16399-79.9267-2.69724-80.3784-2.33713L-81.0849-2.011-112.769-2.011C-113.396-1.94069-114.001-2.265-114.291-2.82619-114.335-3.11418-114.335-3.40762-114.291-3.69561L-114.291-10.489Z" fill-rule="evenodd" transform="matrix(1 0 0 -1.00036 1190.75 1335.68)"/></g></g></g></g><g clip-path="url(#clip3)"><g clip-path="url(#clip4)"><g><path d="M2.32558 608.404 234.475 608.404 234.475 94.8999 2.32558 94.8999Z" fill="#FFFFFF" transform="matrix(1 0 0 -1.00122 1739.02 1342.62)"/><path d="M0.856866 93.3903 235.985 93.3903 235.985 609.873 0.856866 609.873ZM3.79429 606.935 233.007 606.935 233.007 96.3686 3.79429 96.3686Z" fill="#192286" transform="matrix(1 0 0 -1.00122 1739.02 1342.62)"/><path d="M11.7503 597.674 225.092 597.674 225.092 105.589 11.7503 105.589Z" fill="#0F218B" transform="matrix(1 0 0 -1.00122 1739.02 1342.62)"/><path d="M0 0 0.32642 261.648 54.8348 204.447 55.406 284.414-30.5997 382.741-114.81 283.435-114.81 201.713-57.3234 261.403-57.1194-0.0408765Z" fill="#FFFFFF" fill-rule="evenodd" transform="matrix(1 0 0 -1.00122 1887.12 1182.12)"/><g><path d="M0 0-2.61124 0C-1.10165 2.81515-0.081516 4.89594 0.48957 6.20161 1.4334 8.28975 2.13162 10.4804 2.57036 12.7295 3.02841 15.4249 3.2469 18.1554 3.2232 20.8894 3.23256 22.9899 2.99986 25.0845 2.5296 27.1318 1.98506 29.2827 1.26172 31.3845 0.367296 33.4148-0.285543 34.8836-1.30568 37.0053-2.652 39.6572L-0.122392 39.6572C1.34987 37.6379 2.71183 35.5405 3.95756 33.3742 5.08563 31.3436 5.94937 29.1773 6.52803 26.9277 7.14237 24.6259 7.44426 22.2519 7.42554 19.8694 7.37566 16.3732 6.68419 12.9159 5.38551 9.66948 4.00898 6.23846 2.21385 2.99074 0.040758 0ZM-33.823 31.7828C-34.081 32.0795-34.4501 32.2566-34.8429 32.2724-35.3025 32.2319-35.7275 32.0121-36.0261 31.6604L-36.9238 30.518-39.2085 27.3766C-41.0036 24.8877-42.7581 22.6437-44.39 20.6036L-44.39 20.1957C-44.416 19.7726-44.2137 19.3681-43.8596 19.1349-43.5028 18.882-43.0728 18.7529-42.6357 18.7678-42.2669 18.7575-41.9017 18.8418-41.5749 19.0125-41.2947 19.2269-41.0938 19.5283-41.0036 19.8693L-39.2085 21.8686-39.2085 5.54878C-39.1234 4.88741-38.5248 4.41596-37.8621 4.488-37.4912 4.50009-37.1281 4.59795-36.8012 4.77354-36.4898 4.947-36.2455 5.21999-36.1077 5.54878L-36.1077 25.9486C-35.8335 26.5993-35.4621 27.2045-35.006 27.7438-34.2435 28.5609-33.7333 29.5811-33.5373 30.6814-33.5402 31.0617-33.6236 31.4372-33.7821 31.783ZM-34.5982 41.1668C-35.2159 39.6697-35.9243 38.2118-36.7198 36.8012-38.0372 34.5455-39.4811 32.3661-41.0445 30.2732-41.2885 29.9264-41.6815 29.7148-42.1053 29.702-42.9974 29.7235-43.7158 30.4418-43.7372 31.334-43.7279 31.6998-43.5825 32.0489-43.3292 32.3133-42.0238 34.1492-40.759 36.1484-39.494 38.3515-39.0453 39.086-38.5556 40.0244-37.9437 41.1667L-37.6989 41.9419C-37.2709 42.5021-36.6086 42.8332-35.9037 42.8395-35.5184 42.8723-35.1402 42.7209-34.8838 42.4315-34.618 42.0675-34.5147 41.6097-34.5982 41.1667ZM-8.32316 28.478-13.2191 28.478-13.2191 8.93513C-13.58 7.41049-14.6165 6.13384-16.0342 5.46714-16.6914 5.19333-17.375 4.98835-18.0743 4.85518L-20.6446 4.85518-24.7246 5.63041C-25.4771 5.7656-26.197 6.04249-26.8461 6.44628-27.6621 6.93585-28.1109 7.50706-28.1109 8.07838-28.073 8.50634-27.8678 8.90231-27.5397 9.17991-27.1341 9.2414-26.7214 9.2414-26.3157 9.17991-25.4298 9.12778-24.5598 8.92067-23.7453 8.56783-22.9661 8.23821-22.1401 8.03182-21.2975 7.95587L-19.2982 7.95587C-18.4949 7.95267-17.7377 8.33122-17.2583 8.976-17.0557 9.30195-16.8783 9.64294-16.728 9.9959L-16.728 28.2742-31.2117 28.2742-31.7421 28.5598C-32.0508 28.9096-32.2244 29.3581-32.2318 29.8246-32.2213 30.2542-32.0461 30.6632-31.7421 30.967-31.5916 31.1235-31.4112 31.2481-31.2117 31.3341L-8.36404 31.3341C-8.02103 31.338-7.69912 31.1694-7.50717 30.8853-7.3035 30.5703-7.20362 30.1993-7.22151 29.8246-7.20611 29.4423-7.29047 29.0627-7.46642 28.723-7.66618 28.4263-8.00682 28.256-8.36404 28.2742ZM-10.1183 37.9028-29.9469 37.9028C-30.3067 38.1246-30.5691 38.4746-30.6814 38.8821-30.7212 39.2208-30.7212 39.5631-30.6814 39.902L-29.9062 40.922-10.1183 40.922C-9.59401 40.6117-9.25775 40.0614-9.22079 39.4532-9.2382 38.9528-9.45929 38.4811-9.83275 38.1476-9.89756 38.0361-9.99827 37.9499-10.1183 37.9028M-54.5084 8.48631-51.9787 8.48631C-51.5116 8.50314-51.062 8.30812-50.7547 7.95587-50.4778 7.62506-50.3327 7.20386-50.3468 6.7727-50.3309 6.35375-50.477 5.94451-50.7547 5.63041-51.0667 5.29238-51.5223 5.12532-51.9787 5.18148L-83.3129 5.18148C-83.8162 5.16157-84.3047 5.35399-84.6592 5.71193-85.0051 6.00647-85.1999 6.44095-85.1897 6.89509-85.1897 7.95587-84.5368 8.52707-83.2314 8.52707L-81.436 8.52707-81.436 31.2933C-81.4589 32.0569-81.0692 32.7737-80.4161 33.1701-80.0879 33.3649-79.7294 33.5028-79.3554 33.5781L-69.9307 33.5781-69.9307 36.8829-84.4961 36.8829C-84.9024 36.8463-85.3001 37.0147-85.5569 37.3317-86.0473 37.9539-86.0473 38.831-85.5569 39.4533-85.3001 39.7702-84.9024 39.9386-84.4961 39.9021L-69.9307 39.9021-69.9307 41.4524C-69.9085 41.7663-69.743 42.0523-69.4819 42.2277-69.2287 42.4312-68.9086 42.5331-68.5842 42.5132-67.8368 42.5967-67.1293 42.1587-66.8707 41.4525L-66.8707 39.4126-51.2035 39.4126C-50.8884 39.4289-50.5846 39.2921-50.3876 39.0453-50.2031 38.767-50.1038 38.4408-50.102 38.107-50.1096 37.7354-50.2076 37.3713-50.3876 37.0463-50.5609 36.7627-50.8713 36.592-51.2035 36.5975L-66.8707 36.5975-66.8707 33.5782-56.834 33.5782C-56.058 33.6071-55.326 33.2179-54.9163 32.5583-54.7277 32.2418-54.5899 31.8976-54.5084 31.5383L-54.5084 8.44567ZM-78.3352 8.48631-57.3643 8.48631-57.3643 15.055-78.3354 15.055-78.3354 8.52707ZM-57.3643 22.399-78.3354 22.399-78.3354 18.0743-57.3643 18.0743ZM-57.3643 25.4589-57.3643 29.539C-57.4777 29.8574-57.6751 30.1394-57.9355 30.3549L-58.3843 30.5589-77.3153 30.5589C-77.685 30.5873-78.0368 30.3955-78.213 30.0693-78.2263 29.8928-78.2263 29.7155-78.213 29.539L-78.213 25.4589ZM-93.8393 39.7796-91.228 39.7796C-92.7376 36.9644-93.7984 34.9245-94.3695 33.6188-95.2949 31.5274-95.9793 29.3372-96.4095 27.0909-96.8857 24.3978-97.1042 21.6655-97.0623 18.9309-97.0766 16.8303-96.8438 14.7351-96.3687 12.6887-95.8272 10.542-95.1178 8.44105-94.2472 6.40552-93.5536 4.89594-92.5743 2.81515-91.1871 0.122392L-93.7169 0.122392C-95.4304 2.652-96.7359 4.77354-97.7967 6.4464-98.8953 8.47174-99.7447 10.6226-100.326 12.852-100.954 15.1659-101.27 17.5534-101.265 19.9512-101.261 23.48-100.611 26.9784-99.3472 30.2735-97.9783 33.6954-96.1825 36.9305-94.0024 39.9021ZM-112.117 9.95502-112.117 17.5846-113.178 18.6045-122.685 18.6045C-123 18.466-123.279 18.2565-123.501 17.9925L-123.705 17.5846-123.705 9.95502C-123.738 9.57339-123.524 9.21285-123.174 9.05752L-122.685 9.05752-113.178 9.05752C-112.852 9.17612-112.568 9.38915-112.362 9.66948-112.254 9.78749-112.171 9.92635-112.117 10.0775ZM-133.129 32.3133-133.129 37.6173C-133.248 37.9438-133.461 38.2279-133.741 38.4333L-134.149 38.4333-137.821 38.4333C-138.145 38.3302-138.43 38.1308-138.637 37.8621-138.659 37.7132-138.659 37.5619-138.637 37.4132L-138.637 32.354C-138.658 31.9531-138.473 31.5689-138.148 31.334L-137.617 31.0894-134.027 31.0894C-133.657 31.0608-133.305 31.2526-133.129 31.5788-133.116 31.7555-133.116 31.9327-133.129 32.1093ZM-112.729 37.6173-112.974 38.6373-121.909 38.6373C-122.223 38.5142-122.503 38.3185-122.725 38.066L-122.725 37.6173C-121.916 35.8031-120.874 34.1022-119.625 32.5581-119.081 31.832-118.48 31.1499-117.829 30.518-116.254 31.8805-114.88 33.4603-113.749 35.2101-113.341 35.822-112.893 36.6381-112.362 37.6171ZM-109.139 8.44556-109.139 18.8495-109.792 20.2366C-109.994 20.7115-110.425 21.05-110.934 21.1342L-112.199 21.6238-123.46 21.6238-125.133 20.9302C-125.698 20.6779-126.118 20.1827-126.275 19.5837L-126.765 18.0743-126.765 8.93513C-126.631 8.42518-126.44 7.93229-126.193 7.46642-125.581 6.49747-124.588 5.83112-123.46 5.63041L-112.648 5.63041C-112.121 5.68527-111.602 5.79463-111.097 5.95671-110.046 6.39557-109.281 7.3285-109.057 8.44556ZM-106.569 23.9086C-106.345 23.1562-106.735 22.3583-107.466 22.0726-107.846 22.0235-108.229 22.0235-108.609 22.0726-110.771 22.9293-113.015 23.9495-115.422 25.1325L-118.401 26.6421C-120.391 25.2716-122.525 24.1223-124.765 23.215L-127.907 22.0726C-128.667 21.8825-129.455 22.2593-129.784 22.9702-129.825 23.3498-129.825 23.7329-129.784 24.1126L-120.277 28.478-124.725 34.1493-127.825 30.8445C-128.107 30.6721-128.434 30.5869-128.764 30.5998-129.1 30.5811-129.433 30.6824-129.702 30.8853-129.97 31.0288-130.13 31.3161-130.11 31.6197L-130.11 29.5796C-130.222 29.1051-130.534 28.703-130.967 28.478L-131.66 28.478-134.231 28.478-134.231 21.9093-129.865 21.9093C-129.528 21.9301-129.205 21.7759-129.008 21.5014-128.811 21.1687-128.712 20.7866-128.723 20.3997-128.707 20.0175-128.792 19.6378-128.968 19.2981-129.177 19.0169-129.516 18.8628-129.865 18.8902L-134.231 18.8902-134.231 10.4854-129.865 12.2805C-129.345 12.33-128.832 12.1338-128.478 11.7502-128.265 11.4864-128.162 11.1498-128.192 10.8118-128.169 10.6221-128.169 10.4303-128.192 10.2407L-128.192 9.99578C-130.957 8.75859-133.79 7.68241-136.679 6.7727L-140.677 5.58953-141.779 5.09996-142.921 5.09996-143.737 5.09996C-143.829 5.06549-143.931 5.06549-144.023 5.09996-144.224 5.41821-144.336 5.78444-144.349 6.16074-144.348 6.80054-144.006 7.39118-143.452 7.71108-142.885 8.16653-142.179 8.41167-141.452 8.4048L-141.452 22.8477C-141.085 23.4597-140.677 23.7453-140.228 23.7453-139.875 23.7338-139.539 23.588-139.29 23.3374L-138.882 22.8477-138.882 9.13904-136.842 9.91427-136.842 28.1925-139.943 28.1925C-140.589 28.3313-141.149 28.7295-141.493 29.2941-141.707 29.5779-141.872 29.8948-141.983 30.2325L-141.983 39.3716C-141.809 40.0564-141.387 40.6523-140.8 41.0444L-139.943 41.4117-132.517 41.4117C-131.741 41.4406-131.009 41.0513-130.6 40.3915-130.411 40.0751-130.273 39.7309-130.192 39.3716L-130.192 32.5173-129.947 33.2924C-128.76 34.3176-127.717 35.4979-126.846 36.8012-125.969 38.0937-125.205 39.4585-124.561 40.8812L-122.766 41.9011-110.078 41.9011C-109.57 41.7928-109.129 41.4837-108.853 41.0444-108.712 40.8446-108.602 40.6246-108.527 40.3915-108.934 37.3573-110.241 34.5149-112.281 32.2316L-115.463 28.1517-111.873 26.1118C-111.071 25.6251-110.185 25.2929-109.261 25.1325-108.184 24.9542-107.203 24.4059-106.487 23.5821ZM-176.622 31.7828C-176.87 32.0697-177.222 32.2457-177.601 32.2724-178.075 32.2425-178.517 32.0218-178.825 31.6604L-179.722 30.518-181.966 27.3766C-183.802 24.8877-185.516 22.6437-187.148 20.6036-187.175 20.4692-187.175 20.3303-187.148 20.1957-187.168 19.7834-186.985 19.3874-186.658 19.1349-186.284 18.8865-185.843 18.7583-185.394 18.7678-185.038 18.761-184.687 18.8452-184.374 19.0125-184.083 19.2249-183.868 19.5253-183.762 19.8693L-181.966 21.8686-181.966 5.54878C-181.928 4.91904-181.386 4.43966-180.757 4.47805-180.725 4.48006-180.693 4.48326-180.661 4.488-180.29 4.50009-179.927 4.59795-179.6 4.77354-179.28 4.93551-179.032 5.21229-178.906 5.54878L-178.906 25.9486C-178.6 26.582-178.231 27.1835-177.805 27.7438-177.042 28.5609-176.532 29.5811-176.336 30.6814-176.339 31.0617-176.422 31.4372-176.581 31.783ZM-177.397 41.1668C-178.09 39.5349-178.784 38.066-179.478 36.8012-180.171 35.5364-181.803 33.0885-183.802 30.2732-184.063 29.9249-184.469 29.7146-184.904 29.702-185.335 29.7036-185.748 29.8802-186.046 30.1916-186.362 30.4875-186.539 30.9017-186.536 31.334-186.507 31.6954-186.364 32.0382-186.128 32.3133-184.822 34.1492-183.558 36.1484-182.293 38.3515-181.844 39.086-181.354 40.0244-180.742 41.1667L-180.498 41.9419C-180.066 42.4973-179.406 42.8273-178.702 42.8395-178.317 42.8723-177.939 42.7209-177.682 42.4315-177.417 42.0675-177.313 41.6097-177.397 41.1667ZM-151.122 28.478-155.977 28.478-155.977 8.93513C-156.368 7.4131-157.414 6.14297-158.833 5.46714-159.486 5.18172-160.171 4.97627-160.873 4.85518L-163.443 4.85518-167.279 5.63041C-168.044 5.76536-168.777 6.04214-169.441 6.44628-170.257 6.93585-170.665 7.50706-170.665 8.07838-170.647 8.50267-170.455 8.90088-170.134 9.17991-169.716 9.24567-169.289 9.24567-168.87 9.17991-167.985 9.11688-167.117 8.91025-166.299 8.56783-165.524 8.22719-164.696 8.02032-163.851 7.95587L-161.893 7.95587C-161.086 7.93904-160.323 8.32068-159.853 8.976-159.635 9.29271-159.457 9.63524-159.323 9.9959L-159.323 28.2742-173.97 28.2742-174.5 28.5598C-174.78 28.923-174.937 29.3661-174.949 29.8246-174.935 30.2455-174.776 30.649-174.5 30.967-174.342 31.1139-174.163 31.2375-173.97 31.3341L-151.122 31.3341C-150.779 31.338-150.457 31.1694-150.265 30.8853-150.05 30.5738-149.935 30.2033-149.939 29.8246-149.936 29.4388-150.034 29.0588-150.224 28.723-150.424 28.4263-150.765 28.256-151.122 28.2742ZM-152.917 37.9028-172.705 37.9028C-173.065 38.1246-173.327 38.4746-173.439 38.8821-173.459 39.2218-173.459 39.5623-173.439 39.902L-172.664 40.922-152.917 40.922C-152.393 40.6117-152.056 40.0614-152.019 39.4532-152.043 38.9626-152.246 38.4978-152.591 38.1476ZM-212.485 21.9502-212.485 25.5406-223.215 25.5406-223.215 22.9702C-223.114 22.6564-222.914 22.3841-222.644 22.195L-222.276 21.9093ZM-212.485 28.5598-212.485 32.3949-221.705 32.3949C-222.015 32.2655-222.283 32.0538-222.48 31.783-222.589 31.6649-222.672 31.5261-222.725 31.3749L-222.725 28.5598ZM-198.613 22.9702-198.613 25.5406-209.629 25.5406-209.629 21.9093-199.837 21.9093C-199.515 22.0376-199.234 22.2488-199.021 22.5213L-199.021 22.9293ZM-198.613 28.5598-198.613 31.3749-199.633 32.3949-209.629 32.3949-209.629 28.5598ZM-193.717 12.24-209.629 12.24-209.629 4.61039C-209.738 4.28765-209.974 4.02272-210.281 3.87604-210.612 3.66988-210.993 3.55697-211.383 3.54962-212.033 3.47889-212.617 3.94808-212.687 4.59783-212.687 4.60198-212.688 4.60613-212.689 4.61039L-212.689 12.24-228.641 12.24C-229.151 12.5647-229.482 13.1068-229.539 13.7087-229.434 14.3274-229.117 14.8903-228.641 15.2999L-212.689 15.2999-212.689 18.8494-223.745 18.8494C-224.455 18.9336-225.087 19.3398-225.459 19.951-225.624 20.2412-225.735 20.5592-225.785 20.8894L-225.785 33.3333C-225.597 33.9481-225.171 34.4623-224.602 34.7614-224.328 34.8973-224.041 35.0066-223.745 35.0878L-216.809 35.0878-220.4 38.8821-221.868 40.2691C-222.37 40.7094-222.689 41.3201-222.766 41.9828-222.751 42.3332-222.638 42.6724-222.44 42.962-222.149 43.1136-221.829 43.1972-221.501 43.2068-220.765 43.1339-220.096 42.7473-219.665 42.146-219.176 41.5748-218.645 41.0036-218.074 40.4324-217.601 39.9382-217.097 39.4748-216.564 39.0452-215.3 37.9846-214.688 37.0869-214.688 36.271-214.699 35.856-214.811 35.45-215.014 35.0878L-207.303 35.0878-201.917 43.2477C-201.62 43.4191-201.281 43.504-200.938 43.4925-200.609 43.4985-200.284 43.4138-200 43.2477-199.745 43.0908-199.59 42.8126-199.592 42.5132-199.985 41.1058-200.65 39.7888-201.55 38.6374-202.429 37.5219-203.233 36.3496-203.957 35.1285L-197.797 35.1285C-197.161 35.0172-196.592 34.6668-196.205 34.1494-196.011 33.9124-195.846 33.652-195.716 33.3742L-195.716 20.9302C-195.905 20.2307-196.339 19.6225-196.94 19.2167-197.214 19.0807-197.501 18.9713-197.797 18.8904L-209.629 18.8904-209.629 15.3408-193.717 15.3408C-193.396 15.1911-193.126 14.9498-192.942 14.6472-192.766 14.3203-192.668 13.9572-192.656 13.5864-192.585 12.9368-193.054 12.3529-193.704 12.282-193.708 12.2817-193.712 12.2812-193.717 12.2807Z" fill-rule="evenodd" transform="matrix(1 0 0 -1.00122 1968.56 1342.62)"/></g></g></g></g><g clip-path="url(#clip5)"><g clip-path="url(#clip6)"><g><path d="M2.69181 645.982 503.192 645.982 503.192 145.482 2.69181 145.482Z" fill="#FFFFFF" transform="matrix(1 0 0 -1.00015 2306.06 1384.77)"/><path d="M0 142.79 505.883 142.79 505.883 648.674 0 648.674ZM5.38361 643.29 500.5 643.29 500.5 148.061 5.38361 148.061Z" fill="#192286" transform="matrix(1 0 0 -1.00015 2306.06 1384.77)"/><path d="M17.2721 630.897 488.555 630.897 488.555 160.567 17.2721 160.567Z" fill="#0F218B" transform="matrix(1 0 0 -1.00015 2306.06 1384.77)"/><path d="M34.5443 584.632 65.219 584.632 65.219 530.853 34.5443 530.853Z" fill="#FFFFFF" transform="matrix(1 0 0 -1.00015 2306.06 1384.77)"/><path d="M440.608 584.632 471.339 584.632 471.339 530.853 440.608 530.853Z" fill="#FFFFFF" transform="matrix(1 0 0 -1.00015 2306.06 1384.77)"/><path d="M34.5443 477.073 65.219 477.073 65.219 423.294 34.5443 423.294Z" fill="#FFFFFF" transform="matrix(1 0 0 -1.00015 2306.06 1384.77)"/><path d="M440.608 477.073 471.339 477.073 471.339 423.294 440.608 423.294Z" fill="#FFFFFF" transform="matrix(1 0 0 -1.00015 2306.06 1384.77)"/><path d="M34.5443 370.973 65.219 370.973 65.219 317.194 34.5443 317.194Z" fill="#FFFFFF" transform="matrix(1 0 0 -1.00015 2306.06 1384.77)"/><path d="M440.608 370.973 471.339 370.973 471.339 317.194 440.608 317.194Z" fill="#FFFFFF" transform="matrix(1 0 0 -1.00015 2306.06 1384.77)"/><path d="M34.5443 260.611 65.219 260.611 65.219 206.831 34.5443 206.831Z" fill="#FFFFFF" transform="matrix(1 0 0 -1.00015 2306.06 1384.77)"/><path d="M440.608 260.611 471.339 260.611 471.339 206.831 440.608 206.831Z" fill="#FFFFFF" transform="matrix(1 0 0 -1.00015 2306.06 1384.77)"/><path d="M0 0 0.392566 286-42.4515 246.801-42.2833 306.188 20.525 368.94 78.2855 305.459 78.2855 248.203 39.0866 285.832 38.9745-0.504872Z" fill="#FFFFFF" fill-rule="evenodd" transform="matrix(1 0 0 -1.00015 2541.08 1173.26)"/><g><path d="M0 0 0 3.47668-27.254 3.47668-27.254 0C-27.06-0.539778-26.7086-1.00848-26.2447-1.3459L-25.5157-1.73847-2.01873-1.73847-1.17744-0.841284ZM0 13.0103-27.254 13.0103-27.254 8.63619 0 8.63619ZM0 18.1693 0 21.2534-1.73847 22.9919-25.5157 22.9919C-26.0793 22.8151-26.571 22.4612-26.9176 21.9827-26.9176 21.9827-26.9176 21.5898-27.254 21.2534L-27.254 18.2255ZM8.29978-16.8796C9.4112-16.7943 10.2431-15.8235 10.1574-14.7118 10.1554-14.6866 10.1531-14.6618 10.1503-14.6365 10.1485-14.0036 9.974-13.3831 9.64568-12.8421 9.32849-12.3205 8.85853-11.9095 8.29978-11.6644L-25.9642-11.6644C-29.0005-11.6821-31.9142-10.468-34.0396-8.29978-36.3204-6.26562-37.7933-3.47896-38.1891-0.448719L-38.1891 21.2534C-38.3255 21.8016-38.5329 22.3297-38.8063 22.8237-39.4458 23.862-40.5149 24.5609-41.7222 24.7304L-50.022 24.7304-51.3677 24.2819C-51.3942 24.1147-51.3942 23.9442-51.3677 23.777-51.4188 23.3675-51.4188 22.9529-51.3677 22.5434-51.3758 21.9652-51.2609 21.3915-51.0312 20.8611-50.7419 20.296-50.2937 19.8284-49.7415 19.515L-44.9187 19.515C-44.6409 19.5696-44.3551 19.5696-44.0776 19.515-43.4857 19.2539-43.125 18.6456-43.1804 18.0009L-43.1804-1.62667-45.9843-4.76694C-48.1153-7.06618-50.2461-9.19696-52.3772-11.1036-52.7252-11.5296-52.9048-12.0684-52.8818-12.618-52.9152-13.4216-52.6336-14.2062-52.0969-14.8049-51.7334-15.3948-51.1059-15.7714-50.4143-15.8142-49.8184-15.7891-49.2645-15.5018-48.9002-15.0293L-40.5445-5.94464C-39.1098-8.58155-37.21-10.9375-34.9368-12.8983-32.9027-15.005-30.1254-16.233-27.1978-16.3193ZM-38.0771 36.3386C-37.7252 35.8262-37.5302 35.2219-37.5163 34.6004-37.4885 33.9853-37.7351 33.3896-38.1894 32.974-38.648 32.5144-39.2793 32.2698-39.9279 32.3012-40.5258 32.349-41.1033 32.5415-41.6102 32.8619L-49.2369 40.8812C-49.3393 41.7857-49.0768 42.694-48.5076 43.4048-47.9982 43.8548-47.337 44.0951-46.6574 44.0776L-45.9843 44.0776-38.3017 36.5071ZM9.19671 32.4694-11.4959 32.4694-12.8421 28.1511 1.62642 28.1511C2.72216 27.7942 3.66841 27.0842 4.31797 26.1322 4.61695 25.6673 4.87925 25.1798 5.10335 24.6745L5.10335-3.36488C4.77832-4.40523 4.05162-5.27333 3.08437-5.77618 2.62124-6.03215 2.13255-6.23881 1.62642-6.39285L-28.5999-6.39285C-29.6169-6.191-30.5078-5.58344-31.0673-4.71053-31.3122-4.28837-31.5006-3.83586-31.6281-3.36488L-31.6281 24.6745C-31.4632 25.7507-30.8526 26.7074-29.946 27.3104-29.5347 27.6465-29.0825 27.9291-28.5999 28.1514L-18.5057 28.1514C-18.2915 28.8465-18.1415 29.5598-18.0573 30.2824-17.9928 31.0263-17.8423 31.7601-17.6085 32.4694L-34.4322 32.4694C-35.0137 32.4337-35.5697 32.7117-35.8902 33.1983-36.2405 33.7505-36.4165 34.3953-36.3948 35.0489-36.4203 35.6956-36.265 36.3363-35.9461 36.8996-35.6076 37.3954-35.0307 37.6731-34.4322 37.6289L-23.2163 37.6289-26.2447 42.844C-26.248 43.3922-26.1132 43.9322-25.8522 44.414L-25.4034 44.9751C-24.8093 45.2649-24.158 45.4182-23.497 45.4235-22.0388 45.4235-20.7488 44.4143-19.6275 42.3953L-17.0478 37.6286-10.0939 37.6286-7.00977 43.2366C-6.56106 44.2458-6.00028 44.8066-5.27131 44.8628L-3.47668 44.8628C-2.50792 44.5208-1.87253 43.5905-1.90667 42.5635-1.97168 41.6476-2.26054 40.7618-2.74771 39.9838-3.53284 38.8063-4.09386 38.0209-4.37412 37.5163L9.19671 37.5163C10.0962 36.9859 10.666 36.0361 10.7111 34.993 10.6698 34.1446 10.3091 33.3433 9.70133 32.7499ZM-65.4434-3.7013-89.7255-3.7013-89.7255-18.4498C-89.9382-19.0149-90.3596-19.4768-90.9032-19.7398-91.444-20.0681-92.0647-20.2427-92.6978-20.2444-93.826-20.3767-94.8509-19.5767-94.9968-18.4498L-94.9968-3.7013-123.036-3.7013C-123.62-3.74936-124.182-3.46834-124.494-2.97232-124.844-2.42015-125.02-1.7754-124.999-1.1218-125.052-0.472495-124.895 0.1763-124.55 0.728978-124.212 1.22474-123.635 1.50247-123.036 1.45821L-94.9968 1.45821-94.9968 10.9913-116.419 10.9913C-116.945 11.2099-117.394 11.5809-117.708 12.0567-117.943 12.5059-118.059 13.0083-118.045 13.5149-118.049 14.0631-117.914 14.6031-117.653 15.0852-117.564 15.3202-117.451 15.5455-117.316 15.758-115.128 18.7374-113.249 21.9316-111.708 25.2911L-108.119 32.6376-122.139 32.6376C-123.038 33.1683-123.608 34.1178-123.653 35.1612-123.612 36.0093-123.251 36.8106-122.643 37.4043L-122.139 37.7968-106.381 37.7968-103.745 46.4889C-103.027 47.4387-101.907 47.9987-100.717 48.003-100.061 48.0124-99.4311 47.7483-98.9786 47.2738-98.4899 46.7467-98.3002 46.0088-98.4735 45.3112L-100.661 37.7968-67.4062 37.7968C-66.767 37.9678-66.0863 37.7485-65.6677 37.2361-65.2557 36.7082-65.0382 36.0548-65.051 35.3853-65.0452 34.7337-65.22 34.0933-65.5557 33.5348-65.8402 33.0167-66.3684 32.6788-66.9577 32.6373L-102.399 32.6373-110.138 16.599-109.746 16.2062-94.9968 16.2062-94.9968 25.6837C-94.9224 26.2339-94.6419 26.7349-94.2117 27.0858-92.5969 27.941-90.5946 27.325-89.7394 25.7103-89.7349 25.7014-89.7301 25.6926-89.7255 25.6837L-89.7255 16.2062-70.8831 16.2062C-70.2409 16.2295-69.623 15.9616-69.2008 15.4773-68.7614 15.0093-68.5378 14.3792-68.5839 13.7388-68.4825 12.4855-69.2807 11.3348-70.4906 10.9911L-89.7255 10.9911-89.7255 1.45796-65.2193 1.45796C-64.6377 1.49337-64.0815 1.21538-63.761 0.728725-63.4105 0.176553-63.2347-0.468448-63.2564-1.12205-63.2375-1.78577-63.392-2.44291-63.7049-3.02872-64.0699-3.4863-64.635-3.73747-65.2193-3.70155ZM-181.302 27.4222C-181.731 27.903-182.339 28.1871-182.984 28.2073-183.765 28.1554-184.493 27.7917-185.003 27.1978-185.571 26.6011-186.096 25.9637-186.573 25.2911-188.106 23.0857-189.395 21.2162-190.442 19.6834-193.527 15.4775-196.499 11.6083-199.246 8.18722-199.282 7.94566-199.282 7.6998-199.246 7.45824-199.288 6.75633-198.972 6.08072-198.405 5.66387-197.222 4.92275-195.719 4.92275-194.536 5.66387-194.018 5.99522-193.654 6.52008-193.527 7.12157L-190.442 10.5426-190.442-17.1603C-190.326-18.2692-189.333-19.0738-188.224-18.9575-188.216-18.9565-188.207-18.9557-188.199-18.9549-187.549-18.9522-186.91-18.7779-186.348-18.4501-185.831-18.1536-185.419-17.7024-185.171-17.1603L-185.171 17.4962C-184.696 18.5978-184.053 19.6194-183.264 20.5245-181.978 21.9374-181.122 23.6885-180.797 25.5714-180.825 26.2116-180.977 26.8399-181.245 27.4219ZM-182.591 43.4604C-183.645 40.8898-184.843 38.3809-186.18 35.9461-188.457 32.0849-190.927 28.3416-193.583 24.7304-193.988 24.1372-194.659 23.7811-195.377 23.777-196.118 23.7816-196.826 24.0849-197.34 24.6183-197.876 25.1072-198.181 25.7993-198.181 26.5247-198.158 27.1467-197.92 27.7411-197.508 28.2073-195.143 31.5107-192.953 34.9361-190.947 38.4697-190.218 39.7594-189.321 41.3294-188.311 43.3484L-187.863 44.6384C-187.122 45.59-185.985 46.1482-184.778 46.1525-184.145 46.1894-183.529 45.9428-183.096 45.4794-182.668 44.8569-182.488 44.0968-182.591 43.3484ZM-137.729 21.8142-146.028 21.8142-146.028-11.4962C-146.689-14.0876-148.451-16.2601-150.851-17.4406-151.983-17.9186-153.17-18.2576-154.384-18.4498L-158.758-18.4498-165.319-17.1601C-166.607-16.9097-167.84-16.4351-168.964-15.7583-170.366-14.9172-171.095-13.9636-171.095-12.9544-171.038-12.2345-170.695-11.5675-170.142-11.1036-169.456-10.8697-168.735-10.7553-168.011-10.7672-166.505-10.8874-165.029-11.2471-163.637-11.8326-162.315-12.3944-160.916-12.7536-159.487-12.8983L-158.758-12.8983-156.122-12.8983C-154.757-12.9438-153.457-12.3147-152.645-11.2159-152.257-10.6873-151.954-10.1007-151.748-9.47747L-151.748 21.7021-176.703 21.7021-177.6 22.1509C-178.086 22.7574-178.361 23.5054-178.385 24.2819-178.379 25.0111-178.098 25.7115-177.6 26.2447-177.336 26.4969-177.033 26.7051-176.703 26.8614L-137.729 26.8614C-137.147 26.8971-136.591 26.6191-136.271 26.1322-135.92 25.5802-135.744 24.9355-135.766 24.2819-135.729 23.6265-135.906 22.977-136.271 22.4314-136.573 21.925-137.142 21.6404-137.729 21.7021ZM-140.813 37.7968-174.46 37.7968C-175.076 38.1998-175.517 38.8207-175.694 39.5353-175.777 40.1115-175.777 40.6971-175.694 41.2735L-174.404 43.012-140.757 43.012C-139.35 42.2941-138.791 40.5716-139.509 39.1647-139.69 38.8099-139.943 38.4965-140.252 38.2453L-140.757 37.7968ZM-216.407-12.3934-212.032-12.3934C-211.25-12.3514-210.49-12.66-209.958-13.2344-209.489-13.8033-209.232-14.5166-209.229-15.2534-209.203-15.9783-209.465-16.6838-209.958-17.216-210.5-17.7704-211.259-18.0578-212.032-18.0014L-265.587-18.0014C-266.447-18.0423-267.282-17.716-267.887-17.1039-268.464-16.5689-268.789-15.8159-268.784-15.029-268.784-13.2344-267.662-12.2813-265.475-12.2813L-262.391-12.2813-262.391 26.5811C-262.455 27.9028-261.787 29.1528-260.652 29.8335-260.087 30.1254-259.483 30.333-258.858 30.4506L-242.82 30.4506-242.82 36.0584-267.494 36.0584C-268.165 36.0315-268.809 36.3227-269.232 36.8435-269.682 37.3532-269.923 38.0141-269.905 38.694-269.926 39.3575-269.684 40.002-269.232 40.4884-268.809 41.0094-268.165 41.3003-267.494 41.2738L-242.651 41.2738-242.651 43.6851C-242.597 44.2284-242.336 44.7305-241.922 45.0869-241.448 45.3661-240.902 45.5027-240.352 45.4797-239.115 45.6001-237.956 44.8587-237.548 43.6851L-237.548 40.2643-210.799 40.2643C-210.279 40.2774-209.782 40.05-209.453 39.6474-209.146 39.1612-208.99 38.5956-209.004 38.0209-208.999 37.3947-209.154 36.777-209.453 36.2266-209.737 35.7579-210.251 35.4794-210.799 35.4976L-237.548 35.4976-237.548 30.2824-220.725 30.2824C-219.4 30.3593-218.144 29.688-217.472 28.544-217.133 28.0158-216.904 27.4244-216.799 26.8055L-216.799-12.4495ZM-256.951-12.3934-221.229-12.3934-221.229-1.1777-256.951-1.1777ZM-221.229 11.3839-256.951 11.3839-256.951 4.03771-221.229 4.03771ZM-221.229 16.5429-221.229 23.4968C-221.423 24.0363-221.775 24.5052-222.239 24.8427L-222.968 25.2352-255.213 25.2352C-255.854 25.2737-256.453 24.9186-256.727 24.3381-256.781 24.0601-256.781 23.7745-256.727 23.497L-256.727 16.5429Z" fill-rule="evenodd" transform="matrix(1 0 0 -1.00015 2688.62 1364.51)"/></g></g></g></g><path d="M1082.48 1386.05 1082.48 1391.67 1123.86 1391.67 1123.86 1386.05ZM1082.48 1372.66 1082.48 1378 1123.86 1378 1123.86 1372.66ZM1082.48 1359.55 1082.48 1364.7 1123.86 1364.7 1123.86 1359.55ZM1186.44 1347.84 1238 1347.84 1238 1358.8 1224.3 1358.8 1224.3 1388.67C1224.3 1393.54 1223.25 1397.02 1221.15 1399.11 1219.05 1401.2 1215.57 1402.31 1210.69 1402.44 1206.49 1402.5 1202.27 1402.31 1198.01 1401.88L1195.69 1390.45C1200.2 1391.08 1204.27 1391.39 1207.91 1391.39 1209.77 1391.39 1211.01 1390.97 1211.66 1390.12 1212.31 1389.28 1212.63 1387.74 1212.63 1385.49L1212.63 1358.8 1186.44 1358.8ZM1082.48 1346.72 1082.48 1351.59 1123.86 1351.59 1123.86 1346.72ZM1175.42 1339.88 1184.03 1346.53C1181.87 1349.9 1179.09 1353.65 1175.7 1357.77L1175.7 1403 1164.5 1403 1164.5 1370.13C1161.29 1373.38 1158.6 1375.94 1156.44 1377.81L1151.63 1367.04C1155.89 1363.23 1160.19 1358.84 1164.54 1353.88 1168.89 1348.92 1172.52 1344.25 1175.42 1339.88ZM1190.23 1321.24 1234.39 1321.24 1234.39 1332.2 1190.23 1332.2ZM1097.57 1316.94 1108.58 1316.94 1108.58 1322.93 1142.37 1322.93 1142.37 1332.29 1108.58 1332.29 1108.58 1337.45 1134.87 1337.45 1134.87 1391.67 1145.06 1391.67 1145.06 1400.94 1061 1400.94 1061 1391.67 1071.28 1391.67 1071.28 1337.45 1097.57 1337.45 1097.57 1332.29 1063.68 1332.29 1063.68 1322.93 1097.57 1322.93ZM1175.51 1316 1184.12 1323.59C1180.97 1327.52 1177.06 1331.8 1172.37 1336.42 1167.68 1341.04 1163.23 1344.97 1159.04 1348.22L1153.02 1337.82C1156.54 1335.39 1160.44 1332.06 1164.73 1327.85 1169.02 1323.63 1172.61 1319.68 1175.51 1316Z" fill="#7F7F7F" fill-rule="evenodd"/><path d="M1947.98 1372.27 1947.98 1377.22 1975.74 1377.22 1975.74 1372.27ZM1947.98 1360.21 1947.98 1365.35 1975.74 1365.35 1975.74 1360.21ZM1770.52 1355.45 1770.52 1362.46 1788.62 1362.46 1788.62 1355.45ZM1741.47 1355.45 1741.47 1362.46 1759.48 1362.46 1759.48 1355.45ZM1947.98 1348.26 1947.98 1353.02 1975.74 1353.02 1975.74 1348.26ZM1848.58 1347.98 1900.28 1347.98 1900.28 1358.91 1886.54 1358.91 1886.54 1388.71C1886.54 1393.56 1885.49 1397.04 1883.39 1399.12 1881.28 1401.21 1877.79 1402.32 1872.9 1402.44 1868.69 1402.5 1864.45 1402.32 1860.18 1401.88L1857.86 1390.48C1862.38 1391.1 1866.46 1391.42 1870.11 1391.42 1871.97 1391.42 1873.22 1391 1873.87 1390.16 1874.52 1389.31 1874.85 1387.77 1874.85 1385.53L1874.85 1358.91 1848.58 1358.91ZM1908.72 1346.76 1928.68 1346.76 1928.68 1378.9C1931.15 1383.01 1934.03 1385.87 1937.31 1387.49 1940.59 1389.11 1945.14 1390.08 1950.95 1390.39 1958.01 1390.76 1965.03 1390.95 1972.02 1390.95 1979.08 1390.95 1986.07 1390.76 1993 1390.39L1991.14 1400.76C1984.15 1401.13 1977.19 1401.32 1970.26 1401.32 1963.33 1401.32 1956.37 1401.13 1949.38 1400.76 1942.94 1400.45 1937.88 1399.43 1934.2 1397.72 1930.52 1396.01 1926.95 1393.07 1923.48 1388.89 1921.81 1390.76 1919.3 1393.72 1915.96 1397.77 1913.49 1400.76 1912.25 1402.25 1912.25 1402.25L1906.96 1390.76 1917.91 1378.8 1917.91 1357.79 1908.72 1357.79ZM1837.53 1340.04 1846.17 1346.67C1844 1350.03 1841.22 1353.77 1837.81 1357.88L1837.81 1403 1826.58 1403 1826.58 1370.21C1823.36 1373.45 1820.67 1376 1818.51 1377.87L1813.68 1367.13C1817.95 1363.33 1822.27 1358.95 1826.63 1354 1830.99 1349.05 1834.63 1344.4 1837.53 1340.04ZM1770.52 1339.38 1770.52 1346.39 1788.62 1346.39 1788.62 1339.38ZM1741.47 1339.38 1741.47 1346.39 1759.48 1346.39 1759.48 1339.38ZM1852.38 1321.45 1896.66 1321.45 1896.66 1332.38 1852.38 1332.38ZM1917.91 1317.62C1923.73 1325.15 1928 1331.07 1930.72 1335.37L1921.07 1341.9C1919.71 1339.66 1917.7 1336.66 1915.04 1332.89 1912.37 1329.12 1910.18 1326.12 1908.45 1323.87ZM1837.63 1316.21 1846.26 1323.78C1843.1 1327.7 1839.17 1331.97 1834.47 1336.58 1829.77 1341.19 1825.31 1345.11 1821.11 1348.35L1815.07 1337.98C1818.6 1335.55 1822.51 1332.24 1826.81 1328.03 1831.11 1323.83 1834.72 1319.89 1837.63 1316.21ZM1750.38 1315.56C1751.49 1316.93 1752.87 1318.75 1754.51 1321.03 1756.15 1323.3 1757.47 1325.21 1758.46 1326.77L1753.72 1329.29 1770.24 1329.29C1772.35 1326.68 1775.6 1322.19 1779.99 1315.84L1790.38 1319.86C1788.71 1322.29 1786.49 1325.43 1783.7 1329.29L1799.94 1329.29 1799.94 1372.45 1770.52 1372.45 1770.52 1379.37 1806.91 1379.37 1806.91 1389.92 1770.52 1389.92 1770.52 1402.81 1759.48 1402.81 1759.48 1389.92 1723 1389.92 1723 1379.37 1759.48 1379.37 1759.48 1372.45 1730.15 1372.45 1730.15 1329.29 1746.85 1329.29 1741.84 1322.38 1740.54 1320.6ZM1971.65 1315 1981.86 1318.18C1980.5 1320.79 1979.02 1323.41 1977.41 1326.02L1991.98 1326.02 1991.98 1334.8 1966.92 1334.8 1965.25 1340.13 1986.78 1340.13 1986.78 1385.06 1936.94 1385.06 1936.94 1340.13 1953.55 1340.13 1955.22 1334.8 1933.04 1334.8 1933.04 1326.02 1946.22 1326.02C1944.67 1322.72 1943.44 1320.39 1942.51 1319.02L1951.98 1315.37C1952.72 1316.62 1954.57 1320.17 1957.54 1326.02L1965.81 1326.02C1968.53 1321.35 1970.48 1317.68 1971.65 1315Z" fill="#7F7F7F" fill-rule="evenodd"/><path d="M2401.53 1385.87 2401.53 1391.45 2443.02 1391.45 2443.02 1385.87ZM2401.53 1372.55 2401.53 1377.86 2443.02 1377.86 2443.02 1372.55ZM2697.98 1372.08 2697.98 1377.02 2725.74 1377.02 2725.74 1372.08ZM2697.98 1360.07 2697.98 1365.19 2725.74 1365.19 2725.74 1360.07ZM2401.53 1359.51 2401.53 1364.63 2443.02 1364.63 2443.02 1359.51ZM2697.98 1348.15 2697.98 1352.9 2725.74 1352.9 2725.74 1348.15ZM2505.76 1347.87 2557.46 1347.87 2557.46 1358.77 2543.73 1358.77 2543.73 1388.47C2543.73 1393.32 2542.67 1396.78 2540.57 1398.86 2538.47 1400.94 2534.97 1402.04 2530.08 1402.16 2525.87 1402.22 2521.64 1402.04 2517.37 1401.6L2515.05 1390.24C2519.56 1390.86 2523.65 1391.17 2527.3 1391.17 2529.15 1391.17 2530.41 1390.75 2531.06 1389.92 2531.71 1389.08 2532.03 1387.54 2532.03 1385.31L2532.03 1358.77 2505.76 1358.77ZM2401.53 1346.75 2401.53 1351.6 2443.02 1351.6 2443.02 1346.75ZM2658.72 1346.66 2678.68 1346.66 2678.68 1378.69C2681.15 1382.79 2684.03 1385.65 2687.31 1387.26 2690.59 1388.88 2695.14 1389.84 2700.95 1390.15 2708.01 1390.52 2715.03 1390.71 2722.02 1390.71 2729.08 1390.71 2736.07 1390.52 2743 1390.15L2741.14 1400.49C2734.15 1400.86 2727.19 1401.04 2720.26 1401.04 2713.33 1401.04 2706.37 1400.86 2699.38 1400.49 2692.94 1400.18 2687.88 1399.17 2684.2 1397.46 2680.52 1395.75 2676.95 1392.82 2673.48 1388.66 2671.81 1390.52 2669.31 1393.47 2665.96 1397.51 2663.49 1400.49 2662.25 1401.98 2662.25 1401.98L2656.96 1390.52 2667.91 1378.6 2667.91 1357.65 2658.72 1357.65ZM2494.72 1339.96 2503.35 1346.57C2501.19 1349.92 2498.4 1353.65 2495 1357.74L2495 1402.72 2483.77 1402.72 2483.77 1370.03C2480.55 1373.26 2477.86 1375.81 2475.69 1377.67L2470.87 1366.96C2475.14 1363.17 2479.45 1358.81 2483.81 1353.88 2488.18 1348.94 2491.81 1344.3 2494.72 1339.96ZM2509.57 1321.43 2553.84 1321.43 2553.84 1332.32 2509.57 1332.32ZM2667.91 1317.61C2673.73 1325.12 2678 1331.02 2680.72 1335.3L2671.07 1341.82C2669.71 1339.58 2667.7 1336.59 2665.04 1332.83 2662.37 1329.08 2660.18 1326.08 2658.45 1323.85ZM2416.66 1317.14 2427.71 1317.14 2427.71 1323.1 2461.58 1323.1 2461.58 1332.41 2427.71 1332.41 2427.71 1337.54 2454.07 1337.54 2454.07 1391.45 2464.28 1391.45 2464.28 1400.67 2380 1400.67 2380 1391.45 2390.3 1391.45 2390.3 1337.54 2416.66 1337.54 2416.66 1332.41 2382.69 1332.41 2382.69 1323.1 2416.66 1323.1ZM2494.81 1316.21 2503.44 1323.75C2500.29 1327.66 2496.36 1331.92 2491.66 1336.51 2486.95 1341.1 2482.5 1345.02 2478.29 1348.24L2472.26 1337.91C2475.79 1335.49 2479.7 1332.18 2484 1327.99 2488.3 1323.8 2491.9 1319.87 2494.81 1316.21ZM2595.61 1315.93 2607.86 1318.17C2607.06 1320.28 2605.66 1323.57 2603.68 1328.04L2646.1 1328.04 2646.1 1338.65 2598.39 1338.65C2595.05 1345.05 2591.77 1350.6 2588.56 1355.32L2603.78 1355.32 2603.78 1342.28 2615.29 1342.28 2615.29 1355.32 2640.72 1355.32 2640.72 1365.84 2615.29 1365.84 2615.29 1376.83 2648.7 1376.83 2648.7 1387.63 2615.29 1387.63 2615.29 1403 2603.78 1403 2603.78 1387.63 2567.02 1387.63 2567.02 1376.83 2603.78 1376.83 2603.78 1365.84 2574.73 1365.84 2574.73 1355.32C2577.88 1351.04 2581.35 1345.48 2585.12 1338.65L2568.69 1338.65 2568.69 1328.04 2590.5 1328.04C2592.73 1323.32 2594.43 1319.28 2595.61 1315.93ZM2721.65 1315 2731.86 1318.17C2730.5 1320.77 2729.02 1323.38 2727.41 1325.99L2741.98 1325.99 2741.98 1334.74 2716.92 1334.74 2715.25 1340.05 2736.78 1340.05 2736.78 1384.84 2686.94 1384.84 2686.94 1340.05 2703.55 1340.05 2705.22 1334.74 2683.04 1334.74 2683.04 1325.99 2696.22 1325.99C2694.67 1322.7 2693.44 1320.37 2692.51 1319L2701.98 1315.37C2702.72 1316.61 2704.57 1320.15 2707.54 1325.99L2715.81 1325.99C2718.53 1321.33 2720.48 1317.67 2721.65 1315Z" fill="#7F7F7F" fill-rule="evenodd"/></g></svg>