<svg width="1351" height="688" xmlns="http://www.w3.org/2000/svg" xmlns:xlink="http://www.w3.org/1999/xlink" xml:space="preserve" overflow="hidden"><defs><clipPath id="clip0"><rect x="871" y="732" width="1351" height="688"/></clipPath><clipPath id="clip1"><rect x="871" y="731" width="539" height="549"/></clipPath><clipPath id="clip2"><rect x="871" y="731" width="539" height="549"/></clipPath><clipPath id="clip3"><rect x="1722" y="753" width="500" height="504"/></clipPath><clipPath id="clip4"><rect x="1722" y="753" width="500" height="504"/></clipPath></defs><g clip-path="url(#clip0)" transform="translate(-871 -732)"><g clip-path="url(#clip1)"><g clip-path="url(#clip2)"><g><g><path d="M0 0C146.562 0 265.374-118.812 265.374-265.374 265.374-411.936 146.562-530.748 0-530.748-146.562-530.748-265.374-411.936-265.374-265.374-265.374-118.812-146.562 0 0 0" fill="#FFFFFF" transform="matrix(1 0 0 -1.00121 1140.06 735.579)"/></g><g><path d="M0 0C-144.587 0-261.798-117.211-261.798-261.798-261.798-406.385-144.587-523.596 0-523.596 144.587-523.596 261.798-406.385 261.798-261.798 261.622-117.284 144.514-0.175893 0 0M0-530.748C-148.537-530.783-268.978-410.399-269.014-261.862-269.049-113.325-148.665 7.11614-0.127751 7.15137 148.409 7.1866 268.85-113.198 268.886-261.734L268.886-261.798C268.71-410.237 148.439-530.536 0-530.748" fill="#FF0001" transform="matrix(1 0 0 -1.00121 1140.06 739.159)"/></g><g><path d="M0 0C-107.911 0-195.391-87.4794-195.391-195.391-195.391-303.302-107.911-390.782 0-390.782 107.911-390.782 195.391-303.302 195.391-195.391 195.18-87.5668 107.824-0.210856 0 0M0 50.5079C135.841 50.5079 245.962-59.6132 245.962-195.455 245.962-331.296 135.841-441.417 0-441.417-135.841-441.417-245.963-331.296-245.963-195.455L-245.963-195.391C-245.681-59.6764-135.714 50.2621 0 50.5079" fill="#FF0001" fill-rule="evenodd" transform="matrix(1 0 0 -1.00121 1140.06 805.648)"/></g><g><path d="M0 0C-107.77 0.0352324-195.164-87.3013-195.199-195.072-195.234-302.842-107.898-390.235-0.127482-390.271 107.643-390.306 195.036-302.969 195.072-195.199L195.072-194.88C194.931-87.2031 107.676 0.0508315 0 0.191492ZM0-390.717C-108.052-390.717-195.646-303.124-195.646-195.071-195.646-87.0189-108.052 0.574745 0 0.574745 107.978 0.574745 195.54-86.9025 195.646-194.88 195.541-302.888 108.009-390.42 0-390.526ZM0 50.5717C-135.7 50.6069-245.736-59.3712-245.771-195.072-245.806-330.772-135.828-440.807-0.127482-440.842 135.573-440.878 245.608-330.899 245.643-195.199L245.643-194.88C245.467-59.2878 135.592 50.5875 0 50.7634ZM0-441.098C-32.8933-441.251-65.4761-434.735-95.7797-421.942-154.834-396.805-201.814-349.711-226.807-290.596-252.744-229.377-252.744-160.255-226.807-99.0361-173.85 26.0956-29.4798 84.6051 95.6519 31.6478 220.784-21.3089 279.293-165.679 226.336-290.811 201.414-349.7 154.541-396.572 95.6519-421.495 65.4225-434.433 32.8818-441.102 0-441.098" fill="#FF0001" transform="matrix(1 0 0 -1.00121 1140.06 806.159)"/></g><g><path d="M0 0 0 139.647 47.3152 139.647 48.4647 0 93.4812 51.7849 93.4812-12.3876 27.0738-95.7159-42.7815-14.6225-42.7815 48.4007Z" fill-rule="evenodd" transform="matrix(1 0 0 -1.00121 1051.63 1023.27)"/></g><g><path d="M0 0 69.5361-80.7745 135.752 2.23497 135.752 65.6409 90.6715 13.856 90.6715 14.5585 89.586 153.886 42.8456 153.886 42.8456 13.856 42.3346 14.3668 0 62.2567ZM69.6001-81.6042-0.638486-0.191492-0.638486 63.6617-0.191492 63.1507 42.1431 15.261 42.1431 154.461 89.9693 154.461 91.1185 15.5162 135.816 67.3011 135.816 2.04321Z" transform="matrix(1 0 0 -1.00121 1009.1 1037.84)"/></g><g><path d="M0 0 0-178.661-26.6268-177.959-26.0518 0-50.2524-27.8401-50.2524 6.64064-14.4948 51.4019 22.9874 7.85414 22.9874-26.0521Z" fill="#FF0001" fill-rule="evenodd" transform="matrix(1 0 0 -1.00121 1248.23 939.455)"/></g><g><path d="M0 0 26.1161-0.702496 26.1161 178.406 26.5631 177.895 49.1029 152.354 49.1029 185.429 11.8765 228.722-23.5619 184.025-23.5619 150.31 0.702227 178.406 0.702227 177.703ZM26.6268-1.2135 26.6268-1.2135-0.319243-0.510735 0.319243 176.682-23.8811 148.842-23.8811 184.535 12.0043 229.233 49.5499 185.621 49.5499 150.885 49.1029 151.396 26.5631 176.937Z" fill="#FF0001" transform="matrix(1 0 0 -1.00121 1221.86 1117.37)"/></g><g><path d="M0 0C-0.400197 0.521493-1.00453 0.846922-1.66023 0.89372-2.47622 0.826751-3.22229 0.40719-3.70371-0.255502-4.25209-0.974136-4.76337-1.7202-5.23618-2.49047L-9.06737-8.87561C-12.132-13.7285-15.0695-18.1345-17.8152-22.1571-17.858-22.432-17.858-22.7123-17.8152-22.9874-17.8529-23.7574-17.5492-24.5048-16.985-25.0303-16.4046-25.543-15.6518-25.8165-14.8778-25.7968-14.2522-25.8232-13.6387-25.6185-13.1538-25.2221-12.6258-24.8364-12.2614-24.2671-12.132-23.6259L-9.06737-19.6669-9.06737-51.5934C-9.03429-52.7566-8.06419-53.6729-6.90098-53.6399-6.87812-53.639-6.85526-53.6382-6.8324-53.6369-6.19149-53.6329-5.56753-53.4322-5.04469-53.0621-4.47398-52.7375-4.04231-52.2152-3.83119-51.5934L-3.83119-11.8131C-3.38688-10.5789-2.76265-9.417-1.97947-8.36487-0.660809-6.67587 0.19714-4.67381 0.510735-2.55421 0.536823-1.5981 0.385405-0.64521 0.0637411 0.255233ZM-1.34098 18.326C-2.33663 15.4049-3.50979 12.5476-4.85293 9.76933-6.32166 6.76839-8.74786 2.4902-12.1961-3.00121-12.5575-3.65422-13.238-4.06706-13.984-4.08642-14.7366-4.08185-15.4442-3.72791-15.8995-3.12896-16.4506-2.54211-16.7486-1.76243-16.7297-0.957999-16.7445-0.264646-16.5189 0.412031-16.091 0.957999-13.7544 4.80102-11.6229 8.76561-9.70585 12.8345-9.00363 14.2393-8.10937 16.091-7.0879 18.326L-6.64064 19.8584C-5.99516 20.9022-4.86691 21.5507-3.6397 21.5824-2.97458 21.6233-2.33099 21.3374-1.91573 20.8159-1.4682 20.0682-1.30925 19.1826-1.46873 18.326ZM43.3563-6.51315 34.8637-6.51315 34.8637-44.825C34.2827-47.6673 32.5486-50.1416 30.0748-51.6572 28.9635-52.2031 27.7814-52.5899 26.5628-52.8066L22.2206-52.8066 15.8355-51.3382C14.5308-51.0448 13.2953-50.5026 12.1958-49.7417 11.006-49.0631 10.2201-47.8486 10.0888-46.4853 10.1268-45.6862 10.4697-44.9321 11.0463-44.378 11.7176-44.1163 12.4333-43.9864 13.1535-43.9948 14.6615-44.1384 16.1316-44.5496 17.4957-45.2083 18.7864-45.8804 20.1965-46.2927 21.6461-46.4215L24.9663-46.4215C26.3877-46.4285 27.704-45.6728 28.4145-44.4418 28.8107-43.831 29.1122-43.1635 29.3085-42.4626L29.3085-6.70465 4.40593-6.70465 3.51194-6.19391C3.0281-5.45188 2.76238-4.58909 2.74571-3.70371 2.73522-2.89255 3.00605-2.10265 3.51194-1.46873 3.76852-1.16886 4.07001-0.910394 4.40593-0.702496L43.1008-0.702496C43.7145-0.717558 44.2739-1.05832 44.5695-1.59648 44.9178-2.24331 45.0937-2.96893 45.0803-3.70371 45.1018-4.45945 44.9259-5.20767 44.5695-5.87467 44.278-6.40853 43.7086-6.7302 43.1008-6.70465ZM40.2913 11.8765 6.57662 11.8765C5.93814 12.3609 5.5054 13.0675 5.36339 13.8563 5.26926 14.5125 5.26926 15.179 5.36339 15.8355L6.64037 17.879 40.0999 17.879C41.7375 16.7136 42.1207 14.441 40.9554 12.8031 40.851 12.6565 40.7356 12.5172 40.6103 12.3876 40.4576 12.2006 40.2865 12.0296 40.0999 11.8765ZM-61.4908-34.8002C-61.4485-34.2475-61.4485-33.6924-61.4908-33.14-61.874-32.0545-62.5125-31.4797-63.3425-31.4797-63.7852-31.3921-64.2405-31.3921-64.6835-31.4797L-72.2821-39.4614-72.2821-6.64064C-72.2617-5.48281-72.6452-4.35349-73.3673-3.44793-74.0787-2.64082-75.101-2.17607-76.1768-2.17096L-85.5634-2.17096C-86.4461-2.1403-87.2935-2.51683-87.8624-3.1927-88.368-3.82688-88.6385-4.61652-88.6283-5.42767-88.6703-6.13582-88.4161-6.83024-87.9261-7.3434-87.4638-7.91949-86.7467-8.2304-86.0104-8.17338L-78.9225-8.17338-78.2202-8.55636C-77.7291-8.97539-77.3733-9.53104-77.1985-10.1528L-77.1985-44.4418C-77.177-45.3578-76.8386-46.2378-76.241-46.9322-75.7655-47.6425-74.9864-48.0912-74.1338-48.1455-73.7156-48.1374-73.3208-47.9516-73.0481-47.6345-71.3881-45.9105-70.1111-44.5695-69.1531-43.4843-66.2797-40.4191-63.8532-37.5459-61.7463-34.9914ZM-69.5364 10.4081C-68.4119 9.81101-67.7385 8.61365-67.8121 7.34313-67.7769 6.55834-68.0265 5.78753-68.5146 5.1719-68.8869 4.57806-69.5377 4.21686-70.2386 4.21417-70.5743 4.13295-70.9247 4.13295-71.2604 4.21417L-83.0094 16.091C-83.5879 16.4699-83.9271 17.1235-83.9031 17.815-83.9015 18.6223-83.5524 19.3902-82.9454 19.9222-82.404 20.4902-81.6039 20.7325-80.8382 20.5607-78.6078 19.3031-76.6012 17.6851-74.8998 15.7717-71.7708 12.3876-69.9831 10.5358-69.5361 10.1526ZM-29.5643-49.3584-64.5557-49.3584C-65.1326-49.2815-65.6463-48.9545-65.9604-48.4645-66.2576-47.9389-66.412-47.3445-66.4074-46.7405-66.6105-45.3428-65.8518-43.9821-64.5557-43.4203L-50.1887-43.4203-50.1887 18.8364C-50.1215 19.4399-49.8512 20.0029-49.4225 20.4329-48.9607 20.7734-48.3999 20.9531-47.8262 20.9436-46.4807 21.0426-45.2629 20.1494-44.9528 18.8364L-44.9528 1.9792-32.182 1.9792C-31.6137 1.87996-31.1081 1.55829-30.7775 1.08548-30.4801 0.536555-30.3265-0.0782643-30.3303-0.702496-30.1495-2.09619-30.9012-3.44444-32.182-4.02295L-44.9528-4.02295-44.9528-43.42-29.7558-43.42C-29.1646-43.6632-28.6862-44.1188-28.4148-44.6973-28.0958-45.3551-27.9213-46.0738-27.9041-46.8042-27.9041-48.273-28.5425-49.1672-29.7558-49.3584ZM-101.974-35.7579-126.812-35.7579-126.812-52.6789C-127.017-53.2851-127.423-53.8034-127.962-54.1476-128.485-54.5177-129.109-54.7183-129.75-54.7224-130.873-54.8281-131.87-54.0032-131.976-52.8795-131.982-52.8128-131.985-52.7459-131.985-52.6789L-131.985-35.7579-159.633-35.7579C-160.241-35.7835-160.81-35.4618-161.102-34.9277-161.45-34.2809-161.626-33.5552-161.613-32.8205-161.62-32.0733-161.468-31.3332-161.166-30.6498-160.864-30.0941-160.263-29.7684-159.633-29.8195L-131.793-29.8195-131.793-18.9004-153.12-18.9004C-153.645-18.6162-154.086-18.1974-154.397-17.6875-154.506-17.1394-154.506-16.5754-154.397-16.0272-154.394-15.3906-154.264-14.7613-154.014-14.1755-153.959-13.9015-153.851-13.6411-153.695-13.409-151.471-9.96082-149.59-6.30364-148.076-2.49047-147.309-0.574745-146.096 2.23497-144.564 5.93841L-158.739 5.93841C-159.635 6.62746-160.174 7.68201-160.208 8.81187-160.201 9.74969-159.862 10.6547-159.25 11.3658L-158.739 11.8765-143.095 11.8765-140.477 21.8376C-139.831 22.8817-138.703 23.5299-137.476 23.5616-136.784 23.5769-136.123 23.2703-135.688 22.7319-135.23 22.0832-135.068 21.2715-135.241 20.4969L-137.412 11.8765-104.464 11.8765C-103.793 12.0799-103.067 11.8206-102.676 11.2381-102.268 10.5896-102.068 9.83253-102.101 9.0671-102.096 8.35384-102.272 7.65054-102.612 7.02389-102.865 6.44645-103.394 6.03738-104.017 5.93841L-139.2 5.93841-146.926-12.5153-146.479-13.0263-131.793-13.0263-131.793-2.10722C-131.785-1.50208-131.531-0.925725-131.091-0.510735-130.629-0.170245-130.068 0.00914429-129.494-1.17049e-14-128.149 0.0987045-126.931-0.794208-126.621-2.10722L-126.621-13.0263-107.657-13.0263C-106.995-13.0053-106.36-13.2875-105.933-13.7923-105.527-14.3945-105.325-15.1107-105.358-15.8358-105.313-17.2693-106.268-18.5427-107.657-18.9004L-126.812-18.9004-126.812-29.8195-102.421-29.8195C-101.822-29.8303-101.279-30.1753-101.016-30.7135-100.639-31.3493-100.461-32.083-100.505-32.8205-100.456-33.5509-100.611-34.2803-100.952-34.9277-101.243-35.4618-101.813-35.7835-102.421-35.7579ZM-175.341-23.3704-206.437-23.3704-217.356-43.7395-191.24-41.7601-196.476-33.3315C-196.766-32.8172-196.961-32.2549-197.051-31.6712-197.054-30.6433-196.692-29.6477-196.029-28.8615-195.424-28.1343-194.459-27.8129-193.539-28.0318-191.027-30.5521-188.877-33.4105-187.154-36.5242-185.536-39.7169-183.876-42.8456-182.173-45.9105-181.407-47.06-180.832-47.954-180.449-48.6562-179.809-49.5572-179.434-50.6185-179.364-51.7214-179.307-52.1238-179.307-52.532-179.364-52.9344-179.661-53.5261-180.128-54.015-180.705-54.3391L-183.259-54.3391C-184.632-52.7935-185.83-51.102-186.835-49.2947-186.835-48.72-187.601-47.89-188.048-46.9322L-219.144-49.4865C-220.458-49.5655-221.761-49.2062-222.848-48.4647-223.691-47.9188-224.197-46.9793-224.189-45.9743-224.169-45.4345-224.016-44.9079-223.742-44.4418L-211.993-23.5619-231.66-23.5619C-232.347-23.624-232.985-23.1988-233.192-22.5404-233.254-22.2241-233.254-21.8987-233.192-21.5824-233.425-20.5071-233.167-19.384-232.49-18.5177-232.196-18.1455-231.825-17.8408-231.404-17.6235L-175.341-17.6235C-174.447-18.0705-174.064-19.0922-174.064-20.5607-174.064-22.0294-174.447-23.0511-175.341-23.5619ZM-186.196-8.93935-185.685-8.49235C-185.064-7.75731-184.704-6.83643-184.663-5.87467-184.722-4.73647-185.283-3.68326-186.196-3.00121L-222.976-3.00121C-223.385-3.23627-223.752-3.5383-224.061-3.89493-224.716-4.77197-224.95-5.8943-224.7-6.96015-224.747-7.29902-224.747-7.64274-224.7-7.98189-224.436-8.58729-223.827-8.96813-223.167-8.93935ZM-173.425-4.46967C-178.615-3.63916-183.487-1.43458-187.537 1.91546L-194.752 7.47061C-195.853 8.49935-196.897 9.58644-197.881 10.7273-199.499 12.784-201.739 14.2621-204.266 14.9418-206.556 13.3786-208.694 11.6041-210.652 9.64184-212.468 7.78206-214.432 6.07369-216.526 4.53342L-222.912-0.319243C-225.061-2.0225-227.449-3.39952-229.999-4.40593L-231.021-4.40593C-231.83-4.42745-232.596-4.0442-233.064-3.38419-233.64-2.66099-233.935-1.75382-233.894-0.830247-233.896-0.130978-233.766 0.562374-233.511 1.21323-230.016 3.16043-226.627 5.29185-223.359 7.59863-221.06 9.19485-218.57 10.9828-215.951 13.026L-213.014 15.3247-208.289 19.2837C-207.268 20.3692-206.565 21.1991-206.118 21.7739-205.453 22.62-204.497 23.1891-203.436 23.3704-202.815 23.3658-202.212 23.1646-201.712 22.7956-198.138 18.3779-194.018 14.43-189.453 11.0466-186.11 8.46761-182.565 6.16137-178.853 4.1507-177.412 3.31131-175.919 2.5647-174.383 1.91573-173.673 1.58411-173.058 1.07903-172.595 0.446994-172.127-0.182886-171.86-0.93971-171.829-1.72397-171.831-2.76749-172.499-3.69322-173.489-4.02268Z" fill-rule="evenodd" transform="matrix(1 0 0 -1.00121 1234.44 1326.94)"/></g></g></g></g><g clip-path="url(#clip3)"><g clip-path="url(#clip4)"><g><path d="M2.65484 646.402 496.281 646.402 496.281 152.775 2.65484 152.775Z" fill="#FFFFFF" transform="matrix(1 0 0 -1.00045 1723.03 1403.35)"/><path d="M0 150.121 498.936 150.121 498.936 649.056 0 649.056ZM5.30968 643.747 493.626 643.747 493.626 155.651 5.30968 155.651Z" fill="#192286" transform="matrix(1 0 0 -1.00045 1723.03 1403.35)"/><path d="M17.0349 631.524 481.846 631.524 481.846 167.653 17.0349 167.653Z" fill="#0F218B" transform="matrix(1 0 0 -1.00045 1723.03 1403.35)"/><path d="M0 0 1.2169 155.803-56.1931 100.274-55.9719 174 26.7694 261.719 105.417 172.396 105.417 103.482 52.3217 160.283 52.1558 0.221278Z" fill="#FFFFFF" fill-rule="evenodd" transform="matrix(1 0 0 -1.00045 2019.15 1133.09)"/><path d="M0 0 0.940245-200.548-23.0636-171.732-22.8977-215.923 18.7495-264.484 66.1487-216.2 66.1487-171.788 38.4946-204.973 38.3288-0.221278Z" fill="#FF0001" fill-rule="evenodd" transform="matrix(1 0 0 -1.00045 1843.49 871.251)"/><g><path d="M0 0C-0.410624 0.461017-0.987644 0.739672-1.60408 0.774348-2.39414 0.737926-3.13407 0.377944-3.65046-0.221278-4.18383-0.819003-4.68226-1.44691-5.14378-2.10177L-8.90451-7.35581C-11.965-11.4488-14.8411-15.136-17.5326-18.4175-17.579-18.6363-17.579-18.8623-17.5326-19.0811-17.5842-19.7888-17.2447-20.4678-16.6477-20.851-16.0602-21.2973-15.3388-21.5313-14.6014-21.5149-13.9999-21.5281-13.4067-21.3752-12.8868-21.0723-12.3918-20.754-12.0361-20.26-11.8914-19.6898L-8.84938-16.2606-8.84938-43.3615C-8.84938-44.5782-7.96451-45.1315-6.63684-45.1315-6.01293-45.1297-5.40073-44.9576-4.86712-44.6338-4.34673-44.3541-3.93685-43.9054-3.7056-43.3615L-3.7056-9.51296C-3.24034-8.43676-2.6259-7.4314-1.88049-6.52633-0.626414-5.14453 0.216538-3.43941 0.55307-1.60408 0.476983-1.00311 0.289383-0.421351 0 0.110514ZM-1.27229 15.6521C-2.30334 13.1587-3.46661 10.7219-4.75636 8.35169-6.19454 5.80736-8.6281 2.1569-12.0019-2.70997-12.4073-3.28175-13.0711-3.61354-13.7719-3.59508-14.4751-3.59084-15.1497-3.31318-15.6521-2.82073-16.1807-2.33851-16.4821-1.65597-16.4818-0.940494-16.4654-0.34227-16.2291 0.228762-15.818 0.663585-13.6611 3.76073-11.504 7.13478-9.4022 10.785-8.68348 12.0017-7.85375 13.6057-6.85812 15.4862L-6.41582 16.7585C-5.69186 17.6758-4.59719 18.2231-3.42894 18.2516-2.78955 18.2825-2.16688 18.0413-1.71459 17.588-1.27753 16.981-1.11712 16.2179-1.27204 15.4862ZM42.4215-5.58634 34.2911-5.58634 34.2911-38.218C33.6001-40.656 31.8847-42.6742 29.5899-43.7487 28.4897-44.2135 27.3389-44.5477 26.1607-44.7443L21.7361-44.7443 15.3203-43.4723C14.0603-43.2834 12.8541-42.8309 11.7806-42.1446 10.3981-41.3151 9.67886-40.3751 9.67886-39.3795 9.73474-38.6698 10.0738-38.0119 10.6191-37.5542 11.2864-37.3735 11.9742-37.2805 12.6657-37.2777 14.1546-37.369 15.6154-37.7248 16.9795-38.3288 18.265-38.8698 19.6276-39.2054 21.0172-39.3241L24.3356-39.3241C25.6944-39.3663 26.9832-38.7219 27.7648-37.6095 28.1078-37.0924 28.3862-36.5351 28.5943-35.9501L28.5943-5.36481 4.31405-5.36481 3.42894-4.97763C2.9562-4.35496 2.68577-3.60182 2.65484-2.82073 2.67006-2.11923 2.94622-1.44916 3.42894-0.940245 3.68963-0.691276 3.98824-0.485963 4.31405-0.331792L42.4215-0.331792C42.9738-0.27192 43.5177-0.502179 43.8595-0.940245 44.1975-1.46762 44.3706-2.08405 44.3571-2.70997 44.3759-3.36457 44.2234-4.01294 43.9146-4.59046 43.5551-5.042 42.9975-5.28972 42.4215-5.25429ZM39.4346 10.0663 6.24992 10.0663C5.6497 10.4462 5.21513 11.0387 5.03302 11.7252 4.97788 12.2955 4.97788 12.8698 5.03302 13.4398L6.30505 15.1544 39.49 15.1544C40.3562 14.6103 40.9107 13.6858 40.9833 12.6657 40.9641 11.84 40.6036 11.0589 39.9877 10.5086L39.49 10.0663ZM-27.7094-34.1806-28.0966-38.8264C-28.7459-41.1682-30.2974-43.1572-32.4106-44.3574-33.3803-44.7925-34.3782-45.1619-35.3975-45.4633L-46.1271-45.4633C-48.06-45.6506-49.9677-44.9122-51.2709-43.4723-52.7672-42.0311-53.5727-40.0169-53.4832-37.9416L-53.4832-37.2777-53.4832-14.8226-65.3746-14.8226-65.3746-17.5326C-65.4701-22.3955-66.8025-27.1541-69.2458-31.3599-70.3976-33.2967-71.6918-35.1453-73.1176-36.8906L-78.6485-41.5364C-80.6096-43.0345-82.8184-44.1765-85.1748-44.9102-86.3638-45.1914-87.5558-44.4557-87.8372-43.2667-87.8938-43.0262-87.9102-42.778-87.8848-42.532-87.9976-41.1872-87.2414-39.9196-86.0043-39.3795-81.9547-37.3137-78.3472-34.4767-75.3852-31.0278-72.3564-27.6867-70.6289-23.3684-70.5181-18.8603-70.4834-18.3628-70.4834-17.8639-70.5181-17.3667L-70.5181-14.4355-85.1195-14.4355C-85.9856-13.8914-86.5402-12.9668-86.6128-11.9468-86.5808-11.1238-86.2226-10.3477-85.6171-9.78962L-85.1195-9.34706-59.3459-9.34706-59.3459 3.48457-75.9383 3.48457C-77.3311 1.13258-78.9823-1.05625-80.8608-3.04176-81.5244-3.81611-82.4646-4.70122-83.6261-5.80711L-85.783-5.80711C-86.9448-5.80711-87.4976-5.03302-87.4976-3.53945-87.5303-2.98838-87.3741-2.44204-87.0553-1.991-84.605 0.506669-82.418 3.24957-80.529 6.19454-79.8654 7.24555-79.0354 8.57272-78.0954 10.2873-77.4887 11.2288-77.023 12.2536-76.7126 13.3296-75.8831 15.8183-74.6109 17.0349-72.9517 17.0349-71.9064 16.4876-71.263 15.3939-71.2922 14.2144-71.395 13.1669-71.6562 12.1414-72.0668 11.1724-72.4475 10.3375-72.7441 9.46656-72.9517 8.57272L-59.18 8.57272-59.18 17.4777C-59.1918 18.0597-58.8981 18.6051-58.4054 18.9154-57.8454 19.2173-57.2165 19.3697-56.5803 19.358-55.9589 19.3951-55.3412 19.2407-54.8106 18.9154-54.3112 18.617-54.0308 18.056-54.0914 17.4777L-54.0914 8.57272-31.9683 8.57272C-31.3377 8.74185-30.6666 8.52532-30.2535 8.01964-29.8586 7.49626-29.6627 6.84939-29.7007 6.19454-29.6959 5.57661-29.8481 4.96765-30.143 4.42456-30.4491 3.92862-30.952 3.5866-31.5258 3.48457L-54.2573 3.48457-54.2573-9.62348-28.9817-9.62348C-28.4311-9.81532-27.9756-10.2112-27.7094-10.7299-27.3931-11.2665-27.2214-11.8764-27.2117-12.4996-27.0835-13.5918-27.8648-14.5809-28.9572-14.7091-28.9652-14.7101-28.9735-14.7111-28.9817-14.7121L-47.8417-14.7121-47.8417-37.167C-47.5778-38.2457-46.903-39.1784-45.9612-39.7664-45.475-40.0805-44.9556-40.3402-44.4125-40.541L-36.6693-40.541C-35.3262-40.19-34.2105-39.2565-33.6275-37.9967-33.064-36.806-32.7983-35.4963-32.8532-34.1803L-32.8532-29.092C-32.2979-28.2106-31.3491-27.654-30.3089-27.5986-29.4724-27.6395-28.6821-27.995-28.0966-28.5943L-27.7094-29.092-27.7094-34.1252ZM-100.827-30.3642-124.831-30.3642-124.831-44.7443C-125.022-45.2946-125.419-45.7504-125.937-46.0166-126.491-46.3399-127.121-46.5115-127.762-46.5143-128.854-46.6425-129.844-45.8609-129.972-44.7688-129.973-44.7608-129.974-44.7525-129.975-44.7443L-129.975-30.3642-157.629-30.3642C-158.202-30.3992-158.751-30.125-159.067-29.645-159.412-29.1004-159.586-28.4645-159.564-27.8202-159.59-27.1823-159.436-26.5501-159.122-25.9948-158.788-25.5058-158.219-25.2319-157.629-25.2756L-129.975-25.2756-129.975-15.9839-150.936-15.9839C-151.435-15.7352-151.87-15.376-152.208-14.9329-152.44-14.4898-152.554-13.9949-152.54-13.4952-152.517-12.9579-152.385-12.4312-152.153-11.9465-152.063-11.7332-151.952-11.5297-151.821-11.3381-149.673-8.41356-147.82-5.28223-146.29-1.991-145.516-0.331792-144.299 2.04639-142.806 5.19916L-156.522 5.19916C-157.395 5.73652-157.952 6.66503-158.016 7.68785-157.972 8.50785-157.616 9.27971-157.02 9.845L-156.522 10.2873-141.091 10.2873-138.492 18.7495C-137.831 19.6825-136.76 20.2391-135.616 20.2431-134.949 20.2755-134.301 20.0126-133.846 19.5241-133.384 19.0154-133.217 18.3047-133.403 17.6436L-135.505 10.1214-102.984 10.1214C-102.354 10.2636-101.697 10.0516-101.27 9.56809-100.855 9.03074-100.64 8.36616-100.661 7.68785-100.655 7.0799-100.828 6.48342-101.159 5.97326-101.433 5.44838-101.952 5.09538-102.542 5.03327L-137.22 5.03327-144.797-10.6191-144.355-11.0617-129.975-11.0617-129.975-1.71459C-129.904-1.18622-129.626-0.708239-129.2-0.387174-128.735-0.105525-128.195 0.0294372-127.651-1.21865e-15-126.427 0.153672-125.258-0.556812-124.831-1.71434L-124.831-11.0617-106.358-11.0617C-105.735-11.0327-105.13-11.2745-104.698-11.7252-103.726-12.9416-103.923-14.7169-105.14-15.69-105.388-15.8891-105.67-16.0445-105.971-16.1498L-124.831-16.1498-124.831-25.4415-100.827-25.4415C-100.245-25.4298-99.6994-25.7234-99.389-26.2161-99.0445-26.7405-98.8706-27.3586-98.8913-27.9861-98.8661-28.6235-99.0193-29.2556-99.3336-29.8109-99.6677-30.2999-100.237-30.574-100.827-30.5301ZM-173.06-19.8003-203.479-19.8003-214.209-37.167-188.49-35.4526-193.634-28.2625C-193.901-27.788-194.052-27.2576-194.077-26.7138-194.094-25.8002-193.734-24.9198-193.081-24.2802-192.451-23.6338-191.519-23.3801-190.648-23.6166-188.231-25.7069-186.142-28.1495-184.453-30.8619-182.794-33.517-181.19-36.3929-179.531-38.8264-178.756-39.8218-178.148-40.5962-177.816-41.1492-177.212-41.8956-176.829-42.7962-176.71-43.7487-176.632-44.0947-176.632-44.4537-176.71-44.7997-177.017-45.3124-177.456-45.7327-177.982-46.0166L-180.582-46.0166C-181.882-44.6964-183.049-43.2515-184.066-41.7026-184.398-41.2046-184.785-40.541-185.283-39.6562L-215.923-41.8685C-217.176-41.9283-218.42-41.6412-219.519-41.0387-220.681-40.4956-221.183-39.1131-220.639-37.9508-220.574-37.8111-220.495-37.6784-220.403-37.5544L-208.844-19.8003-228.368-19.8003C-229.004-19.8547-229.604-19.4992-229.861-18.9154-229.889-18.6397-229.889-18.3618-229.861-18.0857-230.073-17.1629-229.826-16.1947-229.198-15.4862-228.897-15.1672-228.541-14.9047-228.147-14.7121L-172.838-14.7121C-171.93-15.337-171.529-16.4761-171.843-17.5326-171.724-18.5582-172.223-19.5568-173.115-20.0769ZM-183.79-7.52171-183.292-7.0794C-182.683-6.50088-182.325-5.70633-182.296-4.86712-182.359-3.85827-182.918-2.94647-183.79-2.43356L-219.795-2.43356C-220.189-2.6264-220.545-2.88859-220.846-3.20766-221.474-3.9164-221.721-4.88458-221.51-5.80736-221.563-6.08128-221.563-6.36293-221.51-6.63684-221.252-7.2206-220.652-7.57634-220.016-7.52171ZM-170.958-3.7056C-175.958-2.98863-180.717-1.09292-184.84 1.82511L-191.92 6.58171C-193.037 7.42516-194.091 8.34944-195.072 9.34731-196.738 11.1851-198.947 12.4445-201.378 12.9421-203.567 11.6087-205.639 10.0915-207.572 8.40682-209.318 6.83093-211.165 5.37129-213.103 4.03764-215.813 2.21228-217.915 0.829481-219.353-0.0553819-221.528-1.54046-223.889-2.73043-226.377-3.59508L-227.372-3.59508C-228.15-3.60731-228.895-3.28499-229.419-2.70997-229.943-2.11649-230.22-1.34463-230.193-0.55307-230.203 0.0411622-230.071 0.629158-229.806 1.16127-226.321 2.82073-223.003 4.59046-219.795 6.69223-217.527 8.01964-215.149 9.56809-212.495 11.2829L-209.674 13.2739-204.917 16.6477-202.815 18.7495C-202.118 19.5049-201.179 19.9939-200.161 20.1321-199.571 20.1306-198.995 19.9577-198.501 19.6344-194.882 15.8058-190.815 12.4265-186.389 9.56809-183.043 7.47406-179.549 5.62575-175.936 4.03764-174.504 3.29822-173.026 2.65159-171.511 2.10177-170.845 1.82211-170.257 1.38579-169.796 0.829481-169.334 0.329547-169.06-0.315826-169.022-0.995626-169.022-1.84382-169.575-2.5074-170.681-2.98688Z" fill-rule="evenodd" transform="matrix(1 0 0 -1.00045 2065.56 1356.8)"/></g></g></g></g><path d="M998.641 1389.82C994.434 1395.58 990.104 1400.79 985.65 1405.43 997.836 1404.38 1007.36 1403.57 1014.23 1403.02L1016.27 1402.83 1009.87 1395.12 1017.2 1389.82ZM962.454 1379.41 1040.02 1379.41 1040.02 1389.82 1019.8 1389.82C1026.41 1397.26 1032.35 1404.5 1037.61 1411.57L1028.8 1419C1028.12 1418.07 1026.38 1415.75 1023.6 1412.03 1015.06 1412.84 1001.67 1414.01 983.423 1415.56 980.083 1415.87 975.475 1416.27 969.598 1416.77L967.186 1406.45C968.67 1405.9 969.815 1405.37 970.619 1404.88 971.423 1404.38 972.289 1403.7 973.217 1402.83 976.557 1399.61 980.361 1395.27 984.63 1389.82L962.454 1389.82ZM1270.32 1363.71 1322 1363.71 1322 1374.58 1308.27 1374.58 1308.27 1404.22C1308.27 1409.06 1307.22 1412.51 1305.11 1414.59 1303.01 1416.66 1299.51 1417.76 1294.63 1417.88 1290.42 1417.95 1286.18 1417.76 1281.92 1417.33L1279.6 1405.99C1284.11 1406.61 1288.19 1406.92 1291.84 1406.92 1293.7 1406.92 1294.95 1406.5 1295.6 1405.67 1296.25 1404.83 1296.58 1403.3 1296.58 1401.07L1296.58 1374.58 1270.32 1374.58ZM1259.28 1355.81 1267.91 1362.41C1265.74 1365.75 1262.96 1369.47 1259.55 1373.56L1259.55 1418.44 1248.33 1418.44 1248.33 1385.83C1245.11 1389.05 1242.42 1391.59 1240.26 1393.45L1235.43 1382.76C1239.7 1378.98 1244.01 1374.63 1248.37 1369.7 1252.74 1364.78 1256.37 1360.15 1259.28 1355.81ZM1001.33 1343.92C996.816 1349.55 990.506 1355.25 982.403 1361.01L1020.63 1361.01C1012.4 1355.13 1005.97 1349.43 1001.33 1343.92ZM1274.12 1337.32 1318.38 1337.32 1318.38 1348.19 1274.12 1348.19ZM1191.91 1333.14 1203.42 1333.14 1203.42 1357.48 1225.69 1357.48 1225.69 1368.54 1203.42 1368.54 1203.42 1404.41 1229.21 1404.41 1229.21 1415.19 1171.04 1415.19 1171.04 1405.15C1167.2 1408.31 1164.23 1410.95 1162.13 1413.05 1160.4 1414.66 1159.16 1415.87 1158.42 1416.68L1151.64 1408.22C1152.45 1407.42 1152.97 1406.59 1153.22 1405.76 1153.47 1404.92 1153.59 1403.7 1153.59 1402.09L1153.59 1372.63 1143.76 1372.63 1143.76 1361.67 1164.54 1361.67 1164.54 1396.98C1166.46 1395.37 1169.27 1392.89 1172.99 1389.54L1177.53 1400.04 1171.96 1404.41 1191.91 1404.41ZM1158.23 1332.58C1159.96 1334.56 1162.25 1337.27 1165.1 1340.71 1167.94 1344.15 1170.51 1347.32 1172.8 1350.24L1163.61 1357.67C1159.22 1352.22 1154.49 1346.39 1149.42 1340.2ZM1259.37 1332.12 1268 1339.64C1264.84 1343.54 1260.92 1347.79 1256.21 1352.37 1251.51 1356.96 1247.06 1360.86 1242.85 1364.08L1236.82 1353.77C1240.35 1351.35 1244.26 1348.05 1248.56 1343.87 1252.86 1339.69 1256.46 1335.77 1259.37 1332.12ZM1081.78 1331.84 1094.02 1334.07C1093.22 1336.17 1091.83 1339.46 1089.85 1343.92L1132.25 1343.92 1132.25 1354.51 1084.56 1354.51C1081.22 1360.89 1077.94 1366.44 1074.72 1371.14L1089.94 1371.14 1089.94 1358.13 1101.45 1358.13 1101.45 1371.14 1126.87 1371.14 1126.87 1381.64 1101.45 1381.64 1101.45 1392.61 1134.85 1392.61 1134.85 1403.39 1101.45 1403.39 1101.45 1418.72 1089.94 1418.72 1089.94 1403.39 1053.2 1403.39 1053.2 1392.61 1089.94 1392.61 1089.94 1381.64 1060.9 1381.64 1060.9 1371.14C1064.05 1366.87 1067.52 1361.32 1071.29 1354.51L1054.87 1354.51 1054.87 1343.92 1076.67 1343.92C1078.9 1339.21 1080.6 1335.18 1081.78 1331.84ZM996.97 1331 1005.88 1331C1010.08 1336.95 1015.42 1342.52 1021.88 1347.73 1028.35 1352.93 1035.88 1357.61 1044.48 1361.76L1039.37 1372.54C1034.43 1370.06 1029.41 1367.09 1024.34 1363.62L1024.34 1371.24 977.764 1371.24 977.764 1364.17C972.568 1367.58 967.712 1370.43 963.196 1372.72L958 1362.13C966.598 1358.04 974.161 1353.36 980.687 1348.1 987.212 1342.83 992.64 1337.13 996.97 1331Z" fill="#7F7F7F" fill-rule="evenodd"/><path d="M1831.64 1390.18C1827.43 1395.97 1823.1 1401.21 1818.65 1405.88 1830.84 1404.82 1840.36 1404.01 1847.23 1403.45L1849.27 1403.27 1842.87 1395.51 1850.2 1390.18ZM1795.45 1379.71 1873.02 1379.71 1873.02 1390.18 1852.8 1390.18C1859.41 1397.66 1865.35 1404.95 1870.61 1412.05L1861.8 1419.53C1861.12 1418.6 1859.38 1416.26 1856.6 1412.52 1848.06 1413.33 1834.67 1414.52 1816.42 1416.07 1813.08 1416.39 1808.47 1416.79 1802.6 1417.29L1800.19 1406.91C1801.67 1406.35 1802.81 1405.82 1803.62 1405.32 1804.42 1404.82 1805.29 1404.14 1806.22 1403.27 1809.56 1400.03 1813.36 1395.66 1817.63 1390.18L1795.45 1390.18ZM2103.32 1363.91 2155 1363.91 2155 1374.85 2141.27 1374.85 2141.27 1404.67C2141.27 1409.53 2140.22 1413 2138.11 1415.09 2136.01 1417.18 2132.51 1418.29 2127.63 1418.41 2123.42 1418.47 2119.18 1418.29 2114.92 1417.85L2112.6 1406.44C2117.11 1407.07 2121.19 1407.38 2124.84 1407.38 2126.7 1407.38 2127.95 1406.96 2128.6 1406.12 2129.25 1405.28 2129.58 1403.73 2129.58 1401.49L2129.58 1374.85 2103.32 1374.85ZM2092.28 1355.96 2100.91 1362.6C2098.74 1365.96 2095.96 1369.7 2092.55 1373.82L2092.55 1418.97 2081.33 1418.97 2081.33 1386.16C2078.11 1389.4 2075.42 1391.95 2073.26 1393.82L2068.43 1383.07C2072.7 1379.27 2077.01 1374.89 2081.37 1369.94 2085.74 1364.98 2089.37 1360.32 2092.28 1355.96ZM1834.33 1343.99C1829.82 1349.67 1823.51 1355.4 1815.4 1361.2L1853.63 1361.2C1845.4 1355.28 1838.97 1349.54 1834.33 1343.99ZM2107.12 1337.36 2151.38 1337.36 2151.38 1348.3 2107.12 1348.3ZM2015.64 1332.68 2026.86 1332.68 2026.86 1346.61 2055.63 1346.61 2055.63 1357.27 2026.86 1357.27 2026.86 1370.92 2060.64 1370.92 2060.64 1381.67 2036.05 1381.67 2036.05 1401.12C2036.05 1402.92 2036.33 1404.17 2036.88 1404.86 2037.44 1405.54 2038.46 1405.95 2039.95 1406.07 2040.75 1406.13 2041.99 1406.16 2043.66 1406.16 2045.33 1406.16 2046.56 1406.13 2047.37 1406.07 2048.79 1405.95 2049.75 1405.56 2050.24 1404.9 2050.74 1404.25 2051.05 1403.05 2051.17 1401.3 2051.3 1400.18 2051.36 1398.28 2051.36 1395.6 2051.42 1394.91 2051.45 1394.01 2051.45 1392.89L2062.21 1395.23C2062.21 1396.85 2062.06 1400.09 2061.75 1404.95 2061.5 1408.31 2060.98 1410.82 2060.17 1412.47 2059.37 1414.13 2058.12 1415.28 2056.41 1415.93 2054.71 1416.59 2052.22 1417.01 2048.95 1417.2 2046.1 1417.32 2043.93 1417.38 2042.45 1417.38 2041.03 1417.38 2038.83 1417.32 2035.86 1417.2 2032.89 1417.01 2030.62 1416.56 2029.04 1415.84 2027.47 1415.12 2026.34 1413.91 2025.66 1412.19 2024.98 1410.48 2024.64 1407.94 2024.64 1404.57L2024.64 1381.67 2013.5 1381.67C2013.01 1388.21 2011.86 1393.67 2010.07 1398.03 2008.27 1402.39 2005.46 1406.3 2001.62 1409.76 1997.79 1413.22 1992.5 1416.63 1985.76 1420L1978.61 1409.06C1984.55 1406.63 1989.11 1404.19 1992.3 1401.72 1995.48 1399.26 1997.77 1396.49 1999.17 1393.4 2000.56 1390.32 2001.44 1386.41 2001.81 1381.67L1978.8 1381.67 1978.8 1370.92 2015.64 1370.92 2015.64 1357.27 1997.82 1357.27C1996.27 1360.64 1994.39 1364.19 1992.16 1367.93L1981.77 1362.6C1986.35 1355.87 1990.52 1346.74 1994.29 1335.21L2005.43 1337.73C2004.44 1340.91 2003.42 1343.87 2002.37 1346.61L2015.64 1346.61ZM2092.37 1332.12 2101 1339.69C2097.84 1343.62 2093.92 1347.89 2089.21 1352.5 2084.51 1357.11 2080.06 1361.04 2075.85 1364.28L2069.82 1353.9C2073.35 1351.47 2077.26 1348.15 2081.56 1343.95 2085.86 1339.74 2089.46 1335.8 2092.37 1332.12ZM1914.78 1331.84 1927.02 1334.09C1926.22 1336.2 1924.83 1339.51 1922.85 1343.99L1965.25 1343.99 1965.25 1354.65 1917.56 1354.65C1914.22 1361.07 1910.94 1366.65 1907.73 1371.39L1922.94 1371.39 1922.94 1358.3 1934.45 1358.3 1934.45 1371.39 1959.87 1371.39 1959.87 1381.95 1934.45 1381.95 1934.45 1392.98 1967.85 1392.98 1967.85 1403.83 1934.45 1403.83 1934.45 1419.25 1922.94 1419.25 1922.94 1403.83 1886.2 1403.83 1886.2 1392.98 1922.94 1392.98 1922.94 1381.95 1893.9 1381.95 1893.9 1371.39C1897.05 1367.09 1900.52 1361.51 1904.29 1354.65L1887.87 1354.65 1887.87 1343.99 1909.67 1343.99C1911.9 1339.26 1913.6 1335.21 1914.78 1331.84ZM1829.97 1331 1838.88 1331C1843.08 1336.98 1848.42 1342.59 1854.88 1347.83 1861.35 1353.06 1868.88 1357.77 1877.48 1361.94L1872.37 1372.79C1867.42 1370.3 1862.41 1367.3 1857.34 1363.81L1857.34 1371.48 1810.76 1371.48 1810.76 1364.37C1805.57 1367.8 1800.71 1370.67 1796.2 1372.98L1791 1362.32C1799.6 1358.2 1807.16 1353.5 1813.69 1348.2 1820.21 1342.9 1825.64 1337.17 1829.97 1331Z" fill="#7F7F7F" fill-rule="evenodd"/></g></svg>