<?xml version="1.0" standalone="no"?><!DOCTYPE svg PUBLIC "-//W3C//DTD SVG 1.1//EN" "http://www.w3.org/Graphics/SVG/1.1/DTD/svg11.dtd"><svg class="icon" width="200px" height="200.00px" viewBox="0 0 1024 1024" version="1.1" xmlns="http://www.w3.org/2000/svg"><path d="M252.224 190.528 201.344 160.896C185.216 188.608 176.64 220.352 176.64 252.608l58.944 0C235.584 230.72 241.344 209.28 252.224 190.528z" fill="#040000" /><path d="M359.04 129.088c4.736 0 9.472 0.256 14.144 0.768l6.656-58.56C372.992 70.528 366.016 70.144 359.04 70.144c-50.176 0-98.624 20.992-132.992 57.536l42.944 40.32C292.608 142.912 324.608 129.088 359.04 129.088z" fill="#040000" /><path d="M477.184 216.32l69.696 0C558.272 179.2 586.944 149.184 623.552 136.192L603.84 80.64C565.824 94.208 533.632 120.064 512 153.28 490.368 120.064 458.24 94.208 420.224 80.64L400.448 136.192C437.12 149.184 465.792 179.2 477.184 216.32z" fill="#040000" /><path d="M788.48 252.608l58.944 0c0-32.256-8.512-63.936-24.704-91.712l-50.944 29.632C782.72 209.28 788.48 230.72 788.48 252.608z" fill="#040000" /><path d="M664.96 129.088c34.496 0 66.432 13.824 90.048 38.976l42.944-40.32c-34.368-36.608-82.816-57.536-132.992-57.536-6.912 0-13.952 0.384-20.8 1.152l6.656 58.56C655.488 129.344 660.224 129.088 664.96 129.088z" fill="#040000" /><path d="M541.504 419.072 482.56 419.072 482.56 561.6 482.56 561.6 482.56 561.6 541.504 561.6 541.504 419.072 541.504 419.072Z" fill="#040000" /><path d="M482.56 596.544 482.56 596.544 482.56 677.056 541.504 677.056 541.504 596.544 541.504 596.544Z" fill="#040000" /><path d="M1015.36 490.56c-127.488-127.488-294.848-200.64-473.92-207.872L541.44 239.744 482.56 239.744l0 42.944C303.488 289.92 136.128 363.072 8.64 490.56c-11.52 11.52-11.52 30.144 0 41.664l306.624 306.624c5.504 5.504 12.992 8.64 20.864 8.64 7.808 0 15.296-3.072 20.8-8.64 19.584-19.584 42.304-34.944 66.88-45.76l32.832 52.032c-4.736 8.64-7.488 18.56-7.488 29.12 0 33.536 27.2 60.672 60.672 60.672 33.536 0 60.672-27.136 60.672-60.672s-27.136-60.672-60.672-60.672c-1.152 0-2.24 0.128-3.328 0.192l-23.424-37.184c9.536-1.216 19.136-1.92 28.864-1.92 58.56 0 113.664 22.784 155.072 64.192 5.504 5.504 12.992 8.64 20.864 8.64 7.808 0 15.296-3.072 20.8-8.64l306.624-306.624C1020.928 526.72 1024 519.232 1024 511.36 1024 503.552 1020.928 496.064 1015.36 490.56zM686.848 777.472C637.504 737.472 576.384 715.712 512 715.712c-21.376 0-42.432 2.432-62.784 7.104l-156.16-247.552c-8.704-13.76-26.88-17.856-40.64-9.216C238.656 474.816 234.56 492.992 243.2 506.752l148.928 236.032c-19.456 9.28-37.888 20.864-54.912 34.688l-265.6-265.6C184.96 408.064 328.96 348.416 482.56 341.632l0 42.688 0 0 0 0 58.944 0L541.504 341.632c153.536 6.784 297.6 66.432 410.944 170.24L686.848 777.472z" fill="#040000" /></svg>