<svg width="4406" height="2470" xmlns="http://www.w3.org/2000/svg" xmlns:xlink="http://www.w3.org/1999/xlink" xml:space="preserve" overflow="hidden"><defs><clipPath id="clip0"><rect x="-6" y="-4" width="4406" height="2511"/></clipPath><clipPath id="clip1"><rect x="315" y="148" width="428" height="1004"/></clipPath><clipPath id="clip2"><rect x="315" y="148" width="428" height="1004"/></clipPath><clipPath id="clip3"><rect x="315" y="148" width="428" height="1004"/></clipPath><clipPath id="clip4"><rect x="315" y="148" width="428" height="1004"/></clipPath><clipPath id="clip5"><rect x="1862" y="148" width="428" height="1004"/></clipPath><clipPath id="clip6"><rect x="1862" y="148" width="428" height="1004"/></clipPath><clipPath id="clip7"><rect x="1862" y="148" width="428" height="1004"/></clipPath><clipPath id="clip8"><rect x="1862" y="148" width="428" height="1004"/></clipPath><clipPath id="clip9"><rect x="3946" y="148" width="428" height="1004"/></clipPath><clipPath id="clip10"><rect x="3946" y="148" width="428" height="1004"/></clipPath><clipPath id="clip11"><rect x="3946" y="148" width="428" height="1004"/></clipPath><clipPath id="clip12"><rect x="3946" y="148" width="428" height="1004"/></clipPath><clipPath id="clip13"><rect x="2909" y="1007" width="322" height="596"/></clipPath><clipPath id="clip14"><rect x="2909" y="1007" width="322" height="596"/></clipPath><clipPath id="clip15"><rect x="2909" y="1007" width="322" height="596"/></clipPath><clipPath id="clip16"><rect x="2909" y="1007" width="322" height="596"/></clipPath></defs><g clip-path="url(#clip0)" transform="translate(6 4)"><rect x="-5.99984" y="-4.00013" width="798" height="2479" fill="#3A3A3A"/><g><g><g><g><path d="M1641.31 620.95 1754.01 620.95C1800.62 620.95 1838.4 658.733 1838.4 705.341L1838.4 1140.12C1838.4 1181.68 1804.72 1215.36 1763.17 1215.36L1632.15 1215.36C1590.6 1215.36 1556.92 1181.68 1556.92 1140.12L1556.92 705.341C1556.92 658.733 1594.7 620.95 1641.31 620.95Z" fill="#0991BF" fill-rule="evenodd" transform="matrix(1 0 0 1.001 -1167.66 762.431)"/><path d="M0 11.9275C0 5.3401 5.3401-4.60623e-15 11.9275-6.14164e-15L36.3128 0C42.9002-1.53541e-15 48.2402 5.3401 48.2402 11.9275L48.2402 11.9275C48.2402 18.5148 42.9002 23.8549 36.3128 23.8549L11.9275 23.8549C5.3401 23.8549-1.5354e-15 18.5148 0 11.9275Z" fill="#C00000" fill-rule="evenodd" transform="matrix(0.908435 0.418026 0.41761 -0.90934 414.513 1947.77)"/><path d="M1808.08 1173.32C1810.83 1179.3 1808.21 1186.39 1802.22 1189.14L1780.07 1199.32C1774.09 1202.07 1767.01 1199.45 1764.25 1193.47L1764.25 1193.47C1761.5 1187.48 1764.13 1180.4 1770.11 1177.65L1792.26 1167.46C1798.25 1164.71 1805.32 1167.34 1808.08 1173.32Z" fill="#C00000" fill-rule="evenodd" transform="matrix(1 0 0 1.001 -1167.66 762.431)"/><path d="M1583 690.078C1577.88 686.807 1576.38 679.997 1579.64 674.869L1582.61 670.222C1585.88 665.094 1592.69 663.588 1597.82 666.86L1597.82 666.86C1602.95 670.131 1604.45 676.941 1601.18 682.069L1598.22 686.716C1594.94 691.844 1588.13 693.349 1583 690.078Z" fill="#FE8B00" fill-rule="evenodd" transform="matrix(1 0 0 1.001 -1167.66 762.431)"/><path d="M1587.13 677.58C1584.37 671.596 1586.99 664.515 1592.98 661.764L1615.13 651.58C1621.11 648.83 1628.2 651.45 1630.95 657.435L1630.95 657.435C1633.7 663.419 1631.07 670.5 1625.09 673.251L1602.94 683.434C1596.95 686.186 1589.87 683.564 1587.13 677.58Z" fill="#FCF1B5" fill-rule="evenodd" transform="matrix(1 0 0 1.001 -1167.66 762.431)"/><path d="M0 11.0169C-1.7536e-15 4.93243 4.93243-1.7536e-15 11.0169-3.50721e-15L16.5309 0C22.6154-3.50721e-15 27.5478 4.93243 27.5478 11.0169L27.5478 11.0169C27.5478 17.1014 22.6154 22.0338 16.5309 22.0338L11.0169 22.0338C4.93243 22.0338 0 17.1014 0 11.0169Z" fill="#FE8B00" fill-rule="evenodd" transform="matrix(-0.537661 -0.843659 -0.84282 0.538197 653.848 1447.27)"/><path d="M0 11.9275C0 5.3401 5.3401-4.60623e-15 11.9275-6.14164e-15L36.3128 0C42.9002-1.53541e-15 48.2402 5.3401 48.2402 11.9275L48.2402 11.9275C48.2402 18.5148 42.9002 23.8549 36.3128 23.8549L11.9275 23.8549C5.3401 23.8549-1.5354e-15 18.5148 0 11.9275Z" fill="#FCF1B5" fill-rule="evenodd" transform="matrix(-0.908435 -0.418026 -0.41761 0.90934 645.424 1429.84)"/><path d="M1570.89 729.285C1570.89 684.112 1607.51 647.493 1652.68 647.493L1741.94 647.493C1787.11 647.493 1823.74 684.112 1823.74 729.285L1823.74 1116.8C1823.74 1161.97 1787.11 1198.59 1741.94 1198.59L1652.68 1198.59C1607.51 1198.59 1570.89 1161.97 1570.89 1116.8Z" fill="#0EBFE3" fill-rule="evenodd" transform="matrix(1 0 0 1.001 -1167.66 762.431)"/><path d="M1649.06 769.727 1746.26 769.727C1789.43 769.727 1824.43 804.728 1824.43 847.901L1824.43 1078.66C1824.43 1109.8 1799.2 1135.03 1768.06 1135.03L1627.26 1135.03C1596.12 1135.03 1570.89 1109.8 1570.89 1078.66L1570.89 847.901C1570.89 804.728 1605.89 769.727 1649.06 769.727Z" fill="#262626" fill-rule="evenodd" transform="matrix(1 0 0 1.001 -1167.66 762.431)"/><path d="M1658.16 844.464 1737.16 844.464C1772.24 844.464 1800.69 872.907 1800.69 907.991L1800.69 1047.61C1800.69 1066.19 1785.63 1081.25 1767.05 1081.25L1628.27 1081.25C1609.69 1081.25 1594.63 1066.19 1594.63 1047.61L1594.63 907.991C1594.63 872.907 1623.08 844.464 1658.16 844.464Z" fill="#0EBFE3" fill-rule="evenodd" transform="matrix(1 0 0 1.001 -1167.66 762.431)"/><path d="M1591.06 781.804 1600.7 779.087 1624.93 864.972 1615.3 867.689Z" fill="#0EBFE3" fill-rule="evenodd" transform="matrix(1 0 0 1.001 -1167.66 762.431)"/><path d="M0 0 10.0052 0 10.0052 89.2453 6.28867e-08 89.2453Z" fill="#0EBFE3" transform="matrix(-0.962349 -0.271816 -0.271545 0.963308 636.497 1545.01)"/><path d="M1598.94 1063.63 1607.67 1068.53 1582.32 1113.63 1573.6 1108.73Z" fill="#0EBFE3" fill-rule="evenodd" transform="matrix(1 0 0 1.001 -1167.66 762.431)"/><path d="M0 0 10.0071 0 10.0071 51.7438-2.23871e-07 51.7438Z" fill="#0EBFE3" transform="matrix(-0.871542 0.490321 0.489833 0.87241 628.625 1827.12)"/><path d="M1570.19 963.905 1824.43 963.905 1824.43 973.683 1570.19 973.683Z" fill="#0EBFE3" transform="matrix(1 0 0 1.001 -1167.66 762.431)"/><path d="M1543.99 812.334 1557.96 812.334C1562.01 812.334 1565.3 815.617 1565.3 819.668L1565.3 824.607C1565.3 825.927 1564.22 827.002 1562.9 827.002L1539.06 827.002C1537.74 827.002 1536.66 825.927 1536.66 824.607L1536.66 819.668C1536.66 815.617 1539.94 812.334 1543.99 812.334Z" fill="#0EBFE3" fill-rule="evenodd" transform="matrix(1 0 0 1.001 -1167.66 762.431)"/><path d="M1836.66 812.334 1851.33 812.334C1855.38 812.334 1858.66 815.617 1858.66 819.668L1858.66 824.607C1858.66 825.927 1857.58 827.002 1856.26 827.002L1831.72 827.002C1830.4 827.002 1829.32 825.927 1829.32 824.607L1829.32 819.668C1829.32 815.617 1832.61 812.334 1836.66 812.334Z" fill="#0EBFE3" fill-rule="evenodd" transform="matrix(1 0 0 1.001 -1167.66 762.431)"/></g></g></g></g><g clip-path="url(#clip1)"><g clip-path="url(#clip2)"><g clip-path="url(#clip3)"><g clip-path="url(#clip4)"><path d="M2443.38-106.838 2671.82-106.838C2707.27-106.838 2736-78.1004 2736-42.6515L2736 897.162 2379.19 897.162 2379.19-42.6515C2379.19-78.1004 2407.93-106.838 2443.38-106.838Z" fill="#FE8B00" fill-rule="evenodd" transform="matrix(1.00078 0 0 1 -2030.1 254.838)"/><path d="M2653.13-59.24C2653.13-71.1545 2662.79-80.8131 2674.71-80.8131L2685.67-80.8131C2697.58-80.8131 2707.24-71.1545 2707.24-59.24L2707.24-59.24C2707.24-47.3256 2697.58-37.667 2685.67-37.667L2674.71-37.6671C2662.79-37.6671 2653.13-47.3256 2653.13-59.2401Z" fill="#FCF1B5" fill-rule="evenodd" transform="matrix(1.00078 0 0 1 -2030.1 254.838)"/><path d="M2407.96-59.24C2407.96-71.1545 2417.61-80.8131 2429.53-80.8131L2440.49-80.8131C2452.4-80.8131 2462.06-71.1545 2462.06-59.24L2462.06-59.24C2462.06-47.3256 2452.4-37.667 2440.49-37.667L2429.53-37.6671C2417.61-37.6671 2407.96-47.3256 2407.96-59.2401Z" fill="#FCF1B5" fill-rule="evenodd" transform="matrix(1.00078 0 0 1 -2030.1 254.838)"/><path d="M2467.54 877.986 2647.66 877.986 2647.66 897.162 2467.54 897.162Z" fill="#262626" transform="matrix(1.00078 0 0 1 -2030.1 254.838)"/><path d="M2408.64 877.986 2467.54 877.986 2467.54 897.162 2408.64 897.162Z" fill="#C00000" transform="matrix(1.00078 0 0 1 -2030.1 254.838)"/><path d="M2647.66 877.986 2706.55 877.986 2706.55 897.162 2647.66 897.162Z" fill="#C00000" transform="matrix(1.00078 0 0 1 -2030.1 254.838)"/><path d="M2455.85-82.1828 2659.4-82.1828C2694.55-82.1828 2723.05-53.6852 2723.05-18.5317L2723.05 877.986 2392.2 877.986 2392.2-18.5317C2392.2-53.6852 2420.7-82.1828 2455.85-82.1828Z" fill="#F7C40A" fill-rule="evenodd" transform="matrix(1.00078 0 0 1 -2030.1 254.838)"/><path d="M2499.52-82.1828 2615.67-82.1828C2645.06-82.1828 2668.89-58.3572 2668.89-28.9669L2668.89 71.9099 2446.31 71.9099 2446.31-28.9669C2446.31-58.3572 2470.13-82.1828 2499.52-82.1828Z" fill="#F9E707" fill-rule="evenodd" transform="matrix(1.00078 0 0 1 -2030.1 254.838)"/><path d="M2442.46 35.6125 2672.74 35.6125C2700.49 35.6125 2722.99 58.113 2722.99 85.8687L2722.99 198.608 2392.2 198.608 2392.2 85.8687C2392.2 58.113 2414.7 35.6125 2442.46 35.6125Z" fill="#262626" fill-rule="evenodd" transform="matrix(1.00078 0 0 1 -2030.1 254.838)"/><path d="M2413.83 39.1018 2423.96 34.0952 2470.25 127.752 2460.12 132.759Z" fill="#F7C40A" fill-rule="evenodd" transform="matrix(1.00078 0 0 1 -2030.1 254.838)"/><path d="M0 0 11.3016 0 11.3016 104.487-3.7208e-07 104.487Z" fill="#F7C40A" transform="matrix(-0.897053 -0.443 -0.443347 0.89635 673.378 293.94)"/><path d="M2471.78 120.535 2643.41 120.535C2664.29 120.535 2681.21 137.459 2681.21 158.337L2681.21 855.386 2433.98 855.386 2433.98 158.337C2433.98 137.459 2450.9 120.535 2471.78 120.535Z" fill="#F9E707" fill-rule="evenodd" transform="matrix(1.00078 0 0 1 -2030.1 254.838)"/><path d="M2473.02 282.047C2473.02 272.276 2480.94 264.355 2490.71 264.355L2624.49 264.355C2634.25 264.355 2642.18 272.276 2642.18 282.047L2642.18 352.815C2642.18 362.586 2634.25 370.507 2624.49 370.507L2490.71 370.507C2480.94 370.507 2473.02 362.586 2473.02 352.815Z" fill="#FCF1B5" fill-rule="evenodd" transform="matrix(1.00078 0 0 1 -2030.1 254.838)"/><path d="M2510.68 299.625C2510.68 296.031 2513.59 293.119 2517.19 293.119L2598 293.119C2601.6 293.119 2604.51 296.031 2604.51 299.625L2604.51 299.625C2604.51 303.218 2601.6 306.131 2598 306.131L2517.19 306.131C2513.59 306.131 2510.68 303.218 2510.68 299.625Z" fill="#F7C40A" fill-rule="evenodd" transform="matrix(1.00078 0 0 1 -2030.1 254.838)"/><path d="M2358.99 71.9099 2362.41 71.9099C2370.54 71.9099 2377.14 78.5024 2377.14 86.6344L2377.14 96.5511C2377.14 99.2063 2374.99 101.359 2372.33 101.359L2349.07 101.359C2346.41 101.359 2344.26 99.2063 2344.26 96.5511L2344.26 86.6344C2344.26 78.5024 2350.86 71.9099 2358.99 71.9099Z" fill="#F7C40A" fill-rule="evenodd" transform="matrix(1.00078 0 0 1 -2030.1 254.838)"/><path d="M2752.78 71.9099 2756.21 71.9099C2764.33 71.9099 2770.93 78.5024 2770.93 86.6344L2770.93 96.5511C2770.93 99.2063 2768.78 101.359 2766.12 101.359L2742.86 101.359C2740.21 101.359 2738.06 99.2063 2738.06 96.5511L2738.06 86.6344C2738.06 78.5024 2744.65 71.9099 2752.78 71.9099Z" fill="#F7C40A" fill-rule="evenodd" transform="matrix(1.00078 0 0 1 -2030.1 254.838)"/></g></g></g></g><path d="M227.5-3.49993 227.5 2475.15" stroke="#F7C40A" stroke-width="22.9167" stroke-miterlimit="8" fill="none" fill-rule="evenodd"/><path d="M572.17 2276.16 633 2276.16 633 2284.75 615.354 2284.75 615.354 2322.93C615.354 2328.06 614.258 2331.75 612.066 2333.98 609.874 2336.22 606.184 2337.41 600.996 2337.56L597.598 2337.56C593.141 2337.56 589.268 2337.38 585.98 2337.01L584.117 2327.99C589.451 2328.72 594.31 2329.09 598.694 2329.09 601.617 2329.09 603.59 2328.48 604.613 2327.27 605.636 2326.06 606.147 2323.77 606.147 2320.4L606.147 2284.75 572.17 2284.75ZM424.315 2274.51 446.784 2274.51 446.784 2318.96 459.717 2307.41 463.224 2315.66C456.21 2321.31 450.255 2326.48 445.359 2331.18L440.427 2336.02 435.057 2329.2C436.226 2328.24 437.048 2327.29 437.523 2326.34 437.997 2325.38 438.235 2324.06 438.235 2322.38L438.235 2283.09 424.315 2283.09ZM561.319 2266.59 568.225 2271.98C565.521 2276.09 561.977 2280.75 557.593 2285.96L557.593 2338 548.825 2338 548.825 2295.53C544.879 2299.64 540.568 2303.74 535.892 2307.85L532.165 2299.49C537.426 2294.87 542.723 2289.55 548.057 2283.53 553.391 2277.52 557.812 2271.87 561.319 2266.59ZM576.445 2244.69 628.397 2244.69 628.397 2253.28 576.445 2253.28ZM437.906 2239.74C439.879 2242.02 442.564 2245.23 445.962 2249.37 449.36 2253.51 452.41 2257.31 455.114 2260.76L448.318 2266.59C442.327 2258.81 436.664 2251.74 431.33 2245.35ZM561.319 2238.53 568.115 2244.47C564.461 2249.09 559.895 2254.08 554.414 2259.44 548.934 2264.79 543.746 2269.34 538.851 2273.08L534.138 2264.94C538.376 2261.86 543.089 2257.79 548.277 2252.73 553.464 2247.66 557.812 2242.93 561.319 2238.53ZM482.295 2238.31 491.173 2238.31 491.173 2269.56 519.451 2269.56 519.451 2278.25 491.173 2278.25 491.173 2326.12 524.054 2326.12 524.054 2334.37 456.538 2334.37 456.538 2326.12 482.295 2326.12ZM462.567 2174 510.463 2174 510.463 2181.48 492.379 2181.48 492.379 2195.24C492.379 2199.56 491.484 2202.64 489.693 2204.48 487.903 2206.31 484.67 2207.23 479.994 2207.23 476.706 2207.23 472.687 2206.97 467.938 2206.46L466.403 2198.32C471.664 2199.05 475.646 2199.42 478.35 2199.42 480.469 2199.42 481.948 2198.88 482.789 2197.82 483.629 2196.76 484.049 2195.12 484.049 2192.92L484.049 2181.48 462.567 2181.48ZM452.264 2157.82 520.985 2157.82 520.985 2176.97 512.765 2176.97 512.765 2165.42 460.375 2165.42 460.375 2176.86 452.264 2176.86ZM468.486 2138.02 468.486 2145.28 505.093 2145.28 505.093 2138.02ZM460.265 2131.75 513.313 2131.75 513.313 2151.33 460.265 2151.33ZM444.153 2107.65 452.593 2109.41C449.816 2118.51 447.113 2126.39 444.482 2133.07L444.482 2207.34 436.372 2207.34 436.372 2150.45C433.449 2155.73 430.49 2160.36 427.494 2164.32L423 2155.73C426.873 2150.09 430.709 2142.99 434.509 2134.44 438.308 2125.9 441.523 2116.97 444.153 2107.65ZM487.118 2106.55C488.141 2109.12 489.493 2112.9 491.173 2117.88L521.533 2117.88 521.533 2125.48 454.237 2125.48 454.237 2117.88 481.747 2117.88C480.286 2113.92 479.19 2111.06 478.459 2109.3ZM571.951 2106 581.377 2108.53C579.769 2112.79 577.76 2117.48 575.349 2122.61L628.397 2122.61 628.397 2130.87 571.403 2130.87C566.507 2140.84 562.05 2148.88 558.031 2154.96L581.158 2154.96 581.158 2137.36 589.816 2137.36 589.816 2154.96 622.697 2154.96 622.697 2163.11 589.816 2163.11 589.816 2180.49 630.808 2180.49 630.808 2188.96 589.816 2188.96 589.816 2208.55 581.158 2208.55 581.158 2188.96 535.892 2188.96 535.892 2180.49 581.158 2180.49 581.158 2163.11 547.071 2163.11 547.071 2154.96C551.236 2149.1 555.876 2141.06 560.991 2130.87L538.522 2130.87 538.522 2122.61 564.936 2122.61C568.298 2115.43 570.636 2109.89 571.951 2106Z" fill="#FFFFFF" fill-rule="evenodd"/><rect x="948" y="-4.00013" width="1386" height="2479" fill="#3A3A3A"/><g><g><g><g><path d="M1641.31 620.95 1754.01 620.95C1800.62 620.95 1838.4 658.733 1838.4 705.341L1838.4 1140.12C1838.4 1181.68 1804.72 1215.36 1763.17 1215.36L1632.15 1215.36C1590.6 1215.36 1556.92 1181.68 1556.92 1140.12L1556.92 705.341C1556.92 658.733 1594.7 620.95 1641.31 620.95Z" fill="#0991BF" fill-rule="evenodd" transform="matrix(1 0 0 1.001 -163.66 762.431)"/><path d="M0 11.9275C0 5.3401 5.3401-4.60623e-15 11.9275-6.14164e-15L36.3128 0C42.9002-1.53541e-15 48.2402 5.3401 48.2402 11.9275L48.2402 11.9275C48.2402 18.5148 42.9002 23.8549 36.3128 23.8549L11.9275 23.8549C5.3401 23.8549-1.5354e-15 18.5148 0 11.9275Z" fill="#C00000" fill-rule="evenodd" transform="matrix(0.908435 0.418026 0.41761 -0.90934 1418.51 1947.77)"/><path d="M1808.08 1173.32C1810.83 1179.3 1808.21 1186.39 1802.22 1189.14L1780.07 1199.32C1774.09 1202.07 1767.01 1199.45 1764.25 1193.47L1764.25 1193.47C1761.5 1187.48 1764.13 1180.4 1770.11 1177.65L1792.26 1167.46C1798.25 1164.71 1805.32 1167.34 1808.08 1173.32Z" fill="#C00000" fill-rule="evenodd" transform="matrix(1 0 0 1.001 -163.66 762.431)"/><path d="M1583 690.078C1577.88 686.807 1576.38 679.997 1579.64 674.869L1582.61 670.222C1585.88 665.094 1592.69 663.588 1597.82 666.86L1597.82 666.86C1602.95 670.131 1604.45 676.941 1601.18 682.069L1598.22 686.716C1594.94 691.844 1588.13 693.349 1583 690.078Z" fill="#FE8B00" fill-rule="evenodd" transform="matrix(1 0 0 1.001 -163.66 762.431)"/><path d="M1587.13 677.58C1584.37 671.596 1586.99 664.515 1592.98 661.764L1615.13 651.58C1621.11 648.83 1628.2 651.45 1630.95 657.435L1630.95 657.435C1633.7 663.419 1631.07 670.5 1625.09 673.251L1602.94 683.434C1596.95 686.186 1589.87 683.564 1587.13 677.58Z" fill="#FCF1B5" fill-rule="evenodd" transform="matrix(1 0 0 1.001 -163.66 762.431)"/><path d="M0 11.0169C-1.7536e-15 4.93243 4.93243-1.7536e-15 11.0169-3.50721e-15L16.5309 0C22.6154-3.50721e-15 27.5478 4.93243 27.5478 11.0169L27.5478 11.0169C27.5478 17.1014 22.6154 22.0338 16.5309 22.0338L11.0169 22.0338C4.93243 22.0338 0 17.1014 0 11.0169Z" fill="#FE8B00" fill-rule="evenodd" transform="matrix(-0.537661 -0.843659 -0.84282 0.538197 1657.85 1447.27)"/><path d="M0 11.9275C0 5.3401 5.3401-4.60623e-15 11.9275-6.14164e-15L36.3128 0C42.9002-1.53541e-15 48.2402 5.3401 48.2402 11.9275L48.2402 11.9275C48.2402 18.5148 42.9002 23.8549 36.3128 23.8549L11.9275 23.8549C5.3401 23.8549-1.5354e-15 18.5148 0 11.9275Z" fill="#FCF1B5" fill-rule="evenodd" transform="matrix(-0.908435 -0.418026 -0.41761 0.90934 1649.42 1429.84)"/><path d="M1570.89 729.285C1570.89 684.112 1607.51 647.493 1652.68 647.493L1741.94 647.493C1787.11 647.493 1823.74 684.112 1823.74 729.285L1823.74 1116.8C1823.74 1161.97 1787.11 1198.59 1741.94 1198.59L1652.68 1198.59C1607.51 1198.59 1570.89 1161.97 1570.89 1116.8Z" fill="#0EBFE3" fill-rule="evenodd" transform="matrix(1 0 0 1.001 -163.66 762.431)"/><path d="M1649.06 769.727 1746.26 769.727C1789.43 769.727 1824.43 804.728 1824.43 847.901L1824.43 1078.66C1824.43 1109.8 1799.2 1135.03 1768.06 1135.03L1627.26 1135.03C1596.12 1135.03 1570.89 1109.8 1570.89 1078.66L1570.89 847.901C1570.89 804.728 1605.89 769.727 1649.06 769.727Z" fill="#262626" fill-rule="evenodd" transform="matrix(1 0 0 1.001 -163.66 762.431)"/><path d="M1658.16 844.464 1737.16 844.464C1772.24 844.464 1800.69 872.907 1800.69 907.991L1800.69 1047.61C1800.69 1066.19 1785.63 1081.25 1767.05 1081.25L1628.27 1081.25C1609.69 1081.25 1594.63 1066.19 1594.63 1047.61L1594.63 907.991C1594.63 872.907 1623.08 844.464 1658.16 844.464Z" fill="#0EBFE3" fill-rule="evenodd" transform="matrix(1 0 0 1.001 -163.66 762.431)"/><path d="M1591.06 781.804 1600.7 779.087 1624.93 864.972 1615.3 867.689Z" fill="#0EBFE3" fill-rule="evenodd" transform="matrix(1 0 0 1.001 -163.66 762.431)"/><path d="M0 0 10.0052 0 10.0052 89.2453 6.28867e-08 89.2453Z" fill="#0EBFE3" transform="matrix(-0.962349 -0.271816 -0.271545 0.963308 1640.5 1545.01)"/><path d="M1598.94 1063.63 1607.67 1068.53 1582.32 1113.63 1573.6 1108.73Z" fill="#0EBFE3" fill-rule="evenodd" transform="matrix(1 0 0 1.001 -163.66 762.431)"/><path d="M0 0 10.0071 0 10.0071 51.7438-2.23871e-07 51.7438Z" fill="#0EBFE3" transform="matrix(-0.871542 0.490321 0.489833 0.87241 1632.63 1827.12)"/><path d="M1570.19 963.905 1824.43 963.905 1824.43 973.683 1570.19 973.683Z" fill="#0EBFE3" transform="matrix(1 0 0 1.001 -163.66 762.431)"/><path d="M1543.99 812.334 1557.96 812.334C1562.01 812.334 1565.3 815.617 1565.3 819.668L1565.3 824.607C1565.3 825.927 1564.22 827.002 1562.9 827.002L1539.06 827.002C1537.74 827.002 1536.66 825.927 1536.66 824.607L1536.66 819.668C1536.66 815.617 1539.94 812.334 1543.99 812.334Z" fill="#0EBFE3" fill-rule="evenodd" transform="matrix(1 0 0 1.001 -163.66 762.431)"/><path d="M1836.66 812.334 1851.33 812.334C1855.38 812.334 1858.66 815.617 1858.66 819.668L1858.66 824.607C1858.66 825.927 1857.58 827.002 1856.26 827.002L1831.72 827.002C1830.4 827.002 1829.32 825.927 1829.32 824.607L1829.32 819.668C1829.32 815.617 1832.61 812.334 1836.66 812.334Z" fill="#0EBFE3" fill-rule="evenodd" transform="matrix(1 0 0 1.001 -163.66 762.431)"/></g></g></g></g><path d="M1267.08-4.00014 1267.08 2474.65 1245.69 2474.65 1245.69-4.00013ZM1224.31-4.00013 1224.31 2474.65 1202.92 2474.65 1202.92-4.00013Z" fill="#F7C40A"/><path d="M1799.5-3.49993 1799.5 2475.15" stroke="#FFFFFF" stroke-width="22.9167" stroke-miterlimit="8" stroke-dasharray="183.333 68.75" fill="none" fill-rule="evenodd"/><g clip-path="url(#clip5)"><g clip-path="url(#clip6)"><g clip-path="url(#clip7)"><g clip-path="url(#clip8)"><path d="M2443.38-106.838 2671.82-106.838C2707.27-106.838 2736-78.1004 2736-42.6515L2736 897.162 2379.19 897.162 2379.19-42.6515C2379.19-78.1004 2407.93-106.838 2443.38-106.838Z" fill="#FE8B00" fill-rule="evenodd" transform="matrix(1.00078 0 0 1 -484.101 254.838)"/><path d="M2653.13-59.24C2653.13-71.1545 2662.79-80.8131 2674.71-80.8131L2685.67-80.8131C2697.58-80.8131 2707.24-71.1545 2707.24-59.24L2707.24-59.24C2707.24-47.3256 2697.58-37.667 2685.67-37.667L2674.71-37.6671C2662.79-37.6671 2653.13-47.3256 2653.13-59.2401Z" fill="#FCF1B5" fill-rule="evenodd" transform="matrix(1.00078 0 0 1 -484.101 254.838)"/><path d="M2407.96-59.24C2407.96-71.1545 2417.61-80.8131 2429.53-80.8131L2440.49-80.8131C2452.4-80.8131 2462.06-71.1545 2462.06-59.24L2462.06-59.24C2462.06-47.3256 2452.4-37.667 2440.49-37.667L2429.53-37.6671C2417.61-37.6671 2407.96-47.3256 2407.96-59.2401Z" fill="#FCF1B5" fill-rule="evenodd" transform="matrix(1.00078 0 0 1 -484.101 254.838)"/><path d="M2467.54 877.986 2647.66 877.986 2647.66 897.162 2467.54 897.162Z" fill="#262626" transform="matrix(1.00078 0 0 1 -484.101 254.838)"/><path d="M2408.64 877.986 2467.54 877.986 2467.54 897.162 2408.64 897.162Z" fill="#C00000" transform="matrix(1.00078 0 0 1 -484.101 254.838)"/><path d="M2647.66 877.986 2706.55 877.986 2706.55 897.162 2647.66 897.162Z" fill="#C00000" transform="matrix(1.00078 0 0 1 -484.101 254.838)"/><path d="M2455.85-82.1828 2659.4-82.1828C2694.55-82.1828 2723.05-53.6852 2723.05-18.5317L2723.05 877.986 2392.2 877.986 2392.2-18.5317C2392.2-53.6852 2420.7-82.1828 2455.85-82.1828Z" fill="#F7C40A" fill-rule="evenodd" transform="matrix(1.00078 0 0 1 -484.101 254.838)"/><path d="M2499.52-82.1828 2615.67-82.1828C2645.06-82.1828 2668.89-58.3572 2668.89-28.9669L2668.89 71.9099 2446.31 71.9099 2446.31-28.9669C2446.31-58.3572 2470.13-82.1828 2499.52-82.1828Z" fill="#F9E707" fill-rule="evenodd" transform="matrix(1.00078 0 0 1 -484.101 254.838)"/><path d="M2442.46 35.6125 2672.74 35.6125C2700.49 35.6125 2722.99 58.113 2722.99 85.8687L2722.99 198.608 2392.2 198.608 2392.2 85.8687C2392.2 58.113 2414.7 35.6125 2442.46 35.6125Z" fill="#262626" fill-rule="evenodd" transform="matrix(1.00078 0 0 1 -484.101 254.838)"/><path d="M2413.83 39.1018 2423.96 34.0952 2470.25 127.752 2460.12 132.759Z" fill="#F7C40A" fill-rule="evenodd" transform="matrix(1.00078 0 0 1 -484.101 254.838)"/><path d="M0 0 11.3016 0 11.3016 104.487-3.7208e-07 104.487Z" fill="#F7C40A" transform="matrix(-0.897053 -0.443 -0.443347 0.89635 2219.38 293.94)"/><path d="M2471.78 120.535 2643.41 120.535C2664.29 120.535 2681.21 137.459 2681.21 158.337L2681.21 855.386 2433.98 855.386 2433.98 158.337C2433.98 137.459 2450.9 120.535 2471.78 120.535Z" fill="#F9E707" fill-rule="evenodd" transform="matrix(1.00078 0 0 1 -484.101 254.838)"/><path d="M2473.02 282.047C2473.02 272.276 2480.94 264.355 2490.71 264.355L2624.49 264.355C2634.25 264.355 2642.18 272.276 2642.18 282.047L2642.18 352.815C2642.18 362.586 2634.25 370.507 2624.49 370.507L2490.71 370.507C2480.94 370.507 2473.02 362.586 2473.02 352.815Z" fill="#FCF1B5" fill-rule="evenodd" transform="matrix(1.00078 0 0 1 -484.101 254.838)"/><path d="M2510.68 299.625C2510.68 296.031 2513.59 293.119 2517.19 293.119L2598 293.119C2601.6 293.119 2604.51 296.031 2604.51 299.625L2604.51 299.625C2604.51 303.218 2601.6 306.131 2598 306.131L2517.19 306.131C2513.59 306.131 2510.68 303.218 2510.68 299.625Z" fill="#F7C40A" fill-rule="evenodd" transform="matrix(1.00078 0 0 1 -484.101 254.838)"/><path d="M2358.99 71.9099 2362.41 71.9099C2370.54 71.9099 2377.14 78.5024 2377.14 86.6344L2377.14 96.5511C2377.14 99.2063 2374.99 101.359 2372.33 101.359L2349.07 101.359C2346.41 101.359 2344.26 99.2063 2344.26 96.5511L2344.26 86.6344C2344.26 78.5024 2350.86 71.9099 2358.99 71.9099Z" fill="#F7C40A" fill-rule="evenodd" transform="matrix(1.00078 0 0 1 -484.101 254.838)"/><path d="M2752.78 71.9099 2756.21 71.9099C2764.33 71.9099 2770.93 78.5024 2770.93 86.6344L2770.93 96.5511C2770.93 99.2063 2768.78 101.359 2766.12 101.359L2742.86 101.359C2740.21 101.359 2738.06 99.2063 2738.06 96.5511L2738.06 86.6344C2738.06 78.5024 2744.65 71.9099 2752.78 71.9099Z" fill="#F7C40A" fill-rule="evenodd" transform="matrix(1.00078 0 0 1 -484.101 254.838)"/></g></g></g></g><g><g><g><g><path d="M1641.31 620.95 1754.01 620.95C1800.62 620.95 1838.4 658.733 1838.4 705.341L1838.4 1140.12C1838.4 1181.68 1804.72 1215.36 1763.17 1215.36L1632.15 1215.36C1590.6 1215.36 1556.92 1181.68 1556.92 1140.12L1556.92 705.341C1556.92 658.733 1594.7 620.95 1641.31 620.95Z" fill="#0991BF" fill-rule="evenodd" transform="matrix(1 0 0 1.001 378.34 762.431)"/><path d="M0 11.9275C0 5.3401 5.3401-4.60623e-15 11.9275-6.14164e-15L36.3128 0C42.9002-1.53541e-15 48.2402 5.3401 48.2402 11.9275L48.2402 11.9275C48.2402 18.5148 42.9002 23.8549 36.3128 23.8549L11.9275 23.8549C5.3401 23.8549-1.5354e-15 18.5148 0 11.9275Z" fill="#C00000" fill-rule="evenodd" transform="matrix(0.908435 0.418026 0.41761 -0.90934 1960.51 1947.77)"/><path d="M1808.08 1173.32C1810.83 1179.3 1808.21 1186.39 1802.22 1189.14L1780.07 1199.32C1774.09 1202.07 1767.01 1199.45 1764.25 1193.47L1764.25 1193.47C1761.5 1187.48 1764.13 1180.4 1770.11 1177.65L1792.26 1167.46C1798.25 1164.71 1805.32 1167.34 1808.08 1173.32Z" fill="#C00000" fill-rule="evenodd" transform="matrix(1 0 0 1.001 378.34 762.431)"/><path d="M1583 690.078C1577.88 686.807 1576.38 679.997 1579.64 674.869L1582.61 670.222C1585.88 665.094 1592.69 663.588 1597.82 666.86L1597.82 666.86C1602.95 670.131 1604.45 676.941 1601.18 682.069L1598.22 686.716C1594.94 691.844 1588.13 693.349 1583 690.078Z" fill="#FE8B00" fill-rule="evenodd" transform="matrix(1 0 0 1.001 378.34 762.431)"/><path d="M1587.13 677.58C1584.37 671.596 1586.99 664.515 1592.98 661.764L1615.13 651.58C1621.11 648.83 1628.2 651.45 1630.95 657.435L1630.95 657.435C1633.7 663.419 1631.07 670.5 1625.09 673.251L1602.94 683.434C1596.95 686.186 1589.87 683.564 1587.13 677.58Z" fill="#FCF1B5" fill-rule="evenodd" transform="matrix(1 0 0 1.001 378.34 762.431)"/><path d="M0 11.0169C-1.7536e-15 4.93243 4.93243-1.7536e-15 11.0169-3.50721e-15L16.5309 0C22.6154-3.50721e-15 27.5478 4.93243 27.5478 11.0169L27.5478 11.0169C27.5478 17.1014 22.6154 22.0338 16.5309 22.0338L11.0169 22.0338C4.93243 22.0338 0 17.1014 0 11.0169Z" fill="#FE8B00" fill-rule="evenodd" transform="matrix(-0.537661 -0.843659 -0.84282 0.538197 2199.85 1447.27)"/><path d="M0 11.9275C0 5.3401 5.3401-4.60623e-15 11.9275-6.14164e-15L36.3128 0C42.9002-1.53541e-15 48.2402 5.3401 48.2402 11.9275L48.2402 11.9275C48.2402 18.5148 42.9002 23.8549 36.3128 23.8549L11.9275 23.8549C5.3401 23.8549-1.5354e-15 18.5148 0 11.9275Z" fill="#FCF1B5" fill-rule="evenodd" transform="matrix(-0.908435 -0.418026 -0.41761 0.90934 2191.42 1429.84)"/><path d="M1570.89 729.285C1570.89 684.112 1607.51 647.493 1652.68 647.493L1741.94 647.493C1787.11 647.493 1823.74 684.112 1823.74 729.285L1823.74 1116.8C1823.74 1161.97 1787.11 1198.59 1741.94 1198.59L1652.68 1198.59C1607.51 1198.59 1570.89 1161.97 1570.89 1116.8Z" fill="#0EBFE3" fill-rule="evenodd" transform="matrix(1 0 0 1.001 378.34 762.431)"/><path d="M1649.06 769.727 1746.26 769.727C1789.43 769.727 1824.43 804.728 1824.43 847.901L1824.43 1078.66C1824.43 1109.8 1799.2 1135.03 1768.06 1135.03L1627.26 1135.03C1596.12 1135.03 1570.89 1109.8 1570.89 1078.66L1570.89 847.901C1570.89 804.728 1605.89 769.727 1649.06 769.727Z" fill="#262626" fill-rule="evenodd" transform="matrix(1 0 0 1.001 378.34 762.431)"/><path d="M1658.16 844.464 1737.16 844.464C1772.24 844.464 1800.69 872.907 1800.69 907.991L1800.69 1047.61C1800.69 1066.19 1785.63 1081.25 1767.05 1081.25L1628.27 1081.25C1609.69 1081.25 1594.63 1066.19 1594.63 1047.61L1594.63 907.991C1594.63 872.907 1623.08 844.464 1658.16 844.464Z" fill="#0EBFE3" fill-rule="evenodd" transform="matrix(1 0 0 1.001 378.34 762.431)"/><path d="M1591.06 781.804 1600.7 779.087 1624.93 864.972 1615.3 867.689Z" fill="#0EBFE3" fill-rule="evenodd" transform="matrix(1 0 0 1.001 378.34 762.431)"/><path d="M0 0 10.0052 0 10.0052 89.2453 6.28867e-08 89.2453Z" fill="#0EBFE3" transform="matrix(-0.962349 -0.271816 -0.271545 0.963308 2182.5 1545.01)"/><path d="M1598.94 1063.63 1607.67 1068.53 1582.32 1113.63 1573.6 1108.73Z" fill="#0EBFE3" fill-rule="evenodd" transform="matrix(1 0 0 1.001 378.34 762.431)"/><path d="M0 0 10.0071 0 10.0071 51.7438-2.23871e-07 51.7438Z" fill="#0EBFE3" transform="matrix(-0.871542 0.490321 0.489833 0.87241 2174.63 1827.12)"/><path d="M1570.19 963.905 1824.43 963.905 1824.43 973.683 1570.19 973.683Z" fill="#0EBFE3" transform="matrix(1 0 0 1.001 378.34 762.431)"/><path d="M1543.99 812.334 1557.96 812.334C1562.01 812.334 1565.3 815.617 1565.3 819.668L1565.3 824.607C1565.3 825.927 1564.22 827.002 1562.9 827.002L1539.06 827.002C1537.74 827.002 1536.66 825.927 1536.66 824.607L1536.66 819.668C1536.66 815.617 1539.94 812.334 1543.99 812.334Z" fill="#0EBFE3" fill-rule="evenodd" transform="matrix(1 0 0 1.001 378.34 762.431)"/><path d="M1836.66 812.334 1851.33 812.334C1855.38 812.334 1858.66 815.617 1858.66 819.668L1858.66 824.607C1858.66 825.927 1857.58 827.002 1856.26 827.002L1831.72 827.002C1830.4 827.002 1829.32 825.927 1829.32 824.607L1829.32 819.668C1829.32 815.617 1832.61 812.334 1836.66 812.334Z" fill="#0EBFE3" fill-rule="evenodd" transform="matrix(1 0 0 1.001 378.34 762.431)"/></g></g></g></g><path d="M2118.88 2276.16 2180 2276.16 2180 2284.75 2162.27 2284.75 2162.27 2322.93C2162.27 2328.06 2161.17 2331.75 2158.97 2333.98 2156.76 2336.22 2153.06 2337.41 2147.84 2337.56L2144.43 2337.56C2139.95 2337.56 2136.06 2337.38 2132.76 2337.01L2130.88 2327.99C2136.24 2328.72 2141.13 2329.09 2145.53 2329.09 2148.47 2329.09 2150.45 2328.48 2151.48 2327.27 2152.51 2326.06 2153.02 2323.77 2153.02 2320.4L2153.02 2284.75 2118.88 2284.75ZM1970.32 2274.51 1992.9 2274.51 1992.9 2318.96 2005.89 2307.41 2009.42 2315.66C2002.37 2321.31 1996.38 2326.48 1991.47 2331.18L1986.51 2336.02 1981.11 2329.2C1982.29 2328.24 1983.11 2327.29 1983.59 2326.34 1984.07 2325.38 1984.31 2324.06 1984.31 2322.38L1984.31 2283.09 1970.32 2283.09ZM2107.98 2266.59 2114.92 2271.98C2112.2 2276.09 2108.64 2280.75 2104.23 2285.96L2104.23 2338 2095.42 2338 2095.42 2295.53C2091.46 2299.64 2087.13 2303.74 2082.43 2307.85L2078.68 2299.49C2083.97 2294.87 2089.29 2289.55 2094.65 2283.53 2100.01 2277.52 2104.45 2271.87 2107.98 2266.59ZM2123.18 2244.69 2175.37 2244.69 2175.37 2253.28 2123.18 2253.28ZM1983.98 2239.74C1985.96 2242.02 1988.66 2245.23 1992.07 2249.37 1995.48 2253.51 1998.55 2257.31 2001.27 2260.76L1994.44 2266.59C1988.42 2258.81 1982.73 2251.74 1977.37 2245.35ZM2107.98 2238.53 2114.81 2244.47C2111.14 2249.09 2106.55 2254.08 2101.04 2259.44 2095.53 2264.79 2090.32 2269.34 2085.4 2273.08L2080.67 2264.94C2084.93 2261.86 2089.66 2257.79 2094.87 2252.73 2100.09 2247.66 2104.45 2242.93 2107.98 2238.53ZM2028.58 2238.31 2037.5 2238.31 2037.5 2269.56 2065.91 2269.56 2065.91 2278.25 2037.5 2278.25 2037.5 2326.12 2070.54 2326.12 2070.54 2334.37 2002.7 2334.37 2002.7 2326.12 2028.58 2326.12ZM2008.76 2174 2056.88 2174 2056.88 2181.48 2038.71 2181.48 2038.71 2195.24C2038.71 2199.56 2037.81 2202.64 2036.01 2204.48 2034.21 2206.31 2030.96 2207.23 2026.27 2207.23 2022.96 2207.23 2018.92 2206.97 2014.15 2206.46L2012.61 2198.32C2017.9 2199.05 2021.9 2199.42 2024.61 2199.42 2026.74 2199.42 2028.23 2198.88 2029.07 2197.82 2029.92 2196.76 2030.34 2195.12 2030.34 2192.92L2030.34 2181.48 2008.76 2181.48ZM1998.4 2157.82 2067.45 2157.82 2067.45 2176.97 2059.19 2176.97 2059.19 2165.42 2006.55 2165.42 2006.55 2176.86 1998.4 2176.86ZM2014.7 2138.02 2014.7 2145.28 2051.48 2145.28 2051.48 2138.02ZM2006.44 2131.75 2059.74 2131.75 2059.74 2151.33 2006.44 2151.33ZM1990.25 2107.65 1998.73 2109.41C1995.94 2118.51 1993.23 2126.39 1990.58 2133.07L1990.58 2207.34 1982.44 2207.34 1982.44 2150.45C1979.5 2155.73 1976.53 2160.36 1973.52 2164.32L1969 2155.73C1972.89 2150.09 1976.75 2142.99 1980.56 2134.44 1984.38 2125.9 1987.61 2116.97 1990.25 2107.65ZM2033.42 2106.55C2034.45 2109.12 2035.81 2112.9 2037.5 2117.88L2068 2117.88 2068 2125.48 2000.39 2125.48 2000.39 2117.88 2028.03 2117.88C2026.56 2113.92 2025.46 2111.06 2024.72 2109.3ZM2118.66 2106 2128.13 2108.53C2126.52 2112.79 2124.5 2117.48 2122.07 2122.61L2175.37 2122.61 2175.37 2130.87 2118.11 2130.87C2113.19 2140.84 2108.71 2148.88 2104.67 2154.96L2127.91 2154.96 2127.91 2137.36 2136.61 2137.36 2136.61 2154.96 2169.65 2154.96 2169.65 2163.11 2136.61 2163.11 2136.61 2180.49 2177.8 2180.49 2177.8 2188.96 2136.61 2188.96 2136.61 2208.55 2127.91 2208.55 2127.91 2188.96 2082.43 2188.96 2082.43 2180.49 2127.91 2180.49 2127.91 2163.11 2093.66 2163.11 2093.66 2154.96C2097.85 2149.1 2102.51 2141.06 2107.65 2130.87L2085.07 2130.87 2085.07 2122.61 2111.61 2122.61C2114.99 2115.43 2117.34 2109.89 2118.66 2106Z" fill="#FFFFFF" fill-rule="evenodd"/><path d="M1575.88 2276.16 1637 2276.16 1637 2284.75 1619.27 2284.75 1619.27 2322.93C1619.27 2328.06 1618.17 2331.75 1615.97 2333.98 1613.76 2336.22 1610.06 2337.41 1604.84 2337.56L1601.43 2337.56C1596.95 2337.56 1593.06 2337.38 1589.76 2337.01L1587.88 2327.99C1593.24 2328.72 1598.13 2329.09 1602.53 2329.09 1605.47 2329.09 1607.45 2328.48 1608.48 2327.27 1609.51 2326.06 1610.02 2323.77 1610.02 2320.4L1610.02 2284.75 1575.88 2284.75ZM1427.32 2274.51 1449.9 2274.51 1449.9 2318.96 1462.89 2307.41 1466.42 2315.66C1459.37 2321.31 1453.38 2326.48 1448.47 2331.18L1443.51 2336.02 1438.11 2329.2C1439.29 2328.24 1440.11 2327.29 1440.59 2326.34 1441.07 2325.38 1441.31 2324.06 1441.31 2322.38L1441.31 2283.09 1427.32 2283.09ZM1564.98 2266.59 1571.92 2271.98C1569.2 2276.09 1565.64 2280.75 1561.23 2285.96L1561.23 2338 1552.42 2338 1552.42 2295.53C1548.46 2299.64 1544.13 2303.74 1539.43 2307.85L1535.68 2299.49C1540.97 2294.87 1546.29 2289.55 1551.65 2283.53 1557.01 2277.52 1561.45 2271.87 1564.98 2266.59ZM1580.18 2244.69 1632.37 2244.69 1632.37 2253.28 1580.18 2253.28ZM1440.98 2239.74C1442.96 2242.02 1445.66 2245.23 1449.07 2249.37 1452.48 2253.51 1455.55 2257.31 1458.27 2260.76L1451.44 2266.59C1445.42 2258.81 1439.73 2251.74 1434.37 2245.35ZM1564.98 2238.53 1571.81 2244.47C1568.13 2249.09 1563.55 2254.08 1558.04 2259.44 1552.53 2264.79 1547.32 2269.34 1542.4 2273.08L1537.67 2264.94C1541.93 2261.86 1546.66 2257.79 1551.87 2252.73 1557.09 2247.66 1561.45 2242.93 1564.98 2238.53ZM1485.58 2238.31 1494.5 2238.31 1494.5 2269.56 1522.91 2269.56 1522.91 2278.25 1494.5 2278.25 1494.5 2326.12 1527.54 2326.12 1527.54 2334.37 1459.7 2334.37 1459.7 2326.12 1485.58 2326.12ZM1465.76 2174 1513.88 2174 1513.88 2181.48 1495.71 2181.48 1495.71 2195.24C1495.71 2199.56 1494.81 2202.64 1493.01 2204.48 1491.21 2206.31 1487.96 2207.23 1483.27 2207.23 1479.96 2207.23 1475.92 2206.97 1471.15 2206.46L1469.61 2198.32C1474.9 2199.05 1478.9 2199.42 1481.61 2199.42 1483.74 2199.42 1485.23 2198.88 1486.07 2197.82 1486.92 2196.76 1487.34 2195.12 1487.34 2192.92L1487.34 2181.48 1465.76 2181.48ZM1455.4 2157.82 1524.45 2157.82 1524.45 2176.97 1516.19 2176.97 1516.19 2165.42 1463.55 2165.42 1463.55 2176.86 1455.4 2176.86ZM1471.7 2138.02 1471.7 2145.28 1508.48 2145.28 1508.48 2138.02ZM1463.44 2131.75 1516.74 2131.75 1516.74 2151.33 1463.44 2151.33ZM1447.25 2107.65 1455.73 2109.41C1452.94 2118.51 1450.23 2126.39 1447.58 2133.07L1447.58 2207.34 1439.43 2207.34 1439.43 2150.45C1436.5 2155.73 1433.53 2160.36 1430.51 2164.32L1426 2155.73C1429.89 2150.09 1433.75 2142.99 1437.56 2134.44 1441.38 2125.9 1444.61 2116.97 1447.25 2107.65ZM1490.42 2106.55C1491.45 2109.12 1492.81 2112.9 1494.5 2117.88L1525 2117.88 1525 2125.48 1457.39 2125.48 1457.39 2117.88 1485.03 2117.88C1483.56 2113.92 1482.46 2111.06 1481.72 2109.3ZM1575.66 2106 1585.13 2108.53C1583.52 2112.79 1581.5 2117.48 1579.07 2122.61L1632.37 2122.61 1632.37 2130.87 1575.11 2130.87C1570.19 2140.84 1565.71 2148.88 1561.67 2154.96L1584.91 2154.96 1584.91 2137.36 1593.61 2137.36 1593.61 2154.96 1626.65 2154.96 1626.65 2163.11 1593.61 2163.11 1593.61 2180.49 1634.8 2180.49 1634.8 2188.96 1593.61 2188.96 1593.61 2208.55 1584.91 2208.55 1584.91 2188.96 1539.43 2188.96 1539.43 2180.49 1584.91 2180.49 1584.91 2163.11 1550.66 2163.11 1550.66 2154.96C1554.85 2149.1 1559.51 2141.06 1564.65 2130.87L1542.07 2130.87 1542.07 2122.61 1568.61 2122.61C1571.99 2115.43 1574.34 2109.89 1575.66 2106Z" fill="#FFFFFF" fill-rule="evenodd"/><rect x="2489" y="-4.00013" width="1911" height="2479" fill="#3A3A3A"/><path d="M2808.08-4.00014 2808.08 2474.65 2786.7 2474.65 2786.69-4.00013ZM2765.31-4.00013 2765.31 2474.65 2743.92 2474.65 2743.92-4.00013Z" fill="#F7C40A"/><path d="M3341.5-3.49993 3341.5 2475.15" stroke="#FFFFFF" stroke-width="22.9167" stroke-miterlimit="8" stroke-dasharray="183.333 68.75" fill="none" fill-rule="evenodd"/><g clip-path="url(#clip9)"><g clip-path="url(#clip10)"><g clip-path="url(#clip11)"><g clip-path="url(#clip12)"><path d="M2443.38-106.838 2671.82-106.838C2707.27-106.838 2736-78.1004 2736-42.6515L2736 897.162 2379.19 897.162 2379.19-42.6515C2379.19-78.1004 2407.93-106.838 2443.38-106.838Z" fill="#FE8B00" fill-rule="evenodd" transform="matrix(1.00078 0 0 1 1600.9 254.838)"/><path d="M2653.13-59.24C2653.13-71.1545 2662.79-80.8131 2674.71-80.8131L2685.67-80.8131C2697.58-80.8131 2707.24-71.1545 2707.24-59.24L2707.24-59.24C2707.24-47.3256 2697.58-37.667 2685.67-37.667L2674.71-37.6671C2662.79-37.6671 2653.13-47.3256 2653.13-59.2401Z" fill="#FCF1B5" fill-rule="evenodd" transform="matrix(1.00078 0 0 1 1600.9 254.838)"/><path d="M2407.96-59.24C2407.96-71.1545 2417.61-80.8131 2429.53-80.8131L2440.49-80.8131C2452.4-80.8131 2462.06-71.1545 2462.06-59.24L2462.06-59.24C2462.06-47.3256 2452.4-37.667 2440.49-37.667L2429.53-37.6671C2417.61-37.6671 2407.96-47.3256 2407.96-59.2401Z" fill="#FCF1B5" fill-rule="evenodd" transform="matrix(1.00078 0 0 1 1600.9 254.838)"/><path d="M2467.54 877.986 2647.66 877.986 2647.66 897.162 2467.54 897.162Z" fill="#262626" transform="matrix(1.00078 0 0 1 1600.9 254.838)"/><path d="M2408.64 877.986 2467.54 877.986 2467.54 897.162 2408.64 897.162Z" fill="#C00000" transform="matrix(1.00078 0 0 1 1600.9 254.838)"/><path d="M2647.66 877.986 2706.55 877.986 2706.55 897.162 2647.66 897.162Z" fill="#C00000" transform="matrix(1.00078 0 0 1 1600.9 254.838)"/><path d="M2455.85-82.1828 2659.4-82.1828C2694.55-82.1828 2723.05-53.6852 2723.05-18.5317L2723.05 877.986 2392.2 877.986 2392.2-18.5317C2392.2-53.6852 2420.7-82.1828 2455.85-82.1828Z" fill="#F7C40A" fill-rule="evenodd" transform="matrix(1.00078 0 0 1 1600.9 254.838)"/><path d="M2499.52-82.1828 2615.67-82.1828C2645.06-82.1828 2668.89-58.3572 2668.89-28.9669L2668.89 71.9099 2446.31 71.9099 2446.31-28.9669C2446.31-58.3572 2470.13-82.1828 2499.52-82.1828Z" fill="#F9E707" fill-rule="evenodd" transform="matrix(1.00078 0 0 1 1600.9 254.838)"/><path d="M2442.46 35.6125 2672.74 35.6125C2700.49 35.6125 2722.99 58.113 2722.99 85.8687L2722.99 198.608 2392.2 198.608 2392.2 85.8687C2392.2 58.113 2414.7 35.6125 2442.46 35.6125Z" fill="#262626" fill-rule="evenodd" transform="matrix(1.00078 0 0 1 1600.9 254.838)"/><path d="M2413.83 39.1018 2423.96 34.0952 2470.25 127.752 2460.12 132.759Z" fill="#F7C40A" fill-rule="evenodd" transform="matrix(1.00078 0 0 1 1600.9 254.838)"/><path d="M0 0 11.3016 0 11.3016 104.487-3.7208e-07 104.487Z" fill="#F7C40A" transform="matrix(-0.897053 -0.443 -0.443347 0.89635 4304.38 293.94)"/><path d="M2471.78 120.535 2643.41 120.535C2664.29 120.535 2681.21 137.459 2681.21 158.337L2681.21 855.386 2433.98 855.386 2433.98 158.337C2433.98 137.459 2450.9 120.535 2471.78 120.535Z" fill="#F9E707" fill-rule="evenodd" transform="matrix(1.00078 0 0 1 1600.9 254.838)"/><path d="M2473.02 282.047C2473.02 272.276 2480.94 264.355 2490.71 264.355L2624.49 264.355C2634.25 264.355 2642.18 272.276 2642.18 282.047L2642.18 352.815C2642.18 362.586 2634.25 370.507 2624.49 370.507L2490.71 370.507C2480.94 370.507 2473.02 362.586 2473.02 352.815Z" fill="#FCF1B5" fill-rule="evenodd" transform="matrix(1.00078 0 0 1 1600.9 254.838)"/><path d="M2510.68 299.625C2510.68 296.031 2513.59 293.119 2517.19 293.119L2598 293.119C2601.6 293.119 2604.51 296.031 2604.51 299.625L2604.51 299.625C2604.51 303.218 2601.6 306.131 2598 306.131L2517.19 306.131C2513.59 306.131 2510.68 303.218 2510.68 299.625Z" fill="#F7C40A" fill-rule="evenodd" transform="matrix(1.00078 0 0 1 1600.9 254.838)"/><path d="M2358.99 71.9099 2362.41 71.9099C2370.54 71.9099 2377.14 78.5024 2377.14 86.6344L2377.14 96.5511C2377.14 99.2063 2374.99 101.359 2372.33 101.359L2349.07 101.359C2346.41 101.359 2344.26 99.2063 2344.26 96.5511L2344.26 86.6344C2344.26 78.5024 2350.86 71.9099 2358.99 71.9099Z" fill="#F7C40A" fill-rule="evenodd" transform="matrix(1.00078 0 0 1 1600.9 254.838)"/><path d="M2752.78 71.9099 2756.21 71.9099C2764.33 71.9099 2770.93 78.5024 2770.93 86.6344L2770.93 96.5511C2770.93 99.2063 2768.78 101.359 2766.12 101.359L2742.86 101.359C2740.21 101.359 2738.06 99.2063 2738.06 96.5511L2738.06 86.6344C2738.06 78.5024 2744.65 71.9099 2752.78 71.9099Z" fill="#F7C40A" fill-rule="evenodd" transform="matrix(1.00078 0 0 1 1600.9 254.838)"/></g></g></g></g><g><g><g><g><path d="M1641.31 620.95 1754.01 620.95C1800.62 620.95 1838.4 658.733 1838.4 705.341L1838.4 1140.12C1838.4 1181.68 1804.72 1215.36 1763.17 1215.36L1632.15 1215.36C1590.6 1215.36 1556.92 1181.68 1556.92 1140.12L1556.92 705.341C1556.92 658.733 1594.7 620.95 1641.31 620.95Z" fill="#0991BF" fill-rule="evenodd" transform="matrix(1 0 0 1.001 1925.34 762.431)"/><path d="M0 11.9275C0 5.3401 5.3401-4.60623e-15 11.9275-6.14164e-15L36.3128 0C42.9002-1.53541e-15 48.2402 5.3401 48.2402 11.9275L48.2402 11.9275C48.2402 18.5148 42.9002 23.8549 36.3128 23.8549L11.9275 23.8549C5.3401 23.8549-1.5354e-15 18.5148 0 11.9275Z" fill="#C00000" fill-rule="evenodd" transform="matrix(0.908435 0.418026 0.41761 -0.90934 3507.51 1947.77)"/><path d="M1808.08 1173.32C1810.83 1179.3 1808.21 1186.39 1802.22 1189.14L1780.07 1199.32C1774.09 1202.07 1767.01 1199.45 1764.25 1193.47L1764.25 1193.47C1761.5 1187.48 1764.13 1180.4 1770.11 1177.65L1792.26 1167.46C1798.25 1164.71 1805.32 1167.34 1808.08 1173.32Z" fill="#C00000" fill-rule="evenodd" transform="matrix(1 0 0 1.001 1925.34 762.431)"/><path d="M1583 690.078C1577.88 686.807 1576.38 679.997 1579.64 674.869L1582.61 670.222C1585.88 665.094 1592.69 663.588 1597.82 666.86L1597.82 666.86C1602.95 670.131 1604.45 676.941 1601.18 682.069L1598.22 686.716C1594.94 691.844 1588.13 693.349 1583 690.078Z" fill="#FE8B00" fill-rule="evenodd" transform="matrix(1 0 0 1.001 1925.34 762.431)"/><path d="M1587.13 677.58C1584.37 671.596 1586.99 664.515 1592.98 661.764L1615.13 651.58C1621.11 648.83 1628.2 651.45 1630.95 657.435L1630.95 657.435C1633.7 663.419 1631.07 670.5 1625.09 673.251L1602.94 683.434C1596.95 686.186 1589.87 683.564 1587.13 677.58Z" fill="#FCF1B5" fill-rule="evenodd" transform="matrix(1 0 0 1.001 1925.34 762.431)"/><path d="M0 11.0169C-1.7536e-15 4.93243 4.93243-1.7536e-15 11.0169-3.50721e-15L16.5309 0C22.6154-3.50721e-15 27.5478 4.93243 27.5478 11.0169L27.5478 11.0169C27.5478 17.1014 22.6154 22.0338 16.5309 22.0338L11.0169 22.0338C4.93243 22.0338 0 17.1014 0 11.0169Z" fill="#FE8B00" fill-rule="evenodd" transform="matrix(-0.537661 -0.843659 -0.84282 0.538197 3746.85 1447.27)"/><path d="M0 11.9275C0 5.3401 5.3401-4.60623e-15 11.9275-6.14164e-15L36.3128 0C42.9002-1.53541e-15 48.2402 5.3401 48.2402 11.9275L48.2402 11.9275C48.2402 18.5148 42.9002 23.8549 36.3128 23.8549L11.9275 23.8549C5.3401 23.8549-1.5354e-15 18.5148 0 11.9275Z" fill="#FCF1B5" fill-rule="evenodd" transform="matrix(-0.908435 -0.418026 -0.41761 0.90934 3738.42 1429.84)"/><path d="M1570.89 729.285C1570.89 684.112 1607.51 647.493 1652.68 647.493L1741.94 647.493C1787.11 647.493 1823.74 684.112 1823.74 729.285L1823.74 1116.8C1823.74 1161.97 1787.11 1198.59 1741.94 1198.59L1652.68 1198.59C1607.51 1198.59 1570.89 1161.97 1570.89 1116.8Z" fill="#0EBFE3" fill-rule="evenodd" transform="matrix(1 0 0 1.001 1925.34 762.431)"/><path d="M1649.06 769.727 1746.26 769.727C1789.43 769.727 1824.43 804.728 1824.43 847.901L1824.43 1078.66C1824.43 1109.8 1799.2 1135.03 1768.06 1135.03L1627.26 1135.03C1596.12 1135.03 1570.89 1109.8 1570.89 1078.66L1570.89 847.901C1570.89 804.728 1605.89 769.727 1649.06 769.727Z" fill="#262626" fill-rule="evenodd" transform="matrix(1 0 0 1.001 1925.34 762.431)"/><path d="M1658.16 844.464 1737.16 844.464C1772.24 844.464 1800.69 872.907 1800.69 907.991L1800.69 1047.61C1800.69 1066.19 1785.63 1081.25 1767.05 1081.25L1628.27 1081.25C1609.69 1081.25 1594.63 1066.19 1594.63 1047.61L1594.63 907.991C1594.63 872.907 1623.08 844.464 1658.16 844.464Z" fill="#0EBFE3" fill-rule="evenodd" transform="matrix(1 0 0 1.001 1925.34 762.431)"/><path d="M1591.06 781.804 1600.7 779.087 1624.93 864.972 1615.3 867.689Z" fill="#0EBFE3" fill-rule="evenodd" transform="matrix(1 0 0 1.001 1925.34 762.431)"/><path d="M0 0 10.0052 0 10.0052 89.2453 6.28867e-08 89.2453Z" fill="#0EBFE3" transform="matrix(-0.962349 -0.271816 -0.271545 0.963308 3729.5 1545.01)"/><path d="M1598.94 1063.63 1607.67 1068.53 1582.32 1113.63 1573.6 1108.73Z" fill="#0EBFE3" fill-rule="evenodd" transform="matrix(1 0 0 1.001 1925.34 762.431)"/><path d="M0 0 10.0071 0 10.0071 51.7438-2.23871e-07 51.7438Z" fill="#0EBFE3" transform="matrix(-0.871542 0.490321 0.489833 0.87241 3721.63 1827.12)"/><path d="M1570.19 963.905 1824.43 963.905 1824.43 973.683 1570.19 973.683Z" fill="#0EBFE3" transform="matrix(1 0 0 1.001 1925.34 762.431)"/><path d="M1543.99 812.334 1557.96 812.334C1562.01 812.334 1565.3 815.617 1565.3 819.668L1565.3 824.607C1565.3 825.927 1564.22 827.002 1562.9 827.002L1539.06 827.002C1537.74 827.002 1536.66 825.927 1536.66 824.607L1536.66 819.668C1536.66 815.617 1539.94 812.334 1543.99 812.334Z" fill="#0EBFE3" fill-rule="evenodd" transform="matrix(1 0 0 1.001 1925.34 762.431)"/><path d="M1836.66 812.334 1851.33 812.334C1855.38 812.334 1858.66 815.617 1858.66 819.668L1858.66 824.607C1858.66 825.927 1857.58 827.002 1856.26 827.002L1831.72 827.002C1830.4 827.002 1829.32 825.927 1829.32 824.607L1829.32 819.668C1829.32 815.617 1832.61 812.334 1836.66 812.334Z" fill="#0EBFE3" fill-rule="evenodd" transform="matrix(1 0 0 1.001 1925.34 762.431)"/></g></g></g></g><path d="M3875.5-3.49993 3875.5 2475.15" stroke="#FFFFFF" stroke-width="22.9167" stroke-miterlimit="8" stroke-dasharray="183.333 68.75" fill="none" fill-rule="evenodd"/><g><g><g><g><path d="M1641.31 620.95 1754.01 620.95C1800.62 620.95 1838.4 658.733 1838.4 705.341L1838.4 1140.12C1838.4 1181.68 1804.72 1215.36 1763.17 1215.36L1632.15 1215.36C1590.6 1215.36 1556.92 1181.68 1556.92 1140.12L1556.92 705.341C1556.92 658.733 1594.7 620.95 1641.31 620.95Z" fill="#0991BF" fill-rule="evenodd" transform="matrix(1 0 0 1.001 2463.34 762.431)"/><path d="M0 11.9275C0 5.3401 5.3401-4.60623e-15 11.9275-6.14164e-15L36.3128 0C42.9002-1.53541e-15 48.2402 5.3401 48.2402 11.9275L48.2402 11.9275C48.2402 18.5148 42.9002 23.8549 36.3128 23.8549L11.9275 23.8549C5.3401 23.8549-1.5354e-15 18.5148 0 11.9275Z" fill="#C00000" fill-rule="evenodd" transform="matrix(0.908435 0.418026 0.41761 -0.90934 4045.51 1947.77)"/><path d="M1808.08 1173.32C1810.83 1179.3 1808.21 1186.39 1802.22 1189.14L1780.07 1199.32C1774.09 1202.07 1767.01 1199.45 1764.25 1193.47L1764.25 1193.47C1761.5 1187.48 1764.13 1180.4 1770.11 1177.65L1792.26 1167.46C1798.25 1164.71 1805.32 1167.34 1808.08 1173.32Z" fill="#C00000" fill-rule="evenodd" transform="matrix(1 0 0 1.001 2463.34 762.431)"/><path d="M1583 690.078C1577.88 686.807 1576.38 679.997 1579.64 674.869L1582.61 670.222C1585.88 665.094 1592.69 663.588 1597.82 666.86L1597.82 666.86C1602.95 670.131 1604.45 676.941 1601.18 682.069L1598.22 686.716C1594.94 691.844 1588.13 693.349 1583 690.078Z" fill="#FE8B00" fill-rule="evenodd" transform="matrix(1 0 0 1.001 2463.34 762.431)"/><path d="M1587.13 677.58C1584.37 671.596 1586.99 664.515 1592.98 661.764L1615.13 651.58C1621.11 648.83 1628.2 651.45 1630.95 657.435L1630.95 657.435C1633.7 663.419 1631.07 670.5 1625.09 673.251L1602.94 683.434C1596.95 686.186 1589.87 683.564 1587.13 677.58Z" fill="#FCF1B5" fill-rule="evenodd" transform="matrix(1 0 0 1.001 2463.34 762.431)"/><path d="M0 11.0169C-1.7536e-15 4.93243 4.93243-1.7536e-15 11.0169-3.50721e-15L16.5309 0C22.6154-3.50721e-15 27.5478 4.93243 27.5478 11.0169L27.5478 11.0169C27.5478 17.1014 22.6154 22.0338 16.5309 22.0338L11.0169 22.0338C4.93243 22.0338 0 17.1014 0 11.0169Z" fill="#FE8B00" fill-rule="evenodd" transform="matrix(-0.537661 -0.843659 -0.84282 0.538197 4284.85 1447.27)"/><path d="M0 11.9275C0 5.3401 5.3401-4.60623e-15 11.9275-6.14164e-15L36.3128 0C42.9002-1.53541e-15 48.2402 5.3401 48.2402 11.9275L48.2402 11.9275C48.2402 18.5148 42.9002 23.8549 36.3128 23.8549L11.9275 23.8549C5.3401 23.8549-1.5354e-15 18.5148 0 11.9275Z" fill="#FCF1B5" fill-rule="evenodd" transform="matrix(-0.908435 -0.418026 -0.41761 0.90934 4276.42 1429.84)"/><path d="M1570.89 729.285C1570.89 684.112 1607.51 647.493 1652.68 647.493L1741.94 647.493C1787.11 647.493 1823.74 684.112 1823.74 729.285L1823.74 1116.8C1823.74 1161.97 1787.11 1198.59 1741.94 1198.59L1652.68 1198.59C1607.51 1198.59 1570.89 1161.97 1570.89 1116.8Z" fill="#0EBFE3" fill-rule="evenodd" transform="matrix(1 0 0 1.001 2463.34 762.431)"/><path d="M1649.06 769.727 1746.26 769.727C1789.43 769.727 1824.43 804.728 1824.43 847.901L1824.43 1078.66C1824.43 1109.8 1799.2 1135.03 1768.06 1135.03L1627.26 1135.03C1596.12 1135.03 1570.89 1109.8 1570.89 1078.66L1570.89 847.901C1570.89 804.728 1605.89 769.727 1649.06 769.727Z" fill="#262626" fill-rule="evenodd" transform="matrix(1 0 0 1.001 2463.34 762.431)"/><path d="M1658.16 844.464 1737.16 844.464C1772.24 844.464 1800.69 872.907 1800.69 907.991L1800.69 1047.61C1800.69 1066.19 1785.63 1081.25 1767.05 1081.25L1628.27 1081.25C1609.69 1081.25 1594.63 1066.19 1594.63 1047.61L1594.63 907.991C1594.63 872.907 1623.08 844.464 1658.16 844.464Z" fill="#0EBFE3" fill-rule="evenodd" transform="matrix(1 0 0 1.001 2463.34 762.431)"/><path d="M1591.06 781.804 1600.7 779.087 1624.93 864.972 1615.3 867.689Z" fill="#0EBFE3" fill-rule="evenodd" transform="matrix(1 0 0 1.001 2463.34 762.431)"/><path d="M0 0 10.0052 0 10.0052 89.2453 6.28867e-08 89.2453Z" fill="#0EBFE3" transform="matrix(-0.962349 -0.271816 -0.271545 0.963308 4267.5 1545.01)"/><path d="M1598.94 1063.63 1607.67 1068.53 1582.32 1113.63 1573.6 1108.73Z" fill="#0EBFE3" fill-rule="evenodd" transform="matrix(1 0 0 1.001 2463.34 762.431)"/><path d="M0 0 10.0071 0 10.0071 51.7438-2.23871e-07 51.7438Z" fill="#0EBFE3" transform="matrix(-0.871542 0.490321 0.489833 0.87241 4259.63 1827.12)"/><path d="M1570.19 963.905 1824.43 963.905 1824.43 973.683 1570.19 973.683Z" fill="#0EBFE3" transform="matrix(1 0 0 1.001 2463.34 762.431)"/><path d="M1543.99 812.334 1557.96 812.334C1562.01 812.334 1565.3 815.617 1565.3 819.668L1565.3 824.607C1565.3 825.927 1564.22 827.002 1562.9 827.002L1539.06 827.002C1537.74 827.002 1536.66 825.927 1536.66 824.607L1536.66 819.668C1536.66 815.617 1539.94 812.334 1543.99 812.334Z" fill="#0EBFE3" fill-rule="evenodd" transform="matrix(1 0 0 1.001 2463.34 762.431)"/><path d="M1836.66 812.334 1851.33 812.334C1855.38 812.334 1858.66 815.617 1858.66 819.668L1858.66 824.607C1858.66 825.927 1857.58 827.002 1856.26 827.002L1831.72 827.002C1830.4 827.002 1829.32 825.927 1829.32 824.607L1829.32 819.668C1829.32 815.617 1832.61 812.334 1836.66 812.334Z" fill="#0EBFE3" fill-rule="evenodd" transform="matrix(1 0 0 1.001 2463.34 762.431)"/></g></g></g></g><g clip-path="url(#clip13)"><g clip-path="url(#clip14)"><g clip-path="url(#clip15)"><g clip-path="url(#clip16)"><path d="M1641.3 620.95 1754.01 620.95C1800.62 620.95 1838.4 658.732 1838.4 705.34L1838.4 1140.12C1838.4 1181.68 1804.71 1215.36 1763.17 1215.36L1632.15 1215.36C1590.59 1215.36 1556.91 1181.68 1556.91 1140.12L1556.91 705.34C1556.91 658.732 1594.69 620.95 1641.3 620.95Z" fill="#0991BF" fill-rule="evenodd" transform="matrix(1 0 0 1.001 1372.34 386.431)"/><path d="M0 11.9275C0 5.3401 5.34009-4.60622e-15 11.9275-6.14163e-15L36.3128 0C42.9001-1.53541e-15 48.2402 5.3401 48.2402 11.9275L48.2402 11.9275C48.2402 18.5148 42.9001 23.8549 36.3128 23.8549L11.9275 23.8549C5.34009 23.8549-1.5354e-15 18.5148 0 11.9275Z" fill="#C00000" fill-rule="evenodd" transform="matrix(0.908435 0.418027 0.41761 -0.909341 2954.51 1571.77)"/><path d="M1808.07 1173.32C1810.83 1179.3 1808.21 1186.38 1802.22 1189.14L1780.07 1199.32C1774.09 1202.06 1767 1199.45 1764.25 1193.47L1764.25 1193.47C1761.5 1187.48 1764.13 1180.4 1770.1 1177.65L1792.26 1167.46C1798.25 1164.71 1805.32 1167.34 1808.07 1173.32Z" fill="#C00000" fill-rule="evenodd" transform="matrix(1 0 0 1.001 1372.34 386.431)"/><path d="M1583 690.077C1577.88 686.806 1576.37 679.996 1579.64 674.868L1582.6 670.221C1585.88 665.093 1592.69 663.588 1597.82 666.859L1597.82 666.859C1602.94 670.13 1604.45 676.94 1601.18 682.068L1598.22 686.715C1594.94 691.843 1588.13 693.349 1583 690.077Z" fill="#FE8B00" fill-rule="evenodd" transform="matrix(1 0 0 1.001 1372.34 386.431)"/><path d="M1587.12 677.58C1584.37 671.595 1586.99 664.514 1592.98 661.763L1615.13 651.579C1621.11 648.829 1628.19 651.449 1630.95 657.434L1630.95 657.434C1633.7 663.418 1631.07 670.499 1625.09 673.25L1602.94 683.434C1596.95 686.185 1589.87 683.564 1587.12 677.58Z" fill="#FCF1B5" fill-rule="evenodd" transform="matrix(1 0 0 1.001 1372.34 386.431)"/><path d="M0 11.0169C-1.7536e-15 4.93243 4.93243-1.7536e-15 11.0169-3.5072e-15L16.5309 0C22.6154-3.5072e-15 27.5478 4.93243 27.5478 11.0169L27.5478 11.0169C27.5478 17.1014 22.6154 22.0338 16.5309 22.0338L11.0169 22.0338C4.93243 22.0338 0 17.1014 0 11.0169Z" fill="#FE8B00" fill-rule="evenodd" transform="matrix(-0.537661 -0.84366 -0.842819 0.538197 3193.85 1071.27)"/><path d="M0 11.9275C0 5.3401 5.34009-4.60622e-15 11.9275-6.14163e-15L36.3128 0C42.9001-1.53541e-15 48.2402 5.3401 48.2402 11.9275L48.2402 11.9275C48.2402 18.5148 42.9001 23.8549 36.3128 23.8549L11.9275 23.8549C5.34009 23.8549-1.5354e-15 18.5148 0 11.9275Z" fill="#FCF1B5" fill-rule="evenodd" transform="matrix(-0.908435 -0.418027 -0.41761 0.909341 3185.42 1053.84)"/><path d="M1570.88 729.284C1570.88 684.111 1607.51 647.492 1652.68 647.492L1741.94 647.492C1787.11 647.492 1823.73 684.111 1823.73 729.284L1823.73 1116.8C1823.73 1161.97 1787.11 1198.59 1741.94 1198.59L1652.68 1198.59C1607.51 1198.59 1570.88 1161.97 1570.88 1116.8Z" fill="#0EBFE3" fill-rule="evenodd" transform="matrix(1 0 0 1.001 1372.34 386.431)"/><path d="M1649.06 769.726 1746.26 769.726C1789.43 769.726 1824.43 804.727 1824.43 847.9L1824.43 1078.66C1824.43 1109.8 1799.2 1135.03 1768.06 1135.03L1627.26 1135.03C1596.12 1135.03 1570.88 1109.8 1570.88 1078.66L1570.88 847.9C1570.88 804.727 1605.88 769.726 1649.06 769.726Z" fill="#262626" fill-rule="evenodd" transform="matrix(1 0 0 1.001 1372.34 386.431)"/><path d="M1658.16 844.464 1737.16 844.464C1772.24 844.464 1800.68 872.906 1800.68 907.99L1800.68 1047.61C1800.68 1066.19 1785.62 1081.25 1767.05 1081.25L1628.27 1081.25C1609.69 1081.25 1594.63 1066.19 1594.63 1047.61L1594.63 907.99C1594.63 872.906 1623.07 844.464 1658.16 844.464Z" fill="#0EBFE3" fill-rule="evenodd" transform="matrix(1 0 0 1.001 1372.34 386.431)"/><path d="M1591.06 781.803 1600.69 779.086 1624.93 864.971 1615.3 867.688Z" fill="#0EBFE3" fill-rule="evenodd" transform="matrix(1 0 0 1.001 1372.34 386.431)"/><path d="M0 0 10.0051 0 10.0051 89.2452 6.28867e-08 89.2452Z" fill="#0EBFE3" transform="matrix(-0.962349 -0.271816 -0.271545 0.963309 3176.5 1169.01)"/><path d="M1598.94 1063.63 1607.67 1068.53 1582.32 1113.63 1573.59 1108.73Z" fill="#0EBFE3" fill-rule="evenodd" transform="matrix(1 0 0 1.001 1372.34 386.431)"/><path d="M0 0 10.0071 0 10.0071 51.7438-2.23871e-07 51.7438Z" fill="#0EBFE3" transform="matrix(-0.871542 0.490321 0.489833 0.872411 3168.63 1451.12)"/><path d="M1570.19 963.904 1824.43 963.904 1824.43 973.682 1570.19 973.682Z" fill="#0EBFE3" transform="matrix(1 0 0 1.001 1372.34 386.431)"/><path d="M1543.99 812.333 1557.96 812.333C1562.01 812.333 1565.3 815.616 1565.3 819.667L1565.3 824.606C1565.3 825.926 1564.22 827.001 1562.9 827.001L1539.05 827.001C1537.73 827.001 1536.66 825.926 1536.66 824.606L1536.66 819.667C1536.66 815.616 1539.94 812.333 1543.99 812.333Z" fill="#0EBFE3" fill-rule="evenodd" transform="matrix(1 0 0 1.001 1372.34 386.431)"/><path d="M1836.66 812.333 1851.32 812.333C1855.38 812.333 1858.66 815.616 1858.66 819.667L1858.66 824.606C1858.66 825.926 1857.58 827.001 1856.26 827.001L1831.72 827.001C1830.4 827.001 1829.32 825.926 1829.32 824.606L1829.32 819.667C1829.32 815.616 1832.6 812.333 1836.66 812.333Z" fill="#0EBFE3" fill-rule="evenodd" transform="matrix(1 0 0 1.001 1372.34 386.431)"/></g></g></g></g><path d="M3665.17 2276.16 3726 2276.16 3726 2284.75 3708.35 2284.75 3708.35 2322.93C3708.35 2328.06 3707.26 2331.75 3705.07 2333.98 3702.87 2336.22 3699.18 2337.41 3694 2337.56L3690.6 2337.56C3686.14 2337.56 3682.27 2337.38 3678.98 2337.01L3677.12 2327.99C3682.45 2328.72 3687.31 2329.09 3691.69 2329.09 3694.62 2329.09 3696.59 2328.48 3697.61 2327.27 3698.64 2326.06 3699.15 2323.77 3699.15 2320.4L3699.15 2284.75 3665.17 2284.75ZM3517.31 2274.51 3539.78 2274.51 3539.78 2318.96 3552.72 2307.41 3556.22 2315.66C3549.21 2321.31 3543.25 2326.48 3538.36 2331.18L3533.43 2336.02 3528.06 2329.2C3529.23 2328.24 3530.05 2327.29 3530.52 2326.34 3531 2325.38 3531.23 2324.06 3531.23 2322.38L3531.23 2283.09 3517.31 2283.09ZM3654.32 2266.59 3661.22 2271.98C3658.52 2276.09 3654.98 2280.75 3650.59 2285.96L3650.59 2338 3641.82 2338 3641.82 2295.53C3637.88 2299.64 3633.57 2303.74 3628.89 2307.85L3625.16 2299.49C3630.43 2294.87 3635.72 2289.55 3641.06 2283.53 3646.39 2277.52 3650.81 2271.87 3654.32 2266.59ZM3669.44 2244.69 3721.4 2244.69 3721.4 2253.28 3669.44 2253.28ZM3530.91 2239.74C3532.88 2242.02 3535.56 2245.23 3538.96 2249.37 3542.36 2253.51 3545.41 2257.31 3548.11 2260.76L3541.32 2266.59C3535.33 2258.81 3529.66 2251.74 3524.33 2245.35ZM3654.32 2238.53 3661.11 2244.47C3657.46 2249.09 3652.89 2254.08 3647.41 2259.44 3641.93 2264.79 3636.75 2269.34 3631.85 2273.08L3627.14 2264.94C3631.38 2261.86 3636.09 2257.79 3641.28 2252.73 3646.46 2247.66 3650.81 2242.93 3654.32 2238.53ZM3575.29 2238.31 3584.17 2238.31 3584.17 2269.56 3612.45 2269.56 3612.45 2278.25 3584.17 2278.25 3584.17 2326.12 3617.05 2326.12 3617.05 2334.37 3549.54 2334.37 3549.54 2326.12 3575.29 2326.12ZM3555.57 2174 3603.46 2174 3603.46 2181.48 3585.38 2181.48 3585.38 2195.24C3585.38 2199.56 3584.48 2202.64 3582.69 2204.48 3580.9 2206.31 3577.67 2207.23 3572.99 2207.23 3569.71 2207.23 3565.69 2206.97 3560.94 2206.46L3559.4 2198.32C3564.66 2199.05 3568.65 2199.42 3571.35 2199.42 3573.47 2199.42 3574.95 2198.88 3575.79 2197.82 3576.63 2196.76 3577.05 2195.12 3577.05 2192.92L3577.05 2181.48 3555.57 2181.48ZM3545.26 2157.82 3613.99 2157.82 3613.99 2176.97 3605.76 2176.97 3605.76 2165.42 3553.37 2165.42 3553.37 2176.86 3545.26 2176.86ZM3561.48 2138.02 3561.48 2145.28 3598.09 2145.28 3598.09 2138.02ZM3553.26 2131.75 3606.31 2131.75 3606.31 2151.33 3553.26 2151.33ZM3537.15 2107.65 3545.59 2109.41C3542.82 2118.51 3540.11 2126.39 3537.48 2133.07L3537.48 2207.34 3529.37 2207.34 3529.37 2150.45C3526.45 2155.73 3523.49 2160.36 3520.49 2164.32L3516 2155.73C3519.87 2150.09 3523.71 2142.99 3527.51 2134.44 3531.31 2125.9 3534.52 2116.97 3537.15 2107.65ZM3580.12 2106.55C3581.14 2109.12 3582.49 2112.9 3584.17 2117.88L3614.53 2117.88 3614.53 2125.48 3547.24 2125.48 3547.24 2117.88 3574.75 2117.88C3573.29 2113.92 3572.19 2111.06 3571.46 2109.3ZM3664.95 2106 3674.38 2108.53C3672.77 2112.79 3670.76 2117.48 3668.35 2122.61L3721.4 2122.61 3721.4 2130.87 3664.4 2130.87C3659.51 2140.84 3655.05 2148.88 3651.03 2154.96L3674.16 2154.96 3674.16 2137.36 3682.82 2137.36 3682.82 2154.96 3715.7 2154.96 3715.7 2163.11 3682.82 2163.11 3682.82 2180.49 3723.81 2180.49 3723.81 2188.96 3682.82 2188.96 3682.82 2208.55 3674.16 2208.55 3674.16 2188.96 3628.89 2188.96 3628.89 2180.49 3674.16 2180.49 3674.16 2163.11 3640.07 2163.11 3640.07 2154.96C3644.24 2149.1 3648.88 2141.06 3653.99 2130.87L3631.52 2130.87 3631.52 2122.61 3657.94 2122.61C3661.3 2115.43 3663.64 2109.89 3664.95 2106Z" fill="#FFFFFF" fill-rule="evenodd"/><path d="M4202.17 2276.16 4263 2276.16 4263 2284.75 4245.35 2284.75 4245.35 2322.93C4245.35 2328.06 4244.26 2331.75 4242.07 2333.98 4239.87 2336.22 4236.18 2337.41 4231 2337.56L4227.6 2337.56C4223.14 2337.56 4219.27 2337.38 4215.98 2337.01L4214.12 2327.99C4219.45 2328.72 4224.31 2329.09 4228.69 2329.09 4231.62 2329.09 4233.59 2328.48 4234.61 2327.27 4235.64 2326.06 4236.15 2323.77 4236.15 2320.4L4236.15 2284.75 4202.17 2284.75ZM4054.32 2274.51 4076.78 2274.51 4076.78 2318.96 4089.72 2307.41 4093.22 2315.66C4086.21 2321.31 4080.25 2326.48 4075.36 2331.18L4070.43 2336.02 4065.06 2329.2C4066.23 2328.24 4067.05 2327.29 4067.52 2326.34 4068 2325.38 4068.24 2324.06 4068.24 2322.38L4068.24 2283.09 4054.32 2283.09ZM4191.32 2266.59 4198.22 2271.98C4195.52 2276.09 4191.98 2280.75 4187.59 2285.96L4187.59 2338 4178.82 2338 4178.82 2295.53C4174.88 2299.64 4170.57 2303.74 4165.89 2307.85L4162.17 2299.49C4167.43 2294.87 4172.72 2289.55 4178.06 2283.53 4183.39 2277.52 4187.81 2271.87 4191.32 2266.59ZM4206.44 2244.69 4258.4 2244.69 4258.4 2253.28 4206.44 2253.28ZM4067.91 2239.74C4069.88 2242.02 4072.56 2245.23 4075.96 2249.37 4079.36 2253.51 4082.41 2257.31 4085.11 2260.76L4078.32 2266.59C4072.33 2258.81 4066.66 2251.74 4061.33 2245.35ZM4191.32 2238.53 4198.11 2244.47C4194.46 2249.09 4189.89 2254.08 4184.41 2259.44 4178.93 2264.79 4173.75 2269.34 4168.85 2273.08L4164.14 2264.94C4168.38 2261.86 4173.09 2257.79 4178.28 2252.73 4183.46 2247.66 4187.81 2242.93 4191.32 2238.53ZM4112.3 2238.31 4121.17 2238.31 4121.17 2269.56 4149.45 2269.56 4149.45 2278.25 4121.17 2278.25 4121.17 2326.12 4154.05 2326.12 4154.05 2334.37 4086.54 2334.37 4086.54 2326.12 4112.3 2326.12ZM4092.57 2174 4140.46 2174 4140.46 2181.48 4122.38 2181.48 4122.38 2195.24C4122.38 2199.56 4121.48 2202.64 4119.69 2204.48 4117.9 2206.31 4114.67 2207.23 4109.99 2207.23 4106.71 2207.23 4102.69 2206.97 4097.94 2206.46L4096.4 2198.32C4101.66 2199.05 4105.65 2199.42 4108.35 2199.42 4110.47 2199.42 4111.95 2198.88 4112.79 2197.82 4113.63 2196.76 4114.05 2195.12 4114.05 2192.92L4114.05 2181.48 4092.57 2181.48ZM4082.26 2157.82 4150.99 2157.82 4150.99 2176.97 4142.77 2176.97 4142.77 2165.42 4090.37 2165.42 4090.37 2176.86 4082.26 2176.86ZM4098.49 2138.02 4098.49 2145.28 4135.09 2145.28 4135.09 2138.02ZM4090.27 2131.75 4143.31 2131.75 4143.31 2151.33 4090.27 2151.33ZM4074.15 2107.65 4082.59 2109.41C4079.82 2118.51 4077.11 2126.39 4074.48 2133.07L4074.48 2207.34 4066.37 2207.34 4066.37 2150.45C4063.45 2155.73 4060.49 2160.36 4057.49 2164.32L4053 2155.73C4056.87 2150.09 4060.71 2142.99 4064.51 2134.44 4068.31 2125.9 4071.52 2116.97 4074.15 2107.65ZM4117.12 2106.55C4118.14 2109.12 4119.49 2112.9 4121.17 2117.88L4151.53 2117.88 4151.53 2125.48 4084.24 2125.48 4084.24 2117.88 4111.75 2117.88C4110.29 2113.92 4109.19 2111.06 4108.46 2109.3ZM4201.95 2106 4211.38 2108.53C4209.77 2112.79 4207.76 2117.48 4205.35 2122.61L4258.4 2122.61 4258.4 2130.87 4201.4 2130.87C4196.51 2140.84 4192.05 2148.88 4188.03 2154.96L4211.16 2154.96 4211.16 2137.36 4219.82 2137.36 4219.82 2154.96 4252.7 2154.96 4252.7 2163.11 4219.82 2163.11 4219.82 2180.49 4260.81 2180.49 4260.81 2188.96 4219.82 2188.96 4219.82 2208.55 4211.16 2208.55 4211.16 2188.96 4165.89 2188.96 4165.89 2180.49 4211.16 2180.49 4211.16 2163.11 4177.07 2163.11 4177.07 2154.96C4181.24 2149.1 4185.88 2141.06 4190.99 2130.87L4168.52 2130.87 4168.52 2122.61 4194.94 2122.61C4198.3 2115.43 4200.64 2109.89 4201.95 2106Z" fill="#FFFFFF" fill-rule="evenodd"/><path d="M3031.39 1929.97 3031.39 1939 3049.37 1939 3049.37 1929.97ZM3005.69 1929.97 3005.69 1939 3023.34 1939 3023.34 1929.97ZM2964.1 1918.18 2986.94 1918.18 2986.94 1956.3C2989.66 1959.68 2992.32 1962.31 2994.93 1964.18 2997.54 1966.05 3000.52 1967.43 3003.87 1968.31 3007.21 1969.19 3011.46 1969.78 3016.61 1970.08 3022.49 1970.44 3029.59 1970.63 3037.9 1970.63 3046.57 1970.63 3055.25 1970.41 3063.93 1969.97L3061.94 1978.45C3053.12 1978.82 3045.29 1979 3038.45 1979 3030.73 1979 3023.04 1978.78 3015.39 1978.34 3010.03 1978.04 3005.54 1977.42 3001.94 1976.47 2998.33 1975.51 2995.08 1974.06 2992.18 1972.11 2989.27 1970.17 2986.2 1967.47 2982.96 1964.02L2969.29 1979 2963.22 1972.06 2978.66 1956.96 2978.66 1926.33 2964.1 1926.33ZM3073.85 1918.07 3097.35 1918.07 3097.35 1953.44C3099.63 1957.48 3101.91 1960.51 3104.19 1962.53 3106.47 1964.55 3109.24 1965.98 3112.51 1966.82 3115.79 1967.67 3120.33 1968.28 3126.14 1968.64 3135.7 1969.16 3143.82 1969.41 3150.51 1969.41 3157.28 1969.41 3165.37 1969.16 3174.78 1968.64L3173.12 1977.24C3165.62 1977.75 3157.57 1978.01 3148.97 1978.01 3140.29 1978.01 3132.2 1977.75 3124.7 1977.24 3118.82 1976.87 3114.09 1976.25 3110.53 1975.36 3106.96 1974.48 3103.82 1972.99 3101.1 1970.9 3098.38 1968.81 3095.66 1965.7 3092.94 1961.59 3091.91 1962.47 3089.09 1965.26 3084.5 1969.97 3079.9 1974.67 3077.09 1977.68 3076.06 1979L3072.64 1969.3 3088.63 1953.55 3088.63 1926.77 3073.85 1926.77ZM3118.64 1914.32 3123.71 1920.94C3125.7 1923.43 3129.45 1928.28 3134.96 1935.48L3128.01 1940.88C3125.29 1936.84 3119.89 1929.64 3111.8 1919.28ZM3031.39 1913.66 3031.39 1922.81 3049.37 1922.81 3049.37 1913.66ZM3005.69 1913.66 3005.69 1922.81 3023.34 1922.81 3023.34 1913.66ZM2996.42 1884.8 3055.87 1884.8 3055.87 1892.18 3032.93 1906.28 3033.15 1906.39 3057.53 1906.39 3057.53 1953.55C3057.53 1957.37 3056.77 1960.03 3055.27 1961.54 3053.76 1963.04 3051.31 1963.79 3047.93 1963.79 3044.4 1963.79 3041.31 1963.57 3038.67 1963.13L3037.23 1955.42C3040.76 1956.01 3043.7 1956.3 3046.06 1956.3 3047.31 1956.3 3048.17 1955.86 3048.65 1954.98 3049.13 1954.1 3049.37 1952.56 3049.37 1950.35L3049.37 1946.06 3031.39 1946.06 3031.39 1962.8 3023.34 1962.8 3023.34 1946.06 3005.69 1946.06 3005.69 1963.02 2997.63 1963.02 2997.63 1906.39 3019.92 1906.39 3008.11 1898.68 3012.53 1892.84C3016.94 1895.63 3021.57 1898.64 3026.42 1901.87 3031.5 1898.94 3036.31 1896.07 3040.87 1893.28L3043.3 1891.85 2996.42 1891.85ZM3087.09 1882.81 3092.49 1889.31C3096.24 1893.5 3099.66 1897.58 3102.75 1901.54L3095.69 1907.16C3092.46 1903.05 3088.52 1898.13 3083.89 1892.4L3080.47 1888.21ZM2973.48 1882.26C2975.61 1884.61 2978.37 1887.83 2981.75 1891.9 2985.13 1895.98 2987.89 1899.41 2990.02 1902.2L2983.19 1907.93C2981.2 1905.29 2978.52 1901.8 2975.13 1897.47 2971.75 1893.13 2969.07 1889.9 2967.08 1887.77ZM3148.09 1880.28 3156.8 1880.28 3156.8 1899.12 3172.46 1899.12 3172.46 1907.71 3156.8 1907.71 3156.8 1944.4C3156.8 1948.74 3156.4 1951.99 3155.59 1954.15 3154.78 1956.32 3153.34 1957.85 3151.29 1958.73 3149.23 1959.61 3146.06 1960.16 3141.8 1960.38 3140.7 1960.45 3139.08 1960.49 3136.95 1960.49 3133.12 1960.49 3129.41 1960.27 3125.81 1959.83L3123.93 1951.01C3128.78 1951.6 3133.31 1951.9 3137.5 1951.9 3140.95 1951.9 3143.38 1951.68 3144.78 1951.23 3146.17 1950.79 3147.08 1949.93 3147.48 1948.65 3147.88 1947.36 3148.09 1945.14 3148.09 1941.98L3148.09 1907.71 3107.5 1907.71 3107.5 1899.12 3148.09 1899.12ZM3009.99 1808.06 3009.99 1823.59 3019.7 1823.59 3019.7 1808.06ZM3003.59 1800.23 3026.09 1800.23 3026.09 1831.07 3025.98 1831.19 3003.59 1831.19ZM2975.35 1796.05 2983.63 1797.59 2976.68 1823.81 2971.71 1842.54 2963 1840.34C2964.47 1835.78 2966.62 1828.44 2969.45 1818.3 2972.28 1808.17 2974.25 1800.75 2975.35 1796.05ZM3074.52 1787.45 3096.47 1787.45 3096.47 1822.82C3100.29 1828.33 3104.3 1832.2 3108.49 1834.44 3112.68 1836.68 3118.34 1838.06 3125.47 1838.58 3132.46 1839.09 3139.89 1839.35 3147.76 1839.35 3155.04 1839.35 3164.12 1839.02 3175 1838.36L3173.12 1846.62C3164.45 1847.21 3156.29 1847.5 3148.64 1847.5 3140.92 1847.5 3132.72 1847.21 3124.04 1846.62 3116.39 1846.1 3110.31 1844.78 3105.79 1842.65 3101.26 1840.52 3096.8 1836.78 3092.38 1831.41L3079.48 1848.27 3073.41 1840.89 3087.97 1823.81 3087.97 1795.94 3074.52 1795.94ZM3142.13 1783.93 3142.13 1796.49 3158.68 1796.49 3158.68 1783.93ZM3117.53 1783.93 3117.53 1796.49 3133.31 1796.49 3133.31 1783.93ZM3002.71 1783.05 3027.64 1783.05 3027.64 1790.87 3002.71 1790.87ZM2972.71 1752.97C2974.54 1757.01 2977.74 1764.9 2982.3 1776.65L2984.73 1782.71 2976.46 1785.8C2975.21 1781.83 2973.41 1776.84 2971.05 1770.82 2968.7 1764.79 2966.64 1759.76 2964.88 1755.72ZM3084.44 1751.97C3086.5 1753.96 3089.24 1756.99 3092.66 1761.06 3096.08 1765.14 3098.78 1768.61 3100.77 1771.48L3093.93 1776.77C3092.02 1774.19 3089.33 1770.85 3085.88 1766.74 3082.42 1762.63 3079.66 1759.47 3077.6 1757.26ZM3133.31 1749.33 3142.13 1749.33 3142.13 1759.69 3170.59 1759.69 3170.59 1767.73 3142.13 1767.73 3142.13 1776.88 3166.84 1776.88 3166.84 1803.65 3142.13 1803.65 3142.13 1805.52C3151.1 1810.37 3160.59 1816.03 3170.59 1822.49L3165.96 1830.64C3157.87 1824.4 3149.92 1818.71 3142.13 1813.56L3142.13 1834.83 3133.31 1834.83 3133.31 1811.14C3127.13 1818.93 3119.26 1825.54 3109.7 1830.97L3104.52 1823.59C3109.52 1821.02 3114.35 1818.01 3119.02 1814.56 3123.69 1811.1 3127.61 1807.47 3130.77 1803.65L3109.37 1803.65 3109.37 1776.88 3133.31 1776.88 3133.31 1767.73 3105.84 1767.73 3105.84 1759.69 3133.31 1759.69ZM3028.74 1749 3036.57 1749C3036.87 1755.32 3037.16 1760.61 3037.45 1764.87L3048.37 1764.87C3046.68 1761.12 3044.95 1757.45 3043.19 1753.85L3050.03 1752.75C3051.35 1755.24 3053.34 1759.28 3055.98 1764.87L3061.39 1764.87 3061.39 1772.91 3037.9 1772.91C3038.92 1788.7 3040.21 1801.34 3041.76 1810.81 3045.58 1802.8 3048.48 1793.11 3050.47 1781.72L3057.97 1783.05C3056.57 1790.83 3054.75 1797.94 3052.51 1804.37 3050.27 1810.79 3047.49 1816.8 3044.18 1822.38 3045.21 1826.35 3046.42 1829.87 3047.82 1832.96 3049.59 1836.78 3051.28 1838.69 3052.9 1838.69 3054.51 1838.69 3055.69 1835.71 3056.43 1829.76 3056.87 1824.99 3057.2 1821.06 3057.42 1817.97L3064.37 1819.4C3064.07 1824.11 3063.52 1828.92 3062.71 1833.84 3061.98 1838.98 3060.78 1842.54 3059.13 1844.53 3057.47 1846.51 3055.51 1847.5 3053.23 1847.5 3050.73 1847.5 3048.52 1846.71 3046.61 1845.13 3044.7 1843.55 3042.75 1840.52 3040.76 1836.04 3040.17 1834.65 3039.48 1832.77 3038.67 1830.42 3033.74 1836.74 3027.82 1842.73 3020.91 1848.38L3015.28 1842.1 3025.98 1831.19 3026.09 1831.19 3026.09 1831.07 3036.02 1820.95C3033.23 1808.9 3031.24 1792.89 3030.06 1772.91L2998.19 1772.91 2998.19 1811.8C2998.19 1818.34 2997.41 1824.88 2995.87 1831.41 2994.33 1837.95 2991.9 1843.97 2988.59 1849.48L2980.98 1845.08C2984.44 1839.71 2986.88 1834.39 2988.31 1829.1 2989.75 1823.81 2990.47 1818.05 2990.47 1811.8L2990.47 1764.87 3029.62 1764.87Z" fill="#FFFFFF" fill-rule="evenodd"/><path d="M517.542 885.088 528.419 888.023C526.564 892.956 524.245 898.4 521.463 904.354L582.676 904.354 582.676 913.923 516.91 913.923C511.261 925.491 506.118 934.805 501.48 941.865L528.166 941.865 528.166 921.451 538.157 921.451 538.157 941.865 576.099 941.865 576.099 951.306 538.157 951.306 538.157 971.465 585.459 971.465 585.459 981.29 538.157 981.29 538.157 1004 528.166 1004 528.166 981.29 475.933 981.29 475.933 971.465 528.166 971.465 528.166 951.306 488.833 951.306 488.833 941.865C493.639 935.06 498.993 925.746 504.895 913.923L478.968 913.923 478.968 904.354 509.448 904.354C513.326 896.018 516.024 889.596 517.542 885.088ZM563.958 789.883 573.064 793.711C568.848 805.109 563.663 814.806 557.508 822.801 565.096 830.457 575.594 837.091 589 842.705L583.309 852.529C570.155 846.49 559.363 839.133 550.931 830.457 542.584 839.048 531.665 846.703 518.175 853.422L512.61 843.853C526.016 837.814 536.64 830.839 544.481 822.929 538.495 815.018 533.352 805.322 529.051 793.839L538.157 790.139C542.289 800.856 546.589 809.234 551.058 815.273 556.117 808.384 560.417 799.921 563.958 789.883ZM565.476 764.238C572.221 771.639 579.388 780.059 586.976 789.501L579.767 796.518C571.673 786.056 564.506 777.337 558.267 770.362ZM535.375 764.238 543.722 769.852C537.567 779.804 530.611 788.863 522.854 797.028L515.266 791.159C522.433 783.164 529.136 774.19 535.375 764.238ZM490.35 736.169 500.089 736.169 500.089 760.155 513.621 760.155 513.621 769.98 500.089 769.98 500.089 777.763 507.298 786.183C511.008 790.607 513.832 793.924 515.772 796.135L508.942 802.642C506.665 799.325 504.558 796.178 502.618 793.201 502.113 792.435 501.649 791.755 501.227 791.159 500.806 790.564 500.426 790.011 500.089 789.501L500.089 852.146 490.35 852.146 490.35 790.394C485.882 802.387 480.907 813.19 475.427 822.801L471 811.956C478.926 797.921 485.165 783.929 489.718 769.98L474.668 769.98 474.668 760.155 490.35 760.155ZM551.564 734C554.262 740.209 556.623 746.291 558.646 752.245L585.712 752.245 585.712 762.069 519.06 762.069 519.06 752.245 548.402 752.245C545.535 745.44 543.301 740.422 541.699 737.19Z" fill-rule="evenodd"/><path d="M2063.54 885.088 2074.42 888.023C2072.56 892.956 2070.25 898.4 2067.46 904.354L2128.68 904.354 2128.68 913.923 2062.91 913.923C2057.26 925.491 2052.12 934.805 2047.48 941.865L2074.17 941.865 2074.17 921.451 2084.16 921.451 2084.16 941.865 2122.1 941.865 2122.1 951.306 2084.16 951.306 2084.16 971.465 2131.46 971.465 2131.46 981.29 2084.16 981.29 2084.16 1004 2074.17 1004 2074.17 981.29 2021.93 981.29 2021.93 971.465 2074.17 971.465 2074.17 951.306 2034.83 951.306 2034.83 941.865C2039.64 935.06 2044.99 925.746 2050.9 913.923L2024.97 913.923 2024.97 904.354 2055.45 904.354C2059.33 896.018 2062.02 889.596 2063.54 885.088ZM2109.96 789.883 2119.06 793.711C2114.85 805.109 2109.66 814.806 2103.51 822.801 2111.1 830.457 2121.59 837.091 2135 842.705L2129.31 852.529C2116.16 846.49 2105.36 839.133 2096.93 830.457 2088.58 839.048 2077.67 846.703 2064.17 853.422L2058.61 843.853C2072.02 837.814 2082.64 830.839 2090.48 822.929 2084.49 815.018 2079.35 805.322 2075.05 793.839L2084.16 790.139C2088.29 800.856 2092.59 809.234 2097.06 815.273 2102.12 808.384 2106.42 799.921 2109.96 789.883ZM2111.48 764.238C2118.22 771.639 2125.39 780.059 2132.98 789.501L2125.77 796.518C2117.67 786.056 2110.51 777.337 2104.27 770.362ZM2081.38 764.238 2089.72 769.852C2083.57 779.804 2076.61 788.863 2068.85 797.028L2061.27 791.159C2068.43 783.164 2075.14 774.19 2081.38 764.238ZM2036.35 736.169 2046.09 736.169 2046.09 760.155 2059.62 760.155 2059.62 769.98 2046.09 769.98 2046.09 777.763 2053.3 786.183C2057.01 790.607 2059.83 793.924 2061.77 796.135L2054.94 802.642C2052.67 799.325 2050.56 796.178 2048.62 793.201 2048.11 792.435 2047.65 791.755 2047.23 791.159 2046.81 790.564 2046.43 790.011 2046.09 789.501L2046.09 852.146 2036.35 852.146 2036.35 790.394C2031.88 802.387 2026.91 813.19 2021.43 822.801L2017 811.956C2024.93 797.921 2031.17 783.929 2035.72 769.98L2020.67 769.98 2020.67 760.155 2036.35 760.155ZM2097.56 734C2100.26 740.209 2102.62 746.291 2104.65 752.245L2131.71 752.245 2131.71 762.069 2065.06 762.069 2065.06 752.245 2094.4 752.245C2091.54 745.44 2089.3 740.422 2087.7 737.19Z" fill-rule="evenodd"/><path d="M4147.94 885.088 4158.91 888.023C4157.03 892.956 4154.7 898.4 4151.89 904.354L4213.62 904.354 4213.62 913.923 4147.3 913.923C4141.6 925.491 4136.42 934.805 4131.74 941.865L4158.65 941.865 4158.65 921.451 4168.73 921.451 4168.73 941.865 4206.99 941.865 4206.99 951.306 4168.73 951.306 4168.73 971.465 4216.43 971.465 4216.43 981.29 4168.73 981.29 4168.73 1004 4158.65 1004 4158.65 981.29 4105.97 981.29 4105.97 971.465 4158.65 971.465 4158.65 951.306 4118.98 951.306 4118.98 941.865C4123.83 935.06 4129.23 925.746 4135.18 913.923L4109.04 913.923 4109.04 904.354 4139.77 904.354C4143.69 896.018 4146.41 889.596 4147.94 885.088ZM4194.75 789.883 4203.93 793.711C4199.68 805.109 4194.45 814.806 4188.24 822.801 4195.89 830.457 4206.48 837.091 4220 842.705L4214.26 852.529C4201 846.49 4190.11 839.133 4181.61 830.457 4173.19 839.048 4162.18 846.703 4148.57 853.422L4142.96 843.853C4156.48 837.814 4167.2 830.839 4175.1 822.929 4169.07 815.018 4163.88 805.322 4159.54 793.839L4168.73 790.139C4172.89 800.856 4177.23 809.234 4181.74 815.273 4186.84 808.384 4191.17 799.921 4194.75 789.883ZM4196.28 764.238C4203.08 771.639 4210.31 780.059 4217.96 789.501L4210.69 796.518C4202.53 786.056 4195.3 777.337 4189.01 770.362ZM4165.92 764.238 4174.34 769.852C4168.13 779.804 4161.12 788.863 4153.29 797.028L4145.64 791.159C4152.87 783.164 4159.63 774.19 4165.92 764.238ZM4120.51 736.169 4130.34 736.169 4130.34 760.155 4143.98 760.155 4143.98 769.98 4130.34 769.98 4130.34 777.763 4137.61 786.183C4141.35 790.607 4144.2 793.924 4146.15 796.135L4139.26 802.642C4136.97 799.325 4134.84 796.178 4132.89 793.201 4132.38 792.435 4131.91 791.755 4131.48 791.159 4131.06 790.564 4130.68 790.011 4130.34 789.501L4130.34 852.146 4120.51 852.146 4120.51 790.394C4116.01 802.387 4110.99 813.19 4105.46 822.801L4101 811.956C4108.99 797.921 4115.29 783.929 4119.88 769.98L4104.7 769.98 4104.7 760.155 4120.51 760.155ZM4182.25 734C4184.97 740.209 4187.35 746.291 4189.39 752.245L4216.68 752.245 4216.68 762.069 4149.47 762.069 4149.47 752.245 4179.06 752.245C4176.17 745.44 4173.91 740.422 4172.3 737.19Z" fill-rule="evenodd"/><path d="M2992 540.031 3069 333 3146 540.031 3095.81 540.031 3095.81 869 3042.19 869 3042.19 540.031Z" fill="#FFFFFF" fill-rule="evenodd" fill-opacity="0.501961"/></g></svg>