<?xml version="1.0" standalone="no"?><!DOCTYPE svg PUBLIC "-//W3C//DTD SVG 1.1//EN" "http://www.w3.org/Graphics/SVG/1.1/DTD/svg11.dtd"><svg class="icon" width="200px" height="200.00px" viewBox="0 0 1024 1024" version="1.1" xmlns="http://www.w3.org/2000/svg"><path d="M312.608 320.832l-22.176-5.856-8.256 21.376c-48.992 127.104-48.992 265.888 0.064 390.784l8.32 21.216 22.016-5.824c107.776-28.416 180.192-113.152 180.192-210.848 0.032-97.664-72.384-182.4-180.16-210.848z m9.12 365.184c-33.472-99.52-33.44-207.424 0.128-308.576 72.512 27.104 119.744 86.848 119.744 154.272 0 67.456-47.296 127.232-119.872 154.304zM64 504h140.8v51.2H64zM79.1264 321.344l22.688-45.8944 126.2112 62.3904-22.688 45.8944zM78.6848 730.048l132.0544-48.8544 17.7664 48.0192-132.0544 48.8576zM733.568 315.008l-22.176 5.856c-107.776 28.416-180.192 113.152-180.192 210.848s72.416 182.432 180.192 210.848l22.016 5.824 8.32-21.216c49.024-124.896 49.056-263.68 0.064-390.784l-8.224-21.376z m-31.296 371.008c-72.576-27.072-119.872-86.848-119.872-154.304 0-67.424 47.232-127.168 119.744-154.272 33.536 101.152 33.6 209.056 0.128 308.576zM819.2 504h140.8v51.2h-140.8zM795.8912 337.872l126.2144-62.3904 22.688 45.8976-126.2144 62.3872zM795.5072 729.1392l17.7664-48.0224 132.0576 48.8576-17.7664 48.0224z" fill="#1BF609" /></svg>