<?xml version="1.0" standalone="no"?><!DOCTYPE svg PUBLIC "-//W3C//DTD SVG 1.1//EN" "http://www.w3.org/Graphics/SVG/1.1/DTD/svg11.dtd"><svg class="icon" width="200px" height="200.00px" viewBox="0 0 1024 1024" version="1.1" xmlns="http://www.w3.org/2000/svg"><path d="M499.2 777.6c47.712 0 86.4-38.688 86.4-86.4 0-31.328-16.672-58.752-41.6-73.888V534.4h179.2v-51.2h-179.2v-76.8h179.2v-51.2h-179.2V272h179.2V220.8h-179.2V134.4c0-21.12-17.28-38.4-38.4-38.4h-12.8c-21.12 0-38.4 17.28-38.4 38.4v482.912c-24.928 15.168-41.6 42.592-41.6 73.888 0 47.712 38.688 86.4 86.4 86.4zM210.528 661.792c22.176 14.72 79.68 49.312 128.864 49.312 20.448 0 39.488-5.984 53.952-21.888l-37.888-34.432c-13.12 14.464-65.728-1.728-117.248-36.064-17.344-11.552-45.76-11.616-92.128-0.256-29.024 7.136-54.496 16.256-55.552 16.672l17.376 48.16c42.08-15.2 90.592-25.312 102.624-21.504zM903.328 651.296c-8.096 5.888-16.928 2.592-45.312-12.672-17.28-9.312-36.864-19.84-60.8-26.496-69.312-19.232-149.632 52-158.56 60.192l34.56 37.76c17.28-15.776 74.624-58.496 110.272-48.64 18.4 5.12 34.56 13.824 50.24 22.24 30.176 16.256 64.384 34.656 99.68 8.992l-30.08-41.376zM759.488 878.272c-5.632 1.984-8.576 1.696-26.016-25.6-17.056-26.688-40.416-63.232-89.088-65.44-54.144-2.432-73.664 26.016-87.904 46.848-9.504 13.888-16.992 24.864-34.56 31.68-16.224 6.304-33.824-6.976-60.896-29.6-24.992-20.864-53.312-44.576-88.128-42.496-40.352 2.368-64.416 28.032-83.712 48.64-10.656 11.36-20.704 22.08-31.808 27.648-0.128 0.064-12.096 4.864-49.696-18.496-23.584-14.656-43.328-32-43.52-32.192l-33.92 38.368c22.56 19.936 100.032 83.104 150.016 58.112 19.328-9.664 33.632-24.928 46.272-38.4 18.24-19.456 30.368-31.424 49.376-32.544 14.56-0.832 33.728 15.168 52.288 30.688 29.728 24.832 66.72 55.744 112.288 38.016 32.32-12.576 47.296-34.496 58.24-50.496 12.448-18.208 17.6-25.76 43.296-24.576 20.672 0.928 32.032 16.448 48.288 41.856 13.248 20.736 32.128 50.272 64.672 50.272 6.592 0 13.76-1.216 21.536-3.968 58.464-20.64 117.984-73.184 120.48-75.392l-34.016-38.272c-0.512 0.416-54.592 48.064-103.488 65.344z" fill="#ED0303" /></svg>