<svg width="272" height="326" xmlns="http://www.w3.org/2000/svg" xmlns:xlink="http://www.w3.org/1999/xlink" xml:space="preserve" overflow="hidden"><defs><clipPath id="clip0"><rect x="347" y="378" width="272" height="326"/></clipPath></defs><g clip-path="url(#clip0)" transform="translate(-347 -378)"><path d="M0 0 232.97 0C243.747 0 252.482-8.73579 252.482-19.5121L252.482-306.258C252.482-317.035 243.747-325.771 232.97-325.771L0-325.771C-10.7763-325.771-19.5122-317.035-19.5122-306.258L-19.5122-19.5121C-19.5122-8.73579-10.7763 0 0 0" fill="#016D2C" transform="matrix(1 0 0 -1.00069 366.515 378)"/><path d="M0 0-233 0C-237.278-0.0161837-240.742-3.48004-240.758-7.75783L-240.758-294.534C-240.746-296.581-239.933-298.542-238.495-299.999-237.038-301.456-235.06-302.27-233-302.262L0-302.262C4.26828-302.262 7.72832-298.802 7.72832-294.534L7.72832-7.84596C7.71241-3.57959 4.26624-0.120358 0-0.0881263ZM-233 5.87713 0 5.87713C3.63127 5.88216 7.11334 4.43215 9.66792 1.8512 12.2531-0.714802 13.7119-4.20354 13.7231-7.84596L13.7231-294.622C13.6909-302.187 7.56567-308.313 0-308.345L-233-308.345C-240.572-308.329-246.707-302.194-246.723-294.622L-246.723-7.84596C-246.707-0.273627-240.572 5.86094-233 5.87713" fill="#FFFFFF" fill-rule="evenodd" transform="matrix(1 0 0 -1.00069 599.515 389.674)"/><path d="M44.5782 327.916 227.416 327.916 227.416 145.078 44.5782 145.078Z" fill="#FFFFFF" transform="matrix(1 0 0 -1.00069 347.003 777.657)"/><path d="M106.758 301.527 144.549 301.527 144.549 171.437 106.758 171.437Z" fill="#040404" transform="matrix(1 0 0 -1.00069 347.003 777.657)"/><path d="M0 0C-0.312386-4.47336 1.61402-8.81059 5.14247-11.578L17.1612-20.2174C19.9947-22.3395 21.5378-25.7696 21.246-29.2976L21.246-65.3539C21.4964-68.6542 19.9314-71.8293 17.1612-73.6407L5.14247-81.5161C1.69765-83.8881-0.253363-87.8909 0-92.0656L-5.58324-87.0112-6.72928-51.1312-6.90554-51.1312-6.90554-48.1927-6.90554-45.4892-6.72928-45.4892-5.58324-5.58324Z" fill="#040404" fill-rule="evenodd" transform="matrix(1 0 0 -1.00069 491.434 493.213)"/><path d="M122.069 290.978 126.741 290.978 126.741 280.752 122.069 280.752Z" fill="#FFFFFF" transform="matrix(1 0 0 -1.00069 347.003 777.657)"/><path d="M122.069 271.231 126.741 271.231 126.741 261.004 122.069 261.004Z" fill="#FFFFFF" transform="matrix(1 0 0 -1.00069 347.003 777.657)"/><path d="M122.069 251.483 126.741 251.483 126.741 241.257 122.069 241.257Z" fill="#FFFFFF" transform="matrix(1 0 0 -1.00069 347.003 777.657)"/><path d="M122.069 231.736 126.741 231.736 126.741 221.51 122.069 221.51Z" fill="#FFFFFF" transform="matrix(1 0 0 -1.00069 347.003 777.657)"/><path d="M122.069 211.989 126.741 211.989 126.741 201.763 122.069 201.763Z" fill="#FFFFFF" transform="matrix(1 0 0 -1.00069 347.003 777.657)"/><path d="M122.069 192.212 126.741 192.212 126.741 181.986 122.069 181.986Z" fill="#FFFFFF" transform="matrix(1 0 0 -1.00069 347.003 777.657)"/><path d="M0 0C-2.81392 2.11816-5.9356 3.7931-9.25652 4.96622-10.2851 5.28948-10.5495 5.99476-10.1088 7.02331-9.82975 7.88812-8.90239 8.36316-8.03744 8.08409-7.98236 8.06641-7.92824 8.04574-7.87547 8.02235-4.58705 6.50244-1.38853 4.79527 1.70432 2.90926 2.4096 2.32147 2.43898 1.52807 1.88071 0.499518 1.3223-0.52903 0.646395-0.470143 0 0M-5.789 35.5568-17.5434 35.5568C-18.2799 35.4355-18.9754 35.9343-19.0969 36.6709-19.1193 36.8078-19.1207 36.9475-19.1008 37.0848-19.1819 37.9412-18.5536 38.7012-17.6972 38.7824-17.6461 38.7873-17.5947 38.7896-17.5434 38.7893L-2.93863 38.7893C-1.89567 38.8366-0.888607 38.4035-0.205764 37.6139 0.106214 36.6108-0.0792865 35.519-0.705282 34.6754-2.29251 32.1499-4.27712 29.8975-6.58241 28.0047-3.70892 26.5956-0.667475 25.5588 2.46835 24.9191 3.7319 24.4784 4.26093 23.685 4.02593 22.5388 3.70062 21.5185 2.60979 20.9546 1.58913 21.2798 1.53867 21.2958 1.4889 21.314 1.4398 21.334-2.4825 22.2658-6.25928 23.729-9.78555 25.6832-11.8943 24.3067-14.2041 23.2656-16.6323 22.5977-17.8959 22.2451-18.7482 22.5977-19.2183 23.4499-19.6885 24.3019-19.2183 25.2131-17.8371 25.6832-17.4199 25.7202-17.0122 25.8297-16.6323 26.0065-15.3474 26.503-14.0916 27.072-12.8711 27.7108-14.4318 29.1324-15.8672 30.6858-17.1612 32.3536-17.7778 32.9537-17.7912 33.9398-17.1913 34.5561-17.1279 34.6213-17.0588 34.6808-16.985 34.734-16.2023 35.4413-14.9945 35.3803-14.2872 34.5975-14.2754 34.5845-14.2637 34.5711-14.2521 34.5576-12.971 32.7226-11.4034 31.1054-9.60917 29.7678-7.87248 30.968-6.31857 32.4131-4.99559 34.0582-4.64295 34.8516-4.87809 35.3218-5.6715 35.4393ZM-22.921 38.4954-22.921 22.5977C-22.8711 21.609-23.6323 20.7671-24.621 20.7173-24.6225 20.7172-24.624 20.7172-24.6253 20.717-25.5501 20.6938-26.3186 21.4245-26.3419 22.3494-26.3439 22.4322-26.3398 22.5153-26.3296 22.5977L-26.3296 38.4954C-26.3296 39.524-25.7714 40.1116-24.6253 40.2292-23.6521 40.2617-22.8367 39.4992-22.8042 38.526-22.8038 38.5158-22.8035 38.5056-22.8034 38.4954ZM-14.6929 8.37499-14.6929 3.58503C-14.3794-0.842368-17.0633-2.27252-22.7446-0.705282-24.0082-0.352641-24.5666 0.323266-24.4489 1.35168-24.3314 2.38023-23.3322 2.79162-22.0687 2.55661-19.1302 1.6457-17.6021 1.99821-17.9546 3.58503L-17.9546 8.37499C-21.6025 8.11673-25.2615 8.05784-28.9156 8.1986-30.1498 8.1986-30.9138 8.61013-31.149 9.40354-31.3841 10.1969-30.9138 11.0491-29.7678 11.6368-26.7616 12.5315-23.8167 13.621-20.952 14.8986-21.4651 14.8791-21.9761 14.8202-22.4801 14.7224L-26.9174 14.7224C-28.3866 14.7224-29.2976 15.1043-29.6503 15.9271-30.0029 16.75-29.18 17.5728-27.9458 18.131L-26.741 18.6601C-23.8025 20.1294-21.5398 21.334-20.0705 22.2451-19.4615 22.7564-18.5532 22.6772-18.042 22.0683-17.9597 21.9702-17.8907 21.8617-17.8371 21.7454-17.367 20.9228-17.6609 20.2469-18.6894 19.6885-20.5564 18.6769-22.5267 17.8691-24.5666 17.2789-19.5416 17.5139-16.3091 17.6315-14.8104 17.6315L-13.2825 18.4837C-12.1364 19.1596-11.0491 19.8355-10.0206 20.5406-9.2946 21.114-8.2413 20.9905-7.66794 20.2646-7.64822 20.2395-7.62918 20.2141-7.61096 20.188-7.13701 19.3749-7.41186 18.3314-8.22512 17.8573-8.2549 17.8399-8.28537 17.8234-8.31624 17.8078-13.6057 15.0232-19.1446 12.7408-24.8603 10.9904-18.4543 10.9904-13.1061 11.196-8.40436 11.6661-9.0343 11.9872-9.6176 12.3926-10.1381 12.8711-11.0491 13.3118-11.2254 13.9877-10.6377 14.928-10.0313 15.6057-9.02261 15.7428-8.25735 15.2513-6.51169 14.0567-4.85225 12.741-3.29127 11.3135-2.82113 10.9904-2.32147 10.579-1.73383 10.1087-1.07574 9.40639-1.00203 8.33827-1.55744 7.55221-1.97822 6.93546-2.81909 6.77661-3.43584 7.19725-3.57537 7.29231-3.69573 7.41281-3.79079 7.55221-4.13269 7.69296-4.42807 7.92715-4.64295 8.22811-4.84083 8.54104-5.07787 8.82732-5.34823 9.08027-6.58241 8.87451-7.9636 8.69812-9.46229 8.58075-10.961 8.46312-12.4302 8.37499-14.6929 8.37499M-30.8551 37.1436-30.8551 23.6263C-30.8053 22.6374-31.5663 21.7956-32.5552 21.7457-32.5565 21.7456-32.558 21.7454-32.5595 21.7454-33.5879 21.7454-34.0875 22.4801-34.0875 23.6263L-34.0875 37.1436C-34.1923 37.8829-33.678 38.5669-32.9388 38.6717-32.813 38.6895-32.6853 38.6895-32.5595 38.6717-31.7212 38.769-30.9627 38.1685-30.8653 37.3302-30.8581 37.2683-30.8547 37.2059-30.8551 37.1436M-27.4169 7.02331C-26.7272 7.77782-25.5561 7.83046-24.8014 7.14068-24.7606 7.10314-24.7215 7.06397-24.6841 7.02331-24.1257 6.20039-24.2727 5.34823-25.1836 4.43732-27.8767 2.65766-30.6844 1.05752-33.5879-0.352641-34.4814-0.865623-35.6212-0.564253-36.1446 0.323266-36.4972 1.23418-36.1446 1.99821-34.9691 2.55648-32.2174 3.60787-29.6639 5.11826-27.4169 7.02331" transform="matrix(1 0 0 -1.00069 406.215 775.922)"/><path d="M0 0C1.70432-2.62516 3.46752-5.47553 5.28948-8.55124 5.64199-9.34465 5.28948-10.0793 4.26093-10.7846 3.23252-11.4897 2.49786-11.0196 2.05696-10.0792L-2.90926-1.88057C-3.4969-1.08716-3.32065-0.32313-2.4096 0.352777-1.65305 0.858415-0.644627 0.760089 0 0.117638ZM-14.0464 1.02855C-12.876-0.852703-11.8447-2.81691-10.9608-4.84858-10.5201-6.08289-10.7846-6.96429-11.8131-7.40506-12.8416-7.84582-13.635-7.17005-14.2227-6.024-14.7039-5.33558-15.1078-4.59671-15.4275-3.82003-16.1034-2.43898-16.603-1.29293-16.9556-0.382017-17.5025 0.281923-17.4077 1.26355-16.7437 1.81053-16.6551 1.88356-16.5586 1.94653-16.456 1.99821-15.5528 2.3586-14.5223 1.99413-14.0464 1.14619ZM-21.5692-0.499518-21.5692-7.17005C-21.8043-9.02138-20.7758-9.87368-18.6306-9.75604L-10.2557-9.75604C-8.0811-9.96181-6.93505-8.78625-6.81755-6.14164-6.81755-5.14247-6.08289-4.61357-4.93684-4.61357-3.95372-4.67654-3.19866-5.50966-3.23252-6.49428-3.23252-11.2841-5.34823-13.5762-9.10951-13.3412L-19.6885-13.3412C-22.3502-13.6343-24.7457-11.714-25.0387-9.05239-25.0861-8.62142-25.0756-8.18595-25.0073-7.75783L-25.0073-0.382017C-25.0073 0.52903-24.4195 1.02841-23.3029 1.14619-22.4152 1.16618-21.6608 0.501286-21.5692-0.382017ZM-28.416 16.9557-16.6617 16.9557C-15.0699 17.9306-13.6335 19.1389-12.4008 20.5408-12.1658 20.7759-12.1069 20.952-12.2245 21.0697-12.4813 21.2208-12.7809 21.2828-13.0767 21.246L-23.3616 21.246C-24.9229 19.7116-26.6139 18.3156-28.416 17.0732ZM-27.7402-2.05696C-28.7207-5.22665-30.231-8.20744-32.2068-10.8726-32.825-11.7631-34.0465-11.9864-34.9398-11.3722-35.8507-10.5788-35.9682-9.78542-35.263-8.99201-33.516-6.43118-32.0853-3.66839-31.002-0.763897-30.7954-0.0129197-30.019 0.428528-29.2679 0.221948-29.1551 0.19094-29.0467 0.145925-28.945 0.0881263-28.075-0.238539-27.5665-1.14401-27.7402-2.05696M-20.8933 24.3903-8.58062 24.3903C-6.52366 24.0377-5.93588 23.0091-6.84692 21.3047-8.27829 19.7538-9.83084 18.3191-11.4899 17.0144L-2.67412 17.0144C-0.950078 16.8969-0.0391672 15.8096 0.0587509 13.7526L0.0587509 5.20135C0.176253 3.02676-0.675907 2.0473-2.49773 2.26272L-32.0305 2.26272C-32.8239 2.26272-33.2941 2.79162-33.3822 3.79079-33.4027 4.58148-32.8163 5.25725-32.0305 5.34823L-4.11392 5.34823C-3.43815 5.34823-3.08551 5.73025-3.08551 6.55317L-3.08551 7.90485-29.5326 7.90485C-31.2371 8.94319-31.2371 10.0303-29.5326 11.1666L-3.08551 11.1666-3.08551 12.6359C-3.08551 13.3413-3.4969 13.6645-3.93767 13.6645L-31.5015 13.6645C-32.2068 13.6645-32.53 13.9584-32.53 14.5166-32.7654 14.3091-33.0683 14.194-33.3822 14.1934-34.5282 13.6057-35.3216 13.7232-35.7919 14.5166-36.2816 15.4326-35.9362 16.5721-35.0203 17.062-34.9938 17.0761-34.9668 17.0897-34.9398 17.1026-30.4158 18.7554-26.5631 21.8541-23.9788 25.9184-23.607 26.8882-22.5193 27.3729-21.5495 27.0011-21.5063 26.9846-21.4639 26.9665-21.4223 26.9469-20.625 26.351-20.398 25.2536-20.8933 24.3903" transform="matrix(1 0 0 -1.00069 451.792 762.866)"/><path d="M0 0 0-1.52807C-0.0893503-2.00678 0.226028-2.46726 0.704602-2.55661 0.811632-2.57661 0.921518-2.57661 1.02855-2.55661L18.9832-2.55661C19.4533-2.55661 19.7474-2.23335 19.8354-1.52807L19.8354 0C19.8354 0.675907 19.4533 1.02841 18.9832 1.02841L1.14605 1.02841C0.649931 1.11246 0.179924 0.778313 0.0960141 0.282195 0.0734386 0.149053 0.0807824 0.0125118 0.117502-0.117502ZM0.499518-13.3412 20.3644-13.3412C21.0402-13.3412 21.4517-13.9877 21.5692-14.8986 21.6867-15.8096 21.0402-16.4266 20.3644-16.4266L13.635-16.4266 13.635-23.2735C14.1051-27.9558 10.1872-29.2094 1.88071-27.0349 0.954293-26.7931 0.399152-25.846 0.640956-24.9195 0.882759-23.9931 1.82998-23.4381 2.75639-23.6797 2.86995-23.7094 2.98025-23.7506 3.08551-23.8024 7.99297-25.2717 10.3732-24.9191 10.2557-22.774L10.2557-16.4266 0.52903-16.4266C-0.382017-16.4266-0.881535-15.9271-0.999173-14.8985-0.913222-14.108-0.265195-13.4973 0.52903-13.4587ZM-1.02841 3.76142 21.099 3.76142C22.0955 3.90095 23.0165 3.20627 23.156 2.20982 23.1795 2.04214 23.1795 1.87214 23.156 1.70432L23.156-3.26176C23.2983-4.24149 22.6194-5.15104 21.6398-5.29329 21.4602-5.31926 21.2779-5.31804 21.099-5.28948L-0.91091-5.28948C-2.4096-5.28948-3.08551-4.73108-2.96801-3.26176L-2.96801 1.46932C-3.08551 2.96801-2.4096 3.64391-0.91091 3.64391ZM24.978 5.81838-3.4969 5.81838C-5.20122 6.83699-5.20122 7.92443-3.4969 9.08027L8.49249 9.08027C8.23314 9.55545 7.94864 10.0163 7.64033 10.4613L7.46394 10.7846C6.92227 11.4941 7.05813 12.5084 7.76762 13.05 7.83862 13.1042 7.91396 13.1526 7.99297 13.1943 8.91571 13.671 10.0503 13.3095 10.5271 12.3868 10.5348 12.3721 10.5422 12.3571 10.5496 12.3422 10.7313 11.8564 10.9679 11.3929 11.2547 10.961 11.6956 10.0499 12.0481 9.43278 12.2539 9.08027L25.0955 9.08027C26.6039 7.92443 26.6039 6.79796 25.0955 5.70087ZM-2.4096-7.34644 23.2735-7.34644C27.1917-7.34644 28.1026-10.2849 26.0064-16.1622 25.6543-17.1909 24.5347-17.7394 23.5059-17.3873 23.4873-17.3807 23.4685-17.3739 23.4499-17.367 22.4213-16.9262 22.1276-16.0739 22.5977-14.8104 23.8319-11.7249 23.5086-10.2556 21.5692-10.3438L-0.734658-10.3438C-1.64557-10.3438-2.05696-10.9315-1.93946-11.7249L-1.93946-15.1336C-1.93946-16.2797-2.61523-16.8673-3.64378-16.8673-4.4788-16.99-5.25507-16.4124-5.37761-15.5774-5.39923-15.4304-5.39923-15.2808-5.37761-15.1336L-5.37761-10.2849C-5.49511-8.32589-4.50573-7.34644-2.4096-7.34644M-7.43457 2.2921-7.43457-25.9476C-7.44966-26.8875-8.19955-27.65-9.13902-27.6813-9.99907-27.6707-10.6876-26.9647-10.6769-26.1047-10.6762-26.0521-10.6729-25.9998-10.6671-25.9476L-10.6671-3.70266C-11.0196-4.29031-11.3724-4.90733-11.6955-5.58324-11.9306-5.81838-12.0481-5.99463-12.0481-6.11213-12.6278-7.14748-13.8881-7.58852-14.9868-7.14068-15.6967-6.31109-15.7686-5.11064-15.163-4.20205-11.9619 0.280971-9.62956 5.32443-8.28673 10.6671-7.9636 11.9308-7.22894 12.4302-6.08289 12.2245-5.07311 11.8036-4.55074 10.6825-4.87809 9.63854-5.58324 7.58158-6.40602 5.14247-7.43457 2.2921" transform="matrix(1 0 0 -1.00069 476.212 748.751)"/><path d="M0 0-1.55744-3.93767 19.3358-3.93767C20.5994-3.93767 21.2753-4.61357 21.3928-5.64199 21.5103-6.67067 20.5994-7.34658 19.3358-7.34658L-2.90926-7.34658-7.87533-17.2789 1.88071-17.2789 1.88071-11.4017C1.88071-10.4908 2.43911-9.99118 3.58503-9.87368 4.73108-9.75604 5.3481-10.4908 5.46573-11.4017L5.46573-17.2789 17.6315-17.2789C18.621-17.2612 19.4495-18.0248 19.5122-19.0127 19.5122-20.1294 18.8363-20.717 17.8076-20.717L5.46573-20.717 5.46573-26.1826 20.8933-26.1826C22.1274-26.1826 22.774-26.9468 22.774-28.0635 22.774-29.18 21.9806-29.6209 20.717-29.6209L5.46573-29.6209 5.46573-37.6726C5.45703-38.6756 4.74536-39.5346 3.76128-39.7296 2.49773-39.7296 1.88071-39.3769 1.88071-38.3484L1.88071-29.5326-17.2789-29.5326C-18.3073-29.5326-18.7776-28.945-18.6599-27.8283-18.6448-26.8886-17.8951-26.1258-16.9556-26.0946L1.88071-26.0946 1.88071-20.5406-10.1087-20.5406C-12.2831-20.5406-12.8417-19.2771-11.813-17.1026L-6.84692-7.34658-15.6627-7.34658C-16.5736-7.34658-17.1025-6.78804-17.1906-5.64199-17.2246-4.75474-16.5484-4.0005-15.6627-3.93767L-5.37761-3.93767-3.17363 1.2048C-2.90898 2.07423-1.98951 2.56437-1.12007 2.29972-1.05888 2.28108-0.998901 2.25892-0.940286 2.23335-0.0849983 1.92613 0.359577 0.983805 0.052359 0.128382 0.0367193 0.0848624 0.0193116 0.0421592 0 0" transform="matrix(1 0 0 -1.00069 527.402 737.9)"/><path d="M0 0 33.5586 0C37.4765 0.235139 38.3288-2.39002 36.1151-7.87533 35.8033-8.88403 34.7608-9.47616 33.7348-9.22728 32.899-8.96372 32.435-8.07253 32.6984-7.23683 32.7418-7.09906 32.8038-6.96782 32.8827-6.84692 34.1168-4.23156 33.9405-3.02676 32.3536-3.26176L17.8665-3.26176 17.8665-7.52269 28.1221-7.52269C29.8242-7.63312 31.128-9.08041 31.0607-10.7846L31.0607-18.4837C31.0607-21.9218 28.6217-23.2147 23.3616-22.4213 21.8924-22.0687 21.187-21.5104 21.3045-20.717 21.4222-19.9236 22.3918-19.1007 23.8905-19.3358 26.3884-20.0116 27.6519-19.571 27.6519-17.984L27.6519-11.813C27.6013-11.3298 27.2652-10.9241 26.7998-10.7846L17.8665-10.7846 17.8665-25.4775C17.8665-26.2709 17.1906-26.741 16.1622-26.8585 15.1335-26.976 14.6048-26.212 14.6048-25.3011L14.6048-10.9315 6.67053-10.9315C5.87713-10.9315 5.4656-11.3429 5.4656-11.7836L5.4656-21.7161C5.40304-22.6018 4.6488-23.2781 3.76128-23.2441 2.61523-23.2441 2.05696-22.627 2.05696-21.7161L2.05696-10.7552C2.05696-8.81562 3.20301-7.81658 5.4656-7.81658L14.5459-7.81658 14.5459-3.55579 1.20466-3.55579C0.411256-3.55579 0-3.82017 0-4.40781L0-7.34644C0-8.46298-0.676043-9.05076-1.70445-9.05076-2.52302-9.17357-3.2861-8.60958-3.40877-7.79102-3.43094-7.6436-3.43094-7.49386-3.40877-7.34644L-3.40877-3.05613C-3.64391-0.852295-2.49786 0.117502 0 0M29.7972 14.2226 29.7972 10.2849 35.6741 10.2849C36.5345 10.2743 37.2229 9.56823 37.2123 8.70832 37.2116 8.65569 37.2083 8.60347 37.2024 8.55124 37.3071 7.81196 36.7929 7.12789 36.0536 7.02318 35.9279 7.00536 35.8001 7.00536 35.6741 7.02318L29.7972 7.02318 29.7972 2.73287C29.7055 1.84956 28.9511 1.18467 28.0635 1.20466 27.0349 1.20466 26.5353 1.82182 26.5353 2.73287L26.5353 7.02318 17.8665 7.02318 17.8665 2.55648C17.8558 1.69643 17.1498 1.00788 16.2898 1.01848 16.2374 1.01916 16.1849 1.02256 16.1327 1.02841 15.0161 1.02841 14.4284 1.55731 14.4284 2.55648L14.4284 7.02318 6.34727 7.02318 6.34727 2.73287C6.36495 1.74321 5.60132 0.914854 4.61357 0.852159 3.58503 0.852159 3.08537 1.58682 3.08537 2.73287L3.08537 7.02318-2.55661 7.02318C-3.29331 6.90187-3.9888 7.40057-4.11011 8.13713-4.13269 8.27421-4.13391 8.41375-4.11406 8.55124-4.19538 9.4238-3.55375 10.1971-2.68119 10.2783-2.63971 10.2821-2.59809 10.2844-2.55661 10.2849L3.17363 10.2849 3.17363 13.6937C3.17363 14.6048 3.67315 15.1336 4.70156 15.2513 5.59439 15.2558 6.34455 14.5819 6.43539 13.6937L6.43539 10.2849 14.634 10.2849 14.634 14.0464C14.634 14.8398 15.2218 15.2805 16.3384 15.3982 17.4551 15.5157 17.9546 14.8398 18.0721 14.0464L18.0721 10.2849 26.6821 10.2849 26.6821 14.2226C27.6226 15.9271 28.6609 15.9271 29.7972 14.2226" transform="matrix(1 0 0 -1.00069 558.786 750.75)"/></g></svg>