<svg width="326" height="327" xmlns="http://www.w3.org/2000/svg" xmlns:xlink="http://www.w3.org/1999/xlink" xml:space="preserve" overflow="hidden"><defs><clipPath id="clip0"><rect x="286" y="571" width="326" height="327"/></clipPath></defs><g clip-path="url(#clip0)" transform="translate(-286 -571)"><path d="M1.73337 415.976 324.027 415.976 324.027 93.6821 1.73337 93.6821Z" fill="#FFFFFF" transform="matrix(1.0005 0 0 -1 286.038 988.71)"/><path d="M0 91.9489 325.761 91.9489 325.761 417.71 0 417.71ZM3.46675 414.243 322.294 414.243 322.294 95.3431 3.46675 95.3431Z" fill="#192286" transform="matrix(1.0005 0 0 -1 286.038 988.71)"/><path d="M11.1223 406.262 314.602 406.262 314.602 103.396 11.1223 103.396Z" fill="#0F218B" transform="matrix(1.0005 0 0 -1 286.038 988.71)"/><path d="M22.2446 376.47 41.9974 376.47 41.9974 341.839 22.2446 341.839Z" fill="#FFFFFF" transform="matrix(1.0005 0 0 -1 286.038 988.71)"/><path d="M283.727 376.47 303.516 376.47 303.516 341.839 283.727 341.839Z" fill="#FFFFFF" transform="matrix(1.0005 0 0 -1 286.038 988.71)"/><path d="M22.2446 307.209 41.9974 307.209 41.9974 272.578 22.2446 272.578Z" fill="#FFFFFF" transform="matrix(1.0005 0 0 -1 286.038 988.71)"/><path d="M283.727 307.209 303.516 307.209 303.516 272.578 283.727 272.578Z" fill="#FFFFFF" transform="matrix(1.0005 0 0 -1 286.038 988.71)"/><path d="M22.2446 238.886 41.9974 238.886 41.9974 204.255 22.2446 204.255Z" fill="#FFFFFF" transform="matrix(1.0005 0 0 -1 286.038 988.71)"/><path d="M283.727 238.886 303.516 238.886 303.516 204.255 283.727 204.255Z" fill="#FFFFFF" transform="matrix(1.0005 0 0 -1 286.038 988.71)"/><path d="M22.2446 167.819 41.9974 167.819 41.9974 133.188 22.2446 133.188Z" fill="#FFFFFF" transform="matrix(1.0005 0 0 -1 286.038 988.71)"/><path d="M283.727 167.819 303.516 167.819 303.516 133.188 283.727 133.188Z" fill="#FFFFFF" transform="matrix(1.0005 0 0 -1 286.038 988.71)"/><path d="M0 0 0.25279 184.168-27.3364 158.926-27.2281 197.168 13.2169 237.577 50.4115 196.699 50.4115 159.829 25.1696 184.06 25.0974-0.325109Z" fill="#FFFFFF" fill-rule="evenodd" transform="matrix(1.0005 0 0 -1 437.457 852.525)"/><path d="M0 0 0 2.23879-17.55 2.23879-17.55 0C-17.4251-0.347587-17.1989-0.649404-16.9001-0.866686L-16.4307-1.11948-1.29995-1.11948-0.758208-0.54174ZM0 8.37791-17.55 8.37791-17.55 5.56122 0 5.56122ZM0 11.7 0 13.686-1.11948 14.8055-16.4307 14.8055C-16.7936 14.6916-17.1103 14.4638-17.3334 14.1556-17.3334 14.1556-17.3334 13.9027-17.55 13.686L-17.55 11.7362ZM5.34459-10.8695C6.06029-10.8146 6.596-10.1895 6.54079-9.47361 6.53948-9.45732 6.53802-9.44136 6.53622-9.42507 6.53508-9.01754 6.4227-8.618 6.21128-8.2696 6.00703-7.93374 5.70439-7.66906 5.34459-7.51123L-16.7195-7.51123C-18.6747-7.52263-20.5509-6.7408-21.9196-5.34459-23.3883-4.03471-24.3368-2.24026-24.5917-0.28895L-24.5917 13.686C-24.6795 14.039-24.813 14.3791-24.9891 14.6972-25.4009 15.3658-26.0894 15.8158-26.8668 15.925L-32.2114 15.925-33.0779 15.6362C-33.095 15.5285-33.095 15.4187-33.0779 15.3111-33.1108 15.0474-33.1108 14.7804-33.0779 14.5167-33.0831 14.1444-33.0092 13.775-32.8613 13.4334-32.6749 13.0695-32.3863 12.7684-32.0307 12.5665L-28.9251 12.5665C-28.7463 12.6017-28.5622 12.6017-28.3835 12.5665-28.0024 12.3985-27.7701 12.0067-27.8058 11.5915L-27.8058-1.04748-29.6113-3.06964C-30.9836-4.55023-32.3557-5.92233-33.728-7.15012-33.9521-7.42441-34.0677-7.77135-34.0529-8.12529-34.0744-8.64276-33.8931-9.14801-33.5475-9.53355-33.3134-9.91339-32.9093-10.1559-32.464-10.1834-32.0803-10.1673-31.7236-9.98228-31.489-9.67802L-26.1084-3.82801C-25.1846-5.52604-23.9612-7.04311-22.4974-8.30576-21.1875-9.66239-19.399-10.4532-17.5139-10.5087ZM-24.5195 23.4C-24.2929 23.07-24.1674 22.6809-24.1584 22.2807-24.1405 21.8846-24.2993 21.501-24.5918 21.2334-24.8871 20.9375-25.2937 20.7799-25.7113 20.8001-26.0964 20.8309-26.4682 20.9549-26.7946 21.1613L-31.7058 26.3252C-31.7718 26.9077-31.6027 27.4926-31.2362 27.9503-30.9082 28.24-30.4824 28.3948-30.0447 28.3835L-29.6113 28.3835-24.6642 23.5085ZM5.92217 20.9085-7.40275 20.9085-8.2696 18.1278 1.04732 18.1278C1.75292 17.8979 2.36225 17.4407 2.78053 16.8277 2.97305 16.5283 3.14196 16.2144 3.28627 15.889L3.28627-2.1668C3.07697-2.83672 2.60902-3.39573 1.98616-3.71954 1.68793-3.88437 1.37324-4.01744 1.04732-4.11664L-18.4167-4.11664C-19.0717-3.98666-19.6453-3.59542-20.0056-3.03332-20.1633-2.76147-20.2846-2.47008-20.3667-2.1668L-20.3667 15.889C-20.2605 16.582-19.8673 17.198-19.2836 17.5864-19.0187 17.8028-18.7275 17.9848-18.4167 18.1279L-11.9167 18.1279C-11.7787 18.5755-11.6821 19.0348-11.6279 19.5002-11.5863 19.9792-11.4894 20.4517-11.3389 20.9085L-22.1724 20.9085C-22.5469 20.8855-22.9049 21.0645-23.1113 21.3779-23.3368 21.7334-23.4502 22.1486-23.4362 22.5695-23.4527 22.986-23.3526 23.3986-23.1472 23.7613-22.9293 24.0806-22.5578 24.2594-22.1724 24.2309L-14.95 24.2309-16.9001 27.5892C-16.9023 27.9421-16.8154 28.2899-16.6473 28.6002L-16.3584 28.9614C-15.9758 29.1481-15.5564 29.2468-15.1308 29.2502-14.1918 29.2502-13.3611 28.6003-12.639 27.3002L-10.9778 24.2307-6.4999 24.2307-4.5139 27.8419C-4.22495 28.4918-3.86385 28.8529-3.39443 28.8891L-2.23879 28.8891C-1.61496 28.6689-1.2058 28.0698-1.22779 27.4085-1.26965 26.8187-1.45566 26.2483-1.76937 25.7473-2.27495 24.9891-2.63622 24.4834-2.81669 24.1584L5.92217 24.1584C6.50137 23.8169 6.86834 23.2052 6.89733 22.5335 6.87078 21.9872 6.63851 21.4712 6.24711 21.0891ZM-42.1419-2.38343-57.7782-2.38343-57.7782-11.8807C-57.9152-12.2445-58.1866-12.5419-58.5366-12.7113-58.8848-12.9228-59.2845-13.0351-59.6922-13.0363-60.4187-13.1215-61.0787-12.6063-61.1726-11.8807L-61.1726-2.38343-79.2284-2.38343C-79.6043-2.41438-79.9663-2.23342-80.1673-1.91401-80.3928-1.55844-80.5062-1.14326-80.4922-0.722374-80.5266-0.30426-80.4254 0.113528-80.2033 0.469421-79.9853 0.788667-79.6138 0.967509-79.2284 0.939005L-61.1726 0.939005-61.1726 7.0778-74.9673 7.0778C-75.3063 7.21853-75.5954 7.45748-75.7977 7.76385-75.9488 8.05313-76.0234 8.37661-76.0143 8.70286-76.0167 9.05582-75.9298 9.40357-75.7617 9.71402-75.7043 9.86534-75.6317 10.0105-75.545 10.1473-74.1361 12.0658-72.9262 14.1227-71.9338 16.2861L-69.6227 21.0168-78.6505 21.0168C-79.2297 21.3585-79.5967 21.97-79.6255 22.6418-79.599 23.188-79.3669 23.704-78.9755 24.0863L-78.6505 24.339-68.5032 24.339-66.806 29.9363C-66.3438 30.5479-65.6225 30.9085-64.856 30.9113-64.4338 30.9173-64.0281 30.7472-63.7367 30.4417-63.422 30.1022-63.2999 29.6271-63.4114 29.1779L-64.8199 24.339-43.4058 24.339C-42.9942 24.4492-42.5559 24.3079-42.2863 23.9779-42.021 23.638-41.8809 23.2173-41.8892 22.7861-41.8855 22.3666-41.998 21.9542-42.2142 21.5945-42.3974 21.2609-42.7375 21.0433-43.117 21.0166L-65.9393 21.0166-70.9228 10.6889-70.67 10.4359-61.1726 10.4359-61.1726 16.5389C-61.1248 16.8931-60.9441 17.2158-60.6671 17.4417-59.6272 17.9924-58.3379 17.5958-57.7872 16.556-57.7842 16.5503-57.7811 16.5446-57.7782 16.5389L-57.7782 10.4359-45.6448 10.4359C-45.2312 10.4509-44.8333 10.2784-44.5615 9.96648-44.2785 9.66516-44.1345 9.25942-44.1642 8.84701-44.0989 8.03994-44.6129 7.29899-45.392 7.07764L-57.7782 7.07764-57.7782 0.938842-41.9976 0.938842C-41.6231 0.961645-41.2649 0.78264-41.0585 0.469258-40.8328 0.11369-40.7196-0.301654-40.7336-0.722537-40.7214-1.14994-40.8209-1.5731-41.0224-1.95033-41.2574-2.24498-41.6213-2.40672-41.9976-2.38359ZM-116.748 17.6583C-117.025 17.968-117.416 18.1509-117.831 18.1639-118.334 18.1305-118.803 17.8963-119.131 17.5139-119.498 17.1296-119.835 16.7192-120.142 16.2861-121.13 14.8659-121.96 13.6621-122.634 12.675-124.62 9.96665-126.534 7.47507-128.304 5.27211-128.326 5.11656-128.326 4.95824-128.304 4.80269-128.331 4.3507-128.127 3.91564-127.762 3.64722-127 3.16998-126.032 3.16998-125.27 3.64722-124.937 3.86059-124.703 4.19857-124.62 4.5859L-122.634 6.78885-122.634-11.0503C-122.559-11.7644-121.92-12.2825-121.206-12.2076-121.2-12.2069-121.195-12.2064-121.19-12.2059-120.771-12.2041-120.36-12.0919-119.998-11.8808-119.665-11.6899-119.4-11.3993-119.24-11.0503L-119.24 11.2666C-118.934 11.9759-118.52 12.6338-118.012 13.2166-117.184 14.1264-116.633 15.2541-116.423 16.4666-116.441 16.8788-116.539 17.2834-116.712 17.6582ZM-117.579 27.9861C-118.257 26.3307-119.028 24.7151-119.89 23.1472-121.356 20.6609-122.946 18.2504-124.656 15.925-124.917 15.543-125.349 15.3137-125.812 15.3111-126.289 15.314-126.745 15.5093-127.076 15.8528-127.421 16.1677-127.618 16.6133-127.618 17.0804-127.603 17.481-127.45 17.8637-127.184 18.1639-125.661 20.2911-124.251 22.4969-122.959 24.7723-122.49 25.6028-121.912 26.6138-121.262 27.9139L-120.973 28.7446C-120.496 29.3574-119.764 29.7169-118.987 29.7196-118.579 29.7434-118.182 29.5846-117.904 29.2862-117.628 28.8854-117.512 28.3959-117.579 27.9139ZM-88.6895 14.0471-94.0339 14.0471-94.0339-7.40291C-94.4594-9.07162-95.5943-10.4706-97.1395-11.2308-97.8688-11.5386-98.6328-11.7569-99.4147-11.8807L-102.231-11.8807-106.456-11.0501C-107.286-10.8889-108.08-10.5833-108.804-10.1474-109.706-9.60587-110.176-8.99181-110.176-8.34192-110.139-7.87836-109.918-7.44884-109.562-7.15012-109.12-6.99946-108.656-6.92583-108.19-6.93349-107.22-7.01086-106.269-7.24247-105.373-7.61954-104.522-7.9813-103.621-8.21259-102.701-8.30576L-102.231-8.30576-100.534-8.30576C-99.6549-8.33508-98.8175-7.92999-98.295-7.22244-98.0447-6.88202-97.8497-6.5043-97.7175-6.10296L-97.7175 13.975-113.787 13.975-114.365 14.2639C-114.677 14.6545-114.855 15.1361-114.87 15.6362-114.866 16.1058-114.685 16.5568-114.365 16.9001-114.195 17.0625-113.999 17.1966-113.787 17.2972L-88.6895 17.2972C-88.315 17.3202-87.9568 17.1412-87.7506 16.8277-87.5249 16.4722-87.4117 16.0571-87.4257 15.6362-87.4019 15.2142-87.5161 14.7959-87.7506 14.4446-87.9454 14.1185-88.3118 13.9352-88.6895 13.975ZM-90.6756 24.339-112.342 24.339C-112.739 24.5985-113.023 24.9984-113.137 25.4585-113.191 25.8296-113.191 26.2066-113.137 26.5778L-112.306 27.6973-90.6395 27.6973C-89.7335 27.2351-89.3737 26.1258-89.8358 25.2199-89.9525 24.9914-90.1155 24.7896-90.3145 24.6278L-90.6395 24.339ZM-139.354-7.98065-136.537-7.98065C-136.033-7.95361-135.544-8.15232-135.201-8.52222-134.899-8.88854-134.733-9.34787-134.732-9.82234-134.715-10.2892-134.884-10.7434-135.201-11.0861-135.55-11.4432-136.039-11.6282-136.537-11.5919L-171.023-11.5919C-171.577-11.6183-172.115-11.4081-172.504-11.014-172.875-10.6695-173.085-10.1846-173.082-9.67786-173.082-8.52222-172.359-7.90849-170.951-7.90849L-168.965-7.90849-168.965 17.1168C-169.007 17.9678-168.576 18.7728-167.846 19.2111-167.482 19.399-167.092 19.5328-166.69 19.6085L-156.362 19.6085-156.362 23.2196-172.251 23.2196C-172.683 23.2023-173.098 23.3898-173.371 23.7251-173.66 24.0534-173.815 24.479-173.804 24.9168-173.817 25.344-173.661 25.759-173.371 26.0723-173.098 26.4078-172.683 26.5951-172.251 26.578L-156.254 26.578-156.254 28.1307C-156.219 28.4806-156.051 28.8039-155.784 29.0334-155.479 29.2132-155.128 29.3012-154.773 29.2864-153.977 29.3639-153.231 28.8865-152.968 28.1307L-152.968 25.9279-135.743 25.9279C-135.408 25.9364-135.088 25.79-134.876 25.5307-134.679 25.2176-134.578 24.8534-134.587 24.4834-134.584 24.0801-134.683 23.6823-134.876 23.3279-135.059 23.0261-135.39 22.8467-135.743 22.8585L-152.968 22.8585-152.968 19.5002-142.134 19.5002C-141.281 19.5497-140.472 19.1174-140.04 18.3807-139.821 18.0406-139.674 17.6598-139.607 17.2612L-139.607-8.01681ZM-165.462-7.98065-142.459-7.98065-142.459-0.758371-165.462-0.758371ZM-142.459 7.33059-165.462 7.33059-165.462 2.60006-142.459 2.60006ZM-142.459 10.6527-142.459 15.1306C-142.584 15.478-142.811 15.78-143.109 15.9973L-143.579 16.2501-164.343 16.2501C-164.755 16.2748-165.141 16.0462-165.318 15.6723-165.353 15.4933-165.353 15.3094-165.318 15.1308L-165.318 10.6527Z" fill-rule="evenodd" transform="matrix(1.0005 0 0 -1 532.513 975.664)"/></g></svg>