<svg width="720" height="530" xmlns="http://www.w3.org/2000/svg" xmlns:xlink="http://www.w3.org/1999/xlink" xml:space="preserve" overflow="hidden"><defs><clipPath id="clip0"><rect x="0" y="661" width="720" height="530"/></clipPath></defs><g clip-path="url(#clip0)" transform="matrix(1 0 0 1 0 -661)"><path d="M0 0 641.453 0C663.004 0 680.474-17.4705 680.474-39.0215L680.474-490.358C680.474-511.909 663.004-529.38 641.453-529.38L0-529.38C-21.5511-529.38-39.0219-511.909-39.0219-490.358L-39.0219-39.0215C-39.0219-17.4705-21.5511 0 0 0" fill="#016D2C" transform="matrix(1.00052 0 0 -1 39.1078 660.999)"/><path d="M0 0-641.392 0C-646.508-0.00503647-651.413-2.04121-655.028-5.66136-658.613-9.24553-660.628-14.1068-660.629-19.176L-660.629-470.695C-660.58-475.701-658.569-480.488-655.028-484.027-651.428-487.632-646.548-489.668-641.453-489.689L0-489.689C10.5734-489.623 19.1372-481.085 19.2372-470.513L19.2372-19.176C19.1372-8.60338 10.5734-0.0661937 0 0M-641.392 7.9141 0 7.9141C14.9713 7.9141 27.1175-4.20474 27.1509-19.176L27.1509-470.695C27.084-485.652 14.9573-497.752 0-497.785L-641.392-497.785C-656.349-497.752-668.476-485.652-668.543-470.695L-668.543-19.176C-668.509-4.20474-656.363 7.9141-641.392 7.9141" fill="#FFFFFF" fill-rule="evenodd" transform="matrix(1.00052 0 0 -1 680.831 680.845)"/><path d="M0 0 641.392 0C654.178 0 664.552-10.3471 664.586-23.1329L664.586-288.553-23.1329-288.553-23.1329-23.3156C-23.2002-10.5061-12.8707-0.0672729-0.0611572 0-0.0410113 0-0.0205056 0 0 0" fill="#FFFFFF" fill-rule="evenodd" transform="matrix(1.00052 0 0 -1 39.1078 676.705)"/><path d="M0 0C-2.85784 0-5.17462-2.31678-5.17462-5.17462-5.17462-8.03246-2.85784-10.3489 0-10.3489 2.85748-10.3492 5.17462-8.03246 5.17462-5.17462 5.17462-2.31678 2.85748 0 0 0M-4.80911 157 0.608694 135.815C2.43514 129.727 10.0445 133.136 9.74018 138.128L8.34004 158.582C25.4752 147.192 30.1325 124.067 18.7414 106.931 16.9873 104.292 14.9033 101.888 12.5401 99.7762L12.5401-3.71332C12.2041-10.2697 6.61721-15.312 0.0607974-14.9756-6.49561-14.6392-11.5375-9.05198-11.2015-2.49593L-6.02686 100.263-23.3764 124.979-16.7409 125.466C-17.7759 140.137-14.854 151.521-4.56556 157Z" fill="#016D2C" fill-rule="evenodd" transform="matrix(1.00052 0 0 -1 444.753 894.155)"/><path d="M0 0 133.014-154.078C137.337-168.079 120.474-173.376 111.89-164.853L43.4047-78.4694C40.3609-74.6341 37.8041-73.4167 35.7345-75.1212L31.2297-78.1042-9.80098-26.7854C-15.313-20.5287-17.1179-11.8292-14.5493-3.89607-10.9576 4.99187-5.90491 5.66136 0 0" fill="#016D2C" fill-rule="evenodd" transform="matrix(1.00052 0 0 -1 536.297 738.616)"/><path d="M0 0C30.4379 36.5256 68.6076 75.4867 91.3142 109.273 90.7083 117.56 91.956 125.878 94.9667 133.623 105.377 142.268 114.143 149.999 124.553 158.704 126.257 159.983 129.301 157.852 128.023 156.086L106.533 128.936C105.924 126.927 106.533 126.075 108.238 125.953L131.919 153.834C135.267 156.33 137.337 152.617 134.476 148.903L113.047 123.153C113.047 121.326 113.352 120.596 114.569 120.596L137.52 147.625C140.137 150.364 143.242 146.346 140.563 143.546L118.343 116.882C118.437 115.632 119.464 114.658 120.717 114.63L136.302 134.536C138.58 137.54 141.411 140.081 144.641 142.024 148.173 144.216 148.842 142.024 146.468 137.702L130.336 107.264C126.768 102.34 120.774 99.7873 114.752 100.628 110.119 100.42 105.66 98.8066 101.967 96.0017L16.1322-13.0276C6.87875-22.0371-4.07882-5.05266 0 0" fill="#016D2C" fill-rule="evenodd" transform="matrix(1.00052 0 0 -1 521.862 894.155)"/><path d="M0 0 0 0C-0.974918 0-1.76528-0.790367-1.76528-1.76528L-1.76528-39.0827C-1.76528-40.0576-0.974918-40.848 0-40.848L44.8656-40.848C45.8409-40.848 46.6313-40.0576 46.6313-39.0827L46.6313-1.70449C46.6313-0.729569 45.8409 0.0607974 44.8656 0.0607974ZM53.1449-18.263 53.1449-18.263 53.1449-60.2064 54.7278-60.2064 64.346-60.2064 64.346-140.198 66.1724-143.485C66.1724-143.485 74.9388-155.113 82.0611-138.493L82.0611-132.406 81.148-129.057 75.0604-115.726 70.5556-103.977 70.5556-97.0975 69.399-34.334 59.2325-34.334 59.2325-18.263ZM-48.0314-154.991-11.9926-154.991-11.9926 7.9141 53.1449 7.9141 53.1449-5.41781 75.182-25.0809 75.182-101.907 79.5651-113.351 83.5832-121.083 85.8964-127.171 86.6878-131.675 86.6878-134.476 86.6878-139.346 86.1399-144.337 82.7309-148.234 78.3478-151.034 72.9296-152.19 66.8419-151.034 63.3114-148.538 59.7804-143.79 59.7804-132.284 59.2325-69.3379 53.1449-68.9119 53.1449-154.991 89.6708-154.991 89.6708-165.949-48.0314-165.949Z" fill="#016D2C" fill-rule="evenodd" transform="matrix(1.00052 0 0 -1 282.921 744.339)"/><path d="M0 0 24.3506 0C36.8576 0.00755471 46.9903 10.1528 46.9828 22.6595 46.9756 35.156 36.8468 45.2844 24.3506 45.2919L0 45.2919ZM10.4705-89.4881C4.68788-89.4881 0-84.8002 0-79.0173L0-89.4881ZM-56.4931 65.6245 44.4397 65.6245C68.5626 64.7241 87.3882 44.4383 86.4878 20.3153 85.6341-2.5445 67.2992-20.8794 44.4397-21.7327L0.0607974-21.7327 0.0607974-89.4881 25.3853-89.4881 25.3853-110.916-56.4931-110.916-56.4931-89.4881-41.5786-89.4881C-37.87-89.5219-34.8272-86.5604-34.7603-82.8525L-34.7603 39.2043C-34.7603 42.5665-37.4858 45.2919-40.848 45.2919L-56.4931 45.2919Z" fill="#016D2C" fill-rule="evenodd" transform="matrix(1.00052 0 0 -1 123.769 801.136)"/><path d="M0 0 0 14.6713 86.8098 14.6713 86.8098 0 51.5623 0 51.5623-8.82678C51.3188-12.8855 51.1968-15.8073 51.1968-17.5931L92.7147-17.5931 92.7147-32.2644 52.8405-32.2644C58.1975-48.2138 72.0169-58.7454 94.3584-63.7373 92.7147-66.294 90.2795-70.1901 87.2357-75.4863L85.592-78.8349C63.1894-71.8137 48.9851-61.1802 42.9788-46.9356 37.7027-60.369 24.1272-71.428 2.25238-80.113-0.77094-75.2795-4.12739-70.6617-7.79215-66.294 16.2743-57.8936 29.5655-46.55 32.082-32.2644L-5.84411-32.2644-5.84411-17.5931 33.9689-17.5931C34.2736-14.2449 34.3952-8.40084 34.3952 2.55616e-15Z" fill="#FFFFFF" fill-rule="evenodd" transform="matrix(1.00052 0 0 -1 74.495 1038.74)"/><path d="M216.598 267.964 267.734 267.964 267.734 279.652 216.598 279.652ZM216.598 243.248 267.734 243.248 267.734 254.936 216.598 254.936ZM216.598 292.558 267.734 292.558 267.734 304.733 216.598 304.733ZM200.222 223.524 200.222 318.613 283.683 318.613 283.683 223.524 267.734 223.524 267.734 230.16 216.598 230.16 216.598 223.524Z" fill="#FFFFFF" fill-rule="evenodd" transform="matrix(1.00052 0 0 -1 0.0659017 1342.31)"/><path d="M0 0 0-12.9668 9.25344-12.9668 9.25344 0.182392ZM0-32.6907 0-38.7783 9.25344-38.7783 9.25344-25.3248 0-25.3248 0-32.4471ZM-38.5344-57.0413-30.2552-57.0413-30.2552-38.7783-38.5344-38.7783ZM-60.8151-34.152C-62.4156-32.8396-63.9402-31.4373-65.381-29.9512-69.8858-26.0551-73.5383-23.1332-76.3386-21.1244L-66.6592-10.6536C-61.2511-14.4047-56.0675-18.4702-51.1357-22.8289ZM-58.6846-6.4528C-64.7723-0.852243-70.0077 3.59137-74.2081 6.93954L-64.5895 17.4104C-62.6415 16.0714-59.9632 14.0622-56.6147 11.3231-53.2665 8.58323-50.5274 6.4528-48.6401 5.23542L-58.6846-6.5136ZM-61.6065-82.3658-75.9126-78.165C-72.3342-65.199-69.4487-52.0512-67.2682-38.7783-62.6152-40.4839-57.8569-41.8869-53.0233-42.9788-55.4987-53.8554-58.2785-66.9844-61.363-82.3658ZM-51.9275-14.0626-51.9275-0.608694-41.4567-0.608694-41.4567 16.9844-27.2117 16.9844-27.2117-0.608694-16.3149-0.608694-16.3149-14.0626-27.2117-14.0626-27.2117-26.2379-17.6539-26.2379-17.6539-67.329C-13.4085-56.3664-11.6415-44.5998-12.4793-32.8734L-12.4793 13.6359 21.9767 13.6359 21.9767-69.7645C21.9767-77.0289 18.6281-80.803 11.9318-81.0872L6.4528-81.0872C3.40933-81.3916 1.15695-81.5135-0.24355-81.5135-0.593225-77.2318-1.43108-73.0041-2.73912-68.9123-1.33071-68.9544 0.0726691-69.0965 1.4613-69.3382L4.80947-69.3382C8.1778-69.3382 9.69989-67.9381 9.3754-65.1374L9.3754-50.8929-0.304347-50.8929C-1.21235-62.4674-5.11454-73.6066-11.6271-83.218L-23.4372-76.0954C-22.9354-75.2007-22.3655-74.3459-21.7327-73.5387-21.1241-72.7472-20.3326-71.5906-19.176-70.1905L-38.5344-70.1905-38.5344-75.2431-50.7097-75.2431-50.7097-26.1771-41.4567-26.1771-41.4567-14.0018Z" fill="#FFFFFF" fill-rule="evenodd" transform="matrix(1.00052 0 0 -1 391.215 1036.06)"/><path d="M0 0 81.1847 81.1847 106.927 55.4433 25.7418-25.7414Z" fill="#FFFFFF" transform="matrix(1.00052 0 0 -1 533.274 1105.13)"/><path d="M0 0 39.9349 39.9349 118.039 39.9349 118.039-38.2304 78.1042-78.165 78.1042 0Z" fill="#FFFFFF" fill-rule="evenodd" transform="matrix(1.00052 0 0 -1 543.119 1042.94)"/><path d="M0 0-15.7059 0C-14.2219-8.22025-10.4201-15.8447-4.74832-21.9763-1.03823-16.1541 1.61995-9.72507 3.10463-2.98303 3.77448-0.730649 2.86144 0.24355 0.24355 0ZM-26.2375 35.1258 3.53093 35.1258C9.00953 35.1258 11.5666 32.995 11.3231 28.0032 12.5405 13.819 5.23542 8.76598-9.92293 12.784-11.758 12.9139-13.1589 14.4763-13.0884 16.3149-12.838 18.0435-11.3008 19.2893-9.55743 19.176 0.365504 16.8017 4.99187 18.4454 4.26122 24.1071 4.26122 26.4811 3.40933 27.6377 1.76528 27.6377L-22.8285 27.6377C-24.9593 27.6377-25.994 26.6027-25.994 25.2029L-25.994 6.9399 3.77448 6.9399C9.86214 6.9399 12.0534 4.32237 10.1665-1.58253 8.19758-10.8331 4.72205-19.6973-0.121595-27.8204 3.39027-32.6727 8.35947-36.277 14.0626-38.1085 15.4627-39.0827 15.7062-40.726 14.7928-43.1007 13.8798-45.4747 11.8102-45.4747 10.1665-44.5005 4.83574-41.2318-0.21405-37.5264-4.93107-33.421-9.43583-37.2566-13.3319-40.3001-16.6801-42.6744-18.5918-43.6619-20.942-42.9133-21.9299-41.0019-21.9457-40.971-21.9612-40.9401-21.9763-40.9091-22.885-39.455-22.4429-37.5397-20.9891-36.6306-20.7467-36.4792-20.4851-36.3623-20.211-36.2824-16.2207-34.0383-12.6228-31.1596-9.55743-27.7596-16.17-19.557-20.8888-9.99488-23.3764 0.24355L-25.8724 0.24355-25.8724-42.3701C-25.7968-44.0828-27.1239-45.533-28.8371-45.6085-28.9853-45.6153-29.1338-45.611-29.2813-45.5963-31.4121-45.5963-32.5079-44.2569-32.5079-42.3697L-32.5079 26.9682C-32.7515 32.1428-30.4991 34.8819-25.994 35.1258ZM-45.0484 12.4189-45.0484 25.5069C-45.0484 27.4549-45.9614 28.4899-47.1792 28.7334L-55.0929 28.7334C-56.4931 28.7334-57.2237 27.4549-57.2237 25.5069L-57.2237 12.4189ZM-45.0484 6.0265-57.2237 6.0265-57.2237 3.10463C-57.1636 0.603298-57.2859-1.89911-57.5888-4.38317L-57.5888-8.27924-44.8048-8.27924ZM-57.2237 35.1258-44.4397 35.1258C-41.0829 35.3147-38.2081 32.7464-38.0193 29.39-37.9998 29.0493-38.0096 28.7075-38.0477 28.3679L-38.0477-34.03C-38.0477-43.7094-43.3439-46.6921-53.3276-42.918-55.7016-41.9438-56.615-40.5436-56.1279-38.6564-55.6408-36.7695-54.2407-36.2824-51.8663-36.526-46.6921-38.1696-44.3177-37.4998-44.8048-34.3952L-44.8048-15.1583-57.5888-15.1583C-57.6576-20.6233-58.1256-26.076-58.989-31.4729-59.6405-35.0139-60.7028-38.4668-62.1544-41.761-63.1747-43.6903-65.445-44.5933-67.5118-43.8918-69.158-43.413-70.1045-41.6898-69.6257-40.0436-69.5458-39.7694-69.4285-39.5072-69.2771-39.2651-67.0923-34.4167-65.6555-29.2652-65.0158-23.9855-64.0629-14.9885-63.697-5.9398-63.9201 3.10463L-63.9201 29.3421C-63.9201 32.8731-61.7285 34.8819-57.2237 35.1258" transform="matrix(1.00052 0 0 -1 91.3056 1294.66)"/><path d="M0 0-33.7865 0-34.1516-0.669491C-29.3299-6.86076-23.4574-12.1566-16.802-16.3149-9.98517-12.7351-3.81297-8.04433 1.46094-2.43514 2.19159-1.76528 2.43514-1.15659 2.19159-0.669491 1.94804-0.182752 1.46094 0 0 0M-22.7069-37.9261 8.15729-37.9261C12.9056-37.9261 15.0364-40.4217 14.2449-46.0834 13.9744-48.7937 13.8525-51.5167 13.8798-54.2407 13.8798-57.3453 13.3927-59.902 13.21-62.0328 13.21-69.825 6.4528-73.4167-6.33121-72.686-9.13149-72.1989-10.5924-70.7992-10.5924-68.4248-10.5924-66.0508-8.46164-64.8943-5.60056-64.8943 2.19159-65.5637 6.0873-64.042 6.0873-60.2672 6.0873-56.4931 6.9399-52.7189 7.18345-48.0922 7.18345-45.4743 6.20925-44.3177 3.59137-44.5613L-23.3764-44.5613C-25.7508-58.0152-35.5518-67.2682-52.8405-72.1989-54.7878-73.1149-57.1086-72.2792-58.0245-70.3322-58.0652-70.2455-58.1026-70.1577-58.1367-70.0685-58.6238-67.9377-57.6496-66.4156-55.3365-65.4418-41.3959-61.4238-33.421-54.4842-31.5341-44.5613L-48.2138-44.5613C-50.5882-44.5613-51.7447-43.4655-51.7447-41.3347-51.6465-39.2863-49.9064-37.7056-47.8577-37.8038-47.8548-37.8038-47.8519-37.8038-47.8487-37.8041L-30.4991-37.8041C-30.2555-36.1403-30.012-34.375-29.7688-32.5079-29.7688-29.8904-28.6119-28.4899-26.2379-28.2467-24.12-28.1999-22.3655-29.8785-22.3188-31.996-22.3148-32.1669-22.3227-32.3381-22.3418-32.5079-22.6163-33.4152-22.7393-34.361-22.7069-35.3082ZM-29.4033 7.12265 6.0265 7.12265C8.33069 7.26511 10.5737 6.3456 12.1142 4.62636 13.0884 2.98303 12.7232 0.852243 11.0795-1.76528 5.87001-9.22322-0.902248-15.4555-8.76634-20.0283 0.266214-24.21 9.97977-26.7257 19.9063-27.4553 21.8529-27.6783 23.2764-29.3975 23.1329-31.351 23.1329-33.4818 21.6112-34.456 19.2368-34.2128 6.45352-33.803-6.05564-30.4048-17.2891-24.2898-30.2573-29.2594-43.8684-32.3547-57.7108-33.4818-60.5719-33.4818-62.2156-32.7515-62.7027-30.6207-63.1894-28.4899-61.6069-26.8466-58.8066-26.4203-47.2623-25.336-35.8593-23.0717-24.7769-19.6628-30.116-15.9894-34.8941-11.5601-38.9607-6.5136-42.8032-10.8155-47.2054-14.5831-52.0494-17.7151-53.9716-19.0443-56.5834-18.7306-58.1367-16.9844-59.1109-15.0976-58.1367-13.3319-55.6412-11.6882-47.1162-5.76856-40.1763 2.15417-35.4302 11.3839-34.7848 13.224-32.7698 14.1924-30.9297 13.547-30.6487 13.4488-30.3815 13.315-30.1339 13.1492-28.3701 11.6307-28.0532 9.01853-29.4033 7.12265" transform="matrix(1.00052 0 0 -1 181.084 1268.79)"/><path d="M0 0C1.15659 1.64333 2.67833 1.76528 4.62636 0 6.00312-1.41993 6.27617-3.57841 5.29621-5.29657 0.723813-12.6272-4.36195-19.6253-9.92293-26.2379-8.01555-28.1453-6.25027-29.7889-4.62672-31.1689 0.691436-35.7813 5.67539-40.7652 10.2881-46.0834 11.553-47.9152 11.553-50.3392 10.2881-52.171 8.82714-53.8147 7.18345-53.5712 5.29621-51.4404 3.40897-49.31-0.791446-45.3527-6.8791-40.1177-10.41-36.5868-12.9668-34.03-14.6713-31.9604-22.1803-40.6087-30.8934-48.1329-40.5436-54.3015-43.4252-55.6815-45.4545-55.3163-46.6313-53.2057-47.3616-51.0756-46.6313-49.0668-43.4659-47.1184-35.0182-41.4387-27.3797-34.6398-20.7589-26.9074-27.6218-20.8931-34.8603-15.322-42.4309-10.2273-44.744-8.82714-45.5963-7.18345-44.866-5.29657-43.6047-3.43092-41.0707-2.94058-39.2043-4.20078-33.0357-8.01555-25.1216-13.5755-15.4627-20.8809-9.77076-14.3352-4.60082-7.35325 0 0M-49.3096 10.9576 13.5755 10.9576C15.5116 10.9248 17.0736 9.36317 17.106 7.427 17.3578 5.90059 16.3243 4.4598 14.7982 4.20833 14.5148 4.16157 14.2252 4.15905 13.9406 4.20042L-48.2138 4.20042C-50.8317 4.20042-52.0494 3.16542-51.8055 1.03464L-51.8055-56.4323C-52.2926-58.8066-51.1968-59.9636-48.5793-59.9636L16.3149-59.9636C17.9111-59.7268 19.3969-60.8298 19.6329-62.4264 19.6584-62.5983 19.6685-62.7721 19.6631-62.9462 19.702-64.773 18.3177-66.3171 16.4973-66.4768L-51.0753-66.4768C-56.7366-66.9642-59.3545-64.5899-58.8674-59.3545L-58.8674 1.52173C-59.4761 8.46164-56.4323 11.6882-49.3096 10.9576" transform="matrix(1.00052 0 0 -1 279.876 1271.22)"/><path d="M0 0C5.50667-4.37382 10.7129-9.11242 15.5843-14.1845 17.1639-15.4933 17.4812-17.7928 16.3149-19.4804 15.0324-20.8589 12.8754-20.9366 11.4968-19.6545 11.4368-19.5987 11.3788-19.5404 11.3231-19.4804 5.66136-14.0626 0.669491-9.55743-3.59173-6.02686-5.47861-4.62672-5.9657-3.04383-4.99187-1.4005-4.03602 0.376297-1.82105 1.04147-0.0446088 0.0849006-0.0294994 0.0773459-0.0147497 0.0690717 0 0.0607974ZM-26.9682 59.9632 14.4885 59.9632C16.6499 59.9297 18.3846 58.1677 18.3846 56.0063 18.0424 54.0058 16.2013 52.6182 14.1842 52.8405L-6.39236 52.8405C-6.65462 52.2905-6.78017 51.6847-6.75715 51.0753-6.75715 49.8579-7.3662 47.4224-7.85294 43.6482L8.82678 43.6482C12.1753 43.6482 13.8186 41.3959 13.8186 36.1604L13.8186 2.86108C13.8186 0.24355 12.3581-1.15659 10.2881-1.40014 8.21845-1.64333 7.0615-0.121595 7.0615 2.49593L7.0615 33.7253C7.0615 35.8561 6.14846 36.9519 4.20042 36.9519L-17.4104 36.9519C-20.211 36.9519-21.672 35.5518-21.672 33.421L-21.672 2.98303C-21.586 0.793245-23.0681-1.14868-25.2029-1.64369-27.3333-1.64369-28.3683 -3.19521e-16-28.3683 2.61753L-28.3683 36.6472C-28.8554 41.6394-26.2983 43.9526-20.5762 43.7698L-15.2803 43.7698-15.2803 44.0745C-14.3266 46.9734-13.6143 49.946-13.1495 52.9625L-26.9682 52.9625C-28.9076 52.7603-30.6437 54.1691-30.8455 56.1088-30.8585 56.2362-30.865 56.365-30.8642 56.4931-30.7038 58.5152-28.9964 60.0625-26.9682 60.024ZM-4.62636 29.5249C-4.62636 27.1509-4.62636 24.0463-4.99187 20.2718-5.35737 16.497-5.47861 12.9664-5.72215 11.0795-7.39894-3.53632-17.5456-15.7843-31.5949-20.1502-34.6387-20.8805-36.5868-20.1502-37.2562-18.3846-37.9257-16.6193-36.5868-14.3669-33.7253-13.3931-21.9871-9.78371-13.4118 0.311902-11.749 12.4793-11.2961 18.0302-11.2961 23.6088-11.749 29.1597-12.153 30.8606-11.1018 32.5669-9.40094 32.9709-9.13329 33.0346-8.85844 33.063-8.58359 33.0558-6.27041 32.8123-4.87027 31.6557-4.62636 29.5249M-41.5178 22.0371-47.6055 22.0371-47.6055-11.9926C-47.6055-19.7847-52.1102-22.7677-61.7893-20.8805-63.8262-20.7503-65.3904-19.0242-65.3202-16.9844-65.2137-15.2058-63.6855-13.8503-61.9065-13.9568-61.618-13.9741-61.3328-14.0298-61.059-14.1234-56.3715-15.5235-54.1191-14.6101-54.3626-11.2623L-54.3626 22.0371-65.9901 22.0371C-69.2771 24.188-69.2771 26.4404-65.9901 28.7942L-50.4054 28.7942C-52.2926 32.0816-55.58 37.0738-60.3283 43.709-61.9922 45.3729-62.1141 46.8946-60.6935 48.2746-59.2325 49.7359-57.5888 49.6139-55.7016 48.2746-53.5507 45.6366-51.5217 43.019-49.6143 40.4217-46.0827 43.5043-43.1874 47.2475-41.0915 51.4404-40.6044 52.8405-41.0915 53.5712-42.8568 53.5712L-63.1286 53.5712C-64.6547 53.3197-66.0955 54.3529-66.3469 55.879-66.3937 56.1624-66.3966 56.452-66.3552 56.7366-66.5232 58.5443-65.1943 60.1459-63.3866 60.3143-63.3009 60.3226-63.215 60.3269-63.1286 60.3283L-39.387 60.3283C-33.9689 59.8412-32.3252 56.7366-34.456 51.0753-37.2472 44.9013-41.4113 39.4457-46.6313 35.1255-45.4171 33.3292-44.78 31.2056-44.8048 29.0378L-38.7172 29.0378C-30.6818 29.0378-29.7076 21.7327-35.8561 7.73099-36.7166 5.64409-38.9427 4.46699-41.1523 4.93071-43.1003 5.84375-43.5266 7.60939-42.6133 10.2273-38.5956 18.1004-38.2301 22.0371-41.5178 22.0371" transform="matrix(1.00052 0 0 -1 378.303 1319.19)"/><path d="M0 0-43.2827 0C-46.0834 0-47.4224-1.33934-47.1792-3.95687L-47.1792-16.1322C-47.1792-18.7497-45.779-20.1502-42.9176-20.3934L-0.304347-20.3934C2.31354-20.3934 3.71332-19.1152 3.95687-17.228L3.95687-3.89607C3.92377-1.73435 2.16209 0.000359748 0 0M-46.8137 7.0615 4.80911 7.0615C8.01195 7.06941 10.6726 4.5947 10.8968 1.4005L10.8968-21.3068C10.8968-24.6687 8.17132-27.3941 4.80911-27.3941L-46.4485-27.3941C-51.4404-27.1509-53.9363-25.1216-53.9363-21.3068L-53.9363 1.4005C-53.6928 4.68716-51.3184 6.5744-46.8137 7.0615M-17.7147 52.4754-17.7147 41.8222 12.0537 41.8222C13.8737 41.6624 15.258 40.118 15.2191 38.2909 15.2191 35.9169 14.6713 34.7603 12.784 34.7603L-17.6539 34.7603-17.6539 21.246 16.0106 21.246C18.0504 21.3158 19.7761 19.7516 19.9067 17.7151 19.9067 15.3411 18.5062 14.1842 16.3757 14.1842L-58.5019 14.1842C-61.1198 14.1842-62.5199 15.3411-62.7635 17.7151-63.007 20.0891-61.1198 21.0025-58.5019 21.246L-24.8374 21.246-24.8374 34.7603-45.779 34.7603C-46.6356 33.6206-47.5713 32.5425-48.579 31.5337-50.2306 29.1594-52.2919 27.0977-54.6666 25.4461-56.2923 24.2096-58.5814 24.3657-60.024 25.8116-61.1604 27.4754-60.7949 29.2407-58.9282 31.1078-53.6474 36.1896-49.6427 42.447-47.2396 49.3704-46.7392 51.29-44.7775 52.4405-42.8582 51.9397-42.7755 51.9181-42.6942 51.894-42.6133 51.8667-40.6674 51.2526-39.5622 49.2031-40.1173 47.2396-40.9973 45.5477-41.7106 43.7742-42.2481 41.9438L-24.8982 41.9438-24.8982 52.9625C-24.8982 54.6058-23.7416 55.5189-21.3676 55.7628-19.4624 55.8326-17.8449 54.3774-17.7147 52.4754" transform="matrix(1.00052 0 0 -1 471.37 1312.01)"/><path d="M0 0C5.17462-5.41817 6.08766-8.70519 2.4355-9.92293 1.71132-10.382 0.827061-10.5147 0-10.2881-3.10391-9.59305-5.86318-7.82524-7.79179-5.29621-17.8852 4.6332-23.0764 18.5141-21.9763 32.6295-21.981 48.5527-14.6626 63.5934-2.13043 73.4167-0.508684 75.0676 1.65124 76.0824 3.95723 76.2778 5.00913 76.1004 5.98441 75.613 6.75751 74.878 8.4012 72.7472 7.3662 70.2513 3.59173 67.3898-7.11402 59.0624-13.2902 46.1917-13.0884 32.6295-13.7309 20.3585-8.94442 8.42566 0 0" transform="matrix(1.00052 0 0 -1 563.767 1331.92)"/><path d="M0 0 24.3506 0C26.0933-0.091376 27.4858-1.4836 27.5769-3.22658 27.5769-5.60056 26.2379-6.75715 24.3506-6.75715L-7.18345-6.75715C-10.0445-6.75715-11.4443-5.72251-11.4443-3.59173-11.4443-2.86108-11.0795-1.70449-9.67902 -6.39041e-16L12.6624 30.4379C15.3728 33.6224 16.9941 37.5897 17.2891 41.761 17.3632 47.1734 13.0351 51.621 7.6227 51.6951 7.41549 51.698 7.20791 51.694 7.00106 51.6839-0.547537 51.2576-4.44397 46.3877-4.68716 37.1954-4.68716 34.8211-6.14846 33.6037-8.27924 33.6037-10.4097 33.6037-12.175 35.0647-12.175 38.5956-12.3843 49.5539-3.67015 58.6073 7.28814 58.8163 7.65904 58.8235 8.0303 58.8203 8.4012 58.8066 17.6406 58.917 25.3227 51.7192 25.8116 42.4917 26.1688 37.7196 24.6388 32.9979 21.5504 29.3421Z" transform="matrix(1.00052 0 0 -1 613.528 1324.43)"/><path d="M0 0C17.6438 17.7791 17.5338 46.4946-0.244989 64.1381-1.4023 65.2867-2.62113 66.3725-3.89571 67.3898-7.91374 70.4948-8.82678 72.93-6.69599 74.878-6.05168 75.7792-5.00338 76.3037-3.89571 76.2778-1.61923 75.9781 0.507964 74.9784 2.19195 73.4167 14.3727 63.3081 21.623 48.4523 22.0983 32.6295 22.7681 18.5781 17.6403 4.86739 7.9141-5.29621 5.7164-7.69142 2.8895-9.42109-0.24355-10.2881-0.97168-10.5054-1.75989-10.3705-2.37398-9.92293-6.27005-8.70519-5.41781-5.41817 0 0" transform="matrix(1.00052 0 0 -1 678.943 1331.92)"/></g></svg>