<svg width="242" height="239" xmlns="http://www.w3.org/2000/svg" xmlns:xlink="http://www.w3.org/1999/xlink" xml:space="preserve" overflow="hidden"><defs><clipPath id="clip0"><rect x="713" y="401" width="242" height="239"/></clipPath></defs><g clip-path="url(#clip0)" transform="translate(-713 -401)"><path d="M0 0 203.021 0C212.883 0 220.877-7.99417 220.877-17.8556L220.877-220.877C220.877-230.739 212.883-238.733 203.021-238.733L0-238.733C-9.86135-238.733-17.8556-230.739-17.8556-220.877L-17.8556-17.8556C-17.8556-7.99417-9.86135 0 0 0" fill="#0F218B" transform="matrix(1.00193 0 0 -1 732.23 401)"/><path d="M0 0C-5.34208 0.0115906-9.68206-4.30967-9.69365-9.65163-9.69365-9.65875-9.69365-9.66576-9.69365-9.67276L-9.69365-212.673C-9.69365-218.015-5.36309-222.346-0.0210081-222.346L0-222.346 203-222.346C208.343-222.346 212.673-218.015 212.673-212.673L212.673-9.67276C212.673-4.33068 208.343 0 203 0ZM203-225.619 0-225.619C-7.14974-225.619-12.9459-219.823-12.9459-212.673L-12.9459-9.67276C-12.9459-2.5229-7.14974 3.27315 0 3.27315L203 3.27315C210.15 3.27315 215.946-2.5229 215.946-9.67276L215.946-212.673C215.946-219.823 210.15-225.619 203-225.619" fill="#FFFFFF" transform="matrix(1.00193 0 0 -1 732.251 409.183)"/><path d="M0 0C9.27047 0 16.7856 7.51521 16.7856 16.7856 16.7856 26.056 9.27047 33.5711 0 33.5711-9.27047 33.5711-16.7856 26.056-16.7856 16.7856-16.7856 7.51521-9.27047 0 0 0" fill="#FFFFFF" fill-rule="evenodd" transform="matrix(1.00193 0 0 -1 810.35 460.883)"/><path d="M0 0C-5.27254-1.22837-10.5425 2.0501-11.7709 7.32263-12.9993 12.5953-9.72081 17.8653-4.44815 19.0937L22.8284 25.3882 35.2497 41.7121C39.9519 47.2965 45.8742 51.7257 52.5598 54.658 59.4841 58.0536 66.9591 60.1852 74.6328 60.9526 86.2149 61.687 103.462 59.8825 115.883 59.3999L137.977 26.6261C140.984 22.1357 139.782 16.0579 135.292 13.0508 130.801 10.0438 124.723 11.2461 121.716 15.7365L105.141 40.4323 75.5771 41.5863C70.4643 40.9354 65.4984 39.4244 60.8897 37.1171 57.0632 35.5198 53.6222 33.1233 50.7972 30.0881 46.0763 25.3672 38.6278 14.0999 34.0118 7.99417Z" fill="#FFFFFF" fill-rule="evenodd" transform="matrix(1.00193 0 0 -1 757.752 525.633)"/><path d="M0 0C-1.48324-6.13-7.65514-9.89709-13.7851-8.41385-19.9153-6.93048-23.6822-0.758705-22.199 5.3713L-12.4004 45.7407 29.1019 79.0389 13.7431 115.799C11.3213 121.634 14.0878 128.327 19.9224 130.749 25.757 133.171 32.4502 130.404 34.872 124.57L56.8611 71.989 7.95215 32.7528Z" fill="#FFFFFF" fill-rule="evenodd" transform="matrix(1.00193 0 0 -1 794.162 604.714)"/><path d="M0 0C5.89481-2.29809 8.81058-8.94001 6.51225-14.8348 4.30737-20.4908-1.92682-23.4447-7.70042-21.5694L-70.982 1.04907-73.374 61.1415-92.9082 102.035C-95.9779 107.541-94.0029 114.493-88.497 117.563-82.9911 120.633-76.0391 118.658-72.9694 113.152-72.7431 112.746-72.542 112.327-72.3668 111.897L-50.7344 66.7016-48.7831 17.4361Z" fill="#FFFFFF" fill-rule="evenodd" transform="matrix(1.00193 0 0 -1 914.58 586.082)"/><path d="M0 0C1.48469-4.24906 2.58037-8.62429 3.27315-13.0717 3.39908-13.9739 3.27315-14.5405 2.62275-14.7923 1.97222-15.0441 1.67847-14.4564 1.48964-13.5543 0.703287-9.25018-0.390581-5.00801-1.78351-0.860243-2.08366-0.290974-1.87962 0.413641-1.32194 0.734437-0.671412 1.04907-0.230847 0.79734 0.0839115 0.0629034ZM-5.16158-2.09815C-3.63995-6.30048-2.50913-10.6341-1.78351-15.0441-1.78351-16.0302-1.97234-16.5967-2.53884-16.7645-3.10533-16.9324-3.52501-16.5128-3.65093-15.5266-4.32259-11.3695-5.34751-7.27712-6.71425-3.29416-7.029-2.47581-6.94497-1.86742-6.4415-1.46875-5.93791-1.06996-5.45533-1.40585-5.07767-2.14016ZM5.3294-17.9816 9.81957-17.9816C10.323-17.9816 10.6169-18.2962 10.6798-18.9677 10.7427-19.639 10.3651-20.1006 9.92449-20.1846L-6.86118-20.1846C-7.42767-20.1846-7.70042-19.7229-7.70042-19.0727-7.70042-18.4221-7.42767-17.9816-6.86118-17.9816L3.35706-17.9816C5.46282-12.4015 6.81747-6.56646 7.38566-0.629396 7.51146 0.188831 7.84723 0.566493 8.41372 0.482581 9.00485 0.184364 9.34182-0.455778 9.25308-1.11198 8.5347-6.85623 7.21977-12.5099 5.3294-17.9816M2.24508 4.72102 10.0713 4.72102C10.6378 4.72102 10.9316 4.21743 10.9945 3.48311 11.0575 2.74879 10.6378 2.39202 10.0713 2.39202L-6.71425 2.39202C-7.40667 2.39202-7.72142 1.95133-7.6584 1.04907L-7.6584-7.34364C-7.6584-13.6242-8.44173-18.0235-10.0084-20.5413-10.4281-21.1078-10.9107-21.2337-11.4143-20.9189-11.8138-20.415-11.8138-19.7024-11.4143-19.1985-10.5363-17.6197-9.99343-15.8769-9.81957-14.0788-9.44372-11.0728-9.28942-8.04319-9.358-5.01452L-9.358 2.55996C-9.48381 4.11263-8.87542 4.82606-7.57449 4.65811L0.209839 4.65811C0.0362208 4.91383-0.0916386 5.19792-0.167944 5.49735-0.276847 5.69053-0.341441 5.90556-0.356775 6.12686-0.68904 6.65714-0.528582 7.35632 0.00156957 7.6887 0.00796857 7.69269 0.0144883 7.69655 0.0210081 7.70042 0.425232 8.01119 1.00489 7.93513 1.31554 7.53066 1.35985 7.47307 1.39716 7.41029 1.42674 7.34376 1.64998 6.45478 1.92308 5.57921 2.24508 4.72102" transform="matrix(1.00193 0 0 -1 724.767 670.409)"/><path d="M0 0C0.923147-1.86742 1.90932-3.90255 2.89549-6.10562 3.07623-6.70386 2.84671-7.35028 2.329-7.7003 1.78339-8.01505 1.36383-7.86824 1.11198-7.21771L-1.59468-1.34282C-1.92139-0.818952-1.80404-0.133534-1.32182 0.251855-0.925682 0.532083-0.378628 0.448655-0.0839115 0.0629034ZM-7.70042 0.734437C-7.04228-0.625533-6.47458-2.0274-6.00082-3.46198-5.74908-4.36412-6.00082-4.97275-6.4834-5.28739-6.96598-5.60203-7.46957-5.11944-7.78433-4.32223-8.04439-3.80946-8.26196-3.27605-8.43473-2.72755-8.81239-1.74149-9.10614-0.944034-9.29498-0.272742-9.64064 0.286627-9.51459 1.01599-9.00123 1.42674-8.58167 1.65758-8.16199 1.53178-7.78433 0.79734ZM-11.8968-0.356654-11.8968-5.14045C-12.0226-6.4415-11.4561-7.04989-10.2182-6.96586L-5.62316-6.96586C-4.42714-7.1338-3.81876-6.27356-3.73484-4.40614-3.73484-3.6717-3.33617-3.29404-2.70666-3.29404-2.10612-3.44749-1.71167-4.02135-1.78339-4.63686-1.78339-8.05695-2.93751-9.69365-5.05666-9.5257L-10.8686-9.5257C-12.799-9.5257-13.7851-8.14098-13.7851-5.62303L-13.7851-0.356654C-13.8435 0.184847-13.4518 0.671171-12.9103 0.729486-12.8872 0.731901-12.864 0.733591-12.841 0.734437-12.3152 0.672378-11.9139 0.235314-11.8968-0.29375ZM-15.6526 12.1066-9.19006 12.1066C-8.29492 12.8555-7.52306 13.7406-6.90308 14.7293-6.77715 14.8972-6.75614 15.0232-6.90308 15.1071-7.05001 15.1909-7.1338 15.2119-7.38566 15.2119L-12.841 15.2119C-13.6875 14.1177-14.6284 13.0996-15.6526 12.1696ZM-15.2749-1.46863C-15.7867-3.67061-16.6061-5.78965-17.7088-7.76332-18.1494-8.41372-18.653-8.53965-19.2195-8.11997-19.6897-7.67591-19.7697-6.9568-19.4083-6.4205-18.4256-4.54788-17.6382-2.57916-17.0583-0.545485-16.8695 0.10492-16.4918 0.314759-15.9253 0.0629034-15.4485-0.263204-15.2031-0.835493-15.2958-1.40585ZM-11.5191 17.4151-4.80481 17.4151C-3.67182 17.1913-3.35718 16.4919-3.86065 15.3168-4.6336 14.2438-5.48201 13.2271-6.39949 12.2745L-1.51065 12.2745C-0.587501 12.2745-0.0839115 11.4143-0.0210081 9.9455L-0.0210081 3.62993C-0.0210081 2.07726-0.419678 1.38484-1.42674 1.53178L-17.6249 1.53178C-18.0445 1.53178-18.3172 1.88843-18.3592 2.62287-18.4012 3.35718-18.0445 3.65093-17.6249 3.73484L-2.35 3.73484C-1.97234 3.73484-1.78339 4.00759-1.78339 4.57408L-1.78339 5.72807-16.303 5.72807C-17.2541 6.46951-17.2541 7.24585-16.303 8.05707L-1.78339 8.05707-1.78339 9.14816C-1.78339 9.65175-1.99323 9.8826-2.24508 9.8826L-17.3941 9.8826C-17.7717 9.8826-17.9606 10.0924-17.9606 10.4911-18.0633 10.3385-18.2385 10.2508-18.4222 10.2601-19.0516 9.84058-19.4922 9.92449-19.7441 10.4911-20.0296 11.1397-19.8397 11.8995-19.2825 12.3375-16.6255 13.6934-14.5091 15.9134-13.2816 18.632-12.9039 19.4294-12.4213 19.6812-11.8758 19.3664-11.3503 18.86-11.2067 18.0746-11.5191 17.4151" transform="matrix(1.00193 0 0 -1 758.592 681.529)"/><path d="M0 0-6.46239 0C-6.96598 0-7.25973 0.377662-7.32263 1.11198-7.38566 1.84641-6.96598 2.24508-6.46239 2.329L-4.36424 2.329C-4.49005 2.64363-4.679 3.18924-4.90973 3.92356-5.21809 4.48136-5.01585 5.18356-4.45805 5.49179-4.45467 5.49361-4.45141 5.49542-4.44815 5.49723-3.88166 5.74896-3.44097 5.49723-3.14722 4.88872-3.10883 4.42099-2.98061 3.96509-2.76956 3.54589-2.58073 2.9794-2.45492 2.58073-2.3919 2.329L0.10492 2.329C0.545606 2.329 0.79734 1.84641 0.860243 1.11198 0.923147 0.377662 0.440565-0.0629034 0.10492-0.0629034ZM-0.839235-5.49735 0.461573-5.49735C0.90226-5.49735 1.15399-5.97981 1.21702-6.71425 1.27992-7.44856 0.90226-7.82634 0.461573-7.82634L-2.34988-7.82634-2.34988-11.2463 0.272742-11.2463C0.713429-11.2463 0.965163-11.7289 1.02819-12.4634 1.09109-13.1978 0.713429-13.5544 0.272742-13.5544L-2.34988-13.5544-2.34988-18.2124C-2.33527-18.7655-2.74469-19.2387-3.29416-19.3035-3.82685-19.285-4.24363-18.8379-4.22515-18.3053-4.22395-18.2741-4.22141-18.2433-4.21731-18.2124L-4.21731-13.5544-6.18965-13.5544C-6.75614-13.5544-7.02888-13.1978-7.02888-12.4634-7.02888-11.7289-6.75614-11.3303-6.18965-11.2463L-4.21731-11.2463-4.21731-7.82634-6.65122-7.82634C-7.21783-7.82634-7.49058-7.44856-7.49058-6.71425-7.49058-5.97981-7.21783-5.58126-6.65122-5.49735L-5.24549-5.49735C-5.24549-5.49735-5.37142-5.49735-5.43432-5.24549-5.45485-5.16991-5.45485-5.09023-5.43432-5.01477-5.74908-4.0286-6.02182-3.08444-6.27356-2.20319-6.60595-1.6763-6.47809-0.982549-5.97981-0.608509-5.49723-0.356775-5.05666-0.608509-4.679-1.21702-4.23831-2.60186-3.92368-3.62993-3.73484-4.28033-3.67146-4.68359-3.67146-5.09409-3.73484-5.49735L-2.70666-5.49735C-2.329-4.28033-1.95133-2.8117-1.59468-1.09109-1.46875-0.356775-1.11198-0.0839115-0.545485-0.230847 0.0248716-0.402896 0.351704-1.00066 0.188831-1.57367-0.29375-3.27315-0.608509-4.57408-0.839235-5.49735M-9.67264-9.23207-10.3861-9.23207C-10.7008-9.23207-10.8266-9.46292-10.7637-9.96651L-10.7637-15.8204C-10.7637-16.324-10.7637-16.5129-10.491-16.4289L-9.54671-16.4289C-9.29498-16.4289-9.16905-16.324-9.16905-15.8204L-9.16905-10.0714C-9.27409-9.50494-9.44191-9.23207-9.75667-9.23207ZM-12.4842 1.04895-12.4842-2.26621-9.9455-2.26621C-9.69365-2.26621-9.54683-2.05625-9.48381-1.40585L-9.48381 1.04895C-9.48381 1.53166-9.67264 1.78339-10.0503 1.78339L-11.8128 1.78339C-12.4842 1.78339-12.6312 1.53166-12.4842 1.04895M-11.0785-6.9032-8.91731-6.9032C-8.03606-6.9032-7.5955-7.51159-7.5955-8.7286L-7.5955-17.4151C-7.5955-18.4643-7.97316-18.9258-8.72848-18.7579L-11.3512-18.7579C-12.2745-18.9258-12.6941-18.4012-12.5681-17.1633L-12.5681-8.62368C-12.6312-7.46957-12.1905-6.90308-11.2463-6.90308ZM-12.4842 3.98658-9.21106 3.98658C-8.07808 3.98658-7.51146 3.44097-7.51146 2.3919L-7.51146-2.74867C-7.51146-3.96569-7.95215-4.53206-8.8334-4.44827L-12.4842-4.44827-12.4842-5.81211C-12.5424-8.91683-13.0441-11.9973-13.974-14.9601-14.3516-15.9463-14.8132-16.282-15.3797-15.9463-15.9463-15.6107-16.0302-14.8552-15.6735-13.848-14.7416-11.0924-14.2944-8.19604-14.3516-5.28751L-14.3516 2.26609C-14.4355 3.31505-13.848 3.90255-12.6522 3.98658ZM-18.7789 3.73472C-17.6349 2.19788-16.6308 0.561664-15.7785-1.15411-15.4036-1.80331-15.4036-2.60319-15.7785-3.25226-16.261-3.58803-16.7016-3.25226-17.0793-2.51783-17.8694-0.887771-18.8107 0.664893-19.8909 2.11916-20.322 2.59836-20.3655 3.31167-19.9958 3.83976-19.7301 4.24532-19.3244 4.2103-18.7789 3.73472M-10.1343-20.1848 0.10492-20.1848C0.713429-20.1848 1.09109-20.6043 1.21702-21.4016 1.34282-22.199 0.818348-22.6814 0.188831-22.7445L-10.3861-22.7445C-12.9618-22.7518-15.3522-21.4053-16.6806-19.1986-17.4432-20.4337-18.4674-21.4865-19.681-22.2829-20.2475-22.5977-20.6882-22.4507-21.003-21.8003-21.3176-21.1499-21.1288-20.2897-20.6253-19.9539-18.8208-18.9048-17.9395-17.7507-18.0025-16.5338L-18.0025-10.2393C-18.0025-9.50494-18.2543-9.19006-18.9257-9.27397L-20.3314-9.27397C-20.8979-9.27397-21.1917-8.81239-21.1917-7.93114-21.1917-7.05001-20.8979-6.65134-20.3314-6.56743L-17.7087-6.56743C-16.5967-6.56743-16.0302-7.34364-16.0302-8.89643L-16.0302-15.191C-15.7155-18.3593-13.7431-20.0168-10.1343-20.1848" transform="matrix(1.00193 0 0 -1 785.207 668.206)"/><path d="M0 0 3.37807 0 3.37807 4.19642 0.0839115 4.19642ZM0 16.4919 0 13.0718 3.37807 13.0718 3.37807 17.2681 0.650404 17.2681C0.272742 17.3522 0.0839115 17.0584 0.0839115 16.4499ZM0 6.54642 3.46198 6.54642 3.46198 10.7428 0 10.7428ZM0.461573 19.7861 3.65081 19.7861C3.39908 20.9401 3.0423 22.2409 2.62275 23.7096 2.33274 24.2771 2.55767 24.9724 3.12513 25.2623 3.13938 25.2697 3.15374 25.2765 3.16823 25.2833 3.79775 25.535 4.23831 25.2833 4.49005 24.5489 4.93073 22.7655 5.2665 21.3806 5.51824 20.3525L5.51824 19.7441 8.51864 19.7441C9.02223 19.7441 9.29498 19.2615 9.35788 18.527 9.4209 17.7927 9.10614 17.3102 8.60256 17.3102L5.3294 17.3102 5.3294 13.1137 8.18288 13.1137C8.68647 13.1137 8.95933 12.6312 9.02223 11.8968 9.08526 11.1624 8.70747 10.7847 8.28792 10.7847L5.3294 10.7847 5.3294 6.58832 7.95215 6.58832C8.51864 6.58832 8.79139 6.10574 8.79139 5.37142 8.79139 4.63698 8.41372 4.25932 7.86824 4.25932L5.3294 4.25932 5.3294 0.0629034 8.79139 0.0629034C9.28918 0.0420161 9.6759-0.378628 9.65489-0.876422 9.65417-0.892118 9.6532-0.907693 9.65163-0.923147 9.65163-1.65758 9.35788-2.05613 8.79139-2.14016L0.0839115-2.14016C0.0839115-2.8746-0.314759-3.29416-0.944155-3.37807-1.57367-3.46198-1.88843-2.87448-1.88843-2.14016L-1.88843 13.3865C-1.96775 13.1719-2.05891 12.9617-2.16117 12.757-2.41291 12.3583-2.60174 12.0226-2.72767 11.7918-3.16835 11.0575-3.67194 10.8478-4.23831 11.1834-4.64894 11.7691-4.64894 12.5491-4.23831 13.1347-2.36039 16.6964-1.06417 20.5357-0.39867 24.5069-0.272742 25.3042 0.10492 25.6398 0.734316 25.4721 1.36383 25.3043 1.59468 24.6958 1.46875 23.8983 1.40223 23.6916 1.34621 23.4814 1.30081 23.2691 0.90226 21.5905 0.650404 20.4365 0.461573 19.7861M-11.4561 22.5977-6.00094 22.5977C-4.44815 22.7655-3.73484 21.6745-3.90267 19.3035-4.06989 15.2562-4.8554 11.2584-6.23166 7.44856-5.40366 5.28847-4.70303 3.08154-4.13351 0.839356L-4.13351 0.608509C-3.94456-0.29375-4.13351-0.90226-4.59509-1.23791-5.05666-1.57355-5.60215-1.11198-5.91691-0.125807-6.15802 0.463384-6.34081 1.07467-6.46251 1.6996-6.77715 2.9165-7.0709 3.94468-7.30175 4.76291-8.19785 2.33552-9.53524 0.094657-11.2463-1.84641-11.8198-2.41991-12.3234-2.46193-12.7571-1.97222-12.9984-1.33558-12.8514-0.616598-12.3794-0.125807-10.6557 2.20488-9.24487 4.75132-8.183 7.44856-8.505 8.13048-8.78523 8.83111-9.02235 9.54683-9.96651 12.0647-10.8057 14.0999-11.5611 15.6527-11.9669 16.2012-11.9669 16.9505-11.5611 17.4991-11.0575 17.8977-10.554 17.7717-10.0714 17.1214-9.58873 16.4709-8.79151 13.9951-7.34376 10.4071-6.50936 13.2642-6.07169 16.2223-6.04283 19.1987-6.04283 19.933-6.21066 20.2687-6.77715 20.1848L-11.3512 20.1848C-11.9807 20.1848-12.3164 20.5415-12.3794 21.2758-12.4423 22.0103-12.0647 22.5137-11.4561 22.5977" transform="matrix(1.00193 0 0 -1 802.34 688.055)"/><path d="M0 0-8.2459 0C-8.87542 0-9.19006 0.356654-9.19006 1.09097-9.24849 1.63247-8.8567 2.11879-8.3152 2.17711-8.29214 2.17965-8.26908 2.18122-8.2459 2.18206L1.21702 2.18206C2.70666 2.18206 3.31517 1.30081 2.81158-0.50359 1.91077-3.35018 0.487773-6.0042-1.38484-8.32981 0.0305462-9.90385 1.79969-11.1193 3.77674-11.8757 3.8621-11.831 3.96412-11.831 4.04948-11.8757 4.66089-12.0761 4.99774-12.7306 4.80493-13.3445 4.55307-14.0789 4.11251-14.3306 3.48299-14.0789 1.1313-12.9232-1.04461-11.4397-2.9794-9.67264-4.77438-11.3443-6.79417-12.7568-8.98022-13.8691-9.48682-14.1256-10.1055-13.9229-10.362-13.4164-10.3705-13.3996-10.3785-13.3827-10.3861-13.3655-10.6776-12.8118-10.4651-12.1266-9.91145-11.835-9.88151-11.8193-9.85084-11.8048-9.81957-11.7918-7.82381-10.9197-5.98729-9.72141-4.38525-8.2459-5.7428-6.43015-6.877-4.45769-7.76332-2.37101-8.09269-1.76661-7.97183-1.01599-7.46957-0.545606-6.98699-0.209718-6.54642-0.377662-6.16864-1.02819-5.36925-3.05329-4.27321-4.94836-2.9165-6.65134-1.48795-5.00281-0.314034-3.14988 0.566493-1.15411 0.818227-0.50359 0.629396-0.0839115 0 0M1.59456 11.8547 1.59456 6.84005C1.59456 5.93791 1.8044 5.53924 2.43392 5.62303L4.30134 5.62303C4.80493 5.62303 5.09856 5.16146 5.16158 4.51106 5.22448 3.86065 4.80493 3.41997 4.30134 3.41997L2.20307 3.41997C0.50359 3.41997-0.272742 4.1544-0.146815 5.85388L-0.146815 11.2253C-0.146815 11.7289-0.314759 11.9597-0.608509 11.9597L-4.97275 11.9597C-5.5058 11.9526-5.93212 11.5148-5.92512 10.9819-5.92463 10.944-5.92186 10.9062-5.91691 10.8686-5.63438 7.6741-6.92626 4.54209-9.37901 2.47581-9.9455 1.99323-10.4071 2.05613-10.7847 2.72767-11.1733 3.27605-11.0437 4.0356-10.4953 4.42413-10.4939 4.42509-10.4924 4.42606-10.491 4.42714-8.56066 5.72795-7.6584 8.14098-7.78433 11.6449-7.78433 13.1976-7.25973 13.9949-6.18977 14.0788L0.10492 14.0788C1.09109 14.3306 1.59456 13.4704 1.59456 11.8547M-14.2468 13.6802C-13.3026 12.3793-12.3164 10.8266-11.2463 9.04312-10.9817 8.43715-11.0533 7.73664-11.4351 7.19671-12.0016 6.79816-12.4633 6.92396-12.841 7.57437-12.841 7.57437-13.0088 7.57437-13.1137 7.80509-13.9091 9.25634-14.792 10.6576-15.7575 12.0015-16.1574 12.4095-16.1574 13.0623-15.7575 13.4703-15.149 14.0369-14.6874 14.0788-14.2468 13.6802M-17.352 4.38513-14.1628 4.38513C-13.1556 4.38513-12.6941 3.81864-12.7571 2.43392L-12.7571-9.77756C-12.8049-9.94212-12.8049-10.1167-12.7571-10.2811-12.7571-10.2811-12.5682-10.2811-12.3794-10.1553-11.5823-9.38698-10.8782-8.52794-10.2811-7.5955-9.90348-6.94509-9.44191-6.81916-8.87542-7.21783-8.46274-7.76416-8.46274-8.51804-8.87542-9.06425-9.9286-10.4119-11.0862-11.6748-12.3374-12.841-13.8272-13.7432-14.6244-13.1347-14.6664-11.0156L-14.6664 1.09097C-14.6664 1.74137-14.8972 2.07714-15.3378 2.07714L-17.4361 2.07714C-17.9187 2.07714-18.2124 2.43379-18.2753 3.16823-18.3382 3.90255-17.9187 4.30134-17.352 4.38513" transform="matrix(1.00193 0 0 -1 832.697 677.543)"/><path d="M0 0 0-3.90255 3.00053-2.55972C4.25932-1.99335 4.88884-2.55972 4.88884-4.40614L4.88884-12.799C5.14057-15.4847 3.9867-16.2611 1.40585-15.107 0.798185-15.0176 0.378266-14.4525 0.46761-13.8448 0.471594-13.8177 0.476545-13.7909 0.482581-13.7641 0.608509-12.9668 0.986171-12.6312 1.59468-12.799 2.20307-12.9668 2.79057-13.1978 2.9165-13.0298 3.04242-12.8619 3.18924-12.4633 3.18924-11.5611L3.18924-5.83311C3.18924-5.32952 2.8746-5.18259 2.45492-5.32952L0-6.4415 0-17.1842C0-18.0865-0.356654-18.5901-0.923147-18.653-1.48976-18.7159-1.7625-18.1284-1.7625-17.3102L-1.7625-7.30175-4.57408-8.51864-4.57408-18.4221C-4.57408-19.5552-4.1544-20.1216-3.27315-20.1216L1.78339-20.1216C3.23126-20.1216 3.88166-19.1564 3.88166-16.9534 4.55307-15.7365 5.22448-15.7575 5.83311-17.0793 5.9588-20.8141 4.86783-22.6185 2.55984-22.4506L-3.39896-22.4506C-5.26638-22.2829-6.23154-21.1078-6.29457-18.9047L-6.29457-9.60973-6.86106-9.86159C-7.55348-10.1133-8.01505-9.86159-8.26691-9.12715-8.48097-8.39453-8.12299-7.61602-7.42767-7.30175L-6.29457-6.79816-6.29457-2.68565C-6.29457-2.03512-6.02182-1.65758-5.45533-1.59456-4.88872-1.53166-4.57408-1.90932-4.51106-2.55972L-4.51106-5.85388-1.8044-4.76291-1.8044 0.0420161C-1.86332 0.595107-1.46259 1.09121-0.909383 1.14989-0.893084 1.1517-0.876664 1.15315-0.860243 1.15411-0.377662 1.07008 0 0.692421 0.0629034 0.0420161ZM-4.57408 4.19642 4.65799 4.19642C5.16158 4.19642 5.43444 3.75573 5.51824 3.10533 5.60215 2.45492 5.16158 1.99335 4.65799 1.99335L-5.07767 1.99335C-5.53538 0.410019-6.19846-1.10667-7.05001-2.51783-7.26649-2.9922-7.82646-3.20131-8.30096-2.98471-8.35517-2.95996-8.40708-2.93014-8.45562-2.89537-8.86166-2.44152-8.86166-1.75478-8.45562-1.30081-7.16688 0.969027-6.31304 3.45957-5.93791 6.04283-5.93791 6.60933-5.53924 6.79828-4.90973 6.65134-4.42823 6.44368-4.15718 5.92777-4.25932 5.41332-4.45407 5.03638-4.56152 4.62056-4.57408 4.19642M-9.02223 0.29375-12.5893 0.29375-12.5893-3.6298-10.0503-3.6298C-8.98022-3.6298-8.45562-4.42714-8.45562-6.06384L-8.45562-11.4351C-8.39887-13.6838-8.49003-15.9338-8.72848-18.1704-8.80841-19.119-9.10252-20.0375-9.58873-20.856-10.4379-21.8064-11.8058-22.0953-12.9668-21.5694-13.3871-21.2604-13.598-20.7412-13.5124-20.2265-13.3865-19.66-13.1136-19.3663-12.673-19.3663-11.9806-19.702-11.4561-19.702-11.0785-19.3663-10.7008-19.0306-10.2393-17.1213-10.2393-13.6172L-10.2393-6.88207C-10.2393-6.23154-10.5119-5.85388-10.8895-5.76997L-12.5891-5.76997C-12.5984-11.1323-13.4336-16.4614-15.0649-21.5694-15.2285-22.1011-15.792-22.3995-16.3236-22.2362-16.3741-22.2206-16.4233-22.2012-16.4708-22.1779-16.9863-21.8311-17.1505-21.1473-16.8485-20.6042-15.3706-16.314-14.5775-11.8178-14.4985-7.28074L-14.4985-2.3919-14.4985 0.0629034-16.0721 0.0629034C-16.5757 0.0629034-16.8695 0.419678-16.9324 1.15411-16.9482 1.71167-16.5409 2.19124-15.9882 2.26621L-13.4495 2.26621-14.3937 4.70001C-14.6622 5.2141-14.4992 5.84809-14.016 6.16876-13.5124 6.50441-13.0926 6.3786-12.7151 5.81211-12.2115 4.34335-11.7918 3.16835-11.498 2.26621L-9.04312 2.26621C-8.56054 2.26621-8.3088 1.80452-8.3088 1.15411-8.3088 0.50359-8.51864 0.29375-9.02223 0.29375" transform="matrix(1.00193 0 0 -1 857.167 668.919)"/><path d="M0 0C1.36383-1.86742 1.59456-3.0213 0.650404-3.42009 0.47739-3.5867 0.222637-3.63596 0-3.54589-0.629517-3.54589-1.32182-2.89549-2.09827-1.82541-4.88075 1.93878-6.21404 6.57926-5.854 11.2463-5.95965 16.4294-4.08353 21.4574-0.608509 25.3043-0.233383 25.8363 0.342528 26.1923 0.986171 26.2904 1.182 26.2904 1.43374 26.1225 1.74149 25.7868 2.18206 25.0525 1.88843 24.2132 0.90226 23.2271-4.59098 16.5698-4.96031 7.06329 0 0" transform="matrix(1.00193 0 0 -1 882.016 688.39)"/><path d="M0 0 9.16905 0C9.84577 0.0240264 10.4874-0.300753 10.8688-0.860243 11.1081-1.57826 10.9657-2.36884 10.491-2.95839 8.39767-5.78772 6.00589-8.38342 3.35718-10.7008L10.6798-10.7008C12.0436-10.7008 12.7781-11.5191 12.6522-13.3865 12.4004-21.0519 11.9597-25.5349 11.3303-26.836 10.7637-28.6194 9.23207-29.2488 6.84005-28.6614 6.15234-28.5175 5.67169-27.8943 5.70719-27.1926 5.71805-26.6364 6.17769-26.1945 6.7338-26.2055 6.79779-26.2068 6.86154-26.2141 6.92408-26.2273 8.49776-26.71 9.4209-26.2273 9.73566-25.0104 10.4736-21.3846 10.8532-17.6951 10.8688-13.9949 10.8688-13.3445 10.6169-13.0297 10.1133-13.0297L8.32981-13.0297C7.44856-20.0377 5.07767-25.1154 1.21702-28.3046 0.808931-28.6654 0.185692-28.627-0.174946-28.219-0.220222-28.1679-0.259944-28.1122-0.29375-28.0529-0.68421-27.5239-0.601869-26.7836-0.10492-26.3533 3.77191-22.9645 6.1358-18.1685 6.46239-13.0297L3.92368-13.0297C3.22087-17.588 0.850585-21.7228-2.72767-24.6327-3.42009-25.0523-3.94456-25.0103-4.32235-24.5069-4.62998-23.8668-4.4356-23.0982-3.86077-22.6814-0.887409-20.2142 1.16148-16.8118 1.95133-13.0297L0.0839115-13.0297C-0.386476-13.0493-0.810017-12.7467-0.944155-12.2954-0.981825-11.8185-0.766915-11.3567-0.377662-11.0784 2.85178-8.43534 5.82998-5.4994 8.51876-2.30799L0-2.30799C-0.57748-2.35556-1.08409-1.92586-1.13154-1.3485-1.13576-1.29767-1.13625-1.24672-1.13311-1.19589-1.13395-0.559249-0.635916-0.0334438 0 0M-4.78392-0.734316-4.78392-7.46957-2.51783-7.46957C-1.95133-7.46957-1.65758-7.95203-1.65758-8.68647-1.65758-9.4209-1.95133-9.77756-2.51783-9.77756L-4.78392-9.77756-4.78392-18.1704-3.94456-17.436C-3.5669-17.1213-3.25226-16.8276-3.00041-16.5967-2.71921-16.1854-2.15779-16.0799-1.74645-16.361-1.65384-16.4242-1.57391-16.5041-1.51077-16.5967-1.2472-17.2471-1.43374-17.9932-1.97234-18.4431-3.7928-20.3121-5.84471-21.941-8.07796-23.2898-8.74949-23.6886-9.29498-23.6047-9.65163-23.0381-9.86437-22.3528-9.59947-21.6092-9.00135-21.2127L-8.62356-20.961C-7.86872-20.5558-7.16447-20.0628-6.52541-19.4922L-6.52541-9.71465-9.00123-9.71465C-9.63074-9.71465-9.96639-9.358-10.0293-8.62356-10.0923-7.88925-9.63074-7.46957-9.00123-7.40667L-6.56743-7.40667-6.56743-0.545485C-6.56743 0.10492-6.29457 0.419799-5.72795 0.419799-5.15301 0.353756-4.73478-0.157681-4.78392-0.734316" transform="matrix(1.00193 0 0 -1 901.356 663.002)"/><path d="M0 0 0-3.06343 8.16211-3.06343C9.10627-3.88166 9.10627-4.63698 8.16211-5.37142L4.97287-5.37142 4.97287-21.3806C4.97287-22.1151 4.59509-22.5348 4.0286-22.6187 3.4621-22.7025 3.10545-22.1151 3.10545-21.3806L3.10545-5.45545 0-5.45545 0-8.51876C0-14.7154-1.74838-18.9118-5.24537-21.1079-5.69366-21.4173-6.30785-21.3046-6.61729-20.8563-6.66655-20.7848-6.70616-20.7072-6.73513-20.6253-7.02478-20.0447-6.78886-19.3391-6.20812-19.0495-6.19508-19.0431-6.18192-19.0368-6.16864-19.0308-3.18924-16.9884-1.72049-13.4915-1.7625-8.53965L-1.7625 0.98605C-1.9715 2.1258-1.2169 3.2193-0.0771503 3.4283-0.0515542 3.43301-0.0258375 3.43723 8.04263e-17 3.44097 2.0612 3.70865 4.0787 4.24459 6.00082 5.03553 6.52843 5.21181 7.09903 4.92723 7.27531 4.3995 7.29957 4.32693 7.31551 4.2516 7.32263 4.17529 7.51605 3.5046 7.14576 2.80095 6.4834 2.58073 5.2013 2.10769 3.88178 1.7427 2.53884 1.48964 1.95737 1.30866 1.36033 1.18225 0.755445 1.11198 0.218894 0.986895-0.117597 0.454209 0-0.0839115ZM-10.302-3.42009-10.302-9.71465-6.10562-9.71465C-5.66505-9.71465-5.45533-9.48393-5.45533-8.74949L-5.45533-4.55307C-5.45533-3.90267-5.64404-3.5669-6.00082-3.5669ZM-10.302 0.776332-10.302-1.175-5.05666-1.175C-4.04948-1.175-3.54589-1.87443-3.54589-3.27315L-3.54589-9.75667C-3.54589-11.4772-4.1544-12.2535-5.3294-12.0857L-10.3859-12.0857C-10.5287-15.0998-11.1666-18.0701-12.2744-20.8771-12.652-21.6115-13.1136-21.8632-13.6802-21.6115-14.2406-21.2372-14.4071-20.4882-14.0579-19.9119-12.7748-16.8578-12.132-13.5728-12.1695-10.2601L-12.1695 1.84641C-12.3683 2.78743-11.7668 3.71142-10.8258 3.9104-10.743 3.92778-10.6592 3.93925-10.5749 3.94456-8.44668 4.14329-6.36411 4.68166-4.40614 5.53924-3.77662 5.70707-3.35706 5.41332-3.18924 4.679-3.0213 3.94456-3.18924 3.33617-3.83964 3.08432-5.60589 2.35677-7.46196 1.86972-9.35788 1.63658-10.1133 1.46875-10.428 1.25891-10.302 0.776332" transform="matrix(1.00193 0 0 -1 930.956 668.667)"/><path d="M0 0C2.36099 3.2653 3.57789 7.21856 3.4621 11.2463 3.5209 15.6617 1.91837 19.9381-1.02819 23.2271-2.09815 24.2761-2.35 25.1364-1.78339 25.7869-1.65203 26.0881-1.35671 26.2851-1.02819 26.2905-0.396014 26.1621 0.169392 25.8125 0.566493 25.3043 3.94118 21.3972 5.80233 16.4091 5.81211 11.2463 6.04621 6.59291 4.72488 1.99407 2.05625-1.82541 1.56679-2.61538 0.828731-3.22063-0.0420161-3.54589-0.238453-3.62787-0.465196-3.57753-0.608388-3.41997-1.65758-3.06331-1.44774-1.90932 0 0" transform="matrix(1.00193 0 0 -1 949.119 688.39)"/></g></svg>