<svg width="326" height="327" xmlns="http://www.w3.org/2000/svg" xmlns:xlink="http://www.w3.org/1999/xlink" xml:space="preserve" overflow="hidden"><defs><clipPath id="clip0"><rect x="0" y="174" width="326" height="327"/></clipPath></defs><g clip-path="url(#clip0)" transform="matrix(1 0 0 1 0 -174)"><path d="M0 0C-0.268257 0.301178-0.645219 0.483222-1.04793 0.505875-1.56407 0.482081-2.04746 0.246907-2.38482-0.144559-2.38482-0.144559-2.85451-0.722795-3.36039-1.37307-4.33579-2.78215-5.16697-3.90228-5.81724-4.98623-7.81662-7.70824-9.69556-10.117-11.4539-12.2129-11.4801-12.3684-11.4801-12.5269-11.4539-12.6824-11.4661-13.1402-11.2492-13.5739-10.8758-13.8387-10.4808-14.1035-10.0145-14.2422-9.53894-14.2362-9.14601-14.2448-8.75845-14.1449-8.41881-13.9471-8.09547-13.7393-7.86307-13.4164-7.76854-13.0437L-5.78122-10.8398-5.78122-28.5445C-5.72874-29.241-5.12166-29.7632-4.4251-29.7109-4.39544-29.7086-4.36545-29.7053-4.33579-29.7008-3.92819-29.6996-3.52825-29.5873-3.17965-29.3756-2.8475-29.1936-2.59114-28.8988-2.45701-28.5446L-2.45701-6.39547C-2.12829-5.70886-1.71548-5.0656-1.22851-4.48035-0.40646-3.56541 0.144233-2.43941 0.361316-1.22851 0.368813-0.70063 0.244626-0.17911 0 0.288955ZM-0.831174 10.2254C-1.58982 8.41881-2.34864 6.82899-3.10729 5.4199-3.86626 4.01066-5.63666 1.40908-7.84074-1.80658-8.10182-2.18892-8.53403-2.41855-8.99705-2.42083-9.95893-2.38384-10.7305-1.61248-10.7674-0.650271-10.7567-0.259782-10.6024 0.113268-10.3338 0.397334-8.82658 2.5297-7.42776 4.73655-6.14237 7.00973-5.67284 7.80472-5.13079 8.81631-4.48035 10.0808L-4.1914 10.912C-3.71844 11.5113-3.00331 11.8688-2.24009 11.8876-1.82239 11.9076-1.4156 11.7502-1.12013 11.4539-0.834596 11.0575-0.729803 10.5588-0.831011 10.0808ZM27.7136-3.61332 22.4021-3.61332 22.4021-24.8953C21.9506-26.4879 20.83-27.8063 19.3308-28.5084 18.6121-28.8122 17.8603-29.0305 17.0906-29.1589L14.2-29.1589 10.0086-28.3277C9.1874-28.1763 8.40268-27.8697 7.69618-27.4245 6.79297-26.8824 6.32311-26.2683 6.32311-25.6539 6.36565-25.1818 6.58485-24.7427 6.93737-24.4254 7.37332-24.3074 7.82265-24.2466 8.27442-24.2448 9.24428-24.3223 10.1957-24.554 11.0926-24.9315 11.9311-25.2889 12.8217-25.5086 13.7303-25.5817L15.8982-25.5817C16.786-25.6093 17.6279-25.1883 18.1385-24.4616 18.3699-24.128 18.5523-23.7629 18.6804-23.3777L18.6804-3.4686 2.81833-3.4686 2.24009-3.17965C1.9381-2.7828 1.76193-2.30463 1.73438-1.80658 1.73878-1.33656 1.9192-0.885444 2.24009-0.541893 2.4104-0.379406 2.60548-0.245278 2.81833-0.144559L27.7136-0.144559C28.0883-0.121417 28.4467-0.300689 28.653-0.614254 28.8787-0.969866 28.9922-1.38545 28.9781-1.80658 28.9858-2.22233 28.8862-2.63286 28.689-2.99891 28.4618-3.30758 28.0964-3.48343 27.7136-3.4686ZM25.7623 6.64841 4.08302 6.64841C3.68014 6.88489 3.39249 7.27701 3.28802 7.7322 3.25201 8.10476 3.25201 8.47993 3.28802 8.85233L4.11904 9.93644 25.7985 9.93644C26.3676 9.60152 26.7332 9.00568 26.7741 8.34661 26.7548 7.79836 26.5213 7.27929 26.1236 6.90135L25.7985 6.64841ZM-18.1023-22.2575-18.3552-25.2926C-18.7684-26.8282-19.7849-28.1313-21.1736-28.9059-21.8005-29.2061-22.4536-29.4478-23.1249-29.6286L-30.1344-29.6286C-31.3942-29.7842-32.6501-29.3116-33.4948-28.3639-34.4569-27.4121-34.9804-26.1034-34.9401-24.7507-34.9271-24.5944-34.9271-24.4372-34.9401-24.2809L-34.9401-9.39454-42.7086-9.39454-42.7086-11.3455C-42.7759-14.5217-43.6461-17.6294-45.2377-20.3787-45.9981-21.6389-46.8432-22.8462-47.7671-23.9919L-51.3804-27.027C-52.6524-28.0198-54.0983-28.7674-55.644-29.2311-56.1158-29.3311-56.6076-29.2115-56.9809-28.9059-57.2829-28.5704-57.4388-28.1284-57.4144-27.6774-57.4833-26.8088-56.9884-25.9936-56.1859-25.6541-53.5458-24.28-51.1915-22.4163-49.2485-20.162-47.2697-17.9791-46.1412-15.158-46.0689-12.2129L-46.0689-11.2733-46.0689-9.32218-55.6078-9.32218C-56.1779-8.97113-56.542-8.36454-56.5834-7.69634-56.555-7.16081-56.3221-6.6564-55.9329-6.2871L-55.6078-5.99814-38.7702-5.99814-38.7702 2.56523-49.6098 2.56523C-50.5279 1.02316-51.6058-0.417868-52.8256-1.73455-53.4063-2.35858-54.0216-2.94969-54.6682-3.50495L-56.0413-3.50495C-56.8003-3.50495-57.1614-3.03525-57.1614-2.0235-57.1828-1.66333-57.0808-1.30657-56.8725-1.01191-55.2633 0.612461-53.8338 2.40535-52.6089 4.33579-52.1754 4.98623-51.6332 5.88944-51.0191 7.00956-50.6222 7.61127-50.3178 8.26887-50.1157 8.96054-49.5738 10.6229-48.7426 11.4177-47.6587 11.4177-46.9933 11.0421-46.5798 10.339-46.5746 9.57496-46.6417 8.89079-46.8124 8.22063-47.0806 7.58764-47.3293 7.04232-47.5231 6.47338-47.6587 5.88944L-38.6618 5.88944-38.6618 11.7067C-38.6639 12.076-38.4719 12.419-38.1558 12.61-37.8 12.8359-37.3846 12.9492-36.9634 12.9352-36.5593 12.9433-36.1601 12.8436-35.8073 12.6462-35.4877 12.4451-35.3066 12.083-35.3374 11.7067L-35.3374 5.88944-20.8846 5.88944C-20.4733 5.98217-20.044 5.84364-19.7643 5.52812-19.512 5.18326-19.3844 4.76279-19.4032 4.33579-19.4001 3.93194-19.4995 3.53428-19.6921 3.17948-19.8807 2.84473-20.215 2.61755-20.5955 2.56507L-35.4458 2.56507-35.4458-5.9983-18.9335-5.9983C-18.5766-6.14677-18.2827-6.41503-18.1023-6.75695-17.8854-7.10327-17.7726-7.50468-17.7772-7.91326-17.6952-8.60688-18.191-9.23564-18.8846-9.31762-18.9009-9.31957-18.917-9.32104-18.9335-9.32235L-31.2546-9.32235-31.2546-23.9922C-31.0932-24.7018-30.6496-25.3151-30.0261-25.6904-29.7084-25.8956-29.3691-26.0651-29.0143-26.1961L-23.9557-26.1961C-23.0783-25.967-22.3494-25.3573-21.9686-24.5341-21.6004-23.7564-21.4268-22.9008-21.4627-22.0409L-21.4627-18.7889C-21.096-18.2224-20.4751-17.8714-19.8005-17.8494-19.2619-17.8794-18.7506-18.0966-18.3552-18.4638L-18.1023-18.7889-18.1023-22.1131ZM-69.7716-23.6306-69.7716-15.1756-70.8918-14.0556-81.2617-14.0556C-81.595-14.2062-81.8911-14.4282-82.1291-14.7059L-82.3819-15.1756-82.3819-23.45C-82.4174-23.8654-82.1851-24.2572-81.8038-24.4256-81.6248-24.4606-81.4407-24.4606-81.2617-24.4256L-70.8918-24.4256C-70.5442-24.3006-70.242-24.074-70.0246-23.7753-69.9237-23.628-69.839-23.4707-69.7716-23.3055ZM-92.7158 0.686452-92.7158 6.50369C-92.8672 6.84659-93.1035 7.145-93.4022 7.37104L-93.8359 7.62382-97.8104 7.62382C-98.1491 7.48268-98.4471 7.25908-98.6776 6.97355L-98.9305 6.50385-98.9305 0.97557C-98.9437 0.527551-98.7253 0.104304-98.3525-0.144559-98.1861-0.256686-98.0032-0.342085-97.8104-0.397334L-93.8359-0.397334C-93.4314-0.428788-93.0474-0.215453-92.8603 0.144559-92.8423 0.324647-92.8423 0.506201-92.8603 0.686452ZM-70.3499 6.50369-70.6027 7.62382-80.4307 7.62382C-80.764 7.47323-81.0601 7.25126-81.2979 6.97355L-81.5508 6.50369C-80.6517 4.5356-79.5238 2.67996-78.1906 0.975407-77.5855 0.19117-76.921-0.545804-76.2033-1.22851-74.5119 0.254078-73.0399 1.96939-71.8313 3.8661-71.2937 4.72009-70.7992 5.60032-70.3499 6.50369M-66.4114-25.0759-66.4114-13.7665C-66.6282-13.2606-66.8811-12.7549-67.1341-12.2129-67.371-11.7072-67.8461-11.3542-68.3986-11.2735L-69.7716-10.6952-82.0929-10.6952C-82.4542-10.8758-83.1045-11.1651-83.9717-11.4902-84.5817-11.7479-85.0271-12.2875-85.1642-12.9355L-85.7422-14.5975-85.7422-24.534C-85.5899-25.0997-85.3716-25.6453-85.0918-26.16-84.4238-27.2221-83.3313-27.946-82.0929-28.1473L-70.3499-28.1473C-69.7685-28.0911-69.1973-27.9574-68.6515-27.7498-67.4955-27.3018-66.65-26.2925-66.4114-25.0759M-63.6291-8.20205C-63.377-9.0373-63.7988-9.92764-64.6048-10.2617-65.0186-10.3667-65.4425-10.4273-65.8694-10.4423-68.1818-9.50309-70.675-8.41897-73.2766-7.11827L-76.4923-5.45625C-78.6787-6.91031-81.0169-8.12187-83.4658-9.06925-84.333-9.43072-85.4531-9.86424-86.8624-10.3339-87.6947-10.5526-88.5637-10.141-88.9219-9.35836-89.0268-8.94457-89.0875-8.52051-89.1025-8.09368L-78.7325-3.14363-83.3574 2.89053-86.9707-0.722795C-87.2766-0.90272-87.6279-0.9904-87.9825-0.97557-88.3539-0.996756-88.7221-0.895223-89.0303-0.686615-89.3068-0.518424-89.4721-0.215127-89.4638 0.108379L-89.4638-2.0957C-89.5912-2.60972-89.9333-3.04421-90.4033-3.28819-90.6551-3.32111-90.9102-3.32111-91.162-3.28819L-93.8359-3.28819-93.8359-10.2256-89.1026-10.2256C-88.7278-10.2026-88.3696-10.3817-88.1631-10.6952-87.9374-11.051-87.8239-11.4664-87.8379-11.8876-87.8303-12.3033-87.9299-12.714-88.1269-13.0801-88.3542-13.3886-88.7196-13.5644-89.1026-13.5499L-93.8359-13.5499-93.8359-22.6552-89.1026-20.7402C-88.5423-20.6938-87.9892-20.8913-87.585-21.2821-87.3497-21.5786-87.2338-21.9523-87.2597-22.33-87.2356-22.5341-87.2356-22.7401-87.2597-22.9441-87.248-23.0281-87.248-23.1131-87.2597-23.1971-90.2596-24.6053-93.3498-25.8125-96.5097-26.8104L-100.701-28.0389C-101.072-28.2653-101.473-28.4358-101.893-28.5446-102.294-28.6551-102.706-28.7157-103.122-28.7254L-104.025-28.7254-104.35-28.7254C-104.553-28.3728-104.664-27.9755-104.676-27.569-104.663-26.8637-104.296-26.2118-103.7-25.8348-103.075-25.3658-102.314-25.1122-101.532-25.1122L-101.532-9.39454C-101.135-8.74411-100.701-8.41881-100.195-8.41881-99.8019-8.44912-99.4315-8.61503-99.1473-8.88867L-98.7499-9.39454-98.7499-24.3172-96.5097-23.486-96.5097-3.57714-99.8699-3.57714C-100.592-3.44611-101.223-3.01195-101.604-2.38482-101.809-2.06718-101.979-1.72786-102.11-1.37323L-102.11 8.59939C-101.905 9.34647-101.445 9.99837-100.809 10.4421L-99.8699 10.8035-91.7402 10.8035C-90.8867 10.8533-90.0774 10.4206-89.6445 9.68334-89.4625 9.33832-89.3171 8.97488-89.211 8.59939L-89.211 1.11997-88.9581 1.95098C-87.6657 3.06573-86.5346 4.3547-85.5977 5.78106-84.7486 7.17107-84 8.62025-83.3574 10.117L-81.4063 11.2371-67.6759 11.2371C-67.1292 11.1227-66.6492 10.7984-66.3391 10.3338-66.1979 10.0963-66.0886 9.8411-66.0139 9.57496-66.4931 6.34234-67.8987 3.31769-70.0608 0.867028L-73.6741-3.43258-69.7356-5.63682C-68.8596-6.17953-67.8925-6.5591-66.8811-6.75695-65.7214-6.92938-64.6596-7.50517-63.882-8.38296ZM-111.396-7.94912C-111.365-8.35362-111.578-8.73759-111.938-8.92485-112.13-8.95207-112.325-8.95207-112.516-8.92485L-128.74-8.92485-128.74-27.7498C-128.704-28.1651-128.937-28.5572-129.318-28.7254L-129.86-28.7254-131.269-28.7254C-131.608-28.5842-131.906-28.3606-132.136-28.0751L-132.389-27.6054-132.389-8.78029-149.444-8.78029C-149.857-8.80767-150.249-8.59743-150.455-8.2384-150.487-8.05896-150.487-7.87561-150.455-7.69634L-150.455-6.32328C-150.376-5.88308-150.076-5.51459-149.66-5.34771-149.469-5.31381-149.274-5.31381-149.082-5.34771L-132.281-5.34771-132.281 8.20189-146.734 8.20189C-147.149 8.16636-147.541 8.3986-147.709 8.78013-147.744 8.95907-147.744 9.14307-147.709 9.32202L-147.709 10.6951C-147.745 11.1105-147.513 11.5023-147.131 11.6707-146.952 11.7057-146.768 11.7057-146.589 11.6707L-113.817 11.6707C-113.484 11.5202-113.188 11.2981-112.95 11.0202L-112.697 10.5505-112.697 9.17762C-112.921 8.73938-113.292 8.39404-113.745 8.20189-113.96 8.1693-114.18 8.1693-114.395 8.20189L-128.74 8.20189-128.74-5.34771-112.516-5.34771C-112.11-5.30615-111.72-5.52258-111.541-5.88976-111.512-6.08126-111.512-6.27634-111.541-6.46783L-111.541-7.94912Z" fill-rule="evenodd" transform="matrix(1 0 0 -1.00163 223.793 567.002)"/><path d="M1.73438 420.306 324.216 420.306 324.216 97.8239 1.73438 97.8239Z" fill="#FFFFFF" transform="matrix(1 0 0 -1.00163 0.024774 596.765)"/><path d="M3.46876 99.7029 322.482 99.7029 322.482 418.571 3.46876 418.571ZM325.95 96.0895 0 96.0895 0 422.076 325.95 422.076Z" fill="#192286" transform="matrix(1 0 0 -1.00163 0.024774 596.765)"/><path d="M11.1288 410.586 314.785 410.586 314.785 107.544 11.1288 107.544Z" fill="#0F218B" transform="matrix(1 0 0 -1.00163 0.024774 596.765)"/><path d="M0 0 28.0387 35.9518 60.3771 0.21692 60.3771-53.2953 97.8464-53.2953 97.9188-85.8506 60.3771-85.7783 60.3771-137.737 29.484-98.533 0-138.351 0-85.7783-38.9146-86.5733-38.6618-55.1381 0-55.1381Z" fill="#FFFFFF" fill-rule="evenodd" transform="matrix(1 0 0 -1.00163 133.498 285.976)"/><path d="M0 0 0-52.3196 29.3395-12.574 59.9798-51.4888 59.9798 0 97.3769 0 97.3769 32.2662 60.2327 32.2662 60.2327 85.7784 28.0387 121.405 0.144559 85.5977 0.144559 30.3512-38.5172 30.3512-38.7702-0.79483ZM-0.289118-53.1146-0.289118-0.252938-39.2037-1.04793-38.9508 30.4958-0.289118 30.4958-0.289118 85.6699 27.8218 121.802 60.3411 85.9952 60.3411 32.4469 97.9549 32.4469 97.9549-0.072198 60.558-0.072198 60.558-52.5005 29.5202-13.1161Z" fill="#FFFFFF" transform="matrix(1 0 0 -1.00163 133.498 371.75)"/></g></svg>