<svg width="328" height="327" xmlns="http://www.w3.org/2000/svg" xmlns:xlink="http://www.w3.org/1999/xlink" xml:space="preserve" overflow="hidden"><defs><clipPath id="clip0"><rect x="230" y="266" width="328" height="327"/></clipPath></defs><g clip-path="url(#clip0)" transform="translate(-230 -266)"><path d="M0 0C4.39566 89.2363 80.2991 158.013 169.535 153.618 258.772 149.222 327.549 73.3183 323.153-15.9179 318.758-105.154 242.854-173.931 153.618-169.536 64.3814-165.14-4.39566-89.2363 0 0" fill="#FFFFFF" transform="matrix(1.00317 0 0 -1 231.875 421.551)"/><path d="M0 0C-88.4368 0.0189602-160.144-71.658-160.163-160.095-160.182-248.532-88.5053-320.239-0.0684856-320.258 88.3683-320.277 160.076-248.6 160.095-160.163L160.095-160.129C160.001-71.7446 88.3844-0.113271 0 0M0-323.545C-90.2711-323.507-163.419-250.297-163.382-160.026-163.344-69.7555-90.1341 3.39306 0.136808 3.35514 90.3946 3.31738 163.538-69.8715 163.518-160.129 163.424-250.382 90.2531-323.507 0-323.545" fill="#192286" transform="matrix(1.00317 0 0 -1 393.931 269.355)"/><path d="M0 0C4.48295 81.9799 74.5749 144.804 156.555 140.321 238.535 135.838 301.358 65.7457 296.875-16.2342 292.393-98.2141 222.301-161.038 140.321-156.555 58.3408-152.072-4.48295-81.98 0 0" fill="#0F218B" transform="matrix(1.00317 0 0 -1 245.076 421.369)"/><path d="M0 0 0.308104 118.804-29.821 88.333-29.6497 134.485 21.6039 183.308 68.7148 133.972 68.7148 89.3943 34.8196 118.667 34.7168-0.376589Z" fill="#FFFFFF" fill-rule="evenodd" transform="matrix(1.00317 0 0 -1 374.423 520.932)"/><path d="M0 0 34.7168-0.376589 34.7168 118.667 68.612 89.3943 68.612 133.903 21.6039 183.308-29.6497 134.622-29.6497 88.47 0.479399 118.941 0.171132 0.136971ZM34.7168-0.376589 0 0 0.308104 118.804-29.821 88.333-29.6497 134.622 21.7067 183.445 68.7148 133.972 68.7148 89.4628 34.8195 118.736Z" fill="#FFFFFF" transform="matrix(1.00317 0 0 -1 374.423 520.932)"/><path d="M0 0C-0.266751 0.311536-0.651349 0.497706-1.06128 0.51356-1.55474 0.478419-2.01223 0.243377-2.32818-0.136971-2.32818-0.136971-2.77326-0.684693-3.25249-1.33539L-5.64933-4.75901C-7.60076-7.3953-9.41538-9.75781-11.1272-11.9149-11.1488-12.0623-11.1488-12.2123-11.1272-12.3598-11.1462-12.7968-10.9554-13.2166-10.6136-13.4897-10.2145-13.7422-9.75045-13.8732-9.27841-13.8663-8.90444-13.8911-8.5321-13.7952-8.21696-13.5923-7.90216-13.3815-7.67186-13.0662-7.56643-12.7022L-5.68332-10.5796-5.68332-27.6983C-5.61484-28.3756-5.01024-28.8691-4.33306-28.8004-4.31508-28.7986-4.29743-28.7965-4.27978-28.7939-3.88178-28.7975-3.49064-28.6907-3.14985-28.4858-2.81804-28.3251-2.56077-28.0431-2.43083-27.6984L-2.43083-6.2657C-2.12191-5.5846-1.71868-4.95074-1.23241-4.38243-0.436902-3.50911 0.0969259-2.42936 0.308267-1.2669 0.309411-0.804011 0.203986-0.347168 0 0.0684856ZM-0.821664 9.92878C-1.4686 8.33318-2.21181 6.77828-3.0472 5.27257-4.44846 2.91464-5.96822 0.629283-7.60076-1.57501-7.86653-1.93394-8.28414-2.14888-8.73053-2.15689-9.63718-2.19988-10.407-1.49982-10.45-0.593161-10.4705-0.161652-10.3201 0.26054-10.0316 0.582046-8.57623 2.6456-7.22793 4.78255-5.99159 6.98439-5.51236 7.73773-4.99863 8.73053-4.34826 9.9631L-4.07432 10.7504C-3.62892 11.3444-2.93344 11.6985-2.19105 11.7092-1.78651 11.7393-1.39194 11.5739-1.12977 11.264-0.834413 10.9-0.720978 10.4211-0.821664 9.96294ZM26.8081-3.45795 21.6725-3.45795 21.6725-24.0005C21.2791-25.6066 20.1858-26.9515 18.6936-27.6641 18.0024-27.9559 17.278-28.1629 16.5367-28.2803L13.832-28.2803 9.75765-27.4928C8.95837-27.3488 8.19228-27.0587 7.49795-26.637 6.6078-26.0891 6.16272-25.507 6.16272-24.8907 6.20473-24.4361 6.42653-24.0169 6.77909-23.7267 7.20325-23.6128 7.6408-23.5551 8.08016-23.5555 9.01934-23.6432 9.93532-23.8984 10.7848-24.3088 11.5992-24.6653 12.4667-24.8851 13.3526-24.9592L15.4411-24.9592C16.2979-24.977 17.107-24.5659 17.5982-23.8636 17.8414-23.5447 18.0269-23.1854 18.1461-22.8023L18.1461-3.49228 2.70477-3.49228 2.15689-3.25249C1.83865-2.86561 1.65804-2.38392 1.64349-1.88311 1.64987-1.43166 1.8344-1.00081 2.15689-0.684693L2.70477-0.273942 26.6711-0.273942C27.0314-0.266587 27.3691-0.448344 27.5613-0.753178 27.7752-1.09038 27.8826-1.48396 27.8694-1.88311 27.8843-2.28863 27.7898-2.69072 27.5954-3.0472 27.3887-3.34975 27.0366-3.51941 26.6711-3.49228ZM24.8907 6.43667 3.93735 6.43667C3.56125 6.68266 3.29238 7.06186 3.18401 7.49795 3.13301 7.86146 3.13301 8.2302 3.18401 8.59355L3.97167 9.65484 24.8565 9.65484C25.7264 9.19668 26.06 8.12004 25.602 7.24999 25.493 7.04323 25.3444 6.86 25.1646 6.71061L24.8565 6.43667ZM-47.0083-24.6511-44.3033-24.6511C-43.8257-24.6254-43.3615-24.8137-43.0366-25.1646-42.7404-25.5195-42.5824-25.9693-42.5915-26.4314-42.5737-26.8683-42.7203-27.2958-43.0024-27.6298-43.3414-27.9778-43.8195-28.154-44.3033-28.1092L-77.3768-28.1092C-77.9111-28.1311-78.4307-27.933-78.8148-27.5613-79.1671-27.2346-79.3658-26.7749-79.3626-26.2945-79.3626-25.1646-78.6779-24.5826-77.3085-24.5826L-75.3912-24.5826-75.3912-0.61637C-75.4383 0.192381-75.0284 0.959289-74.3298 1.36955-73.9908 1.5683-73.6202 1.70724-73.2342 1.7803L-63.2711 1.7803-63.2711 5.20409-78.6437 5.20409C-79.0759 5.17107-79.4971 5.34956-79.7735 5.68332-80.2756 6.35298-80.2756 7.27353-79.7735 7.94319-79.4874 8.26371-79.0729 8.43942-78.6437 8.42242L-63.2711 8.42242-63.2711 10.0316C-63.2451 10.3655-63.0844 10.6746-62.826 10.8874-62.5254 11.0628-62.1802 11.146-61.833 11.1272-61.0476 11.2254-60.2972 10.7723-60.0184 10.0316L-60.0184 7.8747-43.4817 7.8747C-43.1644 7.88287-42.861 7.74378-42.66 7.49795-42.4426 7.2142-42.3336 6.86213-42.3519 6.50515-42.3434 6.11745-42.4506 5.73596-42.66 5.40955-42.8297 5.1155-43.1422 4.93325-43.4817 4.93015L-60.0184 4.93015-60.0184 1.71181-49.4733 1.71181C-48.6441 1.76935-47.8518 1.36007-47.419 0.650368-47.2472 0.311046-47.1098-0.044295-47.0083-0.410914L-47.0083-24.8222ZM-72.1386-24.6511-49.9868-24.6511-49.9868-17.8035-72.1386-17.8035ZM-49.9868-9.82613-72.1386-9.82613-72.1386-14.3797-49.9868-14.3797ZM-49.9868-6.60796-49.9868-2.32818C-50.1292-1.99327-50.3528-1.69923-50.6373-1.47236L-51.0824-1.2669-71.0429-1.2669C-71.438-1.22261-71.8193-1.42692-72.0016-1.78046-72.0294-1.96189-72.0294-2.14675-72.0016-2.32818L-72.0016-6.60796Z" fill-rule="evenodd" transform="matrix(1.00317 0 0 -1 420.069 646.173)"/></g></svg>