<svg width="2476" height="1393" xmlns="http://www.w3.org/2000/svg" xmlns:xlink="http://www.w3.org/1999/xlink" xml:space="preserve" overflow="hidden"><g transform="matrix(1 0 0 1 0 -199)"><path d="M160.009 1392.47 2315.33 1392.47C2403.6 1392.47 2475.17 1320.88 2475.17 1232.56L2475.17 160.387C2475.17 72.0699 2403.6 0.473766 2315.33 0.473766L160.009 0.473766C71.7316 0.473766 0.166753 72.0699 0.166753 160.387L0.166753 1232.56C0.166753 1320.88 71.7316 1392.47 160.009 1392.47" fill="#016D2C" fill-rule="evenodd" transform="matrix(1 0 0 -1 0 1592)"/><path d="M108.132 1239.81C75.3536 1239.92 48.691 1213.43 48.5798 1180.64 48.5798 1180.57 48.5784 1180.5 48.5784 1180.43L48.5784 108.453C48.6899 75.7411 75.2298 49.2824 107.929 49.2824L2263.2 49.2824C2295.9 49.2824 2322.44 75.7411 2322.55 108.453L2322.55 1180.43C2322.44 1213.18 2295.93 1239.7 2263.2 1239.81ZM2263.2 0.444438 108.132 0.444438C48.5044 0.444438 0.166734 48.8019 0.166734 108.453L0.166734 1180.43C0.166734 1240.09 48.5044 1288.44 108.132 1288.44L2263.2 1288.44C2322.83 1288.44 2371.17 1240.09 2371.17 1180.43L2371.17 108.453C2371.17 48.8019 2322.83 0.444438 2263.2 0.444438" fill="#FFFFFF" fill-rule="evenodd" transform="matrix(1 0 0 -1 51.9999 1540)"/><path d="M17.5536 158.197 194.594 31.6689C189.158 20.831 181.844 11.0439 172.994 2.76529 162.698-4.10671 145.539 4.98898 145.539 4.98898L12.9107 102.614C3.31103 111.253-1.12322 124.263 1.20234 136.975Z" fill="#FFFFFF" fill-rule="evenodd" transform="matrix(1 0 0 -1 1655 665)"/><path d="M0.618051 645.14 181.458 516.652C197.943 520.727 208.803 536.463 206.771 553.334L211.632 556.172 219.125 556.172 224.593 553.942 230.061 549.281C230.061 549.281 421.23 318.245 457.479 232.114L462.542 221.778C464.859 217.055 462.912 211.348 458.194 209.03 457.391 208.635 456.537 208.355 455.657 208.199L383.764 187.933C383.764 187.933 376.07 187.933 375.26 175.57L446.138 10.1974C450.957 2.13575 460.68-1.55478 469.63 1.28037L547.393 43.0284C565.568 55.8559 573.684 78.7595 567.644 100.18L564.201 138.28 556.708 194.215 551.645 236.37 544.355 275.685C520.247 377.458 468.856 470.72 395.714 545.431 274.208 667.029 165.258 715.464 101.061 723.773 36.8666 732.083 0.618051 645.14 0.618051 645.14" fill="#FFFFFF" fill-rule="evenodd" transform="matrix(1 0 0 -1 1678 1143)"/><path d="M90.0755 0.329413C80.2149 2.86817 71.4839 8.6555 65.2721 16.7682L0.743692 168.985C1.48882 178.92 5.4577 188.332 12.0367 195.775L38.8552 206.329 122.744 10.4765Z" fill="#FFFFFF" fill-rule="evenodd" transform="matrix(1 0 0 -1 1998 1162)"/><path d="M125.365 231.647C117.474 242.006 108.877 251.808 99.6346 260.985L121.516 277.173C126.175 272.52 133.266 264.426 143.193 253.095 136.508 261.391 137.521 260.378 146.637 249.655ZM188.575 191.18C190.663 165.942 196.821 141.209 206.808 117.933 218.171 142.054 225.037 168.04 227.068 194.62L188.575 194.62 188.575 193.406C187.959 192.824 187.595 192.025 187.562 191.18ZM6.23838 193.406 6.23838 231.242 57.9004 231.242 57.9004 277.173 97.0022 277.173 97.0022 231.242 146.232 231.242 146.232 193.406 97.0022 193.406 97.0022 146.464C106.281 158.451 114.677 171.098 122.124 184.301L139.344 173.981C157.652 206.025 170.459 240.905 177.229 277.173L215.115 271.305C212.075 258.558 208.632 246.215 204.782 234.682L278.326 234.682 278.326 194.214 261.713 194.214C259.223 155.051 248.67 116.822 230.714 81.9168 245.368 65.9408 262.38 52.2943 281.161 41.4499 275.143 33.5421 269.789 25.1498 265.157 16.3596 262.117 10.8963 259.687 6.84974 258.268 3.61287 239.94 16.8019 222.973 31.7808 207.619 48.3292 190.117 30.6931 171.139 14.582 150.892 0.173037 142.424 11.8729 133.222 23.0236 123.339 33.558 146.081 46.6248 166.597 63.2216 184.117 82.7264 174.153 101.898 166.796 122.312 162.238 143.428 158.969 136.409 155.177 129.644 150.892 123.194 147.043 132.299 142.788 141.405 138.332 150.51L131.443 141.405C125.972 133.715 121.719 128.05 118.679 124.206L97.0022 140.191 97.0022 116.113 104.903 125.42C121.719 111.661 139.344 96.2828 157.78 79.4896L132.456 51.9716C120.3 65.7306 108.347 78.0732 97.0022 88.5949L97.0022 41.6525C99.9873 25.157 89.0175 9.36887 72.5024 6.38759 69.2177 5.79421 65.859 5.74591 62.5596 6.24303 52.5651 5.43336 39.0585 5.02925 22.041 5.02925 21.1696 17.4778 18.7884 29.7761 14.9497 41.6525L40.2749 41.6525C52.4304 41.6525 58.305 46.5087 57.4957 56.4223L57.4957 84.5469 12.7218 51.3649 0.160625 91.8318C20.1698 102.577 39.3357 114.821 57.4957 128.455L57.4957 144.439 31.158 127.24C26.9167 134.217 22.3182 140.971 17.3814 147.474 11.3037 156.58 6.23838 163.459 2.38844 167.708L28.7262 183.693C30.8013 181.502 32.7617 179.206 34.6022 176.814 44.5299 163.054 52.2272 151.926 57.4957 143.428L57.4957 193.406Z" fill="#FFFFFF" fill-rule="evenodd" transform="matrix(1 0 0 -1 253 743)"/><path d="M218.984 86.068 161.686 86.068C170.476 76.3975 180.48 67.9022 191.449 60.7925 201.782 67.8702 211.053 76.3802 218.984 86.068M104.388 30.8653C105.601 31.0544 106.768 31.4655 107.83 32.0794 125.008 34.0547 141.916 37.9196 158.244 43.6048 149.197 51.7597 140.74 60.5428 132.936 69.8909 125.238 55.8022 115.856 42.697 104.995 30.8653ZM94.0618 229.028C91.633 239.745 89.4055 250.867 87.1781 262.19 159.661 262.19 219.39 265.02 265.957 268.054L273.042 235.903 183.553 232.465ZM263.729 3.56802C239.147 7.43505 215.226 14.7177 192.663 25.2045 169.975 14.084 146.053 5.66906 121.396 0.130414 115.927 10.7876 109.843 21.1174 103.173 31.0678 97.269 22.7454 90.4801 15.0834 82.9273 8.21826 82.9273 9.63372 80.9025 11.8583 79.4853 14.8906 75.5772 23.4133 70.5371 31.3718 64.5019 38.5493 66.0699 22.4316 54.2591 8.09721 38.1203 6.53224 37.3339 6.45586 36.5421 6.41119 35.7518 6.39894 33.485 6.25304 31.2427 5.84666 29.0708 5.18595L7.20367 5.18595C5.58474 18.9346 3.76163 31.4716 1.53524 42.9971L16.3148 42.9971C24.0087 42.9971 27.8551 47.2438 27.8551 55.5341L27.8551 97.3906 3.76163 91.7298 0.319602 134.193 15.1003 136.418C19.2273 137.748 23.5214 138.497 27.8551 138.641L27.8551 185.755 5.58474 185.755 5.58474 224.579 27.4508 224.579 27.4508 275.13 64.5019 275.13 64.5019 224.579 84.749 224.579 84.749 185.757 64.5019 185.757 64.5019 145.315 82.9273 149.965 82.9273 109.524 64.5019 104.874 64.5019 40.7739C88.8042 64.7215 106.216 94.7524 114.916 127.723L88.191 127.723 88.191 159.873 121.396 159.873 122.61 172.612 92.8472 172.612 92.8472 201.73 113.095 201.73 104.995 220.535 138.2 228.623 150.753 201.124 171 201.124C168.205 209.015 164.751 216.658 160.674 223.973L195.093 230.848 206.229 201.73 215.339 201.73C216.665 205.265 218.22 208.711 219.997 212.042 222.499 219.01 225.547 225.771 229.108 232.263L262.312 223.164 250.974 201.326 271.22 201.326 271.22 172.006 161.686 172.006C161.723 167.729 161.316 163.459 160.471 159.267L275.27 159.267 275.27 128.329 154.802 128.329C154.018 124.06 152.867 119.865 151.36 115.792L261.502 115.792 261.502 83.642C251.506 69.5832 239.733 56.8743 226.475 45.8284 243.712 40.9112 261.429 37.8601 279.32 36.73 273.3 26.0209 267.957 14.944 263.325 3.56802Z" fill="#FFFFFF" fill-rule="evenodd" transform="matrix(1 0 0 -1 592 741)"/><path d="M167.16 410.358 99.8836 410.358 0.159513 359.342 17.4871 301.863 87.9918 338.766 89.0106 338.766 89.0106 0.35842 167.16 0.35842Z" fill="#FFFFFF" fill-rule="evenodd" transform="matrix(1 0 0 -1 249 1348)"/><path d="M106.117 67.0088 106.117 68.0278 140.156 102C199.727 162.3 249.254 221.919 249.254 294.618 249.254 361.372 209.087 417.255 121.095 417.255 79.8119 417.363 39.548 404.464 6.04101 380.396L28.3374 322.984C50.115 340.656 76.906 351.055 104.926 352.709 149.859 352.709 168.921 322.984 168.921 287.144 168.921 231.77 123.308 179.114 45.6966 98.7721L0.254109 49.6844 0.254109 0.255416 257.254 0.255416 257.254 67.0088Z" fill="#FFFFFF" fill-rule="evenodd" transform="matrix(1 0 0 -1 522 1348)"/><path d="M167.393 410.358 100.219 410.358 0.392673 359.342 17.7387 301.863 88.3138 338.766 89.3339 338.766 89.3339 0.35842 167.393 0.35842Z" fill="#FFFFFF" fill-rule="evenodd" transform="matrix(1 0 0 -1 872 1348)"/><path d="M106.72 67.8822 106.72 68.9015 140.714 102.886C200.375 163.207 249.668 222.849 249.668 295.574 249.668 362.352 209.553 418.255 121.848 418.255 80.6132 418.398 40.3922 405.491 6.94487 381.383L29.0426 323.95C50.8257 341.569 77.5616 351.962 105.53 353.685 150.743 353.346 168.931 323.61 168.931 286.908 168.931 231.514 123.377 178.84 46.0394 98.4684L0.486653 49.7015 0.486653 0.255811 257.487 0.255811 257.487 67.8822Z" fill="#FFFFFF" fill-rule="evenodd" transform="matrix(1 0 0 -1 1154 1349)"/><path d="M106.72 67.8822 106.72 68.9015 140.714 102.886C200.375 163.207 249.667 222.849 249.667 295.574 249.667 362.352 209.553 418.255 121.847 418.255 80.6131 418.398 40.3921 405.491 6.94486 381.383L29.0426 323.95C50.8256 341.569 77.5615 351.962 105.53 353.685 150.743 353.346 168.93 323.61 168.93 286.908 168.93 231.514 123.377 178.84 46.0393 98.4684L0.486652 49.7015 0.486652 0.255811 257.487 0.255811 257.487 67.8822Z" fill="#FFFFFF" fill-rule="evenodd" transform="matrix(1 0 0 -1 1523 1349)"/></g></svg>