<svg width="340" height="305" xmlns="http://www.w3.org/2000/svg" xmlns:xlink="http://www.w3.org/1999/xlink" xml:space="preserve" overflow="hidden"><defs><clipPath id="clip0"><rect x="7" y="335" width="340" height="305"/></clipPath></defs><g clip-path="url(#clip0)" transform="translate(-7 -335)"><path d="M0 0 313.038 0C320.39 0 326.349-5.95986 326.349-13.3117L326.349-291.146C326.349-298.498 320.39-304.458 313.038-304.458L0-304.458C-7.35196-304.458-13.3117-298.498-13.3117-291.146L-13.3117-13.3117C-13.3117-5.95986-7.35196 0 0 0" fill="#016D2C" transform="matrix(1.00078 0 0 -1 20.3588 334.999)"/><path d="M0 0C-3.4839 0-6.31226-2.81579-6.32806-6.29952L-6.32806-284.134C-6.29681-287.607-3.47269-290.405 0-290.405L312.924-290.405C316.403-290.405 319.223-287.585 319.223-284.105L319.223-6.29952C319.208-2.827 316.396-0.0156244 312.924 0ZM0 3.50615 312.924 3.50615C318.333 3.49036 322.714-0.890591 322.729-6.29952L322.729-284.134C322.714-289.543 318.333-293.924 312.924-293.94L0-293.94C-5.4091-293.924-9.79005-289.543-9.80567-284.134L-9.80567-6.29952C-9.79005-0.890591-5.4091 3.49036 0 3.50615" fill="#FFFFFF" fill-rule="evenodd" transform="matrix(1.00078 0 0 -1 20.3588 342.011)"/><path d="M0 0 312.924 0C316.396-0.0156244 319.208-2.827 319.223-6.29952L319.223-166.552-6.32806-166.552-6.32806-6.29952C-6.31226-2.81579-3.48373 0 0 0" fill="#FFFFFF" fill-rule="evenodd" transform="matrix(1.00078 0 0 -1 20.3588 342.011)"/><path d="M72.2592 317.857 86.5115 317.857 86.5115 289.524 72.2592 289.524Z" fill="#016D2C" transform="matrix(1.00078 0 0 -1 7.03665 709.638)"/><path d="M0 0C6.7652-34.015 6.7652-69.0292 0-103.044L-2.48004-102.531C0.870212-85.7398 2.55068-68.6584 2.53693-51.5364 2.54916-34.4048 0.868683-17.3141-2.48004-0.513058Z" fill="#016D2C" fill-rule="evenodd" transform="matrix(1.00078 0 0 -1 269.313 354.439)"/><path d="M0 0C2.41771-14.8233 3.62843-29.8185 3.61994-44.8378 3.62962-59.8476 2.41907-74.8334 0-89.6471L-3.42073-88.8489C-1.05957-74.2784 0.122448-59.5412 0.113956-44.7807 0.119391-30.0298-1.06263-15.3024-3.42073-0.74114Z" fill="#016D2C" fill-rule="evenodd" transform="matrix(1.00078 0 0 -1 237.106 361.138)"/><path d="M0 0C1.6353-12.4083 2.45422-24.9109 2.4515-37.4266 2.4532-49.9327 1.63445-62.4256 0-74.8246L-4.8456-73.8269C-3.27892-61.757-2.49821-49.5978-2.5084-37.4266-2.49634-25.2552-3.27722-13.096-4.8456-1.02612Z" fill="#016D2C" fill-rule="evenodd" transform="matrix(1.00078 0 0 -1 201.447 368.549)"/><path d="M0 0C0.826565-9.74861 1.2542-19.7822 1.2542-30.0439 1.2542-40.3055 0.826565-50.3391 0-60.0877L-1.2542-59.8597-6.5845-58.805C-5.815-49.484-5.4159-39.8779-5.4159-30.1009-5.4159-20.3238-5.815-10.7177-6.5845-1.39669L-1.33979-0.313507Z" fill="#016D2C" fill-rule="evenodd" transform="matrix(1.00078 0 0 -1 166.103 375.875)"/><path d="M0 0C0.54159-6.89818 0.826735-14.0243 0.826735-21.3215 0.826735-28.6187 0.54159-35.5737 0-42.6144L-6.86965-42.6144C-6.32806-35.7449-6.07144-28.6187-6.07144-21.3215-6.07144-14.0243-6.32806-6.86965-6.86965 0Z" fill="#016D2C" fill-rule="evenodd" transform="matrix(1.00078 0 0 -1 130.986 384.654)"/><path d="M0 0 0 23.6875C-2.4622 21.3035-5.36732 19.4249-8.55148 18.1576L-8.55148 23.8585C-4.32915 25.7451-0.893309 29.0398 1.1686 33.1795L5.44443 33.1795 5.44443 0Z" fill="#016D2C" fill-rule="evenodd" transform="matrix(1.00078 0 0 -1 64.4328 493.086)"/><path d="M0 0C2.85044 0.228082 4.21876 2.22325 4.38978 6.01455 4.5608 9.80551 2.70795 11.7154-0.142488 11.7154-2.99292 11.7154-4.76018 9.72008-4.93137 6.35659-4.76018 2.36591-3.13541 0.228082 0 0M9.20702 21.0364 4.01921 20.0672C3.50615 22.9176 2.19489 24.172 0.113956 24.172-3.33496 24.172-5.07386 20.4948-5.07386 13.1121-3.88521 15.4656-1.46802 16.9447 1.1686 16.9318 6.52761 16.4946 9.37804 13.017 9.72008 6.49907 9.37804-0.684077 6.15704-4.41831 0-4.73182-7.24022-5.04533-10.8033 0.54159-10.6322 12.0289-10.4612 23.5163-6.95507 29.1317-0.113956 29.3882 4.90284 29.3882 7.95282 26.5377 9.09307 21.0364Z" fill="#016D2C" fill-rule="evenodd" transform="matrix(1.00078 0 0 -1 85.343 488.839)"/><path d="M0 0 13.2262 0 13.2262-5.35883-6.72699-5.35883-6.72699-1.2542C-4.55927 2.67568-1.75656 6.22004 1.56771 9.23538 5.87206 13.1406 7.8674 16.0767 7.52536 18.1004 7.52536 20.9508 6.04308 22.5756 3.36366 22.6612 0.684077 22.7466-0.769502 20.7798-1.31109 16.9603L-6.49907 18.2143C-5.45377 24.7514-1.90974 28.02 4.13317 28.02 9.83421 27.7921 12.8652 24.685 13.2262 18.699 13.4144 14.1634 11.0629 9.89976 7.12609 7.63915 4.43461 5.40723 2.03983 2.83991 0 0" fill="#016D2C" fill-rule="evenodd" transform="matrix(1.00078 0 0 -1 104.028 487.727)"/><path d="M0 0C2.85044 0 4.41814 3.84819 4.41814 11.8579 4.41814 19.8676 2.96456 24.1149 0 24.001-2.96456 23.8868-4.53227 20.0673-4.53227 11.8579-4.53227 3.64864-2.9075 0 0.113956 0ZM0 29.2173C6.81258 29.2173 10.2902 23.3738 10.3756 12.1145 10.4612 0.855097 7.04066-4.98826 0.113956-4.78871-6.81258-4.58916-10.1475 0.91216-10.2617 12.1145-10.3756 23.3167-6.64156 29.0178 0 29.2173" fill="#016D2C" fill-rule="evenodd" transform="matrix(1.00078 0 0 -1 130.501 488.668)"/><path d="M0 0-10.6606 0-10.6606 2.62235-4.30418 11.3734-10.2046 11.3734-10.2046 14.5659-0.313507 14.5659-0.313507 11.7154-6.89801 2.87897 0.000169831 2.87897ZM-12.4849 0-15.7914 0-15.7914 8.32339-23.0601 8.32339-23.0601-0.0568932-26.3952-0.0568932-26.3952 20.2667-23.0601 20.2667-23.0601 11.915-15.7914 11.915-15.7914 20.2667-12.4849 20.2667-12.4849-0.0568932ZM-32.8089 8.86498-27.9059 0.113956-31.7541 0.113956-34.918 6.32806-36.885 3.90525-36.885 0.113956-40.0775 0.113956-40.0775 18.243-36.885 19.0411-36.885 8.49441-32.2101 14.5659-28.191 14.5659Z" fill="#016D2C" fill-rule="evenodd" transform="matrix(1.00078 0 0 -1 215.654 493.057)"/><path d="M40.9326 144.122 56.7241 144.122 56.7241 146.402 40.9326 146.402ZM40.9326 137.936 56.7241 137.936 56.7241 140.188 40.9326 140.188ZM40.9326 134.002 40.9326 131.38 56.7242 131.38 56.7242 133.86ZM26.3098 150.507C24.4284 154.127 22.6043 157.319 20.8654 160.084L26.3098 162.935C28.0801 160.534 29.7078 158.03 31.1841 155.438 31.6972 154.697 32.0677 154.127 32.2957 153.756L26.3098 150.564ZM22.7182 118.211 20.0957 125.337C21.465 126.728 22.9117 128.042 24.4284 129.271L24.4284 141.3 20.2953 141.3 20.2953 147.856 30.785 147.856 30.785 129.271C32.9711 126.183 36.6195 124.473 40.391 124.767 44.7522 124.767 53.2752 124.767 66.0452 124.966 65.8834 124.6 65.7592 124.218 65.6747 123.826 65.0476 121.973 64.5346 120.349 64.1638 118.952 61.0568 118.952 56.9238 118.952 51.7929 119.152 46.092 119.152 41.7593 119.152 39.0228 119.323 34.899 119.06 30.9037 120.813 28.3051 124.026 26.7864 122.607 25.3494 121.103 24.001 119.522 23.4879 118.895 23.1173 118.467 22.8607 118.211ZM33.0653 153.3 33.0653 158.345 39.992 158.345 37.1416 162.308 44.0396 163.248 45.3509 161.367C46.0548 160.41 46.6837 159.399 47.2323 158.345L50.8807 158.345C51.0232 158.63 51.2798 159.058 51.6504 159.685 52.3413 160.838 52.9693 162.027 53.5316 163.248L60.4583 162.308C59.7552 160.926 58.9451 159.601 58.0353 158.345L64.962 158.345 64.962 153.3 51.4508 153.3 50.7097 150.906 63.0807 150.906 63.0807 127.019 34.5761 127.019 34.5761 150.906 44.0396 150.906 44.4102 153.3Z" fill="#FFFFFF" fill-rule="evenodd" transform="matrix(1.00078 0 0 -1 7.03665 709.638)"/><path d="M78.6443 150.25 83.148 150.25 83.148 155.951 78.6443 155.951ZM107.576 153.3 98.1984 153.3C99.4242 151.33 101.01 149.609 102.873 148.226 104.745 149.608 106.341 151.329 107.576 153.3M98.1984 126.107 107.576 126.107 107.576 130.952 98.1984 130.952ZM91.9559 118.211 91.9559 136.767 114.104 136.767 114.104 118.211 107.633 118.211 107.633 120.662 98.1984 120.662 98.1984 118.211ZM114.76 137.366C110.677 138.227 106.708 139.556 102.93 141.328 99.101 139.242 94.9927 137.716 90.7303 136.796 90.1916 138.773 89.4363 140.685 88.4783 142.497 91.5657 143.048 94.5853 143.927 97.4858 145.119 96.3235 146.408 95.2564 147.78 94.2933 149.224 93.5236 148.369 92.7256 147.485 91.842 146.601 91.5854 147.115 91.1577 147.856 90.5307 148.853 90.1374 149.574 89.6994 150.269 89.2195 150.934L89.2195 144.179 85.2858 144.179 85.2858 139.646 89.419 139.646 89.419 133.945 85.2858 133.945 85.2858 127.732C86.8603 127.862 88.4229 128.109 89.9606 128.473 89.9606 126.477 89.7896 124.425 89.7896 122.287 83.4045 121.394 77.4565 120.444 71.9456 119.437L70.8054 126.192 72.5158 126.363 72.5158 141.955 77.1905 141.955 77.1905 126.933 79.4708 127.133 79.4708 144.321 72.8863 144.321 72.8863 161.595 89.2195 161.595 89.2195 152.359C92.3477 155.488 94.8361 159.196 96.5451 163.277L103.5 162.906C102.617 161.139 101.933 159.828 101.419 158.944L114.56 158.944 114.56 153.243C112.912 150.366 110.889 147.721 108.546 145.376 111.185 144.516 113.893 143.887 116.641 143.495 115.871 141.357 115.244 139.361 114.76 137.48Z" fill="#FFFFFF" fill-rule="evenodd" transform="matrix(1.00078 0 0 -1 7.03665 709.638)"/><path d="M0 0C-6.62628 1.18168-13.0238 3.40391-18.9556 6.5845-25.1212 3.43618-31.6917 1.15332-38.4812-0.199551L-41.4741 6.38512C-35.7765 7.35519-30.2288 9.06063-24.97 11.459-27.5856 14.1403-29.9075 17.0928-31.8967 20.2669L-25.5116 23.4594C-23.6588 20.6285-21.4559 18.0425-18.9556 15.763-16.5029 18.0158-14.5594 20.7659-13.2546 23.8298L-6.49907 20.6375C-8.27431 17.2977-10.4889 14.2107-13.0837 11.459-7.74088 8.98658-2.03219 7.39833 3.81966 6.75552 2.41329 4.49423 1.14007 2.24244 0 0M-40.9042 32.8374-40.9042 39.5929-22.4616 39.5929C-23.0888 41.3602-23.6019 42.9281-23.9724 44.2962L-15.7061 44.8663C-15.2797 43.8283-14.9273 42.7615-14.6515 41.6739-14.3948 40.6761-14.1953 39.9919-14.0813 39.5929L3.02146 39.5929 3.02146 32.8374-10.0907 32.8374C-6.93622 31.1271-2.44182 28.5047 3.39203 24.97L-0.940691 18.87C-3.82917 20.9985-8.3329 24.001-14.4519 27.8775-14.9337 28.0489-15.3785 28.3101-15.763 28.6472L-12.0006 32.9514-26.2527 32.9514-21.92 28.4476C-26.9056 24.7501-32.1126 21.3613-37.5122 18.3001-38.8803 20.4379-40.3626 22.5187-41.6453 24.514-36.634 26.8055-31.9081 29.6753-27.564 33.0653Z" fill="#FFFFFF" fill-rule="evenodd" transform="matrix(1.00078 0 0 -1 170.581 591.427)"/><path d="M192.463 144.122 197.965 144.122 197.965 146.715 192.463 146.715ZM192.463 139.789 192.463 137.081 197.965 137.081 197.965 139.732ZM204.15 139.789 204.15 137.081 209.851 137.081 209.851 139.732ZM209.851 146.716 204.15 146.716 204.15 144.122 209.851 144.122ZM206.06 156.493 195.741 156.493 200.815 153.471C200.815 153.471 206.06 156.493 206.06 156.493M178.867 150.507C177.099 153.87 175.275 157.063 173.394 160.084L179.095 163.077C179.978 161.823 181.346 159.771 183.228 156.863 184.111 155.637 184.738 154.697 185.109 154.013ZM174.904 118.382 172.31 125.337 176.615 129.47 176.615 141.3 172.453 141.3 172.453 147.856 183.171 147.856 183.171 129.47C185.079 126.19 188.795 124.405 192.549 124.966L218.203 124.966C218.051 124.538 217.928 124.1 217.832 123.655 217.175 122.21 216.669 120.701 216.322 119.152L201.015 119.152C197.252 119.152 193.917 119.152 191.066 119.323 186.951 119.107 182.976 120.851 180.349 124.026 178.375 122.284 176.553 120.377 174.904 118.325ZM205.889 126.078C205.537 127.659 205.099 129.219 204.578 130.753 205.703 130.619 206.836 130.561 207.97 130.582 209.338 130.582 209.965 131.152 209.851 132.264L209.851 132.663 204.15 132.663 204.15 126.962 197.965 126.962 197.965 132.663 192.264 132.663 192.264 126.449 186.164 126.449 186.164 151.333 195.114 151.333C193.911 152.1 192.664 152.794 191.38 153.414 190.656 153.736 189.96 154.117 189.299 154.554L191.751 156.607 186.05 156.607 186.05 161.367 215.467 161.367 215.467 156.122 206.915 151.219 216.122 151.219 216.122 132.663C216.379 128.501 214.611 126.392 210.877 126.278L209.195 126.278C208.126 126.152 207.051 126.085 205.974 126.078Z" fill="#FFFFFF" fill-rule="evenodd" transform="matrix(1.00078 0 0 -1 7.03665 709.638)"/><path d="M244.427 125.907 259.82 125.907 259.82 130.04 244.427 130.04ZM238.213 142.981 266.176 142.981 266.176 137.907 238.213 137.907ZM238.213 150.279 266.176 150.279 266.176 145.233 238.213 145.233ZM238.042 118.41 238.042 135.684 266.376 135.684 266.376 118.41 259.82 118.41 259.82 120.662 244.427 120.662 244.427 118.41ZM227.524 118.41 227.524 139.247C227.011 138.364 226.184 137.052 225.072 135.314 224.811 134.841 224.496 134.401 224.132 134.002 223.989 134.886 223.818 136.254 223.562 138.136 223.305 140.017 222.934 142.069 222.821 143.209 226.243 149.516 228.885 156.217 230.688 163.163L237.472 161.452C237.273 160.979 237.138 160.48 237.073 159.97 236.845 159.343 236.645 158.83 236.531 158.459L248.532 158.459 247.22 162.593 255.116 163.163 256.228 158.459 268.428 158.459 268.428 152.758 236.531 152.758 236.531 158.459C236.275 157.718 235.904 156.664 235.391 155.267 234.878 153.87 234.336 152.645 234.08 151.903L234.08 118.667Z" fill="#FFFFFF" fill-rule="evenodd" transform="matrix(1.00078 0 0 -1 7.03665 709.638)"/><path d="M285.075 138.877 307.878 138.877 307.878 141.3 285.075 141.3ZM285.075 152.188 307.878 152.188 307.878 154.611 285.075 154.611ZM285.075 147.884 285.075 145.632 307.878 145.632 307.878 147.913ZM279.374 120.662 273.673 123.285C275.184 126.135 276.523 129.527 278.006 133.033L283.706 130.781C283.706 130.525 283.393 130.097 283.136 129.47 281.521 125.67 280.21 122.734 279.203 120.662ZM313.921 121.404C312.781 123.313 311.47 125.309 309.959 127.418 309.673 125.897 309.302 124.393 308.848 122.914 307.85 120.064 305.399 118.866 301.522 118.981L290.434 118.981C287.649 118.457 284.967 120.29 284.443 123.075 284.324 123.71 284.325 124.361 284.448 124.995L284.448 132.492 291.203 132.492 291.203 126.791C291.203 124.767 291.944 123.94 293.826 123.94L299.84 123.94C301.383 123.628 302.887 124.626 303.199 126.169 303.201 126.177 303.202 126.184 303.204 126.192 303.244 126.703 303.37 127.204 303.574 127.675 303.659 128.433 303.793 129.185 303.973 129.926 305.825 129.113 307.73 128.428 309.674 127.874L307.793 130.496 313.237 133.347C313.864 132.463 314.035 132.15 313.807 132.406 316.287 129.043 318.168 126.335 319.508 124.339L313.807 121.318ZM278.433 134.002 278.433 159.486 291.203 159.486C291.583 160.873 291.954 162.127 292.315 163.248L299.84 162.678 298.329 159.486 315.033 159.486 315.033 134.002 298.5 134.002 302.634 128.729 296.933 125.565C296.049 127.047 294.738 129.043 292.97 131.551L297.474 134.002Z" fill="#FFFFFF" fill-rule="evenodd" transform="matrix(1.00078 0 0 -1 7.03665 709.638)"/><path d="M0 0 0-1.65313C-0.0636864-2.32719 0.4312-2.92516 1.10509-2.98868 1.12632-2.99055 1.14738-2.99207 1.1686-2.99292L16.5897-2.99292C17.2296-2.65598 17.6656-2.02846 17.7583-1.31126L17.7583 0ZM0 2.85044 17.7583 2.85044 17.7583 5.70087 0 5.70087ZM0 10.3473 0 8.6938 17.7583 8.6938 17.7583 10.3473C17.7583 11.2309 17.2738 11.6869 16.5897 11.6869L1.48228 11.6869C0.37057 11.5729-0.113956 11.1168 0 10.2331ZM5.98602 20.4948 10.9457 20.4948C11.3394 21.294 11.7869 22.0654 12.2854 22.8037 12.6264 23.4415 13.0172 24.0516 13.4541 24.6281 13.8763 25.4795 14.8963 25.8448 15.763 25.4547 16.5164 25.1342 16.8672 24.2639 16.5469 23.5105 16.5186 23.4436 16.4851 23.3787 16.4471 23.3167 16.0458 22.6766 15.5981 22.0671 15.1074 21.4926 14.8673 21.1746 14.6484 20.8413 14.4519 20.4948L22.2621 20.4948C23.1189 20.4058 23.7637 19.6742 23.7443 18.813 23.7443 17.8152 23.2882 17.3309 22.4046 17.3309L10.119 17.3309C9.98671 16.9299 9.8247 16.5391 9.63449 16.1621 9.50406 15.655 9.33253 15.1592 9.12143 14.6798L17.6729 14.6798C19.7822 14.6798 20.8368 13.5112 20.8368 11.1738L20.8368-2.76501C20.8368-5.10239 19.8391-6.18557 17.8439-6.07161L0.655546-6.07161C-1.99534-6.07161-3.27807-5.15945-3.16394-2.93603L-3.16394 11.3163C-3.32953 12.9927-2.10488 14.4857-0.428652 14.6515-0.229271 14.6712-0.0283617 14.6712 0.171019 14.6515L5.13075 14.6515C5.63667 15.4597 5.976 16.361 6.1285 17.3023L-4.33272 17.3023C-5.04974 17.2006-5.71344 17.6996-5.815 18.4164-5.83232 18.5385-5.83232 18.6625-5.815 18.7844-5.90942 19.6134-5.31417 20.362-4.48505 20.4566-4.43444 20.4624-4.38367 20.4656-4.33272 20.4663L2.33738 20.4663C1.92078 20.8786 1.53051 21.3164 1.1686 21.7774 0.753708 22.0885 0.413028 22.4876 0.171019 22.9461-0.393158 23.4251-0.462449 24.2703 0.0163037 24.8345 0.109371 24.944 0.219251 25.0379 0.342039 25.1125 1.18678 25.5437 2.21765 25.3304 2.8219 24.5994 4.01411 23.3018 5.07386 21.8886 5.98602 20.3809ZM-11.6298 23.3452C-9.71482 21.3739-8.01396 19.2048-6.55614 16.8747-6.13801 15.7536-6.25197 14.9269-6.89818 14.3948-7.55746 13.8836-8.50647 14.0035-9.01783 14.663-9.10903 14.7807-9.1824 14.9113-9.23555 15.0504-10.6886 17.3093-12.3489 19.4279-14.1953 21.3784-14.8328 21.8665-14.9543 22.7789-14.4662 23.4164-14.3882 23.5181-14.2972 23.6095-14.1953 23.6875-13.3646 24.1837-12.3015 24.0419-11.6298 23.3452M6.47054-9.34951 22.2621-9.34951C23.0333-8.99185 23.9485-9.32709 24.3061-10.0985 24.6636-10.8697 24.3284-11.7847 23.5572-12.1424 23.1949-12.3102 22.7817-12.3309 22.4046-12.1999L6.1285-12.1999C-1.05465-12.086-5.86255-10.3661-8.29486-7.04066-9.6153-8.88248-11.3165-10.4184-13.2831-11.5444-14.0615-12.1069-15.1484-11.9318-15.7109-11.1535-15.7396-11.1139-15.7664-11.0731-15.7915-11.0313-16.2808-10.3946-16.1614-9.48215-15.5249-8.9927-15.3515-8.85955-15.1504-8.76716-14.9364-8.72233-11.6298-6.84111-10.0336-4.67476-10.1192-2.25195L-10.1192 5.90042C-10.1192 6.78405-10.6891 7.21168-11.8008 7.21168L-14.9364 7.21168C-15.8201 7.21168-16.3331 7.78163-16.4472 8.89335-16.5259 9.72416-15.9163 10.4612-15.0857 10.54-15.0361 10.5448-14.9864 10.547-14.9364 10.5468L-9.80567 10.5468C-8.03842 10.4327-7.08822 9.37804-6.95524 7.3827L-6.95524-2.16636C-6.68912-6.84111-2.21391-9.23555 6.47054-9.34951" transform="matrix(1.00078 0 0 -1 60.5246 695.811)"/><path d="M0 0-9.12143 0C-9.14232-0.181039-9.2004-0.355795-9.29245-0.513058L-9.46364-0.684077C-7.97966-3.20861-6.13598-5.50353-3.99068-7.49683-2.00672-5.77067-0.371589-3.68057 0.826565-1.33979 1.05465-0.883628 1.05465-0.569951 0.826565-0.342039 0.598483-0.113956 0.342039 0.114126-0.0855946 0.114126ZM-11.4019-21.7775-11.4019-28.7328C-11.4019-29.5023-11.0599-29.9014-10.4042-29.9014L0.399102-29.9014C1.03868-29.9878 1.62732-29.5396 1.71393-28.8999 1.72904-28.7876 1.72786-28.6737 1.71019-28.5618L1.71019-21.4355C1.71019-20.5519 1.22567-20.0957 0.228082-20.0957L-10.0621-20.0957C-11.0599-19.9818-11.4873-20.5519-11.4873-21.6636ZM4.87431-20.4379 4.87431-29.7304C4.98826-31.8016 3.87655-32.8374 1.53917-32.8374L-11.2309-32.8374C-13.7962-33.0653-14.8794-32.0107-14.5659-29.6733L-14.5659-20.2097C-14.7939-17.9864-13.7393-16.9318-11.4019-17.0457L1.53917-17.0457C3.08667-16.756 4.57591-17.7755 4.86564-19.3228 4.92763-19.6535 4.93052-19.9923 4.87431-20.3238ZM-7.58225 3.13558 2.53693 3.13558C4.98826 3.13558 5.75793 1.99534 4.87431-0.342039 3.50174-3.86908 1.27899-7.00228-1.59624-9.46364 1.02612-11.2358 3.91222-12.5827 6.95507-13.4541 7.8387-13.7962 8.1522-14.5088 7.95282-15.6205 7.75327-16.732 6.95507-17.1028 5.95748-16.7891 2.26554-15.7317-1.21582-14.0441-4.33272-11.8008-7.63592-13.779-11.1434-15.3941-14.7939-16.6183-15.657-17.0391-16.6981-16.6808-17.1189-15.8175-17.1232-15.8088-17.1272-15.8002-17.1313-15.7915-17.5673-15.0254-17.2996-14.0506-16.5333-13.6148-16.408-13.5435-16.2735-13.4895-16.1337-13.4541-12.9501-12.4781-9.88957-11.1392-7.01213-9.46364-8.78364-7.66156-10.2904-5.61731-11.4873-3.39203L-11.8008-3.70553C-12.5569-4.86904-13.4574-5.93218-14.4804-6.86965-15.6015-7.76278-16.5517-7.87674-17.3309-7.21168-17.9864-6.41365-17.8725-5.53002-16.9888-4.53227-14.3811-1.81124-12.2514 1.33045-10.6893 4.76018-10.474 5.61511-9.60646 6.13377-8.75154 5.91859-8.61177 5.88344-8.47726 5.82926-8.35193 5.75793-7.46049 5.323-7.09059 4.24797-7.52553 3.35653-7.54319 3.32036-7.56204 3.28452-7.58225 3.24954ZM-28.1627 0.285145-28.1627-4.87431C-28.1627-5.87189-27.849-6.32806-26.8514-6.2141L-22.2052-6.2141C-21.4355-6.2141-21.0364-5.92895-21.0364-5.04533L-21.0364 0.427633C-21.0364 1.19731-21.464 1.59624-22.3762 1.59624L-26.8514 1.59624C-27.849 1.59624-28.2766 1.16877-28.1627 0.285145M-20.5233-9.20702-22.3762-9.20702-22.3762-15.7345-17.8725-15.7345C-17.1028-15.7345-16.6753-16.3902-16.5612-17.3878-16.4472-18.3855-17.1028-18.87-17.8725-18.87L-22.3762-18.87-22.3762-27.678C-20.7922-27.269-19.2316-26.7741-17.7014-26.1957-16.9318-26.1957-16.3902-26.4808-16.0481-27.3645-15.7061-28.2481-16.0481-28.7897-16.7037-29.0176-21.5033-30.5607-26.4372-31.6486-31.4406-32.2673-32.3456-32.3354-33.1465-31.6848-33.2649-30.785-33.2649-29.7874-32.9228-29.2742-31.9253-29.2742-31.4548-29.0862-30.9406-29.0366-30.443-29.1317L-30.443-14.8794C-30.506-14.1263-29.9467-13.4648-29.1937-13.4017-29.1636-13.3991-29.1334-13.3978-29.1032-13.3973-28.2972-13.4266-27.6504-14.0732-27.6211-14.8794L-27.6211-28.5047-26.6233-28.5047C-26.1705-28.5174-25.7186-28.4597-25.2835-28.3335L-25.2835-9.0929-28.5901-9.0929C-30.4715-9.40657-31.4406-8.32339-31.07-5.75793L-31.07 1.88121C-31.2981 3.87655-30.4144 4.82675-28.4191 4.73165L-21.293 4.73165C-19.1837 4.73165-18.2335 3.78162-18.4426 1.88121L-18.4426-6.41365C-18.1005-8.52295-18.87-9.40657-20.5233-9.20702" transform="matrix(1.00078 0 0 -1 122.514 676.542)"/><path d="M0 0-35.4312 0C-36.3149 0-36.7994 0.54159-36.9133 1.6533-36.9317 2.50857-36.2836 3.2317-35.4312 3.3066L-19.4971 3.3066C-19.9247 4.10463-20.3238 4.81724-20.6373 5.47296-21.1334 6.06363-21.0564 6.94471-20.4656 7.44078-20.3707 7.52044-20.2654 7.58735-20.1528 7.63915-19.2705 8.08071-18.1977 7.80032-17.6444 6.9836-17.2167 6.07144-16.6183 4.87431-15.8201 3.3066L-0.0568932 3.3066C0.76152 3.31204 1.42963 2.65292 1.43507 1.83434 1.43558 1.77371 1.43218 1.71342 1.42522 1.6533 1.62477 0.54142 0.997754 0 0 0M-25.9107-2.50857C-25.5058-1.74297-24.5573-1.45069-23.7919-1.85557-23.7153-1.89599-23.6421-1.94269-23.5733-1.99534-22.7665-2.48649-22.5104-3.53859-23.0013-4.34545-23.0285-4.39012-23.0577-4.43326-23.0888-4.47537-23.7771-5.64092-24.5488-6.75552-25.3976-7.81017-23.4954-12.0466-20.8503-15.908-17.5873-19.2121-13.59-15.9761-10.6192-11.6487-9.036-6.75552-9.91861-5.98704-10.7472-5.15843-11.5159-4.27582-12.1612-3.65238-12.1792-2.62371-11.5558-1.97819-11.5427-1.96477-11.5295-1.95135-11.5159-1.93828-10.903-1.19866-9.82623-1.05023-9.036-1.59624-5.13449-5.34542-1.56737-9.42746 1.62477-13.7962 2.22223-14.6749 2.15192-15.8459 1.45375-16.6468 0.792599-17.2534-0.235215-17.2091-0.84185-16.5479-0.910801-16.4727-0.97245-16.3914-1.02612-16.3047L-6.1854-9.66302C-8.14219-14.2138-11.0592-18.288-14.7369-21.6065-10.0008-24.9972-4.53193-27.224 1.22567-28.1056 2.23327-28.3811 2.82666-29.4211 2.55119-30.4287 2.27573-31.4363 1.23552-32.0297 0.228082-31.7542-6.10082-30.4277-12.0941-27.8286-17.3878-24.1149-22.9246-27.5509-28.9785-30.0724-35.3173-31.5832-36.6569-31.5832-37.4266-31.1841-37.6547-30.1009-37.8452-29.1115-37.1978-28.155-36.2085-27.9643-36.1308-27.9492-36.052-27.9393-35.9728-27.9346-30.3497-27.19-24.9955-25.0756-20.3807-21.7775-23.4614-18.5324-26.0366-14.8425-28.02-10.8318-29.9854-13.0038-32.2169-14.9193-34.6616-16.5328-35.6687-17.1787-36.4383-17.1218-36.9704-16.3618-37.5662-15.4953-37.3496-14.3104-36.4859-13.7108-32.1389-10.8483-28.5183-7.01281-25.9107-2.50857" transform="matrix(1.00078 0 0 -1 172.15 677.596)"/><path d="M198.934 15.9647 206.887 15.9647 206.887 19.4424 198.934 19.4424ZM205.889 25.9129 198.934 25.9129 198.934 22.4355 206.887 22.4355 206.887 24.6018C206.887 25.6279 206.516 25.9129 205.889 25.9129M187.959 16.1074 195.599 16.1074 195.599 19.585 187.959 19.585ZM187.959 24.7441 187.959 22.5779 195.599 22.5779 195.599 25.9129 189.413 25.9129C188.302 25.9129 187.845 25.6279 187.959 24.7441M185.964 38.0274 205.575 38.0274C206.398 38.0115 207.154 37.5689 207.571 36.8587 207.77 36.1746 207.571 35.5761 206.715 35.0343 204.473 33.5264 202.086 32.2469 199.589 31.2149 200.224 30.8042 200.405 29.9571 199.994 29.3226 199.929 29.2214 199.85 29.1292 199.76 29.0485L206.715 29.0485C208.239 29.4428 209.795 28.5273 210.189 27.0032 210.298 26.5815 210.309 26.1401 210.222 25.7134L210.222 9.46584C210.649 5.78867 208.169 4.64843 202.753 5.95969 201.841 5.95969 201.471 6.64377 201.585 7.64152 201.744 8.49645 202.548 9.07421 203.409 8.95279 205.946 8.06916 207.114 8.29724 206.886 9.60833L206.886 13.1145 198.934 13.1145 198.934 6.95745C198.923 6.12307 198.239 5.45513 197.404 5.46549 197.353 5.46617 197.303 5.46922 197.252 5.475 196.14 5.475 195.599 5.95969 195.599 6.95745L195.599 13.1145 187.959 13.1145 187.959 7.12847C187.959 6.01676 187.304 5.475 186.306 5.475 185.309 5.475 184.795 6.01676 184.795 7.12847L184.795 26.2264C184.605 28.1268 185.603 29.0769 187.788 29.0769L197.109 29.0769C195.005 30.1631 192.835 31.1152 190.61 31.9273 189.885 32.1888 189.508 32.9892 189.77 33.7149 189.774 33.7273 189.779 33.7396 189.784 33.7516 190.13 34.4138 190.882 34.755 191.608 34.5783 193.196 34.1431 194.749 33.5904 196.254 32.925 197.627 33.2335 198.964 33.6823 200.245 34.2648 200.701 34.4644 200.929 34.6354 200.929 34.7494 200.929 34.8633 200.701 34.9773 200.245 35.0914L185.993 35.0914C185.276 34.9898 184.612 35.4886 184.51 36.2057 184.493 36.3276 184.493 36.4516 184.51 36.5737 184.482 37.3148 184.967 37.9133 185.964 38.0274M176.843 36.5166C178.735 34.7368 180.506 32.8321 182.145 30.8158 182.831 30.0566 182.771 28.8849 182.012 28.1988 181.999 28.1873 181.986 28.1759 181.974 28.1649 181.192 27.6066 180.106 27.7873 179.548 28.5687 179.529 28.595 179.511 28.6219 179.494 28.6496 177.885 30.5839 176.162 32.4212 174.334 34.1507 173.716 34.5281 173.521 35.3349 173.898 35.953 173.976 36.0808 174.075 36.1943 174.192 36.2885 174.905 36.9933 176.02 37.0893 176.843 36.5166M191.95 4.30656 210.535 4.30656C211.426 4.41695 212.237 3.7845 212.347 2.89408 212.357 2.81409 212.362 2.73376 212.359 2.65309 212.313 1.68829 211.501 0.938993 210.535 0.971431L191.437 0.971431C187.15 0.830641 182.981 2.38765 179.836 5.30415 178.282 3.67242 176.552 2.21918 174.676 0.971431 173.555 0.534457 172.785 0.762369 172.367 1.65551 171.823 2.36914 171.961 3.38863 172.675 3.9326 172.782 4.01445 172.899 4.08256 173.023 4.13537 175.849 5.26882 177.784 7.91156 178.011 10.948L178.011 18.1027C178.011 19.0718 177.555 19.528 176.329 19.414L173.479 19.414C171.712 20.6395 171.712 21.8652 173.479 23.0625L178.638 23.0625C180.292 23.0625 181.175 21.8937 181.29 19.9269L181.29 11.3756C181.489 6.72936 185.08 4.42052 191.95 4.30656" transform="matrix(1.00078 0 0 -1 7.03665 709.638)"/><path d="M0 0-17.6444 0C-18.6421 0-19.0981-0.427633-18.984-1.31126L-18.984-6.78405C-18.984-7.35417-18.699-7.61062-17.8152-7.61062L0.285145-7.61062C1.16877-7.61062 1.62477-7.29711 1.62477-6.64139L1.62477-1.65313C1.62477-0.627014 1.16877-0.0570631 0.285145 0.0285315ZM-20.4379 9.97669 2.36591 9.97669C3.26635 9.94714 3.98966 9.22401 4.01921 8.32339 3.981 7.44265 3.23629 6.75959 2.35538 6.79747 2.30171 6.79984 2.24805 6.80477 2.19489 6.81258L-20.1528 6.81258C-21.2359 6.81258-21.8059 7.32581-21.8059 8.32339-21.8059 9.32115-21.2359 9.8911-20.1528 10.0051ZM-20.4379 16.2762 2.36591 16.2762C3.31968 16.2152 4.05182 15.407 4.01921 14.4519 4.01921 13.4543 3.3066 12.9696 2.19489 12.9696L-20.2953 12.9696C-21.1055 12.8529-21.8568 13.4153-21.9737 14.2255-21.9925 14.3571-21.9937 14.491-21.9769 14.6231-21.9771 15.6492-21.407 16.1906-20.2953 16.3047ZM-18.7844 3.16411 1.16877 3.16411C3.47762 3.16411 4.64622 2.10946 4.64622 0L4.64622-7.95265C4.64622-10.0621 3.64847-11.0597 1.33979-10.8031L-18.6421-10.8031C-21.2074-10.8031-22.4046-9.69138-22.2906-7.4683L-22.2906 0.256614C-22.3477 2.19489-21.2074 3.10705-18.6421 3.10705ZM-22.9461 23.1173-10.9457 23.1173C-11.4957 23.9247-12.0001 24.7621-12.4566 25.6257-13.0325 26.293-12.9586 27.3011-12.2911 27.877-12.1857 27.9682-12.0687 28.045-11.9433 28.1056-11.0184 28.5657-9.89636 28.2882-9.29245 27.45-8.52295 25.8822-7.7531 24.5996-6.95507 23.1173L5.15945 23.1173C6.11441 23.1499 6.92263 22.4176 6.9836 21.464 7.00619 20.567 6.29732 19.8214 5.40027 19.7988 5.31977 19.7968 5.23927 19.8009 5.15945 19.8107L-22.9747 19.8107C-23.7686 19.6917-24.5088 20.2389-24.628 21.0328-24.6495 21.1758-24.6495 21.321-24.628 21.464-24.538 22.395-23.7384 23.0947-22.8037 23.0603ZM-25.7966 18.4711-25.7966-9.74844C-25.8426-10.7078-26.6576-11.4479-27.6167-11.4021-27.6182-11.4019-27.6195-11.4019-27.6211-11.4019-28.6187-11.4019-29.1032-10.6891-29.1032-9.57759L-29.1032 12.4851C-29.7008 11.3437-30.3672 10.2394-31.0985 9.17849-31.9821 8.06678-32.8658 7.7818-33.7496 8.35193-34.633 8.92205-34.6901 9.8911-33.9204 11.0028-30.4752 15.649-28.1975 21.0552-27.2789 26.766-27.1474 27.6535-26.3212 28.2664-25.4337 28.1351-25.3832 28.1277-25.3331 28.1177-25.2835 28.1056-24.3736 28.0315-23.6958 27.2337-23.7698 26.3237-23.7756 26.2519-23.7863 26.1806-23.8012 26.1103-24.457 23.2313-25.1981 20.6945-25.7966 18.4711" transform="matrix(1.00078 0 0 -1 258.901 698.234)"/><path d="M0 0C2.24363-2.49006 4.29247-5.14875 6.1285-7.95282 6.69506-8.62841 6.60658-9.63517 5.93116-10.2016 5.8938-10.233 5.85508-10.2625 5.815-10.2902 5.23112-10.8641 4.29264-10.8561 3.71878-10.272 3.62401-10.1757 3.54283-10.0665 3.47762-9.94816 1.48245-7.09773-0.456165-4.47537-2.22342-2.138-2.81358-1.64141-2.88984-0.760331-2.39325-0.17-2.34145-0.108692-2.28473-0.0517983-2.22342 7.54199e-17-1.57246 0.594577-0.562649 0.548722 0.0317583-0.102068 0.0604597-0.133487 0.0879722-0.166094 0.114126-0.199551ZM-11.4019 0.997585C-11.3105 0.59135-11.1463 0.205155-10.9172-0.142658-10.073-1.63122-9.34849-3.185-8.75086-4.78871-8.49577-5.61511-8.83679-6.50876-9.57759-6.95507-10.4612-7.41123-11.0882-7.18315-11.4019-6.29969-11.7569-5.73076-12.0347-5.11733-12.2285-4.47537-13.0265-2.9075-13.6821-1.62477-14.2238-0.313677-14.6798 0.456165-14.4519 1.11171-13.5683 1.68166-12.7099 2.02489-11.7333 1.63683-11.3448 0.798034ZM-19.3831 0-19.3831-5.95748C-19.3831-7.85789-18.3284-8.85564-16.2192-8.95058L-8.75086-8.95058C-6.09997-8.95058-4.9312-7.83887-5.27341-5.30194-5.27341-4.64622-4.9312-4.24729-3.93361-4.13334-3.19451-4.14539-2.53829-4.60937-2.28031-5.30194-1.6246-9.94816-3.76243-12.1145-8.75086-11.7725L-16.2192-11.7725C-20.6658-12.0006-22.6897-10.0621-22.376-6.07161L-22.376-0.114126C-22.376 0.769502-21.863 1.28273-20.8652 1.39669-19.9998 1.38106-19.3104 0.666585-19.3262-0.199211L-19.3262-0.199551ZM-26.8512 8.55131-26.8512 6.89801C-26.8512 6.01438-26.5094 5.61528-25.8536 5.72923L-1.45375 5.72923C-0.684077 5.72923-0.285145 6.01438-0.285145 6.89801L-0.285145 8.55131ZM-26.8512 11.4017-0.284976 11.4017-0.284976 14.2522-26.8512 14.2522ZM-1.39669 19.7251-25.6257 19.7251C-26.5094 19.7251-26.9083 19.3546-26.7943 18.5851L-26.7943 17.0743-0.228082 17.0743-0.228082 18.5851C-0.282938 19.2014-0.779182 19.6854-1.39669 19.7251M-13.3402 22.7182-1.39669 22.7182C1.45392 22.9461 2.99309 21.578 2.76501 18.5851L2.76501 6.78405C2.99309 3.677 1.59624 2.30885-1.39669 2.62235L-25.7966 2.62235C-28.6472 2.4228-30.0153 3.79096-29.7874 6.78405L-29.7874 18.5851C-30.2149 21.6636-28.8466 23.0601-25.6257 22.7182L-17.5019 22.7182C-17.0788 23.4555-16.7441 24.2399-16.5041 25.0554-16.4184 25.2351-16.3025 25.399-16.1621 25.5401-15.9342 26.3428-15.0988 26.8086-14.2963 26.581-14.2525 26.5685-14.2092 26.554-14.1668 26.5379-13.2592 26.4333-12.6011 25.6232-12.6845 24.7136-12.6845 24.2859-12.9696 23.7727-13.1692 23.2313-13.2612 23.0739-13.3195 22.8993-13.3402 22.7182M-25.3121-1.85285C-26.3305-4.78277-27.7196-7.5702-29.4452-10.1477-30.0558-11.1098-31.3263-11.4021-32.2957-10.8033-33.1699-10.1572-33.2268-9.33049-32.4667-8.32339-30.6274-6.05072-29.2171-3.46217-28.305-0.684077-28.1593 0.137393-27.375 0.685096-26.5537 0.539382-26.4805 0.526475-26.4085 0.507963-26.3382 0.484526-25.4493 0.0818583-25.0067-0.925916-25.3121-1.85285" transform="matrix(1.00078 0 0 -1 303.346 697.008)"/></g></svg>