<svg width="821" height="765" xmlns="http://www.w3.org/2000/svg" xmlns:xlink="http://www.w3.org/1999/xlink" xml:space="preserve" overflow="hidden"><defs><clipPath id="clip0"><rect x="35" y="3252" width="821" height="765"/></clipPath></defs><g clip-path="url(#clip0)" transform="translate(-35 -3252)"><path d="M0.0635943 737.969 628.064 737.969 628.064-0.0307462 0.0635943-0.0307462Z" fill="#FFFFFF" fill-rule="evenodd" transform="matrix(1 0 0 -1 162 4016)"/><path d="M228.841 763.4 188.706 720.001 188.706 379.268 251.053 386.565C266.769 389.196 282.492 381.931 290.676 368.258L330.747 311.095 378.116 418.123 265.2 658.422C257.139 675.61 264.539 696.079 281.727 704.139 286.29 706.278 291.268 707.389 296.309 707.39 312.824 707.39 324.922 698.173 332.86 679.354L442.383 450.448 454.098 568.55C454.82 578.851 459.554 588.459 467.284 595.307 475.195 602.344 485.506 606.079 496.089 605.74L657.526 605.74C672.374 605.768 684.433 593.753 684.459 578.905 684.466 575.258 683.731 571.647 682.298 568.294 679.005 560.943 673.095 555.079 665.719 551.843 656.798 547.416 646.935 545.22 636.978 545.442L520.477 545.442 512.732 437.518C512.261 414.6 507.007 392.035 497.305 371.267L451.153 273.585 521.565 273.585 567.91 353.663C570.543 359.548 575.399 364.151 581.416 366.466 586.793 368.966 593.036 368.776 598.251 365.954 604.281 363.361 609.059 358.514 611.566 352.447 613.861 346.59 613.677 340.05 611.053 334.332L569.702 252.333C564.12 240.315 555.491 229.965 544.674 222.312 534.018 216.281 521.894 213.333 509.659 213.799L388.037 213.799C349.983 213.675 314.383 232.579 293.173 264.175L247.853 328.827 188.706 322.426 188.706 59.9787 634.225 59.9787 634.225 528.094 640.627 528.094C668.344 528.094 687.291 539.425 697.661 562.341 706.888 584.309 696.559 609.598 674.591 618.826 669.309 621.044 663.638 622.188 657.91 622.192L634.225 622.192 634.225 723.329 672.185 763.721 820.306 763.721 820.306 0 0 0 0 763.4Z" fill="#016D2C" transform="matrix(1 0 0 1.00037 35.2984 3252)"/><path d="M310.2 103.315C300.278 113.238 294.863 126.798 295.221 140.825 294.812 155.127 300.216 168.984 310.2 179.232 319.789 189.286 333.181 194.82 347.07 194.467 361.444 195.008 375.382 189.479 385.477 179.232 395.545 169.03 401.003 155.153 400.583 140.825 400.992 126.763 395.517 113.169 385.477 103.315 375.361 93.1143 361.425 87.6332 347.07 88.2075 333.199 87.8137 319.807 93.3007 310.2 103.315ZM360.577 750.214C345.15 734.532 322.618 726.722 293.173 726.722 284.652 726.715 277.739 733.615 277.732 742.135 277.728 746.313 279.42 750.311 282.419 753.22L292.98 763.4 373.827 763.4Z" fill="#016D2C" transform="matrix(1 0 0 1.00037 35.2984 3252)"/></g></svg>