<svg width="273" height="326" xmlns="http://www.w3.org/2000/svg" xmlns:xlink="http://www.w3.org/1999/xlink" xml:space="preserve" overflow="hidden"><defs><clipPath id="clip0"><rect x="639" y="722" width="273" height="326"/></clipPath></defs><g clip-path="url(#clip0)" transform="translate(-639 -722)"><path d="M0 0 233.087 0C243.869 0 252.609-8.7403 252.609-19.522L252.609-306.412C252.609-317.194 243.869-325.934 233.087-325.934L0-325.934C-10.7817-325.934-19.522-317.194-19.522-306.412L-19.522-19.522C-19.522-8.7403-10.7817 0 0 0" fill="#016D2C" transform="matrix(1.00299 0 0 -1 658.608 722)"/><path d="M0 0-233.117 0C-237.397-0.0161918-240.862-3.48178-240.878-7.76172L-240.878-294.681C-240.866-296.73-240.054-298.692-238.615-300.15-237.157-301.607-235.178-302.422-233.117-302.414L0-302.414C4.27042-302.414 7.73219-298.952 7.73219-294.681L7.73219-7.84989C7.71627-3.58138 4.26837-0.120418 0-0.0881704ZM-233.117 5.88007 0 5.88007C3.63308 5.8851 7.11691 4.43437 9.67276 1.85226 12.2592-0.71516 13.7188-4.20565 13.73-7.84989L13.73-294.769C13.6977-302.339 7.56946-308.467 0-308.499L-233.117-308.499C-240.693-308.483-246.83-302.346-246.847-294.769L-246.847-7.84989C-246.83-0.273764-240.693 5.86388-233.117 5.88007" fill="#FFFFFF" fill-rule="evenodd" transform="matrix(1.00299 0 0 -1 892.421 733.672)"/><path d="M44.6005 327.441 227.53 327.441 227.53 144.511 44.6005 144.511Z" fill="#FFFFFF" transform="matrix(1.00299 0 0 -1 639.028 1120.94)"/><path d="M0 0 9.0259-37.6032C11.1815-37.4036 13.2831-36.8159 15.2294-35.8686 17.0817-34.6338 16.7288-31.2234 16.7288-31.2234L9.4375-2.93997C8.66411-0.788636 6.826 0.804419 4.5865 1.26432Z" fill="#040404" fill-rule="evenodd" transform="matrix(1.00299 0 0 -1 746.719 819.815)"/><path d="M0 0 9.11408-38.2207C7.3674-40.7429 3.97488-41.4982 1.32296-39.9554L0.499769-40.5727-0.0293901-41.7782-0.0293901-42.8365 0.382208-44.0126C0.382208-44.0126 25.6078-90.7594 37.3385-102.431L38.7204-103.96C39.3371-104.651 40.3964-104.71 41.0866-104.094 41.207-103.986 41.3111-103.862 41.3959-103.725L49.4223-93.229C49.4223-93.229 49.9808-91.9648 52.0094-92.641L74.7362-115.162C75.7561-116.477 75.7561-118.316 74.7362-119.631L62.6818-129.656C59.368-131.77 55.0824-131.57 51.98-129.156L46.1001-126.216 37.2798-121.218 30.7236-117.631 24.8434-113.839C9.73984-103.118-2.15324-88.4804-9.5552-71.502-21.4918-43.601-22.1973-22.3444-19.3161-11.2604-16.4349-0.176477 0 0 0 0" fill="#040404" fill-rule="evenodd" transform="matrix(1.00299 0 0 -1 744.95 820.403)"/><path d="M0 0C0.298936 1.85144-0.0432688 3.74969-0.970147 5.38017L-21.5506 25.9606C-23.2197 26.5208-25.0264 26.5208-26.6956 25.9606L-30.2237 22.2267-3.76316-4.55711Z" fill="#040404" fill-rule="evenodd" transform="matrix(1.00299 0 0 -1 826.957 931.625)"/><path d="M0 0C-2.81533 2.11922-5.93858 3.795-9.26116 4.9687-10.2901 5.29213-10.5547 5.99777-10.1137 7.02683-9.83454 7.89207-8.90671 8.36735-8.04147 8.08814-7.98636 8.07045-7.93221 8.04977-7.87928 8.02637-4.58622 6.51182-1.38583 4.80366 1.70517 2.91071 2.41081 2.32264 2.46959 1.52883 1.88165 0.499769 1.29357-0.529295 0.588075-0.587939 0-0.117561ZM-5.64481 35.457-17.4051 35.457C-18.142 35.3355-18.838 35.8346-18.9594 36.5715-18.982 36.7087-18.9833 36.8483-18.9633 36.9859-19.0445 37.8427-18.4158 38.6029-17.559 38.6842-17.5078 38.689-17.4564 38.6913-17.4051 38.691L-2.70485 38.691C-1.65483 38.7403-0.642501 38.294 0.0293901 37.4856 0.351593 36.4827 0.165047 35.3856-0.470378 34.5457-2.03976 32.0052-4.02795 29.7487-6.35045 27.8717-3.47552 26.4619-0.432552 25.4245 2.70485 24.7846 3.96903 24.3436 4.49833 23.5498 4.26307 22.4032 3.95978 21.3924 2.89425 20.8188 1.88342 21.1221 1.8128 21.1434 1.74354 21.1685 1.67578 21.1978-2.32182 22.1604-6.16962 23.664-9.76093 25.6667-11.881 24.3428-14.1912 23.3513-16.6113 22.7266-17.8755 22.3738-18.7281 22.7266-19.169 23.5792-19.6102 24.4318-19.169 25.3433-17.8167 25.7843-17.3979 25.8329-16.9902 25.9522-16.6113 26.1371-15.3256 26.6339-14.0692 27.2032-12.848 27.8423-14.3755 29.1869-15.7822 30.6625-17.0523 32.2523-17.6693 32.8522-17.6831 33.8388-17.0833 34.4557-17.0731 34.4663-17.0627 34.4767-17.0523 34.4868-16.3528 35.2987-15.1275 35.3898-14.3156 34.6902-14.2429 34.6274-14.1749 34.5595-14.1122 34.4868-12.8499 32.6444-11.29 31.025-9.49628 29.6944-7.7522 30.887-6.19629 32.3338-4.88053 33.987-4.61589 34.7514-4.85101 35.2218-5.64481 35.3395ZM-22.7854 38.397-22.7854 22.4914C-22.7508 21.5008-23.5025 20.6584-24.4906 20.5803-25.4324 20.5734-26.2013 21.3313-26.2083 22.2731-26.2088 22.3459-26.2046 22.419-26.1959 22.4914L-26.1959 38.397C-26.1959 39.4261-25.6372 40.0141-24.4906 40.1317-23.5506 40.1005-22.8005 39.3373-22.7854 38.397M-14.5533 8.26162-14.5533 3.46926C-14.2005-0.970283-16.9053-2.41081-22.6091-0.823196-23.8732-0.470378-24.4318 0.205867-24.3142 1.23479-24.0353 2.20222-23.025 2.76009-22.0577 2.48115-22.0155 2.46904-21.9739 2.45544-21.9328 2.44033-18.9927 1.52883-17.4639 1.88165-17.8167 3.46926L-17.8167 8.26162C-21.4749 7.98242-25.1457 7.90391-28.8124 8.02637-30.0473 8.02637-30.8118 8.43797-31.0175 9.23177-31.2234 10.0257-30.8118 10.8782-29.6651 11.4662-26.6642 12.3704-23.7191 13.4502-20.845 14.7002-21.3537 14.7428-21.865 14.7428-22.3738 14.7002L-26.9014 14.7002C-28.3714 14.7002-29.2828 15.0826-29.6357 15.8763-29.9884 16.6701-29.1652 17.5522-27.9304 18.1107L-26.725 18.6399C-23.7849 20.1099-21.5211 21.3153-20.0512 22.2268-19.4417 22.7383-18.5331 22.659-18.0215 22.0498-17.9391 21.9517-17.8703 21.8431-17.8167 21.7269-17.3463 20.9037-17.6403 20.2275-18.6693 19.6689-20.5373 18.6568-22.5086 17.8487-24.5493 17.258-19.522 17.4933-16.2879 17.6108-14.7884 17.6108L-13.2596 18.4634C-12.113 19.1397-11.0251 19.8159-9.99619 20.5214-9.26987 21.0952-8.21604 20.9715-7.64239 20.2452-7.62253 20.2201-7.60361 20.1947-7.58538 20.1687-7.11106 19.355-7.38618 18.311-8.19985 17.8367-8.22965 17.8193-8.26013 17.8028-8.29101 17.7873-13.6055 14.9897-19.1659 12.6866-24.9023 10.9076-19.4058 10.867-13.9108 11.1025-8.43797 11.6132-9.06822 11.9344-9.65181 12.3399-10.1725 12.8186-11.0839 13.2596-11.2604 13.9358-10.6724 14.8472-10.0801 15.5468-9.06046 15.6979-8.29101 15.2-6.54434 14.0049-4.88407 12.6885-3.32231 11.2604L-1.76395 10.0548C-1.10553 9.35219-1.03192 8.28353-1.58761 7.49721-2.0086 6.88002-2.84989 6.72109-3.46695 7.14194-3.60642 7.23719-3.72697 7.35761-3.82208 7.49721-4.16946 7.62878-4.46744 7.86513-4.67467 8.17332-4.87264 8.48641-5.1098 8.77296-5.3803 9.0259-6.6151 8.82004-7.99684 8.6437-9.46703 8.52614-10.9369 8.40858-12.3776 8.26162-14.5533 8.26162M-30.8412 37.0447-30.8412 23.5203C-30.7912 22.5311-31.5528 21.6887-32.542 21.6389-32.5435 21.6389-32.545 21.6388-32.5463 21.6388-33.5754 21.6388-34.0752 22.3738-34.0752 23.5203L-34.0752 37.0447C-34.1801 37.7842-33.6655 38.4687-32.9259 38.5735-32.8001 38.5913-32.6723 38.5913-32.5463 38.5735-31.7076 38.6709-30.9488 38.07-30.8512 37.2313-30.8441 37.1694-30.8407 37.107-30.8412 37.0447M-27.4013 6.909C-26.7112 7.66416-25.5395 7.71668-24.7845 7.02656-24.7435 6.98914-24.7043 6.94995-24.667 6.909-24.079 6.08594-24.2554 5.23321-25.1668 4.32185-27.8613 2.54143-30.6703 0.940485-33.5754-0.470378-34.4693-0.983617-35.6097-0.682232-36.1333 0.205731-36.486 1.11723-36.1333 1.88165-34.9277 2.4402-32.1868 3.49865-29.6427 5.00925-27.4013 6.909" transform="matrix(1.00299 0 0 -1 721.448 1119.49)"/><path d="M0 0C1.70517-2.62647 3.46926-5.47827 5.29213-8.55553 5.64495-9.34933 5.29213-10.0844 4.26307-10.79 3.23414-11.4955 2.49911-11.0251 2.05799-10.0844 0.793806-8.05562-0.881977-5.29213-2.91071-1.88165-3.49865-1.08771-3.32231-0.323428-2.41081 0.352818-1.64027 0.7968-0.665224 0.650529-0.0587803 0ZM-14.0534 1.02893C-12.8824-0.853131-11.8506-2.81832-10.9663-4.85101-10.5253-6.08594-10.79-6.96791-11.8189-7.4089-12.848-7.84975-13.6418-7.17365-14.2299-6.02702-14.699-5.33594-15.0933-4.5967-15.4059-3.82208-15.9836-2.70267-16.5037-1.55468-16.9641-0.382208-17.5112 0.282064-17.4164 1.26418-16.7521 1.81144-16.6634 1.88437-16.5668 1.94751-16.4642 1.99921-15.5481 2.30672-14.5453 1.89308-14.1122 1.02893ZM-21.58-0.499769-21.58-7.17378C-21.8152-9.0259-20.7862-9.87863-18.4929-9.76093L-10.1137-9.76093C-7.93806-9.99619-6.79157-8.79065-6.67388-6.14472-6.67388-5.14504-5.93885-4.61589-4.79223-4.61589-3.80861-4.67888-3.05317-5.51242-3.08705-6.49754-3.08705-11.2899-5.20396-13.583-8.96712-13.3479L-19.7571-13.3479C-22.422-13.6253-24.8071-11.6899-25.0844-9.02509-25.1211-8.67336-25.1191-8.31877-25.0786-7.96759L-25.0786-0.587939C-25.0786 0.323428-24.4906 0.823196-23.3733 0.940893-22.493 0.996816-21.7151 0.372003-21.58-0.499769M-28.489 16.9347-16.7288 16.9347C-15.1297 17.901-13.6913 19.1112-12.4658 20.5215-12.2307 20.7568-12.1719 20.9333-12.2894 21.0508-12.4658 21.2272-12.6716 21.2272-13.142 21.2272L-23.4321 21.2272C-24.9905 19.6616-26.6826 18.2352-28.489 16.9641ZM-27.8129-2.08738C-28.7939-5.25866-30.3049-8.24081-32.2817-10.9076-32.9002-11.7984-34.1224-12.0219-35.016-11.4073-35.9274-10.6135-36.045-9.81971-35.3395-9.0259-33.5916-6.46379-32.1602-3.69962-31.0764-0.793806-30.8696-0.0423164-30.0929 0.399352-29.3413 0.192669-29.2285 0.16151-29.1201 0.116608-29.0183 0.0589164-28.1479-0.268049-27.639-1.17397-27.8129-2.08738M-20.9625 24.373-8.6437 24.373C-6.58571 24.0497-5.99777 23.0205-6.90913 21.433-8.34122 19.8812-9.89455 18.4459-11.5544 17.1406L-2.73424 17.1406C-0.999673 17.1406-0.0881704 15.935 0.0293901 13.877L0.0293901 5.32139C0.0293901 3.14583-0.735026 2.17555-2.5579 2.38142L-32.1053 2.38142C-32.8991 2.38142-33.3401 2.88132-33.4578 3.91025-33.4646 4.69657-32.8847 5.36479-32.1053 5.46847L-4.1749 5.46847C-3.49865 5.46847-3.14583 5.85068-3.14583 6.67401L-3.14583 8.02637-29.6062 8.02637C-31.3115 9.06523-31.3115 10.1529-29.6062 11.2899L-3.14583 11.2899-3.14583 12.6129C-3.14583 13.3185-3.55743 13.6419-3.99842 13.6419L-31.576 13.6419C-32.2817 13.6419-32.6051 13.936-32.6051 14.4944-32.8406 14.2867-33.1437 14.1718-33.4578 14.1711-34.6043 13.583-35.3981 13.7006-35.8686 14.4944-36.3586 15.4109-36.013 16.5511-35.0966 17.0411-35.0701 17.0553-35.0431 17.0687-35.016 17.0818-30.4898 18.7354-26.6352 21.8357-24.0496 25.9018-23.6619 26.8835-22.5519 27.3651-21.5702 26.9774-21.5337 26.963-21.4978 26.9475-21.4623 26.9309-20.6866 26.319-20.4742 25.232-20.9625 24.373" transform="matrix(1.00299 0 0 -1 767.273 1106.44)"/><path d="M0 0-12.3482 0-12.3482-8.2321-1.05845-8.2321C-0.352954-8.2321-0.0295262-7.99684-0.0295262-7.20304ZM-0.852723 11.1134-12.3188 11.1134-12.3188 3.05766 0.176341 3.05766 0.176341 9.90788C0.146951 10.7311-0.176477 11.1134-0.881977 11.1134ZM-26.8721 0-26.8721-7.02683C-26.8721-7.96759-26.5781-8.34966-25.6667-8.2321L-15.5824-8.2321-15.5824 0ZM-15.6116 11.1134-25.8724 11.1134C-26.6663 11.1134-27.0191 10.79-26.9015 10.0844L-26.9015 3.05766-15.6117 3.05766ZM-12.3482 16.7582-12.3482 14.2003-0.0293901 14.2003C2.38142 14.2003 3.52804 13.1714 3.41035 10.79L3.41035-7.55599C3.6456-10.4961 2.4402-11.672-0.176477-11.3192L-12.3482-11.3192-12.3482-16.9641C-12.3482-17.9932-11.8778-18.5223-10.643-18.5223L1.5287-18.5223C3.70452-18.7282 4.67453-17.6697 4.46894-15.2589 4.46894-13.9947 5.02748-13.3185 6.17411-13.2009 7.32073-13.0832 7.79111-13.9947 7.87928-15.2589 8.2321-19.9238 6.46801-22.0406 2.58729-21.6094L-11.3192-21.6094C-14.2593-21.6094-15.7293-20.2275-15.6116-17.4933L-15.6116-11.3192-26.725-11.3192C-29.2535-11.5544-30.4002-10.4078-30.1649-7.87928L-30.1649 10.4372C-30.4002 13.0539-29.3123 14.318-26.9015 14.2003L-15.6116 14.2003-15.6116 16.7582C-15.693 17.6312-15.051 18.4049-14.178 18.4861-14.1367 18.4901-14.0952 18.4923-14.0534 18.4928-13.1136 18.4616-12.3635 17.6986-12.3482 16.7582" transform="matrix(1.00299 0 0 -1 810.915 1097.86)"/><path d="M0 0 0 9.93727C0 10.8486-0.411598 11.2899-1.2054 11.2899L-14.9355 11.2899C-15.9644 11.2899-16.4054 10.8488-16.3172 9.93727L-16.3172 0.176341C-16.3172-0.411598-15.9644-0.676246-15.2882-0.676246L-0.587939-0.676246C-0.264511-0.588075-0.0293901-0.352954-0.0293901-0.000136066ZM-6.49754 30.4882-6.49754 24.6081 4.43954 24.6081C5.32343 24.5317 6.00103 23.7902 5.99777 22.903 5.99777 21.8739 5.35091 21.3447 4.43954 21.3447L-6.52693 21.3447-6.52693 14.8472-0.646719 14.8472C2.11691 15.0825 3.3517 13.7594 3.14583 10.9076L3.14583-0.852723C3.14583-3.02841 2.29325-4.05734 0.205867-3.93978L-15.6116-3.93978C-18.5517-4.17503-20.0216-2.96949-19.5513-0.352954L-19.5513 11.4073C-19.9041 13.9358-18.8162 15.0825-16.3172 14.8472L-10.1431 14.8472-10.1431 21.3447-22.1385 21.3447C-22.8778 21.2374-23.564 21.7495-23.6713 22.4886-23.6913 22.6262-23.69 22.7658-23.6674 22.903-23.7648 23.7415-23.1639 24.5005-22.3252 24.5979-22.2632 24.6051-22.2009 24.6085-22.1385 24.6081L-10.1431 24.6081-10.1431 30.2531-18.9633 30.2531C-19.9427 30.1063-20.856 30.7813-21.0028 31.7608-21.0126 31.8261-21.0189 31.8923-21.0213 31.9582-21.0213 32.9873-20.1981 33.5754-18.9633 33.6929-12.1643 33.2857-5.34302 33.9202 1.26418 35.5745 2.30318 35.7522 3.28979 35.055 3.46926 34.0164 3.66724 33.0955 3.08134 32.1886 2.16058 31.9908 2.08806 31.9751 2.01445 31.9644 1.94057 31.9582-0.84796 31.2892-3.67622 30.7983-6.52693 30.4882ZM-30.0178 34.7513C-27.9722 32.7576-26.1844 30.5155-24.6964 28.0775-24.1867 27.216-24.4159 26.1081-25.2257 25.5196-25.8899 24.9724-26.8718 25.0672-27.4191 25.7315-27.4922 25.8203-27.5552 25.9168-27.6071 26.0194-29.0848 28.3253-30.7464 30.5079-32.5757 32.5462-33.3793 33.3303-33.3793 34.0652-32.5757 34.7513-31.8661 35.45-30.7274 35.45-30.0178 34.7513M-34.8102 21.2272-29.4888 21.2272C-27.901 21.1096-27.1072 20.1294-27.1072 18.2869L-27.1072 2.0286C-27.1072 1.55809-27.1072 1.29357-26.9309 1.17601-26.7544 1.05832-26.4016 1.38175-26.0782 1.85212-25.0755 3.00405-24.2075 4.26661-23.491 5.61556-23.1695 6.34324-22.3188 6.67252-21.5911 6.35099-21.4707 6.29779-21.3581 6.22826-21.2566 6.14458-20.3905 5.5908-20.0961 4.46417-20.5803 3.55743-21.8984 1.33494-23.5776-0.652434-25.549-2.32264-27.0485-3.4694-28.2245-3.79283-29.1358-3.35184-30.0473-2.91085-30.3412-1.79362-30.3412-0.0883065L-30.3412 16.4348C-30.3603 17.1247-30.8659 17.7042-31.5468 17.8166L-34.8102 17.8166C-35.8391 17.8166-36.3389 18.3752-36.3389 19.522-36.4364 20.3606-35.8354 21.1195-34.9967 21.217-34.9348 21.224-34.8725 21.2276-34.8102 21.2272" transform="matrix(1.00299 0 0 -1 859.954 1115.85)"/></g></svg>