<svg width="326" height="328" xmlns="http://www.w3.org/2000/svg" xmlns:xlink="http://www.w3.org/1999/xlink" xml:space="preserve" overflow="hidden"><defs><clipPath id="clip0"><rect x="247" y="311" width="326" height="328"/></clipPath></defs><g clip-path="url(#clip0)" transform="translate(-247 -311)"><path d="M1.73442 422.298 324.224 422.298 324.224 99.8092 1.73442 99.8092Z" fill="#FFFFFF" transform="matrix(1 0 0 -1.00255 247.021 736.113)"/><path d="M0 98.0747 325.958 98.0747 325.958 424.033 0 424.033ZM3.46885 420.564 322.489 420.564 322.489 101.688 3.46885 101.688Z" fill="#192286" transform="matrix(1 0 0 -1.00255 247.021 736.113)"/><path d="M11.129 412.578 314.793 412.578 314.793 109.529 11.129 109.529Z" fill="#0F218B" transform="matrix(1 0 0 -1.00255 247.021 736.113)"/><path d="M0 0 0.795012 101.787-36.7113 65.5096-36.5668 113.675 17.4886 170.982 68.8699 112.627 68.8699 67.6053 34.1821 104.714 34.0737 0.144562Z" fill="#FFFFFF" fill-rule="evenodd" transform="matrix(1 0 0 -1.00255 440.478 559.179)"/><path d="M0 0 0.614268-131.019-15.0676-112.194-14.9592-141.064 12.2492-172.789 43.2154-141.245 43.2154-112.23 25.1488-133.91 25.0404-0.144562Z" fill="#FF0001" fill-rule="evenodd" transform="matrix(1 0 0 -1.00255 325.719 387.761)"/><path d="M0 0C-0.268263 0.301185-0.645234 0.483233-1.04796 0.505887-1.56411 0.482092-2.04751 0.246913-2.38487-0.144562-2.73332-0.53506-3.05895-0.945278-3.36046-1.3731L-5.81737-4.8056C-7.8168-7.4796-9.69578-9.88842-11.4542-12.0323-11.4845-12.1752-11.4845-12.3228-11.4542-12.4658-11.4879-12.9281-11.2661-13.3718-10.8761-13.6221-10.4923-13.9137-10.0209-14.0666-9.53916-14.0558-9.14622-14.0644-8.75865-13.9645-8.41901-13.7667-8.09566-13.5587-7.86325-13.236-7.76872-12.8634L-5.78135-10.6231-5.78135-28.3284C-5.78135-29.1232-5.20327-29.4847-4.33589-29.4847-3.92828-29.4836-3.52833-29.3711-3.17972-29.1596-2.83975-28.9769-2.57197-28.6837-2.42089-28.3284L-2.42089-6.21488C-2.11693-5.51179-1.71552-4.85498-1.22854-4.26369-0.40924-3.36095 0.141466-2.24699 0.361324-1.04796 0.311616-0.655339 0.189056-0.275272 0 0.0721997ZM-0.831193 10.2256C-1.50479 8.59665-2.26476 7.00467-3.10736 5.45621-4.04693 3.79399-5.63679 1.40912-7.84092-1.77044-8.10576-2.14399-8.53945-2.36075-8.99726-2.34869-9.45669-2.34592-9.89739-2.16452-10.2256-1.8428-10.571-1.52777-10.7679-1.08185-10.7677-0.614431-10.7569-0.223607-10.6026 0.149452-10.334 0.433524-8.92489 2.45691-7.51561 4.6612-6.14252 7.04591-5.67297 7.84076-5.13091 8.88871-4.48046 10.1172L-4.19149 10.9484C-3.71853 11.5477-3.00338 11.9053-2.24015 11.9239-1.82243 11.9441-1.41564 11.7865-1.12015 11.4903-0.834615 11.0938-0.72982 10.5953-0.83103 10.1172ZM27.7143-3.64959 22.4026-3.64959 22.4026-24.9681C21.9512-26.5609 20.8305-27.8794 19.3313-28.5813 18.6125-28.8849 17.8607-29.1033 17.091-29.2318L14.2004-29.2318 10.0089-28.4007C9.18566-28.2773 8.39766-27.9817 7.69636-27.5333 6.79313-26.9914 6.32326-26.3773 6.32326-25.7269 6.35977-25.2632 6.58126-24.8334 6.93753-24.5344 7.3735-24.4164 7.82283-24.3556 8.27461-24.3538 9.24727-24.4134 10.2017-24.6458 11.0928-25.0404 11.9327-25.3939 12.8229-25.6131 13.7307-25.6907L15.8986-25.6907C16.7863-25.7183 17.6283-25.2973 18.1389-24.5706 18.363-24.2327 18.5449-23.8686 18.6808-23.4864L18.6808-3.50486 2.8184-3.50486 2.24015-3.25192C1.9313-2.84512 1.75463-2.35309 1.73442-1.8428 1.74436-1.38451 1.92478-0.946745 2.24015-0.614268 2.41046-0.451615 2.60555-0.317483 2.8184-0.216762L27.7143-0.216762C28.0751-0.177647 28.4304-0.328077 28.6537-0.614268 28.8745-0.958806 28.9876-1.36153 28.9788-1.77044 28.991-2.1981 28.8915-2.62168 28.6897-2.99898 28.4548-3.29397 28.0906-3.45581 27.7143-3.43266ZM25.7629 6.57637 4.08311 6.57637C3.69099 6.82458 3.40708 7.21166 3.2881 7.66018 3.25208 8.03275 3.25208 8.40792 3.2881 8.78033L4.11913 9.90049 25.7991 9.90049C26.365 9.54503 26.7273 8.94103 26.7747 8.27461 26.7621 7.73515 26.5266 7.22486 26.1242 6.86533L25.7991 6.57637ZM-18.1027-22.3304-18.3557-25.3656C-18.7799-26.8954-19.7935-28.1949-21.1741-28.979-21.8076-29.2632-22.4595-29.5046-23.1254-29.7015L-30.1351-29.7015C-31.3979-29.8239-32.6442-29.3414-33.4956-28.4007-34.4732-27.4592-34.9994-26.1433-34.9409-24.7875L-34.9409-24.3538-34.9409-9.68372-42.7096-9.68372-42.7096-11.4542C-42.772-14.6311-43.6425-17.7399-45.2387-20.4876-45.9912-21.753-46.8367-22.9606-47.7682-24.1008L-51.3816-27.136C-52.6628-28.1147-54.1058-28.8608-55.6453-29.3401-56.422-29.5238-57.2007-29.0432-57.3846-28.2664-57.4216-28.1093-57.4323-27.9472-57.4157-27.7865-57.4894-26.9078-56.9954-26.0797-56.1872-25.7269-53.5415-24.3773-51.1847-22.5239-49.2496-20.2707-47.2709-18.0879-46.1423-15.2667-46.0699-12.3215-46.0473-11.9966-46.0473-11.6706-46.0699-11.3458L-46.0699-9.43078-55.6091-9.43078C-56.1749-9.07532-56.5373-8.47132-56.5847-7.8049-56.5638-7.26723-56.3298-6.76021-55.9342-6.39562L-55.6091-6.1065-38.7711-6.1065-38.7711 2.27649-49.611 2.27649C-50.5209 0.739925-51.5996-0.690053-52.8269-1.9872-53.2604-2.49309-53.8747-3.07134-54.6335-3.79383L-56.0426-3.79383C-56.8016-3.79383-57.1628-3.2881-57.1628-2.31235-57.1841-1.95233-57.0821-1.5954-56.8738-1.30074-55.273 0.33101-53.8442 2.12296-52.6101 4.04693-52.1766 4.73356-51.6344 5.60061-51.0203 6.72077-50.6239 7.33585-50.3196 8.00537-50.1169 8.70829-49.575 10.3342-48.7438 11.129-47.6598 11.129-46.9769 10.7714-46.5566 10.0569-46.5757 9.28638-46.6428 8.60203-46.8134 7.93202-47.0817 7.29901-47.3304 6.75352-47.5242 6.18456-47.6598 5.60061L-38.6627 5.60061-38.6627 11.4183C-38.6704 11.7985-38.4785 12.1548-38.1566 12.3576-37.7908 12.5548-37.3799 12.6543-36.9643 12.6467-36.5583 12.671-36.1548 12.5701-35.8081 12.3576-35.4818 12.1626-35.2986 11.7961-35.3382 11.4183L-35.3382 5.60061-20.8851 5.60061C-20.4731 5.71111-20.0347 5.56964-19.7648 5.23929-19.5068 4.89736-19.3789 4.47475-19.4036 4.04693-19.4005 3.64323-19.5 3.2454-19.6926 2.8906-19.8926 2.56659-20.2211 2.34315-20.596 2.27649L-35.4466 2.27649-35.4466-6.28708-18.9339-6.28708C-18.5742-6.41241-18.2766-6.67106-18.1027-7.00989-17.8961-7.36046-17.7839-7.75894-17.7776-8.16606-17.6938-8.87959-18.2043-9.5258-18.9179-9.60957-18.9232-9.61022-18.9285-9.61087-18.9339-9.61152L-31.2553-9.61152-31.2553-24.2814C-31.0829-24.9861-30.642-25.5955-30.0268-25.9797-29.7091-26.1849-29.3698-26.3545-29.015-26.4857L-23.9563-26.4857C-23.0788-26.2564-22.35-25.6465-21.9691-24.8235-21.6009-24.0456-21.4273-23.19-21.4632-22.3302L-21.4632-19.006C-21.1004-18.4302-20.4806-18.0665-19.801-18.0304-19.2545-18.0571-18.7382-18.2893-18.3557-18.6808L-18.1027-19.006-18.1027-22.2942ZM-65.8709-19.8372-81.5527-19.8372-81.5527-29.2318C-81.6779-29.5913-81.9367-29.889-82.2754-30.0629-82.6374-30.2742-83.0487-30.3863-83.4679-30.3881-84.1814-30.4719-84.8276-29.9612-84.9114-29.2477-84.9121-29.2425-84.9126-29.2371-84.9132-29.2318L-84.9132-19.8372-102.98-19.8372C-103.354-19.86-103.713-19.6809-103.919-19.3673-104.145-19.0115-104.258-18.5961-104.244-18.1751-104.261-17.7584-104.161-17.3454-103.955-16.9826-103.737-16.6631-103.366-16.4842-102.98-16.5127L-84.9132-16.5127-84.9132-10.4424-98.6077-10.4424C-98.9335-10.2799-99.2177-10.0452-99.4387-9.75576-99.59-9.46631-99.6646-9.14296-99.6555-8.81651-99.6403-8.46546-99.5543-8.12141-99.4027-7.80474-99.3435-7.66539-99.271-7.5324-99.1858-7.40723-97.782-5.49663-96.5716-3.45092-95.5725-1.30074-95.0666-0.216762-94.2716 1.33692-93.296 3.39665L-102.257 3.39665C-102.827 3.7477-103.191 4.35431-103.233 5.02252-103.204 5.55824-102.971 6.06249-102.582 6.4318L-102.257 6.72077-92.1759 6.72077-90.4776 12.2492C-90.0457 12.8587-89.3459 13.2223-88.5988 13.2249-88.163 13.2461-87.7399 13.0743-87.4425 12.7552-87.1406 12.4229-87.0313 11.9586-87.1534 11.5267L-88.5265 6.61238-67.28 6.61238C-66.8688 6.70528-66.4395 6.56675-66.16 6.2509-65.8893 5.89984-65.7488 5.46566-65.7625 5.02252-65.7586 4.62534-65.8717 4.23566-66.0878 3.90237-66.2671 3.55946-66.6061 3.32885-66.9911 3.28826L-89.6466 3.28826-94.5969-6.93753-94.3078-7.22665-84.9132-7.22665-84.9132-1.12015C-84.8674-0.774965-84.6852-0.462697-84.4073-0.252943-84.1032-0.0689401-83.7505 0.0192315-83.3955 -7.96149e-16-82.5956 0.100395-81.8321-0.363769-81.5527-1.11999L-81.5527-7.22665-69.4843-7.22665C-69.0772-7.20775-68.682-7.36567-68.4002-7.66018-67.7645-8.45486-67.8935-9.61462-68.6883-10.2504-68.851-10.3805-69.0346-10.482-69.2314-10.5508L-81.5527-10.5508-81.5527-16.6211-65.8709-16.6211C-65.4907-16.6134-65.1342-16.8053-64.9315-17.1271-64.7064-17.4697-64.5928-17.8736-64.6063-18.2835-64.5899-18.6999-64.6899-19.1129-64.8953-19.4757-65.1135-19.7951-65.4853-19.9742-65.8709-19.9455ZM-113.061-12.9356-132.934-12.9356-139.944-24.2814-123.142-23.1614-126.503-18.4641C-126.677-18.1541-126.776-17.8076-126.792-17.4523-126.803-16.8555-126.568-16.2803-126.141-15.8624-125.729-15.4401-125.121-15.2744-124.551-15.4289-122.972-16.7945-121.608-18.3902-120.504-20.1623-119.42-21.8969-118.373-23.7757-117.288-25.3656-116.783-26.0159-116.385-26.5217-116.168-26.8831-115.774-27.3707-115.523-27.959-115.446-28.5813-115.395-28.8074-115.395-29.0419-115.446-29.2679-115.646-29.6029-115.933-29.8775-116.277-30.0629L-117.975-30.0629C-118.825-29.2005-119.587-28.2565-120.251-27.2445-120.468-26.9192-120.721-26.4857-121.046-25.9076L-141.064-27.3529C-141.882-27.392-142.695-27.2045-143.413-26.8109-144.172-26.4561-144.5-25.5528-144.145-24.7935-144.102-24.7022-144.051-24.6155-143.991-24.5345L-136.439-12.9356-149.194-12.9356C-149.61-12.9712-150.001-12.7389-150.17-12.3576-150.188-12.1775-150.188-11.9959-150.17-11.8155-150.308-11.2126-150.147-10.5801-149.736-10.1172-149.54-9.9088-149.307-9.73734-149.05-9.61152L-112.916-9.61152C-112.323-10.0198-112.061-10.7639-112.266-11.4542-112.188-12.1242-112.515-12.7766-113.097-13.1164ZM-120.071-4.91398-119.746-4.62502C-119.348-4.24707-119.114-3.72798-119.095-3.17972-119.136-2.52063-119.502-1.92494-120.071-1.58986L-143.594-1.58986C-143.851-1.71584-144.084-1.88713-144.28-2.09558-144.69-2.55861-144.852-3.19113-144.714-3.79399-144.749-3.97294-144.749-4.15694-144.714-4.33589-144.545-4.71726-144.153-4.94967-143.738-4.91398ZM-111.688-2.42089C-114.955-1.95249-118.063-0.714011-120.757 1.19235L-125.382 4.29988C-126.112 4.85091-126.801 5.45474-127.442 6.10666-128.53 7.30733-129.973 8.13004-131.561 8.45519-132.992 7.58406-134.346 6.59283-135.608 5.49223-136.749 4.46269-137.956 3.5091-139.221 2.63782-140.992 1.4453-142.365 0.541905-143.305-0.0361813-144.725-1.0064-146.268-1.78381-147.893-2.34869L-148.544-2.34869C-149.052-2.35668-149.539-2.14611-149.881-1.77044-150.223-1.38271-150.404-0.878457-150.387-0.361324-150.393 0.0268915-150.307 0.411033-150.134 0.758667-147.857 1.8428-145.689 2.99898-143.593 4.37208-142.112 5.23929-140.558 6.2509-138.824 7.37121L-136.981 8.67195-133.874 10.8761-132.501 12.2492C-132.045 12.7427-131.432 13.0621-130.766 13.1524-130.381 13.1514-130.004 13.0385-129.682 12.8273-127.317 10.326-124.661 8.11831-121.769 6.2509-119.583 4.88285-117.301 3.67534-114.94 2.63782-114.004 2.15475-113.039 1.7323-112.049 1.3731-111.614 1.1904-111.23 0.905348-110.929 0.541905-110.627 0.215295-110.448-0.206331-110.423-0.650449-110.423-1.20458-110.785-1.6381-111.507-1.95135Z" fill-rule="evenodd" transform="matrix(1 0 0 -1.00255 470.794 705.638)"/></g></svg>