<svg width="720" height="530" xmlns="http://www.w3.org/2000/svg" xmlns:xlink="http://www.w3.org/1999/xlink" xml:space="preserve" overflow="hidden"><defs><clipPath id="clip0"><rect x="0" y="299" width="720" height="530"/></clipPath></defs><g clip-path="url(#clip0)" transform="matrix(1 0 0 1 0 -299)"><path d="M0 0 641.382 0C662.931 0 680.399-17.4685 680.399-39.0176L680.399-490.304C680.399-511.852 662.931-529.321 641.382-529.321L0-529.321C-21.5487-529.321-39.0176-511.852-39.0176-490.304L-39.0176-39.0176C-39.0176-17.4685-21.5487 0 0 0" fill="#016D2C" transform="matrix(1.00052 0 0 -1 39.1434 299)"/><path d="M0 0-641.321 0C-646.416-0.0212228-651.295-2.05609-654.895-5.66073-658.479-9.2445-660.494-14.1052-660.495-19.1739L-660.495-470.704C-660.495-475.773-658.479-480.633-654.895-484.217-651.295-487.822-646.416-489.857-641.321-489.878L0-489.878C10.643-489.912 19.3171-481.347 19.4174-470.704L19.4174-19.1739C19.3178-8.60242 10.7546-0.0661863 0.182732 0ZM-641.321 7.91322 0 7.91322C14.9696 7.91322 27.1145-4.20427 27.1479-19.1739L27.1479-470.704C27.1145-485.673 14.9696-497.791 0-497.791L-641.321-497.791C-656.267-497.757-668.374-485.65-668.408-470.704L-668.408-19.1739C-668.374-4.20427-656.23 7.91322-641.26 7.91322Z" fill="#FFFFFF" fill-rule="evenodd" transform="matrix(1.00052 0 0 -1 680.796 318.844)"/><path d="M0 0 641.321 0C654.105 0 664.479-10.3459 664.512-23.1303L664.512-288.461-23.1303-288.461-23.1303-23.2523C-23.1641-10.4438-12.8081-0.0334529 0 0Z" fill="#FFFFFF" fill-rule="evenodd" transform="matrix(1.00052 0 0 -1 39.1434 314.766)"/><path d="M0 0C1.52157 0.97409 3.59133 2.61724 6.08698 4.80858 8.58264 6.99992 11.1391 8.27833 12.174 9.25242L-5.90425 9.25242C-4.39671 5.89742-2.40789 2.78019 0 0M-25.9303-9.67795-11.8089-5.53879C-14.8578-0.963299-17.2545 4.01506-18.9304 9.25242L-25.9303 9.25242ZM-25.9303 36.9478 4.50427 36.9478 4.50427 43.0348-25.9303 43.0348ZM-25.9303 20.4519 4.50427 20.4519 4.50427 26.5389-25.9303 26.5389ZM-51.9825 15.5826C-56.4059 19.6408-61.2144 23.8404-66.4086 28.1828L-57.8868 37.4956-53.4433 34.1478C-49.8948 31.504-46.5006 28.659-43.2783 25.626L-52.2261 15.5826ZM-49.7304 40.4783C-54.4555 44.9369-59.4134 49.1426-64.5824 53.0786L-56.0609 62.3303C-54.539 61.113-51.8609 59.0436-47.8434 56.2433-44.9218 53.9915-42.6697 52.2868-41.2089 51.0696L-49.7304 40.6607ZM-52.3476-25.626-64.9479-21.5476C-60.8896-8.15639-57.6839 2.73918-55.3303 11.1391-51.3739 9.61716-47.1132 8.15675-42.6697 6.69561-43.6434 3.46975-45.0434-0.97373-46.7477-6.69561-49.4869-15.5826-51.3739-21.9131-52.3476-25.626M18.5653-24.8954C7.55639-21.7221-2.41796-15.6952-10.3477-7.42618L-10.3477-17.8347C-16.28-19.1671-22.1163-20.8958-27.8173-23.0087-28.204-23.053-28.577-23.1774-28.913-23.3735-31.4126-23.9789-33.7975-24.9864-35.9737-26.3562L-42.974-15.9477C-40.5672-14.0891-39.1884-11.1963-39.2607-8.15639L-39.2607 54.2347-17.7739 54.2347C-18.0887 55.4933-18.4746 56.7332-18.9304 57.9479-19.4174 59.9565-19.7825 61.2957-20.026 62.0263L-5.17404 63.1216C-4.49348 61.1439-4.00427 59.1058-3.71291 57.035-3.5478 56.017-3.2827 55.0181-2.92191 54.0523L17.5912 54.0523 17.5912 8.76537 15.7653 8.76537 22.826 1.40034C18.139-1.58236 13.2696-4.68664 8.33912-7.54776 13.2416-10.2567 18.4811-12.3035 23.9217-13.6347 21.1825-18.8696 19.3566-22.7041 18.3825-25.2001Z" fill="#FFFFFF" fill-rule="evenodd" transform="matrix(1.00052 0 0 -1 152.785 722.043)"/><path d="M0 0-6.08698 13.3308C-7.81862 8.99343-9.85277 4.78304-12.174 0.730568L-6.08698-12.2348C-3.89564-8.21718-1.94782-4.13916-0.182732-0.182372ZM-24.3479 0.730568C-28.5479 9.13048-31.6522 15.8261-33.6 20.7566L-33.6-16.739C-32.6263-14.7301-31.0435-11.7477-28.7914-7.79092-26.5393-3.83449-25.322-1.27804-24.3479 0.730568M-11.3218 27.8173-5.78267 25.2001-1.2784 27.3914 6.14777 12.9653C6.14777 13.6955 6.7564 14.6696 7.24345 15.948 9.25386 20.025 10.9826 24.2346 12.4175 28.5479L21.3652 24.1044 21.3652 31.3479-33.4173 31.3479-33.4173 23.5566-25.2001 28.0001-18.139 12.7826C-15.6437 17.4696-13.3304 22.4001-11.0783 27.6349ZM-0.547836-26.9652-7.97401-22.5213-12.8437-25.0781-18.9304-12.1128C-21.426-17.2869-24.0436-22.5213-26.7828-27.6954L-33.7827-22.8868-33.7827-39.9301-47.1739-39.9301-47.1739 43.5826 34.6957 43.5826 34.6957-24.7127C34.6957-34.391 30.6173-39.3215 21.7303-39.565 17.53-39.565 12.052-39.9301 5.35642-39.9301 4.87405-35.8313 4.1424-31.7662 3.16507-27.7562 6.41144-28.0001 10.4693-28.1216 15.339-28.1216 19.539-28.1216 21.4257-26.417 21.4257-22.0347L21.4257 20.9393 15.8261 8.76537C14.1218 4.80894 12.8434 1.82624 12.1128-0.182372 15.5851-6.37583 18.5764-12.8265 21.0609-19.4778L11.3826-25.5648 6.20857-13.3912C3.95643-17.8955 1.7043-22.339-0.487045-26.7824Z" fill="#FFFFFF" fill-rule="evenodd" transform="matrix(1.00052 0 0 -1 347.85 707.009)"/><path d="M0 0 81.1757 81.1761 106.915 55.4372 25.7389-25.7386Z" fill="#FFFFFF" transform="matrix(1.00052 0 0 -1 533.263 743.047)"/><path d="M0 0 39.9305 39.9305 118.026 39.9305 118.026-38.2262 78.0956-78.1563 78.0956 0Z" fill="#FFFFFF" fill-rule="evenodd" transform="matrix(1.00052 0 0 -1 543.099 680.896)"/><path d="M0 0 26.4781 0C39.9251 0 50.8261 10.901 50.8261 24.3479 50.8261 37.7946 39.9251 48.6955 26.4781 48.6955L0 48.6955ZM11.3218-96.6608C5.06901-96.6608 0-91.5918 0-85.339L0-96.6608ZM-61.1738 70.9737 48.0261 70.9737C74.1298 71.9107 96.0507 51.5088 96.9878 25.4051 97.9248-0.698554 77.5229-22.6195 51.4192-23.5566 50.2883-23.5972 49.1567-23.5972 48.0261-23.5566L0-23.5566 0-96.6608 27.4522-96.6608 27.4522-119.791-61.1738-119.791-61.1738-96.6608-44.9826-96.6608C-40.9618-96.6615-37.6838-93.4375-37.6172-89.4174L-37.6172 42.365C-37.6798 45.9563-40.5409 48.8711-44.1305 48.9998L-61.1738 48.9998Z" fill="#016D2C" fill-rule="evenodd" transform="matrix(1.00052 0 0 -1 184.088 437.235)"/><path d="M0 0C-3.10464-9.92183-6.08698-19.9041-9.13048-29.8867 1.09567-25.3825 17.9563-21.8523 21.3044-11.6261 24.5911-3.46975 10.7128 2.0694 0.121581 0ZM-171.896 11.4434 16.2523 11.4434C40.5999 11.4434 38.4694-17.4084 28.4259-24.713 12.7214-36.4-5.72188-43.765-22.826-53.2606-39.0176-81.0171-56.6087-82.7826-66.4086-82.7826L-111.026-82.7826C-143.652-82.7826-173.661-27.9997-171.896 11.4434" fill="#016D2C" fill-rule="evenodd" transform="matrix(1.00052 0 0 -1 561.613 412.826)"/><path d="M0 0C0.0625892-0.790279 0.0625892-1.5838 0-2.37407 0-14.5477-11.565-23.9825-25.6868-23.9825L-186.93-23.9825C-201.052-23.9825-212.617-14.2437-212.617-2.37407-212.68-1.5838-212.68-0.790279-212.617 1.91691e-15Z" fill="#016D2C" fill-rule="evenodd" transform="matrix(1.00052 0 0 -1 580.857 502.487)"/><path d="M0 0 0-3.22622C-0.144603-4.25823 0.574814-5.21181 1.60682-5.35678 1.78056-5.38088 1.95681-5.38088 2.13055-5.35678L39.6262-5.35678C40.5391-5.35678 41.1478-4.62585 41.3913-3.22622L41.3913 0C41.3913 1.40034 40.5391 2.13055 39.6262 2.13055L2.19134 2.13055C1.15934 2.27516 0.205393 1.55538 0.0607907 0.523376 0.0366902 0.349996 0.0366902 0.173739 0.0607907 0ZM1.09567-27.6954 42.1826-27.6954C43.6434-27.6954 44.4348-28.9738 44.6783-30.8608 44.9218-32.7478 43.6434-34.0262 42.1826-34.0262L28.0608-34.0262 28.0608-48.2085C29.0349-57.9479 20.8782-60.3824 3.71291-56.0609 1.76941-55.448 0.682726-53.3836 1.2784-51.4347 1.8989-49.5509 3.92909-48.5268 5.81289-49.1473 5.94778-49.1919 6.08015-49.2441 6.20857-49.3041 16.3739-52.3476 21.3652-51.6782 21.1217-47.1739L21.1217-34.0259 1.15646-34.0259C-0.791358-34.0259-1.82624-32.9914-2.0694-30.8608-2.00501-29.1162-0.588483-27.7267 1.15646-27.6954ZM-2.13019 7.79128 43.2783 7.79128C45.3423 8.08049 47.2498 6.64165 47.5391 4.57765 47.5876 4.23017 47.5876 3.87766 47.5391 3.53054L47.5391-6.7564C47.8283-8.82041 46.3891-10.7283 44.3251-11.0171 43.9779-11.0661 43.6254-11.0661 43.2783-11.0171L-2.0694-11.0171C-5.11289-11.0171-6.57367-9.79989-6.33051-6.7564L-6.33051 3.34816C-6.57367 6.39166-5.11289 7.79128-2.0694 7.79128ZM51.7998 12.0524-7.36539 12.0524C-10.8956 14.1624-10.8956 16.4146-7.36539 18.8088L17.4696 18.8088C17.4696 19.235 16.6174 20.2088 15.6434 21.6088L15.339 22.3393C14.2063 23.7145 14.4027 25.7476 15.7779 26.8806 15.9617 27.0317 16.1617 27.1623 16.3739 27.2698 18.3171 28.2691 20.7027 27.504 21.7019 25.5609 21.7116 25.5422 21.721 25.5231 21.7303 25.5044 22.0699 24.5127 22.5411 23.571 23.1303 22.7044 23.7429 21.3548 24.4548 20.0527 25.2609 18.8088L51.7998 18.8088C54.8839 16.6174 54.8839 14.3653 51.7998 12.0524M-4.86973-15.2783 48.2696-15.2783C56.3044-15.2783 58.2522-21.3652 53.9911-33.5388 53.1919-35.6989 50.8023-36.8122 48.6347-36.0349 46.5042-35.0608 45.9563-33.2957 46.8696-30.6781 49.4869-24.2871 48.7563-21.2437 44.7391-21.4868L-1.7043-21.4868C-3.59133-21.4868-4.44348-22.6433-4.19995-24.2871L-4.19995-31.4087C-4.19995-33.7827-5.59994-34.9392-7.73049-34.9392-9.4258-35.1935-11.0067-34.0252-11.2607-32.3295-11.3067-32.0241-11.3067-31.714-11.2607-31.4087L-11.2607-21.4868C-11.5042-17.348-9.374-15.2783-4.86973-15.2783M-15.5218 4.93052-15.5218-53.5649C-15.5847-55.4882-17.129-57.0325-19.052-57.0958-20.8336-57.1037-22.2846-55.6656-22.2926-53.8839-22.2929-53.7775-22.2882-53.671-22.2782-53.5649L-22.2782-7.48661C-23.0087-8.64343-23.6782-9.92147-24.4087-11.3826-24.8954-11.8085-25.1389-12.174-25.1389-12.4175-27.026-14.7912-29.0346-15.5214-31.2259-14.5477-33.4173-13.5736-32.8086-11.1391-31.5914-8.4607-25.0968 0.871933-20.4098 11.3394-17.7739 22.3998-17.5807 24.4076-15.7962 25.8785-13.7887 25.6853-13.5718 25.6648-13.3574 25.6242-13.1477 25.5652-11.0671 24.7181-10.0017 22.4005-10.7128 20.2696-11.7477 15.948-13.3912 10.8348-15.5218 4.93052" transform="matrix(1.00052 0 0 -1 51.5671 920.721)"/><path d="M0 0-3.16507-8.15675 40.1129-8.15675C42.6697-8.15675 44.1305-9.61752 44.374-11.7477 44.2959-13.797 42.5711-15.3948 40.5219-15.3167 40.3848-15.3113 40.2485-15.2984 40.1129-15.2786L-6.02583-15.2786-16.3131-35.8521 3.89564-35.8521 3.89564-23.6782C3.89564-21.7915 5.11289-20.6955 7.48697-20.4519 9.86104-20.2088 11.1391-21.7915 11.3826-23.6782L11.3826-35.8521 36.5215-35.8521C38.5611-35.7823 40.287-37.346 40.4172-39.3827 40.4172-41.7567 39.0172-42.9132 36.887-42.9132L11.3826-42.9132 11.3826-54.2954 43.3391-54.2954C45.9563-54.2954 47.2347-55.8174 47.2347-58.1911 47.2347-60.5652 45.5912-61.3565 42.974-61.3565L11.3826-61.3565 11.3826-78.0348C11.3589-80.1315 9.85349-81.9171 7.79128-82.2955 5.23484-82.2955 3.89564-81.5653 3.89564-79.4347L3.89564-61.1738-35.7913-61.1738C-37.9215-61.1738-38.8956-60.0177-38.6521-57.6436-38.5873-55.6976-37.0075-54.1444-35.0608-54.1131L3.89564-54.1131 3.89564-42.3654-20.8782-42.3654C-25.3825-42.3654-26.6001-39.8089-24.4695-35.3043L-14.1826-15.0959-32.4435-15.0959C-34.3302-15.0959-35.3651-13.8783-35.6086-11.565-35.65-9.72651-34.273-8.16358-32.4435-7.97401L-11.4434-7.97401-6.81755 2.61724C-6.38158 4.55211-4.4593 5.7672-2.52443 5.33124-0.589562 4.89527 0.625533 2.97371 0.189566 1.03884 0.122661 0.741359 0.0179854 0.453592-0.121581 0.182732Z" transform="matrix(1.00052 0 0 -1 157.474 898.017)"/><path d="M0 0C1.21725 1.64351 2.73918 1.76509 4.62585 0.365464 5.99598-1.07733 6.29022-3.2345 5.35642-4.99131 0.763661-12.3031-4.34168-19.2804-9.92183-25.8695-8.0348-27.7565-6.26972-29.3997-4.56506-30.8608 0.747474-35.4359 5.71181-40.4003 10.2869-45.7132 11.7599-47.589 11.7599-50.2286 10.2869-52.1045 8.88695-53.748 7.24345-53.5652 5.35642-51.4347 3.46939-49.3041-0.730568-45.3477-6.81755-40.0524-10.4089-36.5215-12.9045-33.9655-14.6696-31.8957-22.1469-40.574-30.8641-48.1016-40.5391-54.2347-43.3391-55.6958-45.3477-55.3303-46.6261-53.1998-47.9045-51.0699-46.2606-49.061-43.3999-47.1132-34.9971-41.401-27.3839-34.6061-20.7566-26.9044-27.558-20.9142-34.7349-15.3635-42.2434-10.2869-44.6175-8.88695-45.4089-7.18266-44.7391-5.29563-43.5017-3.45428-41.0057-2.964-39.164-4.20175-39.1352-4.22082-39.1064-4.2406-39.0784-4.2611-32.9914-8.0348-24.9566-13.5736-15.2783-20.939-9.66392-14.3552-4.55643-7.35568 0 0M-49.2433 11.0175 13.8783 11.0175C15.811 10.9233 17.3477 9.35997 17.4084 7.42618 17.6311 5.89598 16.5703 4.47477 15.0401 4.25283 14.7556 4.21146 14.4664 4.21434 14.1826 4.2611L-48.3304 4.2611C-50.948 4.2611-52.1045 3.16543-51.8609 1.09567L-51.8609-56.3649C-52.348-58.7389-51.3131-59.8957-48.6955-59.8957L16.3131-59.8957C17.9178-59.7274 19.3552-60.8918 19.5235-62.4964 19.5325-62.5828 19.5376-62.6698 19.539-62.7565 19.5458-64.5932 18.143-66.1284 16.3131-66.2867L-51.0696-66.2867C-56.7303-66.7741-59.3479-64.4-58.8609-59.226L-58.8609 1.64351C-59.5306 8.52149-56.3652 11.6869-49.2433 11.0175" transform="matrix(1.00052 0 0 -1 279.641 909.034)"/><path d="M0 0C5.50462-4.37441 10.7103-9.11285 15.5826-14.1826 17.1984-15.4973 17.5174-17.8397 16.3131-19.539 15.0128-20.9005 12.8549-20.9501 11.4938-19.6501 11.456-19.6138 11.4186-19.5768 11.3826-19.539 5.66073-14.0606 0.730208-9.61716-3.53018-6.02583-5.41757-4.62585-5.90425-3.10428-4.93052-1.46078-3.98773 0.319421-1.78199 0.999989 0 0.0611504ZM-26.9652 59.8957 14.5477 59.8957C16.6995 59.8957 18.4433 58.1515 18.4433 56.0001 18.1005 53.9739 16.2218 52.5778 14.1826 52.835L-6.39166 52.835C-6.65209 52.2624-6.77726 51.6376-6.7564 51.0088-6.7564 49.8523-7.3046 47.3567-7.79128 43.5826L8.88695 43.5826C12.174 43.5826 13.8175 41.3305 13.8175 36.1568L13.8175 3.04385C13.8175 0.426614 12.4175-0.97373 10.2869-1.21725 8.15639-1.46078 7.12186 0.121941 7.12186 2.67839L7.12186 33.4784C7.12186 35.609 6.14777 36.6435 4.26075 36.6435L-17.348 36.6435C-20.2088 36.6435-21.6088 35.2439-21.6088 33.1133L-21.6088 2.67839C-21.5469 0.496757-23.0185-1.43128-25.1393-1.94746-27.2698-1.94746-28.3652-0.243523-28.3652 2.31328L-28.3652 36.4C-28.8522 41.3305-26.235 43.7046-20.5739 43.461L-15.2175 43.461-15.2175 43.8265C-14.2578 46.7232-13.5448 49.6959-13.0869 52.7131L-26.9652 52.7131C-28.9044 52.5113-30.6403 53.9199-30.8421 55.8595-30.8554 55.9872-30.8615 56.1152-30.8608 56.2436-30.7946 58.3379-29.0601 59.9907-26.9652 59.9569ZM-4.62585 29.4608-4.62585 20.2699C-4.62585 16.4959-5.11325 12.9045-5.35678 11.0175-7.10028-3.55428-17.2246-15.7505-31.2263-20.1476-34.3302-20.8782-36.2176-20.1476-36.887-18.3825-37.5564-16.6171-36.2176-14.3653-33.3565-13.452-21.744-9.71644-13.3283 0.38237-11.7477 12.4783-11.2294 18.0056-11.2294 23.5684-11.7477 29.0957-12.1517 30.7964-11.1006 32.5025-9.3999 32.9068-9.13263 32.9701-8.85746 32.9986-8.58264 32.9914-6.26972 32.7478-4.86973 31.5914-4.62585 29.4608M-41.4521 22.035-47.5391 22.035-47.5391-11.9912C-47.5391-19.8433-52.0437-22.7649-61.7216-20.8782-64.0957-20.3911-65.313-19.1131-65.313-16.9825-65.2065-15.2042-63.6784-13.8484-61.8997-13.9549-61.6112-13.9721-61.326-14.0283-61.0522-14.1218-56.3044-15.5822-54.0523-14.6085-54.2954-11.3218L-54.2954 22.035-65.9216 22.035C-69.2694 24.1656-69.2694 26.4173-65.9216 28.7306L-50.339 28.7306C-52.2261 32.0784-55.5739 37.0089-60.2609 43.6434-61.9044 45.2869-62.0263 46.8696-60.626 48.2696-59.226 49.6696-57.5828 49.548-55.635 47.9045-53.5652 45.2869-51.5566 42.7305-49.548 40.1132-46.0369 43.1754-43.1621 46.8984-41.087 51.0699-40.5999 52.5304-41.087 53.1998-42.8521 53.1998L-63.1216 53.1998C-64.6522 52.9778-66.073 54.0383-66.295 55.5685-66.3363 55.853-66.3338 56.1426-66.287 56.426-66.4888 58.1623-65.2446 59.7339-63.5083 59.9357-63.3799 59.9504-63.2508 59.9576-63.1216 59.9569L-39.3827 59.9569C-33.9043 59.4695-32.2612 56.426-34.3914 50.7653-37.2093 44.6081-41.369 39.1593-46.5653 34.8176-45.3657 33.018-44.7495 30.8928-44.7999 28.7306L-38.4086 28.7306C-30.3738 28.7306-29.4 21.426-35.5478 7.48697-36.4291 5.38411-38.6665 4.18916-40.9042 4.62621-42.7913 5.59994-43.2783 7.36539-42.3042 9.98263-38.4492 18.0178-38.1654 22.035-41.4521 22.035" transform="matrix(1.00052 0 0 -1 378.057 956.939)"/><path d="M0 0-43.2175 0C-46.0783 0-47.3563-1.2784-47.1132-3.89564L-47.1132-16.0696C-47.1132-18.6868-45.7128-20.0868-42.8521-20.3304L-0.243523-20.3304C2.31328-20.3304 3.77406-18.9912 4.01758-17.1041L4.01758-4.07801C4.08485-1.89422 2.36904-0.0687043 0.18525-0.00143883 0.12338 0.000719417 0.0618698 0.00107912 0 0M-46.8085 7.12186 4.99131 7.12186C8.21538 7.12762 10.8848 4.61865 11.0783 1.40034L11.0783-21.2437C11.0783-24.6051 8.35315-27.3303 4.99131-27.3303L-46.4434-27.3303C-51.3735-27.3303-53.8696-25.0174-53.8696-21.2437L-53.8696 2.00897C-53.626 4.86973-51.0088 6.63482-46.8085 7.12186M-17.7128 52.4696-17.7128 41.8783 12.0524 41.8783C13.906 41.7186 15.3171 40.147 15.2783 38.287 15.2783 35.9133 14.6696 34.7565 12.7826 34.7565L-17.652 34.7565-17.652 21.3044 15.948 21.3044C17.9858 21.3106 19.6843 19.7451 19.8437 17.7131 19.8437 15.4002 18.3825 14.1829 16.2523 14.1829L-58.4954 14.1829C-60.5234 13.8786-62.4141 15.2761-62.718 17.3041-62.7385 17.4394-62.7511 17.5761-62.7565 17.7131-62.7565 19.8437-61.113 21.0609-58.4954 21.3044L-24.7738 21.3044-24.7738 34.7565-45.7128 34.7565C-46.6049 33.6475-47.5603 32.591-48.5739 31.5914-50.1538 29.1583-52.2275 27.0842-54.6609 25.5044-56.1764 24.1764-58.4411 24.1764-59.9565 25.5044-61.1738 27.2091-60.8087 28.9741-58.9217 30.8612-53.6048 35.9237-49.5772 42.1848-47.1739 49.1221-46.7063 51.0146-44.7927 52.1703-42.8999 51.7027-42.8017 51.6786-42.7046 51.6502-42.6085 51.6174-40.6632 51.0034-39.5578 48.9545-40.1132 46.9916-40.9269 45.27-41.6384 43.5017-42.2434 41.6956L-24.8346 41.6956-24.8346 52.6523C-24.8346 54.2954-23.6782 55.2695-21.3044 55.5131-19.5066 55.5613-17.9606 54.2505-17.7128 52.4696" transform="matrix(1.00052 0 0 -1 471.114 949.817)"/><path d="M0 0C5.23519-5.41757 6.08698-8.76501 2.49566-9.92183 1.76185-10.4146 0.844595-10.5492 0-10.2869-3.10752-9.60169-5.86936-7.83229-7.79092-5.29563-17.8692 4.64168-23.0573 18.5145-21.9739 32.6259-21.9152 48.5329-14.6103 63.5457-2.13019 73.4086-0.502513 75.0413 1.65754 76.0351 3.95679 76.2085 5.03628 76.0625 6.03986 75.5715 6.81755 74.8085 8.4607 72.6783 7.42654 70.1823 3.65212 67.3824-7.04489 59.0494-13.2186 46.1847-13.0258 32.6259-13.6675 20.3685-8.9071 8.44523 0 0" transform="matrix(1.00052 0 0 -1 563.5 969.66)"/><path d="M0 0 24.3479 0C26.0691-0.0625892 27.4504-1.44387 27.5126-3.16507 27.5126-5.53879 26.2346-6.69561 24.3479-6.69561L-7.24381-6.69561C-10.0438-6.69561-11.4434-5.66073-11.4434-3.53018-11.4434-2.79997-11.4434-1.64315-9.67831 1.27794e-15L12.6607 30.4346C15.3214 33.6665 16.916 37.6428 17.2261 41.8175 17.2984 47.2293 12.97 51.675 7.55783 51.7476 7.37186 51.7502 7.18589 51.7469 6.99992 51.739-0.608626 51.252-4.50427 46.4434-4.74779 37.1913-4.74779 34.8176-6.14813 33.6608-8.27869 33.6608-10.4089 33.6608-12.174 35.0611-12.174 38.5913-12.4182 49.5142-3.76147 58.5666 7.16143 58.8109 7.57438 58.8202 7.98732 58.8166 8.39991 58.8001 17.652 58.9735 25.3526 51.7325 25.7476 42.4869 26.1425 37.7294 24.6069 33.013 21.4868 29.4Z" transform="matrix(1.00052 0 0 -1 613.318 962.234)"/><path d="M0 0C17.6415 17.7771 17.5318 46.4894-0.245321 64.131-1.4025 65.2795-2.62119 66.3651-3.89564 67.3824-7.91322 70.4258-8.88695 72.9219-6.7564 74.8085-6.10785 75.7369-5.02692 76.2657-3.89564 76.2085-1.62444 75.9341 0.504311 74.9546 2.19134 73.4086 14.3484 63.2892 21.5749 48.4369 22.0347 32.6259 22.7044 18.5761 17.5771 4.86685 7.85207-5.29563 5.69274-7.73697 2.85213-9.47544-0.304673-10.2869-1.03128-10.5251-1.82876-10.3884-2.43487-9.92183-6.26972-8.58264-5.41757-5.41757 0 0" transform="matrix(1.00052 0 0 -1 678.725 969.66)"/></g></svg>