<svg width="490" height="492" xmlns="http://www.w3.org/2000/svg" xmlns:xlink="http://www.w3.org/1999/xlink" xml:space="preserve" overflow="hidden"><defs><clipPath id="clip0"><rect x="116" y="343" width="490" height="492"/></clipPath></defs><g clip-path="url(#clip0)" transform="translate(-116 -343)"><path d="M2.60663 622.216 487.269 622.216 487.269 137.554 2.60663 137.554Z" fill="#FFFFFF" transform="matrix(1 0 0 -1.0005 116.062 968.35)"/><path d="M0 134.893 489.875 134.893 489.875 625.04 0 625.04ZM5.21325 619.609 484.662 619.609 484.662 140.323 5.21325 140.323Z" fill="#192286" transform="matrix(1 0 0 -1.0005 116.062 968.35)"/><path d="M16.7256 607.554 473.095 607.554 473.095 152.107 16.7256 152.107Z" fill="#0F218B" transform="matrix(1 0 0 -1.0005 116.062 968.35)"/><path d="M0 0 184.851 323.379 375.783-0.706155Z" fill="#FFFFFF" fill-rule="evenodd" transform="matrix(1 0 0 -1.0005 173.081 749.72)"/><path d="M0 0 375.131-0.977546 184.525 322.782ZM375.837-0.977546 375.457-0.977546-0.651534-0.434519-0.651534-0.108507 184.362 323.542Z" fill="#FFFFFF" transform="matrix(1 0 0 -1.0005 173.407 749.503)"/><path d="M0 0C10.1059-0.149902 18.4201 7.92104 18.57 18.0269 18.7199 28.1328 10.6489 36.447 0.543027 36.5969-9.56286 36.7468-17.877 28.6758-18.0269 18.57-18.0284 18.4801-18.0289 18.3904-18.0289 18.3005-18.0891 8.27424-10.026 0.0896472 0 0" fill-rule="evenodd" transform="matrix(1 0 0 -1.0005 356.846 566.68)"/><path d="M0 0C-9.98611 0.149902-18.2028-7.82355-18.3527-17.8097-18.5028-27.7955-10.5289-36.0125-0.543027-36.1624 9.44284-36.3123 17.6595-28.3386 17.8094-18.3527 17.8109-18.2628 17.8116-18.1729 17.8116-18.0833 17.8719-8.177 9.90577-0.0896472 0 0M0-36.5467C-10.1958-36.6966-18.5829-28.5526-18.7328-18.3566-18.8827-8.16083-10.739 0.226077-0.543027 0.376224 9.653 0.526126 18.0399-7.61781 18.1898-17.8138 18.191-17.9035 18.1918-17.9934 18.1918-18.0833 18.252-28.1992 10.1157-36.457 0-36.5467" transform="matrix(1 0 0 -1.0005 356.846 530.278)"/><path d="M0 0C16.5906 9.36397 30.3005 23.0925 39.6417 39.6961 47.2987 55.1183 63.9158 51.4259 74.9394 41.8684L96.9865 7.11373 99.4849-17.0513C89.7643-28.7268 83.1936-26.4459 82.3245 7.98276L71.7895 16.3998 73.9077-56.0415 91.0135-88.8955C95.1948-100.408 81.0215-108.445 71.7898-91.8279L54.6297-55.7701 54.6297-33.0712 38.3384-52.9465C33.2883-59.2455 33.9942-68.5316 31.8221-76.2971L28.075-92.5882C3.20403-118.654 18.6807-54.0867 17.5402-50.3398 19.4407-40.4022 31.9306-31.0076 36.7095-24.0024L36.7095 3.47518 31.279 3.47518C27.2606 3.47518 11.6211-10.318 7.65675-10.4809 1.79196-10.4809-6.02767-3.80143-0.814663-0.326012Z" fill-rule="evenodd" transform="matrix(1 0 0 -1.0005 302.053 621.771)"/><path d="M0 0 17.1057-36.0034C22.2102-45.2351 28.4551-46.4299 32.2566-44.6921 36.4029-42.5435 38.0491-37.4595 35.9493-33.2883L18.8977-0.325767 16.8885 72.3872 17.2145 72.1155 28.0753 63.6985C28.4551 44.3663 30.7904 34.2114 35.0802 32.6909 37.524 31.8764 40.5107 33.8313 44.8008 38.7729L42.0854 62.8297 20.3639 97.6927C14.2546 103.507 5.88071 106.311-2.49812 105.349-8.01363 104.286-12.6478 100.567-14.8792 95.4121-24.2332 78.7712-37.9604 65.0062-54.5753 55.6072L-55.7701 54.9013C-57.1126 54.1822-57.7161 52.5805-57.1822 51.1543-55.3924 47.5495-51.7563 45.2299-47.7332 45.1266-43.3836 46.7317-39.3287 49.0434-35.732 51.9687-32.1909 54.9858-28.1473 57.3571-23.7852 58.9739L-18.0289 58.9739-18.0289 31.279C-20.0849 28.6009-22.3356 26.078-24.7627 23.7308-30.193 18.3005-36.0034 11.784-37.2526 5.21301-37.3368 1.91223-37.7001-1.37582-38.3386-4.61585-40.2935-17.8119-43.4975-39.859-37.6327-42.6285-35.3519-43.7689-31.8221-41.814-27.0977-36.8724L-23.3506-20.5811C-22.6981-17.9135-22.1906-15.2123-21.8301-12.4899-21.604-6.93884-19.8774-1.55291-16.8343 3.09528L0.108507 23.3506ZM29.1067-45.7781C25.3599-45.7781 20.6896-43.3346 16.7797-36.2207L-0.380143-0.0543762-0.380143 22.1017-16.6712 2.66076C-19.6433-1.85687-21.3498-7.08874-21.6131-12.4899-21.9521-15.2337-22.4598-17.9542-23.1334-20.6355L-26.8804-36.9268C-31.8221-42.3571-35.4604-43.9862-37.7412-42.7916-43.8777-39.8048-40.6192-17.5946-38.6644-4.29008-38.0258-1.08801-37.6802 2.16574-37.6327 5.43027-36.3294 12.1641-30.3015 18.5719-24.9797 24.2194-22.6188 26.601-20.4234 29.1412-18.409 31.8221L-18.409 58.9739-23.8395 58.9739C-28.0961 57.2997-32.0562 54.9528-35.5691 52.0231-39.1129 49.052-43.1338 46.7018-47.4616 45.0722L-47.7876 45.0722C-51.9763 45.2424-55.7412 47.6761-57.6165 51.4259-58.2251 53.0173-57.5491 54.8126-56.0417 55.6072L-54.8469 56.3131C-38.3511 65.5358-24.6542 79.0448-15.2052 95.4121-12.9788 100.601-8.39083 104.4-2.87802 105.621 5.69015 106.577 14.2368 103.648 20.4183 97.6383L42.52 62.8297 45.0178 38.5556C40.7821 33.4511 37.4152 31.4419 34.7545 32.3107 30.3015 33.8857 27.9124 44.149 27.4778 63.5897L17.323 71.681 19.2237-0.271391 36.275-32.854C38.3609-37.242 36.6417-42.495 32.3651-44.8006 31.3613-45.3554 30.2501-45.6885 29.1067-45.7781" transform="matrix(1 0 0 -1.0005 356.737 677.515)"/><path d="M0 0 20.3095 0 56.0417-67.7711 35.732-67.7711Z" fill-rule="evenodd" transform="matrix(1 0 0 -1.0005 268.928 675.016)"/><path d="M0 0 19.8752 0-15.6939 67.4453-35.5147 67.4453ZM20.527-0.380143-0.21726-0.380143-36.0578 67.7169-15.3138 67.7169Z" transform="matrix(1 0 0 -1.0005 304.768 742.657)"/><path d="M0 0 20.3095 0 56.0415-67.7711 35.732-67.7711Z" fill-rule="evenodd" transform="matrix(1 0 0 -1.0005 382.694 675.016)"/><path d="M0 0 19.8752 0-15.4225 67.4453-35.5147 67.4453ZM20.527-0.380143-0.21726-0.380143-36.1663 67.8255-15.4225 67.8255Z" transform="matrix(1 0 0 -1.0005 418.535 742.657)"/><path d="M0 0 20.3097 0 56.0417-67.7711 35.732-67.7711Z" fill-rule="evenodd" transform="matrix(1 0 0 -1.0005 438.627 675.016)"/><path d="M0 0 19.8211 0-15.6936 67.4453-35.5147 67.4453ZM20.527-0.380143-0.271391-0.380143-36.1121 67.7169-15.4223 67.7169Z" transform="matrix(1 0 0 -1.0005 474.468 742.657)"/><path d="M0 0 31.6592-57.5621 11.3494-57.5621-11.6211-15.5851Z" fill-rule="evenodd" transform="matrix(1 0 0 -1.0005 238.3 685.23)"/><path d="M0 0 19.8752 0-11.5123 57.0734-22.862 41.7597ZM20.527-0.380143-0.21726-0.380143-23.2421 41.7053-11.4038 57.6706Z" transform="matrix(1 0 0 -1.0005 249.758 742.657)"/><path d="M0 0 34.4287-67.2824 16.5083-67.4453-5.21325-25.4142Z" fill-rule="evenodd" transform="matrix(1 0 0 -1.0005 348.32 675.668)"/><path d="M0 0 21.7216-41.814 39.2618-41.814 5.05037 24.8168ZM21.3414-42.2483 21.3414-42.2483-0.380143-0.162884 5.05037 25.7944 5.32176 25.3055 39.859-42.3027Z" transform="matrix(1 0 0 -1.0005 343.378 701.094)"/><path d="M0 0 0 3.31254-26.0658 3.31254-26.0658 0C-25.8779-0.522697-25.5377-0.976567-25.0885-1.30331L-24.3826-1.68346-1.68346-1.68346-0.814418-0.814418ZM0 12.4899-26.0658 12.4899-26.0658 8.30853 0 8.30853ZM0 17.4861 0 20.3641-1.68346 22.0476-24.3826 22.0476C-24.9077 21.8369-25.3738 21.5014-25.74 21.0698L-26.0658 20.3641-26.0658 17.4861ZM7.98276-16.1823C9.0311-16.1296 9.83792-15.2368 9.78502-14.1885 9.78281-14.1471 9.77963-14.1057 9.77473-14.0646 9.77302-13.4517 9.60401-12.8509 9.28608-12.3267 9.00734-11.8109 8.54049-11.4219 7.98276-11.2409L-24.5996-11.2409C-27.5021-11.2287-30.279-10.0554-32.3107-7.98252-34.5022-6.01469-35.9417-3.34634-36.3835-0.434275L-36.3835 20.3097C-36.5018 20.8366-36.6843 21.3473-36.9266 21.8303-37.5343 22.8377-38.5799 23.5013-39.7505 23.6223L-47.9505 23.6223-49.1992 23.2421C-49.2315 23.0807-49.2315 22.9149-49.1992 22.7535-49.2237 22.3557-49.2237 21.9567-49.1992 21.5587-49.207 20.9985-49.0958 20.4435-48.8734 19.9296-48.6319 19.3741-48.2113 18.9153-47.6788 18.6263L-43.063 18.6263C-42.7749 18.6672-42.4822 18.6672-42.1942 18.6263-41.6423 18.3564-41.3173 17.7712-41.3795 17.1601L-41.3795-1.68346C-42.4112-2.93239-43.3344-3.96432-44.0405-4.72436-46.1041-6.95084-48.1134-9.01444-50.1767-10.8608-50.6-11.211-50.8564-11.7237-50.8826-12.2726-50.9091-13.0402-50.6583-13.792-50.1767-14.3906-49.8142-14.977-49.1825-15.3439-48.4933-15.3679-47.9235-15.3174-47.3967-15.0443-47.0271-14.6078L-39.0445-5.86454C-37.6246-8.39769-35.7888-10.6741-33.614-12.5986-31.607-14.5366-28.9617-15.6758-26.1743-15.8024ZM-36.6008 34.9176C-36.2434 34.4257-36.036 33.8411-36.0034 33.2341-35.997 32.6424-36.2324 32.0734-36.6549 31.6594-37.1208 31.255-37.7221 31.0414-38.3384 31.0618-38.9208 31.0914-39.4842 31.279-39.9677 31.605L-47.2985 39.2618C-47.3979 40.1379-47.1439 41.0175-46.5928 41.7058-46.0992 42.1413-45.459 42.3742-44.8006 42.3573L-44.149 42.3573-36.8178 35.0805ZM8.85156 31.1705-10.9152 31.1705-12.1641 27.0433 1.68346 27.0433C2.74453 26.6977 3.66084 26.0102 4.29008 25.0885 4.57936 24.638 4.83336 24.166 5.05037 23.6767L5.05037-3.47518C4.7224-4.48946 4.02457-5.34258 3.09552-5.86454L1.68346-6.40781-27.315-6.40781C-28.3131-6.24469-29.1878-5.64826-29.7041-4.77873-29.9662-4.38267-30.1506-3.94031-30.2471-3.47518L-30.2471 23.6767C-30.0737 24.7145-29.5103 25.6469-28.6727 26.2833-28.2494 26.5858-27.7941 26.8408-27.315 27.0433L-17.6487 27.0433C-17.4682 27.7235-17.3232 28.412-17.2142 29.1069-17.1434 29.804-17.0166 30.494-16.8343 31.1705L-33.1254 31.1705C-33.6968 31.1588-34.2327 31.4473-34.5372 31.9308-34.8755 32.4459-35.0462 33.0526-35.0261 33.6686-35.0616 34.3033-34.8899 34.932-34.5372 35.4606-34.2445 35.9507-33.6934 36.2263-33.1254 36.1665L-22.5904 36.1665-25.5228 41.1625C-25.5262 41.6935-25.3956 42.2162-25.1426 42.6831L-24.7083 43.2261C-24.1229 43.4782-23.4981 43.6251-22.862 43.6606-21.4499 43.6606-20.2554 42.6831-19.1693 40.728L-16.7256 36.1665-9.99199 36.1665-7.00522 41.597C-6.62507 42.5743-6.02767 43.1174-5.32201 43.1717L-3.6383 43.1717C-2.71097 42.8269-2.10181 41.9348-2.11773 40.9455-2.18288 40.051-2.48269 39.1893-2.98677 38.4474-3.69268 37.3613-4.23571 36.601-4.5071 36.1124L8.85156 36.1124C9.7086 35.5845 10.2553 34.6731 10.3178 33.6686 10.2749 32.8638 9.92512 32.1057 9.34021 31.5509ZM-84.3881-0.162884-84.3881 4.01845-95.7376 4.01845-95.7376 1.0863C-95.5499 0.563602-95.2095 0.109487-94.7603-0.21726-94.5464-0.367162-94.3071-0.477629-94.0544-0.543027ZM-84.3881 8.96031-84.3881 12.7071-94.0544 12.7071C-94.6003 12.5359-95.0762 12.193-95.4118 11.7298-95.562 11.516-95.6724 11.2767-95.7376 11.0239L-95.7376 8.96031ZM-69.2375 1.4662-69.2375 4.01845-80.0983 4.01845-80.0983-0.543027-70.8125-0.543027C-70.2011-0.605486-69.6159-0.280454-69.346 0.271391-69.3017 0.541312-69.3017 0.816377-69.346 1.0863ZM-69.2375 8.96031-69.2375 11.0239C-69.3908 11.6696-69.831 12.2094-70.4323 12.4901-70.738 12.5396-71.0496 12.5396-71.3553 12.4901L-80.2068 12.4901-80.2068 8.74305ZM-76.4054 33.5055-76.4054 35.5691-88.6238 35.5691-88.6238 33.5055C-88.4252 32.9892-88.0867 32.5378-87.6463 32.2024L-86.9404 31.8221-78.0347 31.8221C-77.4106 31.7687-76.8215 32.1179-76.5685 32.6911-76.5158 32.9598-76.5158 33.2366-76.5685 33.5055ZM-87.7551-8.09103C-88.1896-10.2631-89.9815-12.001-93.1853-13.5215L-97.5298-15.3138-102.96-16.9428C-103.79-16.9355-104.594-16.6484-105.241-16.1284-105.409-15.7135-105.501-15.2721-105.512-14.8249-105.512-13.63-104.426-12.6527-102.309-11.8927-100.66-11.4606-99.0854-10.7834-97.6383-9.88348L-94.2716-8.25416-91.8279-7.11373C-91.2905-6.89794-90.7225-6.76983-90.1444-6.73358-89.1698-6.72427-88.2971-7.33515-87.9723-8.25416ZM-101.657 14.3906C-101.548 14.8917-101.548 15.41-101.657 15.9112-101.76 17.2559-102.36 18.5141-103.34 19.4407L-107.793 24.3282-107.793 26.4462-103.612 26.4462C-103.024 26.4258-102.468 26.7139-102.146 27.2062-101.814 27.724-101.644 28.329-101.657 28.944-101.657 30.0301-102.146 30.5731-103.177 30.5731L-107.793 30.5731-107.793 43.1174-108.227 43.606C-108.817 44.1657-109.588 44.4937-110.4 44.5292-111.387 44.454-112.286 43.9345-112.844 43.1174L-112.844 30.193-118.274 30.193C-118.789 30.202-119.275 29.9586-119.577 29.5412-119.86 29.1042-120.01 28.5955-120.012 28.075-120.018 27.4783-119.848 26.8927-119.523 26.3918-119.264 25.9416-118.793 25.6548-118.274 25.6315L-113.658 25.6315C-114.577 22.1301-115.965 18.7688-117.785 15.6398-119.251 12.8703-120.283 10.9693-120.772 9.82911-120.971 9.13691-120.785 8.39108-120.283 7.87401-119.293 6.8705-117.677 6.85899-116.674 7.84878-116.46 8.05992-116.284 8.30755-116.156 8.57992L-113.658 14.3906-113.658-15.9109C-113.244-17.1917-111.938-17.9608-110.617-17.7029-110.084-17.7252-109.556-17.5931-109.096-17.323-108.664-17.0038-108.403-16.5027-108.39-15.9653L-108.39 17.7031C-107.685 16.7799-106.924 15.9112-106.055 14.9339-105.402 14.0869-104.409 13.5703-103.34 13.5218-102.757 13.5561-102.185 13.7035-101.657 13.9563ZM-62.1236-17.2142C-64.4377-16.7768-66.6718-15.9895-68.7489-14.8792-70.8274-13.7491-72.9665-12.7336-75.1567-11.8383-75.8236-11.3974-76.4115-10.8466-76.8943-10.2092-77.0569-10.0777-77.187-9.91042-77.2744-9.7206L-76.8399-7.22223-74.7763-7.22223C-72.5042-7.33564-70.2986-8.0271-68.3685-9.23146-66.347-10.3966-64.2621-11.4481-62.1236-12.3814-61.5974-12.653-61.1771-13.0924-60.929-13.63-60.6515-14.1682-60.503-14.7629-60.4945-15.3679-60.4719-15.8423-60.5851-16.3133-60.8205-16.7256-61.1578-17.0984-61.6229-17.3308-62.1236-17.3771ZM-62.5039 20.7984-80.2068 20.7984-80.2068 17.0513-67.5541 17.0513C-66.4291 16.7785-65.4437 16.1022-64.7846 15.1506-64.5364 14.7021-64.3363 14.2292-64.1871 13.739L-64.1871-1.62908C-64.3664-2.77857-65.0415-3.79115-66.0335-4.39859-66.5057-4.66459-67.0201-4.8483-67.5541-4.94162L-96.6066-4.94162C-97.9261-4.83972-99.1074-4.08605-99.756-2.93239-100.048-2.40284-100.266-1.83654-100.408-1.24918L-100.408 12.0556-99.9733 14.1733C-99.7989 14.9836-99.2568 15.6662-98.5073 16.0194L-96.1723 17.0513-85.3116 17.0513-85.3116 20.7984-100.408 20.7984-101.657 21.2329C-101.952 21.6838-102.104 22.2141-102.092 22.7535-102.103 23.3171-101.932 23.8699-101.603 24.3279-101.35 24.7439-100.894 24.9922-100.408 24.9795L-62.3952 24.9795C-61.9117 24.9814-61.461 24.7355-61.2004 24.3279-60.9219 23.892-60.7886 23.3783-60.8205 22.8617-60.8205 21.5043-61.3633 20.7982-62.3952 20.7982ZM-62.5039 36.1663-71.7898 36.1663-71.7898 31.1705C-71.8924 30.0081-72.5633 28.971-73.5817 28.401-74.0799 28.1377-74.609 27.9373-75.1567 27.8039L-89.873 27.8039C-91.0316 27.9954-92.0567 28.6653-92.6967 29.65-92.924 30.1391-93.1057 30.6481-93.2397 31.1705L-93.2397 35.2975-100.408 35.2975C-100.944 35.5211-101.386 35.9243-101.657 36.4382-101.973 36.9427-102.142 37.5257-102.146 38.1214-102.272 39.1937-101.504 40.1649-100.432 40.2908-100.424 40.2918-100.416 40.2927-100.408 40.2935L-93.2397 40.2935-93.2397 43.2261C-93.0224 43.7324-92.6643 44.1659-92.208 44.4748-91.736 44.7687-91.1891 44.9199-90.6331 44.9096-89.6511 45.0308-88.7561 44.3327-88.6349 43.3505-88.63 43.3092-88.6261 43.2675-88.6238 43.2261L-88.6238 40.2937-76.8399 40.2937-76.8399 42.0313C-76.8519 42.6027-76.5634 43.1384-76.0796 43.4431-75.5452 43.7826-74.9206 43.9528-74.2876 43.9318-73.654 43.9599-73.0272 43.789-72.4957 43.4431-72.0056 43.1502-71.73 42.5993-71.7898 42.0313L-71.7898 39.9677-62.5039 39.9677C-62.0202 39.9694-61.5695 39.7235-61.3091 39.3162-61.038 38.8968-60.905 38.403-60.929 37.9041-60.929 36.4923-61.472 35.7864-62.5039 35.7864ZM-173.881 26.6091C-174.267 27.0833-174.844 27.3617-175.456 27.3691-176.2 27.3164-176.897 26.9872-177.411 26.4462-177.957 25.8448-178.464 25.21-178.931 24.5455L-182.624 19.4407C-185.629 15.35-188.453 11.7298-191.095 8.57992-191.382 7.68664-191.078 6.70958-190.335 6.13642-189.758 5.69848-189.05 5.46848-188.326 5.48489-187.727 5.46505-187.138 5.63626-186.643 5.97354-186.144 6.27261-185.791 6.76346-185.665 7.33123L-182.678 10.6435-182.678-15.9653C-182.6-17.0119-181.687-17.7967-180.641-17.7178-180.596-17.7144-180.551-17.7097-180.506-17.7029-179.893-17.7014-179.292-17.5324-178.769-17.2142-178.267-16.9269-177.869-16.4902-177.628-15.9653L-177.628 17.2686C-177.171 18.3253-176.568 19.3126-175.836 20.201-174.582 21.542-173.751 23.2233-173.447 25.0341-173.447 25.6575-173.595 26.272-173.881 26.8261ZM-175.13 42.0313C-176.132 39.5609-177.275 37.1495-178.551 34.8088-180.721 31.0605-183.096 27.4347-185.665 23.948-186.063 23.3867-186.715 23.0609-187.403 23.0793-188.105 23.079-188.775 23.3746-189.249 23.8937-189.765 24.3461-190.062 24.9991-190.064 25.6856-190.051 26.2897-189.819 26.8684-189.412 27.315-187.294 30.3017-185.176 33.614-183.113 37.1982-182.407 38.393-181.592 39.9677-180.615 41.8684L-180.18 43.1174C-179.45 43.9862-178.382 44.5003-177.248 44.5294-176.62 44.5596-176.008 44.3227-175.564 43.8777-175.138 43.3013-174.98 42.5694-175.13 41.8684ZM-132.23 21.2329-140.213 21.2329-140.213-10.8064C-140.891-13.2002-142.575-15.1815-144.828-16.2367-145.906-16.7008-147.037-17.0288-148.195-17.2142L-152.431-17.2142-158.73-15.9653C-159.965-15.7706-161.147-15.3272-162.206-14.6617-163.563-13.8473-164.269-12.9241-164.269-11.9466-164.214-11.2497-163.882-10.6041-163.346-10.1546-162.691-9.97729-162.016-9.88593-161.337-9.88324-159.881-9.97558-158.45-10.3055-157.101-10.8605-155.832-11.4361-154.472-11.7854-153.083-11.8925L-149.879-11.8925C-148.551-11.9054-147.298-11.2791-146.512-10.209-146.166-9.68704-145.892-9.12074-145.697-8.52555L-145.697 21.396-169.645 21.396-170.514 21.7759C-170.979 22.3873-171.244 23.1268-171.274 23.8939-171.27 24.5846-170.998 25.2467-170.514 25.7403-170.264 26.0053-169.97 26.2255-169.645 26.3918L-132.339 26.3918C-131.767 26.4035-131.231 26.115-130.927 25.6318-130.588 25.1166-130.418 24.5094-130.438 23.8939-130.413 23.2676-130.564 22.6472-130.872 22.1017-131.2 21.6216-131.759 21.3527-132.339 21.3958ZM-135.162 36.601-167.745 36.601C-168.364 36.9405-168.802 37.5369-168.939 38.2301-169.019 38.7883-169.019 39.3551-168.939 39.9133L-167.636 41.5968-135.054 41.5968C-134.203 41.0628-133.659 40.1548-133.588 39.1533-133.619 38.3455-133.971 37.5832-134.565 37.0353L-135.054 36.601ZM-201.087-13.8473C-200.479-14.4136-200.11-15.1905-200.056-16.0194-200.057-16.6207-200.313-17.1934-200.761-17.5944-201.272-18.0384-201.932-18.2714-202.608-18.2459-203.096-18.195-203.572-18.0669-204.02-17.8655-208.635-13.63-212.22-10.0461-214.88-7.00497-218.25-3.22558-221.199 0.907494-223.678 5.32225-226.48 10.4726-228.649 15.9425-230.14 21.6131-232.356 13.3584-235.915 5.52481-240.675-1.5747-245.093-7.97787-250.719-13.4566-257.237-17.7029-257.842-18.0169-258.511-18.1842-259.192-18.1918-260.604-18.1918-261.256-17.5944-261.256-16.3452-261.238-15.6434-261.011-14.9628-260.604-14.3906-257.519-12.3228-254.629-9.97778-251.97-7.38512-248.678-4.27-245.729-0.811234-243.173 2.93239-239.794 8.04449-237.229 13.6501-235.57 19.5492-233.994 25.1507-233.208 30.9449-233.235 36.7637L-233.235 43.8233C-232.584 45.2892-231.66 46.0498-230.52 46.0498-229.38 46.0498-228.402 45.2895-227.751 43.8233L-227.751 34.1027C-227.106 29.321-225.884 24.6346-224.112 20.1469-222.408 15.4392-220.395 10.8495-218.084 6.40781-215.56 2.28674-212.651-1.58622-209.396-5.15888-205.812-8.79718-202.934-11.7298-200.87-13.9563Z" fill-rule="evenodd" transform="matrix(1 0 0 -1.0005 486.578 950.093)"/></g></svg>