<svg width="937" height="1122" xmlns="http://www.w3.org/2000/svg" xmlns:xlink="http://www.w3.org/1999/xlink" xml:space="preserve" overflow="hidden"><g transform="translate(-1282 -156)"><path d="M67.2376 1121.53 868.945 1121.53C906.029 1121.53 936.091 1091.47 936.091 1054.39L936.091 67.6772C936.091 30.595 906.029 0.534758 868.945 0.534758L67.2376 0.534758C30.1536 0.534758 0.0912673 30.595 0.0912673 67.6772L0.0912673 1054.39C0.0912673 1091.47 30.1536 1121.53 67.2376 1121.53" fill="#016D2C" fill-rule="evenodd" transform="matrix(1 0 0 -1 1282 1278)"/><path d="M849.208 1061.3 47.6299 1061.3C32.9131 1061.24 20.9965 1049.33 20.9409 1034.61L20.9409 48.0326C20.9829 40.9889 23.7766 34.2409 28.7252 29.2286 33.7374 24.2184 40.5426 21.4163 47.6299 21.4443L849.208 21.4443C863.892 21.4443 875.795 33.3486 875.795 48.0326L875.795 1034.31C875.741 1048.98 863.885 1060.89 849.208 1061ZM47.6299 1081.52 849.208 1081.52C861.7 1081.54 873.68 1076.55 882.468 1067.67 891.362 1058.84 896.381 1046.84 896.419 1034.31L896.419 47.7289C896.308 21.7012 875.236 0.628548 849.208 0.518179L47.6299 0.518179C21.5792 0.573842 0.474568 21.6782 0.418905 47.7289L0.418905 1034.31C0.474568 1060.36 21.5792 1081.46 47.6299 1081.52" fill="#FFFFFF" fill-rule="evenodd" transform="matrix(1 0 0 -1 1302 1258)"/><path d="M0.0637968 628.974 630.064 628.974 630.064-0.0262051 0.0637968-0.0262051Z" fill="#FFFFFF" fill-rule="evenodd" transform="matrix(1 0 0 -1 1435 1032)"/><path d="M1876.68 622.823 1876.68 618.124C1876.68 616.826 1875.64 615.769 1874.34 615.763 1874.26 615.762 1874.18 615.766 1874.09 615.775L1871.51 615.775C1872.74 587.011 1859.3 559.587 1835.82 542.946 1821.85 532.435 1804.93 526.599 1787.46 526.265 1786.18 526.019 1785.03 525.358 1784.17 524.386 1784.04 521.924 1781.95 520.03 1779.49 520.156 1779.48 520.156 1779.48 520.157 1779.47 520.157L1764.92 520.157C1759.89 512.008 1751.01 507.033 1741.44 507.001 1733.65 506.943 1726.18 510.085 1720.78 515.693 1707.39 515.693 1656.91 515.693 1619.82 514.284 1613.95 514.284 1613.95 514.284 1610.89 517.103 1608.37 522.294 1608.37 528.357 1610.89 533.548 1611.85 534.448 1613.1 534.952 1614.42 534.958 1641.23 529.666 1668.58 527.615 1695.89 528.85 1697.77 528.85 1699.88 531.434 1695.89 533.548 1683.91 540.596 1647.05 552.813 1634.14 557.042 1631.5 557.962 1629.42 560.038 1628.5 562.68 1628.14 566.116 1628.14 569.581 1628.5 573.017 1628.78 575.466 1631 577.223 1633.44 576.94 1633.93 576.884 1634.4 576.75 1634.84 576.541 1657.73 563.236 1681.88 552.219 1706.92 543.65 1709.86 542.968 1712.91 542.968 1715.85 543.65L1715.85 592.986C1680.95 593.943 1652.74 621.755 1651.28 656.653L1651.28 911.085C1651.28 923.536 1654.09 928 1662.31 928L1822.68 928C1830.89 928 1833.71 923.536 1833.71 911.085L1833.71 659.707 1833.71 658.297C1831.96 622.7 1802.65 594.713 1767.03 594.631L1767.03 547.644 1779.94 547.644C1782.4 547.777 1784.51 545.889 1784.64 543.428 1784.64 543.424 1784.64 543.419 1784.64 543.415 1784.64 543.415 1786.75 541.066 1787.69 541.066 1801.3 540.859 1814.64 544.791 1825.96 552.343 1846.7 566.082 1858.66 589.745 1857.42 614.6L1855.55 614.6C1854.26 614.47 1853.11 615.412 1852.98 616.703 1852.97 616.784 1852.96 616.867 1852.96 616.949L1852.96 622.823C1845.2 626.622 1840.15 634.384 1839.82 643.027L1839.82 705.284C1839.81 706.582 1840.85 707.639 1842.15 707.645 1842.23 707.646 1842.32 707.642 1842.4 707.633L1888.65 707.633C1889.95 707.633 1891 706.582 1891 705.284L1891 642.557C1890.28 633.82 1884.76 626.212 1876.68 622.823Z" fill-rule="evenodd"/></g></svg>