<svg width="212" height="463" xmlns="http://www.w3.org/2000/svg" xmlns:xlink="http://www.w3.org/1999/xlink" xml:space="preserve" overflow="hidden"><defs><clipPath id="clip0"><rect x="70" y="0" width="212" height="463"/></clipPath></defs><g clip-path="url(#clip0)" transform="translate(-70 0)"><path d="M2.08026 544.227 209.742 544.227 209.742 84.8894 2.08026 84.8894Z" fill="#FFFFFF" transform="matrix(1 0 0 -1.00182 70.0155 546.532)"/><path d="M0.76648 83.5391 211.092 83.5391 211.092 545.541 0.76648 545.541ZM3.39405 542.913 208.428 542.913 208.428 86.2032 3.39405 86.2032Z" fill="#192286" transform="matrix(1 0 0 -1.00182 70.0155 546.532)"/><path d="M10.5108 534.628 201.348 534.628 201.348 94.4513 10.5108 94.4513Z" fill="#0F218B" transform="matrix(1 0 0 -1.00182 70.0155 546.532)"/><path d="M0 0 0.291987 234.048 49.0506 182.881 49.5615 254.413-27.3719 342.368-102.699 253.537-102.699 180.436-51.2767 233.829-51.0942-0.0365646Z" fill="#FFFFFF" fill-rule="evenodd" transform="matrix(1 0 0 -1.00182 202.496 402.879)"/><path d="M0 0-2.33579 0C-0.985444 2.51819-0.0729173 4.37949 0.437928 5.54744 1.2822 7.41531 1.90677 9.37486 2.29923 11.3868 2.70896 13.7978 2.9044 16.2403 2.8832 18.6859 2.89157 20.5648 2.68342 22.4385 2.26277 24.2698 1.77566 26.1939 1.12863 28.0739 0.328552 29.8901-0.255423 31.204-1.16795 33.1018-2.37225 35.474L-0.109482 35.474C1.20748 33.6677 2.42577 31.7915 3.54009 29.8537 4.54917 28.0373 5.3218 26.0995 5.83943 24.0872 6.38896 22.0282 6.65901 19.9046 6.64226 17.7735 6.59764 14.6461 5.97912 11.5535 4.81742 8.6495 3.58609 5.5804 1.98032 2.67526 0.0364587 0ZM-30.2552 28.4302C-30.486 28.6956-30.8162 28.8541-31.1675 28.8682-31.5786 28.8319-31.9588 28.6353-32.2259 28.3208L-33.0289 27.2988-35.0726 24.4888C-36.6784 22.2625-38.2478 20.2551-39.7075 18.4303L-39.7075 18.0654C-39.7308 17.6869-39.5498 17.3251-39.2331 17.1165-38.9139 16.8902-38.5293 16.7748-38.1383 16.788-37.8084 16.7788-37.4817 16.8543-37.1894 17.007-36.9388 17.1987-36.759 17.4684-36.6784 17.7734L-35.0726 19.5618-35.0726 4.96347C-34.9965 4.37186-34.4611 3.95015-33.8682 4.01459-33.5365 4.0254-33.2116 4.11294-32.9192 4.27001-32.6407 4.42517-32.4221 4.66936-32.2989 4.96347L-32.2989 23.2115C-32.0536 23.7935-31.7214 24.3349-31.3134 24.8172-30.6313 25.5482-30.1749 26.4607-29.9997 27.445-30.0022 27.7852-30.0768 28.1211-30.2186 28.4303ZM-30.9486 36.8243C-31.5011 35.4852-32.1348 34.1811-32.8464 32.9192-34.0248 30.9015-35.3165 28.952-36.7149 27.0799-36.9332 26.7697-37.2847 26.5804-37.6638 26.5689-38.4619 26.5881-39.1045 27.2307-39.1236 28.0288-39.1153 28.3559-38.9852 28.6683-38.7586 28.9047-37.5909 30.547-36.4595 32.3353-35.328 34.306-34.9267 34.963-34.4886 35.8024-33.9412 36.8242L-33.7222 37.5177C-33.3394 38.0188-32.747 38.315-32.1164 38.3206-31.7717 38.35-31.4334 38.2145-31.2041 37.9556-30.9663 37.63-30.8739 37.2205-30.9486 36.8242ZM-7.4452 25.474-11.8247 25.474-11.8247 7.99261C-12.1475 6.6288-13.0747 5.48682-14.3429 4.89044-14.9307 4.64551-15.5422 4.46216-16.1677 4.34303L-18.4669 4.34303-22.1165 5.03649C-22.7896 5.15742-23.4336 5.4051-24.0143 5.7663-24.7442 6.20423-25.1457 6.71518-25.1457 7.22623-25.1118 7.60905-24.9282 7.96325-24.6347 8.21157-24.2718 8.26658-23.9027 8.26658-23.5398 8.21157-22.7473 8.16494-21.9691 7.97968-21.2406 7.66406-20.5435 7.36921-19.8047 7.18458-19.0509 7.11665L-17.2625 7.11665C-16.544 7.11378-15.8666 7.45241-15.4378 8.02917-15.2566 8.32074-15.0979 8.62576-14.9634 8.94149L-14.9634 25.2917-27.9194 25.2917-28.3938 25.5471C-28.67 25.8601-28.8252 26.2613-28.8318 26.6785-28.8225 27.0628-28.6657 27.4287-28.3938 27.7004-28.2592 27.8404-28.0978 27.9519-27.9194 28.0289L-7.48176 28.0289C-7.17494 28.0324-6.88698 27.8815-6.71528 27.6274-6.5331 27.3456-6.44375 27.0138-6.45975 26.6785-6.44598 26.3366-6.52144 25.997-6.67882 25.6932-6.85751 25.4278-7.16222 25.2754-7.48176 25.2917ZM-9.05097 33.9047-26.788 33.9047C-27.1098 34.1031-27.3445 34.4161-27.445 34.7806-27.4806 35.0836-27.4806 35.3898-27.445 35.6929L-26.7515 36.6053-9.05097 36.6053C-8.58199 36.3278-8.2812 35.8356-8.24814 35.2915-8.26372 34.8439-8.46148 34.422-8.79555 34.1236-8.85352 34.0239-8.94361 33.9467-9.05097 33.9047M-48.7586 7.59114-46.4957 7.59114C-46.0779 7.60619-45.6757 7.43174-45.4009 7.11665-45.1532 6.82074-45.0234 6.44396-45.036 6.05829-45.0218 5.68352-45.1525 5.31745-45.4009 5.03649-45.68 4.73412-46.0875 4.58468-46.4957 4.63491L-74.5247 4.63491C-74.9749 4.61711-75.4119 4.78923-75.729 5.10941-76.0384 5.37288-76.2126 5.76153-76.2035 6.16777-76.2035 7.11665-75.6195 7.6276-74.4518 7.6276L-72.8458 7.6276-72.8458 27.9923C-72.8662 28.6754-72.5177 29.3166-71.9335 29.6712-71.6399 29.8454-71.3192 29.9688-70.9846 30.0361L-62.5541 30.0361-62.5541 32.9923-75.583 32.9923C-75.9465 32.9596-76.3023 33.1102-76.5319 33.3938-76.9706 33.9503-76.9706 34.7349-76.5319 35.2916-76.3023 35.5751-75.9465 35.7257-75.583 35.693L-62.5541 35.693-62.5541 37.0798C-62.5342 37.3606-62.3862 37.6164-62.1526 37.7733-61.9261 37.9554-61.6398 38.0465-61.3496 38.0287-60.6811 38.1034-60.0482 37.7116-59.8169 37.0799L-59.8169 35.2552-45.8024 35.2552C-45.5204 35.2697-45.2487 35.1474-45.0724 34.9267-44.9074 34.6777-44.8186 34.3859-44.817 34.0873-44.8238 33.7549-44.9115 33.4292-45.0724 33.1385-45.2275 32.8848-45.5052 32.7321-45.8024 32.737L-59.8169 32.737-59.8169 30.0362-50.8389 30.0362C-50.1448 30.0621-49.49 29.7139-49.1235 29.1239-48.9548 28.8408-48.8315 28.5329-48.7586 28.2115L-48.7586 7.55479ZM-70.0721 7.59114-51.3132 7.59114-51.3132 13.4669-70.0722 13.4669-70.0722 7.6276ZM-51.3132 20.0363-70.0722 20.0363-70.0722 16.1677-51.3132 16.1677ZM-51.3132 22.7734-51.3132 26.4231C-51.4147 26.7079-51.5912 26.9601-51.8242 27.1529L-52.2257 27.3354-69.1598 27.3354C-69.4904 27.3608-69.8051 27.1893-69.9627 26.8975-69.9747 26.7396-69.9747 26.581-69.9627 26.4231L-69.9627 22.7734ZM-83.9407 35.5834-81.6049 35.5834C-82.9552 33.0653-83.9041 31.2405-84.4149 30.0726-85.2428 28.2017-85.855 26.2426-86.2398 24.2332-86.6657 21.8242-86.8612 19.3801-86.8238 16.934-86.8365 15.055-86.6282 13.1808-86.2033 11.3502-85.7189 9.42997-85.0843 7.55065-84.3056 5.72984-83.6851 4.37949-82.8092 2.51819-81.5683 0.109482L-83.8312 0.109482C-85.3639 2.37225-86.5318 4.27001-87.4807 5.7664-88.4633 7.5781-89.2231 9.50204-89.7434 11.4963-90.3052 13.5661-90.5875 15.7018-90.5829 17.8466-90.5791 21.0033-89.9977 24.1326-88.8676 27.0801-87.6431 30.141-86.0367 33.0349-84.0866 35.693ZM-100.291 8.90492-100.291 15.7297-101.24 16.642-109.743 16.642C-110.025 16.5181-110.275 16.3307-110.473 16.0946L-110.656 15.7297-110.656 8.90492C-110.685 8.56355-110.494 8.24104-110.181 8.10209L-109.743 8.10209-101.24 8.10209C-100.948 8.20818-100.694 8.39874-100.51 8.6495-100.413 8.75506-100.338 8.87927-100.291 9.01451ZM-119.086 28.9047-119.086 33.6492C-119.192 33.9413-119.383 34.1955-119.634 34.3791L-119.999 34.3791-123.283 34.3791C-123.573 34.2869-123.827 34.1086-124.013 33.8682-124.033 33.7351-124.033 33.5997-124.013 33.4667L-124.013 28.9412C-124.031 28.5825-123.867 28.2388-123.575 28.0288L-123.101 27.8099-119.889 27.8099C-119.558 27.7844-119.244 27.9559-119.086 28.2477-119.074 28.4058-119.074 28.5643-119.086 28.7222ZM-100.838 33.6492-101.057 34.5616-109.05 34.5616C-109.33 34.4515-109.58 34.2764-109.78 34.0506L-109.78 33.6492C-109.056 32.0264-108.124 30.505-107.006 29.1237-106.519 28.4742-105.982 27.8641-105.4 27.2988-103.991 28.5176-102.762 29.9308-101.751 31.4959-101.386 32.0434-100.984 32.7734-100.51 33.6491ZM-97.6267 7.55468-97.6267 16.8612-98.2104 18.1019C-98.3914 18.5267-98.7769 18.8295-99.2324 18.9049L-100.364 19.3428-110.437 19.3428-111.933 18.7224C-112.439 18.4967-112.815 18.0537-112.955 17.518L-113.393 16.1677-113.393 7.99261C-113.274 7.53645-113.102 7.09556-112.882 6.67882-112.334 5.81208-111.446 5.21603-110.437 5.03649L-100.765 5.03649C-100.294 5.08556-99.8293 5.18338-99.3784 5.32837-98.4379 5.72094-97.7539 6.55546-97.5535 7.55468ZM-95.3273 21.3866C-95.1274 20.7136-95.4764 19.9998-96.1302 19.7443-96.4695 19.7004-96.8129 19.7004-97.1522 19.7443-99.0864 20.5106-101.094 21.4232-103.247 22.4814L-105.911 23.8318C-107.692 22.6059-109.601 21.5778-111.605 20.7662L-114.415 19.7443C-115.094 19.5743-115.799 19.9113-116.093 20.5472-116.13 20.8868-116.13 21.2294-116.093 21.5691L-107.59 25.474-111.568 30.5471-114.342 27.5908C-114.594 27.4366-114.886 27.3604-115.181 27.372-115.482 27.3552-115.78 27.4458-116.02 27.6274-116.261 27.7557-116.403 28.0128-116.385 28.2843L-116.385 26.4595C-116.485 26.035-116.765 25.6753-117.152 25.474L-117.772 25.474-120.072 25.474-120.072 19.5982-116.166 19.5982C-115.865 19.6168-115.576 19.4789-115.4 19.2333-115.223 18.9357-115.135 18.5939-115.145 18.2479-115.131 17.906-115.206 17.5663-115.364 17.2624-115.551 17.0109-115.854 16.873-116.167 16.8975L-120.072 16.8975-120.072 9.37931-116.167 10.9851C-115.701 11.0294-115.243 10.8539-114.926 10.5107-114.735 10.2748-114.643 9.97367-114.67 9.6713-114.649 9.50162-114.649 9.33003-114.67 9.16045L-114.67 8.94138C-117.143 7.83469-119.677 6.87203-122.261 6.05829L-125.838 4.99992-126.823 4.562-127.845 4.562-128.575 4.562C-128.657 4.53115-128.748 4.53115-128.831 4.562-129.01 4.84667-129.111 5.17427-129.122 5.51088-129.121 6.08319-128.815 6.61152-128.32 6.89768-127.813 7.30509-127.181 7.52437-126.531 7.51822L-126.531 20.4376C-126.203 20.985-125.838 21.2406-125.436 21.2406-125.12 21.2303-124.82 21.0998-124.597 20.8757L-124.232 20.4376-124.232 8.17501-122.407 8.86846-122.407 25.2186-125.181 25.2186C-125.759 25.3428-126.26 25.699-126.568 26.204-126.759 26.4579-126.907 26.7414-127.006 27.0434L-127.006 35.2185C-126.85 35.831-126.473 36.3641-125.947 36.7148L-125.181 37.0434-118.539 37.0434C-117.845 37.0692-117.19 36.721-116.823 36.1309-116.655 35.8478-116.531 35.5399-116.459 35.2185L-116.459 29.0872-116.239 29.7806C-115.178 30.6977-114.245 31.7534-113.466 32.9192-112.682 34.0754-111.998 35.2962-111.422 36.5689L-109.816 37.4812-98.466 37.4812C-98.0123 37.3843-97.6174 37.1078-97.371 36.7148-97.2447 36.5361-97.1461 36.3393-97.0791 36.1309-97.4429 33.4167-98.6124 30.8741-100.437 28.8317L-103.283 25.1821-100.072 23.3574C-99.3547 22.922-98.5625 22.6249-97.736 22.4814-96.7726 22.3219-95.8951 21.8314-95.2543 21.0945ZM-157.991 28.4302C-158.213 28.6868-158.528 28.8443-158.867 28.8682-159.291 28.8415-159.686 28.644-159.962 28.3208L-160.764 27.2988-162.772 24.4888C-164.414 22.2625-165.947 20.2551-167.407 18.4303-167.431 18.31-167.431 18.1858-167.407 18.0654-167.424 17.6965-167.261 17.3423-166.969 17.1165-166.634 16.8942-166.239 16.7796-165.837 16.788-165.52 16.782-165.206 16.8574-164.925 17.007-164.665 17.1969-164.473 17.4657-164.378 17.7734L-162.772 19.5618-162.772 4.96347C-162.737 4.40016-162.253 3.97134-161.689 4.00568-161.661 4.00749-161.632 4.01035-161.604 4.01459-161.272 4.0254-160.947 4.11294-160.655 4.27001-160.368 4.41489-160.147 4.66247-160.035 4.96347L-160.035 23.2115C-159.76 23.778-159.43 24.316-159.049 24.8172-158.367 25.5482-157.911 26.4607-157.735 27.445-157.738 27.7852-157.813 28.1211-157.954 28.4303ZM-158.684 36.8243C-159.305 35.3646-159.925 34.0506-160.546 32.9192-161.166 31.7878-162.626 29.5982-164.414 27.0799-164.648 26.7683-165.01 26.5802-165.399 26.5689-165.785 26.5703-166.154 26.7283-166.421 27.0069-166.703 27.2715-166.862 27.642-166.859 28.0288-166.833 28.352-166.706 28.6586-166.494 28.9047-165.326 30.547-164.195 32.3353-163.064 34.306-162.662 34.963-162.224 35.8024-161.677 36.8242L-161.458 37.5177C-161.072 38.0145-160.481 38.3097-159.852 38.3206-159.507 38.35-159.169 38.2145-158.94 37.9556-158.702 37.63-158.609 37.2205-158.684 36.8242ZM-135.181 25.474-139.524 25.474-139.524 7.99261C-139.874 6.63113-140.81 5.49498-142.079 4.89044-142.663 4.63513-143.275 4.45135-143.903 4.34303L-146.203 4.34303-149.633 5.03649C-150.318 5.15721-150.974 5.40478-151.567 5.7663-152.297 6.20423-152.662 6.71518-152.662 7.22623-152.646 7.60576-152.474 7.96198-152.188 8.21157-151.813 8.27039-151.431 8.27039-151.057 8.21157-150.266 8.15519-149.489 7.97035-148.757 7.66406-148.064 7.35935-147.323 7.1743-146.568 7.11665L-144.816 7.11665C-144.094 7.1016-143.412 7.44297-142.991 8.02917-142.796 8.31247-142.636 8.61887-142.516 8.94149L-142.516 25.2917-155.618 25.2917-156.093 25.5471C-156.343 25.8721-156.484 26.2685-156.494 26.6785-156.482 27.0551-156.34 27.416-156.093 27.7004-155.951 27.8318-155.791 27.9424-155.618 28.0289L-135.181 28.0289C-134.874 28.0324-134.586 27.8815-134.415 27.6274-134.222 27.3488-134.12 27.0174-134.123 26.6785-134.12 26.3334-134.208 25.9935-134.378 25.6932-134.557 25.4278-134.861 25.2754-135.181 25.2917ZM-136.787 33.9047-154.487 33.9047C-154.809 34.1031-155.044 34.4161-155.144 34.7806-155.161 35.0845-155.161 35.3891-155.144 35.6929L-154.451 36.6053-136.787 36.6053C-136.318 36.3278-136.017 35.8356-135.984 35.2915-136.005 34.8527-136.187 34.4369-136.495 34.1236ZM-190.071 19.6348-190.071 22.8464-199.669 22.8464-199.669 20.5472C-199.579 20.2665-199.4 20.0229-199.158 19.8538L-198.83 19.5982ZM-190.071 25.5471-190.071 28.9777-198.319 28.9777C-198.596 28.862-198.835 28.6726-199.012 28.4303-199.109 28.3248-199.184 28.2006-199.231 28.0653L-199.231 25.5471ZM-177.662 20.5472-177.662 22.8464-187.516 22.8464-187.516 19.5982-178.757 19.5982C-178.469 19.713-178.218 19.9019-178.027 20.1456L-178.027 20.5106ZM-177.662 25.5471-177.662 28.0653-178.575 28.9777-187.516 28.9777-187.516 25.5471ZM-173.283 10.9488-187.516 10.9488-187.516 4.12407C-187.614 3.83537-187.825 3.59839-188.1 3.46718-188.396 3.28276-188.737 3.18176-189.085 3.17519-189.666 3.11192-190.189 3.53162-190.252 4.11283-190.252 4.11654-190.253 4.12025-190.253 4.12407L-190.253 10.9488-204.523 10.9488C-204.979 11.2393-205.275 11.7242-205.326 12.2626-205.232 12.8161-204.948 13.3196-204.523 13.686L-190.253 13.686-190.253 16.8611-200.144 16.8611C-200.779 16.9364-201.344 17.2997-201.676 17.8465-201.824 18.1061-201.923 18.3905-201.968 18.6859L-201.968 29.8171C-201.8 30.3671-201.419 30.8271-200.91 31.0946-200.664 31.2161-200.408 31.314-200.144 31.3866L-193.939 31.3866-197.151 34.7806-198.465 36.0214C-198.913 36.4152-199.199 36.9615-199.268 37.5542-199.254 37.8677-199.153 38.1712-198.976 38.4302-198.716 38.5657-198.429 38.6406-198.136 38.6492-197.478 38.584-196.879 38.2381-196.494 37.7003-196.056 37.1893-195.582 36.6784-195.071 36.1674-194.648 35.7254-194.197 35.3109-193.72 34.9266-192.589 33.9778-192.041 33.1748-192.041 32.4449-192.052 32.0738-192.152 31.7106-192.333 31.3866L-185.436 31.3866-180.618 38.6857C-180.353 38.8391-180.049 38.915-179.742 38.9047-179.448 38.9101-179.157 38.8343-178.903 38.6857-178.675 38.5454-178.537 38.2965-178.538 38.0287-178.89 36.7697-179.485 35.5917-180.29 34.5618-181.076 33.5639-181.795 32.5153-182.443 31.423L-176.932 31.423C-176.363 31.3234-175.854 31.01-175.509 30.5472-175.334 30.3352-175.187 30.1022-175.071 29.8537L-175.071 18.7224C-175.24 18.0966-175.629 17.5526-176.166 17.1896-176.411 17.068-176.668 16.9701-176.932 16.8977L-187.516 16.8977-187.516 13.7226-173.283 13.7226C-172.995 13.5887-172.754 13.3728-172.589 13.1021-172.432 12.8097-172.345 12.485-172.334 12.1532-172.27 11.5721-172.69 11.0498-173.271 10.9865-173.275 10.9861-173.279 10.9857-173.283 10.9853Z" fill-rule="evenodd" transform="matrix(1 0 0 -1.00182 275.341 546.532)"/></g></svg>