<svg width="326" height="327" xmlns="http://www.w3.org/2000/svg" xmlns:xlink="http://www.w3.org/1999/xlink" xml:space="preserve" overflow="hidden"><defs><clipPath id="clip0"><rect x="131" y="723" width="326" height="327"/></clipPath></defs><g clip-path="url(#clip0)" transform="translate(-131 -723)"><path d="M0 0 277.035 0C290.491 0 301.4-10.9086 301.4-24.3651L301.4-301.4C301.4-314.856 290.491-325.765 277.035-325.765L0-325.765C-13.4564-325.765-24.3651-314.856-24.3651-301.4L-24.3651-24.3651C-24.3651-10.9086-13.4564 0 0 0" fill="#0F218B" transform="matrix(1.00052 0 0 -1 155.411 723.001)"/><path d="M0 0C-7.2942-0.0157996-13.199-5.93331-13.199-13.2275L-13.199-290.234C-13.199-297.523-7.28947-303.432 0-303.432L277.006-303.432C284.296-303.432 290.205-297.523 290.205-290.234L290.205-13.2275C290.205-5.93331 284.3-0.0157996 277.006 0ZM277.006-307.899 0-307.899C-9.75633-307.899-17.6654-299.99-17.6654-290.234L-17.6654-13.2275C-17.6654-3.47135-9.75633 4.43789 0 4.43789L277.006 4.43789C286.762 4.43789 294.671-3.47135 294.671-13.2275L294.671-290.234C294.671-299.99 286.762-307.899 277.006-307.899" fill="#FFFFFF" transform="matrix(1.00052 0 0 -1 155.439 734.138)"/><path d="M105.591 342.772 118.991 342.772 118.991 125.605 105.591 125.605Z" fill="#FFFFFF" transform="matrix(1.00052 0 0 -1 131.033 1120.06)"/><path d="M0 0 0-27.3141 42.1163-72.7231 42.1163-143.299 0-189.452 0-217.167-13.3994-217.167-13.3994-184.298 28.7171-138.145 28.7171-77.9625-13.3994-32.525-13.3994 1.38882e-14Z" fill="#FFFFFF" fill-rule="evenodd" transform="matrix(1.00052 0 0 -1 309.211 777.285)"/><path d="M122.198 25.9397 128.353 25.9397 128.353 31.666 122.198 31.666ZM132.19 5.89797 132.19 8.76095 118.533 8.76095 118.533 5.89797C118.533 5.01042 118.934 4.5809 120.05 4.5809L131.016 4.5809C131.664 4.56022 132.206 5.06874 132.227 5.71668 132.229 5.77727 132.226 5.83787 132.218 5.89797ZM132.19 12.0823 132.19 14.9454C132.292 15.6655 131.791 16.3322 131.071 16.4343 130.948 16.4516 130.824 16.4516 130.701 16.4343L119.878 16.4343C118.876 16.4343 118.418 15.8903 118.533 14.7736L118.533 11.9104ZM135.54 16.5775 135.54 4.86725C135.425 2.63397 134.471 1.46008 132.677 1.34573L118.361 1.34573C116.792 1.14637 115.359 2.25673 115.16 3.82545 115.123 4.1149 115.131 4.40841 115.183 4.69541L115.183 16.692C115.183 18.9251 116.185 20.0417 118.504 20.0417L132.533 20.0417C134.557 19.9653 135.568 18.8106 135.568 16.5775ZM122.198 38.9383 122.198 34.93 128.353 34.93 128.353 38.7665C128.251 39.4868 128.752 40.1533 129.472 40.2554 129.595 40.2727 129.719 40.2727 129.842 40.2554 130.675 40.3504 131.427 39.7523 131.522 38.9196 131.527 38.8688 131.531 38.8176 131.531 38.7665L131.531 34.93 136.198 34.93C137.859 33.8228 137.859 32.7636 136.198 31.752L131.56 31.752 131.56 26.0257 137.057 26.0257C137.92 25.9646 138.579 25.2297 138.546 24.3651 138.546 23.363 137.945 22.8763 137.057 22.8763L113.837 22.8763C112.721 22.8763 112.177 23.363 112.177 24.3651 112.177 25.3673 112.721 25.911 113.837 26.0257L119.019 26.0257 119.019 31.752 115.011 31.752C114.177 31.6728 113.436 32.2851 113.357 33.1194 113.353 33.1692 113.35 33.2194 113.35 33.2694 113.256 34.0861 113.841 34.8252 114.658 34.92 114.718 34.927 114.779 34.9303 114.839 34.93L119.019 34.93 119.019 38.9383C119.019 39.8259 119.506 40.3126 120.508 40.4272 121.384 40.4619 122.136 39.8101 122.226 38.9383ZM105.019 35.7602 110.974 35.7602C111.835 35.6857 112.495 34.9637 112.492 34.0996 112.492 33.0975 111.862 32.5822 110.974 32.5822L104.189 32.5822C103.645 31.0361 103.101 29.5473 102.528 28.0871L110.974 28.0871C111.812 28.0909 112.495 27.4144 112.498 26.5764 112.499 26.5264 112.496 26.4764 112.492 26.4264 112.593 25.6903 112.079 25.0109 111.343 24.9091 111.221 24.8922 111.097 24.8922 110.974 24.9091L106.365 24.9091 106.365 19.1828 111.547 19.1828C112.32 19.1828 112.749 18.4956 112.864 17.4937 112.978 16.4915 112.492 16.0048 111.719 16.0048L106.365 16.0048 106.365 5.98397C106.365 5.55445 106.365 5.32544 106.536 5.32544 106.84 5.3585 107.128 5.47757 107.367 5.66896 107.71 5.98397 108.312 6.5565 109.199 7.32954 109.657 7.87357 110.029 8.33176 110.373 8.67528 110.889 9.31573 111.826 9.41672 112.466 8.90103 112.549 8.83409 112.625 8.75835 112.692 8.67528 113.371 8.07799 113.448 7.04694 112.864 6.35616 111.079 4.54996 109.165 2.87552 107.138 1.34573 104.59 0.0286673 103.244 0.916213 103.158 4.00837L103.158 15.8616 99.2067 15.8616C98.3741 15.7667 97.6221 16.3648 97.5273 17.1973 97.5214 17.2483 97.5182 17.2992 97.5175 17.3506 97.5131 18.2203 98.1697 18.9512 99.0351 19.0396L103.043 19.0396 103.043 24.7659 100.867 24.7659C100.743 24.4185 100.569 24.0908 100.352 23.7926 99.9029 22.868 98.7894 22.4826 97.8649 22.9316L97.861 22.9335C97.1033 23.327 96.8081 24.2605 97.2017 25.0182 97.25 25.1114 97.308 25.1997 97.3745 25.2813 99.6231 29.5294 101.243 34.0815 102.184 38.7952 102.259 39.7092 103.06 40.3899 103.974 40.3157 104.046 40.3098 104.118 40.2992 104.189 40.2841 105.14 40.0438 105.733 39.0971 105.534 38.1366 105.43 37.3313 105.258 36.5363 105.019 35.7602" transform="matrix(1.00052 0 0 -1 131.033 1120.06)"/><path d="M0 0-1.51741-3.83669 18.8393-3.83669C20.0704-3.83669 20.7289-4.49506 20.8434-5.49712 20.9579-6.49917 20.0704-7.1577 18.8393-7.1577L-2.86315-7.1577-7.7304-16.835 1.80376-16.835 1.80376-11.1089C1.80376-10.2214 2.34779-9.73466 3.46434-9.62016 4.58107-9.50549 5.18226-10.2214 5.29677-11.1089L5.29677-16.835 17.1214-16.835C18.0863-16.8015 18.9064-17.5335 18.9825-18.4958 18.9825-19.6123 18.2953-20.185 17.2931-20.185L5.32544-20.185 5.32544-25.5103 20.328-25.5103C21.5593-25.5103 22.1605-26.2262 22.1605-27.3427 22.1605-28.4595 21.3874-28.8603 20.1564-28.8603L5.32544-28.8603 5.32544-36.5907C5.32804-37.5719 4.62944-38.4151 3.66485-38.5946 2.43362-38.5946 1.83243-38.2798 1.83243-37.2776L1.83243-28.6883-16.8637-28.6883C-17.8659-28.6883-18.2953-28.1156-18.2094-26.9992-18.179-26.0838-17.4359-25.3533-16.5202-25.3385L1.83243-25.3385 1.83243-19.8414-9.84917-19.8414C-11.9679-19.8414-12.5118-18.6103-11.5098-16.4915L-6.67117-6.98602-15.2604-6.98602C-16.1767-6.98602-16.6634-6.442-16.7779-5.32528-16.7953-4.45581-16.128-3.72561-15.2604-3.66469L-5.2681-3.66469-3.09216 1.34573C-2.85614 2.18262-1.98619 2.66997-1.14913 2.43379-1.06932 2.41131-0.991465 2.38264-0.916213 2.34779-0.0688992 2.09076 0.409649 1.19556 0.152621 0.34808 0.115646 0.226406 0.0645014 0.10962 0 0" transform="matrix(1.00052 0 0 -1 292.768 1081.46)"/><path d="M0 0 0-1.66059C-0.0789979-2.30413 0.378376-2.88986 1.02176-2.96902 1.07225-2.97521 1.12324-2.97798 1.17389-2.97765L16.6634-2.97765C17.312-2.66036 17.7545-2.0344 17.8372-1.31707L17.8372 -2.89337e-16ZM0 2.86298 17.8372 2.86298 17.8372 5.72613 0 5.72613ZM0 10.3932 0 8.73245 17.8372 8.73245 17.8372 10.3932C17.8372 11.3094 17.3504 11.7386 16.6634 11.7386L1.48891 11.7386C0.372186 11.7386-0.114506 11.3094 0 10.3932M6.01248 20.5857 10.9944 20.5857C11.3764 21.3956 11.8264 22.1714 12.3401 22.9048 12.6755 23.5497 13.0684 24.1629 13.514 24.7373 13.938 25.5919 14.9546 25.9683 15.833 25.5963 16.6075 25.2365 16.9435 24.317 16.5837 23.5427 16.5643 23.5008 16.5431 23.4601 16.5202 23.4202 16.117 22.7775 15.6673 22.1649 15.1744 21.5878 14.9164 21.2807 14.6956 20.9444 14.5159 20.5857L22.3321 20.5857C23.2163 20.5711 23.9338 19.8661 23.9642 18.9825 23.9642 17.9804 23.506 17.4651 22.6185 17.4651L10.164 17.4651C10.0235 17.0051 9.85112 16.5555 9.64866 16.1193 9.51249 15.6115 9.34033 15.1139 9.1333 14.6304L17.7227 14.6304C19.8414 14.6304 20.9007 13.4565 20.9007 11.1374L20.9007-2.89181C20.9007-5.21077 19.8987-6.32749 18.0376-6.21298L0.658533-6.21298C-2.00427-6.21298-3.2925-5.2681-3.178-3.06365L-3.178 11.2521C-3.178 13.342-2.06144 14.4587 0.171841 14.5732L5.1536 14.5732C5.66179 15.3851 6.00254 16.2905 6.15565 17.2359L-4.35189 17.2359C-5.07183 17.1315-5.73997 17.6301-5.84454 18.35-5.86409 18.4837-5.86262 18.6199-5.84064 18.7535-5.9356 19.57-5.35052 20.3093-4.53367 20.4041-4.4734 20.4111-4.41265 20.4144-4.35189 20.4139L2.31912 20.4139C2.11877 20.6429 1.71792 21.0724 1.17389 21.7309 0.757077 22.0434 0.415024 22.4444 0.171841 22.9048-0.394827 23.3857-0.46454 24.2349 0.016614 24.8016 0.109783 24.9116 0.22038 25.0059 0.343519 25.0808 1.18872 25.5375 2.23996 25.3201 2.83448 24.5654 4.01 23.336 5.07346 22.0041 6.01248 20.5857M-11.6814 23.592C-9.74313 21.6026-8.00713 19.4255-6.49917 17.0927-6.02046 16.2739-6.16216 15.2339-6.84285 14.5732-7.53021 14.0667-8.49822 14.2134-9.00462 14.9008-9.08004 15.0029-9.14242 15.1142-9.19064 15.2318-10.6501 17.5006-12.3178 19.6286-14.1724 21.5878-14.8127 22.0779-14.9345 22.9944-14.4446 23.6349-14.3662 23.737-14.2747 23.8287-14.1724 23.9069-13.3625 24.3582-12.3535 24.2307-11.6814 23.592M6.49917-9.27647 22.3321-9.27647C23.4489-9.27647 24.1361-9.706 24.3364-10.6222 24.2608-11.5731 23.458-12.301 22.504-12.2828L6.15565-12.2828C-1.05939-12.1683-5.88836-10.4409-8.33159-7.10053-9.63482-8.93214-11.3136-10.4645-13.2562-11.5956-14.3727-12.1681-15.2031-11.9963-15.7758-11.1089-16.2706-10.4522-16.1394-9.51868-15.4828-9.02384-15.3147-8.89729-15.1218-8.8077-14.9168-8.76112-11.5954-6.87152-9.99234-4.72408-10.0782-2.26195L-10.0782 5.89813C-10.0782 6.78552-10.6507 7.2437-11.7673 7.2437L-14.9168 7.2437C-15.833 7.2437-16.3197 7.78773-16.4342 8.90429-16.5133 9.73874-15.9011 10.479-15.0666 10.5582-15.0168 10.5629-14.9669 10.565-14.9168 10.5649L-9.763 10.5649C-7.98808 10.5649-6.90002 9.41965-6.90002 7.41538L-6.90002-1.94693C-6.7474-6.73779-2.281-9.18103 6.49917-9.27647" transform="matrix(1.00052 0 0 -1 335.537 1105.54)"/></g></svg>