<svg width="327" height="290" xmlns="http://www.w3.org/2000/svg" xmlns:xlink="http://www.w3.org/1999/xlink" xml:space="preserve" overflow="hidden"><defs><clipPath id="clip0"><rect x="92" y="0" width="327" height="290"/></clipPath></defs><g clip-path="url(#clip0)" transform="translate(-92 0)"><path d="M0 0-302.766 0C-315.668 2.42761-315.128 15.1496-306.137 30.8833L-163.273 280.603C-157.879 288.965-144.393 294.359-136.301 280.603L3.68619 36.1879C13.2163 21.3532 21.9375-0.269698 0 0" fill="#FFCC01" fill-rule="evenodd" transform="matrix(1 0 0 -1.00076 404.898 289.409)"/><path d="M0 0-10.3843 0C-10.4183-0.222133-10.4947-0.435929-10.6092-0.629458-8.9466-3.83837-6.80978-6.7784-4.2707-9.3505-2.08599-7.16987-0.291764-4.63063 1.034-1.8431 1.26676-1.43986 1.26676-0.942797 1.034-0.539395 1.034-0.134849 0.674244 5.80702e-16 0.134849 5.80702e-16ZM-13.0367-27.9165-13.0367-36.9074C-13.0367-37.8963-12.6321-38.3907-11.8678-38.3907L0.584345-38.3907C1.61835-38.3907 2.11279-37.8064 2.11279-36.6826L2.11279-27.6917C2.21888-26.8542 1.62587-26.0894 0.788334-25.9835 0.660841-25.9673 0.53204-25.9673 0.404546-25.9835L-11.3734-25.9835C-12.4523-25.7587-13.0367-26.4779-12.9018-27.9165ZM5.7542-26.2082 5.7542-38.1212C5.7542-40.9532 4.6303-42.3018 1.933-42.167L-12.722-42.167C-15.6439-42.4367-16.9027-41.088-16.5431-38.1212L-16.5431-25.9835C-16.8128-23.1365-15.5991-21.7878-12.9018-21.9377L2.06785-21.9377C4.6303-21.9375 5.88889-23.3761 5.88889-26.2082ZM-8.63114 4.04595 3.0569 4.04595C5.90393 4.04595 6.80308 2.54742 5.75404-0.449496 4.22641-4.89411 1.66951-8.91457-1.70825-12.1825 1.30092-14.4486 4.67639-16.182 8.27154-17.3074 9.26043-17.7118 9.66514-18.656 9.39528-20.0495 9.12575-21.4431 8.27154-21.9825 7.10269-21.533 2.84555-20.1994-1.13126-18.0969-4.6303-15.3293-8.4095-17.8548-12.4671-19.9365-16.7229-21.533-17.7093-22.0023-18.8895-21.5833-19.3589-20.5969-19.3813-20.5501-19.4017-20.5026-19.4202-20.4542-19.973-19.4547-19.6108-18.1964-18.6114-17.6436-18.4967-17.5802-18.3761-17.5277-18.2513-17.487-14.5625-16.182-11.0334-14.4628-7.73215-12.3623-9.85622-10.0548-11.656-7.46866-13.0816-4.67525L-13.4862-5.12474C-14.3512-6.58307-15.3765-7.94006-16.5431-9.17054-17.8018-10.2944-18.9257-10.4293-19.7798-9.57508-20.634-8.72104-20.4542-7.46229-19.4202-6.15875-16.3589-2.61182-13.8987 1.41256-12.1375 5.7542-11.5981 7.19275-10.7439 7.5973-9.4404 7.01279-8.43369 6.39478-8.03192 5.1321-8.49629 4.04595ZM-32.4119 0.224748-32.4119-6.33838C-32.4119-7.5973-32.0074-8.18164-30.8835-8.0468L-25.4889-8.0468C-24.5899-8.0468-24.1404-7.55219-24.1404-6.56313L-24.1404 0.449659C-24.0585 1.18977-24.5925 1.85617-25.3328 1.93806-25.4446 1.95049-25.5574 1.94869-25.6687 1.933L-30.7486 1.933C-31.482 2.06261-32.1816 1.57291-32.3112 0.839495-32.3474 0.634688-32.3358 0.424324-32.2771 0.224748ZM-23.4212-11.9128-25.534-11.9128-25.534-20.2293-20.3641-20.2293C-19.4651-20.2293-18.9705-21.0833-18.8358-22.3421-18.701-23.6008-19.4651-24.2752-20.3641-24.2752L-25.534-24.2752-25.534-35.5587C-23.7184-35.0249-21.9326-34.3948-20.1843-33.6705-19.2853-33.6705-18.6559-33.9853-18.2513-35.154-17.8468-36.3229-18.2513-36.9973-19.0155-37.267-24.5412-39.3453-30.2653-40.8518-36.0981-41.7623-37.267-41.7623-37.9412-41.133-38.2109-39.8293-38.4806-38.5256-37.8064-37.9412-36.6825-37.9412-36.1145-37.7461-35.4974-37.7461-34.9293-37.9412L-34.9293-19.9596C-35.0577-19.025-34.4043-18.1631-33.4696-18.0346-33.4468-18.0315-33.4239-18.0289-33.4008-18.0266-32.4317-18.16-31.7058-18.9815-31.6927-19.9596L-31.6927-37.4468-30.434-37.4468C-29.9155-37.4554-29.3993-37.3796-28.9055-37.222L-28.9055-12.4973-32.5468-12.4973C-34.7495-12.9468-35.6936-11.5082-35.4239-8.22659L-35.4239 2.15774C-35.6936 4.7202-34.6596 5.88889-32.367 5.7542L-24.1404 5.7542C-21.7128 5.7542-20.5439 4.5404-20.6789 2.15774L-20.6789-8.49629C-20.634-11.0586-21.4431-12.1825-23.4212-11.9128" transform="matrix(1 0 0 -1.00076 192.58 320.181)"/><path d="M0 0 0 23.2412C0 24.5-0.494446 25.2192-1.12374 25.354L-6.11364 25.354-6.11364-1.88805-1.3037-1.88805C-0.674244-1.75336-0.314647-1.1239-0.179798 0ZM-24.7247-1.88821-9.75504-1.88821-9.75504 5.12474-24.9045 5.12474ZM-9.75504 15.554-24.9047 15.554-24.9047 8.94579-9.75504 8.94579ZM-24.7247 19.6-9.75504 19.6-9.75504 25.354-24.9045 25.354ZM-33.7156-1.88805-28.7256-1.88805-28.7256 25.354-33.7156 25.354C-34.4598 25.3812-35.0852 24.7998-35.1123 24.0554-35.1174 23.9173-35.1012 23.779-35.0641 23.6458L-35.0641 0C-35.0641-1.25875-34.6146-1.88805-33.7156-1.88805M-38.7054 39.0202 3.10185 39.0202C4.07456 38.8379 4.74145 37.9357 4.6303 36.9522 4.6303 35.6936 4.04579 35.0641 2.92205 35.0641L-15.9136 35.0641C-16.4082 33.4909-17.1274 31.6476-18.0266 29.4899L-0.359597 29.4899C1.77379 29.5762 3.57325 27.9168 3.65971 25.7834 3.6674 25.5951 3.66119 25.4067 3.64124 25.2193L3.64124-2.0229C3.64124-4.18064 2.20286-5.30454-0.359597-5.43939L-34.4798-5.43939C-37.7165-5.43939-38.9752-4.3606-38.9752-1.79815L-38.9752 25.354C-38.9752 28.0513-37.5816 29.4-34.7944 29.4L-22.3421 29.4C-21.3511 31.1857-20.5091 33.0501-19.8247 34.9744L-38.7054 34.9744C-39.7407 34.8502-40.6807 35.5886-40.8049 36.624-40.8144 36.7031-40.8188 36.7827-40.8183 36.8623-40.8186 38.0367-39.8796 38.9957-38.7054 39.0202" transform="matrix(1 0 0 -1.00076 247.424 354.507)"/><path d="M0 0 0-2.33771C0-3.59629 0.314647-4.2707 1.34865-4.2707L16.9027-4.2707C17.8018-4.2707 18.2964-3.82121 18.4311-2.56245L18.4311 0.449496C18.2969 1.31106 17.55 1.94346 16.6779 1.933L1.7532 1.933C0.584345 1.933 0 1.43855 0 0M-2.29259 21.9375-2.29259 19.8247C-2.29259 18.8357-1.88805 18.386-0.764307 18.566L19.1954 18.566C20.0946 18.3862 20.5441 18.8806 20.5441 20.0495L20.5441 21.9375C20.5441 22.9715 20.2294 23.4658 19.555 23.4658L-0.943942 23.4658C-1.97811 23.2862-2.42761 22.7916-2.29259 21.9375M-0.179798 5.34949 18.2513 5.34949C20.7688 5.34949 21.9825 4.18064 21.8926 1.48334L21.8926-3.82121C21.8926-6.24865 20.8587-7.46245 18.7909-7.46245L-0.359597-7.46245C-2.7872-7.46245-3.86599-6.60841-3.64124-4.45066L-3.64124 1.70808C-3.86599 4.27054-2.74209 5.48434-0.179798 5.34949M-2.29259 26.8374 20.5441 26.8374C23.3311 26.8374 24.6348 25.9384 24.365 23.6458L24.365 17.8917C24.365 15.7788 23.3311 14.7897 21.3082 14.9247L-2.96684 14.9247C-5.12491 14.9247-6.15875 16.1835-6.0239 19.4202L-6.0239 23.9155C-6.08389 25.8633-4.84001 26.8374-2.29259 26.8374M-8.40639 12.3623 26.4779 12.3623C29.4 12.3623 30.9734 10.8788 30.7037 7.46229L30.7037-8.09175C30.7037-13.0367 27.5118-14.3404 20.3193-11.913 19.4418-11.4947 18.974-10.5218 19.1954-9.57525 19.555-8.31666 20.2294-7.7771 21.1284-8.09175 25.3092-9.66514 27.2422-9.30555 26.8826-7.01279L26.8826 6.4734C26.8826 7.77693 26.2981 8.40639 25.1293 8.40639L-6.33855 8.40639C-7.867 8.40639-8.58619 7.82188-8.45134 6.29343L-8.45134-10.5643C-8.47112-11.5324-9.27188-12.3012-10.2398-12.2815-10.2881-12.2804-10.3363-12.2775-10.3843-12.2725-11.6431-12.2725-12.2724-11.5534-12.2724-10.5643L-12.2724 7.41734C-11.9577 10.7439-10.9687 12.3623-8.40639 12.3623M29.9394 29.8495-11.688 29.8495C-12.722 29.8495-13.2614 30.4788-13.3963 31.7375-13.5311 32.9961-12.722 33.7604-11.688 33.8953L6.2936 33.8953C5.90311 34.6233 5.64436 35.4147 5.52929 36.233 4.90016 37.0645 5.06427 38.2487 5.89592 38.8778 5.96522 38.9301 6.03796 38.9777 6.1138 39.0202 7.20763 39.4514 8.45036 38.9854 8.9909 37.9412 9.16302 37.1374 9.41915 36.3538 9.75504 35.6035 10.1596 34.7495 10.3843 34.1651 10.5192 33.8953L29.7146 33.8953C30.7037 33.8953 31.288 33.0412 31.4229 31.7375 31.5577 30.4338 30.9284 29.8495 29.9394 29.8495" transform="matrix(1 0 0 -1.00076 273.003 350.458)"/><path d="M0 0 0-12.5421C0-16.2734-1.34865-17.9365-4.001-17.667L-7.6872-17.667C-8.94579-17.667-9.5303-18.1614-9.39528-19.1505L-9.39528-34.5247C-9.39528-36.0532-8.76615-36.8623-7.10269-36.8623L25.3091-36.8623C26.7027-36.8623 27.422-36.0082 27.422-34.3L27.422-18.9707C27.422-17.8017 26.9725-17.2623 26.0734-17.2623L21.8476-17.2623C18.9256-17.667 17.3522-16.0936 17.8468-12.5421L17.8468 0.224748C17.8468 1.07895 17.3973 1.4835 16.4981 1.4835L1.52845 1.4835C0.404546 1.4835-0.134849 0.989055 0 0M21.6678 1.4835 21.6678-11.2833C21.6678-12.5421 22.1173-13.1266 23.421-12.9916L27.2421-12.9916C30.0293-12.9916 31.3779-14.3853 31.2431-17.487L31.2431-36.233C31.2431-39.3798 29.9843-40.7284 27.0623-40.7284L-8.45134-40.7284C-11.8678-40.7284-13.4864-39.4697-13.2165-36.233L-13.2165-17.667C-13.4864-14.565-12.1377-13.1715-9.21565-13.1715L-5.34966-13.1715C-4.3606-13.1715-3.82121-12.722-3.82121-11.4633L-3.82121 1.4835C-3.82121 4.3606-2.6973 5.97895 0 5.97895L17.4421 5.97895C20.4091 5.88889 21.8027 4.49545 21.6678 1.4835" transform="matrix(1 0 0 -1.00076 325.24 320.181)"/><path d="M0 0-134.862-233.761 134.862-233.761ZM149.877-257.632-152.889-257.632C-165.791-255.204-165.251-242.482-156.26-226.748L-13.3963 22.9715C-8.00185 31.333 5.48434 36.7276 13.5761 22.9715L153.563-221.444C163.093-236.413 171.814-257.902 150.057-257.407Z" fill-rule="evenodd" transform="matrix(1 0 0 -1.00076 255.021 31.5815)"/><path d="M0 0 269.095 0 134.592 233.312ZM269.725-0.359597-0.539395-0.359597 134.592 234.031 134.592 233.761ZM135.447 264.869C129.673 264.546 124.42 261.425 121.376 256.508L-21.488 6.83299C-27.5119-3.68636-29.4449-12.4074-26.9725-17.8018-25.2618-21.1399-21.9817-23.3888-18.2513-23.7808L285.009-23.7808C290.988-23.7808 294.944-22.1175 296.787-18.7458 301.282-10.5192 292.291 5.57424 288.021 12.0924L147.809 256.553C145.609 261.314 140.993 264.501 135.761 264.869ZM285.009-24.1404-18.2964-24.1404C-22.1551-23.7412-25.5443-21.4025-27.2872-17.9367-29.8495-12.4525-27.8715-3.59646-21.8028 7.01263L121.061 256.733C124.17 261.756 129.547 264.932 135.447 265.229L135.761 265.229C141.149 264.906 145.92 261.639 148.169 256.733L288.336 12.3173C292.516 5.70909 301.822-10.5643 297.326-18.9257 294.546-22.8648 289.772-24.8859 285.009-24.1404" transform="matrix(1 0 0 -1.00076 120.429 265.43)"/><path d="M0 0C-12.157 14.6882-30.3894 22.9756-49.4495 22.4771-68.5071 22.9622-86.7336 14.6774-98.8991 0L-137.515 0-137.515-20.7239 37.5365-20.7239 37.5365 0Z" fill-rule="evenodd" transform="matrix(1 0 0 -1.00076 305.415 219.947)"/></g></svg>