<svg width="328" height="290" xmlns="http://www.w3.org/2000/svg" xmlns:xlink="http://www.w3.org/1999/xlink" xml:space="preserve" overflow="hidden"><defs><clipPath id="clip0"><rect x="196" y="53" width="328" height="290"/></clipPath></defs><g clip-path="url(#clip0)" transform="translate(-196 -53)"><path d="M0 0-303.049 0C-315.963 2.42972-315.423 15.1637-306.424 30.9122L-163.426 280.866C-158.027 289.235-144.528 294.68-136.429 280.866L3.68965 36.2219C13.2287 21.2382 21.9581-0.26995 0 0" fill="#FFCC01" fill-rule="evenodd" transform="matrix(1.0023 0 0 -1 509.883 342.505)"/><path d="M0 0-134.989-233.98 134.989-233.98ZM150.017-257.918-153.032-257.918C-165.946-255.488-165.406-242.754-156.407-227.006L-13.4088 22.9481C-8.00934 31.3173 5.48948 36.762 13.5888 22.9481L153.707-221.696C163.246-236.68 171.975-258.188 150.197-257.693Z" fill-rule="evenodd" transform="matrix(1.0023 0 0 -1 359.52 84.5867)"/><path d="M0 0 269.347 0 134.719 233.62ZM269.977-0.359934-0.5399-0.359934 134.719 234.43 134.719 234.16ZM135.574 265.118C129.8 264.812 124.541 261.703 121.49 256.793L-21.5082 6.97453C-27.5377-3.55467-29.4725-12.2839-26.9978-17.6835-25.2855-21.0247-22.0023-23.2756-18.2684-23.6679L285.276-23.6679C289.839-24.3242 294.386-22.38 297.065-18.6284 301.565-10.3941 292.565 5.7146 288.291 12.284L147.947 256.928C145.708 261.641 141.095 264.775 135.889 265.118ZM285.276-24.0279-18.3136-24.0279C-22.1758-23.6283-25.5682-21.2876-27.3127-17.8184-29.8774-12.3289-27.8976-3.46469-21.8233 7.15434L121.175 257.108C124.276 262.153 129.66 265.35 135.574 265.658L135.889 265.658C141.281 265.334 146.056 262.064 148.307 257.153L288.606 12.464C292.79 5.84958 302.104-10.3941 297.605-18.8083 294.822-22.7512 290.044-24.7741 285.276-24.0279" transform="matrix(1.0023 0 0 -1 224.491 318.657)"/><path d="M0 0-238.75 0-132.379 185.339C-127.879 179.85-124.504 174-128.599 165.451-125.314 160.951-125.719 156.002-129.859 150.512-129.229 147.633-130.984 144.393-127.969 141.963-129.349 134.464-125.944 125.914-117.755 116.315-117.755 105.786-115.505 99.8914-111.186 98.5866-108.351 96.2469-108.126 88.7775-110.601 76.0885-108.241 72.3246-107.434 67.7915-108.351 63.4447-102.241 48.7573-99.4593 32.8988-100.207 17.0085L-10.754 17.0085Z" fill-rule="evenodd" transform="matrix(1.0023 0 0 -1 479.531 310.018)"/><path d="M0 0 238.075 0 227.591 16.6036 138.228 16.6036 138.228 16.8285C139.019 32.7028 136.252 48.5528 130.129 63.2197 131.013 67.5178 130.225 71.9916 127.924 75.7286 130.309 88.1476 130.129 95.6169 127.384 97.9118 122.885 99.2615 120.77 105.246 120.725 115.91 112.581 125.404 109.161 133.909 110.466 141.513 108.919 142.978 108.253 145.147 108.711 147.228 108.823 148.184 108.823 149.151 108.711 150.107 112.805 155.507 113.21 160.456 110.016 164.821 114.11 173.46 110.331 179.4 106.371 184.304ZM238.75 0-0.630048 0-0.630048 0.26995 106.011 185.654C110.106 180.705 114.065 174.63 109.881 165.676 113.12 161.176 112.67 156.182 108.576 150.692 108.689 149.721 108.689 148.739 108.576 147.767 108.104 145.776 108.76 143.687 110.286 142.323 108.936 134.899 112.355 126.304 120.455 116.855 120.455 106.461 122.705 100.566 126.889 99.3065 129.859 96.9218 130.084 89.5423 127.609 76.8085 129.934 73.0143 130.723 68.4756 129.814 64.1196 136.109 49.3225 138.985 33.2962 138.228 17.2336L227.816 17.2336Z" transform="matrix(1.0023 0 0 -1 240.546 310.018)"/><path d="M0 0C3.98365-0.372531 7.51492 2.55471 7.88745 6.53836 8.25982 10.522 5.33258 14.0533 1.3491 14.4258-2.63455 14.7983-6.16599 11.8711-6.53852 7.88745-6.55701 7.68867-6.56748 7.48907-6.56944 7.28931-6.79686 3.49397-3.9043 0.232975-0.108962 0.00572622-0.0726411 0.00343573-0.0364842 0.00163606 0 0" fill-rule="evenodd" transform="matrix(1.0023 0 0 -1 401.012 227.315)"/><path d="M0 0C-3.88368 0.372368-7.33397-2.47422-7.70651-6.3579-8.07871-10.2417-5.23213-13.6919-1.34844-14.0642 2.53524-14.4366 5.98553-11.5902 6.3579-7.70634 6.38277-7.44817 6.39308-7.18869 6.38948-6.92938 6.49222-3.26869 3.65709-0.193873 0 0M0-14.3988C-4.08345-14.7713-7.69571-11.7631-8.06824-7.67967-8.44093-3.59623-5.43254 0.0160334-1.3491 0.388565 2.73419 0.761096 6.34645-2.24713 6.71898-6.33058 6.7373-6.52969 6.74728-6.72945 6.74941-6.92938 6.95294-10.8505 3.93931-14.1943 0.0181603-14.3978 0.0121069-14.3982 0.00605343-14.3985 0-14.3988" transform="matrix(1.0023 0 0 -1 401.012 213.096)"/><path d="M0 0C-4.22971-3.77963-10.529-2.29474-12.689-11.3391-12.689-18.2234-8.59423-22.453 0-23.9379Z" fill-rule="evenodd" transform="matrix(1.0023 0 0 -1 408.002 241.938)"/><path d="M0 0C-1.37053-1.01796-2.88765-1.82208-4.4995-2.38472-8.6137-3.41921-11.7235-6.79407-12.4189-10.979-12.4189-17.6384-8.41427-21.8233-0.0899834-23.308ZM0.360097-23.533 0.360097-23.533C-8.32428-22.0031-12.6438-17.7284-12.5088-10.754-11.7808-6.43856-8.62499-2.93199-4.40951-1.755-2.77558-1.1603-1.25421-0.293019 0.090147 0.809851L0.360097 1.07996Z" transform="matrix(1.0023 0 0 -1 407.822 242.523)"/><path d="M0 0 5.57963 3.32971C7.42429 4.45467 10.574 2.69967 12.599-0.585056L20.2032-12.9139C22.228-16.1987 22.363-19.7983 20.5182-20.8783L14.9387-24.253C13.0939-25.3779 9.94415-23.5781 7.91919-20.2934L0.314942-7.96435C-1.70985-4.90459-1.84482-1.12496 0 0" fill-rule="evenodd" transform="matrix(1.0023 0 0 -1 370.795 183.623)"/><path d="M0 0C-0.573931-0.361733-0.966749-0.950879-1.07996-1.61986-1.3401-3.75165-0.82932-5.90618 0.359934-7.69424L8.09933-20.0233C10.0341-23.218 13.0939-24.9728 14.8489-23.893L20.4284-20.5633C20.9908-20.1898 21.3799-19.6062 21.5083-18.9433 21.7919-16.7899 21.2624-14.6079 20.0234-12.8238L12.419-0.494909C10.4392 2.69983 7.42445 4.45467 5.66961 3.37471ZM13.499-24.5679C10.9194-24.1156 8.72087-22.4373 7.60425-20.0683L0-7.8742C-1.28578-6.02545-1.83157-3.76163-1.52988-1.52988-1.38018-0.768295-0.924702-0.101599-0.269787 0.314942L5.30951 3.68965C7.24432 4.85959 10.4842 3.05976 12.554-0.314942L20.1584-12.644C21.4237-14.5173 21.938-16.7983 21.5983-19.0333 21.4486-19.7949 20.993-20.4616 20.3384-20.8781L14.7588-24.2078C14.3816-24.4455 13.9445-24.5704 13.499-24.5679" transform="matrix(1.0023 0 0 -1 370.975 183.803)"/><path d="M0 0 3.55484 3.32971C4.76961 4.40968 7.37946 3.32971 9.31426 1.30492L17.0537-6.97437C18.9885-9.17913 19.5734-11.834 18.3584-12.8689L14.6689-16.1537C13.454-17.1886 10.8441-16.1537 8.90934-14.1287L1.30492-5.93956C-0.629884-3.73464-1.25993-1.16978 0 0" fill-rule="evenodd" transform="matrix(1.0023 0 0 -1 352.98 151.361)"/><path d="M0 0C-0.357152-0.356989-0.552334-0.845026-0.5399-1.34975-0.525339-3.0398 0.153463-4.65591 1.34991-5.84941L8.72921-14.0387C10.5742-16.1085 13.2289-17.0535 14.2187-16.0637L17.9535-12.7788C18.2995-12.4328 18.4936-11.9634 18.4934-11.474 18.4788-9.78414 17.8-8.16788 16.6036-6.97437L9.22428 1.21494C7.37929 3.28472 4.72462 4.22971 3.73464 3.23973ZM13.0037-16.6486C11.2311-16.4326 9.61481-15.5274 8.50425-14.1287L1.12479-5.8944C-0.0734592-4.69419-0.779747-3.08921-0.855006-1.39474-0.867931-0.797089-0.621867-0.222832-0.179967 0.179967L3.46469 3.46469C4.76961 4.58964 7.46928 3.68965 9.49423 1.4399L16.9637-6.74941C18.1621-7.94963 18.8682-9.5546 18.9433-11.2491 18.9279-11.8277 18.6856-12.3773 18.2684-12.7788L14.5786-16.0637C14.1442-16.4468 13.5831-16.6553 13.0037-16.6486" transform="matrix(1.0023 0 0 -1 353.071 151.496)"/><path d="M0 0 0 18.9885-0.719867 20.3832-27.7177 20.3832-29.1124 18.3134-29.1124 0.314942-28.0326-1.03497-1.30492-1.03497C-0.890345-1.03301-0.496872-0.852715-0.224959-0.540064ZM6.61444 42.2065C7.42674 42.0507 8.00149 41.3225 7.96435 40.4965 7.95993 39.9327 7.75232 39.3895 7.37929 38.9667 7.00415 38.5032 6.47913 38.185 5.8944 38.0667L-17.0986 38.0667C-18.6964 34.7459-20.5782 31.5695-22.7231 28.5727-23.488 27.5375-24.5229 26.2328-25.7829 24.7029L1.97996 24.7029C2.96913 24.4403 3.81202 23.7919 4.31953 22.9029 4.51913 22.4867 4.66998 22.0489 4.76961 21.5981L4.76961-1.39491 4.09457-3.46485C4.09457-4.00475 3.46469-4.36469 2.56485-4.63464 2.00254-4.73918 1.4574-4.92095 0.944826-5.1747L-30.5975-5.1747C-31.4443-4.91538-32.1555-4.3336-32.5773-3.55484-32.7854-3.2057-32.9372-2.82597-33.0272-2.42988L-33.0272 17.1435-38.9667 12.0139C-39.2627 11.7836-39.6264 11.6571-40.0015 11.6538-40.6233 11.6533-41.2206 11.8955-41.6664 12.3289-42.1369 12.7187-42.4159 13.293-42.4314 13.9037-42.4326 14.3988-42.1538 14.8517-41.7114 15.0737-37.7966 18.6284-35.2769 20.9233-34.1971 21.9581-31.7635 24.271-29.4792 26.7355-27.3577 29.3374-25.2227 32.0349-23.3965 34.9628-21.9131 38.0667L-39.9116 38.0667C-40.5588 38.3-41.048 38.8395-41.2165 39.5066-41.2499 39.8357-41.2499 40.1674-41.2165 40.4965-40.9763 41.1779-40.4503 41.7204-39.7766 41.9815L-38.7866 41.9815ZM-59.305-1.39491C-59.2722-1.58862-59.2722-1.78625-59.305-1.97996-59.4962-2.35806-59.8403-2.63635-60.2499-2.74482L-77.7085-2.74482C-77.9317-2.78441-78.1601-2.78441-78.3834-2.74482-78.849-2.5251-79.1342-2.04393-79.1033-1.53005L-79.1033 4.63447C-79.119 4.87432-79.119 5.11482-79.1033 5.3545-78.8798 5.81178-78.3947 6.08124-77.8883 6.02954L-60.5199 6.02954-59.9798 5.75943C-59.6498 5.4813-59.4671 5.0659-59.4849 4.63464L-59.4849-1.53005ZM-63.0846 26.7727C-63.1026 27.0515-63.2323 27.3111-63.4447 27.4925L-63.8046 27.8077-75.5936 27.8077-76.9885 26.7727C-75.5635 25.107-73.9647 23.5986-72.2189 22.273L-69.6992 20.6082C-68.0294 21.7215-66.5161 23.0531-65.1995 24.5678-64.7045 25.1078-64.0746 25.8277-63.3097 26.8177ZM-88.3724 10.844C-88.365 11.2707-88.5667 11.674-88.9124 11.9239-89.2915 12.1571-89.7274 12.2814-90.1724 12.2839-90.666 12.2811-91.1489 12.1411-91.5673 11.879-91.9401 11.6643-92.1777 11.2739-92.1972 10.844L-93.232 8.09933C-93.952 6.52445-94.5819 5.26452-95.077 4.27454-96.6518 1.12496-98.0917-1.57487-99.5766-3.91477-99.8029-4.95907-99.1395-5.98897-98.0952-6.21524-97.9167-6.25401-97.7338-6.2671-97.5518-6.2545-96.5546-6.28526-95.6149-5.7897-95.077-4.94958-92.4221-0.0449917-90.8023 3.10475-90.2624 4.49966-89.4237 6.53934-88.8198 8.66769-88.4625 10.844ZM-89.4073 15.3436C-89.2444 15.5441-89.094 15.7545-88.9574 15.9737-88.6654 16.4138-88.509 16.9301-88.5075 17.4586-88.437 17.7846-88.437 18.1223-88.5075 18.4484-88.6562 18.8376-88.8864 19.1904-89.1824 19.4834-90.5356 20.1538-91.8299 20.9364-93.0522 21.8231-94.2591 22.7598-95.7137 23.3229-97.2367 23.443-97.686 23.4811-98.1375 23.4811-98.5866 23.443-98.5986 23.3083-98.5986 23.1729-98.5866 23.038-98.6275 22.7094-98.6275 22.3767-98.5866 22.0482-98.593 21.5842-98.5011 21.124-98.3167 20.6983-98.0939 20.2495-97.7305 19.886-97.2817 19.6633L-93.3671 17.1886C-92.0056 16.3138-90.4705 15.7458-88.8676 15.5236ZM-55.0303-3.86961-55.0303 7.78422C-55.1284 8.22105-55.2796 8.64413-55.4802 9.04415-55.9839 9.8792-56.8502 10.4289-57.8201 10.529L-80.3182 10.529-80.8131 10.529C-81.5368 10.2655-82.1962 9.85155-82.7479 9.31426L-83.0629 7.91936-83.0629-3.73464C-82.965-4.17147-82.8139-4.59455-82.613-4.99457-82.1189-5.81784-81.2715-6.36592-80.3182-6.47946L-57.8201-6.47946C-57.3693-6.37982-56.9315-6.22898-56.5153-6.02954-55.7059-5.52105-55.1626-4.6811-55.0303-3.73464ZM-86.9776 28.3925C-88.01 29.5268-89.2087 30.4977-90.5323 31.2723L-94.2671 33.5671-95.2569 33.5671C-95.9279 33.4059-96.4706 32.9141-96.6968 32.2622-96.2474 30.2634-94.8793 28.5948-93.007 27.7625-92.0193 27.2162-91.072 26.5996-90.1724 25.9178-89.8303 25.5991-89.38 25.4223-88.9124 25.4229-88.259 25.4257-87.6254 25.6477-87.1126 26.0527-86.4168 26.4869-86.2044 27.4026-86.6386 28.0984-86.7584 28.2906-86.9205 28.4528-87.1126 28.5725ZM-51.2056 14.8937C-50.3686 14.7376-49.7739 13.9896-49.8107 13.1389-49.8341 12.5839-50.0579 12.0563-50.4408 11.6538-50.8069 11.202-51.3138 10.885-51.8805 10.754-54.9524 11.0814-57.9737 11.7764-60.8798 12.8239-62.0948 13.2287-64.8844 14.3988-69.1591 16.2436-72.4496 14.4013-75.9167 12.8941-79.5084 11.744-80.7681 11.3391-82.433 10.844-84.4128 10.3491L-86.1678 10.3491C-87.1126 10.3491-87.5625 10.979-87.5625 12.1939-87.5674 12.6401-87.4424 13.0779-87.2026 13.4538L-79.9583 15.8837-72.9839 18.2684-79.9131 24.4329-83.7379 21.0131C-84.1409 20.5111-84.6685 20.1234-85.2678 19.8885-85.8843 19.5824-86.5596 19.4135-87.2476 19.3934-88.4175 19.3934-89.0024 19.9333-89.0024 21.0131-89.0317 21.2374-89.0317 21.4642-89.0024 21.6881-88.1391 22.8384-87.125 23.8677-85.9877 24.7481-82.6579 27.2678-80.9031 28.6625-80.6781 28.8875-79.892 29.9129-78.8947 30.757-77.7534 31.3623-77.2308 31.6143-76.6891 31.8248-76.1335 31.9924L-57.3701 31.9924C-56.9371 31.8368-56.5608 31.5546-56.2902 31.1824-56.1622 31.0166-56.0566 30.8352-55.9752 30.6425-56.3452 28.0495-57.601 25.6647-59.5299 23.893-61.5071 22.1302-63.58 20.4778-65.7393 18.9435-62.5501 17.7254-59.2894 16.7037-55.9752 15.8837-54.8053 15.5686-53.2756 15.2087-51.4756 14.8487ZM-52.2406 36.4919-63.8045 36.4919-63.8045 35.142C-63.8105 34.7059-64.008 34.2945-64.3445 34.0172-64.6562 33.7513-65.0614 33.6217-65.4695 33.6572-66.0558 33.6432-66.6286 33.8341-67.0892 34.1971-67.5681 34.5358-67.8398 35.0963-67.8092 35.682-67.8467 35.9507-67.8467 36.2232-67.8092 36.4919L-83.243 36.4919-83.243 34.1071C-83.8632 32.9735-85.285 32.5573-86.4186 33.1774-86.6647 33.312-86.8845 33.4897-87.0676 33.7021L-87.4276 34.1071-87.4276 36.4919-98.9016 36.4919C-100.021 37.0863-100.447 38.4754-99.8523 39.595-99.715 39.8532-99.53 40.0829-99.3065 40.2715L-98.9016 40.6316-87.4276 40.6316-87.4276 43.3763C-86.8073 44.51-85.3854 44.9263-84.252 44.306-84.0059 44.1714-83.786 43.9935-83.6029 43.7813L-83.243 43.3763-83.243 40.6316-67.6292 40.6316-67.6292 43.3763C-67.5576 44.2288-66.8182 44.868-65.9644 44.8162-64.9999 44.8863-64.1106 44.2936-63.8045 43.3763L-63.8045 40.6316-52.3304 40.6316C-51.8862 40.4466-51.5202 40.1123-51.2956 39.6866-51.0337 39.2684-50.8933 38.7853-50.8907 38.2917-50.7863 37.4032-51.4222 36.5984-52.3106 36.4942-52.3172 36.4933-52.3239 36.4927-52.3304 36.4919ZM-117.8 15.2087-147.588 15.2087C-147.748 14.5274-147.617 13.8102-147.228 13.2287-147.034 12.9476-146.808 12.6906-146.553 12.464L-119.555 12.464C-118.7 12.8239-118.25 13.2739-118.205 13.8588-118.16 14.4436-118.205 14.8937-118.205 15.2087ZM-117.8 18.9885-117.8 19.3484C-117.761 19.852-118.027 20.3302-118.475 20.5633L-119.195 20.5633-146.193 20.5633C-146.626 20.41-146.961 20.0588-147.092 19.6183-147.108 19.3634-147.108 19.1081-147.092 18.8533ZM-125.089 36.4919-139.758 36.4919C-139.758 35.9518-139.443 35.4119-139.308 34.917L-138.363 32.0372-126.574 32.0372-125.179 36.5369ZM-147.588 3.91461-154.157-6.38964C-154.206-6.91776-154.466-7.40416-154.877-7.73955-155.282-8.03486-155.771-8.19258-156.272-8.18947-156.817-8.20338-157.348-8.01049-157.757-7.64941-158.186-7.33888-158.425-6.8281-158.387-6.29949-158.415-6.10546-158.415-5.90847-158.387-5.7146L-154.202 0.809851-151.772 4.58948C-151.743 5.10075-151.498 5.57521-151.097 5.8944-150.699 6.20231-150.206 6.36166-149.702 6.34432-149.165 6.35479-148.641 6.1799-148.217 5.84941-147.793 5.51418-147.559 4.99408-147.588 4.45467-147.556 4.27585-147.556 4.09326-147.588 3.91461M-119.33 1.9798C-119.709 2.20885-120.148 2.31863-120.59 2.29474-121.052 2.32108-121.511 2.19445-121.895 1.93464-122.239 1.72539-122.445 1.34762-122.435 0.944826-122.801 0.138247-123.27-0.617777-123.829-1.30509-124.914-2.68805-126.571-3.50003-128.329-3.50968L-138.363-3.50968-139.218-3.50968C-140.472-3.20717-141.395-2.13981-141.513-0.85517L-141.513 5.30951C-141.68 5.75059-141.999 6.11773-142.413 6.34432-142.847 6.60805-143.345 6.74794-143.853 6.74941-144.741 6.85363-145.546 6.21785-145.65 5.32931-145.651 5.32276-145.652 5.31606-145.653 5.30951L-145.653-1.21494C-145.451-2.2347-145.102-3.21993-144.618-4.13973-143.568-6.02038-141.55-7.15106-139.398-7.06452L-126.889-7.06452C-124.857-7.06402-122.905-6.27348-121.445-4.85959-119.943-3.52391-119.09-1.6053-119.105 0.404925-119.044 0.897871-119.044 1.39654-119.105 1.88982ZM-128.014 0.584892C-127.748 0.253262-127.605-0.16017-127.609-0.585056-127.609-1.02254-127.808-1.43646-128.149-1.70985-128.544-1.99125-129.014-2.14799-129.499-2.15993-129.942-2.14504-130.375-2.02152-130.759-1.79983-131.586-0.392328-132.503 0.960368-133.504 2.24975-133.819 2.69967-134.314 3.28472-134.944 4.04958-135.218 4.46236-135.359 4.94909-135.348 5.44449-135.374 6.04459-135.126 6.62392-134.674 7.01936-134.172 7.43263-133.511 7.59771-132.874 7.46928ZM-113.75 11.2491C-114.1 10.2766-114.856 9.50487-115.82 9.13413-116.271 8.97298-116.739 8.86713-117.215 8.81919L-148.712 8.81919C-149.563 8.98493-150.319 9.4674-150.827 10.1691-151.096 10.4916-151.309 10.8564-151.457 11.2491L-151.457 22.273C-151.476 22.4977-151.476 22.7234-151.457 22.9481-151.426 23.1719-151.426 23.3991-151.457 23.6229-150.914 24.1707-150.252 24.5862-149.522 24.8377L-149.027 24.8377-117.53 24.8377C-116.425 24.8721-115.376 24.3479-114.74 23.443-114.452 23.0274-114.225 22.5729-114.065 22.0931L-114.065 11.1141ZM-110.646-1.12496C-110.084-1.57962-109.624-2.14668-109.296-2.78981-108.913-3.43164-108.697-4.15838-108.666-4.90475-108.626-5.42355-108.845-5.92892-109.251-6.2545-109.745-6.61002-110.365-6.74074-110.961-6.6146L-119.645 3.68965C-120.102 3.91853-120.384 4.39348-120.365 4.90459-120.334 5.46117-120.053 5.97392-119.6 6.29933-119.154 6.71816-118.537 6.90173-117.935 6.79424-116.509 5.66634-115.198 4.40035-114.02 3.01477-112.94 1.6197-111.771 0.269787-110.646-1.12496M-109.926 28.0776-155.732 28.0776C-156.198 28.0488-156.645 28.2721-156.902 28.6625-157.177 29.0915-157.318 29.5928-157.307 30.1024-157.336 30.6281-157.194 31.1493-156.902 31.5871-156.659 31.9935-156.202 32.2216-155.732 32.1723L-142.233 32.1723C-142.233 32.4871-142.593 33.0272-142.863 33.792-143.167 34.7637-143.543 35.7111-143.988 36.6268L-153.662 36.6268C-154.395 36.9349-154.849 37.6785-154.787 38.4717-154.838 39.3803-154.411 40.2501-153.662 40.7666L-134.899 40.7666-134.899 44.1861C-134.714 44.6306-134.379 44.9964-133.954 45.2211-133.52 45.4848-133.022 45.6247-132.514 45.6262-131.625 45.7304-130.82 45.0946-130.716 44.2061-130.715 44.1994-130.715 44.1928-130.714 44.1861L-130.714 40.7666-111.591 40.7666C-111.14 40.5918-110.77 40.2548-110.556 39.8214-110.294 39.4034-110.153 38.9203-110.151 38.4267-110.046 37.5381-110.682 36.7332-111.571 36.6291-111.577 36.6283-111.584 36.6275-111.591 36.6268L-120.995 36.6268C-120.995 36.0868-121.31 35.5469-121.445 35.052L-122.39 32.1723-109.881 32.1723C-109.414 32.2008-108.968 31.9778-108.711 31.5873-108.171 30.6711-108.171 29.5339-108.711 28.6175-108.979 28.2442-109.423 28.039-109.881 28.0776ZM-202.213 14.5786C-203.383 11.2039-204.733 7.78422-206.307 4.27454-207.882 0.764859-208.827-1.12496-209.862-3.19474-210.374-4.27519-210.945-5.32669-211.572-6.34448-212.015-6.81436-212.636-7.0758-213.282-7.06452-213.802-7.08955-214.309-6.89338-214.677-6.52462-215.041-6.10447-215.19-5.53971-215.082-4.99457-213.507-1.8-212.022 1.4399-210.582 4.67963L-207.342 12.2389C-206.937 13.2287-206.488 14.2187-206.082 15.2535-205.846 16.136-205.013 16.723-204.103 16.6486-203.582 16.6734-203.076 16.4774-202.708 16.1085-202.3 15.7127-202.129 15.1323-202.258 14.5786ZM-187.274 32.5771-187.274 19.0783-198.703 19.0783-199.108 18.7183C-200.076 17.9003-200.198 16.4526-199.38 15.4845-199.191 15.261-198.961 15.0758-198.703 14.9387L-187.229 14.9387-187.229-1.53005-203.203-1.53005C-204.174-1.84662-204.78-2.81239-204.643-3.82479-204.669-4.25278-204.559-4.67832-204.328-5.03973-204.048-5.37937-203.642-5.59059-203.203-5.62462L-167.791-5.62462C-166.947-5.58421-166.295-4.86728-166.336-4.0234-166.338-3.97187-166.343-3.92066-166.351-3.86961-166.352-3.36194-166.492-2.86409-166.756-2.42988-166.972-2.00794-167.343-1.6858-167.791-1.53005L-183.045-1.53005-183.045 14.9387-170.895 14.9387C-169.947 15.2838-169.354 16.2291-169.456 17.2335-169.446 17.666-169.572 18.0909-169.816 18.4484-170.065 18.807-170.46 19.0374-170.895 19.0783L-183.045 19.0783-183.045 32.5771-168.466 32.5771-168.061 32.937C-167.093 33.7551-166.971 35.203-167.789 36.1712-167.978 36.3944-168.207 36.5797-168.466 36.7168L-182.954 36.7168-182.954 43.3763-183.314 43.7813C-183.769 44.2736-184.4 44.5652-185.069 44.5912-185.906 44.555-186.668 44.0979-187.094 43.3763L-187.094 36.8518-200.098 36.8518-200.503 36.4919C-200.995 36.0377-201.287 35.4063-201.313 34.737-201.254 33.9071-200.803 33.1548-200.098 32.7121ZM-213.327 39.4615-213.687 40.4965C-213.739 41.3904-213.157 42.1983-212.292 42.4314-211.829 42.4923-211.36 42.4923-210.897 42.4314L-202.888 35.907C-202.446 35.5623-202.195 35.0273-202.213 34.4671-202.229 33.8693-202.509 33.3091-202.978 32.9372-203.427 32.5246-204.041 32.342-204.643 32.4423-206.533 33.7472-208.557 35.2769-210.672 36.942L-213.327 39.2367ZM-215.082 26.7727-215.397 27.8077C-215.593 28.5727-215.239 29.3722-214.542 29.7425-214.161 29.9501-213.751 30.1017-213.327 30.1924L-203.563 22.273C-203.407 21.919-203.33 21.535-203.338 21.1482-203.333 20.4639-203.717 19.8361-204.328 19.5282-204.627 19.3816-204.945 19.2756-205.273 19.2134-206.641 19.9371-207.924 20.8125-209.097 21.8231Z" fill-rule="evenodd" transform="matrix(1.0023 0 0 -1 463.881 413.284)"/></g></svg>