<svg width="327" height="290" xmlns="http://www.w3.org/2000/svg" xmlns:xlink="http://www.w3.org/1999/xlink" xml:space="preserve" overflow="hidden"><defs><clipPath id="clip0"><rect x="184" y="412" width="327" height="290"/></clipPath></defs><g clip-path="url(#clip0)" transform="translate(-184 -412)"><path d="M0 0-12.9919 0-12.9919-12.5873-1.88807-12.5873C-0.719201-12.5873-0.13485-13.5313-0.13485-14.9249-0.13485-16.3185-0.719201-17.0377-1.88807-17.0377L-12.9919-17.0377-12.9919-32.4123 0.494451-32.4123C1.61837-32.4123 2.29278-33.0865 2.38268-34.5251 2.47242-35.9635 1.61837-36.7278 0.494451-36.8626L-30.9737-36.8626C-32.1976-36.7902-33.1377-35.7502-33.0865-34.5251-33.0865-33.0865-32.2323-32.4123-30.9737-32.4123L-17.1726-32.4123-17.1726-17.0377-27.1525-17.0377C-29.3102-15.6291-29.3102-14.1307-27.1525-12.5422L-16.9928-12.5422-16.9928 0.0449501-28.5011 0.0449501C-29.7599 0.0449501-30.4791 0.719201-30.6139 2.15777-30.5912 3.32271-29.6652 4.26829-28.5011 4.3157L-16.9928 4.3157C-17.6222 5.70931-18.3864 7.28273-19.2854 8.81103-19.9209 9.90879-19.585 11.312-18.5212 12.003-17.441 12.6092-16.0738 12.2272-15.4643 11.1488-14.1843 8.95618-13.216 6.59589-12.5872 4.1359L0.0899001 4.1359C1.20368 4.04109 2.05087 3.09534 2.02292 1.97813 1.88807 0.674414 1.25877 0 0.0899001 0ZM-37.2224 10.2048C-35.5589 8.63139-33.6709 6.87801-31.6479 4.90005-30.8874 3.97211-30.8874 2.6362-31.6479 1.70827-32.5471 0.674251-33.3562 0.629464-34.1205 1.70827-35.649 2.96687-37.582 4.7652-39.8746 7.01286-40.8045 7.63219-41.0564 8.88802-40.4371 9.81791-40.389 9.89032-40.3362 9.95946-40.2792 10.0248-39.5446 10.9632-38.1883 11.1283-37.25 10.3936-37.2097 10.3621-37.1704 10.3289-37.1323 10.2945ZM-39.6948-1.93302C-38.0315-3.37158-36.548-4.72025-35.1993-5.97885-34.5354-6.59654-33.8294-7.16749-33.0865-7.68711-32.2553-8.67438-32.2553-10.1167-33.0865-11.1038-33.64-11.8982-34.7328-12.0935-35.5272-11.5402-35.6974-11.4216-35.8451-11.274-35.9635-11.1038-37.8517-9.26053-39.9645-7.41758-42.2571-5.57446-43.1372-4.92685-43.3255-3.68868-42.678-2.80897-42.6726-2.80161-42.6672-2.79442-42.6619-2.78723-41.5829-1.66332-40.6388-1.34867-39.6049-1.93302ZM-35.1993-16.4084C-35.0431-15.3523-34.0602-14.6228-33.0041-14.7791-32.831-14.8048-32.662-14.8538-32.5022-14.9249-31.3013-15.3688-30.6381-16.6562-30.9737-17.8919-32.9366-24.3682-35.6366-30.5976-39.0206-36.4581-39.7546-37.6306-41.2867-38.0085-42.4821-37.3121-43.6508-36.4581-43.7408-35.2892-42.8866-33.8956-39.3251-28.559-36.7235-22.6409-35.1993-16.4084" transform="matrix(1 0 0 -1.00076 289.614 751.213)"/><path d="M0 0C2.38709-2.49955 4.63803-5.12578 6.74316-7.86708 7.38865-8.82901 7.21506-10.1214 6.33861-10.8791 5.74429-11.5795 4.69458-11.6654 3.99418-11.0711 3.85443-10.9526 3.73527-10.8117 3.64128-10.6541L3.10188-10.0248-2.65238-2.96687C-3.47162-2.17133-3.49074-0.86206-2.69521-0.0428251-2.68115-0.0282777-2.66676-0.0140571-2.65238 0.000163455-1.87581 0.732604-0.652348 0.696971 0.0802563-0.0796025 0.0835254-0.0831985 0.086631-0.0864676 0.0899001-0.0899001ZM-14.1607 1.07896C-12.9893-0.428905-11.9083-2.00526-10.924-3.64128-10.2945-5.0349-10.3844-6.1137-11.2836-6.83306-12.3224-7.11045-13.42-6.67141-13.9809-5.7541-14.7451-4.63035-15.7791-3.19162-17.0377-1.2586-17.8571-0.463067-17.8762 0.846205-17.0807 1.66544-17.0666 1.67982-17.0523 1.69421-17.0377 1.70827-15.9589 2.27774-14.9698 2.06787-14.0707 1.07896ZM-21.0837 25.3544-11.5084 25.3544C-10.8983 26.5913-10.3727 27.8677-9.93494 29.1755L-9.93494 29.8498-22.5223 29.8498C-22.3874 29.4001-21.8928 27.9168-20.9938 25.3543ZM-22.9718 0.22475-22.9718-6.83306C-22.9718-7.82196-22.3423-8.36153-21.0837-8.54133L-9.57534-8.54133C-7.91203-8.54133-6.87801-7.73223-6.51841-5.7541-6.15881-3.77613-5.34971-3.77613-4.18085-4.04583-3.06249-4.48095-2.41799-5.65619-2.65238-6.83306-3.40166-10.789-5.51447-12.6321-8.99083-12.3626L-21.9378-12.3626C-25.2644-12.3626-26.793-10.744-26.4333-7.01286L-26.4333 0.22475C-26.583 1.23163-25.8881 2.16921-24.8812 2.3191-24.8146 2.3289-24.7474 2.33511-24.68 2.33773-23.6374 2.18065-22.8701 1.27903-22.8819 0.22475ZM-30.2994 9.80009-30.2994 8.09183C-30.2994 7.23761-30.0747 6.83323-29.3104 6.83323L-3.05693 6.83323C-2.29262 6.83323-1.88807 7.23761-1.88807 8.09183L-1.88807 9.80009ZM-30.2994 14.7001-30.2994 12.767-2.15793 12.767-2.15793 14.4754C-2.15793 15.3294-2.47242 15.7789-3.10188 15.7789L-29.1306 15.7789C-29.9846 15.6441-30.3892 15.2845-30.3892 14.7001ZM-30.2994 19.1956-1.70827 19.1956C0.869089 19.1956 2.0829 17.9818 1.93302 15.5542L1.93302 7.23761C1.93302 4.54045 0.764151 3.28168-1.93302 3.41653L-30.5691 3.41653C-33.1315 3.10204-34.3003 4.45055-34.0306 7.46236L-34.0306 15.3294C-34.3003 17.8919-33.0865 19.3305-30.3892 19.1956ZM-33.3562-0.629464C-32.8618 0.629464-32.0077 0.989065-30.8838 0.404714-29.855-0.197126-29.509-1.51882-30.1107-2.54744-30.1136-2.55251-30.1165-2.55741-30.1196-2.56248-31.6275-5.32013-33.3564-7.95109-35.2892-10.4296-36.3232-11.5983-37.2674-11.7782-38.1665-11.0589-39.0479-10.2202-39.0825-8.8259-38.244-7.94455-38.2188-7.91808-38.193-7.89225-38.1665-7.86708-36.4056-5.61892-34.8839-3.19309-33.6261-0.629464ZM2.60743 29.8498-5.6642 29.8498C-6.11108 28.7973-6.48654 27.7159-6.78811 26.613-7.05781 25.6241-7.19266 25.2194-7.19266 25.3543L4.54045 25.3543C5.50843 25.3347 6.27732 24.5339 6.25754 23.5659 6.25656 23.5175 6.25362 23.4693 6.24871 23.4213 6.35463 22.5837 5.76178 21.8189 4.92424 21.713 4.79674 21.6968 4.66778 21.6968 4.54045 21.713L-37.2674 21.713C-38.3012 21.713-38.8857 22.2974-39.0206 23.4213-39.0248 24.4224-38.2641 25.2613-37.2674 25.3543L-24.9948 25.3543C-25.2644 25.9386-25.8489 27.4223-26.7479 29.8498L-34.615 29.8498C-35.5253 29.7256-36.3638 30.3629-36.4878 31.273-36.4988 31.3526-36.5039 31.4328-36.503 31.5131-36.5547 32.5151-35.7954 33.3742-34.7948 33.4461L-17.9369 33.4461-18.4763 34.0756C-18.8117 34.6374-19.0688 35.2423-19.2406 35.8737-20.0047 37.1773-19.8249 38.1664-18.7012 38.8856-17.6874 39.4117-16.4391 39.0163-15.9131 38.0027-15.88 37.9388-15.8504 37.8736-15.8241 37.8068-15.8241 37.3573-15.4193 36.7278-15.0597 35.8737-14.7001 35.0195-14.0707 34.1204-13.7112 33.536L2.33757 33.536C3.31666 33.4216 4.05253 32.5886 4.04583 31.603 4.00088 30.3892 3.50643 29.8498 2.60743 29.8498" transform="matrix(1 0 0 -1.00076 337.221 776.812)"/><path d="M0 0 0-10.4294C0-12.0028 0.674251-12.8569 2.47242-12.9917L26.8378-12.9917C28.0966-12.9917 28.771-12.3624 28.771-11.5082L28.771-0.0899001C28.7973 1.01881 27.9446 1.95116 26.8378 2.02308L2.29262 2.02308C0.764151 2.02308 0 1.39362 0 0.13485ZM1.34867 15.7342 27.7819 15.7342C28.8158 15.7342 29.4001 14.8799 29.535 13.6213 29.67 12.3626 28.8158 11.6883 27.7819 11.6883L1.3485 11.6883C0.1798 11.6883-0.404714 12.3626-0.404714 13.6213-0.628484 14.6143-0.00474019 15.6006 0.988247 15.8245 1.10675 15.8512 1.22738 15.8661 1.3485 15.869ZM0.943951 6.15898 28.1865 6.15898C30.6692 6.15898 32.6818 4.14619 32.6818 1.66348L32.6818-13.2616C32.6852-15.411 31.007-17.1879 28.8607-17.3074L0.943951-17.3074C-2.38268-17.3074-3.9561-15.734-3.86603-12.8121L-3.86603 1.03401C-4.29723 3.47913-2.66464 5.81065-0.21952 6.24185 0.164435 6.30952 0.555419 6.32684 0.943951 6.29366ZM18.0268 30.0297C23.232 24.2843 29.6509 19.7695 36.8177 16.813 37.9414 16.183 38.4225 14.8165 37.9416 13.6213 37.4472 12.1828 36.5929 11.7782 35.469 12.3626 29.074 15.4081 23.19 19.4268 18.0268 24.2756 16.8563 25.487 15.4882 26.4903 13.9808 27.2425 13.2608 26.7989 12.6346 26.2186 12.1377 25.5342 6.99832 20.1293 0.901453 15.7242-5.84416 12.5424-7.37246 11.8232-8.36153 12.1828-8.90109 13.6213-9.32983 15.0445-8.68876 16.5719-7.37246 17.2625-0.58337 20.1685 5.53703 24.4375 10.6092 29.805 13.2165 32.637 15.734 32.7271 18.0268 30.0297" transform="matrix(1 0 0 -1.00076 358.889 770.963)"/><path d="M0 0 0-16.6333C-0.2697-17.8919 0.494451-18.5663 2.29262-18.5663 4.09078-18.5663 4.72025-18.1167 4.63035-16.8581L4.63035-11.9579C4.63035-10.6543 5.16975-10.0248 6.33845-10.0248 7.50748-10.0248 8.13678-10.6543 8.27146-11.9579L8.27146-17.4874C8.27146-21.0388 7.10276-22.6571 4.40543-22.3874L0.404714-22.3874C-2.41259-22.3874-3.76126-20.5443-3.64128-16.8581L-3.64128 0C-3.71582 0.965364-2.99351 1.8083-2.02815 1.883-1.98156 1.88643-1.93481 1.88823-1.88823 1.88807-0.912241 1.84982-0.110332 1.10528 0 0.13485ZM-9.75514-0.629464-9.75514-20.2746C-9.75514-21.5332-10.5193-22.1627-11.6882-22.1627-12.857-22.1627-13.3964-21.5332-13.3964-20.2746L-13.3964-0.629464C-13.3964 0.3596-12.8569 0.899001-11.6882 1.03385-10.5193 1.1687-9.88999 0.494451-9.75514-0.494451ZM5.7541 18.2965-10.9688 18.2965C-13.5122 14.6614-16.3221 11.2205-19.3754 8.00193-19.735 7.68711-19.8249 7.41758-19.3754 7.14771-19.0698 7.04163-18.7371 7.04163-18.4315 7.14771-12.281 7.04555-6.12923 7.25559 2.32283e-15 7.77718-0.2697 8.09183-1.21382 9.57534-2.87713 12.2725-3.69637 12.9175-3.83775 14.1047-3.1926 14.9241-3.10041 15.0413-2.99433 15.1472-2.87713 15.2395-2.08699 15.994-0.834763 15.965-0.0805832 15.1748 0.0181435 15.0713 0.105592 14.9574 0.1798 14.835 1.97797 12.003 3.73118 9.08089 5.3945 5.84416 5.88895 5.16975 6.24871 4.5854 6.51841 4.18068 7.36266 3.01411 7.10113 1.38413 5.93472 0.539891 5.93439 0.539891 5.93423 0.539564 5.93406 0.539564 4.6753-0.0449501 3.64128 0.539564 2.87713 2.02292 2.87713 2.02292 2.60727 2.02292 2.51737 2.47258L2.11298 3.73118C-1.95884 3.21826-6.05616 2.9332-10.1597 2.87713L-23.1965 2.87713C-24.7251 2.87713-25.6241 3.46148-25.8938 4.5854-26.0857 5.94877-25.5789 7.31722-24.5452 8.22668-21.2269 11.2491-18.2152 14.5919-15.5544 18.2066L-25.4891 18.2066C-26.658 18.2066-27.2425 18.881-27.2425 20.1396-27.3922 21.1465-26.6972 22.084-25.6905 22.2336-25.6238 22.2437-25.5566 22.25-25.4891 22.2526L-12.857 22.2526C-13.2166 23.2415-13.6661 24.4103-14.2057 25.6691-14.8428 26.617-14.591 27.9017-13.6431 28.5389-13.5641 28.5918-13.4817 28.6394-13.3964 28.6811-12.2727 29.2205-11.3286 28.6811-10.5193 27.6021-10.4456 27.2286-10.3248 26.8661-10.1597 26.5233-9.55246 25.0596-9.04183 23.5581-8.63139 22.0278L5.7541 22.0278C6.65326 22.0278 7.14771 21.1736 7.28256 19.9148 7.41741 18.6562 6.65326 18.4313 5.7541 18.4313ZM-18.7911 0.31465C-19.0606-10.6092-21.8479-17.9818-27.2425-21.8031-27.9745-22.6471-29.252-22.738-30.0961-22.0062-30.1685-21.9433-30.2365-21.8755-30.2993-21.8031-31.0392-20.8688-30.8817-19.5116-29.9475-18.7718-29.8736-18.7131-29.7958-18.6595-29.7149-18.6111-24.9796-15.3445-22.5522-9.09577-22.4322 0.13485-22.5319 1.09793-21.8317 1.95933-20.8686 2.05904-20.8205 2.06394-20.7723 2.06689-20.7241 2.06787-19.4204 2.11298-18.7911 1.48352-18.7911 0.31465M-34.3003 24.6351C-32.1151 23.1628-30.1736 21.3578-28.5462 19.2854-27.8986 18.2909-27.9905 16.9875-28.771 16.0938-29.2831 15.3613-30.2923 15.1828-31.0247 15.6951-31.1798 15.8038-31.3147 15.9386-31.4232 16.0938-32.9018 17.7203-34.5105 19.2238-36.2333 20.5891-36.3249 20.8238-36.4623 21.0378-36.6379 21.2184-37.4311 21.7292-37.6601 22.7864-37.1493 23.5797-37.1037 23.6503-37.0531 23.7178-36.9977 23.7809-36.4803 24.7516-35.2822 25.131-34.3003 24.6351M-35.4692 12.0478C-33.6709 10.7892-31.8279 9.48528-29.8949 8.22668-29.0369 7.39747-28.8019 6.11419-29.3102 5.0349-30.2094 3.86603-31.1085 3.73118-32.0075 4.5854-33.6045 5.95744-35.2699 7.24791-36.9977 8.45143-37.9712 8.98625-38.3797 10.1728-37.9416 11.1935-37.568 12.087-36.541 12.5082-35.6477 12.1346-35.5866 12.1091-35.5271 12.0801-35.4692 12.0478M-31.2436-2.02292C-31.1234-1.08714-30.2677-0.425636-29.3318-0.545612-29.1363-0.570621-28.9465-0.629464-28.771-0.719201-27.7523-1.23768-27.258-2.41652-27.6021-3.50643-29.2148-9.36972-31.9474-14.8654-35.649-19.6901-36.2853-20.4845-37.4454-20.6126-38.2397-19.9765-38.3455-19.8916-38.4415-19.7957-38.526-19.6901-39.3578-18.8717-39.3686-17.534-38.5501-16.7023-38.5421-16.6941-38.5341-16.6861-38.526-16.6781-35.1104-12.3498-32.6305-7.35939-31.2436-2.02292" transform="matrix(1 0 0 -1.00076 440.437 766.914)"/><path d="M0 0-302.769 0C-315.671 2.42763-315.131 15.1498-306.14 30.8838L-163.275 280.606C-157.88 288.968-144.394 294.362-136.302 280.606L3.68623 36.1884C13.2165 21.2186 21.9378-0.269537 0 0" fill="#FFCC01" fill-rule="evenodd" transform="matrix(1 0 0 -1.00076 496.9 701.411)"/><path d="M0 0-134.864-233.764 134.864-233.764ZM149.878-257.635-152.891-257.635C-165.792-255.207-165.253-242.485-156.262-226.751L-13.3964 22.9718C-8.00193 31.3333 5.4844 36.7278 13.5762 22.9718L153.565-221.446C163.095-236.416 171.816-257.904 150.058-257.41Z" fill-rule="evenodd" transform="matrix(1 0 0 -1.00076 347.021 443.582)"/><path d="M0 0 269.098 0 134.594 233.404ZM269.727-0.3596-0.539401-0.3596 134.594 234.213 134.594 233.899ZM135.448 264.872C129.696 264.515 124.464 261.422 121.377 256.556L-21.4883 6.96808C-27.5122-3.55138-29.4452-12.2725-26.9728-17.6672-25.2621-21.0052-21.9819-23.2541-18.2515-23.646L285.012-23.646C289.57-24.3016 294.114-22.3593 296.79-18.6111 301.285-10.3844 292.294 5.70931 288.024 12.2727L147.811 256.69C145.574 261.399 140.965 264.529 135.763 264.872ZM285.012-24.0056-18.2966-24.0056C-22.1553-23.6065-25.5445-21.2679-27.2875-17.802-29.8498-12.3175-27.8718-3.46148-21.8031 7.14771L121.063 256.87C124.233 261.983 129.75 265.172 135.763 265.367 141.15 265.044 145.921 261.777 148.17 256.87L288.338 12.4525C292.519 5.84416 301.825-10.3844 297.329-18.7909 294.549-22.7302 289.775-24.7511 285.012-24.0056" transform="matrix(1 0 0 -1.00076 212.428 677.567)"/><path d="M0 0C0.22475-25.0846 4.81015-48.506-8.72113-60.6886-13.5762-65.1841-44.2353-85.0091-50.439-88.3357L-45.9435-97.3267-0.0899001-66.6227 0.22475-124.389 21.4883-124.389 21.4883-0.31465 33.536-8.18173 33.536 10.3395 12.1828 29.0405-10.2945 10.3395-9.88999-7.64233Z" fill-rule="evenodd" transform="matrix(1 0 0 -1.00076 336.053 539.273)"/></g></svg>