<svg width="328" height="290" xmlns="http://www.w3.org/2000/svg" xmlns:xlink="http://www.w3.org/1999/xlink" xml:space="preserve" overflow="hidden"><defs><clipPath id="clip0"><rect x="196" y="53" width="328" height="290"/></clipPath></defs><g clip-path="url(#clip0)" transform="translate(-196 -53)"><path d="M0 0-303.07 0C-315.985 2.43005-315.445 15.1649-306.445 30.9145L-163.437 280.886C-158.037 289.255-144.538 294.7-136.438 280.886L3.6899 36.2244C13.2296 21.1947 21.9596-0.269805 0 0" fill="#FFCC01" fill-rule="evenodd" transform="matrix(1.0023 0 0 -1 509.893 342.481)"/><path d="M0 0-134.998-233.996 134.998-233.996ZM150.028-257.936-153.043-257.936C-165.957-255.506-165.417-242.771-156.418-227.021L-13.4098 22.9496C-8.00989 31.3195 5.48986 36.7644 13.5897 22.9496L153.717-221.711C163.257-236.696 171.987-258.206 150.208-257.711Z" fill-rule="evenodd" transform="matrix(1.0023 0 0 -1 359.52 84.545)"/><path d="M0 0 269.366 0 134.728 233.546ZM269.996-0.359958-0.539938-0.359958 134.728 234.311 134.728 234.041ZM135.583 265.136C129.825 264.778 124.588 261.683 121.498 256.811L-21.5096 6.84003C-27.5396-3.6899-29.4745-12.4197-26.9997-17.8197-25.2872-21.1611-22.0038-23.4122-18.2697-23.8045L284.756-23.8045C290.92-23.8045 295.015-22.1847 296.905-18.7646 301.405-10.5298 292.405 5.58001 288.13 12.1499L147.958 256.811C145.756 261.577 141.135 264.767 135.898 265.136ZM285.295-24.1645-18.3148-24.1645C-22.1774-23.7649-25.57-21.4241-27.3146-17.9547-29.8795-12.4649-27.8996-3.59991-21.8248 7.01984L121.183 256.991C124.295 262.019 129.677 265.198 135.583 265.496L135.898 265.496C141.291 265.173 146.067 261.902 148.318 256.991L288.625 12.3297C292.81 5.71499 302.125-10.5298 297.625-19.1696 294.787-23.0282 290.019-24.96 285.295-24.1645" transform="matrix(1.0023 0 0 -1 224.482 318.496)"/><path d="M0 0-26.9997 0-58.0942 35.0546C-61.9641 38.9694-62.144 43.6494-58.0942 46.4392L-11.5648 57.9142C-7.06484 58.7241-5.84981 59.9841-7.4248 61.7841L-20.4748 78.0738-9.40489 78.0738 0 63.3141C3.28495 58.3641 4.00503 55.3492 0 53.5942L-34.2445 43.0194C-44.8642 40.4094-39.8243 37.2595-38.7443 35.5493Z" fill-rule="evenodd" transform="matrix(1.0023 0 0 -1 352.033 305.807)"/><path d="M0 0 26.5046 0-11.6098 35.1444C-11.6098 35.4143-12.0598 35.6393-12.2849 35.9544-13.1848 36.8543-14.2198 38.0242-13.8597 39.3294-13.4998 40.6344-11.2498 41.8942-7.15483 42.9293L26.9997 53.5942C28.1317 53.9669 29.0388 54.8246 29.4745 55.9339 29.9247 57.4641 29.1596 59.579 26.9097 63.0441L17.5498 77.7137 6.74988 77.7137 19.5297 61.6941C20.0567 61.2374 20.2976 60.5326 20.1596 59.849 19.7997 58.8139 18.2247 58.094 15.2997 57.5541L-31.1845 46.0793C-32.7708 45.0946-33.8161 43.4352-34.0193 41.5793-34.0958 39.0419-33.0406 36.6017-31.1395 34.9194ZM27.3146-0.359958-0.359958-0.359958-31.4995 34.7393C-33.456 36.5034-34.5413 39.036-34.4695 41.6693-34.2495 43.614-33.1564 45.3528-31.4995 46.3942L15.0297 57.8692C17.7747 58.364 19.3047 59.0391 19.5297 59.939 19.7547 60.839 19.5297 60.839 18.9898 61.424L5.49002 78.0288 17.0998 78.0288 26.9997 63.2239C29.2946 59.714 30.1046 57.5089 29.6095 55.8441 29.1223 54.6392 28.1378 53.704 26.9097 53.2791L-7.19982 42.5693C-11.1149 41.6243-13.2748 40.4992-13.6347 39.1944-13.9947 37.8894-12.9598 37.0345-12.1497 36.1794-11.8988 35.9322-11.6726 35.6609-11.4748 35.3694Z" transform="matrix(1.0023 0 0 -1 324.971 305.626)"/><path d="M0 0-27.4946 0-56.6992 32.9395C-60.3441 36.6294-60.5241 41.0845-56.6992 43.6492L-32.6247 48.1492C-28.5746 48.8693-27.2696 50.0841-28.7096 51.7493L-40.0945 62.9991-29.6997 62.9991-16.1998 52.0642C-13.0948 47.5643-13.5899 45.4493-17.3698 43.7844L-33.9295 40.2294C-44.0543 37.9345-39.5544 34.9194-38.2045 33.3446Z" fill-rule="evenodd" transform="matrix(1.0023 0 0 -1 414.23 305.807)"/><path d="M0 0 26.9997 0-10.8899 33.0295-11.6098 33.8394C-12.4197 34.6944-13.4098 35.8195-13.0498 37.0345-12.6898 38.2492-10.5748 39.4644-6.74988 40.4094L9.80985 43.9642C11.5198 44.7293 12.4649 45.5392 12.7798 46.5292 13.0948 47.5193 12.7798 49.409 10.8899 51.9291L-2.33989 62.819-12.1497 62.819-1.16986 51.8391C-0.682776 51.3968-0.475636 50.7239-0.630091 50.0841-0.944891 49.1392-2.43005 48.4192-5.13006 47.9242L-29.2046 43.4242C-30.6742 42.4862-31.6353 40.9286-31.8144 39.1944-31.883 36.8257-30.8934 34.5496-29.1146 32.9845ZM27.8997-0.359958-0.224974-0.359958-29.4295 32.6245C-31.2899 34.2527-32.3151 36.6339-32.2194 39.1044-32.0363 40.9672-30.9857 42.6348-29.3846 43.6042L-5.30988 48.1042C-2.74485 48.5543-1.30501 49.2292-0.809906 50.0391-0.314964 50.8492-0.809906 50.8942-1.30501 51.4341L-13.0046 62.9539-2.02493 62.9539 11.4748 51.9741C13.2298 49.3642 13.8149 47.4741 13.4098 46.2592 13.0048 45.0444 12.1047 44.2793 10.215 43.4692L-6.34476 39.8693C-9.98983 38.9694-12.0148 37.9344-12.3747 36.7194-12.7348 35.5043-11.7448 34.6944-11.0249 33.8845L-10.3498 33.1194Z" transform="matrix(1.0023 0 0 -1 386.762 305.626)"/><path d="M0 0C-6.43491 0.314964-9.31491-2.65502-7.01984-7.87491L27.9895-20.7897C34.3795-21.9596 36.2692-14.9397 30.8694-11.5198ZM-11.6548 6.88486C-6.36423 10.5348 0.423769 11.2307 6.34492 8.72981L35.6395-2.20491C39.7363-2.87149 42.6346-6.57251 42.2994-10.7099 39.8274-17.4325 40.5393-24.9135 44.2343-31.0495L37.4394-40.7694-26.0096-17.5498-27.4046-6.43491C-27.4046-4.90492-27.7196-5.26488-26.1896-5.0849-19.5109-4.17274-13.9016 0.394645-11.6548 6.74988Z" fill-rule="evenodd" transform="matrix(1.0023 0 0 -1 352.8 186.738)"/><path d="M0 0 34.9194-12.9598C37.1268-13.6881 39.5254-12.6156 40.4544-10.4849 41.1423-7.91679 39.8911-5.2248 37.4844-4.09502L6.74988 7.4248C4.21593 7.90501 1.61065 7.07613-0.179979 5.21989-1.0964 3.56424-1.07938 1.54978-0.134984-0.0899896ZM36.2694-13.4998 34.8294-13.4998-0.269969-0.539938C-1.2718 1.24922-1.2718 3.43057-0.269969 5.21989 1.60116 7.19328 4.34977 8.0755 7.01984 7.55995L37.4844-3.7349C40.0362-5.03075 41.2889-7.97226 40.4544-10.7099 39.7401-12.4521 38.0164-13.5652 36.1344-13.4998ZM-18.9898-9.67486 44.0093-32.8045 50.5341-23.4447C47.0111-17.2803 46.4651-9.85321 49.0492-3.23995 49.3582 0.796817 46.5214 4.3964 42.5242 5.03991L13.2298 16.1548C7.32646 18.699 0.530775 18.0364-4.76994 14.3998-7.08873 8.02527-12.7258 3.44284-19.4397 2.47488L-20.2046 2.47488-20.5648 2.47488-20.5648 1.93494-20.5648 1.48499ZM44.0093-33.2544-19.4397-9.94483-21.0147 1.30501-21.0147 1.75496-21.0147 2.56487C-21.0147 2.69985-20.6997 2.56487-20.3398 2.56487L-19.6647 2.56487C-13.0418 3.49258-7.47912 8.01546-5.21989 14.3097 0.147747 18.0634 7.07367 18.7782 13.0948 16.1998L42.4344 5.26488C46.5997 4.59683 49.5439 0.828232 49.1842-3.37494 46.7658-9.90835 47.4273-17.1844 50.9842-23.1746Z" transform="matrix(1.0023 0 0 -1 346.034 194.343)"/><path d="M0 0 62.459-22.9946 61.6939-28.9344 58.184-27.5846C52.7841-37.1693 43.8742-32.0844 48.1042-23.7595L12.8248-10.2598C7.01984-21.8696-2.74501-16.2898 2.38489-6.47991L-0.0449948-5.58001Z" fill-rule="evenodd" transform="matrix(1.0023 0 0 -1 326.279 206.403)"/><path d="M0 0 0 0 35.4145-13.8149C33.3446-17.9547 34.5596-21.0145 36.6295-22.0946 38.6993-23.1746 42.4345-22.0946 45.1794-17.5948L48.5993-18.8998 49.2742-13.3648-12.5547 9.62987-12.5547 4.58996-10.0798 3.64491C-11.718 1.19686-11.9405-1.93478-10.6648-4.58996-9.92618-5.77864-8.59712-6.46894-7.19982-6.38992-4.58996-6.38992-1.93494-3.91488 0 0.0449948ZM38.6095-23.0846C37.8897-23.0874 37.1799-22.9177 36.5394-22.5895 34.3795-21.4197 33.0295-18.0897 35.0994-13.9949L0.179979-0.494943C-1.84495-4.45498-4.5448-6.79487-7.24482-6.97485L-7.51479-6.97485C-8.96476-6.98303-10.3133-6.23186-11.0699-4.99491-12.4043-2.29981-12.216 0.899896-10.5748 3.41993L-12.9598 4.31999-12.9598 10.1248-12.6898 10.1248 49.8591-12.9598 48.9143-19.5297 45.5843-18.2247C44.2793-20.9615 41.6289-22.8083 38.6095-23.0846" transform="matrix(1.0023 0 0 -1 339.088 216.258)"/><path d="M236.172 12.8697 216.283 12.8697 216.283 16.8297 236.172 16.8297ZM236.172 19.7547 236.172 22.0497C236.191 22.4557 236.005 22.8441 235.677 23.0846L235.182 23.3546 217.588 23.3546C217.118 23.4017 216.668 23.1499 216.463 22.7247 216.419 22.5018 216.419 22.2724 216.463 22.0497L216.463 19.7547ZM237.162 41.7594 237.162 43.6944C237.038 44.0846 236.762 44.4087 236.397 44.5943L235.857 44.5943 216.598 44.5943 215.293 43.6042 215.293 34.1095 222.267 34.1095 222.267 39.1042C222.49 40.0019 223.035 40.7862 223.797 41.3093L224.922 41.7593ZM237.162 34.1995 237.162 37.7994 227.667 37.7994 226.317 36.8095 226.317 34.1995ZM207.643 19.1248C206.653 16.2898 205.618 13.5897 204.538 11.0697 203.458 8.54983 202.873 7.19982 201.838 5.0849 201.499 4.26567 201.109 3.46885 200.668 2.69985 200.245 1.75791 199.264 1.19506 198.238 1.30501 197.715 1.29765 197.206 1.47256 196.798 1.79996 196.422 2.23256 196.257 2.80915 196.348 3.37494L202.333 16.4697C202.717 17.2459 203.019 18.0604 203.233 18.8998 203.396 19.7869 203.917 20.5679 204.673 21.0597 204.94 21.4676 205.4 21.7065 205.888 21.6898 206.376 21.6595 206.831 21.4321 207.148 21.0597 207.538 20.7182 207.767 20.2282 207.778 19.7097 207.834 19.5187 207.834 19.3157 207.778 19.1248ZM205.978 29.2946C206.254 28.897 206.41 28.4284 206.428 27.9446 206.436 27.4889 206.257 27.0497 205.933 26.7295 205.595 26.376 205.115 26.1942 204.628 26.2346 204.165 26.2555 203.716 26.3949 203.323 26.6397 202.459 27.5838 201.493 28.429 200.443 29.1596 199.446 29.8901 198.617 30.8262 198.013 31.9044 197.96 32.7533 198.421 33.5511 199.183 33.9294L200.353 34.1995ZM240.177 3.37494 240.177 24.7046C240.06 25.0773 239.909 25.4388 239.727 25.7846 239.19 26.5329 238.411 27.0733 237.522 27.3146L215.293 27.3146 213.313 26.0096 212.953 24.7044 212.953 1.395C212.953 0.584932 213.493 0.134984 214.618 0.134984 215.035 0.137111 215.441 0.262279 215.788 0.495106 216.108 0.67934 216.298 1.02621 216.282 1.395L216.282 9.58471 236.172 9.58471 236.172 5.67C236.079 5.24263 235.84 4.86091 235.497 4.58996 235.108 4.39018 234.674 4.29709 234.237 4.31999L232.617 4.31999C231.933 4.44107 231.232 4.44107 230.547 4.31999L230.052 4.31999C229.635 4.33079 229.237 4.14803 228.972 3.82489 228.7 3.46215 228.557 3.01841 228.567 2.56503 228.539 2.17153 228.669 1.78294 228.927 1.48499 229.139 1.1715 229.494 0.985795 229.872 0.990049L234.372 0 237.027 0C237.478 0.17458 237.915 0.385319 238.332 0.630091 239.145 1.19997 239.746 2.0228 240.042 2.96998ZM208.318 42.3892 204.763 46.3942C204.002 47.1508 203.055 47.694 202.018 47.9692L201.478 47.6994C201.121 47.432 200.842 47.0749 200.668 46.6642 200.958 44.8161 202.022 43.1795 203.593 42.1642 204.471 41.4911 205.271 40.7213 205.978 39.8693 206.201 39.483 206.612 39.2433 207.058 39.2392 207.569 39.2685 208.044 39.5139 208.363 39.9143 208.733 40.2705 208.957 40.7519 208.993 41.2643 209.02 41.7655 208.758 42.2378 208.318 42.4793ZM246.027 29.9247 245.712 26.3246C245.729 25.3666 245.496 24.4207 245.037 23.5796 244.673 22.695 243.832 22.0995 242.877 22.0497 242.466 22.083 242.066 22.2058 241.707 22.4097 241.682 22.7993 241.682 23.1902 241.707 23.5796L241.707 24.9746C241.633 25.7077 241.633 26.4465 241.707 27.1795 241.69 27.329 241.69 27.48 241.707 27.6294 241.919 28.3446 241.73 29.1179 241.212 29.6545 240.986 29.9152 240.711 30.1292 240.402 30.2844L212.503 30.2844C212.104 30.1122 211.749 29.8505 211.468 29.5195 211.352 29.3376 211.261 29.1409 211.198 28.9346L211.198 23.3546C211.195 22.9904 211.009 22.652 210.703 22.4545 210.353 22.2355 209.945 22.1257 209.533 22.1397 208.408 22.1397 207.868 22.5447 207.868 23.3546L207.868 31.5896C208.059 32.429 208.578 33.1577 209.308 33.6146 209.695 33.8444 210.102 34.0401 210.523 34.1995L212.188 34.1995 212.188 45.9893C212.38 46.6961 212.717 47.3551 213.178 47.9244L213.538 48.2843 214.842 48.6443 238.737 48.6443C239.647 48.5093 240.453 47.9833 240.942 47.2043 241.137 46.8172 241.288 46.4098 241.392 45.9893L241.392 34.1995 243.372 34.1995C244.266 33.9689 245.048 33.4262 245.577 32.6695 245.778 32.3329 245.929 31.9692 246.027 31.5896ZM120.029 33.5246 120.029 36.8095 90.8695 36.8095 90.8695 33.5246C91.025 33.116 91.2895 32.7579 91.6346 32.4895L92.1746 32.2196 118.724 32.2196ZM120.029 40.4094 120.029 42.7043C119.885 43.1191 119.618 43.48 119.264 43.7394L118.724 44.0543 92.1746 44.0543C91.6839 44.0867 91.222 43.8204 91.0045 43.3792 90.9651 43.1561 90.9651 42.9275 91.0045 42.7043L91.0045 40.4094ZM127.679 19.1248 127.004 10.9347C126.558 8.70756 125.832 6.54552 124.844 4.49997 123.856 2.39111 121.727 1.05419 119.399 1.08004L117.734 1.08004 115.169 1.395C113.909 1.70997 113.009 1.93494 112.379 2.15991 111.749 2.38489 110.759 3.19496 110.759 4.04986 110.724 4.25847 110.724 4.47134 110.759 4.67995 110.947 5.08556 111.263 5.41786 111.659 5.62484 112.044 5.84033 112.479 5.94897 112.919 5.93981 113.633 5.90872 114.342 5.80335 115.034 5.62484 115.74 5.43014 116.464 5.30939 117.194 5.26488L117.734 5.26488C120.307 5.95453 122.263 8.04998 122.774 10.6648 123.259 13.1993 123.455 15.7807 123.359 18.3597 123.578 19.1632 123.315 20.0212 122.684 20.5646 122.38 20.7559 122.045 20.893 121.694 20.9695L119.039 20.9695C116.853 16.5707 113.791 12.6656 110.039 9.49472 107.16 7.02737 103.986 4.92652 100.589 3.23979 99.1738 2.41401 97.6628 1.76412 96.0894 1.30485L95.6845 1.30485 95.3695 1.30485C94.8543 1.28652 94.3584 1.50135 94.0195 1.88978 93.6811 2.23763 93.502 2.71016 93.5246 3.19496 93.529 3.60515 93.6375 4.00765 93.8395 4.36482 95.9456 5.07083 97.9678 6.0064 99.8693 7.15483L101.129 7.96473C103.927 9.33716 106.469 11.1787 108.644 13.4096 110.33 15.1611 111.837 17.0756 113.144 19.1246L114.719 21.7346 106.799 21.7346 103.469 16.8297C100.993 14.3056 98.1754 12.1398 95.0995 10.3948 92.6814 8.95347 90.1537 7.70458 87.5396 6.65988 86.4656 6.18589 85.3512 5.80924 84.2097 5.53485 83.9744 5.46728 83.725 5.46728 83.4897 5.53485 83.0128 5.51653 82.5578 5.73561 82.2747 6.11995 81.9537 6.53128 81.7796 7.03817 81.7796 7.55978 81.7235 8.25925 82.2124 8.88508 82.9046 8.99978 86.6634 10.2452 90.2591 11.9374 93.6146 14.0399 96.9445 16.1484 99.833 18.8841 102.119 22.0946L94.1545 22.0946 87.1796 17.1898C86.2938 16.4627 85.2673 15.9267 84.1647 15.6148L82.5447 15.2097C82.1733 15.187 81.8161 15.357 81.5998 15.6597 81.3691 15.9707 81.2573 16.3536 81.2848 16.7397 81.2176 17.4617 81.59 18.1534 82.2297 18.4947 84.7219 19.7923 87.1003 21.2974 89.3395 22.9946 91.0045 24.2545 92.6697 25.6497 94.2895 27.0897L96.1794 28.8896 89.5197 28.8896C88.5121 28.9524 87.6173 29.5549 87.1796 30.4646 87.0183 30.9149 86.9126 31.3835 86.8647 31.8596L86.8647 45.3593C87.0366 46.2075 87.5599 46.9432 88.3047 47.3843 88.6918 47.6142 89.0984 47.8098 89.5197 47.9692L121.379 47.9692C122.204 47.6951 122.915 47.1575 123.404 46.4392 123.653 46.1035 123.864 45.7412 124.034 45.3593L124.034 30.9145C123.779 30.1266 123.231 29.4664 122.504 29.0694 122.146 28.8804 121.769 28.7296 121.379 28.6195L101.129 28.6195 97.7994 25.0196 124.799 25.0196C125.913 24.9543 126.9 24.2792 127.364 23.2646 127.588 22.7824 127.725 22.2644 127.769 21.7346L127.769 19.1248Z" fill-rule="evenodd" transform="matrix(1.0023 0 0 -1 196.006 417.18)"/></g></svg>