<svg width="328" height="290" xmlns="http://www.w3.org/2000/svg" xmlns:xlink="http://www.w3.org/1999/xlink" xml:space="preserve" overflow="hidden"><defs><clipPath id="clip0"><rect x="196" y="53" width="328" height="290"/></clipPath></defs><g clip-path="url(#clip0)" transform="translate(-196 -53)"><path d="M0 0-10.3923 0C-10.3473-0.207581-10.3473-0.422196-10.3923-0.629777L-10.3923-0.854861C-8.69943-4.04824-6.56391-6.9866-4.0489-9.58259-1.73164-7.31458 0.158017-4.64759 1.52962-1.70956 1.79953-1.12477 1.79953-0.719745 1.52962-0.404857 1.25972-0.0899682 0.674761 0 0.179936 0ZM-13.0467-27.9379-13.0467-36.9355C-13.0467-37.9254-12.6868-38.4202-11.9219-38.4202L0.539809-38.4202C1.57461-38.4202 2.11442-37.8354 2.11442-36.7106L2.11442-27.713C2.22418-26.8753 1.63399-26.1075 0.7963-25.9977 0.65137-25.9787 0.504313-25.9805 0.359873-26.0034L-11.3371-26.0034C-12.5069-25.7783-13.0017-26.4981-12.8668-27.9379ZM5.75862-26.2283 5.75862-38.1503C5.75862-40.9846 4.58887-42.3343 1.8895-42.1993L-12.6868-42.1993C-15.6559-42.5141-16.9157-41.1644-16.5558-38.1503L-16.5558-26.0034C-16.7807-23.1691-15.5661-21.8196-12.8668-21.9544L2.06943-21.9544C4.63385-21.9544 6.02852-23.394 6.02852-26.2283ZM-8.63776 4.04906 3.05925 4.04906C5.84842 4.04906 6.74827 2.54937 5.75862-0.449841 4.21525-4.90163 1.64069-8.92517-1.75454-12.1918 1.25694-14.4597 4.635-16.1944 8.23291-17.3205 9.2677-17.7254 9.62758-18.6702 9.40266-20.0649 9.17757-21.4595 8.23291-21.9993 7.06316-21.5495 2.74207-20.1756-1.28556-18.0093-4.81379-15.1611-8.59065-17.6974-12.6525-19.7812-16.9157-21.3696-17.8788-21.832-19.0345-21.4262-19.4969-20.463-19.5241-20.4066-19.5484-20.3487-19.57-20.2898-20.1303-19.2936-19.7768-18.0317-18.7806-17.4717-18.6735-17.4113-18.5614-17.3609-18.4453-17.3205-14.5935-16.0389-10.9084-14.3022-7.46818-12.1468-9.59224-9.82616-11.4068-7.24048-12.8668-4.45392L-13.2266-4.90376C-14.1046-6.36664-15.1459-7.72516-16.3309-8.95265-17.5906-10.0923-18.6702-10.2273-19.57-9.35751-20.3348-8.36769-20.1998-7.24309-19.1652-5.93839-16.1614-2.36207-13.7331 1.65999-11.9669 5.98354-11.4721 7.37805-10.5722 7.82805-9.31269 7.24326-8.21589 6.58093-7.83836 5.17039-8.45783 4.04906ZM-32.4368 0.225084-32.4368-6.3884C-32.4368-7.64795-32.0769-8.23291-30.9072-8.09795L-25.4634-8.09795C-24.5638-8.09795-24.1139-7.60313-24.1139-6.61332L-24.1139 0.450004C-24.1139 1.43982-24.6088 1.93464-25.6435 1.93464L-30.7272 1.93464C-31.897 1.93464-32.3918 1.34969-32.2569 0.225084ZM-23.439-11.9219-25.4634-11.9219-25.4634-20.2448-20.29-20.2448C-19.3901-20.2448-18.8953-21.0995-18.7602-22.3592-18.6252-23.6189-19.3901-24.2939-20.29-24.2939L-25.4634-24.2939-25.4634-35.5858C-23.6379-35.0793-21.8492-34.448-20.1098-33.6964-19.21-33.6964-18.5352-34.0562-18.1754-35.181-17.8155-36.3058-18.1754-37.0257-18.9403-37.2954-24.4679-39.3819-30.1971-40.8897-36.0359-41.7943-37.1454-41.8208-38.0783-40.9673-38.1503-39.8598-38.1503-38.6003-37.7454-37.9703-36.5757-37.9703-36.0226-37.7749-35.4192-37.7749-34.8661-37.9703L-34.8661-19.9749C-34.9947-19.0396-34.3407-18.177-33.4053-18.0484-33.3825-18.0452-33.3595-18.0427-33.3365-18.0404-32.349-18.1533-31.5981-18.981-31.5819-19.9749L-31.5819-37.4755-30.4572-37.4755C-29.9512-37.5629-29.4337-37.5629-28.9277-37.4755L-28.9277-12.7318-32.6617-12.7318C-34.8211-13.1816-35.8109-11.742-35.5409-8.23291L-35.5409 2.15956C-35.8109 4.679-34.7761 5.89357-32.4818 5.75862L-24.2039 5.75862C-22.5334 6.01233-20.9737 4.86384-20.72 3.19338-20.6678 2.85019-20.6745 2.50046-20.7398 2.15956L-20.7398-8.50281C-20.6498-11.0671-21.5045-12.2368-23.439-11.9219" transform="matrix(1.0023 0 0 -1 296.391 373.724)"/><path d="M0 0 0 23.2591C0 24.5189-0.539809 25.2387-1.16975 25.3736L-6.16348 25.3736-6.16348-1.93448-1.34969-1.93448C-0.719745-1.75454-0.314889-1.1246-0.179936 0ZM-24.7887-1.93448-9.80751-1.93448-9.80751 5.12884-24.9686 5.12884ZM-9.80751 15.5661-24.9686 15.5661-24.9686 8.95265-9.80751 8.95265ZM-24.7887 19.615-9.80751 19.615-9.80751 25.3736-24.9686 25.3736ZM-33.7865-1.93448-28.7928-1.93448-28.7928 25.3736-33.7865 25.3736C-34.5314 25.4006-35.1571 24.819-35.1843 24.074-35.1893 23.9356-35.173 23.7974-35.136 23.6641L-35.136 0C-35.136-1.25955-34.6862-1.93448-33.7865-1.93448M-38.7802 39.0051 3.05925 39.0051C4.07719 38.9665 4.87104 38.11 4.83244 37.0921 4.82982 37.0247 4.8236 36.9575 4.81379 36.8906 4.81379 35.631 4.229 34.9561 3.05925 34.9561L-15.926 34.9561C-16.4658 33.4266-17.1407 31.5819-18.0404 29.4225L-0.40502 29.4225C1.75454 29.5218 3.58531 27.8517 3.68444 25.6921 3.69638 25.4353 3.68281 25.178 3.64404 24.9236L3.64404-2.33934C3.64404-4.4989 2.1594-5.6235-0.40502-5.75845L-34.5512-5.75845C-37.7454-5.75845-39.0501-4.67884-39.0501-2.1594L-39.0501 25.3736C-39.0501 28.0729-37.7904 29.4225-34.8213 29.4225L-22.5393 29.4225C-21.5691 31.1987-20.7418 33.0491-20.065 34.9561L-38.7802 34.9561C-39.844 34.8568-40.7868 35.6385-40.8863 36.7023-40.8922 36.7649-40.895 36.8279-40.8946 36.8907-40.8707 38.0485-39.9379 38.9812-38.7802 39.0051" transform="matrix(1.0023 0 0 -1 351.449 408.05)"/><path d="M0 0C-0.0525087-0.129881-0.0525087-0.275139 0-0.40502 1.21637-1.73181 2.31513-3.16181 3.284-4.67884 3.9339-5.73653 3.68166-7.11403 2.69921-7.87303 1.66457-8.59278 0.854698-8.36786 0.22492-7.24309L-1.34969-4.90392C-1.85711-4.08014-2.42881-3.29791-3.05925-2.56442-3.82561-1.79249-3.82561-0.547007-3.05925 0.22492-2.19228 0.969857-0.885778 0.870728-0.140841 0.00376231-0.0906225-0.0546352-0.0436755-0.116141 0-0.1801ZM-12.4619 33.2915-12.4619 25.1937-0.944829 25.1937C-1.34969 27.623-1.66474 30.8622-1.93448 35.0011L-9.98761 35.0011C-11.7871 34.9561-12.5969 34.3713-12.4619 33.1116ZM2.87931 25.3735 14.5762 25.3735C15.611 25.3735 16.1959 24.5188 16.3307 23.2589 16.4656 21.9993 15.611 21.3244 14.5762 21.3244L3.86896 21.3244C6.16348 7.24309 8.8177-0.719745 11.742-2.56442 12.3626-2.58977 12.8862-2.10705 12.9116-1.48644 12.9116-1.48595 12.9117-1.48529 12.9117-1.48464 12.9117-1.07995 13.2265 1.21473 13.4514 5.3536 13.4514 6.47836 14.1263 6.97319 15.386 6.83824 16.3762 6.74401 17.1239 5.89799 17.0956 4.90376 17.0956-3.59922 15.386-7.87303 12.5967-7.87303 7.10814-6.88322 2.75924 2.84921-0.450004 21.3244L-12.4619 21.3244-12.4619 0.449841C-12.4619-0.584957-12.1019-0.854861-11.3373-0.40502-8.60832 1.39385-6.08839 3.49142-3.82414 5.84842-3.11045 6.64358-1.88737 6.70966-1.09238 5.99581-1.04052 5.94951-0.991286 5.90011-0.944829 5.84842-0.104854 4.9494-0.104854 3.55342-0.944829 2.65439-3.95009-0.443952-7.37216-3.10897-11.1122-5.26379-14.1715-6.97335-15.6111-5.93855-15.881-2.24953L-15.881 34.3713C-15.881 37.2054-14.3514 38.87-10.8873 38.87-3.17702 38.855 4.52327 39.4263 12.1468 40.5796 13.2724 40.6674 14.3051 39.9539 14.6213 38.87 14.6213 37.4304 13.9914 36.6656 12.6868 36.5307 9.32218 35.9673 5.92694 35.6068 2.51927 35.4511 2.4419 32.446 2.57718 29.4392 2.92413 26.4533 2.70215 26.0667 2.68514 25.5951 2.87931 25.1937ZM-21.6845 29.8724-21.6845-7.01817C-21.6845-8.00799-22.4494-8.5478-23.6191-8.68291-24.7889-8.81786-25.3287-8.00799-25.3287-7.01817L-25.3287 22.8542C-25.8284 21.2336-26.6047 19.7115-27.623 18.3553-28.5229 17.0956-29.4677 16.8257-30.5023 17.5456-31.2448 18.5478-31.2448 19.9175-30.5023 20.9197-26.8712 27.0493-24.1008 33.6496-22.2694 40.5348-21.9854 41.5202-20.9672 42.0992-19.9749 41.8393-18.9821 41.6109-18.3625 40.621-18.5909 39.6282-18.6008 39.585-18.6123 39.5422-18.6252 39.5-19.4727 36.2385-20.4938 33.0247-21.6845 29.8724" transform="matrix(1.0023 0 0 -1 393.249 407.87)"/><path d="M0 0 0-5.98337 10.3923-5.98337C11.4091-6.04684 12.1822-6.92215 12.1189-7.93896 12.1154-7.99212 12.1099-8.04528 12.1019-8.09795 12.1019-9.53761 11.5171-10.2574 10.3923-10.2574L0-10.2574 0-18.1304 12.282-18.1304C13.3001-18.169 14.0939-19.0257 14.0553-20.0434 14.0527-20.1108 14.0465-20.1782 14.0367-20.245 14.0367-21.6845 13.4516-22.4044 12.282-22.4044L-17.0056-22.4044C-18.3103-22.4044-18.9401-21.6845-18.9401-20.245-19.0396-19.1812-18.2577-18.2382-17.1939-18.1387-17.1314-18.133-17.0686-18.1301-17.0056-18.1304L-3.77899-18.1304-3.77899-10.3473-14.1263-10.3473C-15.431-10.3473-16.1058-9.62741-16.2407-8.18792-16.217-7.03011-15.2841-6.09723-14.1263-6.07351L-3.77899-6.07351-3.77899-0.0899682C-3.77899 1.0348-3.14905 1.66474-1.84435 1.84451-0.830815 1.75503-0.0412218 0.926836 0-0.0899682ZM0-25.3735 0-30.907 10.5724-30.907C11.6195-31.0688 12.3651-32.0102 12.282-33.0667 12.282-34.3263 11.607-34.9561 10.5724-34.9561L0-34.9561 0-44.3587 13.0917-44.3587C14.2164-44.3587 14.8464-45.0785 14.9813-46.4733 15.0337-47.5837 14.1994-48.5372 13.0917-48.6327L-19.5249-48.6327C-20.5932-48.615-21.445-47.7347-21.4273-46.6665-21.4262-46.602-21.4221-46.5374-21.4144-46.4733-21.4144-45.0785-20.7848-44.3587-19.5249-44.3587L-3.95893-44.3587-3.95893-34.9561-14.7113-34.9561C-15.7474-35.0804-16.6881-34.3412-16.8123-33.3051-16.8218-33.2259-16.8262-33.1462-16.8255-33.0667-16.8029-31.9009-15.8763-30.9545-14.7113-30.907L-3.95893-30.907-3.95893-25.3735C-2.69921-23.2141-1.34952-23.2141 5.23033e-15-25.3735M-26.3183-1.79953C-23.8604-4.06738-21.5466-6.48654-19.3899-9.04262-18.6936-10.0761-18.6936-11.4284-19.3899-12.4619-20.2898-13.4516-21.1895-13.4066-22.0893-12.4619-22.5138-12.175-22.8928-11.8262-23.2141-11.4269-25.9133-8.41284-27.7128-6.29843-28.9725-4.99356-29.7765-4.49857-30.0268-3.44545-29.5318-2.64147-29.4858-2.56687-29.4342-2.49604-29.3776-2.42947-28.6742-1.39729-27.2744-1.1174-26.2283-1.79953ZM-24.6086-30.3674C-24.0689-29.2426-23.3041-28.7928-22.2693-29.1075-21.3697-29.7032-20.9824-30.8288-21.3244-31.8518-22.8199-37.1873-24.8863-42.3457-27.4879-47.2379-27.9466-48.3698-29.2246-48.9289-30.3672-48.4976-31.3569-47.7779-31.492-46.788-30.7272-45.5283-28.463-41.0829-26.5962-36.4461-25.1486-31.6719-24.9987-31.2105-24.7867-30.7716-24.5188-30.3674ZM-29.1075-15.026C-26.1194-17.2361-23.2929-19.6566-20.6497-22.2694-19.8179-23.2573-19.8179-24.7005-20.6497-25.6884-21.5493-26.6782-22.4492-26.5432-23.3489-25.2385L-31.492-18.4453C-32.4939-17.6982-32.7489-16.3047-32.0768-15.2511-31.492-14.3964-30.3672-14.3062-29.1075-15.026" transform="matrix(1.0023 0 0 -1 446.728 367.651)"/><path d="M0 0-302.998 0C-315.91 2.42947-315.37 15.1611-306.372 30.907L-163.399 280.819C-158 289.187-144.503 294.585-136.406 280.819L3.68902 36.2156C13.2265 21.3696 21.9544-0.269905 0 0" fill="#FFCC01" fill-rule="evenodd" transform="matrix(1.0023 0 0 -1 509.857 342.412)"/><path d="M0 0-134.966-233.941 134.966-233.941ZM149.992-257.829-153.006-257.829C-165.918-255.4-165.378-242.668-156.38-226.922L-13.4066 22.9892C-8.00799 31.357 5.48855 36.7556 13.5865 22.9892L153.681-221.614C163.218-236.595 171.946-258.099 150.172-257.605Z" fill-rule="evenodd" transform="matrix(1.0023 0 0 -1 359.52 84.5825)"/><path d="M0 0 269.302 0 134.696 233.491ZM269.932-0.359873-0.539809-0.359873 134.696 234.211 134.696 233.941ZM135.551 265.073C129.772 264.75 124.515 261.626 121.469 256.705L-21.5045 6.8384C-27.533-3.68902-29.4675-12.4168-26.9932-17.8153-25.2812-21.1561-21.9985-23.4066-18.2653-23.7989L285.227-23.7989C289.79-24.455 294.336-22.5112 297.015-18.7603 301.513-10.5273 292.516 5.57868 288.242 12.1019L147.922 256.75C145.721 261.515 141.101 264.704 135.866 265.073ZM285.227-24.1587-18.3105-24.1587C-22.1721-23.7593-25.5639-21.419-27.3081-17.9503-29.8724-12.4619-27.8929-3.59905-21.8196 7.01817L121.154 256.93C124.265 261.957 129.646 265.135 135.551 265.433L135.866 265.433C141.257 265.11 146.032 261.84 148.282 256.93L288.557 12.3268C292.741 5.71363 302.053-10.5722 297.554-18.9401 294.772-22.8823 289.995-24.9048 285.227-24.1587" transform="matrix(1.0023 0 0 -1 224.515 318.433)"/><path d="M0 0C-14.0606-11.9052-31.9659-18.3-50.3873-17.9954-68.8085-18.3-86.7138-11.9052-100.775 0L-134.516 0-134.516-35.9907 33.2917-35.9907 33.2917 0Z" transform="matrix(1.0023 0 0 -1 410.654 259.363)"/></g></svg>