<svg width="328" height="290" xmlns="http://www.w3.org/2000/svg" xmlns:xlink="http://www.w3.org/1999/xlink" xml:space="preserve" overflow="hidden"><defs><clipPath id="clip0"><rect x="196" y="53" width="328" height="290"/></clipPath></defs><g clip-path="url(#clip0)" transform="translate(-196 -53)"><path d="M0 0-14.7821 0-14.7821-12.8052-2.15659-12.8052C-1.01673-12.8662-0.142159-13.8394-0.203035-14.9792-0.206839-15.0488-0.21393-15.1178-0.224652-15.1866-0.224652-16.6692-0.853644-17.388-2.15659-17.388L-14.7821-17.388-14.7821-33.0237 0.628992-33.0237C1.76799-32.9483 2.75273-33.8101 2.8283-34.9491 2.83332-35.026 2.83418-35.1035 2.83055-35.1805 2.85684-36.4373 1.88404-37.4894 0.628992-37.5617L-34.9558-37.5617C-36.2709-37.5617-37.3371-36.4955-37.3371-35.1805-37.3436-33.9894-36.3833-33.0187-35.1922-33.0121-35.1132-33.0118-35.0343-33.0156-34.9558-33.0237L-19.3199-33.0237-19.3199-17.388-30.8222-17.388C-33.2783-15.9503-33.2783-14.4525-30.8222-12.8951L-19.3199-12.8951-19.3199 0-32.4397 0C-33.6242-0.124173-34.6852 0.735524-34.8092 1.92018-34.8175 1.9987-34.8215 2.07773-34.8209 2.15659-34.7485 3.40472-33.6889 4.36438-32.4397 4.31319L-19.4099 4.31319C-20.1288 5.75103-20.9824 7.36839-22.0158 9.12081-23.0493 10.8731-22.4651 11.3673-21.1621 12.3557-19.9449 12.9885-18.4474 12.6236-17.6576 11.5022-16.2435 9.27145-15.1541 6.85094-14.4227 4.31319L-0.0899301 4.31319C1.09127 4.28949 2.04297 3.33762 2.06684 2.15659 2.00682 0.718749 1.31799 0 0 0M-42.0997 10.4238-35.8095 4.98714C-34.9586 4.05948-34.9586 2.63495-35.8095 1.70729-36.8428 0.718749-37.7864 0.628992-38.64 1.70729-40.3923 2.96527-42.549 4.80746-45.1549 7.09894-46.0919 7.6093-46.4377 8.78271-45.9273 9.71971-45.8405 9.87899-45.7317 10.0253-45.6042 10.1541-44.6551 11.0799-43.1792 11.1935-42.0997 10.4238M-44.9303-1.97708C-43.0431-3.41475-41.3808-4.80763-39.943-6.11058-39.2028-6.75098-38.4057-7.32256-37.5617-7.81787-36.5492-8.73204-36.4495-10.2864-37.3371-11.3225-38.087-12.2158-39.4188-12.3322-40.3122-11.5825-40.4061-11.5034-40.4931-11.4166-40.5721-11.3225-42.7737-9.4354-45.065-7.54825-47.761-5.66127-48.6489-5.11564-48.9263-3.95347-48.3807-3.06558-48.33-2.98291-48.2729-2.9044-48.2101-2.83055-47.5013-1.74205-46.08-1.37213-44.9303-1.97708M-39.943-16.7142C-39.4937-15.2764-38.5051-14.7823-36.8878-15.1866-35.5739-15.5562-34.8087-16.921-35.1784-18.2347-35.1791-18.237-35.1796-18.2394-35.1803-18.2418-37.3535-24.8916-40.3736-31.2341-44.1664-37.1126-45.0512-38.3628-46.7336-38.7497-48.0754-38.011-49.3784-37.1126-49.5131-35.9893-48.4798-34.5065-44.5531-29.1579-41.6579-23.124-39.943-16.7142" transform="matrix(1.00231 0 0 -1 235.936 376.497)"/><path d="M0 0C2.67957-2.61576 5.21422-5.3754 7.59321-8.26717 8.30505-9.19103 8.13331-10.517 7.20963-11.229 7.18801-11.2454 7.16622-11.2617 7.14391-11.2776 6.47497-12.1089 5.25884-12.2404 4.4275-11.5714 4.31924-11.4842 4.22066-11.3858 4.1335-11.2776L3.45954-10.6036C0.718922-7.54825-1.43767-5.167-3.05538-3.45971-3.9552-2.7574-4.11534-1.45877-3.41302-0.558604-3.37134-0.505165-3.32689-0.453628-3.27985-0.40434-2.43624 0.540618-1.00774 0.677589 0-0.0899301ZM-16.085 1.0783C-14.7373-0.412987-13.5056-2.0051-12.4008-3.68437-11.637-5.12204-11.8166-6.2453-12.8052-6.96439-13.9572-7.24491-15.1645-6.80079-15.8604-5.84096-16.7142-4.7177-17.8823-3.28003-19.3201-1.34791-20.1637-0.616367-20.2547 0.660467-19.5231 1.50408-19.4604 1.57654-19.3924 1.64451-19.3201 1.70729-18.4158 2.44385-17.0855 2.30774-16.3491 1.40326-16.2452 1.2758-16.1566 1.13658-16.085 0.988539ZM-23.9029 25.8348-13.0298 25.8348C-12.3554 27.0954-11.7698 28.4017-11.2774 29.7437L-11.2774 30.3729-25.6102 30.3729C-25.4755 29.8786-24.8914 28.351-23.9029 25.7449ZM-26.0597 0.224652-26.0597-6.96422C-26.0597-7.95259-25.3407-8.53679-23.9029-8.67168L-10.8732-8.67168C-9.20469-8.92297-7.64821-7.77411-7.39675-6.10574-7.38343-6.01788-7.3741-5.92951-7.36856-5.84096-6.96422-4.40312-6.06561-3.81909-4.76266-4.1335-3.52457-4.46399-2.77019-5.71506-3.05538-6.96422-3.22693-10.3594-6.11853-12.9726-9.51374-12.801-9.66783-12.7932-9.82158-12.7796-9.97446-12.7602L-24.9812-12.7602C-28.7555-12.7602-30.4628-11.0979-30.1932-7.32377L-30.1932 0.0449651C-30.2924 1.13225-29.4914 2.09399-28.4041 2.19343-28.3416 2.19914-28.279 2.20173-28.2163 2.20156-27.0684 2.18029-26.1297 1.28064-26.0597 0.134722ZM-34.2819 9.97446-34.2819 8.26717C-34.2819 7.36856-34.2819 6.96422-33.2036 6.96422L-3.45954 6.96422C-2.84888 6.85527-2.26555 7.26203-2.15659 7.87269-2.13342 8.00309-2.13342 8.13677-2.15659 8.26717L-2.15659 9.70484ZM-34.5064 14.9618-34.5064 13.0298-2.38142 13.0298-2.38142 14.6472C-2.38142 15.546-2.74079 15.9503-3.45954 15.9503L-33.2034 15.9503C-34.1022 15.8154-34.5064 15.456-34.5064 14.8718ZM-34.5064 19.4548-2.15659 19.4548C0.718922 19.4548 2.06684 18.3765 1.93194 15.7705L1.93194 7.27863C1.93194 4.52297 0.434259 3.22002-2.56111 3.36961L-34.9109 3.36961C-37.8313 3.10017-39.1343 4.44808-38.8197 7.50328L-38.8197 15.546C-38.9546 18.2866-37.5617 19.5895-34.5064 19.4548M-38.011-0.763887C-37.7108 0.260106-36.6374 0.846726-35.6134 0.546325-35.462 0.501879-35.3166 0.439101-35.1805 0.359375-34.0897-0.232089-33.6851-1.59574-34.2767-2.68632-34.2784-2.6896-34.2801-2.69271-34.2819-2.69583-36.0251-5.53018-37.9934-8.21961-40.1676-10.7383-41.3359-11.8616-42.4142-12.0864-43.4027-11.3673-44.2959-10.6569-44.4441-9.35671-43.7335-8.46346-43.6362-8.34084-43.5251-8.22982-43.4027-8.13228-41.3554-5.86932-39.5487-3.39988-38.011-0.763887M2.83055 30.2829-6.51492 30.2829C-7.05311 29.2494-7.48945 28.1659-7.81787 27.0479-8.13228 26.0147-8.26717 25.6102-8.26717 25.7449L4.98714 25.7449C6.29027 25.7449 6.91926 24.9362 6.91926 23.7682 6.91926 22.6 6.29027 22.0609 4.98714 22.0609L-42.3242 22.0609C-43.3117 21.9604-44.1937 22.6799-44.2939 23.6674-44.2973 23.7007-44.2997 23.7343-44.3013 23.7682-44.2555 24.8404-43.3966 25.6994-42.3242 25.7449L-28.4409 25.7449C-28.7555 26.3291-29.3845 27.8567-30.4178 30.2381L-39.4039 30.2381C-40.4435 30.1632-41.3467 30.9453-41.4215 31.9847-41.426 32.0464-41.4273 32.1083-41.4258 32.1701-41.3786 33.2344-40.5139 34.0795-39.4489 34.102L-20.3534 34.102-21.0274 34.776C-21.3683 35.3309-21.6541 35.9179-21.881 36.5284-22.7348 37.8313-22.555 38.8197-21.252 39.5386-20.0598 40.1502-18.5975 39.6796-17.9858 38.4875-17.9812 38.4783-17.9767 38.4693-17.972 38.4603-17.7467 37.7917-17.461 37.1451-17.1184 36.5284-16.6637 35.6867-16.1532 34.8759-15.5908 34.102L2.6059 34.102C3.66292 34.0783 4.51432 33.2271 4.53801 32.1701 4.40312 30.867 3.81909 30.2829 2.83055 30.2829" transform="matrix(1.00231 0 0 -1 289.978 402.467)"/><path d="M0 0-21.6114 0C-23.2289 0-23.9479-0.718922-23.7682-2.15677L-23.7682-7.81787C-23.7682-9.83974-23.0493-10.7833-21.1621-10.6484L0.314582-10.6484C1.75225-10.6484 2.56111-9.74998 2.69583-8.04252L2.69583-2.83055C2.69583-0.943574 1.84218 0 0.0899301 0ZM-23.6782 3.90902 2.38142 3.90902C5.30173 3.90902 6.87429 2.51614 6.87429-0.224652L6.87429-10.6484C6.98757-12.7298 5.392-14.5088 3.31081-14.6221 2.99951-14.6389 2.68735-14.6171 2.38142-14.5574L-8.80623-14.5574-8.80623-20.3984 8.76144-20.3984C9.81743-20.4422 10.6704-21.2756 10.7383-22.3303 10.7383-23.6333 10.0194-24.3074 8.98609-24.3074L-7.54825-24.3074C-2.9549-30.5259 3.40005-35.2218 10.6934-37.7864 11.6439-38.3725 11.9394-39.618 11.3532-40.5685 11.3431-40.5849 11.3329-40.601 11.3224-40.6169 10.6036-41.9201 9.66005-42.3692 8.49182-41.9201 1.65783-38.9761-4.31163-34.3367-8.8512-28.4409L-8.8512-43.8518C-8.92331-44.983-9.87502-45.8552-11.008-45.8289-12.3109-45.8289-12.9849-45.11-12.9849-44.0766L-12.9849-28.4409C-16.837-34.0693-22.1491-38.5425-28.351-41.3806-29.4431-41.8246-30.6909-41.3295-31.1815-40.2576-31.797-39.6099-31.7709-38.5861-31.1233-37.9709-31.0072-37.8606-30.8754-37.768-30.7324-37.6966-24.1955-34.4534-18.422-29.8589-13.7935-24.2173L-29.2046-24.2173C-30.3729-24.2173-30.9569-23.7682-30.9569-22.9144-30.9569-22.0609-30.0135-20.5781-28.98-20.3085L-12.9399-20.3085-12.9399-14.4225-23.9927-14.4225C-26.5987-14.4225-27.9017-12.9399-27.9017-9.92967L-27.9017-0.224652C-28.0366 2.51614-26.5987 3.90902-23.5885 3.90902ZM-32.6643-8.44686-32.6643-43.8518C-32.76-45.107-33.8329-46.0606-35.0906-46.0086-36.3935-46.0086-37.0225-45.065-37.0225-43.6273L-37.0225-16.0401C-37.373-16.4275-37.661-16.8671-37.8761-17.343L-38.9994-18.9156C-40.1676-20.0838-41.2461-20.1288-42.2794-18.9156-42.9987-17.793-42.9987-16.354-42.2794-15.2314-37.8965-10.1573-35.1001-3.90833-34.2369 2.74079-34.2155 4.20458-33.0113 5.37384-31.5475 5.35257-31.5004 5.35188-31.4532 5.34998-31.4064 5.34669-29.9685 5.07707-29.3393 3.99878-29.4742 2.1118-30.2106-1.49837-31.2784-5.03297-32.6643-8.44686" transform="matrix(1.00231 0 0 -1 346.09 369.353)"/><path d="M0 0C2.05006-2.38349 3.80041-5.00911 5.21197-7.81787 5.79945-8.88233 5.41293-10.2216 4.34847-10.8093 4.33671-10.8157 4.32512-10.8221 4.31336-10.8283 3.31358-11.3257 2.10004-10.9187 1.60249-9.91894 1.57481-9.86378 1.55008-9.8074 1.5276-9.74998 0.26097-7.30163-1.24398-4.98386-2.96527-2.83072-3.74697-2.14137-3.82186-0.948763-3.13233-0.167235-3.08045-0.108089-3.02442-0.0522286-2.96527 8.2562e-16-2.17008 0.81871-0.8616 0.837906-0.0427168 0.0427168-0.0283626 0.0287085-0.0140083 0.0143542 0 0M9.74998 30.4178 9.74998 26.5088 23.6333 26.5088C24.6668 26.5088 25.251 25.5652 25.3857 24.0826 25.5204 22.5998 24.5769 22.1505 23.4536 22.1505L9.97463 22.1505 9.97463 16.085 25.6104 16.085C26.7303 15.968 27.5719 15.009 27.5423 13.8833 27.5423 12.4456 26.7786 11.7267 25.6104 11.7267L19.7244 11.7267 19.7244 6.51474 25.835 6.51474C26.8236 6.51474 27.4076 5.57134 27.5423 4.13333 27.677 2.69565 26.7786 2.20139 25.6104 2.20139L19.7244 2.20139 19.7244-9.97463C20.623-18.0621 15.2314-20.5333 3.90902-17.3432 2.29149-16.9389 1.57257-16.0402 1.70746-14.7373 2.21816-13.5523 3.50814-12.9074 4.76266-13.2097 12.2661-15.2764 15.8154-14.5126 15.4111-11.0529L15.4111 2.42604-6.51492 2.42604C-7.48236 2.39992-8.28775 3.16295-8.31387 4.13039-8.31819 4.28258-8.30228 4.43476-8.26717 4.5828-8.58054 4.24453-8.94441 3.95675-9.34547 3.72899-10.2318 3.12057-11.1807 2.60849-12.176 2.20139-12.7251 1.8114-13.2951 1.45133-13.8833 1.12309L-13.8833-12.3559C-13.8833-17.7026-16.8489-19.5448-22.8694-17.7925-24.0586-17.3935-24.7949-16.204-24.6217-14.9619-24.3711-13.8992-23.3064-13.241-22.2437-13.4916-22.0867-13.5288-21.9346-13.5848-21.7911-13.6588-19.3649-14.2429-18.1069-13.6588-18.1069-12.5805L-18.1069-0.763887C-18.8257-1.0783-20.1288-1.48281-22.0158-2.06684L-22.8694-2.06684C-23.837-2.4333-24.9195-1.95235-25.2958-0.988539-25.6524 0.102382-25.1801 1.29257-24.1723 1.84201-23.6559 1.90479-23.1542 2.05681-22.6897 2.29132-21.1438 2.81654-19.6414 3.46248-18.1968 4.22326L-18.1968 16.714-22.6897 16.714C-23.9927 16.714-24.7116 17.433-24.8465 18.9156-24.9041 20.1016-24.0459 21.1353-22.8694 21.2968L-18.1067 21.2968-18.1067 29.2946C-18.1067 30.4628-17.4779 31.1366-16.1748 31.2713-15.0417 31.2773-14.0889 30.4218-13.9732 29.2946L-13.9732 21.297-9.48019 21.297C-8.31577 21.2323-7.42425 20.2358-7.48893 19.0712-7.4917 19.0194-7.49654 18.9673-7.50328 18.9156-7.50328 17.433-8.17724 16.714-9.48019 16.714L-13.9732 16.714-13.9732 5.43662C-12.8918 5.96842-11.8806 6.63252-10.963 7.41335-9.34547 8.13228-8.35693 7.41335-7.9078 5.88575-7.61206 6.30756-7.11883 6.5457-6.60467 6.51492L15.3213 6.51492 15.3213 11.7267-7.36839 11.7267C-8.53662 11.7267-9.21074 12.4456-9.34547 13.8833-9.37314 15.0249-8.50652 15.9901-7.36839 16.085L5.43662 16.085 5.43662 22.1505-5.88575 22.1505C-8.17724 23.5883-8.13228 25.026-5.6611 26.6437L5.43679 26.6437 5.43679 30.6873C5.43679 31.7057 6.15554 32.2897 7.59321 32.4395 8.74276 32.4651 9.70138 31.5663 9.74998 30.4178" transform="matrix(1.00231 0 0 -1 388.693 396.491)"/><path d="M0 0-1.97691-5.03228 24.5321-5.03228C26.1045-5.03228 26.9583-5.88593 27.138-7.18887 27.0757-8.45291 26.0005-9.42727 24.7365-9.36484 24.6682-9.36155 24.5999-9.35515 24.5321-9.34564L-3.68437-9.34564-9.97446-21.926 2.42621-21.926 2.42621-14.5576C2.42621-13.3894 3.14531-12.7602 4.58298-12.6255 6.02065-12.4908 6.8295-13.3894 6.96439-14.5576L6.96439-21.926 22.4651-21.926C23.7132-21.9225 24.7522-22.8831 24.8465-24.1277 24.8465-25.5654 24.1276-26.2843 22.6897-26.2843L6.96439-26.2843 6.96439-33.2485 26.5088-33.2485C28.0815-33.2485 28.8902-34.1921 28.8902-35.6298 28.8902-37.0676 27.9017-37.5617 26.2841-37.5617L6.96422-37.5617 6.96422-47.761C6.98342-49.0415 6.06924-50.1462 4.80763-50.3669 3.18992-50.3669 2.42621-49.9626 2.42621-48.6596L2.42621-37.5617-21.8809-37.5617C-23.1691-37.5617-23.7531-36.843-23.6333-35.4051-23.6094-34.2241-22.6577-33.2724-21.4767-33.2485L2.42621-33.2485 2.42621-26.0597-12.76-26.0597C-15.5458-26.0597-16.2647-24.4871-14.9618-21.5666L-8.67151-9.16578-19.9491-9.16578C-21.1171-9.16578-21.7461-8.44703-21.8809-7.00919-21.9089-5.89232-21.062-4.94719-19.9491-4.85259L-6.91926-4.85259-4.08871 1.66232C-3.59582 2.77382-2.29512 3.27536-1.18362 2.78264-0.185048 2.33974 0.337757 1.23187 0.0449651 0.179687Z" transform="matrix(1.00231 0 0 -1 446.607 366.073)"/><path d="M0 0 14.5125 0C15.546 0 16.13 0.628992 16.2647 1.93194L16.2647 10.918C16.3981 11.8765 15.7291 12.7616 14.7705 12.8949 14.6104 12.9171 14.448 12.9171 14.2878 12.8949L0 12.8949ZM0 30.3729 21.252 30.3729C22.1057 30.3729 22.6447 29.609 22.7796 28.4407 22.9144 27.2725 22.1057 26.4638 21.252 26.4638L1.25798 26.4638C0.224652 26.4638-0.224652 25.8798-0.0449651 24.7564L-0.0449651 16.8937 16.4444 16.8937C18.1865 17.2901 19.9202 16.1992 20.3166 14.4571 20.4096 14.0476 20.4223 13.6237 20.3533 13.2095L20.3533-0.26979C20.3533-2.87569 19.2751-4.04374 16.6692-3.72916L0-3.72916 0-12.4008C-0.179687-13.1196 0.179687-13.479 1.0783-13.479L21.7013-13.479C22.6639-13.3799 23.5248-14.0798 23.6241-15.0424 23.6307-15.1051 23.6336-15.1683 23.6333-15.2314 23.6333-16.5343 22.9144-17.2533 21.926-17.3882L-0.269617-17.3882C-3.44467-17.8375-4.74762-16.3396-4.17846-12.8951L-4.17846 25.8798C-4.89739 29.3393-3.54947 30.9569 0 30.3729M-21.7913 25.2958-21.7913 19.0055C-21.7913 18.1517-21.4317 17.7024-20.713 17.7024L-12.4906 17.7024C-11.4573 17.7024-10.963 18.0618-10.963 19.23L-10.963 25.5203C-10.963 26.2394-11.4573 26.5987-12.4906 26.5987L-20.4883 26.5987C-21.6114 26.5987-22.1506 26.1944-21.971 25.2958ZM-21.7913 30.7322-11.1427 30.7322C-8.38702 30.7322-7.08407 29.4293-7.23367 26.8234L-7.23367 17.4779C-7.23367 14.7371-8.40189 13.4342-10.6934 13.5689L-13.479 13.5689-13.479 4.5828-7.86283 4.5828C-6.82258 4.51933-6.03068 3.62453-6.09415 2.58428-6.09743 2.53136-6.10279 2.47861-6.11058 2.42604-6.10539 1.45842-6.88571 0.669806-7.85349 0.664618-7.91662 0.664272-7.97974 0.667385-8.04252 0.673784L-13.479 0.673784-13.479-10.379C-11.784-9.82313-10.1192-9.17806-8.49182-8.44703-7.55413-7.99219-6.42516-8.38373-5.97032-9.32125-5.93833-9.38767-5.91014-9.4558-5.88575-9.52533-5.38906-10.4416-5.72924-11.587-6.64549-12.0837-6.67627-12.1004-6.70775-12.1164-6.73957-12.1312-13.1642-14.487-19.7779-16.2907-26.5088-17.5229-27.5101-17.8119-28.5563-17.2344-28.8453-16.2332-28.8636-16.1696-28.8785-16.1053-28.8902-16.0402-29.2389-15.2447-28.8769-14.3172-28.0814-13.9686-27.8553-13.8693-27.6091-13.8249-27.3626-13.8387L-26.7335-13.8387-25.88-13.8387-25.88 4.26839C-26.0173 5.20107-25.3727 6.0689-24.4397 6.20656-24.2616 6.23285-24.0803 6.2306-23.9029 6.20034-22.8431 6.32433-21.8835 5.56598-21.7593 4.50619-21.7501 4.42733-21.7456 4.34777-21.7461 4.26839L-21.7461-12.6705C-20.3384-12.4382-18.9547-12.0773-17.6126-11.592L-17.6126 13.5689-22.1057 13.5689C-24.8914 13.5689-26.1944 14.7371-26.0147 17.0736L-26.0147 27.2725C-26.1944 29.564-24.8015 30.7322-21.7913 30.7322" transform="matrix(1.00231 0 0 -1 509.655 396.177)"/><path d="M0 0-302.605 0C-315.5 2.42621-314.961 15.1415-305.975 30.867L-163.187 280.455C-157.795 288.812-144.316 294.248-136.229 280.455L3.68437 36.1688C13.2095 21.1621 21.926-0.269617 0 0" fill="#FFCC01" fill-rule="evenodd" transform="matrix(1.00231 0 0 -1 509.655 342.036)"/><path d="M0 0-134.791-233.638 134.791-233.638ZM149.798-257.54-152.808-257.54C-165.703-255.114-165.164-242.399-156.178-226.673L-13.3892 22.9145C-7.99755 31.2715 5.48141 36.7079 13.5691 22.9145L153.482-221.372C163.007-236.333 171.724-257.81 149.977-257.316Z" fill-rule="evenodd" transform="matrix(1.00231 0 0 -1 359.51 84.4954)"/><path d="M0 0 268.953 0 134.521 233.188ZM269.582-0.359375-0.539235-0.359375 134.521 233.952 134.521 233.682ZM135.375 264.729C129.626 264.372 124.397 261.281 121.312 256.417L-21.4767 6.82933C-27.4973-3.68437-29.4293-12.4007-26.9581-17.7925-25.2486-21.1287-21.9701-23.3763-18.2418-23.7682L284.858-23.7682C289.414-24.4235 293.955-22.4822 296.63-18.7359 301.123-10.5137 292.137 5.57134 287.868 12.1312L147.731 256.417C145.532 261.176 140.918 264.361 135.689 264.729ZM284.858-24.1276-18.2866-24.1276C-22.1434-23.7286-25.5308-21.3913-27.2727-17.9272-29.8336-12.4458-27.8567-3.59444-21.7911 7.00901L120.997 256.597C124.104 261.617 129.479 264.791 135.375 265.089L135.689 265.089C141.074 264.766 145.843 261.501 148.09 256.597L288.183 12.3109C292.361 5.70606 301.662-10.5137 297.169-19.1404 294.335-22.9929 289.574-24.9217 284.858-24.1276" transform="matrix(1.00231 0 0 -1 224.678 318.088)"/><path d="M0 0 17.343 0C20.7251-0.0247308 23.4536-2.77331 23.4536-6.15537 23.447-6.85942 23.3256-7.55741 23.0942-8.22221L-5.796-8.22221C-6.01304-7.55517-6.11922-6.857-6.11058-6.15537-6.08602-2.79095-3.3646-0.0693499-1.22883e-15-0.0449651ZM26.3741-21.4767 26.3741-25.5654C26.3741-26.7812 25.3885-27.767 24.1723-27.767L23.813-27.767C22.5972-27.767 21.6114-26.7812 21.6114-25.5654L21.6114-21.4767-4.44808-21.4767-4.44808-25.5654C-4.44808-26.7812-5.43385-27.767-6.64964-27.767L-7.00919-27.767C-8.22515-27.767-9.21074-26.7812-9.21074-25.5654L-9.21074-21.4767-11.7717-21.4767-11.7717-19.2751 28.98-19.2751 28.98-21.4767ZM8.94113 6.15537C4.05325 6.47462-0.846899 5.75484-5.43662 4.04374-9.92967 1.79722-10.1993-1.84218-10.1993-6.55988-11.4573-7.86283-14.6922-8.80623-13.8385-11.3673-12.9849-13.9284-11.8616-18.1069-9.34547-18.1069L7.45832-18.1069 10.4238-18.1069 27.2727-18.1069C29.7888-18.1069 31.0468-14.1081 31.7657-11.3673 32.4847-8.62654 29.3843-7.86283 28.1263-6.55988 28.1263-2.06684 28.1263 1.79722 23.4086 4.04374 18.8027 5.75207 13.8885 6.47151 8.98609 6.15537Z" fill="#040404" fill-rule="evenodd" transform="matrix(1.00231 0 0 -1 351.314 187.071)"/><path d="M0 0-3.01024 3.72916 0.5842 3.72916 3.86405 0.179687ZM5.39166-6.06561 1.84218-1.93194 5.39166-1.93194 9.21074-6.06561ZM12.221-14.2429 7.50346-8.71648 11.9963-8.71648 16.9387-14.2429ZM23.0493-27.1829 15.2764-18.1968 20.2185-18.1968 28.5308-27.1829ZM42.6839-50.187 28.3959-33.473 34.2819-33.473 49.5582-50.187ZM91.8825-96.3305 82.1774-96.3305 51.5799-60.3863 59.308-60.3863 92.0621-96.3305Z" fill="#040404" fill-rule="evenodd" transform="matrix(1.00231 0 0 -1 387.161 216.77)"/><path d="M0 0 3.01024 3.54947-0.584027 3.54947-3.81909 0ZM-5.167-6.06561-1.61753-1.93194-5.57134-1.93194-9.39043-6.06561ZM-12.1762-14.2878-7.68314-8.76144-12.1762-8.76144-16.9387-14.2878ZM-23.0942-27.2277-15.3213-18.2418-20.2635-18.2418-28.5756-27.2277ZM-42.7287-50.232-28.4409-33.518-34.2819-33.518-49.603-50.232ZM-91.9274-96.3755-82.2224-96.3755-51.6249-60.4313-59.1731-60.4313Z" fill="#040404" fill-rule="evenodd" transform="matrix(1.00231 0 0 -1 332.715 216.725)"/><path d="M0 0 15.5908 0 41.0662 17.1633 66.5417 0 82.1774 0 41.0662 24.6218Z" fill="#040404" fill-rule="evenodd" transform="matrix(1.00231 0 0 -1 319.565 253.074)"/><path d="M0 0 30.9121 0 81.3688 34.0572 131.87 0 162.738 0 81.3688 48.8391Z" fill="#040404" fill-rule="evenodd" transform="matrix(1.00231 0 0 -1 279.169 312.651)"/></g></svg>