<svg width="328" height="290" xmlns="http://www.w3.org/2000/svg" xmlns:xlink="http://www.w3.org/1999/xlink" xml:space="preserve" overflow="hidden"><defs><clipPath id="clip0"><rect x="196" y="53" width="328" height="290"/></clipPath></defs><g clip-path="url(#clip0)" transform="translate(-196 -53)"><path d="M0 0-13.047 0-13.047-12.5971-1.93452-12.5971C-0.764745-12.5971-0.224925-13.4968-0.224925-14.9367-0.224925-16.3762-0.764745-17.051-1.93452-17.051L-12.957-17.051-12.957-32.4375 0.539984-32.4375C1.70959-32.4375 2.33955-33.1122 2.4745-34.5519 2.60946-35.9914 1.70959-36.7564 0.539984-36.8913L-30.9528-36.8913C-32.1694-36.8439-33.1171-35.8194-33.0699-34.6028-33.0692-34.5859-33.0682-34.5689-33.0673-34.5519-33.0673-33.1122-32.2574-32.4375-30.9528-32.4375L-17.1409-32.4375-17.1409-17.051-27.1736-17.051C-29.333-15.6414-29.333-14.1417-27.1736-12.552L-17.006-12.552-17.006 0.044985-28.5233 0.044985C-29.783 0.044985-30.5028 0.764909-30.6377 2.15944-30.615 3.32529-29.6883 4.27161-28.5233 4.31889L-17.006 4.31889C-17.6359 5.71375-18.4007 7.28839-19.3004 8.81788-19.9614 9.9129-19.6208 11.3356-18.5356 12.0123-17.4864 12.6298-16.1352 12.2798-15.5175 11.2305-15.5033 11.2065-15.4896 11.182-15.4763 11.1574-14.1953 8.96314-13.2262 6.60102-12.5969 4.13911L0.08997 4.13911C1.18662 4.02215 2.00928 3.08205 1.97967 1.97967 1.84455 0.71976 1.21476 0 0.08997 0ZM-37.2514 10.2126C-35.5866 8.68293-33.7422 6.88336-31.6726 4.90386-30.9112 3.9752-30.9112 2.63825-31.6726 1.70959-32.5724 0.71976-33.4271 0.629954-34.192 1.48467-35.7217 2.74425-37.6112 4.54381-39.9506 6.79339-40.875 7.46555-41.0797 8.75981-40.4077 9.68421-40.3769 9.72658-40.3445 9.7678-40.3105 9.80771-39.6205 10.7804-38.2724 11.0096-37.2998 10.3196-37.2522 10.2859-37.206 10.25-37.1612 10.2126ZM-39.7257-1.93452C-38.0611-3.32922-36.6214-4.67893-35.2267-5.98366-34.5716-6.61247-33.8642-7.18435-33.1122-7.69309-32.2804-8.68113-32.2804-10.1246-33.1122-11.1124-33.6661-11.9076-34.7598-12.1029-35.5548-11.5492-35.7251-11.4304-35.873-11.2827-35.9914-11.1124-37.9261-9.26773-40.0406-7.42335-42.3351-5.53365-43.1853-4.92856-43.384-3.74881-42.7789-2.89867-42.7523-2.86121-42.7243-2.8249-42.695-2.7894-41.6152-1.66461-40.6705-1.34971-39.6357-1.93452ZM-35.2267-16.4212C-35.1335-15.4068-34.2356-14.6599-33.221-14.7531-32.9954-14.7739-32.7754-14.8361-32.5724-14.9367-31.3675-15.3803-30.6893-16.6595-30.9978-17.9058-32.9611-24.4663-35.6787-30.7771-39.0959-36.7115-39.7905-37.8883-41.3077-38.2793-42.4845-37.5846-42.4946-37.5787-42.5049-37.5725-42.5151-37.5662-43.5533-36.8841-43.8417-35.4893-43.1594-34.451-43.0886-34.3429-43.0084-34.2413-42.92-34.1471-39.3316-28.7377-36.7272-22.7367-35.2267-16.4212" transform="matrix(1.0023 0 0 -1 250.53 379.353)"/><path d="M0 0C2.15944-2.29456 4.49899-4.90402 6.70342-7.8732 7.38163-8.81968 7.22557-10.1274 6.34354-10.8875 5.80536-11.633 4.76498-11.8011 4.01953-11.2629 3.87509-11.1587 3.74848-11.0318 3.64411-10.8875L3.05931-10.2577C0.62979-7.2434-1.43968-4.90402-2.69926-3.19426-3.5193-2.39811-3.53844-1.08782-2.74229-0.267947-2.72822-0.253388-2.71382-0.239157-2.69926-0.224925-2.02024 0.516755-0.886123 0.614741-0.08997 0ZM-14.2167 1.0798C-13.0229-0.344994-11.9258-1.84815-10.9325-3.41919-10.3025-4.81405-10.4377-5.89369-11.3374-6.61361-12.3629-6.86929-13.436-6.43269-13.9918-5.53381-14.7566-4.40902-15.7914-2.96934-17.0961-1.03482-17.8559-0.181085-17.78 1.12708-16.9265 1.88692-16.9081 1.90311-16.8898 1.91882-16.871 1.93452-16.0613 2.38437-15.2064 2.06931-14.3067 1.0798ZM-21.1001 25.374-11.5173 25.374C-10.907 26.6061-10.3955 27.885-9.98765 29.1981L-9.76273 29.873-22.7197 29.873C-22.5848 29.3782-22.0899 27.9385-21.1901 25.374ZM-23.0346 0.224925-23.0346-6.83854C-23.0346-7.82821-22.4048-8.36803-21.1001-8.54813L-9.5378-8.54813C-7.8732-8.54813-6.88336-7.7384-6.4785-5.75874-6.07363-3.77923-5.30889-3.77923-4.1841-4.04914-3.02316-4.43585-2.3564-5.65175-2.65444-6.83854-3.41919-10.7975-5.53381-12.6421-8.95284-12.3722L-22.1797-12.3722C-25.464-12.3722-27.0386-10.7076-26.6787-7.01848L-26.6787 0.224925C-26.8286 1.23243-26.1332 2.17089-25.1255 2.32074-25.0588 2.33055-24.9915 2.33677-24.9242 2.33938-23.8345 2.24467-23.0068 1.31831-23.0346 0.224925M-30.5029 9.80771-30.5029 8.09812C-30.5029 7.24324-30.5029 6.83838-29.5581 6.83838L-3.23925 6.83838C-2.4745 6.83838-2.11446 7.24324-2.11446 8.09812L-2.11446 9.80771ZM-30.5029 14.7116-30.5029 12.7769-2.11446 12.7769-2.11446 14.4866C-2.11446 15.3414-2.42952 15.7912-3.05931 15.7912L-29.4681 15.7912C-30.2329 15.6563-30.5929 15.2964-30.5929 14.7116ZM-30.5029 19.2106-1.93452 19.2106C0.64484 19.2106 1.8596 17.9958 1.70959 15.5663L1.70959 7.24324C1.70959 4.54381 0.584805 3.28423-2.11446 3.41919L-30.7729 3.41919C-33.3372 3.14928-34.5069 4.49899-34.237 7.46817L-34.237 15.3414C-34.5069 18.0406-33.2922 19.3454-30.5929 19.2106ZM-33.5621-0.629954C-33.0673 0.62979-32.2575 0.98967-31.0878 0.44985-30.087-0.202514-29.7542-1.51379-30.323-2.56447-31.832-5.32426-33.5623-7.95744-35.4968-10.4377-36.5314-11.5625-37.4763-11.7874-38.3761-11.0675-39.2582-10.2283-39.2929-8.83293-38.4537-7.95073-38.4285-7.92423-38.4026-7.89839-38.3761-7.8732-36.5664-5.62035-34.9841-3.1941-33.6522-0.629954ZM2.42952 29.873-5.84871 29.873C-6.30837 28.8351-6.69917 27.768-7.01832 26.6787-7.24324 25.6439-7.3782 25.239-7.3782 25.374L4.31889 25.374C5.28795 25.3791 6.07772 24.5976 6.08279 23.6286 6.08312 23.5656 6.08001 23.5023 6.07347 23.4395 6.18323 22.6018 5.59303 21.8339 4.75532 21.7243 4.61039 21.7052 4.46349 21.7072 4.31889 21.7299L-37.5213 21.7299C-38.5561 21.7299-39.0959 22.3147-39.2309 23.4395-39.259 24.4337-38.5114 25.2796-37.5213 25.374L-25.239 25.374C-25.464 25.9588-26.0489 27.4436-26.9488 29.873L-34.822 29.873C-35.7579 29.7487-36.6173 30.4068-36.7416 31.3428-36.7521 31.4223-36.7572 31.5023-36.7565 31.5824-36.759 32.5757-35.9924 33.4013-35.0019 33.4721L-18.1308 33.4721-18.5356 33.877C-18.8261 34.4304-19.0817 35.0013-19.3005 35.5866-20.0653 36.8911-19.8853 37.881-18.7157 38.6009-17.7012 39.1273-16.4519 38.7318-15.9255 37.7172-15.8923 37.6536-15.8627 37.588-15.8364 37.5211-15.8364 37.0712-15.4313 36.4413-15.0715 35.5866-14.6767 34.7764-14.2256 33.9944-13.7217 33.2472L2.38437 33.2472C3.37486 33.1764 4.14157 32.3508 4.13895 31.3575 3.95901 30.4128 3.28423 29.873 2.42952 29.873" transform="matrix(1.0023 0 0 -1 298.464 404.952)"/><path d="M0 0 16.1063 0C19.0306-0.44985 19.8855-2.2944 18.6258-5.5788 16.4066-9.59817 13.3357-13.0836 9.62777-15.7912 11.2924-17.9508 11.6523-19.5704 10.7526-20.6952L16.5113-20.6952C20.2454-20.6952 21.505-23.1246 20.3803-27.5334 19.398-31.0161 17.8802-34.3249 15.8813-37.3412 15.0715-38.331 14.2617-38.4659 13.362-37.7462 12.507-37.1053 12.3334-35.8928 12.9742-35.0378 12.9833-35.0257 12.9927-35.0137 13.002-35.0018 14.5097-32.6663 15.7331-30.1591 16.6461-27.5334 17.006-25.6738 16.5561-24.684 15.2965-24.5641L9.80771-24.5641 9.80771-43.3248C10.0477-49.1434 6.58352-50.6431-0.584805-47.8238-1.69863-47.4726-2.31697-46.2852-1.96593-45.1713-1.95611-45.1404-1.94564-45.1098-1.93452-45.0794-1.57807-44.0721-0.472752-43.5445 0.534586-43.901 0.613432-43.9288 0.690315-43.9618 0.764745-43.9998 4.36404-45.5744 6.11862-45.2142 6.11862-42.92L6.11862-24.5643-0.764745-24.5643C-2.42935-23.1246-2.38437-21.8648-0.764745-20.6952L7.69325-20.6952C5.53905-17.0073 2.89-13.6318-0.17994-10.6626-0.894466-9.88722-0.894466-8.69339-0.17994-7.91802 0.329454-7.18288 1.33859-6.99983 2.07373-7.50923 2.15274-7.56386 2.22651-7.62537 2.2944-7.69309 4.36404-9.80771 5.93868-11.5173 7.10845-12.822 9.83012-11.0174 12.1693-8.69356 13.9918-5.9835 14.6666-4.99383 14.5316-4.36404 13.6318-4.09396L-0.17994-4.09396C-2.11446-2.60946-2.11446-1.43968-0.17994 8.13623e-15ZM-6.52348-20.2902-6.52348-14.9367-12.1021-14.9367-12.1021-22.1799-8.458-22.1799C-7.15327-22.4948-6.61345-21.8648-6.70342-20.2902ZM-8.27806-3.86904-12.1021-3.86904-12.1021-11.1124-6.70342-11.1124-6.70342-5.75857C-6.61345-4.36404-7.15327-3.73408-8.458-3.86904ZM-19.0305-22.1799-15.3863-22.1799-15.3863-14.9367-21.1001-14.9367-21.1001-20.2902C-21.1001-21.8648-20.6051-22.4948-19.2106-22.1799ZM-20.7402-5.75857-20.7402-11.1124-15.3863-11.1124-15.3863-3.86904-19.0305-3.86904C-20.6051-3.73408-21.1001-4.36404-21.1001-5.75857ZM-20.7402 0-6.52348 0C-4.22908 0-3.14928-1.39454-3.28423-4.49899L-3.28423-21.5499C-3.28423-24.6992-4.49883-26.0489-6.92835-26.0489L-12.1021-26.0489-12.1021-31.8075-4.58896-31.8075C-3.73408-31.8075-3.19426-32.5724-3.05931-33.697-2.92435-34.8218-3.73408-35.6316-4.58896-35.6316L-12.1021-35.6316-12.1021-42.2452C-8.36803-41.3903-5.71359-40.6705-4.04898-40.1306-3.014-39.7785-1.88953-40.3321-1.53734-41.3671-1.53473-41.3748-1.53211-41.3826-1.52965-41.3903-1.17288-42.2645-1.59247-43.2625-2.46681-43.6189-2.59915-43.6729-2.73771-43.7102-2.87937-43.7297-9.66343-45.773-16.5983-47.2775-23.6194-48.2287-24.6832-48.3281-25.6262-47.5462-25.7255-46.4824-25.7314-46.4198-25.7342-46.3571-25.7339-46.2942-25.8333-45.2304-25.0516-44.2873-23.9878-44.188-23.9252-44.1822-23.8623-44.1794-23.7994-44.1797-20.3352-43.7297-17.5909-43.4148-15.5663-43.1001L-15.5663-35.8565-22.8547-35.8565C-23.7544-35.8565-24.2494-35.2269-24.3843-33.922-24.5193-32.6174-23.7544-32.1676-22.8547-32.0324L-15.5663-32.0324-15.5663-26.2739-20.0653-26.2739C-22.9896-26.2739-24.5643-25.0591-24.2944-22.2247L-24.2944-4.22908C-24.6093-1.21476-23.3945 0.134955-20.7402 1.16232e-15" transform="matrix(1.0023 0 0 -1 337.109 368.466)"/><path d="M0 0 0-8.99798 16.781-8.99798C17.6809-8.99798 18.1757-9.80771 18.3109-11.1124 18.4457-12.4172 17.6809-13.2269 16.781-13.2269L0-13.2269 0-26.229 15.9262-26.229C16.781-26.229 17.321-27.0838 17.456-28.3885 17.5909-29.6932 16.781-30.323 15.9262-30.323L0-30.323 0-43.5049 18.8057-43.5049C19.7954-43.5049 20.3802-44.2248 20.5151-45.6644 20.6501-47.1041 19.7954-47.644 18.8057-47.779L-23.2595-47.779C-24.303-47.7864-25.1551-46.9464-25.1625-45.9029-25.1631-45.8232-25.1587-45.7435-25.1491-45.6644-25.1491-44.2248-24.5193-43.5049-23.2595-43.5049L-4.04914-43.5049-4.04914-30.323-19.2106-30.323C-20.4703-30.323-21.1001-29.6032-21.1001-28.1636-21.2243-27.1273-20.4852-26.1867-19.4491-26.0624-19.3699-26.0529-19.2902-26.0483-19.2106-26.0489L-4.22908-26.0489-4.22908-13.002-16.5113-13.002C-17.8203-15.9748-19.498-18.771-21.505-21.325-22.5398-22.6298-23.5744-22.8997-24.5643-22.1799-25.4609-21.1475-25.4609-19.6128-24.5643-18.5808-20.6556-13.7419-18.2055-7.88988-17.5008-1.70959-17.4013-0.645821-16.4583 0.135773-15.3945 0.0363152-15.3162 0.028954-15.2383 0.0168489-15.1616-5.88878e-15-14.0424-0.435455-13.3972-1.61161-13.6318-2.7894-14.0368-4.49899-14.4866-6.4785-14.9815-8.77306L-4.04914-8.77306-4.04914 0.224925C-4.04914 1.34955-3.41919 1.9795-2.11462 2.11446-0.97184 2.13949-0.025028 1.23357 0 0.0909515 0.000654328 0.0605253 0.000654328 0.0302626 0 0" transform="matrix(1.0023 0 0 -1 389.327 368.691)"/><path d="M0 0 0-8.09812 7.8732-8.09812C10.0326-8.09812 11.1124-9.49266 11.1124-12.372L11.1124-20.6501C11.1124-35.4665 9.70269-43.6397 6.88336-45.1694 3.99581-47.5653 0.0407319-48.219-3.46434-46.879-4.73929-46.6287-5.59156-45.4195-5.39886-44.1345-5.17295-43.0394-4.10214-42.3348-3.00713-42.5606-2.90243-42.5823-2.79938-42.6121-2.69943-42.65-0.556833-43.4125 1.80643-43.2494 3.82405-42.2 6.11845-40.9403 7.28823-34.192 7.28823-21.9548L7.28823-13.8567C7.28823-12.7319 6.83838-12.1471 5.93851-12.1471L0-12.1471C0.336815-19.717-0.436273-27.2956-2.2944-34.6419-3.80213-39.7591-6.79241-44.3147-10.8875-47.7338-12.0573-48.7235-13.047-48.7235-13.9468-47.7338-14.7921-46.8232-14.7392-45.4-13.8286-44.5548-13.7527-44.4841-13.6718-44.419-13.5869-44.3596-9.9726-41.4462-7.34826-37.4861-6.07363-33.0223-4.41311-26.194-3.70153-19.1697-3.95901-12.1471L-8.458-12.1471C-9.49282-12.1471-10.0326-11.5171-10.1676-10.2126-10.3025-8.90785-9.67276-8.23308-8.6381-8.09812L-3.82422-8.09812-3.82422-0.17994C-3.82422 1.21476-3.28423 2.02465-2.11462 2.15944-0.939451 2.13507 0.000163582 1.1755 0 0M-28.2084-1.48451-12.6871-1.48451C-11.5293-1.50855-10.5963-2.4413-10.5726-3.59913-10.5402-4.64213-11.3596-5.51402-12.4026-5.54624-12.4977-5.54919-12.5927-5.54493-12.6871-5.53365L-28.3883-5.53365C-29.4231-5.53365-30.0079-4.90386-30.1431-3.59913-30.1696-2.48955-29.316-1.55681-28.2084-1.48451M-23.4395-17.9058-30.7279-17.9058C-31.7177-17.9058-32.3025-17.2759-32.4375-15.9713-32.5724-14.6664-31.7177-13.9916-30.7279-13.8567L-10.8875-13.8567C-9.89768-13.8567-9.31288-14.7116-9.17776-15.9713-9.0428-17.2309-9.67276-17.9058-10.7076-17.9058L-19.7054-17.9058C-21.3783-23.9724-23.5605-29.8871-26.2289-35.5866-26.4988-36.0366-26.2289-36.2164-25.6441-36.2164-22.111-36.1864-18.5878-35.8401-15.1164-35.1817-16.6463-31.4926-17.9058-28.6133-18.9407-26.6336-19.6118-25.6781-19.3812-24.3591-18.4257-23.6881-17.4701-23.0168-16.1511-23.2473-15.4799-24.2029-15.4097-24.3029-15.3484-24.4087-15.2965-24.5193-13.2721-29.0183-11.4723-33.832-9.94267-38.376-9.41626-39.5706-9.90848-40.9689-11.0675-41.5702-12.2372-41.9751-13.047-41.5702-13.5869-40.0856-13.5869-40.0856-13.8119-39.7707-13.9468-39.2307-17.8159-39.7707-22.9446-40.2205-29.1081-40.4904-31.6726-40.4904-32.3025-39.0957-31.0428-36.2164-27.9467-30.3616-25.4012-24.2317-23.4395-17.9058" transform="matrix(1.0023 0 0 -1 448.624 369.141)"/><path d="M0 0 17.2311 0C19.0306 0 19.9303-1.3947 19.9303-4.04914L19.9303-17.9508C19.9303-32.7074 17.5909-40.7605 12.822-42.0203 10.2219-42.413 7.56353-42.0378 5.17393-40.9404L4.94884-40.9404C3.76909-40.4803 3.18527-39.1515 3.64411-37.9711 4.13911-36.9814 5.03881-36.7115 6.29856-37.1162 9.62761-38.6909 12.0571-38.6011 13.5869-37.1162 15.9592-31.4308 16.9461-25.2626 16.4662-19.1206L16.4662-5.12895C16.4662-4.13911 16.0163-3.64411 15.5215-3.64411L13.5869-3.64411C12.327-21.6399 6.95845-33.8621-2.51932-40.3107-3.32186-41.0878-4.59632-41.0878-5.39869-40.3107-6.01867-39.5022-5.86588-38.3444-5.05762-37.7244-4.98058-37.6654-4.89911-37.6125-4.81389-37.5662 3.50916-31.5826 8.68293-20.3803 10.1676-3.86904L6.52348-3.86904C5.55998-14.5352 0.952701-24.5443-6.52348-32.2125-7.55814-33.2474-8.54797-33.2923-9.40269-32.2125-10.2427-31.3135-10.2427-29.9175-9.40269-29.0184-2.52554-22.2357 1.75654-13.2572 2.69943-3.64411L-0.989834-3.64411C-2.21081-8.02205-4.22352-12.1391-6.92835-15.7914-7.82805-16.7812-8.72791-16.9611-9.58263-16.2412-10.3999-15.4027-10.3999-14.0656-9.58263-13.2269-5.66288-7.82445-3.46744-1.36345-3.28407 5.30872-3.28407 6.5683-2.51932 7.24324-1.34955 7.24324-0.17994 7.24324 0.35988 6.38853 0.35988 5.08363 0.154585 3.39629 0.0345158 1.69962 0 0M-12.2821 5.30872-12.2821-3.41919-8.6381-3.41919C-7.8732-3.41919-7.42335-4.22925-7.33321-5.35387-7.24324-6.4785-7.8732-7.28839-8.6381-7.28839L-12.2821-7.28839-12.2821-21.1452C-11.1604-20.6777-10.1259-20.0237-9.22291-19.2107-8.61717-18.6954-7.70847-18.7689-7.19351-19.3746-7.07672-19.5119-6.98674-19.6699-6.92835-19.8405-6.37331-20.7818-6.62686-21.9908-7.51332-22.6299-8.7729-23.4846-10.3925-24.4743-12.2821-25.5991L-12.2821-40.7607C-12.2794-41.7536-13.0461-42.5792-14.0368-42.6502-14.9808-42.6554-15.7505-41.8941-15.7557-40.9501-15.756-40.8868-15.7529-40.8237-15.7462-40.7607L-15.7462-27.2637C-17.7725-28.3227-19.897-29.1815-22.0898-29.8282-22.9286-30.2615-23.96-29.9327-24.3933-29.0937-24.4784-28.9291-24.5361-28.7518-24.5643-28.5686-24.8864-27.3787-24.2109-26.1471-23.0345-25.7792-21.7749-25.3292-19.3455-24.4295-15.7464-22.9898L-15.7464-7.2434-19.1206-7.2434C-19.5662-10.4894-20.2735-13.6941-21.2349-16.826-21.5179-17.8275-22.5002-18.4632-23.5295-18.3109-24.5793-17.8909-24.8942-17.0362-24.4741-15.7464L-24.4741-15.1166C-22.7588-8.93108-21.8516-2.54959-21.7749 3.86887-21.9103 4.67779-21.3646 5.44302-20.556 5.57863-20.3936 5.60595-20.2277 5.60595-20.0653 5.57863-19.0964 5.55884-18.3271 4.75745-18.3467 3.78856-18.3478 3.7403-18.3508 3.69204-18.3557 3.64395-18.6069 1.31307-18.727-1.02991-18.7156-3.37437L-15.8364-3.37437-15.8364 5.62362C-15.8364 6.61345-15.2514 7.19826-14.1266 7.33321-13.0594 7.28463-12.2335 6.38018-12.2819 5.31298-12.2819 5.3115-12.2821 5.31019-12.2821 5.30872" transform="matrix(1.0023 0 0 -1 492.951 374.224)"/><path d="M0 0-303.004 0C-315.916 2.42952-315.376 15.1614-306.379 30.9076L-163.402 280.779C-158.003 289.192-144.506 294.591-136.408 280.779L3.6891 36.1715C13.2267 21.1899 21.9548-0.26991 0 0" fill="#FFCC01" fill-rule="evenodd" transform="matrix(1.0023 0 0 -1 509.861 342.417)"/><path d="M0 0-134.969-233.945 134.968-233.945ZM149.995-257.835-153.009-257.835C-165.921-255.405-165.381-242.673-156.384-226.927L-13.4068 22.9446C-8.00815 31.3577 5.48866 36.7564 13.5868 22.9446L153.684-221.663C163.222-236.645 171.95-258.105 150.175-257.655Z" fill-rule="evenodd" transform="matrix(1.0023 0 0 -1 359.52 84.5821)"/><path d="M0 0 269.307 0 134.699 233.496ZM269.937-0.35988-0.53982-0.35988 134.699 234.215 134.699 233.945ZM135.553 265.078C129.775 264.755 124.518 261.631 121.472 256.71L-21.505 6.83854C-27.5336-3.6891-29.4681-12.4622-26.9938-17.8157-25.2817-21.1565-21.999-23.4071-18.2657-23.7994L285.233-23.7994C291.217-23.7994 295.176-22.1348 297.021-18.8055 301.52-10.5725 292.522 5.5788 288.248 12.1021L147.925 256.71C145.737 261.492 141.114 264.701 135.868 265.078ZM285.233-24.1592-18.3109-24.1592C-22.1662-23.7771-25.5595-21.4528-27.3087-17.9958-29.873-12.507-27.8935-3.59913-21.82 7.01832L121.157 256.89C124.257 261.934 129.64 265.131 135.553 265.438L135.868 265.438C141.264 265.087 146.031 261.805 148.285 256.89L288.563 12.2822C292.747 5.71375 302.059-10.5725 297.56-19.2104 294.706-23.0426 289.946-24.9538 285.233-24.1592" transform="matrix(1.0023 0 0 -1 224.511 318.438)"/><path d="M0 0C0 0.8997 0 0.8997 0.719924 0.944685 3.9047 1.03825 6.93882 2.32254 9.22291 4.54381 10.0531 5.54706 10.5276 6.79683 10.5726 8.09812L10.5726 8.68293C10.5726 12.0121 9.62777 13.9467 7.01832 14.6666L7.01832 12.867C7.10158 7.67461 2.95985 3.39792-2.23257 3.31482-2.46338 3.31106-2.69403 3.31597-2.92419 3.32922L-5.71359 6.1636C-8.81788 9.31272-9.94251 8.50299-14.2166 9.0428-17.0662 9.32973-19.8322 10.1702-22.3597 11.5173-28.2007 14.7247-33.6764 18.5562-38.6909 22.9446-42.7277 27.1808-44.9269 32.8405-44.8095 38.6909L-45.6642 54.0324-45.6642 57.6315C-45.6642 59.611-44.5846 59.3861-42.875 59.5211L-39.8157 64.0201-44.3145 64.0201-41.7952 70.4985-39.1857 80.981C-38.8258 82.5107-39.1857 83.9954-39.9506 83.9954-40.7154 83.9954-41.2102 82.9156-41.1204 81.2509-41.0309 80.6544-41.0309 80.048-41.1204 79.4514L-41.5253 76.3921C-41.5253 75.2223-41.7952 75.3124-42.875 74.8174-43.9546 74.3226-44.0446 74.8174-44.7645 75.9872L-46.6091 79.1365C-47.2775 79.8816-47.5454 80.9035-47.3288 81.8807L-46.2492 88.4944C-48.9035 88.4944-49.5784 85.57-49.7133 82.8256-49.8483 80.0813-51.4229 81.9259-51.8728 83.2306-52.7871 85.2525-53.2624 87.445-53.2675 89.664L-53.2675 92.0485C-54.7072 91.5537-55.0221 91.3737-55.0221 89.0792L-55.0221 84.0853C-55.0221 82.9156-55.0221 82.9605-56.0119 83.2306-58.3063 83.7704-58.9363 86.0648-59.0261 88.7193-59.116 91.3737-60.7808 89.7541-60.8256 88.4494L-60.8256 86.6948C-60.8256 76.0322-46.2042 78.1467-46.2042 68.699L-46.2042 66.8993C-46.7697 64.3637-48.9628 62.5208-51.5579 62.4004L-54.4823 62.4004C-55.6759 62.4032-56.8612 62.6008-57.9914 62.9852-60.4374 61.4256-63.2785 60.5984-66.1795 60.6009L-68.789 60.6009C-70.4985 60.6009-70.4084 60.8258-70.2735 59.1162L-70.2735 56.8666C-70.2735 55.0671-69.7786 54.3023-68.024 53.7625L-63.5251 52.3678C-61.2307 51.6479-60.6458 51.378-60.6458 48.6787L-60.6458 36.1266C-60.6458 31.6276-65.9096 26.1389-65.9096 17.6359-71.0834 17.6359-75.6273 20.6051-83.5005 20.6051-84.8501 20.6051-85.2549 20.2002-85.2549 18.8505L-85.2549 15.8364C-85.2549 14.2167-83.4554 14.0816-82.5557 10.2576-81.8547 7.60345-81.5812 4.85462-81.7459 2.11446-81.3105-2.25792-78.6361-6.09064-74.6825-8.00815-74.3226-7.28839-74.0977-7.3782-74.0977-6.20859L-74.0527-3.55431-77.022 0.35988-77.7868 12.2822-76.0322 12.2822C-72.613 12.2822-67.9341 5.89353-63.705 4.49899-59.4759 3.10429-55.0671 0-49.7583-1.52965-45.4843-2.92435-38.6909-5.0838-34.192-6.02865-31.2677-6.61345-20.1103-9.22291-19.7502-13.1371-18.8955-22.1348-5.12878-27.0836-0.0448214-33.8771 3.64411-38.7808 3.59929-42.8751 4.45417-50.4333 5.99299-55.4271 9.32662-59.6743 13.8119-62.3554L13.8119-58.1713C10.4655-53.9053 8.61569-48.6564 8.54813-43.235 8.54813-34.237 9.8527-36.4866 4.27407-30.278 1.07653-26.759-0.923583-22.3176-1.43968-17.5909L-1.43968-16.9611C-1.43968-11.2474 1.48467-8.99798 1.48467-6.20859 1.49252-4.76972 1.20151-3.34492 0.629954-2.02465 0.304589-1.39126 0.0916058-0.706183 0 0" fill-rule="evenodd" transform="matrix(1.0023 0 0 -1 399.202 243.62)"/></g></svg>