<svg width="328" height="290" xmlns="http://www.w3.org/2000/svg" xmlns:xlink="http://www.w3.org/1999/xlink" xml:space="preserve" overflow="hidden"><defs><clipPath id="clip0"><rect x="98" y="282" width="328" height="290"/></clipPath></defs><g clip-path="url(#clip0)" transform="translate(-98 -282)"><path d="M0 0-1.53003-4.04998 16.4702-4.04998C17.3703-4.04998 17.8203-4.99506 17.8203-6.3901 17.7258-7.38051 16.8798-8.12826 15.8851-8.10012L-2.6551-8.10012-6.12012-18.1352 1.935-18.1352 1.935-11.1152C1.935-9.94496 2.56511-9.405 3.86999-9.405 4.89443-9.45065 5.71451-10.2707 5.76016-11.295L5.76016-18.1352 16.3802-18.1352C17.3703-18.1352 17.9102-19.0801 17.9102-20.4752 17.9102-21.8702 17.1903-22.1852 16.1552-22.1852L5.76016-22.1852 5.76016-28.5753 17.6853-28.5753C18.6753-28.5753 19.2153-29.4302 19.2153-30.7353 19.2153-32.0403 18.4952-32.6255 17.4603-32.6255L5.76016-32.6255 5.76016-40.7254C5.76016-41.7605 4.95006-42.2554 3.64501-42.2554 2.80678-42.3615 2.04119-41.768 1.935-40.9296 1.91896-40.802 1.91896-40.673 1.935-40.5454L1.935-32.6255-10.9352-32.6255C-12.0601-32.6255-12.6452-31.9953-12.6452-30.7353-12.6748-29.6326-11.8521-28.6921-10.7551-28.5753L1.935-28.5753 1.935-22.1852-8.64007-22.1852C-10.6652-22.1852-11.2952-20.9252-10.5301-18.7652L-8.64007-13.68C-8.08752-11.8631-7.44154-10.0755-6.70507-8.3251L-10.6201-8.3251C-11.6843-8.42442-12.6274-7.64247-12.7269-6.57843-12.7326-6.51576-12.7354-6.45293-12.735-6.3901-12.8345-5.3259-12.0526-4.38278-10.9885-4.2833-10.9259-4.27758-10.863-4.27463-10.8-4.27496L-5.40002-4.27496-3.51002 0.855253C-3.25363 1.94383-2.16341 2.61845-1.07467 2.36205-1.04636 2.35551-1.01806 2.34814-0.989914 2.34012-0.0369786 1.9795 0.443253 0.914648 0.0826292-0.0382876 0.0585767-0.1021 0.0309246-0.16444 0-0.224981ZM-21.8702 0C-19.5113-1.78855-17.2576-3.71193-15.1202-5.75999-14.1381-6.61655-13.8937-8.04579-14.5352-9.18002-15.4351-10.0351-16.4702-9.94512-17.5953-9.18002-18.3327-8.68867-19.0122-8.11501-19.6203-7.47001-21.5553-5.625-22.9953-4.27496-24.1204-3.41987-25.1226-2.92393-25.5331-1.7092-25.037-0.706848-24.9928-0.61751-24.9421-0.531772-24.8853-0.449961-24.1757 0.504611-22.8278 0.705703-21.8702 -5.81303e-16M-26.1004-14.7152-20.3402-14.7152C-18.4293-14.6131-16.7973-16.0793-16.6952-17.9903-16.6886-18.1135-16.6886-18.237-16.6952-18.3602L-16.6952-34.4705C-15.1346-39.6334-10.3887-43.1743-4.99506-43.2005L16.9202-43.2005C17.9844-43.101 18.9275-43.883 19.027-44.9472 19.0327-45.0097 19.0355-45.0727 19.0352-45.1357 18.8637-46.3106 17.8816-47.1983 16.6952-47.2505L-5.53501-47.2505C-10.8616-47.321-15.7999-44.472-18.4052-39.8255-19.3099-40.9391-20.2712-42.0056-21.2853-43.0205-21.9499-43.6876-22.4707-44.4841-22.8153-45.3607-23.9852-46.4856-25.0653-46.6205-26.1004-45.7655-26.9826-45.0782-27.1407-43.8059-26.4535-42.9235-26.3507-42.7918-26.2321-42.6732-26.1004-42.5706-23.5976-40.4657-21.6763-37.7542-20.5204-34.6954L-20.5204-20.2502C-20.5204-19.2601-20.9253-18.7652-21.6903-18.7652L-25.9202-18.7652C-26.9317-18.8899-27.8526-18.1714-27.9774-17.16-27.9891-17.0655-27.9933-16.9704-27.9904-16.8752-28.1147-15.8136-27.3552-14.8523-26.2938-14.7281-26.2295-14.7206-26.165-14.7162-26.1004-14.7152" transform="matrix(1.00231 0 0 -1 188 606.279)"/><path d="M0 0C1.69414-1.75256 3.28684-3.60067 4.77008-5.53501 5.47251-6.53851 5.31821-7.90802 4.41011-8.73006 3.37504-9.58515 2.56511-9.36001 1.89-8.10012 0.544862-6.19048-0.960626-4.39898-2.6101-2.74493-3.39009-2.02499-3.39009-1.1699-2.6101-0.179984-2.19352 0.611947-1.21408 0.916448-0.422145 0.500029-0.264904 0.417237-0.122226 0.309246 0 0.180148ZM5.76016 19.4404 5.76016 14.0403 15.9303 14.0403C17.0313 13.9678 17.8716 13.0274 17.8203 11.9253 17.8203 10.6652 17.2803 9.99028 16.1102 9.99028L5.76016 9.99028 5.76016 5.49018 16.1102 5.49018C18.2702 5.49018 19.3053 4.14013 19.1703 1.44004 18.7478-1.25482 17.6997-3.81322 16.1102-6.03013 15.6271-6.95542 14.4851-7.31359 13.56-6.83041 12.6347-6.34723 12.2764-5.20548 12.7596-4.28019 12.793-4.21654 12.8298-4.1547 12.8702-4.09497 15.1652-0.80993 15.6153 1.03507 14.1752 1.44004L-8.82005 1.44004C-9.99012 1.44004-10.5751 2.06998-10.5751 3.37504-10.7249 4.38295-10.0294 5.32148-9.02147 5.47136-8.95472 5.48134-8.88747 5.48756-8.82005 5.49018L1.89 5.49018 1.89 9.99028-6.34511 9.99028C-7.515 9.99028-8.14511 10.6652-8.2801 11.9253-8.42998 12.9332-7.73442 13.8716-6.72651 14.0214-6.65975 14.0314-6.5925 14.0376-6.52509 14.0403L1.89 14.0403 1.89 19.4404C1.89 20.5653 2.56511 21.1953 3.825 21.3303 4.86694 21.3077 5.71303 20.4814 5.76016 19.4404M8.82022-12.0601 17.8203-12.0601C18.9281-12.1321 19.7818-13.0654 19.7553-14.1752 19.7553-15.4351 18.9903-16.1102 17.8203-16.1102L7.87514-16.1102C7.70317-16.4678 7.50764-16.8135 7.29019-17.1452 11.1648-20.3121 14.8183-23.7399 18.2252-27.4052 19.1633-28.3523 19.1633-29.8782 18.2252-30.8254 17.1903-31.5005 16.1552-31.2304 15.1202-29.9704 12.2371-26.6814 9.0254-23.6958 5.53518-21.0603 2.16505-25.5985-2.24981-29.2571-7.33502-31.7255-8.48054-32.2218-9.81488-31.7507-10.3951-30.6455-10.7145-29.4667-10.0354-28.2487-8.86505-27.9004-3.43476-25.7064 1.012-21.6117 3.64501-16.3801L-7.96513-16.3801C-8.90007-16.5141-9.76628-15.8645-9.90012-14.9297-9.92303-14.769-9.92303-14.6059-9.90012-14.4451-9.87624-13.2871-8.9431-12.354-7.78514-12.3301L-2.11498-12.3301C-3.51002-10.7551-5.40002-8.77506-7.69515-6.34494-8.46156-5.57297-8.46156-4.32699-7.69515-3.55502-7.06504-2.83492-6.21012-2.83492-5.17504-3.55502-5.08603-3.82843-4.89165-4.05521-4.63509-4.18497-2.80596-5.80973-1.13357-7.60254 0.359969-9.54016 0.910067-10.3887 0.910067-11.4814 0.359969-12.3301L4.5451-12.3301C5.30381-8.88174 5.75541-5.37303 5.89514-1.845 5.89514-0.314973 6.75007 0.494957 8.01013 0.494957 9.27018 0.494957 9.76514-0.494957 9.76514-2.06998 9.72014-5.35503 9.31518-8.77506 8.82022-12.0601M-11.5201-20.0702C-10.5803-19.616-9.45016-20.0097-8.99595-20.9494-8.90383-21.14-8.84443-21.3448-8.82005-21.5553-8.82005-22.6802-9.36017-23.5353-10.7551-24.1202-15.2669-25.6648-19.8839-26.883-24.5703-27.7652-26.1004-27.7652-27.0004-27.3153-27.2704-26.0552-27.5402-24.7953-26.5053-24.2102-24.9753-23.8952-20.8424-23.2432-16.7865-22.1726-12.8702-20.7003-12.4389-20.4521-11.9873-20.2414-11.5201-20.0702M-22.6803 1.71002-17.2801 1.71002C-15.6153 5.58017-14.3551 8.91021-13.4551 11.7451-13.0502 13.1852-12.2401 13.6801-10.9352 13.2302-9.62998 12.7802-9.405 11.8801-9.81013 10.4852-12.4402 3.03306-15.7074-4.17875-19.5753-11.07-17.3948-11.0456-15.2169-10.9105-13.0502-10.6652-12.6081-10.5484-12.1561-10.4731-11.7001-10.4401-10.7609-10.3406-9.91911-11.0213-9.81962-11.9606-9.81291-12.0235-9.8098-12.0868-9.81013-12.1501-9.81013-13.4101-10.4852-14.1301-11.5201-14.2652-15.1375-14.8333-18.7936-15.1193-22.4553-15.1202-23.9852-15.1202-24.8853-15.1202-25.1553-14.2652-25.4253-13.4101-25.1553-12.78-24.2104-11.52-23.2653-10.2601-21.3753-6.65991-18.8102-2.11498L-21.1053-2.51995-24.5703-2.51995C-25.5512-2.78943-26.5997-2.47495-27.2704-1.70985-27.6019-0.598366-27.3848 0.604584-26.6853 1.53019-23.6702 6.94036-21.4141 12.7398-19.9802 18.7653-19.8472 19.8258-18.8799 20.5775-17.8194 20.4444-17.6334 20.4212-17.4518 20.371-17.2801 20.2954-16.2452 19.8452-15.9301 18.8553-16.3352 17.2803-17.8981 11.8819-20.0249 6.66319-22.6803 1.71002" transform="matrix(1.00231 0 0 -1 239.464 624.189)"/><path d="M0 0 42.7955 0C43.9654 0 44.5506-0.900086 44.5506-2.34012 44.5506-3.78016 43.7856-4.45511 42.6156-4.45511L22.0952-4.45511 22.0952-11.5201C28.1304-15.5593 33.8335-20.0738 39.1504-25.0203 40.1316-25.9529 40.3707-27.425 39.7355-28.6205 38.9706-29.6104 38.0253-29.6104 36.8554-28.6205 29.7004-22.3652 25.0203-18.5404 22.8603-17.1003 22.2302-16.5602 21.9602-16.2452 22.0952-16.2452L22.0952-45.6756C20.5653-47.9708 19.1253-47.8806 17.8653-45.6756L17.8653-4.27512-0.134988-4.27512C-1.39504-4.27512-2.02499-3.55518-2.02499-2.15998-2.02499-0.765097-1.26005-0.134988 0 0" transform="matrix(1.00231 0 0 -1 266.256 606.729)"/><path d="M0 0-13.5001 0C-12.2951-4.16599-10.0317-7.94877-6.93005-10.98-4.08401-8.43391-1.7344-5.38235 0-1.97999 0.494957-0.854926 0.494957-0.134825 0 0M-18.4502 13.8603-18.4502 4.5001-10.98 4.5001-10.98 15.3903-17.1003 15.3903C-17.8941 15.3422-18.4988 14.6597-18.4507 13.8658-18.4505 13.8639-18.4505 13.8622-18.4502 13.8603M-7.11004 23.2653-7.11004 20.0702 3.64501 20.0702C8.86521 19.2004 8.08506 15.0753 1.30505 7.69515 0.180148 6.84023-0.719938 6.93005-1.35005 7.69515-1.86644 8.8801-1.55719 10.2632-0.584949 11.1152 2.06998 13.8153 2.6551 15.1653 1.12507 15.1653L-7.11004 15.1653-7.11004 4.27512 1.53003 4.27512C4.45511 3.82516 5.49002 1.93516 4.59009-1.48487 2.86519-6.37652-0.0409056-10.7665-3.86999-14.2652-0.900413-17.055 2.74411-19.0245 6.70507-19.9801 8.09864-20.3546 8.93803-21.7735 8.59507-23.1753 8.29548-24.3813 7.07502-25.1162 5.86913-24.8166 5.75508-24.7883 5.64333-24.7511 5.53501-24.7052 0.781623-23.1162-3.59756-20.5743-7.33518-17.2351-11.1386-20.1075-15.4194-22.286-19.9802-23.6702-21.6453-24.2104-22.7253-23.6702-23.2203-22.3652-23.4507-20.9129-22.5322-19.5255-21.1053-19.1701-17.2338-18.2327-13.6305-16.4157-10.5752-13.8601-13.9241-9.84302-16.2824-5.09552-17.4603 0.000163622L-18.6302 0.000163622-18.6302-0.629945C-18.2512-9.09527-22.1371-17.1879-28.9804-22.1852-30.4205-22.8603-31.4106-22.6802-32.0855-21.5103-32.4505-20.2597-31.8865-18.9249-30.7354-18.3152-25.4277-13.9872-22.3801-7.47786-22.4553-0.629945L-22.4553 14.5352C-22.8603 18.4952-21.1053 20.3404-17.2801 20.0704L-10.98 20.0704-10.98 23.2653C-9.84024 25.5454-8.55008 25.5454-7.11004 23.2653M-28.0354 22.8603-28.0354 12.8252-25.7402 12.8252C-24.5703 12.8252-24.0304 11.8801-24.0304 10.4852-24.0304 9.09019-24.7953 8.3251-25.9204 8.3251L-28.0354 8.3251-28.0354-5.53501C-28.0354-5.53501-27.7204-5.53501-27.4504-5.08505L-26.5053-4.04998C-25.6052-3.33004-24.7953-3.55502-24.0304-4.68009-23.4813-5.67245-23.7071-6.91451-24.5703-7.65016-27.7682-10.7542-31.3891-13.3903-35.3254-15.4801-36.1844-16.0286-37.325-15.7769-37.8735-14.9181-37.9329-14.825-37.9837-14.7271-38.0255-14.6252-38.5841-13.5438-38.1611-12.2146-37.0806-11.655-35.2486-10.7559-33.5144-9.67024-31.9053-8.41509L-31.9053 8.32526-35.1456 8.32526C-36.4504 8.32526-37.1254 9.0452-37.2605 10.4852-37.435 11.5899-36.6812 12.6269-35.5764 12.8015-35.4933 12.8146-35.4095 12.8226-35.3254 12.8252L-31.9053 12.8252-31.9053 22.8603C-31.9053 23.9854-31.2304 24.6153-29.9704 24.7505-28.9286 24.7277-28.0825 23.9014-28.0354 22.8603" transform="matrix(1.00231 0 0 -1 355.247 629.77)"/><path d="M0 0-303.079 0C-315.994 2.43012-315.454 15.1653-306.454 30.9153L-163.442 280.894C-158.042 289.264-144.542 294.709-136.442 280.894L3.69001 36.2253C13.23 21.2401 21.9602-0.269977 0 0" fill="#FFCC01" fill-rule="evenodd" transform="matrix(1.00231 0 0 -1 411.898 571.494)"/><path d="M0 0-135.002-234.003 135.002-234.003ZM150.032-257.943-153.047-257.943C-165.962-255.513-165.422-242.778-156.422-227.028L-13.4101 22.9503C-8.01013 31.3204 5.49002 36.7654 13.5901 22.9503L153.722-221.718C163.262-236.703 171.992-258.213 150.212-257.718Z" fill-rule="evenodd" transform="matrix(1.00231 0 0 -1 261.52 313.55)"/><path d="M0 0 269.374 0 134.732 233.553ZM270.004-0.359969-0.539953-0.359969 134.732 234.318 134.732 234.048ZM135.587 265.143C129.829 264.786 124.591 261.69 121.502 256.818L-21.5103 6.84006C-27.5404-3.69017-29.4754-12.2402-27.0004-17.8203-25.288-21.1617-22.0044-23.413-18.2702-23.8054L284.764-23.8054C290.929-23.8054 295.024-22.1854 296.914-18.7653 301.414-10.5301 292.414 5.58017 288.139 12.1501L147.962 256.818C145.76 261.584 141.139 264.774 135.902 265.143ZM285.304-24.1654-18.3154-24.1654C-22.178-23.7658-25.5707-21.4247-27.3154-17.9552-29.8804-12.4652-27.9004-3.60018-21.8254 7.02005L121.187 256.998C124.298 262.027 129.681 265.206 135.587 265.503L135.902 265.503C141.295 265.18 146.071 261.91 148.322 256.998L288.634 12.3301C292.819 5.715 302.134-10.5301 297.634-18.9453 294.851-22.8885 290.072-24.9116 285.304-24.1654" transform="matrix(1.00231 0 0 -1 126.477 547.508)"/><path d="M0 0 130.277 0 130.277 98.5513 90.4513 46.5756 46.5757 46.5756Z" fill-rule="evenodd" transform="matrix(1.00231 0 0 -1 187.368 538.193)"/><path d="M0 0 24.5253 30.0603 21.1953 32.7604-3.3302 2.69993-10.3501 8.41509-14.4902-14.4002 7.02005-5.71516Z" fill-rule="evenodd" transform="matrix(1.00231 0 0 -1 278.84 468.892)"/><path d="M0 0 17.7753 19.9352 14.5802 22.7703-3.19505 2.88024-9.94512 8.91021-15.1202-13.7251 6.75007-5.98497Z" fill-rule="evenodd" transform="matrix(1.00231 0 0 -1 197.336 509.843)"/></g></svg>