<svg width="328" height="290" xmlns="http://www.w3.org/2000/svg" xmlns:xlink="http://www.w3.org/1999/xlink" xml:space="preserve" overflow="hidden"><defs><clipPath id="clip0"><rect x="196" y="53" width="328" height="290"/></clipPath></defs><g clip-path="url(#clip0)" transform="translate(-196 -53)"><path d="M0 0-303.038 0C-315.951 2.42979-315.411 15.1633-306.412 30.9112L-163.42 280.81C-158.02 289.224-144.522 294.624-136.423 280.81L3.6895 36.2205C13.2282 21.1924 21.9572-0.269776 0 0" fill="#FFCC01" fill-rule="evenodd" transform="matrix(1.0023 0 0 -1 509.876 342.449)"/><path d="M0 0-134.983-233.971 134.983-233.971ZM150.011-257.863-153.026-257.863C-165.94-255.434-165.4-242.7-156.401-226.952L-13.4083 22.9472C-8.00903 31.3611 5.48927 36.7604 13.5883 22.9472L153.701-221.643C163.24-236.671 171.969-258.133 150.191-257.638Z" fill-rule="evenodd" transform="matrix(1.0023 0 0 -1 359.52 84.5856)"/><path d="M0 0 269.337 0 134.713 233.521ZM269.967-0.35992-0.53988-0.35992 134.713 234.241 134.713 233.971ZM135.568 265.107C129.789 264.784 124.532 261.66 121.485 256.738L-21.5073 6.83929C-27.5366-3.59952-29.4714-12.5985-26.9968-17.8178-25.2845-21.1589-22.0014-23.4097-18.2677-23.802L284.725-23.802C290.889-23.802 294.984-22.1823 296.873-18.8078 301.373-10.5738 292.374 5.57941 288.099 12.1034L147.942 256.738C145.753 261.521 141.13 264.73 135.883 265.107ZM285.265-24.1619-18.3129-24.1619C-22.175-23.7624-25.5672-21.4218-27.3117-17.9528-29.8763-12.5085-27.8966-3.59952-21.8224 7.01909L121.17 256.918C124.271 261.963 129.655 265.16 135.568 265.467L135.883 265.467C141.279 265.116 146.048 261.833 148.302 256.918L288.594 12.3284C292.779 5.71438 302.093-10.5738 297.593-19.1675 294.756-23.0257 289.988-24.9573 285.265-24.1619" transform="matrix(1.0023 0 0 -1 224.497 318.467)"/><path d="M0 0-47.6941-29.5164C-50.2919-31.678-50.6455-35.5363-48.4838-38.1341-48.1013-38.594-47.6532-38.9953-47.1542-39.3252L-32.2159-48.7289-46.0743-58.7628C-50.9637-61.9124-51.2336-65.062-46.8841-68.2117L-31.3161-78.7401-48.7739-90.3938-36.5804-112.261 9.94376-84.7696C15.1181-80.2701 16.6929-76.1755 10.3937-72.3511L-2.69956-63.6672 10.7987-53.1384C15.0281-50.9337 15.2982-47.6941 11.1587-43.3298L-2.69956-33.521 14.0383-22.9922Z" fill-rule="evenodd" transform="matrix(1.0023 0 0 -1 377.288 189.063)"/><path d="M0 0 12.0586-21.5973 58.4029 5.80436C61.5525 8.50392 62.9024 10.8437 62.9024 12.9584 62.9024 15.0731 61.4175 16.378 58.8978 17.9528L45.8494 26.7267 59.3477 37.2555C60.8942 37.8359 62.0665 39.1254 62.4973 40.72 62.5415 43.0641 61.5144 45.3002 59.7076 46.7941L45.3993 56.7381 62.2273 67.3117 48.3691 89.809 0.854973 60.9225C-1.66905 58.8274-2.0167 55.0829 0.0783643 52.5591 0.45628 52.1039 0.899963 51.7077 1.39485 51.3838L16.513 41.8448 2.42979 31.4963C-0.0899799 29.9214-1.39485 28.3015-1.43984 26.9968-1.48483 25.6919-0.4499 24.0721 1.6198 22.4973L17.3679 11.7887 17.143 11.7887ZM11.8785-22.0922 11.8785-22.0922-0.49489 0.0899799 16.7379 11.6086 1.43984 22.0022C-0.719839 23.532-1.79976 25.107-1.75477 26.5017-1.70978 27.8966-0.35992 29.8763 2.24966 31.5411L15.7481 41.5748 1.03493 50.5738C-1.85735 52.5072-2.63461 56.4192-0.701025 59.3115-0.282864 59.9371 0.244255 60.4827 0.854973 60.9225L48.6841 90.3938 62.8122 67.2217 46.2543 56.873 60.0677 47.4242C61.9636 45.8502 63.0403 43.4988 62.9923 41.0349 62.5709 39.3397 61.3429 37.9599 59.7076 37.3453L46.2094 26.9516 58.9877 18.4027C61.6425 16.7829 63.0373 15.0733 63.1721 13.1385 63.3071 11.2036 61.8224 8.63906 58.6728 5.71438Z" transform="matrix(1.0023 0 0 -1 328.628 279.502)"/><path d="M0 0 0 9.85362-1.30487 11.1587-13.7682 11.1587C-14.1812 10.988-14.5502 10.7266-14.8482 10.3937-14.9195 10.205-15.01 10.0241-15.1181 9.85362L-15.1181 0C-15.1505-0.490636-14.8842-0.952478-14.4431-1.1699L-13.7682-1.1699-1.48467-1.1699C-1.07616-1.01448-0.718203-0.749942-0.4499-0.405073-0.342251-0.299388-0.251126-0.177997-0.17996-0.04499ZM-27.2217 28.8414-27.2217 35.6806C-27.3655 36.0954-27.6323 36.4563-27.9865 36.7154-28.1462 36.8414-28.3299 36.9333-28.5264 36.9854L-33.0259 36.9854C-33.4557 36.8471-33.8326 36.5801-34.1058 36.2205L-34.3758 35.6806-34.3758 29.1564C-34.3869 28.6228-34.1345 28.1177-33.7008 27.8066L-33.0259 27.4917-28.5264 27.4917C-28.0358 27.4591-27.5741 27.7256-27.3567 28.1665-27.3213 28.3749-27.3213 28.5879-27.3567 28.7965ZM-0.67485 35.7255-0.989943 37.0305-12.7783 37.0305C-13.2022 36.9044-13.5685 36.6338-13.8134 36.2655-13.9412 36.0998-14.047 35.9184-14.1282 35.7255-13.0846 33.3848-11.7383 31.1915-10.1237 29.2013-9.42253 28.2634-8.65574 27.3763-7.82891 26.5467-5.80698 28.3108-4.04926 30.3564-2.60958 32.621-2.11486 33.431-1.48483 34.4658-0.854973 35.7256ZM3.82447-1.97989 3.82447 11.5186 2.9695 13.3183C2.7048 13.9346 2.14594 14.375 1.48483 14.4882L-0.180123 15.1181-14.7582 15.1181C-15.4898 14.7744-16.2409 14.4738-17.0078 14.2181-17.7067 13.8877-18.2191 13.2594-18.4027 12.5085L-19.0775 10.5286-19.0775-1.25988C-18.9141-1.93735-18.6568-2.58848-18.3129-3.19461-17.5142-4.44403-16.2216-5.29475-14.7582-5.53426L-0.854973-5.53426C-0.166217-5.45573 0.512558-5.30489 1.16974-5.08436 2.51159-4.52501 3.50038-3.35183 3.82447-1.93473ZM7.10907 18.0428C7.41631 17.0515 6.90588 15.9911 5.93933 15.6132 5.45491 15.4803 4.95642 15.4047 4.4545 15.388 1.70978 16.513-1.21489 17.8177-4.31936 19.3476L-8.144 21.3272C-10.7106 19.5222-13.4728 18.013-16.378 16.8277L-20.4274 15.3431C-21.4151 15.0795-22.4474 15.5765-22.8572 16.513-22.9145 17.0062-22.9145 17.5044-22.8572 17.9978L-10.5738 23.892-16.198 31.0912-20.2025 26.8615C-20.5599 26.6175-20.9848 26.4917-21.4174 26.5015-21.8493 26.4975-22.2723 26.6228-22.6322 26.8615-22.9693 27.0563-23.1756 27.4172-23.1721 27.8066L-23.1721 25.0169C-23.2889 24.3924-23.7115 23.8684-24.297 23.6222-24.5799 23.5734-24.869 23.5734-25.1518 23.6222L-28.4814 23.6222-28.4814 15.3882-22.8572 15.3882C-22.415 15.4106-21.9914 15.2073-21.7323 14.8482-21.4713 14.4315-21.3457 13.9441-21.3724 13.4533-21.3362 12.9473-21.4622 12.4429-21.7323 12.0136-21.9792 11.64-22.4114 11.4325-22.8572 11.4736L-28.7065 11.4736-28.7065 0.67485-23.0821 2.9695C-22.4124 3.01874-21.7547 2.7722-21.2824 2.29465-21.0321 1.92344-20.9059 1.48238-20.9225 1.03477-20.8969 0.795423-20.8969 0.554276-20.9225 0.31493-20.9135 0.210062-20.9135 0.104868-20.9225 -3.63265e-17-24.4898-1.61293-28.1567-2.99584-31.901-4.13957L-36.8504-5.57941C-37.2998-5.85311-37.7842-6.06497-38.2902-6.20927-38.7681-6.27258-39.2522-6.27258-39.7301-6.20927L-40.81-6.20927-41.1699-6.20927C-41.4261-5.80485-41.5662-5.33794-41.5748-4.85941-41.5583-4.03977-41.1372-3.28165-40.4501-2.8347-39.7167-2.26749-38.8123-1.96631-37.8853-1.97989L-37.8853 16.7381C-37.5768 17.3683-36.9639 17.7939-36.2655 17.8628-35.8076 17.8401-35.3745 17.6475-35.0506 17.3229-34.8672 17.1443-34.7013 16.9485-34.5557 16.7381L-34.5557-0.989943-31.901 0-31.901 23.577-35.8606 23.577C-36.7131 23.7372-37.4619 24.2417-37.9303 24.9719-38.1603 25.3591-38.356 25.7655-38.5153 26.1866L-38.5153 37.9753C-38.2922 38.8725-37.7479 39.6569-36.9854 40.1801L-35.8606 40.63-26.2318 40.63C-25.2212 40.6703-24.2704 40.1517-23.7572 39.2802-23.5194 38.8762-23.3521 38.4352-23.2621 37.9753L-23.2621 28.9763-22.9472 29.9213C-21.4342 31.2523-20.0892 32.7635-18.9426 34.4208-17.7997 36.1003-16.806 37.8768-15.9731 39.7301L-13.6333 41.0348 2.60975 41.0348C3.27249 40.9065 3.85605 40.5175 4.22955 39.955 4.36926 39.6633 4.48951 39.3628 4.58947 39.0552 4.02685 35.2237 2.35306 31.6412-0.22495 28.7514-1.61964 27.0416-2.9695 25.3318-4.36452 23.667L0.13497 21.0574C1.17808 20.3929 2.33899 19.9348 3.5547 19.7076 4.93074 19.5023 6.1898 18.8171 7.10923 17.7728ZM-52.8235-2.29465C-52.5985-1.57481-52.4635-0.899963-52.3284-0.315093-52.2805 0.299061-52.2805 0.915832-52.3284 1.52982-52.28 2.68533-52.5776 3.82906-53.1834 4.81442-53.914 5.77688-55.0833 6.30203-56.2882 6.20927L-89.6288 6.20927C-89.7165 6.50277-89.7165 6.81557-89.6288 7.10907-89.6055 7.62784-89.4672 8.13517-89.2239 8.5939L-88.4141 9.85362-57.4579 9.85362-56.243 10.2587C-55.4597 10.7436-54.9323 11.5513-54.8032 12.4635L-54.8032 18.6726C-54.8932 19.1324-55.0605 19.5737-55.2982 19.9775-55.8262 20.8562-56.7937 21.3745-57.8178 21.3274L-91.2936 21.3274C-91.6069 21.1587-91.8947 20.9465-92.1486 20.6975-92.6216 20.1373-92.805 19.3879-92.6435 18.6728-92.5355 18.5023-92.4449 18.3214-92.3736 18.1328-92.0882 17.7861-91.7154 17.522-91.2936 17.3678L-60.4726 17.3678C-60.0665 17.3862-59.6781 17.2006-59.4378 16.8729-59.1913 16.5337-59.0645 16.1221-59.0777 15.703-59.0792 15.2297-59.2032 14.7646-59.4378 14.3531-59.657 13.9912-60.0493 13.7697-60.4726 13.7682L-91.2936 13.7682C-92.1725 13.2482-92.7929 12.3829-93.0034 11.3836-93.5435 9.67382-93.8584 8.68388-93.9484 8.50392L-94.5334 6.65917C-94.704 6.08951-94.7948 5.49892-94.8032 4.9044-94.8011 4.45941-94.6764 4.02358-94.4433 3.64451-94.173 3.27887-93.7682 3.03609-93.3185 2.9695L-91.6536 2.60958-57.8178 2.60958C-57.0101 2.40672-56.4385 1.68753-56.4231 0.854973-56.4289 0.209081-56.633-0.419306-57.008-0.944953-57.382-1.49596-57.8739-1.95698-58.4479-2.29465L-61.3725-3.1048C-63.5708-3.61899-65.819-3.89057-68.0765-3.91462L-73.0711-3.91462C-74.5107-3.91462-75.6806-3.91462-76.6704-3.59969-79.3605-3.29965-82.0336-2.86414-84.6796-2.29465-85.4744-2.31805-86.0998-2.98128-86.0766-3.77621-86.0763-3.79241-86.0755-3.80844-86.0743-3.82464-86.0679-4.3938-85.8787-4.94579-85.5344-5.39945-85.2663-5.83299-84.8231-6.12861-84.3195-6.20927-82.8347-6.61418-81.575-6.88412-80.585-7.06424-77.8848-7.57729-75.1444-7.84854-72.3962-7.87406L-67.8967-7.87406C-65.1586-7.94899-62.4222-7.67692-59.7526-7.06424-56.9607-6.40297-54.529-4.69581-52.9584-2.29465ZM-84.6796 33.431C-84.6183 33.0583-84.6183 32.6784-84.6796 32.3061-84.7835 30.939-85.4124 29.6652-86.4342 28.7514-87.4597 27.7868-88.3798 26.7159-89.1789 25.5569-90.2564 24.7052-91.2238 23.7228-92.0586 22.6322-92.8323 21.4803-94.094 20.7497-95.4782 20.6524-96.156 20.9205-96.6255 21.5466-96.6931 22.2723-96.5766 23.0321-96.2314 23.7385-95.7031 24.297L-94.1283 26.2318-91.1587 29.5164-88.954 32.036C-88.2515 32.9716-87.1925 33.5743-86.0295 33.7008-85.6262 33.6836-85.2296 33.592-84.8594 33.431ZM-50.4838 34.7357C-49.6439 34.8286-49.0386 35.5848-49.1313 36.4245-49.1322 36.4316-49.133 36.4384-49.1339 36.4455-49.1137 36.9217-49.2393 37.3926-49.4939 37.7952-49.7031 38.206-50.0552 38.526-50.4838 38.6951L-70.7313 38.6951-70.7313 41.9799C-71.0603 42.8898-71.9759 43.4505-72.9359 43.3298-73.3642 43.3561-73.7894 43.2457-74.1508 43.0147-74.4736 42.7593-74.6835 42.3879-74.7357 41.9799L-74.7357 38.5152-94.3533 38.5152C-95.2634 38.1862-95.824 37.2705-95.7031 36.3105-95.7229 35.8973-95.613 35.4881-95.3882 35.1406-95.133 34.818-94.7616 34.6079-94.3533 34.5557L-80.4051 34.5557-80.4051 23.4421C-80.4051 22.5871-79.8652 22.1823-78.7403 22.1823-78.3275 22.1683-77.9202 22.2779-77.5704 22.4973-77.2571 22.709-77.0713 23.064-77.0755 23.4421L-77.0755 34.6907-69.1115 34.6907-69.1115 23.577C-69.1525 23.1314-68.9451 22.699-68.5716 22.4521-68.1421 22.1822-67.6377 22.0559-67.1317 22.0922-66.6426 22.0814-66.1598 22.2059-65.7369 22.4521-65.3537 22.6946-65.1303 23.1242-65.1519 23.577L-65.1519 34.6907ZM-49.1788 22.6322C-49.0145 22.0917-49.1922 21.5055-49.6288 21.1474-50.0661 20.8102-50.6068 20.6353-51.1587 20.6524-51.6284 20.6381-52.0936 20.7466-52.5085 20.9673L-57.4129 25.4668C-59.0704 27.0478-60.5768 28.7802-61.9123 30.6413-62.0289 31.5653-61.4857 32.4458-60.6075 32.756-60.1619 32.8445-59.7033 32.8445-59.2577 32.756-57.008 30.7761-54.7582 28.2565-52.0136 25.6469-51.2037 24.7919-50.2139 23.667-48.999 22.2723ZM-132.689 0.13497C-136.38-1.47714-140.185-2.81555-144.072-3.86946L-149.247-5.12951C-150.121-5.20035-150.92-4.63004-151.136-3.77965-151.2-3.34693-151.2-2.90733-151.136-2.47478-150.734-1.42806-149.777-0.697263-148.662-0.58487-147.794-0.457752-146.946-0.215461-146.142 0.13497-143.712 0.675013-140.968 1.39469-137.953 2.24966L-134.173 3.41956C-133.642 3.52754-133.091 3.37752-132.689 3.01465-132.287 2.60991-132.075 2.05449-132.104 1.48483-132.093 0.996487-132.252 0.519593-132.554 0.13497ZM-133.678 34.8707C-133.535 35.437-133.669 36.0379-134.039 36.4905-134.35 36.924-134.855 37.1766-135.388 37.1655-136.047 37.162-136.65 36.7997-136.963 36.2205L-141.463 24.3869-145.422 24.3869C-145.43 24.4919-145.43 24.5971-145.422 24.7019-145.56 24.9825-145.637 25.2893-145.647 25.6017-145.637 26.1148-145.481 26.6143-145.197 27.0416-145.197 27.3567-144.387 30.1012-142.902 35.3206-142.366 36.9944-142.078 38.7377-142.048 40.4949-141.981 41.2435-141.981 41.9963-142.048 42.7447-142.574 43.1077-143.238 43.2074-143.847 43.0147-145.017 43.0147-145.602 42.5648-145.602 41.6648L-146.277 40.3599C-146.682 38.3352-147.042 36.6254-147.402 35.2756-148.289 31.5316-149.462 27.8614-150.911 24.297-151.317 24.3155-151.706 24.1297-151.946 23.802-152.172 23.4527-152.297 23.048-152.306 22.6322-152.31 22.1516-152.169 21.6811-151.901 21.2824-151.697 20.9275-151.321 20.7057-150.911 20.6975L-143.622 20.6975C-144.162 19.3925-144.657 18.3127-145.062 17.4577-146.269 15.0397-147.668 12.7225-149.247 10.5286-149.277 10.2294-149.277 9.92806-149.247 9.62867-149.088 8.98131-148.615 8.45713-147.987 8.23398L-145.332 8.23398-140.293 8.23398C-138.305 8.29075-136.323 8.45615-134.353 8.72887-134.336 8.84814-134.336 8.96953-134.353 9.08895-134.303 9.40176-134.303 9.72078-134.353 10.0337-134.35 10.9761-134.847 11.8494-135.658 12.3284L-142.273 12.3284C-142.508 12.4306-142.664 12.6572-142.677 12.9134-142.362 13.5883-142.002 14.2633-141.642 14.9381L-137.143 24.657C-135.639 27.8535-134.434 31.1823-133.543 34.6007ZM-104.792-4.76943-115.771 6.02931-115.096 7.33402-105.782 7.33402C-104.942 7.42694-104.337 8.1831-104.43 9.02286-104.43 9.02989-104.431 9.03677-104.432 9.0438-104.417 9.51939-104.543 9.98875-104.792 10.3937-105.016 10.793-105.363 11.1086-105.782 11.2936L-114.421 11.2936C-114.196 12.0585-114.016 12.6885-113.926 13.1834-113.603 14.6617-113.438 16.1697-113.431 17.6829L-113.431 22.2272C-113.39 22.673-113.597 23.1052-113.971 23.3521-114.4 23.6222-114.905 23.7482-115.411 23.712-115.9 23.723-116.383 23.5983-116.806 23.3521-117.189 23.1098-117.412 22.6802-117.39 22.2272L-117.39 17.3229-117.39 15.2981C-117.545 13.8757-117.846 12.4735-118.29 11.1137L-124.05 11.1137C-123.391 11.3412-122.979 11.9961-123.06 12.6885-122.987 13.6593-123.5 14.58-124.365 15.0281L-127.964 18.6276C-128.595 19.3449-129.486 19.782-130.439 19.8425L-131.024 19.8425-131.654 19.8425C-132.018 19.5243-132.231 19.0664-132.239 18.5827-132.119 17.889-131.771 17.2554-131.249 16.7829L-129.674 15.2531-125.714 11.3386-132.329 11.3386-132.734 10.9785C-133.65 10.1767-133.743 8.78384-132.941 7.86752-132.768 7.6694-132.56 7.504-132.329 7.37901L-119.73 7.37901C-120.638 5.5871-121.84 3.95977-123.285 2.56459-124.77 1.03477-126.254-0.405073-127.784-1.93473L-131.429-4.09458C-132.68-4.82816-133.538-6.08232-133.769-7.51414-133.288-8.0604-132.605-8.38564-131.879-8.41411-130.993-8.34997-130.14-8.05517-129.404-7.55913L-127.109-6.16428-121.08-0.899963C-119.943 0.149203-118.74 1.12606-117.481 2.02471L-114.421-0.899963C-112.216-3.01482-109.921-5.39945-107.897-7.51414-107.555-7.76052-107.148-7.90122-106.727-7.91905-106.185-7.9395-105.661-7.72666-105.287-7.33418-104.88-6.94792-104.652-6.41017-104.657-5.84935-104.589-5.52297-104.589-5.18595-104.657-4.85941ZM-119.055 18.4927C-119.834 19.1425-120.516 19.9001-121.08 20.7423-122.43 22.6771-123.69 23.6222-124.815 23.6222L-125.355 23.6222-126.029 23.6222C-126.124 23.5322-126.2 23.4254-126.254 23.3071-126.527 22.8091-126.681 22.2547-126.704 21.6873L-123.555 18.0428C-122.671 16.9898-121.604 16.1056-120.405 15.433-119.881 15.2974-119.324 15.4325-118.92 15.7929-118.575 16.1547-118.396 16.6437-118.425 17.1428-118.401 17.7336-118.63 18.3068-119.055 18.7176ZM-105.152 27.4917C-104.917 27.0264-104.765 26.524-104.702 26.0068-104.645 25.4684-104.645 24.9253-104.702 24.3869-104.725 22.9755-105.031 21.5832-105.602 20.2924-106.175 19.038-106.852 17.8339-107.627 16.6929-108.038 16.4105-108.523 16.2541-109.022 16.2428-109.537 16.2471-110.033 16.4388-110.416 16.7829-110.798 17.1076-111.013 17.587-111.001 18.0878-111 18.5187-110.875 18.9404-110.641 19.3025-110.236 20.0675-109.966 20.6524-109.786 21.0574-109.51 21.6052-109.342 22.2008-109.292 22.812-109.292 23.4871-109.741 23.9819-110.641 24.2069L-133.678 24.2069C-134.39 24.7304-134.795 25.5738-134.758 26.4567-134.796 27.1975-134.364 27.8822-133.678 28.1665L-122.07 28.1665-122.07 33.0709-131.069 33.0709C-131.736 33.4804-132.169 34.1813-132.239 34.9606-132.211 35.6165-131.919 36.2334-131.429 36.6704-131.328 36.7961-131.207 36.9026-131.069 36.9854L-122.07 36.9854-122.07 43.0147C-122.063 43.3906-121.833 43.7263-121.485 43.8695-121.104 44.0936-120.667 44.2029-120.225 44.1846-119.775 44.196-119.329 44.1037-118.92 43.9146-118.6 43.7304-118.41 43.3836-118.425 43.0147L-118.425 37.0755-106.772 37.0755C-106.067 36.5664-105.662 35.7397-105.692 34.8707-105.64 34.1263-106.077 33.4341-106.772 33.1609L-118.425 33.1609-118.425 28.1665-106.772 28.1665C-106.772 28.1665-105.152 27.4915-105.152 27.4917M-160.45-6.92911C-159.607-6.73181-159.033-5.94816-159.1-5.08436-159.088-4.57949-159.283-4.09163-159.64-3.73449-160.021-3.36574-160.563-3.21359-161.08-3.32975L-185.332-3.32975C-186.692-2.96803-188.017-2.4859-189.292-1.88974-192.065-0.549368-194.381 1.57907-195.951 4.22955L-196.266 5.53426-196.266 22.5871C-196.35 23.0136-196.501 23.4239-196.716 23.802-197.206 24.5727-198.014 25.0841-198.92 25.1968L-205.895 25.1968-206.57 24.8819C-206.673 24.7404-206.763 24.5899-206.839 24.432-207.013 24.0983-207.106 23.7282-207.109 23.3521-207.111 22.9609-207.019 22.575-206.839 22.2272-206.61 21.837-206.285 21.5116-205.895 21.2824L-201.395 21.2824C-201.172 21.3259-200.943 21.3259-200.72 21.2824-200.27 21.0746-200 20.6061-200.045 20.1125L-200.045 4.72444-205.04-2.15968C-205.471-2.53678-205.731-3.07257-205.76-3.64451-205.769-4.18881-205.497-4.69924-205.04-4.99438-204.545-5.31912-203.966-5.49123-203.375-5.48943-202.948-5.50186-202.527-5.39258-202.16-5.1745-201.786-4.93548-201.514-4.56705-201.395-4.13957L-197.751 0.809819C-196.435-1.23109-194.757-3.01515-192.801-4.4545-190.884-5.91266-188.55-6.71692-186.142-6.74931ZM-193.926 30.7761C-194.373 30.7039-194.829 30.7039-195.276 30.7761-196.473 30.8297-197.616 31.2901-198.516 32.0811-199.595 32.9359-200.63 33.7459-201.575 34.6007-202.52 35.4555-203.51 36.0854-204.005 36.5355-204.854 37.1406-205.317 38.152-205.22 39.1902L-204.905 40.1801C-204.479 40.42-203.998 40.5441-203.51 40.5401-202.449 40.4345-201.461 39.9562-200.72 39.1902-200.27 38.7401-199.775 38.3352-199.235 37.8852L-195.816 35.4105C-194.67 34.7139-193.895 33.5427-193.701 32.2159-193.711 31.8017-193.787 31.3914-193.926 31.001ZM-161.08 7.51414-173.049 7.51414-173.049 0.26994C-173.213-0.14724-173.515-0.496362-173.904-0.719839-174.333-0.949207-174.811-1.07272-175.298-1.07992-176.137-1.18446-176.901-0.589614-177.006 0.248835-177.007 0.25587-177.007 0.262905-177.008 0.26994L-177.008 7.51414-190.956 7.51414C-191.382 7.66482-191.735 7.96993-191.946 8.36895-192.203 8.77321-192.343 9.24012-192.351 9.71881-192.453 10.5574-191.856 11.3201-191.018 11.4224-190.997 11.4248-190.977 11.427-190.956 11.4284L-177.008 11.4284-177.008 18.3127-189.607 18.3127C-190.596 18.3127-191.046 19.1675-191.046 20.3376-191.064 20.8619-190.923 21.3794-190.641 21.8223-190.322 22.2587-189.83 22.5372-189.292 22.5871-188.332 24.657-187.432 26.9068-186.592 29.3362-186.322 30.1464-186.007 31.1812-185.647 32.396L-190.641 32.396C-191.303 32.8248-191.721 33.5434-191.766 34.3308-191.75 34.9799-191.475 35.5957-191.001 36.0406L-190.641 36.3555-184.972 36.3555-183.982 38.9652-182.993 41.5748C-182.911 41.9828-182.668 42.3403-182.318 42.5648-181.962 42.6415-181.594 42.6415-181.238 42.5648L-180.383 42.5648-180.023 42.5648C-179.956 42.0268-179.956 41.4827-180.023 40.9448-180.029 39.6327-180.288 38.3339-180.788 37.1203-180.898 36.853-181.033 36.5968-181.193 36.3555L-162.745 36.3555C-162.337 36.3031-161.965 36.0932-161.71 35.7705-161.472 35.4271-161.347 35.0186-161.35 34.6007-161.269 33.6365-161.838 32.7354-162.745 32.396L-182.003 32.396-183.982 26.1868C-184.342 25.197-184.702 24.2071-185.017 23.2171-185.019 22.7654-184.728 22.3648-184.297 22.2272L-177.008 22.2272-177.008 29.5164C-176.971 29.9295-176.758 30.3066-176.423 30.5511-176.078 30.7816-175.667 30.8924-175.253 30.8662-174.293 30.987-173.378 30.4263-173.049 29.5164L-173.049 22.2723-161.845 22.2723C-161.159 21.8823-160.77 21.1219-160.855 20.3376-160.763 19.5397-161.152 18.7629-161.845 18.3577L-173.049 18.3577-173.049 11.5186-161.08 11.5186C-160.672 11.4662-160.301 11.2563-160.045 10.9335-159.815 10.5888-159.704 10.1777-159.73 9.7638-159.614 8.81558-160.177 7.91545-161.08 7.60396Z" fill-rule="evenodd" transform="matrix(1.0023 0 0 -1 460.133 419.074)"/></g></svg>