<svg width="327" height="290" xmlns="http://www.w3.org/2000/svg" xmlns:xlink="http://www.w3.org/1999/xlink" xml:space="preserve" overflow="hidden"><defs><clipPath id="clip0"><rect x="92" y="0" width="327" height="290"/></clipPath></defs><g clip-path="url(#clip0)" transform="translate(-92 0)"><path d="M0 0-302.8 0C-315.703 2.42788-315.163 15.1514-306.172 30.887L-163.292 280.635C-157.896 288.997-144.409 294.392-136.316 280.635L3.68661 36.1921C13.2178 21.3556 21.94-0.269728 0 0" fill="#FFCC01" fill-rule="evenodd" transform="matrix(1 0 0 -1.00074 404.915 289.437)"/><path d="M0 0-134.878-233.787 134.877-233.787ZM149.894-257.661-152.906-257.661C-165.809-255.233-165.27-242.51-156.278-226.774L-13.3978 22.9741C-8.00275 31.3365 5.48496 36.7315 13.5776 22.9741L153.58-221.469C163.112-236.44 171.834-257.931 150.074-257.436Z" fill-rule="evenodd" transform="matrix(1 0 0 -1.00074 255.021 31.5847)"/><path d="M0 0 269.125 0 134.608 233.338ZM269.755-0.359637-0.539456-0.359637 134.608 234.057 134.608 233.788ZM135.462 264.899C129.687 264.576 124.434 261.454 121.39 256.537L-21.4904 6.83376C-27.515-3.68677-29.4482-12.4086-26.9756-17.8038-25.2647-21.1423-21.9841-23.3913-18.2534-23.7835L285.041-23.7835C291.02-23.7835 294.977-22.12 296.82-18.7481 301.316-10.5204 292.324 5.57503 288.053 12.0939L147.826 256.582C145.626 261.343 141.009 264.531 135.777 264.899ZM285.041-24.1429-18.2985-24.1429C-22.1576-23.7439-25.5472-21.405-27.2903-17.9387-29.8528-12.4537-27.8747-3.5967-21.8053 7.01358L121.075 256.762C124.184 261.785 129.562 264.961 135.462 265.259L135.777 265.259C141.165 264.936 145.936 261.669 148.185 256.762L288.368 12.3187C292.549 5.70989 301.856-10.5655 297.36-18.9277 294.579-22.8674 289.805-24.8887 285.041-24.1429" transform="matrix(1 0 0 -1.00074 120.414 265.456)"/><path d="M0 0 6.65394 0C30.3923 24.1429 49.9046 16.5 68.293 0L81.7807 0 97.2016 9.93579C115.635 20.5013 130.382 14.1171 143.42 0L152.906 0 152.906-27.7849 0.0449547-27.7849Z" fill-rule="evenodd" transform="matrix(1 0 0 -1.00074 182.907 212.905)"/><path d="M0 0 152.501 0 152.501 27.4251 143.06 27.4251C128.089 43.6104 113.477 46.7576 97.0667 37.3161L81.6007 27.6049 68.1132 27.6049C57.5477 37.1363 48.4209 41.9469 39.4292 42.8011 28.4591 43.8352 17.8038 38.8447 6.6989 27.6049L0.0449547 27.6049ZM152.861-0.359637-0.314683-0.359637-0.314683 27.9646 6.42917 27.9646C17.5341 39.2495 28.3242 44.195 39.3392 43.2058 48.331 42.3515 57.5926 37.4959 68.2029 27.9646L81.6906 27.9646 97.0667 37.8556C113.612 47.3869 128.538 44.2398 143.465 27.9646L153.041 27.9646Z" transform="matrix(1 0 0 -1.00074 183.042 240.71)"/><path d="M0 0-7.95779-10.1607C-8.42041-11.0888-9.11778-11.8793-9.98108-12.4537L-10.6104-12.7684-11.3299-12.7684C-11.8062-12.7869-12.2608-12.5678-12.5437-12.1839-12.8345-11.7122-12.9754-11.1638-12.9482-10.6104-12.9419-10.0662-12.8191-9.52973-12.5886-9.03687-10.8802-7.19356-9.21668-5.26035-7.64311-3.19211-7.0587-2.51762-6.42917-1.61853-5.61999-0.539619L-3.91155 1.84314C-3.39465 2.7066-2.60312 3.37144-1.66365 3.73156-0.899256 3.73156-0.404755 3.73156-0.0900728 3.37193 0.260083 2.90734 0.435161 2.33421 0.404592 1.75339 0.433199 1.14283 0.293268 0.536186 0 0M29.4932-20.0069C30.3346-19.9386 30.9613-19.201 30.893-18.3596 30.8915-18.3392 30.8894-18.3189 30.8868-18.2985 30.891-17.8184 30.75-17.3482 30.4824-16.9497 30.2842-16.5311 29.9287-16.2079 29.4932-16.0506L9.93579-16.0506 9.93579 6.2044 27.5149 6.2044 27.9196 6.56403C28.8354 7.36521 28.9281 8.75684 28.1269 9.67261 27.9536 9.87057 27.7463 10.036 27.5149 10.1607L-12.2739 10.1607-13.5778 8.85705-13.5778 7.55304C-13.5778 7.01358-13.1282 6.56403-12.3187 6.2044L5.93467 6.2044 5.93467-16.0504-14.9266-16.0504-15.2862-16.3651C-16.2252-17.1388-16.3592-18.5272-15.5855-19.4662-15.4033-19.6877-15.1791-19.8713-14.9266-20.0068L5.97946-20.0068 5.97946-36.0572 6.29431-36.4618C6.73568-36.939 7.35278-37.2151 8.00258-37.2262 8.7915-37.1883 9.51257-36.769 9.93579-36.1022L9.93579-20.0517ZM29.1783-11.7794C29.1376-12.2141 28.9075-12.6089 28.5491-12.8583 28.1562-13.097 27.7048-13.2217 27.2451-13.218 26.3902-13.2214 25.556-12.9538 24.8624-12.4537L15.8706-0.314846 15.5558 0.989002C15.5852 1.57047 15.8638 2.11107 16.3202 2.47267 16.8207 2.90342 17.4581 3.14241 18.1185 3.14715 18.6385 3.172 19.1446 2.97616 19.5121 2.60753L28.1444-9.17173C28.6093-9.47497 28.9456-9.93939 29.0884-10.4756 29.1327-10.9089 29.1327-11.3459 29.0884-11.7794ZM-26.391 5.88955C-25.6436 6.11481-25.1439 6.81823-25.1772 7.59799-25.1751 8.0034-25.2673 8.40358-25.4469 8.76714-25.6086 9.10601-25.9004 9.36544-26.2561 9.48641L-69.5068 9.48641-70.1812 9.48641C-70.622 9.26916-70.8883 8.80768-70.8556 8.31743-70.8886 7.97348-70.8886 7.62725-70.8556 7.28347-70.7365 6.64397-70.2362 6.14358-69.5968 6.02458L-46.7126 6.02458C-48.3769 2.63303-50.4777-0.525888-52.9618-3.37193-55.349-6.06152-58.0167-8.48809-60.9196-10.6103-63.1227-12.3187-66.2249-14.387-70.2711-16.9046-70.6404-17.2636-70.9582-17.6721-71.2154-18.1185-71.4305-18.5027-71.539-18.9372-71.53-19.3773-71.5121-20.176-71.0154-20.8854-70.2711-21.1758L-68.2931-21.1758C-65.1228-19.7818-62.2177-17.8499-59.7058-15.4659L-52.1526-8.5422-49.8147-5.88955-49.8147-35.3827C-49.8225-35.8083-49.5987-36.2043-49.2302-36.4169-48.8157-36.6374-48.3508-36.7459-47.8814-36.7315-47.4393-36.7613-46.9989-36.6513-46.6227-36.4169-46.3182-36.1623-46.1516-35.7792-46.173-35.3827L-46.173-0.989166-44.5546 1.07908C-43.4447 2.61375-42.4382 4.22083-41.5424 5.88955ZM-24.4128-19.6473C-23.9997-19.8873-23.6703-20.2482-23.4686-20.6813-23.2478-21.1439-23.14-21.6524-23.1541-22.1649-23.1299-22.6338-23.2733-23.0959-23.5585-23.4686-23.8884-23.8338-24.3736-24.0179-24.8625-23.9633L-25.1772-23.9633C-26.7508-22.5246-28.504-20.8611-30.4824-18.8829L-35.7875-13.7126C-38.44-11.06-40.2835-9.21668-41.0926-8.58732-41.5003-8.08399-41.9518-7.61761-42.4414-7.19356-43.3432-6.48213-43.9383-5.45243-44.1049-4.31614-43.7453-3.50695-43.2957-3.10236-42.7563-3.05724L-41.4523-3.05724C-39.4292-4.72089-37.406-6.51924-35.4279-8.49725-35.0231-8.85705-33.18-10.7903-29.7629-14.2523-27.3802-16.68-25.5369-18.5233-24.1881-19.7371ZM-114.331-31.786-114.331-4.81064-119.591-4.81064C-120.013-4.96479-120.385-5.22863-120.67-5.57503-120.742-5.76351-120.832-5.94431-120.94-6.11449L-120.94-30.7071C-120.446-31.5165-119.951-31.9211-119.456-31.966L-114.286-31.966ZM-95.1335-31.786-95.1335-24.9073-110.6-24.9073-110.6-31.966ZM-95.1335-14.4319-110.6-14.4319-110.6-20.951-95.1335-20.951ZM-95.1335-4.58587-110.6-4.58587-110.6-10.4754-95.1335-10.4754ZM-85.1976-30.4824-85.1976-5.88955C-85.1507-5.4199-85.4021-4.971-85.8269-4.76568L-86.5014-4.76568-90.9974-4.76568-90.9974-31.7411-86.5014-31.7411C-86.087-31.5974-85.7264-31.3308-85.4673-30.9769-85.3504-30.8118-85.2594-30.6298-85.1976-30.4372ZM-80.7016 5.21523-101.877 5.21523-103.541-0.494501-83.9836-0.494501C-83.0737-0.594382-82.2606-1.10866-81.7807-1.88826-81.5863-2.27503-81.4356-2.68208-81.3311-3.1022L-81.3311-32.9101C-81.4716-33.7268-82.0117-34.4189-82.7699-34.7534-83.1476-34.9674-83.5576-35.1192-83.9836-35.2031L-122.424-35.2031C-123.21-35.0875-123.903-34.6254-124.312-33.9442-124.512-33.6233-124.663-33.2749-124.762-32.9101L-124.762-3.28202C-124.61-2.47381-124.161-1.75176-123.503-1.25889-123.166-1.0248-122.804-0.828637-122.424-0.674483L-107.542-0.674483-105.879 5.21507-124.762 5.21507C-125.179 5.37609-125.539 5.65775-125.796 6.02458-125.922 6.18396-126.013 6.36754-126.065 6.56387-126.258 7.2784-126.072 8.04214-125.571 8.58716-125.341 8.83138-125.066 9.02967-124.762 9.17157L-80.6567 9.17157C-80.249 9.11926-79.8777 8.90952-79.6227 8.58716-79.3924 8.24256-79.2817 7.83175-79.3079 7.41817-79.204 6.46252-79.7584 5.55721-80.6567 5.21507ZM-140.947-31.1117-140.947-21.3106-142.251-20.0068-154.48-20.0068C-154.901-20.1609-155.274-20.4248-155.559-20.7712L-155.828-21.3106-155.828-31.1117C-155.874-31.6049-155.604-32.0733-155.154-32.2807-154.931-32.3242-154.702-32.3242-154.48-32.2807L-142.071-32.2807C-141.672-32.1086-141.318-31.847-141.037-31.5163-140.921-31.3347-140.83-31.1379-140.767-30.9319ZM-167.922-2.29285-167.922 4.58587C-168.066 5.0001-168.333 5.36088-168.687 5.61982-168.846 5.74569-169.03 5.83757-169.226 5.88955L-173.722 5.88955C-174.144 5.73556-174.516 5.47172-174.801 5.12548L-175.071 4.58587-175.071-1.97833C-175.083-2.49932-174.829-2.99087-174.397-3.28202-174.19-3.42162-173.962-3.52788-173.722-3.5967L-169.226-3.5967C-168.749-3.62629-168.296-3.38222-168.057-2.96733-168.023-2.74387-168.023-2.51648-168.057-2.29285ZM-141.396 4.58587-142.071 5.88955-153.491 5.88955C-153.905 5.74586-154.266 5.47924-154.525 5.12548-154.652 4.95989-154.758 4.77843-154.839 4.58587-153.77 2.24724-152.427 0.0439738-150.838-1.97833-150.119-2.89998-149.338-3.77129-148.5-4.58587-146.496-2.81956-144.755-0.775672-143.33 1.4835-142.683 2.48133-142.098 3.51725-141.576 4.58587ZM-136.9-33.0899-136.9-19.6022-137.755-17.8038C-138.01-17.1885-138.577-16.7591-139.238-16.6798L-140.902-16.0055-155.559-16.0055-157.762-16.9497C-158.479-17.2426-159.014-17.8607-159.2-18.613L-159.875-20.5914-159.875-32.4156C-159.684-33.0691-159.428-33.7018-159.11-34.3038-158.325-35.565-157.027-36.4192-155.559-36.6416L-141.666-36.6416C-140.977-36.5957-140.297-36.4595-139.643-36.237-138.291-35.6691-137.301-34.4779-136.991-33.0451ZM-133.619-13.1281C-133.333-14.0925-133.817-15.1178-134.742-15.511-135.251-15.5635-135.763-15.5635-136.271-15.511-139.014-14.4319-141.936-13.0831-145.038-11.5545L-148.86-9.62111C-151.435-11.4082-154.193-12.9154-157.087-14.1171-158.136-14.5668-159.485-15.0613-161.133-15.6009-162.392-15.6009-163.202-15.6009-163.561-14.4319-163.615-13.9538-163.615-13.4712-163.561-12.9932L-151.287-7.0587-156.907 0.134864-160.909-4.36109C-161.27-4.59191-161.695-4.70209-162.123-4.67577-162.554-4.67986-162.977-4.55464-163.337-4.31597-163.673-4.12161-163.88-3.76099-163.876-3.37193L-163.876-5.97962C-164.001-6.61046-164.418-7.14468-165-7.41833L-165.854-7.41833-169.181-7.41833-169.181-15.6009-163.561-15.6009C-163.109-15.5792-162.68-15.8025-162.437-16.1853-162.152-16.5924-162.01-17.0824-162.033-17.5791-162.017-18.0683-162.142-18.552-162.392-18.9728-162.666-19.339-163.105-19.542-163.561-19.5123L-169.406-19.5123-169.406-30.3475-163.786-28.0545C-163.126-28.0105-162.476-28.2377-161.988-28.684-161.738-29.0548-161.612-29.4956-161.628-29.9427-161.601-30.1817-161.601-30.423-161.628-30.662-161.613-30.7665-161.613-30.8724-161.628-30.9769-165.2-32.5846-168.863-33.9808-172.598-35.158L-177.544-36.5519C-177.983-36.8443-178.47-37.0573-178.982-37.1811-179.46-37.2444-179.944-37.2444-180.421-37.1811L-181.635-37.1811-181.995-37.1811C-182.246-36.7588-182.386-36.2791-182.399-35.7875-182.368-34.9726-181.95-34.2216-181.275-33.7644-180.542-33.1976-179.639-32.8965-178.713-32.9101L-178.713-14.4319C-178.409-13.7903-177.798-13.3491-177.094-13.2629-176.636-13.2857-176.204-13.4779-175.88-13.8025L-175.386-14.4319-175.386-31.966-172.733-30.9769-172.733-7.5532-176.689-7.5532C-177.539-7.35883-178.28-6.84324-178.758-6.11449-178.996-5.73229-179.192-5.32541-179.342-4.90071L-179.342 6.87872C-179.119 7.77519-178.575 8.55904-177.813 9.08182L-176.689 9.48625-167.068 9.48625C-166.065 9.54592-165.113 9.04357-164.595 8.18256-164.358 7.77912-164.191 7.33823-164.101 6.87872L-164.101-2.1132-163.786-1.12403C-162.264 0.195512-160.919 1.70681-159.785 3.37193-158.643 5.05029-157.65 6.82542-156.818 8.67707L-154.48 9.98091-138.249 9.98091C-137.594 9.8351-137.017 9.45045-136.631 8.90184-136.631 8.90184-136.631 8.40734-136.271 8.00275-136.823 4.17114-138.497 0.588661-141.082-2.29285-142.476-4.04641-143.824-5.70989-145.218-7.37322L-140.722-10.0259C-139.686-10.6613-138.544-11.103-137.35-11.3297-135.97-11.5502-134.712-12.2509-133.798-13.3079Z" fill-rule="evenodd" transform="matrix(1 0 0 -1.00074 331.182 326.061)"/></g></svg>