<svg width="328" height="290" xmlns="http://www.w3.org/2000/svg" xmlns:xlink="http://www.w3.org/1999/xlink" xml:space="preserve" overflow="hidden"><defs><clipPath id="clip0"><rect x="196" y="53" width="328" height="290"/></clipPath></defs><g clip-path="url(#clip0)" transform="translate(-196 -53)"><path d="M0 0-302.999 0C-315.911 2.4743-315.371 15.2061-306.373 30.9071L-163.399 280.82C-158 289.187-144.504 294.631-136.406 280.82L3.68903 36.2157C13.2265 21.2345 21.9544-0.405022 0 0" fill="#FFCC01" fill-rule="evenodd" transform="matrix(1.00231 0 0 -1 509.858 342.457)"/><path d="M0 0-134.966-233.941 134.966-233.941ZM149.992-257.875-153.007-257.875C-165.918-255.401-165.379-242.669-156.381-226.968L-13.4066 22.9442C-8.00801 31.3121 5.48857 36.7557 13.5865 22.9442L153.681-221.66C163.219-236.641 171.947-258.1 150.172-257.65Z" fill-rule="evenodd" transform="matrix(1.00231 0 0 -1 359.52 84.5818)"/><path d="M0 0 269.302 0 134.696 233.446ZM269.932-0.405022-0.539811-0.405022 134.696 234.166 134.696 233.896ZM135.551 265.029C129.773 264.705 124.516 261.582 121.47 256.661L-21.5046 6.74829C-27.5331-3.73402-29.4676-12.5069-26.9933-17.8607-25.2864-21.2129-22.005-23.4795-18.2654-23.8891L285.228-23.8891C289.791-24.5452 294.337-22.6014 297.015-18.8502 301.514-10.6173 292.517 5.48873 288.243 12.0569L147.923 256.661C145.734 261.443 141.112 264.651 135.866 265.029ZM285.228-24.4739-18.3105-24.4739C-22.1663-24.0582-25.551-21.7228-27.3082-18.2654-29.8725-12.7768-27.893-3.91412-21.8196 6.7033L121.155 256.84C124.255 261.885 129.638 265.081 135.551 265.388L135.866 265.388C141.261 265.037 146.029 261.755 148.283 256.84L288.558 12.237C292.742 5.6685 302.054-10.6173 297.555-19.2552 294.773-23.1975 289.996-25.22 285.228-24.4739" transform="matrix(1.00231 0 0 -1 224.513 318.388)"/><path d="M93.3676 149.363 102.095 149.363 102.095 137.98 93.3676 137.98Z" transform="matrix(1.00231 0 0 -1 196.044 432.884)"/><path d="M93.5476 138.115 101.915 138.115 101.915 149.183 93.5476 149.183ZM102.275 137.755 93.2777 137.755 93.2777 149.542 102.275 149.542Z" transform="matrix(1.00231 0 0 -1 196.044 432.884)"/><path d="M96.4269 184.454 214.612 184.454 214.612 156.696 96.4269 156.696Z" transform="matrix(1.00231 0 0 -1 196.044 432.884)"/><path d="M96.6068 156.876 214.387 156.876 214.387 184.274 96.6068 184.274ZM214.747 156.516 96.247 156.516 96.247 184.499 214.747 184.499Z" transform="matrix(1.00231 0 0 -1 196.044 432.884)"/><path d="M200.036 192.552 230.538 192.552 230.538 181.53 200.036 181.53Z" transform="matrix(1.00231 0 0 -1 196.044 432.884)"/><path d="M200.216 181.754 230.358 181.754 230.358 192.372 200.216 192.372ZM230.763 181.395 199.856 181.395 199.856 192.732 230.763 192.732Z" transform="matrix(1.00231 0 0 -1 196.044 432.884)"/><path d="M108.484 192.237 124.815 192.237 124.815 181.214 108.484 181.214Z" transform="matrix(1.00231 0 0 -1 196.044 432.884)"/><path d="M108.664 181.439 124.635 181.439 124.635 192.057 108.664 192.057ZM124.995 181.08 108.304 181.08 108.304 192.417 124.995 192.417Z" transform="matrix(1.00231 0 0 -1 196.044 432.884)"/><path d="M0 0 12.1017 0 17.4107-10.9773-5.80362-10.9773Z" fill-rule="evenodd" transform="matrix(1.00231 0 0 -1 364.525 238.893)"/><path d="M0 0 22.4942 0 17.3206 10.6173 5.62352 10.6173ZM23.2591-0.359874-0.584959-0.359874-0.584959-0.090132 5.26365 10.9771 17.6355 10.9771Z" transform="matrix(1.00231 0 0 -1 358.979 249.69)"/><path d="M0 0 120.12 0 119.895 9.0878 141.895 9.0878 141.445 0 141.445-10.5273 0-10.5273Z" fill-rule="evenodd" transform="matrix(1.00231 0 0 -1 285.388 274.749)"/><path d="M0 0 141.04 0 141.04 10.3475 141.534 19.3452 119.895 19.3452 120.12 10.3475 0 10.3475ZM141.444-0.359874-0.360037-0.359874-0.360037 10.5724 119.76 10.5724 119.535 19.5701 142.029 19.5701 141.534 10.2574Z" transform="matrix(1.00231 0 0 -1 285.568 285.142)"/><path d="M0 0C7.25587 0.844886 12.4531 7.41177 11.6084 14.6676 10.7637 21.9233 4.19662 27.1207-3.05909 26.276-9.72772 25.4995-14.757 19.8505-14.7563 13.1369-14.2736 5.45143-7.68936-0.409929 0 0" fill-rule="evenodd" transform="matrix(1.00231 0 0 -1 410.384 305.387)"/><path d="M0 0C-7.15576-0.844722-12.2719-7.33047-11.427-14.4866-10.5821-21.6423-4.09635-26.7583 3.05942-25.9134 9.61059-25.14 14.5536-19.5984 14.5764-13.0016 14.1175-5.39794 7.60675 0.409602 0 0M0-26.3184C-7.40866-25.4984-12.7498-18.8276-11.9298-11.4188-11.1096-4.01014-4.43904 1.33104 2.96978 0.511021 9.7763-0.242261 14.9397-5.97391 14.9812-12.8218 14.5957-20.6638 7.92573-26.7084 0.0837525-26.3226 0.0557804-26.3213 0.027972-26.3199-2.25195e-15-26.3184" transform="matrix(1.00231 0 0 -1 410.384 279.248)"/><path d="M0 0C7.25587 0.844886 12.4533 7.41177 11.6084 14.6676 10.7637 21.9233 4.19662 27.1207-3.05909 26.276-9.72772 25.4995-14.7568 19.8505-14.7563 13.1369-14.2736 5.45143-7.68936-0.409929 0 0" fill-rule="evenodd" transform="matrix(1.00231 0 0 -1 375.438 305.387)"/><path d="M0 0C-7.15576-0.844722-12.2719-7.33047-11.4268-14.4866-10.5821-21.6423-4.09635-26.7583 3.05942-25.9134 9.61059-25.14 14.5538-19.5984 14.5764-13.0016 14.1175-5.39794 7.60675 0.409602 0 0M0-26.3184C-7.41144-25.5231-12.7749-18.8703-11.9795-11.459-11.1844-4.04744-4.53163 1.31599 2.87965 0.520836 9.70792-0.211835 14.8971-5.9546 14.9364-12.8218 14.5492-20.6636 7.87846-26.7072 0.0364781-26.3202Z" transform="matrix(1.00231 0 0 -1 375.438 279.248)"/><path d="M0 0C7.25587 0.844886 12.4531 7.41177 11.6084 14.6676 10.7635 21.9233 4.19662 27.1207-3.05925 26.276-9.72772 25.4995-14.7568 19.8505-14.7563 13.1369-14.2736 5.45143-7.68936-0.409929 0 0" fill-rule="evenodd" transform="matrix(1.00231 0 0 -1 340.491 305.387)"/><path d="M0 0C-7.15576-0.844722-12.2719-7.33047-11.427-14.4866-10.5821-21.6423-4.09635-26.7583 3.05942-25.9134 9.61059-25.14 14.5536-19.5984 14.5764-13.0016 14.1175-5.39794 7.60659 0.409602 0 0M0-26.3184C-7.41144-25.5231-12.7749-18.8703-11.9797-11.459-11.1846-4.04744-4.53163 1.31599 2.87965 0.520836 9.70776-0.211835 14.8971-5.9546 14.9362-12.8218 14.5492-20.6636 7.87846-26.7072 0.0364781-26.3202Z" transform="matrix(1.00231 0 0 -1 340.491 279.248)"/><path d="M0 0C5.68552-0.223449 10.4758 4.20414 10.6994 9.88966 10.9228 15.5752 6.49523 20.3654 0.809716 20.5889-4.8758 20.8125-9.66605 16.3847-9.88966 10.6992-9.89539 10.5522-9.898 10.4048-9.89751 10.2575-9.97292 4.70126-5.55531 0.123011 0 0" fill-rule="evenodd" transform="matrix(1.00231 0 0 -1 314.743 305.387)"/><path d="M0 0C-5.58688 0.198749-10.2772-4.16914-10.4759-9.75618-10.6747-15.3432-6.30679-20.0334-0.719748-20.2323 4.86713-20.4309 9.55743-16.0628 9.75618-10.4759 9.76027-10.3582 9.76256-10.2404 9.76256-10.1224 9.86283-4.63223 5.49347-0.100274 0.00327158-0.000163579 0.00229011 0 0.00114505 0 0 0M0-20.5599C-5.78726-20.7089-10.5998-16.1381-10.7486-10.3508-10.8978-4.56336-6.32707 0.248804-0.539647 0.397988 5.24762 0.547008 10.0601-4.02388 10.2091-9.81114 10.2117-9.91485 10.2129-10.0187 10.2124-10.1224 10.2872-15.8119 5.73557-20.4847 0.0462929-20.5594 0.0307529-20.5596 0.0153764-20.5598-2.11575e-15-20.5599" transform="matrix(1.00231 0 0 -1 314.743 285.007)"/><path d="M0 0C4.097-0.148693 7.53887 3.05189 7.68756 7.14889 7.83642 11.2459 4.63567 14.6878 0.538666 14.8365-3.55833 14.9851-7.00004 11.7846-7.14889 7.68756-7.15102 7.62949-7.15249 7.57125-7.15315 7.51318-7.27812 3.48996-4.11777 0.127264-0.0947122 0.00245369-0.0631415 0.00147221-0.0315708 0.000654316 0 0" fill-rule="evenodd" transform="matrix(1.00231 0 0 -1 294.001 305.387)"/><path d="M0 0C-3.99738 0.14853-7.35844-2.97174-7.50697-6.96928-7.65533-10.9668-4.53506-14.3279-0.537521-14.4763 3.46002-14.6248 6.82108-11.5043 6.96945-7.50697 6.97436-7.37398 6.97566-7.24115 6.97321-7.10816 6.97403-3.23445 3.87306-0.073447 0 0M0-14.8011C-4.19646-14.95-7.71897-11.6687-7.86766-7.47229-8.01635-3.27567-4.73512 0.246677-0.538666 0.39537 3.65779 0.544227 7.1803-2.737 7.32899-6.93362 7.33096-6.99169 7.33243-7.04993 7.33325-7.10816 7.45806-11.2307 4.21723-14.674 0.0945487-14.799 0.0631415-14.8 0.0315708-14.8006 0-14.8011" transform="matrix(1.00231 0 0 -1 294.001 290.765)"/><path d="M0 0C6.52337 14.1264 16.8707 20.0199 32.7968 13.8565 53.9865 20.6047 74.7713 10.3923 64.8738-15.8811 62.6244-22.9892 54.8413-25.8236 41.4347-24.4739 35.4512-30.6824 26.4983-29.2877 16.196-24.4739 10.0326-31.4471 1.25972-32.8867-10.0774-28.9728-15.5766-29.4014-19.6872-34.207-19.2586-39.7062-19.2251-40.1359-19.1638-40.563-19.0751-40.9847L-30.7723-40.9847C-31.0422-15.8811-19.5251-3.64405 0 0" fill-rule="evenodd" transform="matrix(1.00231 0 0 -1 338.868 199.978)"/><path d="M0 0 11.2922-0.224921C10.6173 6.34343 13.5416 10.1674 20.2899 11.787 31.4471 7.78309 40.2648 9.26757 46.3383 16.2859 58.1253 10.7972 66.0434 10.7972 71.3522 16.2859 84.5787 14.9362 92.3618 17.7706 94.6112 24.7438 99.65 38.2404 96.1858 45.8885 92.3618 49.8924 86.2434 56.3258 74.6364 58.0354 62.7142 54.3913 47.733 60.1948 37.0708 55.696 30.1425 40.6249 9.89751 36.4408-0.134953 23.2591 0 0M11.697-0.584795-0.359874-0.359874C-1.01893 9.77466 1.85908 19.8238 7.78309 28.0729 13.6271 34.843 21.7343 39.2563 30.5924 40.4899 33.0003 46.7167 37.5451 51.8837 43.414 55.0663 49.9012 57.5752 57.1306 57.3315 63.4341 54.3913 75.4461 58.2153 87.1881 56.4609 93.3966 49.8924 97.2656 45.7985 100.865 38.0604 95.6909 24.3389 93.4416 17.2306 85.5235 14.3065 72.1619 15.656 66.7183 10.1224 58.6652 10.1224 46.8783 15.656 40.7148 8.72776 31.8519 7.28826 20.5599 11.1572 15.1533 10.8288 11.0367 6.17952 11.3651 0.772911 11.3948 0.286263 11.4605-0.197767 11.5621-0.674763Z" transform="matrix(1.00231 0 0 -1 308.16 240.468)"/><path d="M0 0 0 30.9971C0.0366417 31.5709-0.261399 32.1142-0.764732 32.3919-1.00258 32.4369-1.2468 32.4369-1.48448 32.3919L-21.1447 32.3919C-21.6603 32.3769-22.119 32.0594-22.3143 31.5819-22.3143 31.5819-22.3143 31.132-22.6294 30.7722L-22.6294-0.0449842C-22.5374-0.644011-22.2533-1.19658-21.8195-1.6196-21.6207-1.79397-21.392-1.93121-21.1447-2.02462L-1.16959-2.02462C-0.673291-1.84861-0.289698-1.44816-0.134789-0.944832-0.134789-0.944832-0.0448206-0.225085 0.0449842 0.179937ZM2.87948-2.6544C3.03537-3.44775 2.80096-4.26761 2.24954-4.85879 1.7714-5.38191 1.14244-5.74342 0.450006-5.89359L-22.8543-5.89359C-23.7067-5.73361-24.4554-5.22897-24.9237-4.49891-25.1714-4.11467-25.3822-3.70801-25.5537-3.28418L-25.5537 33.9214C-25.3997 34.7591-24.9913 35.5289-24.3837 36.1259L-23.574 36.5758 0.764895 36.5758C1.60586 36.3862 2.28765 35.7726 2.56443 34.9562 2.75385 34.5278 2.87523 34.0724 2.9243 33.6065L2.9243-2.38449ZM-40.0849 4.90377-40.0849 7.51318-55.1562 7.51318-55.1562 4.90377C-55.0434 4.51838-54.8433 4.16423-54.5713 3.86897L-54.1664 3.59907-41.0297 3.59907-40.5349 4.27383-40.0399 4.90377ZM-40.0849 14.7563-55.1562 14.7563-55.1562 11.4721-40.0849 11.4721ZM-40.0849 18.6703-40.0849 20.9646-41.0747 22.2695-54.1664 22.2695C-54.4093 22.1097-54.61 21.8936-54.7512 21.6395-54.7636 21.4596-54.7636 21.2793-54.7512 21.0996L-54.7512 18.8052ZM-35.586-7.87306C-34.9112-7.87306-34.5513-7.15315-34.5513-6.16366-34.5534-5.70056-34.6452-5.24222-34.8212-4.81397-34.9632-4.44526-35.2352-4.141-35.586-3.9591L-54.4363-3.9591C-56.2659-3.89433-57.9472-2.93592-58.9352-1.39467-60.2733 0.333701-61.0856 2.41099-61.2746 4.58888L-61.2746 20.7397C-61.3456 21.1527-61.4511 21.5589-61.5895 21.9544-61.8847 22.6537-62.4798 23.1827-63.2091 23.3941L-67.708 23.3941-68.4277 23.0341C-68.4657 22.9173-68.4657 22.7911-68.4277 22.6742-68.45 22.3596-68.45 22.0441-68.4277 21.7295-68.5 21.3127-68.5 20.8866-68.4277 20.4698-68.2892 20.0644-68.0397 19.706-67.708 19.4352L-65.0536 19.4352-64.5587 19.4352C-64.2092 19.152-64.0237 18.7133-64.0639 18.2652L-64.0639 3.64389-65.5934 1.21457C-66.8081-0.539974-67.9779-2.11459-69.1926-3.59923-69.3878-3.94078-69.4813-4.33108-69.4625-4.72383-69.4805-5.31108-69.324-5.89032-69.0127-6.38858-68.7426-6.88341-68.4277-7.15315-68.0678-7.15315-67.6985-7.09213-67.3808-6.85805-67.2131-6.52353L-62.7142 0.35971C-62.0239-1.69468-61.006-3.62409-59.7-5.35378-58.691-6.87261-57.0222-7.82382-55.201-7.91804ZM-61.3645 32.6168C-61.1599 32.2121-61.0521 31.7654-61.0497 31.3121-61.0392 30.8654-61.1646 30.4262-61.4095 30.0524-61.6408 29.738-62.009 29.5538-62.3993 29.5574-62.7447 29.5905-63.0656 29.7508-63.299 30.0073L-67.573 36.0808C-67.6306 36.7371-67.4896 37.3953-67.1682 37.9705-66.9102 38.276-66.5333 38.4564-66.1334 38.4651L-65.6385 38.4651-61.1396 32.7066ZM-35.0911 29.6925-46.3833 29.6925-47.1031 26.4082-39.0952 26.4082C-38.4206 26.0949-37.8787 25.5532-37.5654 24.8787-37.3958 24.512-37.2456 24.1366-37.1156 23.754L-37.1156 2.4743C-37.2844 1.73181-37.696 1.0667-38.2855 0.584795L-39.0952 0.179937-55.876 0.179937C-56.5121 0.358729-57.0281 0.824765-57.2705 1.43966-57.393 1.77892-57.4982 2.12424-57.5855 2.4743L-57.5855 23.754C-57.4964 24.5128-57.1651 25.2226-56.6407 25.7784-56.423 26.0297-56.1644 26.2427-55.876 26.4082L-50.2523 26.4082C-50.1244 26.9411-50.0342 27.4824-49.9826 28.028L-49.9826 29.6925-59.2501 29.6925C-59.6062 29.6862-59.9286 29.9013-60.0598 30.2323-60.248 30.6729-60.3399 31.1482-60.3299 31.627-60.3494 32.121-60.2571 32.6132-60.0598 33.0667-59.9286 33.3978-59.6062 33.6127-59.2501 33.6065L-53.1316 33.6065-54.7512 37.5654C-54.8325 37.9511-54.8325 38.3495-54.7512 38.7352L-54.7512 39.1852C-54.4245 39.3816-54.0526 39.4901-53.6714 39.5001-52.8617 39.5001-52.142 38.7352-51.512 37.2056-51.0622 36.036-50.6122 34.8212-50.1173 33.6065L-45.7534 33.6065-44.044 38.1052C-43.8189 38.9151-43.504 39.32-43.0993 39.365L-42.1095 39.365C-41.5116 38.9884-41.1666 38.3158-41.2096 37.6104-41.2505 36.9255-41.4182 36.2545-41.7045 35.6309-42.1543 34.7762-42.4244 34.1463-42.6043 33.7864L-34.9562 33.7864C-34.4226 33.3017-34.1131 32.6177-34.1015 31.8969-34.1066 31.286-34.2945 30.6905-34.6413 30.1874L-34.9562 29.8723ZM-79.7649-2.47446-79.7649 7.37807-80.7547 8.68277-89.7525 8.68277C-90.2408 8.39455-90.5964 7.92606-90.7422 7.37807L-90.7422-2.47446C-90.7836-2.90991-90.5963-3.3357-90.2474-3.59923-90.0848-3.63914-89.915-3.63914-89.7525-3.59923L-80.7547-3.59923C-80.4365-3.41651-80.1725-3.15249-79.9898-2.83433L-79.9898-2.29436ZM-99.7399 26.4082-99.7399 33.2916C-99.8444 33.6803-100.046 34.0362-100.325 34.3264-100.439 34.4435-100.577 34.5356-100.73 34.5961L-104.104 34.5961C-104.445 34.4285-104.727 34.162-104.914 33.8314L-104.914 33.2916-104.914 26.7232C-104.931 26.2394-104.753 25.7691-104.419 25.4185-104.288 25.2681-104.116 25.1588-103.924 25.1037L-100.55 25.1037C-100.148 25.0714-99.7834 25.3399-99.695 25.7334-99.678 25.958-99.678 26.1836-99.695 26.4082ZM-80.3499 33.4266-80.6198 34.7311-88.8977 34.7311C-89.225 34.5606-89.492 34.2937-89.6624 33.9664L-89.8875 33.4266C-89.1277 31.1474-88.1485 28.9478-86.9632 26.858-86.4423 25.9572-85.8718 25.0858-85.2536 24.2488-83.7004 26.084-82.4131 28.1286-81.4295 30.3223-81.0696 31.087-80.6198 32.1218-80.1248 33.4266ZM-76.9307-4.27399-76.9307 9.22258C-77.1556 9.76256-77.3354 10.3923-77.5605 11.0221-77.7185 11.549-78.1203 11.9674-78.6403 12.1469L-79.8549 12.8218-90.3373 12.8218-92.0019 11.8768C-92.5718 11.4778-92.9474 10.8574-93.0367 10.1674L-93.5314 8.23293-93.5314-3.59923C-93.3886-4.24389-93.1931-4.87596-92.9466-5.48873-92.5195-6.65358-91.5416-7.5302-90.3373-7.82791L-80.1248-7.82791C-79.6257-7.77426-79.1392-7.63734-78.6851-7.42322-77.5911-6.69807-76.8679-5.53142-76.7058-4.22901ZM-74.5012 15.701C-74.5012 14.4864-74.5012 13.6765-75.3561 13.3165-75.7117 13.1657-76.0945 13.0893-76.4809 13.0916-78.6933 14.2809-80.8409 15.5874-82.9141 17.0057L-85.7035 18.9853C-87.5486 17.2574-89.5865 15.7479-91.777 14.4864-92.7177 13.9271-93.6945 13.431-94.7013 13.0016-95.4675 12.7896-96.2607 13.2388-96.4729 14.005-96.4838 14.0451-96.4933 14.0855-96.5008 14.1264-96.5455 14.6202-96.5455 15.1172-96.5008 15.6112L-87.503 21.5046-91.6419 28.7477-94.5212 24.4737C-94.7706 24.2591-95.0921 24.1466-95.421 24.1588-95.7722 24.1416-96.1149 24.2722-96.3657 24.5189-96.6078 24.7726-96.7375 25.113-96.7257 25.4635L-96.7257 22.8543C-96.7943 22.286-97.0855 21.7681-97.5355 21.4146L-98.2104 21.4146-100.64 21.4146-100.64 13.2265-96.5008 13.2265C-96.1333 13.226-95.8071 12.9906-95.6909 12.6417-95.4605 12.2144-95.3515 11.7321-95.3761 11.2472-95.3554 10.7676-95.4479 10.2898-95.646 9.85236-95.7933 9.51441-96.1321 9.30029-96.5008 9.31272L-100.64 9.31272-100.64-1.52979-96.5008 0.764732C-95.9752 0.795158-95.4749 0.536539-95.1961 0.0899685-94.9913-0.280702-94.8977-0.702408-94.9262-1.12477L-94.9262-1.84452C-94.9154-1.96426-94.9154-2.08481-94.9262-2.20455-97.5049-3.78047-100.197-5.16386-102.979-6.34343L-106.623-7.73811C-106.905-8.03696-107.263-8.25452-107.658-8.36788-108.015-8.43103-108.381-8.43103-108.738-8.36788L-109.503-8.36788C-109.588-8.40845-109.687-8.40845-109.772-8.36788-109.974-7.94601-110.081-7.4857-110.087-7.01819-110.083-6.24332-109.777-5.50067-109.233-4.94876-108.745-4.41941-108.063-4.1109-107.343-4.09389L-107.343 14.5762C-106.983 15.3411-106.623 15.7461-106.173 15.7461-105.723 15.7461-105.588 15.7461-105.274 15.1613-105.135 14.9783-105.014 14.7825-104.914 14.5764L-104.914-3.10424-102.979-2.15941-102.979 21.4596-105.904 21.4596C-106.588 21.6943-107.132 22.2222-107.388 22.8993-107.572 23.2752-107.723 23.6666-107.838 24.069L-107.838 35.586C-107.712 36.4102-107.316 37.1696-106.713 37.7455-106.478 37.95-106.202 38.1033-105.904 38.1954L-98.8402 38.1954C-98.0133 38.1885-97.2777 37.6682-96.9957 36.8907-96.8406 36.4663-96.72 36.0299-96.6358 35.586L-96.6358 26.5883-96.6358 27.5781C-95.4711 28.9453-94.4883 30.4574-93.7115 32.0769-92.8481 33.7902-92.1113 35.5645-91.5069 37.3855L-89.7974 38.6902-77.6954 38.6902C-77.1741 38.4816-76.7547 38.0783-76.5257 37.5654-76.4025 37.2923-76.3121 37.0053-76.2558 36.7107-76.6006 33.0346-77.8026 29.4907-79.7649 26.3632-80.7997 24.6538-81.8343 22.9891-82.8242 21.2797L-79.405 18.6703C-78.6939 18.0473-77.8464 17.6004-76.9307 17.3655-75.8264 17.0672-74.8772 16.3594-74.2763 15.3861ZM-128.488 25.8686-132.402 25.8686C-132.942 23.5889-133.571 21.2947-134.291 18.9853-134.585 17.993-134.93 17.017-135.326 16.061L-128.983 16.061-128.983 20.9646C-128.983 23.1692-128.983 24.7888-128.713 25.8686ZM-115.846-9.85253-116.341-9.85253-116.881-9.85253C-117.87-9.85253-118.86-9.0878-119.85-7.60315-120.84-6.11851-121.425-5.21866-122.144-4.04907-123.179-2.11459-124.214-0.090132-125.204 1.8895-126.224 3.96548-126.994 6.15531-127.498 8.41287L-131.232-1.21474C-132.466-4.10371-134.22-6.74158-136.406-8.99783-136.632-9.28818-136.982-9.45487-137.35-9.44767-137.799-9.44293-138.225-9.2463-138.52-8.90786-138.847-8.57089-139.025-8.11728-139.015-7.64814-139.016-7.18881-138.857-6.74354-138.565-6.38858-136.561-3.83004-134.827-1.07095-133.391 1.84435-132.231 4.15687-131.195 6.52975-130.287 8.95268L-129.342 11.9669-135.191 11.9669C-135.717 12.1919-136.067 12.6996-136.091 13.2717L-136.091 14.5762-137.306 14.9362C-137.105 14.452-137.013 13.9301-137.036 13.4066-137.024 12.9757-137.1 12.547-137.26 12.1469-137.395 11.8245-137.722 11.6249-138.07 11.6519L-142.164 11.6519-142.164-1.48464-137.665 1.79953C-137.497 2.09774-137.196 2.29829-136.856 2.33951-136.461 2.31873-136.097 2.12015-135.866 1.79953-135.598 1.40073-135.457 0.930274-135.461 0.449842-135.474-0.0695211-135.646-0.572363-135.956-0.989817-136.678-2.11655-137.609-3.0941-138.7-3.86897-139.863-4.70192-140.974-5.60324-142.029-6.56835L-142.884-6.56835C-143.814-6.6243-144.656-6.02511-144.909-5.12886-145.059-4.66217-145.15-4.17846-145.179-3.6892L-145.179 11.742-149.677 11.742C-150.013 11.7993-150.299 12.018-150.442 12.3268-150.55 12.7093-150.55 13.1141-150.442 13.4966-150.442 14.6213-150.127 15.3411-149.452 15.656L-144.954 15.656-144.954 21.6395-146.438 21.6395C-146.516 21.0847-146.787 20.575-147.203 20.1999-147.589 19.8595-148.083 19.6681-148.598 19.6601-149.007 19.6382-149.405 19.8035-149.677 20.1099-149.99 20.5555-150.133 21.0978-150.082 21.6394-149.092 24.5189-148.103 27.803-147.113 31.5371-146.798 32.7066-146.393 34.2363-145.943 36.0358-145.493 37.8353-145.583 37.9703-145.448 38.5103-145.314 39.0502-144.819 40.1748-144.234 40.3098-143.793 40.4385-143.318 40.2977-143.019 39.9499-142.755 39.5344-142.63 39.0463-142.659 38.5552-142.606 37.9565-142.606 37.3543-142.659 36.7556-142.749 36.1907-142.884 35.6341-143.064 35.091L-137.215 35.091C-136.652 34.6927-136.343 34.0239-136.406 33.3366-136.35 32.52-136.645 31.7183-137.215 31.132L-144.324 31.132-145.763 25.5535-139.465 25.5535C-139.116 25.5026-138.813 25.2842-138.655 24.9687-138.57 24.5835-138.57 24.1842-138.655 23.7989-138.533 22.9362-138.941 22.0846-139.69 21.6394L-142.569 21.6394-142.569 15.3861-138.07 15.3861-138.07 15.026C-138.031 15.3097-138.031 15.5974-138.07 15.8809-137.631 18.4764-137.046 21.0449-136.316 23.5739-135.886 25.0472-135.571 26.5512-135.371 28.0728-135.108 29.2301-134.913 30.4018-134.786 31.5819-134.746 32.7372-134.263 33.8327-133.436 34.6411-132.94 34.7821-132.41 34.5809-132.132 34.1463-131.836 33.6106-131.696 33.0029-131.727 32.3919-131.687 31.9278-131.687 31.4612-131.727 30.9971-131.727 30.5023-131.727 29.9624-132.087 29.4225L-128.668 29.4225-128.668 39.1852C-128.695 39.5866-128.547 39.9802-128.263 40.2648-128.017 40.5233-127.675 40.6697-127.318 40.6697-126.418 40.6697-126.013 40.1748-126.013 39.185L-126.013 29.6925-118.455 29.6925C-117.915 29.1939-117.605 28.4933-117.601 27.7579-117.61 27.1407-117.815 26.5422-118.185 26.0483L-118.455 25.7334-125.833 25.7334-125.833 21.2345-125.833 16.0159-116.566 16.0159C-116.241 15.9346-115.964 15.7229-115.801 15.4311-115.724 15.0449-115.724 14.6475-115.801 14.2613-115.801 13.1367-116.116 12.3718-116.791 12.0569L-125.788 12.0569C-124.079 7.558-123.044 4.8138-122.729 4.04891-121.699 1.43606-120.354-1.04151-118.725-3.32932L-116.836-5.71365C-116.093-6.51535-115.648-7.5477-115.576-8.63795-115.517-9.05573-115.517-9.47973-115.576-9.89768ZM-177.48 2.15941C-176.992 1.63923-176.746 0.936163-176.806 0.224921-176.798-0.335664-176.921-0.890197-177.166-1.39467-177.362-1.79135-177.758-2.04981-178.2-2.06944-178.471-2.0346-178.732-1.94266-178.965-1.7997-179.91-0.360037-181.214 1.7094-182.834 4.45393-184.454 7.19813-185.758 9.22258-186.748 10.6622-186.824 11.003-186.824 11.3561-186.748 11.697-186.772 12.2709-186.579 12.8328-186.208 13.2717-185.879 13.6834-185.386 13.9301-184.859 13.9464-183.599 12.2818-182.294 10.3474-180.9 8.1428-179.505 5.93841-178.425 4.13888-177.301 2.15924ZM-157.056 16.2408C-156.307 16.686-155.898 17.5376-156.021 18.4002-156.004 18.8219-156.097 19.2403-156.291 19.6149-156.439 19.9118-156.726 20.1145-157.056 20.1549L-164.434 20.1549-164.434 27.7129C-164.541 28.328-165.069 28.7804-165.693 28.7927-166.411 28.7871-167.06 28.3661-167.358 27.7129L-167.358 20.1549-190.257 20.1549C-190.932 20.1549-191.247 19.48-191.247 18.4903-191.249 18.0122-191.158 17.5383-190.977 17.0956-190.837 16.7399-190.584 16.4397-190.257 16.2408L-167.223 16.2408-167.223-3.1044C-167.261-3.91428-167.8-4.61473-168.573-4.85879-169.259-4.96037-169.956-4.96037-170.642-4.85879L-172.307-4.85879C-173.497-4.662-174.651-4.28266-175.726-3.73418-176.126-3.86096-176.463-4.13397-176.671-4.49891-176.859-4.85944-176.952-5.26217-176.941-5.66867-176.938-6.47478-176.687-7.26029-176.221-7.91804-175.854-8.52181-175.216-8.90819-174.511-8.95284L-171.857-9.31288-168.663-9.31288C-167.621-9.29178-166.62-8.91031-165.828-8.2331-164.833-7.47785-164.263-6.28814-164.299-5.03889L-164.299 16.2408ZM-156.561 29.3325C-156.778 28.3844-156.928 27.4224-157.01 26.4533-157.281 24.069-158 22.9892-159.215 23.124-159.555 23.3594-159.821 23.6872-159.98 24.069-160.128 24.4569-160.204 24.8683-160.205 25.2834-160.171 26.0863-160.066 26.8842-159.89 27.6681-159.858 28.1322-159.858 28.5982-159.89 29.0626-159.836 29.8522-160.238 30.6032-160.925 30.9971L-185.219 30.9971C-185.874 30.7015-186.379 30.1479-186.613 29.4676-186.748 29.1015-186.853 28.7253-186.928 28.3428L-186.928 24.4287C-186.928 23.5739-187.513 23.124-188.143 23.124-188.576 23.1347-188.977 23.3521-189.222 23.7088-189.58 24.0919-189.801 24.582-189.852 25.1037L-189.852 32.3018C-189.714 33.1349-189.321 33.905-188.728 34.5062-188.477 34.6774-188.205 34.8135-187.918 34.911L-174.781 34.911-174.781 38.8701C-174.331 39.6349-173.881 39.9947-173.341 39.9947-172.821 39.9643-172.349 39.6779-172.082 39.23L-172.082 38.8701-172.082 34.911-159.89 34.911C-158.771 34.6781-157.843 33.9016-157.416 32.8418-157.124 32.2532-156.898 31.6347-156.741 30.9971L-156.741 29.3323ZM-203.214-3.1044-203.214-1.12477-221.794-1.12477-221.794-3.1044C-221.7-3.49716-221.497-3.85556-221.21-4.13904-221.107-4.27072-220.965-4.36543-220.805-4.40895L-204.519-4.40895C-204.158-4.23522-203.848-3.97186-203.619-3.64405-203.491-3.47851-203.385-3.29694-203.304-3.1044ZM-203.214 5.75847-221.794 5.75847-221.794 2.4743-203.214 2.4743ZM-203.214 10.6622C-203.2 11.1999-203.375 11.7253-203.709 12.1469-203.85 12.334-204.017 12.5005-204.204 12.6417L-220.805 12.6417C-221.404 12.31-221.755 11.6601-221.704 10.9771-221.773 10.302-221.414 9.65558-220.805 9.35754L-204.519 9.35754C-204.158 9.53142-203.848 9.79462-203.619 10.1224-203.491 10.2881-203.385 10.4695-203.304 10.6622ZM-196.871 20.3348-217.43 20.3348C-217.655 19.93-218.06 19.255-218.645 18.4002L-219.86 16.4209-202.314 16.4209C-201.565 16.0942-200.98 15.477-200.695 14.7113-200.557 14.3001-200.452 13.879-200.38 13.4514L-200.38-4.5439C-200.605-5.48873-200.83-6.20848-200.965-6.65832-201.1-7.10833-201.729-7.78309-202.314-7.78309L-222.514-7.78309C-223.265-7.77131-223.945-7.33586-224.269-6.65832-224.445-6.27914-224.595-5.88819-224.719-5.48873L-224.719 10.8873-229.847 6.38841C-230.05 6.1581-230.352 6.04065-230.657 6.07336-231.071 6.10755-231.441 6.3431-231.647 6.7033-231.949 7.12174-232.107 7.62704-232.097 8.1428-232.1 8.56843-231.991 8.9872-231.782 9.35754-229.93 10.8682-228.186 12.5068-226.563 14.2613-225.063 15.8209-223.804 17.3206-222.784 18.7602L-221.299 20.6497-230.792 20.6497C-231.552 21.0476-231.996 21.8651-231.917 22.7192-231.917 23.7988-231.512 24.4287-230.792 24.6087L-219.365 24.6087C-219.14 24.9236-218.78 25.4185-218.375 26.0935L-217.43 27.533-229.082 27.533C-229.425 27.7458-229.692 28.0603-229.847 28.4326-230.027 28.8601-230.118 29.3189-230.117 29.7823-230.117 30.7722-229.757 31.357-229.082 31.4921L-216.216 31.4921-214.731 34.4162-228.633 34.4162C-229.148 34.9284-229.439 35.6241-229.442 36.3509-229.429 36.9604-229.242 37.5537-228.902 38.0603L-228.633 38.3753-214.506 38.3753-208.163 38.69-199.165 39.9949C-198.787 39.9992-198.432 39.8133-198.22 39.5001-197.975 39.0929-197.851 38.6251-197.86 38.1504-197.738 37.3119-198.151 36.4861-198.895 36.0808L-211.582 34.4162-213.021 31.4921-198.445 31.4921C-197.874 31.0998-197.563 30.4265-197.635 29.7374-197.591 28.9226-197.884 28.1253-198.445 27.5328L-214.236 27.5328-215.721 24.6087-197.23 24.6087C-196.69 24.1101-196.38 23.4095-196.376 22.6742-196.382 22.0773-196.57 21.4962-196.916 21.0096L-197.23 20.6496ZM-237.36-5.89359C-237.001-6.37631-236.797-6.95685-236.776-7.55817-236.75-8.01374-236.894-8.46243-237.18-8.81789-237.435-9.15274-237.84-9.33856-238.26-9.31288-238.549-9.29276-238.827-9.19985-239.07-9.04281-241.724-5.71365-243.839-2.87948-245.323-0.584959-247.315 2.49016-249.017 5.7431-250.407 9.13262-252.07 13.2888-253.321 17.5985-254.141 21.9993-255.402 15.6247-257.521 9.45012-260.44 3.64389-262.857-1.10318-266.155-5.34756-270.157-8.86287-270.48-9.11315-270.874-9.25481-271.282-9.26773-272.092-9.26773-272.497-8.77291-272.497-7.78309-272.49-7.2477-272.351-6.72212-272.092-6.25346-270.281-4.59493-268.611-2.78919-267.098-0.854864-265.145 1.68028-263.456 4.40878-262.059 7.2881-260.012 11.4442-258.5 15.8433-257.56 20.3798-256.669 24.8228-256.232 29.3451-256.256 33.8766L-256.256 39.635C-255.836 40.8046-255.296 41.3894-254.636 41.3894-253.961 41.3894-253.466 40.8046-253.061 39.635L-253.061 31.9869C-252.699 28.2553-251.991 24.5656-250.947 20.9646-249.983 17.2924-248.827 13.6732-247.483 10.1224-246.041 6.99627-244.356 3.98773-242.444 1.12461L-237.495-5.8486ZM-277.85 3.10424C-277.79 0.936981-277.925-1.23126-278.255-3.37431-278.75-5.80362-279.74-7.24328-281.269-7.87322L-293.461-7.87322C-294.217-7.55539-294.805-6.9351-295.081-6.16366-295.081-5.89359-295.081-5.48873-295.396-4.94892L-295.396 19.8398-298.32 19.8398C-298.725 17.0505-299.085 14.8011-299.4 13.0467-299.4 12.2818-299.76 11.247-300.03 9.98748-301.223 6.65816-302.635 3.41177-304.259 0.269742-305.839-2.76661-307.855-5.55547-310.242-8.00801-310.512-8.41303-310.782-8.63795-311.142-8.63795-311.592-8.60753-311.997-8.35431-312.222-7.96319-312.506-7.48636-312.661-6.94344-312.671-6.38858-312.689-5.90471-312.51-5.43459-312.177-5.08387-309.094-1.71414-306.572 2.12898-304.708 6.29828-302.767 10.5747-301.507 15.1288-300.974 19.795L-310.962 19.795C-311.298 19.8521-311.584 20.0708-311.727 20.3798-311.921 20.7381-312.014 21.1424-311.997 21.5494-312.119 22.4121-311.711 23.2639-310.962 23.709L-300.75 23.709-300.03 34.8661-309.027 34.8661C-309.432 34.8736-309.781 35.1495-309.882 35.541-309.914 35.7497-309.914 35.9622-309.882 36.1709-310.039 36.8666-309.909 37.5963-309.522 38.1954-309.366 38.4383-309.168 38.6516-308.937 38.8253L-280.46 38.8253C-279.919 38.3266-279.609 37.6261-279.605 36.8907-279.611 36.2938-279.799 35.7127-280.145 35.2261L-280.46 34.8661-297.33 34.8661-297.69 23.754-279.695 23.754C-279.133 23.1616-278.841 22.3645-278.885 21.5494-278.82 20.874-279.131 20.2175-279.695 19.84L-292.472 19.84-292.472-2.6544C-292.513-3.08984-292.326-3.51548-291.977-3.77917-291.814-3.81924-291.644-3.81924-291.482-3.77917L-282.979-3.77917C-281.989-3.77917-281.314-2.74437-281.044-1.07979-280.775 0.584795-280.685 1.70956-280.55 3.10424-280.37 3.43467-280.125 3.72535-279.83 3.95894-279.647 4.13757-279.409 4.24864-279.155 4.27383-278.795 4.27383-278.435 4.00409-278.075 3.5091Z" fill-rule="evenodd" transform="matrix(1.00231 0 0 -1 515.134 422.987)"/></g></svg>