<svg width="1702" height="643" xmlns="http://www.w3.org/2000/svg" xmlns:xlink="http://www.w3.org/1999/xlink" xml:space="preserve" overflow="hidden"><defs><clipPath id="clip0"><rect x="929" y="1387" width="1702" height="643"/></clipPath><clipPath id="clip1"><rect x="1016" y="1387" width="561" height="527"/></clipPath><clipPath id="clip2"><rect x="1016" y="1387" width="561" height="527"/></clipPath><clipPath id="clip3"><rect x="1016" y="1387" width="561" height="650"/></clipPath><clipPath id="clip4"><rect x="1988" y="1387" width="569" height="533"/></clipPath><clipPath id="clip5"><rect x="1988" y="1387" width="569" height="533"/></clipPath></defs><g clip-path="url(#clip0)" transform="translate(-929 -1387)"><g clip-path="url(#clip1)"><g clip-path="url(#clip2)"><g clip-path="url(#clip3)"><g><path d="M0 0-518.196 0C-540.278 4.2316-539.354 26.0059-523.966 52.858L-279.449 480.264C-270.216 494.575-247.134 503.884-233.284 480.264L6.30907 61.937C22.6203 36.3157 37.547-0.692677 0 0" fill="#FFCC01" fill-rule="evenodd" transform="matrix(1.0006 0 0 -1 1551.86 1882.04)"/></g><g><path d="M0 0-230.822-400.092 230.822-400.092ZM256.52-441.024-261.676-441.024C-283.757-436.792-282.834-415.018-267.446-388.166L-22.9283 39.2398C-13.6955 53.5507 9.38667 62.8604 23.236 39.2398L262.829-379.087C279.141-404.708 294.067-441.409 256.828-440.639Z" fill-rule="evenodd" transform="matrix(1.0006 0 0 -1 1295.18 1441.01)"/></g><g><path d="M0 0 460.567 0 230.36 399.245ZM461.644-0.692677-0.923196-0.692677 230.36 400.476 230.36 400.014ZM231.822 453.258C221.94 452.705 212.949 447.362 207.74 438.947L-36.7776 11.5411C-47.0878-6.386-50.3962-21.3896-46.1646-30.5458-43.2453-36.2788-37.6334-40.1551-31.2379-40.8556L487.804-40.8556C495.606-41.9777 503.382-38.6534 507.962-32.238 515.657-18.1579 500.268 9.38695 492.959 20.62L252.981 438.947C249.238 447.125 241.332 452.612 232.361 453.258ZM487.804-41.8558-31.3151-41.8558C-37.9092-41.1449-43.698-37.1508-46.7031-31.2379-51.0886-21.8512-47.7032-6.69401-37.3164 11.4641L207.201 439.254C212.504 447.881 221.71 453.347 231.822 453.873L232.361 453.873C241.588 453.273 249.742 447.659 253.596 439.254L493.498 20.928C500.653 9.6944 516.58-18.1579 508.886-32.9307 504.128-39.6728 495.957-43.1317 487.804-41.8558" transform="matrix(1.0006 0 0 -1 1064.68 1840.87)"/></g><g><path d="M159.679 255.443 174.606 255.443 174.606 235.977 159.679 235.977Z" transform="matrix(1.0006 0 0 -1 1016.07 2036.69)"/></g><g><path d="M159.987 236.208 174.298 236.208 174.298 255.135 159.987 255.135ZM174.914 235.592 159.526 235.592 159.526 255.751 174.914 255.751Z" transform="matrix(1.0006 0 0 -1 1016.07 2036.69)"/></g><g><path d="M164.911 315.457 367.035 315.457 367.035 267.985 164.911 267.985Z" transform="matrix(1.0006 0 0 -1 1016.07 2036.69)"/></g><g><path d="M165.219 268.292 366.65 268.292 366.65 315.149 165.219 315.149ZM367.265 267.677 164.604 267.677 164.604 315.534 367.265 315.534Z" transform="matrix(1.0006 0 0 -1 1016.07 2036.69)"/></g><g><path d="M342.105 329.306 394.271 329.306 394.271 310.456 342.105 310.456Z" transform="matrix(1.0006 0 0 -1 1016.07 2036.69)"/></g><g><path d="M342.414 310.84 393.964 310.84 393.964 328.998 342.414 328.998ZM394.656 310.225 341.798 310.225 341.798 329.614 394.656 329.614Z" transform="matrix(1.0006 0 0 -1 1016.07 2036.69)"/></g><g><path d="M185.531 328.768 213.461 328.768 213.461 309.917 185.531 309.917Z" transform="matrix(1.0006 0 0 -1 1016.07 2036.69)"/></g><g><path d="M185.839 310.302 213.153 310.302 213.153 328.46 185.839 328.46ZM213.769 309.686 185.224 309.686 185.224 329.075 213.769 329.075Z" transform="matrix(1.0006 0 0 -1 1016.07 2036.69)"/></g><g><path d="M0 0 20.6967 0 29.7762-18.7736-9.92548-18.7736Z" fill-rule="evenodd" transform="matrix(1.0006 0 0 -1 1303.73 1704.92)"/></g><g><path d="M0 0 38.4701 0 29.622 18.1579 9.61747 18.1579ZM39.7783-0.615464-1.00041-0.615464-1.00041-0.154146 9.002 18.7733 30.1605 18.7733Z" transform="matrix(1.0006 0 0 -1 1294.26 1723.38)"/></g><g><path d="M0 0 205.432 0 205.047 15.5421 242.671 15.5421 241.902 0 241.902-18.004 0-18.004Z" fill-rule="evenodd" transform="matrix(1.0006 0 0 -1 1168.61 1766.24)"/></g><g><path d="M0 0 241.209 0 241.209 17.6966 242.055 33.0846 205.047 33.0846 205.432 17.6966 0 17.6966ZM241.901-0.615464-0.615744-0.615464-0.615744 18.0812 204.816 18.0812 204.431 33.4692 242.902 33.4692 242.055 17.5424Z" transform="matrix(1.0006 0 0 -1 1168.92 1784.01)"/></g><g><path d="M0 0C12.4092 1.44494 21.2976 12.6758 19.8529 25.0849 18.4083 37.4938 7.17715 46.3825-5.23173 44.9378-16.6366 43.6098-25.2377 33.9487-25.2365 22.467-24.411 9.32316-13.1505-0.70107 0 0" fill-rule="evenodd" transform="matrix(1.0006 0 0 -1 1382.02 1818.64)"/></g><g><path d="M0 0C-12.2379-1.44466-20.9876-12.5367-19.5427-24.7752-18.0977-37.0132-7.00566-45.7626 5.23228-44.3176 16.4363-42.9949 24.8899-33.5176 24.9288-22.2356 24.1441-9.23168 13.0092 0.70051 0 0M0-45.0103C-12.6705-43.6079-21.8051-32.1994-20.4026-19.5287-18.9999-6.85823-7.59175 2.27638 5.07898 0.873959 16.7196-0.414319 25.5502-10.2167 25.6212-21.9282 24.9618-35.3397 13.5548-45.6772 0.143235-45.0176 0.095397-45.0153 0.0478384-45.0128-3.85134e-15-45.0103" transform="matrix(1.0006 0 0 -1 1382.02 1773.93)"/></g><g><path d="M0 0C12.4092 1.44494 21.2979 12.6758 19.8529 25.0849 18.4083 37.4938 7.17715 46.3825-5.23173 44.9378-16.6366 43.6098-25.2374 33.9487-25.2365 22.467-24.411 9.32316-13.1505-0.70107 0 0" fill-rule="evenodd" transform="matrix(1.0006 0 0 -1 1322.36 1818.64)"/></g><g><path d="M0 0C-12.2379-1.44466-20.9876-12.5367-19.5424-24.7752-18.0977-37.0132-7.00566-45.7626 5.23228-44.3176 16.4363-42.9949 24.8902-33.5176 24.9288-22.2356 24.1441-9.23168 13.0092 0.70051 0 0M0-45.0103C-12.6752-43.6501-21.8479-32.2724-20.4877-19.5975-19.1278-6.92201-7.75009 2.25064 4.92483 0.890745 16.6027-0.362285 25.4774-10.1837 25.5446-21.9282 24.8824-35.3394 13.4739-45.6753 0.0623857-45.0134Z" transform="matrix(1.0006 0 0 -1 1322.36 1773.93)"/></g><g><path d="M0 0C12.4092 1.44494 21.2976 12.6758 19.8529 25.0849 18.408 37.4938 7.17715 46.3825-5.23201 44.9378-16.6366 43.6098-25.2374 33.9487-25.2365 22.467-24.411 9.32316-13.1505-0.70107 0 0" fill-rule="evenodd" transform="matrix(1.0006 0 0 -1 1262.69 1818.64)"/></g><g><path d="M0 0C-12.2379-1.44466-20.9876-12.5367-19.5427-24.7752-18.0977-37.0132-7.00566-45.7626 5.23228-44.3176 16.4363-42.9949 24.8899-33.5176 24.9288-22.2356 24.1441-9.23168 13.009 0.70051 0 0M0-45.0103C-12.6752-43.6501-21.8479-32.2724-20.488-19.5975-19.1281-6.92201-7.75009 2.25064 4.92483 0.890745 16.6024-0.362285 25.4774-10.1837 25.5443-21.9282 24.8824-35.3394 13.4739-45.6753 0.0623857-45.0134Z" transform="matrix(1.0006 0 0 -1 1262.69 1773.93)"/></g><g><path d="M0 0C9.7235-0.382147 17.9159 7.19002 18.2983 16.9135 18.6805 26.637 11.1083 34.8294 1.38479 35.2115-8.3387 35.594-16.5311 28.0215-16.9135 18.298-16.9233 18.0465-16.9278 17.7945-16.9269 17.5427-17.0559 8.0402-9.50081 0.210377 0 0" fill-rule="evenodd" transform="matrix(1.0006 0 0 -1 1218.73 1818.64)"/></g><g><path d="M0 0C-9.5548 0.339904-17.5763-7.13015-17.9162-16.6852-18.2561-26.2403-10.786-34.2615-1.23093-34.6017 8.32387-34.9413 16.3453-27.471 16.6852-17.9162 16.6922-17.7147 16.6961-17.5133 16.6961-17.3116 16.8676-7.92214 9.39506-0.171491 0.00559513-0.000279756 0.00391659 0 0.0019583 0 0 0M0-35.162C-9.8975-35.4169-18.1279-27.5997-18.3825-17.7022-18.6377-7.80437-10.8207 0.42551-0.922917 0.680647 8.97459 0.935506 17.205-6.88173 17.4599-16.7792 17.4644-16.9566 17.4663-17.1342 17.4655-17.3116 17.5933-27.0418 9.8091-35.0333 0.0791711-35.1612 0.0525942-35.1615 0.0262971-35.1617-3.6184e-15-35.162" transform="matrix(1.0006 0 0 -1 1218.73 1783.78)"/></g><g><path d="M0 0C7.00678-0.254299 12.8931 5.21942 13.1474 12.2262 13.402 19.233 7.92802 25.1193 0.921238 25.3736-6.08554 25.6279-11.9716 20.1542-12.2262 13.1474-12.2298 13.0481-12.2324 12.9485-12.2335 12.8492-12.4472 5.9686-7.04231 0.217651-0.161979 0.00419635-0.107986 0.00251781-0.053993 0.00111903 0 0" fill-rule="evenodd" transform="matrix(1.0006 0 0 -1 1183.32 1818.64)"/></g><g><path d="M0 0C-6.83641 0.254019-12.5846-5.08234-12.8386-11.919-13.0923-18.7557-7.75597-24.5039-0.91928-24.7576 5.91741-25.0116 11.6656-19.675 11.9193-12.8386 11.9277-12.6111 11.9299-12.384 11.9257-12.1565 11.9271-5.53162 6.62379-0.125611 0 0M0-25.3132C-7.17687-25.5678-13.2011-19.9561-13.4554-12.7793-13.7097-5.60212-8.09811 0.421873-0.921238 0.676171 6.25563 0.93075 12.2799-4.68089 12.5342-11.858 12.5376-11.9574 12.5401-12.0569 12.5415-12.1565 12.7549-19.207 7.2124-25.0958 0.161699-25.3096 0.107986-25.3112 0.053993-25.3124 0-25.3132" transform="matrix(1.0006 0 0 -1 1183.32 1793.63)"/></g><g><path d="M0 0C11.1564 24.1592 28.8527 34.2386 56.0898 23.6976 92.3289 35.2387 127.876 17.7732 110.949-27.1602 107.102-39.3167 93.7909-44.164 70.8626-41.8558 60.6294-52.4736 45.318-50.0884 27.6987-41.8558 17.158-53.7815 2.1544-56.2436-17.2347-49.5499-26.6395-50.2829-33.6695-58.5015-32.9366-67.9064-32.8792-68.6413-32.7743-69.3718-32.6227-70.093L-52.6275-70.093C-53.0891-27.1602-33.3923-6.23213 0 0" fill-rule="evenodd" transform="matrix(1.0006 0 0 -1 1259.92 1638.36)"/></g><g><path d="M0 0 19.3121-0.384665C18.1579 10.8487 23.1591 17.3885 34.7002 20.1584 53.7815 13.3108 68.8618 15.8496 79.2489 27.8526 99.4073 18.4656 112.949 18.4656 122.028 27.8526 144.648 25.5443 157.959 30.3916 161.806 42.3174 170.424 65.3995 164.499 78.4795 157.959 85.3271 147.495 96.3297 127.645 99.2534 107.255 93.0213 81.634 102.946 63.3992 95.2526 51.5504 69.4775 16.9269 62.3219-0.230799 39.7783 0 0M20.0045-1.00013-0.615464-0.615464C-1.7426 16.7168 3.17943 33.9031 13.3108 48.011 23.3054 59.5892 37.1704 67.1371 52.3198 69.2467 56.4378 79.8959 64.2105 88.7326 74.2476 94.1755 85.3422 98.4664 97.7061 98.0496 108.486 93.0213 129.03 99.5611 149.111 96.5607 159.729 85.3271 166.346 78.3257 172.501 65.0918 163.653 41.625 159.806 29.4681 146.264 24.4672 123.413 26.7752 114.103 17.3116 100.33 17.3116 80.1723 26.7752 69.6314 14.9264 54.4739 12.4645 35.162 19.0813 25.9155 18.5196 18.8752 10.5684 19.4369 1.32185 19.4876 0.489574 19.6-0.338226 19.7737-1.154Z" transform="matrix(1.0006 0 0 -1 1207.49 1707.61)"/></g><g><path d="M0 0 0 53.0119C0.0626654 53.9933-0.447051 54.9223-1.30786 55.3974-1.71463 55.4743-2.1323 55.4743-2.53879 55.3974L-36.1622 55.3974C-37.0439 55.3716-37.8284 54.8286-38.1624 54.012-38.1624 54.012-38.1624 53.2427-38.7012 52.6272L-38.7012-0.076933C-38.544-1.1014-38.0581-2.04642-37.3162-2.76987-36.9762-3.06809-36.5851-3.3028-36.1622-3.46255L-2.00026-3.46255C-1.15148-3.16153-0.495449-2.47668-0.230519-1.61587-0.230519-1.61587-0.0766533-0.384945 0.076933 0.307732ZM4.92455-4.53961C5.19116-5.89643 4.79027-7.29857 3.84721-8.30961 3.02948-9.20427 1.95382-9.82253 0.76961-10.0793L-39.0859-10.0793C-40.5437-9.80574-41.8242-8.94269-42.6251-7.69414-43.0486-7.03699-43.4092-6.34152-43.7024-5.61667L-43.7024 58.0131C-43.4392 59.4457-42.7406 60.7623-41.7016 61.7834L-40.3168 62.5527 1.30814 62.5527C2.74637 62.2285 3.91239 61.1791 4.38574 59.7828 4.7097 59.0502 4.91728 58.2713 5.00121 57.4746L5.00121-4.07801ZM-68.554 8.38654-68.554 12.8492-94.3294 12.8492-94.3294 8.38654C-94.1364 7.72743-93.7942 7.12176-93.329 6.6168L-92.6366 6.1552-70.1699 6.1552-69.3237 7.3092-68.4771 8.38654ZM-68.554 25.2365-94.3294 25.2365-94.3294 19.6199-68.554 19.6199ZM-68.554 31.9303-68.554 35.8541-70.2468 38.0858-92.6366 38.0858C-93.052 37.8124-93.3953 37.4429-93.6367 37.0084-93.658 36.7007-93.658 36.3924-93.6367 36.0849L-93.6367 32.1611ZM-60.8599-13.4647C-59.7059-13.4647-59.0904-12.2335-59.0904-10.5412-59.0941-9.74923-59.251-8.96536-59.552-8.23295-59.7949-7.60238-60.2601-7.08204-60.8599-6.77095L-93.0982-6.77095C-96.2273-6.66016-99.1026-5.02107-100.792-2.3852-103.081 0.570703-104.47 4.12333-104.793 7.84801L-104.793 35.4695C-104.915 36.1759-105.095 36.8705-105.332 37.547-105.837 38.7429-106.854 39.6476-108.102 40.0091L-115.796 40.0091-117.027 39.3933C-117.092 39.1936-117.092 38.9779-117.027 38.7779-117.065 38.2399-117.065 37.7003-117.027 37.1623-117.15 36.4495-117.15 35.7207-117.027 35.0079-116.79 34.3146-116.363 33.7017-115.796 33.2384L-111.256 33.2384-110.41 33.2384C-109.812 32.7542-109.495 32.0039-109.564 31.2376L-109.564 6.23185-112.179 2.07719C-114.257-0.923476-116.257-3.61641-118.335-6.15548-118.668-6.73961-118.829-7.40711-118.796-8.07881-118.827-9.08313-118.559-10.0737-118.027-10.9259-117.565-11.7722-117.027-12.2335-116.411-12.2335-115.779-12.1291-115.236-11.7288-114.949-11.1567L-107.255 0.615184C-106.075-2.89828-104.334-6.198-102.1-9.15615-100.375-11.7537-97.5206-13.3805-94.4061-13.5416ZM-104.947 55.782C-104.597 55.0899-104.413 54.3259-104.408 53.5507-104.391 52.7867-104.605 52.0355-105.024 51.3963-105.42 50.8586-106.049 50.5436-106.717 50.5498-107.307 50.6063-107.856 50.8804-108.255 51.3191L-115.565 61.7062C-115.663 62.8285-115.422 63.9543-114.872 64.9379-114.431 65.4605-113.787 65.7691-113.103 65.7839L-112.256 65.7839-104.562 55.9356ZM-60.0136 50.7808-79.3258 50.7808-80.5567 45.1639-66.8615 45.1639C-65.7078 44.6281-64.781 43.7016-64.2452 42.5482-63.9551 41.9209-63.6983 41.2789-63.4759 40.6246L-63.4759 4.2316C-63.7646 2.96178-64.4685 1.82429-65.4767 1.00013L-66.8615 0.307732-95.5603 0.307732C-96.6483 0.613506-97.5307 1.41053-97.9453 2.46214-98.1548 3.04235-98.3347 3.63292-98.4841 4.2316L-98.4841 40.6246C-98.3316 41.9223-97.7651 43.1362-96.8682 44.0868-96.4958 44.5165-96.0535 44.8808-95.5603 45.1639L-85.9426 45.1639C-85.7238 46.0753-85.5697 47.001-85.4813 47.934L-85.4813 50.7808-101.331 50.7808C-101.94 50.7699-102.491 51.1378-102.716 51.704-103.037 52.4574-103.195 53.2704-103.178 54.0892-103.211 54.9341-103.053 55.7759-102.716 56.5514-102.491 57.1176-101.94 57.4852-101.331 57.4746L-90.8669 57.4746-93.6367 64.2452C-93.7758 64.9049-93.7758 65.5861-93.6367 66.2458L-93.6367 67.0154C-93.078 67.3514-92.4419 67.5368-91.79 67.5539-90.4053 67.5539-89.1743 66.2458-88.097 63.6298-87.3277 61.6295-86.558 59.552-85.7118 57.4746L-78.2484 57.4746-75.325 65.1684C-74.94 66.5535-74.4015 67.2459-73.7094 67.3228L-72.0166 67.3228C-70.9941 66.6788-70.4041 65.5285-70.4776 64.3222-70.5476 63.1508-70.8343 62.0033-71.3239 60.9368-72.0932 59.4751-72.5551 58.3978-72.8628 57.7823L-59.7828 57.7823C-58.8703 56.9534-58.341 55.7834-58.3211 54.5508-58.3298 53.5059-58.6512 52.4876-59.2443 51.6271L-59.7828 51.0883ZM-136.416-4.23188-136.416 12.6181-138.108 14.8495-153.497 14.8495C-154.332 14.3565-154.94 13.5553-155.189 12.6181L-155.189-4.23188C-155.26-4.97659-154.94-5.70479-154.343-6.15548-154.065-6.22374-153.775-6.22374-153.497-6.15548L-138.108-6.15548C-137.564-5.84299-137.113-5.39147-136.8-4.84734L-136.8-3.92386ZM-170.577 45.1639-170.577 56.936C-170.756 57.6007-171.1 58.2095-171.578 58.7058-171.774 58.9061-172.009 59.0636-172.27 59.1671L-178.041 59.1671C-178.623 58.8803-179.106 58.4246-179.425 57.8592L-179.425 56.936-179.425 45.7027C-179.455 44.8752-179.15 44.0709-178.579 43.4714-178.355 43.214-178.061 43.0271-177.733 42.9328L-171.962 42.9328C-171.275 42.8777-170.652 43.3368-170.501 44.0099-170.472 44.394-170.472 44.7798-170.501 45.1639ZM-137.416 57.1668-137.878 59.3979-152.035 59.3979C-152.595 59.1064-153.051 58.6498-153.343 58.09L-153.728 57.1668C-152.428 53.269-150.753 49.5071-148.726 45.9332-147.836 44.3926-146.86 42.9023-145.803 41.4708-143.146 44.6094-140.945 48.1061-139.262 51.8579-138.647 53.1658-137.878 54.9355-137.031 57.1668ZM-131.569-7.30948-131.569 15.7727C-131.953 16.6961-132.261 17.7732-132.646 18.8503-132.916 19.7514-133.603 20.467-134.492 20.7739L-136.57 21.9282-154.497 21.9282-157.344 20.312C-158.318 19.6297-158.961 18.5686-159.113 17.3885L-159.959 14.0801-159.959-6.15548C-159.715-7.258-159.381-8.33898-158.959-9.38695-158.229-11.3791-156.556-12.8783-154.497-13.3875L-137.031-13.3875C-136.178-13.2957-135.346-13.0615-134.569-12.6953-132.698-11.4552-131.461-9.45996-131.184-7.23254ZM-127.414 26.8521C-127.414 24.775-127.414 23.3899-128.876 22.7741-129.484 22.5162-130.139 22.3856-130.799 22.3895-134.583 24.4236-138.256 26.658-141.802 29.0835L-146.572 32.4691C-149.728 29.514-153.213 26.9324-156.959 24.775-158.568 23.8185-160.238 22.97-161.96 22.2356-163.271 21.873-164.627 22.6412-164.99 23.9516-165.009 24.0202-165.025 24.0893-165.038 24.1592-165.114 25.0038-165.114 25.8537-165.038 26.6986L-149.65 36.7776-156.728 49.165-161.652 41.8555C-162.079 41.4884-162.629 41.296-163.191 41.317-163.792 41.2876-164.378 41.5108-164.807 41.9327-165.221 42.3666-165.443 42.9488-165.423 43.5483L-165.423 39.0859C-165.54 38.114-166.038 37.2283-166.807 36.6238L-167.962 36.6238-172.116 36.6238-172.116 22.6203-165.038 22.6203C-164.409 22.6194-163.851 22.2169-163.653 21.6201-163.259 20.8894-163.072 20.0644-163.114 19.2352-163.079 18.415-163.237 17.5978-163.576 16.8497-163.828 16.2718-164.407 15.9056-165.038 15.9268L-172.116 15.9268-172.116-2.61628-165.038 1.30786C-164.139 1.3599-163.283 0.917601-162.807 0.153866-162.456-0.480062-162.296-1.20127-162.345-1.92361L-162.345-3.15453C-162.326-3.35932-162.326-3.5655-162.345-3.77028-166.755-6.46545-171.358-8.83135-176.117-10.8487L-182.349-13.2339C-182.832-13.745-183.444-14.1171-184.119-14.3109-184.73-14.4189-185.355-14.4189-185.966-14.3109L-187.274-14.3109C-187.419-14.3803-187.589-14.3803-187.735-14.3109-188.079-13.5894-188.263-12.8022-188.274-12.0027-188.267-10.6775-187.743-9.40737-186.812-8.46347-185.978-7.55818-184.811-7.03056-183.581-7.00146L-183.581 24.9285C-182.965 26.2367-182.349 26.9294-181.58 26.9294-180.811 26.9294-180.58 26.9294-180.041 25.9292-179.804 25.6162-179.598 25.2813-179.426 24.9288L-179.426-5.30894-176.117-3.69306-176.117 36.7007-181.119 36.7007C-182.289 37.1021-183.22 38.0049-183.657 39.1628-183.972 39.8057-184.23 40.4752-184.427 41.1634L-184.427 60.8599C-184.211 62.2696-183.535 63.5682-182.503 64.5532-182.1 64.9029-181.628 65.1651-181.119 65.3226L-169.039 65.3226C-167.624 65.3108-166.366 64.4209-165.884 63.0912-165.619 62.3655-165.413 61.6192-165.269 60.8599L-165.269 45.4719-165.269 47.1647C-163.277 49.5029-161.596 52.089-160.267 54.8586-158.791 57.7887-157.531 60.8232-156.497 63.9375L-153.573 66.1688-132.876 66.1688C-131.985 65.8121-131.268 65.1223-130.876 64.2452-130.665 63.778-130.511 63.2873-130.414 62.7835-131.004 56.4965-133.06 50.4356-136.416 45.0869-138.185 42.1635-139.955 39.3164-141.648 36.393L-135.8 31.9303C-134.584 30.865-133.135 30.1007-131.569 29.6989-129.68 29.1887-128.057 27.9782-127.029 26.3136ZM-219.743 44.241-226.436 44.241C-227.36 40.3423-228.437 36.4187-229.668 32.4691-230.17 30.7721-230.761 29.1028-231.437 27.4679L-220.589 27.4679-220.589 35.8541C-220.589 39.6244-220.589 42.3943-220.127 44.241ZM-198.122-16.85-198.969-16.85-199.892-16.85C-201.584-16.85-203.277-15.5421-204.97-13.0031-206.663-10.464-207.663-8.92507-208.894-6.92481-210.663-3.61641-212.433-0.154146-214.126 3.23147-215.871 6.78186-217.188 10.527-218.05 14.3879L-224.436-2.07747C-226.547-7.01825-229.546-11.5296-233.284-15.3883-233.672-15.8849-234.27-16.1699-234.9-16.1576-235.668-16.1495-236.396-15.8132-236.901-15.2344-237.459-14.6581-237.764-13.8824-237.747-13.08-237.748-12.2945-237.476-11.533-236.977-10.9259-233.55-6.55022-230.585-1.83157-228.129 3.15425-226.144 7.10917-224.372 11.1673-222.82 15.3111L-221.204 20.4661-231.207 20.4661C-232.107 20.8508-232.706 21.7192-232.746 22.6975L-232.746 24.9285-234.823 25.5443C-234.48 24.7162-234.323 23.8235-234.361 22.9283-234.341 22.1914-234.472 21.4582-234.746 20.7739-234.977 20.2225-235.535 19.8812-236.131 19.9273L-243.132 19.9273-243.132-2.53907-235.439 3.0776C-235.15 3.5876-234.636 3.93058-234.053 4.00108-233.379 3.96555-232.756 3.62592-232.361 3.0776-231.903 2.39555-231.661 1.59097-231.668 0.76933-231.69-0.118896-231.986-0.978868-232.515-1.69281-233.749-3.61977-235.342-5.29159-237.208-6.6168-239.196-8.04132-241.097-9.58278-242.902-11.2333L-244.363-11.2333C-245.953-11.329-247.395-10.3043-247.826-8.77148-248.083-7.97334-248.238-7.1461-248.288-6.30935L-248.288 20.0815-255.982 20.0815C-256.555 20.1794-257.045 20.5534-257.289 21.0816-257.474 21.7357-257.474 22.4281-257.289 23.0821-257.289 25.0058-256.751 26.2367-255.597 26.7752L-247.903 26.7752-247.903 37.0084-250.442 37.0084C-250.575 36.0595-251.038 35.1878-251.75 34.5463-252.41 33.9641-253.255 33.6368-254.135 33.6231-254.835 33.5856-255.515 33.8684-255.982 34.3924-256.515 35.1545-256.761 36.0819-256.674 37.0081-254.981 41.9327-253.289 47.5494-251.596 53.9354-251.057 55.9356-250.365 58.5516-249.595 61.6292-248.826 64.7068-248.98 64.9376-248.749 65.8611-248.519 66.7846-247.672 68.7079-246.672 68.9387-245.919 69.1589-245.106 68.918-244.594 68.3232-244.143 67.6127-243.928 66.7779-243.979 65.938-243.889 64.9141-243.889 63.8841-243.979 62.8602-244.132 61.8942-244.363 60.9421-244.671 60.0134L-234.669 60.0134C-233.705 59.3321-233.177 58.1885-233.284 57.013-233.189 55.6164-233.693 54.2453-234.669 53.2427L-246.826 53.2427-249.288 43.7022-238.516 43.7022C-237.919 43.6152-237.402 43.2417-237.131 42.702-236.985 42.0432-236.985 41.3603-237.131 40.7015-236.922 39.2261-237.62 37.7696-238.901 37.0081L-243.825 37.0081-243.825 26.3136-236.131 26.3136-236.131 25.6979C-236.063 26.183-236.063 26.6751-236.131 27.1599-235.38 31.5988-234.379 35.9915-233.13 40.3165-232.396 42.8363-231.856 45.4084-231.515 48.0107-231.065 49.99-230.731 51.9939-230.514 54.012-230.445 55.9879-229.619 57.8615-228.206 59.244-227.357 59.4852-226.45 59.1411-225.975 58.3978-225.469 57.4816-225.229 56.4423-225.282 55.3974-225.214 54.6037-225.214 53.8056-225.282 53.0119-225.282 52.1656-225.282 51.2424-225.898 50.319L-220.05 50.319-220.05 67.0154C-220.097 67.7019-219.844 68.375-219.358 68.8618-218.937 69.3038-218.353 69.5542-217.742 69.5542-216.203 69.5542-215.511 68.7079-215.511 67.0151L-215.511 50.7808-202.585 50.7808C-201.66 49.9281-201.131 48.7299-201.123 47.4722-201.139 46.4166-201.489 45.393-202.123 44.5484L-202.585 44.0099-215.203 44.0099-215.203 36.3157-215.203 27.3907-199.353 27.3907C-198.798 27.2516-198.325 26.8896-198.045 26.3905-197.915 25.73-197.915 25.0505-198.045 24.39-198.045 22.4667-198.584 21.1585-199.738 20.62L-215.126 20.62C-212.202 12.9259-210.433 8.23267-209.894 6.92453-208.132 2.45598-205.833-1.78121-203.046-5.69388L-199.815-9.77161C-198.545-11.1427-197.784-12.9082-197.661-14.7728-197.56-15.4873-197.56-16.2124-197.661-16.9272ZM-303.531 3.69306C-302.695 2.80344-302.275 1.60105-302.377 0.384665-302.364-0.57406-302.574-1.52243-302.992-2.3852-303.328-3.06361-304.006-3.50563-304.762-3.5392-305.226-3.47961-305.671-3.32239-306.07-3.07788-307.686-0.615744-309.917 2.92345-312.687 7.61721-315.457 12.3104-317.688 15.7727-319.381 18.2348-319.51 18.8175-319.51 19.4215-319.381 20.0045-319.421 20.9859-319.091 21.9469-318.457 22.6975-317.894 23.4016-317.051 23.8235-316.149 23.8515-313.995 21.0047-311.764 17.6963-309.378 13.926-306.993 10.156-305.147 7.0784-303.223 3.69279ZM-268.6 27.7753C-267.319 28.5368-266.621 29.9932-266.83 31.4684-266.801 32.1896-266.96 32.9052-267.292 33.5459-267.546 34.0536-268.037 34.4003-268.6 34.4694L-281.218 34.4694-281.218 47.3952C-281.402 48.4471-282.305 49.2209-283.373 49.2419-284.6 49.2324-285.711 48.5123-286.219 47.3952L-286.219 34.4694-325.382 34.4694C-326.536 34.4694-327.075 33.3151-327.075 31.6226-327.079 30.8048-326.922 29.9944-326.613 29.2373-326.373 28.6289-325.941 28.1155-325.382 27.7753L-285.989 27.7753-285.989-5.30922C-286.053-6.69429-286.974-7.89221-288.297-8.30961-289.47-8.48333-290.662-8.48333-291.836-8.30961L-294.683-8.30961C-296.719-7.97306-298.691-7.3243-300.53-6.38628-301.214-6.60309-301.791-7.07-302.146-7.69414-302.468-8.31073-302.627-8.99949-302.608-9.69468-302.603-11.0733-302.173-12.4167-301.377-13.5416-300.75-14.5742-299.658-15.235-298.453-15.3113L-293.913-15.9271-288.451-15.9271C-286.67-15.891-284.957-15.2386-283.603-14.0804-281.9-12.7888-280.926-10.7541-280.987-8.61762L-280.987 27.7753ZM-267.754 50.1651C-268.124 48.5436-268.382 46.8984-268.523 45.2411-268.985 41.1634-270.216 39.3167-272.293 39.5472-272.875 39.9498-273.329 40.5104-273.601 41.1634-273.854 41.8267-273.985 42.5303-273.986 43.2403-273.928 44.6133-273.748 45.978-273.447 47.3186-273.393 48.1122-273.393 48.9093-273.447 49.7035-273.356 51.0539-274.043 52.3382-275.217 53.0119L-316.765 53.0119C-317.886 52.5064-318.749 51.5597-319.15 50.3962-319.38 49.7701-319.56 49.1266-319.689 48.4726L-319.689 41.7785C-319.689 40.3165-320.689 39.5472-321.766 39.5472-322.506 39.5654-323.193 39.9372-323.612 40.5473-324.224 41.2025-324.603 42.0407-324.69 42.9328L-324.69 55.2432C-324.453 56.668-323.781 57.9851-322.766 59.0132-322.338 59.3061-321.872 59.5389-321.381 59.7056L-298.914 59.7056-298.914 66.4766C-298.145 67.7844-297.376 68.3999-296.452 68.3999-295.562 68.3479-294.755 67.858-294.298 67.092L-294.298 66.4766-294.298 59.7056-273.447 59.7056C-271.534 59.3073-269.946 57.9792-269.216 56.1667-268.717 55.1601-268.33 54.1024-268.061 53.0119L-268.061 50.1648ZM-347.541-5.30922-347.541-1.92361-379.318-1.92361-379.318-5.30922C-379.156-5.98091-378.81-6.59386-378.317-7.07868-378.143-7.30388-377.9-7.46586-377.625-7.54028L-349.772-7.54028C-349.156-7.24317-348.626-6.79277-348.234-6.23213-348.015-5.94902-347.834-5.63849-347.695-5.30922ZM-347.541 9.84827-379.317 9.84827-379.317 4.2316-347.541 4.2316ZM-347.541 18.2348C-347.517 19.1544-347.816 20.0529-348.387 20.7739-348.629 21.0939-348.914 21.3787-349.234 21.6201L-377.625 21.6201C-378.65 21.0528-379.25 19.9413-379.164 18.7733-379.281 17.6188-378.667 16.5132-377.625 16.0035L-349.772 16.0035C-349.156 16.3008-348.626 16.751-348.234 17.3116-348.015 17.595-347.834 17.9053-347.695 18.2348ZM-336.693 34.7771-371.854 34.7771C-372.239 34.0847-372.932 32.9304-373.932 31.4684L-376.009 28.0834-346.002 28.0834C-344.721 27.5247-343.721 26.4692-343.232 25.1596-342.998 24.4563-342.817 23.7362-342.694 23.0049L-342.694-7.77107C-343.078-9.38695-343.463-10.6179-343.694-11.3872-343.925-12.1568-345.002-13.3108-346.002-13.3108L-380.549-13.3108C-381.833-13.2907-382.995-12.546-383.549-11.3872-383.85-10.7387-384.107-10.0701-384.319-9.38695L-384.319 18.6198-393.09 10.9256C-393.437 10.5317-393.953 10.3308-394.475 10.3868-395.182 10.4453-395.815 10.8481-396.168 11.4641-396.684 12.1798-396.954 13.0439-396.937 13.926-396.943 14.6539-396.757 15.3701-396.398 16.0035-393.231 18.587-390.249 21.3893-387.473 24.39-384.909 27.0572-382.754 29.622-381.01 32.0841L-378.471 35.3156-394.706 35.3156C-396.005 35.996-396.765 37.3942-396.629 38.8548-396.629 40.7012-395.937 41.7785-394.706 42.0863L-375.163 42.0863C-374.778 42.6248-374.163 43.4714-373.47 44.6256L-371.854 47.0875-391.782 47.0875C-392.368 47.4515-392.825 47.9894-393.09 48.6261-393.397 49.3572-393.554 50.1419-393.552 50.9344-393.552 52.6272-392.936 53.6274-391.782 53.8584L-369.777 53.8584-367.238 58.8594-391.013 58.8594C-391.894 59.7353-392.392 60.9251-392.398 62.168-392.375 63.2104-392.055 64.2251-391.474 65.0915L-391.013 65.6303-366.853 65.6303-356.005 66.1686-340.616 68.4002C-339.97 68.4074-339.363 68.0896-339.001 67.5539-338.582 66.8576-338.368 66.0575-338.385 65.2456-338.176 63.8116-338.882 62.3994-340.155 61.7062L-361.852 58.8594-364.314 53.8584-339.385 53.8584C-338.409 53.1876-337.877 52.0361-338 50.8575-337.924 49.464-338.425 48.1005-339.385 47.0872L-366.391 47.0872-368.931 42.0863-337.308 42.0863C-336.383 41.2336-335.854 40.0354-335.846 38.7779-335.856 37.7571-336.178 36.7634-336.769 35.9311L-337.308 35.3153ZM-405.939-10.0793C-405.325-10.9049-404.976-11.8978-404.939-12.9261-404.895-13.7053-405.142-14.4726-405.631-15.0806-406.067-15.6532-406.76-15.971-407.478-15.9271-407.971-15.8927-408.448-15.7338-408.863-15.4652-413.402-9.77161-417.018-4.92455-419.557-1.00041-422.963 4.25873-425.874 9.82197-428.252 15.6188-431.096 22.7269-433.235 30.0973-434.638 37.6236-436.795 26.7218-440.418 16.1618-445.41 6.23185-449.543-1.88668-455.183-9.14552-462.029-15.1575-462.581-15.5855-463.254-15.8278-463.952-15.8499-465.337-15.8499-466.03-15.0036-466.03-13.3108-466.019-12.3952-465.781-11.4963-465.337-10.6948-462.24-7.85836-459.384-4.77013-456.797-1.46201-453.456 2.87366-450.569 7.54-448.179 12.4643-444.678 19.572-442.092 27.0955-440.485 34.854-438.961 42.4525-438.213 50.1866-438.254 57.9364L-438.254 67.7847C-437.536 69.785-436.613 70.7851-435.484 70.7851-434.33 70.7851-433.484 69.785-432.791 67.7847L-432.791 54.7047C-432.171 48.3229-430.96 42.0127-429.175 35.8541-427.527 29.5739-425.55 23.3843-423.251 17.3116-420.784 11.9652-417.903 6.8199-414.633 1.92333L-406.17-10.0024ZM-475.186 5.30894C-475.082 1.60245-475.314-2.10573-475.878-5.77082-476.725-9.92548-478.417-12.3876-481.033-13.465L-501.884-13.465C-503.176-12.9214-504.181-11.8606-504.654-10.5412-504.654-10.0793-504.654-9.38695-505.193-8.46375L-505.193 33.9305-510.194 33.9305C-510.886 29.1601-511.502 25.3132-512.04 22.3128-512.04 21.0047-512.656 19.2349-513.118 17.0808-515.158 11.3869-517.574 5.83488-520.35 0.461318-523.052-4.73152-526.5-9.50109-530.583-13.6955-531.045-14.3882-531.506-14.7728-532.122-14.7728-532.892-14.7208-533.584-14.2877-533.968-13.6188-534.455-12.8033-534.719-11.8748-534.738-10.9259-534.767-10.0984-534.462-9.29435-533.891-8.69455-528.619-2.93157-524.307 3.64103-521.119 10.7715-517.799 18.0851-515.644 25.8736-514.733 33.8539L-531.814 33.8539C-532.388 33.9515-532.877 34.3256-533.122 34.854-533.454 35.4667-533.614 36.1582-533.584 36.8543-533.793 38.3297-533.095 39.7864-531.814 40.5476L-514.348 40.5476-513.118 59.6287-528.506 59.6287C-529.197 59.6416-529.795 60.1135-529.968 60.783-530.022 61.1399-530.022 61.5033-529.968 61.8603-530.236 63.0501-530.014 64.2981-529.352 65.3226-529.085 65.738-528.746 66.1028-528.352 66.3999L-479.648 66.3999C-478.724 65.5469-478.194 64.349-478.186 63.0912-478.196 62.0704-478.518 61.0767-479.109 60.2444L-479.648 59.6287-508.501 59.6287-509.116 40.6246-478.34 40.6246C-477.38 39.6116-476.879 38.2483-476.955 36.8543-476.844 35.6992-477.376 34.5765-478.34 33.9308L-500.191 33.9308-500.191-4.53961C-500.262-5.28432-499.942-6.01225-499.345-6.46321-499.067-6.53175-498.777-6.53175-498.499-6.46321L-483.957-6.46321C-482.264-6.46321-481.11-4.69347-480.648-1.84667-480.187 1.00013-480.033 2.92373-479.802 5.30894-479.494 5.87405-479.076 6.37117-478.571 6.77067-478.259 7.07616-477.852 7.26611-477.417 7.3092-476.802 7.3092-476.186 6.84788-475.57 6.00134Z" fill-rule="evenodd" transform="matrix(1.0006 0 0 -1 1560.86 2019.76)"/></g></g></g></g><g clip-path="url(#clip4)"><g clip-path="url(#clip5)"><g><g><path d="M0 0-516.715 0C-538.733 4.1429-537.813 25.8548-522.469 52.7071L-278.65 478.891C-269.443 493.161-246.427 502.368-232.617 478.891L6.29109 61.7604C22.5557 36.212 37.5163-0.843872 0 0" fill="#FFCC01" fill-rule="evenodd" transform="matrix(1.00102 0 0 -1 2527.71 1880.55)"/></g><g><path d="M0 0-230.162-398.948 230.163-398.948ZM255.787-439.687-260.927-439.687C-282.946-435.544-282.026-413.832-266.682-386.98L-22.8627 39.2044C-13.6563 53.4743 9.3599 62.681 23.1697 39.2044L262.078-377.927C278.343-403.475 293.303-440.147 256.094-439.303Z" fill-rule="evenodd" transform="matrix(1.00102 0 0 -1 2271.66 1440.86)"/></g><g><path d="M0 0 459.251 0 229.702 398.181ZM460.325-0.613931-0.920613-0.613931 229.702 399.408 229.702 398.948ZM231.16 452.039C221.343 451.429 212.414 446.151 207.146 437.845L-36.6725 11.9685C-46.9532-5.98441-50.2523-20.868-46.0326-30.0747-43.1131-35.7714-37.5149-39.6096-31.1488-40.2785L486.41-40.2785C494.19-41.3973 501.944-38.0824 506.511-31.686 514.183-17.6457 498.839 9.82034 491.55 21.0212L252.335 437.845C248.529 445.961 240.637 451.388 231.697 452.039ZM486.41-41.1991-31.2255-41.1991C-37.8111-40.518-43.5953-36.5266-46.5695-30.6119-50.9427-21.252-47.5669-6.13789-37.2096 11.9685L206.609 438.152C211.914 446.725 221.091 452.145 231.16 452.652L231.697 452.652C240.897 452.118 249.047 446.538 252.872 438.152L492.087 21.0212C499.222 9.74332 515.103-17.9527 507.431-32.683 503.825-38.207 496.844-41.1991 486.41-41.1991" transform="matrix(1.00102 0 0 -1 2041.72 1839.65)"/></g><g><path d="M157.282 246.75 398.415 246.75 398.415 226.266 157.282 226.266Z" transform="matrix(1.00102 0 0 -1 1989.03 2035.61)"/></g><g><path d="M157.589 226.573 398.108 226.573 398.108 246.29 157.589 246.29ZM398.722 225.959 156.975 225.959 156.975 247.057 398.722 247.057Z" transform="matrix(1.00102 0 0 -1 1989.03 2035.61)"/></g><g><path d="M0 0 8.97647 17.7992 17.4155 0 51.0194 0 61.6836 16.1114 71.8106 0 101.502 0 110.478 16.1114 121.142 0 152.521 0 160.96 16.6486 169.937 0 203.54 0 212.517 18.3364 221.493 0 231.62-20.4843-9.51338-20.4843Z" fill-rule="evenodd" transform="matrix(1.00102 0 0 -1 2156 1666.42)"/></g><g><path d="M0 0 240.136 0 221.57 37.8233 212.824 20.0241 178.759 20.0241 170.013 36.1353 161.804 20.0241 130.042 20.0241 119.531 35.3681 110.708 20.0241 80.6336 20.0241 70.7365 35.3681 60.2258 20.0241 26.2385 20.0241 18.1061 37.1326 9.3599 20.0241ZM241.133-0.613648-0.920613-0.613648-0.920613-0.153483 8.82299 20.0241 18.0294 38.3602 26.6222 20.2541 59.9189 20.2541 70.7365 36.519 81.1705 20.561 110.555 20.561 119.531 36.9027 130.349 20.561 161.42 20.561 170.013 37.5163 179.143 20.561 212.44 20.561 221.57 39.2041 230.853 20.0241Z" transform="matrix(1.00102 0 0 -1 2146.94 1686.6)"/></g><g><path d="M165.107 350.4 184.748 350.4 184.748 215.755 165.107 215.755Z" transform="matrix(1.00102 0 0 -1 1989.03 2035.61)"/></g><g><path d="M0 0 18.8733 0 18.8733 133.878-0.153483 133.878ZM19.6404-0.613648-0.76713-0.613648-0.76713 134.492 19.6404 134.492Z" transform="matrix(1.00102 0 0 -1 2154.77 1819.4)"/></g><g><path d="M217.277 350.4 236.918 350.4 236.918 215.755 217.277 215.755Z" transform="matrix(1.00102 0 0 -1 1989.03 2035.61)"/></g><g><path d="M217.584 216.215 236.611 216.215 236.611 350.093 217.584 350.093ZM237.225 215.602 216.97 215.602 216.97 350.707 237.225 350.707Z" transform="matrix(1.00102 0 0 -1 1989.03 2035.61)"/></g><g><path d="M266.609 350.4 286.249 350.4 286.249 215.755 266.609 215.755Z" transform="matrix(1.00102 0 0 -1 1989.03 2035.61)"/></g><g><path d="M0 0 19.0268 0 19.0268 133.878 0 133.878ZM19.6404-0.613648-0.613648-0.613648-0.613648 134.492 19.6404 134.492Z" transform="matrix(1.00102 0 0 -1 2256.22 1819.4)"/></g><g><path d="M317.091 350.4 336.731 350.4 336.731 215.755 317.091 215.755Z" transform="matrix(1.00102 0 0 -1 1989.03 2035.61)"/></g><g><path d="M317.398 216.215 336.425 216.215 336.425 350.093 317.398 350.093ZM337.038 215.602 316.784 215.602 316.784 350.707 337.038 350.707Z" transform="matrix(1.00102 0 0 -1 1989.03 2035.61)"/></g><g><path d="M369.261 350.4 388.902 350.4 388.902 215.755 369.261 215.755Z" transform="matrix(1.00102 0 0 -1 1989.03 2035.61)"/></g><g><path d="M369.338 216.062 388.518 216.062 388.518 350.093 369.338 350.093ZM389.132 215.602 368.878 215.602 368.878 350.707 389.132 350.707Z" transform="matrix(1.00102 0 0 -1 1989.03 2035.61)"/></g><g><path d="M0 0 0 52.7836C0.055503 53.7812-0.446572 54.7268-1.30404 55.2388L-2.60836 55.2388-38.0535 55.2388C-38.9546 55.224-39.7645 54.684-40.1247 53.8577-40.3413 53.3865-40.5209 52.8994-40.6619 52.4002L-40.6619-0.153483C-40.5081-1.19246-39.9919-2.14366-39.2041-2.83858L-38.0535-3.45251-2.22465-3.45251C-1.30489-3.22059-0.575985-2.52057-0.306682-1.611-0.0368132-1.02114 0.169058-0.404096 0.306965 0.229941ZM5.217-4.44987C5.48941-5.83999 5.0587-7.27485 4.06616-8.2858 3.16254-9.14242 2.05248-9.7504 0.843872-10.0503L-40.8154-10.0503C-42.3281-9.77249-43.6596-8.88472-44.4981-7.59541-44.9684-6.99734-45.3318-6.32252-45.5722-5.60042L-45.5722 57.8474C-45.3405 59.2862-44.6394 60.6081-43.5775 61.6069L-42.1197 62.297 1.611 62.297C3.09542 62.0198 4.33716 61.0085 4.91031 59.6119 5.21898 58.8762 5.42513 58.102 5.52396 57.3102L5.52396-4.06616ZM-71.9641 8.43928-71.9641 12.8891-98.8162 12.8891-98.8162 8.43928C-98.6302 7.7622-98.2578 7.1511-97.7421 6.67452-97.5519 6.46864-97.3151 6.31063-97.0518 6.21435L-73.4217 6.21435-72.5778 7.28845-71.6572 8.43928ZM-71.9641 25.1644-98.8162 25.1644-98.8162 19.5639-71.9641 19.5639ZM-71.9641 31.9159-71.9641 35.8286-73.7286 38.0535-97.0518 38.0535C-97.6326 37.7675-98.114 37.313-98.4328 36.7492L-98.4328 35.8286-98.4328 31.9159ZM-63.678-13.4261C-62.4505-13.4261-61.8368-12.1985-61.8368-10.5107-61.8501-9.71415-62.0333-8.92947-62.374-8.20906-62.6184-7.56228-63.0794-7.02028-63.678-6.6748L-97.5122-6.6748C-100.578-6.44288-103.384-4.87067-105.184-2.37842-107.533 0.544835-108.973 4.09221-109.327 7.82564L-109.327 35.4449C-109.467 36.1528-109.672 36.8463-109.941 37.5163-110.465 38.7382-111.554 39.6263-112.856 39.8947L-121.525 39.8947-122.446 39.5881C-122.482 39.359-122.482 39.1262-122.446 38.8974-122.481 38.3865-122.481 37.874-122.446 37.3628-122.569 36.6266-122.569 35.8747-122.446 35.1382-122.176 34.4656-121.725 33.8812-121.142 33.4502L-116.309 33.4502-115.465 33.4502C-114.843 33.022-114.517 32.2798-114.621 31.5325L-114.621 5.83064C-115.695 4.1429-116.616 2.83858-117.383 1.76448-119.531-1.22758-121.602-3.9897-123.751-6.44457-124.144-7.03245-124.333-7.7336-124.288-8.43957-124.305-9.4389-124.039-10.4235-123.52-11.2779-122.984-12.122-122.446-12.5054-121.832-12.5054-121.185-12.4542-120.608-12.079-120.298-11.5084L-111.936 0.229941C-110.651-3.03709-108.837-6.06993-106.565-8.74625-104.805-11.305-101.988-12.9381-98.8933-13.1961ZM-109.711 55.6225C-109.369 54.9298-109.186 54.1698-109.173 53.3975-109.109 52.6304-109.327 51.8661-109.787 51.2493-110.188 50.6793-110.857 50.3593-111.552 50.4055-112.172 50.4593-112.76 50.7-113.24 51.0959L-120.912 61.4534C-121.019 62.5827-120.749 63.7154-120.145 64.6757-119.679 65.2579-118.973 65.5969-118.227 65.5963L-117.613 65.5963-109.941 55.8527ZM-62.5275 50.559-83.0885 50.559-84.0862 44.9583-69.6625 44.9583C-68.4757 44.4511-67.5188 43.5214-66.9774 42.3499-66.6078 41.7804-66.3235 41.1603-66.1332 40.5087L-66.1332 4.1429C-66.4399 2.88644-67.1716 1.77553-68.2047 0.997071L-69.6625 0.229941-100.121 0.229941C-101.223 0.53549-102.127 1.32612-102.575 2.37813-102.84 2.94392-103.046 3.53492-103.189 4.1429L-103.189 40.5087C-103.011 41.8102-102.419 43.0205-101.502 43.9609-101.077 44.3406-100.615 44.6751-100.121 44.9583L-90.07 44.9583C-89.8604 45.8944-89.7067 46.8425-89.6098 47.7968-89.5215 48.7271-89.3677 49.6502-89.1494 50.559L-106.258 50.559C-106.899 50.5717-107.472 50.9633-107.716 51.556-108.046 52.3045-108.203 53.1172-108.176 53.9347-108.212 54.7525-108.054 55.5673-107.716 56.3129-107.51 56.9356-106.913 57.3436-106.258 57.3102L-95.287 57.3102-98.3561 63.985C-98.3507 64.7003-98.1938 65.4063-97.8956 66.0565-97.8812 66.3119-97.8812 66.5679-97.8956 66.8236-97.1639 67.1116-96.3798 67.2424-95.594 67.2073-94.1364 67.2073-92.8321 65.9033-91.758 63.2946-90.6839 60.686-90.07 59.1517-89.1494 57.157L-82.1679 57.157-79.0991 64.3687C-79.0991 65.7498-78.1017 66.4402-77.4111 66.5169L-75.6466 66.5169C-74.6102 65.882-73.9948 64.7394-74.0353 63.5246-74.0959 62.3553-74.3825 61.209-74.8794 60.1488L-76.4905 57.0035-62.5275 57.0035C-61.5848 56.1611-61.0298 54.968-60.9929 53.7042-61.0094 52.6519-61.3585 51.6311-61.9903 50.7892L-62.5275 50.252ZM-142.777-4.21964-142.777 12.5822-144.542 14.8071-160.807 14.8071C-161.388 14.5208-161.869 14.0666-162.188 13.5031L-162.188 12.5822-162.188-4.21964C-162.276-4.98309-161.918-5.72898-161.267-6.13789-160.99-6.20586-160.7-6.20586-160.423-6.13789L-144.235-6.13789C-143.654-5.8516-143.173-5.3971-142.854-4.83329-142.833-4.52689-142.833-4.21936-142.854-3.91268ZM-178.682 44.9583-178.682 56.6966C-178.844 57.3666-179.189 57.9777-179.68 58.4611L-180.37 58.9215-186.508 58.9215C-187.108 58.6638-187.597 58.2014-187.889 57.6172-187.942 57.3128-187.942 57.0013-187.889 56.6966L-187.889 45.5722C-187.922 44.7238-187.619 43.8966-187.045 43.2705L-186.125 42.7333-179.987 42.7333C-179.278 42.7376-178.655 43.2048-178.453 43.8842-178.398 44.2404-178.398 44.6023-178.453 44.9583ZM-143.928 56.6966-143.928 58.9215-159.272 58.9215C-159.872 58.6638-160.362 58.2014-160.653 57.6172-160.674 57.3108-160.674 57.0033-160.653 56.6966-159.314 52.8003-157.538 49.0683-155.36 45.5722-154.47 43.9773-153.443 42.4626-152.291 41.0456-149.572 44.1852-147.277 47.6671-145.463 51.4028-144.798 52.7836-144.03 54.5484-143.161 56.6966ZM-137.79-7.59541-137.79 15.4208C-137.79 16.4184-138.481 17.4155-138.864 18.4896-139.166 19.4391-139.91 20.1824-140.859 20.4846L-143.008 21.5587-162.034 21.5587-164.949 20.0241C-165.947 19.3419-166.636 18.2945-166.868 17.1088L-167.712 13.733-167.712-6.36783C-167.478-7.49488-167.144-8.59871-166.714-9.66686-165.846-11.642-164.122-13.1117-162.034-13.6566L-143.698-13.6566C-142.797-13.5229-141.919-13.2646-141.089-12.8891-139.184-11.7015-137.894-9.73907-137.56-7.51867ZM-133.187 26.5451C-133.187 24.397-133.187 23.0162-134.722 22.4022-135.381 22.2844-136.057 22.2844-136.716 22.4022-140.322 24.2435-144.388 26.4687-148.301 29.0773L-153.288 32.4531C-156.595 29.463-160.253 26.8864-164.182 24.7809-165.487 24.0903-167.251 23.2464-169.476 22.3258-170.813 21.9166-172.229 22.6687-172.638 24.0056-172.662 24.084-172.682 24.1633-172.698 24.2438-172.78 25.0856-172.78 25.9335-172.698 26.7757L-156.817 36.519-164.489 48.7945-169.706 41.5828C-170.63 40.7791-172.005 40.7791-172.929 41.5828-173.386 41.9908-173.639 42.581-173.619 43.1938L-173.619 38.7439C-173.749 37.7814-174.278 36.918-175.077 36.3655-175.456 36.287-175.848 36.287-176.228 36.3655L-180.601 36.3655-180.601 22.4022-172.929 22.4022C-172.287 22.3895-171.715 21.9981-171.471 21.4052-171.088 20.6723-170.903 19.8525-170.934 19.0265-170.9 18.184-171.058 17.345-171.394 16.5719-171.672 15.9826-172.278 15.6196-172.929 15.651L-180.601 15.651-180.601-2.76212-172.929 1.15055C-171.989 1.21059-171.086 0.773927-170.55 2.51513e-16-170.203-0.660372-170.043-1.40343-170.09-2.14819L-170.09-3.37577C-170.075-3.55446-170.075-3.73427-170.09-3.91268-174.719-6.61533-179.539-8.97449-184.513-10.9712L-191.111-13.4261C-191.661-13.884-192.284-14.247-192.953-14.5002-193.588-14.6046-194.236-14.6046-194.871-14.5002L-196.252-14.5002-196.789-14.5002C-197.111-13.7741-197.294-12.9931-197.326-12.1988-197.342-10.8791-196.782-9.61844-195.791-8.74625-194.912-7.81997-193.693-7.29354-192.415-7.28845L-192.415 24.6275C-191.802 25.9315-191.111 26.5451-190.267 26.5451-189.643 26.4865-189.079 26.1481-188.733 25.6245L-188.043 24.6275-188.043-5.6007-184.513-3.91268-184.513 36.3655-189.807 36.3655C-191.011 36.7195-191.996 37.5911-192.493 38.7439-192.824 39.4037-193.081 40.0986-193.26 40.8154L-193.26 60.6092C-192.997 62.0379-192.301 63.3507-191.265 64.3687L-189.807 65.1358-177.148 65.1358C-175.669 65.1545-174.342 64.2288-173.849 62.8342-173.541 62.1189-173.31 61.373-173.159 60.6092L-173.159 45.2652-173.159 46.8762C-171.103 49.2201-169.327 51.7948-167.865 54.5484-166.372 57.4804-165.064 60.5042-163.952 63.6016L-160.884 65.8262-139.325 65.8262C-138.374 65.5567-137.588 64.8838-137.177 63.985-136.97 63.4911-136.816 62.9769-136.716 62.4505-137.354 56.1699-139.513 50.1393-143.008 44.8815L-148.455 36.519-142.394 32.0691C-141.086 30.9738-139.533 30.2106-137.867 29.8445-135.927 29.371-134.248 28.1598-133.187 26.4687ZM-230.853 43.8074-237.528 43.8074C-238.55 39.9205-239.701 36.0076-240.98 32.0691-240.98 30.6883-241.977 29.0003-242.745 27.0056L-231.39 27.0056C-231.39 28.8468-231.39 31.6857-231.006 35.3681-230.622 39.0506-231.006 41.8895-230.546 43.8074ZM-207.837-17.1855-208.757-17.1855-209.678-17.1855C-211.443-17.1855-213.207-15.958-215.048-13.4261L-219.191-7.36547-224.638 2.83858C-226.508 6.31884-227.901 10.035-228.781 13.8865-231.083 8.59277-233.461 3.37577-235.686-1.45752-237.969-6.65922-241.194-11.3931-245.2-15.4208-245.676-15.8707-246.309-16.1182-246.964-16.1114-247.743-16.1349-248.495-15.8283-249.036-15.2676-249.649-14.6933-249.984-13.882-249.956-13.0426-249.918-12.2534-249.622-11.4985-249.112-10.8944-245.539-6.54935-242.428-1.84406-239.829 3.14555-237.693 7.05652-235.822 11.1063-234.228 15.2676-233.691 16.9553-233.078 18.6433-232.541 20.4075L-242.745 20.4075C-243.69 20.7607-244.348 21.6269-244.433 22.6328L-244.433 24.8574-246.657 25.3946C-246.241 24.5912-246.055 23.6884-246.12 22.7862-246.101 22.0437-246.259 21.3072-246.581 20.638-246.843 20.117-247.378 19.7899-247.962 19.7939L-255.633 19.7939-255.633-2.53162-247.271 3.0688C-246.978 3.60826-246.426 3.95714-245.813 3.9897-245.123 3.94807-244.495 3.57711-244.126 2.99206-243.593 2.34642-243.32 1.52633-243.358 0.690389-243.38-0.171606-243.676-1.00472-244.202-1.68774-245.565-3.62497-247.252-5.31214-249.189-6.67452-251.281-8.05048-253.28-9.56265-255.173-11.2011L-256.708-11.2011C-258.304-11.2957-259.772-10.3275-260.314-8.82271-260.594-8.00375-260.774-7.15365-260.851-6.29109L-260.851 19.9474-268.216 19.9474C-268.798 20.0666-269.301 20.4299-269.597 20.945-269.856 21.5776-269.987 22.2558-269.981 22.9397-270.201 24.4332-269.506 25.9139-268.216 26.6989L-260.544 26.6989-260.544 37.1329-263.152 37.1329C-263.342 36.193-263.859 35.3506-264.61 34.7545-265.291 34.1629-266.163 33.8361-267.065 33.8339-267.786 33.7951-268.488 34.0757-268.983 34.601-269.531 35.3274-269.803 36.2248-269.75 37.1329-267.986 42.0429-266.221 47.7204-264.38 54.0112L-262.308 61.6833C-262.308 63.5246-261.618 64.9056-261.388 65.9033-261.157 66.9006-260.313 68.6648-259.239 68.9718-258.165 69.2788-257.398 68.9718-257.014 68.3581-256.565 67.6499-256.35 66.8174-256.401 65.9797-256.391 64.9444-256.52 63.9122-256.784 62.9109-256.933 61.9218-257.164 60.9465-257.475 59.9956L-246.964 59.9956C-245.961 59.3457-245.4 58.194-245.507 57.0035-245.434 55.6225-245.966 54.2782-246.964 53.3208L-258.933 53.3208-261.541 44.1911-250.186 44.1911C-249.604 44.0722-249.101 43.7089-248.805 43.1938-248.64 42.5393-248.64 41.8538-248.805 41.1991-248.585 39.7053-249.28 38.2246-250.57 37.4399L-255.864 37.4399-255.864 26.8521-247.501 26.8521C-247.537 26.6236-247.537 26.3905-247.501 26.162-247.476 26.6219-247.476 27.0829-247.501 27.5428-246.77 31.9791-245.744 36.3615-244.433 40.6622-243.622 43.3155-243.057 46.0377-242.745 48.7945-242.203 50.7555-241.818 52.7567-241.594 54.7786-241.505 56.7594-240.652 58.6293-239.215 59.9956-238.309 60.1961-237.372 59.8333-236.837 59.075-236.331 58.1898-236.091 57.1777-236.146 56.1594-236.043 55.3444-236.043 54.5195-236.146 53.7045-236.286 52.7958-236.491 51.8984-236.76 51.0194L-230.622 51.0194-230.622 66.8239C-230.66 67.5222-230.378 68.1998-229.855 68.6648-229.387 69.0689-228.786 69.2875-228.167 69.2788-226.989 69.4195-225.921 68.5782-225.78 67.4001-225.757 67.2084-225.76 67.0145-225.789 66.8239L-225.789 50.559-212.21 50.559C-211.255 49.7581-210.695 48.5827-210.675 47.3367-210.675 46.2813-211.026 45.2553-211.672 44.4211-211.809 44.2039-211.992 44.0201-212.21 43.8842L-225.712 43.8842-225.712 36.2123-225.712 27.2358-209.064 27.2358C-208.469 27.1492-207.953 26.7768-207.683 26.2385-207.378 25.6203-207.246 24.931-207.3 24.2438-207.3 22.3258-207.837 21.0982-209.064 20.561L-225.712 20.561C-222.643 12.8891-220.879 8.20906-220.265 6.828-218.374 2.36058-215.952-1.86388-213.054-5.75419L-209.678-9.7436C-208.373-11.1232-207.587-12.9129-207.453-14.8071-207.45-15.5405-207.58-16.2683-207.837-16.9553ZM-318.928 3.60571C-318.042 2.77968-317.589 1.58976-317.701 0.383424-317.674-0.583064-317.913-1.53823-318.391-2.37813-318.739-3.07872-319.451-3.52359-320.233-3.52925-320.698-3.48253-321.145-3.32451-321.537-3.0688-323.301-0.690389-325.603 2.83858-328.518 7.51867-331.434 12.1985-333.812 15.7277-335.577 18.1829-335.706 18.764-335.706 19.3663-335.577 19.9474-335.596 20.9365-335.239 21.8956-334.579 22.6328-333.993 23.3356-333.116 23.7315-332.201 23.7068-329.899 20.868-327.598 17.569-325.066 13.8865-322.534 10.2038-320.693 7.05822-318.621 3.60571ZM-282.179 27.6195C-280.889 28.4045-280.194 29.885-280.414 31.379-280.238 32.032-280.238 32.7201-280.414 33.3737-280.711 33.8885-281.213 34.2518-281.795 34.3708L-295.068 34.3708-295.068 47.1832C-295.285 48.2862-296.246 49.0861-297.37 49.1014-298.65 49.0811-299.809 48.3383-300.362 47.1832L-300.362 34.3708-341.407 34.3708C-342.635 34.3708-343.249 33.1432-343.249 31.4555-343.254 30.6566-343.07 29.868-342.712 29.1538-342.473 28.5036-342.011 27.9596-341.408 27.6195L-300.362 27.6195-300.362-5.37048C-300.468-6.74333-301.417-7.90578-302.74-8.28608-303.959-8.49648-305.204-8.49648-306.423-8.28608L-309.415-8.28608C-311.574-7.93551-313.669-7.26296-315.629-6.29109-316.308-6.54992-316.896-7.00357-317.317-7.59541-317.674-8.2269-317.86-8.94108-317.854-9.66686-317.827-11.0389-317.341-12.3627-316.473-13.4261-315.832-14.4874-314.717-15.1733-313.481-15.2673L-308.648-15.8045-302.97-15.8045C-301.112-15.7824-299.31-15.1639-297.83-14.0397-296.072-12.7521-295.043-10.6951-295.068-8.51574L-295.068 27.773ZM-281.335 50.0221C-281.697 48.4037-281.953 46.7635-282.102 45.1117-282.639 41.0456-283.944 39.1276-286.169 39.3576-286.736 39.8041-287.184 40.3838-287.473 41.0456-287.777 41.6915-287.909 42.4051-287.856 43.117-287.794 44.4599-287.614 45.795-287.319 47.1064-287.134 47.9149-287.006 48.7353-286.936 49.5616-286.871 50.9022-287.589 52.1589-288.777 52.7836L-332.661 52.7836C-333.822 52.2909-334.735 51.3504-335.193 50.1755-335.435 49.5817-335.615 48.9647-335.73 48.334L-335.73 41.6592C-336.114 40.125-336.804 39.3576-337.955 39.3576-338.703 39.4156-339.396 39.7758-339.873 40.3552-340.481 41.0184-340.881 41.8453-341.024 42.7333L-341.024 55.0088C-340.789 56.4638-340.057 57.7925-338.952 58.7677-338.431 59.1059-337.862 59.3644-337.265 59.5351L-313.635 59.5351-313.635 66.2102C-312.867 67.5143-312.023 68.2047-311.103 68.2047-310.202 68.1285-309.384 67.6491-308.878 66.9006-308.689 66.6956-308.534 66.4625-308.417 66.2102L-308.417 59.5351-286.552 59.5351C-284.587 59.1449-282.93 57.8313-282.102 56.0059-281.597 54.9712-281.186 53.8925-280.875 52.7836L-280.875 50.0221ZM-365.114-5.37048-365.114-1.84151-398.104-1.84151-398.104-5.21728C-397.909-5.87312-397.568-6.47629-397.107-6.98148L-396.34-7.44193-367.109-7.44193C-366.474-7.14516-365.92-6.69745-365.498-6.13789L-364.884-5.21728ZM-365.114 9.74332-398.104 9.74332-398.104 4.1429-365.114 4.1429ZM-365.114 18.1829C-365.114 19.0723-365.411 19.9363-365.958 20.6378-366.228 20.9566-366.538 21.2401-366.879 21.4816L-396.34 21.4816C-397.393 20.9798-398.032 19.8842-397.951 18.7198-398.023 17.5384-397.391 16.4252-396.34 15.8812L-367.109 15.8812C-366.474 16.178-365.92 16.6257-365.498 17.1855-365.269 17.5027-365.064 17.8357-364.884 18.1826ZM-354.22 34.3708-390.279 34.3708C-390.662 33.6036-391.429 32.5296-392.427 30.995L-394.652 27.6192-363.119 27.6192C-361.808 27.0993-360.759 26.0776-360.204 24.7807-359.979 24.0767-359.8 23.3591-359.667 22.6325L-359.667-8.05558C-359.919-9.28684-360.279-10.4935-360.741-11.6619-361.278-12.9659-362.045-13.6566-363.119-13.6566L-399.408-13.6566C-400.741-13.6098-401.944-12.847-402.554-11.6619-402.889-11.0474-403.171-10.4057-403.398-9.7436L-403.398 18.2593-412.528 10.5875C-412.913 10.1981-413.437 9.97723-413.985 9.97354-414.753 10.0254-415.444 10.4572-415.827 11.1244-416.331 11.8148-416.599 12.6482-416.594 13.5028-416.599 14.2283-416.414 14.9428-416.057 15.5742-412.619 18.0492-409.363 20.7669-406.313 23.7068-403.628 26.4687-401.326 28.9238-399.485 31.379-397.644 33.8339-397.72 33.5272-396.877 34.6777L-413.985 34.6777C-415.344 35.2988-416.149 36.7229-415.98 38.207-415.98 39.9715-415.29 41.0456-413.985 41.3523L-393.424 41.3523-391.66 43.8844C-390.969 45.035-390.355 45.8792-389.972 46.4161L-411.223 46.4161C-411.821 46.7267-412.285 47.2449-412.528 47.8739-412.895 48.6121-413.079 49.4277-413.065 50.252-413.065 51.94-412.451 52.8606-411.223 53.0906L-388.207 53.0906-385.599 58.1544-410.379 58.1544C-411.311 58.973-411.865 60.1378-411.914 61.3767-411.881 62.4391-411.504 63.462-410.84 64.292L-410.379 64.8292-384.985 64.8292-373.63 65.4431-357.442 67.2073C-356.755 67.2251-356.111 66.8737-355.754 66.2867-355.326 65.6257-355.112 64.8487-355.141 64.0618-354.949 62.5745-355.718 61.128-357.059 60.4558L-380.075 57.6939-382.683 52.6301-356.445 52.6301C-355.413 52.0057-354.843 50.8353-354.987 49.6383-354.881 48.2522-355.419 46.8943-356.445 45.9556L-384.832 45.9556-387.517 40.8918-354.297 40.8918C-353.342 40.0913-352.782 38.9155-352.762 37.6695-352.762 36.6141-353.113 35.5887-353.759 34.7542-353.917 34.5551-354.097 34.3753-354.297 34.2173ZM-426.644-10.3573C-425.98-11.1872-425.603-12.2104-425.57-13.2729-425.54-14.0607-425.815-14.8301-426.337-15.4208-426.812-15.9837-427.52-16.2955-428.255-16.2649-428.77-16.2222-429.268-16.0647-429.713-15.8048-434.47-10.0506-438.229-5.21728-440.914-1.30432-444.481 3.91494-447.538 9.46411-450.044 15.2673-453.015 22.3136-455.277 29.638-456.796 37.1329-458.995 26.2543-462.66 15.724-467.69 5.83064-472.16-2.29375-478.09-9.52414-485.182-15.4978-485.809-15.8755-486.522-16.0868-487.254-16.1114-488.711-16.1114-489.402-15.2676-489.402-13.5795-489.382-12.6677-489.145-11.7737-488.711-10.9712-485.368-8.21784-482.286-5.16178-479.505-1.84151-470.964 8.69188-465.118 21.1475-462.473 34.4475-460.828 42.009-460.005 49.7258-460.018 57.464L-460.018 67.2073C-459.404 69.202-458.407 70.1994-457.179 70.1994-455.952 70.1994-455.031 69.202-454.341 67.2073L-454.341 54.1647C-453.699 47.7674-452.44 41.4466-450.581 35.2917-448.818 29.0448-446.718 22.8978-444.29 16.8786-441.717 11.514-438.688 6.38029-435.237 1.53426-431.554-3.37577-428.562-7.28845-426.414-10.2808ZM-508.199 20.4075-545.178 20.4075-545.178 10.3573-508.199 10.3573ZM-508.199 27.0823-508.199 35.4449C-508.347 36.0749-508.731 36.624-509.273 36.9794L-509.963 36.9794-543.413 36.9794C-543.791 36.9542-544.146 36.7903-544.411 36.519L-544.411 35.6751-544.411 27.3126ZM-500.526 54.4716-532.902 54.4716C-533.953 51.7783-535.29 49.2062-536.892 46.7998-537.587 45.7489-538.356 44.7487-539.194 43.8074L-506.664 43.8074C-505.604 43.7836-504.614 43.2745-503.979 42.4264-503.111 41.4027-502.671 40.0836-502.751 38.7439L-502.751-8.36254C-502.55-10.9259-503.316-13.4716-504.899-15.4978-506.47-17.2005-508.725-18.103-511.037-17.9527-514.846-17.7417-518.552-16.6381-521.855-14.7307-522.86-14.1252-523.404-12.9761-523.236-11.8153-523.243-10.9822-523.031-10.1621-522.622-9.43664-522.18-8.82441-521.458-8.47751-520.704-8.51602L-519.476-8.51602C-517.271-9.70311-514.839-10.4091-512.341-10.5878-509.426-10.5878-507.968-8.66951-507.968-4.83329L-507.968 3.75919-545.178 3.75919-545.178-14.6536C-545.444-15.3709-545.894-16.0058-546.482-16.4951-546.837-16.8386-547.296-17.0547-547.786-17.1088-548.477-17.1088-549.244-16.5719-549.934-15.4978L-550.395-14.6536-550.395 31.3787-552.083 28.8468C-553.572 27.4536-555.162 26.1713-556.839 25.0109-557.267 24.9004-557.716 24.9004-558.144 25.0109-558.916 24.9738-559.648 25.3549-560.062 26.0082-560.553 26.7332-560.82 27.5872-560.829 28.4634-560.881 29.4619-560.418 30.4176-559.601 30.995-555.667 33.8868-552.041 37.1776-548.784 40.8154-546.19 43.6571-543.806 46.6828-541.649 49.8686-540.517 51.283-539.658 52.896-539.117 54.6251L-558.297 54.6251C-558.834 54.6251-559.218 54.6251-559.601 55.6992-559.924 56.3955-560.081 57.157-560.062 57.9241-560.059 58.4755-559.956 59.022-559.755 59.5351-559.505 60.0321-559.006 60.3549-558.451 60.3793L-536.739 60.3793C-536.355 61.3764-535.971 62.1438-535.741 62.7574-535.051 64.5987-534.437 66.2099-534.053 67.591-533.67 68.9718-532.826 69.7389-531.752 69.7389-530.803 69.686-529.928 69.2068-529.373 68.4349-528.714 67.6476-528.458 66.5985-528.683 65.5963-529.096 64.2161-529.583 62.8588-530.141 61.5299L-530.601 60.3793-500.833 60.3793C-500.289 60.3867-499.786 60.091-499.529 59.6119-499.198 58.973-499.04 58.2591-499.069 57.5404-499.043 56.7478-499.2 55.9603-499.529 55.2388-499.717 54.6701-500.235 54.2743-500.833 54.2414Z" fill-rule="evenodd" transform="matrix(1.00102 0 0 -1 2550.44 2017.65)"/></g></g></g></g><path d="M1140.84 2014.67 1140.84 2018.73 1178.64 2018.73 1178.64 2014.67ZM1140.84 2004.05 1140.84 2008.3 1178.64 2008.3 1178.64 2004.05ZM1442.86 2003.04 1442.86 2015.04 1461.9 2015.04 1461.9 2003.04ZM1525.42 1998.6 1525.42 2003.5 1553.19 2003.5 1553.19 1998.6ZM1140.84 1993.43 1140.84 1997.4 1178.64 1997.4 1178.64 1993.43ZM1432.64 1993.34 1472.39 1993.34 1472.39 2028.89 1461.9 2028.89 1461.9 2024.64 1442.86 2024.64 1442.86 2028.89 1432.64 2028.89ZM970.885 1989.55 982.587 1989.55 982.587 2010.89C982.587 2012.79 982.928 2014.13 983.609 2014.9 984.29 2015.67 985.497 2016.12 987.231 2016.24 988.902 2016.43 990.451 2016.52 991.875 2016.52 993.237 2016.52 994.599 2016.43 995.961 2016.24 997.942 2016.06 999.258 2015.63 999.908 2014.95 1000.56 2014.27 1000.91 2012.86 1000.98 2010.7 1001.16 2006.82 1001.25 2003.07 1001.25 1999.44L1012.31 2001.65C1012.12 2007.75 1011.9 2012.33 1011.66 2015.41 1011.47 2018.3 1010.96 2020.53 1010.12 2022.1 1009.29 2023.67 1007.99 2024.81 1006.22 2025.52 1004.46 2026.23 1001.94 2026.68 998.654 2026.86 996.054 2027.04 993.515 2027.14 991.039 2027.14 988.562 2027.14 986.024 2027.04 983.423 2026.86 980.389 2026.68 977.975 2026.18 976.179 2025.38 974.384 2024.58 973.052 2023.27 972.186 2021.46 971.319 2019.64 970.885 2017.13 970.885 2013.93ZM1525.42 1986.69 1525.42 1991.77 1553.19 1991.77 1553.19 1986.69ZM1525.42 1974.87 1525.42 1979.58 1553.19 1979.58 1553.19 1974.87ZM1486.14 1973.4 1506.11 1973.4 1506.11 2005.16C1508.58 2009.22 1511.46 2012.06 1514.74 2013.66 1518.02 2015.26 1522.57 2016.21 1528.39 2016.52 1535.45 2016.89 1542.48 2017.07 1549.48 2017.07 1556.53 2017.07 1563.53 2016.89 1570.47 2016.52L1568.61 2026.77C1561.61 2027.14 1554.65 2027.32 1547.71 2027.32 1540.78 2027.32 1533.81 2027.14 1526.82 2026.77 1520.38 2026.46 1515.31 2025.46 1511.63 2023.77 1507.95 2022.07 1504.37 2019.17 1500.9 2015.04 1499.23 2016.89 1496.72 2019.81 1493.38 2023.81 1490.91 2026.77 1489.67 2028.25 1489.67 2028.25L1484.37 2016.89 1495.33 2005.07 1495.33 1984.29 1486.14 1984.29ZM1261.76 1968.04 1273.09 1968.04 1273.09 1978.1 1290.55 1978.1 1290.55 1989.37 1273.09 1989.37 1273.09 2014.76C1273.09 2018.58 1272.58 2021.5 1271.56 2023.54 1270.54 2025.57 1268.85 2027.01 1266.5 2027.88 1264.14 2028.74 1260.77 2029.17 1256.37 2029.17 1252.72 2029.17 1249.07 2028.98 1245.41 2028.61L1242.81 2016.79C1247.27 2017.41 1251.14 2017.72 1254.42 2017.72 1256.71 2017.72 1258.34 2017.56 1259.3 2017.26 1260.26 2016.95 1260.91 2016.35 1261.25 2015.46 1261.59 2014.56 1261.76 2013.07 1261.76 2010.98L1261.76 1989.37 1228.6 1989.37C1232.75 1993.06 1238.48 1998.6 1245.79 2005.99L1237.71 2014.21C1233.12 2009.28 1227.4 2003.47 1220.52 1996.76L1227.58 1989.37 1208.17 1989.37 1208.17 1978.1 1261.76 1978.1ZM1597.49 1962.78 1597.49 2008.12 1644.3 2008.12 1644.3 1962.78ZM1443.05 1959.64 1443.05 1959.73C1445.77 1964.22 1448.77 1967.95 1452.05 1970.9 1456.08 1967.7 1459.58 1963.95 1462.55 1959.64ZM1405.71 1956.77 1405.71 1968.04 1416.11 1968.04 1416.11 1956.77ZM1585.7 1950.68 1656 1950.68 1656 2027.41 1644.3 2027.41 1644.3 2020.12 1597.49 2020.12 1597.49 2027.88 1585.7 2027.88ZM935.873 1947.82 1005.62 1947.82 1005.62 1958.53 974.136 1958.53C974.012 1963.95 973.919 1966.99 973.857 1967.67L973.3 1973.76 1011.01 1973.76 1011.01 1984.48 971.536 1984.48C969.307 1994.14 965.468 2002.5 960.02 2009.55 954.571 2016.59 946.677 2023.32 936.337 2029.72L929 2019.38C937.792 2014.52 944.541 2009.33 949.247 2003.82 953.952 1998.31 957.295 1991.86 959.276 1984.48L930.579 1984.48 930.579 1973.76 961.134 1973.76C961.443 1971.55 961.629 1969.27 961.691 1966.93 961.753 1966.32 961.846 1963.52 961.97 1958.53L935.873 1958.53ZM1395.96 1946.71 1425.77 1946.71 1425.77 1978.1 1417.88 1978.1 1417.88 1988.35 1425.68 1988.35 1425.68 1998.33 1417.88 1998.33 1417.88 2011.07 1425.77 2009.22 1426.51 2020.12C1425.09 2020.37 1418.56 2021.75 1406.92 2024.27L1393.08 2027.32 1391.22 2016.98 1395.03 2016.15 1395.03 1983.09 1403.67 1983.09 1403.67 2014.3 1408.13 2013.29 1408.13 1978.1 1395.96 1978.1ZM1192.66 1944.68 1193.5 1953.73C1183.59 1954.34 1171.92 1954.96 1158.49 1955.57L1156.91 1960.93 1191.27 1960.93 1191.27 1968.59 1154.12 1968.59 1152.17 1973.12 1197.96 1973.12 1197.96 1981.8 1147.43 1981.8C1145.76 1984.32 1144.8 1985.74 1144.56 1986.05L1189.23 1986.05 1189.23 2029.45 1178.64 2029.45 1178.64 2026.49 1140.84 2026.49 1140.84 2029.54 1130.16 2029.54 1130.16 2001.74C1126.07 2005.38 1121.99 2008.7 1117.9 2011.72L1112.51 2001.37C1121.43 1995.4 1128.61 1988.88 1134.06 1981.8L1115.12 1981.8 1115.12 1973.12 1139.82 1973.12C1140.56 1971.83 1141.34 1970.32 1142.14 1968.59L1121.62 1968.59 1121.62 1960.93 1145.39 1960.93 1147.06 1955.94C1137.03 1956.31 1127.75 1956.5 1119.2 1956.5L1118.74 1947.82C1129.63 1947.82 1142 1947.52 1155.84 1946.94 1169.68 1946.36 1181.95 1945.6 1192.66 1944.68ZM1057.44 1944.68 1069.05 1944.68 1068.96 1957.79C1068.96 1959.02 1068.9 1960.74 1068.77 1962.96 1070.51 1974.9 1074.55 1985.49 1080.89 1994.73 1087.24 2003.96 1095.89 2012.3 1106.85 2019.75L1098.77 2029.91C1089.98 2022.95 1082.73 2015.93 1077.04 2008.85 1071.34 2001.77 1066.95 1994.3 1063.85 1986.42 1060.94 1994.3 1056.62 2001.73 1050.89 2008.72 1045.17 2015.7 1037.91 2022.43 1029.12 2028.89L1020.76 2019.38C1029.86 2013.1 1037.03 2006.81 1042.26 2000.5 1047.49 1994.19 1051.27 1987.28 1053.59 1979.77 1055.91 1972.26 1057.13 1963.45 1057.26 1953.36 1057.38 1951.14 1057.44 1948.25 1057.44 1944.68ZM1495.33 1944.59C1501.15 1952.03 1505.42 1957.88 1508.15 1962.13L1498.49 1968.59C1497.13 1966.38 1495.11 1963.41 1492.45 1959.68 1489.79 1955.96 1487.59 1952.99 1485.86 1950.77ZM1355.19 1944.31 1365.68 1944.31 1365.59 1959.36 1381.47 1959.36 1381.47 1969.98 1365.59 1969.98 1365.5 1981.71 1365.5 1983.09 1384.16 1983.09 1384.16 1993.89 1365.78 1993.89C1367.51 1999.62 1369.99 2004.54 1373.21 2008.67 1376.43 2012.79 1380.76 2016.58 1386.21 2020.03L1379.52 2029.72C1374.82 2026.46 1370.88 2022.9 1367.73 2019.06 1364.57 2015.21 1361.97 2010.95 1359.92 2006.27 1355.65 2014.52 1348.29 2022.43 1337.82 2030L1331.04 2020.77C1337.54 2016.33 1342.57 2012.06 1346.13 2007.93 1349.69 2003.81 1352.19 1999.13 1353.61 1993.89L1335.78 1993.89 1335.78 1983.09 1355.1 1983.09 1355.1 1981.98 1355.1 1969.98 1346.27 1969.98C1345.28 1973.73 1344.17 1977.24 1342.93 1980.51L1333.55 1977.46C1336.58 1969.33 1338.87 1959.98 1340.42 1949.39L1350.08 1950.86C1349.83 1953.39 1349.4 1956.22 1348.78 1959.36L1355.1 1959.36ZM1311.17 1943.94 1320.92 1946.16C1320.05 1949.05 1319.12 1951.82 1318.13 1954.47L1332.99 1954.47 1332.99 1964.72 1313.77 1964.72C1312.65 1966.93 1311.35 1969.27 1309.87 1971.73L1329.93 1971.73 1329.93 1981.71 1321.57 1981.71 1321.57 1989.92 1332.25 1989.92 1332.25 1999.62 1321.57 1999.62 1321.57 2012.36 1331.41 2006.64 1333.18 2017.07C1329.65 2018.92 1324.6 2021.78 1318.04 2025.66 1315.38 2027.38 1313.77 2028.46 1313.21 2028.89L1308.2 2019.84C1309.43 2019.04 1310.25 2018.2 1310.66 2017.3 1311.06 2016.41 1311.26 2015.26 1311.26 2013.84L1311.26 1999.62 1300.86 1999.62 1300.86 1989.92 1311.26 1989.92 1311.26 1981.71 1305.69 1981.71 1305.69 1978.2C1305.5 1978.38 1305.36 1978.57 1305.27 1978.75 1305.18 1978.94 1305.07 1979.09 1304.95 1979.21L1297.7 1971.46C1300.43 1967.58 1302.93 1963.25 1305.22 1958.48 1307.51 1953.71 1309.5 1948.86 1311.17 1943.94ZM1253.68 1942.92 1258.04 1952.34 1288.41 1952.34 1288.41 1972.66 1277.27 1972.66 1277.27 1963.24 1222.2 1963.24 1222.2 1972.93 1210.77 1972.93 1210.77 1952.34 1244.39 1952.34 1242.81 1949.2C1242.5 1948.53 1242.16 1947.8 1241.79 1947.03 1241.42 1946.26 1241.08 1945.51 1240.77 1944.77ZM1440.82 1942.18 1451.59 1944.49C1450.97 1945.79 1450.04 1947.6 1448.8 1949.94L1473.51 1949.94 1473.51 1959.82C1470.1 1966.22 1465.74 1971.86 1460.41 1976.72 1465.55 1979.49 1471.9 1981.83 1479.45 1983.74L1476.01 1993.71C1465.98 1990.76 1457.94 1987.28 1451.87 1983.28 1445.61 1987.4 1438.15 1990.97 1429.49 1993.99L1425.4 1984.48C1432.58 1982.01 1438.65 1979.37 1443.6 1976.53 1441.13 1974.01 1438.77 1971.12 1436.54 1967.86 1435.62 1968.9 1434.13 1970.44 1432.09 1972.47L1426.05 1964.35C1429.15 1961.27 1431.98 1957.79 1434.55 1953.91 1437.12 1950.03 1439.21 1946.12 1440.82 1942.18ZM1549.1 1942 1559.32 1945.14C1557.96 1947.72 1556.47 1950.31 1554.86 1952.9L1569.44 1952.9 1569.44 1961.58 1544.37 1961.58 1542.7 1966.84 1564.24 1966.84 1564.24 2011.25 1514.37 2011.25 1514.37 1966.84 1530.99 1966.84 1532.67 1961.58 1510.47 1961.58 1510.47 1952.9 1523.66 1952.9C1522.11 1949.63 1520.87 1947.32 1519.94 1945.97L1529.42 1942.37C1530.16 1943.6 1532.02 1947.11 1534.99 1952.9L1543.25 1952.9C1545.98 1948.28 1547.93 1944.65 1549.1 1942Z" fill="#7F7F7F" fill-rule="evenodd"/><path d="M2115.87 2014.67 2115.87 2018.73 2153.67 2018.73 2153.67 2014.67ZM2115.87 2004.05 2115.87 2008.3 2153.67 2008.3 2153.67 2004.05ZM2417.87 2003.04 2417.87 2015.04 2436.91 2015.04 2436.91 2003.04ZM2500.43 1998.6 2500.43 2003.5 2528.2 2003.5 2528.2 1998.6ZM1929.4 1995.56 1929.4 2002.3 1967.75 2002.3 1967.75 1995.56ZM2115.87 1993.43 2115.87 1997.4 2153.67 1997.4 2153.67 1993.43ZM2407.66 1993.34 2447.4 1993.34 2447.4 2028.89 2436.91 2028.89 2436.91 2024.64 2417.87 2024.64 2417.87 2028.89 2407.66 2028.89ZM2500.43 1986.69 2500.43 1991.77 2528.2 1991.77 2528.2 1986.69ZM1929.4 1979.67 1929.4 1986.23 1967.75 1986.23 1967.75 1979.67ZM2500.43 1974.87 2500.43 1979.58 2528.2 1979.58 2528.2 1974.87ZM2461.15 1973.4 2481.11 1973.4 2481.11 2005.16C2483.59 2009.22 2486.47 2012.06 2489.75 2013.66 2493.03 2015.26 2497.58 2016.21 2503.4 2016.52 2510.46 2016.89 2517.49 2017.07 2524.48 2017.07 2531.54 2017.07 2538.54 2016.89 2545.47 2016.52L2543.61 2026.77C2536.62 2027.14 2529.65 2027.32 2522.72 2027.32 2515.78 2027.32 2508.82 2027.14 2501.82 2026.77 2495.38 2026.46 2490.32 2025.46 2486.64 2023.77 2482.96 2022.07 2479.38 2019.17 2475.91 2015.04 2474.24 2016.89 2471.73 2019.81 2468.39 2023.81 2465.91 2026.77 2464.68 2028.25 2464.68 2028.25L2459.38 2016.89 2470.34 2005.07 2470.34 1984.29 2461.15 1984.29ZM2236.78 1968.04 2248.11 1968.04 2248.11 1978.1 2265.57 1978.1 2265.57 1989.37 2248.11 1989.37 2248.11 2014.76C2248.11 2018.58 2247.6 2021.5 2246.58 2023.54 2245.56 2025.57 2243.87 2027.01 2241.52 2027.88 2239.17 2028.74 2235.79 2029.17 2231.4 2029.17 2227.74 2029.17 2224.09 2028.98 2220.44 2028.61L2217.84 2016.79C2222.3 2017.41 2226.17 2017.72 2229.45 2017.72 2231.74 2017.72 2233.36 2017.56 2234.32 2017.26 2235.28 2016.95 2235.93 2016.35 2236.27 2015.46 2236.61 2014.56 2236.78 2013.07 2236.78 2010.98L2236.78 1989.37 2203.63 1989.37C2207.78 1993.06 2213.5 1998.6 2220.81 2005.99L2212.73 2014.21C2208.15 2009.28 2202.42 2003.47 2195.55 1996.76L2202.61 1989.37 2183.2 1989.37 2183.2 1978.1 2236.78 1978.1ZM2572.49 1962.78 2572.49 2008.12 2619.3 2008.12 2619.3 1962.78ZM2418.06 1959.64 2418.06 1959.73C2420.78 1964.22 2423.78 1967.95 2427.07 1970.9 2431.09 1967.7 2434.59 1963.95 2437.56 1959.64ZM2380.73 1956.77 2380.73 1968.04 2391.13 1968.04 2391.13 1956.77ZM2560.7 1950.68 2631 1950.68 2631 2027.41 2619.3 2027.41 2619.3 2020.12 2572.49 2020.12 2572.49 2027.88 2560.7 2027.88ZM2370.97 1946.71 2400.78 1946.71 2400.78 1978.1 2392.89 1978.1 2392.89 1988.35 2400.69 1988.35 2400.69 1998.33 2392.89 1998.33 2392.89 2011.07 2400.78 2009.22 2401.53 2020.12C2400.1 2020.37 2393.57 2021.75 2381.93 2024.27L2368.1 2027.32 2366.24 2016.98 2370.05 2016.15 2370.05 1983.09 2378.68 1983.09 2378.68 2014.3 2383.14 2013.29 2383.14 1978.1 2370.97 1978.1ZM2167.69 1944.68 2168.53 1953.73C2158.62 1954.34 2146.95 1954.96 2133.52 1955.57L2131.94 1960.93 2166.3 1960.93 2166.3 1968.59 2129.15 1968.59 2127.2 1973.12 2172.98 1973.12 2172.98 1981.8 2122.46 1981.8C2120.79 1984.32 2119.83 1985.74 2119.59 1986.05L2164.25 1986.05 2164.25 2029.45 2153.67 2029.45 2153.67 2026.49 2115.87 2026.49 2115.87 2029.54 2105.19 2029.54 2105.19 2001.74C2101.11 2005.38 2097.02 2008.7 2092.93 2011.72L2087.55 2001.37C2096.46 1995.4 2103.64 1988.88 2109.09 1981.8L2090.15 1981.8 2090.15 1973.12 2114.85 1973.12C2115.59 1971.83 2116.37 1970.32 2117.17 1968.59L2096.65 1968.59 2096.65 1960.93 2120.42 1960.93 2122.09 1955.94C2112.06 1956.31 2102.78 1956.5 2094.23 1956.5L2093.77 1947.82C2104.67 1947.82 2117.03 1947.52 2130.87 1946.94 2144.71 1946.36 2156.98 1945.6 2167.69 1944.68ZM2032.48 1944.68 2044.09 1944.68 2043.99 1957.79C2043.99 1959.02 2043.93 1960.74 2043.81 1962.96 2045.54 1974.9 2049.58 1985.49 2055.93 1994.73 2062.27 2003.96 2070.92 2012.3 2081.88 2019.75L2073.8 2029.91C2065.01 2022.95 2057.77 2015.93 2052.07 2008.85 2046.38 2001.77 2041.98 1994.3 2038.88 1986.42 2035.98 1994.3 2031.66 2001.73 2025.93 2008.72 2020.2 2015.7 2012.94 2022.43 2004.15 2028.89L1995.8 2019.38C2004.9 2013.1 2012.06 2006.81 2017.29 2000.5 2022.52 1994.19 2026.3 1987.28 2028.62 1979.77 2030.94 1972.26 2032.17 1963.45 2032.29 1953.36 2032.42 1951.14 2032.48 1948.25 2032.48 1944.68ZM2470.34 1944.59C2476.16 1952.03 2480.43 1957.88 2483.16 1962.13L2473.5 1968.59C2472.14 1966.38 2470.12 1963.41 2467.46 1959.68 2464.8 1955.96 2462.6 1952.99 2460.87 1950.77ZM2330.21 1944.31 2340.7 1944.31 2340.61 1959.36 2356.49 1959.36 2356.49 1969.98 2340.61 1969.98 2340.51 1981.71 2340.51 1983.09 2359.18 1983.09 2359.18 1993.89 2340.79 1993.89C2342.53 1999.62 2345 2004.54 2348.22 2008.67 2351.44 2012.79 2355.78 2016.58 2361.22 2020.03L2354.54 2029.72C2349.83 2026.46 2345.9 2022.9 2342.74 2019.06 2339.59 2015.21 2336.99 2010.95 2334.94 2006.27 2330.67 2014.52 2323.3 2022.43 2312.84 2030L2306.06 2020.77C2312.56 2016.33 2317.59 2012.06 2321.15 2007.93 2324.71 2003.81 2327.2 1999.13 2328.63 1993.89L2310.8 1993.89 2310.8 1983.09 2330.11 1983.09 2330.11 1981.98 2330.11 1969.98 2321.29 1969.98C2320.3 1973.73 2319.19 1977.24 2317.95 1980.51L2308.57 1977.46C2311.6 1969.33 2313.89 1959.98 2315.44 1949.39L2325.1 1950.86C2324.85 1953.39 2324.42 1956.22 2323.8 1959.36L2330.11 1959.36ZM2286.19 1943.94 2295.94 1946.16C2295.07 1949.05 2294.14 1951.82 2293.15 1954.47L2308.01 1954.47 2308.01 1964.72 2288.79 1964.72C2287.67 1966.93 2286.37 1969.27 2284.89 1971.73L2304.95 1971.73 2304.95 1981.71 2296.59 1981.71 2296.59 1989.92 2307.27 1989.92 2307.27 1999.62 2296.59 1999.62 2296.59 2012.36 2306.43 2006.64 2308.2 2017.07C2304.67 2018.92 2299.62 2021.78 2293.06 2025.66 2290.4 2027.38 2288.79 2028.46 2288.23 2028.89L2283.22 2019.84C2284.45 2019.04 2285.27 2018.2 2285.68 2017.3 2286.08 2016.41 2286.28 2015.26 2286.28 2013.84L2286.28 1999.62 2275.88 1999.62 2275.88 1989.92 2286.28 1989.92 2286.28 1981.71 2280.71 1981.71 2280.71 1978.2C2280.52 1978.38 2280.38 1978.57 2280.29 1978.75 2280.2 1978.94 2280.09 1979.09 2279.97 1979.21L2272.72 1971.46C2275.45 1967.58 2277.95 1963.25 2280.24 1958.48 2282.54 1953.71 2284.52 1948.86 2286.19 1943.94ZM1935.34 1943.38 1947.32 1944.77C1946.2 1947.6 1945.09 1950.25 1943.98 1952.71L1987.53 1952.71 1987.53 1963.15 1938.77 1963.15C1937.29 1965.79 1935.96 1968.01 1934.78 1969.79L1978.8 1969.79 1978.8 2017.16C1978.8 2021.35 1977.98 2024.38 1976.34 2026.26 1974.7 2028.14 1971.93 2029.08 1968.03 2029.08 1963.76 2029.08 1959.52 2028.89 1955.31 2028.52L1953.26 2018.36C1957.04 2018.86 1960.57 2019.1 1963.85 2019.1 1965.4 2019.1 1966.43 2018.75 1966.96 2018.04 1967.49 2017.33 1967.75 2016.03 1967.75 2014.12L1967.75 2011.9 1929.4 2011.9 1929.4 2028.89 1918.44 2028.89 1918.44 1989.83C1915.03 1993.16 1911.32 1996.39 1907.29 1999.53L1902 1988.35C1911.91 1980.6 1919.8 1972.19 1925.68 1963.15L1905.99 1963.15 1905.99 1952.71 1931.53 1952.71C1933.02 1949.57 1934.29 1946.46 1935.34 1943.38ZM2228.7 1942.92 2233.07 1952.34 2263.44 1952.34 2263.44 1972.66 2252.29 1972.66 2252.29 1963.24 2197.22 1963.24 2197.22 1972.93 2185.8 1972.93 2185.8 1952.34 2219.42 1952.34 2217.84 1949.2C2217.53 1948.53 2217.19 1947.8 2216.82 1947.03 2216.45 1946.26 2216.1 1945.51 2215.79 1944.77ZM2415.83 1942.18 2426.6 1944.49C2425.98 1945.79 2425.05 1947.6 2423.82 1949.94L2448.52 1949.94 2448.52 1959.82C2445.11 1966.22 2440.75 1971.86 2435.42 1976.72 2440.56 1979.49 2446.91 1981.83 2454.46 1983.74L2451.03 1993.71C2441 1990.76 2432.95 1987.28 2426.88 1983.28 2420.63 1987.4 2413.17 1990.97 2404.5 1993.99L2400.41 1984.48C2407.59 1982.01 2413.66 1979.37 2418.61 1976.53 2416.14 1974.01 2413.79 1971.12 2411.56 1967.86 2410.63 1968.9 2409.14 1970.44 2407.1 1972.47L2401.06 1964.35C2404.16 1961.27 2406.99 1957.79 2409.56 1953.91 2412.13 1950.03 2414.22 1946.12 2415.83 1942.18ZM2524.11 1942 2534.33 1945.14C2532.96 1947.72 2531.48 1950.31 2529.87 1952.9L2544.45 1952.9 2544.45 1961.58 2519.38 1961.58 2517.7 1966.84 2539.25 1966.84 2539.25 2011.25 2489.38 2011.25 2489.38 1966.84 2506 1966.84 2507.67 1961.58 2485.48 1961.58 2485.48 1952.9 2498.67 1952.9C2497.12 1949.63 2495.88 1947.32 2494.95 1945.97L2504.42 1942.37C2505.17 1943.6 2507.02 1947.11 2510 1952.9L2518.26 1952.9C2520.98 1948.28 2522.93 1944.65 2524.11 1942Z" fill="#7F7F7F" fill-rule="evenodd"/></g></svg>