<svg width="1881" height="648" xmlns="http://www.w3.org/2000/svg" xmlns:xlink="http://www.w3.org/1999/xlink" xml:space="preserve" overflow="hidden"><defs><clipPath id="clip0"><rect x="1007" y="642" width="1881" height="648"/></clipPath><clipPath id="clip1"><rect x="1006" y="642" width="561" height="510"/></clipPath><clipPath id="clip2"><rect x="1006" y="642" width="561" height="510"/></clipPath><clipPath id="clip3"><rect x="1658" y="642" width="570" height="510"/></clipPath><clipPath id="clip4"><rect x="1658" y="642" width="570" height="510"/></clipPath><clipPath id="clip5"><rect x="2319" y="642" width="569" height="510"/></clipPath><clipPath id="clip6"><rect x="2319" y="642" width="569" height="510"/></clipPath><clipPath id="clip7"><rect x="2319" y="642" width="569" height="649"/></clipPath></defs><g clip-path="url(#clip0)" transform="translate(-1007 -642)"><g clip-path="url(#clip1)"><g clip-path="url(#clip2)"><g><g><path d="M0 0-516.877 0C-538.903 4.14437-537.982 25.863-522.633 52.7235L-278.738 479.042C-269.528 493.316-246.505 502.526-232.691 479.042L6.29302 61.7794C22.5627 36.2233 37.4514-0.613898 0 0" fill="#FFCC01" fill-rule="evenodd" transform="matrix(1.00163 0 0 -1 1541.97 1135.71)"/></g><g><path d="M0 0-230.235-399.074 230.235-399.074ZM255.868-439.902-261.01-439.902C-283.035-435.758-282.114-414.039-266.766-387.178L-22.8699 39.1399C-13.6606 53.4145 9.36279 62.6238 23.1769 39.1399L262.161-378.123C278.431-403.679 293.319-440.362 256.174-439.518Z" fill-rule="evenodd" transform="matrix(1.00163 0 0 -1 1285.68 695.81)"/></g><g><path d="M0 0 459.395 0 229.774 398.306ZM460.47-0.614177-0.920847-0.614177 229.774 399.611 229.774 399.15ZM231.233 452.181C221.413 451.571 212.481 446.292 207.211 437.983L-36.6841 11.6652C-46.968-6.29329-50.2679-21.1817-46.0471-30.391-43.1266-36.09-37.5268-39.9291-31.1584-40.5982L486.563-40.5982C494.345-41.7175 502.102-38.4016 506.67-32.0031 514.345-17.9585 498.996 9.51626 491.705 20.721L252.337 437.983C248.582 446.111 240.701 451.551 231.77 452.181ZM486.563-41.5191-31.2354-41.5191C-37.8228-40.8379-43.6088-36.8453-46.5843-30.9285-50.9586-21.5654-47.5819-6.44677-37.2215 11.6652L206.674 438.29C211.981 446.866 221.161 452.287 231.233 452.795L231.77 452.795C240.967 452.244 249.112 446.667 252.951 438.29L492.242 21.028C499.379 9.74647 515.266-17.9585 507.591-32.6934 502.826-39.3894 494.679-42.8085 486.563-41.5191" transform="matrix(1.00163 0 0 -1 1055.53 1094.81)"/></g><g><path d="M0 0 49.1169-19.1863 10.0537-38.2955 101.227-73.9053C124.864-88.2822 126.655-105.524 106.599-125.632L-20.7978-237.756-45.9701-206.444 69.1473-102.991-1.84197-78.1264 13.2002-121.948-36.6073-105.601-71.2192-34.4584Z" fill-rule="evenodd" transform="matrix(1.00163 0 0 -1 1275.07 846.537)"/></g><g><path d="M0 0 24.7887-30.698 151.878 81.1194C161.932 91.1728 166.46 100.689 165.462 109.208 164.464 117.727 157.788 125.401 146.583 132.231L54.4891 167.995 55.103 167.995 93.4755 186.797 45.126 205.753-25.556 171.448 9.13285 100.92 58.096 85.1103 43.361 128.855 43.9749 128.855 115.501 103.836ZM24.7119-31.6956 24.7119-31.6956-0.613898-0.153475 114.503 102.915 44.5888 127.396 59.3238 83.652 58.7099 83.652 8.90236 99.6918-25.7095 172.216 45.5097 206.751 95.3172 187.258 56.254 168.148 146.813 132.846C158.478 125.708 164.925 117.497 165.999 109.208 167.074 100.92 162.392 90.7891 152.262 80.5822Z" transform="matrix(1.00163 0 0 -1 1229.49 1053.06)"/></g><g><path d="M0 0 0 16.8071-2.22566 19.0328-23.1002 19.0328C-23.8075 18.7875-24.4231 18.3324-24.8654 17.7283-25.0836 17.4459-25.2639 17.1361-25.4026 16.8071L-25.4026 0C-25.4472-0.814811-24.9915-1.57465-24.2515-1.91843L-23.1002-1.91843-2.14892-1.91843C-1.44154-1.67315-0.825972-1.21803-0.383686-0.613898ZM-46.0471 49.2701-46.0471 61.3192C-46.3627 62.0079-46.836 62.6126-47.4284 63.0845L-48.3495 63.5452-56.0241 63.5452C-56.7169 63.2734-57.3261 62.8233-57.789 62.2404L-58.3262 61.3192-58.3262 50.1147C-58.3471 49.2249-57.9132 48.3858-57.1751 47.8888-56.8291 47.6201-56.4399 47.4125-56.0241 47.2749L-48.3495 47.2749C-47.5127 47.2197-46.7246 47.6742-46.3538 48.4263-46.2796 48.8063-46.2796 49.1973-46.3538 49.5773ZM-0.767373 61.0123-1.38127 63.2379-21.3352 63.2379C-22.0281 62.9662-22.6372 62.5161-23.1002 61.9331-23.284 61.6424-23.4384 61.334-23.5609 61.0123-21.8096 56.9979-19.539 53.2308-16.8071 49.8075-15.5777 48.2362-14.2447 46.7492-12.8165 45.3562-9.39599 48.3425-6.42361 51.806-3.9909 55.6401-2.87221 57.3747-1.84755 59.1678-0.921127 61.012ZM6.90691-3.29998 6.90691 19.7237C6.44677 20.7213 5.98607 21.7956 5.44863 22.7935 5.02197 23.8633 4.05647 24.624 2.9163 24.7887L0.0764582 25.8633-24.7887 25.8633-28.5493 24.3285C-29.7777 23.7925-30.686 22.7137-31.0049 21.4119L-32.156 18.0352-32.156-2.07219C-31.8596-3.19729-31.4213-4.28055-30.8515-5.29543-29.5199-7.47003-27.3056-8.95538-24.7887-9.36279L-0.997585-9.36279C0.150963-9.22131 1.28221-8.96403 2.37914-8.59541 4.68656-7.62601 6.37673-5.59233 6.90691-3.14623ZM12.586 30.7747C13.0278 29.1111 12.1767 27.3762 10.5906 26.7074 9.75094 26.5846 8.8979 26.5846 8.05825 26.7074 3.29998 28.5493-1.6885 30.7747-7.29088 33.3843L-13.8141 36.7608C-18.1912 33.6815-22.9026 31.1071-27.8584 29.0865-29.598 28.3188-31.9004 27.4747-34.7656 26.5539-36.4304 26.0935-38.1836 26.9052-38.9097 28.4726-39.0247 29.3128-39.0247 30.165-38.9097 31.0049L-18.0352 41.1354-27.6282 53.4912-34.4584 45.8169C-35.0748 45.4229-35.8006 45.2345-36.5306 45.2797-37.2583 45.2585-37.9771 45.4447-38.6028 45.8169-39.1784 46.185-39.5258 46.822-39.5236 47.5051L-39.5236 42.9773C-39.7072 41.929-40.3965 41.0385-41.3653 40.5982L-42.9003 40.5982-48.5794 40.5982-48.5794 26.6309-38.9094 26.6309C-38.067 26.8031-37.2003 26.4744-36.6841 25.7865-36.2167 25.0825-35.9758 24.2523-35.9934 23.4074-35.9764 22.5488-36.1885 21.7013-36.6073 20.9515-37.049 20.339-37.7715 19.9922-38.526 20.0304L-48.5797 20.0304-48.5797 1.61176-38.9097 5.52592C-37.7868 5.63112-36.6796 5.20502-35.9167 4.37458-35.4423 3.76431-35.2224 2.99443-35.3028 2.22594-35.2587 1.84309-35.2587 1.45717-35.3028 1.0746-35.2763 0.870619-35.2763 0.664405-35.3028 0.460424-41.3873-2.29068-47.6419-4.64888-54.0284-6.59997L-62.4703-9.05584C-63.2296-9.53691-64.0578-9.89939-64.9262-10.1302-65.7432-10.2052-66.5653-10.2052-67.3823-10.1302L-69.1473-10.1302C-69.3727-10.1963-69.6124-10.1963-69.8379-10.1302-70.2749-9.44064-70.5138-8.64425-70.5285-7.82776-70.4819-6.39515-69.7366-5.07638-68.5334-4.29757-67.2766-3.341-65.7382-2.82812-64.1588-2.83956L-64.1588 28.8563C-63.6839 29.9407-62.6522 30.6773-61.4727 30.7747-60.6917 30.7359-59.953 30.4078-59.4005 29.8539-59.0877 29.5497-58.8048 29.2151-58.5564 28.8563L-58.5564-1.38127-54.0284 0.307228-54.0284 40.5982-60.7818 40.5982C-62.2423 40.9066-63.5153 41.7925-64.3123 43.0541-64.7225 43.6772-65.0576 44.3472-65.3099 45.0493L-65.3099 65.2331C-64.9256 66.7419-63.9961 68.0543-62.7005 68.9173-62.09 69.2396-61.4468 69.4969-60.7818 69.6847L-44.3586 69.6847C-42.6542 69.7528-41.0441 68.9037-40.1375 67.4591-39.7421 66.7656-39.4572 66.0144-39.2934 65.2331L-39.2934 49.8845-38.6792 51.5728C-36.1212 53.8436-33.8529 56.4212-31.9258 59.247-29.9926 62.1223-28.2985 65.1511-26.8608 68.3032L-22.8699 70.5288 4.83501 70.5288C5.96542 70.3098 6.96077 69.6462 7.59783 68.6869L8.28846 67.2288C7.29618 60.6805 4.44658 54.5544 0.0767373 49.5773L-7.29088 41.1354 0.383686 36.6843C2.11711 35.5316 4.08159 34.7718 6.13954 34.4584 8.50584 34.0507 10.6676 32.862 12.2794 31.082ZM-89.7148-3.91388C-89.3523-2.80998-89.07-1.68152-88.8704-0.537161-88.7917 0.510373-88.7917 1.56209-88.8704 2.60963-88.753 4.58415-89.2633 6.54527-90.3287 8.21201-91.5135 9.89353-93.4967 10.8267-95.5474 10.6676L-152.492 10.6676C-152.616 11.1459-152.616 11.6476-152.492 12.1259-152.469 13.0239-152.204 13.8989-151.725 14.6585-151.329 15.3982-150.894 16.1154-150.42 16.8071L-97.2359 16.8071C-96.5087 16.9503-95.8089 17.2095-95.1637 17.5748-93.8151 18.3525-92.9068 19.7145-92.7079 21.2587L-92.7079 31.9261C-92.8717 32.7074-93.1568 33.4583-93.5522 34.1517-94.4586 35.5963-96.069 36.4455-97.7731 36.3774L-155.332 36.3774C-155.86 36.1109-156.35 35.7755-156.79 35.3798-157.586 34.419-157.897 33.1458-157.634 31.9261L-157.097 30.9285C-156.634 30.3456-156.025 29.8955-155.332 29.6239L-102.685 29.6239C-102.006 29.6923-101.349 29.3636-100.997 28.7798-100.565 28.2067-100.348 27.5007-100.382 26.7841-100.348 25.9964-100.564 25.2178-100.997 24.5587-101.326 23.9236-101.97 23.514-102.685 23.4841L-155.332 23.4841C-156.825 22.5898-157.88 21.1175-158.248 19.4168-159.169 16.5005-159.706 14.8887-159.86 14.582-160.013 14.2748-160.32 13.2005-160.781 11.3585-161.066 10.412-161.221 9.43087-161.241 8.44222-161.272 7.68936-161.086 6.94319-160.704 6.29357-160.233 5.63001-159.513 5.1866-158.709 5.0655L-155.869 4.52834-98.08 4.52834C-96.7613 4.11144-95.8421 2.91685-95.7776 1.5353-95.7773 0.43224-96.1267-0.642361-96.7755-1.53447-97.4357-2.47624-98.2689-3.2838-99.2311-3.9136L-104.22-5.29515C-107.969-6.17665-111.804-6.63987-115.655-6.67642L-124.25-6.67642-130.313-6.13926C-134.926-5.62749-139.511-4.88468-144.05-3.9136-145.364-3.9496-146.399-5.04373-146.363-6.3572-146.361-6.41245-146.358-6.46798-146.353-6.52295-146.333-7.45691-146.04-8.36436-145.508-9.1323-145.06-9.89409-144.305-10.4254-143.436-10.5903L-137.066-11.9719C-132.468-12.9039-127.791-13.3922-123.099-13.4301L-115.425-13.4301C-110.749-13.5819-106.075-13.0911-101.533-11.9719-96.8199-11.0175-92.6632-8.26475-89.945-4.29729ZM-144.05 57.4821C-143.944 56.8213-143.944 56.1477-144.05 55.4866-144.243 53.1594-145.313 50.9921-147.043 49.4238-148.749 47.787-150.292 45.988-151.648 44.0517-153.477 42.5607-155.126 40.8608-156.56 38.9865-157.895 37.0013-160.081 35.7526-162.469 35.6097-163.648 36.0791-164.454 37.183-164.541 38.4493-164.312 39.7513-163.697 40.9546-162.776 41.9027L-160.167 45.1263-155.102 50.7284C-153.413 52.5703-152.185 54.0284-151.341 55.0262-150.103 56.6285-148.283 57.6763-146.276 57.9425-145.614 57.9021-144.965 57.7461-144.357 57.4821ZM-85.7242 59.7077C-84.3273 59.782-83.2552 60.9743-83.3294 62.3712-83.3328 62.4301-83.3378 62.4887-83.3451 62.547-83.3495 63.3892-83.589 64.2129-84.0357 64.9264-84.4169 65.5897-85.0124 66.104-85.7242 66.3845L-120.259 66.3845-120.259 71.8334C-120.82 73.3854-122.382 74.3417-124.02 74.1358-124.726 74.1804-125.427 73.9918-126.015 73.5986-126.603 73.1962-126.971 72.5446-127.013 71.8334L-127.013 66.231-160.397 66.231C-161.968 65.7287-162.964 64.1859-162.776 62.547-162.821 61.8171-162.633 61.0915-162.239 60.4751-161.771 59.9357-161.109 59.6045-160.397 59.5543L-136.453 59.5543-136.453 40.5215C-136.453 39.0632-135.455 38.3726-133.613 38.3726-132.908 38.3388-132.21 38.5266-131.618 38.9097-131.083 39.2708-130.766 39.8763-130.773 40.5215L-130.773 59.631-117.19 59.631-117.19 40.5982C-117.243 39.8409-116.893 39.1115-116.269 38.6795-115.522 38.2534-114.672 38.0408-113.813 38.0656-112.943 38.0371-112.085 38.2782-111.357 38.7565-110.732 39.1522-110.378 39.861-110.436 40.5982L-110.436 59.631ZM-83.4985 38.9867C-83.2 38.0804-83.472 37.0834-84.1892 36.4541-84.9644 35.879-85.9106 35.5815-86.8753 35.6097-87.6574 35.622-88.4231 35.8335-89.1009 36.2236L-97.5429 43.8982C-100.312 46.6501-102.877 49.5999-105.217 52.7238-105.396 54.3144-104.483 55.8262-102.992 56.4078-102.228 56.5082-101.453 56.5082-100.689 56.4078-96.3589 52.5874-92.2346 48.5398-88.3335 44.2819-86.952 42.8239-85.2638 40.9052-83.1916 38.526ZM-215.73 64.1591-230.388 64.1591-232.691 63.6216C-234.751 61.0692-237.009 58.6825-239.444 56.4845L-242.898 53.5682-223.021 53.5682-217.419 59.0936-215.73 61.0893C-214.963 61.9077-214.579 62.5219-214.579 62.931-214.579 63.4682-214.579 63.8518-215.73 64.1591M-242.668 16.2703C-242.866 12.3712-243.941 8.56723-245.814 5.14224-247.692 1.69715-249.283-1.89639-250.572-5.6021-251.549-6.68145-252.955-7.2719-254.41-7.21386-255.232-7.24177-256.041-6.999-256.712-6.52323-257.302-5.97044-257.612-5.18102-257.556-4.3743-257.612-4.01824-257.612-3.65604-257.556-3.2997-255.187 0.87341-253.234 5.26892-251.723 9.82349-251.11 11.512-250.419 13.6609-249.651 16.2703-248.725 17.4861-247.264 18.1736-245.737 18.112-244.474 18.1761-243.306 17.4386-242.821 16.2703ZM-198.539 7.82832-200.688 7.82832-201.762 7.82832C-202.531 7.8632-203.296 7.7047-203.988 7.36762-204.543 6.99537-204.84 6.34213-204.755 5.6794-204.755 3.9909-205.293 2.22594-205.523 0.460424-205.955-1.29672-207.477-2.57084-209.284-2.68581L-211.586-3.76041-225.323-3.76041-226.858-2.99303C-227.94-2.17906-228.787-1.09358-229.314 0.153754L-229.314 16.8842C-229.571 17.6097-230.091 18.2124-230.772 18.5727-231.485 19.0194-232.309 19.2585-233.151 19.263-234.582 19.4374-235.883 18.4192-236.057 16.9885-236.061 16.9539-236.065 16.919-236.067 16.8842L-236.067-2.68581C-235.883-3.9429-235.494-5.16121-234.916-6.29302-233.576-8.73298-230.94-10.1709-228.163-9.97668L-208.9-9.97668C-205.556-10.0877-202.392-8.46231-200.534-5.67912-198.619-2.94197-197.649 0.345457-197.772 3.68395-197.642 4.9084-197.642 6.14317-197.772 7.36762ZM-209.284 4.52834C-208.835 2.96178-209.722 1.32463-211.279 0.84411-212.12 0.737794-212.971 0.737794-213.812 0.84411-215.92 4.41839-217.717 8.16736-219.184 12.0491-219.798 13.5072-220.412 15.3491-221.179 17.5745-220.798 18.6458-219.904 19.4536-218.8 19.7237L-217.188 19.7237C-215.468 18.3695-214.121 16.6001-213.274 14.5818L-209.284 4.68153ZM-178.586-6.13954C-179.539-6.84776-180.698-7.22503-181.886-7.21386-183.651-7.21386-185.339-5.90933-186.874-3.14623L-190.481 3.377-193.551 8.74917C-194.744 10.47-195.435 12.49-195.546 14.5818-195.373 15.4496-194.806 16.1877-194.011 16.5769-193.217 17.1049-192.279 17.373-191.325 17.3446-190.451 17.3686-189.582 17.1844-188.792 16.8071L-183.651 7.29088C-182.716 5.40398-181.611 3.60582-180.35 1.91871-179.087 0.222399-178.341-1.80319-178.202-3.9136-178.26-4.66619-178.389-5.41123-178.586-6.13954M-180.811 35.226-189.637 35.226-189.637 26.8611C-189.921 25.4723-190.716 24.2403-191.862 23.4074-192.408 23.0044-193.001 22.6693-193.628 22.4098L-245.661 22.4098C-246.408 22.6635-247.036 23.1822-247.426 23.8678-247.817 24.6009-248.027 25.4165-248.04 26.2472-248.211 27.6352-247.225 28.8995-245.837 29.0712-245.778 29.0784-245.719 29.0837-245.661 29.0865L-199.614 29.0865C-198.772 29.0089-197.972 29.4699-197.618 30.2376-197.554 30.5931-197.554 30.9569-197.618 31.3122L-197.618 35.226-255.944 35.226C-256.659 35.2559-257.303 35.6655-257.633 36.3006-258.088 36.9531-258.33 37.7308-258.323 38.526-258.32 39.2373-258.106 39.9316-257.709 40.5218-257.309 41.0921-256.64 41.4119-255.944 41.3659L-197.618 41.3659-197.618 44.7426C-197.89 45.4357-198.34 46.0449-198.923 46.5078L-199.92 46.9682-245.2 46.9682C-246.066 47.4323-246.764 48.1573-247.195 49.0401L-247.195 50.345C-248.687 48.9115-250.334 47.6502-252.107 46.5843L-254.563 45.3565C-255.504 45.0682-256.527 45.3023-257.249 45.9704-257.75 46.827-257.914 47.8391-257.709 48.8099-257.708 49.7978-257.471 50.7713-257.019 51.6495-253.482 53.4223-250.139 55.5572-247.042 58.0193-245.917 58.9404-244.535 60.1682-242.898 61.7032-241.657 62.787-240.478 63.94-239.368 65.1567-237.474 67.3455-235.215 69.1891-232.691 70.6053L-204.372 70.6053C-203.295 70.2777-202.476 69.3995-202.223 68.3032-202.177 67.7671-202.177 67.2277-202.223 66.6914-204.346 63.169-206.927 59.9433-209.897 57.0984-210.895 56.1008-212.2 54.796-213.812 53.338L-194.779 53.338C-193.104 53.4251-191.495 52.6781-190.481 51.3425-190.128 50.7365-189.846 50.0933-189.637 49.4238L-189.637 41.7493-180.581 41.7493C-179.926 41.7867-179.295 41.4998-178.892 40.9819-178.443 40.3884-178.225 39.6523-178.279 38.9097-178.244 38.0977-178.458 37.2943-178.892 36.6073-179.242 36.0023-179.882 35.6237-180.581 35.6097ZM-274.593-10.8208-337.755-10.8208C-338.455-10.8088-339.109-10.4678-339.52-9.89995-339.925-9.31395-340.14-8.61718-340.133-7.9045-340.3-6.25283-339.318-4.70079-337.755-4.14409L-310.05-4.14409-310.05 28.8563-327.547 28.8563C-330.464 25.4796-333.533 22.0261-336.91 18.5727L-346.81 8.13499C-347.466 7.76805-348.208 7.58276-348.959 7.59811-350.044 7.561-351.107 7.9151-351.952 8.59569-352.745 9.15825-353.206 10.0794-353.18 11.0513-353.235 11.382-353.235 11.7188-353.18 12.0491-346.756 17.3588-340.985 23.4127-335.989 30.0844-332.201 35.1373-328.765 40.4453-325.705 45.9704-324.478 48.2728-323.25 50.5749-322.099 52.8773L-349.036 52.8773C-349.808 52.8405-350.541 53.2216-350.955 53.8749-351.375 54.676-351.51 55.5963-351.338 56.4845-351.355 57.3431-351.143 58.1906-350.724 58.9404-350.258 59.5654-349.507 59.912-348.729 59.8612L-320.64 59.8612-319.489 64.8494-318.338 69.3775C-318.275 70.0821-317.912 70.7255-317.34 71.1427-316.737 71.5007-316.047 71.6866-315.345 71.6799-313.707 71.8858-312.146 70.9298-311.584 69.3775L-313.273 59.8612-274.9 59.8612C-274.173 59.6963-273.555 59.2189-273.212 58.5567-272.722 57.8594-272.454 57.0298-272.444 56.1773-272.439 55.3463-272.709 54.5365-273.212 53.8752-273.806 53.2565-274.667 52.9694-275.514 53.1075L-315.652 53.1075C-317.545 48.9123-319.54 44.9215-321.638 41.1354-322.405 39.6771-323.403 37.9121-324.708 35.7635L-279.428 35.7635C-278.703 35.5062-278.1 34.9858-277.74 34.3052-277.358 33.5964-277.147 32.8078-277.126 32.0031-276.948 30.573-277.963 29.2693-279.392 29.0907-279.404 29.0893-279.416 29.0879-279.428 29.0865L-303.219 29.0865-303.219-3.9136-274.593-3.9136C-273.882-4.1946-273.286-4.7086-272.905-5.37189-272.458-6.08541-272.219-6.90943-272.214-7.75102-272.043-9.13927-273.029-10.4036-274.417-10.575-274.476-10.5825-274.534-10.5875-274.593-10.5906ZM-392.55 15.4259-392.55 37.7587-394.239 40.0611-418.49 40.0611C-419.183 39.7895-419.792 39.3394-420.255 38.7565-420.453 38.4462-420.608 38.1105-420.716 37.7587L-420.716 15.4259C-420.47 14.7185-420.015 14.1029-419.411 13.6609-419.139 13.446-418.825 13.2892-418.49 13.2005L-394.162 13.2005-393.011 14.2748-392.474 15.4259ZM-385.72 9.82349-385.72 43.9752C-385.906 44.4808-386.137 44.9689-386.411 45.4332-387.048 46.3926-388.043 47.0561-389.174 47.2752L-424.707 47.2752C-425.163 47.0687-425.578 46.7827-425.934 46.4311-426.725 45.8102-427.291 44.9477-427.546 43.9752L-427.546 9.82349-427.009 8.51868C-426.39 7.67903-425.607 6.97389-424.707 6.44705L-388.483 6.44705-387.255 7.29116C-386.526 7.99658-385.974 8.86441-385.643 9.82349ZM-370.371-2.99303C-370.987-5.73437-372.747-8.08086-375.206-9.43952-376.346-10.1067-377.592-10.5738-378.89-10.8208L-382.036-10.8208-387.715-10.2839C-389.512-9.73336-391.279-9.09295-393.011-8.3652-395.16-7.21386-396.311-5.83231-396.311-4.22083-396.285-3.4063-396.047-2.6127-395.62-1.91843-394.832-1.63185-394.003-1.47643-393.164-1.45801-391.146-1.76189-389.166-2.27645-387.255-2.99303-386.137-3.45234-384.932-3.6619-383.725-3.60693L-380.348-3.60693C-379.362-3.33347-378.48-2.77259-377.815-1.99517-377.446-1.6539-377.158-1.23421-376.971-0.767094L-376.971 53.4912C-377.257 54.1762-377.705 54.7818-378.276 55.2567L-379.197 55.7171-433.762 55.7171C-434.599 55.7724-435.387 55.3178-435.758 54.5658-435.823 54.2106-435.823 53.8467-435.758 53.4912L-435.758-10.2839C-436.472-11.4417-437.701-12.1848-439.058-12.2791-440.156-12.2129-441.193-11.7489-441.974-10.9743L-442.511-10.2839-442.511 59.631C-441.919 60.5058-441.194 61.2827-440.362 61.9334L-439.672 62.3938-414.806 62.3938-411.353 68.5337C-410.355 70.0684-409.511 71.1427-408.974 71.9101-408.117 73.1535-406.632 73.807-405.137 73.5986-403.879 72.9652-403.058 71.705-402.988 70.2986-403.107 68.9447-403.584 67.6471-404.369 66.5379L-406.825 62.3938-373.441 62.3938C-372.455 62.1207-371.573 61.5592-370.908 60.7821-370.579 60.4361-370.295 60.049-370.064 59.631L-370.064-2.99303Z" fill-rule="evenodd" transform="matrix(1.00163 0 0 -1 1501.84 1277.23)"/></g></g></g></g><g clip-path="url(#clip3)"><g clip-path="url(#clip4)"><g><g><path d="M0 0-525.478 0C-547.87 4.21333-546.934 26.2933-531.33 53.6008L-283.376 487.013C-274.013 501.525-250.607 510.888-236.563 487.013L6.39773 62.8074C22.9382 36.7481 38.0746-0.468085 0 0" fill="#FFCC01" fill-rule="evenodd" transform="matrix(1.00101 0 0 -1 2202.56 1143.92)"/></g><g><path d="M0 0-234.066-405.714 234.066-405.714ZM260.125-447.144-265.353-447.144C-287.745-442.93-286.809-420.851-271.205-393.543L-23.2505 39.8692C-13.8879 54.3813 9.51858 63.7438 23.5626 39.8692L266.523-384.336C283.064-410.395 298.2-447.612 260.437-446.754Z" fill-rule="evenodd" transform="matrix(1.00101 0 0 -1 1942.17 696.773)"/></g><g><path d="M0 0 467.039 0 233.598 404.934ZM468.132-0.624114-0.93617-0.624114 233.598 406.182 233.598 405.714ZM235.08 459.706C225.059 459.145 215.942 453.727 210.659 445.193L-37.2945 11.8596C-47.7495-6.39773-51.1044-21.2218-46.8133-30.8965-43.8443-36.6899-38.1512-40.5932-31.6769-41.2735L494.659-41.2735C505.036-41.2735 511.902-38.3867 515.101-32.535 522.903-18.2567 507.299 9.67489 499.887 20.9878L256.536 445.272C252.719 453.535 244.706 459.066 235.626 459.706ZM494.659-41.8976-31.7552-41.8976C-38.4522-41.2048-44.3345-37.1461-47.3594-31.1305-51.8065-21.6122-48.3736-6.2417-37.8409 12.1713L210.113 445.584C215.508 454.302 224.841 459.814 235.08 460.33L235.626 460.33C244.965 459.736 253.23 454.076 257.16 445.584L500.433 21.3779C507.689 9.90894 523.839-18.335 516.037-32.8471 511.212-39.684 502.927-43.1915 494.659-41.8976" transform="matrix(1.00101 0 0 -1 1708.33 1102.33)"/></g><g><path d="M0 0 36.7484 27.6196 137.241-89.4133C143.118-107.046 136.174-116.253 116.409-117.033L-0.624114-117.033 46.1889-181.713 10.1427-209.333-89.5691-94.0945C-94.7705-73.2888-86.9685-63.2757-66.1626-64.0562L51.8065-63.6661Z" fill-rule="evenodd" transform="matrix(1.00101 0 0 -1 1923.66 869.045)"/></g><g><path d="M0 0 99.7121-115.082 135.212-87.7745 87.9308-22.8604 88.5549-22.8604 205.588-22.8604C213.126-23.5521 220.551-20.6627 225.639-15.0582 228.824-9.03943 228.997-1.87433 226.108 4.29106L126.005 121.168 89.7251 93.8604 141.61 29.9603 140.83 29.9603 22.8604 29.5702 21.3779 29.5702C14.2536 30.3787 7.15149 27.8774 2.10667 22.7824-2.07007 15.9191-2.84738 7.51291 0 0M99.634-115.94 99.634-115.94-0.624114-0.234043C-3.51007 7.50099-2.67546 16.1336 1.6383 23.1725 6.82298 28.3699 14.076 30.9501 21.3779 30.1946L22.9384 30.1946 139.971 30.1946 88.6329 93.5484 126.005 122.026 226.498 4.99347C229.524-1.36794 229.321-8.79348 225.951-14.9801 220.697-20.6301 213.113-23.5138 205.432-22.7824L88.867-22.7824 135.68-87.2284Z" transform="matrix(1.00101 0 0 -1 1834.31 962.984)"/></g><g><path d="M0 0 0 17.0868-2.26298 19.3495-23.4848 19.3495C-24.2037 19.1001-24.8298 18.6374-25.2792 18.0233-25.501 17.7362-25.6845 17.4213-25.8255 17.0868L-25.8255 0C-25.8706-0.828369-25.4074-1.60085-24.655-1.95035L-23.4848-1.95035-2.18468-1.95035C-1.48-1.67433-0.860993-1.21674-0.390071-0.624114-0.198298-0.303546-0.0414184 0.0363121 0.0777305 0.390355ZM-46.8133 50.0899-46.8133 62.4176C-47.1143 63.1296-47.5992 63.7489-48.2179 64.2125-48.5126 64.4009-48.8264 64.5574-49.154 64.6803L-56.9563 64.6803C-57.6752 64.4309-58.3013 63.9682-58.7506 63.354L-59.2967 62.4176-59.2967 51.0264C-59.318 50.1223-58.8769 49.2692-58.1265 48.764-57.7855 48.4911-57.3841 48.3038-56.9563 48.2179L-49.154 48.2179C-48.3163 48.1254-47.5092 48.56-47.1254 49.3098-47.0496 49.6965-47.0496 50.0939-47.1254 50.4803ZM-0.780426 62.0275-1.40454 64.2902-21.7682 64.2902C-22.4874 64.0406-23.1135 63.5779-23.5628 62.9637L-24.0309 62.0275C-22.2329 57.9555-19.9257 54.1279-17.1651 50.6363-15.9152 49.0389-14.5597 47.5271-13.1078 46.1109-9.61191 49.158-6.58809 52.7081-4.13532 56.644-2.97901 58.3688-1.93645 60.1671-1.01447 62.0275ZM7.02184-3.35489 7.02184 20.0519 5.53929 23.1728C5.07121 24.2204 4.09986 24.9563 2.96454 25.1234L0.0777305 26.2936-25.2011 26.2936-29.0244 24.655C-30.2735 24.1101-31.1966 23.0139-31.5209 21.6902L-32.6913 18.3353-32.6913-2.1844C-32.3606-3.31858-31.9163-4.41645-31.3651-5.46128-30.0264-7.67319-27.762-9.1634-25.2011-9.51858L-1.01447-9.51858C0.155177-9.43206 1.30894-9.19603 2.41844-8.81617 4.76454-7.83092 6.48255-5.7634 7.02184-3.27688ZM12.7955 31.2868C13.2443 29.5955 12.379 27.8318 10.7668 27.1518 9.91319 27.027 9.04596 27.027 8.19206 27.1518 3.35461 29.0244-1.7166 31.2868-7.4122 33.9399L-14.0443 37.3725C-18.5123 34.2718-23.299 31.6559-28.3223 29.5705-30.1166 28.7901-32.4573 27.9319-35.2661 26.9957-36.9801 26.5189-38.7895 27.341-39.5572 28.9461-39.674 29.8006-39.674 30.667-39.5572 31.5209L-18.3353 41.7418-28.0882 54.4596-34.954 46.6573C-35.6145 46.2689-36.3731 46.0792-37.1384 46.1112-37.8908 46.0769-38.6329 46.2967-39.2451 46.7353-39.8295 47.0729-40.1872 47.699-40.1816 48.3739L-40.1816 44.3166C-40.3438 43.2213-41.0479 42.2826-42.0539 41.8199L-43.6142 41.8199-49.3881 41.8199-49.3881 27.6199-39.5572 27.6199C-38.7955 27.6454-38.0794 27.2576-37.6848 26.6057-37.2 25.8942-36.9543 25.0474-36.9824 24.187-36.9555 23.3379-37.1719 22.4984-37.6065 21.7682-38.0559 21.1455-38.7904 20.7929-39.5572 20.8321L-49.3881 20.8321-49.3881 2.02865-39.5572 6.00794C-38.4159 6.11489-37.2899 5.6817-36.5143 4.83773-36.0289 4.24936-35.8037 3.48879-35.8902 2.73106-35.8434 2.31603-35.8434 1.89731-35.8902 1.48284-35.8718 1.27489-35.8718 1.0661-35.8902 0.858156-42.0899-1.90496-48.4465-4.30156-54.9277-6.31943L-63.5101-8.73844C-64.2477-9.28879-65.1016-9.6627-66.0068-9.83035-66.8352-9.94298-67.6752-9.94298-68.5035-9.83035L-70.2979-9.83035C-70.5262-9.90241-70.7716-9.90241-71-9.83035-71.4244-9.12057-71.6655-8.31603-71.7024-7.48993-71.655-6.03348-70.897-4.69277-69.6738-3.90099-68.3963-2.92823-66.8321-2.40681-65.2264-2.41844L-65.2264 29.9606C-64.7521 31.0823-63.7067 31.859-62.4959 31.9892-61.2621 31.7694-60.1827 31.0306-59.5311 29.9606L-59.5311-0.702128-54.9277 0.936454-54.9277 41.3518-61.8718 41.3518C-63.356 41.6652-64.6505 42.5657-65.4604 43.8485-65.8777 44.4823-66.2182 45.1631-66.4749 45.8772L-66.4749 66.3969C-66.0774 67.9271-65.1339 69.2593-63.8221 70.1418-63.217 70.5027-62.5589 70.766-61.8718 70.9223L-45.1748 70.9223C-43.4423 70.9915-41.8051 70.1282-40.8837 68.6593-40.4814 67.9546-40.1921 67.1912-40.0255 66.3969L-40.0255 50.7923-39.4014 52.5089C-36.7869 54.804-34.4791 57.4264-32.5353 60.3112-30.5532 63.2235-28.8301 66.3044-27.3858 69.5177L-23.3285 71.7801 4.83745 71.7801C5.98298 71.5007 6.98383 70.8057 7.64596 69.8298L8.34837 68.3475C7.33957 61.6902 4.44227 55.4621 0 50.4023L-7.25617 41.8979 0.546099 37.3725C2.32312 36.2301 4.31404 35.4601 6.39773 35.1101 8.81362 34.7254 11.0207 33.5115 12.6394 31.6769ZM-91.2079-3.97901C-90.8482-2.85447-90.5614-1.7078-90.3495-0.546099-90.2692 0.518865-90.2692 1.58809-90.3495 2.65305-90.2187 4.66156-90.7387 6.65872-91.8321 8.34865-93.0363 10.0582-95.0525 11.0068-97.1373 10.8451L-155.03 10.8451C-155.278 11.3004-155.412 11.8094-155.42 12.3277-155.396 13.2406-155.127 14.1302-154.639 14.9024-154.256 15.6644-153.812 16.3949-153.313 17.0868L-99.244 17.0868C-98.5152 17.2684-97.8085 17.5299-97.1373 17.8672-95.7665 18.6579-94.8431 20.0426-94.6406 21.6125L-94.6406 32.4573C-94.7966 33.2548-95.0871 34.0199-95.499 34.72-96.4207 36.1887-98.0576 37.0519-99.7904 36.9827L-157.917 36.9827C-158.445 36.7365-158.921 36.3923-159.321 35.9682-160.18 35.0173-160.529 33.7101-160.257 32.4573-160.116 32.1231-159.933 31.8085-159.711 31.5211-159.262 30.9069-158.635 30.4443-157.917 30.1949L-104.393 30.1949C-103.691 30.2301-103.028 29.8681-102.677 29.2584-102.239 28.676-102.017 27.9583-102.053 27.2298-102.029 26.4301-102.246 25.6417-102.677 24.9674-103.02 24.3401-103.679 23.9512-104.393 23.9532L-157.917 23.9532C-159.439 23.0122-160.51 21.4899-160.881 19.7399-161.818 16.775-162.364 15.1365-162.52 14.8244L-163.456 11.6252C-163.741 10.6352-163.898 9.61277-163.924 8.5827-163.97 7.80482-163.75 7.03433-163.3 6.39801-162.867 5.71319-162.153 5.25589-161.35 5.1495L-158.463 4.60369-99.7904 4.60369C-98.4207 4.22213-97.4667 2.98241-97.4497 1.56057-97.4494 0.439433-97.8045-0.653333-98.4638-1.56028-99.135-2.51773-99.9821-3.33872-100.961-3.97872L-106.032-5.38326C-109.843-6.27972-113.742-6.75064-117.657-6.7878L-126.24-6.7878-132.481-6.24142C-137.397-5.61731-142.078-4.91518-146.447-3.97872-147.783-4.0156-148.835-5.12794-148.799-6.46326-148.797-6.51943-148.793-6.5756-148.788-6.63149-148.769-7.58099-148.47-8.50355-147.93-9.28454-147.447-10.0332-146.691-10.5648-145.823-10.7668L-139.347-12.1711C-134.665-13.0573-129.913-13.5274-125.148-13.5756L-117.345-13.5756C-112.597-13.7095-107.852-13.2377-103.223-12.1711-98.4437-11.1708-94.2281-8.37901-91.442-4.36879ZM-146.447 58.4386C-146.34 57.7668-146.34 57.082-146.447 56.4099-146.643 54.044-147.731 51.8406-149.49 50.2462-151.245 48.6011-152.814 46.7699-154.172 44.7847-156.031 43.2689-157.707 41.5407-159.165 39.6352-160.54 37.6465-162.759 36.4074-165.172 36.2803-166.372 36.7132-167.199 37.8167-167.279 39.0891-167.046 40.4128-166.421 41.636-165.485 42.6L-162.832 45.8772-157.683 51.5725-153.859 55.9418C-152.601 57.5708-150.75 58.636-148.71 58.9067-148.037 58.8655-147.377 58.707-146.759 58.4386ZM-87.1506 60.7013C-85.6905 60.8199-84.6028 62.0996-84.7214 63.56-84.724 63.5955-84.7277 63.6306-84.7322 63.6661-84.747 64.4959-84.9898 65.3055-85.434 66.0068-85.8 66.6984-86.4128 67.2278-87.1506 67.4891L-122.261 67.4891-122.261 73.185C-122.827 74.7745-124.405 75.7731-126.084 75.6034-126.81 75.6261-127.524 75.4065-128.112 74.9793-128.71 74.5699-129.084 73.9075-129.127 73.1847L-129.127 67.7234-163.3 67.7234C-164.897 67.2125-165.91 65.644-165.719 63.9779-165.764 63.2601-165.572 62.5472-165.172 61.9495-164.711 61.3719-164.036 61.006-163.3 60.9353L-139.191 60.9353-139.191 41.5858C-139.191 40.1816-138.177 39.4014-136.305 39.4014-135.58 39.3949-134.871 39.6131-134.276 40.0255-133.721 40.345-133.39 40.9464-133.418 41.5858L-133.418 60.7013-119.608 60.7013-119.608 41.3518C-119.647 40.585-119.294 39.8505-118.671 39.4014-117.913 38.9677-117.049 38.7521-116.175 38.7767-115.29 38.7481-114.418 38.9932-113.678 39.4791-113.079 39.9126-112.729 40.6119-112.742 41.3518L-112.742 60.7013ZM-84.8879 39.6355C-84.5975 38.7376-84.8743 37.7532-85.5904 37.1387-86.3626 36.5237-87.3356 36.2179-88.3209 36.2806-89.1095 36.2655-89.8885 36.4536-90.5838 36.8264L-99.1662 44.6287C-101.981 47.4264-104.589 50.4252-106.968 53.6011-107.15 55.2182-106.222 56.7552-104.706 57.3464-103.929 57.4485-103.142 57.4485-102.365 57.3464-98.4638 53.9912-94.5628 49.5444-89.8034 45.097L-84.5759 39.1671ZM-207.304 15.7609-207.304 38.543-209.021 40.8057-233.52 40.8057C-234.239 40.5563-234.865 40.0933-235.314 39.4791-235.501 39.1835-235.658 38.8701-235.782 38.543L-235.782 15.7609C-235.513 15.0522-235.054 14.4315-234.456 13.966L-233.52 13.1078-208.787 13.1078-207.617 14.278-207.07 15.3705ZM-200.361 10.065-200.361 44.7847C-200.549 45.2993-200.784 45.7955-201.063 46.2672-201.725 47.2428-202.726 47.9379-203.871 48.2179L-239.996 48.2179-241.244 47.3594C-242.034 46.6834-242.605 45.7867-242.883 44.7847L-242.883 10.065-242.336 8.73872C-241.732 7.88312-240.929 7.18695-239.996 6.71007L-203.169 6.71007C-202.706 6.92-202.283 7.2105-201.921 7.56823-201.168 8.24454-200.603 9.10525-200.283 10.065ZM-184.756-2.96454C-185.382-5.75149-187.171-8.13759-189.671-9.51858-190.831-10.1966-192.097-10.6715-193.416-10.9228L-196.85-10.9228-202.311-10.2987C-204.143-9.72624-205.94-9.04879-207.695-8.27007-209.879-7.17787-211.05-5.77362-211.05-4.13504-211.035-3.30496-210.792-2.49532-210.347-1.79433-209.546-1.50298-208.703-1.34468-207.85-1.32624-205.791-1.59348-203.772-2.11801-201.843-2.88681-200.706-3.35376-199.481-3.56681-198.254-3.51092L-194.821-3.51092C-193.846-3.17475-192.964-2.61362-192.246-1.87262-191.889-1.51035-191.598-1.08766-191.388-0.62383L-191.388 54.4596C-191.657 55.1679-192.116 55.7887-192.714 56.2542L-193.65 56.722-249.124 56.722C-249.975 56.7784-250.776 56.3166-251.153 55.5518-251.219 55.1906-251.219 54.8207-251.153 54.4596L-251.153-10.2987C-251.887-11.4559-253.139-12.1835-254.508-12.2494-255.633-12.2213-256.701-11.7435-257.473-10.9228L-258.019-10.2987-258.019 60.7013C-257.417 61.5904-256.68 62.3804-255.834 63.042L-255.132 63.5101-229.853 63.5101-226.342 69.8298-223.923 73.185C-223.052 74.4488-221.542 75.1129-220.022 74.901-218.755 74.2837-217.92 73.0312-217.837 71.6244-217.945 70.221-218.43 68.8729-219.242 67.7234-220.178 66.1628-221.036 64.8363-221.738 63.5101L-187.799 63.5101C-186.815 63.2338-185.925 62.6942-185.224 61.9495-184.91 61.5538-184.623 61.1365-184.366 60.7013L-184.366-2.96454ZM-294.455 41.3518C-294.161 42.162-294.412 43.0692-295.079 43.6145-295.313 43.9064-295.605 44.1455-295.938 44.3166L-332.452 44.3166C-330.638 38.7574-328.008 33.4987-324.65 28.7123-321.989 25.0295-318.984 21.6068-315.677 18.4913-314.434 17.0877-312.987 15.878-311.386 14.9024-306.635 18.4088-302.674 22.8746-299.761 28.0099-298.517 30.3955-297.397 32.8431-296.406 35.3441L-294.689 41.5861ZM-276.666-2.96454C-275.981-3.44709-275.573-4.23319-275.574-5.07121-275.626-5.91745-276.02-6.70638-276.666-7.25589-277.272-7.90383-278.12-8.27121-279.007-8.27007L-280.099-8.27007C-285.434-6.82411-290.65-4.97191-295.703-2.7305-299.214-1.17021-302.959 0.702411-306.86 2.80879L-311.308 5.38383C-315.022 2.43631-318.99-0.174752-323.167-2.41844-326.503-4.23064-329.942-5.84567-333.466-7.25589L-337.757-8.97248C-338.657-9.29929-339.609-9.45816-340.566-9.44028-341.638-9.44908-342.7-9.2366-343.687-8.81617-344.482-8.4627-344.978-7.65674-344.935-6.7878-344.99-6.37333-344.99-5.95348-344.935-5.53929-343.219-4.52511-338.459-2.1844-330.501 1.40454-325.677 3.44312-321.221 6.26355-317.315 9.75291-321.903 13.2559-325.929 17.4394-329.253 22.1583-331.862 25.8752-334.084 29.8491-335.885 34.0179-336.587 35.8122-337.289 37.5288-337.835 39.0891L-339.084 42.444C-339.262 43.4627-340.232 44.1438-341.251 43.9657-341.31 43.9552-341.367 43.9421-341.424 43.9265L-341.424 33.6278C-342.985 21.7682-343.921 14.8244-344.311 12.7957-345.556 5.66071-348.209-1.15518-352.113-7.2556-352.936-8.3983-354.3-9.02156-355.702-8.89447-356.538-8.92255-357.361-8.67603-358.043-8.19206-358.69-7.72794-359.046-6.95716-358.979-6.16369-355.941-0.826099-353.632 4.89447-352.113 10.8451-350.887 15.3421-350.052 19.9365-349.616 24.5773-349.616 26.4496-349.616 28.3223-349.226 30.2729L-349.226 67.7234-347.51 70.5319-345.169 71.7024-284.156 71.7024C-283.464 71.4037-282.85 70.9498-282.362 70.3759-282.175 70.0803-282.018 69.7668-281.893 69.4397L-281.893 66.0068C-282.109 65.3299-282.587 64.7679-283.22 64.4462L-284.156 64.4462-339.318 64.4462-341.034 62.1835-341.034 50.7923-291.022 50.7923C-289.491 50.8721-288.033 50.1285-287.199 48.842-286.839 48.2082-286.577 47.5245-286.419 46.8133L-286.419 42.2879C-287.319 36.3365-289.359 30.6145-292.426 25.4352-294.748 21.4809-297.495 17.7921-300.619 14.434-301.834 12.9206-303.252 11.5816-304.832 10.455-304.166 9.61362-303.377 8.87688-302.491 8.27036L-299.683 6.47574-276.666-3.19887Z" fill-rule="evenodd" transform="matrix(1.00101 0 0 -1 2116.1 1277.1)"/></g></g></g></g><g clip-path="url(#clip5)"><g clip-path="url(#clip6)"><g clip-path="url(#clip7)"><g><path d="M0 0-524.929 0C-547.298 4.20893-546.363 26.2662-530.775 53.5452L-283.08 486.427C-273.727 501.001-250.345 510.354-236.316 486.427L6.39105 62.7421C22.9142 36.71 38.0349-0.467313 0 0" fill="#FFCC01" fill-rule="evenodd" transform="matrix(1.002 0 0 -1 2863.54 1143.39)"/></g><g><path d="M0 0-233.822-405.29 233.821-405.29ZM259.853-446.677-265.076-446.677C-287.445-442.468-286.509-420.411-270.921-393.132L-23.2262 39.7497C-13.8734 54.3245 9.50864 63.6773 23.5379 39.7497L266.245-383.935C282.768-409.967 297.888-447.145 260.165-446.287Z" fill-rule="evenodd" transform="matrix(1.002 0 0 -1 2603.17 696.713)"/></g><g><path d="M0 0 466.552 0 233.354 404.511ZM467.643-0.623462-0.935193-0.623462 233.354 405.758 233.354 405.29ZM234.835 459.225C224.824 458.665 215.717 453.254 210.439 444.729L-37.2555 11.8472C-47.6996-6.23518-51.051-21.8234-46.7645-30.8645-43.7985-36.6519-38.1114-40.5508-31.6438-41.2304L493.208-41.2304C503.885-41.2304 510.978-38.4248 514.251-32.5793 522.045-18.3162 506.457 9.66479 499.053 20.9659L256.268 444.729C252.477 453.013 244.468 458.571 235.38 459.226ZM494.142-41.8538-31.722-41.8538C-38.412-41.1618-44.2882-37.1073-47.31-31.0983-51.7524-21.6676-48.3231-6.23518-37.8013 12.1586L209.894 445.04C215.265 453.779 224.591 459.316 234.835 459.849L235.38 459.849C244.727 459.241 252.987 453.554 256.892 445.04L499.91 21.3556C507.159 9.89859 523.292-18.3162 515.498-33.2025 510.583-39.8857 502.324-43.2317 494.142-41.8538" transform="matrix(1.002 0 0 -1 2369.35 1101.85)"/></g><g><path d="M0 0-82.6169-51.129C-87.1169-54.8734-87.7293-61.5569-83.9848-66.0569-83.3223-66.8535-82.5461-67.5487-81.6817-68.12L-55.8052-84.4094-79.811-101.79C-88.2805-107.246-88.7481-112.702-81.2138-118.158L-54.2466-136.396-84.4873-156.582-63.3655-194.461 17.2248-146.84C26.1879-139.046 28.9159-131.953 18.0042-125.328L-4.67625-110.286 18.7058-92.0476C26.0321-88.2286 26.5-82.6169 19.3293-75.0569L-4.67625-58.0658 24.3176-39.8276Z" fill-rule="evenodd" transform="matrix(1.002 0 0 -1 2633.94 877.691)"/></g><g><path d="M0 0 20.8882-37.4114 101.167 10.0545C106.623 14.7307 108.961 18.7838 108.961 22.4469 108.961 26.11 106.389 28.3703 102.024 31.0983L79.4214 46.2966 102.803 64.5348C105.482 65.5403 107.513 67.774 108.259 70.5362 108.336 74.5966 106.557 78.47 103.427 81.058L78.6418 98.2831 107.792 116.599 83.7862 155.569 1.48101 105.531C-2.89116 101.902-3.49337 95.416 0.135745 91.0441 0.79038 90.2557 1.55894 89.5694 2.4162 89.0082L28.6041 72.4845 4.20893 54.5586C-0.155865 51.8306-2.4162 49.0245-2.49413 46.7645-2.57206 44.5041-0.779327 41.6983 2.80586 38.9703L30.0851 20.4206 29.6955 20.4206ZM20.5762-38.2687 20.5762-38.2687-0.85726 0.155865 28.9938 20.1086 2.49413 38.1128C-1.24692 40.7628-3.11759 43.491-3.03966 45.9069-2.96173 48.3231-0.623462 51.7524 3.89692 54.6362L27.2793 72.0169 1.79274 87.6052C-3.21735 90.9543-4.56374 97.7308-1.21433 102.741-0.489984 103.825 0.423104 104.77 1.48101 105.531L84.3317 156.582 108.805 116.443 80.1228 98.5169 104.051 82.1493C107.335 79.4228 109.2 75.3496 109.117 71.0817 108.387 68.1452 106.26 65.7551 103.427 64.6904L80.0451 46.6862 102.18 31.8776C106.779 29.0717 109.195 26.1103 109.428 22.7589 109.662 19.4072 107.09 14.9648 101.634 9.89859Z" transform="matrix(1.002 0 0 -1 2549.67 1034.35)"/></g><g><path d="M0 0 0 17.0687-2.26033 19.3293-23.8497 19.3293C-24.565 19.0337-25.2043 18.5809-25.7204 18.0042-25.8439 17.6774-26.0006 17.364-26.1879 17.0687L-26.1879 0C-26.2441-0.849892-25.7827-1.64991-25.0187-2.02653L-23.8497-2.02653-2.57178-2.02653C-1.86415-1.75731-1.24409-1.29907-0.779327-0.701678-0.592855-0.518607-0.435006-0.30833-0.311731-0.0779327ZM-47.1541 49.9597-47.1541 61.8069C-47.4032 62.5253-47.8654 63.1504-48.479 63.5993-48.7556 63.8175-49.0738 63.9768-49.4142 64.0669L-57.2083 64.0669C-57.9528 63.8275-58.6057 63.365-59.079 62.7421L-59.5466 61.8069-59.5466 50.5055C-59.5658 49.5811-59.1285 48.7063-58.3773 48.1672L-57.2083 47.6217-49.4142 47.6217C-48.5643 47.5653-47.7645 48.027-47.3879 48.7907-47.3267 49.1517-47.3267 49.5207-47.3879 49.882ZM-1.16899 61.8845-1.7148 64.1451-22.1349 64.1451C-22.8691 63.9267-23.5037 63.4579-23.9279 62.82-24.1492 62.5329-24.3326 62.2187-24.4731 61.8845-22.6654 57.83-20.3334 54.0306-17.5366 50.5832-16.3219 48.9585-14.9937 47.4219-13.5614 45.9848-10.059 49.0407-7.01423 52.5842-4.52038 56.5069-3.6634 57.91-2.57206 59.7024-1.48101 61.8848ZM6.62485-3.42961 6.62485 19.9528 5.14384 23.0704C4.68532 24.1379 3.71725 24.9008 2.57206 25.0969L-0.312014 26.1879-25.5645 26.1879C-26.8318 25.5925-28.1329 25.0719-29.4614 24.629-30.6721 24.0566-31.5596 22.9683-31.8776 21.6676L-33.0466 18.238-33.0466-2.1824C-32.7635-3.35592-32.3177-4.48382-31.722-5.53379-30.3385-7.69805-28.0994-9.17169-25.5645-9.58657L-1.48101-9.58657C-0.287926-9.45055 0.887866-9.18926 2.02625-8.80725 4.35063-7.83833 6.06345-5.80613 6.62485-3.35139ZM12.3145 31.2541C12.8467 29.5371 11.9625 27.7001 10.2883 27.0455 9.44913 26.8154 8.58564 26.6844 7.71619 26.6555 2.96173 28.6041-2.10447 30.8642-7.48211 33.5145L-14.1072 36.9435C-18.5531 33.8168-23.3379 31.2026-28.3703 29.1494L-35.3849 26.5776C-37.0957 26.1211-38.8839 26.982-39.5938 28.6041-39.693 29.4586-39.693 30.3215-39.5938 31.1762L-18.3162 41.3862-28.0586 53.8569-34.9952 46.5301C-35.6144 46.1076-36.3504 45.8896-37.0997 45.9066-37.8478 45.8995-38.5807 46.1166-39.2041 46.5301-39.7879 46.8676-40.1453 47.4928-40.1393 48.1672L-40.1393 43.3348C-40.3417 42.2531-41.0737 41.3454-42.0879 40.9189-42.5779 40.8345-43.0787 40.8345-43.5686 40.9189L-49.3362 40.9189-49.3362 26.6558-39.5938 26.6558C-38.8278 26.6946-38.0941 26.3424-37.6452 25.7204-37.1932 24.9985-36.9755 24.1543-37.0217 23.3042-36.9591 22.4276-37.1773 21.5539-37.6452 20.8103-38.0728 20.163-38.8215 19.8037-39.5938 19.8748L-49.7262 19.8748-49.7262 1.16899-39.9835 5.14384C-38.8232 5.22914-37.684 4.80207-36.8659 3.97485-36.4323 3.33184-36.2138 2.56781-36.2424 1.79245-36.1982 1.37785-36.1982 0.960131-36.2424 0.545529-36.2268 0.363875-36.2268 0.181654-36.2424 -6.29256e-17-42.4218-2.79396-48.7737-5.18947-55.2597-7.17066L-63.8331-9.66479C-64.6116-10.1389-65.4507-10.5059-66.3273-10.7558-67.1551-10.8655-67.9936-10.8655-68.8214-10.7558L-70.6921-10.7558-71.3155-10.7558C-71.7593-10.0553-72.0019-9.2465-72.0169-8.41758-71.9883-6.99779-71.2588-5.68455-70.0686-4.91033-68.7982-3.92781-67.2316-3.40609-65.6259-3.42961L-65.6259 28.9941C-65.0914 30.0857-64.0298 30.8231-62.82 30.9424-62.0268 30.903-61.2767 30.5695-60.7155 30.0072-60.3979 29.6978-60.1105 29.3585-59.8583 28.9941L-59.8583-1.7148-55.2597 0-55.2597 40.8407-62.1186 40.8407C-63.5954 41.1182-64.8924 41.9921-65.7038 43.2569-66.1022 43.9277-66.4412 44.6316-66.7172 45.3611L-66.7172 65.7817C-66.3307 67.3359-65.3878 68.6947-64.0669 69.601L-62.1186 70.3803-45.4393 70.3803C-43.6888 70.45-42.0417 69.5517-41.1527 68.0421-40.741 67.3424-40.451 66.5784-40.2952 65.7817L-40.2952 50.1935-39.7497 51.8304C-37.1288 54.136-34.7991 56.7537-32.8128 59.6245-30.833 62.5338-29.1117 65.6111-27.669 68.8214L-23.6159 71.0814 4.52066 71.0814C5.66868 70.8593 6.67954 70.1854 7.32653 69.2111 7.56854 68.7058 7.77684 68.1852 7.94999 67.6524 6.9754 61.0154 4.07602 54.8097-0.389664 49.8038-2.80558 46.8421-5.14384 43.8804-7.56032 40.9966L0.233798 36.4762C2.0407 35.3251 4.05165 34.5316 6.15754 34.1379 8.54114 33.7823 10.7221 32.5954 12.3148 30.7865ZM-91.5021-3.97485C-91.1124-2.72793-90.8786-1.55894-90.6445-0.545812-90.5615 0.51804-90.5615 1.58643-90.6445 2.65-90.5607 4.65159-91.0761 6.63278-92.1255 8.33965-93.3912 10.0068-95.4166 10.9165-97.5038 10.7558L-155.257 10.7558C-155.409 11.2643-155.409 11.8061-155.257 12.3145-155.217 13.2131-154.977 14.0919-154.556 14.8866L-153.153 17.0687-99.53 17.0687-97.4255 17.7704C-96.0687 18.6103-95.155 20.0094-94.9314 21.5896L-94.9314 32.3452C-95.0873 33.1415-95.3772 33.9061-95.7889 34.6055-96.7035 36.1276-98.3794 37.0254-100.153 36.9438L-158.141 36.9438C-158.684 36.6516-159.182 36.2841-159.622 35.8527-160.441 34.8824-160.759 33.5842-160.479 32.3455-160.292 32.0502-160.135 31.7368-160.012 31.41-159.518 30.8095-158.872 30.3521-158.141 30.0849L-104.752 30.0849C-104.049 30.1169-103.376 29.7952-102.96 29.2276-102.533 28.6401-102.313 27.9271-102.336 27.2011-102.338 26.3812-102.553 25.5755-102.96 24.8628-103.339 24.2359-104.019 23.8522-104.752 23.8497L-158.141 23.8497C-159.663 22.9488-160.738 21.4499-161.103 19.719-162.038 16.7572-162.584 15.0424-162.74 14.7307L-163.753 11.5352C-164.049 10.5484-164.206 9.52536-164.22 8.49552-164.217 7.72469-164.001 6.96974-163.597 6.31312-163.129 5.67974-162.428 5.25918-161.649 5.14384L-158.765 4.52038-100.153 4.52038C-98.7544 4.16898-97.7642 2.92319-97.7376 1.48101-97.7475 0.362175-98.1011-0.726333-98.7507-1.63687-99.3985-2.59133-100.251-3.38993-101.245-3.97485L-106.311-5.37821C-110.119-6.26891-114.013-6.73934-117.924-6.781L-126.575-6.781C-129.069-6.781-131.096-6.781-132.81-6.23547-137.47-5.71573-142.101-4.96134-146.684-3.97485-148.061-4.01538-149.144-5.16425-149.104-6.54125-149.103-6.5693-149.102-6.59708-149.1-6.62513-149.089-7.61105-148.761-8.56721-148.165-9.35306-147.7-10.104-146.933-10.6161-146.06-10.7558-143.488-11.4572-141.306-11.9248-139.591-12.2369-134.914-13.1256-130.167-13.5954-125.407-13.6396L-117.612-13.6396C-112.869-13.7694-108.129-13.2982-103.505-12.2369-98.6688-11.0914-94.4564-8.13419-91.7359-3.97485ZM-146.684 57.91C-146.578 57.2644-146.578 56.6064-146.684 55.9614-146.864 53.5933-147.953 51.3869-149.723 49.8038-151.5 48.1329-153.094 46.2779-154.478 44.2703-156.344 42.795-158.02 41.0932-159.466 39.2041-160.806 37.2088-162.992 35.9431-165.39 35.7745-166.564 36.239-167.377 37.3235-167.494 38.5807-167.292 39.8967-166.694 41.1204-165.779 42.0879L-163.051 45.4393-157.907 51.129-154.088 55.4935C-152.871 57.1142-151.037 58.1582-149.022 58.3773-148.324 58.3475-147.637 58.1888-146.996 57.91ZM-87.4493 60.17C-85.9944 60.331-84.9458 61.6408-85.1065 63.0955-85.1079 63.1077-85.1093 63.1196-85.111 63.1317-85.0759 63.9567-85.2935 64.7723-85.7345 65.4697-86.097 66.1813-86.7068 66.7356-87.4493 67.0287L-122.522 67.0287-122.522 72.7186C-123.092 74.2948-124.678 75.266-126.341 75.0569-127.083 75.1025-127.82 74.9112-128.446 74.511-129.005 74.0687-129.369 73.4254-129.459 72.7186L-129.459 66.7169-163.441 66.7169C-165.018 66.147-165.989 64.5609-165.779 62.8979-165.814 62.1821-165.623 61.4733-165.234 60.8714-164.792 60.3126-164.148 59.9487-163.441 59.8583L-139.28 59.8583-139.28 40.6069C-139.28 39.1259-138.344 38.4248-136.396 38.4248-135.681 38.4004-134.975 38.5903-134.369 38.9703-133.827 39.337-133.505 39.952-133.512 40.6069L-133.512 60.0921-119.717 60.0921-119.717 40.8407C-119.788 40.0688-119.428 39.3197-118.781 38.8921-118.037 38.4245-117.164 38.2057-116.287 38.2687-115.44 38.2499-114.604 38.4656-113.871 38.8921-113.207 39.3121-112.82 40.0563-112.858 40.8407L-112.858 60.0921ZM-85.1887 39.2041C-84.9042 38.2678-85.2119 37.2524-85.9683 36.6321-86.7258 36.048-87.6624 35.745-88.6183 35.7745-89.4319 35.7499-90.2379 35.9378-90.9566 36.32L-99.4521 44.1142C-102.323 46.8529-104.933 49.8537-107.246 53.0776-107.448 54.6782-106.507 56.2034-104.986 56.7407-104.214 56.894-103.42 56.894-102.648 56.7407-98.7507 53.3111-94.8535 48.9466-90.0993 44.4262-88.6962 42.9452-86.9817 40.9966-84.8772 38.5807ZM-229.847 0.233798C-236.24-2.55874-242.831-4.87717-249.566-6.70278L-258.529-8.88546C-260.044-9.00817-261.427-8.02027-261.802-6.5472-261.912-5.79763-261.912-5.03615-261.802-4.28687-261.105-2.47373-259.448-1.20782-257.515-1.01313-256.012-0.79293-254.544-0.373227-253.151 0.233798-248.942 1.16927-244.188 2.41591-238.966 3.89692L-232.418 5.92345C-231.498 6.11049-230.544 5.85062-229.847 5.22206-229.151 4.52095-228.783 3.55883-228.833 2.57206-228.815 1.72614-229.09 0.900052-229.612 0.233798ZM-231.561 60.4038C-231.313 61.3849-231.544 62.4258-232.185 63.2097-232.724 63.9607-233.598 64.3982-234.523 64.3789-235.663 64.373-236.709 63.7453-237.251 62.7421L-245.045 42.2435-251.904 42.2435C-251.917 42.4254-251.917 42.6077-251.904 42.7893-252.143 43.2753-252.276 43.8067-252.293 44.348-252.276 45.2367-252.006 46.1019-251.514 46.8421-251.514 47.3879-250.111 52.1421-247.539 61.1831-246.61 64.0825-246.112 67.1023-246.058 70.1462-245.942 71.4431-245.942 72.7469-246.058 74.0435-246.969 74.6723-248.12 74.8449-249.176 74.511-251.202 74.511-252.216 73.7317-252.216 72.1728L-253.385 69.9125C-254.086 66.4052-254.71 63.4435-255.333 61.1052-256.87 54.6198-258.902 48.2622-261.412 42.0879-262.116 42.1199-262.789 41.798-263.205 41.2304-263.596 40.6253-263.812 39.9242-263.829 39.2041-263.836 38.3715-263.591 37.5565-263.127 36.8659-262.772 36.2512-262.122 35.8669-261.412 35.8527L-248.786 35.8527C-249.721 33.5921-250.579 31.7217-251.28 30.2407-253.371 26.0522-255.795 22.0382-258.529 18.238-258.581 17.7196-258.581 17.1976-258.529 16.679-258.254 15.5576-257.434 14.6497-256.346 14.2631L-251.748 14.2631-243.019 14.2631C-239.576 14.3614-236.142 14.648-232.73 15.1204-232.699 15.327-232.699 15.5372-232.73 15.7441-232.643 16.286-232.643 16.8386-232.73 17.3807-232.725 19.013-233.585 20.5258-234.991 21.3556L-246.448 21.3556C-246.855 21.5327-247.127 21.9252-247.149 22.369-246.604 23.5379-245.98 24.7072-245.357 25.8762L-237.563 42.7114C-234.958 48.2486-232.871 54.0147-231.327 59.9362ZM-181.523-8.26172-200.541 10.4441-199.372 12.7042-183.238 12.7042C-181.783 12.8651-180.734 14.175-180.895 15.6296-180.897 15.6418-180.898 15.6537-180.9 15.6659-180.874 16.4897-181.091 17.3028-181.523 18.0042-181.911 18.6959-182.513 19.2426-183.238 19.5631L-198.203 19.5631C-197.813 20.888-197.501 21.9793-197.345 22.8366-196.787 25.3973-196.499 28.0096-196.488 30.6307L-196.488 38.5024C-196.417 39.2747-196.776 40.0234-197.423 40.451-198.167 40.9189-199.041 41.1371-199.917 41.0745-200.765 41.0935-201.601 40.8776-202.333 40.451-202.997 40.0313-203.384 39.2872-203.347 38.5024L-203.347 30.0072-203.347 26.4997C-203.614 24.0359-204.136 21.6069-204.906 19.2514L-214.882 19.2514C-213.741 19.6456-213.028 20.78-213.167 21.9793-213.041 23.6609-213.93 25.2559-215.428 26.0321L-221.663 32.2673C-222.756 33.5097-224.298 34.2669-225.949 34.3717L-226.963 34.3717-228.054 34.3717C-228.685 33.8205-229.053 33.0273-229.067 32.1893-228.86 30.9878-228.256 29.8902-227.352 29.0717L-224.624 26.4217-217.766 19.641-229.223 19.641-229.924 19.0173C-231.512 17.6284-231.673 15.2156-230.284 13.6283-229.983 13.2851-229.624 12.9986-229.223 12.7821L-207.4 12.7821C-208.972 9.67811-211.053 6.85921-213.557 4.44245-216.129 1.79245-218.701-0.701678-221.351-3.35139L-227.664-7.09273C-229.831-8.36346-231.318-10.5359-231.717-13.0162-230.885-13.9624-229.702-14.5258-228.443-14.5751-226.91-14.464-225.432-13.9534-224.157-13.0941L-220.182-10.6779-209.738-1.55894C-207.768 0.258453-205.685 1.95059-203.503 3.50726L-198.203-1.55894C-194.383-5.22234-190.409-9.35306-186.901-13.0162-186.309-13.443-185.604-13.6867-184.875-13.7176-183.937-13.753-183.029-13.3843-182.381-12.7045-181.676-12.0354-181.281-11.1039-181.29-10.1324-181.172-9.56702-181.172-8.98323-181.29-8.41758ZM-206.231 32.0335C-207.579 33.1591-208.76 34.4715-209.738 35.9304-212.076 39.2818-214.258 40.9189-216.207 40.9189L-217.142 40.9189-218.311 40.9189C-218.474 40.7631-218.607 40.578-218.701 40.3731-219.173 39.5105-219.44 38.5501-219.48 37.5673L-214.025 31.2541C-212.494 29.4302-210.645 27.8985-208.569 26.7335-207.661 26.4985-206.696 26.7326-205.997 27.3569-205.399 27.9835-205.088 28.8306-205.139 29.6952-205.097 30.7185-205.494 31.7115-206.231 32.4231ZM-182.147 47.6217C-181.74 46.8157-181.476 45.9454-181.368 45.0496-181.269 44.117-181.269 43.1761-181.368 42.2435-181.406 39.7987-181.937 37.387-182.926 35.1511-183.918 32.978-185.092 30.8922-186.434 28.9159-187.146 28.4267-187.986 28.1558-188.85 28.1363-189.742 28.1436-190.601 28.4758-191.266 29.0717-191.927 29.6343-192.299 30.4646-192.279 31.3321-192.277 32.0785-192.061 32.8091-191.656 33.4363-190.954 34.7614-190.487 35.7745-190.175 36.4762-189.696 37.425-189.405 38.4568-189.318 39.5156-189.318 40.6848-190.097 41.5421-191.656 41.9318L-231.561 41.9318C-232.794 42.8386-233.496 44.2995-233.432 45.829-233.497 47.1122-232.748 48.2982-231.561 48.7907L-211.452 48.7907-211.452 57.2862-227.041 57.2862C-228.196 57.9955-228.947 59.2096-229.067 60.5597-229.019 61.6958-228.513 62.7645-227.664 63.5214-227.49 63.739-227.279 63.9235-227.041 64.0669L-211.452 64.0669-211.452 74.511C-211.44 75.1623-211.042 75.7438-210.439 75.9918-209.78 76.38-209.022 76.5693-208.257 76.5376-207.478 76.5574-206.704 76.3976-205.997 76.07-205.443 75.7509-205.112 75.1501-205.139 74.511L-205.139 64.2231-184.953 64.2231C-183.732 63.3412-183.031 61.9092-183.082 60.4038-182.993 59.1144-183.75 57.9153-184.953 57.4421L-205.139 57.4421-205.139 48.7907-184.953 48.7907C-184.953 48.7907-182.147 47.6214-182.147 47.6217M-277.936-12.0028C-276.474-11.661-275.481-10.3036-275.598-8.80725-275.576-7.9327-275.914-7.08763-276.533-6.46898-277.193-5.83022-278.131-5.56666-279.027-5.76787L-321.037-5.76787C-323.392-5.14129-325.688-4.30614-327.896-3.27346-332.7-0.951629-336.712 2.7353-339.431 7.32653L-339.976 9.58657-339.976 39.1259C-340.122 39.8647-340.385 40.5755-340.756 41.2304-341.605 42.5654-343.005 43.4513-344.575 43.6466L-356.656 43.6466-357.825 43.101C-358.004 42.8559-358.161 42.5952-358.292 42.3217-358.594 41.7436-358.754 41.1026-358.76 40.451-358.763 39.7735-358.603 39.1049-358.292 38.5024-357.895 37.8266-357.332 37.2629-356.656 36.8659L-348.861 36.8659C-348.476 36.9412-348.078 36.9412-347.692 36.8659-346.913 36.506-346.444 35.6943-346.523 34.8393L-346.523 8.18379-355.175-3.74105C-355.922-4.39427-356.372-5.32238-356.422-6.31312-356.438-7.25596-355.967-8.14014-355.175-8.65138-354.318-9.21391-353.316-9.51204-352.291-9.50893-351.552-9.53046-350.822-9.34116-350.187-8.9634-349.539-8.54936-349.067-7.91116-348.861-7.17066L-342.549 1.40279C-340.269-2.13252-337.363-5.22291-333.975-7.71619-330.655-10.2421-326.611-11.6352-322.44-11.6913ZM-335.923 53.3111C-336.698 53.1861-337.487 53.1861-338.262 53.3111-340.335 53.404-342.315 54.2015-343.873 55.5717-345.744 57.0524-347.537 58.4555-349.173 59.9362-350.81 61.4169-352.525 62.508-353.382 63.2876-354.853 64.3359-355.655 66.0878-355.487 67.8862L-354.941 69.601C-354.204 70.0165-353.371 70.2316-352.525 70.2245-350.688 70.0417-348.976 69.213-347.692 67.8862-346.913 67.1066-346.056 66.4052-345.12 65.6256L-339.197 61.339C-337.212 60.1323-335.869 58.1035-335.534 55.8052-335.55 55.0877-335.682 54.3769-335.923 53.7007ZM-279.027 13.0162-299.759 13.0162-299.759 0.467596C-300.044-0.255053-300.566-0.85981-301.24-1.24692-301.984-1.64424-302.813-1.8582-303.656-1.87067-305.108-2.05176-306.433-1.02134-306.614 0.431039-306.617 0.443225-306.617 0.45541-306.618 0.467596L-306.618 13.0162-330.779 13.0162C-331.516 13.2772-332.129 13.8057-332.494 14.4969-332.938 15.1972-333.181 16.006-333.196 16.8352-333.373 18.2878-332.338 19.609-330.885 19.7861-330.85 19.7904-330.815 19.7941-330.779 19.7966L-306.618 19.7966-306.618 31.7217-328.441 31.7217C-330.156 31.7217-330.935 33.2025-330.935 35.2293-330.966 36.1375-330.721 37.0339-330.234 37.8011-329.68 38.5571-328.829 39.0395-327.896 39.1259-326.233 42.7114-324.674 46.6086-323.219 50.817-322.752 52.2203-322.206 54.0128-321.582 56.1172L-330.234 56.1172C-331.38 56.86-332.104 58.1047-332.182 59.4686-332.154 60.5931-331.677 61.6598-330.857 62.4303L-330.234 62.9759-320.413 62.9759-318.699 67.4965-316.984 72.0169C-316.844 72.7237-316.422 73.3429-315.815 73.7317-315.198 73.8646-314.561 73.8646-313.944 73.7317L-312.463 73.7317-311.84 73.7317C-311.725 72.7999-311.725 71.8574-311.84 70.9256-311.85 68.6528-312.3 66.4029-313.165 64.3007-313.356 63.8377-313.591 63.3939-313.866 62.9759L-281.911 62.9759C-281.204 62.8852-280.56 62.5216-280.118 61.9625-279.706 61.3676-279.489 60.66-279.495 59.9362-279.353 58.2659-280.34 56.705-281.911 56.1172L-315.269 56.1172-318.699 45.3614C-319.322 43.6469-319.946 41.9321-320.491 40.2173-320.494 39.4348-319.99 38.7408-319.244 38.5024L-306.618 38.5024-306.618 51.129C-306.554 51.8445-306.185 52.4977-305.605 52.9214-305.007 53.3207-304.295 53.5126-303.578 53.4672-301.915 53.6764-300.329 52.7052-299.759 51.129L-299.759 38.5807-280.352 38.5807C-279.164 37.9051-278.49 36.5879-278.637 35.2293-278.478 33.8472-279.151 32.5016-280.352 31.7997L-299.759 31.7997-299.759 19.9528-279.027 19.9528C-278.32 19.8621-277.677 19.4985-277.234 18.9394-276.835 18.3422-276.643 17.6301-276.689 16.9131-276.488 15.2706-277.463 13.7113-279.027 13.1718Z" fill-rule="evenodd" transform="matrix(1.002 0 0 -1 2777.4 1276.12)"/></g></g></g></g><path d="M1172.04 1262.17 1183.19 1262.17 1183.19 1272.71C1183.19 1274.44 1183.52 1275.61 1184.17 1276.23 1184.82 1276.85 1186.05 1277.22 1187.84 1277.34 1189.33 1277.4 1191.53 1277.43 1194.45 1277.43 1197.36 1277.43 1199.53 1277.4 1200.95 1277.34 1203.06 1277.22 1204.46 1276.88 1205.14 1276.32 1205.82 1275.77 1206.19 1274.69 1206.25 1273.08 1206.44 1269.75 1206.57 1266.92 1206.63 1264.57L1217.32 1267.99C1217.07 1271.33 1216.82 1274.35 1216.58 1277.06 1216.27 1279.78 1215.65 1281.81 1214.72 1283.17 1213.79 1284.53 1212.47 1285.48 1210.76 1286.04 1209.06 1286.59 1206.66 1286.93 1203.56 1287.06 1199.22 1287.18 1195.93 1287.24 1193.7 1287.24 1191.53 1287.24 1188.22 1287.18 1183.75 1287.06 1180.78 1286.93 1178.45 1286.5 1176.78 1285.76 1175.11 1285.02 1173.9 1283.82 1173.15 1282.15 1172.41 1280.49 1172.04 1278.08 1172.04 1274.93ZM1159.86 1261.24 1169.43 1265.03C1166.33 1272.68 1162.96 1279.47 1159.3 1285.39L1150 1279.93C1154.03 1273.82 1157.31 1267.59 1159.86 1261.24ZM1224.57 1258.74C1227.3 1262.57 1231.64 1269.01 1237.59 1278.08L1228.39 1283.82C1226.77 1281.04 1224.76 1277.82 1222.34 1274.15 1219.92 1270.48 1217.72 1267.25 1215.74 1264.48ZM1403.01 1219.88C1406.11 1221.85 1409.47 1224.06 1413.1 1226.49 1416.72 1228.93 1420.02 1231.2 1423 1233.29L1417.61 1241.07C1414.32 1238.66 1412.15 1237.09 1411.1 1236.35L1411.1 1257.72 1356.61 1257.72 1356.24 1262.26 1415.65 1262.26C1415.34 1266.02 1414.79 1270.37 1413.98 1275.31 1413.24 1279.99 1411.8 1283.43 1409.66 1285.62 1407.52 1287.81 1404.09 1288.94 1399.38 1289 1392.75 1289 1385.84 1288.66 1378.65 1287.98L1376.88 1278.64C1384.32 1279.56 1390.7 1279.99 1396.04 1279.93 1398.27 1279.93 1399.83 1279.58 1400.73 1278.87 1401.63 1278.16 1402.33 1276.88 1402.82 1275.03 1403.07 1274.16 1403.26 1273.36 1403.38 1272.62 1403.5 1271.88 1403.63 1271.26 1403.75 1270.77L1343.78 1270.77 1346.75 1249.49 1399.48 1249.49 1399.48 1245.05 1349.45 1245.05 1349.45 1237C1346.85 1238.85 1344.27 1240.48 1341.73 1241.9L1336.34 1234.41C1345.45 1228.73 1351.99 1223.92 1355.96 1219.97L1362.28 1226.63C1358.81 1229.96 1354.87 1233.17 1350.47 1236.26L1411.01 1236.26C1405.12 1232.18 1400.56 1229.13 1397.34 1227.09ZM1176.96 1217.38C1174.49 1219.72 1172.28 1221.67 1170.36 1223.21L1197.51 1223.21 1203.56 1217.38ZM1297.29 1202.85 1308.63 1203.68C1307.82 1207.88 1307.14 1211.21 1306.58 1213.68L1327.04 1213.68 1327.04 1223.86 1304.35 1223.86 1302.4 1231.54 1329.18 1231.54 1329.18 1241.25 1299.7 1241.25C1298.96 1243.84 1298.15 1246.31 1297.29 1248.66L1325.18 1248.66 1325.18 1258.93C1321.71 1263.43 1317.84 1268.58 1313.56 1274.38 1317.09 1276.11 1320.35 1277.8 1323.32 1279.47L1318.11 1288.91C1313.71 1286.32 1308.2 1283.28 1301.56 1279.79 1294.93 1276.31 1289.44 1273.58 1285.11 1271.6L1289.38 1262.81C1292.73 1264.23 1297.66 1266.51 1304.17 1269.66L1312.72 1258.74 1286.04 1258.74 1286.04 1248.66C1286.84 1246.56 1287.68 1244.09 1288.55 1241.25L1281.39 1241.25 1281.39 1231.54 1291.34 1231.54C1292.14 1228.51 1292.76 1225.95 1293.19 1223.86L1284.55 1223.86 1284.55 1213.68 1295.43 1213.68 1297.01 1204.89ZM1257.12 1202.02 1268.09 1203.13 1265.3 1213.4 1280.74 1213.4 1280.74 1223.67 1262.32 1223.67C1259.91 1231.38 1258.05 1237.18 1256.74 1241.07L1262.97 1241.07 1262.97 1227 1272.55 1227 1272.55 1241.07 1280.08 1241.07 1280.08 1251.43 1272.55 1251.43 1272.55 1260.5 1280.64 1259.3 1281.2 1269.94 1272.55 1271.14 1272.55 1287.98 1262.05 1287.98 1262.05 1272.71 1244.84 1275.21 1243.63 1264.29C1246.86 1263.92 1252.99 1263.15 1262.05 1261.98L1262.05 1251.43 1245.77 1251.43 1245.77 1241.07C1247.39 1236.63 1249.24 1230.83 1251.35 1223.67L1244.47 1223.67 1244.47 1213.4 1254.23 1213.4C1255.16 1210.07 1256.13 1206.27 1257.12 1202.02ZM1383.85 1201.37C1384.97 1203.53 1386.21 1206.4 1387.57 1209.98L1419.19 1209.98 1419.19 1219.41 1394.36 1219.41 1394.36 1233.85 1384.04 1233.85 1384.04 1219.41 1375.11 1219.41 1375.11 1233.85 1364.79 1233.85 1364.79 1219.41 1339.87 1219.41 1339.87 1209.98 1374.37 1209.98C1374 1208.99 1373.38 1207.51 1372.51 1205.53L1371.58 1203.31ZM1176.96 1201 1189.05 1202.85C1187.81 1204.7 1186.57 1206.4 1185.33 1207.94L1218.99 1207.94 1218.99 1216.64 1214.07 1221.08 1211.83 1223.21 1228.29 1223.21 1228.29 1258.46 1196.96 1258.46C1198.94 1260.81 1201.45 1263.99 1204.49 1267.99L1196.4 1274.01 1194.26 1271.14C1190.66 1266.58 1188.31 1263.61 1187.19 1262.26L1192.4 1258.46 1160.41 1258.46 1160.41 1249.49 1218.06 1249.49 1218.06 1244.95 1164.41 1244.95 1164.41 1236.9 1218.06 1236.9 1218.06 1232.28 1163.2 1232.28 1163.2 1228.67 1158.28 1232 1151.49 1223.58C1156.94 1220.19 1161.89 1216.56 1166.32 1212.71 1170.75 1208.85 1174.3 1204.95 1176.96 1201Z" fill="#7F7F7F" fill-rule="evenodd"/><path d="M1888.87 1243.25 1888.87 1259.6 1904.84 1259.6 1904.84 1243.25ZM1797.51 1239.67C1801.53 1247.08 1806.55 1253.39 1812.55 1258.59 1818.62 1253.32 1823.32 1247.02 1826.66 1239.67ZM1783.4 1239.67C1783.34 1248.61 1782.89 1255.82 1782.05 1261.3 1781.22 1266.78 1779.68 1271.94 1777.46 1276.78 1787.92 1273.23 1796.49 1269.43 1803.17 1265.39 1796.24 1258.71 1790.3 1250.14 1785.35 1239.67ZM1877.73 1232.5 1915.7 1232.5 1915.7 1270.35 1877.73 1270.35ZM2106.04 1220.37C2109.13 1222.33 2112.49 1224.52 2116.11 1226.94 2119.73 1229.36 2123.03 1231.61 2126 1233.69L2120.61 1241.41C2117.33 1239.02 2115.17 1237.46 2114.12 1236.73L2114.12 1257.95 2059.71 1257.95 2059.34 1262.45 2118.67 1262.45C2118.36 1266.19 2117.8 1270.5 2116.99 1275.4 2116.25 1280.06 2114.81 1283.47 2112.68 1285.65 2110.54 1287.82 2107.12 1288.94 2102.42 1289 2095.79 1289 2088.89 1288.66 2081.71 1287.99L2079.95 1278.71C2087.38 1279.63 2093.75 1280.06 2099.07 1280 2101.3 1280 2102.87 1279.64 2103.76 1278.94 2104.66 1278.24 2105.36 1276.97 2105.85 1275.13 2106.1 1274.27 2106.29 1273.47 2106.41 1272.74 2106.53 1272 2106.66 1271.39 2106.78 1270.9L2046.9 1270.9 2049.87 1249.77 2102.51 1249.77 2102.51 1245.36 2052.56 1245.36 2052.56 1237.37C2049.96 1239.21 2047.39 1240.83 2044.85 1242.24L2039.47 1234.8C2048.57 1229.16 2055.1 1224.39 2059.06 1220.47L2065.37 1227.08C2061.91 1230.39 2057.97 1233.57 2053.58 1236.63L2114.02 1236.63C2108.14 1232.59 2103.59 1229.56 2100.37 1227.54ZM1839.48 1204.11 1841.61 1215.51C1833.44 1216.48 1824.87 1217.27 1815.89 1217.85 1806.92 1218.43 1796.09 1219.06 1783.4 1219.73L1783.4 1228.64 1839.85 1228.64 1839.85 1239.67C1837.19 1245.18 1834.46 1250.03 1831.68 1254.23 1828.89 1258.42 1825.77 1262.2 1822.3 1265.57 1829.79 1270.04 1838.52 1273.54 1848.48 1276.05L1842.63 1287.9C1830.69 1283.73 1820.75 1278.89 1812.83 1273.38 1805.53 1278.47 1795.75 1283.33 1783.49 1287.99L1777.27 1277.15C1775.78 1280.27 1773.62 1283.95 1770.77 1288.17L1760 1281.19C1763.71 1276.17 1766.39 1271.76 1768.03 1267.96 1769.67 1264.16 1770.75 1259.97 1771.28 1255.38 1771.81 1250.78 1772.07 1244.23 1772.07 1235.72L1772.07 1208.98C1783.64 1208.61 1795.48 1208.05 1807.58 1207.28 1819.68 1206.52 1830.32 1205.46 1839.48 1204.11ZM2000.47 1203.47 2011.8 1204.3C2010.99 1208.46 2010.31 1211.77 2009.76 1214.22L2030.18 1214.22 2030.18 1224.32 2007.53 1224.32 2005.58 1231.95 2032.32 1231.95 2032.32 1241.6 2002.89 1241.6C2002.14 1244.17 2001.34 1246.62 2000.47 1248.94L2028.33 1248.94 2028.33 1259.14C2024.86 1263.61 2020.99 1268.73 2016.72 1274.48 2020.25 1276.2 2023.5 1277.88 2026.47 1279.54L2021.27 1288.91C2016.87 1286.34 2011.37 1283.32 2004.74 1279.86 1998.12 1276.4 1992.64 1273.69 1988.31 1271.73L1992.58 1263C1995.92 1264.41 2000.84 1266.68 2007.34 1269.8L2015.88 1258.96 1989.24 1258.96 1989.24 1248.94C1990.04 1246.86 1990.88 1244.41 1991.74 1241.6L1984.59 1241.6 1984.59 1231.95 1994.53 1231.95C1995.33 1228.95 1995.95 1226.41 1996.39 1224.32L1987.75 1224.32 1987.75 1214.22 1998.61 1214.22 2000.19 1205.49ZM1960.36 1202.64 1971.32 1203.75 1968.53 1213.94 1983.95 1213.94 1983.95 1224.14 1965.56 1224.14C1963.15 1231.8 1961.29 1237.55 1959.99 1241.41L1966.21 1241.41 1966.21 1227.45 1975.77 1227.45 1975.77 1241.41 1983.3 1241.41 1983.3 1251.7 1975.77 1251.7 1975.77 1260.7 1983.85 1259.51 1984.41 1270.08 1975.77 1271.27 1975.77 1287.99 1965.28 1287.99 1965.28 1272.83 1948.11 1275.31 1946.9 1264.47C1950.12 1264.1 1956.25 1263.34 1965.28 1262.17L1965.28 1251.7 1949.03 1251.7 1949.03 1241.41C1950.64 1237 1952.5 1231.24 1954.61 1224.14L1947.74 1224.14 1947.74 1213.94 1957.48 1213.94C1958.41 1210.64 1959.37 1206.87 1960.36 1202.64ZM1887.94 1202.37 1901.5 1203.65C1900.26 1207.14 1898.9 1210.42 1897.41 1213.48L1934.55 1213.48 1934.55 1275.68C1934.55 1278.56 1934.21 1280.82 1933.53 1282.48 1932.85 1284.13 1931.69 1285.31 1930.05 1286.01 1928.41 1286.72 1926.13 1287.07 1923.22 1287.07 1918.58 1287.07 1914.56 1286.92 1911.15 1286.61L1909.02 1275.59C1911.99 1275.95 1915.49 1276.2 1919.51 1276.32 1920.93 1276.32 1921.91 1276 1922.43 1275.36 1922.96 1274.71 1923.22 1273.57 1923.22 1271.91L1923.22 1224.23 1870.21 1224.23 1870.21 1287.07 1858.79 1287.07 1858.79 1213.48 1883.58 1213.48C1885.56 1209.01 1887.01 1205.31 1887.94 1202.37ZM2086.91 1202C2088.03 1204.14 2089.26 1206.99 2090.63 1210.54L2122.19 1210.54 2122.19 1219.91 2097.4 1219.91 2097.4 1234.25 2087.1 1234.25 2087.1 1219.91 2078.18 1219.91 2078.18 1234.25 2067.88 1234.25 2067.88 1219.91 2043 1219.91 2043 1210.54 2077.44 1210.54C2077.07 1209.56 2076.45 1208.09 2075.58 1206.13L2074.66 1203.93Z" fill="#7F7F7F" fill-rule="evenodd"/><path d="M2543.9 1267.73 2544.36 1278.72 2531.26 1281.61 2516.77 1284.78 2515.57 1273.88C2524.24 1272.08 2533.68 1270.03 2543.9 1267.73ZM2571.67 1236.23 2581.61 1236.23C2581.43 1238.53 2581.33 1241.82 2581.33 1246.11 2581.27 1246.73 2581.24 1247.63 2581.24 1248.81 2581.12 1252.47 2580.9 1255.61 2580.59 1258.22L2600.01 1258.22 2600.01 1267.91 2578.08 1267.91 2577.71 1268.66C2581.18 1270.27 2585.19 1272.23 2589.74 1274.53 2594.29 1276.83 2597.84 1278.66 2600.38 1280.03L2594.8 1289.16C2592.33 1287.48 2588.86 1285.4 2584.4 1282.92 2579.94 1280.43 2575.92 1278.32 2572.32 1276.58 2569.72 1279.19 2566.38 1281.57 2562.29 1283.71 2558.2 1285.85 2553.03 1287.95 2546.78 1290L2542.5 1280.49C2549.07 1278.57 2554.24 1276.63 2558.02 1274.67 2561.8 1272.71 2564.64 1270.46 2566.56 1267.91L2545.01 1267.91 2545.01 1258.22 2559.78 1258.22C2555.39 1255.86 2550.68 1253.5 2545.66 1251.14L2549.01 1244.34C2554.02 1246.7 2559.38 1249.37 2565.08 1252.35L2562.01 1258.22 2570.56 1258.22C2570.93 1256.11 2571.18 1253.28 2571.3 1249.74 2571.43 1247.81 2571.52 1245.56 2571.58 1242.98 2571.64 1240.41 2571.67 1238.15 2571.67 1236.23ZM2422.58 1232.69 2444.13 1232.69 2444.13 1265.02C2446.61 1268.38 2449.64 1270.99 2453.23 1272.85 2456.83 1274.72 2461.38 1275.83 2466.89 1276.21 2474.2 1276.7 2481.07 1276.95 2487.51 1276.95 2494.32 1276.95 2501.54 1276.7 2509.16 1276.21L2506.93 1287.2C2500.24 1287.64 2493.15 1287.86 2485.65 1287.86 2478.59 1287.86 2472 1287.64 2465.87 1287.2 2459.18 1286.71 2453.79 1285.53 2449.7 1283.66 2445.62 1281.8 2441.81 1278.91 2438.28 1275L2427.41 1289.44 2421 1278.07C2423.97 1274.9 2425.43 1273.35 2425.37 1273.41 2430.38 1268.01 2432.89 1265.3 2432.89 1265.3L2432.89 1244.06 2422.58 1244.06ZM2767.03 1220.29C2770.12 1222.28 2773.48 1224.5 2777.11 1226.95 2780.73 1229.41 2784.03 1231.69 2787 1233.8L2781.61 1241.63C2778.33 1239.21 2776.16 1237.63 2775.11 1236.88L2775.11 1258.41 2720.67 1258.41 2720.3 1262.97 2779.66 1262.97C2779.35 1266.76 2778.79 1271.14 2777.99 1276.11 2777.25 1280.84 2775.81 1284.3 2773.67 1286.51 2771.53 1288.71 2768.11 1289.84 2763.41 1289.91 2756.78 1289.91 2749.87 1289.57 2742.69 1288.88L2740.92 1279.47C2748.36 1280.4 2754.74 1280.84 2760.06 1280.77 2762.29 1280.77 2763.85 1280.42 2764.75 1279.7 2765.65 1278.99 2766.35 1277.7 2766.84 1275.83 2767.09 1274.96 2767.28 1274.16 2767.4 1273.41 2767.52 1272.67 2767.65 1272.04 2767.77 1271.55L2707.85 1271.55 2710.83 1250.11 2763.5 1250.11 2763.5 1245.64 2713.52 1245.64 2713.52 1237.53C2710.92 1239.4 2708.35 1241.04 2705.81 1242.47L2700.42 1234.92C2709.53 1229.21 2716.06 1224.36 2720.02 1220.38L2726.34 1227.09C2722.87 1230.45 2718.94 1233.68 2714.54 1236.79L2775.02 1236.79C2769.13 1232.69 2764.58 1229.61 2761.36 1227.56ZM2661.41 1203.14 2672.74 1203.98C2671.94 1208.21 2671.25 1211.56 2670.7 1214.05L2691.13 1214.05 2691.13 1224.3 2668.47 1224.3 2666.52 1232.03 2693.27 1232.03 2693.27 1241.82 2663.82 1241.82C2663.08 1244.43 2662.28 1246.91 2661.41 1249.27L2689.28 1249.27 2689.28 1259.62C2685.81 1264.15 2681.94 1269.34 2677.66 1275.18 2681.19 1276.92 2684.45 1278.63 2687.42 1280.31L2682.22 1289.81C2677.82 1287.2 2672.31 1284.14 2665.68 1280.63 2659.05 1277.12 2653.57 1274.37 2649.24 1272.39L2653.51 1263.53C2656.86 1264.96 2661.78 1267.26 2668.28 1270.43L2676.83 1259.43 2650.17 1259.43 2650.17 1249.27C2650.97 1247.16 2651.81 1244.68 2652.68 1241.82L2645.52 1241.82 2645.52 1232.03 2655.46 1232.03C2656.27 1228.99 2656.89 1226.41 2657.32 1224.3L2648.68 1224.3 2648.68 1214.05 2659.55 1214.05 2661.13 1205.19ZM2433.54 1202.96C2435.34 1204.95 2437.54 1207.55 2440.14 1210.79 2442.74 1214.02 2444.94 1216.87 2446.73 1219.36L2437.81 1227.37C2436.39 1225.14 2434.33 1222.26 2431.64 1218.75 2428.94 1215.24 2426.67 1212.43 2424.81 1210.32ZM2566.56 1202.86 2577.71 1202.86 2577.71 1210.04 2597.68 1210.04 2597.68 1219.17 2577.71 1219.17 2577.71 1224.67 2599.45 1224.67 2599.45 1233.71 2594.8 1246.67 2585.89 1244.06 2589.42 1234.08 2554.12 1234.08 2559.88 1236.69C2563.59 1238.31 2566.63 1239.68 2568.98 1240.79L2565.73 1248.06C2558.92 1244.46 2553.74 1241.88 2550.21 1240.33L2553.09 1234.08 2546.78 1234.08 2546.78 1225.88C2542.2 1234.58 2537.15 1243.19 2531.64 1251.7L2543.25 1248.9 2543.25 1259.62C2534.27 1261.3 2527.83 1262.69 2523.93 1263.81L2519.47 1264.93 2516.68 1254.96C2517.73 1254.59 2518.71 1254.03 2519.61 1253.28 2520.5 1252.54 2521.42 1251.45 2522.35 1250.02 2524.33 1246.98 2526.5 1243.37 2528.85 1239.21 2525.63 1239.71 2523 1240.17 2520.95 1240.61 2519.59 1240.79 2518.38 1241.04 2517.33 1241.35L2515.1 1231.47C2516.34 1230.85 2517.36 1229.8 2518.17 1228.31 2519.84 1225.32 2521.8 1221.47 2524.07 1216.75 2526.33 1212.03 2528.35 1207.46 2530.15 1203.05L2539.07 1206.59C2537.52 1210.32 2535.65 1214.47 2533.45 1219.03 2531.25 1223.6 2529.28 1227.53 2527.55 1230.82L2534.42 1229.33C2536.59 1225.23 2538.32 1221.81 2539.62 1219.08L2548.08 1223.37 2547.43 1224.67 2566.56 1224.67 2566.56 1219.17 2548.45 1219.17 2548.45 1210.04 2566.56 1210.04ZM2621.28 1202.3 2632.24 1203.42 2629.45 1213.77 2644.87 1213.77 2644.87 1224.11 2626.48 1224.11C2624.07 1231.88 2622.21 1237.72 2620.91 1241.63L2627.13 1241.63 2627.13 1227.47 2636.7 1227.47 2636.7 1241.63 2644.22 1241.63 2644.22 1252.07 2636.7 1252.07 2636.7 1261.2 2644.78 1259.99 2645.34 1270.71 2636.7 1271.92 2636.7 1288.88 2626.2 1288.88 2626.2 1273.5 2609.02 1276.02 2607.81 1265.02C2611.03 1264.65 2617.16 1263.87 2626.2 1262.69L2626.2 1252.07 2609.95 1252.07 2609.95 1241.63C2611.56 1237.16 2613.41 1231.32 2615.52 1224.11L2608.64 1224.11 2608.64 1213.77 2618.4 1213.77C2619.33 1210.41 2620.29 1206.59 2621.28 1202.3ZM2747.89 1201.65C2749.01 1203.83 2750.25 1206.72 2751.61 1210.32L2783.19 1210.32 2783.19 1219.83 2758.39 1219.83 2758.39 1234.36 2748.08 1234.36 2748.08 1219.83 2739.16 1219.83 2739.16 1234.36 2728.85 1234.36 2728.85 1219.83 2703.95 1219.83 2703.95 1210.32 2738.42 1210.32C2738.05 1209.33 2737.43 1207.83 2736.56 1205.85L2735.63 1203.61ZM2467.26 1201 2478.97 1202.3C2478.1 1205.04 2477.08 1207.8 2475.9 1210.6L2505.81 1210.6 2505.81 1221.13 2471.35 1221.13C2468.56 1227.03 2466.08 1231.72 2463.92 1235.2L2473.76 1235.2 2473.76 1225.32 2485.19 1225.32 2485.19 1235.2 2503.21 1235.2 2503.21 1245.73 2485.19 1245.73 2485.19 1253.65 2506.65 1253.65 2506.65 1264.47 2485.19 1264.47 2485.19 1274.25 2473.76 1274.25 2473.76 1264.47 2448.59 1264.47 2448.59 1253.65 2473.76 1253.65 2473.76 1245.73 2450.73 1245.73 2450.73 1235.3C2453.33 1231.51 2456.05 1226.78 2458.9 1221.13L2449.15 1221.13 2449.15 1210.6 2463.64 1210.6C2464.81 1207.8 2466.02 1204.6 2467.26 1201Z" fill="#7F7F7F" fill-rule="evenodd"/></g></svg>