<svg width="1391" height="656" xmlns="http://www.w3.org/2000/svg" xmlns:xlink="http://www.w3.org/1999/xlink" xml:space="preserve" overflow="hidden"><defs><clipPath id="clip0"><rect x="1007" y="1384" width="1391" height="656"/></clipPath><clipPath id="clip1"><rect x="1819" y="1383" width="579" height="534"/></clipPath><clipPath id="clip2"><rect x="1819" y="1383" width="579" height="534"/></clipPath><clipPath id="clip3"><rect x="1006" y="1383" width="578" height="534"/></clipPath><clipPath id="clip4"><rect x="1006" y="1383" width="578" height="534"/></clipPath></defs><g clip-path="url(#clip0)" transform="translate(-1007 -1384)"><path d="M1339.35 2018.33 1339.35 2026.8 1366.11 2026.8 1366.11 2018.33ZM1228.67 2016.09 1239.82 2016.09 1239.82 2025.59C1239.82 2026.96 1240.07 2027.89 1240.57 2028.38 1241.06 2028.88 1242.06 2029.19 1243.54 2029.32 1246.08 2029.5 1248.62 2029.59 1251.16 2029.59 1253.76 2029.59 1256.27 2029.5 1258.69 2029.32 1260.42 2029.19 1261.62 2028.9 1262.27 2028.43 1262.92 2027.97 1263.27 2027.08 1263.34 2025.78 1263.4 2024.29 1263.43 2022.05 1263.43 2019.07L1273.84 2022.05 1273.46 2026.61 1273.19 2029.04C1272.81 2032.2 1271.78 2034.39 1270.07 2035.6 1268.37 2036.81 1265.44 2037.54 1261.29 2037.79 1258.13 2038.04 1254.54 2038.16 1250.51 2038.16 1246.48 2038.16 1242.86 2038.04 1239.64 2037.79 1236.79 2037.6 1234.59 2037.22 1233.04 2036.63 1231.49 2036.04 1230.38 2035.01 1229.7 2033.55 1229.01 2032.09 1228.67 2029.97 1228.67 2027.17ZM1215.57 2014.6 1225.79 2017.3C1224.8 2020.28 1223.44 2023.64 1221.7 2027.36 1219.97 2031.08 1218.3 2034.22 1216.69 2036.77L1207.11 2032.3C1208.72 2029.75 1210.3 2026.85 1211.85 2023.59 1213.4 2020.33 1214.64 2017.33 1215.57 2014.6ZM1283.5 2014.14C1286.97 2019.54 1290.22 2025.34 1293.26 2031.55L1283.69 2036.39C1281.21 2030.74 1278.05 2024.78 1274.21 2018.51ZM1311.38 2010.23 1321.6 2013.76C1318.81 2022.95 1315.75 2031.36 1312.4 2039L1301.9 2035.74C1305.56 2027.3 1308.72 2018.79 1311.38 2010.23ZM1127.57 2002.59 1138.44 2006.31 1126.64 2038.63 1115.49 2034.81C1116.42 2033.01 1118.51 2027.75 1121.76 2019.03 1125.01 2010.3 1126.95 2004.82 1127.57 2002.59ZM1228.77 2002.22 1228.77 2006.41 1271.33 2006.41 1271.33 2002.22ZM1420.57 1999.24 1420.57 2021.77 1459.6 2021.77 1459.6 1999.24ZM1228.77 1992.07 1228.77 1996.26 1271.33 1996.26 1271.33 1992.07ZM1305.34 1989.09C1307.45 1990.27 1310.06 1991.91 1313.19 1994.02 1316.32 1996.13 1319 1998.03 1321.23 1999.7L1315.47 2008.36C1313.3 2006.62 1310.7 2004.7 1307.66 2002.59 1304.63 2000.48 1302.06 1998.8 1299.95 1997.56ZM1217.89 1985.27 1282.11 1985.27 1282.11 2013.39 1253.11 2013.39C1255.47 2015.75 1257.73 2018.27 1259.9 2020.93L1252.46 2027.17C1249.37 2023.26 1246.33 2019.79 1243.36 2016.74L1247.44 2013.39 1217.89 2013.39ZM1343.07 1985.08C1345.79 1987.75 1349.17 1990.11 1353.2 1992.16 1357.84 1989.93 1361.78 1987.57 1365 1985.08ZM1120.32 1975.68C1125.28 1979.03 1131.44 1983.44 1138.81 1988.9L1132.49 1998.59C1128.28 1995.29 1122.12 1990.73 1114 1984.9ZM1308.78 1971.77C1310.95 1972.95 1313.7 1974.59 1317.05 1976.7 1320.39 1978.81 1323 1980.52 1324.85 1981.82L1319.09 1990.39C1317.42 1988.96 1315.1 1987.19 1312.12 1985.08 1309.15 1982.97 1306.42 1981.11 1303.95 1979.5ZM1339.63 1971.02 1349.94 1973.91 1348.27 1976.52 1378.66 1976.52 1378.66 1985.08C1374.32 1989.61 1369.61 1993.43 1364.53 1996.54 1370.73 1998.4 1377.98 1999.89 1386.28 2001.01L1383.31 2010.5C1371.72 2008.64 1361.81 2005.91 1353.57 2002.31 1347.06 2005.1 1339.66 2007.53 1331.36 2009.57L1376.71 2009.57 1376.71 2038.91 1366.11 2038.91 1366.11 2035.46 1339.35 2035.46 1339.35 2038.91 1328.94 2038.91 1328.94 2010.13C1327.58 2010.5 1325.78 2010.91 1323.55 2011.34L1320.3 2002.12C1329.22 2000.39 1336.72 1998.46 1342.79 1996.35 1340.5 1994.86 1338.27 1993.12 1336.1 1991.14 1334.12 1992.94 1331.79 1994.83 1329.13 1996.82L1322.35 1989.09C1326 1986.48 1329.39 1983.53 1332.52 1980.24 1335.65 1976.95 1338.02 1973.88 1339.63 1971.02ZM1239.73 1967.39 1241.13 1972.88 1259.99 1972.88 1261.38 1967.39ZM1396.97 1958.54 1478 1958.54 1478 1969.53 1437.11 1969.53C1434.08 1975.93 1430.45 1982.04 1426.24 1987.88L1470.75 1987.88 1470.75 2038.35 1459.6 2038.35 1459.6 2032.95 1420.57 2032.95 1420.57 2038.35 1409.42 2038.35 1409.42 2007.06C1405.7 2010.6 1401.43 2014.26 1396.59 2018.05L1392.23 2005.38C1398.98 2000.67 1404.97 1995.22 1410.21 1989.04 1415.44 1982.86 1419.67 1976.36 1422.89 1969.53L1396.97 1969.53ZM1124.13 1954.17C1129.27 1957.64 1134.82 1961.58 1140.76 1965.99L1134.63 1975.49C1129.3 1971.46 1123.73 1967.39 1117.9 1963.29ZM1321.51 1953.14 1332.57 1953.14 1332.57 1959.01 1352.36 1959.01 1352.36 1953.14 1363.42 1953.14 1363.42 1959.01 1384.05 1959.01 1384.05 1968.6 1363.42 1968.6 1363.42 1972.88 1352.36 1972.88 1352.36 1968.6 1332.57 1968.6 1332.57 1973.91 1321.51 1973.91 1321.51 1968.6 1301.62 1968.6 1301.62 1959.01 1321.51 1959.01ZM1254.6 1951.56C1255.65 1953.48 1256.86 1955.9 1258.22 1958.82L1286.57 1958.82 1286.57 1967.39 1272.16 1967.39 1271.33 1970.93 1270.77 1972.88 1291.4 1972.88 1291.4 1981.17 1208.97 1981.17 1208.97 1972.88 1230.25 1972.88C1229.63 1970.4 1229.14 1968.57 1228.77 1967.39L1213.71 1967.39 1213.71 1958.82 1244.75 1958.82C1243.64 1956.46 1242.8 1954.82 1242.24 1953.89ZM1169.01 1951C1171.93 1955.97 1174.5 1960.62 1176.73 1964.97L1169.11 1968.23 1197.36 1968.23 1197.36 1979.22 1174.59 1979.22 1174.59 1995.33 1194.38 1995.33 1194.38 2006.5 1174.59 2006.5 1174.59 2025.03 1199.68 2025.03 1199.68 2035.83 1137.51 2035.83 1137.51 2025.03 1163.25 2025.03 1163.25 2006.5 1142.81 2006.5 1142.81 1995.33 1163.25 1995.33 1163.25 1979.22 1141.6 1979.22 1141.6 1968.23 1165.48 1968.23C1163.31 1963.63 1161.05 1959.38 1158.7 1955.47Z" fill="#7F7F7F" fill-rule="evenodd"/><g clip-path="url(#clip1)"><g clip-path="url(#clip2)"><g><g><path d="M0 0-535.466 0C-558.284 4.29342-557.33 26.7934-541.429 54.6199L-288.762 496.19C-279.221 510.978-255.37 520.598-241.059 496.19L6.51933 63.922C23.3741 37.4468 38.7983-0.476982 0 0" fill="#FFCC01" fill-rule="evenodd" transform="matrix(1.00145 0 0 -1 2373.11 1895.3)"/></g><g><path d="M0 0-238.515-413.425 238.515-413.425ZM265.069-455.643-270.396-455.643C-293.214-451.35-292.26-428.85-276.359-401.023L-23.6924 40.5475C-14.1519 55.3354 9.6995 64.9554 24.0104 40.5475L271.589-391.721C288.444-418.196 303.868-456.12 265.387-455.325Z" fill-rule="evenodd" transform="matrix(1.00145 0 0 -1 2107.65 1439.66)"/></g><g><path d="M0 0 475.916 0 238.038 412.551ZM477.03-0.715473-0.953964-0.715473 238.038 413.982 238.038 413.505ZM239.548 468.364C229.367 467.828 220.083 462.37 214.663 453.735L-38.0033 12.0052C-48.6571-6.59883-52.0757-22.1022-47.7031-31.2452-44.6776-37.1491-38.8764-41.1263-32.279-41.8195L503.107-41.8195C513.999-41.8195 521.234-38.9573 524.573-32.9944 532.524-18.445 516.623 10.0973 509.07 21.6255L261.412 453.735C257.544 462.186 249.375 467.855 240.105 468.523ZM504.061-42.8529-32.3587-42.8529C-39.1727-42.1184-45.1543-37.9912-48.2596-31.8812-52.7912-22.1817-49.2931-6.51933-38.5601 12.3235L214.107 453.735C219.586 462.649 229.099 468.297 239.548 468.841L240.105 468.841C249.639 468.22 258.065 462.42 262.048 453.735L509.945 21.6255C517.339 10.0178 533.796-18.763 525.846-34.0279 520.831-40.8453 512.406-44.2584 504.061-42.8529" transform="matrix(1.00145 0 0 -1 1869.27 1852.85)"/></g><g><path d="M0 0-415.095 0-235.176 309.274-212.04 295.997C-215.124 288.026-214.453 279.089-210.211 271.668-220.626 246.386-226.907 221.103-218.161 195.821L-218.559 151.855-169.027 151.855-169.027 172.764-159.487 172.764-160.52 152.332-152.014 151.775C-153.286 107.809-152.014 68.5334-131.581 62.4112-128.639 48.4981-122.04 52.3145-117.349 47.3056-113.851 33.8281-103.719 23.0666-90.4763 18.7633L-10.9715 18.7633Z" fill-rule="evenodd" transform="matrix(1.00145 0 0 -1 2316.26 1831.14)"/></g><g><path d="M0 0 413.982 0 403.01 18.2863 324.062 18.2863C310.744 22.6127 300.552 33.4338 297.03 46.9876 295.622 48.34 293.902 49.3228 292.022 49.8495 288.444 51.2811 284.787 52.712 282.799 61.9345 261.73 68.5334 261.174 111.466 262.287 151.298L253.78 151.855 254.813 172.287 246.068 172.287 246.068 151.377 196.218 151.377 196.616 195.264C187.234 222.455 195.344 248.85 204.566 271.112 200.576 278.436 199.91 287.117 202.738 294.963L179.522 308.479ZM415.095-0.635687-1.11296-0.635687-1.11296-0.158994 179.284 309.354 203.135 295.838C200.188 288.016 200.827 279.294 204.884 271.986 195.741 249.805 187.711 223.409 196.934 196.377L196.536 152.729 245.432 152.729 245.432 173.639 255.37 173.639 254.416 153.524 262.923 152.968C261.81 113.215 262.287 70.2031 283.117 63.8427 285.025 54.7789 288.444 53.507 292.022 52.076 293.998 51.4455 295.796 50.3554 297.269 48.8959 300.726 35.5288 310.771 24.8542 323.903 20.5917L403.408 20.5917Z" transform="matrix(1.00145 0 0 -1 1901.12 1830.82)"/></g><g><path d="M0 0 0 17.3321-2.3852 19.6378-23.5334 19.6378C-24.2553 19.3632-24.8878 18.8957-25.3619 18.2863-25.5847 18.0042-25.7469 17.6793-25.8391 17.3321L-25.8391 0C-25.9195-0.872154-25.4416-1.70037-24.6464-2.06692-24.2784-2.13428-23.9014-2.13428-23.5334-2.06692L-1.82843-2.06692C-1.09908-1.7657-0.446629-1.30404 0.079497-0.715762ZM-47.7028 50.9628-47.7028 63.127C-47.9775 63.8491-48.4449 64.4816-49.0543 64.9557L-50.0085 65.433-57.9588 65.433C-58.6916 65.1786-59.3293 64.7071-59.7875 64.0812-60.0104 63.7991-60.1726 63.4745-60.2648 63.127L-60.2648 51.5196C-60.2862 50.5977-59.8367 49.7284-59.0721 49.2138-58.7269 48.9806-58.3525 48.7932-57.9588 48.6571L-50.0085 48.6571C-49.1829 48.5967-48.401 49.0346-48.0208 49.7703-47.9558 50.1652-47.9558 50.5682-48.0208 50.9628ZM-0.79497 63.127-1.35145 65.4327-22.1022 65.4327C-22.824 65.1581-23.4568 64.6906-23.9309 64.0812-24.1538 63.7991-24.3157 63.4742-24.4079 63.127-22.5451 58.9937-20.1963 55.0969-17.4113 51.5193-16.3778 50.247-15.0261 48.7366-13.2774 46.9081-9.68649 50.0071-6.57831 53.6249-4.05464 57.6414-3.18017 58.9926-2.14671 60.9008-0.953964 63.127ZM7.1556-3.49816 7.1556 20.3533 5.72465 23.5334C5.2046 24.5663 4.2356 25.3003 3.10096 25.5211L0.159283 26.7136-25.6006 26.7136-29.4963 25.0442C-30.7691 24.4891-31.7098 23.3718-32.0405 22.0233L-33.2329 18.6043-33.2329-2.3057C-32.8742-3.46549-32.3946-4.58481-31.802-5.64458-30.4309-7.85575-28.1685-9.36388-25.6006-9.77871L-0.953964-9.77871C0.239069-9.70008 1.41591-9.45928 2.54419-9.06353 4.9346-8.05926 6.68555-5.95245 7.23481-3.41837ZM13.0387 31.8023C13.0387 29.6556 13.0387 28.2243 10.9717 27.5884 10.1022 27.4539 9.21761 27.4539 8.34805 27.5884 2.93243 29.6489-2.37479 31.9841-7.55279 34.585-9.30202 35.4594-11.6077 36.5724-14.2311 38.0036-18.8047 34.8764-23.6785 32.2131-28.7808 30.053-30.6358 29.2581-33.021 28.3833-35.9364 27.4294-38.1623 27.4294-39.5936 27.4294-40.2295 29.4963-40.366 30.3389-40.366 31.1981-40.2295 32.0408L-18.5245 42.5352-28.542 55.1767-35.5386 47.2261C-36.1867 46.8408-36.9314 46.6477-37.6851 46.6694-38.4777 46.6228-39.2629 46.8472-39.9113 47.3056-40.507 47.6496-40.8716 48.2873-40.8652 48.9754L-40.8652 44.364C-41.0569 43.2591-41.7663 42.3129-42.7734 41.8198-43.2903 41.6391-43.8225 41.5061-44.3637 41.4223L-50.1675 41.4223-50.1675 26.9524-40.2292 26.9524C-39.449 26.9963-38.7107 26.5962-38.321 25.9186-37.8273 25.1939-37.5766 24.3307-37.6058 23.4542-37.5778 22.5887-37.7987 21.7336-38.2418 20.9895-38.6893 20.3426-39.445 19.9801-40.2295 20.0356L-50.1675 20.0356-50.1675 0.874756-40.2292 4.92968C-39.0833 5.0245-37.9527 4.61863-37.1286 3.81643-36.623 3.18826-36.3683 2.39532-36.4131 1.59023L-36.4131 0.318277C-36.3622 0.136157-36.3622-0.0560815-36.4131-0.238202-42.7017-3.08188-49.1526-5.55091-55.7329-7.63229L-64.5579-10.097C-65.3098-10.6058-66.1435-10.9824-67.0226-11.2099-67.8933-11.325-68.7753-11.325-69.6463-11.2099L-71.4747-11.2099-72.1905-11.2099C-72.5663-10.4682-72.7831-9.65527-72.8265-8.82475-72.8097-7.35217-72.0656-5.9828-70.8388-5.16759-69.5428-4.16535-67.9451-3.63287-66.3072-3.65686L-66.3072 29.3376C-65.7709 30.4719-64.6903 31.2522-63.445 31.4048-62.6355 31.3646-61.8703 31.0244-61.2983 30.4505L-60.4238 29.3376-60.4238-1.90793-55.7329-0.158705-55.7329 42.0583-63.286 42.0583C-64.7843 42.3621-66.0846 43.2866-66.8636 44.6024-67.3348 45.2613-67.7098 45.984-67.9766 46.7492L-67.9766 67.5794C-67.5733 69.1615-66.5772 70.528-65.1939 71.3958-64.6062 71.7641-63.9616 72.033-63.286 72.1908L-46.2716 72.1908C-44.5024 72.2784-42.826 71.3947-41.899 69.8851-41.4457 69.1881-41.1474 68.4015-41.0245 67.5794L-41.0245 51.6785-40.3885 53.4275C-37.7218 55.7635-35.3701 58.4364-33.3919 61.3781-31.3056 64.4588-29.4711 67.7023-27.906 71.0776L-23.8514 73.3833 4.92939 73.3833C6.07733 73.102 7.0735 72.3903 7.71208 71.3958 8.02833 70.933 8.27 70.4231 8.42755 69.8851 7.55308 63.1328 4.73571 56.7799 0.318277 51.5988L-7.63229 42.6942 0.318277 38.0036C2.17995 36.8837 4.22577 36.1032 6.36063 35.6979 8.80075 35.3079 11.0249 34.0689 12.6412 32.1998ZM-141.519 18.5248-141.519 23.3744C-141.425 26.3158-141.856 29.2506-142.791 32.0408-145.971 40.5478-147.561 44.9999-147.561 45.5564-146.925 47.8621-146.448 49.7703-146.05 51.3603-144.942 55.5444-144.092 59.7927-143.506 64.0812L-143.506 68.6924C-143.628 69.1167-143.816 69.5188-144.063 69.8851-144.626 70.7324-145.471 71.3519-146.448 71.6343L-164.337 71.6343-165.609 71.0776C-166.582 70.535-167.36 69.7007-167.835 68.6924L-167.835-9.46101C-167.544-10.1982-167.011-10.8151-166.324-11.2099-165.582-11.6655-164.731-11.9127-163.86-11.9257-162.378-12.1061-161.03-11.0512-160.849-9.56913-160.845-9.53328-160.842-9.49715-160.838-9.46101L-160.838 62.0935C-160.661 62.5084-160.448 62.9073-160.202 63.2863-159.651 64.0934-158.836 64.6834-157.897 64.9557L-153.206 64.9557C-152.508 64.919-151.865 64.568-151.457 64.0014-151.124 63.3643-150.96 62.6529-150.98 61.9345-150.918 61.0346-150.918 60.1312-150.98 59.2313L-150.98 57.4824C-152.013 53.507-152.729 50.6448-153.047 48.8959-153.424 47.2258-153.611 45.5191-153.604 43.8075-153.626 42.4144-153.466 41.0242-153.126 39.6731-152.835 38.3635-152.295 37.1222-151.536 36.0159L-147.641 22.341C-147.637 20.1396-148.396 18.0048-149.787 16.2986L-151.536 15.7421-156.227 15.7421C-157.027 15.7803-157.786 15.3857-158.215 14.7087-158.65 13.9614-158.87 13.1086-158.851 12.2437-158.921 11.3744-158.697 10.5066-158.215 9.77929-157.778 9.11932-157.015 8.75276-156.227 8.82504L-151.536 8.82504C-149.876 9.15632-148.27 9.71829-146.766 10.4951-143.492 12.2576-141.314 15.5386-140.962 19.2406ZM-92.8615-9.30202-139.77-9.30202C-140.642-9.38238-141.47-8.90482-141.837-8.10956-141.904-7.74127-141.904-7.36431-141.837-6.99631-142.122-5.73246-141.798-4.40818-140.962-3.41866-140.528-2.98273-140.015-2.63207-139.451-2.38491L-92.5438-2.38491C-91.3767-3.1079-90.635-4.35412-90.5561-5.72436-90.5754-6.87346-91.064-7.96502-91.9078-8.74554L-92.5438-9.30202ZM-123.948 4.6114C-124.023 3.88466-124.397 3.22209-124.982 2.78268-125.589 2.36265-126.31 2.14035-127.049 2.14671-128.781 1.96488-130.417 2.97897-131.024 4.6114L-138.974 32.4382C-139.041 32.6449-139.041 32.8672-138.974 33.0742L-138.974 33.7897C-139.019 34.6795-138.635 35.5366-137.941 36.0951-137.31 36.7265-136.448 37.071-135.556 37.0494-134.856 37.0421-134.17 36.8502-133.568 36.4929L-123.551 4.6909ZM-112.261 8.66633C-112.664 8.04394-113.209 7.5262-113.851 7.1556-114.362 6.87635-114.939 6.73903-115.52 6.75811-116.333 6.75146-117.131 6.97174-117.826 7.39409L-118.701 8.10956-123.391 34.7439-123.391 35.7774C-123.418 36.7843-122.941 37.7385-122.119 38.3213-121.243 39.0267-120.143 39.3932-119.019 39.3551-118.24 39.371-117.472 39.1787-116.793 38.7986-115.759 33.8692-114.964 29.0988-114.248 24.3284-113.851 21.9432-113.295 18.2863-112.659 13.1185-112.659 11.6077-112.659 10.0973-112.102 8.66633ZM-96.9959 37.0494C-97.1265 37.9024-97.5824 38.6717-98.2681 39.1961-98.9975 39.6803-99.8575 39.93-100.733 39.9115-102.244 40.0728-103.641 39.0854-103.992 37.6058L-105.185 30.1323-111.625 2.3057C-111.625 0.715762-110.591-1.2581e-14-108.524-1.2581e-14-107.563-0.017923-106.619 0.259305-105.821 0.79497-105.083 1.22165-104.628 2.00968-104.628 2.86218L-96.6779 37.0494ZM-103.992 42.8532C-101.868 43.9066-101 46.4823-102.052 48.6068-102.087 48.6776-102.125 48.7476-102.164 48.8161-102.623 49.3636-103.28 49.7064-103.992 49.7703L-131.501 49.7703C-132.039 49.5194-132.525 49.1688-132.932 48.7369-133.833 47.7812-134.192 46.4364-133.886 45.1592-133.742 44.8184-133.556 44.4978-133.33 44.205-132.872 43.5791-132.234 43.1076-131.501 42.8532ZM-89.9201 47.4646C-90.848 47.1758-91.8109 47.0154-92.7823 46.9876-95.7497 47.2293-98.5497 48.4614-100.733 50.4861L-107.57 56.1307-118.939 66.3867C-121.802 63.2065-124.982 59.9468-128.4 56.6874-131.819 53.4275-133.25 52.1555-136.351 49.5318L-139.531 46.7492C-140.106 45.9701-141.028 45.524-141.996 45.5567-143.014 45.5784-143.972 46.0429-144.619 46.8287-145.283 47.5927-145.574 48.6117-145.414 49.6113L-127.208 68.6926-123.709 73.3833C-122.695 74.7026-121.157 75.5152-119.496 75.6095-118.758 75.7138-118.008 75.7138-117.27 75.6095-116.189 75.1784-115.193 74.5592-114.328 73.7807-110.658 69.6368-106.7 65.7579-102.482 62.173-101.051 60.9011-99.0631 59.3108-96.7574 57.5616-95.0406 56.7805-93.3682 55.9046-91.7485 54.9382-90.2034 54.0953-89.165 52.5527-88.9661 50.8038-89.0283 49.9157-89.2717 49.0499-89.6813 48.2596ZM-188.268-2.38491C-188.124-4.62297-188.933-6.81737-190.494-8.42726-192.216-9.9617-194.47-10.7607-196.774-10.6535L-253.462-10.6535C-257.837-11.0241-261.684-7.77741-262.055-3.40247-262.094-2.93156-262.092-2.45805-262.048-1.98743L-262.048 62.332C-261.802 64.2261-260.139 65.6113-258.232 65.5122-256.254 65.6307-254.49 64.2746-254.098 62.332L-254.098-0.476693C-254.098-2.38491-253.223-3.33916-251.315-3.33916L-229.372-3.33916-229.372 71.3958C-229.192 72.3547-228.651 73.2081-227.861 73.781-227.172 74.3598-226.296 74.6702-225.397 74.6555-223.429 74.7581-221.706 73.3457-221.421 71.3958L-221.421-3.33916-199.239-3.33916C-197.331-3.33916-196.377-2.46441-196.377-0.635687L-196.377 62.332C-195.996 64.3148-194.262 65.7489-192.243 65.7507-190.242 65.7426-188.534 64.3027-188.188 62.332L-188.188-1.98743ZM-301.801 63.127-324.062 63.127C-323.255 59.8682-322.192 56.6776-320.882 53.5865-320.405 52.394-319.689 50.9628-318.815 49.2138L-305.299 49.2138-304.106 53.2688C-303.342 55.4493-302.731 57.681-302.278 59.9468-302.278 60.7418-302.278 61.855-301.801 63.127M-343.938 73.3833C-344.733 74.8145-345.608 75.4505-346.641 75.4505-347.922 75.3397-349.045 74.5508-349.583 73.3833-350.45 72.2081-350.923 70.7888-350.935 69.3283L-352.127 63.4453C-353.336 58.6104-354.85 53.8573-356.659 49.2138-358.886 43.214-361.822 37.5021-365.404 32.1998-365.84 31.6306-366.065 30.9281-366.041 30.212-366.062 29.139-365.695 28.0945-365.007 27.2704-364.509 26.4667-363.646 25.9608-362.702 25.9186-361.907 25.9788-361.18 26.3861-360.714 27.0319L-357.772 31.0865-357.772-8.66604C-357.167-10.2545-355.566-11.2345-353.876-11.0512-353.12-11.0975-352.368-10.9027-351.73-10.4945-351.145-10.0554-350.771-9.3925-350.696-8.66604L-350.696 44.6024C-349.186 48.1801-347.993 51.1221-347.198 53.507-344.992 59.989-343.811 66.7755-343.7 73.6217ZM-284.151 24.7262C-283.414 24.6958-282.718 25.0592-282.322 25.6804-281.908 26.4072-281.689 27.2287-281.686 28.0656-281.651 28.832-281.875 29.5885-282.322 30.212-282.747 30.7914-283.433 31.1192-284.151 31.0865L-310.546 31.0865-310.546 37.4471C-311.128 39.0553-312.745 40.0454-314.442 39.8323-315.172 39.8673-315.895 39.6725-316.509 39.2756-317.079 38.8246-317.45 38.1681-317.543 37.4471L-317.543 31.0865-342.189 31.0865C-342.905 31.1224-343.581 30.7541-343.938 30.1325-344.398 29.5454-344.625 28.8091-344.574 28.0653-344.599 27.2504-344.377 26.4468-343.938 25.7596-343.589 25.1208-342.917 24.7241-342.189 24.7262L-326.924 24.7262C-326.96 19.0431-328.705 13.5026-331.933 8.82504-335.131 3.73202-339.422-0.585965-344.495-3.81586-345.94-4.32695-346.899-5.7021-346.88-7.23452-346.863-8.18183-346.494-9.08839-345.846-9.77871-345.194-10.4933-344.269-10.8974-343.302-10.892L-342.189-10.892C-340.913-10.1377-339.714-9.25894-338.611-8.26827-335.822-6.01402-333.168-3.59818-330.661-1.03317-327.623 2.32652-324.957 6.00506-322.71 9.93828L-297.03 9.93828C-296.251 9.38672-295.623 8.6487-295.202 7.79186-294.85 6.93301-294.661 6.01633-294.645 5.08868-294.687 3.95664-294.874 2.83414-295.202 1.74951-295.202 0.477271-295.997-0.874178-296.553-2.30541-296.93-3.669-297.85-4.81839-299.098-5.48558-300.45-6.1707-301.955-6.49881-303.47-6.43955-305-6.40197-306.521-6.18863-308.002-5.80357L-312.295-4.53162-314.283-4.53162-316.668-4.53162C-317.81-4.45993-318.947-4.73744-319.928-5.32659-320.739-5.97615-321.16-6.99718-321.041-8.02949-318.673-11.0634-315.03-12.8253-311.182-12.7999-308.988-12.9933-306.81-13.339-304.663-13.8336L-299.972-13.8336C-298.237-13.4966-296.553-12.9355-294.963-12.1639-291.683-10.5936-289.226-7.70283-288.205-4.21334L-287.092 7.39438-287.092 12.5623C-287.269 13.1057-287.481 13.6371-287.728 14.1522-288.388 15.1461-289.419 15.8332-290.59 16.0604L-321.041 16.0604-319.292 24.011ZM-280.016 42.6942-280.573 37.4468-282.083 33.949C-282.497 32.8444-283.529 32.0934-284.707 32.0408L-286.138 32.0408C-287.341 32.2764-288.188 33.3604-288.126 34.585-288.228 35.2166-288.228 35.861-288.126 36.4929-287.847 37.646-287.635 38.8139-287.49 39.9913-287.49 41.3428-288.205 42.1377-289.716 42.4557L-336.624 42.4557C-337.342 42.1745-337.973 41.7082-338.452 41.104-338.657 40.7828-338.818 40.4351-338.929 40.0705L-338.929 34.9027C-339.004 34.1762-339.379 33.5133-339.963 33.0742-340.594 32.6429-341.345 32.4203-342.109 32.4382-343.82 32.2654-345.429 33.2826-346.005 34.9027L-346.005 45.5567C-345.697 46.7784-344.999 47.8667-344.018 48.6571L-342.507 49.6113-326.606 49.6113-331.615 63.127-339.566 63.127C-340.347 63.0871-341.095 63.4467-341.553 64.0812-342.012 64.7296-342.236 65.5148-342.189 66.3074-342.249 67.1015-342.024 67.891-341.553 68.5334-341.095 69.1682-340.347 69.5275-339.566 69.4876L-316.748 69.4876-316.748 72.9858C-315.99 74.1551-314.72 74.8934-313.329 74.9735-312.18 74.9538-311.088 74.4656-310.308 73.622L-309.671 72.9858-309.671 69.4876-284.469 69.4876C-283.687 69.5275-282.939 69.1682-282.481 68.5334-282.069 67.8638-281.849 67.0937-281.845 66.3074-281.845 64.1607-282.719 63.127-284.469 63.127L-293.85 63.127C-294.433 59.9468-295.149 56.7666-295.997 53.5865-295.997 52.394-296.792 50.9628-297.348 49.2138L-282.719 49.2138C-281.748 48.965-280.901 48.3715-280.334 47.5441-280.12 47.1608-279.934 46.7622-279.778 46.3517L-279.778 42.2967Z" fill-rule="evenodd" transform="matrix(1.00145 0 0 -1 2285.21 2018.77)"/></g></g></g></g><g clip-path="url(#clip3)"><g clip-path="url(#clip4)"><g><g><path d="M0 0-533.45 0C-556.182 4.27696-555.231 26.6922-539.39 54.414L-287.675 494.401C-278.17 509.133-254.409 518.717-240.152 494.401L6.49478 63.7605C23.2861 37.385 38.6522-0.475186 0 0" fill="#FFCC01" fill-rule="evenodd" transform="matrix(1.00166 0 0 -1 1559.17 1893.61)"/></g><g><path d="M0 0-237.617-411.869 237.617-411.869ZM264.071-454.006-269.378-454.006C-292.11-449.729-291.16-427.314-275.319-399.592L-23.6032 40.3948C-14.0986 55.1271 9.66298 64.7111 23.92 40.3948L270.566-390.246C287.358-416.621 302.723-454.481 264.388-453.61Z" fill-rule="evenodd" transform="matrix(1.00166 0 0 -1 1294.66 1439.6)"/></g><g><path d="M0 0 474.124 0 237.141 411.235ZM475.234-0.633581-0.950372-0.633581 237.141 412.661 237.141 412.186ZM238.646 466.679C228.484 466.141 219.227 460.67 213.855 452.026L-37.8602 12.2771C-48.4739-6.25719-51.8797-21.623-47.5235-31.1279-44.5094-37.0092-38.73-40.9714-32.1574-41.662L502.163-41.662C510.195-42.8171 518.2-39.3949 522.915-32.791 530.836-18.2964 514.995 10.0593 507.47 21.6233L260.428 452.264C256.487 460.56 248.366 466.075 239.201 466.679ZM502.163-42.2956-32.2369-42.2956C-39.0355-41.5923-45.007-37.472-48.0779-31.3652-52.5924-21.7022-49.1074-6.0988-38.4149 12.5936L213.301 452.581C218.759 461.461 228.236 467.088 238.646 467.63L239.201 467.63C248.693 467.061 257.099 461.305 261.061 452.66L508.025 21.9401C515.391 10.2968 531.786-18.2964 523.866-33.1078 518.967-40.0484 510.556-43.6091 502.163-42.2956" transform="matrix(1.00166 0 0 -1 1057.12 1851.63)"/></g><g><path d="M0 0-420.265 0-233.023 326.248C-225.102 316.585-219.162 306.288-226.369 291.239-220.587 283.318-221.3 274.606-228.587 264.943-227.478 259.873-230.567 254.171-225.261 249.893-227.69 236.692-221.696 221.643-207.281 204.746-207.281 186.212-203.321 175.836-195.717 173.539-190.727 169.421-190.331 156.273-194.687 133.937-190.533 127.311-189.113 119.332-190.727 111.68-179.971 85.8261-175.076 57.9108-176.391 29.9396L-18.93 29.9396Z" fill-rule="evenodd" transform="matrix(1.00166 0 0 -1 1505.77 1836.42)"/></g><g><path d="M0 0 419.077 0 400.622 29.2268 243.319 29.2268 243.319 29.6228C244.712 57.5658 239.841 85.4661 229.062 111.284 230.619 118.85 229.231 126.725 225.181 133.303 229.379 155.164 229.062 168.312 224.231 172.351 216.31 174.727 212.588 185.262 212.508 204.034 198.172 220.746 192.153 235.716 194.45 249.101 191.727 251.681 190.555 255.498 191.361 259.161 191.559 260.845 191.559 262.546 191.361 264.23 198.568 273.734 199.281 282.447 193.658 290.13 200.865 305.337 194.212 315.793 187.242 324.426ZM420.265 0-1.10906 0-1.10906 0.475186 186.608 326.802C193.816 318.09 200.786 307.397 193.42 291.635 199.123 283.714 198.331 274.922 191.123 265.259 191.322 263.549 191.322 261.821 191.123 260.111 190.293 256.606 191.448 252.928 194.133 250.527 191.757 237.458 197.776 222.33 212.033 205.697 212.033 187.4 215.994 177.024 223.36 174.807 228.587 170.609 228.983 157.619 224.627 135.204 228.72 128.525 230.108 120.536 228.508 112.868 239.589 86.8211 244.652 58.6103 243.319 30.3359L401.018 30.3359Z" transform="matrix(1.00166 0 0 -1 1085.36 1836.42)"/></g><g><path d="M0 0C7.01231-0.655757 13.2283 4.49699 13.8841 11.5093 14.5395 18.5216 9.3868 24.7376 2.37478 25.3934-4.63753 26.0491-10.8538 20.8964-11.5096 13.8841-11.5421 13.5342-11.5606 13.1828-11.564 12.8312-11.9643 6.15035-6.87263 0.4101-0.191802 0.0100797-0.127868 0.00604782-0.0642221 0.00287992 0 0" fill-rule="evenodd" transform="matrix(1.00166 0 0 -1 1367.65 1690.84)"/></g><g><path d="M0 0C-6.83634 0.655469-12.9098-4.3553-13.5656-11.1916-14.2207-18.0283-9.20997-24.1014-2.37363-24.7569 4.46272-25.4124 10.5362-20.4019 11.1916-13.5653 11.2354-13.1108 11.2536-12.6541 11.2472-12.1976 11.4281-5.75378 6.43747-0.34127 0 0M0-25.3458C-7.18798-26.0016-13.5465-20.7063-14.2023-13.5183-14.8583-6.33034-9.56276 0.0282232-2.37478 0.68398 4.81291 1.33974 11.1715-3.95556 11.8272-11.1435 11.8595-11.494 11.8771-11.8457 11.8808-12.1976 12.2391-19.0999 6.93426-24.9859 0.0319671-25.3441 0.0213114-25.3447 0.0106557-25.3453 0-25.3458" transform="matrix(1.00166 0 0 -1 1367.65 1665.81)"/></g><g><path d="M0 0C-7.44545-6.65318-18.534-4.03937-22.336-19.9598-22.336-32.0782-15.1282-39.5234 0-42.1372Z" fill-rule="evenodd" transform="matrix(1.00166 0 0 -1 1379.94 1716.58)"/></g><g><path d="M0 0C-2.4125-1.79188-5.08305-3.20736-7.92034-4.19776-15.1625-6.01873-20.6366-11.9594-21.8606-19.326-21.8606-31.0484-14.8114-38.4149-0.158395-41.0284ZM0.633869-41.4244 0.633869-41.4244C-14.653-38.7314-22.2566-31.2068-22.019-18.93-20.7374-11.3336-15.1823-5.1611-7.76195-3.08929-4.88578-2.04244-2.20774-0.515793 0.158683 1.42556L0.633869 1.90103Z" transform="matrix(1.00166 0 0 -1 1379.63 1717.61)"/></g><g><path d="M0 0 9.82166 5.8612C13.0688 7.84143 18.6132 4.75215 22.1777-1.02986L35.5632-22.732C39.1274-28.514 39.365-34.8504 36.1176-36.7515L26.2962-42.6919C23.0488-44.6721 17.5044-41.5039 13.9399-35.7219L0.554384-14.0194C-3.0098-8.63341-3.24739-1.98023 0 0" fill-rule="evenodd" transform="matrix(1.00166 0 0 -1 1314.49 1613.93)"/></g><g><path d="M0 0C-1.01027-0.636749-1.70174-1.67381-1.90103-2.8514-2.35894-6.60393-1.45983-10.3965 0.633581-13.544L14.257-35.2464C17.6628-40.87 23.0488-43.959 26.1381-42.0583L35.9595-36.1971C36.9496-35.5396 37.6344-34.5123 37.8605-33.3454 38.3596-29.5548 37.4277-25.7139 35.2467-22.5734L21.8609-0.871174C18.3759 4.75244 13.0691 7.84143 9.98006 5.9404ZM23.7619-43.2462C19.2211-42.4499 15.3511-39.4957 13.3856-35.3256L0-13.8607C-2.26333-10.6064-3.22407-6.6215-2.69301-2.69301-2.4295-1.35241-1.62773-0.178843-0.474898 0.554384L9.34619 6.49478C12.752 8.55421 18.4551 5.38602 22.0985-0.554384L35.4843-22.2568C37.7116-25.5544 38.6168-29.5695 38.0189-33.5038 37.7554-34.8444 36.9533-36.0179 35.8011-36.7512L25.9794-42.6124C25.3156-43.0308 24.5461-43.2506 23.7619-43.2462" transform="matrix(1.00166 0 0 -1 1314.81 1614.25)"/></g><g><path d="M0 0 6.25748 5.8612C8.39582 7.76224 12.9899 5.8612 16.3956 2.29702L30.0191-12.2768C33.4249-16.1578 34.4544-20.831 32.3158-22.6528L25.8213-28.4348C23.6827-30.2567 19.0887-28.4348 15.6829-24.8704L2.29702-10.4552C-1.10877-6.57398-2.21782-2.05914 0 0" fill-rule="evenodd" transform="matrix(1.00166 0 0 -1 1283.15 1557.14)"/></g><g><path d="M0 0C-0.628686-0.628397-0.972259-1.48748-0.950372-2.37593-0.924741-5.35088 0.270136-8.19566 2.37622-10.2966L15.3658-24.712C18.6135-28.3554 23.2864-30.0188 25.0288-28.2764L31.603-22.4942C32.2121-21.8851 32.5537-21.0588 32.5534-20.1974 32.5278-17.2228 31.3329-14.3777 29.2268-12.2768L16.2372 2.13863C12.9896 5.78201 8.31662 7.44545 6.57398 5.70281ZM22.8901-29.306C19.7698-28.9259 16.9247-27.3324 14.9698-24.8704L1.97994-10.3758C-0.129308-8.26305-1.37257-5.43786-1.50504-2.45513-1.52779-1.40309-1.09466-0.392244-0.316791 0.316791L6.0988 6.0988C8.39582 8.07903 13.148 6.49478 16.7124 2.53461L29.8607-11.8808C31.9702-13.9935 33.2132-16.8187 33.3454-19.8014 33.3183-20.8201 32.8918-21.7874 32.1574-22.4942L25.6623-28.2764C24.8977-28.9509 23.9099-29.3178 22.8901-29.306" transform="matrix(1.00166 0 0 -1 1283.31 1557.38)"/></g><g><path d="M0 0 0 33.4249-1.26716 35.88-48.7907 35.88-51.2458 32.2366-51.2458 0.554384-49.345-1.82183-2.29702-1.82183C-1.56725-1.81838-0.87463-1.50101-0.395988-0.95066ZM11.6432 74.2949C13.0731 74.0207 14.0848 72.7389 14.0194 71.2848 14.0117 70.2924 13.6462 69.3363 12.9896 68.5921 12.3292 67.7762 11.405 67.2161 10.3758 67.0079L-30.0983 67.0079C-32.9108 61.1622-36.2233 55.5708-39.9989 50.2957-41.3452 48.4736-43.167 46.1768-45.3849 43.4838L3.48527 43.4838C5.22647 43.0216 6.7102 41.8803 7.60355 40.3154 7.9549 39.5827 8.22043 38.812 8.39582 38.0186L8.39582-2.45542 7.20756-6.09908C7.20756-7.04946 6.0988-7.68304 4.51484-8.15822 3.52502-8.34225 2.56543-8.66221 1.66315-9.10888L-53.8599-9.10888C-55.3505-8.65242-56.6024-7.62832-57.3449-6.25748-57.7112-5.64291-57.9785-4.97448-58.1368-4.27725L-58.1368 30.1772-68.5921 21.1478C-69.1131 20.7423-69.7533 20.5197-70.4136 20.5139-71.508 20.5131-72.5595 20.9393-73.3442 21.7022-74.1725 22.3885-74.6635 23.3993-74.6909 24.4744-74.6929 25.3458-74.2022 26.143-73.4234 26.5338-66.5324 32.791-62.097 36.8307-60.1963 38.6522-55.9124 42.7235-51.8915 47.0618-48.1571 51.6418-44.3988 56.3902-41.1842 61.5441-38.573 67.0079L-70.2552 67.0079C-71.3945 67.4185-72.2556 68.368-72.5523 69.5425-72.611 70.1216-72.611 70.7057-72.5523 71.2848-72.1295 72.4843-71.2036 73.4393-70.0176 73.8989L-68.275 73.8989ZM-104.393-2.45542C-104.335-2.7964-104.335-3.14429-104.393-3.48527-104.73-4.15082-105.335-4.6407-106.056-4.83163L-136.788-4.83163C-137.181-4.90133-137.583-4.90133-137.976-4.83163-138.796-4.44486-139.298-3.59788-139.243-2.6933L-139.243 8.15794C-139.271 8.58013-139.271 9.00348-139.243 9.42539-138.85 10.2303-137.996 10.7046-137.105 10.6136L-106.532 10.6136-105.581 10.1382C-105 9.64858-104.678 8.91737-104.71 8.15822L-104.71-2.6933ZM-111.046 47.1272C-111.078 47.618-111.306 48.075-111.68 48.3944L-112.314 48.9491-133.065 48.9491-135.521 47.1272C-133.012 44.1952-130.198 41.5399-127.125 39.2066L-122.69 36.276C-119.75 38.2358-117.086 40.5797-114.769 43.246-113.897 44.1966-112.789 45.4638-111.442 47.2064ZM-155.559 19.0884C-155.547 19.8394-155.902 20.5493-156.51 20.9894-157.177 21.3998-157.945 21.6187-158.728 21.623-159.597 21.6181-160.447 21.3716-161.183 20.9102-161.84 20.5324-162.258 19.8452-162.292 19.0884L-164.114 14.257C-165.381 11.4848-166.49 9.26699-167.361 7.52435-170.134 1.98023-172.668-2.77221-175.282-6.89106-175.68-8.72931-174.512-10.5422-172.674-10.9405-172.36-11.0088-172.038-11.0318-171.718-11.0096-169.963-11.0638-168.308-10.1914-167.361-8.71261-162.688-0.0791977-159.837 5.46521-158.886 7.92063-157.41 11.511-156.347 15.2575-155.718 19.0884ZM-157.381 27.009C-157.094 27.3618-156.83 27.7321-156.589 28.1181-156.075 28.8927-155.8 29.8017-155.797 30.7319-155.673 31.3058-155.673 31.9002-155.797 32.4742-156.059 33.1593-156.464 33.7803-156.985 34.296-159.367 35.4762-161.646 36.8537-163.797 38.4146-165.922 40.0634-168.482 41.0546-171.163 41.266-171.954 41.3331-172.749 41.3331-173.539 41.266-173.56 41.029-173.56 40.7905-173.539 40.5532-173.611 39.9747-173.611 39.3892-173.539 38.8109-173.551 37.9941-173.389 37.184-173.064 36.4347-172.672 35.6447-172.032 35.0048-171.242 34.6128L-164.352 30.2567C-161.955 28.7168-159.253 27.7169-156.431 27.3258ZM-96.8683-6.81158-96.8683 13.7023C-97.0411 14.4713-97.3072 15.216-97.6602 15.9202-98.547 17.3901-100.072 18.3577-101.779 18.534L-141.382 18.534-142.253 18.534C-143.527 18.07-144.688 17.3414-145.659 16.3956L-146.213 13.9402-146.213-6.57398C-146.041-7.34292-145.775-8.08767-145.421-8.79181-144.552-10.241-143.06-11.2058-141.382-11.4056L-101.779-11.4056C-100.986-11.2302-100.215-10.9647-99.4824-10.6136-98.0577-9.71856-97.1012-8.24001-96.8683-6.57398ZM-153.104 49.9786C-154.922 51.9753-157.032 53.6842-159.362 55.0479L-165.936 59.0872-167.678 59.0872C-168.859 58.8035-169.814 57.9378-170.213 56.7902-169.422 53.2718-167.013 50.3346-163.718 48.8696-161.979 47.908-160.312 46.8225-158.728 45.6225-158.126 45.0615-157.333 44.7501-156.51 44.7513-155.36 44.7562-154.245 45.147-153.342 45.8598-152.117 46.6241-151.743 48.236-152.508 49.4608-152.718 49.7992-153.004 50.0846-153.342 50.2954ZM-90.1359 26.217C-88.6625 25.9423-87.6157 24.6256-87.6805 23.128-87.7216 22.1512-88.1156 21.2224-88.7895 20.5139-89.434 19.7185-90.3262 19.1607-91.3238 18.93-96.7312 19.5062-102.05 20.7296-107.165 22.5736-109.304 23.2861-114.214 25.3458-121.739 28.5932-127.531 25.3502-133.634 22.6972-139.956 20.6726-142.174 19.9598-145.105 19.0884-148.59 18.2172L-151.679 18.2172C-153.342 18.2172-154.134 19.326-154.134 21.4646-154.143 22.2499-153.923 23.0206-153.5 23.6824L-140.748 27.9597-128.472 32.1574-140.669 43.0087-147.402 36.9888C-148.111 36.1052-149.04 35.4227-150.095 35.0091-151.18 34.4703-152.369 34.1731-153.58 34.1377-155.639 34.1377-156.669 35.088-156.669 36.9888-156.72 37.3836-156.72 37.7828-156.669 38.177-155.149 40.2019-153.364 42.0136-151.362 43.5633-145.501 47.9987-142.412 50.4538-142.016 50.8498-140.632 52.6549-138.876 54.1407-136.867 55.2062-135.947 55.6498-134.994 56.0204-134.016 56.3153L-100.987 56.3153C-100.225 56.0414-99.5624 55.5446-99.0861 54.8895-98.8609 54.5977-98.6748 54.2783-98.5317 53.9391-99.1828 49.3747-101.393 45.1769-104.789 42.0583-108.269 38.9552-111.918 36.0465-115.719 33.3457-110.105 31.2016-104.366 29.4031-98.5317 27.9597-96.4723 27.405-93.7795 26.7714-90.6111 26.1378ZM-91.9577 64.2356-112.313 64.2356-112.313 61.8594C-112.324 61.0919-112.672 60.3676-113.264 59.8795-113.813 59.4115-114.526 59.1834-115.244 59.2459-116.276 59.2211-117.285 59.5572-118.095 60.1963-118.938 60.7924-119.417 61.7791-119.363 62.8101-119.429 63.283-119.429 63.7628-119.363 64.2356L-146.53 64.2356-146.53 60.0379C-147.622 58.0424-150.125 57.3097-152.12 58.4012-152.553 58.6382-152.94 58.951-153.263 59.3248L-153.896 60.0379-153.896 64.2356-174.094 64.2356C-176.064 65.2819-176.814 67.7273-175.767 69.698-175.526 70.1524-175.2 70.5568-174.807 70.8888L-174.094 71.5227-153.896 71.5227-153.896 76.354C-152.805 78.3498-150.302 79.0825-148.306 77.9907-147.873 77.7537-147.486 77.4406-147.164 77.0671L-146.53 76.354-146.53 71.5227-119.046 71.5227-119.046 76.354C-118.92 77.8548-117.618 78.9799-116.115 78.8887-114.418 79.0122-112.852 77.9688-112.313 76.354L-112.313 71.5227-92.1158 71.5227C-91.3339 71.197-90.6897 70.6086-90.2943 69.8593-89.8332 69.1232-89.5861 68.2727-89.5815 67.4038-89.3978 65.8398-90.5172 64.4231-92.081 64.2397-92.0925 64.2382-92.1043 64.2371-92.1158 64.2356ZM-207.36 26.7714-259.794 26.7714C-260.076 25.5722-259.846 24.3097-259.161 23.2861-258.82 22.7914-258.421 22.3389-257.972 21.9401L-210.449 21.9401C-208.944 22.5736-208.152 23.3656-208.073 24.3952-207.994 25.4248-208.073 26.217-208.073 26.7714ZM-207.36 33.4249-207.36 34.0585C-207.292 34.9449-207.759 35.7867-208.548 36.1971L-209.815 36.1971-257.339 36.1971C-258.102 35.9272-258.691 35.3089-258.923 34.5336-258.95 34.0849-258.95 33.6354-258.923 33.187ZM-220.191 64.2356-246.012 64.2356C-246.012 63.285-245.458 62.3346-245.22 61.4634L-243.557 56.3942-222.805 56.3942-220.35 64.3148ZM-259.794 6.89077-271.358-11.2475C-271.445-12.1771-271.902-13.0333-272.625-13.6237-273.338-14.1436-274.199-14.4212-275.081-14.4157-276.041-14.4402-276.975-14.1006-277.695-13.465-278.451-12.9184-278.871-12.0193-278.803-11.0888-278.854-10.7473-278.854-10.4005-278.803-10.0593L-271.437 1.42556-267.16 8.07874C-267.109 8.97871-266.677 9.81389-265.972 10.3758-265.271 10.9178-264.403 11.1983-263.517 11.1677-262.571 11.1862-261.648 10.8783-260.903 10.2966-260.157 9.70647-259.743 8.79094-259.794 7.84143-259.739 7.52666-259.739 7.20526-259.794 6.89077M-210.053 3.48499C-210.72 3.88817-211.493 4.08142-212.271 4.03937-213.085 4.08574-213.892 3.86283-214.568 3.4055-215.174 3.03716-215.537 2.37219-215.518 1.66315-216.164 0.243353-216.989-1.08746-217.974-2.29731-219.883-4.7317-222.8-6.161-225.894-6.17799L-243.557-6.17799-245.062-6.17799C-247.27-5.6455-248.894-3.76664-249.101-1.50533L-249.101 9.34619C-249.395 10.1226-249.957 10.7689-250.685 11.1677-251.45 11.632-252.326 11.8782-253.22 11.8808-254.784 12.0643-256.201 10.9451-256.384 9.38104-256.386 9.36952-256.387 9.35771-256.388 9.34619L-256.388-2.13863C-256.033-3.93368-255.419-5.66796-254.567-7.28705-252.719-10.5975-249.167-12.5878-245.379-12.4355L-223.36-12.4355C-219.782-12.4346-216.346-11.043-213.776-8.55421-211.132-6.20305-209.63-2.82577-209.657 0.712779-209.55 1.5805-209.55 2.4583-209.657 3.32659ZM-225.34 1.02957C-224.872 0.445811-224.62-0.281944-224.627-1.02986-224.626-1.79995-224.976-2.52857-225.577-3.0098-226.273-3.50514-227.1-3.78104-227.953-3.80206-228.734-3.77586-229.495-3.55842-230.171-3.16819-231.627-0.690604-233.241 1.69051-235.003 3.96017-235.557 4.75215-236.429 5.78201-237.537 7.12837-238.02 7.85497-238.269 8.71174-238.25 9.58378-238.295 10.6401-237.858 11.6599-237.062 12.356-236.179 13.0835-235.015 13.374-233.894 13.148ZM-200.232 19.8014C-200.847 18.0896-202.177 16.7312-203.875 16.0786-204.668 15.7949-205.493 15.6086-206.33 15.5242L-261.774 15.5242C-263.271 15.8159-264.602 16.6652-265.497 17.9004-265.97 18.468-266.344 19.1103-266.606 19.8014L-266.606 39.2066C-266.639 39.602-266.639 39.9994-266.606 40.3948-266.551 40.7888-266.551 41.1888-266.606 41.5828-265.649 42.547-264.484 43.2785-263.2 43.7211L-262.329 43.7211-206.885 43.7211C-204.939 43.7816-203.093 42.8589-201.974 41.266-201.467 40.5345-201.067 39.7345-200.786 38.8898L-200.786 19.5638ZM-194.766-1.98023C-193.779-2.78056-192.969-3.77874-192.39-4.91083-191.717-6.04062-191.336-7.31988-191.281-8.6337-191.211-9.54692-191.596-10.4365-192.311-11.0096-193.18-11.6354-194.273-11.8655-195.321-11.6435L-210.608 6.49478C-211.413 6.89769-211.908 7.73372-211.875 8.63341-211.82 9.61316-211.325 10.5157-210.528 11.0885-209.744 11.8258-208.657 12.1489-207.598 11.9597-205.087 9.9743-202.779 7.74582-200.707 5.30682-198.806 2.85112-196.747 0.474898-194.766-1.98023M-193.499 49.4242-274.13 49.4242C-274.952 49.3736-275.737 49.7667-276.19 50.4538-276.674 51.2089-276.922 52.0913-276.903 52.9884-276.955 53.9137-276.704 54.8313-276.19 55.6019-275.763 56.3173-274.959 56.7188-274.13 56.6321L-250.369 56.6321C-250.369 57.1862-251.002 58.1368-251.478 59.4832-252.012 61.1936-252.674 62.8613-253.458 64.4732L-270.487 64.4732C-271.778 65.0155-272.576 66.3244-272.467 67.7206-272.557 69.3201-271.806 70.8511-270.487 71.7603L-237.458 71.7603-237.458 77.7796C-237.133 78.5621-236.544 79.206-235.795 79.6014-235.031 80.0657-234.154 80.3119-233.26 80.3145-231.696 80.498-230.279 79.3788-230.096 77.8147-230.095 77.8029-230.093 77.7914-230.092 77.7796L-230.092 71.7603-196.43 71.7603C-195.636 71.4527-194.986 70.8595-194.608 70.0966-194.147 69.3607-193.9 68.5103-193.895 67.6414-193.711 66.0774-194.831 64.6604-196.395 64.4773-196.406 64.4758-196.418 64.4744-196.43 64.4732L-212.984 64.4732C-212.984 63.5226-213.538 62.5722-213.776 61.701L-215.439 56.6321-193.42 56.6321C-192.599 56.6822-191.813 56.2897-191.361 55.6022-190.41 53.9895-190.41 51.9877-191.361 50.3746-191.832 49.7174-192.614 49.3563-193.42 49.4242ZM-355.95 25.6623C-358.009 19.7219-360.385 13.7023-363.157 7.52435-365.93 1.34636-367.593-1.98023-369.415-5.62361-370.316-7.52551-371.32-9.37643-372.425-11.168-373.205-11.9951-374.297-12.4553-375.434-12.4355-376.35-12.4795-377.242-12.1342-377.89-11.4851-378.53-10.7455-378.794-9.75139-378.603-8.79181-375.83-3.16848-373.217 2.53461-370.682 8.23742L-364.979 21.5438C-364.266 23.2861-363.474 25.0288-362.761 26.8503-362.346 28.4037-360.879 29.4371-359.276 29.306-358.361 29.3498-357.469 29.0048-356.821 28.3554-356.103 27.6587-355.802 26.6369-356.029 25.6623ZM-329.654 57.3446-329.654 33.583-349.772 33.583-350.485 32.9494C-352.189 31.5094-352.403 28.961-350.963 27.257-350.631 26.8636-350.226 26.5376-349.772 26.2962L-329.574 26.2962-329.574-2.6933-357.692-2.6933C-359.402-3.25056-360.469-4.95057-360.227-6.73267-360.273-7.48605-360.079-8.23512-359.672-8.87129-359.18-9.46916-358.465-9.84096-357.692-9.90086L-295.357-9.90086C-293.872-9.82973-292.725-8.56775-292.796-7.08229-292.801-6.99157-292.809-6.90143-292.823-6.81158-292.826-5.91794-293.072-5.04158-293.536-4.27725-293.917-3.53452-294.569-2.96746-295.357-2.6933L-322.208-2.6933-322.208 26.2962-300.823 26.2962C-299.153 26.9036-298.108 28.5676-298.288 30.3356-298.271 31.097-298.492 31.8449-298.922 32.4742-299.361 33.1055-300.057 33.511-300.823 33.583L-322.208 33.583-322.208 57.3446-296.546 57.3446-295.833 57.9782C-294.129 59.4181-293.915 61.9669-295.354 63.6712-295.687 64.064-296.091 64.3903-296.546 64.6316L-322.05 64.6316-322.05 76.354-322.683 77.0671C-323.483 77.9337-324.594 78.4469-325.773 78.4927-327.246 78.429-328.587 77.6244-329.337 76.354L-329.337 64.8692-352.227 64.8692-352.94 64.2356C-353.807 63.4362-354.32 62.3248-354.366 61.1466-354.262 59.6857-353.468 58.3615-352.227 57.5822ZM-375.514 69.463-376.147 71.2848C-376.239 72.8584-375.214 74.2805-373.692 74.6909-372.877 74.798-372.051 74.798-371.236 74.6909L-357.138 63.2061C-356.36 62.5993-355.918 61.6575-355.95 60.6715-355.979 59.6191-356.472 58.6331-357.296 57.9785-358.087 57.2521-359.168 56.9307-360.227 57.1073-363.554 59.4043-367.118 62.097-370.84 65.0279L-375.514 69.0673ZM-378.603 47.1272-379.157 48.9491C-379.502 50.2957-378.88 51.7031-377.652 52.3548-376.981 52.7203-376.261 52.9873-375.514 53.1468L-358.326 39.2066C-358.051 38.5834-357.916 37.9075-357.93 37.2267-357.922 36.022-358.597 34.917-359.672 34.375-360.2 34.1169-360.759 33.9303-361.336 33.8209-363.745 35.0946-366.003 36.6357-368.068 38.4146Z" fill-rule="evenodd" transform="matrix(1.00166 0 0 -1 1478.24 2018.2)"/></g></g></g></g><path d="M2255.48 2012.92 2255.48 2024.93 2274.48 2024.93 2274.48 2012.92ZM2245.28 2003.21 2284.96 2003.21 2284.96 2038.8 2274.48 2038.8 2274.48 2034.55 2255.48 2034.55 2255.48 2038.8 2245.28 2038.8ZM2152.58 1996C2155.17 2003.39 2157.71 2011.38 2160.18 2019.94L2150.73 2022.81C2149.86 2019.17 2148.75 2015.07 2147.39 2010.51 2146.03 2005.95 2144.79 2002.13 2143.68 1999.05ZM2183.17 1994.89 2192.9 1998.03C2190.68 2006.54 2187.9 2015.66 2184.56 2025.4L2195.78 2025.4 2195.78 2036.12 2140.34 2036.12 2140.34 2025.4 2173.34 2025.4C2176.93 2016.27 2180.2 2006.11 2183.17 1994.89ZM2168.43 1994.15C2169.42 1997.36 2170.56 2001.19 2171.86 2005.66 2173.16 2010.13 2174.15 2013.84 2174.83 2016.8L2165.56 2019.39C2163.27 2009.9 2161.17 2002.44 2159.25 1997.02ZM1984.7 1989.9C1985.13 1991.19 1985.78 1993.38 1986.65 1996.46L2010.66 1996.46 2010.66 2005.89 1973.67 2005.89C1973.54 2007.49 1973.36 2009.06 1973.11 2010.61L2004.54 2010.61C2004.48 2012.89 2004.29 2015.66 2003.98 2018.92 2003.67 2022.19 2003.3 2024.87 2002.87 2026.97 2002.37 2029.55 2001.73 2031.62 2000.92 2033.16 2000.12 2034.7 1998.9 2035.89 1997.26 2036.72 1995.62 2037.55 1993.41 2038 1990.63 2038.06L1987.85 2038.06C1984.45 2038.06 1981.39 2037.94 1978.67 2037.69L1976.82 2028.26C1980.47 2028.88 1984.2 2029.18 1988.04 2029.18 1989.58 2029.18 1990.69 2028.88 1991.37 2028.26 1992.05 2027.64 1992.58 2026.44 1992.95 2024.66 1993.26 2023.3 1993.47 2021.76 1993.6 2020.03L1971.26 2020.03C1969.96 2023.98 1967.92 2027.49 1965.14 2030.57 1962.36 2033.65 1958.43 2036.8 1953.37 2040L1947.34 2030.76C1952.35 2027.49 1955.98 2024.44 1958.23 2021.61 1960.49 2018.77 1961.99 2015.07 1962.73 2010.51 1963.04 2008.97 1963.25 2007.43 1963.38 2005.89L1950.31 2005.89 1950.31 1996.46 1975.61 1996.46C1975.06 1994.43 1974.5 1992.58 1973.95 1990.92ZM1971.81 1970.86C1972.43 1972.64 1973.3 1975.33 1974.41 1978.9L1985.35 1978.9C1986.09 1977.3 1987.11 1974.62 1988.41 1970.86ZM2255.66 1969.47 2255.66 1969.56C2258.38 1974.06 2261.38 1977.79 2264.65 1980.75 2268.67 1977.54 2272.16 1973.78 2275.13 1969.47ZM2218.4 1966.61 2218.4 1977.88 2228.78 1977.88 2228.78 1966.61ZM2167.32 1965.68C2163.18 1972.15 2158.82 1977.61 2154.25 1982.04L2180.76 1982.04C2174.77 1976.25 2170.28 1970.8 2167.32 1965.68ZM2208.66 1956.53 2238.42 1956.53 2238.42 1987.96 2230.54 1987.96 2230.54 1998.22 2238.33 1998.22 2238.33 2008.2 2230.54 2008.2 2230.54 2020.96 2238.42 2019.11 2239.16 2030.02C2237.74 2030.26 2231.22 2031.65 2219.6 2034.18L2205.79 2037.23 2203.94 2026.87 2207.74 2026.04 2207.74 1992.95 2216.36 1992.95 2216.36 2024.19 2220.81 2023.18 2220.81 1987.96 2208.66 1987.96ZM2057.01 1954.87 2067.94 1954.87 2067.94 2021.61 2088.34 2021.61 2088.34 1969.56 2099.37 1969.56 2099.37 2038.43 2088.34 2038.43 2088.34 2033.07 2025.49 2033.07 2025.49 1969.56 2036.61 1969.56 2036.61 2021.61 2057.01 2021.61ZM1940.94 1954.68 1951.42 1956.53C1949.63 1963.92 1947.62 1970.36 1945.39 1975.85L1945.39 2038.34 1935.48 2038.34 1935.48 1996.19C1933.44 1999.7 1931.37 2003.03 1929.26 2006.17L1925 1992.49C1927.97 1988.05 1930.9 1982.41 1933.81 1975.57 1936.71 1968.73 1939.09 1961.77 1940.94 1954.68ZM2253.44 1952 2264.19 1954.31C2263.57 1955.61 2262.65 1957.42 2261.41 1959.76L2286.07 1959.76 2286.07 1969.66C2282.67 1976.06 2278.31 1981.7 2273 1986.57 2278.13 1989.34 2284.46 1991.69 2292 1993.6L2288.57 2003.58C2278.56 2000.62 2270.52 1997.14 2264.47 1993.13 2258.23 1997.26 2250.78 2000.84 2242.13 2003.86L2238.05 1994.34C2245.22 1991.87 2251.27 1989.22 2256.22 1986.39 2253.75 1983.86 2251.4 1980.96 2249.17 1977.7 2248.25 1978.75 2246.76 1980.29 2244.72 1982.32L2238.7 1974.18C2241.79 1971.1 2244.61 1967.62 2247.18 1963.74 2249.74 1959.86 2251.83 1955.94 2253.44 1952ZM2162.87 1952 2171.49 1952C2174.46 1958.1 2178.2 1963.62 2182.71 1968.55 2187.22 1973.48 2192.66 1978.13 2199.02 1982.5L2193.27 1992.4C2189.81 1989.81 2187.31 1987.83 2185.77 1986.48L2185.77 1991.66 2149.06 1991.66 2149.06 1986.76 2144.61 1990.18 2138.4 1981.86 2136.63 1987.31C2138.92 1991.13 2140.56 1994.8 2141.55 1998.31 2142.54 2001.82 2143.03 2005.55 2143.03 2009.5 2143.03 2014.73 2142.2 2018.51 2140.53 2020.82 2138.86 2023.13 2136.14 2024.29 2132.37 2024.29 2130.52 2024.29 2128.97 2024.13 2127.74 2023.82L2125.51 2013.1C2127.12 2013.53 2128.38 2013.75 2129.31 2013.75 2130.67 2013.75 2131.64 2013.22 2132.23 2012.18 2132.82 2011.13 2133.11 2009.34 2133.11 2006.82 2133.11 2000.71 2131.01 1994.74 2126.81 1988.88L2133.39 1967.34 2125.42 1967.34 2125.42 2038.8 2115.59 2038.8 2115.59 1956.53 2143.12 1956.53 2143.12 1967.44 2138.67 1981.12C2144.48 1976.8 2149.27 1972.35 2153.04 1967.76 2156.81 1963.17 2160.09 1957.92 2162.87 1952ZM1983.12 1952 1986.74 1961.34 2009.08 1961.34 2009.08 1970.86 1999.16 1970.86C1998.48 1972.95 1997.52 1975.63 1996.29 1978.9L2010.1 1978.9 2010.1 1993.23 1999.53 1993.23 1999.53 1988.24 1960.97 1988.24 1960.97 1993.23 1950.68 1993.23 1950.68 1978.9 1963.47 1978.9 1961.06 1970.86 1951.79 1970.86 1951.79 1961.34 1974.78 1961.34 1972 1954.03Z" fill="#7F7F7F" fill-rule="evenodd"/></g></svg>