<svg width="328" height="290" xmlns="http://www.w3.org/2000/svg" xmlns:xlink="http://www.w3.org/1999/xlink" xml:space="preserve" overflow="hidden"><defs><clipPath id="clip0"><rect x="196" y="53" width="328" height="290"/></clipPath></defs><g clip-path="url(#clip0)" transform="translate(-196 -53)"><path d="M0 0-303.023 0C-315.936 2.42967-315.396 15.1625-306.398 30.9097L-163.412 280.842C-158.013 289.211-144.515 294.61-136.417 280.842L3.68933 36.2188C13.2276 21.1914 21.9562-0.269927 0 0" fill="#FFCC01" fill-rule="evenodd" transform="matrix(1.0023 0 0 -1 509.869 342.435)"/><path d="M0 0-134.977-233.96 134.977-233.96ZM150.004-257.851-153.019-257.851C-165.932-255.421-165.392-242.689-156.393-226.941L-13.4077 22.9911C-8.00865 31.3596 5.48901 36.7587 13.5876 22.9911L153.694-221.632C163.232-236.66 171.961-258.121 150.184-257.851Z" fill-rule="evenodd" transform="matrix(1.0023 0 0 -1 359.52 84.584)"/><path d="M0 0 269.324 0 134.707 233.51ZM269.954-0.359903-0.539854-0.359903 134.707 234.23 134.707 233.96ZM135.562 265.095C129.783 264.771 124.526 261.647 121.479 256.726L-21.5063 6.8388C-27.5353-3.68949-29.47-12.4179-26.9955-17.817-25.2833-21.1579-22.0004-23.4087-18.2669-23.801L285.251-23.801C291.235-23.801 295.195-22.1361 297.039-18.7619 301.539-10.5281 292.54 5.57915 288.266 12.1029L147.935 256.771C145.733 261.536 141.113 264.726 135.877 265.095ZM285.251-24.1609-18.312-24.1609C-22.1739-23.7614-25.566-21.4208-27.3104-17.9519-29.8749-12.4629-27.8952-3.59952-21.8214 7.01876L121.164 256.951C124.276 261.978 129.657 265.157 135.562 265.455L135.877 265.455C141.269 265.131 146.044 261.862 148.295 256.951L288.581 12.3278C292.765 5.71395 302.078-10.5733 297.579-19.1668 294.742-23.0246 289.974-24.9561 285.251-24.1609" transform="matrix(1.0023 0 0 -1 224.503 318.454)"/><path d="M0 0 14.7125 0 15.2523-20.4714 25.0607-36.5787 25.0607-81.2562 13.6326-100.603 14.7125-124.269 0-124.269 0-95.7436 10.0333-81.1661 9.80833-41.4379 0-23.126Z" fill-rule="evenodd" transform="matrix(1.0023 0 0 -1 324.03 181.137)"/><path d="M0 0 14.2626 0 13.1827 23.5311 24.6108 42.8778 24.6108 87.4202 14.8025 103.527 14.2626 123.909 0 123.909 0 101.008 9.76334 82.696 9.98828 42.9228 0 28.2553ZM14.7125-0.359903-0.359903-0.359903-0.359903 28.3903 9.76334 42.9676 9.76334 82.606-0.0449878 100.963-0.0449878 124.269 14.7125 124.269 15.2523 103.887 25.0607 87.7351 25.0607 42.7427 13.6776 23.4411Z" transform="matrix(1.0023 0 0 -1 324.21 305.226)"/><path d="M0 0-14.6673 0-15.2074-20.4714-25.0157-36.5787-25.0157-81.2562-13.5876-100.603-14.6673-124.269 0-124.269 0-95.7436-9.98828-81.1661-9.76334-41.4379 0-23.126Z" fill-rule="evenodd" transform="matrix(1.0023 0 0 -1 396.047 181.137)"/><path d="M0 0 14.3076 0 14.3076 28.2553 4.31932 42.8778 4.31932 82.696 14.0827 100.963 14.0827 123.909 0 123.909-0.539854 103.572-10.3032 87.5102-10.3032 42.9676 1.12486 23.5761ZM14.6675-0.359903-0.40489-0.359903 0.719805 23.4411-10.7081 42.7878-10.7081 87.7801-0.944744 103.887-0.359903 124.449 14.6675 124.449 14.6675 100.693 4.90433 82.696 4.67939 43.0578 14.6675 28.4802Z" transform="matrix(1.0023 0 0 -1 381.527 305.226)"/><path d="M0 0-5.62397 8.54851-5.62397 12.1479-1.97963 12.1479C-1.13991 12.2408-0.534455 12.9967-0.627376 13.8366-0.628194 13.8435-0.629012 13.8505-0.62983 13.8576-0.620178 14.3325-0.744998 14.8003-0.989896 15.2074-1.20093 15.6064-1.55413 15.9116-1.97963 16.0623L-5.62397 16.0623-5.62397 25.9604C-5.96768 26.8844-6.89344 27.4583-7.87369 27.3552-8.29134 27.3588-8.69999 27.2332-9.04337 26.9953-9.37399 26.7468-9.58601 26.3717-9.62821 25.9604L-9.62821 15.7922-13.9925 15.7922C-14.8957 15.4809-15.4581 14.5806-15.3423 13.6325-15.3685 13.2186-15.2579 12.8075-15.0272 12.4628-14.7827 12.1279-14.4058 11.9146-13.9925 11.8778L-10.3482 11.8778C-10.7545 8.74629-11.6823 5.70478-13.0926 2.87938L-17.277-6.119C-17.2572-7.11282-16.4354-7.90248-15.4418-7.88252-15.3935-7.88154-15.3454-7.8786-15.2973-7.87385-14.81-7.87712-14.3354-7.71893-13.9475-7.42397-13.5803-7.08419-13.3553-6.61796-13.3177-6.119L-9.49325 1.03472-9.49325-21.4613C-9.42487-22.3035-8.68707-22.9307-7.8449-22.8623-7.82445-22.8607-7.804-22.8586-7.78355-22.8563-7.29016-22.8535-6.80707-22.7133-6.38893-22.4512-5.98076-22.2387-5.6616-21.8878-5.48901-21.4613L-5.48901 2.02462-2.20457-3.19446C-1.87967-3.40157-1.50881-3.52525-1.1247-3.55453-0.663693-3.55813-0.228702-3.34071 0.0449878-2.96952 0.325221-2.54288 0.466892-2.04016 0.450042-1.52991 0.418632-1.0766 0.262729-0.640627 0-0.269927ZM9.94329-8.99855 9.94329 1.03472C9.86739 1.55854 9.50143 1.99419 8.99855 2.15958L8.14362 2.15958C7.73169 2.16841 7.32565 2.05897 6.97393 1.8445 6.63955 1.64476 6.39711 1.32166 6.29895 0.944744L6.29895-8.59349C6.01904-10.0269 5.64327-11.4398 5.17425-12.823 4.17962-15.911 2.65739-18.8033 0.674981-21.3715 0.559321-21.8837 0.731911-22.418 1.12486-22.7661 1.45891-23.1661 1.95345-23.3971 2.47466-23.3961 2.96233-23.4169 3.41826-23.1538 3.64434-22.7213 5.64638-21.0299 7.19315-18.8643 8.14362-16.4224 9.00787-13.9912 9.66977-11.4933 10.1234-8.9534ZM24.2059-22.0913 24.2059 1.39462C24.1691 1.80786 23.9559 2.18477 23.6211 2.42967 23.2762 2.66001 22.8653 2.77076 22.4512 2.74442 21.4911 2.86532 20.5755 2.30469 20.2467 1.39462L20.2467-22.0913C20.4026-22.2937 20.584-22.4753 20.7865-22.6313 21.2024-22.9927 21.7223-23.2131 22.2713-23.261 22.6204-23.269 22.9642-23.1753 23.261-22.9912 23.6397-22.7661 23.9628-22.4586 24.2059-22.0913M32.1696 2.38452C32.3911 2.01676 32.5149 1.59862 32.5296 1.16968 32.5573 0.176189 31.7743-0.651587 30.7807-0.679398 30.7187-0.681198 30.6565-0.679562 30.595-0.674981 30.3576-0.727494 30.1121-0.727494 29.8749-0.674981 27.252 0.738291 24.917 2.63056 22.9911 4.90416 22.5111 5.47396 20.7114 7.85864 17.592 12.0579L14.5775 12.0579C13.0967 9.77659 11.4261 7.62421 9.58339 5.62397 8.17143 4.03876 6.66932 2.53666 5.08412 1.1247 4.46148 0.509099 3.78372-0.0480961 3.0595-0.540018 2.73608-0.698211 2.38419-0.789823 2.02478-0.809945 0.944908-0.809945 0.405054-0.225103 0.405054 0.944744 0.426975 1.35831 0.550651 1.76009 0.764957 2.11459 3.59952 4.40913 5.26423 5.84891 6.07401 6.61387 7.83901 8.1747 9.35616 9.99531 10.5733 12.0129L1.97979 12.0129C1.30072 12.4315 0.865239 13.1518 0.809945 13.9475 0.839555 14.5903 1.13238 15.1923 1.61973 15.6122L1.97979 15.9722 11.608 15.9722 12.9578 20.8763 4.99414 19.8866 3.32959 19.8866C2.42967 19.8866 1.97979 20.4714 1.97979 21.6411 1.98077 22.0722 2.10576 22.4939 2.33969 22.8559L19.5718 25.4656 25.8708 27.0851C26.5216 27.1584 27.1695 26.9258 27.6253 26.4555 27.9114 26.1 28.0557 25.6512 28.0304 25.1956 28.0575 24.9565 28.0575 24.7148 28.0304 24.4757 28.0592 24.3726 28.0592 24.2637 28.0304 24.1608 25.734 23.1329 23.3363 22.3488 20.8765 21.8212L17.4123 21.1912 15.7924 15.9722 29.29 15.9722C29.9737 15.6615 30.4005 14.9675 30.3701 14.2175 30.4165 13.345 30.008 12.5109 29.29 12.0129L22.2263 12.0129 22.9011 10.7081C24.8398 8.62179 26.93 6.68192 29.1551 4.90416 29.92 4.22918 30.9097 3.46439 32.1696 2.51948ZM-69.2431 21.0563C-69.3735 19.2504-69.6596 17.459-70.0979 15.7022-70.5313 14.6673-71.2686 13.7887-72.2125 13.1826L-72.9325 13.1826C-73.3727 13.1315-73.8098 13.2997-74.1023 13.6326-74.3655 13.9804-74.4935 14.4123-74.4622 14.8475-74.4575 15.5046-74.3511 16.1572-74.1473 16.7821-74.1473 17.0519-73.8324 17.637-73.5623 18.4916L-74.8671 19.7966-88.3648 19.7966-88.3648 14.2175C-88.2573 13.7115-87.9265 13.2814-87.465 13.0476L-86.745 13.0476-81.7511 13.0476C-81.0761 13.0476-80.1312 13.8576-78.9163 15.5671-78.5452 16.2085-77.8967 16.6411-77.1617 16.7371-76.6699 16.7235-76.1896 16.584-75.767 16.3321-75.6985 15.8244-75.6985 15.3099-75.767 14.8023-75.7597 13.1845-76.5295 11.6613-77.8366 10.7081-79.0685 9.59337-80.6746 8.98301-82.3359 8.99838L-83.3256 8.99838-87.015 8.99838C-88.4273 8.99511-89.8018 9.45317-90.9294 10.303-92.0242 11.1149-92.6607 12.4047-92.6391 13.7674L-92.6391 19.7515-97.7682 19.7515C-98.0723 16.887-99.2504 14.1851-101.143 12.0129-102.011 11.0636-102.959 10.1905-103.977 9.40327-103.868 9.00542-103.793 8.59889-103.752 8.1886L-103.752 7.46863C-103.693 7.02072-103.693 6.56691-103.752 6.11884-103.709 5.89602-103.709 5.66683-103.752 5.44385L-71.5827 5.44385C-70.916 5.03438-70.4822 4.33372-70.4128 3.55437-70.4433 2.90834-70.7165 2.29765-71.1778 1.8445L-71.5827 1.52975-94.1239 1.52975-94.1239-2.96952-74.1923-2.96952C-73.7841-3.02187-73.4128-3.23176-73.1574-3.55453-72.9328-3.902-72.8227-4.31114-72.8425-4.72421-72.7218-5.68434-73.2824-6.59996-74.1923-6.92878L-94.1239-6.92878-94.1239-11.4281-72.8875-11.4281C-72.4643-11.5826-72.1122-11.8866-71.8978-12.283-71.6357-12.7013-71.4955-13.1842-71.4927-13.6776-71.3921-14.4915-71.9704-15.2327-72.7843-15.3333-72.8186-15.3376-72.853-15.3405-72.8875-15.3425L-94.1239-15.3425-94.1239-22.0913C-94.436-22.7653-95.0922-23.2142-95.8336-23.261-96.4501-23.2175-97.0278-22.9446-97.4533-22.4964L-97.7682-22.0913-97.7682 1.39462-105.372 1.39462C-106.947-1.50505-108.752-4.27352-110.771-6.88379-111.491-7.8287-112.481-8.99855-113.696-10.4383-113.974-10.8336-114.427-11.0685-114.91-11.0682-115.403-11.0549-115.864-10.8242-116.17-10.4383-116.517-10.021-116.708-9.49603-116.71-8.9534-116.743-8.53198-116.614-8.11384-116.35-7.78371-114.849-6.26427-113.493-4.60724-112.301-2.83456L-110.681-0.269927C-110.117 0.730439-109.621 1.76761-109.196 2.8344-107.892 6.25396-107.172 8.05348-107.037 8.27842L-109.691 7.91851-110.411 7.91851C-110.927 7.89332-111.426 8.10942-111.761 8.50336-112.091 8.92689-112.266 9.45104-112.256 9.98828-112.262 10.5872-112.073 11.1719-111.716 11.6528-109.209 11.5779-106.745 12.3203-104.697 13.7676-102.633 15.0948-101.393 17.3876-101.413 19.8416L-110.681 19.8416C-111.103 19.6873-111.475 19.4233-111.761 19.0766L-112.031 18.5368-112.031 13.2727C-112.457 12.7936-113.056 12.5025-113.696 12.4629-114.272 12.4657-114.81 12.7517-115.135 13.2276L-115.36 13.5876-115.36 21.0563C-115.21 21.8299-114.735 22.5019-114.055 22.9009-113.739 23.1095-113.389 23.2617-113.021 23.3508L-96.7783 23.3508-96.7783 25.6455C-96.8181 26.1265-96.5465 26.579-96.1035 26.7704-95.8807 26.8141-95.6515 26.8141-95.4287 26.7704L-93.764 26.7704C-93.2863 26.7966-92.8408 26.5292-92.6391 26.0956-92.6012 25.8871-92.6012 25.6738-92.6391 25.4656L-92.6391 23.171-73.0674 23.171C-72.0018 23.188-70.9764 22.7648-70.2329 22.001-69.9005 21.6755-69.6264 21.295-69.4231 20.8763Z" fill-rule="evenodd" transform="matrix(1.0023 0 0 -1 402.135 393.906)"/></g></svg>