<svg width="328" height="290" xmlns="http://www.w3.org/2000/svg" xmlns:xlink="http://www.w3.org/1999/xlink" xml:space="preserve" overflow="hidden"><defs><clipPath id="clip0"><rect x="196" y="53" width="328" height="290"/></clipPath></defs><g clip-path="url(#clip0)" transform="translate(-196 -53)"><path d="M0 0-303.049 0C-315.963 2.42987-315.423 15.1638-306.423 30.9122L-163.426 280.866C-158.026 289.235-144.528 294.634-136.428 280.866L3.68964 36.2217C13.2287 21.238 21.958-0.26995 0 0" fill="#FFCC01" fill-rule="evenodd" transform="matrix(1.00231 0 0 -1 509.884 342.46)"/><path d="M0 0-134.988-233.98 134.988-233.98ZM150.017-257.873-153.032-257.873C-165.946-255.443-165.406-242.709-156.407-226.96L-13.4088 22.993C-8.00932 31.3623 5.48947 36.7617 13.5888 22.993L153.707-221.651C163.246-236.635 171.975-258.143 150.197-257.648Z" fill-rule="evenodd" transform="matrix(1.00231 0 0 -1 359.52 84.5872)"/><path d="M0 0 269.347 0 134.718 233.62ZM269.977-0.359933-0.539899-0.359933 134.718 234.43 134.718 234.115ZM135.573 265.117C129.816 264.759 124.579 261.664 121.489 256.793L-21.5081 6.97435C-27.5376-3.55483-29.4724-12.284-26.9977-17.6835-25.2854-21.0248-22.0022-23.2757-18.2684-23.668L285.275-23.668C289.838-24.3243 294.386-22.3801 297.064-18.6283 301.564-10.394 292.565 5.71443 288.29 12.2839L147.947 256.928C145.708 261.641 141.095 264.774 135.888 265.117ZM285.275-24.028-18.3135-24.028C-22.1758-23.6284-25.5682-21.2876-27.3127-17.8185-29.8774-12.329-27.8976-3.46484-21.8232 7.15432L121.174 257.108C124.286 262.135 129.668 265.314 135.573 265.612L135.888 265.612C141.281 265.289 146.056 262.019 148.307 257.108L288.605 12.464C292.789 5.8494 302.104-10.394 297.604-18.8085 294.821-22.7512 290.043-24.7742 285.275-24.028" transform="matrix(1.00231 0 0 -1 224.49 318.612)"/><path d="M0 0C-2.74465-27.3575-5.1297-41.0814-7.28929-41.0814-9.44922-41.0814-11.7889-27.3575-15.0287 0-18.2684 27.3577-19.5283 44.5011-20.0682 51.4305-20.9605 57.0575-18.2239 62.6389-13.2288 65.3793-9.06458 67.8483-3.81202 67.5088 0 64.5245 4.11125 61.1133 6.02757 55.7269 4.99456 50.4857 4.45466 44.1862 2.74465 27.3577 0 0M0-55.9301C4.77156-58.566 7.74805-63.573 7.78437-69.024 7.88253-74.2635 5.0546-79.1213 0.449916-81.623-4.0728-84.6376-9.91304-84.8293-14.6237-82.1179-19.5337-79.732-22.8063-74.9174-23.218-69.4739-23.8297-63.8966-20.9276-58.5226-15.9287-55.9751-11.1229-52.6508-4.76077-52.6508 0.0449916-55.9751Z" fill-rule="evenodd" transform="matrix(1.00231 0 0 -1 366.285 213.951)"/><path d="M0 0 0 2.60984C-0.0301035 4.25768-0.349953 5.88736-0.944987 7.42443-2.69982 12.239-3.59982 14.7587-3.64465 15.0737-3.28471 16.3786-2.96977 17.4585-2.78981 18.3584-2.14062 20.7212-1.65945 23.127-1.34991 25.5578L-1.34991 28.1675C-1.41895 28.4077-1.52513 28.6354-1.66502 28.8426-1.93284 29.3048-2.34333 29.6678-2.8348 29.8774L-12.9589 29.8774-13.6788 29.5624C-14.2298 29.2553-14.6704 28.7833-14.9388 28.2125L-14.9388-16.0185C-14.7813-16.4543-14.4577-16.8103-14.0389-17.0085-13.6346-17.2647-13.1675-17.4049-12.6889-17.4136-11.8254-17.5178-11.0408-16.9026-10.9366-16.0389-10.9356-16.0322-10.9349-16.0254-10.9341-16.0185L-10.9341 24.4779C-10.8467 24.7107-10.7414 24.9363-10.6192 25.1528-10.307 25.6097-9.84564 25.9436-9.31424 26.0977L-6.65941 26.0977C-6.26479 26.0771-5.90061 25.8785-5.66943 25.5578-5.46558 25.2015-5.35711 24.7984-5.35466 24.3877-5.31948 23.8786-5.31948 23.3673-5.35466 22.858L-5.35466 21.868C-5.98454 19.6183-6.34447 17.9984-6.56943 17.0086-6.76068 16.06-6.86621 15.0961-6.88437 14.1287-6.89729 13.3404-6.80666 12.5536-6.61458 11.7891-6.43036 11.0542-6.12622 10.3549-5.71459 9.71917-4.94957 7.15432-4.2297 4.54464-3.50967 1.97996-3.50787 0.733936-3.93717-0.47413-4.72461-1.43989L-5.71459-1.75484-8.36926-1.75484C-8.81083-1.72997-9.22868-1.95623-9.44922-2.33973-9.72882-2.75005-9.8705-3.23858-9.85414-3.73463-9.86985-4.22447-9.74485-4.70841-9.49421-5.12953-9.24095-5.49568-8.81328-5.70085-8.36926-5.66943L-5.71459-5.66943C-4.775-5.4821-3.86617-5.16389-3.01476-4.72461-1.36087-3.73627-0.250153-2.0454 0-0.134975ZM27.5375-15.7487 0.989815-15.7487C0.499325-15.7811 0.0374657-15.5146-0.18013-15.0737-0.215305-14.8651-0.215305-14.6524-0.18013-14.4436-0.444681-13.3713 0.108143-12.2657 1.12479-11.8339L27.6726-11.8339C28.3393-12.2434 28.7732-12.9443 28.8424-13.7237 28.8121-14.3698 28.5389-14.9804 28.0775-15.4336L27.6726-15.7485ZM9.94396-7.87435C9.90159-8.28582 9.68972-8.6608 9.35907-8.90916 9.0155-9.14704 8.60698-9.27285 8.18929-9.26909 7.21682-9.38427 6.29686-8.80232 5.98437-7.87435L1.48472 7.87435C1.46918 7.99378 1.46918 8.11485 1.48472 8.23428L1.48472 8.63921C1.45969 9.14279 1.67712 9.62788 2.06961 9.94413 2.42971 10.297 2.91562 10.4912 3.41953 10.484 3.82985 10.4796 4.23232 10.3713 4.58963 10.1691L10.2141-7.82919ZM16.6034-5.57961C16.3483-5.92417 16.027-6.21473 15.6586-6.43445 15.3693-6.5925 15.0431-6.67021 14.7137-6.65941 14.2672-6.6671 13.8286-6.54178 13.4536-6.29948L12.9589-5.89439 10.3041 9.17911C10.28 9.37347 10.28 9.5698 10.3041 9.76416 10.307 10.3405 10.593 10.8788 11.0689 11.2039 11.5512 11.5964 12.1575 11.8037 12.7788 11.7889 13.2336 11.7975 13.683 11.689 14.0837 11.474 14.6237 8.6842 15.1187 5.98437 15.5236 3.28471 15.5236 1.9348 16.0185-0.134975 16.3784-3.05976L16.7385-5.57961ZM25.1978 10.4842C25.1441 10.9739 24.8817 11.4166 24.4777 11.699 24.079 11.9669 23.6085 12.1081 23.1278 12.1039 22.2612 12.1989 21.4564 11.643 21.238 10.7991L20.5633 6.29948 16.9185-9.40406C16.9185-10.3041 17.5034-10.709 18.6733-10.709 19.2181-10.7255 19.7539-10.568 20.203-10.2591 20.621-10.0177 20.8784-9.57176 20.8781-9.08929L25.3777 10.2591ZM21.238 13.7687C22.148 14.0778 22.7257 14.9722 22.6331 15.9287 22.6534 16.3488 22.5261 16.7626 22.2731 17.0986 22.0284 17.4337 21.6513 17.6467 21.238 17.6835L5.62444 17.6835C5.31997 17.5417 5.04511 17.343 4.81459 17.0986 4.32067 16.5491 4.13481 15.7891 4.31952 15.0738 4.37171 14.8773 4.46349 14.6934 4.58963 14.5338 4.84879 14.1796 5.2097 13.9127 5.62444 13.7689ZM29.2023 16.3786C28.6773 16.2151 28.1324 16.1243 27.5826 16.1086 25.9013 16.2385 24.3144 16.9366 23.083 18.0886L19.2134 21.2833 12.5988 26.7276C10.9789 24.9278 9.17911 23.0831 7.2443 21.2382 5.98437 20.0234 4.49949 18.6735 2.74465 17.1886L0.899832 15.6137C0.579655 15.1664 0.0543171 14.9122-0.494908 14.9388-1.63622 15.0064-2.50644 15.9861-2.43887 17.1274-2.43691 17.1627-2.4338 17.1982-2.42987 17.2336L7.87419 28.0327 9.85398 30.6874C10.4358 31.4249 11.3017 31.8825 12.2389 31.9473 12.6567 32.0064 13.0808 32.0064 13.4988 31.9473 14.1103 31.7032 14.674 31.3529 15.1636 30.9123 17.2406 28.5671 19.4809 26.3716 21.868 24.3429 22.7231 23.623 23.8028 22.7231 25.1078 21.7332 26.0848 21.302 27.0318 20.8059 27.9426 20.2484 28.8396 19.7883 29.4476 18.9102 29.5623 17.9085 29.5071 17.4039 29.3543 16.9149 29.1124 16.4686ZM-41.0364 25.3779C-40.7215 25.6928-40.5865 25.9178-40.5865 26.1427-40.5926 26.3294-40.6947 26.4996-40.8566 26.5927L-56.2902 26.5927C-57.7049 25.3987-58.9871 24.0561-60.1148 22.5881-61.1737 21.2154-62.3317 19.922-63.5795 18.7185L-47.3359 18.7185-49.2257 19.8884C-50.7106 20.7433-51.4305 21.6431-51.4305 22.5431-51.403 23.053-51.2484 23.5481-50.9806 23.983-50.5781 24.0468-50.1683 24.0468-49.7658 23.983-48.6104 23.9-47.5098 23.4598-46.616 22.7231-44.996 21.5983-44.0064 20.9682-43.6913 20.7882L-41.0364 25.2877ZM-24.4329-10.619-24.4329-5.71459C-24.5258-4.87464-25.2818-4.26929-26.1218-4.36206-26.1288-4.36288-26.1357-4.3637-26.1427-4.36468-26.6298-4.37188-27.1079-4.4954-27.5376-4.72461-27.9483-4.9337-28.2683-5.28594-28.4375-5.71459L-28.4375-10.2141C-28.5351-10.5938-28.6866-10.9575-28.8876-11.2939-29.4011-12.0658-30.1895-12.6129-31.0923-12.8239L-49.9907-12.8239C-50.412-12.6646-50.8184-12.4689-51.2055-12.239-51.9503-11.7979-52.4735-11.0622-52.6454-10.2141L-52.6454 5.53446C-52.5751 5.70935-52.4844 5.87558-52.3756 6.02953-52.1176 6.33531-51.7407 6.51544-51.3407 6.52444L-35.412 6.52444-34.8271 6.52444C-34.4646 6.35772-34.1877 6.04818-34.0621 5.66943L-34.0621-0.224958C-34.2533-0.56853-34.5544-0.837825-34.9171-0.989979-35.2903-1.04037-35.6687-1.04037-36.0419-0.989979L-37.3018-0.989979-38.6967-0.989979-40.5865-0.584891C-41.1575-0.420467-41.7473-0.329829-42.3414-0.314941-42.8741-0.299726-43.4014-0.423739-43.8712-0.674874-44.2668-0.985725-44.4715-1.48047-44.4111-1.97996L-44.4111-2.24974C-44.4304-2.36901-44.4304-2.49057-44.4111-2.60968-44.3794-3.1962-43.9836-3.69995-43.4212-3.86961L-41.7565-4.58963-34.467-5.89439-32.8022-5.89439C-32.373-5.75434-31.9645-5.55769-31.5872-5.3095-30.8426-4.86858-30.3194-4.13301-30.1475-3.28471L-30.1475 7.87435C-30.2406 8.2922-30.3762 8.69909-30.5524 9.08929-31.0612 9.862-31.8838 10.372-32.8022 10.484L-53.9953 10.484-55.3002 10.1691C-55.4318 10.0572-55.5391 9.91926-55.6153 9.76416-56.0947 9.21788-56.4481 8.57246-56.6502 7.87435L-56.6502-11.7891C-56.5608-12.4655-56.3946-13.1299-56.1551-13.7687-55.4486-15.1319-54.1544-16.0944-52.6454-16.3786L-29.8325-16.3786C-28.3887-16.3776-27.0202-15.7345-26.0979-14.6237-25.1022-13.5978-24.5384-12.2287-24.523-10.7991ZM-25.7828 14.9388-59.3048 14.9388C-59.7826 14.965-60.2282 14.6977-60.4298 14.2638-60.4679 14.0555-60.4679 13.842-60.4298 13.6339-60.4489 9.81242-60.8255 6.00123-61.5547 2.24991-62.0613-0.69647-62.7374-3.61094-63.5795-6.47945-63.8269-7.69209-64.2197-8.87055-64.7495-9.98912L-66.2344-13.6338C-66.7778-14.902-67.6283-16.0154-68.7091-16.8735-69.3025-16.8046-69.8486-16.5155-70.2389-16.0636-70.5732-15.6597-70.7492-15.1478-70.734-14.6237-70.6803-13.5528-70.3881-12.5075-69.879-11.564L-69.069-9.98912C-67.5219-5.72571-66.377-1.32684-65.6495 3.14974-65.0551 6.54178-64.6794 9.96867-64.5245 13.4088L-64.5245 17.5485-67.1792 15.6137C-67.4746 15.1566-67.9849 14.8844-68.5291 14.8937-69.0922 14.8777-69.6342 15.1075-70.014 15.5237-70.7595 16.2542-70.7716 17.4507-70.0411 18.1962-70.0323 18.2052-70.0231 18.2144-70.014 18.2234-67.5391 20.3298-65.2231 22.6157-63.0846 25.0628L-61.7347 26.7276C-60.8331 27.8961-59.7372 28.9005-58.495 29.6976-58.0451 29.9674-57.4602 30.3273-56.7401 30.6872L-37.0319 30.6872-36.0419 30.0123C-35.998 29.7054-35.9226 29.4041-35.8169 29.1125L-35.8169 28.1675C-36.0581 26.0915-36.9386 24.1417-38.3366 22.5881-39.1093 21.6266-39.8015 20.6034-40.4066 19.5283L-39.4166 18.8533-25.9178 18.8533C-25.4945 18.8466-25.0971 18.648-24.8378 18.3135-24.6338 17.9571-24.5253 17.5541-24.523 17.1434-24.3894 16.167-24.9782 15.2363-25.9178 14.9388ZM-88.3274 3.77979-116.585 3.77979C-116.741 3.12716-116.61 2.43904-116.225 1.88997-116.06 1.6143-115.846 1.37053-115.595 1.16995L-89.7223 1.16995C-88.8674 1.48489-88.4623 1.9348-88.4173 2.47487-88.3723 3.01476-88.4173 3.46484-88.4173 3.77979ZM-88.3274 7.37928-88.3274 7.73937C-88.3012 8.2171-88.5685 8.6626-89.0022 8.86433-89.2252 8.90785-89.4544 8.90785-89.6773 8.86433L-115.595 8.86433C-116.016 8.70547-116.334 8.35371-116.45 7.91934-116.471 7.67982-116.471 7.43899-116.45 7.19948ZM-95.3919 24.118-109.341 24.118C-109.341 23.5779-109.026 23.083-108.891 22.5881-108.306 20.8782-108.036 19.9782-107.991 19.8433L-96.6966 19.8433-95.3919 24.3429ZM-116.63-7.01934-122.929-16.8735C-122.976-17.3671-123.219-17.8213-123.604-18.1334-123.978-18.4222-124.437-18.5801-124.909-18.5833-125.431-18.5835-125.938-18.4093-126.349-18.0884-126.898-17.6277-127.112-16.8797-126.889-16.1986L-122.929-9.98912-120.59-6.38946C-120.57-5.89848-120.341-5.4394-119.96-5.12953-119.579-4.82114-119.099-4.66129-118.61-4.67962-118.088-4.67945-117.581-4.85353-117.17-5.17453-116.683-5.65487-116.479-6.35249-116.63-7.01934M-89.6323-8.99914C-89.9937-8.76813-90.4191-8.65786-90.8472-8.6842-91.2811-8.6644-91.7089-8.7912-92.0621-9.04413-92.3992-9.23882-92.6055-9.5999-92.6021-9.98912-92.9559-10.7409-93.3936-11.4504-93.9068-12.1039-94.9738-13.5035-96.647-14.3067-98.4065-14.2638L-107.946-14.2638-108.801-14.2638C-109.971-13.9605-110.82-12.9487-110.915-11.744L-110.915-5.84956C-111.1-5.43073-111.416-5.0834-111.815-4.85958-112.245-4.63037-112.723-4.50685-113.21-4.49965-114.049-4.39494-114.813-4.98998-114.918-5.82846-114.919-5.83549-114.919-5.84253-114.92-5.84956L-114.92-12.1039C-114.706-13.071-114.373-14.0078-113.93-14.8937-112.915-16.6765-110.985-17.7375-108.936-17.6385L-97.0116-17.6385C-95.0651-17.6732-93.1858-16.928-91.792-15.5686-90.3407-14.3183-89.5169-12.4897-89.5423-10.5742-89.479-10.0963-89.479-9.61201-89.5423-9.13428ZM-97.9116-10.3041C-97.6653-10.6462-97.5245-11.0529-97.5066-11.474-97.5163-11.895-97.7358-12.2834-98.0915-12.5088-98.4542-12.7812-98.8979-12.9237-99.3514-12.9139-99.777-12.917-100.196-12.8084-100.566-12.599-101.343-11.2482-102.215-9.95492-103.176-8.72919-103.491-8.27911-103.941-7.73937-104.526-7.01934-104.794-6.62047-104.935-6.14994-104.931-5.66943-104.953-5.10532-104.722-4.56051-104.301-4.18455-103.813-3.77897-103.169-3.61389-102.546-3.73463L-98.0465-10.3041ZM-84.4128-0.134975C-84.7439-1.06753-85.4677-1.80768-86.3925-2.15976-86.8084-2.32533-87.25-2.41662-87.6975-2.42971L-117.89-2.42971C-118.715-2.28885-119.455-1.83811-119.96-1.16978-120.196-0.849769-120.392-0.50227-120.545-0.134811L-120.545 10.3492C-120.563 10.5738-120.563 10.7996-120.545 11.0243-120.51 11.2327-120.51 11.4455-120.545 11.654-120.012 12.1608-119.385 12.5584-118.7 12.8241L-118.205 12.8241-88.0124 12.8241C-86.9657 12.8575-85.9706 12.3684-85.3577 11.519-85.0683 11.1272-84.8547 10.6846-84.7277 10.2142L-84.7277-0.269786ZM-81.398-11.9689C-80.89-12.417-80.4636-12.9497-80.1381-13.5438-79.7596-14.1544-79.5429-14.851-79.5082-15.5686-79.4825-16.0594-79.7016-16.5312-80.0931-16.8283-80.5706-17.1819-81.1771-17.3128-81.7579-17.1884L-90.0374-7.37928C-90.4622-7.14516-90.7222-6.69459-90.7122-6.20933-90.6789-5.6763-90.4163-5.18401-89.9922-4.85942-89.5461-4.47626-88.9523-4.3115-88.3723-4.4095-87.0321-5.49094-85.7969-6.69606-84.6827-8.00916-84.6827-8.00916-81.398-11.9687-81.398-11.9689M-80.723 15.9287-124.324 15.9287C-124.766 15.9038-125.184 16.1302-125.404 16.5137-125.69 16.9211-125.832 17.4116-125.809 17.9085-125.82 18.3976-125.695 18.8804-125.449 19.3034-125.196 19.6695-124.768 19.8747-124.324 19.8433L-111.365 19.8433C-111.365 20.1584-111.725 20.6533-111.995 21.3731-112.288 22.3072-112.633 23.2235-113.03 24.118L-122.569 24.118C-123.271 24.4079-123.707 25.1158-123.649 25.8728-123.689 26.7314-123.28 27.5491-122.569 28.0327L-104.571 28.0327-104.571 31.3173C-104.42 31.743-104.115 32.0962-103.716 32.3072-103.298 32.5692-102.815 32.7096-102.321 32.7122-101.482 32.8143-100.72 32.2173-100.618 31.3786-100.615 31.3582-100.613 31.3379-100.611 31.3173L-100.611 28.0327-82.3428 28.0327C-81.9174 27.8819-81.5641 27.5767-81.353 27.1777-81.1081 26.7707-80.9834 26.3027-80.9931 25.8278-80.8885 24.9893-81.4834 24.225-82.3219 24.1204-82.3289 24.1196-82.3358 24.1188-82.3428 24.118L-91.3421 24.118C-91.3421 23.5779-91.6571 23.083-91.792 22.5881-92.3319 20.8782-92.647 19.9782-92.692 19.8433L-80.723 19.8433C-80.2964 19.8506-79.8932 19.6492-79.6432 19.3034-79.3691 18.8906-79.2278 18.4039-79.2381 17.9085-79.2237 17.4046-79.3482 16.9064-79.598 16.4686-79.8572 16.1094-80.2807 15.9061-80.723 15.9287M-168.87 3.14974C-169.995-0.0899832-171.3-3.3747-172.83-6.7044-174.36-10.0341-175.215-11.8789-176.205-13.8587-176.672-14.9097-177.229-15.9184-177.87-16.8735-178.277-17.3039-178.853-17.5341-179.445-17.5034-179.944-17.5387-180.436-17.3587-180.794-17.0085-181.172-16.632-181.31-16.078-181.154-15.5686-179.669-12.5088-178.275-9.40406-176.655-6.56927L-173.595 0.675038-172.38 3.55483C-172.146 4.38725-171.352 4.93533-170.49 4.85958-169.992 4.88413-169.505 4.70547-169.14 4.36468-168.781 3.97709-168.616 3.44799-168.69 2.92478ZM-154.607 20.5183-154.607 7.73937-165.586 7.73937-165.946 7.37928C-166.421 6.95472-166.698 6.35151-166.711 5.71459-166.673 4.92503-166.253 4.2032-165.586 3.77979L-154.607 3.77979-154.607-11.9689-169.905-11.9689C-170.808-12.2804-171.371-13.1806-171.255-14.1287-171.281-14.5428-171.171-14.9537-170.94-15.2986-170.685-15.6212-170.314-15.8313-169.905-15.8837L-136.023-15.8837C-135.183-15.7907-134.578-15.0347-134.671-14.1948-134.672-14.1877-134.672-14.1809-134.673-14.1738-134.686-13.7018-134.809-13.2395-135.033-12.8239-135.244-12.4247-135.598-12.1196-136.023-11.9689L-150.647-11.9689-150.647 3.77979-139.038 3.77979C-138.11 4.09227-137.528 5.01223-137.643 5.98454-137.623 6.39764-137.733 6.80682-137.958 7.15432-138.224 7.48758-138.614 7.69864-139.038 7.73937L-150.647 7.73937-150.647 20.5183-136.698 20.5183-136.338 20.8332C-135.848 21.2704-135.556 21.887-135.528 22.5431-135.598 23.3227-136.031 24.0234-136.698 24.4329L-150.512 24.4329-150.512 30.6874-150.872 31.0475C-151.314 31.5249-151.931 31.8012-152.582 31.8122-153.369 31.767-154.088 31.3492-154.517 30.6874L-154.517 24.4329-166.891 24.4329-167.295 24.118C-167.757 23.6649-168.03 23.0542-168.061 22.4081-167.991 21.6285-167.557 20.9278-166.891 20.5183ZM-179.489 27.0876-179.849 28.0327C-179.863 28.9402-179.214 29.7226-178.32 29.8774L-177.015 29.8774-169.32 23.803C-168.88 23.4774-168.627 22.9559-168.645 22.4081-168.663 21.8355-168.946 21.3034-169.41 20.9682-169.833 20.5743-170.419 20.4069-170.985 20.5183-172.785 21.7332-174.72 23.2181-176.745 25.018-177.42 25.5578-178.23 26.2777-179.264 27.2227ZM-181.154 14.9388-181.514 15.9287C-181.682 16.6664-181.33 17.4242-180.659 17.7736-180.296 17.9854-179.901 18.1372-179.489 18.2236L-170.22 10.6642C-170.09 10.318-170.014 9.95378-169.995 9.58419-169.984 8.93353-170.353 8.33572-170.94 8.05432-171.231 7.8876-171.552 7.7806-171.885 7.73954-173.197 8.42946-174.421 9.27547-175.53 10.2592L-181.154 14.7589Z" fill-rule="evenodd" transform="matrix(1.00231 0 0 -1 436.055 411.844)"/></g></svg>