<svg width="328" height="290" xmlns="http://www.w3.org/2000/svg" xmlns:xlink="http://www.w3.org/1999/xlink" xml:space="preserve" overflow="hidden"><defs><clipPath id="clip0"><rect x="196" y="53" width="328" height="290"/></clipPath></defs><g clip-path="url(#clip0)" transform="translate(-196 -53)"><path d="M0 0-13.0466 0-13.0466-12.5516-1.93446-12.5516C-0.764886-12.5516-0.224918-13.4964-0.224918-14.8909-0.224918-16.2857-0.764886-17.0505-1.93446-17.0505L-12.9566-17.0505-12.9566-32.3915 0.539804-32.3915C1.70954-32.3915 2.33932-33.1113 2.47427-34.5509 2.60938-35.9904 1.70954-36.7103 0.539804-36.8902L-30.9519-36.8902C-32.1658-36.795-33.0939-35.7682-33.0664-34.5509-33.0664-33.1113-32.2566-32.3915-30.9519-32.3915L-17.1406-32.3915-17.1406-17.0505-27.1729-17.0505C-29.3323-15.611-29.3323-14.1262-27.1729-12.5516L-17.0055-12.5516-17.0055 0-28.5226 0C-29.7821 0-30.502 0.719903-30.637 2.15954-30.6131 3.31718-29.6802 4.25006-28.5226 4.27394L-17.0055 4.27394C-17.6354 5.71358-18.4001 7.24319-19.3 8.7728-19.961 9.86746-19.6202 11.2903-18.5352 11.967-17.4921 12.5948-16.1375 12.2581-15.5096 11.2152-15.4981 11.1959-15.4868 11.1766-15.4759 11.1571-14.1818 8.95339-13.2121 6.57449-12.5967 4.09401L0.0899674 4.09401C1.17955 3.99913 2.00725 3.07296 1.97945 1.97961 1.85954 0.65987 1.22961 0.000163577 0.0899674 0ZM-37.2503 10.2574-31.6718 4.90388C-30.9105 3.97509-30.9105 2.63833-31.6718 1.70954-32.5715 0.719739-33.4263 0.674919-34.191 1.70954-35.7206 3.01423-37.6101 4.76876-39.9496 7.06326-40.8602 7.712-41.0724 8.97613-40.4237 9.8866-40.3878 9.93698-40.3497 9.98556-40.3095 10.0325-39.5598 10.96-38.2001 11.1044-37.2725 10.3548-37.2341 10.3235-37.1966 10.2911-37.1603 10.2574ZM-39.7245-1.88948C-38.06-3.32912-36.6205-4.67879-35.2258-5.9385-34.5825-6.58038-33.8739-7.15322-33.1113-7.64788-32.3493-8.58191-32.3124-9.91228-33.0213-10.8872-33.5752-11.6822-34.6688-11.8777-35.4638-11.3238-35.6341-11.2052-35.782-11.0573-35.9006-10.8872-37.8501-9.02749-39.9645-7.183-42.2439-5.35355-43.1081-4.72525-43.2993-3.51543-42.6709-2.65126-42.6494-2.62149-42.627-2.5927-42.6038-2.56423-41.9999-1.56461-40.7001-1.24384-39.7006-1.84793-39.6784-1.86134-39.6563-1.87525-39.6346-1.88948ZM-35.2258-16.4207C-35.1298-15.3815-34.2097-14.6169-33.1705-14.7129-32.947-14.7335-32.7288-14.7937-32.5265-14.8911-31.3329-15.37-30.6787-16.6592-30.9969-17.9053-32.9766-24.3736-35.6938-30.5928-39.0947-36.4404-39.7548-37.6085-41.2366-38.0205-42.4049-37.3605-42.4417-37.3397-42.4782-37.318-42.5138-37.2952-43.6836-36.4404-43.8185-35.3156-42.9187-33.8762-39.3543-28.5517-36.7507-22.644-35.2258-16.4207" transform="matrix(1.0023 0 0 -1 249.857 377.95)"/><path d="M0 0C2.37252-2.53479 4.61009-5.19275 6.70322-7.96293 7.37569-8.89499 7.21915-10.1874 6.34335-10.932 5.30873-11.7869 4.40889-11.7417 3.64401-10.7071L3.05922-10.0772C0.629935-7.10808-1.43964-4.7686-2.69918-3.05905-3.51642-2.22056-3.51642-0.88348-2.69918-0.0448201-1.97568 0.741004-0.7518 0.791713 0.0341876 0.0680481 0.102563 0.00507089 0.166358-0.0628136 0.224918-0.134787ZM-14.2162 1.03479C-13.0112-0.381135-11.9136-1.8849-10.9322-3.46407-10.3022-4.90371-10.4372-5.93834-11.337-6.65808-12.3645-6.94564-13.4562-6.50153-13.9912-5.57847-14.7561-4.45388-15.7907-3.05905-17.0954-1.34951-17.8535-0.451145-17.7533 0.888714-16.8705 1.66472-15.9708 2.06958-15.071 1.88964-14.2162 1.03479M-21.2794 25.1935-11.6969 25.1935C-11.0783 26.4218-10.5666 27.7013-10.1673 29.0176L-9.94238 29.6472-22.6289 29.6472C-22.2691 29.2873-21.9992 27.7577-21.0995 25.2385ZM-23.2139 0.000163577-23.2139-7.01795C-23.2139-8.00775-22.5839-8.59254-21.2794-8.72749L-9.76244-8.72749C-8.09788-8.72749-7.06309-7.96277-6.70322-5.93834-6.34335-3.91391-5.53348-3.95873-4.40889-4.22879-3.26254-4.63283-2.60366-5.8343-2.87928-7.01795-3.64401-11.022-5.7584-12.8665-9.17749-12.5516L-22.2241-12.5516C-25.5532-12.5516-27.1278-10.932-26.7229-7.24286L-26.7229 0.000163577C-26.8741 1.0325-26.1592 1.9922-25.1267 2.14319-25.0742 2.15087-25.0214 2.15644-24.9684 2.15954-23.861 2.08757-23.0074 1.15469-23.0339 0.0449837ZM-30.5019 9.62749-30.5019 7.91795C-30.5019 7.06326-30.5019 6.61342-29.5572 6.61342L-3.23915 6.61342C-2.47427 6.61342-2.1144 7.06326-2.1144 7.91795L-2.1144 9.62749ZM-30.5019 14.5312-30.5019 12.5967-2.1144 12.5967-2.1144 14.5312C-2.1144 15.3861-2.42928 15.7909-3.05922 15.7909L-29.3773 15.7909C-30.142 15.476-30.5019 15.1162-30.5019 14.5312M-30.5019 19.0301-1.93446 19.0301C0.629935 19.0301 1.84449 17.9503 1.70954 15.431L1.70954 7.10824C1.70954 4.40889 0.584952 3.10437-2.1144 3.23932L-30.6818 3.23932C-33.2462 2.96925-34.416 4.31892-34.1461 7.28818L-34.1461 15.2061C-34.416 17.9055-33.2012 19.0301-30.5019 19.0301M-33.4711-0.809706C-32.9763 0.494984-32.1666 0.855017-30.9969 0.269902-30.0023-0.365758-29.6685-1.66211-30.232-2.69918-31.7413-5.47312-33.4715-8.12095-35.4056-10.6171-36.4404-11.7417-37.3852-11.9668-38.2849-11.2471-39.1669-10.4078-39.2017-9.01244-38.3624-8.13043-38.3372-8.10393-38.3114-8.07809-38.2849-8.05273-36.4967-5.78474-34.9157-3.36069-33.5611-0.809706ZM2.51941 29.6923-5.7584 29.6923C-6.23294 28.6652-6.60949 27.5958-6.88316 26.4982-7.15306 25.5084-7.28801 25.0585-7.28801 25.2385L4.40889 25.2385C5.40246 25.2164 6.19008 24.3931 6.16816 23.3995 6.16735 23.3676 6.16571 23.3357 6.16342 23.304 6.27302 22.4663 5.68299 21.6983 4.84532 21.5887 4.70022 21.5698 4.55333 21.5717 4.40889 21.5945L-37.4302 21.5945C-38.4648 21.5945-39.0048 22.1792-39.1397 23.304-39.1463 24.2904-38.4099 25.1238-37.4302 25.2385L-25.1483 25.2385C-25.3733 25.7784-25.9582 27.2629-26.8579 29.7373L-34.7308 29.7373C-35.6946 29.6379-36.5569 30.3385-36.6565 31.3021-36.6614 31.3502-36.6643 31.3985-36.6653 31.4469-36.6491 32.4406-35.8983 33.2685-34.9108 33.3813L-18.0403 33.3813-18.625 34.0111C-18.9237 34.5604-19.1794 35.1319-19.3899 35.7206-20.0891 36.4953-20.0277 37.6901-19.253 38.3894-19.1189 38.5105-18.9679 38.6117-18.805 38.6899-17.6354 39.2748-16.6906 38.6899-15.9257 37.6103-15.9257 37.2053-15.5208 36.5755-15.161 35.7206-14.7764 34.9051-14.3251 34.1227-13.8113 33.3813L2.29433 33.3813C3.28201 33.2686 4.03283 32.4408 4.04886 31.4469 3.91407 30.2771 3.3741 29.6923 2.51941 29.6923" transform="matrix(1.0023 0 0 -1 297.699 403.368)"/><path d="M155.495 31.3567 148.702 31.3567 148.702 21.9543 155.495 21.9543ZM154.325 45.663 149.827 45.663C149.051 45.4841 148.543 44.7408 148.657 43.9535L148.657 34.9559 155.63 34.9559 155.63 44.1334C155.63 45.1232 155.225 45.663 154.46 45.663ZM145.328 22.809 145.328 45.663C145.328 48.0473 146.767 49.3522 149.557 49.4871L154.775 49.4871C156.856 49.6507 158.675 48.0967 158.839 46.016 158.866 45.6723 158.846 45.3264 158.779 44.9883L158.779 7.24319C158.779 2.8343 156.215 1.33479 151.086 2.74433 150.198 3.02503 149.698 3.96527 149.962 4.85889 150.231 5.84837 150.771 6.29837 151.671 6.11844 154.505 5.44368 155.765 5.84837 155.54 7.42296L155.54 18.3102 148.522 18.3102C148.377 12.7155 146.929 7.23174 144.293 2.2945 143.732 1.37716 142.581 1.01271 141.594 1.43964 140.73 2.06794 140.538 3.27776 141.167 4.14193 141.188 4.17171 141.211 4.2005 141.234 4.22896 144.272 9.9342 145.717 16.3523 145.418 22.809ZM128.637 26.2281 128.637 22.809C128.637 21.5495 129.087 20.9645 129.987 21.0995L137.275 21.0995C138.175 21.0995 138.714 21.7744 138.804 23.0339L138.804 26.2281ZM128.637 33.2912 128.637 29.8723 138.804 29.8723 138.804 33.2912C138.789 34.1616 138.138 34.8893 137.275 35.0007L130.482 35.0007C129.042 35.0007 128.637 34.416 128.637 33.2912M135.835 49.4871 135.835 46.3379 142.134 46.3379C143.033 46.3379 143.483 45.708 143.483 44.4483 143.368 43.5755 142.609 42.9329 141.729 42.9638L135.835 42.9638 135.835 38.465 138.895 38.465C140.694 38.465 141.729 37.1153 141.999 34.416L141.999 22.0441C141.999 18.9401 140.649 17.5454 138.355 17.5454L135.835 17.5454 135.835 13.0466 141.009 13.0466C141.872 12.9352 142.523 12.2074 142.539 11.337 142.539 10.1675 142.134 9.62749 141.234 9.62749L135.835 9.62749 135.835 3.23915C135.769 2.3223 134.973 1.63234 134.056 1.69793 134.019 1.70071 133.982 1.70447 133.946 1.70971 133.052 1.7331 132.346 2.47688 132.369 3.37116 132.37 3.38719 132.37 3.40322 132.371 3.41925L132.371 9.62749 125.083 9.62749C124.244 9.52804 123.483 10.1272 123.384 10.9662 123.378 11.0146 123.375 11.0634 123.374 11.1121 123.245 12.0476 123.899 12.91 124.834 13.0387 124.857 13.0417 124.88 13.0445 124.903 13.0466L132.371 13.0466 132.371 17.5454 129.312 17.5454C127.468 17.2777 125.756 18.5555 125.488 20.3997 125.441 20.7211 125.441 21.0478 125.488 21.3694L125.488 34.866C125.386 36.8758 126.933 38.588 128.943 38.6899 129.066 38.6961 129.189 38.6961 129.312 38.6899L132.371 38.6899 132.371 43.1888 126.613 43.1888C125.702 43.06 124.86 43.6937 124.732 44.6039 124.728 44.6269 124.726 44.6502 124.723 44.6734 124.624 45.6122 125.304 46.4539 126.243 46.5534 126.306 46.5599 126.369 46.5632 126.433 46.5629L132.371 46.5629 132.371 49.4871C132.297 50.4532 133.02 51.2968 133.986 51.3712 134.032 51.375 134.079 51.3768 134.126 51.3766 135.098 51.2834 135.84 50.464 135.835 49.4871M119.91 48.6323C120.046 48.3117 120.245 48.0213 120.494 47.7776 121.714 46.5634 122.87 45.2868 123.958 43.9535 124.727 43.0105 124.727 41.6575 123.958 40.7143 123.059 40.0396 122.204 40.2195 121.439 41.3892L116.94 45.8879C116.123 46.7266 116.123 48.0637 116.94 48.9022 117.867 49.5364 119.113 49.423 119.91 48.6323M117.795 36.2605C117.766 36.1119 117.766 35.9593 117.795 35.8106 119.865 34.2812 121.259 33.1113 122.024 32.4365 122.789 31.7616 123.059 30.0972 122.429 29.2423 121.799 28.3877 120.809 28.2077 119.91 29.2423 118.155 30.772 116.58 32.1216 115.411 33.2914 114.567 33.9375 114.319 35.1015 114.826 36.0355 115.519 36.9128 116.792 37.0618 117.669 36.3686 117.713 36.3342 117.755 36.2982 117.795 36.2605M120.089 22.4042C120.359 23.6639 121.079 24.2487 122.204 24.1137 123.218 23.7012 123.788 22.6186 123.554 21.5495 122.43 15.3015 120.431 9.24325 117.615 3.55404 116.865 2.2945 115.965 1.93463 114.916 2.47443 113.924 3.13626 113.656 4.4771 114.318 5.4692 114.322 5.47574 114.327 5.48212 114.331 5.4885 117.095 10.8033 119.037 16.5069 120.089 22.4042" transform="matrix(1.0023 0 0 -1 196.046 417.18)"/><path d="M0 0-14.981 0C-15.7546-3.60295-16.9003-7.11609-18.4001-10.4822-11.517-15.8807-6.02847-20.4697-1.93446-24.3386 0.802509-17.2096 2.11685-9.61359 1.93446-1.97945 2.03392-0.915704 1.25202 0.0273174 0.188277 0.126609 0.125791 0.132661 0.0629772 0.135278 0 0.134951ZM-13.9912 4.04902 2.51925 4.04902C4.52896 4.04902 5.60857 2.8343 5.7584 0.405017 5.12879-15.6708 3.01423-25.9731-0.584788-30.5019-3.77912-35.6305-11.427-39.9045-23.6189-43.3235-24.9295-43.6481-26.2674-42.9005-26.6779-41.614-27.0267-40.6042-26.4905-39.5027-25.4806-39.1541-25.3011-39.0921-25.1132-39.057-24.9234-39.0498-14.4563-36.7703-7.483-33.0663-4.00404-27.9377-9.12187-22.9482-14.5785-18.3183-20.3348-14.0812-21.189-15.6869-22.2147-17.1952-23.394-18.5801-24.6985-19.8398-25.8233-20.1547-26.8579-19.4349-27.9085-18.4485-27.9609-16.7972-26.9743-15.7466-26.8827-15.6488-26.7836-15.5583-26.6779-15.4759-21.6085-9.17062-18.4821-1.52732-17.6804 6.52345-17.6127 7.56462-16.7136 8.35404-15.6725 8.28632-15.3635 8.26637-15.0643 8.17067-14.8011 8.00791-13.9464 7.28818-13.6314 6.02847-13.9912 4.18397ZM-32.2564 7.01811C-29.5432 5.21876-27.0777 3.071-24.9234 0.629935-23.9503-0.328136-23.73-1.81521-24.3834-3.01407-25.2833-4.00388-26.2731-3.86876-27.4428-2.56423-27.9396-2.28533-28.394-1.93692-28.7925-1.52961-30.4386 0.195147-32.2298 1.77563-34.1461 3.19417-35.2543 3.84112-35.684 5.22809-35.1359 6.3885-34.7112 7.31451-33.6164 7.72084-32.6904 7.29619-32.5335 7.22438-32.3874 7.13081-32.2564 7.01811M-28.2076-22.7191C-27.9606-21.8593-27.0632-21.3628-26.2034-21.6098-26.0181-21.6633-25.8434-21.7494-25.6883-21.8642-24.7122-22.5133-24.3826-23.7936-24.9234-24.8333-27.2812-30.4374-30.302-35.7388-33.9211-40.6244-35.0907-41.749-36.0805-41.974-36.9802-41.2541-37.88-40.5342-37.88-39.3197-36.9802-38.06-33.3671-33.3723-30.4152-28.2103-28.2076-22.7191M-36.0805-7.15306C-33.4047-8.89696-30.9565-10.9674-28.7925-13.3165-27.8135-14.3418-27.5799-15.8696-28.2076-17.1404-29.1072-18.1302-30.1422-17.9953-31.2669-16.7356-33.39-14.6904-35.6281-12.7677-37.97-10.977-39.0473-10.4167-39.4854-9.10241-38.9598-8.00775-38.6287-7.04428-37.5794-6.5318-36.6161-6.86271-36.4226-6.92912-36.2418-7.02727-36.0805-7.15306" transform="matrix(1.0023 0 0 -1 401.32 373.361)"/><path d="M0 0-1.75453-4.90388 21.6843-4.90388C22.9098-4.87819 23.93-5.83839 23.9788-7.06326 24.0103-8.20568 23.1098-9.15753 21.9674-9.18927 21.8729-9.19172 21.7783-9.18796 21.6843-9.17765L-3.28414-9.17765-8.81762-21.5493 2.11456-21.5493 2.11456-14.3063C2.11456-13.1367 2.74417-12.5068 4.00404-12.3718 5.11358-12.3455 6.0463-13.1987 6.11844-14.3063L6.11844-21.5493 19.6149-21.5493C20.7726-21.5734 21.7054-22.5061 21.7292-23.6639 21.7292-25.1035 20.9645-25.8233 19.7948-25.8233L5.98348-25.8233 5.98348-32.6166 23.2589-32.6166C24.4513-32.6372 25.4012-33.6206 25.3805-34.8131 25.3796-34.8607 25.3773-34.9083 25.3733-34.9559 25.3625-36.0491 24.4674-36.9264 23.3743-36.9156 23.2752-36.9146 23.1767-36.9061 23.0789-36.8904L5.98348-36.8904 5.98348-46.9227C6.00884-48.1075 5.23299-49.1605 4.09384-49.4871 2.65436-49.4871 1.97961-49.0371 1.97961-47.7776L1.97961-36.8902-19.3899-36.8902C-20.5597-36.8902-21.0545-36.1705-20.9195-34.776-20.9492-33.6735-20.1265-32.7334-19.0301-32.6166L2.11456-32.6166 2.11456-25.6433-11.382-25.6433C-13.8115-25.6433-14.4411-24.0687-13.3165-21.3695L-7.51309-9.17749-17.6804-9.17749C-18.67-9.17749-19.255-8.45775-19.3899-7.06326-19.5247-5.66844-18.67-5.03883-17.6804-4.90388L-6.16342-4.90388-3.64401 1.34951C-3.14919 2.60922-2.29433 3.05905-1.16958 2.60922-0.144929 2.19193 0.370338 1.04248 0 0" transform="matrix(1.0023 0 0 -1 436.221 367.693)"/><path d="M0 0 0-2.15938C-0.104689-2.99771 0.49024-3.76194 1.32857-3.86663L1.34967-3.86892 19.3449-3.86892C20.101-3.39308 20.5981-2.59777 20.6946-1.70954L20.6946 0ZM0 3.82394 20.5597 3.82394 20.5597 7.42313 0 7.42313ZM0 13.4064 0 11.2921 20.5597 11.2921 20.5597 13.4064C20.5597 14.5312 19.9747 15.116 19.21 15.116L1.79951 15.116C0.449837 15.116-0.134951 14.5312 0 13.4064M6.92814 26.408 12.6865 26.408C13.1107 27.4541 13.6224 28.4624 14.2162 29.4223 14.6109 30.2325 15.062 31.0144 15.5658 31.7616 15.9776 32.7743 17.1322 33.2616 18.1451 32.8499 18.1857 32.8333 18.2258 32.8155 18.265 32.7964 19.2295 32.2461 19.5707 31.0217 19.0299 30.0522 18.567 29.2324 18.0406 28.4501 17.4553 27.7127 17.1749 27.2933 16.9198 26.8576 16.6904 26.408L25.6881 26.408C26.7229 26.408 27.2627 25.5534 27.3977 24.2936 27.5326 23.0339 26.9029 22.359 25.8682 22.359L11.6969 22.359C11.5482 21.8536 11.3678 21.3576 11.1569 20.8744 11.0763 20.1637 10.9562 19.4577 10.7971 18.7602L20.7846 18.7602C23.1237 18.7602 24.2936 17.2605 24.2936 14.2613L24.2936-3.73397C24.2936-6.74821 23.1237-8.23283 20.8296-8.00791L0.764723-8.00791C-2.2945-8.00791-3.73414-6.79319-3.73414-3.95889L-3.73414 14.7111C-4.03594 16.7261-2.64717 18.6041-0.632225 18.9059-0.378354 18.944-0.121211 18.9555 0.134787 18.9401L5.89335 18.9401C6.44379 20.0143 6.82329 21.1679 7.01795 22.359L-4.99368 22.359C-6.11844 22.359-6.70322 22.989-6.70322 24.2936-6.85437 25.3011-6.15998 26.2402-5.15268 26.3914-5.10001 26.3992-5.04701 26.4048-4.99368 26.408L2.69918 26.408C2.42945 26.7229 1.97945 27.2629 1.34951 28.1178 0.875301 28.5287 0.492203 29.0343 0.224918 29.6024-0.545366 30.269-0.629444 31.4338 0.0374591 32.2041 0.0952018 32.271 0.158015 32.3336 0.224918 32.3917 1.20098 32.9709 2.45905 32.6958 3.1042 31.7618 4.53305 30.0926 5.81255 28.3011 6.92814 26.408M-13.4066 30.2771C-11.1772 27.6897-9.1896 24.9038-7.46811 21.9543-6.91293 20.9112-7.0752 19.6317-7.87296 18.7602-8.99772 18.0403-9.89756 18.3103-10.5272 19.6149-12.1844 22.4838-14.0805 25.2077-16.1958 27.7577-17.0156 28.4807-17.0943 29.7318-16.3711 30.5516-16.3165 30.6136-16.2579 30.6723-16.1958 30.727-15.2761 31.2525-14.1144 31.0651-13.4066 30.2771M7.51293-11.7419 25.5082-11.7419C26.6011-11.6292 27.5981-12.3722 27.8027-13.4514 27.7787-14.6092 26.8459-15.5421 25.6881-15.5658L7.10808-15.5658C-1.21472-15.5658-6.74837-13.2265-9.58251-8.95257-11.0442-11.2811-13.0127-13.2494-15.3409-14.7111-16.6006-15.4309-17.5904-15.2509-18.2204-14.0812-18.8356-13.1778-18.6021-11.9462-17.6985-11.331-17.567-11.2412-17.4247-11.1676-17.2754-11.1121-13.9983-9.60835-11.8423-6.3921-11.6971-2.78932L-11.6971 7.64805C-11.6971 8.7728-12.3267 9.35759-13.6315 9.35759L-17.2754 9.35759C-18.2652 9.35759-18.85 10.0773-18.9851 11.517-19.1361 12.5243-18.4418 13.4637-17.4344 13.6145-17.3817 13.6225-17.3289 13.6281-17.2754 13.6314L-11.2921 13.6314C-9.25257 13.6315-8.17296 12.2819-8.0529 9.58251L-8.0529-2.3843C-7.783-8.45775-2.69935-11.6069 7.51293-11.7419" transform="matrix(1.0023 0 0 -1 485.506 398.6)"/><path d="M0 0-302.995 0C-315.907 2.42945-315.367 15.161-306.37 30.9067L-163.397 280.771C-157.998 289.184-144.502 294.582-136.404 280.771L3.68899 36.1705C13.2263 21.0545 21.9542-0.269902 0 0" fill="#FFCC01" fill-rule="evenodd" transform="matrix(1.0023 0 0 -1 509.856 342.409)"/><path d="M0 0-134.965-233.939 134.964-233.939ZM149.99-257.827-153.005-257.827C-165.916-255.398-165.377-242.666-156.379-226.92L-13.4064 22.944C-8.00791 31.3567 5.4885 36.7553 13.5864 22.944L153.679-221.657C163.217-236.638 171.945-258.097 150.17-257.647Z" fill-rule="evenodd" transform="matrix(1.0023 0 0 -1 359.52 84.5822)"/><path d="M0 0 269.299 0 134.695 233.489ZM269.929-0.35987-0.539804-0.35987 134.695 234.208 134.695 233.939ZM135.549 265.07C129.771 264.747 124.514 261.623 121.468 256.703L-21.5043 6.83834C-27.5328-3.68899-29.4673-12.4618-26.993-17.8153-25.281-21.1559-21.9983-23.4064-18.2652-23.7987L284.685-23.7987C290.893-23.7987 294.943-22.1791 296.832-18.805 301.331-10.5721 292.333 5.57863 288.059 12.1018L147.921 256.703C145.732 261.485 141.11 264.693 135.864 265.07ZM285.225-24.1585-18.3103-24.1585C-22.1655-23.7766-25.5588-21.4521-27.3079-17.9953-29.8721-12.5066-27.8927-3.59902-21.8194 7.01811L121.153 256.883C124.315 262.016 129.838 265.225 135.864 265.43 141.259 265.079 146.027 261.797 148.281 256.883L288.554 12.2819C292.738 5.71358 302.051-10.5721 297.552-18.9399 294.769-22.8821 289.992-24.9046 285.225-24.1585" transform="matrix(1.0023 0 0 -1 224.515 318.431)"/><path d="M0 0 0-13.9463 18.2202 6.11844 18.2202-61.4538 0-41.3891 0-55.2904 23.6639-81.3837 48.0025-54.6156 48.0025-41.3891 29.7372-61.4538 29.7372 6.11844 48.0025-13.9463 48.0025-0.719739 23.6639 26.0482Z" transform="matrix(1.0023 0 0 -1 335.892 221.571)"/><path d="M103.039 208.925 108.168 208.925 108.168 185.891 103.039 185.891Z" transform="matrix(1.0023 0 0 -1 196.046 417.18)"/><path d="M103.039 173.07 108.168 173.07 108.168 150.036 103.039 150.036Z" transform="matrix(1.0023 0 0 -1 196.046 417.18)"/><path d="M103.039 137.214 108.168 137.214 108.168 114.18 103.039 114.18Z" transform="matrix(1.0023 0 0 -1 196.046 417.18)"/><path d="M113.926 208.925 119.055 208.925 119.055 185.891 113.926 185.891Z" transform="matrix(1.0023 0 0 -1 196.046 417.18)"/><path d="M113.926 173.07 119.055 173.07 119.055 150.036 113.926 150.036Z" transform="matrix(1.0023 0 0 -1 196.046 417.18)"/><path d="M113.926 137.214 119.055 137.214 119.055 114.18 113.926 114.18Z" transform="matrix(1.0023 0 0 -1 196.046 417.18)"/><path d="M207.996 208.925 213.125 208.925 213.125 185.891 207.996 185.891Z" transform="matrix(1.0023 0 0 -1 196.046 417.18)"/><path d="M207.996 173.07 213.125 173.07 213.125 150.036 207.996 150.036Z" transform="matrix(1.0023 0 0 -1 196.046 417.18)"/><path d="M207.996 137.214 213.125 137.214 213.125 114.18 207.996 114.18Z" transform="matrix(1.0023 0 0 -1 196.046 417.18)"/><path d="M218.884 208.925 224.012 208.925 224.012 185.891 218.884 185.891Z" transform="matrix(1.0023 0 0 -1 196.046 417.18)"/><path d="M218.884 173.07 224.012 173.07 224.012 150.036 218.884 150.036Z" transform="matrix(1.0023 0 0 -1 196.046 417.18)"/><path d="M218.884 137.214 224.012 137.214 224.012 114.18 218.884 114.18Z" transform="matrix(1.0023 0 0 -1 196.046 417.18)"/></g></svg>