<svg width="328" height="290" xmlns="http://www.w3.org/2000/svg" xmlns:xlink="http://www.w3.org/1999/xlink" xml:space="preserve" overflow="hidden"><defs><clipPath id="clip0"><rect x="196" y="53" width="328" height="290"/></clipPath></defs><g clip-path="url(#clip0)" transform="translate(-196 -53)"><path d="M0 0-298.526 0C-311.248 2.39352-310.716 14.9373-301.851 30.451L-160.987 276.674C-155.668 284.919-142.371 290.238-134.392 276.674L3.63461 35.6814C13.0313 20.9211 21.6747-0.487538 0 0" fill="#FFCC01" fill-rule="evenodd" transform="matrix(1.00231 0 0 -1 507.632 338.141)"/><path d="M0 0-132.974-230.488 132.974-230.488ZM147.778-254.025-150.748-254.025C-163.469-251.631-162.937-239.087-154.072-223.573L-13.2087 22.6499C-7.88977 30.8942 5.40758 36.2133 13.386 22.6499L151.413-218.343C160.81-233.103 169.453-254.291 147.956-253.803Z" fill-rule="evenodd" transform="matrix(1.00231 0 0 -1 359.512 84.1163)"/><path d="M0 0 265.327 0 132.708 230.045ZM265.948-0.354692-0.531875-0.354692 132.708 230.754 132.708 230.488ZM133.55 261.161C127.879 260.808 122.72 257.759 119.677 252.961L-21.1871 6.9147C-27.1267-3.45743-29.0327-12.0563-26.5949-17.3753-24.9081-20.6665-21.6738-22.884-17.9959-23.2705L281.018-23.2705C285.513-23.9168 289.993-22.0017 292.631-18.3062 297.064-10.1946 288.199 5.6736 283.988 12.1448L145.784 252.961C143.585 257.649 139.025 260.785 133.86 261.161ZM281.018-23.8023-18.0402-23.8023C-21.845-23.4089-25.1867-21.1029-26.9051-17.6857-29.4316-12.2781-27.4813-3.5461-21.4975 6.9147L119.366 253.138C122.431 258.091 127.733 261.222 133.55 261.515L133.86 261.515C139.176 261.207 143.884 257.982 146.094 253.138L284.298 12.1448C288.42 5.6291 297.595-10.372 293.163-18.8823 291.08-22.0737 287.046-23.8023 281.018-23.8023" transform="matrix(1.00231 0 0 -1 226.498 314.516)"/><path d="M90.8678 142.557 230.18 142.557 230.18 130.723 90.8678 130.723Z" transform="matrix(1.00231 0 0 -1 196.019 427.73)"/><path d="M91.0451 130.9 230.003 130.9 230.003 142.291 91.0451 142.291ZM230.357 130.545 90.6904 130.545 90.6904 142.735 230.357 142.735Z" transform="matrix(1.00231 0 0 -1 196.019 427.73)"/><path d="M0 0 5.18606 10.2833 10.0616 0 29.4759 0 35.6371 9.30821 41.4879 0 58.6415 0 63.8276 9.30821 69.9885 0 88.1174 0 92.9931 9.61857 98.179 0 117.593 0 122.779 10.5936 127.965 0 133.816-11.8346-5.49626-11.8346Z" fill-rule="evenodd" transform="matrix(1.00231 0 0 -1 292.605 214.431)"/><path d="M0 0 138.736 0 128.009 21.852 122.957 11.5687 103.276 11.5687 98.2234 20.8768 93.4807 11.5687 75.1303 11.5687 69.0578 20.4336 63.9604 11.5687 46.5852 11.5687 40.8673 20.4336 34.7948 11.5687 15.159 11.5687 10.4606 21.453 5.40758 11.5687ZM139.312-0.354529-0.531875-0.354529-0.531875-0.088673 5.09739 11.5687 10.4163 22.1622 15.3807 11.7016 34.6175 11.7016 40.8673 21.0985 46.8954 11.8789 63.8717 11.8789 69.0578 21.3201 75.3076 11.8789 93.259 11.8789 98.2234 21.6747 103.498 11.8789 122.735 11.8789 128.009 22.6497 133.373 11.5687Z" transform="matrix(1.00231 0 0 -1 287.363 226.088)"/><path d="M95.3889 202.44 106.736 202.44 106.736 124.65 95.3889 124.65Z" transform="matrix(1.00231 0 0 -1 196.019 427.73)"/><path d="M0 0 10.9038 0 10.9038 77.3464-0.088673 77.3464ZM11.347-0.354529-0.443202-0.354529-0.443202 77.7011 11.347 77.7011Z" transform="matrix(1.00231 0 0 -1 291.895 302.814)"/><path d="M125.53 202.44 136.877 202.44 136.877 124.65 125.53 124.65Z" transform="matrix(1.00231 0 0 -1 196.019 427.73)"/><path d="M125.707 124.916 136.699 124.916 136.699 202.263 125.707 202.263ZM137.054 124.562 125.352 124.562 125.352 202.617 137.054 202.617Z" transform="matrix(1.00231 0 0 -1 196.019 427.73)"/><path d="M154.03 202.44 165.378 202.44 165.378 124.65 154.03 124.65Z" transform="matrix(1.00231 0 0 -1 196.019 427.73)"/><path d="M0 0 10.9925 0 10.9925 77.3464 0 77.3464ZM11.347-0.354529-0.354529-0.354529-0.354529 77.7011 11.347 77.7011Z" transform="matrix(1.00231 0 0 -1 350.583 302.814)"/><path d="M183.196 202.44 194.543 202.44 194.543 124.65 183.196 124.65Z" transform="matrix(1.00231 0 0 -1 196.019 427.73)"/><path d="M183.373 124.916 194.366 124.916 194.366 202.263 183.373 202.263ZM194.72 124.562 183.019 124.562 183.019 202.617 194.72 202.617Z" transform="matrix(1.00231 0 0 -1 196.019 427.73)"/><path d="M213.337 202.44 224.684 202.44 224.684 124.65 213.337 124.65Z" transform="matrix(1.00231 0 0 -1 196.019 427.73)"/><path d="M213.381 124.828 224.462 124.828 224.462 202.263 213.381 202.263ZM224.817 124.562 213.115 124.562 213.115 202.617 224.817 202.617Z" transform="matrix(1.00231 0 0 -1 196.019 427.73)"/><path d="M0 0 0 30.4952C0.0320663 31.0716-0.258003 31.6178-0.753393 31.9136L-1.50695 31.9136-21.985 31.9136C-22.5056 31.9051-22.9735 31.5931-23.1816 31.1157-23.3068 30.8435-23.4105 30.5621-23.492 30.2737L-23.492-0.088673C-23.4031-0.688934-23.1049-1.23848-22.6497-1.63996L-21.985-1.99465-1.28527-1.99465C-0.753884-1.86066-0.332769-1.45623-0.177182-0.93074-0.0212684-0.589954 0.0976712-0.233462 0.177346 0.132846ZM3.01406-2.57086C3.17145-3.37399 2.92261-4.20297 2.34918-4.78703 1.82712-5.28193 1.1858-5.63319 0.487538-5.80645L-23.5806-5.80645C-24.4546-5.64595-25.2239-5.13306-25.7083-4.38817-25.9801-4.04264-26.19-3.65277-26.3289-3.23558L-26.3289 33.4207C-26.195 34.252-25.7899 35.0157-25.1764 35.5927L-24.3342 35.9914 0.93074 35.9914C1.78835 35.8313 2.50575 35.247 2.83688 34.4401 3.01521 34.0151 3.13431 33.5678 3.19141 33.1104L3.19141-2.34918ZM-41.5765 4.87571-41.5765 7.44657-57.09 7.44657-57.09 4.87571C-56.9826 4.48453-56.7674 4.13148-56.4695 3.85613-56.3596 3.73719-56.2228 3.6459-56.0706 3.59028L-42.4186 3.59028-41.9311 4.21082-41.3992 4.87571ZM-41.5765 14.5384-57.09 14.5384-57.09 11.3029-41.5765 11.3029ZM-41.5765 18.4391-41.5765 20.6996-42.5959 21.985-56.0706 21.985C-56.4062 21.8198-56.6843 21.5572-56.8685 21.2315L-56.8685 20.6996-56.8685 18.4391ZM-36.7893-7.75676C-36.0801-7.75676-35.7256-7.04754-35.7256-6.07247-35.7333-5.61225-35.8391-5.15891-36.0359-4.7427-36.1771-4.36903-36.4435-4.05589-36.7893-3.85629L-56.3367-3.85629C-58.1077-3.7223-59.7293-2.81398-60.769-1.3741-62.1259 0.314773-62.958 2.36423-63.1625 4.52118L-63.1625 20.4779C-63.2435 20.8869-63.3621 21.2876-63.517 21.6747-63.8202 22.3806-64.4493 22.8937-65.2015 23.0488L-70.2101 23.0488-70.7419 22.8716C-70.7627 22.7392-70.7627 22.6047-70.7419 22.4726-70.7619 22.1774-70.7619 21.8813-70.7419 21.586-70.8131 21.1606-70.8131 20.7263-70.7419 20.3007-70.586 19.9122-70.3252 19.5745-69.9885 19.3255L-67.1962 19.3255-66.7085 19.3255C-66.3495 19.0781-66.1607 18.6493-66.2211 18.2176L-66.2211 3.36859C-66.8416 2.39352-67.3735 1.63996-67.8167 1.01941-69.0576-0.709221-70.2546-2.30501-71.4957-3.72329-71.7227-4.06293-71.8319-4.46801-71.8058-4.87587-71.816-5.45323-71.6622-6.02208-71.3626-6.51567-71.0525-7.00337-70.7421-7.22489-70.3874-7.22489-70.0134-7.19528-69.6798-6.9785-69.501-6.64884L-64.6696 0.132846C-63.9277-1.75465-62.8793-3.50684-61.5669-5.05305-60.5498-6.53137-58.9226-7.47487-57.1346-7.62392ZM-63.3842 32.1353C-63.1869 31.7351-63.0809 31.296-63.0738 30.8499-63.0364 30.4067-63.1624 29.9651-63.4285 29.6088-63.6599 29.2794-64.0465 29.0946-64.4481 29.1212-64.8059 29.1523-65.146 29.2914-65.4232 29.5201L-69.8555 35.5041C-69.9172 36.1565-69.7615 36.8109-69.4123 37.3657-69.143 37.7021-68.7353 37.8979-68.3042 37.8976L-67.9497 37.8976-63.5172 32.2683ZM-36.1246 29.2099-48.0035 29.2099-48.5799 25.9742-40.2468 25.9742C-39.5611 25.6811-39.0083 25.144-38.6955 24.4672-38.482 24.1382-38.3177 23.7799-38.2078 23.4035L-38.2078 2.39352C-38.3849 1.66761-38.8077 1.02579-39.4045 0.576047L-40.2468 0.132846-57.8436 0.132846C-58.4805 0.309374-59.0027 0.766155-59.2619 1.37394-59.415 1.70082-59.534 2.04226-59.6166 2.39352L-59.6166 23.4035C-59.5135 24.1554-59.1716 24.8546-58.6415 25.3979-58.3963 25.6173-58.1291 25.8106-57.8436 25.9742L-52.037 25.9742C-51.9159 26.515-51.8271 27.0628-51.7711 27.6141-51.7201 28.1516-51.6313 28.6849-51.5051 29.2099L-61.3895 29.2099C-61.7599 29.2173-62.0907 29.4435-62.2318 29.786-62.4224 30.2184-62.5133 30.6879-62.4978 31.1602-62.5181 31.6327-62.427 32.1034-62.2318 32.5342-62.1125 32.8939-61.768 33.1297-61.3895 33.1104L-55.0511 33.1104-56.8242 36.9667C-56.8211 37.3799-56.7304 37.7878-56.5582 38.1634-56.5498 38.311-56.5498 38.4589-56.5582 38.6066-56.1354 38.773-55.6824 38.8486-55.2284 38.8283-54.3863 38.8283-53.6328 38.0749-53.0122 36.5678-52.3917 35.0607-52.037 34.1743-51.5051 33.0219L-47.4716 33.0219-45.6987 37.1884C-45.6987 37.9862-45.1225 38.3851-44.7234 38.4294L-43.704 38.4294C-43.1052 38.0626-42.7497 37.4025-42.7731 36.7007-42.8081 36.0251-42.9737 35.3629-43.2608 34.7503L-44.1916 32.9332-36.1246 32.9332C-35.58 32.4465-35.2593 31.7572-35.238 31.0271-35.2475 30.4191-35.4492 29.8293-35.8142 29.3429L-36.1246 29.0326ZM-82.488-2.43785-82.488 7.26922-83.5076 8.55466-92.9043 8.55466C-93.24 8.38925-93.518 8.12683-93.7022 7.80126L-93.7022 7.26922-93.7022-2.43785C-93.7532-2.87893-93.5463-3.30986-93.1703-3.5461-93.0103-3.58537-92.8428-3.58537-92.6828-3.5461L-83.3304-3.5461C-82.9947-3.3807-82.7167-3.11812-82.5325-2.79238-82.5202-2.61536-82.5202-2.43769-82.5325-2.26051ZM-103.232 25.9742-103.232 32.7558C-103.325 33.1429-103.525 33.496-103.808 33.7753L-104.207 34.0413-107.753 34.0413C-108.1 33.8924-108.382 33.6252-108.551 33.2877-108.582 33.1119-108.582 32.9319-108.551 32.7558L-108.551 26.3289C-108.57 25.8387-108.395 25.3608-108.063 24.9991L-107.532 24.6887-103.986 24.6887C-103.576 24.6912-103.216 24.9611-103.099 25.3536-103.067 25.5594-103.067 25.7685-103.099 25.9742ZM-83.153 32.7558-83.153 34.0413-92.0179 34.0413C-92.3646 33.8924-92.6473 33.6252-92.8156 33.2877-92.8279 33.1107-92.8279 32.933-92.8156 32.7558-92.0423 30.5048-91.0162 28.3487-89.7574 26.3289-89.2432 25.4074-88.65 24.5323-87.9844 23.7137-86.4138 25.5275-85.0877 27.5392-84.0396 29.6974-83.6553 30.4952-83.2121 31.5148-82.7098 32.7558ZM-79.6069-4.38817-79.6069 8.90919C-79.6069 9.48556-80.0058 10.0616-80.2275 10.6822-80.4019 11.2307-80.8315 11.6602-81.3801 11.8347L-82.6212 12.4553-93.6135 12.4553-95.2978 11.5687C-95.874 11.1746-96.2721 10.5694-96.4061 9.88442L-96.8936 7.93411-96.8936-3.67895C-96.7585-4.33009-96.5656-4.96782-96.3174-5.58493-95.8158-6.72606-94.8198-7.57516-93.6135-7.88994L-83.0199-7.88994C-82.4996-7.81272-81.9923-7.66351-81.5129-7.44657-80.412-6.76042-79.6668-5.62665-79.4739-4.34383ZM-76.9476 15.3362C-76.9476 14.0951-76.9476 13.2974-77.834 12.9427-78.2152 12.8746-78.6054 12.8746-78.9864 12.9427-81.0697 14.0064-83.4189 15.292-85.6794 16.7991L-88.5605 18.7494C-90.4709 17.0219-92.5845 15.5333-94.8546 14.3169-95.6082 13.9179-96.6276 13.4304-97.9132 12.8985-98.6856 12.6621-99.5034 13.0966-99.74 13.869-99.7537 13.9143-99.7653 13.9601-99.7747 14.0066-99.8219 14.493-99.8219 14.9828-99.7747 15.4694L-90.5995 21.0985-95.032 28.1905-98.046 24.024C-98.5799 23.5597-99.3738 23.5597-99.9077 24.024-100.172 24.2598-100.318 24.6007-100.307 24.9547L-100.307 22.3839C-100.381 21.8278-100.687 21.329-101.149 21.0098-101.368 20.9645-101.594 20.9645-101.814 21.0098L-104.34 21.0098-104.34 12.9427-99.9077 12.9427C-99.5373 12.9353-99.2066 12.7092-99.0654 12.3666-98.8444 11.9432-98.7376 11.4696-98.7552 10.9923-98.7359 10.5056-98.8267 10.0209-99.0213 9.57423-99.1819 9.23377-99.5319 9.02403-99.9077 9.04219L-104.34 9.04219-104.34-1.59579-99.9077 0.664721C-99.3648 0.699404-98.8434 0.447128-98.5336 1.45309e-16-98.3328-0.381523-98.2407-0.810818-98.2677-1.2411L-98.2677-1.95032C-98.2589-2.05355-98.2589-2.15744-98.2677-2.26051-100.942-3.82194-103.727-5.18492-106.601-6.33849L-110.413-7.75676C-110.73-8.02131-111.09-8.23105-111.476-8.37731-111.843-8.43768-112.218-8.43768-112.584-8.37731L-113.382-8.37731-113.693-8.37731C-113.879-7.95783-113.984-7.50661-114.003-7.04771-114.012-6.28531-113.688-5.55695-113.116-5.05305-112.609-4.51791-111.904-4.21377-111.166-4.21082L-111.166 14.2283C-110.812 14.9817-110.413 15.3362-109.925 15.3362-109.564 15.3023-109.238 15.1068-109.039 14.8043L-108.64 14.2283-108.64-3.23575-106.601-2.26051-106.601 21.0098-109.659 21.0098C-110.355 21.2143-110.923 21.7179-111.211 22.3839-111.402 22.7651-111.551 23.1666-111.654 23.5806L-111.654 35.0164C-111.502 35.8417-111.1 36.6002-110.501 37.1884L-109.659 37.6316-102.346 37.6316C-101.491 37.6424-100.724 37.1075-100.44 36.3018-100.262 35.8885-100.128 35.4576-100.041 35.0164L-100.041 26.1515-100.041 27.0822C-98.8531 28.4364-97.8268 29.9239-96.9823 31.5148-96.1194 33.2087-95.3642 34.9557-94.7218 36.7452L-92.9488 38.0304-80.4935 38.0304C-79.9441 37.8747-79.4903 37.4859-79.2524 36.9667-79.133 36.6813-79.044 36.3842-78.9864 36.0801-79.3547 32.4515-80.6023 28.9674-82.6212 25.9298L-85.7681 21.0985-82.2665 18.5276C-81.5111 17.8948-80.6138 17.4539-79.6513 17.2423-78.5306 16.9688-77.5606 16.269-76.9476 15.292ZM-133.373 25.3093-137.229 25.3093C-137.82 23.0637-138.485 20.803-139.224 18.5276-139.224 17.7299-139.8 16.7546-140.243 15.6022L-133.683 15.6022C-133.683 16.6659-133.683 18.3061-133.461 20.4336-133.24 22.5611-133.461 24.2012-133.196 25.3093ZM-120.075-9.92876-120.607-9.92876-121.139-9.92876C-122.159-9.92876-123.178-9.21954-124.242-7.75676L-126.635-4.25532-129.782 1.63996C-130.863 3.65065-131.668 5.79761-132.176 8.02278-133.506 4.96438-134.88 1.95032-136.165-0.842066-137.484-3.8473-139.347-6.58225-141.662-8.90919-141.937-9.16915-142.302-9.31214-142.681-9.30821-143.131-9.32179-143.565-9.14461-143.878-8.82068-144.232-8.48889-144.426-8.02016-144.41-7.53524-144.387-7.07928-144.216-6.64311-143.922-6.29415-141.858-3.78382-140.06-1.06539-138.559 1.81731-137.325 4.07683-136.244 6.41652-135.323 8.82068-135.013 9.79575-134.658 10.771-134.348 11.7902L-140.243 11.7902C-140.79 11.9943-141.169 12.4947-141.218 13.0758L-141.218 14.3611-142.504 14.6715C-142.263 14.2073-142.156 13.6857-142.193 13.1645-142.182 12.7355-142.273 12.31-142.459 11.9234-142.611 11.6224-142.92 11.4334-143.257 11.4357L-147.689 11.4357-147.689-1.46261-142.858 1.77297C-142.689 2.08463-142.37 2.28619-142.016 2.30501-141.617 2.28096-141.254 2.06664-141.041 1.72863-140.734 1.35562-140.576 0.881822-140.598 0.398865-140.61-0.0991436-140.781-0.580465-141.085-0.975076-141.873-2.09429-142.847-3.06904-143.966-3.85613-145.175-4.65108-146.33-5.52472-147.424-6.47133L-148.31-6.47133C-149.232-6.52597-150.081-5.96661-150.394-5.09723-150.556-4.62409-150.66-4.13295-150.704-3.63461L-150.704 11.5244-154.959 11.5244C-155.295 11.5933-155.586 11.8032-155.757 12.1008-155.906 12.4662-155.982 12.8581-155.978 13.2532-156.106 14.116-155.704 14.9715-154.959 15.425L-150.526 15.425-150.526 21.4531-152.033 21.4531C-152.143 20.9101-152.442 20.4234-152.876 20.079-153.269 19.7373-153.773 19.5485-154.294 19.5472-154.711 19.5248-155.116 19.6869-155.402 19.9904-155.719 20.41-155.876 20.9285-155.845 21.4531-154.826 24.2899-153.806 27.5699-152.743 31.2044L-151.546 35.6369C-151.546 36.7007-151.147 37.4985-151.014 38.0749-150.881 38.6511-150.393 39.6704-149.773 39.8477-149.152 40.0251-148.709 39.8477-148.487 39.4932-148.228 39.084-148.104 38.603-148.133 38.1191-148.127 37.521-148.202 36.9246-148.355 36.3461-148.44 35.7747-148.574 35.2112-148.753 34.6618L-142.681 34.6618C-142.101 34.2864-141.777 33.621-141.839 32.9332-141.797 32.1353-142.104 31.3587-142.681 30.8055L-149.596 30.8055-151.103 25.531-144.543 25.531C-144.206 25.4622-143.916 25.2523-143.745 24.9547-143.649 24.5767-143.649 24.1806-143.745 23.8023-143.618 22.9393-144.019 22.0838-144.764 21.6305L-147.823 21.6305-147.823 15.5135-142.991 15.5135C-143.012 15.3815-143.012 15.2469-142.991 15.1148-142.977 15.3805-142.977 15.6469-142.991 15.9126-142.569 18.4756-141.976 21.0075-141.218 23.4921-140.75 25.0251-140.424 26.5978-140.243 28.1905-139.93 29.3235-139.708 30.4796-139.578 31.6478-139.527 32.7922-139.034 33.8724-138.204 34.6618-137.681 34.7777-137.139 34.5681-136.83 34.13-136.538 33.6185-136.399 33.0338-136.431 32.4455-136.371 31.9746-136.371 31.4981-136.431 31.0272-136.512 30.5022-136.63 29.9838-136.786 29.4759L-133.24 29.4759-133.24 38.6068C-133.261 39.0102-133.098 39.4017-132.797 39.6704-132.526 39.9038-132.179 40.0301-131.821 40.0251-131.141 40.1064-130.523 39.6203-130.442 38.9397-130.429 38.829-130.43 38.7169-130.447 38.6068L-130.447 29.2099-122.602 29.2099C-122.051 28.7472-121.727 28.0681-121.715 27.3483-121.715 26.7385-121.918 26.1458-122.292 25.6638-122.37 25.5383-122.476 25.4321-122.602 25.3536L-130.403 25.3536-130.403 20.9213-130.403 15.7352-120.785 15.7352C-120.441 15.6851-120.143 15.47-119.987 15.159-119.811 14.8019-119.734 14.4036-119.765 14.0066-119.765 12.8985-120.075 12.1893-120.785 11.8789L-130.403 11.8789C-128.63 7.44657-127.611 4.7427-127.256 3.9448-126.163 1.3638-124.764-1.07684-123.089-3.32442L-121.139-5.62926C-120.385-6.42634-119.931-7.46031-119.854-8.55466-119.852-8.97839-119.927-9.39885-120.075-9.79575ZM-184.257 2.08316C-183.746 1.60593-183.484 0.918469-183.548 0.221519-183.533-0.336859-183.671-0.888694-183.947-1.37394-184.148-1.7787-184.559-2.03572-185.011-2.03899-185.28-2.01199-185.538-1.9207-185.765-1.77297-186.784-0.398865-188.114 1.63996-189.798 4.34383-191.482 7.04754-192.856 9.08653-193.876 10.505-193.95 10.8407-193.95 11.1887-193.876 11.5244-193.887 12.0959-193.681 12.65-193.3 13.0758-192.961 13.4819-192.454 13.7106-191.926 13.6964-190.596 12.0563-189.266 10.1503-187.803 8.02278-186.341 5.89512-185.277 4.07781-184.08 2.08316ZM-163.026 15.9569C-162.281 16.4104-161.879 17.2657-162.006 18.1289-161.905 18.5062-161.905 18.9037-162.006 19.2813-162.178 19.5787-162.468 19.7886-162.804 19.8574L-170.472 19.8574-170.472 27.2596C-170.598 27.8968-171.153 28.359-171.802 28.3678-172.542 28.3561-173.211 27.9269-173.531 27.2596L-173.531 19.8574-197.244 19.8574C-197.954 19.8574-198.308 19.1481-198.308 18.1731-198.311 17.7115-198.205 17.2559-197.998 16.8433-197.86 16.4677-197.593 16.1534-197.245 15.9569L-173.531 15.9569-173.531-3.10274C-173.592-3.89589-174.14-4.56748-174.905-4.7872-175.609-4.90876-176.329-4.90876-177.033-4.7872L-178.761-4.7872C-180.009-4.58466-181.219-4.1961-182.351-3.63461-182.744-3.78415-183.083-4.04624-183.327-4.38817-183.533-4.75301-183.64-5.16561-183.637-5.58493-183.621-6.37759-183.34-7.14243-182.839-7.75676-182.469-8.36995-181.825-8.7662-181.11-8.82051L-178.318-9.13087-175.038-9.13087C-173.964-9.11811-172.923-8.7608-172.068-8.11129-171.052-7.36739-170.458-6.17897-170.473-4.91988L-170.473 16.0456ZM-162.538 28.8997C-162.747 27.9647-162.895 27.0171-162.982 26.0628-163.292 23.7137-164.045 22.6056-165.331 22.7384-165.659 22.9964-165.917 23.3313-166.084 23.7137-166.26 24.0868-166.337 24.4991-166.306 24.9104-166.27 25.6862-166.166 26.4576-165.996 27.2153-165.889 27.6823-165.815 28.1563-165.774 28.6337-165.737 29.4082-166.151 30.1343-166.838 30.4952L-192.192 30.4952C-192.862 30.2105-193.39 29.6672-193.654 28.9884-193.794 28.6453-193.898 28.2888-193.965 27.9245L-193.965 24.0682C-194.186 23.1818-194.585 22.7384-195.25 22.7384-195.682 22.772-196.082 22.9801-196.358 23.3148-196.709 23.6979-196.94 24.1757-197.023 24.6887L-197.023 31.7808C-196.887 32.6214-196.464 33.389-195.826 33.9524-195.525 34.1478-195.196 34.2972-194.851 34.3958L-181.199 34.3958-181.199 38.2523C-180.756 39.0057-180.268 39.4045-179.736 39.4045-179.216 39.3605-178.744 39.0835-178.451 38.6511-178.342 38.5327-178.252 38.398-178.185 38.2523L-178.185 34.3958-165.553 34.3958C-164.417 34.1704-163.46 33.4114-162.982 32.3568-162.69 31.759-162.452 31.1358-162.272 30.4952L-162.272 28.8997ZM-210.941-3.10274-210.941-1.06391-230-1.06391-230-3.01423C-229.888-3.39313-229.691-3.74161-229.424-4.03348L-228.981-4.2995-212.093-4.2995C-211.726-4.12804-211.407-3.86938-211.163-3.5461L-210.808-3.01423ZM-210.941 5.6291-230 5.6291-230 2.39352-210.941 2.39352ZM-210.941 10.505C-210.941 11.0189-211.112 11.518-211.428 11.9232-211.585 12.1075-211.763 12.2712-211.96 12.4108L-228.981 12.4108C-229.59 12.1209-229.959 11.4879-229.912 10.8152-229.953 10.1326-229.588 9.48949-228.981 9.1752L-212.093 9.1752C-211.726 9.34666-211.407 9.60532-211.163 9.92876-211.031 10.112-210.912 10.3044-210.808 10.5048ZM-204.647 19.8574-225.479 19.8574C-225.701 19.4142-226.144 18.7936-226.72 17.907L-228.006 15.9567-209.788 15.9567C-209.031 15.6564-208.425 15.0661-208.104 14.3168-207.974 13.91-207.871 13.4955-207.794 13.0757L-207.794-4.65403C-207.94-5.36537-208.147-6.06249-208.414-6.73751-208.725-7.49091-209.168-7.88994-209.788-7.88994L-230.754-7.88994C-231.524-7.86294-232.219-7.42219-232.571-6.73751-232.765-6.38249-232.928-6.01177-233.059-5.62926L-233.059 10.5491-238.333 6.1168C-238.556 5.89185-238.859 5.76424-239.176 5.76211-239.619 5.79205-240.018 6.04155-240.239 6.42699-240.531 6.82586-240.686 7.30734-240.683 7.8011-240.686 8.22025-240.579 8.63302-240.372 8.99786-238.386 10.4278-236.505 11.9979-234.743 13.6964-233.192 15.292-231.862 16.7104-230.798 18.1289-229.734 19.5472-229.779 19.37-229.291 20.0347L-239.176 20.0347C-239.96 20.3935-240.425 21.2162-240.328 22.0737-240.328 23.0931-239.929 23.7137-239.176 23.8908L-227.297 23.8908-226.277 25.3538C-225.878 26.0185-225.524 26.5062-225.302 26.8164L-237.58 26.8164C-237.925 26.9959-238.193 27.2953-238.333 27.6586-238.546 28.0851-238.652 28.5563-238.644 29.0326-238.644 30.0078-238.289 30.5397-237.58 30.6725L-224.283 30.6725-222.776 33.5981-237.092 33.5981C-237.63 34.0711-237.951 34.744-237.979 35.4597-237.96 36.0736-237.742 36.6645-237.358 37.144L-237.092 37.4544-222.421 37.4544-215.861 37.8091-206.508 38.8283C-206.112 38.8386-205.74 38.6356-205.533 38.2964-205.286 37.9146-205.162 37.4657-205.179 37.011-205.068 36.1518-205.512 35.3161-206.287 34.9277L-219.584 33.3321-221.091 30.4065-205.932 30.4065C-205.336 30.0458-205.007 29.3696-205.09 28.678-205.029 27.8772-205.34 27.0927-205.932 26.5504L-222.332 26.5504-223.884 23.6248-204.691 23.6248C-204.14 23.1623-203.816 22.483-203.805 21.7632-203.804 21.1534-204.007 20.561-204.381 20.0789-204.472 19.9639-204.576 19.86-204.691 19.7687ZM-246.489-5.98379C-246.106-6.46331-245.888-7.05441-245.869-7.66825-245.852-8.1234-246.01-8.56791-246.312-8.90919-246.586-9.23443-246.995-9.41456-247.42-9.39689-247.717-9.37218-248.005-9.28122-248.262-9.13103-251.01-5.80661-253.182-3.01423-254.734-0.753557-256.794 2.26182-258.56 5.46779-260.008 8.82051-261.725 12.8915-263.032 17.1231-263.909 21.4531-265.18 15.1682-267.297 9.0844-270.203 3.36859-272.785-1.32519-276.211-5.50247-280.309-8.95368-280.671-9.17193-281.083-9.29398-281.506-9.30821-282.348-9.30821-282.747-8.82068-282.747-7.84544-282.735-7.31863-282.598-6.80214-282.348-6.33849-280.416-4.74777-278.636-2.98216-277.029-1.06391-272.095 5.02164-268.717 12.2177-267.189 19.9017-266.238 24.2702-265.763 28.7286-265.77 33.1992L-265.77 38.8283C-265.416 39.9807-264.84 40.5569-264.13 40.5569-263.421 40.5569-262.889 39.9807-262.49 38.8283L-262.49 31.2931C-262.12 27.5971-261.392 23.9453-260.318 20.3894-259.3 16.7803-258.087 13.229-256.684 9.75142-255.198 6.65211-253.448 3.68615-251.454 0.886403-249.326-1.95032-247.597-4.21082-246.356-5.93962ZM-293.606 11.7902-314.971 11.7902-314.971 5.98379-293.606 5.98379ZM-293.606 15.6465-293.606 20.4779C-293.692 20.8419-293.914 21.1592-294.227 21.3645L-294.626 21.3645-313.951 21.3645C-314.17 21.3499-314.375 21.2552-314.527 21.0985L-314.527 20.6109-314.527 15.7795ZM-289.174 31.4704-307.879 31.4704C-308.486 29.9144-309.258 28.4284-310.184 27.0381-310.585 26.4309-311.03 25.8531-311.514 25.3093L-292.72 25.3093C-292.108 25.2955-291.536 25.0014-291.169 24.5114-290.667 23.92-290.413 23.1579-290.459 22.3839L-290.459-4.83137C-290.343-6.31231-290.786-7.7831-291.7-8.95368-292.608-9.93743-293.911-10.4588-295.246-10.372-297.447-10.2501-299.588-9.61252-301.496-8.51048-302.077-8.1607-302.391-7.4968-302.294-6.82619-302.298-6.34487-302.176-5.87107-301.939-5.45192-301.684-5.09821-301.267-4.89779-300.831-4.92004L-300.122-4.92004C-298.848-5.60587-297.443-6.01373-296-6.11697-294.316-6.11697-293.473-5.00872-293.473-2.79238L-293.473 2.17183-314.971 2.17183-314.971-8.46598C-315.125-8.88039-315.384-9.24719-315.724-9.5299-315.929-9.72835-316.194-9.85318-316.478-9.88442-316.877-9.88442-317.32-9.57423-317.719-8.95368L-317.985-8.46598-317.985 18.1287-318.96 16.6659C-319.821 15.861-320.739 15.1202-321.708 14.4498-321.955 14.386-322.215 14.386-322.462 14.4498-322.908 14.4283-323.331 14.6486-323.57 15.026-323.854 15.4448-324.008 15.9382-324.013 16.4444-324.043 17.0213-323.775 17.5735-323.304 17.907-321.031 19.5778-318.936 21.479-317.054 23.5806-315.556 25.2224-314.178 26.9705-312.932 28.811-312.278 29.6282-311.782 30.5601-311.469 31.5591L-322.55 31.5591C-322.861 31.5591-323.082 31.5591-323.304 32.1796-323.49 32.5819-323.581 33.0219-323.57 33.4651-323.568 33.7836-323.509 34.0994-323.392 34.3958-323.248 34.6829-322.96 34.8694-322.639 34.8835L-310.095 34.8835C-309.873 35.4596-309.652 35.9029-309.519 36.2575-309.12 37.3212-308.765 38.2521-308.544 39.05-308.322 39.8477-307.834 40.2909-307.214 40.2909-306.666 40.2603-306.16 39.9835-305.84 39.5375-305.459 39.0827-305.311 38.4766-305.441 37.8976-305.68 37.1002-305.961 36.316-306.283 35.5482L-306.549 34.8835-289.351 34.8835C-289.037 34.8878-288.746 34.717-288.598 34.4401-288.407 34.0711-288.315 33.6586-288.332 33.2434-288.317 32.7855-288.408 32.3305-288.598 31.9136-288.706 31.5851-289.005 31.3564-289.351 31.3374Z" fill-rule="evenodd" transform="matrix(1.00231 0 0 -1 520.782 417.349)"/></g></svg>