<svg width="1125" height="997" xmlns="http://www.w3.org/2000/svg" xmlns:xlink="http://www.w3.org/1999/xlink" xml:space="preserve" overflow="hidden"><defs><clipPath id="clip0"><rect x="82" y="1134" width="1125" height="997"/></clipPath></defs><g clip-path="url(#clip0)" transform="translate(-82 -1134)"><path d="M0 0-1041.79 0C-1086.19 8.3532-1084.33 52.1288-1053.4 106.267L-561.811 965.535C-543.248 994.306-496.844 1012.87-469.001 965.535L12.6839 124.52C45.4764 73.0101 75.4854-0.928009 0 0" fill="#FFCC01" fill-rule="evenodd" transform="matrix(1 0 0 -1.00003 1158.57 2129.11)"/><path d="M0 0-464.051-804.355 464.05-804.355ZM515.715-886.491-526.079-886.491C-570.473-878.139-568.617-834.363-537.68-780.224L-46.0956 79.0433C-27.5337 107.814 18.8712 126.376 46.7143 79.0433L528.399-761.971C561.192-813.481 591.2-887.42 516.333-885.718Z" fill-rule="evenodd" transform="matrix(1 0 0 -1.00003 642.853 1242.59)"/><path d="M0 0 925.936 0 463.122 803.117ZM928.102-1.23734-1.85602-1.23734 463.122 805.901 463.122 804.818ZM466.062 911.395C446.269 910.166 428.266 899.525 417.646 882.779L-73.9387 23.9758C-94.6665-12.2205-101.318-42.2289-92.8104-60.7908-86.924-72.2767-75.6372-80.0152-62.8014-81.3639L978.838-81.3639C1000.03-81.3639 1014.11-75.7953 1020.6-64.0388 1036.07-35.7317 1005.13 19.6445 990.438 42.2283L508.599 883.243C500.903 899.445 485.043 910.216 467.144 911.395ZM980.693-82.6012-62.9567-82.6012C-76.234-81.2278-87.8959-73.1805-93.8931-61.2548-102.71-42.383-95.9038-11.9111-75.0219 24.5945L416.563 883.861C427.259 901.145 445.761 912.073 466.062 913.096L467.144 913.096C485.683 911.986 502.099 900.744 509.837 883.861L992.14 42.8476C1006.53 20.1085 1038.55-35.7317 1023.08-64.658 1013.51-78.212 997.084-85.1665 980.693-82.6012" transform="matrix(1 0 0 -1.00003 179.731 2047.13)"/><path d="M0 0-77.3419 0-121.426 40.0624-346.027 1.39201-361.495-55.5315-407.901-71-414.862-112.92-350.513-104.721C-337.211-157.313-283.535-140.762-277.967-94.0478L-127.15-70.6906C-115.24-104.566-64.5034-112.455-53.0568-53.6755L26.1412-39.135Z" fill-rule="evenodd" transform="matrix(1 0 0 -1.00003 991.82 1891.97)"/><path d="M0 0 0 0C5.10461-20.2638 17.0152-32.1743 32.1743-32.1743L34.0304-32.1743C54.9629-28.68 70.5827-10.9949 71.464 10.2087L222.589 34.8037C227.569 18.946 242.481 8.33071 259.095 8.81665 276.884 10.2087 290.031 26.1412 295.445 51.6637L373.871 66.0495 349.43 104.102 272.088 104.102 228.159 143.855 4.1766 105.648-11.2919 48.725-57.6968 33.2565-64.3481-7.42519ZM32.1743-33.8757C16.7058-33.8757 4.33127-21.8105-0.928009-1.39258L-65.4308-9.43588-58.4702 32.793-12.0652 48.2615 3.4027 105.185 228.159 143.547 272.088 103.638 349.43 103.638 377.273 65.1215 376.345 65.1215 297.611 50.7362C292.352 24.9038 278.43 8.66198 260.178 7.26996 243.267 6.78346 228.018 17.3881 222.589 33.4111L72.5467 9.43532C71.7638-12.2885 55.667-30.3971 34.185-33.7216Z" transform="matrix(1 0 0 -1.00003 642.08 1996.7)"/><path d="M394.653 732.736 529.228 732.736 529.228 649.671 394.653 649.671Z" transform="matrix(1 0 0 -1.00003 82.0705 2431.99)"/><path d="M395.89 650.289 529.072 650.289 529.072 732.117 395.89 732.117ZM529.846 649.052 394.034 649.052 394.034 733.355 529.846 733.355Z" transform="matrix(1 0 0 -1.00003 82.0705 2431.99)"/><path d="M0 0 50.4269 0 50.4269-83.2199-48.1063-83.2199Z" fill-rule="evenodd" transform="matrix(1 0 0 -1.00003 409.59 1696.76)"/><path d="M0 0 96.8318 0 96.8318 81.8273 47.3329 81.8273ZM98.0692-1.23734-2.16592-1.23734-2.16592-0.309336 45.9409 83.2193 97.4505 83.2193Z" transform="matrix(1 0 0 -1.00003 362.567 1779.36)"/><path d="M0 0 262.962-1.39201 262.962-112.454 164.893-112.454C128.542-42.383 31.7098-31.4004-7.57986-112.454L-68.5247-112.454Z" fill-rule="evenodd" transform="matrix(1 0 0 -1.00003 352.358 1805.66)"/><path d="M0 0 97.1411 0 97.1411 109.826-164.583 110.754-232.644 1.08268-173.246 1.08268C-158.92 34.2716-126.627 56.122-90.4899 57.0782L-89.4072 57.0782C-51.252 56.3481-16.7216 34.3037 0 0M98.3785-1.70135 98.3785-1.70135-0.154668-1.70135C-16.6777 32.2649-50.8678 54.0821-88.6338 54.7576L-89.7165 54.7576C-125.494 53.784-157.413 32.0219-171.389-0.928009L-233.263-0.928009-233.263 0-164.119 111.372 98.8425 109.826Z" transform="matrix(1 0 0 -1.00003 517.25 1917.03)"/><path d="M0 0C39.8104 0 72.0827-31.9263 72.0827-71.3093 72.0827-110.692 39.8104-142.618 0-142.618-39.8099-142.618-72.0827-110.692-72.0827-71.3093-72.0827-31.9263-39.8099 0 0 0" transform="matrix(1 0 0 -1.00003 434.34 1876.97)"/><path d="M0 0C-39.0377-0.512373-70.2683-32.5742-69.7559-71.6125-69.2435-110.65-37.1817-141.881 1.85658-141.369 40.5298-140.86 71.6153-109.367 71.6187-70.6906 70.9415-31.671 39.0253-0.443757 0-0.618672ZM0-142.463C-39.7216-141.951-71.5062-109.335-70.9938-69.613-70.4809-29.8914-37.865 1.89258 1.85658 1.3802 41.2739 0.871766 72.9376-31.27 72.856-70.6906 72.5157-110.611 39.9212-142.721 0-142.463" transform="matrix(1 0 0 -1.00003 434.34 1877.59)"/><path d="M0 0C17.0782 0.512373 30.5073 14.7728 29.9949 31.8509 29.482 48.9291 15.2222 62.3583-1.85602 61.8453-18.5675 61.3436-31.8571 47.6558-31.865 30.937-31.3628 13.7013-17.2424-0.00731158 0 0" fill="#FFFFFF" fill-rule="evenodd" transform="matrix(1 0 0 -1.00003 434.34 1979.84)"/><path d="M0 0C-17.0855 0-30.9364-13.851-30.9364-30.937-30.9364-48.023-17.0855-61.8734 0-61.8734 17.086-61.8734 30.937-48.023 30.937-30.937 30.937-13.851 17.086 0 0 0M0-63.1113C-17.8538-62.9398-32.1884-48.3279-32.0174-30.4741-31.8464-12.6198-17.2345 1.71485 0.619797 1.54387 18.4123 1.37289 32.7227-13.1434 32.6383-30.937 32.5534-48.7913 18.0112-63.1968 0.156355-63.1125 0.104612-63.1119 0.0523059-63.1113 3.247e-15-63.1113" transform="matrix(1 0 0 -1.00003 434.34 1917.34)"/><path d="M0 0-39.9083-5.10461-59.8628-38.671 1.54668-27.8431Z" fill="#FFFFFF" fill-rule="evenodd" transform="matrix(1 0 0 -1.00003 762.269 1887.18)"/><path d="M0 0-19.1811-30.937 40.2177-20.2632 38.8251 6.18729ZM-21.6558-33.1024-0.773903 1.85602 39.7536 6.96063 41.3003-21.9651Z" transform="matrix(1 0 0 -1.00003 722.825 1893.67)"/><path d="M0 0 40.527 8.66198 47.9522-27.0697 3.7126-33.5664Z" fill="#FFFFFF" fill-rule="evenodd" transform="matrix(1 0 0 -1.00003 777.119 1882.07)"/><path d="M0 0 3.55737-32.4837 46.5596-26.6057 39.4443 8.04387ZM2.47469-33.8757-1.39258 0.928009 40.527 9.89988 48.261-27.0697Z" transform="matrix(1 0 0 -1.00003 777.738 1882.54)"/><path d="M0 0 37.7424 7.27053 68.6788-24.1305 8.81665-33.5664Z" fill="#FFFFFF" fill-rule="evenodd" transform="matrix(1 0 0 -1.00003 828.01 1871.86)"/><path d="M0 0 8.50731-32.4837 66.6682-23.203 36.6597 7.73397ZM7.5793-33.8757 7.5793-33.8757-1.54724 0.309336 37.1237 7.73397 68.9887-24.5945 67.7514-24.5945Z" transform="matrix(1 0 0 -1.00003 828.783 1872.33)"/><path d="M0 0C6.62036-0.753093 12.5984 4.00337 13.3515 10.6249 14.1046 17.2452 9.34814 23.2227 2.72778 23.9764 1.82115 24.0793 0.906074 24.0793 0 23.9764-6.62036 24.7295-12.5984 19.973-13.3515 13.3515-14.1046 6.73116-9.34814 0.753656-2.72778 0-1.82115-0.103487-0.906074-0.103487 0 0" fill="#FFFFFF" fill-rule="evenodd" transform="matrix(1 0 0 -1.00003 677.657 2012.01)"/><path d="M0 0C-6.32115-0.0849269-11.3763-5.27896-11.2908-11.6001-11.2053-17.9213-6.01125-22.9769 0.309336-22.8909 6.5703-22.8065 11.6007-17.707 11.6012-11.4466 11.5169-5.09955 6.34702 0.00056243 0 0M0-24.1305C-7.0045-24.045-12.6142-18.2975-12.5281-11.2925-12.4426-4.28796-6.69516 1.32115 0.309336 1.23566 7.25309 1.15129 12.838-4.50225 12.8386-11.4466 12.7542-18.4769 7.03093-24.131 0-24.1305" transform="matrix(1 0 0 -1.00003 677.657 1988.65)"/><path d="M0 0C6.6631 0.0854893 11.9949 5.55624 11.91 12.2193 11.824 18.8819 6.35377 24.2143-0.309336 24.1288-6.91113 24.0439-12.2193 18.6682-12.2199 12.0652-12.135 5.37739-6.68897-0.00056243 0 0" fill="#FFFFFF" fill-rule="evenodd" transform="matrix(1 0 0 -1.00003 903.031 1973.34)"/><path d="M0 0C-6.32115-0.0854893-11.3757-5.28009-11.2896-11.6012-11.2036-17.9224-6.00956-22.9769 0.311586-22.8909 6.63217-22.8048 11.6862-17.6119 11.6012-11.2919 11.5169-4.97075 6.3234 0.0849269 0.00224972 0ZM0-23.9758C-7.0045-23.8909-12.6136-18.1429-12.5281-11.1384-12.4426-4.13329-6.69516 1.47582 0.309899 1.39033 7.25309 1.3054 12.8386-4.34702 12.8386-11.2919 12.8391-18.297 7.16085-23.9764 0.155793-23.9769 0.104049-23.9769 0.0523059-23.9764 5.6198e-16-23.9758" transform="matrix(1 0 0 -1.00003 903.031 1949.98)"/><path d="M0 0C16.7058 65.586 43.6209 18.2525 65.586 27.3791 118.642 23.6665 101.472-12.9938 91.2632-46.2503 103.792-84.4572 95.4398-101.318 56.4595-87.0866 45.6316-115.24 29.081-113.074 10.0546-93.8925-23.6665-67.2874-43.7756-38.5157 0 0" fill="#FFFFFF" fill-rule="evenodd" transform="matrix(1 0 0 -1.00003 620.424 1853.61)"/><path d="M0 0-6.34196-76.8774-17.9438-71.7728Z" fill-rule="evenodd" transform="matrix(1 0 0 -1.00003 658.322 1766.52)"/><path d="M0 0 10.2087-4.48594 15.9325 63.7295ZM11.2919-6.34196-1.54668-0.618672 18.4078 79.0433Z" transform="matrix(1 0 0 -1.00003 641.152 1837.99)"/><path d="M0 0-43.6209-59.0894-55.2221-53.9842Z" fill-rule="evenodd" transform="matrix(1 0 0 -1.00003 746.955 1809.06)"/><path d="M0 0 10.2087-4.48594 49.0349 47.797ZM10.6732-6.18729-2.16592 0 59.7075 60.1721Z" transform="matrix(1 0 0 -1.00003 692.816 1862.74)"/><path d="M0 0 71.3093 31.0911 59.7075 36.1957Z" fill-rule="evenodd" transform="matrix(1 0 0 -1.00003 540.144 1964.06)"/><path d="M0 0-51.5095-30.9364 10.3639-4.17604ZM-68.2154-39.9083-0.154668 1.39258 12.6839-4.33071Z" transform="matrix(1 0 0 -1.00003 600.006 1928.48)"/><path d="M0 0C0.550056 2.29359-0.156355 4.70641-1.85602 6.34196-3.6721 7.58099-5.84927 8.17941-8.0433 8.04387-10.4123 8.21147-12.7896 8.21147-15.1586 8.04387L-20.5725 8.04387-36.041 5.72328-48.2615 4.79527C-56.7688 3.86727-61.1001 0-61.1001-6.65129L-61.1001-109.206C-64.6839-109.256-68.1963-110.214-71.3088-111.99-74.5574-113.347-76.514-116.692-76.104-120.189-75.9527-121.618-75.4764-122.994-74.712-124.211L-72.392-124.211-67.5967-124.211-65.1215-124.211C-63.7356-124.4-62.3307-124.4-60.9449-124.211L-60.9449-153.446C-60.9173-154.854-60.1541-156.145-58.9342-156.849-57.7317-157.603-56.3313-157.98-54.9128-157.932-53.0911-157.966-51.3048-157.425-49.8082-156.385-48.4106-155.494-47.4989-154.012-47.3329-152.363L-47.3329-121.426C-41.7643-121.426-37.2784-119.88-33.721-119.106-23.5264-116.995-13.5366-113.993-3.8667-110.134-3.77503-109.675-3.77503-109.202-3.8667-108.743-3.69123-107.823-3.69123-106.878-3.8667-105.958-3.87851-104.521-4.43082-103.141-5.41395-102.092-6.79752-100.776-8.61136-100.006-10.518-99.9257L-48.2615-107.814-48.2615-78.5793-14.2306-78.5793C-11.3436-78.2598-9.26265-75.6603-9.58155-72.7739-9.58436-72.7497-9.58717-72.7255-9.59055-72.7013-9.61586-71.0765-10.0405-69.4825-10.8279-68.0613-11.5973-66.6884-12.7913-65.6035-14.2306-64.9674L-48.1063-64.9674-48.1063-42.8476-14.2306-42.8476C-11.5754-41.4662-9.9072-38.725-9.89988-35.7317-9.6811-32.829-11.4674-30.1496-14.2306-29.2351L-48.1063-29.2351-48.1063-11.9106C-47.3611-9.92294-45.8594-8.3099-43.9297-7.42463-41.5714-6.73003-39.1175-6.4162-36.6603-6.49662L-28.6164-6.49662-16.0872-5.56861C-10.1575-5.93419-4.35545-3.73734-0.154106 0.464004ZM86.6232-146.485C88.9432-146.485 90.1805-148.496 90.1805-150.352 90.0236-152.129 89.1248-153.758 87.7053-154.839 86.4252-156.212 84.6338-156.996 82.7559-157.003L81.054-157.003C68.2064-151.306 56.0613-144.144 44.8583-135.657 42.8476-134.265 40.3723-132.409 37.4336-129.934 29.4803-136.611 20.6929-142.227 11.2919-146.64 2.42351-151.074-3.29977-154.168-5.87795-155.921-7.04387-156.883-8.55174-157.33-10.0546-157.159-12.0624-157.159-14.0163-156.507-15.6226-155.303-17.149-154.297-18.1209-152.639-18.2525-150.816-18.1355-149.271-17.3431-147.857-16.0872-146.949L28.3071-122.045 3.24803-89.2519C1.57874-87.9544 0.606299-85.9539 0.619235-83.838 0.573116-81.8897 1.29528-80 2.62992-78.5793 3.83914-77.1974 5.58886-76.4077 7.42463-76.4134 8.8487-76.491 10.2075-77.0349 11.2919-77.9606L38.671-112.919C45.059-106.724 50.2964-99.4443 54.1395-91.4179 55.8853-87.7919 57.4342-84.0737 58.7801-80.2806 59.5534-78.5793 60.0174-77.1873 60.4814-75.9499 60.6603-74.9263 60.6603-73.8791 60.4814-72.856 60.5731-71.4584 59.5529-70.2334 58.1608-70.072L5.56861-70.072C2.78459-68.3706 1.23734-66.8239 1.23734-64.9674L1.23734-61.1001C1.79134-59.6637 2.7604-58.4246 4.02193-57.5427 4.57086-57.1091 5.20247-56.7936 5.87795-56.6142L70.8453-56.6142C73.0484-56.5624 75.1333-57.6057 76.4139-59.3982 76.8774-60.3031 77.2908-61.2328 77.6513-62.1833L77.6513-67.7514C76.8886-81.3138 71.7919-94.2728 63.1113-104.72 56.3048-113.228 51.5095-120.189 47.6428-123.747L85.2306-146.176ZM90.1805-34.9584C90.2053-39.1024 88.2519-43.0101 84.9212-45.4769 83.3498-46.667 81.6344-47.6541 79.8166-48.4162L59.0894-48.4162C56.4246-48.0174 54.0883-46.4218 52.7469-44.0849 51.9983-43.014 51.4724-41.8048 51.2002-40.5275L51.2002-11.9106 46.5596-7.42463 24.9038-7.42463 20.4184-11.9106C20.239-20.9151 18.2941-29.797 14.6952-38.0523 13.4578-40.9916 11.4466-44.7036 8.97131-49.1895 8.06468-50.6592 6.70922-51.7986 5.10461-52.4376 3.46963-53.248 1.67042-53.671-0.154668-53.6755-1.76828-53.7581-3.3577-53.2649-4.64061-52.2835-5.72441-51.122-6.18448-49.5107-5.87795-47.9522-0.464004-38.671 2.32002-33.4117 2.62992-32.4837 5.32958-27.0394 7.1063-21.185 7.88864-15.1592L7.88864-1.54724C8.38639 1.20135 9.94151 3.64398 12.2199 5.25928 13.3313 6.09674 14.5231 6.82227 15.7778 7.42463L53.5202 7.42463 58.0067 5.10405C59.9145 5.06693 61.5905 3.82565 62.1828 2.01069 62.1828-0.773341 63.4207-2.78403 63.73-3.86727L63.73-29.8538C64.0619-31.2756 64.9544-32.5028 66.2047-33.257 67.4685-34.0186 68.9066-34.4443 70.3813-34.4944 73.2632-34.8543 75.8914-32.8088 76.2503-29.9263 76.2531-29.9021 76.2564-29.8779 76.2587-29.8538L76.2587-19.6451C76.4387-18.2418 77.1603-16.9646 78.2699-16.0872 79.464-15.3144 80.8706-14.9364 82.2913-15.0045 85.6215-14.6288 88.7902-16.5298 90.0253-19.6451L90.0253-34.3397ZM-123.902-135.193-123.902-101.472-128.542-96.9865-170.925-96.9865C-172.33-97.5208-173.561-98.4302-174.483-99.6158-174.916-100.165-175.232-100.797-175.411-101.472L-175.411-135.193C-175.567-136.89-174.638-138.502-173.091-139.215-172.375-139.346-171.641-139.346-170.925-139.215L-128.696-139.215C-127.277-138.629-126.008-137.731-124.984-136.586L-124.056-134.575ZM-217.485-36.041-217.485-11.9106C-217.979-10.4854-218.896-9.24409-220.114-8.3532L-221.971-7.42463-237.439-7.42463C-238.844-7.95838-240.074-8.86839-240.997-10.0546-241.43-10.6035-241.746-11.2351-241.925-11.9106L-241.925-34.4944C-241.967-36.288-241.092-37.9781-239.605-38.9803-238.933-39.4342-238.205-39.7986-237.439-40.063L-221.971-40.063C-220.364-40.1805-218.843-39.3284-218.103-37.8976-217.976-37.1293-217.976-36.3453-218.103-35.577ZM-126.222-12.3746-127.304-7.88864-167.367-7.88864C-168.836-8.38133-170.127-9.2964-171.08-10.5186-171.453-11.1029-171.764-11.7255-172.008-12.3746-168.384-20.4168-163.814-27.9977-158.396-34.9584-156.385-37.4336-153.755-40.3723-150.352-43.9297-143.407-37.8594-137.365-30.8279-132.409-23.0478-130.656-20.2632-128.645-16.7058-126.376-12.3746ZM-110.753-141.999-110.753-95.5945-113.538-89.4072C-114.51-87.3656-116.413-85.9229-118.642-85.5399L-124.366-83.2199-174.328-83.2199-181.908-86.4679C-184.334-87.5348-186.152-89.6366-186.857-92.1912L-189.178-98.9977-189.178-139.679C-188.48-141.936-187.547-144.114-186.393-146.175-183.726-150.477-179.325-153.412-174.328-154.219L-126.376-154.219C-124.055-154.066-121.765-153.598-119.57-152.827-114.919-150.873-111.513-146.775-110.444-141.845ZM-99.3065-73.32C-99.3065-77.496-99.3065-80.2806-103.328-81.518-105.024-81.7148-106.737-81.7148-108.433-81.518-117.868-77.8059-128.078-73.1653-139.37-67.9061-142.927-66.2047-147.413-64.0388-152.518-61.2548-161.416-67.3391-170.898-72.5208-180.825-76.7227-184.434-78.2699-189.075-79.9713-194.747-81.8273-199.078-81.8273-201.862-81.8273-203.099-77.8059-203.365-76.1665-203.365-74.4949-203.099-72.856L-160.871-52.4376-180.052-27.3791-193.664-42.8476C-194.906-43.6417-196.368-44.0208-197.84-43.9297-199.373-43.9477-200.878-43.5174-202.171-42.6923-203.296-42.0079-203.95-40.7587-203.872-39.4443L-203.872-48.4162C-204.366-50.5568-205.782-52.3689-207.74-53.3661L-210.833-53.3661-222.125-53.3661-222.125-81.518-202.79-81.518C-201.263-81.3942-199.808-82.1828-199.078-83.5292-198.096-84.9297-197.607-86.6158-197.685-88.3239-197.632-90.0079-198.061-91.6721-198.923-93.1192-199.793-94.3779-201.264-95.0838-202.79-94.9758L-222.125-94.9758-222.125-132.254-202.79-124.366C-200.561-124.181-198.36-124.971-196.758-126.531-195.774-127.753-195.278-129.296-195.365-130.862L-195.365-133.337C-195.267-133.691-195.267-134.066-195.365-134.42-207.599-139.953-220.151-144.756-232.953-148.805L-250.123-153.601C-251.586-154.591-253.208-155.323-254.918-155.766-256.612-155.993-258.33-155.993-260.023-155.766L-263.58-155.766-264.973-155.766C-265.725-154.276-266.148-152.64-266.21-150.971-266.182-148.146-264.727-145.528-262.343-144.011-259.822-142.061-256.714-141.024-253.526-141.071L-253.526-76.8774C-252.483-74.671-250.381-73.1524-247.958-72.856-246.383-72.9342-244.894-73.5962-243.781-74.712L-242.08-76.8774-242.08-137.668-232.953-134.265-232.953-53.6755-246.72-53.6755C-249.613-53.032-252.124-51.2469-253.681-48.7255-254.565-47.4235-255.292-46.0214-255.847-44.5489L-255.847-4.02137C-255.015-0.925759-253.092 1.76659-250.433 3.55737-249.247 4.14961-248.003 4.61642-246.72 4.94994L-213.617 4.94994C-210.16 5.19122-206.864 3.45388-205.111 0.464004-204.233-0.911136-203.605-2.42913-203.254-4.02193L-203.254-34.9584-202.171-31.5551C-196.983-27.0101-192.408-21.8105-188.559-16.0872-184.635-10.2818-181.17-4.17885-178.195 2.16592L-170.306 6.65129-114.311 6.65129C-112.115 6.11473-110.189 4.79415-108.897 2.93926-108.321 1.96175-107.854 0.924634-107.505-0.154668-109.403-13.3375-115.163-25.6631-124.056-35.577L-138.287-53.0562-122.818-62.1828C-119.182-64.3335-115.208-65.8504-111.063-66.6687-106.315-67.428-101.988-69.838-98.8425-73.4747ZM-332.724-73.32C-332.583-72.1901-332.583-71.0467-332.724-69.9173-332.631-69.095-332.631-68.2643-332.724-67.4421-332.657-67.1361-332.657-66.82-332.724-66.514L-388.41-66.514-389.493-67.5967C-385.187-79.7598-379.03-91.1861-371.24-101.472-368.456-105.185-364.589-109.67-359.793-114.93-350.998-107.337-343.93-97.9488-339.066-87.3965-336.622-82.721-334.553-77.8588-332.878-72.856ZM-294.053-146.485C-291.888-147.413-290.959-148.651-290.959-150.352-291.066-151.92-291.723-153.399-292.816-154.529-293.467-155.371-294.251-156.102-295.136-156.695L-303.18-156.695C-317.012-153.425-330.446-148.653-343.242-142.463-347.729-140.143-353.452-137.049-360.103-133.028L-381.759-146.485C-395.062-151.589-405.116-155.148-411.613-157.468-421.834-161.203-432.598-163.241-443.477-163.501-444.683-163.468-445.788-162.827-446.417-161.799-447.216-160.609-447.647-159.21-447.654-157.777-447.646-156.366-447.273-154.98-446.571-153.755-445.899-152.715-444.714-152.123-443.477-152.209L-418.264-145.402C-410.228-142.997-402.327-140.156-394.598-136.894-386.517-133.373-378.797-129.073-371.549-124.056L-384.079-108.587C-387.701-103.614-390.472-98.0731-392.278-92.1912-394.173-86.2475-396.393-80.4122-398.929-74.712L-414.397-100.235C-419.485-108.886-425.334-117.065-431.876-124.675-433.934-127.288-436.155-129.769-438.527-132.1-440.854-134.638-444.065-136.188-447.499-136.431-449.282-136.368-451.005-135.776-452.449-134.729-452.598-133.755-452.598-132.765-452.449-131.79-452.025-128.394-450.307-125.291-447.654-123.128-445.15-120.729-442.774-118.199-440.538-115.548-433.103-108.254-426.561-100.102-421.048-91.2638-415.661-82.3543-410.855-73.1052-406.663-63.5748-404.188-58.0067-400.321-48.1063-394.907-34.4944L-428.319-34.4944C-430.818-34.6597-433.259-33.694-434.97-31.865-436.386-29.8869-437.094-27.4887-436.981-25.059-437.012-22.4409-436.646-19.8335-435.898-17.3251-435.092-14.712-434.057-12.1755-432.804-9.74522-431.476-5.7216-429.874-1.79359-428.009 2.01069-425.741 6.96063-422.801 9.43532-419.192 9.43532-417.588 9.39539-416.008 9.02699-414.552 8.3532-414.057 6.80202-413.796 5.1856-413.778 3.55737-414.157-0.522497-415.257-4.50281-417.027-8.19797-418.891-12.1867-419.993-16.4882-420.275-20.8824L-392.896-20.8824C-390.904-15.302-389.2-9.62261-387.791-3.86727-387.791-1.85658-386.709 0.773341-386.09 3.86727L-384.853 9.43532C-384.854 10.8538-384.16 12.1828-382.997 12.9938-381.815 13.811-380.41 14.243-378.974 14.2312-377.445 14.2227-375.946 13.7947-374.643 12.9938-373.404 12.1867-372.562 10.8948-372.323 9.43532L-372.323 3.55737-376.963-21.1918-327.929-21.1918-341.541-11.1372-347.11-5.72328C-349.012-4.03543-350.269-1.73903-350.667 0.773341-350.587 2.36839-349.716 3.81833-348.347 4.64061-347.592 6.64567-345.695 7.99212-343.552 8.04387-341.197 7.92576-338.957 6.99606-337.21 5.41395-335.389 3.87739-333.777 2.10911-332.414 0.154668-329.548-1.94826-326.81-4.22103-324.216-6.65129-321.413-8.79696-319.576-11.9679-319.112-15.4685-319.272-17.7323-320.399-19.8178-322.206-21.1918L-298.229-21.1918C-296.533-21.4511-295.02-22.4033-294.053-23.8211-292.994-25.2497-292.45-26.9938-292.506-28.7711-292.439-30.1434-292.819-31.5006-293.589-32.6378-294.348-33.8999-295.678-34.7098-297.147-34.8037L-380.367-34.8037-385.471-52.4376-318.184-52.4376C-316.764-53.0236-315.495-53.9229-314.472-55.0675L-313.543-57.0782-313.543-62.6468-315.863-70.5354C-318.02-80.5399-322.062-90.0416-327.774-98.5332-333.808-106.971-340.479-114.935-347.729-122.355-341.806-127.075-335.309-131.025-328.393-134.111-326.227-135.039-314.472-139.061-293.125-146.021ZM-509.218-42.8476-509.218-31.5551-609.299-31.5551-609.299-42.8476C-608.701-44.2587-607.741-45.4865-606.514-46.4055L-604.658-47.3329-513.394-47.3329ZM-509.218-18.7165-509.218-10.8279C-509.713-9.40213-510.63-8.16142-511.847-7.26996L-513.704-6.34196-604.967-6.34196C-606.611-6.24128-608.169-7.08043-608.989-8.50787-609.139-9.27334-609.139-10.0619-608.989-10.8279L-608.989-18.7165ZM-482.458-91.5725-484.932-120.189C-486.462-127.797-488.957-135.179-492.358-142.154-495.783-149.376-503.081-153.96-511.074-153.91L-516.797-153.91-525.924-152.828C-530.255-151.745-533.503-150.971-535.514-150.198-537.525-149.425-541.237-146.64-541.237-143.855-541.341-143.085-541.341-142.305-541.237-141.535-540.637-140.112-539.536-138.957-538.144-138.287-536.822-137.547-535.327-137.174-533.813-137.204-531.416-137.381-529.038-137.742-526.697-138.287-524.267-138.933-521.781-139.348-519.273-139.525L-517.261-139.525C-508.074-137.138-501.16-129.557-499.628-120.189-497.888-111.485-497.162-102.609-497.462-93.7384-496.784-90.9775-497.675-88.0669-499.782-86.1586-500.828-85.5011-501.979-85.0303-503.185-84.7666L-512.312-84.7666C-519.88-99.8532-530.4-113.267-543.248-124.211-553.147-132.692-564.058-139.914-575.732-145.712-580.595-148.555-585.791-150.79-591.2-152.363-591.603-152.494-592.036-152.494-592.437-152.363L-593.83-152.363C-595.566-152.406-597.243-151.735-598.471-150.507-599.656-149.252-600.319-147.593-600.327-145.867-600.251-144.444-599.826-143.063-599.089-141.845-591.849-139.418-584.898-136.202-578.362-132.254L-574.03-129.47C-564.413-124.753-555.676-118.422-548.198-110.754-542.405-104.733-537.224-98.1524-532.73-91.1085-531.029-88.1698-529.173-85.2306-527.471-82.1372L-554.54-82.1372-565.832-98.9977C-574.264-107.937-583.957-115.597-594.603-121.736-602.882-126.751-611.576-131.047-620.59-134.574-624.295-136.213-628.122-137.558-632.037-138.597-632.854-138.759-633.694-138.759-634.512-138.597-636.151-138.66-637.715-137.907-638.688-136.586-639.864-135.212-640.472-133.442-640.39-131.636-640.584-129.317-638.971-127.234-636.678-126.84-623.712-122.48-611.305-116.614-599.708-109.361-588.564-102.457-578.849-93.4775-571.092-82.9105L-597.851-82.9105-621.828-99.7711C-624.894-102.273-628.412-104.163-632.192-105.34L-637.76-106.577C-639.037-106.656-640.265-106.071-641.008-105.03-641.801-103.962-642.185-102.645-642.091-101.318-642.281-98.8447-641.012-96.4882-638.843-95.2851-630.276-90.8245-622.1-85.6507-614.403-79.8166-608.679-75.4859-603.111-70.8453-597.387-65.7407L-591.045-59.5534-613.784-59.5534C-617.247-59.3363-620.323-57.266-621.828-54.1395-622.426-52.6575-622.791-51.0922-622.91-49.4989L-622.91-1.70135C-622.172 1.24184-620.198 3.72272-617.497 5.10461-616.175 5.95557-614.777 6.6811-613.32 7.26996L-503.804 7.26996C-500.97 6.32846-498.523 4.48031-496.844 2.01069-496.044 0.820022-495.321-0.419572-494.678-1.70135L-494.678-51.3549C-495.532-54.1243-497.49-56.419-500.092-57.6968-501.236-58.4139-502.49-58.9364-503.804-59.2435L-573.412-59.2435-584.858-71.6187-492.048-71.6187C-488.185-71.8537-484.752-74.162-483.076-77.6507-482.383-79.3358-481.916-81.1035-481.684-82.9105L-481.684-91.8819ZM-772.954-133.337C-772.802-134.621-772.802-135.92-772.954-137.204-773.564-138.866-774.706-140.279-776.202-141.226L-811.934-141.226-816.419-136.74-816.419-75.7947C-816.173-75.1462-815.863-74.5247-815.491-73.9387-814.558-72.7638-813.331-71.8566-811.934-71.3088L-776.511-71.3088-774.81-72.2368C-773.789-73.1473-773.176-74.4286-773.108-75.7947L-773.108-133.337ZM-701.18-37.5877-701.18-25.2132-728.559-25.2132C-728.548-36.9213-727.251-48.5922-724.692-60.0169-722.617-68.838-719.982-77.518-716.804-86.0039-715.76-89.5394-714.361-92.96-712.627-96.2126L-704.738-72.5461-701.335-37.5877ZM-754.701-23.9758C-753.175-24.0838-751.705-23.3779-750.834-22.1198-749.987-20.6659-749.559-19.0062-749.596-17.3245-749.518-15.6164-750.007-13.9303-750.989-12.5292-751.719-11.1833-753.175-10.3943-754.701-10.5186L-785.638-10.5186-785.638 8.3532C-786.815 11.4438-789.93 13.3504-793.217 12.9938-794.689 13.0844-796.151 12.7047-797.393 11.9106-798.53 11.0562-799.259 9.76715-799.404 8.3532L-799.404-10.8279-831.269-10.8279-832.661-11.9106C-834.247-13.4679-835.187-15.5681-835.291-17.7885-835.053-20.4685-833.562-22.8774-831.269-24.2851L-799.404-24.2851-799.404-57.0782-821.06-57.0782C-822.334-57.5776-823.532-58.2542-824.618-59.0894-826.931-60.7401-828.49-63.2452-828.949-66.05L-828.949-146.021C-828.649-147.265-828.18-148.462-827.557-149.579-826.149-151.923-823.765-153.512-821.06-153.91L-769.705-153.91-765.838-152.518C-763.329-151.093-761.45-148.773-760.579-146.021L-760.579-66.05C-760.867-64.5838-761.389-63.1738-762.126-61.8734-763.777-59.1912-766.574-57.4218-769.705-57.0782L-785.174-57.0782-785.174-24.2857ZM-677.359-145.711C-674.388-146.584-672.445-149.433-672.719-152.518-672.683-154.053-673.114-155.564-673.956-156.849-674.832-158.001-676.225-158.639-677.669-158.551L-679.525-158.551C-688.366-153.453-695.889-146.354-701.49-137.823-704.786-132.816-708.513-128.106-712.627-123.746L-728.095-141.69C-731.352-144.231-734.356-147.08-737.067-150.198-739.908-153.668-743.437-156.511-747.431-158.551-748.616-159.877-750.293-160.66-752.071-160.716-753.775-160.716-755.38-159.914-756.403-158.551-757.598-157.25-758.212-155.519-758.104-153.755-758.17-151.671-757.181-149.694-755.474-148.496-749.306-143.132-743.469-137.398-737.995-131.326-733.509-126.531-729.487-121.736-725.775-117.25L-721.289-111.218C-724.692-102.865-727.786-93.7384-730.725-83.8386-732.891-76.7233-734.901-69.608-736.448-62.4921L-738.305-53.8301C-739.987-59.5939-742.323-65.1468-745.265-70.3813-746.613-72.8431-748.112-75.2188-749.751-77.4966-750.889-78.2666-752.246-78.6468-753.618-78.5793-755.34-78.6181-756.987-77.8796-758.104-76.5686-759.197-75.3296-759.802-73.7351-759.806-72.0827-759.832-70.2739-759.103-68.536-757.794-67.2879-753.471-56.1743-750.006-44.7463-747.431-33.1024-745.729-24.9044-744.183-15.7784-742.945-6.03318-742.945-2.47469-742.172 1.23734-741.862 4.79471-741.469 7.09899-740.262 9.18504-738.459 10.6732-736.829 11.671-734.957 12.2053-733.045 12.2199L-730.415 12.2199C-730.01 12.3318-729.583 12.3318-729.178 12.2199-728.437 10.8504-727.866 9.39595-727.477 7.88807-727.288 6.14061-727.288 4.37683-727.477 2.62936L-727.477-4.33127C-727.644-6.70022-727.644-9.07818-727.477-11.4471L-678.442-11.4471C-676.968-12.0287-675.758-13.1288-675.039-14.5405-674.118-15.9117-673.633-17.5292-673.647-19.1811-673.376-22.1198-675.509-24.7345-678.442-25.059L-685.248-25.059C-685.278-39.5079-686.781-53.9167-689.734-68.0613-692.729-82.3588-697.348-96.2671-703.501-109.516-697.746-120.099-690.903-130.052-683.083-139.215-681.69-140.917-679.679-143.082-677.359-145.557ZM-891.287-114.775-891.287-104.72-939.238-104.72-939.238-115.858-892.833-115.858-891.596-114.775ZM-950.685-31.4004-998.636-31.4004-998.636-44.8583-950.685-44.8583ZM-891.287-92.1912-891.287-81.054C-891.993-80.478-892.439-79.6423-892.524-78.7334L-938.929-78.7334-938.929-92.1912ZM-892.524-31.4004-938.929-31.4004-938.929-44.8583-892.524-44.8583ZM-867.465-104.72-878.757-104.72-878.757-119.261C-879.4-122.154-881.185-124.664-883.707-126.222-885.028-127.073-886.426-127.798-887.883-128.387L-939.238-128.387-939.238-148.651C-939.055-151.941-940.573-155.096-943.26-157.003-944.455-157.868-945.83-158.45-947.282-158.705L-971.258-158.705-980.384-157.623C-982.55-157.004-983.633-155.148-983.633-152.054-983.788-150.457-983.347-148.859-982.395-147.568-981.497-146.777-980.343-146.337-979.147-146.331L-956.408-146.331C-954.504-144.803-952.927-142.91-951.768-140.761-951.293-139.666-950.931-138.527-950.685-137.359L-950.685-128.387-1008.85-128.387C-1011.6-127.72-1013.49-125.184-1013.33-122.355-1013.33-120.869-1012.78-119.437-1011.78-118.332-1010.79-117.044-1009.36-116.163-1007.76-115.858L-950.685-115.858-950.685-104.72-1019.67-104.72C-1020.99-104.435-1022.12-103.587-1022.77-102.4-1023.48-101.238-1023.86-99.8982-1023.85-98.5332-1024.05-97.5118-1024.05-96.4617-1023.85-95.4398-1023.18-93.7851-1021.73-92.5697-1019.98-92.1912L-951.613-92.1912-951.613-78.7339-1008.85-78.7339C-1011.31-78.2643-1013-75.9702-1012.71-73.4747-1012.8-71.928-1012.24-70.4145-1011.17-69.2986-1010.42-68.1372-1009.14-67.437-1007.76-67.4421L-950.685-67.4421-950.685-57.3875-1002.04-57.3875C-1004.55-56.234-1006.8-54.6057-1008.69-52.5928L-1011.17-49.4989-1011.17-28.7711C-1010.21-26.3633-1008.54-24.3099-1006.37-22.8931L-1003.12-20.8824-950.685-20.8824-950.685-10.8279-1017.97-10.8279C-1019.22-10.8183-1020.39-10.1794-1021.07-9.12654-1022.5-6.63779-1022.5-3.57199-1021.07-1.08268-1020.42-0.0151856-1019.22 0.586052-1017.97 0.464004L-950.685 0.464004-950.685 7.26996C-949.625 9.43701-947.517 10.9004-945.116 11.1372-943.542 11.0591-942.053 10.3971-940.94 9.28121L-939.238 7.26996-939.238 0.464004-869.631 0.464004C-867.445-0.493813-865.961-2.57199-865.764-4.94994-865.842-6.52474-866.504-8.01293-867.62-9.12654L-869.631-10.8279-939.238-10.8279-939.238-20.8824-889.121-20.8824C-886.26-21.8532-883.773-23.6918-882.005-26.1412-881.237-27.3774-880.565-28.6704-879.995-30.0084L-879.995-47.9522C-880.882-50.8149-882.742-53.2778-885.253-54.9128-886.481-55.7407-887.774-56.4651-889.121-57.0782L-939.238-57.0782-939.238-67.1327-887.883-67.1327C-885.102-67.6535-882.618-69.1991-880.923-71.464-880.085-72.5753-879.359-73.7666-878.757-75.0219L-878.757-91.8819-867.465-91.8819C-864.545-92.5022-862.591-95.2638-862.979-98.2244-862.6-101.149-864.567-103.863-867.465-104.412Z" fill-rule="evenodd" transform="matrix(1 0 0 -1.00003 1110.93 2268.49)"/><path d="M27.1485 96.9675C23.97 65.4526 21.2079 49.6431 18.7069 49.6431 16.2055 49.6431 13.4958 65.4526 9.74388 96.9675 5.99208 128.482 4.53292 148.231 3.90762 156.213 2.87432 162.696 6.04361 169.125 11.8283 172.282 16.6509 175.126 22.7339 174.735 27.1485 171.297 31.9098 167.368 34.1291 161.163 32.9328 155.125 32.3075 147.868 30.3271 128.482 27.1485 96.9675M27.1485 32.538C32.6745 29.5015 36.1215 23.7337 36.1636 17.4542 36.2773 11.4186 33.0023 5.82259 27.6696 2.94073 22.4319-0.531931 15.6683-0.752804 10.2129 2.3706 4.5266 5.11911 0.736628 10.6653 0.259965 16.936-0.448467 23.3609 2.91236 29.5514 8.70159 32.4861 14.2672 36.3156 21.6352 36.3156 27.2007 32.4861Z" fill-rule="evenodd" transform="matrix(1 0 0 -1 627 1588)"/></g></svg>