<svg width="328" height="290" xmlns="http://www.w3.org/2000/svg" xmlns:xlink="http://www.w3.org/1999/xlink" xml:space="preserve" overflow="hidden"><defs><clipPath id="clip0"><rect x="196" y="53" width="328" height="290"/></clipPath></defs><g clip-path="url(#clip0)" transform="translate(-196 -53)"><path d="M0 0-303.082 0C-315.997 2.43014-315.457 15.1655-306.457 30.9157L-163.444 280.851C-158.044 289.221-144.543 294.667-136.443 280.851L3.69004 36.1808C13.2301 21.1955 21.9604-0.269979 0 0" fill="#FFCC01" fill-rule="evenodd" transform="matrix(1.0023 0 0 -1 509.898 342.405)"/><path d="M0 0-135.003-234.005 135.003-234.005ZM150.033-257.901-153.049-257.901C-165.964-255.471-165.424-242.735-156.424-226.985L-13.4103 22.9505C-8.0102 31.3207 5.49007 36.7658 13.5903 22.9505L153.723-221.72C163.264-236.705 171.994-258.171 150.213-257.721Z" fill-rule="evenodd" transform="matrix(1.0023 0 0 -1 359.52 84.5043)"/><path d="M0 0 269.376 0 134.733 233.51ZM270.006-0.404969-0.539958-0.404969 134.733 234.32 134.733 234.05ZM135.588 265.101C129.825 264.798 124.571 261.709 121.503 256.821L-21.5105 6.79513C-27.5407-3.73504-29.4757-12.5102-27.0007-17.6853-25.2882-21.027-22.0046-23.2781-18.2704-23.6705L284.767-23.6705C290.932-23.6705 295.027-22.0504 296.917-18.6754 301.417-10.4402 292.416 5.71521 288.141 12.2404L147.963 256.821C145.774 261.604 141.15 264.813 135.903 265.191ZM285.306-24.2554-18.3155-24.2554C-22.1723-23.8397-25.558-21.5036-27.3157-18.0452-29.8806-12.5552-27.9006-3.69004-21.8256 6.97528L121.188 256.821C124.289 261.866 129.674 265.064 135.588 265.371L135.903 265.371C141.3 265.02 146.069 261.737 148.323 256.821L288.637 12.2404C292.822 5.67022 302.137-10.6202 297.637-19.2603 294.799-23.1191 290.03-25.051 285.306-24.2554" transform="matrix(1.0023 0 0 -1 224.477 318.375)"/><path d="M0 0-234.95 0-133.113 175.054-120.018 167.539C-121.764 163.027-121.383 157.969-118.983 153.768-124.878 139.458-128.433 125.148-123.483 110.838L-123.708 85.952-95.6721 85.952-95.6721 97.7873-90.272 97.7873-90.857 86.222-86.042 85.9069C-86.762 61.0213-86.042 38.7909-74.4766 35.3257-72.8116 27.4507-69.0765 29.6108-66.4214 26.7757-64.4414 19.1472-58.7064 13.056-51.211 10.6203L-6.21001 10.6203Z" fill-rule="evenodd" transform="matrix(1.0023 0 0 -1 477.694 306.089)"/><path d="M0 0 234.32 0 228.11 10.3503 183.424 10.3503C175.886 12.7991 170.117 18.9241 168.124 26.5957 167.327 27.3612 166.353 27.9175 165.289 28.2156 163.264 29.0259 161.194 29.8358 160.069 35.0559 148.143 38.7909 147.828 63.0915 148.458 85.6369L143.643 85.952 144.228 97.5173 139.278 97.5173 139.278 85.6819 111.063 85.6819 111.288 110.523C105.977 125.913 110.567 140.853 115.788 153.454 113.529 157.599 113.152 162.513 114.753 166.954L101.612 174.604ZM234.95-0.359809-0.629951-0.359809-0.629951-0.0899931 101.477 175.099 114.978 167.449C113.309 163.022 113.671 158.085 115.968 153.949 110.793 141.393 106.247 126.453 111.468 111.153L111.243 86.447 138.918 86.447 138.918 98.2824 144.543 98.2824 144.003 86.8971 148.818 86.582C148.188 64.0816 148.458 39.736 160.249 36.136 161.329 31.0057 163.264 30.2858 165.289 29.4758 166.407 29.119 167.425 28.5019 168.259 27.6758 170.215 20.1098 175.901 14.0679 183.334 11.6552L228.335 11.6552Z" transform="matrix(1.0023 0 0 -1 242.519 305.909)"/><path d="M0 0 0 9.81022-1.35006 11.1153-13.3203 11.1153C-13.7288 10.9598-14.0869 10.6953-14.3552 10.3503-14.4814 10.1906-14.5731 10.0067-14.6253 9.81022L-14.6253 0C-14.6708-0.493653-14.4004-0.962435-13.9502-1.16991-13.7419-1.20803-13.5286-1.20803-13.3203-1.16991L-1.03492-1.16991C-0.622097-0.999414-0.252799-0.738107 0.0449965-0.405132ZM-27.0005 28.8457-27.0005 35.7308C-27.156 36.1396-27.4206 36.4976-27.7655 36.7659L-28.3056 37.0361-32.8056 37.0361C-33.2204 36.8921-33.5813 36.6252-33.8407 36.271-33.9668 36.1113-34.0586 35.9275-34.1108 35.7308L-34.1108 29.1609C-34.1229 28.6391-33.8685 28.147-33.4357 27.8558-33.2403 27.7238-33.0284 27.6177-32.8056 27.5407L-28.3056 27.5407C-27.8383 27.5065-27.3957 27.7543-27.1805 28.1708-27.1437 28.3943-27.1437 28.6224-27.1805 28.8457ZM-0.449965 35.7308-0.764941 37.0359-12.5102 37.0359C-12.9187 36.8805-13.2769 36.6159-13.5453 36.271-13.6714 36.1113-13.763 35.9274-13.8152 35.7308-12.7609 33.3913-11.4314 31.1857-9.85506 29.1607-9.2701 28.4406-8.505 27.5857-7.51524 26.5507-5.4827 28.3048-3.72342 30.3525-2.29499 32.6259-1.80002 33.3907-1.21507 34.4708-0.539958 35.7308ZM4.05018-1.98001 4.05018 11.5203 3.24024 13.3203C2.94588 13.9049 2.39741 14.3203 1.75519 14.4454L0.0901567 15.1203-14.4904 15.1203-16.6953 14.1754C-17.4158 13.8612-17.9482 13.2288-18.1354 12.4655L-18.8103 10.5303-18.8103-1.30506C-18.6073-1.96152-18.3358-2.59507-18.0004-3.19492-17.2243-4.44648-15.9438-5.3001-14.4904-5.5349L-0.539958-5.5349C0.135317-5.49039 0.801429-5.3541 1.44005-5.1301 2.79306-4.56167 3.78413-3.36918 4.09501-1.93485ZM7.38008 18.0006C7.38008 16.7855 7.38008 15.9754 6.21018 15.6154 5.71799 15.5393 5.21731 15.5393 4.72513 15.6154 1.6598 16.7817-1.34417 18.1035-4.275 19.5756-5.26508 20.0706-6.57015 20.7005-8.05503 21.5106-10.6437 19.7405-13.4024 18.2331-16.2904 17.0105-17.3404 16.5605-18.6904 16.0654-20.3406 15.5254-21.6005 15.5254-22.4106 15.5254-22.7705 16.6953-22.8478 17.1723-22.8478 17.6586-22.7705 18.1356L-10.4852 24.0756-16.1552 31.2309-20.1154 26.7307C-20.4823 26.5126-20.9037 26.4033-21.3303 26.4156-21.779 26.3892-22.2234 26.5162-22.5904 26.7757-22.9276 26.9704-23.1339 27.3314-23.1303 27.7208L-23.1303 25.1107C-23.2388 24.4853-23.6404 23.9498-24.2104 23.6706-24.503 23.5684-24.8042 23.4931-25.1105 23.4456L-28.3956 23.4456-28.3956 15.2555-22.7704 15.2555C-22.3288 15.2803-21.9109 15.0539-21.6903 14.6703-21.4108 14.2601-21.269 13.7716-21.2855 13.2754-21.2696 12.7856-21.3946 12.3016-21.6455 11.8804-21.8987 11.5142-22.3265 11.309-22.7705 11.3404L-28.3956 11.3404-28.3956 0.495125-22.7704 2.79028C-22.1218 2.84394-21.4818 2.61422-21.0153 2.16016-20.7292 1.80461-20.585 1.35579-20.6104 0.900094L-20.6104 0.18015C-20.5816 0.0770668-20.5816-0.031743-20.6104-0.134826-24.1698-1.74439-27.8211-3.1419-31.5457-4.31999L-36.5408-5.71505C-36.9664-6.00303-37.4383-6.21623-37.9358-6.345-38.4287-6.41012-38.9279-6.41012-39.4209-6.345L-40.4558-6.345-40.8609-6.345C-41.0736-5.92514-41.1964-5.46503-41.2209-4.99494-41.2114-4.16144-40.7903-3.38636-40.0958-2.92494-39.3623-2.35765-38.458-2.05626-37.5309-2.06984L-37.5309 16.6055C-37.2273 17.2476-36.6157 17.6892-35.9108 17.7756-35.4527 17.7528-35.0196 17.5603-34.6958 17.2355L-34.2008 16.6055-34.2008-1.07992-31.5457-0.0898294-31.5457 23.8056-35.8208 23.8056C-36.6689 23.9776-37.4049 24.5009-37.8458 25.2457-38.1125 25.6186-38.3248 26.0276-38.4758 26.4607L-38.4758 38.251C-38.2475 39.1465-37.6837 39.9199-36.9008 40.4111-36.5681 40.6196-36.2032 40.7718-35.8208 40.8611L-26.1904 40.8611C-25.1891 40.9107-24.2402 40.4105-23.7155 39.556-23.4589 39.1615-23.29 38.7163-23.2205 38.251L-23.2205 29.2509-22.8605 30.2408C-21.3511 31.563-20.02 33.0759-18.9003 34.7409-17.7195 36.4847-16.6811 38.3205-15.7953 40.231L-13.5003 41.536 2.79011 41.536C3.43986 41.3768 4.00371 40.974 4.36515 40.4111 4.54416 40.1492 4.68095 39.8605 4.77012 39.556 4.27516 35.7341 2.68048 32.1383 0.18015 29.2057L-4.31999 24.1656 0.18015 21.5106C1.23389 20.8768 2.39185 20.435 3.60021 20.2056 4.98136 19.9848 6.24028 19.2835 7.1551 18.2256ZM-80.1018 10.4853-80.1018 13.2303C-80.049 14.8952-80.2928 16.5563-80.8218 18.1356-82.6218 22.9507-83.5217 25.4707-83.5217 25.7856-83.1618 27.0907-82.8918 28.1708-82.6668 29.0707-82.0391 31.439-81.5581 33.8436-81.2268 36.271L-81.2268 38.8809C-81.2958 39.1211-81.402 39.3487-81.5419 39.556-81.8603 40.0356-82.3387 40.3863-82.8918 40.5461L-93.017 40.5461-93.7371 40.231C-94.2878 39.9239-94.7285 39.4516-94.997 38.8809L-94.997-5.35508C-94.8324-5.77232-94.531-6.12149-94.1421-6.345-93.7219-6.60287-93.24-6.74277-92.747-6.75013-91.9083-6.85223-91.1455-6.25517-91.0432-5.41627-91.0406-5.39598-91.0388-5.37553-91.037-5.35508L-91.037 35.1459C-90.9363 35.3807-90.8159 35.6065-90.677 35.821-90.3646 36.2778-89.9034 36.6118-89.3719 36.7659L-86.717 36.7659C-86.322 36.7451-85.9581 36.5465-85.7269 36.2258-85.5384 35.8652-85.4456 35.4625-85.4567 35.0559-85.4217 34.5465-85.4217 34.0352-85.4567 33.5258L-85.4567 32.5359C-86.0419 30.2858-86.4468 28.6657-86.6268 27.6758-86.8402 26.7306-86.9461 25.7645-86.942 24.7957-86.9547 24.0072-86.8639 23.2203-86.6718 22.4556-86.5069 21.7143-86.2014 21.0117-85.7717 20.3856L-83.5669 12.6453C-83.5651 11.3993-83.9943 10.191-84.7816 9.22527L-85.7717 8.91029-88.4268 8.91029C-88.8798 8.93189-89.3094 8.70855-89.5519 8.32534-89.7982 7.90237-89.9227 7.41968-89.9119 6.93012-89.9515 6.4381-89.8247 5.9469-89.5519 5.53523-89.305 5.16167-88.8727 4.9542-88.4268 4.99511L-85.7717 4.99511C-84.832 5.18262-83.9231 5.5007-83.0718 5.94036-81.2186 6.93797-79.9862 8.7951-79.7867 10.8905ZM-52.561-5.26508-79.1117-5.26508C-79.6054-5.31057-80.0742-5.04027-80.2817-4.59014-80.3198-4.38168-80.3198-4.16831-80.2817-3.96002-80.4432-3.24466-80.2599-2.4951-79.7867-1.93501-79.5408-1.68827-79.2508-1.48979-78.9316-1.3499L-52.3812-1.3499C-51.7206-1.75912-51.3008-2.4645-51.2561-3.24008-51.2671-3.89048-51.5436-4.50832-52.0212-4.95011L-52.3812-5.26508ZM-70.1566 2.61013C-70.1988 2.19878-70.4109 1.82375-70.7416 1.57504-71.085 1.3373-71.4936 1.21147-71.9115 1.21507-72.8919 1.11215-73.8179 1.68614-74.1616 2.61013L-78.6616 18.3605C-78.6996 18.4775-78.6996 18.6034-78.6616 18.7205L-78.6616 19.1255C-78.6868 19.6291-78.4694 20.1143-78.0767 20.4304-77.7195 20.7877-77.2317 20.9828-76.7266 20.9705-76.3305 20.9664-75.9424 20.8578-75.6017 20.6555L-69.9316 2.65512ZM-63.5413 4.90528C-63.7696 4.55299-64.078 4.25994-64.4414 4.05018-64.7305 3.89212-65.057 3.8144-65.3863 3.8252-65.8464 3.82143-66.2982 3.94611-66.6914 4.18517L-67.1864 4.59014-69.8415 19.6656-69.8415 20.2506C-69.8567 20.8205-69.5866 21.3606-69.1214 21.6905-68.6256 22.0897-68.0027 22.2972-67.3665 22.2756-66.9259 22.2846-66.491 22.1758-66.1064 21.9606-65.5213 19.1705-65.0714 16.4704-64.6664 13.7702-64.4414 12.4202-64.1264 10.3503-63.7665 7.42525-63.7665 6.57015-63.7665 5.71521-63.4513 4.90528ZM-54.9012 20.9705C-54.9751 21.4534-55.2332 21.8888-55.6213 22.1856-56.0341 22.4597-56.5209 22.601-57.0162 22.5905-57.8719 22.6818-58.6624 22.1229-58.8612 21.2855L-59.5363 17.0553-63.1815 1.30506C-63.1815 0.405132-62.5962-7.12103e-15-61.4263-7.12103e-15-60.8823-0.0101447-60.348 0.14677-59.8964 0.449965-59.4784 0.691474-59.221 1.13751-59.2213 1.62004L-54.7212 20.9705ZM-58.8612 24.2556C-57.6589 24.8518-57.1674 26.3097-57.7633 27.5122-57.7831 27.5523-57.8042 27.5919-57.8263 27.6306-58.0863 27.9406-58.4583 28.1346-58.8612 28.1708L-74.4316 28.1708C-74.7363 28.0287-75.0112 27.8303-75.2417 27.5858-75.7514 27.0449-75.9545 26.2837-75.7817 25.5608-75.7002 25.3679-75.5945 25.1864-75.4667 25.0207-75.2074 24.6664-74.8464 24.3996-74.4316 24.2556ZM-50.8961 26.8657C-51.4214 26.7022-51.9664 26.6114-52.5162 26.5957-54.1958 26.7325-55.7806 27.4299-57.0162 28.5759L-60.8862 31.7708-67.3214 37.5759C-68.9416 35.7758-70.7416 33.9308-72.6766 32.086-74.6116 30.2408-75.4215 29.5208-77.1767 28.0358L-78.9768 26.4607C-79.3022 26.0198-79.824 25.7673-80.3717 25.7858-80.9479 25.7981-81.4902 26.061-81.8567 26.5057-82.2325 26.9382-82.3973 27.515-82.3067 28.0808L-72.0016 38.8811-70.0215 41.536C-69.4475 42.2828-68.5768 42.7428-67.6365 42.7961-67.2186 42.8552-66.7945 42.8552-66.3764 42.7961-65.7648 42.5522-65.201 42.2017-64.7114 41.761-62.6342 39.4155-60.3937 37.22-58.0063 35.1909-57.1963 34.4709-56.0712 33.5708-54.7662 32.5808-53.7944 32.1386-52.8479 31.6429-51.9311 31.0959-51.0565 30.6187-50.4688 29.7456-50.3562 28.7557-50.3914 28.2531-50.5291 27.763-50.761 27.3157ZM-106.562-1.3499C-106.481-2.61667-106.939-3.85874-107.822-4.76996-108.797-5.63847-110.073-6.09073-111.377-6.03003L-143.463-6.03003C-145.94-6.23979-148.117-4.40213-148.327-1.92585-148.349-1.65931-148.348-1.39129-148.323-1.12491L-148.323 35.2809C-148.184 36.3529-147.243 37.137-146.163 37.0809-145.044 37.148-144.046 36.3804-143.823 35.2809L-143.823-0.269816C-143.823-1.3499-143.328-1.89002-142.248-1.89002L-129.828-1.89002-129.828 40.4111C-129.726 40.9539-129.42 41.4369-128.973 41.7612-128.583 42.0888-128.087 42.2645-127.578 42.2562-126.464 42.3142-125.489 41.5148-125.328 40.4111L-125.328-1.89002-112.772-1.89002C-111.693-1.89002-111.152-1.39489-111.152-0.359809L-111.152 35.2809C-110.937 36.4032-109.955 37.2149-108.812 37.2159-107.68 37.2113-106.713 36.3963-106.517 35.2809L-106.517-1.12491ZM-170.824 35.7308-183.424 35.7308C-182.967 33.8863-182.366 32.0804-181.624 30.3308-181.354 29.6558-180.949 28.8457-180.454 27.8558L-172.804 27.8558-172.129 30.1509C-171.696 31.3852-171.35 32.6483-171.094 33.9308-171.094 34.3808-171.094 35.0109-170.824 35.7308M-194.674 41.536C-195.124 42.3461-195.619 42.7061-196.204 42.7061-196.929 42.6435-197.565 42.1969-197.869 41.536-198.36 40.8709-198.628 40.0675-198.634 39.2409L-199.309 35.911C-199.994 33.1744-200.85 30.4841-201.874 27.8558-203.135 24.4598-204.797 21.2267-206.824 18.2256-207.071 17.9034-207.198 17.5058-207.185 17.1005-207.197 16.4931-206.989 15.9019-206.6 15.4354-206.318 14.9806-205.829 14.6942-205.295 14.6703-204.845 14.7044-204.433 14.9349-204.17 15.3005L-202.505 17.5954-202.505-4.90511C-202.162-5.80422-201.256-6.35891-200.299-6.25517-199.871-6.28135-199.446-6.17107-199.084-5.94003-198.754-5.69149-198.542-5.3163-198.499-4.90511L-198.499 25.2457C-197.644 27.2707-196.969 28.9359-196.519 30.2858-195.271 33.9547-194.602 37.7959-194.539 41.671ZM-160.834 13.9954C-160.417 13.9782-160.023 14.1839-159.799 14.5355-159.564 14.9469-159.44 15.4119-159.439 15.8856-159.419 16.3193-159.546 16.7475-159.799 17.1005-160.039 17.4284-160.428 17.6139-160.834 17.5954L-175.774 17.5954-175.774 21.1957C-176.103 22.1059-177.019 22.6663-177.979 22.5457-178.392 22.5655-178.801 22.4552-179.149 22.2306-179.472 21.9753-179.682 21.6037-179.734 21.1957L-179.734 17.5954-193.684 17.5954C-194.089 17.6157-194.472 17.4073-194.674 17.0555-194.935 16.7232-195.063 16.3064-195.034 15.8854-195.048 15.4242-194.923 14.9693-194.674 14.5803-194.476 14.2187-194.097 13.9942-193.684 13.9954L-185.044 13.9954C-185.064 10.7787-186.052 7.6427-187.879 4.99511-189.689 2.11238-192.118-0.331665-194.989-2.15983-195.807-2.44912-196.35-3.22748-196.339-4.09485-196.33-4.63104-196.121-5.14417-195.754-5.5349-195.385-5.93938-194.862-6.16812-194.314-6.16502L-193.684-6.16502C-192.962-5.73812-192.284-5.2407-191.659-4.67997-190.081-3.40403-188.578-2.03662-187.159-0.584791-185.44 1.31684-183.931 3.39896-182.659 5.62522L-168.124 5.62522C-167.683 5.31303-167.327 4.89529-167.089 4.41031-166.89 3.92419-166.783 3.40534-166.774 2.88027-166.798 2.23952-166.903 1.60417-167.089 0.990251-167.089 0.270143-167.539-0.494798-167.854-1.3049-168.067-2.07671-168.588-2.72728-169.294-3.10492-170.059-3.49271-170.911-3.67843-171.769-3.64488-172.635-3.62361-173.495-3.50286-174.334-3.28491L-176.764-2.56497-177.889-2.56497-179.239-2.56497C-179.885-2.52439-180.529-2.68147-181.084-3.01493-181.543-3.38259-181.781-3.96051-181.714-4.54481-180.374-6.26204-178.312-7.25933-176.134-7.24493-174.892-7.3544-173.659-7.55009-172.444-7.83005L-169.789-7.83005C-168.807-7.63927-167.854-7.32167-166.954-6.88496-165.097-5.99616-163.707-4.35992-163.129-2.38482L-162.499 4.18533-162.499 7.11043C-162.598 7.41805-162.719 7.71879-162.859 8.01036-163.232 8.5729-163.816 8.96184-164.479 9.09044L-181.714 9.09044-180.724 13.5906ZM-158.493 24.1656-158.808 21.1955-159.664 19.2156C-159.897 18.5904-160.482 18.1653-161.149 18.1356L-161.959 18.1356C-162.64 18.2689-163.119 18.8825-163.084 19.5756-163.142 19.9331-163.142 20.2979-163.084 20.6555-162.926 21.3082-162.806 21.9693-162.724 22.6357-162.724 23.4006-163.129 23.8506-163.984 24.0306L-190.534 24.0306C-190.941 23.8714-191.298 23.6075-191.569 23.2655-191.685 23.0837-191.776 22.8869-191.839 22.6805L-191.839 19.7554C-191.882 19.3443-192.094 18.9691-192.424 18.7205-192.782 18.4764-193.207 18.3504-193.639 18.3605-194.608 18.2627-195.518 18.8385-195.844 19.7554L-195.844 25.7858C-195.67 26.4773-195.275 27.0933-194.719 27.5407L-193.864 28.0808-184.864 28.0808-187.699 35.7308-192.199 35.7308C-192.642 35.7083-193.065 35.9118-193.324 36.271-193.584 36.638-193.711 37.0824-193.684 37.531-193.718 37.9805-193.591 38.4274-193.324 38.7909-193.065 39.1503-192.642 39.3536-192.199 39.3311L-179.284 39.3311-179.284 41.3111C-178.855 41.9729-178.136 42.3908-177.349 42.4361-176.698 42.425-176.081 42.1487-175.639 41.6712L-175.279 41.3111-175.279 39.3311-161.014 39.3311C-160.571 39.3536-160.148 39.1503-159.889 38.7909-159.655 38.412-159.531 37.9761-159.529 37.531-159.529 36.316-160.024 35.7308-161.014 35.7308L-166.324 35.7308C-166.654 33.9308-167.059 32.1308-167.539 30.3308-167.539 29.6558-167.989 28.8457-168.304 27.8558L-160.024 27.8558C-159.474 27.7149-158.994 27.379-158.673 26.9107-158.552 26.6937-158.447 26.4681-158.358 26.2358L-158.358 23.9406Z" fill-rule="evenodd" transform="matrix(1.0023 0 0 -1 460.103 412.292)"/></g></svg>