<svg width="328" height="290" xmlns="http://www.w3.org/2000/svg" xmlns:xlink="http://www.w3.org/1999/xlink" xml:space="preserve" overflow="hidden"><defs><clipPath id="clip0"><rect x="196" y="53" width="328" height="290"/></clipPath></defs><g clip-path="url(#clip0)" transform="translate(-196 -53)"><path d="M0 0-303.082 0C-315.997 2.43014-315.457 15.1653-306.457 30.9156L-163.444 280.896C-158.044 289.267-144.543 294.667-136.443 280.896L3.69004 36.2257C13.2301 21.2403 21.9604-0.359972 0 0" fill="#FFCC01" fill-rule="evenodd" transform="matrix(1.0023 0 0 -1 509.898 342.498)"/><path d="M0 0-135.003-234.005 135.003-234.005ZM150.033-257.946-153.049-257.946C-165.964-255.516-165.424-242.781-156.424-227.03L-13.4103 22.9505C-8.0102 31.3207 5.49007 36.7208 13.5903 22.9505L153.723-221.72C163.264-236.706 171.994-258.216 150.213-257.721Z" fill-rule="evenodd" transform="matrix(1.0023 0 0 -1 359.52 84.5526)"/><path d="M0 0 269.376 0 134.733 233.555ZM270.006-0.360136-0.539958-0.360136 134.733 234.32 134.733 234.05ZM135.588 265.146C129.83 264.788 124.592 261.693 121.503 256.821L-21.5105 6.84013C-27.5407-3.69021-29.4757-12.4204-27.0007-17.8204-25.2882-21.1621-22.0046-23.4133-18.2704-23.8056L285.306-23.8056C289.87-24.4619 294.418-22.5176 297.097-18.7657 301.597-10.5303 292.597 5.58006 288.322 12.1502L147.963 256.821C145.761 261.587 141.14 264.777 135.903 265.146ZM285.306-24.3456-18.3156-24.3456C-22.1782-23.9462-25.571-21.605-27.3157-18.1356-29.8806-12.6453-27.9006-3.7802-21.8256 6.84013L121.188 257.001C124.3 262.029 129.682 265.208 135.588 265.506L135.903 265.506C141.296 265.183 146.072 261.912 148.323 257.001L288.637 12.3302C292.822 5.71505 302.137-10.5303 297.637-19.1705 294.843-23.0968 290.066-25.1017 285.306-24.3456" transform="matrix(1.0023 0 0 -1 224.477 318.513)"/><path d="M0 0 28.8007-11.2503 5.8952-22.4554 59.3565-43.3359C73.2167-51.7661 74.2667-61.8765 62.5066-73.6667L-12.1952-139.413-26.9555-121.053 40.546-60.3912-1.08008-45.8111 7.74022-71.5067-21.4655-61.9213-41.7609-20.2054Z" fill-rule="evenodd" transform="matrix(1.0023 0 0 -1 353.295 172.935)"/><path d="M0 0 14.5354-18.0004 89.0572 47.5661C94.9522 53.4611 97.6073 59.0414 97.0222 64.0365 96.4372 69.0316 92.5222 73.5317 85.9519 77.5367L31.9508 98.5072 32.3108 98.5072 54.8113 109.533 26.4606 120.648-14.9853 100.532 5.35524 59.1763 34.0658 49.9062 25.4257 75.5567 25.7856 75.5567 67.7267 60.8864ZM14.4904-18.5854 14.4904-18.5854-0.359972-0.0899931 67.1415 60.3464 26.1456 74.7016 34.7858 49.0511 34.4258 49.0511 5.22009 58.4564-15.0753 100.982 26.6856 121.233 55.8913 109.803 32.9857 98.5972 86.0869 77.8969C92.9272 73.7117 96.7072 68.8966 97.3372 64.0365 97.9673 59.1763 95.2222 53.2361 89.2821 47.2511Z" transform="matrix(1.0023 0 0 -1 326.548 294.032)"/><path d="M0 0 0 9.85522-1.30506 11.1603-13.5453 11.1603C-13.9601 11.0165-14.321 10.7496-14.5804 10.3953-14.7083 10.2298-14.814 10.0481-14.8953 9.85522L-14.8953 0C-14.9215-0.477781-14.6543-0.923329-14.2204-1.12491L-13.5453-1.12491-1.26007-1.12491C-0.84528-0.981088-0.484326-0.714218-0.224983-0.359972ZM-27.0007 28.8906-27.0007 35.9558C-27.1858 36.3597-27.4633 36.7142-27.8106 36.9909L-28.3508 37.2611-32.8509 37.2611C-33.2572 37.1017-33.6144 36.8378-33.8858 36.496L-34.2008 35.9558-34.2008 29.3858C-34.2131 28.8641-33.9586 28.372-33.5259 28.0806-33.323 27.9231-33.0947 27.8013-32.8509 27.7207L-28.3508 27.7207C-27.8601 27.6883-27.398 27.9548-27.1805 28.3958-27.137 28.6186-27.137 28.8479-27.1805 29.0707ZM-0.449965 35.7758-0.809938 37.0809-12.5103 37.0809C-12.9166 36.9215-13.2738 36.6576-13.5453 36.3158-13.6531 36.1453-13.7436 35.9645-13.8154 35.7758-12.7885 33.422-11.4571 31.213-9.85522 29.2057-9.1343 28.2843-8.35267 27.4124-7.51524 26.5956-5.50954 28.3467-3.76662 30.3776-2.34015 32.6258-1.68418 33.6428-1.08335 34.6943-0.540122 35.7757ZM4.05002-1.93501 4.05002 11.5654C3.7802 12.1504 3.51006 12.7803 3.19492 13.3654 2.94474 13.9928 2.3786 14.4388 1.71003 14.5354L0.0448329 15.1655-14.5354 15.1655-16.7405 14.2655C-17.4608 13.9512-17.9934 13.3186-18.1804 12.5553L-18.8554 10.5753-18.8554-1.21507C-18.6816-1.8748-18.4245-2.50999-18.0904-3.10509-17.3096-4.38021-16.0112-5.25118-14.5354-5.49007L-0.584955-5.49007C0.0885205-5.40711 0.751851-5.25625 1.39506-5.0401 2.74806-4.47167 3.73913-3.27918 4.05002-1.84486ZM7.38009 18.0454C7.6391 17.0699 7.14005 16.0526 6.21001 15.6604 5.71767 15.5884 5.21747 15.5884 4.72513 15.6604 1.93501 16.7405-0.990088 18.0454-4.27516 19.5756L-8.10019 21.5555C-10.6668 19.7499-13.4294 18.2403-16.3354 17.0555-17.3554 16.6054-18.7055 16.1104-20.3856 15.5704-21.3617 15.3005-22.3898 15.7764-22.8155 16.6955-22.8829 17.1882-22.8829 17.6879-22.8155 18.1804L-10.5753 24.1206-16.2004 31.3657-20.2054 26.8657C-20.5669 26.6347-20.9924 26.5242-21.4205 26.5507-21.8472 26.5383-22.2687 26.6474-22.6356 26.8657-22.9731 27.0815-23.1768 27.4551-23.1755 27.8556L-23.1755 25.2007C-23.2832 24.5859-23.6873 24.0638-24.2554 23.8056L-25.1555 23.8056-28.4856 23.8056-28.4856 15.6156-22.8154 15.6156C-22.3214 15.7166-21.8132 15.5238-21.5105 15.1205-21.2364 14.7077-21.0952 14.2209-21.1055 13.7254-21.0955 13.2219-21.2199 12.725-21.4655 12.2854-21.7245 11.9262-22.1481 11.7228-22.5906 11.7452L-28.4858 11.7452-28.4858 0.945091-22.8155 3.24024C-22.1571 3.30193-21.5079 3.05207-21.0605 2.56513-20.7823 2.20728-20.6534 1.75585-20.7005 1.30523-20.6747 1.08074-20.6747 0.854443-20.7005 0.630115-20.685 0.510506-20.685 0.389588-20.7005 0.269979-24.2684-1.34319-27.9358-2.72597-31.6807-3.87003L-36.6308-5.31008C-37.076-5.59217-37.5616-5.80472-38.0708-5.94003-38.5499-5.98405-39.032-5.98405-39.5111-5.94003L-40.546-5.94003C-40.6782-5.97881-40.8187-5.97881-40.9509-5.94003-41.2072-5.53572-41.3472-5.06874-41.3559-4.58997-41.3286-3.74993-40.8915-2.97664-40.186-2.51997-39.449-1.95907-38.547-1.65833-37.6209-1.66504L-37.6209 16.9205C-37.3424 17.5563-36.7375 17.9883-36.0458 18.0454-35.5878 18.0227-35.1547 17.8302-34.8308 17.5055-34.6473 17.3271-34.4814 17.1309-34.3358 16.9205L-34.3358-0.809938-31.6807 0.18015-31.6807 23.8056-35.6407 23.8056C-36.4971 23.9864-37.2436 24.5059-37.7109 25.2457-37.9514 25.611-38.1479 26.0039-38.2958 26.4156L-38.2958 38.2508C-38.0705 39.1355-37.5255 39.9051-36.7658 40.4111-36.4078 40.6001-36.0306 40.751-35.6407 40.8611L-26.0106 40.8611C-25.0112 40.901-24.0671 40.4031-23.5355 39.556-23.3036 39.1494-23.1366 38.709-23.0405 38.2508L-23.0405 29.2509-22.6804 30.2408C-21.1804 31.5724-19.8503 33.0837-18.7204 34.7408-17.5868 36.4267-16.5934 38.2027-15.7504 40.051L-13.4103 41.3561 2.83511 41.3561C3.49795 41.2276 4.08159 40.8385 4.45515 40.276L4.86012 39.4211C4.27827 35.5813 2.60735 31.9891 0.0449965 29.0707L-4.27516 24.1206 0.224983 21.5106C1.24141 20.8347 2.39333 20.3892 3.60005 20.2054 4.98758 19.9664 6.25517 19.2693 7.20026 18.2256ZM-52.6062-2.29499C-52.3936-1.64769-52.2281-0.985997-52.1111-0.314976-52.0649 0.299268-52.0649 0.915966-52.1111 1.53021-52.0422 2.68801-52.3414 3.83796-52.9662 4.81528-53.6609 5.80128-54.8238 6.34844-56.0263 6.25517L-89.417 6.25517C-89.4894 6.53562-89.4894 6.82982-89.417 7.11027-89.4034 7.63681-89.2479 8.14994-88.967 8.59532-88.7351 9.02909-88.4797 9.4496-88.2021 9.85522L-57.0163 9.85522C-56.5899 9.93916-56.1796 10.0912-55.8013 10.3054-55.0105 10.7614-54.4779 11.56-54.3612 12.4655L-54.3612 18.7205C-54.4573 19.1787-54.6245 19.619-54.8563 20.0256-55.3878 20.8727-56.3321 21.3706-57.3313 21.3307L-91.082 21.3307C-91.3917 21.1744-91.6794 20.9777-91.9371 20.7457-92.4039 20.1823-92.5865 19.4357-92.4321 18.7205L-92.1171 18.1356C-91.8456 17.7938-91.4886 17.5298-91.082 17.3706L-60.2113 17.3706C-59.8135 17.4107-59.428 17.218-59.2215 16.8757-58.9684 16.5396-58.8409 16.1256-58.8612 15.7054-58.8414 15.2435-58.9676 14.787-59.2215 14.4005-59.4146 14.0281-59.7924 13.7879-60.2113 13.7704L-91.082 13.7704C-91.9574 13.246-92.5764 12.3827-92.792 11.3854-93.3321 9.6754-93.6471 8.73031-93.7371 8.55049-93.8271 8.37034-94.0071 7.74039-94.2772 6.66031-94.4443 6.10529-94.5351 5.52999-94.5472 4.95027-94.5655 4.50882-94.4562 4.07129-94.2321 3.69037-93.9562 3.30127-93.5339 3.04128-93.0622 2.97026L-91.3971 2.65529-57.5113 2.65529C-56.738 2.41083-56.199 1.71036-56.1612 0.900258-56.1611 0.253453-56.3659-0.376662-56.7464-0.899767-57.1335-1.452-57.6221-1.92552-58.1862-2.29482L-61.1114-3.10492C-63.3096-3.62181-65.5585-3.89343-67.8167-3.91486L-72.8568-3.91486-76.4118-3.59989C-79.1168-3.2998-81.8053-2.86423-84.467-2.29482-85.2372-2.31593-85.8444-2.9575-85.8231-3.72768-85.8221-3.76007-85.8202-3.79264-85.8171-3.82487-85.8056-4.37252-85.6335-4.90462-85.322-5.35492-85.059-5.80161-84.6162-6.11315-84.1069-6.20985L-80.3718-7.01995C-77.6755-7.56645-74.9328-7.8528-72.1816-7.87505L-67.6817-7.87505C-64.9401-7.96406-62.1996-7.67625-59.5363-7.01995-56.7724-6.46036-54.335-4.84621-52.7412-2.51981ZM-84.467 33.7058C-84.4048 33.3184-84.4048 32.9234-84.467 32.5358-84.5801 31.1711-85.2074 29.9003-86.222 28.9807-87.2221 28.0209-88.1266 26.966-88.922 25.8306-89.9947 24.9564-90.9612 23.9596-91.8021 22.8605-92.5854 21.6965-93.8667 20.9643-95.2672 20.8805-95.9586 21.1557-96.4312 21.803-96.4822 22.5456-96.3479 23.309-95.9873 24.0146-95.4472 24.5706L-93.9171 26.4607-90.9472 29.7457C-89.9571 30.8257-89.2371 31.6807-88.742 32.2658-88.0163 33.2053-86.9489 33.8197-85.7719 33.9758-85.3841 33.9521-85.0034 33.8606-84.647 33.7058ZM-50.2662 35.0109C-49.4471 35.0544-48.8185 35.7536-48.862 36.5727-48.8639 36.6072-48.8669 36.6416-48.8712 36.6758-48.8738 37.1696-49.0142 37.6526-49.2761 38.071-49.4996 38.4599-49.8488 38.7615-50.2662 38.9259L-70.5166 38.9259-70.5166 42.121C-70.8457 43.0311-71.7615 43.5918-72.7216 43.4711-73.1357 43.4973-73.5468 43.3866-73.8918 43.1561-74.2363 42.9202-74.4523 42.5381-74.4768 42.121L-74.4768 38.8359-94.0523 38.8359C-94.9733 38.5414-95.5576 37.6367-95.4472 36.6758-95.4735 36.2477-95.3632 35.8223-95.1322 35.4609-94.8581 35.1446-94.4695 34.9504-94.0523 34.9209L-80.0119 34.9209-80.0119 23.7606C-80.0119 22.9055-79.4269 22.5006-78.3468 22.5006-77.9335 22.4808-77.5243 22.5909-77.1768 22.8155-76.8634 23.0273-76.6774 23.3823-76.6816 23.7606L-76.6816 34.9659-68.7166 34.9659-68.7166 23.8056C-68.748 23.3615-68.5427 22.9338-68.1766 22.6805-67.7386 22.4307-67.2404 22.306-66.7366 22.3206-66.2262 22.3039-65.7233 22.4453-65.2964 22.7257-64.9303 22.9577-64.7225 23.3733-64.7566 23.8056L-64.7566 34.9659ZM-48.9611 22.8607C-48.7861 22.3292-48.9456 21.7446-49.3661 21.3756-49.8207 21.0384-50.3755 20.864-50.9412 20.8805-51.3998 20.8877-51.8488 21.0117-52.2462 21.2405L-57.1963 25.7406C-58.8198 27.3543-60.3238 29.084-61.6963 30.9157-61.8014 31.8484-61.2658 32.7349-60.3914 33.0759-59.9434 33.1348-59.4894 33.1348-59.0414 33.0759-56.5021 30.8357-54.0837 28.4624-51.7963 25.9656-50.9861 25.1107-49.9962 23.9856-48.7812 22.5906ZM-126.498 37.621-135.093 37.621-136.443 37.3059C-137.651 35.8092-138.975 34.4098-140.403 33.1209L-142.428 31.4109-130.773 31.4109-127.488 34.6508-126.498 35.821C-126.048 36.3009-125.823 36.6611-125.823 36.9009-125.823 37.2159-125.823 37.4409-126.498 37.621M-142.293 9.54041C-142.409 7.2541-143.04 5.02358-144.138 3.01526-145.24 0.99516-146.173-1.11199-146.928-3.28491-147.501-3.91781-148.325-4.26404-149.178-4.23-149.661-4.24636-150.135-4.10401-150.528-3.82503-150.875-3.50089-151.056-3.038-151.023-2.56497-151.056-2.35618-151.056-2.1438-151.023-1.93485-149.634 0.512142-148.489 3.08954-147.603 5.76021-147.243 6.7503-146.838 8.01037-146.388 9.54041-145.845 10.2533-144.989 10.6565-144.093 10.6203-143.352 10.658-142.668 10.2255-142.383 9.54041ZM-116.418 4.5903-117.678 4.5903-118.308 4.5903C-118.758 4.61075-119.207 4.51782-119.613 4.32016-119.938 4.10188-120.112 3.71884-120.063 3.33024-120.063 2.34015-120.378 1.30523-120.513 0.269979-120.766-0.76036-121.659-1.50747-122.718-1.57488L-124.068-2.20499-132.123-2.20499-133.023-1.75503C-133.657-1.27774-134.154-0.641242-134.463 0.0901567L-134.463 9.90038C-134.614 10.3258-134.919 10.6792-135.318 10.8905-135.736 11.1524-136.22 11.2927-136.713 11.2953-137.552 11.3975-138.315 10.8005-138.417 9.96158-138.419 9.94129-138.421 9.92084-138.423 9.90038L-138.423-1.57488C-138.315-2.312-138.087-3.02639-137.748-3.69004-136.962-5.12077-135.416-5.96392-133.788-5.85004L-122.493-5.85004C-120.532-5.91516-118.677-4.96205-117.588-3.33007-116.465-1.72509-115.896 0.202566-115.968 2.16016-115.892 2.87814-115.892 3.60218-115.968 4.32016ZM-122.718 2.65529C-122.455 1.7367-122.975 0.776722-123.888 0.494962-124.381 0.432621-124.88 0.432621-125.373 0.494962-126.609 2.59082-127.663 4.7891-128.523 7.06527-128.883 7.92021-129.243 9.00029-129.693 10.3052-129.47 10.9333-128.945 11.407-128.298 11.5654L-127.353 11.5654C-126.344 10.7714-125.555 9.73382-125.058 8.55032L-122.718 2.74512ZM-104.717-3.60005C-105.277-4.01533-105.956-4.23655-106.652-4.23-107.688-4.23-108.677-3.46506-109.577-1.84486L-111.693 1.98018-113.493 5.13026C-114.193 6.13933-114.598 7.3238-114.663 8.55032-114.561 9.05919-114.229 9.49198-113.763 9.72023-113.297 10.0298-112.747 10.1871-112.188 10.1704-111.675 10.1844-111.166 10.0764-110.702 9.85522L-107.688 4.27516C-107.139 3.16874-106.491 2.11435-105.752 1.12508-105.012 0.130408-104.574-1.05734-104.492-2.29482-104.527-2.73612-104.602-3.17299-104.717-3.60005M-106.022 20.6555-111.198 20.6555-111.198 15.7506C-111.364 14.9362-111.83 14.2138-112.502 13.7254-112.823 13.4891-113.17 13.2926-113.538 13.1405L-144.048 13.1405C-144.486 13.2892-144.855 13.5934-145.083 13.9954-145.313 14.4252-145.436 14.9035-145.443 15.3906-145.544 16.2045-144.966 16.9459-144.152 17.0465-144.117 17.0507-144.083 17.0539-144.048 17.0555L-117.048 17.0555C-116.554 17.01-116.085 17.2803-115.878 17.7304-115.84 17.9389-115.84 18.1523-115.878 18.3606L-115.878 20.6555-150.078 20.6555C-150.498 20.673-150.875 20.9132-151.068 21.2857-151.335 21.6682-151.477 22.1242-151.473 22.5906-151.471 23.0076-151.346 23.4147-151.113 23.7608-150.878 24.0952-150.486 24.2828-150.078 24.2558L-115.878 24.2558-115.878 26.2358C-116.037 26.6422-116.301 26.9994-116.643 27.2708L-117.228 27.5408-143.778 27.5408C-144.286 27.8129-144.695 28.238-144.948 28.7557L-144.948 29.5208C-145.823 28.6803-146.789 27.9407-147.828 27.3157L-149.268 26.5957C-149.82 26.4267-150.42 26.564-150.843 26.9557-151.137 27.458-151.234 28.0515-151.113 28.6207-151.113 29.2-150.974 29.7709-150.708 30.2858-148.635 31.3253-146.674 32.5772-144.858 34.0208-144.198 34.5609-143.388 35.2809-142.428 36.181-141.701 36.8165-141.01 37.4926-140.358 38.206-139.248 39.4895-137.923 40.5705-136.443 41.4009L-119.838 41.4009C-119.206 41.2088-118.726 40.6939-118.578 40.051-118.55 39.7367-118.55 39.4204-118.578 39.1059-119.823 37.0405-121.336 35.149-123.078 33.4809-123.663 32.8959-124.428 32.1308-125.373 31.2759L-114.213 31.2759C-113.231 31.3269-112.287 30.8889-111.693 30.1058-111.486 29.7504-111.32 29.3732-111.198 28.9807L-111.198 24.4806-105.887 24.4806C-105.503 24.5025-105.133 24.3343-104.897 24.0306-104.634 23.6826-104.506 23.2509-104.537 22.8155-104.517 22.3394-104.643 21.8683-104.897 21.4655-105.102 21.1107-105.478 20.8887-105.887 20.8805ZM-161.014-6.345-198.05-6.345C-198.46-6.33797-198.844-6.13802-199.084-5.80504-199.322-5.46143-199.448-5.05287-199.444-4.63497-199.542-3.66648-198.967-2.75641-198.05-2.42998L-181.804-2.42998-181.804 16.9205-192.064 16.9205C-193.774 14.9405-195.574 12.9155-197.555 10.8905L-203.36 4.77012C-203.744 4.55496-204.179 4.44631-204.62 4.45531-205.256 4.43355-205.879 4.64119-206.375 5.04027-206.84 5.37013-207.11 5.91025-207.095 6.48016-207.127 6.67405-207.127 6.87154-207.095 7.06527-203.328 10.1787-199.944 13.7285-197.014 17.6406-194.793 20.6035-192.778 23.716-190.984 26.9557-190.264 28.3058-189.544 29.6557-188.869 31.0057L-204.665 31.0057C-205.118 30.9841-205.547 31.2076-205.79 31.5907-206.036 32.0604-206.115 32.6001-206.015 33.1209-206.025 33.6244-205.9 34.1213-205.655 34.5609-205.381 34.9275-204.941 35.1307-204.485 35.1009L-188.014 35.1009-187.339 38.0258-186.664 40.681C-186.627 41.0941-186.414 41.4714-186.079 41.716-185.725 41.926-185.321 42.0349-184.909 42.031-183.949 42.1518-183.033 41.5912-182.704 40.681L-183.694 35.1009-161.194 35.1009C-160.767 35.0042-160.405 34.7242-160.204 34.336-159.916 33.9271-159.759 33.4406-159.754 32.9407-159.75 32.4535-159.909 31.9786-160.204 31.5908-160.552 31.2281-161.057 31.0597-161.554 31.1407L-185.089 31.1407C-186.199 28.6808-187.369 26.3406-188.599 24.1206-189.049 23.2655-189.634 22.2306-190.399 20.9707L-163.849 20.9707C-163.423 20.8198-163.07 20.5147-162.859 20.1156-162.635 19.7-162.511 19.2376-162.499 18.7657-162.394 17.9271-162.989 17.1627-163.828 17.0579-163.835 17.0571-163.842 17.0563-163.849 17.0555L-177.799 17.0555-177.799-2.29482-161.014-2.29482C-160.596-2.45959-160.247-2.76099-160.024-3.14992-159.762-3.56831-159.621-4.05149-159.619-4.54498-159.518-5.35901-160.096-6.10039-160.91-6.20085-160.945-6.20527-160.979-6.20821-161.014-6.21001ZM-230.18 9.04529-230.18 22.1406-231.17 23.4906-245.391 23.4906C-245.797 23.3314-246.154 23.0675-246.426 22.7257-246.542 22.5438-246.632 22.3469-246.696 22.1406L-246.696 9.04529C-246.552 8.6305-246.285 8.26955-245.931 8.01037-245.771 7.88438-245.587 7.79242-245.391 7.74039L-231.125 7.74039-230.45 8.37034-230.135 9.04529ZM-226.175 5.76021-226.175 25.7858C-226.284 26.0823-226.42 26.3685-226.58 26.6407-226.954 27.2033-227.537 27.5924-228.2 27.7208L-249.036 27.7208C-249.303 27.5997-249.547 27.432-249.756 27.2259-250.219 26.8618-250.551 26.356-250.701 25.7858L-250.701 5.76021-250.386 4.99511C-250.023 4.50276-249.564 4.08929-249.036 3.78036L-227.795 3.78036-227.075 4.27533C-226.648 4.68897-226.324 5.19784-226.13 5.76021ZM-217.175-1.75503C-217.536-3.36247-218.568-4.73838-220.01-5.53507-220.679-5.92629-221.409-6.2002-222.17-6.345L-224.015-6.345-227.345-6.03019C-228.398-5.70736-229.435-5.33184-230.45-4.90511-231.71-4.23-232.385-3.4199-232.385-2.47497-232.37-1.99736-232.23-1.53201-231.98-1.12491-231.518-0.956872-231.032-0.865733-230.54-0.854934-229.357-1.03312-228.196-1.33484-227.075-1.75503-226.42-2.02435-225.713-2.14723-225.005-2.115L-223.025-2.115C-222.447-1.95465-221.93-1.62577-221.54-1.16991-221.324-0.969798-221.154-0.723708-221.045-0.449802L-221.045 31.3657C-221.213 31.7674-221.475 32.1225-221.81 32.4009L-222.35 32.6709-254.346 32.6709C-254.837 32.7033-255.298 32.4368-255.516 31.9958-255.554 31.7875-255.554 31.5742-255.516 31.3657L-255.516-6.03019C-255.935-6.70907-256.655-7.1448-257.451-7.2001-258.095-7.16132-258.703-6.88922-259.161-6.435L-259.476-6.03019-259.476 34.9659C-259.129 35.4789-258.704 35.9344-258.216 36.316L-257.811 36.586-243.23 36.586-241.206 40.1862C-240.621 41.0861-240.125 41.716-239.81 42.166-239.308 42.8951-238.437 43.2783-237.56 43.1561-236.823 42.7847-236.342 42.0457-236.3 41.2211-236.37 40.4272-236.65 39.6663-237.11 39.0159L-238.55 36.586-218.975 36.586C-218.397 36.4258-217.88 36.0965-217.49 35.6409-217.297 35.438-217.131 35.211-216.995 34.9659L-216.995-1.75503Z" fill-rule="evenodd" transform="matrix(1.0023 0 0 -1 486.354 425.48)"/></g></svg>