<svg width="328" height="290" xmlns="http://www.w3.org/2000/svg" xmlns:xlink="http://www.w3.org/1999/xlink" xml:space="preserve" overflow="hidden"><defs><clipPath id="clip0"><rect x="196" y="53" width="328" height="290"/></clipPath></defs><g clip-path="url(#clip0)" transform="translate(-196 -53)"><path d="M0 0-303.02 0C-315.933 2.47463-315.393 15.1624-306.395 30.9094L-163.41 280.839C-158.011 289.208-144.514 294.652-136.415 280.839L3.68929 36.2184C13.2274 21.2362 21.956-0.269924 0 0" fill="#FFCC01" fill-rule="evenodd" transform="matrix(1.00231 0 0 -1 509.869 342.478)"/><path d="M0 0-134.976-233.958 134.976-233.958ZM150.003-257.893-153.017-257.893C-165.93-255.419-165.39-242.731-156.392-226.984L-13.4075 22.9459C-8.00857 31.3143 5.48895 36.7584 13.5875 22.9459L153.692-221.675C163.23-236.657 171.959-258.163 150.183-257.668Z" fill-rule="evenodd" transform="matrix(1.00231 0 0 -1 359.52 84.5847)"/><path d="M0 0 269.321 0 134.706 233.553ZM269.951-0.359899-0.539848-0.359899 134.706 234.273 134.706 234.003ZM135.561 265.092C129.788 264.786 124.529 261.678 121.478 256.769L-21.5061 6.83873C-27.5351-3.6443-29.4697-12.6428-26.9952-17.8168-25.2831-21.1576-22.0001-23.4083-18.2667-23.8006L285.248-23.8006C289.811-24.4568 294.358-22.513 297.036-18.7615 301.535-10.528 292.537 5.57909 288.263 12.1479L147.933 256.769C145.739 261.54 141.115 264.733 135.875 265.092ZM285.248-24.1605-18.3118-24.1605C-22.1737-23.761-25.5658-21.4205-27.3101-17.9518-29.8746-12.4628-27.8949-3.59932-21.8212 7.01868L121.163 256.949C124.264 261.993 129.647 265.189 135.561 265.497L135.875 265.497C141.268 265.174 146.042 261.904 148.293 256.994L288.578 12.3277C292.762 5.71405 302.075-10.528 297.576-19.1666 294.739-23.0244 289.971-24.9559 285.248-24.1605" transform="matrix(1.00231 0 0 -1 224.503 318.497)"/><path d="M0 0 35.9935 0 58.4895 20.7863C80.0556 44.7819 103.901 45.3667 130.026 22.5408L152.073 0.0448238 186.626 0.0448238 186.626-30.0095 114.639-30.0095 113.244 2.51946C108.317 13.4905 95.4295 18.3899 84.4585 13.4628 79.8907 11.4114 76.1695 7.84858 73.9216 3.37438L73.5167-30.0095 0-30.0095Z" fill-rule="evenodd" transform="matrix(1.00231 0 0 -1 266.352 263.652)"/><path d="M0 0 71.6271 0 71.6271 29.7846 37.1182 29.7846 15.0724 52.2806C-10.8429 74.7764-34.8237 74.3265-56.1948 50.5709L-78.6908 29.7846-114.684 29.7846-114.684 0.0899747-41.3025 0.0899747-40.8526 33.3389C-36.9664 40.799-29.2429 45.4678-20.8313 45.4417L-19.9314 45.4417C-11.7011 45.177-4.38439 40.1291-1.21482 32.5291ZM71.987-0.359899 0-0.359899-1.39461 32.1692C-4.52131 39.6319-11.7098 44.5884-19.7964 44.8568L-20.6512 44.8568C-28.8947 44.8725-36.4669 40.3154-40.3126 33.024L-40.7626-0.494861-115.044-0.494861-115.044 30.0545-79.0507 30.0545-56.5547 50.7958C-45.8467 62.7636-34.3288 68.7926-22.4058 69.2874L-21.5511 69.2874C-9.8982 69.2874 2.47463 63.6635 15.2072 52.5503L37.2082 30.0545 71.852 30.0545Z" transform="matrix(1.00231 0 0 -1 381.301 293.437)"/><path d="M0 0-5.6689 8.50343-5.6689 12.1027-2.0246 12.1027C-1.1826 12.1711-0.55539 12.9092-0.62377 13.7514-0.625243 13.7719-0.627369 13.7923-0.629823 13.8126-0.631132 14.2921-0.77182 14.7611-1.03471 15.1624-1.24721 15.5704-1.59828 15.8894-2.0246 16.0621L-5.6689 16.0621-5.6689 25.9602C-5.99788 26.8702-6.9135 27.4308-7.87361 27.3099-8.28749 27.3365-8.69859 27.2257-9.04328 26.9952-9.37815 26.7505-9.59147 26.3734-9.62811 25.9602L-9.62811 15.792-14.1273 15.792C-15.0443 15.4658-15.6198 14.5559-15.5221 13.5877-15.5197 13.177-15.4112 12.7741-15.2072 12.4177-14.9412 12.0848-14.5517 11.8737-14.1273 11.8328L-10.483 11.8328C-10.9143 8.70105-11.8565 5.66105-13.2726 2.83453-14.1273 0.944735-15.5221-1.97977-17.4567-6.16392-17.2812-7.29335-16.2231-8.06664-15.0937-7.89078-14.7405-7.83582-14.4076-7.69039-14.1273-7.46856-13.7396-7.13941-13.4972-6.67056-13.4524-6.16392L-9.80806 0.719798-9.80806-21.776C-9.71531-22.6157-8.95936-23.2212-8.11948-23.1283-8.11245-23.1276-8.10542-23.1266-8.09854-23.1258-7.62299-23.1405-7.15365-23.0154-6.74876-22.7659-6.33815-22.5567-6.018-22.2046-5.84885-21.776L-5.84885 2.0246-2.51946-3.23942C-2.20602-3.42869-1.85054-3.53699-1.48458-3.55433-1.0159-3.58328-0.562424-3.38174-0.269761-3.01448 0.0112877-2.57148 0.152466-2.05404 0.134962-1.52973 0.173406-1.10505 0.127437-0.676937 0-0.269924ZM9.94319-8.99829 9.94319 1.03487C9.81346 1.52237 9.46436 1.92137 8.99846 2.11473 8.70105 2.17166 8.39579 2.17166 8.09854 2.11473 7.68744 2.11637 7.28337 2.00758 6.92871 1.79966 6.59417 1.63198 6.36007 1.31412 6.29889 0.944735L6.29889-8.99829C5.894-10.708 5.5341-12.1027 5.17404-13.1826 4.17761-16.2836 2.65573-19.1905 0.674974-21.776 0.576493-22.2738 0.747445-22.7867 1.12485-23.1258 1.46413-23.5497 1.97666-23.7977 2.51946-23.8006 3.01743-23.813 3.47597-23.531 3.68945-23.0808 5.70702-21.4225 7.25769-19.267 8.18868-16.8269 8.996-14.2723 9.58313-11.6532 9.94319-8.99829M24.2057-22.496 24.2057 1.34978C24.1633 1.76121 23.9513 2.13616 23.6208 2.38466 23.2595 2.61548 22.834 2.72591 22.406 2.69957 21.4496 2.80345 20.5437 2.24871 20.2013 1.34978L20.2013-22.496 20.7863-23.0358C21.1951-23.4023 21.722-23.6095 22.271-23.6208 22.5974-23.6887 22.9344-23.6887 23.2608-23.6208 23.6099-23.3587 23.9271-23.0566 24.2057-22.7209ZM32.1692 2.42965C32.3788 2.05928 32.4874 1.64016 32.4842 1.21482 32.4966 0.709983 32.3014 0.221992 31.9443-0.134962 31.5633-0.478338 31.0616-0.656325 30.5495-0.629987L29.8297-0.629987C27.219 0.801266 24.8993 2.70906 22.9908 4.99409 22.451 5.57909 20.6512 7.96358 17.5469 12.1927L14.5774 12.1927C13.0813 9.8964 11.3957 7.72916 9.5383 5.71405 8.27849 4.36427 6.74876 2.92451 5.03924 1.21482 4.41858 0.628678 3.75702 0.0873573 3.05947-0.40505 2.73245-0.553263 2.38237-0.644546 2.02476-0.674974 0.944735-0.674974 0.40505-0.0899747 0.40505 1.03471 0.409467 1.44499 0.517764 1.84743 0.719798 2.20471 3.55449 4.49923 5.21903 5.98381 6.02896 6.70377 7.83206 8.24463 9.35443 10.0867 10.528 12.1477L1.97977 12.1477C1.30218 12.5462 0.864412 13.2533 0.809936 14.0375 0.8402 14.6834 1.1134 15.2941 1.57472 15.7472L1.97977 16.0621 11.6079 16.0621 12.9127 20.9661 4.9491 19.9762 3.2844 19.9762C2.42965 19.9762 1.97977 20.5614 1.97977 21.731 1.95327 22.159 2.06353 22.5845 2.29452 22.9459L19.5715 25.5553 25.8704 27.2201C26.5286 27.2818 27.1778 27.032 27.625 26.5452 27.9192 26.1941 28.0646 25.7419 28.0299 25.2854 28.0576 25.0462 28.0576 24.8047 28.0299 24.5654 28.0612 24.4628 28.0612 24.3531 28.0299 24.2505 25.7102 23.2436 23.2999 22.4601 20.8313 21.9108 19.9314 21.9108 18.8067 21.5061 17.4119 21.326L15.7472 16.0621 29.2447 16.0621C29.9742 15.7997 30.4357 15.0796 30.3696 14.3073 30.418 13.4358 29.9868 12.6074 29.2447 12.1477L22.2259 12.1477 22.8559 10.7979C24.7875 8.55185 26.8777 6.44694 29.1098 4.49923L32.1692 2.11473ZM-33.654 21.776C-32.889 21.776-32.484 21.776-32.484 21.3711-32.539 21.1338-32.6301 20.906-32.7541 20.6963L-33.2039 19.7966C-33.7032 18.8662-34.3404 18.0169-35.0936 17.2768-35.9035 16.377-36.6233 15.6123-37.2533 15.0273-37.8831 14.4424-38.468 13.9024-38.738 13.9024-39.0078 13.9024-39.4578 14.2625-40.1327 14.9823L-41.9775 16.6471C-43.0501 17.5482-43.9759 18.6107-44.7219 19.7966L-42.3822 21.776ZM-55.2949-16.9169C-55.5812-17.6239-56.0655-18.2333-56.6896-18.6717L-57.6345-19.2116-67.5777-19.2116C-68.2931-18.9405-68.9171-18.4726-69.3774-17.8618L-69.9174-16.9169-69.9174 19.0764C-69.8094 19.4606-69.5708 19.7948-69.2424 20.0215-68.8878 20.2761-68.4642 20.4172-68.0276 20.4262-67.0829 20.4262-66.588 19.9764-66.588 19.0764L-66.588-13.4975C-66.376-14.0995-65.8924-14.5666-65.2831-14.7573L-64.4283-14.7573-64.4283 24.2956C-64.3809 24.7054-64.17 25.0786-63.8435 25.3305-63.5305 25.5613-63.1525 25.6871-62.7636 25.6904-61.883 25.7966-61.0807 25.1749-60.9639 24.2958L-60.9639-14.7123C-60.0087-14.9392-59.0478-14.3587-58.8042-13.4075L-58.8042 19.0764C-58.737 19.4669-58.5289 19.819-58.2194 20.0663-57.9064 20.2972-57.5285 20.4233-57.1397 20.4262-56.2641 20.5363-55.455 19.9443-55.2949 19.0764ZM-25.7804-16.9169-37.7482-16.9169-37.7482-23.4857C-38.1144-24.0895-38.7531-24.4759-39.4578-24.5206-40.0502-24.4703-40.6071-24.2158-41.0326-23.8006L-41.3925-23.4857-41.3925-16.9169-53.0004-16.9169C-53.7028-16.5203-54.0945-15.7372-53.9902-14.9373-54.1012-14.1481-53.7053-13.3743-53.0004-13.0025L-41.3475-13.0025-41.3475-8.50343-50.6608-8.50343C-51.085-8.46253-51.4747-8.2515-51.7405-7.91843-51.971-7.57375-52.0818-7.16264-52.0556-6.74876-52.1533-5.78047-51.5776-4.87041-50.6608-4.54405L-41.3475-4.54405-41.3475-0.0449874-51.6506-0.0449874C-52.3339 0.34763-52.7736 1.0581-52.8204 1.84465-52.7901 2.49066-52.5169 3.10135-52.0556 3.55449L-51.6506 3.86924-41.3475 3.86924-41.3475 6.47884C-41.3692 6.93165-41.1458 7.36124-40.7626 7.60352-40.3866 7.84351-39.9488 7.96865-39.5028 7.96358-38.288 7.96358-37.7032 7.46856-37.7032 6.47884L-37.7032 3.86924-27.085 3.86924C-26.6608 3.82851-26.2713 3.61748-26.0053 3.2844-25.7748 2.93972-25.6641 2.52862-25.6902 2.11457-25.5798 1.15413-26.1642 0.249475-27.085-0.0449874L-37.7482-0.0449874-37.7482-4.54422-28.1199-4.54422C-27.6934-4.71697-27.3425-5.03597-27.1302-5.44396-26.8738-5.84836-26.7338-6.31525-26.7251-6.79375-26.6229-7.63247-27.2201-8.39497-28.0587-8.49721-28.0792-8.49967-28.0994-8.50179-28.1199-8.50343L-37.7482-8.50343-37.7482-13.0027-25.7804-13.0027C-25.1136-13.4121-24.6797-14.1129-24.6104-14.8923-24.6384-15.5483-24.9305-16.1649-25.4205-16.602ZM-24.1155 8.99846C-25.6003 8.99846-26.8151 9.40318-27.7598 9.62828-30.4064 10.2043-32.9743 11.0954-35.4085 12.2827-33.9527 13.2546-32.636 14.4202-31.4944 15.7472-30.1116 17.3556-28.9745 19.1599-28.1199 21.1012L-27.715 22.2259C-27.6733 22.5997-27.6733 22.9769-27.715 23.3507-27.5885 23.8166-27.6365 24.3126-27.85 24.7457-28.3177 25.1596-28.939 25.3559-29.5596 25.2854L-42.4723 25.2854C-42.9363 25.3264-43.403 25.3264-43.8669 25.2854-44.2388 25.1098-44.5627 24.8476-44.8118 24.5207-46.8104 22.54-48.9616 20.7197-51.2457 19.0766L-54.3052 16.962C-54.6104 16.5766-54.784 16.1035-54.8 15.6123-54.8 14.6674-54.2602 14.1725-53.1805 14.1725-52.7748 14.1702-52.3743 14.2628-52.0106 14.4424L-50.7058 15.2522C-49.491 16.0171-48.4112 16.7819-47.4664 17.5017-46.8364 16.602-46.3416 15.9272-45.9367 15.4323-44.9473 14.1807-43.7439 13.1142-42.3822 12.2829-44.0191 11.1876-45.8079 10.3386-47.6914 9.7634L-53.3153 8.00857C-53.8149 7.79721-54.1231 7.28975-54.0802 6.74892-54.094 6.29218-53.9142 5.85114-53.5854 5.5341-53.2605 5.15277-52.7813 4.93798-52.2806 4.94927L-51.6506 4.94927-49.3111 5.48911C-45.7386 6.41307-42.2932 7.77316-39.053 9.53847-37.2981 8.77352-35.8135 8.18868-34.5537 7.78363-31.2572 6.60529-27.8508 5.76116-24.3854 5.26418-23.3538 5.42155-22.645 6.38526-22.8024 7.41703-22.9064 8.10067-23.3758 8.67258-24.0255 8.90848ZM-114.594-9.80823C-116.665-10.6504-118.783-11.3717-120.938-11.9678L-123.862-12.7327-124.537-12.7327C-125.065-12.746-125.572-12.5332-125.932-12.1479-126.258-11.7919-126.435-11.3252-126.427-10.8429-126.449-10.288-126.237-9.74934-125.842-9.35835-125.411-8.93531-124.826-8.70776-124.223-8.72837L-115.224-5.75887C-114.726-5.73466-114.239-5.91314-113.874-6.2539-113.562-6.52579-113.381-6.91922-113.379-7.3336-113.358-8.27162-113.794-9.16139-114.549-9.71809ZM-107.62-1.61955-107.62 0.359899C-107.724 0.766421-107.875 1.15904-108.07 1.5299-108.509 2.30319-109.166 2.92941-109.96 3.32956L-111.625 3.32956-111.625 21.3261C-111.773 21.7379-111.969 22.1305-112.21 22.496-112.783 23.2727-113.64 23.7905-114.594 23.9356L-123.862 23.9356-125.212 22.6309-125.212 21.3261C-125.212 20.7863-124.717 20.3364-123.907 19.9764L-116.304 19.9764-115.809 19.7064C-115.481 19.466-115.296 19.0776-115.314 18.6717L-115.314 3.2844-118.598 3.2844-119.273 3.2844C-119.714 3.50182-119.981 3.96363-119.948 4.45424L-119.948 17.097-120.263 17.4569C-120.708 17.9302-121.324 18.2055-121.973 18.2218-122.762 18.1837-123.484 17.7643-123.907 17.097L-123.907 2.02476C-123.775 1.59255-123.578 1.18309-123.323 0.809936-122.852 0.0737793-122.107-0.444312-121.253-0.629823L-113.334-0.629823C-113.025-0.786052-112.737-0.982688-112.48-1.21482-111.902-1.75516-111.509-2.46334-111.355-3.23942L-111.355-4.85896-112.03-15.3872C-112.295-16.47-112.952-17.4158-113.874-18.0416-114.796-18.73-115.882-19.1643-117.024-19.3014L-119.993-19.3014C-120.893-19.3014-121.388-19.7964-121.388-20.8311-121.391-21.2697-121.249-21.697-120.983-22.0459-120.767-22.3834-120.394-22.5871-119.993-22.5856L-117.339-22.5856C-115.105-22.6159-112.94-21.814-111.265-20.3363-109.602-18.9466-108.659-16.8784-108.7-14.7122L-107.711-1.61955ZM-79.4106-14.3974-79.4106-12.2379C-79.3615-11.5338-79.3615-10.8272-79.4106-10.1231-79.3595-9.64447-79.3595-9.16205-79.4106-8.68338-79.5054-8.25952-79.6895-7.86085-79.9506-7.51355-80.3078-7.26963-80.7327-7.14367-81.1652-7.15365-81.5971-7.14939-82.0201-7.27487-82.3801-7.51355-82.7177-7.72932-82.9214-8.1028-82.9199-8.50327-83.3986-9.84945-83.6716-11.2601-83.7298-12.6877-83.781-14.361-84.4362-15.9592-85.5745-17.187L-97.6772-17.187C-97.9962-17.1804-98.3074-17.087-98.5771-16.9169-98.8597-16.6494-99.008-16.2701-98.982-15.882L-98.982-3.4192C-96.2327-2.76566-93.5626-1.81536-91.0184-0.584836-88.4036 0.6488-86.0512 2.37501-84.0897 4.49923-84.0703 4.58822-84.0703 4.68016-84.0897 4.76915L-84.0897 5.48911C-84.0726 5.99215-84.2317 6.48554-84.5396 6.88372-84.9934 7.3246-85.6206 7.53923-86.2495 7.46856-89.5788 4.90428-91.6034 3.41937-92.3232 2.96933-94.41 1.63263-96.73 0.701639-99.162 0.224937L-99.162 9.22339C-99.2043 9.63482-99.4164 10.0098-99.747 10.2581-100.104 10.5022-100.529 10.6281-100.962 10.618-101.926 10.6996-102.827 10.1298-103.166 9.22339L-103.166-18.6266C-103.076-19.0864-102.909-19.5276-102.671-19.9314-102.15-20.8406-101.235-21.4555-100.197-21.5961L-84.8997-21.5961C-83.2407-21.7441-81.6575-20.8725-80.8953-19.3915-80.0522-18.0416-79.6003-16.484-79.5905-14.8923ZM-79.7706 17.097C-80.1786 15.8807-80.4796 14.6312-80.6704 13.3627-80.8143 11.7715-81.5534 10.2933-82.74 9.22339-83.9998 9.22339-84.8097 9.22339-85.1696 10.3482-85.2416 10.8405-85.2416 11.3406-85.1696 11.8328-85.077 12.5103-84.8637 13.1656-84.5396 13.7674-84.21 14.3672-83.9963 15.0235-83.9098 15.7021-83.9021 16.2283-84.1141 16.7337-84.4946 17.097L-102.311 17.097C-102.726 16.953-103.087 16.6862-103.346 16.3321L-103.661 15.7922-103.661 12.1927C-104.08 11.514-104.8 11.0783-105.596 11.0231-106.24 11.0618-106.847 11.3335-107.306 11.788L-107.62 12.1927-107.62 18.4016C-107.448 19.2498-106.925 19.9854-106.181 20.4262-105.794 20.6562-105.387 20.8519-104.966 21.0111L-95.3377 21.0111-95.3377 25.5103-94.3478 26.8151-92.3682 26.8151-91.0184 25.5103-91.0184 21.0111-82.74 21.0111C-81.8831 20.8545-81.1054 20.4102-80.5354 19.7514-80.2321 19.4448-79.9746 19.0964-79.7706 18.7165L-79.7706 17.0968Z" fill-rule="evenodd" transform="matrix(1.00231 0 0 -1 407.006 394.129)"/></g></svg>