<svg width="328" height="290" xmlns="http://www.w3.org/2000/svg" xmlns:xlink="http://www.w3.org/1999/xlink" xml:space="preserve" overflow="hidden"><defs><clipPath id="clip0"><rect x="196" y="53" width="328" height="290"/></clipPath></defs><g clip-path="url(#clip0)" transform="translate(-196 -53)"><path d="M0 0-303.052 0C-315.967 2.4299-315.426 15.164-306.427 30.9127L-163.428 280.734C-158.028 289.103-144.529 294.503-136.43 280.734L3.68968 36.2223C13.2288 21.2386 21.9583-0.269789 0 0" fill="#FFCC01" fill-rule="evenodd" transform="matrix(1.0023 0 0 -1 509.884 342.238)"/><path d="M0 0-134.99-233.982 134.99-233.982ZM150.019-257.876-153.034-257.876C-165.948-255.446-165.408-242.712-156.408-226.963L-13.409 22.8583C-8.00942 31.2277 5.48953 36.6274 13.5889 22.8583L153.708-221.653C163.248-236.637 171.977-258.146 150.199-257.651Z" fill-rule="evenodd" transform="matrix(1.0023 0 0 -1 359.52 84.3624)"/><path d="M0 0 269.35 0 134.72 233.533ZM269.98-0.359937-0.539906-0.359937 134.72 234.252 134.72 233.983ZM135.575 265.12C129.796 264.797 124.538 261.673 121.491 256.751L-21.5084 6.83946C-27.538-3.68968-29.4728-12.419-26.9981-17.8187-25.2858-21.1599-22.0025-23.4108-18.2686-23.8031L285.279-23.8031C291.263-23.8031 295.223-22.1384 297.068-18.7637 301.568-10.5291 292.568 5.57968 288.294 12.104L147.949 256.751C145.747 261.517 141.126 264.706 135.89 265.075ZM285.279-24.1631-18.3138-24.1631C-22.1761-23.7635-25.5685-21.4228-27.313-17.9537-29.8777-12.4641-27.8979-3.5997-21.8235 7.01943L121.176 256.751C124.287 261.779 129.67 264.958 135.575 265.255L135.89 265.255C141.283 264.932 146.058 261.662 148.309 256.751L288.609 12.329C292.793 5.71466 302.107-10.5743 297.608-19.1686 294.77-23.0268 290.002-24.9585 285.279-24.1631" transform="matrix(1.0023 0 0 -1 224.49 318.255)"/><path d="M0 0C-7.10958 0.359937-10.3042-2.92482-7.78446-8.63931L30.8677-22.9483C37.8872-24.2532 39.867-16.4688 34.0175-12.7341ZM-12.8691 7.60433C-7.87445 11.6091-1.16996 12.104 7.15441 9.6743L39.507-2.38491C43.9942-3.19722 47.1646-7.23752 46.8864-11.7891 43.9637-19.1474 44.5774-27.4395 48.5515-34.2875L41.0369-44.8166-28.7529-19.2136-30.2828-6.92945C-30.2828-5.26457-30.6428-5.66967-28.9329-5.44454-21.567-4.42347-15.3778 0.60404-12.8691 7.60433" fill-rule="evenodd" transform="matrix(1.0023 0 0 -1 357.806 188.8)"/><path d="M0 0 38.562-14.264C41.0044-15.0583 43.6509-13.8712 44.6818-11.5191 45.5165-8.69707 44.2083-5.68243 41.577-4.36457L7.60449 8.32437C4.80827 8.85266 1.93384 7.93956-0.0449922 5.89463-1.07474 4.06042-1.05772 1.81834 0 0M40.047-14.7587 38.4721-14.7587-0.269953-0.449922C-1.40326 1.51305-1.40326 3.93166-0.269953 5.89463 1.78496 8.06407 4.80664 9.03164 7.73947 8.45951L41.802-4.27458C44.5858-5.68717 45.9664-8.88391 45.0866-11.8791 44.1838-13.8072 42.1665-14.9598 40.047-14.7587M-20.9235-10.5741 48.5964-36.0873 55.8858-25.558C51.9201-18.7051 51.3228-10.41 54.2661-3.05979 54.486 1.3442 51.3707 5.21402 47.0214 5.93962L14.6689 17.9987C6.43453 20.5635-0.224961 19.9335-5.17459 16.0188-7.72982 8.98109-13.9598 3.92773-21.3734 2.87983L-22.1383 2.87983-22.6332 2.87983C-22.6733 2.67172-22.6733 2.45788-22.6332 2.24977L-22.6332 1.70987ZM48.7313-36.5372-21.2834-10.8441-22.8133 1.48491-22.8133 1.97998-22.8133 2.87983C-22.8133 3.05979-22.4984 2.87983-22.0934 2.87983L-21.3284 2.87983C-14.0101 3.87374-7.86168 8.87589-5.39955 15.8389-0.359937 19.8437 6.43453 20.3386 14.8489 17.8637L47.2015 5.80464C51.7794 5.028 55.0149 0.895917 54.6709-3.73468 51.7839-10.9715 52.381-19.1334 56.2909-25.8729Z" transform="matrix(1.0023 0 0 -1 350.139 197.304)"/><path d="M0 0 68.8899-25.378 68.08-31.9477 64.21-30.4626C58.2707-41.0368 48.4615-35.3673 53.096-26.233L14.1738-11.1592C7.78446-23.9381-3.0148-17.7737 2.6547-6.97444L0-5.93946Z" fill-rule="evenodd" transform="matrix(1.0023 0 0 -1 328.536 210.488)"/><path d="M0 0 0 0 39.1469-15.1188C36.8074-19.6185 38.2021-23.1283 40.452-24.1181 42.7018-25.1081 46.9316-24.388 49.9462-19.0336L53.5911-20.4284 54.3559-14.264-13.9039 10.6643-13.9039 5.08461-11.1592 4.00479C-12.9195 1.32146-13.1744-2.0788-11.8342-4.99462-11.008-6.31755-9.52067-7.07849-7.96443-6.97444-5.03961-6.97444-2.15979-4.22975-2.32501e-15 0.0899843ZM42.6118-25.468C41.8139-25.4811 41.0253-25.2954 40.3171-24.9281 37.9322-23.6232 36.3573-20.1136 38.7422-15.6139L0.359937-0.494914C-0.964632-4.11605-4.05813-6.80151-7.82945-7.60433-9.53539-7.74765-11.1749-6.91047-12.0592-5.44454-13.4919-2.46377-13.2702 1.04774-11.4741 3.82466L-14.0839 4.81465-14.0839 11.1592 54.9858-14.3088 54.3559-21.3282 54.1308-21.3282 50.3961-19.8885C49.006-23.0231 46.0268-25.1583 42.6118-25.468" transform="matrix(1.0023 0 0 -1 342.652 221.377)"/><path d="M0 0-67.8549 0-102.727-60.7005 0-60.7005Z" fill-rule="evenodd" transform="matrix(1.0023 0 0 -1 351.312 246.665)"/><path d="M0 0 102.232 0 102.232 60.2956 34.7374 60.2956ZM102.637-0.405093-0.630054-0.405093-0.630054-0.134976 34.3325 60.6555 102.637 60.6555Z" transform="matrix(1.0023 0 0 -1 248.663 307.141)"/><path d="M0 0C-4.3073 0.839308-8.45378 2.35824-12.2842 4.49971-20.2936 8.36936-25.7831 10.4842-32.3076 5.44454-38.6172 0.922258-46.96 0.41491-53.771 4.13977L-54.4011 4.49971C-58.7364 9.57433-65.4083 12.0145-71.9947 10.9342-89.0483 1.12497-101.153 1.93483-113.616 14.039L-108.487 19.3486C-98.3627 9.62914-89.6332 9.17922-75.0994 17.6387L-73.9295 18.0437C-64.9849 19.8867-55.7263 16.9368-49.4963 10.2592-45.1044 8.14865-39.9036 8.65126-35.9973 11.5641-25.6482 19.3034-16.2438 14.7589-8.68447 11.0691-5.54762 9.33416-2.16371 8.08975 1.34993 7.37937Z" transform="matrix(1.0023 0 0 -1 464.784 299.986)"/><path d="M0 0-0.810023 0C-4.27867 0.831455-7.62249 2.11741-10.7543 3.82466-17.5038 7.06459-21.2836 8.59432-26.7731 4.49971-32.4135 0.429961-39.8941-0.0253592-45.9866 3.32975L-46.7966 3.95964C-50.5105 8.17892-56.1551 10.1571-61.6905 9.17922-76.5394 0.719875-87.5186 1.57489-98.3627 12.0142L-93.2781 17.3238C-84.6388 9.04424-77.2142 8.68431-64.8401 15.8839L-63.6255 16.3338C-55.6844 17.9913-47.4525 15.4009-41.892 9.49433-38.3225 7.81947-34.1153 8.28887-31.0027 10.7091-22.0035 17.4588-14.129 13.6339-7.73963 10.7091-5.42147 9.49809-2.99615 8.50401-0.494914 7.73947L2.06964 9.0894C5.84947 11.0242 6.56935 11.429 8.00926 11.294L7.15441 3.95964 7.55934 7.60433 8.59416 4.09461C8.05425 4.09461 6.79431 3.19477 5.48953 2.51972 2.33976 0.630054 1.1698 0 0 0" transform="matrix(1.0023 0 0 -1 446.248 310.381)"/><path d="M0 0 0 9.85427-1.34993 11.1592-13.6339 11.1592C-14.0487 11.0154-14.4096 10.7485-14.6689 10.3943-14.7767 10.2237-14.8672 10.0429-14.9389 9.85427L-14.9389 0C-14.9785-0.480843-14.707-0.933546-14.264-1.1248-14.0557-1.16276-13.8422-1.16276-13.6339-1.1248L-1.34993-1.1248C-0.935183-0.980993-0.574264-0.714148-0.314945-0.359937-0.198456-0.250647-0.0927657-0.130068 -8.3555e-16 0M-27.223 28.8429-27.223 35.6372C-27.3772 36.059-27.6412 36.4319-27.9879 36.7172L-28.573 36.9872-33.0727 36.9872C-33.4789 36.828-33.8361 36.5641-34.1075 36.2221-34.2235 36.0404-34.3143 35.8435-34.3774 35.6372L-34.3774 29.1127C-34.3845 28.6029-34.1512 28.1194-33.7476 27.8079L-33.0727 27.448-28.573 27.448C-28.0794 27.4024-27.6106 27.6728-27.4028 28.1229-27.3651 28.3312-27.3651 28.5447-27.4028 28.7528ZM-0.674882 35.7274-1.03482 37.0773-12.7789 37.0773C-13.1781 36.905-13.5322 36.6433-13.8141 36.3123-13.9301 36.1305-14.0209 35.9337-14.084 35.7274-13.0463 33.3933-11.7155 31.2008-10.1242 29.2029-9.39224 28.2768-8.61134 27.3906-7.78446 26.5482-5.77699 28.3141-4.03408 30.3599-2.60971 32.6228-2.0698 33.4326-1.48491 34.4676-0.809859 35.7274ZM3.82466-1.97982 3.82466 11.5191 3.0148 13.319C2.72849 13.9371 2.15635 14.3744 1.48491 14.4891L-0.134976 15.1188-14.6239 15.1188-16.8287 14.219C-17.5409 13.8939-18.0693 13.2663-18.2686 12.5091L-18.9435 10.5291-18.9435-1.25978C-18.7398-1.92386-18.4841-2.57093-18.1786-3.19461-17.3719-4.43606-16.0833-5.28437-14.6239-5.53453L-0.675046-5.53453C-0.00163608-5.45141 0.661794-5.30073 1.30494-5.08461 2.64668-4.52507 3.63553-3.35183 3.95964-1.93483ZM7.15441 18.0437C7.39851 17.0579 6.90736 16.0378 5.98445 15.6139 5.49183 15.5465 4.99233 15.5465 4.49971 15.6139 1.70987 16.6937-1.21495 17.9987-4.49971 19.5286-5.53453 20.0236-6.79447 20.6985-8.27938 21.5085-10.8781 19.7296-13.6524 18.2218-16.5588 17.0088-17.5487 16.6037-18.8987 16.1088-20.5635 15.5689-21.5426 15.2563-22.5982 15.745-22.9933 16.6937-23.0653 17.1862-23.0653 17.6863-22.9933 18.1786L-10.7093 24.0733-16.2888 31.1375-20.2486 26.9079C-20.6107 26.674-21.0323 26.549-21.4634 26.548-21.9094 26.5429-22.3474 26.6681-22.7233 26.9079-23.0609 27.1237-23.2645 27.4972-23.2632 27.8979L-23.2632 25.2431C-23.3709 24.6284-23.7748 24.1063-24.3432 23.8483-24.6413 23.8012-24.945 23.8012-25.2431 23.8483L-28.573 23.8483-28.573 15.6589-22.9033 15.6589C-22.4661 15.6643-22.0574 15.4431-21.8235 15.0738-21.5493 14.6611-21.4081 14.1745-21.4184 13.6789-21.4038 13.175-21.5285 12.6768-21.7783 12.2392-22.0316 11.873-22.4593 11.6677-22.9033 11.6991L-28.573 11.6991-28.573 0.900007-22.9033 3.19477C-22.2449 3.25645-21.5957 3.00679-21.1484 2.51972-20.8543 2.16879-20.7088 1.71657-20.7435 1.25994-20.7159 1.02059-20.7159 0.779264-20.7435 0.54007-20.7123 0.437324-20.7123 0.327707-20.7435 0.224961-24.2987-1.38085-27.9504-2.7635-31.6776-3.91481L-36.6722-5.35472C-37.5269-5.91246-38.5319-6.19501-39.552-6.16458L-40.587-6.16458C-40.7192-6.20336-40.8598-6.20336-40.992-6.16458-41.2367-5.75736-41.3617-5.28961-41.3519-4.81465-41.3424-3.98107-40.9213-3.20622-40.2271-2.74469-39.4747-2.2195-38.5797-1.93695-37.6622-1.93483L-37.6622 16.7389C-37.1673 17.5036-36.6722 17.8637-36.0423 17.8637-35.5844 17.8409-35.1513 17.6484-34.8274 17.3238L-34.3325 16.7389-34.3325-0.989991-31.6776 0-31.6776 23.6233-35.6824 23.6233C-36.5205 23.7897-37.2529 24.2943-37.7072 25.0181-37.9547 25.4024-38.1656 25.8091-38.3371 26.233L-38.3371 38.0221C-38.0951 38.9228-37.5359 39.7058-36.7622 40.2269L-35.6824 40.6768-26.278 40.6768C-25.2766 40.7266-24.3278 40.2263-23.8031 39.3719-23.5746 38.948-23.4079 38.4933-23.3082 38.022L-23.3082 29.0229-22.9483 30.0127C-21.4366 31.3324-20.1053 32.8453-18.9887 34.5123-17.8169 36.3007-16.7937 38.1818-15.9287 40.1369L-13.6339 41.4419 2.65486 41.4419C3.30112 41.3025 3.86671 40.9146 4.22975 40.3619 4.39958 40.0947 4.53554 39.8078 4.63468 39.507 4.06287 35.6647 2.39047 32.0703-0.180132 29.1579L-4.31957 24.0733 0.179969 21.4632C1.2143 20.7903 2.38017 20.3455 3.5997 20.1585 4.96992 19.9067 6.21906 19.211 7.15441 18.1785ZM-79.3292 7.5595C-79.062 7.94185-78.9205 8.39783-78.9241 8.86444-78.9068 9.44066-79.1358 9.9971-79.5542 10.3942-79.9404 10.8009-80.4781 11.029-81.0389 11.0242-81.6922 11.0463-82.3085 10.7211-82.659 10.1692L-86.3035 7.1994-86.3035 25.603-81.354 25.603C-80.4329 25.8975-79.8487 26.8022-79.9591 27.7628-79.9327 28.1769-80.0435 28.5879-80.274 28.9329-80.5401 29.266-80.9296 29.4771-81.354 29.5178L-86.3035 29.5178-86.3035 41.6668C-86.6459 42.566-87.552 43.1208-88.5084 43.0168-88.9366 43.0431-89.362 42.9328-89.7234 42.7018-90.046 42.4464-90.2561 42.075-90.3083 41.6668L-90.3083 29.5178-95.1229 29.5178-95.5278 29.2027C-95.9894 28.7497-96.2626 28.1389-96.2929 27.493-96.2543 26.7036-95.8124 25.9896-95.1229 25.603L-90.1733 25.603-90.1733 4.58969-94.4029 2.1148C-96.1577 1.12497-97.0128-0.0449922-97.0128-1.34993-97.0335-1.55935-97.0335-1.77024-97.0128-1.97998-97.0386-2.18907-97.0386-2.40062-97.0128-2.60971-97.0128-2.60971-96.7428-2.92482-96.6528-2.92482-96.3357-3.14242-95.9573-3.25285-95.5728-3.23976-95.3197-3.28246-95.0611-3.28246-94.808-3.23976L-94.0429-2.83483-91.8382-1.43991C-89.6332-0.0449922-87.7885 1.1698-86.3035 2.24977-83.6938 4.04962-81.4438 5.75949-79.419 7.33438ZM-63.0854 20.0236C-63.1073 17.295-63.4393 14.5778-64.0752 11.9241-64.3003 10.9342-64.6151 9.71929-65.065 8.18939-66.4534 5.15283-68.3392 2.3697-70.6447-0.0449922-72.4667-1.91618-74.4547-3.61802-76.5844-5.12976-77.4351-5.80922-78.3551-6.39756-79.3292-6.88446-79.65-7.30116-80.1535-7.53611-80.679-7.51451-81.204-7.5168-81.7076-7.30558-82.0739-6.92945-82.4477-6.58014-82.6594-6.09112-82.659-5.57968-82.6418-5.06514-82.3937-4.58593-81.9839-4.27475-79.1846-2.63916-76.6127-0.642161-74.3344 1.66487-73.2844 2.68824-72.2929 3.76969-71.3646 4.90464-69.704 7.22149-68.5399 9.85623-67.945 12.6441-67.6751 13.8589-67.27 16.5588-66.7301 20.6534L-66.7301 32.4874C-66.7374 32.9141-66.5359 33.3174-66.19 33.5674-65.8109 33.8006-65.3752 33.9251-64.9302 33.9274-63.7153 33.9274-63.0854 33.4326-63.0854 32.4874ZM-51.4761-6.20957C-54.1537-4.13928-56.7219-1.93155-59.1706 0.405093-60.0256 1.21495-61.1504 2.29476-62.4104 3.5997-62.8526 3.98729-63.1135 4.54175-63.1302 5.1296-63.1063 6.36222-62.1131 7.35548-60.8805 7.37937-60.3639 7.35123-59.8653 7.17977-59.4407 6.88446L-52.1511-0.630054C-51.4092-0.963814-50.7716-1.49243-50.3061-2.15979-49.807-2.75417-49.5218-3.49892-49.4963-4.27475-49.4963-5.30957-50.1263-5.98445-51.4761-6.20957M-51.1612 9.85427-51.1612 38.697C-51.2294 38.9374-51.3357 39.1654-51.4761 39.3719-51.7883 39.8289-52.2496 40.1628-52.781 40.3171L-75.7743 40.3171C-76.0044 40.258-76.2192 40.1507-76.4044 40.002-76.8836 39.7037-77.236 39.2391-77.3942 38.697L-77.3942 10.1692C-77.2502 9.95652-77.0668 9.77328-76.8543 9.62914-76.4453 9.26282-75.9183 9.05537-75.3694 9.04424-75.0459 8.9518-74.703 8.9518-74.3794 9.04424-74.0008 9.2692-73.6777 9.57695-73.4346 9.94409L-73.4346 35.0973C-73.3937 35.3956-73.3024 35.6847-73.1645 35.9523-72.8916 36.2586-72.4943 36.4242-72.0846 36.4023L-56.2008 36.4023C-55.8888 36.3591-55.5851 36.2681-55.3009 36.1323-54.9961 35.8776-54.8294 35.4939-54.851 35.0973L-54.851 9.8541C-54.8726 9.4014-54.6491 8.97176-54.2659 8.7293-53.843 8.48307-53.3602 8.3584-52.871 8.36936-52.3671 8.3548-51.8689 8.47931-51.4311 8.7293-51.0576 8.97602-50.8501 9.40843-50.8912 9.8541ZM-111.772 30.5078-131.525 30.5078C-131.71 29.7925-131.524 29.0322-131.03 28.483-130.794 28.2253-130.501 28.0252-130.175 27.8979L-112.942 27.8979C-112.132 28.2129-111.727 28.6628-111.682 29.2029-111.637 29.7428-111.682 30.1929-111.682 30.5078ZM-111.772 34.4223-111.772 36.0873C-111.725 36.5572-111.976 37.0066-112.402 37.2121L-113.077 37.2121-130.175 37.2121C-130.669 37.2578-131.138 36.9873-131.345 36.5372-131.383 36.329-131.383 36.1156-131.345 35.9073L-131.345 34.2425ZM-136.835 9.94425C-136.533 10.3287-136.374 10.8056-136.385 11.2942-136.351 11.8513-136.565 12.3948-136.97 12.7789-137.37 13.1794-137.946 13.3489-138.5 13.229L-142.144 11.2492-142.144 26.638-138.5 26.638-138.095 26.9981C-137.178 27.7998-137.085 29.1929-137.887 30.1091-138.061 30.3072-138.268 30.4728-138.5 30.5978L-142.144 30.5978-142.144 40.677C-142.237 41.5168-142.993 42.1223-143.833 42.0294-143.84 42.0286-143.847 42.0278-143.854 42.0269-144.341 42.0196-144.819 41.8962-145.249 41.667-145.648 41.4558-145.953 41.1026-146.104 40.677L-146.104 30.5078-149.794 30.5078C-150.236 30.5302-150.66 30.3268-150.919 29.9677-151.169 29.5299-151.293 29.0317-151.279 28.5278-151.289 28.0324-151.148 27.5457-150.874 27.1331-150.634 26.7702-150.229 26.5508-149.794 26.548L-146.104 26.548-146.104 8.63931C-146.919 7.96738-147.81 7.3936-148.759 6.92945-151.009 5.75949-152.089 4.54454-152.089 3.28475-152.089 2.75859-151.982 2.23816-151.774 1.75502-151.644 1.70234-151.499 1.70234-151.369 1.75502L-150.379 1.75502-149.929 1.75502C-149.661 1.70381-149.386 1.70381-149.119 1.75502-147.132 3.16319-145.074 4.46977-142.954 5.6695-140.209 7.33454-138.14 8.63948-136.835 9.62914ZM-104.977-6.47953-111.772-6.47953C-114.523-6.45744-117.265-6.17113-119.961-5.62468L-123.696-4.81465C-125.614-4.09314-127.383-3.02544-128.915-1.66487-131.435 0.404929-133.01 1.66487-133.685 2.0698-135.73-0.239686-137.99-2.34892-140.435-4.22975-141.305-4.91969-142.474-5.7747-143.944-6.79447-144.076-6.83586-144.217-6.83586-144.349-6.79447L-144.709-6.79447C-145.229-6.81967-145.736-6.62334-146.104-6.25457-146.418-5.87434-146.593-5.39791-146.599-4.90464-146.595-4.49431-146.486-4.09183-146.284-3.73468-143.747-1.77858-141.314 0.309055-138.995 2.51972-136.771 4.67068-134.97 7.21952-133.685 10.0342-133.362 11.1459-132.827 12.185-132.11 13.094-131.423 14.0384-130.1 14.2466-129.156 13.5593-128.977 13.4294-128.82 13.2725-128.691 13.094-128.429 12.5615-128.291 11.9772-128.286 11.3842-128.436 10.036-128.932 8.74959-129.725 7.64949-130.49 6.47953-130.895 5.75949-131.03 5.53453-129.497 3.81059-127.742 2.29755-125.811 1.03482-124.936 0.429798-124.018-0.111581-123.066-0.584898L-123.066 17.0988-136.565 17.0988C-137.055 17.0663-137.517 17.3326-137.735 17.7737-137.77 17.9821-137.77 18.1952-137.735 18.4036-137.946 19.1184-137.757 19.8919-137.24 20.4284-137.013 20.6892-136.738 20.9032-136.43 21.0585L-105.562 21.0585C-105.137 20.9359-104.769 20.6645-104.527 20.2934-104.258 19.8784-104.117 19.3933-104.122 18.8987-104.119 18.4113-104.277 17.9367-104.572 17.5487-104.906 17.1631-105.424 16.9907-105.922 17.0988L-119.421 17.0988-119.421 11.204-107.272 11.204C-106.836 11.0468-106.48 10.7232-106.282 10.3042-106.014 9.90531-105.873 9.43477-105.877 8.95426-105.775 8.1156-106.372 7.35286-107.211 7.25061-107.231 7.24832-107.252 7.24619-107.272 7.24439L-119.601 7.24439-119.601-1.75486-112.627-2.38475-104.977-2.38475C-103.906-2.96294-103.506-4.30043-104.084-5.37223-104.209-5.60373-104.374-5.81135-104.572-5.98445L-104.977-6.34455ZM-107.632 26.638C-107.749 25.7327-108.281 24.934-109.072 24.478-109.459 24.2837-109.866 24.1327-110.287 24.0281L-132.785 24.0281C-133.714 24.1444-134.54 24.6735-135.035 25.468-135.22 25.8391-135.356 26.2322-135.44 26.638L-135.44 38.787-135.17 40.1369-132.83 41.4419-110.332 41.4419C-109.434 41.2189-108.65 40.6744-108.127 39.912-107.931 39.5731-107.779 39.2101-107.677 38.8322L-107.677 26.638Z" fill-rule="evenodd" transform="matrix(1.0023 0 0 -1 432.492 412.118)"/></g></svg>