<svg width="328" height="290" xmlns="http://www.w3.org/2000/svg" xmlns:xlink="http://www.w3.org/1999/xlink" xml:space="preserve" overflow="hidden"><defs><clipPath id="clip0"><rect x="196" y="53" width="328" height="290"/></clipPath></defs><g clip-path="url(#clip0)" transform="translate(-196 -53)"><path d="M0 0-303.082 0C-315.998 2.43014-315.457 15.1655-306.457 30.9156L-163.444 280.897C-158.044 289.267-144.544 294.667-136.443 280.897L3.69005 36.2257C13.2301 21.1955 21.9605-0.269979 0 0" fill="#FFCC01" fill-rule="evenodd" transform="matrix(1.0023 0 0 -1 509.898 342.493)"/><path d="M0 0-135.003-234.006 135.003-234.006ZM150.033-257.901-153.049-257.901C-165.964-255.471-165.424-242.736-156.424-226.986L-13.4103 22.9955C-8.01021 31.3657 5.49007 36.7658 13.5903 22.9955L153.724-221.675C163.264-236.706 171.994-258.171 150.213-257.676Z" fill-rule="evenodd" transform="matrix(1.0023 0 0 -1 359.52 84.5916)"/><path d="M0 0 269.376 0 134.733 233.555ZM270.007-0.359973-0.539959-0.359973 134.733 234.275 134.733 234.005ZM135.588 265.146C129.808 264.823 124.55 261.698 121.503 256.776L-21.5105 6.84014C-27.5407-3.69021-29.4757-12.4654-27.0007-17.8204-25.2882-21.162-22.0046-23.4133-18.2704-23.8056L285.307-23.8056C291.292-23.8056 295.252-22.1406 297.097-18.7655 301.597-10.5302 292.597 5.58007 288.322 12.1051L147.963 256.821C145.762 261.587 141.14 264.777 135.903 265.146ZM285.307-24.1656-18.3156-24.1656C-22.1782-23.766-25.571-21.4249-27.3157-17.9554-29.8807-12.5104-27.9007-3.60022-21.8256 7.02012L121.188 257.001C124.3 262.029 129.682 265.209 135.588 265.506L135.903 265.506C141.29 265.164 146.056 261.899 148.323 257.001L288.637 12.3302C292.822 5.71506 302.137-10.5753 297.637-18.9455 294.854-22.8887 290.075-24.9119 285.307-24.1656" transform="matrix(1.0023 0 0 -1 224.477 318.507)"/><path d="M0 0C7.10766 0.0746125 12.8091 5.89701 12.7345 13.0047 12.6599 20.1123 6.83752 25.8138-0.270143 25.7392-7.34246 25.6651-13.0297 19.8978-13.0053 12.8253-12.9312 5.70279-7.12288-0.0250345 0 0" fill-rule="evenodd" transform="matrix(1.0023 0 0 -1 360.061 188.454)"/><path d="M0 0C-7.00834-0.0746125-12.6291-5.81634-12.5547-12.8245-12.4801-19.8329-6.73836-25.4537 0.269979-25.3792 7.22531-25.3053 12.8248-19.646 12.8252-12.6903 12.7758-5.64961 7.0409 0.0248708 0 0M0-25.6957C-7.20714-25.6211-12.9891-19.718-12.9145-12.5108-12.8399-5.30387-6.937 0.478109 0.270143 0.40366 7.44178 0.329375 13.2097-5.51838 13.1853-12.6903 13.1357-19.9225 7.23283-25.7452 0.000490872-25.6957Z" transform="matrix(1.0023 0 0 -1 360.061 162.938)"/><path d="M0 0C11.8964 6.54938 21.7893 16.2089 28.6206 27.9457 34.1558 38.7908 46.1711 36.2258 54.1361 29.5205L70.0215 4.95011 70.0215-11.1153C63.0014-20.7456 57.6913-20.1154 56.2063 3.24008L51.7061 7.74023 53.1464-39.4209 65.4766-62.5965C66.6015-74.3869 56.8362-76.7719 50.1761-65.1166L37.8909-40.501 37.4859-26.3706 27.4057-37.1259C23.7605-41.6261 24.2556-48.1061 22.9056-53.5963L19.2603-63.3166C-0.360136-86.0421 10.2602-35.6409 12.1052-33.5707 13.4553-26.5508 21.1055-23.6705 24.5706-18.7205L24.5706 0.449966 20.5204 0.449966C17.6405 0.449966 8.23519-7.38009 5.35508-7.51525 1.12491-7.51525-4.54515-2.79012-0.765105-0.359973Z" fill-rule="evenodd" transform="matrix(1.0023 0 0 -1 320.459 227.245)"/><path d="M0 0 12.3754-24.4356C15.5255-29.9707 19.8006-32.8509 23.2655-31.7259 26.7306-30.6008 27.7657-27.2257 27.3155-22.0506L14.9853 1.16991 13.5004 48.7812 18.0004 43.8761C18.8105 31.5457 20.7006 24.8406 23.7606 23.9405 25.6957 23.3555 28.2606 25.2905 31.4557 29.5657L31.4557 45.361 15.9304 69.8867C11.479 74.051 5.42757 76.0573-0.629952 75.3768-4.45319 74.5536-7.65924 71.9654-9.27011 68.4015-16.1464 56.6491-26.1059 47.0006-38.0709 40.501L-38.881 40.0059C-39.832 39.5417-40.2934 38.4457-39.9609 37.4409-38.617 34.8881-36.0043 33.2551-33.1208 33.1658-30.4188 34.0726-27.881 35.4097-25.6055 37.1259-23.2938 38.8996-20.6894 40.2551-17.9104 41.131L-13.6803 41.131-13.6803 21.6007C-15.144 19.7021-16.8541 18.0073-18.7655 16.5604-22.2926 14.2796-24.8928 10.818-26.1006 6.79514-27.4507 5.35525-32.4908-17.6405-29.8357-25.7857-29.3407-27.3607-28.5758-28.2606-27.5407-28.4406L-27.0457-28.4406C-25.2007-28.4406-22.5456-26.5056-19.2605-22.6356L-15.5703-13.1403C-15.0938-11.2743-14.733-9.38072-14.4904-7.47009-14.2678-3.594-13.0089 0.151516-10.8452 3.37507L-0.449966 14.4454ZM21.7356-32.4458C17.4061-31.6743 13.7634-28.76 12.0604-24.7056L-0.359973 0-0.764942 13.5003-10.5302 3.06009C-12.6323-0.104065-13.8588-3.76826-14.0852-7.56008-14.3207-9.56087-14.6815-11.5448-15.1653-13.5003L-18.8554-23.2655C-22.5904-27.7655-25.4707-29.5657-27.5405-29.1607-28.6656-28.9357-29.5657-27.9457-30.1057-26.2356-32.7608-18.0904-27.7207 4.81512-26.3256 6.66015-25.0695 10.7321-22.4263 14.2351-18.8554 16.5604-17.0102 17.986-15.3476 19.6334-13.9053 21.4655L-13.9053 40.546-17.7754 40.546C-20.4856 39.6582-23.0263 38.3194-25.2905 36.5858-27.5942 34.8251-30.1814 33.4706-32.9408 32.5808-36.0508 32.5757-38.9013 34.3139-40.3209 37.0808-40.727 38.2242-40.2276 39.4918-39.1508 40.0509L-38.0709 40.501C-26.1859 47.0299-16.3063 56.6761-9.49526 68.4015-7.82761 72.1009-4.47511 74.7663-0.494962 75.5568 5.69428 76.3042 11.8951 74.2592 16.4254 69.9766L32.3108 45.361 32.3108 29.2057C29.0257 24.7056 26.3256 22.7706 24.1655 23.4455 20.9705 24.3456 18.9905 30.9608 18.1804 43.6059L14.2202 47.7011 15.6604 1.08008 27.9907-22.0954C28.4858-27.3607 26.8206-31.0957 23.4905-32.2208 22.9262-32.4111 22.3298-32.4877 21.7356-32.4458" transform="matrix(1.0023 0 0 -1 358.618 267.746)"/><path d="M0 0 15.2103 0 41.9409-51.8413 26.7306-51.8413Z" fill-rule="evenodd" transform="matrix(1.0023 0 0 -1 415.404 261.671)"/><path d="M0 0 14.8503 0-11.7004 51.4812-26.4608 51.4812ZM15.4353-0.359973 0-0.359973-27.0007 51.8411-11.4303 51.8411Z" transform="matrix(1.0023 0 0 -1 442.242 313.332)"/><path d="M0 0 15.1653 0 41.8959-51.8413 26.7306-51.8413Z" fill-rule="evenodd" transform="matrix(1.0023 0 0 -1 374.946 261.671)"/><path d="M0 0 14.8053 0-11.7453 51.4812-26.3256 51.4812ZM15.5705-0.359973 0-0.359973-27.0006 51.8411-11.3851 51.8411Z" transform="matrix(1.0023 0 0 -1 401.647 313.332)"/><path d="M0 0 15.2103 0 41.8961-51.8413 26.7306-51.8413Z" fill-rule="evenodd" transform="matrix(1.0023 0 0 -1 295.156 261.671)"/><path d="M0 0 14.7604 0-11.7902 51.4812-26.5506 51.4812ZM15.3453-0.359973-0.224983-0.359973-27.2257 51.7511-11.6553 51.7511Z" transform="matrix(1.0023 0 0 -1 322.083 313.332)"/><path d="M0 0 25.6507-44.8662 10.4402-44.8662-8.68532-11.3854Z" fill-rule="evenodd" transform="matrix(1.0023 0 0 -1 272.694 268.646)"/><path d="M0 0 14.5804 0-10.6203 44.3259-19.0355 33.2557ZM15.3903-0.359973-0.224983-0.359973-19.4855 33.3009-10.4853 44.9112-10.4853 44.6862Z" transform="matrix(1.0023 0 0 -1 283.293 313.332)"/><path d="M0 0 26.7308-51.8413 11.5653-51.8413-5.35508-19.0355Z" fill-rule="evenodd" transform="matrix(1.0023 0 0 -1 351.762 261.671)"/><path d="M0 0 14.7604 0-11.6104 51.1662-16.8305 32.6258ZM15.3903-0.359973-0.450129-0.359973-17.4155 32.4906-11.9254 51.9761-11.9254 51.5262Z" transform="matrix(1.0023 0 0 -1 363.67 313.332)"/><path d="M0 0C0.45422-0.458311 0.726163-1.06617 0.764942-1.71003 0.782777-2.19943 0.565321-2.66805 0.179986-2.9701-0.206003-3.3052-0.704237-3.48208-1.21507-3.46523-1.60368-3.44641-1.98525-3.35478-2.34015-3.19508-5.9852 0.179986-8.82015 2.96994-10.8452 5.26509-13.5072 8.26595-15.8452 11.5389-17.8204 15.0302-20.0407 19.0781-21.7489 23.3861-22.9056 27.8555-24.6521 21.3333-27.4649 15.1447-31.2307 9.54026-34.8012 4.54727-39.3103 0.298123-44.506-2.9701-44.9783-3.2157-45.5041-3.3394-46.0362-3.33024-47.1612-3.33024-47.7011-2.88027-47.7011-1.89018-47.6947-1.33452-47.5049-0.796685-47.1612-0.360136-41.7806 3.24024-37.1246 7.81991-33.4359 13.1403-30.7268 17.1483-28.69 21.5714-27.4057 26.2356-26.1813 30.6312-25.5607 35.1729-25.5607 39.7359L-25.5607 45.5861C-25.276 46.5562-24.4104 47.2417-23.4007 47.2962-22.5006 47.2962-21.7805 46.711-21.2403 45.5861L-21.2403 37.8459C-20.7295 34.0678-19.7625 30.3657-18.3604 26.8206-17.1034 23.124-15.6001 19.5158-13.8603 16.0203-11.8514 12.8119-9.54631 9.79862-6.97512 7.01996ZM-89.1921 31.7707C-89.5092 32.1431-89.964 32.3705-90.4523 32.4008-91.043 32.3571-91.5928 32.0821-91.9822 31.6357-92.4028 31.1654-92.7934 30.6695-93.1523 30.1507L-96.0774 26.1006C-98.4623 22.9054-100.578 19.9803-102.783 17.3703-102.809 17.1911-102.809 17.0094-102.783 16.8302-102.801 16.2825-102.548 15.7607-102.107 15.4353-101.214 14.8726-100.076 14.8726-99.1824 15.4353-98.8084 15.6942-98.5376 16.0765-98.4173 16.5154L-96.0774 19.1253-96.0774-1.84502C-95.9844-2.68507-95.2281-3.29048-94.3883-3.1977-94.3812-3.19688-94.3742-3.19607-94.3672-3.19508-93.8917-3.20997-93.4222-3.0848-93.0171-2.83511-92.6066-2.626-92.2865-2.27388-92.1172-1.84502L-92.1172 24.3454C-91.7313 25.1658-91.248 25.9364-90.6773 26.6404-89.6888 27.7046-89.0319 29.0339-88.7871 30.4656-88.8053 30.9511-88.9281 31.4269-89.1472 31.8607ZM-90.1822 43.9209C-90.9391 41.9661-91.8416 40.0707-92.8823 38.2507-94.0072 36.2708-95.8524 33.4807-98.4625 29.8357-98.7722 29.3713-99.2994 29.0992-99.8574 29.1156-100.403 29.1231-100.922 29.3502-101.297 29.7455-101.712 30.1076-101.943 30.6356-101.927 31.1856-101.933 31.654-101.755 32.1061-101.432 32.4456-99.7674 34.8306-98.1024 37.4408-96.4823 40.2757-95.9422 41.2208-95.2673 42.4359-94.5023 43.9209L-94.1422 44.911C-93.586 45.6128-92.7429 46.0261-91.8472 46.0361-91.3589 46.0832-90.8762 45.9001-90.5421 45.541-90.1962 45.0771-90.0652 44.4875-90.1822 43.9209M-56.3414 27.5405-62.6416 27.5405-62.6416 2.29483C-63.1129 0.320539-64.4531-1.33419-66.2867-2.20516-67.1419-2.55368-68.032-2.81024-68.9418-2.9701L-72.2717-2.9701-77.2218-1.98018C-78.2088-1.81344-79.1552-1.46247-80.0119-0.945092-81.047-0.269979-81.587 0.404969-81.587 1.16991-81.5562 1.72885-81.2957 2.25016-80.867 2.60997-80.3446 2.68507-79.8143 2.68507-79.292 2.60997-78.1435 2.53372-77.017 2.25981-75.9619 1.80003-74.963 1.3679-73.8976 1.10921-72.8118 1.03492L-70.2467 1.03492C-69.1998 1.00154-68.2047 1.49061-67.5917 2.33999-67.3023 2.73203-67.0886 3.17463-66.9616 3.64505L-66.9616 27.5405-85.8621 27.5405-86.7172 27.8555C-87.0867 28.3156-87.2925 28.8855-87.3022 29.4757-87.324 30.0307-87.1119 30.5697-86.7172 30.9608-86.514 31.1537-86.2874 31.3201-86.0421 31.4557L-56.5214 31.4557C-56.0684 31.4773-55.6388 31.254-55.3964 30.8706-55.1108 30.4633-54.9683 29.9726-54.9914 29.4757-54.9755 28.9857-55.1005 28.5017-55.3514 28.0806-55.6248 27.7141-56.0651 27.5109-56.5214 27.5405ZM-58.6364 39.6459-84.1969 39.6459C-84.6623 39.9493-84.999 40.4141-85.1422 40.9508-85.1869 41.3998-85.1869 41.8521-85.1422 42.3009L-84.1521 43.6059-58.5914 43.6059C-57.9124 43.1872-57.4767 42.4668-57.4215 41.6709-57.451 41.0282-57.7439 40.4259-58.2315 40.0059-58.3391 39.8742-58.4597 39.7536-58.5914 39.6459ZM-119.298 18.0004-147.469 18.0004C-147.616 17.3535-147.503 16.6743-147.154 16.1102L-146.478 15.3903-120.603 15.3903C-119.793 15.7051-119.343 16.1552-119.298 16.6952-119.253 17.2353-119.298 17.6853-119.298 18.0004M-119.298 21.6453-119.298 21.9605C-119.272 22.4382-119.539 22.8836-119.973 23.0854-120.196 23.1291-120.425 23.1291-120.648 23.0854L-146.478 23.0854C-146.899 22.9267-147.217 22.5749-147.334 22.1403-147.35 21.9156-147.35 21.6902-147.334 21.4653ZM-126.273 38.3407-140.223 38.3407C-140.223 37.8007-139.908 37.3058-139.773 36.8108-139.233 35.1008-138.918 34.2008-138.873 34.0657L-127.578 34.0657-126.273 38.5658ZM-147.514 7.20011-153.769-2.65529C-153.833-3.14322-154.073-3.59105-154.444-3.91519-154.823-4.18795-155.281-4.32998-155.749-4.32016-156.275-4.3488-156.791-4.17126-157.189-3.8252-157.593-3.51366-157.826-3.03015-157.819-2.52014L-157.819-1.98018-153.814 4.23017-151.474 7.83006C-151.467 8.3242-151.235 8.78824-150.844 9.09029-150.463 9.39839-149.983 9.55842-149.494 9.54026-148.972 9.54042-148.465 9.366-148.054 9.04513-147.567 8.56473-147.363 7.86704-147.514 7.20011M-120.513 5.21993C-120.874 5.45097-121.3 5.56125-121.728 5.53491-122.155 5.55536-122.579 5.44557-122.943 5.21993-123.281 5.00427-123.484 4.63072-123.483 4.23001-123.837 3.47799-124.275 2.76852-124.788 2.115-125.864 0.732217-127.537-0.0536687-129.288-0.000163624L-138.828-0.000163624-139.683-0.000163624C-140.864 0.298777-141.728 1.30768-141.843 2.51981L-141.843 8.41502C-141.994 8.8406-142.299 9.19386-142.698 9.40494-143.12 9.65365-143.604 9.77833-144.093 9.76508-144.932 9.86963-145.696 9.2747-145.801 8.43612-145.802 8.42909-145.803 8.42221-145.803 8.41502L-145.803 2.205C-145.626 1.22767-145.292 0.285524-144.814-0.585119-143.818-2.39333-141.88-3.47619-139.818-3.37523L-127.893-3.37523C-125.948-3.39994-124.072-2.65611-122.673-1.30523-121.244-0.019144-120.426 1.81213-120.423 3.73488-120.363 4.19794-120.363 4.66688-120.423 5.1301ZM-128.793 3.91503C-128.548 3.58942-128.407 3.19721-128.388 2.78995-128.398 2.35684-128.616 1.95514-128.973 1.70987-129.336 1.4376-129.78 1.29508-130.233 1.30506-130.659 1.30163-131.078 1.41027-131.448 1.61988-132.23 2.96765-133.102 4.26044-134.058 5.49007-134.479 6.08256-134.93 6.65328-135.408 7.20011-135.676 7.59902-135.817 8.06944-135.813 8.55017-135.825 9.12547-135.597 9.67983-135.183 10.0801-134.685 10.4642-134.044 10.612-133.428 10.4852L-128.928 3.91503ZM-115.293 14.0852C-115.624 13.1526-116.348 12.4122-117.273 12.0602L-118.578 11.7902-148.774 11.7902C-149.602 11.922-150.346 12.3747-150.844 13.0503-151.096 13.3594-151.294 13.7094-151.429 14.0852L-151.429 24.3454C-151.451 24.5699-151.451 24.7961-151.429 25.0206-151.394 25.229-151.394 25.4419-151.429 25.6505-150.919 26.1862-150.285 26.5881-149.584 26.8206L-149.089 26.8206-118.893 26.8206C-117.846 26.854-116.851 26.3649-116.238 25.5155-115.966 25.113-115.754 24.6737-115.608 24.2105L-115.608 13.7253ZM-112.278 2.29483C-111.76 1.83881-111.332 1.28936-111.018 0.674949-110.649 0.0625043-110.448-0.635679-110.433-1.35022-110.411-1.83062-110.61-2.2945-110.973-2.61013-111.45-2.96356-112.057-3.09462-112.638-2.9701L-120.918 6.88497C-121.352 7.08688-121.619 7.53226-121.593 8.01005-121.572 8.5464-121.307 9.04382-120.873 9.36011-120.437 9.7618-119.834 9.92919-119.253 9.81007-117.912 8.72868-116.677 7.52326-115.563 6.21002ZM-111.648 30.1507-155.434 30.1507C-155.878 30.1145-156.301 30.3439-156.514 30.7356-156.793 31.146-156.935 31.6344-156.919 32.1307-156.934 32.6204-156.81 33.1046-156.559 33.5257-156.306 33.8918-155.878 34.0971-155.434 34.0657L-142.473 34.0657C-142.717 34.5611-142.928 35.0723-143.103 35.5957-143.396 36.5297-143.741 37.4462-144.138 38.3407L-153.454 38.3407C-154.155 38.6306-154.591 39.3388-154.534 40.0959-154.563 40.9647-154.158 41.7915-153.454 42.3007L-135.453 42.3007-135.453 45.586C-135.301 45.9993-134.994 46.3378-134.598 46.5309-134.18 46.793-133.697 46.9332-133.203 46.936-132.365 47.0404-131.6 46.4453-131.496 45.6069-131.495 45.5999-131.494 45.593-131.493 45.586L-131.493 42.3459-113.268 42.3459C-112.849 42.161-112.502 41.845-112.278 41.4459-112.054 41.0303-111.93 40.5679-111.918 40.0959-111.813 39.2573-112.408 38.4929-113.247 38.3883-113.254 38.3873-113.261 38.3867-113.268 38.3858L-122.268 38.3858-122.673 36.8558C-123.258 35.1458-123.528 34.2458-123.573 34.1108L-111.648 34.1108C-111.205 34.1333-110.782 33.9299-110.523 33.5707-110.248 33.1579-110.107 32.6711-110.118 32.1758-110.103 31.6717-110.228 31.1736-110.478 30.7358-110.751 30.3693-111.191 30.1659-111.648 30.1957ZM-199.805 17.3703C-200.885 14.1602-202.19 10.8751-203.72 7.51508-204.98 4.75507-206.105 2.36993-207.095 0.359809-207.576-0.684439-208.132-1.6922-208.76-2.65529-209.177-3.07122-209.746-3.29866-210.335-3.28508-210.834-3.30962-211.32-3.13094-211.685-2.79012-212.053-2.40887-212.191-1.85991-212.045-1.35006-210.605 1.70987-209.165 4.81512-207.545 7.92005-206.825 9.4951-205.79 11.9252-204.44 15.1202L-203.225 18.0004C-202.878 19.0376-201.757 19.5976-200.72 19.2512-200.445 19.1597-200.195 19.0092-199.985 18.8104-199.616 18.4291-199.464 17.8879-199.58 17.3703ZM-185.495 34.7406-185.495 21.9605-196.475 21.9605-196.835 21.6455C-197.775 20.871-197.909 19.4814-197.134 18.5414-196.952 18.3198-196.728 18.1361-196.475 18.0004L-185.494 18.0004-185.494 2.29499-200.795 2.29499C-201.694 1.95269-202.249 1.04654-202.145 0.0899932-202.165-0.323485-202.055-0.732708-201.83-1.08008-201.575-1.40275-201.203-1.61268-200.795-1.6652L-166.954-1.6652C-166.112-1.59681-165.484-0.858535-165.553-0.0163624-165.554 0.0040906-165.556 0.0245436-165.559 0.044833-165.572 0.516888-165.695 0.979289-165.919 1.39489-166.16 1.79741-166.522 2.11271-166.954 2.29499L-181.534 2.29499-181.534 18.0004-169.924 18.0004C-169.007 18.3269-168.431 19.2369-168.529 20.2054-168.516 20.6246-168.643 21.0361-168.889 21.3755-169.13 21.715-169.509 21.9295-169.924 21.9605L-181.534 21.9605-181.534 34.7406-167.719 34.7406-167.359 35.0558C-166.869 35.493-166.577 36.1097-166.549 36.7656-166.604 37.5501-167.041 38.2572-167.719 38.6558L-181.219 38.6558-181.219 44.911C-181.302 45.0488-181.409 45.1707-181.534 45.271-181.976 45.7486-182.594 46.025-183.244 46.0361-184.034 45.9981-184.756 45.5784-185.179 44.911L-185.179 38.6558-197.78 38.6558-198.185 38.3409C-198.643 37.9041-198.917 37.3082-198.95 36.6756-198.918 35.8726-198.476 35.1418-197.78 34.7406ZM-210.425 41.311-210.74 42.3459C-210.789 43.2044-210.223 43.9774-209.39 44.1909-208.957 44.248-208.518 44.248-208.085 44.1909L-200.435 37.8459C-200.005 37.5353-199.767 37.0245-199.805 36.4958-199.805 35.9166-200.07 35.3693-200.525 35.0108-200.957 34.6349-201.534 34.4702-202.1 34.5608-203.9 35.8207-205.835 37.2608-207.86 39.061L-210.425 41.2658ZM-212.045 29.1606-212.405 30.1507C-212.59 30.8902-212.234 31.6583-211.55 31.9957-211.209 32.2203-210.827 32.3735-210.425 32.4456L-201.11 24.8856C-200.975 24.5405-200.899 24.1754-200.885 23.8055-200.885 23.1577-201.25 22.5652-201.83 22.2756-202.129 22.1287-202.447 22.0228-202.775 21.9605-204.071 22.624-205.293 23.4234-206.42 24.3454L-212.045 28.8456Z" fill-rule="evenodd" transform="matrix(1.0023 0 0 -1 466.012 413.594)"/></g></svg>