<svg width="328" height="290" xmlns="http://www.w3.org/2000/svg" xmlns:xlink="http://www.w3.org/1999/xlink" xml:space="preserve" overflow="hidden"><defs><clipPath id="clip0"><rect x="196" y="53" width="328" height="290"/></clipPath></defs><g clip-path="url(#clip0)" transform="translate(-196 -53)"><path d="M0 0-303.053 0C-315.967 2.42991-315.427 15.1639-306.428 30.9126L-163.428 280.87C-158.029 289.239-144.53 294.639-136.43 280.87L3.68969 36.2222C13.2289 21.1933 21.9583-0.269954 0 0" fill="#FFCC01" fill-rule="evenodd" transform="matrix(1.00231 0 0 -1 509.885 342.465)"/><path d="M0 0-134.99-233.983 134.99-233.983ZM150.019-257.876-153.034-257.876C-165.948-255.446-165.408-242.712-156.409-226.964L-13.409 22.9933C-8.00944 31.3627 5.48955 36.7623 13.589 22.9933L153.709-221.654C163.248-236.683 171.977-258.146 150.199-257.651Z" fill-rule="evenodd" transform="matrix(1.00231 0 0 -1 359.52 84.5884)"/><path d="M0 0 269.35 0 134.72 233.533ZM269.981-0.359938-0.539907-0.359938 134.72 234.253 134.72 233.983ZM135.575 265.121C129.796 264.798 124.538 261.673 121.491 256.751L-21.5084 6.83964C-27.538-3.68969-29.4729-12.239-26.9981-17.8186-25.2858-21.1598-22.0025-23.4109-18.2687-23.8032L285.279-23.8032C291.264-23.8032 295.224-22.1383 297.068-18.7636 301.568-10.529 292.569 5.57969 288.294 12.1041L147.949 256.796C145.748 261.562 141.127 264.752 135.89 265.121ZM285.279-24.1631-18.3138-24.1631C-22.1761-23.7636-25.5685-21.4229-27.3131-17.9535-29.8778-12.4642-27.898-3.59971-21.8235 7.01945L121.176 256.976C124.288 262.004 129.67 265.183 135.575 265.481L135.89 265.481C141.276 265.138 146.042 261.874 148.309 256.976L288.609 12.329C292.794 5.71467 302.108-10.5742 297.608-18.9435 294.826-22.8865 290.047-24.9093 285.279-24.1631" transform="matrix(1.00231 0 0 -1 224.489 318.481)"/><path d="M0 0 21.1935 15.9287 79.1492-51.5664C82.539-61.7354 78.5344-67.0452 67.1351-67.4952L-0.359938-67.4952 26.638-104.797 5.84948-120.726-51.6562-54.2661C-54.6559-42.267-50.1564-36.4923-38.1572-36.9424L29.8778-36.7174Z" fill-rule="evenodd" transform="matrix(1.00231 0 0 -1 348.831 183.941)"/><path d="M0 0 57.5058-66.3701 77.9794-50.6212 50.7113-13.184 51.0713-13.184 118.566-13.184C122.914-13.5829 127.196-11.9166 130.131-8.68432 131.967-5.21321 132.067-1.08096 130.401 2.47474L72.6697 69.88 51.7462 54.1311 81.669 17.2787 81.219 17.2787 13.184 17.0537 12.329 17.0537C8.22033 17.52 4.1244 16.0774 1.21495 13.139-1.19385 9.18087-1.64214 4.33284 0 0M57.4608-66.865 57.4608-66.865-0.359938-0.134977C-2.02432 4.32596-1.54299 9.30456 0.944837 13.364 3.93494 16.3615 8.11791 17.8495 12.329 17.4138L13.229 17.4138 80.7241 17.4138 51.1163 53.9511 72.6697 70.3749 130.626 2.87983C132.371-0.788919 132.253-5.07136 130.31-8.63933 127.28-11.8978 122.906-13.5608 118.476-13.139L51.2513-13.139 78.2494-50.3062Z" transform="matrix(1.00231 0 0 -1 297.236 238.117)"/><path d="M0 0 0 9.85429-1.3051 11.1592-13.5441 11.1592C-13.9587 11.0154-14.3198 10.7486-14.579 10.3944-14.7069 10.2288-14.8128 10.0472-14.8941 9.85429L-14.8941 0C-14.9201-0.477736-14.6529-0.923241-14.219-1.12481L-13.5441-1.12481-1.25995-1.12481C-0.853544-0.965616-0.496551-0.701716-0.224961-0.359938-0.114362-0.175061-0.0238868 0.0209418 0.0448286 0.225125ZM-26.9981 28.8878-26.9981 35.9974C-27.1717 36.4081-27.4513 36.7652-27.8082 37.0326-27.9781 37.1412-28.1591 37.2315-28.3481 37.3023L-32.8478 37.3023C-33.2624 37.1585-33.6234 36.8917-33.8826 36.5375L-34.1975 35.9974-34.1975 29.4279C-34.2098 28.9065-33.9554 28.4145-33.5227 28.1231-33.326 27.9657-33.0945 27.8577-32.8478 27.8082L-28.3481 27.8082C-27.8649 27.7548-27.3995 28.0055-27.1781 28.4379-27.1344 28.6609-27.1344 28.8901-27.1781 29.1129ZM-0.450086 35.7724-0.810024 37.0774-12.5541 37.0774C-12.9689 36.9334-13.33 36.6666-13.5891 36.3123L-13.8591 35.7724C-12.8221 33.424-11.4915 31.2166-9.89944 29.2029-9.17858 28.2816-8.39686 27.4098-7.55952 26.593-5.54337 28.3504-3.79947 30.3977-2.38492 32.6676-1.71805 33.6624-1.11679 34.6995-0.585063 35.7724ZM4.04963-1.93483 4.04963 11.5643 3.19461 13.3642C2.92466 13.9684 2.36447 14.3928 1.70971 14.4891L0.0448286 15.164-14.534 15.164-16.7389 14.219C-17.4593 13.9047-17.9917 13.2726-18.1787 12.5092L-18.8537 10.5743-18.8537-1.25978C-18.663-1.91389-18.4067-2.54705-18.0888-3.14962-17.3168-4.42527-16.0109-5.28471-14.534-5.48955L-0.585063-5.48955C0.0894937-5.43965 0.754888-5.30352 1.39476-5.08445 2.7478-4.51624 3.73861-3.32386 4.04963-1.88984ZM7.37938 18.0437C7.63821 17.0683 7.13921 16.0511 6.20942 15.6589 5.71712 15.587 5.21697 15.587 4.72451 15.6589 1.93467 16.7389-0.989993 18.0437-4.27476 19.5738L-8.09959 21.5534C-10.6764 19.7652-13.437 18.2565-16.334 17.0539-17.3688 16.6038-18.7187 16.1089-20.3386 15.569-21.3271 15.2939-22.3706 15.7681-22.8134 16.6938-22.8808 17.1866-22.8808 17.6862-22.8134 18.1787L-10.5743 24.0733-16.199 31.4079-20.1587 26.9081C-20.5395 26.6842-20.977 26.5747-21.4184 26.5932-21.8523 26.5734-22.2803 26.7002-22.6334 26.9531-22.9704 27.1478-23.1767 27.5089-23.1735 27.8981L-23.1735 25.5582C-23.267 24.9265-23.6731 24.3851-24.2533 24.1183L-25.1531 24.1183-28.483 24.1183-28.483 15.9289-22.8134 15.9289C-22.3741 15.9436-21.9611 15.72-21.7335 15.344-21.4539 14.9337-21.3123 14.4453-21.3285 13.9491-21.3129 13.4594-21.4377 12.9753-21.6884 12.5541-21.9475 12.195-22.3711 11.9917-22.8134 12.0142L-28.483 12.0142-28.483 1.16996-22.8134 3.46489C-22.1552 3.52657-21.5058 3.27674-21.0585 2.79001-20.7786 2.45069-20.6487 2.01205-20.6986 1.57506-20.6716 1.3357-20.6716 1.09421-20.6986 0.85518-20.6879 0.735255-20.6879 0.61484-20.6986 0.494915-24.2741-1.09863-27.94-2.48079-31.6778-3.64454L-36.6275-5.03962C-37.0528-5.35702-37.5453-5.57266-38.0674-5.66935-38.5451-5.7343-39.0296-5.7343-39.5073-5.66935L-40.5421-5.66935C-40.6738-5.71091-40.8153-5.71091-40.947-5.66935-41.1918-5.26-41.3309-4.79601-41.3521-4.31958-41.3248-3.47962-40.8876-2.70641-40.1822-2.24978-39.4454-1.68876-38.5433-1.38805-37.6173-1.39476L-37.6173 17.2788C-37.3437 17.9257-36.7408 18.3737-36.0426 18.4488-35.331 18.322-34.7085 17.896-34.3327 17.2788L-34.3327-0.40493-31.6778 0.540071-31.6778 23.8483-35.6826 23.8483C-36.5386 24.0291-37.2852 24.5484-37.7523 25.2883-37.9929 25.6538-38.1893 26.0464-38.3373 26.4582L-38.3373 38.2923C-38.1081 39.1748-37.5639 39.9431-36.8074 40.4521-36.4585 40.6602-36.0789 40.8121-35.6826 40.9022L-26.0531 40.9022C-25.054 40.9421-24.1098 40.4443-23.5784 39.5971-23.3464 39.1907-23.1795 38.7504-23.0835 38.2923L-23.0835 29.2929-22.7235 30.2829C-21.2157 31.6065-19.8848 33.1189-18.7637 34.7826-17.6206 36.4622-16.6268 38.239-15.7939 40.0922L-13.454 41.397 2.78985 41.397C3.4505 41.2358 4.02771 40.835 4.40957 40.2722L4.81466 39.4173C4.23287 35.5779 2.56194 31.9861 0 29.0679L-4.18477 24.1633 0.314946 21.5534C1.33979 20.8946 2.48799 20.4505 3.68969 20.2486 5.08298 20.0268 6.35585 19.3267 7.2894 18.2687ZM-52.6013-2.29477C-52.3939-1.64623-52.2285-0.984921-52.1063-0.314946-52.06 0.299239-52.06 0.915879-52.1063 1.53006-52.0308 2.68841-52.3307 3.84021-52.9613 4.81483-53.6558 5.80073-54.8186 6.34783-56.0209 6.25458L-89.4084 6.25458C-89.5518 6.51717-89.629 6.81068-89.6336 7.10959-89.62 7.63609-89.4646 8.14916-89.1835 8.5945-88.9621 9.03395-88.7062 9.45525-88.4188 9.85429L-57.2359 9.85429C-56.8156 9.95899-56.408 10.1098-56.0209 10.3044-55.2304 10.7603-54.6978 11.5589-54.581 12.4643L-54.581 18.7187C-54.671 19.1786-54.8385 19.6199-55.0761 20.0237-55.6076 20.8707-56.5517 21.3685-57.551 21.3286L-91.0735 21.3286C-91.3781 21.1866-91.6528 20.9882-91.8833 20.7436-92.3791 20.1951-92.58 19.4412-92.4234 18.7187-92.3421 18.526-92.2362 18.3446-92.1083 18.1788-91.8491 17.8246-91.4881 17.5578-91.0735 17.414L-60.2057 17.414C-59.8006 17.4343-59.4181 17.2255-59.2159 16.8739-58.9629 16.538-58.8353 16.1241-58.8558 15.7039-58.8419 15.2427-58.9673 14.7881-59.2159 14.3992-59.4137 14.0374-59.7936 13.8131-60.2057 13.8143L-91.0735 13.8143C-91.9512 13.2716-92.569 12.3936-92.7833 11.3843-93.3233 9.67448-93.6384 8.72948-93.7284 8.54951L-94.2683 6.7045C-94.4325 6.13351-94.5233 5.54386-94.5382 4.9498-94.5647 4.50119-94.4378 4.05683-94.1783 3.68986-93.9286 3.29491-93.5166 3.03117-93.0533 2.96982L-91.3884 2.65503-57.551 2.65503C-56.7611 2.43498-56.2109 1.72001-56.2011 0.900009-56.2009 0.253429-56.4057-0.37679-56.7859-0.899845-57.173-1.45202-57.6616-1.9255-58.2259-2.2946L-61.1507-3.10463C-63.3486-3.62163-65.5972-3.89322-67.8552-3.91465L-72.8048-3.91465-76.4045-3.59954C-79.2394-3.23961-81.9391-2.83468-84.459-2.2946-85.2291-2.31587-85.8362-2.95738-85.815-3.72749-85.8141-3.75988-85.812-3.79227-85.8089-3.82451-85.7976-4.3721-85.6253-4.90416-85.3138-5.35457-85.0352-5.78633-84.5997-6.09293-84.0989-6.20942L-80.3642-7.01928C-77.6637-7.53039-74.9232-7.80149-72.1749-7.82931L-67.6752-7.82931C-64.9369-7.90653-62.2001-7.63445-59.5306-7.01928-56.7743-6.4424-54.3431-4.83233-52.7363-2.51957ZM-84.459 33.7026C-84.3968 33.3152-84.3968 32.9203-84.459 32.5327-84.572 31.1682-85.1993 29.8974-86.2138 28.978-87.2256 28.0292-88.1308 26.9731-88.9137 25.8282-89.9861 24.954-90.9527 23.9573-91.7935 22.8584-92.5862 21.7115-93.8659 20.9968-95.2581 20.9235-95.9498 21.1732-96.4271 21.8096-96.473 22.5434-96.3387 23.3068-95.9781 24.0123-95.4382 24.5682L-93.9082 26.4582-90.9385 29.7428-88.7336 32.2627C-88.008 33.2022-86.9406 33.8165-85.7639 33.9726-85.376 33.9489-84.9953 33.8574-84.6389 33.7026ZM-50.2614 35.0076C-49.4193 35.076-48.7921 35.814-48.8604 36.6562-48.8619 36.6767-48.864 36.697-48.8667 36.7174-48.8752 37.196-49.0152 37.6629-49.2714 38.0674-49.4825 38.4663-49.8359 38.7715-50.2614 38.9222L-70.5101 38.9222-70.5101 42.2071C-70.8365 43.1238-71.7464 43.6997-72.7148 43.6019-73.134 43.615-73.5455 43.4884-73.8848 43.242-74.2292 43.0059-74.4452 42.6239-74.4697 42.207L-74.4697 39.0574-94.1783 39.0574C-95.0994 38.7627-95.6836 37.8581-95.5732 36.8972-95.5994 36.4833-95.4888 36.0722-95.2581 35.7274-94.9921 35.3943-94.6027 35.1833-94.1783 35.1425L-80.2742 35.1425-80.2742 23.9833C-80.2742 23.1735-79.6893 22.7235-78.6095 22.7235-78.1916 22.7198-77.7829 22.8456-77.4394 23.0835-77.1195 23.2677-76.9287 23.6146-76.9446 23.9833L-76.9446 35.0076-68.98 35.0076-68.98 23.8483C-69.0027 23.4061-68.7994 22.9825-68.4401 22.7235-68.0024 22.4734-67.5042 22.349-67.0003 22.3633-66.4899 22.3468-65.9869 22.4881-65.5604 22.7684-65.2147 23.0184-65.013 23.4217-65.0204 23.8483L-65.0204 35.0076ZM-48.9565 22.8585C-48.7889 22.3407-48.9486 21.773-49.3616 21.4186-49.8069 21.0639-50.3681 20.8875-50.9363 20.9237-51.3911 20.915-51.8404 21.0235-52.2414 21.2385L-57.191 25.7382C-58.8142 27.3517-60.3182 29.0812-61.6906 30.9128-61.7955 31.8454-61.26 32.7318-60.3857 33.0727-59.9377 33.1316-59.4839 33.1316-59.0357 33.0727-56.7859 31.1377-54.5362 28.5732-51.7913 26.0083L-48.7765 22.5884ZM-119.556 9.08958-119.556 22.2285-120.546 23.5334-134.675 23.5334C-135.09 23.3896-135.451 23.1226-135.71 22.7684-135.818 22.5979-135.909 22.4171-135.98 22.2285L-135.98 9.08958C-135.825 8.68089-135.56 8.32291-135.215 8.05443L-134.675 7.55952-120.411 7.55952-119.736 8.2344-119.421 8.86446ZM-115.552 5.80466-115.552 25.8282C-115.661 26.125-115.796 26.4111-115.957 26.6832-116.339 27.2458-116.916 27.6467-117.577 27.8082L-138.41 27.8082-139.13 27.3131C-139.586 26.9232-139.915 26.406-140.075 25.8282L-140.075 5.80466-139.76 5.03979C-139.411 4.54634-138.948 4.14485-138.41 3.86982L-117.172 3.86982C-116.904 3.99089-116.66 4.15843-116.452 4.36474-116.018 4.75478-115.692 5.25117-115.507 5.80466ZM-106.552-1.70971C-106.913-3.31699-107.945-4.6931-109.387-5.48955-110.056-5.88057-110.786-6.15445-111.547-6.29941L-113.527-6.29941-116.677-5.93947C-117.733-5.60931-118.77-5.21861-119.781-4.76951-121.041-4.13961-121.716-3.32975-121.716-2.38475-121.708-1.90604-121.568-1.4391-121.311-1.03482-120.849-0.866796-120.363-0.775503-119.871-0.764868-118.684-0.918987-117.519-1.2215-116.407-1.66488-115.751-1.93418-115.045-2.05705-114.337-2.02482L-112.357-2.02482C-111.794-1.83094-111.286-1.50732-110.872-1.07998-110.666-0.87105-110.498-0.627274-110.377-0.359774L-110.377 31.4079C-110.532 31.8164-110.797 32.1744-111.142 32.4429L-111.682 32.7126-143.675 32.7126C-144.165 32.7452-144.627 32.4788-144.844 32.0378-144.883 31.8295-144.883 31.6161-144.844 31.4079L-144.844-5.93947C-145.268-6.60683-145.99-7.02648-146.779-7.06444-147.429-7.04824-148.044-6.77272-148.489-6.29941L-148.804-5.93947-148.804 35.0076C-148.457 35.5203-148.032 35.976-147.544 36.3575L-147.139 36.6275-132.56 36.6275-130.536 40.2722-129.141 42.2071C-128.638 42.936-127.768 43.319-126.891 43.1968-126.16 42.8408-125.679 42.1185-125.631 41.3071-125.693 40.4978-125.973 39.7203-126.441 39.0574-126.981 38.1574-127.476 37.3923-127.881 36.6275L-108.307 36.6275C-107.74 36.4681-107.226 36.1569-106.822 35.7274-106.641 35.4992-106.476 35.2585-106.327 35.0076L-106.327-1.70971ZM-169.818 23.8483C-169.648 24.3156-169.793 24.8388-170.178 25.1533-170.312 25.3216-170.481 25.4596-170.673 25.5582L-191.731 25.5582C-190.685 22.3521-189.169 19.3193-187.232 16.5589-185.697 14.435-183.964 12.4611-182.057 10.6643-181.34 9.85478-180.506 9.15715-179.582 8.5945-176.842 10.6167-174.558 13.1922-172.878 16.1539-172.16 17.5296-171.514 18.9412-170.943 20.3836L-169.953 23.9835ZM-159.559-1.70971C-159.163-1.988-158.928-2.44136-158.928-2.92466-158.959-3.4127-159.186-3.8677-159.559-4.18461-159.908-4.55829-160.397-4.77016-160.908-4.76951L-161.538-4.76951C-164.615-3.9356-167.624-2.8674-170.538-1.57473-172.562-0.674884-174.722 0.405094-176.972 1.61988L-179.537 3.10496C-181.679 1.40507-183.968-0.100783-186.377-1.39476-188.3-2.43989-190.284-3.37131-192.316-4.18461L-194.791-5.1746C-195.31-5.36308-195.859-5.4547-196.411-5.44439-197.029-5.44946-197.642-5.32692-198.211-5.08445-198.669-4.8806-198.955-4.41579-198.931-3.91465-198.962-3.67562-198.962-3.43348-198.931-3.19461-197.941-2.60971-195.196-1.25978-190.606 0.810024-187.824 1.98571-185.254 3.61231-183.002 5.62469-185.648 7.64492-187.969 10.0576-189.886 12.7791-191.391 14.9227-192.673 17.2145-193.711 19.6187-194.116 20.6536-194.521 21.6436-194.836 22.5434L-195.556 24.4782C-195.659 25.0658-196.218 25.4586-196.806 25.3558-196.84 25.3498-196.873 25.3423-196.906 25.3333L-196.906 19.3938C-197.806 12.5541-198.346 8.54951-198.571 7.37955-199.289 3.26464-200.819-0.666213-203.07-4.18444-203.545-4.84346-204.332-5.2029-205.14-5.12961-205.622-5.1458-206.097-5.00363-206.49-4.72451-206.863-4.45685-207.069-4.01233-207.03-3.55472-205.278-0.476427-203.946 2.82273-203.07 6.25458-202.363 8.84809-201.882 11.4977-201.63 14.1742-201.63 15.254-201.63 16.334-201.405 17.459L-201.405 39.0574-200.416 40.6771-199.066 41.3521-163.878 41.3521C-163.479 41.1799-163.125 40.9181-162.843 40.5871-162.736 40.4166-162.645 40.2358-162.573 40.0472L-162.573 38.0674C-162.698 37.677-162.973 37.3529-163.338 37.1674L-163.878 37.1674-195.691 37.1674-196.681 35.8624-196.681 29.2929-167.838 29.2929C-166.955 29.3389-166.114 28.9101-165.633 28.1681-165.426 27.8026-165.274 27.4083-165.183 26.9981L-165.183 24.3883C-165.702 20.9559-166.879 17.6559-168.648 14.6689-169.987 12.3884-171.571 10.261-173.372 8.32438-174.073 7.45153-174.891 6.6793-175.802 6.02962-175.418 5.54435-174.963 5.11946-174.452 4.76967L-172.833 3.73468-159.559-1.84485Z" fill-rule="evenodd" transform="matrix(1.00231 0 0 -1 459.959 419.274)"/></g></svg>