<svg width="328" height="290" xmlns="http://www.w3.org/2000/svg" xmlns:xlink="http://www.w3.org/1999/xlink" xml:space="preserve" overflow="hidden"><defs><clipPath id="clip0"><rect x="147" y="200" width="328" height="290"/></clipPath></defs><g clip-path="url(#clip0)" transform="translate(-147 -200)"><path d="M0 0 0 16.2495-9.40752 33.0839C-9.86881 33.6965-10.1354 34.4334-10.1727 35.1995-10.1727 36.1896-9.54247 36.8648-8.23712 37.1351-7.28346 37.0214-6.43596 36.4731-5.94163 35.6496L2.11555 20.9306 10.1727 35.6496C10.6263 36.5114 11.4964 37.0742 12.4684 37.1351 13.4768 37.0014 14.2702 36.2079 14.4038 35.1995 14.3665 34.4334 14.0999 33.6965 13.6386 33.0839L4.2311 16.2495 4.2311 0C4.2311-1.39532 3.4209-2.11555 2.11555-2.11555 1.07994-2.24821 0.132825-1.51653 0-0.480755-0.0204472-0.321267-0.0204472-0.159652 0 0" transform="matrix(1.0023 0 0 -1 180.578 572.97)"/><path d="M0 0 0-21.3358C0.765216-28.1776-3.2408-30.3381-12.1082-27.3222-13.2383-27.0348-13.9228-25.8875-13.6386-24.7567-13.4791-23.7248-12.5132-23.0177-11.4814-23.1772-11.3575-23.1965-11.2358-23.2279-11.118-23.2712-5.62658-25.3868-3.15083-24.6665-3.64598-21.1107L-3.64598 0.225083C-3.75215 1.06375-3.15836 1.82945-2.31986 1.93561-2.19227 1.95181-2.06321 1.95181-1.93561 1.93561-0.9391 1.82487-0.173556 1.00191-0.135115 0ZM-10.1727-1.71037-10.1727-18.3649C-10.1462-19.4751-11.0003-20.4084-12.1082-20.4804-13.2336-20.4804-13.8187-19.8503-13.8187-18.545L-13.8187-1.93545C-13.9717-0.902622-13.2583 0.0585608-12.2255 0.211506-12.1865 0.217231-12.1474 0.221811-12.1082 0.225083-11.0729 0.225083-10.4428-0.450166-10.3078-1.71037ZM-32.0486-10.4428-26.2421-10.4428-26.2421-2.34063-32.0486-2.34063ZM-18.545-2.34063-22.5961-2.34063-22.5961-10.4428-17.0145-10.4428C-16.0242-10.4428-15.4843-11.298-15.4843-12.6033-15.4843-13.9087-16.2043-14.3139-17.1946-14.3139L-22.5961-14.3139-22.5961-24.9817C-22.5696-26.0918-23.4235-27.0252-24.5316-27.0971-25.5009-27.0775-26.2707-26.2758-26.2509-25.3064-26.25-25.258-26.247-25.2098-26.2421-25.1617L-26.2421-14.3587-32.3637-14.3587C-32.9463-19.337-34.739-24.097-37.5851-28.2226-38.1717-29.1162-39.3715-29.3653-40.2651-28.7789-40.3353-28.7327-40.4024-28.6824-40.4659-28.6276-41.377-27.9785-41.5895-26.7137-40.9402-25.8026-40.9044-25.7524-40.8663-25.7036-40.826-25.6568-38.3182-22.3477-36.6779-18.4638-36.0546-14.3587L-41.8162-14.3587C-42.8065-14.3587-43.3916-13.6836-43.5267-12.4232-43.5334-11.4364-42.7965-10.6025-41.8162-10.4878L-35.6946-10.4878-35.6946-2.38562-40.826-2.38562C-41.8463-2.38562-42.4314-1.75535-42.5814-0.494986-42.5858 0.507418-41.824 1.34723-40.826 1.44047L-18.545 1.44047C-17.5756 1.42084-16.8058 0.618978-16.8256-0.350383-16.8266-0.398802-16.8295-0.446894-16.8346-0.494986-16.8346-1.71037-17.4197-2.34063-18.545-2.34063M-19.5353-29.0327-19.5353-31.3734-3.19598-31.3734C-1.98649-31.347-0.972469-32.2814-0.900168-33.4889-0.911128-34.5826-1.80672-35.4604-2.9004-35.4496-2.99936-35.4486-3.09816-35.4401-3.19598-35.4245L-19.5353-35.4245-19.5353-40.5558-0.135115-40.5558C1.17023-40.5558 1.84548-41.2311 1.98044-42.2663 1.95655-43.4246 1.02334-44.358-0.135115-44.3817L-41.5911-44.3817C-42.7496-44.358-43.6828-43.4246-43.7066-42.2663-43.7066-41.2311-42.8065-40.6909-41.4112-40.5558L-23.4063-40.5558-23.4063-35.4245-37.5851-35.4245C-38.665-35.5984-39.6815-34.8643-39.8555-33.7844-39.8714-33.6867-39.8797-33.5879-39.8807-33.4889-39.8084-32.2814-38.7946-31.347-37.5851-31.3734L-23.3612-31.3734-23.3612-29.2127C-23.4606-28.2734-22.7798-27.4312-21.8404-27.3317-21.7774-27.3252-21.7141-27.3219-21.6508-27.3222-20.3455-27.4572-19.6704-27.8624-19.5353-29.0327" transform="matrix(1.0023 0 0 -1 244.101 534.125)"/><path d="M0 0-40.916 0C-41.9063 0-42.4914 0.675249-42.6264 2.11555-42.7615 3.55585-41.9063 4.09615-40.916 4.2311L-22.461 4.2311-23.8113 7.0219C-24.4413 7.85467-24.2771 9.04028-23.4443 9.67006-23.3749 9.72273-23.3021 9.77033-23.2262 9.81254-22.2016 10.3741-20.9157 9.99852-20.3543 8.97371L-20.3455 8.95751C-19.8503 7.78712-19.1301 6.25668-18.2299 4.45618L-0.225083 4.45618C0.945315 4.45618 1.48545 3.64598 1.48545 2.34063 1.48545 1.03528 1.17023 0 0 0M-29.9331-3.37592C-29.1679-2.25067-28.2675-2.02558-27.2772-2.74565-26.2748-3.49304-26.0195-4.88754-26.6921-5.94163-27.4825-7.50527-28.3851-9.00953-29.3928-10.4428-27.2578-15.8289-24.2126-20.8076-20.3904-25.1617-15.5973-20.8216-12.1193-15.2227-10.3528-9.00233-11.3827-8.00206-12.3452-6.93455-13.2336-5.80652-14.0067-4.95002-14.0067-3.64746-13.2336-2.7908-12.6102-1.89178-11.3763-1.66849-10.4775-2.29172-10.4348-2.32133-10.3931-2.35274-10.3528-2.38562-5.82255-7.2352-1.71168-12.4605 1.93561-18.0048 2.6637-19.0946 2.6637-20.5159 1.93561-21.6058 1.24335-22.3197 0.103381-22.3374-0.610472-21.6451-0.744442-21.5152-0.857311-21.3652-0.945315-21.2007L-6.88695-12.6483C-9.04895-18.3838-12.3747-23.6097-16.6543-27.9975-11.33-32.3007-4.9919-35.1676 1.75552-36.3247 2.99265-36.6993 3.69228-38.0058 3.31785-39.2429 3.30787-39.2757 3.29724-39.3084 3.28595-39.3406 3.1366-40.4744 2.09641-41.2725 0.962655-41.1229 0.850113-41.1082 0.73888-41.084 0.630265-41.051-6.79584-39.2922-13.7525-35.9444-19.7602-31.2384-26.0457-35.6253-33.0545-38.8706-40.4659-40.8259-41.7728-40.66-42.698-39.4662-42.5323-38.1591-42.4321-37.3687-41.9439-36.6805-41.2311-36.3247-34.6404-35.3024-28.4326-32.5709-23.2262-28.4026-26.9097-24.1792-29.9439-19.4309-32.2286-14.3139-34.4558-17.0628-37.0276-19.5135-39.8806-21.6058-41.051-22.416-41.9511-22.371-42.5814-21.6058-43.2418-20.4745-42.9951-19.0324-41.9961-18.1849-36.8842-14.2478-32.755-9.17851-29.9331-3.37592" transform="matrix(1.0023 0 0 -1 295.037 539.481)"/><path d="M0 0C2.29549-1.12525 5.8515-3.28578 10.7579-6.39163 11.4935-7.38063 11.6314-8.69203 11.1179-9.81254 10.6273-10.6487 9.55163-10.9288 8.71542-10.4381 8.60844-10.3754 8.50866-10.3015 8.41722-10.2177 6.75167-9.0923 3.4209-7.0219-1.53043-4.051-2.61561-3.59495-3.13611-2.35405-2.70083-1.2602-2.4306-0.226064-1.37323 0.393404-0.338933 0.123338-0.222302 0.0927485-0.108943 0.051527 0 0M-12.1082 7.47207 18.995 7.47207C23.5863 7.74213 25.2517 5.53661 23.9915 0.855348 21.9876-8.65015 17.3014-17.3823 10.4878-24.3065 15.753-28.1767 21.5828-31.2131 27.7724-33.3088 28.9428-33.6239 29.3028-34.6142 28.9428-36.3246 28.5826-38.0351 27.4123-38.3052 26.242-38.0351 19.3373-35.2462 12.8176-31.5855 6.8418-27.1423 0.623558-31.6359-6.31884-35.031-13.6838-37.1799-14.8651-37.4765-16.0633-36.7593-16.3601-35.5778-16.3691-35.5418-16.3772-35.5058-16.3844-35.4694-16.7991-34.5384-16.3807-33.4474-15.4496-33.0326-15.3166-32.9735-15.1772-32.9302-15.0341-32.9037-8.59813-30.8118-2.4679-27.8754 3.19582-24.1714-2.56048-18.5016-7.14851-11.7575-10.3078-4.32107-10.9379-2.74565-10.758-1.62024-9.72273-0.900168-8.68728-0.179935-7.42708-0.900168-6.66187-2.16053-3.66152-9.52955 1.09842-16.0514 7.20184-21.1555 13.506-15.2521 17.9091-7.60522 19.8503 0.810364 19.8503 2.07057 19.5801 2.79096 18.6799 2.92591L-12.1082 2.92591C-13.3687 2.92591-14.0888 3.64615-14.2239 5.08661-14.2761 6.32162-13.3407 7.37621-12.1082 7.47207" transform="matrix(1.0023 0 0 -1 320.527 541.597)"/><path d="M0 0-10.3977 0C-10.3527-0.20758-10.3527-0.422521-10.3977-0.630265L-10.3977-0.855348C-8.73701-4.05934-6.61377-7.00178-4.09615-9.58745-1.75633-7.33662 0.137242-4.66409 1.48545-1.71037 1.75535-1.12525 1.75535-0.720069 1.48545-0.450166 1.21538-0.180099 0.675249 0 0.180099 0ZM-13.0535-27.9525-13.0535-36.9548C-13.0535-37.9451-12.6935-38.4403-11.9282-38.4403L0.585117-38.4403C1.57542-38.4403 2.11555-37.9 2.11555-36.7297L2.11555-27.7274C2.11555-26.5572 1.53027-26.017 0.360034-26.017L-11.3431-26.017C-12.5134-25.8368-13.0084-26.512-12.8734-27.9525ZM5.76153-26.242 5.76153-38.2152C5.76153-41.051 4.59114-42.4013 1.89063-42.2663L-12.6935-42.2663C-15.6642-42.5364-16.9246-41.1859-16.5194-38.2152L-16.5194-26.017C-16.7896-23.1963-15.5742-21.8458-12.8734-21.9659L2.07057-21.9659C4.63628-21.9657 5.94147-23.4062 5.94147-26.242ZM-8.6423 4.05117 3.06087 4.05117C5.8515 4.05117 6.75167 2.56588 5.76153-0.450002 4.20493-4.88492 1.63054-8.89323-1.75535-12.1532 1.29848-14.4361 4.72527-16.1721 8.37223-17.2846 9.40752-17.7348 9.76755-18.6349 9.54263-20.0754 9.31755-21.5157 8.37223-21.9659 7.24698-21.5608 2.92493-20.1506-1.11347-17.9867-4.68127-15.1689-8.46155-17.6924-12.5255-19.7623-16.7896-21.3358-17.6824-21.8273-18.8047-21.5018-19.2961-20.6088-19.3579-20.4966-19.4078-20.378-19.4451-20.2553-20.0057-19.2587-19.6522-17.9963-18.6554-17.4357-18.5484-17.3755-18.436-17.3248-18.3199-17.2846-14.5924-16.0251-11.0386-14.3009-7.74213-12.1533-9.86799-9.84852-11.6839-7.2761-13.1436-4.50133L-13.5037-4.90619C-14.3849-6.35614-15.4105-7.71334-16.5645-8.95735-17.8697-10.1277-18.9501-10.2627-19.8505-9.40752-20.6146-8.33248-20.4395-6.85325-19.4453-5.98662-16.4212-2.38873-13.9623 1.6487-12.1533 5.98678-11.6582 7.3821-10.758 7.83226-9.49765 7.24698-8.35342 6.62997-7.8972 5.22189-8.4622 4.05117ZM-32.4537 0.225083-32.4537-6.39163C-32.4537-7.69698-32.0936-8.23712-30.9232-8.102L-25.3868-8.102C-24.4864-8.102-24.0364-7.60702-24.0364-6.61672L-24.0364 0.405182C-23.9293 1.14308-24.4406 1.82847-25.1787 1.93561-25.3074 1.95426-25.4381 1.95426-25.5669 1.93561L-30.7431 1.93561C-31.9137 1.93561-32.4087 1.3505-32.1386 0.225083ZM-23.4513-11.9731-25.5669-11.9731-25.5669-20.2553-20.3904-20.2553C-19.4901-20.2553-18.9501-21.1107-18.86-22.4159-18.7701-23.7214-19.4901-24.3065-20.3904-24.3065L-25.5669-24.3065-25.5669-35.6495C-23.731-35.1077-21.9276-34.4614-20.1654-33.714-19.3102-33.714-18.6349-34.0741-18.2749-35.1995-17.9149-36.3246-18.2749-37.0449-19.04-37.36-24.5663-39.3524-30.283-40.7703-36.0996-41.5911-37.1909-41.6667-38.1368-40.8434-38.2124-39.7522-38.2135-39.735-38.2145-39.7178-38.2152-39.7006-38.2152-38.3953-37.8551-37.765-36.6849-37.765-35.5145-37.765-35.2444-37.405-34.9744-37.765L-34.9744-19.7603C-35.101-18.8491-34.4652-18.0081-33.554-17.8813-33.5176-17.8763-33.4809-17.8725-33.444-17.8697-32.453-17.9407-31.686-18.7668-31.6886-19.7603L-31.6886-37.27-30.5632-37.27C-30.0589-37.3782-29.5371-37.3782-29.0327-37.27L-29.0327-12.5582-32.6787-12.5582C-34.8393-12.9634-35.7846-11.5229-35.5595-8.05718L-35.5595 2.11571C-35.7846 4.68127-34.7943 5.89665-32.4537 5.7617L-24.2165 5.7617C-22.5459 6.02064-20.9819 4.87625-20.723 3.2058-20.6669 2.84363-20.6761 2.47444-20.7505 2.11571L-20.7505-8.55217C-20.6155-11.1179-21.5157-12.2433-23.4513-11.9731" transform="matrix(1.0023 0 0 -1 393.93 538.176)"/><path d="M0 0 0-31.7784C0-33.2189 0.360034-33.8491 1.53027-33.714L30.113-33.714C31.1483-33.714 31.6884-33.264 31.6884-32.0035L31.6884-0.8102C31.6884 1.30535 30.9682 2.29565 29.5729 2.16053L1.66538 2.16053C0.450002 2.29565 0 1.66555 0.134952 0.225083ZM36.0097 0.855348 36.0097-33.4889C36.2796-36.7747 35.0194-38.2602 32.1836-37.9901L0.450002-37.9901C-2.9709-38.3053-4.54631-36.6398-4.05117-33.0839L-4.05117 1.30535C-4.32123 5.13143-2.88077 6.93193 0.180099 6.61672L30.8782 6.61672C34.4342 6.79682 36.1446 4.90635 36.0097 0.855348" transform="matrix(1.0023 0 0 -1 415.405 540.337)"/><path d="M0 0-303.156 0C-316.075 2.4306-315.534 15.0341-306.532 30.6533L-163.484 278.219C-158.082 286.547-144.579 291.723-136.476 278.219L3.69097 35.8745C13.2334 20.9756 21.9659-0.269903 0 0" fill="#FFCC01" fill-rule="evenodd" transform="matrix(1.0023 0 0 -1 460.972 488.438)"/><path d="M0 0 270.072 0 135.036 234.062ZM-15.2592-23.8565C-37.0449-24.1266-28.3125-2.61086-18.7701 12.1532L121.577 257.109C129.5 270.928 143.003 265.481 148.585 257.109L291.453 7.24698C300.455-8.50735 300.996-21.2007 288.077-23.6764Z" fill-rule="evenodd" transform="matrix(1.0023 0 0 -1 176.067 465.707)"/><path d="M0 0 269.442 0 134.766 233.657ZM270.072-0.360034-0.540134-0.360034 134.766 234.378 134.766 234.108ZM133.911 265.211 133.596 265.211C128.361 264.832 123.743 261.645 121.533 256.884L-18.86 12.1533C-23.0012 5.58143-32.3637-10.3528-27.8625-18.7701-25.1831-22.523-20.6337-24.4678-16.0694-23.8113L287.852-23.8113C291.577-23.4204 294.848-21.166 296.539-17.8249 299.06-12.4234 297.079-3.69097 291.048 6.8418L148.045 256.884C144.977 261.802 139.7 264.912 133.911 265.211M-15.8443-24.3966C-20.5387-25.0534-25.208-23.0399-27.9525-19.1752-32.4537-10.7579-23.4513 5.49147-18.9501 12.3333L121.217 257.064C123.446 261.976 128.211 265.251 133.596 265.571L133.911 265.571C139.831 265.24 145.221 262.05 148.36 257.019L291.408 7.11203C297.485-3.51103 299.42-12.3784 296.9-17.8697 295.135-21.3233 291.752-23.6578 287.897-24.0816L-15.8443-24.0816Z" transform="matrix(1.0023 0 0 -1 176.292 465.572)"/><path d="M160.074 265.121 187.802 265.121 187.802 132.606 160.074 132.606Z" transform="matrix(1.0023 0 0 -1 147.046 580.622)"/><path d="M160.164 132.785 187.487 132.785 187.487 264.941 160.164 264.941ZM187.937 132.425 159.894 132.425 159.894 265.301 187.937 265.301Z" transform="matrix(1.0023 0 0 -1 147.046 580.622)"/><path d="M0 0 47.6471 47.6471 66.9986 28.2955 19.3517-19.3516Z" transform="matrix(1.0023 0 0 -1 261.629 409.758)"/><path d="M0 0 19.1752-19.1752 66.6178 28.2675 47.4428 47.4426ZM19.1751-19.5802 19.1751-19.5802-0.270067-0.0901313 47.4428 47.8028 66.9329 28.3575Z" transform="matrix(1.0023 0 0 -1 261.832 409.757)"/></g></svg>