<svg width="328" height="290" xmlns="http://www.w3.org/2000/svg" xmlns:xlink="http://www.w3.org/1999/xlink" xml:space="preserve" overflow="hidden"><defs><clipPath id="clip0"><rect x="98" y="282" width="328" height="290"/></clipPath></defs><g clip-path="url(#clip0)" transform="translate(-98 -282)"><path d="M0 0-303.025 0C-315.938 2.42969-315.398 15.1626-306.4 30.9099L-163.413 280.844C-158.014 289.212-144.516 294.657-136.418 280.844L3.68935 36.219C13.2277 21.2365 21.9563-0.269765 0 0" fill="#FFCC01" fill-rule="evenodd" transform="matrix(1.00231 0 0 -1 411.872 571.437)"/><path d="M0 0-134.978-233.961 134.978-233.961ZM150.005-257.898-153.02-257.898C-165.933-255.468-165.393-242.735-156.394-226.988L-13.4078 22.9462C-8.0087 31.3148 5.48904 36.7589 13.5877 22.9462L153.695-221.679C163.233-236.661 171.962-258.168 150.185-257.673Z" fill-rule="evenodd" transform="matrix(1.00231 0 0 -1 261.52 313.54)"/><path d="M0 0 269.326 0 134.708 233.512ZM269.956-0.359905-0.539857-0.359905 134.708 234.277 134.708 234.007ZM135.563 265.097C129.806 264.739 124.569 261.644 121.48 256.773L-21.5064 6.83901C-27.5355-3.68935-29.4702-12.2381-26.9957-17.8169-25.2835-21.158-22.0005-23.4087-18.267-23.801L285.253-23.801C289.816-24.4572 294.363-22.5132 297.041-18.762 301.54-10.5282 292.542 5.57918 288.268 12.1481L147.936 256.773C145.734 261.538 141.114 264.727 135.878 265.097ZM285.253-24.1609-18.3121-24.1609C-22.1741-23.7614-25.5662-21.4209-27.3106-17.9519-29.8751-12.463-27.8954-3.59938-21.8215 7.0188L121.165 256.953C124.276 261.98 129.658 265.159 135.563 265.456L135.878 265.456C141.27 265.133 146.045 261.863 148.296 256.953L288.583 12.3279C292.767 5.71415 302.08-10.5282 297.581-18.9418 294.799-22.8844 290.021-24.9071 285.253-24.1609" transform="matrix(1.00231 0 0 -1 126.501 547.456)"/><path d="M0 0-4.00443 7.96372-62.4947-28.4803-60.2451-16.4223-71.4933-21.5516-75.9925-44.9027-53.7662-49.4019-43.7779-41.9782-57.2756-37.4789ZM87.7357-76.8924-169.262-76.8924 21.8664 38.2887Z" fill-rule="evenodd" transform="matrix(1.00231 0 0 -1 301.385 467.504)"/><path d="M0 0 21.9563-4.22937 31.6299 2.96954 18.132 7.46868 18.4471 7.46868 75.7675 44.9026 71.9434 52.5514 13.0029 16.0174 15.2524 28.1205 4.45432 23.1713ZM22.0465-4.4993 22.0465-4.4993-0.449881 0 4.04942 23.4411 15.5675 28.7504 13.3178 16.7374 71.8082 53.0914 75.9475 44.7678 19.0769 7.69379 32.5747 3.19448ZM-92.7297-31.8547 163.728-31.8547 97.769 82.9213ZM164.223-32.2148-93.9445-32.2148-93.4047-31.8547 97.904 83.4163Z" transform="matrix(1.00231 0 0 -1 225.217 512.362)"/><path d="M0 0C0.174554 0.754165-0.128421 1.53876-0.764798 1.9798L-1.30482 2.29456-13.7677 2.29456C-13.1198 0.145434-12.1975-1.91126-11.0232-3.82448-9.85338-5.67832-8.42979-7.3594-6.79386-8.81849-4.82387-7.17781-3.1104-5.25183-1.70971-3.10467-1.39463-2.33971-0.854938-1.30482-0.179952 0ZM-10.9331 6.56876-10.9331 16.7372-17.2321 16.7372C-17.7258 16.7829-18.1943 16.5124-18.4019 16.0624-18.4401 15.854-18.4401 15.6407-18.4019 15.4324L-18.4019 6.43396ZM-24.2061-4.22937C-24.1791-4.0805-24.1791-3.9282-24.2061-3.77949-24.1956-3.24225-24.3705-2.7181-24.7009-2.29456-24.9792-1.89948-25.4324-1.66456-25.9158-1.66489-26.2649-1.65687-26.6088-1.75061-26.9057-1.93465L-28.2553-2.92456-28.2553 9.85322-26.2307 9.85322C-25.0284 10.4494-24.537 11.907-25.133 13.1092-25.1528 13.1493-25.1739 13.1889-25.196 13.2277-25.4558 13.5375-25.8279 13.7317-26.2307 13.7677L-28.2553 13.7677-28.2553 24.296-28.7054 24.6559C-29.1584 25.1173-29.7691 25.3905-30.4149 25.4207-31.2044 25.3828-31.926 24.9633-32.3496 24.296L-32.3496 13.7677-36.354 13.7677C-36.4917 13.6849-36.6138 13.5784-36.7139 13.4528-37.2039 13.0158-37.4959 12.3989-37.5239 11.743-37.4545 10.9637-37.0208 10.2629-36.354 9.85322L-32.3497 9.85322-32.3497-5.57918-36.5791-8.14367C-38.0601-8.91108-38.9954-10.4348-39.0086-12.103-38.5437-12.6749-37.8553-13.0191-37.1188-13.0479-36.2619-12.981-35.4385-12.6857-34.7343-12.1929L-32.7096-10.7983-27.3104-6.97381C-26.1492-6.21311-25.1035-5.28864-24.2061-4.22937M7.28889-18.357C7.8317-18.3601 8.34423-18.6081 8.68353-19.0319 8.99877-19.4264 9.1586-19.9224 9.13357-20.4266 9.13014-20.999 8.90421-21.5477 8.50357-21.9565 8.12224-22.4016 7.55964-22.6496 6.97381-22.6313 4.16345-22.1238 1.4851-21.0525-0.899762-19.4818-3.18123-17.9871-5.32005-16.2852-7.28889-14.3977-9.81363-16.2474-12.4759-17.902-15.2524-19.3469L-19.2569-21.2815C-19.6374-21.7332-20.1961-21.9961-20.7866-22.0015-21.3872-22.0072-21.9673-21.7818-22.4064-21.3717-22.8338-20.9435-23.0624-20.3562-23.036-19.7517-23.0233-19.2461-22.85-18.7578-22.5412-18.3571-19.4583-17.2208-16.5268-15.7095-13.8128-13.8578-12.8677-13.2278-11.6981-12.373-10.3033-11.2482-12.1849-8.9299-13.8279-6.42758-15.2075-3.77949-15.7023-2.78959-16.2423-1.52992-16.9172 0L-16.9172 1.1247C-16.9172 1.39463-17.3671 2.42969-17.8621 2.42969-18.0383 2.48204-18.2258 2.48204-18.4019 2.42969-18.7165-0.451517-19.2276-3.30769-19.9317-6.11904-20.2016-7.15377-20.5617-8.45859-21.0566-10.0335-22.3138-12.5198-23.8213-14.8716-25.5559-17.0521-26.6899-18.4034-28.0255-19.572-29.5152-20.5167L-30.19-20.5167C-30.7542-20.5391-31.2988-20.3081-31.6747-19.8869-32.0119-19.4323-32.1863-18.8777-32.1698-18.3121-32.1752-17.7263-32.0196-17.1505-31.7199-16.6474-31.4673-16.1458-31.0326-15.7596-30.5051-15.5675-27.7783-13.455-25.6784-10.6398-24.431-7.42386-23.1584-4.28009-22.5163-0.916776-22.5413 2.47451L-22.5413 18.7169C-22.3494 19.5563-21.8315 20.2847-21.1016 20.7415-20.7245 20.9897-20.316 21.1863-19.8869 21.3263L-10.8883 21.3263-10.8883 24.9259C-10.7237 25.343-10.4222 25.6921-10.0333 25.9156-9.61143 26.1643-9.12817 26.2888-8.6387 26.2755-7.80029 26.3802-7.03598 25.7852-6.93128 24.9468-6.93046 24.9398-6.92964 24.9329-6.92883 24.9259L-6.92883 21.3263 5.03916 21.3263 7.0188 20.0217C7.0543 19.6325 7.0543 19.2408 7.0188 18.8518 6.83427 16.5753 5.98996 14.4018 4.58928 12.5978L2.29456 9.1784C1.94643 8.77138 1.4352 8.54038 0.899926 8.54856 0.343218 8.56345-0.187314 8.78855-0.584846 9.1784-1.02262 9.53094-1.28535 10.0566-1.30482 10.6182-1.30187 11.0903-1.08724 11.5363-0.71981 11.8329-0.350253 12.4704 0.0554581 13.0861 0.494869 13.6775 1.02884 14.2499 1.37435 14.9724 1.48477 15.7473 1.55266 16.0738 1.55266 16.4107 1.48477 16.7372L-7.15377 16.7372-7.15377 6.56876 2.47467 6.56876C3.30246 6.7065 4.14774 6.458 4.76923 5.89393 5.31743 5.29338 5.6083 4.50208 5.57918 3.68935 5.58883 2.98868 5.43489 2.29538 5.1293 1.66472 3.62964-1.75961 1.77482-5.01691-0.404893-8.05369-1.18474-9.19345-2.21947-10.5433-3.5094-12.103-0.629997-14.1276 0.989902-15.2524 1.52992-15.5674 3.26925-16.7205 5.14288-17.6573 7.10894-18.357ZM-79.007-3.28446-79.007-1.30482C-79.0847 0.539694-79.6264 2.33464-80.5817 3.91446-81.1216 4.9042-82.0665 6.47894-83.3263 8.4136-83.2774 10.3682-82.8971 12.3002-82.2015 14.1276-80.984 17.0085-80.1374 20.0321-79.6818 23.1262-79.8412 23.5412-80.0528 23.9345-80.3118 24.296-80.7527 25.0406-81.4884 25.5639-82.3364 25.7357L-90.6601 25.7357C-91.0805 25.6313-91.4878 25.4803-91.8749 25.2858-92.6515 24.8151-93.1791 24.0241-93.3147 23.1262L-93.3147-20.8316-92.9548-21.1915C-92.5129-21.6691-91.8954-21.9454-91.2449-21.9565-90.4577-21.9112-89.7392-21.4935-89.3103-20.8316L-89.3103 20.6515C-89.3539 20.8745-89.3539 21.1037-89.3103 21.3263-89.1085 21.7603-88.6632 22.0275-88.1856 22.0013L-85.5309 22.0013-85.126 21.6864C-84.6552 21.2818-84.391 20.6872-84.4061 20.0667-84.3956 19.5783-84.5546 19.1013-84.8561 18.7169L-87.1956 9.26837C-87.1256 7.87587-86.6911 6.52622-85.9358 5.35408-84.6501 3.53934-83.6205 1.55593-82.8765-0.540021L-82.8765-2.51966C-82.9723-3.65189-83.7059-4.63018-84.766-5.03932-85.767-5.41624-86.8091-5.67308-87.8705-5.80412-88.2885-6.14391-88.5219-6.6607-88.5005-7.19892-88.5057-7.79129-88.2981-8.36615-87.9155-8.81849-87.5582-9.24432-87.0316-9.49135-86.4758-9.49347L-85.8458-9.49347C-84.233-9.17692-82.7019-8.53384-81.3467-7.60365-79.8758-6.58806-79.027-4.89062-79.097-3.10467ZM-47.1973-20.9666C-47.2905-21.3937-47.5291-21.7754-47.8721-22.0465-48.2608-22.2461-48.6955-22.3393-49.1319-22.3164L-50.5717-22.3164C-51.3164-22.1906-52.0768-22.1906-52.8213-22.3164-58.6252-21.1465-62.1798-20.3817-63.3946-20.0218-66.9508-19.0488-70.1721-17.1192-72.708-14.4427L-74.1028-12.9131C-74.5553-12.2836-75.2641-11.8878-76.0375-11.8332-76.488-13.3952-77.1065-14.9037-77.8821-16.3323-78.2137-17.0016-78.5895-17.6478-79.007-18.267-79.772-19.7068-80.3118-20.7866-80.6717-21.5066-81.2106-22.6806-82.1524-23.6222-83.3263-24.1611-84.2938-24.216-85.1228-23.4763-85.1777-22.5088-85.1831-22.4146-85.1808-22.3202-85.171-22.2264L-85.171-21.4615C-85.1892-21.3725-85.1892-21.2807-85.171-21.1915-82.757-17.7207-80.8625-13.9162-79.547-9.89837-78.2625-5.88543-77.3734-1.75634-76.8922 2.42969-76.8922 3.28446-76.3074 3.73434-75.1375 3.73434-74.705 3.74432-74.2801 3.61835-73.9228 3.37444-73.8945 2.96987-73.8945 2.564-73.9228 2.15959L-73.9228 0.899762C-73.9184-0.428287-74.039-1.75405-74.2828-3.05952-74.6876-4.85921-74.9577-6.20901-75.1375-7.10878-73.5629-8.77367-71.9882-10.3932-70.6384-11.9232L-68.3888-13.9928-68.3888 5.35424-79.6368 5.35424C-80.3332 5.75537-80.7749 6.48582-80.8067 7.28889-80.7939 7.92576-80.5168 8.52893-80.0417 8.95345L-79.6368 9.31352-68.3888 9.31352-68.3888 17.3671-77.0274 17.3671C-77.4516 17.4079-77.8412 17.619-78.1072 17.9519-78.3318 18.2994-78.4419 18.7085-78.4221 19.1219-78.5372 20.0942-77.9553 21.014-77.0274 21.3263L-67.7588 21.3263-67.7588 25.8256C-67.6621 26.2523-67.3824 26.6145-66.994 26.8155-66.5924 27.117-66.1015 27.2754-65.5992 27.2654-64.8061 27.3276-64.0626 26.8741-63.7545 26.1407L-63.7545 21.2364-50.4817 21.2364C-50.1483 20.9288-49.8738 20.5628-49.6718 20.1566-49.6137 19.8293-49.6137 19.4943-49.6718 19.1667-49.687 18.5657-49.947 17.9969-50.3916 17.592L-50.7067 17.2771-63.7545 17.2771-63.7545 9.44849-49.1768 9.44849C-48.4669 9.16236-48.0157 8.45826-48.0521 7.69362-48.0154 6.81267-48.4419 5.97655-49.1768 5.48921L-63.7545 5.48921-63.7545-1.70971-50.2566-1.70971C-49.8038-1.68795-49.3744-1.91159-49.1319-2.29456-48.8856-2.71745-48.7611-3.20021-48.772-3.68935-48.7324-4.18161-48.8591-4.67255-49.1319-5.08415-49.3597-5.48299-49.7994-5.71169-50.2566-5.66899L-63.7545-5.66899-63.7545-15.8375C-61.0294-16.6898-58.248-17.3512-55.4309-17.8169L-51.7866-18.4469-48.7269-18.9869C-47.7861-19.0643-47.0859-19.8901-47.1634-20.8311-47.1696-20.907-47.1809-20.9823-47.1973-21.0566ZM-103.483 21.3263-125.979 21.3263-125.979 14.7576-123.685 13.1378C-122.245 11.923-120.22 10.3932-117.656 8.63854-115.091 6.88384-113.156 5.30909-111.627 4.1394-109.523 2.49774-107.552 0.692163-105.733-1.25983-105.717-1.95477-105.995-2.62436-106.498-3.10467-106.987-3.55439-107.633-3.79634-108.297-3.77949-109.093-3.7705-109.853-3.44691-110.412-2.87973-112.841-0.764962-115.316 1.25967-117.791 3.19432L-123.685 7.69362-126.024 9.26837-126.024-19.8869C-126.067-20.2982-126.279-20.6731-126.609-20.9218-126.953-21.1595-127.361-21.2851-127.779-21.2817-128.759-21.3846-129.685-20.8107-130.029-19.8869L-130.029 21.3263-148.026 21.3263C-148.643 21.5411-149.114 22.0461-149.285 22.6761-149.317 22.9904-149.317 23.307-149.285 23.6212-149.124 24.0389-148.842 24.3993-148.476 24.6559L-147.936 24.9259-102.943 24.9259C-102.528 24.9375-102.143 24.7099-101.953 24.341-101.691 23.9561-101.55 23.5016-101.548 23.036-101.549 22.6051-101.674 22.1836-101.908 21.8215-102.149 21.4937-102.537 21.308-102.943 21.3265Z" fill-rule="evenodd" transform="matrix(1.00231 0 0 -1 332.412 631.952)"/></g></svg>