<svg width="328" height="290" xmlns="http://www.w3.org/2000/svg" xmlns:xlink="http://www.w3.org/1999/xlink" xml:space="preserve" overflow="hidden"><defs><clipPath id="clip0"><rect x="196" y="53" width="328" height="290"/></clipPath></defs><g clip-path="url(#clip0)" transform="translate(-196 -53)"><path d="M0 0-303.05 0C-315.964 2.42972-315.424 15.1637-306.425 30.9123L-163.427 280.867C-158.027 289.236-144.528 294.636-136.429 280.867L3.68966 36.2218C13.2287 21.2381 21.9581-0.269951 0 0" fill="#FFCC01" fill-rule="evenodd" transform="matrix(1.0023 0 0 -1 509.883 342.461)"/><path d="M0 0-134.989-233.981 134.989-233.981ZM150.018-257.874-153.033-257.874C-165.946-255.444-165.406-242.71-156.407-226.961L-13.4089 22.9931C-8.00936 31.3624 5.48949 36.7619 13.5888 22.9931L153.707-221.652C163.246-236.635 171.976-258.144 150.198-257.649Z" fill-rule="evenodd" transform="matrix(1.0023 0 0 -1 359.52 84.5869)"/><path d="M0 0 269.348 0 134.719 233.531ZM269.978-0.359934-0.539902-0.359934 134.719 234.296 134.719 233.981ZM135.574 265.118C129.816 264.761 124.579 261.665 121.49 256.794L-21.5082 6.83957C-27.5378-3.68966-29.4726-12.4189-26.9979-17.8186-25.2856-21.1597-22.0023-23.4106-18.2685-23.803L285.276-23.803C289.839-24.4592 294.387-22.515 297.066-18.7635 301.565-10.5291 292.566 5.57964 288.291 12.1491L147.948 256.794C145.746 261.559 141.125 264.749 135.889 265.118ZM285.276-24.1629-18.3136-24.1629C-22.1759-23.7634-25.5683-21.4226-27.3128-17.9534-29.8775-12.464-27.8977-3.59967-21.8233 7.01938L121.175 256.974C124.287 262.002 129.669 265.181 135.574 265.478L135.889 265.478C141.281 265.155 146.057 261.885 148.308 256.974L288.606 12.3289C292.791 5.71461 302.105-10.5291 297.605-19.1683 294.768-23.0266 290-24.9583 285.276-24.1629" transform="matrix(1.0023 0 0 -1 224.491 318.478)"/><path d="M0 0-13.6338 0-13.6338-49.991-32.8923-76.5386-32.8923-133.234-17.6834-133.234-18.0435-80.4984 0-56.2905Z" fill-rule="evenodd" transform="matrix(1.0023 0 0 -1 349.237 169.045)"/><path d="M0 0 14.8488 0 14.4438 52.6007 32.4424 76.7637 32.4424 132.874 18.9435 132.874 18.9435 83.0181-0.269951 56.5154ZM15.2087-0.359934-0.49491-0.359934-0.49491 56.5603 18.7635 83.1082 18.7635 133.279 32.7573 133.279 32.7573 76.6737 14.7588 52.5557Z" transform="matrix(1.0023 0 0 -1 316.45 302.099)"/><path d="M0 0 13.634 0 13.634-49.991 32.8924-76.5386 32.8924-133.234 17.6388-133.234 18.0435-80.4984 0-56.2905Z" fill-rule="evenodd" transform="matrix(1.0023 0 0 -1 368.54 169.045)"/><path d="M0 0 14.8936 0 14.8936 56.4703-4.3647 83.0181-4.3647 132.874-17.5936 132.874-17.5936 76.8087 0.404926 52.6007ZM15.2535-0.359934-0.315106-0.359934 0.0899836 52.2857-17.9085 76.4488-17.9085 133.279-3.91478 133.279-3.91478 83.1532 15.2535 56.5603Z" transform="matrix(1.0023 0 0 -1 386.354 302.099)"/><path d="M0 0C-0.130558-1.80622-0.416706-3.59754-0.855008-5.35468-1.28824-6.38949-2.02578-7.26822-2.96979-7.87438L-3.68982-7.87438C-4.12992-7.92543-4.56724-7.75741-4.85977-7.42447-5.12285-7.07647-5.25095-6.64472-5.2197-6.20952-5.21152-5.55248-5.10518-4.90034-4.90476-4.27471L-4.27471-2.60985-5.62463-1.25993-19.1236-1.25993-19.1236-6.83957C-19.0127-7.35755-18.6618-7.79193-18.1787-8.00936-17.9406-8.05239-17.6968-8.05239-17.4586-8.00936L-12.509-8.00936C-11.8342-8.00936-10.8893-7.19951-9.67438-5.53448-9.31887-4.87073-8.66591-4.41869-7.91938-4.3197-7.42054-4.33083-6.93594-4.48724-6.52463-4.76962-6.37411-5.26568-6.2982-5.7812-6.29967-6.29951-6.30671-7.91414-7.07353-9.4311-8.36946-10.3941-9.61696-11.4778-11.2167-12.0696-12.8691-12.0591-13.1981-12.0956-13.5299-12.0956-13.8589-12.0591L-17.5036-12.0591C-18.9308-12.0689-20.3217-11.6105-21.4632-10.754-22.5883-9.9427-23.2441-8.63139-23.2181-7.24434L-23.2181-1.16995-28.5278-1.16995C-28.8319-4.03487-30.01-6.73699-31.9025-8.90936-32.7917-9.92519-33.7705-10.8587-34.8271-11.6992-34.6962-12.0761-34.6203-12.4703-34.6021-12.869L-34.6021-13.589C-34.5457-14.0523-34.5457-14.5206-34.6021-14.9839-34.5643-15.192-34.5643-15.4055-34.6021-15.6138L-2.42988-15.6138C-1.73358-16.0151-1.29184-16.7456-1.25993-17.5486-1.29249-18.1811-1.56621-18.777-2.02496-19.2135L-2.42988-19.5736-24.8831-19.5736-24.8831-24.0732-4.94959-24.0732C-4.54237-24.0932-4.16411-24.2905-3.91478-24.613-3.69015-24.9605-3.57988-25.3697-3.59984-25.7831-3.47909-26.7431-4.03961-27.6588-4.94959-27.9877L-24.8831-27.9877-24.8831-32.4874-3.64466-32.4874C-3.22141-32.642-2.86933-32.9461-2.65484-33.3424-2.39275-33.7607-2.2527-34.2437-2.24992-34.7373-2.1493-35.5512-2.72765-36.2924-3.54143-36.393-3.57579-36.3972-3.61014-36.4003-3.64466-36.4021L-24.8831-36.4021-24.8831-43.2415C-25.1952-43.9156-25.8515-44.3645-26.5929-44.4113-27.1983-44.3747-27.7645-44.0995-28.1677-43.6465L-28.5278-43.2415-28.5278-19.6634-36.1322-19.6634C-37.7079-22.5487-39.5136-25.3024-41.5317-27.8979-42.2516-28.8427-43.2415-30.0126-44.4565-31.4525-44.7235-31.8603-45.184-32.0991-45.6713-32.0824-46.1672-32.0824-46.6338-31.8491-46.9312-31.4525-47.278-31.035-47.4688-30.5102-47.4711-29.9677-47.4847-29.5622-47.3576-29.1648-47.1112-28.8427-45.5965-27.3185-44.2397-25.6452-43.0614-23.8481L-41.4417-21.2834C-40.8778-20.2828-40.3817-19.2455-39.9568-18.1785-38.6519-14.7588-37.932-12.9589-37.7969-12.734L-40.4517-13.0939-41.1716-13.0939C-41.6881-13.1191-42.1868-12.903-42.5215-12.509-42.8522-12.0856-43.0269-11.5613-43.0166-11.0241-43.0346-10.4294-42.8255-9.85026-42.4315-9.40427-39.9215-9.45008-37.4623-8.6934-35.4122-7.24434-33.3651-5.90652-32.1431-3.61554-32.1726-1.16995L-41.4417-1.16995C-41.8545-1.34043-42.2237-1.60187-42.5215-1.93481L-42.5667-2.74483-42.5667-7.96453C-42.9865-8.45175-43.5887-8.74477-44.2315-8.77438-44.8079-8.77128-45.3462-8.48545-45.6713-8.00936L-45.6713-7.64943-45.6713 0.134975C-45.5803 0.756844-45.2784 1.32865-44.8164 1.75484L-43.7816 2.20476-27.5378 2.20476-27.5378 4.49967C-27.5641 4.97724-27.2968 5.4229-26.8627 5.62447-26.6401 5.66831-26.4108 5.66831-26.1878 5.62447L-24.568 5.62447C-24.0773 5.65702-23.6156 5.39051-23.3982 4.94959-23.3843 4.73985-23.3843 4.52945-23.3982 4.31954L-23.3982 2.0248-3.82479 2.0248C-2.7589 2.04181-1.73358 1.61872-0.989983 0.855008-0.625468 0.66637-0.291547 0.423741 0 0.134975ZM-59.5752-44.0514C-63.4874-44.036-67.3681-43.3513-71.0493-42.0266-73.7501-41.0527-76.3558-39.8326-78.8337-38.3819-82.5048-40.5584-86.3592-42.4104-90.3527-43.9166-93.5254-44.8251-96.8173-45.25-100.117-45.1764-100.752-45.1988-101.363-44.9342-101.782-44.4565-102.145-43.9447-102.335-43.3292-102.322-42.7015-102.353-42.2664-102.225-41.8345-101.962-41.4867-101.652-41.1477-101.206-40.9659-100.747-40.9918-97.8519-40.8112-94.9772-40.3899-92.1525-39.7319-88.9944-38.8449-85.9458-37.6073-83.0632-36.042-84.9256-34.5746-86.6433-32.9322-88.1928-31.1374L-90.2626-28.7527C-90.6493-28.4617-90.8947-28.0201-90.9376-27.5378-90.9235-26.9995-90.6567-26.4995-90.2177-26.1878-89.7493-25.8022-89.1595-25.5948-88.5527-25.603-88.0992-25.5931-87.6557-25.7356-87.2929-26.0079-86.7529-26.458-85.4031-27.8527-83.2432-30.1476-82.0392-31.5633-80.5916-32.7519-78.9686-33.6573-77.3151-32.4713-75.8053-31.097-74.469-29.5626-74.019-29.0227-73.479-28.3026-72.8491-27.4028-72.5557-26.927-72.2246-26.4756-71.8591-26.0529-71.6361-25.823-71.4669-25.5463-71.364-25.2429-71.4388-24.9397-71.6132-24.6704-71.8591-24.478L-94.0874-24.478C-94.3293-24.3553-94.5559-24.2043-94.7622-24.0281-95.1626-23.7089-95.408-23.2344-95.4373-22.7232-95.4047-22.3676-95.2805-22.0267-95.0773-21.7332-94.8326-21.2656-94.4957-20.8525-94.0874-20.5184L-67.0895-20.5184C-66.3412-20.8319-65.7332-21.4081-65.3796-22.1381-65.2286-22.4643-65.1373-22.8148-65.1097-23.1732-66.748-26.5661-68.87-29.7036-71.4092-32.4874-72.4347-33.6231-73.548-34.6761-74.7389-35.6371-72.1821-36.8607-69.5156-37.8399-66.7745-38.5619-63.9671-39.3155-61.1105-39.8717-58.2253-40.2268-57.4603-40.2268-57.1003-40.8117-57.1003-41.7566-57.0869-42.3235-57.297-42.8731-57.6854-43.2864-58.1605-43.726-58.794-43.9532-59.4402-43.9164ZM-90.4875-7.24434-98.6319-18.7635C-99.0044-19.2851-99.611-19.5884-100.252-19.5734-100.713-19.5821-101.161-19.4221-101.512-19.1235-101.857-18.8733-102.059-18.4702-102.052-18.0435-102.038-17.7053-101.929-17.3778-101.737-17.0987L-93.5924-5.35468C-93.357-5.0543-92.9807-4.90034-92.6025-4.94975-92.0526-4.94632-91.5163-5.1199-91.0724-5.4445-90.6326-5.67633-90.3434-6.11856-90.3075-6.61461-90.2686-6.82272-90.2686-7.03639-90.3075-7.2445ZM-57.9552-2.74483C-57.0768-2.47537-56.4991-1.63688-56.5604-0.719869-56.4845 0.0965279-57.0849 0.819996-57.9015 0.89591-57.9195 0.897546-57.9373 0.898854-57.9552 0.899836L-77.5287 0.899836-77.5287 5.39951C-77.6676 5.71903-77.8663 6.00911-78.1136 6.25452-78.5377 6.54541-79.0392 6.70214-79.5535 6.70443-80.2759 6.6439-80.9573 6.34303-81.4883 5.84943L-81.4883 1.34975-100.747 1.34975C-101.574 1.27809-102.194 0.559044-102.142-0.269951-102.132-0.69271-101.991-1.10173-101.737-1.44007-101.499-1.81669-101.154-2.11429-100.747-2.29491L-88.1478-2.29491-88.1478-15.7938C-87.8176-16.7286-86.8821-17.3086-85.8979-17.1887-85.4803-17.1923-85.0716-17.0665-84.7281-16.8286-84.3886-16.5882-84.1739-16.2087-84.1432-15.7938L-84.1432-2.74483-76.1788-2.74483-76.1788-16.2437C-76.0859-17.0835-75.3299-17.689-74.4901-17.5961-74.483-17.5954-74.476-17.5944-74.469-17.5936-73.9819-17.5862-73.5037-17.4629-73.0741-17.2337-72.6852-17.01-72.3838-16.661-72.219-16.2437L-72.219-2.74483ZM-58.5404-15.1639C-58.3156-15.4629-58.1898-15.8247-58.1803-16.1987-58.1729-16.7669-58.4412-17.3035-58.9003-17.6386-59.3323-18.0257-59.8951-18.2346-60.4752-18.2236-60.9256-18.2246-61.3536-18.027-61.645-17.6836L-69.5642-7.69442C-69.7525-7.45032-69.8482-7.14748-69.8343-6.83957-69.835-6.32798-69.6231-5.83895-69.2494-5.48966-68.952-5.09307-68.4852-4.85961-67.9893-4.85961-67.5692-4.87842-67.1769-5.07475-66.9095-5.39967L-58.2703-15.1639ZM-146.913 5.03957-149.253-4.45468-149.253-43.4665C-149.294-43.8909-149.505-44.2803-149.838-44.5463-150.194-44.7502-150.597-44.8588-151.008-44.8612-151.984-44.9949-152.915-44.4061-153.212-43.4665L-153.212-13.0039-154.562-14.9837C-154.833-15.8302-155.658-16.3734-156.542-16.2888-156.99-16.305-157.431-16.1792-157.802-15.9287-158.161-15.6899-158.366-15.2792-158.342-14.8489-158.373-14.6701-158.373-14.4875-158.342-14.3089-156.812-11.1591-155.327-7.96437-153.842-4.72463-152.304-1.63623-151.199 1.64948-150.558 5.03957-150.504 5.41194-150.267 5.73277-149.928 5.89442-149.274 6.20952-148.512 6.20952-147.858 5.89442-147.392 5.70136-147.043 5.302-146.913 4.81461ZM-134.674-21.5082-134.674-5.75961C-134.722-5.35075-134.954-4.9864-135.304-4.76962-135.697-4.53059-136.149-4.40609-136.609-4.40969-137.004-4.41787-137.391-4.52618-137.734-4.72463-138.056-4.97986-138.266-5.35141-138.319-5.75961L-138.319-20.7433-138.589-24.0281C-138.976-26.6762-139.749-29.2535-140.883-31.6773-142.439-35.1278-144.727-38.1987-147.588-40.6767-147.806-40.9494-147.945-41.2758-147.993-41.6215-147.981-42.1437-147.772-42.6421-147.408-43.0166-147.011-43.2815-146.52-43.3634-146.058-43.2415-145.582-43.2172-145.147-42.966-144.888-42.5665-141.391-40.3071-138.636-37.0675-136.969-33.2522-135.366-29.5632-134.569-25.5748-134.629-21.5532ZM-124.37-37.5719C-124.314-37.9449-124.314-38.3239-124.37-38.6967-124.305-39.4765-124.822-40.1855-125.585-40.3617-126.018-40.4097-126.456-40.4097-126.89-40.3617-128.877-38.6928-130.686-36.8231-132.289-34.7823-132.874-34.0622-133.639-33.0723-134.494-31.8123-134.754-30.9054-134.231-29.959-133.324-29.6977-132.832-29.6236-132.331-29.6236-131.839-29.6977-130.03-31.3688-128.318-33.1415-126.71-35.0072L-124.55-37.5719ZM-127.025-26.4578C-127.314-27.1595-128.022-27.5952-128.779-27.5378-129.654-27.5934-130.492-27.1826-130.984-26.4578L-130.984-3.14975C-131.12-2.25188-131.647-1.46052-132.424-0.989983-132.802-0.775659-133.213-0.623832-133.639-0.540065L-138.139-0.540065C-139.041-0.664406-139.845-1.17306-140.344-1.93481-140.518-2.33025-140.668-2.73599-140.793-3.14975L-140.793-26.7729C-141.217-27.4403-141.939-27.8597-142.728-27.8977-143.378-27.8815-143.993-27.606-144.438-27.1328L-144.753-26.7729-144.753-0.855008-144.078 0.764861C-143.669 1.75075-142.896 2.54065-141.918 2.96962L-140.434 3.41954-131.164 3.41954C-129.688 3.18068-128.39 2.3098-127.61 1.03481-127.284 0.435848-127.027-0.198128-126.845-0.855008L-126.845-26.458ZM-119.06-30.6875-119.06 0.134975C-119.584 0.846991-120.427 1.25175-121.31 1.21494-122.055 1.26664-122.747 0.829485-123.02 0.134975L-123.02-30.6875C-122.876-30.9-122.692-31.0833-122.48-31.2274-122.073-31.6036-121.548-31.8262-120.995-31.8575-120.646-31.8655-120.302-31.7716-120.005-31.5874-119.615-31.3774-119.289-31.0668-119.06-30.6875M-111.366-39.2368C-111.47-40.6536-112.238-41.9383-113.436-42.7015-114.021-43.0545-114.659-43.3127-115.326-43.4665L-116.99-43.4665C-118.042-43.4616-119.082-43.2476-120.05-42.8365L-121.31-42.1616C-122.137-41.7724-122.638-40.9131-122.57-40.0016-122.57-38.7869-122.03-38.2018-120.905-38.2018L-120.32-38.2018C-119.436-38.8535-118.358-39.1866-117.26-39.1466-116.135-39.1466-115.506-38.6967-115.326-37.8869L-115.326 4.72463C-115.161 5.14199-114.859 5.49096-114.471 5.71461-114.039 5.93908-113.562 6.06228-113.076 6.07455-112.237 6.17909-111.473 5.58406-111.368 4.74557-111.367 4.7387-111.367 4.73167-111.366 4.72463-111.366 4.72463-111.366-39.2368-111.366-39.2368M-186.555-10.7092-194.744-10.7092C-194.762-11.8656-194.928-13.0149-195.239-14.1287-195.239-14.5338-195.509-15.0287-195.734-15.6138L-189.119-21.8683C-188.39-19.9886-187.906-18.0224-187.68-16.0187-187.502-14.2303-187.201-12.4564-186.78-10.7092ZM-186.555 1.1248-194.204 1.1248-194.204-6.74943-186.555-6.74943ZM-168.556 1.1248-182.82 1.1248-182.82-6.74943-174.181-6.74943C-172.751-6.98649-171.473-7.779-170.626-8.95419-170.323-9.51732-170.068-10.1043-169.861-10.7092L-169.861-39.2368C-170.101-40.6888-170.975-41.9587-172.246-42.7015-172.852-43.0455-173.503-43.3031-174.181-43.4665L-178.14-43.4665C-179.28-43.4986-180.39-43.0964-181.245-42.3415-181.596-41.9932-181.898-41.5998-182.145-41.1716-182.171-40.9473-182.171-40.7209-182.145-40.4966-182.215-39.9856-181.988-39.4792-181.56-39.1918-181.043-38.9369-180.471-38.8132-179.895-38.8319L-178.77-38.8319-177.105-39.1918-175.126-39.1918C-174.635-39.2242-174.173-38.9578-173.956-38.5169-173.92-38.3083-173.92-38.0955-173.956-37.8869L-173.956-12.644C-174.104-12.0845-174.418-11.5827-174.856-11.2041-175.073-11.0083-175.315-10.8419-175.576-10.7092L-182.82-10.7092-183.45-15.2087C-181.245-17.8382-179.187-20.5873-177.285-23.443-176.611-24.478-175.8-25.7379-174.856-27.3126-174.365-27.7976-174.103-28.4684-174.136-29.1576-174.107-29.7113-174.283-30.2561-174.631-30.6875-174.908-31.1132-175.383-31.3678-175.891-31.3624-176.346-31.3437-176.786-31.1867-177.15-30.9125-178.5-29.3001-179.676-27.5507-180.66-25.6929-181.606-23.8087-182.768-22.0421-184.125-20.4282-185.07-23.5942-186.432-26.6204-188.175-29.4276-188.804-30.4176-189.659-31.6325-190.784-33.0723-191.056-33.5914-191.48-34.0153-191.999-34.2872-192.564-34.602-193.198-34.772-193.844-34.7823-195.284-34.7823-195.914-34.1072-195.734-32.7573L-190.784-26.1878-196.724-20.2934C-197.849-23.0381-198.704-24.7929-199.289-26.3678-200.172-28.4865-201.581-30.3451-203.383-31.7675L-203.743-31.7675-204.148-31.7675C-204.653-31.7798-205.141-31.5846-205.498-31.2274-205.843-30.8623-206.036-30.3796-206.038-29.8775-206.016-29.4639-205.892-29.0621-205.678-28.7077-203.804-26.2009-202.289-23.4445-201.178-20.5182-200.339-18.3444-199.691-16.101-199.244-13.814L-198.839-11.0241-204.553-11.0241C-205.099-11.2875-205.565-11.6913-205.903-12.1939-206.024-12.4421-206.129-12.6977-206.218-12.9589L-206.218-41.4865C-206.376-41.9224-206.699-42.2782-207.118-42.4765-207.536-42.7386-208.019-42.8788-208.513-42.8814-209.352-42.9837-210.114-42.3865-210.217-41.5477-210.219-41.5274-210.221-41.507-210.223-41.4865L-210.223-10.7092C-209.939-9.42963-209.142-8.32316-208.018-7.64943-207.437-7.31289-206.836-7.0125-206.218-6.74943L-197.939-6.74943-197.939 1.1248-211.888 1.1248C-212.305 1.26337-212.668 1.53119-212.923 1.88982-213.048 2.04934-213.14 2.23307-213.192 2.42988-213.369 3.14501-213.184 3.90153-212.698 4.45468-212.467 4.69911-212.192 4.89756-211.888 5.03957L-168.556 5.03957C-167.873 4.64675-167.433 3.93654-167.386 3.14975-167.417 2.50367-167.69 1.89293-168.151 1.4399Z" fill-rule="evenodd" transform="matrix(1.0023 0 0 -1 466.858 382.057)"/></g></svg>