<svg width="327" height="290" xmlns="http://www.w3.org/2000/svg" xmlns:xlink="http://www.w3.org/1999/xlink" xml:space="preserve" overflow="hidden"><defs><clipPath id="clip0"><rect x="49" y="189" width="327" height="290"/></clipPath></defs><g clip-path="url(#clip0)" transform="translate(-49 -189)"><path d="M0 0-302.767 0C-315.669 2.42762-315.13 15.1497-306.139 30.8836L-163.274 280.56C-157.879 288.966-144.393 294.361-136.302 280.56L3.68621 36.1432C13.2164 21.0386 21.9376-0.269535 0 0" fill="#FFCC01" fill-rule="evenodd" transform="matrix(1 0 0 -1.00075 361.899 478.409)"/><path d="M0 0-134.863-233.762 134.863-233.762ZM149.878-257.633-152.89-257.633C-165.791-255.206-165.252-242.483-156.261-226.749L-13.3964 22.9267C-8.00188 31.3331 5.48437 36.7276 13.5761 22.9267L153.564-221.49C163.094-236.46 171.815-257.903 150.057-257.453Z" fill-rule="evenodd" transform="matrix(1 0 0 -1.00075 212.021 220.582)"/><path d="M0 0 269.096 0 134.593 233.313ZM269.726-0.359598-0.539398-0.359598 134.593 234.032 134.593 233.762ZM135.447 264.871C129.673 264.548 124.42 261.426 121.377 256.509L-21.4881 6.83319C-27.5121-3.68621-29.4451-12.4524-26.9727-17.8019-25.262-21.14-21.9818-23.3888-18.2514-23.7807L284.471-23.7807C290.629-23.7807 294.72-22.1625 296.608-18.791 301.104-10.5644 292.113 5.57443 287.842 12.0926L147.81 256.509C145.623 261.288 141.004 264.493 135.762 264.871ZM285.01-24.1403-18.2965-24.1403C-22.1488-23.7585-25.5395-21.436-27.2873-17.9817-29.8496-12.4972-27.8717-3.59631-21.8029 7.01282L121.062 256.689C124.16 261.729 129.539 264.923 135.447 265.23L135.762 265.23C141.153 264.88 145.917 261.6 148.169 256.689L288.337 12.2726C292.517 5.70928 301.823-10.5644 297.328-18.9257 294.547-22.8649 289.774-24.8858 285.01-24.1403" transform="matrix(1 0 0 -1.00075 77.4283 454.431)"/><path d="M0 0 0.494448 85.2333 18.0267 85.2333 18.0267 0.988896 34.0754 14.8799 34.0754-8.90104 10.0248-36.1432-16.5432-8.90104-16.5432 15.3745Z" fill-rule="evenodd" transform="matrix(1 0 0 -1.00075 177.272 403.459)"/><path d="M0 0 26.3882-26.9725 50.2589 0 50.2589 23.3764 34.2102 9.5305 34.2102 93.9096 17.0378 93.9096 16.5432 8.49633 16.2285 8.76619 0 23.8708ZM26.3882-27.5119 26.3882-27.5119-0.359598 0-0.359598 24.6799-0.0449498 24.4102 16.1836 9.35054 16.678 94.4041 34.6597 94.4041 34.6597 10.2945 50.7085 24.1854 50.7085 0Z" transform="matrix(1 0 0 -1.00075 160.908 412.367)"/><path d="M0 0 0-85.1884 18.0267-85.1884 18.0267-0.989059 34.0756-14.8349 34.0756 8.90104 10.025 36.1882-16.543 8.90104-16.543-15.3294Z" fill-rule="evenodd" transform="matrix(1 0 0 -1.00075 227.89 354.377)"/><path d="M0 0 17.6671 0 17.6671 84.4242 33.7158 70.5784 33.7158 93.8645 9.84482 120.837-16.5432 93.8645-16.5432 70.0838-0.0449498 85.5032ZM17.9817-0.359598-0.404712-0.359598-0.404712 84.604-16.9479 69.2297-16.9479 93.9995 9.80004 121.467 33.8954 94.1793 33.8954 69.7691 17.8469 83.615Z" transform="matrix(1 0 0 -1.00075 228.115 439.45)"/><path d="M249.917 25.3991 240.297 25.3991 240.297 21.1285 249.917 21.1285ZM249.917 29.3102 249.917 33.8057 241.6 33.8057 240.297 32.502 240.297 29.535ZM263.403 25.3991 253.558 25.3991 253.558 21.1285 263.403 21.1285ZM263.403 29.3102 263.403 32.2772 262.055 33.5809 253.558 33.5809 253.558 29.0855ZM268.123 0.944109C269.039 1.2702 269.615 2.17933 269.517 3.14681 269.537 3.5597 269.427 3.9685 269.202 4.31567 268.937 4.64846 268.547 4.85932 268.123 4.90002L249.557 4.90002C246.539 4.82172 243.522 5.09322 240.566 5.70912 237.555 6.35999 234.866 8.04618 232.969 10.4743L232.61 12.7671 232.61 33.5809C232.454 33.9744 232.258 34.351 232.025 34.7047 231.455 35.442 230.575 35.8737 229.643 35.8735L224.068 35.8735C223.845 35.9172 223.616 35.9172 223.394 35.8735 222.961 35.672 222.693 35.2269 222.719 34.7496L222.719 32.8166 222.989 32.2771C223.275 31.9309 223.647 31.6671 224.068 31.5129L227.44 31.5129C227.662 31.5566 227.891 31.5566 228.114 31.5129 228.547 31.3114 228.814 30.8663 228.788 30.389L228.788 11.6881C228.564 10.4743 227.305 9.12563 225.012 7.73218 222.72 6.33858 221.82 4.98992 221.82 3.50641 222.035 2.70631 222.793 2.17573 223.619 2.24765 224.321 2.26138 225.012 2.43023 225.641 2.74227 226.209 3.00919 226.714 3.39199 227.125 3.86617L231.081 7.46249C233.259 4.85376 236.28 3.08846 239.622 2.4724 240.611 2.4724 243.848 1.84327 249.333 1.21381ZM232.654 44.5047C233.413 44.0793 233.866 43.2608 233.823 42.3919 233.848 41.872 233.652 41.3659 233.284 40.9985 232.847 40.599 232.238 40.4468 231.665 40.5938L224.698 45.8534C224.66 46.1218 224.66 46.3941 224.698 46.6626L224.698 47.1121C224.647 47.4248 224.647 47.7434 224.698 48.0561 224.659 48.1883 224.659 48.3286 224.698 48.4608 225.101 48.4979 225.508 48.4979 225.911 48.4608 227.252 48.367 228.513 47.7921 229.463 46.8423 230.462 45.924 231.529 45.0827 232.654 44.3249ZM267.134 10.7889 266.46 9.12563C266.153 8.48914 265.648 7.96886 265.021 7.64212 264.396 7.32502 263.7 7.17039 262.999 7.19262 262.101 7.21763 261.21 7.35346 260.346 7.59733L257.874 8.49633C256.975 8.49633 256.525 9.08068 256.525 10.2495 256.522 10.6668 256.647 11.0751 256.885 11.4184 257.298 11.7669 257.829 11.9439 258.368 11.9128 259.062 11.8697 259.745 11.718 260.391 11.4633 260.921 11.2352 261.482 11.0838 262.055 11.0137 262.466 11.0049 262.867 11.1489 263.178 11.4184L263.178 16.9927 253.558 16.9927 253.558 8.49633C253.573 8.05746 253.349 7.6449 252.974 7.41737 252.561 7.14359 252.075 7.00236 251.58 7.01299 251.076 6.99092 250.576 7.11596 250.142 7.37259 249.751 7.60763 249.526 8.04177 249.557 8.49633L249.557 16.9927 240.297 16.9927 240.297 9.12563C239.988 8.496 239.376 8.0707 238.678 8.00172 238.221 8.0246 237.788 8.21699 237.465 8.54128L236.97 9.12563 236.97 34.8845C237.142 35.732 237.665 36.4669 238.409 36.9074 238.795 37.137 239.201 37.3327 239.622 37.4917L251.221 37.4917 251.221 37.8065 246.725 39.7845C245.924 39.9579 245.162 40.2781 244.477 40.7284 243.578 41.268 243.129 41.8524 243.129 42.4818 243.169 42.9668 243.394 43.4176 243.758 43.7404 244.169 43.9748 244.634 44.0985 245.107 44.1002 246.045 44.0108 246.959 43.7519 247.804 43.3359 248.531 42.9707 249.282 42.6552 250.052 42.3919 250.56 42.057 251.151 41.8703 251.76 41.8524 252.642 41.9066 253.481 42.2548 254.142 42.8414L256.66 44.6845 238.678 44.6845C237.869 45.0441 237.42 45.4487 237.375 46.0332 237.33 46.6175 237.375 46.9773 237.375 47.3369 237.53 47.745 237.794 48.1027 238.139 48.3709L238.723 48.6404 262.594 48.6404C263.381 48.3854 264.041 47.8384 264.437 47.1121 264.638 46.7757 264.789 46.4126 264.887 46.0332 262.774 44.3699 260.661 42.8414 258.548 41.5377L255.626 39.6498C255.803 39.3504 255.896 39.0088 255.896 38.6608 255.943 38.4233 255.943 38.1789 255.896 37.9414 255.914 37.8523 255.914 37.7608 255.896 37.6717L264.482 37.6717C265.467 37.5048 266.369 37.0145 267.044 36.2783 267.344 35.9036 267.6 35.4963 267.809 35.0644L267.809 11.1487ZM213.549 0.944109C212.982 0.875295 212.408 0.875295 211.84 0.944109 210.595 1.01113 209.375 1.31629 208.244 1.84311 206.311 2.65237 205.187 3.05675 204.918 3.14681 201.344 4.25683 197.906 5.76485 194.668 7.64212 193.454 8.31653 192.061 9.26064 190.173 10.4293 188.519 9.12596 186.777 7.93944 184.958 6.87797L182.53 5.52932C181.092 5.07982 179.024 4.31567 176.237 3.23671 173.45 2.15775 171.382 1.39361 169.943 0.944109 169.645 0.905861 169.342 0.905861 169.044 0.944109 168.545 0.938879 168.069 1.15251 167.74 1.52846 167.453 1.93693 167.297 2.42271 167.291 2.9219 167.208 3.9528 167.933 4.8737 168.954 5.03487L178.395 8.54128C181.537 9.80216 184.488 11.4969 187.161 13.5761 185.644 14.8751 184.326 16.3898 183.25 18.0716 181.452 21.0385 179.653 23.9605 177.9 27.0624 176.409 25.2933 174.786 23.6403 173.045 22.1174L170.617 20.1844C170.278 19.5118 169.571 19.1055 168.819 19.1504 168.232 19.1421 167.666 19.3686 167.246 19.7799 166.813 20.1509 166.567 20.6936 166.572 21.2632 166.588 21.8507 166.849 22.4045 167.291 22.7918 169.679 24.4525 171.907 26.3339 173.944 28.4111 175.54 29.9841 177.041 31.6502 178.439 33.401L179.968 35.5587C180.438 36.4123 180.979 37.2245 181.586 37.9863 181.981 38.3458 182.491 38.553 183.025 38.5707 183.472 38.5424 183.904 38.4035 184.284 38.1661 184.359 37.735 184.359 37.2936 184.284 36.8624 184.219 35.6089 183.78 34.4034 183.025 33.401 181.811 31.5579 181.137 30.5239 181.092 30.3441 182.351 27.7368 183.699 25.1743 185.003 22.5671 186.409 20.0545 188.36 17.8887 190.712 16.2285 192.858 18.2843 194.745 20.5939 196.331 23.1065 197.56 25.03 198.642 27.0436 199.568 29.1303L200.647 31.6476 198.219 34.2101C197.313 35.0198 196.75 36.1457 196.646 37.3569L196.646 37.3121C196.954 37.9224 197.581 38.3059 198.264 38.3012 198.79 38.2876 199.303 38.1321 199.748 37.8515 200.518 37.3956 201.254 36.8848 201.951 36.323 203.719 34.4051 205.472 32.3371 207.21 30.1195 208.334 28.6809 209.593 26.9727 211.076 24.9945L212.56 22.9267C212.955 22.6487 213.189 22.1959 213.189 21.7129 213.159 21.2253 212.932 20.7709 212.56 20.4543 212.211 20.081 211.722 19.8693 211.211 19.8699 211.005 19.8167 210.788 19.8167 210.582 19.8699 209.176 20.8603 207.958 22.0934 206.986 23.511 205.944 24.9839 204.819 26.395 203.614 27.737 202.695 24.9627 201.393 22.3301 199.748 19.9147 198.598 18.1431 197.337 16.4464 195.972 14.8349 195.386 14.134 194.739 13.4872 194.039 12.9019 196.468 11.1373 199.074 9.63054 201.816 8.40643 203.254 7.77697 205.952 6.69818 209.953 5.25962 210.965 5.25553 211.963 5.02506 212.875 4.58537 213.696 4.31011 214.266 3.56182 214.313 2.69715 214.268 2.0641 214.016 1.4634 213.594 0.989059ZM211.886 40.2789 169.449 40.2789C168.783 40.6882 168.349 41.3883 168.28 42.1672 168.234 42.8712 168.497 43.5601 168.999 44.0552 169.099 44.1806 169.221 44.2873 169.359 44.3699L188.284 44.3699 188.284 47.9662 188.599 48.9552C189.124 49.2365 189.713 49.376 190.308 49.3598 190.726 49.3729 191.137 49.2464 191.476 49.0002 191.787 48.7501 191.955 48.3637 191.926 47.9662L191.926 44.3699 211.796 44.3699C212.53 43.8625 212.955 43.0145 212.919 42.1222 212.959 41.3787 212.5 40.6992 211.796 40.4588ZM143.735 16.0038 143.735 29.3102 142.701 30.6138 128.54 30.6138C128.132 30.4586 127.774 30.1943 127.506 29.8496 127.38 29.6902 127.289 29.5065 127.237 29.3102L127.237 16.1836C127.404 15.7823 127.666 15.4276 128.001 15.1496L128.54 14.8349 142.791 14.8349 143.465 15.5092 143.825 16.1386ZM147.691 12.7671 147.691 32.8166C147.6 33.1341 147.463 33.4369 147.286 33.7158 146.931 34.275 146.363 34.6646 145.713 34.7946L124.809 34.7946 124.09 34.3001C123.663 33.8868 123.339 33.3784 123.146 32.8166L123.146 12.857C123.424 12.0075 124.02 11.2987 124.809 10.8788L146.028 10.8788C146.292 11.0044 146.535 11.1711 146.747 11.3733 147.211 11.7551 147.542 12.2747 147.691 12.857ZM156.682 5.21467C156.296 3.62083 155.272 2.2555 153.849 1.43856 153.18 1.08517 152.471 0.813346 151.737 0.629297L149.669 0.629297 146.387 0.944109C145.329 1.26546 144.293 1.65579 143.285 2.1128 141.982 2.74227 141.352 3.55136 141.352 4.49531 141.37 4.98044 141.493 5.45576 141.712 5.88908 142.175 6.04975 142.66 6.1408 143.15 6.15878 144.352 5.98159 145.529 5.66482 146.657 5.21467 147.298 4.95559 147.99 4.84804 148.68 4.90002L150.658 4.90002C151.243 5.04696 151.773 5.359 152.186 5.79902 152.367 6.0272 152.533 6.26764 152.681 6.51838L152.681 38.4808C152.52 38.8984 152.238 39.2583 151.872 39.5148 151.712 39.6408 151.529 39.7325 151.332 39.7845L119.549 39.7845C119.072 39.8139 118.619 39.5701 118.381 39.1552L118.381 38.4808 118.381 1.12375C117.952 0.462574 117.234 0.0452767 116.448 0 115.798 0.0111149 115.181 0.287188 114.739 0.764147 114.608 0.871863 114.487 0.992492 114.38 1.12375L114.38 42.0771C114.729 42.6142 115.171 43.0859 115.683 43.4709L116.043 43.7404 130.653 43.7404 132.631 47.3369C133.26 48.1909 133.71 48.8652 134.07 49.2699 134.542 50.0085 135.407 50.3969 136.272 50.2589 137.016 49.9188 137.503 49.1877 137.531 48.3707 137.469 47.5623 137.19 46.7857 136.722 46.1231L135.283 43.7406 154.839 43.7406C155.4 43.5469 155.909 43.2236 156.322 42.7965 156.514 42.5765 156.68 42.335 156.817 42.0771L156.817 5.39447ZM95.4539 39.6047C95.4204 39.9936 95.4204 40.3847 95.4539 40.7736 95.654 41.4333 95.7894 42.1106 95.8585 42.7965 95.8652 43.1593 95.7719 43.5171 95.5888 43.8305 95.3598 44.1558 95.0268 44.3936 94.6447 44.5047L86.1483 44.5047C86.1658 40.5804 86.5572 36.6668 87.3172 32.8166 88.0885 28.9179 89.3735 25.1389 91.1383 21.578 92.1818 24.5177 93.0376 27.5207 93.7007 30.569 94.2401 32.7267 94.6898 35.0643 95.0494 37.3121 95.0494 38.256 95.2741 39.1552 95.409 40.0542ZM79.8997 15.3743 78.1465 18.3863C76.8509 20.5144 75.4403 22.5704 73.9209 24.545 74.3471 25.3744 74.6788 26.2489 74.9099 27.1525 75.719 29.49 76.3933 31.6478 76.9778 33.9405 77.7436 36.8902 78.2697 39.8968 78.5512 42.9315L78.5512 45.2241C78.5193 45.7167 78.4132 46.2017 78.2365 46.6626 77.78 47.602 76.9188 48.2808 75.8988 48.5057L59.9402 48.5057 59.4006 48.236C59.0559 47.9678 58.7916 47.6102 58.6365 47.202L58.6365 45.8983C58.6365 45.3588 59.086 44.9093 59.895 44.5497L73.3815 44.5497C73.6294 44.3494 73.8555 44.1236 74.0557 43.8754 74.4078 43.2965 74.5207 42.6031 74.3704 41.9424 74.1906 40.3241 74.0108 38.9754 73.831 37.8965 73.2772 34.8827 72.3406 31.9518 71.0437 29.1754L64.2557 39.1552C63.8874 39.4158 63.448 39.557 62.9969 39.5598 62.4189 39.5696 61.8524 39.3966 61.3786 39.0651 60.9413 38.7734 60.6731 38.2873 60.6594 37.7616 60.6375 37.5674 60.6375 37.3714 60.6594 37.1772 60.7718 36.9296 60.9237 36.7018 61.1089 36.503L63.7163 32.8166C65.5594 29.9846 67.2676 27.1525 68.7511 24.4102L67.4025 21.578C66.2477 19.1775 64.9724 16.8369 63.5813 14.5652 61.8446 11.5011 59.8599 8.58427 57.6474 5.84397 57.3798 5.44546 57.2388 4.97554 57.2428 4.49531 57.2631 3.89592 57.522 3.32939 57.962 2.9219 58.3816 2.51081 58.948 2.28427 59.5354 2.29277 60.227 2.30666 60.8738 2.63814 61.2887 3.19176 61.2887 3.19176 61.873 4.04581 62.952 5.66433 64.0309 7.28252 65.7392 9.93489 66.8631 11.8679 68.4814 14.5652 70.0547 17.3073 71.3586 20.2294 72.1227 19.2403 72.707 18.3863 73.1567 17.712 74.4114 15.8876 75.567 13.9966 76.6182 12.0477 77.0484 11.7643 77.5432 11.5943 78.0567 11.5532 78.6663 11.5443 79.2521 11.7885 79.6749 12.2275 80.1215 12.6263 80.3685 13.2025 80.3493 13.8009 80.3325 14.3884 80.072 14.942 79.6301 15.3295ZM102.377 6.38353C102.824 6.06365 103.078 5.5388 103.051 4.98992 103.056 4.47357 102.863 3.97503 102.512 3.59631 102.128 3.19209 101.585 2.97813 101.028 3.01196L100.399 3.01196C98.2526 3.99661 96.4178 5.55171 95.0943 7.50744L90.5989 13.4863 83.631 6.29363C82.4172 5.03487 81.4731 4.04581 80.8438 3.46146 79.909 2.41961 78.6001 1.78949 77.2025 1.70826L76.8429 1.70826C75.9438 1.70826 75.4943 2.29277 75.4943 3.46146 75.4746 3.99416 75.5989 4.52195 75.8539 4.99008 78.2217 6.57787 80.4477 8.36786 82.5071 10.3394 84.0916 11.8761 85.5923 13.4967 87.0026 15.1945L88.576 17.3073C86.7172 21.436 85.2861 25.744 84.3052 30.1643 83.5432 33.5157 82.9729 36.9077 82.597 40.3241 82.597 41.7175 82.3722 43.1111 82.2374 44.4598L79.9448 44.8194C79.7601 45.2288 79.6681 45.6741 79.6749 46.1231 79.6712 46.8637 79.9623 47.5755 80.4842 48.1012L80.9337 48.4157 96.8475 48.4157C97.8328 48.2558 98.7269 47.7449 99.3649 46.9773 99.6782 46.6197 99.9497 46.2275 100.174 45.8084L100.174 43.5158C99.631 39.1905 98.8505 34.8984 97.8366 30.6589 97.0273 27.3323 96.1283 24.0506 95.1842 20.9038 94.2401 17.757 93.9255 16.9479 93.8805 16.9479 95.3858 14.1559 97.2276 11.5591 99.3649 9.21569 100.174 8.36164 101.208 7.37259 102.467 6.15878Z" fill-rule="evenodd" transform="matrix(1 0 0 -1.00075 49.0461 553.18)"/></g></svg>