<svg width="328" height="290" xmlns="http://www.w3.org/2000/svg" xmlns:xlink="http://www.w3.org/1999/xlink" xml:space="preserve" overflow="hidden"><defs><clipPath id="clip0"><rect x="196" y="53" width="328" height="290"/></clipPath></defs><g clip-path="url(#clip0)" transform="translate(-196 -53)"><path d="M0 0-303.054 0C-315.968 2.42992-315.428 15.1641-306.429 30.9129L-163.429 280.826C-158.029 289.24-144.53 294.64-136.431 280.826L3.68971 36.1775C13.2289 21.1936 21.9584-0.269955 0 0" fill="#FFCC01" fill-rule="evenodd" transform="matrix(1.0023 0 0 -1 509.885 342.466)"/><path d="M0 0-134.991-233.984 134.991-233.984ZM150.02-257.877-153.035-257.877C-165.949-255.448-165.409-242.713-156.409-226.964L-13.409 22.9484C-8.00947 31.3628 5.48957 36.7624 13.589 22.9484L153.709-221.7C163.249-236.684 171.978-258.147 150.2-257.697Z" fill-rule="evenodd" transform="matrix(1.0023 0 0 -1 359.52 84.5886)"/><path d="M0 0 269.351 0 134.721 233.534ZM269.982-0.359939-0.539909-0.359939 134.721 234.254 134.721 233.984ZM135.576 265.122C129.796 264.798 124.538 261.674 121.492 256.752L-21.5085 6.8395C-27.5381-3.68987-29.473-12.4642-26.9982-17.8188-25.2859-21.16-22.0026-23.4111-18.2687-23.8034L285.28-23.8034C291.265-23.8034 295.225-22.1386 297.07-18.8088 301.569-10.5744 292.57 5.57955 288.295 12.1041L147.95 256.752C145.761 261.536 141.137 264.744 135.891 265.122ZM285.28-24.1634-18.3139-24.1634C-22.1698-23.7812-25.5637-21.4565-27.3132-17.9988-29.8779-12.5092-27.8981-3.59972-21.8236 7.01947L121.177 256.932C124.278 261.977 129.662 265.174 135.576 265.482L135.891 265.482C141.287 265.131 146.056 261.848 148.31 256.932L288.61 12.2841C292.795 5.71469 302.109-10.5744 297.609-19.2137 294.754-23.0466 289.993-24.958 285.28-24.1634" transform="matrix(1.0023 0 0 -1 224.489 318.482)"/><path d="M0 0C16.6488 4.18479 28.7079 3.86968 30.7328-6.34459L59.3509-8.95431C72.4335-12.064 86.0931-11.7852 99.0381-8.14445 111.874-6.40512 124.88-6.32953 137.736-7.91948 145.025-13.679 149.12-24.5683 146.285-46.9768 152.074-52.2864 152.809-58.721 148.49-66.2804 146.735-63.2656 144.53-68.5753 143.135-57.2809L140.3-44.142 137.645-52.1063 142.145-57.596 142.505-75.1449 143.27-82.3443 137.376-93.5936 127.206-92.7835C132.021-81.9394 133.281-72.8049 128.016-67.4953L122.167-82.2093 120.412-89.7237 109.073-90.0837C114.292-82.7942 117.397-75.5048 115.822-68.1702 109.657-71.0951 103.448-68.9803 97.2383-59.6658 90.1493-61.3232 82.7736-61.3232 75.6848-59.6658 65.0654-57.956 68.7553-65.4255 65.2904-68.3504L66.0104-84.2342C65.5153-91.1636 61.1058-93.6385 52.7813-91.7037L38.7422-92.4686C36.8074-91.5236 37.6624-89.8587 39.8672-87.969 46.3468-85.854 45.3569-73.3898 45.8969-62.9956 37.7374-61.7357 35.2174-58.2709 38.3373-52.6014L19.3037-30.1029 0.404932-28.9331C-9.76434-23.5333-9.31441-18.6737 1.84485-14.3989L10.1693-4.72453ZM56.651-71.9951C53.9755-76.1939 52.7872-81.1693 53.2763-86.124L58.2709-79.8244 56.7412-71.9951Z" fill-rule="evenodd" transform="matrix(1.0023 0 0 -1 289.614 210.85)"/><path d="M0 0C-2.42746-3.95115-3.57485-8.55592-3.28477-13.1841L1.2148-7.33458ZM-3.55489-14.1289-3.55489-13.679C-3.97259-8.66881-2.74012-3.65944-0.0449924 0.584902L0.224962 0.944841 1.88985-7.42457ZM70.9151-20.3387 80.6344-21.1486 86.4389-10.0343 85.6741-2.7447 85.3141 14.714 80.8144 20.2487 83.7842 29.158 86.7091 15.3439C87.6091 7.91932 88.8689 7.78451 90.0387 7.60437 90.779 7.59799 91.4689 7.22807 91.8835 6.61454 96.137 12.5328 95.1176 20.7276 89.5439 25.4233 92.0637 45.3568 89.5439 57.686 81.0845 64.2556 68.2756 65.8622 55.3114 65.7866 42.5219 64.0306 29.5461 60.3919 15.8581 60.1133 2.7447 63.2207L-25.7833 66.0104C-26.2707 68.7447-27.9095 71.1376-30.283 72.58-34.7826 75.5498-43.4221 75.4598-56.0211 72.31L-46.1218 67.8103-54.5362 58.0909C-60.0709 55.9311-62.9958 53.5914-63.1307 51.2964-63.2657 49.0017-60.8358 46.5267-55.9761 43.917L-37.0325 42.7469-17.9088 20.2486C-19.1419 18.4894-19.4439 16.2413-18.7188 14.2189-17.7288 12.1941-14.939 10.7993-10.4844 10.1243L-10.4844 4.81468C-10.4844-4.18479-10.9343-13.1841-16.4239-14.9839-17.9538-16.3789-18.6287-17.4139-18.5388-18.2239-18.4166-18.7051-18.0619-19.0935-17.5938-19.2587L-3.59972-18.4938C-0.283534-19.7134 3.40061-19.4176 6.47956-17.6838 8.39084-16.0785 9.48097-13.7001 9.44923-11.2043L8.68436 4.76952C9.69169 5.79159 10.3258 7.12304 10.4844 8.54938 11.2493 11.5642 11.9691 14.624 19.4837 13.4539 26.5423 11.7975 33.8886 11.7975 40.947 13.4539 46.7519 4.72453 52.7813 1.97983 59.3509 4.99449 60.7458-1.48491 58.6308-8.50439 52.7813-16.739L63.6257-16.3789 65.3355-8.99947 71.41 5.3096C76.4946 0.17997 76.2697-8.0543 70.9151-20.3387M80.8594-21.3285 80.8594-21.3285 70.3752-20.3387C75.5948-8.59437 75.9547-0.224962 71.455 4.54456L65.6955-9.85432 63.8956-17.5037 52.0613-17.8638 52.0613-17.5938C57.956-9.31441 60.1159-2.47491 58.8558 3.95966 52.1963 0.989997 46.1217 3.95966 40.2721 12.5092 33.1988 10.8491 25.8371 10.8491 18.7638 12.5092 11.8791 13.5892 11.1593 10.7993 10.4392 8.00947 10.2375 6.54713 9.59386 5.18116 8.59437 4.09464L9.31441-11.7442C9.34975-14.3599 8.21022-16.8535 6.20961-18.5388 3.04672-20.3099-0.729041-20.6217-4.13979-19.3937L-18.1787-20.1586C-18.761-19.9202-19.1954-19.4189-19.3487-18.8088-19.3487-17.8638-18.7638-16.739-17.0989-15.2539-11.7892-13.544-11.5642-4.49973-11.3392 4.22978L-11.3392 9.40423C-15.839 10.0793-18.6287 11.5192-19.6637 13.634-20.458 15.8694-19.9943 18.359-18.4487 20.1586L-37.3475 42.6571-56.2463 43.8719C-61.2857 46.5267-63.7606 49.1366-63.6257 51.5664-63.4907 53.9963-60.6108 56.4711-54.8513 58.676L-46.7069 68.1252-57.1461 72.625-56.6062 72.625C-43.782 75.9547-34.7826 76.0897-30.283 72.9849-27.8948 71.537-26.253 69.1234-25.7833 66.3704L2.7447 63.7606C15.7974 60.6526 29.4275 60.9314 42.3421 64.5705 55.1916 66.3264 68.2152 66.4019 81.0845 64.7955 89.4988 58.1809 92.2886 45.7169 89.7237 25.6931 95.5284 20.3387 96.2483 13.769 91.9287 6.20944L91.9287 5.93965 91.9287 6.20944C91.5918 6.86944 90.9148 7.28615 90.1736 7.28943 88.7789 7.28943 87.4739 7.64937 86.5289 15.3439L83.8292 27.7629 81.4445 20.5637 85.944 15.0739 86.304-2.5199 86.7091-9.94431Z" transform="matrix(1.0023 0 0 -1 346.305 283.295)"/><path d="M0 0 0 4.90466-13.9491 4.90466-13.9491 1.30494C-13.7768 0.905738-13.5151 0.551689-13.1841 0.269791L-12.5992-0.000163609ZM0 8.9993 0 13.2741-12.5992 13.2741C-13.0926 13.3196-13.5615 13.0491-13.769 12.599-13.8128 12.3762-13.8128 12.147-13.769 11.9241L-13.769 8.9993ZM16.9188 1.43992 16.9188 5.03964 3.95966 5.03964 3.95966 0.134977 15.614 0.134977C15.9725 0.314783 16.3054 0.541872 16.6037 0.809864ZM16.9188 8.9993 16.9188 11.9241C16.9643 12.4176 16.694 12.8865 16.2439 13.0941L15.614 13.0941 3.95966 13.0941 3.95966 8.81933ZM20.8784-1.48491C20.8935-2.12577 20.5903-2.73227 20.0686-3.10497L19.2587-3.46491-15.614-3.46491C-16.543-3.55407-17.4207-3.02382-17.7738-2.15996-17.833-1.72705-17.833-1.28793-17.7738-0.85502L-17.7738 15.0739C-17.5472 15.7552-17.0626 16.3206-16.424 16.6488L-15.4789 17.0538 18.7186 17.0538C19.4989 16.9209 20.1857 16.4628 20.6085 15.7938 20.7819 15.4651 20.9179 15.1179 21.0134 14.7588L21.0134-1.61989ZM25.3782 16.1989C25.4374 16.6017 25.4374 17.0109 25.3782 17.4139 25.2643 18.7591 24.674 20.0195 23.7133 20.9684 22.7866 21.9182 21.9576 22.9582 21.2384 24.0734L16.2437 30.9579C15.7734 31.2571 15.2263 31.4134 14.6688 31.4078 14.1085 31.4373 13.5543 31.2791 13.0939 30.9579 12.696 30.6659 12.4752 30.1902 12.509 29.6979L12.509 28.9779 16.2437 24.0734 2.33977 23.3984-0.989997 23.3984C0.584902 24.5683 1.88985 25.5132 2.87984 26.3232 5.74283 28.5324 8.43518 30.954 10.9341 33.5676 10.8718 33.8953 10.766 34.2131 10.6192 34.5125 10.3224 35.1067 9.70838 35.4751 9.04429 35.4576 8.68648 35.5126 8.32229 35.5126 7.96448 35.4576L0.314947 29.2029-5.98465 24.0734-19.8888 24.0734C-20.8284 23.7756-21.417 22.845-21.2835 21.8684-21.3035 21.4552-21.1932 21.046-20.9686 20.6986-20.7091 20.3641-20.3119 20.1653-19.8888 20.1586L2.33977 20.1586 9.44939 20.1586 16.6037 20.1586 18.2237 20.1586C19.1804 19.2973 20.0542 18.3482 20.8336 17.3237 21.5399 16.3403 22.6417 15.7154 23.8484 15.614 24.3095 15.6341 24.7648 15.7251 25.1982 15.8838ZM23.7133 38.1573 2.33977 38.1573C0.630058 36.6274-0.989997 35.0975-2.5649 33.6576L-4.63471 31.4078-3.64471 30.4178C-3.2532 30.1243-2.9942 29.6873-2.92483 29.2029-2.9412 28.6541-3.25009 28.1563-3.7347 27.8981-4.28213 27.538-4.92462 27.35-5.57971 27.358-6.07938 27.3637-6.56562 27.5206-6.97448 27.8081L-14.9391 32.3077C-15.8583 32.3296-16.5857 33.0923-16.5639 34.0117-16.5631 34.0436-16.5616 34.0756-16.5588 34.1077-16.5618 34.743-16.3201 35.3554-15.884 35.8174-15.4921 36.3105-14.8935 36.5931-14.2641 36.5824L-8.27942 33.6124-2.96983 38.1122-19.5737 38.1122C-19.9887 38.1431-20.3682 38.3576-20.6087 38.6971-20.8464 39.0407-20.9722 39.4494-20.9686 39.8672-21.0836 40.8395-20.5017 41.7595-19.5737 42.0718L0 42.0718 0 44.6819C0.418675 45.3609 1.13904 45.7964 1.93484 45.8517 2.58077 45.8214 3.19168 45.5482 3.64471 45.0868L3.95966 44.6819 3.95966 42.072 23.7133 42.072C24.4096 41.6708 24.8515 40.9402 24.8833 40.1372 24.8705 39.5001 24.5933 38.897 24.1182 38.4723L23.7133 38.1122ZM-58.3161 18.8086C-58.219 19.4305-58.3817 20.065-58.766 20.5635-59.0664 21.0496-59.5898 21.3536-60.1609 21.3735-60.6256 21.393-61.0676 21.172-61.3307 20.7885L-63.9856 19.1686-63.9856 30.9579-60.9708 30.9579C-60.7627 30.9198-60.5492 30.9198-60.3409 30.9579-59.907 31.1595-59.6397 31.6051-59.666 32.0827L-59.666 33.7477C-59.7377 33.9362-59.8281 34.117-59.936 34.2875-60.2043 34.6327-60.5623 34.8973-60.9708 35.0525L-63.9856 35.0525-63.9856 44.052C-64.0918 44.5931-64.3969 45.0746-64.8405 45.4019-65.2289 45.7725-65.7436 45.9816-66.2804 45.9868-67.0884 46.0448-67.8085 45.4801-67.9453 44.6819L-67.9453 35.1875-70.6001 35.1875-70.6001 36.5374-70.6001 38.7872-70.6001 42.387C-71.0151 42.6078-71.4802 42.7163-71.9501 42.7021-72.5047 42.74-73.0528 42.5628-73.48 42.2071-73.8895 41.8503-74.0636 41.2937-73.9299 40.7672-73.9299 39.8222-73.9299 38.9222-74.1549 38.0224-74.335 36.1926-74.6048 33.7176-74.9647 30.598-75.3698 27.4482-75.7748 24.5233-76.2698 21.5985-75.9745 21.2938-75.6231 21.0494-75.2349 20.8784-74.9305 20.7119-74.5915 20.6193-74.2449 20.6085-73.6312 20.5905-73.088 21.0026-72.9399 21.5985-72.175 24.6583-71.365 27.7181-70.6001 30.598L-67.9453 30.598-67.9453 16.1538-75.0999 11.9241C-76.5262 11.0191-77.8143 9.91273-78.9246 8.63936-78.952 8.40017-78.952 8.15852-78.9246 7.91932-78.9496 7.39904-78.7536 6.89235-78.3847 6.52456-78.0375 6.15251-77.5426 5.95471-77.0347 5.98448-76.6057 5.99904-76.1875 6.12306-75.8198 6.34442L-67.8553 11.2491-67.8553-2.92483-67.5403-3.28477C-67.0873-3.74615-66.4764-4.01938-65.8305-4.04981-65.0409-4.01185-64.3192-3.59219-63.8956-2.92483L-63.8956 13.499-62.0508 15.0288C-60.702 16.1799-59.4247 17.4121-58.2261 18.7186ZM-30.148-1.48508C-30.2918-1.89966-30.5587-2.26075-30.9129-2.5199L-31.4528-2.83485-58.946-2.83485C-59.6243-2.29216-59.9939-1.45186-59.936-0.585065-60.0598 0.230034-59.6655 1.03679-58.946 1.43976L-47.0218 1.43976-47.0218 16.5137-55.6164 16.5137C-56.0291 16.6843-56.3982 16.9456-56.6962 17.2786L-56.9663 17.8636-56.9663 19.5737C-56.842 19.9637-56.5663 20.288-56.2013 20.4735L-55.6164 20.4735-47.0218 20.4735-47.0218 33.0727-53.6364 33.0727C-54.1202 31.0837-54.7366 29.1296-55.4812 27.2232-55.8112 26.2982-56.2021 25.3965-56.6512 24.5233-57.0728 23.8658-57.8051 23.4741-58.586 23.4882-59.1806 23.4918-59.7483 23.7351-60.1609 24.1632-60.5701 24.6135-60.7375 25.2332-60.6108 25.8281-59.6208 28.528-58.676 31.4078-57.8661 34.4226-57.2361 36.6724-56.6512 38.9222-56.2013 41.1272L-55.6162 43.8719C-55.6334 44.2884-55.4277 44.6827-55.0763 44.907-54.7134 45.1793-54.2697 45.3218-53.8163 45.3118-53.3121 45.337-52.8159 45.177-52.4214 44.8619-52.0517 44.5368-51.8807 44.0409-51.9715 43.5571L-51.9715 41.5771C-52.1375 40.8808-52.2578 40.1743-52.3314 39.4621-52.3965 38.737-52.5016 38.0158-52.6464 37.3023L-47.0218 37.3023-47.0218 45.0418C-47.0329 45.5755-46.7805 46.0804-46.3468 46.3918L-45.6719 46.7069-43.782 46.7069C-43.301 46.7463-42.8485 46.4749-42.6572 46.0318-42.6191 45.8236-42.6191 45.61-42.6572 45.4019L-42.6572 37.1675-32.7128 37.1675C-32.1858 37.1971-31.6788 36.9604-31.3628 36.5374-31.2233 36.3303-31.1168 36.1026-31.048 35.8624L-31.048 34.2427C-31.3628 33.753-31.7962 33.3507-32.3078 33.0727L-32.7128 33.0727-42.7021 33.0727-42.7021 20.9236-32.7578 20.9236C-32.3458 20.9108-31.9564 20.7323-31.6778 20.4285L-31.408 19.9336-31.408 17.9988C-31.5621 17.577-31.8262 17.2041-32.1729 16.9188L-32.7578 16.6488-42.7021 16.6488-42.7021 1.5749-31.7679 1.5749C-31.2422 1.59649-30.739 1.36155-30.418 0.944841-30.2958 0.728386-30.1902 0.502606-30.1029 0.269791L-30.1029-1.34994ZM-94.0436 17.8638-122.212 17.8638C-122.362 17.2023-122.249 16.5083-121.897 15.9288L-121.222 15.2087-95.3484 15.2087C-94.5386 15.5688-94.0886 15.9738-94.0886 16.5139L-94.0886 17.8638ZM-94.0436 21.4633-94.0436 21.7783C-94.0039 22.2593-94.2757 22.7118-94.7185 22.9033-94.9414 22.947-95.1706 22.947-95.3936 22.9033L-121.222 22.9033C-121.655 22.7501-121.99 22.399-122.122 21.9584L-122.122 21.2834ZM-101.018 38.1573-114.967 38.1573C-114.967 37.6173-114.652 37.1222-114.517 36.6274-113.977 34.9176-113.662 34.0175-113.617 33.9276L-102.278 33.9276-100.928 38.1573ZM-122.257 7.01931-128.511-2.92483C-128.564-3.40388-128.808-3.84137-129.186-4.13979-129.551-4.44509-130.015-4.60526-130.491-4.58972-131.017-4.61835-131.534-4.44083-131.931-4.09464-132.335-3.78313-132.568-3.29966-132.561-2.78986-132.592-2.6112-132.592-2.42861-132.561-2.24995L-128.556 3.95966-126.261 7.60437C-126.197 8.09258-125.957 8.54038-125.586 8.86433-125.193 9.14344-124.719 9.28562-124.237 9.26926-123.711 9.29331-123.196 9.11628-122.797 8.77434-122.404 8.45808-122.186 7.97282-122.212 7.4694-122.183 7.29057-122.183 7.10831-122.212 6.92949ZM-95.2584 5.03964C-95.6158 5.28358-96.0408 5.4094-96.4734 5.39958-96.9194 5.40449-97.3574 5.27949-97.7334 5.03964-98.0422 4.80355-98.2248 4.43822-98.2283 4.04965-98.606 3.30113-99.0583 2.59255-99.5782 1.93467-100.664 0.563469-102.329-0.219399-104.078-0.180133L-113.572-0.180133-114.427-0.180133C-115.615 0.106509-116.485 1.12203-116.587 2.33977L-116.587 8.32442C-116.752 8.74178-117.053 9.0906-117.442 9.31441-117.862 9.5721-118.344 9.71198-118.837 9.71918-119.676 9.82144-120.438 9.22443-120.541 8.38561-120.543 8.36532-120.545 8.34487-120.547 8.32442L-120.547 2.11481C-120.36 1.14003-120.027 0.199276-119.557-0.67505-118.569-2.46804-116.653-3.54818-114.607-3.46491L-102.638-3.46491C-100.684-3.49272-98.8017-2.73014-97.4184-1.34994-95.9867-0.084913-95.1673 1.73425-95.1685 3.64455-95.1081 4.10756-95.1081 4.57663-95.1685 5.03964ZM-103.538 3.73453C-103.304 3.40634-103.178 3.01302-103.178 2.60972-103.178 2.1971-103.379 1.8105-103.718 1.57473-104.069 1.27615-104.517 1.11614-104.978 1.12481-105.403 1.12154-105.822 1.23034-106.193 1.43976-106.974 2.78724-107.846 4.08008-108.803 5.30943-109.118 5.75952-109.612 6.34442-110.197 7.01931-110.432 7.43078-110.556 7.89592-110.558 8.36924-110.594 8.94891-110.361 9.5132-109.927 9.89915-109.429 10.2833-108.789 10.4312-108.173 10.3041L-103.673 3.73453ZM-90.0388 13.9038C-90.3852 12.9809-91.1036 12.2461-92.0187 11.879L-93.3686 11.6092-123.562 11.6092C-124.37 11.7607-125.093 12.2103-125.586 12.869-125.83 13.1923-126.041 13.539-126.216 13.904L-126.216 24.3882C-126.236 24.6128-126.236 24.8386-126.216 25.0631-126.182 25.2718-126.182 25.4847-126.216 25.6931-125.712 26.2137-125.097 26.6136-124.416 26.8631L-123.922 26.8631-93.2786 26.8631C-92.2196 26.9033-91.2153 26.3926-90.6237 25.5132-90.3346 25.1146-90.1071 24.6747-89.9489 24.2082L-89.9489 13.724ZM-87.024 2.11481C-86.519 1.64672-86.0934 1.09961-85.7642 0.494753-85.4033-0.104382-85.2019-0.785977-85.1792-1.48508-85.15-1.97983-85.3492-2.46051-85.7191-2.79002-86.2055-3.12346-86.8033-3.25287-87.3841-3.14996L-95.6634 6.70452C-96.0973 6.90609-96.3646 7.35176-96.3384 7.82934-96.3386 8.38348-96.0703 8.90343-95.6186 9.22426-95.1776 9.6166-94.5723 9.76794-93.9987 9.62903-92.6476 8.55985-91.411 7.35356-90.3088 6.02948L-87.024 2.11464ZM-86.3941 29.9679-130.176 29.9679C-130.629 29.9461-131.059 30.1695-131.301 30.5528-131.547 30.9757-131.672 31.4584-131.661 31.9477-131.701 32.4397-131.574 32.931-131.301 33.3427-131.073 33.7414-130.633 33.9703-130.176 33.9276L-117.262 33.9276C-117.262 34.1975-117.577 34.6924-117.847 35.4575-118.117 36.2223-118.702 37.7971-118.882 38.1573L-128.196 38.1573C-128.88 38.4679-129.307 39.1619-129.276 39.912-129.306 40.7811-128.901 41.6077-128.196 42.117L-110.197 42.117-110.197 45.4018C-110.013 45.8204-109.697 46.1678-109.298 46.3916-108.868 46.621-108.39 46.7443-107.903 46.7517-107.064 46.8563-106.3 46.2612-106.195 45.4227-106.194 45.4158-106.193 45.4088-106.193 45.4018L-106.193 42.072-88.194 42.072C-87.7527 41.905-87.3858 41.5859-87.159 41.172-86.9245 40.7608-86.8007 40.2957-86.7991 39.8221-86.6968 38.9834-87.294 38.2207-88.1328 38.1186-88.1531 38.1161-88.1735 38.114-88.194 38.1123L-97.1934 38.1123C-97.3165 37.5948-97.4665 37.0841-97.6434 36.5824-98.1833 34.8726-98.4532 33.9727-98.4982 33.8827L-86.5741 33.8827C-86.1251 33.8868-85.7035 33.6676-85.4491 33.2978-85.1882 32.881-85.0625 32.3937-85.0892 31.9027-85.0528 31.3967-85.179 30.8923-85.4491 30.4628-85.696 30.0893-86.1283 29.882-86.5741 29.9231ZM-174.543 17.1887C-175.623 14.009-176.928 10.7242-178.458 7.33442-179.718 4.58955-180.843 2.20479-181.878 0.17997-182.258-0.891014-182.724-1.92944-183.272-2.92483-183.7-3.32437-184.262-3.54917-184.847-3.55489-185.358-3.57174-185.856-3.39488-186.242-3.05981-186.577-2.64294-186.709-2.09877-186.602-1.5749-185.117 1.48475-183.677 4.54456-182.102 7.64953-181.383 9.22443-180.348 11.654-178.998 14.849L-177.783 17.7738C-177.533 18.5956-176.75 19.1367-175.893 19.0786-175.388 19.091-174.9 18.8958-174.543 18.5388-174.174 18.1575-174.022 17.6164-174.138 17.0988ZM-160.279 34.5576-160.279 21.7785-171.213 21.7785-171.618 21.4633C-172.08 21.0103-172.353 20.3997-172.383 19.7535-172.329 18.9693-171.891 18.2623-171.213 17.8638L-160.279 17.8638-160.279 2.11481-175.533 2.11481C-176.439 1.77548-177.01 0.874489-176.928-0.0899848-176.931-0.507842-176.806-0.916537-176.568-1.25995-176.319-1.5906-175.944-1.80264-175.533-1.84485L-141.695-1.84485C-140.853-1.77646-140.226-1.03843-140.294-0.196167-140.296-0.175716-140.298-0.155428-140.3-0.134977-140.302 0.34456-140.442 0.81379-140.705 1.21496-140.904 1.6338-141.259 1.95725-141.695 2.11481L-156.274 2.11481-156.274 17.8638-144.665 17.8638C-143.755 18.1725-143.177 19.0671-143.27 20.0236-143.257 20.4426-143.384 20.8542-143.63 21.1936-143.879 21.5242-144.254 21.7361-144.665 21.7785L-156.274 21.7785-156.274 34.5576-142.325 34.5576-141.965 34.8726C-141.492 35.3172-141.216 35.9331-141.2 36.5824-141.246 37.3697-141.663 38.0885-142.325 38.5173L-156.274 38.5173-156.274 44.7269-156.274 45.132C-156.727 45.5934-157.338 45.8666-157.984 45.8967-158.78 45.8414-159.5 45.4059-159.919 44.7269L-159.919 38.5173-172.563 38.5173-172.923 38.1573C-173.398 37.7326-173.675 37.1294-173.688 36.4925-173.65 35.7029-173.231 34.9812-172.563 34.5576ZM-185.162 41.127-185.477 42.072C-185.549 42.9226-184.998 43.7011-184.172 43.917-183.724 43.9759-183.271 43.9759-182.823 43.917L-175.173 37.6623C-174.756 37.3413-174.521 36.838-174.543 36.3125-174.611 35.1713-175.59 34.3009-176.732 34.3685-176.767 34.3706-176.803 34.3737-176.838 34.3775-178.683 35.6374-180.573 37.0774-182.598 38.8772L-185.162 41.0822ZM-186.827 28.9779-187.142 29.9679C-187.317 30.6948-186.986 31.4495-186.332 31.8127-185.974 32.0356-185.577 32.1881-185.162 32.2627L-175.848 24.7483C-175.713 24.3879-175.637 24.008-175.623 23.6233-175.623 22.9756-175.989 22.3833-176.568 22.0934-176.867 21.9468-177.185 21.8408-177.513 21.7785-178.815 22.4844-180.037 23.3293-181.158 24.2984L-186.827 28.7981Z" fill-rule="evenodd" transform="matrix(1.0023 0 0 -1 441.016 413.201)"/></g></svg>