<?xml version="1.0" standalone="no"?><!DOCTYPE svg PUBLIC "-//W3C//DTD SVG 1.1//EN" "http://www.w3.org/Graphics/SVG/1.1/DTD/svg11.dtd"><svg class="icon" width="200px" height="200.00px" viewBox="0 0 1024 1024" version="1.1" xmlns="http://www.w3.org/2000/svg"><path d="M876.8 529.76v-184.384l48-6.208s-44.8-227.2-214.4-227.2c-6.4 0-9.6 32-9.6 32s113.984 53.024 124.8 171.136V531.2l0.128 2.56c1.216 12.192 6.624 36 15.36 73.824 10.368 44.832 29.632 128.32 26.72 145.28C863.104 774.016 825.024 835.2 787.2 835.2c-28.256 0-55.936-38.048-67.008-57.28 1.408-45.376 7.104-244.032-0.512-292.288-8.576-54.272-54.656-73.792-89.28-78.208V138.144C630.4 97.248 597.152 64 556.256 64H230.944C190.048 64 156.8 97.248 156.8 138.144V891.2h-24v67.2h524.8v-67.2H630.4V459.136c15.328 2.944 35.04 11.296 38.72 34.464 6.24 39.52 1.888 222.432-0.288 289.568l-0.224 6.496 2.912 5.792C676.16 804.768 718.944 886.4 787.2 886.4c71.584 0 123.104-88.736 130.592-122.432 5.024-22.56-4.224-70.016-26.816-167.904-6.304-27.392-12.864-55.712-14.176-66.304zM230.944 115.2h325.344c12.64 0 22.944 10.272 22.944 22.944V409.6H208V138.144A22.944 22.944 0 0 1 230.944 115.2z" fill="#F4AE00" /></svg>