<svg width="200" height="200" xmlns="http://www.w3.org/2000/svg" xmlns:xlink="http://www.w3.org/1999/xlink" xml:space="preserve" overflow="hidden"><g transform="translate(-540 -260)"><path d="M686.331 434.237 681.031 425.756C703.869 411.481 717.5 386.9 717.5 360 717.5 333.981 704.544 309.837 682.85 295.413L688.388 287.087C712.875 303.369 727.5 330.625 727.5 360 727.5 390.369 712.112 418.119 686.331 434.237ZM593.669 434.244C567.894 418.119 552.5 390.369 552.5 360 552.5 330.625 567.125 303.369 591.612 287.087L597.15 295.413C575.456 309.837 562.5 333.981 562.5 360 562.5 386.9 576.131 411.481 598.969 425.763L593.669 434.244Z" fill="#4EA72E"/><path d="M640 425.625C603.812 425.625 574.375 396.188 574.375 360 574.375 323.812 603.812 294.375 640 294.375 676.188 294.375 705.625 323.812 705.625 360 705.625 396.188 676.188 425.625 640 425.625ZM640 304.375C609.331 304.375 584.375 329.331 584.375 360 584.375 390.675 609.331 415.625 640 415.625 670.675 415.625 695.625 390.675 695.625 360 695.625 329.331 670.675 304.375 640 304.375Z" fill="#4EA72E"/><path d="M623.456 393.487 623.456 327.763 643.319 327.763C648.2 327.763 652.525 328.388 656.3 329.638 660.075 330.888 663.037 332.962 665.188 335.869 667.338 338.775 668.412 342.694 668.412 347.631 668.412 352.425 667.344 356.362 665.213 359.456 663.081 362.55 660.144 364.85 656.412 366.356 652.681 367.869 648.45 368.619 643.713 368.619L633.781 368.619 633.781 393.487 623.456 393.487ZM633.781 360.3 642.713 360.3C647.969 360.3 651.869 359.269 654.406 357.206 656.95 355.144 658.219 351.95 658.219 347.625 658.219 343.3 656.881 340.3 654.213 338.631 651.537 336.962 647.594 336.125 642.362 336.125L633.781 336.125 633.781 360.3Z" fill="#4EA72E"/></g></svg>