<?xml version="1.0"?>
<svg xmlns="http://www.w3.org/2000/svg" xmlns:xlink="http://www.w3.org/1999/xlink" width="409.166687" height="188.055557">
	<defs>
		<marker id="CustomMarker-01" markerUnits="strokeWidth" markerWidth="15.000001" markerHeight="9" viewBox="-15 -4.5 15 9" orient="auto-start-reverse">
			<path d="M 0 -0 L -10 -3, -8 -0.5, -8 0.5, -10 3 Z" fill="#000000" stroke="#000000" stroke-linejoin="round" />
		</marker>
		<marker id="CustomMarker-02" markerUnits="strokeWidth" markerWidth="15.000001" markerHeight="9" viewBox="-15 -4.5 15 9" orient="auto-start-reverse">
			<path d="M 0 -0 L -10 -3, -8 -0.5, -8 0.5, -10 3 Z" fill="#000000" stroke="#000000" stroke-linejoin="round" />
		</marker>
	</defs>
	<path d="M -443.7 265.218 L 443.7 265.218" fill="none" stroke="#000000" stroke-width="4.80000019" stroke-linecap="round" stroke-linejoin="round" marker-end="url(#CustomMarker-01)" transform="matrix(0.277778 0 -0 0.277778 179.337 85.4319)" />
	<path d="M -443.7 265.218 L -443.7 -265.218" fill="none" stroke="#000000" stroke-width="4.80000019" stroke-linecap="round" stroke-linejoin="round" marker-end="url(#CustomMarker-02)" transform="matrix(0.277778 0 -0 0.277778 179.337 85.4319)" />
	<g transform="matrix(1 0 -0 1 9.17699 9.08323)">
		<svg width="110.928223" height="63.0318985">
			<defs />
			<path d="M 9.35195 5.61627 C 9.28268 5.88535, 9.14127 6.09203, 8.92715 6.23516, 8.7136 6.37886, 8.50292 6.45042, 8.2951 6.44985, 8.06896 6.45042, 7.88633 6.37084, 7.74778 6.21168, 7.64129 6.10863, 7.58461 5.97695, 7.57774 5.8178, 7.57774 5.75139, 7.59034 5.66551, 7.61553 5.56131, 7.68537 5.33002, 7.80331 5.14682, 7.96991 5.01228, 8.13651 4.87831, 8.26075 4.80445, 8.34204 4.79186, 8.22296 4.65789, 7.98709 4.59091, 7.63442 4.59034, 7.42717 4.59091, 7.22908 4.77125, 7.04016 5.13078, 7.00237 5.18632, 6.96 5.30998, 6.91306 5.50234, 6.86611 5.69471, 6.8123 5.93001, 6.75276 6.20768, 6.69321 6.48592, 6.63138 6.78019, 6.56841 7.09163, 6.50543 7.40308, 6.44875 7.7025, 6.39837 7.98875 L 6.1625 9.15209, 7.88919 9.15209 C 8.05293 9.15267, 8.13479 9.23511, 8.13479 9.39942 L 8.13479 9.46354, 8.09701 9.62842 C 8.02773 9.8122, 7.90522 9.9038, 7.72889 9.90323 L 6.01193 9.90323, 5.10622 14.465 C 5.01805 14.8932, 4.92416 15.3495, 4.8234 15.835, 4.72264 16.3205, 4.61271 16.8031, 4.49306 17.2823, 4.37341 17.7615, 4.23658 18.2149, 4.08257 18.642, 3.92857 19.0697, 3.76311 19.4424, 3.58678 19.7596, 3.48029 19.937, 3.35892 20.1157, 3.22381 20.2954, 3.08869 20.4758, 2.93984 20.6361, 2.7761 20.7763, 2.61237 20.9172, 2.43489 21.0345, 2.24252 21.129, 2.05073 21.224, 1.84463 21.271, 1.62479 21.271, 1.37975 21.271, 1.15018 21.2315, 0.936057 21.1519, 0.722511 21.0729, 0.538735 20.963, 0.384158 20.8221, 0.230725 20.6819, 0.115651 20.5107, 0.0395067 20.3092, 0.0148888 20.1992, 0.00229359 20.0893, 0.00172102 19.9794, 0.00229359 19.8758, 0.0148888 19.763, 0.0395067 19.6405, 0.109353 19.3657, 0.254198 19.1596, 0.474042 19.0222, 0.694458 18.8848, 0.911439 18.8161, 1.12441 18.8161, 1.3454 18.8161, 1.52746 18.8893, 1.67173 19.0359, 1.77879 19.1401, 1.83203 19.2712, 1.83203 19.4298, 1.83203 19.4973, 1.81944 19.5826, 1.79425 19.6863, 1.72555 19.9187, 1.60589 20.1048, 1.43643 20.245, 1.26697 20.3859, 1.14102 20.462, 1.05857 20.474, 1.16621 20.5966, 1.38605 20.6572, 1.71868 20.6572, 1.88242 20.6572, 2.03528 20.5656, 2.17669 20.3824, 2.3181 20.1992, 2.4326 19.9491, 2.52076 19.6313, 2.74118 18.8865, 2.94099 18.0609, 3.12018 17.1541, 3.29938 16.2472, 3.47686 15.3633, 3.65319 14.5016 L 4.58695 9.90323, 3.17171 9.90323 C 3.07782 9.9038, 3.00854 9.87346, 2.96446 9.81162, 2.92667 9.77556, 2.90778 9.72976, 2.90778 9.67422, 2.90778 9.63815, 2.91751 9.60438, 2.93583 9.57346 L 2.96446 9.43606 C 2.98335 9.35705, 3.02572 9.29007, 3.09156 9.23511, 3.15797 9.18015, 3.22839 9.15267, 3.30396 9.15209 L 4.73809 9.15209, 4.95508 8.00707 C 4.99286 7.76948, 5.04324 7.50727, 5.10622 7.21987, 5.16919 6.93305, 5.24419 6.64736, 5.33236 6.3634, 5.42053 6.07943, 5.52014 5.80635, 5.63006 5.54356, 5.73999 5.28135, 5.87395 5.05808, 6.03082 4.8743, 6.25753 4.61209, 6.5186 4.3974, 6.81401 4.22908, 7.10943 4.06134, 7.42087 3.97718, 7.74778 3.97661, 7.99338 3.97718, 8.22754 4.01382, 8.45082 4.0871, 8.6741 4.16038, 8.86303 4.26744, 9.01703 4.40771, 9.17104 4.54854, 9.27924 4.71629, 9.34222 4.91094, 9.3863 5.00941, 9.40806 5.1222, 9.40806 5.24987, 9.40806 5.35406, 9.38974 5.47658, 9.35195 5.61627 Z" stroke="none" fill="#000000" />
			<path d="M 27.1939 9.12461 C 27.3639 9.29007, 27.471 9.52193, 27.5145 9.82078, 27.5271 9.96792, 27.5334 10.1082, 27.5334 10.2422, 27.5334 10.4139, 27.5208 10.5845, 27.4956 10.7551, 27.4578 11.0975, 27.4 11.4444, 27.321 11.7954, 27.2425 12.1469, 27.1658 12.4595, 27.0902 12.7337, 26.9643 13.2536, 26.796 13.7969, 26.5853 14.3648, 26.3746 14.9327, 26.1153 15.4549, 25.8072 15.9312, 25.4992 16.4075, 25.1397 16.8077, 24.7275 17.1312, 24.3153 17.4546, 23.839 17.6161, 23.2979 17.6161, 22.8708 17.6161, 22.4666 17.5399, 22.0859 17.3871, 21.7058 17.2348, 21.4086 16.9875, 21.1945 16.6451, 20.9621 16.2976, 20.8487 15.9008, 20.855 15.4543, 20.855 15.4302, 20.8613 15.4062, 20.8739 15.381, 20.8739 14.9482, 20.9243 14.5114, 21.0245 14.0711, 21.1253 13.6503, 21.2718 13.1866, 21.4636 12.6793, 21.6554 12.1727, 21.8392 11.6809, 22.0149 11.204, 22.2039 10.6979, 22.2983 10.2822, 22.2983 9.95819, 22.2983 9.68396, 22.1821 9.54655, 21.9491 9.54598, 21.7356 9.54655, 21.542 9.60781, 21.3691 9.72976, 21.1962 9.85227, 21.0394 10.0217, 20.8974 10.2381, 20.756 10.4551, 20.6289 10.7116, 20.5155 11.0076, 20.4022 11.3042, 20.3077 11.6196, 20.2321 11.9551, 20.1634 12.1206, 20.0472 12.2059, 19.8835 12.2116 L 19.6665 12.2116 C 19.5154 12.2122, 19.4398 12.136, 19.4398 11.9826 L 19.4398 11.9185 C 19.528 11.583, 19.6447 11.24, 19.789 10.8885, 19.9339 10.5376, 20.1165 10.2187, 20.3363 9.93128, 20.5562 9.64445, 20.8081 9.40629, 21.0909 9.21679, 21.3737 9.02786, 21.6978 8.93282, 22.0625 8.93225, 22.3773 8.93282, 22.6458 9.00038, 22.8691 9.13435, 23.0924 9.26889, 23.2619 9.44751, 23.3781 9.67021, 23.4949 9.89349, 23.559 10.1448, 23.5716 10.4254 L 23.5716 10.4895 C 23.5716 10.7528, 23.5183 11.0242, 23.4113 11.3047, 23.2292 11.7816, 23.0483 12.2688, 22.8691 12.7663, 22.6899 13.2644, 22.5497 13.7116, 22.4489 14.1077, 22.3487 14.5234, 22.2794 14.9207, 22.2416 15.2986, 22.2291 15.3844, 22.2228 15.4669, 22.2228 15.5459, 22.2228 15.8213, 22.2703 16.0806, 22.3642 16.3245, 22.446 16.5386, 22.5794 16.7069, 22.7649 16.8289, 22.9504 16.9514, 23.1691 17.0121, 23.4204 17.0115, 23.7914 17.0121, 24.1264 16.8919, 24.4252 16.6503, 24.7241 16.4092, 24.9903 16.084, 25.2227 15.6747, 25.4551 15.2659, 25.6613 14.7999, 25.8404 14.2778, 26.0196 13.7556, 26.1782 13.2289, 26.3168 12.6971, 26.3798 12.4291, 26.4107 12.1727, 26.4107 11.9276, 26.4107 11.745, 26.3986 11.5709, 26.3735 11.4055, 26.2916 11.0093, 26.109 10.6733, 25.8261 10.3979, 25.6945 10.2702, 25.6252 10.1236, 25.6183 9.95819, 25.6183 9.8975, 25.628 9.83968, 25.6469 9.78414, 25.7036 9.57117, 25.8153 9.38625, 25.9819 9.23053, 26.1485 9.0748, 26.3448 8.97576, 26.5715 8.93225, 26.6093 8.9208, 26.6528 8.9145, 26.7032 8.91393, 26.8858 8.9145, 27.0496 8.98492, 27.1939 9.12461 Z" stroke="none" fill="#000000" />
			<path d="M 1.5467 8.95625 C -4.56906 4.92594, -4.56906 -4.92594, 1.5467 -8.95625 L 2.50721 -8.95625 C -3.00823 -4.92594, -3.00823 4.92594, 2.50721 8.95625" stroke="none" fill="#000000" transform="matrix(1 0 -0 1 15.9723 11.7703)" />
			<path d="M 1.5467 8.95625 C -4.56906 4.92594, -4.56906 -4.92594, 1.5467 -8.95625 L 2.50721 -8.95625 C -3.00823 -4.92594, -3.00823 4.92594, 2.50721 8.95625" stroke="none" fill="#000000" transform="matrix(-1 1.50996e-007 -1.50996e-007 -1 31.0071 11.7703)" />
			<rect />
		</svg>
	</g>
	<g transform="matrix(1 0 -0 1 315.157 147.217)">
		<svg width="263.922211" height="90.0318985">
			<defs />
			<path d="M 7.75683 9.24049 C 7.92687 9.40595, 8.03393 9.63781, 8.07744 9.93666, 8.09003 10.0838, 8.09633 10.2241, 8.09633 10.358, 8.09633 10.5298, 8.08373 10.7004, 8.05854 10.871, 8.02076 11.2134, 7.96293 11.5603, 7.88393 11.9113, 7.80549 12.2628, 7.72878 12.5754, 7.65321 12.8496, 7.52726 13.3694, 7.35894 13.9127, 7.14825 14.4807, 6.93757 15.0486, 6.67822 15.5707, 6.37021 16.0471, 6.0622 16.5234, 5.70209 16.9236, 5.28989 17.247, 4.87768 17.5705, 4.40135 17.732, 3.86033 17.732, 3.43267 17.732, 3.02847 17.6558, 2.64775 17.503, 2.26761 17.3507, 1.97048 17.1033, 1.75636 16.761, 1.52392 16.4135, 1.41056 16.0167, 1.41629 15.5702, 1.41629 15.5461, 1.42258 15.5221, 1.43518 15.4969, 1.43518 15.0641, 1.48556 14.6272, 1.58632 14.187, 1.68708 13.7662, 1.83365 13.3024, 2.02544 12.7952, 2.21723 12.2885, 2.401 11.7967, 2.57676 11.3198, 2.76569 10.8137, 2.86016 10.3981, 2.86016 10.0741, 2.86016 9.79983, 2.74394 9.66243, 2.51092 9.66186, 2.29738 9.66243, 2.10387 9.72369, 1.93097 9.84563, 1.75807 9.96815, 1.60063 10.1376, 1.45922 10.354, 1.31781 10.571, 1.19014 10.8275, 1.07679 11.1235, 0.963431 11.42, 0.869539 11.7355, 0.793968 12.071, 0.724694 12.2364, 0.608475 12.3217, 0.444737 12.3275 L 0.227756 12.3275 C 0.0766134 12.328, 0.0010421 12.2519, 0.0010421 12.0985 L 0.0010421 12.0343 C 0.0892086 11.6988, 0.206001 11.3559, 0.350273 11.0044, 0.495118 10.6534, 0.677749 10.3346, 0.897592 10.0472, 1.11801 9.76033, 1.36991 9.52217, 1.65273 9.33267, 1.93555 9.14374, 2.25959 9.0487, 2.62428 9.04813, 2.93916 9.0487, 3.20767 9.11626, 3.43095 9.25023, 3.65423 9.38476, 3.82426 9.56339, 3.94048 9.78609, 4.05727 10.0094, 4.12139 10.2607, 4.13399 10.5412 L 4.13399 10.6054 C 4.13399 10.8687, 4.08075 11.1401, 3.97311 11.4206, 3.79106 11.8975, 3.61072 12.3847, 3.43095 12.8822, 3.25175 13.3803, 3.11149 13.8274, 3.01073 14.2236, 2.91054 14.6393, 2.84126 15.0366, 2.80348 15.4144, 2.79088 15.5003, 2.78458 15.5828, 2.78458 15.6618, 2.78458 15.9371, 2.8321 16.1965, 2.92599 16.4404, 3.00786 16.6545, 3.14183 16.8228, 3.32732 16.9448, 3.51282 17.0673, 3.73152 17.128, 3.98285 17.1274, 4.35383 17.128, 4.68875 17.0077, 4.9876 16.7661, 5.28645 16.5251, 5.55267 16.1999, 5.78511 15.7906, 6.01755 15.3818, 6.22365 14.9158, 6.40285 14.3937, 6.58261 13.8715, 6.7412 13.3448, 6.87917 12.813, 6.94215 12.545, 6.97364 12.2885, 6.97364 12.0435, 6.97364 11.8609, 6.96104 11.6868, 6.93585 11.5214, 6.85456 11.1252, 6.67193 10.7891, 6.38853 10.5138, 6.25686 10.3861, 6.18758 10.2395, 6.18128 10.0741, 6.18128 10.0134, 6.19102 9.95556, 6.20934 9.90002, 6.26659 9.68705, 6.37823 9.50213, 6.54483 9.34641, 6.71143 9.19068, 6.9078 9.09164, 7.13394 9.04813, 7.17173 9.03668, 7.21581 9.03038, 7.26619 9.02981, 7.44882 9.03038, 7.61256 9.1008, 7.75683 9.24049 Z" stroke="none" fill="#000000" />
			<path d="M 9.59133 21.8815 C 9.54782 22.004, 9.46595 22.0922, 9.34629 22.1472, 9.27072 22.1781, 9.20145 22.193, 9.13847 22.193, 9.09496 22.193, 9.04114 22.1872, 8.97817 22.1746, 8.75203 22.0956, 8.63867 21.9582, 8.63867 21.7624, 8.63867 21.7017, 8.6547 21.6342, 8.68562 21.5609 L 15.3754 3.5612 C 15.4195 3.43982, 15.5042 3.34479, 15.6302 3.27723, 15.6994 3.25948, 15.7624 3.25032, 15.8185 3.24975, 15.8632 3.25032, 15.9198 3.25662, 15.9886 3.26807, 16.2153 3.34822, 16.3252 3.48562, 16.3189 3.68028, 16.3189 3.74211, 16.3034 3.80909, 16.2714 3.8818 Z" stroke="none" fill="#000000" />
			<path d="M 41.5737 17.5121 C 40.7939 17.4697, 40.0428 17.448, 39.3191 17.448, 38.596 17.448, 37.8352 17.4697, 37.0365 17.5121 L 37.0365 16.7427 C 37.3193 16.7432, 37.5787 16.7387, 37.8146 16.7295, 38.0504 16.7203, 38.2285 16.6883, 38.3476 16.6327, 38.4231 16.5967, 38.4752 16.5325, 38.5033 16.4409, 38.5319 16.3493, 38.5457 16.2549, 38.5457 16.1564 L 38.5457 11.6863 C 38.5457 11.3817, 38.5268 11.0931, 38.489 10.8212, 38.4512 10.5498, 38.3573 10.2973, 38.2062 10.0649, 38.118 9.91892, 37.9909 9.81243, 37.8243 9.74487, 37.6577 9.67789, 37.4705 9.64411, 37.2627 9.64354, 36.9043 9.64411, 36.5711 9.71911, 36.2631 9.86854, 35.955 10.0185, 35.6894 10.2201, 35.4661 10.4731, 35.2428 10.7267, 35.0654 11.0244, 34.9331 11.3662, 34.8014 11.7086, 34.735 12.0653, 34.735 12.4374 L 34.735 16.1564 C 34.735 16.2606, 34.7476 16.3574, 34.7728 16.4455, 34.798 16.5343, 34.8512 16.5967, 34.9331 16.6327, 35.0528 16.6883, 35.2302 16.7203, 35.4661 16.7295, 35.702 16.7387, 35.9613 16.7432, 36.2442 16.7427 L 36.2442 17.5121 C 35.4455 17.4697, 34.6846 17.448, 33.961 17.448, 33.2259 17.448, 32.4742 17.4697, 31.707 17.5121 L 31.707 16.7427 C 31.9898 16.7432, 32.2492 16.7387, 32.4851 16.7295, 32.7209 16.7203, 32.899 16.6883, 33.0181 16.6327, 33.0873 16.5967, 33.1343 16.5343, 33.1595 16.4455, 33.1847 16.3574, 33.1973 16.2606, 33.1973 16.1564 L 33.1973 11.6863 C 33.1973 11.3817, 33.1801 11.0931, 33.1457 10.8212, 33.1114 10.5498, 33.0181 10.2973, 32.8669 10.0649, 32.773 9.91892, 32.6425 9.81243, 32.4759 9.74487, 32.3093 9.67789, 32.1221 9.64411, 31.9143 9.64354, 31.5559 9.64411, 31.2215 9.71911, 30.9101 9.86854, 30.5986 10.0185, 30.333 10.2201, 30.1126 10.4731, 29.8927 10.7267, 29.7164 11.0244, 29.5842 11.3662, 29.4525 11.7086, 29.3861 12.0653, 29.3861 12.4374 L 29.3861 16.1564 C 29.3861 16.2606, 29.3987 16.3574, 29.4239 16.4455, 29.449 16.5343, 29.4994 16.5967, 29.575 16.6327, 29.6947 16.6883, 29.8738 16.7203, 30.1126 16.7295, 30.3519 16.7387, 30.6095 16.7432, 30.886 16.7427 L 30.886 17.503 C 30.5654 17.4909, 30.27 17.4818, 29.9998 17.4755, 29.7296 17.4697, 29.4651 17.4606, 29.2069 17.448 L 28.6126 17.448 C 27.8769 17.448, 27.1252 17.4697, 26.3581 17.5121 L 26.3581 16.7427 C 26.6415 16.7432, 26.9008 16.7387, 27.1367 16.7295, 27.3726 16.7203, 27.5506 16.6883, 27.6697 16.6327, 27.7453 16.5967, 27.7951 16.5343, 27.8203 16.4455, 27.8454 16.3574, 27.858 16.2606, 27.858 16.1564 L 27.858 10.9534 C 27.858 10.7828, 27.8506 10.6277, 27.8346 10.4868, 27.8191 10.3466, 27.7579 10.2332, 27.6508 10.1473, 27.5443 10.0746, 27.3714 10.0323, 27.1321 10.0197, 26.8928 10.0077, 26.6352 10.0014, 26.3581 10.0008 L 26.3581 9.24049, 27.9806 9.12141, 29.2824 9.02065, 29.2824 10.5962 C 29.4021 10.3157, 29.7118 9.98475, 30.2116 9.60289, 30.712 9.2216, 31.2983 9.03038, 31.971 9.02981, 32.3236 9.03038, 32.6866 9.0716, 33.0604 9.15404, 33.4349 9.23648, 33.7635 9.41511, 34.0463 9.68934, 34.2352 9.87312, 34.3784 10.0735, 34.4757 10.2899, 34.573 10.5069, 34.6217 10.6242, 34.6217 10.642, 34.7917 10.2762, 35.122 9.91605, 35.6121 9.56167, 36.1028 9.20786, 36.669 9.03038, 37.3102 9.02981, 37.6623 9.03038, 38.0287 9.0716, 38.4088 9.15404, 38.7895 9.23648, 39.1216 9.41511, 39.4044 9.68991, 39.6872 9.96472, 39.8716 10.2807, 39.9563 10.638, 40.041 10.9952, 40.0834 11.345, 40.0834 11.6863 L 40.0834 16.1564 C 40.0834 16.2606, 40.096 16.3574, 40.1212 16.4455, 40.1464 16.5343, 40.2002 16.5967, 40.2815 16.6327, 40.4012 16.6883, 40.5786 16.7203, 40.8145 16.7295, 41.0504 16.7387, 41.3034 16.7432, 41.5737 16.7427 L 41.5737 17.5121 Z" stroke="none" fill="#000000" />
			<ellipse cx="-0" cy="-0" rx="1.1556160449981689" ry="1.1556160449981689" stroke="none" fill="#000000" transform="matrix(1 0 0 1 49.1206 11.8861)" />
			<path d="M 63.1407 14.9931 C 63.1407 15.3663, 63.0748 15.731, 62.9426 16.0883, 62.8109 16.4455, 62.5876 16.7553, 62.2727 17.0175, 61.9332 17.2865, 61.5577 17.4697, 61.1455 17.5671, 60.7338 17.665, 60.317 17.7136, 59.8957 17.7136, 59.4302 17.7136, 59.0243 17.6375, 58.6785 17.4846, 58.3327 17.3323, 58.0499 17.1463, 57.8295 16.9259 L 57.2261 17.622 C 57.1757 17.677, 57.1001 17.7079, 56.9993 17.7136 L 56.9432 17.7136 C 56.7543 17.7136, 56.6598 17.6192, 56.6598 17.4297 L 56.6598 14.4068 C 56.6598 14.2729, 56.7326 14.1875, 56.8768 14.1503, 56.9215 14.1389, 56.9621 14.1326, 56.9993 14.132, 57.0497 14.1326, 57.0972 14.1417, 57.1413 14.1595, 57.2358 14.1967, 57.2988 14.2608, 57.3297 14.3519, 57.4934 15.1889, 57.7734 15.8581, 58.1696 16.3585, 58.5657 16.8595, 59.1411 17.1096, 59.8957 17.1091, 60.198 17.1096, 60.4899 17.081, 60.7728 17.0226, 61.0556 16.9648, 61.3012 16.8503, 61.5084 16.6785, 61.6785 16.5388, 61.8044 16.3665, 61.8857 16.1616, 61.9676 15.9572, 62.0082 15.7356, 62.0082 15.4969, 62.0082 15.1064, 61.8542 14.7727, 61.5462 14.4944, 61.2382 14.2167, 60.8581 14.0318, 60.4046 13.9397 L 59.1033 13.674 C 58.789 13.6133, 58.4856 13.5177, 58.193 13.386, 57.901 13.2549, 57.6428 13.0929, 57.4196 12.9005, 57.1963 12.7082, 57.0142 12.4809, 56.8722 12.2181, 56.7308 11.9559, 56.6598 11.6656, 56.6598 11.3473, 56.6598 10.9998, 56.7343 10.6655, 56.882 10.3449, 57.0297 10.0243, 57.2512 9.76033, 57.5467 9.55194, 57.8925 9.29603, 58.2732 9.13, 58.6882 9.05328, 59.1033 8.97714, 59.5058 8.93878, 59.8957 8.93821, 60.6124 8.93878, 61.1913 9.10366, 61.6309 9.43286 L 62.1216 8.99317 C 62.1972 8.9571, 62.2601 8.93878, 62.3105 8.93821 L 62.3764 8.93821 C 62.5653 8.93878, 62.6592 9.02408, 62.6592 9.19469 L 62.6592 11.6313 C 62.6592 11.8151, 62.5653 11.9095, 62.3764 11.9153 L 62.2727 11.9153 C 62.0844 11.9158, 61.9899 11.8214, 61.9899 11.6313, 61.9899 10.966, 61.8096 10.4399, 61.4477 10.0517, 61.0859 9.66415, 60.5689 9.47007, 59.8957 9.4695, 59.6066 9.47007, 59.322 9.49469, 59.0421 9.54335, 58.7621 9.59259, 58.5119 9.69277, 58.2921 9.84506, 57.9589 10.0655, 57.7917 10.3924, 57.7917 10.8252, 57.7917 11.1435, 57.9365 11.4155, 58.2257 11.641, 58.5153 11.8672, 58.88 12.0229, 59.3203 12.1076 L 60.6124 12.3458 C 60.9525 12.4076, 61.276 12.5175, 61.584 12.6761, 61.892 12.8353, 62.1611 13.0259, 62.3907 13.2486, 62.6202 13.4719, 62.8029 13.7341, 62.938 14.0364, 63.0731 14.3387, 63.1407 14.6576, 63.1407 14.9931 Z" stroke="none" fill="#000000" />
			<polyline points="-2.27972 0 2.27972 0" fill="none" stroke="#000000" stroke-width="0.420223981" stroke-linecap="round" stroke-linejoin="round" transform="matrix(1 0 0 1 66.9235 6.78726)" />
			<path d="M 2.37267 3.19713 C 1.72472 3.17661, 1.09441 3.16635, 0.481416 3.16635, -0.131261 3.16635, -0.761571 3.17661, -1.40951 3.19713 L -1.40951 2.75598, -1.04499 2.75598 C -0.928927 2.7563, -0.819601 2.75469, -0.717648 2.75117, -0.615375 2.74796, -0.518552 2.7393, -0.426859 2.72552, -0.335166 2.71205, -0.255976 2.69827, -0.18929 2.68416, -0.132864 2.67422, -0.086376 2.6428, -0.0495062 2.58958, -0.012316 2.53668, 0.00595856 2.47769, 0.00595856 2.41229 L 0.00595856 -3.36887 C -0.169733 -3.28295, -0.386463 -3.21787, -0.643588 -3.17362, -0.900714 -3.12906, -1.18221 -3.10694, -1.4887 -3.10726 L -1.4887 -3.54328 C -1.06615 -3.54296, -0.675969 -3.59329, -0.318494 -3.69429, 0.0389807 -3.79496, 0.348044 -3.98411, 0.608376 -4.26144 L 0.772206 -4.26144 C 0.888265 -4.26112, 0.946294 -4.20469, 0.946294 -4.09216 L 0.946294 2.41229 C 0.946294 2.4809, 0.963928 2.54085, 0.999194 2.59215, 1.03446 2.64344, 1.08576 2.67422, 1.15244 2.68416, 1.20887 2.69827, 1.28133 2.71205, 1.36917 2.72552, 1.45702 2.7393, 1.55641 2.74796, 1.66734 2.75117, 1.77827 2.75469, 1.88663 2.7563, 1.99243 2.75598 L 2.37267 2.75598, 2.37267 3.19713 Z" stroke="none" fill="#000000" transform="matrix(1.12 0 0 1 74.15 6.78726)" />
			<path d="M 1.55535 9.07213 C -4.56041 4.98967, -4.56041 -4.98967, 1.55535 -9.07213 L 2.51587 -9.07213 C -2.99957 -4.98967, -2.99957 4.98967, 2.51587 9.07213" stroke="none" fill="#000000" transform="matrix(1 0 -0 1 22.8929 11.8861)" />
			<path d="M 1.55535 9.07213 C -4.56041 4.98967, -4.56041 -4.98967, 1.55535 -9.07213 L 2.51587 -9.07213 C -2.99957 -4.98967, -2.99957 4.98967, 2.51587 9.07213" stroke="none" fill="#000000" transform="matrix(-1 1.50996e-007 -1.50996e-007 -1 82.2963 11.8861)" />
			<rect />
		</svg>
	</g>
	<path d="M -303.074 206.775 C -233.325 193.725, -188.325 153.225, -139.725 65.9249, -91.1248 -21.375, -56.9249 -199.575, -11.925 -203.175, 33.0749 -206.775, 37.5749 -112.275, 82.5749 -32.175, 127.575 47.925, 187.875 90.2249, 303.074 119.025" fill="none" stroke="#000000" stroke-width="4.80000019" stroke-linecap="round" stroke-linejoin="round" transform="matrix(0.277778 0 -0 0.277778 140.275 101.666)" />
	<path d="M -393.75 145.125 C -238.106 135.675, -139.405 93.3749, -76.9784 38.4749, -14.5521 -16.425, 26.7843 -145.125, 100.177 -132.525, 173.571 -119.925, 207.315 40.2749, 393.75 106.875" fill="none" stroke="#000000" stroke-width="4.80000019" stroke-linecap="round" stroke-linejoin="round" transform="matrix(0.277778 0 -0 0.277778 165.463 118.791)" />
	<path d="M 0 203.796 L 0 -203.797" fill="none" stroke="#000000" stroke-width="4.80000019" stroke-linecap="round" stroke-linejoin="round" stroke-dasharray="16.824, 11.976" transform="matrix(0.277778 0 0 0.277778 137.494 102.493)" />
	<g transform="matrix(1 0 -0 1 118.586 163.502)">
		<svg width="116.956131" height="48.0957298">
			<defs />
			<path d="M 6.82893 16.7669 C 5.69503 16.731, 4.59143 16.7131, 3.51868 16.7131, 2.4465 16.7131, 1.34289 16.731, 0.208429 16.7669 L 0.208429 15.9949, 0.846915 15.9949 C 1.05002 15.9955, 1.24134 15.9927, 1.41976 15.9865, 1.59873 15.9809, 1.76817 15.9657, 1.92864 15.9416, 2.0891 15.918, 2.22768 15.8939, 2.34438 15.8692, 2.44313 15.8518, 2.52504 15.7969, 2.58957 15.7037, 2.65465 15.6111, 2.68663 15.5079, 2.68663 15.3935 L 2.68663 5.27643 C 2.37861 5.4268, 1.99933 5.54069, 1.54936 5.61812, 1.09939 5.6961, 0.60622 5.73482, 0.0698472 5.73426 L 0.0698472 4.97122 C 0.809885 4.97178, 1.49269 4.88369, 2.11828 4.70696, 2.74386 4.53078, 3.28472 4.19976, 3.74086 3.71444 L 4.02756 3.71444 C 4.23066 3.715, 4.33222 3.81375, 4.33222 4.01068 L 4.33222 15.3935 C 4.33222 15.5135, 4.36307 15.6184, 4.42479 15.7082, 4.48651 15.798, 4.57628 15.8518, 4.69298 15.8692, 4.79172 15.8939, 4.91852 15.918, 5.07225 15.9416, 5.22655 15.9657, 5.40047 15.9809, 5.5946 15.9865, 5.78873 15.9927, 5.97837 15.9955, 6.16295 15.9949 L 6.82893 15.9949, 6.82893 16.7669 Z" stroke="none" fill="#000000" />
			<path d="M 17.5421 10.519 C 17.5421 11.3813, 17.4821 12.2386, 17.362 13.0914, 17.242 13.9442, 16.9446 14.7449, 16.4699 15.4922, 16.1311 16.0376, 15.6777 16.4561, 15.1111 16.749, 14.5444 17.0424, 13.9278 17.1888, 13.2618 17.1888, 12.6211 17.1888, 12.0157 17.0424, 11.4456 16.749, 10.8756 16.4561, 10.4206 16.0376, 10.0817 15.4922, 9.60762 14.7449, 9.31026 13.9442, 9.19019 13.0914, 9.07012 12.2386, 9.00953 11.3813, 9.00953 10.519, 9.00953 9.64596, 9.07012 8.77352, 9.19019 7.90275, 9.31026 7.03199, 9.60762 6.21677, 10.0817 5.45597, 10.4206 4.90613, 10.8739 4.47804, 11.4406 4.17283, 12.0078 3.86761, 12.6149 3.715, 13.2618 3.71444, 13.9216 3.715, 14.536 3.86761, 15.106 4.17283, 15.676 4.47804, 16.1311 4.90613, 16.4699 5.45597, 16.9446 6.21677, 17.242 7.03199, 17.362 7.90275, 17.4821 8.77352, 17.5421 9.64596, 17.5421 10.519 Z M 15.7114 10.2048 C 15.7114 9.82831, 15.7086 9.43052, 15.7024 9.0114, 15.6968 8.59285, 15.6811 8.18272, 15.6564 7.78156, 15.6317 7.38097, 15.5874 7.00225, 15.5223 6.64598, 15.4578 6.29027, 15.3792 5.98617, 15.2867 5.73426, 15.1015 5.32805, 14.8305 4.99422, 14.4731 4.73389, 14.1157 4.47355, 13.7118 4.34339, 13.2618 4.34283, 12.8242 4.34339, 12.4286 4.47524, 12.074 4.73837, 11.72 5.00207, 11.4501 5.33366, 11.265 5.73426, 11.173 5.98617, 11.0944 6.29027, 11.0293 6.64598, 10.9648 7.00225, 10.9199 7.38097, 10.8952 7.78156, 10.8706 8.18272, 10.8554 8.59285, 10.8492 9.0114, 10.8431 9.43052, 10.8397 9.82831, 10.8397 10.2048, 10.8397 10.6245, 10.8431 11.066, 10.8492 11.5294, 10.8554 11.9934, 10.8706 12.4423, 10.8952 12.876, 10.9199 13.3102, 10.9648 13.7215, 11.0293 14.1103, 11.0944 14.4997, 11.173 14.8257, 11.265 15.0882, 11.4378 15.5259, 11.7049 15.8849, 12.0651 16.166, 12.4253 16.4477, 12.8242 16.588, 13.2618 16.5874, 13.7179 16.588, 14.1264 16.4477, 14.4866 16.166, 14.8474 15.8849, 15.1139 15.5259, 15.2867 15.0882, 15.3792 14.8257, 15.4578 14.4997, 15.5223 14.1103, 15.5874 13.7215, 15.6317 13.3102, 15.6564 12.876, 15.6811 12.4423, 15.6968 11.9934, 15.7024 11.5294, 15.7086 11.066, 15.7114 10.6245, 15.7114 10.2048 Z" stroke="none" fill="#000000" />
			<path d="M 27.4322 10.519 C 27.4322 11.3813, 27.3721 12.2386, 27.2521 13.0914, 27.132 13.9442, 26.8346 14.7449, 26.36 15.4922, 26.0211 16.0376, 25.5678 16.4561, 25.0011 16.749, 24.4344 17.0424, 23.8178 17.1888, 23.1518 17.1888, 22.5111 17.1888, 21.9057 17.0424, 21.3357 16.749, 20.7656 16.4561, 20.3106 16.0376, 19.9717 15.4922, 19.4977 14.7449, 19.2003 13.9442, 19.0802 13.0914, 18.9602 12.2386, 18.8996 11.3813, 18.8996 10.519, 18.8996 9.64596, 18.9602 8.77352, 19.0802 7.90275, 19.2003 7.03199, 19.4977 6.21677, 19.9717 5.45597, 20.3106 4.90613, 20.764 4.47804, 21.3306 4.17283, 21.8979 3.86761, 22.5049 3.715, 23.1518 3.71444, 23.8116 3.715, 24.426 3.86761, 24.996 4.17283, 25.5661 4.47804, 26.0211 4.90613, 26.36 5.45597, 26.8346 6.21677, 27.132 7.03199, 27.2521 7.90275, 27.3721 8.77352, 27.4322 9.64596, 27.4322 10.519 Z M 25.6014 10.2048 C 25.6014 9.82831, 25.5986 9.43052, 25.5924 9.0114, 25.5868 8.59285, 25.5711 8.18272, 25.5464 7.78156, 25.5217 7.38097, 25.4774 7.00225, 25.4123 6.64598, 25.3478 6.29027, 25.2693 5.98617, 25.1767 5.73426, 24.9915 5.32805, 24.7206 4.99422, 24.3632 4.73389, 24.0058 4.47355, 23.6018 4.34339, 23.1518 4.34283, 22.7142 4.34339, 22.3187 4.47524, 21.9641 4.73837, 21.61 5.00207, 21.3402 5.33366, 21.155 5.73426, 21.063 5.98617, 20.9845 6.29027, 20.9194 6.64598, 20.8549 7.00225, 20.81 7.38097, 20.7853 7.78156, 20.7606 8.18272, 20.7454 8.59285, 20.7393 9.0114, 20.7331 9.43052, 20.7297 9.82831, 20.7297 10.2048, 20.7297 10.6245, 20.7331 11.066, 20.7393 11.5294, 20.7454 11.9934, 20.7606 12.4423, 20.7853 12.876, 20.81 13.3102, 20.8549 13.7215, 20.9194 14.1103, 20.9845 14.4997, 21.063 14.8257, 21.155 15.0882, 21.3278 15.5259, 21.5949 15.8849, 21.9551 16.166, 22.3153 16.4477, 22.7142 16.588, 23.1518 16.5874, 23.608 16.588, 24.0164 16.4477, 24.3766 16.166, 24.7374 15.8849, 25.0039 15.5259, 25.1767 15.0882, 25.2693 14.8257, 25.3478 14.4997, 25.4123 14.1103, 25.4774 13.7215, 25.5217 13.3102, 25.5464 12.876, 25.5711 12.4423, 25.5868 11.9934, 25.5924 11.5294, 25.5986 11.066, 25.6014 10.6245, 25.6014 10.2048 Z" stroke="none" fill="#000000" />
			<path d="M 37.3284 10.519 C 37.3284 11.3813, 37.2684 12.2386, 37.1483 13.0914, 37.0283 13.9442, 36.7309 14.7449, 36.2562 15.4922, 35.9174 16.0376, 35.464 16.4561, 34.8974 16.749, 34.3307 17.0424, 33.7141 17.1888, 33.0481 17.1888, 32.4074 17.1888, 31.802 17.0424, 31.232 16.749, 30.6619 16.4561, 30.2069 16.0376, 29.868 15.4922, 29.3939 14.7449, 29.0966 13.9442, 28.9765 13.0914, 28.8564 12.2386, 28.7958 11.3813, 28.7958 10.519, 28.7958 9.64596, 28.8564 8.77352, 28.9765 7.90275, 29.0966 7.03199, 29.3939 6.21677, 29.868 5.45597, 30.2069 4.90613, 30.6602 4.47804, 31.2269 4.17283, 31.7941 3.86761, 32.4012 3.715, 33.0481 3.71444, 33.7079 3.715, 34.3223 3.86761, 34.8923 4.17283, 35.4623 4.47804, 35.9174 4.90613, 36.2562 5.45597, 36.7309 6.21677, 37.0283 7.03199, 37.1483 7.90275, 37.2684 8.77352, 37.3284 9.64596, 37.3284 10.519 Z M 35.4977 10.2048 C 35.4977 9.82831, 35.4949 9.43052, 35.4887 9.0114, 35.4831 8.59285, 35.4674 8.18272, 35.4427 7.78156, 35.418 7.38097, 35.3737 7.00225, 35.3086 6.64598, 35.2441 6.29027, 35.1655 5.98617, 35.073 5.73426, 34.8878 5.32805, 34.6168 4.99422, 34.2594 4.73389, 33.902 4.47355, 33.4981 4.34339, 33.0481 4.34283, 32.6105 4.34339, 32.2149 4.47524, 31.8603 4.73837, 31.5063 5.00207, 31.2364 5.33366, 31.0513 5.73426, 30.9593 5.98617, 30.8807 6.29027, 30.8156 6.64598, 30.7511 7.00225, 30.7062 7.38097, 30.6816 7.78156, 30.6569 8.18272, 30.6417 8.59285, 30.6355 9.0114, 30.6294 9.43052, 30.626 9.82831, 30.626 10.2048, 30.626 10.6245, 30.6294 11.066, 30.6355 11.5294, 30.6417 11.9934, 30.6569 12.4423, 30.6816 12.876, 30.7062 13.3102, 30.7511 13.7215, 30.8156 14.1103, 30.8807 14.4997, 30.9593 14.8257, 31.0513 15.0882, 31.2241 15.5259, 31.4912 15.8849, 31.8514 16.166, 32.2116 16.4477, 32.6105 16.588, 33.0481 16.5874, 33.5042 16.588, 33.9127 16.4477, 34.2729 16.166, 34.6337 15.8849, 34.9002 15.5259, 35.073 15.0882, 35.1655 14.8257, 35.2441 14.4997, 35.3086 14.1103, 35.3737 13.7215, 35.418 13.3102, 35.4427 12.876, 35.4674 12.4423, 35.4831 11.9934, 35.4887 11.5294, 35.4949 11.066, 35.4977 10.6245, 35.4977 10.2048 Z" stroke="none" fill="#000000" />
			<rect />
		</svg>
	</g>
</svg>
