<?xml version="1.0"?>
<svg xmlns="http://www.w3.org/2000/svg" xmlns:xlink="http://www.w3.org/1999/xlink" width="348.298279" height="223.311493">
	<defs>
		<marker id="CustomMarker-01" markerUnits="strokeWidth" markerWidth="15.000001" markerHeight="9" viewBox="-15 -4.5 15 9" orient="auto-start-reverse">
			<path d="M 0 -0 L -10 -3, -8 -0.5, -8 0.5, -10 3 Z" fill="#000000" stroke="#000000" stroke-linejoin="round" />
		</marker>
		<marker id="CustomMarker-02" markerUnits="strokeWidth" markerWidth="15.000001" markerHeight="9" viewBox="-15 -4.5 15 9" orient="auto-start-reverse">
			<path d="M 0 -0 L -10 -3, -8 -0.5, -8 0.5, -10 3 Z" fill="#000000" stroke="#000000" stroke-linejoin="round" />
		</marker>
		<marker id="CustomMarker-03" markerUnits="strokeWidth" markerWidth="15.000001" markerHeight="12" viewBox="-15 -6 15 12" orient="auto-start-reverse">
			<path d="M 0 -0 L -10 -4, -8 -0.5, -8 0.5, -10 4 Z" fill="#000000" stroke="#000000" stroke-linejoin="round" />
		</marker>
		<marker id="CustomMarker-04" markerUnits="strokeWidth" markerWidth="15.000001" markerHeight="12" viewBox="-15 -6 15 12" orient="auto-start-reverse">
			<path d="M 0 -0 L -10 -4, -8 -0.5, -8 0.5, -10 4 Z" fill="#000000" stroke="#000000" stroke-linejoin="round" />
		</marker>
		<marker id="CustomMarker-05" markerUnits="strokeWidth" markerWidth="15.000001" markerHeight="12" viewBox="-15 -6 15 12" orient="auto-start-reverse">
			<path d="M 0 -0 L -10 -4, -8 -0.5, -8 0.5, -10 4 Z" fill="#000000" stroke="#000000" stroke-linejoin="round" />
		</marker>
		<marker id="CustomMarker-06" markerUnits="strokeWidth" markerWidth="15.000001" markerHeight="12" viewBox="-15 -6 15 12" orient="auto-start-reverse">
			<path d="M 0 -0 L -10 -4, -8 -0.5, -8 0.5, -10 4 Z" fill="#000000" stroke="#000000" stroke-linejoin="round" />
		</marker>
	</defs>
	<path d="M 41.9351 0 L -41.9352 0" fill="none" stroke="#000000" stroke-width="2.61333323" stroke-linecap="round" stroke-linejoin="round" transform="matrix(0.714286 0 0 0.714286 177.639 64.5244)" />
	<path d="M -189.762 124.007 L 189.762 124.007" fill="none" stroke="#000000" stroke-width="1.86666667" stroke-linecap="round" stroke-linejoin="round" marker-end="url(#CustomMarker-01)" transform="matrix(0.714286 0 -0 0.714286 163.414 99.0729)" />
	<path d="M -189.762 124.007 L -189.762 -124.007" fill="none" stroke="#000000" stroke-width="1.86666667" stroke-linecap="round" stroke-linejoin="round" marker-end="url(#CustomMarker-02)" transform="matrix(0.714286 0 -0 0.714286 163.414 99.0729)" />
	<g transform="matrix(1 0 -0 1 39.7388 9.00001)">
		<svg width="284.98587" height="119.999962">
			<defs />
			<path d="M 9.59355 13.4267 C 9.44928 13.9585, 9.23688 14.4841, 8.95692 15.0028, 8.67696 15.5221, 8.31342 16.0013, 7.86686 16.4404, 7.50217 16.8074, 7.08882 17.1142, 6.62623 17.3615, 6.16422 17.6089, 5.68445 17.732, 5.18752 17.732, 4.77874 17.732, 4.44211 17.6192, 4.17761 17.3936, 3.91368 17.168, 3.74708 16.9843, 3.67781 16.8434 L 2.89461 19.848 C 2.85683 20.0008, 2.83507 20.1136, 2.82877 20.1869, 2.82877 20.2481, 2.84137 20.2876, 2.86656 20.306, 2.94213 20.3552, 3.08812 20.3855, 3.3051 20.3976, 3.52208 20.4102, 3.76597 20.4159, 4.0362 20.4159, 4.19994 20.4159, 4.2818 20.4955, 4.2818 20.654 L 4.2818 20.7182, 4.24402 20.8922 C 4.17475 21.0754, 4.05223 21.1642, 3.8759 21.1579, 3.27247 21.1338, 2.67477 21.1155, 2.08337 21.1029 L 1.80971 21.1029 C 1.29445 21.1029, 0.77232 21.1212, 0.243321 21.1579, 0.0807282 21.1579, -0.00114071 21.0788, -0.00171322 20.9197 L -0.00171322 20.8556, 0.0360724 20.6815 C 0.105919 20.4983, 0.228436 20.4102, 0.403624 20.4159, 0.624612 20.4159, 0.807243 20.4102, 0.951516 20.3976, 1.09579 20.3855, 1.19941 20.3581, 1.26239 20.3151, 1.32536 20.2848, 1.39178 20.117, 1.46048 19.8113 L 3.64918 11.3473 C 3.74994 10.9512, 3.80032 10.6088, 3.80032 10.3214 L 3.80032 10.1015 C 3.76941 9.80899, 3.6217 9.66243, 3.3572 9.66186, 3.08011 9.66243, 2.84881 9.88571, 2.66332 10.3311, 2.47783 10.7771, 2.29749 11.3571, 2.12115 12.071, 2.05188 12.2364, 1.93566 12.3217, 1.77192 12.3275 L 1.55494 12.3275 C 1.4038 12.328, 1.32823 12.2519, 1.32823 12.0985 L 1.32823 12.0343 C 1.4038 11.7481, 1.4891 11.4349, 1.58357 11.096, 1.67803 10.7571, 1.80398 10.4365, 1.96085 10.1342, 2.11829 9.83189, 2.31638 9.57541, 2.55512 9.36473, 2.79442 9.15404, 3.0927 9.0487, 3.45109 9.04813, 3.92971 9.0487, 4.31157 9.18496, 4.59783 9.45633, 4.88408 9.72827, 5.0524 10.0014, 5.10221 10.2756, 5.34782 9.99506, 5.67644 9.72083, 6.08865 9.45175, 6.50085 9.18324, 6.93596 9.0487, 7.39511 9.04813, 7.87946 9.0487, 8.29338 9.1758, 8.63574 9.42885, 8.97867 9.68247, 9.24432 9.9985, 9.43325 10.3764, 9.65996 10.8286, 9.77904 11.3176, 9.79164 11.842 L 9.79164 11.9702 C 9.79164 12.4408, 9.7258 12.9263, 9.59355 13.4267 Z M 8.20636 10.642 C 8.15025 10.3494, 8.04491 10.113, 7.89033 9.93266, 7.73633 9.75289, 7.53366 9.66243, 7.28176 9.66186, 6.99264 9.66243, 6.69894 9.76033, 6.40009 9.95556, 6.10124 10.1514, 5.82586 10.3981, 5.57396 10.697, 5.37931 10.9477, 5.20927 11.183, 5.06443 11.4023 L 4.02704 15.4053 C 4.05223 15.5341, 4.07627 15.6566, 4.09803 15.7723, 4.11978 15.8885, 4.14955 16.0013, 4.18734 16.1106, 4.2818 16.4106, 4.41863 16.6551, 4.59783 16.844, 4.77703 17.0335, 5.01462 17.128, 5.31003 17.1274, 5.57453 17.128, 5.8356 17.0306, 6.09323 16.8348, 6.35085 16.6396, 6.58673 16.3951, 6.80085 16.1014, 7.10313 15.6927, 7.32927 15.2581, 7.48042 14.7967, 7.63156 14.3358, 7.76953 13.8641, 7.89491 13.3809, 8.02087 12.8805, 8.13136 12.3985, 8.22525 11.9336, 8.26304 11.7143, 8.28193 11.5008, 8.28193 11.2924, 8.28193 11.0731, 8.25674 10.8561, 8.20636 10.642 Z" stroke="none" fill="#000000" />
			<polyline points="-5.2528 -5.2528 5.2528 5.2528" fill="none" stroke="#000000" stroke-width="0.750400007" stroke-linecap="round" stroke-linejoin="round" transform="matrix(1 0 0 1 25.0827 11.8861)" />
			<polyline points="5.2528 -5.2528 -5.2528 5.2528" fill="none" stroke="#000000" stroke-width="0.750400007" stroke-linecap="round" stroke-linejoin="round" transform="matrix(1 0 0 1 25.0827 11.8861)" />
			<path d="M 42.6049 17.4456 C 41.471 17.4097, 40.3674 17.3917, 39.2946 17.3917, 38.2224 17.3917, 37.1188 17.4097, 35.9844 17.4456 L 35.9844 16.6736, 36.6229 16.6736 C 36.826 16.6742, 37.0173 16.6713, 37.1957 16.6652, 37.3747 16.6596, 37.5441 16.6444, 37.7046 16.6203, 37.865 16.5967, 38.0036 16.5726, 38.1203 16.5479, 38.2191 16.5305, 38.301 16.4755, 38.3655 16.3824, 38.4306 16.2898, 38.4626 16.1866, 38.4626 16.0721 L 38.4626 5.95511 C 38.1545 6.10547, 37.7753 6.21937, 37.3253 6.29679, 36.8753 6.37478, 36.3822 6.4135, 35.8458 6.41293 L 35.8458 5.64989 C 36.5858 5.65045, 37.2686 5.56237, 37.8942 5.38563, 38.5198 5.20946, 39.0607 4.87844, 39.5168 4.39312 L 39.8035 4.39312 C 40.0066 4.39368, 40.1082 4.49243, 40.1082 4.68936 L 40.1082 16.0721 C 40.1082 16.1922, 40.139 16.2971, 40.2007 16.3869, 40.2625 16.4767, 40.3522 16.5305, 40.4689 16.5479, 40.5677 16.5726, 40.6945 16.5967, 40.8482 16.6203, 41.0025 16.6444, 41.1764 16.6596, 41.3705 16.6652, 41.5647 16.6713, 41.7543 16.6742, 41.9389 16.6736 L 42.6049 16.6736, 42.6049 17.4456 Z" stroke="none" fill="#000000" />
			<path d="M 53.4013 11.1976 C 53.4013 12.06, 53.3413 12.9173, 53.2212 13.7701, 53.1011 14.6229, 52.8038 15.4236, 52.3291 16.1709, 51.9902 16.7162, 51.5369 17.1348, 50.9697 17.4277, 50.403 17.7211, 49.7864 17.8675, 49.1204 17.8675, 48.4797 17.8675, 47.8738 17.7211, 47.3037 17.4277, 46.7337 17.1348, 46.2787 16.7162, 45.9398 16.1709, 45.4651 15.4236, 45.1678 14.6229, 45.0477 13.7701, 44.9276 12.9173, 44.867 12.06, 44.867 11.1976, 44.867 10.3246, 44.9276 9.45219, 45.0477 8.58143, 45.1678 7.71066, 45.4651 6.89545, 45.9398 6.13465, 46.2787 5.58481, 46.732 5.15672, 47.2992 4.85151, 47.8665 4.54629, 48.4735 4.39368, 49.1204 4.39312, 49.7802 4.39368, 50.3952 4.54629, 50.9652 4.85151, 51.5352 5.15672, 51.9902 5.58481, 52.3291 6.13465, 52.8038 6.89545, 53.1011 7.71066, 53.2212 8.58143, 53.3413 9.45219, 53.4013 10.3246, 53.4013 11.1976 Z M 51.5706 10.8835 C 51.5706 10.507, 51.5678 10.1092, 51.5616 9.69008, 51.5554 9.27153, 51.5397 8.8614, 51.515 8.46024, 51.4903 8.05964, 51.446 7.68093, 51.3809 7.32466, 51.3164 6.96894, 51.2379 6.66485, 51.1453 6.41293, 50.9607 6.00673, 50.6897 5.6729, 50.3318 5.41257, 49.9744 5.15223, 49.5704 5.02207, 49.1204 5.02151, 48.6828 5.02207, 48.2873 5.15392, 47.9327 5.41705, 47.5781 5.68075, 47.3082 6.01234, 47.1231 6.41293, 47.031 6.66485, 46.9525 6.96894, 46.8874 7.32466, 46.8229 7.68093, 46.778 8.05964, 46.7533 8.46024, 46.7286 8.8614, 46.7135 9.27153, 46.7073 9.69008, 46.7011 10.1092, 46.6978 10.507, 46.6978 10.8835, 46.6978 11.3031, 46.7011 11.7447, 46.7073 12.2081, 46.7135 12.6721, 46.7286 13.121, 46.7533 13.5547, 46.778 13.9889, 46.8229 14.4002, 46.8874 14.789, 46.9525 15.1784, 47.031 15.5043, 47.1231 15.7669, 47.2959 16.2045, 47.5629 16.5636, 47.9231 16.8447, 48.2839 17.1264, 48.6828 17.2666, 49.1204 17.2661, 49.5771 17.2666, 49.9856 17.1264, 50.3458 16.8447, 50.7065 16.5636, 50.973 16.2045, 51.1453 15.7669, 51.2379 15.5043, 51.3164 15.1784, 51.3809 14.789, 51.446 14.4002, 51.4903 13.9889, 51.515 13.5547, 51.5397 13.121, 51.5554 12.6721, 51.5616 12.2081, 51.5678 11.7447, 51.5706 11.3031, 51.5706 10.8835 Z" stroke="none" fill="#000000" />
			<path d="M 2.72131 0.929807 C 2.72131 1.26516, 2.65815 1.58512, 2.53119 1.88938, 2.40455 2.19395, 2.22148 2.46743, 1.98167 2.70981, 1.73865 2.94609, 1.46485 3.1266, 1.16028 3.25099, 0.855704 3.37603, 0.532213 3.43822, 0.190447 3.43822, -0.105151 3.43822, -0.380872 3.38276, -0.636394 3.27151, -0.891596 3.16058, -1.11345 3.00861, -1.30197 2.81529, -1.49049 2.62228, -1.63829 2.39818, -1.74569 2.1433, -1.85309 1.88874, -1.90695 1.61751, -1.90695 1.32992, -1.90695 1.13179, -1.84091 0.982387, -1.70882 0.881396, -1.57673 0.780726, -1.44015 0.73007, -1.29941 0.729749, -1.15129 0.73007, -1.01214 0.779764, -0.881978 0.878831, -0.751491 0.978219, -0.686408 1.12858, -0.686408 1.32992, -0.686408 1.45336, -0.71366 1.55691, -0.768163 1.64059, -0.822666 1.72459, -0.889672 1.78935, -0.969182 1.83552, -1.04837 1.88168, -1.13718 1.9083, -1.23593 1.91471 L -1.29941 1.91471, -1.40521 1.91471 C -1.32409 2.20229, -1.13558 2.4607, -0.839658 2.68961, -0.543739 2.91884, -0.200371 3.0333, 0.190447 3.03298, 0.394994 3.0333, 0.59409 2.9804, 0.787735 2.87428, 0.981381 2.76848, 1.14008 2.62805, 1.26319 2.45332, 1.40747 2.24493, 1.50012 2.00832, 1.54052 1.74318, 1.58091 1.47836, 1.60111 1.20713, 1.60111 0.929807, 1.60111 0.649598, 1.59246 0.38061, 1.57482 0.122202, 1.55751 -0.135885, 1.48505 -0.379545, 1.35809 -0.609099, 1.26672 -0.776455, 1.1497 -0.915598, 1.00703 -1.02685, 0.86436 -1.13778, 0.705019 -1.19356, 0.528686 -1.19388, 0.193974 -1.19356, -0.0964944 -1.12592, -0.34304 -0.99094, -0.589586 -0.855645, -0.788682 -0.661678, -0.940007 -0.409041, -0.971747 -0.350691, -1.02272 -0.321516, -1.09326 -0.321836 L -1.13558 -0.321836 C -1.25869 -0.321516, -1.32057 -0.377943, -1.32057 -0.491116 L -1.32057 -4.09216 C -1.32057 -4.18064, -1.26927 -4.23707, -1.16732 -4.26144, -1.14968 -4.26112, -1.13654 -4.25919, -1.12756 -4.25599, -1.11858 -4.25246, -1.11089 -4.25086, -1.10384 -4.25118, -0.593112 -4.01842, -0.066678 -3.90204, 0.475786 -3.90236, 1.0253 -3.90204, 1.55206 -4.01842, 2.05573 -4.25118, 2.06278 -4.25086, 2.06984 -4.25246, 2.07689 -4.25599, 2.08394 -4.25919, 2.09452 -4.26112, 2.10863 -4.26144, 2.22469 -4.26112, 2.28112 -4.20822, 2.27759 -4.10242, 2.27759 -4.04054, 2.26701 -3.9995, 2.24585 -3.9793, 1.99578 -3.6369, 1.67806 -3.36919, 1.29237 -3.17619, 0.90668 -2.98286, 0.497267 -2.88636, 0.0638082 -2.88668, -0.29527 -2.88636, -0.605295 -2.9274, -0.866268 -3.00979 L -0.866268 -1.05025 C -0.742835 -1.17978, -0.556884 -1.29519, -0.308735 -1.39619, -0.060266 -1.49686, 0.218981 -1.54751, 0.528686 -1.54783, 0.831658 -1.54751, 1.11796 -1.4789, 1.38727 -1.34232, 1.6569 -1.20543, 1.89382 -1.02781, 2.09805 -0.809157, 2.30933 -0.562611, 2.4661 -0.289776, 2.56806 0.00934887, 2.67033 0.308794, 2.72131 0.615614, 2.72131 0.929807 Z" stroke="none" fill="#000000" transform="matrix(1.12 0 0 1 57.7984 6.78726)" />
			<path d="M 75.3948 8.08631 C 75.3948 8.58153, 75.2694 9.04412, 75.0175 9.47465, 74.7656 9.90518, 74.4352 10.267, 74.0265 10.5596, 73.5673 10.9145, 73.0549 11.1756, 72.4887 11.3433, 71.9231 11.5116, 71.3471 11.5952, 70.762 11.5947 L 67.7243 11.5947, 67.7243 16.1564 C 67.7243 16.2669, 67.7483 16.3665, 67.7953 16.4547, 67.8422 16.5434, 67.9132 16.603, 68.0071 16.6327, 68.1708 16.6883, 68.4101 16.7203, 68.7244 16.7295, 69.0393 16.7387, 69.3691 16.7432, 69.7149 16.7427 L 69.7149 17.503 C 68.7084 17.4663, 67.7306 17.448, 66.7808 17.448, 65.8373 17.448, 64.8594 17.4663, 63.8461 17.503 L 63.8461 16.7427 C 64.1925 16.7432, 64.5228 16.7387, 64.8371 16.7295, 65.152 16.7203, 65.3907 16.6883, 65.5539 16.6327, 65.6421 16.603, 65.7113 16.5417, 65.7617 16.4501, 65.8121 16.3585, 65.8373 16.2606, 65.8373 16.1564 L 65.8373 5.83291 C 65.8373 5.72986, 65.8121 5.63196, 65.7617 5.54036, 65.7113 5.44876, 65.6421 5.3875, 65.5539 5.35659, 65.3907 5.3022, 65.152 5.27185, 64.8371 5.26556, 64.5228 5.25983, 64.1925 5.2564, 63.8461 5.25582 L 63.8461 4.50469, 70.762 4.50469 C 71.3471 4.50526, 71.9231 4.58771, 72.4887 4.75259, 73.0549 4.91747, 73.5673 5.18025, 74.0265 5.53979, 74.4352 5.8581, 74.7656 6.23539, 75.0175 6.67164, 75.2694 7.10847, 75.3948 7.58021, 75.3948 8.08631 Z M 73.2152 8.08631 C 73.2152 7.70846, 73.1837 7.33461, 73.1208 6.96477, 73.0578 6.5955, 72.8849 6.27947, 72.6021 6.01612, 72.3066 5.72986, 71.9528 5.5312, 71.5406 5.42128, 71.1284 5.31136, 70.699 5.2564, 70.2525 5.25582 L 68.5733 5.25582 C 68.429 5.2564, 68.2813 5.25983, 68.1302 5.26556, 67.979 5.27185, 67.8691 5.29933, 67.7993 5.34743, 67.7432 5.39094, 67.71 5.45964, 67.7008 5.5541, 67.6916 5.64914, 67.6865 5.74189, 67.6865 5.83291 L 67.6865 10.9076, 70.2525 10.9076 C 70.699 10.9082, 71.1284 10.8533, 71.5406 10.7433, 71.9528 10.6334, 72.3066 10.4347, 72.6021 10.1473, 72.8723 9.88514, 73.0423 9.57255, 73.1116 9.209, 73.1809 8.84603, 73.2152 8.47161, 73.2152 8.08631 Z" stroke="none" fill="#000000" />
			<path d="M 85.4216 15.8908 C 85.4216 16.1295, 85.3775 16.3493, 85.2893 16.5509, 85.2011 16.7524, 85.0821 16.9345, 84.9309 17.0959, 84.7804 17.2579, 84.6012 17.3844, 84.3933 17.4755, 84.1861 17.5671, 83.9628 17.6129, 83.7235 17.6129, 83.2769 17.6129, 82.9111 17.4514, 82.6249 17.128, 82.3386 16.8045, 82.1892 16.548, 82.1766 16.3579, 82.0701 16.6087, 81.7901 16.8978, 81.3373 17.2241, 80.8844 17.5505, 80.3657 17.7136, 79.7806 17.7136, 79.4033 17.7136, 79.0243 17.6741, 78.6442 17.5946, 78.264 17.5155, 77.9148 17.397, 77.5971 17.2379, 77.2793 17.0793, 77.0229 16.8669, 76.8282 16.6012, 76.6335 16.3356, 76.5356 16.0104, 76.5356 15.6251, 76.5356 15.0824, 76.7011 14.6061, 77.0309 14.1967, 77.3612 13.7879, 77.7654 13.461, 78.2429 13.216, 78.8469 12.9234, 79.4709 12.7254, 80.1155 12.6212, 80.7602 12.5175, 81.3842 12.45, 81.9877 12.4191 L 81.9877 11.6863 C 81.9877 11.412, 81.9407 11.1389, 81.8462 10.867, 81.7523 10.5956, 81.6109 10.3586, 81.422 10.1565, 81.0573 9.73571, 80.6142 9.52789, 80.0921 9.53362, 79.6644 9.53419, 79.27 9.60289, 78.9081 9.74029, 78.5463 9.8777, 78.303 10.0225, 78.177 10.1748 L 78.0826 10.1748 C 78.3093 10.1754, 78.52 10.2367, 78.7146 10.358, 78.9476 10.5172, 79.0638 10.7679, 79.0638 11.1092, 79.0638 11.4275, 78.9585 11.6656, 78.7478 11.8242, 78.5371 11.9834, 78.3156 12.0624, 78.0826 12.0618, 77.8438 12.0624, 77.6188 11.9834, 77.4081 11.8242, 77.1975 11.6656, 77.0921 11.4275, 77.0921 11.1092, 77.0921 10.7554, 77.182 10.441, 77.3612 10.1662, 77.5404 9.89144, 77.7728 9.66243, 78.0591 9.47923, 78.3453 9.29603, 78.6659 9.16034, 79.0209 9.0716, 79.3764 8.98344, 79.7337 8.93878, 80.0921 8.93821, 80.5323 8.93878, 80.9583 9.0029, 81.3699 9.13114, 81.7821 9.25939, 82.1577 9.45805, 82.4972 9.72598, 82.8052 9.97674, 83.0537 10.2687, 83.2426 10.6013, 83.4315 10.9345, 83.5254 11.2958, 83.5254 11.6863 L 83.5254 15.8908 C 83.5254 16.1415, 83.5775 16.3619, 83.6811 16.5509, 83.7853 16.7404, 83.9405 16.8348, 84.1477 16.8343, 84.343 16.8348, 84.4907 16.7404, 84.5914 16.5509, 84.6922 16.3619, 84.742 16.1415, 84.742 15.8908 L 84.742 14.5992, 85.4216 14.5992, 85.4216 15.8908 Z M 81.9877 13.0053 C 81.5663 13.0242, 81.1214 13.0826, 80.6531 13.1799, 80.1848 13.2778, 79.7491 13.4484, 79.3467 13.6923, 79.0009 13.9007, 78.7261 14.1801, 78.5217 14.5311, 78.3173 14.8826, 78.2148 15.2473, 78.2148 15.6251, 78.2148 15.8392, 78.256 16.035, 78.3373 16.2119, 78.4192 16.3894, 78.5337 16.5451, 78.6814 16.6791, 78.8291 16.8137, 79.0009 16.919, 79.1955 16.9951, 79.3907 17.0719, 79.5986 17.1096, 79.8184 17.1091, 80.1264 17.1096, 80.4098 17.0547, 80.6674 16.9448, 80.9251 16.8348, 81.1529 16.6791, 81.351 16.4776, 81.5491 16.2761, 81.7048 16.0413, 81.8182 15.7723, 81.9315 15.5037, 81.9877 15.2198, 81.9877 14.9198 Z" stroke="none" fill="#000000" />
			<path d="M 1.55535 9.07213 C -4.56041 4.98967, -4.56041 -4.98967, 1.55535 -9.07213 L 2.51587 -9.07213 C -2.99957 -4.98967, -2.99957 4.98967, 2.51587 9.07213" stroke="none" fill="#000000" transform="matrix(1 0 -0 1 16.3593 11.8861)" />
			<path d="M 1.55535 9.07213 C -4.56041 4.98967, -4.56041 -4.98967, 1.55535 -9.07213 L 2.51587 -9.07213 C -2.99957 -4.98967, -2.99957 4.98967, 2.51587 9.07213" stroke="none" fill="#000000" transform="matrix(-1 1.50996e-007 -1.50996e-007 -1 88.701 11.8861)" />
			<rect />
		</svg>
	</g>
	<g transform="matrix(1 0 -0 1 233.865 157.263)">
		<svg width="327.052185" height="119.999962">
			<defs />
			<path d="M 12.858 4.99934 C 12.8208 5.18312, 12.7074 5.27472, 12.5185 5.27414, 12.3176 5.27472, 12.1258 5.29762, 11.9431 5.34342, 11.7611 5.38922, 11.583 5.46708, 11.4101 5.577, 11.2372 5.68692, 11.0786 5.81975, 10.9338 5.97547, 10.789 6.13119, 10.6567 6.30695, 10.537 6.50161 L 3.65892 17.6862 C 3.56503 17.8573, 3.42018 17.9398, 3.22496 17.9335 L 3.04576 17.9335 C 2.81332 17.9335, 2.69996 17.8362, 2.70626 17.6404 L 1.52689 5.94284 C 1.5017 5.78482, 1.47651 5.66116, 1.45132 5.57242, 1.42613 5.48426, 1.38834 5.42128, 1.33796 5.38407, 1.25037 5.33598, 1.11068 5.30563, 0.918313 5.29304, 0.726522 5.28101, 0.507824 5.27472, 0.26279 5.27414, 0.168325 5.27472, 0.0990518 5.24437, 0.0549685 5.18254, 0.0171829 5.14647, -0.00170994 5.10067, -0.00170994 5.04514, -0.00170994 5.00907, 0.00802273 4.97529, 0.0269156 4.94438 L 0.0549685 4.80698 C 0.0744339 4.72797, 0.1168 4.66099, 0.182638 4.60603, 0.249049 4.55106, 0.329201 4.52358, 0.423092 4.52301, 1.02709 4.56022, 1.63739 4.57854, 2.25341 4.57797, 2.34787 4.57854, 2.44863 4.57225, 2.55512 4.55965, 3.28507 4.56022, 4.01502 4.5482, 4.7444 4.52301, 4.83256 4.52358, 4.911 4.55393, 4.98027 4.61461, 5.00546 4.66385, 5.01806 4.70965, 5.01806 4.75202, 5.01806 4.78923, 5.0089 4.82301, 4.98943 4.85278 L 4.96138 4.99018 C 4.94248 5.07606, 4.89668 5.14533, 4.82455 5.19686, 4.75241 5.24895, 4.67512 5.27472, 4.59325 5.27414, 4.37341 5.27472, 4.17189 5.28388, 3.98926 5.3022, 3.8072 5.32052, 3.628 5.36918, 3.45167 5.44819, 3.34518 5.50372, 3.2948 5.59532, 3.30053 5.72299 L 3.30053 5.78711 C 3.52094 7.4119, 3.69728 9.04412, 3.82895 10.6838, 3.9612 12.3235, 4.10261 13.8761, 4.25376 15.3412 L 9.82027 6.28176 C 9.90214 6.15409, 9.95252 6.01955, 9.97141 5.87871 L 9.97141 5.83291 C 9.97141 5.74189, 9.94965 5.65944, 9.905 5.58559, 9.76702 5.37834, 9.50939 5.27472, 9.13154 5.27414, 8.9678 5.27472, 8.88593 5.19228, 8.88593 5.02682 L 8.88593 4.9627, 8.92372 4.79782 C 8.99356 4.61519, 9.11608 4.52358, 9.29184 4.52301, 9.84546 4.5482, 10.4019 4.56022, 10.9619 4.55965, 11.0374 4.57225, 11.1101 4.57854, 11.1788 4.57797, 11.6569 4.57854, 12.1475 4.56022, 12.6508 4.52301, 12.8208 4.52358, 12.9118 4.60603, 12.9244 4.77034 L 12.9244 4.84362 Z" stroke="none" fill="#000000" />
			<polyline points="-5.2528 -5.2528 5.2528 5.2528" fill="none" stroke="#000000" stroke-width="0.750400007" stroke-linecap="round" stroke-linejoin="round" transform="matrix(1 0 0 1 28.2155 11.8861)" />
			<polyline points="5.2528 -5.2528 -5.2528 5.2528" fill="none" stroke="#000000" stroke-width="0.750400007" stroke-linecap="round" stroke-linejoin="round" transform="matrix(1 0 0 1 28.2155 11.8861)" />
			<path d="M 45.736 17.4456 C 44.6021 17.4097, 43.499 17.3917, 42.4263 17.3917, 41.3541 17.3917, 40.251 17.4097, 39.1171 17.4456 L 39.1171 16.6736, 39.7551 16.6736 C 39.9582 16.6742, 40.1495 16.6713, 40.3279 16.6652, 40.5069 16.6596, 40.6763 16.6444, 40.8368 16.6203, 40.9973 16.5967, 41.1358 16.5726, 41.2525 16.5479, 41.3513 16.5305, 41.4326 16.4755, 41.4972 16.3824, 41.5622 16.2898, 41.5942 16.1866, 41.5942 16.0721 L 41.5942 5.95511 C 41.2868 6.10547, 40.9075 6.21937, 40.4575 6.29679, 40.0075 6.37478, 39.5149 6.4135, 38.9786 6.41293 L 38.9786 5.64989 C 39.718 5.65045, 40.4008 5.56237, 41.0264 5.38563, 41.652 5.20946, 42.1929 4.87844, 42.6485 4.39312 L 42.9352 4.39312 C 43.1383 4.39368, 43.2398 4.49243, 43.2398 4.68936 L 43.2398 16.0721 C 43.2398 16.1922, 43.2707 16.2971, 43.3324 16.3869, 43.3941 16.4767, 43.4839 16.5305, 43.6006 16.5479, 43.6993 16.5726, 43.8261 16.5967, 43.9799 16.6203, 44.1336 16.6444, 44.3075 16.6596, 44.5016 16.6652, 44.6958 16.6713, 44.8854 16.6742, 45.0705 16.6736 L 45.736 16.6736, 45.736 17.4456 Z" stroke="none" fill="#000000" />
			<path d="M 56.535 11.1976 C 56.535 12.06, 56.4749 12.9173, 56.3549 13.7701, 56.2348 14.6229, 55.9375 15.4236, 55.4628 16.1709, 55.1239 16.7162, 54.6706 17.1348, 54.1039 17.4277, 53.5372 17.7211, 52.9206 17.8675, 52.2547 17.8675, 51.6139 17.8675, 51.0085 17.7211, 50.4385 17.4277, 49.8685 17.1348, 49.4135 16.7162, 49.0746 16.1709, 48.6005 15.4236, 48.3031 14.6229, 48.183 13.7701, 48.063 12.9173, 48.0024 12.06, 48.0024 11.1976, 48.0024 10.3246, 48.063 9.45219, 48.183 8.58143, 48.3031 7.71066, 48.6005 6.89545, 49.0746 6.13465, 49.4135 5.58481, 49.8668 5.15672, 50.4335 4.85151, 51.0007 4.54629, 51.6078 4.39368, 52.2547 4.39312, 52.9145 4.39368, 53.5288 4.54629, 54.0989 4.85151, 54.6689 5.15672, 55.1239 5.58481, 55.4628 6.13465, 55.9375 6.89545, 56.2348 7.71066, 56.3549 8.58143, 56.4749 9.45219, 56.535 10.3246, 56.535 11.1976 Z M 54.7042 10.8835 C 54.7042 10.507, 54.7014 10.1092, 54.6953 9.69008, 54.6897 9.27153, 54.6739 8.8614, 54.6493 8.46024, 54.6246 8.05964, 54.5802 7.68093, 54.5152 7.32466, 54.4506 6.96894, 54.3721 6.66485, 54.2795 6.41293, 54.0944 6.00673, 53.8234 5.6729, 53.466 5.41257, 53.1086 5.15223, 52.7046 5.02207, 52.2547 5.02151, 51.817 5.02207, 51.4215 5.15392, 51.0669 5.41705, 50.7129 5.68075, 50.443 6.01234, 50.2578 6.41293, 50.1658 6.66485, 50.0873 6.96894, 50.0222 7.32466, 49.9577 7.68093, 49.9128 8.05964, 49.8881 8.46024, 49.8634 8.8614, 49.8483 9.27153, 49.8421 9.69008, 49.8359 10.1092, 49.8326 10.507, 49.8326 10.8835, 49.8326 11.3031, 49.8359 11.7447, 49.8421 12.2081, 49.8483 12.6721, 49.8634 13.121, 49.8881 13.5547, 49.9128 13.9889, 49.9577 14.4002, 50.0222 14.789, 50.0873 15.1784, 50.1658 15.5043, 50.2578 15.7669, 50.4307 16.2045, 50.6977 16.5636, 51.0579 16.8447, 51.4181 17.1264, 51.817 17.2666, 52.2547 17.2661, 52.7108 17.2666, 53.1193 17.1264, 53.4795 16.8447, 53.8402 16.5636, 54.1067 16.2045, 54.2795 15.7669, 54.3721 15.5043, 54.4506 15.1784, 54.5152 14.789, 54.5802 14.4002, 54.6246 13.9889, 54.6493 13.5547, 54.6739 13.121, 54.6897 12.6721, 54.6953 12.2081, 54.7014 11.7447, 54.7042 11.3031, 54.7042 10.8835 Z" stroke="none" fill="#000000" />
			<polyline points="-2.27972 0 2.27972 0" fill="none" stroke="#000000" stroke-width="0.420223981" stroke-linecap="round" stroke-linejoin="round" transform="matrix(1 0 0 1 60.8864 6.78726)" />
			<path d="M 2.81931 1.26324 C 2.81931 1.55755, 2.75423 1.84001, 2.62406 2.10996, 2.4939 2.38023, 2.31949 2.61106, 2.10083 2.80214, 1.85461 3.01791, 1.58242 3.17757, 1.28489 3.28177, 0.987372 3.38629, 0.676384 3.43822, 0.352252 3.43822, 0.0601807 3.43822, -0.224838 3.39719, -0.503123 3.31511, -0.781409 3.23304, -1.03212 3.11537, -1.2559 2.96148, -1.47969 2.80759, -1.65826 2.61876, -1.79228 2.39465, -1.92597 2.17087, -1.99298 1.91342, -1.99298 1.62232, -1.99298 1.40366, -1.91988 1.24047, -1.77368 1.13275, -1.62749 1.02503, -1.4736 0.971165, -1.31169 0.970845, -1.14241 0.971165, -0.984993 1.02503, -0.838797 1.13275, -0.692601 1.24047, -0.619503 1.40366, -0.619503 1.62232, -0.619503 1.75248, -0.644831 1.86117, -0.696128 1.94837, -0.747104 2.03558, -0.812187 2.10835, -0.891697 2.16638, -0.970886 2.22473, -1.06162 2.26032, -1.16357 2.27379, -1.21615 2.28789, -1.26552 2.29462, -1.31169 2.2943, -1.35722 2.29462, -1.36427 2.29815, -1.33285 2.30456, -1.22352 2.49629, -1.00872 2.66589, -0.688112 2.81272, -0.367507 2.95988, -0.0209324 3.0333, 0.352252 3.03298, 0.528585 3.0333, 0.693056 2.9897, 0.846305 2.90249, 0.999555 2.81529, 1.12748 2.69827, 1.22943 2.55079, 1.35639 2.35971, 1.44263 2.15452, 1.48816 1.93555, 1.534 1.71689, 1.55677 1.49279, 1.55677 1.26324, 1.55677 1.02759, 1.534 0.801244, 1.48816 0.583874, 1.44263 0.366824, 1.35639 0.165804, 1.22943 -0.0191851, 1.12363 -0.169228, 0.995066 -0.290738, 0.84374 -0.383072, 0.692415 -0.475407, 0.528585 -0.521574, 0.352252 -0.521894 L -0.413674 -0.521894 C -0.515627 -0.521574, -0.57013 -0.569344, -0.577183 -0.665526 L -0.577183 -0.721952 C -0.577183 -0.762669, -0.564679 -0.79505, -0.540313 -0.819416, -0.508573 -0.849874, -0.468177 -0.865263, -0.418804 -0.865584, -0.316531 -0.879049, -0.211051 -0.885782, -0.102046 -0.886102, 0.00375414 -0.885782, 0.107951 -0.892514, 0.209903 -0.906621, 0.400023 -0.920087, 0.565455 -0.978757, 0.706201 -1.08327, 0.847267 -1.18747, 0.96525 -1.32084, 1.06015 -1.48339, 1.15537 -1.64562, 1.22751 -1.83285, 1.27688 -2.04509, 1.32625 -2.25701, 1.35094 -2.47438, 1.35094 -2.69688, 1.35094 -2.86071, 1.33331 -3.01621, 1.29804 -3.16336, 1.26277 -3.3102, 1.19769 -3.43876, 1.10247 -3.54841, 0.905297 -3.7738, 0.655225 -3.88505, 0.352252 -3.88184, 0.0284407 -3.88152, -0.268119 -3.8206, -0.537428 -3.69942, -0.806736 -3.57791, -0.987558 -3.4471, -1.07925 -3.30731, -1.10362 -3.30347, -1.09143 -3.30186, -1.04206 -3.30219, -0.915101 -3.30186, -0.795515 -3.26435, -0.682983 -3.18933, -0.513703 -3.08994, -0.429384 -2.92227, -0.429384 -2.68662, -0.429384 -2.48785, -0.493505 -2.33812, -0.622068 -2.23745, -0.75063 -2.13646, -0.894262 -2.08613, -1.05264 -2.08645, -1.20749 -2.08613, -1.35273 -2.1355, -1.48834 -2.23489, -1.62396 -2.33396, -1.69193 -2.48464, -1.69193 -2.68662, -1.69193 -2.93605, -1.63197 -3.15631, -1.51239 -3.34803, -1.39248 -3.53943, -1.23859 -3.70358, -1.05008 -3.84048, -0.86156 -3.97706, -0.644189 -4.08158, -0.397644 -4.15339, -0.151098 -4.22521, 0.098974 -4.26112, 0.352252 -4.26144, 0.623485 -4.26112, 0.88606 -4.22521, 1.13966 -4.15339, 1.39326 -4.08158, 1.63275 -3.97033, 1.85782 -3.82028, 2.0412 -3.69012, 2.19509 -3.53014, 2.32013 -3.34034, 2.44516 -3.15054, 2.50768 -2.93605, 2.50768 -2.69688, 2.50768 -2.45707, 2.46472 -2.23136, 2.37848 -2.01944, 2.29224 -1.8072, 2.17778 -1.6158, 2.03511 -1.44492, 1.89244 -1.27371, 1.72252 -1.12335, 1.52535 -0.993505, 1.32818 -0.863339, 1.18006 -0.781585, 1.08131 -0.747601, 1.16595 -0.737021, 1.31054 -0.686365, 1.51477 -0.595954, 1.71899 -0.505223, 1.91424 -0.384675, 2.10083 -0.234632, 2.31949 -0.0461159, 2.4939 0.178629, 2.62406 0.440243, 2.75423 0.701857, 2.81931 0.976295, 2.81931 1.26324 Z" stroke="none" fill="#000000" transform="matrix(1.12 0 0 1 68.6202 6.78726)" />
			<path d="M 90.0019 17.5121 C 89.2221 17.4697, 88.471 17.448, 87.7473 17.448, 87.0242 17.448, 86.2634 17.4697, 85.4647 17.5121 L 85.4647 16.7427 C 85.7475 16.7432, 86.0069 16.7387, 86.2428 16.7295, 86.4786 16.7203, 86.6567 16.6883, 86.7758 16.6327, 86.8513 16.5967, 86.9034 16.5325, 86.9315 16.4409, 86.9601 16.3493, 86.9739 16.2549, 86.9739 16.1564 L 86.9739 11.6863 C 86.9739 11.3817, 86.955 11.0931, 86.9172 10.8212, 86.8794 10.5498, 86.7855 10.2973, 86.6344 10.0649, 86.5462 9.91892, 86.4191 9.81243, 86.2525 9.74487, 86.0859 9.67789, 85.8987 9.64411, 85.6909 9.64354, 85.3325 9.64411, 84.9993 9.71911, 84.6913 9.86854, 84.3832 10.0185, 84.1176 10.2201, 83.8943 10.4731, 83.671 10.7267, 83.4936 11.0244, 83.3613 11.3662, 83.2296 11.7086, 83.1632 12.0653, 83.1632 12.4374 L 83.1632 16.1564 C 83.1632 16.2606, 83.1758 16.3574, 83.201 16.4455, 83.2262 16.5343, 83.2794 16.5967, 83.3613 16.6327, 83.481 16.6883, 83.6584 16.7203, 83.8943 16.7295, 84.1302 16.7387, 84.3895 16.7432, 84.6724 16.7427 L 84.6724 17.5121 C 83.8737 17.4697, 83.1128 17.448, 82.3892 17.448, 81.6541 17.448, 80.9024 17.4697, 80.1352 17.5121 L 80.1352 16.7427 C 80.418 16.7432, 80.6774 16.7387, 80.9133 16.7295, 81.1491 16.7203, 81.3272 16.6883, 81.4463 16.6327, 81.5155 16.5967, 81.5625 16.5343, 81.5877 16.4455, 81.6129 16.3574, 81.6255 16.2606, 81.6255 16.1564 L 81.6255 11.6863 C 81.6255 11.3817, 81.6083 11.0931, 81.5739 10.8212, 81.5396 10.5498, 81.4463 10.2973, 81.2951 10.0649, 81.2012 9.91892, 81.0707 9.81243, 80.9041 9.74487, 80.7375 9.67789, 80.5503 9.64411, 80.3425 9.64354, 79.9841 9.64411, 79.6497 9.71911, 79.3383 9.86854, 79.0268 10.0185, 78.7612 10.2201, 78.5408 10.4731, 78.3209 10.7267, 78.1446 11.0244, 78.0124 11.3662, 77.8807 11.7086, 77.8143 12.0653, 77.8143 12.4374 L 77.8143 16.1564 C 77.8143 16.2606, 77.8269 16.3574, 77.8521 16.4455, 77.8772 16.5343, 77.9276 16.5967, 78.0032 16.6327, 78.1229 16.6883, 78.302 16.7203, 78.5408 16.7295, 78.7801 16.7387, 79.0377 16.7432, 79.3142 16.7427 L 79.3142 17.503 C 78.9936 17.4909, 78.6982 17.4818, 78.428 17.4755, 78.1578 17.4697, 77.8933 17.4606, 77.6351 17.448 L 77.0408 17.448 C 76.3051 17.448, 75.5534 17.4697, 74.7863 17.5121 L 74.7863 16.7427 C 75.0697 16.7432, 75.329 16.7387, 75.5649 16.7295, 75.8008 16.7203, 75.9788 16.6883, 76.0979 16.6327, 76.1735 16.5967, 76.2233 16.5343, 76.2485 16.4455, 76.2736 16.3574, 76.2862 16.2606, 76.2862 16.1564 L 76.2862 10.9534 C 76.2862 10.7828, 76.2788 10.6277, 76.2628 10.4868, 76.2473 10.3466, 76.1861 10.2332, 76.079 10.1473, 75.9725 10.0746, 75.7996 10.0323, 75.5603 10.0197, 75.321 10.0077, 75.0634 10.0014, 74.7863 10.0008 L 74.7863 9.24049, 76.4088 9.12141, 77.7106 9.02065, 77.7106 10.5962 C 77.8303 10.3157, 78.14 9.98475, 78.6398 9.60289, 79.1402 9.2216, 79.7265 9.03038, 80.3992 9.02981, 80.7518 9.03038, 81.1148 9.0716, 81.4886 9.15404, 81.8631 9.23648, 82.1917 9.41511, 82.4745 9.68934, 82.6634 9.87312, 82.8066 10.0735, 82.9039 10.2899, 83.0012 10.5069, 83.0499 10.6242, 83.0499 10.642, 83.2199 10.2762, 83.5502 9.91605, 84.0403 9.56167, 84.531 9.20786, 85.0972 9.03038, 85.7384 9.02981, 86.0905 9.03038, 86.4569 9.0716, 86.837 9.15404, 87.2177 9.23648, 87.5498 9.41511, 87.8326 9.68991, 88.1154 9.96472, 88.2998 10.2807, 88.3845 10.638, 88.4692 10.9952, 88.5116 11.345, 88.5116 11.6863 L 88.5116 16.1564 C 88.5116 16.2606, 88.5242 16.3574, 88.5494 16.4455, 88.5746 16.5343, 88.6284 16.5967, 88.7097 16.6327, 88.8294 16.6883, 89.0068 16.7203, 89.2427 16.7295, 89.4786 16.7387, 89.7316 16.7432, 90.0019 16.7427 L 90.0019 17.5121 Z" stroke="none" fill="#000000" />
			<path d="M 2.81931 1.26324 C 2.81931 1.55755, 2.75423 1.84001, 2.62406 2.10996, 2.4939 2.38023, 2.31949 2.61106, 2.10083 2.80214, 1.85461 3.01791, 1.58242 3.17757, 1.28489 3.28177, 0.987372 3.38629, 0.676384 3.43822, 0.352252 3.43822, 0.0601807 3.43822, -0.224838 3.39719, -0.503123 3.31511, -0.781409 3.23304, -1.03212 3.11537, -1.2559 2.96148, -1.47969 2.80759, -1.65826 2.61876, -1.79228 2.39465, -1.92597 2.17087, -1.99298 1.91342, -1.99298 1.62232, -1.99298 1.40366, -1.91988 1.24047, -1.77368 1.13275, -1.62749 1.02503, -1.4736 0.971165, -1.31169 0.970845, -1.14241 0.971165, -0.984993 1.02503, -0.838797 1.13275, -0.692601 1.24047, -0.619503 1.40366, -0.619503 1.62232, -0.619503 1.75248, -0.644831 1.86117, -0.696128 1.94837, -0.747104 2.03558, -0.812187 2.10835, -0.891697 2.16638, -0.970886 2.22473, -1.06162 2.26032, -1.16357 2.27379, -1.21615 2.28789, -1.26552 2.29462, -1.31169 2.2943, -1.35722 2.29462, -1.36427 2.29815, -1.33285 2.30456, -1.22352 2.49629, -1.00872 2.66589, -0.688112 2.81272, -0.367507 2.95988, -0.0209324 3.0333, 0.352252 3.03298, 0.528585 3.0333, 0.693056 2.9897, 0.846305 2.90249, 0.999555 2.81529, 1.12748 2.69827, 1.22943 2.55079, 1.35639 2.35971, 1.44263 2.15452, 1.48816 1.93555, 1.534 1.71689, 1.55677 1.49279, 1.55677 1.26324, 1.55677 1.02759, 1.534 0.801244, 1.48816 0.583874, 1.44263 0.366824, 1.35639 0.165804, 1.22943 -0.0191851, 1.12363 -0.169228, 0.995066 -0.290738, 0.84374 -0.383072, 0.692415 -0.475407, 0.528585 -0.521574, 0.352252 -0.521894 L -0.413674 -0.521894 C -0.515627 -0.521574, -0.57013 -0.569344, -0.577183 -0.665526 L -0.577183 -0.721952 C -0.577183 -0.762669, -0.564679 -0.79505, -0.540313 -0.819416, -0.508573 -0.849874, -0.468177 -0.865263, -0.418804 -0.865584, -0.316531 -0.879049, -0.211051 -0.885782, -0.102046 -0.886102, 0.00375414 -0.885782, 0.107951 -0.892514, 0.209903 -0.906621, 0.400023 -0.920087, 0.565455 -0.978757, 0.706201 -1.08327, 0.847267 -1.18747, 0.96525 -1.32084, 1.06015 -1.48339, 1.15537 -1.64562, 1.22751 -1.83285, 1.27688 -2.04509, 1.32625 -2.25701, 1.35094 -2.47438, 1.35094 -2.69688, 1.35094 -2.86071, 1.33331 -3.01621, 1.29804 -3.16336, 1.26277 -3.3102, 1.19769 -3.43876, 1.10247 -3.54841, 0.905297 -3.7738, 0.655225 -3.88505, 0.352252 -3.88184, 0.0284407 -3.88152, -0.268119 -3.8206, -0.537428 -3.69942, -0.806736 -3.57791, -0.987558 -3.4471, -1.07925 -3.30731, -1.10362 -3.30347, -1.09143 -3.30186, -1.04206 -3.30219, -0.915101 -3.30186, -0.795515 -3.26435, -0.682983 -3.18933, -0.513703 -3.08994, -0.429384 -2.92227, -0.429384 -2.68662, -0.429384 -2.48785, -0.493505 -2.33812, -0.622068 -2.23745, -0.75063 -2.13646, -0.894262 -2.08613, -1.05264 -2.08645, -1.20749 -2.08613, -1.35273 -2.1355, -1.48834 -2.23489, -1.62396 -2.33396, -1.69193 -2.48464, -1.69193 -2.68662, -1.69193 -2.93605, -1.63197 -3.15631, -1.51239 -3.34803, -1.39248 -3.53943, -1.23859 -3.70358, -1.05008 -3.84048, -0.86156 -3.97706, -0.644189 -4.08158, -0.397644 -4.15339, -0.151098 -4.22521, 0.098974 -4.26112, 0.352252 -4.26144, 0.623485 -4.26112, 0.88606 -4.22521, 1.13966 -4.15339, 1.39326 -4.08158, 1.63275 -3.97033, 1.85782 -3.82028, 2.0412 -3.69012, 2.19509 -3.53014, 2.32013 -3.34034, 2.44516 -3.15054, 2.50768 -2.93605, 2.50768 -2.69688, 2.50768 -2.45707, 2.46472 -2.23136, 2.37848 -2.01944, 2.29224 -1.8072, 2.17778 -1.6158, 2.03511 -1.44492, 1.89244 -1.27371, 1.72252 -1.12335, 1.52535 -0.993505, 1.32818 -0.863339, 1.18006 -0.781585, 1.08131 -0.747601, 1.16595 -0.737021, 1.31054 -0.686365, 1.51477 -0.595954, 1.71899 -0.505223, 1.91424 -0.384675, 2.10083 -0.234632, 2.31949 -0.0461159, 2.4939 0.178629, 2.62406 0.440243, 2.75423 0.701857, 2.81931 0.976295, 2.81931 1.26324 Z" stroke="none" fill="#000000" transform="matrix(1.12 0 0 1 93.9155 6.78726)" />
			<path d="M 1.55535 9.07213 C -4.56041 4.98967, -4.56041 -4.98967, 1.55535 -9.07213 L 2.51587 -9.07213 C -2.99957 -4.98967, -2.99957 4.98967, 2.51587 9.07213" stroke="none" fill="#000000" transform="matrix(1 0 -0 1 19.4921 11.8861)" />
			<path d="M 1.55535 9.07213 C -4.56041 4.98967, -4.56041 -4.98967, 1.55535 -9.07213 L 2.51587 -9.07213 C -2.99957 -4.98967, -2.99957 4.98967, 2.51587 9.07213" stroke="none" fill="#000000" transform="matrix(-1 1.50996e-007 -1.50996e-007 -1 102.62 11.8861)" />
			<rect />
		</svg>
	</g>
	<path d="M 0 43.0938 L 0 -43.0937" fill="none" stroke="#000000" stroke-opacity="0.388235271" stroke-width="1.86666667" stroke-linecap="round" stroke-linejoin="round" stroke-dasharray="6.54267, 4.65733" transform="matrix(0.714286 0 0 0.714286 147.685 156.868)" />
	<g transform="matrix(1 0 -0 1 11.1229 53.317)">
		<svg width="30.0150681" height="45.0428467">
			<defs />
			<path d="M 7.60755 16.7669 L 0.0814935 16.7669, 0.0814935 16.2732 C 0.0814935 16.2379, 0.100008 16.184, 0.137038 16.1116 L 3.16059 12.826 C 3.51798 12.4316, 3.87987 12.0277, 4.2468 11.6147, 4.61373 11.2018, 4.94251 10.7799, 5.23202 10.349, 5.52153 9.91808, 5.75268 9.47372, 5.92549 9.01589, 6.0983 8.55807, 6.18414 8.0778, 6.18414 7.57453, 6.18414 7.15037, 6.12859 6.7537, 6.0175 6.38565, 5.90641 6.01759, 5.74651 5.69442, 5.53668 5.41613, 5.3274 5.13785, 5.06539 4.91343, 4.75119 4.74286, 4.437 4.5723, 4.07287 4.48702, 3.65993 4.48646, 3.04389 4.48702, 2.49966 4.67105, 2.02781 5.0391, 1.55652 5.40716, 1.24345 5.8128, 1.08916 6.25492, 1.05886 6.26726, 1.10823 6.27343, 1.23728 6.27287 L 1.39437 6.27287 C 1.57952 6.31551, 1.73942 6.38004, 1.8752 6.46644, 2.01098 6.5534, 2.12487 6.67291, 2.21745 6.82552, 2.31002 6.97812, 2.35603 7.16215, 2.35603 7.37704, 2.35603 7.73668, 2.23933 8.01216, 2.00481 8.20348, 1.77028 8.39536, 1.50827 8.49074, 1.21876 8.49018, 0.941598 8.49074, 0.682388 8.39536, 0.442255 8.20348, 0.202121 8.01216, 0.0814935 7.73668, 0.0814935 7.37704, 0.0814935 6.87489, 0.18024 6.39911, 0.377733 5.95026, 0.575226 5.50142, 0.842851 5.1126, 1.18173 4.78326, 1.52061 4.45448, 1.92121 4.19415, 2.38352 4.00226, 2.84583 3.81094, 3.3362 3.715, 3.85406 3.71444, 4.49535 3.715, 5.08278 3.80926, 5.61578 3.99778, 6.14879 4.18629, 6.60325 4.45728, 6.97916 4.81019, 7.35507 5.16366, 7.64963 5.57211, 7.86227 6.03554, 8.07491 6.49954, 8.18095 7.01235, 8.18095 7.57453, 8.18095 8.19731, 8.03956 8.77071, 7.75567 9.29418, 7.47233 9.81821, 7.12111 10.2985, 6.702 10.735, 6.28288 11.172, 5.8374 11.5833, 5.36555 11.9693, 4.89426 12.3553, 4.4673 12.7307, 4.08521 13.0954 L 1.95824 15.0972, 4.74165 15.0972 C 5.12991 15.0978, 5.49235 15.095, 5.82787 15.0888, 6.16394 15.0832, 6.44896 15.0708, 6.68348 15.0529, 6.918 15.0349, 7.03807 15.0232, 7.04368 15.0164, 7.09305 14.9749, 7.13962 14.8913, 7.18282 14.7656, 7.22603 14.64, 7.26586 14.4918, 7.30289 14.3213, 7.33992 14.1507, 7.37695 13.9773, 7.41398 13.8006, 7.45101 13.6244, 7.48467 13.4309, 7.51553 13.221 L 8.19946 13.221 Z" stroke="none" fill="#000000" />
			<rect />
		</svg>
	</g>
	<g transform="matrix(1 0 -0 1 9 191.897)">
		<svg width="41.9788857" height="47.9999886">
			<defs />
			<path d="M 12.2634 10.4122 C 12.0367 11.2984, 11.6703 12.1532, 11.1642 12.9776, 10.6581 13.802, 10.0209 14.556, 9.25376 15.2396, 8.56217 15.8567, 7.80531 16.3474, 6.98433 16.7103, 6.16336 17.0733, 5.34123 17.2548, 4.51739 17.2548, 3.68725 17.2548, 2.94929 17.0722, 2.30464 16.7058, 1.65999 16.3394, 1.14588 15.8447, 0.762298 15.2212, 0.340931 14.5319, 0.0987594 13.7682, 0.0357833 12.9312, 0.0105929 12.7303, -0.00200236 12.5287, -0.00200236 12.3266, -0.00200236 11.698, 0.0798666 11.0477, 0.243032 10.3755, 0.482341 9.4784, 0.85161 8.60704, 1.35198 7.76087, 1.85236 6.91528, 2.49185 6.1504, 3.27161 5.46568, 3.96377 4.84966, 4.72006 4.35329, 5.54104 3.97773, 6.36202 3.60216, 7.19044 3.41438, 8.02687 3.41381, 8.85701 3.41438, 9.59154 3.60388, 10.2299 3.98231, 10.8688 4.36131, 11.3795 4.86168, 11.7631 5.484, 12.1844 6.17445, 12.4329 6.9439, 12.5085 7.79236, 12.5211 8.00075, 12.5274 8.20514, 12.5274 8.40609, 12.5274 9.0599, 12.4398 9.72859, 12.2634 10.4122 Z M 10.3576 5.79545 C 10.1503 5.28305, 9.83887 4.86626, 9.42323 4.54566, 9.00816 4.22505, 8.49862 4.06475, 7.89462 4.06418, 7.2975 4.06475, 6.70323 4.22849, 6.11183 4.55482, 5.521 4.88172, 4.99257 5.30423, 4.52655 5.82293, 3.94144 6.45269, 3.47943 7.13512, 3.13993 7.87079, 2.80043 8.60704, 2.53593 9.35302, 2.34701 10.1099, 2.12716 10.9349, 1.99205 11.7381, 1.94167 12.519, 1.92907 12.6661, 1.92278 12.8127, 1.92278 12.9587, 1.92278 13.5701, 2.02354 14.1684, 2.22449 14.7541, 2.41971 15.2739, 2.71856 15.709, 3.12104 16.06, 3.52351 16.4115, 4.02675 16.5867, 4.63017 16.5861, 5.25306 16.5867, 5.86222 16.4081, 6.45648 16.0508, 7.05075 15.6936, 7.58375 15.2522, 8.0555 14.7266, 8.6658 14.019, 9.14041 13.2707, 9.4799 12.4829, 9.81997 11.6952, 10.0965 10.8919, 10.31 10.0732, 10.5053 9.31066, 10.6278 8.55952, 10.6782 7.81984 L 10.6782 7.49924 C 10.6782 6.88894, 10.5717 6.32101, 10.3576 5.79545 Z" stroke="none" fill="#000000" />
			<rect />
		</svg>
	</g>
	<path d="M -83.8705 0 L 83.8704 0" fill="none" stroke="#000000" stroke-opacity="0.388235271" stroke-width="1.86666667" stroke-linecap="round" stroke-linejoin="round" stroke-dasharray="6.54267, 4.65733" transform="matrix(0.714286 0 0 0.714286 87.7775 126.087)" />
	<path d="M -83.8705 0 L 83.8704 0" fill="none" stroke="#000000" stroke-opacity="0.388235271" stroke-width="1.86666667" stroke-linecap="round" stroke-linejoin="round" stroke-dasharray="6.54267, 4.65733" transform="matrix(0.714286 0 0 0.714286 87.7775 64.5244)" />
	<path d="M 41.9351 0 L -41.9352 0" fill="none" stroke="#000000" stroke-width="2.61333323" stroke-linecap="round" stroke-linejoin="round" transform="matrix(0.714286 0 0 0.714286 177.639 126.087)" />
	<path d="M 0 43.0938 L 0 -43.0937" fill="none" stroke="#000000" stroke-opacity="0.388235271" stroke-width="1.86666667" stroke-linecap="round" stroke-linejoin="round" stroke-dasharray="6.54267, 4.65733" transform="matrix(0.714286 0 0 0.714286 207.592 156.868)" />
	<g transform="matrix(1 0 -0 1 11.8162 114.879)">
		<svg width="23.9688396" height="45.0428467">
			<defs />
			<path d="M 6.82276 16.7669 C 5.68886 16.731, 4.58525 16.7131, 3.51251 16.7131, 2.44032 16.7131, 1.33672 16.731, 0.202257 16.7669 L 0.202257 15.9949, 0.840743 15.9949 C 1.04385 15.9955, 1.23517 15.9927, 1.41358 15.9865, 1.59256 15.9809, 1.762 15.9657, 1.92247 15.9416, 2.08293 15.918, 2.22151 15.8939, 2.33821 15.8692, 2.43696 15.8518, 2.51887 15.7969, 2.58339 15.7037, 2.64848 15.6111, 2.68046 15.5079, 2.68046 15.3935 L 2.68046 5.27643 C 2.37244 5.4268, 1.99316 5.54069, 1.54319 5.61812, 1.09322 5.6961, 0.600048 5.73482, 0.0636752 5.73426 L 0.0636752 4.97122 C 0.803713 4.97178, 1.48652 4.88369, 2.1121 4.70696, 2.73768 4.53078, 3.27855 4.19976, 3.73469 3.71444 L 4.02139 3.71444 C 4.22449 3.715, 4.32604 3.81375, 4.32604 4.01068 L 4.32604 15.3935 C 4.32604 15.5135, 4.3569 15.6184, 4.41862 15.7082, 4.48034 15.798, 4.57011 15.8518, 4.68681 15.8692, 4.78555 15.8939, 4.91235 15.918, 5.06608 15.9416, 5.22037 15.9657, 5.3943 15.9809, 5.58843 15.9865, 5.78256 15.9927, 5.97219 15.9955, 6.15678 15.9949 L 6.82276 15.9949, 6.82276 16.7669 Z" stroke="none" fill="#000000" />
			<rect />
		</svg>
	</g>
	<g transform="matrix(1 0 -0 1 133.253 124.994)">
		<svg width="30.0150681" height="32.9571342">
			<defs />
			<path d="M 8.46055 14.0579 C 8.38498 14.3579, 8.30025 14.6785, 8.20578 15.0203, 8.11189 15.3627, 7.98594 15.6798, 7.8285 15.973, 7.67163 16.2661, 7.47354 16.5197, 7.23423 16.7332, 6.9955 16.9468, 6.69665 17.0533, 6.33826 17.0533, 5.86021 17.0533, 5.47835 16.921, 5.19209 16.6554, 4.90584 16.3897, 4.74095 16.1195, 4.69687 15.8441, 4.48333 16.0892, 4.16444 16.352, 3.73964 16.6325, 3.31483 16.913, 2.86656 17.0533, 2.39481 17.0533, 1.89844 17.0533, 1.48223 16.9285, 1.14559 16.6783, 0.808958 16.4281, 0.546749 16.1132, 0.35782 15.7342, 0.131106 15.2831, 0.011452 14.7976, -0.00114328 14.2778 L -0.00114328 14.1403 C -0.00114328 13.6583, 0.0652679 13.1762, 0.196945 12.693, 0.348088 12.1623, 0.559344 11.6373, 0.829568 11.1181, 1.09979 10.5994, 1.45818 10.1167, 1.90474 9.67019, 2.26943 9.30436, 2.68622 8.99635, 3.15453 8.74559, 3.62284 8.4954, 4.09917 8.37002, 4.58351 8.36945, 5.00488 8.37002, 5.34782 8.48166, 5.61174 8.70437, 5.87624 8.92765, 6.04284 9.112, 6.11154 9.25799 L 6.07376 9.41371 C 6.11841 9.18814, 6.22375 9.01753, 6.39036 8.90131, 6.55696 8.78566, 6.72527 8.72727, 6.89474 8.7267, 7.08996 8.72727, 7.2537 8.78509, 7.38538 8.90074, 7.46725 8.99291, 7.51133 9.11486, 7.51705 9.26715, 7.51705 9.32268, 7.51076 9.38394, 7.49816 9.45035 L 6.14017 14.7449 C 6.07719 14.9957, 6.03311 15.231, 6.00792 15.4503, 5.99532 15.5607, 5.98903 15.6615, 5.98903 15.7525, 5.98903 15.8327, 5.99532 15.918, 6.00792 16.009, 6.02681 16.1562, 6.07089 16.2661, 6.14017 16.3394, 6.20944 16.4126, 6.30677 16.4493, 6.43215 16.4487, 6.5644 16.4493, 6.68863 16.3943, 6.80485 16.2844, 6.92164 16.1745, 7.0287 16.0113, 7.12603 15.7943, 7.22336 15.5779, 7.3161 15.318, 7.40427 15.0157, 7.49244 14.7134, 7.58347 14.3854, 7.67736 14.0304, 7.71514 13.8724, 7.8222 13.7928, 7.99853 13.7923 L 8.21552 13.7923 C 8.37925 13.7928, 8.46055 13.8598, 8.46055 13.9938 L 8.46055 14.0579 Z M 5.76288 10.687 C 5.73769 10.5776, 5.71594 10.4631, 5.69705 10.344, 5.67815 10.225, 5.64953 10.1076, 5.61174 9.9908, 5.51098 9.70454, 5.36785 9.46466, 5.18236 9.2723, 4.99687 9.07994, 4.76271 8.98375, 4.47989 8.98318, 4.21596 8.98375, 3.9549 9.07879, 3.69727 9.26772, 3.43964 9.45722, 3.20319 9.70111, 2.98908 9.99996, 2.68793 10.4219, 2.46179 10.8604, 2.31065 11.315, 2.15951 11.7702, 2.02096 12.2448, 1.89501 12.7388, 1.76963 13.2278, 1.66601 13.7012, 1.58356 14.1587, 1.53376 14.3911, 1.50856 14.611, 1.50856 14.8182, 1.50856 15.0386, 1.53376 15.2522, 1.58356 15.4594, 1.64081 15.7468, 1.74272 15.9838, 1.89043 16.1699, 2.03814 16.3565, 2.24424 16.4493, 2.50817 16.4487, 2.79786 16.4493, 3.08869 16.3485, 3.38067 16.147, 3.67322 15.9455, 3.94517 15.6981, 4.1965 15.4045, 4.29726 15.2831, 4.39344 15.1657, 4.48447 15.0524, 4.57607 14.9396, 4.65622 14.8188, 4.72492 14.69 L 5.76288 10.687 Z" stroke="none" fill="#000000" />
			<rect />
		</svg>
	</g>
	<ellipse cx="386.95008563995361" cy="552.20362567901611" rx="3.6750001907348633" ry="3.6750001907348633" stroke="none" fill="#000000" transform="matrix(0.714286 0 0 0.714286 -128.708 -268.344)" />
	<ellipse cx="470.82038593292236" cy="552.20362567901611" rx="3.6750001907348633" ry="3.6750001907348633" stroke="none" fill="#000000" transform="matrix(0.714286 0 0 0.714286 -128.708 -268.344)" />
	<g transform="matrix(1 0 -0 1 143.544 191.897)">
		<svg width="30.0150681" height="45.0428467">
			<defs />
			<path d="M 7.60815 16.7669 L 0.0832232 16.7669, 0.0832232 16.2732 C 0.0832232 16.2379, 0.101738 16.184, 0.138768 16.1116 L 3.16176 12.826 C 3.51971 12.4316, 3.8816 12.0277, 4.24853 11.6147, 4.61546 11.2018, 4.94312 10.7799, 5.23263 10.349, 5.52213 9.91808, 5.75329 9.47372, 5.9261 9.01589, 6.0989 8.55807, 6.18475 8.0778, 6.18475 7.57453, 6.18475 7.15037, 6.12976 6.7537, 6.01867 6.38565, 5.90758 6.01759, 5.74768 5.69442, 5.53784 5.41613, 5.32801 5.13785, 5.06599 4.91343, 4.7518 4.74286, 4.43761 4.5723, 4.07404 4.48702, 3.6611 4.48646, 3.04506 4.48702, 2.50083 4.67105, 2.02954 5.0391, 1.55825 5.40716, 1.24518 5.8128, 1.09089 6.25492, 1.06059 6.26726, 1.10996 6.27343, 1.23901 6.27287 L 1.3961 6.27287 C 1.58125 6.31551, 1.74115 6.38004, 1.87693 6.46644, 2.01271 6.5534, 2.1266 6.67291, 2.21918 6.82552, 2.31175 6.97812, 2.35776 7.16215, 2.35776 7.37704, 2.35776 7.73668, 2.24106 8.01216, 2.00654 8.20348, 1.77201 8.39536, 1.51 8.49074, 1.22049 8.49018, 0.943327 8.49074, 0.684679 8.39536, 0.443984 8.20348, 0.203851 8.01216, 0.0832232 7.73668, 0.0832232 7.37704, 0.0832232 6.87489, 0.18197 6.39911, 0.379463 5.95026, 0.576956 5.50142, 0.844581 5.1126, 1.18346 4.78326, 1.52234 4.45448, 1.92294 4.19415, 2.38525 4.00226, 2.84756 3.81094, 3.33793 3.715, 3.85523 3.71444, 4.49596 3.715, 5.08339 3.80926, 5.61639 3.99778, 6.1494 4.18629, 6.60386 4.45728, 6.97977 4.81019, 7.35568 5.16366, 7.65023 5.57211, 7.86287 6.03554, 8.07552 6.49954, 8.18156 7.01235, 8.18156 7.57453, 8.18156 8.19731, 8.04017 8.77071, 7.75627 9.29418, 7.47294 9.81821, 7.12172 10.2985, 6.7026 10.735, 6.28349 11.172, 5.83801 11.5833, 5.36672 11.9693, 4.89543 12.3553, 4.46846 12.7307, 4.08638 13.0954 L 1.95997 15.0972, 4.74282 15.0972 C 5.13108 15.0978, 5.49352 15.095, 5.82903 15.0888, 6.16511 15.0832, 6.45013 15.0708, 6.68409 15.0529, 6.91861 15.0349, 7.03868 15.0232, 7.04429 15.0164, 7.09366 14.9749, 7.14023 14.8913, 7.18343 14.7656, 7.22663 14.64, 7.26647 14.4918, 7.3035 14.3213, 7.34053 14.1507, 7.37756 13.9773, 7.41459 13.8006, 7.45162 13.6244, 7.48528 13.4309, 7.51614 13.221 L 8.20007 13.221 Z" stroke="none" fill="#000000" />
			<rect />
		</svg>
	</g>
	<g transform="matrix(1 0 -0 1 203.296 191.897)">
		<svg width="30.0150681" height="47.9999886">
			<defs />
			<path d="M 8.50823 13.3826 C 8.50823 13.8977, 8.39434 14.392, 8.16655 14.8644, 7.93876 15.3374, 7.63354 15.7413, 7.2509 16.0757, 6.82 16.4533, 6.34366 16.7327, 5.823 16.9151, 5.30234 17.098, 4.75811 17.1888, 4.19088 17.1888, 3.67975 17.1888, 3.18097 17.117, 2.69397 16.9734, 2.20697 16.8298, 1.76822 16.6239, 1.3766 16.3546, 0.984985 16.0852, 0.672475 15.7548, 0.437952 15.3626, 0.20399 14.971, 0.0867284 14.5204, 0.0867284 14.011, 0.0867284 13.6284, 0.21465 13.3428, 0.470493 13.1543, 0.726336 12.9658, 0.995645 12.8715, 1.27898 12.8709, 1.57522 12.8715, 1.8507 12.9658, 2.10654 13.1543, 2.36239 13.3428, 2.49031 13.6284, 2.49031 14.011, 2.49031 14.2388, 2.44598 14.429, 2.35621 14.5816, 2.26701 14.7342, 2.15311 14.8616, 2.01397 14.9631, 1.87539 15.0652, 1.71661 15.1275, 1.53819 15.1511, 1.44618 15.1758, 1.35977 15.1875, 1.27898 15.187, 1.19931 15.1875, 1.18697 15.1937, 1.24195 15.2049, 1.43327 15.5405, 1.80918 15.8373, 2.37024 16.0942, 2.9313 16.3517, 3.53781 16.4802, 4.19088 16.4797, 4.49946 16.4802, 4.78728 16.4039, 5.05547 16.2513, 5.32366 16.0987, 5.54752 15.8939, 5.72594 15.6358, 5.94812 15.3014, 6.09904 14.9424, 6.17871 14.5592, 6.25894 14.1765, 6.29878 13.7843, 6.29878 13.3826, 6.29878 12.9702, 6.25894 12.5741, 6.17871 12.1937, 6.09904 11.8139, 5.94812 11.4621, 5.72594 11.1384, 5.54079 10.8758, 5.3158 10.6632, 5.05098 10.5016, 4.78616 10.34, 4.49946 10.2592, 4.19088 10.2586 L 2.85051 10.2586 C 2.67209 10.2592, 2.57671 10.1756, 2.56437 10.0073 L 2.56437 9.90854 C 2.56437 9.83728, 2.58625 9.78062, 2.62889 9.73798, 2.68443 9.68468, 2.75513 9.65775, 2.84153 9.65718, 3.02051 9.63362, 3.2051 9.62184, 3.39586 9.62128, 3.58101 9.62184, 3.76335 9.61005, 3.94177 9.58537, 4.27448 9.5618, 4.56398 9.45913, 4.81029 9.27623, 5.05715 9.09388, 5.26362 8.86048, 5.4297 8.57602, 5.59633 8.29213, 5.72257 7.96447, 5.80897 7.59305, 5.89538 7.22219, 5.93858 6.84179, 5.93858 6.45241, 5.93858 6.16571, 5.90772 5.8936, 5.846 5.63607, 5.78429 5.37911, 5.67039 5.15412, 5.50376 4.96224, 5.15871 4.56781, 4.72108 4.37313, 4.19088 4.37874, 3.62421 4.3793, 3.10523 4.4859, 2.63394 4.69798, 2.16265 4.91062, 1.84621 5.13953, 1.68575 5.38415, 1.64311 5.39089, 1.66443 5.39369, 1.75083 5.39313, 1.97301 5.39369, 2.18229 5.45934, 2.37922 5.59062, 2.67546 5.76455, 2.82302 6.05799, 2.82302 6.47037, 2.82302 6.81822, 2.7108 7.08024, 2.48582 7.25641, 2.26083 7.43314, 2.00948 7.52123, 1.73232 7.52067, 1.46132 7.52123, 1.20716 7.43483, 0.969836 7.2609, 0.732508 7.08753, 0.613563 6.82383, 0.613563 6.47037, 0.613563 6.03386, 0.718481 5.64841, 0.927757 5.3129, 1.13759 4.97795, 1.4069 4.69069, 1.7368 4.45111, 2.06671 4.2121, 2.44711 4.0292, 2.87856 3.90352, 3.31002 3.77784, 3.74764 3.715, 4.19088 3.71444, 4.66553 3.715, 5.12504 3.77784, 5.56884 3.90352, 6.01264 4.0292, 6.43175 4.22388, 6.82561 4.48646, 7.14654 4.71425, 7.41585 4.99422, 7.63466 5.32637, 7.85348 5.65851, 7.96288 6.03386, 7.96288 6.45241, 7.96288 6.87208, 7.8877 7.26707, 7.73677 7.63793, 7.58585 8.00935, 7.38555 8.34431, 7.13588 8.64335, 6.88621 8.94296, 6.58885 9.20609, 6.2438 9.43332, 5.89874 9.66111, 5.63953 9.80418, 5.46673 9.86365, 5.61485 9.88217, 5.86789 9.97082, 6.22528 10.129, 6.58268 10.2878, 6.92436 10.4988, 7.2509 10.7613, 7.63354 11.0913, 7.93876 11.4846, 8.16655 11.9424, 8.39434 12.4002, 8.50823 12.8805, 8.50823 13.3826 Z" stroke="none" fill="#000000" />
			<rect />
		</svg>
	</g>
	<ellipse cx="386.95008563995361" cy="466.01615619659424" rx="3.6750001907348633" ry="3.6750001907348633" stroke="none" fill="#000000" transform="matrix(0.714286 0 0 0.714286 -128.708 -268.344)" />
	<path d="M 0 -43.5084 L 0 43.5083" fill="none" stroke="#000000" stroke-width="2.61333323" stroke-linecap="round" stroke-linejoin="round" transform="matrix(0.714286 0 0 0.714286 147.685 95.6019)" />
	<ellipse cx="470.82038593292236" cy="466.01615619659424" rx="3.6750001907348633" ry="3.6750001907348633" stroke="none" fill="#000000" transform="matrix(0.714286 0 0 0.714286 -128.708 -268.344)" />
	<path d="M 0 -43.5084 L 0 43.5083" fill="none" stroke="#000000" stroke-width="2.61333323" stroke-linecap="round" stroke-linejoin="round" transform="matrix(0.714286 0 0 0.714286 207.592 95.6019)" />
	<g transform="matrix(1 0 -0 1 134.069 40.3206)">
		<svg width="23.9688396" height="47.9999886">
			<defs />
			<path d="M 6.63739 12.748 C 6.48682 13.2799, 6.27442 13.8054, 6.00076 14.3241, 5.7271 14.8434, 5.37043 15.3226, 4.93017 15.7617, 4.56548 16.1287, 4.15213 16.4355, 3.68954 16.6829, 3.22752 16.9302, 2.74776 17.0533, 2.25082 17.0533, 1.77335 17.0533, 1.37374 16.9256, 1.05313 16.6691, 0.732527 16.4126, 0.487493 16.0949, 0.317458 15.7159, 0.116507 15.2648, 0.00944746 14.7793, -0.00314784 14.2594 L -0.00314784 14.1403 C -0.00314784 13.6583, 0.0598283 13.1791, 0.185208 12.7022 L 2.08136 5.32828 C 2.13174 5.12733, 2.16323 4.97447, 2.17582 4.87027 L 2.17582 4.84279 C 2.17582 4.7884, 2.16323 4.7489, 2.13804 4.72371, 2.06247 4.67562, 1.92106 4.64184, 1.71381 4.62352, 1.50656 4.6052, 1.26725 4.59604, 0.996454 4.59547, 0.902563 4.59604, 0.833289 4.56569, 0.789206 4.50386, 0.75142 4.4678, 0.732527 4.422, 0.732527 4.36646, 0.732527 4.33039, 0.74226 4.29662, 0.76058 4.2657 L 0.789206 4.11914 C 0.839587 3.97315, 0.952371 3.88155, 1.1287 3.84433 L 3.62828 3.64281, 3.66607 3.64281 C 3.74164 3.64338, 3.80461 3.668, 3.85442 3.71609, 3.87961 3.76533, 3.89221 3.81456, 3.89221 3.86265, 3.89221 3.89987, 3.88305 3.93364, 3.86416 3.96342 L 2.50559 9.23967 C 2.64414 9.09997, 2.8989 8.91963, 3.26989 8.69979, 3.64088 8.47994, 4.03076 8.37002, 4.43953 8.36945, 4.93647 8.37002, 5.35669 8.49827, 5.69905 8.75475, 6.04198 9.01123, 6.30419 9.32554, 6.48625 9.69767, 6.70037 10.15, 6.81373 10.6389, 6.82632 11.1633 L 6.82632 11.2915 C 6.82632 11.7621, 6.76334 12.2476, 6.63739 12.748 Z M 5.26967 9.96332 C 5.21356 9.67076, 5.1065 9.43432, 4.94906 9.25398, 4.79219 9.07421, 4.58781 8.98375, 4.3359 8.98318, 4.03419 8.98375, 3.73878 9.08165, 3.44909 9.27688, 3.15997 9.47268, 2.88974 9.71943, 2.63784 10.0183, 2.44319 10.269, 2.27315 10.5043, 2.12831 10.7236 L 1.60961 12.7388 C 1.48423 13.2278, 1.38977 13.6984, 1.32679 14.1495, 1.3016 14.3396, 1.28901 14.5194, 1.28901 14.69, 1.28901 14.959, 1.32049 15.2155, 1.38347 15.4594, 1.45274 15.7411, 1.56725 15.9764, 1.72755 16.1653, 1.88785 16.3548, 2.10025 16.4493, 2.36418 16.4487, 2.62868 16.4493, 2.89089 16.352, 3.15195 16.1562, 3.41302 15.9609, 3.64717 15.7165, 3.85442 15.4228, 4.15671 15.014, 4.38457 14.5795, 4.53857 14.118, 4.69315 13.6572, 4.83284 13.1854, 4.95822 12.7022, 5.08417 12.2018, 5.19467 11.7198, 5.28856 11.2549, 5.32635 11.0356, 5.34524 10.8221, 5.34524 10.6137, 5.34524 10.3944, 5.32005 10.1774, 5.26967 9.96332 Z" stroke="none" fill="#000000" />
			<rect />
		</svg>
	</g>
	<g transform="matrix(1 0 -0 1 214.08 40.3206)">
		<svg width="27.0562763" height="32.9571342">
			<defs />
			<path d="M 7.07136 14.6075 C 7.11544 14.651, 7.13719 14.6968, 7.13719 14.7449, 7.13719 14.8005, 7.11258 14.8617, 7.0622 14.9281, 6.56526 15.6186, 5.93149 16.1458, 5.16089 16.5088, 4.39029 16.8718, 3.61855 17.0533, 2.84452 17.0533, 2.2972 17.0533, 1.82259 16.9331, 1.42011 16.692, 1.01764 16.451, 0.699895 16.135, 0.466884 15.7434, 0.202957 15.3043, 0.051814 14.8251, 0.0140283 14.3052, 0.00143313 14.1776, -0.00486451 14.0493, -0.00486451 13.9205, -0.00486451 13.5301, 0.0455164 13.1241, 0.146278 12.7022, 0.297421 12.1411, 0.528142 11.6007, 0.839587 11.0814, 1.15103 10.5627, 1.54263 10.0858, 2.01438 9.65187, 2.44834 9.27402, 2.9281 8.96543, 3.45309 8.72727, 3.97866 8.4891, 4.50537 8.37002, 5.03322 8.36945, 5.3544 8.37002, 5.65497 8.41926, 5.93492 8.51659, 6.21488 8.61448, 6.45362 8.75647, 6.65171 8.94253, 6.84979 9.12917, 6.99292 9.3473, 7.08109 9.59691, 7.10628 9.73202, 7.1183 9.86599, 7.1183 9.99996, 7.1183 10.1471, 7.09998 10.3028, 7.0622 10.4671, 6.99292 10.7425, 6.85151 10.952, 6.63739 11.0952, 6.42385 11.2389, 6.20973 11.3104, 5.99561 11.3099, 5.76947 11.3104, 5.58741 11.2309, 5.44886 11.0717, 5.3418 10.9686, 5.28799 10.8341, 5.28799 10.6686, 5.28799 10.6022, 5.30058 10.5198, 5.32577 10.4213, 5.39562 10.1534, 5.53245 9.95358, 5.73684 9.82191, 5.94122 9.6908, 6.09981 9.6221, 6.21259 9.61523, 6.15019 9.46294, 6.00076 9.31982, 5.76489 9.18528, 5.52901 9.05131, 5.24791 8.98375, 4.92044 8.98318, 4.60613 8.98375, 4.28381 9.07994, 3.95347 9.2723, 3.62313 9.46466, 3.33229 9.7137, 3.08039 10.0183, 2.74089 10.4156, 2.48155 10.845, 2.30235 11.3059, 2.12315 11.7673, 1.97029 12.2448, 1.84434 12.7388, 1.71896 13.2278, 1.62164 13.7012, 1.55179 14.1587, 1.5266 14.3058, 1.514 14.4432, 1.514 14.5709, 1.514 14.8709, 1.56438 15.1577, 1.66515 15.4319, 1.75961 15.7377, 1.9182 15.9838, 2.14147 16.1699, 2.36475 16.3565, 2.63383 16.4493, 2.94814 16.4487, 3.61511 16.4493, 4.26606 16.2787, 4.90154 15.9363, 5.53703 15.5945, 6.06202 15.1302, 6.47709 14.5434, 6.51488 14.477, 6.58758 14.4249, 6.69407 14.3877 L 6.76964 14.3877 C 6.83262 14.3882, 6.88644 14.4094, 6.92995 14.4518 L 7.07136 14.6075 Z" stroke="none" fill="#000000" />
			<rect />
		</svg>
	</g>
	<g transform="matrix(1 0 -0 1 213.19 124.994)">
		<svg width="30.0150681" height="47.9999886">
			<defs />
			<path d="M 6.14332 14.7541 C 6.02996 15.1457, 5.97328 15.4875, 5.97328 15.78, 5.97328 15.8602, 5.97958 15.9363, 5.99217 16.009, 6.02366 16.3027, 6.17137 16.4493, 6.4353 16.4487, 6.56755 16.4493, 6.69178 16.3943, 6.808 16.2844, 6.92479 16.1745, 7.03185 16.0113, 7.12918 15.7943, 7.22651 15.5779, 7.31925 15.318, 7.40742 15.0157, 7.49558 14.7134, 7.58661 14.3854, 7.68051 14.0304, 7.71829 13.8724, 7.82535 13.7928, 8.00168 13.7923 L 8.21867 13.7923 C 8.3824 13.7928, 8.4637 13.8598, 8.4637 13.9938 L 8.4637 14.0579 C 8.38813 14.3579, 8.3034 14.6785, 8.20893 15.0203, 8.11504 15.3627, 7.98909 15.6798, 7.83165 15.973, 7.67478 16.2661, 7.47669 16.5197, 7.23738 16.7332, 6.99865 16.9468, 6.6998 17.0533, 6.34141 17.0533, 5.86336 17.0533, 5.4815 16.921, 5.19524 16.6554, 4.90899 16.3897, 4.7441 16.1195, 4.70002 15.8441, 4.48647 16.0892, 4.16759 16.352, 3.74278 16.6325, 3.31798 16.913, 2.86971 17.0533, 2.39796 17.0533, 1.90159 17.0533, 1.48538 16.9285, 1.14874 16.6783, 0.812106 16.4281, 0.549897 16.1132, 0.360969 15.7342, 0.134255 15.2831, 0.0146002 14.7976, 0.00200492 14.2778 L 0.00200492 14.1403 C 0.00200492 13.6583, 0.0684161 13.1762, 0.200093 12.693, 0.351236 12.1623, 0.562492 11.6373, 0.832717 11.1181, 1.10294 10.5994, 1.46133 10.1167, 1.90789 9.67019, 2.27258 9.30436, 2.68937 8.99635, 3.15768 8.74559, 3.62599 8.4954, 4.10232 8.37002, 4.58666 8.36945, 5.00803 8.37002, 5.35096 8.48166, 5.61489 8.70437, 5.87939 8.92765, 6.04599 9.11486, 6.11469 9.26715 L 7.13376 5.32828 C 7.18414 5.12733, 7.21563 4.97447, 7.22765 4.87027 L 7.22765 4.86111 C 7.22765 4.80042, 7.2059 4.75462, 7.16181 4.72371, 7.10571 4.67562, 6.97346 4.64184, 6.76564 4.62352, 6.55839 4.6052, 6.31908 4.59604, 6.04885 4.59547, 5.87309 4.59604, 5.78493 4.5136, 5.78493 4.34814 L 5.78493 4.27486, 5.84103 4.11914 C 5.87882 3.97945, 5.99217 3.88784, 6.1811 3.84433 L 7.97306 3.69777, 8.66179 3.64281, 8.69957 3.64281 C 8.77514 3.64338, 8.84156 3.67086, 8.89766 3.72525, 8.91655 3.78078, 8.92571 3.83288, 8.92571 3.88097 L 8.92571 3.9451 Z M 5.76603 10.687 C 5.74084 10.5776, 5.71909 10.4631, 5.70019 10.344, 5.6813 10.225, 5.65268 10.1076, 5.61489 9.9908, 5.51413 9.70454, 5.371 9.46466, 5.18551 9.2723, 5.00002 9.07994, 4.76586 8.98375, 4.48304 8.98318, 4.21911 8.98375, 3.95805 9.07879, 3.70042 9.26772, 3.44279 9.45722, 3.20634 9.70111, 2.99222 9.99996, 2.69108 10.4219, 2.46494 10.8604, 2.3138 11.315, 2.16266 11.7702, 2.02411 12.2448, 1.89816 12.7388, 1.77278 13.2278, 1.66915 13.7012, 1.58671 14.1587, 1.5369 14.3911, 1.51171 14.611, 1.51171 14.8182, 1.51171 15.0386, 1.5369 15.2522, 1.58671 15.4594, 1.64396 15.7468, 1.74587 15.9838, 1.89358 16.1699, 2.04128 16.3565, 2.24739 16.4493, 2.51132 16.4487, 2.80101 16.4493, 3.09184 16.3485, 3.38382 16.147, 3.67637 15.9455, 3.94831 15.6981, 4.19965 15.4045, 4.30041 15.2831, 4.39659 15.1657, 4.48762 15.0524, 4.57922 14.9396, 4.65937 14.8188, 4.72807 14.69 L 5.76603 10.687 Z" stroke="none" fill="#000000" />
			<rect />
		</svg>
	</g>
	<path d="M -25.5079 0 L 25.508 0" fill="none" stroke="#000000" stroke-width="1.39999998" stroke-linecap="round" stroke-linejoin="round" marker-end="url(#CustomMarker-03)" transform="matrix(0.714286 0 0 0.714286 165.905 64.5244)" />
	<path d="M 25.5079 0 L -25.5081 0" fill="none" stroke="#000000" stroke-width="1.39999998" stroke-linecap="round" stroke-linejoin="round" marker-end="url(#CustomMarker-04)" transform="matrix(0.714286 0 0 0.714286 190.539 126.087)" />
	<path d="M 0 -25.9514 L 0 25.9516" fill="none" stroke="#000000" stroke-width="1.39999998" stroke-linecap="round" stroke-linejoin="round" marker-end="url(#CustomMarker-05)" transform="matrix(0.714286 0 0 0.714286 207.592 83.0611)" />
	<path d="M 0 25.9515 L 0 -25.9516" fill="none" stroke="#000000" stroke-width="1.39999998" stroke-linecap="round" stroke-linejoin="round" marker-end="url(#CustomMarker-06)" transform="matrix(0.714286 0 0 0.714286 147.685 108.079)" />
</svg>
