<?xml version="1.0"?>
<svg xmlns="http://www.w3.org/2000/svg" xmlns:xlink="http://www.w3.org/1999/xlink" width="308.090759" height="286.110199">
	<defs>
		<marker id="CustomMarker-01" markerUnits="strokeWidth" markerWidth="15.000001" markerHeight="9" viewBox="-15 -4.5 15 9" orient="auto-start-reverse">
			<path d="M 0 -0 L -10 -3, -8 -0.5, -8 0.5, -10 3 Z" fill="#000000" stroke="#000000" stroke-linejoin="round" />
		</marker>
		<marker id="CustomMarker-02" markerUnits="strokeWidth" markerWidth="15.000001" markerHeight="9" viewBox="-15 -4.5 15 9" orient="auto-start-reverse">
			<path d="M 0 -0 L -10 -3, -8 -0.5, -8 0.5, -10 3 Z" fill="#000000" stroke="#000000" stroke-linejoin="round" />
		</marker>
		<marker id="CustomMarker-03" markerUnits="strokeWidth" markerWidth="21" markerHeight="18" viewBox="-21 -9 21 18" orient="auto-start-reverse">
			<path d="M 0 -0 L -14 -6, -11.2 -0.5, -11.2 0.5, -14 6 Z" fill="#0028CC" stroke="#0028CC" stroke-linejoin="round" />
		</marker>
		<marker id="CustomMarker-04" markerUnits="strokeWidth" markerWidth="21" markerHeight="18" viewBox="-21 -9 21 18" orient="auto-start-reverse">
			<path d="M 0 -0 L -14 -6, -11.2 -0.5, -11.2 0.5, -14 6 Z" fill="#0028CC" stroke="#0028CC" stroke-linejoin="round" />
		</marker>
		<marker id="CustomMarker-05" markerUnits="strokeWidth" markerWidth="21" markerHeight="18" viewBox="-21 -9 21 18" orient="auto-start-reverse">
			<path d="M 0 -0 L -14 -6, -11.2 -0.5, -11.2 0.5, -14 6 Z" fill="#E60000" stroke="#E60000" stroke-linejoin="round" />
		</marker>
		<marker id="CustomMarker-06" markerUnits="strokeWidth" markerWidth="21" markerHeight="18" viewBox="-21 -9 21 18" orient="auto-start-reverse">
			<path d="M 0 -0 L -14 -6, -11.2 -0.5, -11.2 0.5, -14 6 Z" fill="#E60000" stroke="#E60000" stroke-linejoin="round" />
		</marker>
	</defs>
	<path d="M -222.652 216.286 L 222.652 216.286" fill="none" stroke="#000000" stroke-width="2.4000001" stroke-linecap="round" stroke-linejoin="round" marker-end="url(#CustomMarker-01)" transform="matrix(0.555556 0 -0 0.555556 154.743 130.231)" />
	<path d="M -222.652 216.286 L -222.652 -216.286" fill="none" stroke="#000000" stroke-width="2.4000001" stroke-linecap="round" stroke-linejoin="round" marker-end="url(#CustomMarker-02)" transform="matrix(0.555556 0 -0 0.555556 154.743 130.231)" />
	<g transform="matrix(1 0 -0 1 9.00001 9.00001)">
		<svg width="32.9738617" height="41.9571342">
			<defs />
			<path d="M 9.59355 12.748 C 9.44928 13.2799, 9.23688 13.8054, 8.95692 14.3241, 8.67696 14.8434, 8.31342 15.3226, 7.86686 15.7617, 7.50217 16.1287, 7.08882 16.4355, 6.62623 16.6829, 6.16422 16.9302, 5.68445 17.0533, 5.18752 17.0533, 4.77874 17.0533, 4.44211 16.9405, 4.17761 16.7149, 3.91368 16.4894, 3.74708 16.3056, 3.67781 16.1647 L 2.89461 19.1693 C 2.85683 19.3221, 2.83507 19.4349, 2.82877 19.5082, 2.82877 19.5695, 2.84137 19.609, 2.86656 19.6273, 2.94213 19.6765, 3.08812 19.7069, 3.3051 19.7189, 3.52208 19.7315, 3.76597 19.7372, 4.0362 19.7372, 4.19994 19.7372, 4.2818 19.8168, 4.2818 19.9754 L 4.2818 20.0395, 4.24402 20.2135 C 4.17475 20.3967, 4.05223 20.4855, 3.8759 20.4792, 3.27247 20.4551, 2.67477 20.4368, 2.08337 20.4242 L 1.80971 20.4242 C 1.29445 20.4242, 0.77232 20.4425, 0.243321 20.4792, 0.0807282 20.4792, -0.00114071 20.4002, -0.00171322 20.241 L -0.00171322 20.1769, 0.0360724 20.0028 C 0.105919 19.8196, 0.228436 19.7315, 0.403624 19.7372, 0.624612 19.7372, 0.807243 19.7315, 0.951516 19.7189, 1.09579 19.7069, 1.19941 19.6794, 1.26239 19.6364, 1.32536 19.6061, 1.39178 19.4384, 1.46048 19.1326 L 3.64918 10.6686 C 3.74994 10.2725, 3.80032 9.93011, 3.80032 9.64271 L 3.80032 9.42287 C 3.76941 9.13032, 3.6217 8.98375, 3.3572 8.98318, 3.08011 8.98375, 2.84881 9.20703, 2.66332 9.65244, 2.47783 10.0984, 2.29749 10.6784, 2.12115 11.3923, 2.05188 11.5578, 1.93566 11.6431, 1.77192 11.6488 L 1.55494 11.6488 C 1.4038 11.6494, 1.32823 11.5732, 1.32823 11.4198 L 1.32823 11.3557 C 1.4038 11.0694, 1.4891 10.7562, 1.58357 10.4173, 1.67803 10.0784, 1.80398 9.75779, 1.96085 9.4555, 2.11829 9.15322, 2.31638 8.89673, 2.55512 8.68605, 2.79442 8.47536, 3.0927 8.37002, 3.45109 8.36945, 3.92971 8.37002, 4.31157 8.50628, 4.59783 8.77765, 4.88408 9.04959, 5.0524 9.32268, 5.10221 9.59691, 5.34782 9.31638, 5.67644 9.04215, 6.08865 8.77307, 6.50085 8.50456, 6.93596 8.37002, 7.39511 8.36945, 7.87946 8.37002, 8.29338 8.49712, 8.63574 8.75017, 8.97867 9.00379, 9.24432 9.31982, 9.43325 9.69767, 9.65996 10.15, 9.77904 10.6389, 9.79164 11.1633 L 9.79164 11.2915 C 9.79164 11.7621, 9.7258 12.2476, 9.59355 12.748 Z M 8.20636 9.96332 C 8.15025 9.67076, 8.04491 9.43432, 7.89033 9.25398, 7.73633 9.07421, 7.53366 8.98375, 7.28176 8.98318, 6.99264 8.98375, 6.69894 9.08165, 6.40009 9.27688, 6.10124 9.47268, 5.82586 9.71943, 5.57396 10.0183, 5.37931 10.269, 5.20927 10.5043, 5.06443 10.7236 L 4.02704 14.7266 C 4.05223 14.8554, 4.07627 14.9779, 4.09803 15.0936, 4.11978 15.2098, 4.14955 15.3226, 4.18734 15.4319, 4.2818 15.7319, 4.41863 15.9764, 4.59783 16.1653, 4.77703 16.3548, 5.01462 16.4493, 5.31003 16.4487, 5.57453 16.4493, 5.8356 16.352, 6.09323 16.1562, 6.35085 15.9609, 6.58673 15.7165, 6.80085 15.4228, 7.10313 15.014, 7.32927 14.5795, 7.48042 14.118, 7.63156 13.6572, 7.76953 13.1854, 7.89491 12.7022, 8.02087 12.2018, 8.13136 11.7198, 8.22525 11.2549, 8.26304 11.0356, 8.28193 10.8221, 8.28193 10.6137, 8.28193 10.3944, 8.25674 10.1774, 8.20636 9.96332 Z" stroke="none" fill="#000000" />
			<rect />
		</svg>
	</g>
	<path d="M 0 149.769 L 0 -149.769" fill="none" stroke="#000000" stroke-opacity="0.388235271" stroke-width="2.4000001" stroke-linecap="round" stroke-linejoin="round" stroke-dasharray="8.412, 5.988" transform="matrix(0.555556 0 0 0.555556 107.285 167.185)" />
	<g transform="matrix(1 0 -0 1 12.1777 254.637)">
		<svg width="41.9788857" height="47.9999886">
			<defs />
			<path d="M 12.2634 10.4122 C 12.0367 11.2984, 11.6703 12.1532, 11.1642 12.9776, 10.6581 13.802, 10.0209 14.556, 9.25376 15.2396, 8.56217 15.8567, 7.80531 16.3474, 6.98433 16.7103, 6.16336 17.0733, 5.34123 17.2548, 4.51739 17.2548, 3.68725 17.2548, 2.94929 17.0722, 2.30464 16.7058, 1.65999 16.3394, 1.14588 15.8447, 0.762298 15.2212, 0.340931 14.5319, 0.0987594 13.7682, 0.0357833 12.9312, 0.0105929 12.7303, -0.00200236 12.5287, -0.00200236 12.3266, -0.00200236 11.698, 0.0798666 11.0477, 0.243032 10.3755, 0.482341 9.4784, 0.85161 8.60704, 1.35198 7.76087, 1.85236 6.91528, 2.49185 6.1504, 3.27161 5.46568, 3.96377 4.84966, 4.72006 4.35329, 5.54104 3.97773, 6.36202 3.60216, 7.19044 3.41438, 8.02687 3.41381, 8.85701 3.41438, 9.59154 3.60388, 10.2299 3.98231, 10.8688 4.36131, 11.3795 4.86168, 11.7631 5.484, 12.1844 6.17445, 12.4329 6.9439, 12.5085 7.79236, 12.5211 8.00075, 12.5274 8.20514, 12.5274 8.40609, 12.5274 9.0599, 12.4398 9.72859, 12.2634 10.4122 Z M 10.3576 5.79545 C 10.1503 5.28305, 9.83887 4.86626, 9.42323 4.54566, 9.00816 4.22505, 8.49862 4.06475, 7.89462 4.06418, 7.2975 4.06475, 6.70323 4.22849, 6.11183 4.55482, 5.521 4.88172, 4.99257 5.30423, 4.52655 5.82293, 3.94144 6.45269, 3.47943 7.13512, 3.13993 7.87079, 2.80043 8.60704, 2.53593 9.35302, 2.34701 10.1099, 2.12716 10.9349, 1.99205 11.7381, 1.94167 12.519, 1.92907 12.6661, 1.92278 12.8127, 1.92278 12.9587, 1.92278 13.5701, 2.02354 14.1684, 2.22449 14.7541, 2.41971 15.2739, 2.71856 15.709, 3.12104 16.06, 3.52351 16.4115, 4.02675 16.5867, 4.63017 16.5861, 5.25306 16.5867, 5.86222 16.4081, 6.45648 16.0508, 7.05075 15.6936, 7.58375 15.2522, 8.0555 14.7266, 8.6658 14.019, 9.14041 13.2707, 9.4799 12.4829, 9.81997 11.6952, 10.0965 10.8919, 10.31 10.0732, 10.5053 9.31066, 10.6278 8.55952, 10.6782 7.81984 L 10.6782 7.49924 C 10.6782 6.88894, 10.5717 6.32101, 10.3576 5.79545 Z" stroke="none" fill="#000000" />
			<rect />
		</svg>
	</g>
	<g transform="matrix(1 0 -0 1 93.5618 79.0227)">
		<svg width="30.0150661" height="45.0428467">
			<defs />
			<path d="M 7.09352 16.8477 C 5.83675 16.8062, 4.62205 16.7849, 3.45056 16.7849, 2.31666 16.7849, 1.13002 16.8062, -0.108799 16.8477 L -0.108799 15.6179, 2.11019 15.6179, 2.11019 6.08436 C 1.85771 6.17469, 1.51378 6.24089, 1.07896 6.28241, 0.644704 6.32449, 0.153215 6.34525, -0.395501 6.34469 L -0.395501 5.11485 C 0.461237 5.11541, 1.23606 5.03349, 1.92953 4.86854, 2.623 4.70415, 3.24746 4.36415, 3.80235 3.8491 L 4.28317 3.8491 C 4.44364 3.84966, 4.57156 3.90352, 4.66694 4.01124, 4.76232 4.11897, 4.81001 4.23567, 4.81001 4.36078 L 4.81001 15.6179, 7.09352 15.6179, 7.09352 16.8477 Z" stroke="none" fill="#000000" />
			<rect />
		</svg>
	</g>
	<g transform="matrix(1 0 -0 1 205.669 254.579)">
		<svg width="53.9427032" height="54.0428391">
			<defs />
			<path d="M 12.8503 4.32066 C 12.8131 4.50444, 12.6997 4.59604, 12.5108 4.59547, 12.3098 4.59604, 12.118 4.61894, 11.9354 4.66474, 11.7533 4.71054, 11.5753 4.7884, 11.4024 4.89832, 11.2295 5.00825, 11.0709 5.14107, 10.9261 5.29679, 10.7818 5.45251, 10.6495 5.62827, 10.5299 5.82293 L 3.65348 17.0075 C 3.55958 17.1787, 3.41474 17.2611, 3.21951 17.2548 L 3.04032 17.2548 C 2.80788 17.2548, 2.69452 17.1575, 2.70082 16.9617 L 1.52145 5.26416 C 1.49626 5.10614, 1.47107 4.98248, 1.44588 4.89374, 1.42069 4.80558, 1.38348 4.7426, 1.33309 4.70539, 1.24493 4.6573, 1.10524 4.62695, 0.913445 4.61436, 0.721654 4.60234, 0.502955 4.59604, 0.257348 4.59547, 0.163457 4.59604, 0.0941831 4.56569, 0.0500999 4.50386, 0.0123143 4.4678, -0.00657856 4.422, -0.00657856 4.36646, -0.00657856 4.33039, 0.0031541 4.29662, 0.0214744 4.2657 L 0.0500999 4.1283 C 0.0689927 4.04929, 0.111358 3.98231, 0.177197 3.92735, 0.243608 3.87239, 0.32376 3.84491, 0.417651 3.84433, 1.02165 3.88155, 1.63194 3.89987, 2.24796 3.89929, 2.34243 3.89987, 2.44319 3.89357, 2.54968 3.88097, 3.27905 3.88155, 4.009 3.86952, 4.73838 3.84433, 4.82655 3.84491, 4.90498 3.87525, 4.97426 3.93593, 4.99945 3.98517, 5.01147 4.03097, 5.01147 4.07334, 5.01147 4.11055, 5.00231 4.14433, 4.98342 4.1741 L 4.95536 4.3115 C 4.93647 4.39738, 4.89067 4.46665, 4.81853 4.51818, 4.7464 4.57028, 4.66911 4.59604, 4.58724 4.59547, 4.3674 4.59604, 4.16587 4.6052, 3.98381 4.62352, 3.80176 4.64184, 3.62199 4.6905, 3.44566 4.76951, 3.33917 4.82504, 3.28879 4.91664, 3.29509 5.04431 L 3.29509 5.10843 C 3.51493 6.73322, 3.69126 8.36544, 3.82294 10.0051, 3.95519 11.6448, 4.0966 13.1974, 4.24774 14.6625 L 9.81311 5.60308 C 9.89498 5.47541, 9.94536 5.34087, 9.96425 5.20004 L 9.96425 5.15423 C 9.96425 5.06321, 9.9425 4.98076, 9.89784 4.90691, 9.75986 4.69966, 9.50224 4.59604, 9.12438 4.59547, 8.96121 4.59604, 8.87934 4.5136, 8.87934 4.34814 L 8.87934 4.28402, 8.91713 4.11914 C 8.9864 3.93651, 9.10892 3.84491, 9.28468 3.84433, 9.8383 3.86952, 10.3948 3.88155, 10.9547 3.88097, 11.0303 3.89357, 11.1024 3.89987, 11.1717 3.89929, 11.6497 3.89987, 12.1404 3.88155, 12.643 3.84433, 12.8131 3.84491, 12.9041 3.92735, 12.9167 4.09166 L 12.9167 4.16494 Z" stroke="none" fill="#000000" />
			<path d="M 2.81866 1.26324 C 2.81866 1.55755, 2.75357 1.84001, 2.62341 2.10996, 2.49324 2.38023, 2.31883 2.61106, 2.10018 2.80214, 1.85363 3.01791, 1.58144 3.17757, 1.28392 3.28177, 0.986397 3.38629, 0.675409 3.43822, 0.351277 3.43822, 0.0588849 3.43822, -0.226133 3.39719, -0.504419 3.31511, -0.782704 3.23304, -1.03342 3.11537, -1.2572 2.96148, -1.48098 2.80759, -1.65956 2.61876, -1.79357 2.39465, -1.92759 2.17087, -1.99459 1.91342, -1.99459 1.62232, -1.99459 1.40366, -1.9215 1.24047, -1.7753 1.13275, -1.6291 1.02503, -1.47489 0.971165, -1.31299 0.970845, -1.14371 0.971165, -0.986289 1.02503, -0.840093 1.13275, -0.693897 1.24047, -0.620799 1.40366, -0.620799 1.62232, -0.620799 1.75248, -0.646127 1.86117, -0.697423 1.94837, -0.7484 2.03558, -0.813483 2.10835, -0.892993 2.16638, -0.972182 2.22473, -1.06291 2.26032, -1.16519 2.27379, -1.21777 2.28789, -1.26714 2.29462, -1.31299 2.2943, -1.35851 2.29462, -1.36557 2.29815, -1.33415 2.30456, -1.22482 2.49629, -1.01001 2.66589, -0.689408 2.81272, -0.368803 2.95988, -0.0219078 3.0333, 0.351277 3.03298, 0.52761 3.0333, 0.692081 2.9897, 0.84533 2.90249, 0.99858 2.81529, 1.1265 2.69827, 1.22845 2.55079, 1.35541 2.35971, 1.44166 2.15452, 1.4875 1.93555, 1.53335 1.71689, 1.55611 1.49279, 1.55611 1.26324, 1.55611 1.02759, 1.53335 0.801244, 1.4875 0.583874, 1.44166 0.366824, 1.35541 0.165804, 1.22845 -0.0191851, 1.12265 -0.169228, 0.994091 -0.290738, 0.842765 -0.383072, 0.691439 -0.475407, 0.52761 -0.521574, 0.351277 -0.521894 L -0.414649 -0.521894 C -0.516602 -0.521574, -0.571425 -0.569344, -0.578479 -0.665526 L -0.578479 -0.721952 C -0.578479 -0.762669, -0.565975 -0.79505, -0.541609 -0.819416, -0.509869 -0.849874, -0.469473 -0.865263, -0.4201 -0.865584, -0.317827 -0.879049, -0.212027 -0.885782, -0.103021 -0.886102, 0.00277901 -0.885782, 0.106655 -0.892514, 0.208608 -0.906621, 0.399047 -0.920087, 0.56448 -0.978757, 0.705546 -1.08327, 0.846612 -1.18747, 0.964595 -1.32084, 1.05949 -1.48339, 1.15439 -1.64562, 1.22653 -1.83285, 1.2759 -2.04509, 1.32528 -2.25701, 1.34996 -2.47438, 1.34996 -2.69688, 1.34996 -2.86071, 1.33233 -3.01621, 1.29706 -3.16336, 1.2618 -3.3102, 1.19671 -3.43876, 1.10149 -3.54841, 0.904321 -3.7738, 0.654249 -3.88505, 0.351277 -3.88184, 0.0274656 -3.88152, -0.269415 -3.8206, -0.538724 -3.69942, -0.808032 -3.57791, -0.988854 -3.4471, -1.08055 -3.30731, -1.10491 -3.30347, -1.09273 -3.30186, -1.04336 -3.30219, -0.916397 -3.30186, -0.796811 -3.26435, -0.684279 -3.18933, -0.514999 -3.08994, -0.43068 -2.92227, -0.43068 -2.68662, -0.43068 -2.48785, -0.494801 -2.33812, -0.623363 -2.23745, -0.751926 -2.13646, -0.895558 -2.08613, -1.05394 -2.08645, -1.20911 -2.08613, -1.35434 -2.1355, -1.48996 -2.23489, -1.62558 -2.33396, -1.69354 -2.48464, -1.69354 -2.68662, -1.69354 -2.93605, -1.63359 -3.15631, -1.51368 -3.34803, -1.39378 -3.53943, -1.23989 -3.70358, -1.05137 -3.84048, -0.862856 -3.97706, -0.645485 -4.08158, -0.39894 -4.15339, -0.152074 -4.22521, 0.0979986 -4.26112, 0.351277 -4.26144, 0.622509 -4.26112, 0.885085 -4.22521, 1.13868 -4.15339, 1.39228 -4.08158, 1.63178 -3.97033, 1.85716 -3.82028, 2.04055 -3.69012, 2.19444 -3.53014, 2.31947 -3.34034, 2.44451 -3.15054, 2.50703 -2.93605, 2.50703 -2.69688, 2.50703 -2.45707, 2.46407 -2.23136, 2.37782 -2.01944, 2.29158 -1.8072, 2.17713 -1.6158, 2.03446 -1.44492, 1.89179 -1.27371, 1.72187 -1.12335, 1.52437 -0.993505, 1.3272 -0.863339, 1.17908 -0.781585, 1.08033 -0.747601, 1.16497 -0.737021, 1.30957 -0.686365, 1.51379 -0.595954, 1.71834 -0.505223, 1.91359 -0.384675, 2.10018 -0.234632, 2.31883 -0.0461159, 2.49324 0.178629, 2.62341 0.440243, 2.75357 0.701857, 2.81866 0.976295, 2.81866 1.26324 Z" stroke="none" fill="#000000" transform="matrix(1.12 0 0 1 13.6423 16.3063)" />
			<rect />
		</svg>
	</g>
	<path d="M -111.15 -87.7501 C -84.1499 22.05, 39.1499 74.2501, 111.15 87.7501" fill="none" stroke="#0028CC" stroke-width="2.87999988" stroke-linecap="round" stroke-linejoin="round" transform="matrix(0.555556 0 -0 0.555556 153.898 99.5939)" />
	<path d="M -166.95 -97.6505 C -91.3498 29.2501, 36.4499 97.6505, 166.95 95.8504" fill="none" stroke="#0028CC" stroke-width="2.87999988" stroke-linecap="round" stroke-linejoin="round" transform="matrix(0.555556 0 -0 0.555556 157.398 161.594)" />
	<path d="M -39.1502 -106.2 C -28.3502 -24.3, -6.75004 54.0001, 39.1502 106.2" fill="none" stroke="#E60000" stroke-width="2.87999988" stroke-linecap="round" stroke-linejoin="round" transform="matrix(0.555556 0 -0 0.555556 127.898 136.844)" />
	<path d="M -52.1999 -97.6503 C -35.9999 -27.4501, 2.69999 56.2502, 52.1999 97.6503" fill="none" stroke="#E60000" stroke-width="2.87999988" stroke-linecap="round" stroke-linejoin="round" transform="matrix(0.555556 0 -0 0.555556 194.148 167.094)" />
	<g transform="matrix(1 0 -0 1 74.8639 22.5784)">
		<svg width="50.9839096" height="54.0428391">
			<defs />
			<path d="M 11.7138 8.04884 C 11.6955 8.129, 11.656 8.1977, 11.5965 8.25552, 11.5369 8.31392, 11.4625 8.34254, 11.3743 8.34197 L 11.1951 8.34197 C 11.0194 8.34254, 10.9312 8.26926, 10.9312 8.12213 L 10.9312 8.05801 C 10.9816 7.78377, 11.0251 7.49866, 11.0629 7.2021, 11.1007 6.90612, 11.1322 6.62959, 11.1574 6.37254 L 11.1574 6.07941 C 11.1574 5.93972, 11.1511 5.81148, 11.1385 5.69468, 11.1133 5.50576, 11.0692 5.36263, 11.0062 5.26416, 10.8368 5.04489, 10.5997 4.89718, 10.2946 4.82046, 9.98944 4.74432, 9.64822 4.70596, 9.27037 4.70539 L 8.22325 4.70539 C 7.90894 4.70596, 7.71371 4.72428, 7.63814 4.76035, 7.58204 4.81588, 7.51906 4.99909, 7.44979 5.30996 L 4.81739 15.5144 C 4.7922 15.6065, 4.7796 15.6798, 4.7796 15.7342, 4.7796 15.8567, 4.81739 15.93, 4.89238 15.9541, 5.06872 16.0096, 5.35211 16.0451, 5.74199 16.06, 6.13187 16.0754, 6.52175 16.0829, 6.91163 16.0823, 7.08796 16.0829, 7.17613 16.1562, 7.17613 16.3021, 7.17613 16.3394, 7.16983 16.3789, 7.15723 16.4212 L 7.11945 16.5586 C 7.08166 16.7487, 6.95915 16.8426, 6.75132 16.8426, 5.71966 16.806, 4.67884 16.7876, 3.62828 16.7876, 2.58403 16.7876, 1.53404 16.806, 0.477189 16.8426, 0.383298 16.8426, 0.314024 16.8151, 0.269368 16.7602, 0.225858 16.7178, 0.20353 16.672, 0.20353 16.6228, 0.20353 16.5867, 0.209827 16.55, 0.222423 16.5128 L 0.260208 16.3754 C 0.279101 16.2964, 0.323184 16.2283, 0.392458 16.1699, 0.461732 16.1121, 0.540165 16.0829, 0.628332 16.0823, 1.01191 16.0829, 1.40523 16.0754, 1.8077 16.06, 2.21018 16.0451, 2.50445 16.0096, 2.68994 15.9546, 2.87543 15.8997, 2.99967 15.7411, 3.06207 15.4777 L 5.69447 5.26416 C 5.75745 5.05118, 5.78893 4.88916, 5.78893 4.77867 L 5.78893 4.74203 C 5.76374 4.71798, 5.59085 4.70596, 5.27024 4.70539 L 4.22255 4.70539 C 3.84584 4.70596, 3.47771 4.74604, 3.11932 4.82504, 2.76093 4.90462, 2.43975 5.05691, 2.15636 5.28248, 2.02468 5.38667, 1.89873 5.53667, 1.77908 5.7319, 1.65999 5.9277, 1.54206 6.15212, 1.42527 6.40517, 1.30905 6.65879, 1.19741 6.92902, 1.09035 7.21584, 0.983861 7.50324, 0.876801 7.79007, 0.769742 8.07633, 0.706766 8.2601, 0.590546 8.34884, 0.420511 8.34197 L 0.260208 8.34197 C 0.166317 8.34254, 0.097043 8.3122, 0.0523872 8.25037, 0.0146016 8.2143, -0.00429124 8.17136, -0.00429124 8.12213, -0.00429124 8.08606, 0.00544143 8.04942, 0.0243343 8.0122, 0.188072 7.39618, 0.392458 6.767, 0.637492 6.12578, 0.883099 5.48457, 1.11611 4.84622, 1.33595 4.21074, 1.39893 4.02811, 1.51801 3.93651, 1.69434 3.93593 L 12.0917 3.93593 C 12.268 3.93651, 12.3556 4.01265, 12.3556 4.16494 L 12.3556 4.22906 Z" stroke="none" fill="#0028CC" />
			<path d="M 2.37714 3.19713 C 1.7292 3.17661, 1.09857 3.16635, 0.485571 3.16635, -0.127106 3.16635, -0.757737 3.17661, -1.406 3.19713 L -1.406 2.75598, -1.04115 2.75598 C -0.925093 2.7563, -0.815766 2.75469, -0.713814 2.75117, -0.611541 2.74796, -0.514718 2.7393, -0.423025 2.72552, -0.331331 2.71205, -0.252142 2.69827, -0.185456 2.68416, -0.12903 2.67422, -0.082221 2.6428, -0.0453515 2.58958, -0.00816131 2.53668, 0.0101132 2.47769, 0.0101132 2.41229 L 0.0101132 -3.36887 C -0.165899 -3.28295, -0.382628 -3.21787, -0.639754 -3.17362, -0.89688 -3.12906, -1.17869 -3.10694, -1.48519 -3.10726 L -1.48519 -3.54328 C -1.06231 -3.54296, -0.672135 -3.59329, -0.31466 -3.69429, 0.042815 -3.79496, 0.351879 -3.98411, 0.612531 -4.26144 L 0.77636 -4.26144 C 0.89242 -4.26112, 0.950449 -4.20469, 0.950449 -4.09216 L 0.950449 2.41229 C 0.950449 2.4809, 0.968082 2.54085, 1.00335 2.59215, 1.03862 2.64344, 1.08991 2.67422, 1.1566 2.68416, 1.21302 2.69827, 1.28548 2.71205, 1.37333 2.72552, 1.46149 2.7393, 1.56088 2.74796, 1.67181 2.75117, 1.78274 2.75469, 1.89111 2.7563, 1.99658 2.75598 L 2.37714 2.75598, 2.37714 3.19713 Z" stroke="none" fill="#0028CC" transform="matrix(1.12 0 0 1 12.5717 16.3063)" />
			<rect />
		</svg>
	</g>
	<g transform="matrix(1 0 -0 1 47.2149 81.0784)">
		<svg width="53.9427032" height="54.0428391">
			<defs />
			<path d="M 11.7138 8.04884 C 11.6955 8.129, 11.656 8.1977, 11.5965 8.25552, 11.5369 8.31392, 11.4625 8.34254, 11.3743 8.34197 L 11.1951 8.34197 C 11.0194 8.34254, 10.9312 8.26926, 10.9312 8.12213 L 10.9312 8.05801 C 10.9816 7.78377, 11.0251 7.49866, 11.0629 7.2021, 11.1007 6.90612, 11.1322 6.62959, 11.1574 6.37254 L 11.1574 6.07941 C 11.1574 5.93972, 11.1511 5.81148, 11.1385 5.69468, 11.1133 5.50576, 11.0692 5.36263, 11.0062 5.26416, 10.8368 5.04489, 10.5997 4.89718, 10.2946 4.82046, 9.98944 4.74432, 9.64822 4.70596, 9.27037 4.70539 L 8.22325 4.70539 C 7.90894 4.70596, 7.71371 4.72428, 7.63814 4.76035, 7.58204 4.81588, 7.51906 4.99909, 7.44979 5.30996 L 4.81739 15.5144 C 4.7922 15.6065, 4.7796 15.6798, 4.7796 15.7342, 4.7796 15.8567, 4.81739 15.93, 4.89238 15.9541, 5.06872 16.0096, 5.35211 16.0451, 5.74199 16.06, 6.13187 16.0754, 6.52175 16.0829, 6.91163 16.0823, 7.08796 16.0829, 7.17613 16.1562, 7.17613 16.3021, 7.17613 16.3394, 7.16983 16.3789, 7.15723 16.4212 L 7.11945 16.5586 C 7.08166 16.7487, 6.95915 16.8426, 6.75132 16.8426, 5.71966 16.806, 4.67884 16.7876, 3.62828 16.7876, 2.58403 16.7876, 1.53404 16.806, 0.477189 16.8426, 0.383298 16.8426, 0.314024 16.8151, 0.269368 16.7602, 0.225858 16.7178, 0.20353 16.672, 0.20353 16.6228, 0.20353 16.5867, 0.209827 16.55, 0.222423 16.5128 L 0.260208 16.3754 C 0.279101 16.2964, 0.323184 16.2283, 0.392458 16.1699, 0.461732 16.1121, 0.540165 16.0829, 0.628332 16.0823, 1.01191 16.0829, 1.40523 16.0754, 1.8077 16.06, 2.21018 16.0451, 2.50445 16.0096, 2.68994 15.9546, 2.87543 15.8997, 2.99967 15.7411, 3.06207 15.4777 L 5.69447 5.26416 C 5.75745 5.05118, 5.78893 4.88916, 5.78893 4.77867 L 5.78893 4.74203 C 5.76374 4.71798, 5.59085 4.70596, 5.27024 4.70539 L 4.22255 4.70539 C 3.84584 4.70596, 3.47771 4.74604, 3.11932 4.82504, 2.76093 4.90462, 2.43975 5.05691, 2.15636 5.28248, 2.02468 5.38667, 1.89873 5.53667, 1.77908 5.7319, 1.65999 5.9277, 1.54206 6.15212, 1.42527 6.40517, 1.30905 6.65879, 1.19741 6.92902, 1.09035 7.21584, 0.983861 7.50324, 0.876801 7.79007, 0.769742 8.07633, 0.706766 8.2601, 0.590546 8.34884, 0.420511 8.34197 L 0.260208 8.34197 C 0.166317 8.34254, 0.097043 8.3122, 0.0523872 8.25037, 0.0146016 8.2143, -0.00429124 8.17136, -0.00429124 8.12213, -0.00429124 8.08606, 0.00544143 8.04942, 0.0243343 8.0122, 0.188072 7.39618, 0.392458 6.767, 0.637492 6.12578, 0.883099 5.48457, 1.11611 4.84622, 1.33595 4.21074, 1.39893 4.02811, 1.51801 3.93651, 1.69434 3.93593 L 12.0917 3.93593 C 12.268 3.93651, 12.3556 4.01265, 12.3556 4.16494 L 12.3556 4.22906 Z" stroke="none" fill="#0028CC" />
			<path d="M 2.39138 3.19713 L -1.90858 3.19713, -1.90858 2.915 C -1.90858 2.8948, -1.898 2.86402, -1.87684 2.82266 L -0.149418 0.945196 C 0.0551279 0.71981, 0.261918 0.488975, 0.471594 0.253009, 0.68127 0.0170434, 0.868504 -0.224052, 1.03394 -0.470277, 1.19937 -0.716502, 1.33146 -0.970422, 1.4302 -1.23204, 1.52895 -1.49365, 1.578 -1.76809, 1.578 -2.05567, 1.578 -2.29805, 1.54658 -2.52472, 1.4831 -2.73503, 1.41962 -2.94535, 1.32825 -3.13002, 1.20835 -3.28904, 1.08844 -3.44806, 0.938716 -3.5763, 0.759177 -3.67377, 0.579638 -3.77123, 0.371886 -3.81996, 0.13592 -3.82028, -0.216105 -3.81996, -0.527092 -3.7148, -0.7964 -3.50449, -1.06571 -3.29417, -1.24461 -3.06237, -1.33277 -2.80974, -1.35009 -2.80268, -1.32187 -2.79915, -1.24813 -2.79948 L -1.15836 -2.79948 C -1.05256 -2.77511, -0.961191 -2.73824, -0.883605 -2.68887, -0.806018 -2.63917, -0.740935 -2.57088, -0.688036 -2.48368, -0.635136 -2.39647, -0.608846 -2.29132, -0.608846 -2.16852, -0.608846 -1.96302, -0.675532 -1.8056, -0.809545 -1.69627, -0.943558 -1.58663, -1.09328 -1.53212, -1.25871 -1.53244, -1.41709 -1.53212, -1.56489 -1.58663, -1.70243 -1.69627, -1.83965 -1.8056, -1.90858 -1.96302, -1.90858 -2.16852, -1.90858 -2.45547, -1.85215 -2.72734, -1.7393 -2.98382, -1.62645 -3.24031, -1.47352 -3.46249, -1.27987 -3.65068, -1.08623 -3.83856, -0.857315 -3.98732, -0.593136 -4.09697, -0.328958 -4.20629, -0.0487483 -4.26112, 0.24685 -4.26144, 0.612981 -4.26112, 0.948655 -4.20725, 1.25323 -4.09953, 1.55781 -3.99181, 1.8175 -3.83695, 2.0323 -3.63529, 2.24711 -3.43331, 2.41543 -3.19991, 2.53693 -2.93509, 2.65844 -2.66995, 2.71904 -2.37692, 2.71904 -2.05567, 2.71904 -1.6998, 2.63825 -1.37214, 2.47602 -1.07302, 2.31411 -0.77357, 2.11342 -0.499131, 1.87392 -0.2497, 1.63443 5.126e-005, 1.37987 0.235055, 1.11056 0.455632, 0.841252 0.676208, 0.597272 0.890693, 0.378939 1.09909 L -0.836155 2.24301, 0.754048 2.24301 C 0.975907 2.24333, 1.18302 2.24172, 1.37474 2.2382, 1.56678 2.23499, 1.72965 2.22794, 1.86334 2.21768, 1.99736 2.20742, 2.06597 2.20069, 2.06917 2.19684, 2.09738 2.17312, 2.12399 2.12534, 2.14868 2.05353, 2.17337 1.98171, 2.19613 1.89707, 2.21729 1.79961, 2.23845 1.70215, 2.25961 1.60308, 2.28077 1.50209, 2.30193 1.40142, 2.32117 1.29081, 2.3388 1.1709 L 2.72962 1.1709 Z" stroke="none" fill="#0028CC" transform="matrix(1.12 0 0 1 12.9946 16.3063)" />
			<rect />
		</svg>
	</g>
	<ellipse cx="392.83052968978882" cy="425.66515493392944" rx="4.7249999046325684" ry="4.7249999046325684" stroke="none" fill="#000000" transform="matrix(0.555556 0 0 0.555556 -110.955 -152.5)" />
	<ellipse cx="507.41558218002319" cy="515.54039907455444" rx="4.7249999046325684" ry="4.7249999046325684" stroke="none" fill="#000000" transform="matrix(0.555556 0 0 0.555556 -110.955 -152.5)" />
	<ellipse cx="584.88521718978882" cy="656.19143056869507" rx="4.7249999046325684" ry="4.7249999046325684" stroke="none" fill="#000000" transform="matrix(0.555556 0 0 0.555556 -110.955 -152.5)" />
	<ellipse cx="453.87551259994507" cy="606.93020009994507" rx="4.7249999046325684" ry="4.7249999046325684" stroke="none" fill="#000000" transform="matrix(0.555556 0 0 0.555556 -110.955 -152.5)" />
	<g transform="matrix(1 0 -0 1 221.763 141.289)">
		<svg width="173.966797" height="56.9999886">
			<defs />
			<path d="M 8.86557 18.9439 C 8.85927 18.8953, 8.84667 18.822, 8.82778 18.7241, 8.73389 18.2541, 8.63599 17.8756, 8.53523 17.5882, 9.46613 17.6312, 10.2717 17.6524, 10.9506 17.6524, 11.4728 17.6524, 11.8409 17.5493, 12.0544 17.3409, 12.2686 17.1279, 12.3751 16.7489, 12.3751 16.205 L 12.3751 14.4371, 1.37428 14.4371, 1.37428 13.283, 12.3751 13.283, 12.3751 11.9181, 13.8281 11.9181, 13.8281 13.283, 17.4515 13.283, 17.4515 14.4371, 13.8281 14.4371, 13.8281 16.4982 C 13.8281 17.3295, 13.6443 17.9306, 13.2762 18.3027, 12.9086 18.6754, 12.2903 18.8741, 11.4224 18.8981, 10.8694 18.929, 10.0169 18.9439, 8.86557 18.9439 Z M 6.64824 17.7256 C 5.88737 16.9447, 5.02861 16.169, 4.07252 15.399 L 5.02517 14.5104 C 6.06943 15.3537, 6.94709 16.0928, 7.65757 16.7272 Z M 0.760547 11.5334 L 0.760547 10.37, 8.55412 10.37, 8.55412 8.54716, 2.02522 8.54716, 2.02522 7.44794, 8.55412 7.44794, 8.55412 6.34872, 9.99742 6.34872, 9.99742 7.44794, 16.7341 7.44794, 16.7341 8.54716, 9.99742 8.54716, 9.99742 10.37, 18.0269 10.37, 18.0269 11.5334 Z M 14.479 6.98993 C 13.8693 6.36131, 13.2813 5.79052, 12.7151 5.27698 L 13.583 4.50753 C 14.1807 5.00905, 14.7905 5.55866, 15.4134 6.15636 Z M 6.27095 6.97161 C 5.75512 6.33097, 5.23929 5.75102, 4.72346 5.23118 L 5.6389 4.52585 C 5.99729 4.86248, 6.50396 5.37202, 7.15777 6.05559, 7.20185 6.0991, 7.2362 6.13231, 7.26139 6.15636 Z M 1.62904 6.87085 C 1.23287 6.4804, 0.883636 6.16609, 0.581351 5.92735, 2.02866 4.76172, 3.17024 3.31728, 4.00668 1.5946 L 5.42192 1.80528 C 5.11391 2.38581, 4.83395 2.88046, 4.58205 3.28923 L 9.52567 3.28923, 9.52567 4.44341, 3.80802 4.44341 C 3.1731 5.32965, 2.44659 6.13861, 1.62904 6.87085 Z M 10.2333 6.193 C 9.91269 5.96743, 9.51651 5.7201, 9.04476 5.45102, 10.2339 4.2728, 11.0989 2.98751, 11.6394 1.5946 L 13.0735 1.78696 C 13.0672 1.79956, 13.0575 1.82131, 13.0449 1.85108, 12.7243 2.51748, 12.4821 2.99667, 12.3184 3.28923 L 17.9324 3.28923, 17.9324 4.44341, 11.6205 4.44341 C 11.2747 4.96897, 10.8127 5.55236, 10.2333 6.193 Z" stroke="none" fill="#0028CC" />
			<path d="M 21.7126 18.9989 L 20.2882 18.55 C 20.9615 16.126, 21.5019 13.824, 21.9107 11.6433, 22.0304 11.6805, 22.2159 11.7383, 22.4678 11.8173, 22.845 11.9398, 23.1216 12.0223, 23.2979 12.0647, 23.2538 12.2668, 23.1719 12.6148, 23.0523 13.1089, 22.3985 15.9125, 21.9519 17.8756, 21.7126 18.9989 Z M 23.3735 18.3852 L 23.3735 17.1852, 24.9582 17.1852, 24.9582 11.3776, 36.1009 11.3776, 36.1009 17.1852, 37.29 17.1852, 37.29 18.3852 Z M 26.3076 17.1852 L 28.336 17.1852, 28.336 12.5685, 26.3076 12.5685 Z M 29.5251 17.1852 L 31.5438 17.1852, 31.5438 12.5685, 29.5251 12.5685 Z M 32.7329 17.1852 L 34.7801 17.1852, 34.7801 12.5685, 32.7329 12.5685 Z M 22.5055 10.0861 C 21.3422 8.98112, 20.4422 8.14754, 19.8067 7.58534 L 20.7977 6.67848 C 21.7853 7.49717, 22.7099 8.3067, 23.5716 9.10593 Z M 25.6755 9.71966 L 25.6755 2.63886, 35.3933 2.63886, 35.3933 9.71966 Z M 27.0244 8.56548 L 34.0256 8.56548, 34.0256 6.71513, 27.0244 6.71513 Z M 27.0244 5.61591 L 34.0256 5.61591, 34.0256 3.79304, 27.0244 3.79304 Z M 23.0998 5.50598 C 22.276 4.6455, 21.3954 3.78445, 20.4577 2.92282 L 21.4767 2.02513 C 22.276 2.71557, 23.188 3.53426, 24.2128 4.48005 Z" stroke="none" fill="#0028CC" />
			<path d="M 53.887 18.9989 C 52.4718 18.9989, 51.3085 18.0434, 50.3959 16.1318, 49.0184 17.0054, 47.3862 17.8327, 45.4992 18.6142, 45.2982 18.2237, 45.0406 17.7932, 44.7257 17.3226, 46.852 16.5108, 48.5656 15.6898, 49.8675 14.8585 L 49.8675 14.8219 C 49.4587 13.7232, 49.1415 12.4837, 48.9148 11.1028 L 45.565 11.5883, 45.367 10.3334, 48.7167 9.85706 C 48.6726 9.58912, 48.6251 9.21642, 48.5747 8.73952, 48.4997 8.14182, 48.4528 7.63458, 48.4333 7.21893 L 45.7162 7.52122, 45.5461 6.27544, 48.32 5.96399 C 48.2261 4.43768, 48.1785 3.0608, 48.1785 1.83276 L 49.6035 1.83276 C 49.6287 3.40258, 49.6762 4.72165, 49.7449 5.78995 L 55.7929 5.10294, 55.9343 6.3304, 49.8016 7.04489 C 49.852 7.6987, 49.8995 8.20594, 49.943 8.56548, 49.9808 8.95078, 50.022 9.31718, 50.0655 9.6647 L 56.2647 8.75784, 56.4061 10.0311, 50.2825 10.9105 C 50.4463 11.9124, 50.7108 12.9538, 51.0754 14.0341, 52.126 13.2772, 53.2613 12.2759, 54.4813 11.0296 L 55.4717 11.8723 C 54.0313 13.3385, 52.7455 14.4864, 51.613 15.3165, 52.2674 16.7947, 53.0128 17.5338, 53.8493 17.5333, 54.076 17.5338, 54.2643 17.4606, 54.4155 17.3134, 54.5792 17.1491, 54.708 16.8835, 54.8019 16.5165, 55.0097 15.7722, 55.1798 14.981, 55.3114 14.144, 55.3492 14.1629, 55.4059 14.1904, 55.4815 14.2265, 55.9784 14.4715, 56.3402 14.6364, 56.5664 14.7211, 56.3906 15.668, 56.1988 16.5171, 55.991 17.2676, 55.6515 18.4218, 54.9502 18.9989, 53.887 18.9989 Z M 39.3756 17.7806 L 39.0837 16.3424 C 40.7004 16.1415, 42.7225 15.8209, 45.15 15.3806, 45.1065 15.9371, 45.0841 16.398, 45.0841 16.7638, 43.9391 16.9539, 42.0367 17.2928, 39.3756 17.7806 Z M 39.7724 13.8417 L 39.3006 12.5868 C 39.6281 12.3612, 39.9894 11.9948, 40.3855 11.4876, 40.8762 10.8406, 41.5054 9.91889, 42.2725 8.7212, 41.329 8.7338, 40.3827 8.79219, 39.4323 8.89524 L 38.9606 7.6403 C 39.2566 7.37237, 39.5211 7.05176, 39.7535 6.67848, 40.2001 6.03155, 40.6655 5.27126, 41.1498 4.39761, 41.6342 3.5188, 42.0681 2.64229, 42.4517 1.76864 L 43.8761 2.25413 C 42.4483 4.72794, 41.3731 6.49872, 40.6495 7.56702 L 43.0271 7.48458 C 43.4176 6.83764, 43.7851 6.19643, 44.1309 5.56095 L 45.4236 6.11971 C 44.7887 7.16455, 44.0748 8.28838, 43.2819 9.49065, 42.5273 10.6334, 41.8735 11.5889, 41.3193 12.3578, 42.087 12.2668, 43.2887 12.1505, 44.9238 12.0097, 44.8483 12.4866, 44.8042 12.8988, 44.7916 13.2463, 42.5777 13.4364, 40.9048 13.6345, 39.7724 13.8417 Z M 53.4909 4.92889 C 52.6166 4.19036, 51.7928 3.53426, 51.0188 2.95946 L 51.8678 2.08009 C 52.7552 2.67321, 53.6071 3.2961, 54.4246 3.94876 Z" stroke="none" fill="#0028CC" />
			<rect />
		</svg>
	</g>
	<g transform="matrix(1 0 -0 1 148.504 87.3864)">
		<svg width="173.966797" height="60.0856972">
			<defs />
			<path d="M 9.90124 18.6508 C 9.06537 18.6508, 8.44878 18.4619, 8.05203 18.0829, 7.66845 17.7107, 7.47666 17.1308, 7.47666 16.3424 L 7.47666 8.23571, 7.22246 8.52884, 6.34481 7.46626 C 7.91692 5.84835, 9.23484 3.93101, 10.2974 1.71368 L 11.7596 1.92436, 10.9106 3.49991, 15.6836 3.49991, 15.6836 4.77317, 13.9386 7.16397, 16.9757 7.16397, 16.9757 12.9532, 8.82606 12.9532, 8.82606 16.0493 C 8.82606 16.5199, 8.93312 16.8531, 9.14667 17.0484, 9.36079 17.2442, 9.72204 17.3415, 10.2316 17.3409 L 14.8346 17.3409 C 15.3693 17.3415, 15.7718 17.2379, 16.042 17.0295, 16.3065 16.8285, 16.4794 16.5016, 16.5607 16.0493, 16.6362 15.549, 16.7152 14.9352, 16.7965 14.2081, 16.8343 14.2207, 16.8881 14.239, 16.9568 14.2631, 17.4979 14.4652, 17.8877 14.5934, 18.1265 14.6478, 18.0263 15.5031, 17.9129 16.1902, 17.787 16.7089, 17.6364 17.3873, 17.3565 17.8785, 16.9477 18.1836, 16.5326 18.4951, 15.9258 18.6508, 15.1271 18.6508 Z M 0.855011 17.8264 L 0.600244 16.4341 C 0.845851 16.4043, 1.21397 16.3522, 1.70404 16.2783, 3.79199 15.9858, 5.39845 15.7505, 6.524 15.573, 6.47362 15.9646, 6.44843 16.4071, 6.44843 16.9012, 4.61869 17.1646, 2.7546 17.4726, 0.855011 17.8264 Z M 1.3926 13.7776 L 0.920849 12.5501 C 1.18535 12.3675, 1.41321 12.1832, 1.605 11.9965, 1.79679 11.8105, 2.01835 11.5586, 2.26968 11.2402, 2.817 10.52, 3.38321 9.70477, 3.96775 8.79448, 2.58456 8.84372, 1.60672 8.90211, 1.03421 8.96852 L 0.656922 7.67694 C 1.01531 7.35405, 1.3989 6.87428, 1.80767 6.2388, 2.57483 5.01191, 3.38321 3.52167, 4.23167 1.76864 L 5.67497 2.23581 C 4.48644 4.33692, 3.35802 6.13861, 2.28858 7.6403, 2.65956 7.62885, 3.3357 7.61339, 4.31698 7.5945, 4.48071 7.58878, 4.60323 7.58591, 4.68453 7.58534, 4.99311 7.09756, 5.34864 6.49299, 5.75054 5.77163 L 7.00548 6.36704 C 5.77287 8.39487, 4.42404 10.3798, 2.95841 12.3211, 3.2481 12.2914, 3.70096 12.2513, 4.31698 12.2021, 5.22898 12.1356, 5.91428 12.0773, 6.37343 12.028, 6.32305 12.3584, 6.2887 12.7769, 6.26924 13.283, 4.63472 13.3997, 3.50573 13.4942, 2.88284 13.5669, 2.47407 13.6104, 1.9777 13.6803, 1.3926 13.7776 Z M 8.82606 11.7257 L 11.6182 11.7257, 11.6182 8.40975, 8.82606 8.40975 Z M 12.8537 11.7257 L 15.6458 11.7257, 15.6458 8.40975, 12.8537 8.40975 Z M 8.3921 7.16397 L 12.3917 7.16397, 14.1744 4.73653, 10.156 4.73653 C 9.60868 5.56782, 9.02072 6.37677, 8.3921 7.16397 Z" stroke="none" fill="#E60000" />
			<path d="M 21.6084 19.0905 L 20.2218 18.5958 C 20.8951 17.4056, 21.4641 16.2119, 21.929 15.0142 L 23.2967 15.3806 C 22.8319 16.5783, 22.2691 17.8144, 21.6084 19.0905 Z M 26.2303 18.7699 C 26.2057 18.7029, 26.1713 18.605, 26.1267 18.4768, 25.7053 17.2562, 25.344 16.2606, 25.0418 15.4906 L 26.3534 15.1699 C 26.548 15.6348, 26.8091 16.2697, 27.136 17.0753, 27.3627 17.6375, 27.5419 18.0863, 27.6736 18.4218 Z M 35.7483 18.6691 C 35.2078 17.6128, 34.5723 16.4318, 33.8429 15.1241 L 35.154 14.6661 C 35.8336 15.8026, 36.4937 16.9505, 37.1349 18.1104 Z M 30.8247 18.5775 C 30.7617 18.4126, 30.6672 18.1716, 30.5413 17.8539, 30.1142 16.8165, 29.7524 15.9858, 29.4564 15.3623 L 30.8058 15.0142 C 31.1453 15.723, 31.5947 16.7186, 32.1546 18.0004, 32.1924 18.0863, 32.221 18.1504, 32.2393 18.1928 Z M 26.3059 14.3822 C 25.9795 14.041, 25.624 13.6929, 25.2398 13.3379, 26.0574 12.7706, 26.7272 12.1998, 27.2494 11.625, 27.7967 11.0273, 28.2306 10.3735, 28.5512 9.6647, 28.1929 9.42081, 27.6335 9.0607, 26.8721 8.5838, 26.753 8.50479, 26.6648 8.44697, 26.6081 8.40975 L 27.3627 7.37466, 28.9852 8.35479 C 29.205 7.59794, 29.3373 6.66703, 29.3814 5.56095 L 27.1457 5.56095, 27.1457 4.26936, 29.4192 4.26936 C 29.4318 3.7083, 29.4381 2.87473, 29.4381 1.76864 L 30.8247 1.76864 C 30.8247 2.41042, 30.8121 3.244, 30.7869 4.26936 L 34.6731 4.26936 C 34.6605 6.31551, 34.6702 7.82694, 34.7011 8.80364, 34.7263 9.81183, 34.783 10.67, 34.8712 11.3776, 34.9405 11.7509, 35.0441 12.0469, 35.1826 12.2662, 35.3149 12.4683, 35.4563 12.569, 35.6069 12.5685, 35.8777 12.569, 36.0631 12.2879, 36.1633 11.7257, 36.2767 11.1154, 36.362 10.3706, 36.4181 9.49065, 36.4748 9.50955, 36.5595 9.53703, 36.6729 9.57309, 37.069 9.70821, 37.3553 9.80267, 37.5311 9.85706, 37.3994 10.9019, 37.2734 11.7355, 37.1538 12.3578, 37.041 12.8959, 36.8463 13.3064, 36.5692 13.5904, 36.2927 13.8744, 35.9532 14.0163, 35.5502 14.0158, 35.0286 14.0163, 34.5884 13.8148, 34.23 13.4112, 33.859 12.9904, 33.6294 12.395, 33.5412 11.625, 33.4531 10.9294, 33.3935 10.1445, 33.362 9.27081, 33.3243 8.39201, 33.3054 7.15539, 33.3054 5.56095 L 30.7302 5.56095 C 30.6672 7.01512, 30.4943 8.20251, 30.2115 9.12425 L 32.4941 10.6082, 31.6829 11.854 C 31.4693 11.708, 31.1642 11.491, 30.768 11.2036, 30.2837 10.8624, 29.9287 10.6116, 29.702 10.4525, 29.0104 11.8454, 27.878 13.1553, 26.3059 14.3822 Z M 20.5802 13.97 C 20.5424 13.6104, 20.4577 13.1616, 20.3254 12.6234, 20.8224 12.6669, 21.3101 12.6881, 21.7876 12.6875, 22.1277 12.6881, 22.371 12.6137, 22.5187 12.4637, 22.6664 12.3143, 22.7403 12.0681, 22.7403 11.7257 L 22.7403 9.62805, 20.1651 10.2967, 19.8915 8.87692 C 20.3002 8.79792, 20.9323 8.66967, 21.7876 8.4922, 22.2153 8.40746, 22.533 8.34334, 22.7403 8.29983 L 22.7403 5.56095, 20.2876 5.56095, 20.2876 4.28768, 22.7403 4.28768, 22.7403 1.76864, 24.0891 1.76864, 24.0891 4.28768, 26.07 4.28768, 26.07 5.56095, 24.0891 5.56095, 24.0891 7.97007 C 24.4475 7.89736, 24.9822 7.77541, 25.6927 7.60366, 25.8627 7.56129, 25.9887 7.52809, 26.07 7.5029, 26.07 8.09602, 26.0763 8.53857, 26.0889 8.83112, 25.9257 8.87463, 25.6555 8.93875, 25.2776 9.02349, 24.7624 9.14028, 24.3662 9.23188, 24.0891 9.29829 L 24.0891 11.8723 C 24.0891 12.5753, 23.9448 13.0912, 23.6551 13.4209, 23.366 13.7507, 22.904 13.9276, 22.2685 13.9516, 21.9101 13.9642, 21.3474 13.9705, 20.5802 13.97 Z" stroke="none" fill="#E60000" />
			<path d="M 53.887 18.9989 C 52.4718 18.9989, 51.3085 18.0434, 50.3959 16.1318, 49.0184 17.0054, 47.3862 17.8327, 45.4992 18.6142, 45.2982 18.2237, 45.0406 17.7932, 44.7257 17.3226, 46.852 16.5108, 48.5656 15.6898, 49.8675 14.8585 L 49.8675 14.8219 C 49.4587 13.7232, 49.1415 12.4837, 48.9148 11.1028 L 45.565 11.5883, 45.367 10.3334, 48.7167 9.85706 C 48.6726 9.58912, 48.6251 9.21642, 48.5747 8.73952, 48.4997 8.14182, 48.4528 7.63458, 48.4333 7.21893 L 45.7162 7.52122, 45.5461 6.27544, 48.32 5.96399 C 48.2261 4.43768, 48.1785 3.0608, 48.1785 1.83276 L 49.6035 1.83276 C 49.6287 3.40258, 49.6762 4.72165, 49.7449 5.78995 L 55.7929 5.10294, 55.9343 6.3304, 49.8016 7.04489 C 49.852 7.6987, 49.8995 8.20594, 49.943 8.56548, 49.9808 8.95078, 50.022 9.31718, 50.0655 9.6647 L 56.2647 8.75784, 56.4061 10.0311, 50.2825 10.9105 C 50.4463 11.9124, 50.7108 12.9538, 51.0754 14.0341, 52.126 13.2772, 53.2613 12.2759, 54.4813 11.0296 L 55.4717 11.8723 C 54.0313 13.3385, 52.7455 14.4864, 51.613 15.3165, 52.2674 16.7947, 53.0128 17.5338, 53.8493 17.5333, 54.076 17.5338, 54.2643 17.4606, 54.4155 17.3134, 54.5792 17.1491, 54.708 16.8835, 54.8019 16.5165, 55.0097 15.7722, 55.1798 14.981, 55.3114 14.144, 55.3492 14.1629, 55.4059 14.1904, 55.4815 14.2265, 55.9784 14.4715, 56.3402 14.6364, 56.5664 14.7211, 56.3906 15.668, 56.1988 16.5171, 55.991 17.2676, 55.6515 18.4218, 54.9502 18.9989, 53.887 18.9989 Z M 39.3756 17.7806 L 39.0837 16.3424 C 40.7004 16.1415, 42.7225 15.8209, 45.15 15.3806, 45.1065 15.9371, 45.0841 16.398, 45.0841 16.7638, 43.9391 16.9539, 42.0367 17.2928, 39.3756 17.7806 Z M 39.7724 13.8417 L 39.3006 12.5868 C 39.6281 12.3612, 39.9894 11.9948, 40.3855 11.4876, 40.8762 10.8406, 41.5054 9.91889, 42.2725 8.7212, 41.329 8.7338, 40.3827 8.79219, 39.4323 8.89524 L 38.9606 7.6403 C 39.2566 7.37237, 39.5211 7.05176, 39.7535 6.67848, 40.2001 6.03155, 40.6655 5.27126, 41.1498 4.39761, 41.6342 3.5188, 42.0681 2.64229, 42.4517 1.76864 L 43.8761 2.25413 C 42.4483 4.72794, 41.3731 6.49872, 40.6495 7.56702 L 43.0271 7.48458 C 43.4176 6.83764, 43.7851 6.19643, 44.1309 5.56095 L 45.4236 6.11971 C 44.7887 7.16455, 44.0748 8.28838, 43.2819 9.49065, 42.5273 10.6334, 41.8735 11.5889, 41.3193 12.3578, 42.087 12.2668, 43.2887 12.1505, 44.9238 12.0097, 44.8483 12.4866, 44.8042 12.8988, 44.7916 13.2463, 42.5777 13.4364, 40.9048 13.6345, 39.7724 13.8417 Z M 53.4909 4.92889 C 52.6166 4.19036, 51.7928 3.53426, 51.0188 2.95946 L 51.8678 2.08009 C 52.7552 2.67321, 53.6071 3.2961, 54.4246 3.94876 Z" stroke="none" fill="#E60000" />
			<rect />
		</svg>
	</g>
	<path d="M 0 59.1363 L 0 -59.1362" fill="none" stroke="#000000" stroke-opacity="0.388235271" stroke-width="2.4000001" stroke-linecap="round" stroke-linejoin="round" stroke-dasharray="8.412, 5.988" transform="matrix(0.555556 0 0 0.555556 141.198 217.536)" />
	<path d="M 0 104.831 L 0 -104.831" fill="none" stroke="#000000" stroke-opacity="0.388235271" stroke-width="2.4000001" stroke-linecap="round" stroke-linejoin="round" stroke-dasharray="8.412, 5.988" transform="matrix(0.555556 0 0 0.555556 170.943 192.15)" />
	<path d="M 0 34.5059 L 0 -34.5054" fill="none" stroke="#000000" stroke-opacity="0.388235271" stroke-width="2.4000001" stroke-linecap="round" stroke-linejoin="round" stroke-dasharray="8.412, 5.988" transform="matrix(0.555556 0 0 0.555556 213.982 231.22)" />
	<g transform="matrix(1 0 -0 1 178.354 113.489)">
		<svg width="30.0150681" height="45.0428467">
			<defs />
			<path d="M 7.62662 16.8387 L -0.00154328 16.8387, -0.00154328 16.0488 C -0.00154328 15.9534, 0.0326813 15.8608, 0.100008 15.7705 L 3.0495 12.2066 C 3.33957 11.8543, 3.61112 11.498, 3.8636 11.1389, 4.11607 10.7799, 4.33937 10.4135, 4.5335 10.0393, 4.72763 9.6656, 4.8836 9.2852, 5.00086 8.89919, 5.11812 8.51318, 5.17648 8.11652, 5.17648 7.70919, 5.17648 7.3445, 5.13945 7.00225, 5.06539 6.68189, 4.99133 6.36208, 4.88528 6.0866, 4.7467 5.85601, 4.60812 5.62597, 4.43083 5.44307, 4.21482 5.30841, 3.99937 5.17376, 3.74353 5.10643, 3.44729 5.10587, 2.82451 5.10643, 2.38408 5.23828, 2.12487 5.50086, 2.25448 5.51937, 2.46263 5.65571, 2.74933 5.90987, 3.03603 6.16459, 3.1791 6.53096, 3.1791 7.00898, 3.1791 7.53021, 3.01135 7.91622, 2.67527 8.16757, 2.33976 8.41893, 1.97731 8.5446, 1.58906 8.54404, 1.20081 8.5446, 0.838363 8.41893, 0.502288 8.16757, 0.166775 7.91622, -0.00154328 7.53021, -0.00154328 7.00898, -0.00154328 6.52479, 0.109546 6.09109, 0.331726 5.70789, 0.553906 5.32524, 0.843412 4.9931, 1.20081 4.71144, 1.5582 4.43035, 1.96665 4.21659, 2.4256 4.06959, 2.88511 3.92316, 3.35808 3.84966, 3.84508 3.8491, 4.49254 3.84966, 5.08109 3.94391, 5.6113 4.13243, 6.1415 4.32095, 6.60549 4.58577, 7.00272 4.92689, 7.39995 5.26801, 7.70685 5.67534, 7.9223 6.14776, 8.13831 6.62073, 8.24603 7.14139, 8.24603 7.70919, 8.24603 8.29044, 8.10577 8.82177, 7.82524 9.30316, 7.54471 9.78511, 7.212 10.225, 6.82655 10.6228, 6.44166 11.0211, 6.03938 11.3847, 5.62027 11.7135, 5.20116 12.0428, 4.84657 12.339, 4.55707 12.6016 L 2.92943 14.1098, 4.48301 14.1098 C 4.83423 14.1103, 5.1703 14.1075, 5.49067 14.1013, 5.81159 14.0957, 6.07024 14.0851, 6.26774 14.0699, 6.46523 14.0553, 6.56061 14.0503, 6.55388 14.0559, 6.60325 13.9964, 6.65262 13.9055, 6.702 13.7827, 6.75137 13.6603, 6.79008 13.5223, 6.81757 13.3697, 6.84563 13.2171, 6.87144 13.051, 6.89612 12.8715, 6.92081 12.692, 6.96401 12.4793, 7.02573 12.2336 L 8.27408 12.2336 Z" stroke="none" fill="#000000" />
			<rect />
		</svg>
	</g>
	<g transform="matrix(1 0 -0 1 216.767 187.497)">
		<svg width="30.0150681" height="47.9999886">
			<defs />
			<path d="M 8.57242 13.1851 C 8.57242 13.7243, 8.46301 14.2438, 8.2442 14.7432, 8.02539 15.2431, 7.70671 15.6661, 7.28703 16.0129, 6.8006 16.4022, 6.26927 16.6749, 5.6925 16.8298, 5.11629 16.9857, 4.53223 17.0632, 3.94031 17.0632, 3.45331 17.0632, 2.97136 16.993, 2.49334 16.8522, 2.01532 16.7119, 1.59452 16.5105, 1.23096 16.2468, 0.867391 15.9837, 0.568907 15.6605, 0.334384 15.2773, 0.0998612 14.8947, -0.0174002 14.4542, -0.0174002 13.9571, -0.0174002 13.4129, 0.158772 13.005, 0.509996 12.7324, 0.861219 12.4602, 1.24667 12.3239, 1.66578 12.3233, 2.07872 12.3239, 2.46585 12.4602, 2.82605 12.7324, 3.18681 13.005, 3.36691 13.4129, 3.36691 13.9571, 3.36691 14.4486, 3.22552 14.8257, 2.94163 15.0888, 2.65829 15.3525, 2.45182 15.4928, 2.32222 15.5102, 2.37776 15.5584, 2.57021 15.6364, 2.90011 15.7441, 3.23001 15.8518, 3.57675 15.9057, 3.94031 15.9051, 4.13781 15.9057, 4.3224 15.8518, 4.4952 15.7441, 4.66801 15.6364, 4.80322 15.49, 4.90197 15.3037, 5.04392 15.0288, 5.13032 14.7106, 5.16062 14.3482, 5.19148 13.9863, 5.20662 13.5986, 5.20662 13.1851, 5.20662 12.7845, 5.19148 12.4064, 5.16062 12.0501, 5.13032 11.6944, 5.04392 11.3785, 4.90197 11.1025, 4.80322 10.9055, 4.66632 10.7518, 4.49071 10.6407, 4.3151 10.5302, 4.13163 10.4746, 3.94031 10.4741 L 2.91357 10.4741 C 2.64875 10.4746, 2.49783 10.34, 2.4608 10.0701 L 2.4608 9.89058 C 2.4608 9.63362, 2.59994 9.48999, 2.87711 9.45969 L 3.71813 9.39685 C 3.94031 9.38563, 4.12827 9.30933, 4.282 9.1685, 4.43629 9.02824, 4.5659 8.83355, 4.67081 8.585, 4.77573 8.33701, 4.85147 8.04975, 4.89748 7.72321, 4.94349 7.39724, 4.96649 7.04826, 4.96649 6.67684, 4.96649 6.39013, 4.95415 6.13149, 4.92946 5.90089, 4.90478 5.67086, 4.84306 5.48066, 4.74431 5.33029, 4.55972 5.06155, 4.29154 4.92689, 3.94031 4.92633, 3.62612 4.92689, 3.32708 4.98692, 3.04318 5.10643, 2.75984 5.2265, 2.59658 5.30673, 2.55337 5.34825, 2.68915 5.36059, 2.90179 5.49412, 3.1913 5.74828, 3.48081 6.003, 3.62556 6.3604, 3.62556 6.82047, 3.62556 7.31196, 3.46566 7.68618, 3.14473 7.94315, 2.82437 8.20067, 2.46978 8.32916, 2.08152 8.3286, 1.69327 8.32916, 1.33756 8.20236, 1.01383 7.94764, 0.690657 7.69348, 0.528511 7.31757, 0.528511 6.82047, 0.528511 6.37835, 0.627257 5.97607, 0.824189 5.61363, 1.02168 5.25174, 1.27584 4.93755, 1.58723 4.67105, 1.89862 4.40511, 2.25938 4.20144, 2.66895 4.06062, 3.07909 3.92035, 3.50269 3.84966, 3.94031 3.8491, 4.43349 3.84966, 4.92946 3.90071, 5.4288 4.00226, 5.92815 4.10438, 6.4028 4.30131, 6.85277 4.59418, 7.204 4.83432, 7.48789 5.13504, 7.70334 5.49693, 7.91935 5.85937, 8.02707 6.25268, 8.02707 6.67684, 8.02707 7.49149, 7.77291 8.18889, 7.26459 8.76903, 6.75627 9.34972, 6.31079 9.71161, 5.92815 9.85468, 5.87877 9.84907, 6.01904 9.91078, 6.34894 10.0393, 6.67885 10.1683, 6.98855 10.3462, 7.27806 10.5728, 7.68539 10.8786, 8.00294 11.2618, 8.23074 11.7224, 8.45853 12.1836, 8.57242 12.6712, 8.57242 13.1851 Z" stroke="none" fill="#000000" />
			<rect />
		</svg>
	</g>
	<g transform="matrix(1 0 -0 1 125.401 184.636)">
		<svg width="32.9738617" height="45.0428467">
			<defs />
			<path d="M 9.13627 16.8477 C 8.11963 16.8062, 7.14844 16.7849, 6.22381 16.7849, 5.16341 16.7849, 4.0542 16.8062, 2.89505 16.8477 L 2.89505 15.6179, 4.79985 15.6179, 4.79985 13.8045, 0.01008 13.8045, 0.01008 12.6914, 6.23279 4.0825 C 6.33827 3.9153, 6.492 3.8317, 6.6951 3.83114 L 7.0929 3.83114 C 7.25336 3.8317, 7.38128 3.88108, 7.47666 3.97982, 7.57204 4.07857, 7.61973 4.19976, 7.61973 4.34283 L 7.61973 12.5837, 9.13627 12.5837, 9.13627 13.8045, 7.61973 13.8045, 7.61973 15.6179, 9.13627 15.6179, 9.13627 16.8477 Z M 5.04952 7.64635 L 1.47108 12.5837, 5.04952 12.5837 Z" stroke="none" fill="#000000" />
			<rect />
		</svg>
	</g>
	<g transform="matrix(1 0 -0 1 162.727 254.579)">
		<svg width="53.9427032" height="54.0428391">
			<defs />
			<path d="M 12.858 4.32066 C 12.8208 4.50444, 12.7074 4.59604, 12.5185 4.59547, 12.3176 4.59604, 12.1258 4.61894, 11.9431 4.66474, 11.7611 4.71054, 11.583 4.7884, 11.4101 4.89832, 11.2372 5.00825, 11.0786 5.14107, 10.9338 5.29679, 10.789 5.45251, 10.6567 5.62827, 10.537 5.82293 L 3.65892 17.0075 C 3.56503 17.1787, 3.42018 17.2611, 3.22496 17.2548 L 3.04576 17.2548 C 2.81332 17.2548, 2.69996 17.1575, 2.70626 16.9617 L 1.52689 5.26416 C 1.5017 5.10614, 1.47651 4.98248, 1.45132 4.89374, 1.42613 4.80558, 1.38834 4.7426, 1.33796 4.70539, 1.25037 4.6573, 1.11068 4.62695, 0.918313 4.61436, 0.726522 4.60234, 0.507824 4.59604, 0.26279 4.59547, 0.168325 4.59604, 0.0990518 4.56569, 0.0549685 4.50386, 0.0171829 4.4678, -0.00170994 4.422, -0.00170994 4.36646, -0.00170994 4.33039, 0.00802273 4.29662, 0.0269156 4.2657 L 0.0549685 4.1283 C 0.0744339 4.04929, 0.1168 3.98231, 0.182638 3.92735, 0.249049 3.87239, 0.329201 3.84491, 0.423092 3.84433, 1.02709 3.88155, 1.63739 3.89987, 2.25341 3.89929, 2.34787 3.89987, 2.44863 3.89357, 2.55512 3.88097, 3.28507 3.88155, 4.01502 3.86952, 4.7444 3.84433, 4.83256 3.84491, 4.911 3.87525, 4.98027 3.93593, 5.00546 3.98517, 5.01806 4.03097, 5.01806 4.07334, 5.01806 4.11055, 5.0089 4.14433, 4.98943 4.1741 L 4.96138 4.3115 C 4.94248 4.39738, 4.89668 4.46665, 4.82455 4.51818, 4.75241 4.57028, 4.67512 4.59604, 4.59325 4.59547, 4.37341 4.59604, 4.17189 4.6052, 3.98926 4.62352, 3.8072 4.64184, 3.628 4.6905, 3.45167 4.76951, 3.34518 4.82504, 3.2948 4.91664, 3.30053 5.04431 L 3.30053 5.10843 C 3.52094 6.73322, 3.69728 8.36544, 3.82895 10.0051, 3.9612 11.6448, 4.10261 13.1974, 4.25376 14.6625 L 9.82027 5.60308 C 9.90214 5.47541, 9.95252 5.34087, 9.97141 5.20004 L 9.97141 5.15423 C 9.97141 5.06321, 9.94965 4.98076, 9.905 4.90691, 9.76702 4.69966, 9.50939 4.59604, 9.13154 4.59547, 8.9678 4.59604, 8.88593 4.5136, 8.88593 4.34814 L 8.88593 4.28402, 8.92372 4.11914 C 8.99356 3.93651, 9.11608 3.84491, 9.29184 3.84433, 9.84546 3.86952, 10.4019 3.88155, 10.9619 3.88097, 11.0374 3.89357, 11.1101 3.89987, 11.1788 3.89929, 11.6569 3.89987, 12.1475 3.88155, 12.6508 3.84433, 12.8208 3.84491, 12.9118 3.92735, 12.9244 4.09166 L 12.9244 4.16494 Z" stroke="none" fill="#000000" />
			<path d="M 2.39138 3.19713 L -1.90858 3.19713, -1.90858 2.915 C -1.90858 2.8948, -1.898 2.86402, -1.87684 2.82266 L -0.149418 0.945196 C 0.0551279 0.71981, 0.261918 0.488975, 0.471594 0.253009, 0.68127 0.0170434, 0.868504 -0.224052, 1.03394 -0.470277, 1.19937 -0.716502, 1.33146 -0.970422, 1.4302 -1.23204, 1.52895 -1.49365, 1.578 -1.76809, 1.578 -2.05567, 1.578 -2.29805, 1.54658 -2.52472, 1.4831 -2.73503, 1.41962 -2.94535, 1.32825 -3.13002, 1.20835 -3.28904, 1.08844 -3.44806, 0.938716 -3.5763, 0.759177 -3.67377, 0.579638 -3.77123, 0.371886 -3.81996, 0.13592 -3.82028, -0.216105 -3.81996, -0.527092 -3.7148, -0.7964 -3.50449, -1.06571 -3.29417, -1.24461 -3.06237, -1.33277 -2.80974, -1.35009 -2.80268, -1.32187 -2.79915, -1.24813 -2.79948 L -1.15836 -2.79948 C -1.05256 -2.77511, -0.961191 -2.73824, -0.883605 -2.68887, -0.806018 -2.63917, -0.740935 -2.57088, -0.688036 -2.48368, -0.635136 -2.39647, -0.608846 -2.29132, -0.608846 -2.16852, -0.608846 -1.96302, -0.675532 -1.8056, -0.809545 -1.69627, -0.943558 -1.58663, -1.09328 -1.53212, -1.25871 -1.53244, -1.41709 -1.53212, -1.56489 -1.58663, -1.70243 -1.69627, -1.83965 -1.8056, -1.90858 -1.96302, -1.90858 -2.16852, -1.90858 -2.45547, -1.85215 -2.72734, -1.7393 -2.98382, -1.62645 -3.24031, -1.47352 -3.46249, -1.27987 -3.65068, -1.08623 -3.83856, -0.857315 -3.98732, -0.593136 -4.09697, -0.328958 -4.20629, -0.0487483 -4.26112, 0.24685 -4.26144, 0.612981 -4.26112, 0.948655 -4.20725, 1.25323 -4.09953, 1.55781 -3.99181, 1.8175 -3.83695, 2.0323 -3.63529, 2.24711 -3.43331, 2.41543 -3.19991, 2.53693 -2.93509, 2.65844 -2.66995, 2.71904 -2.37692, 2.71904 -2.05567, 2.71904 -1.6998, 2.63825 -1.37214, 2.47602 -1.07302, 2.31411 -0.77357, 2.11342 -0.499131, 1.87392 -0.2497, 1.63443 5.126e-005, 1.37987 0.235055, 1.11056 0.455632, 0.841252 0.676208, 0.597272 0.890693, 0.378939 1.09909 L -0.836155 2.24301, 0.754048 2.24301 C 0.975907 2.24333, 1.18302 2.24172, 1.37474 2.2382, 1.56678 2.23499, 1.72965 2.22794, 1.86334 2.21768, 1.99736 2.20742, 2.06597 2.20069, 2.06917 2.19684, 2.09738 2.17312, 2.12399 2.12534, 2.14868 2.05353, 2.17337 1.98171, 2.19613 1.89707, 2.21729 1.79961, 2.23845 1.70215, 2.25961 1.60308, 2.28077 1.50209, 2.30193 1.40142, 2.32117 1.29081, 2.3388 1.1709 L 2.72962 1.1709 Z" stroke="none" fill="#000000" transform="matrix(1.12 0 0 1 13.5608 16.3063)" />
			<rect />
		</svg>
	</g>
	<g transform="matrix(1 0 -0 1 132.707 254.579)">
		<svg width="57.0301361" height="54.0428391">
			<defs />
			<path d="M 12.858 4.32066 C 12.8208 4.50444, 12.7074 4.59604, 12.5185 4.59547, 12.3176 4.59604, 12.1258 4.61894, 11.9431 4.66474, 11.7611 4.71054, 11.583 4.7884, 11.4101 4.89832, 11.2372 5.00825, 11.0786 5.14107, 10.9338 5.29679, 10.789 5.45251, 10.6567 5.62827, 10.537 5.82293 L 3.65892 17.0075 C 3.56503 17.1787, 3.42018 17.2611, 3.22496 17.2548 L 3.04576 17.2548 C 2.81332 17.2548, 2.69996 17.1575, 2.70626 16.9617 L 1.52689 5.26416 C 1.5017 5.10614, 1.47651 4.98248, 1.45132 4.89374, 1.42613 4.80558, 1.38834 4.7426, 1.33796 4.70539, 1.25037 4.6573, 1.11068 4.62695, 0.918313 4.61436, 0.726522 4.60234, 0.507824 4.59604, 0.26279 4.59547, 0.168325 4.59604, 0.0990518 4.56569, 0.0549685 4.50386, 0.0171829 4.4678, -0.00170994 4.422, -0.00170994 4.36646, -0.00170994 4.33039, 0.00802273 4.29662, 0.0269156 4.2657 L 0.0549685 4.1283 C 0.0744339 4.04929, 0.1168 3.98231, 0.182638 3.92735, 0.249049 3.87239, 0.329201 3.84491, 0.423092 3.84433, 1.02709 3.88155, 1.63739 3.89987, 2.25341 3.89929, 2.34787 3.89987, 2.44863 3.89357, 2.55512 3.88097, 3.28507 3.88155, 4.01502 3.86952, 4.7444 3.84433, 4.83256 3.84491, 4.911 3.87525, 4.98027 3.93593, 5.00546 3.98517, 5.01806 4.03097, 5.01806 4.07334, 5.01806 4.11055, 5.0089 4.14433, 4.98943 4.1741 L 4.96138 4.3115 C 4.94248 4.39738, 4.89668 4.46665, 4.82455 4.51818, 4.75241 4.57028, 4.67512 4.59604, 4.59325 4.59547, 4.37341 4.59604, 4.17189 4.6052, 3.98926 4.62352, 3.8072 4.64184, 3.628 4.6905, 3.45167 4.76951, 3.34518 4.82504, 3.2948 4.91664, 3.30053 5.04431 L 3.30053 5.10843 C 3.52094 6.73322, 3.69728 8.36544, 3.82895 10.0051, 3.9612 11.6448, 4.10261 13.1974, 4.25376 14.6625 L 9.82027 5.60308 C 9.90214 5.47541, 9.95252 5.34087, 9.97141 5.20004 L 9.97141 5.15423 C 9.97141 5.06321, 9.94965 4.98076, 9.905 4.90691, 9.76702 4.69966, 9.50939 4.59604, 9.13154 4.59547, 8.9678 4.59604, 8.88593 4.5136, 8.88593 4.34814 L 8.88593 4.28402, 8.92372 4.11914 C 8.99356 3.93651, 9.11608 3.84491, 9.29184 3.84433, 9.84546 3.86952, 10.4019 3.88155, 10.9619 3.88097, 11.0374 3.89357, 11.1101 3.89987, 11.1788 3.89929, 11.6569 3.89987, 12.1475 3.88155, 12.6508 3.84433, 12.8208 3.84491, 12.9118 3.92735, 12.9244 4.09166 L 12.9244 4.16494 Z" stroke="none" fill="#000000" />
			<path d="M 1.84803 1.37096 L 1.84803 2.41229 C 1.84803 2.47416, 1.85957 2.53155, 1.88265 2.58445, 1.90574 2.63767, 1.94357 2.67262, 1.99615 2.68929, 2.07726 2.72712, 2.20935 2.74796, 2.39242 2.75117, 2.57548 2.75469, 2.76015 2.7563, 2.94674 2.75598 L 2.94674 3.19713 C 2.40813 3.17661, 1.88009 3.16635, 1.36199 3.16635, 0.851588 3.16635, 0.314573 3.17661, -0.249051 3.19713 L -0.249051 2.75598 C -0.0554054 2.7563, 0.131508 2.75469, 0.311047 2.75117, 0.490586 2.74796, 0.624599 2.72712, 0.712445 2.68929, 0.765345 2.67262, 0.804138 2.63767, 0.828825 2.58445, 0.853511 2.53155, 0.865694 2.47416, 0.865694 2.41229 L 0.865694 1.37096, -2.14543 1.37096, -2.14543 0.955456, 1.38315 -4.29221 C 1.42932 -4.35345, 1.48735 -4.38423, 1.55756 -4.38455 L 1.67394 -4.38455 C 1.79 -4.38423, 1.84803 -4.3262, 1.84803 -4.21014 L 1.84803 0.919548, 2.98393 0.919548, 2.98393 1.37096 Z M 0.918273 -2.94311 L -1.68055 0.919548, 0.918273 0.919548 Z" stroke="none" fill="#000000" transform="matrix(1.12 0 0 1 13.7984 16.3063)" />
			<rect />
		</svg>
	</g>
	<g transform="matrix(1 0 -0 1 99.5035 254.579)">
		<svg width="50.9839096" height="54.0428391">
			<defs />
			<path d="M 12.858 4.32066 C 12.8208 4.50444, 12.7074 4.59604, 12.5185 4.59547, 12.3176 4.59604, 12.1258 4.61894, 11.9431 4.66474, 11.7611 4.71054, 11.583 4.7884, 11.4101 4.89832, 11.2372 5.00825, 11.0786 5.14107, 10.9338 5.29679, 10.789 5.45251, 10.6567 5.62827, 10.537 5.82293 L 3.65892 17.0075 C 3.56503 17.1787, 3.42018 17.2611, 3.22496 17.2548 L 3.04576 17.2548 C 2.81332 17.2548, 2.69996 17.1575, 2.70626 16.9617 L 1.52689 5.26416 C 1.5017 5.10614, 1.47651 4.98248, 1.45132 4.89374, 1.42613 4.80558, 1.38834 4.7426, 1.33796 4.70539, 1.25037 4.6573, 1.11068 4.62695, 0.918313 4.61436, 0.726522 4.60234, 0.507824 4.59604, 0.26279 4.59547, 0.168325 4.59604, 0.0990518 4.56569, 0.0549685 4.50386, 0.0171829 4.4678, -0.00170994 4.422, -0.00170994 4.36646, -0.00170994 4.33039, 0.00802273 4.29662, 0.0269156 4.2657 L 0.0549685 4.1283 C 0.0744339 4.04929, 0.1168 3.98231, 0.182638 3.92735, 0.249049 3.87239, 0.329201 3.84491, 0.423092 3.84433, 1.02709 3.88155, 1.63739 3.89987, 2.25341 3.89929, 2.34787 3.89987, 2.44863 3.89357, 2.55512 3.88097, 3.28507 3.88155, 4.01502 3.86952, 4.7444 3.84433, 4.83256 3.84491, 4.911 3.87525, 4.98027 3.93593, 5.00546 3.98517, 5.01806 4.03097, 5.01806 4.07334, 5.01806 4.11055, 5.0089 4.14433, 4.98943 4.1741 L 4.96138 4.3115 C 4.94248 4.39738, 4.89668 4.46665, 4.82455 4.51818, 4.75241 4.57028, 4.67512 4.59604, 4.59325 4.59547, 4.37341 4.59604, 4.17189 4.6052, 3.98926 4.62352, 3.8072 4.64184, 3.628 4.6905, 3.45167 4.76951, 3.34518 4.82504, 3.2948 4.91664, 3.30053 5.04431 L 3.30053 5.10843 C 3.52094 6.73322, 3.69728 8.36544, 3.82895 10.0051, 3.9612 11.6448, 4.10261 13.1974, 4.25376 14.6625 L 9.82027 5.60308 C 9.90214 5.47541, 9.95252 5.34087, 9.97141 5.20004 L 9.97141 5.15423 C 9.97141 5.06321, 9.94965 4.98076, 9.905 4.90691, 9.76702 4.69966, 9.50939 4.59604, 9.13154 4.59547, 8.9678 4.59604, 8.88593 4.5136, 8.88593 4.34814 L 8.88593 4.28402, 8.92372 4.11914 C 8.99356 3.93651, 9.11608 3.84491, 9.29184 3.84433, 9.84546 3.86952, 10.4019 3.88155, 10.9619 3.88097, 11.0374 3.89357, 11.1101 3.89987, 11.1788 3.89929, 11.6569 3.89987, 12.1475 3.88155, 12.6508 3.84433, 12.8208 3.84491, 12.9118 3.92735, 12.9244 4.09166 L 12.9244 4.16494 Z" stroke="none" fill="#000000" />
			<path d="M 2.37267 3.19713 C 1.72472 3.17661, 1.09441 3.16635, 0.481416 3.16635, -0.131261 3.16635, -0.761571 3.17661, -1.40951 3.19713 L -1.40951 2.75598, -1.04499 2.75598 C -0.928927 2.7563, -0.819601 2.75469, -0.717648 2.75117, -0.615375 2.74796, -0.518552 2.7393, -0.426859 2.72552, -0.335166 2.71205, -0.255976 2.69827, -0.18929 2.68416, -0.132864 2.67422, -0.086376 2.6428, -0.0495062 2.58958, -0.012316 2.53668, 0.00595856 2.47769, 0.00595856 2.41229 L 0.00595856 -3.36887 C -0.169733 -3.28295, -0.386463 -3.21787, -0.643588 -3.17362, -0.900714 -3.12906, -1.18221 -3.10694, -1.4887 -3.10726 L -1.4887 -3.54328 C -1.06615 -3.54296, -0.675969 -3.59329, -0.318494 -3.69429, 0.0389807 -3.79496, 0.348044 -3.98411, 0.608376 -4.26144 L 0.772206 -4.26144 C 0.888265 -4.26112, 0.946294 -4.20469, 0.946294 -4.09216 L 0.946294 2.41229 C 0.946294 2.4809, 0.963928 2.54085, 0.999194 2.59215, 1.03446 2.64344, 1.08576 2.67422, 1.15244 2.68416, 1.20887 2.69827, 1.28133 2.71205, 1.36917 2.72552, 1.45702 2.7393, 1.55641 2.74796, 1.66734 2.75117, 1.77827 2.75469, 1.88663 2.7563, 1.99243 2.75598 L 2.37267 2.75598, 2.37267 3.19713 Z" stroke="none" fill="#000000" transform="matrix(1.12 0 0 1 13.1379 16.3063)" />
			<rect />
		</svg>
	</g>
	<path d="M -8.07086 -5.37744 L 8.07111 5.37762" fill="none" stroke="#0028CC" stroke-width="1.20000005" stroke-linecap="round" stroke-linejoin="round" marker-end="url(#CustomMarker-03)" transform="matrix(0.555556 0 0 0.555556 143.958 119.12)" />
	<path d="M 11.2121 3.43872 L -11.2114 -3.43848" fill="none" stroke="#0028CC" stroke-width="1.20000005" stroke-linecap="round" stroke-linejoin="round" marker-end="url(#CustomMarker-04)" transform="matrix(0.555556 0 0 0.555556 181.731 203.979)" />
	<path d="M 3.28207 10.6864 L -3.28241 -10.6862" fill="none" stroke="#E60000" stroke-width="1.20000005" stroke-linecap="round" stroke-linejoin="round" marker-end="url(#CustomMarker-05)" transform="matrix(0.555556 0 0 0.555556 119.555 139.001)" />
	<path d="M -5.44043 -9.70422 L 5.44043 9.70422" fill="none" stroke="#E60000" stroke-width="1.20000005" stroke-linecap="round" stroke-linejoin="round" marker-end="url(#CustomMarker-06)" transform="matrix(0.555556 0 0 0.555556 188.398 174.88)" />
	<g transform="matrix(1 0 -0 1 286.165 239.182)">
		<svg width="41.9788857" height="47.9999886">
			<defs />
			<path d="M 12.858 4.32066 C 12.8208 4.50444, 12.7074 4.59604, 12.5185 4.59547, 12.3176 4.59604, 12.1258 4.61894, 11.9431 4.66474, 11.7611 4.71054, 11.583 4.7884, 11.4101 4.89832, 11.2372 5.00825, 11.0786 5.14107, 10.9338 5.29679, 10.789 5.45251, 10.6567 5.62827, 10.537 5.82293 L 3.65892 17.0075 C 3.56503 17.1787, 3.42018 17.2611, 3.22496 17.2548 L 3.04576 17.2548 C 2.81332 17.2548, 2.69996 17.1575, 2.70626 16.9617 L 1.52689 5.26416 C 1.5017 5.10614, 1.47651 4.98248, 1.45132 4.89374, 1.42613 4.80558, 1.38834 4.7426, 1.33796 4.70539, 1.25037 4.6573, 1.11068 4.62695, 0.918313 4.61436, 0.726522 4.60234, 0.507824 4.59604, 0.26279 4.59547, 0.168325 4.59604, 0.0990518 4.56569, 0.0549685 4.50386, 0.0171829 4.4678, -0.00170994 4.422, -0.00170994 4.36646, -0.00170994 4.33039, 0.00802273 4.29662, 0.0269156 4.2657 L 0.0549685 4.1283 C 0.0744339 4.04929, 0.1168 3.98231, 0.182638 3.92735, 0.249049 3.87239, 0.329201 3.84491, 0.423092 3.84433, 1.02709 3.88155, 1.63739 3.89987, 2.25341 3.89929, 2.34787 3.89987, 2.44863 3.89357, 2.55512 3.88097, 3.28507 3.88155, 4.01502 3.86952, 4.7444 3.84433, 4.83256 3.84491, 4.911 3.87525, 4.98027 3.93593, 5.00546 3.98517, 5.01806 4.03097, 5.01806 4.07334, 5.01806 4.11055, 5.0089 4.14433, 4.98943 4.1741 L 4.96138 4.3115 C 4.94248 4.39738, 4.89668 4.46665, 4.82455 4.51818, 4.75241 4.57028, 4.67512 4.59604, 4.59325 4.59547, 4.37341 4.59604, 4.17189 4.6052, 3.98926 4.62352, 3.8072 4.64184, 3.628 4.6905, 3.45167 4.76951, 3.34518 4.82504, 3.2948 4.91664, 3.30053 5.04431 L 3.30053 5.10843 C 3.52094 6.73322, 3.69728 8.36544, 3.82895 10.0051, 3.9612 11.6448, 4.10261 13.1974, 4.25376 14.6625 L 9.82027 5.60308 C 9.90214 5.47541, 9.95252 5.34087, 9.97141 5.20004 L 9.97141 5.15423 C 9.97141 5.06321, 9.94965 4.98076, 9.905 4.90691, 9.76702 4.69966, 9.50939 4.59604, 9.13154 4.59547, 8.9678 4.59604, 8.88593 4.5136, 8.88593 4.34814 L 8.88593 4.28402, 8.92372 4.11914 C 8.99356 3.93651, 9.11608 3.84491, 9.29184 3.84433, 9.84546 3.86952, 10.4019 3.88155, 10.9619 3.88097, 11.0374 3.89357, 11.1101 3.89987, 11.1788 3.89929, 11.6569 3.89987, 12.1475 3.88155, 12.6508 3.84433, 12.8208 3.84491, 12.9118 3.92735, 12.9244 4.09166 L 12.9244 4.16494 Z" stroke="none" fill="#000000" />
			<rect />
		</svg>
	</g>
</svg>
