<?xml version="1.0"?>
<svg xmlns="http://www.w3.org/2000/svg" xmlns:xlink="http://www.w3.org/1999/xlink" width="371.594116" height="213.753159">
	<defs>
		<marker id="CustomMarker-01" markerUnits="strokeWidth" markerWidth="15.000001" markerHeight="9" viewBox="-15 -4.5 15 9" orient="auto-start-reverse">
			<path d="M 0 -0 L -10 -3, -8 -0.5, -8 0.5, -10 3 Z" fill="#000000" stroke="#000000" stroke-linejoin="round" />
		</marker>
		<marker id="CustomMarker-02" markerUnits="strokeWidth" markerWidth="15.000001" markerHeight="9" viewBox="-15 -4.5 15 9" orient="auto-start-reverse">
			<path d="M 0 -0 L -10 -3, -8 -0.5, -8 0.5, -10 3 Z" fill="#000000" stroke="#000000" stroke-linejoin="round" />
		</marker>
		<marker id="CustomMarker-03" markerUnits="strokeWidth" markerWidth="15.000001" markerHeight="12" viewBox="-15 -6 15 12" orient="auto-start-reverse">
			<path d="M 0 -0 L -10 -4, -8 -0.5, -8 0.5, -10 4 Z" fill="#000000" stroke="#000000" stroke-linejoin="round" />
		</marker>
		<marker id="CustomMarker-04" markerUnits="strokeWidth" markerWidth="15.000001" markerHeight="12" viewBox="-15 -6 15 12" orient="auto-start-reverse">
			<path d="M 0 -0 L -10 -4, -8 -0.5, -8 0.5, -10 4 Z" fill="#000000" stroke="#000000" stroke-linejoin="round" />
		</marker>
		<marker id="CustomMarker-05" markerUnits="strokeWidth" markerWidth="15.000001" markerHeight="12" viewBox="-15 -6 15 12" orient="auto-start-reverse">
			<path d="M 0 -0 L -10 -4, -8 -0.5, -8 0.5, -10 4 Z" fill="#000000" stroke="#000000" stroke-linejoin="round" />
		</marker>
	</defs>
	<path d="M -487.959 298.725 L 487.959 298.725" fill="none" stroke="#000000" stroke-width="4.80000019" stroke-linecap="round" stroke-linejoin="round" marker-end="url(#CustomMarker-01)" transform="matrix(0.277778 0 -0 0.277778 207.464 95.054)" />
	<path d="M -487.959 298.725 L -487.959 -298.725" fill="none" stroke="#000000" stroke-width="4.80000019" stroke-linecap="round" stroke-linejoin="round" marker-end="url(#CustomMarker-02)" transform="matrix(0.277778 0 -0 0.277778 207.464 95.054)" />
	<g transform="matrix(1 0 -0 1 8.99996 9.00003)">
		<svg width="159.044189" height="62.9142723">
			<defs />
			<path d="M 9.58915 12.748 C 9.44488 13.2799, 9.23247 13.8054, 8.95252 14.3241, 8.67256 14.8434, 8.30902 15.3226, 7.86246 15.7617, 7.49777 16.1287, 7.08442 16.4355, 6.62183 16.6829, 6.15981 16.9302, 5.68005 17.0533, 5.18311 17.0533, 4.77434 17.0533, 4.43771 16.9405, 4.17321 16.7149, 3.90928 16.4894, 3.74268 16.3056, 3.67341 16.1647 L 2.89021 19.1693 C 2.85243 19.3221, 2.83067 19.4349, 2.82437 19.5082, 2.82437 19.5695, 2.83697 19.609, 2.86216 19.6273, 2.93773 19.6765, 3.08372 19.7069, 3.3007 19.7189, 3.51768 19.7315, 3.76157 19.7372, 4.0318 19.7372, 4.19553 19.7372, 4.2774 19.8168, 4.2774 19.9754 L 4.2774 20.0395, 4.23962 20.2135 C 4.17034 20.3967, 4.04783 20.4855, 3.87149 20.4792, 3.26807 20.4551, 2.67037 20.4368, 2.07897 20.4242 L 1.80531 20.4242 C 1.29005 20.4242, 0.767918 20.4425, 0.238919 20.4792, 0.0763267 20.4792, -0.00554222 20.4002, -0.00611472 20.241 L -0.00611472 20.1769, 0.0316709 20.0028 C 0.101517 19.8196, 0.224034 19.7315, 0.399222 19.7372, 0.620211 19.7372, 0.802842 19.7315, 0.947114 19.7189, 1.09139 19.7069, 1.19501 19.6794, 1.25799 19.6364, 1.32096 19.6061, 1.38737 19.4384, 1.45608 19.1326 L 3.64478 10.6686 C 3.74554 10.2725, 3.79592 9.93011, 3.79592 9.64271 L 3.79592 9.42287 C 3.76501 9.13032, 3.6173 8.98375, 3.3528 8.98318, 3.07571 8.98375, 2.84441 9.20703, 2.65892 9.65244, 2.47342 10.0984, 2.29308 10.6784, 2.11675 11.3923, 2.04748 11.5578, 1.93126 11.6431, 1.76752 11.6488 L 1.55054 11.6488 C 1.3994 11.6494, 1.32383 11.5732, 1.32383 11.4198 L 1.32383 11.3557 C 1.3994 11.0694, 1.4847 10.7562, 1.57916 10.4173, 1.67363 10.0784, 1.79958 9.75779, 1.95645 9.4555, 2.11389 9.15322, 2.31198 8.89673, 2.55071 8.68605, 2.79002 8.47536, 3.0883 8.37002, 3.44669 8.36945, 3.92531 8.37002, 4.30717 8.50628, 4.59343 8.77765, 4.87968 9.04959, 5.048 9.32268, 5.09781 9.59691, 5.34342 9.31638, 5.67204 9.04215, 6.08424 8.77307, 6.49645 8.50456, 6.93156 8.37002, 7.39071 8.36945, 7.87505 8.37002, 8.28898 8.49712, 8.63134 8.75017, 8.97427 9.00379, 9.23992 9.31982, 9.42885 9.69767, 9.65556 10.15, 9.77464 10.6389, 9.78724 11.1633 L 9.78724 11.2915 C 9.78724 11.7621, 9.7214 12.2476, 9.58915 12.748 Z M 8.20196 9.96332 C 8.14585 9.67076, 8.04051 9.43432, 7.88593 9.25398, 7.73193 9.07421, 7.52926 8.98375, 7.27735 8.98318, 6.98824 8.98375, 6.69454 9.08165, 6.39569 9.27688, 6.09684 9.47268, 5.82146 9.71943, 5.56956 10.0183, 5.3749 10.269, 5.20487 10.5043, 5.06002 10.7236 L 4.02264 14.7266 C 4.04783 14.8554, 4.07187 14.9779, 4.09363 15.0936, 4.11538 15.2098, 4.14515 15.3226, 4.18294 15.4319, 4.2774 15.7319, 4.41423 15.9764, 4.59343 16.1653, 4.77262 16.3548, 5.01022 16.4493, 5.30563 16.4487, 5.57013 16.4493, 5.83119 16.352, 6.08882 16.1562, 6.34645 15.9609, 6.58233 15.7165, 6.79645 15.4228, 7.09873 15.014, 7.32487 14.5795, 7.47602 14.118, 7.62716 13.6572, 7.76513 13.1854, 7.89051 12.7022, 8.01646 12.2018, 8.12696 11.7198, 8.22085 11.2549, 8.25864 11.0356, 8.27753 10.8221, 8.27753 10.6137, 8.27753 10.3944, 8.25234 10.1774, 8.20196 9.96332 Z" stroke="none" fill="#000000" />
			<path d="M 11.9014 21.2028 C 11.8579 21.3253, 11.776 21.4135, 11.6564 21.4685, 11.5808 21.4994, 11.5115 21.5143, 11.4485 21.5143, 11.405 21.5143, 11.3512 21.5085, 11.2882 21.496, 11.0621 21.4169, 10.9487 21.2795, 10.9487 21.0837, 10.9487 21.0231, 10.9648 20.9555, 10.9957 20.8822 L 17.6855 2.88251 C 17.7296 2.76114, 17.8143 2.66611, 17.9402 2.59855, 18.0095 2.5808, 18.0725 2.57164, 18.1286 2.57107, 18.1732 2.57164, 18.2299 2.57794, 18.2986 2.58939, 18.5253 2.66954, 18.6353 2.80694, 18.629 3.0016, 18.629 3.06343, 18.6135 3.13041, 18.5814 3.20312 Z" stroke="none" fill="#000000" />
			<path d="M 27.9817 15.2121 C 27.9817 15.4508, 27.9377 15.6707, 27.8495 15.8722, 27.7613 16.0737, 27.6422 16.2558, 27.4911 16.4172, 27.3405 16.5792, 27.1613 16.7058, 26.9535 16.7968, 26.7463 16.8884, 26.523 16.9342, 26.2837 16.9342, 25.8371 16.9342, 25.4713 16.7727, 25.185 16.4493, 24.8988 16.1258, 24.7493 15.8693, 24.7367 15.6793, 24.6303 15.93, 24.3503 16.2191, 23.8974 16.5455, 23.4446 16.8718, 22.9259 17.035, 22.3408 17.035, 21.9635 17.035, 21.5845 16.9955, 21.2044 16.9159, 20.8242 16.8369, 20.475 16.7184, 20.1572 16.5592, 19.8395 16.4006, 19.583 16.1882, 19.3884 15.9226, 19.1937 15.6569, 19.0958 15.3317, 19.0958 14.9464, 19.0958 14.4037, 19.2613 13.9274, 19.591 13.518, 19.9214 13.1093, 20.3256 12.7824, 20.803 12.5373, 21.407 12.2448, 22.0311 12.0467, 22.6757 11.9425, 23.3204 11.8389, 23.9444 11.7713, 24.5478 11.7404 L 24.5478 11.0076 C 24.5478 10.7333, 24.5009 10.4603, 24.4064 10.1883, 24.3125 9.91694, 24.1711 9.67992, 23.9822 9.47783, 23.6175 9.05703, 23.1744 8.84921, 22.6522 8.85494, 22.2246 8.85551, 21.8301 8.92421, 21.4683 9.06161, 21.1065 9.19902, 20.8631 9.34386, 20.7372 9.49615 L 20.6427 9.49615 C 20.8694 9.49672, 21.0801 9.55798, 21.2748 9.67935, 21.5078 9.83851, 21.624 10.0893, 21.624 10.4305, 21.624 10.7488, 21.5187 10.987, 21.308 11.1455, 21.0973 11.3047, 20.8757 11.3837, 20.6427 11.3831, 20.404 11.3837, 20.179 11.3047, 19.9683 11.1455, 19.7576 10.987, 19.6523 10.7488, 19.6523 10.4305, 19.6523 10.0767, 19.7422 9.76236, 19.9214 9.48756, 20.1006 9.21276, 20.333 8.98375, 20.6193 8.80055, 20.9055 8.61734, 21.2261 8.48166, 21.5811 8.39292, 21.9366 8.30476, 22.2938 8.2601, 22.6522 8.25953, 23.0925 8.2601, 23.5184 8.32422, 23.9301 8.45246, 24.3423 8.5807, 24.7179 8.77937, 25.0574 9.0473, 25.3654 9.29806, 25.6138 9.59004, 25.8028 9.92267, 25.9917 10.2559, 26.0856 10.6171, 26.0856 11.0076 L 26.0856 15.2121 C 26.0856 15.4628, 26.1377 15.6833, 26.2413 15.8722, 26.3455 16.0617, 26.5007 16.1562, 26.7079 16.1556, 26.9031 16.1562, 27.0508 16.0617, 27.1516 15.8722, 27.2524 15.6833, 27.3022 15.4628, 27.3022 15.2121 L 27.3022 13.9205, 27.9817 13.9205, 27.9817 15.2121 Z M 24.5478 12.3266 C 24.1265 12.3455, 23.6816 12.4039, 23.2133 12.5013, 22.745 12.5992, 22.3093 12.7698, 21.9068 13.0136, 21.561 13.222, 21.2862 13.5014, 21.0818 13.8524, 20.8775 14.2039, 20.775 14.5686, 20.775 14.9464, 20.775 15.1606, 20.8162 15.3564, 20.8975 15.5333, 20.9794 15.7107, 21.0939 15.8665, 21.2416 16.0004, 21.3893 16.135, 21.561 16.2403, 21.7557 16.3165, 21.9509 16.3932, 22.1587 16.431, 22.3786 16.4304, 22.6866 16.431, 22.97 16.376, 23.2276 16.2661, 23.4852 16.1562, 23.7131 16.0004, 23.9112 15.7989, 24.1093 15.5974, 24.265 15.3627, 24.3784 15.0936, 24.4917 14.8251, 24.5478 14.5411, 24.5478 14.2411 Z" stroke="none" fill="#000000" />
			<path d="M 34.4018 14.461 C 34.4018 14.7667, 34.3611 15.0724, 34.2793 15.3775, 34.1974 15.6833, 34.0795 15.9581, 33.9255 16.202, 33.7715 16.4464, 33.5716 16.6462, 33.3266 16.8014, 33.0816 16.9571, 32.7953 17.035, 32.4678 17.035, 32.1284 17.035, 31.7889 16.9863, 31.4494 16.8884, 31.1099 16.7911, 30.8047 16.6113, 30.5345 16.3485, 30.2643 16.0863, 30.0782 15.7886, 29.9774 15.4554, 29.8767 15.1228, 29.8263 14.7913, 29.8263 14.461 L 29.8263 9.3221, 28.1849 9.3221, 28.1849 8.7267 C 28.6441 8.72727, 29.0248 8.62822, 29.3265 8.42956, 29.6288 8.23147, 29.8818 7.96869, 30.0862 7.64179, 30.2906 7.31546, 30.4429 6.93646, 30.5436 6.50593, 30.6444 6.0754, 30.6942 5.60652, 30.6942 5.09927 L 31.3641 5.09927, 31.3641 8.55265, 34.0903 8.55265, 34.0903 9.3221, 31.3641 9.3221, 31.3641 14.461 C 31.3641 14.7426, 31.3881 15.0066, 31.435 15.2539, 31.482 15.5012, 31.5684 15.7256, 31.6944 15.9266, 31.9085 16.2266, 32.1942 16.376, 32.5526 16.3754, 32.7415 16.376, 32.9064 16.3291, 33.0478 16.234, 33.1898 16.1396, 33.3106 16.0021, 33.4113 15.8218, 33.5121 15.642, 33.5905 15.4342, 33.6472 15.1989, 33.7039 14.9642, 33.732 14.718, 33.732 14.461 L 33.732 13.2427, 34.4018 13.2427, 34.4018 14.461 Z" stroke="none" fill="#000000" />
			<path d="M 51.0211 16.8334 C 50.2414 16.7911, 49.4902 16.7693, 48.7666 16.7693, 48.0435 16.7693, 47.2826 16.7911, 46.484 16.8334 L 46.484 16.064 C 46.7668 16.0646, 47.0262 16.06, 47.262 16.0508, 47.4979 16.0417, 47.676 16.0096, 47.795 15.9541, 47.8706 15.918, 47.9227 15.8539, 47.9508 15.7623, 47.9794 15.6707, 47.9931 15.5762, 47.9931 15.4777 L 47.9931 11.0076 C 47.9931 10.703, 47.9742 10.4145, 47.9364 10.1425, 47.8987 9.87114, 47.8048 9.61866, 47.6536 9.38623, 47.5655 9.24024, 47.4384 9.13375, 47.2718 9.06619, 47.1052 8.99921, 46.9179 8.96543, 46.7101 8.96486, 46.3517 8.96543, 46.0185 9.04043, 45.7105 9.18985, 45.4025 9.33985, 45.1369 9.54138, 44.9136 9.79443, 44.6903 10.048, 44.5128 10.3458, 44.3806 10.6875, 44.2489 11.0299, 44.1825 11.3866, 44.1825 11.7587 L 44.1825 15.4777 C 44.1825 15.5819, 44.1951 15.6787, 44.2203 15.7668, 44.2455 15.8556, 44.2987 15.918, 44.3806 15.9541, 44.5002 16.0096, 44.6777 16.0417, 44.9136 16.0508, 45.1495 16.06, 45.4088 16.0646, 45.6916 16.064 L 45.6916 16.8334 C 44.893 16.7911, 44.1321 16.7693, 43.4085 16.7693, 42.6734 16.7693, 41.9217 16.7911, 41.1545 16.8334 L 41.1545 16.064 C 41.4373 16.0646, 41.6967 16.06, 41.9325 16.0508, 42.1684 16.0417, 42.3465 16.0096, 42.4655 15.9541, 42.5348 15.918, 42.5818 15.8556, 42.607 15.7668, 42.6321 15.6787, 42.6447 15.5819, 42.6447 15.4777 L 42.6447 11.0076 C 42.6447 10.703, 42.6276 10.4145, 42.5932 10.1425, 42.5589 9.87114, 42.4655 9.61866, 42.3144 9.38623, 42.2205 9.24024, 42.09 9.13375, 41.9234 9.06619, 41.7568 8.99921, 41.5696 8.96543, 41.3617 8.96486, 41.0034 8.96543, 40.669 9.04043, 40.3576 9.18985, 40.0461 9.33985, 39.7805 9.54138, 39.5601 9.79443, 39.3402 10.048, 39.1639 10.3458, 39.0316 10.6875, 38.9 11.0299, 38.8335 11.3866, 38.8335 11.7587 L 38.8335 15.4777 C 38.8335 15.5819, 38.8461 15.6787, 38.8713 15.7668, 38.8965 15.8556, 38.9469 15.918, 39.0225 15.9541, 39.1421 16.0096, 39.3213 16.0417, 39.5601 16.0508, 39.7994 16.06, 40.057 16.0646, 40.3335 16.064 L 40.3335 16.8243 C 40.0129 16.8123, 39.7175 16.8031, 39.4473 16.7968, 39.177 16.7911, 38.9125 16.7819, 38.6543 16.7693 L 38.0601 16.7693 C 37.3244 16.7693, 36.5727 16.7911, 35.8055 16.8334 L 35.8055 16.064 C 36.0889 16.0646, 36.3483 16.06, 36.5841 16.0508, 36.82 16.0417, 36.9981 16.0096, 37.1172 15.9541, 37.1927 15.918, 37.2425 15.8556, 37.2677 15.7668, 37.2929 15.6787, 37.3055 15.5819, 37.3055 15.4777 L 37.3055 10.2748 C 37.3055 10.1042, 37.2981 9.949, 37.282 9.80817, 37.2666 9.6679, 37.2053 9.55454, 37.0983 9.46867, 36.9918 9.39596, 36.8189 9.35359, 36.5796 9.341, 36.3403 9.32897, 36.0826 9.32268, 35.8055 9.3221 L 35.8055 8.56181, 37.428 8.44273, 38.7299 8.34197, 38.7299 9.91751 C 38.8496 9.63698, 39.1593 9.30607, 39.6591 8.92421, 40.1595 8.54292, 40.7457 8.3517, 41.4184 8.35113, 41.7711 8.3517, 42.1341 8.39292, 42.5079 8.47536, 42.8823 8.5578, 43.2109 8.73643, 43.4938 9.01066, 43.6827 9.19444, 43.8258 9.39481, 43.9232 9.61122, 44.0205 9.8282, 44.0691 9.94557, 44.0691 9.96332, 44.2392 9.59748, 44.5695 9.23737, 45.0596 8.88299, 45.5502 8.52918, 46.1164 8.3517, 46.7576 8.35113, 47.1097 8.3517, 47.4761 8.39292, 47.8563 8.47536, 48.237 8.5578, 48.5691 8.73643, 48.8519 9.01123, 49.1347 9.28604, 49.3191 9.60206, 49.4038 9.95931, 49.4885 10.3166, 49.5309 10.6664, 49.5309 11.0076 L 49.5309 15.4777 C 49.5309 15.5819, 49.5435 15.6787, 49.5687 15.7668, 49.5939 15.8556, 49.6477 15.918, 49.729 15.9541, 49.8486 16.0096, 50.0261 16.0417, 50.262 16.0508, 50.4979 16.06, 50.7509 16.0646, 51.0211 16.064 L 51.0211 16.8334 Z" stroke="none" fill="#000000" />
			<rect />
		</svg>
	</g>
	<g transform="matrix(1 0 -0 1 349.668 166.826)">
		<svg width="41.9788857" height="47.9999886">
			<defs />
			<path d="M 12.858 4.32066 C 12.8208 4.50444, 12.7074 4.59604, 12.5185 4.59547, 12.3176 4.59604, 12.1258 4.61894, 11.9431 4.66474, 11.7611 4.71054, 11.583 4.7884, 11.4101 4.89832, 11.2372 5.00825, 11.0786 5.14107, 10.9338 5.29679, 10.789 5.45251, 10.6567 5.62827, 10.537 5.82293 L 3.65892 17.0075 C 3.56503 17.1787, 3.42018 17.2611, 3.22496 17.2548 L 3.04576 17.2548 C 2.81332 17.2548, 2.69996 17.1575, 2.70626 16.9617 L 1.52689 5.26416 C 1.5017 5.10614, 1.47651 4.98248, 1.45132 4.89374, 1.42613 4.80558, 1.38834 4.7426, 1.33796 4.70539, 1.25037 4.6573, 1.11068 4.62695, 0.918313 4.61436, 0.726522 4.60234, 0.507824 4.59604, 0.26279 4.59547, 0.168325 4.59604, 0.0990518 4.56569, 0.0549685 4.50386, 0.0171829 4.4678, -0.00170994 4.422, -0.00170994 4.36646, -0.00170994 4.33039, 0.00802273 4.29662, 0.0269156 4.2657 L 0.0549685 4.1283 C 0.0744339 4.04929, 0.1168 3.98231, 0.182638 3.92735, 0.249049 3.87239, 0.329201 3.84491, 0.423092 3.84433, 1.02709 3.88155, 1.63739 3.89987, 2.25341 3.89929, 2.34787 3.89987, 2.44863 3.89357, 2.55512 3.88097, 3.28507 3.88155, 4.01502 3.86952, 4.7444 3.84433, 4.83256 3.84491, 4.911 3.87525, 4.98027 3.93593, 5.00546 3.98517, 5.01806 4.03097, 5.01806 4.07334, 5.01806 4.11055, 5.0089 4.14433, 4.98943 4.1741 L 4.96138 4.3115 C 4.94248 4.39738, 4.89668 4.46665, 4.82455 4.51818, 4.75241 4.57028, 4.67512 4.59604, 4.59325 4.59547, 4.37341 4.59604, 4.17189 4.6052, 3.98926 4.62352, 3.8072 4.64184, 3.628 4.6905, 3.45167 4.76951, 3.34518 4.82504, 3.2948 4.91664, 3.30053 5.04431 L 3.30053 5.10843 C 3.52094 6.73322, 3.69728 8.36544, 3.82895 10.0051, 3.9612 11.6448, 4.10261 13.1974, 4.25376 14.6625 L 9.82027 5.60308 C 9.90214 5.47541, 9.95252 5.34087, 9.97141 5.20004 L 9.97141 5.15423 C 9.97141 5.06321, 9.94965 4.98076, 9.905 4.90691, 9.76702 4.69966, 9.50939 4.59604, 9.13154 4.59547, 8.9678 4.59604, 8.88593 4.5136, 8.88593 4.34814 L 8.88593 4.28402, 8.92372 4.11914 C 8.99356 3.93651, 9.11608 3.84491, 9.29184 3.84433, 9.84546 3.86952, 10.4019 3.88155, 10.9619 3.88097, 11.0374 3.89357, 11.1101 3.89987, 11.1788 3.89929, 11.6569 3.89987, 12.1475 3.88155, 12.6508 3.84433, 12.8208 3.84491, 12.9118 3.92735, 12.9244 4.09166 L 12.9244 4.16494 Z" stroke="none" fill="#000000" />
			<rect />
		</svg>
	</g>
	<path d="M 0 110.813 L 0 -110.812" fill="none" stroke="#000000" stroke-opacity="0.388235271" stroke-width="4.80000019" stroke-linecap="round" stroke-linejoin="round" stroke-dasharray="16.824, 11.976" transform="matrix(0.277778 0 0 0.277778 129.327 147.252)" />
	<path d="M 0 110.813 L 0 -110.812" fill="none" stroke="#000000" stroke-opacity="0.388235271" stroke-width="4.80000019" stroke-linecap="round" stroke-linejoin="round" stroke-dasharray="16.824, 11.976" transform="matrix(0.277778 0 0 0.277778 186.735 147.252)" />
	<g transform="matrix(1 0 -0 1 55.1731 43.7008)">
		<svg width="30.0150681" height="45.0428467">
			<defs />
			<path d="M 7.60815 16.7669 L 0.0832232 16.7669, 0.0832232 16.2732 C 0.0832232 16.2379, 0.101738 16.184, 0.138768 16.1116 L 3.16176 12.826 C 3.51971 12.4316, 3.8816 12.0277, 4.24853 11.6147, 4.61546 11.2018, 4.94312 10.7799, 5.23263 10.349, 5.52213 9.91808, 5.75329 9.47372, 5.9261 9.01589, 6.0989 8.55807, 6.18475 8.0778, 6.18475 7.57453, 6.18475 7.15037, 6.12976 6.7537, 6.01867 6.38565, 5.90758 6.01759, 5.74768 5.69442, 5.53784 5.41613, 5.32801 5.13785, 5.06599 4.91343, 4.7518 4.74286, 4.43761 4.5723, 4.07404 4.48702, 3.6611 4.48646, 3.04506 4.48702, 2.50083 4.67105, 2.02954 5.0391, 1.55825 5.40716, 1.24518 5.8128, 1.09089 6.25492, 1.06059 6.26726, 1.10996 6.27343, 1.23901 6.27287 L 1.3961 6.27287 C 1.58125 6.31551, 1.74115 6.38004, 1.87693 6.46644, 2.01271 6.5534, 2.1266 6.67291, 2.21918 6.82552, 2.31175 6.97812, 2.35776 7.16215, 2.35776 7.37704, 2.35776 7.73668, 2.24106 8.01216, 2.00654 8.20348, 1.77201 8.39536, 1.51 8.49074, 1.22049 8.49018, 0.943327 8.49074, 0.684679 8.39536, 0.443984 8.20348, 0.203851 8.01216, 0.0832232 7.73668, 0.0832232 7.37704, 0.0832232 6.87489, 0.18197 6.39911, 0.379463 5.95026, 0.576956 5.50142, 0.844581 5.1126, 1.18346 4.78326, 1.52234 4.45448, 1.92294 4.19415, 2.38525 4.00226, 2.84756 3.81094, 3.33793 3.715, 3.85523 3.71444, 4.49596 3.715, 5.08339 3.80926, 5.61639 3.99778, 6.1494 4.18629, 6.60386 4.45728, 6.97977 4.81019, 7.35568 5.16366, 7.65023 5.57211, 7.86287 6.03554, 8.07552 6.49954, 8.18156 7.01235, 8.18156 7.57453, 8.18156 8.19731, 8.04017 8.77071, 7.75627 9.29418, 7.47294 9.81821, 7.12172 10.2985, 6.7026 10.735, 6.28349 11.172, 5.83801 11.5833, 5.36672 11.9693, 4.89543 12.3553, 4.46846 12.7307, 4.08638 13.0954 L 1.95997 15.0972, 4.74282 15.0972 C 5.13108 15.0978, 5.49352 15.095, 5.82903 15.0888, 6.16511 15.0832, 6.45013 15.0708, 6.68409 15.0529, 6.91861 15.0349, 7.03868 15.0232, 7.04429 15.0164, 7.09366 14.9749, 7.14023 14.8913, 7.18343 14.7656, 7.22663 14.64, 7.26647 14.4918, 7.3035 14.3213, 7.34053 14.1507, 7.37756 13.9773, 7.41459 13.8006, 7.45162 13.6244, 7.48528 13.4309, 7.51614 13.221 L 8.20007 13.221 Z" stroke="none" fill="#000000" />
			<rect />
		</svg>
	</g>
	<g transform="matrix(1 0 -0 1 53.0497 182.28)">
		<svg width="41.9788857" height="47.9999886">
			<defs />
			<path d="M 12.2634 10.4122 C 12.0367 11.2984, 11.6703 12.1532, 11.1642 12.9776, 10.6581 13.802, 10.0209 14.556, 9.25376 15.2396, 8.56217 15.8567, 7.80531 16.3474, 6.98433 16.7103, 6.16336 17.0733, 5.34123 17.2548, 4.51739 17.2548, 3.68725 17.2548, 2.94929 17.0722, 2.30464 16.7058, 1.65999 16.3394, 1.14588 15.8447, 0.762298 15.2212, 0.340931 14.5319, 0.0987594 13.7682, 0.0357833 12.9312, 0.0105929 12.7303, -0.00200236 12.5287, -0.00200236 12.3266, -0.00200236 11.698, 0.0798666 11.0477, 0.243032 10.3755, 0.482341 9.4784, 0.85161 8.60704, 1.35198 7.76087, 1.85236 6.91528, 2.49185 6.1504, 3.27161 5.46568, 3.96377 4.84966, 4.72006 4.35329, 5.54104 3.97773, 6.36202 3.60216, 7.19044 3.41438, 8.02687 3.41381, 8.85701 3.41438, 9.59154 3.60388, 10.2299 3.98231, 10.8688 4.36131, 11.3795 4.86168, 11.7631 5.484, 12.1844 6.17445, 12.4329 6.9439, 12.5085 7.79236, 12.5211 8.00075, 12.5274 8.20514, 12.5274 8.40609, 12.5274 9.0599, 12.4398 9.72859, 12.2634 10.4122 Z M 10.3576 5.79545 C 10.1503 5.28305, 9.83887 4.86626, 9.42323 4.54566, 9.00816 4.22505, 8.49862 4.06475, 7.89462 4.06418, 7.2975 4.06475, 6.70323 4.22849, 6.11183 4.55482, 5.521 4.88172, 4.99257 5.30423, 4.52655 5.82293, 3.94144 6.45269, 3.47943 7.13512, 3.13993 7.87079, 2.80043 8.60704, 2.53593 9.35302, 2.34701 10.1099, 2.12716 10.9349, 1.99205 11.7381, 1.94167 12.519, 1.92907 12.6661, 1.92278 12.8127, 1.92278 12.9587, 1.92278 13.5701, 2.02354 14.1684, 2.22449 14.7541, 2.41971 15.2739, 2.71856 15.709, 3.12104 16.06, 3.52351 16.4115, 4.02675 16.5867, 4.63017 16.5861, 5.25306 16.5867, 5.86222 16.4081, 6.45648 16.0508, 7.05075 15.6936, 7.58375 15.2522, 8.0555 14.7266, 8.6658 14.019, 9.14041 13.2707, 9.4799 12.4829, 9.81997 11.6952, 10.0965 10.8919, 10.31 10.0732, 10.5053 9.31066, 10.6278 8.55952, 10.6782 7.81984 L 10.6782 7.49924 C 10.6782 6.88894, 10.5717 6.32101, 10.3576 5.79545 Z" stroke="none" fill="#000000" />
			<rect />
		</svg>
	</g>
	<path d="M -103.334 0 L 103.333 0" fill="none" stroke="#000000" stroke-opacity="0.388235271" stroke-width="4.80000019" stroke-linecap="round" stroke-linejoin="round" stroke-dasharray="16.824, 11.976" transform="matrix(0.277778 0 0 0.277778 100.624 116.471)" />
	<path d="M -206.667 0 L 206.667 0" fill="none" stroke="#000000" stroke-opacity="0.388235271" stroke-width="4.80000019" stroke-linecap="round" stroke-linejoin="round" stroke-dasharray="16.824, 11.976" transform="matrix(0.277778 0 0 0.277778 129.327 54.9082)" />
	<path d="M 103.334 0 L -103.333 0" fill="none" stroke="#000000" stroke-width="6.71999979" stroke-linecap="round" stroke-linejoin="round" transform="matrix(0.277778 0 0 0.277778 158.031 116.471)" />
	<path d="M -63.8393 0 L 63.8394 0" fill="none" stroke="#000000" stroke-width="3.5999999" stroke-linecap="round" stroke-linejoin="round" marker-end="url(#CustomMarker-03)" transform="matrix(0.277778 0 0 0.277778 147.06 116.471)" />
	<g transform="matrix(1 0 -0 1 120.978 182.222)">
		<svg width="53.9427032" height="54.0428391">
			<defs />
			<path d="M 12.858 4.32066 C 12.8208 4.50444, 12.7074 4.59604, 12.5185 4.59547, 12.3176 4.59604, 12.1258 4.61894, 11.9431 4.66474, 11.7611 4.71054, 11.583 4.7884, 11.4101 4.89832, 11.2372 5.00825, 11.0786 5.14107, 10.9338 5.29679, 10.789 5.45251, 10.6567 5.62827, 10.537 5.82293 L 3.65892 17.0075 C 3.56503 17.1787, 3.42018 17.2611, 3.22496 17.2548 L 3.04576 17.2548 C 2.81332 17.2548, 2.69996 17.1575, 2.70626 16.9617 L 1.52689 5.26416 C 1.5017 5.10614, 1.47651 4.98248, 1.45132 4.89374, 1.42613 4.80558, 1.38834 4.7426, 1.33796 4.70539, 1.25037 4.6573, 1.11068 4.62695, 0.918313 4.61436, 0.726522 4.60234, 0.507824 4.59604, 0.26279 4.59547, 0.168325 4.59604, 0.0990518 4.56569, 0.0549685 4.50386, 0.0171829 4.4678, -0.00170994 4.422, -0.00170994 4.36646, -0.00170994 4.33039, 0.00802273 4.29662, 0.0269156 4.2657 L 0.0549685 4.1283 C 0.0744339 4.04929, 0.1168 3.98231, 0.182638 3.92735, 0.249049 3.87239, 0.329201 3.84491, 0.423092 3.84433, 1.02709 3.88155, 1.63739 3.89987, 2.25341 3.89929, 2.34787 3.89987, 2.44863 3.89357, 2.55512 3.88097, 3.28507 3.88155, 4.01502 3.86952, 4.7444 3.84433, 4.83256 3.84491, 4.911 3.87525, 4.98027 3.93593, 5.00546 3.98517, 5.01806 4.03097, 5.01806 4.07334, 5.01806 4.11055, 5.0089 4.14433, 4.98943 4.1741 L 4.96138 4.3115 C 4.94248 4.39738, 4.89668 4.46665, 4.82455 4.51818, 4.75241 4.57028, 4.67512 4.59604, 4.59325 4.59547, 4.37341 4.59604, 4.17189 4.6052, 3.98926 4.62352, 3.8072 4.64184, 3.628 4.6905, 3.45167 4.76951, 3.34518 4.82504, 3.2948 4.91664, 3.30053 5.04431 L 3.30053 5.10843 C 3.52094 6.73322, 3.69728 8.36544, 3.82895 10.0051, 3.9612 11.6448, 4.10261 13.1974, 4.25376 14.6625 L 9.82027 5.60308 C 9.90214 5.47541, 9.95252 5.34087, 9.97141 5.20004 L 9.97141 5.15423 C 9.97141 5.06321, 9.94965 4.98076, 9.905 4.90691, 9.76702 4.69966, 9.50939 4.59604, 9.13154 4.59547, 8.9678 4.59604, 8.88593 4.5136, 8.88593 4.34814 L 8.88593 4.28402, 8.92372 4.11914 C 8.99356 3.93651, 9.11608 3.84491, 9.29184 3.84433, 9.84546 3.86952, 10.4019 3.88155, 10.9619 3.88097, 11.0374 3.89357, 11.1101 3.89987, 11.1788 3.89929, 11.6569 3.89987, 12.1475 3.88155, 12.6508 3.84433, 12.8208 3.84491, 12.9118 3.92735, 12.9244 4.09166 L 12.9244 4.16494 Z" stroke="none" fill="#000000" />
			<path d="M 2.85213 -0.373133 C 2.85213 0.119637, 2.81782 0.609522, 2.74921 1.09684, 2.6806 1.58416, 2.51068 2.04167, 2.23945 2.46871, 2.0458 2.78034, 1.78676 3.01951, 1.46294 3.18687, 1.13913 3.35455, 0.786787 3.43822, 0.406228 3.43822, 0.0400968 3.43822, -0.305836 3.35455, -0.631572 3.18687, -0.957307 3.01951, -1.21732 2.78034, -1.41096 2.46871, -1.68188 2.04167, -1.8518 1.58416, -1.92041 1.09684, -1.98902 0.609522, -2.02364 0.119637, -2.02364 -0.373133, -2.02364 -0.871996, -1.98902 -1.37054, -1.92041 -1.86812, -1.8518 -2.3657, -1.68188 -2.83154, -1.41096 -3.26628, -1.21732 -3.58047, -0.958269 -3.82509, -0.634457 -3.9995, -0.310325 -4.17391, 0.0365701 -4.26112, 0.406228 -4.26144, 0.78326 -4.26112, 1.13432 -4.17391, 1.46006 -3.9995, 1.78579 -3.82509, 2.0458 -3.58047, 2.23945 -3.26628, 2.51068 -2.83154, 2.6806 -2.3657, 2.74921 -1.86812, 2.81782 -1.37054, 2.85213 -0.871996, 2.85213 -0.373133 Z M 1.80599 -0.552672 C 1.80599 -0.767799, 1.80439 -0.995108, 1.80086 -1.2346, 1.79766 -1.47377, 1.78868 -1.70813, 1.77457 -1.93737, 1.76047 -2.16628, 1.73514 -2.38269, 1.69795 -2.58627, 1.66108 -2.78954, 1.61619 -2.96331, 1.56329 -3.10726, 1.45749 -3.33938, 1.30264 -3.53014, 1.09842 -3.6789, 0.89419 -3.82766, 0.663354 -3.90204, 0.406228 -3.90236, 0.156156 -3.90204, -0.0698709 -3.8267, -0.272494 -3.67633, -0.474796 -3.52565, -0.629007 -3.33617, -0.734807 -3.10726, -0.787386 -2.96331, -0.832271 -2.78954, -0.869461 -2.58627, -0.90633 -2.38269, -0.931979 -2.16628, -0.946086 -1.93737, -0.960192 -1.70813, -0.968849 -1.47377, -0.972375 -1.2346, -0.975902 -0.995108, -0.977826 -0.767799, -0.977826 -0.552672, -0.977826 -0.31286, -0.975902 -0.0605431, -0.972375 0.204277, -0.968849 0.469418, -0.960192 0.725902, -0.946086 0.97373, -0.931979 1.22188, -0.90633 1.45688, -0.869461 1.67906, -0.832271 1.90156, -0.787386 2.08783, -0.734807 2.23788, -0.63606 2.48795, -0.483452 2.69314, -0.277623 2.85376, -0.0717945 3.0147, 0.156156 3.09486, 0.406228 3.09454, 0.66688 3.09486, 0.900281 3.0147, 1.10611 2.85376, 1.31226 2.69314, 1.46455 2.48795, 1.56329 2.23788, 1.61619 2.08783, 1.66108 1.90156, 1.69795 1.67906, 1.73514 1.45688, 1.76047 1.22188, 1.77457 0.97373, 1.78868 0.725902, 1.79766 0.469418, 1.80086 0.204277, 1.80439 -0.0605431, 1.80599 -0.31286, 1.80599 -0.552672 Z" stroke="none" fill="#000000" transform="matrix(1.12 0 0 1 13.6769 16.3063)" />
			<rect />
		</svg>
	</g>
	<g transform="matrix(1 0 -0 1 173.019 182.222)">
		<svg width="87.0040054" height="54.0428391">
			<defs />
			<path d="M 7.60694 16.7669 L 0.0808844 16.7669, 0.0808844 16.2732 C 0.0808844 16.2379, 0.0993994 16.184, 0.136429 16.1116 L 3.15998 12.826 C 3.51737 12.4316, 3.87926 12.0277, 4.24619 11.6147, 4.61312 11.2018, 4.9419 10.7799, 5.23141 10.349, 5.52092 9.91808, 5.75207 9.47372, 5.92488 9.01589, 6.09769 8.55807, 6.18353 8.0778, 6.18353 7.57453, 6.18353 7.15037, 6.12798 6.7537, 6.01689 6.38565, 5.9058 6.01759, 5.7459 5.69442, 5.53607 5.41613, 5.32679 5.13785, 5.06478 4.91343, 4.75058 4.74286, 4.43639 4.5723, 4.07226 4.48702, 3.65932 4.48646, 3.04328 4.48702, 2.49905 4.67105, 2.0272 5.0391, 1.55591 5.40716, 1.24284 5.8128, 1.08855 6.25492, 1.05825 6.26726, 1.10762 6.27343, 1.23667 6.27287 L 1.39376 6.27287 C 1.57891 6.31551, 1.73882 6.38004, 1.87459 6.46644, 2.01037 6.5534, 2.12426 6.67291, 2.21684 6.82552, 2.30941 6.97812, 2.35542 7.16215, 2.35542 7.37704, 2.35542 7.73668, 2.23872 8.01216, 2.0042 8.20348, 1.76967 8.39536, 1.50766 8.49074, 1.21815 8.49018, 0.940989 8.49074, 0.681779 8.39536, 0.441646 8.20348, 0.201512 8.01216, 0.0808844 7.73668, 0.0808844 7.37704, 0.0808844 6.87489, 0.179631 6.39911, 0.377124 5.95026, 0.574617 5.50142, 0.842242 5.1126, 1.18112 4.78326, 1.52 4.45448, 1.9206 4.19415, 2.38291 4.00226, 2.84522 3.81094, 3.33559 3.715, 3.85345 3.71444, 4.49474 3.715, 5.08217 3.80926, 5.61518 3.99778, 6.14818 4.18629, 6.60264 4.45728, 6.97855 4.81019, 7.35446 5.16366, 7.64902 5.57211, 7.86166 6.03554, 8.0743 6.49954, 8.18034 7.01235, 8.18034 7.57453, 8.18034 8.19731, 8.03895 8.77071, 7.75506 9.29418, 7.47172 9.81821, 7.1205 10.2985, 6.70139 10.735, 6.28228 11.172, 5.83679 11.5833, 5.36494 11.9693, 4.89365 12.3553, 4.46669 12.7307, 4.08461 13.0954 L 1.95763 15.0972, 4.74104 15.0972 C 5.1293 15.0978, 5.49174 15.095, 5.82726 15.0888, 6.16333 15.0832, 6.44835 15.0708, 6.68287 15.0529, 6.9174 15.0349, 7.03746 15.0232, 7.04307 15.0164, 7.09245 14.9749, 7.13901 14.8913, 7.18222 14.7656, 7.22542 14.64, 7.26525 14.4918, 7.30228 14.3213, 7.33931 14.1507, 7.37634 13.9773, 7.41337 13.8006, 7.4504 13.6244, 7.48407 13.4309, 7.51492 13.221 L 8.19885 13.221 Z" stroke="none" fill="#000000" />
			<path d="M 23.0976 4.32066 C 23.0604 4.50444, 22.9471 4.59604, 22.7581 4.59547, 22.5572 4.59604, 22.3654 4.61894, 22.1828 4.66474, 22.0007 4.71054, 21.8227 4.7884, 21.6498 4.89832, 21.4769 5.00825, 21.3183 5.14107, 21.1734 5.29679, 21.0286 5.45251, 20.8963 5.62827, 20.7767 5.82293 L 13.8986 17.0075 C 13.8047 17.1787, 13.6598 17.2611, 13.4646 17.2548 L 13.2854 17.2548 C 13.053 17.2548, 12.9396 17.1575, 12.9459 16.9617 L 11.7665 5.26416 C 11.7413 5.10614, 11.7161 4.98248, 11.691 4.89374, 11.6658 4.80558, 11.628 4.7426, 11.5776 4.70539, 11.49 4.6573, 11.3503 4.62695, 11.1579 4.61436, 10.9662 4.60234, 10.7475 4.59604, 10.5024 4.59547, 10.408 4.59604, 10.3387 4.56569, 10.2946 4.50386, 10.2568 4.4678, 10.2379 4.422, 10.2379 4.36646, 10.2379 4.33039, 10.2477 4.29662, 10.2665 4.2657 L 10.2946 4.1283 C 10.3141 4.04929, 10.3564 3.98231, 10.4223 3.92735, 10.4887 3.87239, 10.5688 3.84491, 10.6627 3.84433, 11.2667 3.88155, 11.877 3.89987, 12.493 3.89929, 12.5875 3.89987, 12.6883 3.89357, 12.7948 3.88097, 13.5247 3.88155, 14.2547 3.86952, 14.984 3.84433, 15.0722 3.84491, 15.1506 3.87525, 15.2199 3.93593, 15.2451 3.98517, 15.2577 4.03097, 15.2577 4.07334, 15.2577 4.11055, 15.2485 4.14433, 15.2291 4.1741 L 15.201 4.3115 C 15.1821 4.39738, 15.1363 4.46665, 15.0642 4.51818, 14.992 4.57028, 14.9148 4.59604, 14.8329 4.59547, 14.613 4.59604, 14.4115 4.6052, 14.2289 4.62352, 14.0468 4.64184, 13.8676 4.6905, 13.6913 4.76951, 13.5848 4.82504, 13.5344 4.91664, 13.5402 5.04431 L 13.5402 5.10843 C 13.7606 6.73322, 13.9369 8.36544, 14.0686 10.0051, 14.2008 11.6448, 14.3422 13.1974, 14.4934 14.6625 L 20.0599 5.60308 C 20.1418 5.47541, 20.1922 5.34087, 20.211 5.20004 L 20.211 5.15423 C 20.211 5.06321, 20.1893 4.98076, 20.1446 4.90691, 20.0067 4.69966, 19.749 4.59604, 19.3712 4.59547, 19.2074 4.59604, 19.1256 4.5136, 19.1256 4.34814 L 19.1256 4.28402, 19.1633 4.11914 C 19.2332 3.93651, 19.3557 3.84491, 19.5315 3.84433, 20.0851 3.86952, 20.6416 3.88155, 21.2015 3.88097, 21.2771 3.89357, 21.3498 3.89987, 21.4185 3.89929, 21.8965 3.89987, 22.3872 3.88155, 22.8904 3.84433, 23.0604 3.84491, 23.1515 3.92735, 23.164 4.09166 L 23.164 4.16494 Z" stroke="none" fill="#000000" />
			<path d="M 2.85213 -0.373133 C 2.85213 0.119637, 2.81782 0.609522, 2.74921 1.09684, 2.6806 1.58416, 2.51068 2.04167, 2.23945 2.46871, 2.0458 2.78034, 1.78676 3.01951, 1.46294 3.18687, 1.13913 3.35455, 0.786787 3.43822, 0.406228 3.43822, 0.0400968 3.43822, -0.305836 3.35455, -0.631572 3.18687, -0.957307 3.01951, -1.21732 2.78034, -1.41096 2.46871, -1.68188 2.04167, -1.8518 1.58416, -1.92041 1.09684, -1.98902 0.609522, -2.02364 0.119637, -2.02364 -0.373133, -2.02364 -0.871996, -1.98902 -1.37054, -1.92041 -1.86812, -1.8518 -2.3657, -1.68188 -2.83154, -1.41096 -3.26628, -1.21732 -3.58047, -0.958269 -3.82509, -0.634457 -3.9995, -0.310325 -4.17391, 0.0365701 -4.26112, 0.406228 -4.26144, 0.78326 -4.26112, 1.13432 -4.17391, 1.46006 -3.9995, 1.78579 -3.82509, 2.0458 -3.58047, 2.23945 -3.26628, 2.51068 -2.83154, 2.6806 -2.3657, 2.74921 -1.86812, 2.81782 -1.37054, 2.85213 -0.871996, 2.85213 -0.373133 Z M 1.80599 -0.552672 C 1.80599 -0.767799, 1.80439 -0.995108, 1.80086 -1.2346, 1.79766 -1.47377, 1.78868 -1.70813, 1.77457 -1.93737, 1.76047 -2.16628, 1.73514 -2.38269, 1.69795 -2.58627, 1.66108 -2.78954, 1.61619 -2.96331, 1.56329 -3.10726, 1.45749 -3.33938, 1.30264 -3.53014, 1.09842 -3.6789, 0.89419 -3.82766, 0.663354 -3.90204, 0.406228 -3.90236, 0.156156 -3.90204, -0.0698709 -3.8267, -0.272494 -3.67633, -0.474796 -3.52565, -0.629007 -3.33617, -0.734807 -3.10726, -0.787386 -2.96331, -0.832271 -2.78954, -0.869461 -2.58627, -0.90633 -2.38269, -0.931979 -2.16628, -0.946086 -1.93737, -0.960192 -1.70813, -0.968849 -1.47377, -0.972375 -1.2346, -0.975902 -0.995108, -0.977826 -0.767799, -0.977826 -0.552672, -0.977826 -0.31286, -0.975902 -0.0605431, -0.972375 0.204277, -0.968849 0.469418, -0.960192 0.725902, -0.946086 0.97373, -0.931979 1.22188, -0.90633 1.45688, -0.869461 1.67906, -0.832271 1.90156, -0.787386 2.08783, -0.734807 2.23788, -0.63606 2.48795, -0.483452 2.69314, -0.277623 2.85376, -0.0717945 3.0147, 0.156156 3.09486, 0.406228 3.09454, 0.66688 3.09486, 0.900281 3.0147, 1.10611 2.85376, 1.31226 2.69314, 1.46455 2.48795, 1.56329 2.23788, 1.61619 2.08783, 1.66108 1.90156, 1.69795 1.67906, 1.73514 1.45688, 1.76047 1.22188, 1.77457 0.97373, 1.78868 0.725902, 1.79766 0.469418, 1.80086 0.204277, 1.80439 -0.0605431, 1.80599 -0.31286, 1.80599 -0.552672 Z" stroke="none" fill="#000000" transform="matrix(1.12 0 0 1 24.4098 16.3063)" />
			<rect />
		</svg>
	</g>
	<g transform="matrix(1 0 -0 1 287.622 182.222)">
		<svg width="89.9627991" height="54.0428391">
			<defs />
			<path d="M 7.0781 13.5711 L 7.0781 15.3935 C 7.0781 15.5017, 7.0983 15.6022, 7.13869 15.6947, 7.17909 15.7879, 7.24529 15.849, 7.33731 15.8782, 7.47926 15.9444, 7.71041 15.9809, 8.03078 15.9865, 8.35114 15.9927, 8.67431 15.9955, 9.00085 15.9949 L 9.00085 16.7669 C 8.05827 16.731, 7.1342 16.7131, 6.22753 16.7131, 5.33433 16.7131, 4.39455 16.731, 3.40821 16.7669 L 3.40821 15.9949 C 3.74709 15.9955, 4.07419 15.9927, 4.38838 15.9865, 4.70257 15.9809, 4.9371 15.9444, 5.09083 15.8782, 5.1834 15.849, 5.25129 15.7879, 5.29449 15.6947, 5.33769 15.6022, 5.35901 15.5017, 5.35901 15.3935 L 5.35901 13.5711, 0.0895415 13.5711, 0.0895415 12.844, 6.26456 3.66058 C 6.34536 3.55342, 6.44691 3.49956, 6.56978 3.49899 L 6.77344 3.49899 C 6.97655 3.49956, 7.0781 3.60111, 7.0781 3.80421 L 7.0781 12.7812, 9.06593 12.7812, 9.06593 13.5711 Z M 5.45103 6.02152 L 0.903078 12.7812, 5.45103 12.7812 Z" stroke="none" fill="#000000" />
			<path d="M 23.5224 4.32066 C 23.4852 4.50444, 23.3719 4.59604, 23.1829 4.59547, 22.982 4.59604, 22.7902 4.61894, 22.6076 4.66474, 22.4255 4.71054, 22.2475 4.7884, 22.0746 4.89832, 21.9017 5.00825, 21.7431 5.14107, 21.5982 5.29679, 21.4534 5.45251, 21.3211 5.62827, 21.2015 5.82293 L 14.3234 17.0075 C 14.2295 17.1787, 14.0846 17.2611, 13.8894 17.2548 L 13.7102 17.2548 C 13.4778 17.2548, 13.3644 17.1575, 13.3707 16.9617 L 12.1913 5.26416 C 12.1661 5.10614, 12.1409 4.98248, 12.1158 4.89374, 12.0906 4.80558, 12.0528 4.7426, 12.0024 4.70539, 11.9148 4.6573, 11.7751 4.62695, 11.5827 4.61436, 11.391 4.60234, 11.1723 4.59604, 10.9272 4.59547, 10.8328 4.59604, 10.7635 4.56569, 10.7194 4.50386, 10.6816 4.4678, 10.6627 4.422, 10.6627 4.36646, 10.6627 4.33039, 10.6725 4.29662, 10.6913 4.2657 L 10.7194 4.1283 C 10.7389 4.04929, 10.7812 3.98231, 10.8471 3.92735, 10.9135 3.87239, 10.9936 3.84491, 11.0875 3.84433, 11.6915 3.88155, 12.3018 3.89987, 12.9178 3.89929, 13.0123 3.89987, 13.1131 3.89357, 13.2196 3.88097, 13.9495 3.88155, 14.6795 3.86952, 15.4088 3.84433, 15.497 3.84491, 15.5754 3.87525, 15.6447 3.93593, 15.6699 3.98517, 15.6825 4.03097, 15.6825 4.07334, 15.6825 4.11055, 15.6733 4.14433, 15.6539 4.1741 L 15.6258 4.3115 C 15.6069 4.39738, 15.5611 4.46665, 15.489 4.51818, 15.4168 4.57028, 15.3396 4.59604, 15.2577 4.59547, 15.0378 4.59604, 14.8363 4.6052, 14.6537 4.62352, 14.4716 4.64184, 14.2924 4.6905, 14.1161 4.76951, 14.0096 4.82504, 13.9592 4.91664, 13.965 5.04431 L 13.965 5.10843 C 14.1854 6.73322, 14.3617 8.36544, 14.4934 10.0051, 14.6256 11.6448, 14.767 13.1974, 14.9182 14.6625 L 20.4847 5.60308 C 20.5666 5.47541, 20.617 5.34087, 20.6358 5.20004 L 20.6358 5.15423 C 20.6358 5.06321, 20.6141 4.98076, 20.5694 4.90691, 20.4315 4.69966, 20.1738 4.59604, 19.796 4.59547, 19.6322 4.59604, 19.5504 4.5136, 19.5504 4.34814 L 19.5504 4.28402, 19.5882 4.11914 C 19.658 3.93651, 19.7805 3.84491, 19.9563 3.84433, 20.5099 3.86952, 21.0664 3.88155, 21.6263 3.88097, 21.7019 3.89357, 21.7746 3.89987, 21.8433 3.89929, 22.3213 3.89987, 22.812 3.88155, 23.3152 3.84433, 23.4852 3.84491, 23.5763 3.92735, 23.5889 4.09166 L 23.5889 4.16494 Z" stroke="none" fill="#000000" />
			<path d="M 2.85213 -0.373133 C 2.85213 0.119637, 2.81782 0.609522, 2.74921 1.09684, 2.6806 1.58416, 2.51068 2.04167, 2.23945 2.46871, 2.0458 2.78034, 1.78676 3.01951, 1.46294 3.18687, 1.13913 3.35455, 0.786787 3.43822, 0.406228 3.43822, 0.0400968 3.43822, -0.305836 3.35455, -0.631572 3.18687, -0.957307 3.01951, -1.21732 2.78034, -1.41096 2.46871, -1.68188 2.04167, -1.8518 1.58416, -1.92041 1.09684, -1.98902 0.609522, -2.02364 0.119637, -2.02364 -0.373133, -2.02364 -0.871996, -1.98902 -1.37054, -1.92041 -1.86812, -1.8518 -2.3657, -1.68188 -2.83154, -1.41096 -3.26628, -1.21732 -3.58047, -0.958269 -3.82509, -0.634457 -3.9995, -0.310325 -4.17391, 0.0365701 -4.26112, 0.406228 -4.26144, 0.78326 -4.26112, 1.13432 -4.17391, 1.46006 -3.9995, 1.78579 -3.82509, 2.0458 -3.58047, 2.23945 -3.26628, 2.51068 -2.83154, 2.6806 -2.3657, 2.74921 -1.86812, 2.81782 -1.37054, 2.85213 -0.871996, 2.85213 -0.373133 Z M 1.80599 -0.552672 C 1.80599 -0.767799, 1.80439 -0.995108, 1.80086 -1.2346, 1.79766 -1.47377, 1.78868 -1.70813, 1.77457 -1.93737, 1.76047 -2.16628, 1.73514 -2.38269, 1.69795 -2.58627, 1.66108 -2.78954, 1.61619 -2.96331, 1.56329 -3.10726, 1.45749 -3.33938, 1.30264 -3.53014, 1.09842 -3.6789, 0.89419 -3.82766, 0.663354 -3.90204, 0.406228 -3.90236, 0.156156 -3.90204, -0.0698709 -3.8267, -0.272494 -3.67633, -0.474796 -3.52565, -0.629007 -3.33617, -0.734807 -3.10726, -0.787386 -2.96331, -0.832271 -2.78954, -0.869461 -2.58627, -0.90633 -2.38269, -0.931979 -2.16628, -0.946086 -1.93737, -0.960192 -1.70813, -0.968849 -1.47377, -0.972375 -1.2346, -0.975902 -0.995108, -0.977826 -0.767799, -0.977826 -0.552672, -0.977826 -0.31286, -0.975902 -0.0605431, -0.972375 0.204277, -0.968849 0.469418, -0.960192 0.725902, -0.946086 0.97373, -0.931979 1.22188, -0.90633 1.45688, -0.869461 1.67906, -0.832271 1.90156, -0.787386 2.08783, -0.734807 2.23788, -0.63606 2.48795, -0.483452 2.69314, -0.277623 2.85376, -0.0717945 3.0147, 0.156156 3.09486, 0.406228 3.09454, 0.66688 3.09486, 0.900281 3.0147, 1.10611 2.85376, 1.31226 2.69314, 1.46455 2.48795, 1.56329 2.23788, 1.61619 2.08783, 1.66108 1.90156, 1.69795 1.67906, 1.73514 1.45688, 1.76047 1.22188, 1.77457 0.97373, 1.78868 0.725902, 1.79766 0.469418, 1.80086 0.204277, 1.80439 -0.0605431, 1.80599 -0.31286, 1.80599 -0.552672 Z" stroke="none" fill="#000000" transform="matrix(1.12 0 0 1 24.8346 16.3063)" />
			<rect />
		</svg>
	</g>
	<path d="M 0 110.813 L 0 -110.812" fill="none" stroke="#000000" stroke-opacity="0.388235271" stroke-width="4.80000019" stroke-linecap="round" stroke-linejoin="round" stroke-dasharray="16.824, 11.976" transform="matrix(0.277778 0 0 0.277778 301.55 147.252)" />
	<g transform="matrix(1 0 -0 1 55.8659 105.263)">
		<svg width="23.9688396" height="45.0428467">
			<defs />
			<path d="M 6.82276 16.7669 C 5.68886 16.731, 4.58525 16.7131, 3.51251 16.7131, 2.44032 16.7131, 1.33672 16.731, 0.202257 16.7669 L 0.202257 15.9949, 0.840743 15.9949 C 1.04385 15.9955, 1.23517 15.9927, 1.41358 15.9865, 1.59256 15.9809, 1.762 15.9657, 1.92247 15.9416, 2.08293 15.918, 2.22151 15.8939, 2.33821 15.8692, 2.43696 15.8518, 2.51887 15.7969, 2.58339 15.7037, 2.64848 15.6111, 2.68046 15.5079, 2.68046 15.3935 L 2.68046 5.27643 C 2.37244 5.4268, 1.99316 5.54069, 1.54319 5.61812, 1.09322 5.6961, 0.600048 5.73482, 0.0636752 5.73426 L 0.0636752 4.97122 C 0.803713 4.97178, 1.48652 4.88369, 2.1121 4.70696, 2.73768 4.53078, 3.27855 4.19976, 3.73469 3.71444 L 4.02139 3.71444 C 4.22449 3.715, 4.32604 3.81375, 4.32604 4.01068 L 4.32604 15.3935 C 4.32604 15.5135, 4.3569 15.6184, 4.41862 15.7082, 4.48034 15.798, 4.57011 15.8518, 4.68681 15.8692, 4.78555 15.8939, 4.91235 15.918, 5.06608 15.9416, 5.22037 15.9657, 5.3943 15.9809, 5.58843 15.9865, 5.78256 15.9927, 5.97219 15.9955, 6.15678 15.9949 L 6.82276 15.9949, 6.82276 16.7669 Z" stroke="none" fill="#000000" />
			<rect />
		</svg>
	</g>
	<path d="M -206.666 0 L 206.668 0" fill="none" stroke="#000000" stroke-opacity="0.388235271" stroke-width="4.80000019" stroke-linecap="round" stroke-linejoin="round" stroke-dasharray="16.824, 11.976" transform="matrix(0.277778 0 0 0.277778 244.142 116.471)" />
	<path d="M 0 -110.812 L 0 110.812" fill="none" stroke="#000000" stroke-width="6.71999979" stroke-linecap="round" stroke-linejoin="round" transform="matrix(0.277778 0 0 0.277778 186.735 85.6895)" />
	<path d="M -206.667 -109.485 C -132.124 18.4302, 35.4149 91.8148, 206.667 109.485" fill="none" stroke="#000000" stroke-width="6.71999979" stroke-linecap="round" stroke-linejoin="round" transform="matrix(0.277778 0 -0 0.277778 244.142 85.3209)" />
	<path d="M 0 62.6298 L 0 -62.6303" fill="none" stroke="#000000" stroke-width="3.5999999" stroke-linecap="round" stroke-linejoin="round" marker-end="url(#CustomMarker-04)" transform="matrix(0.277778 0 0 0.277778 186.735 99.0735)" />
	<path d="M -17.6635 -8.12378 L 17.6642 8.12393" fill="none" stroke="#000000" stroke-width="3.5999999" stroke-linecap="round" stroke-linejoin="round" marker-end="url(#CustomMarker-05)" transform="matrix(0.277778 0 0 0.277778 239.167 99.3235)" />
	<g transform="matrix(1 0 -0 1 111.02 118.949)">
		<svg width="41.9788857" height="45.0428467">
			<defs />
			<path d="M 12.3983 16.5678 C 12.3296 16.751, 12.2099 16.8426, 12.0399 16.8426, 11.4113 16.806, 10.7849 16.7876, 10.1621 16.7876 L 9.85061 16.7876 C 9.11493 16.8002, 8.37582 16.8185, 7.63385 16.8426, 7.46439 16.8426, 7.37279 16.7636, 7.36019 16.6044 L 7.36019 16.5311, 7.39798 16.3754 C 7.44836 16.1745, 7.57088 16.0766, 7.76553 16.0823, 7.99854 16.0829, 8.20636 16.0754, 8.38842 16.06, 8.57105 16.0451, 8.74738 15.9913, 8.91685 15.8991, 8.97982 15.8693, 9.03364 15.8264, 9.07715 15.7709, 9.10234 15.7228, 9.11837 15.6735, 9.12409 15.6243 L 9.12409 15.5693, 8.89795 12.5282, 4.63333 12.5282, 3.13335 15.093 C 3.05148 15.2401, 3.01026 15.3747, 3.01026 15.4961, 3.01026 15.6002, 3.04175 15.6953, 3.10473 15.78, 3.24327 15.9821, 3.50148 16.0829, 3.87819 16.0823, 4.04822 16.0829, 4.13925 16.1562, 4.15185 16.3021, 4.15185 16.3394, 4.14555 16.3789, 4.13295 16.4212 L 4.09574 16.5678 C 4.02647 16.751, 3.90395 16.8426, 3.72762 16.8426, 3.14938 16.8185, 2.57687 16.8002, 2.01009 16.7876 L 1.75589 16.7876 C 1.26525 16.7876, 0.768314 16.806, 0.265078 16.8426, 0.170614 16.8426, 0.101341 16.8123, 0.0572573 16.751, 0.0194716 16.7149, 0.000578821 16.672, 0.000578821 16.6228, 0.000578821 16.5867, 0.00687641 16.55, 0.0194716 16.5128 L 0.0572573 16.3754 C 0.107638 16.1745, 0.230728 16.0766, 0.425381 16.0823, 0.626904 16.0829, 0.824993 16.0617, 1.01965 16.0188, 1.21487 15.9764, 1.3975 15.8997, 1.56697 15.7897, 1.737 15.6798, 1.89444 15.547, 2.03871 15.3913, 2.18356 15.2356, 2.31237 15.0598, 2.42573 14.864 L 9.08631 3.45961 C 9.19967 3.289, 9.34451 3.20656, 9.52084 3.21228 L 9.70004 3.21228 C 9.90156 3.21285, 10.0143 3.30732, 10.0395 3.49625 L 10.8697 15.4319 C 10.8823 15.5911, 10.9012 15.7119, 10.9264 15.7943, 10.9515 15.8768, 10.9956 15.9363, 11.0586 15.9724, 11.1468 16.0279, 11.2928 16.06, 11.4971 16.0691, 11.7021 16.0783, 11.9328 16.0829, 12.1905 16.0823, 12.3668 16.0829, 12.455 16.1562, 12.455 16.3021, 12.455 16.3394, 12.4487 16.3789, 12.4361 16.4212 Z M 8.4451 6.03361 L 5.08618 11.7862, 8.84127 11.7862 Z" stroke="none" fill="#000000" />
			<rect />
		</svg>
	</g>
	<ellipse cx="949.19151592254639" cy="503.61699199676514" rx="9.4499998092651367" ry="9.4499998092651367" stroke="none" fill="#000000" transform="matrix(0.277778 0 0 0.277778 -134.337 -23.4229)" />
	<ellipse cx="1155.8590574264526" cy="503.61699199676514" rx="9.4499998092651367" ry="9.4499998092651367" stroke="none" fill="#000000" transform="matrix(0.277778 0 0 0.277778 -134.337 -23.4229)" />
	<ellipse cx="1155.8590574264526" cy="281.99211406707764" rx="9.4499998092651367" ry="9.4499998092651367" stroke="none" fill="#000000" transform="matrix(0.277778 0 0 0.277778 -134.337 -23.4229)" />
	<ellipse cx="1569.1934080123901" cy="503.61699199676514" rx="9.4499998092651367" ry="9.4499998092651367" stroke="none" fill="#000000" transform="matrix(0.277778 0 0 0.277778 -134.337 -23.4229)" />
	<g transform="matrix(1 0 -0 1 191.618 118.949)">
		<svg width="44.9376793" height="45.0428467">
			<defs />
			<path d="M 13.0332 7.12367 C 12.9267 7.56393, 12.7143 7.97614, 12.3966 8.36086, 12.0788 8.74559, 11.7124 9.07249, 11.2973 9.34043, 10.9704 9.56084, 10.6355 9.73489, 10.2926 9.86313, 9.94965 9.99137, 9.82828 10.0463, 9.92904 10.0274, 9.91072 10.0217, 10.0756 10.1001, 10.4248 10.2616, 10.7741 10.4236, 11.0804 10.6446, 11.3443 10.9251, 11.6403 11.2251, 11.8418 11.5852, 11.9483 12.006, 11.9987 12.2144, 12.0273 12.4188, 12.033 12.6198, 12.033 12.8522, 11.9987 13.0938, 11.9294 13.3434, 11.8103 13.814, 11.5899 14.2634, 11.2693 14.6905, 10.9487 15.1182, 10.5645 15.4903, 10.118 15.8075, 9.64622 16.1499, 9.1447 16.4081, 8.61342 16.5821, 8.08213 16.7561, 7.55198 16.8426, 7.02298 16.8426 L 0.267942 16.8426 C 0.173478 16.8426, 0.104204 16.8151, 0.0601207 16.7602, 0.0166099 16.7178, -0.00571795 16.672, -0.00571795 16.6228, -0.00571795 16.5867, 0.000579656 16.55, 0.0131749 16.5128 L 0.0509605 16.3754 C 0.0887462 16.1745, 0.211263 16.0766, 0.418512 16.0823, 0.714499 16.0829, 0.991594 16.0783, 1.24922 16.0691, 1.50685 16.06, 1.70208 16.0279, 1.83376 15.9724, 1.94711 15.9117, 2.03528 15.7468, 2.09826 15.4777 L 4.74955 5.15423 C 4.78733 5.02027, 4.80565 4.91664, 4.80565 4.84279, 4.80565 4.77008, 4.7902 4.72714, 4.75871 4.71455, 4.67054 4.66016, 4.49936 4.62695, 4.24459 4.61436, 3.98983 4.60234, 3.71159 4.59604, 3.4093 4.59547, 3.31541 4.59604, 3.24614 4.56569, 3.20205 4.50386, 3.16427 4.4678, 3.14538 4.422, 3.14538 4.36646, 3.14538 4.33039, 3.15511 4.29662, 3.17343 4.2657 L 3.20205 4.1283 C 3.22095 4.04357, 3.26675 3.97486, 3.33888 3.92277, 3.41102 3.87124, 3.48831 3.84491, 3.57018 3.84433 L 9.82542 3.84433 C 10.3413 3.84491, 10.8285 3.92162, 11.2876 4.07391, 11.7468 4.22677, 12.1275 4.4678, 12.4292 4.79699, 12.7252 5.09698, 12.933 5.44507, 13.0521 5.84125, 13.1025 6.04334, 13.1277 6.24773, 13.1277 6.45498, 13.1277 6.67539, 13.0962 6.8981, 13.0332 7.12367 Z M 11.1273 7.08703 C 11.1903 6.84314, 11.2218 6.59925, 11.2218 6.35422 L 11.2218 6.13437 C 11.1966 5.84182, 11.1084 5.56988, 10.9573 5.31912, 10.8256 5.09355, 10.651 4.91664, 10.434 4.7884, 10.217 4.66016, 9.96397 4.59604, 9.67428 4.59547 L 7.18329 4.59547 C 6.85009 4.59604, 6.6583 4.61722, 6.60791 4.65959, 6.53234 4.72142, 6.46021 4.89832, 6.39093 5.19088 L 5.2213 9.78927, 7.79702 9.78927 C 8.15541 9.78985, 8.51094 9.72, 8.86303 9.57916, 9.2157 9.4389, 9.55176 9.24024, 9.87236 8.98318, 10.5393 8.44617, 10.9578 7.81412, 11.1273 7.08703 Z M 9.96683 13.2885 C 10.055 12.9776, 10.0991 12.669, 10.0991 12.3633 L 10.0991 12.1709 C 10.0739 11.8297, 9.98286 11.5148, 9.82542 11.2274, 9.68687 10.9778, 9.49966 10.7746, 9.26379 10.6188, 9.02791 10.4631, 8.75311 10.3853, 8.43823 10.3847 L 5.05126 10.3847, 3.73964 15.5144 C 3.68926 15.7228, 3.66407 15.8722, 3.66407 15.9632, 3.66407 16.0125, 3.6675 16.0399, 3.6738 16.0457, 3.6864 16.0646, 3.85014 16.0766, 4.16444 16.0823 L 6.68349 16.0823 C 7.02928 16.0829, 7.37851 16.0084, 7.73061 15.8585, 8.08327 15.709, 8.40731 15.5121, 8.70273 15.267, 9.0302 14.9928, 9.29871 14.6848, 9.50939 14.3424, 9.72008 14.0007, 9.87294 13.6491, 9.96683 13.2885 Z" stroke="none" fill="#000000" />
			<rect />
		</svg>
	</g>
	<g transform="matrix(1 0 -0 1 194.828 35.4394)">
		<svg width="41.9788857" height="47.9999886">
			<defs />
			<path d="M 11.6723 8.71754 C 11.6345 8.88929, 11.5246 8.97746, 11.342 8.98318 L 11.1347 8.98318 C 10.9905 8.98375, 10.9115 8.91047, 10.8989 8.76334 L 10.8989 8.69006 C 10.9618 8.3059, 10.9968 7.93663, 11.0025 7.58168, 11.0025 7.38073, 10.9962 7.17634, 10.9836 6.96795, 10.9206 6.43093, 10.7792 5.95632, 10.5594 5.54411, 10.3395 5.13191, 10.0435 4.80214, 9.67256 4.55482, 9.30157 4.30749, 8.84814 4.18383, 8.31342 4.18326, 7.65961 4.18383, 7.00237 4.34299, 6.34169 4.66016, 5.68159 4.9779, 5.08389 5.40213, 4.54917 5.93285, 3.92628 6.56261, 3.43907 7.25878, 3.08698 8.02194, 2.73488 8.78566, 2.45779 9.56371, 2.25627 10.3572, 2.03642 11.1639, 1.91047 11.9453, 1.87898 12.7022 L 1.87898 12.9587 C 1.87898 13.6251, 2.01123 14.2325, 2.27516 14.7816, 2.52706 15.3014, 2.89461 15.7199, 3.37896 16.0371, 3.8633 16.3548, 4.43924 16.5134, 5.10565 16.5128, 5.64667 16.5134, 6.17796 16.3978, 6.70009 16.1653, 7.22221 15.9334, 7.70198 15.6203, 8.13938 15.2264, 8.57677 14.8325, 8.95864 14.3762, 9.28554 13.857, 9.61302 13.3383, 9.84889 12.7881, 9.99316 12.2076, 10.0309 12.0369, 10.1414 11.9516, 10.3235 11.9511 L 10.5307 11.9511 C 10.6882 11.9516, 10.7729 12.0186, 10.7855 12.1526, 10.7855 12.1898, 10.7764 12.2236, 10.7575 12.2534, 10.588 12.9255, 10.308 13.5638, 9.91759 14.1684, 9.52771 14.773, 9.06398 15.3031, 8.52582 15.7577, 7.98823 16.2128, 7.39855 16.5758, 6.75676 16.8472, 6.11555 17.1191, 5.45488 17.2548, 4.77531 17.2548, 3.90738 17.2548, 3.13564 17.0733, 2.45951 16.7103, 1.78337 16.3474, 1.23434 15.8447, 0.812968 15.2029, 0.372708 14.5136, 0.114506 13.7499, 0.0389352 12.9129, 0.0137447 12.6873, 0.00114954 12.4526, 0.00114954 12.2076, 0.00114954 11.5915, 0.0801558 10.9623, 0.237023 10.3206, 0.476333 9.42344, 0.855906 8.55781, 1.3746 7.72423, 1.89329 6.89066, 2.54252 6.13208, 3.32228 5.44736, 4.05853 4.82504, 4.85603 4.33039, 5.7148 3.96399, 6.57356 3.59758, 7.43347 3.41438, 8.29453 3.41381, 8.98039 3.41438, 9.56721 3.56552, 10.0544 3.86781, 10.5422 4.17009, 10.9023 4.53478, 11.1347 4.96187 L 12.4086 3.54205 C 12.459 3.45732, 12.5437 3.41438, 12.6633 3.41381 L 12.7383 3.41381 C 12.8895 3.41438, 12.9651 3.48766, 12.9651 3.63365 L 12.9651 3.70693 Z" stroke="none" fill="#000000" />
			<rect />
		</svg>
	</g>
	<g transform="matrix(1 0 -0 1 307.15 118.949)">
		<svg width="44.9376793" height="45.0428467">
			<defs />
			<path d="M 13.6764 10.4854 C 13.4623 11.3104, 13.1245 12.1074, 12.6619 12.8768, 12.1999 13.6463, 11.6199 14.3453, 10.9215 14.9739, 10.286 15.5424, 9.58811 15.9959, 8.82667 16.3348, 8.06581 16.6737, 7.30494 16.8426, 6.5435 16.8426 L 0.269371 16.8426 C 0.0999078 16.8426, 0.00887877 16.7636, -0.00428895 16.6044 L -0.00428895 16.5311, 0.0334967 16.3754 C 0.0838775 16.1745, 0.206395 16.0766, 0.401048 16.0823, 0.697035 16.0829, 0.976993 16.0783, 1.24092 16.0691, 1.50542 16.06, 1.70007 16.0279, 1.82602 15.9724, 1.94568 15.906, 2.03671 15.7411, 2.09968 15.4777 L 4.75098 5.15423 C 4.78876 5.02027, 4.80708 4.91664, 4.80708 4.84279, 4.80708 4.77008, 4.79163 4.72714, 4.76014 4.71455, 4.67197 4.66016, 4.50079 4.62695, 4.24602 4.61436, 3.99126 4.60234, 3.71302 4.59604, 3.41073 4.59547, 3.23497 4.59604, 3.1468 4.5136, 3.1468 4.34814 L 3.1468 4.27486, 3.20348 4.11914 C 3.24127 3.93651, 3.35806 3.84491, 3.55271 3.84433 L 9.84574 3.84433 C 10.6255 3.84491, 11.3051 4.02525, 11.8839 4.38535, 12.4627 4.74604, 12.9281 5.21893, 13.2802 5.80461, 13.6575 6.46471, 13.8711 7.19752, 13.9214 8.00304, 13.934 8.1748, 13.9403 8.33338, 13.9403 8.47937, 13.9403 9.13318, 13.8527 9.80187, 13.6764 10.4854 Z M 11.8552 6.22597 C 11.6417 5.71988, 11.3068 5.32141, 10.8505 5.03115, 10.3948 4.74146, 9.86177 4.59604, 9.25148 4.59547 L 7.2225 4.59547 C 6.9019 4.59604, 6.7101 4.62066, 6.64713 4.66932, 6.58415 4.71856, 6.51831 4.89203, 6.44904 5.19088 L 3.77886 15.5144 C 3.72847 15.7228, 3.70328 15.8722, 3.70328 15.9632 L 3.70328 16.0365 C 3.72847 16.0617, 3.89565 16.0766, 4.20366 16.0823 L 6.23206 16.0823 C 6.84865 16.0829, 7.46353 15.9443, 8.07668 15.6661, 8.69042 15.3884, 9.23888 15.002, 9.72322 14.5068, 10.2768 13.9331, 10.7016 13.2936, 10.9971 12.5883, 11.2925 11.8829, 11.5283 11.1702, 11.7041 10.4488, 11.8993 9.69825, 12.0344 8.95627, 12.11 8.22289, 12.1226 8.05228, 12.1289 7.8874, 12.1289 7.72824, 12.1289 7.19123, 12.0379 6.69085, 11.8552 6.22597 Z" stroke="none" fill="#000000" />
			<rect />
		</svg>
	</g>
</svg>
