<?xml version="1.0"?>
<svg xmlns="http://www.w3.org/2000/svg" xmlns:xlink="http://www.w3.org/1999/xlink" width="512.216858" height="198.46431">
	<defs>
		<marker id="CustomMarker-01" markerUnits="strokeWidth" markerWidth="9" markerHeight="9" viewBox="-9 -4.5 9 9" orient="auto-start-reverse">
			<path d="M 0 -0 L -6 -3, -4.8 -0.5, -4.8 0.5, -6 3 Z" fill="#858585" stroke="#858585" stroke-linejoin="round" />
		</marker>
		<marker id="CustomMarker-02" markerUnits="strokeWidth" markerWidth="9" markerHeight="9" viewBox="-9 -4.5 9 9" orient="auto-start-reverse">
			<path d="M 0 -0 L -6 -3, -4.8 -0.5, -4.8 0.5, -6 3 Z" fill="#858585" stroke="#858585" stroke-linejoin="round" />
		</marker>
		<marker id="CustomMarker-03" markerUnits="strokeWidth" markerWidth="15.000001" markerHeight="9" viewBox="-15 -4.5 15 9" orient="auto-start-reverse">
			<path d="M 0 -0 L -10 -3, -8 -0.5, -8 0.5, -10 3 Z" fill="#000000" stroke="#000000" stroke-linejoin="round" />
		</marker>
		<marker id="CustomMarker-04" markerUnits="strokeWidth" markerWidth="15.000001" markerHeight="9" viewBox="-15 -4.5 15 9" orient="auto-start-reverse">
			<path d="M 0 -0 L -10 -3, -8 -0.5, -8 0.5, -10 3 Z" fill="#000000" stroke="#000000" stroke-linejoin="round" />
		</marker>
		<marker id="CustomMarker-05" markerUnits="strokeWidth" markerWidth="21" markerHeight="15.000001" viewBox="-21 -7.5 21 15" orient="auto-start-reverse">
			<path d="M 0 -0 L -14 -5, -11.2 -0.5, -11.2 0.5, -14 5 Z" fill="#000000" stroke="#000000" stroke-linejoin="round" />
		</marker>
		<marker id="CustomMarker-06" markerUnits="strokeWidth" markerWidth="21" markerHeight="15.000001" viewBox="-21 -7.5 21 15" orient="auto-start-reverse">
			<path d="M 0 -0 L -14 -5, -11.2 -0.5, -11.2 0.5, -14 5 Z" fill="#000000" stroke="#000000" stroke-linejoin="round" />
		</marker>
		<marker id="CustomMarker-07" markerUnits="strokeWidth" markerWidth="9" markerHeight="9" viewBox="-9 -4.5 9 9" orient="auto-start-reverse">
			<path d="M 0 -0 L -6 -3, -4.8 -0.5, -4.8 0.5, -6 3 Z" fill="#858585" stroke="#858585" stroke-linejoin="round" />
		</marker>
		<marker id="CustomMarker-08" markerUnits="strokeWidth" markerWidth="9" markerHeight="9" viewBox="-9 -4.5 9 9" orient="auto-start-reverse">
			<path d="M 0 -0 L -6 -3, -4.8 -0.5, -4.8 0.5, -6 3 Z" fill="#858585" stroke="#858585" stroke-linejoin="round" />
		</marker>
		<marker id="CustomMarker-09" markerUnits="strokeWidth" markerWidth="15.000001" markerHeight="9" viewBox="-15 -4.5 15 9" orient="auto-start-reverse">
			<path d="M 0 -0 L -10 -3, -8 -0.5, -8 0.5, -10 3 Z" fill="#000000" stroke="#000000" stroke-linejoin="round" />
		</marker>
		<marker id="CustomMarker-10" markerUnits="strokeWidth" markerWidth="15.000001" markerHeight="9" viewBox="-15 -4.5 15 9" orient="auto-start-reverse">
			<path d="M 0 -0 L -10 -3, -8 -0.5, -8 0.5, -10 3 Z" fill="#000000" stroke="#000000" stroke-linejoin="round" />
		</marker>
		<marker id="CustomMarker-11" markerUnits="strokeWidth" markerWidth="21" markerHeight="15.000001" viewBox="-21 -7.5 21 15" orient="auto-start-reverse">
			<path d="M 0 -0 L -14 -5, -11.2 -0.5, -11.2 0.5, -14 5 Z" fill="#000000" stroke="#000000" stroke-linejoin="round" />
		</marker>
		<marker id="CustomMarker-12" markerUnits="strokeWidth" markerWidth="21" markerHeight="15.000001" viewBox="-21 -7.5 21 15" orient="auto-start-reverse">
			<path d="M 0 -0 L -14 -5, -11.2 -0.5, -11.2 0.5, -14 5 Z" fill="#000000" stroke="#000000" stroke-linejoin="round" />
		</marker>
	</defs>
	<path d="M 0 -14.0988 L 0 14.0989" fill="none" stroke="#858585" stroke-width="1.60000014" stroke-linecap="round" stroke-linejoin="round" marker-end="url(#CustomMarker-01)" transform="matrix(0.833333 0 0 0.833333 99.8951 60.7983)" />
	<path d="M 0 -14.0988 L 0 14.0988" fill="none" stroke="#858585" stroke-width="1.60000014" stroke-linecap="round" stroke-linejoin="round" marker-end="url(#CustomMarker-02)" transform="matrix(0.833333 0 0 0.833333 99.895 121.529)" />
	<path d="M -113.023 88.0435 L 113.023 88.0435" fill="none" stroke="#000000" stroke-width="1.60000014" stroke-linecap="round" stroke-linejoin="round" marker-end="url(#CustomMarker-03)" transform="matrix(0.833333 0 -0 0.833333 127.789 91.1634)" />
	<path d="M -113.023 88.0435 L -113.023 -88.0435" fill="none" stroke="#000000" stroke-width="1.60000014" stroke-linecap="round" stroke-linejoin="round" marker-end="url(#CustomMarker-04)" transform="matrix(0.833333 0 -0 0.833333 127.789 91.1634)" />
	<g transform="matrix(1 0 -0 1 11.5 11.5)">
		<svg width="32.9738617" height="41.9571342">
			<defs />
			<path d="M 9.59355 12.748 C 9.44928 13.2799, 9.23688 13.8054, 8.95692 14.3241, 8.67696 14.8434, 8.31342 15.3226, 7.86686 15.7617, 7.50217 16.1287, 7.08882 16.4355, 6.62623 16.6829, 6.16422 16.9302, 5.68445 17.0533, 5.18752 17.0533, 4.77874 17.0533, 4.44211 16.9405, 4.17761 16.7149, 3.91368 16.4894, 3.74708 16.3056, 3.67781 16.1647 L 2.89461 19.1693 C 2.85683 19.3221, 2.83507 19.4349, 2.82877 19.5082, 2.82877 19.5695, 2.84137 19.609, 2.86656 19.6273, 2.94213 19.6765, 3.08812 19.7069, 3.3051 19.7189, 3.52208 19.7315, 3.76597 19.7372, 4.0362 19.7372, 4.19994 19.7372, 4.2818 19.8168, 4.2818 19.9754 L 4.2818 20.0395, 4.24402 20.2135 C 4.17475 20.3967, 4.05223 20.4855, 3.8759 20.4792, 3.27247 20.4551, 2.67477 20.4368, 2.08337 20.4242 L 1.80971 20.4242 C 1.29445 20.4242, 0.77232 20.4425, 0.243321 20.4792, 0.0807282 20.4792, -0.00114071 20.4002, -0.00171322 20.241 L -0.00171322 20.1769, 0.0360724 20.0028 C 0.105919 19.8196, 0.228436 19.7315, 0.403624 19.7372, 0.624612 19.7372, 0.807243 19.7315, 0.951516 19.7189, 1.09579 19.7069, 1.19941 19.6794, 1.26239 19.6364, 1.32536 19.6061, 1.39178 19.4384, 1.46048 19.1326 L 3.64918 10.6686 C 3.74994 10.2725, 3.80032 9.93011, 3.80032 9.64271 L 3.80032 9.42287 C 3.76941 9.13032, 3.6217 8.98375, 3.3572 8.98318, 3.08011 8.98375, 2.84881 9.20703, 2.66332 9.65244, 2.47783 10.0984, 2.29749 10.6784, 2.12115 11.3923, 2.05188 11.5578, 1.93566 11.6431, 1.77192 11.6488 L 1.55494 11.6488 C 1.4038 11.6494, 1.32823 11.5732, 1.32823 11.4198 L 1.32823 11.3557 C 1.4038 11.0694, 1.4891 10.7562, 1.58357 10.4173, 1.67803 10.0784, 1.80398 9.75779, 1.96085 9.4555, 2.11829 9.15322, 2.31638 8.89673, 2.55512 8.68605, 2.79442 8.47536, 3.0927 8.37002, 3.45109 8.36945, 3.92971 8.37002, 4.31157 8.50628, 4.59783 8.77765, 4.88408 9.04959, 5.0524 9.32268, 5.10221 9.59691, 5.34782 9.31638, 5.67644 9.04215, 6.08865 8.77307, 6.50085 8.50456, 6.93596 8.37002, 7.39511 8.36945, 7.87946 8.37002, 8.29338 8.49712, 8.63574 8.75017, 8.97867 9.00379, 9.24432 9.31982, 9.43325 9.69767, 9.65996 10.15, 9.77904 10.6389, 9.79164 11.1633 L 9.79164 11.2915 C 9.79164 11.7621, 9.7258 12.2476, 9.59355 12.748 Z M 8.20636 9.96332 C 8.15025 9.67076, 8.04491 9.43432, 7.89033 9.25398, 7.73633 9.07421, 7.53366 8.98375, 7.28176 8.98318, 6.99264 8.98375, 6.69894 9.08165, 6.40009 9.27688, 6.10124 9.47268, 5.82586 9.71943, 5.57396 10.0183, 5.37931 10.269, 5.20927 10.5043, 5.06443 10.7236 L 4.02704 14.7266 C 4.05223 14.8554, 4.07627 14.9779, 4.09803 15.0936, 4.11978 15.2098, 4.14955 15.3226, 4.18734 15.4319, 4.2818 15.7319, 4.41863 15.9764, 4.59783 16.1653, 4.77703 16.3548, 5.01462 16.4493, 5.31003 16.4487, 5.57453 16.4493, 5.8356 16.352, 6.09323 16.1562, 6.35085 15.9609, 6.58673 15.7165, 6.80085 15.4228, 7.10313 15.014, 7.32927 14.5795, 7.48042 14.118, 7.63156 13.6572, 7.76953 13.1854, 7.89491 12.7022, 8.02087 12.2018, 8.13136 11.7198, 8.22525 11.2549, 8.26304 11.0356, 8.28193 10.8221, 8.28193 10.6137, 8.28193 10.3944, 8.25674 10.1774, 8.20636 9.96332 Z" stroke="none" fill="#000000" />
			<rect />
		</svg>
	</g>
	<g transform="matrix(1 0 -0 1 228.162 153.325)">
		<svg width="41.9788857" height="47.9999886">
			<defs />
			<path d="M 12.858 4.32066 C 12.8208 4.50444, 12.7074 4.59604, 12.5185 4.59547, 12.3176 4.59604, 12.1258 4.61894, 11.9431 4.66474, 11.7611 4.71054, 11.583 4.7884, 11.4101 4.89832, 11.2372 5.00825, 11.0786 5.14107, 10.9338 5.29679, 10.789 5.45251, 10.6567 5.62827, 10.537 5.82293 L 3.65892 17.0075 C 3.56503 17.1787, 3.42018 17.2611, 3.22496 17.2548 L 3.04576 17.2548 C 2.81332 17.2548, 2.69996 17.1575, 2.70626 16.9617 L 1.52689 5.26416 C 1.5017 5.10614, 1.47651 4.98248, 1.45132 4.89374, 1.42613 4.80558, 1.38834 4.7426, 1.33796 4.70539, 1.25037 4.6573, 1.11068 4.62695, 0.918313 4.61436, 0.726522 4.60234, 0.507824 4.59604, 0.26279 4.59547, 0.168325 4.59604, 0.0990518 4.56569, 0.0549685 4.50386, 0.0171829 4.4678, -0.00170994 4.422, -0.00170994 4.36646, -0.00170994 4.33039, 0.00802273 4.29662, 0.0269156 4.2657 L 0.0549685 4.1283 C 0.0744339 4.04929, 0.1168 3.98231, 0.182638 3.92735, 0.249049 3.87239, 0.329201 3.84491, 0.423092 3.84433, 1.02709 3.88155, 1.63739 3.89987, 2.25341 3.89929, 2.34787 3.89987, 2.44863 3.89357, 2.55512 3.88097, 3.28507 3.88155, 4.01502 3.86952, 4.7444 3.84433, 4.83256 3.84491, 4.911 3.87525, 4.98027 3.93593, 5.00546 3.98517, 5.01806 4.03097, 5.01806 4.07334, 5.01806 4.11055, 5.0089 4.14433, 4.98943 4.1741 L 4.96138 4.3115 C 4.94248 4.39738, 4.89668 4.46665, 4.82455 4.51818, 4.75241 4.57028, 4.67512 4.59604, 4.59325 4.59547, 4.37341 4.59604, 4.17189 4.6052, 3.98926 4.62352, 3.8072 4.64184, 3.628 4.6905, 3.45167 4.76951, 3.34518 4.82504, 3.2948 4.91664, 3.30053 5.04431 L 3.30053 5.10843 C 3.52094 6.73322, 3.69728 8.36544, 3.82895 10.0051, 3.9612 11.6448, 4.10261 13.1974, 4.25376 14.6625 L 9.82027 5.60308 C 9.90214 5.47541, 9.95252 5.34087, 9.97141 5.20004 L 9.97141 5.15423 C 9.97141 5.06321, 9.94965 4.98076, 9.905 4.90691, 9.76702 4.69966, 9.50939 4.59604, 9.13154 4.59547, 8.9678 4.59604, 8.88593 4.5136, 8.88593 4.34814 L 8.88593 4.28402, 8.92372 4.11914 C 8.99356 3.93651, 9.11608 3.84491, 9.29184 3.84433, 9.84546 3.86952, 10.4019 3.88155, 10.9619 3.88097, 11.0374 3.89357, 11.1101 3.89987, 11.1788 3.89929, 11.6569 3.89987, 12.1475 3.88155, 12.6508 3.84433, 12.8208 3.84491, 12.9118 3.92735, 12.9244 4.09166 L 12.9244 4.16494 Z" stroke="none" fill="#000000" />
			<rect />
		</svg>
	</g>
	<g transform="matrix(1 0 -0 1 14.7337 164.549)">
		<svg width="41.9788857" height="47.9999886">
			<defs />
			<path d="M 12.2634 10.4122 C 12.0367 11.2984, 11.6703 12.1532, 11.1642 12.9776, 10.6581 13.802, 10.0209 14.556, 9.25376 15.2396, 8.56217 15.8567, 7.80531 16.3474, 6.98433 16.7103, 6.16336 17.0733, 5.34123 17.2548, 4.51739 17.2548, 3.68725 17.2548, 2.94929 17.0722, 2.30464 16.7058, 1.65999 16.3394, 1.14588 15.8447, 0.762298 15.2212, 0.340931 14.5319, 0.0987594 13.7682, 0.0357833 12.9312, 0.0105929 12.7303, -0.00200236 12.5287, -0.00200236 12.3266, -0.00200236 11.698, 0.0798666 11.0477, 0.243032 10.3755, 0.482341 9.4784, 0.85161 8.60704, 1.35198 7.76087, 1.85236 6.91528, 2.49185 6.1504, 3.27161 5.46568, 3.96377 4.84966, 4.72006 4.35329, 5.54104 3.97773, 6.36202 3.60216, 7.19044 3.41438, 8.02687 3.41381, 8.85701 3.41438, 9.59154 3.60388, 10.2299 3.98231, 10.8688 4.36131, 11.3795 4.86168, 11.7631 5.484, 12.1844 6.17445, 12.4329 6.9439, 12.5085 7.79236, 12.5211 8.00075, 12.5274 8.20514, 12.5274 8.40609, 12.5274 9.0599, 12.4398 9.72859, 12.2634 10.4122 Z M 10.3576 5.79545 C 10.1503 5.28305, 9.83887 4.86626, 9.42323 4.54566, 9.00816 4.22505, 8.49862 4.06475, 7.89462 4.06418, 7.2975 4.06475, 6.70323 4.22849, 6.11183 4.55482, 5.521 4.88172, 4.99257 5.30423, 4.52655 5.82293, 3.94144 6.45269, 3.47943 7.13512, 3.13993 7.87079, 2.80043 8.60704, 2.53593 9.35302, 2.34701 10.1099, 2.12716 10.9349, 1.99205 11.7381, 1.94167 12.519, 1.92907 12.6661, 1.92278 12.8127, 1.92278 12.9587, 1.92278 13.5701, 2.02354 14.1684, 2.22449 14.7541, 2.41971 15.2739, 2.71856 15.709, 3.12104 16.06, 3.52351 16.4115, 4.02675 16.5867, 4.63017 16.5861, 5.25306 16.5867, 5.86222 16.4081, 6.45648 16.0508, 7.05075 15.6936, 7.58375 15.2522, 8.0555 14.7266, 8.6658 14.019, 9.14041 13.2707, 9.4799 12.4829, 9.81997 11.6952, 10.0965 10.8919, 10.31 10.0732, 10.5053 9.31066, 10.6278 8.55952, 10.6782 7.81984 L 10.6782 7.49924 C 10.6782 6.88894, 10.5717 6.32101, 10.3576 5.79545 Z" stroke="none" fill="#000000" />
			<rect />
		</svg>
	</g>
	<path d="M 59.1082 -0 C 59.1082 20.1243, 32.6445 36.4384, -0 36.4384, -32.6445 36.4384, -59.1082 20.1243, -59.1082 -0, -59.1082 -20.1243, -32.6445 -36.4384, -0 -36.4384, 32.6445 -36.4384, 59.1082 -20.1243, 59.1082 -0 Z" stroke="none" fill="#000000" fill-opacity="0.133333325" transform="matrix(0.833333 0 0 0.833333 99.8951 91.1636)" />
	<path d="M 59.1082 -0 C 59.1082 20.1243, 32.6445 36.4384, -0 36.4384, -32.6445 36.4384, -59.1082 20.1243, -59.1082 -0, -59.1082 -20.1243, -32.6445 -36.4384, -0 -36.4384, 32.6445 -36.4384, 59.1082 -20.1243, 59.1082 -0 Z" fill="none" stroke="#000000" stroke-width="2.24000001" stroke-linecap="round" stroke-linejoin="round" transform="matrix(0.833333 0 0 0.833333 99.8951 91.1636)" />
	<path d="M 41.3045 -26.0493 C 42.2573 -25.4745, 43.1775 -24.8803, 44.0638 -24.268 L 50.542 -18.8608" fill="none" stroke="#000000" stroke-width="0.960000038" stroke-linecap="round" stroke-linejoin="round" marker-end="url(#CustomMarker-05)" transform="matrix(0.833333 0 -0 0.833333 99.926 91.1636)" />
	<g transform="matrix(1 0 -0 1 87.4494 22.2309)">
		<svg width="77.9989777" height="56.9999886">
			<defs />
			<path d="M 12.2589 10.4122 C 12.0322 11.2984, 11.6657 12.1532, 11.1596 12.9776, 10.6535 13.802, 10.0163 14.556, 9.24918 15.2396, 8.5198 15.8814, 7.76467 16.3731, 6.98433 16.7144, 6.99693 16.9342, 7.01926 17.1603, 7.05075 17.3922, 7.08223 17.6246, 7.13719 17.8244, 7.21563 17.9922, 7.29463 18.1605, 7.40284 18.2933, 7.54139 18.3907, 7.67993 18.4886, 7.86829 18.5372, 8.10703 18.5372, 8.32744 18.5372, 8.53984 18.4903, 8.74423 18.3952, 8.94862 18.3008, 9.14212 18.1725, 9.32418 18.0105, 9.50681 17.8491, 9.66711 17.655, 9.80566 17.4288, 9.94421 17.2033, 10.0415 16.9708, 10.0982 16.7327, 10.1171 16.6537, 10.1595 16.5867, 10.2253 16.5317, 10.2917 16.4768, 10.3684 16.4493, 10.4566 16.4487, 10.5448 16.4493, 10.6238 16.4831, 10.6925 16.5495, 10.7177 16.5987, 10.7303 16.6416, 10.7303 16.6777, 10.7303 16.7149, 10.7211 16.7487, 10.7016 16.7785, 10.6077 17.1941, 10.4709 17.6166, 10.2917 18.0472, 10.1125 18.4777, 9.89383 18.875, 9.6362 19.238, 9.37857 19.6015, 9.07342 19.8992, 8.72076 20.1311, 8.36866 20.3635, 7.96905 20.4792, 7.52249 20.4792, 7.01926 20.4792, 6.65457 20.3664, 6.42786 20.1403, 6.20171 19.9147, 6.0603 19.6181, 6.00305 19.2517, 5.97786 19.0868, 5.96527 18.9099, 5.96527 18.7204, 5.96527 18.5252, 5.97786 18.3237, 6.00305 18.1159, 6.05343 17.7008, 6.09752 17.3344, 6.1353 17.0166, 5.64523 17.1758, 5.10421 17.2548, 4.51281 17.2548, 3.68267 17.2548, 2.94471 17.0722, 2.30006 16.7058, 1.65541 16.3394, 1.1413 15.8447, 0.757718 15.2212, 0.336351 14.5319, 0.0941796 13.7682, 0.0312035 12.9312, 0.00601315 12.7303, -0.00658214 12.5287, -0.00658214 12.3266, -0.00658214 11.698, 0.0752869 11.0477, 0.238452 10.3755, 0.477761 9.4784, 0.84703 8.60704, 1.3474 7.76087, 1.84778 6.91528, 2.48727 6.1504, 3.26703 5.46568, 3.95919 4.84966, 4.71548 4.35329, 5.53646 3.97773, 6.35744 3.60216, 7.18586 3.41438, 8.02229 3.41381, 8.85243 3.41438, 9.58696 3.60388, 10.2253 3.98231, 10.8642 4.36131, 11.3749 4.86168, 11.7585 5.484, 12.1799 6.17445, 12.4283 6.9439, 12.5039 7.79236, 12.5165 8.00075, 12.5228 8.20514, 12.5228 8.40609, 12.5228 9.0599, 12.4352 9.72859, 12.2589 10.4122 Z M 10.3719 5.86873 C 10.1646 5.35633, 9.85318 4.92752, 9.43754 4.5823, 9.02247 4.23765, 8.50664 4.06475, 7.89004 4.06418, 7.28032 4.06475, 6.67346 4.24051, 6.06946 4.59146, 5.46604 4.94298, 4.92788 5.37751, 4.45613 5.89621, 3.85271 6.56261, 3.37924 7.2834, 3.03631 8.05858, 2.69337 8.83433, 2.418 9.61867, 2.21018 10.4122, 2.00293 11.1942, 1.88041 11.9671, 1.84262 12.7297, 1.83003 12.8402, 1.82373 12.9501, 1.82373 13.0595, 1.82373 13.6949, 1.93709 14.2875, 2.16323 14.8365, 2.30807 15.1789, 2.49071 15.4846, 2.71055 15.7531, 2.93097 16.0222, 3.13535 16.1957, 3.32371 16.2747, 3.31798 16.2632, 3.31455 16.1716, 3.31455 15.9999, 3.31455 15.8539, 3.33344 15.7044, 3.37065 15.551, 3.4279 15.338, 3.51893 15.1319, 3.64489 14.9333, 3.77084 14.7352, 3.91683 14.5577, 4.08343 14.402, 4.25003 14.2463, 4.4401 14.1215, 4.65422 14.0264, 4.86834 13.932, 5.09162 13.8844, 5.32406 13.8839, 5.65153 13.8844, 5.91718 13.9457, 6.12156 14.0676, 6.32595 14.1902, 6.48797 14.3459, 6.60705 14.5348, 6.72671 14.7243, 6.80857 14.9424, 6.85266 15.1898, 6.89674 15.4371, 6.92193 15.6403, 6.92766 15.7983, 7.0662 15.7073, 7.24082 15.5733, 7.4515 15.3959, 7.66219 15.219, 7.86543 15.0232, 8.06008 14.809, 8.66408 14.1564, 9.13583 13.4493, 9.47532 12.689, 9.81539 11.9287, 10.0856 11.1576, 10.2866 10.3755, 10.4944 9.5763, 10.6232 8.78509, 10.6736 8.00304, 10.6862 7.8874, 10.6925 7.76545, 10.6925 7.63664, 10.6925 7.01432, 10.586 6.42521, 10.3719 5.86873 Z M 6.22977 16.2105 C 6.24236 16.0709, 6.24866 15.918, 6.24866 15.7525 L 6.24866 15.5327 C 6.23606 15.3197, 6.19542 15.1365, 6.12614 14.9837, 6.05687 14.8314, 5.95153 14.7089, 5.81012 14.6172, 5.66871 14.5256, 5.47234 14.4798, 5.22043 14.4793, 4.95021 14.4798, 4.69659 14.5886, 4.46071 14.805, 4.22484 15.022, 4.06625 15.2831, 3.98438 15.5877, 3.95919 15.6918, 3.9466 15.7926, 3.9466 15.8899, 3.9466 16.0188, 3.96893 16.1378, 4.01244 16.2472, 4.08801 16.4373, 4.2111 16.5563, 4.38056 16.6044 L 4.62559 16.6044 C 5.18551 16.605, 5.72023 16.4739, 6.22977 16.2105 Z" stroke="none" fill="#000000" />
			<path d="M 0.208237 3.96658 C 0.0815978 3.75819, -0.0873613 3.5203, -0.298961 3.25356, 0.729541 2.68288, 1.53105 2.09617, 2.10494 1.49407, 1.44641 0.659857, 0.937294 -0.338508, 0.577895 -1.50167, 0.500629 -0.348768, 0.308586 0.622346, 0.00208759 1.412, -0.290305 2.17504, -0.769289 2.97174, -1.43487 3.80243, -1.48424 3.75113, -1.56343 3.66746, -1.67276 3.55108, -1.84171 3.37667, -1.95809 3.25195, -2.02157 3.17661, -1.5599 2.62645, -1.20435 2.10643, -0.954278 1.61718, -0.683046 1.0978, -0.482027 0.519753, -0.351861 -0.116649, -0.221375 -0.738624, -0.138659 -1.51321, -0.103392 -2.4404, -0.099865 -2.60775, -0.0947356 -2.84372, -0.0876822 -3.14829, -0.0735755 -3.69525, -0.0665221 -4.13448, -0.0665221 -4.46662 L -0.901379 -4.46662, -0.901379 -5.20017, 4.00709 -5.20017, 4.00709 -4.4102, 3.04014 -2.41475, 4.72557 -2.41475, 4.72557 -1.66069 C 4.31712 -0.377943, 3.79229 0.673643, 3.15107 1.49407, 3.7147 2.03141, 4.42997 2.55624, 5.29625 3.06889, 5.13434 3.29459, 4.96698 3.54595, 4.7945 3.82295, 3.92085 3.23496, 3.2059 2.65723, 2.64933 2.08912, 1.9799 2.79733, 1.16621 3.42283, 0.208237 3.96658 Z M -4.07666 2.60721 L -4.07666 -4.91804, -1.43487 -4.91804, -1.43487 1.85315, -3.35305 1.85315, -3.35305 2.60721 Z M -3.35305 1.15038 L -2.12192 1.15038, -2.12192 -4.21527, -3.35305 -4.21527 Z M 2.61759 0.904158 C 3.15652 0.200109, 3.58966 -0.666808, 3.91732 -1.69659 L 2.2319 -1.69659, 2.2319 -2.46092, 3.19339 -4.46662, 0.709984 -4.46662 C 0.709984 -4.29542, 0.708381 -4.0508, 0.704854 -3.73308, 0.701649 -3.45576, 0.699725 -3.25409, 0.699725 -3.12778, 0.956851 -2.22816, 1.23706 -1.46031, 1.53971 -0.824546, 1.84621 -0.174358, 2.20561 0.40177, 2.61759 0.904158 Z" stroke="none" fill="#000000" transform="matrix(1.12 0 0 1 18.9917 16.8316)" />
			<rect />
		</svg>
	</g>
	<g transform="matrix(1 0 -0 1 88.4888 134.293)">
		<svg width="77.9989777" height="56.9999886">
			<defs />
			<path d="M 12.2589 10.4122 C 12.0322 11.2984, 11.6657 12.1532, 11.1596 12.9776, 10.6535 13.802, 10.0163 14.556, 9.24918 15.2396, 8.5198 15.8814, 7.76467 16.3731, 6.98433 16.7144, 6.99693 16.9342, 7.01926 17.1603, 7.05075 17.3922, 7.08223 17.6246, 7.13719 17.8244, 7.21563 17.9922, 7.29463 18.1605, 7.40284 18.2933, 7.54139 18.3907, 7.67993 18.4886, 7.86829 18.5372, 8.10703 18.5372, 8.32744 18.5372, 8.53984 18.4903, 8.74423 18.3952, 8.94862 18.3008, 9.14212 18.1725, 9.32418 18.0105, 9.50681 17.8491, 9.66711 17.655, 9.80566 17.4288, 9.94421 17.2033, 10.0415 16.9708, 10.0982 16.7327, 10.1171 16.6537, 10.1595 16.5867, 10.2253 16.5317, 10.2917 16.4768, 10.3684 16.4493, 10.4566 16.4487, 10.5448 16.4493, 10.6238 16.4831, 10.6925 16.5495, 10.7177 16.5987, 10.7303 16.6416, 10.7303 16.6777, 10.7303 16.7149, 10.7211 16.7487, 10.7016 16.7785, 10.6077 17.1941, 10.4709 17.6166, 10.2917 18.0472, 10.1125 18.4777, 9.89383 18.875, 9.6362 19.238, 9.37857 19.6015, 9.07342 19.8992, 8.72076 20.1311, 8.36866 20.3635, 7.96905 20.4792, 7.52249 20.4792, 7.01926 20.4792, 6.65457 20.3664, 6.42786 20.1403, 6.20171 19.9147, 6.0603 19.6181, 6.00305 19.2517, 5.97786 19.0868, 5.96527 18.9099, 5.96527 18.7204, 5.96527 18.5252, 5.97786 18.3237, 6.00305 18.1159, 6.05343 17.7008, 6.09752 17.3344, 6.1353 17.0166, 5.64523 17.1758, 5.10421 17.2548, 4.51281 17.2548, 3.68267 17.2548, 2.94471 17.0722, 2.30006 16.7058, 1.65541 16.3394, 1.1413 15.8447, 0.757718 15.2212, 0.336351 14.5319, 0.0941796 13.7682, 0.0312035 12.9312, 0.00601315 12.7303, -0.00658214 12.5287, -0.00658214 12.3266, -0.00658214 11.698, 0.0752869 11.0477, 0.238452 10.3755, 0.477761 9.4784, 0.84703 8.60704, 1.3474 7.76087, 1.84778 6.91528, 2.48727 6.1504, 3.26703 5.46568, 3.95919 4.84966, 4.71548 4.35329, 5.53646 3.97773, 6.35744 3.60216, 7.18586 3.41438, 8.02229 3.41381, 8.85243 3.41438, 9.58696 3.60388, 10.2253 3.98231, 10.8642 4.36131, 11.3749 4.86168, 11.7585 5.484, 12.1799 6.17445, 12.4283 6.9439, 12.5039 7.79236, 12.5165 8.00075, 12.5228 8.20514, 12.5228 8.40609, 12.5228 9.0599, 12.4352 9.72859, 12.2589 10.4122 Z M 10.3719 5.86873 C 10.1646 5.35633, 9.85318 4.92752, 9.43754 4.5823, 9.02247 4.23765, 8.50664 4.06475, 7.89004 4.06418, 7.28032 4.06475, 6.67346 4.24051, 6.06946 4.59146, 5.46604 4.94298, 4.92788 5.37751, 4.45613 5.89621, 3.85271 6.56261, 3.37924 7.2834, 3.03631 8.05858, 2.69337 8.83433, 2.418 9.61867, 2.21018 10.4122, 2.00293 11.1942, 1.88041 11.9671, 1.84262 12.7297, 1.83003 12.8402, 1.82373 12.9501, 1.82373 13.0595, 1.82373 13.6949, 1.93709 14.2875, 2.16323 14.8365, 2.30807 15.1789, 2.49071 15.4846, 2.71055 15.7531, 2.93097 16.0222, 3.13535 16.1957, 3.32371 16.2747, 3.31798 16.2632, 3.31455 16.1716, 3.31455 15.9999, 3.31455 15.8539, 3.33344 15.7044, 3.37065 15.551, 3.4279 15.338, 3.51893 15.1319, 3.64489 14.9333, 3.77084 14.7352, 3.91683 14.5577, 4.08343 14.402, 4.25003 14.2463, 4.4401 14.1215, 4.65422 14.0264, 4.86834 13.932, 5.09162 13.8844, 5.32406 13.8839, 5.65153 13.8844, 5.91718 13.9457, 6.12156 14.0676, 6.32595 14.1902, 6.48797 14.3459, 6.60705 14.5348, 6.72671 14.7243, 6.80857 14.9424, 6.85266 15.1898, 6.89674 15.4371, 6.92193 15.6403, 6.92766 15.7983, 7.0662 15.7073, 7.24082 15.5733, 7.4515 15.3959, 7.66219 15.219, 7.86543 15.0232, 8.06008 14.809, 8.66408 14.1564, 9.13583 13.4493, 9.47532 12.689, 9.81539 11.9287, 10.0856 11.1576, 10.2866 10.3755, 10.4944 9.5763, 10.6232 8.78509, 10.6736 8.00304, 10.6862 7.8874, 10.6925 7.76545, 10.6925 7.63664, 10.6925 7.01432, 10.586 6.42521, 10.3719 5.86873 Z M 6.22977 16.2105 C 6.24236 16.0709, 6.24866 15.918, 6.24866 15.7525 L 6.24866 15.5327 C 6.23606 15.3197, 6.19542 15.1365, 6.12614 14.9837, 6.05687 14.8314, 5.95153 14.7089, 5.81012 14.6172, 5.66871 14.5256, 5.47234 14.4798, 5.22043 14.4793, 4.95021 14.4798, 4.69659 14.5886, 4.46071 14.805, 4.22484 15.022, 4.06625 15.2831, 3.98438 15.5877, 3.95919 15.6918, 3.9466 15.7926, 3.9466 15.8899, 3.9466 16.0188, 3.96893 16.1378, 4.01244 16.2472, 4.08801 16.4373, 4.2111 16.5563, 4.38056 16.6044 L 4.62559 16.6044 C 5.18551 16.605, 5.72023 16.4739, 6.22977 16.2105 Z" stroke="none" fill="#000000" />
			<path d="M 0.127765 4.01788 C -0.00945425 3.81974, -0.188993 3.5716, -0.410852 3.27407, 0.684336 2.62805, 1.50861 1.9955, 2.06134 1.37609, 1.76574 0.931731, 1.52625 0.436074, 1.34286 -0.11152, 1.16332 -0.64116, 1.02257 -1.25159, 0.920301 -1.94282, 0.797189 -1.74084, 0.60675 -1.43819, 0.349624 -1.03486, 0.325258 -0.997032, 0.307624 -0.96946, 0.297044 -0.952788, 0.233564 -1.0448, 0.105002 -1.21248, -0.088644 -1.4555, -0.15533 -1.53725, -0.201177 -1.59528, -0.226184 -1.62991, 0.196695 -2.23136, 0.556094 -2.85718, 0.851692 -3.50737, 1.16172 -4.19443, 1.42397 -4.95875, 1.63878 -5.80034 L 2.46273 -5.68236 C 2.27614 -5.01518, 2.07897 -4.44066, 1.87122 -3.95879 L 5.25713 -3.95879, 5.25713 -3.20472, 4.47004 -3.20472 C 4.37515 -2.19898, 4.21837 -1.33367, 4.00004 -0.609099, 3.77113 0.140156, 3.45789 0.808618, 3.0597 1.39661, 3.59511 2.05353, 4.34341 2.62645, 5.30458 3.11505, 5.06188 3.45714, 4.88747 3.71875, 4.78167 3.8999, 3.81697 3.26381, 3.07381 2.64184, 2.5525 2.03269, 1.96804 2.71366, 1.15979 3.37506, 0.127765 4.01788 Z M -3.94489 3.95119 C -4.00452 3.88964, -4.12956 3.77005, -4.31999 3.59211, -4.429 3.48952, -4.50306 3.41963, -4.54185 3.3818, -4.24593 2.91371, -4.02408 2.48795, -3.87628 2.10451, -3.71405 1.69445, -3.59446 1.22412, -3.51688 0.693841, -3.44282 0.208445, -3.38479 -0.461621, -3.34279 -1.317, -3.33894 -1.46383, -3.33189 -1.68601, -3.32163 -1.98386, -3.29662 -2.57505, -3.28252 -3.01108, -3.27931 -3.29193 L -4.39918 -3.29193, -4.39918 -4.02547, -2.12256 -4.02547 C -2.30531 -4.66796, -2.46914 -5.20658, -2.61373 -5.64132 L -1.80036 -5.79008 C -1.58555 -5.13316, -1.41467 -4.5689, -1.28771 -4.09729 L -1.66827 -4.02547, 0.238694 -4.02547, 0.238694 -3.29193, -2.5028 -3.29193 C -2.50986 -2.77864, -2.52749 -2.2211, -2.5557 -1.61965 L -0.257603 -1.61965 C -0.285816 -0.234312, -0.333266 1.05164, -0.400272 2.23788, -0.417906 2.73417, -0.523705 3.0862, -0.717351 3.29459, -0.910997 3.50331, -1.23833 3.61776, -1.70001 3.63828, -1.8866 3.64854, -2.18572 3.65367, -2.59802 3.65367, -2.61886 3.43149, -2.67176 3.16475, -2.7564 2.85344, -2.74935 2.85376, -2.73685 2.85536, -2.71921 2.85857, -2.39155 2.87588, -2.14533 2.88454, -1.9799 2.88422, -1.69103 2.88454, -1.48777 2.83068, -1.36978 2.72295, -1.2518 2.61523, -1.18031 2.41774, -1.15562 2.13015, -1.08861 0.824007, -1.05527 -0.184618, -1.05527 -0.896362 L -2.59802 -0.896362 C -2.65413 -0.0307271, -2.72979 0.663384, -2.82501 1.18629, -2.91991 1.72683, -3.05553 2.21255, -3.23186 2.64312, -3.39377 3.02977, -3.63133 3.4658, -3.94489 3.95119 Z M 2.56308 0.70923 C 2.88016 0.220628, 3.13024 -0.342035, 3.3133 -0.978437, 3.48258 -1.57669, 3.61275 -2.31857, 3.70412 -3.20472 L 1.54901 -3.20472, 1.46437 -3.02005 C 1.55959 -2.21277, 1.69328 -1.5116, 1.86577 -0.916881, 2.04531 -0.297471, 2.27775 0.244352, 2.56308 0.70923 Z" stroke="none" fill="#000000" transform="matrix(1.12 0 0 1 18.9917 16.8316)" />
			<rect />
		</svg>
	</g>
	<g transform="matrix(1 0 -0 1 160.922 79.9561)">
		<svg width="155.956741" height="47.9999886">
			<defs />
			<path d="M 17.8225 4.32066 C 17.7532 4.50444, 17.6336 4.59604, 17.4641 4.59547, 17.0868 4.59604, 16.7565 4.68764, 16.4737 4.87027, 16.2974 4.98706, 16.1434 5.12446, 16.0111 5.28305, 15.8794 5.44221, 15.7661 5.61568, 15.6716 5.80461 L 9.38945 16.9983 C 9.30758 17.1758, 9.16274 17.2611, 8.95549 17.2548 L 8.80435 17.2548 C 8.5845 17.2548, 8.47401 17.1575, 8.47401 16.9617 L 8.04978 7.66412, 2.82391 17.0075 C 2.73002 17.1787, 2.58518 17.2611, 2.38995 17.2548 L 2.21991 17.2548 C 2.04415 17.2548, 1.93423 17.1603, 1.89015 16.9708 L 1.35256 5.24584 C 1.33997 5.08153, 1.32623 4.95958, 1.3102 4.88, 1.29417 4.801, 1.26096 4.7426, 1.21058 4.70539, 1.13558 4.6573, 1.01478 4.62695, 0.847608 4.61436, 0.681008 4.60234, 0.481202 4.59604, 0.248763 4.59547, 0.0918951 4.59604, 0.00659117 4.5136, -0.00600407 4.34814 L -0.00600407 4.28402, 0.0317816 4.11914 C 0.101055 3.93651, 0.223572 3.84491, 0.399333 3.84433, 0.990735 3.88155, 1.5913 3.89987, 2.20102 3.89929, 2.29606 3.89987, 2.39338 3.89357, 2.49357 3.88097, 3.19833 3.88155, 3.91225 3.86952, 4.63476 3.84433, 4.7985 3.84491, 4.88037 3.92735, 4.88037 4.09166 L 4.88037 4.15578, 4.84258 4.32066 C 4.77388 4.50444, 4.65079 4.59604, 4.47446 4.59547, 4.24202 4.59604, 4.03477 4.6052, 3.85214 4.62352, 3.67008 4.64184, 3.49375 4.6905, 3.32371 4.76951, 3.17314 4.84966, 3.10101 4.96531, 3.10673 5.11759 L 3.53153 14.2594, 7.97421 6.29925, 7.93642 5.24584 C 7.92383 5.08153, 7.91009 4.95958, 7.89406 4.88, 7.8786 4.801, 7.84253 4.7426, 7.78585 4.70539, 7.71028 4.6573, 7.58776 4.62695, 7.41773 4.61436, 7.24827 4.60234, 7.05304 4.59604, 6.83262 4.59547, 6.73873 4.59604, 6.66946 4.56569, 6.62538 4.50386, 6.58759 4.4678, 6.5687 4.422, 6.5687 4.36646, 6.5687 4.33039, 6.57843 4.29662, 6.59732 4.2657 L 6.62538 4.1283 C 6.66316 3.93937, 6.78625 3.84491, 6.9935 3.84433, 7.58433 3.88155, 8.18203 3.89987, 8.78546 3.89929, 8.86732 3.89987, 8.96179 3.89357, 9.06828 3.88097, 9.77304 3.88155, 10.4835 3.86952, 11.2003 3.84433, 11.2885 3.84491, 11.364 3.87525, 11.427 3.93593, 11.4522 3.98517, 11.4642 4.03097, 11.4642 4.07334, 11.4642 4.11055, 11.4551 4.14433, 11.4362 4.1741 L 11.4081 4.3115 C 11.3892 4.39165, 11.3469 4.45864, 11.2805 4.5136, 11.2146 4.56856, 11.1379 4.59604, 11.0497 4.59547, 10.8299 4.59604, 10.6238 4.6052, 10.432 4.62352, 10.2402 4.64184, 10.0622 4.6905, 9.89841 4.76951, 9.76044 4.84966, 9.69117 4.9716, 9.69117 5.13591 L 10.0965 14.2594, 14.964 5.60308 C 15.0338 5.48171, 15.0682 5.37179, 15.0682 5.27332, 15.0682 5.15767, 15.0212 5.04489, 14.9262 4.93439, 14.8386 4.80672, 14.7144 4.71856, 14.5541 4.66932, 14.3938 4.62066, 14.2094 4.59604, 14.0022 4.59547, 13.9083 4.59604, 13.839 4.56569, 13.7943 4.50386, 13.7566 4.4678, 13.7377 4.422, 13.7377 4.36646, 13.7377 4.33039, 13.7474 4.29662, 13.7663 4.2657 L 13.7943 4.1283 C 13.8138 4.04929, 13.8562 3.98231, 13.922 3.92735, 13.9884 3.87239, 14.0651 3.84491, 14.1527 3.84433, 14.4739 3.85693, 14.798 3.86323, 15.1243 3.86265, 15.4455 3.86323, 15.7661 3.86952, 16.0867 3.88097 L 16.8412 3.88097 C 17.0994 3.88155, 17.3571 3.86952, 17.6147 3.84433, 17.7784 3.84491, 17.8603 3.92735, 17.8603 4.09166 L 17.8603 4.15578 Z" stroke="none" fill="#000000" />
			<polyline points="-5.2528 6.04072 0 -6.04072" fill="none" stroke="#000000" stroke-width="0.750400007" stroke-linecap="round" stroke-linejoin="round" transform="matrix(7.54979e-008 1 -1 7.54979e-008 29.8727 11.2074)" />
			<polyline points="0 -6.04072 5.2528 6.04072" fill="none" stroke="#000000" stroke-width="0.750400007" stroke-linecap="round" stroke-linejoin="round" transform="matrix(7.54979e-008 1 -1 7.54979e-008 29.8727 11.2074)" />
			<ellipse cx="-5.252799779176712" cy="6.0407201945781708" rx="0.37520000338554382" ry="0.37520000338554382" stroke="none" fill="#000000" transform="matrix(7.54979e-008 1 -1 7.54979e-008 29.8727 11.2074)" />
			<ellipse cx="-0" cy="-6.0407197773456573" rx="0.37520000338554382" ry="0.37520000338554382" stroke="none" fill="#000000" transform="matrix(7.54979e-008 1 -1 7.54979e-008 29.8727 11.2074)" />
			<ellipse cx="5.2528001964092255" cy="6.0407201945781708" rx="0.37520000338554382" ry="0.37520000338554382" stroke="none" fill="#000000" transform="matrix(7.54979e-008 1 -1 7.54979e-008 29.8727 11.2074)" />
			<path d="M 50.4992 10.519 C 50.4992 11.3813, 50.4392 12.2386, 50.3191 13.0914, 50.199 13.9442, 49.9017 14.7449, 49.427 15.4922, 49.0881 16.0376, 48.6348 16.4561, 48.0676 16.749, 47.5009 17.0424, 46.8843 17.1888, 46.2183 17.1888, 45.5776 17.1888, 44.9716 17.0424, 44.4016 16.749, 43.8316 16.4561, 43.3765 16.0376, 43.0377 15.4922, 42.563 14.7449, 42.2656 13.9442, 42.1456 13.0914, 42.0255 12.2386, 41.9649 11.3813, 41.9649 10.519, 41.9649 9.64596, 42.0255 8.77352, 42.1456 7.90275, 42.2656 7.03199, 42.563 6.21677, 43.0377 5.45597, 43.3765 4.90613, 43.8299 4.47804, 44.3971 4.17283, 44.9643 3.86761, 45.5714 3.715, 46.2183 3.71444, 46.8781 3.715, 47.493 3.86761, 48.0631 4.17283, 48.6331 4.47804, 49.0881 4.90613, 49.427 5.45597, 49.9017 6.21677, 50.199 7.03199, 50.3191 7.90275, 50.4392 8.77352, 50.4992 9.64596, 50.4992 10.519 Z M 48.6685 10.2048 C 48.6685 9.82831, 48.6657 9.43052, 48.6595 9.0114, 48.6533 8.59285, 48.6376 8.18272, 48.6129 7.78156, 48.5882 7.38097, 48.5439 7.00225, 48.4788 6.64598, 48.4143 6.29027, 48.3358 5.98617, 48.2432 5.73426, 48.0586 5.32805, 47.7876 4.99422, 47.4296 4.73389, 47.0722 4.47355, 46.6683 4.34339, 46.2183 4.34283, 45.7807 4.34339, 45.3851 4.47524, 45.0305 4.73837, 44.676 5.00207, 44.4061 5.33366, 44.2209 5.73426, 44.1289 5.98617, 44.0504 6.29027, 43.9853 6.64598, 43.9208 7.00225, 43.8759 7.38097, 43.8512 7.78156, 43.8265 8.18272, 43.8114 8.59285, 43.8052 9.0114, 43.799 9.43052, 43.7957 9.82831, 43.7957 10.2048, 43.7957 10.6245, 43.799 11.066, 43.8052 11.5294, 43.8114 11.9934, 43.8265 12.4423, 43.8512 12.876, 43.8759 13.3102, 43.9208 13.7215, 43.9853 14.1103, 44.0504 14.4997, 44.1289 14.8257, 44.2209 15.0882, 44.3937 15.5259, 44.6608 15.8849, 45.021 16.166, 45.3818 16.4477, 45.7807 16.588, 46.2183 16.5874, 46.675 16.588, 47.0835 16.4477, 47.4437 16.166, 47.8044 15.8849, 48.0709 15.5259, 48.2432 15.0882, 48.3358 14.8257, 48.4143 14.4997, 48.4788 14.1103, 48.5439 13.7215, 48.5882 13.3102, 48.6129 12.876, 48.6376 12.4423, 48.6533 11.9934, 48.6595 11.5294, 48.6657 11.066, 48.6685 10.6245, 48.6685 10.2048 Z" stroke="none" fill="#000000" />
			<rect />
		</svg>
	</g>
	<path d="M 0 44.0218 L 0 -44.0215" fill="none" stroke="#000000" stroke-width="1.60000014" stroke-linecap="round" stroke-linejoin="round" stroke-dasharray="5.608, 3.992" transform="matrix(0.833333 0 0 0.833333 50.7003 127.848)" />
	<path d="M 0 44.0218 L 0 -44.0215" fill="none" stroke="#000000" stroke-width="1.60000014" stroke-linecap="round" stroke-linejoin="round" stroke-dasharray="5.608, 3.992" transform="matrix(0.833333 0 0 0.833333 149.152 127.848)" />
	<path d="M 41.3045 -26.0493 C 42.2572 -25.4745, 43.1774 -24.8803, 44.0637 -24.268 L 50.542 -18.8608" fill="none" stroke="#000000" stroke-width="0.960000038" stroke-linecap="round" stroke-linejoin="round" marker-end="url(#CustomMarker-06)" transform="matrix(-0.833333 1.2583e-007 -1.2583e-007 -0.833333 99.895 91.1634)" />
	<path d="M 0 -14.0988 L 0 14.0989" fill="none" stroke="#858585" stroke-width="1.60000014" stroke-linecap="round" stroke-linejoin="round" marker-end="url(#CustomMarker-07)" transform="matrix(0.833333 0 0 0.833333 362.024 60.7983)" />
	<path d="M 0 -14.0988 L 0 14.0988" fill="none" stroke="#858585" stroke-width="1.60000014" stroke-linecap="round" stroke-linejoin="round" marker-end="url(#CustomMarker-08)" transform="matrix(0.833333 0 0 0.833333 362.024 121.529)" />
	<path d="M -113.023 88.0435 L 113.023 88.0435" fill="none" stroke="#000000" stroke-width="1.60000014" stroke-linecap="round" stroke-linejoin="round" marker-end="url(#CustomMarker-09)" transform="matrix(0.833333 0 -0 0.833333 389.918 91.1634)" />
	<path d="M -113.023 88.0435 L -113.023 -88.0435" fill="none" stroke="#000000" stroke-width="1.60000014" stroke-linecap="round" stroke-linejoin="round" marker-end="url(#CustomMarker-10)" transform="matrix(0.833333 0 -0 0.833333 389.918 91.1634)" />
	<g transform="matrix(1 0 -0 1 273.629 11.5)">
		<svg width="32.9738617" height="41.9571342">
			<defs />
			<path d="M 9.59355 12.748 C 9.44928 13.2799, 9.23688 13.8054, 8.95692 14.3241, 8.67696 14.8434, 8.31342 15.3226, 7.86686 15.7617, 7.50217 16.1287, 7.08882 16.4355, 6.62623 16.6829, 6.16422 16.9302, 5.68445 17.0533, 5.18752 17.0533, 4.77874 17.0533, 4.44211 16.9405, 4.17761 16.7149, 3.91368 16.4894, 3.74708 16.3056, 3.67781 16.1647 L 2.89461 19.1693 C 2.85683 19.3221, 2.83507 19.4349, 2.82877 19.5082, 2.82877 19.5695, 2.84137 19.609, 2.86656 19.6273, 2.94213 19.6765, 3.08812 19.7069, 3.3051 19.7189, 3.52208 19.7315, 3.76597 19.7372, 4.0362 19.7372, 4.19994 19.7372, 4.2818 19.8168, 4.2818 19.9754 L 4.2818 20.0395, 4.24402 20.2135 C 4.17475 20.3967, 4.05223 20.4855, 3.8759 20.4792, 3.27247 20.4551, 2.67477 20.4368, 2.08337 20.4242 L 1.80971 20.4242 C 1.29445 20.4242, 0.77232 20.4425, 0.243321 20.4792, 0.0807282 20.4792, -0.00114071 20.4002, -0.00171322 20.241 L -0.00171322 20.1769, 0.0360724 20.0028 C 0.105919 19.8196, 0.228436 19.7315, 0.403624 19.7372, 0.624612 19.7372, 0.807243 19.7315, 0.951516 19.7189, 1.09579 19.7069, 1.19941 19.6794, 1.26239 19.6364, 1.32536 19.6061, 1.39178 19.4384, 1.46048 19.1326 L 3.64918 10.6686 C 3.74994 10.2725, 3.80032 9.93011, 3.80032 9.64271 L 3.80032 9.42287 C 3.76941 9.13032, 3.6217 8.98375, 3.3572 8.98318, 3.08011 8.98375, 2.84881 9.20703, 2.66332 9.65244, 2.47783 10.0984, 2.29749 10.6784, 2.12115 11.3923, 2.05188 11.5578, 1.93566 11.6431, 1.77192 11.6488 L 1.55494 11.6488 C 1.4038 11.6494, 1.32823 11.5732, 1.32823 11.4198 L 1.32823 11.3557 C 1.4038 11.0694, 1.4891 10.7562, 1.58357 10.4173, 1.67803 10.0784, 1.80398 9.75779, 1.96085 9.4555, 2.11829 9.15322, 2.31638 8.89673, 2.55512 8.68605, 2.79442 8.47536, 3.0927 8.37002, 3.45109 8.36945, 3.92971 8.37002, 4.31157 8.50628, 4.59783 8.77765, 4.88408 9.04959, 5.0524 9.32268, 5.10221 9.59691, 5.34782 9.31638, 5.67644 9.04215, 6.08865 8.77307, 6.50085 8.50456, 6.93596 8.37002, 7.39511 8.36945, 7.87946 8.37002, 8.29338 8.49712, 8.63574 8.75017, 8.97867 9.00379, 9.24432 9.31982, 9.43325 9.69767, 9.65996 10.15, 9.77904 10.6389, 9.79164 11.1633 L 9.79164 11.2915 C 9.79164 11.7621, 9.7258 12.2476, 9.59355 12.748 Z M 8.20636 9.96332 C 8.15025 9.67076, 8.04491 9.43432, 7.89033 9.25398, 7.73633 9.07421, 7.53366 8.98375, 7.28176 8.98318, 6.99264 8.98375, 6.69894 9.08165, 6.40009 9.27688, 6.10124 9.47268, 5.82586 9.71943, 5.57396 10.0183, 5.37931 10.269, 5.20927 10.5043, 5.06443 10.7236 L 4.02704 14.7266 C 4.05223 14.8554, 4.07627 14.9779, 4.09803 15.0936, 4.11978 15.2098, 4.14955 15.3226, 4.18734 15.4319, 4.2818 15.7319, 4.41863 15.9764, 4.59783 16.1653, 4.77703 16.3548, 5.01462 16.4493, 5.31003 16.4487, 5.57453 16.4493, 5.8356 16.352, 6.09323 16.1562, 6.35085 15.9609, 6.58673 15.7165, 6.80085 15.4228, 7.10313 15.014, 7.32927 14.5795, 7.48042 14.118, 7.63156 13.6572, 7.76953 13.1854, 7.89491 12.7022, 8.02087 12.2018, 8.13136 11.7198, 8.22525 11.2549, 8.26304 11.0356, 8.28193 10.8221, 8.28193 10.6137, 8.28193 10.3944, 8.25674 10.1774, 8.20636 9.96332 Z" stroke="none" fill="#000000" />
			<rect />
		</svg>
	</g>
	<g transform="matrix(1 0 -0 1 490.291 153.325)">
		<svg width="41.9788857" height="47.9999886">
			<defs />
			<path d="M 12.858 4.32066 C 12.8208 4.50444, 12.7074 4.59604, 12.5185 4.59547, 12.3176 4.59604, 12.1258 4.61894, 11.9431 4.66474, 11.7611 4.71054, 11.583 4.7884, 11.4101 4.89832, 11.2372 5.00825, 11.0786 5.14107, 10.9338 5.29679, 10.789 5.45251, 10.6567 5.62827, 10.537 5.82293 L 3.65892 17.0075 C 3.56503 17.1787, 3.42018 17.2611, 3.22496 17.2548 L 3.04576 17.2548 C 2.81332 17.2548, 2.69996 17.1575, 2.70626 16.9617 L 1.52689 5.26416 C 1.5017 5.10614, 1.47651 4.98248, 1.45132 4.89374, 1.42613 4.80558, 1.38834 4.7426, 1.33796 4.70539, 1.25037 4.6573, 1.11068 4.62695, 0.918313 4.61436, 0.726522 4.60234, 0.507824 4.59604, 0.26279 4.59547, 0.168325 4.59604, 0.0990518 4.56569, 0.0549685 4.50386, 0.0171829 4.4678, -0.00170994 4.422, -0.00170994 4.36646, -0.00170994 4.33039, 0.00802273 4.29662, 0.0269156 4.2657 L 0.0549685 4.1283 C 0.0744339 4.04929, 0.1168 3.98231, 0.182638 3.92735, 0.249049 3.87239, 0.329201 3.84491, 0.423092 3.84433, 1.02709 3.88155, 1.63739 3.89987, 2.25341 3.89929, 2.34787 3.89987, 2.44863 3.89357, 2.55512 3.88097, 3.28507 3.88155, 4.01502 3.86952, 4.7444 3.84433, 4.83256 3.84491, 4.911 3.87525, 4.98027 3.93593, 5.00546 3.98517, 5.01806 4.03097, 5.01806 4.07334, 5.01806 4.11055, 5.0089 4.14433, 4.98943 4.1741 L 4.96138 4.3115 C 4.94248 4.39738, 4.89668 4.46665, 4.82455 4.51818, 4.75241 4.57028, 4.67512 4.59604, 4.59325 4.59547, 4.37341 4.59604, 4.17189 4.6052, 3.98926 4.62352, 3.8072 4.64184, 3.628 4.6905, 3.45167 4.76951, 3.34518 4.82504, 3.2948 4.91664, 3.30053 5.04431 L 3.30053 5.10843 C 3.52094 6.73322, 3.69728 8.36544, 3.82895 10.0051, 3.9612 11.6448, 4.10261 13.1974, 4.25376 14.6625 L 9.82027 5.60308 C 9.90214 5.47541, 9.95252 5.34087, 9.97141 5.20004 L 9.97141 5.15423 C 9.97141 5.06321, 9.94965 4.98076, 9.905 4.90691, 9.76702 4.69966, 9.50939 4.59604, 9.13154 4.59547, 8.9678 4.59604, 8.88593 4.5136, 8.88593 4.34814 L 8.88593 4.28402, 8.92372 4.11914 C 8.99356 3.93651, 9.11608 3.84491, 9.29184 3.84433, 9.84546 3.86952, 10.4019 3.88155, 10.9619 3.88097, 11.0374 3.89357, 11.1101 3.89987, 11.1788 3.89929, 11.6569 3.89987, 12.1475 3.88155, 12.6508 3.84433, 12.8208 3.84491, 12.9118 3.92735, 12.9244 4.09166 L 12.9244 4.16494 Z" stroke="none" fill="#000000" />
			<rect />
		</svg>
	</g>
	<g transform="matrix(1 0 -0 1 276.863 164.549)">
		<svg width="41.9788857" height="47.9999886">
			<defs />
			<path d="M 12.2634 10.4122 C 12.0367 11.2984, 11.6703 12.1532, 11.1642 12.9776, 10.6581 13.802, 10.0209 14.556, 9.25376 15.2396, 8.56217 15.8567, 7.80531 16.3474, 6.98433 16.7103, 6.16336 17.0733, 5.34123 17.2548, 4.51739 17.2548, 3.68725 17.2548, 2.94929 17.0722, 2.30464 16.7058, 1.65999 16.3394, 1.14588 15.8447, 0.762298 15.2212, 0.340931 14.5319, 0.0987594 13.7682, 0.0357833 12.9312, 0.0105929 12.7303, -0.00200236 12.5287, -0.00200236 12.3266, -0.00200236 11.698, 0.0798666 11.0477, 0.243032 10.3755, 0.482341 9.4784, 0.85161 8.60704, 1.35198 7.76087, 1.85236 6.91528, 2.49185 6.1504, 3.27161 5.46568, 3.96377 4.84966, 4.72006 4.35329, 5.54104 3.97773, 6.36202 3.60216, 7.19044 3.41438, 8.02687 3.41381, 8.85701 3.41438, 9.59154 3.60388, 10.2299 3.98231, 10.8688 4.36131, 11.3795 4.86168, 11.7631 5.484, 12.1844 6.17445, 12.4329 6.9439, 12.5085 7.79236, 12.5211 8.00075, 12.5274 8.20514, 12.5274 8.40609, 12.5274 9.0599, 12.4398 9.72859, 12.2634 10.4122 Z M 10.3576 5.79545 C 10.1503 5.28305, 9.83887 4.86626, 9.42323 4.54566, 9.00816 4.22505, 8.49862 4.06475, 7.89462 4.06418, 7.2975 4.06475, 6.70323 4.22849, 6.11183 4.55482, 5.521 4.88172, 4.99257 5.30423, 4.52655 5.82293, 3.94144 6.45269, 3.47943 7.13512, 3.13993 7.87079, 2.80043 8.60704, 2.53593 9.35302, 2.34701 10.1099, 2.12716 10.9349, 1.99205 11.7381, 1.94167 12.519, 1.92907 12.6661, 1.92278 12.8127, 1.92278 12.9587, 1.92278 13.5701, 2.02354 14.1684, 2.22449 14.7541, 2.41971 15.2739, 2.71856 15.709, 3.12104 16.06, 3.52351 16.4115, 4.02675 16.5867, 4.63017 16.5861, 5.25306 16.5867, 5.86222 16.4081, 6.45648 16.0508, 7.05075 15.6936, 7.58375 15.2522, 8.0555 14.7266, 8.6658 14.019, 9.14041 13.2707, 9.4799 12.4829, 9.81997 11.6952, 10.0965 10.8919, 10.31 10.0732, 10.5053 9.31066, 10.6278 8.55952, 10.6782 7.81984 L 10.6782 7.49924 C 10.6782 6.88894, 10.5717 6.32101, 10.3576 5.79545 Z" stroke="none" fill="#000000" />
			<rect />
		</svg>
	</g>
	<path d="M 59.1084 -0 C 59.1084 20.1243, 32.6447 36.4384, -0 36.4384, -32.6447 36.4384, -59.1084 20.1243, -59.1084 -0, -59.1084 -20.1243, -32.6447 -36.4384, -0 -36.4384, 32.6447 -36.4384, 59.1084 -20.1243, 59.1084 -0 Z" stroke="none" fill="#000000" fill-opacity="0.133333325" transform="matrix(0.833333 0 0 0.833333 362.024 91.1636)" />
	<path d="M 59.1084 -0 C 59.1084 20.1243, 32.6447 36.4384, -0 36.4384, -32.6447 36.4384, -59.1084 20.1243, -59.1084 -0, -59.1084 -20.1243, -32.6447 -36.4384, -0 -36.4384, 32.6447 -36.4384, 59.1084 -20.1243, 59.1084 -0 Z" fill="none" stroke="#000000" stroke-width="2.24000001" stroke-linecap="round" stroke-linejoin="round" transform="matrix(0.833333 0 0 0.833333 362.024 91.1636)" />
	<path d="M 41.3045 -26.0493 C 42.2572 -25.4745, 43.1774 -24.8803, 44.0637 -24.268 L 50.5419 -18.8608" fill="none" stroke="#000000" stroke-width="0.960000038" stroke-linecap="round" stroke-linejoin="round" marker-end="url(#CustomMarker-11)" transform="matrix(-0.833333 1.2583e-007 1.2583e-007 0.833333 362.055 91.1636)" />
	<g transform="matrix(1 0 -0 1 349.578 22.2309)">
		<svg width="77.9989777" height="56.9999886">
			<defs />
			<path d="M 12.2589 10.4122 C 12.0322 11.2984, 11.6657 12.1532, 11.1596 12.9776, 10.6535 13.802, 10.0163 14.556, 9.24918 15.2396, 8.5198 15.8814, 7.76467 16.3731, 6.98433 16.7144, 6.99693 16.9342, 7.01926 17.1603, 7.05075 17.3922, 7.08223 17.6246, 7.13719 17.8244, 7.21563 17.9922, 7.29463 18.1605, 7.40284 18.2933, 7.54139 18.3907, 7.67993 18.4886, 7.86829 18.5372, 8.10703 18.5372, 8.32744 18.5372, 8.53984 18.4903, 8.74423 18.3952, 8.94862 18.3008, 9.14212 18.1725, 9.32418 18.0105, 9.50681 17.8491, 9.66711 17.655, 9.80566 17.4288, 9.94421 17.2033, 10.0415 16.9708, 10.0982 16.7327, 10.1171 16.6537, 10.1595 16.5867, 10.2253 16.5317, 10.2917 16.4768, 10.3684 16.4493, 10.4566 16.4487, 10.5448 16.4493, 10.6238 16.4831, 10.6925 16.5495, 10.7177 16.5987, 10.7303 16.6416, 10.7303 16.6777, 10.7303 16.7149, 10.7211 16.7487, 10.7016 16.7785, 10.6077 17.1941, 10.4709 17.6166, 10.2917 18.0472, 10.1125 18.4777, 9.89383 18.875, 9.6362 19.238, 9.37857 19.6015, 9.07342 19.8992, 8.72076 20.1311, 8.36866 20.3635, 7.96905 20.4792, 7.52249 20.4792, 7.01926 20.4792, 6.65457 20.3664, 6.42786 20.1403, 6.20171 19.9147, 6.0603 19.6181, 6.00305 19.2517, 5.97786 19.0868, 5.96527 18.9099, 5.96527 18.7204, 5.96527 18.5252, 5.97786 18.3237, 6.00305 18.1159, 6.05343 17.7008, 6.09752 17.3344, 6.1353 17.0166, 5.64523 17.1758, 5.10421 17.2548, 4.51281 17.2548, 3.68267 17.2548, 2.94471 17.0722, 2.30006 16.7058, 1.65541 16.3394, 1.1413 15.8447, 0.757718 15.2212, 0.336351 14.5319, 0.0941796 13.7682, 0.0312035 12.9312, 0.00601315 12.7303, -0.00658214 12.5287, -0.00658214 12.3266, -0.00658214 11.698, 0.0752869 11.0477, 0.238452 10.3755, 0.477761 9.4784, 0.84703 8.60704, 1.3474 7.76087, 1.84778 6.91528, 2.48727 6.1504, 3.26703 5.46568, 3.95919 4.84966, 4.71548 4.35329, 5.53646 3.97773, 6.35744 3.60216, 7.18586 3.41438, 8.02229 3.41381, 8.85243 3.41438, 9.58696 3.60388, 10.2253 3.98231, 10.8642 4.36131, 11.3749 4.86168, 11.7585 5.484, 12.1799 6.17445, 12.4283 6.9439, 12.5039 7.79236, 12.5165 8.00075, 12.5228 8.20514, 12.5228 8.40609, 12.5228 9.0599, 12.4352 9.72859, 12.2589 10.4122 Z M 10.3719 5.86873 C 10.1646 5.35633, 9.85318 4.92752, 9.43754 4.5823, 9.02247 4.23765, 8.50664 4.06475, 7.89004 4.06418, 7.28032 4.06475, 6.67346 4.24051, 6.06946 4.59146, 5.46604 4.94298, 4.92788 5.37751, 4.45613 5.89621, 3.85271 6.56261, 3.37924 7.2834, 3.03631 8.05858, 2.69337 8.83433, 2.418 9.61867, 2.21018 10.4122, 2.00293 11.1942, 1.88041 11.9671, 1.84262 12.7297, 1.83003 12.8402, 1.82373 12.9501, 1.82373 13.0595, 1.82373 13.6949, 1.93709 14.2875, 2.16323 14.8365, 2.30807 15.1789, 2.49071 15.4846, 2.71055 15.7531, 2.93097 16.0222, 3.13535 16.1957, 3.32371 16.2747, 3.31798 16.2632, 3.31455 16.1716, 3.31455 15.9999, 3.31455 15.8539, 3.33344 15.7044, 3.37065 15.551, 3.4279 15.338, 3.51893 15.1319, 3.64489 14.9333, 3.77084 14.7352, 3.91683 14.5577, 4.08343 14.402, 4.25003 14.2463, 4.4401 14.1215, 4.65422 14.0264, 4.86834 13.932, 5.09162 13.8844, 5.32406 13.8839, 5.65153 13.8844, 5.91718 13.9457, 6.12156 14.0676, 6.32595 14.1902, 6.48797 14.3459, 6.60705 14.5348, 6.72671 14.7243, 6.80857 14.9424, 6.85266 15.1898, 6.89674 15.4371, 6.92193 15.6403, 6.92766 15.7983, 7.0662 15.7073, 7.24082 15.5733, 7.4515 15.3959, 7.66219 15.219, 7.86543 15.0232, 8.06008 14.809, 8.66408 14.1564, 9.13583 13.4493, 9.47532 12.689, 9.81539 11.9287, 10.0856 11.1576, 10.2866 10.3755, 10.4944 9.5763, 10.6232 8.78509, 10.6736 8.00304, 10.6862 7.8874, 10.6925 7.76545, 10.6925 7.63664, 10.6925 7.01432, 10.586 6.42521, 10.3719 5.86873 Z M 6.22977 16.2105 C 6.24236 16.0709, 6.24866 15.918, 6.24866 15.7525 L 6.24866 15.5327 C 6.23606 15.3197, 6.19542 15.1365, 6.12614 14.9837, 6.05687 14.8314, 5.95153 14.7089, 5.81012 14.6172, 5.66871 14.5256, 5.47234 14.4798, 5.22043 14.4793, 4.95021 14.4798, 4.69659 14.5886, 4.46071 14.805, 4.22484 15.022, 4.06625 15.2831, 3.98438 15.5877, 3.95919 15.6918, 3.9466 15.7926, 3.9466 15.8899, 3.9466 16.0188, 3.96893 16.1378, 4.01244 16.2472, 4.08801 16.4373, 4.2111 16.5563, 4.38056 16.6044 L 4.62559 16.6044 C 5.18551 16.605, 5.72023 16.4739, 6.22977 16.2105 Z" stroke="none" fill="#000000" />
			<path d="M 0.208237 3.96658 C 0.0815978 3.75819, -0.0873613 3.5203, -0.298961 3.25356, 0.729541 2.68288, 1.53105 2.09617, 2.10494 1.49407, 1.44641 0.659857, 0.937294 -0.338508, 0.577895 -1.50167, 0.500629 -0.348768, 0.308586 0.622346, 0.00208759 1.412, -0.290305 2.17504, -0.769289 2.97174, -1.43487 3.80243, -1.48424 3.75113, -1.56343 3.66746, -1.67276 3.55108, -1.84171 3.37667, -1.95809 3.25195, -2.02157 3.17661, -1.5599 2.62645, -1.20435 2.10643, -0.954278 1.61718, -0.683046 1.0978, -0.482027 0.519753, -0.351861 -0.116649, -0.221375 -0.738624, -0.138659 -1.51321, -0.103392 -2.4404, -0.099865 -2.60775, -0.0947356 -2.84372, -0.0876822 -3.14829, -0.0735755 -3.69525, -0.0665221 -4.13448, -0.0665221 -4.46662 L -0.901379 -4.46662, -0.901379 -5.20017, 4.00709 -5.20017, 4.00709 -4.4102, 3.04014 -2.41475, 4.72557 -2.41475, 4.72557 -1.66069 C 4.31712 -0.377943, 3.79229 0.673643, 3.15107 1.49407, 3.7147 2.03141, 4.42997 2.55624, 5.29625 3.06889, 5.13434 3.29459, 4.96698 3.54595, 4.7945 3.82295, 3.92085 3.23496, 3.2059 2.65723, 2.64933 2.08912, 1.9799 2.79733, 1.16621 3.42283, 0.208237 3.96658 Z M -4.07666 2.60721 L -4.07666 -4.91804, -1.43487 -4.91804, -1.43487 1.85315, -3.35305 1.85315, -3.35305 2.60721 Z M -3.35305 1.15038 L -2.12192 1.15038, -2.12192 -4.21527, -3.35305 -4.21527 Z M 2.61759 0.904158 C 3.15652 0.200109, 3.58966 -0.666808, 3.91732 -1.69659 L 2.2319 -1.69659, 2.2319 -2.46092, 3.19339 -4.46662, 0.709984 -4.46662 C 0.709984 -4.29542, 0.708381 -4.0508, 0.704854 -3.73308, 0.701649 -3.45576, 0.699725 -3.25409, 0.699725 -3.12778, 0.956851 -2.22816, 1.23706 -1.46031, 1.53971 -0.824546, 1.84621 -0.174358, 2.20561 0.40177, 2.61759 0.904158 Z" stroke="none" fill="#000000" transform="matrix(1.12 0 0 1 18.9917 16.8316)" />
			<rect />
		</svg>
	</g>
	<g transform="matrix(1 0 -0 1 350.618 134.293)">
		<svg width="77.9989777" height="56.9999886">
			<defs />
			<path d="M 12.2589 10.4122 C 12.0322 11.2984, 11.6657 12.1532, 11.1596 12.9776, 10.6535 13.802, 10.0163 14.556, 9.24918 15.2396, 8.5198 15.8814, 7.76467 16.3731, 6.98433 16.7144, 6.99693 16.9342, 7.01926 17.1603, 7.05075 17.3922, 7.08223 17.6246, 7.13719 17.8244, 7.21563 17.9922, 7.29463 18.1605, 7.40284 18.2933, 7.54139 18.3907, 7.67993 18.4886, 7.86829 18.5372, 8.10703 18.5372, 8.32744 18.5372, 8.53984 18.4903, 8.74423 18.3952, 8.94862 18.3008, 9.14212 18.1725, 9.32418 18.0105, 9.50681 17.8491, 9.66711 17.655, 9.80566 17.4288, 9.94421 17.2033, 10.0415 16.9708, 10.0982 16.7327, 10.1171 16.6537, 10.1595 16.5867, 10.2253 16.5317, 10.2917 16.4768, 10.3684 16.4493, 10.4566 16.4487, 10.5448 16.4493, 10.6238 16.4831, 10.6925 16.5495, 10.7177 16.5987, 10.7303 16.6416, 10.7303 16.6777, 10.7303 16.7149, 10.7211 16.7487, 10.7016 16.7785, 10.6077 17.1941, 10.4709 17.6166, 10.2917 18.0472, 10.1125 18.4777, 9.89383 18.875, 9.6362 19.238, 9.37857 19.6015, 9.07342 19.8992, 8.72076 20.1311, 8.36866 20.3635, 7.96905 20.4792, 7.52249 20.4792, 7.01926 20.4792, 6.65457 20.3664, 6.42786 20.1403, 6.20171 19.9147, 6.0603 19.6181, 6.00305 19.2517, 5.97786 19.0868, 5.96527 18.9099, 5.96527 18.7204, 5.96527 18.5252, 5.97786 18.3237, 6.00305 18.1159, 6.05343 17.7008, 6.09752 17.3344, 6.1353 17.0166, 5.64523 17.1758, 5.10421 17.2548, 4.51281 17.2548, 3.68267 17.2548, 2.94471 17.0722, 2.30006 16.7058, 1.65541 16.3394, 1.1413 15.8447, 0.757718 15.2212, 0.336351 14.5319, 0.0941796 13.7682, 0.0312035 12.9312, 0.00601315 12.7303, -0.00658214 12.5287, -0.00658214 12.3266, -0.00658214 11.698, 0.0752869 11.0477, 0.238452 10.3755, 0.477761 9.4784, 0.84703 8.60704, 1.3474 7.76087, 1.84778 6.91528, 2.48727 6.1504, 3.26703 5.46568, 3.95919 4.84966, 4.71548 4.35329, 5.53646 3.97773, 6.35744 3.60216, 7.18586 3.41438, 8.02229 3.41381, 8.85243 3.41438, 9.58696 3.60388, 10.2253 3.98231, 10.8642 4.36131, 11.3749 4.86168, 11.7585 5.484, 12.1799 6.17445, 12.4283 6.9439, 12.5039 7.79236, 12.5165 8.00075, 12.5228 8.20514, 12.5228 8.40609, 12.5228 9.0599, 12.4352 9.72859, 12.2589 10.4122 Z M 10.3719 5.86873 C 10.1646 5.35633, 9.85318 4.92752, 9.43754 4.5823, 9.02247 4.23765, 8.50664 4.06475, 7.89004 4.06418, 7.28032 4.06475, 6.67346 4.24051, 6.06946 4.59146, 5.46604 4.94298, 4.92788 5.37751, 4.45613 5.89621, 3.85271 6.56261, 3.37924 7.2834, 3.03631 8.05858, 2.69337 8.83433, 2.418 9.61867, 2.21018 10.4122, 2.00293 11.1942, 1.88041 11.9671, 1.84262 12.7297, 1.83003 12.8402, 1.82373 12.9501, 1.82373 13.0595, 1.82373 13.6949, 1.93709 14.2875, 2.16323 14.8365, 2.30807 15.1789, 2.49071 15.4846, 2.71055 15.7531, 2.93097 16.0222, 3.13535 16.1957, 3.32371 16.2747, 3.31798 16.2632, 3.31455 16.1716, 3.31455 15.9999, 3.31455 15.8539, 3.33344 15.7044, 3.37065 15.551, 3.4279 15.338, 3.51893 15.1319, 3.64489 14.9333, 3.77084 14.7352, 3.91683 14.5577, 4.08343 14.402, 4.25003 14.2463, 4.4401 14.1215, 4.65422 14.0264, 4.86834 13.932, 5.09162 13.8844, 5.32406 13.8839, 5.65153 13.8844, 5.91718 13.9457, 6.12156 14.0676, 6.32595 14.1902, 6.48797 14.3459, 6.60705 14.5348, 6.72671 14.7243, 6.80857 14.9424, 6.85266 15.1898, 6.89674 15.4371, 6.92193 15.6403, 6.92766 15.7983, 7.0662 15.7073, 7.24082 15.5733, 7.4515 15.3959, 7.66219 15.219, 7.86543 15.0232, 8.06008 14.809, 8.66408 14.1564, 9.13583 13.4493, 9.47532 12.689, 9.81539 11.9287, 10.0856 11.1576, 10.2866 10.3755, 10.4944 9.5763, 10.6232 8.78509, 10.6736 8.00304, 10.6862 7.8874, 10.6925 7.76545, 10.6925 7.63664, 10.6925 7.01432, 10.586 6.42521, 10.3719 5.86873 Z M 6.22977 16.2105 C 6.24236 16.0709, 6.24866 15.918, 6.24866 15.7525 L 6.24866 15.5327 C 6.23606 15.3197, 6.19542 15.1365, 6.12614 14.9837, 6.05687 14.8314, 5.95153 14.7089, 5.81012 14.6172, 5.66871 14.5256, 5.47234 14.4798, 5.22043 14.4793, 4.95021 14.4798, 4.69659 14.5886, 4.46071 14.805, 4.22484 15.022, 4.06625 15.2831, 3.98438 15.5877, 3.95919 15.6918, 3.9466 15.7926, 3.9466 15.8899, 3.9466 16.0188, 3.96893 16.1378, 4.01244 16.2472, 4.08801 16.4373, 4.2111 16.5563, 4.38056 16.6044 L 4.62559 16.6044 C 5.18551 16.605, 5.72023 16.4739, 6.22977 16.2105 Z" stroke="none" fill="#000000" />
			<path d="M 0.127765 4.01788 C -0.00945425 3.81974, -0.188993 3.5716, -0.410852 3.27407, 0.684336 2.62805, 1.50861 1.9955, 2.06134 1.37609, 1.76574 0.931731, 1.52625 0.436074, 1.34286 -0.11152, 1.16332 -0.64116, 1.02257 -1.25159, 0.920301 -1.94282, 0.797189 -1.74084, 0.60675 -1.43819, 0.349624 -1.03486, 0.325258 -0.997032, 0.307624 -0.96946, 0.297044 -0.952788, 0.233564 -1.0448, 0.105002 -1.21248, -0.088644 -1.4555, -0.15533 -1.53725, -0.201177 -1.59528, -0.226184 -1.62991, 0.196695 -2.23136, 0.556094 -2.85718, 0.851692 -3.50737, 1.16172 -4.19443, 1.42397 -4.95875, 1.63878 -5.80034 L 2.46273 -5.68236 C 2.27614 -5.01518, 2.07897 -4.44066, 1.87122 -3.95879 L 5.25713 -3.95879, 5.25713 -3.20472, 4.47004 -3.20472 C 4.37515 -2.19898, 4.21837 -1.33367, 4.00004 -0.609099, 3.77113 0.140156, 3.45789 0.808618, 3.0597 1.39661, 3.59511 2.05353, 4.34341 2.62645, 5.30458 3.11505, 5.06188 3.45714, 4.88747 3.71875, 4.78167 3.8999, 3.81697 3.26381, 3.07381 2.64184, 2.5525 2.03269, 1.96804 2.71366, 1.15979 3.37506, 0.127765 4.01788 Z M -3.94489 3.95119 C -4.00452 3.88964, -4.12956 3.77005, -4.31999 3.59211, -4.429 3.48952, -4.50306 3.41963, -4.54185 3.3818, -4.24593 2.91371, -4.02408 2.48795, -3.87628 2.10451, -3.71405 1.69445, -3.59446 1.22412, -3.51688 0.693841, -3.44282 0.208445, -3.38479 -0.461621, -3.34279 -1.317, -3.33894 -1.46383, -3.33189 -1.68601, -3.32163 -1.98386, -3.29662 -2.57505, -3.28252 -3.01108, -3.27931 -3.29193 L -4.39918 -3.29193, -4.39918 -4.02547, -2.12256 -4.02547 C -2.30531 -4.66796, -2.46914 -5.20658, -2.61373 -5.64132 L -1.80036 -5.79008 C -1.58555 -5.13316, -1.41467 -4.5689, -1.28771 -4.09729 L -1.66827 -4.02547, 0.238694 -4.02547, 0.238694 -3.29193, -2.5028 -3.29193 C -2.50986 -2.77864, -2.52749 -2.2211, -2.5557 -1.61965 L -0.257603 -1.61965 C -0.285816 -0.234312, -0.333266 1.05164, -0.400272 2.23788, -0.417906 2.73417, -0.523705 3.0862, -0.717351 3.29459, -0.910997 3.50331, -1.23833 3.61776, -1.70001 3.63828, -1.8866 3.64854, -2.18572 3.65367, -2.59802 3.65367, -2.61886 3.43149, -2.67176 3.16475, -2.7564 2.85344, -2.74935 2.85376, -2.73685 2.85536, -2.71921 2.85857, -2.39155 2.87588, -2.14533 2.88454, -1.9799 2.88422, -1.69103 2.88454, -1.48777 2.83068, -1.36978 2.72295, -1.2518 2.61523, -1.18031 2.41774, -1.15562 2.13015, -1.08861 0.824007, -1.05527 -0.184618, -1.05527 -0.896362 L -2.59802 -0.896362 C -2.65413 -0.0307271, -2.72979 0.663384, -2.82501 1.18629, -2.91991 1.72683, -3.05553 2.21255, -3.23186 2.64312, -3.39377 3.02977, -3.63133 3.4658, -3.94489 3.95119 Z M 2.56308 0.70923 C 2.88016 0.220628, 3.13024 -0.342035, 3.3133 -0.978437, 3.48258 -1.57669, 3.61275 -2.31857, 3.70412 -3.20472 L 1.54901 -3.20472, 1.46437 -3.02005 C 1.55959 -2.21277, 1.69328 -1.5116, 1.86577 -0.916881, 2.04531 -0.297471, 2.27775 0.244352, 2.56308 0.70923 Z" stroke="none" fill="#000000" transform="matrix(1.12 0 0 1 18.9917 16.8316)" />
			<rect />
		</svg>
	</g>
	<g transform="matrix(1 0 -0 1 423.049 79.9561)">
		<svg width="155.956741" height="47.9999886">
			<defs />
			<path d="M 17.83 4.32066 C 17.7613 4.50444, 17.6416 4.59604, 17.4716 4.59547, 17.0943 4.59604, 16.7639 4.68764, 16.4811 4.87027, 16.3048 4.98706, 16.1508 5.12446, 16.0185 5.28305, 15.8869 5.44221, 15.7735 5.61568, 15.679 5.80461 L 9.39518 16.9983 C 9.31388 17.1758, 9.16904 17.2611, 8.96122 17.2548 L 8.81007 17.2548 C 8.59023 17.2548, 8.48031 17.1575, 8.48031 16.9617 L 8.0555 7.66412, 2.82849 17.0075 C 2.7346 17.1787, 2.58975 17.2611, 2.39453 17.2548 L 2.22449 17.2548 C 2.04873 17.2548, 1.93881 17.1603, 1.89473 16.9708 L 1.35657 5.24584 C 1.34397 5.08153, 1.33023 4.95958, 1.3142 4.88, 1.29874 4.801, 1.26554 4.7426, 1.21516 4.70539, 1.13959 4.6573, 1.01879 4.62695, 0.852187 4.61436, 0.685587 4.60234, 0.485781 4.59604, 0.252769 4.59547, 0.0959016 4.59604, 0.0105976 4.5136, -0.00199759 4.34814 L -0.00199759 4.28402, 0.0357881 4.11914 C 0.105062 3.93651, 0.227579 3.84491, 0.403912 3.84433, 0.995314 3.88155, 1.59588 3.89987, 2.2056 3.89929, 2.30064 3.89987, 2.39796 3.89357, 2.49815 3.88097, 3.20291 3.88155, 3.91683 3.86952, 4.63991 3.84433, 4.80365 3.84491, 4.88552 3.92735, 4.88552 4.09166 L 4.88552 4.15578, 4.84773 4.32066 C 4.77903 4.50444, 4.65594 4.59604, 4.47961 4.59547, 4.24717 4.59604, 4.03935 4.6052, 3.85729 4.62352, 3.67523 4.64184, 3.4989 4.6905, 3.32886 4.76951, 3.17772 4.84966, 3.10559 4.96531, 3.11188 5.11759 L 3.53611 14.2594, 7.97993 6.29925, 7.94215 5.24584 C 7.92955 5.08153, 7.91581 4.95958, 7.89978 4.88, 7.88432 4.801, 7.84826 4.7426, 7.79158 4.70539, 7.71601 4.6573, 7.59349 4.62695, 7.42345 4.61436, 7.25399 4.60234, 7.05876 4.59604, 6.83835 4.59547, 6.74446 4.59604, 6.67518 4.56569, 6.6311 4.50386, 6.59331 4.4678, 6.57442 4.422, 6.57442 4.36646, 6.57442 4.33039, 6.58415 4.29662, 6.60247 4.2657 L 6.6311 4.1283 C 6.66889 3.93937, 6.7914 3.84491, 6.99865 3.84433, 7.59005 3.88155, 8.18775 3.89987, 8.79118 3.89929, 8.87362 3.89987, 8.96809 3.89357, 9.07457 3.88097, 9.77933 3.88155, 10.4898 3.86952, 11.2066 3.84433, 11.2948 3.84491, 11.3703 3.87525, 11.4333 3.93593, 11.4585 3.98517, 11.4711 4.03097, 11.4711 4.07334, 11.4711 4.11055, 11.4619 4.14433, 11.4425 4.1741 L 11.4144 4.3115 C 11.3955 4.39165, 11.3532 4.45864, 11.2867 4.5136, 11.2209 4.56856, 11.1442 4.59604, 11.056 4.59547, 10.8362 4.59604, 10.6301 4.6052, 10.4383 4.62352, 10.2465 4.64184, 10.0684 4.6905, 9.90471 4.76951, 9.76674 4.84966, 9.69746 4.9716, 9.69746 5.13591 L 10.1028 14.2594, 14.9714 5.60308 C 15.0407 5.48171, 15.075 5.37179, 15.075 5.27332, 15.075 5.15767, 15.0281 5.04489, 14.9336 4.93439, 14.8455 4.80672, 14.7212 4.71856, 14.5609 4.66932, 14.4006 4.62066, 14.2169 4.59604, 14.009 4.59547, 13.9151 4.59604, 13.8459 4.56569, 13.8012 4.50386, 13.7634 4.4678, 13.7445 4.422, 13.7445 4.36646, 13.7445 4.33039, 13.7543 4.29662, 13.7732 4.2657 L 13.8012 4.1283 C 13.8207 4.04929, 13.863 3.98231, 13.9289 3.92735, 13.9953 3.87239, 14.072 3.84491, 14.1602 3.84433, 14.4808 3.85693, 14.8048 3.86323, 15.1317 3.86265, 15.4529 3.86323, 15.7735 3.86952, 16.0941 3.88097 L 16.8487 3.88097 C 17.1069 3.88155, 17.3651 3.86952, 17.6227 3.84433, 17.7865 3.84491, 17.8677 3.92735, 17.8677 4.09166 L 17.8677 4.15578 Z" stroke="none" fill="#000000" />
			<polyline points="-5.2528 6.04072 0 -6.04072" fill="none" stroke="#000000" stroke-width="0.750400007" stroke-linecap="round" stroke-linejoin="round" transform="matrix(-4.37114e-008 -1 1 -4.37114e-008 29.8761 11.2074)" />
			<polyline points="0 -6.04072 5.2528 6.04072" fill="none" stroke="#000000" stroke-width="0.750400007" stroke-linecap="round" stroke-linejoin="round" transform="matrix(-4.37114e-008 -1 1 -4.37114e-008 29.8761 11.2074)" />
			<ellipse cx="-5.252799779176712" cy="6.0407201945781708" rx="0.37520000338554382" ry="0.37520000338554382" stroke="none" fill="#000000" transform="matrix(-4.37114e-008 -1 1 -4.37114e-008 29.8761 11.2074)" />
			<ellipse cx="-0" cy="-6.0407197773456573" rx="0.37520000338554382" ry="0.37520000338554382" stroke="none" fill="#000000" transform="matrix(-4.37114e-008 -1 1 -4.37114e-008 29.8761 11.2074)" />
			<ellipse cx="5.2528001964092255" cy="6.0407201945781708" rx="0.37520000338554382" ry="0.37520000338554382" stroke="none" fill="#000000" transform="matrix(-4.37114e-008 -1 1 -4.37114e-008 29.8761 11.2074)" />
			<path d="M 50.5026 10.519 C 50.5026 11.3813, 50.4426 12.2386, 50.3225 13.0914, 50.2025 13.9442, 49.9051 14.7449, 49.4305 15.4922, 49.0916 16.0376, 48.6382 16.4561, 48.071 16.749, 47.5043 17.0424, 46.8877 17.1888, 46.2217 17.1888, 45.581 17.1888, 44.9751 17.0424, 44.405 16.749, 43.835 16.4561, 43.38 16.0376, 43.0411 15.4922, 42.5664 14.7449, 42.2691 13.9442, 42.149 13.0914, 42.0289 12.2386, 41.9684 11.3813, 41.9684 10.519, 41.9684 9.64596, 42.0289 8.77352, 42.149 7.90275, 42.2691 7.03199, 42.5664 6.21677, 43.0411 5.45597, 43.38 4.90613, 43.8333 4.47804, 44.4006 4.17283, 44.9678 3.86761, 45.5748 3.715, 46.2217 3.71444, 46.8816 3.715, 47.4965 3.86761, 48.0665 4.17283, 48.6366 4.47804, 49.0916 4.90613, 49.4305 5.45597, 49.9051 6.21677, 50.2025 7.03199, 50.3225 7.90275, 50.4426 8.77352, 50.5026 9.64596, 50.5026 10.519 Z M 48.6719 10.2048 C 48.6719 9.82831, 48.6691 9.43052, 48.6629 9.0114, 48.6567 8.59285, 48.641 8.18272, 48.6164 7.78156, 48.5917 7.38097, 48.5473 7.00225, 48.4823 6.64598, 48.4177 6.29027, 48.3392 5.98617, 48.2466 5.73426, 48.062 5.32805, 47.791 4.99422, 47.4331 4.73389, 47.0757 4.47355, 46.6717 4.34339, 46.2217 4.34283, 45.7841 4.34339, 45.3886 4.47524, 45.034 4.73837, 44.6794 5.00207, 44.4095 5.33366, 44.2244 5.73426, 44.1324 5.98617, 44.0538 6.29027, 43.9887 6.64598, 43.9242 7.00225, 43.8793 7.38097, 43.8546 7.78156, 43.83 8.18272, 43.8148 8.59285, 43.8086 9.0114, 43.8025 9.43052, 43.7991 9.82831, 43.7991 10.2048, 43.7991 10.6245, 43.8025 11.066, 43.8086 11.5294, 43.8148 11.9934, 43.83 12.4423, 43.8546 12.876, 43.8793 13.3102, 43.9242 13.7215, 43.9887 14.1103, 44.0538 14.4997, 44.1324 14.8257, 44.2244 15.0882, 44.3972 15.5259, 44.6642 15.8849, 45.0244 16.166, 45.3852 16.4477, 45.7841 16.588, 46.2217 16.5874, 46.6785 16.588, 47.0869 16.4477, 47.4471 16.166, 47.8079 15.8849, 48.0744 15.5259, 48.2466 15.0882, 48.3392 14.8257, 48.4177 14.4997, 48.4823 14.1103, 48.5473 13.7215, 48.5917 13.3102, 48.6164 12.876, 48.641 12.4423, 48.6567 11.9934, 48.6629 11.5294, 48.6691 11.066, 48.6719 10.6245, 48.6719 10.2048 Z" stroke="none" fill="#000000" />
			<rect />
		</svg>
	</g>
	<path d="M 0 44.0218 L 0 -44.0215" fill="none" stroke="#000000" stroke-width="1.60000014" stroke-linecap="round" stroke-linejoin="round" stroke-dasharray="5.608, 3.992" transform="matrix(0.833333 0 0 0.833333 312.829 127.848)" />
	<path d="M 0 44.0218 L 0 -44.0215" fill="none" stroke="#000000" stroke-width="1.60000014" stroke-linecap="round" stroke-linejoin="round" stroke-dasharray="5.608, 3.992" transform="matrix(0.833333 0 0 0.833333 411.281 127.848)" />
	<path d="M 41.3045 -26.0493 C 42.2572 -25.4745, 43.1774 -24.8803, 44.0637 -24.268 L 50.5419 -18.8608" fill="none" stroke="#000000" stroke-width="0.960000038" stroke-linecap="round" stroke-linejoin="round" marker-end="url(#CustomMarker-12)" transform="matrix(0.833333 0 0 -0.833333 362.055 91.1634)" />
</svg>
