<svg width="1684" height="659" xmlns="http://www.w3.org/2000/svg" xmlns:xlink="http://www.w3.org/1999/xlink" xml:space="preserve" overflow="hidden"><defs><clipPath id="clip0"><rect x="1900" y="1150" width="1684" height="659"/></clipPath></defs><g clip-path="url(#clip0)" transform="translate(-1900 -1150)"><path d="M2.39253e-06-3.4375 511.71-3.43714 511.71 3.43786-2.39253e-06 3.4375ZM485.943-19.0106 518.533 0.000359921 485.943 19.0112C484.303 19.9678 482.198 19.4139 481.241 17.7741 480.285 16.1342 480.839 14.0294 482.479 13.0728L509.979-2.96888 509.979 2.9696 482.479-13.0721C480.839-14.0287 480.285-16.1335 481.241-17.7734 482.198-19.4133 484.303-19.9672 485.943-19.0106Z" transform="matrix(6.12323e-17 1 1 -6.12323e-17 1956.5 1186.5)"/><path d="M3.4375-3.18742e-06 3.43785 382.401-3.43715 382.401-3.4375 3.18742e-06ZM19.0112 356.634 0.000360701 389.224-19.0106 356.634C-19.9672 354.994-19.4133 352.889-17.7734 351.933-16.1335 350.976-14.0287 351.53-13.0721 353.17L2.96959 380.67-2.96889 380.67 13.0728 353.17C14.0293 351.53 16.1342 350.976 17.7741 351.933 19.4139 352.889 19.9678 354.994 19.0112 356.634Z" transform="matrix(6.12323e-17 1 1 -6.12323e-17 1957.5 1185.5)"/><path d="M2.07685-2.73918 507.559 380.519 503.406 385.998-2.07685 2.73918ZM496.439 352.545 510.923 387.384 473.468 382.842C471.583 382.614 470.24 380.901 470.469 379.016 470.697 377.131 472.41 375.789 474.295 376.017L505.9 379.849 502.313 384.581 490.091 355.184C489.362 353.431 490.193 351.419 491.946 350.69 493.699 349.961 495.711 350.792 496.439 352.545Z" transform="matrix(6.12323e-17 1 1 -6.12323e-17 1957.5 1186.5)"/><path d="M0 0 0.000360892 387.93" stroke="#000000" stroke-width="4.58333" stroke-miterlimit="8" stroke-dasharray="18.3333 13.75" stroke-opacity="0.501961" fill="none" fill-rule="evenodd" transform="matrix(6.12323e-17 1 1 -6.12323e-17 1956.5 1697.5)"/><path d="M0 0 512.078 0.000360892" stroke="#000000" stroke-width="4.58333" stroke-miterlimit="8" stroke-dasharray="18.3333 13.75" stroke-opacity="0.501961" fill="none" fill-rule="evenodd" transform="matrix(6.12323e-17 1 1 -6.12323e-17 2344.5 1185.5)"/><path d="M2421.17 1791.01 2421.17 1802.01 2447.77 1802.01 2447.77 1791.01ZM2416.6 1786.89 2452.23 1786.89 2452.23 1809 2447.77 1809 2447.77 1806.14 2421.17 1806.14 2421.17 1808.95 2416.6 1808.95ZM2481.8 1772.04 2534.34 1772.04C2534.39 1772.09 2534.52 1772.19 2534.71 1772.32 2534.9 1772.46 2535.04 1772.57 2535.12 1772.65 2535.2 1772.74 2535.29 1772.87 2535.37 1773.07 2535.45 1773.26 2535.49 1773.47 2535.49 1773.69 2535.49 1774.4 2535.08 1774.95 2534.25 1775.34L2481.64 1775.34C2480.87 1774.95 2480.48 1774.4 2480.48 1773.69 2480.48 1772.86 2480.92 1772.31 2481.8 1772.04ZM1996.31 1772.04 2048.85 1772.04C2048.9 1772.09 2049.02 1772.19 2049.22 1772.32 2049.41 1772.46 2049.55 1772.57 2049.63 1772.65 2049.71 1772.74 2049.79 1772.87 2049.88 1773.07 2049.96 1773.26 2050 1773.47 2050 1773.69 2050 1774.4 2049.59 1774.95 2048.76 1775.34L1996.15 1775.34C1995.38 1774.95 1994.99 1774.4 1994.99 1773.69 1994.99 1772.86 1995.43 1772.31 1996.31 1772.04ZM1962.01 1766.86C1965.16 1766.86 1967.78 1767.72 1969.85 1769.42 1971.93 1771.13 1973.2 1773.36 1973.68 1776.11 1973.75 1776.77 1973.79 1777.37 1973.79 1777.92 1973.79 1780.05 1973.15 1782.05 1971.86 1783.92 1970.83 1785.46 1968.76 1787.57 1965.64 1790.24 1964.32 1791.38 1962.48 1793.07 1960.13 1795.3L1956.88 1798.38 1961.07 1798.44C1966.83 1798.44 1969.9 1798.35 1970.27 1798.16 1970.41 1798.13 1970.6 1797.74 1970.82 1797.01 1970.96 1796.61 1971.22 1795.36 1971.59 1793.27L1971.59 1793.1 1973.79 1793.1 1973.79 1793.27 1972.25 1803.33 1972.25 1803.5 1951.82 1803.5 1951.82 1802.45C1951.82 1801.72 1951.85 1801.3 1951.93 1801.19 1951.96 1801.15 1953.51 1799.41 1956.55 1795.96 1960.56 1791.53 1963.12 1788.59 1964.26 1787.16 1966.72 1783.83 1967.95 1780.76 1967.95 1777.98 1967.95 1775.56 1967.32 1773.53 1966.05 1771.9 1964.79 1770.27 1963.01 1769.45 1960.74 1769.45 1958.61 1769.45 1956.88 1770.4 1955.56 1772.31 1955.49 1772.46 1955.38 1772.66 1955.23 1772.92 1955.12 1773.1 1955.07 1773.21 1955.07 1773.25 1955.07 1773.28 1955.16 1773.3 1955.34 1773.3 1956.26 1773.3 1957 1773.63 1957.57 1774.29 1958.14 1774.95 1958.43 1775.72 1958.43 1776.6 1958.43 1777.52 1958.12 1778.3 1957.52 1778.94 1956.91 1779.58 1956.11 1779.9 1955.12 1779.9 1954.09 1779.9 1953.29 1779.57 1952.7 1778.91 1952.11 1778.25 1951.82 1777.44 1951.82 1776.49 1951.82 1773.85 1952.82 1771.59 1954.82 1769.7 1956.82 1767.81 1959.21 1766.86 1962.01 1766.86ZM2434.56 1764C2431.44 1768.26 2427.2 1772.31 2421.84 1776.16L2447.22 1776.16C2442.05 1772.49 2437.82 1768.44 2434.56 1764ZM2432.46 1759.27 2436.59 1759.27C2439.09 1763.12 2442.36 1766.64 2446.4 1769.83 2450.43 1773.03 2455.06 1775.79 2460.27 1778.14L2458.01 1782.49C2454.49 1780.76 2451.24 1778.89 2448.27 1776.88L2448.27 1780.34 2420.57 1780.34 2420.57 1777.04C2417.63 1779.06 2414.4 1780.93 2410.88 1782.65L2408.84 1778.2C2413.87 1775.89 2418.49 1773.04 2422.72 1769.67 2426.94 1766.3 2430.19 1762.83 2432.46 1759.27ZM2481.64 1756.03 2534.25 1756.03C2535.08 1756.41 2535.49 1756.96 2535.49 1757.68 2535.49 1758.28 2535.11 1758.81 2534.34 1759.25L2508.07 1759.33 2481.8 1759.33C2480.92 1759.05 2480.48 1758.5 2480.48 1757.68 2480.48 1756.96 2480.87 1756.41 2481.64 1756.03ZM1996.15 1756.03 2048.76 1756.03C2049.59 1756.41 2050 1756.96 2050 1757.68 2050 1758.28 2049.62 1758.81 2048.85 1759.25L2022.58 1759.33 1996.31 1759.33C1995.43 1759.05 1994.99 1758.5 1994.99 1757.68 1994.99 1756.96 1995.38 1756.41 1996.15 1756.03ZM2100.61 1741.34 2082.52 1768.82 2091.52 1768.9 2100.61 1768.9ZM2570.32 1731.36 2571.81 1731.85C2575.39 1733.28 2579.05 1734 2582.8 1734 2586.7 1734 2590.45 1733.23 2594.03 1731.69 2594.47 1731.47 2594.83 1731.36 2595.1 1731.36 2595.54 1731.36 2595.76 1731.85 2595.76 1732.84L2595.76 1733.91C2591.3 1739.25 2585.66 1741.92 2578.83 1741.92 2577.12 1741.92 2575.58 1741.75 2574.21 1741.42L2573.38 1741.26 2573.38 1755.45C2576.52 1752.92 2579.74 1751.65 2583.04 1751.65 2584.09 1751.65 2585.22 1751.79 2586.43 1752.07 2590.12 1753 2593.13 1755.09 2595.47 1758.34 2597.81 1761.58 2598.98 1765.38 2598.98 1769.72 2598.98 1774.73 2597.24 1779.05 2593.74 1782.68 2590.24 1786.31 2585.93 1788.12 2580.81 1788.12 2577.34 1788.12 2574.4 1787.16 2571.97 1785.24 2570.93 1784.58 2570.02 1783.67 2569.25 1782.51 2567.6 1780.53 2566.55 1778.09 2566.11 1775.17 2566.11 1775.01 2566.1 1774.74 2566.07 1774.39 2566.04 1774.03 2566.03 1773.77 2566.03 1773.6 2566.03 1772.06 2566.47 1770.85 2567.35 1769.97 2568.23 1769.09 2569.36 1768.65 2570.74 1768.65 2572.06 1768.65 2573.17 1769.11 2574.08 1770.01 2574.99 1770.92 2575.44 1772.06 2575.44 1773.44 2575.44 1774.7 2574.98 1775.78 2574.04 1776.66 2573.1 1777.54 2572.06 1777.98 2570.9 1777.98L2570.32 1777.98 2570.57 1778.39C2571.4 1780.15 2572.66 1781.61 2574.37 1782.76 2576.08 1783.92 2578.09 1784.49 2580.4 1784.49 2584.31 1784.49 2587.12 1782.84 2588.83 1779.54 2589.87 1777.51 2590.39 1773.99 2590.39 1768.98 2590.39 1763.32 2589.65 1759.49 2588.16 1757.51 2586.73 1755.7 2584.97 1754.79 2582.88 1754.79 2578.58 1754.79 2575.33 1756.66 2573.13 1760.4 2572.91 1760.79 2572.7 1761.02 2572.51 1761.1 2572.32 1761.19 2571.92 1761.23 2571.31 1761.23 2570.38 1761.23 2569.85 1761.06 2569.74 1760.73 2569.63 1760.51 2569.58 1755.7 2569.58 1746.29 2569.58 1744.64 2569.57 1742.69 2569.54 1740.43 2569.51 1738.18 2569.5 1736.75 2569.5 1736.14 2569.5 1733.06 2569.66 1731.52 2569.99 1731.52 2570.1 1731.41 2570.21 1731.36 2570.32 1731.36ZM2105.73 1730.45 2107.22 1730.45 2107.71 1730.94 2107.71 1768.9 2115.31 1768.9 2115.31 1772.7 2107.71 1772.7 2107.71 1776.9C2107.71 1779.16 2107.73 1780.48 2107.75 1780.86 2107.78 1781.25 2107.93 1781.58 2108.21 1781.85 2108.65 1782.24 2110.22 1782.46 2112.92 1782.51L2115.31 1782.51 2115.31 1786.31 2114.57 1786.31C2113.8 1786.14 2110.24 1786.06 2103.91 1786.06 2097.3 1786.06 2093.61 1786.14 2092.84 1786.31L2092.1 1786.31 2092.1 1782.51 2094.66 1782.51C2097.03 1782.46 2098.49 1782.32 2099.04 1782.1 2099.48 1781.99 2099.81 1781.72 2100.03 1781.28 2100.08 1781.17 2100.11 1779.68 2100.11 1776.82L2100.11 1772.7 2078.72 1772.7 2078.72 1768.9 2091.19 1749.84C2099.62 1737.08 2103.88 1730.67 2103.99 1730.61 2104.1 1730.5 2104.68 1730.45 2105.73 1730.45ZM2372.17 1730.2 2416.69 1730.2C2417.07 1730.59 2417.27 1730.89 2417.27 1731.11 2417.27 1731.38 2416.91 1734.48 2416.19 1740.39 2415.48 1746.31 2415.09 1749.32 2415.03 1749.43 2414.92 1749.81 2414.37 1750 2413.38 1750L2412.39 1750C2412.01 1749.67 2411.81 1749.4 2411.81 1749.18 2411.81 1749.07 2411.83 1748.95 2411.85 1748.81 2411.88 1748.67 2411.91 1748.46 2411.94 1748.19 2411.96 1747.91 2411.98 1747.64 2411.98 1747.36 2412.2 1745.77 2412.31 1744.17 2412.31 1742.58 2412.31 1738.62 2411.04 1736.12 2408.51 1735.07 2407.35 1734.57 2406 1734.27 2404.46 1734.16 2402.92 1734.05 2399.78 1734 2395.05 1734 2390.64 1734.05 2388.33 1734.11 2388.11 1734.16 2387.67 1734.33 2387.39 1734.57 2387.28 1734.9 2387.23 1734.96 2386.29 1738.56 2384.47 1745.71L2381.83 1756.36 2386.37 1756.36C2389.68 1756.3 2391.49 1756.25 2391.82 1756.19 2393.64 1755.86 2394.96 1755.29 2395.79 1754.46 2396.95 1753.47 2397.91 1751.49 2398.68 1748.52 2398.74 1748.35 2398.79 1748.16 2398.85 1747.94 2398.9 1747.72 2398.93 1747.57 2398.93 1747.49 2398.93 1747.41 2398.96 1747.3 2399.01 1747.16 2399.07 1747.02 2399.13 1746.94 2399.22 1746.91 2399.3 1746.88 2399.41 1746.84 2399.55 1746.79 2399.69 1746.73 2399.84 1746.7 2400 1746.7 2400.17 1746.7 2400.39 1746.7 2400.66 1746.7L2401.65 1746.7C2402.04 1746.98 2402.23 1747.25 2402.23 1747.53 2402.23 1747.69 2401.36 1751.3 2399.63 1758.34 2397.9 1765.38 2396.97 1769.01 2396.86 1769.23 2396.75 1769.61 2396.2 1769.81 2395.21 1769.81L2394.22 1769.81C2393.89 1769.53 2393.7 1769.3 2393.64 1769.11 2393.59 1768.91 2393.67 1768.43 2393.89 1767.66 2394.27 1766.12 2394.47 1764.8 2394.47 1763.7 2394.47 1762.05 2393.78 1761.03 2392.4 1760.65 2391.41 1760.32 2389.1 1760.15 2385.46 1760.15L2380.92 1760.15 2378.28 1770.63C2376.52 1777.45 2375.63 1781.03 2375.63 1781.36 2375.63 1781.69 2375.8 1781.91 2376.13 1782.02 2376.79 1782.35 2379.08 1782.51 2382.99 1782.51L2385.05 1782.51C2385.38 1782.84 2385.56 1783.08 2385.59 1783.22 2385.62 1783.35 2385.55 1783.86 2385.38 1784.74 2385.16 1785.46 2384.89 1785.98 2384.56 1786.31L2383.15 1786.31C2380.89 1786.2 2376.74 1786.14 2370.68 1786.14 2369.14 1786.14 2367.14 1786.16 2364.69 1786.19 2362.24 1786.21 2360.46 1786.23 2359.36 1786.23 2358.7 1786.23 2358.29 1786.09 2358.12 1785.81 2358.01 1785.59 2357.96 1785.46 2357.96 1785.4 2357.96 1785.29 2358.04 1784.91 2358.21 1784.25 2358.43 1783.37 2358.65 1782.86 2358.87 1782.72 2359.09 1782.58 2359.72 1782.51 2360.77 1782.51 2362.25 1782.51 2363.91 1782.43 2365.72 1782.27 2366.49 1782.1 2367.02 1781.77 2367.29 1781.28 2367.4 1781 2369.37 1773.27 2373.2 1758.09 2377.02 1742.91 2378.94 1735.21 2378.94 1734.99 2378.94 1734.6 2378.83 1734.41 2378.61 1734.41 2378.17 1734.25 2376.71 1734.11 2374.23 1734L2371.67 1734C2371.34 1733.67 2371.16 1733.43 2371.13 1733.3 2371.11 1733.16 2371.17 1732.7 2371.34 1731.93 2371.56 1730.94 2371.83 1730.37 2372.17 1730.2ZM1914.21 1730.2 1958.73 1730.2C1959.11 1730.59 1959.31 1730.89 1959.31 1731.11 1959.31 1731.38 1958.95 1734.48 1958.23 1740.39 1957.52 1746.31 1957.13 1749.32 1957.08 1749.43 1956.97 1749.81 1956.42 1750 1955.42 1750L1954.43 1750C1954.05 1749.67 1953.86 1749.4 1953.86 1749.18 1953.86 1749.07 1953.87 1748.95 1953.9 1748.81 1953.92 1748.67 1953.95 1748.46 1953.98 1748.19 1954.01 1747.91 1954.02 1747.64 1954.02 1747.36 1954.24 1745.77 1954.35 1744.17 1954.35 1742.58 1954.35 1738.62 1953.08 1736.12 1950.55 1735.07 1949.39 1734.57 1948.05 1734.27 1946.5 1734.16 1944.96 1734.05 1941.82 1734 1937.09 1734 1932.68 1734.05 1930.37 1734.11 1930.15 1734.16 1929.71 1734.33 1929.43 1734.57 1929.32 1734.9 1929.27 1734.96 1928.33 1738.56 1926.51 1745.71L1923.87 1756.36 1928.41 1756.36C1931.72 1756.3 1933.54 1756.25 1933.87 1756.19 1935.68 1755.86 1937 1755.29 1937.83 1754.46 1938.99 1753.47 1939.95 1751.49 1940.72 1748.52 1940.78 1748.35 1940.83 1748.16 1940.89 1747.94 1940.94 1747.72 1940.97 1747.57 1940.97 1747.49 1940.97 1747.41 1941 1747.3 1941.05 1747.16 1941.11 1747.02 1941.18 1746.94 1941.26 1746.91 1941.34 1746.88 1941.45 1746.84 1941.59 1746.79 1941.73 1746.73 1941.88 1746.7 1942.04 1746.7 1942.21 1746.7 1942.43 1746.7 1942.7 1746.7L1943.7 1746.7C1944.08 1746.98 1944.27 1747.25 1944.27 1747.53 1944.27 1747.69 1943.41 1751.3 1941.67 1758.34 1939.94 1765.38 1939.01 1769.01 1938.9 1769.23 1938.79 1769.61 1938.24 1769.81 1937.25 1769.81L1936.26 1769.81C1935.93 1769.53 1935.74 1769.3 1935.68 1769.11 1935.63 1768.91 1935.71 1768.43 1935.93 1767.66 1936.32 1766.12 1936.51 1764.8 1936.51 1763.7 1936.51 1762.05 1935.82 1761.03 1934.44 1760.65 1933.45 1760.32 1931.14 1760.15 1927.51 1760.15L1922.96 1760.15 1920.32 1770.63C1918.56 1777.45 1917.68 1781.03 1917.68 1781.36 1917.68 1781.69 1917.84 1781.91 1918.17 1782.02 1918.83 1782.35 1921.12 1782.51 1925.03 1782.51L1927.09 1782.51C1927.42 1782.84 1927.6 1783.08 1927.63 1783.22 1927.66 1783.35 1927.59 1783.86 1927.42 1784.74 1927.2 1785.46 1926.93 1785.98 1926.6 1786.31L1925.19 1786.31C1922.94 1786.2 1918.78 1786.14 1912.72 1786.14 1911.18 1786.14 1909.18 1786.16 1906.73 1786.19 1904.28 1786.21 1902.51 1786.23 1901.4 1786.23 1900.74 1786.23 1900.33 1786.09 1900.17 1785.81 1900.06 1785.59 1900 1785.46 1900 1785.4 1900 1785.29 1900.08 1784.91 1900.25 1784.25 1900.47 1783.37 1900.69 1782.86 1900.91 1782.72 1901.13 1782.58 1901.76 1782.51 1902.81 1782.51 1904.3 1782.51 1905.95 1782.43 1907.76 1782.27 1908.54 1782.1 1909.06 1781.77 1909.33 1781.28 1909.44 1781 1911.41 1773.27 1915.24 1758.09 1919.07 1742.91 1920.98 1735.21 1920.98 1734.99 1920.98 1734.6 1920.87 1734.41 1920.65 1734.41 1920.21 1734.25 1918.75 1734.11 1916.27 1734L1913.71 1734C1913.38 1733.67 1913.2 1733.43 1913.17 1733.3 1913.15 1733.16 1913.22 1732.7 1913.38 1731.93 1913.6 1730.94 1913.88 1730.37 1914.21 1730.2ZM2605.26 1729.95 2622.36 1729.95 2622.61 1730.2C2622.72 1730.26 2625.13 1733.74 2629.84 1740.64 2634.54 1747.54 2639.24 1754.43 2643.92 1761.31L2650.94 1771.62 2650.94 1736.97C2649.89 1734.99 2647.53 1733.91 2643.84 1733.75L2642.43 1733.75 2642.43 1729.95 2643.09 1729.95C2644.08 1730.12 2647.31 1730.2 2652.76 1730.2 2658.37 1730.2 2661.54 1730.12 2662.26 1729.95L2663 1729.95 2663 1733.75 2661.6 1733.75C2657.58 1733.97 2655.24 1735.04 2654.57 1736.97L2654.49 1761.39 2654.49 1785.81C2654.33 1785.92 2654.13 1786.09 2653.91 1786.31L2652.76 1786.31C2651.93 1786.31 2651.44 1786.23 2651.27 1786.06 2650.94 1785.73 2645.27 1777.48 2634.26 1761.31 2623.24 1745.14 2617.6 1736.83 2617.32 1736.39L2617.32 1757.84 2617.4 1779.21C2618.07 1781.19 2620.41 1782.29 2624.43 1782.51L2625.83 1782.51 2625.83 1786.31 2625.09 1786.31C2624.37 1786.14 2621.2 1786.06 2615.59 1786.06 2609.86 1786.06 2606.64 1786.14 2605.92 1786.31L2605.26 1786.31 2605.26 1782.51 2606.67 1782.51C2610.41 1782.29 2612.7 1781.36 2613.52 1779.71L2613.77 1779.21 2613.77 1734 2613.44 1734C2612.89 1733.83 2610.91 1733.75 2607.49 1733.75L2605.26 1733.75ZM2119.77 1729.95 2136.87 1729.95 2137.12 1730.2C2137.23 1730.26 2139.64 1733.74 2144.34 1740.64 2149.05 1747.54 2153.75 1754.43 2158.43 1761.31L2165.45 1771.62 2165.45 1736.97C2164.4 1734.99 2162.03 1733.91 2158.35 1733.75L2156.94 1733.75 2156.94 1729.95 2157.6 1729.95C2158.59 1730.12 2161.81 1730.2 2167.27 1730.2 2172.88 1730.2 2176.05 1730.12 2176.77 1729.95L2177.51 1729.95 2177.51 1733.75 2176.1 1733.75C2172.08 1733.97 2169.74 1735.04 2169.08 1736.97L2169 1761.39 2169 1785.81C2168.84 1785.92 2168.64 1786.09 2168.42 1786.31L2167.27 1786.31C2166.44 1786.31 2165.94 1786.23 2165.78 1786.06 2165.45 1785.73 2159.78 1777.48 2148.76 1761.31 2137.75 1745.14 2132.11 1736.83 2131.83 1736.39L2131.83 1757.84 2131.91 1779.21C2132.57 1781.19 2134.91 1782.29 2138.93 1782.51L2140.34 1782.51 2140.34 1786.31 2139.6 1786.31C2138.88 1786.14 2135.71 1786.06 2130.1 1786.06 2124.37 1786.06 2121.15 1786.14 2120.43 1786.31L2119.77 1786.31 2119.77 1782.51 2121.18 1782.51C2124.92 1782.29 2127.21 1781.36 2128.03 1779.71L2128.28 1779.21 2128.28 1734 2127.95 1734C2127.4 1733.83 2125.42 1733.75 2122 1733.75L2119.77 1733.75ZM2468.17 1218.08 2520.7 1218.08C2520.76 1218.14 2520.88 1218.23 2521.08 1218.37 2521.27 1218.51 2521.41 1218.62 2521.49 1218.7 2521.57 1218.78 2521.65 1218.92 2521.74 1219.11 2521.82 1219.3 2521.86 1219.51 2521.86 1219.73 2521.86 1220.45 2521.45 1221 2520.62 1221.38L2468.01 1221.38C2467.23 1221 2466.85 1220.45 2466.85 1219.73 2466.85 1218.91 2467.29 1218.36 2468.17 1218.08ZM2436.62 1212.91C2436.98 1212.91 2437.3 1213.02 2437.55 1213.24L2437.55 1229.69 2437.61 1246.19C2438.16 1246.74 2439.35 1247.01 2441.19 1247.01L2443.01 1247.01 2444.44 1247.01 2444.44 1249.55 2443.83 1249.55C2443.21 1249.44 2440.29 1249.38 2435.08 1249.38 2429.94 1249.38 2427.05 1249.44 2426.43 1249.55L2425.77 1249.55 2425.77 1247.01 2427.2 1247.01C2429.33 1247.01 2430.71 1246.96 2431.33 1246.85 2431.62 1246.81 2432.07 1246.59 2432.65 1246.19L2432.65 1217.75C2432.58 1217.75 2432.43 1217.81 2432.21 1217.92 2430.52 1218.58 2428.63 1218.92 2426.54 1218.96L2425.49 1218.96 2425.49 1216.43 2426.54 1216.43C2429.62 1216.32 2432.19 1215.62 2434.25 1214.34 2434.91 1213.97 2435.48 1213.55 2435.96 1213.08 2436.03 1212.97 2436.25 1212.91 2436.62 1212.91ZM2468.01 1202.07 2520.62 1202.07C2521.45 1202.46 2521.86 1203.01 2521.86 1203.72 2521.86 1204.33 2521.48 1204.85 2520.7 1205.29L2494.44 1205.37 2468.17 1205.37C2467.29 1205.1 2466.85 1204.55 2466.85 1203.72 2466.85 1203.01 2467.23 1202.46 2468.01 1202.07ZM2566.27 1177.49 2567.51 1177.49C2569.44 1177.49 2570.65 1177.51 2571.15 1177.57 2572.96 1177.84 2574.81 1178.42 2576.68 1179.3 2580.31 1181.12 2582.6 1183.7 2583.54 1187.06 2583.7 1187.61 2583.78 1188.35 2583.78 1189.28 2583.78 1192.53 2582.78 1195.43 2580.77 1197.99 2578.76 1200.55 2576.24 1202.38 2573.21 1203.48 2572.94 1203.59 2572.94 1203.67 2573.21 1203.72 2573.32 1203.78 2573.6 1203.86 2574.04 1203.97 2577.4 1204.91 2580.23 1206.65 2582.54 1209.21 2584.86 1211.77 2586.01 1214.67 2586.01 1217.92 2586.01 1220.17 2585.49 1222.34 2584.44 1224.43 2583.12 1227.24 2580.96 1229.56 2577.96 1231.41 2574.96 1233.25 2571.61 1234.17 2567.92 1234.17 2564.29 1234.17 2561.07 1233.4 2558.26 1231.86 2555.45 1230.32 2553.55 1228.26 2552.56 1225.67 2552.01 1224.52 2551.73 1223.17 2551.73 1221.63 2551.73 1220.09 2552.24 1218.84 2553.26 1217.87 2554.28 1216.91 2555.51 1216.43 2556.94 1216.43 2558.48 1216.43 2559.75 1216.93 2560.74 1217.92 2561.73 1218.91 2562.22 1220.14 2562.22 1221.63 2562.22 1222.89 2561.87 1223.99 2561.15 1224.93 2560.44 1225.86 2559.47 1226.47 2558.26 1226.74L2557.68 1226.91C2560.66 1229.38 2564.07 1230.62 2567.92 1230.62 2570.95 1230.62 2573.24 1229.16 2574.78 1226.25 2575.72 1224.43 2576.18 1221.66 2576.18 1217.92L2576.18 1216.27C2576.18 1211.04 2574.42 1207.55 2570.9 1205.79 2570.07 1205.46 2568.39 1205.26 2565.86 1205.21L2562.39 1205.13 2562.14 1204.96C2562.03 1204.8 2561.98 1204.36 2561.98 1203.64 2561.98 1202.98 2562.06 1202.57 2562.22 1202.4 2562.39 1202.24 2562.53 1202.16 2562.64 1202.16 2564.18 1202.16 2565.78 1202.02 2567.43 1201.74 2569.85 1201.41 2571.7 1200.05 2572.96 1197.66 2574.23 1195.27 2574.86 1192.39 2574.86 1189.04 2574.86 1185.46 2573.9 1183.07 2571.97 1181.86 2570.81 1181.09 2569.52 1180.7 2568.09 1180.7 2565.34 1180.7 2562.91 1181.45 2560.82 1182.93 2560.6 1183.04 2560.35 1183.22 2560.08 1183.47 2559.8 1183.71 2559.58 1183.95 2559.42 1184.17L2559.17 1184.5C2559.33 1184.55 2559.53 1184.61 2559.75 1184.66 2560.85 1184.77 2561.77 1185.3 2562.51 1186.23 2563.26 1187.17 2563.63 1188.24 2563.63 1189.45 2563.63 1190.77 2563.17 1191.88 2562.27 1192.79 2561.36 1193.7 2560.19 1194.15 2558.76 1194.15 2557.27 1194.15 2556.1 1193.69 2555.25 1192.75 2554.39 1191.81 2553.96 1190.6 2553.96 1189.12 2553.96 1185.98 2555.2 1183.36 2557.68 1181.24 2560.16 1179.12 2563.02 1177.87 2566.27 1177.49ZM2386.07 1176.25 2430.59 1176.25C2430.97 1176.63 2431.17 1176.94 2431.17 1177.16 2431.17 1177.43 2430.81 1180.52 2430.09 1186.44 2429.38 1192.35 2428.99 1195.36 2428.94 1195.47 2428.83 1195.86 2428.28 1196.05 2427.28 1196.05L2426.29 1196.05C2425.91 1195.72 2425.71 1195.45 2425.71 1195.23 2425.71 1195.12 2425.73 1194.99 2425.76 1194.85 2425.78 1194.72 2425.81 1194.51 2425.84 1194.24 2425.87 1193.96 2425.88 1193.69 2425.88 1193.41 2426.1 1191.81 2426.21 1190.22 2426.21 1188.62 2426.21 1184.66 2424.94 1182.16 2422.41 1181.12 2421.25 1180.62 2419.91 1180.32 2418.36 1180.21 2416.82 1180.1 2413.68 1180.04 2408.95 1180.04 2404.54 1180.1 2402.23 1180.15 2402.01 1180.21 2401.57 1180.37 2401.29 1180.62 2401.18 1180.95 2401.13 1181.01 2400.19 1184.61 2398.37 1191.76L2395.73 1202.4 2400.27 1202.4C2403.58 1202.35 2405.39 1202.29 2405.73 1202.24 2407.54 1201.91 2408.86 1201.33 2409.69 1200.51 2410.85 1199.52 2411.81 1197.54 2412.58 1194.57 2412.64 1194.4 2412.69 1194.21 2412.75 1193.99 2412.8 1193.77 2412.83 1193.62 2412.83 1193.53 2412.83 1193.45 2412.86 1193.34 2412.91 1193.2 2412.97 1193.07 2413.04 1192.98 2413.12 1192.96 2413.2 1192.93 2413.31 1192.89 2413.45 1192.83 2413.59 1192.78 2413.74 1192.75 2413.9 1192.75 2414.07 1192.75 2414.29 1192.75 2414.56 1192.75L2415.55 1192.75C2415.94 1193.02 2416.13 1193.3 2416.13 1193.57 2416.13 1193.74 2415.27 1197.34 2413.53 1204.38 2411.8 1211.43 2410.87 1215.06 2410.76 1215.28 2410.65 1215.66 2410.1 1215.85 2409.11 1215.85L2408.12 1215.85C2407.79 1215.58 2407.6 1215.34 2407.54 1215.15 2407.49 1214.96 2407.57 1214.48 2407.79 1213.71 2408.18 1212.17 2408.37 1210.85 2408.37 1209.75 2408.37 1208.1 2407.68 1207.08 2406.3 1206.69 2405.31 1206.36 2403 1206.2 2399.37 1206.2L2394.82 1206.2 2392.18 1216.68C2390.42 1223.5 2389.54 1227.07 2389.54 1227.4 2389.54 1227.73 2389.7 1227.95 2390.03 1228.06 2390.69 1228.39 2392.98 1228.56 2396.89 1228.56L2398.95 1228.56C2399.28 1228.89 2399.46 1229.12 2399.49 1229.26 2399.52 1229.4 2399.45 1229.91 2399.28 1230.79 2399.06 1231.5 2398.79 1232.03 2398.46 1232.36L2397.05 1232.36C2394.79 1232.25 2390.64 1232.19 2384.58 1232.19 2383.04 1232.19 2381.04 1232.2 2378.59 1232.23 2376.14 1232.26 2374.36 1232.27 2373.26 1232.27 2372.6 1232.27 2372.19 1232.14 2372.02 1231.86 2371.91 1231.64 2371.86 1231.5 2371.86 1231.45 2371.86 1231.34 2371.94 1230.95 2372.11 1230.29 2372.33 1229.41 2372.55 1228.9 2372.77 1228.77 2372.99 1228.63 2373.62 1228.56 2374.67 1228.56 2376.15 1228.56 2377.81 1228.48 2379.62 1228.31 2380.39 1228.15 2380.92 1227.82 2381.19 1227.32 2381.3 1227.05 2383.27 1219.32 2387.1 1204.14 2390.93 1188.95 2392.84 1181.25 2392.84 1181.03 2392.84 1180.65 2392.73 1180.46 2392.51 1180.46 2392.07 1180.29 2390.61 1180.15 2388.13 1180.04L2385.57 1180.04C2385.24 1179.71 2385.06 1179.48 2385.03 1179.34 2385.01 1179.2 2385.08 1178.75 2385.24 1177.98 2385.46 1176.99 2385.74 1176.41 2386.07 1176.25ZM2591.63 1176 2608.73 1176 2608.98 1176.25C2609.09 1176.3 2611.5 1179.78 2616.2 1186.69 2620.91 1193.59 2625.61 1200.48 2630.29 1207.35L2637.31 1217.67 2637.31 1183.01C2636.26 1181.03 2633.89 1179.96 2630.2 1179.8L2628.8 1179.8 2628.8 1176 2629.46 1176C2630.45 1176.16 2633.67 1176.25 2639.12 1176.25 2644.74 1176.25 2647.91 1176.16 2648.62 1176L2649.37 1176 2649.37 1179.8 2647.96 1179.8C2643.94 1180.02 2641.6 1181.09 2640.94 1183.01L2640.86 1207.44 2640.86 1231.86C2640.69 1231.97 2640.5 1232.14 2640.28 1232.36L2639.12 1232.36C2638.3 1232.36 2637.8 1232.27 2637.64 1232.11 2637.31 1231.78 2631.64 1223.53 2620.62 1207.35 2609.61 1191.18 2603.97 1182.88 2603.69 1182.44L2603.69 1203.89 2603.77 1225.26C2604.43 1227.24 2606.77 1228.34 2610.79 1228.56L2612.2 1228.56 2612.2 1232.36 2611.45 1232.36C2610.74 1232.19 2607.57 1232.11 2601.96 1232.11 2596.23 1232.11 2593.01 1232.19 2592.29 1232.36L2591.63 1232.36 2591.63 1228.56 2593.03 1228.56C2596.78 1228.34 2599.06 1227.4 2599.89 1225.75L2600.14 1225.26 2600.14 1180.04 2599.81 1180.04C2599.26 1179.88 2597.27 1179.8 2593.86 1179.8L2591.63 1179.8Z" fill-rule="evenodd"/><path d="M2.39253e-06-3.4375 511.71-3.43714 511.71 3.43786-2.39253e-06 3.4375ZM485.943-19.0106 518.533 0.000359921 485.943 19.0112C484.303 19.9678 482.198 19.4139 481.241 17.7741 480.285 16.1342 480.839 14.0294 482.479 13.0728L509.979-2.96888 509.979 2.9696 482.479-13.0721C480.839-14.0287 480.285-16.1335 481.241-17.7734 482.198-19.4133 484.303-19.9672 485.943-19.0106Z" transform="matrix(6.12323e-17 1 1 -6.12323e-17 2875.5 1186.5)"/><path d="M3.4375-3.18742e-06 3.43785 382.401-3.43715 382.401-3.4375 3.18742e-06ZM19.0112 356.634 0.000360701 389.224-19.0106 356.634C-19.9672 354.994-19.4133 352.889-17.7734 351.933-16.1335 350.976-14.0287 351.53-13.0721 353.17L2.96959 380.67-2.96889 380.67 13.0728 353.17C14.0293 351.53 16.1342 350.976 17.7741 351.933 19.4139 352.889 19.9678 354.994 19.0112 356.634Z" transform="matrix(6.12323e-17 1 1 -6.12323e-17 2875.5 1185.5)"/><path d="M3367.31 1791.01 3367.31 1802.01 3393.87 1802.01 3393.87 1791.01ZM3362.74 1786.89 3398.32 1786.89 3398.32 1809 3393.87 1809 3393.87 1806.14 3367.31 1806.14 3367.31 1808.95 3362.74 1808.95ZM3427.85 1772.04 3480.31 1772.04C3480.37 1772.09 3480.49 1772.19 3480.69 1772.32 3480.88 1772.46 3481.02 1772.57 3481.1 1772.65 3481.18 1772.74 3481.26 1772.87 3481.34 1773.07 3481.43 1773.26 3481.47 1773.47 3481.47 1773.69 3481.47 1774.4 3481.06 1774.95 3480.23 1775.34L3427.69 1775.34C3426.92 1774.95 3426.53 1774.4 3426.53 1773.69 3426.53 1772.86 3426.97 1772.31 3427.85 1772.04ZM2943.03 1772.04 2995.49 1772.04C2995.54 1772.09 2995.67 1772.19 2995.86 1772.32 2996.05 1772.46 2996.19 1772.57 2996.27 1772.65 2996.35 1772.74 2996.44 1772.87 2996.52 1773.07 2996.6 1773.26 2996.64 1773.47 2996.64 1773.69 2996.64 1774.4 2996.23 1774.95 2995.41 1775.34L2942.86 1775.34C2942.09 1774.95 2941.71 1774.4 2941.71 1773.69 2941.71 1772.86 2942.15 1772.31 2943.03 1772.04ZM2908.77 1766.86C2911.92 1766.86 2914.53 1767.72 2916.6 1769.42 2918.67 1771.13 2919.95 1773.36 2920.42 1776.11 2920.5 1776.77 2920.53 1777.37 2920.53 1777.92 2920.53 1780.05 2919.89 1782.05 2918.61 1783.92 2917.58 1785.46 2915.51 1787.57 2912.4 1790.24 2911.08 1791.38 2909.24 1793.07 2906.9 1795.3L2903.65 1798.38 2907.83 1798.44C2913.59 1798.44 2916.65 1798.35 2917.02 1798.16 2917.16 1798.13 2917.34 1797.74 2917.56 1797.01 2917.71 1796.61 2917.97 1795.36 2918.33 1793.27L2918.33 1793.1 2920.53 1793.1 2920.53 1793.27 2918.99 1803.33 2918.99 1803.5 2898.59 1803.5 2898.59 1802.45C2898.59 1801.72 2898.63 1801.3 2898.7 1801.19 2898.74 1801.15 2900.28 1799.41 2903.32 1795.96 2907.32 1791.53 2909.88 1788.59 2911.02 1787.16 2913.48 1783.83 2914.71 1780.76 2914.71 1777.98 2914.71 1775.56 2914.07 1773.53 2912.81 1771.9 2911.54 1770.27 2909.77 1769.45 2907.5 1769.45 2905.38 1769.45 2903.65 1770.4 2902.33 1772.31 2902.26 1772.46 2902.15 1772.66 2902 1772.92 2901.89 1773.1 2901.84 1773.21 2901.84 1773.25 2901.84 1773.28 2901.93 1773.3 2902.11 1773.3 2903.03 1773.3 2903.77 1773.63 2904.34 1774.29 2904.91 1774.95 2905.19 1775.72 2905.19 1776.6 2905.19 1777.52 2904.89 1778.3 2904.28 1778.94 2903.68 1779.58 2902.88 1779.9 2901.89 1779.9 2900.87 1779.9 2900.06 1779.57 2899.47 1778.91 2898.89 1778.25 2898.59 1777.44 2898.59 1776.49 2898.59 1773.85 2899.59 1771.59 2901.59 1769.7 2903.59 1767.81 2905.98 1766.86 2908.77 1766.86ZM3380.67 1764C3377.55 1768.26 3373.32 1772.31 3367.97 1776.16L3393.32 1776.16C3388.15 1772.49 3383.93 1768.44 3380.67 1764ZM3378.58 1759.27 3382.7 1759.27C3385.2 1763.12 3388.46 1766.64 3392.49 1769.83 3396.53 1773.03 3401.15 1775.79 3406.35 1778.14L3404.1 1782.49C3400.58 1780.76 3397.33 1778.89 3394.36 1776.88L3394.36 1780.34 3366.7 1780.34 3366.7 1777.04C3363.77 1779.06 3360.54 1780.93 3357.02 1782.65L3354.99 1778.2C3360.01 1775.89 3364.63 1773.04 3368.85 1769.67 3373.06 1766.3 3376.31 1762.83 3378.58 1759.27ZM3427.69 1756.03 3480.23 1756.03C3481.06 1756.41 3481.47 1756.96 3481.47 1757.68 3481.47 1758.28 3481.08 1758.81 3480.31 1759.25L3454.08 1759.33 3427.85 1759.33C3426.97 1759.05 3426.53 1758.5 3426.53 1757.68 3426.53 1756.96 3426.92 1756.41 3427.69 1756.03ZM2942.86 1756.03 2995.41 1756.03C2996.23 1756.41 2996.64 1756.96 2996.64 1757.68 2996.64 1758.28 2996.26 1758.81 2995.49 1759.25L2969.26 1759.33 2943.03 1759.33C2942.15 1759.05 2941.71 1758.5 2941.71 1757.68 2941.71 1756.96 2942.09 1756.41 2942.86 1756.03ZM3043.74 1741.34 3025.68 1768.82 3034.67 1768.9 3043.74 1768.9ZM3513.31 1730.53 3514.96 1730.53 3514.96 1730.86C3514.96 1731.41 3515.37 1731.88 3516.2 1732.26 3517.02 1732.65 3518.46 1732.9 3520.53 1733.01 3522.59 1733.12 3527.22 1733.17 3534.43 1733.17L3544.41 1733.17 3544.41 1736.39 3538.8 1744.06C3537.97 1745.22 3537.04 1746.5 3535.99 1747.9 3534.95 1749.3 3534.15 1750.39 3533.6 1751.16 3533.05 1751.93 3532.72 1752.4 3532.61 1752.56 3529.75 1757.02 3528.05 1762.99 3527.5 1770.47 3527.28 1772.72 3527.14 1775.8 3527.08 1779.71 3527.08 1780.48 3527.07 1781.26 3527.04 1782.06 3527.02 1782.86 3527 1783.5 3527 1784L3527 1784.74C3526.78 1785.68 3526.25 1786.47 3525.39 1787.13 3524.54 1787.79 3523.62 1788.12 3522.63 1788.12 3521.31 1788.12 3520.25 1787.67 3519.45 1786.76 3518.66 1785.86 3518.26 1784.6 3518.26 1783.01 3518.26 1782.18 3518.37 1780.62 3518.59 1778.31 3519.41 1770.88 3521.97 1763.43 3526.26 1755.95 3527.36 1754.19 3529.67 1750.86 3533.19 1745.96L3536.98 1740.76 3529.31 1740.76C3519.74 1740.76 3514.71 1740.93 3514.22 1741.26 3514 1741.37 3513.69 1741.97 3513.31 1743.07 3512.98 1744.17 3512.7 1745.47 3512.48 1746.95 3512.37 1747.89 3512.29 1748.41 3512.24 1748.52L3512.24 1748.77 3508.94 1748.77 3508.94 1748.52C3508.99 1748.41 3509.46 1745.41 3510.34 1739.53L3511.66 1730.7C3511.66 1730.59 3512.21 1730.53 3513.31 1730.53ZM3048.86 1730.45 3050.34 1730.45 3050.84 1730.94 3050.84 1768.9 3058.43 1768.9 3058.43 1772.7 3050.84 1772.7 3050.84 1776.9C3050.84 1779.16 3050.85 1780.48 3050.88 1780.86 3050.91 1781.25 3051.06 1781.58 3051.33 1781.85 3051.77 1782.24 3053.34 1782.46 3056.03 1782.51L3058.43 1782.51 3058.43 1786.31 3057.68 1786.31C3056.91 1786.14 3053.37 1786.06 3047.04 1786.06 3040.44 1786.06 3036.76 1786.14 3035.99 1786.31L3035.25 1786.31 3035.25 1782.51 3037.8 1782.51C3040.17 1782.46 3041.63 1782.32 3042.18 1782.1 3042.62 1781.99 3042.95 1781.72 3043.17 1781.28 3043.22 1781.17 3043.25 1779.68 3043.25 1776.82L3043.25 1772.7 3021.88 1772.7 3021.88 1768.9 3034.34 1749.84C3042.75 1737.08 3047.01 1730.67 3047.12 1730.61 3047.23 1730.5 3047.81 1730.45 3048.86 1730.45ZM3558.35 1729.95 3559.34 1729.95C3560.6 1730.12 3565.17 1730.2 3573.03 1730.2 3573.58 1730.2 3574.4 1730.19 3575.5 1730.16 3576.6 1730.13 3577.46 1730.12 3578.06 1730.12 3578.67 1730.12 3579.42 1730.11 3580.33 1730.08 3581.24 1730.05 3581.94 1730.02 3582.43 1730 3582.93 1729.97 3583.23 1729.95 3583.34 1729.95L3584 1729.95 3584 1733.75 3582.68 1733.75C3581.2 1733.75 3579.88 1733.83 3578.72 1734 3578.28 1734.16 3577.95 1734.46 3577.73 1734.9 3577.68 1735.02 3577.65 1741.81 3577.65 1755.29 3577.65 1768.76 3577.62 1775.72 3577.57 1776.16 3577.02 1779.63 3575.2 1782.49 3572.12 1784.74 3569.04 1787 3565.55 1788.12 3561.65 1788.12 3561.32 1788.12 3560.81 1788.1 3560.12 1788.04 3559.43 1787.99 3559.01 1787.96 3558.84 1787.96 3555.87 1787.46 3553.4 1786.36 3551.42 1784.66 3549.44 1782.95 3548.23 1780.89 3547.79 1778.47 3547.73 1778.2 3547.71 1777.78 3547.71 1777.23 3547.71 1775.53 3548.2 1774.18 3549.19 1773.19 3550.18 1772.2 3551.45 1771.71 3552.98 1771.71 3554.47 1771.71 3555.71 1772.19 3556.7 1773.15 3557.69 1774.11 3558.18 1775.42 3558.18 1777.07 3558.18 1778.39 3557.78 1779.49 3556.99 1780.37 3556.19 1781.25 3555.21 1781.8 3554.06 1782.02 3553.89 1782.07 3553.86 1782.16 3553.97 1782.27 3554.25 1782.6 3555.02 1783.15 3556.28 1783.92 3557.93 1784.69 3559.61 1785.07 3561.32 1785.07 3562.09 1785.07 3562.72 1784.99 3563.21 1784.82 3564.81 1784.33 3566.14 1783.28 3567.21 1781.69 3568.29 1780.09 3568.96 1778.17 3569.23 1775.91 3569.23 1775.86 3569.23 1775.4 3569.23 1774.55 3569.23 1773.7 3569.23 1772.59 3569.23 1771.21 3569.23 1769.83 3569.25 1768.32 3569.28 1766.67 3569.3 1765.02 3569.32 1763.15 3569.32 1761.06 3569.32 1758.97 3569.32 1756.99 3569.32 1755.12 3569.32 1753.75 3569.32 1752.33 3569.32 1750.87 3569.32 1749.41 3569.32 1748.05 3569.32 1746.79 3569.32 1745.52 3569.3 1744.28 3569.28 1743.07 3569.25 1741.86 3569.23 1740.79 3569.23 1739.86 3569.23 1738.92 3569.23 1738.1 3569.23 1737.38 3569.23 1736.67 3569.23 1736.09 3569.23 1735.65L3569.23 1735.07C3568.9 1734.52 3568.22 1734.16 3567.17 1734 3566.18 1733.83 3564.01 1733.75 3560.66 1733.75L3558.35 1733.75ZM3279.4 1729.95 3280.39 1729.95C3282.7 1730.12 3285.45 1730.2 3288.64 1730.2 3289.19 1730.2 3290.07 1730.19 3291.28 1730.16 3292.49 1730.13 3293.4 1730.12 3294 1730.12 3294.72 1730.12 3295.58 1730.11 3296.6 1730.08 3297.62 1730.05 3298.4 1730.02 3298.95 1730 3299.5 1729.97 3299.83 1729.95 3299.94 1729.95L3300.77 1729.95C3301.1 1730.28 3301.28 1730.52 3301.3 1730.66 3301.33 1730.79 3301.26 1731.3 3301.1 1732.18 3300.88 1732.95 3300.63 1733.47 3300.36 1733.75L3298.62 1733.75C3297.03 1733.8 3295.71 1733.97 3294.66 1734.25 3293.84 1734.57 3293.37 1734.88 3293.26 1735.15 3293.26 1735.54 3293.72 1742.19 3294.62 1755.12 3295.53 1768.05 3296.01 1774.7 3296.07 1775.09 3304.64 1759.91 3311.11 1748.52 3315.45 1740.93L3315.29 1737.88C3315.12 1735.57 3314.85 1734.33 3314.46 1734.16 3314.13 1733.94 3312.98 1733.8 3311 1733.75 3309.46 1733.75 3308.63 1733.56 3308.52 1733.17 3308.41 1733.01 3308.44 1732.57 3308.6 1731.85 3308.88 1730.75 3309.13 1730.15 3309.35 1730.04 3309.51 1729.98 3310.36 1729.98 3311.9 1730.04 3313.77 1730.15 3316.39 1730.2 3319.74 1730.2 3321.33 1730.2 3323.22 1730.17 3325.39 1730.12 3327.56 1730.06 3329.09 1730.04 3329.97 1730.04 3330.9 1730.04 3331.37 1730.23 3331.37 1730.61 3331.37 1730.83 3331.29 1731.32 3331.12 1732.06 3330.96 1732.8 3330.85 1733.2 3330.79 1733.25 3330.68 1733.58 3329.97 1733.75 3328.65 1733.75 3325.79 1733.86 3324.08 1734.27 3323.53 1734.99 3323.37 1735.15 3323.31 1735.35 3323.37 1735.57 3323.37 1736.23 3323.81 1742.79 3324.69 1755.24 3325.57 1767.7 3326.01 1774.26 3326.01 1774.92L3326.17 1774.68C3326.28 1774.51 3326.46 1774.22 3326.71 1773.81 3326.96 1773.4 3327.27 1772.87 3327.66 1772.24 3328.04 1771.61 3328.52 1770.8 3329.1 1769.81 3329.68 1768.82 3330.33 1767.69 3331.04 1766.42 3331.76 1765.16 3332.59 1763.67 3333.56 1761.97 3334.52 1760.26 3335.58 1758.42 3336.73 1756.44 3343.83 1743.95 3347.43 1737.55 3347.54 1737.22 3347.65 1736.89 3347.7 1736.64 3347.7 1736.47 3347.7 1735.59 3347.17 1734.92 3346.09 1734.45 3345.02 1733.98 3343.88 1733.75 3342.67 1733.75 3341.9 1733.75 3341.52 1733.47 3341.52 1732.92 3341.52 1732.76 3341.57 1732.4 3341.68 1731.85 3341.74 1731.69 3341.78 1731.49 3341.8 1731.27 3341.83 1731.05 3341.86 1730.89 3341.89 1730.78 3341.91 1730.67 3341.96 1730.56 3342.01 1730.45 3342.07 1730.34 3342.15 1730.26 3342.26 1730.2 3342.37 1730.15 3342.51 1730.11 3342.67 1730.08 3342.84 1730.05 3343.06 1730.04 3343.33 1730.04 3344.32 1730.04 3345.85 1730.05 3347.91 1730.08 3349.97 1730.11 3351.47 1730.12 3352.4 1730.12 3356.03 1730.12 3358.37 1730.06 3359.42 1729.95 3360.19 1729.95 3360.57 1730.26 3360.57 1730.86 3360.57 1731.19 3360.46 1731.69 3360.24 1732.35 3360.02 1733.01 3359.86 1733.39 3359.75 1733.5 3359.58 1733.67 3359.31 1733.75 3358.92 1733.75 3355.46 1733.75 3352.79 1735.04 3350.92 1737.63 3350.53 1738.23 3350.31 1738.56 3350.26 1738.62L3336.32 1763.04C3327.08 1779.32 3322.43 1787.49 3322.38 1787.55 3322.05 1787.93 3321.39 1788.12 3320.4 1788.12 3319.57 1788.12 3319.05 1787.99 3318.83 1787.71 3318.67 1787.55 3318.13 1780.77 3317.22 1767.37 3316.32 1753.98 3315.86 1747.09 3315.86 1746.7L3314.87 1748.19C3313.66 1750.22 3310.14 1756.36 3304.31 1766.59 3302.61 1769.61 3300.73 1772.94 3298.66 1776.57 3296.6 1780.2 3295.08 1782.89 3294.09 1784.62 3293.1 1786.35 3292.57 1787.24 3292.52 1787.3 3292.19 1787.85 3291.47 1788.12 3290.37 1788.12 3289.33 1788.12 3288.75 1787.93 3288.64 1787.55 3288.64 1787.38 3288.04 1778.59 3286.83 1761.19 3285.62 1743.78 3284.99 1735.04 3284.93 1734.99 3284.82 1734.49 3284.55 1734.18 3284.11 1734.04 3283.67 1733.9 3282.59 1733.8 3280.89 1733.75L3278.91 1733.75C3278.52 1733.36 3278.33 1733.06 3278.33 1732.84 3278.33 1731.63 3278.69 1730.67 3279.4 1729.95ZM3073.52 1729.95 3074.51 1729.95C3075.77 1730.12 3080.34 1730.2 3088.2 1730.2 3088.75 1730.2 3089.58 1730.19 3090.68 1730.16 3091.78 1730.13 3092.63 1730.12 3093.23 1730.12 3093.84 1730.12 3094.6 1730.11 3095.5 1730.08 3096.41 1730.05 3097.11 1730.02 3097.61 1730 3098.1 1729.97 3098.4 1729.95 3098.51 1729.95L3099.17 1729.95 3099.17 1733.75 3097.85 1733.75C3096.37 1733.75 3095.05 1733.83 3093.89 1734 3093.45 1734.16 3093.12 1734.46 3092.9 1734.9 3092.85 1735.02 3092.82 1741.81 3092.82 1755.29 3092.82 1768.76 3092.79 1775.72 3092.74 1776.16 3092.19 1779.63 3090.38 1782.49 3087.3 1784.74 3084.22 1787 3080.72 1788.12 3076.82 1788.12 3076.49 1788.12 3075.98 1788.1 3075.29 1788.04 3074.61 1787.99 3074.18 1787.96 3074.02 1787.96 3071.05 1787.46 3068.57 1786.36 3066.59 1784.66 3064.61 1782.95 3063.4 1780.89 3062.96 1778.47 3062.91 1778.2 3062.88 1777.78 3062.88 1777.23 3062.88 1775.53 3063.37 1774.18 3064.36 1773.19 3065.35 1772.2 3066.62 1771.71 3068.16 1771.71 3069.64 1771.71 3070.88 1772.19 3071.87 1773.15 3072.86 1774.11 3073.36 1775.42 3073.36 1777.07 3073.36 1778.39 3072.96 1779.49 3072.16 1780.37 3071.36 1781.25 3070.39 1781.8 3069.23 1782.02 3069.07 1782.07 3069.04 1782.16 3069.15 1782.27 3069.42 1782.6 3070.19 1783.15 3071.46 1783.92 3073.11 1784.69 3074.79 1785.07 3076.49 1785.07 3077.26 1785.07 3077.89 1784.99 3078.39 1784.82 3079.98 1784.33 3081.32 1783.28 3082.39 1781.69 3083.46 1780.09 3084.13 1778.17 3084.41 1775.91 3084.41 1775.86 3084.41 1775.4 3084.41 1774.55 3084.41 1773.7 3084.41 1772.59 3084.41 1771.21 3084.41 1769.83 3084.42 1768.32 3084.45 1766.67 3084.48 1765.02 3084.49 1763.15 3084.49 1761.06 3084.49 1758.97 3084.49 1756.99 3084.49 1755.12 3084.49 1753.75 3084.49 1752.33 3084.49 1750.87 3084.49 1749.41 3084.49 1748.05 3084.49 1746.79 3084.49 1745.52 3084.48 1744.28 3084.45 1743.07 3084.42 1741.86 3084.41 1740.79 3084.41 1739.86 3084.41 1738.92 3084.41 1738.1 3084.41 1737.38 3084.41 1736.67 3084.41 1736.09 3084.41 1735.65L3084.41 1735.07C3084.08 1734.52 3083.39 1734.16 3082.35 1734 3081.36 1733.83 3079.18 1733.75 3075.83 1733.75L3073.52 1733.75ZM2822.07 1729.95 2823.06 1729.95C2825.37 1730.12 2828.12 1730.2 2831.31 1730.2 2831.86 1730.2 2832.74 1730.19 2833.95 1730.16 2835.16 1730.13 2836.07 1730.12 2836.67 1730.12 2837.39 1730.12 2838.25 1730.11 2839.27 1730.08 2840.29 1730.05 2841.07 1730.02 2841.62 1730 2842.17 1729.97 2842.5 1729.95 2842.61 1729.95L2843.44 1729.95C2843.77 1730.28 2843.95 1730.52 2843.97 1730.66 2844 1730.79 2843.93 1731.3 2843.77 1732.18 2843.55 1732.95 2843.3 1733.47 2843.02 1733.75L2841.29 1733.75C2839.7 1733.8 2838.38 1733.97 2837.33 1734.25 2836.51 1734.57 2836.04 1734.88 2835.93 1735.15 2835.93 1735.54 2836.38 1742.19 2837.29 1755.12 2838.2 1768.05 2838.68 1774.7 2838.73 1775.09 2847.31 1759.91 2853.78 1748.52 2858.12 1740.93L2857.95 1737.88C2857.79 1735.57 2857.51 1734.33 2857.13 1734.16 2856.8 1733.94 2855.64 1733.8 2853.67 1733.75 2852.13 1733.75 2851.3 1733.56 2851.19 1733.17 2851.08 1733.01 2851.11 1732.57 2851.27 1731.85 2851.55 1730.75 2851.8 1730.15 2852.02 1730.04 2852.18 1729.98 2853.03 1729.98 2854.57 1730.04 2856.44 1730.15 2859.05 1730.2 2862.41 1730.2 2864 1730.2 2865.89 1730.17 2868.06 1730.12 2870.23 1730.06 2871.76 1730.04 2872.64 1730.04 2873.57 1730.04 2874.04 1730.23 2874.04 1730.61 2874.04 1730.83 2873.96 1731.32 2873.79 1732.06 2873.63 1732.8 2873.52 1733.2 2873.46 1733.25 2873.35 1733.58 2872.64 1733.75 2871.32 1733.75 2868.46 1733.86 2866.75 1734.27 2866.2 1734.99 2866.04 1735.15 2865.98 1735.35 2866.04 1735.57 2866.04 1736.23 2866.48 1742.79 2867.36 1755.24 2868.24 1767.7 2868.68 1774.26 2868.68 1774.92L2868.84 1774.68C2868.95 1774.51 2869.13 1774.22 2869.38 1773.81 2869.63 1773.4 2869.94 1772.87 2870.33 1772.24 2870.71 1771.61 2871.19 1770.8 2871.77 1769.81 2872.35 1768.82 2872.99 1767.69 2873.71 1766.42 2874.42 1765.16 2875.26 1763.67 2876.23 1761.97 2877.19 1760.26 2878.25 1758.42 2879.4 1756.44 2886.5 1743.95 2890.1 1737.55 2890.21 1737.22 2890.32 1736.89 2890.37 1736.64 2890.37 1736.47 2890.37 1735.59 2889.84 1734.92 2888.76 1734.45 2887.69 1733.98 2886.55 1733.75 2885.34 1733.75 2884.57 1733.75 2884.19 1733.47 2884.19 1732.92 2884.19 1732.76 2884.24 1732.4 2884.35 1731.85 2884.41 1731.69 2884.45 1731.49 2884.47 1731.27 2884.5 1731.05 2884.53 1730.89 2884.56 1730.78 2884.58 1730.67 2884.63 1730.56 2884.68 1730.45 2884.74 1730.34 2884.82 1730.26 2884.93 1730.2 2885.04 1730.15 2885.18 1730.11 2885.34 1730.08 2885.51 1730.05 2885.73 1730.04 2886 1730.04 2886.99 1730.04 2888.52 1730.05 2890.58 1730.08 2892.64 1730.11 2894.14 1730.12 2895.07 1730.12 2898.7 1730.12 2901.04 1730.06 2902.08 1729.95 2902.85 1729.95 2903.24 1730.26 2903.24 1730.86 2903.24 1731.19 2903.13 1731.69 2902.91 1732.35 2902.69 1733.01 2902.52 1733.39 2902.42 1733.5 2902.25 1733.67 2901.97 1733.75 2901.59 1733.75 2898.13 1733.75 2895.46 1735.04 2893.59 1737.63 2893.2 1738.23 2892.98 1738.56 2892.93 1738.62L2878.99 1763.04C2869.75 1779.32 2865.1 1787.49 2865.05 1787.55 2864.72 1787.93 2864.06 1788.12 2863.07 1788.12 2862.24 1788.12 2861.72 1787.99 2861.5 1787.71 2861.34 1787.55 2860.8 1780.77 2859.89 1767.37 2858.99 1753.98 2858.53 1747.09 2858.53 1746.7L2857.54 1748.19C2856.33 1750.22 2852.81 1756.36 2846.98 1766.59 2845.28 1769.61 2843.4 1772.94 2841.33 1776.57 2839.27 1780.2 2837.75 1782.89 2836.76 1784.62 2835.77 1786.35 2835.24 1787.24 2835.19 1787.3 2834.86 1787.85 2834.14 1788.12 2833.04 1788.12 2832 1788.12 2831.42 1787.93 2831.31 1787.55 2831.31 1787.38 2830.71 1778.59 2829.5 1761.19 2828.29 1743.78 2827.65 1735.04 2827.6 1734.99 2827.49 1734.49 2827.21 1734.18 2826.77 1734.04 2826.33 1733.9 2825.26 1733.8 2823.56 1733.75L2821.58 1733.75C2821.19 1733.36 2821 1733.06 2821 1732.84 2821 1731.63 2821.36 1730.67 2822.07 1729.95ZM3414.24 1218.08 3466.7 1218.08C3466.76 1218.14 3466.88 1218.23 3467.07 1218.37 3467.26 1218.51 3467.4 1218.62 3467.48 1218.7 3467.57 1218.78 3467.65 1218.92 3467.73 1219.11 3467.81 1219.3 3467.86 1219.51 3467.86 1219.73 3467.86 1220.45 3467.44 1221 3466.62 1221.38L3414.07 1221.38C3413.3 1221 3412.92 1220.45 3412.92 1219.73 3412.92 1218.91 3413.36 1218.36 3414.24 1218.08ZM3382.73 1212.91C3383.1 1212.91 3383.41 1213.02 3383.66 1213.24L3383.66 1229.69 3383.72 1246.19C3384.27 1246.74 3385.46 1247.02 3387.29 1247.02L3389.11 1247.02 3390.54 1247.02 3390.54 1249.55 3389.93 1249.55C3389.31 1249.44 3386.4 1249.38 3381.19 1249.38 3376.06 1249.38 3373.18 1249.44 3372.56 1249.55L3371.9 1249.55 3371.9 1247.02 3373.33 1247.02C3375.45 1247.02 3376.83 1246.96 3377.45 1246.85 3377.74 1246.81 3378.18 1246.59 3378.77 1246.19L3378.77 1217.75C3378.7 1217.75 3378.55 1217.81 3378.33 1217.92 3376.64 1218.58 3374.76 1218.92 3372.67 1218.96L3371.62 1218.96 3371.62 1216.43 3372.67 1216.43C3375.74 1216.32 3378.31 1215.62 3380.36 1214.34 3381.02 1213.97 3381.59 1213.55 3382.07 1213.08 3382.14 1212.97 3382.36 1212.91 3382.73 1212.91ZM3414.07 1202.07 3466.62 1202.07C3467.44 1202.46 3467.86 1203.01 3467.86 1203.72 3467.86 1204.33 3467.47 1204.85 3466.7 1205.29L3440.47 1205.37 3414.24 1205.37C3413.36 1205.1 3412.92 1204.55 3412.92 1203.72 3412.92 1203.01 3413.3 1202.46 3414.07 1202.07ZM3508.77 1177.49 3510.01 1177.49C3511.93 1177.49 3513.14 1177.51 3513.64 1177.57 3515.45 1177.84 3517.29 1178.42 3519.16 1179.3 3522.79 1181.12 3525.07 1183.7 3526.01 1187.06 3526.17 1187.61 3526.26 1188.35 3526.26 1189.28 3526.26 1192.53 3525.25 1195.43 3523.25 1197.99 3521.24 1200.55 3518.72 1202.38 3515.7 1203.48 3515.42 1203.59 3515.42 1203.67 3515.7 1203.72 3515.81 1203.78 3516.08 1203.86 3516.52 1203.97 3519.88 1204.91 3522.71 1206.65 3525.02 1209.21 3527.33 1211.77 3528.48 1214.67 3528.48 1217.92 3528.48 1220.17 3527.96 1222.34 3526.92 1224.43 3525.6 1227.24 3523.44 1229.56 3520.44 1231.41 3517.44 1233.25 3514.1 1234.17 3510.42 1234.17 3506.79 1234.17 3503.57 1233.4 3500.77 1231.86 3497.96 1230.32 3496.07 1228.26 3495.08 1225.67 3494.53 1224.52 3494.25 1223.17 3494.25 1221.63 3494.25 1220.09 3494.76 1218.84 3495.78 1217.87 3496.79 1216.91 3498.02 1216.43 3499.45 1216.43 3500.99 1216.43 3502.25 1216.93 3503.24 1217.92 3504.23 1218.91 3504.73 1220.14 3504.73 1221.63 3504.73 1222.89 3504.37 1223.99 3503.65 1224.93 3502.94 1225.86 3501.98 1226.47 3500.77 1226.74L3500.19 1226.91C3503.16 1229.39 3506.57 1230.62 3510.42 1230.62 3513.44 1230.62 3515.73 1229.16 3517.27 1226.25 3518.2 1224.43 3518.67 1221.66 3518.67 1217.92L3518.67 1216.27C3518.67 1211.04 3516.91 1207.55 3513.39 1205.79 3512.56 1205.46 3510.89 1205.26 3508.36 1205.21L3504.89 1205.13 3504.64 1204.96C3504.53 1204.8 3504.48 1204.36 3504.48 1203.64 3504.48 1202.98 3504.56 1202.57 3504.73 1202.4 3504.89 1202.24 3505.03 1202.16 3505.14 1202.16 3506.68 1202.16 3508.27 1202.02 3509.92 1201.74 3512.34 1201.41 3514.19 1200.05 3515.45 1197.66 3516.72 1195.27 3517.35 1192.39 3517.35 1189.04 3517.35 1185.46 3516.39 1183.07 3514.46 1181.86 3513.31 1181.09 3512.01 1180.7 3510.58 1180.7 3507.83 1180.7 3505.41 1181.45 3503.32 1182.93 3503.1 1183.04 3502.86 1183.22 3502.58 1183.47 3502.31 1183.71 3502.09 1183.95 3501.92 1184.17L3501.67 1184.5C3501.84 1184.55 3502.03 1184.61 3502.25 1184.66 3503.35 1184.77 3504.27 1185.3 3505.02 1186.23 3505.76 1187.17 3506.13 1188.24 3506.13 1189.45 3506.13 1190.77 3505.68 1191.88 3504.77 1192.79 3503.86 1193.7 3502.69 1194.15 3501.26 1194.15 3499.78 1194.15 3498.61 1193.69 3497.76 1192.75 3496.9 1191.81 3496.48 1190.6 3496.48 1189.12 3496.48 1185.98 3497.72 1183.36 3500.19 1181.24 3502.66 1179.12 3505.52 1177.87 3508.77 1177.49ZM3544.73 1176 3545.72 1176C3546.99 1176.17 3551.55 1176.25 3559.42 1176.25 3559.97 1176.25 3560.79 1176.23 3561.89 1176.21 3562.99 1176.18 3563.84 1176.17 3564.45 1176.17 3565.05 1176.17 3565.81 1176.15 3566.72 1176.12 3567.62 1176.1 3568.32 1176.07 3568.82 1176.04 3569.31 1176.01 3569.62 1176 3569.73 1176L3570.39 1176 3570.39 1179.8 3569.07 1179.8C3567.58 1179.8 3566.26 1179.88 3565.11 1180.04 3564.67 1180.21 3564.34 1180.51 3564.12 1180.95 3564.06 1181.06 3564.04 1187.85 3564.04 1201.33 3564.04 1214.81 3564.01 1221.77 3563.95 1222.21 3563.4 1225.67 3561.59 1228.53 3558.51 1230.79 3555.43 1233.04 3551.94 1234.17 3548.03 1234.17 3547.7 1234.17 3547.19 1234.14 3546.51 1234.09 3545.82 1234.03 3545.39 1234.01 3545.23 1234.01 3542.26 1233.51 3539.78 1232.41 3537.8 1230.71 3535.82 1229 3534.61 1226.94 3534.17 1224.52 3534.12 1224.24 3534.09 1223.83 3534.09 1223.28 3534.09 1221.57 3534.59 1220.23 3535.58 1219.24 3536.57 1218.25 3537.83 1217.75 3539.37 1217.75 3540.86 1217.75 3542.09 1218.23 3543.08 1219.19 3544.07 1220.16 3544.57 1221.46 3544.57 1223.11 3544.57 1224.43 3544.17 1225.53 3543.37 1226.41 3542.57 1227.29 3541.6 1227.84 3540.44 1228.06 3540.28 1228.12 3540.25 1228.2 3540.36 1228.31 3540.64 1228.64 3541.41 1229.19 3542.67 1229.96 3544.32 1230.73 3546 1231.12 3547.7 1231.12 3548.47 1231.12 3549.1 1231.04 3549.6 1230.87 3551.19 1230.38 3552.53 1229.33 3553.6 1227.73 3554.67 1226.14 3555.35 1224.21 3555.62 1221.96 3555.62 1221.9 3555.62 1221.45 3555.62 1220.6 3555.62 1219.74 3555.62 1218.63 3555.62 1217.26 3555.62 1215.88 3555.64 1214.37 3555.66 1212.72 3555.69 1211.07 3555.7 1209.2 3555.7 1207.11 3555.7 1205.02 3555.7 1203.04 3555.7 1201.17 3555.7 1199.79 3555.7 1198.37 3555.7 1196.92 3555.7 1195.46 3555.7 1194.1 3555.7 1192.83 3555.7 1191.57 3555.69 1190.33 3555.66 1189.12 3555.64 1187.91 3555.62 1186.84 3555.62 1185.9 3555.62 1184.97 3555.62 1184.14 3555.62 1183.43 3555.62 1182.71 3555.62 1182.13 3555.62 1181.69L3555.62 1181.12C3555.29 1180.57 3554.6 1180.21 3553.56 1180.04 3552.57 1179.88 3550.4 1179.8 3547.04 1179.8L3544.73 1179.8ZM3293.29 1176 3294.28 1176C3296.58 1176.17 3299.33 1176.25 3302.52 1176.25 3303.07 1176.25 3303.95 1176.23 3305.16 1176.21 3306.37 1176.18 3307.28 1176.17 3307.89 1176.17 3308.6 1176.17 3309.47 1176.15 3310.48 1176.12 3311.5 1176.1 3312.29 1176.07 3312.84 1176.04 3313.39 1176.01 3313.71 1176 3313.82 1176L3314.65 1176C3314.98 1176.33 3315.16 1176.56 3315.19 1176.7 3315.21 1176.84 3315.14 1177.35 3314.98 1178.23 3314.76 1179 3314.51 1179.52 3314.24 1179.8L3312.5 1179.8C3310.91 1179.85 3309.59 1180.02 3308.55 1180.29 3307.72 1180.62 3307.25 1180.92 3307.14 1181.2 3307.14 1181.58 3307.6 1188.24 3308.5 1201.17 3309.41 1214.09 3309.89 1220.75 3309.95 1221.13 3318.53 1205.95 3324.99 1194.57 3329.33 1186.97L3329.17 1183.92C3329 1181.61 3328.73 1180.37 3328.34 1180.21 3328.01 1179.99 3326.86 1179.85 3324.88 1179.8 3323.34 1179.8 3322.51 1179.6 3322.4 1179.22 3322.29 1179.05 3322.32 1178.61 3322.49 1177.9 3322.76 1176.8 3323.01 1176.19 3323.23 1176.08 3323.39 1176.03 3324.25 1176.03 3325.79 1176.08 3327.66 1176.19 3330.27 1176.25 3333.62 1176.25 3335.22 1176.25 3337.1 1176.22 3339.27 1176.17 3341.44 1176.11 3342.97 1176.08 3343.85 1176.08 3344.78 1176.08 3345.25 1176.28 3345.25 1176.66 3345.25 1176.88 3345.17 1177.36 3345 1178.1 3344.84 1178.85 3344.73 1179.25 3344.67 1179.3 3344.56 1179.63 3343.85 1179.8 3342.53 1179.8 3339.67 1179.91 3337.97 1180.32 3337.42 1181.03 3337.25 1181.2 3337.2 1181.39 3337.25 1181.61 3337.25 1182.27 3337.69 1188.83 3338.57 1201.29 3339.45 1213.75 3339.89 1220.31 3339.89 1220.97L3340.06 1220.72C3340.17 1220.56 3340.34 1220.27 3340.59 1219.85 3340.84 1219.44 3341.16 1218.92 3341.54 1218.29 3341.93 1217.65 3342.41 1216.84 3342.98 1215.85 3343.56 1214.86 3344.21 1213.74 3344.92 1212.47 3345.64 1211.2 3346.48 1209.72 3347.44 1208.01 3348.4 1206.31 3349.46 1204.47 3350.61 1202.49 3357.71 1190 3361.31 1183.59 3361.42 1183.26 3361.53 1182.93 3361.58 1182.68 3361.58 1182.52 3361.58 1181.64 3361.05 1180.96 3359.98 1180.5 3358.9 1180.03 3357.76 1179.8 3356.55 1179.8 3355.78 1179.8 3355.4 1179.52 3355.4 1178.97 3355.4 1178.81 3355.45 1178.45 3355.56 1177.9 3355.62 1177.73 3355.66 1177.54 3355.69 1177.32 3355.71 1177.1 3355.74 1176.94 3355.77 1176.83 3355.8 1176.72 3355.84 1176.61 3355.89 1176.5 3355.95 1176.39 3356.03 1176.3 3356.14 1176.25 3356.25 1176.19 3356.39 1176.15 3356.55 1176.12 3356.72 1176.1 3356.94 1176.08 3357.21 1176.08 3358.2 1176.08 3359.73 1176.1 3361.79 1176.12 3363.85 1176.15 3365.35 1176.17 3366.29 1176.17 3369.92 1176.17 3372.25 1176.11 3373.3 1176 3374.07 1176 3374.45 1176.3 3374.45 1176.91 3374.45 1177.24 3374.34 1177.73 3374.12 1178.39 3373.9 1179.05 3373.74 1179.44 3373.63 1179.55 3373.46 1179.71 3373.19 1179.8 3372.8 1179.8 3369.34 1179.8 3366.67 1181.09 3364.8 1183.67 3364.42 1184.28 3364.2 1184.61 3364.14 1184.66L3350.2 1209.09C3340.96 1225.37 3336.32 1233.54 3336.26 1233.59 3335.93 1233.98 3335.27 1234.17 3334.28 1234.17 3333.46 1234.17 3332.93 1234.03 3332.71 1233.76 3332.55 1233.59 3332.01 1226.81 3331.11 1213.42 3330.2 1200.02 3329.74 1193.14 3329.74 1192.75L3328.75 1194.24C3327.55 1196.27 3324.03 1202.4 3318.2 1212.64 3316.49 1215.66 3314.61 1218.99 3312.55 1222.62 3310.48 1226.25 3308.96 1228.93 3307.97 1230.66 3306.98 1232.4 3306.46 1233.29 3306.4 1233.35 3306.07 1233.9 3305.36 1234.17 3304.26 1234.17 3303.21 1234.17 3302.63 1233.98 3302.52 1233.59 3302.52 1233.43 3301.92 1224.64 3300.71 1207.23 3299.5 1189.82 3298.87 1181.09 3298.81 1181.03 3298.7 1180.54 3298.43 1180.22 3297.99 1180.08 3297.55 1179.95 3296.48 1179.85 3294.77 1179.8L3292.79 1179.8C3292.41 1179.41 3292.21 1179.11 3292.21 1178.89 3292.21 1177.68 3292.57 1176.72 3293.29 1176Z" fill-rule="evenodd"/></g></svg>