<?xml version="1.0"?>
<svg xmlns="http://www.w3.org/2000/svg" xmlns:xlink="http://www.w3.org/1999/xlink" width="132.303085" height="129.844757">
	<defs>
		<marker id="CustomMarker-01" markerUnits="strokeWidth" markerWidth="15.000001" markerHeight="9" viewBox="-15 -4.5 15 9" orient="auto-start-reverse">
			<path d="M 0 -0 L -10 -3, -8 -0.5, -8 0.5, -10 3 Z" fill="#000000" stroke="#000000" stroke-linejoin="round" />
		</marker>
		<marker id="CustomMarker-02" markerUnits="strokeWidth" markerWidth="15.000001" markerHeight="9" viewBox="-15 -4.5 15 9" orient="auto-start-reverse">
			<path d="M 0 -0 L -10 -3, -8 -0.5, -8 0.5, -10 3 Z" fill="#000000" stroke="#000000" stroke-linejoin="round" />
		</marker>
	</defs>
	<g transform="matrix(1 0 -0 1 8.5 8.9336)">
		<svg width="38.880394" height="39.1914787">
			<defs />
			<path d="M 11.1132 12.8505 C 11.0543 13.0865, 10.9654 13.3182, 10.8467 13.5458, 10.7279 13.7735, 10.5827 13.9792, 10.4099 14.1622, 10.2372 14.3457, 10.0444 14.4954, 9.83138 14.6132, 9.61841 14.7309, 9.38826 14.7898, 9.13996 14.7898, 8.35824 14.7898, 7.77035 14.5832, 7.37679 14.1696, 7.10738 13.8874, 6.97243 13.5316, 6.97243 13.1017, 6.97243 12.8824, 7.00777 12.6444, 7.07794 12.3873 L 7.44157 10.9818 C 7.48475 10.8042, 7.50634 10.6368, 7.50634 10.4793, 7.50634 10.4013, 7.50094 10.3203, 7.49015 10.2359, 7.45776 10.0166, 7.38268 9.82323, 7.26392 9.6554, 7.14517 9.48806, 6.99305 9.35606, 6.80706 9.25889, 6.62108 9.16222, 6.40123 9.11364, 6.14753 9.11315 L 4.32008 9.11315, 3.24442 13.298 C 3.22282 13.3981, 3.21203 13.4791, 3.21203 13.5414, 3.21203 13.6204, 3.22822 13.6729, 3.26061 13.6985, 3.33078 13.7407, 3.47653 13.7657, 3.69735 13.7735, 3.91867 13.7814, 4.15569 13.7853, 4.4089 13.7848, 4.56004 13.7853, 4.63561 13.8481, 4.63561 13.9733, 4.63561 14.0052, 4.63022 14.039, 4.61942 14.0753 L 4.58703 14.201 C 4.52815 14.358, 4.42264 14.4365, 4.2715 14.4365, 3.60853 14.4051, 2.94017 14.3894, 2.26591 14.3894, 1.59215 14.3894, 0.915446 14.4051, 0.236286 14.4365, 0.0910318 14.4365, 0.0130069 14.3688, 0.00172029 14.2324 L 0.00172029 14.1696, 0.034108 14.0361 C 0.0772916 13.8638, 0.182306 13.7799, 0.349152 13.7848, 0.602856 13.7853, 0.842819 13.7814, 1.06904 13.7735, 1.29576 13.7657, 1.4626 13.7382, 1.57056 13.6906, 1.67312 13.6337, 1.75115 13.4924, 1.80513 13.2666 L 4.07766 4.41791 C 4.11005 4.30309, 4.12575 4.21426, 4.12575 4.15096, 4.12575 4.08864, 4.1125 4.05184, 4.08551 4.04104, 4.00994 3.99442, 3.86322 3.96596, 3.64485 3.95516, 3.42647 3.94486, 3.18798 3.93946, 2.92888 3.93897, 2.77823 3.93946, 2.70266 3.8688, 2.70266 3.72698 L 2.70266 3.66416, 2.75124 3.53069 C 2.78363 3.37415, 2.88373 3.29563, 3.05058 3.29514 L 7.6035 3.29514 C 8.11582 3.29563, 8.6036 3.36384, 9.06733 3.49977, 9.53106 3.63619, 9.93542 3.86094, 10.2804 4.17452, 10.566 4.42626, 10.7736 4.73492, 10.9031 5.101, 10.9841 5.30023, 11.0273 5.50732, 11.0322 5.72127, 11.0322 5.9156, 11.0027 6.10649, 10.9434 6.29444, 10.8413 6.71352, 10.6283 7.09333, 10.3044 7.43341, 9.98106 7.77397, 9.61694 8.06398, 9.21258 8.30444, 8.93238 8.46736, 8.64825 8.60231, 8.35971 8.70928, 8.07116 8.81675, 7.86506 8.88349, 7.74091 8.90901, 8.0481 9.02973, 8.33959 9.26527, 8.61439 9.61565, 8.8465 9.9199, 8.96231 10.2835, 8.96231 10.707, 8.96231 10.7963, 8.95692 10.8856, 8.94612 10.974 L 8.79203 12.3873 C 8.74934 12.7543, 8.72775 13.0733, 8.72775 13.3451, 8.72775 13.5238, 8.73855 13.6808, 8.76014 13.8162, 8.79792 14.1254, 8.95937 14.28, 9.24497 14.2795, 9.50407 14.28, 9.74109 14.1401, 9.95701 13.8599, 10.1729 13.5802, 10.3319 13.2333, 10.434 12.8191, 10.4934 12.6625, 10.5984 12.5865, 10.7495 12.5914 L 10.8786 12.5914 C 11.0243 12.5919, 11.1024 12.6601, 11.1132 12.7955 L 11.1132 12.8505 Z M 9.21258 6.24733 C 9.29895 5.93376, 9.34753 5.61969, 9.35833 5.30514 L 9.35833 5.25803 C 9.35833 4.99157, 9.27491 4.76142, 9.10757 4.56709, 8.90833 4.33744, 8.64825 4.17501, 8.32732 4.08079, 8.00639 3.98657, 7.65454 3.93946, 7.27178 3.93897 L 6.19611 3.93897 C 5.92131 3.93946, 5.75692 3.96056, 5.70294 4.00227, 5.64896 4.04447, 5.59252 4.19316, 5.53315 4.44932 L 4.46582 8.6028, 6.02632 8.6028 C 6.40909 8.60329, 6.78694 8.55618, 7.15891 8.46196, 7.53088 8.36774, 7.8842 8.20041, 8.21789 7.95897, 8.50398 7.75532, 8.7199 7.49916, 8.86515 7.19001, 9.0109 6.88134, 9.12671 6.56728, 9.21258 6.24733 Z" stroke="none" fill="#000000" />
			<rect />
		</svg>
	</g>
	<g transform="matrix(1 0 -0 1 99.0642 29.4339)">
		<svg width="23.9541492" height="27.1276531">
			<defs />
			<path d="M 6.84804 8.49288 C 6.78915 8.72352, 6.66892 8.89772, 6.48834 9.0155, 6.30775 9.13327, 6.12618 9.19215, 5.94265 9.19166, 5.75422 9.19215, 5.59768 9.1318, 5.47352 9.01108, 5.37145 8.92766, 5.31993 8.81283, 5.31993 8.66561, 5.31993 8.59298, 5.33072 8.51937, 5.35231 8.44577, 5.4009 8.26322, 5.48579 8.11944, 5.607 8.01442, 5.72821 7.9099, 5.81016 7.85199, 5.85334 7.8412, 5.72968 7.74747, 5.47352 7.70036, 5.08536 7.69987, 4.6761 7.70036, 4.311 7.86671, 3.99007 8.19893, 3.66914 8.53164, 3.37961 8.98016, 3.12051 9.54498 L 1.94817 14.0361 C 1.90008 14.2304, 1.80145 14.3752, 1.65325 14.4718, 1.50505 14.569, 1.35538 14.6171, 1.20424 14.6171, 1.04279 14.6171, 0.918635 14.5651, 0.832268 14.4601, 0.762586 14.3923, 0.727254 14.2981, 0.727254 14.1774, 0.727254 14.1308, 0.732652 14.0734, 0.743447 14.0047 L 1.98841 9.14456 C 2.07478 8.80498, 2.11796 8.51152, 2.11796 8.26518 L 2.11796 8.07674 C 2.09146 7.82598, 1.96486 7.70036, 1.73814 7.69987, 1.50112 7.70036, 1.30287 7.89174, 1.14388 8.27352, 0.984883 8.6558, 0.829815 9.1529, 0.678672 9.76483, 0.619785 9.90665, 0.520169 9.97976, 0.379822 9.98467 L 0.193838 9.98467 C 0.0642873 9.98516, -0.000488043 9.9199, -0.000488043 9.78838 L -0.000488043 9.73342 C 0.0642873 9.48806, 0.137405 9.21964, 0.217883 8.92913, 0.298853 8.63862, 0.406812 8.36382, 0.54127 8.10471, 0.676218 7.84561, 0.846008 7.62577, 1.05064 7.44518, 1.25576 7.2646, 1.51143 7.1743, 1.81862 7.17381, 2.22886 7.1743, 2.55912 7.2911, 2.80939 7.5237, 3.06015 7.75679, 3.20148 7.98547, 3.23386 8.21022, 3.42279 7.95946, 3.68582 7.72391, 4.02246 7.50407, 4.35909 7.28423, 4.74578 7.1743, 5.18252 7.17381, 5.39844 7.1743, 5.61779 7.19688, 5.84156 7.24104, 6.06533 7.2857, 6.26162 7.35882, 6.43141 7.46089, 6.6012 7.56296, 6.72683 7.69791, 6.8078 7.86475, 6.85638 7.96977, 6.88337 8.08754, 6.88828 8.21807, 6.88828 8.29708, 6.87503 8.38884, 6.84804 8.49288 Z" stroke="none" fill="#000000" />
			<rect />
		</svg>
	</g>
	<path d="M -119.397 -111.881 L 119.397 111.881" fill="none" stroke="#000000" stroke-width="5.80000019" stroke-linecap="round" stroke-linejoin="round" marker-start="url(#CustomMarker-01)" transform="matrix(0.172414 0 0 0.172414 46.7951 45.6327)" />
	<ellipse cx="1222.1291217803955" cy="620.00027656555176" rx="9.2800006866455078" ry="9.2800006866455078" stroke="none" fill="#000000" transform="matrix(0.172414 0 0 0.172414 -143.331 -41.9742)" />
	<path d="M 327.249 -0 C 327.249 180.735, 180.735 327.25, -0 327.25, -180.735 327.25, -327.249 180.735, -327.249 -0, -327.249 -180.735, -180.735 -327.25, -0 -327.25, 180.735 -327.25, 327.249 -180.735, 327.249 -0 Z" stroke="none" fill="#000000" fill-opacity="0.133333325" transform="matrix(0.172414 0 -0 0.172414 67.3807 64.9224)" />
	<path d="M 327.249 -0 C 327.249 180.735, 180.735 327.25, -0 327.25, -180.735 327.25, -327.249 180.735, -327.249 -0, -327.249 -180.735, -180.735 -327.25, -0 -327.25, 180.735 -327.25, 327.249 -180.735, 327.249 -0 Z" fill="none" stroke="#000000" stroke-width="5.80000019" stroke-linecap="round" stroke-linejoin="round" transform="matrix(0.172414 0 -0 0.172414 67.3807 64.9224)" />
	<path d="M 188.799 -0 C 188.799 104.271, 104.271 188.799, -0 188.799, -104.271 188.799, -188.799 104.271, -188.799 -0, -188.799 -104.271, -104.271 -188.799, -0 -188.799, 104.271 -188.799, 188.799 -104.271, 188.799 -0 Z" stroke="none" fill="#000000" fill-opacity="0.227450967" transform="matrix(0.172414 0 -0 0.172414 67.3807 64.9224)" />
	<path d="M 188.799 -0 C 188.799 104.271, 104.271 188.799, -0 188.799, -104.271 188.799, -188.799 104.271, -188.799 -0, -188.799 -104.271, -104.271 -188.799, -0 -188.799, 104.271 -188.799, 188.799 -104.271, 188.799 -0 Z" fill="none" stroke="#000000" stroke-width="5.80000019" stroke-linecap="round" stroke-linejoin="round" transform="matrix(0.172414 0 -0 0.172414 67.3807 64.9224)" />
	<path d="M 188.799 -6.17024e-006 C 188.799 45.5075, 104.271 82.3985, 4.03261e-005 82.3985, -104.271 82.3986, -188.799 45.5075, -188.799 -0, -188.799 -0, -188.799 -0, -188.799 -0" fill="none" stroke="#000000" stroke-width="2.9000001" stroke-linecap="round" stroke-linejoin="round" stroke-dasharray="4.3645, 7.2355" transform="matrix(0.172414 0 -0 0.172414 67.3807 64.9224)" />
	<path d="M 3.8539e-005 188.799 C -45.5075 188.799, -82.3986 104.271, -82.3986 0.000143637, -82.3986 -104.271, -45.5076 -188.799, -0.000103681 -188.799" fill="none" stroke="#000000" stroke-width="2.9000001" stroke-linecap="round" stroke-linejoin="round" stroke-dasharray="4.3645, 7.2355" transform="matrix(0.172414 0 -0 0.172414 67.3807 64.9224)" />
	<path d="M 76.6213 -55.1381 L -76.6221 55.1396" fill="none" stroke="#000000" stroke-width="5.80000019" stroke-linecap="round" stroke-linejoin="round" marker-start="url(#CustomMarker-02)" transform="matrix(0.172414 0 0 0.172414 80.5914 55.4152)" />
</svg>
