<?xml version="1.0"?>
<svg xmlns="http://www.w3.org/2000/svg" xmlns:xlink="http://www.w3.org/1999/xlink" width="195.666672" height="194.666672">
	<defs>
		<marker id="CustomMarker-01" markerUnits="strokeWidth" markerWidth="15.000001" markerHeight="9" viewBox="-15 -4.5 15 9" orient="auto-start-reverse">
			<path d="M 0 -0 L -10 -3, -8 -0.5, -8 0.5, -10 3 Z" fill="#000000" stroke="#000000" stroke-linejoin="round" />
		</marker>
		<marker id="CustomMarker-02" markerUnits="strokeWidth" markerWidth="15.000001" markerHeight="9" viewBox="-15 -4.5 15 9" orient="auto-start-reverse">
			<path d="M 0 -0 L -10 -3, -8 -0.5, -8 0.5, -10 3 Z" fill="#000000" stroke="#000000" stroke-linejoin="round" />
		</marker>
	</defs>
	<path d="M 265.557 -0 C 265.557 146.662, 146.663 265.556, -0 265.556, -146.663 265.556, -265.557 146.662, -265.557 -0, -265.557 -146.662, -146.663 -265.556, -0 -265.556, 146.663 -265.556, 265.557 -146.662, 265.557 -0 Z" fill="none" stroke="#9F9F9F" stroke-width="40" stroke-linecap="round" stroke-linejoin="round" transform="matrix(0.333333 0 -0 0.333333 97.6667 97.6666)" />
	<ellipse cx="1215" cy="619.9998779296875" rx="7.875" ry="7.875" stroke="none" fill="#000000" transform="matrix(0.333333 0 0 0.333333 -307.333 -109)" />
	<g transform="matrix(1 0 -0 1 76.8454 74.9826)">
		<svg width="48.065773" height="54.1276474">
			<defs />
			<path d="M 14.0154 11.8996 C 13.7563 12.9125, 13.3375 13.8893, 12.7591 14.8315, 12.1807 15.7737, 11.4525 16.6354, 10.5757 17.4167, 9.78534 18.122, 8.92036 18.6827, 7.9821 19.0975, 7.04384 19.5124, 6.10427 19.7198, 5.16273 19.7198, 4.214 19.7198, 3.37062 19.5111, 2.63388 19.0923, 1.89714 18.6736, 1.30958 18.1082, 0.871201 17.3957, 0.389639 16.6079, 0.112871 15.7351, 0.0408986 14.7785, 0.0121095 14.5489, -0.002285 14.3186, -0.002285 14.0876, -0.002285 13.3692, 0.0912794 12.6259, 0.277754 11.8577, 0.55125 10.8325, 0.973271 9.83662, 1.54513 8.86957, 2.11698 7.90317, 2.84783 7.02903, 3.73898 6.24649, 4.53003 5.54247, 5.39436 4.9752, 6.33262 4.54598, 7.27088 4.11676, 8.21765 3.90215, 9.17357 3.90149, 10.1223 3.90215, 10.9618 4.11872, 11.6913 4.55121, 12.4215 4.98436, 13.0051 5.55621, 13.4435 6.26743, 13.9251 7.05651, 14.209 7.93589, 14.2954 8.90556, 14.3098 9.14372, 14.317 9.37731, 14.317 9.60696, 14.317 10.3542, 14.2169 11.1184, 14.0154 11.8996 Z M 11.8372 6.62337 C 11.6004 6.03777, 11.2444 5.56145, 10.7694 5.19504, 10.295 4.82863, 9.71271 4.64543, 9.02243 4.64478, 8.34 4.64543, 7.66084 4.83256, 6.98495 5.20551, 6.30972 5.57911, 5.7058 6.06198, 5.1732 6.65478, 4.50451 7.3745, 3.97649 8.15442, 3.5885 8.9952, 3.2005 9.83662, 2.89821 10.6892, 2.68229 11.5542, 2.43104 12.497, 2.27663 13.415, 2.21905 14.3074, 2.20466 14.4756, 2.19746 14.6431, 2.19746 14.8099, 2.19746 15.5087, 2.31262 16.1925, 2.54228 16.8618, 2.76539 17.4559, 3.10693 17.9532, 3.5669 18.3543, 4.02687 18.756, 4.602 18.9562, 5.29163 18.9556, 6.00351 18.9562, 6.69968 18.7521, 7.37884 18.3438, 8.058 17.9355, 8.66715 17.431, 9.20629 16.8304, 9.90377 16.0217, 10.4462 15.1665, 10.8342 14.2662, 11.2228 13.3659, 11.5389 12.4479, 11.7829 11.5123, 12.006 10.6408, 12.146 9.78232, 12.2036 8.93696 L 12.2036 8.57056 C 12.2036 7.87308, 12.0819 7.22401, 11.8372 6.62337 Z" stroke="none" fill="#000000" />
			<rect />
		</svg>
	</g>
	<ellipse cx="1260.265380859375" cy="747.12322998046875" rx="7.875" ry="7.875" stroke="none" fill="#000000" transform="matrix(0.333333 0 0 0.333333 -307.333 -109)" />
	<path d="M -22.8867 -62.717 L 22.8879 62.7173" fill="none" stroke="#000000" stroke-width="4" stroke-linecap="round" stroke-linejoin="round" marker-end="url(#CustomMarker-01)" transform="matrix(0.333333 0 0 0.333333 105.126 119.135)" />
	<path d="M -116.633 63.5984 L 116.632 -63.5986" fill="none" stroke="#000000" stroke-width="4" stroke-linecap="round" stroke-linejoin="round" marker-end="url(#CustomMarker-02)" transform="matrix(0.333333 0 0 0.333333 136.374 76.2495)" />
	<g transform="matrix(1 0 -0 1 84.1559 112.233)">
		<svg width="36.0099602" height="50.968071">
			<defs />
			<path d="M 7.02093 16.8618 C 6.89138 17.3093, 6.82661 17.7, 6.82661 18.0343, 6.82661 18.1259, 6.8338 18.2129, 6.8482 18.296, 6.88418 18.6317, 7.05299 18.7992, 7.35462 18.7985, 7.50577 18.7992, 7.64775 18.7364, 7.78057 18.6107, 7.91405 18.4851, 8.0364 18.2986, 8.14763 18.0507, 8.25886 17.8033, 8.36486 17.5063, 8.46562 17.1608, 8.56638 16.8154, 8.67041 16.4404, 8.77772 16.0348, 8.8209 15.8542, 8.94326 15.7632, 9.14478 15.7626 L 9.39276 15.7626 C 9.57989 15.7632, 9.6728 15.8398, 9.6728 15.9929 L 9.6728 16.0662 C 9.58643 16.409, 9.48959 16.7754, 9.38163 17.1661, 9.27433 17.5573, 9.13039 17.9198, 8.95045 18.2548, 8.77118 18.5898, 8.54479 18.8797, 8.27129 19.1237, 7.99845 19.3678, 7.65691 19.4895, 7.24732 19.4895, 6.70098 19.4895, 6.26456 19.3383, 5.93742 19.0347, 5.61027 18.7311, 5.42183 18.4223, 5.37145 18.1076, 5.1274 18.3876, 4.76295 18.688, 4.27747 19.0086, 3.79198 19.3292, 3.27966 19.4895, 2.74052 19.4895, 2.17325 19.4895, 1.69757 19.3468, 1.31285 19.0609, 0.92812 18.775, 0.628452 18.4151, 0.412534 17.982, 0.153432 17.4664, 0.0166842 16.9115, 0.00228953 16.3174 L 0.00228953 16.1604 C 0.00228953 15.6095, 0.0781881 15.0586, 0.228676 14.5063, 0.401411 13.8998, 0.642846 13.2998, 0.951674 12.7064, 1.2605 12.1136, 1.67009 11.562, 2.18044 11.0517, 2.59723 10.6336, 3.07356 10.2815, 3.60877 9.99496, 4.14399 9.70903, 4.68836 9.56574, 5.2419 9.56509, 5.72346 9.56574, 6.11539 9.69333, 6.41702 9.94785, 6.7193 10.203, 6.9097 10.417, 6.98822 10.591 L 8.15287 6.08946 C 8.21044 5.85981, 8.24643 5.68511, 8.26017 5.56603 L 8.26017 5.55556 C 8.26017 5.4862, 8.23531 5.43386, 8.18493 5.39853, 8.1208 5.34356, 7.96966 5.30496, 7.73215 5.28402, 7.4953 5.26309, 7.2218 5.25262, 6.91297 5.25196, 6.7121 5.25262, 6.61134 5.1584, 6.61134 4.96931 L 6.61134 4.88556, 6.67546 4.70759 C 6.71865 4.54794, 6.8482 4.44325, 7.06412 4.39353 L 9.11206 4.22603, 9.89918 4.16321, 9.94237 4.16321 C 10.0287 4.16387, 10.1046 4.19527, 10.1688 4.25743, 10.1903 4.3209, 10.2008 4.38044, 10.2008 4.4354 L 10.2008 4.50868 Z M 6.58975 12.2137 C 6.56096 12.0887, 6.5361 11.9579, 6.51451 11.8218, 6.49291 11.6857, 6.4602 11.5515, 6.41702 11.4181, 6.30186 11.0909, 6.13829 10.8168, 5.92629 10.5969, 5.7143 10.3771, 5.44669 10.2671, 5.12347 10.2665, 4.82184 10.2671, 4.52348 10.3758, 4.22905 10.5917, 3.93461 10.8083, 3.66439 11.087, 3.41968 11.4285, 3.07552 11.9107, 2.81707 12.4119, 2.64434 12.9314, 2.47161 13.4516, 2.31327 13.994, 2.16932 14.5587, 2.02603 15.1175, 1.9076 15.6586, 1.81338 16.1813, 1.75646 16.447, 1.72767 16.6982, 1.72767 16.9351, 1.72767 17.187, 1.75646 17.431, 1.81338 17.6679, 1.87881 17.9964, 1.99528 18.2672, 2.16409 18.4799, 2.3329 18.6932, 2.56844 18.7992, 2.87007 18.7985, 3.20115 18.7992, 3.53353 18.684, 3.86722 18.4537, 4.20157 18.2234, 4.51236 17.9407, 4.79959 17.6051, 4.91475 17.4664, 5.02467 17.3322, 5.12871 17.2027, 5.23339 17.0738, 5.32499 16.9357, 5.40351 16.7885 L 6.58975 12.2137 Z" stroke="none" fill="#000000" />
			<rect />
		</svg>
	</g>
	<g transform="matrix(1 0 -0 1 119.849 50.9827)">
		<svg width="48.065773" height="50.968071">
			<defs />
			<path d="M 14.8084 17.134 C 14.7292 17.4487, 14.6108 17.7575, 14.4524 18.0611, 14.2941 18.3647, 14.1004 18.6389, 13.8701 18.8829, 13.6405 19.1276, 13.3833 19.3272, 13.0994 19.4842, 12.8154 19.6413, 12.5085 19.7198, 12.1774 19.7198, 11.1358 19.7198, 10.352 19.4443, 9.82721 18.8927, 9.46866 18.5165, 9.28873 18.0422, 9.28873 17.469, 9.28873 17.1765, 9.33583 16.8592, 9.42875 16.5163 L 9.91358 14.6424 C 9.97116 14.4056, 9.99995 14.1825, 9.99995 13.9724, 9.99995 13.8684, 9.99275 13.7604, 9.97835 13.6479, 9.93517 13.3554, 9.83506 13.0976, 9.67672 12.8739, 9.51838 12.6508, 9.31555 12.4747, 9.06757 12.3452, 8.81959 12.2163, 8.52647 12.1515, 8.18885 12.1509 L 5.75225 12.1509, 4.31869 17.7307 C 4.2899 17.8642, 4.2755 17.9721, 4.2755 18.0552, 4.2755 18.1606, 4.2971 18.2306, 4.34028 18.2646, 4.43384 18.3209, 4.62817 18.3543, 4.9226 18.3647, 5.21704 18.3752, 5.53306 18.3804, 5.87068 18.3798, 6.0722 18.3804, 6.17296 18.4642, 6.17296 18.631, 6.17296 18.6736, 6.16577 18.7187, 6.15137 18.7671 L 6.10819 18.9346 C 6.02967 19.144, 5.889 19.2487, 5.68748 19.2487, 4.80418 19.2068, 3.91302 19.1859, 3.01402 19.1859, 2.11632 19.1859, 1.21405 19.2068, 0.308502 19.2487, 0.11483 19.2487, 0.0107969 19.1584, -0.00425196 18.9765 L -0.00425196 18.8927, 0.0389316 18.7148 C 0.0965098 18.4851, 0.236529 18.3732, 0.45899 18.3798, 0.797262 18.3804, 1.11721 18.3752, 1.41884 18.3647, 1.72113 18.3543, 1.94359 18.3176, 2.08688 18.2542, 2.22363 18.1783, 2.32766 17.9898, 2.39963 17.6888 L 5.42903 5.89056 C 5.47221 5.73745, 5.4938 5.61902, 5.4938 5.53462, 5.4938 5.45152, 5.47614 5.40245, 5.4395 5.38806, 5.33939 5.3259, 5.14376 5.28795, 4.85259 5.27355, 4.56143 5.25982, 4.24344 5.25262, 3.89797 5.25196, 3.69711 5.25262, 3.59634 5.1584, 3.59634 4.96931 L 3.59634 4.88556, 3.66112 4.70759 C 3.7043 4.49887, 3.83712 4.39418, 4.05959 4.39353 L 10.1295 4.39353 C 10.8126 4.39418, 11.463 4.48513, 12.0806 4.66637, 12.6989 4.84826, 13.2381 5.14793, 13.6974 5.56603, 14.0788 5.90168, 14.3556 6.31323, 14.5277 6.80134, 14.6356 7.06698, 14.6932 7.3431, 14.7004 7.62837, 14.7004 7.88747, 14.6612 8.14199, 14.582 8.39259, 14.4452 8.95136, 14.1613 9.45778, 13.7301 9.91121, 13.2989 10.3653, 12.8141 10.752, 12.2749 11.0726, 11.9013 11.2898, 11.5225 11.4697, 11.1378 11.6124, 10.753 11.7557, 10.4782 11.8447, 10.3127 11.8787, 10.7223 12.0396, 11.1103 12.3537, 11.4767 12.8209, 11.7862 13.2265, 11.9406 13.7114, 11.9406 14.276, 11.9406 14.3951, 11.9334 14.5142, 11.919 14.632 L 11.7142 16.5163 C 11.6566 17.0058, 11.6278 17.431, 11.6278 17.7935, 11.6278 18.0317, 11.6422 18.2411, 11.671 18.4216, 11.7214 18.8339, 11.9367 19.04, 12.3175 19.0393, 12.6629 19.04, 12.979 18.8535, 13.2662 18.4799, 13.5541 18.1069, 13.7661 17.6443, 13.9022 17.0921, 13.982 16.8834, 14.122 16.782, 14.3229 16.7885 L 14.4956 16.7885 C 14.6899 16.7892, 14.794 16.8801, 14.8084 17.0607 L 14.8084 17.134 Z M 12.2749 8.32978 C 12.3901 7.91168, 12.4542 7.49293, 12.4686 7.07353 L 12.4686 7.01071 C 12.4686 6.65543, 12.3574 6.34857, 12.1343 6.08946, 11.8686 5.78325, 11.5225 5.56668, 11.0946 5.44106, 10.6667 5.31543, 10.1975 5.25262, 9.68719 5.25196 L 8.25363 5.25196 C 7.88722 5.25262, 7.66803 5.28075, 7.59606 5.33637, 7.52409 5.39264, 7.44884 5.59089, 7.36967 5.93243 L 5.94658 11.4704, 8.02724 11.4704 C 8.53759 11.4711, 9.04075 11.4082, 9.5367 11.2826, 10.0327 11.157, 10.5031 10.9339, 10.9487 10.612, 11.3295 10.3404, 11.6174 9.99889, 11.811 9.58668, 12.0054 9.17513, 12.1598 8.75638, 12.2749 8.32978 Z" stroke="none" fill="#000000" />
			<rect />
		</svg>
	</g>
	<g transform="matrix(1 0 -0 1 122.861 127.233)">
		<svg width="29.9820557" height="48.0957298">
			<defs />
			<path d="M 5.71299 21.9077 C 5.66981 22.0752, 5.64822 22.2048, 5.64822 22.2951, 5.64822 22.3651, 5.66261 22.4102, 5.6914 22.4312, 5.76337 22.4875, 5.92171 22.5221, 6.16642 22.5359, 6.41113 22.5503, 6.68724 22.5568, 6.99607 22.5568, 7.09683 22.5568, 7.18713 22.5921, 7.26564 22.6615, 7.29443 22.7178, 7.30882 22.7662, 7.30882 22.8081, 7.30882 22.8499, 7.29836 22.8885, 7.27676 22.9232 L 7.24405 23.0907 C 7.22311 23.1889, 7.17077 23.2654, 7.08833 23.321, 7.00588 23.3773, 6.91755 23.4048, 6.82399 23.4048, 6.07678 23.3629, 5.3178 23.342, 4.54835 23.342, 3.78674 23.342, 3.01402 23.3629, 2.23017 23.4048, 2.12287 23.4048, 2.0437 23.3701, 1.99332 23.3001, 1.95013 23.2582, 1.92854 23.2098, 1.92854 23.1535, 1.92854 23.1117, 1.93966 23.0737, 1.9606 23.0384 L 1.99332 22.8709 C 2.0365 22.655, 2.17259 22.5503, 2.40291 22.5568, 2.69734 22.5568, 2.9728 22.5503, 3.22797 22.5359, 3.48315 22.5221, 3.67551 22.4835, 3.80441 22.4207, 3.91237 22.3788, 4.00593 22.1943, 4.0851 21.8659 L 4.94747 18.4949 C 4.78258 18.6559, 4.49338 18.862, 4.07987 19.1132, 3.66635 19.3645, 3.21881 19.4895, 2.73725 19.4895, 2.16932 19.4895, 1.69299 19.3468, 1.30827 19.0609, 0.923541 18.775, 0.623873 18.4151, 0.407955 17.982, 0.149508 17.4664, 0.01276 16.9115, -0.00163448 16.3174 L -0.00163448 16.1604 C -0.00163448 15.6095, 0.0742639 15.0586, 0.224752 14.5063, 0.397487 13.8998, 0.638268 13.2998, 0.947096 12.7064, 1.25658 12.1136, 1.66617 11.562, 2.17652 11.0517, 2.59396 10.6336, 3.07029 10.2815, 3.6055 9.99496, 4.14072 9.70903, 4.68509 9.56574, 5.23863 9.56509, 5.75683 9.56574, 6.17166 9.71231, 6.48441 10.0054, 6.79716 10.2986, 7.00719 10.574, 7.11515 10.8318, 7.20872 10.6996, 7.3579 10.5223, 7.56269 10.2986, 7.76749 10.0754, 7.99191 9.86607, 8.23596 9.66978, 8.33672 9.58668, 8.43421 9.54481, 8.52712 9.54415, 8.63574 9.54481, 8.71098 9.60042, 8.75351 9.71165, 8.77576 9.75418, 8.78623 9.79605, 8.78623 9.83728 L 8.78623 9.91056 Z M 6.58648 12.2137 C 6.55769 12.0887, 6.53283 11.9579, 6.51124 11.8218, 6.48964 11.6857, 6.45693 11.5515, 6.41375 11.4181, 6.29924 11.0909, 6.13567 10.8168, 5.92368 10.5969, 5.71169 10.3771, 5.44342 10.2671, 5.1202 10.2665, 4.81857 10.2671, 4.52021 10.3758, 4.22512 10.5917, 3.93069 10.8083, 3.66112 11.087, 3.41641 11.4285, 3.0716 11.9107, 2.81315 12.4119, 2.64042 12.9314, 2.46768 13.4516, 2.30934 13.994, 2.1654 14.5587, 2.02211 15.1175, 1.90368 15.6586, 1.80946 16.1813, 1.75254 16.447, 1.72375 16.6982, 1.72375 16.9351, 1.72375 17.187, 1.75254 17.431, 1.80946 17.6679, 1.87489 17.9964, 1.99135 18.2672, 2.16016 18.4799, 2.32897 18.6932, 2.56452 18.7992, 2.86615 18.7985, 3.19722 18.7992, 3.52961 18.684, 3.86395 18.4537, 4.1983 18.2234, 4.50909 17.9407, 4.79632 17.6051, 4.91148 17.4664, 5.0214 17.3322, 5.12544 17.2027, 5.23012 17.0738, 5.32172 16.9357, 5.40024 16.7885 L 6.58648 12.2137 Z" stroke="none" fill="#000000" />
			<rect />
		</svg>
	</g>
</svg>
