<?xml version="1.0"?>
<svg xmlns="http://www.w3.org/2000/svg" xmlns:xlink="http://www.w3.org/1999/xlink" width="483.333344" height="194.722229">
	<defs>
		<marker id="CustomMarker-01" markerUnits="strokeWidth" markerWidth="15.000001" markerHeight="9" viewBox="-15 -4.5 15 9" orient="auto-start-reverse">
			<path d="M 0 -0 L -10 -3, -8 -0.5, -8 0.5, -10 3 Z" fill="#000000" stroke="#000000" stroke-linejoin="round" />
		</marker>
	</defs>
	<path d="M 0 -40.9932 L 0 0" fill="none" stroke="#000000" stroke-width="4.80000019" stroke-linecap="round" stroke-linejoin="round" transform="matrix(0.277778 0 -0 0.277778 230.504 168.215)" />
	<path d="M -40.993 0 L 40.993 0" fill="none" stroke="#000000" stroke-width="5.39999962" stroke-linecap="round" stroke-linejoin="round" transform="matrix(0.277778 0 -0 0.277778 230.504 168.215)" />
	<path d="M -24.5958 20.4966 L 24.5958 20.4966" fill="none" stroke="#000000" stroke-width="5.39999962" stroke-linecap="round" stroke-linejoin="round" transform="matrix(0.277778 0 -0 0.277778 230.504 168.215)" />
	<path d="M -8.1986 40.5833 L 8.1986 40.5833" fill="none" stroke="#000000" stroke-width="5.39999962" stroke-linecap="round" stroke-linejoin="round" transform="matrix(0.277778 0 -0 0.277778 230.504 168.215)" />
	<path d="M -114.862 0 L 114.861 0" fill="none" stroke="#000000" stroke-width="4.80000019" stroke-linecap="round" stroke-linejoin="round" transform="matrix(0.277778 0 0 0.277778 198.598 156.827)" />
	<path d="M 318.669 -0 C 318.669 175.995, 175.996 318.667, -0 318.667, -175.996 318.667, -318.669 175.995, -318.669 -0, -318.669 -175.995, -175.996 -318.667, -0 -318.667, 175.996 -318.667, 318.669 -175.995, 318.669 -0 Z" fill="none" stroke="#9F9F9F" stroke-width="47.9999962" stroke-linecap="round" stroke-linejoin="round" transform="matrix(0.277778 0 -0 0.277778 100.55 97.8077)" />
	<path d="M 318.669 -0 C 318.669 175.995, 175.996 318.666, -0 318.666, -175.996 318.666, -318.669 175.995, -318.669 -0, -318.669 -175.995, -175.996 -318.666, -0 -318.666, 175.996 -318.666, 318.669 -175.995, 318.669 -0 Z" fill="none" stroke="#0080FF" stroke-width="4.80000019" stroke-linecap="round" stroke-linejoin="round" stroke-dasharray="16.824, 11.976" transform="matrix(0.277778 0 -0 0.277778 100.55 97.8077)" />
	<ellipse cx="787.97911357879639" cy="664.10765361785889" rx="9.4499998092651367" ry="9.4499998092651367" stroke="none" fill="#000000" transform="matrix(0.277778 0 0 0.277778 -118.333 -86.6667)" />
	<g transform="matrix(1 0 -0 1 79.7284 75.1237)">
		<svg width="48.065773" height="54.1276474">
			<defs />
			<path d="M 14.0154 11.8996 C 13.7563 12.9125, 13.3375 13.8893, 12.7591 14.8315, 12.1807 15.7737, 11.4525 16.6354, 10.5757 17.4167, 9.78534 18.122, 8.92036 18.6827, 7.9821 19.0975, 7.04384 19.5124, 6.10427 19.7198, 5.16273 19.7198, 4.214 19.7198, 3.37062 19.5111, 2.63388 19.0923, 1.89714 18.6736, 1.30958 18.1082, 0.871201 17.3957, 0.389639 16.6079, 0.112871 15.7351, 0.0408986 14.7785, 0.0121095 14.5489, -0.002285 14.3186, -0.002285 14.0876, -0.002285 13.3692, 0.0912794 12.6259, 0.277754 11.8577, 0.55125 10.8325, 0.973271 9.83662, 1.54513 8.86957, 2.11698 7.90317, 2.84783 7.02903, 3.73898 6.24649, 4.53003 5.54247, 5.39436 4.9752, 6.33262 4.54598, 7.27088 4.11676, 8.21765 3.90215, 9.17357 3.90149, 10.1223 3.90215, 10.9618 4.11872, 11.6913 4.55121, 12.4215 4.98436, 13.0051 5.55621, 13.4435 6.26743, 13.9251 7.05651, 14.209 7.93589, 14.2954 8.90556, 14.3098 9.14372, 14.317 9.37731, 14.317 9.60696, 14.317 10.3542, 14.2169 11.1184, 14.0154 11.8996 Z M 11.8372 6.62337 C 11.6004 6.03777, 11.2444 5.56145, 10.7694 5.19504, 10.295 4.82863, 9.71271 4.64543, 9.02243 4.64478, 8.34 4.64543, 7.66084 4.83256, 6.98495 5.20551, 6.30972 5.57911, 5.7058 6.06198, 5.1732 6.65478, 4.50451 7.3745, 3.97649 8.15442, 3.5885 8.9952, 3.2005 9.83662, 2.89821 10.6892, 2.68229 11.5542, 2.43104 12.497, 2.27663 13.415, 2.21905 14.3074, 2.20466 14.4756, 2.19746 14.6431, 2.19746 14.8099, 2.19746 15.5087, 2.31262 16.1925, 2.54228 16.8618, 2.76539 17.4559, 3.10693 17.9532, 3.5669 18.3543, 4.02687 18.756, 4.602 18.9562, 5.29163 18.9556, 6.00351 18.9562, 6.69968 18.7521, 7.37884 18.3438, 8.058 17.9355, 8.66715 17.431, 9.20629 16.8304, 9.90377 16.0217, 10.4462 15.1665, 10.8342 14.2662, 11.2228 13.3659, 11.5389 12.4479, 11.7829 11.5123, 12.006 10.6408, 12.146 9.78232, 12.2036 8.93696 L 12.2036 8.57056 C 12.2036 7.87308, 12.0819 7.22401, 11.8372 6.62337 Z" stroke="none" fill="#000000" />
			<rect />
		</svg>
	</g>
	<ellipse cx="798.93394756317139" cy="807.65538311004639" rx="9.4499998092651367" ry="9.4499998092651367" stroke="none" fill="#000000" transform="matrix(0.277778 0 0 0.277778 -118.333 -86.6667)" />
	<g transform="matrix(1 0 -0 1 113.996 124.874)">
		<svg width="141.067749" height="137.999954">
			<defs />
			<polyline points="-7.504 0 7.504 0" fill="none" stroke="#000000" stroke-width="0.857599974" stroke-linecap="round" stroke-linejoin="round" transform="matrix(1 0 0 1 7.504 12.8085)" />
			<polyline points="0 -7.504 0 7.504" fill="none" stroke="#000000" stroke-width="0.857599974" stroke-linecap="round" stroke-linejoin="round" transform="matrix(1 0 0 1 7.504 12.8085)" />
			<path d="M 26.9399 21.9077 C 26.8967 22.0752, 26.8751 22.2048, 26.8751 22.2951, 26.8751 22.3651, 26.8895 22.4102, 26.9183 22.4312, 26.9903 22.4875, 27.1486 22.5221, 27.3927 22.5359, 27.6374 22.5503, 27.9142 22.5568, 28.223 22.5568, 28.3237 22.5568, 28.4134 22.5921, 28.4925 22.6615, 28.5213 22.7178, 28.5357 22.7662, 28.5357 22.8081, 28.5357 22.8499, 28.5253 22.8885, 28.503 22.9232 L 28.471 23.0907 C 28.4494 23.1889, 28.397 23.2654, 28.3146 23.321, 28.2321 23.3773, 28.1438 23.4048, 28.0502 23.4048, 27.303 23.3629, 26.5454 23.342, 25.7759 23.342, 25.0143 23.342, 24.2416 23.3629, 23.4577 23.4048, 23.3504 23.4048, 23.2713 23.3701, 23.2209 23.3001, 23.1777 23.2582, 23.1561 23.2098, 23.1561 23.1535, 23.1561 23.1117, 23.1672 23.0737, 23.1882 23.0384 L 23.2209 22.8709 C 23.2641 22.655, 23.4002 22.5503, 23.6305 22.5568, 23.9249 22.5568, 24.1997 22.5503, 24.4549 22.5359, 24.7101 22.5221, 24.9024 22.4835, 25.032 22.4207, 25.1399 22.3788, 25.2335 22.1943, 25.312 21.8659 L 26.1744 18.4949 C 26.0095 18.6559, 25.7203 18.862, 25.3068 19.1132, 24.8933 19.3645, 24.4457 19.4895, 23.9642 19.4895, 23.3969 19.4895, 22.9212 19.3468, 22.5365 19.0609, 22.1518 18.775, 21.8521 18.4151, 21.6362 17.982, 21.3771 17.4664, 21.2403 16.9115, 21.2259 16.3174 L 21.2259 16.1604 C 21.2259 15.6095, 21.3018 15.0586, 21.4523 14.5063, 21.625 13.8998, 21.8665 13.2998, 22.1753 12.7064, 22.4841 12.1136, 22.8937 11.562, 23.4041 11.0517, 23.8209 10.6336, 24.2972 10.2815, 24.8324 9.99496, 25.3676 9.70903, 25.912 9.56574, 26.4655 9.56509, 26.9831 9.56574, 27.3979 9.71231, 27.7107 10.0054, 28.0234 10.2986, 28.2341 10.574, 28.3414 10.8318, 28.435 10.6996, 28.5842 10.5223, 28.7889 10.2986, 28.9937 10.0754, 29.2182 9.86607, 29.4629 9.66978, 29.5636 9.58668, 29.6605 9.54481, 29.7534 9.54415, 29.862 9.54481, 29.9372 9.60042, 29.9798 9.71165, 30.002 9.75418, 30.0125 9.79605, 30.0125 9.83728 L 30.0125 9.91056 Z M 27.8134 12.2137 C 27.7846 12.0887, 27.7597 11.9579, 27.7381 11.8218, 27.7166 11.6857, 27.6838 11.5515, 27.6407 11.4181, 27.5255 11.0909, 27.3619 10.8168, 27.1499 10.5969, 26.9379 10.3771, 26.6703 10.2671, 26.3471 10.2665, 26.0455 10.2671, 25.7471 10.3758, 25.4527 10.5917, 25.1583 10.8083, 24.888 11.087, 24.6433 11.4285, 24.2992 11.9107, 24.0407 12.4119, 23.868 12.9314, 23.6952 13.4516, 23.5369 13.994, 23.393 14.5587, 23.2497 15.1175, 23.1312 15.6586, 23.037 16.1813, 22.9801 16.447, 22.9513 16.6982, 22.9513 16.9351, 22.9513 17.187, 22.9801 17.431, 23.037 17.6679, 23.1025 17.9964, 23.2189 18.2672, 23.3877 18.4799, 23.5565 18.6932, 23.7921 18.7992, 24.0937 18.7985, 24.4248 18.7992, 24.7572 18.684, 25.0909 18.4537, 25.4252 18.2234, 25.736 17.9407, 26.0232 17.6051, 26.1384 17.4664, 26.2483 17.3322, 26.3523 17.2027, 26.457 17.0738, 26.5486 16.9357, 26.6271 16.7885 L 27.8134 12.2137 Z" stroke="none" fill="#000000" />
			<rect />
		</svg>
	</g>
	<path d="M 295.774 -0 C 295.774 163.351, 163.352 295.773, -0 295.773, -163.352 295.773, -295.774 163.351, -295.774 -0, -295.774 -163.351, -163.352 -295.773, -0 -295.773, 163.352 -295.773, 295.774 -163.351, 295.774 -0 Z" fill="none" stroke="#000000" stroke-width="4.80000019" stroke-linecap="round" stroke-linejoin="round" transform="matrix(0.277778 0 -0 0.277778 100.55 97.8077)" />
	<g transform="matrix(1 0 -0 1 132.756 39.5446)">
		<svg width="122.984024" height="92.9042358">
			<defs />
			<polyline points="-4.65248 0 4.65248 0" fill="none" stroke="#000000" stroke-width="0.857599974" stroke-linecap="round" stroke-linejoin="round" transform="matrix(1 0 0 1 4.65248 12.8085)" />
			<path d="M 21.2356 21.9077 C 21.1924 22.0752, 21.1708 22.2048, 21.1708 22.2951, 21.1708 22.3651, 21.1852 22.4102, 21.214 22.4312, 21.2859 22.4875, 21.4443 22.5221, 21.689 22.5359, 21.9337 22.5503, 22.2098 22.5568, 22.5186 22.5568, 22.6194 22.5568, 22.7097 22.5921, 22.7882 22.6615, 22.817 22.7178, 22.8314 22.7662, 22.8314 22.8081, 22.8314 22.8499, 22.8209 22.8885, 22.7993 22.9232 L 22.7666 23.0907 C 22.7457 23.1889, 22.6933 23.2654, 22.6109 23.321, 22.5284 23.3773, 22.4401 23.4048, 22.3465 23.4048, 21.5993 23.3629, 20.8404 23.342, 20.0709 23.342, 19.3093 23.342, 18.5366 23.3629, 17.7527 23.4048, 17.6454 23.4048, 17.5663 23.3701, 17.5159 23.3001, 17.4727 23.2582, 17.4511 23.2098, 17.4511 23.1535, 17.4511 23.1117, 17.4622 23.0737, 17.4832 23.0384 L 17.5159 22.8709 C 17.5591 22.655, 17.6952 22.5503, 17.9255 22.5568, 18.2199 22.5568, 18.4954 22.5503, 18.7505 22.5359, 19.0057 22.5221, 19.1981 22.4835, 19.327 22.4207, 19.4349 22.3788, 19.5285 22.1943, 19.6077 21.8659 L 20.47 18.4949 C 20.3051 18.6559, 20.0159 18.862, 19.6024 19.1132, 19.1889 19.3645, 18.7414 19.4895, 18.2598 19.4895, 17.6919 19.4895, 17.2156 19.3468, 16.8308 19.0609, 16.4461 18.775, 16.1464 18.4151, 15.9305 17.982, 15.6721 17.4664, 15.5353 16.9115, 15.5209 16.3174 L 15.5209 16.1604 C 15.5209 15.6095, 15.5968 15.0586, 15.7473 14.5063, 15.92 13.8998, 16.1608 13.2998, 16.4697 12.7064, 16.7791 12.1136, 17.1887 11.562, 17.6991 11.0517, 18.1165 10.6336, 18.5928 10.2815, 19.1281 9.99496, 19.6633 9.70903, 20.2077 9.56574, 20.7612 9.56509, 21.2794 9.56574, 21.6942 9.71231, 22.007 10.0054, 22.3197 10.2986, 22.5298 10.574, 22.6377 10.8318, 22.7313 10.6996, 22.8805 10.5223, 23.0853 10.2986, 23.29 10.0754, 23.5145 9.86607, 23.7585 9.66978, 23.8593 9.58668, 23.9568 9.54481, 24.0497 9.54415, 24.1583 9.54481, 24.2335 9.60042, 24.2761 9.71165, 24.2983 9.75418, 24.3088 9.79605, 24.3088 9.83728 L 24.3088 9.91056 Z M 22.109 12.2137 C 22.0803 12.0887, 22.0554 11.9579, 22.0338 11.8218, 22.0122 11.6857, 21.9795 11.5515, 21.9363 11.4181, 21.8218 11.0909, 21.6582 10.8168, 21.4462 10.5969, 21.2342 10.3771, 20.966 10.2671, 20.6428 10.2665, 20.3411 10.2671, 20.0428 10.3758, 19.7477 10.5917, 19.4532 10.8083, 19.1837 11.087, 18.939 11.4285, 18.5942 11.9107, 18.3357 12.4119, 18.163 12.9314, 17.9902 13.4516, 17.8319 13.994, 17.688 14.5587, 17.5447 15.1175, 17.4262 15.6586, 17.332 16.1813, 17.2751 16.447, 17.2463 16.6982, 17.2463 16.9351, 17.2463 17.187, 17.2751 17.431, 17.332 17.6679, 17.3974 17.9964, 17.5139 18.2672, 17.6827 18.4799, 17.8515 18.6932, 18.0871 18.7992, 18.3887 18.7985, 18.7198 18.7992, 19.0522 18.684, 19.3865 18.4537, 19.7209 18.2234, 20.0316 17.9407, 20.3189 17.6051, 20.434 17.4664, 20.544 17.3322, 20.648 17.2027, 20.7527 17.0738, 20.8443 16.9357, 20.9228 16.7885 L 22.109 12.2137 Z" stroke="none" fill="#000000" />
			<rect />
		</svg>
	</g>
	<g transform="matrix(1 0 -0 1 203.27 113.283)">
		<svg width="141.067749" height="137.999954">
			<defs />
			<polyline points="-7.504 0 7.504 0" fill="none" stroke="#000000" stroke-width="0.857599974" stroke-linecap="round" stroke-linejoin="round" transform="matrix(1 0 0 1 7.504 12.8085)" />
			<polyline points="0 -7.504 0 7.504" fill="none" stroke="#000000" stroke-width="0.857599974" stroke-linecap="round" stroke-linejoin="round" transform="matrix(1 0 0 1 7.504 12.8085)" />
			<path d="M 26.9386 21.9077 C 26.8954 22.0752, 26.8738 22.2048, 26.8738 22.2951, 26.8738 22.3651, 26.8882 22.4102, 26.917 22.4312, 26.989 22.4875, 27.1473 22.5221, 27.392 22.5359, 27.6367 22.5503, 27.9128 22.5568, 28.2217 22.5568, 28.3224 22.5568, 28.4127 22.5921, 28.4912 22.6615, 28.52 22.7178, 28.5344 22.7662, 28.5344 22.8081, 28.5344 22.8499, 28.524 22.8885, 28.5024 22.9232 L 28.4697 23.0907 C 28.4487 23.1889, 28.3964 23.2654, 28.3139 23.321, 28.2315 23.3773, 28.1432 23.4048, 28.0496 23.4048, 27.3024 23.3629, 26.5434 23.342, 25.7739 23.342, 25.0123 23.342, 24.2396 23.3629, 23.4558 23.4048, 23.3485 23.4048, 23.2693 23.3701, 23.2189 23.3001, 23.1757 23.2582, 23.1541 23.2098, 23.1541 23.1535, 23.1541 23.1117, 23.1653 23.0737, 23.1862 23.0384 L 23.2189 22.8709 C 23.2621 22.655, 23.3982 22.5503, 23.6285 22.5568, 23.9229 22.5568, 24.1984 22.5503, 24.4536 22.5359, 24.7088 22.5221, 24.9011 22.4835, 25.03 22.4207, 25.138 22.3788, 25.2315 22.1943, 25.3107 21.8659 L 26.1731 18.4949 C 26.0082 18.6559, 25.719 18.862, 25.3055 19.1132, 24.892 19.3645, 24.4444 19.4895, 23.9629 19.4895, 23.3949 19.4895, 22.9186 19.3468, 22.5339 19.0609, 22.1491 18.775, 21.8495 18.4151, 21.6336 17.982, 21.3751 17.4664, 21.2384 16.9115, 21.224 16.3174 L 21.224 16.1604 C 21.224 15.6095, 21.2999 15.0586, 21.4504 14.5063, 21.6231 13.8998, 21.8639 13.2998, 22.1727 12.7064, 22.4822 12.1136, 22.8918 11.562, 23.4021 11.0517, 23.8196 10.6336, 24.2959 10.2815, 24.8311 9.99496, 25.3663 9.70903, 25.9107 9.56574, 26.4642 9.56509, 26.9824 9.56574, 27.3973 9.71231, 27.71 10.0054, 28.0228 10.2986, 28.2328 10.574, 28.3408 10.8318, 28.4343 10.6996, 28.5835 10.5223, 28.7883 10.2986, 28.9931 10.0754, 29.2175 9.86607, 29.4616 9.66978, 29.5623 9.58668, 29.6598 9.54481, 29.7527 9.54415, 29.8613 9.54481, 29.9366 9.60042, 29.9791 9.71165, 30.0014 9.75418, 30.0118 9.79605, 30.0118 9.83728 L 30.0118 9.91056 Z M 27.8121 12.2137 C 27.7833 12.0887, 27.7584 11.9579, 27.7368 11.8218, 27.7152 11.6857, 27.6825 11.5515, 27.6393 11.4181, 27.5248 11.0909, 27.3613 10.8168, 27.1493 10.5969, 26.9373 10.3771, 26.669 10.2671, 26.3458 10.2665, 26.0442 10.2671, 25.7458 10.3758, 25.4507 10.5917, 25.1563 10.8083, 24.8867 11.087, 24.642 11.4285, 24.2972 11.9107, 24.0388 12.4119, 23.866 12.9314, 23.6933 13.4516, 23.5349 13.994, 23.391 14.5587, 23.2477 15.1175, 23.1293 15.6586, 23.0351 16.1813, 22.9781 16.447, 22.9493 16.6982, 22.9493 16.9351, 22.9493 17.187, 22.9781 17.431, 23.0351 17.6679, 23.1005 17.9964, 23.217 18.2672, 23.3858 18.4799, 23.5546 18.6932, 23.7901 18.7992, 24.0917 18.7985, 24.4228 18.7992, 24.7552 18.684, 25.0896 18.4537, 25.4239 18.2234, 25.7347 17.9407, 26.0219 17.6051, 26.1371 17.4664, 26.247 17.3322, 26.351 17.2027, 26.4557 17.0738, 26.5473 16.9357, 26.6258 16.7885 L 27.8121 12.2137 Z" stroke="none" fill="#000000" />
			<rect />
		</svg>
	</g>
	<path d="M 342.409 -0 C 342.409 189.106, 189.107 342.407, -0 342.407, -189.107 342.407, -342.409 189.106, -342.409 -0, -342.409 -189.106, -189.107 -342.407, -0 -342.407, 189.107 -342.407, 342.409 -189.106, 342.409 -0 Z" fill="none" stroke="#000000" stroke-width="4.80000019" stroke-linecap="round" stroke-linejoin="round" transform="matrix(0.277778 0 -0 0.277778 100.55 97.8077)" />
	<path d="M -54.4543 0 L 54.4547 0" fill="none" stroke="#000000" stroke-width="3.5999999" stroke-linecap="round" stroke-linejoin="round" marker-end="url(#CustomMarker-01)" transform="matrix(0.277778 0 0 0.277778 211.446 147.24)" />
	<path d="M 318.669 -0 C 318.669 175.995, 175.996 318.667, -0 318.667, -175.996 318.667, -318.669 175.995, -318.669 -0, -318.669 -175.995, -175.996 -318.667, -0 -318.667, 175.996 -318.667, 318.669 -175.995, 318.669 -0 Z" fill="none" stroke="#9F9F9F" stroke-width="47.9999962" stroke-linecap="round" stroke-linejoin="round" transform="matrix(0.277778 0 -0 0.277778 380.478 97.8077)" />
	<path d="M 318.668 -0 C 318.668 175.995, 175.996 318.666, -0 318.666, -175.996 318.666, -318.668 175.995, -318.668 -0, -318.668 -175.995, -175.996 -318.666, -0 -318.666, 175.996 -318.666, 318.668 -175.995, 318.668 -0 Z" fill="none" stroke="#0080FF" stroke-width="4.80000019" stroke-linecap="round" stroke-linejoin="round" stroke-dasharray="16.824, 11.976" transform="matrix(0.277778 0 -0 0.277778 380.478 97.8076)" />
	<ellipse cx="1795.7219724655151" cy="664.10759258270264" rx="9.4499998092651367" ry="9.4499998092651367" stroke="none" fill="#000000" transform="matrix(0.277778 0 0 0.277778 -118.333 -86.6667)" />
	<g transform="matrix(1 0 -0 1 359.657 75.1237)">
		<svg width="48.065773" height="54.1276474">
			<defs />
			<path d="M 14.0154 11.8996 C 13.7563 12.9125, 13.3375 13.8893, 12.7591 14.8315, 12.1807 15.7737, 11.4525 16.6354, 10.5757 17.4167, 9.78534 18.122, 8.92036 18.6827, 7.9821 19.0975, 7.04384 19.5124, 6.10427 19.7198, 5.16273 19.7198, 4.214 19.7198, 3.37062 19.5111, 2.63388 19.0923, 1.89714 18.6736, 1.30958 18.1082, 0.871201 17.3957, 0.389639 16.6079, 0.112871 15.7351, 0.0408986 14.7785, 0.0121095 14.5489, -0.002285 14.3186, -0.002285 14.0876, -0.002285 13.3692, 0.0912794 12.6259, 0.277754 11.8577, 0.55125 10.8325, 0.973271 9.83662, 1.54513 8.86957, 2.11698 7.90317, 2.84783 7.02903, 3.73898 6.24649, 4.53003 5.54247, 5.39436 4.9752, 6.33262 4.54598, 7.27088 4.11676, 8.21765 3.90215, 9.17357 3.90149, 10.1223 3.90215, 10.9618 4.11872, 11.6913 4.55121, 12.4215 4.98436, 13.0051 5.55621, 13.4435 6.26743, 13.9251 7.05651, 14.209 7.93589, 14.2954 8.90556, 14.3098 9.14372, 14.317 9.37731, 14.317 9.60696, 14.317 10.3542, 14.2169 11.1184, 14.0154 11.8996 Z M 11.8372 6.62337 C 11.6004 6.03777, 11.2444 5.56145, 10.7694 5.19504, 10.295 4.82863, 9.71271 4.64543, 9.02243 4.64478, 8.34 4.64543, 7.66084 4.83256, 6.98495 5.20551, 6.30972 5.57911, 5.7058 6.06198, 5.1732 6.65478, 4.50451 7.3745, 3.97649 8.15442, 3.5885 8.9952, 3.2005 9.83662, 2.89821 10.6892, 2.68229 11.5542, 2.43104 12.497, 2.27663 13.415, 2.21905 14.3074, 2.20466 14.4756, 2.19746 14.6431, 2.19746 14.8099, 2.19746 15.5087, 2.31262 16.1925, 2.54228 16.8618, 2.76539 17.4559, 3.10693 17.9532, 3.5669 18.3543, 4.02687 18.756, 4.602 18.9562, 5.29163 18.9556, 6.00351 18.9562, 6.69968 18.7521, 7.37884 18.3438, 8.058 17.9355, 8.66715 17.431, 9.20629 16.8304, 9.90377 16.0217, 10.4462 15.1665, 10.8342 14.2662, 11.2228 13.3659, 11.5389 12.4479, 11.7829 11.5123, 12.006 10.6408, 12.146 9.78232, 12.2036 8.93696 L 12.2036 8.57056 C 12.2036 7.87308, 12.0819 7.22401, 11.8372 6.62337 Z" stroke="none" fill="#000000" />
			<rect />
		</svg>
	</g>
	<ellipse cx="1806.6768064498901" cy="807.65532207489014" rx="9.4499998092651367" ry="9.4499998092651367" stroke="none" fill="#000000" transform="matrix(0.277778 0 0 0.277778 -118.333 -86.6667)" />
	<g transform="matrix(1 0 -0 1 393.924 124.874)">
		<svg width="141.067749" height="137.999954">
			<defs />
			<polyline points="-7.504 0 7.504 0" fill="none" stroke="#000000" stroke-width="0.857599974" stroke-linecap="round" stroke-linejoin="round" transform="matrix(1 0 0 1 7.504 12.8085)" />
			<polyline points="0 -7.504 0 7.504" fill="none" stroke="#000000" stroke-width="0.857599974" stroke-linecap="round" stroke-linejoin="round" transform="matrix(1 0 0 1 7.504 12.8085)" />
			<path d="M 26.9399 21.9077 C 26.8967 22.0752, 26.8751 22.2048, 26.8751 22.2951, 26.8751 22.3651, 26.8895 22.4102, 26.9183 22.4312, 26.9903 22.4875, 27.1486 22.5221, 27.3927 22.5359, 27.6374 22.5503, 27.9142 22.5568, 28.223 22.5568, 28.3237 22.5568, 28.4134 22.5921, 28.4925 22.6615, 28.5213 22.7178, 28.5357 22.7662, 28.5357 22.8081, 28.5357 22.8499, 28.5253 22.8885, 28.503 22.9232 L 28.471 23.0907 C 28.4494 23.1889, 28.397 23.2654, 28.3146 23.321, 28.2321 23.3773, 28.1438 23.4048, 28.0502 23.4048, 27.303 23.3629, 26.5454 23.342, 25.7759 23.342, 25.0143 23.342, 24.2416 23.3629, 23.4577 23.4048, 23.3504 23.4048, 23.2713 23.3701, 23.2209 23.3001, 23.1777 23.2582, 23.1561 23.2098, 23.1561 23.1535, 23.1561 23.1117, 23.1672 23.0737, 23.1882 23.0384 L 23.2209 22.8709 C 23.2641 22.655, 23.4002 22.5503, 23.6305 22.5568, 23.9249 22.5568, 24.1997 22.5503, 24.4549 22.5359, 24.7101 22.5221, 24.9024 22.4835, 25.032 22.4207, 25.1399 22.3788, 25.2335 22.1943, 25.312 21.8659 L 26.1744 18.4949 C 26.0095 18.6559, 25.7203 18.862, 25.3068 19.1132, 24.8933 19.3645, 24.4457 19.4895, 23.9642 19.4895, 23.3969 19.4895, 22.9212 19.3468, 22.5365 19.0609, 22.1518 18.775, 21.8521 18.4151, 21.6362 17.982, 21.3771 17.4664, 21.2403 16.9115, 21.2259 16.3174 L 21.2259 16.1604 C 21.2259 15.6095, 21.3018 15.0586, 21.4523 14.5063, 21.625 13.8998, 21.8665 13.2998, 22.1753 12.7064, 22.4841 12.1136, 22.8937 11.562, 23.4041 11.0517, 23.8209 10.6336, 24.2972 10.2815, 24.8324 9.99496, 25.3676 9.70903, 25.912 9.56574, 26.4655 9.56509, 26.9831 9.56574, 27.3979 9.71231, 27.7107 10.0054, 28.0234 10.2986, 28.2341 10.574, 28.3414 10.8318, 28.435 10.6996, 28.5842 10.5223, 28.7889 10.2986, 28.9937 10.0754, 29.2182 9.86607, 29.4629 9.66978, 29.5636 9.58668, 29.6605 9.54481, 29.7534 9.54415, 29.862 9.54481, 29.9372 9.60042, 29.9798 9.71165, 30.002 9.75418, 30.0125 9.79605, 30.0125 9.83728 L 30.0125 9.91056 Z M 27.8134 12.2137 C 27.7846 12.0887, 27.7597 11.9579, 27.7381 11.8218, 27.7166 11.6857, 27.6838 11.5515, 27.6407 11.4181, 27.5255 11.0909, 27.3619 10.8168, 27.1499 10.5969, 26.9379 10.3771, 26.6703 10.2671, 26.3471 10.2665, 26.0455 10.2671, 25.7471 10.3758, 25.4527 10.5917, 25.1583 10.8083, 24.888 11.087, 24.6433 11.4285, 24.2992 11.9107, 24.0407 12.4119, 23.868 12.9314, 23.6952 13.4516, 23.5369 13.994, 23.393 14.5587, 23.2497 15.1175, 23.1312 15.6586, 23.037 16.1813, 22.9801 16.447, 22.9513 16.6982, 22.9513 16.9351, 22.9513 17.187, 22.9801 17.431, 23.037 17.6679, 23.1025 17.9964, 23.2189 18.2672, 23.3877 18.4799, 23.5565 18.6932, 23.7921 18.7992, 24.0937 18.7985, 24.4248 18.7992, 24.7572 18.684, 25.0909 18.4537, 25.4252 18.2234, 25.736 17.9407, 26.0232 17.6051, 26.1384 17.4664, 26.2483 17.3322, 26.3523 17.2027, 26.457 17.0738, 26.5486 16.9357, 26.6271 16.7885 L 27.8134 12.2137 Z" stroke="none" fill="#000000" />
			<rect />
		</svg>
	</g>
	<path d="M 295.775 -0 C 295.775 163.351, 163.352 295.773, -0 295.773, -163.352 295.773, -295.775 163.351, -295.775 -0, -295.775 -163.351, -163.352 -295.773, -0 -295.773, 163.352 -295.773, 295.775 -163.351, 295.775 -0 Z" fill="none" stroke="#000000" stroke-width="4.80000019" stroke-linecap="round" stroke-linejoin="round" transform="matrix(0.277778 0 -0 0.277778 380.478 97.8076)" />
	<g transform="matrix(1 0 -0 1 412.685 39.5446)">
		<svg width="122.984024" height="92.9042358">
			<defs />
			<polyline points="-4.65248 0 4.65248 0" fill="none" stroke="#000000" stroke-width="0.857599974" stroke-linecap="round" stroke-linejoin="round" transform="matrix(1 0 0 1 4.65248 12.8085)" />
			<path d="M 21.2356 21.9077 C 21.1924 22.0752, 21.1708 22.2048, 21.1708 22.2951, 21.1708 22.3651, 21.1852 22.4102, 21.214 22.4312, 21.2859 22.4875, 21.4443 22.5221, 21.689 22.5359, 21.9337 22.5503, 22.2098 22.5568, 22.5186 22.5568, 22.6194 22.5568, 22.7097 22.5921, 22.7882 22.6615, 22.817 22.7178, 22.8314 22.7662, 22.8314 22.8081, 22.8314 22.8499, 22.8209 22.8885, 22.7993 22.9232 L 22.7666 23.0907 C 22.7457 23.1889, 22.6933 23.2654, 22.6109 23.321, 22.5284 23.3773, 22.4401 23.4048, 22.3465 23.4048, 21.5993 23.3629, 20.8404 23.342, 20.0709 23.342, 19.3093 23.342, 18.5366 23.3629, 17.7527 23.4048, 17.6454 23.4048, 17.5663 23.3701, 17.5159 23.3001, 17.4727 23.2582, 17.4511 23.2098, 17.4511 23.1535, 17.4511 23.1117, 17.4622 23.0737, 17.4832 23.0384 L 17.5159 22.8709 C 17.5591 22.655, 17.6952 22.5503, 17.9255 22.5568, 18.2199 22.5568, 18.4954 22.5503, 18.7505 22.5359, 19.0057 22.5221, 19.1981 22.4835, 19.327 22.4207, 19.4349 22.3788, 19.5285 22.1943, 19.6077 21.8659 L 20.47 18.4949 C 20.3051 18.6559, 20.0159 18.862, 19.6024 19.1132, 19.1889 19.3645, 18.7414 19.4895, 18.2598 19.4895, 17.6919 19.4895, 17.2156 19.3468, 16.8308 19.0609, 16.4461 18.775, 16.1464 18.4151, 15.9305 17.982, 15.6721 17.4664, 15.5353 16.9115, 15.5209 16.3174 L 15.5209 16.1604 C 15.5209 15.6095, 15.5968 15.0586, 15.7473 14.5063, 15.92 13.8998, 16.1608 13.2998, 16.4697 12.7064, 16.7791 12.1136, 17.1887 11.562, 17.6991 11.0517, 18.1165 10.6336, 18.5928 10.2815, 19.1281 9.99496, 19.6633 9.70903, 20.2077 9.56574, 20.7612 9.56509, 21.2794 9.56574, 21.6942 9.71231, 22.007 10.0054, 22.3197 10.2986, 22.5298 10.574, 22.6377 10.8318, 22.7313 10.6996, 22.8805 10.5223, 23.0853 10.2986, 23.29 10.0754, 23.5145 9.86607, 23.7585 9.66978, 23.8593 9.58668, 23.9568 9.54481, 24.0497 9.54415, 24.1583 9.54481, 24.2335 9.60042, 24.2761 9.71165, 24.2983 9.75418, 24.3088 9.79605, 24.3088 9.83728 L 24.3088 9.91056 Z M 22.109 12.2137 C 22.0803 12.0887, 22.0554 11.9579, 22.0338 11.8218, 22.0122 11.6857, 21.9795 11.5515, 21.9363 11.4181, 21.8218 11.0909, 21.6582 10.8168, 21.4462 10.5969, 21.2342 10.3771, 20.966 10.2671, 20.6428 10.2665, 20.3411 10.2671, 20.0428 10.3758, 19.7477 10.5917, 19.4532 10.8083, 19.1837 11.087, 18.939 11.4285, 18.5942 11.9107, 18.3357 12.4119, 18.163 12.9314, 17.9902 13.4516, 17.8319 13.994, 17.688 14.5587, 17.5447 15.1175, 17.4262 15.6586, 17.332 16.1813, 17.2751 16.447, 17.2463 16.6982, 17.2463 16.9351, 17.2463 17.187, 17.2751 17.431, 17.332 17.6679, 17.3974 17.9964, 17.5139 18.2672, 17.6827 18.4799, 17.8515 18.6932, 18.0871 18.7992, 18.3887 18.7985, 18.7198 18.7992, 19.0522 18.684, 19.3865 18.4537, 19.7209 18.2234, 20.0316 17.9407, 20.3189 17.6051, 20.434 17.4664, 20.544 17.3322, 20.648 17.2027, 20.7527 17.0738, 20.8443 16.9357, 20.9228 16.7885 L 22.109 12.2137 Z" stroke="none" fill="#000000" />
			<rect />
		</svg>
	</g>
	<g transform="matrix(1 0 -0 1 467.838 19.9493)">
		<svg width="33.1395264" height="50.968071">
			<defs />
			<path d="M 9.85153 12.0217 C 9.85153 13.0072, 9.78292 13.987, 9.6457 14.9616, 9.50848 15.9363, 9.16864 16.8513, 8.62617 17.7054, 8.23888 18.3286, 7.72079 18.807, 7.07252 19.1417, 6.4249 19.477, 5.72021 19.6444, 4.95909 19.6444, 4.22683 19.6444, 3.53432 19.477, 2.88285 19.1417, 2.23138 18.807, 1.71136 18.3286, 1.32407 17.7054, 0.781601 16.8513, 0.441759 15.9363, 0.30454 14.9616, 0.167321 13.987, 0.0980697 13.0072, 0.0980697 12.0217, 0.0980697 11.024, 0.167321 10.0269, 0.30454 9.03172, 0.441759 8.03656, 0.781601 7.10488, 1.32407 6.2354, 1.71136 5.60701, 2.22945 5.11777, 2.87772 4.76895, 3.52598 4.42013, 4.21977 4.24572, 4.95909 4.24508, 5.71315 4.24572, 6.41592 4.42013, 7.06739 4.76895, 7.71886 5.11777, 8.23888 5.60701, 8.62617 6.2354, 9.16864 7.10488, 9.50848 8.03656, 9.6457 9.03172, 9.78292 10.0269, 9.85153 11.024, 9.85153 12.0217 Z M 7.75926 11.6626 C 7.75926 11.2324, 7.75605 10.7777, 7.749 10.2988, 7.74195 9.82041, 7.72399 9.35168, 7.69578 8.89322, 7.66756 8.43539, 7.61691 8.00257, 7.54253 7.59541, 7.46879 7.18888, 7.37902 6.84134, 7.27322 6.55344, 7.06226 6.0892, 6.75256 5.70768, 6.34346 5.41016, 5.93501 5.11264, 5.47334 4.96388, 4.95909 4.96323, 4.45895 4.96388, 4.00689 5.11456, 3.60165 5.41529, 3.1964 5.71666, 2.88798 6.09561, 2.67638 6.55344, 2.57122 6.84134, 2.48145 7.18888, 2.40707 7.59541, 2.33333 8.00257, 2.28203 8.43539, 2.25382 8.89322, 2.22561 9.35168, 2.20829 9.82041, 2.20124 10.2988, 2.19419 10.7777, 2.19034 11.2324, 2.19034 11.6626, 2.19034 12.1422, 2.19419 12.6469, 2.20124 13.1765, 2.20829 13.7068, 2.22561 14.2198, 2.25382 14.7154, 2.28203 15.2117, 2.33333 15.6817, 2.40707 16.1261, 2.48145 16.5711, 2.57122 16.9436, 2.67638 17.2437, 2.87387 17.7439, 3.17909 18.1542, 3.59075 18.4755, 4.00304 18.7974, 4.45895 18.9577, 4.95909 18.957, 5.48104 18.9577, 5.94784 18.7974, 6.35949 18.4755, 6.77179 18.1542, 7.07637 17.7439, 7.27322 17.2437, 7.37902 16.9436, 7.46879 16.5711, 7.54253 16.1261, 7.61691 15.6817, 7.66756 15.2117, 7.69578 14.7154, 7.72399 14.2198, 7.74195 13.7068, 7.749 13.1765, 7.75605 12.6469, 7.75926 12.1422, 7.75926 11.6626 Z" stroke="none" fill="#000000" />
			<rect />
		</svg>
	</g>
	<path d="M 342.409 -0 C 342.409 189.106, 189.107 342.407, -0 342.407, -189.107 342.407, -342.409 189.106, -342.409 -0, -342.409 -189.106, -189.107 -342.407, -0 -342.407, 189.107 -342.407, 342.409 -189.106, 342.409 -0 Z" fill="none" stroke="#000000" stroke-width="4.80000019" stroke-linecap="round" stroke-linejoin="round" transform="matrix(0.277778 0 -0 0.277778 380.478 97.8076)" />
</svg>
