<?xml version="1.0"?>
<svg xmlns="http://www.w3.org/2000/svg" xmlns:xlink="http://www.w3.org/1999/xlink" width="275" height="209.333282">
	<defs />
	<path d="M 460.299 -0 C 460.299 254.215, 254.216 460.296, -0 460.296, -254.216 460.296, -460.299 254.215, -460.299 -0, -460.299 -254.215, -254.216 -460.296, -0 -460.296, 254.216 -460.296, 460.299 -254.215, 460.299 -0 Z" fill="none" stroke="#9F9F9F" stroke-width="69.3333282" stroke-linecap="round" stroke-linejoin="round" transform="matrix(0.192308 0 -0 0.192308 166.368 104)" />
	<path d="M 99.784 -0 C 99.784 55.109, 55.1092 99.7836, -0 99.7836, -55.1092 99.7836, -99.784 55.109, -99.784 -0, -99.784 -55.109, -55.1092 -99.7836, -0 -99.7836, 55.1092 -99.7836, 99.784 -55.109, 99.784 -0 Z" stroke="none" fill="#9F9F9F" transform="matrix(0.192308 0 -0 0.192308 166.368 104)" />
	<path d="M 99.784 -0 C 99.784 55.109, 55.1092 99.7836, -0 99.7836, -55.1092 99.7836, -99.784 55.109, -99.784 -0, -99.784 -55.109, -55.1092 -99.7836, -0 -99.7836, 55.1092 -99.7836, 99.784 -55.109, 99.784 -0 Z" fill="none" stroke="#000000" stroke-width="5.19999981" stroke-linecap="round" stroke-linejoin="round" transform="matrix(0.192308 0 -0 0.192308 166.368 104)" />
	<g transform="matrix(1 0 -0 1 158.863 91.1915)">
		<svg width="50.936203" height="50.968071">
			<defs />
			<path d="M 14.8951 8.14134 C 14.7734 8.64449, 14.5306 9.11559, 14.1675 9.55527, 13.8044 9.99496, 13.3856 10.3686, 12.9112 10.6748, 12.5376 10.9267, 12.1549 11.1256, 11.763 11.2721, 11.371 11.4187, 11.2323 11.4815, 11.3475 11.4599, 11.3265 11.4534, 11.515 11.543, 11.9141 11.7275, 12.3132 11.9127, 12.6633 12.1653, 12.9649 12.4859, 13.3032 12.8287, 13.5335 13.2403, 13.6552 13.7212, 13.7128 13.9593, 13.7455 14.1929, 13.752 14.4226, 13.752 14.6882, 13.7128 14.9643, 13.6336 15.2496, 13.4975 15.7875, 13.2456 16.3011, 12.8792 16.7892, 12.5128 17.2779, 12.0737 17.7032, 11.5634 18.0657, 11.0243 18.457, 10.4511 18.7521, 9.8439 18.951, 9.23672 19.1499, 8.63084 19.2487, 8.02627 19.2487 L 0.306217 19.2487 C 0.198258 19.2487, 0.119089 19.2173, 0.0687077 19.1545, 0.0189812 19.106, -0.00653641 19.0537, -0.00653641 18.9974, -0.00653641 18.9562, 0.000660851 18.9143, 0.0150554 18.8718 L 0.058239 18.7148 C 0.101423 18.4851, 0.241442 18.3732, 0.478298 18.3798, 0.816569 18.3804, 1.13325 18.3752, 1.42768 18.3647, 1.72212 18.3543, 1.94523 18.3176, 2.09572 18.2542, 2.22527 18.1848, 2.32603 17.9964, 2.398 17.6888 L 5.42805 5.89056 C 5.47124 5.73745, 5.49217 5.61902, 5.49217 5.53462, 5.49217 5.45152, 5.47451 5.40245, 5.43852 5.38806, 5.33776 5.3259, 5.14213 5.28795, 4.85096 5.27355, 4.5598 5.25982, 4.24181 5.25262, 3.89634 5.25196, 3.78904 5.25262, 3.70987 5.21794, 3.65949 5.14728, 3.61631 5.10606, 3.59471 5.05371, 3.59471 4.99024, 3.59471 4.94902, 3.60584 4.91042, 3.62677 4.87509 L 3.65949 4.71806 C 3.68108 4.62122, 3.73342 4.54271, 3.81587 4.48316, 3.89831 4.42428, 3.98664 4.39418, 4.0802 4.39353 L 11.229 4.39353 C 11.8186 4.39418, 12.3754 4.48186, 12.9001 4.6559, 13.4249 4.8306, 13.86 5.10606, 14.2048 5.48228, 14.5431 5.82513, 14.7806 6.22294, 14.9167 6.67571, 14.9742 6.90668, 15.003 7.14026, 15.003 7.37712, 15.003 7.62902, 14.967 7.88354, 14.8951 8.14134 Z M 12.7169 8.09946 C 12.7889 7.82073, 12.8249 7.542, 12.8249 7.26196 L 12.8249 7.01071 C 12.7961 6.67637, 12.6953 6.36558, 12.5226 6.07899, 12.3721 5.8212, 12.1725 5.61902, 11.9246 5.47246, 11.6766 5.3259, 11.3874 5.25262, 11.0563 5.25196 L 8.20947 5.25196 C 7.82867 5.25262, 7.60948 5.27683, 7.5519 5.32524, 7.46553 5.39591, 7.38309 5.59809, 7.30392 5.93243 L 5.96719 11.1877, 8.91088 11.1877 C 9.32047 11.1884, 9.72678 11.1086, 10.1292 10.9476, 10.5322 10.7873, 10.9163 10.5603, 11.2827 10.2665, 12.045 9.65276, 12.5232 8.93042, 12.7169 8.09946 Z M 11.3907 15.1868 C 11.4914 14.8315, 11.5418 14.4789, 11.5418 14.1295 L 11.5418 13.9096 C 11.513 13.5197, 11.409 13.1598, 11.229 12.8313, 11.0707 12.5461, 10.8568 12.3138, 10.5872 12.1358, 10.3176 11.9579, 10.0036 11.8689, 9.64369 11.8682 L 5.77287 11.8682, 4.27387 17.7307 C 4.2163 17.9689, 4.18751 18.1396, 4.18751 18.2437, 4.18751 18.3, 4.19143 18.3314, 4.19863 18.3379, 4.21302 18.3595, 4.40015 18.3732, 4.75936 18.3798 L 7.63827 18.3798 C 8.03346 18.3804, 8.43258 18.2954, 8.83498 18.1239, 9.23802 17.9532, 9.60836 17.7281, 9.94597 17.4481, 10.3202 17.1346, 10.6271 16.7826, 10.8679 16.3914, 11.1087 16.0008, 11.2834 15.599, 11.3907 15.1868 Z" stroke="none" fill="#000000" />
			<rect />
		</svg>
	</g>
	<g transform="matrix(1 0 -0 1 141.86 57.2964)">
		<svg width="195.03183" height="137.999954">
			<defs />
			<polyline points="-7.504 0 7.504 0" fill="none" stroke="#000000" stroke-width="0.857599974" stroke-linecap="round" stroke-linejoin="round" transform="matrix(1 0 0 1 7.504 12.8085)" />
			<polyline points="0 -7.504 0 7.504" fill="none" stroke="#000000" stroke-width="0.857599974" stroke-linecap="round" stroke-linejoin="round" transform="matrix(1 0 0 1 7.504 12.8085)" />
			<path d="M 30.9443 15.2944 C 30.9443 15.8831, 30.8142 16.448, 30.5538 16.9879, 30.2935 17.5284, 29.9447 17.9901, 29.5074 18.3722, 29.0143 18.8038, 28.4699 19.1231, 27.8749 19.3315, 27.2798 19.5405, 26.6578 19.6444, 26.0096 19.6444, 25.4248 19.6444, 24.8548 19.5623, 24.2982 19.3982, 23.7416 19.234, 23.2402 18.9987, 22.7926 18.6909, 22.3451 18.3831, 21.9879 18.0055, 21.7199 17.5573, 21.4518 17.1097, 21.3178 16.5948, 21.3178 16.0126, 21.3178 15.5753, 21.464 15.2489, 21.7564 15.0335, 22.0488 14.818, 22.3572 14.7103, 22.681 14.7096, 23.0196 14.7103, 23.3344 14.818, 23.6268 15.0335, 23.9192 15.2489, 24.0654 15.5753, 24.0654 16.0126, 24.0654 16.2729, 24.0148 16.4903, 23.9122 16.6647, 23.8102 16.8391, 23.6801 16.9847, 23.521 17.1007, 23.3627 17.2174, 23.1812 17.2886, 22.9766 17.3155, 22.8715 17.3437, 22.7727 17.3572, 22.681 17.3566, 22.59 17.3572, 22.5759 17.3643, 22.6387 17.3771, 22.8574 17.7605, 23.287 18.0997, 23.9282 18.3934, 24.5694 18.6877, 25.2632 18.8346, 26.0096 18.8339, 26.3622 18.8346, 26.6912 18.7473, 26.9977 18.5729, 27.3042 18.3985, 27.56 18.1645, 27.7639 17.8695, 28.0178 17.4874, 28.1903 17.077, 28.282 16.639, 28.3737 16.2017, 28.4192 15.7535, 28.4192 15.2944, 28.4192 14.8231, 28.3737 14.3704, 28.282 13.9357, 28.1903 13.5016, 28.0178 13.0996, 27.7639 12.7296, 27.5523 12.4295, 27.2952 12.1865, 26.9925 12.0018, 26.6899 11.8171, 26.3622 11.7248, 26.0096 11.7242 L 24.4777 11.7242 C 24.2738 11.7248, 24.1642 11.6293, 24.1501 11.4369 L 24.1501 11.324 C 24.1501 11.2426, 24.1751 11.1779, 24.2238 11.1291, 24.2873 11.0682, 24.3681 11.0374, 24.4668 11.0368, 24.6714 11.0099, 24.883 10.9964, 25.101 10.9957, 25.3126 10.9964, 25.5203 10.9829, 25.7242 10.9547, 26.1051 10.9278, 26.436 10.8104, 26.7181 10.6014, 27.0002 10.393, 27.2362 10.1263, 27.426 9.80117, 27.6158 9.47672, 27.7601 9.10225, 27.8588 8.67777, 27.9576 8.25393, 28.0069 7.81919, 28.0069 7.37419, 28.0069 7.04653, 27.9717 6.73554, 27.9011 6.44123, 27.8306 6.14755, 27.7004 5.89043, 27.51 5.67113, 27.1157 5.22036, 26.6155 4.99786, 26.0096 5.00427, 25.3619 5.00491, 24.7682 5.12674, 24.2296 5.36912, 23.691 5.61214, 23.3293 5.87375, 23.1459 6.15332, 23.0972 6.16102, 23.1216 6.16422, 23.2203 6.16358, 23.4742 6.16422, 23.7134 6.23924, 23.9385 6.38929, 24.277 6.58806, 24.4457 6.92342, 24.4457 7.39471, 24.4457 7.79226, 24.3174 8.0917, 24.0603 8.29304, 23.8032 8.49503, 23.5159 8.5957, 23.1991 8.59505, 22.8888 8.5957, 22.5983 8.49695, 22.3271 8.29817, 22.0559 8.10004, 21.9199 7.79867, 21.9199 7.39471, 21.9199 6.89585, 22.0398 6.45533, 22.2796 6.07189, 22.5195 5.68909, 22.8272 5.36079, 23.2043 5.08699, 23.5813 4.81383, 24.016 4.6048, 24.5091 4.46117, 25.0029 4.31754, 25.503 4.24572, 26.0096 4.24508, 26.552 4.24572, 27.0772 4.31754, 27.5844 4.46117, 28.0916 4.6048, 28.5706 4.8273, 29.0213 5.12739, 29.3881 5.38772, 29.6959 5.70768, 29.946 6.08728, 30.196 6.46688, 30.3211 6.89585, 30.3211 7.37419, 30.3211 7.85381, 30.2352 8.30523, 30.0627 8.72907, 29.8902 9.15355, 29.6613 9.53635, 29.3759 9.87812, 29.0906 10.2205, 28.7508 10.5213, 28.3558 10.7809, 27.9614 11.0413, 27.6652 11.2048, 27.4677 11.2728, 27.637 11.2939, 27.9262 11.3952, 28.3346 11.576, 28.7437 11.7575, 29.1342 11.9986, 29.5074 12.2987, 29.9447 12.6757, 30.2935 13.1252, 30.5538 13.6484, 30.8142 14.1717, 30.9443 14.7205, 30.9443 15.2944 Z" stroke="none" fill="#000000" />
			<path d="M 48.4197 13.9515 C 48.4197 14.7406, 48.2653 15.4858, 47.9565 16.1872, 47.6477 16.8886, 47.2322 17.4958, 46.7107 18.0088, 46.1899 18.5218, 45.5736 18.932, 44.8617 19.2382, 44.1498 19.5457, 43.3882 19.6988, 42.5756 19.6988, 41.5333 19.6988, 40.5322 19.4986, 39.5723 19.0975, 38.6131 18.6965, 37.7704 18.1292, 37.0441 17.3957, 36.2969 16.6217, 35.729 15.7547, 35.3404 14.7949, 34.9524 13.8357, 34.758 12.8353, 34.758 11.7949, 34.758 10.7559, 34.9524 9.75418, 35.3404 8.79105, 35.729 7.82793, 36.2969 6.96622, 37.0441 6.20462, 37.7704 5.47246, 38.6131 4.90191, 39.5723 4.49363, 40.5322 4.08535, 41.5333 3.88121, 42.5756 3.88056, 43.417 3.88121, 44.1825 4.05264, 44.8721 4.39418, 45.5624 4.73638, 46.1336 5.1656, 46.5864 5.68118 L 47.7511 4.03759 C 47.7942 3.93355, 47.8878 3.88121, 48.0317 3.88056 L 48.0965 3.88056 C 48.3124 3.88121, 48.4197 3.98917, 48.4197 4.20509 L 48.4197 9.92102 C 48.4197 10.1311, 48.3124 10.239, 48.0965 10.2456 L 47.8485 10.2456 C 47.6758 10.2462, 47.5679 10.1487, 47.5247 9.95243, 47.4959 9.24841, 47.3539 8.58037, 47.0987 7.94832, 46.8435 7.31692, 46.504 6.76731, 46.08 6.29949, 45.656 5.83232, 45.1659 5.45872, 44.6085 5.17933, 44.051 4.9006, 43.4458 4.76058, 42.7915 4.75993, 41.9645 4.76058, 41.1957 4.93528, 40.4838 5.28402, 39.7719 5.63342, 39.1647 6.12152, 38.6616 6.74899, 38.108 7.44778, 37.7312 8.23098, 37.5296 9.09988, 37.3281 9.96879, 37.2273 10.8671, 37.2273 11.7949, 37.2273 12.7168, 37.3281 13.6119, 37.5296 14.4808, 37.7312 15.3497, 38.108 16.1329, 38.6616 16.8304, 39.1719 17.4592, 39.787 17.9532, 40.5054 18.3124, 41.2244 18.6722, 41.9932 18.8515, 42.8124 18.8509, 43.489 18.8515, 44.1236 18.7226, 44.7164 18.4642, 45.3092 18.2064, 45.8215 17.8518, 46.2527 17.4016, 46.6839 16.9514, 47.0254 16.4332, 47.2767 15.847, 47.5286 15.2607, 47.6542 14.6293, 47.6542 13.9515, 47.6542 13.7428, 47.7589 13.6381, 47.967 13.6374 L 48.0965 13.6374 C 48.3124 13.6381, 48.4197 13.7428, 48.4197 13.9515 Z" stroke="none" fill="#000000" />
			<rect />
		</svg>
	</g>
	<g transform="matrix(1 0 -0 1 9.77974 57.2964)">
		<svg width="195.03183" height="137.999954">
			<defs />
			<polyline points="-7.504 0 7.504 0" fill="none" stroke="#000000" stroke-width="0.857599974" stroke-linecap="round" stroke-linejoin="round" transform="matrix(1 0 0 1 7.504 12.8085)" />
			<polyline points="0 -7.504 0 7.504" fill="none" stroke="#000000" stroke-width="0.857599974" stroke-linecap="round" stroke-linejoin="round" transform="matrix(1 0 0 1 7.504 12.8085)" />
			<path d="M 30.5735 14.6276 C 30.5735 15.2983, 30.4472 15.9382, 30.1933 16.5467, 29.94 17.1559, 29.5739 17.7028, 29.0942 18.1876, 28.6082 18.6601, 28.0606 19.0211, 27.4515 19.2699, 26.8423 19.52, 26.1953 19.6444, 25.5118 19.6444, 24.9206 19.6444, 24.3692 19.5335, 23.8581 19.311, 23.3477 19.0891, 22.904 18.7852, 22.527 18.3985, 22.1499 18.0125, 21.8543 17.5643, 21.6395 17.0546, 21.4247 16.5454, 21.317 16.003, 21.317 15.4278, 21.317 15.0315, 21.4491 14.7327, 21.7133 14.5307, 21.9774 14.3294, 22.2506 14.2281, 22.5321 14.2275, 22.8283 14.2281, 23.1066 14.3275, 23.3669 14.5256, 23.6279 14.7244, 23.7581 15.0251, 23.7581 15.4278, 23.7581 15.6747, 23.7036 15.8818, 23.5946 16.0491, 23.4856 16.2171, 23.3516 16.3467, 23.1925 16.439, 23.0342 16.5313, 22.8565 16.5845, 22.659 16.5974 L 22.5321 16.5974, 22.3205 16.5974 C 22.4827 17.1725, 22.8597 17.6893, 23.4516 18.1472, 24.0434 18.6056, 24.7302 18.8346, 25.5118 18.8339, 25.9209 18.8346, 26.3191 18.7288, 26.7064 18.5165, 27.0937 18.3049, 27.4111 18.0241, 27.6573 17.6746, 27.9458 17.2578, 28.1311 16.7846, 28.2119 16.2543, 28.2927 15.7247, 28.3331 15.1822, 28.3331 14.6276, 28.3331 14.0671, 28.3158 13.5292, 28.2805 13.0124, 28.2459 12.4962, 28.101 12.0089, 27.8471 11.5498, 27.6643 11.215, 27.4303 10.9368, 27.145 10.7143, 26.8596 10.4924, 26.5409 10.3808, 26.1883 10.3802, 25.5189 10.3808, 24.9379 10.5161, 24.4448 10.7861, 23.9517 11.0567, 23.5535 11.4446, 23.2509 11.9499, 23.1874 12.0666, 23.0855 12.1249, 22.9444 12.1243 L 22.8597 12.1243 C 22.6135 12.1249, 22.4898 12.0121, 22.4898 11.7857 L 22.4898 4.58364 C 22.4898 4.40666, 22.5924 4.29381, 22.7963 4.24508, 22.8315 4.24572, 22.8578 4.24957, 22.8758 4.25598, 22.8937 4.26303, 22.9091 4.26624, 22.9232 4.2656, 23.9447 4.73112, 24.9975 4.96388, 26.0825 4.96323, 27.1815 4.96388, 28.235 4.73112, 29.2424 4.2656, 29.2565 4.26624, 29.2706 4.26303, 29.2847 4.25598, 29.2988 4.24957, 29.3199 4.24572, 29.3482 4.24508, 29.5803 4.24572, 29.6931 4.35152, 29.6861 4.56312, 29.6861 4.68687, 29.6649 4.76895, 29.6226 4.80934, 29.1225 5.49416, 28.487 6.02957, 27.7156 6.41558, 26.9443 6.80223, 26.1254 6.99523, 25.2585 6.99459, 24.5404 6.99523, 23.9203 6.91316, 23.3984 6.74837 L 23.3984 10.6674 C 23.6452 10.4084, 24.0171 10.1776, 24.5134 9.97558, 25.0104 9.77424, 25.5689 9.67293, 26.1883 9.67229, 26.7942 9.67293, 27.3668 9.81015, 27.9054 10.0833, 28.4447 10.3571, 28.9186 10.7123, 29.327 11.1496, 29.7496 11.6427, 30.0631 12.1884, 30.267 12.7867, 30.4716 13.3855, 30.5735 13.9992, 30.5735 14.6276 Z" stroke="none" fill="#000000" />
			<path d="M 48.247 13.9515 C 48.247 14.7406, 48.0926 15.4858, 47.7838 16.1872, 47.4749 16.8886, 47.0595 17.4958, 46.538 18.0088, 46.0172 18.5218, 45.4008 18.932, 44.6889 19.2382, 43.9771 19.5457, 43.2155 19.6988, 42.4028 19.6988, 41.3605 19.6988, 40.3595 19.4986, 39.3996 19.0975, 38.4404 18.6965, 37.5977 18.1292, 36.8714 17.3957, 36.1242 16.6217, 35.5563 15.7547, 35.1676 14.7949, 34.7796 13.8357, 34.5853 12.8353, 34.5853 11.7949, 34.5853 10.7559, 34.7796 9.75418, 35.1676 8.79105, 35.5563 7.82793, 36.1242 6.96622, 36.8714 6.20462, 37.5977 5.47246, 38.4404 4.90191, 39.3996 4.49363, 40.3595 4.08535, 41.3605 3.88121, 42.4028 3.88056, 43.2443 3.88121, 44.0098 4.05264, 44.6994 4.39418, 45.3897 4.73638, 45.9609 5.1656, 46.4137 5.68118 L 47.5783 4.03759 C 47.6215 3.93355, 47.7151 3.88121, 47.859 3.88056 L 47.9238 3.88056 C 48.1397 3.88121, 48.247 3.98917, 48.247 4.20509 L 48.247 9.92102 C 48.247 10.1311, 48.1397 10.239, 47.9238 10.2456 L 47.6758 10.2456 C 47.5031 10.2462, 47.3951 10.1487, 47.3519 9.95243, 47.3231 9.24841, 47.1812 8.58037, 46.926 7.94832, 46.6708 7.31692, 46.3312 6.76731, 45.9072 6.29949, 45.4833 5.83232, 44.9932 5.45872, 44.4357 5.17933, 43.8783 4.9006, 43.273 4.76058, 42.6187 4.75993, 41.7917 4.76058, 41.0229 4.93528, 40.311 5.28402, 39.5992 5.63342, 38.992 6.12152, 38.4888 6.74899, 37.9353 7.44778, 37.5584 8.23098, 37.3569 9.09988, 37.1554 9.96879, 37.0546 10.8671, 37.0546 11.7949, 37.0546 12.7168, 37.1554 13.6119, 37.3569 14.4808, 37.5584 15.3497, 37.9353 16.1329, 38.4888 16.8304, 38.9992 17.4592, 39.6142 17.9532, 40.3326 18.3124, 41.0517 18.6722, 41.8205 18.8515, 42.6397 18.8509, 43.3162 18.8515, 43.9509 18.7226, 44.5437 18.4642, 45.1365 18.2064, 45.6488 17.8518, 46.08 17.4016, 46.5112 16.9514, 46.8527 16.4332, 47.104 15.847, 47.3559 15.2607, 47.4815 14.6293, 47.4815 13.9515, 47.4815 13.7428, 47.5862 13.6381, 47.7942 13.6374 L 47.9238 13.6374 C 48.1397 13.6381, 48.247 13.7428, 48.247 13.9515 Z" stroke="none" fill="#000000" />
			<rect />
		</svg>
	</g>
	<g transform="matrix(1 0 -0 1 42.7987 90.8872)">
		<svg width="48.065773" height="54.1276474">
			<defs />
			<path d="M 14.1695 18.9346 C 14.0909 19.144, 13.9542 19.2487, 13.7599 19.2487, 13.0415 19.2068, 12.3256 19.1859, 11.6138 19.1859 L 11.2578 19.1859 C 10.4171 19.2003, 9.57237 19.2212, 8.7244 19.2487, 8.53073 19.2487, 8.42604 19.1584, 8.41164 18.9765 L 8.41164 18.8927, 8.45483 18.7148 C 8.51241 18.4851, 8.65243 18.3732, 8.87489 18.3798, 9.14119 18.3804, 9.3787 18.3719, 9.58676 18.3543, 9.79548 18.3372, 9.99701 18.2757, 10.1907 18.1704, 10.2627 18.1364, 10.3242 18.0873, 10.3739 18.0238, 10.4027 17.9689, 10.421 17.9126, 10.4275 17.8563 L 10.4275 17.7935, 10.1691 14.3179, 5.29523 14.3179, 3.58097 17.2492 C 3.48741 17.4173, 3.4403 17.5711, 3.4403 17.7098, 3.4403 17.8289, 3.47628 17.9375, 3.54826 18.0343, 3.7066 18.2653, 4.00168 18.3804, 4.43221 18.3798, 4.62654 18.3804, 4.73057 18.4642, 4.74497 18.631, 4.74497 18.6736, 4.73777 18.7187, 4.72337 18.7671 L 4.68084 18.9346 C 4.60167 19.144, 4.46166 19.2487, 4.26013 19.2487, 3.59929 19.2212, 2.945 19.2003, 2.29724 19.1859 L 2.00673 19.1859 C 1.446 19.1859, 0.878072 19.2068, 0.302945 19.2487, 0.194986 19.2487, 0.115816 19.214, 0.065435 19.144, 0.0222514 19.1028, 0.000659645 19.0537, 0.000659645 18.9974, 0.000659645 18.9562, 0.00785691 18.9143, 0.0222514 18.8718 L 0.065435 18.7148 C 0.123013 18.4851, 0.263687 18.3732, 0.486148 18.3798, 0.71646 18.3804, 0.942847 18.3562, 1.16531 18.3071, 1.38842 18.2587, 1.59714 18.1711, 1.79082 18.0454, 1.98514 17.9198, 2.16507 17.768, 2.32996 17.59, 2.49549 17.4121, 2.64271 17.2112, 2.77226 16.9874 L 10.3844 3.95384 C 10.5139 3.75886, 10.6794 3.66464, 10.881 3.67118 L 11.0858 3.67118 C 11.3161 3.67184, 11.445 3.7798, 11.4738 3.99571 L 12.4225 17.6365 C 12.4369 17.8184, 12.4585 17.9564, 12.4873 18.0507, 12.516 18.1449, 12.5664 18.2129, 12.6384 18.2542, 12.7392 18.3176, 12.906 18.3543, 13.1396 18.3647, 13.3738 18.3752, 13.6375 18.3804, 13.9319 18.3798, 14.1335 18.3804, 14.2342 18.4642, 14.2342 18.631, 14.2342 18.6736, 14.227 18.7187, 14.2126 18.7671 Z M 9.65154 6.89556 L 5.81278 13.4699, 10.1043 13.4699 Z" stroke="none" fill="#000000" />
			<rect />
		</svg>
	</g>
</svg>
