<?xml version="1.0"?>
<svg xmlns="http://www.w3.org/2000/svg" xmlns:xlink="http://www.w3.org/1999/xlink" width="256.904755" height="169.047623">
	<defs>
		<marker id="CustomMarker-01" markerUnits="strokeWidth" markerWidth="15.000001" markerHeight="9" viewBox="-15 -4.5 15 9" orient="auto-start-reverse">
			<path d="M 0 -0 L -10 -3, -8 -0.5, -8 0.5, -10 3 Z" fill="#000000" stroke="#000000" stroke-linejoin="round" />
		</marker>
		<marker id="CustomMarker-02" markerUnits="strokeWidth" markerWidth="15.000001" markerHeight="9" viewBox="-15 -4.5 15 9" orient="auto-start-reverse">
			<path d="M 0 -0 L -10 -3, -8 -0.5, -8 0.5, -10 3 Z" fill="#000000" stroke="#000000" stroke-linejoin="round" />
		</marker>
	</defs>
	<path d="M -463.943 0 L 463.943 0" fill="none" stroke="#000000" stroke-width="5.5999999" stroke-linecap="round" stroke-linejoin="round" marker-end="url(#CustomMarker-01)" transform="matrix(0.238095 0 0 0.238095 119.18 133.064)" />
	<path d="M -318.45 0 L 318.449 0" fill="none" stroke="#000000" stroke-width="12.8799992" stroke-linecap="round" stroke-linejoin="round" transform="matrix(0.238095 0 0 0.238095 107.996 133.064)" />
	<ellipse cx="1481.5846920013428" cy="444.39414024353027" rx="11.024999618530273" ry="11.024999618530273" stroke="none" fill="#000000" transform="matrix(0.238095 0 0 0.238095 -199.762 -54.0476)" />
	<g transform="matrix(1 0 -0 1 164.333 35.6066)">
		<svg width="44.9082985" height="45.2233963">
			<defs />
			<path d="M 12.9791 7.44427 C 12.8411 7.9395, 12.6052 8.39636, 12.272 8.81429, 11.9388 9.23279, 11.5421 9.59462, 11.0829 9.8992, 10.586 10.2416, 10.0564 10.4998, 9.49308 10.6738, 8.9303 10.8478, 8.3721 10.9349, 7.81848 10.9343 L 5.01605 10.9343, 3.83668 15.5144 C 3.79889 15.6495, 3.78 15.756, 3.78 15.835, 3.78 15.9088, 3.79603 15.9546, 3.82752 15.9724, 3.91569 16.0279, 4.08858 16.06, 4.34621 16.0691, 4.60441 16.0783, 4.88094 16.0829, 5.17635 16.0823, 5.35269 16.0829, 5.44085 16.1682, 5.44085 16.3388 L 5.44085 16.4029, 5.40307 16.5678 C 5.33379 16.751, 5.21128 16.8426, 5.03494 16.8426, 4.24889 16.806, 3.4594 16.7876, 2.66704 16.7876, 1.86839 16.7876, 1.06974 16.806, 0.270517 16.8426, 0.101054 16.8426, 0.0100247 16.7636, -0.00314299 16.6044 L -0.00314299 16.5311, 0.0346427 16.3754 C 0.0850235 16.1745, 0.207541 16.0766, 0.402194 16.0823, 0.698181 16.0829, 0.978139 16.0783, 1.24207 16.0691, 1.50657 16.06, 1.70122 16.0279, 1.82717 15.9724, 1.94683 15.906, 2.03785 15.7411, 2.10083 15.4777 L 4.75212 5.15423 C 4.78991 5.02027, 4.80823 4.91664, 4.80823 4.84279, 4.80823 4.77008, 4.79277 4.72714, 4.76128 4.71455, 4.67312 4.66016, 4.50194 4.62695, 4.24717 4.61436, 3.9924 4.60234, 3.71416 4.59604, 3.41188 4.59547, 3.23612 4.59604, 3.14795 4.5136, 3.14795 4.34814 L 3.14795 4.27486, 3.20463 4.11914 C 3.24241 3.93651, 3.35921 3.84491, 3.55386 3.84433 L 9.60128 3.84433 C 10.1555 3.84491, 10.6696 3.93193, 11.1442 4.10597, 11.6194 4.28001, 12.0264 4.54108, 12.3659 4.88859, 12.6739 5.21263, 12.8909 5.59736, 13.0169 6.04277, 13.0547 6.25116, 13.0736 6.46185, 13.0736 6.67482, 13.0736 6.91986, 13.0421 7.17634, 12.9791 7.44427 Z M 10.9696 7.39847 C 11.0766 7.01432, 11.1488 6.64162, 11.1866 6.28093 L 11.1866 6.11605 C 11.1866 5.83552, 11.1081 5.57904, 10.9507 5.3466, 10.7434 5.07237, 10.4663 4.87886, 10.1205 4.7655, 9.77475 4.65272, 9.40033 4.59604, 8.99786 4.59547 L 7.22365 4.59547 C 6.90304 4.59604, 6.71125 4.62066, 6.64827 4.66932, 6.5853 4.71856, 6.51946 4.89203, 6.45019 5.19088 L 5.13857 10.2473, 7.49731 10.2473 C 7.90608 10.2479, 8.31542 10.19, 8.7242 10.0738, 9.13297 9.95817, 9.51655 9.7595, 9.87494 9.47783, 10.1961 9.2036, 10.4337 8.88299, 10.5877 8.51659, 10.7417 8.15018, 10.8688 7.77748, 10.9696 7.39847 Z" stroke="none" fill="#000000" />
			<rect />
		</svg>
	</g>
	<g transform="matrix(1 0 -0 1 138.783 87.1859)">
		<svg width="29.9820557" height="32.8723297">
			<defs />
			<path d="M 8.45998 14.0579 C 8.38498 14.3579, 8.30025 14.6785, 8.20578 15.0203, 8.11132 15.3627, 7.98537 15.6798, 7.82793 15.973, 7.67106 16.2661, 7.47297 16.5197, 7.23366 16.7332, 6.99493 16.9468, 6.69607 17.0533, 6.33711 17.0533, 5.85964 17.0533, 5.4772 16.921, 5.19095 16.6554, 4.90469 16.3897, 4.73981 16.1195, 4.69573 15.8441, 4.48161 16.0892, 4.16272 16.352, 3.73792 16.6325, 3.31369 16.913, 2.86541 17.0533, 2.39366 17.0533, 1.89673 17.0533, 1.47994 16.9285, 1.1433 16.6783, 0.806667 16.4281, 0.544458 16.1132, 0.35553 15.7342, 0.129388 15.2831, 0.00973374 14.7976, -0.00286144 14.2778 L -0.00286144 14.1403 C -0.00286144 13.6583, 0.0635496 13.1762, 0.195227 12.693, 0.34637 12.1623, 0.557053 11.6373, 0.827278 11.1181, 1.09807 10.5994, 1.45647 10.1167, 1.90302 9.67019, 2.26828 9.30436, 2.68507 8.99635, 3.15338 8.74559, 3.6217 8.4954, 4.09803 8.37002, 4.58237 8.36945, 5.00374 8.37002, 5.34667 8.48166, 5.6106 8.70437, 5.8751 8.92765, 6.0417 9.112, 6.11097 9.25799 L 6.07318 9.41371 C 6.11727 9.18814, 6.22261 9.01753, 6.38921 8.90131, 6.55638 8.78566, 6.7247 8.72727, 6.89416 8.7267, 7.08882 8.72727, 7.25255 8.78509, 7.3848 8.90074, 7.46667 8.99291, 7.51076 9.11486, 7.51648 9.26715, 7.51648 9.32268, 7.51018 9.38394, 7.49759 9.45035 L 6.13902 14.7449 C 6.07605 14.9957, 6.03196 15.231, 6.00677 15.4503, 5.99475 15.5607, 5.98845 15.6615, 5.98845 15.7525, 5.98845 15.8327, 5.99475 15.918, 6.00677 16.009, 6.02624 16.1562, 6.07032 16.2661, 6.13902 16.3394, 6.2083 16.4126, 6.30562 16.4493, 6.43158 16.4487, 6.56383 16.4493, 6.68806 16.3943, 6.80428 16.2844, 6.92107 16.1745, 7.02813 16.0113, 7.12546 15.7943, 7.22278 15.5779, 7.31553 15.318, 7.4037 15.0157, 7.49186 14.7134, 7.58289 14.3854, 7.67678 14.0304, 7.71457 13.8724, 7.82163 13.7928, 7.99796 13.7923 L 8.21494 13.7923 C 8.37868 13.7928, 8.45998 13.8598, 8.45998 13.9938 L 8.45998 14.0579 Z M 5.76174 10.687 C 5.73655 10.5776, 5.71479 10.4631, 5.6959 10.344, 5.67701 10.225, 5.64838 10.1076, 5.6106 9.9908, 5.51041 9.70454, 5.36728 9.46466, 5.18179 9.2723, 4.99629 9.07994, 4.76156 8.98375, 4.47874 8.98318, 4.21482 8.98375, 3.95375 9.07879, 3.69555 9.26772, 3.43792 9.45722, 3.20205 9.70111, 2.98793 9.99996, 2.68622 10.4219, 2.46008 10.8604, 2.30893 11.315, 2.15779 11.7702, 2.01924 12.2448, 1.89329 12.7388, 1.76791 13.2278, 1.66429 13.7012, 1.58185 14.1587, 1.53204 14.3911, 1.50685 14.611, 1.50685 14.8182, 1.50685 15.0386, 1.53204 15.2522, 1.58185 15.4594, 1.6391 15.7468, 1.741 15.9838, 1.88871 16.1699, 2.03642 16.3565, 2.24252 16.4493, 2.50645 16.4487, 2.79614 16.4493, 3.08697 16.3485, 3.37953 16.147, 3.67208 15.9455, 3.94402 15.6981, 4.19535 15.4045, 4.29611 15.2831, 4.3923 15.1657, 4.48332 15.0524, 4.57493 14.9396, 4.65508 14.8188, 4.72378 14.69 L 5.76174 10.687 Z" stroke="none" fill="#000000" />
			<rect />
		</svg>
	</g>
	<g transform="matrix(1 0 -0 1 102.464 137.642)">
		<svg width="38.880394" height="45.2233963">
			<defs />
			<path d="M 9.44326 16.5953 C 9.38716 16.7602, 9.26407 16.8426, 9.07514 16.8426 L 0.27452 16.8426 C 0.180056 16.8426, 0.110782 16.8151, 0.0666986 16.7602, 0.0231878 16.7178, 0.00143247 16.672, 0.000859957 16.6228, 0.00143247 16.5867, 0.00773007 16.55, 0.0197528 16.5128 L 0.0575384 16.3754 C 0.0764312 16.2964, 0.120514 16.2283, 0.189788 16.1699, 0.259062 16.1121, 0.337496 16.0829, 0.42509 16.0823, 0.721077 16.0829, 0.998172 16.0783, 1.2558 16.0691, 1.51343 16.06, 1.70866 16.0279, 1.84033 15.9724, 1.95369 15.9117, 2.04128 15.7468, 2.10426 15.4777 L 4.77387 5.15423 C 4.79906 5.03859, 4.81166 4.94699, 4.81166 4.87943, 4.81166 4.7884, 4.79277 4.73058, 4.75498 4.70539, 4.67368 4.6573, 4.50365 4.62695, 4.24602 4.61436, 3.98839 4.60234, 3.7113 4.59604, 3.41531 4.59547, 3.32142 4.59604, 3.25214 4.56569, 3.20806 4.50386, 3.17027 4.4678, 3.15138 4.422, 3.15138 4.36646, 3.15138 4.33039, 3.16111 4.29662, 3.17943 4.2657 L 3.20806 4.11914 C 3.27733 3.93651, 3.39985 3.84491, 3.57561 3.84433, 4.31186 3.88155, 5.0504 3.89987, 5.79237 3.89929, 5.91832 3.89987, 6.04771 3.89357, 6.17938 3.88097, 7.04101 3.88155, 7.9181 3.86952, 8.81121 3.84433, 8.89938 3.84491, 8.97495 3.87525, 9.03735 3.93593, 9.06254 3.98517, 9.07514 4.03097, 9.07514 4.07334, 9.07514 4.11055, 9.06598 4.14433, 9.04709 4.1741 L 9.01846 4.3115 C 9.00014 4.39165, 8.95777 4.45864, 8.89136 4.5136, 8.82552 4.56856, 8.74537 4.59604, 8.65091 4.59547, 8.30511 4.59604, 7.95817 4.60234, 7.60894 4.61436, 7.25971 4.62695, 7.00323 4.66016, 6.83949 4.71455, 6.68262 4.77638, 6.5727 4.93496, 6.50972 5.19088 L 3.859 15.5235 C 3.79603 15.7377, 3.76454 15.8968, 3.76454 15.9999 L 3.76454 16.0365 C 3.78973 16.0617, 3.96606 16.0766, 4.29296 16.0823 L 5.95267 16.0823 C 6.39923 16.0829, 6.84464 16.0188, 7.28776 15.8905, 7.73146 15.7623, 8.13565 15.5424, 8.49977 15.2304, 8.9406 14.8829, 9.29441 14.4237, 9.5612 13.8524, 9.82856 13.2816, 10.0787 12.6936, 10.3112 12.0885, 10.3616 11.9242, 10.4715 11.8417, 10.641 11.8411 L 10.8201 11.8411 C 10.9839 11.8417, 11.0658 11.9213, 11.0658 12.0793 L 11.0658 12.1526 Z" stroke="none" fill="#000000" />
			<rect />
		</svg>
	</g>
	<path d="M 0 306.25 L 0 -306.25" fill="none" stroke="#000000" stroke-width="5.5999999" stroke-linecap="round" stroke-linejoin="round" marker-end="url(#CustomMarker-02)" transform="matrix(0.238095 0 0 0.238095 152.996 86.4478)" />
	<g transform="matrix(1 0 -0 1 239.233 120.666)">
		<svg width="33.1395264" height="32.8723297">
			<defs />
			<path d="M 9.12724 9.8992 C 9.05854 10.1746, 8.91827 10.3807, 8.70759 10.5181, 8.4969 10.6555, 8.28508 10.7242, 8.07096 10.7236, 7.85111 10.7242, 7.66848 10.6538, 7.52364 10.5129, 7.41715 10.4099, 7.36047 10.2753, 7.3536 10.1099, 7.3536 10.0435, 7.3662 9.95759, 7.39139 9.8534, 7.46123 9.6221, 7.56829 9.44634, 7.71257 9.32726, 7.85741 9.20818, 7.95817 9.13948, 8.01428 9.12058, 7.8952 9.02955, 7.64959 8.98375, 7.2786 8.98318, 6.9517 8.98375, 6.65915 9.15322, 6.40152 9.49214, 6.14389 9.83107, 5.95153 10.2387, 5.82557 10.7144 L 4.95765 14.0671 C 4.87006 14.4037, 4.80422 14.7243, 4.75956 15.0289, 4.73494 15.1331, 4.72235 15.2247, 4.72235 15.3037, 4.72235 15.4938, 4.75384 15.6735, 4.81624 15.8441, 4.87922 16.0279, 4.97368 16.1745, 5.09963 16.2844, 5.22558 16.3943, 5.38589 16.4493, 5.58054 16.4487, 5.83244 16.4493, 6.07462 16.384, 6.30705 16.2523, 6.53949 16.1212, 6.75361 15.9443, 6.94827 15.721, 7.14349 15.4983, 7.31639 15.239, 7.46753 14.9424, 7.61867 14.6464, 7.73776 14.3424, 7.82535 14.0304, 7.86314 13.8724, 7.9702 13.7928, 8.14653 13.7923 L 8.36294 13.7923 C 8.52667 13.7928, 8.60854 13.8541, 8.60854 13.9755, 8.60854 14.0127, 8.59938 14.0465, 8.57992 14.0762, 8.49232 14.4432, 8.3492 14.805, 8.15111 15.1623, 7.95302 15.5195, 7.7223 15.8356, 7.4578 16.1104, 7.19387 16.3852, 6.89388 16.6113, 6.55724 16.7876, 6.22061 16.9651, 5.8605 17.0533, 5.47692 17.0533, 5.08704 17.0533, 4.7504 16.9697, 4.46758 16.8014, 4.18476 16.6342, 3.95518 16.4155, 3.77885 16.1464, 3.72275 16.08, 3.67866 16.0113, 3.64717 15.9409, 3.61569 15.871, 3.60595 15.8602, 3.61855 15.9083, 3.46741 16.159, 3.22867 16.4126, 2.90177 16.6691, 2.57486 16.9256, 2.19758 17.0533, 1.76934 17.0533, 1.53061 17.0533, 1.29473 17.0229, 1.06229 16.9617, 0.829854 16.901, 0.626613 16.8065, 0.453715 16.6783, 0.280817 16.55, 0.150285 16.3943, 0.0621184 16.2105, 0.0186076 16.1012, -0.00314775 15.9821, -0.00372026 15.8533, -0.00314775 15.7623, 0.00944747 15.6552, 0.0340654 15.5327, 0.103339 15.2585, 0.244749 15.0524, 0.458295 14.915, 0.672414 14.7776, 0.88596 14.7089, 1.10008 14.7083, 1.31992 14.7089, 1.50885 14.7793, 1.66572 14.919, 1.77278 15.0232, 1.82602 15.1577, 1.82602 15.322, 1.82602 15.4079, 1.81343 15.4938, 1.78824 15.5785, 1.73213 15.7926, 1.62965 15.9655, 1.48194 16.0966, 1.33423 16.2283, 1.22889 16.2999, 1.16592 16.3113, 1.28557 16.4098, 1.52774 16.4556, 1.89243 16.4487, 2.21933 16.4493, 2.51475 16.2787, 2.77868 15.9363, 3.04318 15.5945, 3.23497 15.1852, 3.35405 14.7083 L 4.23171 11.3373 C 4.31987 11.0202, 4.38857 10.7087, 4.43896 10.403, 4.45155 10.3057, 4.45785 10.2141, 4.45785 10.1282, 4.45785 9.93927, 4.42979 9.76237, 4.37312 9.59691, 4.31014 9.41428, 4.21281 9.26657, 4.08056 9.15322, 3.94889 9.04043, 3.78515 8.98375, 3.58992 8.98318, 3.33859 8.98375, 3.09527 9.04959, 2.8594 9.1807, 2.62353 9.31237, 2.40826 9.48756, 2.21304 9.70741, 2.01838 9.92725, 1.84549 10.1826, 1.69434 10.4723, 1.5432 10.7625, 1.43328 11.0694, 1.36401 11.3923, 1.2953 11.5578, 1.17851 11.6431, 1.01477 11.6488 L 0.807526 11.6488 C 0.656383 11.6494, 0.580812 11.5732, 0.580812 11.4198 L 0.580812 11.3557 C 0.675276 10.9778, 0.820121 10.6097, 1.01477 10.2524, 1.21 9.89519, 1.44301 9.57916, 1.71324 9.30436, 1.98346 9.02955, 2.28575 8.80513, 2.61895 8.63109, 2.95215 8.45704, 3.31397 8.37002, 3.70328 8.36945, 4.08114 8.37002, 4.41434 8.45246, 4.70345 8.61735, 4.99257 8.78223, 5.22845 9.00207, 5.4105 9.27631, 5.44829 9.34386, 5.48321 9.416, 5.5147 9.49214, 5.54619 9.56886, 5.55535 9.58832, 5.54275 9.55111, 5.70019 9.28318, 5.94237 9.01925, 6.26927 8.75933, 6.59617 8.49998, 6.97002 8.37002, 7.39139 8.36945, 7.6307 8.37002, 7.86829 8.39922, 8.10416 8.45704, 8.34004 8.51544, 8.54385 8.60819, 8.71675 8.73643, 8.88965 8.86467, 9.01731 9.02326, 9.09918 9.21218, 9.14327 9.32268, 9.16502 9.44806, 9.16502 9.58775, 9.16502 9.67992, 9.15243 9.78355, 9.12724 9.8992 Z" stroke="none" fill="#000000" />
			<rect />
		</svg>
	</g>
	<g transform="matrix(1 0 -0 1 132.921 2.32368)">
		<svg width="29.9820557" height="41.7765884">
			<defs />
			<path d="M 6.57986 16.7693 C 6.44818 17.2823, 6.24036 17.7724, 5.95754 18.2395, 5.67472 18.7067, 5.34095 19.1223, 4.95737 19.4853, 4.57378 19.8488, 4.14326 20.1437, 3.66521 20.3693, 3.18717 20.5954, 2.69023 20.7082, 2.1744 20.7082, 1.86639 20.7082, 1.58357 20.6521, 1.32594 20.5387, 1.06831 20.4259, 0.857624 20.2731, 0.693887 20.0807, 0.530149 19.8883, 0.420227 19.6611, 0.363548 19.3983, 0.338358 19.2826, 0.325763 19.1635, 0.325763 19.041, 0.325763 18.8824, 0.344656 18.7204, 0.382441 18.5555, 0.451715 18.2807, 0.593125 18.0746, 0.806671 17.9372, 1.02079 17.7998, 1.23147 17.7311, 1.43872 17.7311, 1.65914 17.7311, 1.84463 17.8015, 1.9952 17.9418, 2.10226 18.046, 2.1555 18.18, 2.1555 18.3449, 2.1555 18.4124, 2.14291 18.4949, 2.11772 18.5922, 2.04902 18.867, 1.90761 19.0731, 1.69349 19.2105, 1.47994 19.3479, 1.30991 19.4166, 1.18395 19.4166, 1.22174 19.5815, 1.33968 19.7361, 1.53777 19.8792, 1.73585 20.0229, 1.98948 20.0944, 2.29749 20.0944, 2.63698 20.0944, 2.95473 20.0028, 3.25014 19.8196, 3.54556 19.6364, 3.81635 19.3908, 4.06139 19.0823, 4.30642 18.7742, 4.52169 18.417, 4.70718 18.0105, 4.89267 17.6046, 5.0421 17.1787, 5.15546 16.7327 L 5.21213 16.5128 C 5.11824 16.5987, 4.92015 16.7103, 4.61787 16.8472, 4.31616 16.9846, 3.98582 17.0533, 3.62743 17.0533, 3.19976 17.0533, 2.8179 16.9743, 2.48126 16.8151, 2.14463 16.6571, 1.87898 16.4126, 1.68433 16.0823, 1.4954 15.7285, 1.40437 15.338, 1.41067 14.9098 L 1.41067 14.8365 C 1.42326 14.3911, 1.47994 13.9486, 1.58013 13.5083, 1.68089 13.0875, 1.82746 12.6238, 2.01925 12.1165, 2.21104 11.6099, 2.39481 11.1181, 2.57057 10.6412, 2.7595 10.1351, 2.85397 9.71943, 2.85397 9.39539, 2.85397 9.12116, 2.73775 8.98375, 2.50473 8.98318, 2.29119 8.98375, 2.09768 9.04501, 1.92478 9.16696, 1.75188 9.28947, 1.59502 9.45894, 1.45303 9.67535, 1.31162 9.89233, 1.18453 10.1488, 1.07117 10.4448, 0.957814 10.7414, 0.863349 11.0568, 0.787778 11.3923, 0.719077 11.5578, 0.602858 11.6431, 0.43912 11.6488 L 0.222139 11.6488 C 0.070996 11.6494, -0.00457531 11.5732, -0.00457531 11.4198 L -0.00457531 11.3557 C 0.0835912 11.0202, 0.200383 10.6772, 0.344656 10.3257, 0.489501 9.97477, 0.672131 9.65588, 0.891975 9.36848, 1.11182 9.08165, 1.36372 8.84349, 1.64654 8.65399, 1.92936 8.46506, 2.2534 8.37002, 2.61809 8.36945, 2.93297 8.37002, 3.20148 8.43758, 3.42476 8.57155, 3.64804 8.70609, 3.8175 8.88471, 3.93372 9.10742, 4.05051 9.33069, 4.11463 9.58203, 4.12723 9.86256 L 4.12723 9.92668 C 4.12723 10.19, 4.07398 10.4614, 3.96692 10.7419, 3.78487 11.2188, 3.60395 11.706, 3.42476 12.2035, 3.24556 12.7016, 3.10587 13.1488, 3.00511 13.5455, 2.90435 13.9428, 2.83507 14.3361, 2.79729 14.7266, 2.7721 14.8308, 2.75664 14.9442, 2.74977 15.0655, 2.74977 15.3043, 2.79099 15.5396, 2.87286 15.7709, 2.92954 15.9792, 3.03316 16.1441, 3.1843 16.2661, 3.33545 16.3886, 3.51464 16.4493, 3.72189 16.4487, 4.12436 16.4493, 4.47646 16.3302, 4.77817 16.092, 5.08046 15.8539, 5.34438 15.5424, 5.57052 15.1571 L 7.08939 9.24883 C 7.14607 9.02326, 7.26057 8.85723, 7.43347 8.75017, 7.60637 8.64368, 7.78098 8.58987, 7.95674 8.58929, 8.13937 8.58987, 8.29052 8.64483, 8.4096 8.75418, 8.49204 8.83433, 8.53269 8.94081, 8.53269 9.07478, 8.53269 9.14234, 8.52639 9.21276, 8.5138 9.28547 Z" stroke="none" fill="#000000" />
			<rect />
		</svg>
	</g>
	<path d="M -253.725 170.737 L 253.725 -170.737" fill="none" stroke="#000000" stroke-width="5.5999999" stroke-linecap="round" stroke-linejoin="round" stroke-dasharray="19.628, 13.972" transform="matrix(0.238095 0 0 0.238095 92.5857 92.4123)" />
	<path d="M 64.7244 170.737 L -64.7244 -170.737" fill="none" stroke="#000000" stroke-width="5.5999999" stroke-linecap="round" stroke-linejoin="round" stroke-dasharray="19.628, 13.972" transform="matrix(0.238095 0 0 0.238095 168.407 92.4123)" />
	<path d="M 85.7597 -57.7098 C 97.238 -40.6525, 103.369 -20.5598, 103.369 -3.87826e-005" fill="none" stroke="#000000" stroke-width="5.5999999" stroke-linecap="round" stroke-linejoin="round" transform="matrix(0.238095 0 -0 0.238095 32.175 133.064)" />
	<g transform="matrix(1 0 -0 1 67.7379 108.735)">
		<svg width="44.9082985" height="54.1276474">
			<defs />
			<path d="M 7.9765 5.50232 C 8.12764 6.08285, 8.20264 6.67539, 8.20264 7.27939, 8.20264 7.46947, 8.19634 7.65267, 8.18374 7.829, 8.12134 8.63567, 7.98623 9.44462, 7.77841 10.2564, 7.55227 11.0751, 7.26601 11.8864, 6.92022 12.689, 6.57442 13.4923, 6.11469 14.2629, 5.54218 15.0014, 5.34753 15.2522, 5.13169 15.5001, 4.89582 15.7439, 4.65995 15.9884, 4.4069 16.2065, 4.13667 16.3989, 3.86645 16.5913, 3.58477 16.7487, 3.29222 16.8701, 2.99967 16.9926, 2.6928 17.0533, 2.3722 17.0533, 2.0453 17.0533, 1.76362 16.9909, 1.52775 16.8655, 1.29187 16.7407, 1.0892 16.5792, 0.919168 16.3806, 0.749705 16.1825, 0.609441 15.9609, 0.499519 15.7165, 0.389597 15.4726, 0.299713 15.2218, 0.230439 14.9648, 0.0735714 14.3974, -0.00543487 13.8112, -0.00543487 13.206, -0.00543487 13.0114, 0.00716031 12.819, 0.0323508 12.6289, 0.0827316 11.8354, 0.217844 11.0328, 0.437688 10.2198, 0.645509 9.40226, 0.925466 8.5933, 1.27756 7.79293, 1.63023 6.99314, 2.09854 6.22025, 2.68364 5.47484, 2.87887 5.22523, 3.09299 4.97618, 3.32543 4.72886, 3.55787 4.48154, 3.80633 4.26169, 4.07026 4.06933, 4.33476 3.87697, 4.613 3.7201, 4.90555 3.59758, 5.19811 3.47564, 5.50783 3.41438, 5.83474 3.41381, 6.16221 3.41438, 6.44217 3.47735, 6.67461 3.60216, 6.90705 3.72754, 7.11315 3.88784, 7.29235 4.08307, 7.47211 4.27887, 7.61352 4.50157, 7.71715 4.75176, 7.82135 5.00252, 7.90779 5.25271, 7.9765 5.50232 Z M 6.70266 5.71301 C 6.67747 5.47541, 6.64598 5.25271, 6.6082 5.04489, 6.57041 4.83764, 6.51545 4.6573, 6.44332 4.50444, 6.37118 4.35215, 6.27843 4.23421, 6.16508 4.15177, 6.05172 4.06933, 5.90745 4.02811, 5.73111 4.02754, 5.36642 4.02811, 5.02979 4.19757, 4.72178 4.5365, 4.41377 4.87542, 4.11492 5.28019, 3.82523 5.74965, 3.41016 6.42177, 3.08955 7.11222, 2.86284 7.82041, 2.63613 8.52918, 2.44147 9.21276, 2.27773 9.87172 L 6.11756 9.87172 C 6.28759 9.18241, 6.44503 8.47994, 6.5893 7.76488, 6.69007 7.28283, 6.74045 6.8065, 6.74045 6.3359, 6.74045 6.12865, 6.72785 5.9214, 6.70266 5.71301 Z M 2.07965 10.6137 C 1.91018 11.3041, 1.7619 12.0003, 1.63595 12.7022, 1.53576 13.2094, 1.48538 13.7167, 1.48538 14.2228, 1.48538 14.4129, 1.49168 14.5961, 1.50427 14.7724, 1.51687 15.0111, 1.54549 15.2344, 1.589 15.4417, 1.63309 15.6495, 1.69148 15.8281, 1.76362 15.9775, 1.83576 16.1275, 1.93194 16.2432, 2.05159 16.3256, 2.17125 16.4081, 2.31609 16.4493, 2.48555 16.4487, 2.84395 16.4493, 3.17886 16.2815, 3.49031 15.9455, 3.80175 15.61, 4.09545 15.2064, 4.37255 14.7358, 4.78762 14.0522, 5.10822 13.3594, 5.33494 12.657, 5.56165 11.9551, 5.7563 11.2738, 5.91947 10.6137 Z" stroke="none" fill="#000000" />
			<path d="M 2.37267 3.19713 C 1.72472 3.17661, 1.09441 3.16635, 0.481416 3.16635, -0.131261 3.16635, -0.761571 3.17661, -1.40951 3.19713 L -1.40951 2.75598, -1.04499 2.75598 C -0.928927 2.7563, -0.819601 2.75469, -0.717648 2.75117, -0.615375 2.74796, -0.518552 2.7393, -0.426859 2.72552, -0.335166 2.71205, -0.255976 2.69827, -0.18929 2.68416, -0.132864 2.67422, -0.086376 2.6428, -0.0495062 2.58958, -0.012316 2.53668, 0.00595856 2.47769, 0.00595856 2.41229 L 0.00595856 -3.36887 C -0.169733 -3.28295, -0.386463 -3.21787, -0.643588 -3.17362, -0.900714 -3.12906, -1.18221 -3.10694, -1.4887 -3.10726 L -1.4887 -3.54328 C -1.06615 -3.54296, -0.675969 -3.59329, -0.318494 -3.69429, 0.0389807 -3.79496, 0.348044 -3.98411, 0.608376 -4.26144 L 0.772206 -4.26144 C 0.888265 -4.26112, 0.946294 -4.20469, 0.946294 -4.09216 L 0.946294 2.41229 C 0.946294 2.4809, 0.963928 2.54085, 0.999194 2.59215, 1.03446 2.64344, 1.08576 2.67422, 1.15244 2.68416, 1.20887 2.69827, 1.28133 2.71205, 1.36917 2.72552, 1.45702 2.7393, 1.55641 2.74796, 1.66734 2.75117, 1.77827 2.75469, 1.88663 2.7563, 1.99243 2.75598 L 2.37267 2.75598, 2.37267 3.19713 Z" stroke="none" fill="#000000" transform="matrix(1.12 0 0 1 10.6711 16.3063)" />
			<rect />
		</svg>
	</g>
	<path d="M -21.0793 -55.6051 C 9.63061 -67.2468, 43.9634 -51.7891, 55.6052 -21.0792, 58.1582 -14.3446, 59.4665 -7.20231, 59.4665 -5.99344e-005" fill="none" stroke="#000000" stroke-width="5.5999999" stroke-linecap="round" stroke-linejoin="round" transform="matrix(0.238095 0 -0 0.238095 183.817 133.064)" />
	<g transform="matrix(1 0 -0 1 194.684 97.187)">
		<svg width="48.065773" height="54.1276474">
			<defs />
			<path d="M 7.9765 5.50232 C 8.12764 6.08285, 8.20264 6.67539, 8.20264 7.27939, 8.20264 7.46947, 8.19634 7.65267, 8.18374 7.829, 8.12134 8.63567, 7.98623 9.44462, 7.77841 10.2564, 7.55227 11.0751, 7.26601 11.8864, 6.92022 12.689, 6.57442 13.4923, 6.11469 14.2629, 5.54218 15.0014, 5.34753 15.2522, 5.13169 15.5001, 4.89582 15.7439, 4.65995 15.9884, 4.4069 16.2065, 4.13667 16.3989, 3.86645 16.5913, 3.58477 16.7487, 3.29222 16.8701, 2.99967 16.9926, 2.6928 17.0533, 2.3722 17.0533, 2.0453 17.0533, 1.76362 16.9909, 1.52775 16.8655, 1.29187 16.7407, 1.0892 16.5792, 0.919168 16.3806, 0.749705 16.1825, 0.609441 15.9609, 0.499519 15.7165, 0.389597 15.4726, 0.299713 15.2218, 0.230439 14.9648, 0.0735714 14.3974, -0.00543487 13.8112, -0.00543487 13.206, -0.00543487 13.0114, 0.00716031 12.819, 0.0323508 12.6289, 0.0827316 11.8354, 0.217844 11.0328, 0.437688 10.2198, 0.645509 9.40226, 0.925466 8.5933, 1.27756 7.79293, 1.63023 6.99314, 2.09854 6.22025, 2.68364 5.47484, 2.87887 5.22523, 3.09299 4.97618, 3.32543 4.72886, 3.55787 4.48154, 3.80633 4.26169, 4.07026 4.06933, 4.33476 3.87697, 4.613 3.7201, 4.90555 3.59758, 5.19811 3.47564, 5.50783 3.41438, 5.83474 3.41381, 6.16221 3.41438, 6.44217 3.47735, 6.67461 3.60216, 6.90705 3.72754, 7.11315 3.88784, 7.29235 4.08307, 7.47211 4.27887, 7.61352 4.50157, 7.71715 4.75176, 7.82135 5.00252, 7.90779 5.25271, 7.9765 5.50232 Z M 6.70266 5.71301 C 6.67747 5.47541, 6.64598 5.25271, 6.6082 5.04489, 6.57041 4.83764, 6.51545 4.6573, 6.44332 4.50444, 6.37118 4.35215, 6.27843 4.23421, 6.16508 4.15177, 6.05172 4.06933, 5.90745 4.02811, 5.73111 4.02754, 5.36642 4.02811, 5.02979 4.19757, 4.72178 4.5365, 4.41377 4.87542, 4.11492 5.28019, 3.82523 5.74965, 3.41016 6.42177, 3.08955 7.11222, 2.86284 7.82041, 2.63613 8.52918, 2.44147 9.21276, 2.27773 9.87172 L 6.11756 9.87172 C 6.28759 9.18241, 6.44503 8.47994, 6.5893 7.76488, 6.69007 7.28283, 6.74045 6.8065, 6.74045 6.3359, 6.74045 6.12865, 6.72785 5.9214, 6.70266 5.71301 Z M 2.07965 10.6137 C 1.91018 11.3041, 1.7619 12.0003, 1.63595 12.7022, 1.53576 13.2094, 1.48538 13.7167, 1.48538 14.2228, 1.48538 14.4129, 1.49168 14.5961, 1.50427 14.7724, 1.51687 15.0111, 1.54549 15.2344, 1.589 15.4417, 1.63309 15.6495, 1.69148 15.8281, 1.76362 15.9775, 1.83576 16.1275, 1.93194 16.2432, 2.05159 16.3256, 2.17125 16.4081, 2.31609 16.4493, 2.48555 16.4487, 2.84395 16.4493, 3.17886 16.2815, 3.49031 15.9455, 3.80175 15.61, 4.09545 15.2064, 4.37255 14.7358, 4.78762 14.0522, 5.10822 13.3594, 5.33494 12.657, 5.56165 11.9551, 5.7563 11.2738, 5.91947 10.6137 Z" stroke="none" fill="#000000" />
			<path d="M 2.39138 3.19713 L -1.90858 3.19713, -1.90858 2.915 C -1.90858 2.8948, -1.898 2.86402, -1.87684 2.82266 L -0.149418 0.945196 C 0.0551279 0.71981, 0.261918 0.488975, 0.471594 0.253009, 0.68127 0.0170434, 0.868504 -0.224052, 1.03394 -0.470277, 1.19937 -0.716502, 1.33146 -0.970422, 1.4302 -1.23204, 1.52895 -1.49365, 1.578 -1.76809, 1.578 -2.05567, 1.578 -2.29805, 1.54658 -2.52472, 1.4831 -2.73503, 1.41962 -2.94535, 1.32825 -3.13002, 1.20835 -3.28904, 1.08844 -3.44806, 0.938716 -3.5763, 0.759177 -3.67377, 0.579638 -3.77123, 0.371886 -3.81996, 0.13592 -3.82028, -0.216105 -3.81996, -0.527092 -3.7148, -0.7964 -3.50449, -1.06571 -3.29417, -1.24461 -3.06237, -1.33277 -2.80974, -1.35009 -2.80268, -1.32187 -2.79915, -1.24813 -2.79948 L -1.15836 -2.79948 C -1.05256 -2.77511, -0.961191 -2.73824, -0.883605 -2.68887, -0.806018 -2.63917, -0.740935 -2.57088, -0.688036 -2.48368, -0.635136 -2.39647, -0.608846 -2.29132, -0.608846 -2.16852, -0.608846 -1.96302, -0.675532 -1.8056, -0.809545 -1.69627, -0.943558 -1.58663, -1.09328 -1.53212, -1.25871 -1.53244, -1.41709 -1.53212, -1.56489 -1.58663, -1.70243 -1.69627, -1.83965 -1.8056, -1.90858 -1.96302, -1.90858 -2.16852, -1.90858 -2.45547, -1.85215 -2.72734, -1.7393 -2.98382, -1.62645 -3.24031, -1.47352 -3.46249, -1.27987 -3.65068, -1.08623 -3.83856, -0.857315 -3.98732, -0.593136 -4.09697, -0.328958 -4.20629, -0.0487483 -4.26112, 0.24685 -4.26144, 0.612981 -4.26112, 0.948655 -4.20725, 1.25323 -4.09953, 1.55781 -3.99181, 1.8175 -3.83695, 2.0323 -3.63529, 2.24711 -3.43331, 2.41543 -3.19991, 2.53693 -2.93509, 2.65844 -2.66995, 2.71904 -2.37692, 2.71904 -2.05567, 2.71904 -1.6998, 2.63825 -1.37214, 2.47602 -1.07302, 2.31411 -0.77357, 2.11342 -0.499131, 1.87392 -0.2497, 1.63443 5.126e-005, 1.37987 0.235055, 1.11056 0.455632, 0.841252 0.676208, 0.597272 0.890693, 0.378939 1.09909 L -0.836155 2.24301, 0.754048 2.24301 C 0.975907 2.24333, 1.18302 2.24172, 1.37474 2.2382, 1.56678 2.23499, 1.72965 2.22794, 1.86334 2.21768, 1.99736 2.20742, 2.06597 2.20069, 2.06917 2.19684, 2.09738 2.17312, 2.12399 2.12534, 2.14868 2.05353, 2.17337 1.98171, 2.19613 1.89707, 2.21729 1.79961, 2.23845 1.70215, 2.25961 1.60308, 2.28077 1.50209, 2.30193 1.40142, 2.32117 1.29081, 2.3388 1.1709 L 2.72962 1.1709 Z" stroke="none" fill="#000000" transform="matrix(1.12 0 0 1 11.094 16.3063)" />
			<rect />
		</svg>
	</g>
</svg>
