<?xml version="1.0"?>
<svg xmlns="http://www.w3.org/2000/svg" xmlns:xlink="http://www.w3.org/1999/xlink" width="257.941193" height="210.000015">
	<defs>
		<marker id="CustomMarker-01" markerUnits="strokeWidth" markerWidth="15.000001" markerHeight="9" viewBox="-15 -4.5 15 9" orient="auto-start-reverse">
			<path d="M 0 -0 L -10 -3, -8 -0.5, -8 0.5, -10 3 Z" fill="#000000" stroke="#000000" stroke-linejoin="round" />
		</marker>
		<marker id="CustomMarker-02" markerUnits="strokeWidth" markerWidth="15.000001" markerHeight="9" viewBox="-15 -4.5 15 9" orient="auto-start-reverse">
			<path d="M 0 -0 L -10 -3, -8 -0.5, -8 0.5, -10 3 Z" fill="#000000" stroke="#000000" stroke-linejoin="round" />
		</marker>
		<marker id="CustomMarker-03" markerUnits="strokeWidth" markerWidth="9" markerHeight="9" viewBox="-9 -4.5 9 9" orient="auto-start-reverse">
			<path d="M 0 -0 L -6 -3, -4.8 -0.5, -4.8 0.5, -6 3 Z" fill="#E50A00" stroke="#E50A00" stroke-linejoin="round" />
		</marker>
		<marker id="CustomMarker-04" markerUnits="strokeWidth" markerWidth="9" markerHeight="9" viewBox="-9 -4.5 9 9" orient="auto-start-reverse">
			<path d="M 0 -0 L -6 -3, -4.8 -0.5, -4.8 0.5, -6 3 Z" fill="#E50A00" stroke="#E50A00" stroke-linejoin="round" />
		</marker>
		<marker id="CustomMarker-05" markerUnits="strokeWidth" markerWidth="9" markerHeight="9" viewBox="-9 -4.5 9 9" orient="auto-start-reverse">
			<path d="M 0 -0 L -6 -3, -4.8 -0.5, -4.8 0.5, -6 3 Z" fill="#E50A00" stroke="#E50A00" stroke-linejoin="round" />
		</marker>
	</defs>
	<path d="M 27.1027 -44.8016 C 42.7818 -35.3165, 52.3615 -18.325, 52.3616 -4.45103e-005" fill="none" stroke="#E50A00" stroke-width="4.53333378" stroke-linecap="round" stroke-linejoin="round" transform="matrix(0.294118 0 -0 0.294118 104.7 176.741)" />
	<path d="M -375.573 0 L 375.572 0" fill="none" stroke="#000000" stroke-width="4.53333378" stroke-linecap="round" stroke-linejoin="round" marker-end="url(#CustomMarker-01)" transform="matrix(0.294118 0 0 0.294118 119.899 176.741)" />
	<path d="M -257.792 0 L 257.792 0" fill="none" stroke="#000000" stroke-width="10.4266672" stroke-linecap="round" stroke-linejoin="round" transform="matrix(0.294118 0 0 0.294118 108.715 176.741)" />
	<g transform="matrix(1 0 -0 1 95.3824 181.32)">
		<svg width="60.1215858" height="56.9999886">
			<defs />
			<path d="M 6.67593 17.0441 L 6.67593 15.9541 C 6.47498 16.2048, 6.15266 16.4481, 5.70896 16.6829, 5.26584 16.9176, 4.77005 17.035, 4.22273 17.035, 3.64449 17.035, 3.09717 16.9222, 2.58134 16.6966, 2.06608 16.471, 1.61953 16.159, 1.24167 15.7617, 0.832898 15.3346, 0.523171 14.8617, 0.312487 14.3424, 0.101803 13.8237, -0.00411087 13.277, -0.00411087 12.7022, -0.00411087 12.1285, 0.106384 11.5761, 0.326227 11.0448, 0.546643 10.5135, 0.867249 10.0435, 1.28862 9.63412, 1.70998 9.22535, 2.19146 8.90933, 2.73249 8.68605, 3.27351 8.46334, 3.83972 8.3517, 4.43055 8.35113, 4.94008 8.3517, 5.40439 8.46048, 5.82232 8.67689, 6.24083 8.89387, 6.53796 9.11486, 6.71372 9.34043 L 6.71372 5.5298 C 6.71372 5.37179, 6.70628 5.21778, 6.69025 5.06778, 6.67479 4.91836, 6.61353 4.80386, 6.50647 4.72371, 6.39941 4.651, 6.22937 4.60863, 5.99694 4.59604, 5.7645 4.58401, 5.50973 4.57772, 5.23264 4.57714 L 5.23264 3.83517, 8.20453 3.61533, 8.20453 15.1205 C 8.20453 15.2796, 8.21255 15.4325, 8.22801 15.5791, 8.24404 15.7256, 8.30701 15.8355, 8.41693 15.9088, 8.52686 15.9821, 8.69861 16.0268, 8.93105 16.0417, 9.16406 16.0571, 9.42169 16.0646, 9.70451 16.064 L 9.70451 16.8151 Z M 6.67593 10.3755 C 6.46868 9.96675, 6.1727 9.62954, 5.78911 9.3639, 5.40553 9.09825, 4.96527 8.96543, 4.46834 8.96486, 4.07216 8.96543, 3.70117 9.05875, 3.35538 9.24482, 3.00958 9.43145, 2.71073 9.68908, 2.45883 10.0183, 2.1823 10.3916, 2.00483 10.8083, 1.92582 11.2692, 1.84739 11.7307, 1.80788 12.2081, 1.80788 12.7022, 1.80788 13.1974, 1.84281 13.6709, 1.91151 14.1226, 1.98078 14.5749, 2.14452 14.9991, 2.40215 15.3953, 2.61627 15.7073, 2.88821 15.9581, 3.21855 16.147, 3.54888 16.3365, 3.8964 16.431, 4.26051 16.4304, 4.80783 16.431, 5.29218 16.2798, 5.71354 15.9775, 6.13491 15.6752, 6.45609 15.2888, 6.67593 14.8182 Z" stroke="none" fill="#E50A00" />
			<path d="M 15.9075 19.1693 C 15.8697 19.3158, 15.8508 19.4292, 15.8508 19.5082, 15.8508 19.5695, 15.8634 19.609, 15.8886 19.6273, 15.9516 19.6765, 16.0902 19.7069, 16.3043 19.7189, 16.5184 19.7315, 16.76 19.7372, 17.0302 19.7372, 17.1184 19.7372, 17.1974 19.7681, 17.2661 19.8288, 17.2913 19.878, 17.3039 19.9204, 17.3039 19.957, 17.3039 19.9937, 17.2947 20.0275, 17.2758 20.0578 L 17.2472 20.2044 C 17.2289 20.2902, 17.1831 20.3572, 17.1109 20.4059, 17.0388 20.4551, 16.9615 20.4792, 16.8796 20.4792, 16.2258 20.4425, 15.5617 20.4242, 14.8885 20.4242, 14.2221 20.4242, 13.5459 20.4425, 12.8601 20.4792, 12.7662 20.4792, 12.6969 20.4488, 12.6528 20.3876, 12.615 20.3509, 12.5961 20.3086, 12.5961 20.2593, 12.5961 20.2227, 12.6059 20.1895, 12.6242 20.1586 L 12.6528 20.012 C 12.6906 19.8231, 12.8097 19.7315, 13.0112 19.7372, 13.2688 19.7372, 13.5099 19.7315, 13.7331 19.7189, 13.9564 19.7069, 14.1247 19.6731, 14.2375 19.6181, 14.332 19.5815, 14.4138 19.42, 14.4831 19.1326 L 15.2377 16.1831 C 15.0934 16.3239, 14.8404 16.5042, 14.4785 16.7241, 14.1167 16.9439, 13.7251 17.0533, 13.3038 17.0533, 12.8068 17.0533, 12.39 16.9285, 12.0534 16.6783, 11.7168 16.4281, 11.4545 16.1132, 11.2656 15.7342, 11.0395 15.2831, 10.9198 14.7976, 10.9072 14.2778 L 10.9072 14.1403 C 10.9072 13.6583, 10.9736 13.1762, 11.1053 12.693, 11.2565 12.1623, 11.4671 11.6373, 11.7374 11.1181, 12.0082 10.5994, 12.3666 10.1167, 12.8131 9.67019, 13.1784 9.30436, 13.5952 8.99635, 14.0635 8.74559, 14.5318 8.4954, 15.0081 8.37002, 15.4925 8.36945, 15.9459 8.37002, 16.3089 8.49827, 16.5825 8.75475, 16.8562 9.01123, 17.04 9.25226, 17.1344 9.47783, 17.2163 9.36218, 17.3468 9.20703, 17.526 9.01123, 17.7052 8.81601, 17.9016 8.6328, 18.1151 8.46105, 18.2033 8.38834, 18.2886 8.3517, 18.3699 8.35113, 18.4649 8.3517, 18.5308 8.40037, 18.568 8.49769, 18.5874 8.53491, 18.5966 8.57155, 18.5966 8.60761 L 18.5966 8.67174 Z M 16.6718 10.687 C 16.6466 10.5776, 16.6249 10.4631, 16.606 10.344, 16.5871 10.225, 16.5585 10.1076, 16.5207 9.9908, 16.4205 9.70454, 16.2774 9.46466, 16.0919 9.2723, 15.9064 9.07994, 15.6717 8.98375, 15.3888 8.98318, 15.1249 8.98375, 14.8638 9.07879, 14.6056 9.26772, 14.348 9.45722, 14.1121 9.70111, 13.898 9.99996, 13.5963 10.4219, 13.3702 10.8604, 13.219 11.315, 13.0679 11.7702, 12.9293 12.2448, 12.8034 12.7388, 12.678 13.2278, 12.5744 13.7012, 12.4919 14.1587, 12.4421 14.3911, 12.4169 14.611, 12.4169 14.8182, 12.4169 15.0386, 12.4421 15.2522, 12.4919 15.4594, 12.5492 15.7468, 12.6511 15.9838, 12.7988 16.1699, 12.9465 16.3565, 13.1526 16.4493, 13.4165 16.4487, 13.7062 16.4493, 13.9971 16.3485, 14.2896 16.147, 14.5822 15.9455, 14.8541 15.6981, 15.1054 15.4045, 15.2062 15.2831, 15.3024 15.1657, 15.3934 15.0524, 15.485 14.9396, 15.5652 14.8188, 15.6339 14.69 L 16.6718 10.687 Z" stroke="none" fill="#E50A00" />
			<rect />
		</svg>
	</g>
	<path d="M 0 324.467 L 0 -324.467" fill="none" stroke="#000000" stroke-width="4.53333378" stroke-linecap="round" stroke-linejoin="round" marker-end="url(#CustomMarker-02)" transform="matrix(0.294118 0 0 0.294118 153.715 107.61)" />
	<g transform="matrix(1 0 -0 1 239.951 164.343)">
		<svg width="33.1395264" height="32.8723297">
			<defs />
			<path d="M 9.12724 9.8992 C 9.05854 10.1746, 8.91827 10.3807, 8.70759 10.5181, 8.4969 10.6555, 8.28508 10.7242, 8.07096 10.7236, 7.85111 10.7242, 7.66848 10.6538, 7.52364 10.5129, 7.41715 10.4099, 7.36047 10.2753, 7.3536 10.1099, 7.3536 10.0435, 7.3662 9.95759, 7.39139 9.8534, 7.46123 9.6221, 7.56829 9.44634, 7.71257 9.32726, 7.85741 9.20818, 7.95817 9.13948, 8.01428 9.12058, 7.8952 9.02955, 7.64959 8.98375, 7.2786 8.98318, 6.9517 8.98375, 6.65915 9.15322, 6.40152 9.49214, 6.14389 9.83107, 5.95153 10.2387, 5.82557 10.7144 L 4.95765 14.0671 C 4.87006 14.4037, 4.80422 14.7243, 4.75956 15.0289, 4.73494 15.1331, 4.72235 15.2247, 4.72235 15.3037, 4.72235 15.4938, 4.75384 15.6735, 4.81624 15.8441, 4.87922 16.0279, 4.97368 16.1745, 5.09963 16.2844, 5.22558 16.3943, 5.38589 16.4493, 5.58054 16.4487, 5.83244 16.4493, 6.07462 16.384, 6.30705 16.2523, 6.53949 16.1212, 6.75361 15.9443, 6.94827 15.721, 7.14349 15.4983, 7.31639 15.239, 7.46753 14.9424, 7.61867 14.6464, 7.73776 14.3424, 7.82535 14.0304, 7.86314 13.8724, 7.9702 13.7928, 8.14653 13.7923 L 8.36294 13.7923 C 8.52667 13.7928, 8.60854 13.8541, 8.60854 13.9755, 8.60854 14.0127, 8.59938 14.0465, 8.57992 14.0762, 8.49232 14.4432, 8.3492 14.805, 8.15111 15.1623, 7.95302 15.5195, 7.7223 15.8356, 7.4578 16.1104, 7.19387 16.3852, 6.89388 16.6113, 6.55724 16.7876, 6.22061 16.9651, 5.8605 17.0533, 5.47692 17.0533, 5.08704 17.0533, 4.7504 16.9697, 4.46758 16.8014, 4.18476 16.6342, 3.95518 16.4155, 3.77885 16.1464, 3.72275 16.08, 3.67866 16.0113, 3.64717 15.9409, 3.61569 15.871, 3.60595 15.8602, 3.61855 15.9083, 3.46741 16.159, 3.22867 16.4126, 2.90177 16.6691, 2.57486 16.9256, 2.19758 17.0533, 1.76934 17.0533, 1.53061 17.0533, 1.29473 17.0229, 1.06229 16.9617, 0.829854 16.901, 0.626613 16.8065, 0.453715 16.6783, 0.280817 16.55, 0.150285 16.3943, 0.0621184 16.2105, 0.0186076 16.1012, -0.00314775 15.9821, -0.00372026 15.8533, -0.00314775 15.7623, 0.00944747 15.6552, 0.0340654 15.5327, 0.103339 15.2585, 0.244749 15.0524, 0.458295 14.915, 0.672414 14.7776, 0.88596 14.7089, 1.10008 14.7083, 1.31992 14.7089, 1.50885 14.7793, 1.66572 14.919, 1.77278 15.0232, 1.82602 15.1577, 1.82602 15.322, 1.82602 15.4079, 1.81343 15.4938, 1.78824 15.5785, 1.73213 15.7926, 1.62965 15.9655, 1.48194 16.0966, 1.33423 16.2283, 1.22889 16.2999, 1.16592 16.3113, 1.28557 16.4098, 1.52774 16.4556, 1.89243 16.4487, 2.21933 16.4493, 2.51475 16.2787, 2.77868 15.9363, 3.04318 15.5945, 3.23497 15.1852, 3.35405 14.7083 L 4.23171 11.3373 C 4.31987 11.0202, 4.38857 10.7087, 4.43896 10.403, 4.45155 10.3057, 4.45785 10.2141, 4.45785 10.1282, 4.45785 9.93927, 4.42979 9.76237, 4.37312 9.59691, 4.31014 9.41428, 4.21281 9.26657, 4.08056 9.15322, 3.94889 9.04043, 3.78515 8.98375, 3.58992 8.98318, 3.33859 8.98375, 3.09527 9.04959, 2.8594 9.1807, 2.62353 9.31237, 2.40826 9.48756, 2.21304 9.70741, 2.01838 9.92725, 1.84549 10.1826, 1.69434 10.4723, 1.5432 10.7625, 1.43328 11.0694, 1.36401 11.3923, 1.2953 11.5578, 1.17851 11.6431, 1.01477 11.6488 L 0.807526 11.6488 C 0.656383 11.6494, 0.580812 11.5732, 0.580812 11.4198 L 0.580812 11.3557 C 0.675276 10.9778, 0.820121 10.6097, 1.01477 10.2524, 1.21 9.89519, 1.44301 9.57916, 1.71324 9.30436, 1.98346 9.02955, 2.28575 8.80513, 2.61895 8.63109, 2.95215 8.45704, 3.31397 8.37002, 3.70328 8.36945, 4.08114 8.37002, 4.41434 8.45246, 4.70345 8.61735, 4.99257 8.78223, 5.22845 9.00207, 5.4105 9.27631, 5.44829 9.34386, 5.48321 9.416, 5.5147 9.49214, 5.54619 9.56886, 5.55535 9.58832, 5.54275 9.55111, 5.70019 9.28318, 5.94237 9.01925, 6.26927 8.75933, 6.59617 8.49998, 6.97002 8.37002, 7.39139 8.36945, 7.6307 8.37002, 7.86829 8.39922, 8.10416 8.45704, 8.34004 8.51544, 8.54385 8.60819, 8.71675 8.73643, 8.88965 8.86467, 9.01731 9.02326, 9.09918 9.21218, 9.14327 9.32268, 9.16502 9.44806, 9.16502 9.58775, 9.16502 9.67992, 9.15243 9.78355, 9.12724 9.8992 Z" stroke="none" fill="#000000" />
			<rect />
		</svg>
	</g>
	<g transform="matrix(1 0 -0 1 162.537 0.971337)">
		<svg width="29.9820557" height="41.7765884">
			<defs />
			<path d="M 6.57986 16.7693 C 6.44818 17.2823, 6.24036 17.7724, 5.95754 18.2395, 5.67472 18.7067, 5.34095 19.1223, 4.95737 19.4853, 4.57378 19.8488, 4.14326 20.1437, 3.66521 20.3693, 3.18717 20.5954, 2.69023 20.7082, 2.1744 20.7082, 1.86639 20.7082, 1.58357 20.6521, 1.32594 20.5387, 1.06831 20.4259, 0.857624 20.2731, 0.693887 20.0807, 0.530149 19.8883, 0.420227 19.6611, 0.363548 19.3983, 0.338358 19.2826, 0.325763 19.1635, 0.325763 19.041, 0.325763 18.8824, 0.344656 18.7204, 0.382441 18.5555, 0.451715 18.2807, 0.593125 18.0746, 0.806671 17.9372, 1.02079 17.7998, 1.23147 17.7311, 1.43872 17.7311, 1.65914 17.7311, 1.84463 17.8015, 1.9952 17.9418, 2.10226 18.046, 2.1555 18.18, 2.1555 18.3449, 2.1555 18.4124, 2.14291 18.4949, 2.11772 18.5922, 2.04902 18.867, 1.90761 19.0731, 1.69349 19.2105, 1.47994 19.3479, 1.30991 19.4166, 1.18395 19.4166, 1.22174 19.5815, 1.33968 19.7361, 1.53777 19.8792, 1.73585 20.0229, 1.98948 20.0944, 2.29749 20.0944, 2.63698 20.0944, 2.95473 20.0028, 3.25014 19.8196, 3.54556 19.6364, 3.81635 19.3908, 4.06139 19.0823, 4.30642 18.7742, 4.52169 18.417, 4.70718 18.0105, 4.89267 17.6046, 5.0421 17.1787, 5.15546 16.7327 L 5.21213 16.5128 C 5.11824 16.5987, 4.92015 16.7103, 4.61787 16.8472, 4.31616 16.9846, 3.98582 17.0533, 3.62743 17.0533, 3.19976 17.0533, 2.8179 16.9743, 2.48126 16.8151, 2.14463 16.6571, 1.87898 16.4126, 1.68433 16.0823, 1.4954 15.7285, 1.40437 15.338, 1.41067 14.9098 L 1.41067 14.8365 C 1.42326 14.3911, 1.47994 13.9486, 1.58013 13.5083, 1.68089 13.0875, 1.82746 12.6238, 2.01925 12.1165, 2.21104 11.6099, 2.39481 11.1181, 2.57057 10.6412, 2.7595 10.1351, 2.85397 9.71943, 2.85397 9.39539, 2.85397 9.12116, 2.73775 8.98375, 2.50473 8.98318, 2.29119 8.98375, 2.09768 9.04501, 1.92478 9.16696, 1.75188 9.28947, 1.59502 9.45894, 1.45303 9.67535, 1.31162 9.89233, 1.18453 10.1488, 1.07117 10.4448, 0.957814 10.7414, 0.863349 11.0568, 0.787778 11.3923, 0.719077 11.5578, 0.602858 11.6431, 0.43912 11.6488 L 0.222139 11.6488 C 0.070996 11.6494, -0.00457531 11.5732, -0.00457531 11.4198 L -0.00457531 11.3557 C 0.0835912 11.0202, 0.200383 10.6772, 0.344656 10.3257, 0.489501 9.97477, 0.672131 9.65588, 0.891975 9.36848, 1.11182 9.08165, 1.36372 8.84349, 1.64654 8.65399, 1.92936 8.46506, 2.2534 8.37002, 2.61809 8.36945, 2.93297 8.37002, 3.20148 8.43758, 3.42476 8.57155, 3.64804 8.70609, 3.8175 8.88471, 3.93372 9.10742, 4.05051 9.33069, 4.11463 9.58203, 4.12723 9.86256 L 4.12723 9.92668 C 4.12723 10.19, 4.07398 10.4614, 3.96692 10.7419, 3.78487 11.2188, 3.60395 11.706, 3.42476 12.2035, 3.24556 12.7016, 3.10587 13.1488, 3.00511 13.5455, 2.90435 13.9428, 2.83507 14.3361, 2.79729 14.7266, 2.7721 14.8308, 2.75664 14.9442, 2.74977 15.0655, 2.74977 15.3043, 2.79099 15.5396, 2.87286 15.7709, 2.92954 15.9792, 3.03316 16.1441, 3.1843 16.2661, 3.33545 16.3886, 3.51464 16.4493, 3.72189 16.4487, 4.12436 16.4493, 4.47646 16.3302, 4.77817 16.092, 5.08046 15.8539, 5.34438 15.5424, 5.57052 15.1571 L 7.08939 9.24883 C 7.14607 9.02326, 7.26057 8.85723, 7.43347 8.75017, 7.60637 8.64368, 7.78098 8.58987, 7.95674 8.58929, 8.13937 8.58987, 8.29052 8.64483, 8.4096 8.75418, 8.49204 8.83433, 8.53269 8.94081, 8.53269 9.07478, 8.53269 9.14234, 8.52639 9.21276, 8.5138 9.28547 Z" stroke="none" fill="#000000" />
			<rect />
		</svg>
	</g>
	<path d="M -205.397 138.216 L 205.396 -138.216" fill="none" stroke="#000000" stroke-width="4.53333378" stroke-linecap="round" stroke-linejoin="round" stroke-dasharray="15.8893, 11.3107" transform="matrix(0.294118 0 0 0.294118 93.3044 136.09)" />
	<path d="M 52.3964 138.216 L -52.3959 -138.216" fill="none" stroke="#000000" stroke-width="4.53333378" stroke-linecap="round" stroke-linejoin="round" stroke-dasharray="15.8893, 11.3107" transform="matrix(0.294118 0 0 0.294118 169.126 136.09)" />
	<path d="M 69.4244 -46.7174 C 78.7163 -32.9091, 83.6795 -16.6436, 83.6795 -5.29736e-005" fill="none" stroke="#000000" stroke-width="4.53333378" stroke-linecap="round" stroke-linejoin="round" transform="matrix(0.294118 0 -0 0.294118 32.8936 176.741)" />
	<g transform="matrix(1 0 -0 1 68.4565 152.412)">
		<svg width="44.9082985" height="54.1276474">
			<defs />
			<path d="M 7.9765 5.50232 C 8.12764 6.08285, 8.20264 6.67539, 8.20264 7.27939, 8.20264 7.46947, 8.19634 7.65267, 8.18374 7.829, 8.12134 8.63567, 7.98623 9.44462, 7.77841 10.2564, 7.55227 11.0751, 7.26601 11.8864, 6.92022 12.689, 6.57442 13.4923, 6.11469 14.2629, 5.54218 15.0014, 5.34753 15.2522, 5.13169 15.5001, 4.89582 15.7439, 4.65995 15.9884, 4.4069 16.2065, 4.13667 16.3989, 3.86645 16.5913, 3.58477 16.7487, 3.29222 16.8701, 2.99967 16.9926, 2.6928 17.0533, 2.3722 17.0533, 2.0453 17.0533, 1.76362 16.9909, 1.52775 16.8655, 1.29187 16.7407, 1.0892 16.5792, 0.919168 16.3806, 0.749705 16.1825, 0.609441 15.9609, 0.499519 15.7165, 0.389597 15.4726, 0.299713 15.2218, 0.230439 14.9648, 0.0735714 14.3974, -0.00543487 13.8112, -0.00543487 13.206, -0.00543487 13.0114, 0.00716031 12.819, 0.0323508 12.6289, 0.0827316 11.8354, 0.217844 11.0328, 0.437688 10.2198, 0.645509 9.40226, 0.925466 8.5933, 1.27756 7.79293, 1.63023 6.99314, 2.09854 6.22025, 2.68364 5.47484, 2.87887 5.22523, 3.09299 4.97618, 3.32543 4.72886, 3.55787 4.48154, 3.80633 4.26169, 4.07026 4.06933, 4.33476 3.87697, 4.613 3.7201, 4.90555 3.59758, 5.19811 3.47564, 5.50783 3.41438, 5.83474 3.41381, 6.16221 3.41438, 6.44217 3.47735, 6.67461 3.60216, 6.90705 3.72754, 7.11315 3.88784, 7.29235 4.08307, 7.47211 4.27887, 7.61352 4.50157, 7.71715 4.75176, 7.82135 5.00252, 7.90779 5.25271, 7.9765 5.50232 Z M 6.70266 5.71301 C 6.67747 5.47541, 6.64598 5.25271, 6.6082 5.04489, 6.57041 4.83764, 6.51545 4.6573, 6.44332 4.50444, 6.37118 4.35215, 6.27843 4.23421, 6.16508 4.15177, 6.05172 4.06933, 5.90745 4.02811, 5.73111 4.02754, 5.36642 4.02811, 5.02979 4.19757, 4.72178 4.5365, 4.41377 4.87542, 4.11492 5.28019, 3.82523 5.74965, 3.41016 6.42177, 3.08955 7.11222, 2.86284 7.82041, 2.63613 8.52918, 2.44147 9.21276, 2.27773 9.87172 L 6.11756 9.87172 C 6.28759 9.18241, 6.44503 8.47994, 6.5893 7.76488, 6.69007 7.28283, 6.74045 6.8065, 6.74045 6.3359, 6.74045 6.12865, 6.72785 5.9214, 6.70266 5.71301 Z M 2.07965 10.6137 C 1.91018 11.3041, 1.7619 12.0003, 1.63595 12.7022, 1.53576 13.2094, 1.48538 13.7167, 1.48538 14.2228, 1.48538 14.4129, 1.49168 14.5961, 1.50427 14.7724, 1.51687 15.0111, 1.54549 15.2344, 1.589 15.4417, 1.63309 15.6495, 1.69148 15.8281, 1.76362 15.9775, 1.83576 16.1275, 1.93194 16.2432, 2.05159 16.3256, 2.17125 16.4081, 2.31609 16.4493, 2.48555 16.4487, 2.84395 16.4493, 3.17886 16.2815, 3.49031 15.9455, 3.80175 15.61, 4.09545 15.2064, 4.37255 14.7358, 4.78762 14.0522, 5.10822 13.3594, 5.33494 12.657, 5.56165 11.9551, 5.7563 11.2738, 5.91947 10.6137 Z" stroke="none" fill="#000000" />
			<path d="M 2.37267 3.19713 C 1.72472 3.17661, 1.09441 3.16635, 0.481416 3.16635, -0.131261 3.16635, -0.761571 3.17661, -1.40951 3.19713 L -1.40951 2.75598, -1.04499 2.75598 C -0.928927 2.7563, -0.819601 2.75469, -0.717648 2.75117, -0.615375 2.74796, -0.518552 2.7393, -0.426859 2.72552, -0.335166 2.71205, -0.255976 2.69827, -0.18929 2.68416, -0.132864 2.67422, -0.086376 2.6428, -0.0495062 2.58958, -0.012316 2.53668, 0.00595856 2.47769, 0.00595856 2.41229 L 0.00595856 -3.36887 C -0.169733 -3.28295, -0.386463 -3.21787, -0.643588 -3.17362, -0.900714 -3.12906, -1.18221 -3.10694, -1.4887 -3.10726 L -1.4887 -3.54328 C -1.06615 -3.54296, -0.675969 -3.59329, -0.318494 -3.69429, 0.0389807 -3.79496, 0.348044 -3.98411, 0.608376 -4.26144 L 0.772206 -4.26144 C 0.888265 -4.26112, 0.946294 -4.20469, 0.946294 -4.09216 L 0.946294 2.41229 C 0.946294 2.4809, 0.963928 2.54085, 0.999194 2.59215, 1.03446 2.64344, 1.08576 2.67422, 1.15244 2.68416, 1.20887 2.69827, 1.28133 2.71205, 1.36917 2.72552, 1.45702 2.7393, 1.55641 2.74796, 1.66734 2.75117, 1.77827 2.75469, 1.88663 2.7563, 1.99243 2.75598 L 2.37267 2.75598, 2.37267 3.19713 Z" stroke="none" fill="#000000" transform="matrix(1.12 0 0 1 10.6711 16.3063)" />
			<rect />
		</svg>
	</g>
	<path d="M -17.0641 -45.0137 C 7.79618 -54.438, 35.5893 -41.9246, 45.0135 -17.0642, 47.0802 -11.6124, 48.1394 -5.83045, 48.1394 -3.63853e-005" fill="none" stroke="#000000" stroke-width="4.53333378" stroke-linecap="round" stroke-linejoin="round" transform="matrix(0.294118 0 -0 0.294118 184.536 176.741)" />
	<g transform="matrix(1 0 -0 1 195.403 140.864)">
		<svg width="48.065773" height="54.1276474">
			<defs />
			<path d="M 7.9765 5.50232 C 8.12764 6.08285, 8.20264 6.67539, 8.20264 7.27939, 8.20264 7.46947, 8.19634 7.65267, 8.18374 7.829, 8.12134 8.63567, 7.98623 9.44462, 7.77841 10.2564, 7.55227 11.0751, 7.26601 11.8864, 6.92022 12.689, 6.57442 13.4923, 6.11469 14.2629, 5.54218 15.0014, 5.34753 15.2522, 5.13169 15.5001, 4.89582 15.7439, 4.65995 15.9884, 4.4069 16.2065, 4.13667 16.3989, 3.86645 16.5913, 3.58477 16.7487, 3.29222 16.8701, 2.99967 16.9926, 2.6928 17.0533, 2.3722 17.0533, 2.0453 17.0533, 1.76362 16.9909, 1.52775 16.8655, 1.29187 16.7407, 1.0892 16.5792, 0.919168 16.3806, 0.749705 16.1825, 0.609441 15.9609, 0.499519 15.7165, 0.389597 15.4726, 0.299713 15.2218, 0.230439 14.9648, 0.0735714 14.3974, -0.00543487 13.8112, -0.00543487 13.206, -0.00543487 13.0114, 0.00716031 12.819, 0.0323508 12.6289, 0.0827316 11.8354, 0.217844 11.0328, 0.437688 10.2198, 0.645509 9.40226, 0.925466 8.5933, 1.27756 7.79293, 1.63023 6.99314, 2.09854 6.22025, 2.68364 5.47484, 2.87887 5.22523, 3.09299 4.97618, 3.32543 4.72886, 3.55787 4.48154, 3.80633 4.26169, 4.07026 4.06933, 4.33476 3.87697, 4.613 3.7201, 4.90555 3.59758, 5.19811 3.47564, 5.50783 3.41438, 5.83474 3.41381, 6.16221 3.41438, 6.44217 3.47735, 6.67461 3.60216, 6.90705 3.72754, 7.11315 3.88784, 7.29235 4.08307, 7.47211 4.27887, 7.61352 4.50157, 7.71715 4.75176, 7.82135 5.00252, 7.90779 5.25271, 7.9765 5.50232 Z M 6.70266 5.71301 C 6.67747 5.47541, 6.64598 5.25271, 6.6082 5.04489, 6.57041 4.83764, 6.51545 4.6573, 6.44332 4.50444, 6.37118 4.35215, 6.27843 4.23421, 6.16508 4.15177, 6.05172 4.06933, 5.90745 4.02811, 5.73111 4.02754, 5.36642 4.02811, 5.02979 4.19757, 4.72178 4.5365, 4.41377 4.87542, 4.11492 5.28019, 3.82523 5.74965, 3.41016 6.42177, 3.08955 7.11222, 2.86284 7.82041, 2.63613 8.52918, 2.44147 9.21276, 2.27773 9.87172 L 6.11756 9.87172 C 6.28759 9.18241, 6.44503 8.47994, 6.5893 7.76488, 6.69007 7.28283, 6.74045 6.8065, 6.74045 6.3359, 6.74045 6.12865, 6.72785 5.9214, 6.70266 5.71301 Z M 2.07965 10.6137 C 1.91018 11.3041, 1.7619 12.0003, 1.63595 12.7022, 1.53576 13.2094, 1.48538 13.7167, 1.48538 14.2228, 1.48538 14.4129, 1.49168 14.5961, 1.50427 14.7724, 1.51687 15.0111, 1.54549 15.2344, 1.589 15.4417, 1.63309 15.6495, 1.69148 15.8281, 1.76362 15.9775, 1.83576 16.1275, 1.93194 16.2432, 2.05159 16.3256, 2.17125 16.4081, 2.31609 16.4493, 2.48555 16.4487, 2.84395 16.4493, 3.17886 16.2815, 3.49031 15.9455, 3.80175 15.61, 4.09545 15.2064, 4.37255 14.7358, 4.78762 14.0522, 5.10822 13.3594, 5.33494 12.657, 5.56165 11.9551, 5.7563 11.2738, 5.91947 10.6137 Z" stroke="none" fill="#000000" />
			<path d="M 2.39138 3.19713 L -1.90858 3.19713, -1.90858 2.915 C -1.90858 2.8948, -1.898 2.86402, -1.87684 2.82266 L -0.149418 0.945196 C 0.0551279 0.71981, 0.261918 0.488975, 0.471594 0.253009, 0.68127 0.0170434, 0.868504 -0.224052, 1.03394 -0.470277, 1.19937 -0.716502, 1.33146 -0.970422, 1.4302 -1.23204, 1.52895 -1.49365, 1.578 -1.76809, 1.578 -2.05567, 1.578 -2.29805, 1.54658 -2.52472, 1.4831 -2.73503, 1.41962 -2.94535, 1.32825 -3.13002, 1.20835 -3.28904, 1.08844 -3.44806, 0.938716 -3.5763, 0.759177 -3.67377, 0.579638 -3.77123, 0.371886 -3.81996, 0.13592 -3.82028, -0.216105 -3.81996, -0.527092 -3.7148, -0.7964 -3.50449, -1.06571 -3.29417, -1.24461 -3.06237, -1.33277 -2.80974, -1.35009 -2.80268, -1.32187 -2.79915, -1.24813 -2.79948 L -1.15836 -2.79948 C -1.05256 -2.77511, -0.961191 -2.73824, -0.883605 -2.68887, -0.806018 -2.63917, -0.740935 -2.57088, -0.688036 -2.48368, -0.635136 -2.39647, -0.608846 -2.29132, -0.608846 -2.16852, -0.608846 -1.96302, -0.675532 -1.8056, -0.809545 -1.69627, -0.943558 -1.58663, -1.09328 -1.53212, -1.25871 -1.53244, -1.41709 -1.53212, -1.56489 -1.58663, -1.70243 -1.69627, -1.83965 -1.8056, -1.90858 -1.96302, -1.90858 -2.16852, -1.90858 -2.45547, -1.85215 -2.72734, -1.7393 -2.98382, -1.62645 -3.24031, -1.47352 -3.46249, -1.27987 -3.65068, -1.08623 -3.83856, -0.857315 -3.98732, -0.593136 -4.09697, -0.328958 -4.20629, -0.0487483 -4.26112, 0.24685 -4.26144, 0.612981 -4.26112, 0.948655 -4.20725, 1.25323 -4.09953, 1.55781 -3.99181, 1.8175 -3.83695, 2.0323 -3.63529, 2.24711 -3.43331, 2.41543 -3.19991, 2.53693 -2.93509, 2.65844 -2.66995, 2.71904 -2.37692, 2.71904 -2.05567, 2.71904 -1.6998, 2.63825 -1.37214, 2.47602 -1.07302, 2.31411 -0.77357, 2.11342 -0.499131, 1.87392 -0.2497, 1.63443 5.126e-005, 1.37987 0.235055, 1.11056 0.455632, 0.841252 0.676208, 0.597272 0.890693, 0.378939 1.09909 L -0.836155 2.24301, 0.754048 2.24301 C 0.975907 2.24333, 1.18302 2.24172, 1.37474 2.2382, 1.56678 2.23499, 1.72965 2.22794, 1.86334 2.21768, 1.99736 2.20742, 2.06597 2.20069, 2.06917 2.19684, 2.09738 2.17312, 2.12399 2.12534, 2.14868 2.05353, 2.17337 1.98171, 2.19613 1.89707, 2.21729 1.79961, 2.23845 1.70215, 2.25961 1.60308, 2.28077 1.50209, 2.30193 1.40142, 2.32117 1.29081, 2.3388 1.1709 L 2.72962 1.1709 Z" stroke="none" fill="#000000" transform="matrix(1.12 0 0 1 11.094 16.3063)" />
			<rect />
		</svg>
	</g>
	<ellipse cx="1131.9794435501099" cy="872.92005634307861" rx="8.9250001907348633" ry="8.9250001907348633" stroke="none" fill="#E50A00" transform="matrix(0.294118 0 0 0.294118 -228.235 -80)" />
	<path d="M -83.3258 138.216 L 83.3258 -138.216" fill="none" stroke="#E50A00" stroke-width="4.53333378" stroke-linecap="round" stroke-linejoin="round" stroke-dasharray="15.8893, 11.3107" transform="matrix(0.294118 0 0 0.294118 129.207 136.089)" />
	<g transform="matrix(1 0 -0 1 125.103 151.375)">
		<svg width="29.9820557" height="48.0957298">
			<defs />
			<path d="M 7.9765 5.50232 C 8.12764 6.08285, 8.20264 6.67539, 8.20264 7.27939, 8.20264 7.46947, 8.19634 7.65267, 8.18374 7.829, 8.12134 8.63567, 7.98623 9.44462, 7.77841 10.2564, 7.55227 11.0751, 7.26601 11.8864, 6.92022 12.689, 6.57442 13.4923, 6.11469 14.2629, 5.54218 15.0014, 5.34753 15.2522, 5.13169 15.5001, 4.89582 15.7439, 4.65995 15.9884, 4.4069 16.2065, 4.13667 16.3989, 3.86645 16.5913, 3.58477 16.7487, 3.29222 16.8701, 2.99967 16.9926, 2.6928 17.0533, 2.3722 17.0533, 2.0453 17.0533, 1.76362 16.9909, 1.52775 16.8655, 1.29187 16.7407, 1.0892 16.5792, 0.919168 16.3806, 0.749705 16.1825, 0.609441 15.9609, 0.499519 15.7165, 0.389597 15.4726, 0.299713 15.2218, 0.230439 14.9648, 0.0735714 14.3974, -0.00543487 13.8112, -0.00543487 13.206, -0.00543487 13.0114, 0.00716031 12.819, 0.0323508 12.6289, 0.0827316 11.8354, 0.217844 11.0328, 0.437688 10.2198, 0.645509 9.40226, 0.925466 8.5933, 1.27756 7.79293, 1.63023 6.99314, 2.09854 6.22025, 2.68364 5.47484, 2.87887 5.22523, 3.09299 4.97618, 3.32543 4.72886, 3.55787 4.48154, 3.80633 4.26169, 4.07026 4.06933, 4.33476 3.87697, 4.613 3.7201, 4.90555 3.59758, 5.19811 3.47564, 5.50783 3.41438, 5.83474 3.41381, 6.16221 3.41438, 6.44217 3.47735, 6.67461 3.60216, 6.90705 3.72754, 7.11315 3.88784, 7.29235 4.08307, 7.47211 4.27887, 7.61352 4.50157, 7.71715 4.75176, 7.82135 5.00252, 7.90779 5.25271, 7.9765 5.50232 Z M 6.70266 5.71301 C 6.67747 5.47541, 6.64598 5.25271, 6.6082 5.04489, 6.57041 4.83764, 6.51545 4.6573, 6.44332 4.50444, 6.37118 4.35215, 6.27843 4.23421, 6.16508 4.15177, 6.05172 4.06933, 5.90745 4.02811, 5.73111 4.02754, 5.36642 4.02811, 5.02979 4.19757, 4.72178 4.5365, 4.41377 4.87542, 4.11492 5.28019, 3.82523 5.74965, 3.41016 6.42177, 3.08955 7.11222, 2.86284 7.82041, 2.63613 8.52918, 2.44147 9.21276, 2.27773 9.87172 L 6.11756 9.87172 C 6.28759 9.18241, 6.44503 8.47994, 6.5893 7.76488, 6.69007 7.28283, 6.74045 6.8065, 6.74045 6.3359, 6.74045 6.12865, 6.72785 5.9214, 6.70266 5.71301 Z M 2.07965 10.6137 C 1.91018 11.3041, 1.7619 12.0003, 1.63595 12.7022, 1.53576 13.2094, 1.48538 13.7167, 1.48538 14.2228, 1.48538 14.4129, 1.49168 14.5961, 1.50427 14.7724, 1.51687 15.0111, 1.54549 15.2344, 1.589 15.4417, 1.63309 15.6495, 1.69148 15.8281, 1.76362 15.9775, 1.83576 16.1275, 1.93194 16.2432, 2.05159 16.3256, 2.17125 16.4081, 2.31609 16.4493, 2.48555 16.4487, 2.84395 16.4493, 3.17886 16.2815, 3.49031 15.9455, 3.80175 15.61, 4.09545 15.2064, 4.37255 14.7358, 4.78762 14.0522, 5.10822 13.3594, 5.33494 12.657, 5.56165 11.9551, 5.7563 11.2738, 5.91947 10.6137 Z" stroke="none" fill="#E50A00" />
			<rect />
		</svg>
	</g>
	<g transform="matrix(1 0 -0 1 112.88 124.882)">
		<svg width="29.9820557" height="32.8723297">
			<defs />
			<path d="M 7.98852 9.90836 C 7.91982 10.1774, 7.77955 10.3807, 7.56887 10.5181, 7.35818 10.6555, 7.14578 10.7242, 6.93166 10.7236, 6.71182 10.7242, 6.52919 10.6538, 6.38435 10.5129, 6.26526 10.4156, 6.20515 10.2816, 6.20515 10.1099, 6.20515 10.0251, 6.21775 9.93927, 6.24294 9.8534, 6.29961 9.64042, 6.39866 9.47268, 6.54007 9.35016, 6.68205 9.22822, 6.77766 9.16066, 6.82804 9.14806, 6.68377 9.03871, 6.38492 8.98375, 5.93149 8.98318, 5.45402 8.98375, 5.02807 9.17783, 4.65365 9.56542, 4.27923 9.95358, 3.94145 10.4769, 3.63916 11.1358 L 2.27086 16.3754 C 2.21476 16.6021, 2.09968 16.771, 1.92678 16.8838, 1.75389 16.9972, 1.57927 17.0533, 1.40294 17.0533, 1.21458 17.0533, 1.06974 16.9926, 0.968976 16.8701, 0.88768 16.7911, 0.846459 16.6811, 0.846459 16.5403, 0.846459 16.4859, 0.852757 16.4189, 0.865352 16.3388 L 2.31781 10.6686 C 2.41857 10.2725, 2.46895 9.93011, 2.46895 9.64271 L 2.46895 9.42287 C 2.43804 9.13032, 2.29033 8.98375, 2.02583 8.98318, 1.74873 8.98375, 1.51744 9.20703, 1.33195 9.65244, 1.14645 10.0984, 0.966113 10.6784, 0.78978 11.3923, 0.720507 11.5578, 0.604287 11.6431, 0.440549 11.6488 L 0.223568 11.6488 C 0.0724257 11.6494, -0.00314558 11.5732, -0.00314558 11.4198 L -0.00314558 11.3557 C 0.0724257 11.0694, 0.15773 10.7562, 0.252194 10.4173, 0.346658 10.0784, 0.47261 9.75779, 0.629478 9.4555, 0.786918 9.15322, 0.985006 8.89673, 1.22374 8.68605, 1.46305 8.47536, 1.76133 8.37002, 2.11972 8.36945, 2.59834 8.37002, 2.98364 8.50628, 3.27562 8.77765, 3.56817 9.04959, 3.73305 9.31638, 3.77084 9.57859, 3.99126 9.28604, 4.29812 9.01123, 4.69086 8.75475, 5.08418 8.49827, 5.53531 8.37002, 6.04485 8.36945, 6.29675 8.37002, 6.55266 8.39636, 6.81373 8.44788, 7.07479 8.49998, 7.30437 8.58529, 7.50246 8.70437, 7.70054 8.82345, 7.84711 8.98089, 7.94157 9.17554, 7.99825 9.29806, 8.02974 9.43546, 8.03546 9.58775, 8.03546 9.67992, 8.02001 9.78698, 7.98852 9.90836 Z" stroke="none" fill="#E50A00" />
			<rect />
		</svg>
	</g>
	<path d="M -47.4891 78.7737 L 47.4906 -78.7738" fill="none" stroke="#E50A00" stroke-width="4.53333378" stroke-linecap="round" stroke-linejoin="round" marker-end="url(#CustomMarker-03)" transform="matrix(0.294118 0 0 0.294118 168.208 71.3972)" />
	<g transform="matrix(1 0 -0 1 187.27 24.3832)">
		<svg width="75.0478287" height="65.9042358">
			<defs />
			<path d="M 6.67593 22.2796 L 6.67593 21.1895 C 6.47498 21.4403, 6.15266 21.6836, 5.70896 21.9183, 5.26584 22.153, 4.77005 22.2704, 4.22273 22.2704, 3.64449 22.2704, 3.09717 22.1576, 2.58134 21.932, 2.06608 21.7065, 1.61953 21.3945, 1.24167 20.9971, 0.832898 20.57, 0.523171 20.0972, 0.312487 19.5779, 0.101803 19.0592, -0.00411087 18.5124, -0.00411087 17.9376, -0.00411087 17.364, 0.106384 16.8115, 0.326227 16.2802, 0.546643 15.7489, 0.867249 15.2789, 1.28862 14.8696, 1.70998 14.4608, 2.19146 14.1448, 2.73249 13.9215, 3.27351 13.6988, 3.83972 13.5871, 4.43055 13.5866, 4.94008 13.5871, 5.40439 13.6959, 5.82232 13.9123, 6.24083 14.1293, 6.53796 14.3503, 6.71372 14.5759 L 6.71372 10.7652 C 6.71372 10.6072, 6.70628 10.4532, 6.69025 10.3032, 6.67479 10.1538, 6.61353 10.0393, 6.50647 9.95915, 6.39941 9.88644, 6.22937 9.84408, 5.99694 9.83148, 5.7645 9.81946, 5.50973 9.81316, 5.23264 9.81259 L 5.23264 9.07062, 8.20453 8.85077, 8.20453 20.3559 C 8.20453 20.5151, 8.21255 20.6679, 8.22801 20.8145, 8.24404 20.9611, 8.30701 21.071, 8.41693 21.1443, 8.52686 21.2176, 8.69861 21.2622, 8.93105 21.2771, 9.16406 21.2926, 9.42169 21.3, 9.70451 21.2994 L 9.70451 22.0506 Z M 6.67593 15.611 C 6.46868 15.2022, 6.1727 14.865, 5.78911 14.5993, 5.40553 14.3337, 4.96527 14.2009, 4.46834 14.2003, 4.07216 14.2009, 3.70117 14.2942, 3.35538 14.4803, 3.00958 14.6669, 2.71073 14.9245, 2.45883 15.2537, 2.1823 15.627, 2.00483 16.0438, 1.92582 16.5047, 1.84739 16.9661, 1.80788 17.4436, 1.80788 17.9376, 1.80788 18.4329, 1.84281 18.9063, 1.91151 19.358, 1.98078 19.8103, 2.14452 20.2346, 2.40215 20.6307, 2.61627 20.9428, 2.88821 21.1935, 3.21855 21.3824, 3.54888 21.5719, 3.8964 21.6664, 4.26051 21.6658, 4.80783 21.6664, 5.29218 21.5153, 5.71354 21.213, 6.13491 20.9107, 6.45609 20.5242, 6.67593 20.0536 Z" stroke="none" fill="#E50A00" />
			<path d="M 22.8492 13.2293 C 22.8303 13.3095, 22.7897 13.3782, 22.7267 13.436, 22.6637 13.4944, 22.5944 13.523, 22.5189 13.5225, 22.4937 13.535, 22.4622 13.5413, 22.4244 13.5408, 22.3494 13.5413, 22.3116 13.535, 22.3116 13.5225, 22.1548 13.523, 22.0695 13.456, 22.0569 13.3209 L 22.0569 13.2568 C 22.0946 12.9706, 22.1261 12.6803, 22.1507 12.3866, 22.1759 12.161, 22.1885 11.9538, 22.1885 11.7637 L 22.1885 11.608 C 22.1759 11.3641, 22.1462 11.146, 22.0992 10.9536, 22.0523 10.7612, 21.9687 10.5981, 21.849 10.463, 21.6103 10.1824, 21.2553 10.0164, 20.7836 9.9643, 20.3118 9.91278, 19.8086 9.88644, 19.2739 9.88587 L 17.2461 9.88587 C 16.9129 9.88644, 16.7176 9.91106, 16.6609 9.95915, 16.63 9.98434, 16.5671 10.1641, 16.4726 10.4996 L 15.303 14.9698, 16.6043 14.9698 C 16.9569 14.9703, 17.2775 14.9554, 17.5667 14.9245, 17.8563 14.8942, 18.1048 14.8026, 18.3121 14.6492, 18.501 14.4969, 18.6441 14.2833, 18.7415 14.0085, 18.8388 13.7337, 18.935 13.4194, 19.0289 13.0644, 19.0981 12.8818, 19.2178 12.7931, 19.3872 12.7988 L 19.5475 12.7988 C 19.7239 12.7994, 19.8115 12.879, 19.8115 13.037 L 19.8115 13.1011, 18.6327 17.6354 C 18.5949 17.8254, 18.4724 17.917, 18.2646 17.9102 L 18.114 17.9102 C 17.9376 17.9107, 17.8495 17.8375, 17.8495 17.6903, 17.8495 17.6543, 17.8592 17.6205, 17.8781 17.5896, 17.96 17.2483, 18.0195 16.9335, 18.0573 16.6461, 18.0699 16.5734, 18.0762 16.5092, 18.0762 16.4537, 18.0762 16.2831, 18.0384 16.1457, 17.9628 16.0415, 17.8563 15.8955, 17.6657 15.8085, 17.392 15.781, 17.1184 15.7535, 16.8121 15.7398, 16.4726 15.7392 L 15.114 15.7392, 13.8219 20.759 C 13.7589 20.9731, 13.7274 21.1323, 13.7274 21.2353 L 13.7274 21.2719 C 13.7526 21.2971, 13.9289 21.312, 14.2558 21.3177 L 16.4159 21.3177 C 16.9758 21.3183, 17.518 21.2805, 18.043 21.2038, 18.5686 21.1277, 19.0575 20.9336, 19.5098 20.6216, 19.7113 20.4756, 19.9031 20.2804, 20.0851 20.0359, 20.2678 19.792, 20.4407 19.5218, 20.6044 19.2252, 20.7681 18.9292, 20.9233 18.6149, 21.071 18.2817, 21.2187 17.9491, 21.3653 17.6205, 21.5095 17.2964, 21.5599 17.1504, 21.6704 17.0772, 21.8399 17.0766 L 22.0002 17.0766 C 22.1765 17.0772, 22.2641 17.1567, 22.2641 17.3148 L 22.2641 17.388, 20.3868 21.8582 C 20.3181 22.0048, 20.2048 22.078, 20.0473 22.078 L 10.2374 22.078 C 10.1429 22.078, 10.0737 22.0506, 10.0296 21.9956, 9.98606 21.9532, 9.9643 21.9074, 9.96373 21.8582, 9.9643 21.8221, 9.9706 21.7855, 9.98262 21.7483 L 10.0204 21.6109 C 10.0393 21.5319, 10.0834 21.4637, 10.1527 21.4053, 10.2219 21.3475, 10.3004 21.3183, 10.388 21.3177, 10.6839 21.3183, 10.961 21.3137, 11.2187 21.3046, 11.4763 21.2954, 11.6715 21.2634, 11.8032 21.2078, 11.9166 21.1471, 12.0042 20.9823, 12.0671 20.7132 L 14.7179 10.4538 C 14.7556 10.3198, 14.7745 10.2133, 14.7745 10.1332, 14.7745 10.0605, 14.7591 10.0175, 14.727 10.005, 14.6394 9.95056, 14.4665 9.91736, 14.2089 9.90476, 13.9513 9.89274, 13.6742 9.88644, 13.3782 9.88587, 13.2024 9.88644, 13.1143 9.804, 13.1143 9.63855 L 13.1143 9.57442, 13.152 9.4187 C 13.2024 9.21775, 13.3249 9.11699, 13.5196 9.11642 L 23.0753 9.11642 C 23.2328 9.11699, 23.3175 9.19313, 23.3301 9.34542 L 23.3301 9.40954 Z" stroke="none" fill="#E50A00" />
			<polygon points="-4.72752 0 -1.72592 -1.876 -1.02242 -1.876 -2.61702 -0.35175 4.72752 -0.35175 4.72752 0.35175 -2.61702 0.35175 -1.02242 1.876 -1.72592 1.876" stroke="none" fill="#E50A00" transform="matrix(-1 8.74228e-008 -8.74228e-008 -1 18.0623 4.69)" />
			<rect />
		</svg>
	</g>
	<path d="M -48.3839 0 L 48.384 0" fill="none" stroke="#E50A00" stroke-width="4.53333378" stroke-linecap="round" stroke-linejoin="round" marker-end="url(#CustomMarker-04)" transform="matrix(0.294118 0 0 0.294118 167.945 95.4379)" />
	<path d="M 0 79.5032 L 0 -79.5034" fill="none" stroke="#E50A00" stroke-opacity="0.494117618" stroke-width="4.53333378" stroke-linecap="round" stroke-linejoin="round" stroke-dasharray="2.28933, 6.77733" transform="matrix(0.294118 0 0 0.294118 182.176 72.0546)" />
	<path d="M -48.3832 0 L 48.3839 0" fill="none" stroke="#E50A00" stroke-opacity="0.494117618" stroke-width="4.53333378" stroke-linecap="round" stroke-linejoin="round" stroke-dasharray="2.28933, 6.77733" transform="matrix(0.294118 0 0 0.294118 168.208 48.6712)" />
	<path d="M 0 79.1764 L 0 -79.1765" fill="none" stroke="#E50A00" stroke-width="4.53333378" stroke-linecap="round" stroke-linejoin="round" marker-end="url(#CustomMarker-05)" transform="matrix(0.294118 0 0 0.294118 153.715 72.0546)" />
	<ellipse cx="1298.6309328079224" cy="596.48853778839111" rx="8.9250001907348633" ry="8.9250001907348633" stroke="none" fill="#000000" transform="matrix(0.294118 0 0 0.294118 -228.235 -80)" />
	<g transform="matrix(1 0 -0 1 187.28 80.6828)">
		<svg width="96.001976" height="71.9361496">
			<defs />
			<path d="M 6.67593 22.2796 L 6.67593 21.1895 C 6.47498 21.4403, 6.15266 21.6836, 5.70896 21.9183, 5.26584 22.153, 4.77005 22.2704, 4.22273 22.2704, 3.64449 22.2704, 3.09717 22.1576, 2.58134 21.932, 2.06608 21.7065, 1.61953 21.3945, 1.24167 20.9971, 0.832898 20.57, 0.523171 20.0972, 0.312487 19.5779, 0.101803 19.0592, -0.00411087 18.5124, -0.00411087 17.9376, -0.00411087 17.364, 0.106384 16.8115, 0.326227 16.2802, 0.546643 15.7489, 0.867249 15.2789, 1.28862 14.8696, 1.70998 14.4608, 2.19146 14.1448, 2.73249 13.9215, 3.27351 13.6988, 3.83972 13.5871, 4.43055 13.5866, 4.94008 13.5871, 5.40439 13.6959, 5.82232 13.9123, 6.24083 14.1293, 6.53796 14.3503, 6.71372 14.5759 L 6.71372 10.7652 C 6.71372 10.6072, 6.70628 10.4532, 6.69025 10.3032, 6.67479 10.1538, 6.61353 10.0393, 6.50647 9.95915, 6.39941 9.88644, 6.22937 9.84408, 5.99694 9.83148, 5.7645 9.81946, 5.50973 9.81316, 5.23264 9.81259 L 5.23264 9.07062, 8.20453 8.85077, 8.20453 20.3559 C 8.20453 20.5151, 8.21255 20.6679, 8.22801 20.8145, 8.24404 20.9611, 8.30701 21.071, 8.41693 21.1443, 8.52686 21.2176, 8.69861 21.2622, 8.93105 21.2771, 9.16406 21.2926, 9.42169 21.3, 9.70451 21.2994 L 9.70451 22.0506 Z M 6.67593 15.611 C 6.46868 15.2022, 6.1727 14.865, 5.78911 14.5993, 5.40553 14.3337, 4.96527 14.2009, 4.46834 14.2003, 4.07216 14.2009, 3.70117 14.2942, 3.35538 14.4803, 3.00958 14.6669, 2.71073 14.9245, 2.45883 15.2537, 2.1823 15.627, 2.00483 16.0438, 1.92582 16.5047, 1.84739 16.9661, 1.80788 17.4436, 1.80788 17.9376, 1.80788 18.4329, 1.84281 18.9063, 1.91151 19.358, 1.98078 19.8103, 2.14452 20.2346, 2.40215 20.6307, 2.61627 20.9428, 2.88821 21.1935, 3.21855 21.3824, 3.54888 21.5719, 3.8964 21.6664, 4.26051 21.6658, 4.80783 21.6664, 5.29218 21.5153, 5.71354 21.213, 6.13491 20.9107, 6.45609 20.5242, 6.67593 20.0536 Z" stroke="none" fill="#E50A00" />
			<path d="M 23.2824 13.2293 C 23.2641 13.3095, 23.2229 13.3782, 23.1599 13.436, 23.0969 13.4944, 23.0282 13.523, 22.9527 13.5225, 22.9275 13.535, 22.896 13.5413, 22.8582 13.5408, 22.7826 13.5413, 22.7449 13.535, 22.7449 13.5225, 22.588 13.523, 22.5027 13.456, 22.4901 13.3209 L 22.4901 13.2568 C 22.5279 12.9706, 22.5594 12.6803, 22.5845 12.3866, 22.6097 12.161, 22.6223 11.9538, 22.6223 11.7637 L 22.6223 11.608 C 22.6097 11.3641, 22.58 11.146, 22.533 10.9536, 22.4861 10.7612, 22.4025 10.5981, 22.2828 10.463, 22.0435 10.1824, 21.688 10.0164, 21.2163 9.9643, 20.7445 9.91278, 20.2413 9.88644, 19.7065 9.88587 L 17.6781 9.88587 C 17.3449 9.88644, 17.1503 9.91106, 17.0936 9.95915, 17.0621 9.98434, 16.9991 10.1641, 16.9047 10.4996 L 15.7345 14.9698, 17.0369 14.9698 C 17.3896 14.9703, 17.7102 14.9554, 17.9993 14.9245, 18.289 14.8942, 18.5375 14.8026, 18.7447 14.6492, 18.9337 14.4969, 19.0768 14.2833, 19.1741 14.0085, 19.2714 13.7337, 19.3676 13.4194, 19.4615 13.0644, 19.5308 12.8818, 19.6504 12.7931, 19.8199 12.7988 L 19.9802 12.7988 C 20.1565 12.7994, 20.2447 12.879, 20.2447 13.037 L 20.2447 13.1011, 19.0653 17.6354 C 19.0275 17.8254, 18.905 17.917, 18.6972 17.9102 L 18.5461 17.9102 C 18.3703 17.9107, 18.2821 17.8375, 18.2821 17.6903, 18.2821 17.6543, 18.2919 17.6205, 18.3102 17.5896, 18.3926 17.2483, 18.4522 16.9335, 18.49 16.6461, 18.5026 16.5734, 18.5089 16.5092, 18.5089 16.4537, 18.5089 16.2831, 18.4711 16.1457, 18.3955 16.0415, 18.289 15.8955, 18.0984 15.8085, 17.8247 15.781, 17.551 15.7535, 17.2448 15.7398, 16.9047 15.7392 L 15.5461 15.7392, 14.2534 20.759 C 14.1904 20.9731, 14.1589 21.1323, 14.1589 21.2353 L 14.1589 21.2719 C 14.1841 21.2971, 14.3604 21.312, 14.6873 21.3177 L 16.848 21.3177 C 17.4079 21.3183, 17.9507 21.2805, 18.4756 21.2038, 19.0012 21.1277, 19.4901 20.9336, 19.9424 20.6216, 20.1439 20.4756, 20.3363 20.2804, 20.5184 20.0359, 20.701 19.792, 20.8739 19.5218, 21.0376 19.2252, 21.2014 18.9292, 21.3565 18.6149, 21.5042 18.2817, 21.6519 17.9491, 21.7985 17.6205, 21.9428 17.2964, 21.9931 17.1504, 22.1036 17.0772, 22.2731 17.0766 L 22.4334 17.0766 C 22.6097 17.0772, 22.6979 17.1567, 22.6979 17.3148 L 22.6979 17.388, 20.8201 21.8582 C 20.7514 22.0048, 20.638 22.078, 20.4806 22.078 L 10.6683 22.078 C 10.5739 22.078, 10.5046 22.0506, 10.4605 21.9956, 10.417 21.9532, 10.3952 21.9074, 10.3947 21.8582, 10.3952 21.8221, 10.4015 21.7855, 10.4136 21.7483 L 10.4514 21.6109 C 10.4702 21.5319, 10.5143 21.4637, 10.5836 21.4053, 10.6529 21.3475, 10.7313 21.3183, 10.8189 21.3177, 11.1149 21.3183, 11.392 21.3137, 11.6496 21.3046, 11.9072 21.2954, 12.1025 21.2634, 12.2341 21.2078, 12.3475 21.1471, 12.4357 20.9823, 12.4986 20.7132 L 15.1499 10.4538 C 15.1877 10.3198, 15.2066 10.2133, 15.2066 10.1332, 15.2066 10.0605, 15.1912 10.0175, 15.1591 10.005, 15.0709 9.95056, 14.898 9.91736, 14.6404 9.90476, 14.3828 9.89274, 14.1057 9.88644, 13.8097 9.88587, 13.6339 9.88644, 13.5458 9.804, 13.5458 9.63855 L 13.5458 9.57442, 13.5836 9.4187 C 13.6339 9.21775, 13.757 9.11699, 13.9517 9.11642 L 23.5092 9.11642 C 23.6666 9.11699, 23.7513 9.19313, 23.7639 9.34542 L 23.7639 9.40954 Z" stroke="none" fill="#E50A00" />
			<polygon points="-4.72752 0 -1.72592 -1.876 -1.02242 -1.876 -2.61702 -0.35175 4.72752 -0.35175 4.72752 0.35175 -2.61702 0.35175 -1.02242 1.876 -1.72592 1.876" stroke="none" fill="#E50A00" transform="matrix(-1 8.74228e-008 -8.74228e-008 -1 18.4548 4.69)" />
			<path d="M 2.99166 -0.680915 C 2.95318 -0.526704, 2.87463 -0.411286, 2.75665 -0.33434, 2.63867 -0.257395, 2.52005 -0.218922, 2.40014 -0.219243, 2.27703 -0.218922, 2.17475 -0.258357, 2.09364 -0.337226, 2.03401 -0.394935, 2.00227 -0.470277, 1.99842 -0.562932, 1.99842 -0.600122, 2.00547 -0.648213, 2.01958 -0.706563, 2.05837 -0.836088, 2.11833 -0.934514, 2.19912 -1.0012, 2.28023 -1.06789, 2.33666 -1.10636, 2.3684 -1.11694, 2.30171 -1.16791, 2.16417 -1.19356, 1.9561 -1.19388, 1.77303 -1.19356, 1.60921 -1.09866, 1.46493 -0.908866, 1.32066 -0.719067, 1.21294 -0.490796, 1.1424 -0.224373 L 0.656366 1.65309 C 0.606993 1.84161, 0.570123 2.02115, 0.545437 2.19171, 0.53133 2.25006, 0.524276 2.30136, 0.524276 2.3456, 0.524276 2.45204, 0.54191 2.55271, 0.577177 2.64825, 0.612443 2.75117, 0.665343 2.83324, 0.735876 2.8948, 0.806409 2.95635, 0.896179 2.98713, 1.00518 2.98681, 1.14625 2.98713, 1.28187 2.95058, 1.41203 2.87684, 1.54252 2.80343, 1.66243 2.70436, 1.77143 2.57932, 1.88044 2.45461, 1.97726 2.30937, 2.0619 2.1433, 2.14654 1.97755, 2.21323 1.8073, 2.2626 1.63257, 2.28376 1.54409, 2.34371 1.49952, 2.44214 1.4992 L 2.56365 1.4992 C 2.65534 1.49952, 2.70119 1.53383, 2.70119 1.6018, 2.70119 1.62264, 2.69606 1.64155, 2.68548 1.65822, 2.6361 1.86373, 2.55595 2.06635, 2.44502 2.26641, 2.33409 2.46647, 2.20489 2.64344, 2.05677 2.79733, 1.90865 2.95122, 1.74065 3.07786, 1.55214 3.17661, 1.36362 3.276, 1.16196 3.32537, 0.947155 3.32537, 0.728823 3.32537, 0.540307 3.27856, 0.381928 3.1843, 0.223549 3.09069, 0.0946653 2.96822, -0.00408125 2.81753, -0.0355005 2.78034, -0.0601871 2.74187, -0.0778205 2.70243, -0.0954537 2.66332, -0.100904 2.65723, -0.0938507 2.68416, -0.17817 2.82459, -0.311862 2.96661, -0.495249 3.11024, -0.678314 3.25388, -0.889593 3.32537, -1.12941 3.32537, -1.2631 3.32537, -1.39519 3.30838, -1.52567 3.27407, -1.65584 3.24009, -1.76966 3.18719, -1.86648 3.11537, -1.9633 3.04356, -2.0364 2.95635, -2.08577 2.85344, -2.11014 2.7922, -2.12232 2.72552, -2.12264 2.65338, -2.12232 2.60241, -2.11527 2.54245, -2.10148 2.47384, -2.06269 2.32027, -1.9835 2.20485, -1.86359 2.12791, -1.74369 2.05096, -1.6241 2.01249, -1.50451 2.01217, -1.38108 2.01249, -1.27528 2.05193, -1.18744 2.13015, -1.12748 2.1885, -1.09767 2.26385, -1.09767 2.35586, -1.09767 2.40395, -1.10472 2.45204, -1.11883 2.49949, -1.15025 2.6194, -1.20763 2.71622, -1.29035 2.78964, -1.37307 2.86338, -1.43238 2.90345, -1.46765 2.90987, -1.40064 2.96501, -1.26502 2.99066, -1.0608 2.98681, -0.87741 2.98713, -0.711978 2.89159, -0.564179 2.69987, -0.416059 2.50847, -0.308656 2.27924, -0.24165 2.01217 L 0.249518 0.124446 C 0.298891 -0.0531695, 0.337684 -0.227579, 0.365897 -0.398782, 0.372951 -0.453285, 0.376477 -0.504582, 0.376477 -0.552673, 0.376477 -0.658473, 0.360768 -0.75754, 0.328707 -0.850195, 0.293761 -0.952468, 0.239258 -1.03518, 0.165199 -1.09866, 0.0911386 -1.16182, -0.000554562 -1.19356, -0.10956 -1.19388, -0.250627 -1.19356, -0.387205 -1.15669, -0.519294 -1.08328, -0.651384 -1.00954, -0.771931 -0.911431, -0.880937 -0.788318, -0.989943 -0.665205, -1.08677 -0.522215, -1.17141 -0.359989, -1.25605 -0.197442, -1.3176 -0.0255973, -1.35672 0.155224, -1.39519 0.247879, -1.46027 0.295649, -1.55196 0.298855 L -1.66834 0.298855 C -1.75266 0.299176, -1.79498 0.256536, -1.79498 0.170613 L -1.79498 0.134705 C -1.74208 -0.0768943, -1.66097 -0.283044, -1.55196 -0.483101, -1.44296 -0.683159, -1.31247 -0.860133, -1.16115 -1.01402, -1.0095 -1.16791, -0.84022 -1.29359, -0.653628 -1.39106, -0.467035 -1.48852, -0.264413 -1.53725, -0.046401 -1.53757, 0.165199 -1.53725, 0.351791 -1.49108, 0.513697 -1.39875, 0.675923 -1.30642, 0.808012 -1.1833, 0.909965 -1.02973, 0.931125 -0.991902, 0.950682 -0.951506, 0.968315 -0.908866, 0.985949 -0.865905, 0.991078 -0.855004, 0.984025 -0.875843, 1.07219 -1.02589, 1.20781 -1.17369, 1.39087 -1.31924, 1.57426 -1.46447, 1.78361 -1.53725, 2.01958 -1.53757, 2.15359 -1.53725, 2.28632 -1.5209, 2.41841 -1.48852, 2.5505 -1.45582, 2.66528 -1.40388, 2.7621 -1.33206, 2.85893 -1.26025, 2.93042 -1.17144, 2.97595 -1.06564, 3.00063 -1.00376, 3.01282 -0.933552, 3.01282 -0.855325, 3.01282 -0.803707, 3.00576 -0.745677, 2.99166 -0.680915 Z" stroke="none" fill="#E50A00" transform="matrix(1.12 0 0 1 26.9968 21.5418)" />
			<rect />
		</svg>
	</g>
	<g transform="matrix(1 0 -0 1 116.273 24.3253)">
		<svg width="93.131546" height="77.968071">
			<defs />
			<path d="M 6.67593 22.2796 L 6.67593 21.1895 C 6.47498 21.4403, 6.15266 21.6836, 5.70896 21.9183, 5.26584 22.153, 4.77005 22.2704, 4.22273 22.2704, 3.64449 22.2704, 3.09717 22.1576, 2.58134 21.932, 2.06608 21.7065, 1.61953 21.3945, 1.24167 20.9971, 0.832898 20.57, 0.523171 20.0972, 0.312487 19.5779, 0.101803 19.0592, -0.00411087 18.5124, -0.00411087 17.9376, -0.00411087 17.364, 0.106384 16.8115, 0.326227 16.2802, 0.546643 15.7489, 0.867249 15.2789, 1.28862 14.8696, 1.70998 14.4608, 2.19146 14.1448, 2.73249 13.9215, 3.27351 13.6988, 3.83972 13.5871, 4.43055 13.5866, 4.94008 13.5871, 5.40439 13.6959, 5.82232 13.9123, 6.24083 14.1293, 6.53796 14.3503, 6.71372 14.5759 L 6.71372 10.7652 C 6.71372 10.6072, 6.70628 10.4532, 6.69025 10.3032, 6.67479 10.1538, 6.61353 10.0393, 6.50647 9.95915, 6.39941 9.88644, 6.22937 9.84408, 5.99694 9.83148, 5.7645 9.81946, 5.50973 9.81316, 5.23264 9.81259 L 5.23264 9.07062, 8.20453 8.85077, 8.20453 20.3559 C 8.20453 20.5151, 8.21255 20.6679, 8.22801 20.8145, 8.24404 20.9611, 8.30701 21.071, 8.41693 21.1443, 8.52686 21.2176, 8.69861 21.2622, 8.93105 21.2771, 9.16406 21.2926, 9.42169 21.3, 9.70451 21.2994 L 9.70451 22.0506 Z M 6.67593 15.611 C 6.46868 15.2022, 6.1727 14.865, 5.78911 14.5993, 5.40553 14.3337, 4.96527 14.2009, 4.46834 14.2003, 4.07216 14.2009, 3.70117 14.2942, 3.35538 14.4803, 3.00958 14.6669, 2.71073 14.9245, 2.45883 15.2537, 2.1823 15.627, 2.00483 16.0438, 1.92582 16.5047, 1.84739 16.9661, 1.80788 17.4436, 1.80788 17.9376, 1.80788 18.4329, 1.84281 18.9063, 1.91151 19.358, 1.98078 19.8103, 2.14452 20.2346, 2.40215 20.6307, 2.61627 20.9428, 2.88821 21.1935, 3.21855 21.3824, 3.54888 21.5719, 3.8964 21.6664, 4.26051 21.6658, 4.80783 21.6664, 5.29218 21.5153, 5.71354 21.213, 6.13491 20.9107, 6.45609 20.5242, 6.67593 20.0536 Z" stroke="none" fill="#E50A00" />
			<path d="M 23.2824 13.2293 C 23.2641 13.3095, 23.2229 13.3782, 23.1599 13.436, 23.0969 13.4944, 23.0282 13.523, 22.9527 13.5225, 22.9275 13.535, 22.896 13.5413, 22.8582 13.5408, 22.7826 13.5413, 22.7449 13.535, 22.7449 13.5225, 22.588 13.523, 22.5027 13.456, 22.4901 13.3209 L 22.4901 13.2568 C 22.5279 12.9706, 22.5594 12.6803, 22.5845 12.3866, 22.6097 12.161, 22.6223 11.9538, 22.6223 11.7637 L 22.6223 11.608 C 22.6097 11.3641, 22.58 11.146, 22.533 10.9536, 22.4861 10.7612, 22.4025 10.5981, 22.2828 10.463, 22.0435 10.1824, 21.688 10.0164, 21.2163 9.9643, 20.7445 9.91278, 20.2413 9.88644, 19.7065 9.88587 L 17.6781 9.88587 C 17.3449 9.88644, 17.1503 9.91106, 17.0936 9.95915, 17.0621 9.98434, 16.9991 10.1641, 16.9047 10.4996 L 15.7345 14.9698, 17.0369 14.9698 C 17.3896 14.9703, 17.7102 14.9554, 17.9993 14.9245, 18.289 14.8942, 18.5375 14.8026, 18.7447 14.6492, 18.9337 14.4969, 19.0768 14.2833, 19.1741 14.0085, 19.2714 13.7337, 19.3676 13.4194, 19.4615 13.0644, 19.5308 12.8818, 19.6504 12.7931, 19.8199 12.7988 L 19.9802 12.7988 C 20.1565 12.7994, 20.2447 12.879, 20.2447 13.037 L 20.2447 13.1011, 19.0653 17.6354 C 19.0275 17.8254, 18.905 17.917, 18.6972 17.9102 L 18.5461 17.9102 C 18.3703 17.9107, 18.2821 17.8375, 18.2821 17.6903, 18.2821 17.6543, 18.2919 17.6205, 18.3102 17.5896, 18.3926 17.2483, 18.4522 16.9335, 18.49 16.6461, 18.5026 16.5734, 18.5089 16.5092, 18.5089 16.4537, 18.5089 16.2831, 18.4711 16.1457, 18.3955 16.0415, 18.289 15.8955, 18.0984 15.8085, 17.8247 15.781, 17.551 15.7535, 17.2448 15.7398, 16.9047 15.7392 L 15.5461 15.7392, 14.2534 20.759 C 14.1904 20.9731, 14.1589 21.1323, 14.1589 21.2353 L 14.1589 21.2719 C 14.1841 21.2971, 14.3604 21.312, 14.6873 21.3177 L 16.848 21.3177 C 17.4079 21.3183, 17.9507 21.2805, 18.4756 21.2038, 19.0012 21.1277, 19.4901 20.9336, 19.9424 20.6216, 20.1439 20.4756, 20.3363 20.2804, 20.5184 20.0359, 20.701 19.792, 20.8739 19.5218, 21.0376 19.2252, 21.2014 18.9292, 21.3565 18.6149, 21.5042 18.2817, 21.6519 17.9491, 21.7985 17.6205, 21.9428 17.2964, 21.9931 17.1504, 22.1036 17.0772, 22.2731 17.0766 L 22.4334 17.0766 C 22.6097 17.0772, 22.6979 17.1567, 22.6979 17.3148 L 22.6979 17.388, 20.8201 21.8582 C 20.7514 22.0048, 20.638 22.078, 20.4806 22.078 L 10.6683 22.078 C 10.5739 22.078, 10.5046 22.0506, 10.4605 21.9956, 10.417 21.9532, 10.3952 21.9074, 10.3947 21.8582, 10.3952 21.8221, 10.4015 21.7855, 10.4136 21.7483 L 10.4514 21.6109 C 10.4702 21.5319, 10.5143 21.4637, 10.5836 21.4053, 10.6529 21.3475, 10.7313 21.3183, 10.8189 21.3177, 11.1149 21.3183, 11.392 21.3137, 11.6496 21.3046, 11.9072 21.2954, 12.1025 21.2634, 12.2341 21.2078, 12.3475 21.1471, 12.4357 20.9823, 12.4986 20.7132 L 15.1499 10.4538 C 15.1877 10.3198, 15.2066 10.2133, 15.2066 10.1332, 15.2066 10.0605, 15.1912 10.0175, 15.1591 10.005, 15.0709 9.95056, 14.898 9.91736, 14.6404 9.90476, 14.3828 9.89274, 14.1057 9.88644, 13.8097 9.88587, 13.6339 9.88644, 13.5458 9.804, 13.5458 9.63855 L 13.5458 9.57442, 13.5836 9.4187 C 13.6339 9.21775, 13.757 9.11699, 13.9517 9.11642 L 23.5092 9.11642 C 23.6666 9.11699, 23.7513 9.19313, 23.7639 9.34542 L 23.7639 9.40954 Z" stroke="none" fill="#E50A00" />
			<polygon points="-4.72752 0 -1.72592 -1.876 -1.02242 -1.876 -2.61702 -0.35175 4.72752 -0.35175 4.72752 0.35175 -2.61702 0.35175 -1.02242 1.876 -1.72592 1.876" stroke="none" fill="#E50A00" transform="matrix(-1 8.74228e-008 -8.74228e-008 -1 18.4548 4.69)" />
			<path d="M 1.67431 3.16635 C 1.60057 3.45361, 1.48419 3.72805, 1.32581 3.98967, 1.16744 4.25128, 0.980522 4.48404, 0.765717 4.6873, 0.550911 4.89089, 0.309815 5.056, 0.04211 5.18232, -0.225596 5.30896, -0.503881 5.37212, -0.792747 5.37212, -0.965232 5.37212, -1.12361 5.3407, -1.26788 5.27722, -1.41216 5.21406, -1.53014 5.12846, -1.62183 5.02073, -1.71353 4.91301, -1.77508 4.78573, -1.80682 4.63857, -1.82093 4.57381, -1.82798 4.50712, -1.82798 4.43851, -1.82798 4.34971, -1.8174 4.25897, -1.79624 4.16664, -1.75745 4.01275, -1.67826 3.89733, -1.55867 3.82039, -1.43877 3.74344, -1.32078 3.70497, -1.20472 3.70497, -1.08129 3.70497, -0.977415 3.7444, -0.893096 3.82295, -0.833143 3.8813, -0.803327 3.95632, -0.803327 4.04866, -0.803327 4.08649, -0.81038 4.13266, -0.824487 4.18716, -0.862959 4.34105, -0.942149 4.45647, -1.06206 4.53341, -1.18164 4.61036, -1.27686 4.64883, -1.34739 4.64883, -1.32623 4.74116, -1.26019 4.82773, -1.14926 4.90788, -1.03833 4.98835, -0.896302 5.02843, -0.723817 5.02843, -0.533697 5.02843, -0.355761 4.97713, -0.190329 4.87454, -0.0248966 4.77194, 0.12675 4.6344, 0.263969 4.4616, 0.401188 4.28911, 0.521736 4.08905, 0.625612 3.86142, 0.729488 3.63411, 0.813166 3.39558, 0.876646 3.14583 L 0.908386 3.02272 C 0.855807 3.07081, 0.744877 3.13333, 0.575597 3.20995, 0.406638 3.2869, 0.221649 3.32537, 0.0209498 3.32537, -0.218542 3.32537, -0.432386 3.28113, -0.620902 3.192, -0.809418 3.10351, -0.958179 2.96661, -1.06718 2.78162, -1.17298 2.58349, -1.22396 2.36484, -1.22043 2.12502 L -1.22043 2.08399 C -1.21338 1.83456, -1.18164 1.58673, -1.12554 1.34018, -1.06911 1.10454, -0.987034 0.844846, -0.879631 0.56079, -0.772228 0.277054, -0.669314 0.00165415, -0.570888 -0.26541, -0.465088 -0.548826, -0.412188 -0.781585, -0.412188 -0.963048, -0.412188 -1.11662, -0.477271 -1.19356, -0.607757 -1.19388, -0.727343 -1.19356, -0.835708 -1.15926, -0.932531 -1.09097, -1.02935 -1.02236, -1.1172 -0.92746, -1.19671 -0.806272, -1.2759 -0.684762, -1.34707 -0.541131, -1.41055 -0.375378, -1.47403 -0.209304, -1.52693 -0.0326507, -1.56925 0.155224, -1.60773 0.247879, -1.67281 0.295649, -1.7645 0.298855 L -1.88601 0.298855 C -1.97065 0.299176, -2.01297 0.256536, -2.01297 0.170613 L -2.01297 0.134705 C -1.9636 -0.0531695, -1.89819 -0.245212, -1.8174 -0.442064, -1.73629 -0.638595, -1.63402 -0.817172, -1.5109 -0.978116, -1.38779 -1.13874, -1.24672 -1.27211, -1.08834 -1.37823, -0.929966 -1.48403, -0.748503 -1.53725, -0.544277 -1.53757, -0.367944 -1.53725, -0.21758 -1.49942, -0.0925443 -1.4244, 0.0324917 -1.34906, 0.127391 -1.24903, 0.192474 -1.12431, 0.257877 -0.999276, 0.293785 -0.85853, 0.300838 -0.701434 L 0.300838 -0.665526 C 0.300838 -0.518047, 0.271022 -0.36608, 0.211069 -0.208984, 0.109117 0.0580807, 0.00780511 0.330916, -0.0925443 0.609522, -0.192894 0.888449, -0.271122 1.13884, -0.327548 1.36102, -0.383975 1.58352, -0.422768 1.80378, -0.443928 2.02243, -0.458035 2.08078, -0.466691 2.14426, -0.470538 2.21223, -0.470538 2.34592, -0.447455 2.47769, -0.401608 2.60721, -0.369868 2.72392, -0.311839 2.81625, -0.227199 2.88454, -0.142559 2.95315, -0.0422094 2.98713, 0.0738499 2.98681, 0.299236 2.98713, 0.496408 2.92045, 0.665367 2.78707, 0.834647 2.6537, 0.982446 2.47929, 1.10908 2.26353 L 1.95965 -1.04512 C 1.99139 -1.17144, 2.05551 -1.26442, 2.15233 -1.32437, 2.24916 -1.384, 2.34694 -1.41414, 2.44537 -1.41446, 2.54764 -1.41414, 2.63228 -1.38336, 2.69897 -1.32213, 2.74513 -1.27724, 2.7679 -1.21761, 2.7679 -1.14259, 2.7679 -1.10476, 2.76437 -1.06532, 2.75732 -1.0246 Z" stroke="none" fill="#E50A00" transform="matrix(1.12 0 0 1 26.8837 21.5418)" />
			<rect />
		</svg>
	</g>
</svg>
