<?xml version="1.0"?>
<svg xmlns="http://www.w3.org/2000/svg" xmlns:xlink="http://www.w3.org/1999/xlink" width="171" height="137.400009">
	<defs />
	<path d="M -379.106 0 L 379.106 0" fill="none" stroke="#000000" stroke-width="10.666667" stroke-linecap="round" stroke-linejoin="round" transform="matrix(0.2 0 0 0.2 85.6 109.032)" />
	<ellipse cx="1440" cy="414.64279174804688" rx="13.125" ry="13.125" stroke="none" fill="#000000" transform="matrix(0.2 0 0 0.2 -157.4 -55.2)" />
	<g transform="matrix(1 0 -0 1 136.936 1.57468)">
		<svg width="44.9082985" height="45.2233963">
			<defs />
			<path d="M 12.9791 7.44427 C 12.8411 7.9395, 12.6052 8.39636, 12.272 8.81429, 11.9388 9.23279, 11.5421 9.59462, 11.0829 9.8992, 10.586 10.2416, 10.0564 10.4998, 9.49308 10.6738, 8.9303 10.8478, 8.3721 10.9349, 7.81848 10.9343 L 5.01605 10.9343, 3.83668 15.5144 C 3.79889 15.6495, 3.78 15.756, 3.78 15.835, 3.78 15.9088, 3.79603 15.9546, 3.82752 15.9724, 3.91569 16.0279, 4.08858 16.06, 4.34621 16.0691, 4.60441 16.0783, 4.88094 16.0829, 5.17635 16.0823, 5.35269 16.0829, 5.44085 16.1682, 5.44085 16.3388 L 5.44085 16.4029, 5.40307 16.5678 C 5.33379 16.751, 5.21128 16.8426, 5.03494 16.8426, 4.24889 16.806, 3.4594 16.7876, 2.66704 16.7876, 1.86839 16.7876, 1.06974 16.806, 0.270517 16.8426, 0.101054 16.8426, 0.0100247 16.7636, -0.00314299 16.6044 L -0.00314299 16.5311, 0.0346427 16.3754 C 0.0850235 16.1745, 0.207541 16.0766, 0.402194 16.0823, 0.698181 16.0829, 0.978139 16.0783, 1.24207 16.0691, 1.50657 16.06, 1.70122 16.0279, 1.82717 15.9724, 1.94683 15.906, 2.03785 15.7411, 2.10083 15.4777 L 4.75212 5.15423 C 4.78991 5.02027, 4.80823 4.91664, 4.80823 4.84279, 4.80823 4.77008, 4.79277 4.72714, 4.76128 4.71455, 4.67312 4.66016, 4.50194 4.62695, 4.24717 4.61436, 3.9924 4.60234, 3.71416 4.59604, 3.41188 4.59547, 3.23612 4.59604, 3.14795 4.5136, 3.14795 4.34814 L 3.14795 4.27486, 3.20463 4.11914 C 3.24241 3.93651, 3.35921 3.84491, 3.55386 3.84433 L 9.60128 3.84433 C 10.1555 3.84491, 10.6696 3.93193, 11.1442 4.10597, 11.6194 4.28001, 12.0264 4.54108, 12.3659 4.88859, 12.6739 5.21263, 12.8909 5.59736, 13.0169 6.04277, 13.0547 6.25116, 13.0736 6.46185, 13.0736 6.67482, 13.0736 6.91986, 13.0421 7.17634, 12.9791 7.44427 Z M 10.9696 7.39847 C 11.0766 7.01432, 11.1488 6.64162, 11.1866 6.28093 L 11.1866 6.11605 C 11.1866 5.83552, 11.1081 5.57904, 10.9507 5.3466, 10.7434 5.07237, 10.4663 4.87886, 10.1205 4.7655, 9.77475 4.65272, 9.40033 4.59604, 8.99786 4.59547 L 7.22365 4.59547 C 6.90304 4.59604, 6.71125 4.62066, 6.64827 4.66932, 6.5853 4.71856, 6.51946 4.89203, 6.45019 5.19088 L 5.13857 10.2473, 7.49731 10.2473 C 7.90608 10.2479, 8.31542 10.19, 8.7242 10.0738, 9.13297 9.95817, 9.51655 9.7595, 9.87494 9.47783, 10.1961 9.2036, 10.4337 8.88299, 10.5877 8.51659, 10.7417 8.15018, 10.8688 7.77748, 10.9696 7.39847 Z" stroke="none" fill="#000000" />
			<rect />
		</svg>
	</g>
	<path d="M 0 -203.259 L 0 203.259" fill="none" stroke="#000000" stroke-width="6.66666698" stroke-linecap="round" stroke-linejoin="round" stroke-dasharray="23.3667, 16.6333" transform="matrix(0.2 0 0 0.2 130.6 68.3803)" />
	<g transform="matrix(1 0 -0 1 139.243 53.0747)">
		<svg width="29.9820557" height="32.8723297">
			<defs />
			<path d="M 8.45998 14.0579 C 8.38498 14.3579, 8.30025 14.6785, 8.20578 15.0203, 8.11132 15.3627, 7.98537 15.6798, 7.82793 15.973, 7.67106 16.2661, 7.47297 16.5197, 7.23366 16.7332, 6.99493 16.9468, 6.69607 17.0533, 6.33711 17.0533, 5.85964 17.0533, 5.4772 16.921, 5.19095 16.6554, 4.90469 16.3897, 4.73981 16.1195, 4.69573 15.8441, 4.48161 16.0892, 4.16272 16.352, 3.73792 16.6325, 3.31369 16.913, 2.86541 17.0533, 2.39366 17.0533, 1.89673 17.0533, 1.47994 16.9285, 1.1433 16.6783, 0.806667 16.4281, 0.544458 16.1132, 0.35553 15.7342, 0.129388 15.2831, 0.00973374 14.7976, -0.00286144 14.2778 L -0.00286144 14.1403 C -0.00286144 13.6583, 0.0635496 13.1762, 0.195227 12.693, 0.34637 12.1623, 0.557053 11.6373, 0.827278 11.1181, 1.09807 10.5994, 1.45647 10.1167, 1.90302 9.67019, 2.26828 9.30436, 2.68507 8.99635, 3.15338 8.74559, 3.6217 8.4954, 4.09803 8.37002, 4.58237 8.36945, 5.00374 8.37002, 5.34667 8.48166, 5.6106 8.70437, 5.8751 8.92765, 6.0417 9.112, 6.11097 9.25799 L 6.07318 9.41371 C 6.11727 9.18814, 6.22261 9.01753, 6.38921 8.90131, 6.55638 8.78566, 6.7247 8.72727, 6.89416 8.7267, 7.08882 8.72727, 7.25255 8.78509, 7.3848 8.90074, 7.46667 8.99291, 7.51076 9.11486, 7.51648 9.26715, 7.51648 9.32268, 7.51018 9.38394, 7.49759 9.45035 L 6.13902 14.7449 C 6.07605 14.9957, 6.03196 15.231, 6.00677 15.4503, 5.99475 15.5607, 5.98845 15.6615, 5.98845 15.7525, 5.98845 15.8327, 5.99475 15.918, 6.00677 16.009, 6.02624 16.1562, 6.07032 16.2661, 6.13902 16.3394, 6.2083 16.4126, 6.30562 16.4493, 6.43158 16.4487, 6.56383 16.4493, 6.68806 16.3943, 6.80428 16.2844, 6.92107 16.1745, 7.02813 16.0113, 7.12546 15.7943, 7.22278 15.5779, 7.31553 15.318, 7.4037 15.0157, 7.49186 14.7134, 7.58289 14.3854, 7.67678 14.0304, 7.71457 13.8724, 7.82163 13.7928, 7.99796 13.7923 L 8.21494 13.7923 C 8.37868 13.7928, 8.45998 13.8598, 8.45998 13.9938 L 8.45998 14.0579 Z M 5.76174 10.687 C 5.73655 10.5776, 5.71479 10.4631, 5.6959 10.344, 5.67701 10.225, 5.64838 10.1076, 5.6106 9.9908, 5.51041 9.70454, 5.36728 9.46466, 5.18179 9.2723, 4.99629 9.07994, 4.76156 8.98375, 4.47874 8.98318, 4.21482 8.98375, 3.95375 9.07879, 3.69555 9.26772, 3.43792 9.45722, 3.20205 9.70111, 2.98793 9.99996, 2.68622 10.4219, 2.46008 10.8604, 2.30893 11.315, 2.15779 11.7702, 2.01924 12.2448, 1.89329 12.7388, 1.76791 13.2278, 1.66429 13.7012, 1.58185 14.1587, 1.53204 14.3911, 1.50685 14.611, 1.50685 14.8182, 1.50685 15.0386, 1.53204 15.2522, 1.58185 15.4594, 1.6391 15.7468, 1.741 15.9838, 1.88871 16.1699, 2.03642 16.3565, 2.24252 16.4493, 2.50645 16.4487, 2.79614 16.4493, 3.08697 16.3485, 3.37953 16.147, 3.67208 15.9455, 3.94402 15.6981, 4.19535 15.4045, 4.29611 15.2831, 4.3923 15.1657, 4.48332 15.0524, 4.57493 14.9396, 4.65508 14.8188, 4.72378 14.69 L 5.76174 10.687 Z" stroke="none" fill="#000000" />
			<rect />
		</svg>
	</g>
	<g transform="matrix(1 0 -0 1 80.0675 113.61)">
		<svg width="38.880394" height="45.2233963">
			<defs />
			<path d="M 9.44326 16.5953 C 9.38716 16.7602, 9.26407 16.8426, 9.07514 16.8426 L 0.27452 16.8426 C 0.180056 16.8426, 0.110782 16.8151, 0.0666986 16.7602, 0.0231878 16.7178, 0.00143247 16.672, 0.000859957 16.6228, 0.00143247 16.5867, 0.00773007 16.55, 0.0197528 16.5128 L 0.0575384 16.3754 C 0.0764312 16.2964, 0.120514 16.2283, 0.189788 16.1699, 0.259062 16.1121, 0.337496 16.0829, 0.42509 16.0823, 0.721077 16.0829, 0.998172 16.0783, 1.2558 16.0691, 1.51343 16.06, 1.70866 16.0279, 1.84033 15.9724, 1.95369 15.9117, 2.04128 15.7468, 2.10426 15.4777 L 4.77387 5.15423 C 4.79906 5.03859, 4.81166 4.94699, 4.81166 4.87943, 4.81166 4.7884, 4.79277 4.73058, 4.75498 4.70539, 4.67368 4.6573, 4.50365 4.62695, 4.24602 4.61436, 3.98839 4.60234, 3.7113 4.59604, 3.41531 4.59547, 3.32142 4.59604, 3.25214 4.56569, 3.20806 4.50386, 3.17027 4.4678, 3.15138 4.422, 3.15138 4.36646, 3.15138 4.33039, 3.16111 4.29662, 3.17943 4.2657 L 3.20806 4.11914 C 3.27733 3.93651, 3.39985 3.84491, 3.57561 3.84433, 4.31186 3.88155, 5.0504 3.89987, 5.79237 3.89929, 5.91832 3.89987, 6.04771 3.89357, 6.17938 3.88097, 7.04101 3.88155, 7.9181 3.86952, 8.81121 3.84433, 8.89938 3.84491, 8.97495 3.87525, 9.03735 3.93593, 9.06254 3.98517, 9.07514 4.03097, 9.07514 4.07334, 9.07514 4.11055, 9.06598 4.14433, 9.04709 4.1741 L 9.01846 4.3115 C 9.00014 4.39165, 8.95777 4.45864, 8.89136 4.5136, 8.82552 4.56856, 8.74537 4.59604, 8.65091 4.59547, 8.30511 4.59604, 7.95817 4.60234, 7.60894 4.61436, 7.25971 4.62695, 7.00323 4.66016, 6.83949 4.71455, 6.68262 4.77638, 6.5727 4.93496, 6.50972 5.19088 L 3.859 15.5235 C 3.79603 15.7377, 3.76454 15.8968, 3.76454 15.9999 L 3.76454 16.0365 C 3.78973 16.0617, 3.96606 16.0766, 4.29296 16.0823 L 5.95267 16.0823 C 6.39923 16.0829, 6.84464 16.0188, 7.28776 15.8905, 7.73146 15.7623, 8.13565 15.5424, 8.49977 15.2304, 8.9406 14.8829, 9.29441 14.4237, 9.5612 13.8524, 9.82856 13.2816, 10.0787 12.6936, 10.3112 12.0885, 10.3616 11.9242, 10.4715 11.8417, 10.641 11.8411 L 10.8201 11.8411 C 10.9839 11.8417, 11.0658 11.9213, 11.0658 12.0793 L 11.0658 12.1526 Z" stroke="none" fill="#000000" />
			<rect />
		</svg>
	</g>
</svg>
