<?xml version="1.0"?>
<svg xmlns="http://www.w3.org/2000/svg" xmlns:xlink="http://www.w3.org/1999/xlink" width="187.916656" height="289.583313">
	<defs>
		<marker id="CustomMarker-01" markerUnits="strokeWidth" markerWidth="15.000001" markerHeight="9" viewBox="-15 -4.5 15 9" orient="auto-start-reverse">
			<path d="M 0 -0 L -10 -3, -8 -0.5, -8 0.5, -10 3 Z" fill="#000000" stroke="#000000" stroke-linejoin="round" />
		</marker>
		<marker id="CustomMarker-02" markerUnits="strokeWidth" markerWidth="9" markerHeight="9" viewBox="-9 -4.5 9 9" orient="auto-start-reverse">
			<path d="M 0 -0 L -6 -3, -4.8 -0.5, -4.8 0.5, -6 3 Z" fill="#E50A00" stroke="#E50A00" stroke-linejoin="round" />
		</marker>
		<marker id="CustomMarker-03" markerUnits="strokeWidth" markerWidth="9" markerHeight="9" viewBox="-9 -4.5 9 9" orient="auto-start-reverse">
			<path d="M 0 -0 L -6 -3, -4.8 -0.5, -4.8 0.5, -6 3 Z" fill="#000000" stroke="#000000" stroke-linejoin="round" />
		</marker>
		<marker id="CustomMarker-04" markerUnits="strokeWidth" markerWidth="9" markerHeight="9" viewBox="-9 -4.5 9 9" orient="auto-start-reverse">
			<path d="M 0 -0 L -6 -3, -4.8 -0.5, -4.8 0.5, -6 3 Z" fill="#E50A00" stroke="#E50A00" stroke-linejoin="round" />
		</marker>
	</defs>
	<path d="M 0 301.993 L 0 -301.993" fill="none" stroke="#000000" stroke-width="3.20000029" stroke-linecap="round" stroke-linejoin="round" marker-end="url(#CustomMarker-01)" transform="matrix(0.416667 0 0 0.416667 94.4141 155.543)" />
	<g transform="matrix(1 0 -0 1 89.8297 2.4598)">
		<svg width="33.1395264" height="32.8723297">
			<defs />
			<path d="M 9.12724 9.8992 C 9.05854 10.1746, 8.91827 10.3807, 8.70759 10.5181, 8.4969 10.6555, 8.28508 10.7242, 8.07096 10.7236, 7.85111 10.7242, 7.66848 10.6538, 7.52364 10.5129, 7.41715 10.4099, 7.36047 10.2753, 7.3536 10.1099, 7.3536 10.0435, 7.3662 9.95759, 7.39139 9.8534, 7.46123 9.6221, 7.56829 9.44634, 7.71257 9.32726, 7.85741 9.20818, 7.95817 9.13948, 8.01428 9.12058, 7.8952 9.02955, 7.64959 8.98375, 7.2786 8.98318, 6.9517 8.98375, 6.65915 9.15322, 6.40152 9.49214, 6.14389 9.83107, 5.95153 10.2387, 5.82557 10.7144 L 4.95765 14.0671 C 4.87006 14.4037, 4.80422 14.7243, 4.75956 15.0289, 4.73494 15.1331, 4.72235 15.2247, 4.72235 15.3037, 4.72235 15.4938, 4.75384 15.6735, 4.81624 15.8441, 4.87922 16.0279, 4.97368 16.1745, 5.09963 16.2844, 5.22558 16.3943, 5.38589 16.4493, 5.58054 16.4487, 5.83244 16.4493, 6.07462 16.384, 6.30705 16.2523, 6.53949 16.1212, 6.75361 15.9443, 6.94827 15.721, 7.14349 15.4983, 7.31639 15.239, 7.46753 14.9424, 7.61867 14.6464, 7.73776 14.3424, 7.82535 14.0304, 7.86314 13.8724, 7.9702 13.7928, 8.14653 13.7923 L 8.36294 13.7923 C 8.52667 13.7928, 8.60854 13.8541, 8.60854 13.9755, 8.60854 14.0127, 8.59938 14.0465, 8.57992 14.0762, 8.49232 14.4432, 8.3492 14.805, 8.15111 15.1623, 7.95302 15.5195, 7.7223 15.8356, 7.4578 16.1104, 7.19387 16.3852, 6.89388 16.6113, 6.55724 16.7876, 6.22061 16.9651, 5.8605 17.0533, 5.47692 17.0533, 5.08704 17.0533, 4.7504 16.9697, 4.46758 16.8014, 4.18476 16.6342, 3.95518 16.4155, 3.77885 16.1464, 3.72275 16.08, 3.67866 16.0113, 3.64717 15.9409, 3.61569 15.871, 3.60595 15.8602, 3.61855 15.9083, 3.46741 16.159, 3.22867 16.4126, 2.90177 16.6691, 2.57486 16.9256, 2.19758 17.0533, 1.76934 17.0533, 1.53061 17.0533, 1.29473 17.0229, 1.06229 16.9617, 0.829854 16.901, 0.626613 16.8065, 0.453715 16.6783, 0.280817 16.55, 0.150285 16.3943, 0.0621184 16.2105, 0.0186076 16.1012, -0.00314775 15.9821, -0.00372026 15.8533, -0.00314775 15.7623, 0.00944747 15.6552, 0.0340654 15.5327, 0.103339 15.2585, 0.244749 15.0524, 0.458295 14.915, 0.672414 14.7776, 0.88596 14.7089, 1.10008 14.7083, 1.31992 14.7089, 1.50885 14.7793, 1.66572 14.919, 1.77278 15.0232, 1.82602 15.1577, 1.82602 15.322, 1.82602 15.4079, 1.81343 15.4938, 1.78824 15.5785, 1.73213 15.7926, 1.62965 15.9655, 1.48194 16.0966, 1.33423 16.2283, 1.22889 16.2999, 1.16592 16.3113, 1.28557 16.4098, 1.52774 16.4556, 1.89243 16.4487, 2.21933 16.4493, 2.51475 16.2787, 2.77868 15.9363, 3.04318 15.5945, 3.23497 15.1852, 3.35405 14.7083 L 4.23171 11.3373 C 4.31987 11.0202, 4.38857 10.7087, 4.43896 10.403, 4.45155 10.3057, 4.45785 10.2141, 4.45785 10.1282, 4.45785 9.93927, 4.42979 9.76237, 4.37312 9.59691, 4.31014 9.41428, 4.21281 9.26657, 4.08056 9.15322, 3.94889 9.04043, 3.78515 8.98375, 3.58992 8.98318, 3.33859 8.98375, 3.09527 9.04959, 2.8594 9.1807, 2.62353 9.31237, 2.40826 9.48756, 2.21304 9.70741, 2.01838 9.92725, 1.84549 10.1826, 1.69434 10.4723, 1.5432 10.7625, 1.43328 11.0694, 1.36401 11.3923, 1.2953 11.5578, 1.17851 11.6431, 1.01477 11.6488 L 0.807526 11.6488 C 0.656383 11.6494, 0.580812 11.5732, 0.580812 11.4198 L 0.580812 11.3557 C 0.675276 10.9778, 0.820121 10.6097, 1.01477 10.2524, 1.21 9.89519, 1.44301 9.57916, 1.71324 9.30436, 1.98346 9.02955, 2.28575 8.80513, 2.61895 8.63109, 2.95215 8.45704, 3.31397 8.37002, 3.70328 8.36945, 4.08114 8.37002, 4.41434 8.45246, 4.70345 8.61735, 4.99257 8.78223, 5.22845 9.00207, 5.4105 9.27631, 5.44829 9.34386, 5.48321 9.416, 5.5147 9.49214, 5.54619 9.56886, 5.55535 9.58832, 5.54275 9.55111, 5.70019 9.28318, 5.94237 9.01925, 6.26927 8.75933, 6.59617 8.49998, 6.97002 8.37002, 7.39139 8.36945, 7.6307 8.37002, 7.86829 8.39922, 8.10416 8.45704, 8.34004 8.51544, 8.54385 8.60819, 8.71675 8.73643, 8.88965 8.86467, 9.01731 9.02326, 9.09918 9.21218, 9.14327 9.32268, 9.16502 9.44806, 9.16502 9.58775, 9.16502 9.67992, 9.15243 9.78355, 9.12724 9.8992 Z" stroke="none" fill="#000000" />
			<rect />
		</svg>
	</g>
	<path d="M 204.098 -0 C 204.098 44.5378, 112.72 80.6429, -0 80.6429, -112.72 80.6429, -204.098 44.5378, -204.098 -0, -204.098 -44.5378, -112.72 -80.6429, -0 -80.6429, 112.72 -80.6429, 204.098 -44.5378, 204.098 -0 Z" stroke="none" fill="#000000" fill-opacity="0.149019599" transform="matrix(0.416667 0 -0 0.416667 94.4141 217.189)" />
	<path d="M 204.098 -0 C 204.098 44.5378, 112.72 80.6429, -0 80.6429, -112.72 80.6429, -204.098 44.5378, -204.098 -0, -204.098 -44.5378, -112.72 -80.6429, -0 -80.6429, 112.72 -80.6429, 204.098 -44.5378, 204.098 -0 Z" fill="none" stroke="#000000" stroke-width="3.20000029" stroke-linecap="round" stroke-linejoin="round" transform="matrix(0.416667 0 -0 0.416667 94.4141 217.189)" />
	<ellipse cx="1215.5937013626099" cy="801.25410175323486" rx="6.3000001907348633" ry="6.3000001907348633" stroke="none" fill="#000000" transform="matrix(0.416667 0 0 0.416667 -412.083 -116.667)" />
	<path d="M 0 50.9555 L 0 -50.9555" fill="none" stroke="#E50A00" stroke-width="3.20000029" stroke-linecap="round" stroke-linejoin="round" marker-end="url(#CustomMarker-02)" transform="matrix(0.416667 0 0 0.416667 94.4141 82.0358)" />
	<g transform="matrix(1 0 -0 1 51.8873 46.9212)">
		<svg width="96.001976" height="71.9361496">
			<defs />
			<path d="M 6.67593 22.2796 L 6.67593 21.1895 C 6.47498 21.4403, 6.15266 21.6836, 5.70896 21.9183, 5.26584 22.153, 4.77005 22.2704, 4.22273 22.2704, 3.64449 22.2704, 3.09717 22.1576, 2.58134 21.932, 2.06608 21.7065, 1.61953 21.3945, 1.24167 20.9971, 0.832898 20.57, 0.523171 20.0972, 0.312487 19.5779, 0.101803 19.0592, -0.00411087 18.5124, -0.00411087 17.9376, -0.00411087 17.364, 0.106384 16.8115, 0.326227 16.2802, 0.546643 15.7489, 0.867249 15.2789, 1.28862 14.8696, 1.70998 14.4608, 2.19146 14.1448, 2.73249 13.9215, 3.27351 13.6988, 3.83972 13.5871, 4.43055 13.5866, 4.94008 13.5871, 5.40439 13.6959, 5.82232 13.9123, 6.24083 14.1293, 6.53796 14.3503, 6.71372 14.5759 L 6.71372 10.7652 C 6.71372 10.6072, 6.70628 10.4532, 6.69025 10.3032, 6.67479 10.1538, 6.61353 10.0393, 6.50647 9.95915, 6.39941 9.88644, 6.22937 9.84408, 5.99694 9.83148, 5.7645 9.81946, 5.50973 9.81316, 5.23264 9.81259 L 5.23264 9.07062, 8.20453 8.85077, 8.20453 20.3559 C 8.20453 20.5151, 8.21255 20.6679, 8.22801 20.8145, 8.24404 20.9611, 8.30701 21.071, 8.41693 21.1443, 8.52686 21.2176, 8.69861 21.2622, 8.93105 21.2771, 9.16406 21.2926, 9.42169 21.3, 9.70451 21.2994 L 9.70451 22.0506 Z M 6.67593 15.611 C 6.46868 15.2022, 6.1727 14.865, 5.78911 14.5993, 5.40553 14.3337, 4.96527 14.2009, 4.46834 14.2003, 4.07216 14.2009, 3.70117 14.2942, 3.35538 14.4803, 3.00958 14.6669, 2.71073 14.9245, 2.45883 15.2537, 2.1823 15.627, 2.00483 16.0438, 1.92582 16.5047, 1.84739 16.9661, 1.80788 17.4436, 1.80788 17.9376, 1.80788 18.4329, 1.84281 18.9063, 1.91151 19.358, 1.98078 19.8103, 2.14452 20.2346, 2.40215 20.6307, 2.61627 20.9428, 2.88821 21.1935, 3.21855 21.3824, 3.54888 21.5719, 3.8964 21.6664, 4.26051 21.6658, 4.80783 21.6664, 5.29218 21.5153, 5.71354 21.213, 6.13491 20.9107, 6.45609 20.5242, 6.67593 20.0536 Z" stroke="none" fill="#E50A00" />
			<path d="M 23.2824 13.2293 C 23.2641 13.3095, 23.2229 13.3782, 23.1599 13.436, 23.0969 13.4944, 23.0282 13.523, 22.9527 13.5225, 22.9275 13.535, 22.896 13.5413, 22.8582 13.5408, 22.7826 13.5413, 22.7449 13.535, 22.7449 13.5225, 22.588 13.523, 22.5027 13.456, 22.4901 13.3209 L 22.4901 13.2568 C 22.5279 12.9706, 22.5594 12.6803, 22.5845 12.3866, 22.6097 12.161, 22.6223 11.9538, 22.6223 11.7637 L 22.6223 11.608 C 22.6097 11.3641, 22.58 11.146, 22.533 10.9536, 22.4861 10.7612, 22.4025 10.5981, 22.2828 10.463, 22.0435 10.1824, 21.688 10.0164, 21.2163 9.9643, 20.7445 9.91278, 20.2413 9.88644, 19.7065 9.88587 L 17.6781 9.88587 C 17.3449 9.88644, 17.1503 9.91106, 17.0936 9.95915, 17.0621 9.98434, 16.9991 10.1641, 16.9047 10.4996 L 15.7345 14.9698, 17.0369 14.9698 C 17.3896 14.9703, 17.7102 14.9554, 17.9993 14.9245, 18.289 14.8942, 18.5375 14.8026, 18.7447 14.6492, 18.9337 14.4969, 19.0768 14.2833, 19.1741 14.0085, 19.2714 13.7337, 19.3676 13.4194, 19.4615 13.0644, 19.5308 12.8818, 19.6504 12.7931, 19.8199 12.7988 L 19.9802 12.7988 C 20.1565 12.7994, 20.2447 12.879, 20.2447 13.037 L 20.2447 13.1011, 19.0653 17.6354 C 19.0275 17.8254, 18.905 17.917, 18.6972 17.9102 L 18.5461 17.9102 C 18.3703 17.9107, 18.2821 17.8375, 18.2821 17.6903, 18.2821 17.6543, 18.2919 17.6205, 18.3102 17.5896, 18.3926 17.2483, 18.4522 16.9335, 18.49 16.6461, 18.5026 16.5734, 18.5089 16.5092, 18.5089 16.4537, 18.5089 16.2831, 18.4711 16.1457, 18.3955 16.0415, 18.289 15.8955, 18.0984 15.8085, 17.8247 15.781, 17.551 15.7535, 17.2448 15.7398, 16.9047 15.7392 L 15.5461 15.7392, 14.2534 20.759 C 14.1904 20.9731, 14.1589 21.1323, 14.1589 21.2353 L 14.1589 21.2719 C 14.1841 21.2971, 14.3604 21.312, 14.6873 21.3177 L 16.848 21.3177 C 17.4079 21.3183, 17.9507 21.2805, 18.4756 21.2038, 19.0012 21.1277, 19.4901 20.9336, 19.9424 20.6216, 20.1439 20.4756, 20.3363 20.2804, 20.5184 20.0359, 20.701 19.792, 20.8739 19.5218, 21.0376 19.2252, 21.2014 18.9292, 21.3565 18.6149, 21.5042 18.2817, 21.6519 17.9491, 21.7985 17.6205, 21.9428 17.2964, 21.9931 17.1504, 22.1036 17.0772, 22.2731 17.0766 L 22.4334 17.0766 C 22.6097 17.0772, 22.6979 17.1567, 22.6979 17.3148 L 22.6979 17.388, 20.8201 21.8582 C 20.7514 22.0048, 20.638 22.078, 20.4806 22.078 L 10.6683 22.078 C 10.5739 22.078, 10.5046 22.0506, 10.4605 21.9956, 10.417 21.9532, 10.3952 21.9074, 10.3947 21.8582, 10.3952 21.8221, 10.4015 21.7855, 10.4136 21.7483 L 10.4514 21.6109 C 10.4702 21.5319, 10.5143 21.4637, 10.5836 21.4053, 10.6529 21.3475, 10.7313 21.3183, 10.8189 21.3177, 11.1149 21.3183, 11.392 21.3137, 11.6496 21.3046, 11.9072 21.2954, 12.1025 21.2634, 12.2341 21.2078, 12.3475 21.1471, 12.4357 20.9823, 12.4986 20.7132 L 15.1499 10.4538 C 15.1877 10.3198, 15.2066 10.2133, 15.2066 10.1332, 15.2066 10.0605, 15.1912 10.0175, 15.1591 10.005, 15.0709 9.95056, 14.898 9.91736, 14.6404 9.90476, 14.3828 9.89274, 14.1057 9.88644, 13.8097 9.88587, 13.6339 9.88644, 13.5458 9.804, 13.5458 9.63855 L 13.5458 9.57442, 13.5836 9.4187 C 13.6339 9.21775, 13.757 9.11699, 13.9517 9.11642 L 23.5092 9.11642 C 23.6666 9.11699, 23.7513 9.19313, 23.7639 9.34542 L 23.7639 9.40954 Z" stroke="none" fill="#E50A00" />
			<polygon points="-4.72752 0 -1.72592 -1.876 -1.02242 -1.876 -2.61702 -0.35175 4.72752 -0.35175 4.72752 0.35175 -2.61702 0.35175 -1.02242 1.876 -1.72592 1.876" stroke="none" fill="#E50A00" transform="matrix(-1 8.74228e-008 -8.74228e-008 -1 18.4548 4.69)" />
			<path d="M 2.98718 -0.680915 C 2.94871 -0.526704, 2.87016 -0.411286, 2.75218 -0.33434, 2.63419 -0.257395, 2.51557 -0.218922, 2.39566 -0.219243, 2.27255 -0.218922, 2.17028 -0.258357, 2.08916 -0.337226, 2.02953 -0.394935, 1.99779 -0.470277, 1.99394 -0.562932, 1.99394 -0.600122, 2.001 -0.648213, 2.0151 -0.706563, 2.05422 -0.836088, 2.11417 -0.934514, 2.19496 -1.0012, 2.27608 -1.06789, 2.3325 -1.10636, 2.36392 -1.11694, 2.29724 -1.16791, 2.1597 -1.19356, 1.95195 -1.19388, 1.76888 -1.19356, 1.60505 -1.09866, 1.46078 -0.908866, 1.31651 -0.719067, 1.20878 -0.490796, 1.13825 -0.224373 L 0.652211 1.65309 C 0.603158 1.84161, 0.566288 2.02115, 0.541281 2.19171, 0.527495 2.25006, 0.520442 2.30136, 0.520442 2.3456, 0.520442 2.45204, 0.538075 2.55271, 0.573021 2.64825, 0.608288 2.75117, 0.661188 2.83324, 0.731721 2.8948, 0.802254 2.95635, 0.892024 2.98713, 1.00103 2.98681, 1.1421 2.98713, 1.27771 2.95058, 1.40788 2.87684, 1.53804 2.80343, 1.65795 2.70436, 1.76696 2.57932, 1.87628 2.45461, 1.97311 2.30937, 2.05774 2.1433, 2.14239 1.97755, 2.20907 1.8073, 2.25812 1.63257, 2.27928 1.54409, 2.33924 1.49952, 2.43798 1.4992 L 2.55917 1.4992 C 2.65087 1.49952, 2.69671 1.53383, 2.69671 1.6018, 2.69671 1.62264, 2.69158 1.64155, 2.68068 1.65822, 2.63163 1.86373, 2.55148 2.06635, 2.44055 2.26641, 2.32962 2.46647, 2.20041 2.64344, 2.05229 2.79733, 1.9045 2.95122, 1.7365 3.07786, 1.54798 3.17661, 1.35947 3.276, 1.15781 3.32537, 0.943 3.32537, 0.724668 3.32537, 0.536152 3.27856, 0.377773 3.1843, 0.219393 3.09069, 0.0908306 2.96822, -0.00791597 2.81753, -0.0393353 2.78034, -0.0640218 2.74187, -0.081655 2.70243, -0.0992883 2.66332, -0.104739 2.65723, -0.0976853 2.68416, -0.182325 2.82459, -0.316018 2.96661, -0.499083 3.11024, -0.682149 3.25388, -0.893428 3.32537, -1.13324 3.32537, -1.26693 3.32537, -1.39902 3.30838, -1.52919 3.27407, -1.65935 3.24009, -1.77317 3.18719, -1.86999 3.11537, -1.96682 3.04356, -2.03991 2.95635, -2.08929 2.85344, -2.11365 2.7922, -2.12584 2.72552, -2.12616 2.65338, -2.12584 2.60241, -2.11878 2.54245, -2.105 2.47384, -2.0662 2.32027, -1.98701 2.20485, -1.86743 2.12791, -1.74752 2.05096, -1.62794 2.01249, -1.50803 2.01217, -1.38492 2.01249, -1.27912 2.05193, -1.19127 2.13015, -1.13132 2.1885, -1.1015 2.26385, -1.1015 2.35586, -1.1015 2.40395, -1.10855 2.45204, -1.12266 2.49949, -1.15408 2.6194, -1.21147 2.71622, -1.29418 2.78964, -1.3769 2.86338, -1.43589 2.90345, -1.47116 2.90987, -1.40415 2.96501, -1.26854 2.99066, -1.06431 2.98681, -0.881245 2.98713, -0.715813 2.89159, -0.568014 2.69987, -0.419894 2.50847, -0.312491 2.27924, -0.245805 2.01217 L 0.245683 0.124446 C 0.295056 -0.0531695, 0.333529 -0.227579, 0.361742 -0.398782, 0.368796 -0.453285, 0.372322 -0.504582, 0.372322 -0.552673, 0.372322 -0.658473, 0.356612 -0.75754, 0.324872 -0.850195, 0.289606 -0.952468, 0.235103 -1.03518, 0.161043 -1.09866, 0.0873039 -1.16182, -0.00438929 -1.19356, -0.113716 -1.19388, -0.254461 -1.19356, -0.390719 -1.15669, -0.522808 -1.08328, -0.654898 -1.00954, -0.775445 -0.911431, -0.884772 -0.788318, -0.993778 -0.665205, -1.0906 -0.522215, -1.17524 -0.359989, -1.25988 -0.197442, -1.32144 -0.0255973, -1.36023 0.155224, -1.3987 0.247879, -1.46411 0.295649, -1.5558 0.298855 L -1.67186 0.298855 C -1.7565 0.299176, -1.79882 0.256536, -1.79882 0.170613 L -1.79882 0.134705 C -1.74592 -0.0768943, -1.6648 -0.283044, -1.5558 -0.483101, -1.44647 -0.683159, -1.31599 -0.860133, -1.16466 -1.01402, -1.01333 -1.16791, -0.844055 -1.29359, -0.657462 -1.39106, -0.47087 -1.48852, -0.268247 -1.53725, -0.0502357 -1.53757, 0.161364 -1.53725, 0.347956 -1.49108, 0.509862 -1.39875, 0.671768 -1.30642, 0.803857 -1.1833, 0.90581 -1.02973, 0.92697 -0.991902, 0.946527 -0.951506, 0.96416 -0.908866, 0.981793 -0.865905, 0.986923 -0.855004, 0.97987 -0.875843, 1.06804 -1.02589, 1.20365 -1.17369, 1.38672 -1.31924, 1.56978 -1.46447, 1.77914 -1.53725, 2.0151 -1.53757, 2.14912 -1.53725, 2.28217 -1.5209, 2.41426 -1.48852, 2.54635 -1.45582, 2.66048 -1.40388, 2.75731 -1.33206, 2.85413 -1.26025, 2.92562 -1.17144, 2.97147 -1.06564, 2.99616 -1.00376, 3.00834 -0.933552, 3.00834 -0.855325, 3.00834 -0.803707, 3.00129 -0.745677, 2.98718 -0.680915 Z" stroke="none" fill="#E50A00" transform="matrix(1.12 0 0 1 26.9968 21.5418)" />
			<rect />
		</svg>
	</g>
	<path d="M 136.098 -0 C 136.098 27.2483, 75.1649 49.3374, -0 49.3374, -75.1649 49.3374, -136.098 27.2483, -136.098 -0, -136.098 -27.2483, -75.1649 -49.3374, -0 -49.3374, 75.1649 -49.3374, 136.098 -27.2483, 136.098 -0 Z" fill="none" stroke="#E50A00" stroke-width="6.40000057" stroke-linecap="round" stroke-linejoin="round" transform="matrix(0.416667 0 -0 0.416667 94.4141 217.189)" />
	<path d="M 0 -7.19135 L 0 7.19116" fill="none" stroke="#000000" stroke-width="3.20000029" stroke-linecap="round" stroke-linejoin="round" transform="matrix(0.416667 0 0 0.416667 94.4141 196.632)" />
	<g transform="matrix(1 0 -0 1 157.409 215.078)">
		<svg width="60.1215858" height="56.9999886">
			<defs />
			<path d="M 6.67593 17.0441 L 6.67593 15.9541 C 6.47498 16.2048, 6.15266 16.4481, 5.70896 16.6829, 5.26584 16.9176, 4.77005 17.035, 4.22273 17.035, 3.64449 17.035, 3.09717 16.9222, 2.58134 16.6966, 2.06608 16.471, 1.61953 16.159, 1.24167 15.7617, 0.832898 15.3346, 0.523171 14.8617, 0.312487 14.3424, 0.101803 13.8237, -0.00411087 13.277, -0.00411087 12.7022, -0.00411087 12.1285, 0.106384 11.5761, 0.326227 11.0448, 0.546643 10.5135, 0.867249 10.0435, 1.28862 9.63412, 1.70998 9.22535, 2.19146 8.90933, 2.73249 8.68605, 3.27351 8.46334, 3.83972 8.3517, 4.43055 8.35113, 4.94008 8.3517, 5.40439 8.46048, 5.82232 8.67689, 6.24083 8.89387, 6.53796 9.11486, 6.71372 9.34043 L 6.71372 5.5298 C 6.71372 5.37179, 6.70628 5.21778, 6.69025 5.06778, 6.67479 4.91836, 6.61353 4.80386, 6.50647 4.72371, 6.39941 4.651, 6.22937 4.60863, 5.99694 4.59604, 5.7645 4.58401, 5.50973 4.57772, 5.23264 4.57714 L 5.23264 3.83517, 8.20453 3.61533, 8.20453 15.1205 C 8.20453 15.2796, 8.21255 15.4325, 8.22801 15.5791, 8.24404 15.7256, 8.30701 15.8355, 8.41693 15.9088, 8.52686 15.9821, 8.69861 16.0268, 8.93105 16.0417, 9.16406 16.0571, 9.42169 16.0646, 9.70451 16.064 L 9.70451 16.8151 Z M 6.67593 10.3755 C 6.46868 9.96675, 6.1727 9.62954, 5.78911 9.3639, 5.40553 9.09825, 4.96527 8.96543, 4.46834 8.96486, 4.07216 8.96543, 3.70117 9.05875, 3.35538 9.24482, 3.00958 9.43145, 2.71073 9.68908, 2.45883 10.0183, 2.1823 10.3916, 2.00483 10.8083, 1.92582 11.2692, 1.84739 11.7307, 1.80788 12.2081, 1.80788 12.7022, 1.80788 13.1974, 1.84281 13.6709, 1.91151 14.1226, 1.98078 14.5749, 2.14452 14.9991, 2.40215 15.3953, 2.61627 15.7073, 2.88821 15.9581, 3.21855 16.147, 3.54888 16.3365, 3.8964 16.431, 4.26051 16.4304, 4.80783 16.431, 5.29218 16.2798, 5.71354 15.9775, 6.13491 15.6752, 6.45609 15.2888, 6.67593 14.8182 Z" stroke="none" fill="#E50A00" />
			<path d="M 15.9064 19.1693 C 15.8686 19.3158, 15.8497 19.4292, 15.8497 19.5082, 15.8497 19.5695, 15.8623 19.609, 15.8875 19.6273, 15.9505 19.6765, 16.089 19.7069, 16.3026 19.7189, 16.5167 19.7315, 16.7588 19.7372, 17.0291 19.7372, 17.1172 19.7372, 17.1957 19.7681, 17.2649 19.8288, 17.2901 19.878, 17.3027 19.9204, 17.3027 19.957, 17.3027 19.9937, 17.2936 20.0275, 17.2741 20.0578 L 17.2461 20.2044 C 17.2272 20.2902, 17.1814 20.3572, 17.1092 20.4059, 17.0371 20.4551, 16.9598 20.4792, 16.8779 20.4792, 16.2241 20.4425, 15.5612 20.4242, 14.8879 20.4242, 14.2215 20.4242, 13.5454 20.4425, 12.8595 20.4792, 12.7656 20.4792, 12.6963 20.4488, 12.6522 20.3876, 12.6145 20.3509, 12.5956 20.3086, 12.5956 20.2593, 12.5956 20.2227, 12.6053 20.1895, 12.6236 20.1586 L 12.6522 20.012 C 12.69 19.8231, 12.8091 19.7315, 13.0106 19.7372, 13.2683 19.7372, 13.5087 19.7315, 13.732 19.7189, 13.9553 19.7069, 14.1236 19.6731, 14.2369 19.6181, 14.3314 19.5815, 14.4133 19.42, 14.482 19.1326 L 15.2365 16.1831 C 15.0923 16.3239, 14.8392 16.5042, 14.4774 16.7241, 14.1156 16.9439, 13.724 17.0533, 13.3026 17.0533, 12.8062 17.0533, 12.39 16.9285, 12.0534 16.6783, 11.7168 16.4281, 11.4545 16.1132, 11.2656 15.7342, 11.0389 15.2831, 10.9192 14.7976, 10.9067 14.2778 L 10.9067 14.1403 C 10.9067 13.6583, 10.9731 13.1762, 11.1047 12.693, 11.2559 12.1623, 11.4671 11.6373, 11.7374 11.1181, 12.0076 10.5994, 12.366 10.1167, 12.8125 9.67019, 13.1772 9.30436, 13.594 8.99635, 14.0623 8.74559, 14.5306 8.4954, 15.007 8.37002, 15.4913 8.36945, 15.9442 8.37002, 16.3071 8.49827, 16.5808 8.75475, 16.8545 9.01123, 17.0388 9.25226, 17.1327 9.47783, 17.2146 9.36218, 17.3451 9.20703, 17.5243 9.01123, 17.7035 8.81601, 17.8999 8.6328, 18.114 8.46105, 18.2021 8.38834, 18.2869 8.3517, 18.3682 8.35113, 18.4632 8.3517, 18.529 8.40037, 18.5663 8.49769, 18.5857 8.53491, 18.5949 8.57155, 18.5949 8.60761 L 18.5949 8.67174 Z M 16.6707 10.687 C 16.6455 10.5776, 16.6237 10.4631, 16.6048 10.344, 16.586 10.225, 16.5573 10.1076, 16.5195 9.9908, 16.4188 9.70454, 16.2757 9.46466, 16.0902 9.2723, 15.9047 9.07994, 15.6705 8.98375, 15.3877 8.98318, 15.1238 8.98375, 14.8627 9.07879, 14.6051 9.26772, 14.3474 9.45722, 14.111 9.70111, 13.8969 9.99996, 13.5957 10.4219, 13.3696 10.8604, 13.2184 11.315, 13.0673 11.7702, 12.9288 12.2448, 12.8028 12.7388, 12.6774 13.2278, 12.5738 13.7012, 12.4914 14.1587, 12.4416 14.3911, 12.4164 14.611, 12.4164 14.8182, 12.4164 15.0386, 12.4416 15.2522, 12.4914 15.4594, 12.5486 15.7468, 12.6505 15.9838, 12.7982 16.1699, 12.9459 16.3565, 13.152 16.4493, 13.416 16.4487, 13.7057 16.4493, 13.9965 16.3485, 14.2885 16.147, 14.581 15.9455, 14.853 15.6981, 15.1043 15.4045, 15.2051 15.2831, 15.3012 15.1657, 15.3923 15.0524, 15.4839 14.9396, 15.564 14.8188, 15.6327 14.69 L 16.6707 10.687 Z" stroke="none" fill="#E50A00" />
			<rect />
		</svg>
	</g>
	<path d="M -68.0487 131.666 L 68.0487 -131.665" fill="none" stroke="#E50A00" stroke-width="3.20000029" stroke-linecap="round" stroke-linejoin="round" stroke-dasharray="1.616, 4.784" transform="matrix(0.416667 0 0 0.416667 66.0604 158.128)" />
	<path d="M 68.0485 131.666 L -68.0493 -131.665" fill="none" stroke="#E50A00" stroke-width="3.20000029" stroke-linecap="round" stroke-linejoin="round" stroke-dasharray="1.616, 4.784" transform="matrix(0.416667 0 0 0.416667 122.824 158.128)" />
	<ellipse cx="1215.5937013626099" cy="526.72254657745361" rx="6.3000001907348633" ry="6.3000001907348633" stroke="none" fill="#000000" transform="matrix(0.416667 0 0 0.416667 -412.083 -116.667)" />
	<path d="M 80.9312 -24.6688 L -80.9314 24.6686" fill="none" stroke="#000000" stroke-width="3.20000029" stroke-linecap="round" stroke-linejoin="round" marker-end="url(#CustomMarker-03)" transform="matrix(0.416667 0 0 0.416667 60.6928 227.468)" />
	<g transform="matrix(1 0 -0 1 9.37835 237.086)">
		<svg width="42.0378685" height="48.0957298">
			<defs />
			<path d="M 12.9573 14.9922 C 12.8881 15.2676, 12.7844 15.5378, 12.6459 15.8035, 12.5073 16.0691, 12.3379 16.309, 12.1364 16.5226, 11.9354 16.7367, 11.7104 16.9113, 11.4619 17.0487, 11.2135 17.1861, 10.945 17.2548, 10.6553 17.2548, 9.74383 17.2548, 9.05797 17.0138, 8.59881 16.5311, 8.28508 16.202, 8.12764 15.7869, 8.12764 15.2854, 8.12764 15.0295, 8.16886 14.7518, 8.25016 14.4518 L 8.67439 12.8121 C 8.72477 12.6049, 8.74996 12.4097, 8.74996 12.2259, 8.74996 12.1348, 8.74366 12.0404, 8.73106 11.9419, 8.69328 11.686, 8.60569 11.4604, 8.46714 11.2646, 8.32859 11.0694, 8.15111 10.9154, 7.93413 10.802, 7.71715 10.6893, 7.46067 10.6326, 7.16525 10.632 L 5.03322 10.632, 3.77886 15.5144 C 3.75366 15.6312, 3.74107 15.7256, 3.74107 15.7983, 3.74107 15.8905, 3.75996 15.9518, 3.79775 15.9815, 3.87962 16.0308, 4.04965 16.06, 4.30728 16.0691, 4.56491 16.0783, 4.84143 16.0829, 5.13685 16.0823, 5.31318 16.0829, 5.40135 16.1562, 5.40135 16.3021, 5.40135 16.3394, 5.39505 16.3789, 5.38246 16.4212 L 5.34467 16.5678 C 5.27597 16.751, 5.15288 16.8426, 4.97655 16.8426, 4.20366 16.806, 3.4239 16.7876, 2.63727 16.7876, 1.85179 16.7876, 1.0623 16.806, 0.269943 16.8426, 0.10048 16.8426, 0.0094513 16.7636, -0.00371642 16.6044 L -0.00371642 16.5311, 0.0340692 16.3754 C 0.0844501 16.1745, 0.206967 16.0766, 0.40162 16.0823, 0.697608 16.0829, 0.977565 16.0783, 1.24149 16.0691, 1.50599 16.06, 1.70065 16.0279, 1.82602 15.9724, 1.94568 15.906, 2.03671 15.7411, 2.09968 15.4777 L 4.7504 5.15423 C 4.78819 5.02027, 4.80708 4.91664, 4.80708 4.84279, 4.80708 4.77008, 4.79163 4.72714, 4.75956 4.71455, 4.67197 4.66016, 4.50079 4.62695, 4.24602 4.61436, 3.99126 4.60234, 3.71302 4.59604, 3.41073 4.59547, 3.23497 4.59604, 3.1468 4.5136, 3.1468 4.34814 L 3.1468 4.27486, 3.20348 4.11914 C 3.24127 3.93651, 3.35749 3.84491, 3.55214 3.84433 L 8.86331 3.84433 C 9.46101 3.84491, 10.0301 3.92448, 10.5705 4.08307, 11.1116 4.24223, 11.5833 4.50444, 11.9852 4.87027, 12.319 5.16397, 12.5612 5.52408, 12.7117 5.95117, 12.8062 6.18361, 12.8566 6.42521, 12.8629 6.67482, 12.8629 6.90154, 12.8285 7.12424, 12.7592 7.34351, 12.6396 7.83244, 12.3911 8.27556, 12.0138 8.67231, 11.6366 9.06963, 11.2123 9.40798, 10.7406 9.68851, 10.4137 9.87859, 10.0822 10.036, 9.74555 10.1608, 9.40892 10.2862, 9.16846 10.3641, 9.02362 10.3938, 9.38201 10.5347, 9.72151 10.8095, 10.0421 11.2183, 10.3129 11.5732, 10.448 11.9974, 10.448 12.4915, 10.448 12.5957, 10.4417 12.6999, 10.4291 12.803 L 10.2499 14.4518 C 10.1996 14.88, 10.1744 15.2522, 10.1744 15.5693, 10.1744 15.7777, 10.187 15.9609, 10.2121 16.1189, 10.2562 16.4796, 10.4446 16.66, 10.7778 16.6594, 11.0801 16.66, 11.3566 16.4968, 11.6079 16.1699, 11.8598 15.8436, 12.0453 15.4388, 12.1644 14.9556, 12.2343 14.773, 12.3568 14.6842, 12.5325 14.69 L 12.6837 14.69 C 12.8537 14.6905, 12.9447 14.7701, 12.9573 14.9281 L 12.9573 14.9922 Z M 10.7406 7.28855 C 10.8413 6.92272, 10.8974 6.55631, 10.91 6.18933 L 10.91 6.13437 C 10.91 5.8235, 10.8127 5.55499, 10.6175 5.32828, 10.385 5.06034, 10.0822 4.87084, 9.70777 4.76092, 9.33334 4.651, 8.92286 4.59604, 8.4763 4.59547 L 7.22193 4.59547 C 6.90132 4.59604, 6.70953 4.62066, 6.64656 4.66932, 6.58358 4.71856, 6.51774 4.89203, 6.44847 5.19088 L 5.20326 10.0366, 7.02384 10.0366 C 7.4704 10.0372, 7.91066 9.98221, 8.34462 9.87229, 8.77858 9.76237, 9.19022 9.56714, 9.5801 9.28547, 9.9133 9.04787, 10.1652 8.74902, 10.3347 8.38834, 10.5047 8.02823, 10.6398 7.66183, 10.7406 7.28855 Z" stroke="none" fill="#000000" />
			<rect />
		</svg>
	</g>
	<path d="M 26.931 -21.8314 L -26.9313 21.8312" fill="none" stroke="#E50A00" stroke-width="3.20000029" stroke-linecap="round" stroke-linejoin="round" marker-end="url(#CustomMarker-04)" transform="matrix(0.416667 0 0 0.416667 83.1928 226.286)" />
	<g transform="matrix(1 0 -0 1 62.973 234.398)">
		<svg width="29.9820557" height="32.8723297">
			<defs />
			<path d="M 7.98852 9.90836 C 7.91982 10.1774, 7.77955 10.3807, 7.56887 10.5181, 7.35818 10.6555, 7.14578 10.7242, 6.93166 10.7236, 6.71182 10.7242, 6.52919 10.6538, 6.38435 10.5129, 6.26526 10.4156, 6.20515 10.2816, 6.20515 10.1099, 6.20515 10.0251, 6.21775 9.93927, 6.24294 9.8534, 6.29961 9.64042, 6.39866 9.47268, 6.54007 9.35016, 6.68205 9.22822, 6.77766 9.16066, 6.82804 9.14806, 6.68377 9.03871, 6.38492 8.98375, 5.93149 8.98318, 5.45402 8.98375, 5.02807 9.17783, 4.65365 9.56542, 4.27923 9.95358, 3.94145 10.4769, 3.63916 11.1358 L 2.27086 16.3754 C 2.21476 16.6021, 2.09968 16.771, 1.92678 16.8838, 1.75389 16.9972, 1.57927 17.0533, 1.40294 17.0533, 1.21458 17.0533, 1.06974 16.9926, 0.968976 16.8701, 0.88768 16.7911, 0.846459 16.6811, 0.846459 16.5403, 0.846459 16.4859, 0.852757 16.4189, 0.865352 16.3388 L 2.31781 10.6686 C 2.41857 10.2725, 2.46895 9.93011, 2.46895 9.64271 L 2.46895 9.42287 C 2.43804 9.13032, 2.29033 8.98375, 2.02583 8.98318, 1.74873 8.98375, 1.51744 9.20703, 1.33195 9.65244, 1.14645 10.0984, 0.966113 10.6784, 0.78978 11.3923, 0.720507 11.5578, 0.604287 11.6431, 0.440549 11.6488 L 0.223568 11.6488 C 0.0724257 11.6494, -0.00314558 11.5732, -0.00314558 11.4198 L -0.00314558 11.3557 C 0.0724257 11.0694, 0.15773 10.7562, 0.252194 10.4173, 0.346658 10.0784, 0.47261 9.75779, 0.629478 9.4555, 0.786918 9.15322, 0.985006 8.89673, 1.22374 8.68605, 1.46305 8.47536, 1.76133 8.37002, 2.11972 8.36945, 2.59834 8.37002, 2.98364 8.50628, 3.27562 8.77765, 3.56817 9.04959, 3.73305 9.31638, 3.77084 9.57859, 3.99126 9.28604, 4.29812 9.01123, 4.69086 8.75475, 5.08418 8.49827, 5.53531 8.37002, 6.04485 8.36945, 6.29675 8.37002, 6.55266 8.39636, 6.81373 8.44788, 7.07479 8.49998, 7.30437 8.58529, 7.50246 8.70437, 7.70054 8.82345, 7.84711 8.98089, 7.94157 9.17554, 7.99825 9.29806, 8.02974 9.43546, 8.03546 9.58775, 8.03546 9.67992, 8.02001 9.78698, 7.98852 9.90836 Z" stroke="none" fill="#E50A00" />
			<rect />
		</svg>
	</g>
</svg>
