<?xml version="1.0"?>
<svg xmlns="http://www.w3.org/2000/svg" xmlns:xlink="http://www.w3.org/1999/xlink" width="317.728119" height="173.437286">
	<defs>
		<marker id="CustomMarker-01" markerUnits="strokeWidth" markerWidth="15.000001" markerHeight="9" viewBox="-15 -4.5 15 9" orient="auto-start-reverse">
			<path d="M 0 -0 L -10 -3, -8 -0.5, -8 0.5, -10 3 Z" fill="#000000" stroke="#000000" stroke-linejoin="round" />
		</marker>
	</defs>
	<path d="M 122.685 -282.06 C 107.136 -280.444, 70.821 -280.444, 10.1161 -280.444, -50.5888 -280.444, -146.718 -275.72, -219.767 -270.033, -292.817 -264.345, -317.443 -259.79, -334.583 -251.736, -351.723 -243.681, -366.114 -234.113, -380.378 -218.994, -394.641 -203.874, -405.389 -189.155, -415.827 -172.435, -426.264 -155.714, -432.806 -135.139, -435.669 -113.343, -438.533 -91.5471, -438.533 -67.4668, -436.176 -41.7811, -433.819 -16.0955, -428.749 6.63421, -417.389 30.2274, -406.029 53.8206, -390.942 72.8164, -374.586 89.1686, -358.23 105.521, -336.385 126.5, -319.165 142.001, -301.945 157.503, -283.512 169.053, -260.927 182.591, -238.342 196.129, -210.789 210.856, -177.93 225.647, -145.071 240.438, -103.853 253.989, -60.5296 264.279, -17.206 274.569, 12.1344 281.445, 41.3455 281.752, 70.5566 282.06, 90.7976 282.06, 105.854 278.655, 120.911 275.249, 134.963 268.849, 148.416 259.88, 161.869 250.911, 176.727 238.943, 198.896 219.48, 221.066 200.018, 247.285 179.008, 268.651 162.183, 290.017 145.357, 304.935 132.454, 316.644 120.777, 328.352 109.101, 339.738 96.778, 353.903 87.5609, 368.068 78.3437, 380.583 71.8021, 386.908 69.0749, 393.233 66.3477, 401.134 62.7486, 410.277 53.313, 419.419 43.8773, 427.216 35.4385, 431.593 27.1739, 435.97 18.9093, 437.839 11.5322, 438.186 -1.49895, 438.533 -14.5301, 438.533 -29.6407, 436.771 -46.5437, 435.008 -63.4468, 429.404 -77.9123, 423.103 -92.1347, 416.803 -106.357, 411.297 -119.615, 402.405 -134.157, 393.513 -148.698, 381.729 -163.138, 366.261 -175.625, 350.794 -188.112, 340.371 -195.597, 325.775 -203.809, 311.179 -212.021, 295.916 -220.072, 282.315 -227.18, 268.715 -234.289, 257.306 -240.725, 243.435 -248.704, 229.564 -256.684, 217.123 -263.048, 208.713 -266.162, 200.303 -269.277, 194.257 -270.745, 191.563 -271.671, 188.869 -272.597, 183.588 -275.594, 177.048 -275.594, 170.507 -275.594, 162.733 -275.594, 158.931 -275.607, 155.128 -275.62, 152.486 -277.211, 149.938 -278.023, 147.39 -278.836, 146.1 -280.444, 143.5 -280.444, 140.901 -280.444, 138.302 -280.444, 135.05 -280.444, 131.799 -280.444, 129.2 -280.444, 126.6 -280.444" fill="none" stroke="#000000" stroke-width="5.86666679" stroke-linecap="round" stroke-linejoin="round" transform="matrix(-0.227273 3.43172e-008 3.43172e-008 0.227273 195.782 100.833)" />
	<g transform="matrix(1 0 -0 1 211.864 88.0242)">
		<svg width="29.9820557" height="48.0957298">
			<defs />
			<path d="M 5.71299 21.9077 C 5.66981 22.0752, 5.64822 22.2048, 5.64822 22.2951, 5.64822 22.3651, 5.66261 22.4102, 5.6914 22.4312, 5.76337 22.4875, 5.92171 22.5221, 6.16642 22.5359, 6.41113 22.5503, 6.68724 22.5568, 6.99607 22.5568, 7.09683 22.5568, 7.18713 22.5921, 7.26564 22.6615, 7.29443 22.7178, 7.30882 22.7662, 7.30882 22.8081, 7.30882 22.8499, 7.29836 22.8885, 7.27676 22.9232 L 7.24405 23.0907 C 7.22311 23.1889, 7.17077 23.2654, 7.08833 23.321, 7.00588 23.3773, 6.91755 23.4048, 6.82399 23.4048, 6.07678 23.3629, 5.3178 23.342, 4.54835 23.342, 3.78674 23.342, 3.01402 23.3629, 2.23017 23.4048, 2.12287 23.4048, 2.0437 23.3701, 1.99332 23.3001, 1.95013 23.2582, 1.92854 23.2098, 1.92854 23.1535, 1.92854 23.1117, 1.93966 23.0737, 1.9606 23.0384 L 1.99332 22.8709 C 2.0365 22.655, 2.17259 22.5503, 2.40291 22.5568, 2.69734 22.5568, 2.9728 22.5503, 3.22797 22.5359, 3.48315 22.5221, 3.67551 22.4835, 3.80441 22.4207, 3.91237 22.3788, 4.00593 22.1943, 4.0851 21.8659 L 4.94747 18.4949 C 4.78258 18.6559, 4.49338 18.862, 4.07987 19.1132, 3.66635 19.3645, 3.21881 19.4895, 2.73725 19.4895, 2.16932 19.4895, 1.69299 19.3468, 1.30827 19.0609, 0.923541 18.775, 0.623873 18.4151, 0.407955 17.982, 0.149508 17.4664, 0.01276 16.9115, -0.00163448 16.3174 L -0.00163448 16.1604 C -0.00163448 15.6095, 0.0742639 15.0586, 0.224752 14.5063, 0.397487 13.8998, 0.638268 13.2998, 0.947096 12.7064, 1.25658 12.1136, 1.66617 11.562, 2.17652 11.0517, 2.59396 10.6336, 3.07029 10.2815, 3.6055 9.99496, 4.14072 9.70903, 4.68509 9.56574, 5.23863 9.56509, 5.75683 9.56574, 6.17166 9.71231, 6.48441 10.0054, 6.79716 10.2986, 7.00719 10.574, 7.11515 10.8318, 7.20872 10.6996, 7.3579 10.5223, 7.56269 10.2986, 7.76749 10.0754, 7.99191 9.86607, 8.23596 9.66978, 8.33672 9.58668, 8.43421 9.54481, 8.52712 9.54415, 8.63574 9.54481, 8.71098 9.60042, 8.75351 9.71165, 8.77576 9.75418, 8.78623 9.79605, 8.78623 9.83728 L 8.78623 9.91056 Z M 6.58648 12.2137 C 6.55769 12.0887, 6.53283 11.9579, 6.51124 11.8218, 6.48964 11.6857, 6.45693 11.5515, 6.41375 11.4181, 6.29924 11.0909, 6.13567 10.8168, 5.92368 10.5969, 5.71169 10.3771, 5.44342 10.2671, 5.1202 10.2665, 4.81857 10.2671, 4.52021 10.3758, 4.22512 10.5917, 3.93069 10.8083, 3.66112 11.087, 3.41641 11.4285, 3.0716 11.9107, 2.81315 12.4119, 2.64042 12.9314, 2.46768 13.4516, 2.30934 13.994, 2.1654 14.5587, 2.02211 15.1175, 1.90368 15.6586, 1.80946 16.1813, 1.75254 16.447, 1.72375 16.6982, 1.72375 16.9351, 1.72375 17.187, 1.75254 17.431, 1.80946 17.6679, 1.87489 17.9964, 1.99135 18.2672, 2.16016 18.4799, 2.32897 18.6932, 2.56452 18.7992, 2.86615 18.7985, 3.19722 18.7992, 3.52961 18.684, 3.86395 18.4537, 4.1983 18.2234, 4.50909 17.9407, 4.79632 17.6051, 4.91148 17.4664, 5.0214 17.3322, 5.12544 17.2027, 5.23012 17.0738, 5.32172 16.9357, 5.40024 16.7885 L 6.58648 12.2137 Z" stroke="none" fill="#000000" />
			<rect />
		</svg>
	</g>
	<g transform="matrix(1 0 -0 1 295.669 25.5863)">
		<svg width="42.0378685" height="54.1276474">
			<defs />
			<path d="M 11.2974 9.13587 C 11.2542 9.33216, 11.1469 9.42965, 10.9742 9.42899, 10.9598 9.44339, 10.9238 9.45059, 10.8662 9.44993, 10.8309 9.45059, 10.8021 9.44339, 10.7799 9.42899 L 10.683 9.42899 C 10.4966 9.42965, 10.403 9.35964, 10.403 9.21962 L 10.403 9.14634 C 10.4894 8.63075, 10.5319 8.15246, 10.5319 7.71212 L 10.5319 7.31431 C 10.4887 6.77778, 10.3683 6.3152, 10.1707 5.92785, 9.97312 5.54051, 9.68392 5.24084, 9.30312 5.02754, 8.92232 4.81489, 8.44076 4.70824, 7.85844 4.70759, 7.52082 4.70824, 7.17797 4.78152, 6.82923 4.92809, 6.48049 5.07465, 6.1553 5.27355, 5.85302 5.52415, 5.52325 5.79699, 5.25368 6.10582, 5.04496 6.45129, 4.83689 6.79676, 4.68575 7.15073, 4.59219 7.51321, 4.52021 7.77232, 4.48096 8.01964, 4.4731 8.25649, 4.4731 8.58495, 4.54508 8.89901, 4.68902 9.19868, 4.89774 9.70184, 5.27135 10.0231, 5.81049 10.1618 L 8.28962 10.8527 C 8.74239 10.9862, 9.12908 11.1976, 9.44903 11.4868, 9.76898 11.7766, 10.0098 12.1188, 10.1714 12.5127, 10.333 12.9072, 10.4279 13.3378, 10.4566 13.8049 L 10.4566 13.9934 C 10.4566 14.399, 10.3991 14.8139, 10.2839 15.2392, 10.1334 15.8261, 9.89264 16.3914, 9.56157 16.9357, 9.23115 17.4801, 8.82156 17.9689, 8.3328 18.4007, 7.86563 18.7992, 7.35397 19.1185, 6.79651 19.3586, 6.23971 19.5994, 5.68094 19.7198, 5.1202 19.7198, 4.29383 19.7198, 3.5898 19.5876, 3.00748 19.322, 2.42516 19.0576, 1.99397 18.7226, 1.71328 18.317 L 0.646122 19.5837 C 0.553212 19.6746, 0.455722 19.7198, 0.35496 19.7198 L 0.290839 19.7198 C 0.111562 19.7198, 0.0140713 19.6504, -0.000323236 19.5104, -0.000323236 19.4685, 0.0107998 19.4306, 0.0317373 19.3952 L 1.2821 14.4959 C 1.32528 14.3009, 1.45156 14.2001, 1.65963 14.1923 L 1.89714 14.1923 C 1.9835 14.1929, 2.06202 14.2276, 2.13399 14.297, 2.16278 14.3532, 2.17718 14.4023, 2.17718 14.4435, 2.17718 14.4723, 2.16998 14.507, 2.15559 14.5482, 2.02603 15.0514, 1.96126 15.5192, 1.96126 15.951, 1.96126 16.6426, 2.13072 17.2289, 2.46834 17.7098, 3.00748 18.4851, 3.94901 18.8725, 5.29294 18.8718, 5.63056 18.8725, 5.97406 18.7939, 6.32215 18.6369, 6.67089 18.4799, 6.99607 18.2685, 7.2977 18.0029, 7.62878 17.6967, 7.90685 17.3565, 8.13324 16.9829, 8.35963 16.6099, 8.52713 16.2239, 8.63443 15.8254, 8.7064 15.5048, 8.74239 15.2051, 8.74239 14.9251, 8.74239 14.577, 8.69594 14.242, 8.60237 13.9201, 8.38711 13.3836, 7.98799 13.0381, 7.40566 12.8837 L 4.95859 12.1927 C 4.52021 12.075, 4.14334 11.8813, 3.82666 11.6124, 3.51063 11.3441, 3.26462 11.0248, 3.08861 10.6545, 2.91261 10.2848, 2.80988 9.87653, 2.78109 9.42899 L 2.78109 9.19868 C 2.78109 8.8506, 2.82428 8.48419, 2.90999 8.09946, 3.06113 7.542, 3.30191 7.0081, 3.63233 6.4984, 3.96341 5.98936, 4.373 5.53855, 4.86176 5.14728, 5.32173 4.77106, 5.82684 4.46942, 6.37645 4.24238, 6.92606 4.016, 7.47044 3.90215, 8.00958 3.90149, 8.75024 3.90215, 9.3607 4.04021, 9.84226 4.31566, 10.3238 4.59178, 10.6726 4.91762, 10.8878 5.29384 L 11.9229 4.04806 C 11.9805 3.95122, 12.0741 3.90215, 12.203 3.90149 L 12.2998 3.90149 C 12.4725 3.90215, 12.5589 3.9859, 12.5589 4.15274 L 12.5589 4.23649 Z" stroke="none" fill="#000000" />
			<rect />
		</svg>
	</g>
	<g transform="matrix(1 0 -0 1 139.811 9.5)">
		<svg width="48.065773" height="50.968071">
			<defs />
			<path d="M 14.8349 8.50774 C 14.6772 9.07371, 14.4076 9.59584, 14.0268 10.0735, 13.646 10.5518, 13.1932 10.9653, 12.6685 11.3134, 12.1006 11.7046, 11.4953 11.9997, 10.8522 12.1986, 10.209 12.3975, 9.57106 12.497, 8.93835 12.4963 L 5.73622 12.4963, 4.38903 17.7307 C 4.34584 17.8851, 4.32425 18.0068, 4.32425 18.0971, 4.32425 18.1815, 4.34257 18.2339, 4.3779 18.2542, 4.47867 18.3176, 4.67692 18.3543, 4.97135 18.3647, 5.26578 18.3752, 5.58181 18.3804, 5.91943 18.3798, 6.12095 18.3804, 6.22171 18.4779, 6.22171 18.6729 L 6.22171 18.7462, 6.17853 18.9346 C 6.10001 19.144, 5.95934 19.2487, 5.75782 19.2487, 4.86012 19.2068, 3.95785 19.1859, 3.0523 19.1859, 2.13955 19.1859, 1.22681 19.2068, 0.314066 19.2487, 0.120394 19.2487, 0.0163609 19.1584, 0.0013121 18.9765 L 0.0013121 18.8927, 0.0444957 18.7148 C 0.102074 18.4851, 0.242093 18.3732, 0.464554 18.3798, 0.802826 18.3804, 1.12278 18.3752, 1.42441 18.3647, 1.72669 18.3543, 1.94915 18.3176, 2.09244 18.2542, 2.22919 18.1783, 2.33323 17.9898, 2.4052 17.6888 L 5.43459 5.89056 C 5.47778 5.73745, 5.49937 5.61902, 5.49937 5.53462, 5.49937 5.45152, 5.4817 5.40245, 5.44506 5.38806, 5.34495 5.3259, 5.14932 5.28795, 4.85816 5.27355, 4.567 5.25982, 4.24901 5.25262, 3.90354 5.25196, 3.70267 5.25262, 3.60191 5.1584, 3.60191 4.96931 L 3.60191 4.88556, 3.66668 4.70759 C 3.70987 4.49887, 3.84269 4.39418, 4.06515 4.39353 L 10.9758 4.39353 C 11.6085 4.39418, 12.1961 4.49363, 12.7385 4.69254, 13.2816 4.89145, 13.7468 5.18981, 14.1341 5.58696, 14.4868 5.9573, 14.7348 6.39698, 14.8781 6.90603, 14.9212 7.14419, 14.9428 7.38497, 14.9428 7.62837, 14.9428 7.90841, 14.9068 8.20153, 14.8349 8.50774 Z M 12.5389 8.4554 C 12.6613 8.01637, 12.7437 7.59042, 12.7869 7.17821 L 12.7869 6.98978 C 12.7869 6.66917, 12.6973 6.37605, 12.5174 6.1104, 12.2805 5.79699, 11.9638 5.57584, 11.5686 5.44629, 11.1734 5.31739, 10.7462 5.25262, 10.2856 5.25196 L 8.25919 5.25196 C 7.89279 5.25262, 7.6736 5.28075, 7.60162 5.33637, 7.52965 5.39264, 7.45441 5.59089, 7.37524 5.93243 L 5.87624 11.7112, 8.57195 11.7112 C 9.03911 11.7118, 9.50628 11.6458, 9.97345 11.5129, 10.4406 11.3808, 10.879 11.1537, 11.2886 10.8318, 11.655 10.5184, 11.9265 10.152, 12.1025 9.73324, 12.2785 9.31449, 12.4238 8.88855, 12.5389 8.4554 Z" stroke="none" fill="#000000" />
			<rect />
		</svg>
	</g>
	<g transform="matrix(1 0 -0 1 9.5 46.8333)">
		<svg width="48.065773" height="54.1276474">
			<defs />
			<path d="M 14.1606 18.9346 C 14.0821 19.144, 13.9454 19.2487, 13.751 19.2487, 13.0326 19.2068, 12.3175 19.1859, 11.6056 19.1859 L 11.2503 19.1859 C 10.4095 19.2003, 9.56484 19.2212, 8.71687 19.2487, 8.5232 19.2487, 8.41852 19.1584, 8.40412 18.9765 L 8.40412 18.8927, 8.4473 18.7148 C 8.50488 18.4851, 8.6449 18.3732, 8.86736 18.3798, 9.13366 18.3804, 9.37117 18.3719, 9.57924 18.3543, 9.7873 18.3372, 9.98883 18.2757, 10.1825 18.1704, 10.2545 18.1364, 10.316 18.0873, 10.3657 18.0238, 10.3945 17.9689, 10.4128 17.9126, 10.42 17.8563 L 10.42 17.7935, 10.1609 14.3179, 5.28836 14.3179, 3.5741 17.2492 C 3.48119 17.4173, 3.43408 17.5711, 3.43408 17.7098, 3.43408 17.8289, 3.47007 17.9375, 3.54204 18.0343, 3.70038 18.2653, 3.99481 18.3804, 4.426 18.3798, 4.62032 18.3804, 4.72436 18.4642, 4.73875 18.631, 4.73875 18.6736, 4.73155 18.7187, 4.71716 18.7671 L 4.67397 18.9346 C 4.59546 19.144, 4.45478 19.2487, 4.25326 19.2487, 3.59242 19.2212, 2.93812 19.2003, 2.29103 19.1859 L 2.00052 19.1859 C 1.43978 19.1859, 0.871855 19.2068, 0.296728 19.2487, 0.189424 19.2487, 0.110254 19.214, 0.0598729 19.144, 0.0166893 19.1028, -0.00490248 19.0537, -0.00490248 18.9974, -0.00490248 18.9562, 0.00229478 18.9143, 0.0166893 18.8718 L 0.0598729 18.7148 C 0.117451 18.4851, 0.25747 18.3732, 0.479931 18.3798, 0.710244 18.3804, 0.937285 18.3562, 1.15975 18.3071, 1.38221 18.2587, 1.59093 18.1711, 1.7846 18.0454, 1.97893 17.9198, 2.15886 17.768, 2.32374 17.59, 2.48928 17.4121, 2.63649 17.2112, 2.76539 16.9874 L 10.3768 3.95384 C 10.5064 3.75886, 10.6713 3.66464, 10.8728 3.67118 L 11.0776 3.67118 C 11.3079 3.67184, 11.4368 3.7798, 11.4656 3.99571 L 12.4143 17.6365 C 12.4287 17.8184, 12.4503 17.9564, 12.4791 18.0507, 12.5079 18.1449, 12.5583 18.2129, 12.6302 18.2542, 12.731 18.3176, 12.8978 18.3543, 13.1314 18.3647, 13.365 18.3752, 13.6293 18.3804, 13.9238 18.3798, 14.1253 18.3804, 14.2254 18.4642, 14.2254 18.631, 14.2254 18.6736, 14.2182 18.7187, 14.2038 18.7671 Z M 9.64401 6.89556 L 5.80591 13.4699, 10.0968 13.4699 Z" stroke="none" fill="#000000" />
			<rect />
		</svg>
	</g>
	<g transform="matrix(1 0 -0 1 47.5652 46.8333)">
		<svg width="50.936203" height="63.0318985">
			<defs />
			<path d="M 5.71713 21.9077 C 5.67395 22.0752, 5.65235 22.2048, 5.65235 22.2951, 5.65235 22.3651, 5.66675 22.4102, 5.69554 22.4312, 5.76751 22.4875, 5.92585 22.5221, 6.17056 22.5359, 6.41526 22.5503, 6.69138 22.5568, 7.00021 22.5568, 7.10097 22.5568, 7.19126 22.5921, 7.26978 22.6615, 7.29856 22.7178, 7.31296 22.7662, 7.31296 22.8081, 7.31296 22.8499, 7.30249 22.8885, 7.2809 22.9232 L 7.24818 23.0907 C 7.22725 23.1889, 7.1749 23.2654, 7.09246 23.321, 7.01002 23.3773, 6.92169 23.4048, 6.82813 23.4048, 6.08092 23.3629, 5.32193 23.342, 4.55248 23.342, 3.79088 23.342, 3.01815 23.3629, 2.23431 23.4048, 2.127 23.4048, 2.04783 23.3701, 1.99745 23.3001, 1.95427 23.2582, 1.93268 23.2098, 1.93268 23.1535, 1.93268 23.1117, 1.9438 23.0737, 1.96474 23.0384 L 1.99745 22.8709 C 2.04064 22.655, 2.17673 22.5503, 2.40704 22.5568, 2.70148 22.5568, 2.97693 22.5503, 3.23211 22.5359, 3.48729 22.5221, 3.67965 22.4835, 3.80855 22.4207, 3.9165 22.3788, 4.01007 22.1943, 4.08924 21.8659 L 4.9516 18.4949 C 4.78672 18.6559, 4.49752 18.862, 4.084 19.1132, 3.67049 19.3645, 3.22295 19.4895, 2.74139 19.4895, 2.17346 19.4895, 1.69713 19.3468, 1.3124 19.0609, 0.927676 18.775, 0.628008 18.4151, 0.412091 17.982, 0.153643 17.4664, 0.0168952 16.9115, 0.00250065 16.3174 L 0.00250065 16.1604 C 0.00250065 15.6095, 0.0783991 15.0586, 0.228887 14.5063, 0.401622 13.8998, 0.642403 13.2998, 0.951231 12.7064, 1.26071 12.1136, 1.6703 11.562, 2.18066 11.0517, 2.5981 10.6336, 3.07442 10.2815, 3.60964 9.99496, 4.14485 9.70903, 4.68923 9.56574, 5.24276 9.56509, 5.76097 9.56574, 6.17579 9.71231, 6.48855 10.0054, 6.8013 10.2986, 7.01133 10.574, 7.11929 10.8318, 7.21285 10.6996, 7.36203 10.5223, 7.56683 10.2986, 7.77162 10.0754, 7.99605 9.86607, 8.2401 9.66978, 8.34086 9.58668, 8.43835 9.54481, 8.53126 9.54415, 8.63987 9.54481, 8.71512 9.60042, 8.75765 9.71165, 8.77989 9.75418, 8.79036 9.79605, 8.79036 9.83728 L 8.79036 9.91056 Z M 6.59062 12.2137 C 6.56183 12.0887, 6.53696 11.9579, 6.51537 11.8218, 6.49378 11.6857, 6.46106 11.5515, 6.41788 11.4181, 6.30338 11.0909, 6.13981 10.8168, 5.92781 10.5969, 5.71582 10.3771, 5.44756 10.2671, 5.12434 10.2665, 4.82271 10.2671, 4.52435 10.3758, 4.22926 10.5917, 3.93482 10.8083, 3.66525 11.087, 3.42055 11.4285, 3.07573 11.9107, 2.81729 12.4119, 2.64455 12.9314, 2.47182 13.4516, 2.31348 13.994, 2.16953 14.5587, 2.02624 15.1175, 1.90781 15.6586, 1.81359 16.1813, 1.75667 16.447, 1.72788 16.6982, 1.72788 16.9351, 1.72788 17.187, 1.75667 17.431, 1.81359 17.6679, 1.87902 17.9964, 1.99549 18.2672, 2.1643 18.4799, 2.33311 18.6932, 2.56865 18.7992, 2.87028 18.7985, 3.20136 18.7992, 3.53374 18.684, 3.86809 18.4537, 4.20243 18.2234, 4.51322 17.9407, 4.80046 17.6051, 4.91562 17.4664, 5.02554 17.3322, 5.12957 17.2027, 5.23426 17.0738, 5.32586 16.9357, 5.40438 16.7885 L 6.59062 12.2137 Z" stroke="none" fill="#000000" />
			<path d="M 15.8579 6.49774 C 15.6427 7.30776, 15.2815 8.07591, 14.7751 8.80152, 14.2686 9.52779, 13.6379 10.1697, 12.8828 10.7271, 12.8037 10.7625, 12.7428 10.7801, 12.6996 10.7795 L 12.678 10.8004 C 12.5701 10.8011, 12.4876 10.7625, 12.4301 10.6852 L 12.4085 10.6434 C 12.3725 10.5884, 12.3542 10.5361, 12.3542 10.4863, 12.3542 10.3895, 12.4046 10.2953, 12.5053 10.2037, 13.1596 9.69464, 13.7184 9.12082, 14.1816 8.48223, 14.6455 7.84363, 14.9635 7.16513, 15.1356 6.4454, 15.1644 6.38324, 15.1827 6.32239, 15.1899 6.26285, 15.1971 6.20397, 15.186 6.25042, 15.1572 6.40353, 15.186 6.37605, 15.1035 6.40614, 14.9092 6.49316, 14.7155 6.58084, 14.5107 6.62402, 14.2948 6.62337, 13.8564 6.62402, 13.5581 6.48466, 13.3997 6.20462, 13.3068 6.05151, 13.2597 5.87747, 13.2597 5.68118, 13.2597 5.57715, 13.2741 5.46526, 13.3029 5.34618, 13.3821 5.06091, 13.56 4.79199, 13.8368 4.54074, 14.1136 4.28949, 14.4564 4.16387, 14.866 4.16321, 15.1755 4.16387, 15.413 4.24107, 15.5779 4.39418, 15.7434 4.54794, 15.8586 4.73638, 15.9227 4.95884, 15.9659 5.13419, 15.9875 5.31543, 15.9875 5.50321 L 15.9875 5.71259 C 15.9587 5.99263, 15.9155 6.25435, 15.8579 6.49774 Z" stroke="none" fill="#000000" />
			<rect />
		</svg>
	</g>
	<g transform="matrix(1 0 -0 1 53.2927 139.47)">
		<svg width="50.936203" height="50.968071">
			<defs />
			<path d="M 14.8967 8.14134 C 14.775 8.64449, 14.5323 9.11559, 14.1691 9.55527, 13.8067 9.99496, 13.3879 10.3686, 12.9135 10.6748, 12.5399 10.9267, 12.1572 11.1256, 11.7652 11.2721, 11.374 11.4187, 11.2353 11.4815, 11.3498 11.4599, 11.3288 11.4534, 11.5173 11.543, 11.9164 11.7275, 12.3155 11.9127, 12.6656 12.1653, 12.9672 12.4859, 13.3048 12.8287, 13.5351 13.2403, 13.6568 13.7212, 13.7144 13.9593, 13.7471 14.1929, 13.7543 14.4226, 13.7543 14.6882, 13.715 14.9643, 13.6352 15.2496, 13.4991 15.7875, 13.2472 16.3011, 12.8808 16.7892, 12.5144 17.2779, 12.076 17.7032, 11.5657 18.0657, 11.0265 18.457, 10.4534 18.7521, 9.84619 18.951, 9.23901 19.1499, 8.63378 19.2487, 8.02986 19.2487 L 0.31047 19.2487 C 0.203165 19.2487, 0.123995 19.2173, 0.0736144 19.1545, 0.0238878 19.106, -0.00162976 19.0537, -0.00162976 18.9974, -0.00162976 18.9562, 0.00556751 18.9143, 0.019962 18.8718 L 0.0624913 18.7148 C 0.105675 18.4851, 0.246349 18.3732, 0.483204 18.3798, 0.820821 18.3804, 1.1375 18.3752, 1.43193 18.3647, 1.72702 18.3543, 1.95014 18.3176, 2.10063 18.2542, 2.23018 18.1848, 2.33028 17.9964, 2.40226 17.6888 L 5.43165 5.89056 C 5.47483 5.73745, 5.49643 5.61902, 5.49643 5.53462, 5.49643 5.45152, 5.47876 5.40245, 5.44212 5.38806, 5.34201 5.3259, 5.14638 5.28795, 4.85522 5.27355, 4.56405 5.25982, 4.24607 5.25262, 3.9006 5.25196, 3.79329 5.25262, 3.71412 5.21794, 3.66374 5.14728, 3.62056 5.10606, 3.59897 5.05371, 3.59897 4.99024, 3.59897 4.94902, 3.61009 4.91042, 3.63103 4.87509 L 3.66374 4.71806 C 3.68533 4.62122, 3.73768 4.54271, 3.82012 4.48316, 3.90256 4.42428, 3.99089 4.39418, 4.0838 4.39353 L 11.2313 4.39353 C 11.8209 4.39418, 12.3777 4.48186, 12.9024 4.6559, 13.4272 4.8306, 13.8623 5.10606, 14.2071 5.48228, 14.5447 5.82513, 14.7822 6.22294, 14.9183 6.67571, 14.9759 6.90668, 15.0047 7.14026, 15.0047 7.37712, 15.0047 7.62902, 14.9687 7.88354, 14.8967 8.14134 Z M 12.7192 8.09946 C 12.7912 7.82073, 12.8272 7.542, 12.8272 7.26196 L 12.8272 7.01071 C 12.7984 6.67637, 12.6976 6.36558, 12.5249 6.07899, 12.3744 5.8212, 12.1748 5.61902, 11.9269 5.47246, 11.6795 5.3259, 11.3903 5.25262, 11.0593 5.25196 L 8.21307 5.25196 C 7.83227 5.25262, 7.61308 5.27683, 7.5555 5.32524, 7.46913 5.39591, 7.38669 5.59809, 7.30752 5.93243 L 5.97079 11.1877, 8.91382 11.1877 C 9.32341 11.1884, 9.72973 11.1086, 10.1321 10.9476, 10.5345 10.7873, 10.9192 10.5603, 11.2856 10.2665, 12.0472 9.65276, 12.5255 8.93042, 12.7192 8.09946 Z M 11.393 15.1868 C 11.4937 14.8315, 11.5441 14.4789, 11.5441 14.1295 L 11.5441 13.9096 C 11.5153 13.5197, 11.4113 13.1598, 11.2313 12.8313, 11.0737 12.5461, 10.8597 12.3138, 10.5901 12.1358, 10.3206 11.9579, 10.0065 11.8689, 9.64663 11.8682 L 5.77647 11.8682, 4.27813 17.7307 C 4.22055 17.9689, 4.19176 18.1396, 4.19176 18.2437, 4.19176 18.3, 4.19568 18.3314, 4.20223 18.3379, 4.21662 18.3595, 4.40375 18.3732, 4.76296 18.3798 L 7.64187 18.3798 C 8.03706 18.3804, 8.43618 18.2954, 8.83858 18.1239, 9.24097 17.9532, 9.61065 17.7281, 9.94826 17.4481, 10.3225 17.1346, 10.6294 16.7826, 10.8702 16.3914, 11.1109 16.0008, 11.2856 15.599, 11.393 15.1868 Z" stroke="none" fill="#000000" />
			<rect />
		</svg>
	</g>
	<ellipse cx="1210.9715089797974" cy="407.37519550323486" rx="11.550000190734863" ry="11.550000190734863" stroke="none" fill="#000000" transform="matrix(0.227273 0 0 0.227273 -117.272 -54.1905)" />
	<ellipse cx="880.23817157745361" cy="892.46217060089111" rx="11.550000190734863" ry="11.550000190734863" stroke="none" fill="#000000" transform="matrix(0.227273 0 0 0.227273 -117.272 -54.1905)" />
	<ellipse cx="671.23817157745361" cy="534.59553241729736" rx="11.550000190734863" ry="11.550000190734863" stroke="none" fill="#000000" transform="matrix(0.227273 0 0 0.227273 -117.272 -54.1905)" />
	<ellipse cx="1535.1048097610474" cy="688.59553241729736" rx="11.550000190734863" ry="11.550000190734863" stroke="none" fill="#000000" transform="matrix(0.227273 0 0 0.227273 -117.272 -54.1905)" />
	<path d="M -77 -138 L 77 138" fill="none" stroke="#000000" stroke-width="4.4000001" stroke-linecap="round" stroke-linejoin="round" marker-end="url(#CustomMarker-01)" transform="matrix(0.227273 0 0 0.227273 60.7959 107.514)" />
</svg>
