<?xml version="1.0"?>
<svg xmlns="http://www.w3.org/2000/svg" xmlns:xlink="http://www.w3.org/1999/xlink" width="194.600006" height="143.400009">
	<defs />
	<path d="M 124.254 -219.354 C 108.506 -218.097, 71.7265 -218.097, 10.2454 -218.097, -51.2357 -218.097, -148.594 -214.423, -222.577 -210, -296.561 -205.577, -321.502 -202.035, -338.861 -195.771, -356.221 -189.507, -370.796 -182.066, -385.242 -170.308, -399.688 -158.55, -410.573 -147.103, -421.144 -134.1, -431.714 -121.097, -438.34 -105.096, -441.24 -88.1451, -444.141 -71.1947, -444.141 -52.4679, -441.753 -32.4925, -439.366 -12.5172, -434.231 5.15932, -422.726 23.5074, -411.22 41.8555, -395.941 56.6282, -379.376 69.3451, -362.811 82.0619, -340.686 98.3769, -323.246 110.432, -305.806 122.488, -287.137 131.47, -264.263 141.998, -241.39 152.526, -213.484 163.979, -180.205 175.482, -146.926 186.985, -105.181 197.524, -61.3036 205.526, -17.426 213.528, 12.2896 218.875, 41.8742 219.114, 71.4588 219.354, 91.9586 219.354, 107.208 216.705, 122.457 214.057, 136.689 209.08, 150.314 202.105, 163.939 195.129, 178.987 185.822, 201.44 170.686, 223.893 155.551, 250.447 139.212, 272.086 126.127, 293.725 113.042, 308.834 103.007, 320.693 93.9266, 332.551 84.8459, 344.082 75.2628, 358.428 68.0947, 372.774 60.9267, 385.45 55.8394, 391.855 53.7185, 398.261 51.5976, 406.263 48.7986, 415.523 41.4607, 424.782 34.1227, 432.678 27.56, 437.111 21.1327, 441.545 14.7055, 443.437 8.96841, 443.789 -1.16571, 444.141 -11.2998, 444.141 -23.0511, 442.356 -36.1963, 440.571 -49.3416, 434.894 -60.5912, 428.513 -71.6517, 422.132 -82.7122, 416.556 -93.023, 407.55 -104.332, 398.545 -115.64, 386.61 -126.87, 370.945 -136.581, 355.28 -146.292, 344.723 -152.113, 329.941 -158.499, 315.158 -164.885, 299.699 -171.146, 285.925 -176.675, 272.151 -182.203, 260.596 -187.208, 246.548 -193.414, 232.5 -199.619, 219.899 -204.568, 211.382 -206.99, 202.864 -209.413, 196.741 -210.554, 194.012 -211.274, 191.284 -211.994, 185.936 -214.326, 179.312 -214.326, 172.687 -214.326, 164.814 -214.326, 160.963 -214.335, 157.112 -214.345, 154.435 -215.583, 151.855 -216.214, 149.275 -216.846, 147.968 -218.097, 145.335 -218.097, 142.703 -218.097, 140.071 -218.097, 136.777 -218.097, 133.484 -218.097, 130.852 -218.097, 128.219 -218.097" fill="none" stroke="#000000" stroke-width="6.66666698" stroke-linecap="round" stroke-linejoin="round" transform="matrix(0.2 0 -0 0.2 97.4 91.076)" />
	<ellipse cx="1035.625244140625" cy="650.88970947265625" rx="13.125" ry="13.125" stroke="none" fill="#000000" transform="matrix(0.2 0 0 0.2 -145.6 -55.6)" />
	<g transform="matrix(1 0 -0 1 38.0753 61.7032)">
		<svg width="48.065773" height="48.0957298">
			<defs />
			<path d="M 5.71299 21.9077 C 5.66981 22.0752, 5.64822 22.2048, 5.64822 22.2951, 5.64822 22.3651, 5.66261 22.4102, 5.6914 22.4312, 5.76337 22.4875, 5.92171 22.5221, 6.16642 22.5359, 6.41113 22.5503, 6.68724 22.5568, 6.99607 22.5568, 7.09683 22.5568, 7.18713 22.5921, 7.26564 22.6615, 7.29443 22.7178, 7.30882 22.7662, 7.30882 22.8081, 7.30882 22.8499, 7.29836 22.8885, 7.27676 22.9232 L 7.24405 23.0907 C 7.22311 23.1889, 7.17077 23.2654, 7.08833 23.321, 7.00588 23.3773, 6.91755 23.4048, 6.82399 23.4048, 6.07678 23.3629, 5.3178 23.342, 4.54835 23.342, 3.78674 23.342, 3.01402 23.3629, 2.23017 23.4048, 2.12287 23.4048, 2.0437 23.3701, 1.99332 23.3001, 1.95013 23.2582, 1.92854 23.2098, 1.92854 23.1535, 1.92854 23.1117, 1.93966 23.0737, 1.9606 23.0384 L 1.99332 22.8709 C 2.0365 22.655, 2.17259 22.5503, 2.40291 22.5568, 2.69734 22.5568, 2.9728 22.5503, 3.22797 22.5359, 3.48315 22.5221, 3.67551 22.4835, 3.80441 22.4207, 3.91237 22.3788, 4.00593 22.1943, 4.0851 21.8659 L 4.94747 18.4949 C 4.78258 18.6559, 4.49338 18.862, 4.07987 19.1132, 3.66635 19.3645, 3.21881 19.4895, 2.73725 19.4895, 2.16932 19.4895, 1.69299 19.3468, 1.30827 19.0609, 0.923541 18.775, 0.623873 18.4151, 0.407955 17.982, 0.149508 17.4664, 0.01276 16.9115, -0.00163448 16.3174 L -0.00163448 16.1604 C -0.00163448 15.6095, 0.0742639 15.0586, 0.224752 14.5063, 0.397487 13.8998, 0.638268 13.2998, 0.947096 12.7064, 1.25658 12.1136, 1.66617 11.562, 2.17652 11.0517, 2.59396 10.6336, 3.07029 10.2815, 3.6055 9.99496, 4.14072 9.70903, 4.68509 9.56574, 5.23863 9.56509, 5.75683 9.56574, 6.17166 9.71231, 6.48441 10.0054, 6.79716 10.2986, 7.00719 10.574, 7.11515 10.8318, 7.20872 10.6996, 7.3579 10.5223, 7.56269 10.2986, 7.76749 10.0754, 7.99191 9.86607, 8.23596 9.66978, 8.33672 9.58668, 8.43421 9.54481, 8.52712 9.54415, 8.63574 9.54481, 8.71098 9.60042, 8.75351 9.71165, 8.77576 9.75418, 8.78623 9.79605, 8.78623 9.83728 L 8.78623 9.91056 Z M 6.58648 12.2137 C 6.55769 12.0887, 6.53283 11.9579, 6.51124 11.8218, 6.48964 11.6857, 6.45693 11.5515, 6.41375 11.4181, 6.29924 11.0909, 6.13567 10.8168, 5.92368 10.5969, 5.71169 10.3771, 5.44342 10.2671, 5.1202 10.2665, 4.81857 10.2671, 4.52021 10.3758, 4.22512 10.5917, 3.93069 10.8083, 3.66112 11.087, 3.41641 11.4285, 3.0716 11.9107, 2.81315 12.4119, 2.64042 12.9314, 2.46768 13.4516, 2.30934 13.994, 2.1654 14.5587, 2.02211 15.1175, 1.90368 15.6586, 1.80946 16.1813, 1.75254 16.447, 1.72375 16.6982, 1.72375 16.9351, 1.72375 17.187, 1.75254 17.431, 1.80946 17.6679, 1.87489 17.9964, 1.99135 18.2672, 2.16016 18.4799, 2.32897 18.6932, 2.56452 18.7992, 2.86615 18.7985, 3.19722 18.7992, 3.52961 18.684, 3.86395 18.4537, 4.1983 18.2234, 4.50909 17.9407, 4.79632 17.6051, 4.91148 17.4664, 5.0214 17.3322, 5.12544 17.2027, 5.23012 17.0738, 5.32172 16.9357, 5.40024 16.7885 L 6.58648 12.2137 Z" stroke="none" fill="#000000" />
			<path d="M 2.71674 3.65386 C 1.97623 3.63041, 1.25551 3.61869, 0.554939 3.61869, -0.145264 3.61869, -0.865985 3.63041, -1.60686 3.65386 L -1.60686 3.14969, -1.18989 3.14969 C -1.05725 3.15005, -0.932304 3.14822, -0.815787 3.14419, -0.698903 3.14053, -0.588249 3.13063, -0.483457 3.11488, -0.378664 3.09949, -0.288162 3.08373, -0.21195 3.06761, -0.147462 3.05625, -0.0939667 3.02035, -0.0518301 2.95952, -0.00932693 2.89907, 0.0115583 2.83165, 0.0115583 2.7569 L 0.0115583 -3.85014 C -0.189599 -3.75194, -0.437289 -3.67756, -0.731147 -3.627, -1.025 -3.57607, -1.34708 -3.55078, -1.69736 -3.55115 L -1.69736 -4.04946 C -1.21407 -4.0491, -0.768154 -4.10662, -0.359611 -4.22204, 0.0489318 -4.33709, 0.402147 -4.55327, 0.700036 -4.87021 L 0.887269 -4.87021 C 1.01991 -4.86985, 1.08623 -4.80536, 1.08623 -4.67675 L 1.08623 2.7569 C 1.08623 2.83531, 1.10638 2.90383, 1.14668 2.96245, 1.18699 3.02108, 1.24561 3.05625, 1.32183 3.06761, 1.38631 3.08373, 1.46912 3.09949, 1.56952 3.11488, 1.67028 3.13063, 1.78387 3.14053, 1.91064 3.14419, 2.03742 3.14822, 2.16126 3.15005, 2.28181 3.14969 L 2.71674 3.14969, 2.71674 3.65386 Z" stroke="none" fill="#000000" transform="matrix(1.12 0 0 1 11.6027 18.6358)" />
			<rect />
		</svg>
	</g>
	<ellipse cx="1490" cy="669.13995361328125" rx="13.125" ry="13.125" stroke="none" fill="#000000" transform="matrix(0.2 0 0 0.2 -145.6 -55.6)" />
	<g transform="matrix(1 0 -0 1 128.454 65.3532)">
		<svg width="50.936203" height="48.0957298">
			<defs />
			<path d="M 5.71299 21.9077 C 5.66981 22.0752, 5.64822 22.2048, 5.64822 22.2951, 5.64822 22.3651, 5.66261 22.4102, 5.6914 22.4312, 5.76337 22.4875, 5.92171 22.5221, 6.16642 22.5359, 6.41113 22.5503, 6.68724 22.5568, 6.99607 22.5568, 7.09683 22.5568, 7.18713 22.5921, 7.26564 22.6615, 7.29443 22.7178, 7.30882 22.7662, 7.30882 22.8081, 7.30882 22.8499, 7.29836 22.8885, 7.27676 22.9232 L 7.24405 23.0907 C 7.22311 23.1889, 7.17077 23.2654, 7.08833 23.321, 7.00588 23.3773, 6.91755 23.4048, 6.82399 23.4048, 6.07678 23.3629, 5.3178 23.342, 4.54835 23.342, 3.78674 23.342, 3.01402 23.3629, 2.23017 23.4048, 2.12287 23.4048, 2.0437 23.3701, 1.99332 23.3001, 1.95013 23.2582, 1.92854 23.2098, 1.92854 23.1535, 1.92854 23.1117, 1.93966 23.0737, 1.9606 23.0384 L 1.99332 22.8709 C 2.0365 22.655, 2.17259 22.5503, 2.40291 22.5568, 2.69734 22.5568, 2.9728 22.5503, 3.22797 22.5359, 3.48315 22.5221, 3.67551 22.4835, 3.80441 22.4207, 3.91237 22.3788, 4.00593 22.1943, 4.0851 21.8659 L 4.94747 18.4949 C 4.78258 18.6559, 4.49338 18.862, 4.07987 19.1132, 3.66635 19.3645, 3.21881 19.4895, 2.73725 19.4895, 2.16932 19.4895, 1.69299 19.3468, 1.30827 19.0609, 0.923541 18.775, 0.623873 18.4151, 0.407955 17.982, 0.149508 17.4664, 0.01276 16.9115, -0.00163448 16.3174 L -0.00163448 16.1604 C -0.00163448 15.6095, 0.0742639 15.0586, 0.224752 14.5063, 0.397487 13.8998, 0.638268 13.2998, 0.947096 12.7064, 1.25658 12.1136, 1.66617 11.562, 2.17652 11.0517, 2.59396 10.6336, 3.07029 10.2815, 3.6055 9.99496, 4.14072 9.70903, 4.68509 9.56574, 5.23863 9.56509, 5.75683 9.56574, 6.17166 9.71231, 6.48441 10.0054, 6.79716 10.2986, 7.00719 10.574, 7.11515 10.8318, 7.20872 10.6996, 7.3579 10.5223, 7.56269 10.2986, 7.76749 10.0754, 7.99191 9.86607, 8.23596 9.66978, 8.33672 9.58668, 8.43421 9.54481, 8.52712 9.54415, 8.63574 9.54481, 8.71098 9.60042, 8.75351 9.71165, 8.77576 9.75418, 8.78623 9.79605, 8.78623 9.83728 L 8.78623 9.91056 Z M 6.58648 12.2137 C 6.55769 12.0887, 6.53283 11.9579, 6.51124 11.8218, 6.48964 11.6857, 6.45693 11.5515, 6.41375 11.4181, 6.29924 11.0909, 6.13567 10.8168, 5.92368 10.5969, 5.71169 10.3771, 5.44342 10.2671, 5.1202 10.2665, 4.81857 10.2671, 4.52021 10.3758, 4.22512 10.5917, 3.93069 10.8083, 3.66112 11.087, 3.41641 11.4285, 3.0716 11.9107, 2.81315 12.4119, 2.64042 12.9314, 2.46768 13.4516, 2.30934 13.994, 2.1654 14.5587, 2.02211 15.1175, 1.90368 15.6586, 1.80946 16.1813, 1.75254 16.447, 1.72375 16.6982, 1.72375 16.9351, 1.72375 17.187, 1.75254 17.431, 1.80946 17.6679, 1.87489 17.9964, 1.99135 18.2672, 2.16016 18.4799, 2.32897 18.6932, 2.56452 18.7992, 2.86615 18.7985, 3.19722 18.7992, 3.52961 18.684, 3.86395 18.4537, 4.1983 18.2234, 4.50909 17.9407, 4.79632 17.6051, 4.91148 17.4664, 5.0214 17.3322, 5.12544 17.2027, 5.23012 17.0738, 5.32172 16.9357, 5.40024 16.7885 L 6.58648 12.2137 Z" stroke="none" fill="#000000" />
			<path d="M 2.733 3.65386 L -2.18124 3.65386, -2.18124 3.33143 C -2.18124 3.30834, -2.16914 3.27317, -2.14496 3.2259 L -0.170765 1.08022 C 0.0630023 0.822642, 0.299335 0.558829, 0.538964 0.289154, 0.778594 0.019479, 0.992575 -0.256058, 1.18164 -0.537458, 1.37071 -0.818859, 1.52167 -1.10905, 1.63452 -1.40804, 1.74737 -1.70703, 1.80343 -2.02067, 1.80343 -2.34934, 1.80343 -2.62634, 1.76752 -2.88539, 1.69498 -3.12575, 1.62243 -3.36612, 1.518 -3.57717, 1.38097 -3.7589, 1.24393 -3.94064, 1.07282 -4.0872, 0.86763 -4.19859, 0.662443 -4.30998, 0.425012 -4.36567, 0.155337 -4.36604, -0.246977 -4.36567, -0.602391 -4.24549, -0.910173 -4.00513, -1.21795 -3.76476, -1.42241 -3.49985, -1.52317 -3.21112, -1.54296 -3.20306, -1.51071 -3.19903, -1.42644 -3.1994 L -1.32385 -3.1994 C -1.20293 -3.17155, -1.09851 -3.12942, -1.00984 -3.07299, -0.921165 -3.0162, -0.846784 -2.93815, -0.786327 -2.83849, -0.72587 -2.73883, -0.695825 -2.61865, -0.695825 -2.47831, -0.695825 -2.24345, -0.772037 -2.06354, -0.925195 -1.9386, -1.07835 -1.81329, -1.24946 -1.751, -1.43853 -1.75136, -1.61954 -1.751, -1.78845 -1.81329, -1.94564 -1.9386, -2.10246 -2.06354, -2.18124 -2.24345, -2.18124 -2.47831, -2.18124 -2.80625, -2.11675 -3.11696, -1.98777 -3.41008, -1.8588 -3.70321, -1.68402 -3.95713, -1.46271 -4.17221, -1.2414 -4.38692, -0.97979 -4.55694, -0.677871 -4.68225, -0.375952 -4.80719, -0.0557132 -4.86985, 0.282113 -4.87021, 0.700549 -4.86985, 1.08418 -4.80829, 1.43226 -4.68518, 1.78035 -4.56207, 2.07714 -4.38509, 2.32263 -4.15462, 2.56812 -3.92379, 2.76048 -3.65704, 2.89935 -3.35439, 3.03822 -3.05137, 3.10747 -2.71648, 3.10747 -2.34934, 3.10747 -1.94263, 3.01514 -1.56816, 2.82974 -1.2263, 2.6447 -0.884079, 2.41533 -0.570435, 2.14163 -0.285371, 1.86792 5.93662e-005, 1.57699 0.268635, 1.26921 0.520723, 0.961431 0.77281, 0.682595 1.01794, 0.433073 1.2561 L -0.955607 2.56344, 0.861768 2.56344 C 1.11532 2.5638, 1.35202 2.56197, 1.57113 2.55794, 1.79061 2.55428, 1.97674 2.54622, 2.12953 2.53449, 2.28269 2.52277, 2.3611 2.51507, 2.36477 2.51068, 2.39701 2.48356, 2.42742 2.42897, 2.45564 2.34689, 2.48385 2.26482, 2.50986 2.16809, 2.53405 2.0567, 2.55823 1.94531, 2.58241 1.83209, 2.60659 1.71667, 2.63078 1.60162, 2.65276 1.47521, 2.67291 1.33818 L 3.11956 1.33818 Z" stroke="none" fill="#000000" transform="matrix(1.12 0 0 1 12.086 18.6358)" />
			<rect />
		</svg>
	</g>
	<ellipse cx="1215" cy="797.26495361328125" rx="13.125" ry="13.125" stroke="none" fill="#000000" transform="matrix(0.2 0 0 0.2 -145.6 -55.6)" />
	<g transform="matrix(1 0 -0 1 73.3422 90.9782)">
		<svg width="50.936203" height="48.0957298">
			<defs />
			<path d="M 5.71299 21.9077 C 5.66981 22.0752, 5.64822 22.2048, 5.64822 22.2951, 5.64822 22.3651, 5.66261 22.4102, 5.6914 22.4312, 5.76337 22.4875, 5.92171 22.5221, 6.16642 22.5359, 6.41113 22.5503, 6.68724 22.5568, 6.99607 22.5568, 7.09683 22.5568, 7.18713 22.5921, 7.26564 22.6615, 7.29443 22.7178, 7.30882 22.7662, 7.30882 22.8081, 7.30882 22.8499, 7.29836 22.8885, 7.27676 22.9232 L 7.24405 23.0907 C 7.22311 23.1889, 7.17077 23.2654, 7.08833 23.321, 7.00588 23.3773, 6.91755 23.4048, 6.82399 23.4048, 6.07678 23.3629, 5.3178 23.342, 4.54835 23.342, 3.78674 23.342, 3.01402 23.3629, 2.23017 23.4048, 2.12287 23.4048, 2.0437 23.3701, 1.99332 23.3001, 1.95013 23.2582, 1.92854 23.2098, 1.92854 23.1535, 1.92854 23.1117, 1.93966 23.0737, 1.9606 23.0384 L 1.99332 22.8709 C 2.0365 22.655, 2.17259 22.5503, 2.40291 22.5568, 2.69734 22.5568, 2.9728 22.5503, 3.22797 22.5359, 3.48315 22.5221, 3.67551 22.4835, 3.80441 22.4207, 3.91237 22.3788, 4.00593 22.1943, 4.0851 21.8659 L 4.94747 18.4949 C 4.78258 18.6559, 4.49338 18.862, 4.07987 19.1132, 3.66635 19.3645, 3.21881 19.4895, 2.73725 19.4895, 2.16932 19.4895, 1.69299 19.3468, 1.30827 19.0609, 0.923541 18.775, 0.623873 18.4151, 0.407955 17.982, 0.149508 17.4664, 0.01276 16.9115, -0.00163448 16.3174 L -0.00163448 16.1604 C -0.00163448 15.6095, 0.0742639 15.0586, 0.224752 14.5063, 0.397487 13.8998, 0.638268 13.2998, 0.947096 12.7064, 1.25658 12.1136, 1.66617 11.562, 2.17652 11.0517, 2.59396 10.6336, 3.07029 10.2815, 3.6055 9.99496, 4.14072 9.70903, 4.68509 9.56574, 5.23863 9.56509, 5.75683 9.56574, 6.17166 9.71231, 6.48441 10.0054, 6.79716 10.2986, 7.00719 10.574, 7.11515 10.8318, 7.20872 10.6996, 7.3579 10.5223, 7.56269 10.2986, 7.76749 10.0754, 7.99191 9.86607, 8.23596 9.66978, 8.33672 9.58668, 8.43421 9.54481, 8.52712 9.54415, 8.63574 9.54481, 8.71098 9.60042, 8.75351 9.71165, 8.77576 9.75418, 8.78623 9.79605, 8.78623 9.83728 L 8.78623 9.91056 Z M 6.58648 12.2137 C 6.55769 12.0887, 6.53283 11.9579, 6.51124 11.8218, 6.48964 11.6857, 6.45693 11.5515, 6.41375 11.4181, 6.29924 11.0909, 6.13567 10.8168, 5.92368 10.5969, 5.71169 10.3771, 5.44342 10.2671, 5.1202 10.2665, 4.81857 10.2671, 4.52021 10.3758, 4.22512 10.5917, 3.93069 10.8083, 3.66112 11.087, 3.41641 11.4285, 3.0716 11.9107, 2.81315 12.4119, 2.64042 12.9314, 2.46768 13.4516, 2.30934 13.994, 2.1654 14.5587, 2.02211 15.1175, 1.90368 15.6586, 1.80946 16.1813, 1.75254 16.447, 1.72375 16.6982, 1.72375 16.9351, 1.72375 17.187, 1.75254 17.431, 1.80946 17.6679, 1.87489 17.9964, 1.99135 18.2672, 2.16016 18.4799, 2.32897 18.6932, 2.56452 18.7992, 2.86615 18.7985, 3.19722 18.7992, 3.52961 18.684, 3.86395 18.4537, 4.1983 18.2234, 4.50909 17.9407, 4.79632 17.6051, 4.91148 17.4664, 5.0214 17.3322, 5.12544 17.2027, 5.23012 17.0738, 5.32172 16.9357, 5.40024 16.7885 L 6.58648 12.2137 Z" stroke="none" fill="#000000" />
			<path d="M 3.22207 1.4437 C 3.22207 1.78006, 3.14769 2.10286, 2.99893 2.41138, 2.85017 2.72026, 2.65084 2.98407, 2.40095 3.20245, 2.11955 3.44904, 1.80847 3.63151, 1.46845 3.75059, 1.12842 3.87004, 0.77301 3.9294, 0.402573 3.9294, 0.0687768 3.9294, -0.256958 3.8825, -0.574999 3.7887, -0.893039 3.6949, -1.17957 3.56043, -1.43532 3.38455, -1.69107 3.20868, -1.89516 2.99287, -2.04832 2.73675, -2.20111 2.481, -2.27769 2.18677, -2.27769 1.85408, -2.27769 1.60419, -2.19415 1.41769, -2.02707 1.29457, -1.85999 1.17146, -1.68411 1.1099, -1.49908 1.10954, -1.30561 1.1099, -1.12571 1.17146, -0.958626 1.29457, -0.791545 1.41769, -0.708004 1.60419, -0.708004 1.85408, -0.708004 2.00284, -0.73695 2.12705, -0.795575 2.22671, -0.853834 2.32637, -0.928214 2.40955, -1.01908 2.47587, -1.10959 2.54255, -1.21328 2.58322, -1.3298 2.59861, -1.38989 2.61473, -1.44631 2.62243, -1.49908 2.62206, -1.55111 2.62243, -1.55917 2.62646, -1.52326 2.63379, -1.39831 2.8529, -1.15282 3.04673, -0.786415 3.21454, -0.420009 3.38272, -0.0239239 3.46663, 0.402573 3.46626, 0.604096 3.46663, 0.792063 3.4168, 0.967205 3.31714, 1.14235 3.21747, 1.28854 3.08373, 1.40506 2.91519, 1.55016 2.69681, 1.64872 2.46231, 1.70075 2.21205, 1.75315 1.96216, 1.77916 1.70605, 1.77916 1.4437, 1.77916 1.17439, 1.75315 0.915709, 1.70075 0.667285, 1.64872 0.419228, 1.55016 0.189492, 1.40506 -0.021925, 1.28415 -0.193403, 1.13722 -0.332271, 0.964274 -0.437796, 0.79133 -0.543321, 0.604096 -0.596084, 0.402573 -0.59645 L -0.472771 -0.59645 C -0.589289 -0.596084, -0.651578 -0.650678, -0.659639 -0.7606 L -0.659639 -0.825088 C -0.659639 -0.871621, -0.645349 -0.908628, -0.617502 -0.936475, -0.581228 -0.971283, -0.535061 -0.988871, -0.478634 -0.989238, -0.36175 -1.00463, -0.241203 -1.01232, -0.116625 -1.01269, 0.00428939 -1.01232, 0.123371 -1.02002, 0.239889 -1.03614, 0.457168 -1.05153, 0.646233 -1.11858, 0.807086 -1.23803, 0.968304 -1.35711, 1.10314 -1.50953, 1.2116 -1.6953, 1.32042 -1.8807, 1.40286 -2.09469, 1.45929 -2.33725, 1.51572 -2.57944, 1.54393 -2.82786, 1.54393 -3.08215, 1.54393 -3.26938, 1.52378 -3.44709, 1.48347 -3.61527, 1.44317 -3.78309, 1.36879 -3.93001, 1.25996 -4.05533, 1.03462 -4.31291, 0.748827 -4.44005, 0.402573 -4.43639, 0.0325027 -4.43602, -0.306423 -4.3664, -0.614204 -4.2279, -0.921986 -4.08903, -1.12864 -3.93954, -1.23343 -3.77979, -1.26128 -3.77539, -1.24735 -3.77356, -1.19093 -3.77393, -1.04583 -3.77356, -0.909161 -3.73069, -0.780553 -3.64495, -0.58709 -3.53136, -0.490726 -3.33973, -0.490726 -3.07043, -0.490726 -2.84325, -0.564007 -2.67214, -0.710936 -2.55709, -0.857864 -2.44167, -1.02201 -2.38415, -1.20302 -2.38451, -1.37999 -2.38415, -1.54598 -2.44057, -1.70097 -2.55416, -1.85596 -2.66738, -1.93363 -2.83959, -1.93363 -3.07043, -1.93363 -3.35549, -1.86512 -3.60721, -1.72845 -3.82632, -1.59141 -4.04507, -1.41553 -4.23267, -1.20009 -4.38912, -0.984641 -4.54521, -0.736217 -4.66466, -0.454451 -4.74673, -0.172685 -4.82881, 0.113112 -4.86985, 0.402573 -4.87021, 0.712553 -4.86985, 1.01264 -4.82881, 1.30247 -4.74673, 1.59229 -4.66466, 1.866 -4.53752, 2.12322 -4.36604, 2.3328 -4.21728, 2.50868 -4.03444, 2.65157 -3.81753, 2.79447 -3.60062, 2.86592 -3.35549, 2.86592 -3.08215, 2.86592 -2.80808, 2.81682 -2.55013, 2.71826 -2.30793, 2.6197 -2.06537, 2.48889 -1.84663, 2.32584 -1.65133, 2.16279 -1.45567, 1.96859 -1.28383, 1.74325 -1.13543, 1.51791 -0.986673, 1.34863 -0.893239, 1.23578 -0.8544, 1.33251 -0.842309, 1.49776 -0.784417, 1.73116 -0.68109, 1.96456 -0.577397, 2.1877 -0.439628, 2.40095 -0.26815, 2.65084 -0.0527031, 2.85017 0.204148, 2.99893 0.503135, 3.14769 0.802123, 3.22207 1.11577, 3.22207 1.4437 Z" stroke="none" fill="#000000" transform="matrix(1.12 0 0 1 12.1824 18.6358)" />
			<rect />
		</svg>
	</g>
	<ellipse cx="955.625" cy="392.57748413085937" rx="13.125" ry="13.125" stroke="none" fill="#000000" transform="matrix(0.2 0 0 0.2 -145.6 -55.6)" />
	<g transform="matrix(1 0 -0 1 21.2643 10.0408)">
		<svg width="54.0936813" height="48.0957298">
			<defs />
			<path d="M 5.71299 21.9077 C 5.66981 22.0752, 5.64822 22.2048, 5.64822 22.2951, 5.64822 22.3651, 5.66261 22.4102, 5.6914 22.4312, 5.76337 22.4875, 5.92171 22.5221, 6.16642 22.5359, 6.41113 22.5503, 6.68724 22.5568, 6.99607 22.5568, 7.09683 22.5568, 7.18713 22.5921, 7.26564 22.6615, 7.29443 22.7178, 7.30882 22.7662, 7.30882 22.8081, 7.30882 22.8499, 7.29836 22.8885, 7.27676 22.9232 L 7.24405 23.0907 C 7.22311 23.1889, 7.17077 23.2654, 7.08833 23.321, 7.00588 23.3773, 6.91755 23.4048, 6.82399 23.4048, 6.07678 23.3629, 5.3178 23.342, 4.54835 23.342, 3.78674 23.342, 3.01402 23.3629, 2.23017 23.4048, 2.12287 23.4048, 2.0437 23.3701, 1.99332 23.3001, 1.95013 23.2582, 1.92854 23.2098, 1.92854 23.1535, 1.92854 23.1117, 1.93966 23.0737, 1.9606 23.0384 L 1.99332 22.8709 C 2.0365 22.655, 2.17259 22.5503, 2.40291 22.5568, 2.69734 22.5568, 2.9728 22.5503, 3.22797 22.5359, 3.48315 22.5221, 3.67551 22.4835, 3.80441 22.4207, 3.91237 22.3788, 4.00593 22.1943, 4.0851 21.8659 L 4.94747 18.4949 C 4.78258 18.6559, 4.49338 18.862, 4.07987 19.1132, 3.66635 19.3645, 3.21881 19.4895, 2.73725 19.4895, 2.16932 19.4895, 1.69299 19.3468, 1.30827 19.0609, 0.923541 18.775, 0.623873 18.4151, 0.407955 17.982, 0.149508 17.4664, 0.01276 16.9115, -0.00163448 16.3174 L -0.00163448 16.1604 C -0.00163448 15.6095, 0.0742639 15.0586, 0.224752 14.5063, 0.397487 13.8998, 0.638268 13.2998, 0.947096 12.7064, 1.25658 12.1136, 1.66617 11.562, 2.17652 11.0517, 2.59396 10.6336, 3.07029 10.2815, 3.6055 9.99496, 4.14072 9.70903, 4.68509 9.56574, 5.23863 9.56509, 5.75683 9.56574, 6.17166 9.71231, 6.48441 10.0054, 6.79716 10.2986, 7.00719 10.574, 7.11515 10.8318, 7.20872 10.6996, 7.3579 10.5223, 7.56269 10.2986, 7.76749 10.0754, 7.99191 9.86607, 8.23596 9.66978, 8.33672 9.58668, 8.43421 9.54481, 8.52712 9.54415, 8.63574 9.54481, 8.71098 9.60042, 8.75351 9.71165, 8.77576 9.75418, 8.78623 9.79605, 8.78623 9.83728 L 8.78623 9.91056 Z M 6.58648 12.2137 C 6.55769 12.0887, 6.53283 11.9579, 6.51124 11.8218, 6.48964 11.6857, 6.45693 11.5515, 6.41375 11.4181, 6.29924 11.0909, 6.13567 10.8168, 5.92368 10.5969, 5.71169 10.3771, 5.44342 10.2671, 5.1202 10.2665, 4.81857 10.2671, 4.52021 10.3758, 4.22512 10.5917, 3.93069 10.8083, 3.66112 11.087, 3.41641 11.4285, 3.0716 11.9107, 2.81315 12.4119, 2.64042 12.9314, 2.46768 13.4516, 2.30934 13.994, 2.1654 14.5587, 2.02211 15.1175, 1.90368 15.6586, 1.80946 16.1813, 1.75254 16.447, 1.72375 16.6982, 1.72375 16.9351, 1.72375 17.187, 1.75254 17.431, 1.80946 17.6679, 1.87489 17.9964, 1.99135 18.2672, 2.16016 18.4799, 2.32897 18.6932, 2.56452 18.7992, 2.86615 18.7985, 3.19722 18.7992, 3.52961 18.684, 3.86395 18.4537, 4.1983 18.2234, 4.50909 17.9407, 4.79632 17.6051, 4.91148 17.4664, 5.0214 17.3322, 5.12544 17.2027, 5.23012 17.0738, 5.32172 16.9357, 5.40024 16.7885 L 6.58648 12.2137 Z" stroke="none" fill="#000000" />
			<path d="M 2.11204 1.56681 L 2.11204 2.7569 C 2.11204 2.82762, 2.12523 2.8932, 2.15161 2.95366, 2.17799 3.01448, 2.22123 3.05442, 2.28132 3.07348, 2.37402 3.11671, 2.52498 3.14053, 2.73419 3.14419, 2.94341 3.14822, 3.15446 3.15005, 3.36771 3.14969 L 3.36771 3.65386 C 2.75215 3.63041, 2.14868 3.61869, 1.55657 3.61869, 0.973246 3.61869, 0.359516 3.63041, -0.284626 3.65386 L -0.284626 3.14969 C -0.0633171 3.15005, 0.150298 3.14822, 0.355485 3.14419, 0.560673 3.14053, 0.713831 3.11671, 0.814226 3.07348, 0.874683 3.05442, 0.919018 3.01448, 0.947231 2.95366, 0.975445 2.8932, 0.989368 2.82762, 0.989368 2.7569 L 0.989368 1.56681, -2.45192 1.56681, -2.45192 1.09195, 1.58075 -4.90539 C 1.63351 -4.97537, 1.69983 -5.01055, 1.78007 -5.01091 L 1.91308 -5.01091 C 2.04572 -5.01055, 2.11204 -4.94423, 2.11204 -4.81159 L 2.11204 1.05091, 3.41021 1.05091, 3.41021 1.56681 Z M 1.04946 -3.36355 L -1.92063 1.05091, 1.04946 1.05091 Z" stroke="none" fill="#000000" transform="matrix(1.12 0 0 1 12.3575 18.6358)" />
			<rect />
		</svg>
	</g>
	<ellipse cx="1416.5625" cy="356.63998413085937" rx="13.125" ry="13.125" stroke="none" fill="#000000" transform="matrix(0.2 0 0 0.2 -145.6 -55.6)" />
	<g transform="matrix(1 0 -0 1 113.773 2.85326)">
		<svg width="50.936203" height="48.0957298">
			<defs />
			<path d="M 5.71299 21.9077 C 5.66981 22.0752, 5.64822 22.2048, 5.64822 22.2951, 5.64822 22.3651, 5.66261 22.4102, 5.6914 22.4312, 5.76337 22.4875, 5.92171 22.5221, 6.16642 22.5359, 6.41113 22.5503, 6.68724 22.5568, 6.99607 22.5568, 7.09683 22.5568, 7.18713 22.5921, 7.26564 22.6615, 7.29443 22.7178, 7.30882 22.7662, 7.30882 22.8081, 7.30882 22.8499, 7.29836 22.8885, 7.27676 22.9232 L 7.24405 23.0907 C 7.22311 23.1889, 7.17077 23.2654, 7.08833 23.321, 7.00588 23.3773, 6.91755 23.4048, 6.82399 23.4048, 6.07678 23.3629, 5.3178 23.342, 4.54835 23.342, 3.78674 23.342, 3.01402 23.3629, 2.23017 23.4048, 2.12287 23.4048, 2.0437 23.3701, 1.99332 23.3001, 1.95013 23.2582, 1.92854 23.2098, 1.92854 23.1535, 1.92854 23.1117, 1.93966 23.0737, 1.9606 23.0384 L 1.99332 22.8709 C 2.0365 22.655, 2.17259 22.5503, 2.40291 22.5568, 2.69734 22.5568, 2.9728 22.5503, 3.22797 22.5359, 3.48315 22.5221, 3.67551 22.4835, 3.80441 22.4207, 3.91237 22.3788, 4.00593 22.1943, 4.0851 21.8659 L 4.94747 18.4949 C 4.78258 18.6559, 4.49338 18.862, 4.07987 19.1132, 3.66635 19.3645, 3.21881 19.4895, 2.73725 19.4895, 2.16932 19.4895, 1.69299 19.3468, 1.30827 19.0609, 0.923541 18.775, 0.623873 18.4151, 0.407955 17.982, 0.149508 17.4664, 0.01276 16.9115, -0.00163448 16.3174 L -0.00163448 16.1604 C -0.00163448 15.6095, 0.0742639 15.0586, 0.224752 14.5063, 0.397487 13.8998, 0.638268 13.2998, 0.947096 12.7064, 1.25658 12.1136, 1.66617 11.562, 2.17652 11.0517, 2.59396 10.6336, 3.07029 10.2815, 3.6055 9.99496, 4.14072 9.70903, 4.68509 9.56574, 5.23863 9.56509, 5.75683 9.56574, 6.17166 9.71231, 6.48441 10.0054, 6.79716 10.2986, 7.00719 10.574, 7.11515 10.8318, 7.20872 10.6996, 7.3579 10.5223, 7.56269 10.2986, 7.76749 10.0754, 7.99191 9.86607, 8.23596 9.66978, 8.33672 9.58668, 8.43421 9.54481, 8.52712 9.54415, 8.63574 9.54481, 8.71098 9.60042, 8.75351 9.71165, 8.77576 9.75418, 8.78623 9.79605, 8.78623 9.83728 L 8.78623 9.91056 Z M 6.58648 12.2137 C 6.55769 12.0887, 6.53283 11.9579, 6.51124 11.8218, 6.48964 11.6857, 6.45693 11.5515, 6.41375 11.4181, 6.29924 11.0909, 6.13567 10.8168, 5.92368 10.5969, 5.71169 10.3771, 5.44342 10.2671, 5.1202 10.2665, 4.81857 10.2671, 4.52021 10.3758, 4.22512 10.5917, 3.93069 10.8083, 3.66112 11.087, 3.41641 11.4285, 3.0716 11.9107, 2.81315 12.4119, 2.64042 12.9314, 2.46768 13.4516, 2.30934 13.994, 2.1654 14.5587, 2.02211 15.1175, 1.90368 15.6586, 1.80946 16.1813, 1.75254 16.447, 1.72375 16.6982, 1.72375 16.9351, 1.72375 17.187, 1.75254 17.431, 1.80946 17.6679, 1.87489 17.9964, 1.99135 18.2672, 2.16016 18.4799, 2.32897 18.6932, 2.56452 18.7992, 2.86615 18.7985, 3.19722 18.7992, 3.52961 18.684, 3.86395 18.4537, 4.1983 18.2234, 4.50909 17.9407, 4.79632 17.6051, 4.91148 17.4664, 5.0214 17.3322, 5.12544 17.2027, 5.23012 17.0738, 5.32172 16.9357, 5.40024 16.7885 L 6.58648 12.2137 Z" stroke="none" fill="#000000" />
			<path d="M 3.10434 1.06264 C 3.10434 1.4459, 3.03215 1.81157, 2.88706 2.15929, 2.74233 2.50738, 2.53311 2.81992, 2.25904 3.09693, 1.9813 3.36697, 1.66839 3.57325, 1.3203 3.71542, 0.972218 3.85832, 0.603247 3.9294, 0.212658 3.9294, -0.125168 3.9294, -0.440278 3.86601, -0.731937 3.73887, -1.0236 3.61209, -1.27715 3.43842, -1.4926 3.21747, -1.70804 2.9969, -1.87696 2.74078, -2.00007 2.44949, -2.12282 2.15856, -2.18437 1.84858, -2.18437 1.51991, -2.18437 1.29347, -2.10889 1.12273, -1.95793 1.00731, -1.80697 0.892259, -1.65088 0.834367, -1.49003 0.834, -1.32075 0.834367, -1.16173 0.89116, -1.01297 1.00438, -0.863843 1.11796, -0.789463 1.28981, -0.789463 1.51991, -0.789463 1.66098, -0.820607 1.77933, -0.882897 1.87496, -0.945186 1.97096, -1.02176 2.04497, -1.11263 2.09774, -1.20314 2.1505, -1.30463 2.18091, -1.41748 2.18824 L -1.49003 2.18824, -1.61058 2.18824 C -1.51788 2.5169, -1.30243 2.81223, -0.964605 3.07384, -0.626412 3.33582, -0.233991 3.46663, 0.212658 3.46626, 0.446059 3.46663, 0.673597 3.40617, 0.894907 3.28489, 1.11622 3.16398, 1.29722 3.00349, 1.43792 2.8038, 1.60317 2.56564, 1.70906 2.29523, 1.75523 1.99221, 1.8014 1.68956, 1.82448 1.37958, 1.82448 1.06264, 1.82448 0.742399, 1.81459 0.434984, 1.79443 0.13966, 1.77428 -0.155297, 1.69184 -0.433766, 1.54674 -0.696113, 1.44232 -0.887377, 1.30858 -1.0464, 1.14553 -1.17354, 0.982478 -1.30032, 0.800374 -1.36407, 0.59885 -1.36444, 0.216689 -1.36407, -0.115275 -1.28676, -0.397042 -1.1325, -0.678808 -0.977879, -0.906346 -0.756203, -1.07929 -0.467475, -1.11556 -0.400789, -1.17382 -0.367446, -1.25443 -0.367812 L -1.3028 -0.367812 C -1.4435 -0.367446, -1.51421 -0.431933, -1.51421 -0.561275 L -1.51421 -4.67675 C -1.51421 -4.77788, -1.45559 -4.84237, -1.33907 -4.87021, -1.31855 -4.86985, -1.30353 -4.86765, -1.29364 -4.86398, -1.28338 -4.85995, -1.27458 -4.85812, -1.26652 -4.85849, -0.682839 -4.59248, -0.0811996 -4.45947, 0.538393 -4.45984, 1.16641 -4.45947, 1.76842 -4.59248, 2.34368 -4.85849, 2.35174 -4.85812, 2.3598 -4.85995, 2.36786 -4.86398, 2.37592 -4.86765, 2.38801 -4.86985, 2.40413 -4.87021, 2.53677 -4.86985, 2.60126 -4.80939, 2.59723 -4.68848, 2.59723 -4.61776, 2.58514 -4.57086, 2.56096 -4.54778, 2.27516 -4.15645, 1.91205 -3.8505, 1.47126 -3.62993, 1.03084 -3.40898, 0.562943 -3.2987, 0.0675611 -3.29906, -0.342814 -3.2987, -0.696762 -3.3456, -0.995017 -3.43976 L -0.995017 -1.20029 C -0.85395 -1.34832, -0.641435 -1.48022, -0.357836 -1.59564, -0.0742381 -1.71069, 0.244902 -1.76858, 0.59885 -1.76895, 0.945104 -1.76858, 1.2723 -1.69017, 1.58009 -1.53408, 1.88787 -1.37763, 2.15864 -1.17464, 2.39204 -0.92475, 2.6335 -0.642983, 2.81268 -0.331172, 2.92919 0.0106852, 3.04608 0.352909, 3.10434 0.703559, 3.10434 1.06264 Z" stroke="none" fill="#000000" transform="matrix(1.12 0 0 1 12.086 18.6358)" />
			<rect />
		</svg>
	</g>
</svg>
