<?xml version="1.0"?>
<svg xmlns="http://www.w3.org/2000/svg" xmlns:xlink="http://www.w3.org/1999/xlink" width="228.366028" height="209.593521">
	<defs>
		<marker id="CustomMarker-01" markerUnits="strokeWidth" markerWidth="15.000001" markerHeight="9" viewBox="-15 -4.5 15 9" orient="auto-start-reverse">
			<path d="M 0 -0 L -10 -3, -8 -0.5, -8 0.5, -10 3 Z" fill="#000000" stroke="#000000" stroke-linejoin="round" />
		</marker>
		<marker id="CustomMarker-02" markerUnits="strokeWidth" markerWidth="15.000001" markerHeight="9" viewBox="-15 -4.5 15 9" orient="auto-start-reverse">
			<path d="M 0 -0 L -10 -3, -8 -0.5, -8 0.5, -10 3 Z" fill="#000000" stroke="#000000" stroke-linejoin="round" />
		</marker>
	</defs>
	<g transform="matrix(1 0 -0 1 81.3539 105.915)">
		<svg width="48.065773" height="50.968071">
			<defs />
			<path d="M 14.8084 17.134 C 14.7292 17.4487, 14.6108 17.7575, 14.4524 18.0611, 14.2941 18.3647, 14.1004 18.6389, 13.8701 18.8829, 13.6405 19.1276, 13.3833 19.3272, 13.0994 19.4842, 12.8154 19.6413, 12.5085 19.7198, 12.1774 19.7198, 11.1358 19.7198, 10.352 19.4443, 9.82721 18.8927, 9.46866 18.5165, 9.28873 18.0422, 9.28873 17.469, 9.28873 17.1765, 9.33583 16.8592, 9.42875 16.5163 L 9.91358 14.6424 C 9.97116 14.4056, 9.99995 14.1825, 9.99995 13.9724, 9.99995 13.8684, 9.99275 13.7604, 9.97835 13.6479, 9.93517 13.3554, 9.83506 13.0976, 9.67672 12.8739, 9.51838 12.6508, 9.31555 12.4747, 9.06757 12.3452, 8.81959 12.2163, 8.52647 12.1515, 8.18885 12.1509 L 5.75225 12.1509, 4.31869 17.7307 C 4.2899 17.8642, 4.2755 17.9721, 4.2755 18.0552, 4.2755 18.1606, 4.2971 18.2306, 4.34028 18.2646, 4.43384 18.3209, 4.62817 18.3543, 4.9226 18.3647, 5.21704 18.3752, 5.53306 18.3804, 5.87068 18.3798, 6.0722 18.3804, 6.17296 18.4642, 6.17296 18.631, 6.17296 18.6736, 6.16577 18.7187, 6.15137 18.7671 L 6.10819 18.9346 C 6.02967 19.144, 5.889 19.2487, 5.68748 19.2487, 4.80418 19.2068, 3.91302 19.1859, 3.01402 19.1859, 2.11632 19.1859, 1.21405 19.2068, 0.308502 19.2487, 0.11483 19.2487, 0.0107969 19.1584, -0.00425196 18.9765 L -0.00425196 18.8927, 0.0389316 18.7148 C 0.0965098 18.4851, 0.236529 18.3732, 0.45899 18.3798, 0.797262 18.3804, 1.11721 18.3752, 1.41884 18.3647, 1.72113 18.3543, 1.94359 18.3176, 2.08688 18.2542, 2.22363 18.1783, 2.32766 17.9898, 2.39963 17.6888 L 5.42903 5.89056 C 5.47221 5.73745, 5.4938 5.61902, 5.4938 5.53462, 5.4938 5.45152, 5.47614 5.40245, 5.4395 5.38806, 5.33939 5.3259, 5.14376 5.28795, 4.85259 5.27355, 4.56143 5.25982, 4.24344 5.25262, 3.89797 5.25196, 3.69711 5.25262, 3.59634 5.1584, 3.59634 4.96931 L 3.59634 4.88556, 3.66112 4.70759 C 3.7043 4.49887, 3.83712 4.39418, 4.05959 4.39353 L 10.1295 4.39353 C 10.8126 4.39418, 11.463 4.48513, 12.0806 4.66637, 12.6989 4.84826, 13.2381 5.14793, 13.6974 5.56603, 14.0788 5.90168, 14.3556 6.31323, 14.5277 6.80134, 14.6356 7.06698, 14.6932 7.3431, 14.7004 7.62837, 14.7004 7.88747, 14.6612 8.14199, 14.582 8.39259, 14.4452 8.95136, 14.1613 9.45778, 13.7301 9.91121, 13.2989 10.3653, 12.8141 10.752, 12.2749 11.0726, 11.9013 11.2898, 11.5225 11.4697, 11.1378 11.6124, 10.753 11.7557, 10.4782 11.8447, 10.3127 11.8787, 10.7223 12.0396, 11.1103 12.3537, 11.4767 12.8209, 11.7862 13.2265, 11.9406 13.7114, 11.9406 14.276, 11.9406 14.3951, 11.9334 14.5142, 11.919 14.632 L 11.7142 16.5163 C 11.6566 17.0058, 11.6278 17.431, 11.6278 17.7935, 11.6278 18.0317, 11.6422 18.2411, 11.671 18.4216, 11.7214 18.8339, 11.9367 19.04, 12.3175 19.0393, 12.6629 19.04, 12.979 18.8535, 13.2662 18.4799, 13.5541 18.1069, 13.7661 17.6443, 13.9022 17.0921, 13.982 16.8834, 14.122 16.782, 14.3229 16.7885 L 14.4956 16.7885 C 14.6899 16.7892, 14.794 16.8801, 14.8084 17.0607 L 14.8084 17.134 Z M 12.2749 8.32978 C 12.3901 7.91168, 12.4542 7.49293, 12.4686 7.07353 L 12.4686 7.01071 C 12.4686 6.65543, 12.3574 6.34857, 12.1343 6.08946, 11.8686 5.78325, 11.5225 5.56668, 11.0946 5.44106, 10.6667 5.31543, 10.1975 5.25262, 9.68719 5.25196 L 8.25363 5.25196 C 7.88722 5.25262, 7.66803 5.28075, 7.59606 5.33637, 7.52409 5.39264, 7.44884 5.59089, 7.36967 5.93243 L 5.94658 11.4704, 8.02724 11.4704 C 8.53759 11.4711, 9.04075 11.4082, 9.5367 11.2826, 10.0327 11.157, 10.5031 10.9339, 10.9487 10.612, 11.3295 10.3404, 11.6174 9.99889, 11.811 9.58668, 12.0054 9.17513, 12.1598 8.75638, 12.2749 8.32978 Z" stroke="none" fill="#000000" />
			<rect />
		</svg>
	</g>
	<path d="M -346.668 0 L 346.668 0" fill="none" stroke="#000000" stroke-width="3.84000015" stroke-linecap="round" stroke-linejoin="round" marker-end="url(#CustomMarker-01)" transform="matrix(0.277778 0 -0 0.277778 123.569 104.797)" />
	<path d="M 0 346.668 L 0 -346.668" fill="none" stroke="#000000" stroke-width="3.84000015" stroke-linecap="round" stroke-linejoin="round" marker-end="url(#CustomMarker-02)" transform="matrix(0.277778 0 -0 0.277778 123.569 104.797)" />
	<g transform="matrix(1 0 -0 1 48.3614 26.775)">
		<svg width="56.9641113" height="50.968071">
			<defs />
			<path d="M 7.62964 19.479 L 7.62964 18.2332 C 7.39998 18.5198, 7.03161 18.7979, 6.52453 19.0661, 6.0181 19.3344, 5.45148 19.4685, 4.82598 19.4685, 4.16514 19.4685, 3.53963 19.3396, 2.95011 19.0818, 2.36124 18.824, 1.85089 18.4674, 1.41905 18.0134, 0.951884 17.5253, 0.59791 16.9848, 0.357129 16.3914, 0.116347 15.7986, -0.00469762 15.1737, -0.00469762 14.5168, -0.00469762 13.8612, 0.121582 13.2298, 0.372832 12.6226, 0.624736 12.0154, 0.991142 11.4783, 1.4727 11.0104, 1.95427 10.5433, 2.50453 10.1821, 3.12284 9.92691, 3.74115 9.67239, 4.38825 9.5448, 5.06349 9.54415, 5.64581 9.5448, 6.17644 9.66912, 6.65408 9.91644, 7.13237 10.1644, 7.47195 10.417, 7.67282 10.6748 L 7.67282 6.31977 C 7.67282 6.13919, 7.66432 5.96318, 7.646 5.79176, 7.62833 5.62099, 7.55832 5.49013, 7.43597 5.39852, 7.31361 5.31543, 7.11929 5.26701, 6.85364 5.25262, 6.588 5.23888, 6.29684 5.23168, 5.98016 5.23102 L 5.98016 4.38306, 9.37661 4.13181, 9.37661 17.2806 C 9.37661 17.4625, 9.38577 17.6371, 9.40344 17.8046, 9.42176 17.9721, 9.49373 18.0978, 9.61935 18.1815, 9.74498 18.2653, 9.94127 18.3163, 10.2069 18.3333, 10.4732 18.351, 10.7676 18.3595, 11.0909 18.3588 L 11.0909 19.2173 Z M 7.62964 11.8577 C 7.39278 11.3906, 7.05451 11.0052, 6.61613 10.7016, 6.17775 10.398, 5.6746 10.2462, 5.10667 10.2456, 4.6539 10.2462, 4.22991 10.3529, 3.83472 10.5655, 3.43952 10.7788, 3.09798 11.0732, 2.81009 11.4495, 2.49406 11.8761, 2.29123 12.3524, 2.20094 12.8791, 2.1113 13.4065, 2.06615 13.9521, 2.06615 14.5168, 2.06615 15.0828, 2.10606 15.6239, 2.18458 16.1401, 2.26375 16.657, 2.45088 17.1418, 2.74531 17.5946, 2.99002 17.9512, 3.30081 18.2378, 3.67834 18.4537, 4.05587 18.6703, 4.45303 18.7782, 4.86916 18.7776, 5.49467 18.7782, 6.0482 18.6055, 6.52977 18.26, 7.01133 17.9146, 7.37839 17.4729, 7.62964 16.9351 Z" stroke="none" fill="#E50500" />
			<path d="M 14.4924 16.8513 C 14.4204 17.1379, 14.3701 17.4068, 14.3413 17.6574, 14.3269 17.7837, 14.3197 17.8989, 14.3197 18.0029, 14.3197 18.0945, 14.3269 18.192, 14.3413 18.296, 14.3635 18.4642, 14.4139 18.5898, 14.4924 18.6736, 14.5716 18.7573, 14.69 18.7992, 14.8484 18.7985, 14.9995 18.7992, 15.1343 18.7364, 15.2527 18.6107, 15.3718 18.4851, 15.4883 18.2986, 15.6034 18.0507, 15.7186 17.8033, 15.8246 17.5063, 15.9214 17.1608, 16.0182 16.8154, 16.121 16.447, 16.2283 16.0557, 16.2714 15.8607, 16.3938 15.7632, 16.5953 15.7626 L 16.8433 15.7626 C 17.016 15.7632, 17.1017 15.8398, 17.1017 15.9929 L 17.1017 16.0662 C 17.0298 16.3881, 16.9369 16.746, 16.8217 17.1399, 16.7066 17.5344, 16.5633 17.9028, 16.3905 18.2443, 16.2178 18.5865, 15.9953 18.8797, 15.7218 19.1237, 15.4483 19.3678, 15.114 19.4895, 14.7188 19.4895, 14.3452 19.4895, 14.022 19.4181, 13.7485 19.2749, 13.4756 19.1322, 13.2564 18.934, 13.0909 18.6788, 12.926 18.4243, 12.8285 18.1325, 12.7997 17.804, 12.7854 17.7209, 12.7782 17.63, 12.7782 17.5318, 12.7782 17.295, 12.8069 17.0542, 12.8645 16.8095 L 15.6243 6.08946 C 15.6819 5.85981, 15.7218 5.68511, 15.7434 5.56603 L 15.7434 5.53462 C 15.7434 5.47246, 15.7258 5.42731, 15.6891 5.39853, 15.6028 5.34356, 15.4411 5.30496, 15.2043 5.28402, 14.9674 5.26309, 14.6939 5.25262, 14.3845 5.25196, 14.2772 5.25262, 14.198 5.21794, 14.1476 5.14728, 14.1044 5.10606, 14.0828 5.05371, 14.0828 4.99024, 14.0828 4.94902, 14.0939 4.91042, 14.1149 4.87509 L 14.1476 4.71806 C 14.1692 4.62122, 14.2196 4.54794, 14.2987 4.49887, 14.3779 4.45045, 14.4643 4.41512, 14.5572 4.39353 L 17.3713 4.16321, 17.4361 4.16321 C 17.6088 4.16387, 17.6952 4.24042, 17.6952 4.39353, 17.6952 4.43606, 17.688 4.4812, 17.6736 4.52962 Z" stroke="none" fill="#E50500" />
			<rect />
		</svg>
	</g>
	<path d="M 0.000129814 264.046 C -145.829 264.047, -264.046 145.829, -264.047 0.000214096, -264.047 -145.829, -145.829 -264.046, -0.000336173 -264.047" fill="none" stroke="#000000" stroke-width="7.19999981" stroke-linecap="round" stroke-linejoin="round" transform="matrix(0.277778 0 0 0.277778 123.569 104.797)" />
	<path d="M -99.1353 -87.1899 L 99.1381 87.1896" fill="none" stroke="#000000" stroke-width="3.84000015" stroke-linecap="round" stroke-linejoin="round" stroke-dasharray="13.4592, 9.5808" transform="matrix(0.277778 0 0 0.277778 96.0309 80.5772)" />
	<path d="M -85.0989 -100.938 L 85.0989 100.937" fill="none" stroke="#000000" stroke-width="3.84000015" stroke-linecap="round" stroke-linejoin="round" stroke-dasharray="13.4592, 9.5808" transform="matrix(0.277778 0 0 0.277778 99.9307 76.7586)" />
	<path d="M -13.3993 12.5536 L 13.4004 -12.5542" fill="none" stroke="#E50500" stroke-width="7.68000031" stroke-linecap="round" stroke-linejoin="round" transform="matrix(0.277778 0 0 0.277778 72.3928 52.008)" />
	<g transform="matrix(1 0 -0 1 9.50001 131.896)">
		<svg width="155.993988" height="137.999954">
			<defs />
			<polyline points="-7.504 0 7.504 0" fill="none" stroke="#000000" stroke-width="0.857599974" stroke-linecap="round" stroke-linejoin="round" transform="matrix(1 0 0 1 7.504 12.8085)" />
			<polyline points="0 -7.504 0 7.504" fill="none" stroke="#000000" stroke-width="0.857599974" stroke-linecap="round" stroke-linejoin="round" transform="matrix(1 0 0 1 7.504 12.8085)" />
			<path d="M 35.2357 11.8996 C 34.9766 12.9125, 34.5579 13.8893, 33.9795 14.8315, 33.4011 15.7737, 32.6729 16.6354, 31.7961 17.4167, 30.9625 18.1501, 30.0995 18.7122, 29.2077 19.1021, 29.2221 19.3534, 29.2476 19.6118, 29.2836 19.8768, 29.3196 20.1425, 29.3824 20.3708, 29.472 20.5625, 29.5623 20.7549, 29.686 20.9067, 29.8443 21.0179, 30.0027 21.1298, 30.2179 21.1854, 30.4908 21.1854, 30.7427 21.1854, 30.9854 21.1317, 31.219 21.0231, 31.4526 20.9152, 31.6737 20.7686, 31.8818 20.5834, 32.0905 20.3989, 32.2737 20.1771, 32.4321 19.9187, 32.5904 19.6609, 32.7016 19.3952, 32.7664 19.1231, 32.788 19.0328, 32.8364 18.9562, 32.9117 18.8934, 32.9876 18.8306, 33.0752 18.7992, 33.176 18.7985, 33.2768 18.7992, 33.3671 18.8378, 33.4456 18.9137, 33.4744 18.97, 33.4888 19.019, 33.4888 19.0602, 33.4888 19.1028, 33.4783 19.1414, 33.456 19.1754, 33.3487 19.6504, 33.1924 20.1333, 32.9876 20.6253, 32.7828 21.1174, 32.5328 21.5714, 32.2384 21.9863, 31.944 22.4017, 31.5952 22.742, 31.1922 23.007, 30.7898 23.2726, 30.3331 23.4048, 29.8227 23.4048, 29.2476 23.4048, 28.8308 23.2759, 28.5717 23.0174, 28.3133 22.7596, 28.1517 22.4207, 28.0862 22.002, 28.0574 21.8135, 28.0431 21.6113, 28.0431 21.3948, 28.0431 21.1717, 28.0574 20.9413, 28.0862 20.7038, 28.1438 20.2295, 28.1942 19.8107, 28.2374 19.4476, 27.6773 19.6295, 27.059 19.7198, 26.3831 19.7198, 25.4344 19.7198, 24.591 19.5111, 23.8542 19.0923, 23.1175 18.6736, 22.5299 18.1082, 22.0916 17.3957, 21.61 16.6079, 21.3332 15.7351, 21.2613 14.7785, 21.2325 14.5489, 21.2181 14.3186, 21.2181 14.0876, 21.2181 13.3692, 21.3116 12.6259, 21.4981 11.8577, 21.7716 10.8325, 22.1936 9.83662, 22.7655 8.86957, 23.3373 7.90317, 24.0682 7.02903, 24.9594 6.24649, 25.7504 5.54247, 26.6147 4.9752, 27.553 4.54598, 28.4912 4.11676, 29.438 3.90215, 30.3939 3.90149, 31.3427 3.90215, 32.1821 4.11872, 32.9117 4.55121, 33.6419 4.98436, 34.2255 5.55621, 34.6639 6.26743, 35.1454 7.05651, 35.4294 7.93589, 35.5158 8.90556, 35.5302 9.14372, 35.5374 9.37731, 35.5374 9.60696, 35.5374 10.3542, 35.4373 11.1184, 35.2357 11.8996 Z M 33.0792 6.70712 C 32.8423 6.12152, 32.4864 5.63146, 32.0114 5.23691, 31.537 4.84303, 30.9475 4.64543, 30.2428 4.64478, 29.546 4.64543, 28.8524 4.8463, 28.1621 5.24738, 27.4725 5.64912, 26.8575 6.14573, 26.3183 6.73853, 25.6287 7.50013, 25.0876 8.32389, 24.6957 9.20981, 24.3037 10.0964, 23.989 10.9928, 23.7515 11.8996, 23.5147 12.7934, 23.3746 13.6767, 23.3315 14.5482, 23.3171 14.6745, 23.3099 14.8001, 23.3099 14.9251, 23.3099 15.6514, 23.4394 16.3286, 23.6979 16.956, 23.8634 17.3473, 24.0721 17.6967, 24.3234 18.0036, 24.5753 18.3111, 24.8089 18.5093, 25.0241 18.5996, 25.0176 18.5865, 25.0137 18.4818, 25.0137 18.2856, 25.0137 18.1187, 25.0352 17.9479, 25.0778 17.7726, 25.1432 17.5292, 25.2472 17.2936, 25.3912 17.0666, 25.5351 16.8402, 25.702 16.6374, 25.8924 16.4594, 26.0828 16.2814, 26.3 16.1388, 26.5447 16.0302, 26.7894 15.9222, 27.0446 15.8679, 27.3102 15.8673, 27.6845 15.8679, 27.9881 15.9379, 28.2217 16.0773, 28.4553 16.2173, 28.6404 16.3953, 28.7765 16.6112, 28.9133 16.8278, 29.0068 17.0771, 29.0572 17.3597, 29.1076 17.6424, 29.1364 17.8747, 29.1429 18.0552, 29.3013 17.9512, 29.5008 17.7981, 29.7416 17.5953, 29.9824 17.3931, 30.2147 17.1693, 30.4371 16.9246, 31.1274 16.1787, 31.6665 15.3707, 32.0545 14.5018, 32.4432 13.6329, 32.752 12.7515, 32.9817 11.8577, 33.2192 10.9443, 33.3664 10.0401, 33.424 9.14634, 33.4384 9.01417, 33.4456 8.87481, 33.4456 8.72759, 33.4456 8.01637, 33.3239 7.3431, 33.0792 6.70712 Z M 28.3453 18.5263 C 28.3597 18.3667, 28.3669 18.192, 28.3669 18.0029 L 28.3669 17.7516 C 28.3525 17.5083, 28.3061 17.2989, 28.2269 17.1242, 28.1477 16.9501, 28.0273 16.8101, 27.8657 16.7054, 27.7041 16.6007, 27.4797 16.5484, 27.1918 16.5477, 26.883 16.5484, 26.5931 16.6727, 26.3236 16.92, 26.054 17.168, 25.8727 17.4664, 25.7792 17.8145, 25.7504 17.9335, 25.736 18.0487, 25.736 18.1599, 25.736 18.3071, 25.7615 18.4432, 25.8112 18.5682, 25.8976 18.7854, 26.0383 18.9215, 26.232 18.9765 L 26.512 18.9765 C 27.1519 18.9771, 27.763 18.8273, 28.3453 18.5263 Z" stroke="none" fill="#000000" />
			<rect />
		</svg>
	</g>
</svg>
