<?xml version="1.0"?>
<svg xmlns="http://www.w3.org/2000/svg" xmlns:xlink="http://www.w3.org/1999/xlink" width="110.471634" height="155.543304">
	<defs>
		<marker id="CustomMarker-01" markerUnits="strokeWidth" markerWidth="15.000001" markerHeight="9" viewBox="-15 -4.5 15 9" orient="auto-start-reverse">
			<path d="M 0 -0 L -10 -3, -8 -0.5, -8 0.5, -10 3 Z" fill="#000000" stroke="#000000" stroke-linejoin="round" />
		</marker>
		<marker id="CustomMarker-02" markerUnits="strokeWidth" markerWidth="15.000001" markerHeight="9" viewBox="-15 -4.5 15 9" orient="auto-start-reverse">
			<path d="M 0 -0 L -10 -3, -8 -0.5, -8 0.5, -10 3 Z" fill="#000000" stroke="#000000" stroke-linejoin="round" />
		</marker>
	</defs>
	<path d="M 189.478 123.876 L 284.218 -123.876, -189.478 -123.876, -284.218 123.876 Z" stroke="none" fill="#9F9F9F" fill-opacity="0.639215648" transform="matrix(1.57287e-008 0.208333 -0.208333 1.57287e-008 55.1152 64.712)" />
	<path d="M 189.478 123.876 L 284.218 -123.876, -189.478 -123.876, -284.218 123.876 Z" fill="none" stroke="#000000" stroke-width="4.80000019" stroke-linecap="round" stroke-linejoin="round" transform="matrix(1.57287e-008 0.208333 -0.208333 1.57287e-008 55.1152 64.712)" />
	<path d="M 189.478 123.876 L 284.217 -123.876, -189.478 -123.876, -284.217 123.876 Z" stroke="none" fill="#9F9F9F" fill-opacity="0.639215648" transform="matrix(1.57287e-008 0.208333 -0.208333 1.57287e-008 34.3076 71.712)" />
	<path d="M 189.478 123.876 L 284.217 -123.876, -189.478 -123.876, -284.217 123.876 Z" fill="none" stroke="#000000" stroke-width="4.80000019" stroke-linecap="round" stroke-linejoin="round" transform="matrix(1.57287e-008 0.208333 -0.208333 1.57287e-008 34.3076 71.712)" />
	<g transform="matrix(1 0 -0 1 39.486 38.1056)">
		<svg width="33.1395264" height="42.0638199">
			<defs />
			<path d="M 8.47208 6.8519 C 8.4397 6.99912, 8.35922 7.07223, 8.22967 7.07174, 8.21887 7.08254, 8.19188 7.08794, 8.1487 7.08745, 8.12171 7.08794, 8.10012 7.08254, 8.08392 7.07174 L 8.0113 7.07174 C 7.87095 7.07223, 7.80078 7.01973, 7.80078 6.91471 L 7.80078 6.85975 C 7.86555 6.47306, 7.89794 6.11434, 7.89794 5.78409 L 7.89794 5.48573 C 7.86555 5.08333, 7.77526 4.73639, 7.62706 4.44589, 7.47886 4.15538, 7.26196 3.93063, 6.97636 3.77065, 6.69076 3.61117, 6.3291 3.53118, 5.89235 3.53069, 5.63914 3.53118, 5.38151 3.58614, 5.11996 3.69606, 4.85889 3.80598, 4.615 3.95516, 4.38829 4.14311, 4.14048 4.34774, 3.9383 4.57936, 3.78176 4.83846, 3.62571 5.09757, 3.51235 5.36305, 3.44169 5.63491, 3.3882 5.82923, 3.35875 6.01473, 3.35287 6.19237, 3.35287 6.43871, 3.40684 6.67426, 3.5148 6.89901, 3.67134 7.27637, 3.95155 7.51732, 4.3559 7.62135 L 6.21574 8.13955 C 6.55532 8.23966, 6.84534 8.39817, 7.0853 8.61507, 7.32527 8.83246, 7.50585 9.0891, 7.62706 9.38452, 7.74876 9.68042, 7.81991 10.0033, 7.84151 10.3537 L 7.84151 10.495 C 7.84151 10.7993, 7.79832 11.1104, 7.71195 11.4294, 7.59909 11.8695, 7.4185 12.2935, 7.1702 12.7018, 6.92238 13.1101, 6.61519 13.4767, 6.24813 13.8005, 5.89775 14.0994, 5.51401 14.3389, 5.09591 14.5189, 4.67782 14.6995, 4.25874 14.7898, 3.83819 14.7898, 3.21841 14.7898, 2.6899 14.6907, 2.25316 14.4915, 1.81641 14.2932, 1.49303 14.042, 1.28251 13.7377 L 0.482138 14.6878 C 0.412456 14.756, 0.339338 14.7898, 0.263767 14.7898 L 0.215185 14.7898 C 0.0807272 14.7898, 0.00760955 14.7378, -0.0031864 14.6328, -0.0031864 14.6014, 0.00515592 14.5729, 0.020859 14.5464 L 0.959121 10.8719 C 0.991508 10.7257, 1.08622 10.6501, 1.24227 10.6442 L 1.41991 10.6442 C 1.48468 10.6447, 1.54406 10.6707, 1.59804 10.7227, 1.61963 10.7649, 1.63043 10.8017, 1.63043 10.8326, 1.63043 10.8542, 1.62503 10.8802, 1.61424 10.9112, 1.51707 11.2885, 1.46849 11.6394, 1.46849 11.9633, 1.46849 12.482, 1.59559 12.9216, 1.8488 13.2823, 2.25316 13.8638, 2.9598 14.1543, 3.96774 14.1539, 4.22095 14.1543, 4.47858 14.0955, 4.74014 13.9777, 5.00169 13.8599, 5.24558 13.7014, 5.47181 13.5022, 5.72011 13.2725, 5.92867 13.0173, 6.09846 12.7371, 6.26825 12.4574, 6.39387 12.1679, 6.47435 11.869, 6.52833 11.6286, 6.55532 11.4038, 6.55532 11.1938, 6.55532 10.9327, 6.52048 10.6815, 6.45031 10.4401, 6.28886 10.0377, 5.98952 9.77857, 5.55277 9.66276 L 3.71698 9.14456 C 3.3882 9.05622, 3.10505 8.91097, 2.86754 8.70928, 2.63052 8.50809, 2.44601 8.26861, 2.31401 7.99087, 2.182 7.71361, 2.10496 7.4074, 2.08337 7.07174 L 2.08337 6.89901 C 2.08337 6.63794, 2.11575 6.36314, 2.18053 6.07459, 2.29389 5.6565, 2.47447 5.25607, 2.72229 4.8738, 2.97059 4.49201, 3.27779 4.15391, 3.64386 3.86045, 3.98933 3.57829, 4.36817 3.35207, 4.78038 3.18178, 5.19308 3.01199, 5.60136 2.92661, 6.00571 2.92612, 6.56121 2.92661, 7.01905 3.03015, 7.38023 3.23674, 7.7414 3.44383, 8.00295 3.68821, 8.16489 3.97038 L 8.94121 3.03604 C 8.9844 2.96341, 9.05457 2.92661, 9.15124 2.92612 L 9.22436 2.92612 C 9.35391 2.92661, 9.4182 2.98942, 9.4182 3.11456 L 9.4182 3.17737 Z" stroke="none" fill="#000000" />
			<rect />
		</svg>
	</g>
	<path d="M -1.00098 -34.4351 L 1.00134 34.4349" fill="none" stroke="#000000" stroke-width="4.80000019" stroke-linecap="round" stroke-linejoin="round" transform="matrix(0.208333 0 0 0.208333 60.4189 139.335)" />
	<path d="M -1.00037 -34.4355 L 1.00061 34.4351" fill="none" stroke="#000000" stroke-width="4.80000019" stroke-linecap="round" stroke-linejoin="round" transform="matrix(0.208333 0 0 0.208333 80.9227 132.161)" />
	<path d="M -49.1719 18.501 L 49.1719 -18.501" fill="none" stroke="#000000" stroke-width="4.80000019" stroke-linecap="round" stroke-linejoin="round" marker-end="url(#CustomMarker-01)" transform="matrix(0.208333 0 0 0.208333 49.8872 143.189)" />
	<path d="M -49.1719 18.501 L 49.1719 -18.501" fill="none" stroke="#000000" stroke-width="4.80000019" stroke-linecap="round" stroke-linejoin="round" marker-start="url(#CustomMarker-02)" transform="matrix(0.208333 0 0 0.208333 91.7274 127.028)" />
	<g transform="matrix(1 0 -0 1 67.3733 127.152)">
		<svg width="27.1116219" height="39.1914787">
			<defs />
			<path d="M 5.26398 12.6464 C 5.16731 12.982, 5.11873 13.275, 5.11873 13.5257, 5.11873 13.5944, 5.12413 13.6597, 5.13492 13.722, 5.16191 13.9738, 5.28852 14.0994, 5.51474 14.0989, 5.6281 14.0994, 5.73459 14.0523, 5.8342 13.9581, 5.93431 13.8638, 6.02607 13.724, 6.1095 13.538, 6.19292 13.3525, 6.27242 13.1297, 6.34799 12.8706, 6.42356 12.6115, 6.50159 12.3303, 6.58206 12.0261, 6.61445 11.8906, 6.70622 11.8224, 6.85736 11.8219 L 7.04334 11.8219 C 7.18369 11.8224, 7.25337 11.8798, 7.25337 11.9947 L 7.25337 12.0496 C 7.18909 12.3068, 7.11646 12.5816, 7.03549 12.8745, 6.95452 13.168, 6.84656 13.4399, 6.71161 13.6911, 6.57716 13.9424, 6.40737 14.1597, 6.20224 14.3428, 5.99761 14.5258, 5.74146 14.6171, 5.43377 14.6171, 5.02451 14.6171, 4.69671 14.5037, 4.45135 14.276, 4.20598 14.0483, 4.06466 13.8167, 4.02687 13.5807, 3.84334 13.7907, 3.57001 14.016, 3.20589 14.2564, 2.84227 14.4969, 2.45803 14.6171, 2.05368 14.6171, 1.62773 14.6171, 1.27048 14.5101, 0.981937 14.2957, 0.693392 14.0812, 0.468641 13.8113, 0.306703 13.4865, 0.112867 13.0998, 0.0103062 12.6836, -0.000489712 12.2381 L -0.000489712 12.1203 C -0.000489712 11.7071, 0.0564342 11.2939, 0.1693 10.8798, 0.298851 10.4249, 0.479437 9.97486, 0.711058 9.52977, 0.94317 9.08518, 1.25036 8.6715, 1.63313 8.28873, 1.94621 7.97516, 2.30345 7.71115, 2.70486 7.49622, 3.10628 7.28177, 3.51456 7.1743, 3.92971 7.17381, 4.29088 7.1743, 4.58482 7.26999, 4.81105 7.46089, 5.03776 7.65227, 5.18056 7.81273, 5.23994 7.94327 L 6.11342 4.56709 C 6.15661 4.39485, 6.18311 4.26383, 6.1939 4.17452 L 6.1939 4.16666 C 6.1939 4.11465, 6.17525 4.07539, 6.13747 4.04889, 6.08938 4.00767, 5.97602 3.97872, 5.79789 3.96301, 5.62025 3.94731, 5.41513 3.93946, 5.18301 3.93897, 5.03236 3.93946, 4.95679 3.8688, 4.95679 3.72698 L 4.95679 3.66416, 5.00537 3.53069 C 5.03776 3.41095, 5.13492 3.33244, 5.29637 3.29514 L 6.83282 3.16952, 7.42316 3.12241, 7.45555 3.12241 C 7.52032 3.1229, 7.57725 3.14645, 7.62534 3.19307, 7.64202 3.24067, 7.64988 3.28533, 7.64988 3.32655 L 7.64988 3.38151 Z M 4.9406 9.16026 C 4.919 9.06653, 4.90036 8.96839, 4.88416 8.86632, 4.86797 8.76425, 4.84343 8.66365, 4.81105 8.56354, 4.72517 8.31818, 4.60249 8.11257, 4.44349 7.94768, 4.2845 7.7828, 4.0833 7.70036, 3.84089 7.69987, 3.61466 7.70036, 3.39089 7.78182, 3.16958 7.94376, 2.94875 8.10619, 2.74658 8.31523, 2.56305 8.57139, 2.30443 8.93305, 2.1106 9.30895, 1.98105 9.69858, 1.8515 10.0887, 1.73274 10.4955, 1.62478 10.919, 1.51732 11.3381, 1.42849 11.7439, 1.35783 12.136, 1.31514 12.3352, 1.29355 12.5237, 1.29355 12.7013, 1.29355 12.8902, 1.31514 13.0733, 1.35783 13.2509, 1.4069 13.4973, 1.49425 13.7004, 1.62086 13.8599, 1.74746 14.0199, 1.92412 14.0994, 2.15035 14.0989, 2.39865 14.0994, 2.64794 14.013, 2.8987 13.8403, 3.14946 13.6675, 3.38255 13.4556, 3.59798 13.2038, 3.68435 13.0998, 3.76679 12.9992, 3.84481 12.902, 3.92333 12.8053, 3.99203 12.7018, 4.05092 12.5914 L 4.9406 9.16026 Z" stroke="none" fill="#000000" />
			<rect />
		</svg>
	</g>
</svg>
