<?xml version="1.0"?>
<svg xmlns="http://www.w3.org/2000/svg" xmlns:xlink="http://www.w3.org/1999/xlink" width="270.130676" height="275.664948">
	<defs>
		<marker id="CustomMarker-01" markerUnits="strokeWidth" markerWidth="15.000001" markerHeight="9" viewBox="-15 -4.5 15 9" orient="auto-start-reverse">
			<path d="M 0 -0 L -10 -3, -8 -0.5, -8 0.5, -10 3 Z" fill="#000000" stroke="#000000" stroke-linejoin="round" />
		</marker>
		<marker id="CustomMarker-02" markerUnits="strokeWidth" markerWidth="15.000001" markerHeight="9" viewBox="-15 -4.5 15 9" orient="auto-start-reverse">
			<path d="M 0 -0 L -10 -3, -8 -0.5, -8 0.5, -10 3 Z" fill="#000000" stroke="#000000" stroke-linejoin="round" />
		</marker>
	</defs>
	<g transform="matrix(1 0 -0 1 172.882 136.264)">
		<svg width="65.862442" height="59.8723221">
			<defs />
			<path d="M 14.8084 17.134 C 14.7292 17.4487, 14.6108 17.7575, 14.4524 18.0611, 14.2941 18.3647, 14.1004 18.6389, 13.8701 18.8829, 13.6405 19.1276, 13.3833 19.3272, 13.0994 19.4842, 12.8154 19.6413, 12.5085 19.7198, 12.1774 19.7198, 11.1358 19.7198, 10.352 19.4443, 9.82721 18.8927, 9.46866 18.5165, 9.28873 18.0422, 9.28873 17.469, 9.28873 17.1765, 9.33583 16.8592, 9.42875 16.5163 L 9.91358 14.6424 C 9.97116 14.4056, 9.99995 14.1825, 9.99995 13.9724, 9.99995 13.8684, 9.99275 13.7604, 9.97835 13.6479, 9.93517 13.3554, 9.83506 13.0976, 9.67672 12.8739, 9.51838 12.6508, 9.31555 12.4747, 9.06757 12.3452, 8.81959 12.2163, 8.52647 12.1515, 8.18885 12.1509 L 5.75225 12.1509, 4.31869 17.7307 C 4.2899 17.8642, 4.2755 17.9721, 4.2755 18.0552, 4.2755 18.1606, 4.2971 18.2306, 4.34028 18.2646, 4.43384 18.3209, 4.62817 18.3543, 4.9226 18.3647, 5.21704 18.3752, 5.53306 18.3804, 5.87068 18.3798, 6.0722 18.3804, 6.17296 18.4642, 6.17296 18.631, 6.17296 18.6736, 6.16577 18.7187, 6.15137 18.7671 L 6.10819 18.9346 C 6.02967 19.144, 5.889 19.2487, 5.68748 19.2487, 4.80418 19.2068, 3.91302 19.1859, 3.01402 19.1859, 2.11632 19.1859, 1.21405 19.2068, 0.308502 19.2487, 0.11483 19.2487, 0.0107969 19.1584, -0.00425196 18.9765 L -0.00425196 18.8927, 0.0389316 18.7148 C 0.0965098 18.4851, 0.236529 18.3732, 0.45899 18.3798, 0.797262 18.3804, 1.11721 18.3752, 1.41884 18.3647, 1.72113 18.3543, 1.94359 18.3176, 2.08688 18.2542, 2.22363 18.1783, 2.32766 17.9898, 2.39963 17.6888 L 5.42903 5.89056 C 5.47221 5.73745, 5.4938 5.61902, 5.4938 5.53462, 5.4938 5.45152, 5.47614 5.40245, 5.4395 5.38806, 5.33939 5.3259, 5.14376 5.28795, 4.85259 5.27355, 4.56143 5.25982, 4.24344 5.25262, 3.89797 5.25196, 3.69711 5.25262, 3.59634 5.1584, 3.59634 4.96931 L 3.59634 4.88556, 3.66112 4.70759 C 3.7043 4.49887, 3.83712 4.39418, 4.05959 4.39353 L 10.1295 4.39353 C 10.8126 4.39418, 11.463 4.48513, 12.0806 4.66637, 12.6989 4.84826, 13.2381 5.14793, 13.6974 5.56603, 14.0788 5.90168, 14.3556 6.31323, 14.5277 6.80134, 14.6356 7.06698, 14.6932 7.3431, 14.7004 7.62837, 14.7004 7.88747, 14.6612 8.14199, 14.582 8.39259, 14.4452 8.95136, 14.1613 9.45778, 13.7301 9.91121, 13.2989 10.3653, 12.8141 10.752, 12.2749 11.0726, 11.9013 11.2898, 11.5225 11.4697, 11.1378 11.6124, 10.753 11.7557, 10.4782 11.8447, 10.3127 11.8787, 10.7223 12.0396, 11.1103 12.3537, 11.4767 12.8209, 11.7862 13.2265, 11.9406 13.7114, 11.9406 14.276, 11.9406 14.3951, 11.9334 14.5142, 11.919 14.632 L 11.7142 16.5163 C 11.6566 17.0058, 11.6278 17.431, 11.6278 17.7935, 11.6278 18.0317, 11.6422 18.2411, 11.671 18.4216, 11.7214 18.8339, 11.9367 19.04, 12.3175 19.0393, 12.6629 19.04, 12.979 18.8535, 13.2662 18.4799, 13.5541 18.1069, 13.7661 17.6443, 13.9022 17.0921, 13.982 16.8834, 14.122 16.782, 14.3229 16.7885 L 14.4956 16.7885 C 14.6899 16.7892, 14.794 16.8801, 14.8084 17.0607 L 14.8084 17.134 Z M 12.2749 8.32978 C 12.3901 7.91168, 12.4542 7.49293, 12.4686 7.07353 L 12.4686 7.01071 C 12.4686 6.65543, 12.3574 6.34857, 12.1343 6.08946, 11.8686 5.78325, 11.5225 5.56668, 11.0946 5.44106, 10.6667 5.31543, 10.1975 5.25262, 9.68719 5.25196 L 8.25363 5.25196 C 7.88722 5.25262, 7.66803 5.28075, 7.59606 5.33637, 7.52409 5.39264, 7.44884 5.59089, 7.36967 5.93243 L 5.94658 11.4704, 8.02724 11.4704 C 8.53759 11.4711, 9.04075 11.4082, 9.5367 11.2826, 10.0327 11.157, 10.5031 10.9339, 10.9487 10.612, 11.3295 10.3404, 11.6174 9.99889, 11.811 9.58668, 12.0054 9.17513, 12.1598 8.75638, 12.2749 8.32978 Z" stroke="none" fill="#000000" />
			<path d="M 2.71162 3.65386 C 1.97111 3.63041, 1.25076 3.61869, 0.550191 3.61869, -0.150011 3.61869, -0.870366 3.63041, -1.61087 3.65386 L -1.61087 3.14969, -1.19427 3.14969 C -1.06163 3.15005, -0.936685 3.14822, -0.820168 3.14419, -0.703285 3.14053, -0.59263 3.13063, -0.487838 3.11488, -0.383045 3.09949, -0.292543 3.08373, -0.216331 3.06761, -0.151843 3.05625, -0.0987144 3.02035, -0.0565774 2.95952, -0.0140743 2.89907, 0.00681067 2.83165, 0.00681067 2.7569 L 0.00681067 -3.85014 C -0.19398 -3.75194, -0.44167 -3.67756, -0.735528 -3.627, -1.02939 -3.57607, -1.35109 -3.55078, -1.70138 -3.55115 L -1.70138 -4.04946 C -1.21845 -4.0491, -0.772535 -4.10662, -0.363992 -4.22204, 0.0445507 -4.33709, 0.397766 -4.55327, 0.695288 -4.87021 L 0.882522 -4.87021 C 1.01516 -4.86985, 1.08148 -4.80536, 1.08148 -4.67675 L 1.08148 2.7569 C 1.08148 2.83531, 1.10163 2.90383, 1.14194 2.96245, 1.18224 3.02108, 1.24087 3.05625, 1.31708 3.06761, 1.38157 3.08373, 1.46437 3.09949, 1.56477 3.11488, 1.66517 3.13063, 1.77875 3.14053, 1.90553 3.14419, 2.0323 3.14822, 2.15615 3.15005, 2.27706 3.14969 L 2.71162 3.14969, 2.71162 3.65386 Z" stroke="none" fill="#000000" transform="matrix(1.12 0 0 1 17.6275 18.6358)" />
			<rect />
		</svg>
	</g>
	<path d="M 226.569 -0 C 226.569 125.13, 125.13 226.569, -0 226.569, -125.13 226.569, -226.569 125.13, -226.569 -0, -226.569 -125.13, -125.13 -226.569, -0 -226.569, 125.13 -226.569, 226.569 -125.13, 226.569 -0 Z" fill="none" stroke="#000000" stroke-width="4.15999985" stroke-linecap="round" stroke-linejoin="round" transform="matrix(0.384615 0 0 0.384615 135.065 135.065)" />
	<g transform="matrix(1 0 -0 1 163.871 73.3016)">
		<svg width="69.0199203" height="59.8723221">
			<defs />
			<path d="M 14.8175 17.134 C 14.739 17.4487, 14.6206 17.7575, 14.4623 18.0611, 14.3039 18.3647, 14.1102 18.6389, 13.8799 18.8829, 13.6496 19.1276, 13.3925 19.3272, 13.1085 19.4842, 12.8245 19.6413, 12.5177 19.7198, 12.1866 19.7198, 11.1443 19.7198, 10.3605 19.4443, 9.83572 18.8927, 9.47651 18.5165, 9.29658 18.0422, 9.29658 17.469, 9.29658 17.1765, 9.34369 16.8592, 9.43725 16.5163 L 9.92209 14.6424 C 9.97966 14.4056, 10.0085 14.1825, 10.0085 13.9724, 10.0085 13.8684, 10.0013 13.7604, 9.98686 13.6479, 9.94368 13.3554, 9.84357 13.0976, 9.68523 12.8739, 9.52689 12.6508, 9.32406 12.4747, 9.07608 12.3452, 8.8281 12.2163, 8.53498 12.1515, 8.1967 12.1509 L 5.7601 12.1509, 4.32588 17.7307 C 4.2971 17.8642, 4.2827 17.9721, 4.2827 18.0552, 4.2827 18.1606, 4.30429 18.2306, 4.34748 18.2646, 4.44104 18.3209, 4.63537 18.3543, 4.9298 18.3647, 5.22489 18.3752, 5.54091 18.3804, 5.87853 18.3798, 6.08005 18.3804, 6.18082 18.4642, 6.18082 18.631, 6.18082 18.6736, 6.17362 18.7187, 6.15922 18.7671 L 6.11604 18.9346 C 6.03753 19.144, 5.89685 19.2487, 5.69533 19.2487, 4.81137 19.2068, 3.92022 19.1859, 3.02122 19.1859, 2.12287 19.1859, 1.22059 19.2068, 0.315045 19.2487, 0.121374 19.2487, 0.0173403 19.1584, 0.00229147 18.9765 L 0.00229147 18.8927, 0.0454751 18.7148 C 0.103053 18.4851, 0.243073 18.3732, 0.465534 18.3798, 0.803805 18.3804, 1.12376 18.3752, 1.42539 18.3647, 1.72767 18.3543, 1.95013 18.3176, 2.09408 18.2542, 2.23083 18.1783, 2.33486 17.9898, 2.40683 17.6888 L 5.43688 5.89056 C 5.48006 5.73745, 5.501 5.61902, 5.501 5.53462, 5.501 5.45152, 5.48334 5.40245, 5.44735 5.38806, 5.34659 5.3259, 5.15095 5.28795, 4.85979 5.27355, 4.56863 5.25982, 4.25064 5.25262, 3.90517 5.25196, 3.7043 5.25262, 3.60354 5.1584, 3.60354 4.96931 L 3.60354 4.88556, 3.66832 4.70759 C 3.7115 4.49887, 3.84498 4.39418, 4.06744 4.39353 L 10.138 4.39353 C 10.8211 4.39418, 11.4715 4.48513, 12.0898 4.66637, 12.7081 4.84826, 13.2472 5.14793, 13.7072 5.56603, 14.088 5.90168, 14.3648 6.31323, 14.5375 6.80134, 14.6455 7.06698, 14.703 7.3431, 14.7096 7.62837, 14.7096 7.88747, 14.6703 8.14199, 14.5911 8.39259, 14.4551 8.95136, 14.1711 9.45778, 13.7393 9.91121, 13.3081 10.3653, 12.8226 10.752, 12.2834 11.0726, 11.9098 11.2898, 11.531 11.4697, 11.1463 11.6124, 10.7615 11.7557, 10.4867 11.8447, 10.3212 11.8787, 10.7308 12.0396, 11.1194 12.3537, 11.4859 12.8209, 11.7953 13.2265, 11.9498 13.7114, 11.9498 14.276, 11.9498 14.3951, 11.9426 14.5142, 11.9282 14.632 L 11.7227 16.5163 C 11.6658 17.0058, 11.637 17.431, 11.637 17.7935, 11.637 18.0317, 11.6514 18.2411, 11.6802 18.4216, 11.7306 18.8339, 11.9458 19.04, 12.3266 19.0393, 12.6721 19.04, 12.9881 18.8535, 13.276 18.4799, 13.5639 18.1069, 13.7759 17.6443, 13.912 17.0921, 13.9912 16.8834, 14.1312 16.782, 14.3327 16.7885 L 14.5048 16.7885 C 14.6991 16.7892, 14.8031 16.8801, 14.8175 17.0607 L 14.8175 17.134 Z M 12.2834 8.32978 C 12.3986 7.91168, 12.4634 7.49293, 12.4778 7.07353 L 12.4778 7.01071 C 12.4778 6.65543, 12.3665 6.34857, 12.1434 6.08946, 11.8778 5.78325, 11.531 5.56668, 11.1031 5.44106, 10.6752 5.31543, 10.2061 5.25262, 9.6957 5.25196 L 8.26148 5.25196 C 7.89507 5.25262, 7.67589 5.28075, 7.60391 5.33637, 7.53194 5.39264, 7.4567 5.59089, 7.37753 5.93243 L 5.95443 11.4704, 8.03509 11.4704 C 8.54545 11.4711, 9.04925 11.4082, 9.54521 11.2826, 10.0412 11.157, 10.5123 10.9339, 10.9572 10.612, 11.3386 10.3404, 11.6265 9.99889, 11.8202 9.58668, 12.0145 9.17513, 12.1689 8.75638, 12.2834 8.32978 Z" stroke="none" fill="#000000" />
			<path d="M 2.733 3.65386 L -2.18124 3.65386, -2.18124 3.33143 C -2.18124 3.30834, -2.16914 3.27317, -2.14496 3.2259 L -0.170765 1.08022 C 0.0630023 0.822642, 0.299335 0.558829, 0.538964 0.289154, 0.778594 0.019479, 0.992575 -0.256058, 1.18164 -0.537458, 1.37071 -0.818859, 1.52167 -1.10905, 1.63452 -1.40804, 1.74737 -1.70703, 1.80343 -2.02067, 1.80343 -2.34934, 1.80343 -2.62634, 1.76752 -2.88539, 1.69498 -3.12575, 1.62243 -3.36612, 1.518 -3.57717, 1.38097 -3.7589, 1.24393 -3.94064, 1.07282 -4.0872, 0.86763 -4.19859, 0.662443 -4.30998, 0.425012 -4.36567, 0.155337 -4.36604, -0.246977 -4.36567, -0.602391 -4.24549, -0.910173 -4.00513, -1.21795 -3.76476, -1.42241 -3.49985, -1.52317 -3.21112, -1.54296 -3.20306, -1.51071 -3.19903, -1.42644 -3.1994 L -1.32385 -3.1994 C -1.20293 -3.17155, -1.09851 -3.12942, -1.00984 -3.07299, -0.921165 -3.0162, -0.846784 -2.93815, -0.786327 -2.83849, -0.72587 -2.73883, -0.695825 -2.61865, -0.695825 -2.47831, -0.695825 -2.24345, -0.772037 -2.06354, -0.925195 -1.9386, -1.07835 -1.81329, -1.24946 -1.751, -1.43853 -1.75136, -1.61954 -1.751, -1.78845 -1.81329, -1.94564 -1.9386, -2.10246 -2.06354, -2.18124 -2.24345, -2.18124 -2.47831, -2.18124 -2.80625, -2.11675 -3.11696, -1.98777 -3.41008, -1.8588 -3.70321, -1.68402 -3.95713, -1.46271 -4.17221, -1.2414 -4.38692, -0.97979 -4.55694, -0.677871 -4.68225, -0.375952 -4.80719, -0.0557132 -4.86985, 0.282113 -4.87021, 0.700549 -4.86985, 1.08418 -4.80829, 1.43226 -4.68518, 1.78035 -4.56207, 2.07714 -4.38509, 2.32263 -4.15462, 2.56812 -3.92379, 2.76048 -3.65704, 2.89935 -3.35439, 3.03822 -3.05137, 3.10747 -2.71648, 3.10747 -2.34934, 3.10747 -1.94263, 3.01514 -1.56816, 2.82974 -1.2263, 2.6447 -0.884079, 2.41533 -0.570435, 2.14163 -0.285371, 1.86792 5.93662e-005, 1.57699 0.268635, 1.26921 0.520723, 0.961431 0.77281, 0.682595 1.01794, 0.433073 1.2561 L -0.955607 2.56344, 0.861768 2.56344 C 1.11532 2.5638, 1.35202 2.56197, 1.57113 2.55794, 1.79061 2.55428, 1.97674 2.54622, 2.12953 2.53449, 2.28269 2.52277, 2.3611 2.51507, 2.36477 2.51068, 2.39701 2.48356, 2.42742 2.42897, 2.45564 2.34689, 2.48385 2.26482, 2.50986 2.16809, 2.53405 2.0567, 2.55823 1.94531, 2.58241 1.83209, 2.60659 1.71667, 2.63078 1.60162, 2.65276 1.47521, 2.67291 1.33818 L 3.11956 1.33818 Z" stroke="none" fill="#000000" transform="matrix(1.12 0 0 1 18.1134 18.6358)" />
			<rect />
		</svg>
	</g>
	<path d="M -85.8535 -73.909 L 85.8536 73.9089" fill="none" stroke="#000000" stroke-width="3.4666667" stroke-linecap="round" stroke-linejoin="round" marker-end="url(#CustomMarker-01)" transform="matrix(0.384615 0 0 0.384615 168.086 163.492)" />
	<path d="M 335.075 -0 C 335.075 185.057, 185.057 335.075, -0 335.075, -185.057 335.075, -335.075 185.057, -335.075 -0, -335.075 -185.057, -185.057 -335.075, -0 -335.075, 185.057 -335.075, 335.075 -185.057, 335.075 -0 Z" fill="none" stroke="#000000" stroke-width="4.15999985" stroke-linecap="round" stroke-linejoin="round" transform="matrix(0.384615 0 0 0.384615 135.065 135.065)" />
	<path d="M -142.145 88.6776 L 142.144 -88.6776" fill="none" stroke="#000000" stroke-width="3.4666667" stroke-linecap="round" stroke-linejoin="round" marker-end="url(#CustomMarker-02)" transform="matrix(0.384615 0 0 0.384615 189.736 100.958)" />
	<g transform="matrix(1 0 -0 1 77.3165 67.3016)">
		<svg width="48.065773" height="48.0957298">
			<defs />
			<path d="M 5.7143 21.9077 C 5.67112 22.0752, 5.64953 22.2048, 5.64953 22.2951, 5.64953 22.3651, 5.66392 22.4102, 5.69271 22.4312, 5.76468 22.4875, 5.92302 22.5221, 6.16708 22.5359, 6.41178 22.5503, 6.68855 22.5568, 6.99738 22.5568, 7.09814 22.5568, 7.18778 22.5921, 7.26695 22.6615, 7.29574 22.7178, 7.31013 22.7662, 7.31013 22.8081, 7.31013 22.8499, 7.29966 22.8885, 7.27742 22.9232 L 7.24536 23.0907 C 7.22377 23.1889, 7.17142 23.2654, 7.08898 23.321, 7.00654 23.3773, 6.91821 23.4048, 6.82464 23.4048, 6.07744 23.3629, 5.31976 23.342, 4.55031 23.342, 3.78871 23.342, 3.01598 23.3629, 2.23213 23.4048, 2.12483 23.4048, 2.04566 23.3701, 1.99528 23.3001, 1.9521 23.2582, 1.9305 23.2098, 1.9305 23.1535, 1.9305 23.1117, 1.94163 23.0737, 1.96256 23.0384 L 1.99528 22.8709 C 2.03846 22.655, 2.17456 22.5503, 2.40487 22.5568, 2.6993 22.5568, 2.97411 22.5503, 3.22928 22.5359, 3.48446 22.5221, 3.67682 22.4835, 3.80637 22.4207, 3.91433 22.3788, 4.0079 22.1943, 4.08641 21.8659 L 4.94878 18.4949 C 4.78389 18.6559, 4.49469 18.862, 4.08118 19.1132, 3.66766 19.3645, 3.22012 19.4895, 2.73856 19.4895, 2.17129 19.4895, 1.69561 19.3468, 1.31088 19.0609, 0.926158 18.775, 0.62649 18.4151, 0.410572 17.982, 0.151471 17.4664, 0.0147227 16.9115, 0.000328064 16.3174 L 0.000328064 16.1604 C 0.000328064 15.6095, 0.0762266 15.0586, 0.226715 14.5063, 0.399449 13.8998, 0.640885 13.2998, 0.949713 12.7064, 1.25854 12.1136, 1.66813 11.562, 2.17848 11.0517, 2.59527 10.6336, 3.0716 10.2815, 3.60681 9.99496, 4.14203 9.70903, 4.6864 9.56574, 5.23994 9.56509, 5.75749 9.56574, 6.17231 9.71231, 6.48506 10.0054, 6.79782 10.2986, 7.0085 10.574, 7.11581 10.8318, 7.20937 10.6996, 7.35855 10.5223, 7.56334 10.2986, 7.76814 10.0754, 7.99256 9.86607, 8.23727 9.66978, 8.33803 9.58668, 8.43487 9.54481, 8.52778 9.54415, 8.63639 9.54481, 8.71164 9.60042, 8.75417 9.71165, 8.77641 9.75418, 8.78688 9.79605, 8.78688 9.83728 L 8.78688 9.91056 Z M 6.58779 12.2137 C 6.559 12.0887, 6.53414 11.9579, 6.51254 11.8218, 6.49095 11.6857, 6.45824 11.5515, 6.41505 11.4181, 6.2999 11.0909, 6.13632 10.8168, 5.92433 10.5969, 5.71234 10.3771, 5.44473 10.2671, 5.12151 10.2665, 4.81988 10.2671, 4.52152 10.3758, 4.22709 10.5917, 3.93265 10.8083, 3.66243 11.087, 3.41772 11.4285, 3.07356 11.9107, 2.81511 12.4119, 2.64238 12.9314, 2.46964 13.4516, 2.3113 13.994, 2.16736 14.5587, 2.02407 15.1175, 1.90564 15.6586, 1.81142 16.1813, 1.7545 16.447, 1.72571 16.6982, 1.72571 16.9351, 1.72571 17.187, 1.7545 17.431, 1.81142 17.6679, 1.87685 17.9964, 1.99332 18.2672, 2.16212 18.4799, 2.33093 18.6932, 2.56648 18.7992, 2.86811 18.7985, 3.19919 18.7992, 3.53157 18.684, 3.86526 18.4537, 4.1996 18.2234, 4.5104 17.9407, 4.79763 17.6051, 4.91279 17.4664, 5.02271 17.3322, 5.12674 17.2027, 5.23143 17.0738, 5.32303 16.9357, 5.40155 16.7885 L 6.58779 12.2137 Z" stroke="none" fill="#000000" />
			<path d="M 2.71674 3.65386 C 1.97623 3.63041, 1.25551 3.61869, 0.554939 3.61869, -0.145264 3.61869, -0.865985 3.63041, -1.60686 3.65386 L -1.60686 3.14969, -1.18989 3.14969 C -1.05725 3.15005, -0.932304 3.14822, -0.815787 3.14419, -0.698903 3.14053, -0.588249 3.13063, -0.483457 3.11488, -0.378664 3.09949, -0.288162 3.08373, -0.21195 3.06761, -0.147462 3.05625, -0.0939667 3.02035, -0.0518301 2.95952, -0.00932693 2.89907, 0.0115583 2.83165, 0.0115583 2.7569 L 0.0115583 -3.85014 C -0.189599 -3.75194, -0.437289 -3.67756, -0.731147 -3.627, -1.025 -3.57607, -1.34708 -3.55078, -1.69736 -3.55115 L -1.69736 -4.04946 C -1.21407 -4.0491, -0.768154 -4.10662, -0.359611 -4.22204, 0.0489318 -4.33709, 0.402147 -4.55327, 0.700036 -4.87021 L 0.887269 -4.87021 C 1.01991 -4.86985, 1.08623 -4.80536, 1.08623 -4.67675 L 1.08623 2.7569 C 1.08623 2.83531, 1.10638 2.90383, 1.14668 2.96245, 1.18699 3.02108, 1.24561 3.05625, 1.32183 3.06761, 1.38631 3.08373, 1.46912 3.09949, 1.56952 3.11488, 1.67028 3.13063, 1.78387 3.14053, 1.91064 3.14419, 2.03742 3.14822, 2.16126 3.15005, 2.28181 3.14969 L 2.71674 3.14969, 2.71674 3.65386 Z" stroke="none" fill="#000000" transform="matrix(1.12 0 0 1 11.6014 18.6358)" />
			<rect />
		</svg>
	</g>
	<g transform="matrix(1 0 -0 1 49.4608 35.5412)">
		<svg width="50.936203" height="48.0957298">
			<defs />
			<path d="M 5.71299 21.9077 C 5.66981 22.0752, 5.64822 22.2048, 5.64822 22.2951, 5.64822 22.3651, 5.66261 22.4102, 5.6914 22.4312, 5.76337 22.4875, 5.92171 22.5221, 6.16642 22.5359, 6.41113 22.5503, 6.68724 22.5568, 6.99607 22.5568, 7.09683 22.5568, 7.18713 22.5921, 7.26564 22.6615, 7.29443 22.7178, 7.30882 22.7662, 7.30882 22.8081, 7.30882 22.8499, 7.29836 22.8885, 7.27676 22.9232 L 7.24405 23.0907 C 7.22311 23.1889, 7.17077 23.2654, 7.08833 23.321, 7.00588 23.3773, 6.91755 23.4048, 6.82399 23.4048, 6.07678 23.3629, 5.3178 23.342, 4.54835 23.342, 3.78674 23.342, 3.01402 23.3629, 2.23017 23.4048, 2.12287 23.4048, 2.0437 23.3701, 1.99332 23.3001, 1.95013 23.2582, 1.92854 23.2098, 1.92854 23.1535, 1.92854 23.1117, 1.93966 23.0737, 1.9606 23.0384 L 1.99332 22.8709 C 2.0365 22.655, 2.17259 22.5503, 2.40291 22.5568, 2.69734 22.5568, 2.9728 22.5503, 3.22797 22.5359, 3.48315 22.5221, 3.67551 22.4835, 3.80441 22.4207, 3.91237 22.3788, 4.00593 22.1943, 4.0851 21.8659 L 4.94747 18.4949 C 4.78258 18.6559, 4.49338 18.862, 4.07987 19.1132, 3.66635 19.3645, 3.21881 19.4895, 2.73725 19.4895, 2.16932 19.4895, 1.69299 19.3468, 1.30827 19.0609, 0.923541 18.775, 0.623873 18.4151, 0.407955 17.982, 0.149508 17.4664, 0.01276 16.9115, -0.00163448 16.3174 L -0.00163448 16.1604 C -0.00163448 15.6095, 0.0742639 15.0586, 0.224752 14.5063, 0.397487 13.8998, 0.638268 13.2998, 0.947096 12.7064, 1.25658 12.1136, 1.66617 11.562, 2.17652 11.0517, 2.59396 10.6336, 3.07029 10.2815, 3.6055 9.99496, 4.14072 9.70903, 4.68509 9.56574, 5.23863 9.56509, 5.75683 9.56574, 6.17166 9.71231, 6.48441 10.0054, 6.79716 10.2986, 7.00719 10.574, 7.11515 10.8318, 7.20872 10.6996, 7.3579 10.5223, 7.56269 10.2986, 7.76749 10.0754, 7.99191 9.86607, 8.23596 9.66978, 8.33672 9.58668, 8.43421 9.54481, 8.52712 9.54415, 8.63574 9.54481, 8.71098 9.60042, 8.75351 9.71165, 8.77576 9.75418, 8.78623 9.79605, 8.78623 9.83728 L 8.78623 9.91056 Z M 6.58648 12.2137 C 6.55769 12.0887, 6.53283 11.9579, 6.51124 11.8218, 6.48964 11.6857, 6.45693 11.5515, 6.41375 11.4181, 6.29924 11.0909, 6.13567 10.8168, 5.92368 10.5969, 5.71169 10.3771, 5.44342 10.2671, 5.1202 10.2665, 4.81857 10.2671, 4.52021 10.3758, 4.22512 10.5917, 3.93069 10.8083, 3.66112 11.087, 3.41641 11.4285, 3.0716 11.9107, 2.81315 12.4119, 2.64042 12.9314, 2.46768 13.4516, 2.30934 13.994, 2.1654 14.5587, 2.02211 15.1175, 1.90368 15.6586, 1.80946 16.1813, 1.75254 16.447, 1.72375 16.6982, 1.72375 16.9351, 1.72375 17.187, 1.75254 17.431, 1.80946 17.6679, 1.87489 17.9964, 1.99135 18.2672, 2.16016 18.4799, 2.32897 18.6932, 2.56452 18.7992, 2.86615 18.7985, 3.19722 18.7992, 3.52961 18.684, 3.86395 18.4537, 4.1983 18.2234, 4.50909 17.9407, 4.79632 17.6051, 4.91148 17.4664, 5.0214 17.3322, 5.12544 17.2027, 5.23012 17.0738, 5.32172 16.9357, 5.40024 16.7885 L 6.58648 12.2137 Z" stroke="none" fill="#000000" />
			<path d="M 2.733 3.65386 L -2.18124 3.65386, -2.18124 3.33143 C -2.18124 3.30834, -2.16914 3.27317, -2.14496 3.2259 L -0.170765 1.08022 C 0.0630023 0.822642, 0.299335 0.558829, 0.538964 0.289154, 0.778594 0.019479, 0.992575 -0.256058, 1.18164 -0.537458, 1.37071 -0.818859, 1.52167 -1.10905, 1.63452 -1.40804, 1.74737 -1.70703, 1.80343 -2.02067, 1.80343 -2.34934, 1.80343 -2.62634, 1.76752 -2.88539, 1.69498 -3.12575, 1.62243 -3.36612, 1.518 -3.57717, 1.38097 -3.7589, 1.24393 -3.94064, 1.07282 -4.0872, 0.86763 -4.19859, 0.662443 -4.30998, 0.425012 -4.36567, 0.155337 -4.36604, -0.246977 -4.36567, -0.602391 -4.24549, -0.910173 -4.00513, -1.21795 -3.76476, -1.42241 -3.49985, -1.52317 -3.21112, -1.54296 -3.20306, -1.51071 -3.19903, -1.42644 -3.1994 L -1.32385 -3.1994 C -1.20293 -3.17155, -1.09851 -3.12942, -1.00984 -3.07299, -0.921165 -3.0162, -0.846784 -2.93815, -0.786327 -2.83849, -0.72587 -2.73883, -0.695825 -2.61865, -0.695825 -2.47831, -0.695825 -2.24345, -0.772037 -2.06354, -0.925195 -1.9386, -1.07835 -1.81329, -1.24946 -1.751, -1.43853 -1.75136, -1.61954 -1.751, -1.78845 -1.81329, -1.94564 -1.9386, -2.10246 -2.06354, -2.18124 -2.24345, -2.18124 -2.47831, -2.18124 -2.80625, -2.11675 -3.11696, -1.98777 -3.41008, -1.8588 -3.70321, -1.68402 -3.95713, -1.46271 -4.17221, -1.2414 -4.38692, -0.97979 -4.55694, -0.677871 -4.68225, -0.375952 -4.80719, -0.0557132 -4.86985, 0.282113 -4.87021, 0.700549 -4.86985, 1.08418 -4.80829, 1.43226 -4.68518, 1.78035 -4.56207, 2.07714 -4.38509, 2.32263 -4.15462, 2.56812 -3.92379, 2.76048 -3.65704, 2.89935 -3.35439, 3.03822 -3.05137, 3.10747 -2.71648, 3.10747 -2.34934, 3.10747 -1.94263, 3.01514 -1.56816, 2.82974 -1.2263, 2.6447 -0.884079, 2.41533 -0.570435, 2.14163 -0.285371, 1.86792 5.93662e-005, 1.57699 0.268635, 1.26921 0.520723, 0.961431 0.77281, 0.682595 1.01794, 0.433073 1.2561 L -0.955607 2.56344, 0.861768 2.56344 C 1.11532 2.5638, 1.35202 2.56197, 1.57113 2.55794, 1.79061 2.55428, 1.97674 2.54622, 2.12953 2.53449, 2.28269 2.52277, 2.3611 2.51507, 2.36477 2.51068, 2.39701 2.48356, 2.42742 2.42897, 2.45564 2.34689, 2.48385 2.26482, 2.50986 2.16809, 2.53405 2.0567, 2.55823 1.94531, 2.58241 1.83209, 2.60659 1.71667, 2.63078 1.60162, 2.65276 1.47521, 2.67291 1.33818 L 3.11956 1.33818 Z" stroke="none" fill="#000000" transform="matrix(1.12 0 0 1 12.086 18.6358)" />
			<rect />
		</svg>
	</g>
	<ellipse cx="1214.9991941452026" cy="612.80479717254639" rx="6.8249998092651367" ry="6.8249998092651367" stroke="none" fill="#000000" transform="matrix(0.384615 0 0 0.384615 -332.242 -100.629)" />
	<g transform="matrix(1 0 -0 1 87.4536 170.41)">
		<svg width="32.8524857" height="50.968071">
			<defs />
			<path d="M 8.10394 19.2545 C 6.66763 19.2071, 5.27941 19.1827, 3.94056 19.1827, 2.64467 19.1827, 1.28851 19.2071, -0.127285 19.2545 L -0.127285 17.849, 2.4087 17.849, 2.4087 6.95355 C 2.12016 7.05679, 1.7271 7.13245, 1.23016 7.1799, 0.733861 7.22799, 0.17216 7.25172, -0.454944 7.25108 L -0.454944 5.84554 C 0.524185 5.84618, 1.4097 5.75257, 2.20223 5.56405, 2.99477 5.37617, 3.70844 4.9876, 4.3426 4.39897 L 4.89211 4.39897 C 5.0755 4.39961, 5.2217 4.46117, 5.3307 4.58428, 5.43971 4.70739, 5.49421 4.84076, 5.49421 4.98375 L 5.49421 17.849, 8.10394 17.849, 8.10394 19.2545 Z" stroke="none" fill="#000000" />
			<rect />
		</svg>
	</g>
	<g transform="matrix(1 0 -0 1 61.8577 205.479)">
		<svg width="33.1395264" height="50.968071">
			<defs />
			<path d="M 8.71614 19.2443 L -0.00176299 19.2443, -0.00176299 18.3415 C -0.00176299 18.2325, 0.0373509 18.1267, 0.114296 18.0234 L 3.48514 13.9504 C 3.81665 13.5478, 4.12699 13.1406, 4.41554 12.7302, 4.70408 12.3198, 4.95929 11.9011, 5.18115 11.4735, 5.403 11.0464, 5.58126 10.6117, 5.71527 10.1705, 5.84929 9.72936, 5.91597 9.27602, 5.91597 8.8105, 5.91597 8.39371, 5.87365 8.00257, 5.78901 7.63644, 5.70437 7.27095, 5.58318 6.95612, 5.42481 6.69258, 5.26643 6.42968, 5.0638 6.22065, 4.81694 6.06676, 4.57071 5.91287, 4.27832 5.83592, 3.93976 5.83528, 3.22802 5.83592, 2.72467 5.98661, 2.42843 6.28669, 2.57655 6.30785, 2.81444 6.46367, 3.14209 6.75414, 3.46975 7.04525, 3.63326 7.46396, 3.63326 8.01027, 3.63326 8.60596, 3.44154 9.04711, 3.05745 9.33437, 2.67401 9.62163, 2.25979 9.76526, 1.81607 9.76462, 1.37235 9.76526, 0.95813 9.62163, 0.574045 9.33437, 0.1906 9.04711, -0.00176299 8.60596, -0.00176299 8.01027, -0.00176299 7.4569, 0.125197 6.96125, 0.379116 6.5233, 0.633036 6.086, 0.963901 5.7064, 1.37235 5.38451, 1.7808 5.06326, 2.24761 4.81896, 2.77212 4.65097, 3.29727 4.48361, 3.83781 4.39961, 4.39438 4.39897, 5.13434 4.39961, 5.80697 4.50733, 6.41291 4.72278, 7.01886 4.93823, 7.54914 5.24088, 8.00311 5.63074, 8.45709 6.02059, 8.80783 6.48611, 9.05406 7.02601, 9.30093 7.56655, 9.42404 8.1616, 9.42404 8.8105, 9.42404 9.4748, 9.26373 10.082, 8.94313 10.6322, 8.62252 11.183, 8.24229 11.6857, 7.80177 12.1403, 7.3619 12.5956, 6.90216 13.0111, 6.42317 13.3868, 5.94419 13.7632, 5.53894 14.1018, 5.20808 14.4019 L 3.34792 16.1254, 5.12344 16.1254 C 5.52483 16.1261, 5.90892 16.1229, 6.27505 16.1158, 6.64182 16.1094, 6.93742 16.0972, 7.16313 16.0799, 7.38883 16.0632, 7.49784 16.0575, 7.49015 16.0639, 7.54657 15.9959, 7.603 15.892, 7.65942 15.7516, 7.71585 15.6118, 7.7601 15.4541, 7.79151 15.2797, 7.82358 15.1053, 7.85307 14.9155, 7.88128 14.7103, 7.9095 14.5051, 7.95887 14.2621, 8.0294 13.9812 L 9.4561 13.9812 Z" stroke="none" fill="#000000" />
			<rect />
		</svg>
	</g>
	<g transform="matrix(1 0 -0 1 36.8771 240.548)">
		<svg width="33.1395264" height="50.968071">
			<defs />
			<path d="M 9.8 15.0687 C 9.8 15.6849, 9.67496 16.2787, 9.42489 16.8494, 9.17482 17.4207, 8.81061 17.9042, 8.33098 18.3004, 7.77505 18.7454, 7.16783 19.0571, 6.50866 19.234, 5.85014 19.4123, 5.18264 19.5008, 4.50616 19.5008, 3.94959 19.5008, 3.39879 19.4206, 2.85248 19.2597, 2.30616 19.0994, 1.82526 18.8692, 1.40975 18.5678, 0.994247 18.2671, 0.653123 17.8977, 0.385097 17.4598, 0.11707 17.0225, -0.0169427 16.5191, -0.0169427 15.951, -0.0169427 15.3291, 0.184398 14.8629, 0.585796 14.5513, 0.987194 14.2403, 1.42771 14.0845, 1.90669 14.0838, 2.37862 14.0845, 2.82106 14.2403, 3.23271 14.5513, 3.64501 14.8629, 3.85084 15.3291, 3.85084 15.951, 3.85084 16.5127, 3.68926 16.9436, 3.3648 17.2443, 3.04099 17.5457, 2.80503 17.706, 2.65691 17.7259, 2.72039 17.781, 2.94032 17.8702, 3.31735 17.9933, 3.69439 18.1164, 4.09065 18.178, 4.50616 18.1773, 4.73187 18.178, 4.94282 18.1164, 5.14032 17.9933, 5.33781 17.8702, 5.49234 17.7028, 5.6052 17.4899, 5.76742 17.1757, 5.86617 16.8122, 5.90079 16.398, 5.93606 15.9844, 5.95337 15.5413, 5.95337 15.0687, 5.95337 14.6109, 5.93606 14.1787, 5.90079 13.7716, 5.86617 13.365, 5.76742 13.004, 5.6052 12.6885, 5.49234 12.4635, 5.33589 12.2878, 5.13519 12.1608, 4.93449 12.0345, 4.72481 11.971, 4.50616 11.9704 L 3.33274 11.9704 C 3.03009 11.971, 2.85761 11.8171, 2.81529 11.5087 L 2.81529 11.3035 C 2.81529 11.0099, 2.97431 10.8457, 3.29106 10.8111 L 4.25224 10.7393 C 4.50616 10.7264, 4.72096 10.6392, 4.89666 10.4783, 5.07299 10.318, 5.22111 10.0955, 5.34102 9.81143, 5.46092 9.52802, 5.54749 9.19972, 5.60007 8.82653, 5.65264 8.45399, 5.67893 8.05515, 5.67893 7.63067, 5.67893 7.30301, 5.66483 7.00742, 5.63661 6.74388, 5.6084 6.48098, 5.53787 6.26361, 5.42501 6.09177, 5.21406 5.78463, 4.90756 5.63074, 4.50616 5.63009, 4.14708 5.63074, 3.80532 5.69935, 3.48086 5.83592, 3.15705 5.97314, 2.97046 6.06484, 2.92109 6.11228, 3.07626 6.12639, 3.31928 6.279, 3.65014 6.56947, 3.98101 6.86058, 4.14644 7.26903, 4.14644 7.79482, 4.14644 8.35652, 3.96369 8.78421, 3.59692 9.07789, 3.23079 9.3722, 2.82555 9.51904, 2.38183 9.5184, 1.93811 9.51904, 1.53158 9.37413, 1.1616 9.08302, 0.792266 8.79255, 0.606956 8.36294, 0.606956 7.79482, 0.606956 7.28955, 0.719809 6.8298, 0.944874 6.41558, 1.17058 6.002, 1.46105 5.64292, 1.81692 5.33834, 2.17279 5.03441, 2.58509 4.80165, 3.05318 4.64071, 3.5219 4.4804, 4.00601 4.39961, 4.50616 4.39897, 5.06978 4.39961, 5.63661 4.45796, 6.20729 4.57402, 6.77797 4.69072, 7.32043 4.91579, 7.83468 5.2505, 8.23608 5.52494, 8.56054 5.86862, 8.80676 6.28221, 9.05363 6.69643, 9.17674 7.14592, 9.17674 7.63067, 9.17674 8.56171, 8.88627 9.35874, 8.30533 10.0217, 7.7244 10.6854, 7.21528 11.099, 6.77797 11.2625, 6.72154 11.2561, 6.88185 11.3266, 7.25888 11.4735, 7.63591 11.6209, 7.98986 11.8242, 8.32072 12.0832, 8.78624 12.4327, 9.14917 12.8706, 9.4095 13.3971, 9.66983 13.9242, 9.8 14.4814, 9.8 15.0687 Z" stroke="none" fill="#000000" />
			<rect />
		</svg>
	</g>
</svg>
