<?xml version="1.0"?>
<svg xmlns="http://www.w3.org/2000/svg" xmlns:xlink="http://www.w3.org/1999/xlink" width="308.724243" height="307.611816">
	<defs />
	<path d="M 209.14 -0 C 209.14 115.505, 115.505 209.14, -0 209.14, -115.505 209.14, -209.14 115.505, -209.14 -0, -209.14 -115.505, -115.505 -209.14, -0 -209.14, 115.505 -209.14, 209.14 -115.505, 209.14 -0 Z" fill="none" stroke="#000000" stroke-width="3.84000015" stroke-linecap="round" stroke-linejoin="round" transform="matrix(0.416667 0 0 0.416667 153.293 154.319)" />
	<path d="M 309.3 -0 C 309.3 170.822, 170.822 309.3, -0 309.3, -170.822 309.3, -309.3 170.822, -309.3 -0, -309.3 -170.822, -170.822 -309.3, -0 -309.3, 170.822 -309.3, 309.3 -170.822, 309.3 -0 Z" fill="none" stroke="#000000" stroke-width="3.84000015" stroke-linecap="round" stroke-linejoin="round" transform="matrix(0.416667 0 0 0.416667 153.293 154.319)" />
	<ellipse cx="1212.4346437454224" cy="621.22999286651611" rx="6.3000001907348633" ry="6.3000001907348633" stroke="none" fill="#000000" transform="matrix(0.416667 0 0 0.416667 -351.888 -104.527)" />
	<g transform="matrix(1 0 -0 1 177.202 116.375)">
		<svg width="75.0478287" height="59.8723221">
			<defs />
			<path d="M 18.7355 4.99024 C 18.7139 5.08185, 18.6655 5.1584, 18.5896 5.22121, 18.5143 5.28402, 18.426 5.31543, 18.3252 5.31478, 17.9732 5.31543, 17.6264 5.32263, 17.2849 5.33637, 16.9433 5.35076, 16.7013 5.38871, 16.5573 5.45087, 16.4068 5.5006, 16.2949 5.68511, 16.223 6.00571 L 13.1929 17.7307 C 13.1641 17.8642, 13.1497 17.9721, 13.1497 18.0552, 13.1497 18.1606, 13.1681 18.2306, 13.2034 18.2646, 13.3329 18.3209, 13.56 18.3543, 13.8832 18.3647, 14.2064 18.3752, 14.5447 18.3804, 14.8967 18.3798, 15.091 18.3804, 15.1951 18.4779, 15.2095 18.6729 L 15.2095 18.7567, 15.1447 18.9346 C 15.0727 19.144, 14.9399 19.2487, 14.7456 19.2487, 13.7752 19.2068, 12.7938 19.1859, 11.8019 19.1859, 10.8316 19.1859, 9.84685 19.2068, 8.84773 19.2487, 8.73978 19.2487, 8.66061 19.214, 8.61022 19.144, 8.56704 19.1028, 8.54545 19.0537, 8.54545 18.9974, 8.54545 18.9562, 8.55265 18.9143, 8.56704 18.8718 L 8.61022 18.7148 C 8.63182 18.6245, 8.68023 18.5466, 8.75613 18.4799, 8.83203 18.4138, 8.91971 18.3804, 9.01981 18.3798, 9.37248 18.3804, 9.71926 18.3752, 10.0608 18.3647, 10.4023 18.3543, 10.6444 18.3176, 10.7884 18.2542, 10.9323 18.1848, 11.0442 17.9964, 11.1227 17.6888 L 14.3144 5.31478, 7.85517 5.31478, 4.65304 17.7307 C 4.62425 17.8642, 4.60985 17.9721, 4.60985 18.0552, 4.60985 18.1606, 4.62817 18.2306, 4.66351 18.2646, 4.79306 18.3209, 5.01814 18.3543, 5.33809 18.3647, 5.65804 18.3752, 6.00481 18.3804, 6.37842 18.3798, 6.56555 18.3804, 6.65846 18.4714, 6.65846 18.652 L 6.65846 18.7462, 6.61527 18.9346 C 6.53676 19.144, 6.39608 19.2487, 6.19456 19.2487, 5.22489 19.2068, 4.24737 19.1859, 3.262 19.1859, 2.29168 19.1859, 1.30304 19.2068, 0.296729 19.2487, 0.189424 19.2487, 0.110254 19.214, 0.0592193 19.144, 0.01669 19.1028, -0.00490183 19.0537, -0.00490183 18.9974, -0.00490183 18.9562, 0.00229543 18.9143, 0.0160357 18.8718 L 0.0592193 18.7148 C 0.116797 18.4851, 0.257471 18.3732, 0.479932 18.3798, 0.832598 18.3804, 1.17807 18.3752, 1.51568 18.3647, 1.8533 18.3543, 2.10521 18.3176, 2.27009 18.2542, 2.41403 18.1848, 2.52526 17.9964, 2.60443 17.6888 L 5.60177 5.96384 C 5.63056 5.83167, 5.64495 5.72371, 5.64495 5.63931, 5.64495 5.53527, 5.62729 5.46919, 5.5913 5.4404, 5.47614 5.38544, 5.25368 5.35076, 4.92261 5.33637, 4.59219 5.32263, 4.25064 5.31543, 3.89798 5.31478, 3.69711 5.31543, 3.59635 5.22121, 3.59635 5.03212 L 3.59635 4.95884, 3.63953 4.78087 C 3.69711 4.55121, 3.83713 4.43606, 4.05959 4.4354 L 18.498 4.4354 C 18.6995 4.43606, 18.8002 4.52308, 18.8002 4.69712, 18.8002 4.73965, 18.793 4.78479, 18.7787 4.83321 Z" stroke="none" fill="#0080FF" />
			<path d="M 2.71674 3.65386 C 1.97623 3.63041, 1.25551 3.61869, 0.554939 3.61869, -0.145264 3.61869, -0.865985 3.63041, -1.60686 3.65386 L -1.60686 3.14969, -1.18989 3.14969 C -1.05725 3.15005, -0.932304 3.14822, -0.815787 3.14419, -0.698903 3.14053, -0.588249 3.13063, -0.483457 3.11488, -0.378664 3.09949, -0.288162 3.08373, -0.21195 3.06761, -0.147462 3.05625, -0.0939667 3.02035, -0.0518301 2.95952, -0.00932693 2.89907, 0.0115583 2.83165, 0.0115583 2.7569 L 0.0115583 -3.85014 C -0.189599 -3.75194, -0.437289 -3.67756, -0.731147 -3.627, -1.025 -3.57607, -1.34708 -3.55078, -1.69736 -3.55115 L -1.69736 -4.04946 C -1.21407 -4.0491, -0.768154 -4.10662, -0.359611 -4.22204, 0.0489318 -4.33709, 0.402147 -4.55327, 0.700036 -4.87021 L 0.887269 -4.87021 C 1.01991 -4.86985, 1.08623 -4.80536, 1.08623 -4.67675 L 1.08623 2.7569 C 1.08623 2.83531, 1.10638 2.90383, 1.14668 2.96245, 1.18699 3.02108, 1.24561 3.05625, 1.32183 3.06761, 1.38631 3.08373, 1.46912 3.09949, 1.56952 3.11488, 1.67028 3.13063, 1.78387 3.14053, 1.91064 3.14419, 2.03742 3.14822, 2.16126 3.15005, 2.28181 3.14969 L 2.71674 3.14969, 2.71674 3.65386 Z" stroke="none" fill="#0080FF" transform="matrix(1.12 0 0 1 20.548 18.6358)" />
			<rect />
		</svg>
	</g>
	<path d="M 153.693 -0 C 153.693 84.8821, 84.8821 153.693, -0 153.693, -84.8821 153.693, -153.693 84.8821, -153.693 -0, -153.693 -84.8821, -84.8821 -153.693, -0 -153.693, 84.8821 -153.693, 153.693 -84.8821, 153.693 -0 Z" fill="none" stroke="#0080FF" stroke-width="3.84000015" stroke-linecap="round" stroke-linejoin="round" stroke-dasharray="13.4592, 9.5808" transform="matrix(0.416667 0 0 0.416667 153.293 154.319)" />
	<path d="M 262.266 -0 C 262.266 144.845, 144.845 262.266, -0 262.266, -144.845 262.266, -262.266 144.845, -262.266 -0, -262.266 -144.845, -144.845 -262.266, -0 -262.266, 144.845 -262.266, 262.266 -144.845, 262.266 -0 Z" fill="none" stroke="#0080FF" stroke-width="3.84000015" stroke-linecap="round" stroke-linejoin="round" stroke-dasharray="13.4592, 9.5808" transform="matrix(0.416667 0 0 0.416667 153.293 154.319)" />
	<path d="M 352.154 -0 C 352.154 194.489, 194.489 352.154, -0 352.154, -194.489 352.154, -352.154 194.489, -352.154 -0, -352.154 -194.489, -194.489 -352.154, -0 -352.154, 194.489 -352.154, 352.154 -194.489, 352.154 -0 Z" fill="none" stroke="#0080FF" stroke-width="3.84000015" stroke-linecap="round" stroke-linejoin="round" stroke-dasharray="13.4592, 9.5808" transform="matrix(0.416667 0 0 0.416667 153.293 154.318)" />
	<g transform="matrix(1 0 -0 1 205.175 74.6171)">
		<svg width="77.9182587" height="59.8723221">
			<defs />
			<path d="M 18.7355 4.99024 C 18.7139 5.08185, 18.6655 5.1584, 18.5896 5.22121, 18.5143 5.28402, 18.426 5.31543, 18.3252 5.31478, 17.9732 5.31543, 17.6264 5.32263, 17.2849 5.33637, 16.9433 5.35076, 16.7013 5.38871, 16.5573 5.45087, 16.4068 5.5006, 16.2949 5.68511, 16.223 6.00571 L 13.1929 17.7307 C 13.1641 17.8642, 13.1497 17.9721, 13.1497 18.0552, 13.1497 18.1606, 13.1681 18.2306, 13.2034 18.2646, 13.3329 18.3209, 13.56 18.3543, 13.8832 18.3647, 14.2064 18.3752, 14.5447 18.3804, 14.8967 18.3798, 15.091 18.3804, 15.1951 18.4779, 15.2095 18.6729 L 15.2095 18.7567, 15.1447 18.9346 C 15.0727 19.144, 14.9399 19.2487, 14.7456 19.2487, 13.7752 19.2068, 12.7938 19.1859, 11.8019 19.1859, 10.8316 19.1859, 9.84685 19.2068, 8.84773 19.2487, 8.73978 19.2487, 8.66061 19.214, 8.61022 19.144, 8.56704 19.1028, 8.54545 19.0537, 8.54545 18.9974, 8.54545 18.9562, 8.55265 18.9143, 8.56704 18.8718 L 8.61022 18.7148 C 8.63182 18.6245, 8.68023 18.5466, 8.75613 18.4799, 8.83203 18.4138, 8.91971 18.3804, 9.01981 18.3798, 9.37248 18.3804, 9.71926 18.3752, 10.0608 18.3647, 10.4023 18.3543, 10.6444 18.3176, 10.7884 18.2542, 10.9323 18.1848, 11.0442 17.9964, 11.1227 17.6888 L 14.3144 5.31478, 7.85517 5.31478, 4.65304 17.7307 C 4.62425 17.8642, 4.60985 17.9721, 4.60985 18.0552, 4.60985 18.1606, 4.62817 18.2306, 4.66351 18.2646, 4.79306 18.3209, 5.01814 18.3543, 5.33809 18.3647, 5.65804 18.3752, 6.00481 18.3804, 6.37842 18.3798, 6.56555 18.3804, 6.65846 18.4714, 6.65846 18.652 L 6.65846 18.7462, 6.61527 18.9346 C 6.53676 19.144, 6.39608 19.2487, 6.19456 19.2487, 5.22489 19.2068, 4.24737 19.1859, 3.262 19.1859, 2.29168 19.1859, 1.30304 19.2068, 0.296729 19.2487, 0.189424 19.2487, 0.110254 19.214, 0.0592193 19.144, 0.01669 19.1028, -0.00490183 19.0537, -0.00490183 18.9974, -0.00490183 18.9562, 0.00229543 18.9143, 0.0160357 18.8718 L 0.0592193 18.7148 C 0.116797 18.4851, 0.257471 18.3732, 0.479932 18.3798, 0.832598 18.3804, 1.17807 18.3752, 1.51568 18.3647, 1.8533 18.3543, 2.10521 18.3176, 2.27009 18.2542, 2.41403 18.1848, 2.52526 17.9964, 2.60443 17.6888 L 5.60177 5.96384 C 5.63056 5.83167, 5.64495 5.72371, 5.64495 5.63931, 5.64495 5.53527, 5.62729 5.46919, 5.5913 5.4404, 5.47614 5.38544, 5.25368 5.35076, 4.92261 5.33637, 4.59219 5.32263, 4.25064 5.31543, 3.89798 5.31478, 3.69711 5.31543, 3.59635 5.22121, 3.59635 5.03212 L 3.59635 4.95884, 3.63953 4.78087 C 3.69711 4.55121, 3.83713 4.43606, 4.05959 4.4354 L 18.498 4.4354 C 18.6995 4.43606, 18.8002 4.52308, 18.8002 4.69712, 18.8002 4.73965, 18.793 4.78479, 18.7787 4.83321 Z" stroke="none" fill="#0080FF" />
			<path d="M 2.733 3.65386 L -2.18124 3.65386, -2.18124 3.33143 C -2.18124 3.30834, -2.16914 3.27317, -2.14496 3.2259 L -0.170765 1.08022 C 0.0630023 0.822642, 0.299335 0.558829, 0.538964 0.289154, 0.778594 0.019479, 0.992575 -0.256058, 1.18164 -0.537458, 1.37071 -0.818859, 1.52167 -1.10905, 1.63452 -1.40804, 1.74737 -1.70703, 1.80343 -2.02067, 1.80343 -2.34934, 1.80343 -2.62634, 1.76752 -2.88539, 1.69498 -3.12575, 1.62243 -3.36612, 1.518 -3.57717, 1.38097 -3.7589, 1.24393 -3.94064, 1.07282 -4.0872, 0.86763 -4.19859, 0.662443 -4.30998, 0.425012 -4.36567, 0.155337 -4.36604, -0.246977 -4.36567, -0.602391 -4.24549, -0.910173 -4.00513, -1.21795 -3.76476, -1.42241 -3.49985, -1.52317 -3.21112, -1.54296 -3.20306, -1.51071 -3.19903, -1.42644 -3.1994 L -1.32385 -3.1994 C -1.20293 -3.17155, -1.09851 -3.12942, -1.00984 -3.07299, -0.921165 -3.0162, -0.846784 -2.93815, -0.786327 -2.83849, -0.72587 -2.73883, -0.695825 -2.61865, -0.695825 -2.47831, -0.695825 -2.24345, -0.772037 -2.06354, -0.925195 -1.9386, -1.07835 -1.81329, -1.24946 -1.751, -1.43853 -1.75136, -1.61954 -1.751, -1.78845 -1.81329, -1.94564 -1.9386, -2.10246 -2.06354, -2.18124 -2.24345, -2.18124 -2.47831, -2.18124 -2.80625, -2.11675 -3.11696, -1.98777 -3.41008, -1.8588 -3.70321, -1.68402 -3.95713, -1.46271 -4.17221, -1.2414 -4.38692, -0.97979 -4.55694, -0.677871 -4.68225, -0.375952 -4.80719, -0.0557132 -4.86985, 0.282113 -4.87021, 0.700549 -4.86985, 1.08418 -4.80829, 1.43226 -4.68518, 1.78035 -4.56207, 2.07714 -4.38509, 2.32263 -4.15462, 2.56812 -3.92379, 2.76048 -3.65704, 2.89935 -3.35439, 3.03822 -3.05137, 3.10747 -2.71648, 3.10747 -2.34934, 3.10747 -1.94263, 3.01514 -1.56816, 2.82974 -1.2263, 2.6447 -0.884079, 2.41533 -0.570435, 2.14163 -0.285371, 1.86792 5.93662e-005, 1.57699 0.268635, 1.26921 0.520723, 0.961431 0.77281, 0.682595 1.01794, 0.433073 1.2561 L -0.955607 2.56344, 0.861768 2.56344 C 1.11532 2.5638, 1.35202 2.56197, 1.57113 2.55794, 1.79061 2.55428, 1.97674 2.54622, 2.12953 2.53449, 2.28269 2.52277, 2.3611 2.51507, 2.36477 2.51068, 2.39701 2.48356, 2.42742 2.42897, 2.45564 2.34689, 2.48385 2.26482, 2.50986 2.16809, 2.53405 2.0567, 2.55823 1.94531, 2.58241 1.83209, 2.60659 1.71667, 2.63078 1.60162, 2.65276 1.47521, 2.67291 1.33818 L 3.11956 1.33818 Z" stroke="none" fill="#0080FF" transform="matrix(1.12 0 0 1 21.0313 18.6358)" />
			<rect />
		</svg>
	</g>
	<g transform="matrix(1 0 -0 1 243.117 9.5)">
		<svg width="77.9182587" height="59.8723221">
			<defs />
			<path d="M 18.7355 4.99024 C 18.7139 5.08185, 18.6655 5.1584, 18.5896 5.22121, 18.5143 5.28402, 18.426 5.31543, 18.3252 5.31478, 17.9732 5.31543, 17.6264 5.32263, 17.2849 5.33637, 16.9433 5.35076, 16.7013 5.38871, 16.5573 5.45087, 16.4068 5.5006, 16.2949 5.68511, 16.223 6.00571 L 13.1929 17.7307 C 13.1641 17.8642, 13.1497 17.9721, 13.1497 18.0552, 13.1497 18.1606, 13.1681 18.2306, 13.2034 18.2646, 13.3329 18.3209, 13.56 18.3543, 13.8832 18.3647, 14.2064 18.3752, 14.5447 18.3804, 14.8967 18.3798, 15.091 18.3804, 15.1951 18.4779, 15.2095 18.6729 L 15.2095 18.7567, 15.1447 18.9346 C 15.0727 19.144, 14.9399 19.2487, 14.7456 19.2487, 13.7752 19.2068, 12.7938 19.1859, 11.8019 19.1859, 10.8316 19.1859, 9.84685 19.2068, 8.84773 19.2487, 8.73978 19.2487, 8.66061 19.214, 8.61022 19.144, 8.56704 19.1028, 8.54545 19.0537, 8.54545 18.9974, 8.54545 18.9562, 8.55265 18.9143, 8.56704 18.8718 L 8.61022 18.7148 C 8.63182 18.6245, 8.68023 18.5466, 8.75613 18.4799, 8.83203 18.4138, 8.91971 18.3804, 9.01981 18.3798, 9.37248 18.3804, 9.71926 18.3752, 10.0608 18.3647, 10.4023 18.3543, 10.6444 18.3176, 10.7884 18.2542, 10.9323 18.1848, 11.0442 17.9964, 11.1227 17.6888 L 14.3144 5.31478, 7.85517 5.31478, 4.65304 17.7307 C 4.62425 17.8642, 4.60985 17.9721, 4.60985 18.0552, 4.60985 18.1606, 4.62817 18.2306, 4.66351 18.2646, 4.79306 18.3209, 5.01814 18.3543, 5.33809 18.3647, 5.65804 18.3752, 6.00481 18.3804, 6.37842 18.3798, 6.56555 18.3804, 6.65846 18.4714, 6.65846 18.652 L 6.65846 18.7462, 6.61527 18.9346 C 6.53676 19.144, 6.39608 19.2487, 6.19456 19.2487, 5.22489 19.2068, 4.24737 19.1859, 3.262 19.1859, 2.29168 19.1859, 1.30304 19.2068, 0.296729 19.2487, 0.189424 19.2487, 0.110254 19.214, 0.0592193 19.144, 0.01669 19.1028, -0.00490183 19.0537, -0.00490183 18.9974, -0.00490183 18.9562, 0.00229543 18.9143, 0.0160357 18.8718 L 0.0592193 18.7148 C 0.116797 18.4851, 0.257471 18.3732, 0.479932 18.3798, 0.832598 18.3804, 1.17807 18.3752, 1.51568 18.3647, 1.8533 18.3543, 2.10521 18.3176, 2.27009 18.2542, 2.41403 18.1848, 2.52526 17.9964, 2.60443 17.6888 L 5.60177 5.96384 C 5.63056 5.83167, 5.64495 5.72371, 5.64495 5.63931, 5.64495 5.53527, 5.62729 5.46919, 5.5913 5.4404, 5.47614 5.38544, 5.25368 5.35076, 4.92261 5.33637, 4.59219 5.32263, 4.25064 5.31543, 3.89798 5.31478, 3.69711 5.31543, 3.59635 5.22121, 3.59635 5.03212 L 3.59635 4.95884, 3.63953 4.78087 C 3.69711 4.55121, 3.83713 4.43606, 4.05959 4.4354 L 18.498 4.4354 C 18.6995 4.43606, 18.8002 4.52308, 18.8002 4.69712, 18.8002 4.73965, 18.793 4.78479, 18.7787 4.83321 Z" stroke="none" fill="#0080FF" />
			<path d="M 3.22207 1.4437 C 3.22207 1.78006, 3.14769 2.10286, 2.99893 2.41138, 2.85017 2.72026, 2.65084 2.98407, 2.40095 3.20245, 2.11955 3.44904, 1.80847 3.63151, 1.46845 3.75059, 1.12842 3.87004, 0.77301 3.9294, 0.402573 3.9294, 0.0687768 3.9294, -0.256958 3.8825, -0.574999 3.7887, -0.893039 3.6949, -1.17957 3.56043, -1.43532 3.38455, -1.69107 3.20868, -1.89516 2.99287, -2.04832 2.73675, -2.20111 2.481, -2.27769 2.18677, -2.27769 1.85408, -2.27769 1.60419, -2.19415 1.41769, -2.02707 1.29457, -1.85999 1.17146, -1.68411 1.1099, -1.49908 1.10954, -1.30561 1.1099, -1.12571 1.17146, -0.958626 1.29457, -0.791545 1.41769, -0.708004 1.60419, -0.708004 1.85408, -0.708004 2.00284, -0.73695 2.12705, -0.795575 2.22671, -0.853834 2.32637, -0.928214 2.40955, -1.01908 2.47587, -1.10959 2.54255, -1.21328 2.58322, -1.3298 2.59861, -1.38989 2.61473, -1.44631 2.62243, -1.49908 2.62206, -1.55111 2.62243, -1.55917 2.62646, -1.52326 2.63379, -1.39831 2.8529, -1.15282 3.04673, -0.786415 3.21454, -0.420009 3.38272, -0.0239239 3.46663, 0.402573 3.46626, 0.604096 3.46663, 0.792063 3.4168, 0.967205 3.31714, 1.14235 3.21747, 1.28854 3.08373, 1.40506 2.91519, 1.55016 2.69681, 1.64872 2.46231, 1.70075 2.21205, 1.75315 1.96216, 1.77916 1.70605, 1.77916 1.4437, 1.77916 1.17439, 1.75315 0.915709, 1.70075 0.667285, 1.64872 0.419228, 1.55016 0.189492, 1.40506 -0.021925, 1.28415 -0.193403, 1.13722 -0.332271, 0.964274 -0.437796, 0.79133 -0.543321, 0.604096 -0.596084, 0.402573 -0.59645 L -0.472771 -0.59645 C -0.589289 -0.596084, -0.651578 -0.650678, -0.659639 -0.7606 L -0.659639 -0.825088 C -0.659639 -0.871621, -0.645349 -0.908628, -0.617502 -0.936475, -0.581228 -0.971283, -0.535061 -0.988871, -0.478634 -0.989238, -0.36175 -1.00463, -0.241203 -1.01232, -0.116625 -1.01269, 0.00428939 -1.01232, 0.123371 -1.02002, 0.239889 -1.03614, 0.457168 -1.05153, 0.646233 -1.11858, 0.807086 -1.23803, 0.968304 -1.35711, 1.10314 -1.50953, 1.2116 -1.6953, 1.32042 -1.8807, 1.40286 -2.09469, 1.45929 -2.33725, 1.51572 -2.57944, 1.54393 -2.82786, 1.54393 -3.08215, 1.54393 -3.26938, 1.52378 -3.44709, 1.48347 -3.61527, 1.44317 -3.78309, 1.36879 -3.93001, 1.25996 -4.05533, 1.03462 -4.31291, 0.748827 -4.44005, 0.402573 -4.43639, 0.0325027 -4.43602, -0.306423 -4.3664, -0.614204 -4.2279, -0.921986 -4.08903, -1.12864 -3.93954, -1.23343 -3.77979, -1.26128 -3.77539, -1.24735 -3.77356, -1.19093 -3.77393, -1.04583 -3.77356, -0.909161 -3.73069, -0.780553 -3.64495, -0.58709 -3.53136, -0.490726 -3.33973, -0.490726 -3.07043, -0.490726 -2.84325, -0.564007 -2.67214, -0.710936 -2.55709, -0.857864 -2.44167, -1.02201 -2.38415, -1.20302 -2.38451, -1.37999 -2.38415, -1.54598 -2.44057, -1.70097 -2.55416, -1.85596 -2.66738, -1.93363 -2.83959, -1.93363 -3.07043, -1.93363 -3.35549, -1.86512 -3.60721, -1.72845 -3.82632, -1.59141 -4.04507, -1.41553 -4.23267, -1.20009 -4.38912, -0.984641 -4.54521, -0.736217 -4.66466, -0.454451 -4.74673, -0.172685 -4.82881, 0.113112 -4.86985, 0.402573 -4.87021, 0.712553 -4.86985, 1.01264 -4.82881, 1.30247 -4.74673, 1.59229 -4.66466, 1.866 -4.53752, 2.12322 -4.36604, 2.3328 -4.21728, 2.50868 -4.03444, 2.65157 -3.81753, 2.79447 -3.60062, 2.86592 -3.35549, 2.86592 -3.08215, 2.86592 -2.80808, 2.81682 -2.55013, 2.71826 -2.30793, 2.6197 -2.06537, 2.48889 -1.84663, 2.32584 -1.65133, 2.16279 -1.45567, 1.96859 -1.28383, 1.74325 -1.13543, 1.51791 -0.986673, 1.34863 -0.893239, 1.23578 -0.8544, 1.33251 -0.842309, 1.49776 -0.784417, 1.73116 -0.68109, 1.96456 -0.577397, 2.1877 -0.439628, 2.40095 -0.26815, 2.65084 -0.0527031, 2.85017 0.204148, 2.99893 0.503135, 3.14769 0.802123, 3.22207 1.11577, 3.22207 1.4437 Z" stroke="none" fill="#0080FF" transform="matrix(1.12 0 0 1 21.1277 18.6358)" />
			<rect />
		</svg>
	</g>
</svg>
