<?xml version="1.0"?>
<svg xmlns="http://www.w3.org/2000/svg" xmlns:xlink="http://www.w3.org/1999/xlink" width="295.271057" height="202.702438">
	<defs>
		<marker id="CustomMarker-01" markerUnits="strokeWidth" markerWidth="15.000001" markerHeight="9" viewBox="-15 -4.5 15 9" orient="auto-start-reverse">
			<path d="M 0 -0 L -10 -3, -10 -0.5, -10 0.5, -10 3 Z" fill="#000000" stroke="#000000" stroke-linejoin="round" />
		</marker>
		<marker id="CustomMarker-02" markerUnits="strokeWidth" markerWidth="15.000001" markerHeight="9" viewBox="-15 -4.5 15 9" orient="auto-start-reverse">
			<path d="M 0 -0 L -10 -3, -10 -0.5, -10 0.5, -10 3 Z" fill="#000000" stroke="#000000" stroke-linejoin="round" />
		</marker>
	</defs>
	<path d="M -500.888 211.048 L 500.888 211.048" fill="none" stroke="#000000" stroke-width="4.80000019" stroke-linecap="round" stroke-linejoin="round" marker-end="url(#CustomMarker-01)" transform="matrix(0.277778 0 -0 0.277778 147.636 101.601)" />
	<path d="M 0 333.368 L 0 -333.368" fill="none" stroke="#000000" stroke-width="4.80000019" stroke-linecap="round" stroke-linejoin="round" marker-end="url(#CustomMarker-02)" transform="matrix(0.277778 0 -0 0.277778 147.636 101.601)" />
	<g transform="matrix(1 0 -0 1 266.056 132.232)">
		<svg width="33.1395264" height="32.8723297">
			<defs />
			<path d="M 9.12724 9.8992 C 9.05854 10.1746, 8.91827 10.3807, 8.70759 10.5181, 8.4969 10.6555, 8.28508 10.7242, 8.07096 10.7236, 7.85111 10.7242, 7.66848 10.6538, 7.52364 10.5129, 7.41715 10.4099, 7.36047 10.2753, 7.3536 10.1099, 7.3536 10.0435, 7.3662 9.95759, 7.39139 9.8534, 7.46123 9.6221, 7.56829 9.44634, 7.71257 9.32726, 7.85741 9.20818, 7.95817 9.13948, 8.01428 9.12058, 7.8952 9.02955, 7.64959 8.98375, 7.2786 8.98318, 6.9517 8.98375, 6.65915 9.15322, 6.40152 9.49214, 6.14389 9.83107, 5.95153 10.2387, 5.82557 10.7144 L 4.95765 14.0671 C 4.87006 14.4037, 4.80422 14.7243, 4.75956 15.0289, 4.73494 15.1331, 4.72235 15.2247, 4.72235 15.3037, 4.72235 15.4938, 4.75384 15.6735, 4.81624 15.8441, 4.87922 16.0279, 4.97368 16.1745, 5.09963 16.2844, 5.22558 16.3943, 5.38589 16.4493, 5.58054 16.4487, 5.83244 16.4493, 6.07462 16.384, 6.30705 16.2523, 6.53949 16.1212, 6.75361 15.9443, 6.94827 15.721, 7.14349 15.4983, 7.31639 15.239, 7.46753 14.9424, 7.61867 14.6464, 7.73776 14.3424, 7.82535 14.0304, 7.86314 13.8724, 7.9702 13.7928, 8.14653 13.7923 L 8.36294 13.7923 C 8.52667 13.7928, 8.60854 13.8541, 8.60854 13.9755, 8.60854 14.0127, 8.59938 14.0465, 8.57992 14.0762, 8.49232 14.4432, 8.3492 14.805, 8.15111 15.1623, 7.95302 15.5195, 7.7223 15.8356, 7.4578 16.1104, 7.19387 16.3852, 6.89388 16.6113, 6.55724 16.7876, 6.22061 16.9651, 5.8605 17.0533, 5.47692 17.0533, 5.08704 17.0533, 4.7504 16.9697, 4.46758 16.8014, 4.18476 16.6342, 3.95518 16.4155, 3.77885 16.1464, 3.72275 16.08, 3.67866 16.0113, 3.64717 15.9409, 3.61569 15.871, 3.60595 15.8602, 3.61855 15.9083, 3.46741 16.159, 3.22867 16.4126, 2.90177 16.6691, 2.57486 16.9256, 2.19758 17.0533, 1.76934 17.0533, 1.53061 17.0533, 1.29473 17.0229, 1.06229 16.9617, 0.829854 16.901, 0.626613 16.8065, 0.453715 16.6783, 0.280817 16.55, 0.150285 16.3943, 0.0621184 16.2105, 0.0186076 16.1012, -0.00314775 15.9821, -0.00372026 15.8533, -0.00314775 15.7623, 0.00944747 15.6552, 0.0340654 15.5327, 0.103339 15.2585, 0.244749 15.0524, 0.458295 14.915, 0.672414 14.7776, 0.88596 14.7089, 1.10008 14.7083, 1.31992 14.7089, 1.50885 14.7793, 1.66572 14.919, 1.77278 15.0232, 1.82602 15.1577, 1.82602 15.322, 1.82602 15.4079, 1.81343 15.4938, 1.78824 15.5785, 1.73213 15.7926, 1.62965 15.9655, 1.48194 16.0966, 1.33423 16.2283, 1.22889 16.2999, 1.16592 16.3113, 1.28557 16.4098, 1.52774 16.4556, 1.89243 16.4487, 2.21933 16.4493, 2.51475 16.2787, 2.77868 15.9363, 3.04318 15.5945, 3.23497 15.1852, 3.35405 14.7083 L 4.23171 11.3373 C 4.31987 11.0202, 4.38857 10.7087, 4.43896 10.403, 4.45155 10.3057, 4.45785 10.2141, 4.45785 10.1282, 4.45785 9.93927, 4.42979 9.76237, 4.37312 9.59691, 4.31014 9.41428, 4.21281 9.26657, 4.08056 9.15322, 3.94889 9.04043, 3.78515 8.98375, 3.58992 8.98318, 3.33859 8.98375, 3.09527 9.04959, 2.8594 9.1807, 2.62353 9.31237, 2.40826 9.48756, 2.21304 9.70741, 2.01838 9.92725, 1.84549 10.1826, 1.69434 10.4723, 1.5432 10.7625, 1.43328 11.0694, 1.36401 11.3923, 1.2953 11.5578, 1.17851 11.6431, 1.01477 11.6488 L 0.807526 11.6488 C 0.656383 11.6494, 0.580812 11.5732, 0.580812 11.4198 L 0.580812 11.3557 C 0.675276 10.9778, 0.820121 10.6097, 1.01477 10.2524, 1.21 9.89519, 1.44301 9.57916, 1.71324 9.30436, 1.98346 9.02955, 2.28575 8.80513, 2.61895 8.63109, 2.95215 8.45704, 3.31397 8.37002, 3.70328 8.36945, 4.08114 8.37002, 4.41434 8.45246, 4.70345 8.61735, 4.99257 8.78223, 5.22845 9.00207, 5.4105 9.27631, 5.44829 9.34386, 5.48321 9.416, 5.5147 9.49214, 5.54619 9.56886, 5.55535 9.58832, 5.54275 9.55111, 5.70019 9.28318, 5.94237 9.01925, 6.26927 8.75933, 6.59617 8.49998, 6.97002 8.37002, 7.39139 8.36945, 7.6307 8.37002, 7.86829 8.39922, 8.10416 8.45704, 8.34004 8.51544, 8.54385 8.60819, 8.71675 8.73643, 8.88965 8.86467, 9.01731 9.02326, 9.09918 9.21218, 9.14327 9.32268, 9.16502 9.44806, 9.16502 9.58775, 9.16502 9.67992, 9.15243 9.78355, 9.12724 9.8992 Z" stroke="none" fill="#000000" />
			<rect />
		</svg>
	</g>
	<g transform="matrix(1 0 -0 1 125.85 9)">
		<svg width="29.9820557" height="41.7765884">
			<defs />
			<path d="M 6.57986 16.7693 C 6.44818 17.2823, 6.24036 17.7724, 5.95754 18.2395, 5.67472 18.7067, 5.34095 19.1223, 4.95737 19.4853, 4.57378 19.8488, 4.14326 20.1437, 3.66521 20.3693, 3.18717 20.5954, 2.69023 20.7082, 2.1744 20.7082, 1.86639 20.7082, 1.58357 20.6521, 1.32594 20.5387, 1.06831 20.4259, 0.857624 20.2731, 0.693887 20.0807, 0.530149 19.8883, 0.420227 19.6611, 0.363548 19.3983, 0.338358 19.2826, 0.325763 19.1635, 0.325763 19.041, 0.325763 18.8824, 0.344656 18.7204, 0.382441 18.5555, 0.451715 18.2807, 0.593125 18.0746, 0.806671 17.9372, 1.02079 17.7998, 1.23147 17.7311, 1.43872 17.7311, 1.65914 17.7311, 1.84463 17.8015, 1.9952 17.9418, 2.10226 18.046, 2.1555 18.18, 2.1555 18.3449, 2.1555 18.4124, 2.14291 18.4949, 2.11772 18.5922, 2.04902 18.867, 1.90761 19.0731, 1.69349 19.2105, 1.47994 19.3479, 1.30991 19.4166, 1.18395 19.4166, 1.22174 19.5815, 1.33968 19.7361, 1.53777 19.8792, 1.73585 20.0229, 1.98948 20.0944, 2.29749 20.0944, 2.63698 20.0944, 2.95473 20.0028, 3.25014 19.8196, 3.54556 19.6364, 3.81635 19.3908, 4.06139 19.0823, 4.30642 18.7742, 4.52169 18.417, 4.70718 18.0105, 4.89267 17.6046, 5.0421 17.1787, 5.15546 16.7327 L 5.21213 16.5128 C 5.11824 16.5987, 4.92015 16.7103, 4.61787 16.8472, 4.31616 16.9846, 3.98582 17.0533, 3.62743 17.0533, 3.19976 17.0533, 2.8179 16.9743, 2.48126 16.8151, 2.14463 16.6571, 1.87898 16.4126, 1.68433 16.0823, 1.4954 15.7285, 1.40437 15.338, 1.41067 14.9098 L 1.41067 14.8365 C 1.42326 14.3911, 1.47994 13.9486, 1.58013 13.5083, 1.68089 13.0875, 1.82746 12.6238, 2.01925 12.1165, 2.21104 11.6099, 2.39481 11.1181, 2.57057 10.6412, 2.7595 10.1351, 2.85397 9.71943, 2.85397 9.39539, 2.85397 9.12116, 2.73775 8.98375, 2.50473 8.98318, 2.29119 8.98375, 2.09768 9.04501, 1.92478 9.16696, 1.75188 9.28947, 1.59502 9.45894, 1.45303 9.67535, 1.31162 9.89233, 1.18453 10.1488, 1.07117 10.4448, 0.957814 10.7414, 0.863349 11.0568, 0.787778 11.3923, 0.719077 11.5578, 0.602858 11.6431, 0.43912 11.6488 L 0.222139 11.6488 C 0.070996 11.6494, -0.00457531 11.5732, -0.00457531 11.4198 L -0.00457531 11.3557 C 0.0835912 11.0202, 0.200383 10.6772, 0.344656 10.3257, 0.489501 9.97477, 0.672131 9.65588, 0.891975 9.36848, 1.11182 9.08165, 1.36372 8.84349, 1.64654 8.65399, 1.92936 8.46506, 2.2534 8.37002, 2.61809 8.36945, 2.93297 8.37002, 3.20148 8.43758, 3.42476 8.57155, 3.64804 8.70609, 3.8175 8.88471, 3.93372 9.10742, 4.05051 9.33069, 4.11463 9.58203, 4.12723 9.86256 L 4.12723 9.92668 C 4.12723 10.19, 4.07398 10.4614, 3.96692 10.7419, 3.78487 11.2188, 3.60395 11.706, 3.42476 12.2035, 3.24556 12.7016, 3.10587 13.1488, 3.00511 13.5455, 2.90435 13.9428, 2.83507 14.3361, 2.79729 14.7266, 2.7721 14.8308, 2.75664 14.9442, 2.74977 15.0655, 2.74977 15.3043, 2.79099 15.5396, 2.87286 15.7709, 2.92954 15.9792, 3.03316 16.1441, 3.1843 16.2661, 3.33545 16.3886, 3.51464 16.4493, 3.72189 16.4487, 4.12436 16.4493, 4.47646 16.3302, 4.77817 16.092, 5.08046 15.8539, 5.34438 15.5424, 5.57052 15.1571 L 7.08939 9.24883 C 7.14607 9.02326, 7.26057 8.85723, 7.43347 8.75017, 7.60637 8.64368, 7.78098 8.58987, 7.95674 8.58929, 8.13937 8.58987, 8.29052 8.64483, 8.4096 8.75418, 8.49204 8.83433, 8.53269 8.94081, 8.53269 9.07478, 8.53269 9.14234, 8.52639 9.21276, 8.5138 9.28547 Z" stroke="none" fill="#000000" />
			<rect />
		</svg>
	</g>
	<g transform="matrix(1 0 -0 1 13.0011 51.8426)">
		<svg width="341.997955" height="150.063797">
			<defs />
			<path d="M 6.58759 20.4496 C 6.45591 20.9626, 6.24809 21.4526, 5.96527 21.9198, 5.68245 22.387, 5.34868 22.8026, 4.9651 23.1656, 4.58151 23.5291, 4.15099 23.824, 3.67294 24.0495, 3.19489 24.2757, 2.69796 24.3885, 2.18155 24.3885, 1.87354 24.3885, 1.59072 24.3324, 1.33252 24.219, 1.07489 24.1062, 0.864208 23.9534, 0.70047 23.761, 0.536732 23.5686, 0.42681 23.3413, 0.370132 23.0786, 0.344941 22.9629, 0.332346 22.8438, 0.332346 22.7213, 0.332346 22.5627, 0.351239 22.4007, 0.389025 22.2358, 0.458298 21.961, 0.599708 21.7549, 0.813827 21.6175, 1.02795 21.4801, 1.23863 21.4114, 1.44588 21.4114, 1.66629 21.4114, 1.85179 21.4818, 2.00236 21.6221, 2.10942 21.7263, 2.16266 21.8603, 2.16266 22.0251, 2.16266 22.0927, 2.15006 22.1751, 2.12487 22.2725, 2.05617 22.5473, 1.91476 22.7534, 1.70064 22.8908, 1.48653 23.0282, 1.31706 23.0969, 1.19111 23.0969, 1.2289 23.2618, 1.34683 23.4163, 1.54492 23.5595, 1.74301 23.7032, 1.99606 23.7747, 2.30407 23.7747, 2.64414 23.7747, 2.96188 23.6831, 3.2573 23.4999, 3.55329 23.3167, 3.82408 23.0711, 4.06912 22.7625, 4.31415 22.4545, 4.52942 22.0973, 4.71491 21.6908, 4.9004 21.2849, 5.04983 20.8589, 5.16318 20.413 L 5.21986 20.1931 C 5.12597 20.279, 4.92788 20.3906, 4.6256 20.5275, 4.32388 20.6649, 3.99355 20.7336, 3.63458 20.7336, 3.20749 20.7336, 2.82505 20.6546, 2.48842 20.4954, 2.15178 20.3374, 1.88614 20.0929, 1.69091 19.7626, 1.50256 19.4088, 1.41153 19.0183, 1.41725 18.5901 L 1.41725 18.5168 C 1.42985 18.0714, 1.48653 17.6288, 1.58729 17.1886, 1.68805 16.7678, 1.83461 16.304, 2.0264 15.7968, 2.21819 15.2901, 2.40197 14.7983, 2.57773 14.3214, 2.76666 13.8153, 2.86112 13.3997, 2.86112 13.0757, 2.86112 12.8014, 2.7449 12.664, 2.51189 12.6635, 2.29834 12.664, 2.10484 12.7253, 1.93194 12.8472, 1.75904 12.9698, 1.6016 13.1392, 1.46019 13.3556, 1.31878 13.5726, 1.19111 13.8291, 1.07775 14.1251, 0.964397 14.4216, 0.870505 14.7371, 0.794934 15.0726, 0.72566 15.238, 0.609441 15.3233, 0.445703 15.3291 L 0.228722 15.3291 C 0.0775793 15.3296, 0.00200802 15.2535, 0.00200802 15.1001 L 0.00200802 15.0359 C 0.0901745 14.7004, 0.206967 14.3575, 0.351239 14.006, 0.496084 13.655, 0.678715 13.3362, 0.898558 13.0488, 1.11897 12.7619, 1.37088 12.5238, 1.6537 12.3343, 1.93652 12.1453, 2.26056 12.0503, 2.62525 12.0497, 2.94013 12.0503, 3.20863 12.1179, 3.43191 12.2518, 3.65519 12.3864, 3.82523 12.565, 3.94145 12.7877, 4.05824 13.011, 4.12236 13.2623, 4.13496 13.5428 L 4.13496 13.607 C 4.13496 13.8703, 4.08171 14.1417, 3.97408 14.4222, 3.79202 14.8991, 3.61168 15.3863, 3.43191 15.8838, 3.25272 16.3819, 3.11303 16.829, 3.01226 17.2258, 2.9115 17.6231, 2.84223 18.0164, 2.80444 18.4069, 2.77925 18.5111, 2.76379 18.6244, 2.7575 18.7458, 2.7575 18.9845, 2.79872 19.2198, 2.88001 19.4511, 2.93669 19.6595, 3.04032 19.8244, 3.19146 19.9464, 3.3426 20.0689, 3.5218 20.1296, 3.72905 20.129, 4.13209 20.1296, 4.48419 20.0105, 4.7859 19.7723, 5.08818 19.5341, 5.35211 19.2227, 5.57825 18.8374 L 7.09712 12.9291 C 7.15437 12.7035, 7.26887 12.5375, 7.44177 12.4304, 7.61467 12.324, 7.78929 12.2701, 7.96505 12.2696, 8.14768 12.2701, 8.29882 12.3251, 8.41847 12.4345, 8.50034 12.5146, 8.54099 12.6211, 8.54099 12.7551, 8.54099 12.8226, 8.53469 12.893, 8.5221 12.9657 Z" stroke="none" fill="#000000" />
			<polyline points="-6.566 -1.9698 6.566 -1.9698" fill="none" stroke="#000000" stroke-width="0.750400007" stroke-linecap="round" stroke-linejoin="round" transform="matrix(1 0 0 1 20.5454 14.8877)" />
			<polyline points="-6.566 1.9698 6.566 1.9698" fill="none" stroke="#000000" stroke-width="0.750400007" stroke-linecap="round" stroke-linejoin="round" transform="matrix(1 0 0 1 20.5454 14.8877)" />
			<polyline points="99.1116 2.814 49.1544 2.814" fill="none" stroke="#000000" stroke-width="0.750400007" stroke-linecap="round" stroke-linejoin="round" />
			<polyline points="49.1544 2.814 39.1891 24.0316" fill="none" stroke="#000000" stroke-width="0.750400007" stroke-linecap="round" stroke-linejoin="round" />
			<polyline points="39.1891 24.0316 35.5534 13.754" fill="none" stroke="#000000" stroke-width="0.750400007" stroke-linecap="round" stroke-linejoin="round" />
			<polyline points="35.5534 13.754 33.6774 15.2629" fill="none" stroke="#000000" stroke-width="0.750400007" stroke-linecap="round" stroke-linejoin="round" />
			<polyline points="33.6774 15.2629 33.6774 15.2629" fill="none" stroke="#000000" stroke-width="0.750400007" stroke-linecap="round" stroke-linejoin="round" />
			<polyline points="33.6774 15.2629 36.3038 13.1504" fill="none" stroke="#000000" stroke-width="0.750400007" stroke-linecap="round" stroke-linejoin="round" />
			<polyline points="36.3038 13.1504 39.7389 22.8609" fill="none" stroke="#000000" stroke-width="0.750400007" stroke-linecap="round" stroke-linejoin="round" />
			<ellipse cx="49.154367178678513" cy="2.8140003383159637" rx="0.37520000338554382" ry="0.37520000338554382" stroke="none" fill="#000000" />
			<ellipse cx="39.189058035612106" cy="24.031577795743942" rx="0.37520000338554382" ry="0.37520000338554382" stroke="none" fill="#000000" />
			<ellipse cx="36.303769797086716" cy="13.150382727384567" rx="0.37520000338554382" ry="0.37520000338554382" stroke="none" fill="#000000" />
			<polygon points="36.3038 13.1504 39.7389 22.8609 39.1891 24.0316 35.5534 13.754" stroke="none" fill="#000000" />
			<path d="M 57.4694 20.4472 C 56.3355 20.4113, 55.2318 20.3933, 54.1591 20.3933, 53.0869 20.3933, 51.9833 20.4113, 50.8489 20.4472 L 50.8489 19.6752, 51.4873 19.6752 C 51.6904 19.6758, 51.8818 19.6729, 52.0602 19.6668, 52.2392 19.6612, 52.4086 19.646, 52.5691 19.6219, 52.7295 19.5983, 52.8681 19.5742, 52.9848 19.5495, 53.0835 19.5321, 53.1655 19.4771, 53.23 19.384, 53.2951 19.2914, 53.327 19.1882, 53.327 19.0737 L 53.327 8.95671 C 53.019 9.10707, 52.6398 9.22097, 52.1898 9.2984, 51.7398 9.37638, 51.2466 9.4151, 50.7103 9.41453 L 50.7103 8.65149 C 51.4503 8.65205, 52.1331 8.56397, 52.7587 8.38723, 53.3843 8.21106, 53.9251 7.88004, 54.3813 7.39472 L 54.668 7.39472 C 54.8711 7.39528, 54.9726 7.49403, 54.9726 7.69096 L 54.9726 19.0737 C 54.9726 19.1938, 55.0035 19.2987, 55.0652 19.3885, 55.1269 19.4783, 55.2167 19.5321, 55.3334 19.5495, 55.4321 19.5742, 55.5589 19.5983, 55.7127 19.6219, 55.867 19.646, 56.0409 19.6612, 56.235 19.6668, 56.4291 19.6729, 56.6188 19.6758, 56.8034 19.6752 L 57.4694 19.6752, 57.4694 20.4472 Z" stroke="none" fill="#000000" />
			<polyline points="-6.566 0 6.566 0" fill="none" stroke="#000000" stroke-width="0.750400007" stroke-linecap="round" stroke-linejoin="round" transform="matrix(1 0 0 1 69.55 14.8877)" />
			<path d="M 90.6828 13.5795 C 90.6141 13.8549, 90.4738 14.061, 90.2631 14.1984, 90.0525 14.3358, 89.8406 14.4045, 89.6265 14.4039, 89.4067 14.4045, 89.224 14.334, 89.0792 14.1932, 88.9727 14.0902, 88.916 13.9556, 88.9092 13.7902, 88.9092 13.7237, 88.9218 13.6379, 88.9469 13.5337, 89.0162 13.3024, 89.1233 13.1266, 89.2676 13.0075, 89.4124 12.8885, 89.5132 12.8198, 89.5698 12.8009, 89.4508 12.7098, 89.2051 12.664, 88.8336 12.6635, 88.5067 12.664, 88.2141 12.8335, 87.9565 13.1724, 87.6989 13.5113, 87.5065 13.919, 87.3806 14.3947 L 86.5126 17.7473 C 86.4245 18.084, 86.3586 18.4046, 86.3145 18.7092, 86.2894 18.8134, 86.2768 18.905, 86.2768 18.984, 86.2768 19.174, 86.3083 19.3538, 86.3712 19.5244, 86.4342 19.7082, 86.5287 19.8548, 86.6546 19.9647, 86.7806 20.0746, 86.9409 20.1296, 87.1355 20.129, 87.3874 20.1296, 87.6296 20.0643, 87.862 19.9326, 88.0951 19.8015, 88.3092 19.6246, 88.5038 19.4013, 88.6985 19.1786, 88.8714 18.9193, 89.0225 18.6227, 89.1737 18.3267, 89.2927 18.0227, 89.3809 17.7107, 89.4187 17.5527, 89.5258 17.4731, 89.7015 17.4725 L 89.9185 17.4725 C 90.0822 17.4731, 90.1641 17.5344, 90.1641 17.6557, 90.1641 17.693, 90.1549 17.7267, 90.136 17.7565, 90.0479 18.1235, 89.9048 18.4853, 89.7067 18.8426, 89.5086 19.1998, 89.2779 19.5158, 89.0134 19.7906, 88.7489 20.0654, 88.4489 20.2916, 88.1122 20.4679, 87.7756 20.6454, 87.4155 20.7336, 87.0319 20.7336, 86.642 20.7336, 86.3054 20.65, 86.0226 20.4817, 85.7397 20.3145, 85.5096 20.0958, 85.3333 19.8267, 85.2772 19.7603, 85.2331 19.6916, 85.2016 19.6212, 85.1701 19.5513, 85.1604 19.5404, 85.173 19.5885, 85.0224 19.8393, 84.7837 20.0929, 84.4562 20.3494, 84.1293 20.6059, 83.752 20.7336, 83.3238 20.7336, 83.085 20.7336, 82.8491 20.7032, 82.6161 20.642, 82.3837 20.5813, 82.1805 20.4868, 82.0076 20.3586, 81.8347 20.2303, 81.7041 20.0746, 81.616 19.8908, 81.5724 19.7815, 81.5507 19.6624, 81.5501 19.5336, 81.5507 19.4425, 81.5633 19.3355, 81.5879 19.213, 81.6572 18.9387, 81.7986 18.7326, 82.0127 18.5952, 82.2268 18.4578, 82.4404 18.3891, 82.6539 18.3886, 82.8743 18.3891, 83.0633 18.4595, 83.2201 18.5992, 83.3272 18.7034, 83.3804 18.838, 83.3804 19.0023, 83.3804 19.0882, 83.3678 19.174, 83.3427 19.2588, 83.2865 19.4729, 83.1841 19.6458, 83.0364 19.7769, 82.8886 19.9086, 82.7827 19.9801, 82.7198 19.9916, 82.8394 20.0901, 83.0816 20.1359, 83.4463 20.129, 83.7738 20.1296, 84.0692 19.959, 84.3331 19.6166, 84.5976 19.2748, 84.7894 18.8655, 84.909 18.3886 L 85.7861 15.0176 C 85.8743 14.7004, 85.9436 14.389, 85.9939 14.0833, 86.0065 13.986, 86.0128 13.8944, 86.0128 13.8085, 86.0128 13.6196, 85.9848 13.4426, 85.9275 13.2772, 85.8651 13.0946, 85.7678 12.9469, 85.6356 12.8335, 85.5033 12.7207, 85.3396 12.664, 85.1449 12.6635, 84.893 12.664, 84.6491 12.7299, 84.4132 12.861, 84.1774 12.9927, 83.9621 13.1678, 83.7674 13.3877, 83.5728 13.6075, 83.3999 13.8629, 83.2488 14.1526, 83.0976 14.4428, 82.9877 14.7497, 82.9178 15.0726, 82.8491 15.238, 82.7329 15.3233, 82.5692 15.3291 L 82.3614 15.3291 C 82.2108 15.3296, 82.1352 15.2535, 82.1352 15.1001 L 82.1352 15.0359 C 82.2297 14.6581, 82.3745 14.29, 82.5692 13.9327, 82.7638 13.5755, 82.9969 13.2594, 83.2671 12.9846, 83.5379 12.7098, 83.8402 12.4854, 84.1734 12.3114, 84.5066 12.1373, 84.8684 12.0503, 85.2577 12.0497, 85.6356 12.0503, 85.9688 12.1327, 86.2579 12.2976, 86.5476 12.4625, 86.7834 12.6824, 86.9655 12.9566, 87.0033 13.0241, 87.0382 13.0963, 87.0697 13.1724, 87.1012 13.2491, 87.1103 13.2686, 87.0977 13.2314, 87.2552 12.9635, 87.4974 12.6995, 87.8243 12.4396, 88.1517 12.1803, 88.5256 12.0503, 88.9469 12.0497, 89.1863 12.0503, 89.4233 12.0795, 89.6591 12.1373, 89.895 12.1957, 90.1 12.2885, 90.2729 12.4167, 90.4458 12.5449, 90.5734 12.7035, 90.6547 12.8925, 90.6988 13.003, 90.7206 13.1283, 90.7206 13.268, 90.7206 13.3602, 90.708 13.4638, 90.6828 13.5795 Z" stroke="none" fill="#000000" />
			<path d="M 2.39126 3.19713 L -1.90934 3.19713, -1.90934 2.915 C -1.90934 2.8948, -1.89876 2.86402, -1.8776 2.82266 L -0.149855 0.945196 C 0.0543709 0.71981, 0.261161 0.488975, 0.470837 0.253009, 0.680513 0.0170434, 0.868388 -0.224052, 1.03382 -0.470277, 1.19925 -0.716502, 1.33134 -0.970422, 1.43009 -1.23204, 1.52884 -1.49365, 1.57789 -1.76809, 1.57789 -2.05567, 1.57789 -2.29805, 1.54615 -2.52472, 1.48267 -2.73503, 1.41919 -2.94535, 1.32782 -3.13002, 1.20791 -3.28904, 1.08832 -3.44806, 0.938601 -3.5763, 0.759062 -3.67377, 0.579523 -3.77123, 0.371449 -3.81996, 0.135484 -3.82028, -0.216541 -3.81996, -0.527528 -3.7148, -0.797157 -3.50449, -1.06647 -3.29417, -1.24536 -3.06237, -1.33353 -2.80974, -1.35084 -2.80268, -1.32263 -2.79915, -1.24889 -2.79948 L -1.15912 -2.79948 C -1.05332 -2.77511, -0.961949 -2.73824, -0.884362 -2.68887, -0.806775 -2.63917, -0.741693 -2.57088, -0.688793 -2.48368, -0.635893 -2.39647, -0.609603 -2.29132, -0.609603 -2.16852, -0.609603 -1.96302, -0.676289 -1.8056, -0.810302 -1.69627, -0.944315 -1.58663, -1.09404 -1.53212, -1.25947 -1.53244, -1.41785 -1.53212, -1.56597 -1.58663, -1.70319 -1.69627, -1.84041 -1.8056, -1.90934 -1.96302, -1.90934 -2.16852, -1.90934 -2.45547, -1.85291 -2.72734, -1.74006 -2.98382, -1.6272 -3.24031, -1.47428 -3.46249, -1.28063 -3.65068, -1.08698 -3.83856, -0.858072 -3.98732, -0.593893 -4.09697, -0.329715 -4.20629, -0.0495055 -4.26112, 0.246413 -4.26144, 0.612865 -4.26112, 0.948539 -4.20725, 1.25311 -4.09953, 1.55769 -3.99181, 1.81738 -3.83695, 2.03219 -3.63529, 2.24699 -3.43331, 2.41531 -3.19991, 2.53682 -2.93509, 2.65833 -2.66995, 2.71892 -2.37692, 2.71892 -2.05567, 2.71892 -1.6998, 2.63813 -1.37214, 2.4759 -1.07302, 2.314 -0.77357, 2.1133 -0.499131, 1.87381 -0.2497, 1.63431 5.126e-005, 1.37975 0.235055, 1.11012 0.455632, 0.840816 0.676208, 0.596835 0.890693, 0.378503 1.09909 L -0.836912 2.24301, 0.753611 2.24301 C 0.97547 2.24333, 1.18258 2.24172, 1.3743 2.2382, 1.56635 2.23499, 1.72921 2.22794, 1.86323 2.21768, 1.99724 2.20742, 2.06585 2.20069, 2.06906 2.19684, 2.09727 2.17312, 2.12388 2.12534, 2.14857 2.05353, 2.17325 1.98171, 2.19602 1.89707, 2.21718 1.79961, 2.23833 1.70215, 2.2595 1.60308, 2.28066 1.50209, 2.30181 1.40142, 2.32105 1.29081, 2.33868 1.1709 L 2.7295 1.1709 Z" stroke="none" fill="#000000" transform="matrix(1.12 0 0 1 95.4885 9.78886)" />
			<rect />
		</svg>
	</g>
	<path d="M -0 -0 L -0.000498483 -307.299 C 169.716 -307.299, 307.298 -169.717, 307.299 -9.15821e-005, 307.299 -3.05274e-005, 307.299 3.05274e-005, 307.299 9.15821e-005 Z" stroke="none" fill="#808080" fill-opacity="0.490196049" transform="matrix(0.277778 0 0 0.277778 147.636 160.225)" />
	<path d="M -0 -0 L -0.000498483 -307.299 C 169.716 -307.299, 307.298 -169.717, 307.299 -9.15821e-005, 307.299 -3.05274e-005, 307.299 3.05274e-005, 307.299 9.15821e-005 Z" fill="none" stroke="#000000" stroke-width="4.80000019" stroke-linecap="round" stroke-linejoin="round" transform="matrix(0.277778 0 0 0.277778 147.636 160.225)" />
	<path d="M -0 -0 L -307.299 0.000196354 C -307.299 -169.716, -169.717 -307.299, -0.000310757 -307.299 Z" fill="none" stroke="#000000" stroke-width="4.80000019" stroke-linecap="round" stroke-linejoin="round" transform="matrix(0.277778 0 0 0.277778 147.636 160.225)" />
	<g transform="matrix(1 0 -0 1 130.027 163.379)">
		<svg width="42.0378685" height="48.0957298">
			<defs />
			<path d="M 12.2634 10.4122 C 12.0367 11.2984, 11.6703 12.1532, 11.1642 12.9776, 10.6581 13.802, 10.0209 14.556, 9.25376 15.2396, 8.56217 15.8567, 7.80531 16.3474, 6.98433 16.7103, 6.16336 17.0733, 5.34123 17.2548, 4.51739 17.2548, 3.68725 17.2548, 2.94929 17.0722, 2.30464 16.7058, 1.65999 16.3394, 1.14588 15.8447, 0.762298 15.2212, 0.340931 14.5319, 0.0987594 13.7682, 0.0357833 12.9312, 0.0105929 12.7303, -0.00200236 12.5287, -0.00200236 12.3266, -0.00200236 11.698, 0.0798666 11.0477, 0.243032 10.3755, 0.482341 9.4784, 0.85161 8.60704, 1.35198 7.76087, 1.85236 6.91528, 2.49185 6.1504, 3.27161 5.46568, 3.96377 4.84966, 4.72006 4.35329, 5.54104 3.97773, 6.36202 3.60216, 7.19044 3.41438, 8.02687 3.41381, 8.85701 3.41438, 9.59154 3.60388, 10.2299 3.98231, 10.8688 4.36131, 11.3795 4.86168, 11.7631 5.484, 12.1844 6.17445, 12.4329 6.9439, 12.5085 7.79236, 12.5211 8.00075, 12.5274 8.20514, 12.5274 8.40609, 12.5274 9.0599, 12.4398 9.72859, 12.2634 10.4122 Z M 10.3576 5.79545 C 10.1503 5.28305, 9.83887 4.86626, 9.42323 4.54566, 9.00816 4.22505, 8.49862 4.06475, 7.89462 4.06418, 7.2975 4.06475, 6.70323 4.22849, 6.11183 4.55482, 5.521 4.88172, 4.99257 5.30423, 4.52655 5.82293, 3.94144 6.45269, 3.47943 7.13512, 3.13993 7.87079, 2.80043 8.60704, 2.53593 9.35302, 2.34701 10.1099, 2.12716 10.9349, 1.99205 11.7381, 1.94167 12.519, 1.92907 12.6661, 1.92278 12.8127, 1.92278 12.9587, 1.92278 13.5701, 2.02354 14.1684, 2.22449 14.7541, 2.41971 15.2739, 2.71856 15.709, 3.12104 16.06, 3.52351 16.4115, 4.02675 16.5867, 4.63017 16.5861, 5.25306 16.5867, 5.86222 16.4081, 6.45648 16.0508, 7.05075 15.6936, 7.58375 15.2522, 8.0555 14.7266, 8.6658 14.019, 9.14041 13.2707, 9.4799 12.4829, 9.81997 11.6952, 10.0965 10.8919, 10.31 10.0732, 10.5053 9.31066, 10.6278 8.55952, 10.6782 7.81984 L 10.6782 7.49924 C 10.6782 6.88894, 10.5717 6.32101, 10.3576 5.79545 Z" stroke="none" fill="#000000" />
			<rect />
		</svg>
	</g>
	<g transform="matrix(1 0 -0 1 176.819 114.402)">
		<svg width="36.0099602" height="48.0957298">
			<defs />
			<path d="M 9.88524 7.99388 C 9.84746 8.16564, 9.75356 8.25094, 9.60242 8.25037, 9.58983 8.26296, 9.55834 8.26926, 9.50796 8.26869, 9.47704 8.26926, 9.45185 8.26296, 9.43239 8.25037 L 9.34766 8.25037 C 9.18449 8.25094, 9.10262 8.18968, 9.10262 8.06717 L 9.10262 8.00304 C 9.17819 7.55191, 9.21541 7.1334, 9.21541 6.7481 L 9.21541 6.40002 C 9.17762 5.93056, 9.07228 5.52579, 8.89938 5.18687, 8.72648 4.84794, 8.47343 4.58573, 8.14023 4.39909, 7.80703 4.21303, 7.38566 4.11971, 6.87613 4.11914, 6.58072 4.11971, 6.28072 4.18383, 5.97557 4.31207, 5.67043 4.44032, 5.38589 4.61436, 5.12139 4.83363, 4.83284 5.07237, 4.59697 5.34259, 4.41434 5.64488, 4.23228 5.94716, 4.10003 6.25689, 4.01816 6.57406, 3.95519 6.80077, 3.92084 7.01718, 3.91397 7.22443, 3.91397 7.51183, 3.97694 7.78664, 4.10289 8.04884, 4.28552 8.4891, 4.61243 8.77021, 5.08418 8.89158 L 7.25341 9.49615 C 7.64959 9.61294, 7.98795 9.79786, 8.2679 10.0509, 8.54786 10.3045, 8.75854 10.604, 8.89995 10.9486, 9.04136 11.2938, 9.12438 11.6705, 9.14957 12.0793 L 9.14957 12.2442 C 9.14957 12.5992, 9.09919 12.9621, 8.99842 13.3343, 8.86675 13.8478, 8.65606 14.3424, 8.36637 14.8188, 8.07726 15.2951, 7.71886 15.7228, 7.2912 16.1006, 6.88243 16.4493, 6.43473 16.7287, 5.94695 16.9388, 5.45974 17.1495, 4.97082 17.2548, 4.48018 17.2548, 3.7571 17.2548, 3.14108 17.1392, 2.63154 16.9067, 2.12201 16.6754, 1.74473 16.3823, 1.49912 16.0273 L 0.565356 17.1357 C 0.48406 17.2153, 0.398756 17.2548, 0.310589 17.2548 L 0.254483 17.2548 C 0.0976158 17.2548, 0.0123118 17.1941, -0.00028336 17.0716, -0.00028336 17.035, 0.0094493 17.0018, 0.0277696 16.9708 L 1.12184 12.6839 C 1.15962 12.5133, 1.27012 12.4251, 1.45217 12.4182 L 1.65999 12.4182 C 1.73557 12.4188, 1.80427 12.4492, 1.86724 12.5098, 1.89243 12.5591, 1.90503 12.602, 1.90503 12.6381, 1.90503 12.6633, 1.89873 12.6936, 1.88614 12.7297, 1.77278 13.1699, 1.7161 13.5793, 1.7161 13.9571, 1.7161 14.5623, 1.86438 15.0753, 2.1598 15.4961, 2.63154 16.1745, 3.45539 16.5134, 4.63132 16.5128, 4.92674 16.5134, 5.2273 16.4447, 5.53188 16.3073, 5.83703 16.1699, 6.12156 15.985, 6.38549 15.7525, 6.67518 15.4846, 6.9185 15.1869, 7.11659 14.86, 7.31467 14.5337, 7.46124 14.1959, 7.55513 13.8472, 7.6181 13.5667, 7.64959 13.3045, 7.64959 13.0595, 7.64959 12.7549, 7.60894 12.4618, 7.52707 12.1801, 7.33872 11.7106, 6.98949 11.4083, 6.47995 11.2732 L 4.33877 10.6686 C 3.95519 10.5656, 3.62542 10.3961, 3.34833 10.1608, 3.0718 9.9261, 2.85654 9.64672, 2.70254 9.32268, 2.54853 8.99921, 2.45865 8.64196, 2.43346 8.25037 L 2.43346 8.04884 C 2.43346 7.74427, 2.47124 7.42366, 2.54624 7.08703, 2.67849 6.59925, 2.88917 6.13208, 3.17829 5.6861, 3.46798 5.24068, 3.82637 4.84622, 4.25404 4.50386, 4.65651 4.17467, 5.09849 3.91074, 5.5794 3.71208, 6.0603 3.514, 6.53663 3.41438, 7.00838 3.41381, 7.65646 3.41438, 8.19061 3.53518, 8.61198 3.7762, 9.03335 4.0178, 9.3385 4.30291, 9.52685 4.63211 L 10.4326 3.54205 C 10.4829 3.45732, 10.5648 3.41438, 10.6776 3.41381 L 10.7623 3.41381 C 10.9135 3.41438, 10.989 3.48766, 10.989 3.63365 L 10.989 3.70693 Z" stroke="none" fill="#000000" />
			<rect />
		</svg>
	</g>
</svg>
