<svg width="200" height="200" xmlns="http://www.w3.org/2000/svg" xmlns:xlink="http://www.w3.org/1999/xlink" xml:space="preserve" overflow="hidden"><g transform="translate(-540 -260)"><path d="M704.75 285 575.25 285C567.292 285 560.833 291.458 560.833 299.417L560.833 383.083C560.833 391.042 567.292 397.5 575.25 397.5L602.792 397.5C605.292 400.875 606.417 403.5 606.417 405.875 606.417 413.917 602.5 422.125 594.333 430.542 592.375 432.583 592.458 435.792 594.458 437.75 596.458 439.708 599.708 439.667 601.667 437.667 611.542 427.458 616.625 416.875 616.625 405.917 616.625 403.042 615.958 400.333 614.667 397.542L643.583 397.542C646.083 400.917 647.208 403.542 647.208 405.917 647.208 413.958 643.292 422.167 635.125 430.583 633.167 432.625 633.25 435.833 635.25 437.792 637.25 439.75 640.5 439.708 642.458 437.708 652.333 427.5 657.417 416.917 657.417 405.958 657.417 403.083 656.75 400.375 655.458 397.583L684.375 397.583C686.875 400.958 688 403.583 688 405.958 688 414 684.083 422.208 675.917 430.625 673.958 432.667 674.042 435.875 676.042 437.833 678.042 439.792 681.292 439.75 683.25 437.75 693.125 427.542 698.208 416.958 698.208 406 698.208 403.125 697.542 400.417 696.25 397.625L704.625 397.625C712.583 397.625 719.042 391.167 719.042 383.208L719.042 299.417C719.167 291.458 712.708 285 704.75 285ZM706.667 383.083C706.667 384.125 705.792 385 704.75 385L687.333 385C686.708 384.292 685.875 383.417 684.625 382.042 676.5 373.208 673.625 368.708 673.625 363.708 673.625 355.208 676.5 348.708 682.375 343.792L690.167 349.792 693.208 322.5 667.25 332.167 674.125 337.458C667.042 344.167 663.417 353.042 663.417 363.708 663.417 371.167 666.292 376.625 673.542 385L646.458 385C645.833 384.292 645 383.417 643.75 382.042 635.625 373.208 632.75 368.708 632.75 363.708 632.75 355.208 635.625 348.708 641.5 343.792L649.292 349.792 652.375 322.5 626.417 332.167 633.292 337.458C626.208 344.167 622.583 353.042 622.583 363.708 622.583 371.167 625.458 376.625 632.708 385L605.625 385C605 384.292 604.167 383.417 602.917 382.042 594.792 373.208 591.917 368.708 591.917 363.708 591.917 355.208 594.792 348.708 600.667 343.792L608.458 349.792 611.542 322.5 585.583 332.167 592.458 337.458C585.375 344.167 581.75 353.042 581.75 363.708 581.75 371.167 584.625 376.625 591.875 385L575.208 385C574.208 385 573.333 384.125 573.333 383.083L573.333 299.417C573.333 298.375 574.208 297.5 575.25 297.5L704.75 297.5C705.792 297.5 706.667 298.375 706.667 299.417L706.667 383.083Z"/></g></svg>