<svg width="688" height="687" xmlns="http://www.w3.org/2000/svg" xmlns:xlink="http://www.w3.org/1999/xlink" xml:space="preserve" overflow="hidden"><g transform="translate(-1856 -894)"><path d="M2040.16 1204.49C2045.11 1205.6 2049.62 1208.59 2052.55 1213.2L2180.25 1414.97 2195.99 1439.87C2196.72 1439.83 2197.45 1439.74 2198.23 1439.74 2220.76 1439.74 2239 1457.91 2239 1480.37 2239 1502.83 2220.76 1521 2198.23 1521 2175.73 1521 2157.45 1502.83 2157.45 1480.37 2157.45 1473.3 2159.3 1466.66 2162.48 1460.87L2140.42 1426.03C2133.19 1414.61 2139.36 1424.3 2119.13 1392.34L2019.04 1234.29C2013.23 1225.07 2015.99 1212.9 2025.23 1207.03 2029.86 1204.14 2035.22 1203.38 2040.16 1204.49Z" fill="#040000" fill-rule="evenodd"/><path d="M2026 1021.71 1991.67 1002C1980.79 1020.43 1975 1041.55 1975 1063L2014.77 1063C2014.77 1048.44 2018.66 1034.18 2026 1021.71Z" fill="#040000" fill-rule="evenodd"/><path d="M2097.07 980.755C2100.24 980.755 2103.41 980.928 2106.54 981.273L2111 941.777C2106.41 941.259 2101.74 941 2097.07 941 2063.46 941 2031.02 955.158 2008 979.806L2036.76 1007C2052.58 990.079 2074.01 980.755 2097.07 980.755Z" fill="#040000" fill-rule="evenodd"/><path d="M2176.59 1039 2223.45 1039C2231.11 1014.1 2250.39 993.972 2275 985.259L2261.75 948C2236.19 957.1 2214.54 974.442 2200 996.72 2185.46 974.442 2163.86 957.1 2138.3 948L2125 985.259C2149.66 993.972 2168.93 1014.1 2176.59 1039Z" fill="#040000" fill-rule="evenodd"/><path d="M2385.26 1063 2425 1063C2425 1041.55 2419.26 1020.47 2408.35 1002L2374 1021.71C2381.38 1034.18 2385.26 1048.44 2385.26 1063Z" fill="#040000" fill-rule="evenodd"/><path d="M2302.93 980.712C2326.03 980.712 2347.42 990.036 2363.24 1007L2392 979.806C2368.98 955.115 2336.54 941 2302.93 941 2298.3 941 2293.59 941.259 2289 941.777L2293.46 981.273C2296.59 980.885 2299.76 980.712 2302.93 980.712Z" fill="#040000" fill-rule="evenodd"/><path d="M2220 1175 2180 1175 2180 1271 2180 1271 2180 1271 2220 1271 2220 1175 2220 1175Z" fill="#040000" fill-rule="evenodd"/><path d="M2180 1294 2180 1294 2180 1348 2220 1348 2220 1294 2220 1294Z" fill="#040000" fill-rule="evenodd"/><rect x="2180" y="1054" width="39.9998" height="95.9999" fill="#040000"/><path d="M1955.5 1143.65C1955.5 1129.21 1967.21 1117.5 1981.65 1117.5L2419.35 1117.5C2433.79 1117.5 2445.5 1129.21 2445.5 1143.65L2445.5 1364.35C2445.5 1378.79 2433.79 1390.5 2419.35 1390.5L1981.65 1390.5C1967.21 1390.5 1955.5 1378.79 1955.5 1364.35Z" stroke="#000000" stroke-width="36.6667" stroke-miterlimit="8" fill="none" fill-rule="evenodd"/></g></svg>