<svg width="743" height="743" xmlns="http://www.w3.org/2000/svg" xmlns:xlink="http://www.w3.org/1999/xlink" xml:space="preserve" overflow="hidden"><g transform="translate(-1560 -574)"><path d="M383.792 104.792 395.157 104.72 406.522 104.792C420.728 103.896 432.804 100.19 444.347 95.1366L452.69 91.0371 455.771 89.9326 455.771 89.523 461.461 86.7269C489.985 71.6338 520.174 52.6767 577 52.6767L577 0 0 0 0 89.9322 21.3685 97.592C41.4355 103.775 57.7727 105.688 71.9793 104.792 121.702 101.655 145.32 64.1068 211.358 54.7688L230.809 53.46 234.682 53.6337C281.504 57.9734 308.023 76.1759 334.542 89.6874L334.542 89.9326 337.924 91.1448 357.746 99.6866C365.796 102.348 374.32 104.194 383.792 104.792Z" fill="#ED0303" fill-rule="evenodd" transform="matrix(1 0 0 -1 1643 1192)"/><path d="M2089.3 699.176 2028.5 699.297 2212.97 699 2153.17 699.176 2153.17 792.694 2220 792.694 2220 1192 1643 1192 1643 792.694 2089.3 792.694 2089.3 699.176Z" stroke="#ED0303" stroke-width="34.375" stroke-miterlimit="8" fill="none" fill-rule="evenodd"/></g></svg>