<?xml version="1.0" standalone="no"?><!DOCTYPE svg PUBLIC "-//W3C//DTD SVG 1.1//EN" "http://www.w3.org/Graphics/SVG/1.1/DTD/svg11.dtd"><svg class="icon" width="200px" height="199.80px" viewBox="0 0 1025 1024" version="1.1" xmlns="http://www.w3.org/2000/svg"><path d="M959.04 522.24a522.112 522.112 0 0 0-8.128-28.224 38.4 38.4 0 0 0-24.32-26.816c-19.712-3.392-19.584-2.496-41.408-7.296a109.632 109.632 0 0 1-42.304-22.784c-22.784-16.192-15.168-10.88-76.16-60.288a97.152 97.152 0 0 0-64-26.688c-37.952-0.64-75.904 0-113.92 0v-0.64c-37.312 0-74.88-2.432-111.872 0.96a136.512 136.512 0 0 0-61.504 21.248c-36.864 24.768-60.224 52.48-96.64 78.144a188.736 188.736 0 0 1-57.6 26.816c-45.952 12.8-102.4 24.832-148.864 36.416a38.4 38.4 0 0 0-21.184 12.8c-2.688 3.84-3.456 7.488-5.76 11.264L12.8 537.6a204.8 204.8 0 0 1 26.944-48.896 93.248 93.248 0 0 1 45.76-31.232c50.688-15.232 112.32-29.056 163.648-42.432a86.592 86.592 0 0 0 29.76-12.8c36.8-27.456 63.488-52.736 99.136-81.664a144.832 144.832 0 0 1 90.752-33.216c84.48-0.832 146.688 0.832 231.168 2.176a157.952 157.952 0 0 1 115.84 51.712c23.04 18.624 36.672 29.696 59.328 49.152a73.088 73.088 0 0 0 37.248 16.192c32 6.4 21.312 3.264 40.896 7.168a86.208 86.208 0 0 1 63.296 82.816c2.112 9.6 3.968 17.024 5.568 24.768zM68.096 591.296a100.416 100.416 0 0 0-1.216 22.08 23.104 23.104 0 0 0 22.016 16.192c18.688 3.072 33.28 3.52 51.776 7.168a44.8 44.8 0 0 1 28.48 20.544 54.272 54.272 0 0 0 92.544 0 49.6 49.6 0 0 1 33.792-17.536c150.016-1.472 285.376-1.28 435.2-1.856a46.848 46.848 0 0 1 42.048 23.104 50.048 50.048 0 0 0 43.904 27.904 41.664 41.664 0 0 0 44.032-26.752 47.68 47.68 0 0 1 40-24.512c16.704-1.408 24.64-1.088 40.384-2.304a22.784 22.784 0 0 0 21.952-19.2c0.96-15.808 1.408-28.352 1.472-39.296l61.888-1.024c0 12.416-0.448 27.264-1.408 46.464-2.496 51.2-17.536 69.12-84.544 76.416a48.32 48.32 0 0 0-45.184 20.032 105.6 105.6 0 0 1-163.392-4.928 30.656 30.656 0 0 0-27.84-14.016c-32.768 0.704-65.536 0.512-98.368 0.64s-64 0-96.384 0v0.96c-64.896 0-129.792-0.384-194.688 0.448a25.6 25.6 0 0 0-20.416 10.368 106.176 106.176 0 0 1-161.664-0.832 36.288 36.288 0 0 0-19.2-15.296c-24.32-7.36-40.768-5.056-70.4-12.16A70.4 70.4 0 0 1 3.52 618.24a224 224 0 0 1-0.832-25.6z m663.04-144H486.784a36.8 36.8 0 0 0-41.344 36.096 36.032 36.032 0 0 0 40.448 34.432c38.72 0.512 92.032 0 132.928 0l3.072-40 163.392 72.96c-56.896 25.6-108.8 48.64-159.616 72.32a401.152 401.152 0 0 1-8.512-40c-29.312 0-107.648 0.704-136.96 0a102.016 102.016 0 0 1-101.632-97.728A90.88 90.88 0 0 1 473.6 393.664c57.6-3.008 186.432 0.768 244.352 1.088a14.72 14.72 0 0 1 12.8 8.64 423.744 423.744 0 0 1 0.576 43.84z" /></svg>