<?xml version="1.0" standalone="no"?><!DOCTYPE svg PUBLIC "-//W3C//DTD SVG 1.1//EN" "http://www.w3.org/Graphics/SVG/1.1/DTD/svg11.dtd"><svg class="icon" width="200px" height="200.00px" viewBox="0 0 1024 1024" version="1.1" xmlns="http://www.w3.org/2000/svg"><path d="M832.896 287.968C741.472 233.792 628.8 222.4 550.4 222.4c-8.608 0-17.504 0.224-26.464 0.704l-15.712 0.832-6.368 14.368c-77.824 175.808-76.96 379.872 2.336 559.904l6.304 14.272 19.232 1.184c7.136 0.448 11.424 0.704 20.672 0.704 109.568 0 209.952-24.192 282.656-68.096C920.288 693.632 966.4 614.816 966.4 518.4c0-98.944-46.176-178.624-133.504-230.432zM550.4 763.2c-2.144 0-3.904 0-5.504-0.032-65.28-158.272-66.176-334.912-2.464-489.472 2.688-0.064 5.344-0.064 7.968-0.064 101.792 0 192.832 20.736 256.384 58.432C878.72 374.688 915.2 437.376 915.2 518.4c0 180.672-196.512 244.8-364.8 244.8zM92.8 451.616c90.656-31.968 181.344-63.936 272-95.936 30.88-10.88 30.944-58.912 0-48-90.656 31.968-181.344 63.936-272 95.936-30.88 10.912-30.944 58.912 0 48zM92.8 605.216c80-28.224 160-56.416 240-84.64 30.88-10.88 30.944-58.912 0-48-80 28.224-160 56.416-240 84.64-30.88 10.912-30.944 58.912 0 48zM92.8 758.816c90.656-31.968 181.344-63.936 272-95.936 30.88-10.88 30.944-58.912 0-48-90.656 31.968-181.344 63.936-272 95.936-30.88 10.912-30.944 58.912 0 48z" fill="#1BF609" /><path d="M256.576 845.088l-39.52-32.544c30.848-37.472 14.976-72.704-20.928-142.528l-4.48-8.736c-33.28-64.928-6.816-125.92 14.4-174.912 6.112-14.08 11.84-27.36 16.096-40.032 6.272-18.816-13.12-59.296-27.296-88.864-6.368-13.28-12.352-25.792-17.024-37.632-20.576-52.096 12.864-124.416 16.736-132.48l46.144 22.176L217.6 198.4l23.104 11.072c-10.88 22.816-24.64 67.808-15.264 91.552 4 10.144 9.632 21.888 15.584 34.304 19.936 41.6 42.496 88.736 29.696 127.168-4.928 14.816-11.424 29.76-17.696 44.224-19.584 45.152-38.048 87.808-15.808 131.232l4.448 8.672c35.232 68.544 68.544 133.312 14.912 198.464z" fill="#1BF609" /></svg>