<svg width="3139" height="2107" xmlns="http://www.w3.org/2000/svg" xmlns:xlink="http://www.w3.org/1999/xlink" xml:space="preserve" overflow="hidden"><defs><clipPath id="clip0"><rect x="554" y="216" width="3139" height="2107"/></clipPath></defs><g clip-path="url(#clip0)" transform="translate(-554 -216)"><path d="M557.5 830C557.5 626.483 722.483 461.5 926 461.5 1129.52 461.5 1294.5 626.483 1294.5 830 1294.5 1033.52 1129.52 1198.5 926 1198.5 722.483 1198.5 557.5 1033.52 557.5 830Z" stroke="#C00000" stroke-width="6.875" stroke-miterlimit="8" fill="#FFFFFF" fill-rule="evenodd"/><path d="M950.965 703 1099.69 703 1099.69 751.972 996.859 751.972 995.362 788.52C1004.42 785.359 1016.75 783.779 1032.36 783.779 1044.45 783.779 1055.68 785.917 1066.04 790.195 1076.4 794.472 1085.25 800.748 1092.59 809.022 1099.94 817.296 1105.4 827.334 1108.97 839.136 1112.55 850.938 1113.74 864.446 1112.55 879.66 1110.46 911.675 1101.03 935.402 1084.27 950.841 1067.5 966.28 1045.02 974 1016.83 974 1000.47 974 986.533 972.539 975.014 969.617 963.495 966.695 951.686 962.044 939.588 955.664L960.09 914.219C970.545 918.732 980.28 921.877 989.295 923.655 998.311 925.432 1007.49 926.321 1016.83 926.321 1030.3 926.321 1041.01 922.729 1048.96 915.547 1056.9 908.364 1062 895.385 1064.23 876.612 1065.34 868.865 1065.16 862.104 1063.68 856.329 1062.2 850.555 1059.9 845.86 1056.79 842.246 1053.68 838.632 1049.89 835.929 1045.42 834.138 1040.96 832.347 1036.02 831.451 1030.63 831.451 1017.32 831.451 1003.63 835.339 989.574 843.113L945.19 836.467ZM737 703 911.759 703 911.759 749.124C901.153 762.178 891.898 775.705 883.995 789.706 876.092 803.707 868.547 821.078 861.361 841.819 855.818 859.579 851.465 878.748 848.305 899.327 845.144 919.905 843.248 943.356 842.616 969.679L794.765 969.679C795.058 915.579 802.359 868.069 816.669 827.151 821.223 813.198 826.699 799.45 833.096 785.905 839.493 772.36 846.69 760.905 854.687 751.539L737 751.539Z" fill-rule="evenodd"/><path d="M571 829.5C571 633.715 729.715 475 925.5 475 1121.29 475 1280 633.715 1280 829.5 1280 1025.29 1121.29 1184 925.5 1184 729.715 1184 571 1025.29 571 829.5ZM636.795 829.5C636.795 988.948 766.053 1118.21 925.5 1118.21 1084.95 1118.21 1214.21 988.948 1214.21 829.5 1214.21 670.053 1084.95 540.795 925.5 540.795 766.053 540.795 636.795 670.053 636.795 829.5Z" fill="#C00000" fill-rule="evenodd"/><path d="M1487.5 830C1487.5 626.483 1652.48 461.5 1856 461.5 2059.52 461.5 2224.5 626.483 2224.5 830 2224.5 1033.52 2059.52 1198.5 1856 1198.5 1652.48 1198.5 1487.5 1033.52 1487.5 830Z" stroke="#0070C0" stroke-width="6.875" stroke-miterlimit="8" fill="#FFFFFF" fill-rule="evenodd"/><path d="M1855.5 475C2051.28 475 2210 633.571 2210 829.178 2210 902.531 2187.68 970.675 2149.46 1027.2L2127.33 1054 1583.67 1054 1561.54 1027.2C1523.32 970.675 1501 902.531 1501 829.178 1501 633.571 1659.72 475 1855.5 475Z" fill="#0070C0" fill-rule="evenodd"/><path d="M1971.77 727.964C1958.43 727.964 1947.7 734.758 1939.57 748.346 1931.44 761.934 1927.37 785.057 1927.37 817.713 1927.37 834.654 1928.55 848.897 1930.92 860.445 1933.28 871.992 1936.48 881.26 1940.52 888.249 1944.55 895.238 1949.18 900.261 1954.4 903.318 1959.61 906.374 1965.27 907.902 1971.35 907.902 1978.01 907.902 1983.85 906.521 1988.88 903.758 1993.9 900.995 1998.28 896.143 2002.02 889.202 2005.76 882.261 2008.62 872.754 2010.61 860.679 2012.59 848.604 2013.59 833.849 2013.59 816.413 2013.59 799.436 2012.55 785.185 2010.47 773.661 2008.39 762.136 2005.41 753.027 2001.52 746.334 1997.64 739.641 1993.23 734.906 1988.31 732.129 1983.39 729.352 1977.87 727.964 1971.77 727.964ZM1683.4 685.046 1832.42 685.046 1832.42 734.011 1729.38 734.011 1727.88 770.551C1736.96 767.391 1749.31 765.812 1764.95 765.812 1777.07 765.812 1788.32 767.95 1798.7 772.226 1809.08 776.503 1817.95 782.777 1825.31 791.051 1832.67 799.323 1838.14 809.36 1841.72 821.159 1845.31 832.959 1846.5 846.465 1845.31 861.676 1843.21 893.686 1833.76 917.409 1816.96 932.845 1800.16 948.282 1777.64 956 1749.4 956 1733.01 956 1719.04 954.539 1707.5 951.618 1695.95 948.697 1684.12 944.047 1672 937.667L1692.54 896.229C1703.02 900.742 1712.77 903.886 1721.81 905.663 1730.84 907.44 1740.04 908.329 1749.4 908.329 1762.89 908.329 1773.62 904.738 1781.58 897.557 1789.55 890.375 1794.65 877.399 1796.89 858.629 1798 850.883 1797.82 844.124 1796.34 838.35 1794.85 832.576 1792.55 827.883 1789.43 824.269 1786.32 820.655 1782.52 817.953 1778.05 816.162 1773.57 814.371 1768.63 813.476 1763.22 813.476 1749.88 813.476 1736.17 817.362 1722.08 825.135L1677.61 818.49ZM1971.77 679C1986.24 679 1999.21 681.599 2010.68 686.797 2022.15 691.995 2031.75 700.284 2039.49 711.664 2047.23 723.044 2053.08 737.472 2057.05 754.947 2061.02 772.421 2063 793.344 2063 817.713 2063 842.202 2060.92 863.192 2056.77 880.683 2052.62 898.173 2046.54 912.509 2038.53 923.69 2030.52 934.87 2020.8 943.05 2009.38 948.23 1997.96 953.41 1985.28 956 1971.35 956 1958 956 1945.61 953.485 1934.17 948.454 1922.73 943.423 1912.94 935.407 1904.8 924.405 1896.66 913.403 1890.3 899.241 1885.71 881.918 1881.12 864.594 1878.83 843.624 1878.83 819.006 1878.83 794.389 1880.95 773.368 1885.19 755.944 1889.44 738.52 1895.62 724.105 1903.72 712.7 1911.83 701.294 1921.65 692.827 1933.17 687.296 1944.7 681.765 1957.56 679 1971.77 679Z" fill="#FFFFFF" fill-rule="evenodd"/><path d="M2417.5 653.632C2417.5 611.586 2451.59 577.5 2493.63 577.5L3598.37 577.5C3640.41 577.5 3674.5 611.586 3674.5 653.632L3674.5 1020.37C3674.5 1062.41 3640.41 1096.5 3598.37 1096.5L2493.63 1096.5C2451.59 1096.5 2417.5 1062.41 2417.5 1020.37Z" stroke="#FFC000" stroke-width="36.6667" stroke-miterlimit="8" fill="#FFC000" fill-rule="evenodd"/><path d="M2417 653.132C2417 611.086 2451.09 577 2493.13 577L3597.87 577C3639.91 577 3674 611.086 3674 653.132L3674 1019.87C3674 1061.91 3639.91 1096 3597.87 1096L2493.13 1096C2451.09 1096 2417 1061.91 2417 1019.87Z" stroke="#000000" stroke-width="13.75" stroke-miterlimit="8" fill="#FFC000" fill-rule="evenodd"/><path d="M3201.99 850.03C3215.28 850.03 3225.57 854.633 3232.86 863.838 3234.68 866.14 3236.28 868.683 3237.65 871.469L3238.86 874.671 3241.54 869.818C3244.95 864.398 3249.05 860.023 3253.82 856.692 3260.18 852.251 3267.27 850.03 3275.08 850.03 3288.69 850.03 3299.22 854.633 3306.67 863.838 3314.12 873.043 3317.85 886.124 3317.85 903.081L3317.85 977.571 3288.98 977.571 3288.98 903.203C3288.98 895.047 3286.98 888.769 3283 884.368 3279.01 879.967 3273.27 877.767 3265.78 877.767 3258.77 877.767 3253.36 879.887 3249.53 884.126 3245.7 888.365 3243.83 894.401 3243.91 902.234L3243.84 901.88 3243.91 903.081 3243.79 977.571 3215.04 977.571 3215.04 903.203C3215.04 895.047 3213.04 888.769 3209.06 884.368 3205.07 879.967 3199.41 877.767 3192.08 877.767 3184.91 877.767 3179.42 879.685 3175.59 883.521 3171.77 887.356 3169.85 892.786 3169.85 899.811L3169.85 977.571 3140.98 977.571 3140.98 851.847 3169.85 851.847 3169.85 869.284 3170.35 868.403C3173.58 863.361 3177.4 859.296 3181.81 856.208 3187.69 852.09 3194.42 850.03 3201.99 850.03ZM3446.83 801.461 3475.7 801.461 3475.7 869.575 3479.57 863.551C3481.94 860.654 3484.56 858.186 3487.42 856.147 3493.14 852.069 3499.94 850.03 3507.84 850.03 3521.21 850.03 3531.58 854.492 3538.95 863.415 3546.32 872.337 3550 884.954 3550 901.265L3550 977.571 3521.13 977.571 3521.13 901.386C3521.13 893.795 3519.13 887.961 3515.15 883.884 3511.16 879.806 3505.42 877.767 3497.93 877.767 3490.76 877.767 3485.26 879.665 3481.44 883.46 3477.61 887.255 3475.7 892.625 3475.7 899.569L3475.7 977.571 3446.83 977.571ZM3010.39 801.461 3039.27 801.461 3039.27 910.673 3084.93 851.847 3116.95 851.847 3078.25 898.999 3123.11 977.571 3090.61 977.571 3059.85 921.417 3039.27 946.49 3039.27 977.571 3010.39 977.571ZM3413.6 780.628 3441.03 780.628 3361.05 1011 3333.5 1011ZM2841.68 753.48C2828.35 753.48 2817.62 760.286 2809.5 773.896 2801.38 787.507 2797.32 810.669 2797.32 843.38 2797.32 860.348 2798.5 874.616 2800.86 886.183 2803.22 897.75 2806.42 907.033 2810.45 914.034 2814.48 921.035 2819.1 926.066 2824.32 929.128 2829.53 932.189 2835.18 933.72 2841.25 933.72 2847.91 933.72 2853.75 932.336 2858.76 929.568 2863.78 926.801 2868.16 921.941 2871.89 914.989 2875.63 908.036 2878.49 898.512 2880.47 886.417 2882.46 874.322 2883.45 859.542 2883.45 842.077 2883.45 825.072 2882.41 810.797 2880.33 799.253 2878.26 787.71 2875.28 778.586 2871.4 771.881 2867.52 765.177 2863.12 760.434 2858.2 757.652 2853.28 754.871 2847.77 753.48 2841.68 753.48ZM2841.68 704.434C2856.13 704.434 2869.09 707.038 2880.55 712.244 2892 717.451 2901.6 725.754 2909.33 737.153 2917.06 748.552 2922.9 763.004 2926.87 780.508 2930.83 798.012 2932.81 818.969 2932.81 843.38 2932.81 867.909 2930.74 888.934 2926.59 906.455 2922.44 923.975 2916.37 938.334 2908.37 949.534 2900.37 960.733 2890.66 968.927 2879.25 974.115 2867.84 979.304 2855.17 981.898 2841.25 981.898 2827.92 981.898 2815.54 979.379 2804.11 974.339 2792.68 969.3 2782.9 961.27 2774.77 950.25 2766.64 939.23 2760.28 925.044 2755.7 907.692 2751.12 890.339 2748.82 869.333 2748.82 844.675 2748.82 820.016 2750.94 798.961 2755.19 781.507 2759.43 764.053 2765.6 749.615 2773.69 738.19 2781.79 726.766 2791.6 718.284 2803.11 712.744 2814.63 707.204 2827.48 704.434 2841.68 704.434ZM2626.53 704C2638.47 704 2649.35 705.693 2659.17 709.078 2668.99 712.464 2677.26 717.219 2683.98 723.345 2690.71 729.47 2695.91 736.775 2699.6 745.26 2703.29 753.744 2705.14 762.945 2705.14 772.863 2705.14 787.131 2703.77 798.758 2701.04 807.746 2698.3 816.733 2694.21 824.084 2688.75 829.799 2697.43 835.513 2703.98 843.429 2708.41 853.547 2712.85 863.664 2715.06 876.858 2715.06 893.128 2715.06 923.469 2707.72 945.849 2693.03 960.269 2678.35 974.688 2657.33 981.898 2629.98 981.898 2608.31 981.898 2590.15 976.905 2575.51 966.918 2560.87 956.932 2549.37 942.354 2541 923.185L2580.48 907.323C2589.01 917.53 2596.76 924.481 2603.73 928.177 2610.71 931.872 2619.17 933.72 2629.11 933.72 2641.73 933.72 2651.13 930.94 2657.3 925.379 2663.48 919.819 2666.57 910.077 2666.57 896.153 2666.57 880.71 2664.54 870.211 2660.48 864.657 2656.41 859.104 2649.76 856.076 2640.51 855.576L2613.93 855.576 2613.93 806.964 2639.19 806.964C2645.1 806.054 2649.49 803.628 2652.35 799.684 2655.21 795.74 2656.64 788.387 2656.64 777.624 2656.64 769.057 2653.83 762.747 2648.19 758.693 2642.55 754.639 2635.21 752.612 2626.16 752.612 2617.37 752.878 2609.89 754.592 2603.72 757.752 2597.54 760.913 2591.49 765.977 2585.54 772.946L2547.91 755.375C2552.1 746.238 2556.81 738.824 2562.04 733.133 2567.27 727.441 2573.06 722.473 2579.41 718.229 2585.76 713.984 2592.85 710.552 2600.69 707.931 2608.53 705.31 2617.14 704 2626.53 704Z" fill-rule="evenodd"/><path d="M571 1337.12C571 1309.44 593.44 1287 621.122 1287L3623.88 1287C3651.56 1287 3674 1309.44 3674 1337.12L3674 2272.88C3674 2300.56 3651.56 2323 3623.88 2323L621.122 2323C593.44 2323 571 2300.56 571 2272.88Z" fill="#262626" fill-rule="evenodd"/><path d="M1666.6 1578.05C1653.47 1578.05 1643.96 1581.93 1638.07 1589.71 1632.17 1597.48 1629.23 1608.28 1629.23 1622.08L1629.23 1740.92C1629.23 1754.59 1632.14 1765.35 1637.97 1773.19 1643.79 1781.03 1653.34 1784.95 1666.6 1784.95 1679.86 1784.95 1689.41 1781.03 1695.23 1773.19 1701.06 1765.35 1703.98 1754.59 1703.98 1740.92L1703.98 1622.08C1703.98 1608.28 1701.06 1597.48 1695.23 1589.71 1689.41 1581.93 1679.86 1578.05 1666.6 1578.05ZM1460.84 1578.05C1447.71 1578.05 1438.2 1581.93 1432.31 1589.71 1426.41 1597.48 1423.47 1608.28 1423.47 1622.08L1423.47 1740.92C1423.47 1754.59 1426.38 1765.35 1432.21 1773.19 1438.03 1781.03 1447.58 1784.95 1460.84 1784.95 1474.1 1784.95 1483.65 1781.03 1489.47 1773.19 1495.3 1765.35 1498.21 1754.59 1498.21 1740.92L1498.21 1622.08C1498.21 1608.28 1495.3 1597.48 1489.47 1589.71 1483.65 1581.93 1474.1 1578.05 1460.84 1578.05ZM1280.6 1535.62 1324.6 1535.62 1324.6 1827.98 1276.58 1827.98 1276.58 1590.31 1238 1609.82 1238 1559.35ZM1666.6 1532C1694.73 1532 1716 1539.34 1730.4 1554.02 1744.8 1568.7 1752 1589.04 1752 1615.04L1752 1747.96C1752 1773.83 1744.83 1794.14 1730.5 1808.88 1716.17 1823.63 1694.87 1831 1666.6 1831 1638.2 1831 1616.87 1823.53 1602.6 1808.58 1588.34 1793.63 1581.2 1773.43 1581.2 1747.96L1581.2 1615.04C1581.2 1589.17 1588.44 1568.86 1602.9 1554.12 1617.37 1539.37 1638.6 1532 1666.6 1532ZM1460.84 1532C1488.97 1532 1510.24 1539.34 1524.64 1554.02 1539.04 1568.7 1546.24 1589.04 1546.24 1615.04L1546.24 1747.96C1546.24 1773.83 1539.07 1794.14 1524.74 1808.88 1510.41 1823.63 1489.11 1831 1460.84 1831 1432.44 1831 1411.11 1823.53 1396.84 1808.58 1382.57 1793.63 1375.44 1773.43 1375.44 1747.96L1375.44 1615.04C1375.44 1589.17 1382.68 1568.86 1397.14 1554.12 1411.61 1539.37 1432.84 1532 1460.84 1532Z" fill="#FFC000" fill-rule="evenodd"/><path d="M867 1390 867 2231.09" stroke="#FFFFFF" stroke-width="45.8333" stroke-miterlimit="8" stroke-dasharray="183.333 137.5" stroke-opacity="0.501961" fill="none" fill-rule="evenodd"/><path d="M2645.57 1700.23C2634.56 1700.23 2626.07 1704.12 2620.1 1711.91 2614.12 1719.71 2611.13 1730.72 2611.13 1744.96L2611.13 1745.16C2611.13 1757.92 2614.22 1767.7 2620.4 1774.48 2626.58 1781.26 2635.3 1784.66 2646.58 1784.66 2658.13 1784.66 2666.96 1781.23 2673.07 1774.38 2679.17 1767.53 2682.23 1757.72 2682.23 1744.96L2682.23 1744.76C2682.23 1730.52 2679.07 1719.54 2672.76 1711.81 2666.45 1704.09 2657.39 1700.23 2645.57 1700.23ZM2775.28 1535 2928.54 1535 2928.54 1581.14 2823.41 1581.14 2823.41 1639.98C2828.11 1635.82 2833.85 1632.59 2840.63 1630.31 2847.41 1628.02 2854.16 1626.88 2860.87 1626.88 2885.04 1626.88 2903.77 1634.71 2917.06 1650.36 2930.35 1666.01 2937 1688.07 2937 1716.55L2937 1741.13C2937 1769.74 2929.62 1791.88 2914.85 1807.53 2900.08 1823.18 2879.33 1831 2852.61 1831 2829.79 1831 2810.82 1823.95 2795.72 1809.84 2780.61 1795.74 2771.65 1775.99 2768.83 1750.6L2768.83 1750.2 2816.97 1750.2 2816.97 1750.4C2818.17 1761.15 2821.93 1769.51 2828.24 1775.49 2834.55 1781.47 2842.81 1784.45 2853.02 1784.45 2864.56 1784.45 2873.42 1780.66 2879.6 1773.07 2885.78 1765.48 2888.87 1754.83 2888.87 1741.13L2888.87 1716.55C2888.87 1702.71 2885.91 1692.07 2880 1684.61 2874.1 1677.16 2865.64 1673.43 2854.63 1673.43 2847.11 1673.43 2840.33 1675.44 2834.29 1679.47 2828.24 1683.5 2823.41 1689.15 2819.79 1696.4L2775.28 1696.4ZM2644.97 1535 2698.34 1535 2637.64 1656.96 2638.25 1656.69C2643.42 1654.82 2649.35 1653.88 2656.05 1653.88 2679.54 1653.88 2697.8 1661.51 2710.83 1676.75 2723.85 1692 2730.36 1713.53 2730.36 1741.33L2730.36 1741.54C2730.36 1769.88 2723.08 1791.88 2708.51 1807.53 2693.94 1823.18 2673.3 1831 2646.58 1831 2620.13 1831 2599.59 1823.28 2584.95 1807.83 2570.32 1792.38 2563 1770.62 2563 1742.54L2563 1742.34C2563 1729.71 2564.78 1716.35 2568.34 1702.24 2571.9 1688.14 2576.9 1674.44 2583.34 1661.14Z" fill="#FFFFFF" fill-rule="evenodd"/><path d="M2122 1390 2122 2231.09" stroke="#FFFFFF" stroke-width="45.8333" stroke-miterlimit="8" stroke-dasharray="183.333 137.5" stroke-opacity="0.501961" fill="none" fill-rule="evenodd"/><path d="M3377 1390 3377 2231.09" stroke="#FFFFFF" stroke-width="45.8333" stroke-miterlimit="8" stroke-dasharray="183.333 137.5" stroke-opacity="0.501961" fill="none" fill-rule="evenodd"/><path d="M633.88 336.381 633.88 346.44 658.651 343.306 658.651 336.381ZM826.428 331.269 826.428 340.668 859.62 340.668 859.62 331.269ZM705.879 316.592C708.962 322.638 712.705 327.915 717.108 332.423 721.402 328.025 725.035 322.748 728.008 316.592ZM633.88 315.603 633.88 324.837 658.651 324.837 658.651 315.603ZM776.557 294.659 909.656 294.659 909.656 349.573C909.656 357.158 908.197 362.463 905.28 365.486 902.363 368.51 897.161 370.131 889.675 370.351 883.62 370.461 877.124 370.186 870.189 369.526L866.886 353.696 807.603 353.696 807.603 318.406 878.446 318.406 878.446 353.696 882.409 353.696C885.381 353.806 887.445 353.228 888.602 351.964 889.757 350.7 890.335 348.418 890.335 345.12L890.335 310.49 795.713 310.49 795.713 370.021 776.557 370.021ZM633.88 294 633.88 302.905 658.651 302.905 658.651 294ZM603 279.158 752.447 279.158 752.447 294 676.485 294 676.485 340.998C678.577 340.778 680.256 340.585 681.522 340.421 682.788 340.256 683.751 340.118 684.412 340.008L685.237 353.86C691.733 351.002 698.118 347.484 704.393 343.306 697.677 335.941 692.173 327.036 687.88 316.592L682.595 316.592 682.595 301.915 746.833 301.915 746.833 317.416C741.879 327.201 736.264 335.666 729.989 342.812 736.594 346.769 744.851 350.672 754.759 354.52L746.833 372C735.273 367.273 725.31 361.666 716.943 355.18 708.576 361.776 698.999 367.382 688.21 372L679.953 356.169C680.394 355.949 680.724 355.839 680.944 355.839L676.485 356.334 676.485 372 658.651 372 658.651 358.643C626.945 362.6 609.165 364.909 605.312 365.569L603.826 350.233 615.55 348.748 615.55 294 603 294ZM1203.43 274.046 1203.43 287.074 1222.09 287.074 1222.09 274.046ZM1165.62 274.046 1165.62 287.074 1183.78 287.074 1183.78 274.046ZM1097.75 272.727 1133.91 272.727 1133.91 329.125C1137.76 336.05 1142.83 340.915 1149.1 343.719 1155.38 346.522 1163.96 348.254 1174.86 348.913 1187.74 349.463 1199.25 349.738 1209.38 349.738 1222.59 349.738 1236.13 349.408 1250 348.748L1245.87 367.382C1233.21 368.042 1220.72 368.372 1208.39 368.372 1196.28 368.372 1184.11 368.042 1171.89 367.382 1160.11 366.833 1150.78 365.129 1143.9 362.27 1137.02 359.412 1130.55 354.355 1124.5 347.099L1105.67 369.526 1095.93 350.727 1114.75 331.269 1114.75 292.021 1097.75 292.021ZM1011.71 271.903 1011.71 284.435 1054.31 284.435 1054.31 271.903ZM809.584 266.461 809.584 274.706 876.299 274.706 876.299 266.461ZM790.098 253.928 896.115 253.928 896.115 287.898 790.098 287.898ZM640.155 253.598 640.155 260.194 715.457 260.194 715.457 253.598ZM1011.71 241.56 1011.71 254.423 1054.31 254.423 1054.31 241.56ZM640.155 236.448 640.155 242.879 715.457 242.879 715.457 236.448ZM993.545 224.41 1072.48 224.41 1072.48 301.586 1040.11 301.586C1042.09 307.522 1044.79 313.623 1048.2 319.89 1055.91 314.833 1063.29 309.281 1070.33 303.235L1080.57 317.416C1073.2 322.803 1065.6 327.86 1057.78 332.588 1064.72 339.843 1074.02 345.945 1085.69 350.892L1074.63 367.712C1060.31 360.017 1049.22 351.139 1041.35 341.08 1033.48 331.021 1027.18 317.856 1022.44 301.586L1011.71 301.586 1011.71 345.45 1032.35 336.381 1035.16 355.015C1022.72 359.742 1012.65 363.919 1004.94 367.548L1000.65 369.691C999.435 370.131 998.169 370.736 996.847 371.505L988.426 354.52C990.738 353.531 992.169 352.486 992.719 351.387 993.27 350.287 993.545 348.474 993.545 345.945ZM937.069 223.915 987.27 223.915 987.27 241.23 976.536 275.86C984.132 288.393 987.93 301.42 987.93 314.943 987.93 324.947 986.251 331.873 982.894 335.721 979.536 339.569 974.114 341.492 966.628 341.492 964.426 341.492 962.169 341.328 959.857 340.998L956.224 323.023C958.316 323.573 960.793 323.848 963.655 323.848 966.077 323.848 967.784 322.941 968.774 321.127 969.766 319.313 970.261 315.987 970.261 311.15 970.261 306.862 969.325 301.943 967.454 296.391 965.582 290.839 962.775 285.315 959.031 279.818L968.94 241.56 954.738 241.56 954.738 370.351 937.069 370.351ZM621.495 223.091 734.117 223.091 734.117 272.892 621.495 272.892ZM1116.08 220.452C1119.16 223.531 1123.23 228.12 1128.3 234.222 1133.36 240.323 1137.43 245.518 1140.52 249.805L1124 262.338C1112.55 247.497 1104.41 237.438 1099.56 232.16ZM1183.78 219.133 1203.43 219.133 1203.43 232.16 1244.22 232.16 1244.22 248.816 1203.43 248.816 1203.43 258.215 1240.42 258.215 1240.42 303.069 1205.91 303.069C1223.08 312.304 1236.29 319.56 1245.54 324.837L1235.63 342.647C1227.05 336.381 1216.31 328.74 1203.43 319.725L1203.43 344.296 1183.78 344.296 1183.78 319.065C1175.3 328.08 1164.79 336.05 1152.24 342.977L1140.68 326.651C1155.65 319.615 1167.87 311.755 1177.34 303.069L1147.45 303.069 1147.45 258.215 1183.78 258.215 1183.78 248.816 1144.64 248.816 1144.64 232.16 1183.78 232.16ZM849.877 216C851.088 218.418 853.29 223.365 856.482 230.841L916.262 230.841 916.262 246.507 769.786 246.507 769.786 230.841 833.198 230.841 828.575 220.122Z" fill="#C00000" fill-rule="evenodd"/><path d="M1563.88 336.383 1563.88 346.441 1588.65 343.308 1588.65 336.383ZM1635.88 316.596C1638.96 322.642 1642.7 327.918 1647.11 332.425 1651.4 328.028 1655.04 322.752 1658.01 316.596ZM1563.88 315.606 1563.88 324.84 1588.65 324.84 1588.65 315.606ZM1563.88 294.005 1563.88 302.909 1588.65 302.909 1588.65 294.005ZM1533 279.165 1682.45 279.165 1682.45 294.005 1606.49 294.005 1606.49 341C1608.58 340.78 1610.26 340.588 1611.52 340.423 1612.79 340.258 1613.75 340.12 1614.41 340.01L1615.24 353.862C1621.73 351.003 1628.12 347.486 1634.39 343.308 1627.68 335.943 1622.17 327.039 1617.88 316.596L1612.6 316.596 1612.6 301.92 1676.83 301.92 1676.83 317.42C1671.88 327.204 1666.26 335.669 1659.99 342.814 1666.59 346.771 1674.85 350.674 1684.76 354.521L1676.83 372C1665.27 367.273 1655.31 361.667 1646.94 355.181 1638.58 361.777 1629 367.383 1618.21 372L1609.95 356.17C1610.39 355.95 1610.72 355.84 1610.94 355.84L1606.49 356.335 1606.49 372 1588.65 372 1588.65 358.644C1556.94 362.601 1539.17 364.909 1535.31 365.569L1533.83 350.234 1545.55 348.75 1545.55 294.005 1533 294.005ZM2133.43 274.053 2133.43 287.08 2152.09 287.08 2152.09 274.053ZM2095.62 274.053 2095.62 287.08 2113.78 287.08 2113.78 274.053ZM2027.75 272.734 2063.91 272.734 2063.91 329.128C2067.76 336.053 2072.83 340.918 2079.1 343.721 2085.38 346.524 2093.96 348.255 2104.86 348.915 2117.74 349.464 2129.25 349.739 2139.38 349.739 2152.59 349.739 2166.13 349.41 2180 348.75L2175.87 367.383C2163.21 368.042 2150.72 368.372 2138.39 368.372 2126.28 368.372 2114.11 368.042 2101.89 367.383 2090.11 366.833 2080.78 365.129 2073.9 362.271 2067.02 359.413 2060.55 354.356 2054.5 347.101L2035.67 369.527 2025.93 350.729 2044.75 331.271 2044.75 292.027 2027.75 292.027ZM1941.71 271.91 1941.71 284.441 1984.31 284.441 1984.31 271.91ZM1570.16 253.606 1570.16 260.202 1645.46 260.202 1645.46 253.606ZM1792.92 247.835C1785.55 248.825 1777.46 249.704 1768.65 250.473L1768.65 276.691 1794.41 276.691C1793.75 267.567 1793.25 257.948 1792.92 247.835ZM1941.71 241.569 1941.71 254.431 1984.31 254.431 1984.31 241.569ZM1570.16 236.458 1570.16 242.888 1645.46 242.888 1645.46 236.458ZM1923.55 224.42 2002.48 224.42 2002.48 301.59 1970.11 301.59C1972.09 307.527 1974.79 313.628 1978.2 319.894 1985.91 314.837 1993.29 309.286 2000.33 303.239L2010.57 317.42C2003.2 322.807 1995.6 327.863 1987.78 332.59 1994.72 339.846 2004.02 345.947 2015.69 350.893L2004.63 367.713C1990.31 360.018 1979.22 351.141 1971.35 341.082 1963.48 331.024 1957.18 317.86 1952.44 301.59L1941.71 301.59 1941.71 345.452 1962.35 336.383 1965.16 355.016C1952.72 359.743 1942.65 363.92 1934.94 367.548L1930.65 369.691C1929.44 370.131 1928.17 370.736 1926.85 371.505L1918.43 354.521C1920.74 353.532 1922.17 352.488 1922.72 351.388 1923.27 350.289 1923.55 348.475 1923.55 345.947ZM1867.07 223.925 1917.27 223.925 1917.27 241.239 1906.54 275.867C1914.13 288.399 1917.93 301.425 1917.93 314.947 1917.93 324.95 1916.25 331.876 1912.89 335.723 1909.54 339.571 1904.11 341.495 1896.63 341.495 1894.43 341.495 1892.17 341.33 1889.86 341L1886.22 323.027C1888.32 323.576 1890.79 323.851 1893.66 323.851 1896.08 323.851 1897.78 322.944 1898.77 321.13 1899.77 319.317 1900.26 315.991 1900.26 311.154 1900.26 306.867 1899.33 301.948 1897.45 296.396 1895.58 290.845 1892.77 285.321 1889.03 279.824L1898.94 241.569 1884.74 241.569 1884.74 370.351 1867.07 370.351ZM1551.5 223.101 1664.12 223.101 1664.12 272.899 1551.5 272.899ZM1837.67 220.627 1842.3 240.085C1836.46 241.294 1826.39 243.053 1812.08 245.361 1812.3 256.574 1812.79 267.018 1813.57 276.691L1845.27 276.691 1845.27 295.984 1815.22 295.984C1817.31 314.232 1820.28 328.523 1824.13 338.856 1824.9 341.055 1825.81 343.006 1826.86 344.71 1827.9 346.414 1828.65 347.266 1829.09 347.266 1829.53 347.266 1830.05 346.469 1830.66 344.875 1831.26 343.281 1831.78 341.44 1832.23 339.351L1834.04 327.479 1834.54 323.851 1850.06 329.787C1849.84 331.656 1849.23 334.954 1848.24 339.681 1847.25 344.408 1846.26 348.695 1845.27 352.542 1843.73 358.698 1841.64 363.178 1839 365.981 1836.35 368.785 1833.05 370.186 1829.09 370.186 1820.28 370.186 1812.57 361.172 1805.97 343.144 1801.68 331.161 1798.43 315.441 1796.23 295.984L1768.65 295.984 1768.65 331.931 1792.92 316.101 1797.22 335.064C1793.03 337.702 1789.9 339.736 1787.8 341.165 1794.3 348.53 1799.86 355.456 1804.48 361.941L1789.79 372C1785.6 365.954 1779.99 358.863 1772.94 350.729L1767.82 354.026C1762.21 357.764 1757.69 361.172 1754.28 364.25L1744.37 347.761C1746.24 346.221 1747.51 344.682 1748.17 343.144 1748.83 341.605 1749.16 339.736 1749.16 337.537L1749.16 231.511C1776.35 230.081 1805.86 226.454 1837.67 220.627ZM2046.08 220.463C2049.16 223.541 2053.23 228.13 2058.3 234.231 2063.36 240.332 2067.43 245.527 2070.52 249.814L2054 262.346C2042.55 247.505 2034.41 237.447 2029.56 232.17ZM2113.78 219.144 2133.43 219.144 2133.43 232.17 2174.22 232.17 2174.22 248.825 2133.43 248.825 2133.43 258.223 2170.42 258.223 2170.42 303.074 2135.91 303.074C2153.08 312.309 2166.29 319.564 2175.54 324.84L2165.63 342.649C2157.05 336.383 2146.31 328.743 2133.43 319.729L2133.43 344.298 2113.78 344.298 2113.78 319.069C2105.3 328.083 2094.79 336.053 2082.24 342.979L2070.68 326.654C2085.65 319.619 2097.87 311.759 2107.34 303.074L2077.45 303.074 2077.45 258.223 2113.78 258.223 2113.78 248.825 2074.64 248.825 2074.64 232.17 2113.78 232.17ZM1727.2 217 1746.85 221.617C1742.56 235.248 1738.15 247.285 1733.64 257.728L1733.64 370.186 1714.48 370.186 1714.48 293.016C1710.41 299.062 1706.39 304.504 1702.43 309.34L1693.18 289.223C1699.46 281.198 1705.76 270.398 1712.09 256.822 1718.42 243.245 1723.46 229.971 1727.2 217Z" fill="#0070C0" fill-rule="evenodd"/><path d="M3074.78 300.461 3074.78 339.542 3094.58 339.542 3094.58 300.461ZM3135.83 276.284C3139.02 280.811 3143.12 287.048 3148.13 294.997 3153.13 302.945 3157.23 309.79 3160.42 315.531L3145.07 325.964C3141.66 319.671 3137.45 312.385 3132.45 304.105 3127.44 295.825 3123.57 289.753 3120.81 285.889ZM3322.47 273.966 3322.47 287.048 3341.11 287.048 3341.11 273.966ZM3284.68 273.966 3284.68 287.048 3302.83 287.048 3302.83 273.966ZM3216.85 272.641 3252.99 272.641 3252.99 329.276C3256.84 336.23 3261.9 341.116 3268.17 343.931 3274.45 346.746 3283.03 348.485 3293.92 349.147 3306.79 349.699 3318.28 349.975 3328.41 349.975 3341.61 349.975 3355.14 349.644 3369 348.982L3364.87 367.694C3352.22 368.357 3339.74 368.688 3327.42 368.688 3315.31 368.688 3303.16 368.357 3290.95 367.694 3279.18 367.142 3269.85 365.431 3262.98 362.561 3256.1 359.69 3249.64 354.612 3243.59 347.326L3224.78 369.847 3215.04 350.969 3233.85 331.428 3233.85 292.016 3216.85 292.016ZM2886.82 267.507 2922.3 267.507 2922.3 327.62C2929.12 321.658 2934.24 317.242 2937.65 314.372L2944.25 334.243C2933.03 342.965 2924.83 349.754 2919.66 354.612 2915.7 358.255 2913.33 360.574 2912.56 361.567L2899.69 347.491C2901.01 345.504 2901.89 343.6 2902.33 341.778 2902.77 339.956 2902.99 337.721 2902.99 335.071L2902.99 287.048 2886.82 287.048ZM2825.77 266.679 2825.77 274.959 2844.08 274.959 2844.08 266.679ZM3074.78 249.292 3074.78 281.252 3094.58 281.252 3094.58 249.292ZM2825.77 243.165 2825.77 251.61 2844.08 251.61 2844.08 243.165ZM3011.08 229.917 3031.05 234.388C3026.65 255.695 3022 273.193 3017.1 286.883 3012.21 300.572 3006.02 312.495 2998.54 322.652 3009.87 333.581 3023.68 343.462 3039.96 352.294L3029.23 371.503C3010.97 360.353 2996.28 349.202 2985.17 338.052 2979.23 343.903 2972.36 349.561 2964.54 355.026 2956.73 360.491 2947.6 366.149 2937.15 372L2925.6 353.784C2935.83 348.043 2944.63 342.634 2952 337.555 2959.37 332.477 2965.81 327.344 2971.31 322.155 2963.39 311.888 2956.46 300.185 2950.52 287.048 2944.58 273.911 2939.08 258.399 2934.02 240.515L2952.99 234.222C2957.39 250.12 2962.07 263.864 2967.02 275.456 2971.97 287.048 2977.91 297.481 2984.84 306.754 2991.33 297.701 2996.56 287.241 3000.52 275.373 3004.48 263.505 3008 248.353 3011.08 229.917ZM3055.63 228.592 3113.22 228.592 3113.22 359.746 3055.63 359.746ZM2724.78 228.095 2769.16 228.095 2769.16 245.152 2746.72 273.966 2769.82 273.966 2769.82 290.194C2768.28 300.13 2766.66 308.548 2764.96 315.448 2763.25 322.348 2760.97 328.889 2758.11 335.071 2763.28 340.481 2769.33 344.29 2776.26 346.498 2783.19 348.706 2792.05 350.141 2802.83 350.803 2813.61 351.355 2823.29 351.631 2831.87 351.631 2843.09 351.631 2856.51 351.245 2872.14 350.472L2868.83 367.363C2855.41 367.915 2843.53 368.191 2833.19 368.191 2821.31 368.191 2811.08 367.915 2802.5 367.363 2791.28 366.701 2781.38 365.017 2772.8 362.312 2764.21 359.608 2756.62 355.385 2750.02 349.644 2745.07 356.93 2739.24 364.162 2732.53 371.337L2719 356.599C2726.48 350.196 2732.64 343.02 2737.48 335.071 2731.87 326.46 2727.25 315.807 2723.62 303.111L2738.47 298.143C2741 305.65 2743.53 311.998 2746.06 317.187 2748.7 309.79 2751.01 300.958 2752.99 290.691L2725.27 290.691 2725.27 274.297 2748.87 244.986 2724.78 244.986ZM3235.17 220.146C3238.25 223.238 3242.32 227.847 3247.38 233.974 3252.44 240.101 3256.51 245.317 3259.59 249.623L3243.09 262.208C3231.65 247.304 3223.51 237.203 3218.67 231.904ZM2910.09 219.318C2917.68 229.365 2924.61 238.859 2930.88 247.801L2915.2 259.89C2912.78 255.915 2909.43 250.865 2905.14 244.738 2900.85 238.611 2897.33 233.836 2894.58 230.414ZM3302.83 218.822 3322.47 218.822 3322.47 231.904 3363.22 231.904 3363.22 248.629 3322.47 248.629 3322.47 258.068 3359.43 258.068 3359.43 303.111 3324.94 303.111C3342.1 312.385 3355.3 319.671 3364.54 324.97L3354.64 342.854C3346.06 336.562 3335.34 328.889 3322.47 319.837L3322.47 344.51 3302.83 344.51 3302.83 319.174C3294.36 328.227 3283.85 336.23 3271.31 343.186L3259.76 326.792C3274.72 319.726 3286.93 311.833 3296.39 303.111L3266.52 303.111 3266.52 258.068 3302.83 258.068 3302.83 248.629 3263.72 248.629 3263.72 231.904 3302.83 231.904ZM3167.19 218.822 3187.98 218.822 3187.98 247.304 3203.65 247.304 3203.65 267.839 3187.98 267.839 3187.98 345.67C3187.98 352.294 3187.1 357.317 3185.34 360.739 3183.58 364.162 3180.72 366.535 3176.76 367.86 3172.8 369.185 3167.07 369.847 3159.59 369.847 3153.32 369.847 3146.89 369.516 3140.29 368.854L3136.33 348.154C3144.03 349.147 3150.68 349.644 3156.29 349.644 3159.59 349.644 3161.99 349.451 3163.47 349.064 3164.96 348.678 3165.95 347.905 3166.44 346.746 3166.94 345.587 3167.19 343.738 3167.19 341.198L3167.19 267.839 3120.49 267.839 3120.49 247.304 3167.19 247.304ZM2807.94 217.828 2825.77 217.828 2825.77 228.095 2861.41 228.095 2861.41 251.61 2873.13 251.61 2873.13 266.679 2861.41 266.679 2861.41 289.698 2825.77 289.698 2825.77 298.143 2862.23 298.143 2862.23 313.378 2825.77 313.378 2825.77 321.161 2867.51 321.161 2867.51 336.727 2825.77 336.727 2825.77 347.822 2807.94 347.822 2807.94 336.727 2769.99 336.727 2769.99 321.161 2807.94 321.161 2807.94 313.378 2777.75 313.378 2777.75 298.143 2807.94 298.143 2807.94 289.698 2778.41 289.698 2778.41 274.959 2807.94 274.959 2807.94 266.679 2773.62 266.679 2773.62 251.61 2807.94 251.61 2807.94 243.165 2778.57 243.165 2778.57 228.095 2807.94 228.095ZM2980.06 217C2984.9 225.611 2991.28 237.921 2999.2 253.928L2980.72 263.864C2978.19 258.234 2975.08 251.637 2971.39 244.075 2967.71 236.513 2964.65 230.634 2962.23 226.439Z" fill="#FFC000" fill-rule="evenodd"/><path d="M1209.88 2089.38 1209.88 2099.44 1234.65 2096.31 1234.65 2089.38ZM1402.43 2084.27 1402.43 2093.67 1435.62 2093.67 1435.62 2084.27ZM1281.88 2069.59C1284.96 2075.64 1288.7 2080.92 1293.11 2085.42 1297.4 2081.03 1301.04 2075.75 1304.01 2069.59ZM1209.88 2068.6 1209.88 2077.84 1234.65 2077.84 1234.65 2068.6ZM1352.56 2047.66 1485.66 2047.66 1485.66 2102.57C1485.66 2110.16 1484.2 2115.46 1481.28 2118.49 1478.36 2121.51 1473.16 2123.13 1465.67 2123.35 1459.62 2123.46 1453.12 2123.19 1446.19 2122.53L1442.89 2106.7 1383.6 2106.7 1383.6 2071.41 1454.45 2071.41 1454.45 2106.7 1458.41 2106.7C1461.38 2106.81 1463.45 2106.23 1464.6 2104.96 1465.76 2103.7 1466.34 2101.42 1466.34 2098.12L1466.34 2063.49 1371.71 2063.49 1371.71 2123.02 1352.56 2123.02ZM1209.88 2047 1209.88 2055.9 1234.65 2055.9 1234.65 2047ZM1179 2032.16 1328.45 2032.16 1328.45 2047 1252.49 2047 1252.49 2094C1254.58 2093.78 1256.26 2093.59 1257.52 2093.42 1258.79 2093.26 1259.75 2093.12 1260.41 2093.01L1261.24 2106.86C1267.73 2104 1274.12 2100.48 1280.39 2096.31 1273.68 2088.94 1268.17 2080.04 1263.88 2069.59L1258.6 2069.59 1258.6 2054.92 1322.83 2054.92 1322.83 2070.42C1317.88 2080.2 1312.26 2088.67 1305.99 2095.81 1312.59 2099.77 1320.85 2103.67 1330.76 2107.52L1322.83 2125C1311.27 2120.27 1301.31 2114.67 1292.94 2108.18 1284.58 2114.78 1275 2120.38 1264.21 2125L1255.95 2109.17C1256.39 2108.95 1256.72 2108.84 1256.94 2108.84L1252.49 2109.33 1252.49 2125 1234.65 2125 1234.65 2111.64C1202.94 2115.6 1185.17 2117.91 1181.31 2118.57L1179.83 2103.23 1191.55 2101.75 1191.55 2047 1179 2047ZM1779.43 2027.05 1779.43 2040.07 1798.09 2040.07 1798.09 2027.05ZM1741.62 2027.05 1741.62 2040.07 1759.78 2040.07 1759.78 2027.05ZM1673.75 2025.73 1709.91 2025.73 1709.91 2082.12C1713.76 2089.05 1718.83 2093.92 1725.1 2096.72 1731.38 2099.52 1739.96 2101.25 1750.86 2101.91 1763.74 2102.46 1775.25 2102.74 1785.38 2102.74 1798.59 2102.74 1812.13 2102.41 1826 2101.75L1821.87 2120.38C1809.21 2121.04 1796.72 2121.37 1784.39 2121.37 1772.28 2121.37 1760.11 2121.04 1747.89 2120.38 1736.11 2119.83 1726.78 2118.13 1719.9 2115.27 1713.02 2112.41 1706.55 2107.36 1700.5 2100.1L1681.67 2122.53 1671.93 2103.73 1690.75 2084.27 1690.75 2045.02 1673.75 2045.02ZM1587.71 2024.9 1587.71 2037.44 1630.31 2037.44 1630.31 2024.9ZM1385.58 2019.46 1385.58 2027.71 1452.3 2027.71 1452.3 2019.46ZM1366.1 2006.93 1472.12 2006.93 1472.12 2040.9 1366.1 2040.9ZM1216.16 2006.6 1216.16 2013.19 1291.46 2013.19 1291.46 2006.6ZM1587.71 1994.56 1587.71 2007.42 1630.31 2007.42 1630.31 1994.56ZM1216.16 1989.45 1216.16 1995.88 1291.46 1995.88 1291.46 1989.45ZM1569.54 1977.41 1648.48 1977.41 1648.48 2054.59 1616.11 2054.59C1618.09 2060.52 1620.79 2066.62 1624.2 2072.89 1631.91 2067.83 1639.29 2062.28 1646.33 2056.23L1656.57 2070.42C1649.2 2075.8 1641.6 2080.86 1633.78 2085.59 1640.72 2092.84 1650.02 2098.95 1661.69 2103.89L1650.63 2120.71C1636.31 2113.02 1625.22 2104.14 1617.35 2094.08 1609.48 2084.02 1603.18 2070.86 1598.44 2054.59L1587.71 2054.59 1587.71 2098.45 1608.35 2089.38 1611.16 2108.02C1598.72 2112.74 1588.65 2116.92 1580.94 2120.55L1576.65 2122.69C1575.43 2123.13 1574.17 2123.74 1572.85 2124.51L1564.43 2107.52C1566.74 2106.53 1568.17 2105.49 1568.72 2104.39 1569.27 2103.29 1569.54 2101.47 1569.54 2098.95ZM1513.07 1976.92 1563.27 1976.92 1563.27 1994.23 1552.54 2028.86C1560.13 2041.39 1563.93 2054.42 1563.93 2067.94 1563.93 2077.95 1562.25 2084.87 1558.89 2088.72 1555.54 2092.57 1550.11 2094.49 1542.63 2094.49 1540.43 2094.49 1538.17 2094.33 1535.86 2094L1532.22 2076.02C1534.32 2076.57 1536.79 2076.85 1539.66 2076.85 1542.08 2076.85 1543.78 2075.94 1544.77 2074.13 1545.77 2072.31 1546.26 2068.99 1546.26 2064.15 1546.26 2059.86 1545.33 2054.94 1543.45 2049.39 1541.58 2043.84 1538.77 2038.31 1535.03 2032.82L1544.94 1994.56 1530.74 1994.56 1530.74 2123.35 1513.07 2123.35ZM1197.5 1976.09 1310.12 1976.09 1310.12 2025.89 1197.5 2025.89ZM1692.08 1973.45C1695.16 1976.53 1699.23 1981.12 1704.3 1987.22 1709.36 1993.32 1713.43 1998.52 1716.52 2002.81L1700 2015.34C1688.55 2000.5 1680.41 1990.44 1675.56 1985.16ZM1759.78 1972.13 1779.43 1972.13 1779.43 1985.16 1820.22 1985.16 1820.22 2001.82 1779.43 2001.82 1779.43 2011.22 1816.42 2011.22 1816.42 2056.07 1781.91 2056.07C1799.08 2065.3 1812.29 2072.56 1821.54 2077.84L1811.63 2095.65C1803.05 2089.38 1792.31 2081.74 1779.43 2072.73L1779.43 2097.3 1759.78 2097.3 1759.78 2072.07C1751.3 2081.08 1740.79 2089.05 1728.24 2095.98L1716.68 2079.65C1731.65 2072.62 1743.87 2064.75 1753.34 2056.07L1723.45 2056.07 1723.45 2011.22 1759.78 2011.22 1759.78 2001.82 1720.64 2001.82 1720.64 1985.16 1759.78 1985.16ZM1425.88 1969C1427.09 1971.42 1429.29 1976.37 1432.48 1983.84L1492.26 1983.84 1492.26 1999.51 1345.79 1999.51 1345.79 1983.84 1409.2 1983.84 1404.57 1973.12Z" fill="#FFC000" fill-rule="evenodd" fill-opacity="0.501961"/><path d="M2457.83 2089.38 2457.83 2099.44 2482.56 2096.31 2482.56 2089.38ZM2529.72 2069.6C2532.8 2075.64 2536.54 2080.92 2540.93 2085.43 2545.22 2081.03 2548.85 2075.75 2551.81 2069.6ZM2457.83 2068.61 2457.83 2077.84 2482.56 2077.84 2482.56 2068.61ZM2457.83 2047.01 2457.83 2055.91 2482.56 2055.91 2482.56 2047.01ZM2427 2032.17 2576.22 2032.17 2576.22 2047.01 2500.37 2047.01 2500.37 2094C2502.46 2093.78 2504.14 2093.59 2505.4 2093.42 2506.66 2093.26 2507.63 2093.12 2508.29 2093.01L2509.11 2106.86C2515.6 2104 2521.97 2100.49 2528.24 2096.31 2521.53 2088.94 2516.04 2080.04 2511.75 2069.6L2506.47 2069.6 2506.47 2054.92 2570.61 2054.92 2570.61 2070.42C2565.66 2080.2 2560.06 2088.67 2553.79 2095.81 2560.39 2099.77 2568.63 2103.67 2578.52 2107.52L2570.61 2125C2559.07 2120.27 2549.12 2114.67 2540.77 2108.18 2532.41 2114.78 2522.85 2120.38 2512.08 2125L2503.83 2109.17C2504.27 2108.95 2504.6 2108.84 2504.82 2108.84L2500.37 2109.34 2500.37 2125 2482.56 2125 2482.56 2111.64C2450.91 2115.6 2433.16 2117.91 2429.31 2118.57L2427.82 2103.23 2439.53 2101.75 2439.53 2047.01 2427 2047.01ZM3026.5 2027.05 3026.5 2040.08 3045.14 2040.08 3045.14 2027.05ZM2988.75 2027.05 2988.75 2040.08 3006.88 2040.08 3006.88 2027.05ZM2920.98 2025.73 2957.09 2025.73 2957.09 2082.13C2960.94 2089.05 2965.99 2093.92 2972.26 2096.72 2978.52 2099.52 2987.1 2101.26 2997.98 2101.92 3010.84 2102.46 3022.33 2102.74 3032.44 2102.74 3045.63 2102.74 3059.15 2102.41 3073 2101.75L3068.88 2120.38C3056.24 2121.04 3043.76 2121.37 3031.45 2121.37 3019.36 2121.37 3007.21 2121.04 2995.01 2120.38 2983.25 2119.83 2973.93 2118.13 2967.06 2115.27 2960.19 2112.41 2953.74 2107.36 2947.69 2100.1L2928.9 2122.53 2919.17 2103.73 2937.96 2084.27 2937.96 2045.03 2920.98 2045.03ZM2835.08 2024.91 2835.08 2037.44 2877.62 2037.44 2877.62 2024.91ZM2464.1 2006.61 2464.1 2013.2 2539.28 2013.2 2539.28 2006.61ZM2686.52 2000.84C2679.16 2001.82 2671.08 2002.7 2662.28 2003.47L2662.28 2029.69 2688 2029.69C2687.35 2020.57 2686.85 2010.95 2686.52 2000.84ZM2835.08 1994.57 2835.08 2007.43 2877.62 2007.43 2877.62 1994.57ZM2464.1 1989.46 2464.1 1995.89 2539.28 1995.89 2539.28 1989.46ZM2816.94 1977.42 2895.75 1977.42 2895.75 2054.59 2863.44 2054.59C2865.42 2060.53 2868.11 2066.63 2871.52 2072.89 2879.21 2067.84 2886.58 2062.29 2893.61 2056.24L2903.83 2070.42C2896.47 2075.81 2888.88 2080.86 2881.08 2085.59 2888 2092.85 2897.29 2098.95 2908.94 2103.89L2897.9 2120.71C2883.61 2113.02 2872.53 2104.14 2864.67 2094.08 2856.81 2084.02 2850.52 2070.86 2845.8 2054.59L2835.08 2054.59 2835.08 2098.45 2855.69 2089.38 2858.49 2108.02C2846.07 2112.74 2836.01 2116.92 2828.32 2120.55L2824.03 2122.69C2822.82 2123.13 2821.56 2123.74 2820.24 2124.51L2811.83 2107.52C2814.14 2106.53 2815.57 2105.49 2816.12 2104.39 2816.67 2103.29 2816.94 2101.48 2816.94 2098.95ZM2760.55 1976.93 2810.68 1976.93 2810.68 1994.24 2799.96 2028.87C2807.54 2041.4 2811.34 2054.43 2811.34 2067.95 2811.34 2077.95 2809.66 2084.88 2806.31 2088.72 2802.95 2092.57 2797.54 2094.49 2790.07 2094.49 2787.87 2094.49 2785.61 2094.33 2783.31 2094L2779.68 2076.03C2781.77 2076.58 2784.24 2076.85 2787.1 2076.85 2789.52 2076.85 2791.22 2075.94 2792.21 2074.13 2793.2 2072.32 2793.69 2068.99 2793.69 2064.15 2793.69 2059.87 2792.76 2054.95 2790.89 2049.4 2789.02 2043.85 2786.22 2038.32 2782.48 2032.82L2792.37 1994.57 2778.19 1994.57 2778.19 2123.35 2760.55 2123.35ZM2445.47 1976.1 2557.91 1976.1 2557.91 2025.9 2445.47 2025.9ZM2731.2 1973.63 2735.82 1993.09C2729.99 1994.29 2719.94 1996.05 2705.65 1998.36 2705.87 2009.57 2706.36 2020.02 2707.13 2029.69L2738.79 2029.69 2738.79 2048.98 2708.78 2048.98C2710.87 2067.23 2713.84 2081.52 2717.68 2091.86 2718.45 2094.06 2719.36 2096.01 2720.4 2097.71 2721.45 2099.41 2722.19 2100.27 2722.63 2100.27 2723.07 2100.27 2723.59 2099.47 2724.2 2097.88 2724.8 2096.28 2725.32 2094.44 2725.76 2092.35L2727.58 2080.48 2728.07 2076.85 2743.57 2082.79C2743.35 2084.66 2742.75 2087.95 2741.76 2092.68 2740.77 2097.41 2739.78 2101.7 2738.79 2105.54 2737.25 2111.7 2735.16 2116.18 2732.52 2118.98 2729.88 2121.78 2726.59 2123.19 2722.63 2123.19 2713.84 2123.19 2706.14 2114.17 2699.55 2096.14 2695.26 2084.16 2692.02 2068.44 2689.82 2048.98L2662.28 2048.98 2662.28 2084.93 2686.52 2069.1 2690.81 2088.06C2686.63 2090.7 2683.5 2092.74 2681.41 2094.17 2687.9 2101.53 2693.45 2108.46 2698.06 2114.94L2683.39 2125C2679.21 2118.95 2673.61 2111.86 2666.57 2103.73L2661.46 2107.03C2655.85 2110.76 2651.35 2114.17 2647.94 2117.25L2638.05 2100.76C2639.91 2099.22 2641.18 2097.68 2641.84 2096.14 2642.5 2094.6 2642.83 2092.74 2642.83 2090.54L2642.83 1984.51C2669.98 1983.08 2699.44 1979.45 2731.2 1973.63ZM2939.28 1973.46C2942.36 1976.54 2946.43 1981.13 2951.48 1987.23 2956.54 1993.33 2960.61 1998.53 2963.68 2002.81L2947.2 2015.35C2935.77 2000.51 2927.63 1990.45 2922.79 1985.17ZM3006.88 1972.14 3026.5 1972.14 3026.5 1985.17 3067.23 1985.17 3067.23 2001.82 3026.5 2001.82 3026.5 2011.22 3063.44 2011.22 3063.44 2056.07 3028.98 2056.07C3046.12 2065.31 3059.32 2072.56 3068.55 2077.84L3058.66 2095.65C3050.08 2089.38 3039.36 2081.74 3026.5 2072.73L3026.5 2097.3 3006.88 2097.3 3006.88 2072.07C2998.42 2081.08 2987.92 2089.05 2975.39 2095.98L2963.85 2079.65C2978.8 2072.62 2991 2064.76 3000.45 2056.07L2970.61 2056.07 2970.61 2011.22 3006.88 2011.22 3006.88 2001.82 2967.81 2001.82 2967.81 1985.17 3006.88 1985.17ZM2620.9 1970 2640.52 1974.62C2636.23 1988.25 2631.84 2000.29 2627.33 2010.73L2627.33 2123.19 2608.2 2123.19 2608.2 2046.02C2604.14 2052.06 2600.12 2057.5 2596.17 2062.34L2586.93 2042.22C2593.2 2034.2 2599.49 2023.4 2605.81 2009.82 2612.13 1996.25 2617.16 1982.97 2620.9 1970Z" fill="#FFFFFF" fill-rule="evenodd" fill-opacity="0.501961"/></g></svg>