<?xml version="1.0" standalone="no"?><!DOCTYPE svg PUBLIC "-//W3C//DTD SVG 1.1//EN" "http://www.w3.org/Graphics/SVG/1.1/DTD/svg11.dtd"><svg class="icon" width="200px" height="200.00px" viewBox="0 0 1024 1024" version="1.1" xmlns="http://www.w3.org/2000/svg"><path d="M550.4 814.4c-9.248 0-13.536-0.256-20.672-0.704l-19.232-1.184-6.304-14.272c-79.296-180.032-80.16-384.128-2.336-559.904l6.368-14.368 15.712-0.832c8.96-0.48 17.856-0.704 26.464-0.704 78.4 0 191.072 11.392 282.496 65.568 87.328 51.776 133.504 131.456 133.504 230.4 0 96.416-46.112 175.232-133.344 227.904-72.704 43.904-173.088 68.096-282.656 68.096z m-5.504-51.232c1.6 0.032 3.36 0.032 5.504 0.032 168.288 0 364.8-64.128 364.8-244.8 0-81.024-36.48-143.712-108.416-186.368C743.232 294.336 652.192 273.6 550.4 273.6c-2.624 0-5.28 0.032-7.968 0.064-63.712 154.592-62.816 331.2 2.464 489.504zM86.4 297.6h304c30.88 0 30.944-48 0-48H86.4c-30.88 0-30.944 48 0 48zM86.4 784h313.6c30.88 0 30.944-48 0-48H86.4c-30.88 0-30.944 48 0 48zM86.4 419.2h272c30.88 0 30.944-48 0-48H86.4c-30.88 0-30.944 48 0 48zM86.4 540.8h240c30.88 0 30.944-48 0-48H86.4c-30.88 0-30.944 48 0 48zM86.4 662.4h272c30.88 0 30.944-48 0-48H86.4c-30.88 0-30.944 48 0 48z" fill="#0030FF" /></svg>