<svg width="688" height="687" xmlns="http://www.w3.org/2000/svg" xmlns:xlink="http://www.w3.org/1999/xlink" xml:space="preserve" overflow="hidden"><g transform="translate(-1694 -720)"><path d="M2197.38 1318.98 2179.15 1289.82C2257.71 1240.73 2304.6 1156.21 2304.6 1063.71 2304.6 974.245 2260.03 891.226 2185.4 841.626L2204.45 813C2288.69 868.983 2339 962.705 2339 1063.71 2339 1168.13 2286.07 1263.55 2197.38 1318.98ZM1878.62 1319C1789.95 1263.55 1737 1168.13 1737 1063.71 1737 962.705 1787.31 868.983 1871.55 813L1890.6 841.626C1815.97 891.226 1771.4 974.245 1771.4 1063.71 1771.4 1156.21 1818.29 1240.73 1896.85 1289.84L1878.62 1319Z" fill="#ED0303" fill-rule="evenodd"/><path d="M2037.5 1289C1913.15 1289 1812 1187.85 1812 1063.5 1812 939.153 1913.15 838 2037.5 838 2161.85 838 2263 939.153 2263 1063.5 2263 1187.85 2161.85 1289 2037.5 1289ZM2037.5 872.362C1932.12 872.362 1846.36 958.116 1846.36 1063.5 1846.36 1168.91 1932.12 1254.64 2037.5 1254.64 2142.91 1254.64 2228.64 1168.91 2228.64 1063.5 2228.64 958.116 2142.91 872.362 2037.5 872.362Z" fill="#ED0303" fill-rule="evenodd"/><path d="M2037.64 1142.49C2045.83 1142.49 2052.94 1145.52 2058.96 1151.59 2064.99 1157.65 2068 1164.93 2068 1173.43 2068 1181.68 2065.05 1188.83 2059.14 1194.9 2053.24 1200.97 2046.07 1204 2037.64 1204 2029.45 1204 2022.46 1200.97 2016.67 1194.9 2010.89 1188.83 2008 1181.68 2008 1173.43 2008 1164.93 2010.89 1157.65 2016.67 1151.59 2022.46 1145.52 2029.45 1142.49 2037.64 1142.49ZM2011.25 923 2064.02 923 2056.8 1114.09 2018.48 1114.09Z" fill="#ED0303" fill-rule="evenodd"/></g></svg>