<?xml version="1.0"?>
<svg xmlns="http://www.w3.org/2000/svg" xmlns:xlink="http://www.w3.org/1999/xlink" width="204.040176" height="163.206802">
	<defs>
		<marker id="CustomMarker-01" markerUnits="strokeWidth" markerWidth="15.000001" markerHeight="9" viewBox="-15 -4.5 15 9" orient="auto-start-reverse">
			<path d="M 0 -0 L -10 -3, -8 -0.5, -8 0.5, -10 3 Z" fill="#000000" stroke="#000000" stroke-linejoin="round" />
		</marker>
		<marker id="CustomMarker-02" markerUnits="strokeWidth" markerWidth="15.000001" markerHeight="9" viewBox="-15 -4.5 15 9" orient="auto-start-reverse">
			<path d="M 0 -0 L -10 -3, -8 -0.5, -8 0.5, -10 3 Z" fill="#000000" stroke="#000000" stroke-linejoin="round" />
		</marker>
		<marker id="CustomMarker-03" markerUnits="strokeWidth" markerWidth="15.000001" markerHeight="9" viewBox="-15 -4.5 15 9" orient="auto-start-reverse">
			<path d="M 0 -0 L -10 -3, -8 -0.5, -8 0.5, -10 3 Z" fill="#000000" stroke="#000000" stroke-linejoin="round" />
		</marker>
	</defs>
	<path d="M -308.414 226.784 L 308.414 226.784" fill="none" stroke="#000000" stroke-width="6.13333321" stroke-linecap="round" stroke-linejoin="round" marker-end="url(#CustomMarker-01)" transform="matrix(0.217391 0 -0 0.217391 93.2588 84.2862)" />
	<path d="M -222.885 298.084 L -222.885 -298.084" fill="none" stroke="#000000" stroke-width="6.13333321" stroke-linecap="round" stroke-linejoin="round" marker-end="url(#CustomMarker-02)" transform="matrix(0.217391 0 -0 0.217391 93.2588 84.2862)" />
	<g transform="matrix(1 0 -0 1 169.571 122.38)">
		<svg width="125.854462" height="128.808472">
			<defs />
			<polyline points="-6.566 0 6.566 0" fill="none" stroke="#000000" stroke-width="0.750400007" stroke-linecap="round" stroke-linejoin="round" transform="matrix(1 0 0 1 6.566 11.2074)" />
			<polyline points="0 -6.566 0 6.566" fill="none" stroke="#000000" stroke-width="0.750400007" stroke-linecap="round" stroke-linejoin="round" transform="matrix(1 0 0 1 6.566 11.2074)" />
			<path d="M 25.3952 16.7669 C 24.2613 16.731, 23.1577 16.7131, 22.0849 16.7131, 21.0127 16.7131, 19.9091 16.731, 18.7747 16.7669 L 18.7747 15.9949, 19.4131 15.9949 C 19.6162 15.9955, 19.8076 15.9927, 19.986 15.9865, 20.165 15.9809, 20.3344 15.9657, 20.4949 15.9416, 20.6553 15.918, 20.7939 15.8939, 20.9106 15.8692, 21.0094 15.8518, 21.0913 15.7969, 21.1558 15.7037, 21.2209 15.6111, 21.2529 15.5079, 21.2529 15.3935 L 21.2529 5.27643 C 20.9448 5.4268, 20.5656 5.54069, 20.1156 5.61812, 19.6656 5.6961, 19.1724 5.73482, 18.6361 5.73426 L 18.6361 4.97122 C 19.3761 4.97178, 20.0589 4.88369, 20.6845 4.70696, 21.3101 4.53078, 21.8509 4.19976, 22.3071 3.71444 L 22.5938 3.71444 C 22.7969 3.715, 22.8984 3.81375, 22.8984 4.01068 L 22.8984 15.3935 C 22.8984 15.5135, 22.9293 15.6184, 22.991 15.7082, 23.0527 15.798, 23.1425 15.8518, 23.2592 15.8692, 23.3579 15.8939, 23.4847 15.918, 23.6385 15.9416, 23.7928 15.9657, 23.9667 15.9809, 24.1608 15.9865, 24.355 15.9927, 24.5446 15.9955, 24.7292 15.9949 L 25.3952 15.9949, 25.3952 16.7669 Z" stroke="none" fill="#000000" />
			<rect />
		</svg>
	</g>
	<g transform="matrix(1 0 -0 1 8.99999 9)">
		<svg width="125.854462" height="128.808472">
			<defs />
			<polyline points="-6.566 0 6.566 0" fill="none" stroke="#000000" stroke-width="0.750400007" stroke-linecap="round" stroke-linejoin="round" transform="matrix(1 0 0 1 6.566 11.2074)" />
			<polyline points="0 -6.566 0 6.566" fill="none" stroke="#000000" stroke-width="0.750400007" stroke-linecap="round" stroke-linejoin="round" transform="matrix(1 0 0 1 6.566 11.2074)" />
			<path d="M 23.5876 5.15423 C 23.5876 5.45423, 23.4794 5.71071, 23.2624 5.92426, 23.0454 6.13838, 22.7826 6.24486, 22.4741 6.24429, 22.166 6.24486, 21.9056 6.13838, 21.6914 5.92426, 21.4773 5.71071, 21.3703 5.45423, 21.3703 5.15423, 21.3703 4.85538, 21.4756 4.60062, 21.6863 4.38993, 21.897 4.17925, 22.1597 4.07391, 22.4741 4.07333, 22.7826 4.07391, 23.0454 4.17925, 23.2624 4.38993, 23.4794 4.60062, 23.5876 4.85538, 23.5876 5.15423 Z M 23.5876 17.7494 C 23.5876 18.1342, 23.5217 18.504, 23.3895 18.8578, 23.2578 19.2122, 23.0706 19.5254, 22.8284 19.7967, 22.5863 20.0687, 22.2983 20.2857, 21.9651 20.4471, 21.6319 20.6091, 21.2666 20.6899, 20.8705 20.6899, 20.606 20.6899, 20.3374 20.6567, 20.0638 20.5891, 19.7901 20.5221, 19.5422 20.4259, 19.319 20.3006, 19.0957 20.1757, 18.9148 20.0109, 18.7762 19.8059, 18.6377 19.6015, 18.5684 19.3588, 18.5678 19.0777, 18.5684 18.7605, 18.6674 18.5223, 18.8655 18.3632, 19.0642 18.2046, 19.2857 18.125, 19.5302 18.125, 19.7884 18.125, 20.0163 18.2046, 20.2144 18.3632, 20.4124 18.5223, 20.5115 18.7605, 20.5115 19.0777, 20.5115 19.3525, 20.4331 19.5666, 20.2756 19.7189, 20.1187 19.8717, 20.0243 19.9513, 19.9928 19.957, 19.9991 19.9633, 20.0936 19.9845, 20.2756 20.0212, 20.4582 20.0578, 20.6563 20.0761, 20.8705 20.0761, 21.0777 20.0761, 21.2586 20.0166, 21.4126 19.8975, 21.5672 19.7784, 21.6943 19.6135, 21.7951 19.4029, 21.8958 19.1922, 21.9725 18.9437, 22.0258 18.6563, 22.0796 18.3695, 22.1059 18.0672, 22.1059 17.7494 L 22.1059 10.2748 C 22.1059 10.1042, 22.0985 9.949, 22.0825 9.80817, 22.067 9.6679, 21.996 9.55454, 21.8701 9.46867, 21.7447 9.39596, 21.5529 9.35359, 21.2953 9.341, 21.0376 9.32897, 20.7605 9.32268, 20.4645 9.3221 L 20.4645 8.56181, 23.5876 8.34197, 23.5876 17.7494 Z" stroke="none" fill="#000000" />
			<rect />
		</svg>
	</g>
	<g transform="matrix(1 0 -0 1 123.324 131.417)">
		<svg width="29.9820557" height="32.8723297">
			<defs />
			<path d="M 8.45998 14.0579 C 8.38498 14.3579, 8.30025 14.6785, 8.20578 15.0203, 8.11132 15.3627, 7.98537 15.6798, 7.82793 15.973, 7.67106 16.2661, 7.47297 16.5197, 7.23366 16.7332, 6.99493 16.9468, 6.69607 17.0533, 6.33711 17.0533, 5.85964 17.0533, 5.4772 16.921, 5.19095 16.6554, 4.90469 16.3897, 4.73981 16.1195, 4.69573 15.8441, 4.48161 16.0892, 4.16272 16.352, 3.73792 16.6325, 3.31369 16.913, 2.86541 17.0533, 2.39366 17.0533, 1.89673 17.0533, 1.47994 16.9285, 1.1433 16.6783, 0.806667 16.4281, 0.544458 16.1132, 0.35553 15.7342, 0.129388 15.2831, 0.00973374 14.7976, -0.00286144 14.2778 L -0.00286144 14.1403 C -0.00286144 13.6583, 0.0635496 13.1762, 0.195227 12.693, 0.34637 12.1623, 0.557053 11.6373, 0.827278 11.1181, 1.09807 10.5994, 1.45647 10.1167, 1.90302 9.67019, 2.26828 9.30436, 2.68507 8.99635, 3.15338 8.74559, 3.6217 8.4954, 4.09803 8.37002, 4.58237 8.36945, 5.00374 8.37002, 5.34667 8.48166, 5.6106 8.70437, 5.8751 8.92765, 6.0417 9.112, 6.11097 9.25799 L 6.07318 9.41371 C 6.11727 9.18814, 6.22261 9.01753, 6.38921 8.90131, 6.55638 8.78566, 6.7247 8.72727, 6.89416 8.7267, 7.08882 8.72727, 7.25255 8.78509, 7.3848 8.90074, 7.46667 8.99291, 7.51076 9.11486, 7.51648 9.26715, 7.51648 9.32268, 7.51018 9.38394, 7.49759 9.45035 L 6.13902 14.7449 C 6.07605 14.9957, 6.03196 15.231, 6.00677 15.4503, 5.99475 15.5607, 5.98845 15.6615, 5.98845 15.7525, 5.98845 15.8327, 5.99475 15.918, 6.00677 16.009, 6.02624 16.1562, 6.07032 16.2661, 6.13902 16.3394, 6.2083 16.4126, 6.30562 16.4493, 6.43158 16.4487, 6.56383 16.4493, 6.68806 16.3943, 6.80428 16.2844, 6.92107 16.1745, 7.02813 16.0113, 7.12546 15.7943, 7.22278 15.5779, 7.31553 15.318, 7.4037 15.0157, 7.49186 14.7134, 7.58289 14.3854, 7.67678 14.0304, 7.71457 13.8724, 7.82163 13.7928, 7.99796 13.7923 L 8.21494 13.7923 C 8.37868 13.7928, 8.45998 13.8598, 8.45998 13.9938 L 8.45998 14.0579 Z M 5.76174 10.687 C 5.73655 10.5776, 5.71479 10.4631, 5.6959 10.344, 5.67701 10.225, 5.64838 10.1076, 5.6106 9.9908, 5.51041 9.70454, 5.36728 9.46466, 5.18179 9.2723, 4.99629 9.07994, 4.76156 8.98375, 4.47874 8.98318, 4.21482 8.98375, 3.95375 9.07879, 3.69555 9.26772, 3.43792 9.45722, 3.20205 9.70111, 2.98793 9.99996, 2.68622 10.4219, 2.46008 10.8604, 2.30893 11.315, 2.15779 11.7702, 2.01924 12.2448, 1.89329 12.7388, 1.76791 13.2278, 1.66429 13.7012, 1.58185 14.1587, 1.53204 14.3911, 1.50685 14.611, 1.50685 14.8182, 1.50685 15.0386, 1.53204 15.2522, 1.58185 15.4594, 1.6391 15.7468, 1.741 15.9838, 1.88871 16.1699, 2.03642 16.3565, 2.24252 16.4493, 2.50645 16.4487, 2.79614 16.4493, 3.08697 16.3485, 3.37953 16.147, 3.67208 15.9455, 3.94402 15.6981, 4.19535 15.4045, 4.29611 15.2831, 4.3923 15.1657, 4.48332 15.0524, 4.57493 14.9396, 4.65508 14.8188, 4.72378 14.69 L 5.76174 10.687 Z" stroke="none" fill="#000000" />
			<rect />
		</svg>
	</g>
	<g transform="matrix(1 0 -0 1 28.9826 47.1296)">
		<svg width="23.9541492" height="48.0957298">
			<defs />
			<path d="M 6.63739 12.748 C 6.48625 13.2799, 6.27442 13.8054, 6.00076 14.3241, 5.7271 14.8434, 5.37043 15.3226, 4.9296 15.7617, 4.56491 16.1287, 4.15155 16.4355, 3.68897 16.6829, 3.22695 16.9302, 2.74719 17.0533, 2.25025 17.0533, 1.7722 17.0533, 1.37259 16.9256, 1.05199 16.6691, 0.731382 16.4126, 0.485775 16.0949, 0.31574 15.7159, 0.114789 15.2648, 0.00772941 14.7793, -0.00486588 14.2594 L -0.00486588 14.1403 C -0.00486588 13.6583, 0.0581102 13.1791, 0.184062 12.7022 L 2.08021 5.32828 C 2.1306 5.12733, 2.16208 4.97447, 2.17468 4.87027 L 2.17468 4.84279 C 2.17468 4.7884, 2.16208 4.7489, 2.13689 4.72371, 2.06132 4.67562, 1.91991 4.64184, 1.71209 4.62352, 1.50484 4.6052, 1.26553 4.59604, 0.995309 4.59547, 0.901417 4.59604, 0.832143 4.56569, 0.787488 4.50386, 0.749702 4.4678, 0.730809 4.422, 0.730809 4.36646, 0.730809 4.33039, 0.740542 4.29662, 0.759435 4.2657 L 0.787488 4.11914 C 0.837869 3.97315, 0.951226 3.88155, 1.12756 3.84433 L 3.62771 3.64281, 3.66549 3.64281 C 3.74107 3.64338, 3.80347 3.668, 3.85385 3.71609, 3.87904 3.76533, 3.89164 3.81456, 3.89164 3.86265, 3.89164 3.89987, 3.88248 3.93364, 3.86358 3.96342 L 2.50502 9.23967 C 2.64356 9.09997, 2.89833 8.91963, 3.26932 8.69979, 3.6403 8.47994, 4.03018 8.37002, 4.43895 8.36945, 4.93589 8.37002, 5.35612 8.49827, 5.69848 8.75475, 6.04141 9.01123, 6.30419 9.32554, 6.48625 9.69767, 6.70037 10.15, 6.81315 10.6389, 6.82575 11.1633 L 6.82575 11.2915 C 6.82575 11.7621, 6.76334 12.2476, 6.63739 12.748 Z M 5.26909 9.96332 C 5.21299 9.67076, 5.10593 9.43432, 4.94849 9.25398, 4.79162 9.07421, 4.58723 8.98375, 4.33533 8.98318, 4.03362 8.98375, 3.7382 9.08165, 3.44851 9.27688, 3.1594 9.47268, 2.8886 9.71943, 2.63669 10.0183, 2.44204 10.269, 2.27201 10.5043, 2.12716 10.7236 L 1.60847 12.7388 C 1.48251 13.2278, 1.38862 13.6984, 1.32565 14.1495, 1.30046 14.3396, 1.28786 14.5194, 1.28786 14.69, 1.28786 14.959, 1.31935 15.2155, 1.38233 15.4594, 1.4516 15.7411, 1.5661 15.9764, 1.7264 16.1653, 1.88671 16.3548, 2.09911 16.4493, 2.36303 16.4487, 2.62753 16.4493, 2.89032 16.352, 3.15138 16.1562, 3.41244 15.9609, 3.6466 15.7165, 3.85385 15.4228, 4.15614 15.014, 4.38399 14.5795, 4.538 14.118, 4.69258 13.6572, 4.83227 13.1854, 4.95765 12.7022, 5.0836 12.2018, 5.1941 11.7198, 5.28799 11.2549, 5.32577 11.0356, 5.34467 10.8221, 5.34467 10.6137, 5.34467 10.3944, 5.31947 10.1774, 5.26909 9.96332 Z" stroke="none" fill="#000000" />
			<rect />
		</svg>
	</g>
	<g transform="matrix(1 0 -0 1 57.2016 73.0363)">
		<svg width="72.1773911" height="63.0318985">
			<defs />
			<path d="M 2.1813 21.0471 C 2.1813 21.1696, 2.13263 21.2778, 2.03531 21.3723, 1.93798 21.4673, 1.82577 21.5143, 1.69982 21.5143, 1.57444 21.5143, 1.4628 21.4673, 1.36547 21.3723, 1.26814 21.2778, 1.21891 21.1696, 1.21891 21.0471 L 1.21891 3.03824 C 1.21891 2.91687, 1.26643 2.80866, 1.36032 2.71362, 1.45478 2.61916, 1.56814 2.57164, 1.69982 2.57107, 1.82577 2.57164, 1.93798 2.61916, 2.03531 2.71362, 2.13263 2.80866, 2.1813 2.91687, 2.1813 3.03824 L 2.1813 21.0471 Z" stroke="none" fill="#000000" />
			<path d="M 17.7711 16.5678 C 17.7024 16.751, 17.5827 16.8426, 17.4127 16.8426, 16.7841 16.806, 16.1578 16.7876, 15.5349 16.7876 L 15.2234 16.7876 C 14.4877 16.8002, 13.7486 16.8185, 13.0067 16.8426, 12.8372 16.8426, 12.7456 16.7636, 12.733 16.6044 L 12.733 16.5311, 12.7708 16.3754 C 12.8212 16.1745, 12.9437 16.0766, 13.1383 16.0823, 13.3714 16.0829, 13.5792 16.0754, 13.7612 16.06, 13.9439 16.0451, 14.1202 15.9913, 14.2897 15.8991, 14.3526 15.8693, 14.4065 15.8264, 14.45 15.7709, 14.4752 15.7228, 14.4912 15.6735, 14.4969 15.6243 L 14.4969 15.5693, 14.2708 12.5282, 10.0061 12.5282, 8.50617 15.093 C 8.4243 15.2401, 8.38308 15.3747, 8.38308 15.4961, 8.38308 15.6002, 8.41457 15.6953, 8.47754 15.78, 8.61609 15.9821, 8.87429 16.0829, 9.251 16.0823, 9.42104 16.0829, 9.51207 16.1562, 9.52466 16.3021, 9.52466 16.3394, 9.51836 16.3789, 9.50577 16.4212 L 9.46856 16.5678 C 9.39928 16.751, 9.27676 16.8426, 9.10043 16.8426, 8.5222 16.8185, 7.94969 16.8002, 7.3829 16.7876 L 7.12871 16.7876 C 6.63807 16.7876, 6.14113 16.806, 5.63789 16.8426, 5.54343 16.8426, 5.47416 16.8123, 5.43007 16.751, 5.39229 16.7149, 5.37339 16.672, 5.37339 16.6228, 5.37339 16.5867, 5.37969 16.55, 5.39229 16.5128 L 5.43007 16.3754 C 5.48045 16.1745, 5.60354 16.0766, 5.7982 16.0823, 5.99972 16.0829, 6.19781 16.0617, 6.39246 16.0188, 6.58769 15.9764, 6.77032 15.8997, 6.93978 15.7897, 7.10982 15.6798, 7.26726 15.547, 7.41153 15.3913, 7.55637 15.2356, 7.68519 15.0598, 7.79855 14.864 L 14.4591 3.45961 C 14.5725 3.289, 14.7173 3.20656, 14.8937 3.21228 L 15.0729 3.21228 C 15.2744 3.21285, 15.3872 3.30732, 15.4124 3.49625 L 16.2425 15.4319 C 16.2551 15.5911, 16.274 15.7119, 16.2992 15.7943, 16.3244 15.8768, 16.3684 15.9363, 16.4314 15.9724, 16.5196 16.0279, 16.6656 16.06, 16.87 16.0691, 17.0749 16.0783, 17.3056 16.0829, 17.5633 16.0823, 17.7396 16.0829, 17.8278 16.1562, 17.8278 16.3021, 17.8278 16.3394, 17.8215 16.3789, 17.8089 16.4212 Z M 13.8179 6.03361 L 10.459 11.7862, 14.2141 11.7862 Z" stroke="none" fill="#000000" />
			<path d="M 23.2879 21.0471 C 23.2879 21.1696, 23.2392 21.2778, 23.1419 21.3723, 23.0446 21.4673, 22.9324 21.5143, 22.8064 21.5143, 22.681 21.5143, 22.5694 21.4673, 22.4721 21.3723, 22.3747 21.2778, 22.3255 21.1696, 22.3255 21.0471 L 22.3255 3.03824 C 22.3255 2.91687, 22.373 2.80866, 22.4669 2.71362, 22.5614 2.61916, 22.6747 2.57164, 22.8064 2.57107, 22.9324 2.57164, 23.0446 2.61916, 23.1419 2.71362, 23.2392 2.80866, 23.2879 2.91687, 23.2879 3.03824 L 23.2879 21.0471 Z" stroke="none" fill="#000000" />
			<rect />
		</svg>
	</g>
	<g transform="matrix(1 0 -0 1 72.2955 110.068)">
		<svg width="29.9820557" height="48.0957298">
			<defs />
			<path d="M 7.9765 5.50232 C 8.12764 6.08285, 8.20264 6.67539, 8.20264 7.27939, 8.20264 7.46947, 8.19634 7.65267, 8.18374 7.829, 8.12134 8.63567, 7.98623 9.44462, 7.77841 10.2564, 7.55227 11.0751, 7.26601 11.8864, 6.92022 12.689, 6.57442 13.4923, 6.11469 14.2629, 5.54218 15.0014, 5.34753 15.2522, 5.13169 15.5001, 4.89582 15.7439, 4.65995 15.9884, 4.4069 16.2065, 4.13667 16.3989, 3.86645 16.5913, 3.58477 16.7487, 3.29222 16.8701, 2.99967 16.9926, 2.6928 17.0533, 2.3722 17.0533, 2.0453 17.0533, 1.76362 16.9909, 1.52775 16.8655, 1.29187 16.7407, 1.0892 16.5792, 0.919168 16.3806, 0.749705 16.1825, 0.609441 15.9609, 0.499519 15.7165, 0.389597 15.4726, 0.299713 15.2218, 0.230439 14.9648, 0.0735714 14.3974, -0.00543487 13.8112, -0.00543487 13.206, -0.00543487 13.0114, 0.00716031 12.819, 0.0323508 12.6289, 0.0827316 11.8354, 0.217844 11.0328, 0.437688 10.2198, 0.645509 9.40226, 0.925466 8.5933, 1.27756 7.79293, 1.63023 6.99314, 2.09854 6.22025, 2.68364 5.47484, 2.87887 5.22523, 3.09299 4.97618, 3.32543 4.72886, 3.55787 4.48154, 3.80633 4.26169, 4.07026 4.06933, 4.33476 3.87697, 4.613 3.7201, 4.90555 3.59758, 5.19811 3.47564, 5.50783 3.41438, 5.83474 3.41381, 6.16221 3.41438, 6.44217 3.47735, 6.67461 3.60216, 6.90705 3.72754, 7.11315 3.88784, 7.29235 4.08307, 7.47211 4.27887, 7.61352 4.50157, 7.71715 4.75176, 7.82135 5.00252, 7.90779 5.25271, 7.9765 5.50232 Z M 6.70266 5.71301 C 6.67747 5.47541, 6.64598 5.25271, 6.6082 5.04489, 6.57041 4.83764, 6.51545 4.6573, 6.44332 4.50444, 6.37118 4.35215, 6.27843 4.23421, 6.16508 4.15177, 6.05172 4.06933, 5.90745 4.02811, 5.73111 4.02754, 5.36642 4.02811, 5.02979 4.19757, 4.72178 4.5365, 4.41377 4.87542, 4.11492 5.28019, 3.82523 5.74965, 3.41016 6.42177, 3.08955 7.11222, 2.86284 7.82041, 2.63613 8.52918, 2.44147 9.21276, 2.27773 9.87172 L 6.11756 9.87172 C 6.28759 9.18241, 6.44503 8.47994, 6.5893 7.76488, 6.69007 7.28283, 6.74045 6.8065, 6.74045 6.3359, 6.74045 6.12865, 6.72785 5.9214, 6.70266 5.71301 Z M 2.07965 10.6137 C 1.91018 11.3041, 1.7619 12.0003, 1.63595 12.7022, 1.53576 13.2094, 1.48538 13.7167, 1.48538 14.2228, 1.48538 14.4129, 1.49168 14.5961, 1.50427 14.7724, 1.51687 15.0111, 1.54549 15.2344, 1.589 15.4417, 1.63309 15.6495, 1.69148 15.8281, 1.76362 15.9775, 1.83576 16.1275, 1.93194 16.2432, 2.05159 16.3256, 2.17125 16.4081, 2.31609 16.4493, 2.48555 16.4487, 2.84395 16.4493, 3.17886 16.2815, 3.49031 15.9455, 3.80175 15.61, 4.09545 15.2064, 4.37255 14.7358, 4.78762 14.0522, 5.10822 13.3594, 5.33494 12.657, 5.56165 11.9551, 5.7563 11.2738, 5.91947 10.6137 Z" stroke="none" fill="#000000" />
			<rect />
		</svg>
	</g>
	<g transform="matrix(1 0 -0 1 133.08 38.7863)">
		<svg width="42.0378685" height="45.2233963">
			<defs />
			<path d="M 12.3905 16.5678 C 12.3218 16.751, 12.2022 16.8426, 12.0322 16.8426, 11.4035 16.806, 10.7778 16.7876, 10.1549 16.7876 L 9.84402 16.7876 C 9.10835 16.8002, 8.36924 16.8185, 7.62727 16.8426, 7.4578 16.8426, 7.3662 16.7636, 7.35361 16.6044 L 7.35361 16.5311, 7.39139 16.3754 C 7.44177 16.1745, 7.56429 16.0766, 7.75894 16.0823, 7.99196 16.0829, 8.19978 16.0754, 8.38183 16.06, 8.56389 16.0451, 8.74023 15.9913, 8.90969 15.8991, 8.97266 15.8693, 9.02648 15.8264, 9.06999 15.7709, 9.09518 15.7228, 9.11121 15.6735, 9.11751 15.6243 L 9.11751 15.5693, 8.8908 12.5282, 4.62732 12.5282, 3.12734 15.093 C 3.04604 15.2401, 3.00482 15.3747, 3.00482 15.4961, 3.00482 15.6002, 3.03631 15.6953, 3.09929 15.78, 3.23784 15.9821, 3.49547 16.0829, 3.87275 16.0823, 4.04278 16.0829, 4.13381 16.1562, 4.14641 16.3021, 4.14641 16.3394, 4.14011 16.3789, 4.12752 16.4212 L 4.08973 16.5678 C 4.02103 16.751, 3.89794 16.8426, 3.72161 16.8426, 3.14337 16.8185, 2.57086 16.8002, 2.00465 16.7876 L 1.75046 16.7876 C 1.25981 16.7876, 0.762876 16.806, 0.25964 16.8426, 0.165748 16.8426, 0.0964748 16.8123, 0.0523915 16.751, 0.0146059 16.7149, -0.00428694 16.672, -0.00428694 16.6228, -0.00428694 16.5867, 0.00201064 16.55, 0.0146059 16.5128 L 0.0523915 16.3754 C 0.102772 16.1745, 0.225289 16.0766, 0.419943 16.0823, 0.621466 16.0829, 0.820127 16.0617, 1.01478 16.0188, 1.20943 15.9764, 1.39206 15.8997, 1.56153 15.7897, 1.73156 15.6798, 1.889 15.547, 2.03328 15.3913, 2.17812 15.2356, 2.30693 15.0598, 2.41972 14.864 L 9.07972 3.45961 C 9.19308 3.289, 9.33735 3.20656, 9.51369 3.21228 L 9.69288 3.21228 C 9.89441 3.21285, 10.0072 3.30732, 10.0324 3.49625 L 10.8625 15.4319 C 10.8751 15.5911, 10.894 15.7119, 10.9192 15.7943, 10.9444 15.8768, 10.9885 15.9363, 11.0514 15.9724, 11.1396 16.0279, 11.2856 16.06, 11.49 16.0691, 11.6944 16.0783, 11.9257 16.0829, 12.1833 16.0823, 12.3596 16.0829, 12.4472 16.1562, 12.4472 16.3021, 12.4472 16.3394, 12.4409 16.3789, 12.4283 16.4212 Z M 8.43851 6.03361 L 5.08017 11.7862, 8.83469 11.7862 Z" stroke="none" fill="#000000" />
			<rect />
		</svg>
	</g>
	<path d="M -190.325 173.075 L 190.324 -173.075" fill="none" stroke="#000000" stroke-width="6.13333321" stroke-linecap="round" stroke-linejoin="round" marker-end="url(#CustomMarker-03)" transform="matrix(0.217391 0 0 0.217391 86.1805 95.9621)" />
	<path d="M -190.325 0 L 190.324 0" fill="none" stroke="#000000" stroke-width="4.90666676" stroke-linecap="round" stroke-linejoin="round" stroke-dasharray="17.1979, 12.2421" transform="matrix(0.217391 0 0 0.217391 86.1805 58.3371)" />
	<path d="M 0 -173.075 L 0 173.075" fill="none" stroke="#000000" stroke-width="4.90666676" stroke-linecap="round" stroke-linejoin="round" stroke-dasharray="17.1979, 12.2421" transform="matrix(0.217391 0 0 0.217391 127.555 95.9621)" />
	<path d="M 73.0105 -66.3934 C 89.5305 -48.227, 98.6845 -24.5545, 98.6846 -6.27783e-005" fill="none" stroke="#000000" stroke-width="6.13333321" stroke-linecap="round" stroke-linejoin="round" transform="matrix(0.217391 0 -0 0.217391 44.8053 133.587)" />
</svg>
