<?xml version="1.0"?>
<svg xmlns="http://www.w3.org/2000/svg" xmlns:xlink="http://www.w3.org/1999/xlink" width="561.15387" height="164.230774">
	<defs>
		<marker id="CustomMarker-01" markerUnits="strokeWidth" markerWidth="15.000001" markerHeight="9" viewBox="-15 -4.5 15 9" orient="auto-start-reverse">
			<path d="M 0 -0 L -10 -3, -8 -0.5, -8 0.5, -10 3 Z" fill="#000000" stroke="#000000" stroke-linejoin="round" />
		</marker>
		<marker id="CustomMarker-02" markerUnits="strokeWidth" markerWidth="15.000001" markerHeight="9" viewBox="-15 -4.5 15 9" orient="auto-start-reverse">
			<path d="M 0 -0 L -10 -3, -8 -0.5, -8 0.5, -10 3 Z" fill="#000000" stroke="#000000" stroke-linejoin="round" />
		</marker>
		<marker id="CustomMarker-03" markerUnits="strokeWidth" markerWidth="15.000001" markerHeight="9" viewBox="-15 -4.5 15 9" orient="auto-start-reverse">
			<path d="M 0 -0 L -10 -3, -8 -0.5, -8 0.5, -10 3 Z" fill="#000000" stroke="#000000" stroke-linejoin="round" />
		</marker>
		<marker id="CustomMarker-04" markerUnits="strokeWidth" markerWidth="15.000001" markerHeight="9" viewBox="-15 -4.5 15 9" orient="auto-start-reverse">
			<path d="M 0 -0 L -10 -3, -8 -0.5, -8 0.5, -10 3 Z" fill="#000000" stroke="#000000" stroke-linejoin="round" />
		</marker>
	</defs>
	<path d="M -238.16 -0 C -237.057 -1.48306, -233.75 -5.97731, -231.544 -8.89838, -229.339 -11.8194, -227.134 -14.7391, -224.929 -17.5264, -222.724 -20.3136, -220.519 -23.0531, -218.313 -25.6219, -216.108 -28.1906, -213.903 -30.6666, -211.698 -32.9388, -209.493 -35.211, -207.287 -37.3484, -205.082 -39.255, -202.877 -41.1615, -200.672 -42.8953, -198.467 -44.3783, -196.261 -45.8614, -194.056 -47.1389, -191.851 -48.1533, -189.646 -49.1678, -187.441 -49.9501, -185.236 -50.4652, -183.03 -50.9803, -180.825 -51.2437, -178.62 -51.2437, -176.415 -51.2437, -174.21 -50.9803, -172.004 -50.4652, -169.799 -49.9501, -167.594 -49.1678, -165.389 -48.1533, -163.184 -47.1389, -160.979 -45.8614, -158.773 -44.3783, -156.568 -42.8953, -154.363 -41.1615, -152.158 -39.255, -149.953 -37.3484, -147.747 -35.211, -145.542 -32.9388, -143.337 -30.6666, -141.132 -28.1906, -138.927 -25.6219, -136.722 -23.0531, -134.516 -20.3136, -132.311 -17.5264, -130.106 -14.7391, -127.901 -11.8194, -125.696 -8.89838, -123.49 -5.97731, -121.285 -2.96613, -119.08 -6.27554e-015, -116.875 2.96612, -114.67 5.97731, -112.464 8.89838, -110.259 11.8194, -108.054 14.7391, -105.849 17.5264, -103.644 20.3136, -101.439 23.0531, -99.2333 25.6219, -97.0282 28.1906, -94.823 30.6666, -92.6178 32.9388, -90.4126 35.211, -88.2074 37.3484, -86.0022 39.255, -83.7971 41.1615, -81.5919 42.8953, -79.3867 44.3783, -77.1815 45.8614, -74.9763 47.1389, -72.7711 48.1533, -70.5659 49.1678, -68.3607 49.9501, -66.1556 50.4652, -63.9504 50.9803, -61.7452 51.2437, -59.54 51.2437, -57.3348 51.2437, -55.1296 50.9803, -52.9244 50.4652, -50.7193 49.9501, -48.5141 49.1678, -46.3089 48.1533, -44.1037 47.1389, -41.8985 45.8614, -39.6933 44.3783, -37.4881 42.8953, -35.283 41.1615, -33.0778 39.255, -30.8726 37.3484, -28.6674 35.211, -26.4622 32.9388, -24.257 30.6666, -22.0518 28.1906, -19.8467 25.6219, -17.6415 23.0531, -15.4363 20.3136, -13.2311 17.5264, -11.0259 14.7391, -8.82074 11.8194, -6.61555 8.89838, -4.41037 5.97731, -2.20518 2.96612, 5.72205e-006 1.25511e-014, 2.20519 -2.96613, 4.41038 -5.97731, 6.61556 -8.89838, 8.82075 -11.8194, 11.0259 -14.7391, 13.2311 -17.5264, 15.4363 -20.3136, 17.6415 -23.0531, 19.8467 -25.6219, 22.0519 -28.1906, 24.257 -30.6666, 26.4622 -32.9388, 28.6674 -35.211, 30.8726 -37.3484, 33.0778 -39.255, 35.283 -41.1615, 37.4882 -42.8953, 39.6933 -44.3783, 41.8985 -45.8614, 44.1037 -47.1389, 46.3089 -48.1533, 48.5141 -49.1678, 50.7193 -49.9501, 52.9245 -50.4652, 55.1296 -50.9803, 57.3348 -51.2437, 59.54 -51.2437, 61.7452 -51.2437, 63.9504 -50.9803, 66.1556 -50.4652, 68.3608 -49.9501, 70.5659 -49.1678, 72.7711 -48.1533, 74.9763 -47.1389, 77.1815 -45.8614, 79.3867 -44.3783, 81.5919 -42.8953, 83.7971 -41.1615, 86.0022 -39.255, 88.2074 -37.3484, 90.4126 -35.211, 92.6178 -32.9388, 94.823 -30.6666, 97.0282 -28.1906, 99.2334 -25.6219, 101.439 -23.0531, 103.644 -20.3136, 105.849 -17.5264, 108.054 -14.7391, 110.259 -11.8194, 112.464 -8.89838, 114.67 -5.97731, 116.875 -2.96613, 119.08 -1.88266e-014, 121.285 2.96612, 123.49 5.97731, 125.696 8.89838, 127.901 11.8194, 130.106 14.7391, 132.311 17.5264, 134.516 20.3136, 136.721 23.0531, 138.927 25.6219, 141.132 28.1906, 143.337 30.6666, 145.542 32.9388, 147.747 35.211, 149.953 37.3484, 152.158 39.255, 154.363 41.1615, 156.568 42.8953, 158.773 44.3783, 160.979 45.8614, 163.184 47.1389, 165.389 48.1533, 167.594 49.1678, 169.799 49.9501, 172.004 50.4652, 174.21 50.9803, 176.415 51.2437, 178.62 51.2437, 180.825 51.2437, 183.03 50.9803, 185.236 50.4652, 187.441 49.9501, 189.646 49.1678, 191.851 48.1533, 194.056 47.1389, 196.262 45.8614, 198.467 44.3783, 200.672 42.8953, 202.877 41.1615, 205.082 39.255, 207.287 37.3484, 209.493 35.211, 211.698 32.9388, 213.903 30.6666, 216.108 28.1906, 218.313 25.6219, 220.519 23.0531, 222.724 20.3136, 224.929 17.5264, 227.134 14.7391, 229.339 11.8194, 231.544 8.89838, 233.75 5.97731, 237.057 1.48306, 238.16 2.51022e-014" fill="none" stroke="#0080FF" stroke-width="3.4666667" stroke-linecap="round" stroke-linejoin="round" transform="matrix(0.384615 0 -0 0.384615 413.853 73.6163)" />
	<path d="M -319.847 0 L 319.847 0" fill="none" stroke="#000000" stroke-width="3.4666667" stroke-linecap="round" stroke-linejoin="round" marker-end="url(#CustomMarker-01)" transform="matrix(0.384615 0 0 0.384615 430.001 73.6163)" />
	<path d="M 0 160.403 L 0 -160.403" fill="none" stroke="#000000" stroke-width="3.4666667" stroke-linecap="round" stroke-linejoin="round" marker-end="url(#CustomMarker-02)" transform="matrix(0.384615 0 0 0.384615 350.91 70.2829)" />
	<path d="M -238.16 -0 C -237.057 -2.81429, -233.75 -11.3427, -231.544 -16.8857, -229.339 -22.4288, -227.134 -27.9693, -224.929 -33.2584, -222.724 -38.5475, -220.519 -43.746, -218.313 -48.6205, -216.108 -53.495, -213.903 -58.1936, -211.698 -62.5053, -209.493 -66.8171, -207.287 -70.873, -205.082 -74.491, -202.877 -78.1089, -200.672 -81.3989, -198.467 -84.2132, -196.261 -87.0275, -194.056 -89.4516, -191.851 -91.3767, -189.646 -93.3018, -187.441 -94.7864, -185.236 -95.7637, -183.03 -96.7411, -180.825 -97.2411, -178.62 -97.2411, -176.415 -97.2411, -174.21 -96.7411, -172.004 -95.7637, -169.799 -94.7864, -167.594 -93.3018, -165.389 -91.3767, -163.184 -89.4516, -160.979 -87.0275, -158.773 -84.2132, -156.568 -81.3989, -154.363 -78.1089, -152.158 -74.491, -149.953 -70.873, -147.747 -66.8171, -145.542 -62.5053, -143.337 -58.1936, -141.132 -53.495, -138.927 -48.6205, -136.722 -43.746, -134.516 -38.5475, -132.311 -33.2584, -130.106 -27.9693, -127.901 -22.4288, -125.696 -16.8857, -123.49 -11.3427, -121.285 -5.62858, -119.08 -1.19086e-014, -116.875 5.62858, -114.67 11.3427, -112.464 16.8857, -110.259 22.4288, -108.054 27.9693, -105.849 33.2584, -103.644 38.5475, -101.439 43.746, -99.2333 48.6205, -97.0282 53.495, -94.823 58.1936, -92.6178 62.5053, -90.4126 66.8171, -88.2074 70.873, -86.0022 74.491, -83.7971 78.1089, -81.5919 81.3989, -79.3867 84.2132, -77.1815 87.0275, -74.9763 89.4516, -72.7711 91.3767, -70.5659 93.3018, -68.3607 94.7863, -66.1556 95.7637, -63.9504 96.7411, -61.7452 97.2411, -59.54 97.2411, -57.3348 97.2411, -55.1296 96.7411, -52.9244 95.7637, -50.7193 94.7863, -48.5141 93.3018, -46.3089 91.3767, -44.1037 89.4516, -41.8985 87.0275, -39.6933 84.2132, -37.4881 81.3989, -35.283 78.1089, -33.0778 74.491, -30.8726 70.873, -28.6674 66.8171, -26.4622 62.5053, -24.257 58.1936, -22.0518 53.495, -19.8467 48.6205, -17.6415 43.746, -15.4363 38.5475, -13.2311 33.2584, -11.0259 27.9693, -8.82074 22.4288, -6.61555 16.8857, -4.41037 11.3427, -2.20518 5.62858, 5.72205e-006 2.38172e-014, 2.20519 -5.62858, 4.41038 -11.3427, 6.61556 -16.8857, 8.82075 -22.4288, 11.0259 -27.9693, 13.2311 -33.2584, 15.4363 -38.5475, 17.6415 -43.746, 19.8467 -48.6205, 22.0519 -53.495, 24.257 -58.1936, 26.4622 -62.5053, 28.6674 -66.8171, 30.8726 -70.873, 33.0778 -74.491, 35.283 -78.1089, 37.4882 -81.3989, 39.6933 -84.2132, 41.8985 -87.0275, 44.1037 -89.4516, 46.3089 -91.3767, 48.5141 -93.3018, 50.7193 -94.7864, 52.9245 -95.7637, 55.1296 -96.7411, 57.3348 -97.2411, 59.54 -97.2411, 61.7452 -97.2411, 63.9504 -96.7411, 66.1556 -95.7637, 68.3608 -94.7864, 70.5659 -93.3018, 72.7711 -91.3767, 74.9763 -89.4516, 77.1815 -87.0275, 79.3867 -84.2132, 81.5919 -81.3989, 83.7971 -78.1089, 86.0022 -74.491, 88.2074 -70.873, 90.4126 -66.8171, 92.6178 -62.5053, 94.823 -58.1936, 97.0282 -53.495, 99.2334 -48.6205, 101.439 -43.746, 103.644 -38.5475, 105.849 -33.2584, 108.054 -27.9693, 110.259 -22.4288, 112.464 -16.8857, 114.67 -11.3427, 116.875 -5.62858, 119.08 -3.57258e-014, 121.285 5.62858, 123.49 11.3427, 125.696 16.8857, 127.901 22.4288, 130.106 27.9693, 132.311 33.2584, 134.516 38.5475, 136.721 43.746, 138.927 48.6205, 141.132 53.495, 143.337 58.1936, 145.542 62.5053, 147.747 66.8171, 149.953 70.873, 152.158 74.491, 154.363 78.1089, 156.568 81.3989, 158.773 84.2132, 160.979 87.0275, 163.184 89.4516, 165.389 91.3767, 167.594 93.3018, 169.799 94.7863, 172.004 95.7637, 174.21 96.7411, 176.415 97.2411, 178.62 97.2411, 180.825 97.2411, 183.03 96.7411, 185.236 95.7637, 187.441 94.7863, 189.646 93.3018, 191.851 91.3767, 194.056 89.4516, 196.262 87.0275, 198.467 84.2132, 200.672 81.3989, 202.877 78.1089, 205.082 74.491, 207.287 70.873, 209.493 66.8171, 211.698 62.5053, 213.903 58.1936, 216.108 53.495, 218.313 48.6205, 220.519 43.746, 222.724 38.5475, 224.929 33.2584, 227.134 27.9693, 229.339 22.4288, 231.544 16.8857, 233.75 11.3427, 237.057 2.81429, 238.16 4.76344e-014" fill="none" stroke="#E50500" stroke-width="3.4666667" stroke-linecap="round" stroke-linejoin="round" transform="matrix(0.384615 0 -0 0.384615 436.186 73.6163)" />
	<g transform="matrix(1 0 -0 1 474.797 21.8642)">
		<svg width="33.1395264" height="32.8723297">
			<defs />
			<path d="M 9.41063 14.0854 C 9.34193 14.3671, 9.26006 14.6785, 9.1656 15.0203, 9.0717 15.3627, 8.94575 15.6798, 8.78831 15.973, 8.63144 16.2661, 8.43336 16.5197, 8.19405 16.7332, 7.95474 16.9468, 7.65589 17.0533, 7.2975 17.0533, 6.85724 17.0533, 6.50171 16.9405, 6.23148 16.7149, 5.96126 16.4894, 5.79409 16.2569, 5.73111 16.0182, 5.51756 16.2815, 5.23131 16.5197, 4.87292 16.7332, 4.51453 16.9468, 4.09889 17.0533, 3.62714 17.0533, 3.20005 17.0533, 2.81761 16.9743, 2.48097 16.8151, 2.14434 16.6571, 1.87869 16.4126, 1.68347 16.0823, 1.49511 15.7285, 1.40408 15.338, 1.40981 14.9098 L 1.40981 14.8365 C 1.4224 14.3911, 1.47908 13.9486, 1.57984 13.5083, 1.6806 13.0875, 1.82717 12.6238, 2.01896 12.1165, 2.21075 11.6099, 2.39452 11.1181, 2.57029 10.6412, 2.75921 10.1351, 2.85368 9.71943, 2.85368 9.39539, 2.85368 9.12116, 2.73746 8.98375, 2.50445 8.98318, 2.2909 8.98375, 2.09739 9.04501, 1.92449 9.16696, 1.7516 9.28947, 1.59416 9.45894, 1.45275 9.67535, 1.31134 9.89233, 1.18367 10.1488, 1.07031 10.4448, 0.956953 10.7414, 0.863061 11.0568, 0.78749 11.3923, 0.718216 11.5578, 0.601997 11.6431, 0.438259 11.6488 L 0.221278 11.6488 C 0.0701351 11.6494, -0.00543621 11.5732, -0.00543621 11.4198 L -0.00543621 11.3557 C 0.0827303 11.0202, 0.199522 10.6772, 0.343795 10.3257, 0.48864 9.97477, 0.67127 9.65588, 0.891114 9.36848, 1.11153 9.08165, 1.36343 8.84349, 1.64625 8.65399, 1.92907 8.46506, 2.25311 8.37002, 2.6178 8.36945, 2.93268 8.37002, 3.20119 8.43758, 3.42447 8.57155, 3.64775 8.70609, 3.81778 8.88471, 3.934 9.10742, 4.0508 9.33069, 4.11492 9.58203, 4.12751 9.86256 L 4.12751 9.92668 C 4.12751 10.19, 4.07427 10.4614, 3.96664 10.7419, 3.78458 11.2188, 3.60424 11.706, 3.42447 12.2035, 3.24527 12.7016, 3.10558 13.1488, 3.00482 13.5455, 2.90406 13.9428, 2.83478 14.3361, 2.797 14.7266, 2.77181 14.8308, 2.75635 14.9442, 2.75005 15.0655, 2.75005 15.3043, 2.79127 15.5396, 2.87257 15.7709, 2.92925 15.9792, 3.03287 16.1441, 3.18402 16.2661, 3.33516 16.3886, 3.51435 16.4493, 3.7216 16.4487, 4.13724 16.4493, 4.49907 16.3245, 4.80708 16.0737, 5.11509 15.8235, 5.38532 15.4903, 5.61775 15.0747, 5.63035 15.0266, 5.64008 14.9699, 5.64638 14.9058, 5.65268 14.8417, 5.66184 14.7758, 5.67443 14.7083 L 7.08968 9.24883 C 7.14693 9.02326, 7.26143 8.85723, 7.43433 8.75017, 7.60723 8.64368, 7.78184 8.58987, 7.9576 8.58929, 8.14023 8.58987, 8.29137 8.64483, 8.41103 8.75418, 8.4929 8.83433, 8.53355 8.94081, 8.53355 9.07478, 8.53355 9.14234, 8.52725 9.21276, 8.51465 9.28547 L 7.09941 14.7449 C 6.99865 15.1239, 6.94827 15.46, 6.94827 15.7525, 6.94827 15.8327, 6.95456 15.918, 6.96716 16.009, 6.99865 16.3027, 7.14636 16.4493, 7.41085 16.4487, 7.67535 16.4493, 7.90321 16.2237, 8.095 15.7714, 8.28679 15.3197, 8.474 14.7392, 8.65606 14.0304, 8.69385 13.8724, 8.80091 13.7928, 8.97667 13.7923 L 9.19365 13.7923 C 9.2635 13.7928, 9.33277 13.814, 9.40147 13.8564, 9.42666 13.9119, 9.43926 13.9577, 9.43926 13.9938, 9.43926 14.019, 9.4301 14.0493, 9.41063 14.0854 Z" stroke="none" fill="#E50500" />
			<rect />
		</svg>
	</g>
	<g transform="matrix(1 0 -0 1 404.019 47.6976)">
		<svg width="17.9262428" height="44.9361572">
			<defs />
			<path d="M 4.85574 5.20004 C 4.79907 5.43248, 4.66853 5.62656, 4.46415 5.78228, 4.25976 5.938, 4.0382 6.01586, 3.79889 6.01529, 3.54756 6.01586, 3.35577 5.93056, 3.22352 5.75881, 3.13535 5.66148, 3.08841 5.5424, 3.08154 5.40156, 3.08154 5.31683, 3.09413 5.23095, 3.11932 5.14507, 3.17657 4.91378, 3.30882 4.7197, 3.51607 4.56398, 3.72332 4.40825, 3.9466 4.33039, 4.18591 4.32982, 4.43781 4.33039, 4.6296 4.41284, 4.76128 4.57715, 4.84945 4.69394, 4.89353 4.81874, 4.89353 4.95271, 4.89353 5.03859, 4.88093 5.12103, 4.85574 5.20004 Z M 4.95937 14.0854 C 4.89067 14.4037, 4.78361 14.738, 4.63876 15.089, 4.49449 15.4405, 4.31644 15.7594, 4.10576 16.0462, 3.89507 16.3336, 3.64775 16.5729, 3.36493 16.7647, 3.08211 16.9571, 2.75463 17.0533, 2.38365 17.0533, 2.06934 17.0533, 1.79911 16.9863, 1.5724 16.8518, 1.34569 16.7178, 1.17107 16.5409, 1.04855 16.321, 0.926037 16.1012, 0.864779 15.8567, 0.864779 15.5877, 0.852184 15.5762, 0.845886 15.5516, 0.845886 15.5144, 0.845886 15.2401, 0.905999 14.959, 1.02508 14.6716 L 2.55368 10.6412 C 2.74261 10.1351, 2.8365 9.71943, 2.8365 9.39539, 2.8365 9.12116, 2.72028 8.98375, 2.48727 8.98318, 2.27373 8.98375, 2.08193 9.04501, 1.9119 9.16696, 1.74244 9.28947, 1.58671 9.45894, 1.44473 9.67535, 1.30332 9.89233, 1.17622 10.1488, 1.06287 10.4448, 0.94951 10.7414, 0.855046 11.0568, 0.779475 11.3923, 0.710774 11.5578, 0.594554 11.6431, 0.430816 11.6488 L 0.222995 11.6488 C 0.0718527 11.6494, -0.00371855 11.5732, -0.00371855 11.4198 L -0.00371855 11.3557 C 0.0718527 11.0202, 0.18521 10.6772, 0.336352 10.3257, 0.487495 9.97477, 0.669553 9.65588, 0.883672 9.36848, 1.09779 9.08165, 1.34626 8.84349, 1.62908 8.65399, 1.9119 8.46506, 2.23594 8.37002, 2.60063 8.36945, 2.91551 8.37002, 3.18287 8.43758, 3.40271 8.57155, 3.62313 8.70609, 3.79145 8.88471, 3.90767 9.10742, 4.02389 9.33069, 4.08801 9.58203, 4.1006 9.86256 L 4.1006 9.92668 C 4.1006 10.19, 4.04736 10.4614, 3.9403 10.7419 L 2.4117 14.7907 C 2.23594 15.2859, 2.14777 15.7073, 2.14777 16.0548, 2.13518 16.0674, 2.12888 16.0674, 2.12888 16.0548, 2.12888 16.3182, 2.24853 16.4493, 2.48727 16.4487, 2.70139 16.4493, 2.8949 16.3852, 3.0678 16.2569, 3.24069 16.1287, 3.39813 15.9581, 3.53954 15.7439, 3.68095 15.5304, 3.80519 15.2739, 3.91225 14.9745, 4.01931 14.6756, 4.11663 14.3608, 4.2048 14.0304, 4.24259 13.8724, 4.35251 13.7928, 4.53457 13.7923 L 4.74239 13.7923 C 4.81166 13.7928, 4.88093 13.814, 4.94964 13.8564, 4.9691 13.9056, 4.98456 13.9486, 4.99715 13.9846, 4.99715 14.0218, 4.98456 14.0556, 4.95937 14.0854 Z" stroke="none" fill="#0080FF" />
			<rect />
		</svg>
	</g>
	<path d="M -238.16 -0 C -237.057 -1.48306, -233.75 -5.97731, -231.544 -8.89838, -229.339 -11.8194, -227.134 -14.7391, -224.929 -17.5264, -222.724 -20.3136, -220.519 -23.0531, -218.313 -25.6219, -216.108 -28.1906, -213.903 -30.6666, -211.698 -32.9388, -209.493 -35.211, -207.287 -37.3484, -205.082 -39.255, -202.877 -41.1615, -200.672 -42.8953, -198.467 -44.3783, -196.262 -45.8614, -194.056 -47.1389, -191.851 -48.1533, -189.646 -49.1678, -187.441 -49.9501, -185.236 -50.4652, -183.03 -50.9803, -180.825 -51.2437, -178.62 -51.2437, -176.415 -51.2437, -174.21 -50.9803, -172.004 -50.4652, -169.799 -49.9501, -167.594 -49.1678, -165.389 -48.1533, -163.184 -47.1389, -160.979 -45.8614, -158.773 -44.3783, -156.568 -42.8953, -154.363 -41.1615, -152.158 -39.255, -149.953 -37.3484, -147.747 -35.211, -145.542 -32.9388, -143.337 -30.6666, -141.132 -28.1906, -138.927 -25.6219, -136.722 -23.0531, -134.516 -20.3136, -132.311 -17.5264, -130.106 -14.7391, -127.901 -11.8194, -125.696 -8.89838, -123.49 -5.97731, -121.285 -2.96613, -119.08 -6.27554e-015, -116.875 2.96612, -114.67 5.97731, -112.464 8.89838, -110.259 11.8194, -108.054 14.7391, -105.849 17.5264, -103.644 20.3136, -101.439 23.0531, -99.2333 25.6219, -97.0282 28.1906, -94.823 30.6666, -92.6178 32.9388, -90.4126 35.211, -88.2074 37.3484, -86.0022 39.255, -83.7971 41.1615, -81.5919 42.8953, -79.3867 44.3783, -77.1815 45.8614, -74.9763 47.1389, -72.7711 48.1533, -70.5659 49.1678, -68.3608 49.9501, -66.1556 50.4652, -63.9504 50.9803, -61.7452 51.2437, -59.54 51.2437, -57.3348 51.2437, -55.1296 50.9803, -52.9244 50.4652, -50.7193 49.9501, -48.5141 49.1678, -46.3089 48.1533, -44.1037 47.1389, -41.8985 45.8614, -39.6933 44.3783, -37.4881 42.8953, -35.283 41.1615, -33.0778 39.255, -30.8726 37.3484, -28.6674 35.211, -26.4622 32.9388, -24.257 30.6666, -22.0518 28.1906, -19.8467 25.6219, -17.6415 23.0531, -15.4363 20.3136, -13.2311 17.5264, -11.0259 14.7391, -8.82073 11.8194, -6.61555 8.89838, -4.41036 5.97731, -2.20518 2.96612, 7.62939e-006 1.25511e-014, 2.20519 -2.96613, 4.41038 -5.97731, 6.61556 -8.89838, 8.82075 -11.8194, 11.0259 -14.7391, 13.2311 -17.5264, 15.4363 -20.3136, 17.6415 -23.0531, 19.8467 -25.6219, 22.0519 -28.1906, 24.257 -30.6666, 26.4622 -32.9388, 28.6674 -35.211, 30.8726 -37.3484, 33.0778 -39.255, 35.283 -41.1615, 37.4882 -42.8953, 39.6933 -44.3783, 41.8985 -45.8614, 44.1037 -47.1389, 46.3089 -48.1533, 48.5141 -49.1678, 50.7193 -49.9501, 52.9245 -50.4652, 55.1296 -50.9803, 57.3348 -51.2437, 59.54 -51.2437, 61.7452 -51.2437, 63.9504 -50.9803, 66.1556 -50.4652, 68.3608 -49.9501, 70.5659 -49.1678, 72.7711 -48.1533, 74.9763 -47.1389, 77.1815 -45.8614, 79.3867 -44.3783, 81.5919 -42.8953, 83.7971 -41.1615, 86.0022 -39.255, 88.2074 -37.3484, 90.4126 -35.211, 92.6178 -32.9388, 94.823 -30.6666, 97.0282 -28.1906, 99.2334 -25.6219, 101.439 -23.0531, 103.644 -20.3136, 105.849 -17.5264, 108.054 -14.7391, 110.259 -11.8194, 112.464 -8.89838, 114.67 -5.97731, 116.875 -2.96613, 119.08 -1.88266e-014, 121.285 2.96612, 123.49 5.97731, 125.696 8.89838, 127.901 11.8194, 130.106 14.7391, 132.311 17.5264, 134.516 20.3136, 136.722 23.0531, 138.927 25.6219, 141.132 28.1906, 143.337 30.6666, 145.542 32.9388, 147.747 35.211, 149.953 37.3484, 152.158 39.255, 154.363 41.1615, 156.568 42.8953, 158.773 44.3783, 160.979 45.8614, 163.184 47.1389, 165.389 48.1533, 167.594 49.1678, 169.799 49.9501, 172.004 50.4652, 174.21 50.9803, 176.415 51.2437, 178.62 51.2437, 180.825 51.2437, 183.03 50.9803, 185.236 50.4652, 187.441 49.9501, 189.646 49.1678, 191.851 48.1533, 194.056 47.1389, 196.262 45.8614, 198.467 44.3783, 200.672 42.8953, 202.877 41.1615, 205.082 39.255, 207.287 37.3484, 209.493 35.211, 211.698 32.9388, 213.903 30.6666, 216.108 28.1906, 218.313 25.6219, 220.519 23.0531, 222.724 20.3136, 224.929 17.5264, 227.134 14.7391, 229.339 11.8194, 231.544 8.89838, 233.75 5.97731, 237.057 1.48306, 238.16 2.51022e-014" fill="none" stroke="#0080FF" stroke-width="3.4666667" stroke-linecap="round" stroke-linejoin="round" transform="matrix(0.384615 0 -0 0.384615 143.149 73.6163)" />
	<path d="M -319.847 0 L 319.847 0" fill="none" stroke="#000000" stroke-width="3.4666667" stroke-linecap="round" stroke-linejoin="round" marker-end="url(#CustomMarker-03)" transform="matrix(0.384615 0 0 0.384615 138.668 73.6163)" />
	<path d="M 0 160.403 L 0 -160.403" fill="none" stroke="#000000" stroke-width="3.4666667" stroke-linecap="round" stroke-linejoin="round" marker-end="url(#CustomMarker-04)" transform="matrix(0.384615 0 0 0.384615 59.5762 70.2829)" />
	<path d="M -238.16 -0 C -237.057 -2.81429, -233.75 -11.3427, -231.544 -16.8857, -229.339 -22.4288, -227.134 -27.9693, -224.929 -33.2584, -222.724 -38.5475, -220.519 -43.746, -218.313 -48.6205, -216.108 -53.495, -213.903 -58.1936, -211.698 -62.5053, -209.493 -66.8171, -207.287 -70.873, -205.082 -74.491, -202.877 -78.1089, -200.672 -81.3989, -198.467 -84.2132, -196.261 -87.0275, -194.056 -89.4516, -191.851 -91.3767, -189.646 -93.3018, -187.441 -94.7864, -185.236 -95.7637, -183.03 -96.7411, -180.825 -97.2411, -178.62 -97.2411, -176.415 -97.2411, -174.21 -96.7411, -172.004 -95.7637, -169.799 -94.7864, -167.594 -93.3018, -165.389 -91.3767, -163.184 -89.4516, -160.979 -87.0275, -158.773 -84.2132, -156.568 -81.3989, -154.363 -78.1089, -152.158 -74.491, -149.953 -70.873, -147.747 -66.8171, -145.542 -62.5053, -143.337 -58.1936, -141.132 -53.495, -138.927 -48.6205, -136.722 -43.746, -134.516 -38.5475, -132.311 -33.2584, -130.106 -27.9693, -127.901 -22.4288, -125.696 -16.8857, -123.49 -11.3427, -121.285 -5.62858, -119.08 -1.19086e-014, -116.875 5.62858, -114.67 11.3427, -112.464 16.8857, -110.259 22.4288, -108.054 27.9693, -105.849 33.2584, -103.644 38.5475, -101.439 43.746, -99.2333 48.6205, -97.0282 53.495, -94.823 58.1936, -92.6178 62.5053, -90.4126 66.8171, -88.2074 70.873, -86.0022 74.491, -83.7971 78.1089, -81.5919 81.3989, -79.3867 84.2132, -77.1815 87.0275, -74.9763 89.4516, -72.7711 91.3767, -70.5659 93.3018, -68.3607 94.7863, -66.1556 95.7637, -63.9504 96.7411, -61.7452 97.2411, -59.54 97.2411, -57.3348 97.2411, -55.1296 96.7411, -52.9244 95.7637, -50.7193 94.7863, -48.5141 93.3018, -46.3089 91.3767, -44.1037 89.4516, -41.8985 87.0275, -39.6933 84.2132, -37.4881 81.3989, -35.283 78.1089, -33.0778 74.491, -30.8726 70.873, -28.6674 66.8171, -26.4622 62.5053, -24.257 58.1936, -22.0518 53.495, -19.8467 48.6205, -17.6415 43.746, -15.4363 38.5475, -13.2311 33.2584, -11.0259 27.9693, -8.82074 22.4288, -6.61555 16.8857, -4.41037 11.3427, -2.20518 5.62858, 5.72205e-006 2.38172e-014, 2.20519 -5.62858, 4.41038 -11.3427, 6.61556 -16.8857, 8.82075 -22.4288, 11.0259 -27.9693, 13.2311 -33.2584, 15.4363 -38.5475, 17.6415 -43.746, 19.8467 -48.6205, 22.0519 -53.495, 24.257 -58.1936, 26.4622 -62.5053, 28.6674 -66.8171, 30.8726 -70.873, 33.0778 -74.491, 35.283 -78.1089, 37.4882 -81.3989, 39.6933 -84.2132, 41.8985 -87.0275, 44.1037 -89.4516, 46.3089 -91.3767, 48.5141 -93.3018, 50.7193 -94.7864, 52.9245 -95.7637, 55.1296 -96.7411, 57.3348 -97.2411, 59.54 -97.2411, 61.7452 -97.2411, 63.9504 -96.7411, 66.1556 -95.7637, 68.3608 -94.7864, 70.5659 -93.3018, 72.7711 -91.3767, 74.9763 -89.4516, 77.1815 -87.0275, 79.3867 -84.2132, 81.5919 -81.3989, 83.7971 -78.1089, 86.0022 -74.491, 88.2074 -70.873, 90.4126 -66.8171, 92.6178 -62.5053, 94.823 -58.1936, 97.0282 -53.495, 99.2334 -48.6205, 101.439 -43.746, 103.644 -38.5475, 105.849 -33.2584, 108.054 -27.9693, 110.259 -22.4288, 112.464 -16.8857, 114.67 -11.3427, 116.875 -5.62858, 119.08 -3.57258e-014, 121.285 5.62858, 123.49 11.3427, 125.696 16.8857, 127.901 22.4288, 130.106 27.9693, 132.311 33.2584, 134.516 38.5475, 136.721 43.746, 138.927 48.6205, 141.132 53.495, 143.337 58.1936, 145.542 62.5053, 147.747 66.8171, 149.953 70.873, 152.158 74.491, 154.363 78.1089, 156.568 81.3989, 158.773 84.2132, 160.979 87.0275, 163.184 89.4516, 165.389 91.3767, 167.594 93.3018, 169.799 94.7863, 172.004 95.7637, 174.21 96.7411, 176.415 97.2411, 178.62 97.2411, 180.825 97.2411, 183.03 96.7411, 185.236 95.7637, 187.441 94.7863, 189.646 93.3018, 191.851 91.3767, 194.056 89.4516, 196.262 87.0275, 198.467 84.2132, 200.672 81.3989, 202.877 78.1089, 205.082 74.491, 207.287 70.873, 209.493 66.8171, 211.698 62.5053, 213.903 58.1936, 216.108 53.495, 218.313 48.6205, 220.519 43.746, 222.724 38.5475, 224.929 33.2584, 227.134 27.9693, 229.339 22.4288, 231.544 16.8857, 233.75 11.3427, 237.057 2.81429, 238.16 4.76344e-014" fill="none" stroke="#E50500" stroke-width="3.4666667" stroke-linecap="round" stroke-linejoin="round" transform="matrix(0.384615 0 -0 0.384615 122.519 73.6163)" />
	<g transform="matrix(1 0 -0 1 117.797 21.8642)">
		<svg width="33.1395264" height="32.8723297">
			<defs />
			<path d="M 9.41063 14.0854 C 9.34193 14.3671, 9.26006 14.6785, 9.1656 15.0203, 9.0717 15.3627, 8.94575 15.6798, 8.78831 15.973, 8.63144 16.2661, 8.43336 16.5197, 8.19405 16.7332, 7.95474 16.9468, 7.65589 17.0533, 7.2975 17.0533, 6.85724 17.0533, 6.50171 16.9405, 6.23148 16.7149, 5.96126 16.4894, 5.79409 16.2569, 5.73111 16.0182, 5.51756 16.2815, 5.23131 16.5197, 4.87292 16.7332, 4.51453 16.9468, 4.09889 17.0533, 3.62714 17.0533, 3.20005 17.0533, 2.81761 16.9743, 2.48097 16.8151, 2.14434 16.6571, 1.87869 16.4126, 1.68347 16.0823, 1.49511 15.7285, 1.40408 15.338, 1.40981 14.9098 L 1.40981 14.8365 C 1.4224 14.3911, 1.47908 13.9486, 1.57984 13.5083, 1.6806 13.0875, 1.82717 12.6238, 2.01896 12.1165, 2.21075 11.6099, 2.39452 11.1181, 2.57029 10.6412, 2.75921 10.1351, 2.85368 9.71943, 2.85368 9.39539, 2.85368 9.12116, 2.73746 8.98375, 2.50445 8.98318, 2.2909 8.98375, 2.09739 9.04501, 1.92449 9.16696, 1.7516 9.28947, 1.59416 9.45894, 1.45275 9.67535, 1.31134 9.89233, 1.18367 10.1488, 1.07031 10.4448, 0.956953 10.7414, 0.863061 11.0568, 0.78749 11.3923, 0.718216 11.5578, 0.601997 11.6431, 0.438259 11.6488 L 0.221278 11.6488 C 0.0701351 11.6494, -0.00543621 11.5732, -0.00543621 11.4198 L -0.00543621 11.3557 C 0.0827303 11.0202, 0.199522 10.6772, 0.343795 10.3257, 0.48864 9.97477, 0.67127 9.65588, 0.891114 9.36848, 1.11153 9.08165, 1.36343 8.84349, 1.64625 8.65399, 1.92907 8.46506, 2.25311 8.37002, 2.6178 8.36945, 2.93268 8.37002, 3.20119 8.43758, 3.42447 8.57155, 3.64775 8.70609, 3.81778 8.88471, 3.934 9.10742, 4.0508 9.33069, 4.11492 9.58203, 4.12751 9.86256 L 4.12751 9.92668 C 4.12751 10.19, 4.07427 10.4614, 3.96664 10.7419, 3.78458 11.2188, 3.60424 11.706, 3.42447 12.2035, 3.24527 12.7016, 3.10558 13.1488, 3.00482 13.5455, 2.90406 13.9428, 2.83478 14.3361, 2.797 14.7266, 2.77181 14.8308, 2.75635 14.9442, 2.75005 15.0655, 2.75005 15.3043, 2.79127 15.5396, 2.87257 15.7709, 2.92925 15.9792, 3.03287 16.1441, 3.18402 16.2661, 3.33516 16.3886, 3.51435 16.4493, 3.7216 16.4487, 4.13724 16.4493, 4.49907 16.3245, 4.80708 16.0737, 5.11509 15.8235, 5.38532 15.4903, 5.61775 15.0747, 5.63035 15.0266, 5.64008 14.9699, 5.64638 14.9058, 5.65268 14.8417, 5.66184 14.7758, 5.67443 14.7083 L 7.08968 9.24883 C 7.14693 9.02326, 7.26143 8.85723, 7.43433 8.75017, 7.60723 8.64368, 7.78184 8.58987, 7.9576 8.58929, 8.14023 8.58987, 8.29137 8.64483, 8.41103 8.75418, 8.4929 8.83433, 8.53355 8.94081, 8.53355 9.07478, 8.53355 9.14234, 8.52725 9.21276, 8.51465 9.28547 L 7.09941 14.7449 C 6.99865 15.1239, 6.94827 15.46, 6.94827 15.7525, 6.94827 15.8327, 6.95456 15.918, 6.96716 16.009, 6.99865 16.3027, 7.14636 16.4493, 7.41085 16.4487, 7.67535 16.4493, 7.90321 16.2237, 8.095 15.7714, 8.28679 15.3197, 8.474 14.7392, 8.65606 14.0304, 8.69385 13.8724, 8.80091 13.7928, 8.97667 13.7923 L 9.19365 13.7923 C 9.2635 13.7928, 9.33277 13.814, 9.40147 13.8564, 9.42666 13.9119, 9.43926 13.9577, 9.43926 13.9938, 9.43926 14.019, 9.4301 14.0493, 9.41063 14.0854 Z" stroke="none" fill="#E50500" />
			<rect />
		</svg>
	</g>
	<g transform="matrix(1 0 -0 1 191.352 43.6976)">
		<svg width="17.9262428" height="44.9361572">
			<defs />
			<path d="M 4.85574 5.20004 C 4.79907 5.43248, 4.66853 5.62656, 4.46415 5.78228, 4.25976 5.938, 4.0382 6.01586, 3.79889 6.01529, 3.54756 6.01586, 3.35577 5.93056, 3.22352 5.75881, 3.13535 5.66148, 3.08841 5.5424, 3.08154 5.40156, 3.08154 5.31683, 3.09413 5.23095, 3.11932 5.14507, 3.17657 4.91378, 3.30882 4.7197, 3.51607 4.56398, 3.72332 4.40825, 3.9466 4.33039, 4.18591 4.32982, 4.43781 4.33039, 4.6296 4.41284, 4.76128 4.57715, 4.84945 4.69394, 4.89353 4.81874, 4.89353 4.95271, 4.89353 5.03859, 4.88093 5.12103, 4.85574 5.20004 Z M 4.95937 14.0854 C 4.89067 14.4037, 4.78361 14.738, 4.63876 15.089, 4.49449 15.4405, 4.31644 15.7594, 4.10576 16.0462, 3.89507 16.3336, 3.64775 16.5729, 3.36493 16.7647, 3.08211 16.9571, 2.75463 17.0533, 2.38365 17.0533, 2.06934 17.0533, 1.79911 16.9863, 1.5724 16.8518, 1.34569 16.7178, 1.17107 16.5409, 1.04855 16.321, 0.926037 16.1012, 0.864779 15.8567, 0.864779 15.5877, 0.852184 15.5762, 0.845886 15.5516, 0.845886 15.5144, 0.845886 15.2401, 0.905999 14.959, 1.02508 14.6716 L 2.55368 10.6412 C 2.74261 10.1351, 2.8365 9.71943, 2.8365 9.39539, 2.8365 9.12116, 2.72028 8.98375, 2.48727 8.98318, 2.27373 8.98375, 2.08193 9.04501, 1.9119 9.16696, 1.74244 9.28947, 1.58671 9.45894, 1.44473 9.67535, 1.30332 9.89233, 1.17622 10.1488, 1.06287 10.4448, 0.94951 10.7414, 0.855046 11.0568, 0.779475 11.3923, 0.710774 11.5578, 0.594554 11.6431, 0.430816 11.6488 L 0.222995 11.6488 C 0.0718527 11.6494, -0.00371855 11.5732, -0.00371855 11.4198 L -0.00371855 11.3557 C 0.0718527 11.0202, 0.18521 10.6772, 0.336352 10.3257, 0.487495 9.97477, 0.669553 9.65588, 0.883672 9.36848, 1.09779 9.08165, 1.34626 8.84349, 1.62908 8.65399, 1.9119 8.46506, 2.23594 8.37002, 2.60063 8.36945, 2.91551 8.37002, 3.18287 8.43758, 3.40271 8.57155, 3.62313 8.70609, 3.79145 8.88471, 3.90767 9.10742, 4.02389 9.33069, 4.08801 9.58203, 4.1006 9.86256 L 4.1006 9.92668 C 4.1006 10.19, 4.04736 10.4614, 3.9403 10.7419 L 2.4117 14.7907 C 2.23594 15.2859, 2.14777 15.7073, 2.14777 16.0548, 2.13518 16.0674, 2.12888 16.0674, 2.12888 16.0548, 2.12888 16.3182, 2.24853 16.4493, 2.48727 16.4487, 2.70139 16.4493, 2.8949 16.3852, 3.0678 16.2569, 3.24069 16.1287, 3.39813 15.9581, 3.53954 15.7439, 3.68095 15.5304, 3.80519 15.2739, 3.91225 14.9745, 4.01931 14.6756, 4.11663 14.3608, 4.2048 14.0304, 4.24259 13.8724, 4.35251 13.7928, 4.53457 13.7923 L 4.74239 13.7923 C 4.81166 13.7928, 4.88093 13.814, 4.94964 13.8564, 4.9691 13.9056, 4.98456 13.9486, 4.99715 13.9846, 4.99715 14.0218, 4.98456 14.0556, 4.95937 14.0854 Z" stroke="none" fill="#0080FF" />
			<rect />
		</svg>
	</g>
	<g transform="matrix(1 0 -0 1 96.5924 136.553)">
		<svg width="255.023895" height="56.9999886">
			<defs />
			<path d="M 9.40978 15.7296 C 9.34108 16.0113, 9.25921 16.3228, 9.16475 16.6645, 9.07086 17.0069, 8.94491 17.3241, 8.78747 17.6172, 8.6306 17.9103, 8.43251 18.1639, 8.1932 18.3775, 7.95389 18.591, 7.65504 18.6975, 7.29665 18.6975, 6.85639 18.6975, 6.50086 18.5847, 6.23064 18.3592, 5.96041 18.1336, 5.79324 17.9012, 5.73026 17.6624, 5.51672 17.9258, 5.23046 18.1639, 4.87207 18.3775, 4.51368 18.591, 4.09804 18.6975, 3.62629 18.6975, 3.1992 18.6975, 2.81676 18.6185, 2.48013 18.4594, 2.14349 18.3013, 1.87785 18.0569, 1.68262 17.7265, 1.49426 17.3727, 1.40323 16.9823, 1.40896 16.554 L 1.40896 16.4808 C 1.42155 16.0354, 1.47823 15.5928, 1.579 15.1525, 1.67976 14.7318, 1.82632 14.268, 2.01811 13.7608, 2.2099 13.2541, 2.39368 12.7623, 2.56944 12.2854, 2.75837 11.7793, 2.85283 11.3637, 2.85283 11.0396, 2.85283 10.7654, 2.73661 10.628, 2.5036 10.6274, 2.29005 10.628, 2.09654 10.6893, 1.92365 10.8112, 1.75075 10.9337, 1.59331 11.1032, 1.4519 11.3196, 1.31049 11.5366, 1.18282 11.7931, 1.06946 12.089, 0.956105 12.3856, 0.862213 12.7011, 0.786642 13.0365, 0.717368 13.202, 0.601149 13.2873, 0.437411 13.293 L 0.22043 13.293 C 0.069287 13.2936, -0.00628427 13.2175, -0.00628427 13.064 L -0.00628427 12.9999 C 0.0818822 12.6644, 0.198674 12.3215, 0.342947 11.97, 0.487792 11.619, 0.670422 11.3001, 0.890266 11.0127, 1.11068 10.7259, 1.36259 10.4877, 1.64541 10.2982, 1.92823 10.1093, 2.25227 10.0143, 2.61696 10.0137, 2.93184 10.0143, 3.20034 10.0818, 3.42362 10.2158, 3.6469 10.3503, 3.81694 10.529, 3.93316 10.7517, 4.04995 10.9749, 4.11407 11.2263, 4.12666 11.5068 L 4.12666 11.5709 C 4.12666 11.8343, 4.07342 12.1056, 3.96579 12.3862, 3.78373 12.8631, 3.60339 13.3503, 3.42362 13.8478, 3.24443 14.3459, 3.10473 14.793, 3.00397 15.1898, 2.90321 15.5871, 2.83394 15.9804, 2.79615 16.3708, 2.77096 16.475, 2.7555 16.5884, 2.74921 16.7098, 2.74921 16.9485, 2.79043 17.1838, 2.87172 17.4151, 2.9284 17.6235, 3.03202 17.7884, 3.18317 17.9103, 3.33431 18.0328, 3.51351 18.0935, 3.72075 18.093, 4.1364 18.0935, 4.49822 17.9687, 4.80623 17.718, 5.11424 17.4678, 5.38447 17.1346, 5.61691 16.7189, 5.6295 16.6708, 5.63923 16.6142, 5.64553 16.55, 5.65183 16.4859, 5.66099 16.4201, 5.67358 16.3525 L 7.08883 10.8931 C 7.14608 10.6675, 7.26058 10.5015, 7.43348 10.3944, 7.60638 10.2879, 7.78099 10.2341, 7.95675 10.2335, 8.13938 10.2341, 8.29053 10.2891, 8.41018 10.3984, 8.49205 10.4786, 8.5327 10.5851, 8.5327 10.719, 8.5327 10.7866, 8.5264 10.857, 8.51381 10.9297 L 7.09856 16.3892 C 6.9978 16.7682, 6.94742 17.1042, 6.94742 17.3968, 6.94742 17.4769, 6.95372 17.5622, 6.96631 17.6533, 6.9978 17.947, 7.14551 18.0935, 7.41001 18.093, 7.67451 18.0935, 7.90237 17.868, 8.09416 17.4157, 8.28595 16.964, 8.47316 16.3834, 8.65522 15.6747, 8.693 15.5167, 8.80006 15.4371, 8.97582 15.4365 L 9.1928 15.4365 C 9.26265 15.4371, 9.33192 15.4583, 9.40062 15.5006, 9.42581 15.5562, 9.43841 15.602, 9.43841 15.638, 9.43841 15.6632, 9.42925 15.6936, 9.40978 15.7296 Z" stroke="none" fill="#000000" />
			<path d="M 24.8098 18.2748 C 26.4982 18.3885, 28.1913 18.4448, 29.8914 18.4436, 31.3348 18.4448, 32.7711 18.4073, 34.2004 18.3311 L 33.9108 19.8131 C 32.3009 19.8764, 30.8974 19.9069, 29.6991 19.9069, 28.0248 19.9069, 26.3434 19.8506, 24.655 19.7381, 23.2903 19.6384, 22.1471 19.323, 21.2255 18.7907, 20.3051 18.2607, 19.5617 17.4634, 18.9942 16.3988, 18.7503 17.5502, 18.3376 18.745, 17.7572 19.982 L 16.5015 19.4192 C 17.0807 18.2197, 17.4899 17.0753, 17.7279 15.9873, 17.9671 14.8992, 18.1113 13.4793, 18.1629 11.7276 L 19.4574 11.7276 C 19.4456 12.5413, 19.4069 13.2858, 19.3413 13.96, 19.6508 15.0997, 20.1339 16.006, 20.7905 16.6802 L 20.7905 10.6207, 17.0033 10.6207, 17.0033 9.30752, 20.5396 9.30752, 20.5396 6.84996, 17.5837 6.84996, 17.5837 5.55552, 20.5396 5.55552, 20.5396 3.0792, 22.0087 3.0792, 22.0087 5.55552, 24.5014 5.55552, 24.5014 6.84996, 22.0087 6.84996, 22.0087 9.30752, 24.5202 9.30752, 24.5202 10.6207, 22.1822 10.6207, 22.1822 12.8719, 24.675 12.8719, 24.675 14.2602, 22.1822 14.2602, 22.1822 17.6557 C 22.9162 18.0192, 23.7921 18.2256, 24.8098 18.2748 Z M 25.1967 9.96412 C 25.9964 9.26531, 26.5826 8.54657, 26.9555 7.8079, 27.3283 7.07039, 27.5664 6.28834, 27.6695 5.46172 L 25.3902 5.46172, 25.3902 4.18604, 33.2929 4.18604 C 33.2542 5.86272, 33.1838 7.14543, 33.0806 8.03184, 33.0032 8.62044, 32.8872 9.06247, 32.7324 9.3556, 32.5776 9.64989, 32.3595 9.84687, 32.0758 9.94654, 31.7921 10.0474, 31.3864 10.0966, 30.8576 10.0954, 30.4976 10.0966, 29.9501 10.065, 29.2161 10.0016 L 29.0027 8.66968, 29.5244 8.7072 C 30.0403 8.75879, 30.4789 8.78342, 30.8388 8.78224, 31.1097 8.78342, 31.2961 8.72127, 31.3993 8.59582, 31.5024 8.47153, 31.5798 8.24524, 31.6314 7.91928, 31.683 7.55815, 31.7287 7.1044, 31.7663 6.56036, 31.8049 6.01632, 31.8178 5.6505, 31.8049 5.46172 L 29.0801 5.46172 C 28.9511 6.46304, 28.6967 7.38931, 28.3168 8.23938, 27.9369 9.09061, 27.2639 9.98992, 26.2977 10.9396 Z M 32.9446 17.1304 L 25.7572 17.1304, 25.7572 11.5775, 32.9446 11.5775 Z M 31.4954 12.8719 L 27.1478 12.8719, 27.1478 15.8172, 31.4954 15.8172 Z" stroke="none" fill="#000000" />
			<path d="M 53.1757 5.38668 L 53.1757 6.75616, 35.8438 6.75616, 35.8438 5.38668, 40.9442 5.38668 C 40.4424 4.41234, 40.0824 3.73698, 39.8632 3.3606 L 41.3499 2.94788 C 41.6079 3.36178, 42.0405 4.17432, 42.6455 5.38668 L 46.3553 5.38668 C 46.7293 4.78754, 47.2054 3.98086, 47.7846 2.96664 L 49.2924 3.39812 C 48.7003 4.36192, 48.2876 5.02555, 48.0554 5.38668 Z M 50.0651 7.97556 L 51.553 7.97556, 51.553 17.6932 C 51.553 18.2701, 51.4862 18.7204, 51.3502 19.044, 51.2153 19.3699, 50.9703 19.6068, 50.6162 19.7568, 50.2621 19.9069, 49.7556 19.982, 49.099 19.982, 48.3908 19.982, 47.6509 19.9444, 46.8771 19.8694 L 46.6062 18.4436 C 47.3918 18.5445, 48.0941 18.5949, 48.712 18.5937, 49.2666 18.5949, 49.6313 18.5011, 49.8048 18.3135, 49.9783 18.1259, 50.0651 17.7882, 50.0651 17.2993 Z M 37.2544 20.0195 L 37.2544 8.40704, 44.2483 8.40704, 44.2483 17.9371 C 44.2483 18.5011, 44.1745 18.9291, 44.0267 19.2222, 43.879 19.5165, 43.6375 19.7193, 43.3021 19.8319, 42.9668 19.9444, 42.4966 20.0007, 41.8916 20.0007, 41.48 20.0007, 41.0673 19.982, 40.6546 19.9444 L 40.3451 18.5562 C 40.8094 18.6324, 41.3053 18.6699, 41.833 18.6688, 42.2199 18.6699, 42.472 18.6043, 42.5869 18.473, 42.703 18.3416, 42.7604 18.0825, 42.7604 17.6932 L 42.7604 16.0986, 38.7423 16.0986, 38.7423 20.0195 Z M 46.2967 8.72596 L 47.6884 8.72596, 47.6884 16.7552, 46.2967 16.7552 Z M 42.7604 11.615 L 42.7604 9.79528, 38.7423 9.79528, 38.7423 11.615 Z M 38.7423 12.947 L 38.7423 14.7667, 42.7604 14.7667, 42.7604 12.947 Z" stroke="none" fill="#000000" />
			<path d="M 72.3814 10.0954 L 72.3814 11.5962, 64.8833 11.5962, 64.8833 17.2993 C 64.8833 18.2385, 64.6617 18.8915, 64.2173 19.2597, 63.7729 19.629, 62.9967 19.8131, 61.8887 19.8131, 61.2321 19.8131, 60.4536 19.7697, 59.5508 19.6818 L 59.2225 18.181 C 60.2531 18.3076, 61.0328 18.3698, 61.5604 18.3686, 62.0376 18.3698, 62.3882 18.3299, 62.6133 18.2478, 62.8385 18.1669, 62.9897 18.0204, 63.0671 17.807, 63.1445 17.5948, 63.1832 17.2688, 63.1832 16.8303 L 63.1832 11.5962, 55.0871 11.5962, 55.0871 10.0954, 63.1832 10.0954, 63.1832 5.68684, 56.4788 5.68684, 56.4788 4.2048, 71.0096 4.2048, 71.0096 5.68684, 64.8833 5.68684, 64.8833 10.0954 Z" stroke="none" fill="#000000" />
			<path d="M 83.6251 6.84428 C 83.5684 7.07672, 83.4379 7.2708, 83.2335 7.42653, 83.0291 7.58225, 82.8075 7.66011, 82.5682 7.65954, 82.3169 7.66011, 82.1251 7.57481, 81.9929 7.40305, 81.9053 7.30573, 81.8583 7.18664, 81.8515 7.04581, 81.8515 6.96107, 81.8641 6.8752, 81.8892 6.78932, 81.9459 6.55803, 82.0782 6.36395, 82.2854 6.20823, 82.4932 6.0525, 82.7165 5.97464, 82.9553 5.97407, 83.2072 5.97464, 83.3989 6.05708, 83.5306 6.22139, 83.6188 6.33818, 83.6629 6.46299, 83.6629 6.59696, 83.6629 6.68284, 83.6503 6.76528, 83.6251 6.84428 Z M 83.7287 15.7296 C 83.66 16.0479, 83.553 16.3823, 83.4081 16.7332, 83.2638 17.0848, 83.0858 17.4037, 82.8751 17.6905, 82.6644 17.9779, 82.4177 18.2172, 82.1348 18.409, 81.852 18.6013, 81.5246 18.6975, 81.1536 18.6975, 80.8393 18.6975, 80.569 18.6305, 80.3423 18.496, 80.1162 18.362, 79.9416 18.1851, 79.819 17.9653, 79.6965 17.7454, 79.6347 17.501, 79.6347 17.2319, 79.6221 17.2204, 79.6158 17.1958, 79.6158 17.1586, 79.6158 16.8844, 79.6759 16.6033, 79.795 16.3159 L 81.323 12.2854 C 81.512 11.7793, 81.6064 11.3637, 81.6064 11.0396, 81.6064 10.7654, 81.4902 10.628, 81.2572 10.6274, 81.0436 10.628, 80.8519 10.6893, 80.6818 10.8112, 80.5124 10.9337, 80.3566 11.1032, 80.2152 11.3196, 80.0738 11.5366, 79.9467 11.7931, 79.8334 12.089, 79.72 12.3856, 79.6255 12.7011, 79.55 13.0365, 79.4813 13.202, 79.3645 13.2873, 79.2007 13.293 L 78.9935 13.293 C 78.8423 13.2936, 78.7668 13.2175, 78.7668 13.064 L 78.7668 12.9999 C 78.8423 12.6644, 78.9557 12.3215, 79.1068 11.97, 79.258 11.619, 79.44 11.3001, 79.6536 11.0127, 79.8677 10.7259, 80.1162 10.4877, 80.399 10.2982, 80.6818 10.1093, 81.0059 10.0143, 81.3706 10.0137, 81.6854 10.0143, 81.9528 10.0818, 82.1726 10.2158, 82.3925 10.3503, 82.5608 10.529, 82.677 10.7517, 82.7938 10.9749, 82.8579 11.2263, 82.8705 11.5068 L 82.8705 11.5709 C 82.8705 11.8343, 82.8173 12.1056, 82.7096 12.3862 L 81.1816 16.435 C 81.0059 16.9302, 80.9177 17.3516, 80.9177 17.6991, 80.9051 17.7117, 80.8988 17.7117, 80.8988 17.6991, 80.8988 17.9624, 81.0185 18.0935, 81.2572 18.093, 81.4713 18.0935, 81.6642 18.0294, 81.8371 17.9012, 82.01 17.7729, 82.1675 17.6023, 82.3089 17.3882, 82.4509 17.1746, 82.5751 16.9182, 82.6816 16.6187, 82.7887 16.3199, 82.886 16.005, 82.9742 15.6747, 83.0119 15.5167, 83.1219 15.4371, 83.3039 15.4365 L 83.5117 15.4365 C 83.581 15.4371, 83.6503 15.4583, 83.719 15.5006, 83.7384 15.5499, 83.7539 15.5928, 83.7665 15.6289, 83.7665 15.6661, 83.7539 15.6999, 83.7287 15.7296 Z" stroke="none" fill="#000000" />
			<rect />
		</svg>
	</g>
	<g transform="matrix(1 0 -0 1 387.925 135.994)">
		<svg width="255.023895" height="56.9999886">
			<defs />
			<path d="M 9.40978 15.7296 C 9.34108 16.0113, 9.25921 16.3228, 9.16475 16.6645, 9.07086 17.0069, 8.94491 17.3241, 8.78747 17.6172, 8.6306 17.9103, 8.43251 18.1639, 8.1932 18.3775, 7.95389 18.591, 7.65504 18.6975, 7.29665 18.6975, 6.85639 18.6975, 6.50086 18.5847, 6.23064 18.3592, 5.96041 18.1336, 5.79324 17.9012, 5.73026 17.6624, 5.51672 17.9258, 5.23046 18.1639, 4.87207 18.3775, 4.51368 18.591, 4.09804 18.6975, 3.62629 18.6975, 3.1992 18.6975, 2.81676 18.6185, 2.48013 18.4594, 2.14349 18.3013, 1.87785 18.0569, 1.68262 17.7265, 1.49426 17.3727, 1.40323 16.9823, 1.40896 16.554 L 1.40896 16.4808 C 1.42155 16.0354, 1.47823 15.5928, 1.579 15.1525, 1.67976 14.7318, 1.82632 14.268, 2.01811 13.7608, 2.2099 13.2541, 2.39368 12.7623, 2.56944 12.2854, 2.75837 11.7793, 2.85283 11.3637, 2.85283 11.0396, 2.85283 10.7654, 2.73661 10.628, 2.5036 10.6274, 2.29005 10.628, 2.09654 10.6893, 1.92365 10.8112, 1.75075 10.9337, 1.59331 11.1032, 1.4519 11.3196, 1.31049 11.5366, 1.18282 11.7931, 1.06946 12.089, 0.956105 12.3856, 0.862213 12.7011, 0.786642 13.0365, 0.717368 13.202, 0.601149 13.2873, 0.437411 13.293 L 0.22043 13.293 C 0.069287 13.2936, -0.00628427 13.2175, -0.00628427 13.064 L -0.00628427 12.9999 C 0.0818822 12.6644, 0.198674 12.3215, 0.342947 11.97, 0.487792 11.619, 0.670422 11.3001, 0.890266 11.0127, 1.11068 10.7259, 1.36259 10.4877, 1.64541 10.2982, 1.92823 10.1093, 2.25227 10.0143, 2.61696 10.0137, 2.93184 10.0143, 3.20034 10.0818, 3.42362 10.2158, 3.6469 10.3503, 3.81694 10.529, 3.93316 10.7517, 4.04995 10.9749, 4.11407 11.2263, 4.12666 11.5068 L 4.12666 11.5709 C 4.12666 11.8343, 4.07342 12.1056, 3.96579 12.3862, 3.78373 12.8631, 3.60339 13.3503, 3.42362 13.8478, 3.24443 14.3459, 3.10473 14.793, 3.00397 15.1898, 2.90321 15.5871, 2.83394 15.9804, 2.79615 16.3708, 2.77096 16.475, 2.7555 16.5884, 2.74921 16.7098, 2.74921 16.9485, 2.79043 17.1838, 2.87172 17.4151, 2.9284 17.6235, 3.03202 17.7884, 3.18317 17.9103, 3.33431 18.0328, 3.51351 18.0935, 3.72075 18.093, 4.1364 18.0935, 4.49822 17.9687, 4.80623 17.718, 5.11424 17.4678, 5.38447 17.1346, 5.61691 16.7189, 5.6295 16.6708, 5.63923 16.6142, 5.64553 16.55, 5.65183 16.4859, 5.66099 16.4201, 5.67358 16.3525 L 7.08883 10.8931 C 7.14608 10.6675, 7.26058 10.5015, 7.43348 10.3944, 7.60638 10.2879, 7.78099 10.2341, 7.95675 10.2335, 8.13938 10.2341, 8.29053 10.2891, 8.41018 10.3984, 8.49205 10.4786, 8.5327 10.5851, 8.5327 10.719, 8.5327 10.7866, 8.5264 10.857, 8.51381 10.9297 L 7.09856 16.3892 C 6.9978 16.7682, 6.94742 17.1042, 6.94742 17.3968, 6.94742 17.4769, 6.95372 17.5622, 6.96631 17.6533, 6.9978 17.947, 7.14551 18.0935, 7.41001 18.093, 7.67451 18.0935, 7.90237 17.868, 8.09416 17.4157, 8.28595 16.964, 8.47316 16.3834, 8.65522 15.6747, 8.693 15.5167, 8.80006 15.4371, 8.97582 15.4365 L 9.1928 15.4365 C 9.26265 15.4371, 9.33192 15.4583, 9.40062 15.5006, 9.42581 15.5562, 9.43841 15.602, 9.43841 15.638, 9.43841 15.6632, 9.42925 15.6936, 9.40978 15.7296 Z" stroke="none" fill="#000000" />
			<path d="M 28.308 5.6118 C 26.5304 5.8252, 25.107 5.95652, 24.0377 6.00576 L 23.9029 4.59876 C 25.243 4.53779, 26.7954 4.40647, 28.56 4.20598, 30.3247 4.00665, 31.8442 3.78036, 33.1199 3.52944 L 33.3896 4.93644 C 32.1409 5.13811, 30.9297 5.30695, 29.7572 5.44296 L 29.7572 9.27, 33.3122 9.27, 33.3122 10.6395, 29.7572 10.6395, 29.7572 14.7479, 33.5256 14.7479, 33.5256 16.1362, 24.2499 16.1362, 24.2499 7.78796, 25.6991 7.78796, 25.6991 14.7479, 28.308 14.7479 Z M 27.2844 18.1622 C 28.8039 18.2138, 29.9448 18.2385, 30.7045 18.2373, 31.4643 18.2385, 32.6052 18.2138, 34.1247 18.1622 L 33.8539 19.5692 C 32.8104 19.6197, 31.6261 19.6443, 30.2989 19.6443, 28.9857 19.6443, 27.7932 19.6197, 26.7239 19.5692, 23.9932 19.4696, 21.8229 18.7508, 20.2118 17.4118, 19.4392 18.3885, 18.4789 19.3441, 17.3322 20.2821 L 16.3473 19.119 C 17.5069 18.1822, 18.4414 17.2571, 19.1496 16.3425, 18.2479 15.2556, 17.5456 13.8674, 17.0426 12.1778 L 18.337 11.7463 C 18.7368 13.0982, 19.2785 14.218, 19.9609 15.1044, 20.6316 13.967, 21.1276 12.56, 21.4488 10.8834 L 17.3134 10.8834, 17.3134 9.6452, 20.7723 5.74312, 17.236 5.74312, 17.236 4.35488, 22.6846 4.35488, 22.6846 5.74312, 19.3231 9.53264, 22.8394 9.53264, 22.8394 10.8458 C 22.6213 11.9855, 22.3669 12.9798, 22.0761 13.8299, 21.7865 14.6811, 21.4289 15.4749, 21.0045 16.2112, 21.7513 16.8256, 22.6401 17.2887, 23.6707 17.6006, 24.7013 17.9137, 25.9055 18.1013, 27.2844 18.1622 Z" stroke="none" fill="#000000" />
			<path d="M 39.4956 8.50084 L 53.0028 8.50084, 53.0028 9.88908, 39.4956 9.88908 C 39.4839 11.4157, 39.4065 12.7113, 39.2646 13.7736, 39.1227 14.837, 38.8742 15.8466, 38.5201 16.8033, 38.166 17.7601, 37.6548 18.7813, 36.9841 19.8694 L 35.6123 18.9314 C 36.2829 17.882, 36.7883 16.9229, 37.1295 16.0529, 37.4707 15.1841, 37.7052 14.2309, 37.8341 13.192, 37.9631 12.1544, 38.0276 10.8095, 38.0276 9.15744 L 38.0276 4.56124 C 40.2049 4.512, 42.5265 4.39358, 44.9934 4.20598, 47.4604 4.01838, 49.66 3.78739, 51.5923 3.51068 L 51.978 5.03024 C 50.3178 5.24364, 48.321 5.43827, 45.9889 5.61298, 43.658 5.78885, 41.4935 5.919, 39.4956 6.00576 Z M 42.3752 20.0758 L 40.8674 20.0758, 40.8674 12.4592, 51.3214 12.4592, 51.3214 20.0758, 49.8148 20.0758, 49.8148 18.8376, 42.3752 18.8376 Z M 49.8148 17.4681 L 49.8148 13.8287, 42.3752 13.8287, 42.3752 17.4681 Z" stroke="none" fill="#000000" />
			<path d="M 72.382 10.0954 L 72.382 11.5962, 64.8839 11.5962, 64.8839 17.2993 C 64.8839 18.2385, 64.6623 18.8915, 64.2179 19.2597, 63.7735 19.629, 62.9973 19.8131, 61.8893 19.8131, 61.2327 19.8131, 60.4542 19.7697, 59.5513 19.6818 L 59.223 18.181 C 60.2537 18.3076, 61.0334 18.3698, 61.561 18.3686, 62.0382 18.3698, 62.3888 18.3299, 62.6139 18.2478, 62.839 18.1669, 62.9903 18.0204, 63.0677 17.807, 63.1451 17.5948, 63.1837 17.2688, 63.1837 16.8303 L 63.1837 11.5962, 55.0876 11.5962, 55.0876 10.0954, 63.1837 10.0954, 63.1837 5.68684, 56.4794 5.68684, 56.4794 4.2048, 71.0102 4.2048, 71.0102 5.68684, 64.8839 5.68684, 64.8839 10.0954 Z" stroke="none" fill="#000000" />
			<path d="M 83.6262 6.84428 C 83.5696 7.07672, 83.439 7.2708, 83.2346 7.42653, 83.0303 7.58225, 82.8087 7.66011, 82.5694 7.65954, 82.3181 7.66011, 82.1263 7.57481, 81.994 7.40305, 81.9064 7.30573, 81.8595 7.18664, 81.8526 7.04581, 81.8526 6.96107, 81.8652 6.8752, 81.8904 6.78932, 81.9471 6.55803, 82.0793 6.36395, 82.2866 6.20823, 82.4944 6.0525, 82.7177 5.97464, 82.9564 5.97407, 83.2083 5.97464, 83.4001 6.05708, 83.5318 6.22139, 83.6199 6.33818, 83.664 6.46299, 83.664 6.59696, 83.664 6.68284, 83.6514 6.76528, 83.6262 6.84428 Z M 83.7299 15.7296 C 83.6612 16.0479, 83.5541 16.3823, 83.4093 16.7332, 83.265 17.0848, 83.0869 17.4037, 82.8763 17.6905, 82.6656 17.9779, 82.4188 18.2172, 82.136 18.409, 81.8532 18.6013, 81.5257 18.6975, 81.1547 18.6975, 80.8404 18.6975, 80.5702 18.6305, 80.3435 18.496, 80.1173 18.362, 79.9427 18.1851, 79.8202 17.9653, 79.6977 17.7454, 79.6358 17.501, 79.6358 17.2319, 79.6232 17.2204, 79.617 17.1958, 79.617 17.1586, 79.617 16.8844, 79.6771 16.6033, 79.7962 16.3159 L 81.3242 12.2854 C 81.5131 11.7793, 81.6076 11.3637, 81.6076 11.0396, 81.6076 10.7654, 81.4913 10.628, 81.2583 10.6274, 81.0448 10.628, 80.853 10.6893, 80.683 10.8112, 80.5135 10.9337, 80.3578 11.1032, 80.2164 11.3196, 80.075 11.5366, 79.9479 11.7931, 79.8345 12.089, 79.7211 12.3856, 79.6267 12.7011, 79.5511 13.0365, 79.4824 13.202, 79.3656 13.2873, 79.2019 13.293 L 78.9946 13.293 C 78.8435 13.2936, 78.7679 13.2175, 78.7679 13.064 L 78.7679 12.9999 C 78.8435 12.6644, 78.9568 12.3215, 79.108 11.97, 79.2591 11.619, 79.4412 11.3001, 79.6547 11.0127, 79.8689 10.7259, 80.1173 10.4877, 80.4001 10.2982, 80.683 10.1093, 81.007 10.0143, 81.3717 10.0137, 81.6866 10.0143, 81.9539 10.0818, 82.1738 10.2158, 82.3936 10.3503, 82.5619 10.529, 82.6782 10.7517, 82.795 10.9749, 82.8591 11.2263, 82.8717 11.5068 L 82.8717 11.5709 C 82.8717 11.8343, 82.8184 12.1056, 82.7108 12.3862 L 81.1828 16.435 C 81.007 16.9302, 80.9188 17.3516, 80.9188 17.6991, 80.9062 17.7117, 80.8999 17.7117, 80.8999 17.6991, 80.8999 17.9624, 81.0196 18.0935, 81.2583 18.093, 81.4725 18.0935, 81.6654 18.0294, 81.8383 17.9012, 82.0112 17.7729, 82.1686 17.6023, 82.31 17.3882, 82.452 17.1746, 82.5763 16.9182, 82.6827 16.6187, 82.7898 16.3199, 82.8871 16.005, 82.9753 15.6747, 83.0131 15.5167, 83.123 15.4371, 83.3051 15.4365 L 83.5129 15.4365 C 83.5822 15.4371, 83.6514 15.4583, 83.7201 15.5006, 83.7396 15.5499, 83.7551 15.5928, 83.7676 15.6289, 83.7676 15.6661, 83.7551 15.6999, 83.7299 15.7296 Z" stroke="none" fill="#000000" />
			<rect />
		</svg>
	</g>
</svg>
