<?xml version="1.0"?>
<svg xmlns="http://www.w3.org/2000/svg" xmlns:xlink="http://www.w3.org/1999/xlink" width="446.210144" height="280.999939">
	<defs />
	<path d="M -550.173 -6.10352e-005 L 550.173 3.05176e-005" fill="none" stroke="#000000" stroke-width="7.79999971" stroke-linecap="round" stroke-linejoin="round" transform="matrix(0.384615 0 0 0.384615 223.105 11.5)" />
	<path d="M -240.287 0 L 240.287 0" fill="none" stroke="#000000" stroke-width="7.79999971" stroke-linecap="round" stroke-linejoin="round" transform="matrix(0.384615 0 0 0.384615 103.918 159.333)" />
	<path d="M 0 -192.183 L 0 192.183" fill="none" stroke="#000000" stroke-width="7.79999971" stroke-linecap="round" stroke-linejoin="round" stroke-dasharray="27.339, 19.461" transform="matrix(0.384615 0 0 0.384615 54.0306 85.4167)" />
	<path d="M 0 -192.183 L 0 192.183" fill="none" stroke="#000000" stroke-width="7.79999971" stroke-linecap="round" stroke-linejoin="round" stroke-dasharray="27.339, 19.461" transform="matrix(0.384615 0 0 0.384615 392.374 85.4167)" />
	<path d="M -240.287 0 L 240.287 0" fill="none" stroke="#000000" stroke-width="7.79999971" stroke-linecap="round" stroke-linejoin="round" transform="matrix(0.384615 0 0 0.384615 342.292 159.333)" />
	<path d="M -69.5989 0 L 69.5989 0" fill="none" stroke="#000000" stroke-width="7.79999971" stroke-linecap="round" stroke-linejoin="round" transform="matrix(0.384615 0 0 0.384615 223.105 269.5)" />
	<path d="M 0 143.216 L 0 -143.217" fill="none" stroke="#000000" stroke-width="7.79999971" stroke-linecap="round" stroke-linejoin="round" transform="matrix(0.384615 0 0 0.384615 196.336 214.417)" />
	<path d="M 0 143.216 L 0 -143.217" fill="none" stroke="#000000" stroke-width="7.79999971" stroke-linecap="round" stroke-linejoin="round" transform="matrix(0.384615 0 0 0.384615 249.874 214.417)" />
	<path d="M -11.532 0 L 11.5308 0" fill="none" stroke="#000000" stroke-width="7.79999971" stroke-linecap="round" stroke-linejoin="round" transform="matrix(0.384615 0 0 0.384615 212.705 159.333)" />
	<path d="M -11.5308 0 L 11.5305 0" fill="none" stroke="#000000" stroke-width="7.79999971" stroke-linecap="round" stroke-linejoin="round" transform="matrix(0.384615 0 0 0.384615 233.507 159.333)" />
</svg>
