<?xml version="1.0"?>
<svg xmlns="http://www.w3.org/2000/svg" xmlns:xlink="http://www.w3.org/1999/xlink" width="577.748535" height="187.578171">
	<defs />
	<path d="M -72.8763 0 L -43.7258 0" fill="none" stroke="#000000" stroke-width="2.4000001" stroke-linecap="round" stroke-linejoin="round" transform="matrix(-1.93713e-007 -0.416667 0.416667 -1.93713e-007 62.2612 124.963)" />
	<path d="M 43.7258 0 L 72.8763 0" fill="none" stroke="#000000" stroke-width="2.4000001" stroke-linecap="round" stroke-linejoin="round" transform="matrix(-1.93713e-007 -0.416667 0.416667 -1.93713e-007 62.2612 124.963)" />
	<path d="M -43.7258 0 L -38.2601 13.9192, -27.3286 -13.9192, -16.3972 13.9192, -5.46572 -13.9192, 5.46572 13.9192, 16.3972 -13.9192, 27.3286 13.9192, 38.2601 -13.9192, 43.7258 0" fill="none" stroke="#000000" stroke-width="3.60000014" stroke-linecap="round" stroke-linejoin="round" transform="matrix(-1.93713e-007 -0.416667 0.416667 -1.93713e-007 62.2612 124.963)" />
	<path d="M -545.824 0 L 545.823 0" fill="none" stroke="#0053CC" stroke-width="2.4000001" stroke-linecap="round" stroke-linejoin="round" transform="matrix(0.416667 0 0 0.416667 289.688 70.0182)" />
	<path d="M -545.729 0 L 545.729 0" fill="none" stroke="#000000" stroke-width="2.4000001" stroke-linecap="round" stroke-linejoin="round" transform="matrix(0.416667 0 0 0.416667 289.727 179.078)" />
	<g transform="matrix(1 0 -0 1 8.5 115.357)">
		<svg width="114.019073" height="41.9571304">
			<defs />
			<path d="M 5.85337 14.3717 C 4.88145 14.3409, 3.93551 14.3255, 3.01601 14.3255, 2.097 14.3255, 1.15105 14.3409, 0.178653 14.3717 L 0.178653 13.7099, 0.725926 13.7099 C 0.900015 13.7104, 1.064 13.708, 1.21693 13.7027, 1.37034 13.6979, 1.51558 13.6849, 1.65312 13.6642, 1.79066 13.644, 1.90944 13.6234, 2.00947 13.6022, 2.09411 13.5873, 2.16432 13.5402, 2.21963 13.4603, 2.27541 13.381, 2.30282 13.2925, 2.30282 13.1944 L 2.30282 4.52265 C 2.03881 4.65154, 1.71371 4.74916, 1.32802 4.81553, 0.942335 4.88237, 0.519616 4.91556, 0.0598683 4.91508 L 0.0598683 4.26104 C 0.694186 4.26152, 1.27945 4.18602, 1.81566 4.03453, 2.35188 3.88353, 2.81547 3.59979, 3.20645 3.18381 L 3.45219 3.18381 C 3.62628 3.18429, 3.71333 3.26893, 3.71333 3.43773 L 3.71333 13.1944 C 3.71333 13.2973, 3.73978 13.3872, 3.79268 13.4642, 3.84558 13.5411, 3.92252 13.5873, 4.02255 13.6022, 4.10719 13.6234, 4.21588 13.644, 4.34765 13.6642, 4.4799 13.6849, 4.62898 13.6979, 4.79537 13.7027, 4.96177 13.708, 5.12431 13.7104, 5.28253 13.7099 L 5.85337 13.7099, 5.85337 14.3717 Z" stroke="none" fill="#000000" />
			<path d="M 14.3465 14.3717 L 7.89654 14.3717, 7.89654 13.9485 C 7.89654 13.9182, 7.91241 13.872, 7.94415 13.81 L 10.5353 10.9938 C 10.8421 10.6557, 11.1523 10.3094, 11.4668 9.95547, 11.7813 9.60153, 12.0622 9.23988, 12.3103 8.87055, 12.5585 8.50121, 12.7566 8.12033, 12.9047 7.72791, 13.0528 7.33549, 13.1264 6.92383, 13.1264 6.49245, 13.1264 6.12889, 13.0793 5.78889, 12.9841 5.47341, 12.8889 5.15793, 12.7518 4.88093, 12.5719 4.6424, 12.3921 4.40387, 12.1675 4.21151, 11.8982 4.06531, 11.6289 3.91911, 11.3172 3.84602, 10.9633 3.84554, 10.4353 3.84602, 9.96877 4.00375, 9.56481 4.31923, 9.16085 4.63471, 8.8925 4.9824, 8.76025 5.36136, 8.73428 5.37194, 8.7766 5.37723, 8.88721 5.37675 L 9.02187 5.37675 C 9.18057 5.4133, 9.31763 5.4686, 9.43401 5.54266, 9.55039 5.6172, 9.64801 5.71964, 9.72736 5.85044, 9.80671 5.98125, 9.84614 6.13899, 9.84614 6.32317, 9.84614 6.63144, 9.74611 6.86756, 9.5451 7.03155, 9.34408 7.19602, 9.11949 7.27778, 8.87134 7.2773, 8.63377 7.27778, 8.41208 7.19602, 8.20577 7.03155, 7.99994 6.86756, 7.89654 6.63144, 7.89654 6.32317, 7.89654 5.89276, 7.98118 5.48495, 8.15046 5.10022, 8.31974 4.7155, 8.54913 4.38223, 8.8396 4.09994, 9.13007 3.81812, 9.47344 3.59498, 9.86971 3.43051, 10.266 3.26652, 10.6863 3.18429, 11.1297 3.18381, 11.6789 3.18429, 12.1824 3.26508, 12.6393 3.42666, 13.0961 3.58825, 13.4857 3.82053, 13.8079 4.12302, 14.1301 4.42599, 14.3826 4.77609, 14.5648 5.17332, 14.7471 5.57103, 14.838 6.01058, 14.838 6.49245, 14.838 7.02626, 14.7168 7.51775, 14.4734 7.96644, 14.2306 8.41561, 13.9295 8.82726, 13.5703 9.20141, 13.2111 9.57604, 12.8292 9.92854, 12.4253 10.2594, 12.0213 10.5903, 11.6553 10.912, 11.3278 11.2246 L 9.50518 12.9405, 11.8905 12.9405 C 12.2233 12.941, 12.5339 12.9385, 12.8215 12.9333, 13.1096 12.9284, 13.3539 12.9179, 13.5544 12.9025, 13.7554 12.8871, 13.8584 12.877, 13.8632 12.8712, 13.9055 12.8356, 13.9454 12.764, 13.9824 12.6563, 14.0195 12.5485, 14.0536 12.4216, 14.0853 12.2754, 14.1171 12.1292, 14.1488 11.9806, 14.1806 11.8291, 14.2123 11.6781, 14.2412 11.5122, 14.2676 11.3323 L 14.8538 11.3323 Z" stroke="none" fill="#000000" />
			<path d="M 23.5174 9.01626 C 23.5174 9.75542, 23.4659 10.4902, 23.363 11.2212, 23.2601 11.9522, 23.0052 12.6385, 22.5983 13.279, 22.3079 13.7465, 21.9193 14.1052, 21.4336 14.3563, 20.9479 14.6078, 20.4194 14.7333, 19.8485 14.7333, 19.2993 14.7333, 18.7804 14.6078, 18.2918 14.3563, 17.8032 14.1052, 17.4132 13.7465, 17.1227 13.279, 16.7164 12.6385, 16.4615 11.9522, 16.3586 11.2212, 16.2556 10.4902, 16.2037 9.75542, 16.2037 9.01626, 16.2037 8.26797, 16.2556 7.52015, 16.3586 6.77379, 16.4615 6.02742, 16.7164 5.32866, 17.1227 4.67655, 17.4132 4.20525, 17.8018 3.83832, 18.2875 3.57671, 18.7737 3.31509, 19.294 3.18429, 19.8485 3.18381, 20.4141 3.18429, 20.9407 3.31509, 21.4293 3.57671, 21.9179 3.83832, 22.3079 4.20525, 22.5983 4.67655, 23.0052 5.32866, 23.2601 6.02742, 23.363 6.77379, 23.4659 7.52015, 23.5174 8.26797, 23.5174 9.01626 Z M 21.9482 8.74695 C 21.9482 8.42426, 21.9458 8.0833, 21.9405 7.72406, 21.9357 7.3653, 21.9222 7.01376, 21.901 6.66991, 21.8799 6.32654, 21.8419 6.00193, 21.7861 5.69655, 21.7308 5.39165, 21.6635 5.131, 21.5841 4.91508, 21.4254 4.5669, 21.1931 4.28076, 20.8868 4.05762, 20.5805 3.83447, 20.2342 3.7229, 19.8485 3.72242, 19.4734 3.7229, 19.1344 3.83592, 18.8304 4.06146, 18.527 4.28749, 18.2957 4.57171, 18.137 4.91508, 18.0581 5.131, 17.9908 5.39165, 17.935 5.69655, 17.8797 6.00193, 17.8412 6.32654, 17.82 6.66991, 17.7989 7.01376, 17.7859 7.3653, 17.7806 7.72406, 17.7753 8.0833, 17.7724 8.42426, 17.7724 8.74695, 17.7724 9.10667, 17.7753 9.48515, 17.7806 9.88238, 17.7859 10.2801, 17.7989 10.6648, 17.82 11.0366, 17.8412 11.4088, 17.8797 11.7613, 17.935 12.0946, 17.9908 12.4283, 18.0581 12.7077, 18.137 12.9328, 18.2851 13.3079, 18.514 13.6157, 18.8227 13.8566, 19.1315 14.098, 19.4734 14.2182, 19.8485 14.2178, 20.2395 14.2182, 20.5896 14.098, 20.8983 13.8566, 21.2076 13.6157, 21.436 13.3079, 21.5841 12.9328, 21.6635 12.7077, 21.7308 12.4283, 21.7861 12.0946, 21.8419 11.7613, 21.8799 11.4088, 21.901 11.0366, 21.9222 10.6648, 21.9357 10.2801, 21.9405 9.88238, 21.9458 9.48515, 21.9482 9.10667, 21.9482 8.74695 Z" stroke="none" fill="#000000" />
			<path d="M 36.3612 14.2324 C 36.3288 14.358, 36.2399 14.4208, 36.0942 14.4208 L 33.4183 14.4208 C 33.2406 14.4208, 33.1513 14.3349, 33.1513 14.1617, 33.1513 13.5184, 33.247 12.8981, 33.4384 12.3014, 33.6298 11.7047, 33.8388 11.1148, 34.0651 10.5308, 34.2918 9.94738, 34.4964 9.36489, 34.6794 8.78387, 34.863 8.20286, 34.9543 7.61154, 34.9543 7.00893, 34.9543 6.53833, 34.8816 6.08195, 34.7359 5.63932, 34.5906 5.19718, 34.3615 4.80853, 34.0489 4.47337, 33.7363 4.13869, 33.3673 3.88205, 32.9413 3.70391, 32.5154 3.52627, 32.0708 3.43696, 31.607 3.43647, 31.1438 3.43696, 30.6992 3.52627, 30.2732 3.70391, 29.8473 3.88205, 29.4797 4.13869, 29.1696 4.47337, 28.8595 4.80853, 28.6303 5.19718, 28.4821 5.63932, 28.3339 6.08195, 28.2598 6.53833, 28.2598 7.00893, 28.2598 7.61154, 28.3531 8.20286, 28.5385 8.78387, 28.7245 9.36489, 28.9306 9.94738, 29.1569 10.5308, 29.3836 11.1148, 29.5921 11.7061, 29.7835 12.3053, 29.9749 12.905, 30.0706 13.5238, 30.0706 14.1617, 30.0706 14.3349, 29.9872 14.4208, 29.8203 14.4208 L 27.1194 14.4208 C 26.9795 14.4208, 26.8932 14.358, 26.8608 14.2324 L 26.295 11.9868 C 26.295 11.846, 26.3705 11.7572, 26.5212 11.7199 L 26.61 11.7199 C 26.7503 11.7204, 26.8367 11.7856, 26.8691 11.9162, 26.9555 12.2778, 27.035 12.5762, 27.1076 12.8117, 27.1802 13.0473, 27.2303 13.1729, 27.2568 13.1881, 27.3108 13.2303, 27.4403 13.2568, 27.6449 13.2671, 27.8501 13.2779, 28.0954 13.2828, 28.381 13.2823 L 29.416 13.2823 C 29.3031 12.8117, 29.0886 12.3279, 28.7731 11.8303, 28.4581 11.3332, 28.1303 10.8331, 27.7907 10.3306, 27.4511 9.82813, 27.1508 9.30748, 26.8892 8.76817, 26.6282 8.22936, 26.4971 7.64294, 26.4971 7.00893, 26.4971 6.42301, 26.6345 5.88174, 26.9093 5.38415, 27.1841 4.88704, 27.5537 4.46012, 28.0169 4.10385, 28.5184 3.70146, 29.0793 3.40163, 29.6991 3.20534, 30.3189 3.00905, 30.9549 2.9109, 31.607 2.91041, 32.2597 2.9109, 32.8957 3.00905, 33.5154 3.20534, 34.1352 3.40163, 34.704 3.70146, 35.2212 4.10385, 35.6741 4.47091, 36.0407 4.90128, 36.3209 5.39592, 36.6011 5.89057, 36.741 6.42841, 36.741 7.00893, 36.741 7.64294, 36.6104 8.22936, 36.3489 8.76817, 36.0878 9.30748, 35.7846 9.82813, 35.4396 10.3306, 35.0946 10.8331, 34.7629 11.3332, 34.4449 11.8303, 34.1269 12.3279, 33.9115 12.8117, 33.7981 13.2823 L 34.8409 13.2823 C 35.127 13.2828, 35.3723 13.2779, 35.577 13.2671, 35.7821 13.2568, 35.9112 13.2303, 35.9651 13.1881, 35.9813 13.1783, 36.027 13.0527, 36.1025 12.8117, 36.1781 12.5713, 36.2586 12.2724, 36.345 11.9162, 36.3773 11.791, 36.4667 11.7258, 36.6119 11.7199 L 36.7007 11.7199 C 36.8465 11.7518, 36.9191 11.8406, 36.9191 11.9868 Z" stroke="none" fill="#000000" />
			<rect />
		</svg>
	</g>
	<g transform="matrix(1 0 -0 1 252.107 159.198)">
		<svg width="189.018051" height="44.9142761">
			<defs />
			<path d="M 8.53707 8.71968 C 8.53707 9.21286, 8.44056 9.67864, 8.24754 10.117, 8.05453 10.5554, 7.79485 10.9349, 7.46893 11.2555, 7.14342 11.5761, 6.7582 11.8325, 6.31328 12.0239, 5.86836 12.2161, 5.39236 12.3118, 4.88446 12.3118, 4.23302 12.3118, 3.60735 12.1866, 3.00744 11.936, 2.40794 11.6853, 1.88124 11.3307, 1.42732 10.8723, 0.960313 10.3885, 0.605357 9.84671, 0.362449 9.2468, 0.11995 8.6473, -0.00150371 8.02204, -0.00150371 7.37183, -0.00150371 6.72244, 0.11995 6.09636, 0.362449 5.49441, 0.605357 4.89246, 0.960313 4.35389, 1.42732 3.87789, 1.88124 3.42029, 2.40794 3.0637, 3.00744 2.80852, 3.60735 2.55334, 4.23302 2.42576, 4.88446 2.42535, 5.41035 2.42576, 5.8888 2.5329, 6.31982 2.74636, 6.75125 2.96023, 7.10825 3.2285, 7.39123 3.55074 L 8.11914 2.52349 C 8.14613 2.45847, 8.20461 2.42576, 8.29457 2.42535 L 8.33506 2.42535 C 8.47 2.42576, 8.53707 2.49323, 8.53707 2.62818 L 8.53707 6.20064 C 8.53707 6.33191, 8.47 6.39938, 8.33506 6.40347 L 8.18007 6.40347 C 8.07211 6.40388, 8.00464 6.34295, 7.97765 6.22027, 7.95965 5.78025, 7.87091 5.36273, 7.71143 4.9677, 7.55194 4.57308, 7.33971 4.22957, 7.07472 3.93718, 6.80973 3.6452, 6.50343 3.4117, 6.15502 3.23708, 5.80661 3.06288, 5.42834 2.97537, 5.01941 2.97496, 4.50251 2.97537, 4.02201 3.08455, 3.57709 3.30251, 3.13217 3.52089, 2.75268 3.82595, 2.43821 4.21812, 2.09225 4.65486, 1.8567 5.14436, 1.73075 5.68743, 1.6048 6.23049, 1.54182 6.79196, 1.54182 7.37183, 1.54182 7.94802, 1.6048 8.50745, 1.73075 9.05051, 1.8567 9.59358, 2.09225 10.0831, 2.43821 10.519, 2.75718 10.912, 3.14157 11.2207, 3.59059 11.4452, 4.04001 11.6702, 4.5205 11.7822, 5.03249 11.7818, 5.45533 11.7822, 5.852 11.7016, 6.22249 11.5401, 6.59299 11.379, 6.91319 11.1573, 7.18268 10.876, 7.45216 10.5947, 7.66563 10.2708, 7.82266 9.90437, 7.9801 9.53796, 8.05861 9.14334, 8.05861 8.71968, 8.05861 8.58923, 8.12404 8.5238, 8.25409 8.52339 L 8.33506 8.52339 C 8.47 8.5238, 8.53707 8.58923, 8.53707 8.71968 Z" stroke="none" fill="#000000" />
			<path d="M 18.9413 12.0239 C 18.3573 11.9936, 17.7938 11.9781, 17.2499 11.9781 L 16.987 11.9781 C 16.3536 11.9871, 15.6952 12.0002, 15.0123 12.0173 L 15.0123 11.4743 C 15.2147 11.4747, 15.3967 11.4673, 15.5582 11.4518, 15.7201 11.4367, 15.8637 11.4048, 15.9896 11.3565, 16.0481 11.3262, 16.0996 11.2804, 16.1446 11.2191, 16.1626 11.1978, 16.1716 11.1692, 16.1716 11.134, 16.1716 11.1169, 16.1695 11.0972, 16.1646 11.0752 L 15.4032 8.96177, 12.0941 8.96177, 11.4676 10.7153 C 11.4451 10.768, 11.4337 10.8183, 11.4337 10.8658, 11.4337 10.9099, 11.4406 10.9533, 11.4541 10.9966, 11.4901 11.0931, 11.5486 11.1717, 11.6291 11.2322, 11.7461 11.3287, 11.8708 11.3929, 12.0033 11.4256, 12.1358 11.4583, 12.2965 11.4747, 12.485 11.4743 L 12.485 12.0173 C 11.9416 12.0002, 11.4226 11.9871, 10.9282 11.9781 L 10.7197 11.9781 C 10.2882 11.9781, 9.83881 11.9936, 9.37181 12.0239 L 9.37181 11.4743 C 9.58772 11.4747, 9.77502 11.4608, 9.9345 11.4322, 10.094 11.4039, 10.2477 11.3483, 10.3958 11.2649, 10.6387 11.1299, 10.8092 10.9316, 10.9082 10.6695 L 13.8194 2.47115 C 13.8644 2.3407, 13.9588 2.27731, 14.1024 2.2814 L 14.2103 2.2814 C 14.3543 2.28181, 14.4483 2.3452, 14.4933 2.47115 L 17.553 11.0359 C 17.5759 11.1193, 17.6106 11.1933, 17.6577 11.2588, 17.7051 11.3242, 17.7689 11.3679, 17.8494 11.3892, 17.9664 11.4334, 18.1206 11.4583, 18.3115 11.4649, 18.5025 11.4714, 18.7123 11.4747, 18.9413 11.4743 L 18.9413 12.0239 Z M 13.7589 4.31627 L 12.2896 8.41871, 15.2077 8.41871 Z" stroke="none" fill="#000000" />
			<path d="M 29.1851 3.26939 C 28.9606 3.2698, 28.7586 3.28084, 28.5786 3.30251, 28.3991 3.3246, 28.2372 3.38103, 28.0932 3.47222, 27.9857 3.53356, 27.9039 3.6178, 27.8475 3.72454, 27.7914 3.83168, 27.7632 3.94372, 27.7632 4.06109 L 27.7632 11.8014 C 27.7632 11.9458, 27.6912 12.0173, 27.5473 12.0173 L 27.4667 12.0173 C 27.3907 12.0173, 27.3297 11.9871, 27.2848 11.9257 L 21.5564 3.72085 C 21.5204 3.66892, 21.5294 3.66892, 21.5834 3.72085 L 21.5834 10.6891 C 21.5834 10.9337, 21.6934 11.1279, 21.9134 11.2714, 22.0618 11.3635, 22.2246 11.4203, 22.4021 11.442, 22.5796 11.464, 22.7807 11.4747, 23.0053 11.4743 L 23.0053 12.0239 C 22.4258 11.9936, 21.8643 11.9781, 21.3204 11.9781, 20.786 11.9781, 20.2265 11.9936, 19.6422 12.0239 L 19.6422 11.4743 C 19.8671 11.4747, 20.0679 11.4628, 20.2453 11.4387, 20.4228 11.415, 20.586 11.359, 20.734 11.2714, 20.9499 11.1324, 21.0599 10.9382, 21.0644 10.6891 L 21.0644 3.36099 C 21.0689 3.3614, 21.062 3.35486, 21.044 3.34136, 20.9005 3.30251, 20.6997 3.28084, 20.4412 3.27634, 20.1828 3.27225, 19.9166 3.2698, 19.6422 3.26939 L 19.6422 2.73287, 22.2573 2.73287 C 22.3338 2.73328, 22.3943 2.76395, 22.4393 2.82447 L 27.2443 9.71421, 27.2443 4.06109 C 27.2443 3.94372, 27.2165 3.83249, 27.16 3.72781, 27.104 3.62312, 27.0243 3.53602, 26.9208 3.46568, 26.7728 3.37449, 26.6088 3.31887, 26.4289 3.29924, 26.2493 3.27961, 26.0473 3.2698, 25.8224 3.26939 L 25.8224 2.73287 C 26.4109 2.75086, 26.9723 2.75945, 27.5072 2.75904, 28.0511 2.75945, 28.6101 2.75086, 29.1851 2.73287 L 29.1851 3.26939 Z" stroke="none" fill="#000000" />
			<path d="M 37.4509 14.8046 C 37.4509 14.8962, 37.4173 14.9748, 37.3498 15.0402, 37.2824 15.1056, 37.2014 15.1383, 37.1069 15.1383 L 29.2558 15.1383 C 29.1658 15.1383, 29.0861 15.1056, 29.0166 15.0402, 28.947 14.9748, 28.9119 14.8962, 28.9119 14.8046, 28.9119 14.7175, 28.947 14.6403, 29.0166 14.5724, 29.0861 14.5049, 29.1658 14.471, 29.2558 14.471 L 37.1069 14.471 C 37.1969 14.471, 37.2771 14.5049, 37.3466 14.5724, 37.4161 14.6403, 37.4509 14.7175, 37.4509 14.8046 Z" stroke="none" fill="#000000" />
			<path d="M 44.4988 12.0173 L 37.1797 12.0173, 37.1797 11.4743 C 37.4271 11.4747, 37.6655 11.4714, 37.8945 11.4649, 38.1235 11.4583, 38.2965 11.4354, 38.413 11.3958, 38.476 11.3745, 38.5234 11.332, 38.5549 11.2686, 38.5864 11.2056, 38.602 11.1344, 38.602 11.0555 L 38.602 3.6816 C 38.602 3.60349, 38.5864 3.53274, 38.5549 3.46936, 38.5234 3.40638, 38.476 3.36345, 38.413 3.34136, 38.2965 3.30251, 38.1235 3.28084, 37.8945 3.27634, 37.6655 3.27225, 37.4271 3.2698, 37.1797 3.26939 L 37.1797 2.73287 C 37.8585 2.75945, 38.5144 2.77253, 39.1479 2.77212, 39.2513 2.77253, 39.3568 2.76803, 39.4644 2.75904, 40.1923 2.75945, 40.9472 2.75086, 41.7287 2.73287 L 41.7287 3.26939, 41.2637 3.26939 C 41.1247 3.2698, 40.9885 3.27225, 40.856 3.27634, 40.7235 3.28084, 40.5992 3.28943, 40.4822 3.30251, 40.3653 3.3156, 40.2733 3.33073, 40.2058 3.34791, 40.1297 3.36999, 40.07 3.41293, 40.0275 3.4759, 39.985 3.53929, 39.9633 3.60799, 39.9633 3.6816 L 39.9633 11.0555 C 39.9633 11.1299, 39.967 11.1978, 39.9735 11.2588, 39.9801 11.3201, 40.0083 11.3679, 40.0574 11.4023, 40.1023 11.4375, 40.1788 11.4583, 40.2868 11.4649, 40.3947 11.4714, 40.4978 11.4747, 40.5967 11.4743 L 41.7021 11.4743 C 42.066 11.4747, 42.4161 11.4289, 42.7531 11.3373, 43.09 11.2457, 43.3824 11.0776, 43.6294 10.8331, 43.9173 10.537, 44.1046 10.1804, 44.1921 9.7637, 44.2796 9.3474, 44.3504 8.90779, 44.4043 8.44488 L 44.8828 8.44488 Z" stroke="none" fill="#000000" />
			<path d="M 51.8764 9.09918 C 51.8764 9.50975, 51.7978 9.90232, 51.6404 10.2773, 51.4834 10.6527, 51.254 10.984, 50.953 11.2714, 50.6655 11.5512, 50.333 11.7703, 49.9556 11.9294, 49.5786 12.0885, 49.1786 12.1678, 48.7558 12.1678, 48.3338 12.1678, 47.9338 12.0897, 47.5564 11.9327, 47.1793 11.7757, 46.8444 11.5552, 46.552 11.2714, 46.247 10.9795, 46.018 10.647, 45.865 10.274, 45.7121 9.9011, 45.6356 9.50975, 45.6356 9.09918, 45.6356 8.68083, 45.7133 8.27762, 45.8683 7.88914, 46.0233 7.50106, 46.251 7.15182, 46.552 6.84185, 46.8399 6.54987, 47.1736 6.32005, 47.5531 6.15198, 47.9326 5.98431, 48.3338 5.90007, 48.7558 5.89966, 49.1786 5.90007, 49.5786 5.98431, 49.9556 6.15198, 50.333 6.32005, 50.6655 6.54987, 50.953 6.84185, 51.2589 7.15632, 51.4891 7.50637, 51.6441 7.89241, 51.7991 8.27844, 51.8764 8.68083, 51.8764 9.09918 Z M 50.5956 8.94869 C 50.5956 8.61336, 50.5723 8.28171, 50.5248 7.95457, 50.4778 7.62742, 50.3621 7.32848, 50.1781 7.05777, 50.0071 6.82713, 49.7982 6.6472, 49.5512 6.51838, 49.3042 6.38998, 49.0392 6.32537, 48.7558 6.32496, 48.4728 6.32537, 48.2078 6.38998, 47.9608 6.51838, 47.7138 6.6472, 47.5048 6.82713, 47.3339 7.05777, 47.1499 7.3244, 47.0342 7.6221, 46.9867 7.95129, 46.9397 8.2809, 46.916 8.61336, 46.916 8.94869, 46.916 9.30242, 46.9376 9.65246, 46.9802 9.99924, 47.0231 10.346, 47.1409 10.6654, 47.3339 10.9574, 47.4869 11.1847, 47.6913 11.3647, 47.9473 11.4976, 48.2033 11.6309, 48.4728 11.6971, 48.7558 11.6967, 49.0392 11.6971, 49.3087 11.6309, 49.5647 11.4976, 49.8206 11.3647, 50.0251 11.1847, 50.1781 10.9574, 50.3711 10.6654, 50.4893 10.346, 50.5318 9.99924, 50.5743 9.65246, 50.5956 9.30242, 50.5956 8.94869 Z" stroke="none" fill="#000000" />
			<path d="M 61.8895 6.65865 C 61.5795 6.65906, 61.3301 6.72653, 61.1412 6.86148, 61.0471 6.93591, 60.9649 7.02546, 60.8954 7.13015, 60.8259 7.23484, 60.7686 7.34811, 60.7236 7.46998 L 59.0724 11.9715 C 59.0364 12.1024, 58.9399 12.1678, 58.7824 12.1678 L 58.7554 12.1678 C 58.5984 12.1678, 58.5019 12.1024, 58.4659 11.9715 L 57.0976 8.26167, 55.7297 11.9715 C 55.6937 12.1024, 55.6042 12.1678, 55.4602 12.1678 L 55.4128 12.1678 C 55.2558 12.1678, 55.1617 12.1024, 55.1298 11.9715 L 53.3375 7.09703 C 53.3105 7.02342, 53.279 6.95267, 53.243 6.88479, 53.207 6.81732, 53.1522 6.76497, 53.0778 6.72776, 53.0038 6.69095, 52.9015 6.6701, 52.7711 6.6656, 52.641 6.66151, 52.4926 6.65906, 52.3266 6.65865 L 52.3266 6.1025 C 52.785 6.14216, 53.2164 6.16384, 53.6204 6.16793, 53.6699 6.16833, 53.7239 6.16179, 53.782 6.1483, 54.2359 6.14871, 54.7213 6.13357, 55.2378 6.1025 L 55.2378 6.65865 C 55.0718 6.65906, 54.9348 6.66356, 54.8268 6.67214, 54.7188 6.68114, 54.6178 6.7114, 54.5234 6.76334, 54.4563 6.81159, 54.4224 6.87048, 54.4224 6.94, 54.4224 6.97516, 54.4293 7.01442, 54.4424 7.05777 L 55.7363 10.5779, 56.8486 7.55504, 56.6801 7.09703 C 56.6531 7.02342, 56.6183 6.95267, 56.5758 6.88479, 56.5333 6.81732, 56.4801 6.76579, 56.4171 6.73062, 56.3452 6.69177, 56.2429 6.6701, 56.1104 6.6656, 55.978 6.66151, 55.8242 6.65906, 55.6488 6.65865 L 55.6488 6.1025 C 56.0937 6.14216, 56.5141 6.16384, 56.9091 6.16793, 56.9496 6.16833, 56.9966 6.16179, 57.0506 6.1483, 57.4955 6.14871, 57.9629 6.13357, 58.4524 6.1025 L 58.4524 6.65865 C 58.2864 6.65906, 58.1494 6.66356, 58.0414 6.67214, 57.9335 6.68114, 57.8325 6.7114, 57.738 6.76334, 57.6709 6.81159, 57.637 6.87048, 57.637 6.94, 57.637 6.97516, 57.644 7.01442, 57.657 7.05777 L 59.0184 10.7349, 60.2382 7.42418 C 60.2607 7.37224, 60.2742 7.31335, 60.2787 7.24752, 60.2787 7.21725, 60.2742 7.18249, 60.2652 7.14283, 60.2521 7.04714, 60.2117 6.96453, 60.1438 6.8942, 60.0677 6.81609, 59.9757 6.7572, 59.8677 6.71794, 59.7598 6.67869, 59.6297 6.65906, 59.4768 6.65865 L 59.4768 6.1025 C 59.9352 6.13357, 60.3756 6.14871, 60.7977 6.1483, 61.1301 6.14871, 61.4941 6.13357, 61.8895 6.1025 L 61.8895 6.65865 Z" stroke="none" fill="#000000" />
			<rect />
		</svg>
	</g>
	<path d="M -102.304 -42.6704 L 102.304 -42.6704, 102.304 42.6704, -102.304 42.6704 Z" fill="none" stroke="#000000" stroke-width="2.4000001" stroke-linecap="round" stroke-linejoin="round" transform="matrix(0.416667 0 -0 0.416667 159.387 26.2794)" />
	<g transform="matrix(1 0 -0 1 138.059 16.673)">
		<svg width="128.941681" height="51.0856972">
			<defs />
			<path d="M 7.41307 16.4496 L 7.41307 13.4818, 0.619999 13.4818, 0.619999 12.359, 7.41307 12.359, 7.41307 10.6709, 2.04309 10.6709, 2.04309 3.82434, 5.32652 3.82434 C 4.91677 3.32773, 4.39366 2.73346, 3.75768 2.04203 L 4.80096 1.43746 C 5.60427 2.24421, 6.18087 2.86448, 6.53124 3.29828 L 5.60967 3.82434, 9.45104 3.82434 C 10.0438 3.02937, 10.5993 2.24421, 11.117 1.46887 L 12.3463 1.94781 C 12.098 2.28347, 11.6559 2.85123, 11.0199 3.6516, 10.9551 3.73061, 10.9095 3.78802, 10.8825 3.82434 L 14.0604 3.82434, 14.0604 10.6709, 8.67472 10.6709, 8.67472 12.359, 15.4678 12.359, 15.4678 13.4818, 8.67472 13.4818, 8.67472 16.4496 Z M 3.26401 9.61879 L 7.41307 9.61879, 7.41307 7.73442, 3.26401 7.73442 Z M 8.67472 9.61879 L 12.8311 9.61879, 12.8311 7.73442, 8.67472 7.73442 Z M 3.26401 6.74512 L 7.41307 6.74512, 7.41307 4.9157, 3.26401 4.9157 Z M 8.67472 6.74512 L 12.8311 6.74512, 12.8311 4.9157, 8.67472 4.9157 Z" stroke="none" fill="#000000" />
			<path d="M 18.0675 16.379 C 17.7927 16.0129, 17.5017 15.6463, 17.194 15.2798, 18.3315 14.6418, 19.1672 14.079, 19.7011 13.5917, 20.2782 13.0583, 20.6904 12.4404, 20.9382 11.7387, 21.1595 11.0954, 21.2999 10.19, 21.3588 9.02207, 21.3588 8.95435, 21.3642 8.82873, 21.375 8.6452, 21.3858 8.41554, 21.3911 8.24526, 21.3911 8.13484 L 17.194 8.13484, 17.194 6.9257, 31.7915 6.9257, 31.7915 8.13484, 27.0197 8.13484, 27.0197 13.4975 C 27.0197 13.9587, 27.1007 14.2699, 27.2626 14.4318, 27.4138 14.5893, 27.7018 14.6678, 28.1278 14.6673 L 29.0253 14.6673 C 29.5003 14.6678, 29.836 14.5869, 30.0328 14.4244, 30.2296 14.2625, 30.3763 13.9533, 30.473 13.4975, 30.5269 13.1265, 30.6054 12.4537, 30.7075 11.4796, 31.1659 11.6528, 31.5786 11.7863, 31.9451 11.88, 31.8538 12.807, 31.7645 13.4822, 31.6782 13.9057, 31.5378 14.6286, 31.2817 15.136, 30.9097 15.4289, 30.5328 15.7224, 29.9449 15.8686, 29.147 15.8686 L 27.7882 15.8686 C 27.0821 15.8686, 26.5643 15.7091, 26.2356 15.3897, 25.896 15.0653, 25.7262 14.5447, 25.7262 13.8272 L 25.7262 8.13484, 22.7014 8.13484, 22.6528 9.05348 C 22.588 10.3833, 22.4236 11.4384, 22.1596 12.2177, 21.8794 13.0558, 21.4186 13.7939, 20.7768 14.4318, 20.1732 15.029, 19.2698 15.6777, 18.0675 16.379 Z M 18.6254 3.67516 L 18.6254 2.47387, 30.3679 2.47387, 30.3679 3.67516 Z" stroke="none" fill="#000000" />
			<path d="M 41.5258 14.3717 C 40.5539 14.3409, 39.6084 14.3255, 38.6889 14.3255, 37.7699 14.3255, 36.8244 14.3409, 35.8525 14.3717 L 35.8525 13.7099, 36.3993 13.7099 C 36.5734 13.7104, 36.7374 13.708, 36.8903 13.7027, 37.0437 13.6979, 37.189 13.6849, 37.3265 13.6642, 37.464 13.644, 37.5828 13.6234, 37.6829 13.6022, 37.7675 13.5873, 37.8372 13.5402, 37.8925 13.4603, 37.9483 13.381, 37.9757 13.2925, 37.9757 13.1944 L 37.9757 4.52265 C 37.7122 4.65154, 37.3871 4.74916, 37.0014 4.81553, 36.6157 4.88237, 36.1935 4.91556, 35.7337 4.91508 L 35.7337 4.26104 C 36.3676 4.26152, 36.9528 4.18602, 37.489 4.03453, 38.0253 3.88353, 38.4889 3.59979, 38.8794 3.18381 L 39.1251 3.18381 C 39.2992 3.18429, 39.3862 3.26893, 39.3862 3.43773 L 39.3862 13.1944 C 39.3862 13.2973, 39.4127 13.3872, 39.4656 13.4642, 39.5185 13.5411, 39.5954 13.5873, 39.6955 13.6022, 39.7801 13.6234, 39.8888 13.644, 40.0205 13.6642, 40.1523 13.6849, 40.3014 13.6979, 40.4678 13.7027, 40.6342 13.708, 40.7967 13.7104, 40.9554 13.7099 L 41.5258 13.7099, 41.5258 14.3717 Z" stroke="none" fill="#000000" />
			<rect />
		</svg>
	</g>
	<path d="M 0 -28.5 L 0 28.5" fill="none" stroke="#000000" stroke-width="2.4000001" stroke-linecap="round" stroke-linejoin="round" transform="matrix(0.416667 0 0 0.416667 62.2612 167.203)" />
	<path d="M 0 -29.4954 L 0 29.4959" fill="none" stroke="#000000" stroke-width="2.4000001" stroke-linecap="round" stroke-linejoin="round" transform="matrix(0.416667 0 0 0.416667 62.2612 82.308)" />
	<path d="M -72.8763 0 L -43.7258 0" fill="none" stroke="#000000" stroke-width="2.4000001" stroke-linecap="round" stroke-linejoin="round" transform="matrix(-1.93713e-007 -0.416667 0.416667 -1.93713e-007 517.114 124.963)" />
	<path d="M 43.7258 0 L 72.8763 0" fill="none" stroke="#000000" stroke-width="2.4000001" stroke-linecap="round" stroke-linejoin="round" transform="matrix(-1.93713e-007 -0.416667 0.416667 -1.93713e-007 517.114 124.963)" />
	<path d="M -43.7258 0 L -38.2601 13.9192, -27.3286 -13.9192, -16.3972 13.9192, -5.46572 -13.9192, 5.46572 13.9192, 16.3972 -13.9192, 27.3286 13.9192, 38.2601 -13.9192, 43.7258 0" fill="none" stroke="#000000" stroke-width="3.60000014" stroke-linecap="round" stroke-linejoin="round" transform="matrix(-1.93713e-007 -0.416667 0.416667 -1.93713e-007 517.114 124.963)" />
	<g transform="matrix(1 0 -0 1 531.882 115.357)">
		<svg width="114.019073" height="41.9571304">
			<defs />
			<path d="M 5.85337 14.3717 C 4.88145 14.3409, 3.93551 14.3255, 3.01601 14.3255, 2.097 14.3255, 1.15105 14.3409, 0.178653 14.3717 L 0.178653 13.7099, 0.725926 13.7099 C 0.900015 13.7104, 1.064 13.708, 1.21693 13.7027, 1.37034 13.6979, 1.51558 13.6849, 1.65312 13.6642, 1.79066 13.644, 1.90944 13.6234, 2.00947 13.6022, 2.09411 13.5873, 2.16432 13.5402, 2.21963 13.4603, 2.27541 13.381, 2.30282 13.2925, 2.30282 13.1944 L 2.30282 4.52265 C 2.03881 4.65154, 1.71371 4.74916, 1.32802 4.81553, 0.942335 4.88237, 0.519616 4.91556, 0.0598683 4.91508 L 0.0598683 4.26104 C 0.694186 4.26152, 1.27945 4.18602, 1.81566 4.03453, 2.35188 3.88353, 2.81547 3.59979, 3.20645 3.18381 L 3.45219 3.18381 C 3.62628 3.18429, 3.71333 3.26893, 3.71333 3.43773 L 3.71333 13.1944 C 3.71333 13.2973, 3.73978 13.3872, 3.79268 13.4642, 3.84558 13.5411, 3.92252 13.5873, 4.02255 13.6022, 4.10719 13.6234, 4.21588 13.644, 4.34765 13.6642, 4.4799 13.6849, 4.62898 13.6979, 4.79537 13.7027, 4.96177 13.708, 5.12431 13.7104, 5.28253 13.7099 L 5.85337 13.7099, 5.85337 14.3717 Z" stroke="none" fill="#000000" />
			<path d="M 14.3465 14.3717 L 7.89654 14.3717, 7.89654 13.9485 C 7.89654 13.9182, 7.91241 13.872, 7.94415 13.81 L 10.5353 10.9938 C 10.8421 10.6557, 11.1523 10.3094, 11.4668 9.95547, 11.7813 9.60153, 12.0622 9.23988, 12.3103 8.87055, 12.5585 8.50121, 12.7566 8.12033, 12.9047 7.72791, 13.0528 7.33549, 13.1264 6.92383, 13.1264 6.49245, 13.1264 6.12889, 13.0793 5.78889, 12.9841 5.47341, 12.8889 5.15793, 12.7518 4.88093, 12.5719 4.6424, 12.3921 4.40387, 12.1675 4.21151, 11.8982 4.06531, 11.6289 3.91911, 11.3172 3.84602, 10.9633 3.84554, 10.4353 3.84602, 9.96877 4.00375, 9.56481 4.31923, 9.16085 4.63471, 8.8925 4.9824, 8.76025 5.36136, 8.73428 5.37194, 8.7766 5.37723, 8.88721 5.37675 L 9.02187 5.37675 C 9.18057 5.4133, 9.31763 5.4686, 9.43401 5.54266, 9.55039 5.6172, 9.64801 5.71964, 9.72736 5.85044, 9.80671 5.98125, 9.84614 6.13899, 9.84614 6.32317, 9.84614 6.63144, 9.74611 6.86756, 9.5451 7.03155, 9.34408 7.19602, 9.11949 7.27778, 8.87134 7.2773, 8.63377 7.27778, 8.41208 7.19602, 8.20577 7.03155, 7.99994 6.86756, 7.89654 6.63144, 7.89654 6.32317, 7.89654 5.89276, 7.98118 5.48495, 8.15046 5.10022, 8.31974 4.7155, 8.54913 4.38223, 8.8396 4.09994, 9.13007 3.81812, 9.47344 3.59498, 9.86971 3.43051, 10.266 3.26652, 10.6863 3.18429, 11.1297 3.18381, 11.6789 3.18429, 12.1824 3.26508, 12.6393 3.42666, 13.0961 3.58825, 13.4857 3.82053, 13.8079 4.12302, 14.1301 4.42599, 14.3826 4.77609, 14.5648 5.17332, 14.7471 5.57103, 14.838 6.01058, 14.838 6.49245, 14.838 7.02626, 14.7168 7.51775, 14.4734 7.96644, 14.2306 8.41561, 13.9295 8.82726, 13.5703 9.20141, 13.2111 9.57604, 12.8292 9.92854, 12.4253 10.2594, 12.0213 10.5903, 11.6553 10.912, 11.3278 11.2246 L 9.50518 12.9405, 11.8905 12.9405 C 12.2233 12.941, 12.5339 12.9385, 12.8215 12.9333, 13.1096 12.9284, 13.3539 12.9179, 13.5544 12.9025, 13.7554 12.8871, 13.8584 12.877, 13.8632 12.8712, 13.9055 12.8356, 13.9454 12.764, 13.9824 12.6563, 14.0195 12.5485, 14.0536 12.4216, 14.0853 12.2754, 14.1171 12.1292, 14.1488 11.9806, 14.1806 11.8291, 14.2123 11.6781, 14.2412 11.5122, 14.2676 11.3323 L 14.8538 11.3323 Z" stroke="none" fill="#000000" />
			<path d="M 23.5174 9.01626 C 23.5174 9.75542, 23.4659 10.4902, 23.363 11.2212, 23.2601 11.9522, 23.0052 12.6385, 22.5983 13.279, 22.3079 13.7465, 21.9193 14.1052, 21.4336 14.3563, 20.9479 14.6078, 20.4194 14.7333, 19.8485 14.7333, 19.2993 14.7333, 18.7804 14.6078, 18.2918 14.3563, 17.8032 14.1052, 17.4132 13.7465, 17.1227 13.279, 16.7164 12.6385, 16.4615 11.9522, 16.3586 11.2212, 16.2556 10.4902, 16.2037 9.75542, 16.2037 9.01626, 16.2037 8.26797, 16.2556 7.52015, 16.3586 6.77379, 16.4615 6.02742, 16.7164 5.32866, 17.1227 4.67655, 17.4132 4.20525, 17.8018 3.83832, 18.2875 3.57671, 18.7737 3.31509, 19.294 3.18429, 19.8485 3.18381, 20.4141 3.18429, 20.9407 3.31509, 21.4293 3.57671, 21.9179 3.83832, 22.3079 4.20525, 22.5983 4.67655, 23.0052 5.32866, 23.2601 6.02742, 23.363 6.77379, 23.4659 7.52015, 23.5174 8.26797, 23.5174 9.01626 Z M 21.9482 8.74695 C 21.9482 8.42426, 21.9458 8.0833, 21.9405 7.72406, 21.9357 7.3653, 21.9222 7.01376, 21.901 6.66991, 21.8799 6.32654, 21.8419 6.00193, 21.7861 5.69655, 21.7308 5.39165, 21.6635 5.131, 21.5841 4.91508, 21.4254 4.5669, 21.1931 4.28076, 20.8868 4.05762, 20.5805 3.83447, 20.2342 3.7229, 19.8485 3.72242, 19.4734 3.7229, 19.1344 3.83592, 18.8304 4.06146, 18.527 4.28749, 18.2957 4.57171, 18.137 4.91508, 18.0581 5.131, 17.9908 5.39165, 17.935 5.69655, 17.8797 6.00193, 17.8412 6.32654, 17.82 6.66991, 17.7989 7.01376, 17.7859 7.3653, 17.7806 7.72406, 17.7753 8.0833, 17.7724 8.42426, 17.7724 8.74695, 17.7724 9.10667, 17.7753 9.48515, 17.7806 9.88238, 17.7859 10.2801, 17.7989 10.6648, 17.82 11.0366, 17.8412 11.4088, 17.8797 11.7613, 17.935 12.0946, 17.9908 12.4283, 18.0581 12.7077, 18.137 12.9328, 18.2851 13.3079, 18.514 13.6157, 18.8227 13.8566, 19.1315 14.098, 19.4734 14.2182, 19.8485 14.2178, 20.2395 14.2182, 20.5896 14.098, 20.8983 13.8566, 21.2076 13.6157, 21.436 13.3079, 21.5841 12.9328, 21.6635 12.7077, 21.7308 12.4283, 21.7861 12.0946, 21.8419 11.7613, 21.8799 11.4088, 21.901 11.0366, 21.9222 10.6648, 21.9357 10.2801, 21.9405 9.88238, 21.9458 9.48515, 21.9482 9.10667, 21.9482 8.74695 Z" stroke="none" fill="#000000" />
			<path d="M 36.3612 14.2324 C 36.3288 14.358, 36.2399 14.4208, 36.0942 14.4208 L 33.4183 14.4208 C 33.2406 14.4208, 33.1513 14.3349, 33.1513 14.1617, 33.1513 13.5184, 33.247 12.8981, 33.4384 12.3014, 33.6298 11.7047, 33.8388 11.1148, 34.0651 10.5308, 34.2918 9.94738, 34.4964 9.36489, 34.6794 8.78387, 34.863 8.20286, 34.9543 7.61154, 34.9543 7.00893, 34.9543 6.53833, 34.8816 6.08195, 34.7359 5.63932, 34.5906 5.19718, 34.3615 4.80853, 34.0489 4.47337, 33.7363 4.13869, 33.3673 3.88205, 32.9413 3.70391, 32.5154 3.52627, 32.0708 3.43696, 31.607 3.43647, 31.1438 3.43696, 30.6992 3.52627, 30.2732 3.70391, 29.8473 3.88205, 29.4797 4.13869, 29.1696 4.47337, 28.8595 4.80853, 28.6303 5.19718, 28.4821 5.63932, 28.3339 6.08195, 28.2598 6.53833, 28.2598 7.00893, 28.2598 7.61154, 28.3531 8.20286, 28.5385 8.78387, 28.7245 9.36489, 28.9306 9.94738, 29.1569 10.5308, 29.3836 11.1148, 29.5921 11.7061, 29.7835 12.3053, 29.9749 12.905, 30.0706 13.5238, 30.0706 14.1617, 30.0706 14.3349, 29.9872 14.4208, 29.8203 14.4208 L 27.1194 14.4208 C 26.9795 14.4208, 26.8932 14.358, 26.8608 14.2324 L 26.295 11.9868 C 26.295 11.846, 26.3705 11.7572, 26.5212 11.7199 L 26.61 11.7199 C 26.7503 11.7204, 26.8367 11.7856, 26.8691 11.9162, 26.9555 12.2778, 27.035 12.5762, 27.1076 12.8117, 27.1802 13.0473, 27.2303 13.1729, 27.2568 13.1881, 27.3108 13.2303, 27.4403 13.2568, 27.6449 13.2671, 27.8501 13.2779, 28.0954 13.2828, 28.381 13.2823 L 29.416 13.2823 C 29.3031 12.8117, 29.0886 12.3279, 28.7731 11.8303, 28.4581 11.3332, 28.1303 10.8331, 27.7907 10.3306, 27.4511 9.82813, 27.1508 9.30748, 26.8892 8.76817, 26.6282 8.22936, 26.4971 7.64294, 26.4971 7.00893, 26.4971 6.42301, 26.6345 5.88174, 26.9093 5.38415, 27.1841 4.88704, 27.5537 4.46012, 28.0169 4.10385, 28.5184 3.70146, 29.0793 3.40163, 29.6991 3.20534, 30.3189 3.00905, 30.9549 2.9109, 31.607 2.91041, 32.2597 2.9109, 32.8957 3.00905, 33.5154 3.20534, 34.1352 3.40163, 34.704 3.70146, 35.2212 4.10385, 35.6741 4.47091, 36.0407 4.90128, 36.3209 5.39592, 36.6011 5.89057, 36.741 6.42841, 36.741 7.00893, 36.741 7.64294, 36.6104 8.22936, 36.3489 8.76817, 36.0878 9.30748, 35.7846 9.82813, 35.4396 10.3306, 35.0946 10.8331, 34.7629 11.3332, 34.4449 11.8303, 34.1269 12.3279, 33.9115 12.8117, 33.7981 13.2823 L 34.8409 13.2823 C 35.127 13.2828, 35.3723 13.2779, 35.577 13.2671, 35.7821 13.2568, 35.9112 13.2303, 35.9651 13.1881, 35.9813 13.1783, 36.027 13.0527, 36.1025 12.8117, 36.1781 12.5713, 36.2586 12.2724, 36.345 11.9162, 36.3773 11.791, 36.4667 11.7258, 36.6119 11.7199 L 36.7007 11.7199 C 36.8465 11.7518, 36.9191 11.8406, 36.9191 11.9868 Z" stroke="none" fill="#000000" />
			<rect />
		</svg>
	</g>
	<path d="M 0 -28.5 L 0 28.5" fill="none" stroke="#000000" stroke-width="2.4000001" stroke-linecap="round" stroke-linejoin="round" transform="matrix(0.416667 0 0 0.416667 517.114 167.203)" />
	<path d="M 0 -29.4954 L 0 29.4959" fill="none" stroke="#000000" stroke-width="2.4000001" stroke-linecap="round" stroke-linejoin="round" transform="matrix(0.416667 0 0 0.416667 517.114 82.308)" />
	<ellipse cx="847.14814472198486" cy="479.94996356964111" rx="6.3000001907348633" ry="6.3000001907348633" stroke="none" fill="#0053CC" transform="matrix(0.416667 0 0 0.416667 -181.542 -129.961)" />
	<ellipse cx="790.00532245635986" cy="741.69386005401611" rx="6.3000001907348633" ry="6.3000001907348633" stroke="none" fill="#000000" transform="matrix(0.416667 0 0 0.416667 -181.542 -129.961)" />
	<path d="M 0 31.1515 L 0 -31.1514" fill="none" stroke="#0053CC" stroke-width="2.4000001" stroke-linecap="round" stroke-linejoin="round" transform="matrix(0.416667 0 0 0.416667 171.436 57.0384)" />
	<path d="M 0 162.023 L 0 -162.024" fill="none" stroke="#000000" stroke-width="2.4000001" stroke-linecap="round" stroke-linejoin="round" transform="matrix(0.416667 0 0 0.416667 147.626 111.569)" />
	<path d="M -102.304 -42.6704 L 102.304 -42.6704, 102.304 42.6704, -102.304 42.6704 Z" fill="none" stroke="#000000" stroke-width="2.4000001" stroke-linecap="round" stroke-linejoin="round" transform="matrix(0.416667 0 -0 0.416667 402.672 26.2794)" />
	<g transform="matrix(1 0 -0 1 381.343 16.673)">
		<svg width="132.029114" height="51.0856972">
			<defs />
			<path d="M 7.41307 16.4496 L 7.41307 13.4818, 0.619999 13.4818, 0.619999 12.359, 7.41307 12.359, 7.41307 10.6709, 2.04309 10.6709, 2.04309 3.82434, 5.32652 3.82434 C 4.91677 3.32773, 4.39366 2.73346, 3.75768 2.04203 L 4.80096 1.43746 C 5.60427 2.24421, 6.18087 2.86448, 6.53124 3.29828 L 5.60967 3.82434, 9.45104 3.82434 C 10.0438 3.02937, 10.5993 2.24421, 11.117 1.46887 L 12.3463 1.94781 C 12.098 2.28347, 11.6559 2.85123, 11.0199 3.6516, 10.9551 3.73061, 10.9095 3.78802, 10.8825 3.82434 L 14.0604 3.82434, 14.0604 10.6709, 8.67472 10.6709, 8.67472 12.359, 15.4678 12.359, 15.4678 13.4818, 8.67472 13.4818, 8.67472 16.4496 Z M 3.26401 9.61879 L 7.41307 9.61879, 7.41307 7.73442, 3.26401 7.73442 Z M 8.67472 9.61879 L 12.8311 9.61879, 12.8311 7.73442, 8.67472 7.73442 Z M 3.26401 6.74512 L 7.41307 6.74512, 7.41307 4.9157, 3.26401 4.9157 Z M 8.67472 6.74512 L 12.8311 6.74512, 12.8311 4.9157, 8.67472 4.9157 Z" stroke="none" fill="#000000" />
			<path d="M 18.0675 16.379 C 17.7927 16.0129, 17.5017 15.6463, 17.194 15.2798, 18.3315 14.6418, 19.1672 14.079, 19.7011 13.5917, 20.2782 13.0583, 20.6904 12.4404, 20.9382 11.7387, 21.1595 11.0954, 21.2999 10.19, 21.3588 9.02207, 21.3588 8.95435, 21.3642 8.82873, 21.375 8.6452, 21.3858 8.41554, 21.3911 8.24526, 21.3911 8.13484 L 17.194 8.13484, 17.194 6.9257, 31.7915 6.9257, 31.7915 8.13484, 27.0197 8.13484, 27.0197 13.4975 C 27.0197 13.9587, 27.1007 14.2699, 27.2626 14.4318, 27.4138 14.5893, 27.7018 14.6678, 28.1278 14.6673 L 29.0253 14.6673 C 29.5003 14.6678, 29.836 14.5869, 30.0328 14.4244, 30.2296 14.2625, 30.3763 13.9533, 30.473 13.4975, 30.5269 13.1265, 30.6054 12.4537, 30.7075 11.4796, 31.1659 11.6528, 31.5786 11.7863, 31.9451 11.88, 31.8538 12.807, 31.7645 13.4822, 31.6782 13.9057, 31.5378 14.6286, 31.2817 15.136, 30.9097 15.4289, 30.5328 15.7224, 29.9449 15.8686, 29.147 15.8686 L 27.7882 15.8686 C 27.0821 15.8686, 26.5643 15.7091, 26.2356 15.3897, 25.896 15.0653, 25.7262 14.5447, 25.7262 13.8272 L 25.7262 8.13484, 22.7014 8.13484, 22.6528 9.05348 C 22.588 10.3833, 22.4236 11.4384, 22.1596 12.2177, 21.8794 13.0558, 21.4186 13.7939, 20.7768 14.4318, 20.1732 15.029, 19.2698 15.6777, 18.0675 16.379 Z M 18.6254 3.67516 L 18.6254 2.47387, 30.3679 2.47387, 30.3679 3.67516 Z" stroke="none" fill="#000000" />
			<path d="M 41.5494 14.3717 L 35.0994 14.3717, 35.0994 13.9485 C 35.0994 13.9182, 35.1153 13.872, 35.147 13.81 L 37.7382 10.9938 C 38.045 10.6557, 38.3552 10.3094, 38.6697 9.95547, 38.9842 9.60153, 39.265 9.23988, 39.5132 8.87055, 39.7613 8.50121, 39.9595 8.12033, 40.1076 7.72791, 40.2557 7.33549, 40.3293 6.92383, 40.3293 6.49245, 40.3293 6.12889, 40.2822 5.78889, 40.1869 5.47341, 40.0917 5.15793, 39.9547 4.88093, 39.7748 4.6424, 39.5949 4.40387, 39.3704 4.21151, 39.1011 4.06531, 38.8317 3.91911, 38.5201 3.84602, 38.1662 3.84554, 37.6381 3.84602, 37.1716 4.00375, 36.7677 4.31923, 36.3637 4.63471, 36.0954 4.9824, 35.9631 5.36136, 35.9372 5.37194, 35.9795 5.37723, 36.0901 5.37675 L 36.2247 5.37675 C 36.3834 5.4133, 36.5205 5.4686, 36.6369 5.54266, 36.7533 5.6172, 36.8509 5.71964, 36.9302 5.85044, 37.0096 5.98125, 37.049 6.13899, 37.049 6.32317, 37.049 6.63144, 36.949 6.86756, 36.748 7.03155, 36.547 7.19602, 36.3224 7.27778, 36.0742 7.2773, 35.8366 7.27778, 35.6149 7.19602, 35.4086 7.03155, 35.2028 6.86756, 35.0994 6.63144, 35.0994 6.32317, 35.0994 5.89276, 35.1841 5.48495, 35.3533 5.10022, 35.5226 4.7155, 35.752 4.38223, 36.0425 4.09994, 36.3329 3.81812, 36.6763 3.59498, 37.0726 3.43051, 37.4688 3.26652, 37.8892 3.18429, 38.3326 3.18381, 38.8818 3.18429, 39.3853 3.26508, 39.8421 3.42666, 40.299 3.58825, 40.6885 3.82053, 41.0107 4.12302, 41.3329 4.42599, 41.5854 4.77609, 41.7677 5.17332, 41.95 5.57103, 42.0408 6.01058, 42.0408 6.49245, 42.0408 7.02626, 41.9197 7.51775, 41.6763 7.96644, 41.4335 8.41561, 41.1324 8.82726, 40.7732 9.20141, 40.4139 9.57604, 40.0321 9.92854, 39.6281 10.2594, 39.2242 10.5903, 38.8582 10.912, 38.5307 11.2246 L 36.7081 12.9405, 39.0934 12.9405 C 39.4261 12.941, 39.7368 12.9385, 40.0244 12.9333, 40.3125 12.9284, 40.5568 12.9179, 40.7573 12.9025, 40.9583 12.8871, 41.0612 12.877, 41.066 12.8712, 41.1084 12.8356, 41.1483 12.764, 41.1853 12.6563, 41.2223 12.5485, 41.2565 12.4216, 41.2882 12.2754, 41.32 12.1292, 41.3517 11.9806, 41.3834 11.8291, 41.4152 11.6781, 41.444 11.5122, 41.4705 11.3323 L 42.0567 11.3323 Z" stroke="none" fill="#000000" />
			<rect />
		</svg>
	</g>
	<ellipse cx="1431.0315675735474" cy="479.94996356964111" rx="6.3000001907348633" ry="6.3000001907348633" stroke="none" fill="#0053CC" transform="matrix(0.416667 0 0 0.416667 -181.542 -129.961)" />
	<ellipse cx="1373.8893556594849" cy="741.69386005401611" rx="6.3000001907348633" ry="6.3000001907348633" stroke="none" fill="#000000" transform="matrix(0.416667 0 0 0.416667 -181.542 -129.961)" />
	<path d="M 0 31.1515 L 0 -31.1514" fill="none" stroke="#0053CC" stroke-width="2.4000001" stroke-linecap="round" stroke-linejoin="round" transform="matrix(0.416667 0 0 0.416667 414.721 57.0384)" />
	<path d="M 0 162.023 L 0 -162.024" fill="none" stroke="#000000" stroke-width="2.4000001" stroke-linecap="round" stroke-linejoin="round" transform="matrix(0.416667 0 0 0.416667 390.912 111.569)" />
	<g transform="matrix(1 0 -0 1 250.531 74.3026)">
		<svg width="200.981873" height="44.9142761">
			<defs />
			<path d="M 8.53707 8.71968 C 8.53707 9.21286, 8.44056 9.67864, 8.24754 10.117, 8.05453 10.5554, 7.79485 10.9349, 7.46893 11.2555, 7.14342 11.5761, 6.7582 11.8325, 6.31328 12.0239, 5.86836 12.2161, 5.39236 12.3118, 4.88446 12.3118, 4.23302 12.3118, 3.60735 12.1866, 3.00744 11.936, 2.40794 11.6853, 1.88124 11.3307, 1.42732 10.8723, 0.960313 10.3885, 0.605357 9.84671, 0.362449 9.2468, 0.11995 8.6473, -0.00150371 8.02204, -0.00150371 7.37183, -0.00150371 6.72244, 0.11995 6.09636, 0.362449 5.49441, 0.605357 4.89246, 0.960313 4.35389, 1.42732 3.87789, 1.88124 3.42029, 2.40794 3.0637, 3.00744 2.80852, 3.60735 2.55334, 4.23302 2.42576, 4.88446 2.42535, 5.41035 2.42576, 5.8888 2.5329, 6.31982 2.74636, 6.75125 2.96023, 7.10825 3.2285, 7.39123 3.55074 L 8.11914 2.52349 C 8.14613 2.45847, 8.20461 2.42576, 8.29457 2.42535 L 8.33506 2.42535 C 8.47 2.42576, 8.53707 2.49323, 8.53707 2.62818 L 8.53707 6.20064 C 8.53707 6.33191, 8.47 6.39938, 8.33506 6.40347 L 8.18007 6.40347 C 8.07211 6.40388, 8.00464 6.34295, 7.97765 6.22027, 7.95965 5.78025, 7.87091 5.36273, 7.71143 4.9677, 7.55194 4.57308, 7.33971 4.22957, 7.07472 3.93718, 6.80973 3.6452, 6.50343 3.4117, 6.15502 3.23708, 5.80661 3.06288, 5.42834 2.97537, 5.01941 2.97496, 4.50251 2.97537, 4.02201 3.08455, 3.57709 3.30251, 3.13217 3.52089, 2.75268 3.82595, 2.43821 4.21812, 2.09225 4.65486, 1.8567 5.14436, 1.73075 5.68743, 1.6048 6.23049, 1.54182 6.79196, 1.54182 7.37183, 1.54182 7.94802, 1.6048 8.50745, 1.73075 9.05051, 1.8567 9.59358, 2.09225 10.0831, 2.43821 10.519, 2.75718 10.912, 3.14157 11.2207, 3.59059 11.4452, 4.04001 11.6702, 4.5205 11.7822, 5.03249 11.7818, 5.45533 11.7822, 5.852 11.7016, 6.22249 11.5401, 6.59299 11.379, 6.91319 11.1573, 7.18268 10.876, 7.45216 10.5947, 7.66563 10.2708, 7.82266 9.90437, 7.9801 9.53796, 8.05861 9.14334, 8.05861 8.71968, 8.05861 8.58923, 8.12404 8.5238, 8.25409 8.52339 L 8.33506 8.52339 C 8.47 8.5238, 8.53707 8.58923, 8.53707 8.71968 Z" stroke="none" fill="#000000" />
			<path d="M 18.9413 12.0239 C 18.3573 11.9936, 17.7938 11.9781, 17.2499 11.9781 L 16.987 11.9781 C 16.3536 11.9871, 15.6952 12.0002, 15.0123 12.0173 L 15.0123 11.4743 C 15.2147 11.4747, 15.3967 11.4673, 15.5582 11.4518, 15.7201 11.4367, 15.8637 11.4048, 15.9896 11.3565, 16.0481 11.3262, 16.0996 11.2804, 16.1446 11.2191, 16.1626 11.1978, 16.1716 11.1692, 16.1716 11.134, 16.1716 11.1169, 16.1695 11.0972, 16.1646 11.0752 L 15.4032 8.96177, 12.0941 8.96177, 11.4676 10.7153 C 11.4451 10.768, 11.4337 10.8183, 11.4337 10.8658, 11.4337 10.9099, 11.4406 10.9533, 11.4541 10.9966, 11.4901 11.0931, 11.5486 11.1717, 11.6291 11.2322, 11.7461 11.3287, 11.8708 11.3929, 12.0033 11.4256, 12.1358 11.4583, 12.2965 11.4747, 12.485 11.4743 L 12.485 12.0173 C 11.9416 12.0002, 11.4226 11.9871, 10.9282 11.9781 L 10.7197 11.9781 C 10.2882 11.9781, 9.83881 11.9936, 9.37181 12.0239 L 9.37181 11.4743 C 9.58772 11.4747, 9.77502 11.4608, 9.9345 11.4322, 10.094 11.4039, 10.2477 11.3483, 10.3958 11.2649, 10.6387 11.1299, 10.8092 10.9316, 10.9082 10.6695 L 13.8194 2.47115 C 13.8644 2.3407, 13.9588 2.27731, 14.1024 2.2814 L 14.2103 2.2814 C 14.3543 2.28181, 14.4483 2.3452, 14.4933 2.47115 L 17.553 11.0359 C 17.5759 11.1193, 17.6106 11.1933, 17.6577 11.2588, 17.7051 11.3242, 17.7689 11.3679, 17.8494 11.3892, 17.9664 11.4334, 18.1206 11.4583, 18.3115 11.4649, 18.5025 11.4714, 18.7123 11.4747, 18.9413 11.4743 L 18.9413 12.0239 Z M 13.7589 4.31627 L 12.2896 8.41871, 15.2077 8.41871 Z" stroke="none" fill="#000000" />
			<path d="M 29.1851 3.26939 C 28.9606 3.2698, 28.7586 3.28084, 28.5786 3.30251, 28.3991 3.3246, 28.2372 3.38103, 28.0932 3.47222, 27.9857 3.53356, 27.9039 3.6178, 27.8475 3.72454, 27.7914 3.83168, 27.7632 3.94372, 27.7632 4.06109 L 27.7632 11.8014 C 27.7632 11.9458, 27.6912 12.0173, 27.5473 12.0173 L 27.4667 12.0173 C 27.3907 12.0173, 27.3297 11.9871, 27.2848 11.9257 L 21.5564 3.72085 C 21.5204 3.66892, 21.5294 3.66892, 21.5834 3.72085 L 21.5834 10.6891 C 21.5834 10.9337, 21.6934 11.1279, 21.9134 11.2714, 22.0618 11.3635, 22.2246 11.4203, 22.4021 11.442, 22.5796 11.464, 22.7807 11.4747, 23.0053 11.4743 L 23.0053 12.0239 C 22.4258 11.9936, 21.8643 11.9781, 21.3204 11.9781, 20.786 11.9781, 20.2265 11.9936, 19.6422 12.0239 L 19.6422 11.4743 C 19.8671 11.4747, 20.0679 11.4628, 20.2453 11.4387, 20.4228 11.415, 20.586 11.359, 20.734 11.2714, 20.9499 11.1324, 21.0599 10.9382, 21.0644 10.6891 L 21.0644 3.36099 C 21.0689 3.3614, 21.062 3.35486, 21.044 3.34136, 20.9005 3.30251, 20.6997 3.28084, 20.4412 3.27634, 20.1828 3.27225, 19.9166 3.2698, 19.6422 3.26939 L 19.6422 2.73287, 22.2573 2.73287 C 22.3338 2.73328, 22.3943 2.76395, 22.4393 2.82447 L 27.2443 9.71421, 27.2443 4.06109 C 27.2443 3.94372, 27.2165 3.83249, 27.16 3.72781, 27.104 3.62312, 27.0243 3.53602, 26.9208 3.46568, 26.7728 3.37449, 26.6088 3.31887, 26.4289 3.29924, 26.2493 3.27961, 26.0473 3.2698, 25.8224 3.26939 L 25.8224 2.73287 C 26.4109 2.75086, 26.9723 2.75945, 27.5072 2.75904, 28.0511 2.75945, 28.6101 2.75086, 29.1851 2.73287 L 29.1851 3.26939 Z" stroke="none" fill="#000000" />
			<path d="M 37.4509 14.8046 C 37.4509 14.8962, 37.4173 14.9748, 37.3498 15.0402, 37.2824 15.1056, 37.2014 15.1383, 37.1069 15.1383 L 29.2558 15.1383 C 29.1658 15.1383, 29.0861 15.1056, 29.0166 15.0402, 28.947 14.9748, 28.9119 14.8962, 28.9119 14.8046, 28.9119 14.7175, 28.947 14.6403, 29.0166 14.5724, 29.0861 14.5049, 29.1658 14.471, 29.2558 14.471 L 37.1069 14.471 C 37.1969 14.471, 37.2771 14.5049, 37.3466 14.5724, 37.4161 14.6403, 37.4509 14.7175, 37.4509 14.8046 Z" stroke="none" fill="#000000" />
			<path d="M 46.7226 12.0173 C 45.9996 11.9912, 45.2962 11.9781, 44.6133 11.9781, 43.9394 11.9781, 43.2409 11.9912, 42.5175 12.0173 L 42.5175 11.4743 C 42.7645 11.4747, 43.0037 11.4714, 43.2352 11.4649, 43.4667 11.4583, 43.6384 11.4354, 43.7505 11.3958, 43.8134 11.3745, 43.8609 11.332, 43.8924 11.2686, 43.9238 11.2056, 43.9394 11.1344, 43.9394 11.0555 L 43.9394 7.46343, 39.9633 7.46343, 39.9633 11.0555 C 39.9633 11.1344, 39.978 11.2056, 40.0071 11.2686, 40.0365 11.332, 40.0848 11.3745, 40.1518 11.3958, 40.2688 11.4354, 40.4422 11.4583, 40.6712 11.4649, 40.9002 11.4714, 41.1382 11.4747, 41.3852 11.4743 L 41.3852 12.0173 C 40.6573 11.9912, 39.9543 11.9781, 39.2759 11.9781, 38.602 11.9781, 37.9035 11.9912, 37.1797 12.0173 L 37.1797 11.4743 C 37.4271 11.4747, 37.6655 11.4714, 37.8945 11.4649, 38.1235 11.4583, 38.2965 11.4354, 38.413 11.3958, 38.476 11.3745, 38.5234 11.332, 38.5549 11.2686, 38.5864 11.2056, 38.602 11.1344, 38.602 11.0555 L 38.602 3.6816 C 38.602 3.60349, 38.5864 3.53274, 38.5549 3.46936, 38.5234 3.40638, 38.476 3.36345, 38.413 3.34136, 38.2965 3.30251, 38.1235 3.28084, 37.8945 3.27634, 37.6655 3.27225, 37.4271 3.2698, 37.1797 3.26939 L 37.1797 2.73287 C 37.9076 2.75086, 38.6065 2.75945, 39.2759 2.75904, 39.9588 2.75945, 40.6622 2.75086, 41.3852 2.73287 L 41.3852 3.26939 C 41.1382 3.2698, 40.8989 3.27225, 40.6675 3.27634, 40.436 3.28084, 40.2643 3.30251, 40.1518 3.34136, 40.0888 3.36345, 40.0418 3.40638, 40.0103 3.46936, 39.9793 3.53274, 39.9633 3.60349, 39.9633 3.6816 L 39.9633 6.91382, 43.9394 6.91382, 43.9394 3.6816 C 43.9394 3.60349, 43.9251 3.53274, 43.8956 3.46936, 43.8666 3.40638, 43.8183 3.36345, 43.7505 3.34136, 43.6339 3.30251, 43.4609 3.28084, 43.2319 3.27634, 43.0029 3.27225, 42.7645 3.2698, 42.5175 3.26939 L 42.5175 2.73287 C 43.2454 2.75086, 43.9439 2.75945, 44.6133 2.75904, 45.2962 2.75945, 45.9996 2.75086, 46.7226 2.73287 L 46.7226 3.26939 C 46.4756 3.2698, 46.2376 3.27225, 46.0086 3.27634, 45.7796 3.28084, 45.6062 3.30251, 45.4892 3.34136, 45.4267 3.36345, 45.3797 3.40638, 45.3482 3.46936, 45.3167 3.53274, 45.3007 3.60349, 45.3007 3.6816 L 45.3007 11.0555 C 45.3007 11.1344, 45.3167 11.2056, 45.3482 11.2686, 45.3797 11.332, 45.4267 11.3745, 45.4892 11.3958, 45.6062 11.4354, 45.7796 11.4583, 46.0086 11.4649, 46.2376 11.4714, 46.4756 11.4747, 46.7226 11.4743 L 46.7226 12.0173 Z" stroke="none" fill="#000000" />
			<path d="M 49.6137 3.6816 C 49.6137 3.89588, 49.5352 4.07908, 49.3782 4.23162, 49.2211 4.38456, 49.0322 4.46062, 48.8118 4.46021, 48.5918 4.46062, 48.4045 4.38456, 48.2495 4.23162, 48.0945 4.07908, 48.0168 3.89588, 48.0168 3.6816, 48.0168 3.46813, 48.0945 3.28616, 48.2495 3.13567, 48.4045 2.98518, 48.5918 2.90994, 48.8118 2.90953, 49.0322 2.90994, 49.2211 2.98518, 49.3782 3.13567, 49.5352 3.28616, 49.6137 3.46813, 49.6137 3.6816 Z M 50.5236 12.0239 C 49.9846 11.9936, 49.4657 11.9781, 48.9668 11.9781, 48.4773 11.9781, 47.9628 11.9936, 47.4239 12.0239 L 47.4239 11.4743 C 47.6259 11.4747, 47.8111 11.4714, 47.9796 11.4649, 48.1481 11.4583, 48.2753 11.4354, 48.3603 11.3958, 48.4143 11.37, 48.4503 11.3254, 48.4683 11.262, 48.4863 11.1991, 48.4953 11.1299, 48.4953 11.0555 L 48.4953 7.33912 C 48.4953 7.21725, 48.49 7.10643, 48.4785 7.00583, 48.4671 6.90565, 48.4278 6.82468, 48.3603 6.76334, 48.2843 6.7114, 48.1685 6.68114, 48.0136 6.67214, 47.8586 6.66356, 47.6799 6.65906, 47.4774 6.65865 L 47.4774 6.11558, 49.5532 5.95855, 49.5532 11.0555 C 49.5532 11.1299, 49.5602 11.1991, 49.5736 11.262, 49.5871 11.3254, 49.6207 11.37, 49.6747 11.3958, 49.7466 11.4354, 49.8599 11.4583, 50.0149 11.4649, 50.1703 11.4714, 50.3396 11.4747, 50.5236 11.4743 L 50.5236 12.0239 Z" stroke="none" fill="#000000" />
			<path d="M 57.5196 6.55396 C 57.5196 6.7069, 57.4705 6.82059, 57.3716 6.8946, 57.2726 6.96903, 57.1671 7.00583, 57.0547 7.00543, 56.9377 7.00583, 56.8302 6.96903, 56.7312 6.8946, 56.6322 6.82059, 56.5827 6.7069, 56.5827 6.55396, 56.5827 6.44109, 56.6077 6.35276, 56.6572 6.28938, 56.7067 6.2264, 56.7022 6.21414, 56.6437 6.25298 L 56.8322 6.25298 C 56.3067 6.25339, 55.8912 6.40184, 55.5854 6.69791, 55.7338 6.85085, 55.861 7.041, 55.9665 7.26755, 56.072 7.49451, 56.1247 7.73865, 56.1247 7.99996, 56.1247 8.27517, 56.063 8.53812, 55.9395 8.78879, 55.816 9.03988, 55.6508 9.25662, 55.4439 9.43941, 55.2239 9.63611, 54.9748 9.78251, 54.6959 9.8782, 54.4174 9.9743, 54.1275 10.0221, 53.8265 10.0217, 53.584 10.0221, 53.3403 9.98738, 53.0953 9.91746, 52.8508 9.84794, 52.6431 9.75184, 52.4721 9.62916, 52.3781 9.74734, 52.3261 9.88924, 52.3171 10.0544, 52.3081 10.0896, 52.3036 10.1248, 52.3036 10.1591, 52.3036 10.2949, 52.3286 10.4147, 52.3777 10.519, 52.4361 10.6634, 52.5269 10.7803, 52.6504 10.8695, 52.7739 10.959, 52.9211 11.0036, 53.0921 11.0032 L 54.2105 11.0032 C 54.6015 11.0036, 54.9969 11.0277, 55.3968 11.0756, 55.7968 11.1238, 56.1767 11.2608, 56.5357 11.4874, 56.8056 11.6534, 57.0056 11.875, 57.1356 12.1515, 57.2661 12.4287, 57.3311 12.7199, 57.3311 13.025, 57.3311 13.3304, 57.2325 13.5901, 57.0346 13.8036, 56.8367 14.0174, 56.6142 14.1876, 56.3672 14.3139, 56.0393 14.493, 55.6913 14.6194, 55.3228 14.6934, 54.9544 14.7678, 54.5835 14.8046, 54.2105 14.8046, 53.838 14.8046, 53.4662 14.7678, 53.0953 14.6934, 52.7248 14.6194, 52.3777 14.493, 52.0542 14.3139, 51.8117 14.1831, 51.5905 14.0109, 51.3905 13.797, 51.1905 13.5836, 51.0903 13.3259, 51.0903 13.025, 51.0903 12.7984, 51.148 12.5931, 51.2625 12.4099, 51.377 12.2267, 51.5218 12.0697, 51.6968 11.9388, 51.9082 11.7908, 52.0971 11.6926, 52.2632 11.6444, 52.1642 11.5839, 52.062 11.4596, 51.9565 11.2718, 51.851 11.0846, 51.7892 10.8793, 51.7712 10.6564, 51.7622 10.6045, 51.7577 10.5501, 51.7577 10.4928, 51.7577 10.3276, 51.7802 10.1595, 51.8252 9.98902, 51.8927 9.75838, 51.9982 9.55759, 52.1417 9.38707, 51.9667 9.23044, 51.8215 9.02679, 51.707 8.77571, 51.5925 8.52503, 51.5353 8.26658, 51.5353 7.99996, 51.5353 7.72556, 51.595 7.46302, 51.714 7.21194, 51.833 6.96126, 51.9957 6.74412, 52.2022 6.5605, 52.4316 6.36462, 52.6856 6.21659, 52.9641 6.11599, 53.2426 6.0158, 53.53 5.9655, 53.8265 5.96509, 54.3839 5.9655, 54.8693 6.11804, 55.2823 6.4231, 55.4533 6.24481, 55.6733 6.09882, 55.9428 5.98513, 56.2127 5.87186, 56.4956 5.81501, 56.7917 5.81461, 56.9941 5.81501, 57.1659 5.88944, 57.3074 6.03748, 57.4489 6.18592, 57.5196 6.35808, 57.5196 6.55396 Z M 54.9589 7.99996 C 54.9589 7.77341, 54.9433 7.56199, 54.9118 7.3657, 54.8803 7.16941, 54.8084 6.99725, 54.6959 6.84839, 54.588 6.71345, 54.46 6.60794, 54.3119 6.53147, 54.1639 6.45541, 54.002 6.41697, 53.8265 6.41656, 53.6515 6.41697, 53.4883 6.45541, 53.3378 6.53147, 53.1874 6.60794, 53.063 6.71345, 52.9641 6.84839, 52.843 7.00134, 52.7686 7.17513, 52.7416 7.36897, 52.7146 7.56321, 52.7011 7.77341, 52.7011 7.99996, 52.7011 8.21833, 52.7183 8.42484, 52.7518 8.61868, 52.7854 8.81292, 52.8561 8.98631, 52.9641 9.13843, 53.18 9.42673, 53.4675 9.57068, 53.8265 9.57027, 54.1905 9.57068, 54.4804 9.42673, 54.6959 9.13843, 54.8084 8.98631, 54.8803 8.81292, 54.9118 8.61868, 54.9433 8.42484, 54.9589 8.21833, 54.9589 7.99996 Z M 56.4752 13.025 C 56.4752 12.8593, 56.4302 12.7023, 56.3402 12.5539, 56.2503 12.4058, 56.1313 12.2921, 55.9832 12.2136, 55.7273 12.0742, 55.4484 11.9912, 55.1474 11.965, 54.8464 11.9392, 54.5344 11.9261, 54.2105 11.9257 L 53.0921 11.9257 C 52.7686 11.9261, 52.4991 12.0304, 52.2832 12.2398, 52.0587 12.4582, 51.9462 12.7199, 51.9462 13.025, 51.9462 13.2082, 52.0072 13.3783, 52.1282 13.5353, 52.2497 13.6923, 52.3981 13.8257, 52.5731 13.9344, 52.807 14.0829, 53.0651 14.1896, 53.3481 14.255, 53.6311 14.3205, 53.9185 14.3532, 54.2105 14.3532, 54.5029 14.3532, 54.7871 14.3205, 55.0635 14.255, 55.34 14.1896, 55.6013 14.0829, 55.8483 13.9344, 56.0237 13.8212, 56.1722 13.687, 56.2932 13.532, 56.4147 13.3775, 56.4752 13.2082, 56.4752 13.025 Z" stroke="none" fill="#000000" />
			<path d="M 65.0125 12.0239 C 64.4421 11.9936, 63.8982 11.9781, 63.3813 11.9781, 62.8558 11.9781, 62.3189 11.9936, 61.7709 12.0239 L 61.7709 11.4743 C 61.9729 11.4747, 62.1581 11.4714, 62.3266 11.4649, 62.4951 11.4583, 62.6223 11.4354, 62.7073 11.3958, 62.7572 11.37, 62.79 11.3254, 62.8055 11.262, 62.821 11.1991, 62.8288 11.1299, 62.8288 11.0555 L 62.8288 7.86255 C 62.8288 7.645, 62.8178 7.43767, 62.7953 7.24138, 62.7728 7.04509, 62.7098 6.86639, 62.6063 6.70445, 62.5434 6.60017, 62.4501 6.52411, 62.3266 6.47585, 62.2031 6.42801, 62.0719 6.40388, 61.9324 6.40347, 61.6764 6.40388, 61.4372 6.45745, 61.2147 6.56418, 60.9923 6.67133, 60.8025 6.81527, 60.6455 6.99602, 60.4885 7.17718, 60.3625 7.38982, 60.268 7.63396, 60.174 7.8785, 60.1266 8.13327, 60.1266 8.39908 L 60.1266 11.0555 C 60.1266 11.1299, 60.1356 11.1991, 60.1535 11.262, 60.1715 11.3254, 60.2071 11.37, 60.2611 11.3958, 60.3466 11.4354, 60.4746 11.4583, 60.6455 11.4649, 60.8164 11.4714, 61.0005 11.4747, 61.198 11.4743 L 61.198 12.0173 C 60.969 12.0088, 60.7575 12.0022, 60.5645 11.9977, 60.3715 11.9936, 60.1826 11.9871, 59.9981 11.9781 L 59.5737 11.9781 C 59.0482 11.9781, 58.5113 11.9936, 57.9633 12.0239 L 57.9633 11.4743 C 58.1653 11.4747, 58.3505 11.4714, 58.519 11.4649, 58.6875 11.4583, 58.8147 11.4354, 58.8997 11.3958, 58.9537 11.37, 58.9897 11.3254, 59.0077 11.262, 59.0257 11.1991, 59.0347 11.1299, 59.0347 11.0555 L 59.0347 3.94986 C 59.0347 3.83699, 59.0294 3.72699, 59.0179 3.61985, 59.0065 3.51312, 58.9627 3.43133, 58.8863 3.37408, 58.8102 3.32214, 58.6867 3.29188, 58.5158 3.28289, 58.3452 3.2743, 58.1612 3.2698, 57.9633 3.26939 L 57.9633 2.73941, 59.1222 2.65435, 60.0791 2.58238, 60.0791 7.0316 C 60.1736 6.82713, 60.3973 6.59813, 60.7498 6.34499, 61.1027 6.09227, 61.5059 5.9655, 61.9594 5.96509, 62.2113 5.9655, 62.4706 5.99495, 62.738 6.05383, 63.0055 6.11272, 63.2402 6.24031, 63.4422 6.4366, 63.6442 6.63289, 63.7767 6.85862, 63.8397 7.11379, 63.9027 7.36897, 63.9342 7.61883, 63.9342 7.86255 L 63.9342 11.0555 C 63.9342 11.1299, 63.9432 11.1991, 63.9611 11.262, 63.9791 11.3254, 64.0151 11.37, 64.0687 11.3958, 64.1542 11.4354, 64.2822 11.4583, 64.4531 11.4649, 64.624 11.4714, 64.8105 11.4747, 65.0125 11.4743 L 65.0125 12.0239 Z" stroke="none" fill="#000000" />
			<rect />
		</svg>
	</g>
	<g transform="matrix(1 0 -0 1 222.674 113.756)">
		<svg width="366.031067" height="47.9999886">
			<defs />
			<path d="M 11.9519 12.2076 C 11.9519 12.898, 11.8168 13.5501, 11.5466 14.1638, 11.2763 14.7776, 10.9128 15.3088, 10.4565 15.7577, 10.0008 16.2065, 9.46148 16.5655, 8.83859 16.8334, 8.2157 17.1025, 7.5493 17.2365, 6.83824 17.2365, 5.92623 17.2365, 5.05029 17.0613, 4.21042 16.7103, 3.37112 16.3594, 2.63373 15.863, 1.99824 15.2212, 1.34444 14.544, 0.847499 13.7854, 0.507428 12.9455, 0.16793 12.1062, -0.00210571 11.2309, -0.00210571 10.3206, -0.00210571 9.41142, 0.16793 8.5349, 0.507428 7.69217, 0.847499 6.84943, 1.34444 6.09544, 1.99824 5.42904, 2.63373 4.7884, 3.37112 4.28917, 4.21042 3.93192, 5.05029 3.57468, 5.92623 3.39606, 6.83824 3.39548, 7.57449 3.39606, 8.24432 3.54605, 8.84775 3.8449, 9.45175 4.14433, 9.95155 4.51989, 10.3477 4.97103 L 11.3668 3.53289 C 11.4046 3.44186, 11.4864 3.39606, 11.6124 3.39548 L 11.6691 3.39548 C 11.858 3.39606, 11.9519 3.49052, 11.9519 3.67945 L 11.9519 8.68089 C 11.9519 8.86467, 11.858 8.95913, 11.6691 8.96486 L 11.4521 8.96486 C 11.301 8.96543, 11.2065 8.88013, 11.1687 8.70837, 11.1435 8.09235, 11.0193 7.50782, 10.796 6.95478, 10.5727 6.4023, 10.2756 5.9214, 9.9046 5.51205, 9.53362 5.10328, 9.10481 4.77638, 8.61703 4.53192, 8.12925 4.28803, 7.59968 4.16551, 7.02717 4.16494, 6.30352 4.16551, 5.63082 4.31837, 5.00793 4.62352, 4.38504 4.92924, 3.85375 5.35633, 3.41349 5.90537, 2.92914 6.51681, 2.59938 7.2021, 2.42305 7.96239, 2.24671 8.72269, 2.15855 9.50874, 2.15855 10.3206, 2.15855 11.1272, 2.24671 11.9104, 2.42305 12.6707, 2.59938 13.431, 2.92914 14.1163, 3.41349 14.7266, 3.86004 15.2768, 4.3982 15.709, 5.02682 16.0233, 5.65601 16.3382, 6.32871 16.4951, 7.04549 16.4945, 7.63746 16.4951, 8.1928 16.3823, 8.71149 16.1562, 9.23019 15.9306, 9.67846 15.6203, 10.0557 15.2264, 10.433 14.8325, 10.7319 14.3791, 10.9517 13.8661, 11.1721 13.3531, 11.2821 12.8007, 11.2821 12.2076, 11.2821 12.0249, 11.3737 11.9333, 11.5557 11.9327 L 11.6691 11.9327 C 11.858 11.9333, 11.9519 12.0249, 11.9519 12.2076 Z" stroke="none" fill="#000000" />
			<path d="M 26.5178 16.8334 C 25.7003 16.7911, 24.9114 16.7693, 24.1499 16.7693 L 23.7818 16.7693 C 22.895 16.7819, 21.9732 16.8002, 21.0172 16.8243 L 21.0172 16.064 C 21.3005 16.0646, 21.5553 16.0542, 21.7815 16.0325, 22.0082 16.0113, 22.2091 15.9667, 22.3855 15.8991, 22.4673 15.8567, 22.5395 15.7926, 22.6024 15.7067, 22.6276 15.677, 22.6402 15.6369, 22.6402 15.5877, 22.6402 15.5636, 22.6374 15.5361, 22.6305 15.5052 L 21.5645 12.5465, 16.9317 12.5465, 16.0546 15.0014 C 16.0231 15.0753, 16.0071 15.1457, 16.0071 15.2121, 16.0071 15.2739, 16.0169 15.3346, 16.0357 15.3953, 16.0861 15.5304, 16.168 15.6403, 16.2808 15.7251, 16.4445 15.8602, 16.6191 15.9501, 16.8046 15.9959, 16.9901 16.0417, 17.2151 16.0646, 17.479 16.064 L 17.479 16.8243 C 16.7182 16.8002, 15.9917 16.7819, 15.2995 16.7693 L 15.0075 16.7693 C 14.4035 16.7693, 13.7743 16.7911, 13.1205 16.8334 L 13.1205 16.064 C 13.4228 16.0646, 13.685 16.0451, 13.9083 16.005, 14.1316 15.9655, 14.3468 15.8876, 14.5541 15.7709, 14.8942 15.5819, 15.1329 15.3043, 15.2714 14.9373 L 19.3471 3.4596 C 19.4101 3.27697, 19.5424 3.18824, 19.7433 3.19396 L 19.8945 3.19396 C 20.096 3.19453, 20.2277 3.28327, 20.2906 3.4596 L 24.5742 15.4502 C 24.6062 15.567, 24.6549 15.6707, 24.7207 15.7623, 24.7871 15.8539, 24.8764 15.9151, 24.9892 15.9449, 25.153 16.0067, 25.3688 16.0417, 25.6362 16.0508, 25.9035 16.06, 26.1972 16.0646, 26.5178 16.064 L 26.5178 16.8334 Z M 19.2624 6.04277 L 17.2054 11.7862, 21.2908 11.7862 Z" stroke="none" fill="#000000" />
			<path d="M 40.8591 4.57714 C 40.5448 4.57772, 40.262 4.59317, 40.0101 4.62352, 39.7588 4.65443, 39.532 4.73344, 39.3305 4.86111, 39.18 4.94699, 39.0655 5.06492, 38.9864 5.21435, 38.908 5.36434, 38.8685 5.52121, 38.8685 5.68552 L 38.8685 16.522 C 38.8685 16.7241, 38.7677 16.8243, 38.5662 16.8243 L 38.4534 16.8243 C 38.347 16.8243, 38.2616 16.7819, 38.1987 16.696 L 30.179 5.20919 C 30.1286 5.13649, 30.1412 5.13649, 30.2167 5.20919 L 30.2167 14.9648 C 30.2167 15.3071, 30.3707 15.5791, 30.6788 15.78, 30.8866 15.9088, 31.1144 15.9884, 31.3629 16.0188, 31.6114 16.0497, 31.893 16.0646, 32.2074 16.064 L 32.2074 16.8334 C 31.3961 16.7911, 30.6101 16.7693, 29.8486 16.7693, 29.1003 16.7693, 28.3172 16.7911, 27.499 16.8334 L 27.499 16.064 C 27.8139 16.0646, 28.095 16.0479, 28.3435 16.0142, 28.592 15.981, 28.8204 15.9025, 29.0276 15.78, 29.3299 15.5854, 29.4839 15.3134, 29.4902 14.9648 L 29.4902 4.70539 C 29.4965 4.70596, 29.4868 4.6968, 29.4616 4.67791, 29.2607 4.62352, 28.9795 4.59317, 28.6177 4.58688, 28.2559 4.58115, 27.8832 4.57772, 27.499 4.57714 L 27.499 3.82601, 31.1602 3.82601 C 31.2673 3.82658, 31.352 3.86952, 31.415 3.95425 L 38.142 13.5999, 38.142 5.68552 C 38.142 5.52121, 38.1031 5.36549, 38.0241 5.21893, 37.9456 5.07236, 37.834 4.95042, 37.6891 4.85195, 37.4819 4.72428, 37.2523 4.64642, 37.0004 4.61894, 36.7491 4.59146, 36.4663 4.57772, 36.1514 4.57714 L 36.1514 3.82601 C 36.9752 3.8512, 37.7613 3.86322, 38.5101 3.86265, 39.2716 3.86322, 40.0542 3.8512, 40.8591 3.82601 L 40.8591 4.57714 Z" stroke="none" fill="#000000" />
			<path d="M 60.0813 13.2976 C 60.0813 13.7865, 59.9633 14.2463, 59.7275 14.6768, 59.4916 15.1073, 59.179 15.4783, 58.7885 15.7892, 58.3546 16.1441, 57.8737 16.4052, 57.3452 16.5729, 56.8174 16.7407, 56.2764 16.8243, 55.7222 16.8243 L 48.0139 16.8243, 48.0139 16.064 C 48.3603 16.0646, 48.694 16.06, 49.0147 16.0508, 49.3353 16.0417, 49.5774 16.0096, 49.7406 15.9541, 49.8288 15.9243, 49.8952 15.8647, 49.9393 15.776, 49.9833 15.6878, 50.0051 15.5882, 50.0051 15.4777 L 50.0051 5.15423 C 50.0051 5.04488, 49.9833 4.94584, 49.9393 4.8571, 49.8952 4.76893, 49.8288 4.70882, 49.7406 4.67791, 49.5774 4.62352, 49.3353 4.59317, 49.0147 4.58688, 48.694 4.58115, 48.3603 4.57772, 48.0139 4.57714 L 48.0139 3.82601, 55.1754 3.82601 C 55.7227 3.82658, 56.2632 3.89987, 56.7979 4.04643, 57.3326 4.19299, 57.817 4.43402, 58.2509 4.76951, 58.6345 5.0632, 58.946 5.40671, 59.1853 5.8006, 59.4246 6.19448, 59.5437 6.62329, 59.5437 7.08703, 59.5437 7.54561, 59.4229 7.96583, 59.1807 8.34712, 58.9385 8.72898, 58.6288 9.05417, 58.2509 9.3221, 57.6601 9.7137, 57.2199 9.93927, 56.9302 9.99996, 56.9491 10.0005, 57.1723 10.0801, 57.6 10.2387, 58.0282 10.3979, 58.4244 10.6171, 58.7885 10.8977, 59.1727 11.1913, 59.4841 11.544, 59.7229 11.9562, 59.9622 12.3684, 60.0813 12.8156, 60.0813 13.2976 Z M 57.4775 7.08703 C 57.4775 6.41605, 57.2479 5.82636, 56.7888 5.31912, 56.5746 5.08782, 56.3296 4.90634, 56.0525 4.77466, 55.776 4.64355, 55.4834 4.57772, 55.1754 4.57714 L 52.7033 4.57714 C 52.5591 4.57772, 52.4096 4.58115, 52.2551 4.58688, 52.1011 4.59317, 51.9928 4.62065, 51.9299 4.66875, 51.8606 4.71798, 51.8211 4.7884, 51.8119 4.88, 51.8028 4.9716, 51.7976 5.0632, 51.7976 5.15423 L 51.7976 9.77095, 54.6373 9.77095 C 55.0088 9.77153, 55.3689 9.69996, 55.7182 9.55626, 56.0674 9.41313, 56.3737 9.21905, 56.6376 8.97402, 57.1975 8.45533, 57.4775 7.82671, 57.4775 7.08703 Z M 57.9584 13.2976 C 57.9584 12.9135, 57.896 12.5442, 57.77 12.1898, 57.6441 11.836, 57.4586 11.512, 57.213 11.2183, 56.9931 10.956, 56.7309 10.7488, 56.4258 10.5959, 56.1206 10.4437, 55.7949 10.3669, 55.4491 10.3664 L 51.7976 10.3664, 51.7976 15.4777 C 51.7976 15.5819, 51.8028 15.677, 51.8119 15.7623, 51.8211 15.8481, 51.8606 15.9151, 51.9299 15.9632, 51.9928 16.0125, 52.1028 16.0417, 52.2596 16.0508, 52.4171 16.06, 52.5648 16.0646, 52.7033 16.064 L 55.1754 16.064 C 55.5338 16.0646, 55.8848 15.9947, 56.2271 15.8539, 56.5701 15.7136, 56.8735 15.5149, 57.1374 15.2579, 57.3956 14.99, 57.5971 14.6877, 57.7414 14.3516, 57.8863 14.0161, 57.9584 13.6646, 57.9584 13.2976 Z" stroke="none" fill="#000000" />
			<path d="M 68.0133 17.0441 L 68.0133 15.6976 C 67.9068 15.9243, 67.6475 16.2037, 67.2353 16.5363, 66.8231 16.8689, 66.3278 17.035, 65.749 17.035, 65.3592 17.035, 64.9584 16.9983, 64.5462 16.925, 64.1346 16.8518, 63.7619 16.6811, 63.4281 16.4121, 63.1138 16.1625, 62.9031 15.8602, 62.796 15.5058, 62.6895 15.152, 62.6357 14.8033, 62.6357 14.461 L 62.6357 10.2748 C 62.6357 10.1042, 62.6283 9.949, 62.6123 9.80817, 62.5962 9.6679, 62.535 9.55454, 62.4279 9.46867, 62.3214 9.39596, 62.1485 9.35359, 61.9092 9.341, 61.6705 9.32897, 61.4128 9.32268, 61.1358 9.3221 L 61.1358 8.56181, 64.1643 8.34197, 64.1643 14.461 C 64.1643 14.785, 64.1769 15.0861, 64.2021 15.3638, 64.2273 15.642, 64.3023 15.8539, 64.4283 15.9999, 64.5731 16.1716, 64.7666 16.2861, 65.0088 16.3439, 65.251 16.4023, 65.5103 16.431, 65.7868 16.4304, 66.1017 16.431, 66.3908 16.3565, 66.6547 16.2065, 66.9193 16.0571, 67.1488 15.8584, 67.3435 15.6111, 67.5387 15.3638, 67.6881 15.077, 67.7917 14.7501, 67.896 14.4237, 67.9475 14.0768, 67.9475 13.7098 L 67.9475 10.2748 C 67.9475 10.1042, 67.94 9.949, 67.924 9.80817, 67.9085 9.6679, 67.8536 9.55454, 67.7585 9.46867, 67.6521 9.39596, 67.4803 9.35359, 67.2444 9.341, 67.0086 9.32897, 66.7492 9.32268, 66.4664 9.3221 L 66.4664 8.56181, 69.495 8.34197, 69.495 15.1205 C 69.495 15.2796, 69.503 15.4325, 69.5184 15.5791, 69.5345 15.7256, 69.5975 15.8355, 69.7074 15.9088, 69.8173 15.9821, 69.9902 16.0268, 70.2261 16.0417, 70.4619 16.0571, 70.7219 16.0646, 71.0047 16.064 L 71.0047 16.8151 Z" stroke="none" fill="#000000" />
			<path d="M 78.2039 14.3144 C 78.2039 14.6877, 78.1381 15.0524, 78.0058 15.4096, 77.8742 15.7668, 77.6509 16.0766, 77.336 16.3388, 76.9965 16.6079, 76.6209 16.7911, 76.2087 16.8884, 75.7965 16.9863, 75.3797 17.035, 74.9584 17.035, 74.4935 17.035, 74.0876 16.9588, 73.7418 16.806, 73.396 16.6537, 73.1126 16.4676, 72.8922 16.2472 L 72.2882 16.9434 C 72.2378 16.9983, 72.1628 17.0292, 72.062 17.035 L 72.0054 17.035 C 71.8164 17.035, 71.722 16.9405, 71.722 16.751 L 71.722 13.7281 C 71.722 13.5942, 71.7947 13.5089, 71.9395 13.4717, 71.9836 13.4602, 72.0243 13.4539, 72.062 13.4533, 72.1124 13.4539, 72.1599 13.4631, 72.2034 13.4808, 72.2979 13.518, 72.3609 13.5821, 72.3924 13.6732, 72.5561 14.5102, 72.8355 15.1795, 73.2317 15.6798, 73.6279 16.1808, 74.2038 16.431, 74.9584 16.4304, 75.2607 16.431, 75.5532 16.4023, 75.836 16.3439, 76.1188 16.2861, 76.3644 16.1716, 76.5717 15.9999, 76.7417 15.8602, 76.8677 15.6878, 76.9496 15.4829, 77.0314 15.2785, 77.0721 15.0569, 77.0721 14.8182, 77.0721 14.4277, 76.9181 14.094, 76.6101 13.8157, 76.302 13.5381, 75.9213 13.3531, 75.4679 13.261 L 74.166 12.9953 C 73.8517 12.9346, 73.5483 12.839, 73.2557 12.7074, 72.9632 12.5763, 72.705 12.4142, 72.4817 12.2219, 72.2584 12.0295, 72.0763 11.8022, 71.9344 11.5394, 71.793 11.2772, 71.722 10.987, 71.722 10.6686, 71.722 10.3211, 71.7964 9.98679, 71.9441 9.66618, 72.0918 9.34558, 72.3139 9.08165, 72.6094 8.87326, 72.9552 8.61734, 73.3359 8.45132, 73.7509 8.3746, 74.166 8.29846, 74.5685 8.2601, 74.9584 8.25953, 75.6757 8.2601, 76.2545 8.42498, 76.6942 8.75418 L 77.1849 8.31449 C 77.2604 8.27842, 77.3234 8.2601, 77.3738 8.25953 L 77.4396 8.25953 C 77.6285 8.2601, 77.723 8.3454, 77.723 8.51601 L 77.723 10.9526 C 77.723 11.1364, 77.6285 11.2309, 77.4396 11.2366 L 77.336 11.2366 C 77.1476 11.2372, 77.0532 11.1427, 77.0532 10.9526, 77.0532 10.2874, 76.8723 9.76122, 76.5104 9.37306, 76.1486 8.98547, 75.6316 8.79139, 74.9584 8.79082, 74.6693 8.79139, 74.3847 8.81601, 74.1048 8.86467, 73.8248 8.91391, 73.5746 9.01409, 73.3548 9.16638, 73.0216 9.3868, 72.8544 9.7137, 72.8544 10.1465, 72.8544 10.4648, 72.9992 10.7368, 73.2884 10.9623, 73.578 11.1885, 73.9427 11.3442, 74.383 11.4289 L 75.6757 11.6671 C 76.0152 11.7289, 76.3393 11.8389, 76.6473 11.9974, 76.9558 12.1566, 77.2249 12.3472, 77.4545 12.57, 77.6841 12.7932, 77.8661 13.0554, 78.0013 13.3577, 78.1364 13.66, 78.2039 13.9789, 78.2039 14.3144 Z" stroke="none" fill="#000000" />
			<path d="M 95.5202 16.8243 L 85.2734 16.8243, 85.2734 16.064 C 85.6198 16.0646, 85.9535 16.06, 86.2741 16.0508, 86.5947 16.0417, 86.8369 16.0096, 87.0001 15.9541, 87.0883 15.9243, 87.1547 15.8647, 87.1987 15.776, 87.2428 15.6878, 87.2646 15.5882, 87.2646 15.4777 L 87.2646 5.15423 C 87.2646 5.04488, 87.2428 4.94584, 87.1987 4.8571, 87.1547 4.76893, 87.0883 4.70882, 87.0001 4.67791, 86.8369 4.62352, 86.5947 4.59317, 86.2741 4.58688, 85.9535 4.58115, 85.6198 4.57772, 85.2734 4.57714 L 85.2734 3.82601 C 86.2238 3.86322, 87.1421 3.88154, 88.0289 3.88097, 88.1737 3.88154, 88.3214 3.87525, 88.472 3.86265, 89.4911 3.86322, 90.5479 3.8512, 91.642 3.82601 L 91.642 4.57714, 90.9911 4.57714 C 90.7964 4.57772, 90.6058 4.58115, 90.4203 4.58688, 90.2348 4.59317, 90.0607 4.6052, 89.897 4.62352, 89.7332 4.64184, 89.6044 4.66302, 89.51 4.68707, 89.4035 4.71798, 89.3199 4.77809, 89.2604 4.86626, 89.2008 4.955, 89.1705 5.05118, 89.1705 5.15423 L 89.1705 15.4777 C 89.1705 15.5819, 89.1756 15.677, 89.1848 15.7623, 89.1939 15.8481, 89.2334 15.9151, 89.3021 15.9632, 89.3651 16.0125, 89.4722 16.0417, 89.6233 16.0508, 89.7745 16.06, 89.9187 16.0646, 90.0573 16.064 L 91.6048 16.064 C 92.1143 16.0646, 92.6044 16.0004, 93.0761 15.8722, 93.5479 15.7439, 93.9572 15.5086, 94.303 15.1663, 94.7061 14.7518, 94.9683 14.2526, 95.0908 13.6692, 95.2133 13.0864, 95.3124 12.4709, 95.3879 11.8228 L 96.0578 11.8228 Z" stroke="none" fill="#000000" />
			<path d="M 100.263 5.15423 C 100.263 5.45423, 100.153 5.71071, 99.933 5.92426, 99.7132 6.13838, 99.4487 6.24486, 99.1401 6.24429, 98.8321 6.24486, 98.5699 6.13838, 98.3529 5.92426, 98.1359 5.71071, 98.0271 5.45423, 98.0271 5.15423, 98.0271 4.85538, 98.1359 4.60062, 98.3529 4.38993, 98.5699 4.17925, 98.8321 4.07391, 99.1401 4.07333, 99.4487 4.07391, 99.7132 4.17925, 99.933 4.38993, 100.153 4.60062, 100.263 4.85538, 100.263 5.15423 Z M 101.537 16.8334 C 100.782 16.7911, 100.056 16.7693, 99.3571 16.7693, 98.6718 16.7693, 97.9515 16.7911, 97.197 16.8334 L 97.197 16.064 C 97.4798 16.0646, 97.7391 16.06, 97.975 16.0508, 98.2109 16.0417, 98.3889 16.0096, 98.508 15.9541, 98.5836 15.918, 98.634 15.8556, 98.6592 15.7668, 98.6844 15.6787, 98.697 15.5819, 98.697 15.4777 L 98.697 10.2748 C 98.697 10.1042, 98.6895 9.949, 98.6735 9.80817, 98.6574 9.6679, 98.6025 9.55454, 98.508 9.46867, 98.4015 9.39596, 98.2395 9.35359, 98.0225 9.341, 97.8056 9.32897, 97.5554 9.32268, 97.272 9.3221 L 97.272 8.56181, 100.178 8.34197, 100.178 15.4777 C 100.178 15.5819, 100.188 15.6787, 100.207 15.7668, 100.226 15.8556, 100.272 15.918, 100.348 15.9541, 100.449 16.0096, 100.607 16.0417, 100.824 16.0508, 101.042 16.06, 101.279 16.0646, 101.537 16.064 L 101.537 16.8334 Z" stroke="none" fill="#000000" />
			<path d="M 112.284 16.8334 C 111.486 16.7911, 110.724 16.7693, 110.001 16.7693, 109.265 16.7693, 108.513 16.7911, 107.746 16.8334 L 107.746 16.064 C 108.029 16.0646, 108.288 16.06, 108.524 16.0508, 108.76 16.0417, 108.938 16.0096, 109.057 15.9541, 109.127 15.918, 109.173 15.8556, 109.194 15.7668, 109.216 15.6787, 109.227 15.5819, 109.227 15.4777 L 109.227 11.0076 C 109.227 10.703, 109.212 10.4127, 109.18 10.1379, 109.149 9.86313, 109.06 9.61294, 108.916 9.38623, 108.827 9.24024, 108.697 9.13375, 108.524 9.06619, 108.351 8.99921, 108.167 8.96543, 107.972 8.96486, 107.614 8.96543, 107.279 9.04043, 106.967 9.18985, 106.656 9.33985, 106.39 9.54138, 106.17 9.79443, 105.951 10.048, 105.774 10.3458, 105.642 10.6875, 105.51 11.0299, 105.444 11.3866, 105.444 11.7587 L 105.444 15.4777 C 105.444 15.5819, 105.457 15.6787, 105.482 15.7668, 105.507 15.8556, 105.557 15.918, 105.632 15.9541, 105.752 16.0096, 105.931 16.0417, 106.17 16.0508, 106.41 16.06, 106.667 16.0646, 106.944 16.064 L 106.944 16.8243 C 106.623 16.8123, 106.327 16.8031, 106.057 16.7968, 105.787 16.7911, 105.522 16.7819, 105.264 16.7693 L 104.67 16.7693 C 103.934 16.7693, 103.183 16.7911, 102.415 16.8334 L 102.415 16.064 C 102.698 16.0646, 102.958 16.06, 103.193 16.0508, 103.429 16.0417, 103.607 16.0096, 103.726 15.9541, 103.802 15.918, 103.852 15.8556, 103.878 15.7668, 103.903 15.6787, 103.915 15.5819, 103.915 15.4777 L 103.915 10.2748 C 103.915 10.1042, 103.908 9.949, 103.892 9.80817, 103.876 9.6679, 103.815 9.55454, 103.708 9.46867, 103.601 9.39596, 103.428 9.35359, 103.189 9.341, 102.95 9.32897, 102.692 9.32268, 102.415 9.3221 L 102.415 8.56181, 104.038 8.44273, 105.34 8.34197, 105.34 9.91751 C 105.459 9.63698, 105.766 9.30607, 106.26 8.92421, 106.754 8.54292, 107.337 8.3517, 108.01 8.35113, 108.363 8.3517, 108.726 8.39292, 109.1 8.47536, 109.474 8.5578, 109.803 8.73643, 110.086 9.01123, 110.369 9.28604, 110.554 9.60206, 110.642 9.95931, 110.73 10.3166, 110.775 10.6664, 110.775 11.0076 L 110.775 15.4777 C 110.775 15.5819, 110.787 15.6787, 110.812 15.7668, 110.838 15.8556, 110.888 15.918, 110.963 15.9541, 111.083 16.0096, 111.262 16.0417, 111.501 16.0508, 111.74 16.06, 112.001 16.0646, 112.284 16.064 L 112.284 16.8334 Z" stroke="none" fill="#000000" />
			<path d="M 120.572 14.4976 C 120.523 14.8949, 120.396 15.2493, 120.191 15.5607, 119.986 15.8722, 119.733 16.1378, 119.431 16.3577, 119.129 16.5775, 118.793 16.7453, 118.422 16.8609, 118.051 16.9771, 117.667 17.035, 117.27 17.035, 116.679 17.035, 116.117 16.9222, 115.582 16.6966, 115.047 16.471, 114.575 16.1533, 114.167 15.7434, 113.739 15.3163, 113.421 14.8371, 113.213 14.3058, 113.006 13.7745, 112.902 13.2129, 112.902 12.6198, 112.902 12.0461, 113.001 11.4954, 113.199 10.9669, 113.397 10.4391, 113.695 9.96389, 114.091 9.54195, 114.468 9.13318, 114.909 8.81772, 115.412 8.59445, 115.915 8.37174, 116.444 8.2601, 116.997 8.25953, 117.488 8.2601, 117.964 8.34254, 118.426 8.50742, 118.889 8.67231, 119.296 8.94081, 119.648 9.31294, 120.001 9.72859, 120.243 10.1854, 120.374 10.683, 120.507 11.181, 120.572 11.6831, 120.572 12.1892, 120.572 12.3913, 120.469 12.4921, 120.262 12.4915 L 114.694 12.4915, 114.694 12.6198 C 114.694 13.0783, 114.736 13.5301, 114.818 13.9755, 114.893 14.477, 115.072 14.9287, 115.355 15.3312, 115.594 15.6432, 115.888 15.8951, 116.237 16.0875, 116.587 16.2798, 116.956 16.376, 117.346 16.3754, 117.642 16.376, 117.926 16.3291, 118.2 16.234, 118.474 16.1396, 118.727 16.0039, 118.96 15.8264, 119.192 15.6495, 119.389 15.4434, 119.549 15.2081, 119.71 14.9733, 119.828 14.7117, 119.903 14.4243, 119.94 14.2783, 120.041 14.205, 120.205 14.2045 L 120.309 14.2045 C 120.479 14.2417, 120.567 14.3396, 120.572 14.4976 Z M 119.091 11.9144 C 119.079 11.5423, 119.035 11.161, 118.96 10.77, 118.884 10.3795, 118.733 10.016, 118.506 9.67935, 118.33 9.42344, 118.111 9.22192, 117.846 9.07535, 117.582 8.92879, 117.299 8.85551, 116.997 8.85494, 116.645 8.85551, 116.321 8.95055, 116.025 9.13947, 115.73 9.32897, 115.481 9.5826, 115.28 9.89977, 115.079 10.2175, 114.94 10.5519, 114.865 10.9028, 114.789 11.2543, 114.742 11.5915, 114.723 11.9144 L 119.091 11.9144 Z" stroke="none" fill="#000000" />
			<rect />
		</svg>
	</g>
</svg>
