<?xml version="1.0"?>
<svg xmlns="http://www.w3.org/2000/svg" xmlns:xlink="http://www.w3.org/1999/xlink" width="714.065186" height="142.689331">
	<defs>
		<marker id="CustomMarker-01" markerUnits="strokeWidth" markerWidth="15.000001" markerHeight="9" viewBox="-15 -4.5 15 9" orient="auto-start-reverse">
			<path d="M 0 -0 L -10 -3, -8 -0.5, -8 0.5, -10 3 Z" fill="#000000" stroke="#000000" stroke-linejoin="round" />
		</marker>
		<marker id="CustomMarker-02" markerUnits="strokeWidth" markerWidth="15.000001" markerHeight="9" viewBox="-15 -4.5 15 9" orient="auto-start-reverse">
			<path d="M 0 -0 L -10 -3, -8 -0.5, -8 0.5, -10 3 Z" fill="#000000" stroke="#000000" stroke-linejoin="round" />
		</marker>
		<marker id="CustomMarker-03" markerUnits="strokeWidth" markerWidth="15.000001" markerHeight="9" viewBox="-15 -4.5 15 9" orient="auto-start-reverse">
			<path d="M 0 -0 L -10 -3, -8 -0.5, -8 0.5, -10 3 Z" fill="#000000" stroke="#000000" stroke-linejoin="round" />
		</marker>
		<marker id="CustomMarker-04" markerUnits="strokeWidth" markerWidth="15.000001" markerHeight="9" viewBox="-15 -4.5 15 9" orient="auto-start-reverse">
			<path d="M 0 -0 L -10 -3, -8 -0.5, -8 0.5, -10 3 Z" fill="#000000" stroke="#000000" stroke-linejoin="round" />
		</marker>
		<marker id="CustomMarker-05" markerUnits="strokeWidth" markerWidth="15.000001" markerHeight="9" viewBox="-15 -4.5 15 9" orient="auto-start-reverse">
			<path d="M 0 -0 L -10 -3, -8 -0.5, -8 0.5, -10 3 Z" fill="#000000" stroke="#000000" stroke-linejoin="round" />
		</marker>
		<marker id="CustomMarker-06" markerUnits="strokeWidth" markerWidth="15.000001" markerHeight="9" viewBox="-15 -4.5 15 9" orient="auto-start-reverse">
			<path d="M 0 -0 L -10 -3, -8 -0.5, -8 0.5, -10 3 Z" fill="#000000" stroke="#000000" stroke-linejoin="round" />
		</marker>
		<marker id="CustomMarker-07" markerUnits="strokeWidth" markerWidth="15.000001" markerHeight="9" viewBox="-15 -4.5 15 9" orient="auto-start-reverse">
			<path d="M 0 -0 L -10 -3, -8 -0.5, -8 0.5, -10 3 Z" fill="#000000" stroke="#000000" stroke-linejoin="round" />
		</marker>
		<marker id="CustomMarker-08" markerUnits="strokeWidth" markerWidth="15.000001" markerHeight="9" viewBox="-15 -4.5 15 9" orient="auto-start-reverse">
			<path d="M 0 -0 L -10 -3, -8 -0.5, -8 0.5, -10 3 Z" fill="#000000" stroke="#000000" stroke-linejoin="round" />
		</marker>
	</defs>
	<path d="M -88.8181 -40.5022 L 88.8181 -40.5022, 88.8181 40.5022, -88.8181 40.5022 Z" fill="none" stroke="#000000" stroke-width="1.79999995" stroke-linecap="round" stroke-linejoin="round" transform="matrix(0.555556 0 -0 0.555556 135.604 40.6573)" />
	<g transform="matrix(1 0 -0 1 111.095 31.0509)">
		<svg width="150.039169" height="51.0856972">
			<defs />
			<path d="M 0.716671 15.7744 L 0.716671 14.7694, 4.75924 14.7694 C 4.51683 14.4612, 4.12376 14.0265, 3.57906 13.4661, 3.42791 13.3149, 3.3175 13.202, 3.24733 13.1284 L 4.2906 12.6181 C 4.82451 13.1211, 5.33928 13.655, 5.83491 14.2198 L 4.88045 14.7694, 7.4435 14.7694, 7.4435 12.3747, 1.85662 12.3747, 1.85662 11.4011, 7.4435 11.4011, 7.4435 10.1291, 4.55707 10.1291, 4.55707 9.28902 C 3.58691 9.70319, 2.44401 10.1218, 1.12888 10.5453, 0.956634 10.1272, 0.773595 9.76306, 0.579269 9.45391, 2.22319 9.02011, 3.64089 8.52546, 4.83187 7.96996, 5.99636 7.42624, 7.05043 6.77162, 7.9936 6.00707 L 9.29548 6.23477, 8.89113 6.61164 C 9.90447 7.28737, 10.8962 7.81588, 11.8664 8.19766, 12.8046 8.56472, 14.0148 8.90479, 15.4967 9.21836, 15.4859 9.25026, 15.4644 9.29197, 15.432 9.34399, 15.2165 9.77386, 15.0575 10.1115, 14.955 10.3568, 13.446 9.93334, 12.3031 9.55401, 11.5268 9.21836 L 11.5268 10.1291, 8.63203 10.1291, 8.63203 11.4011, 14.2272 11.4011, 14.2272 12.3747, 8.63203 12.3747, 8.63203 14.7694, 11.1308 14.7694, 10.2494 14.1884 C 10.2656 14.1732, 10.2897 14.1521, 10.3221 14.1256, 11.0714 13.4248, 11.5729 12.9351, 11.8261 12.6573 L 12.8851 13.1677 C 12.6265 13.4508, 12.2143 13.8616, 11.648 14.4004, 11.4758 14.5682, 11.3492 14.6914, 11.2682 14.7694 L 15.4158 14.7694, 15.4158 15.7744 Z M 4.74305 9.20266 L 11.4866 9.20266 C 10.3334 8.72666, 9.21206 8.06712, 8.12266 7.22406, 7.18538 7.9469, 6.05868 8.60643, 4.74305 9.20266 Z M 12.9499 7.38895 C 12.1628 6.67249, 11.3354 5.96291, 10.4678 5.26117 L 11.252 4.53883 C 12.152 5.23026, 12.9955 5.90549, 13.7827 6.56453 Z M 5.08263 6.94926 L 5.08263 1.50027, 6.27116 1.50027, 6.27116 6.94926 Z M 1.7516 6.81578 L 1.7516 1.93211, 2.90775 1.93211, 2.90775 6.81578 Z M 8.10646 5.84219 C 7.88564 5.64394, 7.5652 5.40545, 7.14465 5.1277, 7.69426 4.54717, 8.15259 3.96616, 8.51916 3.38514, 8.88573 2.80412, 9.19587 2.1706, 9.44908 1.48457 L 10.6538 1.68086 C 10.4654 2.11564, 10.2524 2.57398, 10.0149 3.05488 L 15.2136 3.05488, 15.2136 4.04418, 9.44908 4.04418 C 9.1095 4.59968, 8.66196 5.19885, 8.10646 5.84219 Z" stroke="none" fill="#000000" />
			<path d="M 23.3806 16.4025 L 23.3806 2.50527, 31.2965 2.50527, 31.2965 16.4025, 30.0918 16.4025, 30.0918 15.3583, 24.5937 15.3583, 24.5937 16.4025 Z M 19.3945 16.379 L 19.3945 8.19766 C 18.9043 9.70025, 18.2413 11.0821, 17.4056 12.3433, 17.3624 12.2127, 17.2952 12.0062, 17.2034 11.723, 17.0852 11.3309, 16.9934 11.0483, 16.9286 10.875, 17.9689 9.40483, 18.7723 7.67209, 19.3381 5.67731 L 17.2358 5.67731, 17.2358 4.57024, 19.3945 4.57024, 19.3945 1.60234, 20.5673 1.60234, 20.5673 4.57024, 22.5886 4.57024, 22.5886 5.67731, 20.5673 5.67731, 20.5673 8.15055, 21.0036 7.68731 C 21.4619 8.10148, 22.0846 8.7085, 22.8713 9.50887, 22.9037 9.54616, 22.9282 9.57217, 22.9444 9.58738 L 22.1435 10.4275 C 21.7019 9.89408, 21.1763 9.31062, 20.5673 8.6766 L 20.5673 16.379 Z M 24.5937 14.2512 L 30.0918 14.2512, 30.0918 11.4168, 24.5937 11.4168 Z M 24.5937 10.3411 L 30.0918 10.3411, 30.0918 7.50672, 24.5937 7.50672 Z M 24.5937 6.43106 L 30.0918 6.43106, 30.0918 3.61234, 24.5937 3.61234 Z" stroke="none" fill="#000000" />
			<path d="M 34.7207 16.3633 L 34.7207 11.6602, 40.0411 11.6602, 40.0411 16.3476, 38.9331 16.3476, 38.9331 15.6566, 35.8204 15.6566, 35.8204 16.3633 Z M 46.0162 16.3633 L 46.0162 15.6566, 42.8711 15.6566, 42.8711 16.3476, 41.7552 16.3476, 41.7552 11.6602, 47.1237 11.6602, 47.1237 16.3633 Z M 35.8204 14.7145 L 38.9331 14.7145, 38.9331 12.6024, 35.8204 12.6024 Z M 42.8711 14.7145 L 46.0162 14.7145, 46.0162 12.6024, 42.8711 12.6024 Z M 33.8879 11.5189 C 33.7049 11.0326, 33.5621 10.6792, 33.4595 10.4589, 35.4323 10.2342, 36.8799 9.98291, 37.8015 9.70516, 38.7397 9.42839, 39.3782 9.04612, 39.7177 8.55883 L 33.9041 8.55883, 33.9041 7.58524, 40.1221 7.58524 C 40.1923 7.26627, 40.2433 6.89479, 40.2757 6.47031 L 41.4966 6.47031 C 41.4912 6.52331, 41.4829 6.60428, 41.4721 6.71371, 41.424 7.12248, 41.3808 7.41299, 41.343 7.58524 L 44.0675 7.58524 C 43.9492 7.33448, 43.777 7.02826, 43.5503 6.6666 L 44.6578 6.39965 C 44.701 6.50466, 44.7903 6.68525, 44.9248 6.94141, 45.0759 7.22455, 45.1863 7.439, 45.256 7.58524 L 48.0698 7.58524, 48.0698 8.55883, 42.0786 8.55883 C 42.6233 9.16634, 43.3667 9.60112, 44.3099 9.86219, 45.2266 10.1193, 46.582 10.2842, 48.377 10.3568, 48.1832 10.7185, 48.0428 11.0718, 47.9565 11.4168, 46.5177 11.302, 45.3586 11.14, 44.4797 10.93, 43.5743 10.721, 42.8387 10.4334, 42.2724 10.0663, 41.7336 9.71595, 41.2836 9.2478, 40.9225 8.6609, 40.6746 9.16929, 40.2894 9.59327, 39.7663 9.93285, 39.2324 10.2788, 38.4885 10.5772, 37.5345 10.8279, 36.6291 11.0694, 35.4136 11.2995, 33.8879 11.5189 Z M 34.6883 6.18766 L 34.6883 2.30898, 39.968 2.30898, 39.968 6.18766 Z M 41.7714 6.18766 L 41.7714 2.30898, 47.1075 2.30898, 47.1075 6.18766 Z M 35.7718 5.27688 L 38.885 5.27688, 38.885 3.23547, 35.7718 3.23547 Z M 42.8711 5.27688 L 46 5.27688, 46 3.23547, 42.8711 3.23547 Z" stroke="none" fill="#000000" />
			<rect />
		</svg>
	</g>
	<path d="M -44.409 0 L 44.4089 0" fill="none" stroke="#000000" stroke-width="1.79999995" stroke-linecap="round" stroke-linejoin="round" marker-end="url(#CustomMarker-01)" transform="matrix(0.555556 0 0 0.555556 209.619 32.3849)" />
	<path d="M -44.409 0 L 44.4089 0" fill="none" stroke="#000000" stroke-width="1.79999995" stroke-linecap="round" stroke-linejoin="round" marker-end="url(#CustomMarker-02)" transform="matrix(0.555556 0 0 0.555556 209.619 48.6132)" />
	<path d="M -88.8181 -40.5022 L 88.8181 -40.5022, 88.8181 40.5022, -88.8181 40.5022 Z" fill="none" stroke="#000000" stroke-width="1.79999995" stroke-linecap="round" stroke-linejoin="round" transform="matrix(0.555556 0 -0 0.555556 283.634 40.6573)" />
	<g transform="matrix(1 0 -0 1 242.679 31.0509)">
		<svg width="246.006958" height="51.0856972">
			<defs />
			<path d="M 9.12569 15.9236 C 8.31698 15.9236, 7.73646 15.7484, 7.38314 15.3975, 7.03031 15.0472, 6.85365 14.474, 6.85365 13.678 L 6.85365 12.0449, 2.55197 12.0449, 2.55197 13.1284, 1.31486 13.1284, 1.31486 3.49457, 6.85365 3.49457, 6.85365 1.51598, 8.12266 1.51598, 8.12266 3.49457, 13.6855 3.49457, 13.6855 12.0449, 8.12266 12.0449, 8.12266 13.4661 C 8.12266 13.943, 8.22816 14.2792, 8.43819 14.4755, 8.64871 14.6718, 9.02068 14.7699, 9.55409 14.7694 L 12.3434 14.7694 C 12.8233 14.7699, 13.182 14.686, 13.419 14.5182, 13.6457 14.3562, 13.8072 14.0868, 13.9039 13.7095, 14.0334 13.1392, 14.136 12.5347, 14.2111 11.8957, 14.6532 12.0636, 15.0654 12.1946, 15.4482 12.2883, 15.3461 12.9901, 15.2165 13.6942, 15.06 14.4004, 14.9201 14.9348, 14.6723 15.319, 14.3161 15.5546, 13.9392 15.8009, 13.3758 15.9236, 12.6265 15.9236 Z M 2.55197 10.8907 L 6.85365 10.8907, 6.85365 8.31543, 2.55197 8.31543 Z M 8.12266 10.8907 L 12.4405 10.8907, 12.4405 8.31543, 8.12266 8.31543 Z M 2.55197 7.19266 L 6.85365 7.19266, 6.85365 4.64875, 2.55197 4.64875 Z M 8.12266 7.19266 L 12.4405 7.19266, 12.4405 4.64875, 8.12266 4.64875 Z" stroke="none" fill="#000000" />
			<path d="M 18.9823 16.3476 L 18.9823 9.72086 C 18.519 10.3392, 18.0313 10.9251, 17.519 11.4796, 17.4758 11.3545, 17.3629 11.1189, 17.1794 10.773, 17.0606 10.5536, 16.9826 10.399, 16.9448 10.3097, 18.3198 8.82873, 19.4622 7.09108, 20.373 5.09629 L 21.5291 5.52813 C 21.0767 6.42369, 20.6292 7.2378, 20.187 7.96996 L 20.187 16.3476 Z M 26.1866 16.1827 C 26.0953 15.7116, 25.9982 15.3166, 25.8956 14.9971, 26.5478 15.0393, 27.1945 15.0599, 27.8359 15.0599, 28.3266 15.0599, 28.6608 14.977, 28.8385 14.8092, 29.0166 14.6418, 29.1054 14.3302, 29.1054 13.8743 L 29.1054 7.04348, 21.6989 7.04348, 21.6989 5.99137, 31.8137 5.99137, 31.8137 7.04348, 30.318 7.04348, 30.318 14.0392 C 30.318 14.7778, 30.1698 15.3087, 29.8734 15.6331, 29.5662 15.9629, 29.046 16.141, 28.3129 16.167, 27.8712 16.1778, 27.1621 16.1827, 26.1866 16.1827 Z M 22.1597 13.2933 L 22.1597 8.69231, 27.1891 8.69231, 27.1891 13.2933 Z M 23.2678 12.3276 L 26.1218 12.3276, 26.1218 9.6816, 23.2678 9.6816 Z M 26.6312 5.1434 L 26.6312 4.05988, 22.7015 4.05988, 22.7015 5.1277, 21.4644 5.1277, 21.4644 4.05988, 17.438 4.05988, 17.438 2.96852, 21.4644 2.96852, 21.4644 1.50027, 22.7015 1.50027, 22.7015 2.96852, 26.6312 2.96852, 26.6312 1.50027, 27.8521 1.50027, 27.8521 2.96852, 31.9109 2.96852, 31.9109 4.05988, 27.8521 4.05988, 27.8521 5.1434 Z" stroke="none" fill="#000000" />
			<path d="M 40.5225 16.4811 C 40.3125 16.1778, 40.0377 15.798, 39.6981 15.3426, 41.3744 14.3538, 42.636 13.3856, 43.482 12.4375, 43.0296 11.7574, 42.663 10.9987, 42.3823 10.1605, 42.1075 9.34987, 41.8921 8.41554, 41.7356 7.35754, 41.5471 7.6667, 41.2556 8.12994, 40.8621 8.74727, 40.8248 8.80517, 40.7978 8.84737, 40.7816 8.87289, 40.6844 8.73205, 40.4877 8.47541, 40.1913 8.10344, 40.0892 7.9783, 40.019 7.88948, 39.9807 7.83649, 40.628 6.91589, 41.1781 5.958, 41.6305 4.96281, 42.1051 3.91119, 42.5065 2.74131, 42.8353 1.45317 L 44.0964 1.63375 C 43.8108 2.65494, 43.509 3.53432, 43.191 4.27188 L 48.3736 4.27188, 48.3736 5.42606, 47.1688 5.42606 C 47.0236 6.96545, 46.7836 8.28991, 46.4494 9.39895, 46.0991 10.5458, 45.6196 11.5689, 45.0102 12.4689, 45.8297 13.4744, 46.975 14.3513, 48.4462 15.0992, 48.0747 15.6228, 47.8078 16.0232, 47.6458 16.3005, 46.1692 15.3269, 45.0317 14.3749, 44.2338 13.4425, 43.3392 14.4848, 42.1021 15.4972, 40.5225 16.4811 Z M 34.2888 16.379 C 34.1976 16.2848, 34.0062 16.1017, 33.7147 15.8294, 33.5479 15.6723, 33.4345 15.5654, 33.3751 15.5075, 33.8281 14.791, 34.1676 14.1393, 34.3939 13.5524, 34.6422 12.9248, 34.8252 12.2049, 34.944 11.3932, 35.0573 10.6503, 35.1461 9.62468, 35.2104 8.31543, 35.2163 8.09068, 35.2271 7.75061, 35.2428 7.29473, 35.2811 6.38983, 35.3027 5.72245, 35.3076 5.29258 L 33.5935 5.29258, 33.5935 4.16981, 37.0781 4.16981 C 36.7984 3.1864, 36.5476 2.36198, 36.3263 1.69656 L 37.5713 1.46887 C 37.9001 2.47436, 38.1616 3.33803, 38.356 4.05988 L 37.7735 4.16981, 40.6923 4.16981, 40.6923 5.29258, 36.4961 5.29258 C 36.4853 6.07823, 36.4583 6.93159, 36.4151 7.85219 L 39.9326 7.85219 C 39.8895 9.9726, 39.8168 11.9409, 39.7143 13.7566, 39.6873 14.5162, 39.5253 15.055, 39.229 15.374, 38.9326 15.6934, 38.4315 15.8686, 37.7249 15.9, 37.4393 15.9157, 36.9814 15.9236, 36.3504 15.9236, 36.3185 15.5835, 36.2375 15.1752, 36.108 14.6988, 36.1188 14.6992, 36.1379 14.7017, 36.1649 14.7066, 36.6664 14.7331, 37.0433 14.7464, 37.2965 14.7459, 37.7386 14.7464, 38.0497 14.6639, 38.2303 14.499, 38.4109 14.3341, 38.5203 14.0319, 38.5581 13.5917, 38.6607 11.5925, 38.7117 10.0487, 38.7117 8.95926 L 36.3504 8.95926 C 36.2645 10.2842, 36.1487 11.3466, 36.0029 12.147, 35.8577 12.9744, 35.6501 13.7178, 35.3802 14.3768, 35.1324 14.9686, 34.7688 15.636, 34.2888 16.379 Z M 44.25 11.4168 C 44.7354 10.6689, 45.1181 9.80772, 45.3983 8.83363, 45.6574 7.91795, 45.8567 6.78241, 45.9965 5.42606 L 42.6979 5.42606, 42.5683 5.70871 C 42.7141 6.94435, 42.9187 8.01756, 43.1827 8.92785, 43.4575 9.87593, 43.8133 10.7052, 44.25 11.4168 Z" stroke="none" fill="#000000" />
			<path d="M 50.9616 16.3319 L 50.04 15.1934 C 51.5225 14.4347, 52.7164 13.6496, 53.6218 12.8379, 54.5169 12.043, 55.1985 11.1557, 55.6676 10.1763, 56.1152 9.25026, 56.414 8.15644, 56.5651 6.8943 L 50.1936 6.8943, 50.1936 5.6459, 56.6702 5.6459 C 56.7457 4.58888, 56.783 3.23596, 56.783 1.58664 L 58.1413 1.58664 C 58.1364 2.20986, 58.1119 3.23351, 58.0687 4.6566, 58.0579 5.10709, 58.0501 5.43685, 58.0447 5.6459 L 64.5855 5.6459, 64.5855 6.8943, 58.0771 6.8943 C 58.3465 8.25066, 58.74 9.39944, 59.2572 10.3411, 59.7858 11.3098, 60.4973 12.1578, 61.3919 12.885, 62.2654 13.5922, 63.397 14.2517, 64.7877 14.8636, 64.3568 15.4343, 64.0575 15.848, 63.8902 16.1042, 62.0038 15.1674, 60.565 14.1393, 59.5728 13.0185, 58.5702 11.8938, 57.8454 10.4805, 57.3979 8.77867, 57.0421 10.428, 56.3738 11.828, 55.3923 12.9793, 54.4011 14.1472, 52.924 15.2641, 50.9616 16.3319 Z" stroke="none" fill="#000000" />
			<path d="M 67.6137 16.3633 L 67.6137 11.6602, 72.9341 11.6602, 72.9341 16.3476, 71.8261 16.3476, 71.8261 15.6566, 68.7134 15.6566, 68.7134 16.3633 Z M 78.9092 16.3633 L 78.9092 15.6566, 75.7641 15.6566, 75.7641 16.3476, 74.6482 16.3476, 74.6482 11.6602, 80.0167 11.6602, 80.0167 16.3633 Z M 68.7134 14.7145 L 71.8261 14.7145, 71.8261 12.6024, 68.7134 12.6024 Z M 75.7641 14.7145 L 78.9092 14.7145, 78.9092 12.6024, 75.7641 12.6024 Z M 66.781 11.5189 C 66.5979 11.0326, 66.4551 10.6792, 66.3526 10.4589, 68.3253 10.2342, 69.7729 9.98291, 70.6945 9.70516, 71.6327 9.42839, 72.2712 9.04612, 72.6108 8.55883 L 66.7972 8.55883, 66.7972 7.58524, 73.0151 7.58524 C 73.0853 7.26627, 73.1363 6.89479, 73.1687 6.47031 L 74.3896 6.47031 C 74.3842 6.52331, 74.3759 6.60428, 74.3651 6.71371, 74.317 7.12248, 74.2738 7.41299, 74.236 7.58524 L 76.9605 7.58524 C 76.8423 7.33448, 76.67 7.02826, 76.4433 6.6666 L 77.5509 6.39965 C 77.594 6.50466, 77.6834 6.68525, 77.8178 6.94141, 77.969 7.22455, 78.0794 7.439, 78.149 7.58524 L 80.9629 7.58524, 80.9629 8.55883, 74.9716 8.55883 C 75.5163 9.16634, 76.2598 9.60112, 77.2029 9.86219, 78.1196 10.1193, 79.475 10.2842, 81.2701 10.3568, 81.0762 10.7185, 80.9359 11.0718, 80.8495 11.4168, 79.4107 11.302, 78.2516 11.14, 77.3727 10.93, 76.4673 10.721, 75.7318 10.4334, 75.1655 10.0663, 74.6266 9.71595, 74.1767 9.2478, 73.8155 8.6609, 73.5677 9.16929, 73.1824 9.59327, 72.6593 9.93285, 72.1254 10.2788, 71.3815 10.5772, 70.4275 10.8279, 69.5221 11.0694, 68.3066 11.2995, 66.781 11.5189 Z M 67.5813 6.18766 L 67.5813 2.30898, 72.861 2.30898, 72.861 6.18766 Z M 74.6644 6.18766 L 74.6644 2.30898, 80.0005 2.30898, 80.0005 6.18766 Z M 68.6649 5.27688 L 71.778 5.27688, 71.778 3.23547, 68.6649 3.23547 Z M 75.7641 5.27688 L 78.893 5.27688, 78.893 3.23547, 75.7641 3.23547 Z" stroke="none" fill="#000000" />
			<rect />
		</svg>
	</g>
	<path d="M -43.3608 0 L 43.3596 0" fill="none" stroke="#000000" stroke-width="1.79999995" stroke-linecap="round" stroke-linejoin="round" marker-end="url(#CustomMarker-03)" transform="matrix(0.555556 0 0 0.555556 357.797 40.6573)" />
	<path d="M -88.8185 -40.5022 L 88.8185 -40.5022, 88.8185 40.5022, -88.8185 40.5022 Z" fill="none" stroke="#000000" stroke-width="1.79999995" stroke-linecap="round" stroke-linejoin="round" transform="matrix(0.555556 0 -0 0.555556 431.229 40.6573)" />
	<g transform="matrix(1 0 -0 1 390.273 31.0509)">
		<svg width="248.965775" height="51.0856972">
			<defs />
			<path d="M 2.51959 16.379 L 2.51959 7.55383 C 1.94838 8.47541, 1.38798 9.27381, 0.837879 9.94856, 0.789788 9.75521, 0.716671 9.4912, 0.619508 9.15555, 0.528233 8.83167, 0.47131 8.61183, 0.449718 8.49602, 1.15636 7.59112, 1.8208 6.51693, 2.44303 5.27344, 3.06576 4.03044, 3.56581 2.77812, 3.94268 1.51598 L 5.15575 1.87715 C 4.75139 3.01366, 4.25822 4.186, 3.67573 5.39465 L 3.67573 16.379 Z M 9.99869 16.379 C 9.62181 15.8765, 9.15023 15.2827, 8.58394 14.5967 L 9.50551 14.0392 C 10.1739 14.7675, 10.6832 15.3504, 11.0336 15.7901 Z M 13.8877 16.1199 C 13.1118 16.1199, 12.4435 15.6125, 11.8826 14.5967, 11.4409 13.8223, 11.1092 13.0058, 10.8879 12.147, 10.6455 11.2264, 10.4678 10.03, 10.3545 8.55883 L 7.03963 8.55883, 7.03963 13.7958 C 7.46018 13.5819, 8.15799 13.1971, 9.13354 12.6416, 9.41424 12.4851, 9.60562 12.3806, 9.70769 12.3276, 9.72388 12.6892, 9.78572 13.0843, 9.89367 13.5132, 8.63252 14.1678, 7.64567 14.7228, 6.93413 15.1777, 6.66521 15.3244, 6.37127 15.534, 6.05279 15.8058 L 5.25242 14.7851 C 5.46294 14.5555, 5.60868 14.3248, 5.68916 14.0942, 5.76473 13.8748, 5.80252 13.5922, 5.80252 13.2462 L 5.80252 2.75652 C 8.90192 2.6731, 11.8855 2.46896, 14.7528 2.1441 L 15.141 3.26688 C 13.5942 3.419, 12.3326 3.52892, 11.357 3.59664, 11.357 4.67525, 11.4002 5.96291, 11.4866 7.45961 L 15.3996 7.45961, 15.3996 8.55883, 11.5592 8.55883 C 11.6725 9.89408, 11.8369 10.9697, 12.0524 11.7858, 12.2521 12.5612, 12.5568 13.3228, 12.9661 14.0706, 13.1118 14.2964, 13.2654 14.4715, 13.4269 14.5967, 13.5834 14.7228, 13.7316 14.7856, 13.8715 14.7851, 14.1144 14.7856, 14.2709 14.5761, 14.3406 14.157, 14.427 13.7389, 14.5133 13.0661, 14.5992 12.1391, 14.6802 12.171, 14.8068 12.2181, 14.9795 12.2805, 15.2975 12.3963, 15.5213 12.4719, 15.6503 12.5082, 15.5591 13.4769, 15.4511 14.2517, 15.327 14.8322, 15.1439 15.691, 14.664 16.1199, 13.8877 16.1199 Z M 7.03963 7.45961 L 10.2656 7.45961 C 10.2063 6.4551, 10.166 5.2013, 10.1444 3.69871, 9.06092 3.76202, 8.02598 3.80912, 7.03963 3.84004 Z" stroke="none" fill="#000000" />
			<path d="M 17.624 16.0492 L 16.9448 14.8793 C 17.5592 14.2517, 18.1981 13.6314, 18.8611 13.0185 L 18.8611 8.01707, 17.147 8.01707, 17.147 6.84719, 20.0496 6.84719, 20.0496 12.9321 C 20.5133 13.5922, 21.0281 14.0579, 21.5939 14.3297, 22.1224 14.5869, 22.8153 14.7253, 23.6721 14.7459, 24.5996 14.7724, 25.9741 14.7832, 27.7957 14.7773, 29.4239 14.7778, 30.8195 14.7675, 31.9835 14.7459, 31.9462 14.8617, 31.8922 15.0158, 31.822 15.2091, 31.7141 15.5183, 31.6415 15.7563, 31.6037 15.9236, 27.5881 15.9236, 24.8096 15.8951, 23.2678 15.8372, 22.3948 15.8058, 21.6749 15.6517, 21.1086 15.374, 20.5217 15.0913, 19.977 14.6261, 19.4755 13.9764, 18.8071 14.6575, 18.1903 15.348, 17.624 16.0492 Z M 27.8845 13.9057 C 27.8256 13.4822, 27.7525 13.1471, 27.6661 12.9007, 28.0543 12.9326, 28.4611 12.9483, 28.887 12.9479, 29.2536 12.9483, 29.5044 12.8738, 29.6388 12.7246, 29.7738 12.5754, 29.841 12.2942, 29.841 11.88 L 29.841 11.4168, 27.0032 11.4168, 27.0032 13.6623, 25.847 13.6623, 25.847 11.4168, 23.0249 11.4168, 23.0249 13.8586, 21.8687 13.8586, 21.8687 5.55953, 25.6124 5.55953 C 24.5667 4.9687, 23.6775 4.47896, 22.9444 4.09129 L 23.6721 3.38465 C 24.3405 3.73601, 25.1948 4.22526, 26.2352 4.85289 L 29.178 3.25117, 21.618 3.25117, 21.618 2.29328, 30.8759 2.29328, 30.8759 3.40035, 27.2377 5.41035, 27.4801 5.55953, 30.9971 5.55953, 30.9971 12.0763 C 30.9971 12.6838, 30.8681 13.1279, 30.6095 13.4077, 30.3509 13.6879, 29.9195 13.8434, 29.3154 13.8743, 28.9278 13.8959, 28.4508 13.9062, 27.8845 13.9057 Z M 23.0249 10.4903 L 25.847 10.4903, 25.847 8.94356, 23.0249 8.94356 Z M 27.0032 10.4903 L 29.841 10.4903, 29.841 8.94356, 27.0032 8.94356 Z M 23.0249 8.03277 L 25.847 8.03277, 25.847 6.48602, 23.0249 6.48602 Z M 27.0032 8.03277 L 29.841 8.03277, 29.841 6.48602, 27.0032 6.48602 Z M 20.001 5.22977 C 19.554 4.62323, 18.8184 3.73306, 17.7938 2.56024 L 18.7639 1.91641 C 19.74 2.943, 20.5109 3.80667, 21.0767 4.50742 Z" stroke="none" fill="#000000" />
			<path d="M 37.0138 16.3633 C 36.6311 16.0757, 36.289 15.8294, 35.9867 15.6252, 36.6767 14.6364, 37.1483 13.6471, 37.4015 12.6573, 37.6498 11.6788, 37.7735 10.3519, 37.7735 8.6766 L 37.7735 4.58594, 41.7518 4.58594, 41.7518 1.60234, 42.9727 1.60234, 42.9727 2.62305, 47.743 2.62305, 47.743 3.53383, 42.9727 3.53383, 42.9727 4.58594, 48.2362 4.58594, 47.8156 6.94926 C 47.4819 6.87123, 47.107 6.80302, 46.6919 6.74512 L 46.9829 5.59094, 38.962 5.59094, 38.962 8.6766 C 38.962 10.4044, 38.8221 11.8256, 38.5419 12.94, 38.2563 14.0765, 37.747 15.217, 37.0138 16.3633 Z M 34.9194 16.2534 L 33.7147 15.8843 C 34.2 14.21, 34.6932 12.3305, 35.1942 10.2469, 35.6256 10.399, 36.0108 10.5144, 36.3504 10.5924, 35.7635 12.8173, 35.2865 14.7046, 34.9194 16.2534 Z M 43.1425 15.9864 C 42.5767 15.9864, 42.1576 15.8519, 41.8852 15.5821, 41.6134 15.3126, 41.477 14.898, 41.477 14.3376 L 41.477 11.4639, 42.5845 11.4639, 42.5845 14.0863 C 42.5845 14.3906, 42.6532 14.6104, 42.7906 14.7464, 42.928 14.8828, 43.1479 14.9505, 43.4497 14.95 L 44.2824 14.95 C 44.5523 14.9505, 44.7545 14.8985, 44.8889 14.7935, 45.0239 14.6889, 45.1211 14.503, 45.1799 14.2355, 45.2663 13.7703, 45.3227 13.3699, 45.3497 13.0342, 45.3767 13.0401, 45.4116 13.0529, 45.4548 13.0735, 45.8807 13.2256, 46.1987 13.3277, 46.4087 13.3797, 46.3871 13.4641, 46.3631 13.5819, 46.3361 13.733, 46.2497 14.1889, 46.1771 14.5162, 46.1177 14.7145, 46.0048 15.1595, 45.8105 15.4829, 45.5357 15.6841, 45.2609 15.8858, 44.8835 15.9864, 44.4036 15.9864 Z M 39.8271 15.3112 L 38.8977 14.95 C 39.2913 13.9769, 39.6362 12.9351, 39.9326 11.8251 L 40.8297 12.092 C 40.5333 13.1446, 40.1991 14.2178, 39.8271 15.3112 Z M 47.476 14.9343 C 47.239 14.1496, 46.87 13.1132, 46.3685 11.8251 L 47.3548 11.5189 C 47.7808 12.6132, 48.1503 13.629, 48.4624 14.5653 Z M 44.1936 12.9007 C 43.7519 12.2314, 43.2882 11.5719, 42.8029 10.9221 L 43.6194 10.4432 C 44.0724 11.0144, 44.5469 11.6474, 45.0425 12.3433 Z M 43.5709 10.1134 C 42.9133 10.1139, 42.4461 9.99223, 42.1684 9.74883, 41.8906 9.50543, 41.7518 9.08783, 41.7518 8.49602 L 41.7518 8.10344, 39.7305 8.22906, 39.6412 7.35754, 41.7518 7.20836, 41.7518 6.00707, 42.9241 6.00707, 42.9241 7.11414, 45.7619 6.91, 45.8429 7.78938, 42.9241 8.00137, 42.9241 8.33113 C 42.9241 8.67709, 42.9864 8.90626, 43.1101 9.01864, 43.2342 9.1315, 43.4766 9.18744, 43.8378 9.18695 L 45.4062 9.18695 C 45.7026 9.18744, 45.9347 9.13248, 46.1015 9.02207, 46.2527 8.92295, 46.3606 8.76886, 46.4249 8.55883, 46.4848 8.28206, 46.5466 7.93659, 46.6109 7.52242, 46.9132 7.64854, 47.2528 7.75846, 47.6296 7.85219, 47.5864 8.07792, 47.5276 8.35518, 47.452 8.68445, 47.425 8.79487, 47.4034 8.87584, 47.3872 8.92785, 47.242 9.36803, 47.0314 9.67571, 46.7566 9.8509, 46.4818 10.0266, 46.0691 10.1139, 45.5195 10.1134 Z M 35.6472 8.76297 C 35.5667 8.67955, 35.4425 8.55687, 35.2752 8.39395, 34.44 7.55677, 33.8227 6.9576, 33.4237 6.59594 L 34.3291 5.87359 C 35.0298 6.46541, 35.7983 7.15929, 36.6335 7.95426 Z M 36.0918 4.68801 C 35.3753 3.92444, 34.6608 3.21486, 33.9493 2.56024 L 34.9032 1.81434 C 34.9896 1.89334, 35.1191 2.01112, 35.2914 2.16766, 36.1217 2.9165, 36.7277 3.47396, 37.1105 3.84004 Z" stroke="none" fill="#000000" />
			<path d="M 55.6514 16.4025 C 55.436 16.0208, 55.1906 15.6282, 54.9153 15.2248, 56.678 14.5815, 58.0825 13.8616, 59.1282 13.0656, 58.0771 11.9615, 57.2742 10.5222, 56.7187 8.74727 L 57.0745 8.61379, 55.8698 8.61379 C 55.8536 10.3156, 55.6755 11.7446, 55.3359 12.9007, 55.0022 14.0216, 54.4334 15.1649, 53.6301 16.3319, 53.5977 16.3059, 53.5492 16.2666, 53.4844 16.2141, 53.1232 15.8951, 52.8298 15.6542, 52.603 15.4918, 53.3902 14.4033, 53.9319 13.3331, 54.2283 12.2805, 54.5198 11.2549, 54.6651 9.93334, 54.6651 8.31543 L 54.6651 3.54953, 59.1282 3.54953, 59.1282 1.53168, 60.357 1.53168, 60.357 3.54953, 64.5693 3.54953, 64.2621 6.43106 C 63.9392 6.40014, 63.5697 6.38444, 63.1546 6.38395 L 63.4132 4.63305, 60.357 4.63305, 60.357 7.52242, 63.6639 7.52242, 63.6639 8.69231 C 63.0603 10.4569, 62.1658 11.9144, 60.9797 13.0656, 61.9714 13.8356, 63.2625 14.4897, 64.8525 15.0285, 64.6154 15.4162, 64.3784 15.8245, 64.1409 16.2534, 62.4106 15.505, 61.0469 14.7228, 60.0498 13.9057, 58.9397 14.7856, 57.4735 15.6174, 55.6514 16.4025 Z M 51.5195 16.2691 L 50.226 15.8686 C 50.7815 14.1315, 51.2855 12.1843, 51.7379 10.0271, 51.7703 10.0433, 51.8189 10.0614, 51.8836 10.082, 52.3528 10.2553, 52.7135 10.3755, 52.9667 10.4432, 52.4926 12.1656, 52.0103 14.1079, 51.5195 16.2691 Z M 60.0821 12.2726 C 61.1171 11.2838, 61.8934 10.0644, 62.4106 8.61379 L 57.8911 8.61379 C 58.4358 10.1375, 59.166 11.3569, 60.0821 12.2726 Z M 52.3847 8.6452 C 51.4847 7.89734, 50.6573 7.24271, 49.9026 6.68231 L 50.6868 5.78723 C 51.4793 6.34273, 52.3228 6.96545, 53.2174 7.6559 Z M 55.8698 7.52242 L 59.1282 7.52242, 59.1282 4.63305, 55.8698 4.63305 Z M 52.8617 4.73512 C 52.1668 4.09178, 51.3502 3.39299, 50.412 2.63875 L 51.2123 1.78293 C 51.9887 2.35413, 52.8268 3.02397, 53.7268 3.79293 Z" stroke="none" fill="#000000" />
			<path d="M 67.6137 16.3633 L 67.6137 11.6602, 72.9341 11.6602, 72.9341 16.3476, 71.8261 16.3476, 71.8261 15.6566, 68.7134 15.6566, 68.7134 16.3633 Z M 78.9092 16.3633 L 78.9092 15.6566, 75.7641 15.6566, 75.7641 16.3476, 74.6482 16.3476, 74.6482 11.6602, 80.0167 11.6602, 80.0167 16.3633 Z M 68.7134 14.7145 L 71.8261 14.7145, 71.8261 12.6024, 68.7134 12.6024 Z M 75.7641 14.7145 L 78.9092 14.7145, 78.9092 12.6024, 75.7641 12.6024 Z M 66.781 11.5189 C 66.5979 11.0326, 66.4551 10.6792, 66.3526 10.4589, 68.3253 10.2342, 69.7729 9.98291, 70.6945 9.70516, 71.6327 9.42839, 72.2712 9.04612, 72.6108 8.55883 L 66.7972 8.55883, 66.7972 7.58524, 73.0151 7.58524 C 73.0853 7.26627, 73.1363 6.89479, 73.1687 6.47031 L 74.3896 6.47031 C 74.3842 6.52331, 74.3759 6.60428, 74.3651 6.71371, 74.317 7.12248, 74.2738 7.41299, 74.236 7.58524 L 76.9605 7.58524 C 76.8423 7.33448, 76.67 7.02826, 76.4433 6.6666 L 77.5509 6.39965 C 77.594 6.50466, 77.6834 6.68525, 77.8178 6.94141, 77.969 7.22455, 78.0794 7.439, 78.149 7.58524 L 80.9629 7.58524, 80.9629 8.55883, 74.9716 8.55883 C 75.5163 9.16634, 76.2598 9.60112, 77.2029 9.86219, 78.1196 10.1193, 79.475 10.2842, 81.2701 10.3568, 81.0762 10.7185, 80.9359 11.0718, 80.8495 11.4168, 79.4107 11.302, 78.2516 11.14, 77.3727 10.93, 76.4673 10.721, 75.7318 10.4334, 75.1655 10.0663, 74.6266 9.71595, 74.1767 9.2478, 73.8155 8.6609, 73.5677 9.16929, 73.1824 9.59327, 72.6593 9.93285, 72.1254 10.2788, 71.3815 10.5772, 70.4275 10.8279, 69.5221 11.0694, 68.3066 11.2995, 66.781 11.5189 Z M 67.5813 6.18766 L 67.5813 2.30898, 72.861 2.30898, 72.861 6.18766 Z M 74.6644 6.18766 L 74.6644 2.30898, 80.0005 2.30898, 80.0005 6.18766 Z M 68.6649 5.27688 L 71.778 5.27688, 71.778 3.23547, 68.6649 3.23547 Z M 75.7641 5.27688 L 78.893 5.27688, 78.893 3.23547, 75.7641 3.23547 Z" stroke="none" fill="#000000" />
			<rect />
		</svg>
	</g>
	<path d="M -43.3608 0 L 43.3595 0" fill="none" stroke="#000000" stroke-width="1.79999995" stroke-linecap="round" stroke-linejoin="round" marker-end="url(#CustomMarker-04)" transform="matrix(0.555556 0 0 0.555556 505.16 40.6573)" />
	<path d="M -88.8174 -40.5022 L 88.8174 -40.5022, 88.8174 40.5022, -88.8174 40.5022 Z" fill="none" stroke="#000000" stroke-width="1.79999995" stroke-linecap="round" stroke-linejoin="round" transform="matrix(0.555556 0 -0 0.555556 578.591 40.6573)" />
	<g transform="matrix(1 0 -0 1 537.636 31.0509)">
		<svg width="248.965775" height="51.0856972">
			<defs />
			<path d="M 1.65444 16.3005 C 1.34725 16.0178, 0.983624 15.7273, 0.563075 15.4289, 1.043 14.7071, 1.39878 14.0476, 1.6304 13.4504, 1.88361 12.8124, 2.0588 12.0822, 2.15596 11.2598, 2.25312 10.4854, 2.30121 9.44409, 2.30121 8.13484 L 2.30121 2.56024, 15.3431 2.56024, 15.3431 3.77723, 3.57071 3.77723, 3.57071 7.915 C 3.57071 9.41759, 3.52262 10.611, 3.42546 11.4953, 3.3175 12.4483, 3.12367 13.2938, 2.84297 14.0314, 2.58436 14.7282, 2.18835 15.4839, 1.65444 16.3005 Z M 3.77289 15.5546 L 3.77289 14.3533, 8.85874 14.3533, 8.85874 9.10844, 4.83187 9.10844, 4.83187 7.8993, 8.85874 7.8993, 8.85874 4.70371, 10.1685 4.70371, 10.1685 7.8993, 14.7852 7.8993, 14.7852 9.10844, 10.1685 9.10844, 10.1685 14.3533, 15.4158 14.3533, 15.4158 15.5546 Z M 13.5481 13.2305 C 13.1604 12.7339, 12.4921 11.9487, 11.543 10.875 L 12.4405 10.1763 C 12.9798 10.7264, 13.683 11.4904, 14.5506 12.4689 Z" stroke="none" fill="#000000" />
			<path d="M 17.8423 16.3476 C 17.6485 16.1699, 17.3492 15.9108, 16.9448 15.5703, 16.9291 15.5546, 16.9183 15.5443, 16.9124 15.5389, 17.3168 14.6968, 17.5891 13.8748, 17.729 13.0735, 17.8639 12.2834, 17.9312 11.1425, 17.9312 9.6502 L 17.9312 2.34039, 22.1116 2.34039, 22.1116 14.4868 C 22.1116 14.9951, 22.0066 15.3661, 21.7961 15.6017, 21.5753 15.8583, 21.2033 15.9972, 20.6802 16.0178, 20.4648 16.0335, 20.16 16.0468, 19.7665 16.0571, 19.5942 16.0625, 19.4568 16.0649, 19.3543 16.0649, 19.317 15.8137, 19.2384 15.4422, 19.1197 14.95, 19.551 14.9716, 19.9255 14.9819, 20.2434 14.9814, 20.5187 14.9819, 20.717 14.9245, 20.8382 14.8092, 20.9594 14.6943, 21.0198 14.503, 21.0198 14.2355 L 21.0198 11.1341, 18.9985 11.1341 C 18.9769 12.2127, 18.8773 13.1368, 18.6991 13.9057, 18.5323 14.66, 18.2467 15.4736, 17.8423 16.3476 Z M 22.7177 15.7587 L 22.7177 14.683, 26.7283 14.683, 26.7283 10.7416, 23.6721 10.7416, 23.6721 9.6659, 30.9809 9.6659, 30.9809 10.7416, 27.9007 10.7416, 27.9007 14.683, 31.7897 14.683, 31.7897 15.7587 Z M 19.0147 10.1134 L 21.0198 10.1134, 21.0198 7.23977, 19.0147 7.23977, 19.0147 10.0114 Z M 23.5504 9.17125 C 23.2815 8.85228, 23.0229 8.56177, 22.7746 8.29973, 23.8365 7.59898, 24.9176 6.76131, 26.0168 5.78723 L 26.8496 6.53313 C 26.3804 6.9576, 25.8387 7.41545, 25.2243 7.90715, 24.5991 8.41014, 24.0411 8.83167, 23.5504 9.17125 Z M 30.9407 9.15555 C 30.1109 8.36548, 29.0922 7.49151, 27.8845 6.53313 L 28.6687 5.78723 C 30.1619 6.95515, 31.2155 7.80312, 31.8299 8.33113 Z M 19.0147 6.23477 L 21.0198 6.23477, 21.0198 3.40035, 19.0147 3.40035 Z M 23.2516 6.06988 L 23.2516 3.44746, 27.0517 3.44746 C 26.9928 3.27522, 26.8765 2.97686, 26.7038 2.55238, 26.5586 2.1917, 26.4535 1.93015, 26.3888 1.76723 L 27.5773 1.51598 C 27.9331 2.32273, 28.1892 2.94545, 28.3453 3.38465 L 28.0219 3.44746, 31.5227 3.44746, 31.5227 6.06988, 30.3828 6.06988, 30.3828 4.53883, 24.3513 4.53883, 24.3513 6.06988 Z" stroke="none" fill="#000000" />
			<path d="M 37.879 16.3005 C 37.6739 16.1017, 37.3559 15.8166, 36.9245 15.4446, 37.4044 14.7174, 37.7494 14.0868, 37.9594 13.5524, 38.2024 12.9616, 38.3668 12.2731, 38.4526 11.4875, 38.5341 10.7656, 38.5743 9.7292, 38.5743 8.37824 L 38.5743 2.42676, 47.8966 2.42676, 47.8966 3.47887, 39.7305 3.47887, 39.7305 8.19766, 48.139 8.19766, 48.139 9.24191, 44.3472 9.24191 C 44.5037 10.1375, 44.7192 10.9015, 44.994 11.5346, 45.9047 10.954, 46.7027 10.4147, 47.3872 9.91715 L 48.0664 10.7573 C 47.3656 11.2657, 46.5005 11.831, 45.4709 12.4532, 45.7781 12.9508, 46.1746 13.414, 46.6595 13.8429, 47.1178 14.2571, 47.6949 14.6757, 48.3898 15.0992, 48.1473 15.3769, 47.8995 15.717, 47.6458 16.1199, 46.261 15.1728, 45.2393 14.1835, 44.5818 13.152, 43.9458 12.1475, 43.4874 10.8441, 43.2072 9.24191 L 42.1885 9.24191, 42.1885 14.581 C 42.981 14.2306, 43.6494 13.9244, 44.1936 13.6623, 44.2152 14.2021, 44.2559 14.5972, 44.3148 14.8479, 43.5228 15.1571, 42.7867 15.4761, 42.1075 15.8058, 41.8597 15.9054, 41.5604 16.0703, 41.21 16.3005 L 40.5794 15.3426 C 40.763 15.1595, 40.8896 14.9637, 40.9592 14.7537, 41.024 14.5604, 41.0564 14.3013, 41.0564 13.9764 L 41.0564 9.24191, 39.7305 9.24191 C 39.7143 10.4098, 39.647 11.3726, 39.5283 12.1313, 39.4154 12.9115, 39.224 13.626, 38.9541 14.2748, 38.7117 14.8774, 38.353 15.5521, 37.879 16.3005 Z M 33.6661 16.1984 C 33.6612 16.1881, 33.6583 16.1724, 33.6583 16.1513, 33.6151 15.6228, 33.5611 15.2327, 33.4963 14.9814, 33.7554 14.9922, 34.0651 14.9976, 34.4262 14.9971, 34.7285 14.9976, 34.9346 14.9402, 35.0451 14.8249, 35.1555 14.71, 35.2104 14.4926, 35.2104 14.1727 L 35.2104 10.2626 C 34.9896 10.3313, 34.6692 10.4358, 34.2486 10.5767, 33.9306 10.6871, 33.7015 10.7632, 33.5611 10.8044 L 33.4399 9.50102 C 34.2108 9.30276, 34.8012 9.13788, 35.2104 9.00637 L 35.2104 5.60664, 33.6097 5.60664, 33.6097 4.46816, 35.2104 4.46816, 35.2104 1.57094, 36.3828 1.57094, 36.3828 4.46816, 37.822 4.46816, 37.822 5.60664, 36.3828 5.60664, 36.3828 8.6609 C 36.6257 8.59318, 37.0114 8.47295, 37.5394 8.29973, 37.6739 8.25311, 37.7735 8.21925, 37.8382 8.19766, 37.8382 8.72666, 37.8466 9.12218, 37.8628 9.38324, 37.69 9.44115, 37.3858 9.54076, 36.9491 9.6816, 36.7012 9.76061, 36.5123 9.82097, 36.3828 9.86219 L 36.3828 14.4004 C 36.3828 15.0079, 36.2699 15.4397, 36.0432 15.6959, 35.8116 15.9683, 35.4023 16.1253, 34.8144 16.167, 34.5882 16.1881, 34.2054 16.1984, 33.6661 16.1984 Z M 40.6118 6.32113 L 40.6118 5.27688, 47.3872 5.27688, 47.3872 6.32113 Z" stroke="none" fill="#000000" />
			<path d="M 57.2443 16.4654 C 57.0932 16.2926, 56.7943 16.0021, 56.3468 15.5938, 57.1339 15.0913, 57.7507 14.6286, 58.1983 14.2041, 58.6674 13.7595, 59.0551 13.257, 59.3623 12.6966, 59.6376 12.1843, 59.9124 11.4983, 60.1872 10.6395 L 58.1413 10.6395 C 57.6511 11.7338, 57.0878 12.621, 56.4518 13.3012, 55.7942 14.0029, 54.9021 14.6497, 53.7754 15.2405, 53.5815 14.9844, 53.3175 14.6835, 52.9829 14.3376, 53.9967 13.8459, 54.8157 13.3071, 55.4409 12.7202, 56.045 12.1553, 56.5435 11.4619, 56.9366 10.6395 L 54.511 10.6395, 54.511 9.48531, 60.7613 6.99637, 54.6651 6.99637, 54.6651 5.99137, 62.9686 5.99137, 62.9686 7.12984, 56.8399 9.63449, 64.4319 9.63449 C 64.4211 9.80232, 64.4079 10.0487, 64.3917 10.3725, 64.3004 11.9065, 64.2234 12.9915, 64.1615 13.6275, 64.0997 14.2635, 63.9903 14.7488, 63.8337 15.0835, 63.6723 15.4343, 63.4353 15.688, 63.1222 15.8451, 62.8366 15.9864, 62.4298 16.0728, 61.9013 16.1042, 61.5244 16.1253, 60.9071 16.1356, 60.0498 16.1356, 59.9801 15.6802, 59.8937 15.3009, 59.7912 14.9971, 60.3898 15.029, 60.9743 15.0447, 61.5455 15.0442, 62.0092 15.0447, 62.3434 14.9372, 62.548 14.7223, 62.764 14.4976, 62.9038 14.0893, 62.9686 13.4975, 63.0765 12.676, 63.1521 11.7235, 63.1948 10.6395 L 61.3595 10.6395 C 61.0631 11.645, 60.7589 12.4615, 60.4458 13.0892, 60.1062 13.7703, 59.6861 14.3719, 59.1846 14.895, 58.6998 15.4029, 58.053 15.9265, 57.2443 16.4654 Z M 51.3497 16.2534 L 50.2422 15.5938 C 51.0347 14.3067, 51.8297 12.8203, 52.6271 11.1341, 52.8052 11.2603, 53.161 11.4698, 53.6944 11.7623 Z M 52.3037 10.6081 C 51.5225 9.97505, 50.7408 9.38619, 49.959 8.84149 L 50.6382 7.96996 C 51.334 8.39983, 52.1369 8.96515, 53.0476 9.6659 Z M 53.4603 7.93856 C 52.9863 7.55677, 52.2208 6.98361, 51.1638 6.21906 L 51.8753 5.34754 C 52.7002 5.90304, 53.4765 6.45265, 54.2038 6.99637 Z M 54.115 5.24547 L 54.115 4.02848, 49.9752 4.02848, 49.9752 2.98422, 54.115 2.98422, 54.115 1.60234, 55.3442 1.60234, 55.3442 2.98422, 59.4354 2.98422, 59.4354 1.60234, 60.6563 1.60234, 60.6563 2.98422, 64.7715 2.98422, 64.7715 4.02848, 60.6563 4.02848, 60.6563 5.24547, 59.4354 5.24547, 59.4354 4.02848, 55.3442 4.02848, 55.3442 5.24547 Z" stroke="none" fill="#000000" />
			<path d="M 67.6137 16.3633 L 67.6137 11.6602, 72.9341 11.6602, 72.9341 16.3476, 71.8261 16.3476, 71.8261 15.6566, 68.7134 15.6566, 68.7134 16.3633 Z M 78.9092 16.3633 L 78.9092 15.6566, 75.7641 15.6566, 75.7641 16.3476, 74.6482 16.3476, 74.6482 11.6602, 80.0167 11.6602, 80.0167 16.3633 Z M 68.7134 14.7145 L 71.8261 14.7145, 71.8261 12.6024, 68.7134 12.6024 Z M 75.7641 14.7145 L 78.9092 14.7145, 78.9092 12.6024, 75.7641 12.6024 Z M 66.781 11.5189 C 66.5979 11.0326, 66.4551 10.6792, 66.3526 10.4589, 68.3253 10.2342, 69.7729 9.98291, 70.6945 9.70516, 71.6327 9.42839, 72.2712 9.04612, 72.6108 8.55883 L 66.7972 8.55883, 66.7972 7.58524, 73.0151 7.58524 C 73.0853 7.26627, 73.1363 6.89479, 73.1687 6.47031 L 74.3896 6.47031 C 74.3842 6.52331, 74.3759 6.60428, 74.3651 6.71371, 74.317 7.12248, 74.2738 7.41299, 74.236 7.58524 L 76.9605 7.58524 C 76.8423 7.33448, 76.67 7.02826, 76.4433 6.6666 L 77.5509 6.39965 C 77.594 6.50466, 77.6834 6.68525, 77.8178 6.94141, 77.969 7.22455, 78.0794 7.439, 78.149 7.58524 L 80.9629 7.58524, 80.9629 8.55883, 74.9716 8.55883 C 75.5163 9.16634, 76.2598 9.60112, 77.2029 9.86219, 78.1196 10.1193, 79.475 10.2842, 81.2701 10.3568, 81.0762 10.7185, 80.9359 11.0718, 80.8495 11.4168, 79.4107 11.302, 78.2516 11.14, 77.3727 10.93, 76.4673 10.721, 75.7318 10.4334, 75.1655 10.0663, 74.6266 9.71595, 74.1767 9.2478, 73.8155 8.6609, 73.5677 9.16929, 73.1824 9.59327, 72.6593 9.93285, 72.1254 10.2788, 71.3815 10.5772, 70.4275 10.8279, 69.5221 11.0694, 68.3066 11.2995, 66.781 11.5189 Z M 67.5813 6.18766 L 67.5813 2.30898, 72.861 2.30898, 72.861 6.18766 Z M 74.6644 6.18766 L 74.6644 2.30898, 80.0005 2.30898, 80.0005 6.18766 Z M 68.6649 5.27688 L 71.778 5.27688, 71.778 3.23547, 68.6649 3.23547 Z M 75.7641 5.27688 L 78.893 5.27688, 78.893 3.23547, 75.7641 3.23547 Z" stroke="none" fill="#000000" />
			<rect />
		</svg>
	</g>
	<path d="M -69.8688 0 L 69.8663 0" fill="none" stroke="#000000" stroke-width="1.79999995" stroke-linecap="round" stroke-linejoin="round" marker-end="url(#CustomMarker-05)" transform="matrix(0.555556 0 0 0.555556 666.75 40.6573)" />
	<path d="M -69.9849 0 L 69.9846 0" fill="none" stroke="#000000" stroke-width="1.79999995" stroke-linecap="round" stroke-linejoin="round" marker-end="url(#CustomMarker-06)" transform="matrix(0.555556 0 0 0.555556 47.3805 32.3849)" />
	<path d="M -26.8242 0 L 26.8243 0" fill="none" stroke="#000000" stroke-width="1.79999995" stroke-linecap="round" stroke-linejoin="round" marker-end="url(#CustomMarker-07)" transform="matrix(0.555556 0 0 0.555556 71.3584 48.6132)" />
	<path d="M -88.8181 -40.5022 L 88.8181 -40.5022, 88.8181 40.5022, -88.8181 40.5022 Z" fill="none" stroke="#000000" stroke-width="1.79999995" stroke-linecap="round" stroke-linejoin="round" transform="matrix(0.555556 0 -0 0.555556 363.339 111.688)" />
	<g transform="matrix(1 0 -0 1 338.83 102.082)">
		<svg width="150.039169" height="51.0856972">
			<defs />
			<path d="M 1.71922 16.4654 C 1.4876 16.1042, 1.22899 15.7406, 0.942894 15.374, 2.23693 14.7881, 3.20169 14.1442, 3.83767 13.4425, 4.45205 12.7624, 4.8672 11.9065, 5.08263 10.875, 5.19599 10.4098, 5.27156 9.85728, 5.30934 9.21836 L 2.64079 9.21836, 2.64079 8.06418, 12.6991 8.06418 C 12.6452 9.88084, 12.5647 11.6082, 12.4567 13.2462, 12.3978 14.2046, 12.1549 14.8901, 11.729 15.3033, 11.2981 15.7224, 10.589 15.9447, 9.60268 15.9707, 8.6865 16.0021, 7.91017 16.0178, 7.27371 16.0178, 7.27371 16.0021, 7.27125 15.9736, 7.26585 15.9314, 7.17949 15.3872, 7.10441 14.9819, 7.03963 14.7145, 7.87484 14.7621, 8.67815 14.7856, 9.44908 14.7851, 10.0473 14.7856, 10.4757 14.6575, 10.7343 14.4009, 10.9934 14.1447, 11.1494 13.6888, 11.2034 13.0342, 11.2844 11.9458, 11.3354 10.6738, 11.357 9.21836 L 6.57835 9.21836 C 6.55185 9.84158, 6.47383 10.4648, 6.34428 11.087, 6.11266 12.3281, 5.65432 13.3488, 4.96976 14.1491, 4.26901 14.9716, 3.1855 15.743, 1.71922 16.4654 Z M 1.28247 8.74727 C 1.07784 8.40229, 0.821685 8.01511, 0.514493 7.58524, 1.69517 6.80057, 2.70851 5.9315, 3.55452 4.97852, 4.37942 4.05792, 5.12876 2.96361, 5.80252 1.69656 L 6.99105 2.24617 C 6.19314 3.64424, 5.37117 4.82443, 4.52468 5.78723, 3.64629 6.80302, 2.56571 7.78987, 1.28247 8.74727 Z M 14.7042 8.69231 C 13.3351 7.77662, 12.2251 6.8045, 11.3732 5.77594, 10.5218 4.74739, 9.77247 3.47151, 9.12569 1.94781 L 10.2818 1.51598 C 10.907 2.96116, 11.6078 4.13104, 12.3841 5.02563, 13.1712 5.9315, 14.2086 6.75346, 15.4967 7.49102, 15.4163 7.64854, 15.1518 8.04897, 14.7042 8.69231 Z" stroke="none" fill="#000000" />
			<path d="M 23.7202 16.4811 C 23.7045 16.455, 23.68 16.4182, 23.6476 16.3711, 23.3458 15.9314, 23.1166 15.6095, 22.9606 15.4054, 24.2757 14.872, 25.2189 14.3852, 25.7901 13.945, 26.4212 13.4587, 26.8525 12.8409, 27.0841 12.092, 27.2892 11.4227, 27.3967 10.399, 27.4075 9.02207 L 27.4075 7.50672, 28.5313 7.50672, 28.5151 8.99066 C 28.4994 10.4776, 28.3806 11.6057, 28.1593 12.3747 L 28.1755 12.3433 C 29.8469 13.5946, 31.1375 14.579, 32.0483 15.2955 L 31.2317 16.2377 C 30.1374 15.3166, 28.9759 14.3695, 27.7471 13.3954, 27.4183 14.0137, 26.9281 14.5682, 26.2754 15.0599, 25.6664 15.5104, 24.8145 15.984, 23.7202 16.4811 Z M 17.729 16.4339 C 17.6107 16.1724, 17.3953 15.8294, 17.0822 15.4054, 18.15 14.9191, 19.0206 14.4323, 19.6938 13.945, 20.3946 13.4327, 20.9987 12.8409, 21.5051 12.1705, 21.9904 11.5218, 22.4566 10.6974, 22.9037 9.69731 L 23.8581 10.2312 C 23.1034 11.7966, 22.2814 13.0323, 21.3917 13.9371, 20.481 14.8641, 19.26 15.6959, 17.729 16.4339 Z M 17.9959 12.9871 L 17.0096 12.4689 C 17.5273 11.5375, 17.9881 10.4987, 18.392 9.35184 L 19.4107 9.69731 C 18.9151 10.9855, 18.4435 12.0822, 17.9959 12.9871 Z M 24.6261 12.9321 L 24.6261 5.33184, 26.8496 5.33184, 27.2377 3.34539, 24.076 3.34539, 24.076 2.29328, 31.9271 2.29328, 31.9271 3.34539, 28.4665 3.34539, 28.0057 5.33184, 31.3691 5.33184, 31.3691 12.9321, 30.2615 12.9321, 30.2615 6.38395, 25.7096 6.38395, 25.7096 12.9321 Z M 20.2596 12.2726 L 20.2596 8.54313, 21.3432 8.54313, 21.3432 12.2726 Z M 17.0096 7.93856 L 17.0096 6.8943, 18.0848 6.8943, 18.0848 2.92141, 19.1683 2.92141, 19.1683 6.8943, 20.7126 6.8943, 20.7126 1.54738, 21.7882 1.54738, 21.7882 3.79293, 23.7202 3.79293, 23.7202 4.79793, 21.7882 4.79793, 21.7882 6.8943, 23.9793 6.8943, 23.9793 7.93856 Z" stroke="none" fill="#000000" />
			<path d="M 34.7207 16.3633 L 34.7207 11.6602, 40.0411 11.6602, 40.0411 16.3476, 38.9331 16.3476, 38.9331 15.6566, 35.8204 15.6566, 35.8204 16.3633 Z M 46.0162 16.3633 L 46.0162 15.6566, 42.8711 15.6566, 42.8711 16.3476, 41.7552 16.3476, 41.7552 11.6602, 47.1237 11.6602, 47.1237 16.3633 Z M 35.8204 14.7145 L 38.9331 14.7145, 38.9331 12.6024, 35.8204 12.6024 Z M 42.8711 14.7145 L 46.0162 14.7145, 46.0162 12.6024, 42.8711 12.6024 Z M 33.8879 11.5189 C 33.7049 11.0326, 33.5621 10.6792, 33.4595 10.4589, 35.4323 10.2342, 36.8799 9.98291, 37.8015 9.70516, 38.7397 9.42839, 39.3782 9.04612, 39.7177 8.55883 L 33.9041 8.55883, 33.9041 7.58524, 40.1221 7.58524 C 40.1923 7.26627, 40.2433 6.89479, 40.2757 6.47031 L 41.4966 6.47031 C 41.4912 6.52331, 41.4829 6.60428, 41.4721 6.71371, 41.424 7.12248, 41.3808 7.41299, 41.343 7.58524 L 44.0675 7.58524 C 43.9492 7.33448, 43.777 7.02826, 43.5503 6.6666 L 44.6578 6.39965 C 44.701 6.50466, 44.7903 6.68525, 44.9248 6.94141, 45.0759 7.22455, 45.1863 7.439, 45.256 7.58524 L 48.0698 7.58524, 48.0698 8.55883, 42.0786 8.55883 C 42.6233 9.16634, 43.3667 9.60112, 44.3099 9.86219, 45.2266 10.1193, 46.582 10.2842, 48.377 10.3568, 48.1832 10.7185, 48.0428 11.0718, 47.9565 11.4168, 46.5177 11.302, 45.3586 11.14, 44.4797 10.93, 43.5743 10.721, 42.8387 10.4334, 42.2724 10.0663, 41.7336 9.71595, 41.2836 9.2478, 40.9225 8.6609, 40.6746 9.16929, 40.2894 9.59327, 39.7663 9.93285, 39.2324 10.2788, 38.4885 10.5772, 37.5345 10.8279, 36.6291 11.0694, 35.4136 11.2995, 33.8879 11.5189 Z M 34.6883 6.18766 L 34.6883 2.30898, 39.968 2.30898, 39.968 6.18766 Z M 41.7714 6.18766 L 41.7714 2.30898, 47.1075 2.30898, 47.1075 6.18766 Z M 35.7718 5.27688 L 38.885 5.27688, 38.885 3.23547, 35.7718 3.23547 Z M 42.8711 5.27688 L 46 5.27688, 46 3.23547, 42.8711 3.23547 Z" stroke="none" fill="#000000" />
			<rect />
		</svg>
	</g>
	<path d="M 0 -63.9277 L 0 63.9277" fill="none" stroke="#000000" stroke-width="1.79999995" stroke-linecap="round" stroke-linejoin="round" transform="matrix(0.555556 0 0 0.555556 657.755 76.1727)" />
	<path d="M 220.566 0 L -220.566 0" fill="none" stroke="#000000" stroke-width="1.79999995" stroke-linecap="round" stroke-linejoin="round" marker-end="url(#CustomMarker-08)" transform="matrix(0.555556 0 0 0.555556 535.218 111.688)" />
	<path d="M 231.785 0 L -231.785 0" fill="none" stroke="#000000" stroke-width="1.79999995" stroke-linecap="round" stroke-linejoin="round" transform="matrix(0.555556 0 0 0.555556 185.226 111.688)" />
	<path d="M 0 56.7675 L 0 -56.7673" fill="none" stroke="#000000" stroke-width="1.79999995" stroke-linecap="round" stroke-linejoin="round" transform="matrix(0.555556 0 0 0.555556 56.4561 80.1506)" />
	<g transform="matrix(1 0 -0 1 40.9717 8.50001)">
		<svg width="44.9376793" height="45.0428467">
			<defs />
			<path d="M 10.8212 6.8519 C 10.805 6.9206, 10.7711 6.97949, 10.7201 7.02905, 10.669 7.0791, 10.6136 7.10364, 10.5542 7.10315, 10.5434 7.11395, 10.5164 7.11934, 10.4732 7.11885, 10.409 7.11934, 10.3766 7.11395, 10.3766 7.10315 L 10.3604 7.10315 C 10.22 7.10364, 10.1499 7.04623, 10.1499 6.93041 L 10.1499 6.87545 C 10.1823 6.63009, 10.2092 6.3813, 10.2308 6.12955, 10.2524 5.93621, 10.2632 5.75857, 10.2632 5.59565 L 10.2632 5.46217 C 10.2524 5.25312, 10.2284 5.06518, 10.1906 4.89735, 10.1528 4.73001, 10.088 4.59114, 9.99627 4.48073, 9.79164 4.24027, 9.49916 4.09796, 9.11935 4.05331, 8.73953 4.00914, 8.32536 3.98657, 7.87782 3.98608 L 6.23684 3.98608 C 5.95124 3.98657, 5.7839 4.00767, 5.73532 4.04889, 5.70882 4.07048, 5.65484 4.22457, 5.57387 4.51213 L 4.52275 8.55569, 5.60626 8.55569 C 5.89186 8.55618, 6.15489 8.54587, 6.39436 8.52477, 6.63433 8.50416, 6.84043 8.4227, 7.01267 8.28088, 7.16382 8.16115, 7.28257 7.97909, 7.36894 7.73569, 7.45531 7.49229, 7.54118 7.22387, 7.62755 6.93041, 7.64374 6.85779, 7.683 6.7989, 7.74483 6.75425, 7.80666 6.71008, 7.87291 6.68751, 7.94259 6.68702 L 8.07214 6.68702 C 8.14771 6.68751, 8.21543 6.71352, 8.27432 6.76553, 8.29591 6.80773, 8.30671 6.84699, 8.30671 6.88331, 8.30671 6.9152, 8.29886 6.94416, 8.28217 6.96967 L 7.29582 10.8562 C 7.23693 11.0137, 7.13192 11.0922, 6.98078 11.0917 L 6.85123 11.0917 C 6.70597 11.0922, 6.62746 11.024, 6.61666 10.8876 L 6.61666 10.8248 C 6.70303 10.5112, 6.76535 10.231, 6.80264 9.98467, 6.81344 9.92775, 6.81884 9.87279, 6.81884 9.81979, 6.81884 9.67355, 6.78645 9.55578, 6.72168 9.46647, 6.6304 9.34134, 6.46993 9.26675, 6.24077 9.24319, 6.01209 9.21964, 5.75741 9.20786, 5.47671 9.20737 L 4.34461 9.20737, 3.30183 13.298 C 3.28024 13.377, 3.26944 13.4531, 3.26944 13.5257, 3.26944 13.6101, 3.29103 13.6597, 3.33422 13.6749, 3.44757 13.7225, 3.65122 13.7529, 3.94468 13.7657, 4.23862 13.7789, 4.53894 13.7853, 4.84613 13.7848, 4.99728 13.7853, 5.07236 13.8481, 5.07236 13.9733, 5.07236 14.0052, 5.06696 14.039, 5.05616 14.0753 L 5.02377 14.201 C 4.96489 14.358, 4.86233 14.4365, 4.71658 14.4365, 3.97854 14.4159, 3.23705 14.4002, 2.49312 14.3894 L 2.16139 14.3894 C 1.52051 14.3894, 0.876187 14.4051, 0.229415 14.4365, 0.148446 14.4365, 0.0890682 14.413, 0.0512826 14.3658, 0.0139876 14.3295, -0.00465982 14.2903, -0.00515054 14.2481, -0.00465982 14.2172, 0.000738129 14.1857, 0.0110433 14.1539 L 0.043431 14.0361 C 0.0596248 13.9684, 0.0974105 13.91, 0.156788 13.8599, 0.216165 13.8103, 0.283394 13.7853, 0.358475 13.7848, 0.612179 13.7853, 0.849688 13.7814, 1.07051 13.7735, 1.29134 13.7657, 1.45868 13.7382, 1.57154 13.6906, 1.6687 13.6386, 1.74378 13.4973, 1.79776 13.2666 L 4.06981 4.47288 C 4.1022 4.35805, 4.11839 4.26677, 4.11839 4.19807, 4.11839 4.13575, 4.10514 4.09894, 4.07766 4.08815, 4.00258 4.04153, 3.85438 4.01307, 3.63356 4.00227, 3.41273 3.99197, 3.17522 3.98657, 2.92152 3.98608, 2.77087 3.98657, 2.6953 3.9159, 2.6953 3.77409 L 2.6953 3.71913, 2.72768 3.58565 C 2.77087 3.41341, 2.87588 3.32704, 3.04273 3.32655 L 11.0233 3.32655 C 11.1745 3.32704, 11.2496 3.41095, 11.2496 3.5778 Z" stroke="none" fill="#000000" />
			<path d="M 1.46106 -2.83924 C 1.43385 -2.72767, 1.3712 -2.63451, 1.27309 -2.55976, 1.17498 -2.48501, 1.06864 -2.44764, 0.953767 -2.44792, 0.833128 -2.44764, 0.741068 -2.48859, 0.677588 -2.57103, 0.635268 -2.61775, 0.612734 -2.6749, 0.609437 -2.74251, 0.609437 -2.78318, 0.615483 -2.8244, 0.627574 -2.86562, 0.655054 -2.97664, 0.718534 -3.0698, 0.818014 -3.14455, 0.917493 -3.21929, 1.02467 -3.25667, 1.13953 -3.25694, 1.26045 -3.25667, 1.35251 -3.21709, 1.41571 -3.13823, 1.45803 -3.08217, 1.47919 -3.02226, 1.47919 -2.95795, 1.47919 -2.91673, 1.47315 -2.87716, 1.46106 -2.83924 Z M 1.5108 1.42573 C 1.47782 1.57852, 1.42643 1.73901, 1.35691 1.90746, 1.28765 2.07619, 1.20219 2.22926, 1.10106 2.36694, 0.999934 2.50489, 0.881219 2.61976, 0.745465 2.71182, 0.609712 2.80415, 0.452523 2.85032, 0.27445 2.85032, 0.123582 2.85032, -0.00612569 2.81817, -0.114948 2.75359, -0.223771 2.68928, -0.307586 2.60437, -0.366395 2.49884, -0.425203 2.39332, -0.454607 2.27598, -0.454607 2.14682, -0.460653 2.14132, -0.463675 2.12951, -0.463675 2.11164, -0.463675 1.98001, -0.434821 1.84508, -0.377662 1.70713 L 0.356067 -0.227494 C 0.446752 -0.470421, 0.49182 -0.669929, 0.49182 -0.825469, 0.49182 -0.9571, 0.436035 -1.02305, 0.32419 -1.02333, 0.221687 -1.02305, 0.129628 -0.993649, 0.0480108 -0.935116, -0.0333313 -0.876308, -0.108078 -0.794966, -0.17623 -0.691089, -0.244106 -0.586938, -0.305113 -0.463826, -0.359524 -0.321752, -0.413936 -0.179403, -0.459279 -0.0279856, -0.495553 0.13305, -0.528529 0.212468, -0.584315 0.253414, -0.662909 0.256162 L -0.762663 0.256162 C -0.835211 0.256437, -0.871486 0.219888, -0.871486 0.14624 L -0.871486 0.115463 C -0.835211 -0.045573, -0.7808 -0.210181, -0.708252 -0.378911, -0.635703 -0.547366, -0.548315 -0.700433, -0.445538 -0.838385, -0.342761 -0.976062, -0.223496 -1.09038, -0.0877427 -1.18134, 0.0480108 -1.27203, 0.20355 -1.31764, 0.378601 -1.31792, 0.529743 -1.31764, 0.658077 -1.28522, 0.763602 -1.22091, 0.869402 -1.15633, 0.950195 -1.07059, 1.00598 -0.963696, 1.06177 -0.856522, 1.09254 -0.735883, 1.09859 -0.601228 L 1.09859 -0.57045 C 1.09859 -0.44404, 1.07303 -0.313782, 1.02164 -0.179128 L 0.287915 1.76429 C 0.20355 2.002, 0.16123 2.20425, 0.16123 2.37106, 0.155185 2.3771, 0.152162 2.3771, 0.152162 2.37106, 0.152162 2.49747, 0.209596 2.5604, 0.32419 2.56012, 0.426967 2.5604, 0.51985 2.52962, 0.602841 2.46807, 0.685833 2.40651, 0.761404 2.32462, 0.829281 2.22184, 0.897157 2.11934, 0.95679 1.99623, 1.00818 1.8525, 1.05957 1.70905, 1.10628 1.55791, 1.1486 1.39935, 1.16674 1.3235, 1.2195 1.28531, 1.30689 1.28503 L 1.40665 1.28503 C 1.4399 1.28531, 1.47315 1.29547, 1.50612 1.31581, 1.51547 1.33944, 1.52289 1.36005, 1.52893 1.37737, 1.52893 1.39523, 1.52289 1.41144, 1.5108 1.42573 Z" stroke="none" fill="#000000" transform="matrix(1.12 0 0 1 11.3525 13.9768)" />
			<rect />
		</svg>
	</g>
	<g transform="matrix(1 0 -0 1 659.562 17.1733)">
		<svg width="48.0251122" height="45.0428467">
			<defs />
			<path d="M 10.8273 6.8519 C 10.8116 6.9206, 10.7777 6.97949, 10.7267 7.02905, 10.6757 7.0791, 10.6202 7.10364, 10.5608 7.10315, 10.55 7.11395, 10.5231 7.11934, 10.4799 7.11885, 10.4151 7.11934, 10.3827 7.11395, 10.3827 7.10315 L 10.3665 7.10315 C 10.2267 7.10364, 10.1565 7.04623, 10.1565 6.93041 L 10.1565 6.87545 C 10.1889 6.63009, 10.2154 6.3813, 10.237 6.12955, 10.2586 5.93621, 10.2694 5.75857, 10.2694 5.59565 L 10.2694 5.46217 C 10.2586 5.25312, 10.2345 5.06518, 10.1967 4.89735, 10.1594 4.73001, 10.0947 4.59114, 10.0024 4.48073, 9.79777 4.24027, 9.5053 4.09796, 9.12548 4.05331, 8.74566 4.00914, 8.33149 3.98657, 7.88395 3.98608 L 6.24199 3.98608 C 5.95639 3.98657, 5.78955 4.00767, 5.74097 4.04889, 5.71398 4.07048, 5.66 4.22457, 5.57903 4.51213 L 4.5279 8.55569, 5.61142 8.55569 C 5.89702 8.55618, 6.16004 8.54587, 6.40001 8.52477, 6.63997 8.50416, 6.84607 8.4227, 7.01832 8.28088, 7.16946 8.16115, 7.28822 7.97909, 7.37458 7.73569, 7.46095 7.49229, 7.54683 7.22387, 7.63319 6.93041, 7.64939 6.85779, 7.68865 6.7989, 7.75048 6.75425, 7.81231 6.71008, 7.87855 6.68751, 7.94873 6.68702 L 8.07779 6.68702 C 8.15336 6.68751, 8.22108 6.71352, 8.27997 6.76553, 8.30156 6.80773, 8.31235 6.84699, 8.31235 6.88331, 8.31235 6.9152, 8.3045 6.94416, 8.28831 6.96967 L 7.30147 10.8562 C 7.24258 11.0137, 7.13707 11.0922, 6.98593 11.0917 L 6.85687 11.0917 C 6.71162 11.0922, 6.6331 11.024, 6.6223 10.8876 L 6.6223 10.8248 C 6.70867 10.5112, 6.77099 10.231, 6.80829 9.98467, 6.81908 9.92775, 6.82448 9.87279, 6.82448 9.81979, 6.82448 9.67355, 6.7921 9.55578, 6.72732 9.46647, 6.63605 9.34134, 6.47558 9.26675, 6.24641 9.24319, 6.01724 9.21964, 5.76256 9.20786, 5.48187 9.20737 L 4.34977 9.20737, 3.30649 13.298 C 3.2849 13.377, 3.2741 13.4531, 3.2741 13.5257, 3.2741 13.6101, 3.2957 13.6597, 3.33888 13.6749, 3.45224 13.7225, 3.65589 13.7529, 3.94934 13.7657, 4.24328 13.7789, 4.54409 13.7853, 4.85129 13.7848, 5.00243 13.7853, 5.07751 13.8481, 5.07751 13.9733, 5.07751 14.0052, 5.07211 14.039, 5.06132 14.0753 L 5.02893 14.201 C 4.97004 14.358, 4.86748 14.4365, 4.72174 14.4365, 3.9832 14.4159, 3.24172 14.4002, 2.49778 14.3894 L 2.16605 14.3894 C 1.52468 14.3894, 0.88036 14.4051, 0.233587 14.4365, 0.152618 14.4365, 0.0932405 14.413, 0.0554549 14.3658, 0.0181599 14.3295, -0.000487532 14.2903, -0.000978254 14.2481, -0.000487532 14.2172, 0.00491042 14.1857, 0.0152156 14.1539 L 0.0476033 14.0361 C 0.0637971 13.9684, 0.101583 13.91, 0.16096 13.8599, 0.220338 13.8103, 0.287567 13.7853, 0.362647 13.7848, 0.616351 13.7853, 0.853861 13.7814, 1.07469 13.7735, 1.29551 13.7657, 1.46285 13.7382, 1.57571 13.6906, 1.67288 13.6386, 1.74845 13.4973, 1.80243 13.2666 L 4.07496 4.47288 C 4.10735 4.35805, 4.12355 4.26677, 4.12355 4.19807, 4.12355 4.13575, 4.1103 4.09894, 4.08282 4.08815, 4.00724 4.04153, 3.85905 4.01307, 3.63822 4.00227, 3.4174 3.99197, 3.17989 3.98657, 2.92618 3.98608, 2.77553 3.98657, 2.69996 3.9159, 2.69996 3.77409 L 2.69996 3.71913, 2.73235 3.58565 C 2.77553 3.41341, 2.88104 3.32704, 3.04788 3.32655 L 11.0295 3.32655 C 11.1806 3.32704, 11.2562 3.41095, 11.2562 3.5778 Z" stroke="none" fill="#000000" />
			<path d="M 2.15739 0.779391 C 2.08814 1.04348, 1.97849 1.30015, 1.829 1.54912, 1.6795 1.79837, 1.48879 2.02536, 1.2563 2.23036, 1.048 2.41228, 0.818816 2.56122, 0.568194 2.67692, 0.317572 2.79261, 0.0655761 2.85032, -0.188069 2.85032, -0.450782 2.85032, -0.678595 2.79261, -0.871783 2.67692, -1.06497 2.56122, -1.21749 2.40953, -1.32906 2.22157, -1.45574 2.01079, -1.52829 1.78078, -1.54643 1.53126, -1.55247 1.46997, -1.5555 1.40842, -1.5555 1.34659, -1.5555 1.15917, -1.53131 0.964334, -1.48322 0.761803, -1.41067 0.492495, -1.29965 0.233079, -1.15016 -0.0161691, -1.00067 -0.265142, -0.812974 -0.494054, -0.586535 -0.702356, -0.378233 -0.883727, -0.147947 -1.03185, 0.104049 -1.14617, 0.356045 -1.26048, 0.608865 -1.31764, 0.862235 -1.31792, 1.1189 -1.31764, 1.34479 -1.25966, 1.53935 -1.14397, 1.73392 -1.028, 1.89028 -0.877956, 2.0079 -0.693563, 2.13486 -0.482238, 2.21015 -0.249203, 2.23433 0.00554061 L 2.23433 0.185812 C 2.23433 0.382573, 2.20878 0.580432, 2.15739 0.779391 Z M 1.43273 -0.539672 C 1.38464 -0.68312, 1.30687 -0.799362, 1.1997 -0.888949, 1.09252 -0.97826, 0.961989 -1.02305, 0.808098 -1.02333, 0.657231 -1.02305, 0.502516 -0.976886, 0.343953 -0.884552, 0.185666 -0.792217, 0.0460649 -0.672677, -0.074849 -0.526481, -0.237808 -0.335767, -0.362295 -0.129663, -0.448309 0.0915544, -0.534323 0.313047, -0.607695 0.542234, -0.668152 0.779391, -0.728335 1.01407, -0.775051 1.24134, -0.808578 1.46091, -0.820669 1.53153, -0.826715 1.59748, -0.826715 1.65877, -0.826715 1.80276, -0.802532 1.94044, -0.754166 2.07207, -0.708823 2.21882, -0.632703 2.33698, -0.525529 2.4263, -0.418355 2.51588, -0.289197 2.5604, -0.138329 2.56012, 0.0188594 2.5604, 0.176597 2.51423, 0.334885 2.4219, 0.493447 2.32956, 0.631399 2.20865, 0.749015 2.05888, 0.912249 1.86872, 1.03674 1.66289, 1.12275 1.4414, 1.20876 1.22018, 1.28351 0.993738, 1.34672 0.761803, 1.40717 0.521624, 1.45252 0.288589, 1.48274 0.0627, 1.49484 -0.00435233, 1.50061 -0.0689316, 1.50061 -0.130763, 1.50061 -0.274211, 1.47807 -0.410514, 1.43273 -0.539672 Z" stroke="none" fill="#000000" transform="matrix(1.12 0 0 1 12.0395 13.9768)" />
			<rect />
		</svg>
	</g>
</svg>
