<?xml version="1.0"?>
<svg xmlns="http://www.w3.org/2000/svg" xmlns:xlink="http://www.w3.org/1999/xlink" width="362.093719" height="75.4064484">
	<defs />
	<path d="M -523.529 0 L -523.529 -87.7644, -418.823 -87.7644, -418.823 87.7644, -314.117 87.7644, -314.117 0, -314.117 -87.7644, -209.412 -87.7644, -209.412 87.7644, -104.706 87.7644, -104.706 0, -104.706 -87.7644, -1.52588e-005 -87.7644, -1.52588e-005 87.7644, 104.706 87.7644, 104.706 0, 104.706 -87.7644, 209.412 -87.7644, 209.412 87.7644, 314.117 87.7644, 314.117 0, 314.117 -87.7644, 418.823 -87.7644, 418.823 87.7644, 523.529 87.7644, 523.529 0" fill="none" stroke="#000000" stroke-width="6.33333302" stroke-linecap="round" stroke-linejoin="round" transform="matrix(-0.263158 3.97357e-008 3.97357e-008 0.263158 181.047 37.7032)" />
</svg>
