<?xml version="1.0"?>
<svg xmlns="http://www.w3.org/2000/svg" xmlns:xlink="http://www.w3.org/1999/xlink" width="223.461548" height="152.307693">
	<defs>
		<marker id="CustomMarker-01" markerUnits="strokeWidth" markerWidth="15.000001" markerHeight="9" viewBox="-15 -4.5 15 9" orient="auto-start-reverse">
			<path d="M 0 -0 L -10 -3, -8 -0.5, -8 0.5, -10 3 Z" fill="#000000" stroke="#000000" stroke-linejoin="round" />
		</marker>
		<marker id="CustomMarker-02" markerUnits="strokeWidth" markerWidth="15.000001" markerHeight="9" viewBox="-15 -4.5 15 9" orient="auto-start-reverse">
			<path d="M 0 -0 L -10 -3, -8 -0.5, -8 0.5, -10 3 Z" fill="#000000" stroke="#000000" stroke-linejoin="round" />
		</marker>
		<marker id="CustomMarker-03" markerUnits="strokeWidth" markerWidth="15.000001" markerHeight="9" viewBox="-15 -4.5 15 9" orient="auto-start-reverse">
			<path d="M 0 -0 L -10 -3, -8 -0.5, -8 0.5, -10 3 Z" fill="#000000" stroke="#000000" stroke-linejoin="round" />
		</marker>
		<marker id="CustomMarker-04" markerUnits="strokeWidth" markerWidth="15.000001" markerHeight="9" viewBox="-15 -4.5 15 9" orient="auto-start-reverse">
			<path d="M 0 -0 L -10 -3, -8 -0.5, -8 0.5, -10 3 Z" fill="#000000" stroke="#000000" stroke-linejoin="round" />
		</marker>
	</defs>
	<path d="M 182.332 -0 C 182.332 100.699, 100.699 182.332, -0 182.332, -100.699 182.332, -182.332 100.699, -182.332 -0, -182.332 -100.699, -100.699 -182.332, -0 -182.332, 100.699 -182.332, 182.332 -100.699, 182.332 -0 Z" fill="none" stroke="#000000" stroke-opacity="0.494117618" stroke-width="3.4666667" stroke-linecap="round" stroke-linejoin="round" stroke-dasharray="12.1507, 8.64933" transform="matrix(0.384615 0 0 0.384615 145.046 75.3846)" />
	<path d="M 0 0 L -117.837 -137.479" fill="none" stroke="#000000" stroke-opacity="0.494117618" stroke-width="3.4666667" stroke-linecap="round" stroke-linejoin="round" transform="matrix(0.384615 0 0 0.384615 145.046 75.3846)" />
	<path d="M 9.6376 -0 C 9.6376 5.3227, 5.3227 9.6376, -0 9.6376, -5.3227 9.6376, -9.6376 5.3227, -9.6376 -0, -9.6376 -5.3227, -5.3227 -9.6376, -0 -9.6376, 5.3227 -9.6376, 9.6376 -5.3227, 9.6376 -0 Z" stroke="none" fill="#808080" transform="matrix(0.384615 0 0 0.384615 99.4079 22.139)" />
	<path d="M 9.6376 -0 C 9.6376 5.3227, 5.3227 9.6376, -0 9.6376, -5.3227 9.6376, -9.6376 5.3227, -9.6376 -0, -9.6376 -5.3227, -5.3227 -9.6376, -0 -9.6376, 5.3227 -9.6376, 9.6376 -5.3227, 9.6376 -0 Z" fill="none" stroke="#000000" stroke-width="3.4666667" stroke-linecap="round" stroke-linejoin="round" transform="matrix(0.384615 0 0 0.384615 99.4079 22.139)" />
	<path d="M -21.3542 -24.9137 C -15.4071 -30.0111, -7.83278 -32.813, -0.000102331 -32.813" fill="none" stroke="#000000" stroke-width="3.4666667" stroke-linecap="round" stroke-linejoin="round" transform="matrix(-0.384615 5.80753e-008 -5.80753e-008 -0.384615 99.4079 22.0306)" />
	<g transform="matrix(1 0 -0 1 150.323 60.5076)">
		<svg width="41.9788857" height="45.0428467">
			<defs />
			<path d="M 11.7138 8.04884 C 11.6955 8.129, 11.656 8.1977, 11.5965 8.25552, 11.5369 8.31392, 11.4625 8.34254, 11.3743 8.34197 L 11.1951 8.34197 C 11.0194 8.34254, 10.9312 8.26926, 10.9312 8.12213 L 10.9312 8.05801 C 10.9816 7.78377, 11.0251 7.49866, 11.0629 7.2021, 11.1007 6.90612, 11.1322 6.62959, 11.1574 6.37254 L 11.1574 6.07941 C 11.1574 5.93972, 11.1511 5.81148, 11.1385 5.69468, 11.1133 5.50576, 11.0692 5.36263, 11.0062 5.26416, 10.8368 5.04489, 10.5997 4.89718, 10.2946 4.82046, 9.98944 4.74432, 9.64822 4.70596, 9.27037 4.70539 L 8.22325 4.70539 C 7.90894 4.70596, 7.71371 4.72428, 7.63814 4.76035, 7.58204 4.81588, 7.51906 4.99909, 7.44979 5.30996 L 4.81739 15.5144 C 4.7922 15.6065, 4.7796 15.6798, 4.7796 15.7342, 4.7796 15.8567, 4.81739 15.93, 4.89238 15.9541, 5.06872 16.0096, 5.35211 16.0451, 5.74199 16.06, 6.13187 16.0754, 6.52175 16.0829, 6.91163 16.0823, 7.08796 16.0829, 7.17613 16.1562, 7.17613 16.3021, 7.17613 16.3394, 7.16983 16.3789, 7.15723 16.4212 L 7.11945 16.5586 C 7.08166 16.7487, 6.95915 16.8426, 6.75132 16.8426, 5.71966 16.806, 4.67884 16.7876, 3.62828 16.7876, 2.58403 16.7876, 1.53404 16.806, 0.477189 16.8426, 0.383298 16.8426, 0.314024 16.8151, 0.269368 16.7602, 0.225858 16.7178, 0.20353 16.672, 0.20353 16.6228, 0.20353 16.5867, 0.209827 16.55, 0.222423 16.5128 L 0.260208 16.3754 C 0.279101 16.2964, 0.323184 16.2283, 0.392458 16.1699, 0.461732 16.1121, 0.540165 16.0829, 0.628332 16.0823, 1.01191 16.0829, 1.40523 16.0754, 1.8077 16.06, 2.21018 16.0451, 2.50445 16.0096, 2.68994 15.9546, 2.87543 15.8997, 2.99967 15.7411, 3.06207 15.4777 L 5.69447 5.26416 C 5.75745 5.05118, 5.78893 4.88916, 5.78893 4.77867 L 5.78893 4.74203 C 5.76374 4.71798, 5.59085 4.70596, 5.27024 4.70539 L 4.22255 4.70539 C 3.84584 4.70596, 3.47771 4.74604, 3.11932 4.82504, 2.76093 4.90462, 2.43975 5.05691, 2.15636 5.28248, 2.02468 5.38667, 1.89873 5.53667, 1.77908 5.7319, 1.65999 5.9277, 1.54206 6.15212, 1.42527 6.40517, 1.30905 6.65879, 1.19741 6.92902, 1.09035 7.21584, 0.983861 7.50324, 0.876801 7.79007, 0.769742 8.07633, 0.706766 8.2601, 0.590546 8.34884, 0.420511 8.34197 L 0.260208 8.34197 C 0.166317 8.34254, 0.097043 8.3122, 0.0523872 8.25037, 0.0146016 8.2143, -0.00429124 8.17136, -0.00429124 8.12213, -0.00429124 8.08606, 0.00544143 8.04942, 0.0243343 8.0122, 0.188072 7.39618, 0.392458 6.767, 0.637492 6.12578, 0.883099 5.48457, 1.11611 4.84622, 1.33595 4.21074, 1.39893 4.02811, 1.51801 3.93651, 1.69434 3.93593 L 12.0917 3.93593 C 12.268 3.93651, 12.3556 4.01265, 12.3556 4.16494 L 12.3556 4.22906 Z" stroke="none" fill="#000000" />
			<rect />
		</svg>
	</g>
	<g transform="matrix(1 0 -0 1 102.534 36.6355)">
		<svg width="27.0562763" height="41.9571304">
			<defs />
			<path d="M 6.83699 4.71627 C 6.96655 5.21387, 7.03083 5.72176, 7.03083 6.23948, 7.03083 6.4024, 7.02543 6.55943, 7.01464 6.71057, 6.96115 7.402, 6.84534 8.09539, 6.6672 8.79123, 6.47337 9.49297, 6.22801 10.1883, 5.93161 10.8763, 5.63521 11.5648, 5.24116 12.2253, 4.75044 12.8583, 4.5836 13.0733, 4.39859 13.2858, 4.19642 13.4948, 3.99424 13.7044, 3.77734 13.8913, 3.54572 14.0562, 3.3141 14.2211, 3.07266 14.356, 2.8219 14.4601, 2.57114 14.5651, 2.30812 14.6171, 2.03331 14.6171, 1.75311 14.6171, 1.51167 14.5636, 1.30949 14.4561, 1.10732 14.3492, 0.933601 14.2108, 0.787857 14.0405, 0.642603 13.8707, 0.522376 13.6808, 0.428157 13.4713, 0.333938 13.2622, 0.256895 13.0473, 0.197517 12.8269, 0.0630592 12.3406, -0.00466061 11.8381, -0.00466061 11.3194, -0.00466061 11.1526, 0.00613534 10.9877, 0.0277271 10.8248, 0.0709107 10.1446, 0.186721 9.45665, 0.375159 8.75983, 0.553291 8.05908, 0.793254 7.36569, 1.09505 6.67966, 1.39733 5.99412, 1.79874 5.33164, 2.30026 4.69272, 2.4676 4.47876, 2.65113 4.2653, 2.85036 4.05331, 3.0496 3.84132, 3.26257 3.65288, 3.48879 3.488, 3.71551 3.32311, 3.954 3.18865, 4.20476 3.08364, 4.45552 2.97912, 4.721 2.92661, 5.0012 2.92612, 5.28189 2.92661, 5.52186 2.98059, 5.72109 3.08757, 5.92032 3.19503, 6.09698 3.33244, 6.25058 3.49977, 6.40467 3.6676, 6.52588 3.85849, 6.6147 4.07294, 6.70401 4.28787, 6.77811 4.50232, 6.83699 4.71627 Z M 5.74514 4.89686 C 5.72354 4.69321, 5.69656 4.50232, 5.66417 4.32419, 5.63178 4.14655, 5.58467 3.99197, 5.52284 3.86094, 5.46101 3.73041, 5.38151 3.62932, 5.28435 3.55866, 5.18718 3.488, 5.06352 3.45266, 4.91238 3.45217, 4.59979 3.45266, 4.31124 3.59792, 4.04724 3.88842, 3.78323 4.17893, 3.52707 4.52587, 3.27876 4.92827, 2.92299 5.50437, 2.64819 6.09619, 2.45386 6.70321, 2.25953 7.31072, 2.09269 7.89665, 1.95234 8.46147 L 5.24362 8.46147 C 5.38936 7.87064, 5.52431 7.26852, 5.64797 6.65561, 5.73434 6.24242, 5.77752 5.83414, 5.77752 5.43077, 5.77752 5.25312, 5.76673 5.07548, 5.74514 4.89686 Z M 1.78255 9.09745 C 1.6373 9.68926, 1.5102 10.286, 1.40224 10.8876, 1.31636 11.3224, 1.27318 11.7572, 1.27318 12.191, 1.27318 12.3539, 1.27858 12.5109, 1.28937 12.6621, 1.30017 12.8667, 1.32471 13.0581, 1.362 13.2357, 1.39979 13.4138, 1.44984 13.5669, 1.51167 13.695, 1.5735 13.8236, 1.65594 13.9227, 1.75851 13.9934, 1.86107 14.064, 1.98522 14.0994, 2.13047 14.0989, 2.43767 14.0994, 2.72474 13.9556, 2.99169 13.6675, 3.25864 13.38, 3.51039 13.034, 3.7479 12.6306, 4.10367 12.0447, 4.37847 11.451, 4.5728 10.8488, 4.76713 10.2472, 4.93397 9.66325, 5.07383 9.09745 Z" stroke="none" fill="#000000" />
			<rect />
		</svg>
	</g>
	<path d="M -54.0254 -63.0306 L 54.0254 63.0305" fill="none" stroke="#000000" stroke-width="3.4666667" stroke-linecap="round" stroke-linejoin="round" marker-end="url(#CustomMarker-01)" transform="matrix(0.384615 0 0 0.384615 120.173 46.2732)" />
	<path d="M 9.15527e-005 -76.4969 L 0 76.4966" fill="none" stroke="#000000" stroke-width="3.4666667" stroke-linecap="round" stroke-linejoin="round" marker-end="url(#CustomMarker-02)" transform="matrix(0.384615 0 0 0.384615 99.4079 51.5604)" />
	<path d="M 37.4403 -32.0908 L -37.4404 32.0911" fill="none" stroke="#000000" stroke-width="3.4666667" stroke-linecap="round" stroke-linejoin="round" marker-end="url(#CustomMarker-03)" transform="matrix(0.384615 0 0 0.384615 84.9944 34.4935)" />
	<path d="M 0 0 L 76.6416 -65.6908" fill="none" stroke="#000000" stroke-opacity="0.494117618" stroke-width="3.4666667" stroke-linecap="round" stroke-linejoin="round" stroke-dasharray="12.1507, 8.64933" transform="matrix(0.384615 0 0 0.384615 99.4079 79.7321)" />
	<path d="M 0 0 L -73.3089 -85.5294" fill="none" stroke="#000000" stroke-opacity="0.494117618" stroke-width="3.4666667" stroke-linecap="round" stroke-linejoin="round" stroke-dasharray="12.1507, 8.64933" transform="matrix(0.384615 0 0 0.384615 99.4079 79.7321)" />
	<path d="M -38.3459 -44.8383 L 38.3462 44.8383" fill="none" stroke="#000000" stroke-width="3.4666667" stroke-linecap="round" stroke-linejoin="round" marker-end="url(#CustomMarker-04)" transform="matrix(0.384615 0 0 0.384615 114.137 39.3616)" />
	<g transform="matrix(1 0 -0 1 85.3592 77.2259)">
		<svg width="75.040184" height="41.9571342">
			<defs />
			<path d="M 14.8485 14.0762 C 14.7735 14.4003, 14.6607 14.738, 14.5096 15.089, 14.3584 15.4405, 14.1775 15.7594, 13.9668 16.0462, 13.7562 16.3336, 13.5094 16.5729, 13.2266 16.7647, 12.9438 16.9571, 12.6163 17.0533, 12.2453 17.0533, 11.931 17.0533, 11.6608 16.9863, 11.4341 16.8518, 11.2079 16.7178, 11.0367 16.5409, 10.9199 16.321, 10.8037 16.1012, 10.739 15.8447, 10.7264 15.551 L 10.7264 15.4777 C 10.7264 15.2155, 10.7803 14.9499, 10.8867 14.6808, 11.0946 14.1438, 11.2864 13.6096, 11.4627 13.0783, 11.639 12.5471, 11.7993 12.0129, 11.9436 11.4747, 12.0444 11.1209, 12.1131 10.7763, 12.1508 10.4396, 12.1634 10.3549, 12.1697 10.2633, 12.1697 10.1648, 12.1697 9.95187, 12.1383 9.75034, 12.0753 9.56027, 11.9625 9.17612, 11.7238 8.98375, 11.3585 8.98318, 10.7173 8.98375, 10.1637 9.20531, 9.69821 9.64786, 9.23334 10.091, 8.82743 10.6784, 8.48163 11.4106, 8.28698 12.2419, 8.07916 13.0709, 7.85931 13.8982, 7.63947 14.726, 7.42192 15.5516, 7.2078 16.3754, 7.15169 16.6021, 7.03547 16.771, 6.85914 16.8838, 6.68281 16.9972, 6.50991 17.0533, 6.34044 17.0533, 6.15839 17.0533, 6.00724 16.9926, 5.88759 16.8701, 5.80572 16.7911, 5.76164 16.6811, 5.75534 16.5403, 5.75534 16.4739, 5.76164 16.4063, 5.77423 16.3388 L 7.03833 11.4747 C 7.1391 11.1209, 7.2078 10.7763, 7.24558 10.4396 L 7.24558 10.1648 C 7.24558 9.94557, 7.22039 9.74405, 7.17001 9.56027, 7.05723 9.17612, 6.81849 8.98375, 6.45323 8.98318, 5.81202 8.98375, 5.25897 9.20531, 4.79352 9.64786, 4.32807 10.091, 3.9193 10.6784, 3.56663 11.4106 L 2.27448 16.3754 C 2.21837 16.6021, 2.1033 16.771, 1.9304 16.8838, 1.7575 16.9972, 1.58289 17.0533, 1.40656 17.0533, 1.2182 17.0533, 1.07335 16.9926, 0.972593 16.8701, 0.891296 16.7911, 0.850076 16.6811, 0.850076 16.5403, 0.850076 16.4859, 0.856373 16.4189, 0.868969 16.3388 L 2.32143 10.6686 C 2.42219 10.2725, 2.47257 9.93011, 2.47257 9.64271 L 2.47257 9.42287 C 2.44165 9.13032, 2.29395 8.98375, 2.02945 8.98318, 1.75292 8.98375, 1.52163 9.20703, 1.33614 9.65244, 1.15064 10.0984, 0.96973 10.6784, 0.793397 11.3923, 0.724696 11.5578, 0.608477 11.6431, 0.444739 11.6488 L 0.227758 11.6488 C 0.076615 11.6494, 0.00104374 11.5732, 0.00104374 11.4198 L 0.00104374 11.3557 C 0.076615 11.0694, 0.161919 10.7562, 0.255811 10.4173, 0.350275 10.0784, 0.476227 9.75779, 0.633094 9.4555, 0.790535 9.15322, 0.988623 8.89673, 1.22736 8.68605, 1.46667 8.47536, 1.76495 8.37002, 2.12334 8.36945, 2.63974 8.37002, 3.04508 8.52575, 3.34049 8.83719, 3.63591 9.14864, 3.78991 9.45092, 3.80251 9.74347, 4.06701 9.39596, 4.43456 9.07994, 4.90631 8.79597, 5.37806 8.512, 5.92537 8.37002, 6.54769 8.36945, 6.93127 8.37002, 7.28394 8.43872, 7.60455 8.57613, 7.92515 8.71353, 8.17362 8.93509, 8.34938 9.23967, 8.50052 9.50302, 8.58182 9.72286, 8.59441 9.8992, 8.87151 9.50874, 9.25509 9.15665, 9.74573 8.84177, 10.2364 8.52746, 10.8117 8.37002, 11.4718 8.36945, 11.8428 8.37002, 12.1886 8.43872, 12.5092 8.57613, 12.8298 8.71353, 13.0817 8.93509, 13.2638 9.23967, 13.4527 9.55168, 13.5443 9.90263, 13.5375 10.2931 L 13.5375 10.3389 C 13.5249 10.7305, 13.4688 11.1244, 13.368 11.5205, 13.2237 12.077, 13.0571 12.6238, 12.8682 13.1608, 12.6793 13.6984, 12.4812 14.2417, 12.2734 14.7907, 12.085 15.2859, 11.9905 15.701, 11.9905 16.0365, 11.9905 16.3119, 12.1102 16.4493, 12.3489 16.4487, 12.5631 16.4493, 12.756 16.3852, 12.9289 16.2569, 13.1018 16.1287, 13.2592 15.9563, 13.4006 15.7394, 13.5426 15.523, 13.6697 15.2665, 13.7831 14.9699, 13.8964 14.6739, 13.9966 14.3608, 14.0848 14.0304, 14.1226 13.8724, 14.2325 13.7928, 14.4145 13.7923 L 14.6224 13.7923 C 14.6916 13.7928, 14.7638 13.814, 14.8394 13.8564, 14.8645 13.9119, 14.8771 13.9577, 14.8771 13.9938, 14.8771 14.019, 14.868 14.0465, 14.8485 14.0762 Z" stroke="none" fill="#000000" />
			<path d="M 21.679 17.9876 C 21.5725 18.3849, 21.3882 18.7513, 21.1271 19.0868, 20.866 19.4229, 20.5626 19.7097, 20.2168 19.9479, 19.871 20.1861, 19.4909 20.3727, 19.0758 20.5067, 18.6607 20.6412, 18.2457 20.7082, 17.83 20.7082, 17.5472 20.7082, 17.2455 20.6962, 16.9249 20.6715, 16.6043 20.6475, 16.3134 20.588, 16.0524 20.4929, 15.7913 20.3985, 15.5949 20.2502, 15.4627 20.0486, 15.3619 19.9267, 15.3087 19.771, 15.3024 19.5815, 15.3024 19.4899, 15.315 19.3834, 15.3402 19.2609, 15.4094 18.9861, 15.5509 18.7817, 15.7644 18.6471, 15.9785 18.5132, 16.1921 18.4456, 16.4056 18.4456, 16.626 18.4456, 16.8087 18.516, 16.9529 18.6563, 17.06 18.7605, 17.1132 18.8945, 17.1132 19.0594, 17.1132 19.1269, 17.1006 19.2059, 17.0754 19.2975, 17.0319 19.4933, 16.9501 19.6536, 16.8304 19.7784, 16.7113 19.9038, 16.6449 19.9662, 16.6323 19.9662, 16.6701 19.9845, 16.8167 20.0109, 17.0709 20.0441, 17.3256 20.0778, 17.6136 20.0944, 17.9342 20.0944, 18.1918 20.0944, 18.442 20.0383, 18.6842 19.925, 18.9264 19.8122, 19.1514 19.6548, 19.3586 19.4532, 19.5659 19.2517, 19.7485 19.0227, 19.9054 18.7662, 20.0628 18.5097, 20.179 18.2384, 20.2546 17.951 L 20.7544 15.9907 C 20.6101 16.1315, 20.3519 16.309, 19.9809 16.5226, 19.6099 16.7367, 19.2235 16.8426, 18.8205 16.8426, 18.3367 16.8426, 17.9205 16.7229, 17.5712 16.4813, 17.222 16.2403, 16.9529 15.93, 16.764 15.551, 16.5379 15.1119, 16.4182 14.6356, 16.4056 14.122 L 16.4056 14.0121 C 16.4056 13.5426, 16.4686 13.0663, 16.5945 12.5831, 16.7268 12.0461, 16.9312 11.5291, 17.2077 11.031, 17.4848 10.5335, 17.846 10.0675, 18.2926 9.63355, 18.6573 9.26772, 19.0706 8.96543, 19.5327 8.72727, 19.9952 8.4891, 20.4653 8.37002, 20.9433 8.36945, 21.3521 8.37002, 21.6922 8.4788, 21.9624 8.69521, 22.2326 8.91219, 22.4055 9.09367, 22.4805 9.23967 L 22.4336 9.41371 C 22.4902 9.18814, 22.6047 9.02039, 22.7776 8.91047, 22.9505 8.80055, 23.1252 8.74559, 23.3015 8.74502, 23.4841 8.74559, 23.6353 8.80341, 23.7543 8.91906, 23.8362 8.99921, 23.8769 9.10913, 23.8769 9.24883, 23.8769 9.31638, 23.8706 9.38394, 23.858 9.45035 Z M 22.1221 10.6412 C 22.1095 10.5255, 22.0906 10.4127, 22.0654 10.3028, 22.0403 10.1929, 22.0122 10.083, 21.9807 9.97248, 21.8799 9.68622, 21.7368 9.44978, 21.5513 9.26314, 21.3658 9.07707, 21.1317 8.98375, 20.8489 8.98318, 20.5849 8.98375, 20.3239 9.07879, 20.0662 9.26772, 19.8086 9.45722, 19.5727 9.69538, 19.3586 9.98164, 19.0695 10.379, 18.8497 10.802, 18.6985 11.2509, 18.5474 11.6997, 18.406 12.156, 18.2737 12.6198, 18.1604 13.0967, 18.063 13.561, 17.9812 14.0121, 17.9308 14.2325, 17.9056 14.4461, 17.9056 14.6533, 17.9056 14.8737, 17.9308 15.0844, 17.9812 15.2854, 18.0378 15.5607, 18.1449 15.7897, 18.3018 15.973, 18.4592 16.1562, 18.6699 16.2478, 18.9338 16.2472, 19.2235 16.2478, 19.5126 16.1487, 19.8017 15.9501, 20.0914 15.752, 20.3617 15.5121, 20.613 15.2304, 20.7956 15.0174, 20.9685 14.785, 21.1317 14.5342 L 22.1221 10.6412 Z" stroke="none" fill="#000000" />
			<rect />
		</svg>
	</g>
	<g transform="matrix(1 0 -0 1 9.17222 23.286)">
		<svg width="189.018051" height="56.9999886">
			<defs />
			<path d="M 14.8519 14.0762 C 14.7764 14.4003, 14.6636 14.738, 14.5124 15.089, 14.3613 15.4405, 14.1804 15.7594, 13.9697 16.0462, 13.759 16.3336, 13.5123 16.5729, 13.2295 16.7647, 12.9466 16.9571, 12.6192 17.0533, 12.2476 17.0533, 11.9333 17.0533, 11.6631 16.9863, 11.4364 16.8518, 11.2102 16.7178, 11.039 16.5409, 10.9222 16.321, 10.806 16.1012, 10.7413 15.8447, 10.7287 15.551 L 10.7287 15.4777 C 10.7287 15.2155, 10.7825 14.9499, 10.889 14.6808, 11.0969 14.1438, 11.2886 13.6096, 11.465 13.0783, 11.6413 12.5471, 11.8016 12.0129, 11.9459 11.4747, 12.0466 11.1209, 12.1159 10.7763, 12.1537 10.4396, 12.1663 10.3549, 12.1726 10.2633, 12.1726 10.1648, 12.1726 9.95187, 12.1411 9.75034, 12.0781 9.56027, 11.9648 9.17612, 11.726 8.98375, 11.3608 8.98318, 10.7196 8.98375, 10.166 9.20531, 9.7005 9.64786, 9.23505 10.091, 8.82914 10.6784, 8.48335 11.4106, 8.28869 12.2419, 8.08087 13.0709, 7.86046 13.8982, 7.64061 14.726, 7.42363 15.5516, 7.20951 16.3754, 7.15341 16.6021, 7.03719 16.771, 6.86086 16.8838, 6.68452 16.9972, 6.51162 17.0533, 6.34159 17.0533, 6.15953 17.0533, 6.00839 16.9926, 5.88873 16.8701, 5.80744 16.7911, 5.76335 16.6811, 5.75648 16.5403, 5.75648 16.4739, 5.76278 16.4063, 5.77538 16.3388 L 7.03948 11.4747 C 7.14024 11.1209, 7.20951 10.7763, 7.2473 10.4396 L 7.2473 10.1648 C 7.2473 9.94557, 7.22211 9.74405, 7.17173 9.56027, 7.05894 9.17612, 6.82021 8.98375, 6.45495 8.98318, 5.81374 8.98375, 5.26012 9.20531, 4.79467 9.64786, 4.32922 10.091, 3.92045 10.6784, 3.56778 11.4106 L 2.27505 16.3754 C 2.21895 16.6021, 2.10387 16.771, 1.93097 16.8838, 1.75808 16.9972, 1.58346 17.0533, 1.40713 17.0533, 1.21877 17.0533, 1.07393 16.9926, 0.973165 16.8701, 0.891869 16.7911, 0.850648 16.6811, 0.850648 16.5403, 0.850648 16.4859, 0.856946 16.4189, 0.869541 16.3388 L 2.322 10.6686 C 2.42276 10.2725, 2.47314 9.93011, 2.47314 9.64271 L 2.47314 9.42287 C 2.44223 9.13032, 2.29452 8.98375, 2.03002 8.98318, 1.75292 8.98375, 1.52163 9.20703, 1.33614 9.65244, 1.15064 10.0984, 0.970303 10.6784, 0.79397 11.3923, 0.724696 11.5578, 0.608477 11.6431, 0.444739 11.6488 L 0.227758 11.6488 C 0.076615 11.6494, 0.00104374 11.5732, 0.00104374 11.4198 L 0.00104374 11.3557 C 0.076615 11.0694, 0.161919 10.7562, 0.256383 10.4173, 0.350847 10.0784, 0.476799 9.75779, 0.633667 9.4555, 0.791107 9.15322, 0.989196 8.89673, 1.22793 8.68605, 1.46724 8.47536, 1.76552 8.37002, 2.12391 8.36945, 2.64031 8.37002, 3.04622 8.52575, 3.34164 8.83719, 3.63705 9.14864, 3.79106 9.45092, 3.80365 9.74347, 4.06815 9.39596, 4.4357 9.07994, 4.90745 8.79597, 5.3792 8.512, 5.92652 8.37002, 6.54884 8.36945, 6.93299 8.37002, 7.28566 8.43872, 7.60626 8.57613, 7.92687 8.71353, 8.17534 8.93509, 8.3511 9.23967, 8.50224 9.50302, 8.58411 9.72286, 8.5967 9.8992, 8.8738 9.50874, 9.25738 9.15665, 9.74802 8.84177, 10.2387 8.52746, 10.814 8.37002, 11.4741 8.36945, 11.8451 8.37002, 12.1915 8.43872, 12.5121 8.57613, 12.8327 8.71353, 13.0846 8.93509, 13.2667 9.23967, 13.4556 9.55168, 13.5472 9.90263, 13.5403 10.2931 L 13.5403 10.3389 C 13.5277 10.7305, 13.4716 11.1244, 13.3709 11.5205, 13.226 12.077, 13.0594 12.6238, 12.8705 13.1608, 12.6821 13.6984, 12.484 14.2417, 12.2762 14.7907, 12.0873 15.2859, 11.9928 15.701, 11.9928 16.0365, 11.9928 16.3119, 12.1125 16.4493, 12.3518 16.4487, 12.5659 16.4493, 12.7589 16.3852, 12.9317 16.2569, 13.1046 16.1287, 13.2621 15.9563, 13.4035 15.7394, 13.5455 15.523, 13.6726 15.2665, 13.7859 14.9699, 13.8993 14.6739, 13.9995 14.3608, 14.0876 14.0304, 14.1254 13.8724, 14.2359 13.7928, 14.418 13.7923 L 14.6252 13.7923 C 14.6951 13.7928, 14.7672 13.814, 14.8422 13.8564, 14.8674 13.9119, 14.88 13.9577, 14.88 13.9938, 14.88 14.019, 14.8708 14.0465, 14.8519 14.0762 Z" stroke="none" fill="#000000" />
			<path d="M 21.6768 17.9876 C 21.5703 18.3849, 21.386 18.7513, 21.1249 19.0868, 20.8638 19.4229, 20.5604 19.7097, 20.2146 19.9479, 19.8688 20.1861, 19.4887 20.3727, 19.0736 20.5067, 18.6585 20.6412, 18.2435 20.7082, 17.8278 20.7082, 17.545 20.7082, 17.2433 20.6962, 16.9227 20.6715, 16.6021 20.6475, 16.3112 20.588, 16.0502 20.4929, 15.7891 20.3985, 15.5927 20.2502, 15.4605 20.0486, 15.3597 19.9267, 15.3065 19.771, 15.3002 19.5815, 15.3002 19.4899, 15.3128 19.3834, 15.338 19.2609, 15.4072 18.9861, 15.5487 18.7817, 15.7622 18.6471, 15.9763 18.5132, 16.1899 18.4456, 16.4034 18.4456, 16.6238 18.4456, 16.8065 18.516, 16.9507 18.6563, 17.0578 18.7605, 17.111 18.8945, 17.111 19.0594, 17.111 19.1269, 17.0984 19.2059, 17.0732 19.2975, 17.0297 19.4933, 16.9479 19.6536, 16.8282 19.7784, 16.7091 19.9038, 16.6427 19.9662, 16.6301 19.9662, 16.6679 19.9845, 16.8145 20.0109, 17.0687 20.0441, 17.3234 20.0778, 17.6114 20.0944, 17.932 20.0944, 18.1896 20.0944, 18.4398 20.0383, 18.682 19.925, 18.9242 19.8122, 19.1492 19.6548, 19.3564 19.4532, 19.5637 19.2517, 19.7463 19.0227, 19.9032 18.7662, 20.0606 18.5097, 20.1768 18.2384, 20.2524 17.951 L 20.7522 15.9907 C 20.6079 16.1315, 20.3497 16.309, 19.9787 16.5226, 19.6077 16.7367, 19.2213 16.8426, 18.8183 16.8426, 18.3345 16.8426, 17.9183 16.7229, 17.569 16.4813, 17.2198 16.2403, 16.9507 15.93, 16.7618 15.551, 16.5357 15.1119, 16.416 14.6356, 16.4034 14.122 L 16.4034 14.0121 C 16.4034 13.5426, 16.4664 13.0663, 16.5923 12.5831, 16.7246 12.0461, 16.929 11.5291, 17.2055 11.031, 17.4826 10.5335, 17.8438 10.0675, 18.2904 9.63355, 18.6551 9.26772, 19.0684 8.96543, 19.5305 8.72727, 19.993 8.4891, 20.4631 8.37002, 20.9411 8.36945, 21.3499 8.37002, 21.69 8.4788, 21.9602 8.69521, 22.2304 8.91219, 22.4033 9.09367, 22.4783 9.23967 L 22.4314 9.41371 C 22.488 9.18814, 22.6025 9.02039, 22.7754 8.91047, 22.9483 8.80055, 23.123 8.74559, 23.2993 8.74502, 23.4819 8.74559, 23.6331 8.80341, 23.7521 8.91906, 23.834 8.99921, 23.8747 9.10913, 23.8747 9.24883, 23.8747 9.31638, 23.8684 9.38394, 23.8558 9.45035 Z M 22.1199 10.6412 C 22.1073 10.5255, 22.0884 10.4127, 22.0632 10.3028, 22.0381 10.1929, 22.01 10.083, 21.9785 9.97248, 21.8777 9.68622, 21.7346 9.44978, 21.5491 9.26314, 21.3636 9.07707, 21.1295 8.98375, 20.8467 8.98318, 20.5827 8.98375, 20.3217 9.07879, 20.064 9.26772, 19.8064 9.45722, 19.5705 9.69538, 19.3564 9.98164, 19.0673 10.379, 18.8475 10.802, 18.6963 11.2509, 18.5452 11.6997, 18.4038 12.156, 18.2715 12.6198, 18.1582 13.0967, 18.0608 13.561, 17.979 14.0121, 17.9286 14.2325, 17.9034 14.4461, 17.9034 14.6533, 17.9034 14.8737, 17.9286 15.0844, 17.979 15.2854, 18.0356 15.5607, 18.1427 15.7897, 18.2996 15.973, 18.457 16.1562, 18.6677 16.2478, 18.9316 16.2472, 19.2213 16.2478, 19.5104 16.1487, 19.7995 15.9501, 20.0892 15.752, 20.3595 15.5121, 20.6108 15.2304, 20.7934 15.0174, 20.9663 14.785, 21.1295 14.5342 L 22.1199 10.6412 Z" stroke="none" fill="#000000" />
			<path d="M 33.8769 14.3144 C 33.8769 14.6877, 33.8111 15.0524, 33.6788 15.4096, 33.5471 15.7668, 33.3239 16.0766, 33.009 16.3388, 32.6695 16.6079, 32.2939 16.7911, 31.8817 16.8884, 31.4695 16.9863, 31.0527 17.035, 30.6314 17.035, 30.1665 17.035, 29.7606 16.9588, 29.4148 16.806, 29.069 16.6537, 28.7856 16.4676, 28.5652 16.2472 L 27.9612 16.9434 C 27.9108 16.9983, 27.8358 17.0292, 27.735 17.035 L 27.6784 17.035 C 27.4894 17.035, 27.395 16.9405, 27.395 16.751 L 27.395 13.7281 C 27.395 13.5942, 27.4677 13.5089, 27.6125 13.4717, 27.6566 13.4602, 27.6972 13.4539, 27.735 13.4533, 27.7854 13.4539, 27.8329 13.4631, 27.8764 13.4808, 27.9709 13.518, 28.0339 13.5821, 28.0654 13.6732, 28.2291 14.5102, 28.5085 15.1795, 28.9047 15.6798, 29.3008 16.1808, 29.8768 16.431, 30.6314 16.4304, 30.9336 16.431, 31.2262 16.4023, 31.509 16.3439, 31.7918 16.2861, 32.0374 16.1716, 32.2447 15.9999, 32.4147 15.8602, 32.5407 15.6878, 32.6225 15.4829, 32.7044 15.2785, 32.7451 15.0569, 32.7451 14.8182, 32.7451 14.4277, 32.5911 14.094, 32.283 13.8157, 31.975 13.5381, 31.5943 13.3531, 31.1409 13.261 L 29.839 12.9953 C 29.5247 12.9346, 29.2213 12.839, 28.9287 12.7074, 28.6362 12.5763, 28.378 12.4142, 28.1547 12.2219, 27.9314 12.0295, 27.7493 11.8022, 27.6074 11.5394, 27.4659 11.2772, 27.395 10.987, 27.395 10.6686, 27.395 10.3211, 27.4694 9.98679, 27.6171 9.66618, 27.7648 9.34558, 27.9869 9.08165, 28.2823 8.87326, 28.6281 8.61734, 29.0089 8.45132, 29.4239 8.3746, 29.839 8.29846, 30.2415 8.2601, 30.6314 8.25953, 31.3487 8.2601, 31.9275 8.42498, 32.3672 8.75418 L 32.8578 8.31449 C 32.9334 8.27842, 32.9964 8.2601, 33.0468 8.25953 L 33.1126 8.25953 C 33.3015 8.2601, 33.396 8.3454, 33.396 8.51601 L 33.396 10.9526 C 33.396 11.1364, 33.3015 11.2309, 33.1126 11.2366 L 33.009 11.2366 C 32.8206 11.2372, 32.7262 11.1427, 32.7262 10.9526, 32.7262 10.2874, 32.5453 9.76122, 32.1834 9.37306, 31.8216 8.98547, 31.3046 8.79139, 30.6314 8.79082, 30.3422 8.79139, 30.0577 8.81601, 29.7777 8.86467, 29.4978 8.91391, 29.2476 9.01409, 29.0278 9.16638, 28.6946 9.3868, 28.5274 9.7137, 28.5274 10.1465, 28.5274 10.4648, 28.6722 10.7368, 28.9613 10.9623, 29.251 11.1885, 29.6157 11.3442, 30.056 11.4289 L 31.3487 11.6671 C 31.6882 11.7289, 32.0122 11.8389, 32.3203 11.9974, 32.6288 12.1566, 32.8979 12.3472, 33.1275 12.57, 33.3571 12.7932, 33.5391 13.0554, 33.6742 13.3577, 33.8094 13.66, 33.8769 13.9789, 33.8769 14.3144 Z" stroke="none" fill="#000000" />
			<path d="M 37.8959 5.15423 C 37.8959 5.45423, 37.7859 5.71071, 37.5661 5.92426, 37.3463 6.13838, 37.0818 6.24486, 36.7732 6.24429, 36.4652 6.24486, 36.2029 6.13838, 35.986 5.92426, 35.769 5.71071, 35.6602 5.45423, 35.6602 5.15423, 35.6602 4.85538, 35.769 4.60062, 35.986 4.38993, 36.2029 4.17925, 36.4652 4.07391, 36.7732 4.07333, 37.0818 4.07391, 37.3463 4.17925, 37.5661 4.38993, 37.7859 4.60062, 37.8959 4.85538, 37.8959 5.15423 Z M 39.1697 16.8334 C 38.4151 16.7911, 37.6886 16.7693, 36.9902 16.7693, 36.3049 16.7693, 35.5846 16.7911, 34.8301 16.8334 L 34.8301 16.064 C 35.1129 16.0646, 35.3722 16.06, 35.6081 16.0508, 35.844 16.0417, 36.022 16.0096, 36.1411 15.9541, 36.2167 15.918, 36.2671 15.8556, 36.2923 15.7668, 36.3175 15.6787, 36.33 15.5819, 36.33 15.4777 L 36.33 10.2748 C 36.33 10.1042, 36.3226 9.949, 36.3066 9.80817, 36.2905 9.6679, 36.2356 9.55454, 36.1411 9.46867, 36.0346 9.39596, 35.8726 9.35359, 35.6556 9.341, 35.4386 9.32897, 35.1885 9.32268, 34.9051 9.3221 L 34.9051 8.56181, 37.8111 8.34197, 37.8111 15.4777 C 37.8111 15.5819, 37.8209 15.6787, 37.8398 15.7668, 37.8587 15.8556, 37.9056 15.918, 37.9812 15.9541, 38.0819 16.0096, 38.2405 16.0417, 38.4575 16.0508, 38.675 16.06, 38.9121 16.0646, 39.1697 16.064 L 39.1697 16.8334 Z" stroke="none" fill="#000000" />
			<path d="M 49.9155 16.8334 C 49.1169 16.7911, 48.3554 16.7693, 47.6318 16.7693, 46.8961 16.7693, 46.1444 16.7911, 45.3772 16.8334 L 45.3772 16.064 C 45.6601 16.0646, 45.9194 16.06, 46.1553 16.0508, 46.3911 16.0417, 46.5692 16.0096, 46.6883 15.9541, 46.7581 15.918, 46.8039 15.8556, 46.8257 15.7668, 46.8474 15.6787, 46.8583 15.5819, 46.8583 15.4777 L 46.8583 11.0076 C 46.8583 10.703, 46.8429 10.4127, 46.8114 10.1379, 46.7799 9.86313, 46.6917 9.61294, 46.5469 9.38623, 46.4587 9.24024, 46.3282 9.13375, 46.1553 9.06619, 45.9824 8.99921, 45.7986 8.96543, 45.6034 8.96486, 45.245 8.96543, 44.9101 9.04043, 44.5986 9.18985, 44.2872 9.33985, 44.0215 9.54138, 43.8017 9.79443, 43.5818 10.048, 43.4055 10.3458, 43.2733 10.6875, 43.1416 11.0299, 43.0752 11.3866, 43.0752 11.7587 L 43.0752 15.4777 C 43.0752 15.5819, 43.0878 15.6787, 43.113 15.7668, 43.1381 15.8556, 43.188 15.918, 43.2635 15.9541, 43.3832 16.0096, 43.5624 16.0417, 43.8017 16.0508, 44.041 16.06, 44.2986 16.0646, 44.5751 16.064 L 44.5751 16.8243 C 44.2545 16.8123, 43.9586 16.8031, 43.6883 16.7968, 43.4181 16.7911, 43.1536 16.7819, 42.8954 16.7693 L 42.3011 16.7693 C 41.5655 16.7693, 40.8138 16.7911, 40.0466 16.8334 L 40.0466 16.064 C 40.3294 16.0646, 40.5888 16.06, 40.8246 16.0508, 41.0605 16.0417, 41.2386 16.0096, 41.3576 15.9541, 41.4332 15.918, 41.4836 15.8556, 41.5088 15.7668, 41.534 15.6787, 41.5466 15.5819, 41.5466 15.4777 L 41.5466 10.2748 C 41.5466 10.1042, 41.5391 9.949, 41.5231 9.80817, 41.5071 9.6679, 41.4458 9.55454, 41.3387 9.46867, 41.2323 9.39596, 41.0594 9.35359, 40.8201 9.341, 40.5813 9.32897, 40.3237 9.32268, 40.0466 9.3221 L 40.0466 8.56181, 41.6691 8.44273, 42.971 8.34197, 42.971 9.91751 C 43.0906 9.63698, 43.3975 9.30607, 43.891 8.92421, 44.3851 8.54292, 44.9685 8.3517, 45.6412 8.35113, 45.9938 8.3517, 46.3568 8.39292, 46.7312 8.47536, 47.1056 8.5578, 47.4343 8.73643, 47.7171 9.01123, 47.9999 9.28604, 48.1854 9.60206, 48.2736 9.95931, 48.3617 10.3166, 48.4058 10.6664, 48.4058 11.0076 L 48.4058 15.4777 C 48.4058 15.5819, 48.4184 15.6787, 48.4436 15.7668, 48.4688 15.8556, 48.5192 15.918, 48.5942 15.9541, 48.7138 16.0096, 48.893 16.0417, 49.1323 16.0508, 49.3716 16.06, 49.6327 16.0646, 49.9155 16.064 L 49.9155 16.8334 Z" stroke="none" fill="#000000" />
			<path d="M 60.7783 5.50232 C 60.9294 6.08285, 61.0044 6.67539, 61.0044 7.27939, 61.0044 7.46947, 60.9981 7.65267, 60.9855 7.829, 60.9225 8.63567, 60.7874 9.44462, 60.5802 10.2564, 60.354 11.0751, 60.0678 11.8864, 59.722 12.689, 59.3762 13.4923, 58.917 14.2629, 58.3445 15.0014, 58.1499 15.2522, 57.934 15.5001, 57.6982 15.7439, 57.4623 15.9884, 57.2092 16.2065, 56.939 16.3989, 56.6688 16.5913, 56.3871 16.7487, 56.0946 16.8701, 55.8026 16.9926, 55.4957 17.0533, 55.1751 17.0533, 54.8482 17.0533, 54.5665 16.9909, 54.3307 16.8655, 54.0948 16.7407, 53.8921 16.5792, 53.7221 16.3806, 53.5526 16.1825, 53.4124 15.9609, 53.3024 15.7165, 53.1925 15.4726, 53.1032 15.2218, 53.0334 14.9648, 52.8765 14.3974, 52.7981 13.8112, 52.7981 13.206, 52.7981 13.0114, 52.8107 12.819, 52.8353 12.6289, 52.8857 11.8354, 53.0213 11.0328, 53.2412 10.2198, 53.449 9.40226, 53.729 8.5933, 54.0811 7.79293, 54.4331 6.99314, 54.9015 6.22025, 55.486 5.47484, 55.6812 5.22523, 55.8953 4.97618, 56.1278 4.72886, 56.3602 4.48154, 56.6087 4.26169, 56.8726 4.06933, 57.1371 3.87697, 57.4154 3.7201, 57.7079 3.59758, 58.0005 3.47564, 58.3102 3.41438, 58.6371 3.41381, 58.964 3.41438, 59.2439 3.47735, 59.4764 3.60216, 59.7094 3.72754, 59.9155 3.88784, 60.0947 4.08307, 60.2739 4.27887, 60.4153 4.50157, 60.5189 4.75176, 60.6226 5.00252, 60.709 5.25271, 60.7783 5.50232 Z M 59.5044 5.71301 C 59.4792 5.47541, 59.4483 5.25271, 59.4105 5.04489, 59.3728 4.83764, 59.3178 4.6573, 59.2457 4.50444, 59.1735 4.35215, 59.0808 4.23421, 58.9674 4.15177, 58.8541 4.06933, 58.7092 4.02811, 58.5329 4.02754, 58.1688 4.02811, 57.8321 4.19757, 57.5241 4.5365, 57.2161 4.87542, 56.9173 5.28019, 56.6276 5.74965, 56.2131 6.42177, 55.8925 7.11222, 55.6658 7.82041, 55.439 8.52918, 55.2444 9.21276, 55.0807 9.87172 L 58.9199 9.87172 C 59.0899 9.18241, 59.2474 8.47994, 59.3917 7.76488, 59.4924 7.28283, 59.5422 6.8065, 59.5422 6.3359, 59.5422 6.12865, 59.5296 5.9214, 59.5044 5.71301 Z M 54.8826 10.6137 C 54.7131 11.3041, 54.5648 12.0003, 54.4389 12.7022, 54.3387 13.2094, 54.2883 13.7167, 54.2883 14.2228, 54.2883 14.4129, 54.2946 14.5961, 54.3072 14.7724, 54.3198 15.0111, 54.3484 15.2344, 54.3919 15.4417, 54.436 15.6495, 54.4944 15.8281, 54.5665 15.9775, 54.6387 16.1275, 54.7349 16.2432, 54.8545 16.3256, 54.9742 16.4081, 55.1184 16.4493, 55.2879 16.4487, 55.6469 16.4493, 55.9818 16.2815, 56.2932 15.9455, 56.6047 15.61, 56.8984 15.2064, 57.1749 14.7358, 57.59 14.0522, 57.9106 13.3594, 58.1367 12.657, 58.3634 11.9551, 58.5581 11.2738, 58.7218 10.6137 Z" stroke="none" fill="#000000" />
			<rect />
		</svg>
	</g>
	<g transform="matrix(1 0 -0 1 125.039 23.4435)">
		<svg width="195.064285" height="56.9999886">
			<defs />
			<path d="M 14.8519 14.0762 C 14.7764 14.4003, 14.6636 14.738, 14.5124 15.089, 14.3613 15.4405, 14.1804 15.7594, 13.9697 16.0462, 13.759 16.3336, 13.5123 16.5729, 13.2295 16.7647, 12.9466 16.9571, 12.6192 17.0533, 12.2476 17.0533, 11.9333 17.0533, 11.6631 16.9863, 11.4364 16.8518, 11.2102 16.7178, 11.039 16.5409, 10.9222 16.321, 10.806 16.1012, 10.7413 15.8447, 10.7287 15.551 L 10.7287 15.4777 C 10.7287 15.2155, 10.7825 14.9499, 10.889 14.6808, 11.0969 14.1438, 11.2886 13.6096, 11.465 13.0783, 11.6413 12.5471, 11.8016 12.0129, 11.9459 11.4747, 12.0466 11.1209, 12.1159 10.7763, 12.1537 10.4396, 12.1663 10.3549, 12.1726 10.2633, 12.1726 10.1648, 12.1726 9.95187, 12.1411 9.75034, 12.0781 9.56027, 11.9648 9.17612, 11.726 8.98375, 11.3608 8.98318, 10.7196 8.98375, 10.166 9.20531, 9.7005 9.64786, 9.23505 10.091, 8.82914 10.6784, 8.48335 11.4106, 8.28869 12.2419, 8.08087 13.0709, 7.86046 13.8982, 7.64061 14.726, 7.42363 15.5516, 7.20951 16.3754, 7.15341 16.6021, 7.03719 16.771, 6.86086 16.8838, 6.68452 16.9972, 6.51162 17.0533, 6.34159 17.0533, 6.15953 17.0533, 6.00839 16.9926, 5.88873 16.8701, 5.80744 16.7911, 5.76335 16.6811, 5.75648 16.5403, 5.75648 16.4739, 5.76278 16.4063, 5.77538 16.3388 L 7.03948 11.4747 C 7.14024 11.1209, 7.20951 10.7763, 7.2473 10.4396 L 7.2473 10.1648 C 7.2473 9.94557, 7.22211 9.74405, 7.17173 9.56027, 7.05894 9.17612, 6.82021 8.98375, 6.45495 8.98318, 5.81374 8.98375, 5.26012 9.20531, 4.79467 9.64786, 4.32922 10.091, 3.92045 10.6784, 3.56778 11.4106 L 2.27505 16.3754 C 2.21895 16.6021, 2.10387 16.771, 1.93097 16.8838, 1.75808 16.9972, 1.58346 17.0533, 1.40713 17.0533, 1.21877 17.0533, 1.07393 16.9926, 0.973165 16.8701, 0.891869 16.7911, 0.850648 16.6811, 0.850648 16.5403, 0.850648 16.4859, 0.856946 16.4189, 0.869541 16.3388 L 2.322 10.6686 C 2.42276 10.2725, 2.47314 9.93011, 2.47314 9.64271 L 2.47314 9.42287 C 2.44223 9.13032, 2.29452 8.98375, 2.03002 8.98318, 1.75292 8.98375, 1.52163 9.20703, 1.33614 9.65244, 1.15064 10.0984, 0.970303 10.6784, 0.79397 11.3923, 0.724696 11.5578, 0.608477 11.6431, 0.444739 11.6488 L 0.227758 11.6488 C 0.076615 11.6494, 0.00104374 11.5732, 0.00104374 11.4198 L 0.00104374 11.3557 C 0.076615 11.0694, 0.161919 10.7562, 0.256383 10.4173, 0.350847 10.0784, 0.476799 9.75779, 0.633667 9.4555, 0.791107 9.15322, 0.989196 8.89673, 1.22793 8.68605, 1.46724 8.47536, 1.76552 8.37002, 2.12391 8.36945, 2.64031 8.37002, 3.04622 8.52575, 3.34164 8.83719, 3.63705 9.14864, 3.79106 9.45092, 3.80365 9.74347, 4.06815 9.39596, 4.4357 9.07994, 4.90745 8.79597, 5.3792 8.512, 5.92652 8.37002, 6.54884 8.36945, 6.93299 8.37002, 7.28566 8.43872, 7.60626 8.57613, 7.92687 8.71353, 8.17534 8.93509, 8.3511 9.23967, 8.50224 9.50302, 8.58411 9.72286, 8.5967 9.8992, 8.8738 9.50874, 9.25738 9.15665, 9.74802 8.84177, 10.2387 8.52746, 10.814 8.37002, 11.4741 8.36945, 11.8451 8.37002, 12.1915 8.43872, 12.5121 8.57613, 12.8327 8.71353, 13.0846 8.93509, 13.2667 9.23967, 13.4556 9.55168, 13.5472 9.90263, 13.5403 10.2931 L 13.5403 10.3389 C 13.5277 10.7305, 13.4716 11.1244, 13.3709 11.5205, 13.226 12.077, 13.0594 12.6238, 12.8705 13.1608, 12.6821 13.6984, 12.484 14.2417, 12.2762 14.7907, 12.0873 15.2859, 11.9928 15.701, 11.9928 16.0365, 11.9928 16.3119, 12.1125 16.4493, 12.3518 16.4487, 12.5659 16.4493, 12.7589 16.3852, 12.9317 16.2569, 13.1046 16.1287, 13.2621 15.9563, 13.4035 15.7394, 13.5455 15.523, 13.6726 15.2665, 13.7859 14.9699, 13.8993 14.6739, 13.9995 14.3608, 14.0876 14.0304, 14.1254 13.8724, 14.2359 13.7928, 14.418 13.7923 L 14.6252 13.7923 C 14.6951 13.7928, 14.7672 13.814, 14.8422 13.8564, 14.8674 13.9119, 14.88 13.9577, 14.88 13.9938, 14.88 14.019, 14.8708 14.0465, 14.8519 14.0762 Z" stroke="none" fill="#000000" />
			<path d="M 21.6768 17.9876 C 21.5703 18.3849, 21.386 18.7513, 21.1249 19.0868, 20.8638 19.4229, 20.5604 19.7097, 20.2146 19.9479, 19.8688 20.1861, 19.4887 20.3727, 19.0736 20.5067, 18.6585 20.6412, 18.2435 20.7082, 17.8278 20.7082, 17.545 20.7082, 17.2433 20.6962, 16.9227 20.6715, 16.6021 20.6475, 16.3112 20.588, 16.0502 20.4929, 15.7891 20.3985, 15.5927 20.2502, 15.4605 20.0486, 15.3597 19.9267, 15.3065 19.771, 15.3002 19.5815, 15.3002 19.4899, 15.3128 19.3834, 15.338 19.2609, 15.4072 18.9861, 15.5487 18.7817, 15.7622 18.6471, 15.9763 18.5132, 16.1899 18.4456, 16.4034 18.4456, 16.6238 18.4456, 16.8065 18.516, 16.9507 18.6563, 17.0578 18.7605, 17.111 18.8945, 17.111 19.0594, 17.111 19.1269, 17.0984 19.2059, 17.0732 19.2975, 17.0297 19.4933, 16.9479 19.6536, 16.8282 19.7784, 16.7091 19.9038, 16.6427 19.9662, 16.6301 19.9662, 16.6679 19.9845, 16.8145 20.0109, 17.0687 20.0441, 17.3234 20.0778, 17.6114 20.0944, 17.932 20.0944, 18.1896 20.0944, 18.4398 20.0383, 18.682 19.925, 18.9242 19.8122, 19.1492 19.6548, 19.3564 19.4532, 19.5637 19.2517, 19.7463 19.0227, 19.9032 18.7662, 20.0606 18.5097, 20.1768 18.2384, 20.2524 17.951 L 20.7522 15.9907 C 20.6079 16.1315, 20.3497 16.309, 19.9787 16.5226, 19.6077 16.7367, 19.2213 16.8426, 18.8183 16.8426, 18.3345 16.8426, 17.9183 16.7229, 17.569 16.4813, 17.2198 16.2403, 16.9507 15.93, 16.7618 15.551, 16.5357 15.1119, 16.416 14.6356, 16.4034 14.122 L 16.4034 14.0121 C 16.4034 13.5426, 16.4664 13.0663, 16.5923 12.5831, 16.7246 12.0461, 16.929 11.5291, 17.2055 11.031, 17.4826 10.5335, 17.8438 10.0675, 18.2904 9.63355, 18.6551 9.26772, 19.0684 8.96543, 19.5305 8.72727, 19.993 8.4891, 20.4631 8.37002, 20.9411 8.36945, 21.3499 8.37002, 21.69 8.4788, 21.9602 8.69521, 22.2304 8.91219, 22.4033 9.09367, 22.4783 9.23967 L 22.4314 9.41371 C 22.488 9.18814, 22.6025 9.02039, 22.7754 8.91047, 22.9483 8.80055, 23.123 8.74559, 23.2993 8.74502, 23.4819 8.74559, 23.6331 8.80341, 23.7521 8.91906, 23.834 8.99921, 23.8747 9.10913, 23.8747 9.24883, 23.8747 9.31638, 23.8684 9.38394, 23.8558 9.45035 Z M 22.1199 10.6412 C 22.1073 10.5255, 22.0884 10.4127, 22.0632 10.3028, 22.0381 10.1929, 22.01 10.083, 21.9785 9.97248, 21.8777 9.68622, 21.7346 9.44978, 21.5491 9.26314, 21.3636 9.07707, 21.1295 8.98375, 20.8467 8.98318, 20.5827 8.98375, 20.3217 9.07879, 20.064 9.26772, 19.8064 9.45722, 19.5705 9.69538, 19.3564 9.98164, 19.0673 10.379, 18.8475 10.802, 18.6963 11.2509, 18.5452 11.6997, 18.4038 12.156, 18.2715 12.6198, 18.1582 13.0967, 18.0608 13.561, 17.979 14.0121, 17.9286 14.2325, 17.9034 14.4461, 17.9034 14.6533, 17.9034 14.8737, 17.9286 15.0844, 17.979 15.2854, 18.0356 15.5607, 18.1427 15.7897, 18.2996 15.973, 18.457 16.1562, 18.6677 16.2478, 18.9316 16.2472, 19.2213 16.2478, 19.5104 16.1487, 19.7995 15.9501, 20.0892 15.752, 20.3595 15.5121, 20.6108 15.2304, 20.7934 15.0174, 20.9663 14.785, 21.1295 14.5342 L 22.1199 10.6412 Z" stroke="none" fill="#000000" />
			<path d="M 34.9601 14.5068 C 34.8536 15.2705, 34.4935 15.8831, 33.8803 16.3439, 33.2672 16.8048, 32.5269 17.035, 31.659 17.035, 31.0808 17.035, 30.5306 16.9222, 30.0085 16.6966, 29.4863 16.471, 29.0306 16.159, 28.6402 15.7617, 28.2314 15.3472, 27.9217 14.8772, 27.711 14.3516, 27.5003 13.8266, 27.395 13.277, 27.395 12.7022, 27.395 12.1165, 27.4992 11.552, 27.7064 11.0081, 27.9142 10.4648, 28.2257 9.98221, 28.6402 9.56027, 29.0306 9.1515, 29.4863 8.83261, 30.0085 8.60361, 30.5306 8.3746, 31.0808 8.2601, 31.659 8.25953, 32.0237 8.2601, 32.3884 8.29846, 32.7531 8.3746, 33.1183 8.45132, 33.447 8.57154, 33.7389 8.73643, 34.0315 8.90131, 34.2719 9.11657, 34.4609 9.38222, 34.6498 9.64786, 34.7437 9.96103, 34.7437 10.3206, 34.7437 10.6389, 34.6418 10.8799, 34.4374 11.0448, 34.233 11.2097, 34.008 11.2921, 33.7624 11.2915, 33.5174 11.2921, 33.2924 11.2097, 33.088 11.0448, 32.8836 10.8799, 32.7811 10.6389, 32.7811 10.3206, 32.7811 10.0034, 32.8916 9.7595, 33.1115 9.58775, 33.3004 9.45378, 33.5048 9.38394, 33.7246 9.37707 L 33.5454 9.37707 C 33.4389 9.27974, 33.2059 9.17783, 32.8475 9.07077, 32.4891 8.96429, 32.093 8.91047, 31.659 8.9099, 31.3069 8.91047, 30.9691 9.00551, 30.6451 9.19444, 30.3211 9.38394, 30.0525 9.63698, 29.8384 9.95416, 29.5808 10.3515, 29.4108 10.7826, 29.3289 11.2463, 29.2476 11.7106, 29.2064 12.1961, 29.2064 12.7022, 29.2064 13.1854, 29.2556 13.6526, 29.3529 14.1043, 29.4503 14.5566, 29.6375 14.9716, 29.914 15.3495, 30.1407 15.6615, 30.419 15.9105, 30.7487 16.0966, 31.0791 16.2833, 31.4266 16.376, 31.7907 16.3754, 32.464 16.376, 33.0107 16.1962, 33.4321 15.8355, 33.8534 15.4754, 34.1397 15.0111, 34.2908 14.4426, 34.3286 14.2966, 34.4197 14.2234, 34.5639 14.2228 L 34.734 14.2411 C 34.8851 14.2783, 34.9601 14.3671, 34.9601 14.5068 Z" stroke="none" fill="#000000" />
			<path d="M 44.4505 12.7388 C 44.4505 13.3136, 44.3406 13.8633, 44.1208 14.3882, 43.9009 14.9138, 43.5797 15.3775, 43.1584 15.78, 42.7565 16.1716, 42.291 16.4785, 41.7626 16.7012, 41.2342 16.9239, 40.6743 17.035, 40.0834 17.035, 39.4926 17.035, 38.9327 16.9256, 38.4043 16.7058, 37.8764 16.4859, 37.4075 16.1773, 36.9987 15.78, 36.5711 15.3712, 36.2505 14.9058, 36.0364 14.3837, 35.8228 13.8615, 35.7157 13.3136, 35.7157 12.7388, 35.7157 12.1532, 35.8245 11.5887, 36.0415 11.0448, 36.2585 10.5015, 36.5774 10.0126, 36.9987 9.57859, 37.4012 9.16982, 37.8684 8.84807, 38.3997 8.61277, 38.931 8.37804, 39.4926 8.2601, 40.0834 8.25953, 40.6743 8.2601, 41.2342 8.37804, 41.7626 8.61277, 42.291 8.84807, 42.7565 9.16982, 43.1584 9.57859, 43.586 10.0188, 43.9084 10.5089, 44.1253 11.0494, 44.3423 11.5898, 44.4505 12.1532, 44.4505 12.7388 Z M 42.6586 12.5282 C 42.6586 12.0587, 42.6259 11.5944, 42.5595 11.1364, 42.4937 10.6784, 42.3317 10.2599, 42.0735 9.88087, 41.8347 9.55798, 41.5422 9.30607, 41.1964 9.12573, 40.8506 8.94597, 40.4796 8.85551, 40.0834 8.85494, 39.6872 8.85551, 39.3163 8.94597, 38.9705 9.12573, 38.6247 9.30607, 38.3321 9.55798, 38.0928 9.88087, 37.8352 10.2542, 37.6737 10.6709, 37.6073 11.1318, 37.5415 11.5933, 37.5083 12.0587, 37.5083 12.5282, 37.5083 13.0234, 37.5386 13.5134, 37.5982 13.9989, 37.6577 14.4844, 37.8226 14.9316, 38.0928 15.3403, 38.3069 15.6586, 38.5932 15.9105, 38.9516 16.0966, 39.31 16.2833, 39.6872 16.376, 40.0834 16.3754, 40.4796 16.376, 40.8569 16.2833, 41.2153 16.0966, 41.5737 15.9105, 41.8599 15.6586, 42.0735 15.3403, 42.3443 14.9316, 42.5097 14.4844, 42.5693 13.9989, 42.6288 13.5134, 42.6586 13.0234, 42.6586 12.5282 Z" stroke="none" fill="#000000" />
			<path d="M 51.8311 14.3144 C 51.8311 14.6877, 51.7653 15.0524, 51.6331 15.4096, 51.5014 15.7668, 51.2781 16.0766, 50.9632 16.3388, 50.6237 16.6079, 50.2481 16.7911, 49.8359 16.8884, 49.4243 16.9863, 49.0075 17.035, 48.5862 17.035, 48.1207 17.035, 47.7148 16.9588, 47.369 16.806, 47.0232 16.6537, 46.7404 16.4676, 46.52 16.2472 L 45.9165 16.9434 C 45.8662 16.9983, 45.7906 17.0292, 45.6898 17.035 L 45.6337 17.035 C 45.4448 17.035, 45.3503 16.9405, 45.3503 16.751 L 45.3503 13.7281 C 45.3503 13.5942, 45.423 13.5089, 45.5673 13.4717, 45.612 13.4602, 45.6526 13.4539, 45.6898 13.4533, 45.7402 13.4539, 45.7877 13.4631, 45.8318 13.4808, 45.9263 13.518, 45.9893 13.5821, 46.0202 13.6732, 46.1839 14.5102, 46.4639 15.1795, 46.86 15.6798, 47.2562 16.1808, 47.8316 16.431, 48.5862 16.4304, 48.8884 16.431, 49.1804 16.4023, 49.4632 16.3439, 49.7461 16.2861, 49.9917 16.1716, 50.1989 15.9999, 50.3689 15.8602, 50.4949 15.6878, 50.5762 15.4829, 50.6581 15.2785, 50.6987 15.0569, 50.6987 14.8182, 50.6987 14.4277, 50.5447 14.094, 50.2367 13.8157, 49.9287 13.5381, 49.5485 13.3531, 49.0951 13.261 L 47.7938 12.9953 C 47.4795 12.9346, 47.1761 12.839, 46.8835 12.7074, 46.5915 12.5763, 46.3333 12.4142, 46.1101 12.2219, 45.8868 12.0295, 45.7047 11.8022, 45.5627 11.5394, 45.4213 11.2772, 45.3503 10.987, 45.3503 10.6686, 45.3503 10.3211, 45.4248 9.98679, 45.5725 9.66618, 45.7202 9.34558, 45.9417 9.08165, 46.2371 8.87326, 46.5829 8.61734, 46.9637 8.45132, 47.3787 8.3746, 47.7938 8.29846, 48.1963 8.2601, 48.5862 8.25953, 49.3029 8.2601, 49.8817 8.42498, 50.3214 8.75418 L 50.8121 8.31449 C 50.8876 8.27842, 50.9506 8.2601, 51.001 8.25953 L 51.0668 8.25953 C 51.2558 8.2601, 51.3497 8.3454, 51.3497 8.51601 L 51.3497 10.9526 C 51.3497 11.1364, 51.2558 11.2309, 51.0668 11.2366 L 50.9632 11.2366 C 50.7749 11.2372, 50.6804 11.1427, 50.6804 10.9526, 50.6804 10.2874, 50.5001 9.76122, 50.1382 9.37306, 49.7764 8.98547, 49.2594 8.79139, 48.5862 8.79082, 48.297 8.79139, 48.0125 8.81601, 47.7325 8.86467, 47.4526 8.91391, 47.2024 9.01409, 46.9826 9.16638, 46.6494 9.3868, 46.4822 9.7137, 46.4822 10.1465, 46.4822 10.4648, 46.627 10.7368, 46.9161 10.9623, 47.2058 11.1885, 47.5705 11.3442, 48.0108 11.4289 L 49.3029 11.6671 C 49.643 11.7289, 49.9665 11.8389, 50.2745 11.9974, 50.5825 12.1566, 50.8516 12.3472, 51.0812 12.57, 51.3107 12.7932, 51.4934 13.0554, 51.6285 13.3577, 51.7636 13.66, 51.8311 13.9789, 51.8311 14.3144 Z" stroke="none" fill="#000000" />
			<path d="M 62.9492 5.50232 C 63.1004 6.08285, 63.1754 6.67539, 63.1754 7.27939, 63.1754 7.46947, 63.1691 7.65267, 63.1565 7.829, 63.0935 8.63567, 62.9584 9.44462, 62.7511 10.2564, 62.525 11.0751, 62.2387 11.8864, 61.893 12.689, 61.5472 13.4923, 61.088 14.2629, 60.5155 15.0014, 60.3208 15.2522, 60.105 15.5001, 59.8691 15.7439, 59.6333 15.9884, 59.3802 16.2065, 59.11 16.3989, 58.8398 16.5913, 58.5581 16.7487, 58.2655 16.8701, 57.9735 16.9926, 57.6667 17.0533, 57.3461 17.0533, 57.0192 17.0533, 56.7375 16.9909, 56.5016 16.8655, 56.2658 16.7407, 56.0631 16.5792, 55.8931 16.3806, 55.7236 16.1825, 55.5833 15.9609, 55.4734 15.7165, 55.3635 15.4726, 55.2742 15.2218, 55.2043 14.9648, 55.0475 14.3974, 54.969 13.8112, 54.969 13.206, 54.969 13.0114, 54.9816 12.819, 55.0062 12.6289, 55.0566 11.8354, 55.1923 11.0328, 55.4121 10.2198, 55.62 9.40226, 55.8999 8.5933, 56.252 7.79293, 56.6041 6.99314, 57.0724 6.22025, 57.657 5.47484, 57.8522 5.22523, 58.0663 4.97618, 58.2987 4.72886, 58.5312 4.48154, 58.7796 4.26169, 59.0436 4.06933, 59.3081 3.87697, 59.5863 3.7201, 59.8789 3.59758, 60.1714 3.47564, 60.4811 3.41438, 60.808 3.41381, 61.1349 3.41438, 61.4149 3.47735, 61.6473 3.60216, 61.8804 3.72754, 62.0865 3.88784, 62.2657 4.08307, 62.4449 4.27887, 62.5863 4.50157, 62.6899 4.75176, 62.7935 5.00252, 62.88 5.25271, 62.9492 5.50232 Z M 61.6754 5.71301 C 61.6502 5.47541, 61.6193 5.25271, 61.5815 5.04489, 61.5437 4.83764, 61.4888 4.6573, 61.4166 4.50444, 61.3445 4.35215, 61.2517 4.23421, 61.1384 4.15177, 61.025 4.06933, 60.8802 4.02811, 60.7038 4.02754, 60.3397 4.02811, 60.0031 4.19757, 59.6951 4.5365, 59.3871 4.87542, 59.0882 5.28019, 58.7985 5.74965, 58.384 6.42177, 58.0634 7.11222, 57.8367 7.82041, 57.61 8.52918, 57.4154 9.21276, 57.2516 9.87172 L 61.0909 9.87172 C 61.2609 9.18241, 61.4183 8.47994, 61.5626 7.76488, 61.6634 7.28283, 61.7132 6.8065, 61.7132 6.3359, 61.7132 6.12865, 61.7006 5.9214, 61.6754 5.71301 Z M 57.0535 10.6137 C 56.8841 11.3041, 56.7358 12.0003, 56.6098 12.7022, 56.5096 13.2094, 56.4593 13.7167, 56.4593 14.2228, 56.4593 14.4129, 56.4656 14.5961, 56.4782 14.7724, 56.4907 15.0111, 56.5194 15.2344, 56.5629 15.4417, 56.607 15.6495, 56.6654 15.8281, 56.7375 15.9775, 56.8096 16.1275, 56.9058 16.2432, 57.0255 16.3256, 57.1451 16.4081, 57.2894 16.4493, 57.4589 16.4487, 57.8178 16.4493, 58.1527 16.2815, 58.4642 15.9455, 58.7756 15.61, 59.0693 15.2064, 59.3459 14.7358, 59.7609 14.0522, 60.0815 13.3594, 60.3077 12.657, 60.5344 11.9551, 60.729 11.2738, 60.8928 10.6137 Z" stroke="none" fill="#000000" />
			<rect />
		</svg>
	</g>
</svg>
