<?xml version="1.0"?>
<svg xmlns="http://www.w3.org/2000/svg" xmlns:xlink="http://www.w3.org/1999/xlink" width="223.181824" height="126.36364">
	<defs>
		<marker id="CustomMarker-01" markerUnits="strokeWidth" markerWidth="15.000001" markerHeight="9" viewBox="-15 -4.5 15 9" orient="auto-start-reverse">
			<path d="M 0 -0 L -10 -3, -8 -0.5, -8 0.5, -10 3 Z" fill="#000000" stroke="#000000" stroke-linejoin="round" />
		</marker>
	</defs>
	<path d="M -156.907 200.472 L -171.257 188.361 C -190.012 171.309, -206.143 151.526, -219.088 129.65" fill="none" stroke="#000000" stroke-width="2.9333334" stroke-linecap="round" stroke-linejoin="round" marker-start="url(#CustomMarker-01)" transform="matrix(-0.454545 6.86344e-008 6.86345e-008 0.454545 85.3449 15.9091)" />
	<path d="M -5.49999 -126.375 L 5.49999 -126.375, 5.49999 126.375, -5.49999 126.375 Z" stroke="none" fill="#FFFFFF" transform="matrix(0.227273 -0.393648 0.393648 0.227273 136.342 44.704)" />
	<path d="M -5.49999 -126.375 L 5.49999 -126.375, 5.49999 126.375, -5.49999 126.375 Z" fill="none" stroke="#000000" stroke-width="2.20000005" stroke-linecap="round" stroke-linejoin="round" transform="matrix(0.227273 -0.393648 0.393648 0.227273 136.342 44.704)" />
	<path d="M 0 -110.319 L 0 110.319" fill="none" stroke="#000000" stroke-width="2.9333334" stroke-linecap="round" stroke-linejoin="round" stroke-dasharray="10.2813, 7.31867" transform="matrix(0.454545 0 0 0.454545 85.3449 66.054)" />
	<g transform="matrix(1 0 -0 1 199.538 62.0023)">
		<svg width="48.0251122" height="32.9571342">
			<defs />
			<path d="M 14.8512 14.0762 C 14.7756 14.4003, 14.6628 14.738, 14.5117 15.089, 14.3606 15.4405, 14.1796 15.7594, 13.969 16.0462, 13.7583 16.3336, 13.5115 16.5729, 13.2287 16.7647, 12.9459 16.9571, 12.6184 17.0533, 12.2468 17.0533, 11.9325 17.0533, 11.6623 16.9863, 11.4356 16.8518, 11.2095 16.7178, 11.0383 16.5409, 10.9215 16.321, 10.8053 16.1012, 10.7406 15.8447, 10.728 15.551 L 10.728 15.4777 C 10.728 15.2155, 10.7818 14.9499, 10.8883 14.6808, 11.0961 14.1438, 11.2879 13.6096, 11.4642 13.0783, 11.6406 12.5471, 11.8009 12.0129, 11.9451 11.4747, 12.0459 11.1209, 12.1152 10.7763, 12.153 10.4396, 12.1656 10.3549, 12.1718 10.2633, 12.1718 10.1648, 12.1718 9.95187, 12.1404 9.75034, 12.0774 9.56027, 11.964 9.17612, 11.7253 8.98375, 11.36 8.98318, 10.7188 8.98375, 10.1652 9.20531, 9.69975 9.64786, 9.2343 10.091, 8.82839 10.6784, 8.4826 11.4106, 8.28794 12.2419, 8.08012 13.0709, 7.8597 13.8982, 7.63986 14.726, 7.42288 15.5516, 7.20876 16.3754, 7.15266 16.6021, 7.03644 16.771, 6.8601 16.8838, 6.68377 16.9972, 6.51087 17.0533, 6.34084 17.0533, 6.15878 17.0533, 6.00764 16.9926, 5.88798 16.8701, 5.80668 16.7911, 5.7626 16.6811, 5.75573 16.5403, 5.75573 16.4739, 5.76203 16.4063, 5.77462 16.3388 L 7.03873 11.4747 C 7.13949 11.1209, 7.20876 10.7763, 7.24655 10.4396 L 7.24655 10.1648 C 7.24655 9.94557, 7.22136 9.74405, 7.17098 9.56027, 7.05819 9.17612, 6.81945 8.98375, 6.45419 8.98318, 5.81298 8.98375, 5.25937 9.20531, 4.79391 9.64786, 4.32846 10.091, 3.91969 10.6784, 3.56703 11.4106 L 2.2743 16.3754 C 2.21819 16.6021, 2.10312 16.771, 1.93022 16.8838, 1.75732 16.9972, 1.58271 17.0533, 1.40637 17.0533, 1.21802 17.0533, 1.07317 16.9926, 0.972413 16.8701, 0.891116 16.7911, 0.849895 16.6811, 0.849895 16.5403, 0.849895 16.4859, 0.856193 16.4189, 0.868788 16.3388 L 2.32125 10.6686 C 2.42201 10.2725, 2.47239 9.93011, 2.47239 9.64271 L 2.47239 9.42287 C 2.44147 9.13032, 2.29376 8.98375, 2.02927 8.98318, 1.75217 8.98375, 1.52088 9.20703, 1.33538 9.65244, 1.14989 10.0984, 0.96955 10.6784, 0.793217 11.3923, 0.723943 11.5578, 0.607724 11.6431, 0.443986 11.6488 L 0.227005 11.6488 C 0.0758623 11.6494, 0.00029096 11.5732, 0.00029096 11.4198 L 0.00029096 11.3557 C 0.0758623 11.0694, 0.161166 10.7562, 0.25563 10.4173, 0.350094 10.0784, 0.476047 9.75779, 0.632914 9.4555, 0.790354 9.15322, 0.988443 8.89673, 1.22718 8.68605, 1.46649 8.47536, 1.76477 8.37002, 2.12316 8.36945, 2.63956 8.37002, 3.04547 8.52575, 3.34089 8.83719, 3.6363 9.14864, 3.79031 9.45092, 3.8029 9.74347, 4.0674 9.39596, 4.43495 9.07994, 4.9067 8.79597, 5.37845 8.512, 5.92577 8.37002, 6.54808 8.36945, 6.93224 8.37002, 7.2849 8.43872, 7.60551 8.57613, 7.92612 8.71353, 8.17458 8.93509, 8.35035 9.23967, 8.50149 9.50302, 8.58336 9.72286, 8.59595 9.8992, 8.87305 9.50874, 9.25663 9.15665, 9.74727 8.84177, 10.2379 8.52746, 10.8133 8.37002, 11.4734 8.36945, 11.8444 8.37002, 12.1907 8.43872, 12.5113 8.57613, 12.832 8.71353, 13.0839 8.93509, 13.2659 9.23967, 13.4548 9.55168, 13.5464 9.90263, 13.5396 10.2931 L 13.5396 10.3389 C 13.527 10.7305, 13.4709 11.1244, 13.3701 11.5205, 13.2253 12.077, 13.0587 12.6238, 12.8697 13.1608, 12.6814 13.6984, 12.4833 14.2417, 12.2755 14.7907, 12.0865 15.2859, 11.9921 15.701, 11.9921 16.0365, 11.9921 16.3119, 12.1117 16.4493, 12.351 16.4487, 12.5652 16.4493, 12.7581 16.3852, 12.931 16.2569, 13.1039 16.1287, 13.2613 15.9563, 13.4027 15.7394, 13.5447 15.523, 13.6718 15.2665, 13.7852 14.9699, 13.8985 14.6739, 13.9987 14.3608, 14.0869 14.0304, 14.1247 13.8724, 14.2352 13.7928, 14.4172 13.7923 L 14.6245 13.7923 C 14.6943 13.7928, 14.7665 13.814, 14.8415 13.8564, 14.8667 13.9119, 14.8792 13.9577, 14.8792 13.9938, 14.8792 14.019, 14.8701 14.0465, 14.8512 14.0762 Z" stroke="none" fill="#000000" />
			<rect />
		</svg>
	</g>
	<g transform="matrix(1 0 -0 1 126.597 51.1808)">
		<svg width="18.0512524" height="47.9999886">
			<defs />
			<path d="M 1.49969 14.7449 C 1.43671 14.9957, 1.39263 15.231, 1.36744 15.4503, 1.35484 15.5607, 1.34855 15.6615, 1.34855 15.7525, 1.34855 15.8327, 1.35484 15.918, 1.36744 16.009, 1.3869 16.1562, 1.43099 16.2661, 1.49969 16.3394, 1.56896 16.4126, 1.67259 16.4493, 1.81113 16.4487, 1.94338 16.4493, 2.06132 16.3943, 2.16495 16.2844, 2.26914 16.1745, 2.37105 16.0113, 2.47181 15.7943, 2.57257 15.5779, 2.66532 15.318, 2.75005 15.0157, 2.83478 14.7134, 2.92467 14.3911, 3.01856 14.0487, 3.05634 13.8781, 3.1634 13.7928, 3.33974 13.7923 L 3.55672 13.7923 C 3.70786 13.7928, 3.78286 13.8598, 3.78286 13.9938 L 3.78286 14.0579 C 3.71988 14.3396, 3.63859 14.6527, 3.53782 14.9974, 3.43706 15.3426, 3.31168 15.6649, 3.16054 15.9638, 3.0094 16.2632, 2.81474 16.5197, 2.57544 16.7332, 2.33613 16.9468, 2.04357 17.0533, 1.69778 17.0533, 1.37087 17.0533, 1.08805 16.9909, 0.848746 16.8655, 0.610009 16.7407, 0.418218 16.5672, 0.273373 16.3439, 0.129101 16.1212, 0.043797 15.8659, 0.0186065 15.5785, 0.00601137 15.5058, -0.000286222 15.4262, -0.000286222 15.3403, -0.000286222 15.1331, 0.0249041 14.9224, 0.0752851 14.7083 L 2.49013 5.32828 C 2.54051 5.12733, 2.57544 4.97447, 2.59433 4.87027 L 2.59433 4.84279 C 2.59433 4.7884, 2.57887 4.7489, 2.54681 4.72371, 2.47124 4.67562, 2.32983 4.64184, 2.12258 4.62352, 1.91533 4.6052, 1.67602 4.59604, 1.40523 4.59547, 1.31133 4.59604, 1.24206 4.56569, 1.19798 4.50386, 1.16019 4.4678, 1.1413 4.422, 1.1413 4.36646, 1.1413 4.33039, 1.15103 4.29662, 1.16935 4.2657 L 1.19798 4.1283 C 1.21687 4.04357, 1.26095 3.97945, 1.33023 3.93651, 1.3995 3.89414, 1.47507 3.86323, 1.55637 3.84433 L 4.01873 3.64281, 4.07541 3.64281 C 4.22655 3.64338, 4.30212 3.71037, 4.30212 3.84433, 4.30212 3.88155, 4.29583 3.92105, 4.28323 3.96342 Z" stroke="none" fill="#000000" />
			<rect />
		</svg>
	</g>
	<path d="M -156.069 0 L 156.069 0" fill="none" stroke="#000000" stroke-width="5.86666679" stroke-linecap="round" stroke-linejoin="round" transform="matrix(0.454545 0 0 0.454545 85.3449 11.7095)" />
	<path d="M 13.8943 -0 C 13.8943 7.67361, 7.67361 13.8943, -0 13.8943, -7.67361 13.8943, -13.8943 7.67361, -13.8943 -0, -13.8943 -7.67361, -7.67361 -13.8943, -0 -13.8943, 7.67361 -13.8943, 13.8943 -7.67361, 13.8943 -0 Z" stroke="none" fill="#FFFFFF" transform="matrix(0.454545 0 0 0.454545 186.03 73.2098)" />
	<path d="M 13.8943 -0 C 13.8943 7.67361, 7.67361 13.8943, -0 13.8943, -7.67361 13.8943, -13.8943 7.67361, -13.8943 -0, -13.8943 -7.67361, -7.67361 -13.8943, -0 -13.8943, 7.67361 -13.8943, 13.8943 -7.67361, 13.8943 -0 Z" fill="none" stroke="#000000" stroke-width="2.20000005" stroke-linecap="round" stroke-linejoin="round" transform="matrix(0.454545 0 0 0.454545 186.03 73.2098)" />
	<path d="M 9.23914 -0 C 9.23914 5.10263, 5.10263 9.23914, -0 9.23914, -5.10263 9.23914, -9.23914 5.10263, -9.23914 -0, -9.23914 -5.10263, -5.10263 -9.23914, -0 -9.23914, 5.10263 -9.23914, 9.23914 -5.10263, 9.23914 -0 Z" stroke="none" fill="#000000" transform="matrix(0.454545 0 0 0.454545 85.17 16.2353)" />
	<path d="M 0 0 L 8.06067 13.7543, 13.1643 0 Z" stroke="none" fill="#000000" transform="matrix(0.454545 0 0 0.454545 85.3449 11.7095)" />
	<path d="M 0 0 L -8.06058 13.7544, -13.1643 0 Z" stroke="none" fill="#000000" transform="matrix(0.454545 0 0 0.454545 84.9712 11.6453)" />
</svg>
