<?xml version="1.0"?>
<svg xmlns="http://www.w3.org/2000/svg" xmlns:xlink="http://www.w3.org/1999/xlink" width="156.465347" height="194.130035">
	<defs>
		<marker id="CustomMarker-01" markerUnits="strokeWidth" markerWidth="15.000001" markerHeight="9" viewBox="-15 -4.5 15 9" orient="auto-start-reverse">
			<path d="M 0 -0 L -10 -3, -8 -0.5, -8 0.5, -10 3 Z" fill="#000000" stroke="#000000" stroke-linejoin="round" />
		</marker>
		<marker id="CustomMarker-02" markerUnits="strokeWidth" markerWidth="15.000001" markerHeight="9" viewBox="-15 -4.5 15 9" orient="auto-start-reverse">
			<path d="M 0 -0 L -10 -3, -8 -0.5, -8 0.5, -10 3 Z" fill="#000000" stroke="#000000" stroke-linejoin="round" />
		</marker>
	</defs>
	<path d="M 194.416 -0 C 194.416 107.373, 107.373 194.416, -0 194.416, -107.373 194.416, -194.416 107.373, -194.416 -0, -194.416 -107.373, -107.373 -194.416, -0 -194.416, 107.373 -194.416, 194.416 -107.373, 194.416 -0 Z" fill="none" stroke="#000000" stroke-width="4.26666689" stroke-linecap="round" stroke-linejoin="round" transform="matrix(0.3125 0 0 0.3125 87.2102 67.2257)" />
	<path d="M 97.2082 -0 C 97.2082 53.6866, 53.6866 97.2082, -0 97.2082, -53.6866 97.2082, -97.2082 53.6866, -97.2082 -0, -97.2082 -53.6866, -53.6866 -97.2082, -0 -97.2082, 53.6866 -97.2082, 97.2082 -53.6866, 97.2082 -0 Z" fill="none" stroke="#000000" stroke-width="4.26666689" stroke-linecap="round" stroke-linejoin="round" transform="matrix(0.3125 0 0 0.3125 87.2102 67.2257)" />
	<path d="M -30.7844 37.6123 L 30.7841 -37.6123" fill="none" stroke="#000000" stroke-width="3.20000005" stroke-linecap="round" stroke-linejoin="round" marker-end="url(#CustomMarker-01)" transform="matrix(0.3125 0 0 0.3125 96.8303 55.4719)" />
	<g transform="matrix(1 0 -0 1 84.1076 40.239)">
		<svg width="30.0150681" height="32.9571342">
			<defs />
			<path d="M 7.98852 9.90836 C 7.91982 10.1774, 7.77955 10.3807, 7.56887 10.5181, 7.35818 10.6555, 7.14578 10.7242, 6.93166 10.7236, 6.71182 10.7242, 6.52919 10.6538, 6.38435 10.5129, 6.26526 10.4156, 6.20515 10.2816, 6.20515 10.1099, 6.20515 10.0251, 6.21775 9.93927, 6.24294 9.8534, 6.29961 9.64042, 6.39866 9.47268, 6.54007 9.35016, 6.68205 9.22822, 6.77766 9.16066, 6.82804 9.14806, 6.68377 9.03871, 6.38492 8.98375, 5.93149 8.98318, 5.45402 8.98375, 5.02807 9.17783, 4.65365 9.56542, 4.27923 9.95358, 3.94145 10.4769, 3.63916 11.1358 L 2.27086 16.3754 C 2.21476 16.6021, 2.09968 16.771, 1.92678 16.8838, 1.75389 16.9972, 1.57927 17.0533, 1.40294 17.0533, 1.21458 17.0533, 1.06974 16.9926, 0.968976 16.8701, 0.88768 16.7911, 0.846459 16.6811, 0.846459 16.5403, 0.846459 16.4859, 0.852757 16.4189, 0.865352 16.3388 L 2.31781 10.6686 C 2.41857 10.2725, 2.46895 9.93011, 2.46895 9.64271 L 2.46895 9.42287 C 2.43804 9.13032, 2.29033 8.98375, 2.02583 8.98318, 1.74873 8.98375, 1.51744 9.20703, 1.33195 9.65244, 1.14645 10.0984, 0.966113 10.6784, 0.78978 11.3923, 0.720507 11.5578, 0.604287 11.6431, 0.440549 11.6488 L 0.223568 11.6488 C 0.0724257 11.6494, -0.00314558 11.5732, -0.00314558 11.4198 L -0.00314558 11.3557 C 0.0724257 11.0694, 0.15773 10.7562, 0.252194 10.4173, 0.346658 10.0784, 0.47261 9.75779, 0.629478 9.4555, 0.786918 9.15322, 0.985006 8.89673, 1.22374 8.68605, 1.46305 8.47536, 1.76133 8.37002, 2.11972 8.36945, 2.59834 8.37002, 2.98364 8.50628, 3.27562 8.77765, 3.56817 9.04959, 3.73305 9.31638, 3.77084 9.57859, 3.99126 9.28604, 4.29812 9.01123, 4.69086 8.75475, 5.08418 8.49827, 5.53531 8.37002, 6.04485 8.36945, 6.29675 8.37002, 6.55266 8.39636, 6.81373 8.44788, 7.07479 8.49998, 7.30437 8.58529, 7.50246 8.70437, 7.70054 8.82345, 7.84711 8.98089, 7.94157 9.17554, 7.99825 9.29806, 8.02974 9.43546, 8.03546 9.58775, 8.03546 9.67992, 8.02001 9.78698, 7.98852 9.90836 Z" stroke="none" fill="#000000" />
			<rect />
		</svg>
	</g>
	<path d="M 80.3164 54.7603 L -80.3163 -54.7602" fill="none" stroke="#000000" stroke-width="3.20000005" stroke-linecap="round" stroke-linejoin="round" marker-end="url(#CustomMarker-02)" transform="matrix(0.3125 0 0 0.3125 62.1113 50.1131)" />
	<g transform="matrix(1 0 -0 1 35.624 45.0429)">
		<svg width="57.0301361" height="47.9999886">
			<defs />
			<path d="M 7.60694 16.7669 L 0.0808844 16.7669, 0.0808844 16.2732 C 0.0808844 16.2379, 0.0993994 16.184, 0.136429 16.1116 L 3.15998 12.826 C 3.51737 12.4316, 3.87926 12.0277, 4.24619 11.6147, 4.61312 11.2018, 4.9419 10.7799, 5.23141 10.349, 5.52092 9.91808, 5.75207 9.47372, 5.92488 9.01589, 6.09769 8.55807, 6.18353 8.0778, 6.18353 7.57453, 6.18353 7.15037, 6.12798 6.7537, 6.01689 6.38565, 5.9058 6.01759, 5.7459 5.69442, 5.53607 5.41613, 5.32679 5.13785, 5.06478 4.91343, 4.75058 4.74286, 4.43639 4.5723, 4.07226 4.48702, 3.65932 4.48646, 3.04328 4.48702, 2.49905 4.67105, 2.0272 5.0391, 1.55591 5.40716, 1.24284 5.8128, 1.08855 6.25492, 1.05825 6.26726, 1.10762 6.27343, 1.23667 6.27287 L 1.39376 6.27287 C 1.57891 6.31551, 1.73882 6.38004, 1.87459 6.46644, 2.01037 6.5534, 2.12426 6.67291, 2.21684 6.82552, 2.30941 6.97812, 2.35542 7.16215, 2.35542 7.37704, 2.35542 7.73668, 2.23872 8.01216, 2.0042 8.20348, 1.76967 8.39536, 1.50766 8.49074, 1.21815 8.49018, 0.940989 8.49074, 0.681779 8.39536, 0.441646 8.20348, 0.201512 8.01216, 0.0808844 7.73668, 0.0808844 7.37704, 0.0808844 6.87489, 0.179631 6.39911, 0.377124 5.95026, 0.574617 5.50142, 0.842242 5.1126, 1.18112 4.78326, 1.52 4.45448, 1.9206 4.19415, 2.38291 4.00226, 2.84522 3.81094, 3.33559 3.715, 3.85345 3.71444, 4.49474 3.715, 5.08217 3.80926, 5.61518 3.99778, 6.14818 4.18629, 6.60264 4.45728, 6.97855 4.81019, 7.35446 5.16366, 7.64902 5.57211, 7.86166 6.03554, 8.0743 6.49954, 8.18034 7.01235, 8.18034 7.57453, 8.18034 8.19731, 8.03895 8.77071, 7.75506 9.29418, 7.47172 9.81821, 7.1205 10.2985, 6.70139 10.735, 6.28228 11.172, 5.83679 11.5833, 5.36494 11.9693, 4.89365 12.3553, 4.46669 12.7307, 4.08461 13.0954 L 1.95763 15.0972, 4.74104 15.0972 C 5.1293 15.0978, 5.49174 15.095, 5.82726 15.0888, 6.16333 15.0832, 6.44835 15.0708, 6.68287 15.0529, 6.9174 15.0349, 7.03746 15.0232, 7.04307 15.0164, 7.09245 14.9749, 7.13901 14.8913, 7.18222 14.7656, 7.22542 14.64, 7.26525 14.4918, 7.30228 14.3213, 7.33931 14.1507, 7.37634 13.9773, 7.41337 13.8006, 7.4504 13.6244, 7.48407 13.4309, 7.51492 13.221 L 8.19885 13.221 Z" stroke="none" fill="#000000" />
			<path d="M 17.8307 9.90836 C 17.762 10.1774, 17.6217 10.3807, 17.4111 10.5181, 17.2004 10.6555, 16.988 10.7242, 16.7738 10.7236, 16.554 10.7242, 16.3714 10.6538, 16.2265 10.5129, 16.1074 10.4156, 16.0473 10.2816, 16.0473 10.1099, 16.0473 10.0251, 16.0599 9.93927, 16.0851 9.8534, 16.1418 9.64042, 16.2408 9.47268, 16.3823 9.35016, 16.5242 9.22822, 16.6198 9.16066, 16.6702 9.14806, 16.526 9.03871, 16.2271 8.98375, 15.7737 8.98318, 15.2962 8.98375, 14.8703 9.17783, 14.4958 9.56542, 14.1214 9.95358, 13.7836 10.4769, 13.4813 11.1358 L 12.113 16.3754 C 12.0569 16.6021, 11.9419 16.771, 11.769 16.8838, 11.5961 16.9972, 11.4215 17.0533, 11.2451 17.0533, 11.0568 17.0533, 10.9119 16.9926, 10.8112 16.8701, 10.7299 16.7911, 10.6886 16.6811, 10.6886 16.5403, 10.6886 16.4859, 10.6949 16.4189, 10.7075 16.3388 L 12.16 10.6686 C 12.2608 10.2725, 12.3111 9.93011, 12.3111 9.64271 L 12.3111 9.42287 C 12.2802 9.13032, 12.1325 8.98375, 11.868 8.98318, 11.5909 8.98375, 11.3596 9.20703, 11.1741 9.65244, 10.9886 10.0984, 10.8083 10.6784, 10.632 11.3923, 10.5627 11.5578, 10.4465 11.6431, 10.2827 11.6488 L 10.0658 11.6488 C 9.91461 11.6494, 9.83904 11.5732, 9.83904 11.4198 L 9.83904 11.3557 C 9.91461 11.0694, 9.99991 10.7562, 10.0944 10.4173, 10.1888 10.0784, 10.3148 9.75779, 10.4717 9.4555, 10.6291 9.15322, 10.8272 8.89673, 11.0659 8.68605, 11.3052 8.47536, 11.6035 8.37002, 11.9619 8.36945, 12.4405 8.37002, 12.8258 8.50628, 13.1178 8.77765, 13.4104 9.04959, 13.5752 9.31638, 13.613 9.57859, 13.8334 9.28604, 14.1403 9.01123, 14.533 8.75475, 14.9264 8.49827, 15.3775 8.37002, 15.887 8.36945, 16.1389 8.37002, 16.3948 8.39636, 16.6559 8.44788, 16.917 8.49998, 17.1466 8.58529, 17.3446 8.70437, 17.5427 8.82345, 17.6893 8.98089, 17.7838 9.17554, 17.8404 9.29806, 17.8719 9.43546, 17.8776 9.58775, 17.8776 9.67992, 17.8622 9.78698, 17.8307 9.90836 Z" stroke="none" fill="#000000" />
			<rect />
		</svg>
	</g>
	<g transform="matrix(1 0 -0 1 79.7722 68.4804)">
		<svg width="48.0251122" height="32.9571342">
			<defs />
			<path d="M 14.8429 14.0762 C 14.7679 14.4003, 14.6551 14.738, 14.504 15.089, 14.3528 15.4405, 14.1719 15.7594, 13.9612 16.0462, 13.7505 16.3336, 13.5038 16.5729, 13.221 16.7647, 12.9382 16.9571, 12.6107 17.0533, 12.2397 17.0533, 11.9254 17.0533, 11.6552 16.9863, 11.4284 16.8518, 11.2023 16.7178, 11.0311 16.5409, 10.9143 16.321, 10.7981 16.1012, 10.7334 15.8447, 10.7208 15.551 L 10.7208 15.4777 C 10.7208 15.2155, 10.7746 14.9499, 10.8811 14.6808, 11.0889 14.1438, 11.2807 13.6096, 11.4571 13.0783, 11.6334 12.5471, 11.7937 12.0129, 11.938 11.4747, 12.0387 11.1209, 12.1074 10.7763, 12.1452 10.4396, 12.1578 10.3549, 12.1641 10.2633, 12.1641 10.1648, 12.1641 9.95187, 12.1326 9.75034, 12.0697 9.56027, 11.9569 9.17612, 11.7181 8.98375, 11.3529 8.98318, 10.7117 8.98375, 10.158 9.20531, 9.6926 9.64786, 9.22772 10.091, 8.82181 10.6784, 8.47601 11.4106, 8.28136 12.2419, 8.07354 13.0709, 7.85369 13.8982, 7.63385 14.726, 7.4163 15.5516, 7.20218 16.3754, 7.14607 16.6021, 7.02985 16.771, 6.85352 16.8838, 6.67719 16.9972, 6.50429 17.0533, 6.33483 17.0533, 6.15277 17.0533, 6.00163 16.9926, 5.88197 16.8701, 5.8001 16.7911, 5.75602 16.6811, 5.74972 16.5403, 5.74972 16.4739, 5.75602 16.4063, 5.76861 16.3388 L 7.03271 11.4747 C 7.13348 11.1209, 7.20218 10.7763, 7.23996 10.4396 L 7.23996 10.1648 C 7.23996 9.94557, 7.21477 9.74405, 7.16439 9.56027, 7.05161 9.17612, 6.81287 8.98375, 6.44761 8.98318, 5.8064 8.98375, 5.25335 9.20531, 4.7879 9.64786, 4.32245 10.091, 3.91368 10.6784, 3.56102 11.4106 L 2.26886 16.3754 C 2.21276 16.6021, 2.09768 16.771, 1.92478 16.8838, 1.75188 16.9972, 1.57727 17.0533, 1.40094 17.0533, 1.21258 17.0533, 1.06774 16.9926, 0.966974 16.8701, 0.885678 16.7911, 0.844457 16.6811, 0.844457 16.5403, 0.844457 16.4859, 0.850755 16.4189, 0.86335 16.3388 L 2.31581 10.6686 C 2.41657 10.2725, 2.46695 9.93011, 2.46695 9.64271 L 2.46695 9.42287 C 2.43603 9.13032, 2.28833 8.98375, 2.02383 8.98318, 1.7473 8.98375, 1.51601 9.20703, 1.33052 9.65244, 1.14502 10.0984, 0.964112 10.6784, 0.787779 11.3923, 0.719077 11.5578, 0.602858 11.6431, 0.43912 11.6488 L 0.222139 11.6488 C 0.0709965 11.6494, -0.00457481 11.5732, -0.00457481 11.4198 L -0.00457481 11.3557 C 0.0709965 11.0694, 0.1563 10.7562, 0.250192 10.4173, 0.344656 10.0784, 0.470608 9.75779, 0.627476 9.4555, 0.784916 9.15322, 0.983005 8.89673, 1.22174 8.68605, 1.46105 8.47536, 1.75933 8.37002, 2.11772 8.36945, 2.63412 8.37002, 3.03946 8.52575, 3.33487 8.83719, 3.63029 9.14864, 3.78429 9.45092, 3.79689 9.74347, 4.06139 9.39596, 4.42894 9.07994, 4.90069 8.79597, 5.37244 8.512, 5.91976 8.37002, 6.54207 8.36945, 6.92566 8.37002, 7.27832 8.43872, 7.59893 8.57613, 7.91953 8.71353, 8.168 8.93509, 8.34376 9.23967, 8.4949 9.50302, 8.5762 9.72286, 8.5888 9.8992, 8.86589 9.50874, 9.24947 9.15665, 9.74011 8.84177, 10.2308 8.52746, 10.8061 8.37002, 11.4662 8.36945, 11.8372 8.37002, 12.183 8.43872, 12.5036 8.57613, 12.8242 8.71353, 13.0761 8.93509, 13.2582 9.23967, 13.4471 9.55168, 13.5387 9.90263, 13.5318 10.2931 L 13.5318 10.3389 C 13.5193 10.7305, 13.4631 11.1244, 13.3624 11.5205, 13.2181 12.077, 13.0515 12.6238, 12.8626 13.1608, 12.6737 13.6984, 12.4756 14.2417, 12.2677 14.7907, 12.0794 15.2859, 11.9849 15.701, 11.9849 16.0365, 11.9849 16.3119, 12.1046 16.4493, 12.3433 16.4487, 12.5574 16.4493, 12.7504 16.3852, 12.9233 16.2569, 13.0962 16.1287, 13.2536 15.9563, 13.395 15.7394, 13.537 15.523, 13.6641 15.2665, 13.7775 14.9699, 13.8908 14.6739, 13.991 14.3608, 14.0792 14.0304, 14.117 13.8724, 14.2269 13.7928, 14.4089 13.7923 L 14.6168 13.7923 C 14.686 13.7928, 14.7582 13.814, 14.8337 13.8564, 14.8589 13.9119, 14.8715 13.9577, 14.8715 13.9938, 14.8715 14.019, 14.8624 14.0465, 14.8429 14.0762 Z" stroke="none" fill="#000000" />
			<rect />
		</svg>
	</g>
	<g transform="matrix(1 0 -0 1 74.6998 100.98)">
		<svg width="77.9989777" height="47.9999886">
			<defs />
			<path d="M 7.60694 16.7669 L 0.0808844 16.7669, 0.0808844 16.2732 C 0.0808844 16.2379, 0.0993994 16.184, 0.136429 16.1116 L 3.15998 12.826 C 3.51737 12.4316, 3.87926 12.0277, 4.24619 11.6147, 4.61312 11.2018, 4.9419 10.7799, 5.23141 10.349, 5.52092 9.91808, 5.75207 9.47372, 5.92488 9.01589, 6.09769 8.55807, 6.18353 8.0778, 6.18353 7.57453, 6.18353 7.15037, 6.12798 6.7537, 6.01689 6.38565, 5.9058 6.01759, 5.7459 5.69442, 5.53607 5.41613, 5.32679 5.13785, 5.06478 4.91343, 4.75058 4.74286, 4.43639 4.5723, 4.07226 4.48702, 3.65932 4.48646, 3.04328 4.48702, 2.49905 4.67105, 2.0272 5.0391, 1.55591 5.40716, 1.24284 5.8128, 1.08855 6.25492, 1.05825 6.26726, 1.10762 6.27343, 1.23667 6.27287 L 1.39376 6.27287 C 1.57891 6.31551, 1.73882 6.38004, 1.87459 6.46644, 2.01037 6.5534, 2.12426 6.67291, 2.21684 6.82552, 2.30941 6.97812, 2.35542 7.16215, 2.35542 7.37704, 2.35542 7.73668, 2.23872 8.01216, 2.0042 8.20348, 1.76967 8.39536, 1.50766 8.49074, 1.21815 8.49018, 0.940989 8.49074, 0.681779 8.39536, 0.441646 8.20348, 0.201512 8.01216, 0.0808844 7.73668, 0.0808844 7.37704, 0.0808844 6.87489, 0.179631 6.39911, 0.377124 5.95026, 0.574617 5.50142, 0.842242 5.1126, 1.18112 4.78326, 1.52 4.45448, 1.9206 4.19415, 2.38291 4.00226, 2.84522 3.81094, 3.33559 3.715, 3.85345 3.71444, 4.49474 3.715, 5.08217 3.80926, 5.61518 3.99778, 6.14818 4.18629, 6.60264 4.45728, 6.97855 4.81019, 7.35446 5.16366, 7.64902 5.57211, 7.86166 6.03554, 8.0743 6.49954, 8.18034 7.01235, 8.18034 7.57453, 8.18034 8.19731, 8.03895 8.77071, 7.75506 9.29418, 7.47172 9.81821, 7.1205 10.2985, 6.70139 10.735, 6.28228 11.172, 5.83679 11.5833, 5.36494 11.9693, 4.89365 12.3553, 4.46669 12.7307, 4.08461 13.0954 L 1.95763 15.0972, 4.74104 15.0972 C 5.1293 15.0978, 5.49174 15.095, 5.82726 15.0888, 6.16333 15.0832, 6.44835 15.0708, 6.68287 15.0529, 6.9174 15.0349, 7.03746 15.0232, 7.04307 15.0164, 7.09245 14.9749, 7.13901 14.8913, 7.18222 14.7656, 7.22542 14.64, 7.26525 14.4918, 7.30228 14.3213, 7.33931 14.1507, 7.37634 13.9773, 7.41337 13.8006, 7.4504 13.6244, 7.48407 13.4309, 7.51492 13.221 L 8.19885 13.221 Z" stroke="none" fill="#000000" />
			<path d="M 24.6899 14.0762 C 24.6144 14.4003, 24.5016 14.738, 24.3504 15.089, 24.1993 15.4405, 24.0184 15.7594, 23.8077 16.0462, 23.597 16.3336, 23.3503 16.5729, 23.0674 16.7647, 22.7846 16.9571, 22.4572 17.0533, 22.0856 17.0533, 21.7713 17.0533, 21.5011 16.9863, 21.2743 16.8518, 21.0482 16.7178, 20.877 16.5409, 20.7602 16.321, 20.644 16.1012, 20.5793 15.8447, 20.5667 15.551 L 20.5667 15.4777 C 20.5667 15.2155, 20.6205 14.9499, 20.727 14.6808, 20.9349 14.1438, 21.1266 13.6096, 21.303 13.0783, 21.4793 12.5471, 21.6396 12.0129, 21.7839 11.4747, 21.8846 11.1209, 21.9539 10.7763, 21.9917 10.4396, 22.0043 10.3549, 22.0106 10.2633, 22.0106 10.1648, 22.0106 9.95187, 21.9791 9.75034, 21.9161 9.56027, 21.8028 9.17612, 21.564 8.98375, 21.1988 8.98318, 20.5576 8.98375, 20.004 9.20531, 19.5385 9.64786, 19.073 10.091, 18.6671 10.6784, 18.3213 11.4106, 18.1267 12.2419, 17.9189 13.0709, 17.6985 13.8982, 17.4786 14.726, 17.2616 15.5516, 17.0475 16.3754, 16.9914 16.6021, 16.8752 16.771, 16.6989 16.8838, 16.5225 16.9972, 16.3496 17.0533, 16.1796 17.0533, 15.9975 17.0533, 15.8464 16.9926, 15.7267 16.8701, 15.6454 16.7911, 15.6013 16.6811, 15.5945 16.5403, 15.5945 16.4739, 15.6008 16.4063, 15.6134 16.3388 L 16.8775 11.4747 C 16.9782 11.1209, 17.0475 10.7763, 17.0853 10.4396 L 17.0853 10.1648 C 17.0853 9.94557, 17.0601 9.74405, 17.0097 9.56027, 16.8969 9.17612, 16.6582 8.98375, 16.2929 8.98318, 15.6517 8.98375, 15.0981 9.20531, 14.6327 9.64786, 14.1672 10.091, 13.7584 10.6784, 13.4058 11.4106 L 12.113 16.3754 C 12.0569 16.6021, 11.9419 16.771, 11.769 16.8838, 11.5961 16.9972, 11.4215 17.0533, 11.2451 17.0533, 11.0568 17.0533, 10.9119 16.9926, 10.8112 16.8701, 10.7299 16.7911, 10.6886 16.6811, 10.6886 16.5403, 10.6886 16.4859, 10.6949 16.4189, 10.7075 16.3388 L 12.16 10.6686 C 12.2608 10.2725, 12.3111 9.93011, 12.3111 9.64271 L 12.3111 9.42287 C 12.2802 9.13032, 12.1325 8.98375, 11.868 8.98318, 11.5909 8.98375, 11.3596 9.20703, 11.1741 9.65244, 10.9886 10.0984, 10.8083 10.6784, 10.632 11.3923, 10.5627 11.5578, 10.4465 11.6431, 10.2827 11.6488 L 10.0658 11.6488 C 9.91461 11.6494, 9.83904 11.5732, 9.83904 11.4198 L 9.83904 11.3557 C 9.91461 11.0694, 9.99991 10.7562, 10.0944 10.4173, 10.1888 10.0784, 10.3148 9.75779, 10.4717 9.4555, 10.6291 9.15322, 10.8272 8.89673, 11.0659 8.68605, 11.3052 8.47536, 11.6035 8.37002, 11.9619 8.36945, 12.4783 8.37002, 12.8842 8.52575, 13.1796 8.83719, 13.475 9.14864, 13.6291 9.45092, 13.6416 9.74347, 13.9061 9.39596, 14.2737 9.07994, 14.7454 8.79597, 15.2172 8.512, 15.7645 8.37002, 16.3868 8.36945, 16.771 8.37002, 17.1237 8.43872, 17.4443 8.57613, 17.7649 8.71353, 18.0133 8.93509, 18.1891 9.23967, 18.3402 9.50302, 18.4221 9.72286, 18.4347 9.8992, 18.7118 9.50874, 19.0954 9.15665, 19.586 8.84177, 20.0767 8.52746, 20.652 8.37002, 21.3121 8.36945, 21.6831 8.37002, 22.0295 8.43872, 22.3501 8.57613, 22.6707 8.71353, 22.9226 8.93509, 23.1047 9.23967, 23.2936 9.55168, 23.3852 9.90263, 23.3783 10.2931 L 23.3783 10.3389 C 23.3657 10.7305, 23.3096 11.1244, 23.2089 11.5205, 23.064 12.077, 22.8974 12.6238, 22.7085 13.1608, 22.5201 13.6984, 22.322 14.2417, 22.1142 14.7907, 21.9253 15.2859, 21.8308 15.701, 21.8308 16.0365, 21.8308 16.3119, 21.9505 16.4493, 22.1898 16.4487, 22.4039 16.4493, 22.5968 16.3852, 22.7697 16.2569, 22.9426 16.1287, 23.1001 15.9563, 23.2415 15.7394, 23.3835 15.523, 23.5106 15.2665, 23.6239 14.9699, 23.7373 14.6739, 23.8375 14.3608, 23.9256 14.0304, 23.9634 13.8724, 24.0739 13.7928, 24.256 13.7923 L 24.4632 13.7923 C 24.5331 13.7928, 24.6052 13.814, 24.6802 13.8564, 24.7054 13.9119, 24.718 13.9577, 24.718 13.9938, 24.718 14.019, 24.7088 14.0465, 24.6899 14.0762 Z" stroke="none" fill="#000000" />
			<rect />
		</svg>
	</g>
	<path d="M 0 140.863 L 0 -140.863" fill="none" stroke="#000000" stroke-width="4.26666689" stroke-linecap="round" stroke-linejoin="round" transform="matrix(0.3125 0 0 0.3125 26.4552 111.245)" />
	<path d="M -57.4565 -48.5843 L 57.4565 -48.5843, 57.4565 48.5843, -57.4565 48.5843 Z" fill="none" stroke="#000000" stroke-width="4.26666689" stroke-linecap="round" stroke-linejoin="round" transform="matrix(0.3125 0 -0 0.3125 26.4552 170.447)" />
	<g transform="matrix(1 0 -0 1 19.0157 159.24)">
		<svg width="48.0251122" height="32.9571342">
			<defs />
			<path d="M 14.8512 14.0762 C 14.7756 14.4003, 14.6628 14.738, 14.5117 15.089, 14.3606 15.4405, 14.1796 15.7594, 13.969 16.0462, 13.7583 16.3336, 13.5115 16.5729, 13.2287 16.7647, 12.9459 16.9571, 12.6184 17.0533, 12.2468 17.0533, 11.9325 17.0533, 11.6623 16.9863, 11.4356 16.8518, 11.2095 16.7178, 11.0383 16.5409, 10.9215 16.321, 10.8053 16.1012, 10.7406 15.8447, 10.728 15.551 L 10.728 15.4777 C 10.728 15.2155, 10.7818 14.9499, 10.8883 14.6808, 11.0961 14.1438, 11.2879 13.6096, 11.4642 13.0783, 11.6406 12.5471, 11.8009 12.0129, 11.9451 11.4747, 12.0459 11.1209, 12.1152 10.7763, 12.153 10.4396, 12.1656 10.3549, 12.1718 10.2633, 12.1718 10.1648, 12.1718 9.95187, 12.1404 9.75034, 12.0774 9.56027, 11.964 9.17612, 11.7253 8.98375, 11.36 8.98318, 10.7188 8.98375, 10.1652 9.20531, 9.69975 9.64786, 9.2343 10.091, 8.82839 10.6784, 8.4826 11.4106, 8.28794 12.2419, 8.08012 13.0709, 7.8597 13.8982, 7.63986 14.726, 7.42288 15.5516, 7.20876 16.3754, 7.15266 16.6021, 7.03644 16.771, 6.8601 16.8838, 6.68377 16.9972, 6.51087 17.0533, 6.34084 17.0533, 6.15878 17.0533, 6.00764 16.9926, 5.88798 16.8701, 5.80668 16.7911, 5.7626 16.6811, 5.75573 16.5403, 5.75573 16.4739, 5.76203 16.4063, 5.77462 16.3388 L 7.03873 11.4747 C 7.13949 11.1209, 7.20876 10.7763, 7.24655 10.4396 L 7.24655 10.1648 C 7.24655 9.94557, 7.22136 9.74405, 7.17098 9.56027, 7.05819 9.17612, 6.81945 8.98375, 6.45419 8.98318, 5.81298 8.98375, 5.25937 9.20531, 4.79391 9.64786, 4.32846 10.091, 3.91969 10.6784, 3.56703 11.4106 L 2.2743 16.3754 C 2.21819 16.6021, 2.10312 16.771, 1.93022 16.8838, 1.75732 16.9972, 1.58271 17.0533, 1.40637 17.0533, 1.21802 17.0533, 1.07317 16.9926, 0.972413 16.8701, 0.891116 16.7911, 0.849895 16.6811, 0.849895 16.5403, 0.849895 16.4859, 0.856193 16.4189, 0.868788 16.3388 L 2.32125 10.6686 C 2.42201 10.2725, 2.47239 9.93011, 2.47239 9.64271 L 2.47239 9.42287 C 2.44147 9.13032, 2.29376 8.98375, 2.02927 8.98318, 1.75217 8.98375, 1.52088 9.20703, 1.33538 9.65244, 1.14989 10.0984, 0.96955 10.6784, 0.793217 11.3923, 0.723943 11.5578, 0.607724 11.6431, 0.443986 11.6488 L 0.227005 11.6488 C 0.0758623 11.6494, 0.00029096 11.5732, 0.00029096 11.4198 L 0.00029096 11.3557 C 0.0758623 11.0694, 0.161166 10.7562, 0.25563 10.4173, 0.350094 10.0784, 0.476047 9.75779, 0.632914 9.4555, 0.790354 9.15322, 0.988443 8.89673, 1.22718 8.68605, 1.46649 8.47536, 1.76477 8.37002, 2.12316 8.36945, 2.63956 8.37002, 3.04547 8.52575, 3.34089 8.83719, 3.6363 9.14864, 3.79031 9.45092, 3.8029 9.74347, 4.0674 9.39596, 4.43495 9.07994, 4.9067 8.79597, 5.37845 8.512, 5.92577 8.37002, 6.54808 8.36945, 6.93224 8.37002, 7.2849 8.43872, 7.60551 8.57613, 7.92612 8.71353, 8.17458 8.93509, 8.35035 9.23967, 8.50149 9.50302, 8.58336 9.72286, 8.59595 9.8992, 8.87305 9.50874, 9.25663 9.15665, 9.74727 8.84177, 10.2379 8.52746, 10.8133 8.37002, 11.4734 8.36945, 11.8444 8.37002, 12.1907 8.43872, 12.5113 8.57613, 12.832 8.71353, 13.0839 8.93509, 13.2659 9.23967, 13.4548 9.55168, 13.5464 9.90263, 13.5396 10.2931 L 13.5396 10.3389 C 13.527 10.7305, 13.4709 11.1244, 13.3701 11.5205, 13.2253 12.077, 13.0587 12.6238, 12.8697 13.1608, 12.6814 13.6984, 12.4833 14.2417, 12.2755 14.7907, 12.0865 15.2859, 11.9921 15.701, 11.9921 16.0365, 11.9921 16.3119, 12.1117 16.4493, 12.351 16.4487, 12.5652 16.4493, 12.7581 16.3852, 12.931 16.2569, 13.1039 16.1287, 13.2613 15.9563, 13.4027 15.7394, 13.5447 15.523, 13.6718 15.2665, 13.7852 14.9699, 13.8985 14.6739, 13.9987 14.3608, 14.0869 14.0304, 14.1247 13.8724, 14.2352 13.7928, 14.4172 13.7923 L 14.6245 13.7923 C 14.6943 13.7928, 14.7665 13.814, 14.8415 13.8564, 14.8667 13.9119, 14.8792 13.9577, 14.8792 13.9938, 14.8792 14.019, 14.8701 14.0465, 14.8512 14.0762 Z" stroke="none" fill="#000000" />
			<rect />
		</svg>
	</g>
	<path d="M -57.4567 -48.5843 L 57.4567 -48.5843, 57.4567 48.5843, -57.4567 48.5843 Z" fill="none" stroke="#000000" stroke-width="4.26666689" stroke-linecap="round" stroke-linejoin="round" transform="matrix(0.3125 0 -0 0.3125 117.588 170.447)" />
	<g transform="matrix(1 0 -0 1 110.148 159.24)">
		<svg width="48.0251122" height="32.9571342">
			<defs />
			<path d="M 14.8512 14.0762 C 14.7756 14.4003, 14.6628 14.738, 14.5117 15.089, 14.3606 15.4405, 14.1796 15.7594, 13.969 16.0462, 13.7583 16.3336, 13.5115 16.5729, 13.2287 16.7647, 12.9459 16.9571, 12.6184 17.0533, 12.2468 17.0533, 11.9325 17.0533, 11.6623 16.9863, 11.4356 16.8518, 11.2095 16.7178, 11.0383 16.5409, 10.9215 16.321, 10.8053 16.1012, 10.7406 15.8447, 10.728 15.551 L 10.728 15.4777 C 10.728 15.2155, 10.7818 14.9499, 10.8883 14.6808, 11.0961 14.1438, 11.2879 13.6096, 11.4642 13.0783, 11.6406 12.5471, 11.8009 12.0129, 11.9451 11.4747, 12.0459 11.1209, 12.1152 10.7763, 12.153 10.4396, 12.1656 10.3549, 12.1718 10.2633, 12.1718 10.1648, 12.1718 9.95187, 12.1404 9.75034, 12.0774 9.56027, 11.964 9.17612, 11.7253 8.98375, 11.36 8.98318, 10.7188 8.98375, 10.1652 9.20531, 9.69975 9.64786, 9.2343 10.091, 8.82839 10.6784, 8.4826 11.4106, 8.28794 12.2419, 8.08012 13.0709, 7.8597 13.8982, 7.63986 14.726, 7.42288 15.5516, 7.20876 16.3754, 7.15266 16.6021, 7.03644 16.771, 6.8601 16.8838, 6.68377 16.9972, 6.51087 17.0533, 6.34084 17.0533, 6.15878 17.0533, 6.00764 16.9926, 5.88798 16.8701, 5.80668 16.7911, 5.7626 16.6811, 5.75573 16.5403, 5.75573 16.4739, 5.76203 16.4063, 5.77462 16.3388 L 7.03873 11.4747 C 7.13949 11.1209, 7.20876 10.7763, 7.24655 10.4396 L 7.24655 10.1648 C 7.24655 9.94557, 7.22136 9.74405, 7.17098 9.56027, 7.05819 9.17612, 6.81945 8.98375, 6.45419 8.98318, 5.81298 8.98375, 5.25937 9.20531, 4.79391 9.64786, 4.32846 10.091, 3.91969 10.6784, 3.56703 11.4106 L 2.2743 16.3754 C 2.21819 16.6021, 2.10312 16.771, 1.93022 16.8838, 1.75732 16.9972, 1.58271 17.0533, 1.40637 17.0533, 1.21802 17.0533, 1.07317 16.9926, 0.972413 16.8701, 0.891116 16.7911, 0.849895 16.6811, 0.849895 16.5403, 0.849895 16.4859, 0.856193 16.4189, 0.868788 16.3388 L 2.32125 10.6686 C 2.42201 10.2725, 2.47239 9.93011, 2.47239 9.64271 L 2.47239 9.42287 C 2.44147 9.13032, 2.29376 8.98375, 2.02927 8.98318, 1.75217 8.98375, 1.52088 9.20703, 1.33538 9.65244, 1.14989 10.0984, 0.96955 10.6784, 0.793217 11.3923, 0.723943 11.5578, 0.607724 11.6431, 0.443986 11.6488 L 0.227005 11.6488 C 0.0758623 11.6494, 0.00029096 11.5732, 0.00029096 11.4198 L 0.00029096 11.3557 C 0.0758623 11.0694, 0.161166 10.7562, 0.25563 10.4173, 0.350094 10.0784, 0.476047 9.75779, 0.632914 9.4555, 0.790354 9.15322, 0.988443 8.89673, 1.22718 8.68605, 1.46649 8.47536, 1.76477 8.37002, 2.12316 8.36945, 2.63956 8.37002, 3.04547 8.52575, 3.34089 8.83719, 3.6363 9.14864, 3.79031 9.45092, 3.8029 9.74347, 4.0674 9.39596, 4.43495 9.07994, 4.9067 8.79597, 5.37845 8.512, 5.92577 8.37002, 6.54808 8.36945, 6.93224 8.37002, 7.2849 8.43872, 7.60551 8.57613, 7.92612 8.71353, 8.17458 8.93509, 8.35035 9.23967, 8.50149 9.50302, 8.58336 9.72286, 8.59595 9.8992, 8.87305 9.50874, 9.25663 9.15665, 9.74727 8.84177, 10.2379 8.52746, 10.8133 8.37002, 11.4734 8.36945, 11.8444 8.37002, 12.1907 8.43872, 12.5113 8.57613, 12.832 8.71353, 13.0839 8.93509, 13.2659 9.23967, 13.4548 9.55168, 13.5464 9.90263, 13.5396 10.2931 L 13.5396 10.3389 C 13.527 10.7305, 13.4709 11.1244, 13.3701 11.5205, 13.2253 12.077, 13.0587 12.6238, 12.8697 13.1608, 12.6814 13.6984, 12.4833 14.2417, 12.2755 14.7907, 12.0865 15.2859, 11.9921 15.701, 11.9921 16.0365, 11.9921 16.3119, 12.1117 16.4493, 12.351 16.4487, 12.5652 16.4493, 12.7581 16.3852, 12.931 16.2569, 13.1039 16.1287, 13.2613 15.9563, 13.4027 15.7394, 13.5447 15.523, 13.6718 15.2665, 13.7852 14.9699, 13.8985 14.6739, 13.9987 14.3608, 14.0869 14.0304, 14.1247 13.8724, 14.2352 13.7928, 14.4172 13.7923 L 14.6245 13.7923 C 14.6943 13.7928, 14.7665 13.814, 14.8415 13.8564, 14.8667 13.9119, 14.8792 13.9577, 14.8792 13.9938, 14.8792 14.019, 14.8701 14.0465, 14.8512 14.0762 Z" stroke="none" fill="#000000" />
			<rect />
		</svg>
	</g>
	<path d="M 0 140.863 L 0 -140.863" fill="none" stroke="#000000" stroke-width="4.26666689" stroke-linecap="round" stroke-linejoin="round" transform="matrix(0.3125 0 0 0.3125 117.588 111.245)" />
	<ellipse cx="516.7282772064209" cy="436.51431846618652" rx="8.3999996185302734" ry="8.3999996185302734" stroke="none" fill="#000000" transform="matrix(0.3125 0 0 0.3125 -74.2673 -69.185)" />
</svg>
