<?xml version="1.0"?>
<svg xmlns="http://www.w3.org/2000/svg" xmlns:xlink="http://www.w3.org/1999/xlink" width="223.88887" height="328.333313">
	<defs>
		<marker id="CustomMarker-01" markerUnits="strokeWidth" markerWidth="15.000001" markerHeight="9" viewBox="-15 -4.5 15 9" orient="auto-start-reverse">
			<path d="M 0 -0 L -10 -3, -8 -0.5, -8 0.5, -10 3 Z" fill="#000000" stroke="#000000" stroke-linejoin="round" />
		</marker>
		<marker id="CustomMarker-02" markerUnits="strokeWidth" markerWidth="15.000001" markerHeight="9" viewBox="-15 -4.5 15 9" orient="auto-start-reverse">
			<path d="M 0 -0 L -10 -3, -8 -0.5, -8 0.5, -10 3 Z" fill="#000000" stroke="#000000" stroke-linejoin="round" />
		</marker>
		<marker id="CustomMarker-03" markerUnits="strokeWidth" markerWidth="15.000001" markerHeight="9" viewBox="-15 -4.5 15 9" orient="auto-start-reverse">
			<path d="M 0 -0 L -10 -3, -8 -0.5, -8 0.5, -10 3 Z" fill="#000000" stroke="#000000" stroke-linejoin="round" />
		</marker>
		<marker id="CustomMarker-04" markerUnits="strokeWidth" markerWidth="15.000001" markerHeight="9" viewBox="-15 -4.5 15 9" orient="auto-start-reverse">
			<path d="M 0 -0 L -10 -3, -8 -0.5, -8 0.5, -10 3 Z" fill="#000000" stroke="#000000" stroke-linejoin="round" />
		</marker>
		<marker id="CustomMarker-05" markerUnits="strokeWidth" markerWidth="15.000001" markerHeight="9" viewBox="-15 -4.5 15 9" orient="auto-start-reverse">
			<path d="M 0 -0 L -10 -3, -8 -0.5, -8 0.5, -10 3 Z" fill="#000000" stroke="#000000" stroke-linejoin="round" />
		</marker>
		<marker id="CustomMarker-06" markerUnits="strokeWidth" markerWidth="15.000001" markerHeight="9" viewBox="-15 -4.5 15 9" orient="auto-start-reverse">
			<path d="M 0 -0 L -10 -3, -8 -0.5, -8 0.5, -10 3 Z" fill="#000000" stroke="#000000" stroke-linejoin="round" />
		</marker>
		<marker id="CustomMarker-07" markerUnits="strokeWidth" markerWidth="15.000001" markerHeight="9" viewBox="-15 -4.5 15 9" orient="auto-start-reverse">
			<path d="M 0 -0 L -10 -3, -8 -0.5, -8 0.5, -10 3 Z" fill="#000000" stroke="#000000" stroke-linejoin="round" />
		</marker>
		<marker id="CustomMarker-08" markerUnits="strokeWidth" markerWidth="15.000001" markerHeight="9" viewBox="-15 -4.5 15 9" orient="auto-start-reverse">
			<path d="M 0 -0 L -10 -3, -8 -0.5, -8 0.5, -10 3 Z" fill="#000000" stroke="#000000" stroke-linejoin="round" />
		</marker>
		<marker id="CustomMarker-09" markerUnits="strokeWidth" markerWidth="15.000001" markerHeight="9" viewBox="-15 -4.5 15 9" orient="auto-start-reverse">
			<path d="M 0 -0 L -10 -3, -8 -0.5, -8 0.5, -10 3 Z" fill="#000000" stroke="#000000" stroke-linejoin="round" />
		</marker>
	</defs>
	<path d="M 145.812 -0 C 145.812 80.5299, 80.5299 145.812, -0 145.812, -80.5299 145.812, -145.812 80.5299, -145.812 -0, -145.812 -80.5299, -80.5299 -145.812, -0 -145.812, 80.5299 -145.812, 145.812 -80.5299, 145.812 -0 Z" fill="none" stroke="#000000" stroke-opacity="0.199999988" stroke-width="6.40000057" stroke-linecap="round" stroke-linejoin="round" transform="matrix(0.416667 0 0 0.416667 128.029 98.2006)" />
	<path d="M 72.9061 -0 C 72.9061 40.2649, 40.2649 72.9061, -0 72.9061, -40.2649 72.9061, -72.9061 40.2649, -72.9061 -0, -72.9061 -40.2649, -40.2649 -72.9061, -0 -72.9061, 40.2649 -72.9061, 72.9061 -40.2649, 72.9061 -0 Z" fill="none" stroke="#000000" stroke-opacity="0.199999988" stroke-width="6.40000057" stroke-linecap="round" stroke-linejoin="round" transform="matrix(0.416667 0 0 0.416667 128.029 98.2006)" />
	<path d="M 0 -67.7831 L 0.000244141 67.7839" fill="none" stroke="#000000" stroke-width="3.20000029" stroke-linecap="round" stroke-linejoin="round" marker-end="url(#CustomMarker-01)" transform="matrix(0.416667 0 0 0.416667 67.2738 291.588)" />
	<g transform="matrix(1 0 -0 1 31.0298 297.311)">
		<svg width="75.040184" height="41.9571342">
			<defs />
			<path d="M 14.8519 14.0762 C 14.7764 14.4003, 14.6636 14.738, 14.5124 15.089, 14.3613 15.4405, 14.1804 15.7594, 13.9697 16.0462, 13.759 16.3336, 13.5123 16.5729, 13.2295 16.7647, 12.9466 16.9571, 12.6192 17.0533, 12.2476 17.0533, 11.9333 17.0533, 11.6631 16.9863, 11.4364 16.8518, 11.2102 16.7178, 11.039 16.5409, 10.9222 16.321, 10.806 16.1012, 10.7413 15.8447, 10.7287 15.551 L 10.7287 15.4777 C 10.7287 15.2155, 10.7825 14.9499, 10.889 14.6808, 11.0969 14.1438, 11.2886 13.6096, 11.465 13.0783, 11.6413 12.5471, 11.8016 12.0129, 11.9459 11.4747, 12.0466 11.1209, 12.1159 10.7763, 12.1537 10.4396, 12.1663 10.3549, 12.1726 10.2633, 12.1726 10.1648, 12.1726 9.95187, 12.1411 9.75034, 12.0781 9.56027, 11.9648 9.17612, 11.726 8.98375, 11.3608 8.98318, 10.7196 8.98375, 10.166 9.20531, 9.7005 9.64786, 9.23505 10.091, 8.82914 10.6784, 8.48335 11.4106, 8.28869 12.2419, 8.08087 13.0709, 7.86046 13.8982, 7.64061 14.726, 7.42363 15.5516, 7.20951 16.3754, 7.15341 16.6021, 7.03719 16.771, 6.86086 16.8838, 6.68452 16.9972, 6.51162 17.0533, 6.34159 17.0533, 6.15953 17.0533, 6.00839 16.9926, 5.88873 16.8701, 5.80744 16.7911, 5.76335 16.6811, 5.75648 16.5403, 5.75648 16.4739, 5.76278 16.4063, 5.77538 16.3388 L 7.03948 11.4747 C 7.14024 11.1209, 7.20951 10.7763, 7.2473 10.4396 L 7.2473 10.1648 C 7.2473 9.94557, 7.22211 9.74405, 7.17173 9.56027, 7.05894 9.17612, 6.82021 8.98375, 6.45495 8.98318, 5.81374 8.98375, 5.26012 9.20531, 4.79467 9.64786, 4.32922 10.091, 3.92045 10.6784, 3.56778 11.4106 L 2.27505 16.3754 C 2.21895 16.6021, 2.10387 16.771, 1.93097 16.8838, 1.75808 16.9972, 1.58346 17.0533, 1.40713 17.0533, 1.21877 17.0533, 1.07393 16.9926, 0.973165 16.8701, 0.891869 16.7911, 0.850648 16.6811, 0.850648 16.5403, 0.850648 16.4859, 0.856946 16.4189, 0.869541 16.3388 L 2.322 10.6686 C 2.42276 10.2725, 2.47314 9.93011, 2.47314 9.64271 L 2.47314 9.42287 C 2.44223 9.13032, 2.29452 8.98375, 2.03002 8.98318, 1.75292 8.98375, 1.52163 9.20703, 1.33614 9.65244, 1.15064 10.0984, 0.970303 10.6784, 0.79397 11.3923, 0.724696 11.5578, 0.608477 11.6431, 0.444739 11.6488 L 0.227758 11.6488 C 0.076615 11.6494, 0.00104374 11.5732, 0.00104374 11.4198 L 0.00104374 11.3557 C 0.076615 11.0694, 0.161919 10.7562, 0.256383 10.4173, 0.350847 10.0784, 0.476799 9.75779, 0.633667 9.4555, 0.791107 9.15322, 0.989196 8.89673, 1.22793 8.68605, 1.46724 8.47536, 1.76552 8.37002, 2.12391 8.36945, 2.64031 8.37002, 3.04622 8.52575, 3.34164 8.83719, 3.63705 9.14864, 3.79106 9.45092, 3.80365 9.74347, 4.06815 9.39596, 4.4357 9.07994, 4.90745 8.79597, 5.3792 8.512, 5.92652 8.37002, 6.54884 8.36945, 6.93299 8.37002, 7.28566 8.43872, 7.60626 8.57613, 7.92687 8.71353, 8.17534 8.93509, 8.3511 9.23967, 8.50224 9.50302, 8.58411 9.72286, 8.5967 9.8992, 8.8738 9.50874, 9.25738 9.15665, 9.74802 8.84177, 10.2387 8.52746, 10.814 8.37002, 11.4741 8.36945, 11.8451 8.37002, 12.1915 8.43872, 12.5121 8.57613, 12.8327 8.71353, 13.0846 8.93509, 13.2667 9.23967, 13.4556 9.55168, 13.5472 9.90263, 13.5403 10.2931 L 13.5403 10.3389 C 13.5277 10.7305, 13.4716 11.1244, 13.3709 11.5205, 13.226 12.077, 13.0594 12.6238, 12.8705 13.1608, 12.6821 13.6984, 12.484 14.2417, 12.2762 14.7907, 12.0873 15.2859, 11.9928 15.701, 11.9928 16.0365, 11.9928 16.3119, 12.1125 16.4493, 12.3518 16.4487, 12.5659 16.4493, 12.7589 16.3852, 12.9317 16.2569, 13.1046 16.1287, 13.2621 15.9563, 13.4035 15.7394, 13.5455 15.523, 13.6726 15.2665, 13.7859 14.9699, 13.8993 14.6739, 13.9995 14.3608, 14.0876 14.0304, 14.1254 13.8724, 14.2359 13.7928, 14.418 13.7923 L 14.6252 13.7923 C 14.6951 13.7928, 14.7672 13.814, 14.8422 13.8564, 14.8674 13.9119, 14.88 13.9577, 14.88 13.9938, 14.88 14.019, 14.8708 14.0465, 14.8519 14.0762 Z" stroke="none" fill="#000000" />
			<path d="M 21.679 17.9876 C 21.5725 18.3849, 21.3882 18.7513, 21.1271 19.0868, 20.866 19.4229, 20.5626 19.7097, 20.2168 19.9479, 19.871 20.1861, 19.4909 20.3727, 19.0758 20.5067, 18.6607 20.6412, 18.2457 20.7082, 17.83 20.7082, 17.5472 20.7082, 17.2455 20.6962, 16.9249 20.6715, 16.6043 20.6475, 16.3134 20.588, 16.0524 20.4929, 15.7913 20.3985, 15.5949 20.2502, 15.4627 20.0486, 15.3619 19.9267, 15.3087 19.771, 15.3024 19.5815, 15.3024 19.4899, 15.315 19.3834, 15.3402 19.2609, 15.4094 18.9861, 15.5509 18.7817, 15.7644 18.6471, 15.9785 18.5132, 16.1921 18.4456, 16.4056 18.4456, 16.626 18.4456, 16.8087 18.516, 16.9529 18.6563, 17.06 18.7605, 17.1132 18.8945, 17.1132 19.0594, 17.1132 19.1269, 17.1006 19.2059, 17.0754 19.2975, 17.0319 19.4933, 16.9501 19.6536, 16.8304 19.7784, 16.7113 19.9038, 16.6449 19.9662, 16.6323 19.9662, 16.6701 19.9845, 16.8167 20.0109, 17.0709 20.0441, 17.3256 20.0778, 17.6136 20.0944, 17.9342 20.0944, 18.1918 20.0944, 18.442 20.0383, 18.6842 19.925, 18.9264 19.8122, 19.1514 19.6548, 19.3586 19.4532, 19.5659 19.2517, 19.7485 19.0227, 19.9054 18.7662, 20.0628 18.5097, 20.179 18.2384, 20.2546 17.951 L 20.7544 15.9907 C 20.6101 16.1315, 20.3519 16.309, 19.9809 16.5226, 19.6099 16.7367, 19.2235 16.8426, 18.8205 16.8426, 18.3367 16.8426, 17.9205 16.7229, 17.5712 16.4813, 17.222 16.2403, 16.9529 15.93, 16.764 15.551, 16.5379 15.1119, 16.4182 14.6356, 16.4056 14.122 L 16.4056 14.0121 C 16.4056 13.5426, 16.4686 13.0663, 16.5945 12.5831, 16.7268 12.0461, 16.9312 11.5291, 17.2077 11.031, 17.4848 10.5335, 17.846 10.0675, 18.2926 9.63355, 18.6573 9.26772, 19.0706 8.96543, 19.5327 8.72727, 19.9952 8.4891, 20.4653 8.37002, 20.9433 8.36945, 21.3521 8.37002, 21.6922 8.4788, 21.9624 8.69521, 22.2326 8.91219, 22.4055 9.09367, 22.4805 9.23967 L 22.4336 9.41371 C 22.4902 9.18814, 22.6047 9.02039, 22.7776 8.91047, 22.9505 8.80055, 23.1252 8.74559, 23.3015 8.74502, 23.4841 8.74559, 23.6353 8.80341, 23.7543 8.91906, 23.8362 8.99921, 23.8769 9.10913, 23.8769 9.24883, 23.8769 9.31638, 23.8706 9.38394, 23.858 9.45035 Z M 22.1221 10.6412 C 22.1095 10.5255, 22.0906 10.4127, 22.0654 10.3028, 22.0403 10.1929, 22.0122 10.083, 21.9807 9.97248, 21.8799 9.68622, 21.7368 9.44978, 21.5513 9.26314, 21.3658 9.07707, 21.1317 8.98375, 20.8489 8.98318, 20.5849 8.98375, 20.3239 9.07879, 20.0662 9.26772, 19.8086 9.45722, 19.5727 9.69538, 19.3586 9.98164, 19.0695 10.379, 18.8497 10.802, 18.6985 11.2509, 18.5474 11.6997, 18.406 12.156, 18.2737 12.6198, 18.1604 13.0967, 18.063 13.561, 17.9812 14.0121, 17.9308 14.2325, 17.9056 14.4461, 17.9056 14.6533, 17.9056 14.8737, 17.9308 15.0844, 17.9812 15.2854, 18.0378 15.5607, 18.1449 15.7897, 18.3018 15.973, 18.4592 16.1562, 18.6699 16.2478, 18.9338 16.2472, 19.2235 16.2478, 19.5126 16.1487, 19.8017 15.9501, 20.0914 15.752, 20.3617 15.5121, 20.613 15.2304, 20.7956 15.0174, 20.9685 14.785, 21.1317 14.5342 L 22.1221 10.6412 Z" stroke="none" fill="#000000" />
			<rect />
		</svg>
	</g>
	<path d="M 0 179.955 L 0 -179.955" fill="none" stroke="#000000" stroke-opacity="0.199999988" stroke-width="6.40000057" stroke-linecap="round" stroke-linejoin="round" transform="matrix(0.416667 0 0 0.416667 67.2739 173.182)" />
	<path d="M -43.0924 -36.438 L 43.0924 -36.438, 43.0924 36.438, -43.0924 36.438 Z" fill="none" stroke="#000000" stroke-opacity="0.199999988" stroke-width="6.40000057" stroke-linecap="round" stroke-linejoin="round" transform="matrix(0.416667 0 -0 0.416667 67.2739 263.345)" />
	<path d="M -43.0927 -36.438 L 43.0927 -36.438, 43.0927 36.438, -43.0927 36.438 Z" fill="none" stroke="#000000" stroke-opacity="0.199999988" stroke-width="6.40000057" stroke-linecap="round" stroke-linejoin="round" transform="matrix(0.416667 0 -0 0.416667 158.406 263.345)" />
	<path d="M 0 179.955 L 0 -179.955" fill="none" stroke="#000000" stroke-opacity="0.29411763" stroke-width="6.40000057" stroke-linecap="round" stroke-linejoin="round" transform="matrix(0.416667 0 0 0.416667 158.406 173.182)" />
	<ellipse cx="406.77579975128174" cy="326.93415546417236" rx="6.3000001907348633" ry="6.3000001907348633" stroke="none" fill="#000000" transform="matrix(0.416667 0 0 0.416667 -41.461 -38.022)" />
	<path d="M 0 85.4184 L 0 -85.4175" fill="none" stroke="#000000" stroke-width="3.20000029" stroke-linecap="round" stroke-linejoin="round" marker-end="url(#CustomMarker-02)" transform="matrix(0.416667 0 0 0.416667 158.406 225.779)" />
	<ellipse cx="260.96386432647705" cy="725.12147235870361" rx="6.3000001907348633" ry="6.3000001907348633" stroke="none" fill="#000000" transform="matrix(0.416667 0 0 0.416667 -41.461 -38.022)" />
	<ellipse cx="479.68189716339111" cy="723.28156757354736" rx="6.3000001907348633" ry="6.3000001907348633" stroke="none" fill="#000000" transform="matrix(0.416667 0 0 0.416667 -41.461 -38.022)" />
	<path d="M -6.10352e-005 -67.7831 L 0 67.7839" fill="none" stroke="#000000" stroke-width="3.20000029" stroke-linecap="round" stroke-linejoin="round" marker-end="url(#CustomMarker-03)" transform="matrix(0.416667 0 0 0.416667 158.406 291.588)" />
	<g transform="matrix(1 0 -0 1 169.666 297.311)">
		<svg width="75.040184" height="41.9571342">
			<defs />
			<path d="M 14.8519 14.0762 C 14.7764 14.4003, 14.6636 14.738, 14.5124 15.089, 14.3613 15.4405, 14.1804 15.7594, 13.9697 16.0462, 13.759 16.3336, 13.5123 16.5729, 13.2295 16.7647, 12.9466 16.9571, 12.6192 17.0533, 12.2476 17.0533, 11.9333 17.0533, 11.6631 16.9863, 11.4364 16.8518, 11.2102 16.7178, 11.039 16.5409, 10.9222 16.321, 10.806 16.1012, 10.7413 15.8447, 10.7287 15.551 L 10.7287 15.4777 C 10.7287 15.2155, 10.7825 14.9499, 10.889 14.6808, 11.0969 14.1438, 11.2886 13.6096, 11.465 13.0783, 11.6413 12.5471, 11.8016 12.0129, 11.9459 11.4747, 12.0466 11.1209, 12.1159 10.7763, 12.1537 10.4396, 12.1663 10.3549, 12.1726 10.2633, 12.1726 10.1648, 12.1726 9.95187, 12.1411 9.75034, 12.0781 9.56027, 11.9648 9.17612, 11.726 8.98375, 11.3608 8.98318, 10.7196 8.98375, 10.166 9.20531, 9.7005 9.64786, 9.23505 10.091, 8.82914 10.6784, 8.48335 11.4106, 8.28869 12.2419, 8.08087 13.0709, 7.86046 13.8982, 7.64061 14.726, 7.42363 15.5516, 7.20951 16.3754, 7.15341 16.6021, 7.03719 16.771, 6.86086 16.8838, 6.68452 16.9972, 6.51162 17.0533, 6.34159 17.0533, 6.15953 17.0533, 6.00839 16.9926, 5.88873 16.8701, 5.80744 16.7911, 5.76335 16.6811, 5.75648 16.5403, 5.75648 16.4739, 5.76278 16.4063, 5.77538 16.3388 L 7.03948 11.4747 C 7.14024 11.1209, 7.20951 10.7763, 7.2473 10.4396 L 7.2473 10.1648 C 7.2473 9.94557, 7.22211 9.74405, 7.17173 9.56027, 7.05894 9.17612, 6.82021 8.98375, 6.45495 8.98318, 5.81374 8.98375, 5.26012 9.20531, 4.79467 9.64786, 4.32922 10.091, 3.92045 10.6784, 3.56778 11.4106 L 2.27505 16.3754 C 2.21895 16.6021, 2.10387 16.771, 1.93097 16.8838, 1.75808 16.9972, 1.58346 17.0533, 1.40713 17.0533, 1.21877 17.0533, 1.07393 16.9926, 0.973165 16.8701, 0.891869 16.7911, 0.850648 16.6811, 0.850648 16.5403, 0.850648 16.4859, 0.856946 16.4189, 0.869541 16.3388 L 2.322 10.6686 C 2.42276 10.2725, 2.47314 9.93011, 2.47314 9.64271 L 2.47314 9.42287 C 2.44223 9.13032, 2.29452 8.98375, 2.03002 8.98318, 1.75292 8.98375, 1.52163 9.20703, 1.33614 9.65244, 1.15064 10.0984, 0.970303 10.6784, 0.79397 11.3923, 0.724696 11.5578, 0.608477 11.6431, 0.444739 11.6488 L 0.227758 11.6488 C 0.076615 11.6494, 0.00104374 11.5732, 0.00104374 11.4198 L 0.00104374 11.3557 C 0.076615 11.0694, 0.161919 10.7562, 0.256383 10.4173, 0.350847 10.0784, 0.476799 9.75779, 0.633667 9.4555, 0.791107 9.15322, 0.989196 8.89673, 1.22793 8.68605, 1.46724 8.47536, 1.76552 8.37002, 2.12391 8.36945, 2.64031 8.37002, 3.04622 8.52575, 3.34164 8.83719, 3.63705 9.14864, 3.79106 9.45092, 3.80365 9.74347, 4.06815 9.39596, 4.4357 9.07994, 4.90745 8.79597, 5.3792 8.512, 5.92652 8.37002, 6.54884 8.36945, 6.93299 8.37002, 7.28566 8.43872, 7.60626 8.57613, 7.92687 8.71353, 8.17534 8.93509, 8.3511 9.23967, 8.50224 9.50302, 8.58411 9.72286, 8.5967 9.8992, 8.8738 9.50874, 9.25738 9.15665, 9.74802 8.84177, 10.2387 8.52746, 10.814 8.37002, 11.4741 8.36945, 11.8451 8.37002, 12.1915 8.43872, 12.5121 8.57613, 12.8327 8.71353, 13.0846 8.93509, 13.2667 9.23967, 13.4556 9.55168, 13.5472 9.90263, 13.5403 10.2931 L 13.5403 10.3389 C 13.5277 10.7305, 13.4716 11.1244, 13.3709 11.5205, 13.226 12.077, 13.0594 12.6238, 12.8705 13.1608, 12.6821 13.6984, 12.484 14.2417, 12.2762 14.7907, 12.0873 15.2859, 11.9928 15.701, 11.9928 16.0365, 11.9928 16.3119, 12.1125 16.4493, 12.3518 16.4487, 12.5659 16.4493, 12.7589 16.3852, 12.9317 16.2569, 13.1046 16.1287, 13.2621 15.9563, 13.4035 15.7394, 13.5455 15.523, 13.6726 15.2665, 13.7859 14.9699, 13.8993 14.6739, 13.9995 14.3608, 14.0876 14.0304, 14.1254 13.8724, 14.2359 13.7928, 14.418 13.7923 L 14.6252 13.7923 C 14.6951 13.7928, 14.7672 13.814, 14.8422 13.8564, 14.8674 13.9119, 14.88 13.9577, 14.88 13.9938, 14.88 14.019, 14.8708 14.0465, 14.8519 14.0762 Z" stroke="none" fill="#000000" />
			<path d="M 21.679 17.9876 C 21.5725 18.3849, 21.3882 18.7513, 21.1271 19.0868, 20.866 19.4229, 20.5626 19.7097, 20.2168 19.9479, 19.871 20.1861, 19.4909 20.3727, 19.0758 20.5067, 18.6607 20.6412, 18.2457 20.7082, 17.83 20.7082, 17.5472 20.7082, 17.2455 20.6962, 16.9249 20.6715, 16.6043 20.6475, 16.3134 20.588, 16.0524 20.4929, 15.7913 20.3985, 15.5949 20.2502, 15.4627 20.0486, 15.3619 19.9267, 15.3087 19.771, 15.3024 19.5815, 15.3024 19.4899, 15.315 19.3834, 15.3402 19.2609, 15.4094 18.9861, 15.5509 18.7817, 15.7644 18.6471, 15.9785 18.5132, 16.1921 18.4456, 16.4056 18.4456, 16.626 18.4456, 16.8087 18.516, 16.9529 18.6563, 17.06 18.7605, 17.1132 18.8945, 17.1132 19.0594, 17.1132 19.1269, 17.1006 19.2059, 17.0754 19.2975, 17.0319 19.4933, 16.9501 19.6536, 16.8304 19.7784, 16.7113 19.9038, 16.6449 19.9662, 16.6323 19.9662, 16.6701 19.9845, 16.8167 20.0109, 17.0709 20.0441, 17.3256 20.0778, 17.6136 20.0944, 17.9342 20.0944, 18.1918 20.0944, 18.442 20.0383, 18.6842 19.925, 18.9264 19.8122, 19.1514 19.6548, 19.3586 19.4532, 19.5659 19.2517, 19.7485 19.0227, 19.9054 18.7662, 20.0628 18.5097, 20.179 18.2384, 20.2546 17.951 L 20.7544 15.9907 C 20.6101 16.1315, 20.3519 16.309, 19.9809 16.5226, 19.6099 16.7367, 19.2235 16.8426, 18.8205 16.8426, 18.3367 16.8426, 17.9205 16.7229, 17.5712 16.4813, 17.222 16.2403, 16.9529 15.93, 16.764 15.551, 16.5379 15.1119, 16.4182 14.6356, 16.4056 14.122 L 16.4056 14.0121 C 16.4056 13.5426, 16.4686 13.0663, 16.5945 12.5831, 16.7268 12.0461, 16.9312 11.5291, 17.2077 11.031, 17.4848 10.5335, 17.846 10.0675, 18.2926 9.63355, 18.6573 9.26772, 19.0706 8.96543, 19.5327 8.72727, 19.9952 8.4891, 20.4653 8.37002, 20.9433 8.36945, 21.3521 8.37002, 21.6922 8.4788, 21.9624 8.69521, 22.2326 8.91219, 22.4055 9.09367, 22.4805 9.23967 L 22.4336 9.41371 C 22.4902 9.18814, 22.6047 9.02039, 22.7776 8.91047, 22.9505 8.80055, 23.1252 8.74559, 23.3015 8.74502, 23.4841 8.74559, 23.6353 8.80341, 23.7543 8.91906, 23.8362 8.99921, 23.8769 9.10913, 23.8769 9.24883, 23.8769 9.31638, 23.8706 9.38394, 23.858 9.45035 Z M 22.1221 10.6412 C 22.1095 10.5255, 22.0906 10.4127, 22.0654 10.3028, 22.0403 10.1929, 22.0122 10.083, 21.9807 9.97248, 21.8799 9.68622, 21.7368 9.44978, 21.5513 9.26314, 21.3658 9.07707, 21.1317 8.98375, 20.8489 8.98318, 20.5849 8.98375, 20.3239 9.07879, 20.0662 9.26772, 19.8086 9.45722, 19.5727 9.69538, 19.3586 9.98164, 19.0695 10.379, 18.8497 10.802, 18.6985 11.2509, 18.5474 11.6997, 18.406 12.156, 18.2737 12.6198, 18.1604 13.0967, 18.063 13.561, 17.9812 14.0121, 17.9308 14.2325, 17.9056 14.4461, 17.9056 14.6533, 17.9056 14.8737, 17.9308 15.0844, 17.9812 15.2854, 18.0378 15.5607, 18.1449 15.7897, 18.3018 15.973, 18.4592 16.1562, 18.6699 16.2478, 18.9338 16.2472, 19.2235 16.2478, 19.5126 16.1487, 19.8017 15.9501, 20.0914 15.752, 20.3617 15.5121, 20.613 15.2304, 20.7956 15.0174, 20.9685 14.785, 21.1317 14.5342 L 22.1221 10.6412 Z" stroke="none" fill="#000000" />
			<rect />
		</svg>
	</g>
	<g transform="matrix(1 0 -0 1 168.43 187.382)">
		<svg width="53.9427032" height="54.0428391">
			<defs />
			<path d="M 11.7158 8.04884 C 11.6975 8.129, 11.658 8.1977, 11.5985 8.25552, 11.5389 8.31392, 11.4645 8.34254, 11.3763 8.34197 L 11.1971 8.34197 C 11.0208 8.34254, 10.9326 8.26926, 10.9326 8.12213 L 10.9326 8.05801 C 10.983 7.78377, 11.0271 7.49866, 11.0649 7.2021, 11.1027 6.90612, 11.1342 6.62959, 11.1594 6.37254 L 11.1594 6.07941 C 11.1594 5.93972, 11.1531 5.81148, 11.1405 5.69468, 11.1153 5.50576, 11.0712 5.36263, 11.0082 5.26416, 10.8388 5.04489, 10.6012 4.89718, 10.296 4.82046, 9.99144 4.74432, 9.65023 4.70596, 9.27294 4.70539 L 8.22582 4.70539 C 7.91151 4.70596, 7.71629 4.72428, 7.64072 4.76035, 7.58461 4.81588, 7.52164 4.99909, 7.45236 5.30996 L 4.82053 15.5144 C 4.79534 15.6065, 4.78275 15.6798, 4.78275 15.7342, 4.78275 15.8567, 4.82053 15.93, 4.89553 15.9541, 5.07187 16.0096, 5.35526 16.0451, 5.74514 16.06, 6.13502 16.0754, 6.5249 16.0829, 6.9142 16.0823, 7.09054 16.0829, 7.1787 16.1562, 7.1787 16.3021, 7.1787 16.3394, 7.1724 16.3789, 7.15981 16.4212 L 7.12202 16.5586 C 7.08424 16.7487, 6.96172 16.8426, 6.7539 16.8426, 5.72281 16.806, 4.68199 16.7876, 3.632 16.7876, 2.58775 16.7876, 1.53776 16.806, 0.48091 16.8426, 0.387019 16.8426, 0.317745 16.8151, 0.273662 16.7602, 0.230151 16.7178, 0.207823 16.672, 0.207823 16.6228, 0.207823 16.5867, 0.214121 16.55, 0.226716 16.5128 L 0.263929 16.3754 C 0.283395 16.2964, 0.327478 16.2283, 0.396179 16.1699, 0.465453 16.1121, 0.543886 16.0829, 0.632053 16.0823, 1.01563 16.0829, 1.40895 16.0754, 1.81142 16.06, 2.2139 16.0451, 2.50759 16.0096, 2.69309 15.9546, 2.87858 15.8997, 3.00282 15.7411, 3.06579 15.4777 L 5.69762 5.26416 C 5.7606 5.05118, 5.79208 4.88916, 5.79208 4.77867 L 5.79208 4.74203 C 5.76689 4.71798, 5.594 4.70596, 5.27339 4.70539 L 4.22627 4.70539 C 3.84899 4.70596, 3.48086 4.74604, 3.12247 4.82504, 2.76408 4.90462, 2.44347 5.05691, 2.16008 5.28248, 2.0284 5.38667, 1.90245 5.53667, 1.7828 5.7319, 1.66372 5.9277, 1.54578 6.15212, 1.42956 6.40517, 1.31334 6.65879, 1.2017 6.92902, 1.09464 7.21584, 0.987582 7.50324, 0.880522 7.79007, 0.773463 8.07633, 0.710487 8.2601, 0.594267 8.34884, 0.424804 8.34197 L 0.263929 8.34197 C 0.170038 8.34254, 0.100764 8.3122, 0.0566807 8.25037, 0.018895 8.2143, 2.20537e-006 8.17136, 2.20537e-006 8.12213, 2.20537e-006 8.08606, 0.00973487 8.04942, 0.0286277 8.0122, 0.192365 7.39618, 0.396751 6.767, 0.641786 6.12578, 0.88682 5.48457, 1.11983 4.84622, 1.33967 4.21074, 1.40265 4.02811, 1.52231 3.93651, 1.69807 3.93593 L 12.0931 3.93593 C 12.2695 3.93651, 12.3571 4.01265, 12.3571 4.16494 L 12.3571 4.22906 Z" stroke="none" fill="#000000" />
			<path d="M 2.39138 3.19713 L -1.90858 3.19713, -1.90858 2.915 C -1.90858 2.8948, -1.898 2.86402, -1.87684 2.82266 L -0.149418 0.945196 C 0.0551279 0.71981, 0.261918 0.488975, 0.471594 0.253009, 0.68127 0.0170434, 0.868504 -0.224052, 1.03394 -0.470277, 1.19937 -0.716502, 1.33146 -0.970422, 1.4302 -1.23204, 1.52895 -1.49365, 1.578 -1.76809, 1.578 -2.05567, 1.578 -2.29805, 1.54658 -2.52472, 1.4831 -2.73503, 1.41962 -2.94535, 1.32825 -3.13002, 1.20835 -3.28904, 1.08844 -3.44806, 0.938716 -3.5763, 0.759177 -3.67377, 0.579638 -3.77123, 0.371886 -3.81996, 0.13592 -3.82028, -0.216105 -3.81996, -0.527092 -3.7148, -0.7964 -3.50449, -1.06571 -3.29417, -1.24461 -3.06237, -1.33277 -2.80974, -1.35009 -2.80268, -1.32187 -2.79915, -1.24813 -2.79948 L -1.15836 -2.79948 C -1.05256 -2.77511, -0.961191 -2.73824, -0.883605 -2.68887, -0.806018 -2.63917, -0.740935 -2.57088, -0.688036 -2.48368, -0.635136 -2.39647, -0.608846 -2.29132, -0.608846 -2.16852, -0.608846 -1.96302, -0.675532 -1.8056, -0.809545 -1.69627, -0.943558 -1.58663, -1.09328 -1.53212, -1.25871 -1.53244, -1.41709 -1.53212, -1.56489 -1.58663, -1.70243 -1.69627, -1.83965 -1.8056, -1.90858 -1.96302, -1.90858 -2.16852, -1.90858 -2.45547, -1.85215 -2.72734, -1.7393 -2.98382, -1.62645 -3.24031, -1.47352 -3.46249, -1.27987 -3.65068, -1.08623 -3.83856, -0.857315 -3.98732, -0.593136 -4.09697, -0.328958 -4.20629, -0.0487483 -4.26112, 0.24685 -4.26144, 0.612981 -4.26112, 0.948655 -4.20725, 1.25323 -4.09953, 1.55781 -3.99181, 1.8175 -3.83695, 2.0323 -3.63529, 2.24711 -3.43331, 2.41543 -3.19991, 2.53693 -2.93509, 2.65844 -2.66995, 2.71904 -2.37692, 2.71904 -2.05567, 2.71904 -1.6998, 2.63825 -1.37214, 2.47602 -1.07302, 2.31411 -0.77357, 2.11342 -0.499131, 1.87392 -0.2497, 1.63443 5.126e-005, 1.37987 0.235055, 1.11056 0.455632, 0.841252 0.676208, 0.597272 0.890693, 0.378939 1.09909 L -0.836155 2.24301, 0.754048 2.24301 C 0.975907 2.24333, 1.18302 2.24172, 1.37474 2.2382, 1.56678 2.23499, 1.72965 2.22794, 1.86334 2.21768, 1.99736 2.20742, 2.06597 2.20069, 2.06917 2.19684, 2.09738 2.17312, 2.12399 2.12534, 2.14868 2.05353, 2.17337 1.98171, 2.19613 1.89707, 2.21729 1.79961, 2.23845 1.70215, 2.25961 1.60308, 2.28077 1.50209, 2.30193 1.40142, 2.32117 1.29081, 2.3388 1.1709 L 2.72962 1.1709 Z" stroke="none" fill="#000000" transform="matrix(1.12 0 0 1 12.9917 16.3063)" />
			<rect />
		</svg>
	</g>
	<path d="M 0 48.0477 L 0 -48.0479" fill="none" stroke="#000000" stroke-width="3.20000029" stroke-linecap="round" stroke-linejoin="round" marker-end="url(#CustomMarker-04)" transform="matrix(0.416667 0 0 0.416667 67.2738 244.494)" />
	<g transform="matrix(1 0 -0 1 41.8204 214.514)">
		<svg width="50.9839096" height="54.0428391">
			<defs />
			<path d="M 11.7138 8.04884 C 11.6955 8.129, 11.656 8.1977, 11.5965 8.25552, 11.5369 8.31392, 11.4625 8.34254, 11.3743 8.34197 L 11.1951 8.34197 C 11.0194 8.34254, 10.9312 8.26926, 10.9312 8.12213 L 10.9312 8.05801 C 10.9816 7.78377, 11.0251 7.49866, 11.0629 7.2021, 11.1007 6.90612, 11.1322 6.62959, 11.1574 6.37254 L 11.1574 6.07941 C 11.1574 5.93972, 11.1511 5.81148, 11.1385 5.69468, 11.1133 5.50576, 11.0692 5.36263, 11.0062 5.26416, 10.8368 5.04489, 10.5997 4.89718, 10.2946 4.82046, 9.98944 4.74432, 9.64822 4.70596, 9.27037 4.70539 L 8.22325 4.70539 C 7.90894 4.70596, 7.71371 4.72428, 7.63814 4.76035, 7.58204 4.81588, 7.51906 4.99909, 7.44979 5.30996 L 4.81739 15.5144 C 4.7922 15.6065, 4.7796 15.6798, 4.7796 15.7342, 4.7796 15.8567, 4.81739 15.93, 4.89238 15.9541, 5.06872 16.0096, 5.35211 16.0451, 5.74199 16.06, 6.13187 16.0754, 6.52175 16.0829, 6.91163 16.0823, 7.08796 16.0829, 7.17613 16.1562, 7.17613 16.3021, 7.17613 16.3394, 7.16983 16.3789, 7.15723 16.4212 L 7.11945 16.5586 C 7.08166 16.7487, 6.95915 16.8426, 6.75132 16.8426, 5.71966 16.806, 4.67884 16.7876, 3.62828 16.7876, 2.58403 16.7876, 1.53404 16.806, 0.477189 16.8426, 0.383298 16.8426, 0.314024 16.8151, 0.269368 16.7602, 0.225858 16.7178, 0.20353 16.672, 0.20353 16.6228, 0.20353 16.5867, 0.209827 16.55, 0.222423 16.5128 L 0.260208 16.3754 C 0.279101 16.2964, 0.323184 16.2283, 0.392458 16.1699, 0.461732 16.1121, 0.540165 16.0829, 0.628332 16.0823, 1.01191 16.0829, 1.40523 16.0754, 1.8077 16.06, 2.21018 16.0451, 2.50445 16.0096, 2.68994 15.9546, 2.87543 15.8997, 2.99967 15.7411, 3.06207 15.4777 L 5.69447 5.26416 C 5.75745 5.05118, 5.78893 4.88916, 5.78893 4.77867 L 5.78893 4.74203 C 5.76374 4.71798, 5.59085 4.70596, 5.27024 4.70539 L 4.22255 4.70539 C 3.84584 4.70596, 3.47771 4.74604, 3.11932 4.82504, 2.76093 4.90462, 2.43975 5.05691, 2.15636 5.28248, 2.02468 5.38667, 1.89873 5.53667, 1.77908 5.7319, 1.65999 5.9277, 1.54206 6.15212, 1.42527 6.40517, 1.30905 6.65879, 1.19741 6.92902, 1.09035 7.21584, 0.983861 7.50324, 0.876801 7.79007, 0.769742 8.07633, 0.706766 8.2601, 0.590546 8.34884, 0.420511 8.34197 L 0.260208 8.34197 C 0.166317 8.34254, 0.097043 8.3122, 0.0523872 8.25037, 0.0146016 8.2143, -0.00429124 8.17136, -0.00429124 8.12213, -0.00429124 8.08606, 0.00544143 8.04942, 0.0243343 8.0122, 0.188072 7.39618, 0.392458 6.767, 0.637492 6.12578, 0.883099 5.48457, 1.11611 4.84622, 1.33595 4.21074, 1.39893 4.02811, 1.51801 3.93651, 1.69434 3.93593 L 12.0917 3.93593 C 12.268 3.93651, 12.3556 4.01265, 12.3556 4.16494 L 12.3556 4.22906 Z" stroke="none" fill="#000000" />
			<path d="M 2.37267 3.19713 C 1.72472 3.17661, 1.09441 3.16635, 0.481416 3.16635, -0.131261 3.16635, -0.761571 3.17661, -1.40951 3.19713 L -1.40951 2.75598, -1.04499 2.75598 C -0.928927 2.7563, -0.819601 2.75469, -0.717648 2.75117, -0.615375 2.74796, -0.518552 2.7393, -0.426859 2.72552, -0.335166 2.71205, -0.255976 2.69827, -0.18929 2.68416, -0.132864 2.67422, -0.086376 2.6428, -0.0495062 2.58958, -0.012316 2.53668, 0.00595856 2.47769, 0.00595856 2.41229 L 0.00595856 -3.36887 C -0.169733 -3.28295, -0.386463 -3.21787, -0.643588 -3.17362, -0.900714 -3.12906, -1.18221 -3.10694, -1.4887 -3.10726 L -1.4887 -3.54328 C -1.06615 -3.54296, -0.675969 -3.59329, -0.318494 -3.69429, 0.0389807 -3.79496, 0.348044 -3.98411, 0.608376 -4.26144 L 0.772206 -4.26144 C 0.888265 -4.26112, 0.946294 -4.20469, 0.946294 -4.09216 L 0.946294 2.41229 C 0.946294 2.4809, 0.963928 2.54085, 0.999194 2.59215, 1.03446 2.64344, 1.08576 2.67422, 1.15244 2.68416, 1.20887 2.69827, 1.28133 2.71205, 1.36917 2.72552, 1.45702 2.7393, 1.55641 2.74796, 1.66734 2.75117, 1.77827 2.75469, 1.88663 2.7563, 1.99243 2.75598 L 2.37267 2.75598, 2.37267 3.19713 Z" stroke="none" fill="#000000" transform="matrix(1.12 0 0 1 12.5717 16.3063)" />
			<rect />
		</svg>
	</g>
	<path d="M 0 -45.4365 L 0 45.4362" fill="none" stroke="#000000" stroke-width="3.20000029" stroke-linecap="round" stroke-linejoin="round" marker-end="url(#CustomMarker-05)" transform="matrix(0.416667 0 0 0.416667 67.2737 117.132)" />
	<g transform="matrix(1 0 -0 1 41.8204 124.799)">
		<svg width="50.9839096" height="54.0428391">
			<defs />
			<path d="M 11.7138 8.04884 C 11.6955 8.129, 11.656 8.1977, 11.5965 8.25552, 11.5369 8.31392, 11.4625 8.34254, 11.3743 8.34197 L 11.1951 8.34197 C 11.0194 8.34254, 10.9312 8.26926, 10.9312 8.12213 L 10.9312 8.05801 C 10.9816 7.78377, 11.0251 7.49866, 11.0629 7.2021, 11.1007 6.90612, 11.1322 6.62959, 11.1574 6.37254 L 11.1574 6.07941 C 11.1574 5.93972, 11.1511 5.81148, 11.1385 5.69468, 11.1133 5.50576, 11.0692 5.36263, 11.0062 5.26416, 10.8368 5.04489, 10.5997 4.89718, 10.2946 4.82046, 9.98944 4.74432, 9.64822 4.70596, 9.27037 4.70539 L 8.22325 4.70539 C 7.90894 4.70596, 7.71371 4.72428, 7.63814 4.76035, 7.58204 4.81588, 7.51906 4.99909, 7.44979 5.30996 L 4.81739 15.5144 C 4.7922 15.6065, 4.7796 15.6798, 4.7796 15.7342, 4.7796 15.8567, 4.81739 15.93, 4.89238 15.9541, 5.06872 16.0096, 5.35211 16.0451, 5.74199 16.06, 6.13187 16.0754, 6.52175 16.0829, 6.91163 16.0823, 7.08796 16.0829, 7.17613 16.1562, 7.17613 16.3021, 7.17613 16.3394, 7.16983 16.3789, 7.15723 16.4212 L 7.11945 16.5586 C 7.08166 16.7487, 6.95915 16.8426, 6.75132 16.8426, 5.71966 16.806, 4.67884 16.7876, 3.62828 16.7876, 2.58403 16.7876, 1.53404 16.806, 0.477189 16.8426, 0.383298 16.8426, 0.314024 16.8151, 0.269368 16.7602, 0.225858 16.7178, 0.20353 16.672, 0.20353 16.6228, 0.20353 16.5867, 0.209827 16.55, 0.222423 16.5128 L 0.260208 16.3754 C 0.279101 16.2964, 0.323184 16.2283, 0.392458 16.1699, 0.461732 16.1121, 0.540165 16.0829, 0.628332 16.0823, 1.01191 16.0829, 1.40523 16.0754, 1.8077 16.06, 2.21018 16.0451, 2.50445 16.0096, 2.68994 15.9546, 2.87543 15.8997, 2.99967 15.7411, 3.06207 15.4777 L 5.69447 5.26416 C 5.75745 5.05118, 5.78893 4.88916, 5.78893 4.77867 L 5.78893 4.74203 C 5.76374 4.71798, 5.59085 4.70596, 5.27024 4.70539 L 4.22255 4.70539 C 3.84584 4.70596, 3.47771 4.74604, 3.11932 4.82504, 2.76093 4.90462, 2.43975 5.05691, 2.15636 5.28248, 2.02468 5.38667, 1.89873 5.53667, 1.77908 5.7319, 1.65999 5.9277, 1.54206 6.15212, 1.42527 6.40517, 1.30905 6.65879, 1.19741 6.92902, 1.09035 7.21584, 0.983861 7.50324, 0.876801 7.79007, 0.769742 8.07633, 0.706766 8.2601, 0.590546 8.34884, 0.420511 8.34197 L 0.260208 8.34197 C 0.166317 8.34254, 0.097043 8.3122, 0.0523872 8.25037, 0.0146016 8.2143, -0.00429124 8.17136, -0.00429124 8.12213, -0.00429124 8.08606, 0.00544143 8.04942, 0.0243343 8.0122, 0.188072 7.39618, 0.392458 6.767, 0.637492 6.12578, 0.883099 5.48457, 1.11611 4.84622, 1.33595 4.21074, 1.39893 4.02811, 1.51801 3.93651, 1.69434 3.93593 L 12.0917 3.93593 C 12.268 3.93651, 12.3556 4.01265, 12.3556 4.16494 L 12.3556 4.22906 Z" stroke="none" fill="#000000" />
			<path d="M 2.37267 3.19713 C 1.72472 3.17661, 1.09441 3.16635, 0.481416 3.16635, -0.131261 3.16635, -0.761571 3.17661, -1.40951 3.19713 L -1.40951 2.75598, -1.04499 2.75598 C -0.928927 2.7563, -0.819601 2.75469, -0.717648 2.75117, -0.615375 2.74796, -0.518552 2.7393, -0.426859 2.72552, -0.335166 2.71205, -0.255976 2.69827, -0.18929 2.68416, -0.132864 2.67422, -0.086376 2.6428, -0.0495062 2.58958, -0.012316 2.53668, 0.00595856 2.47769, 0.00595856 2.41229 L 0.00595856 -3.36887 C -0.169733 -3.28295, -0.386463 -3.21787, -0.643588 -3.17362, -0.900714 -3.12906, -1.18221 -3.10694, -1.4887 -3.10726 L -1.4887 -3.54328 C -1.06615 -3.54296, -0.675969 -3.59329, -0.318494 -3.69429, 0.0389807 -3.79496, 0.348044 -3.98411, 0.608376 -4.26144 L 0.772206 -4.26144 C 0.888265 -4.26112, 0.946294 -4.20469, 0.946294 -4.09216 L 0.946294 2.41229 C 0.946294 2.4809, 0.963928 2.54085, 0.999194 2.59215, 1.03446 2.64344, 1.08576 2.67422, 1.15244 2.68416, 1.20887 2.69827, 1.28133 2.71205, 1.36917 2.72552, 1.45702 2.7393, 1.55641 2.74796, 1.66734 2.75117, 1.77827 2.75469, 1.88663 2.7563, 1.99243 2.75598 L 2.37267 2.75598, 2.37267 3.19713 Z" stroke="none" fill="#000000" transform="matrix(1.12 0 0 1 12.5717 16.3063)" />
			<rect />
		</svg>
	</g>
	<path d="M 0 -89.0823 L 0 89.0821" fill="none" stroke="#000000" stroke-width="3.20000029" stroke-linecap="round" stroke-linejoin="round" marker-end="url(#CustomMarker-06)" transform="matrix(0.416667 0 0 0.416667 158.406 136.064)" />
	<g transform="matrix(1 0 -0 1 168.43 155.887)">
		<svg width="53.9427032" height="54.0428391">
			<defs />
			<path d="M 11.7158 8.04884 C 11.6975 8.129, 11.658 8.1977, 11.5985 8.25552, 11.5389 8.31392, 11.4645 8.34254, 11.3763 8.34197 L 11.1971 8.34197 C 11.0208 8.34254, 10.9326 8.26926, 10.9326 8.12213 L 10.9326 8.05801 C 10.983 7.78377, 11.0271 7.49866, 11.0649 7.2021, 11.1027 6.90612, 11.1342 6.62959, 11.1594 6.37254 L 11.1594 6.07941 C 11.1594 5.93972, 11.1531 5.81148, 11.1405 5.69468, 11.1153 5.50576, 11.0712 5.36263, 11.0082 5.26416, 10.8388 5.04489, 10.6012 4.89718, 10.296 4.82046, 9.99144 4.74432, 9.65023 4.70596, 9.27294 4.70539 L 8.22582 4.70539 C 7.91151 4.70596, 7.71629 4.72428, 7.64072 4.76035, 7.58461 4.81588, 7.52164 4.99909, 7.45236 5.30996 L 4.82053 15.5144 C 4.79534 15.6065, 4.78275 15.6798, 4.78275 15.7342, 4.78275 15.8567, 4.82053 15.93, 4.89553 15.9541, 5.07187 16.0096, 5.35526 16.0451, 5.74514 16.06, 6.13502 16.0754, 6.5249 16.0829, 6.9142 16.0823, 7.09054 16.0829, 7.1787 16.1562, 7.1787 16.3021, 7.1787 16.3394, 7.1724 16.3789, 7.15981 16.4212 L 7.12202 16.5586 C 7.08424 16.7487, 6.96172 16.8426, 6.7539 16.8426, 5.72281 16.806, 4.68199 16.7876, 3.632 16.7876, 2.58775 16.7876, 1.53776 16.806, 0.48091 16.8426, 0.387019 16.8426, 0.317745 16.8151, 0.273662 16.7602, 0.230151 16.7178, 0.207823 16.672, 0.207823 16.6228, 0.207823 16.5867, 0.214121 16.55, 0.226716 16.5128 L 0.263929 16.3754 C 0.283395 16.2964, 0.327478 16.2283, 0.396179 16.1699, 0.465453 16.1121, 0.543886 16.0829, 0.632053 16.0823, 1.01563 16.0829, 1.40895 16.0754, 1.81142 16.06, 2.2139 16.0451, 2.50759 16.0096, 2.69309 15.9546, 2.87858 15.8997, 3.00282 15.7411, 3.06579 15.4777 L 5.69762 5.26416 C 5.7606 5.05118, 5.79208 4.88916, 5.79208 4.77867 L 5.79208 4.74203 C 5.76689 4.71798, 5.594 4.70596, 5.27339 4.70539 L 4.22627 4.70539 C 3.84899 4.70596, 3.48086 4.74604, 3.12247 4.82504, 2.76408 4.90462, 2.44347 5.05691, 2.16008 5.28248, 2.0284 5.38667, 1.90245 5.53667, 1.7828 5.7319, 1.66372 5.9277, 1.54578 6.15212, 1.42956 6.40517, 1.31334 6.65879, 1.2017 6.92902, 1.09464 7.21584, 0.987582 7.50324, 0.880522 7.79007, 0.773463 8.07633, 0.710487 8.2601, 0.594267 8.34884, 0.424804 8.34197 L 0.263929 8.34197 C 0.170038 8.34254, 0.100764 8.3122, 0.0566807 8.25037, 0.018895 8.2143, 2.20537e-006 8.17136, 2.20537e-006 8.12213, 2.20537e-006 8.08606, 0.00973487 8.04942, 0.0286277 8.0122, 0.192365 7.39618, 0.396751 6.767, 0.641786 6.12578, 0.88682 5.48457, 1.11983 4.84622, 1.33967 4.21074, 1.40265 4.02811, 1.52231 3.93651, 1.69807 3.93593 L 12.0931 3.93593 C 12.2695 3.93651, 12.3571 4.01265, 12.3571 4.16494 L 12.3571 4.22906 Z" stroke="none" fill="#000000" />
			<path d="M 2.39138 3.19713 L -1.90858 3.19713, -1.90858 2.915 C -1.90858 2.8948, -1.898 2.86402, -1.87684 2.82266 L -0.149418 0.945196 C 0.0551279 0.71981, 0.261918 0.488975, 0.471594 0.253009, 0.68127 0.0170434, 0.868504 -0.224052, 1.03394 -0.470277, 1.19937 -0.716502, 1.33146 -0.970422, 1.4302 -1.23204, 1.52895 -1.49365, 1.578 -1.76809, 1.578 -2.05567, 1.578 -2.29805, 1.54658 -2.52472, 1.4831 -2.73503, 1.41962 -2.94535, 1.32825 -3.13002, 1.20835 -3.28904, 1.08844 -3.44806, 0.938716 -3.5763, 0.759177 -3.67377, 0.579638 -3.77123, 0.371886 -3.81996, 0.13592 -3.82028, -0.216105 -3.81996, -0.527092 -3.7148, -0.7964 -3.50449, -1.06571 -3.29417, -1.24461 -3.06237, -1.33277 -2.80974, -1.35009 -2.80268, -1.32187 -2.79915, -1.24813 -2.79948 L -1.15836 -2.79948 C -1.05256 -2.77511, -0.961191 -2.73824, -0.883605 -2.68887, -0.806018 -2.63917, -0.740935 -2.57088, -0.688036 -2.48368, -0.635136 -2.39647, -0.608846 -2.29132, -0.608846 -2.16852, -0.608846 -1.96302, -0.675532 -1.8056, -0.809545 -1.69627, -0.943558 -1.58663, -1.09328 -1.53212, -1.25871 -1.53244, -1.41709 -1.53212, -1.56489 -1.58663, -1.70243 -1.69627, -1.83965 -1.8056, -1.90858 -1.96302, -1.90858 -2.16852, -1.90858 -2.45547, -1.85215 -2.72734, -1.7393 -2.98382, -1.62645 -3.24031, -1.47352 -3.46249, -1.27987 -3.65068, -1.08623 -3.83856, -0.857315 -3.98732, -0.593136 -4.09697, -0.328958 -4.20629, -0.0487483 -4.26112, 0.24685 -4.26144, 0.612981 -4.26112, 0.948655 -4.20725, 1.25323 -4.09953, 1.55781 -3.99181, 1.8175 -3.83695, 2.0323 -3.63529, 2.24711 -3.43331, 2.41543 -3.19991, 2.53693 -2.93509, 2.65844 -2.66995, 2.71904 -2.37692, 2.71904 -2.05567, 2.71904 -1.6998, 2.63825 -1.37214, 2.47602 -1.07302, 2.31411 -0.77357, 2.11342 -0.499131, 1.87392 -0.2497, 1.63443 5.126e-005, 1.37987 0.235055, 1.11056 0.455632, 0.841252 0.676208, 0.597272 0.890693, 0.378939 1.09909 L -0.836155 2.24301, 0.754048 2.24301 C 0.975907 2.24333, 1.18302 2.24172, 1.37474 2.2382, 1.56678 2.23499, 1.72965 2.22794, 1.86334 2.21768, 1.99736 2.20742, 2.06597 2.20069, 2.06917 2.19684, 2.09738 2.17312, 2.12399 2.12534, 2.14868 2.05353, 2.17337 1.98171, 2.19613 1.89707, 2.21729 1.79961, 2.23845 1.70215, 2.25961 1.60308, 2.28077 1.50209, 2.30193 1.40142, 2.32117 1.29081, 2.3388 1.1709 L 2.72962 1.1709 Z" stroke="none" fill="#000000" transform="matrix(1.12 0 0 1 12.9917 16.3063)" />
			<rect />
		</svg>
	</g>
	<path d="M -109.359 0 L 109.359 0" fill="none" stroke="#000000" stroke-width="3.20000029" stroke-linecap="round" stroke-linejoin="round" stroke-dasharray="11.216, 7.984" transform="matrix(0.416667 0 0 0.416667 112.84 98.2006)" />
	<g transform="matrix(1 0 -0 1 88.3074 100.077)">
		<svg width="57.0301361" height="47.9999886">
			<defs />
			<path d="M 7.60497 16.7669 L 0.0800382 16.7669, 0.0800382 16.2732 C 0.0800382 16.2379, 0.0985532 16.184, 0.135583 16.1116 L 3.15857 12.826 C 3.51653 12.4316, 3.87841 12.0277, 4.24534 11.6147, 4.61228 11.2018, 4.93994 10.7799, 5.22944 10.349, 5.51895 9.91808, 5.75011 9.47372, 5.92291 9.01589, 6.09572 8.55807, 6.18156 8.0778, 6.18156 7.57453, 6.18156 7.15037, 6.12658 6.7537, 6.01549 6.38565, 5.9044 6.01759, 5.7445 5.69442, 5.53466 5.41613, 5.32482 5.13785, 5.06281 4.91343, 4.74861 4.74286, 4.43442 4.5723, 4.07085 4.48702, 3.65791 4.48646, 3.04187 4.48702, 2.49764 4.67105, 2.02635 5.0391, 1.55506 5.40716, 1.24199 5.8128, 1.0877 6.25492, 1.0574 6.26726, 1.10678 6.27343, 1.23582 6.27287 L 1.39292 6.27287 C 1.57807 6.31551, 1.73797 6.38004, 1.87375 6.46644, 2.00952 6.5534, 2.12342 6.67291, 2.21599 6.82552, 2.30857 6.97812, 2.35457 7.16215, 2.35457 7.37704, 2.35457 7.73668, 2.23787 8.01216, 2.00335 8.20348, 1.76883 8.39536, 1.50681 8.49074, 1.21731 8.49018, 0.940142 8.49074, 0.681494 8.39536, 0.440799 8.20348, 0.200666 8.01216, 0.0800382 7.73668, 0.0800382 7.37704, 0.0800382 6.87489, 0.178785 6.39911, 0.376278 5.95026, 0.573771 5.50142, 0.841396 5.1126, 1.18028 4.78326, 1.51916 4.45448, 1.91975 4.19415, 2.38207 4.00226, 2.84438 3.81094, 3.33474 3.715, 3.85204 3.71444, 4.49277 3.715, 5.0802 3.80926, 5.61321 3.99778, 6.14621 4.18629, 6.60067 4.45728, 6.97658 4.81019, 7.35249 5.16366, 7.64705 5.57211, 7.85969 6.03554, 8.07233 6.49954, 8.17837 7.01235, 8.17837 7.57453, 8.17837 8.19731, 8.03698 8.77071, 7.75309 9.29418, 7.46975 9.81821, 7.11853 10.2985, 6.69942 10.735, 6.28031 11.172, 5.83483 11.5833, 5.36354 11.9693, 4.89225 12.3553, 4.46528 12.7307, 4.0832 13.0954 L 1.95678 15.0972, 4.73964 15.0972 C 5.12789 15.0978, 5.49034 15.095, 5.82585 15.0888, 6.16192 15.0832, 6.44694 15.0708, 6.6809 15.0529, 6.91543 15.0349, 7.03549 15.0232, 7.0411 15.0164, 7.09048 14.9749, 7.13705 14.8913, 7.18025 14.7656, 7.22345 14.64, 7.26328 14.4918, 7.30031 14.3213, 7.33734 14.1507, 7.37437 13.9773, 7.4114 13.8006, 7.44843 13.6244, 7.4821 13.4309, 7.51295 13.221 L 8.19689 13.221 Z" stroke="none" fill="#000000" />
			<path d="M 17.8296 9.90836 C 17.7609 10.1774, 17.6206 10.3807, 17.4099 10.5181, 17.1992 10.6555, 16.9874 10.7242, 16.7733 10.7236, 16.5534 10.7242, 16.3708 10.6538, 16.226 10.5129, 16.1069 10.4156, 16.0468 10.2816, 16.0468 10.1099, 16.0468 10.0251, 16.0594 9.93927, 16.0845 9.8534, 16.1412 9.64042, 16.2403 9.47268, 16.3817 9.35016, 16.5231 9.22822, 16.6187 9.16066, 16.6691 9.14806, 16.5248 9.03871, 16.226 8.98375, 15.7731 8.98318, 15.2956 8.98375, 14.8697 9.17783, 14.4953 9.56542, 14.1208 9.95358, 13.7831 10.4769, 13.4808 11.1358 L 12.113 16.3754 C 12.0569 16.6021, 11.9419 16.771, 11.769 16.8838, 11.5961 16.9972, 11.4215 17.0533, 11.2451 17.0533, 11.0568 17.0533, 10.9119 16.9926, 10.8112 16.8701, 10.7299 16.7911, 10.6886 16.6811, 10.6886 16.5403, 10.6886 16.4859, 10.6949 16.4189, 10.7075 16.3388 L 12.16 10.6686 C 12.2608 10.2725, 12.3111 9.93011, 12.3111 9.64271 L 12.3111 9.42287 C 12.2802 9.13032, 12.1325 8.98375, 11.868 8.98318, 11.5915 8.98375, 11.3602 9.20703, 11.1747 9.65244, 10.9892 10.0984, 10.8083 10.6784, 10.632 11.3923, 10.5633 11.5578, 10.447 11.6431, 10.2833 11.6488 L 10.0663 11.6488 C 9.91518 11.6494, 9.83961 11.5732, 9.83961 11.4198 L 9.83961 11.3557 C 9.91518 11.0694, 10.0005 10.7562, 10.0944 10.4173, 10.1888 10.0784, 10.3148 9.75779, 10.4717 9.4555, 10.6291 9.15322, 10.8272 8.89673, 11.0659 8.68605, 11.3052 8.47536, 11.6035 8.37002, 11.9619 8.36945, 12.4405 8.37002, 12.8258 8.50628, 13.1178 8.77765, 13.4104 9.04959, 13.5752 9.31638, 13.613 9.57859, 13.8334 9.28604, 14.1403 9.01123, 14.533 8.75475, 14.9258 8.49827, 15.3769 8.37002, 15.8865 8.36945, 16.1384 8.37002, 16.3943 8.39636, 16.6553 8.44788, 16.9164 8.49998, 17.1454 8.58529, 17.3435 8.70437, 17.5416 8.82345, 17.6881 8.98089, 17.7826 9.17554, 17.8393 9.29806, 17.8708 9.43546, 17.8765 9.58775, 17.8765 9.67992, 17.861 9.78698, 17.8296 9.90836 Z" stroke="none" fill="#000000" />
			<rect />
		</svg>
	</g>
	<g transform="matrix(1 0 -0 1 139.373 100.077)">
		<svg width="30.0150681" height="32.9571342">
			<defs />
			<path d="M 7.98852 9.90836 C 7.91982 10.1774, 7.77955 10.3807, 7.56887 10.5181, 7.35818 10.6555, 7.14578 10.7242, 6.93166 10.7236, 6.71182 10.7242, 6.52919 10.6538, 6.38435 10.5129, 6.26526 10.4156, 6.20515 10.2816, 6.20515 10.1099, 6.20515 10.0251, 6.21775 9.93927, 6.24294 9.8534, 6.29961 9.64042, 6.39866 9.47268, 6.54007 9.35016, 6.68205 9.22822, 6.77766 9.16066, 6.82804 9.14806, 6.68377 9.03871, 6.38492 8.98375, 5.93149 8.98318, 5.45402 8.98375, 5.02807 9.17783, 4.65365 9.56542, 4.27923 9.95358, 3.94145 10.4769, 3.63916 11.1358 L 2.27086 16.3754 C 2.21476 16.6021, 2.09968 16.771, 1.92678 16.8838, 1.75389 16.9972, 1.57927 17.0533, 1.40294 17.0533, 1.21458 17.0533, 1.06974 16.9926, 0.968976 16.8701, 0.88768 16.7911, 0.846459 16.6811, 0.846459 16.5403, 0.846459 16.4859, 0.852757 16.4189, 0.865352 16.3388 L 2.31781 10.6686 C 2.41857 10.2725, 2.46895 9.93011, 2.46895 9.64271 L 2.46895 9.42287 C 2.43804 9.13032, 2.29033 8.98375, 2.02583 8.98318, 1.74873 8.98375, 1.51744 9.20703, 1.33195 9.65244, 1.14645 10.0984, 0.966113 10.6784, 0.78978 11.3923, 0.720507 11.5578, 0.604287 11.6431, 0.440549 11.6488 L 0.223568 11.6488 C 0.0724257 11.6494, -0.00314558 11.5732, -0.00314558 11.4198 L -0.00314558 11.3557 C 0.0724257 11.0694, 0.15773 10.7562, 0.252194 10.4173, 0.346658 10.0784, 0.47261 9.75779, 0.629478 9.4555, 0.786918 9.15322, 0.985006 8.89673, 1.22374 8.68605, 1.46305 8.47536, 1.76133 8.37002, 2.11972 8.36945, 2.59834 8.37002, 2.98364 8.50628, 3.27562 8.77765, 3.56817 9.04959, 3.73305 9.31638, 3.77084 9.57859, 3.99126 9.28604, 4.29812 9.01123, 4.69086 8.75475, 5.08418 8.49827, 5.53531 8.37002, 6.04485 8.36945, 6.29675 8.37002, 6.55266 8.39636, 6.81373 8.44788, 7.07479 8.49998, 7.30437 8.58529, 7.50246 8.70437, 7.70054 8.82345, 7.84711 8.98089, 7.94157 9.17554, 7.99825 9.29806, 8.02974 9.43546, 8.03546 9.58775, 8.03546 9.67992, 8.02001 9.78698, 7.98852 9.90836 Z" stroke="none" fill="#000000" />
			<rect />
		</svg>
	</g>
	<path d="M 0 -45.4365 L 0 45.4357" fill="none" stroke="#000000" stroke-width="3.20000029" stroke-linecap="round" stroke-linejoin="round" marker-end="url(#CustomMarker-07)" transform="matrix(0.416667 0 0 0.416667 35.838 263.345)" />
	<g transform="matrix(1 0 -0 1 9.16288 250.105)">
		<svg width="44.9376793" height="38.9999924">
			<defs />
			<path d="M 8.46055 14.0579 C 8.38498 14.3579, 8.30025 14.6785, 8.20578 15.0203, 8.11189 15.3627, 7.98594 15.6798, 7.8285 15.973, 7.67163 16.2661, 7.47354 16.5197, 7.23423 16.7332, 6.9955 16.9468, 6.69665 17.0533, 6.33826 17.0533, 5.86021 17.0533, 5.47835 16.921, 5.19209 16.6554, 4.90584 16.3897, 4.74095 16.1195, 4.69687 15.8441, 4.48333 16.0892, 4.16444 16.352, 3.73964 16.6325, 3.31483 16.913, 2.86656 17.0533, 2.39481 17.0533, 1.89844 17.0533, 1.48223 16.9285, 1.14559 16.6783, 0.808958 16.4281, 0.546749 16.1132, 0.35782 15.7342, 0.131106 15.2831, 0.011452 14.7976, -0.00114328 14.2778 L -0.00114328 14.1403 C -0.00114328 13.6583, 0.0652679 13.1762, 0.196945 12.693, 0.348088 12.1623, 0.559344 11.6373, 0.829568 11.1181, 1.09979 10.5994, 1.45818 10.1167, 1.90474 9.67019, 2.26943 9.30436, 2.68622 8.99635, 3.15453 8.74559, 3.62284 8.4954, 4.09917 8.37002, 4.58351 8.36945, 5.00488 8.37002, 5.34782 8.48166, 5.61174 8.70437, 5.87624 8.92765, 6.04284 9.112, 6.11154 9.25799 L 6.07376 9.41371 C 6.11841 9.18814, 6.22375 9.01753, 6.39036 8.90131, 6.55696 8.78566, 6.72527 8.72727, 6.89474 8.7267, 7.08996 8.72727, 7.2537 8.78509, 7.38538 8.90074, 7.46725 8.99291, 7.51133 9.11486, 7.51705 9.26715, 7.51705 9.32268, 7.51076 9.38394, 7.49816 9.45035 L 6.14017 14.7449 C 6.07719 14.9957, 6.03311 15.231, 6.00792 15.4503, 5.99532 15.5607, 5.98903 15.6615, 5.98903 15.7525, 5.98903 15.8327, 5.99532 15.918, 6.00792 16.009, 6.02681 16.1562, 6.07089 16.2661, 6.14017 16.3394, 6.20944 16.4126, 6.30677 16.4493, 6.43215 16.4487, 6.5644 16.4493, 6.68863 16.3943, 6.80485 16.2844, 6.92164 16.1745, 7.0287 16.0113, 7.12603 15.7943, 7.22336 15.5779, 7.3161 15.318, 7.40427 15.0157, 7.49244 14.7134, 7.58347 14.3854, 7.67736 14.0304, 7.71514 13.8724, 7.8222 13.7928, 7.99853 13.7923 L 8.21552 13.7923 C 8.37925 13.7928, 8.46055 13.8598, 8.46055 13.9938 L 8.46055 14.0579 Z M 5.76288 10.687 C 5.73769 10.5776, 5.71594 10.4631, 5.69705 10.344, 5.67815 10.225, 5.64953 10.1076, 5.61174 9.9908, 5.51098 9.70454, 5.36785 9.46466, 5.18236 9.2723, 4.99687 9.07994, 4.76271 8.98375, 4.47989 8.98318, 4.21596 8.98375, 3.9549 9.07879, 3.69727 9.26772, 3.43964 9.45722, 3.20319 9.70111, 2.98908 9.99996, 2.68793 10.4219, 2.46179 10.8604, 2.31065 11.315, 2.15951 11.7702, 2.02096 12.2448, 1.89501 12.7388, 1.76963 13.2278, 1.66601 13.7012, 1.58356 14.1587, 1.53376 14.3911, 1.50856 14.611, 1.50856 14.8182, 1.50856 15.0386, 1.53376 15.2522, 1.58356 15.4594, 1.64081 15.7468, 1.74272 15.9838, 1.89043 16.1699, 2.03814 16.3565, 2.24424 16.4493, 2.50817 16.4487, 2.79786 16.4493, 3.08869 16.3485, 3.38067 16.147, 3.67322 15.9455, 3.94517 15.6981, 4.1965 15.4045, 4.29726 15.2831, 4.39344 15.1657, 4.48447 15.0524, 4.57607 14.9396, 4.65622 14.8188, 4.72492 14.69 L 5.76288 10.687 Z" stroke="none" fill="#000000" />
			<path d="M 2.37714 3.19713 C 1.7292 3.17661, 1.09857 3.16635, 0.485571 3.16635, -0.127106 3.16635, -0.757737 3.17661, -1.406 3.19713 L -1.406 2.75598, -1.04115 2.75598 C -0.925093 2.7563, -0.815766 2.75469, -0.713814 2.75117, -0.611541 2.74796, -0.514718 2.7393, -0.423025 2.72552, -0.331331 2.71205, -0.252142 2.69827, -0.185456 2.68416, -0.12903 2.67422, -0.082221 2.6428, -0.0453515 2.58958, -0.00816131 2.53668, 0.0101132 2.47769, 0.0101132 2.41229 L 0.0101132 -3.36887 C -0.165899 -3.28295, -0.382628 -3.21787, -0.639754 -3.17362, -0.89688 -3.12906, -1.17869 -3.10694, -1.48519 -3.10726 L -1.48519 -3.54328 C -1.06231 -3.54296, -0.672135 -3.59329, -0.31466 -3.69429, 0.042815 -3.79496, 0.351879 -3.98411, 0.612531 -4.26144 L 0.77636 -4.26144 C 0.89242 -4.26112, 0.950449 -4.20469, 0.950449 -4.09216 L 0.950449 2.41229 C 0.950449 2.4809, 0.968082 2.54085, 1.00335 2.59215, 1.03862 2.64344, 1.08991 2.67422, 1.1566 2.68416, 1.21302 2.69827, 1.28548 2.71205, 1.37333 2.72552, 1.46149 2.7393, 1.56088 2.74796, 1.67181 2.75117, 1.78274 2.75469, 1.89111 2.7563, 1.99658 2.75598 L 2.37714 2.75598, 2.37714 3.19713 Z" stroke="none" fill="#000000" transform="matrix(1.12 0 0 1 10.9247 16.3063)" />
			<rect />
		</svg>
	</g>
	<path d="M 0 45.4362 L 0 -45.4365" fill="none" stroke="#000000" stroke-width="3.20000029" stroke-linecap="round" stroke-linejoin="round" marker-end="url(#CustomMarker-08)" transform="matrix(0.416667 0 0 0.416667 188.784 263.345)" />
	<g transform="matrix(1 0 -0 1 201.061 252.08)">
		<svg width="48.0251122" height="38.9999924">
			<defs />
			<path d="M 8.45998 14.0579 C 8.38498 14.3579, 8.30025 14.6785, 8.20578 15.0203, 8.11132 15.3627, 7.98537 15.6798, 7.82793 15.973, 7.67106 16.2661, 7.47297 16.5197, 7.23366 16.7332, 6.99493 16.9468, 6.69607 17.0533, 6.33711 17.0533, 5.85964 17.0533, 5.4772 16.921, 5.19095 16.6554, 4.90469 16.3897, 4.73981 16.1195, 4.69573 15.8441, 4.48161 16.0892, 4.16272 16.352, 3.73792 16.6325, 3.31369 16.913, 2.86541 17.0533, 2.39366 17.0533, 1.89673 17.0533, 1.47994 16.9285, 1.1433 16.6783, 0.806667 16.4281, 0.544458 16.1132, 0.35553 15.7342, 0.129388 15.2831, 0.00973374 14.7976, -0.00286144 14.2778 L -0.00286144 14.1403 C -0.00286144 13.6583, 0.0635496 13.1762, 0.195227 12.693, 0.34637 12.1623, 0.557053 11.6373, 0.827278 11.1181, 1.09807 10.5994, 1.45647 10.1167, 1.90302 9.67019, 2.26828 9.30436, 2.68507 8.99635, 3.15338 8.74559, 3.6217 8.4954, 4.09803 8.37002, 4.58237 8.36945, 5.00374 8.37002, 5.34667 8.48166, 5.6106 8.70437, 5.8751 8.92765, 6.0417 9.112, 6.11097 9.25799 L 6.07318 9.41371 C 6.11727 9.18814, 6.22261 9.01753, 6.38921 8.90131, 6.55638 8.78566, 6.7247 8.72727, 6.89416 8.7267, 7.08882 8.72727, 7.25255 8.78509, 7.3848 8.90074, 7.46667 8.99291, 7.51076 9.11486, 7.51648 9.26715, 7.51648 9.32268, 7.51018 9.38394, 7.49759 9.45035 L 6.13902 14.7449 C 6.07605 14.9957, 6.03196 15.231, 6.00677 15.4503, 5.99475 15.5607, 5.98845 15.6615, 5.98845 15.7525, 5.98845 15.8327, 5.99475 15.918, 6.00677 16.009, 6.02624 16.1562, 6.07032 16.2661, 6.13902 16.3394, 6.2083 16.4126, 6.30562 16.4493, 6.43158 16.4487, 6.56383 16.4493, 6.68806 16.3943, 6.80428 16.2844, 6.92107 16.1745, 7.02813 16.0113, 7.12546 15.7943, 7.22278 15.5779, 7.31553 15.318, 7.4037 15.0157, 7.49186 14.7134, 7.58289 14.3854, 7.67678 14.0304, 7.71457 13.8724, 7.82163 13.7928, 7.99796 13.7923 L 8.21494 13.7923 C 8.37868 13.7928, 8.45998 13.8598, 8.45998 13.9938 L 8.45998 14.0579 Z M 5.76174 10.687 C 5.73655 10.5776, 5.71479 10.4631, 5.6959 10.344, 5.67701 10.225, 5.64838 10.1076, 5.6106 9.9908, 5.51041 9.70454, 5.36728 9.46466, 5.18179 9.2723, 4.99629 9.07994, 4.76156 8.98375, 4.47874 8.98318, 4.21482 8.98375, 3.95375 9.07879, 3.69555 9.26772, 3.43792 9.45722, 3.20205 9.70111, 2.98793 9.99996, 2.68622 10.4219, 2.46008 10.8604, 2.30893 11.315, 2.15779 11.7702, 2.01924 12.2448, 1.89329 12.7388, 1.76791 13.2278, 1.66429 13.7012, 1.58185 14.1587, 1.53204 14.3911, 1.50685 14.611, 1.50685 14.8182, 1.50685 15.0386, 1.53204 15.2522, 1.58185 15.4594, 1.6391 15.7468, 1.741 15.9838, 1.88871 16.1699, 2.03642 16.3565, 2.24252 16.4493, 2.50645 16.4487, 2.79614 16.4493, 3.08697 16.3485, 3.37953 16.147, 3.67208 15.9455, 3.94402 15.6981, 4.19535 15.4045, 4.29611 15.2831, 4.3923 15.1657, 4.48332 15.0524, 4.57493 14.9396, 4.65508 14.8188, 4.72378 14.69 L 5.76174 10.687 Z" stroke="none" fill="#000000" />
			<path d="M 2.39138 3.19713 L -1.90858 3.19713, -1.90858 2.915 C -1.90858 2.8948, -1.898 2.86402, -1.87684 2.82266 L -0.149418 0.945196 C 0.0551279 0.71981, 0.261918 0.488975, 0.471594 0.253009, 0.68127 0.0170434, 0.868504 -0.224052, 1.03394 -0.470277, 1.19937 -0.716502, 1.33146 -0.970422, 1.4302 -1.23204, 1.52895 -1.49365, 1.578 -1.76809, 1.578 -2.05567, 1.578 -2.29805, 1.54658 -2.52472, 1.4831 -2.73503, 1.41962 -2.94535, 1.32825 -3.13002, 1.20835 -3.28904, 1.08844 -3.44806, 0.938716 -3.5763, 0.759177 -3.67377, 0.579638 -3.77123, 0.371886 -3.81996, 0.13592 -3.82028, -0.216105 -3.81996, -0.527092 -3.7148, -0.7964 -3.50449, -1.06571 -3.29417, -1.24461 -3.06237, -1.33277 -2.80974, -1.35009 -2.80268, -1.32187 -2.79915, -1.24813 -2.79948 L -1.15836 -2.79948 C -1.05256 -2.77511, -0.961191 -2.73824, -0.883605 -2.68887, -0.806018 -2.63917, -0.740935 -2.57088, -0.688036 -2.48368, -0.635136 -2.39647, -0.608846 -2.29132, -0.608846 -2.16852, -0.608846 -1.96302, -0.675532 -1.8056, -0.809545 -1.69627, -0.943558 -1.58663, -1.09328 -1.53212, -1.25871 -1.53244, -1.41709 -1.53212, -1.56489 -1.58663, -1.70243 -1.69627, -1.83965 -1.8056, -1.90858 -1.96302, -1.90858 -2.16852, -1.90858 -2.45547, -1.85215 -2.72734, -1.7393 -2.98382, -1.62645 -3.24031, -1.47352 -3.46249, -1.27987 -3.65068, -1.08623 -3.83856, -0.857315 -3.98732, -0.593136 -4.09697, -0.328958 -4.20629, -0.0487483 -4.26112, 0.24685 -4.26144, 0.612981 -4.26112, 0.948655 -4.20725, 1.25323 -4.09953, 1.55781 -3.99181, 1.8175 -3.83695, 2.0323 -3.63529, 2.24711 -3.43331, 2.41543 -3.19991, 2.53693 -2.93509, 2.65844 -2.66995, 2.71904 -2.37692, 2.71904 -2.05567, 2.71904 -1.6998, 2.63825 -1.37214, 2.47602 -1.07302, 2.31411 -0.77357, 2.11342 -0.499131, 1.87392 -0.2497, 1.63443 5.126e-005, 1.37987 0.235055, 1.11056 0.455632, 0.841252 0.676208, 0.597272 0.890693, 0.378939 1.09909 L -0.836155 2.24301, 0.754048 2.24301 C 0.975907 2.24333, 1.18302 2.24172, 1.37474 2.2382, 1.56678 2.23499, 1.72965 2.22794, 1.86334 2.21768, 1.99736 2.20742, 2.06597 2.20069, 2.06917 2.19684, 2.09738 2.17312, 2.12399 2.12534, 2.14868 2.05353, 2.17337 1.98171, 2.19613 1.89707, 2.21729 1.79961, 2.23845 1.70215, 2.25961 1.60308, 2.28077 1.50209, 2.30193 1.40142, 2.32117 1.29081, 2.3388 1.1709 L 2.72962 1.1709 Z" stroke="none" fill="#000000" transform="matrix(1.12 0 0 1 11.3487 16.3063)" />
			<rect />
		</svg>
	</g>
	<path d="M -91.4836 -149.223 L -73.1365 -159.025 C -21.0385 -182.997, 40.0679 -180.061, 90.0085 -150.118" fill="none" stroke="#000000" stroke-width="3.20000029" stroke-linecap="round" stroke-linejoin="round" marker-start="url(#CustomMarker-09)" transform="matrix(0.416667 0 -0 0.416667 128.041 98.2006)" />
	<g transform="matrix(1 0 -0 1 122.514 -0.837503)">
		<svg width="39.020092" height="32.9571342">
			<defs />
			<path d="M 11.024 9.57859 C 10.7978 10.4339, 10.4772 11.2589, 10.0616 12.0524, 9.6465 12.8465, 9.15586 13.5667, 8.58965 14.2136, 8.58965 14.5136, 8.59595 14.8039, 8.60854 15.0844, 8.62114 15.3655, 8.64977 15.6111, 8.69385 15.8218, 8.73793 16.0325, 8.79461 16.1899, 8.86331 16.2936, 8.93258 16.3978, 9.02361 16.4493, 9.13697 16.4487, 9.34479 16.4493, 9.54288 16.3668, 9.73181 16.202, 9.92074 16.0371, 10.0433 15.8384, 10.0994 15.606, 10.1371 15.4354, 10.2476 15.3501, 10.4297 15.3495 L 10.5431 15.3495 C 10.6879 15.3501, 10.7663 15.4233, 10.7789 15.5693 L 10.7789 15.6335 C 10.7348 15.8293, 10.6564 16.013, 10.5431 16.1836, 10.4297 16.3548, 10.2929 16.506, 10.1326 16.6371, 9.97226 16.7682, 9.79765 16.8701, 9.60872 16.9434, 9.42036 17.0166, 9.22227 17.0533, 9.01445 17.0533, 8.46713 17.0533, 8.05206 16.889, 7.76925 16.5592, 7.48643 16.2294, 7.30379 15.8842, 7.22193 15.5235, 6.67461 15.9701, 6.04885 16.3365, 5.34409 16.6233, 4.63991 16.9102, 3.90709 17.0533, 3.14566 17.0533, 2.59261 17.0533, 2.08938 16.9405, 1.63652 16.7149, 1.18367 16.4894, 0.825274 16.1653, 0.560775 15.7434, 0.277955 15.3346, 0.101622 14.8617, 0.0323482 14.3236, 0.00715774 14.1713, -0.00543743 14.0064, -0.00543743 13.8289, -0.00543743 13.4631, 0.0483785 13.0846, 0.154865 12.693, 0.306008 12.1257, 0.547035 11.5807, 0.8768 11.0585, 1.20714 10.5364, 1.61763 10.0647, 2.1077 9.64271, 2.58631 9.25226, 3.10386 8.94253, 3.66034 8.71353, 4.21682 8.48452, 4.77216 8.37002, 5.3252 8.36945, 5.85363 8.37002, 6.3208 8.46964, 6.72613 8.66773, 7.13204 8.86639, 7.47497 9.13375, 7.75493 9.46924, 8.03489 9.8053, 8.24386 10.1975, 8.3824 10.6463, 8.52095 11.0952, 8.58965 11.5669, 8.58965 12.061 L 8.58965 13.2701 C 8.92342 12.8373, 9.25663 12.2848, 9.58983 11.6127, 9.92303 10.9412, 10.1778 10.2542, 10.3541 9.55111, 10.3919 9.3805, 10.5024 9.29234, 10.6845 9.28547 L 10.7789 9.28547 C 10.9427 9.28604, 11.024 9.35932, 11.024 9.50531 L 11.024 9.57859 Z M 7.09884 14.8732 C 7.09311 14.8308, 7.08681 14.7672, 7.08052 14.6814, 7.07422 14.5961, 7.07078 14.5102, 7.07078 14.4243 L 7.07078 12.3633 C 7.07078 11.9179, 7.04101 11.4925, 6.98147 11.086, 6.92193 10.6801, 6.82403 10.3183, 6.68892 10.0005, 6.55381 9.68336, 6.36774 9.43432, 6.13187 9.25398, 5.89599 9.07421, 5.5897 8.98375, 5.21184 8.98318, 4.85975 8.98375, 4.50422 9.07707, 4.14583 9.26314, 3.78744 9.44978, 3.46683 9.70454, 3.18344 10.0274, 2.83135 10.419, 2.56227 10.845, 2.37678 11.3059, 2.19128 11.7673, 2.03556 12.2448, 1.90961 12.7388, 1.78423 13.2278, 1.6932 13.6984, 1.63595 14.1495, 1.62335 14.2663, 1.61706 14.3819, 1.61706 14.4976, 1.61706 14.8216, 1.67087 15.1331, 1.77793 15.4319, 1.89758 15.7377, 2.08308 15.9838, 2.33441 16.1699, 2.58631 16.3565, 2.88803 16.4493, 3.24012 16.4487, 3.95118 16.4493, 4.63533 16.309, 5.29257 16.0279, 5.94981 15.7474, 6.55209 15.3621, 7.09884 14.8732 Z" stroke="none" fill="#000000" />
			<rect />
		</svg>
	</g>
</svg>
