<?xml version="1.0"?>
<svg xmlns="http://www.w3.org/2000/svg" xmlns:xlink="http://www.w3.org/1999/xlink" width="196.297134" height="173.292938">
	<defs>
		<marker id="CustomMarker-01" markerUnits="strokeWidth" markerWidth="15.000001" markerHeight="9" viewBox="-15 -4.5 15 9" orient="auto-start-reverse">
			<path d="M 0 -0 L -10 -3, -8 -0.5, -8 0.5, -10 3 Z" fill="#000000" stroke="#000000" stroke-linejoin="round" />
		</marker>
		<marker id="CustomMarker-02" markerUnits="strokeWidth" markerWidth="15.000001" markerHeight="9" viewBox="-15 -4.5 15 9" orient="auto-start-reverse">
			<path d="M 0 -0 L -10 -3, -8 -0.5, -8 0.5, -10 3 Z" fill="#000000" stroke="#000000" stroke-linejoin="round" />
		</marker>
		<marker id="CustomMarker-03" markerUnits="strokeWidth" markerWidth="15.000001" markerHeight="9" viewBox="-15 -4.5 15 9" orient="auto-start-reverse">
			<path d="M 0 -0 L -10 -3, -8 -0.5, -8 0.5, -10 3 Z" fill="#000000" stroke="#000000" stroke-linejoin="round" />
		</marker>
		<marker id="CustomMarker-04" markerUnits="strokeWidth" markerWidth="15.000001" markerHeight="9" viewBox="-15 -4.5 15 9" orient="auto-start-reverse">
			<path d="M 0 -0 L -10 -3, -8 -0.5, -8 0.5, -10 3 Z" fill="#000000" stroke="#000000" stroke-linejoin="round" />
		</marker>
		<marker id="CustomMarker-05" markerUnits="strokeWidth" markerWidth="15.000001" markerHeight="9" viewBox="-15 -4.5 15 9" orient="auto-start-reverse">
			<path d="M 0 -0 L -10 -3, -8 -0.5, -8 0.5, -10 3 Z" fill="#000000" stroke="#000000" stroke-linejoin="round" />
		</marker>
		<marker id="CustomMarker-06" markerUnits="strokeWidth" markerWidth="15.000001" markerHeight="9" viewBox="-15 -4.5 15 9" orient="auto-start-reverse">
			<path d="M 0 -0 L -10 -3, -8 -0.5, -8 0.5, -10 3 Z" fill="#000000" stroke="#000000" stroke-linejoin="round" />
		</marker>
	</defs>
	<path d="M -230.487 -0.0952148 L 230.485 0.0952148" fill="none" stroke="#000000" stroke-width="5.19999981" stroke-linecap="round" stroke-linejoin="round" transform="matrix(0.384615 0 0 0.384615 98.1489 158.133)" />
	<path d="M 6.21277 -8.70581 L -6.21381 8.70422" fill="none" stroke="#000000" stroke-width="2.5999999" stroke-linecap="round" stroke-linejoin="round" transform="matrix(0.384615 0 0 0.384615 18.9914 161.445)" />
	<path d="M 6.21356 -8.70581 L -6.21277 8.70422" fill="none" stroke="#000000" stroke-width="2.5999999" stroke-linecap="round" stroke-linejoin="round" transform="matrix(0.384615 0 0 0.384615 25.9555 161.445)" />
	<path d="M 6.2135 -8.70581 L -6.21277 8.70422" fill="none" stroke="#000000" stroke-width="2.5999999" stroke-linecap="round" stroke-linejoin="round" transform="matrix(0.384615 0 0 0.384615 32.9196 161.445)" />
	<path d="M 6.21347 -8.70581 L -6.21323 8.70422" fill="none" stroke="#000000" stroke-width="2.5999999" stroke-linecap="round" stroke-linejoin="round" transform="matrix(0.384615 0 0 0.384615 39.8838 161.445)" />
	<path d="M 6.21313 -8.70581 L -6.21313 8.70422" fill="none" stroke="#000000" stroke-width="2.5999999" stroke-linecap="round" stroke-linejoin="round" transform="matrix(0.384615 0 0 0.384615 46.848 161.445)" />
	<path d="M 6.21362 -8.70581 L -6.21301 8.70422" fill="none" stroke="#000000" stroke-width="2.5999999" stroke-linecap="round" stroke-linejoin="round" transform="matrix(0.384615 0 0 0.384615 53.8121 161.445)" />
	<path d="M 6.21295 -8.70581 L -6.2139 8.70422" fill="none" stroke="#000000" stroke-width="2.5999999" stroke-linecap="round" stroke-linejoin="round" transform="matrix(0.384615 0 0 0.384615 60.7765 161.445)" />
	<path d="M 6.21295 -8.70581 L -6.21356 8.70422" fill="none" stroke="#000000" stroke-width="2.5999999" stroke-linecap="round" stroke-linejoin="round" transform="matrix(0.384615 0 0 0.384615 67.7406 161.445)" />
	<path d="M 6.21277 -8.70581 L -6.21368 8.70422" fill="none" stroke="#000000" stroke-width="2.5999999" stroke-linecap="round" stroke-linejoin="round" transform="matrix(0.384615 0 0 0.384615 74.7048 161.445)" />
	<path d="M 6.21277 -8.70581 L -6.21436 8.70422" fill="none" stroke="#000000" stroke-width="2.5999999" stroke-linecap="round" stroke-linejoin="round" transform="matrix(0.384615 0 0 0.384615 81.6692 161.445)" />
	<path d="M 6.21277 -8.70581 L -6.21277 8.70422" fill="none" stroke="#000000" stroke-width="2.5999999" stroke-linecap="round" stroke-linejoin="round" transform="matrix(0.384615 0 0 0.384615 88.6333 161.445)" />
	<path d="M 6.21277 -8.70581 L -6.21277 8.70422" fill="none" stroke="#000000" stroke-width="2.5999999" stroke-linecap="round" stroke-linejoin="round" transform="matrix(0.384615 0 0 0.384615 95.5975 161.445)" />
	<path d="M 6.21277 -8.70581 L -6.21277 8.70422" fill="none" stroke="#000000" stroke-width="2.5999999" stroke-linecap="round" stroke-linejoin="round" transform="matrix(0.384615 0 0 0.384615 102.562 161.445)" />
	<path d="M 6.21277 -8.70581 L -6.21277 8.70422" fill="none" stroke="#000000" stroke-width="2.5999999" stroke-linecap="round" stroke-linejoin="round" transform="matrix(0.384615 0 0 0.384615 109.526 161.445)" />
	<path d="M 6.21436 -8.70581 L -6.21277 8.70422" fill="none" stroke="#000000" stroke-width="2.5999999" stroke-linecap="round" stroke-linejoin="round" transform="matrix(0.384615 0 0 0.384615 123.454 161.445)" />
	<path d="M 6.21277 -8.70581 L -6.21277 8.70422" fill="none" stroke="#000000" stroke-width="2.5999999" stroke-linecap="round" stroke-linejoin="round" transform="matrix(0.384615 0 0 0.384615 130.418 161.445)" />
	<path d="M 6.21436 -8.70581 L -6.21277 8.70422" fill="none" stroke="#000000" stroke-width="2.5999999" stroke-linecap="round" stroke-linejoin="round" transform="matrix(0.384615 0 0 0.384615 137.382 161.445)" />
	<path d="M 6.21436 -8.70581 L -6.21277 8.70422" fill="none" stroke="#000000" stroke-width="2.5999999" stroke-linecap="round" stroke-linejoin="round" transform="matrix(0.384615 0 0 0.384615 144.346 161.445)" />
	<path d="M 6.21436 -8.70581 L -6.21277 8.70422" fill="none" stroke="#000000" stroke-width="2.5999999" stroke-linecap="round" stroke-linejoin="round" transform="matrix(0.384615 0 0 0.384615 151.31 161.445)" />
	<path d="M 6.21436 -8.70581 L -6.21277 8.70422" fill="none" stroke="#000000" stroke-width="2.5999999" stroke-linecap="round" stroke-linejoin="round" transform="matrix(0.384615 0 0 0.384615 158.274 161.445)" />
	<path d="M 6.21436 -8.70581 L -6.21277 8.70422" fill="none" stroke="#000000" stroke-width="2.5999999" stroke-linecap="round" stroke-linejoin="round" transform="matrix(0.384615 0 0 0.384615 165.239 161.445)" />
	<path d="M 6.21277 -8.70581 L -6.21436 8.70422" fill="none" stroke="#000000" stroke-width="2.5999999" stroke-linecap="round" stroke-linejoin="round" transform="matrix(0.384615 0 0 0.384615 172.203 161.445)" />
	<path d="M 6.21277 -8.70581 L -6.21436 8.70422" fill="none" stroke="#000000" stroke-width="2.5999999" stroke-linecap="round" stroke-linejoin="round" transform="matrix(0.384615 0 0 0.384615 179.167 161.445)" />
	<path d="M 6.21277 -8.70581 L -6.21277 8.70422" fill="none" stroke="#000000" stroke-width="2.5999999" stroke-linecap="round" stroke-linejoin="round" transform="matrix(0.384615 0 0 0.384615 116.49 161.445)" />
	<path d="M 8.70422 6.21329 L -8.70581 -6.21313" fill="none" stroke="#000000" stroke-width="2.5999999" stroke-linecap="round" stroke-linejoin="round" transform="matrix(0.384615 0 0 0.384615 98.2138 15.321)" />
	<path d="M 8.70422 6.21317 L -8.70581 -6.21317" fill="none" stroke="#000000" stroke-width="2.5999999" stroke-linecap="round" stroke-linejoin="round" transform="matrix(0.384615 0 0 0.384615 98.2138 22.2851)" />
	<path d="M 8.70422 6.21317 L -8.70581 -6.21317" fill="none" stroke="#000000" stroke-width="2.5999999" stroke-linecap="round" stroke-linejoin="round" transform="matrix(0.384615 0 0 0.384615 98.2138 29.2494)" />
	<path d="M 8.70422 6.21356 L -8.70581 -6.21356" fill="none" stroke="#000000" stroke-width="2.5999999" stroke-linecap="round" stroke-linejoin="round" transform="matrix(0.384615 0 0 0.384615 98.2138 43.1776)" />
	<path d="M 8.70422 6.21332 L -8.70581 -6.21317" fill="none" stroke="#000000" stroke-width="2.5999999" stroke-linecap="round" stroke-linejoin="round" transform="matrix(0.384615 0 0 0.384615 98.2138 50.1417)" />
	<path d="M 8.70422 6.21436 L -8.70581 -6.21277" fill="none" stroke="#000000" stroke-width="2.5999999" stroke-linecap="round" stroke-linejoin="round" transform="matrix(0.384615 0 0 0.384615 98.2138 57.1059)" />
	<path d="M 8.70422 6.21411 L -8.70581 -6.21323" fill="none" stroke="#000000" stroke-width="2.5999999" stroke-linecap="round" stroke-linejoin="round" transform="matrix(0.384615 0 0 0.384615 98.2138 64.0701)" />
	<path d="M 8.70422 6.21277 L -8.70581 -6.21381" fill="none" stroke="#000000" stroke-width="2.5999999" stroke-linecap="round" stroke-linejoin="round" transform="matrix(0.384615 0 0 0.384615 98.2138 71.0345)" />
	<path d="M 8.70422 6.21277 L -8.70581 -6.21356" fill="none" stroke="#000000" stroke-width="2.5999999" stroke-linecap="round" stroke-linejoin="round" transform="matrix(0.384615 0 0 0.384615 98.2138 77.9986)" />
	<path d="M 8.70422 6.21277 L -8.70581 -6.21356" fill="none" stroke="#000000" stroke-width="2.5999999" stroke-linecap="round" stroke-linejoin="round" transform="matrix(0.384615 0 0 0.384615 98.2138 84.9627)" />
	<path d="M 8.70422 6.21356 L -8.70581 -6.21356" fill="none" stroke="#000000" stroke-width="2.5999999" stroke-linecap="round" stroke-linejoin="round" transform="matrix(0.384615 0 0 0.384615 98.2138 91.9268)" />
	<path d="M 8.70422 6.21277 L -8.70581 -6.21356" fill="none" stroke="#000000" stroke-width="2.5999999" stroke-linecap="round" stroke-linejoin="round" transform="matrix(0.384615 0 0 0.384615 98.2138 98.8909)" />
	<path d="M 8.70422 6.21277 L -8.70581 -6.2131" fill="none" stroke="#000000" stroke-width="2.5999999" stroke-linecap="round" stroke-linejoin="round" transform="matrix(0.384615 0 0 0.384615 98.2138 36.2135)" />
	<path d="M 0.079895 -193.73 L -0.0803833 193.729" fill="none" stroke="#000000" stroke-width="3.4666667" stroke-linecap="round" stroke-linejoin="round" transform="matrix(0.384615 0 0 0.384615 94.8395 83.0117)" />
	<path d="M 0.0830688 -193.435 L -0.0841064 193.435" fill="none" stroke="#000000" stroke-width="3.4666667" stroke-linecap="round" stroke-linejoin="round" transform="matrix(0.384615 0 0 0.384615 101.581 83.126)" />
	<path d="M -8.76611 -0.00360107 L 8.76611 0.00354004" fill="none" stroke="#000000" stroke-width="3.4666667" stroke-linecap="round" stroke-linejoin="round" transform="matrix(0.384615 0 0 0.384615 98.2419 8.50139)" />
	<path d="M -8.04407 -0.00317383 L 8.04407 0.00393677" fill="none" stroke="#000000" stroke-width="3.4666667" stroke-linecap="round" stroke-linejoin="round" transform="matrix(0.384615 0 0 0.384615 98.2138 105.326)" />
	<path d="M -91.3062 0 L 91.3069 0" fill="none" stroke="#000000" stroke-width="3.4666667" stroke-linecap="round" stroke-linejoin="round" transform="matrix(0.384615 0 0 0.384615 59.1502 26.0335)" />
	<path d="M 10.5124 -7.93663e-007 L 1.20486e-006 15.9588, -10.5124 7.93663e-007 Z" fill="none" stroke="#000000" stroke-width="2.5999999" stroke-linecap="round" stroke-linejoin="round" transform="matrix(0.384615 0 0 0.384615 59.3845 19.8955)" />
	<path d="M -36.9394 -0.0161133 L 36.9398 0.0161438" fill="none" stroke="#000000" stroke-width="1.73333335" stroke-linecap="round" stroke-linejoin="round" transform="matrix(0.384615 0 0 0.384615 47.7026 31.6391)" />
	<path d="M -36.9395 -0.0162048 L 36.9402 0.0160828" fill="none" stroke="#000000" stroke-width="1.73333335" stroke-linecap="round" stroke-linejoin="round" transform="matrix(0.384615 0 0 0.384615 64.0207 36.2135)" />
	<path d="M -19.6284 -0.00857544 L 19.6296 0.00863647" fill="none" stroke="#000000" stroke-width="1.73333335" stroke-linecap="round" stroke-linejoin="round" transform="matrix(0.384615 0 0 0.384615 78.2296 31.7321)" />
	<path d="M -19.6291 -0.00839233 L 19.6292 0.00872803" fill="none" stroke="#000000" stroke-width="1.73333335" stroke-linecap="round" stroke-linejoin="round" transform="matrix(0.384615 0 0 0.384615 48.928 40.8472)" />
	<path d="M -11.4374 -0.00476074 L 11.4371 0.00509644" fill="none" stroke="#000000" stroke-width="1.73333335" stroke-linecap="round" stroke-linejoin="round" transform="matrix(0.384615 0 0 0.384615 68.7707 40.8472)" />
	<path d="M -11.4375 -0.00485229 L 11.4374 0.00509644" fill="none" stroke="#000000" stroke-width="1.73333335" stroke-linecap="round" stroke-linejoin="round" transform="matrix(0.384615 0 0 0.384615 62.1622 45.5655)" />
	<path d="M -171.627 0 L 171.627 0" fill="none" stroke="#000000" stroke-width="3.4666667" stroke-linecap="round" stroke-linejoin="round" marker-start="url(#CustomMarker-01)" marker-end="url(#CustomMarker-02)" transform="matrix(2.90377e-008 0.384615 -0.384615 2.90377e-008 15.5059 92.1598)" />
	<path d="M -171.627 -12.106 L -171.627 12.106" fill="none" stroke="#000000" stroke-width="3.4666667" stroke-linecap="round" stroke-linejoin="round" transform="matrix(2.90377e-008 0.384615 -0.384615 2.90377e-008 15.5059 92.1598)" />
	<path d="M 171.627 -12.106 L 171.627 12.106" fill="none" stroke="#000000" stroke-width="3.4666667" stroke-linecap="round" stroke-linejoin="round" transform="matrix(2.90377e-008 0.384615 -0.384615 2.90377e-008 15.5059 92.1598)" />
	<g transform="matrix(1 0 -0 1 22.8441 80.8944)">
		<svg width="48.0251122" height="54.0428391">
			<defs />
			<path d="M 9.09632 14.0579 C 9.00816 14.3945, 8.89194 14.738, 8.74709 15.089, 8.60282 15.4405, 8.42019 15.7594, 8.20035 16.0462, 7.9805 16.3336, 7.7286 16.5729, 7.44521 16.7647, 7.16239 16.9571, 6.83835 17.0533, 6.47366 17.0533, 6.15935 17.0533, 5.89027 16.9863, 5.66699 16.8518, 5.44371 16.7178, 5.27082 16.5409, 5.1483 16.321, 5.02578 16.1012, 4.96395 15.8567, 4.96395 15.5877, 4.95135 15.5762, 4.94506 15.5453, 4.94506 15.4961, 4.94506 15.2338, 5.00174 14.959, 5.11509 14.6716, 5.32234 14.1409, 5.51757 13.6096, 5.69963 13.0783, 5.88226 12.5471, 6.04256 12.0158, 6.18111 11.4839, 6.26927 11.1244, 6.33511 10.7763, 6.37919 10.4396, 6.39179 10.3423, 6.39809 10.2387, 6.39809 10.1282, 6.39809 9.92095, 6.3729 9.73202, 6.32252 9.56027, 6.20916 9.17612, 5.97042 8.98375, 5.60516 8.98318, 4.96395 8.98375, 4.41377 9.20245, 3.95462 9.6387, 3.49546 10.0755, 3.08612 10.6601, 2.72773 11.3923 L 1.44473 16.3754 C 1.38863 16.6021, 1.27355 16.771, 1.10065 16.8838, 0.927757 16.9972, 0.753141 17.0533, 0.576808 17.0533, 0.39475 17.0533, 0.243607 16.9926, 0.123953 16.8701, 0.042084 16.7911, 0.000863314 16.6811, 0.000863314 16.5403, 0.000863314 16.4739, 0.0071609 16.4063, 0.0197561 16.3388 L 2.85998 5.32828 C 2.91036 5.12733, 2.94185 4.97447, 2.95444 4.87027 L 2.95444 4.84279 C 2.95444 4.7884, 2.94185 4.7489, 2.91666 4.72371, 2.84108 4.67562, 2.69967 4.64184, 2.49185 4.62352, 2.2846 4.6052, 2.0453 4.59604, 1.77507 4.59547, 1.68061 4.59604, 1.61133 4.56569, 1.56725 4.50386, 1.52946 4.4678, 1.51057 4.422, 1.51057 4.36646, 1.51057 4.33039, 1.5203 4.29662, 1.5392 4.2657 L 1.56725 4.11914 C 1.61763 3.97315, 1.73729 3.88155, 1.92564 3.84433 L 4.38858 3.64281, 4.42579 3.64281 C 4.50136 3.64338, 4.56434 3.668, 4.61472 3.71609, 4.6525 3.77162, 4.6714 3.82029, 4.6714 3.86265, 4.6714 3.89987, 4.66224 3.93364, 4.64334 3.96342 L 3.23726 9.42287 C 3.41359 9.21562, 3.72504 8.98833, 4.1716 8.74101, 4.61815 8.49368, 5.13399 8.37002, 5.71852 8.36945, 6.09008 8.37002, 6.43645 8.43872, 6.75705 8.57613, 7.07766 8.71353, 7.32613 8.93509, 7.50189 9.23967, 7.69081 9.55168, 7.78471 9.90263, 7.78471 10.2931 L 7.78471 10.3389 C 7.77211 10.7305, 7.716 11.1244, 7.61524 11.5205, 7.47097 12.077, 7.30093 12.6238, 7.10571 13.1608, 6.91106 13.6984, 6.70953 14.2445, 6.50171 14.7999, 6.31336 15.2768, 6.21889 15.677, 6.21889 15.9999, 6.21889 15.9518, 6.22519 15.9272, 6.23778 15.9266, 6.23778 16.2752, 6.354 16.4493, 6.58644 16.4487, 6.80056 16.4493, 6.99121 16.3852, 7.15781 16.2569, 7.32441 16.1287, 7.48013 15.9563, 7.6244 15.7394, 7.76925 15.523, 7.89692 15.2665, 8.00684 14.9699, 8.11676 14.6739, 8.21924 14.3608, 8.31313 14.0304, 8.35092 13.8724, 8.45798 13.7928, 8.63431 13.7923 L 8.85129 13.7923 C 9.01503 13.7928, 9.09632 13.8598, 9.09632 13.9938 L 9.09632 14.0579 Z" stroke="none" fill="#000000" />
			<path d="M 2.37267 3.19713 C 1.72472 3.17661, 1.09441 3.16635, 0.481416 3.16635, -0.131261 3.16635, -0.761571 3.17661, -1.40951 3.19713 L -1.40951 2.75598, -1.04499 2.75598 C -0.928927 2.7563, -0.819601 2.75469, -0.717648 2.75117, -0.615375 2.74796, -0.518552 2.7393, -0.426859 2.72552, -0.335166 2.71205, -0.255976 2.69827, -0.18929 2.68416, -0.132864 2.67422, -0.086376 2.6428, -0.0495062 2.58958, -0.012316 2.53668, 0.00595856 2.47769, 0.00595856 2.41229 L 0.00595856 -3.36887 C -0.169733 -3.28295, -0.386463 -3.21787, -0.643588 -3.17362, -0.900714 -3.12906, -1.18221 -3.10694, -1.4887 -3.10726 L -1.4887 -3.54328 C -1.06615 -3.54296, -0.675969 -3.59329, -0.318494 -3.69429, 0.0389807 -3.79496, 0.348044 -3.98411, 0.608376 -4.26144 L 0.772206 -4.26144 C 0.888265 -4.26112, 0.946294 -4.20469, 0.946294 -4.09216 L 0.946294 2.41229 C 0.946294 2.4809, 0.963928 2.54085, 0.999194 2.59215, 1.03446 2.64344, 1.08576 2.67422, 1.15244 2.68416, 1.20887 2.69827, 1.28133 2.71205, 1.36917 2.72552, 1.45702 2.7393, 1.55641 2.74796, 1.66734 2.75117, 1.77827 2.75469, 1.88663 2.7563, 1.99243 2.75598 L 2.37267 2.75598, 2.37267 3.19713 Z" stroke="none" fill="#000000" transform="matrix(1.12 0 0 1 11.5585 16.3063)" />
			<rect />
		</svg>
	</g>
	<path d="M -68.3927 0 L 68.3927 0" fill="none" stroke="#000000" stroke-width="3.4666667" stroke-linecap="round" stroke-linejoin="round" marker-start="url(#CustomMarker-03)" marker-end="url(#CustomMarker-04)" transform="matrix(2.90377e-008 0.384615 -0.384615 2.90377e-008 87.342 131.632)" />
	<path d="M -68.3927 -10.0287 L -68.3927 10.0287" fill="none" stroke="#000000" stroke-width="3.4666667" stroke-linecap="round" stroke-linejoin="round" transform="matrix(2.90377e-008 0.384615 -0.384615 2.90377e-008 87.342 131.632)" />
	<path d="M 68.3927 -10.0287 L 68.3927 10.0287" fill="none" stroke="#000000" stroke-width="3.4666667" stroke-linecap="round" stroke-linejoin="round" transform="matrix(2.90377e-008 0.384615 -0.384615 2.90377e-008 87.342 131.632)" />
	<g transform="matrix(1 0 -0 1 71.1072 120.425)">
		<svg width="32.9738617" height="47.9999886">
			<defs />
			<path d="M 9.09632 14.0579 C 9.00816 14.3945, 8.89194 14.738, 8.74709 15.089, 8.60282 15.4405, 8.42019 15.7594, 8.20035 16.0462, 7.9805 16.3336, 7.7286 16.5729, 7.44521 16.7647, 7.16239 16.9571, 6.83835 17.0533, 6.47366 17.0533, 6.15935 17.0533, 5.89027 16.9863, 5.66699 16.8518, 5.44371 16.7178, 5.27082 16.5409, 5.1483 16.321, 5.02578 16.1012, 4.96395 15.8567, 4.96395 15.5877, 4.95135 15.5762, 4.94506 15.5453, 4.94506 15.4961, 4.94506 15.2338, 5.00174 14.959, 5.11509 14.6716, 5.32234 14.1409, 5.51757 13.6096, 5.69963 13.0783, 5.88226 12.5471, 6.04256 12.0158, 6.18111 11.4839, 6.26927 11.1244, 6.33511 10.7763, 6.37919 10.4396, 6.39179 10.3423, 6.39809 10.2387, 6.39809 10.1282, 6.39809 9.92095, 6.3729 9.73202, 6.32252 9.56027, 6.20916 9.17612, 5.97042 8.98375, 5.60516 8.98318, 4.96395 8.98375, 4.41377 9.20245, 3.95462 9.6387, 3.49546 10.0755, 3.08612 10.6601, 2.72773 11.3923 L 1.44473 16.3754 C 1.38863 16.6021, 1.27355 16.771, 1.10065 16.8838, 0.927757 16.9972, 0.753141 17.0533, 0.576808 17.0533, 0.39475 17.0533, 0.243607 16.9926, 0.123953 16.8701, 0.042084 16.7911, 0.000863314 16.6811, 0.000863314 16.5403, 0.000863314 16.4739, 0.0071609 16.4063, 0.0197561 16.3388 L 2.85998 5.32828 C 2.91036 5.12733, 2.94185 4.97447, 2.95444 4.87027 L 2.95444 4.84279 C 2.95444 4.7884, 2.94185 4.7489, 2.91666 4.72371, 2.84108 4.67562, 2.69967 4.64184, 2.49185 4.62352, 2.2846 4.6052, 2.0453 4.59604, 1.77507 4.59547, 1.68061 4.59604, 1.61133 4.56569, 1.56725 4.50386, 1.52946 4.4678, 1.51057 4.422, 1.51057 4.36646, 1.51057 4.33039, 1.5203 4.29662, 1.5392 4.2657 L 1.56725 4.11914 C 1.61763 3.97315, 1.73729 3.88155, 1.92564 3.84433 L 4.38858 3.64281, 4.42579 3.64281 C 4.50136 3.64338, 4.56434 3.668, 4.61472 3.71609, 4.6525 3.77162, 4.6714 3.82029, 4.6714 3.86265, 4.6714 3.89987, 4.66224 3.93364, 4.64334 3.96342 L 3.23726 9.42287 C 3.41359 9.21562, 3.72504 8.98833, 4.1716 8.74101, 4.61815 8.49368, 5.13399 8.37002, 5.71852 8.36945, 6.09008 8.37002, 6.43645 8.43872, 6.75705 8.57613, 7.07766 8.71353, 7.32613 8.93509, 7.50189 9.23967, 7.69081 9.55168, 7.78471 9.90263, 7.78471 10.2931 L 7.78471 10.3389 C 7.77211 10.7305, 7.716 11.1244, 7.61524 11.5205, 7.47097 12.077, 7.30093 12.6238, 7.10571 13.1608, 6.91106 13.6984, 6.70953 14.2445, 6.50171 14.7999, 6.31336 15.2768, 6.21889 15.677, 6.21889 15.9999, 6.21889 15.9518, 6.22519 15.9272, 6.23778 15.9266, 6.23778 16.2752, 6.354 16.4493, 6.58644 16.4487, 6.80056 16.4493, 6.99121 16.3852, 7.15781 16.2569, 7.32441 16.1287, 7.48013 15.9563, 7.6244 15.7394, 7.76925 15.523, 7.89692 15.2665, 8.00684 14.9699, 8.11676 14.6739, 8.21924 14.3608, 8.31313 14.0304, 8.35092 13.8724, 8.45798 13.7928, 8.63431 13.7923 L 8.85129 13.7923 C 9.01503 13.7928, 9.09632 13.8598, 9.09632 13.9938 L 9.09632 14.0579 Z" stroke="none" fill="#000000" />
			<rect />
		</svg>
	</g>
	<path d="M -91.3063 0 L 91.3068 0" fill="none" stroke="#000000" stroke-width="3.4666667" stroke-linecap="round" stroke-linejoin="round" transform="matrix(0.384615 0 0 0.384615 137.699 58.5474)" />
	<path d="M 10.5128 -7.93696e-007 L 1.20486e-006 15.9588, -10.5128 7.93695e-007 Z" fill="none" stroke="#000000" stroke-width="2.5999999" stroke-linecap="round" stroke-linejoin="round" transform="matrix(0.384615 0 0 0.384615 137.933 52.4094)" />
	<path d="M -36.9393 -0.0164185 L 36.9397 0.0159912" fill="none" stroke="#000000" stroke-width="1.73333335" stroke-linecap="round" stroke-linejoin="round" transform="matrix(0.384615 0 0 0.384615 126.251 64.153)" />
	<path d="M -36.9391 -0.0161743 L 36.9407 0.0161438" fill="none" stroke="#000000" stroke-width="1.73333335" stroke-linecap="round" stroke-linejoin="round" transform="matrix(0.384615 0 0 0.384615 142.569 68.7274)" />
	<path d="M -19.6286 -0.00842285 L 19.6288 0.00848389" fill="none" stroke="#000000" stroke-width="1.73333335" stroke-linecap="round" stroke-linejoin="round" transform="matrix(0.384615 0 0 0.384615 156.779 64.246)" />
	<path d="M -19.629 -0.00860596 L 19.6292 0.00872803" fill="none" stroke="#000000" stroke-width="1.73333335" stroke-linecap="round" stroke-linejoin="round" transform="matrix(0.384615 0 0 0.384615 127.477 73.3611)" />
	<path d="M -11.4376 -0.00476074 L 11.4365 0.00488281" fill="none" stroke="#000000" stroke-width="1.73333335" stroke-linecap="round" stroke-linejoin="round" transform="matrix(0.384615 0 0 0.384615 147.32 73.3611)" />
	<path d="M -11.4371 -0.00509644 L 11.438 0.00494385" fill="none" stroke="#000000" stroke-width="1.73333335" stroke-linecap="round" stroke-linejoin="round" transform="matrix(0.384615 0 0 0.384615 140.711 78.0795)" />
	<path d="M -129.207 0 L 129.207 0" fill="none" stroke="#000000" stroke-width="3.4666667" stroke-linecap="round" stroke-linejoin="round" marker-start="url(#CustomMarker-05)" marker-end="url(#CustomMarker-06)" transform="matrix(2.90377e-008 0.384615 -0.384615 2.90377e-008 181.023 108.242)" />
	<path d="M -129.207 -12.1058 L -129.207 12.1058" fill="none" stroke="#000000" stroke-width="3.4666667" stroke-linecap="round" stroke-linejoin="round" transform="matrix(2.90377e-008 0.384615 -0.384615 2.90377e-008 181.023 108.242)" />
	<path d="M 129.207 -12.1058 L 129.207 12.1058" fill="none" stroke="#000000" stroke-width="3.4666667" stroke-linecap="round" stroke-linejoin="round" transform="matrix(2.90377e-008 0.384615 -0.384615 2.90377e-008 181.023 108.242)" />
	<g transform="matrix(1 0 -0 1 158.597 96.9769)">
		<svg width="50.9839096" height="54.0428391">
			<defs />
			<path d="M 9.09632 14.0579 C 9.00816 14.3945, 8.89194 14.738, 8.74709 15.089, 8.60282 15.4405, 8.42019 15.7594, 8.20035 16.0462, 7.9805 16.3336, 7.7286 16.5729, 7.44521 16.7647, 7.16239 16.9571, 6.83835 17.0533, 6.47366 17.0533, 6.15935 17.0533, 5.89027 16.9863, 5.66699 16.8518, 5.44371 16.7178, 5.27082 16.5409, 5.1483 16.321, 5.02578 16.1012, 4.96395 15.8567, 4.96395 15.5877, 4.95135 15.5762, 4.94506 15.5453, 4.94506 15.4961, 4.94506 15.2338, 5.00174 14.959, 5.11509 14.6716, 5.32234 14.1409, 5.51757 13.6096, 5.69963 13.0783, 5.88226 12.5471, 6.04256 12.0158, 6.18111 11.4839, 6.26927 11.1244, 6.33511 10.7763, 6.37919 10.4396, 6.39179 10.3423, 6.39809 10.2387, 6.39809 10.1282, 6.39809 9.92095, 6.3729 9.73202, 6.32252 9.56027, 6.20916 9.17612, 5.97042 8.98375, 5.60516 8.98318, 4.96395 8.98375, 4.41377 9.20245, 3.95462 9.6387, 3.49546 10.0755, 3.08612 10.6601, 2.72773 11.3923 L 1.44473 16.3754 C 1.38863 16.6021, 1.27355 16.771, 1.10065 16.8838, 0.927757 16.9972, 0.753141 17.0533, 0.576808 17.0533, 0.39475 17.0533, 0.243607 16.9926, 0.123953 16.8701, 0.042084 16.7911, 0.000863314 16.6811, 0.000863314 16.5403, 0.000863314 16.4739, 0.0071609 16.4063, 0.0197561 16.3388 L 2.85998 5.32828 C 2.91036 5.12733, 2.94185 4.97447, 2.95444 4.87027 L 2.95444 4.84279 C 2.95444 4.7884, 2.94185 4.7489, 2.91666 4.72371, 2.84108 4.67562, 2.69967 4.64184, 2.49185 4.62352, 2.2846 4.6052, 2.0453 4.59604, 1.77507 4.59547, 1.68061 4.59604, 1.61133 4.56569, 1.56725 4.50386, 1.52946 4.4678, 1.51057 4.422, 1.51057 4.36646, 1.51057 4.33039, 1.5203 4.29662, 1.5392 4.2657 L 1.56725 4.11914 C 1.61763 3.97315, 1.73729 3.88155, 1.92564 3.84433 L 4.38858 3.64281, 4.42579 3.64281 C 4.50136 3.64338, 4.56434 3.668, 4.61472 3.71609, 4.6525 3.77162, 4.6714 3.82029, 4.6714 3.86265, 4.6714 3.89987, 4.66224 3.93364, 4.64334 3.96342 L 3.23726 9.42287 C 3.41359 9.21562, 3.72504 8.98833, 4.1716 8.74101, 4.61815 8.49368, 5.13399 8.37002, 5.71852 8.36945, 6.09008 8.37002, 6.43645 8.43872, 6.75705 8.57613, 7.07766 8.71353, 7.32613 8.93509, 7.50189 9.23967, 7.69081 9.55168, 7.78471 9.90263, 7.78471 10.2931 L 7.78471 10.3389 C 7.77211 10.7305, 7.716 11.1244, 7.61524 11.5205, 7.47097 12.077, 7.30093 12.6238, 7.10571 13.1608, 6.91106 13.6984, 6.70953 14.2445, 6.50171 14.7999, 6.31336 15.2768, 6.21889 15.677, 6.21889 15.9999, 6.21889 15.9518, 6.22519 15.9272, 6.23778 15.9266, 6.23778 16.2752, 6.354 16.4493, 6.58644 16.4487, 6.80056 16.4493, 6.99121 16.3852, 7.15781 16.2569, 7.32441 16.1287, 7.48013 15.9563, 7.6244 15.7394, 7.76925 15.523, 7.89692 15.2665, 8.00684 14.9699, 8.11676 14.6739, 8.21924 14.3608, 8.31313 14.0304, 8.35092 13.8724, 8.45798 13.7928, 8.63431 13.7923 L 8.85129 13.7923 C 9.01503 13.7928, 9.09632 13.8598, 9.09632 13.9938 L 9.09632 14.0579 Z" stroke="none" fill="#000000" />
			<path d="M 2.39138 3.19713 L -1.90858 3.19713, -1.90858 2.915 C -1.90858 2.8948, -1.898 2.86402, -1.87684 2.82266 L -0.149418 0.945196 C 0.0551279 0.71981, 0.261918 0.488975, 0.471594 0.253009, 0.68127 0.0170434, 0.868504 -0.224052, 1.03394 -0.470277, 1.19937 -0.716502, 1.33146 -0.970422, 1.4302 -1.23204, 1.52895 -1.49365, 1.578 -1.76809, 1.578 -2.05567, 1.578 -2.29805, 1.54658 -2.52472, 1.4831 -2.73503, 1.41962 -2.94535, 1.32825 -3.13002, 1.20835 -3.28904, 1.08844 -3.44806, 0.938716 -3.5763, 0.759177 -3.67377, 0.579638 -3.77123, 0.371886 -3.81996, 0.13592 -3.82028, -0.216105 -3.81996, -0.527092 -3.7148, -0.7964 -3.50449, -1.06571 -3.29417, -1.24461 -3.06237, -1.33277 -2.80974, -1.35009 -2.80268, -1.32187 -2.79915, -1.24813 -2.79948 L -1.15836 -2.79948 C -1.05256 -2.77511, -0.961191 -2.73824, -0.883605 -2.68887, -0.806018 -2.63917, -0.740935 -2.57088, -0.688036 -2.48368, -0.635136 -2.39647, -0.608846 -2.29132, -0.608846 -2.16852, -0.608846 -1.96302, -0.675532 -1.8056, -0.809545 -1.69627, -0.943558 -1.58663, -1.09328 -1.53212, -1.25871 -1.53244, -1.41709 -1.53212, -1.56489 -1.58663, -1.70243 -1.69627, -1.83965 -1.8056, -1.90858 -1.96302, -1.90858 -2.16852, -1.90858 -2.45547, -1.85215 -2.72734, -1.7393 -2.98382, -1.62645 -3.24031, -1.47352 -3.46249, -1.27987 -3.65068, -1.08623 -3.83856, -0.857315 -3.98732, -0.593136 -4.09697, -0.328958 -4.20629, -0.0487483 -4.26112, 0.24685 -4.26144, 0.612981 -4.26112, 0.948655 -4.20725, 1.25323 -4.09953, 1.55781 -3.99181, 1.8175 -3.83695, 2.0323 -3.63529, 2.24711 -3.43331, 2.41543 -3.19991, 2.53693 -2.93509, 2.65844 -2.66995, 2.71904 -2.37692, 2.71904 -2.05567, 2.71904 -1.6998, 2.63825 -1.37214, 2.47602 -1.07302, 2.31411 -0.77357, 2.11342 -0.499131, 1.87392 -0.2497, 1.63443 5.126e-005, 1.37987 0.235055, 1.11056 0.455632, 0.841252 0.676208, 0.597272 0.890693, 0.378939 1.09909 L -0.836155 2.24301, 0.754048 2.24301 C 0.975907 2.24333, 1.18302 2.24172, 1.37474 2.2382, 1.56678 2.23499, 1.72965 2.22794, 1.86334 2.21768, 1.99736 2.20742, 2.06597 2.20069, 2.06917 2.19684, 2.09738 2.17312, 2.12399 2.12534, 2.14868 2.05353, 2.17337 1.98171, 2.19613 1.89707, 2.21729 1.79961, 2.23845 1.70215, 2.25961 1.60308, 2.28077 1.50209, 2.30193 1.40142, 2.32117 1.29081, 2.3388 1.1709 L 2.72962 1.1709 Z" stroke="none" fill="#000000" transform="matrix(1.12 0 0 1 11.9814 16.3063)" />
			<rect />
		</svg>
	</g>
</svg>
