<?xml version="1.0"?>
<svg xmlns="http://www.w3.org/2000/svg" xmlns:xlink="http://www.w3.org/1999/xlink" width="205.343552" height="164.502014">
	<defs>
		<marker id="CustomMarker-01" markerUnits="strokeWidth" markerWidth="9" markerHeight="9" viewBox="-9 -4.5 9 9" orient="auto-start-reverse">
			<path d="M 0 -0 L -6 -3, -4.8 -0.5, -4.8 0.5, -6 3 Z" fill="#000000" stroke="#000000" stroke-linejoin="round" />
		</marker>
		<marker id="CustomMarker-02" markerUnits="strokeWidth" markerWidth="9" markerHeight="9" viewBox="-9 -4.5 9 9" orient="auto-start-reverse">
			<path d="M 0 -0 L -6 -3, -4.8 -0.5, -4.8 0.5, -6 3 Z" fill="#000000" stroke="#000000" stroke-linejoin="round" />
		</marker>
		<marker id="CustomMarker-03" markerUnits="strokeWidth" markerWidth="9" markerHeight="9" viewBox="-9 -4.5 9 9" orient="auto-start-reverse">
			<path d="M 0 -0 L -6 -3, -4.8 -0.5, -4.8 0.5, -6 3 Z" fill="#000000" stroke="#000000" stroke-linejoin="round" />
		</marker>
	</defs>
	<path d="M -175.75 0 L 175.75 0" fill="none" stroke="#000000" stroke-width="3.73333335" stroke-linecap="round" stroke-linejoin="round" marker-start="url(#CustomMarker-01)" marker-end="url(#CustomMarker-02)" transform="matrix(2.69635e-008 0.357143 -0.357143 2.69635e-008 29.9927 81.5831)" />
	<path d="M -175.75 -12.3021 L -175.75 12.3021" fill="none" stroke="#000000" stroke-width="3.73333335" stroke-linecap="round" stroke-linejoin="round" transform="matrix(2.69635e-008 0.357143 -0.357143 2.69635e-008 29.9927 81.5831)" />
	<path d="M 175.75 -12.3021 L 175.75 12.3021" fill="none" stroke="#000000" stroke-width="3.73333335" stroke-linecap="round" stroke-linejoin="round" transform="matrix(2.69635e-008 0.357143 -0.357143 2.69635e-008 29.9927 81.5831)" />
	<g transform="matrix(1 0 -0 1 9 70.3756)">
		<svg width="32.9738617" height="47.9999886">
			<defs />
			<path d="M 9.09632 14.0579 C 9.00816 14.3945, 8.89194 14.738, 8.74709 15.089, 8.60282 15.4405, 8.42019 15.7594, 8.20035 16.0462, 7.9805 16.3336, 7.7286 16.5729, 7.44521 16.7647, 7.16239 16.9571, 6.83835 17.0533, 6.47366 17.0533, 6.15935 17.0533, 5.89027 16.9863, 5.66699 16.8518, 5.44371 16.7178, 5.27082 16.5409, 5.1483 16.321, 5.02578 16.1012, 4.96395 15.8567, 4.96395 15.5877, 4.95135 15.5762, 4.94506 15.5453, 4.94506 15.4961, 4.94506 15.2338, 5.00174 14.959, 5.11509 14.6716, 5.32234 14.1409, 5.51757 13.6096, 5.69963 13.0783, 5.88226 12.5471, 6.04256 12.0158, 6.18111 11.4839, 6.26927 11.1244, 6.33511 10.7763, 6.37919 10.4396, 6.39179 10.3423, 6.39809 10.2387, 6.39809 10.1282, 6.39809 9.92095, 6.3729 9.73202, 6.32252 9.56027, 6.20916 9.17612, 5.97042 8.98375, 5.60516 8.98318, 4.96395 8.98375, 4.41377 9.20245, 3.95462 9.6387, 3.49546 10.0755, 3.08612 10.6601, 2.72773 11.3923 L 1.44473 16.3754 C 1.38863 16.6021, 1.27355 16.771, 1.10065 16.8838, 0.927757 16.9972, 0.753141 17.0533, 0.576808 17.0533, 0.39475 17.0533, 0.243607 16.9926, 0.123953 16.8701, 0.042084 16.7911, 0.000863314 16.6811, 0.000863314 16.5403, 0.000863314 16.4739, 0.0071609 16.4063, 0.0197561 16.3388 L 2.85998 5.32828 C 2.91036 5.12733, 2.94185 4.97447, 2.95444 4.87027 L 2.95444 4.84279 C 2.95444 4.7884, 2.94185 4.7489, 2.91666 4.72371, 2.84108 4.67562, 2.69967 4.64184, 2.49185 4.62352, 2.2846 4.6052, 2.0453 4.59604, 1.77507 4.59547, 1.68061 4.59604, 1.61133 4.56569, 1.56725 4.50386, 1.52946 4.4678, 1.51057 4.422, 1.51057 4.36646, 1.51057 4.33039, 1.5203 4.29662, 1.5392 4.2657 L 1.56725 4.11914 C 1.61763 3.97315, 1.73729 3.88155, 1.92564 3.84433 L 4.38858 3.64281, 4.42579 3.64281 C 4.50136 3.64338, 4.56434 3.668, 4.61472 3.71609, 4.6525 3.77162, 4.6714 3.82029, 4.6714 3.86265, 4.6714 3.89987, 4.66224 3.93364, 4.64334 3.96342 L 3.23726 9.42287 C 3.41359 9.21562, 3.72504 8.98833, 4.1716 8.74101, 4.61815 8.49368, 5.13399 8.37002, 5.71852 8.36945, 6.09008 8.37002, 6.43645 8.43872, 6.75705 8.57613, 7.07766 8.71353, 7.32613 8.93509, 7.50189 9.23967, 7.69081 9.55168, 7.78471 9.90263, 7.78471 10.2931 L 7.78471 10.3389 C 7.77211 10.7305, 7.716 11.1244, 7.61524 11.5205, 7.47097 12.077, 7.30093 12.6238, 7.10571 13.1608, 6.91106 13.6984, 6.70953 14.2445, 6.50171 14.7999, 6.31336 15.2768, 6.21889 15.677, 6.21889 15.9999, 6.21889 15.9518, 6.22519 15.9272, 6.23778 15.9266, 6.23778 16.2752, 6.354 16.4493, 6.58644 16.4487, 6.80056 16.4493, 6.99121 16.3852, 7.15781 16.2569, 7.32441 16.1287, 7.48013 15.9563, 7.6244 15.7394, 7.76925 15.523, 7.89692 15.2665, 8.00684 14.9699, 8.11676 14.6739, 8.21924 14.3608, 8.31313 14.0304, 8.35092 13.8724, 8.45798 13.7928, 8.63431 13.7923 L 8.85129 13.7923 C 9.01503 13.7928, 9.09632 13.8598, 9.09632 13.9938 L 9.09632 14.0579 Z" stroke="none" fill="#000000" />
			<rect />
		</svg>
	</g>
	<path d="M 0 -169.065 L 0 169.065" fill="none" stroke="#000000" stroke-width="3.73333335" stroke-linecap="round" stroke-linejoin="round" stroke-dasharray="5.61867, 9.31467" transform="matrix(0.357143 0 0 0.357143 48.7296 81.5831)" />
	<path d="M -45.3231 0 L 45.3231 0" fill="none" stroke="#000000" stroke-width="3.73333335" stroke-linecap="round" stroke-linejoin="round" transform="matrix(0.357143 0 0 0.357143 59.8851 18.8152)" />
	<path d="M -5.14551 -13.5501 L 5.1449 13.5501" fill="none" stroke="#000000" stroke-width="3.73333335" stroke-linecap="round" stroke-linejoin="round" transform="matrix(0.357143 0 0 0.357143 41.8417 13.9758)" />
	<path d="M 5.48352 -14.4412 L -5.48334 14.4412" fill="none" stroke="#000000" stroke-width="3.73333335" stroke-linecap="round" stroke-linejoin="round" transform="matrix(0.357143 0 0 0.357143 78.0495 13.6576)" />
	<path d="M 0 -169.065 L 0 169.065" fill="none" stroke="#000000" stroke-width="3.73333335" stroke-linecap="round" stroke-linejoin="round" stroke-dasharray="5.61867, 9.31467" transform="matrix(0.357143 0 0 0.357143 71.4883 81.5831)" />
	<path d="M 0 -169.065 L 0 169.065" fill="none" stroke="#000000" stroke-width="3.73333335" stroke-linecap="round" stroke-linejoin="round" stroke-dasharray="5.61867, 9.31467" transform="matrix(0.357143 0 0 0.357143 60.1089 81.5831)" />
	<path d="M 0 -165.883 L 0 165.883" fill="none" stroke="#000000" stroke-width="3.73333335" stroke-linecap="round" stroke-linejoin="round" stroke-dasharray="5.61867, 9.31467" transform="matrix(0.357143 0 0 0.357143 54.4193 82.7194)" />
	<path d="M 0 -169.065 L 0 169.065" fill="none" stroke="#000000" stroke-width="3.73333335" stroke-linecap="round" stroke-linejoin="round" stroke-dasharray="5.61867, 9.31467" transform="matrix(0.357143 0 0 0.357143 65.7986 83.8557)" />
	<path d="M -208.253 0 L 208.254 0" fill="none" stroke="#000000" stroke-width="3.73333335" stroke-linecap="round" stroke-linejoin="round" transform="matrix(0.357143 0 0 0.357143 118.298 144.236)" />
	<path d="M 16.4722 -0 C 16.4722 9.09734, 9.09734 16.4722, -0 16.4722, -9.09734 16.4722, -16.4722 9.09734, -16.4722 -0, -16.4722 -9.09734, -9.09734 -16.4722, -0 -16.4722, 9.09734 -16.4722, 16.4722 -9.09734, 16.4722 -0 Z" fill="none" stroke="#000000" stroke-width="3.73333335" stroke-linecap="round" stroke-linejoin="round" transform="matrix(0.357143 0 0 0.357143 42.9746 150.077)" />
	<path d="M 161.525 0 L -161.525 0" fill="none" stroke="#000000" stroke-width="3.73333335" stroke-linecap="round" stroke-linejoin="round" stroke-dasharray="5.61867, 9.31467" transform="matrix(0.357143 0 0 0.357143 130.807 141.963)" />
	<path d="M 161.523 0 L -161.526 0" fill="none" stroke="#000000" stroke-width="3.73333335" stroke-linecap="round" stroke-linejoin="round" stroke-dasharray="5.61867, 9.31467" transform="matrix(0.357143 0 0 0.357143 133.241 140.357)" />
	<path d="M 161.525 0 L -161.525 0" fill="none" stroke="#000000" stroke-width="3.73333335" stroke-linecap="round" stroke-linejoin="round" stroke-dasharray="5.61867, 9.31467" transform="matrix(0.357143 0 0 0.357143 130.807 138.751)" />
	<path d="M 16.4725 -0 C 16.4725 9.09754, 9.09754 16.4725, -0 16.4725, -9.09754 16.4725, -16.4725 9.09754, -16.4725 -0, -16.4725 -9.09754, -9.09754 -16.4725, -0 -16.4725, 9.09754 -16.4725, 16.4725 -9.09754, 16.4725 -0 Z" fill="none" stroke="#000000" stroke-width="3.73333335" stroke-linecap="round" stroke-linejoin="round" transform="matrix(0.357143 0 0 0.357143 192.675 150.119)" />
	<path d="M -208.253 0 L 208.254 0" fill="none" stroke="#000000" stroke-width="3.73333335" stroke-linecap="round" stroke-linejoin="round" transform="matrix(0.357143 0 0 0.357143 118.298 156.002)" />
	<path d="M -41.2908 0 L 41.2914 0" fill="none" stroke="#000000" stroke-width="3.73333335" stroke-linecap="round" stroke-linejoin="round" marker-end="url(#CustomMarker-03)" transform="matrix(0.357143 0 0 0.357143 147.988 119.532)" />
	<g transform="matrix(1 0 -0 1 110.508 105.721)">
		<svg width="111.060272" height="90.0428467">
			<defs />
			<path d="M 9.05438 8.65269 C 9.22442 8.81814, 9.33148 9.05001, 9.37499 9.34886, 9.38758 9.49599, 9.39388 9.63626, 9.39388 9.77022, 9.39388 9.94198, 9.38128 10.1126, 9.35609 10.2832, 9.31831 10.6256, 9.26048 10.9725, 9.18148 11.3234, 9.10304 11.675, 9.02633 11.9876, 8.95076 12.2618, 8.8248 12.7816, 8.65649 13.3249, 8.4458 13.8929, 8.23512 14.4608, 7.97577 14.9829, 7.66776 15.4593, 7.35975 15.9356, 6.99964 16.3358, 6.58744 16.6592, 6.17523 16.9827, 5.6989 17.1441, 5.15788 17.1441, 4.73022 17.1441, 4.32602 17.068, 3.9453 16.9151, 3.56516 16.7629, 3.26802 16.5155, 3.05391 16.1732, 2.82147 15.8257, 2.70811 15.4289, 2.71384 14.9824, 2.71384 14.9583, 2.72013 14.9343, 2.73273 14.9091, 2.73273 14.4763, 2.78311 14.0394, 2.88387 13.5992, 2.98463 13.1784, 3.1312 12.7146, 3.32299 12.2074, 3.51478 11.7007, 3.69855 11.2089, 3.87431 10.732, 4.06324 10.2259, 4.15771 9.8103, 4.15771 9.48626, 4.15771 9.21203, 4.04149 9.07463, 3.80847 9.07405, 3.59493 9.07463, 3.40142 9.13588, 3.22852 9.25783, 3.05562 9.38035, 2.89818 9.54981, 2.75677 9.76622, 2.61536 9.9832, 2.48769 10.2397, 2.37434 10.5357, 2.26098 10.8322, 2.16709 11.1477, 2.09152 11.4832, 2.02224 11.6486, 1.90602 11.7339, 1.74229 11.7397 L 1.52531 11.7397 C 1.37416 11.7402, 1.29859 11.6641, 1.29859 11.5107 L 1.29859 11.4465 C 1.38676 11.111, 1.50355 10.7681, 1.64782 10.4166, 1.79267 10.0656, 1.9753 9.74675, 2.19514 9.45935, 2.41556 9.17252, 2.66746 8.93436, 2.95028 8.74486, 3.2331 8.55593, 3.55714 8.46089, 3.92183 8.46032, 4.23671 8.46089, 4.50522 8.52845, 4.7285 8.66242, 4.95178 8.79696, 5.12181 8.97558, 5.23803 9.19829, 5.35482 9.42157, 5.41894 9.6729, 5.43154 9.95343 L 5.43154 10.0175 C 5.43154 10.2809, 5.3783 10.5523, 5.27066 10.8328, 5.08861 11.3097, 4.90827 11.7969, 4.7285 12.2944, 4.5493 12.7925, 4.40904 13.2396, 4.30828 13.6358, 4.20809 14.0515, 4.13881 14.4488, 4.10103 14.8266, 4.08843 14.9125, 4.08213 14.9949, 4.08213 15.074, 4.08213 15.3493, 4.12965 15.6087, 4.22354 15.8526, 4.30541 16.0667, 4.43938 16.235, 4.62487 16.3569, 4.81037 16.4795, 5.02907 16.5402, 5.2804 16.5396, 5.65138 16.5402, 5.9863 16.4199, 6.28515 16.1783, 6.584 15.9373, 6.85022 15.6121, 7.08266 15.2028, 7.3151 14.794, 7.5212 14.328, 7.7004 13.8058, 7.88016 13.2837, 8.03875 12.757, 8.17672 12.2251, 8.2397 11.9572, 8.27119 11.7007, 8.27119 11.4557, 8.27119 11.2731, 8.25859 11.099, 8.2334 10.9336, 8.15211 10.5374, 7.96948 10.2013, 7.68608 9.92595, 7.55441 9.79828, 7.48513 9.65172, 7.47883 9.48626, 7.47883 9.42557, 7.48857 9.36775, 7.50689 9.31222, 7.56414 9.09924, 7.67578 8.91432, 7.84238 8.7586, 8.00898 8.60288, 8.20535 8.50383, 8.43149 8.46032, 8.46928 8.44887, 8.51336 8.44257, 8.56374 8.442, 8.74637 8.44257, 8.91011 8.51299, 9.05438 8.65269 Z" stroke="none" fill="#000000" />
			<polyline points="1.95058 4.69 10.7303 4.69" fill="none" stroke="#000000" stroke-width="0.703500032" stroke-linecap="round" stroke-linejoin="round" />
			<path d="M 2.37267 3.19713 C 1.72472 3.17661, 1.09441 3.16635, 0.481416 3.16635, -0.131261 3.16635, -0.761571 3.17661, -1.40951 3.19713 L -1.40951 2.75598, -1.04499 2.75598 C -0.928927 2.7563, -0.819601 2.75469, -0.717648 2.75117, -0.615375 2.74796, -0.518552 2.7393, -0.426859 2.72552, -0.335166 2.71205, -0.255976 2.69827, -0.18929 2.68416, -0.132864 2.67422, -0.086376 2.6428, -0.0495062 2.58958, -0.012316 2.53668, 0.00595856 2.47769, 0.00595856 2.41229 L 0.00595856 -3.36887 C -0.169733 -3.28295, -0.386463 -3.21787, -0.643588 -3.17362, -0.900714 -3.12906, -1.18221 -3.10694, -1.4887 -3.10726 L -1.4887 -3.54328 C -1.06615 -3.54296, -0.675969 -3.59329, -0.318494 -3.69429, 0.0389807 -3.79496, 0.348044 -3.98411, 0.608376 -4.26144 L 0.772206 -4.26144 C 0.888265 -4.26112, 0.946294 -4.20469, 0.946294 -4.09216 L 0.946294 2.41229 C 0.946294 2.4809, 0.963928 2.54085, 0.999194 2.59215, 1.03446 2.64344, 1.08576 2.67422, 1.15244 2.68416, 1.20887 2.69827, 1.28133 2.71205, 1.36917 2.72552, 1.45702 2.7393, 1.55641 2.74796, 1.66734 2.75117, 1.77827 2.75469, 1.88663 2.7563, 1.99243 2.75598 L 2.37267 2.75598, 2.37267 3.19713 Z" stroke="none" fill="#000000" transform="matrix(1.12 0 0 1 13.1562 16.3972)" />
			<rect />
		</svg>
	</g>
</svg>
