<?xml version="1.0"?>
<svg xmlns="http://www.w3.org/2000/svg" xmlns:xlink="http://www.w3.org/1999/xlink" width="277.1875" height="112.1875">
	<defs>
		<marker id="CustomMarker-01" markerUnits="strokeWidth" markerWidth="9" markerHeight="9" viewBox="-9 -4.5 9 9" orient="auto-start-reverse">
			<path d="M 0 -0 L -6 -3, -4.8 -0.5, -4.8 0.5, -6 3 Z" fill="#000000" stroke="#000000" stroke-linejoin="round" />
		</marker>
		<marker id="CustomMarker-02" markerUnits="strokeWidth" markerWidth="9" markerHeight="9" viewBox="-9 -4.5 9 9" orient="auto-start-reverse">
			<path d="M 0 -0 L -6 -3, -4.8 -0.5, -4.8 0.5, -6 3 Z" fill="#000000" stroke="#000000" stroke-linejoin="round" />
		</marker>
		<marker id="CustomMarker-03" markerUnits="strokeWidth" markerWidth="9" markerHeight="9" viewBox="-9 -4.5 9 9" orient="auto-start-reverse">
			<path d="M 0 -0 L -6 -3, -4.8 -0.5, -4.8 0.5, -6 3 Z" fill="#000000" stroke="#000000" stroke-linejoin="round" />
		</marker>
	</defs>
	<path d="M 0 -136.263 L 0 136.264" fill="none" stroke="#000000" stroke-width="4.26666689" stroke-linecap="round" stroke-linejoin="round" marker-end="url(#CustomMarker-01)" transform="matrix(0.3125 0 0 0.3125 109.613 59.3852)" />
	<path d="M -104.059 0 L 104.059 0" fill="none" stroke="#000000" stroke-width="4.26666689" stroke-linecap="round" stroke-linejoin="round" marker-end="url(#CustomMarker-02)" transform="matrix(0.3125 0 0 0.3125 142.132 16.8029)" />
	<g transform="matrix(1 0 -0 1 9.06036 52.08)">
		<svg width="302.995911" height="150.085678">
			<defs />
			<path d="M 7.75007 12.1262 C 7.9201 12.2917, 8.02716 12.5235, 8.07067 12.8224, 8.08327 12.9695, 8.08957 13.1098, 8.08957 13.2438, 8.08957 13.4155, 8.07697 13.5861, 8.05178 13.7567, 8.014 14.0991, 7.95617 14.446, 7.87717 14.797, 7.79873 15.1485, 7.72202 15.4611, 7.64644 15.7353, 7.52049 16.2552, 7.35217 16.7985, 7.14149 17.3664, 6.93081 17.9343, 6.67146 18.4565, 6.36345 18.9328, 6.05544 19.4091, 5.69533 19.8093, 5.28312 20.1328, 4.87092 20.4562, 4.39459 20.6177, 3.85357 20.6177, 3.4259 20.6177, 3.02171 20.5415, 2.64099 20.3887, 2.26084 20.2364, 1.96371 19.9891, 1.74959 19.6467, 1.51715 19.2992, 1.4038 18.9024, 1.40952 18.4559, 1.40952 18.4318, 1.41582 18.4078, 1.42842 18.3826, 1.42842 17.9498, 1.4788 17.513, 1.57956 17.0727, 1.68032 16.6519, 1.82688 16.1882, 2.01867 15.6809, 2.21046 15.1743, 2.39424 14.6825, 2.57 14.2056, 2.75893 13.6995, 2.85339 13.2838, 2.85339 12.9598, 2.85339 12.6856, 2.73717 12.5482, 2.50416 12.5476, 2.29062 12.5482, 2.09711 12.6094, 1.92421 12.7314, 1.75131 12.8539, 1.59387 13.0233, 1.45246 13.2397, 1.31105 13.4567, 1.18338 13.7132, 1.07002 14.0092, 0.956668 14.3058, 0.862776 14.6212, 0.787205 14.9567, 0.717931 15.1222, 0.601712 15.2075, 0.437974 15.2132 L 0.220993 15.2132 C 0.0698501 15.2138, -0.00572118 15.1376, -0.00572118 14.9842 L -0.00572118 14.9201 C 0.0824453 14.5846, 0.199237 14.2416, 0.34351 13.8901, 0.488355 13.5392, 0.670985 13.2203, 0.890829 12.9329, 1.11125 12.6461, 1.36315 12.4079, 1.64597 12.2184, 1.92879 12.0295, 2.25283 11.9344, 2.61752 11.9339, 2.9324 11.9344, 3.20091 12.002, 3.42418 12.1359, 3.64746 12.2705, 3.8175 12.4491, 3.93372 12.6718, 4.05051 12.8951, 4.11463 13.1464, 4.12723 13.427 L 4.12723 13.4911 C 4.12723 13.7544, 4.07398 14.0258, 3.96635 14.3063, 3.78429 14.7832, 3.60395 15.2704, 3.42418 15.7679, 3.24499 16.266, 3.10472 16.7132, 3.00396 17.1093, 2.90377 17.525, 2.8345 17.9223, 2.79671 18.3002, 2.78412 18.386, 2.77782 18.4685, 2.77782 18.5475, 2.77782 18.8229, 2.82534 19.0822, 2.91923 19.3261, 3.0011 19.5402, 3.13507 19.7085, 3.32056 19.8305, 3.50605 19.953, 3.72475 20.0137, 3.97608 20.0131, 4.34707 20.0137, 4.68199 19.8935, 4.98084 19.6519, 5.27969 19.4108, 5.54591 19.0856, 5.77834 18.6763, 6.01078 18.2675, 6.21689 17.8015, 6.39608 17.2794, 6.57585 16.7572, 6.73444 16.2305, 6.87241 15.6987, 6.93539 15.4307, 6.96688 15.1743, 6.96688 14.9292, 6.96688 14.7466, 6.95428 14.5725, 6.92909 14.4071, 6.84779 14.0109, 6.66516 13.6749, 6.38177 13.3995, 6.25009 13.2718, 6.18082 13.1252, 6.17452 12.9598, 6.17452 12.8991, 6.18425 12.8413, 6.20257 12.7857, 6.25983 12.5728, 6.37146 12.3878, 6.53807 12.2321, 6.70467 12.0764, 6.90104 11.9774, 7.12718 11.9339, 7.16496 11.9224, 7.20905 11.9161, 7.25943 11.9155, 7.44206 11.9161, 7.6058 11.9865, 7.75007 12.1262 Z" stroke="none" fill="#000000" />
			<path d="M 2.85147 -0.373133 C 2.85147 0.119637, 2.81717 0.609522, 2.74856 1.09684, 2.67995 1.58416, 2.51003 2.04167, 2.2388 2.46871, 2.04515 2.78034, 1.7861 3.01951, 1.46197 3.18687, 1.13816 3.35455, 0.785813 3.43822, 0.405254 3.43822, 0.0391223 3.43822, -0.307132 3.35455, -0.632867 3.18687, -0.958602 3.01951, -1.21861 2.78034, -1.41226 2.46871, -1.68349 2.04167, -1.85341 1.58416, -1.92202 1.09684, -1.99063 0.609522, -2.02526 0.119637, -2.02526 -0.373133, -2.02526 -0.871996, -1.99063 -1.37054, -1.92202 -1.86812, -1.85341 -2.3657, -1.68349 -2.83154, -1.41226 -3.26628, -1.21861 -3.58047, -0.959563 -3.82509, -0.635431 -3.9995, -0.311299 -4.17391, 0.0355959 -4.26112, 0.405254 -4.26144, 0.782286 -4.26112, 1.13367 -4.17391, 1.4594 -3.9995, 1.78514 -3.82509, 2.04515 -3.58047, 2.2388 -3.26628, 2.51003 -2.83154, 2.67995 -2.3657, 2.74856 -1.86812, 2.81717 -1.37054, 2.85147 -0.871996, 2.85147 -0.373133 Z M 1.80534 -0.552672 C 1.80534 -0.767799, 1.80373 -0.995108, 1.80021 -1.2346, 1.79668 -1.47377, 1.7877 -1.70813, 1.7736 -1.93737, 1.75949 -2.16628, 1.73416 -2.38269, 1.69697 -2.58627, 1.6601 -2.78954, 1.61522 -2.96331, 1.56232 -3.10726, 1.45684 -3.33938, 1.30199 -3.53014, 1.09744 -3.6789, 0.893215 -3.82766, 0.66238 -3.90204, 0.405254 -3.90236, 0.155182 -3.90204, -0.0708451 -3.8267, -0.273468 -3.67633, -0.47609 -3.52565, -0.630302 -3.33617, -0.736102 -3.10726, -0.788681 -2.96331, -0.833566 -2.78954, -0.870756 -2.58627, -0.907625 -2.38269, -0.933274 -2.16628, -0.947381 -1.93737, -0.961487 -1.70813, -0.970144 -1.47377, -0.97367 -1.2346, -0.977197 -0.995108, -0.97912 -0.767799, -0.97912 -0.552672, -0.97912 -0.31286, -0.977197 -0.0605431, -0.97367 0.204277, -0.970144 0.469418, -0.961487 0.725902, -0.947381 0.97373, -0.933274 1.22188, -0.907625 1.45688, -0.870756 1.67906, -0.833566 1.90156, -0.788681 2.08783, -0.736102 2.23788, -0.637355 2.48795, -0.484747 2.69314, -0.278918 2.85376, -0.0727689 3.0147, 0.155182 3.09486, 0.405254 3.09454, 0.666227 3.09486, 0.899627 3.0147, 1.10546 2.85376, 1.31161 2.69314, 1.46389 2.48795, 1.56232 2.23788, 1.61522 2.08783, 1.6601 1.90156, 1.69697 1.67906, 1.73416 1.45688, 1.75949 1.22188, 1.7736 0.97373, 1.7877 0.725902, 1.79668 0.469418, 1.80021 0.204277, 1.80373 -0.0605431, 1.80534 -0.31286, 1.80534 -0.552672 Z" stroke="none" fill="#000000" transform="matrix(1.12 0 0 1 11.0972 19.8707)" />
			<polyline points="-6.566 -1.9698 6.566 -1.9698" fill="none" stroke="#000000" stroke-width="0.750400007" stroke-linecap="round" stroke-linejoin="round" transform="matrix(1 0 0 1 26.6892 14.7718)" />
			<polyline points="-6.566 1.9698 6.566 1.9698" fill="none" stroke="#000000" stroke-width="0.750400007" stroke-linecap="round" stroke-linejoin="round" transform="matrix(1 0 0 1 26.6892 14.7718)" />
			<polyline points="85.3654 2.814 55.2982 2.814" fill="none" stroke="#000000" stroke-width="0.750400007" stroke-linecap="round" stroke-linejoin="round" />
			<polyline points="55.2982 2.814 45.3329 23.9157" fill="none" stroke="#000000" stroke-width="0.750400007" stroke-linecap="round" stroke-linejoin="round" />
			<polyline points="45.3329 23.9157 41.6972 13.6521" fill="none" stroke="#000000" stroke-width="0.750400007" stroke-linecap="round" stroke-linejoin="round" />
			<polyline points="41.6972 13.6521 39.8212 15.147" fill="none" stroke="#000000" stroke-width="0.750400007" stroke-linecap="round" stroke-linejoin="round" />
			<polyline points="39.8212 15.147 39.8212 15.147" fill="none" stroke="#000000" stroke-width="0.750400007" stroke-linecap="round" stroke-linejoin="round" />
			<polyline points="39.8212 15.147 42.4476 13.0542" fill="none" stroke="#000000" stroke-width="0.750400007" stroke-linecap="round" stroke-linejoin="round" />
			<polyline points="42.4476 13.0542 45.8827 22.7515" fill="none" stroke="#000000" stroke-width="0.750400007" stroke-linecap="round" stroke-linejoin="round" />
			<ellipse cx="55.298219412565231" cy="2.8139993846416473" rx="0.37520000338554382" ry="0.37520000338554382" stroke="none" fill="#000000" />
			<ellipse cx="45.332910269498825" cy="23.915698736906052" rx="0.37520000338554382" ry="0.37520000338554382" stroke="none" fill="#000000" />
			<ellipse cx="42.447622030973434" cy="13.054168432950974" rx="0.37520000338554382" ry="0.37520000338554382" stroke="none" fill="#000000" />
			<polygon points="42.4476 13.0542 45.8827 22.7515 45.3329 23.9157 41.6972 13.6521" stroke="none" fill="#000000" />
			<path d="M 64.401 20.3313 L 56.875 20.3313, 56.875 19.8376 C 56.875 19.8023, 56.8935 19.7484, 56.9305 19.676 L 59.9541 16.3904 C 60.3114 15.996, 60.6733 15.5921, 61.0403 15.1791, 61.4072 14.7662, 61.736 14.3443, 62.0255 13.9134, 62.315 13.4825, 62.5461 13.0381, 62.719 12.5803, 62.8918 12.1225, 62.9776 11.6422, 62.9776 11.1389, 62.9776 10.7148, 62.9221 10.3181, 62.811 9.95005, 62.6999 9.58199, 62.54 9.25882, 62.3301 8.98053, 62.1209 8.70225, 61.8588 8.47783, 61.5447 8.30726, 61.2305 8.1367, 60.8663 8.05142, 60.4534 8.05086, 59.8373 8.05142, 59.2931 8.23545, 58.8213 8.6035, 58.35 8.97156, 58.0369 9.3772, 57.8826 9.81932, 57.8523 9.83166, 57.9017 9.83783, 58.0307 9.83727 L 58.1878 9.83727 C 58.373 9.87991, 58.5329 9.94444, 58.6687 10.0308, 58.8044 10.1178, 58.9183 10.2373, 59.0109 10.3899, 59.1035 10.5425, 59.1495 10.7266, 59.1495 10.9414, 59.1495 11.3011, 59.0328 11.5766, 58.7983 11.7679, 58.5637 11.9598, 58.3017 12.0551, 58.0122 12.0546, 57.7351 12.0551, 57.4758 11.9598, 57.2357 11.7679, 56.9956 11.5766, 56.875 11.3011, 56.875 10.9414, 56.875 10.4393, 56.9737 9.96351, 57.1712 9.51466, 57.3687 9.06582, 57.6363 8.677, 57.9752 8.34766, 58.3141 8.01888, 58.7147 7.75855, 59.177 7.56666, 59.6393 7.37534, 60.1297 7.2794, 60.6475 7.27884, 61.2888 7.2794, 61.8762 7.37366, 62.4092 7.56218, 62.9423 7.75069, 63.3967 8.02168, 63.7726 8.37459, 64.1485 8.72806, 64.4431 9.13651, 64.6557 9.59994, 64.8684 10.0639, 64.9744 10.5767, 64.9744 11.1389, 64.9744 11.7617, 64.833 12.3351, 64.5491 12.8586, 64.2658 13.3826, 63.9146 13.8629, 63.4955 14.2994, 63.0763 14.7364, 62.6309 15.1477, 62.159 15.5337, 61.6877 15.9197, 61.2608 16.2951, 60.8787 16.6598 L 58.7517 18.6616, 61.5351 18.6616 C 61.9234 18.6622, 62.2858 18.6594, 62.6213 18.6532, 62.9574 18.6476, 63.2424 18.6352, 63.4769 18.6173, 63.7115 18.5993, 63.8315 18.5876, 63.8371 18.5808, 63.8865 18.5393, 63.9331 18.4557, 63.9763 18.33, 64.0195 18.2044, 64.0593 18.0562, 64.0964 17.8857, 64.1334 17.7151, 64.1704 17.5417, 64.2074 17.365, 64.2445 17.1888, 64.2781 16.9953, 64.309 16.7854 L 64.9929 16.7854 Z" stroke="none" fill="#000000" />
			<path d="M 72.657 21.552 C 72.5505 21.9493, 72.3662 22.3157, 72.1051 22.6512, 71.8441 22.9873, 71.5406 23.2741, 71.1948 23.5123, 70.849 23.7505, 70.4689 23.9371, 70.0538 24.0711, 69.6387 24.2056, 69.2237 24.2726, 68.808 24.2726, 68.5252 24.2726, 68.2235 24.2606, 67.9029 24.2359, 67.5823 24.2119, 67.2915 24.1524, 67.0304 24.0573, 66.7693 23.9629, 66.573 23.8146, 66.4407 23.613, 66.34 23.4911, 66.2867 23.3354, 66.2804 23.1459, 66.2804 23.0543, 66.293 22.9478, 66.3182 22.8253, 66.3875 22.5505, 66.5289 22.3461, 66.7424 22.2115, 66.9565 22.0776, 67.1701 22.01, 67.3836 22.01, 67.604 22.01, 67.7867 22.0804, 67.931 22.2207, 68.038 22.3249, 68.0913 22.4589, 68.0913 22.6238, 68.0913 22.6913, 68.0787 22.7703, 68.0535 22.8619, 68.01 23.0577, 67.9281 23.218, 67.8084 23.3428, 67.6894 23.4682, 67.6229 23.5306, 67.6103 23.5306, 67.6481 23.5489, 67.7947 23.5753, 68.0489 23.6085, 68.3037 23.6422, 68.5916 23.6588, 68.9122 23.6588, 69.1699 23.6588, 69.4201 23.6027, 69.6622 23.4894, 69.9044 23.3766, 70.1294 23.2192, 70.3366 23.0176, 70.5439 22.8161, 70.7265 22.5871, 70.8834 22.3306, 71.0408 22.0741, 71.157 21.8028, 71.2326 21.5154 L 71.7324 19.5551 C 71.5881 19.6959, 71.3299 19.8734, 70.959 20.087, 70.588 20.3011, 70.2015 20.407, 69.7985 20.407, 69.3147 20.407, 68.8985 20.2873, 68.5493 20.0457, 68.2 19.8047, 67.931 19.4944, 67.742 19.1154, 67.5159 18.6763, 67.3962 18.2, 67.3836 17.6864 L 67.3836 17.5765 C 67.3836 17.107, 67.4466 16.6307, 67.5726 16.1475, 67.7048 15.6105, 67.9092 15.0935, 68.1857 14.5954, 68.4628 14.0979, 68.8241 13.6319, 69.2706 13.198, 69.6353 12.8321, 70.0487 12.5298, 70.5107 12.2917, 70.9733 12.0535, 71.4433 11.9344, 71.9213 11.9339, 72.3301 11.9344, 72.6702 12.0432, 72.9404 12.2596, 73.2106 12.4766, 73.3835 12.6581, 73.4585 12.8041 L 73.4116 12.9781 C 73.4683 12.7525, 73.5828 12.5848, 73.7557 12.4749, 73.9286 12.365, 74.1032 12.31, 74.2795 12.3094, 74.4621 12.31, 74.6133 12.3678, 74.7324 12.4835, 74.8142 12.5636, 74.8549 12.6735, 74.8549 12.8132, 74.8549 12.8808, 74.8486 12.9483, 74.836 13.0147 Z M 73.1001 14.2056 C 73.0875 14.0899, 73.0687 13.9771, 73.0435 13.8672, 73.0183 13.7573, 72.9902 13.6474, 72.9587 13.5369, 72.858 13.2506, 72.7148 13.0142, 72.5294 12.8275, 72.3439 12.6415, 72.1097 12.5482, 71.8269 12.5476, 71.563 12.5482, 71.3019 12.6432, 71.0443 12.8321, 70.7866 13.0216, 70.5508 13.2598, 70.3366 13.546, 70.0475 13.9434, 69.8277 14.3664, 69.6765 14.8153, 69.5254 15.2641, 69.384 15.7204, 69.2517 16.1842, 69.1384 16.6611, 69.041 17.1254, 68.9592 17.5765, 68.9088 17.7969, 68.8836 18.0105, 68.8836 18.2177, 68.8836 18.4381, 68.9088 18.6488, 68.9592 18.8498, 69.0159 19.1251, 69.1229 19.3541, 69.2798 19.5374, 69.4372 19.7206, 69.6479 19.8122, 69.9118 19.8116, 70.2015 19.8122, 70.4906 19.7131, 70.7798 19.5145, 71.0695 19.3164, 71.3397 19.0765, 71.591 18.7948, 71.7736 18.5818, 71.9465 18.3494, 72.1097 18.0986 L 73.1001 14.2056 Z" stroke="none" fill="#000000" />
			<path d="M 84.4627 17.6223 C 84.3745 17.9589, 84.2583 18.3024, 84.1135 18.6534, 83.9692 19.0049, 83.7866 19.3238, 83.5667 19.6106, 83.3469 19.898, 83.095 20.1373, 82.8121 20.3291, 82.5293 20.5215, 82.2053 20.6177, 81.84 20.6177, 81.5257 20.6177, 81.2572 20.5507, 81.0339 20.4162, 80.8107 20.2822, 80.6378 20.1053, 80.5152 19.8854, 80.3927 19.6656, 80.3309 19.4211, 80.3309 19.1521, 80.3183 19.1406, 80.312 19.1097, 80.312 19.0605, 80.312 18.7982, 80.3687 18.5234, 80.482 18.236, 80.6893 17.7053, 80.8845 17.174, 81.0666 16.6427, 81.2492 16.1115, 81.4095 15.5802, 81.5475 15.0483, 81.6356 14.6888, 81.702 14.3407, 81.7456 14.004, 81.7582 13.9067, 81.7645 13.8031, 81.7645 13.6926, 81.7645 13.4854, 81.7398 13.2964, 81.6895 13.1247, 81.5761 12.7405, 81.3374 12.5482, 80.9721 12.5476, 80.3309 12.5482, 79.7807 12.7669, 79.3216 13.2031, 78.8624 13.6399, 78.4536 14.2245, 78.0952 14.9567 L 76.8122 19.9398 C 76.7561 20.1665, 76.6411 20.3354, 76.4682 20.4482, 76.2953 20.5616, 76.1207 20.6177, 75.9443 20.6177, 75.7623 20.6177, 75.6117 20.557, 75.4915 20.4345, 75.4102 20.3555, 75.3689 20.2455, 75.3689 20.1047, 75.3689 20.0383, 75.3752 19.9707, 75.3878 19.9032 L 78.2275 8.89268 C 78.2779 8.69173, 78.3088 8.53887, 78.3214 8.43467 L 78.3214 8.40719 C 78.3214 8.3528, 78.3094 8.3133, 78.2842 8.28811, 78.2086 8.24002, 78.0672 8.20624, 77.8594 8.18792, 77.6521 8.1696, 77.4128 8.16044, 77.1426 8.15987, 77.0487 8.16044, 76.9794 8.13009, 76.9348 8.06826, 76.8976 8.0322, 76.8787 7.98639, 76.8787 7.93086, 76.8787 7.89479, 76.8884 7.86102, 76.9067 7.8301 L 76.9348 7.68354 C 76.9851 7.53755, 77.1048 7.44595, 77.2932 7.40873 L 79.7555 7.20721, 79.7933 7.20721 C 79.8689 7.20778, 79.9313 7.2324, 79.9817 7.28049, 80.0194 7.33602, 80.0383 7.38469, 80.0383 7.42705, 80.0383 7.46427, 80.0292 7.49804, 80.0103 7.52781 L 78.6048 12.9873 C 78.7811 12.78, 79.092 12.5527, 79.5385 12.3054, 79.9851 12.0581, 80.5009 11.9344, 81.0855 11.9339, 81.4564 11.9344, 81.8028 12.0031, 82.1234 12.1405, 82.444 12.2779, 82.6925 12.4995, 82.8683 12.8041, 83.0572 13.1161, 83.1511 13.467, 83.1511 13.8575 L 83.1511 13.9033 C 83.1385 14.2949, 83.0824 14.6888, 82.9816 15.0849, 82.8373 15.6414, 82.6673 16.1882, 82.4721 16.7252, 82.2774 17.2628, 82.0759 17.8089, 81.8687 18.3643, 81.6797 18.8412, 81.5853 19.2414, 81.5853 19.5643, 81.5853 19.5162, 81.5916 19.4916, 81.6042 19.491, 81.6042 19.8396, 81.7209 20.0137, 81.9534 20.0131, 82.1675 20.0137, 82.3576 19.9496, 82.5242 19.8213, 82.6908 19.6931, 82.8465 19.5207, 82.9908 19.3038, 83.1356 19.0874, 83.2633 18.8309, 83.3732 18.5343, 83.4831 18.2383, 83.5856 17.9252, 83.6795 17.5948, 83.7173 17.4368, 83.8243 17.3572, 84.0001 17.3567 L 84.2171 17.3567 C 84.3808 17.3572, 84.4627 17.4242, 84.4627 17.5582 L 84.4627 17.6223 Z" stroke="none" fill="#000000" />
			<rect />
		</svg>
	</g>
	<g transform="matrix(1 0 -0 1 185.556 5.53747)">
		<svg width="252.053207" height="99.0428314">
			<defs />
			<path d="M 7.75007 8.56181 C 7.9201 8.72727, 8.02716 8.95914, 8.07067 9.25799, 8.08327 9.40512, 8.08957 9.54539, 8.08957 9.67935, 8.08957 9.85111, 8.07697 10.0217, 8.05178 10.1923, 8.014 10.5347, 7.95617 10.8816, 7.87717 11.2326, 7.79873 11.5841, 7.72202 11.8967, 7.64644 12.1709, 7.52049 12.6908, 7.35217 13.2341, 7.14149 13.802, 6.93081 14.3699, 6.67146 14.8921, 6.36345 15.3684, 6.05544 15.8447, 5.69533 16.2449, 5.28312 16.5684, 4.87092 16.8918, 4.39459 17.0533, 3.85357 17.0533, 3.4259 17.0533, 3.02171 16.9771, 2.64099 16.8243, 2.26084 16.672, 1.96371 16.4247, 1.74959 16.0823, 1.51715 15.7348, 1.4038 15.338, 1.40952 14.8915, 1.40952 14.8674, 1.41582 14.8434, 1.42842 14.8182, 1.42842 14.3854, 1.4788 13.9486, 1.57956 13.5083, 1.68032 13.0875, 1.82688 12.6238, 2.01867 12.1165, 2.21046 11.6099, 2.39424 11.1181, 2.57 10.6412, 2.75893 10.1351, 2.85339 9.71943, 2.85339 9.39539, 2.85339 9.12116, 2.73717 8.98375, 2.50416 8.98318, 2.29062 8.98375, 2.09711 9.04501, 1.92421 9.16696, 1.75131 9.28947, 1.59387 9.45894, 1.45246 9.67535, 1.31105 9.89233, 1.18338 10.1488, 1.07002 10.4448, 0.956668 10.7414, 0.862776 11.0568, 0.787205 11.3923, 0.717931 11.5578, 0.601712 11.6431, 0.437974 11.6488 L 0.220993 11.6488 C 0.0698501 11.6494, -0.00572118 11.5732, -0.00572118 11.4198 L -0.00572118 11.3557 C 0.0824453 11.0202, 0.199237 10.6772, 0.34351 10.3257, 0.488355 9.97477, 0.670985 9.65588, 0.890829 9.36848, 1.11125 9.08165, 1.36315 8.84349, 1.64597 8.65399, 1.92879 8.46506, 2.25283 8.37002, 2.61752 8.36945, 2.9324 8.37002, 3.20091 8.43758, 3.42418 8.57155, 3.64746 8.70609, 3.8175 8.88471, 3.93372 9.10742, 4.05051 9.33069, 4.11463 9.58203, 4.12723 9.86256 L 4.12723 9.92668 C 4.12723 10.19, 4.07398 10.4614, 3.96635 10.7419, 3.78429 11.2188, 3.60395 11.706, 3.42418 12.2035, 3.24499 12.7016, 3.10472 13.1488, 3.00396 13.5449, 2.90377 13.9606, 2.8345 14.3579, 2.79671 14.7358, 2.78412 14.8216, 2.77782 14.9041, 2.77782 14.9831, 2.77782 15.2585, 2.82534 15.5178, 2.91923 15.7617, 3.0011 15.9758, 3.13507 16.1441, 3.32056 16.2661, 3.50605 16.3886, 3.72475 16.4493, 3.97608 16.4487, 4.34707 16.4493, 4.68199 16.3291, 4.98084 16.0875, 5.27969 15.8464, 5.54591 15.5212, 5.77834 15.1119, 6.01078 14.7031, 6.21689 14.2371, 6.39608 13.715, 6.57585 13.1928, 6.73444 12.6661, 6.87241 12.1343, 6.93539 11.8663, 6.96688 11.6099, 6.96688 11.3648, 6.96688 11.1822, 6.95428 11.0081, 6.92909 10.8427, 6.84779 10.4465, 6.66516 10.1105, 6.38177 9.83508, 6.25009 9.70741, 6.18082 9.56084, 6.17452 9.39539, 6.17452 9.3347, 6.18425 9.27688, 6.20257 9.22134, 6.25983 9.00837, 6.37146 8.82345, 6.53807 8.66773, 6.70467 8.512, 6.90104 8.41296, 7.12718 8.36945, 7.16496 8.358, 7.20905 8.3517, 7.25943 8.35113, 7.44206 8.3517, 7.6058 8.42212, 7.75007 8.56181 Z" stroke="none" fill="#000000" />
			<path d="M 2.37267 3.19713 C 1.72472 3.17661, 1.09441 3.16635, 0.481416 3.16635, -0.131261 3.16635, -0.761571 3.17661, -1.40951 3.19713 L -1.40951 2.75598, -1.04499 2.75598 C -0.928927 2.7563, -0.819601 2.75469, -0.717648 2.75117, -0.615375 2.74796, -0.518552 2.7393, -0.426859 2.72552, -0.335166 2.71205, -0.255976 2.69827, -0.18929 2.68416, -0.132864 2.67422, -0.086376 2.6428, -0.0495062 2.58958, -0.012316 2.53668, 0.00595856 2.47769, 0.00595856 2.41229 L 0.00595856 -3.36887 C -0.169733 -3.28295, -0.386463 -3.21787, -0.643588 -3.17362, -0.900714 -3.12906, -1.18221 -3.10694, -1.4887 -3.10726 L -1.4887 -3.54328 C -1.06615 -3.54296, -0.675969 -3.59329, -0.318494 -3.69429, 0.0389807 -3.79496, 0.348044 -3.98411, 0.608376 -4.26144 L 0.772206 -4.26144 C 0.888265 -4.26112, 0.946294 -4.20469, 0.946294 -4.09216 L 0.946294 2.41229 C 0.946294 2.4809, 0.963928 2.54085, 0.999194 2.59215, 1.03446 2.64344, 1.08576 2.67422, 1.15244 2.68416, 1.20887 2.69827, 1.28133 2.71205, 1.36917 2.72552, 1.45702 2.7393, 1.55641 2.74796, 1.66734 2.75117, 1.77827 2.75469, 1.88663 2.7563, 1.99243 2.75598 L 2.37267 2.75598, 2.37267 3.19713 Z" stroke="none" fill="#000000" transform="matrix(1.12 0 0 1 10.5583 16.3063)" />
			<polyline points="-6.566 -1.9698 6.566 -1.9698" fill="none" stroke="#000000" stroke-width="0.750400007" stroke-linecap="round" stroke-linejoin="round" transform="matrix(1 0 0 1 25.552 11.2074)" />
			<polyline points="-6.566 1.9698 6.566 1.9698" fill="none" stroke="#000000" stroke-width="0.750400007" stroke-linecap="round" stroke-linejoin="round" transform="matrix(1 0 0 1 25.552 11.2074)" />
			<path d="M 44.6373 13.5711 L 44.6373 15.3935 C 44.6373 15.5017, 44.6575 15.6022, 44.6973 15.6947, 44.7377 15.7879, 44.8039 15.849, 44.8959 15.8782, 45.0384 15.9444, 45.2696 15.9809, 45.59 15.9865, 45.9103 15.9927, 46.2341 15.9955, 46.5606 15.9949 L 46.5606 16.7669 C 45.6175 16.731, 44.6928 16.7131, 43.7867 16.7131, 42.8929 16.7131, 41.9526 16.731, 40.9663 16.7669 L 40.9663 15.9949 C 41.3057 15.9955, 41.6328 15.9927, 41.947 15.9865, 42.2612 15.9809, 42.4957 15.9444, 42.6494 15.8782, 42.742 15.849, 42.8099 15.7879, 42.8531 15.6947, 42.8963 15.6022, 42.9176 15.5017, 42.9176 15.3935 L 42.9176 13.5711, 37.647 13.5711, 37.647 12.844, 43.8237 3.66058 C 43.904 3.55342, 44.0055 3.49956, 44.129 3.49899 L 44.3321 3.49899 C 44.5357 3.49956, 44.6373 3.60111, 44.6373 3.80421 L 44.6373 12.7812, 46.6251 12.7812, 46.6251 13.5711 Z M 43.0102 6.02152 L 38.4606 12.7812, 43.0102 12.7812 Z" stroke="none" fill="#000000" />
			<path d="M 67.669 16.8334 C 66.8893 16.7911, 66.1381 16.7693, 65.4145 16.7693, 64.6914 16.7693, 63.9305 16.7911, 63.1319 16.8334 L 63.1319 16.064 C 63.4147 16.0646, 63.674 16.06, 63.9099 16.0508, 64.1458 16.0417, 64.3238 16.0096, 64.4429 15.9541, 64.5185 15.918, 64.5706 15.8539, 64.5986 15.7623, 64.6273 15.6707, 64.641 15.5762, 64.641 15.4777 L 64.641 11.0076 C 64.641 10.703, 64.6221 10.4145, 64.5843 10.1425, 64.5465 9.87114, 64.4527 9.61866, 64.3015 9.38623, 64.2133 9.24024, 64.0862 9.13375, 63.9196 9.06619, 63.753 8.99921, 63.5658 8.96543, 63.358 8.96486, 62.9996 8.96543, 62.6664 9.04043, 62.3584 9.18985, 62.0504 9.33985, 61.7848 9.54138, 61.5615 9.79443, 61.3382 10.048, 61.1607 10.3458, 61.0285 10.6875, 60.8968 11.0299, 60.8304 11.3866, 60.8304 11.7587 L 60.8304 15.4777 C 60.8304 15.5819, 60.843 15.6787, 60.8682 15.7668, 60.8934 15.8556, 60.9466 15.918, 61.0285 15.9541, 61.1481 16.0096, 61.3256 16.0417, 61.5615 16.0508, 61.7974 16.06, 62.0567 16.0646, 62.3395 16.064 L 62.3395 16.8334 C 61.5409 16.7911, 60.78 16.7693, 60.0564 16.7693, 59.3212 16.7693, 58.5695 16.7911, 57.8024 16.8334 L 57.8024 16.064 C 58.0852 16.0646, 58.3445 16.06, 58.5804 16.0508, 58.8163 16.0417, 58.9943 16.0096, 59.1134 15.9541, 59.1827 15.918, 59.2296 15.8556, 59.2548 15.7668, 59.28 15.6787, 59.2926 15.5819, 59.2926 15.4777 L 59.2926 11.0076 C 59.2926 10.703, 59.2754 10.4145, 59.2411 10.1425, 59.2067 9.87114, 59.1134 9.61866, 58.9623 9.38623, 58.8684 9.24024, 58.7379 9.13375, 58.5713 9.06619, 58.4047 8.99921, 58.2174 8.96543, 58.0096 8.96486, 57.6512 8.96543, 57.3169 9.04043, 57.0054 9.18985, 56.694 9.33985, 56.4284 9.54138, 56.2079 9.79443, 55.9881 10.048, 55.8118 10.3458, 55.6795 10.6875, 55.5478 11.0299, 55.4814 11.3866, 55.4814 11.7587 L 55.4814 15.4777 C 55.4814 15.5819, 55.494 15.6787, 55.5192 15.7668, 55.5444 15.8556, 55.5948 15.918, 55.6704 15.9541, 55.79 16.0096, 55.9692 16.0417, 56.2079 16.0508, 56.4472 16.06, 56.7049 16.0646, 56.9814 16.064 L 56.9814 16.8243 C 56.6608 16.8123, 56.3654 16.8031, 56.0952 16.7968, 55.8249 16.7911, 55.5604 16.7819, 55.3022 16.7693 L 54.708 16.7693 C 53.9723 16.7693, 53.2206 16.7911, 52.4534 16.8334 L 52.4534 16.064 C 52.7368 16.0646, 52.9962 16.06, 53.232 16.0508, 53.4679 16.0417, 53.646 16.0096, 53.765 15.9541, 53.8406 15.918, 53.8904 15.8556, 53.9156 15.7668, 53.9408 15.6787, 53.9534 15.5819, 53.9534 15.4777 L 53.9534 10.2748 C 53.9534 10.1042, 53.946 9.949, 53.9299 9.80817, 53.9145 9.6679, 53.8532 9.55454, 53.7461 9.46867, 53.6397 9.39596, 53.4668 9.35359, 53.2275 9.341, 52.9881 9.32897, 52.7305 9.32268, 52.4534 9.3221 L 52.4534 8.56181, 54.0759 8.44273, 55.3778 8.34197, 55.3778 9.91751 C 55.4975 9.63698, 55.8072 9.30607, 56.307 8.92421, 56.8074 8.54292, 57.3936 8.3517, 58.0663 8.35113, 58.419 8.3517, 58.7819 8.39292, 59.1558 8.47536, 59.5302 8.5578, 59.8588 8.73643, 60.1417 9.01066, 60.3306 9.19444, 60.4737 9.39481, 60.571 9.61122, 60.6684 9.8282, 60.717 9.94557, 60.717 9.96332, 60.8871 9.59748, 61.2174 9.23737, 61.7075 8.88299, 62.1981 8.52918, 62.7643 8.3517, 63.4055 8.35113, 63.7576 8.3517, 64.124 8.39292, 64.5042 8.47536, 64.8849 8.5578, 65.2169 8.73643, 65.4998 9.01123, 65.7826 9.28604, 65.9669 9.60206, 66.0517 9.95931, 66.1364 10.3166, 66.1788 10.6664, 66.1788 11.0076 L 66.1788 15.4777 C 66.1788 15.5819, 66.1914 15.6787, 66.2166 15.7668, 66.2417 15.8556, 66.2956 15.918, 66.3769 15.9541, 66.4965 16.0096, 66.674 16.0417, 66.9099 16.0508, 67.1457 16.06, 67.3988 16.0646, 67.669 16.064 L 67.669 16.8334 Z" stroke="none" fill="#000000" />
			<path d="M 69.0702 21.2028 C 69.0267 21.3253, 68.9448 21.4135, 68.8251 21.4685, 68.7496 21.4994, 68.6803 21.5143, 68.6173 21.5143, 68.5738 21.5143, 68.52 21.5085, 68.457 21.496, 68.2309 21.4169, 68.1175 21.2795, 68.1175 21.0837, 68.1175 21.0231, 68.1336 20.9555, 68.1645 20.8822 L 74.8542 2.88251 C 74.8983 2.76114, 74.9831 2.66611, 75.109 2.59855, 75.1783 2.5808, 75.2413 2.57164, 75.2974 2.57107, 75.342 2.57164, 75.3987 2.57794, 75.4674 2.58939, 75.6941 2.66954, 75.804 2.80694, 75.7977 3.0016, 75.7977 3.06343, 75.7823 3.13041, 75.7502 3.20312 Z" stroke="none" fill="#000000" />
			<path d="M 82.5794 14.3144 C 82.5794 14.6877, 82.5136 15.0524, 82.3813 15.4096, 82.2496 15.7668, 82.0264 16.0766, 81.7115 16.3388, 81.372 16.6079, 80.9964 16.7911, 80.5842 16.8884, 80.1726 16.9863, 79.7558 17.035, 79.3344 17.035, 78.869 17.035, 78.4631 16.9588, 78.1173 16.806, 77.7715 16.6537, 77.4886 16.4676, 77.2682 16.2472 L 76.6648 16.9434 C 76.6144 16.9983, 76.5388 17.0292, 76.4381 17.035 L 76.382 17.035 C 76.1931 17.035, 76.0986 16.9405, 76.0986 16.751 L 76.0986 13.7281 C 76.0986 13.5942, 76.1713 13.5089, 76.3156 13.4717, 76.3602 13.4602, 76.4009 13.4539, 76.4381 13.4533, 76.4885 13.4539, 76.536 13.4631, 76.5801 13.4808, 76.6745 13.518, 76.7375 13.5821, 76.7684 13.6732, 76.9322 14.5102, 77.2121 15.1795, 77.6083 15.6798, 78.0045 16.1808, 78.5798 16.431, 79.3344 16.4304, 79.6367 16.431, 79.9287 16.4023, 80.2115 16.3439, 80.4943 16.2861, 80.7399 16.1716, 80.9472 15.9999, 81.1172 15.8602, 81.2432 15.6878, 81.3245 15.4829, 81.4063 15.2785, 81.447 15.0569, 81.447 14.8182, 81.447 14.4277, 81.293 14.094, 80.985 13.8157, 80.677 13.5381, 80.2968 13.3531, 79.8434 13.261 L 78.5421 12.9953 C 78.2278 12.9346, 77.9243 12.839, 77.6318 12.7074, 77.3398 12.5763, 77.0816 12.4142, 76.8583 12.2219, 76.635 12.0295, 76.453 11.8022, 76.311 11.5394, 76.1696 11.2772, 76.0986 10.987, 76.0986 10.6686, 76.0986 10.3211, 76.173 9.98679, 76.3207 9.66618, 76.4684 9.34558, 76.69 9.08165, 76.9854 8.87326, 77.3312 8.61734, 77.7119 8.45132, 78.127 8.3746, 78.5421 8.29846, 78.9445 8.2601, 79.3344 8.25953, 80.0512 8.2601, 80.63 8.42498, 81.0697 8.75418 L 81.5603 8.31449 C 81.6359 8.27842, 81.6989 8.2601, 81.7493 8.25953 L 81.8151 8.25953 C 82.004 8.2601, 82.0979 8.3454, 82.0979 8.51601 L 82.0979 10.9526 C 82.0979 11.1364, 82.004 11.2309, 81.8151 11.2366 L 81.7115 11.2366 C 81.5231 11.2372, 81.4287 11.1427, 81.4287 10.9526, 81.4287 10.2874, 81.2483 9.76122, 80.8865 9.37306, 80.5247 8.98547, 80.0077 8.79139, 79.3344 8.79082, 79.0453 8.79139, 78.7608 8.81601, 78.4808 8.86467, 78.2009 8.91391, 77.9507 9.01409, 77.7308 9.16638, 77.3976 9.3868, 77.2304 9.7137, 77.2304 10.1465, 77.2304 10.4648, 77.3753 10.7368, 77.6644 10.9623, 77.9541 11.1885, 78.3188 11.3442, 78.759 11.4289 L 80.0512 11.6671 C 80.3913 11.7289, 80.7147 11.8389, 81.0228 11.9974, 81.3308 12.1566, 81.5998 12.3472, 81.8294 12.57, 82.059 12.7932, 82.2416 13.0554, 82.3767 13.3577, 82.5118 13.66, 82.5794 13.9789, 82.5794 14.3144 Z" stroke="none" fill="#000000" />
			<rect />
		</svg>
	</g>
	<path d="M -104.059 136.264 L 104.059 -136.263" fill="none" stroke="#000000" stroke-width="4.26666689" stroke-linecap="round" stroke-linejoin="round" stroke-dasharray="6.42133, 10.6453" transform="matrix(0.3125 0 0 0.3125 142.132 59.3852)" />
	<path d="M -35.8356 46.926 L 35.8352 -46.9259" fill="none" stroke="#000000" stroke-width="4.26666689" stroke-linecap="round" stroke-linejoin="round" marker-end="url(#CustomMarker-03)" transform="matrix(0.3125 0 0 0.3125 150.965 63.5217)" />
	<g transform="matrix(1 0 -0 1 163.161 60.9958)">
		<svg width="212.945679" height="60.0856972">
			<defs />
			<path d="M 14.4446 16.4853 C 14.4635 16.5289, 14.4727 16.5684, 14.4727 16.6044, 14.4727 16.6537, 14.4601 16.6903, 14.4349 16.7143, 14.3971 16.7876, 14.3249 16.8243, 14.2179 16.8243 L 0.254377 16.8243 C 0.153616 16.8243, 0.0814795 16.7876, 0.0373963 16.7143, 0.0122058 16.6903, -0.000389338 16.6537, -0.000389338 16.6044, -0.000389338 16.5684, 0.00934333 16.5289, 0.0276636 16.4853 L 6.71744 3.45044 C 6.79931 3.27411, 6.94415 3.18824, 7.1514 3.19396 L 7.32087 3.19396 C 7.51609 3.19453, 7.66094 3.27697, 7.75483 3.44128 L 14.4446 16.4853 Z M 6.66992 5.24584 L 1.49959 15.3128, 11.8311 15.3128 Z" stroke="none" fill="#000000" />
			<path d="M 23.2054 8.56181 C 23.3754 8.72727, 23.4825 8.95914, 23.526 9.25799, 23.5386 9.40512, 23.5449 9.54539, 23.5449 9.67935, 23.5449 9.85111, 23.5323 10.0217, 23.5071 10.1923, 23.4693 10.5347, 23.4115 10.8816, 23.3325 11.2326, 23.2541 11.5841, 23.1773 11.8967, 23.1018 12.1709, 22.9758 12.6908, 22.8075 13.2341, 22.5968 13.802, 22.3861 14.3699, 22.1268 14.8921, 21.8188 15.3684, 21.5108 15.8447, 21.1512 16.2449, 20.739 16.5684, 20.3268 16.8918, 19.8505 17.0533, 19.3095 17.0533, 18.8824 17.0533, 18.4782 16.9771, 18.0975 16.8243, 17.7173 16.672, 17.4202 16.4247, 17.2061 16.0823, 16.9736 15.7348, 16.8603 15.338, 16.8666 14.8915, 16.8666 14.8674, 16.8729 14.8434, 16.8855 14.8182, 16.8855 14.3854, 16.9358 13.9486, 17.036 13.5083, 17.1368 13.0875, 17.2834 12.6238, 17.4751 12.1165, 17.6669 11.6099, 17.8507 11.1181, 18.0265 10.6412, 18.2154 10.1351, 18.3099 9.71943, 18.3099 9.39539, 18.3099 9.12116, 18.1936 8.98375, 17.9606 8.98318, 17.7471 8.98375, 17.5536 9.04501, 17.3807 9.16696, 17.2078 9.28947, 17.0509 9.45894, 16.9089 9.67535, 16.7675 9.89233, 16.6404 10.1488, 16.5271 10.4448, 16.4137 10.7414, 16.3193 11.0568, 16.2437 11.3923, 16.175 11.5578, 16.0588 11.6431, 15.895 11.6488 L 15.678 11.6488 C 15.5269 11.6494, 15.4513 11.5732, 15.4513 11.4198 L 15.4513 11.3557 C 15.5395 11.0202, 15.6563 10.6772, 15.8006 10.3257, 15.9454 9.97477, 16.128 9.65588, 16.3479 9.36848, 16.5677 9.08165, 16.8196 8.84349, 17.1024 8.65399, 17.3853 8.46506, 17.7093 8.37002, 18.074 8.36945, 18.3889 8.37002, 18.6574 8.43758, 18.8807 8.57155, 19.1039 8.70609, 19.2734 8.88471, 19.3896 9.10742, 19.5064 9.33069, 19.5705 9.58203, 19.5831 9.86256 L 19.5831 9.92668 C 19.5831 10.19, 19.5299 10.4614, 19.4228 10.7419, 19.2408 11.2188, 19.0599 11.706, 18.8807 12.2035, 18.7015 12.7016, 18.5612 13.1488, 18.4604 13.5449, 18.3602 13.9606, 18.291 14.3579, 18.2532 14.7358, 18.2406 14.8216, 18.2343 14.9041, 18.2343 14.9831, 18.2343 15.2585, 18.2818 15.5178, 18.3757 15.7617, 18.4576 15.9758, 18.591 16.1441, 18.7765 16.2661, 18.962 16.3886, 19.1807 16.4493, 19.432 16.4487, 19.803 16.4493, 20.1379 16.3291, 20.4367 16.0875, 20.7356 15.8464, 21.0018 15.5212, 21.2342 15.1119, 21.4667 14.7031, 21.6728 14.2371, 21.852 13.715, 22.0312 13.1928, 22.1898 12.6661, 22.3283 12.1343, 22.3913 11.8663, 22.4222 11.6099, 22.4222 11.3648, 22.4222 11.1822, 22.4102 11.0081, 22.385 10.8427, 22.3031 10.4465, 22.1205 10.1105, 21.8377 9.83508, 21.706 9.70741, 21.6367 9.56084, 21.6299 9.39539, 21.6299 9.3347, 21.6396 9.27688, 21.6585 9.22134, 21.7152 9.00837, 21.8268 8.82345, 21.9934 8.66773, 22.16 8.512, 22.3564 8.41296, 22.5831 8.36945, 22.6209 8.358, 22.6644 8.3517, 22.7148 8.35113, 22.8974 8.3517, 23.0611 8.42212, 23.2054 8.56181 Z" stroke="none" fill="#000000" />
			<path d="M 34.8527 19.2096 C 34.7084 19.0573, 34.4124 18.767, 33.9658 18.3394, 33.8147 18.1991, 33.7139 18.1046, 33.6636 18.0554, 34.8653 17.1766, 35.7773 16.3676, 36.3996 15.628, 37.054 14.8591, 37.5383 14.0072, 37.8526 13.0723, 38.1423 12.2181, 38.353 11.0943, 38.4847 9.70134, 38.5797 8.58437, 38.6392 7.37809, 38.6644 6.08307 L 33.9469 6.08307, 33.9469 4.69989, 42.2306 4.69989 C 42.0794 4.26707, 41.7966 3.53426, 41.3816 2.50145, 41.3003 2.2942, 41.2402 2.14192, 41.2024 2.04345 L 42.806 1.75032 C 43.3029 2.93542, 43.6745 3.86689, 43.9195 4.54417 L 43.2021 4.69989, 50.8543 4.69989, 50.8543 6.08307, 40.1925 6.08307 C 40.1673 7.24985, 40.1203 8.27579, 40.051 9.16089 L 48.5992 9.16089 C 48.5362 11.4269, 48.4171 13.473, 48.2408 15.2982, 48.1343 16.5079, 47.8103 17.3535, 47.2687 17.8356, 46.7345 18.3062, 45.8477 18.5535, 44.6082 18.5775, 43.7781 18.6021, 42.7876 18.6142, 41.6363 18.6142, 41.5734 18.1195, 41.4663 17.6128, 41.3152 17.0936, 42.2712 17.1308, 43.2651 17.1491, 44.2968 17.1485, 45.1395 17.1491, 45.7372 16.9934, 46.0893 16.6819, 46.442 16.3705, 46.6618 15.7963, 46.75 14.9593, 46.8885 13.7261, 46.9824 12.2547, 47.0328 10.5441 L 39.9096 10.5441 C 39.7711 11.9003, 39.5289 13.0425, 39.1831 13.97, 38.8247 14.9478, 38.3026 15.8484, 37.6167 16.6722, 36.9503 17.4726, 36.0286 18.3182, 34.8527 19.2096 Z" stroke="none" fill="#000000" />
			<path d="M 54.0254 18.8981 L 54.0254 4.33348, 59.2994 4.33348 C 59.5953 3.3751, 59.8221 2.50832, 59.9789 1.732 L 61.5636 1.90604 C 61.551 1.94326, 61.5356 1.99535, 61.5167 2.06177, 61.2276 3.05164, 60.998 3.80907, 60.8279 4.33348 L 69.1116 4.33348, 69.1116 16.4341 C 69.1116 17.2407, 68.9358 17.8264, 68.5832 18.1928, 68.2311 18.5592, 67.6431 18.7579, 66.8193 18.7882 L 64.2997 18.8432 C 64.2246 18.3852, 64.1239 17.8785, 63.9979 17.3226, 64.8475 17.3718, 65.6084 17.3964, 66.2811 17.3959, 66.7906 17.3964, 67.1496 17.3048, 67.3568 17.1216, 67.5647 16.9384, 67.6683 16.627, 67.6683 16.1867 L 67.6683 5.68003, 55.4784 5.68003, 55.4784 18.8981 Z M 57.9499 14.8402 L 57.9499 8.29983, 65.1681 8.29983, 65.1681 14.8402 Z M 59.3652 13.5669 L 63.781 13.5669, 63.781 9.56393, 59.3652 9.56393 Z" stroke="none" fill="#000000" />
			<rect />
		</svg>
	</g>
	<g transform="matrix(1 0 -0 1 29.0582 80.7976)">
		<svg width="237.001938" height="99.0428314">
			<defs />
			<polyline points="-6.566 -1.9698 6.566 -1.9698" fill="none" stroke="#000000" stroke-width="0.750400007" stroke-linecap="round" stroke-linejoin="round" transform="matrix(1 0 0 1 6.566 11.2074)" />
			<polyline points="-6.566 1.9698 6.566 1.9698" fill="none" stroke="#000000" stroke-width="0.750400007" stroke-linecap="round" stroke-linejoin="round" transform="matrix(1 0 0 1 6.566 11.2074)" />
			<path d="M 25.6513 13.5711 L 25.6513 15.3935 C 25.6513 15.5017, 25.6715 15.6022, 25.7113 15.6947, 25.7517 15.7879, 25.8179 15.849, 25.9099 15.8782, 26.0524 15.9444, 26.2836 15.9809, 26.6039 15.9865, 26.9243 15.9927, 27.248 15.9955, 27.5746 15.9949 L 27.5746 16.7669 C 26.6314 16.731, 25.7068 16.7131, 24.8007 16.7131, 23.9069 16.7131, 22.9666 16.731, 21.9802 16.7669 L 21.9802 15.9949 C 22.3197 15.9955, 22.6468 15.9927, 22.961 15.9865, 23.2752 15.9809, 23.5097 15.9444, 23.6634 15.8782, 23.756 15.849, 23.8239 15.7879, 23.8671 15.6947, 23.9103 15.6022, 23.9316 15.5017, 23.9316 15.3935 L 23.9316 13.5711, 18.661 13.5711, 18.661 12.844, 24.8377 3.66058 C 24.918 3.55342, 25.0195 3.49956, 25.1429 3.49899 L 25.346 3.49899 C 25.5497 3.49956, 25.6513 3.60111, 25.6513 3.80421 L 25.6513 12.7812, 27.6391 12.7812, 27.6391 13.5711 Z M 24.0242 6.02152 L 19.4746 12.7812, 24.0242 12.7812 Z" stroke="none" fill="#000000" />
			<path d="M 48.683 16.8334 C 47.9032 16.7911, 47.1521 16.7693, 46.4284 16.7693, 45.7054 16.7693, 44.9445 16.7911, 44.1458 16.8334 L 44.1458 16.064 C 44.4287 16.0646, 44.688 16.06, 44.9239 16.0508, 45.1598 16.0417, 45.3378 16.0096, 45.4569 15.9541, 45.5325 15.918, 45.5846 15.8539, 45.6126 15.7623, 45.6412 15.6707, 45.655 15.5762, 45.655 15.4777 L 45.655 11.0076 C 45.655 10.703, 45.6361 10.4145, 45.5983 10.1425, 45.5605 9.87114, 45.4666 9.61866, 45.3155 9.38623, 45.2273 9.24024, 45.1002 9.13375, 44.9336 9.06619, 44.767 8.99921, 44.5798 8.96543, 44.372 8.96486, 44.0136 8.96543, 43.6804 9.04043, 43.3724 9.18985, 43.0644 9.33985, 42.7987 9.54138, 42.5755 9.79443, 42.3522 10.048, 42.1747 10.3458, 42.0424 10.6875, 41.9108 11.0299, 41.8444 11.3866, 41.8444 11.7587 L 41.8444 15.4777 C 41.8444 15.5819, 41.857 15.6787, 41.8821 15.7668, 41.9073 15.8556, 41.9606 15.918, 42.0424 15.9541, 42.1621 16.0096, 42.3396 16.0417, 42.5755 16.0508, 42.8113 16.06, 43.0707 16.0646, 43.3535 16.064 L 43.3535 16.8334 C 42.5548 16.7911, 41.794 16.7693, 41.0703 16.7693, 40.3352 16.7693, 39.5835 16.7911, 38.8164 16.8334 L 38.8164 16.064 C 39.0992 16.0646, 39.3585 16.06, 39.5944 16.0508, 39.8303 16.0417, 40.0083 16.0096, 40.1274 15.9541, 40.1967 15.918, 40.2436 15.8556, 40.2688 15.7668, 40.294 15.6787, 40.3066 15.5819, 40.3066 15.4777 L 40.3066 11.0076 C 40.3066 10.703, 40.2894 10.4145, 40.2551 10.1425, 40.2207 9.87114, 40.1274 9.61866, 39.9763 9.38623, 39.8824 9.24024, 39.7518 9.13375, 39.5852 9.06619, 39.4186 8.99921, 39.2314 8.96543, 39.0236 8.96486, 38.6652 8.96543, 38.3309 9.04043, 38.0194 9.18985, 37.708 9.33985, 37.4423 9.54138, 37.2219 9.79443, 37.0021 10.048, 36.8257 10.3458, 36.6935 10.6875, 36.5618 11.0299, 36.4954 11.3866, 36.4954 11.7587 L 36.4954 15.4777 C 36.4954 15.5819, 36.508 15.6787, 36.5332 15.7668, 36.5584 15.8556, 36.6088 15.918, 36.6843 15.9541, 36.804 16.0096, 36.9832 16.0417, 37.2219 16.0508, 37.4612 16.06, 37.7189 16.0646, 37.9954 16.064 L 37.9954 16.8243 C 37.6748 16.8123, 37.3794 16.8031, 37.1091 16.7968, 36.8389 16.7911, 36.5744 16.7819, 36.3162 16.7693 L 35.7219 16.7693 C 34.9863 16.7693, 34.2346 16.7911, 33.4674 16.8334 L 33.4674 16.064 C 33.7508 16.0646, 34.0101 16.06, 34.246 16.0508, 34.4819 16.0417, 34.6599 16.0096, 34.779 15.9541, 34.8546 15.918, 34.9044 15.8556, 34.9296 15.7668, 34.9548 15.6787, 34.9674 15.5819, 34.9674 15.4777 L 34.9674 10.2748 C 34.9674 10.1042, 34.9599 9.949, 34.9439 9.80817, 34.9284 9.6679, 34.8672 9.55454, 34.7601 9.46867, 34.6536 9.39596, 34.4807 9.35359, 34.2414 9.341, 34.0021 9.32897, 33.7445 9.32268, 33.4674 9.3221 L 33.4674 8.56181, 35.0899 8.44273, 36.3918 8.34197, 36.3918 9.91751 C 36.5114 9.63698, 36.8212 9.30607, 37.321 8.92421, 37.8213 8.54292, 38.4076 8.3517, 39.0803 8.35113, 39.4329 8.3517, 39.7959 8.39292, 40.1698 8.47536, 40.5442 8.5578, 40.8728 8.73643, 41.1556 9.01066, 41.3446 9.19444, 41.4877 9.39481, 41.585 9.61122, 41.6823 9.8282, 41.731 9.94557, 41.731 9.96332, 41.901 9.59748, 42.2314 9.23737, 42.7214 8.88299, 43.2121 8.52918, 43.7783 8.3517, 44.4195 8.35113, 44.7716 8.3517, 45.138 8.39292, 45.5182 8.47536, 45.8989 8.5578, 46.2309 8.73643, 46.5137 9.01123, 46.7966 9.28604, 46.9809 9.60206, 47.0656 9.95931, 47.1504 10.3166, 47.1927 10.6664, 47.1927 11.0076 L 47.1927 15.4777 C 47.1927 15.5819, 47.2053 15.6787, 47.2305 15.7668, 47.2557 15.8556, 47.3095 15.918, 47.3908 15.9541, 47.5105 16.0096, 47.688 16.0417, 47.9238 16.0508, 48.1597 16.06, 48.4128 16.0646, 48.683 16.064 L 48.683 16.8334 Z" stroke="none" fill="#000000" />
			<path d="M 50.0842 21.2028 C 50.0407 21.3253, 49.9588 21.4135, 49.8391 21.4685, 49.7636 21.4994, 49.6943 21.5143, 49.6313 21.5143, 49.5878 21.5143, 49.534 21.5085, 49.471 21.496, 49.2449 21.4169, 49.1315 21.2795, 49.1315 21.0837, 49.1315 21.0231, 49.1475 20.9555, 49.1785 20.8822 L 55.8682 2.88251 C 55.9123 2.76114, 55.9971 2.66611, 56.123 2.59855, 56.1923 2.5808, 56.2553 2.57164, 56.3114 2.57107, 56.356 2.57164, 56.4127 2.57794, 56.4814 2.58939, 56.7081 2.66954, 56.818 2.80694, 56.8117 3.0016, 56.8117 3.06343, 56.7963 3.13041, 56.7642 3.20312 Z" stroke="none" fill="#000000" />
			<path d="M 63.5934 14.3144 C 63.5934 14.6877, 63.5275 15.0524, 63.3953 15.4096, 63.2636 15.7668, 63.0403 16.0766, 62.7255 16.3388, 62.386 16.6079, 62.0104 16.7911, 61.5982 16.8884, 61.1866 16.9863, 60.7698 17.035, 60.3484 17.035, 59.8829 17.035, 59.477 16.9588, 59.1312 16.806, 58.7854 16.6537, 58.5026 16.4676, 58.2822 16.2472 L 57.6788 16.9434 C 57.6284 16.9983, 57.5528 17.0292, 57.4521 17.035 L 57.396 17.035 C 57.207 17.035, 57.1126 16.9405, 57.1126 16.751 L 57.1126 13.7281 C 57.1126 13.5942, 57.1853 13.5089, 57.3296 13.4717, 57.3742 13.4602, 57.4149 13.4539, 57.4521 13.4533, 57.5025 13.4539, 57.55 13.4631, 57.5941 13.4808, 57.6885 13.518, 57.7515 13.5821, 57.7824 13.6732, 57.9461 14.5102, 58.2261 15.1795, 58.6223 15.6798, 59.0185 16.1808, 59.5938 16.431, 60.3484 16.4304, 60.6507 16.431, 60.9427 16.4023, 61.2255 16.3439, 61.5083 16.2861, 61.7539 16.1716, 61.9612 15.9999, 62.1312 15.8602, 62.2571 15.6878, 62.3384 15.4829, 62.4203 15.2785, 62.461 15.0569, 62.461 14.8182, 62.461 14.4277, 62.307 14.094, 61.9989 13.8157, 61.6909 13.5381, 61.3108 13.3531, 60.8574 13.261 L 59.556 12.9953 C 59.2417 12.9346, 58.9383 12.839, 58.6458 12.7074, 58.3538 12.5763, 58.0956 12.4142, 57.8723 12.2219, 57.649 12.0295, 57.467 11.8022, 57.325 11.5394, 57.1836 11.2772, 57.1126 10.987, 57.1126 10.6686, 57.1126 10.3211, 57.187 9.98679, 57.3347 9.66618, 57.4824 9.34558, 57.704 9.08165, 57.9994 8.87326, 58.3452 8.61734, 58.7259 8.45132, 59.141 8.3746, 59.556 8.29846, 59.9585 8.2601, 60.3484 8.25953, 61.0652 8.2601, 61.644 8.42498, 62.0837 8.75418 L 62.5743 8.31449 C 62.6499 8.27842, 62.7129 8.2601, 62.7632 8.25953 L 62.8291 8.25953 C 63.018 8.2601, 63.1119 8.3454, 63.1119 8.51601 L 63.1119 10.9526 C 63.1119 11.1364, 63.018 11.2309, 62.8291 11.2366 L 62.7255 11.2366 C 62.5371 11.2372, 62.4426 11.1427, 62.4426 10.9526, 62.4426 10.2874, 62.2623 9.76122, 61.9005 9.37306, 61.5386 8.98547, 61.0217 8.79139, 60.3484 8.79082, 60.0593 8.79139, 59.7747 8.81601, 59.4948 8.86467, 59.2148 8.91391, 58.9646 9.01409, 58.7448 9.16638, 58.4116 9.3868, 58.2444 9.7137, 58.2444 10.1465, 58.2444 10.4648, 58.3893 10.7368, 58.6784 10.9623, 58.9681 11.1885, 59.3328 11.3442, 59.773 11.4289 L 61.0652 11.6671 C 61.4053 11.7289, 61.7287 11.8389, 62.0367 11.9974, 62.3447 12.1566, 62.6138 12.3472, 62.8434 12.57, 63.073 12.7932, 63.2556 13.0554, 63.3907 13.3577, 63.5258 13.66, 63.5934 13.9789, 63.5934 14.3144 Z" stroke="none" fill="#000000" />
			<rect />
		</svg>
	</g>
</svg>
