<?xml version="1.0"?>
<svg xmlns="http://www.w3.org/2000/svg" xmlns:xlink="http://www.w3.org/1999/xlink" width="284.954803" height="200.853668">
	<defs>
		<marker id="CustomMarker-01" markerUnits="strokeWidth" markerWidth="15.000001" markerHeight="9" viewBox="-15 -4.5 15 9" orient="auto-start-reverse">
			<path d="M 0 -0 L -10 -3, -8 -0.5, -8 0.5, -10 3 Z" fill="#000000" stroke="#000000" stroke-linejoin="round" />
		</marker>
		<marker id="CustomMarker-02" markerUnits="strokeWidth" markerWidth="15.000001" markerHeight="9" viewBox="-15 -4.5 15 9" orient="auto-start-reverse">
			<path d="M 0 -0 L -10 -3, -8 -0.5, -8 0.5, -10 3 Z" fill="#000000" stroke="#000000" stroke-linejoin="round" />
		</marker>
	</defs>
	<path d="M -342.982 -0 C -341.394 -5.91144, -336.631 -23.8254, -333.455 -35.4687, -330.279 -47.1119, -327.103 -58.7497, -323.928 -69.8596, -320.752 -80.9695, -317.576 -91.889, -314.4 -102.128, -311.225 -112.367, -308.049 -122.236, -304.873 -131.293, -301.697 -140.35, -298.522 -148.869, -295.346 -156.469, -292.17 -164.069, -288.994 -170.979, -285.819 -176.891, -282.643 -182.802, -279.467 -187.894, -276.291 -191.938, -273.116 -195.981, -269.94 -199.1, -266.764 -201.153, -263.588 -203.206, -260.412 -204.256, -257.237 -204.256, -254.061 -204.256, -250.885 -203.206, -247.709 -201.153, -244.534 -199.1, -241.358 -195.981, -238.182 -191.938, -235.006 -187.894, -231.831 -182.802, -228.655 -176.891, -225.479 -170.979, -222.303 -164.069, -219.128 -156.469, -215.952 -148.869, -212.776 -140.35, -209.6 -131.293, -206.425 -122.236, -203.249 -112.367, -200.073 -102.128, -196.897 -91.889, -193.721 -80.9695, -190.546 -69.8596, -187.37 -58.7497, -184.194 -47.1119, -181.018 -35.4687, -177.843 -23.8254, -174.667 -11.8229, -171.491 -2.50141e-014, -168.315 11.8229, -165.14 23.8254, -161.964 35.4687, -158.788 47.1119, -155.612 58.7497, -152.437 69.8596, -149.261 80.9695, -146.085 91.889, -142.909 102.128, -139.734 112.367, -136.558 122.236, -133.382 131.293, -130.206 140.35, -127.03 148.869, -123.855 156.469, -120.679 164.069, -117.503 170.979, -114.327 176.891, -111.152 182.802, -107.976 187.894, -104.8 191.938, -101.624 195.981, -98.4486 199.1, -95.2728 201.153, -92.0971 203.206, -88.9213 204.256, -85.7456 204.256, -82.5698 204.256, -79.394 203.206, -76.2183 201.153, -73.0425 199.1, -69.8668 195.981, -66.691 191.938, -63.5152 187.894, -60.3395 182.802, -57.1637 176.891, -53.9879 170.979, -50.8122 164.069, -47.6364 156.469, -44.4607 148.869, -41.2849 140.35, -38.1091 131.293, -34.9334 122.236, -31.7576 112.367, -28.5818 102.128, -25.4061 91.889, -22.2303 80.9695, -19.0546 69.8596, -15.8788 58.7497, -12.703 47.1119, -9.52727 35.4687, -6.35151 23.8254, -3.17575 11.8229, 1.14441e-005 5.00283e-014, 3.17577 -11.8229, 6.35154 -23.8254, 9.5273 -35.4687, 12.7031 -47.1119, 15.8788 -58.7497, 19.0546 -69.8596, 22.2303 -80.9695, 25.4061 -91.889, 28.5819 -102.128, 31.7576 -112.367, 34.9334 -122.236, 38.1092 -131.293, 41.2849 -140.35, 44.4607 -148.869, 47.6364 -156.469, 50.8122 -164.069, 53.988 -170.979, 57.1637 -176.891, 60.3395 -182.802, 63.5152 -187.894, 66.691 -191.938, 69.8668 -195.981, 73.0425 -199.1, 76.2183 -201.153, 79.3941 -203.206, 82.5698 -204.256, 85.7456 -204.256, 88.9213 -204.256, 92.0971 -203.206, 95.2729 -201.153, 98.4486 -199.1, 101.624 -195.981, 104.8 -191.938, 107.976 -187.894, 111.152 -182.802, 114.327 -176.891, 117.503 -170.979, 120.679 -164.069, 123.855 -156.469, 127.03 -148.869, 130.206 -140.35, 133.382 -131.293, 136.558 -122.236, 139.734 -112.367, 142.909 -102.128, 146.085 -91.889, 149.261 -80.9695, 152.437 -69.8596, 155.612 -58.7497, 158.788 -47.1119, 161.964 -35.4687, 165.14 -23.8254, 168.315 -11.8229, 171.491 -7.50424e-014, 174.667 11.8229, 177.843 23.8254, 181.018 35.4687, 184.194 47.1119, 187.37 58.7497, 190.546 69.8596, 193.721 80.9695, 196.897 91.889, 200.073 102.128, 203.249 112.367, 206.425 122.236, 209.6 131.293, 212.776 140.35, 215.952 148.869, 219.128 156.469, 222.303 164.069, 225.479 170.979, 228.655 176.891, 231.831 182.802, 235.006 187.894, 238.182 191.938, 241.358 195.981, 244.534 199.1, 247.709 201.153, 250.885 203.206, 254.061 204.256, 257.237 204.256, 260.412 204.256, 263.588 203.206, 266.764 201.153, 269.94 199.1, 273.116 195.981, 276.291 191.938, 279.467 187.894, 282.643 182.802, 285.819 176.891, 288.994 170.979, 292.17 164.069, 295.346 156.469, 298.522 148.869, 301.697 140.35, 304.873 131.293, 308.049 122.236, 311.225 112.367, 314.4 102.128, 317.576 91.889, 320.752 80.9695, 323.928 69.8596, 327.103 58.7497, 330.279 47.1119, 333.455 35.4687, 336.631 23.8254, 341.394 5.91144, 342.982 1.00057e-013" fill="none" stroke="#000000" stroke-width="4.26666689" stroke-linecap="round" stroke-linejoin="round" transform="matrix(0.3125 0 -0 0.3125 142.477 112.566)" />
	<path d="M -420.06 46.0324 L 420.06 46.0324" fill="none" stroke="#000000" stroke-width="4.26666689" stroke-linecap="round" stroke-linejoin="round" marker-end="url(#CustomMarker-01)" transform="matrix(0.3125 0 -0 0.3125 145.186 98.1811)" />
	<path d="M -207.799 286.98 L -207.799 -286.98" fill="none" stroke="#000000" stroke-width="4.26666689" stroke-linecap="round" stroke-linejoin="round" marker-end="url(#CustomMarker-02)" transform="matrix(0.3125 0 -0 0.3125 145.186 98.1811)" />
	<g transform="matrix(1 0 -0 1 28.8869 11.8771)">
		<svg width="125.982887" height="62.9142723">
			<defs />
			<path d="M 9.13028 9.8992 C 9.06158 10.1746, 8.92132 10.3807, 8.71063 10.5181, 8.49995 10.6555, 8.28812 10.7242, 8.074 10.7236, 7.85416 10.7242, 7.67153 10.6538, 7.52668 10.5129, 7.4202 10.4099, 7.36352 10.2753, 7.35665 10.1099, 7.35665 10.0435, 7.36924 9.95759, 7.39443 9.8534, 7.46371 9.6221, 7.57077 9.44634, 7.71504 9.32726, 7.85988 9.20818, 7.96065 9.13948, 8.01732 9.12058, 7.89824 9.02955, 7.65264 8.98375, 7.28108 8.98318, 6.95417 8.98375, 6.66162 9.15322, 6.40399 9.49214, 6.14636 9.83107, 5.954 10.2387, 5.82805 10.7144 L 4.96012 14.0671 C 4.87195 14.4037, 4.80612 14.7243, 4.76203 15.0289, 4.73684 15.1331, 4.72425 15.2247, 4.72425 15.3037, 4.72425 15.4938, 4.75574 15.6735, 4.81871 15.8441, 4.88169 16.0279, 4.97615 16.1745, 5.1021 16.2844, 5.22806 16.3943, 5.38836 16.4493, 5.58301 16.4487, 5.83492 16.4493, 6.07709 16.384, 6.30953 16.2523, 6.54254 16.1212, 6.75666 15.9443, 6.95131 15.721, 7.14596 15.4983, 7.31886 15.239, 7.47 14.9424, 7.62115 14.6464, 7.74023 14.3424, 7.8284 14.0304, 7.86618 13.8724, 7.97324 13.7928, 8.149 13.7923 L 8.36598 13.7923 C 8.52972 13.7928, 8.61159 13.8541, 8.61159 13.9755, 8.61159 14.0127, 8.60243 14.0465, 8.58354 14.0762, 8.49537 14.4432, 8.35224 14.805, 8.15415 15.1623, 7.95607 15.5195, 7.72534 15.8356, 7.46084 16.1104, 7.19634 16.3852, 6.89635 16.6113, 6.55971 16.7876, 6.22308 16.9651, 5.86297 17.0533, 5.47939 17.0533, 5.08951 17.0533, 4.75287 16.9697, 4.47005 16.8014, 4.18723 16.6342, 3.95708 16.4155, 3.78075 16.1464, 3.72465 16.08, 3.68056 16.0113, 3.64907 15.9409, 3.61759 15.871, 3.60785 15.8602, 3.62045 15.9083, 3.46988 16.159, 3.23114 16.4126, 2.90367 16.6691, 2.57676 16.9256, 2.19948 17.0533, 1.77124 17.0533, 1.53251 17.0533, 1.29663 17.0229, 1.06362 16.9617, 0.831181 16.901, 0.627941 16.8065, 0.455043 16.6783, 0.282145 16.55, 0.151612 16.3943, 0.0634459 16.2105, 0.0199352 16.1012, -0.0018202 15.9821, -0.00239271 15.8533, -0.0018202 15.7623, 0.010775 15.6552, 0.0353929 15.5327, 0.104667 15.2585, 0.246077 15.0524, 0.460195 14.915, 0.674314 14.7776, 0.88786 14.7089, 1.10141 14.7083, 1.32182 14.7089, 1.51075 14.7793, 1.66762 14.919, 1.77468 15.0232, 1.82792 15.1577, 1.82792 15.322, 1.82792 15.4079, 1.81533 15.4938, 1.79014 15.5785, 1.73403 15.7926, 1.63155 15.9655, 1.48384 16.0966, 1.33614 16.2283, 1.23022 16.2999, 1.16724 16.3113, 1.2869 16.4098, 1.52907 16.4556, 1.89376 16.4487, 2.22124 16.4493, 2.51665 16.2787, 2.78058 15.9363, 3.04508 15.5945, 3.23687 15.1852, 3.35652 14.7083 L 4.23361 11.3373 C 4.32177 11.0202, 4.39105 10.7087, 4.44143 10.403, 4.45402 10.3057, 4.46032 10.2141, 4.46032 10.1282, 4.46032 9.93927, 4.43227 9.76237, 4.37502 9.59691, 4.31261 9.41428, 4.21529 9.26657, 4.08304 9.15322, 3.95079 9.04043, 3.78705 8.98375, 3.5924 8.98318, 3.34049 8.98375, 3.0966 9.04959, 2.86073 9.1807, 2.62485 9.31237, 2.40959 9.48756, 2.21494 9.70741, 2.02028 9.92725, 1.84739 10.1826, 1.69624 10.4723, 1.5451 10.7625, 1.43518 11.0694, 1.36533 11.3923, 1.29663 11.5578, 1.18041 11.6431, 1.01667 11.6488 L 0.808854 11.6488 C 0.658284 11.6494, 0.582712 11.5732, 0.582712 11.4198 L 0.582712 11.3557 C 0.677176 10.9778, 0.822021 10.6097, 1.01667 10.2524, 1.21133 9.89519, 1.44434 9.57916, 1.71456 9.30436, 1.98536 9.02955, 2.28765 8.80513, 2.62085 8.63109, 2.95405 8.45704, 3.31587 8.37002, 3.70518 8.36945, 4.08304 8.37002, 4.41624 8.45246, 4.70535 8.61735, 4.99504 8.78223, 5.23092 9.00207, 5.41298 9.27631, 5.45076 9.34386, 5.48569 9.416, 5.51717 9.49214, 5.54866 9.56886, 5.55782 9.58832, 5.54523 9.55111, 5.70267 9.28318, 5.94484 9.01925, 6.27174 8.75933, 6.59922 8.49998, 6.97307 8.37002, 7.39443 8.36945, 7.63374 8.37002, 7.87076 8.39922, 8.10663 8.45704, 8.34251 8.51544, 8.54747 8.60819, 8.72036 8.73643, 8.89326 8.86467, 9.02093 9.02326, 9.10223 9.21218, 9.14631 9.32268, 9.16807 9.44806, 9.16807 9.58775, 9.16807 9.67992, 9.15547 9.78355, 9.13028 9.8992 Z" stroke="none" fill="#000000" />
			<path d="M 10.0699 21.2028 C 10.0264 21.3253, 9.94456 21.4135, 9.82491 21.4685, 9.74934 21.4994, 9.68006 21.5143, 9.61709 21.5143, 9.57358 21.5143, 9.51976 21.5085, 9.45679 21.496, 9.23064 21.4169, 9.11729 21.2795, 9.11729 21.0837, 9.11729 21.0231, 9.13332 20.9555, 9.16423 20.8822 L 15.854 2.88251 C 15.8981 2.76114, 15.9828 2.66611, 16.1088 2.59855, 16.178 2.5808, 16.241 2.57164, 16.2971 2.57107, 16.3418 2.57164, 16.3985 2.57794, 16.4672 2.58939, 16.6939 2.66954, 16.8038 2.80694, 16.7975 3.0016, 16.7975 3.06343, 16.782 3.13041, 16.75 3.20312 Z" stroke="none" fill="#000000" />
			<path d="M 24.6612 14.5068 C 24.5547 15.2705, 24.1946 15.8831, 23.5814 16.3439, 22.9683 16.8048, 22.2274 17.035, 21.3589 17.035, 20.7807 17.035, 20.2305 16.9222, 19.7084 16.6966, 19.1863 16.471, 18.7305 16.159, 18.3401 15.7617, 17.9313 15.3472, 17.6216 14.8772, 17.4109 14.3516, 17.2002 13.8266, 17.0943 13.277, 17.0943 12.7022, 17.0943 12.1165, 17.1985 11.552, 17.4058 11.0081, 17.6136 10.4648, 17.925 9.98221, 18.3401 9.56027, 18.7305 9.1515, 19.1863 8.83261, 19.7084 8.60361, 20.2305 8.3746, 20.7807 8.2601, 21.3589 8.25953, 21.7242 8.2601, 22.0889 8.29846, 22.4536 8.3746, 22.8188 8.45132, 23.1475 8.57154, 23.44 8.73643, 23.7326 8.90131, 23.973 9.11657, 24.1614 9.38222, 24.3503 9.64786, 24.4442 9.96103, 24.4442 10.3206, 24.4442 10.6389, 24.3423 10.8799, 24.1379 11.0448, 23.9335 11.2097, 23.7085 11.2921, 23.4629 11.2915, 23.2179 11.2921, 22.9935 11.2097, 22.7891 11.0448, 22.5847 10.8799, 22.4822 10.6389, 22.4822 10.3206, 22.4822 10.0034, 22.5921 9.7595, 22.812 9.58775, 23.0009 9.45378, 23.2059 9.38394, 23.4257 9.37707 L 23.2459 9.37707 C 23.1394 9.27974, 22.9064 9.17783, 22.548 9.07077, 22.1896 8.96429, 21.7935 8.91047, 21.3589 8.9099, 21.0074 8.91047, 20.6691 9.00551, 20.345 9.19444, 20.021 9.38394, 19.7525 9.63698, 19.5384 9.95416, 19.2807 10.3515, 19.1107 10.7826, 19.0288 11.2463, 18.9475 11.7106, 18.9063 12.1961, 18.9063 12.7022, 18.9063 13.1854, 18.955 13.6526, 19.0523 14.1043, 19.1496 14.5566, 19.3368 14.9716, 19.6139 15.3495, 19.8406 15.6615, 20.1189 15.9105, 20.4486 16.0966, 20.779 16.2833, 21.1265 16.376, 21.4912 16.3754, 22.1645 16.376, 22.7118 16.1962, 23.1331 15.8355, 23.5545 15.4754, 23.8408 15.0111, 23.9913 14.4426, 24.0291 14.2966, 24.1207 14.2234, 24.265 14.2228 L 24.435 14.2411 C 24.5862 14.2783, 24.6612 14.3671, 24.6612 14.5068 Z" stroke="none" fill="#000000" />
			<path d="M 40.7229 16.8334 C 39.9431 16.7911, 39.1914 16.7693, 38.4678 16.7693, 37.7447 16.7693, 36.9838 16.7911, 36.1846 16.8334 L 36.1846 16.064 C 36.4674 16.0646, 36.7268 16.06, 36.9626 16.0508, 37.1985 16.0417, 37.3766 16.0096, 37.4962 15.9541, 37.5718 15.918, 37.6233 15.8539, 37.6519 15.7623, 37.6806 15.6707, 37.6943 15.5762, 37.6943 15.4777 L 37.6943 11.0076 C 37.6943 10.703, 37.6754 10.4145, 37.6376 10.1425, 37.5998 9.87114, 37.5054 9.61866, 37.3542 9.38623, 37.2666 9.24024, 37.1396 9.13375, 36.9724 9.06619, 36.8058 8.99921, 36.6186 8.96543, 36.4107 8.96486, 36.0524 8.96543, 35.7192 9.04043, 35.4111 9.18985, 35.1031 9.33985, 34.8369 9.54138, 34.6136 9.79443, 34.3904 10.048, 34.2129 10.3458, 34.0806 10.6875, 33.949 11.0299, 33.8825 11.3866, 33.8825 11.7587 L 33.8825 15.4777 C 33.8825 15.5819, 33.8951 15.6787, 33.9203 15.7668, 33.9455 15.8556, 33.9993 15.918, 34.0806 15.9541, 34.2003 16.0096, 34.3778 16.0417, 34.6136 16.0508, 34.8495 16.06, 35.1094 16.0646, 35.3923 16.064 L 35.3923 16.8334 C 34.5936 16.7911, 33.8322 16.7693, 33.1085 16.7693, 32.3728 16.7693, 31.6211 16.7911, 30.854 16.8334 L 30.854 16.064 C 31.1368 16.0646, 31.3961 16.06, 31.632 16.0508, 31.8679 16.0417, 32.0459 16.0096, 32.165 15.9541, 32.2349 15.918, 32.2818 15.8556, 32.307 15.7668, 32.3322 15.6787, 32.3442 15.5819, 32.3442 15.4777 L 32.3442 11.0076 C 32.3442 10.703, 32.327 10.4145, 32.2927 10.1425, 32.2583 9.87114, 32.1656 9.61866, 32.0144 9.38623, 31.92 9.24024, 31.7894 9.13375, 31.6228 9.06619, 31.4562 8.99921, 31.269 8.96543, 31.0612 8.96486, 30.7028 8.96543, 30.3679 9.04043, 30.0565 9.18985, 29.745 9.33985, 29.4794 9.54138, 29.2595 9.79443, 29.0397 10.048, 28.8634 10.3458, 28.7311 10.6875, 28.5994 11.0299, 28.533 11.3866, 28.533 11.7587 L 28.533 15.4777 C 28.533 15.5819, 28.5456 15.6787, 28.5708 15.7668, 28.596 15.8556, 28.6458 15.918, 28.7214 15.9541, 28.841 16.0096, 29.0202 16.0417, 29.2595 16.0508, 29.4988 16.06, 29.7565 16.0646, 30.033 16.064 L 30.033 16.8243 C 29.7124 16.8123, 29.4164 16.8031, 29.1462 16.7968, 28.8759 16.7911, 28.6114 16.7819, 28.3532 16.7693 L 27.759 16.7693 C 27.0233 16.7693, 26.2716 16.7911, 25.5044 16.8334 L 25.5044 16.064 C 25.7873 16.0646, 26.0466 16.06, 26.2825 16.0508, 26.5184 16.0417, 26.6964 16.0096, 26.8155 15.9541, 26.8911 15.918, 26.9414 15.8556, 26.9666 15.7668, 26.9918 15.6787, 27.0044 15.5819, 27.0044 15.4777 L 27.0044 10.2748 C 27.0044 10.1042, 26.997 9.949, 26.9809 9.80817, 26.9649 9.6679, 26.9037 9.55454, 26.7966 9.46867, 26.6901 9.39596, 26.5172 9.35359, 26.2779 9.341, 26.0392 9.32897, 25.7815 9.32268, 25.5044 9.3221 L 25.5044 8.56181, 27.1269 8.44273, 28.4288 8.34197, 28.4288 9.91751 C 28.5485 9.63698, 28.8582 9.30607, 29.3586 8.92421, 29.8589 8.54292, 30.4452 8.3517, 31.1179 8.35113, 31.4706 8.3517, 31.8335 8.39292, 32.208 8.47536, 32.5824 8.5578, 32.911 8.73643, 33.1938 9.01066, 33.3827 9.19444, 33.5259 9.39481, 33.6232 9.61122, 33.7205 9.8282, 33.7692 9.94557, 33.7692 9.96332, 33.9392 9.59748, 34.2696 9.23737, 34.7602 8.88299, 35.2508 8.52918, 35.8171 8.3517, 36.4583 8.35113, 36.8109 8.3517, 37.1773 8.39292, 37.5575 8.47536, 37.9382 8.5578, 38.2703 8.73643, 38.5531 9.01123, 38.8359 9.28604, 39.0202 9.60206, 39.105 9.95931, 39.1897 10.3166, 39.2321 10.6664, 39.2321 11.0076 L 39.2321 15.4777 C 39.2321 15.5819, 39.2447 15.6787, 39.2699 15.7668, 39.2951 15.8556, 39.3489 15.918, 39.4302 15.9541, 39.5498 16.0096, 39.7273 16.0417, 39.9632 16.0508, 40.199 16.06, 40.4527 16.0646, 40.7229 16.064 L 40.7229 16.8334 Z" stroke="none" fill="#000000" />
			<rect />
		</svg>
	</g>
	<g transform="matrix(1 0 -0 1 250.338 84.4357)">
		<svg width="66.0351563" height="62.9142723">
			<defs />
			<path d="M 5.58416 9.06562 C 5.51546 9.2494, 5.39237 9.341, 5.21603 9.34043 L 3.46129 9.34043, 2.06494 14.7541 C 1.95216 15.1457, 1.89548 15.4875, 1.89548 15.78, 1.89548 15.8602, 1.90178 15.9363, 1.91437 16.009, 1.94586 16.3027, 2.09357 16.4493, 2.35749 16.4487, 2.5968 16.4493, 2.82294 16.384, 3.03706 16.2523, 3.25118 16.1212, 3.45213 15.9455, 3.64106 15.7256, 3.82999 15.5058, 3.99945 15.2464, 4.15059 14.947, 4.30174 14.6482, 4.43971 14.3333, 4.56509 14.0029, 4.58456 13.9302, 4.6252 13.877, 4.68818 13.8432, 4.75116 13.81, 4.8107 13.7928, 4.86738 13.7923 L 5.10325 13.7923 C 5.18512 13.7928, 5.25096 13.8266, 5.30134 13.893, 5.32023 13.9365, 5.32939 13.976, 5.32939 14.0121 L 5.32939 14.0671 C 5.19771 14.4277, 5.03226 14.7838, 4.83417 15.1348, 4.63608 15.4863, 4.40822 15.8023, 4.15059 16.0829, 3.89296 16.364, 3.60785 16.5958, 3.29641 16.7785, 2.98496 16.9617, 2.64089 17.0533, 2.26303 17.0533, 1.93613 17.0533, 1.65331 16.9909, 1.414 16.8655, 1.17526 16.7407, 0.983469 16.5672, 0.838624 16.3439, 0.694352 16.1212, 0.609048 15.8659, 0.583858 15.5785, 0.571262 15.5058, 0.564965 15.4262, 0.564965 15.3403, 0.564965 15.1331, 0.590155 14.9224, 0.640536 14.7083 L 2.02715 9.34043, 0.25352 9.34043 C 0.0966519 9.341, 0.0113479 9.25856, -0.00124732 9.0931 L -0.00124732 9.01982, 0.0554311 8.8641 C 0.118407 8.68147, 0.235199 8.58987, 0.404662 8.58929 L 2.20635 8.58929, 2.98038 5.58476 C 3.03706 5.35919, 3.15156 5.19145, 3.32446 5.08153, 3.49736 4.9716, 3.67198 4.91664, 3.84831 4.91607, 4.03094 4.91664, 4.18208 4.97447, 4.30116 5.09011, 4.38303 5.17027, 4.42368 5.28019, 4.42368 5.41988, 4.42368 5.48744, 4.41738 5.55499, 4.40479 5.6214 L 3.64049 8.58929, 5.37691 8.58929 C 5.54065 8.58987, 5.62194 8.67231, 5.62194 8.83662 L 5.62194 8.90074 Z" stroke="none" fill="#000000" />
			<path d="M 6.95778 21.2028 C 6.91427 21.3253, 6.8324 21.4135, 6.71275 21.4685, 6.63718 21.4994, 6.5679 21.5143, 6.50493 21.5143, 6.46141 21.5143, 6.4076 21.5085, 6.34462 21.496, 6.11848 21.4169, 6.00512 21.2795, 6.00512 21.0837, 6.00512 21.0231, 6.02115 20.9555, 6.05207 20.8822 L 12.7418 2.88251 C 12.7859 2.76114, 12.8707 2.66611, 12.9966 2.59855, 13.0659 2.5808, 13.1289 2.57164, 13.185 2.57107, 13.2296 2.57164, 13.2863 2.57794, 13.355 2.58939, 13.5817 2.66954, 13.6916 2.80694, 13.6853 3.0016, 13.6853 3.06343, 13.6699 3.13041, 13.6378 3.20312 Z" stroke="none" fill="#000000" />
			<path d="M 20.4681 14.3144 C 20.4681 14.6877, 20.4023 15.0524, 20.2701 15.4096, 20.1384 15.7668, 19.9151 16.0766, 19.6002 16.3388, 19.2607 16.6079, 18.8851 16.7911, 18.4729 16.8884, 18.0607 16.9863, 17.6439 17.035, 17.2226 17.035, 16.7577 17.035, 16.3518 16.9588, 16.006 16.806, 15.6602 16.6537, 15.3768 16.4676, 15.1564 16.2472 L 14.5524 16.9434 C 14.502 16.9983, 14.427 17.0292, 14.3263 17.035 L 14.2696 17.035 C 14.0806 17.035, 13.9862 16.9405, 13.9862 16.751 L 13.9862 13.7281 C 13.9862 13.5942, 14.0589 13.5089, 14.2037 13.4717, 14.2478 13.4602, 14.2885 13.4539, 14.3263 13.4533, 14.3766 13.4539, 14.4242 13.4631, 14.4677 13.4808, 14.5621 13.518, 14.6251 13.5821, 14.6566 13.6732, 14.8203 14.5102, 15.0997 15.1795, 15.4959 15.6798, 15.8921 16.1808, 16.468 16.431, 17.2226 16.4304, 17.5249 16.431, 17.8174 16.4023, 18.1002 16.3439, 18.3831 16.2861, 18.6287 16.1716, 18.8359 15.9999, 19.0059 15.8602, 19.1319 15.6878, 19.2138 15.4829, 19.2956 15.2785, 19.3363 15.0569, 19.3363 14.8182, 19.3363 14.4277, 19.1823 14.094, 18.8743 13.8157, 18.5663 13.5381, 18.1855 13.3531, 17.7321 13.261 L 16.4302 12.9953 C 16.1159 12.9346, 15.8125 12.839, 15.5199 12.7074, 15.2274 12.5763, 14.9692 12.4142, 14.7459 12.2219, 14.5226 12.0295, 14.3406 11.8022, 14.1986 11.5394, 14.0572 11.2772, 13.9862 10.987, 13.9862 10.6686, 13.9862 10.3211, 14.0606 9.98679, 14.2083 9.66618, 14.356 9.34558, 14.5782 9.08165, 14.8736 8.87326, 15.2194 8.61734, 15.6001 8.45132, 16.0152 8.3746, 16.4302 8.29846, 16.8327 8.2601, 17.2226 8.25953, 17.9399 8.2601, 18.5187 8.42498, 18.9584 8.75418 L 19.4491 8.31449 C 19.5246 8.27842, 19.5876 8.2601, 19.638 8.25953 L 19.7038 8.25953 C 19.8928 8.2601, 19.9872 8.3454, 19.9872 8.51601 L 19.9872 10.9526 C 19.9872 11.1364, 19.8928 11.2309, 19.7038 11.2366 L 19.6002 11.2366 C 19.4119 11.2372, 19.3174 11.1427, 19.3174 10.9526, 19.3174 10.2874, 19.1365 9.76122, 18.7747 9.37306, 18.4128 8.98547, 17.8959 8.79139, 17.2226 8.79082, 16.9335 8.79139, 16.6489 8.81601, 16.369 8.86467, 16.089 8.91391, 15.8388 9.01409, 15.619 9.16638, 15.2858 9.3868, 15.1186 9.7137, 15.1186 10.1465, 15.1186 10.4648, 15.2635 10.7368, 15.5526 10.9623, 15.8423 11.1885, 16.2069 11.3442, 16.6472 11.4289 L 17.9399 11.6671 C 18.2794 11.7289, 18.6035 11.8389, 18.9115 11.9974, 19.2201 12.1566, 19.4891 12.3472, 19.7187 12.57, 19.9483 12.7932, 20.1304 13.0554, 20.2655 13.3577, 20.4006 13.66, 20.4681 13.9789, 20.4681 14.3144 Z" stroke="none" fill="#000000" />
			<rect />
		</svg>
	</g>
	<path d="M -57.7964 0 L 57.7978 0" fill="none" stroke="#000000" stroke-width="4.26666689" stroke-linecap="round" stroke-linejoin="round" stroke-dasharray="14.9547, 10.6453" transform="matrix(0.3125 0 0 0.3125 98.0762 176.729)" />
	<g transform="matrix(1 0 -0 1 45.9577 167.123)">
		<svg width="125.98288" height="83.9999847">
			<defs />
			<polyline points="-3.48936 0 3.48936 0" fill="none" stroke="#000000" stroke-width="0.64319998" stroke-linecap="round" stroke-linejoin="round" transform="matrix(1 0 0 1 3.48936 9.60638)" />
			<path d="M 17.4953 14.3717 C 16.5234 14.3409, 15.5774 14.3255, 14.6579 14.3255, 13.7389 14.3255, 12.793 14.3409, 11.8206 14.3717 L 11.8206 13.7099, 12.3678 13.7099 C 12.5419 13.7104, 12.7059 13.708, 12.8589 13.7027, 13.0123 13.6979, 13.1575 13.6849, 13.295 13.6642, 13.4326 13.644, 13.5514 13.6234, 13.6514 13.6022, 13.736 13.5873, 13.8062 13.5402, 13.8615 13.4603, 13.9173 13.381, 13.9447 13.2925, 13.9447 13.1944 L 13.9447 4.52265 C 13.6807 4.65154, 13.3556 4.74916, 12.9699 4.81553, 12.5843 4.88237, 12.1615 4.91556, 11.7018 4.91508 L 11.7018 4.26104 C 12.3361 4.26152, 12.9214 4.18602, 13.4576 4.03453, 13.9938 3.88353, 14.4574 3.59979, 14.8484 3.18381 L 15.0941 3.18381 C 15.2682 3.18429, 15.3552 3.26893, 15.3552 3.43773 L 15.3552 13.1944 C 15.3552 13.2973, 15.3817 13.3872, 15.4346 13.4642, 15.4875 13.5411, 15.5644 13.5873, 15.6645 13.6022, 15.7491 13.6234, 15.8578 13.644, 15.9896 13.6642, 16.1218 13.6849, 16.2709 13.6979, 16.4373 13.7027, 16.6037 13.708, 16.7662 13.7104, 16.9244 13.7099 L 17.4953 13.7099, 17.4953 14.3717 Z" stroke="none" fill="#000000" />
			<path d="M 26.6848 9.01626 C 26.6848 9.75542, 26.6333 10.4902, 26.5304 11.2212, 26.4275 11.9522, 26.1726 12.6385, 25.7658 13.279, 25.4753 13.7465, 25.0867 14.1052, 24.6005 14.3563, 24.1148 14.6078, 23.5863 14.7333, 23.0155 14.7333, 22.4663 14.7333, 21.9469 14.6078, 21.4583 14.3563, 20.9697 14.1052, 20.5797 13.7465, 20.2892 13.279, 19.8824 12.6385, 19.6275 11.9522, 19.5246 11.2212, 19.4216 10.4902, 19.3697 9.75542, 19.3697 9.01626, 19.3697 8.26797, 19.4216 7.52015, 19.5246 6.77379, 19.6275 6.02742, 19.8824 5.32866, 20.2892 4.67655, 20.5797 4.20525, 20.9682 3.83832, 21.4544 3.57671, 21.9406 3.31509, 22.461 3.18429, 23.0155 3.18381, 23.581 3.18429, 24.1081 3.31509, 24.5967 3.57671, 25.0853 3.83832, 25.4753 4.20525, 25.7658 4.67655, 26.1726 5.32866, 26.4275 6.02742, 26.5304 6.77379, 26.6333 7.52015, 26.6848 8.26797, 26.6848 9.01626 Z M 25.1156 8.74695 C 25.1156 8.42426, 25.1132 8.0833, 25.1079 7.72406, 25.1026 7.3653, 25.0892 7.01376, 25.068 6.66991, 25.0468 6.32654, 25.0088 6.00193, 24.9531 5.69655, 24.8977 5.39165, 24.8304 5.131, 24.7511 4.91508, 24.5929 4.5669, 24.3606 4.28076, 24.0538 4.05762, 23.7474 3.83447, 23.4012 3.7229, 23.0155 3.72242, 22.6404 3.7229, 22.3013 3.83592, 21.9974 4.06146, 21.6935 4.28749, 21.4621 4.57171, 21.3034 4.91508, 21.2246 5.131, 21.1572 5.39165, 21.1015 5.69655, 21.0462 6.00193, 21.0077 6.32654, 20.9865 6.66991, 20.9654 7.01376, 20.9524 7.3653, 20.9471 7.72406, 20.9418 8.0833, 20.9389 8.42426, 20.9389 8.74695, 20.9389 9.10667, 20.9418 9.48515, 20.9471 9.88238, 20.9524 10.2801, 20.9654 10.6648, 20.9865 11.0366, 21.0077 11.4088, 21.0462 11.7613, 21.1015 12.0946, 21.1572 12.4283, 21.2246 12.7077, 21.3034 12.9328, 21.4516 13.3079, 21.6805 13.6157, 21.9892 13.8566, 22.2984 14.098, 22.6404 14.2182, 23.0155 14.2178, 23.4069 14.2182, 23.757 14.098, 24.0658 13.8566, 24.375 13.6157, 24.6034 13.3079, 24.7511 12.9328, 24.8304 12.7077, 24.8977 12.4283, 24.9531 12.0946, 25.0088 11.7613, 25.0468 11.4088, 25.068 11.0366, 25.0892 10.6648, 25.1026 10.2801, 25.1079 9.88238, 25.1132 9.48515, 25.1156 9.10667, 25.1156 8.74695 Z" stroke="none" fill="#000000" />
			<rect />
		</svg>
	</g>
	<g transform="matrix(1 0 -0 1 90.7455 93.3959)">
		<svg width="21.010046" height="38.9999886">
			<defs />
			<path d="M 5.84808 14.3717 C 4.87616 14.3409, 3.93022 14.3255, 3.01072 14.3255, 2.09171 14.3255, 1.14576 14.3409, 0.173363 14.3717 L 0.173363 13.7099, 0.720637 13.7099 C 0.894725 13.7104, 1.05872 13.708, 1.21164 13.7027, 1.36505 13.6979, 1.51029 13.6849, 1.64783 13.6642, 1.78537 13.644, 1.90415 13.6234, 2.00418 13.6022, 2.08882 13.5873, 2.15903 13.5402, 2.21434 13.4603, 2.27012 13.381, 2.29753 13.2925, 2.29753 13.1944 L 2.29753 4.52265 C 2.03352 4.65154, 1.70842 4.74916, 1.32273 4.81553, 0.937045 4.88237, 0.514327 4.91556, 0.0545789 4.91508 L 0.0545789 4.26104 C 0.688897 4.26152, 1.27416 4.18602, 1.81037 4.03453, 2.34659 3.88353, 2.81018 3.59979, 3.20116 3.18381 L 3.4469 3.18381 C 3.62099 3.18429, 3.70804 3.26893, 3.70804 3.43773 L 3.70804 13.1944 C 3.70804 13.2973, 3.73449 13.3872, 3.78739 13.4642, 3.84029 13.5411, 3.91723 13.5873, 4.01726 13.6022, 4.1019 13.6234, 4.21059 13.644, 4.34236 13.6642, 4.47461 13.6849, 4.62369 13.6979, 4.79008 13.7027, 4.95648 13.708, 5.11902 13.7104, 5.27724 13.7099 L 5.84808 13.7099, 5.84808 14.3717 Z" stroke="none" fill="#000000" />
			<rect />
		</svg>
	</g>
	<g transform="matrix(1 0 -0 1 134.45 93.3959)">
		<svg width="27.0562763" height="38.9999886">
			<defs />
			<path d="M 7.52264 3.96095 C 7.52264 3.99221, 7.50966 4.03597, 7.48273 4.09176 L 5.10512 7.34655 C 4.79878 7.77263, 4.55977 8.24344, 4.38808 8.75897, 4.2164 9.27451, 4.09377 9.81601, 4.01971 10.3825, 3.94565 10.9495, 3.89948 11.528, 3.88072 12.1176, 3.86245 12.7077, 3.85283 13.3026, 3.85283 13.9023, 3.85283 14.1798, 3.76194 14.3899, 3.57968 14.5332, 3.39741 14.677, 3.19783 14.7487, 2.98143 14.7487, 2.76502 14.7487, 2.56784 14.677, 2.39087 14.5332, 2.2139 14.3899, 2.12541 14.1798, 2.12541 13.9023, 2.12541 12.651, 2.34374 11.4473, 2.77944 10.2902, 3.21515 9.1336, 3.80282 8.04723, 4.54245 7.03107 L 6.04818 4.99202, 3.19543 4.99202 C 2.83619 4.9925, 2.50196 4.99539, 2.19274 5.0002, 1.88399 5.00549, 1.62094 5.01462, 1.40405 5.02713, 1.18764 5.04011, 1.07655 5.04877, 1.07126 5.05358, 1.01836 5.10022, 0.972191 5.17717, 0.932757 5.28489, 0.893322 5.39262, 0.856292 5.51861, 0.821667 5.66193, 0.787522 5.80572, 0.757225 5.95432, 0.730775 6.10821, 0.704325 6.2621, 0.677875 6.42609, 0.651425 6.60018 L 0.0647173 6.60018, 0.635555 3.01453, 1.21409 3.01453, 1.21409 3.16842 C 1.21409 3.22516, 1.24583 3.27903, 1.30883 3.33, 1.41992 3.40214, 1.5363 3.44831, 1.65749 3.4685, 1.80031 3.48966, 1.97488 3.5089, 2.18071 3.52669, 2.38702 3.54497, 2.60776 3.55651, 2.84292 3.56132, 3.07809 3.56661, 3.31421 3.56901, 3.55178 3.56853 L 7.52264 3.56853, 7.52264 3.96095 Z" stroke="none" fill="#000000" />
			<rect />
		</svg>
	</g>
	<g transform="matrix(1 0 -0 1 197.823 93.3959)">
		<svg width="48.0251122" height="38.9999886">
			<defs />
			<path d="M 5.85337 14.3717 C 4.88145 14.3409, 3.93551 14.3255, 3.01601 14.3255, 2.097 14.3255, 1.15105 14.3409, 0.178653 14.3717 L 0.178653 13.7099, 0.725926 13.7099 C 0.900015 13.7104, 1.064 13.708, 1.21693 13.7027, 1.37034 13.6979, 1.51558 13.6849, 1.65312 13.6642, 1.79066 13.644, 1.90944 13.6234, 2.00947 13.6022, 2.09411 13.5873, 2.16432 13.5402, 2.21963 13.4603, 2.27541 13.381, 2.30282 13.2925, 2.30282 13.1944 L 2.30282 4.52265 C 2.03881 4.65154, 1.71371 4.74916, 1.32802 4.81553, 0.942335 4.88237, 0.519616 4.91556, 0.0598683 4.91508 L 0.0598683 4.26104 C 0.694186 4.26152, 1.27945 4.18602, 1.81566 4.03453, 2.35188 3.88353, 2.81547 3.59979, 3.20645 3.18381 L 3.45219 3.18381 C 3.62628 3.18429, 3.71333 3.26893, 3.71333 3.43773 L 3.71333 13.1944 C 3.71333 13.2973, 3.73978 13.3872, 3.79268 13.4642, 3.84558 13.5411, 3.92252 13.5873, 4.02255 13.6022, 4.10719 13.6234, 4.21588 13.644, 4.34765 13.6642, 4.4799 13.6849, 4.62898 13.6979, 4.79537 13.7027, 4.96177 13.708, 5.12431 13.7104, 5.28253 13.7099 L 5.85337 13.7099, 5.85337 14.3717 Z" stroke="none" fill="#000000" />
			<path d="M 14.9953 11.4708 C 14.9953 11.9123, 14.8977 12.336, 14.7024 12.7409, 14.5072 13.1463, 14.2455 13.4926, 13.9176 13.7792, 13.5477 14.1028, 13.1395 14.3423, 12.6932 14.4986, 12.2469 14.6554, 11.7804 14.7333, 11.2942 14.7333, 10.8556 14.7333, 10.4281 14.6717, 10.0107 14.5486, 9.59324 14.4255, 9.21716 14.249, 8.88149 14.0182, 8.54582 13.7874, 8.27795 13.5041, 8.07693 13.1679, 7.87591 12.8323, 7.7754 12.4461, 7.7754 12.0094, 7.7754 11.6815, 7.88505 11.4367, 8.10434 11.2751, 8.32364 11.1135, 8.55495 11.0327, 8.79781 11.0322, 9.05173 11.0327, 9.28786 11.1135, 9.50715 11.2751, 9.72645 11.4367, 9.83609 11.6815, 9.83609 12.0094, 9.83609 12.2047, 9.7981 12.3677, 9.72116 12.4985, 9.64469 12.6293, 9.54707 12.7385, 9.4278 12.8255, 9.30902 12.9131, 9.17292 12.9664, 9.01951 12.9866, 8.94064 13.0078, 8.86658 13.0179, 8.79781 13.0174, 8.72952 13.0179, 8.71894 13.0232, 8.76607 13.0328, 8.93006 13.3204, 9.25227 13.5748, 9.73318 13.795, 10.2141 14.0158, 10.7344 14.1259, 11.2942 14.1254, 11.5587 14.1259, 11.8054 14.0605, 12.0353 13.9297, 12.2652 13.7989, 12.457 13.6234, 12.61 13.4021, 12.8004 13.1155, 12.9298 12.8077, 12.9985 12.4793, 13.0673 12.1513, 13.1015 11.8151, 13.1015 11.4708, 13.1015 11.1173, 13.0673 10.7778, 12.9985 10.4518, 12.9298 10.1262, 12.8004 9.82467, 12.61 9.54718, 12.4513 9.32212, 12.2584 9.13985, 12.0314 9.00135, 11.8045 8.86285, 11.5587 8.7936, 11.2942 8.79312 L 10.1453 8.79312 C 9.99239 8.7936, 9.91015 8.72194, 9.89957 8.57767 L 9.89957 8.49303 C 9.89957 8.43196, 9.91833 8.38338, 9.95488 8.34684, 10.0025 8.30115, 10.0631 8.27807, 10.1371 8.27759, 10.2906 8.25739, 10.4493 8.24729, 10.6128 8.24681, 10.7715 8.24729, 10.9273 8.23719, 11.0802 8.21603, 11.3659 8.19583, 11.614 8.10782, 11.8256 7.95105, 12.0372 7.79475, 12.2142 7.5947, 12.3565 7.35088, 12.4989 7.10754, 12.6071 6.82669, 12.6811 6.50832, 12.7552 6.19044, 12.7922 5.86439, 12.7922 5.53064, 12.7922 5.28489, 12.7658 5.05165, 12.7129 4.83092, 12.66 4.61066, 12.5624 4.41782, 12.4195 4.25335, 12.1238 3.91527, 11.7487 3.74839, 11.2942 3.7532, 10.8085 3.75368, 10.3632 3.84505, 9.95921 4.02684, 9.55524 4.2091, 9.28401 4.40531, 9.14647 4.61499, 9.10992 4.62076, 9.1282 4.62316, 9.20226 4.62268, 9.3927 4.62316, 9.57207 4.67943, 9.74087 4.79196, 9.99479 4.94104, 10.1213 5.19256, 10.1213 5.54603, 10.1213 5.84419, 10.0251 6.06877, 9.83225 6.21978, 9.6394 6.37127, 9.42395 6.44677, 9.18639 6.44629, 8.95363 6.44677, 8.73578 6.37271, 8.53235 6.22363, 8.32893 6.07503, 8.22697 5.849, 8.22697 5.54603, 8.22697 5.17188, 8.31691 4.8415, 8.49676 4.55391, 8.67662 4.26681, 8.90746 4.02059, 9.19023 3.81524, 9.47301 3.61037, 9.79906 3.4536, 10.1689 3.34587, 10.5392 3.23815, 10.9143 3.18429, 11.2942 3.18381, 11.7011 3.18429, 12.0949 3.23815, 12.4753 3.34587, 12.8557 3.4536, 13.215 3.62047, 13.553 3.84554, 13.8281 4.04078, 14.0589 4.28076, 14.2465 4.56545, 14.4341 4.85015, 14.5278 5.17188, 14.5278 5.53064, 14.5278 5.89036, 14.4634 6.22892, 14.334 6.5468, 14.2047 6.86516, 14.033 7.15226, 13.819 7.40858, 13.605 7.66539, 13.3501 7.89094, 13.0539 8.0857, 12.7581 8.28095, 12.5359 8.40358, 12.3878 8.45456, 12.5148 8.47043, 12.7316 8.54641, 13.038 8.68203, 13.3448 8.81813, 13.6377 8.99895, 13.9176 9.22401, 14.2455 9.50679, 14.5072 9.8439, 14.7024 10.2363, 14.8977 10.6287, 14.9953 11.0404, 14.9953 11.4708 Z" stroke="none" fill="#000000" />
			<rect />
		</svg>
	</g>
	<g transform="matrix(1 0 -0 1 64.7674 71.1101)">
		<svg width="27.0562763" height="38.9999886">
			<defs />
			<path d="M 7.01345 10.9707 C 7.01345 11.4737, 6.91871 11.9536, 6.72827 12.41, 6.53831 12.8669, 6.26371 13.2771, 5.90399 13.6407, 5.53946 13.9951, 5.12877 14.2659, 4.67191 14.4524, 4.21504 14.64, 3.72981 14.7333, 3.21716 14.7333, 2.77376 14.7333, 2.36018 14.6501, 1.9769 14.4832, 1.59409 14.3168, 1.2613 14.0889, 0.978531 13.7989, 0.695757 13.5094, 0.474058 13.1732, 0.312954 12.7909, 0.15185 12.4091, 0.0710571 12.0022, 0.0710571 11.5708, 0.0710571 11.2736, 0.170124 11.0495, 0.368258 10.8981, 0.566392 10.747, 0.771259 10.6711, 0.982378 10.6706, 1.20456 10.6711, 1.41327 10.7456, 1.60852 10.8942, 1.80425 11.0433, 1.90187 11.2688, 1.90187 11.5708, 1.90187 11.756, 1.861 11.9113, 1.77924 12.0368, 1.69749 12.1628, 1.59698 12.26, 1.47771 12.3292, 1.35893 12.3985, 1.22572 12.4384, 1.0776 12.448 L 0.982378 12.448, 0.823678 12.448 C 0.945348 12.8794, 1.22812 13.267, 1.672 13.6104, 2.11588 13.9542, 2.63093 14.1259, 3.21716 14.1254, 3.52398 14.1259, 3.82262 14.0466, 4.11309 13.8874, 4.40356 13.7287, 4.64161 13.518, 4.82628 13.2559, 5.04269 12.9434, 5.18167 12.5884, 5.24226 12.1907, 5.30286 11.7935, 5.33315 11.3867, 5.33315 10.9707, 5.33315 10.5504, 5.32017 10.1469, 5.29372 9.75926, 5.26775 9.37213, 5.15907 9.00664, 4.96863 8.66231, 4.83157 8.41128, 4.65604 8.20256, 4.44203 8.03569, 4.22803 7.86929, 3.98902 7.78562, 3.72452 7.78514, 3.22245 7.78562, 2.78675 7.88709, 2.41693 8.08955, 2.04711 8.29249, 1.74846 8.58344, 1.52148 8.9624, 1.47387 9.04992, 1.3974 9.09369, 1.2916 9.09321 L 1.22812 9.09321 C 1.04345 9.09369, 0.950638 9.00905, 0.950638 8.83929 L 0.950638 3.43773 C 0.950638 3.30499, 1.02758 3.22036, 1.18051 3.18381, 1.20696 3.18429, 1.22668 3.18717, 1.24014 3.19198, 1.25361 3.19727, 1.26515 3.19968, 1.27573 3.19919, 2.04182 3.54833, 2.83147 3.7229, 3.64517 3.72242, 4.46944 3.7229, 5.25958 3.54833, 6.01508 3.19919, 6.02566 3.19968, 6.03624 3.19727, 6.04682 3.19198, 6.0574 3.18717, 6.07327 3.18429, 6.09443 3.18381, 6.26852 3.18429, 6.35316 3.26364, 6.34787 3.42234, 6.34787 3.51515, 6.332 3.57671, 6.30026 3.60701, 5.92515 4.12062, 5.44857 4.52217, 4.87004 4.81168, 4.29151 5.10167, 3.67739 5.24642, 3.0272 5.24594, 2.48858 5.24642, 2.02354 5.18486, 1.63209 5.06127 L 1.63209 8.00058 C 1.81723 7.8063, 2.09616 7.63317, 2.46838 7.48168, 2.84109 7.33068, 3.25996 7.25469, 3.72452 7.25421, 4.17897 7.25469, 4.60843 7.35761, 5.01239 7.56248, 5.41683 7.76782, 5.77222 8.03425, 6.07856 8.36223, 6.39548 8.73204, 6.63064 9.1413, 6.78357 9.58998, 6.93698 10.0392, 7.01345 10.4994, 7.01345 10.9707 Z" stroke="none" fill="#000000" />
			<rect />
		</svg>
	</g>
	<path d="M -6.44141 0 L 6.44336 0" fill="none" stroke="#000000" stroke-width="3.20000005" stroke-linecap="round" stroke-linejoin="round" transform="matrix(0.3125 0 0 0.3125 77.7663 80.7165)" />
	<g transform="matrix(1 0 -0 1 62.9397 115.976)">
		<svg width="36.0612984" height="41.9571304">
			<defs />
			<path d="M 10.5115 8.92471 C 10.3172 9.68435, 10.0031 10.417, 9.56934 11.1236, 9.13554 11.8303, 8.58936 12.4766, 7.9318 13.0625, 7.339 13.5915, 6.69027 14.012, 5.98657 14.3232, 5.28287 14.6343, 4.5782 14.7898, 3.87205 14.7898, 3.1605 14.7898, 2.52796 14.6333, 1.9754 14.3192, 1.42285 14.0052, 0.982182 13.5812, 0.653397 13.0468, 0.292226 12.456, 0.0846499 11.8013, 0.0306704 11.0839, 0.00907862 10.9116, -0.00171733 10.7389, -0.00171733 10.5657, -0.00171733 10.0269, 0.0684561 9.46941, 0.208312 8.8933, 0.413434 8.12434, 0.72995 7.37746, 1.15884 6.65217, 1.58773 5.92738, 2.13587 5.27177, 2.80423 4.68487, 3.39752 4.15685, 4.04576 3.73139, 4.74946 3.40948, 5.45316 3.08757, 6.16323 2.92661, 6.88018 2.92612, 7.59172 2.92661, 8.22132 3.08904, 8.76848 3.41341, 9.31612 3.73826, 9.75385 4.16716, 10.0826 4.70057, 10.4438 5.29238, 10.6568 5.95191, 10.7216 6.67916, 10.7323 6.85779, 10.7377 7.03298, 10.7377 7.20522, 10.7377 7.76562, 10.6627 8.33879, 10.5115 8.92471 Z M 8.87791 4.96752 C 8.70027 4.52833, 8.43331 4.17108, 8.07705 3.89628, 7.72128 3.62147, 7.28453 3.48407, 6.76682 3.48358, 6.255 3.48407, 5.74563 3.62442, 5.23871 3.90413, 4.73228 4.18433, 4.27935 4.54648, 3.8799 4.99108, 3.37838 5.53087, 2.98237 6.11582, 2.69137 6.74639, 2.40037 7.37746, 2.17366 8.01687, 2.01172 8.66561, 1.82328 9.37274, 1.70747 10.0612, 1.66429 10.7306, 1.65349 10.8567, 1.64809 10.9823, 1.64809 11.1074, 1.64809 11.6315, 1.73446 12.1443, 1.9067 12.6464, 2.07404 13.0919, 2.3302 13.4649, 2.67517 13.7657, 3.02015 14.067, 3.4515 14.2172, 3.96872 14.2167, 4.50263 14.2172, 5.02475 14.064, 5.53412 13.7578, 6.04349 13.4516, 6.50036 13.0733, 6.90471 12.6228, 7.42782 12.0163, 7.83463 11.3749, 8.12563 10.6997, 8.41712 10.0244, 8.65414 9.33594, 8.83718 8.6342, 9.00451 7.98056, 9.10953 7.33673, 9.15271 6.70272 L 9.15271 6.42791 C 9.15271 5.9048, 9.06144 5.41801, 8.87791 4.96752 Z" stroke="none" fill="#000000" />
			<rect />
		</svg>
	</g>
	<path d="M -28.8984 0 L 28.8984 0" fill="none" stroke="#000000" stroke-width="4.26666689" stroke-linecap="round" stroke-linejoin="round" stroke-dasharray="14.9547, 10.6453" transform="matrix(0.3125 0 0 0.3125 70.92 48.5465)" />
	<g transform="matrix(1 0 -0 1 87.1081 38.9402)">
		<svg width="50.9839096" height="38.9999886">
			<defs />
			<path d="M 5.85337 14.3717 C 4.88145 14.3409, 3.93551 14.3255, 3.01601 14.3255, 2.097 14.3255, 1.15105 14.3409, 0.178653 14.3717 L 0.178653 13.7099, 0.725926 13.7099 C 0.900015 13.7104, 1.064 13.708, 1.21693 13.7027, 1.37034 13.6979, 1.51558 13.6849, 1.65312 13.6642, 1.79066 13.644, 1.90944 13.6234, 2.00947 13.6022, 2.09411 13.5873, 2.16432 13.5402, 2.21963 13.4603, 2.27541 13.381, 2.30282 13.2925, 2.30282 13.1944 L 2.30282 4.52265 C 2.03881 4.65154, 1.71371 4.74916, 1.32802 4.81553, 0.942335 4.88237, 0.519616 4.91556, 0.0598683 4.91508 L 0.0598683 4.26104 C 0.694186 4.26152, 1.27945 4.18602, 1.81566 4.03453, 2.35188 3.88353, 2.81547 3.59979, 3.20645 3.18381 L 3.45219 3.18381 C 3.62628 3.18429, 3.71333 3.26893, 3.71333 3.43773 L 3.71333 13.1944 C 3.71333 13.2973, 3.73978 13.3872, 3.79268 13.4642, 3.84558 13.5411, 3.92252 13.5873, 4.02255 13.6022, 4.10719 13.6234, 4.21588 13.644, 4.34765 13.6642, 4.4799 13.6849, 4.62898 13.6979, 4.79537 13.7027, 4.96177 13.708, 5.12431 13.7104, 5.28253 13.7099 L 5.85337 13.7099, 5.85337 14.3717 Z" stroke="none" fill="#000000" />
			<path d="M 15.0414 9.01626 C 15.0414 9.75542, 14.99 10.4902, 14.8871 11.2212, 14.7842 11.9522, 14.5293 12.6385, 14.1224 13.279, 13.832 13.7465, 13.4434 14.1052, 12.9577 14.3563, 12.472 14.6078, 11.9434 14.7333, 11.3726 14.7333, 10.8234 14.7333, 10.3045 14.6078, 9.8159 14.3563, 9.32729 14.1052, 8.93728 13.7465, 8.64681 13.279, 8.24044 12.6385, 7.98556 11.9522, 7.88264 11.2212, 7.77973 10.4902, 7.72779 9.75542, 7.72779 9.01626, 7.72779 8.26797, 7.77973 7.52015, 7.88264 6.77379, 7.98556 6.02742, 8.24044 5.32866, 8.64681 4.67655, 8.93728 4.20525, 9.32585 3.83832, 9.81157 3.57671, 10.2978 3.31509, 10.8181 3.18429, 11.3726 3.18381, 11.9381 3.18429, 12.4647 3.31509, 12.9533 3.57671, 13.4419 3.83832, 13.832 4.20525, 14.1224 4.67655, 14.5293 5.32866, 14.7842 6.02742, 14.8871 6.77379, 14.99 7.52015, 15.0414 8.26797, 15.0414 9.01626 Z M 13.4722 8.74695 C 13.4722 8.42426, 13.4698 8.0833, 13.4645 7.72406, 13.4597 7.3653, 13.4463 7.01376, 13.4251 6.66991, 13.404 6.32654, 13.366 6.00193, 13.3102 5.69655, 13.2549 5.39165, 13.1875 5.131, 13.1082 4.91508, 12.9495 4.5669, 12.7172 4.28076, 12.4109 4.05762, 12.1045 3.83447, 11.7583 3.7229, 11.3726 3.72242, 10.9975 3.7229, 10.6584 3.83592, 10.3545 4.06146, 10.0511 4.28749, 9.81974 4.57171, 9.66104 4.91508, 9.58217 5.131, 9.51485 5.39165, 9.45906 5.69655, 9.40376 6.00193, 9.36528 6.32654, 9.34412 6.66991, 9.32296 7.01376, 9.30998 7.3653, 9.30469 7.72406, 9.2994 8.0833, 9.29651 8.42426, 9.29651 8.74695, 9.29651 9.10667, 9.2994 9.48515, 9.30469 9.88238, 9.30998 10.2801, 9.32296 10.6648, 9.34412 11.0366, 9.36528 11.4088, 9.40376 11.7613, 9.45906 12.0946, 9.51485 12.4283, 9.58217 12.7077, 9.66104 12.9328, 9.80916 13.3079, 10.0381 13.6157, 10.3468 13.8566, 10.6556 14.098, 10.9975 14.2182, 11.3726 14.2178, 11.7636 14.2182, 12.1137 14.098, 12.4224 13.8566, 12.7316 13.6157, 12.9601 13.3079, 13.1082 12.9328, 13.1875 12.7077, 13.2549 12.4283, 13.3102 12.0946, 13.366 11.7613, 13.404 11.4088, 13.4251 11.0366, 13.4463 10.6648, 13.4597 10.2801, 13.4645 9.88238, 13.4698 9.48515, 13.4722 9.10667, 13.4722 8.74695 Z" stroke="none" fill="#000000" />
			<rect />
		</svg>
	</g>
</svg>
