<?xml version="1.0"?>
<svg xmlns="http://www.w3.org/2000/svg" xmlns:xlink="http://www.w3.org/1999/xlink" width="94.6788635" height="92.6494446">
	<defs>
		<marker id="CustomMarker-01" markerUnits="strokeWidth" markerWidth="9" markerHeight="9" viewBox="-9 -4.5 9 9" orient="auto-start-reverse">
			<path d="M 0 -0 L -6 -3, -6 -0.5, -6 0.5, -6 3 Z" fill="#000000" stroke="#000000" stroke-linejoin="round" />
		</marker>
	</defs>
	<path d="M -151.446 -151.446 L 151.446 -151.446, 151.446 151.446, -151.446 151.446 Z" fill="none" stroke="#000000" stroke-width="5.0666666" stroke-linecap="round" stroke-linejoin="round" transform="matrix(0.263158 0 0 0.263158 46.3247 46.3247)" />
	<ellipse cx="744.14412879943848" cy="387.9999942779541" rx="9.9750003814697266" ry="9.9750003814697266" stroke="none" fill="#000000" transform="matrix(0.263158 0 0 0.263158 -149.503 -55.7805)" />
	<path d="M 37.4612 -37.4613 C 58.1505 -16.772, 58.1505 16.772, 37.4613 37.4612, 16.7721 58.1506, -16.7719 58.1506, -37.4612 37.4613, -58.1505 16.772, -58.1505 -16.772, -37.4613 -37.4612, -33.3273 -41.5953, -28.5804 -44.9755, -23.4341 -47.5136 L -0.000189951 -52.9783" fill="none" stroke="#000000" stroke-width="5.0666666" stroke-linecap="round" stroke-linejoin="round" marker-end="url(#CustomMarker-01)" transform="matrix(0.263158 0 -0 0.263158 46.3247 46.3247)" />
</svg>
