<?xml version="1.0"?>
<svg xmlns="http://www.w3.org/2000/svg" xmlns:xlink="http://www.w3.org/1999/xlink" width="283.834137" height="288.380219">
	<defs>
		<marker id="CustomMarker-01" markerUnits="strokeWidth" markerWidth="15.000001" markerHeight="9" viewBox="-15 -4.5 15 9" orient="auto-start-reverse">
			<path d="M 0 -0 L -10 -3, -8 -0.5, -8 0.5, -10 3 Z" fill="#000000" stroke="#000000" stroke-linejoin="round" />
		</marker>
		<marker id="CustomMarker-02" markerUnits="strokeWidth" markerWidth="15.000001" markerHeight="9" viewBox="-15 -4.5 15 9" orient="auto-start-reverse">
			<path d="M 0 -0 L -10 -3, -8 -0.5, -8 0.5, -10 3 Z" fill="#000000" stroke="#000000" stroke-linejoin="round" />
		</marker>
		<marker id="CustomMarker-03" markerUnits="strokeWidth" markerWidth="15.000001" markerHeight="9" viewBox="-15 -4.5 15 9" orient="auto-start-reverse">
			<path d="M 0 -0 L -10 -3, -8 -0.5, -8 0.5, -10 3 Z" fill="#000000" stroke="#000000" stroke-linejoin="round" />
		</marker>
		<marker id="CustomMarker-04" markerUnits="strokeWidth" markerWidth="9" markerHeight="9" viewBox="-9 -4.5 9 9" orient="auto-start-reverse">
			<path d="M 0 -0 L -6 -3, -4.8 -0.5, -4.8 0.5, -6 3 Z" fill="#000000" stroke="#000000" stroke-linejoin="round" />
		</marker>
	</defs>
	<path d="M -266.834 0 L 266.834 0" fill="none" stroke="#000000" stroke-width="2.66666675" stroke-linecap="round" stroke-linejoin="round" marker-end="url(#CustomMarker-01)" transform="matrix(0.5 0 -0 0.5 141.917 144.19)" />
	<path d="M 0 271.38 L 0 -271.38" fill="none" stroke="#000000" stroke-width="2.66666675" stroke-linecap="round" stroke-linejoin="round" marker-end="url(#CustomMarker-02)" transform="matrix(0.5 0 -0 0.5 141.917 144.19)" />
	<path d="M 195.723 -0 C 195.723 108.095, 108.095 195.723, -0 195.723, -108.095 195.723, -195.723 108.095, -195.723 -0, -195.723 -108.095, -108.095 -195.723, -0 -195.723, 108.095 -195.723, 195.723 -108.095, 195.723 -0 Z" fill="none" stroke="#000000" stroke-width="2.66666675" stroke-linecap="round" stroke-linejoin="round" transform="matrix(0.5 0 0 0.5 141.917 144.19)" />
	<g transform="matrix(1 0 -0 1 209.759 23.2917)">
		<svg width="39.020092" height="32.9571342">
			<defs />
			<path d="M 11.2338 8.53433 C 11.4284 8.70609, 11.5544 8.94711, 11.6111 9.25799, 11.6237 9.41714, 11.63 9.58203, 11.63 9.75263, 11.63 9.90607, 11.6237 10.0584, 11.6111 10.2106, 11.5733 10.553, 11.512 10.9028, 11.4273 11.2601, 11.3426 11.6173, 11.2618 11.9396, 11.1863 12.2259, 11.0357 12.8064, 10.825 13.3823, 10.5548 13.9531, 10.2846 14.5245, 9.95881 15.0386, 9.57809 15.4966, 9.19795 15.9546, 8.76398 16.3291, 8.27621 16.6187, 7.789 16.9084, 7.25943 17.0533, 6.68692 17.0533, 6.0772 17.0533, 5.63064 16.8781, 5.34782 16.5271, 5.065 16.1762, 4.90126 15.8201, 4.85718 15.4594, 4.59955 15.851, 4.22856 16.2146, 3.74422 16.55, 3.25988 16.8855, 2.70626 17.0533, 2.08337 17.0533, 1.51773 17.0533, 1.07632 16.901, 0.758581 16.5958, 0.440838 16.2907, 0.228437 15.906, 0.121377 15.4411, 0.0463784 15.1365, 0.00573021 14.7976, -0.00113988 14.4243, -0.00113988 14.248, 0.00515771 14.0705, 0.0177529 13.893, 0.0681338 13.3257, 0.166033 12.7577, 0.310305 12.1892, 0.474043 11.5852, 0.700185 10.9961, 0.989302 10.4219, 1.27899 9.84824, 1.62479 9.2952, 2.02726 8.76334, 2.09024 8.67231, 2.17153 8.61448, 2.2723 8.58929 L 2.33813 8.58929 C 2.38852 8.58987, 2.4389 8.59903, 2.48928 8.61677, 2.57115 8.65399, 2.62153 8.71811, 2.64042 8.80914 L 2.64042 8.85494 C 2.64042 8.91047, 2.61523 8.97459, 2.56485 9.0473, 2.20016 9.56084, 1.87955 10.0818, 1.60246 10.6097, 1.32594 11.1381, 1.11869 11.6768, 0.980142 12.2259, 0.866785 12.6478, 0.810106 13.0509, 0.810106 13.435 L 0.828999 13.4533 C 0.828999 13.8816, 0.89083 14.2451, 1.01335 14.544, 1.13586 14.8434, 1.31506 15.0798, 1.55093 15.2539, 1.78681 15.4279, 2.08051 15.5149, 2.4326 15.5144, 2.90435 15.5149, 3.34976 15.3764, 3.76769 15.0982, 4.18562 14.8205, 4.53943 14.4552, 4.82855 14.0029, 4.85374 13.7167, 4.89954 13.419, 4.96538 13.1104, 5.03179 12.8024, 5.10221 12.495, 5.17778 12.1892, 5.19038 12.1411, 5.21099 12.0633, 5.23904 11.9562, 5.26767 11.8497, 5.31003 11.7444, 5.36671 11.6402, 5.42339 11.5366, 5.49896 11.4375, 5.59285 11.3425, 5.68732 11.248, 5.81957 11.2005, 5.98903 11.1999, 6.15277 11.2005, 6.26727 11.2526, 6.33311 11.3562, 6.39952 11.4604, 6.43215 11.5698, 6.43215 11.6854, 6.43215 11.7896, 6.41956 11.8938, 6.39437 11.9974, 6.36918 12.1016, 6.35028 12.1778, 6.33769 12.2259, 6.26269 12.5442, 6.16708 12.8619, 6.05029 13.1791, 5.93407 13.4968, 5.80983 13.7991, 5.67758 14.0854, 5.72796 14.501, 5.86193 14.8434, 6.07891 15.1119, 6.29589 15.381, 6.61192 15.5149, 7.02642 15.5144, 7.41 15.5149, 7.78728 15.4251, 8.15827 15.2447, 8.52925 15.065, 8.87219 14.8234, 9.1865 14.5211, 9.50138 14.2188, 9.77332 13.865, 10.0029 13.4585, 10.2325 13.0526, 10.4008 12.6295, 10.5073 12.1892, 10.5703 11.9579, 10.6052 11.7289, 10.6109 11.5022, 10.6109 11.295, 10.5828 11.0969, 10.5262 10.9068, 10.4071 10.5043, 10.193 10.1654, 9.88496 9.89004, 9.72122 9.75607, 9.63935 9.59748, 9.63935 9.41371, 9.63935 9.36562, 9.64565 9.32268, 9.65824 9.28547, 9.70233 9.06619, 9.80481 8.87555, 9.96511 8.71353, 10.1254 8.55208, 10.3218 8.43701, 10.5542 8.36945, 10.6172 8.358, 10.6802 8.3517, 10.7432 8.35113, 10.9258 8.3517, 11.0895 8.41296, 11.2338 8.53433 Z" stroke="none" fill="#000000" />
			<rect />
		</svg>
	</g>
	<g transform="matrix(1 0 -0 1 156.412 74.797)">
		<svg width="41.9788857" height="45.0428467">
			<defs />
			<path d="M 12.3983 16.5678 C 12.3296 16.751, 12.2099 16.8426, 12.0399 16.8426, 11.4113 16.806, 10.7849 16.7876, 10.1621 16.7876 L 9.85061 16.7876 C 9.11493 16.8002, 8.37582 16.8185, 7.63385 16.8426, 7.46439 16.8426, 7.37279 16.7636, 7.36019 16.6044 L 7.36019 16.5311, 7.39798 16.3754 C 7.44836 16.1745, 7.57088 16.0766, 7.76553 16.0823, 7.99854 16.0829, 8.20636 16.0754, 8.38842 16.06, 8.57105 16.0451, 8.74738 15.9913, 8.91685 15.8991, 8.97982 15.8693, 9.03364 15.8264, 9.07715 15.7709, 9.10234 15.7228, 9.11837 15.6735, 9.12409 15.6243 L 9.12409 15.5693, 8.89795 12.5282, 4.63333 12.5282, 3.13335 15.093 C 3.05148 15.2401, 3.01026 15.3747, 3.01026 15.4961, 3.01026 15.6002, 3.04175 15.6953, 3.10473 15.78, 3.24327 15.9821, 3.50148 16.0829, 3.87819 16.0823, 4.04822 16.0829, 4.13925 16.1562, 4.15185 16.3021, 4.15185 16.3394, 4.14555 16.3789, 4.13295 16.4212 L 4.09574 16.5678 C 4.02647 16.751, 3.90395 16.8426, 3.72762 16.8426, 3.14938 16.8185, 2.57687 16.8002, 2.01009 16.7876 L 1.75589 16.7876 C 1.26525 16.7876, 0.768314 16.806, 0.265078 16.8426, 0.170614 16.8426, 0.101341 16.8123, 0.0572573 16.751, 0.0194716 16.7149, 0.000578821 16.672, 0.000578821 16.6228, 0.000578821 16.5867, 0.00687641 16.55, 0.0194716 16.5128 L 0.0572573 16.3754 C 0.107638 16.1745, 0.230728 16.0766, 0.425381 16.0823, 0.626904 16.0829, 0.824993 16.0617, 1.01965 16.0188, 1.21487 15.9764, 1.3975 15.8997, 1.56697 15.7897, 1.737 15.6798, 1.89444 15.547, 2.03871 15.3913, 2.18356 15.2356, 2.31237 15.0598, 2.42573 14.864 L 9.08631 3.45961 C 9.19967 3.289, 9.34451 3.20656, 9.52084 3.21228 L 9.70004 3.21228 C 9.90156 3.21285, 10.0143 3.30732, 10.0395 3.49625 L 10.8697 15.4319 C 10.8823 15.5911, 10.9012 15.7119, 10.9264 15.7943, 10.9515 15.8768, 10.9956 15.9363, 11.0586 15.9724, 11.1468 16.0279, 11.2928 16.06, 11.4971 16.0691, 11.7021 16.0783, 11.9328 16.0829, 12.1905 16.0823, 12.3668 16.0829, 12.455 16.1562, 12.455 16.3021, 12.455 16.3394, 12.4487 16.3789, 12.4361 16.4212 Z M 8.4451 6.03361 L 5.08618 11.7862, 8.84127 11.7862 Z" stroke="none" fill="#000000" />
			<rect />
		</svg>
	</g>
	<g transform="matrix(1 0 -0 1 158.536 120.983)">
		<svg width="30.0150681" height="47.9999886">
			<defs />
			<path d="M 7.9765 5.50232 C 8.12764 6.08285, 8.20264 6.67539, 8.20264 7.27939, 8.20264 7.46947, 8.19634 7.65267, 8.18374 7.829, 8.12134 8.63567, 7.98623 9.44462, 7.77841 10.2564, 7.55227 11.0751, 7.26601 11.8864, 6.92022 12.689, 6.57442 13.4923, 6.11469 14.2629, 5.54218 15.0014, 5.34753 15.2522, 5.13169 15.5001, 4.89582 15.7439, 4.65995 15.9884, 4.4069 16.2065, 4.13667 16.3989, 3.86645 16.5913, 3.58477 16.7487, 3.29222 16.8701, 2.99967 16.9926, 2.6928 17.0533, 2.3722 17.0533, 2.0453 17.0533, 1.76362 16.9909, 1.52775 16.8655, 1.29187 16.7407, 1.0892 16.5792, 0.919168 16.3806, 0.749705 16.1825, 0.609441 15.9609, 0.499519 15.7165, 0.389597 15.4726, 0.299713 15.2218, 0.230439 14.9648, 0.0735714 14.3974, -0.00543487 13.8112, -0.00543487 13.206, -0.00543487 13.0114, 0.00716031 12.819, 0.0323508 12.6289, 0.0827316 11.8354, 0.217844 11.0328, 0.437688 10.2198, 0.645509 9.40226, 0.925466 8.5933, 1.27756 7.79293, 1.63023 6.99314, 2.09854 6.22025, 2.68364 5.47484, 2.87887 5.22523, 3.09299 4.97618, 3.32543 4.72886, 3.55787 4.48154, 3.80633 4.26169, 4.07026 4.06933, 4.33476 3.87697, 4.613 3.7201, 4.90555 3.59758, 5.19811 3.47564, 5.50783 3.41438, 5.83474 3.41381, 6.16221 3.41438, 6.44217 3.47735, 6.67461 3.60216, 6.90705 3.72754, 7.11315 3.88784, 7.29235 4.08307, 7.47211 4.27887, 7.61352 4.50157, 7.71715 4.75176, 7.82135 5.00252, 7.90779 5.25271, 7.9765 5.50232 Z M 6.70266 5.71301 C 6.67747 5.47541, 6.64598 5.25271, 6.6082 5.04489, 6.57041 4.83764, 6.51545 4.6573, 6.44332 4.50444, 6.37118 4.35215, 6.27843 4.23421, 6.16508 4.15177, 6.05172 4.06933, 5.90745 4.02811, 5.73111 4.02754, 5.36642 4.02811, 5.02979 4.19757, 4.72178 4.5365, 4.41377 4.87542, 4.11492 5.28019, 3.82523 5.74965, 3.41016 6.42177, 3.08955 7.11222, 2.86284 7.82041, 2.63613 8.52918, 2.44147 9.21276, 2.27773 9.87172 L 6.11756 9.87172 C 6.28759 9.18241, 6.44503 8.47994, 6.5893 7.76488, 6.69007 7.28283, 6.74045 6.8065, 6.74045 6.3359, 6.74045 6.12865, 6.72785 5.9214, 6.70266 5.71301 Z M 2.07965 10.6137 C 1.91018 11.3041, 1.7619 12.0003, 1.63595 12.7022, 1.53576 13.2094, 1.48538 13.7167, 1.48538 14.2228, 1.48538 14.4129, 1.49168 14.5961, 1.50427 14.7724, 1.51687 15.0111, 1.54549 15.2344, 1.589 15.4417, 1.63309 15.6495, 1.69148 15.8281, 1.76362 15.9775, 1.83576 16.1275, 1.93194 16.2432, 2.05159 16.3256, 2.17125 16.4081, 2.31609 16.4493, 2.48555 16.4487, 2.84395 16.4493, 3.17886 16.2815, 3.49031 15.9455, 3.80175 15.61, 4.09545 15.2064, 4.37255 14.7358, 4.78762 14.0522, 5.10822 13.3594, 5.33494 12.657, 5.56165 11.9551, 5.7563 11.2738, 5.91947 10.6137 Z" stroke="none" fill="#000000" />
			<rect />
		</svg>
	</g>
	<g transform="matrix(1 0 -0 1 190.193 142.368)">
		<svg width="32.9738617" height="32.9571342">
			<defs />
			<path d="M 9.12638 9.8992 C 9.05768 10.1746, 8.91741 10.3807, 8.70673 10.5181, 8.49605 10.6555, 8.28422 10.7242, 8.0701 10.7236, 7.85026 10.7242, 7.66762 10.6538, 7.52278 10.5129, 7.41629 10.4099, 7.35961 10.2753, 7.35274 10.1099, 7.35274 10.0435, 7.36534 9.95759, 7.39053 9.8534, 7.4598 9.6221, 7.56686 9.44634, 7.71114 9.32726, 7.85598 9.20818, 7.95674 9.13948, 8.01342 9.12058, 7.89434 9.02955, 7.64873 8.98375, 7.27717 8.98318, 6.95027 8.98375, 6.65772 9.15322, 6.40009 9.49214, 6.14246 9.83107, 5.9501 10.2387, 5.82414 10.7144 L 4.95622 14.0671 C 4.86805 14.4037, 4.80221 14.7243, 4.75813 15.0289, 4.73294 15.1331, 4.72034 15.2247, 4.72034 15.3037, 4.72034 15.4938, 4.75183 15.6735, 4.81481 15.8441, 4.87778 16.0279, 4.97225 16.1745, 5.0982 16.2844, 5.22415 16.3943, 5.38446 16.4493, 5.57911 16.4487, 5.83101 16.4493, 6.07318 16.384, 6.30562 16.2523, 6.53864 16.1212, 6.75275 15.9443, 6.94741 15.721, 7.14206 15.4983, 7.31496 15.239, 7.4661 14.9424, 7.61724 14.6464, 7.73633 14.3424, 7.82449 14.0304, 7.86228 13.8724, 7.96934 13.7928, 8.1451 13.7923 L 8.36208 13.7923 C 8.52582 13.7928, 8.60769 13.8541, 8.60769 13.9755, 8.60769 14.0127, 8.59853 14.0465, 8.57963 14.0762, 8.49147 14.4432, 8.34834 14.805, 8.15025 15.1623, 7.95216 15.5195, 7.72144 15.8356, 7.45694 16.1104, 7.19244 16.3852, 6.89245 16.6113, 6.55581 16.7876, 6.21917 16.9651, 5.85907 17.0533, 5.47548 17.0533, 5.08561 17.0533, 4.74897 16.9697, 4.46615 16.8014, 4.18333 16.6342, 3.95318 16.4155, 3.77685 16.1464, 3.72074 16.08, 3.67666 16.0113, 3.64517 15.9409, 3.61368 15.871, 3.60395 15.8602, 3.61655 15.9083, 3.46598 16.159, 3.22724 16.4126, 2.89976 16.6691, 2.57286 16.9256, 2.19558 17.0533, 1.76734 17.0533, 1.5286 17.0533, 1.29273 17.0229, 1.05972 16.9617, 0.827278 16.901, 0.624037 16.8065, 0.451139 16.6783, 0.278241 16.55, 0.147709 16.3943, 0.0595425 16.2105, 0.0160317 16.1012, -0.00572362 15.9821, -0.00629613 15.8533, -0.00572362 15.7623, 0.00687159 15.6552, 0.0314895 15.5327, 0.100763 15.2585, 0.242173 15.0524, 0.456292 14.915, 0.67041 14.7776, 0.883956 14.7089, 1.0975 14.7083, 1.31792 14.7089, 1.50685 14.7793, 1.66371 14.919, 1.77077 15.0232, 1.82402 15.1577, 1.82402 15.322, 1.82402 15.4079, 1.81142 15.4938, 1.78623 15.5785, 1.73013 15.7926, 1.62765 15.9655, 1.47994 16.0966, 1.33223 16.2283, 1.22632 16.2999, 1.16334 16.3113, 1.283 16.4098, 1.52517 16.4556, 1.88986 16.4487, 2.21733 16.4493, 2.51275 16.2787, 2.77667 15.9363, 3.04117 15.5945, 3.23296 15.1852, 3.35262 14.7083 L 4.2297 11.3373 C 4.31787 11.0202, 4.38714 10.7087, 4.43752 10.403, 4.45012 10.3057, 4.45642 10.2141, 4.45642 10.1282, 4.45642 9.93927, 4.42836 9.76237, 4.37111 9.59691, 4.30871 9.41428, 4.21138 9.26657, 4.07913 9.15322, 3.94688 9.04043, 3.78315 8.98375, 3.58849 8.98318, 3.33659 8.98375, 3.0927 9.04959, 2.85682 9.1807, 2.62095 9.31237, 2.40569 9.48756, 2.21103 9.70741, 2.01638 9.92725, 1.84348 10.1826, 1.69234 10.4723, 1.5412 10.7625, 1.43128 11.0694, 1.36143 11.3923, 1.29273 11.5578, 1.17651 11.6431, 1.01277 11.6488 L 0.80495 11.6488 C 0.65438 11.6494, 0.578809 11.5732, 0.578809 11.4198 L 0.578809 11.3557 C 0.673273 10.9778, 0.818118 10.6097, 1.01277 10.2524, 1.20742 9.89519, 1.44044 9.57916, 1.71066 9.30436, 1.98146 9.02955, 2.28374 8.80513, 2.61694 8.63109, 2.95014 8.45704, 3.31197 8.37002, 3.70128 8.36945, 4.07913 8.37002, 4.41233 8.45246, 4.70145 8.61735, 4.99114 8.78223, 5.22702 9.00207, 5.40907 9.27631, 5.44686 9.34386, 5.48178 9.416, 5.51327 9.49214, 5.54476 9.56886, 5.55392 9.58832, 5.54132 9.55111, 5.69876 9.28318, 5.94094 9.01925, 6.26784 8.75933, 6.59531 8.49998, 6.96916 8.37002, 7.39053 8.36945, 7.62984 8.37002, 7.86686 8.39922, 8.10273 8.45704, 8.3386 8.51544, 8.54356 8.60819, 8.71646 8.73643, 8.88936 8.86467, 9.01703 9.02326, 9.09833 9.21218, 9.14241 9.32268, 9.16416 9.44806, 9.16416 9.58775, 9.16416 9.67992, 9.15157 9.78355, 9.12638 9.8992 Z" stroke="none" fill="#000000" />
			<rect />
		</svg>
	</g>
	<path d="M -52.8611 82.3564 L 52.861 -82.3561" fill="none" stroke="#000000" stroke-width="2.66666675" stroke-linecap="round" stroke-linejoin="round" marker-end="url(#CustomMarker-03)" transform="matrix(0.5 0 0 0.5 168.348 103.012)" />
	<path d="M 0 -82.3561 L 0 82.3564" fill="none" stroke="#000000" stroke-width="2.66666675" stroke-linecap="round" stroke-linejoin="round" stroke-dasharray="9.34667, 6.65333" transform="matrix(0.5 0 0 0.5 194.778 103.012)" />
	<path d="M 63.6928 -222.591 L 73.5123 -219.544 C 111.639 -206.778, 145.845 -184.279, 172.703 -154.199" fill="none" stroke="#000000" stroke-width="2.66666675" stroke-linecap="round" stroke-linejoin="round" marker-start="url(#CustomMarker-04)" transform="matrix(0.5 0 -0 0.5 141.917 144.19)" />
</svg>
