<?xml version="1.0"?>
<svg xmlns="http://www.w3.org/2000/svg" xmlns:xlink="http://www.w3.org/1999/xlink" width="283.834045" height="288.380219">
	<defs>
		<marker id="CustomMarker-01" markerUnits="strokeWidth" markerWidth="9" markerHeight="6" viewBox="-9 -3 9 6" orient="auto-start-reverse">
			<path d="M 0 -0 L -6 -2, -6 -0.5, -6 0.5, -6 2 Z" fill="#C2C2C2" stroke="#C2C2C2" stroke-linejoin="round" />
		</marker>
		<marker id="CustomMarker-02" markerUnits="strokeWidth" markerWidth="15.000001" markerHeight="9" viewBox="-15 -4.5 15 9" orient="auto-start-reverse">
			<path d="M 0 -0 L -10 -3, -8 -0.5, -8 0.5, -10 3 Z" fill="#000000" stroke="#000000" stroke-linejoin="round" />
		</marker>
		<marker id="CustomMarker-03" markerUnits="strokeWidth" markerWidth="15.000001" markerHeight="9" viewBox="-15 -4.5 15 9" orient="auto-start-reverse">
			<path d="M 0 -0 L -10 -3, -8 -0.5, -8 0.5, -10 3 Z" fill="#000000" stroke="#000000" stroke-linejoin="round" />
		</marker>
		<marker id="CustomMarker-04" markerUnits="strokeWidth" markerWidth="15.000001" markerHeight="9" viewBox="-15 -4.5 15 9" orient="auto-start-reverse">
			<path d="M 0 -0 L -10 -3, -8 -0.5, -8 0.5, -10 3 Z" fill="#000000" stroke="#000000" stroke-linejoin="round" />
		</marker>
		<marker id="CustomMarker-05" markerUnits="strokeWidth" markerWidth="9" markerHeight="9" viewBox="-9 -4.5 9 9" orient="auto-start-reverse">
			<path d="M 0 -0 L -6 -3, -4.8 -0.5, -4.8 0.5, -6 3 Z" fill="#000000" stroke="#000000" stroke-linejoin="round" />
		</marker>
		<marker id="CustomMarker-06" markerUnits="strokeWidth" markerWidth="15.000001" markerHeight="9" viewBox="-15 -4.5 15 9" orient="auto-start-reverse">
			<path d="M 0 -0 L -10 -3, -8 -0.5, -8 0.5, -10 3 Z" fill="#000000" stroke="#000000" stroke-linejoin="round" />
		</marker>
		<marker id="CustomMarker-07" markerUnits="strokeWidth" markerWidth="9" markerHeight="9" viewBox="-9 -4.5 9 9" orient="auto-start-reverse">
			<path d="M 0 -0 L -6 -3, -4.8 -0.5, -4.8 0.5, -6 3 Z" fill="#000000" stroke="#000000" stroke-linejoin="round" />
		</marker>
	</defs>
	<path d="M -74.0293 -133.477 L -43.6913 -146.278 C 23.5351 -166.428, 98.0426 -137.919, 133.477 -74.0293, 174.362 -0.311968, 147.747 92.5918, 74.0293 133.477, 28.7439 158.593, -26.1874 159.035, -71.8712 134.651" fill="none" stroke="#C2C2C2" stroke-width="6.66666651" stroke-linecap="round" stroke-linejoin="round" marker-start="url(#CustomMarker-01)" transform="matrix(0.5 0 -0 0.5 141.917 144.19)" />
	<path d="M -266.834 0 L 266.834 0" fill="none" stroke="#000000" stroke-width="2.66666675" stroke-linecap="round" stroke-linejoin="round" marker-end="url(#CustomMarker-02)" transform="matrix(0.5 0 -0 0.5 141.917 144.19)" />
	<path d="M 0 271.38 L 0 -271.38" fill="none" stroke="#000000" stroke-width="2.66666675" stroke-linecap="round" stroke-linejoin="round" marker-end="url(#CustomMarker-03)" transform="matrix(0.5 0 -0 0.5 141.917 144.19)" />
	<path d="M 195.723 -0 C 195.723 108.095, 108.095 195.723, -0 195.723, -108.095 195.723, -195.723 108.095, -195.723 -0, -195.723 -108.095, -108.095 -195.723, -0 -195.723, 108.095 -195.723, 195.723 -108.095, 195.723 -0 Z" fill="none" stroke="#000000" stroke-width="2.66666675" stroke-linecap="round" stroke-linejoin="round" transform="matrix(0.5 0 0 0.5 141.917 144.19)" />
	<g transform="matrix(1 0 -0 1 111.201 126.815)">
		<svg width="27.0562763" height="38.9999886">
			<defs />
			<path d="M 6.52075 14.3717 L 0.0698506 14.3717, 0.0698506 13.9485 C 0.0698506 13.9182, 0.0857206 13.872, 0.117461 13.81 L 2.70907 10.9938 C 3.01541 10.6557, 3.3256 10.3094, 3.64011 9.95547, 3.95463 9.60153, 4.23644 9.23988, 4.48459 8.87055, 4.73274 8.50121, 4.93087 8.12033, 5.07899 7.72791, 5.22711 7.33549, 5.30069 6.92383, 5.30069 6.49245, 5.30069 6.12889, 5.25308 5.78889, 5.15786 5.47341, 5.06264 5.15793, 4.92558 4.88093, 4.74572 4.6424, 4.56634 4.40387, 4.34176 4.21151, 4.07245 4.06531, 3.80314 3.91911, 3.49103 3.84602, 3.13708 3.84554, 2.60905 3.84602, 2.14257 4.00375, 1.73812 4.31923, 1.33416 4.63471, 1.06581 4.9824, 0.933562 5.36136, 0.907593 5.37194, 0.949913 5.37723, 1.06052 5.37675 L 1.19518 5.37675 C 1.35388 5.4133, 1.49093 5.4686, 1.60731 5.54266, 1.72369 5.6172, 1.82132 5.71964, 1.90067 5.85044, 1.98002 5.98125, 2.01945 6.13899, 2.01945 6.32317, 2.01945 6.63144, 1.91942 6.86756, 1.7184 7.03155, 1.51738 7.19602, 1.2928 7.27778, 1.04465 7.2773, 0.807083 7.27778, 0.584903 7.19602, 0.379075 7.03155, 0.173246 6.86756, 0.0698506 6.63144, 0.0698506 6.32317, 0.0698506 5.89276, 0.15449 5.48495, 0.32377 5.10022, 0.49305 4.7155, 0.722443 4.38223, 1.01291 4.09994, 1.30338 3.81812, 1.64675 3.59498, 2.04302 3.43051, 2.43929 3.26652, 2.8596 3.18429, 3.30348 3.18381, 3.85316 3.18429, 4.35667 3.26508, 4.81353 3.42666, 5.27039 3.58825, 5.65993 3.82053, 5.98214 4.12302, 6.30434 4.42599, 6.55682 4.77609, 6.73909 5.17332, 6.92135 5.57103, 7.01224 6.01058, 7.01224 6.49245, 7.01224 7.02626, 6.89105 7.51775, 6.64771 7.96644, 6.40485 8.41561, 6.10381 8.82726, 5.74457 9.20141, 5.38533 9.57604, 5.00349 9.92854, 4.59904 10.2594, 4.19508 10.5903, 3.82911 10.912, 3.50161 11.2246 L 1.67849 12.9405, 4.06427 12.9405 C 4.39706 12.941, 4.70773 12.9385, 4.99531 12.9333, 5.28338 12.9284, 5.52768 12.9179, 5.7287 12.9025, 5.92972 12.8871, 6.03263 12.877, 6.03744 12.8712, 6.07976 12.8356, 6.11968 12.764, 6.15671 12.6563, 6.19374 12.5485, 6.22788 12.4216, 6.25962 12.2754, 6.29136 12.1292, 6.3231 11.9806, 6.35484 11.8291, 6.38658 11.6781, 6.41543 11.5122, 6.44188 11.3323 L 7.02811 11.3323 Z" stroke="none" fill="#000000" />
			<rect />
		</svg>
	</g>
	<path d="M 46.6389 86.0329 L -46.6389 -86.0329" fill="none" stroke="#000000" stroke-width="2.66666675" stroke-linecap="round" stroke-linejoin="round" marker-end="url(#CustomMarker-04)" transform="matrix(0.5 0 0 0.5 118.598 101.174)" />
	<path d="M 0 -172.066 L 0 172.066" fill="none" stroke="#000000" stroke-width="2.66666675" stroke-linecap="round" stroke-linejoin="round" stroke-dasharray="9.34667, 6.65333" transform="matrix(0.5 0 0 0.5 95.2782 144.19)" />
	<path d="M -161.951 -165.456 L -154.443 -172.485 C -123.494 -200.197, -85.6049 -219.116, -44.7213 -227.164" fill="none" stroke="#000000" stroke-width="2.66666675" stroke-linecap="round" stroke-linejoin="round" marker-start="url(#CustomMarker-05)" transform="matrix(0.5 0 -0 0.5 141.917 144.19)" />
	<path d="M 46.6389 -86.033 L -46.6389 86.0332" fill="none" stroke="#000000" stroke-width="2.66666675" stroke-linecap="round" stroke-linejoin="round" marker-end="url(#CustomMarker-06)" transform="matrix(0.5 0 0 0.5 118.598 187.207)" />
	<path d="M -161.951 -165.456 C -132.173 -194.603, -95.1293 -215.128, -54.7661 -224.954 L -44.7212 -227.164" fill="none" stroke="#000000" stroke-width="2.66666675" stroke-linecap="round" stroke-linejoin="round" marker-end="url(#CustomMarker-07)" transform="matrix(0.5 -1.50996e-007 -1.50996e-007 -0.5 141.917 144.19)" />
	<g transform="matrix(1 0 -0 1 119.806 82.691)">
		<svg width="27.0562763" height="38.9999886">
			<defs />
			<path d="M 6.07145 11.6324 L 6.07145 13.1944 C 6.07145 13.2872, 6.08876 13.3733, 6.1229 13.4526, 6.15753 13.5325, 6.21428 13.5849, 6.29315 13.6099, 6.4153 13.6666, 6.61343 13.6979, 6.88803 13.7027, 7.16263 13.708, 7.44011 13.7104, 7.72 13.7099 L 7.72 14.3717 C 6.91159 14.3409, 6.11906 14.3255, 5.34239 14.3255, 4.5763 14.3255, 3.7703 14.3409, 2.92486 14.3717 L 2.92486 13.7099 C 3.21581 13.7104, 3.49618 13.708, 3.76549 13.7027, 4.0348 13.6979, 4.23582 13.6666, 4.36759 13.6099, 4.44694 13.5849, 4.50513 13.5325, 4.54216 13.4526, 4.57919 13.3733, 4.59746 13.2872, 4.59746 13.1944 L 4.59746 11.6324, 0.079812 11.6324, 0.079812 11.0091, 5.37413 3.13764 C 5.4429 3.04578, 5.52994 2.99962, 5.63574 2.99914 L 5.80983 2.99914 C 5.9844 2.99962, 6.07145 3.08666, 6.07145 3.26075 L 6.07145 10.9553, 7.7753 10.9553, 7.7753 11.6324 Z M 4.67681 5.1613 L 0.777129 10.9553, 4.67681 10.9553 Z" stroke="none" fill="#000000" />
			<rect />
		</svg>
	</g>
	<g transform="matrix(1 0 -0 1 119.806 184.614)">
		<svg width="27.0562763" height="38.9999886">
			<defs />
			<path d="M 6.07145 11.6324 L 6.07145 13.1944 C 6.07145 13.2872, 6.08876 13.3733, 6.1229 13.4526, 6.15753 13.5325, 6.21428 13.5849, 6.29315 13.6099, 6.4153 13.6666, 6.61343 13.6979, 6.88803 13.7027, 7.16263 13.708, 7.44011 13.7104, 7.72 13.7099 L 7.72 14.3717 C 6.91159 14.3409, 6.11906 14.3255, 5.34239 14.3255, 4.5763 14.3255, 3.7703 14.3409, 2.92486 14.3717 L 2.92486 13.7099 C 3.21581 13.7104, 3.49618 13.708, 3.76549 13.7027, 4.0348 13.6979, 4.23582 13.6666, 4.36759 13.6099, 4.44694 13.5849, 4.50513 13.5325, 4.54216 13.4526, 4.57919 13.3733, 4.59746 13.2872, 4.59746 13.1944 L 4.59746 11.6324, 0.079812 11.6324, 0.079812 11.0091, 5.37413 3.13764 C 5.4429 3.04578, 5.52994 2.99962, 5.63574 2.99914 L 5.80983 2.99914 C 5.9844 2.99962, 6.07145 3.08666, 6.07145 3.26075 L 6.07145 10.9553, 7.7753 10.9553, 7.7753 11.6324 Z M 4.67681 5.1613 L 0.777129 10.9553, 4.67681 10.9553 Z" stroke="none" fill="#000000" />
			<rect />
		</svg>
	</g>
</svg>
