<?xml version="1.0"?>
<svg xmlns="http://www.w3.org/2000/svg" xmlns:xlink="http://www.w3.org/1999/xlink" width="282.546143" height="213.591553">
	<defs>
		<marker id="CustomMarker-01" markerUnits="strokeWidth" markerWidth="15.000001" markerHeight="9" viewBox="-15 -4.5 15 9" orient="auto-start-reverse">
			<path d="M 0 -0 L -10 -3, -8 -0.5, -8 0.5, -10 3 Z" fill="#000000" stroke="#000000" stroke-linejoin="round" />
		</marker>
		<marker id="CustomMarker-02" markerUnits="strokeWidth" markerWidth="15.000001" markerHeight="9" viewBox="-15 -4.5 15 9" orient="auto-start-reverse">
			<path d="M 0 -0 L -10 -3, -8 -0.5, -8 0.5, -10 3 Z" fill="#000000" stroke="#000000" stroke-linejoin="round" />
		</marker>
		<marker id="CustomMarker-03" markerUnits="strokeWidth" markerWidth="15.000001" markerHeight="9" viewBox="-15 -4.5 15 9" orient="auto-start-reverse">
			<path d="M 0 -0 L -10 -3, -8 -0.5, -8 0.5, -10 3 Z" fill="#000000" stroke="#000000" stroke-linejoin="round" />
		</marker>
	</defs>
	<g transform="matrix(1 0 -0 1 63.1634 8.99999)">
		<svg width="98.9678192" height="62.9142723">
			<defs />
			<path d="M 8.32133 5.71301 C 8.27724 5.88476, 8.15473 6.01586, 7.9532 6.10746, 7.75225 6.19907, 7.53985 6.25746, 7.31657 6.28151, 7.09329 6.30612, 6.87459 6.31815, 6.66048 6.31758 L 6.21735 6.31758 C 5.79599 6.31815, 5.46851 6.19277, 5.23607 5.94201, 4.821 6.13208, 4.43742 6.43723, 4.08475 6.8586, 3.73266 7.27996, 3.49049 7.74427, 3.35824 8.25037, 3.29526 8.4954, 3.26091 8.73357, 3.25462 8.96486, 3.25462 9.14234, 3.28324 9.31352, 3.33935 9.47783, 3.42122 9.85111, 3.57866 10.1471, 3.81109 10.3664, 4.24506 10.2204, 4.70421 10.1471, 5.18855 10.1465 L 5.64141 10.1465 C 5.85553 10.1471, 6.06507 10.1608, 6.26945 10.1883, 6.47384 10.2158, 6.65132 10.269, 6.80189 10.348, 6.94673 10.4282, 7.0223 10.541, 7.0286 10.687, 7.0286 10.7179, 7.0223 10.7608, 7.00971 10.8152, 6.9662 10.9927, 6.84368 11.1261, 6.64216 11.2143, 6.44063 11.303, 6.23167 11.3597, 6.01469 11.3837, 5.7977 11.4083, 5.57557 11.4204, 5.34886 11.4198 L 4.90573 11.4198 C 4.62921 11.4204, 4.36357 11.3992, 4.1088 11.3562, 3.85403 11.3139, 3.61988 11.2583, 3.40576 11.1908, 2.89622 11.4478, 2.44051 11.8142, 2.03746 12.2906, 1.63499 12.7669, 1.35846 13.2919, 1.20732 13.8655, 1.16954 14.0127, 1.15064 14.1501, 1.15064 14.2778, 1.15064 14.5898, 1.25484 14.8583, 1.46209 15.0838, 1.74491 15.4325, 2.12563 15.6981, 2.60367 15.8808 L 6.03759 17.1724 C 6.35876 17.2886, 6.60093 17.4598, 6.76467 17.6853, 6.92841 17.9115, 7.0223 18.1617, 7.04749 18.4365 L 7.04749 18.5739 C 7.04749 18.788, 7.00684 19.0015, 6.92498 19.2151, 6.82421 19.4899, 6.67822 19.7389, 6.48643 19.9616, 6.29464 20.1849, 6.06335 20.3647, 5.79255 20.5021, 5.52233 20.6395, 5.23264 20.7082, 4.92463 20.7082, 4.49696 20.7082, 4.1088 20.6349, 3.75957 20.4883, 3.41034 20.3418, 3.09145 20.1586, 2.80176 19.9387, 2.74565 19.9021, 2.71073 19.8443, 2.69814 19.7647 L 2.69814 19.7097 C 2.71703 19.6364, 2.75653 19.5712, 2.81607 19.5128, 2.87561 19.455, 2.94947 19.4166, 3.03763 19.3983 L 3.08458 19.3983 C 3.14183 19.3983, 3.20137 19.4166, 3.26378 19.4532, 3.51568 19.649, 3.78819 19.8048, 4.08017 19.9204, 4.37273 20.0366, 4.69219 20.0944, 5.03798 20.0944, 5.18283 20.0944, 5.32424 20.0303, 5.46279 19.9021, 5.60133 19.7738, 5.69866 19.6244, 5.75477 19.4532, 5.76736 19.3863, 5.77366 19.3101, 5.77366 19.2242, 5.77366 19.1269, 5.7582 19.0227, 5.72671 18.9128, 5.65744 18.7542, 5.4937 18.6231, 5.23607 18.5189 L 1.943 17.2823 C 1.62869 17.1724, 1.33614 17.0201, 1.06591 16.8243, 0.795686 16.6296, 0.568973 16.3989, 0.386342 16.1333, 0.204284 15.8676, 0.0874919 15.5728, 0.037111 15.2487, 0.0119206 15.1331, -0.000674665 15.0083, -0.000674665 14.8732, -0.000674665 14.6659, 0.0245157 14.4495, 0.0748966 14.2228, 0.263825 13.4906, 0.605613 12.8253, 1.09912 12.2264, 1.59262 11.6282, 2.12906 11.173, 2.7073 10.861, 2.30482 10.6417, 1.98422 10.3, 1.74491 9.83508, 1.59434 9.55455, 1.5222 9.24654, 1.52793 8.9099, 1.52793 8.69063, 1.55941 8.45876, 1.62239 8.21373, 1.71685 7.8416, 1.86914 7.49695, 2.07983 7.1792, 2.29051 6.86203, 2.54413 6.58093, 2.83955 6.33647, 3.13496 6.09258, 3.46244 5.88018, 3.82083 5.69984, 4.17922 5.52007, 4.52501 5.38667, 4.85822 5.3008, 4.80211 5.13019, 4.77348 4.91378, 4.77348 4.65043, 4.77348 4.40654, 4.80497 4.15005, 4.86795 3.88097, 4.88684 3.78365, 4.93722 3.71094, 5.01909 3.6617, 5.10096 3.61304, 5.17939 3.58842, 5.25496 3.58785, 5.34313 3.58842, 5.41527 3.6159, 5.47195 3.67029, 5.51603 3.7138, 5.53778 3.77162, 5.53778 3.84433 L 5.53778 3.90845 C 5.47481 4.13517, 5.44332 4.35158, 5.44332 4.55883 L 5.46221 4.57715 C 5.46221 4.8279, 5.48454 5.01454, 5.52862 5.13591, 5.66087 5.11817, 5.8103 5.0987, 5.9769 5.07695, 6.1435 5.05576, 6.32098 5.04489, 6.50933 5.04431 L 6.95303 5.04431 C 7.16715 5.04489, 7.37611 5.05748, 7.5805 5.08153, 7.78546 5.10614, 7.96637 5.16111, 8.12324 5.24584, 8.26808 5.34431, 8.34022 5.45709, 8.34022 5.58476, 8.34022 5.61568, 8.33392 5.65862, 8.32133 5.71301 Z M 7.65149 5.68552 C 7.65149 5.71071, 7.59195 5.70728, 7.47172 5.67636, 7.29596 5.65232, 6.93414 5.6403, 6.38682 5.63972, 6.21106 5.6403, 6.07594 5.65575, 5.98148 5.68552, 6.01927 5.71071, 6.13548 5.72274, 6.33014 5.72217, 6.86486 5.72274, 7.21925 5.709, 7.39214 5.68152, 7.56504 5.65404, 7.65149 5.65575, 7.65149 5.68552 Z M 6.33987 10.7877 C 6.33987 10.8129, 6.28033 10.8095, 6.16068 10.7786, 5.98434 10.7545, 5.62309 10.7425, 5.07577 10.7419, 4.79867 10.7425, 4.61662 10.7545, 4.52845 10.7786, 4.57253 10.7975, 4.73627 10.8066, 5.01909 10.8061, 5.55381 10.8066, 5.90763 10.7963, 6.08052 10.7746, 6.25342 10.7534, 6.33987 10.758, 6.33987 10.7877 Z" stroke="none" fill="#000000" />
			<path d="M 8.88714 21.2028 C 8.84363 21.3253, 8.76176 21.4135, 8.6421 21.4685, 8.56653 21.4994, 8.49726 21.5143, 8.43428 21.5143, 8.39077 21.5143, 8.33696 21.5085, 8.27398 21.496, 8.04784 21.4169, 7.93448 21.2795, 7.93448 21.0837, 7.93448 21.0231, 7.95051 20.9555, 7.98143 20.8822 L 14.6712 2.88251 C 14.7153 2.76114, 14.8 2.66611, 14.926 2.59855, 14.9952 2.5808, 15.0582 2.57164, 15.1143 2.57107, 15.159 2.57164, 15.2157 2.57794, 15.2844 2.58939, 15.5111 2.66954, 15.621 2.80694, 15.6147 3.0016, 15.6147 3.06343, 15.5992 3.13041, 15.5672 3.20312 Z" stroke="none" fill="#000000" />
			<path d="M 31.1122 16.8334 C 30.3325 16.7911, 29.5813 16.7693, 28.8577 16.7693, 28.1346 16.7693, 27.3738 16.7911, 26.5751 16.8334 L 26.5751 16.064 C 26.8579 16.0646, 27.1173 16.06, 27.3531 16.0508, 27.589 16.0417, 27.7671 16.0096, 27.8861 15.9541, 27.9617 15.918, 28.0138 15.8539, 28.0419 15.7623, 28.0705 15.6707, 28.0842 15.5762, 28.0842 15.4777 L 28.0842 11.0076 C 28.0842 10.703, 28.0653 10.4145, 28.0276 10.1425, 27.9898 9.87114, 27.8959 9.61866, 27.7447 9.38623, 27.6566 9.24024, 27.5295 9.13375, 27.3629 9.06619, 27.1963 8.99921, 27.0091 8.96543, 26.8012 8.96486, 26.4428 8.96543, 26.1096 9.04043, 25.8016 9.18985, 25.4936 9.33985, 25.228 9.54138, 25.0047 9.79443, 24.7814 10.048, 24.6039 10.3458, 24.4717 10.6875, 24.34 11.0299, 24.2736 11.3866, 24.2736 11.7587 L 24.2736 15.4777 C 24.2736 15.5819, 24.2862 15.6787, 24.3114 15.7668, 24.3366 15.8556, 24.3898 15.918, 24.4717 15.9541, 24.5914 16.0096, 24.7688 16.0417, 25.0047 16.0508, 25.2406 16.06, 25.4999 16.0646, 25.7827 16.064 L 25.7827 16.8334 C 24.9841 16.7911, 24.2232 16.7693, 23.4996 16.7693, 22.7645 16.7693, 22.0128 16.7911, 21.2456 16.8334 L 21.2456 16.064 C 21.5284 16.0646, 21.7878 16.06, 22.0236 16.0508, 22.2595 16.0417, 22.4376 16.0096, 22.5567 15.9541, 22.6259 15.918, 22.6729 15.8556, 22.6981 15.7668, 22.7233 15.6787, 22.7358 15.5819, 22.7358 15.4777 L 22.7358 11.0076 C 22.7358 10.703, 22.7187 10.4145, 22.6843 10.1425, 22.65 9.87114, 22.5567 9.61866, 22.4055 9.38623, 22.3116 9.24024, 22.1811 9.13375, 22.0145 9.06619, 21.8479 8.99921, 21.6607 8.96543, 21.4529 8.96486, 21.0945 8.96543, 20.7601 9.04043, 20.4487 9.18985, 20.1372 9.33985, 19.8716 9.54138, 19.6512 9.79443, 19.4313 10.048, 19.255 10.3458, 19.1227 10.6875, 18.9911 11.0299, 18.9247 11.3866, 18.9247 11.7587 L 18.9247 15.4777 C 18.9247 15.5819, 18.9372 15.6787, 18.9624 15.7668, 18.9876 15.8556, 19.038 15.918, 19.1136 15.9541, 19.2332 16.0096, 19.4124 16.0417, 19.6512 16.0508, 19.8905 16.06, 20.1481 16.0646, 20.4246 16.064 L 20.4246 16.8243 C 20.104 16.8123, 19.8086 16.8031, 19.5384 16.7968, 19.2682 16.7911, 19.0037 16.7819, 18.7455 16.7693 L 18.1512 16.7693 C 17.4155 16.7693, 16.6638 16.7911, 15.8966 16.8334 L 15.8966 16.064 C 16.18 16.0646, 16.4394 16.06, 16.6753 16.0508, 16.9111 16.0417, 17.0892 16.0096, 17.2083 15.9541, 17.2838 15.918, 17.3336 15.8556, 17.3588 15.7668, 17.384 15.6787, 17.3966 15.5819, 17.3966 15.4777 L 17.3966 10.2748 C 17.3966 10.1042, 17.3892 9.949, 17.3731 9.80817, 17.3577 9.6679, 17.2964 9.55454, 17.1894 9.46867, 17.0829 9.39596, 16.91 9.35359, 16.6707 9.341, 16.4314 9.32897, 16.1737 9.32268, 15.8966 9.3221 L 15.8966 8.56181, 17.5191 8.44273, 18.821 8.34197, 18.821 9.91751 C 18.9407 9.63698, 19.2504 9.30607, 19.7502 8.92421, 20.2506 8.54292, 20.8368 8.3517, 21.5095 8.35113, 21.8622 8.3517, 22.2252 8.39292, 22.599 8.47536, 22.9734 8.5578, 23.3021 8.73643, 23.5849 9.01066, 23.7738 9.19444, 23.9169 9.39481, 24.0143 9.61122, 24.1116 9.8282, 24.1603 9.94557, 24.1603 9.96332, 24.3303 9.59748, 24.6606 9.23737, 25.1507 8.88299, 25.6413 8.52918, 26.2075 8.3517, 26.8488 8.35113, 27.2009 8.3517, 27.5673 8.39292, 27.9474 8.47536, 28.3281 8.5578, 28.6602 8.73643, 28.943 9.01123, 29.2258 9.28604, 29.4102 9.60206, 29.4949 9.95931, 29.5796 10.3166, 29.622 10.6664, 29.622 11.0076 L 29.622 15.4777 C 29.622 15.5819, 29.6346 15.6787, 29.6598 15.7668, 29.685 15.8556, 29.7388 15.918, 29.8201 15.9541, 29.9397 16.0096, 30.1172 16.0417, 30.3531 16.0508, 30.589 16.06, 30.842 16.0646, 31.1122 16.064 L 31.1122 16.8334 Z" stroke="none" fill="#000000" />
			<rect />
		</svg>
	</g>
	<g transform="matrix(1 0 -0 1 240.012 86.1616)">
		<svg width="102.055252" height="62.9142723">
			<defs />
			<path d="M 9.12856 9.8992 C 9.05986 10.1746, 8.9196 10.3807, 8.70891 10.5181, 8.49823 10.6555, 8.2864 10.7242, 8.07228 10.7236, 7.85244 10.7242, 7.66981 10.6538, 7.52497 10.5129, 7.41848 10.4099, 7.3618 10.2753, 7.35493 10.1099, 7.35493 10.0435, 7.36753 9.95759, 7.39272 9.8534, 7.46256 9.6221, 7.56962 9.44634, 7.71389 9.32726, 7.85874 9.20818, 7.9595 9.13948, 8.01561 9.12058, 7.89652 9.02955, 7.65092 8.98375, 7.27993 8.98318, 6.95303 8.98375, 6.66048 9.15322, 6.40285 9.49214, 6.14522 9.83107, 5.95285 10.2387, 5.8269 10.7144 L 4.95898 14.0671 C 4.87138 14.4037, 4.80554 14.7243, 4.76089 15.0289, 4.73627 15.1331, 4.72367 15.2247, 4.72367 15.3037, 4.72367 15.4938, 4.75516 15.6735, 4.81757 15.8441, 4.88054 16.0279, 4.97501 16.1745, 5.10096 16.2844, 5.22691 16.3943, 5.38721 16.4493, 5.58187 16.4487, 5.83377 16.4493, 6.07594 16.384, 6.30838 16.2523, 6.54082 16.1212, 6.75494 15.9443, 6.94959 15.721, 7.14482 15.4983, 7.31772 15.239, 7.46886 14.9424, 7.62 14.6464, 7.73908 14.3424, 7.82668 14.0304, 7.86446 13.8724, 7.97152 13.7928, 8.14785 13.7923 L 8.36426 13.7923 C 8.528 13.7928, 8.60987 13.8541, 8.60987 13.9755, 8.60987 14.0127, 8.60071 14.0465, 8.58125 14.0762, 8.49365 14.4432, 8.35052 14.805, 8.15244 15.1623, 7.95435 15.5195, 7.72363 15.8356, 7.45913 16.1104, 7.1952 16.3852, 6.8952 16.6113, 6.55857 16.7876, 6.22193 16.9651, 5.86182 17.0533, 5.47824 17.0533, 5.08836 17.0533, 4.75173 16.9697, 4.46891 16.8014, 4.18609 16.6342, 3.95651 16.4155, 3.78018 16.1464, 3.72407 16.08, 3.67999 16.0113, 3.6485 15.9409, 3.61701 15.871, 3.60728 15.8602, 3.61988 15.9083, 3.46873 16.159, 3.23 16.4126, 2.90309 16.6691, 2.57619 16.9256, 2.19891 17.0533, 1.77067 17.0533, 1.53193 17.0533, 1.29606 17.0229, 1.06362 16.9617, 0.831181 16.901, 0.627941 16.8065, 0.455043 16.6783, 0.282145 16.55, 0.151612 16.3943, 0.0634459 16.2105, 0.0199352 16.1012, -0.0018202 15.9821, -0.00239271 15.8533, -0.0018202 15.7623, 0.010775 15.6552, 0.0353929 15.5327, 0.104667 15.2585, 0.246077 15.0524, 0.459623 14.915, 0.673741 14.7776, 0.887287 14.7089, 1.10141 14.7083, 1.32125 14.7089, 1.51018 14.7793, 1.66705 14.919, 1.77411 15.0232, 1.82735 15.1577, 1.82735 15.322, 1.82735 15.4079, 1.81475 15.4938, 1.78956 15.5785, 1.73346 15.7926, 1.63098 15.9655, 1.48327 16.0966, 1.33556 16.2283, 1.23022 16.2999, 1.16724 16.3113, 1.2869 16.4098, 1.52907 16.4556, 1.89376 16.4487, 2.22066 16.4493, 2.51608 16.2787, 2.78 15.9363, 3.0445 15.5945, 3.23629 15.1852, 3.35538 14.7083 L 4.23303 11.3373 C 4.3212 11.0202, 4.3899 10.7087, 4.44028 10.403, 4.45288 10.3057, 4.45918 10.2141, 4.45918 10.1282, 4.45918 9.93927, 4.43112 9.76237, 4.37444 9.59691, 4.31147 9.41428, 4.21414 9.26657, 4.08189 9.15322, 3.95021 9.04043, 3.78648 8.98375, 3.59125 8.98318, 3.33992 8.98375, 3.0966 9.04959, 2.86073 9.1807, 2.62485 9.31237, 2.40959 9.48756, 2.21437 9.70741, 2.01971 9.92725, 1.84681 10.1826, 1.69567 10.4723, 1.54453 10.7625, 1.43461 11.0694, 1.36533 11.3923, 1.29663 11.5578, 1.17984 11.6431, 1.0161 11.6488 L 0.808854 11.6488 C 0.657711 11.6494, 0.58214 11.5732, 0.58214 11.4198 L 0.58214 11.3557 C 0.676604 10.9778, 0.821449 10.6097, 1.0161 10.2524, 1.21133 9.89519, 1.44434 9.57916, 1.71456 9.30436, 1.98479 9.02955, 2.28707 8.80513, 2.62027 8.63109, 2.95348 8.45704, 3.3153 8.37002, 3.70461 8.36945, 4.08246 8.37002, 4.41566 8.45246, 4.70478 8.61735, 4.9939 8.78223, 5.22977 9.00207, 5.41183 9.27631, 5.44962 9.34386, 5.48454 9.416, 5.51603 9.49214, 5.54752 9.56886, 5.55668 9.58832, 5.54408 9.55111, 5.70152 9.28318, 5.94369 9.01925, 6.2706 8.75933, 6.5975 8.49998, 6.97135 8.37002, 7.39272 8.36945, 7.63202 8.37002, 7.86962 8.39922, 8.10549 8.45704, 8.34136 8.51544, 8.54518 8.60819, 8.71807 8.73643, 8.89097 8.86467, 9.01864 9.02326, 9.10051 9.21218, 9.1446 9.32268, 9.16635 9.44806, 9.16635 9.58775, 9.16635 9.67992, 9.15376 9.78355, 9.12856 9.8992 Z" stroke="none" fill="#000000" />
			<path d="M 10.0699 21.2028 C 10.0264 21.3253, 9.94456 21.4135, 9.82491 21.4685, 9.74934 21.4994, 9.68006 21.5143, 9.61709 21.5143, 9.57358 21.5143, 9.51976 21.5085, 9.45679 21.496, 9.23064 21.4169, 9.11729 21.2795, 9.11729 21.0837, 9.11729 21.0231, 9.13332 20.9555, 9.16423 20.8822 L 15.854 2.88251 C 15.8981 2.76114, 15.9828 2.66611, 16.1088 2.59855, 16.178 2.5808, 16.241 2.57164, 16.2971 2.57107, 16.3418 2.57164, 16.3985 2.57794, 16.4672 2.58939, 16.6939 2.66954, 16.8038 2.80694, 16.7975 3.0016, 16.7975 3.06343, 16.782 3.13041, 16.75 3.20312 Z" stroke="none" fill="#000000" />
			<path d="M 32.295 16.8334 C 31.5153 16.7911, 30.7642 16.7693, 30.0405 16.7693, 29.3174 16.7693, 28.5566 16.7911, 27.7579 16.8334 L 27.7579 16.064 C 28.0407 16.0646, 28.3001 16.06, 28.5359 16.0508, 28.7718 16.0417, 28.9499 16.0096, 29.069 15.9541, 29.1445 15.918, 29.1966 15.8539, 29.2247 15.7623, 29.2533 15.6707, 29.267 15.5762, 29.267 15.4777 L 29.267 11.0076 C 29.267 10.703, 29.2481 10.4145, 29.2104 10.1425, 29.1726 9.87114, 29.0787 9.61866, 28.9275 9.38623, 28.8394 9.24024, 28.7123 9.13375, 28.5457 9.06619, 28.3791 8.99921, 28.1919 8.96543, 27.984 8.96486, 27.6257 8.96543, 27.2925 9.04043, 26.9844 9.18985, 26.6764 9.33985, 26.4108 9.54138, 26.1875 9.79443, 25.9642 10.048, 25.7868 10.3458, 25.6545 10.6875, 25.5228 11.0299, 25.4564 11.3866, 25.4564 11.7587 L 25.4564 15.4777 C 25.4564 15.5819, 25.469 15.6787, 25.4942 15.7668, 25.5194 15.8556, 25.5726 15.918, 25.6545 15.9541, 25.7742 16.0096, 25.9516 16.0417, 26.1875 16.0508, 26.4234 16.06, 26.6827 16.0646, 26.9656 16.064 L 26.9656 16.8334 C 26.1669 16.7911, 25.406 16.7693, 24.6824 16.7693, 23.9473 16.7693, 23.1956 16.7911, 22.4284 16.8334 L 22.4284 16.064 C 22.7112 16.0646, 22.9706 16.06, 23.2065 16.0508, 23.4423 16.0417, 23.6204 16.0096, 23.7395 15.9541, 23.8087 15.918, 23.8557 15.8556, 23.8809 15.7668, 23.9061 15.6787, 23.9187 15.5819, 23.9187 15.4777 L 23.9187 11.0076 C 23.9187 10.703, 23.9015 10.4145, 23.8671 10.1425, 23.8328 9.87114, 23.7395 9.61866, 23.5883 9.38623, 23.4944 9.24024, 23.3639 9.13375, 23.1973 9.06619, 23.0307 8.99921, 22.8435 8.96543, 22.6357 8.96486, 22.2773 8.96543, 21.9429 9.04043, 21.6315 9.18985, 21.32 9.33985, 21.0544 9.54138, 20.834 9.79443, 20.6141 10.048, 20.4378 10.3458, 20.3055 10.6875, 20.1739 11.0299, 20.1075 11.3866, 20.1075 11.7587 L 20.1075 15.4777 C 20.1075 15.5819, 20.1201 15.6787, 20.1452 15.7668, 20.1704 15.8556, 20.2208 15.918, 20.2964 15.9541, 20.416 16.0096, 20.5952 16.0417, 20.834 16.0508, 21.0733 16.06, 21.3309 16.0646, 21.6074 16.064 L 21.6074 16.8243 C 21.2868 16.8123, 20.9914 16.8031, 20.7212 16.7968, 20.451 16.7911, 20.1865 16.7819, 19.9283 16.7693 L 19.334 16.7693 C 18.5983 16.7693, 17.8466 16.7911, 17.0795 16.8334 L 17.0795 16.064 C 17.3628 16.0646, 17.6222 16.06, 17.8581 16.0508, 18.0939 16.0417, 18.272 16.0096, 18.3911 15.9541, 18.4666 15.918, 18.5165 15.8556, 18.5416 15.7668, 18.5668 15.6787, 18.5794 15.5819, 18.5794 15.4777 L 18.5794 10.2748 C 18.5794 10.1042, 18.572 9.949, 18.556 9.80817, 18.5405 9.6679, 18.4792 9.55454, 18.3722 9.46867, 18.2657 9.39596, 18.0928 9.35359, 17.8535 9.341, 17.6142 9.32897, 17.3565 9.32268, 17.0795 9.3221 L 17.0795 8.56181, 18.7019 8.44273, 20.0038 8.34197, 20.0038 9.91751 C 20.1235 9.63698, 20.4332 9.30607, 20.933 8.92421, 21.4334 8.54292, 22.0196 8.3517, 22.6923 8.35113, 23.045 8.3517, 23.408 8.39292, 23.7818 8.47536, 24.1562 8.5578, 24.4849 8.73643, 24.7677 9.01066, 24.9566 9.19444, 25.0997 9.39481, 25.1971 9.61122, 25.2944 9.8282, 25.3431 9.94557, 25.3431 9.96332, 25.5131 9.59748, 25.8434 9.23737, 26.3335 8.88299, 26.8241 8.52918, 27.3904 8.3517, 28.0316 8.35113, 28.3837 8.3517, 28.7501 8.39292, 29.1302 8.47536, 29.5109 8.5578, 29.843 8.73643, 30.1258 9.01123, 30.4086 9.28604, 30.593 9.60206, 30.6777 9.95931, 30.7624 10.3166, 30.8048 10.6664, 30.8048 11.0076 L 30.8048 15.4777 C 30.8048 15.5819, 30.8174 15.6787, 30.8426 15.7668, 30.8678 15.8556, 30.9216 15.918, 31.0029 15.9541, 31.1225 16.0096, 31.3 16.0417, 31.5359 16.0508, 31.7718 16.06, 32.0248 16.0646, 32.295 16.064 L 32.295 16.8334 Z" stroke="none" fill="#000000" />
			<rect />
		</svg>
	</g>
	<path d="M -265.546 21.1331 L 265.546 21.1331" fill="none" stroke="#000000" stroke-width="2.66666675" stroke-linecap="round" stroke-linejoin="round" marker-end="url(#CustomMarker-01)" transform="matrix(0.5 0 -0 0.5 141.273 109.53)" />
	<path d="M -184.531 178.644 L -184.531 -178.644" fill="none" stroke="#000000" stroke-width="2.66666675" stroke-linecap="round" stroke-linejoin="round" marker-end="url(#CustomMarker-02)" transform="matrix(0.5 0 -0 0.5 141.273 109.53)" />
	<path d="M -183.876 -0 C -183.012 -2.00318, -180.423 -8.02839, -178.696 -12.0191, -176.97 -16.0097, -175.243 -20.0003, -173.516 -23.9441, -171.79 -27.8878, -170.063 -31.8157, -168.337 -35.6817, -166.61 -39.5476, -164.884 -43.382, -163.157 -47.14, -161.431 -50.898, -159.704 -54.6089, -157.978 -58.2294, -156.251 -61.8499, -154.525 -65.4084, -152.798 -68.8631, -151.072 -72.3178, -149.345 -75.6959, -147.618 -78.9578, -145.892 -82.2198, -144.165 -85.391, -142.439 -88.4346, -140.712 -91.4782, -138.986 -94.4179, -137.259 -97.2193, -135.533 -100.021, -133.806 -102.706, -132.08 -105.243, -130.353 -107.78, -128.627 -110.19, -126.9 -112.443, -125.174 -114.697, -123.447 -116.812, -121.72 -118.763, -119.994 -120.715, -118.267 -122.519, -116.541 -124.154, -114.814 -125.789, -113.088 -127.268, -111.361 -128.573, -109.635 -129.878, -107.908 -131.02, -106.182 -131.986, -104.455 -132.951, -102.729 -133.747, -101.002 -134.365, -99.2756 -134.983, -97.549 -135.428, -95.8225 -135.693, -94.096 -135.959, -92.3695 -136.048, -90.6429 -135.96, -88.9164 -135.871, -87.1899 -135.604, -85.4633 -135.162, -83.7368 -134.719, -82.0103 -134.098, -80.2837 -133.306, -78.5572 -132.513, -76.8307 -131.543, -75.1041 -130.407, -73.3776 -129.27, -71.6511 -127.959, -69.9245 -126.487, -68.198 -125.016, -66.4715 -123.373, -64.7449 -121.578, -63.0184 -119.782, -61.2919 -117.821, -59.5653 -115.717, -57.8388 -113.612, -56.1123 -111.347, -54.3858 -108.95, -52.6592 -106.552, -50.9327 -104.002, -49.2062 -101.33, -47.4796 -98.6584, -45.7531 -95.8433, -44.0266 -92.9179, -42.3 -89.9925, -40.5735 -86.9341, -38.847 -83.7782, -37.1204 -80.6224, -35.3939 -77.3445, -33.6674 -73.9829, -31.9408 -70.6213, -30.2143 -67.1496, -28.4878 -63.6085, -26.7612 -60.0674, -25.0347 -56.4292, -23.3082 -52.7363, -21.5817 -49.0435, -19.8551 -45.2671, -18.1286 -41.4514, -16.4021 -37.6357, -14.6755 -33.7508, -12.949 -29.8421, -11.2225 -25.9334, -9.49593 -21.9703, -7.76939 -17.9992, -6.04286 -14.0281, -4.31633 -10.0178, -2.5898 -6.01542, -0.863268 -2.01299, 0.863264 2.01299, 2.5898 6.01542, 4.31633 10.0178, 6.04286 14.0281, 7.76939 17.9992, 9.49592 21.9703, 11.2225 25.9334, 12.949 29.8421, 14.6755 33.7508, 16.4021 37.6357, 18.1286 41.4514, 19.8551 45.2671, 21.5816 49.0435, 23.3082 52.7363, 25.0347 56.4292, 26.7612 60.0674, 28.4878 63.6085, 30.2143 67.1496, 31.9408 70.6212, 33.6674 73.9829, 35.3939 77.3445, 37.1204 80.6224, 38.847 83.7782, 40.5735 86.9341, 42.3 89.9925, 44.0266 92.9179, 45.7531 95.8432, 47.4796 98.6584, 49.2062 101.33, 50.9327 104.002, 52.6592 106.552, 54.3857 108.95, 56.1123 111.347, 57.8388 113.612, 59.5653 115.717, 61.2919 117.821, 63.0184 119.782, 64.7449 121.578, 66.4715 123.373, 68.198 125.016, 69.9245 126.487, 71.6511 127.959, 73.3776 129.27, 75.1041 130.407, 76.8307 131.543, 78.5572 132.513, 80.2837 133.306, 82.0103 134.098, 83.7368 134.719, 85.4633 135.162, 87.1898 135.604, 88.9164 135.871, 90.6429 135.96, 92.3694 136.048, 94.096 135.959, 95.8225 135.693, 97.549 135.428, 99.2756 134.983, 101.002 134.365, 102.729 133.747, 104.455 132.951, 106.182 131.986, 107.908 131.02, 109.635 129.878, 111.361 128.573, 113.088 127.268, 114.814 125.789, 116.541 124.154, 118.267 122.519, 119.994 120.715, 121.72 118.763, 123.447 116.812, 125.174 114.697, 126.9 112.443, 128.627 110.19, 130.353 107.78, 132.08 105.243, 133.806 102.706, 135.533 100.021, 137.259 97.2193, 138.986 94.4179, 140.712 91.4782, 142.439 88.4346, 144.165 85.391, 145.892 82.2197, 147.618 78.9578, 149.345 75.6959, 151.072 72.3178, 152.798 68.8631, 154.525 65.4083, 156.251 61.8499, 157.978 58.2294, 159.704 54.6089, 161.431 50.898, 163.157 47.14, 164.884 43.382, 166.61 39.5476, 168.337 35.6817, 170.063 31.8157, 171.79 27.8878, 173.516 23.9441, 175.243 20.0003, 176.97 16.0097, 178.696 12.0191, 180.423 8.02838, 183.012 2.00318, 183.876 3.33086e-014" fill="none" stroke="#000000" stroke-width="2.66666675" stroke-linecap="round" stroke-linejoin="round" transform="matrix(0.5 0 -0 0.5 141.273 120.096)" />
	<path d="M 0 -5.93726 L 0 5.93756" fill="none" stroke="#000000" stroke-width="2" stroke-linecap="round" stroke-linejoin="round" transform="matrix(0.5 0 0 0.5 94.9994 120.096)" />
	<path d="M -46.7807 0 L 46.7807 0" fill="none" stroke="#000000" stroke-width="2.66666675" stroke-linecap="round" stroke-linejoin="round" stroke-dasharray="9.34667, 6.65333" transform="matrix(0.5 0 0 0.5 72.3979 52.1849)" />
	<g transform="matrix(1 0 -0 1 12.3668 40.9774)">
		<svg width="87.0040054" height="47.9999886">
			<defs />
			<path d="M 8.62086 10.519 C 8.62086 11.3813, 8.56083 12.2386, 8.44076 13.0914, 8.3207 13.9442, 8.02333 14.7449, 7.54868 15.4922, 7.2098 16.0376, 6.75646 16.4561, 6.18923 16.749, 5.62256 17.0424, 5.00596 17.1888, 4.33998 17.1888, 3.69925 17.1888, 3.09331 17.0424, 2.52327 16.749, 1.95323 16.4561, 1.49821 16.0376, 1.15933 15.4922, 0.684677 14.7449, 0.387315 13.9442, 0.267249 13.0914, 0.147182 12.2386, 0.0865874 11.3813, 0.0865874 10.519, 0.0865874 9.64596, 0.147182 8.77352, 0.267249 7.90275, 0.387315 7.03199, 0.684677 6.21677, 1.15933 5.45597, 1.49821 4.90613, 1.95155 4.47804, 2.51878 4.17283, 3.08601 3.86761, 3.69308 3.715, 4.33998 3.71444, 4.99979 3.715, 5.61471 3.86761, 6.18474 4.17283, 6.75478 4.47804, 7.2098 4.90613, 7.54868 5.45597, 8.02333 6.21677, 8.3207 7.03199, 8.44076 7.90275, 8.56083 8.77352, 8.62086 9.64596, 8.62086 10.519 Z M 6.79013 10.2048 C 6.79013 9.82831, 6.78732 9.43052, 6.78115 9.0114, 6.77498 8.59285, 6.75927 8.18272, 6.73458 7.78156, 6.7099 7.38097, 6.66557 7.00225, 6.60049 6.64598, 6.53597 6.29027, 6.45742 5.98617, 6.36484 5.73426, 6.18025 5.32805, 5.90926 4.99422, 5.55131 4.73389, 5.19391 4.47355, 4.78995 4.34339, 4.33998 4.34283, 3.90235 4.34339, 3.50681 4.47524, 3.15222 4.73837, 2.79763 5.00207, 2.52776 5.33366, 2.34261 5.73426, 2.25059 5.98617, 2.17205 6.29027, 2.10696 6.64598, 2.04244 7.00225, 1.99756 7.38097, 1.97287 7.78156, 1.94818 8.18272, 1.93303 8.59285, 1.92686 9.0114, 1.92069 9.43052, 1.91732 9.82831, 1.91732 10.2048, 1.91732 10.6245, 1.92069 11.066, 1.92686 11.5294, 1.93303 11.9934, 1.94818 12.4423, 1.97287 12.876, 1.99756 13.3102, 2.04244 13.7215, 2.10696 14.1103, 2.17205 14.4997, 2.25059 14.8257, 2.34261 15.0882, 2.51541 15.5259, 2.78248 15.8849, 3.14268 16.166, 3.50344 16.4477, 3.90235 16.588, 4.33998 16.5874, 4.79668 16.588, 5.20513 16.4477, 5.56533 16.166, 5.9261 15.8849, 6.1926 15.5259, 6.36484 15.0882, 6.45742 14.8257, 6.53597 14.4997, 6.60049 14.1103, 6.66557 13.7215, 6.7099 13.3102, 6.73458 12.876, 6.75927 12.4423, 6.77498 11.9934, 6.78115 11.5294, 6.78732 11.066, 6.79013 10.6245, 6.79013 10.2048 Z" stroke="none" fill="#000000" />
			<path d="M 14.8819 15.7342 C 14.8819 16.0399, 14.7737 16.2981, 14.5567 16.5088, 14.3397 16.7195, 14.077 16.8243, 13.7684 16.8243, 13.4604 16.8243, 13.1964 16.7195, 12.9766 16.5088, 12.7568 16.2981, 12.6463 16.0399, 12.6463 15.7342, 12.6463 15.4354, 12.7568 15.1806, 12.9766 14.9699, 13.1964 14.7592, 13.4604 14.6539, 13.7684 14.6533, 14.077 14.6539, 14.3397 14.7592, 14.5567 14.9699, 14.7737 15.1806, 14.8819 15.4354, 14.8819 15.7342 Z" stroke="none" fill="#000000" />
			<path d="M 27.2499 12.7991 C 27.2499 13.386, 27.1394 13.9459, 26.9172 14.4784, 26.6956 15.0114, 26.3752 15.49, 25.9556 15.9141, 25.5303 16.3276, 25.0511 16.6435, 24.5181 16.8612, 23.9851 17.08, 23.4201 17.1888, 22.8221 17.1888, 22.3048 17.1888, 21.8223 17.0918, 21.3756 16.8971, 20.929 16.703, 20.5408 16.437, 20.2109 16.0987, 19.881 15.761, 19.6223 15.3688, 19.4338 14.9227, 19.2459 14.4772, 19.1516 14.0026, 19.1516 13.4993, 19.1516 13.1526, 19.2672 12.8911, 19.4983 12.7144, 19.7295 12.5382, 19.9685 12.4496, 20.2148 12.449, 20.474 12.4496, 20.7175 12.5365, 20.9453 12.7099, 21.1737 12.8838, 21.2876 13.147, 21.2876 13.4993, 21.2876 13.7153, 21.2399 13.8966, 21.1445 14.043, 21.0491 14.19, 20.9319 14.3033, 20.7927 14.3841, 20.6541 14.4649, 20.4987 14.5115, 20.3259 14.5227 L 20.2148 14.5227, 20.0302 14.5227 C 20.1722 15.026, 20.5021 15.4782, 21.0194 15.8788, 21.5372 16.2799, 22.1381 16.4802, 22.8221 16.4797, 23.1795 16.4802, 23.5279 16.3877, 23.8668 16.2019, 24.2056 16.0168, 24.4828 15.7711, 24.6982 15.4653, 24.9513 15.1006, 25.1134 14.6865, 25.1841 14.2225, 25.2548 13.7591, 25.2902 13.2844, 25.2902 12.7991, 25.2902 12.3088, 25.275 11.838, 25.2442 11.3858, 25.2133 10.9342, 25.0871 10.5078, 24.8649 10.106, 24.705 9.81316, 24.5002 9.56966, 24.2505 9.37497, 24.0008 9.18085, 23.722 9.08322, 23.4134 9.08266, 22.8282 9.08322, 22.3199 9.2016, 21.8885 9.43781, 21.457 9.67458, 21.1086 10.014, 20.8438 10.4561, 20.7882 10.5582, 20.699 10.6093, 20.5756 10.6087 L 20.5015 10.6087 C 20.2861 10.6093, 20.1778 10.5106, 20.1778 10.3125 L 20.1778 4.01068 C 20.1778 3.85583, 20.2676 3.75708, 20.446 3.71444, 20.4774 3.715, 20.5004 3.71837, 20.5155 3.72398, 20.5313 3.73015, 20.5447 3.73296, 20.5571 3.7324, 21.4508 4.13972, 22.3721 4.34339, 23.3208 4.34283, 24.2825 4.34339, 25.2043 4.13972, 26.0852 3.7324, 26.0975 3.73296, 26.1099 3.73015, 26.1222 3.72398, 26.1346 3.71837, 26.1531 3.715, 26.1778 3.71444, 26.3809 3.715, 26.4796 3.80758, 26.4734 3.99273, 26.4734 4.10101, 26.4549 4.17283, 26.4179 4.20817, 25.9803 4.80739, 25.4243 5.27587, 24.7493 5.61363, 24.0749 5.95195, 23.3584 6.12083, 22.5999 6.12027, 21.9715 6.12083, 21.4295 6.04901, 20.9728 5.90482 L 20.9728 9.33401 C 21.1888 9.10735, 21.5142 8.90536, 21.9485 8.72863, 22.3827 8.55246, 22.8714 8.46381, 23.4134 8.46325, 23.9436 8.46381, 24.4446 8.58388, 24.9159 8.82289, 25.3872 9.06246, 25.8018 9.37329, 26.1592 9.75593, 26.529 10.1874, 26.8033 10.6648, 26.9818 11.1883, 27.1607 11.7123, 27.2499 12.2493, 27.2499 12.7991 Z" stroke="none" fill="#000000" />
			<rect />
		</svg>
	</g>
	<g transform="matrix(1 0 -0 1 149.706 40.9774)">
		<svg width="227.996933" height="99.0428314">
			<defs />
			<path d="M 9.41063 14.0854 C 9.34193 14.3671, 9.26006 14.6785, 9.1656 15.0203, 9.0717 15.3627, 8.94575 15.6798, 8.78831 15.973, 8.63144 16.2661, 8.43336 16.5197, 8.19405 16.7332, 7.95474 16.9468, 7.65589 17.0533, 7.2975 17.0533, 6.85724 17.0533, 6.50171 16.9405, 6.23148 16.7149, 5.96126 16.4894, 5.79409 16.2569, 5.73111 16.0182, 5.51756 16.2815, 5.23131 16.5197, 4.87292 16.7332, 4.51453 16.9468, 4.09889 17.0533, 3.62714 17.0533, 3.20005 17.0533, 2.81761 16.9743, 2.48097 16.8151, 2.14434 16.6571, 1.87869 16.4126, 1.68347 16.0823, 1.49511 15.7285, 1.40408 15.338, 1.40981 14.9098 L 1.40981 14.8365 C 1.4224 14.3911, 1.47908 13.9486, 1.57984 13.5083, 1.6806 13.0875, 1.82717 12.6238, 2.01896 12.1165, 2.21075 11.6099, 2.39452 11.1181, 2.57029 10.6412, 2.75921 10.1351, 2.85368 9.71943, 2.85368 9.39539, 2.85368 9.12116, 2.73746 8.98375, 2.50445 8.98318, 2.2909 8.98375, 2.09739 9.04501, 1.92449 9.16696, 1.7516 9.28947, 1.59416 9.45894, 1.45275 9.67535, 1.31134 9.89233, 1.18367 10.1488, 1.07031 10.4448, 0.956953 10.7414, 0.863061 11.0568, 0.78749 11.3923, 0.718216 11.5578, 0.601997 11.6431, 0.438259 11.6488 L 0.221278 11.6488 C 0.0701351 11.6494, -0.00543621 11.5732, -0.00543621 11.4198 L -0.00543621 11.3557 C 0.0827303 11.0202, 0.199522 10.6772, 0.343795 10.3257, 0.48864 9.97477, 0.67127 9.65588, 0.891114 9.36848, 1.11153 9.08165, 1.36343 8.84349, 1.64625 8.65399, 1.92907 8.46506, 2.25311 8.37002, 2.6178 8.36945, 2.93268 8.37002, 3.20119 8.43758, 3.42447 8.57155, 3.64775 8.70609, 3.81778 8.88471, 3.934 9.10742, 4.0508 9.33069, 4.11492 9.58203, 4.12751 9.86256 L 4.12751 9.92668 C 4.12751 10.19, 4.07427 10.4614, 3.96664 10.7419, 3.78458 11.2188, 3.60424 11.706, 3.42447 12.2035, 3.24527 12.7016, 3.10558 13.1488, 3.00482 13.5455, 2.90406 13.9428, 2.83478 14.3361, 2.797 14.7266, 2.77181 14.8308, 2.75635 14.9442, 2.75005 15.0655, 2.75005 15.3043, 2.79127 15.5396, 2.87257 15.7709, 2.92925 15.9792, 3.03287 16.1441, 3.18402 16.2661, 3.33516 16.3886, 3.51435 16.4493, 3.7216 16.4487, 4.13724 16.4493, 4.49907 16.3245, 4.80708 16.0737, 5.11509 15.8235, 5.38532 15.4903, 5.61775 15.0747, 5.63035 15.0266, 5.64008 14.9699, 5.64638 14.9058, 5.65268 14.8417, 5.66184 14.7758, 5.67443 14.7083 L 7.08968 9.24883 C 7.14693 9.02326, 7.26143 8.85723, 7.43433 8.75017, 7.60723 8.64368, 7.78184 8.58987, 7.9576 8.58929, 8.14023 8.58987, 8.29137 8.64483, 8.41103 8.75418, 8.4929 8.83433, 8.53355 8.94081, 8.53355 9.07478, 8.53355 9.14234, 8.52725 9.21276, 8.51465 9.28547 L 7.09941 14.7449 C 6.99865 15.1239, 6.94827 15.46, 6.94827 15.7525, 6.94827 15.8327, 6.95456 15.918, 6.96716 16.009, 6.99865 16.3027, 7.14636 16.4493, 7.41085 16.4487, 7.67535 16.4493, 7.90321 16.2237, 8.095 15.7714, 8.28679 15.3197, 8.474 14.7392, 8.65606 14.0304, 8.69385 13.8724, 8.80091 13.7928, 8.97667 13.7923 L 9.19365 13.7923 C 9.2635 13.7928, 9.33277 13.814, 9.40147 13.8564, 9.42666 13.9119, 9.43926 13.9577, 9.43926 13.9938, 9.43926 14.019, 9.4301 14.0493, 9.41063 14.0854 Z" stroke="none" fill="#000000" />
			<polyline points="-6.566 -1.9698 6.566 -1.9698" fill="none" stroke="#000000" stroke-width="0.750400007" stroke-linecap="round" stroke-linejoin="round" transform="matrix(1 0 0 1 21.4511 11.2074)" />
			<polyline points="-6.566 1.9698 6.566 1.9698" fill="none" stroke="#000000" stroke-width="0.750400007" stroke-linecap="round" stroke-linejoin="round" transform="matrix(1 0 0 1 21.4511 11.2074)" />
			<path d="M 40.2805 16.7669 C 39.1466 16.731, 38.0436 16.7131, 36.9708 16.7131, 35.8987 16.7131, 34.7956 16.731, 33.6617 16.7669 L 33.6617 15.9949, 34.2996 15.9949 C 34.5027 15.9955, 34.6941 15.9927, 34.8725 15.9865, 35.0514 15.9809, 35.2209 15.9657, 35.3814 15.9416, 35.5418 15.918, 35.6804 15.8939, 35.7971 15.8692, 35.8958 15.8518, 35.9772 15.7969, 36.0417 15.7037, 36.1068 15.6111, 36.1388 15.5079, 36.1388 15.3935 L 36.1388 5.27643 C 35.8313 5.4268, 35.452 5.54069, 35.0021 5.61812, 34.5521 5.6961, 34.0595 5.73482, 33.5231 5.73426 L 33.5231 4.97122 C 34.2626 4.97178, 34.9454 4.88369, 35.571 4.70696, 36.1966 4.53078, 36.7374 4.19976, 37.193 3.71444 L 37.4797 3.71444 C 37.6828 3.715, 37.7844 3.81375, 37.7844 4.01068 L 37.7844 15.3935 C 37.7844 15.5135, 37.8152 15.6184, 37.8769 15.7082, 37.9387 15.798, 38.0284 15.8518, 38.1451 15.8692, 38.2439 15.8939, 38.3707 15.918, 38.5244 15.9416, 38.6781 15.9657, 38.8521 15.9809, 39.0462 15.9865, 39.2403 15.9927, 39.43 15.9955, 39.6151 15.9949 L 40.2805 15.9949, 40.2805 16.7669 Z" stroke="none" fill="#000000" />
			<path d="M 59.3397 16.8334 C 58.56 16.7911, 57.8088 16.7693, 57.0852 16.7693, 56.3621 16.7693, 55.6012 16.7911, 54.8026 16.8334 L 54.8026 16.064 C 55.0854 16.0646, 55.3447 16.06, 55.5806 16.0508, 55.8165 16.0417, 55.9945 16.0096, 56.1136 15.9541, 56.1892 15.918, 56.2413 15.8539, 56.2693 15.7623, 56.298 15.6707, 56.3117 15.5762, 56.3117 15.4777 L 56.3117 11.0076 C 56.3117 10.703, 56.2928 10.4145, 56.255 10.1425, 56.2173 9.87114, 56.1234 9.61866, 55.9722 9.38623, 55.8841 9.24024, 55.757 9.13375, 55.5904 9.06619, 55.4238 8.99921, 55.2365 8.96543, 55.0287 8.96486, 54.6703 8.96543, 54.3371 9.04043, 54.0291 9.18985, 53.7211 9.33985, 53.4555 9.54138, 53.2322 9.79443, 53.0089 10.048, 52.8314 10.3458, 52.6992 10.6875, 52.5675 11.0299, 52.5011 11.3866, 52.5011 11.7587 L 52.5011 15.4777 C 52.5011 15.5819, 52.5137 15.6787, 52.5389 15.7668, 52.5641 15.8556, 52.6173 15.918, 52.6992 15.9541, 52.8188 16.0096, 52.9963 16.0417, 53.2322 16.0508, 53.4681 16.06, 53.7274 16.0646, 54.0102 16.064 L 54.0102 16.8334 C 53.2116 16.7911, 52.4507 16.7693, 51.7271 16.7693, 50.992 16.7693, 50.2402 16.7911, 49.4731 16.8334 L 49.4731 16.064 C 49.7559 16.0646, 50.0153 16.06, 50.2511 16.0508, 50.487 16.0417, 50.6651 16.0096, 50.7841 15.9541, 50.8534 15.918, 50.9004 15.8556, 50.9255 15.7668, 50.9507 15.6787, 50.9633 15.5819, 50.9633 15.4777 L 50.9633 11.0076 C 50.9633 10.703, 50.9462 10.4145, 50.9118 10.1425, 50.8775 9.87114, 50.7841 9.61866, 50.633 9.38623, 50.5391 9.24024, 50.4086 9.13375, 50.242 9.06619, 50.0754 8.99921, 49.8882 8.96543, 49.6803 8.96486, 49.3219 8.96543, 48.9876 9.04043, 48.6762 9.18985, 48.3647 9.33985, 48.0991 9.54138, 47.8786 9.79443, 47.6588 10.048, 47.4825 10.3458, 47.3502 10.6875, 47.2185 11.0299, 47.1521 11.3866, 47.1521 11.7587 L 47.1521 15.4777 C 47.1521 15.5819, 47.1647 15.6787, 47.1899 15.7668, 47.2151 15.8556, 47.2655 15.918, 47.3411 15.9541, 47.4607 16.0096, 47.6399 16.0417, 47.8786 16.0508, 48.118 16.06, 48.3756 16.0646, 48.6521 16.064 L 48.6521 16.8243 C 48.3315 16.8123, 48.0361 16.8031, 47.7659 16.7968, 47.4956 16.7911, 47.2311 16.7819, 46.9729 16.7693 L 46.3787 16.7693 C 45.643 16.7693, 44.8913 16.7911, 44.1241 16.8334 L 44.1241 16.064 C 44.4075 16.0646, 44.6669 16.06, 44.9027 16.0508, 45.1386 16.0417, 45.3167 16.0096, 45.4357 15.9541, 45.5113 15.918, 45.5611 15.8556, 45.5863 15.7668, 45.6115 15.6787, 45.6241 15.5819, 45.6241 15.4777 L 45.6241 10.2748 C 45.6241 10.1042, 45.6167 9.949, 45.6006 9.80817, 45.5852 9.6679, 45.5239 9.55454, 45.4169 9.46867, 45.3104 9.39596, 45.1375 9.35359, 44.8982 9.341, 44.6589 9.32897, 44.4012 9.32268, 44.1241 9.3221 L 44.1241 8.56181, 45.7466 8.44273, 47.0485 8.34197, 47.0485 9.91751 C 47.1682 9.63698, 47.4779 9.30607, 47.9777 8.92421, 48.4781 8.54292, 49.0643 8.3517, 49.737 8.35113, 50.0897 8.3517, 50.4527 8.39292, 50.8265 8.47536, 51.2009 8.5578, 51.5295 8.73643, 51.8124 9.01066, 52.0013 9.19444, 52.1444 9.39481, 52.2417 9.61122, 52.3391 9.8282, 52.3877 9.94557, 52.3877 9.96332, 52.5578 9.59748, 52.8881 9.23737, 53.3782 8.88299, 53.8688 8.52918, 54.435 8.3517, 55.0762 8.35113, 55.4283 8.3517, 55.7947 8.39292, 56.1749 8.47536, 56.5556 8.5578, 56.8877 8.73643, 57.1705 9.01123, 57.4533 9.28604, 57.6376 9.60206, 57.7224 9.95931, 57.8071 10.3166, 57.8495 10.6664, 57.8495 11.0076 L 57.8495 15.4777 C 57.8495 15.5819, 57.8621 15.6787, 57.8873 15.7668, 57.9125 15.8556, 57.9663 15.918, 58.0476 15.9541, 58.1672 16.0096, 58.3447 16.0417, 58.5806 16.0508, 58.8164 16.06, 59.0695 16.0646, 59.3397 16.064 L 59.3397 16.8334 Z" stroke="none" fill="#000000" />
			<path d="M 60.7435 21.2028 C 60.6994 21.3253, 60.6175 21.4135, 60.4979 21.4685, 60.4229 21.4994, 60.3536 21.5143, 60.2906 21.5143, 60.2465 21.5143, 60.1933 21.5085, 60.1303 21.496, 59.9042 21.4169, 59.7908 21.2795, 59.7908 21.0837, 59.7908 21.0231, 59.8069 20.9555, 59.8378 20.8822 L 66.5258 2.88251 C 66.5699 2.76114, 66.6546 2.66611, 66.7806 2.59855, 66.8499 2.5808, 66.9128 2.57164, 66.9689 2.57107, 67.0136 2.57164, 67.0703 2.57794, 67.139 2.58939, 67.3657 2.66954, 67.4756 2.80694, 67.4688 3.0016, 67.4688 3.06343, 67.4533 3.13041, 67.4218 3.20312 Z" stroke="none" fill="#000000" />
			<path d="M 74.2484 14.3144 C 74.2484 14.6877, 74.1826 15.0524, 74.0503 15.4096, 73.9186 15.7668, 73.6954 16.0766, 73.3805 16.3388, 73.041 16.6079, 72.6654 16.7911, 72.2532 16.8884, 71.8416 16.9863, 71.4248 17.035, 71.0034 17.035, 70.538 17.035, 70.132 16.9588, 69.7863 16.806, 69.4405 16.6537, 69.1576 16.4676, 68.9372 16.2472 L 68.3338 16.9434 C 68.2834 16.9983, 68.2078 17.0292, 68.1071 17.035 L 68.051 17.035 C 67.862 17.035, 67.7676 16.9405, 67.7676 16.751 L 67.7676 13.7281 C 67.7676 13.5942, 67.8403 13.5089, 67.9846 13.4717, 68.0292 13.4602, 68.0699 13.4539, 68.1071 13.4533, 68.1575 13.4539, 68.205 13.4631, 68.2491 13.4808, 68.3435 13.518, 68.4065 13.5821, 68.4374 13.6732, 68.6012 14.5102, 68.8811 15.1795, 69.2773 15.6798, 69.6735 16.1808, 70.2488 16.431, 71.0034 16.4304, 71.3057 16.431, 71.5977 16.4023, 71.8805 16.3439, 72.1633 16.2861, 72.4089 16.1716, 72.6162 15.9999, 72.7862 15.8602, 72.9122 15.6878, 72.9935 15.4829, 73.0753 15.2785, 73.116 15.0569, 73.116 14.8182, 73.116 14.4277, 72.962 14.094, 72.654 13.8157, 72.3459 13.5381, 71.9658 13.3531, 71.5124 13.261 L 70.2111 12.9953 C 69.8967 12.9346, 69.5933 12.839, 69.3008 12.7074, 69.0088 12.5763, 68.7506 12.4142, 68.5273 12.2219, 68.304 12.0295, 68.122 11.8022, 67.98 11.5394, 67.8386 11.2772, 67.7676 10.987, 67.7676 10.6686, 67.7676 10.3211, 67.842 9.98679, 67.9897 9.66618, 68.1374 9.34558, 68.359 9.08165, 68.6544 8.87326, 69.0002 8.61734, 69.3809 8.45132, 69.796 8.3746, 70.2111 8.29846, 70.6135 8.2601, 71.0034 8.25953, 71.7202 8.2601, 72.299 8.42498, 72.7387 8.75418 L 73.2293 8.31449 C 73.3049 8.27842, 73.3679 8.2601, 73.4183 8.25953 L 73.4841 8.25953 C 73.673 8.2601, 73.7669 8.3454, 73.7669 8.51601 L 73.7669 10.9526 C 73.7669 11.1364, 73.673 11.2309, 73.4841 11.2366 L 73.3805 11.2366 C 73.1921 11.2372, 73.0976 11.1427, 73.0976 10.9526, 73.0976 10.2874, 72.9173 9.76122, 72.5555 9.37306, 72.1937 8.98547, 71.6767 8.79139, 71.0034 8.79082, 70.7143 8.79139, 70.4298 8.81601, 70.1498 8.86467, 69.8698 8.91391, 69.6197 9.01409, 69.3998 9.16638, 69.0666 9.3868, 68.8994 9.7137, 68.8994 10.1465, 68.8994 10.4648, 69.0443 10.7368, 69.3334 10.9623, 69.6231 11.1885, 69.9878 11.3442, 70.428 11.4289 L 71.7202 11.6671 C 72.0603 11.7289, 72.3837 11.8389, 72.6917 11.9974, 72.9997 12.1566, 73.2688 12.3472, 73.4984 12.57, 73.728 12.7932, 73.9106 13.0554, 74.0457 13.3577, 74.1808 13.66, 74.2484 13.9789, 74.2484 14.3144 Z" stroke="none" fill="#000000" />
			<rect />
		</svg>
	</g>
	<path d="M 0 -5.93726 L 0 5.93756" fill="none" stroke="#000000" stroke-width="2" stroke-linecap="round" stroke-linejoin="round" transform="matrix(0.5 0 0 0.5 140.991 120.096)" />
	<path d="M 0 -5.93726 L 0 5.93756" fill="none" stroke="#000000" stroke-width="2" stroke-linecap="round" stroke-linejoin="round" transform="matrix(0.5 0 0 0.5 186.983 120.096)" />
	<path d="M 0 -5.93726 L 0 5.93756" fill="none" stroke="#000000" stroke-width="2" stroke-linecap="round" stroke-linejoin="round" transform="matrix(0.5 0 0 0.5 232.975 120.096)" />
	<g transform="matrix(1 0 -0 1 29.5839 124.559)">
		<svg width="41.9788857" height="47.9999886">
			<defs />
			<path d="M 12.2634 10.4122 C 12.0367 11.2984, 11.6703 12.1532, 11.1642 12.9776, 10.6581 13.802, 10.0209 14.556, 9.25376 15.2396, 8.56217 15.8567, 7.80531 16.3474, 6.98433 16.7103, 6.16336 17.0733, 5.34123 17.2548, 4.51739 17.2548, 3.68725 17.2548, 2.94929 17.0722, 2.30464 16.7058, 1.65999 16.3394, 1.14588 15.8447, 0.762298 15.2212, 0.340931 14.5319, 0.0987594 13.7682, 0.0357833 12.9312, 0.0105929 12.7303, -0.00200236 12.5287, -0.00200236 12.3266, -0.00200236 11.698, 0.0798666 11.0477, 0.243032 10.3755, 0.482341 9.4784, 0.85161 8.60704, 1.35198 7.76087, 1.85236 6.91528, 2.49185 6.1504, 3.27161 5.46568, 3.96377 4.84966, 4.72006 4.35329, 5.54104 3.97773, 6.36202 3.60216, 7.19044 3.41438, 8.02687 3.41381, 8.85701 3.41438, 9.59154 3.60388, 10.2299 3.98231, 10.8688 4.36131, 11.3795 4.86168, 11.7631 5.484, 12.1844 6.17445, 12.4329 6.9439, 12.5085 7.79236, 12.5211 8.00075, 12.5274 8.20514, 12.5274 8.40609, 12.5274 9.0599, 12.4398 9.72859, 12.2634 10.4122 Z M 10.3576 5.79545 C 10.1503 5.28305, 9.83887 4.86626, 9.42323 4.54566, 9.00816 4.22505, 8.49862 4.06475, 7.89462 4.06418, 7.2975 4.06475, 6.70323 4.22849, 6.11183 4.55482, 5.521 4.88172, 4.99257 5.30423, 4.52655 5.82293, 3.94144 6.45269, 3.47943 7.13512, 3.13993 7.87079, 2.80043 8.60704, 2.53593 9.35302, 2.34701 10.1099, 2.12716 10.9349, 1.99205 11.7381, 1.94167 12.519, 1.92907 12.6661, 1.92278 12.8127, 1.92278 12.9587, 1.92278 13.5701, 2.02354 14.1684, 2.22449 14.7541, 2.41971 15.2739, 2.71856 15.709, 3.12104 16.06, 3.52351 16.4115, 4.02675 16.5867, 4.63017 16.5861, 5.25306 16.5867, 5.86222 16.4081, 6.45648 16.0508, 7.05075 15.6936, 7.58375 15.2522, 8.0555 14.7266, 8.6658 14.019, 9.14041 13.2707, 9.4799 12.4829, 9.81997 11.6952, 10.0965 10.8919, 10.31 10.0732, 10.5053 9.31066, 10.6278 8.55952, 10.6782 7.81984 L 10.6782 7.49924 C 10.6782 6.88894, 10.5717 6.32101, 10.3576 5.79545 Z" stroke="none" fill="#000000" />
			<rect />
		</svg>
	</g>
	<g transform="matrix(1 0 -0 1 91.5509 124.559)">
		<svg width="23.9688396" height="45.0428467">
			<defs />
			<path d="M 6.82276 16.7669 C 5.68886 16.731, 4.58525 16.7131, 3.51251 16.7131, 2.44032 16.7131, 1.33672 16.731, 0.202257 16.7669 L 0.202257 15.9949, 0.840743 15.9949 C 1.04385 15.9955, 1.23517 15.9927, 1.41358 15.9865, 1.59256 15.9809, 1.762 15.9657, 1.92247 15.9416, 2.08293 15.918, 2.22151 15.8939, 2.33821 15.8692, 2.43696 15.8518, 2.51887 15.7969, 2.58339 15.7037, 2.64848 15.6111, 2.68046 15.5079, 2.68046 15.3935 L 2.68046 5.27643 C 2.37244 5.4268, 1.99316 5.54069, 1.54319 5.61812, 1.09322 5.6961, 0.600048 5.73482, 0.0636752 5.73426 L 0.0636752 4.97122 C 0.803713 4.97178, 1.48652 4.88369, 2.1121 4.70696, 2.73768 4.53078, 3.27855 4.19976, 3.73469 3.71444 L 4.02139 3.71444 C 4.22449 3.715, 4.32604 3.81375, 4.32604 4.01068 L 4.32604 15.3935 C 4.32604 15.5135, 4.3569 15.6184, 4.41862 15.7082, 4.48034 15.798, 4.57011 15.8518, 4.68681 15.8692, 4.78555 15.8939, 4.91235 15.918, 5.06608 15.9416, 5.22037 15.9657, 5.3943 15.9809, 5.58843 15.9865, 5.78256 15.9927, 5.97219 15.9955, 6.15678 15.9949 L 6.82276 15.9949, 6.82276 16.7669 Z" stroke="none" fill="#000000" />
			<rect />
		</svg>
	</g>
	<g transform="matrix(1 0 -0 1 136.85 124.559)">
		<svg width="30.0150681" height="45.0428467">
			<defs />
			<path d="M 7.60815 16.7669 L 0.0832232 16.7669, 0.0832232 16.2732 C 0.0832232 16.2379, 0.101738 16.184, 0.138768 16.1116 L 3.16176 12.826 C 3.51971 12.4316, 3.8816 12.0277, 4.24853 11.6147, 4.61546 11.2018, 4.94312 10.7799, 5.23263 10.349, 5.52213 9.91808, 5.75329 9.47372, 5.9261 9.01589, 6.0989 8.55807, 6.18475 8.0778, 6.18475 7.57453, 6.18475 7.15037, 6.12976 6.7537, 6.01867 6.38565, 5.90758 6.01759, 5.74768 5.69442, 5.53784 5.41613, 5.32801 5.13785, 5.06599 4.91343, 4.7518 4.74286, 4.43761 4.5723, 4.07404 4.48702, 3.6611 4.48646, 3.04506 4.48702, 2.50083 4.67105, 2.02954 5.0391, 1.55825 5.40716, 1.24518 5.8128, 1.09089 6.25492, 1.06059 6.26726, 1.10996 6.27343, 1.23901 6.27287 L 1.3961 6.27287 C 1.58125 6.31551, 1.74115 6.38004, 1.87693 6.46644, 2.01271 6.5534, 2.1266 6.67291, 2.21918 6.82552, 2.31175 6.97812, 2.35776 7.16215, 2.35776 7.37704, 2.35776 7.73668, 2.24106 8.01216, 2.00654 8.20348, 1.77201 8.39536, 1.51 8.49074, 1.22049 8.49018, 0.943327 8.49074, 0.684679 8.39536, 0.443984 8.20348, 0.203851 8.01216, 0.0832232 7.73668, 0.0832232 7.37704, 0.0832232 6.87489, 0.18197 6.39911, 0.379463 5.95026, 0.576956 5.50142, 0.844581 5.1126, 1.18346 4.78326, 1.52234 4.45448, 1.92294 4.19415, 2.38525 4.00226, 2.84756 3.81094, 3.33793 3.715, 3.85523 3.71444, 4.49596 3.715, 5.08339 3.80926, 5.61639 3.99778, 6.1494 4.18629, 6.60386 4.45728, 6.97977 4.81019, 7.35568 5.16366, 7.65023 5.57211, 7.86287 6.03554, 8.07552 6.49954, 8.18156 7.01235, 8.18156 7.57453, 8.18156 8.19731, 8.04017 8.77071, 7.75627 9.29418, 7.47294 9.81821, 7.12172 10.2985, 6.7026 10.735, 6.28349 11.172, 5.83801 11.5833, 5.36672 11.9693, 4.89543 12.3553, 4.46846 12.7307, 4.08638 13.0954 L 1.95997 15.0972, 4.74282 15.0972 C 5.13108 15.0978, 5.49352 15.095, 5.82903 15.0888, 6.16511 15.0832, 6.45013 15.0708, 6.68409 15.0529, 6.91861 15.0349, 7.03868 15.0232, 7.04429 15.0164, 7.09366 14.9749, 7.14023 14.8913, 7.18343 14.7656, 7.22663 14.64, 7.26647 14.4918, 7.3035 14.3213, 7.34053 14.1507, 7.37756 13.9773, 7.41459 13.8006, 7.45162 13.6244, 7.48528 13.4309, 7.51614 13.221 L 8.20007 13.221 Z" stroke="none" fill="#000000" />
			<rect />
		</svg>
	</g>
	<g transform="matrix(1 0 -0 1 182.686 124.559)">
		<svg width="30.0150681" height="47.9999886">
			<defs />
			<path d="M 8.50823 13.3826 C 8.50823 13.8977, 8.39434 14.392, 8.16655 14.8644, 7.93876 15.3374, 7.63354 15.7413, 7.2509 16.0757, 6.82 16.4533, 6.34366 16.7327, 5.823 16.9151, 5.30234 17.098, 4.75811 17.1888, 4.19088 17.1888, 3.67975 17.1888, 3.18097 17.117, 2.69397 16.9734, 2.20697 16.8298, 1.76822 16.6239, 1.3766 16.3546, 0.984985 16.0852, 0.672475 15.7548, 0.437952 15.3626, 0.20399 14.971, 0.0867284 14.5204, 0.0867284 14.011, 0.0867284 13.6284, 0.21465 13.3428, 0.470493 13.1543, 0.726336 12.9658, 0.995645 12.8715, 1.27898 12.8709, 1.57522 12.8715, 1.8507 12.9658, 2.10654 13.1543, 2.36239 13.3428, 2.49031 13.6284, 2.49031 14.011, 2.49031 14.2388, 2.44598 14.429, 2.35621 14.5816, 2.26701 14.7342, 2.15311 14.8616, 2.01397 14.9631, 1.87539 15.0652, 1.71661 15.1275, 1.53819 15.1511, 1.44618 15.1758, 1.35977 15.1875, 1.27898 15.187, 1.19931 15.1875, 1.18697 15.1937, 1.24195 15.2049, 1.43327 15.5405, 1.80918 15.8373, 2.37024 16.0942, 2.9313 16.3517, 3.53781 16.4802, 4.19088 16.4797, 4.49946 16.4802, 4.78728 16.4039, 5.05547 16.2513, 5.32366 16.0987, 5.54752 15.8939, 5.72594 15.6358, 5.94812 15.3014, 6.09904 14.9424, 6.17871 14.5592, 6.25894 14.1765, 6.29878 13.7843, 6.29878 13.3826, 6.29878 12.9702, 6.25894 12.5741, 6.17871 12.1937, 6.09904 11.8139, 5.94812 11.4621, 5.72594 11.1384, 5.54079 10.8758, 5.3158 10.6632, 5.05098 10.5016, 4.78616 10.34, 4.49946 10.2592, 4.19088 10.2586 L 2.85051 10.2586 C 2.67209 10.2592, 2.57671 10.1756, 2.56437 10.0073 L 2.56437 9.90854 C 2.56437 9.83728, 2.58625 9.78062, 2.62889 9.73798, 2.68443 9.68468, 2.75513 9.65775, 2.84153 9.65718, 3.02051 9.63362, 3.2051 9.62184, 3.39586 9.62128, 3.58101 9.62184, 3.76335 9.61005, 3.94177 9.58537, 4.27448 9.5618, 4.56398 9.45913, 4.81029 9.27623, 5.05715 9.09388, 5.26362 8.86048, 5.4297 8.57602, 5.59633 8.29213, 5.72257 7.96447, 5.80897 7.59305, 5.89538 7.22219, 5.93858 6.84179, 5.93858 6.45241, 5.93858 6.16571, 5.90772 5.8936, 5.846 5.63607, 5.78429 5.37911, 5.67039 5.15412, 5.50376 4.96224, 5.15871 4.56781, 4.72108 4.37313, 4.19088 4.37874, 3.62421 4.3793, 3.10523 4.4859, 2.63394 4.69798, 2.16265 4.91062, 1.84621 5.13953, 1.68575 5.38415, 1.64311 5.39089, 1.66443 5.39369, 1.75083 5.39313, 1.97301 5.39369, 2.18229 5.45934, 2.37922 5.59062, 2.67546 5.76455, 2.82302 6.05799, 2.82302 6.47037, 2.82302 6.81822, 2.7108 7.08024, 2.48582 7.25641, 2.26083 7.43314, 2.00948 7.52123, 1.73232 7.52067, 1.46132 7.52123, 1.20716 7.43483, 0.969836 7.2609, 0.732508 7.08753, 0.613563 6.82383, 0.613563 6.47037, 0.613563 6.03386, 0.718481 5.64841, 0.927757 5.3129, 1.13759 4.97795, 1.4069 4.69069, 1.7368 4.45111, 2.06671 4.2121, 2.44711 4.0292, 2.87856 3.90352, 3.31002 3.77784, 3.74764 3.715, 4.19088 3.71444, 4.66553 3.715, 5.12504 3.77784, 5.56884 3.90352, 6.01264 4.0292, 6.43175 4.22388, 6.82561 4.48646, 7.14654 4.71425, 7.41585 4.99422, 7.63466 5.32637, 7.85348 5.65851, 7.96288 6.03386, 7.96288 6.45241, 7.96288 6.87208, 7.8877 7.26707, 7.73677 7.63793, 7.58585 8.00935, 7.38555 8.34431, 7.13588 8.64335, 6.88621 8.94296, 6.58885 9.20609, 6.2438 9.43332, 5.89874 9.66111, 5.63953 9.80418, 5.46673 9.86365, 5.61485 9.88217, 5.86789 9.97082, 6.22528 10.129, 6.58268 10.2878, 6.92436 10.4988, 7.2509 10.7613, 7.63354 11.0913, 7.93876 11.4846, 8.16655 11.9424, 8.39434 12.4002, 8.50823 12.8805, 8.50823 13.3826 Z" stroke="none" fill="#000000" />
			<rect />
		</svg>
	</g>
	<g transform="matrix(1 0 -0 1 228.395 124.559)">
		<svg width="32.9738617" height="45.0428467">
			<defs />
			<path d="M 7.07527 13.5711 L 7.07527 15.3935 C 7.07527 15.5017, 7.09547 15.6022, 7.13587 15.6947, 7.17626 15.7879, 7.24247 15.849, 7.33448 15.8782, 7.47643 15.9444, 7.70759 15.9809, 8.02795 15.9865, 8.34832 15.9927, 8.67149 15.9955, 8.99802 15.9949 L 8.99802 16.7669 C 8.05544 16.731, 7.13138 16.7131, 6.22471 16.7131, 5.3315 16.7131, 4.39173 16.731, 3.40538 16.7669 L 3.40538 15.9949 C 3.74426 15.9955, 4.07136 15.9927, 4.38555 15.9865, 4.69975 15.9809, 4.93427 15.9444, 5.088 15.8782, 5.18057 15.849, 5.24846 15.7879, 5.29166 15.6947, 5.33487 15.6022, 5.35619 15.5017, 5.35619 15.3935 L 5.35619 13.5711, 0.0867158 13.5711, 0.0867158 12.844, 6.26174 3.66058 C 6.34253 3.55342, 6.44408 3.49956, 6.56695 3.49899 L 6.77062 3.49899 C 6.97372 3.49956, 7.07527 3.60111, 7.07527 3.80421 L 7.07527 12.7812, 9.06311 12.7812, 9.06311 13.5711 Z M 5.4482 6.02152 L 0.900252 12.7812, 5.4482 12.7812 Z" stroke="none" fill="#000000" />
			<rect />
		</svg>
	</g>
	<path d="M 42.9783 0 L -42.9781 0" fill="none" stroke="#000000" stroke-width="2.66666675" stroke-linecap="round" stroke-linejoin="round" marker-end="url(#CustomMarker-03)" transform="matrix(0.5 0 0 0.5 186.983 70.369)" />
</svg>
