<?xml version="1.0"?>
<svg xmlns="http://www.w3.org/2000/svg" xmlns:xlink="http://www.w3.org/1999/xlink" width="200.638794" height="100.033112">
	<defs />
	<g transform="matrix(1 0 -0 1 38.5259 9)">
		<svg width="53.9427032" height="54.0428391">
			<defs />
			<path d="M 9.8841 7.99388 C 9.84631 8.16564, 9.75242 8.25094, 9.60128 8.25037, 9.58868 8.26296, 9.55719 8.26926, 9.50681 8.26869, 9.47532 8.26926, 9.45013 8.26296, 9.43124 8.25037 L 9.34651 8.25037 C 9.18277 8.25094, 9.1009 8.18968, 9.1009 8.06717 L 9.1009 8.00304 C 9.17647 7.55191, 9.21426 7.1334, 9.21426 6.7481 L 9.21426 6.40002 C 9.17647 5.93056, 9.07113 5.52579, 8.89823 5.18687, 8.72534 4.84794, 8.47229 4.58573, 8.13908 4.39909, 7.80588 4.21303, 7.38394 4.11971, 6.87441 4.11914, 6.579 4.11971, 6.27843 4.18383, 5.97328 4.31207, 5.66871 4.44032, 5.38417 4.61436, 5.11967 4.83363, 4.83055 5.07237, 4.59468 5.34259, 4.41205 5.64488, 4.22999 5.94716, 4.09774 6.25689, 4.0153 6.57406, 3.95289 6.80077, 3.91854 7.01718, 3.91167 7.22443, 3.91167 7.51183, 3.97465 7.78664, 4.1006 8.04884, 4.28323 8.4891, 4.61014 8.77021, 5.08188 8.89158 L 7.2517 9.49615 C 7.64787 9.61294, 7.98623 9.79786, 8.26618 10.0509, 8.54614 10.3045, 8.75682 10.604, 8.89823 10.9486, 9.04022 11.2938, 9.12323 11.6705, 9.14842 12.0793 L 9.14842 12.2442 C 9.14842 12.5992, 9.09804 12.9621, 8.99728 13.3343, 8.8656 13.8478, 8.65492 14.3424, 8.36523 14.8188, 8.07611 15.2951, 7.71772 15.7228, 7.28948 16.1006, 6.88071 16.4493, 6.43301 16.7287, 5.94523 16.9388, 5.45745 17.1495, 4.96853 17.2548, 4.47789 17.2548, 3.75481 17.2548, 3.13821 17.1392, 2.62868 16.9067, 2.11915 16.6754, 1.74186 16.3823, 1.49625 16.0273 L 0.562492 17.1357 C 0.481195 17.2153, 0.395891 17.2548, 0.307725 17.2548 L 0.251046 17.2548 C 0.0941787 17.2548, 0.00887477 17.1941, -0.0037204 17.0716, -0.0037204 17.035, 0.00601226 17.0018, 0.0243326 16.9708 L 1.11897 12.6839 C 1.15676 12.5133, 1.26725 12.4251, 1.44931 12.4182 L 1.65656 12.4182 C 1.73213 12.4188, 1.8014 12.4492, 1.86438 12.5098, 1.88957 12.5591, 1.90216 12.602, 1.90216 12.6381, 1.90216 12.6633, 1.89587 12.6936, 1.88327 12.7297, 1.76991 13.1699, 1.71324 13.5793, 1.71324 13.9571, 1.71324 14.5623, 1.86152 15.0753, 2.15693 15.4961, 2.62868 16.1745, 3.45309 16.5134, 4.62903 16.5128, 4.92444 16.5134, 5.22501 16.4447, 5.53016 16.3073, 5.83531 16.1699, 6.11984 15.985, 6.38377 15.7525, 6.67346 15.4846, 6.91678 15.1869, 7.11487 14.86, 7.31295 14.5337, 7.45952 14.1959, 7.55341 13.8472, 7.61638 13.5667, 7.64787 13.3045, 7.64787 13.0595, 7.64787 12.7549, 7.60722 12.4618, 7.52535 12.1801, 7.337 11.7106, 6.98777 11.4083, 6.47823 11.2732 L 4.33648 10.6686 C 3.95289 10.5656, 3.62256 10.3961, 3.34546 10.1608, 3.06894 9.9261, 2.85368 9.64672, 2.69967 9.32268, 2.54567 8.99921, 2.45578 8.64196, 2.43059 8.25037 L 2.43059 8.04884 C 2.43059 7.74427, 2.46838 7.42366, 2.54395 7.08703, 2.6762 6.59925, 2.88688 6.13208, 3.176 5.6861, 3.46569 5.24068, 3.82408 4.84622, 4.25117 4.50386, 4.65422 4.17467, 5.0962 3.91074, 5.5771 3.71208, 6.05859 3.514, 6.53491 3.41438, 7.00666 3.41381, 7.65474 3.41438, 8.18889 3.53518, 8.61026 3.7762, 9.03163 4.0178, 9.33678 4.30291, 9.5257 4.63211 L 10.4314 3.54205 C 10.4818 3.45732, 10.5637 3.41438, 10.6764 3.41381 L 10.7618 3.41381 C 10.9129 3.41438, 10.9879 3.48766, 10.9879 3.63365 L 10.9879 3.70693 Z" stroke="none" fill="#000000" />
			<path d="M 2.37267 3.19713 C 1.72472 3.17661, 1.09441 3.16635, 0.481416 3.16635, -0.131261 3.16635, -0.761571 3.17661, -1.40951 3.19713 L -1.40951 2.75598, -1.04499 2.75598 C -0.928927 2.7563, -0.819601 2.75469, -0.717648 2.75117, -0.615375 2.74796, -0.518552 2.7393, -0.426859 2.72552, -0.335166 2.71205, -0.255976 2.69827, -0.18929 2.68416, -0.132864 2.67422, -0.086376 2.6428, -0.0495062 2.58958, -0.012316 2.53668, 0.00595856 2.47769, 0.00595856 2.41229 L 0.00595856 -3.36887 C -0.169733 -3.28295, -0.386463 -3.21787, -0.643588 -3.17362, -0.900714 -3.12906, -1.18221 -3.10694, -1.4887 -3.10726 L -1.4887 -3.54328 C -1.06615 -3.54296, -0.675969 -3.59329, -0.318494 -3.69429, 0.0389807 -3.79496, 0.348044 -3.98411, 0.608376 -4.26144 L 0.772206 -4.26144 C 0.888265 -4.26112, 0.946294 -4.20469, 0.946294 -4.09216 L 0.946294 2.41229 C 0.946294 2.4809, 0.963928 2.54085, 0.999194 2.59215, 1.03446 2.64344, 1.08576 2.67422, 1.15244 2.68416, 1.20887 2.69827, 1.28133 2.71205, 1.36917 2.72552, 1.45702 2.7393, 1.55641 2.74796, 1.66734 2.75117, 1.77827 2.75469, 1.88663 2.7563, 1.99243 2.75598 L 2.37267 2.75598, 2.37267 3.19713 Z" stroke="none" fill="#000000" transform="matrix(1.12 0 0 1 13.4546 16.3063)" />
			<rect />
		</svg>
	</g>
	<g transform="matrix(1 0 -0 1 9 68.5023)">
		<svg width="53.9427032" height="54.0428391">
			<defs />
			<path d="M 9.8841 7.99388 C 9.84631 8.16564, 9.75242 8.25094, 9.60128 8.25037, 9.58868 8.26296, 9.55719 8.26926, 9.50681 8.26869, 9.47532 8.26926, 9.45013 8.26296, 9.43124 8.25037 L 9.34651 8.25037 C 9.18277 8.25094, 9.1009 8.18968, 9.1009 8.06717 L 9.1009 8.00304 C 9.17647 7.55191, 9.21426 7.1334, 9.21426 6.7481 L 9.21426 6.40002 C 9.17647 5.93056, 9.07113 5.52579, 8.89823 5.18687, 8.72534 4.84794, 8.47229 4.58573, 8.13908 4.39909, 7.80588 4.21303, 7.38394 4.11971, 6.87441 4.11914, 6.579 4.11971, 6.27843 4.18383, 5.97328 4.31207, 5.66871 4.44032, 5.38417 4.61436, 5.11967 4.83363, 4.83055 5.07237, 4.59468 5.34259, 4.41205 5.64488, 4.22999 5.94716, 4.09774 6.25689, 4.0153 6.57406, 3.95289 6.80077, 3.91854 7.01718, 3.91167 7.22443, 3.91167 7.51183, 3.97465 7.78664, 4.1006 8.04884, 4.28323 8.4891, 4.61014 8.77021, 5.08188 8.89158 L 7.2517 9.49615 C 7.64787 9.61294, 7.98623 9.79786, 8.26618 10.0509, 8.54614 10.3045, 8.75682 10.604, 8.89823 10.9486, 9.04022 11.2938, 9.12323 11.6705, 9.14842 12.0793 L 9.14842 12.2442 C 9.14842 12.5992, 9.09804 12.9621, 8.99728 13.3343, 8.8656 13.8478, 8.65492 14.3424, 8.36523 14.8188, 8.07611 15.2951, 7.71772 15.7228, 7.28948 16.1006, 6.88071 16.4493, 6.43301 16.7287, 5.94523 16.9388, 5.45745 17.1495, 4.96853 17.2548, 4.47789 17.2548, 3.75481 17.2548, 3.13821 17.1392, 2.62868 16.9067, 2.11915 16.6754, 1.74186 16.3823, 1.49625 16.0273 L 0.562492 17.1357 C 0.481195 17.2153, 0.395891 17.2548, 0.307725 17.2548 L 0.251046 17.2548 C 0.0941787 17.2548, 0.00887477 17.1941, -0.0037204 17.0716, -0.0037204 17.035, 0.00601226 17.0018, 0.0243326 16.9708 L 1.11897 12.6839 C 1.15676 12.5133, 1.26725 12.4251, 1.44931 12.4182 L 1.65656 12.4182 C 1.73213 12.4188, 1.8014 12.4492, 1.86438 12.5098, 1.88957 12.5591, 1.90216 12.602, 1.90216 12.6381, 1.90216 12.6633, 1.89587 12.6936, 1.88327 12.7297, 1.76991 13.1699, 1.71324 13.5793, 1.71324 13.9571, 1.71324 14.5623, 1.86152 15.0753, 2.15693 15.4961, 2.62868 16.1745, 3.45309 16.5134, 4.62903 16.5128, 4.92444 16.5134, 5.22501 16.4447, 5.53016 16.3073, 5.83531 16.1699, 6.11984 15.985, 6.38377 15.7525, 6.67346 15.4846, 6.91678 15.1869, 7.11487 14.86, 7.31295 14.5337, 7.45952 14.1959, 7.55341 13.8472, 7.61638 13.5667, 7.64787 13.3045, 7.64787 13.0595, 7.64787 12.7549, 7.60722 12.4618, 7.52535 12.1801, 7.337 11.7106, 6.98777 11.4083, 6.47823 11.2732 L 4.33648 10.6686 C 3.95289 10.5656, 3.62256 10.3961, 3.34546 10.1608, 3.06894 9.9261, 2.85368 9.64672, 2.69967 9.32268, 2.54567 8.99921, 2.45578 8.64196, 2.43059 8.25037 L 2.43059 8.04884 C 2.43059 7.74427, 2.46838 7.42366, 2.54395 7.08703, 2.6762 6.59925, 2.88688 6.13208, 3.176 5.6861, 3.46569 5.24068, 3.82408 4.84622, 4.25117 4.50386, 4.65422 4.17467, 5.0962 3.91074, 5.5771 3.71208, 6.05859 3.514, 6.53491 3.41438, 7.00666 3.41381, 7.65474 3.41438, 8.18889 3.53518, 8.61026 3.7762, 9.03163 4.0178, 9.33678 4.30291, 9.5257 4.63211 L 10.4314 3.54205 C 10.4818 3.45732, 10.5637 3.41438, 10.6764 3.41381 L 10.7618 3.41381 C 10.9129 3.41438, 10.9879 3.48766, 10.9879 3.63365 L 10.9879 3.70693 Z" stroke="none" fill="#000000" />
			<path d="M 2.39138 3.19713 L -1.90858 3.19713, -1.90858 2.915 C -1.90858 2.8948, -1.898 2.86402, -1.87684 2.82266 L -0.149418 0.945196 C 0.0551279 0.71981, 0.261918 0.488975, 0.471594 0.253009, 0.68127 0.0170434, 0.868504 -0.224052, 1.03394 -0.470277, 1.19937 -0.716502, 1.33146 -0.970422, 1.4302 -1.23204, 1.52895 -1.49365, 1.578 -1.76809, 1.578 -2.05567, 1.578 -2.29805, 1.54658 -2.52472, 1.4831 -2.73503, 1.41962 -2.94535, 1.32825 -3.13002, 1.20835 -3.28904, 1.08844 -3.44806, 0.938716 -3.5763, 0.759177 -3.67377, 0.579638 -3.77123, 0.371886 -3.81996, 0.13592 -3.82028, -0.216105 -3.81996, -0.527092 -3.7148, -0.7964 -3.50449, -1.06571 -3.29417, -1.24461 -3.06237, -1.33277 -2.80974, -1.35009 -2.80268, -1.32187 -2.79915, -1.24813 -2.79948 L -1.15836 -2.79948 C -1.05256 -2.77511, -0.961191 -2.73824, -0.883605 -2.68887, -0.806018 -2.63917, -0.740935 -2.57088, -0.688036 -2.48368, -0.635136 -2.39647, -0.608846 -2.29132, -0.608846 -2.16852, -0.608846 -1.96302, -0.675532 -1.8056, -0.809545 -1.69627, -0.943558 -1.58663, -1.09328 -1.53212, -1.25871 -1.53244, -1.41709 -1.53212, -1.56489 -1.58663, -1.70243 -1.69627, -1.83965 -1.8056, -1.90858 -1.96302, -1.90858 -2.16852, -1.90858 -2.45547, -1.85215 -2.72734, -1.7393 -2.98382, -1.62645 -3.24031, -1.47352 -3.46249, -1.27987 -3.65068, -1.08623 -3.83856, -0.857315 -3.98732, -0.593136 -4.09697, -0.328958 -4.20629, -0.0487483 -4.26112, 0.24685 -4.26144, 0.612981 -4.26112, 0.948655 -4.20725, 1.25323 -4.09953, 1.55781 -3.99181, 1.8175 -3.83695, 2.0323 -3.63529, 2.24711 -3.43331, 2.41543 -3.19991, 2.53693 -2.93509, 2.65844 -2.66995, 2.71904 -2.37692, 2.71904 -2.05567, 2.71904 -1.6998, 2.63825 -1.37214, 2.47602 -1.07302, 2.31411 -0.77357, 2.11342 -0.499131, 1.87392 -0.2497, 1.63443 5.126e-005, 1.37987 0.235055, 1.11056 0.455632, 0.841252 0.676208, 0.597272 0.890693, 0.378939 1.09909 L -0.836155 2.24301, 0.754048 2.24301 C 0.975907 2.24333, 1.18302 2.24172, 1.37474 2.2382, 1.56678 2.23499, 1.72965 2.22794, 1.86334 2.21768, 1.99736 2.20742, 2.06597 2.20069, 2.06917 2.19684, 2.09738 2.17312, 2.12399 2.12534, 2.14868 2.05353, 2.17337 1.98171, 2.19613 1.89707, 2.21729 1.79961, 2.23845 1.70215, 2.25961 1.60308, 2.28077 1.50209, 2.30193 1.40142, 2.32117 1.29081, 2.3388 1.1709 L 2.72962 1.1709 Z" stroke="none" fill="#000000" transform="matrix(1.12 0 0 1 13.8775 16.3063)" />
			<rect />
		</svg>
	</g>
	<g transform="matrix(1 0 -0 1 178.565 46.5575)">
		<svg width="44.9376793" height="45.0428467">
			<defs />
			<path d="M 12.9805 7.44427 C 12.8425 7.9395, 12.6067 8.39636, 12.2735 8.81429, 11.9403 9.23279, 11.5441 9.59462, 11.0849 9.8992, 10.588 10.2416, 10.0584 10.4998, 9.49565 10.6738, 8.93288 10.8478, 8.37468 10.9349, 7.82106 10.9343 L 5.0192 10.9343, 3.8404 15.5144 C 3.80262 15.6495, 3.78372 15.756, 3.78372 15.835, 3.78372 15.9088, 3.79975 15.9546, 3.83067 15.9724, 3.91884 16.0279, 4.09231 16.06, 4.34994 16.0691, 4.60756 16.0783, 4.88409 16.0829, 5.1795 16.0823, 5.35583 16.0829, 5.444 16.1682, 5.444 16.3388 L 5.444 16.4029, 5.40622 16.5678 C 5.33751 16.751, 5.21442 16.8426, 5.03809 16.8426, 4.25261 16.806, 3.46312 16.7876, 2.67076 16.7876, 1.87211 16.7876, 1.07346 16.806, 0.274811 16.8426, 0.105348 16.8426, 0.0143191 16.7636, 0.0011514 16.6044 L 0.0011514 16.5311, 0.038937 16.3754 C 0.0893179 16.1745, 0.211835 16.0766, 0.406488 16.0823, 0.702476 16.0829, 0.982433 16.0783, 1.24636 16.0691, 1.51086 16.06, 1.70551 16.0279, 1.83089 15.9724, 1.95055 15.906, 2.04158 15.7411, 2.10455 15.4777 L 4.75527 5.15423 C 4.79306 5.02027, 4.81195 4.91664, 4.81195 4.84279, 4.81195 4.77008, 4.79649 4.72714, 4.76443 4.71455, 4.67684 4.66016, 4.50566 4.62695, 4.25089 4.61436, 3.99612 4.60234, 3.71788 4.59604, 3.4156 4.59547, 3.23984 4.59604, 3.15167 4.5136, 3.15167 4.34814 L 3.15167 4.27486, 3.20835 4.11914 C 3.24614 3.93651, 3.36236 3.84491, 3.55701 3.84433 L 9.60386 3.84433 C 10.1575 3.84491, 10.6716 3.93193, 11.1462 4.10597, 11.6214 4.28001, 12.0284 4.54108, 12.3674 4.88859, 12.6759 5.21263, 12.8929 5.59736, 13.0183 6.04277, 13.0561 6.25116, 13.075 6.46185, 13.075 6.67482, 13.075 6.91986, 13.0435 7.17634, 12.9805 7.44427 Z M 10.9716 7.39847 C 11.0786 7.01432, 11.1508 6.64162, 11.1886 6.28093 L 11.1886 6.11605 C 11.1886 5.83552, 11.1101 5.57904, 10.9527 5.3466, 10.7454 5.07237, 10.4683 4.87886, 10.1226 4.7655, 9.77676 4.65272, 9.40291 4.59604, 8.99986 4.59547 L 7.2268 4.59547 C 6.90619 4.59604, 6.7144 4.62066, 6.65142 4.66932, 6.58845 4.71856, 6.52261 4.89203, 6.45334 5.19088 L 5.14172 10.2473, 7.50046 10.2473 C 7.90923 10.2479, 8.318 10.19, 8.72677 10.0738, 9.13554 9.95817, 9.51913 9.7595, 9.87752 9.47783, 10.1981 9.2036, 10.4357 8.88299, 10.5897 8.51659, 10.7437 8.15018, 10.8708 7.77748, 10.9716 7.39847 Z" stroke="none" fill="#000000" />
			<rect />
		</svg>
	</g>
	<ellipse cx="289.62017822265625" cy="621.2535400390625" rx="7.875" ry="7.875" stroke="none" fill="#000000" transform="matrix(0.333333 0 0 0.333333 -62.3473 -127.317)" />
	<ellipse cx="378.25653076171875" cy="442.74649047851562" rx="7.875" ry="7.875" stroke="none" fill="#000000" transform="matrix(0.333333 0 0 0.333333 -62.3473 -127.317)" />
	<ellipse cx="697.34747314453125" cy="555.2452392578125" rx="7.875" ry="7.875" stroke="none" fill="#000000" transform="matrix(0.333333 0 0 0.333333 -62.3473 -127.317)" />
	<path d="M -159.545 -56.2494 L 159.545 56.2493" fill="none" stroke="#000000" stroke-width="4" stroke-linecap="round" stroke-linejoin="round" stroke-dasharray="14.02, 9.98" transform="matrix(0.333333 0 0 0.333333 116.92 39.0152)" />
	<path d="M -203.864 33.0042 L 203.864 -33.0041" fill="none" stroke="#000000" stroke-width="4" stroke-linecap="round" stroke-linejoin="round" stroke-dasharray="14.02, 9.98" transform="matrix(0.333333 0 0 0.333333 102.147 68.7663)" />
</svg>
