<?xml version="1.0"?>
<svg xmlns="http://www.w3.org/2000/svg" xmlns:xlink="http://www.w3.org/1999/xlink" width="296.666687" height="216.666672">
	<defs>
		<marker id="CustomMarker-01" markerUnits="strokeWidth" markerWidth="15.000001" markerHeight="9" viewBox="-15 -4.5 15 9" orient="auto-start-reverse">
			<path d="M 0 -0 L -10 -3, -8 -0.5, -8 0.5, -10 3 Z" fill="#000000" stroke="#000000" stroke-linejoin="round" />
		</marker>
		<marker id="CustomMarker-02" markerUnits="strokeWidth" markerWidth="15.000001" markerHeight="9" viewBox="-15 -4.5 15 9" orient="auto-start-reverse">
			<path d="M 0 -0 L -10 -3, -8 -0.5, -8 0.5, -10 3 Z" fill="#000000" stroke="#000000" stroke-linejoin="round" />
		</marker>
		<marker id="CustomMarker-03" markerUnits="strokeWidth" markerWidth="15.000001" markerHeight="9" viewBox="-15 -4.5 15 9" orient="auto-start-reverse">
			<path d="M 0 -0 L -10 -3, -8 -0.5, -8 0.5, -10 3 Z" fill="#000000" stroke="#000000" stroke-linejoin="round" />
		</marker>
		<marker id="CustomMarker-04" markerUnits="strokeWidth" markerWidth="15.000001" markerHeight="9" viewBox="-15 -4.5 15 9" orient="auto-start-reverse">
			<path d="M 0 -0 L -10 -3, -8 -0.5, -8 0.5, -10 3 Z" fill="#000000" stroke="#000000" stroke-linejoin="round" />
		</marker>
		<marker id="CustomMarker-05" markerUnits="strokeWidth" markerWidth="15.000001" markerHeight="9" viewBox="-15 -4.5 15 9" orient="auto-start-reverse">
			<path d="M 0 -0 L -10 -3, -8 -0.5, -8 0.5, -10 3 Z" fill="#000000" stroke="#000000" stroke-linejoin="round" />
		</marker>
		<marker id="CustomMarker-06" markerUnits="strokeWidth" markerWidth="15.000001" markerHeight="9" viewBox="-15 -4.5 15 9" orient="auto-start-reverse">
			<path d="M 0 -0 L -10 -3, -8 -0.5, -8 0.5, -10 3 Z" fill="#000000" stroke="#000000" stroke-linejoin="round" />
		</marker>
		<marker id="CustomMarker-07" markerUnits="strokeWidth" markerWidth="15.000001" markerHeight="9" viewBox="-15 -4.5 15 9" orient="auto-start-reverse">
			<path d="M 0 -0 L -10 -3, -8 -0.5, -8 0.5, -10 3 Z" fill="#000000" stroke="#000000" stroke-linejoin="round" />
		</marker>
		<marker id="CustomMarker-08" markerUnits="strokeWidth" markerWidth="15.000001" markerHeight="9" viewBox="-15 -4.5 15 9" orient="auto-start-reverse">
			<path d="M 0 -0 L -10 -3, -8 -0.5, -8 0.5, -10 3 Z" fill="#000000" stroke="#000000" stroke-linejoin="round" />
		</marker>
	</defs>
	<path d="M -189.015 0 L 189.015 0" fill="none" stroke="#000000" stroke-opacity="0.188235283" stroke-width="4.80000019" stroke-linecap="round" stroke-linejoin="round" transform="matrix(0.555556 0 0 0.555556 116.087 57.9347)" />
	<path d="M 15.2122 -0 C 15.2122 8.40145, 8.40145 15.2122, -0 15.2122, -8.40145 15.2122, -15.2122 8.40145, -15.2122 -0, -15.2122 -8.40145, -8.40145 -15.2122, -0 -15.2122, 8.40145 -15.2122, 15.2122 -8.40145, 15.2122 -0 Z" fill="none" stroke="#000000" stroke-opacity="0.188235283" stroke-width="4.80000019" stroke-linecap="round" stroke-linejoin="round" transform="matrix(0.555556 0 0 0.555556 231.574 47.4554)" />
	<path d="M 0 -132.533 L 0 132.534" fill="none" stroke="#000000" stroke-opacity="0.188235283" stroke-width="4.80000019" stroke-linecap="round" stroke-linejoin="round" transform="matrix(0.555556 0 0 0.555556 221.095 131.564)" />
	<path d="M -9.43225 9.43045 L 9.43079 -9.43121" fill="none" stroke="#000000" stroke-opacity="0.188235283" stroke-width="4.80000019" stroke-linecap="round" stroke-linejoin="round" transform="matrix(0.555556 0 0 0.555556 226.335 52.6955)" />
	<path d="M 0 -89.9184 L 0 89.9192" fill="none" stroke="#000000" stroke-opacity="0.188235283" stroke-width="4.80000019" stroke-linecap="round" stroke-linejoin="round" transform="matrix(0.555556 0 0 0.555556 240.025 97.8803)" />
	<path d="M -33.9071 -25.6723 L 33.9071 -25.6723, 33.9071 25.6723, -33.9071 25.6723 Z" fill="none" stroke="#000000" stroke-opacity="0.188235283" stroke-width="4.80000019" stroke-linecap="round" stroke-linejoin="round" transform="matrix(0.555556 0 -0 0.555556 240.025 162.097)" />
	<path d="M -118.198 0 L 118.197 0" fill="none" stroke="#000000" stroke-opacity="0.188235283" stroke-width="4.80000019" stroke-linecap="round" stroke-linejoin="round" transform="matrix(0.555556 0 0 0.555556 165.909 39.0044)" />
	<path d="M -25.7043 -34.0364 L 25.7043 -34.0364, 25.7043 34.0364, -25.7043 34.0364 Z" fill="none" stroke="#000000" stroke-opacity="0.188235283" stroke-width="4.80000019" stroke-linecap="round" stroke-linejoin="round" transform="matrix(0.555556 0 -0 0.555556 85.9639 39.0257)" />
	<path d="M -32.5947 0 L 32.5948 0" fill="none" stroke="#000000" stroke-width="2.4000001" stroke-linecap="round" stroke-linejoin="round" marker-end="url(#CustomMarker-01)" transform="matrix(0.555556 0 0 0.555556 106.087 39.0041)" />
	<ellipse cx="356.73504018783569" cy="448.20791006088257" rx="4.7249999046325684" ry="4.7249999046325684" stroke="none" fill="#000000" transform="matrix(0.555556 0 0 0.555556 -112.222 -210)" />
	<ellipse cx="634.04567861557007" cy="669.77547597885132" rx="4.7249999046325684" ry="4.7249999046325684" stroke="none" fill="#000000" transform="matrix(0.555556 0 0 0.555556 -112.222 -210)" />
	<g transform="matrix(1 0 -0 1 116.697 8.8511)">
		<svg width="50.9839096" height="54.0428391">
			<defs />
			<path d="M 11.7138 8.04884 C 11.6955 8.129, 11.656 8.1977, 11.5965 8.25552, 11.5369 8.31392, 11.4625 8.34254, 11.3743 8.34197 L 11.1951 8.34197 C 11.0194 8.34254, 10.9312 8.26926, 10.9312 8.12213 L 10.9312 8.05801 C 10.9816 7.78377, 11.0251 7.49866, 11.0629 7.2021, 11.1007 6.90612, 11.1322 6.62959, 11.1574 6.37254 L 11.1574 6.07941 C 11.1574 5.93972, 11.1511 5.81148, 11.1385 5.69468, 11.1133 5.50576, 11.0692 5.36263, 11.0062 5.26416, 10.8368 5.04489, 10.5997 4.89718, 10.2946 4.82046, 9.98944 4.74432, 9.64822 4.70596, 9.27037 4.70539 L 8.22325 4.70539 C 7.90894 4.70596, 7.71371 4.72428, 7.63814 4.76035, 7.58204 4.81588, 7.51906 4.99909, 7.44979 5.30996 L 4.81739 15.5144 C 4.7922 15.6065, 4.7796 15.6798, 4.7796 15.7342, 4.7796 15.8567, 4.81739 15.93, 4.89238 15.9541, 5.06872 16.0096, 5.35211 16.0451, 5.74199 16.06, 6.13187 16.0754, 6.52175 16.0829, 6.91163 16.0823, 7.08796 16.0829, 7.17613 16.1562, 7.17613 16.3021, 7.17613 16.3394, 7.16983 16.3789, 7.15723 16.4212 L 7.11945 16.5586 C 7.08166 16.7487, 6.95915 16.8426, 6.75132 16.8426, 5.71966 16.806, 4.67884 16.7876, 3.62828 16.7876, 2.58403 16.7876, 1.53404 16.806, 0.477189 16.8426, 0.383298 16.8426, 0.314024 16.8151, 0.269368 16.7602, 0.225858 16.7178, 0.20353 16.672, 0.20353 16.6228, 0.20353 16.5867, 0.209827 16.55, 0.222423 16.5128 L 0.260208 16.3754 C 0.279101 16.2964, 0.323184 16.2283, 0.392458 16.1699, 0.461732 16.1121, 0.540165 16.0829, 0.628332 16.0823, 1.01191 16.0829, 1.40523 16.0754, 1.8077 16.06, 2.21018 16.0451, 2.50445 16.0096, 2.68994 15.9546, 2.87543 15.8997, 2.99967 15.7411, 3.06207 15.4777 L 5.69447 5.26416 C 5.75745 5.05118, 5.78893 4.88916, 5.78893 4.77867 L 5.78893 4.74203 C 5.76374 4.71798, 5.59085 4.70596, 5.27024 4.70539 L 4.22255 4.70539 C 3.84584 4.70596, 3.47771 4.74604, 3.11932 4.82504, 2.76093 4.90462, 2.43975 5.05691, 2.15636 5.28248, 2.02468 5.38667, 1.89873 5.53667, 1.77908 5.7319, 1.65999 5.9277, 1.54206 6.15212, 1.42527 6.40517, 1.30905 6.65879, 1.19741 6.92902, 1.09035 7.21584, 0.983861 7.50324, 0.876801 7.79007, 0.769742 8.07633, 0.706766 8.2601, 0.590546 8.34884, 0.420511 8.34197 L 0.260208 8.34197 C 0.166317 8.34254, 0.097043 8.3122, 0.0523872 8.25037, 0.0146016 8.2143, -0.00429124 8.17136, -0.00429124 8.12213, -0.00429124 8.08606, 0.00544143 8.04942, 0.0243343 8.0122, 0.188072 7.39618, 0.392458 6.767, 0.637492 6.12578, 0.883099 5.48457, 1.11611 4.84622, 1.33595 4.21074, 1.39893 4.02811, 1.51801 3.93651, 1.69434 3.93593 L 12.0917 3.93593 C 12.268 3.93651, 12.3556 4.01265, 12.3556 4.16494 L 12.3556 4.22906 Z" stroke="none" fill="#000000" />
			<path d="M 2.37267 3.19713 C 1.72472 3.17661, 1.09441 3.16635, 0.481416 3.16635, -0.131261 3.16635, -0.761571 3.17661, -1.40951 3.19713 L -1.40951 2.75598, -1.04499 2.75598 C -0.928927 2.7563, -0.819601 2.75469, -0.717648 2.75117, -0.615375 2.74796, -0.518552 2.7393, -0.426859 2.72552, -0.335166 2.71205, -0.255976 2.69827, -0.18929 2.68416, -0.132864 2.67422, -0.086376 2.6428, -0.0495062 2.58958, -0.012316 2.53668, 0.00595856 2.47769, 0.00595856 2.41229 L 0.00595856 -3.36887 C -0.169733 -3.28295, -0.386463 -3.21787, -0.643588 -3.17362, -0.900714 -3.12906, -1.18221 -3.10694, -1.4887 -3.10726 L -1.4887 -3.54328 C -1.06615 -3.54296, -0.675969 -3.59329, -0.318494 -3.69429, 0.0389807 -3.79496, 0.348044 -3.98411, 0.608376 -4.26144 L 0.772206 -4.26144 C 0.888265 -4.26112, 0.946294 -4.20469, 0.946294 -4.09216 L 0.946294 2.41229 C 0.946294 2.4809, 0.963928 2.54085, 0.999194 2.59215, 1.03446 2.64344, 1.08576 2.67422, 1.15244 2.68416, 1.20887 2.69827, 1.28133 2.71205, 1.36917 2.72552, 1.45702 2.7393, 1.55641 2.74796, 1.66734 2.75117, 1.77827 2.75469, 1.88663 2.7563, 1.99243 2.75598 L 2.37267 2.75598, 2.37267 3.19713 Z" stroke="none" fill="#000000" transform="matrix(1.12 0 0 1 12.5717 16.3063)" />
			<rect />
		</svg>
	</g>
	<path d="M 0 47.2599 L 0 -47.2604" fill="none" stroke="#000000" stroke-width="2.4000001" stroke-linecap="round" stroke-linejoin="round" marker-end="url(#CustomMarker-02)" transform="matrix(0.555556 0 0 0.555556 240.025 135.842)" />
	<g transform="matrix(1 0 -0 1 252.492 109.176)">
		<svg width="53.9427032" height="54.0428391">
			<defs />
			<path d="M 11.7138 8.04884 C 11.6955 8.129, 11.656 8.1977, 11.5965 8.25552, 11.5369 8.31392, 11.4625 8.34254, 11.3743 8.34197 L 11.1951 8.34197 C 11.0194 8.34254, 10.9312 8.26926, 10.9312 8.12213 L 10.9312 8.05801 C 10.9816 7.78377, 11.0251 7.49866, 11.0629 7.2021, 11.1007 6.90612, 11.1322 6.62959, 11.1574 6.37254 L 11.1574 6.07941 C 11.1574 5.93972, 11.1511 5.81148, 11.1385 5.69468, 11.1133 5.50576, 11.0692 5.36263, 11.0062 5.26416, 10.8368 5.04489, 10.5997 4.89718, 10.2946 4.82046, 9.98944 4.74432, 9.64822 4.70596, 9.27037 4.70539 L 8.22325 4.70539 C 7.90894 4.70596, 7.71371 4.72428, 7.63814 4.76035, 7.58204 4.81588, 7.51906 4.99909, 7.44979 5.30996 L 4.81739 15.5144 C 4.7922 15.6065, 4.7796 15.6798, 4.7796 15.7342, 4.7796 15.8567, 4.81739 15.93, 4.89238 15.9541, 5.06872 16.0096, 5.35211 16.0451, 5.74199 16.06, 6.13187 16.0754, 6.52175 16.0829, 6.91163 16.0823, 7.08796 16.0829, 7.17613 16.1562, 7.17613 16.3021, 7.17613 16.3394, 7.16983 16.3789, 7.15723 16.4212 L 7.11945 16.5586 C 7.08166 16.7487, 6.95915 16.8426, 6.75132 16.8426, 5.71966 16.806, 4.67884 16.7876, 3.62828 16.7876, 2.58403 16.7876, 1.53404 16.806, 0.477189 16.8426, 0.383298 16.8426, 0.314024 16.8151, 0.269368 16.7602, 0.225858 16.7178, 0.20353 16.672, 0.20353 16.6228, 0.20353 16.5867, 0.209827 16.55, 0.222423 16.5128 L 0.260208 16.3754 C 0.279101 16.2964, 0.323184 16.2283, 0.392458 16.1699, 0.461732 16.1121, 0.540165 16.0829, 0.628332 16.0823, 1.01191 16.0829, 1.40523 16.0754, 1.8077 16.06, 2.21018 16.0451, 2.50445 16.0096, 2.68994 15.9546, 2.87543 15.8997, 2.99967 15.7411, 3.06207 15.4777 L 5.69447 5.26416 C 5.75745 5.05118, 5.78893 4.88916, 5.78893 4.77867 L 5.78893 4.74203 C 5.76374 4.71798, 5.59085 4.70596, 5.27024 4.70539 L 4.22255 4.70539 C 3.84584 4.70596, 3.47771 4.74604, 3.11932 4.82504, 2.76093 4.90462, 2.43975 5.05691, 2.15636 5.28248, 2.02468 5.38667, 1.89873 5.53667, 1.77908 5.7319, 1.65999 5.9277, 1.54206 6.15212, 1.42527 6.40517, 1.30905 6.65879, 1.19741 6.92902, 1.09035 7.21584, 0.983861 7.50324, 0.876801 7.79007, 0.769742 8.07633, 0.706766 8.2601, 0.590546 8.34884, 0.420511 8.34197 L 0.260208 8.34197 C 0.166317 8.34254, 0.097043 8.3122, 0.0523872 8.25037, 0.0146016 8.2143, -0.00429124 8.17136, -0.00429124 8.12213, -0.00429124 8.08606, 0.00544143 8.04942, 0.0243343 8.0122, 0.188072 7.39618, 0.392458 6.767, 0.637492 6.12578, 0.883099 5.48457, 1.11611 4.84622, 1.33595 4.21074, 1.39893 4.02811, 1.51801 3.93651, 1.69434 3.93593 L 12.0917 3.93593 C 12.268 3.93651, 12.3556 4.01265, 12.3556 4.16494 L 12.3556 4.22906 Z" stroke="none" fill="#000000" />
			<path d="M 2.39138 3.19713 L -1.90858 3.19713, -1.90858 2.915 C -1.90858 2.8948, -1.898 2.86402, -1.87684 2.82266 L -0.149418 0.945196 C 0.0551279 0.71981, 0.261918 0.488975, 0.471594 0.253009, 0.68127 0.0170434, 0.868504 -0.224052, 1.03394 -0.470277, 1.19937 -0.716502, 1.33146 -0.970422, 1.4302 -1.23204, 1.52895 -1.49365, 1.578 -1.76809, 1.578 -2.05567, 1.578 -2.29805, 1.54658 -2.52472, 1.4831 -2.73503, 1.41962 -2.94535, 1.32825 -3.13002, 1.20835 -3.28904, 1.08844 -3.44806, 0.938716 -3.5763, 0.759177 -3.67377, 0.579638 -3.77123, 0.371886 -3.81996, 0.13592 -3.82028, -0.216105 -3.81996, -0.527092 -3.7148, -0.7964 -3.50449, -1.06571 -3.29417, -1.24461 -3.06237, -1.33277 -2.80974, -1.35009 -2.80268, -1.32187 -2.79915, -1.24813 -2.79948 L -1.15836 -2.79948 C -1.05256 -2.77511, -0.961191 -2.73824, -0.883605 -2.68887, -0.806018 -2.63917, -0.740935 -2.57088, -0.688036 -2.48368, -0.635136 -2.39647, -0.608846 -2.29132, -0.608846 -2.16852, -0.608846 -1.96302, -0.675532 -1.8056, -0.809545 -1.69627, -0.943558 -1.58663, -1.09328 -1.53212, -1.25871 -1.53244, -1.41709 -1.53212, -1.56489 -1.58663, -1.70243 -1.69627, -1.83965 -1.8056, -1.90858 -1.96302, -1.90858 -2.16852, -1.90858 -2.45547, -1.85215 -2.72734, -1.7393 -2.98382, -1.62645 -3.24031, -1.47352 -3.46249, -1.27987 -3.65068, -1.08623 -3.83856, -0.857315 -3.98732, -0.593136 -4.09697, -0.328958 -4.20629, -0.0487483 -4.26112, 0.24685 -4.26144, 0.612981 -4.26112, 0.948655 -4.20725, 1.25323 -4.09953, 1.55781 -3.99181, 1.8175 -3.83695, 2.0323 -3.63529, 2.24711 -3.43331, 2.41543 -3.19991, 2.53693 -2.93509, 2.65844 -2.66995, 2.71904 -2.37692, 2.71904 -2.05567, 2.71904 -1.6998, 2.63825 -1.37214, 2.47602 -1.07302, 2.31411 -0.77357, 2.11342 -0.499131, 1.87392 -0.2497, 1.63443 5.126e-005, 1.37987 0.235055, 1.11056 0.455632, 0.841252 0.676208, 0.597272 0.890693, 0.378939 1.09909 L -0.836155 2.24301, 0.754048 2.24301 C 0.975907 2.24333, 1.18302 2.24172, 1.37474 2.2382, 1.56678 2.23499, 1.72965 2.22794, 1.86334 2.21768, 1.99736 2.20742, 2.06597 2.20069, 2.06917 2.19684, 2.09738 2.17312, 2.12399 2.12534, 2.14868 2.05353, 2.17337 1.98171, 2.19613 1.89707, 2.21729 1.79961, 2.23845 1.70215, 2.25961 1.60308, 2.28077 1.50209, 2.30193 1.40142, 2.32117 1.29081, 2.3388 1.1709 L 2.72962 1.1709 Z" stroke="none" fill="#000000" transform="matrix(1.12 0 0 1 12.9946 16.3063)" />
			<rect />
		</svg>
	</g>
	<path d="M 0 -35.4557 L 0 35.4558" fill="none" stroke="#000000" stroke-width="2.4000001" stroke-linecap="round" stroke-linejoin="round" marker-end="url(#CustomMarker-03)" transform="matrix(0.555556 0 0 0.555556 240.026 181.783)" />
	<g transform="matrix(1 0 -0 1 252.297 182.007)">
		<svg width="105.014053" height="56.9999886">
			<defs />
			<path d="M 7.60694 16.7669 L 0.0808844 16.7669, 0.0808844 16.2732 C 0.0808844 16.2379, 0.0993994 16.184, 0.136429 16.1116 L 3.15998 12.826 C 3.51737 12.4316, 3.87926 12.0277, 4.24619 11.6147, 4.61312 11.2018, 4.9419 10.7799, 5.23141 10.349, 5.52092 9.91808, 5.75207 9.47372, 5.92488 9.01589, 6.09769 8.55807, 6.18353 8.0778, 6.18353 7.57453, 6.18353 7.15037, 6.12798 6.7537, 6.01689 6.38565, 5.9058 6.01759, 5.7459 5.69442, 5.53607 5.41613, 5.32679 5.13785, 5.06478 4.91343, 4.75058 4.74286, 4.43639 4.5723, 4.07226 4.48702, 3.65932 4.48646, 3.04328 4.48702, 2.49905 4.67105, 2.0272 5.0391, 1.55591 5.40716, 1.24284 5.8128, 1.08855 6.25492, 1.05825 6.26726, 1.10762 6.27343, 1.23667 6.27287 L 1.39376 6.27287 C 1.57891 6.31551, 1.73882 6.38004, 1.87459 6.46644, 2.01037 6.5534, 2.12426 6.67291, 2.21684 6.82552, 2.30941 6.97812, 2.35542 7.16215, 2.35542 7.37704, 2.35542 7.73668, 2.23872 8.01216, 2.0042 8.20348, 1.76967 8.39536, 1.50766 8.49074, 1.21815 8.49018, 0.940989 8.49074, 0.681779 8.39536, 0.441646 8.20348, 0.201512 8.01216, 0.0808844 7.73668, 0.0808844 7.37704, 0.0808844 6.87489, 0.179631 6.39911, 0.377124 5.95026, 0.574617 5.50142, 0.842242 5.1126, 1.18112 4.78326, 1.52 4.45448, 1.9206 4.19415, 2.38291 4.00226, 2.84522 3.81094, 3.33559 3.715, 3.85345 3.71444, 4.49474 3.715, 5.08217 3.80926, 5.61518 3.99778, 6.14818 4.18629, 6.60264 4.45728, 6.97855 4.81019, 7.35446 5.16366, 7.64902 5.57211, 7.86166 6.03554, 8.0743 6.49954, 8.18034 7.01235, 8.18034 7.57453, 8.18034 8.19731, 8.03895 8.77071, 7.75506 9.29418, 7.47172 9.81821, 7.1205 10.2985, 6.70139 10.735, 6.28228 11.172, 5.83679 11.5833, 5.36494 11.9693, 4.89365 12.3553, 4.46669 12.7307, 4.08461 13.0954 L 1.95763 15.0972, 4.74104 15.0972 C 5.1293 15.0978, 5.49174 15.095, 5.82726 15.0888, 6.16333 15.0832, 6.44835 15.0708, 6.68287 15.0529, 6.9174 15.0349, 7.03746 15.0232, 7.04307 15.0164, 7.09245 14.9749, 7.13901 14.8913, 7.18222 14.7656, 7.22542 14.64, 7.26525 14.4918, 7.30228 14.3213, 7.33931 14.1507, 7.37634 13.9773, 7.41337 13.8006, 7.4504 13.6244, 7.48407 13.4309, 7.51492 13.221 L 8.19885 13.221 Z" stroke="none" fill="#000000" />
			<path d="M 24.6859 14.0762 C 24.6103 14.4003, 24.4976 14.738, 24.3464 15.089, 24.1953 15.4405, 24.0144 15.7594, 23.8037 16.0462, 23.593 16.3336, 23.3462 16.5729, 23.0634 16.7647, 22.7806 16.9571, 22.4531 17.0533, 22.0816 17.0533, 21.7673 17.0533, 21.497 16.9863, 21.2703 16.8518, 21.0442 16.7178, 20.873 16.5409, 20.7562 16.321, 20.64 16.1012, 20.5753 15.8447, 20.5627 15.551 L 20.5627 15.4777 C 20.5627 15.2155, 20.6165 14.9499, 20.723 14.6808, 20.9308 14.1438, 21.1226 13.6096, 21.2989 13.0783, 21.4753 12.5471, 21.6356 12.0129, 21.7799 11.4747, 21.8806 11.1209, 21.9499 10.7763, 21.9877 10.4396, 22.0003 10.3549, 22.0066 10.2633, 22.0066 10.1648, 22.0066 9.95187, 21.9751 9.75034, 21.9121 9.56027, 21.7987 9.17612, 21.56 8.98375, 21.1947 8.98318, 20.5535 8.98375, 19.9999 9.20531, 19.5345 9.64786, 19.069 10.091, 18.6631 10.6784, 18.3173 11.4106, 18.1227 12.2419, 17.9148 13.0709, 17.6944 13.8982, 17.4746 14.726, 17.2576 15.5516, 17.0435 16.3754, 16.9874 16.6021, 16.8712 16.771, 16.6948 16.8838, 16.5185 16.9972, 16.3456 17.0533, 16.1756 17.0533, 15.9935 17.0533, 15.8424 16.9926, 15.7227 16.8701, 15.6414 16.7911, 15.5973 16.6811, 15.5904 16.5403, 15.5904 16.4739, 15.5967 16.4063, 15.6093 16.3388 L 16.8734 11.4747 C 16.9742 11.1209, 17.0435 10.7763, 17.0813 10.4396 L 17.0813 10.1648 C 17.0813 9.94557, 17.0561 9.74405, 17.0057 9.56027, 16.8929 9.17612, 16.6542 8.98375, 16.2889 8.98318, 15.6477 8.98375, 15.0941 9.20531, 14.6286 9.64786, 14.1632 10.091, 13.7544 10.6784, 13.4017 11.4106 L 12.109 16.3754 C 12.0529 16.6021, 11.9378 16.771, 11.7649 16.8838, 11.592 16.9972, 11.4174 17.0533, 11.2411 17.0533, 11.0527 17.0533, 10.9079 16.9926, 10.8071 16.8701, 10.7258 16.7911, 10.6846 16.6811, 10.6846 16.5403, 10.6846 16.4859, 10.6909 16.4189, 10.7035 16.3388 L 12.156 10.6686 C 12.2567 10.2725, 12.3071 9.93011, 12.3071 9.64271 L 12.3071 9.42287 C 12.2762 9.13032, 12.1285 8.98375, 11.864 8.98318, 11.5869 8.98375, 11.3556 9.20703, 11.1701 9.65244, 10.9846 10.0984, 10.8043 10.6784, 10.6279 11.3923, 10.5587 11.5578, 10.4424 11.6431, 10.2787 11.6488 L 10.0617 11.6488 C 9.91058 11.6494, 9.83501 11.5732, 9.83501 11.4198 L 9.83501 11.3557 C 9.91058 11.0694, 9.99588 10.7562, 10.0903 10.4173, 10.1848 10.0784, 10.3108 9.75779, 10.4676 9.4555, 10.6251 9.15322, 10.8232 8.89673, 11.0619 8.68605, 11.3012 8.47536, 11.5995 8.37002, 11.9579 8.36945, 12.4743 8.37002, 12.8802 8.52575, 13.1756 8.83719, 13.471 9.14864, 13.625 9.45092, 13.6376 9.74347, 13.9021 9.39596, 14.2697 9.07994, 14.7414 8.79597, 15.2132 8.512, 15.7605 8.37002, 16.3828 8.36945, 16.767 8.37002, 17.1196 8.43872, 17.4402 8.57613, 17.7608 8.71353, 18.0093 8.93509, 18.1851 9.23967, 18.3362 9.50302, 18.4181 9.72286, 18.4307 9.8992, 18.7078 9.50874, 19.0913 9.15665, 19.582 8.84177, 20.0726 8.52746, 20.648 8.37002, 21.3081 8.36945, 21.6791 8.37002, 22.0255 8.43872, 22.3461 8.57613, 22.6667 8.71353, 22.9186 8.93509, 23.1006 9.23967, 23.2896 9.55168, 23.3812 9.90263, 23.3743 10.2931 L 23.3743 10.3389 C 23.3617 10.7305, 23.3056 11.1244, 23.2048 11.5205, 23.06 12.077, 22.8934 12.6238, 22.7045 13.1608, 22.5161 13.6984, 22.318 14.2417, 22.1102 14.7907, 21.9213 15.2859, 21.8268 15.701, 21.8268 16.0365, 21.8268 16.3119, 21.9465 16.4493, 22.1858 16.4487, 22.3999 16.4493, 22.5928 16.3852, 22.7657 16.2569, 22.9386 16.1287, 23.0961 15.9563, 23.2375 15.7394, 23.3794 15.523, 23.5065 15.2665, 23.6199 14.9699, 23.7333 14.6739, 23.8334 14.3608, 23.9216 14.0304, 23.9594 13.8724, 24.0699 13.7928, 24.2519 13.7923 L 24.4592 13.7923 C 24.529 13.7928, 24.6012 13.814, 24.6762 13.8564, 24.7014 13.9119, 24.714 13.9577, 24.714 13.9938, 24.714 14.019, 24.7048 14.0465, 24.6859 14.0762 Z" stroke="none" fill="#000000" />
			<path d="M 31.5188 17.9876 C 31.4123 18.3849, 31.2279 18.7513, 30.9669 19.0868, 30.7058 19.4229, 30.4024 19.7097, 30.0566 19.9479, 29.7108 20.1861, 29.3306 20.3727, 28.9156 20.5067, 28.5005 20.6412, 28.0854 20.7082, 27.6698 20.7082, 27.387 20.7082, 27.0853 20.6962, 26.7646 20.6715, 26.444 20.6475, 26.1532 20.588, 25.8921 20.4929, 25.6311 20.3985, 25.4347 20.2502, 25.3025 20.0486, 25.2017 19.9267, 25.1484 19.771, 25.1422 19.5815, 25.1422 19.4899, 25.1547 19.3834, 25.1799 19.2609, 25.2492 18.9861, 25.3906 18.7817, 25.6042 18.6471, 25.8183 18.5132, 26.0318 18.4456, 26.2454 18.4456, 26.4658 18.4456, 26.6484 18.516, 26.7927 18.6563, 26.8998 18.7605, 26.953 18.8945, 26.953 19.0594, 26.953 19.1269, 26.9404 19.2059, 26.9152 19.2975, 26.8717 19.4933, 26.7898 19.6536, 26.6702 19.7784, 26.5511 19.9038, 26.4847 19.9662, 26.4721 19.9662, 26.5099 19.9845, 26.6564 20.0109, 26.9106 20.0441, 27.1654 20.0778, 27.4534 20.0944, 27.774 20.0944, 28.0316 20.0944, 28.2818 20.0383, 28.524 19.925, 28.7661 19.8122, 28.9911 19.6548, 29.1984 19.4532, 29.4056 19.2517, 29.5883 19.0227, 29.7451 18.7662, 29.9026 18.5097, 30.0188 18.2384, 30.0944 17.951 L 30.5942 15.9907 C 30.4499 16.1315, 30.1917 16.309, 29.8207 16.5226, 29.4497 16.7367, 29.0633 16.8426, 28.6602 16.8426, 28.1765 16.8426, 27.7602 16.7229, 27.411 16.4813, 27.0618 16.2403, 26.7927 15.93, 26.6038 15.551, 26.3776 15.1119, 26.258 14.6356, 26.2454 14.122 L 26.2454 14.0121 C 26.2454 13.5426, 26.3084 13.0663, 26.4343 12.5831, 26.5666 12.0461, 26.7709 11.5291, 27.0475 11.031, 27.3246 10.5335, 27.6858 10.0675, 28.1324 9.63355, 28.4971 9.26772, 28.9104 8.96543, 29.3724 8.72727, 29.835 8.4891, 30.305 8.37002, 30.7831 8.36945, 31.1919 8.37002, 31.5319 8.4788, 31.8022 8.69521, 32.0724 8.91219, 32.2453 9.09367, 32.3203 9.23967 L 32.2733 9.41371 C 32.33 9.18814, 32.4445 9.02039, 32.6174 8.91047, 32.7903 8.80055, 32.9649 8.74559, 33.1413 8.74502, 33.3239 8.74559, 33.475 8.80341, 33.5941 8.91906, 33.676 8.99921, 33.7166 9.10913, 33.7166 9.24883, 33.7166 9.31638, 33.7103 9.38394, 33.6977 9.45035 Z M 31.9619 10.6412 C 31.9493 10.5255, 31.9304 10.4127, 31.9052 10.3028, 31.88 10.1929, 31.852 10.083, 31.8205 9.97248, 31.7197 9.68622, 31.5766 9.44978, 31.3911 9.26314, 31.2056 9.07707, 30.9714 8.98375, 30.6886 8.98318, 30.4247 8.98375, 30.1636 9.07879, 29.906 9.26772, 29.6484 9.45722, 29.4125 9.69538, 29.1984 9.98164, 28.9093 10.379, 28.6894 10.802, 28.5383 11.2509, 28.3871 11.6997, 28.2457 12.156, 28.1135 12.6198, 28.0001 13.0967, 27.9028 13.561, 27.8209 14.0121, 27.7705 14.2325, 27.7454 14.4461, 27.7454 14.6533, 27.7454 14.8737, 27.7705 15.0844, 27.8209 15.2854, 27.8776 15.5607, 27.9847 15.7897, 28.1415 15.973, 28.299 16.1562, 28.5097 16.2478, 28.7736 16.2472, 29.0633 16.2478, 29.3524 16.1487, 29.6415 15.9501, 29.9312 15.752, 30.2014 15.5121, 30.4528 15.2304, 30.6354 15.0174, 30.8083 14.785, 30.9714 14.5342 L 31.9619 10.6412 Z" stroke="none" fill="#000000" />
			<rect />
		</svg>
	</g>
	<path d="M 0 -47.2603 L 0 47.2599" fill="none" stroke="#000000" stroke-width="2.4000001" stroke-linecap="round" stroke-linejoin="round" marker-end="url(#CustomMarker-04)" transform="matrix(0.555556 0 0 0.555556 240.026 73.985)" />
	<g transform="matrix(1 0 -0 1 252.492 80.3307)">
		<svg width="53.9427032" height="54.0428391">
			<defs />
			<path d="M 11.7138 8.04884 C 11.6955 8.129, 11.656 8.1977, 11.5965 8.25552, 11.5369 8.31392, 11.4625 8.34254, 11.3743 8.34197 L 11.1951 8.34197 C 11.0194 8.34254, 10.9312 8.26926, 10.9312 8.12213 L 10.9312 8.05801 C 10.9816 7.78377, 11.0251 7.49866, 11.0629 7.2021, 11.1007 6.90612, 11.1322 6.62959, 11.1574 6.37254 L 11.1574 6.07941 C 11.1574 5.93972, 11.1511 5.81148, 11.1385 5.69468, 11.1133 5.50576, 11.0692 5.36263, 11.0062 5.26416, 10.8368 5.04489, 10.5997 4.89718, 10.2946 4.82046, 9.98944 4.74432, 9.64822 4.70596, 9.27037 4.70539 L 8.22325 4.70539 C 7.90894 4.70596, 7.71371 4.72428, 7.63814 4.76035, 7.58204 4.81588, 7.51906 4.99909, 7.44979 5.30996 L 4.81739 15.5144 C 4.7922 15.6065, 4.7796 15.6798, 4.7796 15.7342, 4.7796 15.8567, 4.81739 15.93, 4.89238 15.9541, 5.06872 16.0096, 5.35211 16.0451, 5.74199 16.06, 6.13187 16.0754, 6.52175 16.0829, 6.91163 16.0823, 7.08796 16.0829, 7.17613 16.1562, 7.17613 16.3021, 7.17613 16.3394, 7.16983 16.3789, 7.15723 16.4212 L 7.11945 16.5586 C 7.08166 16.7487, 6.95915 16.8426, 6.75132 16.8426, 5.71966 16.806, 4.67884 16.7876, 3.62828 16.7876, 2.58403 16.7876, 1.53404 16.806, 0.477189 16.8426, 0.383298 16.8426, 0.314024 16.8151, 0.269368 16.7602, 0.225858 16.7178, 0.20353 16.672, 0.20353 16.6228, 0.20353 16.5867, 0.209827 16.55, 0.222423 16.5128 L 0.260208 16.3754 C 0.279101 16.2964, 0.323184 16.2283, 0.392458 16.1699, 0.461732 16.1121, 0.540165 16.0829, 0.628332 16.0823, 1.01191 16.0829, 1.40523 16.0754, 1.8077 16.06, 2.21018 16.0451, 2.50445 16.0096, 2.68994 15.9546, 2.87543 15.8997, 2.99967 15.7411, 3.06207 15.4777 L 5.69447 5.26416 C 5.75745 5.05118, 5.78893 4.88916, 5.78893 4.77867 L 5.78893 4.74203 C 5.76374 4.71798, 5.59085 4.70596, 5.27024 4.70539 L 4.22255 4.70539 C 3.84584 4.70596, 3.47771 4.74604, 3.11932 4.82504, 2.76093 4.90462, 2.43975 5.05691, 2.15636 5.28248, 2.02468 5.38667, 1.89873 5.53667, 1.77908 5.7319, 1.65999 5.9277, 1.54206 6.15212, 1.42527 6.40517, 1.30905 6.65879, 1.19741 6.92902, 1.09035 7.21584, 0.983861 7.50324, 0.876801 7.79007, 0.769742 8.07633, 0.706766 8.2601, 0.590546 8.34884, 0.420511 8.34197 L 0.260208 8.34197 C 0.166317 8.34254, 0.097043 8.3122, 0.0523872 8.25037, 0.0146016 8.2143, -0.00429124 8.17136, -0.00429124 8.12213, -0.00429124 8.08606, 0.00544143 8.04942, 0.0243343 8.0122, 0.188072 7.39618, 0.392458 6.767, 0.637492 6.12578, 0.883099 5.48457, 1.11611 4.84622, 1.33595 4.21074, 1.39893 4.02811, 1.51801 3.93651, 1.69434 3.93593 L 12.0917 3.93593 C 12.268 3.93651, 12.3556 4.01265, 12.3556 4.16494 L 12.3556 4.22906 Z" stroke="none" fill="#000000" />
			<path d="M 2.39138 3.19713 L -1.90858 3.19713, -1.90858 2.915 C -1.90858 2.8948, -1.898 2.86402, -1.87684 2.82266 L -0.149418 0.945196 C 0.0551279 0.71981, 0.261918 0.488975, 0.471594 0.253009, 0.68127 0.0170434, 0.868504 -0.224052, 1.03394 -0.470277, 1.19937 -0.716502, 1.33146 -0.970422, 1.4302 -1.23204, 1.52895 -1.49365, 1.578 -1.76809, 1.578 -2.05567, 1.578 -2.29805, 1.54658 -2.52472, 1.4831 -2.73503, 1.41962 -2.94535, 1.32825 -3.13002, 1.20835 -3.28904, 1.08844 -3.44806, 0.938716 -3.5763, 0.759177 -3.67377, 0.579638 -3.77123, 0.371886 -3.81996, 0.13592 -3.82028, -0.216105 -3.81996, -0.527092 -3.7148, -0.7964 -3.50449, -1.06571 -3.29417, -1.24461 -3.06237, -1.33277 -2.80974, -1.35009 -2.80268, -1.32187 -2.79915, -1.24813 -2.79948 L -1.15836 -2.79948 C -1.05256 -2.77511, -0.961191 -2.73824, -0.883605 -2.68887, -0.806018 -2.63917, -0.740935 -2.57088, -0.688036 -2.48368, -0.635136 -2.39647, -0.608846 -2.29132, -0.608846 -2.16852, -0.608846 -1.96302, -0.675532 -1.8056, -0.809545 -1.69627, -0.943558 -1.58663, -1.09328 -1.53212, -1.25871 -1.53244, -1.41709 -1.53212, -1.56489 -1.58663, -1.70243 -1.69627, -1.83965 -1.8056, -1.90858 -1.96302, -1.90858 -2.16852, -1.90858 -2.45547, -1.85215 -2.72734, -1.7393 -2.98382, -1.62645 -3.24031, -1.47352 -3.46249, -1.27987 -3.65068, -1.08623 -3.83856, -0.857315 -3.98732, -0.593136 -4.09697, -0.328958 -4.20629, -0.0487483 -4.26112, 0.24685 -4.26144, 0.612981 -4.26112, 0.948655 -4.20725, 1.25323 -4.09953, 1.55781 -3.99181, 1.8175 -3.83695, 2.0323 -3.63529, 2.24711 -3.43331, 2.41543 -3.19991, 2.53693 -2.93509, 2.65844 -2.66995, 2.71904 -2.37692, 2.71904 -2.05567, 2.71904 -1.6998, 2.63825 -1.37214, 2.47602 -1.07302, 2.31411 -0.77357, 2.11342 -0.499131, 1.87392 -0.2497, 1.63443 5.126e-005, 1.37987 0.235055, 1.11056 0.455632, 0.841252 0.676208, 0.597272 0.890693, 0.378939 1.09909 L -0.836155 2.24301, 0.754048 2.24301 C 0.975907 2.24333, 1.18302 2.24172, 1.37474 2.2382, 1.56678 2.23499, 1.72965 2.22794, 1.86334 2.21768, 1.99736 2.20742, 2.06597 2.20069, 2.06917 2.19684, 2.09738 2.17312, 2.12399 2.12534, 2.14868 2.05353, 2.17337 1.98171, 2.19613 1.89707, 2.21729 1.79961, 2.23845 1.70215, 2.25961 1.60308, 2.28077 1.50209, 2.30193 1.40142, 2.32117 1.29081, 2.3388 1.1709 L 2.72962 1.1709 Z" stroke="none" fill="#000000" transform="matrix(1.12 0 0 1 12.9946 16.3063)" />
			<rect />
		</svg>
	</g>
	<path d="M 32.5942 0 L -32.5948 0" fill="none" stroke="#000000" stroke-width="2.4000001" stroke-linecap="round" stroke-linejoin="round" marker-end="url(#CustomMarker-05)" transform="matrix(0.555556 0 0 0.555556 212.685 39.0041)" />
	<g transform="matrix(1 0 -0 1 187.197 8.8511)">
		<svg width="50.9839096" height="54.0428391">
			<defs />
			<path d="M 11.7138 8.04884 C 11.6955 8.129, 11.656 8.1977, 11.5965 8.25552, 11.5369 8.31392, 11.4625 8.34254, 11.3743 8.34197 L 11.1951 8.34197 C 11.0194 8.34254, 10.9312 8.26926, 10.9312 8.12213 L 10.9312 8.05801 C 10.9816 7.78377, 11.0251 7.49866, 11.0629 7.2021, 11.1007 6.90612, 11.1322 6.62959, 11.1574 6.37254 L 11.1574 6.07941 C 11.1574 5.93972, 11.1511 5.81148, 11.1385 5.69468, 11.1133 5.50576, 11.0692 5.36263, 11.0062 5.26416, 10.8368 5.04489, 10.5997 4.89718, 10.2946 4.82046, 9.98944 4.74432, 9.64822 4.70596, 9.27037 4.70539 L 8.22325 4.70539 C 7.90894 4.70596, 7.71371 4.72428, 7.63814 4.76035, 7.58204 4.81588, 7.51906 4.99909, 7.44979 5.30996 L 4.81739 15.5144 C 4.7922 15.6065, 4.7796 15.6798, 4.7796 15.7342, 4.7796 15.8567, 4.81739 15.93, 4.89238 15.9541, 5.06872 16.0096, 5.35211 16.0451, 5.74199 16.06, 6.13187 16.0754, 6.52175 16.0829, 6.91163 16.0823, 7.08796 16.0829, 7.17613 16.1562, 7.17613 16.3021, 7.17613 16.3394, 7.16983 16.3789, 7.15723 16.4212 L 7.11945 16.5586 C 7.08166 16.7487, 6.95915 16.8426, 6.75132 16.8426, 5.71966 16.806, 4.67884 16.7876, 3.62828 16.7876, 2.58403 16.7876, 1.53404 16.806, 0.477189 16.8426, 0.383298 16.8426, 0.314024 16.8151, 0.269368 16.7602, 0.225858 16.7178, 0.20353 16.672, 0.20353 16.6228, 0.20353 16.5867, 0.209827 16.55, 0.222423 16.5128 L 0.260208 16.3754 C 0.279101 16.2964, 0.323184 16.2283, 0.392458 16.1699, 0.461732 16.1121, 0.540165 16.0829, 0.628332 16.0823, 1.01191 16.0829, 1.40523 16.0754, 1.8077 16.06, 2.21018 16.0451, 2.50445 16.0096, 2.68994 15.9546, 2.87543 15.8997, 2.99967 15.7411, 3.06207 15.4777 L 5.69447 5.26416 C 5.75745 5.05118, 5.78893 4.88916, 5.78893 4.77867 L 5.78893 4.74203 C 5.76374 4.71798, 5.59085 4.70596, 5.27024 4.70539 L 4.22255 4.70539 C 3.84584 4.70596, 3.47771 4.74604, 3.11932 4.82504, 2.76093 4.90462, 2.43975 5.05691, 2.15636 5.28248, 2.02468 5.38667, 1.89873 5.53667, 1.77908 5.7319, 1.65999 5.9277, 1.54206 6.15212, 1.42527 6.40517, 1.30905 6.65879, 1.19741 6.92902, 1.09035 7.21584, 0.983861 7.50324, 0.876801 7.79007, 0.769742 8.07633, 0.706766 8.2601, 0.590546 8.34884, 0.420511 8.34197 L 0.260208 8.34197 C 0.166317 8.34254, 0.097043 8.3122, 0.0523872 8.25037, 0.0146016 8.2143, -0.00429124 8.17136, -0.00429124 8.12213, -0.00429124 8.08606, 0.00544143 8.04942, 0.0243343 8.0122, 0.188072 7.39618, 0.392458 6.767, 0.637492 6.12578, 0.883099 5.48457, 1.11611 4.84622, 1.33595 4.21074, 1.39893 4.02811, 1.51801 3.93651, 1.69434 3.93593 L 12.0917 3.93593 C 12.268 3.93651, 12.3556 4.01265, 12.3556 4.16494 L 12.3556 4.22906 Z" stroke="none" fill="#000000" />
			<path d="M 2.37267 3.19713 C 1.72472 3.17661, 1.09441 3.16635, 0.481416 3.16635, -0.131261 3.16635, -0.761571 3.17661, -1.40951 3.19713 L -1.40951 2.75598, -1.04499 2.75598 C -0.928927 2.7563, -0.819601 2.75469, -0.717648 2.75117, -0.615375 2.74796, -0.518552 2.7393, -0.426859 2.72552, -0.335166 2.71205, -0.255976 2.69827, -0.18929 2.68416, -0.132864 2.67422, -0.086376 2.6428, -0.0495062 2.58958, -0.012316 2.53668, 0.00595856 2.47769, 0.00595856 2.41229 L 0.00595856 -3.36887 C -0.169733 -3.28295, -0.386463 -3.21787, -0.643588 -3.17362, -0.900714 -3.12906, -1.18221 -3.10694, -1.4887 -3.10726 L -1.4887 -3.54328 C -1.06615 -3.54296, -0.675969 -3.59329, -0.318494 -3.69429, 0.0389807 -3.79496, 0.348044 -3.98411, 0.608376 -4.26144 L 0.772206 -4.26144 C 0.888265 -4.26112, 0.946294 -4.20469, 0.946294 -4.09216 L 0.946294 2.41229 C 0.946294 2.4809, 0.963928 2.54085, 0.999194 2.59215, 1.03446 2.64344, 1.08576 2.67422, 1.15244 2.68416, 1.20887 2.69827, 1.28133 2.71205, 1.36917 2.72552, 1.45702 2.7393, 1.55641 2.74796, 1.66734 2.75117, 1.77827 2.75469, 1.88663 2.7563, 1.99243 2.75598 L 2.37267 2.75598, 2.37267 3.19713 Z" stroke="none" fill="#000000" transform="matrix(1.12 0 0 1 12.5717 16.3063)" />
			<rect />
		</svg>
	</g>
	<path d="M -32.5948 0 L 32.5948 0" fill="none" stroke="#000000" stroke-width="2.4000001" stroke-linecap="round" stroke-linejoin="round" marker-end="url(#CustomMarker-06)" transform="matrix(0.555556 0 0 0.555556 87.3116 69.0601)" />
	<g transform="matrix(1 0 -0 1 80.5807 71.0136)">
		<svg width="30.0150681" height="32.9571342">
			<defs />
			<path d="M 8.46055 14.0579 C 8.38498 14.3579, 8.30025 14.6785, 8.20578 15.0203, 8.11189 15.3627, 7.98594 15.6798, 7.8285 15.973, 7.67163 16.2661, 7.47354 16.5197, 7.23423 16.7332, 6.9955 16.9468, 6.69665 17.0533, 6.33826 17.0533, 5.86021 17.0533, 5.47835 16.921, 5.19209 16.6554, 4.90584 16.3897, 4.74095 16.1195, 4.69687 15.8441, 4.48333 16.0892, 4.16444 16.352, 3.73964 16.6325, 3.31483 16.913, 2.86656 17.0533, 2.39481 17.0533, 1.89844 17.0533, 1.48223 16.9285, 1.14559 16.6783, 0.808958 16.4281, 0.546749 16.1132, 0.35782 15.7342, 0.131106 15.2831, 0.011452 14.7976, -0.00114328 14.2778 L -0.00114328 14.1403 C -0.00114328 13.6583, 0.0652679 13.1762, 0.196945 12.693, 0.348088 12.1623, 0.559344 11.6373, 0.829568 11.1181, 1.09979 10.5994, 1.45818 10.1167, 1.90474 9.67019, 2.26943 9.30436, 2.68622 8.99635, 3.15453 8.74559, 3.62284 8.4954, 4.09917 8.37002, 4.58351 8.36945, 5.00488 8.37002, 5.34782 8.48166, 5.61174 8.70437, 5.87624 8.92765, 6.04284 9.112, 6.11154 9.25799 L 6.07376 9.41371 C 6.11841 9.18814, 6.22375 9.01753, 6.39036 8.90131, 6.55696 8.78566, 6.72527 8.72727, 6.89474 8.7267, 7.08996 8.72727, 7.2537 8.78509, 7.38538 8.90074, 7.46725 8.99291, 7.51133 9.11486, 7.51705 9.26715, 7.51705 9.32268, 7.51076 9.38394, 7.49816 9.45035 L 6.14017 14.7449 C 6.07719 14.9957, 6.03311 15.231, 6.00792 15.4503, 5.99532 15.5607, 5.98903 15.6615, 5.98903 15.7525, 5.98903 15.8327, 5.99532 15.918, 6.00792 16.009, 6.02681 16.1562, 6.07089 16.2661, 6.14017 16.3394, 6.20944 16.4126, 6.30677 16.4493, 6.43215 16.4487, 6.5644 16.4493, 6.68863 16.3943, 6.80485 16.2844, 6.92164 16.1745, 7.0287 16.0113, 7.12603 15.7943, 7.22336 15.5779, 7.3161 15.318, 7.40427 15.0157, 7.49244 14.7134, 7.58347 14.3854, 7.67736 14.0304, 7.71514 13.8724, 7.8222 13.7928, 7.99853 13.7923 L 8.21552 13.7923 C 8.37925 13.7928, 8.46055 13.8598, 8.46055 13.9938 L 8.46055 14.0579 Z M 5.76288 10.687 C 5.73769 10.5776, 5.71594 10.4631, 5.69705 10.344, 5.67815 10.225, 5.64953 10.1076, 5.61174 9.9908, 5.51098 9.70454, 5.36785 9.46466, 5.18236 9.2723, 4.99687 9.07994, 4.76271 8.98375, 4.47989 8.98318, 4.21596 8.98375, 3.9549 9.07879, 3.69727 9.26772, 3.43964 9.45722, 3.20319 9.70111, 2.98908 9.99996, 2.68793 10.4219, 2.46179 10.8604, 2.31065 11.315, 2.15951 11.7702, 2.02096 12.2448, 1.89501 12.7388, 1.76963 13.2278, 1.66601 13.7012, 1.58356 14.1587, 1.53376 14.3911, 1.50856 14.611, 1.50856 14.8182, 1.50856 15.0386, 1.53376 15.2522, 1.58356 15.4594, 1.64081 15.7468, 1.74272 15.9838, 1.89043 16.1699, 2.03814 16.3565, 2.24424 16.4493, 2.50817 16.4487, 2.79786 16.4493, 3.08869 16.3485, 3.38067 16.147, 3.67322 15.9455, 3.94517 15.6981, 4.1965 15.4045, 4.29726 15.2831, 4.39344 15.1657, 4.48447 15.0524, 4.57607 14.9396, 4.65622 14.8188, 4.72492 14.69 L 5.76288 10.687 Z" stroke="none" fill="#000000" />
			<rect />
		</svg>
	</g>
	<path d="M 0 -32.5947 L 0 32.5948" fill="none" stroke="#000000" stroke-width="2.4000001" stroke-linecap="round" stroke-linejoin="round" marker-end="url(#CustomMarker-07)" transform="matrix(0.555556 0 0 0.555556 208.639 164.998)" />
	<g transform="matrix(1 0 -0 1 188.008 150.878)">
		<svg width="30.0150681" height="32.9571342">
			<defs />
			<path d="M 8.46055 14.0579 C 8.38498 14.3579, 8.30025 14.6785, 8.20578 15.0203, 8.11189 15.3627, 7.98594 15.6798, 7.8285 15.973, 7.67163 16.2661, 7.47354 16.5197, 7.23423 16.7332, 6.9955 16.9468, 6.69665 17.0533, 6.33826 17.0533, 5.86021 17.0533, 5.47835 16.921, 5.19209 16.6554, 4.90584 16.3897, 4.74095 16.1195, 4.69687 15.8441, 4.48333 16.0892, 4.16444 16.352, 3.73964 16.6325, 3.31483 16.913, 2.86656 17.0533, 2.39481 17.0533, 1.89844 17.0533, 1.48223 16.9285, 1.14559 16.6783, 0.808958 16.4281, 0.546749 16.1132, 0.35782 15.7342, 0.131106 15.2831, 0.011452 14.7976, -0.00114328 14.2778 L -0.00114328 14.1403 C -0.00114328 13.6583, 0.0652679 13.1762, 0.196945 12.693, 0.348088 12.1623, 0.559344 11.6373, 0.829568 11.1181, 1.09979 10.5994, 1.45818 10.1167, 1.90474 9.67019, 2.26943 9.30436, 2.68622 8.99635, 3.15453 8.74559, 3.62284 8.4954, 4.09917 8.37002, 4.58351 8.36945, 5.00488 8.37002, 5.34782 8.48166, 5.61174 8.70437, 5.87624 8.92765, 6.04284 9.112, 6.11154 9.25799 L 6.07376 9.41371 C 6.11841 9.18814, 6.22375 9.01753, 6.39036 8.90131, 6.55696 8.78566, 6.72527 8.72727, 6.89474 8.7267, 7.08996 8.72727, 7.2537 8.78509, 7.38538 8.90074, 7.46725 8.99291, 7.51133 9.11486, 7.51705 9.26715, 7.51705 9.32268, 7.51076 9.38394, 7.49816 9.45035 L 6.14017 14.7449 C 6.07719 14.9957, 6.03311 15.231, 6.00792 15.4503, 5.99532 15.5607, 5.98903 15.6615, 5.98903 15.7525, 5.98903 15.8327, 5.99532 15.918, 6.00792 16.009, 6.02681 16.1562, 6.07089 16.2661, 6.14017 16.3394, 6.20944 16.4126, 6.30677 16.4493, 6.43215 16.4487, 6.5644 16.4493, 6.68863 16.3943, 6.80485 16.2844, 6.92164 16.1745, 7.0287 16.0113, 7.12603 15.7943, 7.22336 15.5779, 7.3161 15.318, 7.40427 15.0157, 7.49244 14.7134, 7.58347 14.3854, 7.67736 14.0304, 7.71514 13.8724, 7.8222 13.7928, 7.99853 13.7923 L 8.21552 13.7923 C 8.37925 13.7928, 8.46055 13.8598, 8.46055 13.9938 L 8.46055 14.0579 Z M 5.76288 10.687 C 5.73769 10.5776, 5.71594 10.4631, 5.69705 10.344, 5.67815 10.225, 5.64953 10.1076, 5.61174 9.9908, 5.51098 9.70454, 5.36785 9.46466, 5.18236 9.2723, 4.99687 9.07994, 4.76271 8.98375, 4.47989 8.98318, 4.21596 8.98375, 3.9549 9.07879, 3.69727 9.26772, 3.43964 9.45722, 3.20319 9.70111, 2.98908 9.99996, 2.68793 10.4219, 2.46179 10.8604, 2.31065 11.315, 2.15951 11.7702, 2.02096 12.2448, 1.89501 12.7388, 1.76963 13.2278, 1.66601 13.7012, 1.58356 14.1587, 1.53376 14.3911, 1.50856 14.611, 1.50856 14.8182, 1.50856 15.0386, 1.53376 15.2522, 1.58356 15.4594, 1.64081 15.7468, 1.74272 15.9838, 1.89043 16.1699, 2.03814 16.3565, 2.24424 16.4493, 2.50817 16.4487, 2.79786 16.4493, 3.08869 16.3485, 3.38067 16.147, 3.67322 15.9455, 3.94517 15.6981, 4.1965 15.4045, 4.29726 15.2831, 4.39344 15.1657, 4.48447 15.0524, 4.57607 14.9396, 4.65622 14.8188, 4.72492 14.69 L 5.76288 10.687 Z" stroke="none" fill="#000000" />
			<rect />
		</svg>
	</g>
	<path d="M -44.3194 -9.03424 L -38.7421 -23.3443 C -33.0611 -32.7697, -24.0317 -39.9663, -13.1661 -43.2723" fill="none" stroke="#000000" stroke-width="2.4000001" stroke-linecap="round" stroke-linejoin="round" marker-start="url(#CustomMarker-08)" transform="matrix(-0.555556 8.38865e-008 8.38866e-008 0.555556 230.793 47.9256)" />
	<g transform="matrix(1 0 -0 1 254.911 4.03233)">
		<svg width="39.020092" height="32.9571342">
			<defs />
			<path d="M 11.024 9.57859 C 10.7978 10.4339, 10.4772 11.2589, 10.0616 12.0524, 9.6465 12.8465, 9.15586 13.5667, 8.58965 14.2136, 8.58965 14.5136, 8.59595 14.8039, 8.60854 15.0844, 8.62114 15.3655, 8.64977 15.6111, 8.69385 15.8218, 8.73793 16.0325, 8.79461 16.1899, 8.86331 16.2936, 8.93258 16.3978, 9.02361 16.4493, 9.13697 16.4487, 9.34479 16.4493, 9.54288 16.3668, 9.73181 16.202, 9.92074 16.0371, 10.0433 15.8384, 10.0994 15.606, 10.1371 15.4354, 10.2476 15.3501, 10.4297 15.3495 L 10.5431 15.3495 C 10.6879 15.3501, 10.7663 15.4233, 10.7789 15.5693 L 10.7789 15.6335 C 10.7348 15.8293, 10.6564 16.013, 10.5431 16.1836, 10.4297 16.3548, 10.2929 16.506, 10.1326 16.6371, 9.97226 16.7682, 9.79765 16.8701, 9.60872 16.9434, 9.42036 17.0166, 9.22227 17.0533, 9.01445 17.0533, 8.46713 17.0533, 8.05206 16.889, 7.76925 16.5592, 7.48643 16.2294, 7.30379 15.8842, 7.22193 15.5235, 6.67461 15.9701, 6.04885 16.3365, 5.34409 16.6233, 4.63991 16.9102, 3.90709 17.0533, 3.14566 17.0533, 2.59261 17.0533, 2.08938 16.9405, 1.63652 16.7149, 1.18367 16.4894, 0.825274 16.1653, 0.560775 15.7434, 0.277955 15.3346, 0.101622 14.8617, 0.0323482 14.3236, 0.00715774 14.1713, -0.00543743 14.0064, -0.00543743 13.8289, -0.00543743 13.4631, 0.0483785 13.0846, 0.154865 12.693, 0.306008 12.1257, 0.547035 11.5807, 0.8768 11.0585, 1.20714 10.5364, 1.61763 10.0647, 2.1077 9.64271, 2.58631 9.25226, 3.10386 8.94253, 3.66034 8.71353, 4.21682 8.48452, 4.77216 8.37002, 5.3252 8.36945, 5.85363 8.37002, 6.3208 8.46964, 6.72613 8.66773, 7.13204 8.86639, 7.47497 9.13375, 7.75493 9.46924, 8.03489 9.8053, 8.24386 10.1975, 8.3824 10.6463, 8.52095 11.0952, 8.58965 11.5669, 8.58965 12.061 L 8.58965 13.2701 C 8.92342 12.8373, 9.25663 12.2848, 9.58983 11.6127, 9.92303 10.9412, 10.1778 10.2542, 10.3541 9.55111, 10.3919 9.3805, 10.5024 9.29234, 10.6845 9.28547 L 10.7789 9.28547 C 10.9427 9.28604, 11.024 9.35932, 11.024 9.50531 L 11.024 9.57859 Z M 7.09884 14.8732 C 7.09311 14.8308, 7.08681 14.7672, 7.08052 14.6814, 7.07422 14.5961, 7.07078 14.5102, 7.07078 14.4243 L 7.07078 12.3633 C 7.07078 11.9179, 7.04101 11.4925, 6.98147 11.086, 6.92193 10.6801, 6.82403 10.3183, 6.68892 10.0005, 6.55381 9.68336, 6.36774 9.43432, 6.13187 9.25398, 5.89599 9.07421, 5.5897 8.98375, 5.21184 8.98318, 4.85975 8.98375, 4.50422 9.07707, 4.14583 9.26314, 3.78744 9.44978, 3.46683 9.70454, 3.18344 10.0274, 2.83135 10.419, 2.56227 10.845, 2.37678 11.3059, 2.19128 11.7673, 2.03556 12.2448, 1.90961 12.7388, 1.78423 13.2278, 1.6932 13.6984, 1.63595 14.1495, 1.62335 14.2663, 1.61706 14.3819, 1.61706 14.4976, 1.61706 14.8216, 1.67087 15.1331, 1.77793 15.4319, 1.89758 15.7377, 2.08308 15.9838, 2.33441 16.1699, 2.58631 16.3565, 2.88803 16.4493, 3.24012 16.4487, 3.95118 16.4493, 4.63533 16.309, 5.29257 16.0279, 5.94981 15.7474, 6.55209 15.3621, 7.09884 14.8732 Z" stroke="none" fill="#000000" />
			<rect />
		</svg>
	</g>
</svg>
