<?xml version="1.0"?>
<svg xmlns="http://www.w3.org/2000/svg" xmlns:xlink="http://www.w3.org/1999/xlink" width="244.956833" height="168.208694">
	<defs />
	<path d="M 0 -93.6091 L 0 -66.8018" fill="none" stroke="#000000" stroke-width="4.4000001" stroke-linecap="round" stroke-linejoin="round" transform="matrix(0.227273 -6.86345e-008 6.86345e-008 0.227273 113.062 52.2915)" />
	<path d="M 0 93.6091 L 0 66.8018" fill="none" stroke="#000000" stroke-width="4.4000001" stroke-linecap="round" stroke-linejoin="round" transform="matrix(0.227273 -6.86345e-008 6.86345e-008 0.227273 113.062 52.2915)" />
	<path d="M 66.8018 -0 C 66.8018 36.8936, 36.8936 66.8018, -0 66.8018, -36.8936 66.8018, -66.8018 36.8936, -66.8018 -0, -66.8018 -36.8936, -36.8936 -66.8018, -0 -66.8018, 36.8936 -66.8018, 66.8018 -36.8936, 66.8018 -0 Z" stroke="none" fill="#FFFFFF" transform="matrix(0.227273 -6.86345e-008 6.86345e-008 0.227273 113.062 52.2915)" />
	<path d="M 66.8018 -0 C 66.8018 36.8936, 36.8936 66.8018, -0 66.8018, -36.8936 66.8018, -66.8018 36.8936, -66.8018 -0, -66.8018 -36.8936, -36.8936 -66.8018, -0 -66.8018, 36.8936 -66.8018, 66.8018 -36.8936, 66.8018 -0 Z" fill="none" stroke="#000000" stroke-width="6.60000038" stroke-linecap="round" stroke-linejoin="round" transform="matrix(0.227273 -6.86345e-008 6.86345e-008 0.227273 113.062 52.2915)" />
	<path d="M 0 -66.8018 L 0 66.8018" fill="none" stroke="#000000" stroke-width="4.4000001" stroke-linecap="round" stroke-linejoin="round" transform="matrix(0.227273 -6.86345e-008 6.86345e-008 0.227273 113.062 52.2915)" />
	<path d="M -86.8423 -93.6091 L -46.7612 -93.6091" fill="none" stroke="#000000" stroke-width="4.4000001" stroke-linecap="round" stroke-linejoin="round" transform="matrix(0.227273 -6.86345e-008 6.86345e-008 0.227273 113.062 52.2915)" />
	<path d="M -66.8018 -113.65 L -66.8018 -73.5686" fill="none" stroke="#000000" stroke-width="4.4000001" stroke-linecap="round" stroke-linejoin="round" transform="matrix(0.227273 -6.86345e-008 6.86345e-008 0.227273 113.062 52.2915)" />
	<path d="M -86.8423 93.6091 L -46.7612 93.6091" fill="none" stroke="#000000" stroke-width="4.4000001" stroke-linecap="round" stroke-linejoin="round" transform="matrix(0.227273 -6.86345e-008 6.86345e-008 0.227273 113.062 52.2915)" />
	<path d="M -174.301 -332.659 L 174.301 -332.659, 174.301 332.659, -174.301 332.659 Z" fill="none" stroke="#000000" stroke-width="5.86666679" stroke-linecap="round" stroke-linejoin="round" transform="matrix(0.227273 0 -0 0.227273 152.677 84.1043)" />
	<g transform="matrix(1 0 -0 1 12.243 107.302)">
		<svg width="255.023895" height="98.936142">
			<defs />
			<path d="M 12.9653 14.9922 C 12.8966 15.2676, 12.793 15.5378, 12.6545 15.8035, 12.5159 16.0691, 12.3465 16.309, 12.1449 16.5226, 11.9434 16.7367, 11.7184 16.9113, 11.47 17.0487, 11.2215 17.1861, 10.953 17.2548, 10.6633 17.2548, 9.75128 17.2548, 9.06541 17.0138, 8.60626 16.5311, 8.29195 16.202, 8.13451 15.7869, 8.13451 15.2854, 8.13451 15.0295, 8.17573 14.7518, 8.2576 14.4518 L 8.68183 12.8121 C 8.73221 12.6049, 8.7574 12.4097, 8.7574 12.2259, 8.7574 12.1348, 8.7511 12.0404, 8.73851 11.9419, 8.70072 11.686, 8.61313 11.4604, 8.47458 11.2646, 8.33603 11.0694, 8.15856 10.9154, 7.94158 10.802, 7.72459 10.6893, 7.46811 10.6326, 7.17212 10.632 L 5.0401 10.632, 3.78515 15.5144 C 3.75996 15.6312, 3.74737 15.7256, 3.74737 15.7983, 3.74737 15.8905, 3.76626 15.9518, 3.80405 15.9815, 3.88592 16.0308, 4.05595 16.06, 4.31358 16.0691, 4.57178 16.0783, 4.84831 16.0829, 5.14372 16.0823, 5.32005 16.0829, 5.40822 16.1562, 5.40822 16.3021, 5.40822 16.3394, 5.40192 16.3789, 5.38933 16.4212 L 5.35154 16.5678 C 5.28284 16.751, 5.15975 16.8426, 4.98342 16.8426, 4.20996 16.806, 3.4302 16.7876, 2.64357 16.7876, 1.85751 16.7876, 1.06802 16.806, 0.27567 16.8426, 0.106207 16.8426, 0.0151782 16.7636, 0.00201051 16.6044 L 0.00201051 16.5311, 0.0397962 16.3754 C 0.090177 16.1745, 0.212694 16.0766, 0.407347 16.0823, 0.703335 16.0829, 0.983292 16.0783, 1.24722 16.0691, 1.51172 16.06, 1.70637 16.0279, 1.83232 15.9724, 1.95198 15.906, 2.04301 15.7411, 2.10598 15.4777 L 4.75728 5.15423 C 4.79506 5.02027, 4.81338 4.91664, 4.81338 4.84279, 4.81338 4.77008, 4.79792 4.72714, 4.76644 4.71455, 4.67827 4.66016, 4.50709 4.62695, 4.25232 4.61436, 3.99756 4.60234, 3.71932 4.59604, 3.41703 4.59547, 3.24127 4.59604, 3.1531 4.5136, 3.1531 4.34814 L 3.1531 4.27486, 3.20978 4.11914 C 3.24757 3.93651, 3.36436 3.84491, 3.55901 3.84433 L 8.87076 3.84433 C 9.46846 3.84491, 10.0375 3.92448, 10.5786 4.08307, 11.1196 4.24223, 11.5913 4.50444, 11.9938 4.87027, 12.327 5.16397, 12.5692 5.52408, 12.7203 5.95117, 12.8148 6.18361, 12.8652 6.42521, 12.8709 6.67482, 12.8709 6.90154, 12.8365 7.12424, 12.7673 7.34351, 12.6482 7.83244, 12.3997 8.27556, 12.0219 8.67231, 11.6446 9.06963, 11.2198 9.40798, 10.748 9.68851, 10.4211 9.87859, 10.0896 10.036, 9.753 10.1608, 9.41636 10.2862, 9.17591 10.3641, 9.03106 10.3938, 9.38945 10.5347, 9.72952 10.8095, 10.0501 11.2183, 10.3209 11.5732, 10.456 11.9974, 10.456 12.4915, 10.456 12.5957, 10.4497 12.6999, 10.4371 12.803 L 10.2574 14.4518 C 10.2076 14.88, 10.1824 15.2522, 10.1824 15.5693, 10.1824 15.7777, 10.195 15.9609, 10.2202 16.1189, 10.2642 16.4796, 10.4526 16.66, 10.7858 16.6594, 11.0881 16.66, 11.3646 16.4968, 11.6165 16.1699, 11.8684 15.8436, 12.0539 15.4388, 12.173 14.9556, 12.2423 14.773, 12.3648 14.6842, 12.5411 14.69 L 12.6917 14.69 C 12.8617 14.6905, 12.9528 14.7701, 12.9653 14.9281 L 12.9653 14.9922 Z M 10.748 7.28855 C 10.8488 6.92272, 10.9055 6.55631, 10.9181 6.18933 L 10.9181 6.13437 C 10.9181 5.8235, 10.8207 5.55499, 10.6255 5.32828, 10.3931 5.06034, 10.0896 4.87084, 9.71521 4.76092, 9.34079 4.651, 8.9303 4.59604, 8.48374 4.59547 L 7.2288 4.59547 C 6.9082 4.59604, 6.7164 4.62066, 6.65343 4.66932, 6.59045 4.71856, 6.52461 4.89203, 6.45534 5.19088 L 5.21013 10.0366, 7.03071 10.0366 C 7.47727 10.0372, 7.9181 9.98221, 8.35207 9.87229, 8.78603 9.76237, 9.19823 9.56714, 9.58754 9.28547, 9.92131 9.04787, 10.1732 8.74902, 10.3427 8.38834, 10.5127 8.02823, 10.6478 7.66183, 10.748 7.28855 Z" stroke="none" fill="#000000" />
			<path d="M 1.70456 -3.31244 C 1.67282 -3.18228, 1.59973 -3.07359, 1.48527 -2.98639, 1.37081 -2.89918, 1.24674 -2.85558, 1.11273 -2.8559, 0.971981 -2.85558, 0.864578 -2.90335, 0.790519 -2.99953, 0.741145 -3.05404, 0.714855 -3.12072, 0.711008 -3.19959, 0.711008 -3.24704, 0.718062 -3.29513, 0.732168 -3.34322, 0.764229 -3.47275, 0.838289 -3.58143, 0.954348 -3.66864, 1.07041 -3.75584, 1.19544 -3.79944, 1.32946 -3.79976, 1.47052 -3.79944, 1.57793 -3.75328, 1.65166 -3.66126, 1.70104 -3.59586, 1.72572 -3.52597, 1.72572 -3.45095, 1.72572 -3.40286, 1.71867 -3.35669, 1.70456 -3.31244 Z M 1.76259 1.66335 C 1.72412 1.84161, 1.66417 2.02884, 1.58306 2.22537, 1.50226 2.42223, 1.40255 2.6008, 1.28457 2.76143, 1.16659 2.92237, 1.02809 3.05638, 0.869708 3.16379, 0.711329 3.27151, 0.527943 3.32537, 0.32019 3.32537, 0.144178 3.32537, -0.00714791 3.28786, -0.134108 3.21252, -0.261067 3.1375, -0.358852 3.03843, -0.427462 2.91532, -0.496071 2.7922, -0.530376 2.65531, -0.530376 2.50462, -0.537429 2.49821, -0.540956 2.48442, -0.540956 2.46358, -0.540956 2.31001, -0.507292 2.1526, -0.440606 1.99165 L 0.41541 -0.26541 C 0.52121 -0.548826, 0.573789 -0.781585, 0.573789 -0.963048, 0.573789 -1.11662, 0.508706 -1.19356, 0.37822 -1.19388, 0.258634 -1.19356, 0.151231 -1.15926, 0.0560113 -1.09097, -0.0388879 -1.02236, -0.126093 -0.92746, -0.205603 -0.806272, -0.284792 -0.684762, -0.355967 -0.541131, -0.419447 -0.375378, -0.482926 -0.209304, -0.535826 -0.0326507, -0.578146 0.155224, -0.616619 0.247879, -0.681702 0.295649, -0.773395 0.298855 L -0.889775 0.298855 C -0.974415 0.299176, -1.01673 0.256536, -1.01673 0.170613 L -1.01673 0.134705 C -0.974415 -0.0531695, -0.910935 -0.245212, -0.826295 -0.442064, -0.741655 -0.638595, -0.639702 -0.817172, -0.519796 -0.978116, -0.39989 -1.13874, -0.260747 -1.27211, -0.102368 -1.37823, 0.0560113 -1.48403, 0.237474 -1.53725, 0.4417 -1.53757, 0.618033 -1.53725, 0.767756 -1.49942, 0.890868 -1.4244, 1.0143 -1.34906, 1.10856 -1.24903, 1.17364 -1.12431, 1.23872 -0.999276, 1.27463 -0.85853, 1.28169 -0.701434 L 1.28169 -0.665526 C 1.28169 -0.518047, 1.25187 -0.36608, 1.19192 -0.208984 L 0.3359 2.05834 C 0.237474 2.33566, 0.188101 2.57163, 0.188101 2.76624, 0.181047 2.77329, 0.177521 2.77329, 0.177521 2.76624, 0.177521 2.91371, 0.244527 2.98713, 0.37822 2.98681, 0.498126 2.98713, 0.606491 2.95122, 0.703314 2.87941, 0.800137 2.80759, 0.888303 2.71205, 0.967493 2.59215, 1.04668 2.47256, 1.11625 2.32893, 1.17621 2.16125, 1.23616 1.9939, 1.29066 1.81756, 1.34004 1.63257, 1.3612 1.54409, 1.42275 1.49952, 1.5247 1.4992 L 1.64108 1.4992 C 1.67988 1.49952, 1.71867 1.51139, 1.75714 1.53511, 1.76804 1.56268, 1.7767 1.58673, 1.78375 1.60693, 1.78375 1.62777, 1.7767 1.64668, 1.76259 1.66335 Z" stroke="none" fill="#000000" transform="matrix(1.12 0 0 1 14.9534 16.3063)" />
			<polyline points="-6.566 -1.9698 6.566 -1.9698" fill="none" stroke="#000000" stroke-width="0.750400007" stroke-linecap="round" stroke-linejoin="round" transform="matrix(1 0 0 1 29.2319 11.2074)" />
			<polyline points="-6.566 1.9698 6.566 1.9698" fill="none" stroke="#000000" stroke-width="0.750400007" stroke-linecap="round" stroke-linejoin="round" transform="matrix(1 0 0 1 29.2319 11.2074)" />
			<path d="M 48.063 16.7669 C 46.9291 16.731, 45.8255 16.7131, 44.7527 16.7131, 43.6806 16.7131, 42.577 16.731, 41.4425 16.7669 L 41.4425 15.9949, 42.081 15.9949 C 42.2841 15.9955, 42.4754 15.9927, 42.6538 15.9865, 42.8328 15.9809, 43.0022 15.9657, 43.1627 15.9416, 43.3232 15.918, 43.4617 15.8939, 43.5784 15.8692, 43.6772 15.8518, 43.7591 15.7969, 43.8236 15.7037, 43.8887 15.6111, 43.9207 15.5079, 43.9207 15.3935 L 43.9207 5.27643 C 43.6127 5.4268, 43.2334 5.54069, 42.7834 5.61812, 42.3335 5.6961, 41.8403 5.73482, 41.3039 5.73426 L 41.3039 4.97122 C 42.0439 4.97178, 42.7268 4.88369, 43.3523 4.70696, 43.9779 4.53078, 44.5188 4.19976, 44.9749 3.71444 L 45.2616 3.71444 C 45.4647 3.715, 45.5663 3.81375, 45.5663 4.01068 L 45.5663 15.3935 C 45.5663 15.5135, 45.5971 15.6184, 45.6589 15.7082, 45.7206 15.798, 45.8103 15.8518, 45.927 15.8692, 46.0258 15.8939, 46.1526 15.918, 46.3063 15.9416, 46.4606 15.9657, 46.6345 15.9809, 46.8287 15.9865, 47.0228 15.9927, 47.2124 15.9955, 47.397 15.9949 L 48.063 15.9949, 48.063 16.7669 Z" stroke="none" fill="#000000" />
			<path d="M 55.1578 15.7342 C 55.1578 16.0399, 55.0496 16.2981, 54.8326 16.5088, 54.6156 16.7195, 54.3529 16.8243, 54.0443 16.8243, 53.7363 16.8243, 53.4723 16.7195, 53.2525 16.5088, 53.0326 16.2981, 52.9221 16.0399, 52.9221 15.7342, 52.9221 15.4354, 53.0326 15.1806, 53.2525 14.9699, 53.4723 14.7592, 53.7363 14.6539, 54.0443 14.6533, 54.3529 14.6539, 54.6156 14.7592, 54.8326 14.9699, 55.0496 15.1806, 55.1578 15.4354, 55.1578 15.7342 Z" stroke="none" fill="#000000" />
			<path d="M 66.951 16.7669 L 59.426 16.7669, 59.426 16.2732 C 59.426 16.2379, 59.4445 16.184, 59.4816 16.1116 L 62.5046 12.826 C 62.8625 12.4316, 63.2244 12.0277, 63.5913 11.6147, 63.9583 11.2018, 64.2859 10.7799, 64.5754 10.349, 64.8649 9.91808, 65.0961 9.47372, 65.2689 9.01589, 65.4417 8.55807, 65.5275 8.0778, 65.5275 7.57453, 65.5275 7.15037, 65.4726 6.7537, 65.3615 6.38565, 65.2504 6.01759, 65.0905 5.69442, 64.8806 5.41613, 64.6708 5.13785, 64.4088 4.91343, 64.0946 4.74286, 63.7804 4.5723, 63.4168 4.48702, 63.0039 4.48646, 62.3879 4.48702, 61.8436 4.67105, 61.3723 5.0391, 60.9011 5.40716, 60.588 5.8128, 60.4337 6.25492, 60.4034 6.26726, 60.4528 6.27343, 60.5818 6.27287 L 60.7389 6.27287 C 60.9241 6.31551, 61.084 6.38004, 61.2197 6.46644, 61.3555 6.5534, 61.4694 6.67291, 61.562 6.82552, 61.6546 6.97812, 61.7006 7.16215, 61.7006 7.37704, 61.7006 7.73668, 61.5839 8.01216, 61.3493 8.20348, 61.1148 8.39536, 60.8528 8.49074, 60.5633 8.49018, 60.2861 8.49074, 60.0275 8.39536, 59.7868 8.20348, 59.5467 8.01216, 59.426 7.73668, 59.426 7.37704, 59.426 6.87489, 59.5248 6.39911, 59.7223 5.95026, 59.9198 5.50142, 60.1874 5.1126, 60.5263 4.78326, 60.8651 4.45448, 61.2657 4.19415, 61.7281 4.00226, 62.1904 3.81094, 62.6807 3.715, 63.198 3.71444, 63.8388 3.715, 64.4262 3.80926, 64.9592 3.99778, 65.4922 4.18629, 65.9467 4.45728, 66.3226 4.81019, 66.6985 5.16366, 66.993 5.57211, 67.2057 6.03554, 67.4183 6.49954, 67.5244 7.01235, 67.5244 7.57453, 67.5244 8.19731, 67.383 8.77071, 67.0991 9.29418, 66.8157 9.81821, 66.4645 10.2985, 66.0454 10.735, 65.6263 11.172, 65.1808 11.5833, 64.7095 11.9693, 64.2382 12.3553, 63.8113 12.7307, 63.4292 13.0954 L 61.3028 15.0972, 64.0856 15.0972 C 64.4739 15.0978, 64.8363 15.095, 65.1718 15.0888, 65.5079 15.0832, 65.7929 15.0708, 66.0269 15.0529, 66.2614 15.0349, 66.3815 15.0232, 66.3871 15.0164, 66.4365 14.9749, 66.483 14.8913, 66.5262 14.7656, 66.5694 14.64, 66.6093 14.4918, 66.6463 14.3213, 66.6833 14.1507, 66.7204 13.9773, 66.7574 13.8006, 66.7944 13.6244, 66.8281 13.4309, 66.8589 13.221 L 67.5429 13.221 Z" stroke="none" fill="#000000" />
			<path d="M 82.7399 16.6044 C 82.7022 16.751, 82.5985 16.8243, 82.4285 16.8243 L 79.3066 16.8243 C 79.0993 16.8243, 78.9952 16.7241, 78.9952 16.522, 78.9952 15.7714, 79.1068 15.0478, 79.3301 14.3516, 79.5534 13.6554, 79.7972 12.9673, 80.0612 12.286, 80.3257 11.6053, 80.5644 10.9257, 80.778 10.2479, 80.9921 9.57, 81.0986 8.88013, 81.0986 8.17708, 81.0986 7.62805, 81.0138 7.09561, 80.8438 6.57921, 80.6743 6.06338, 80.407 5.60995, 80.0423 5.21893, 79.6776 4.82848, 79.2471 4.52905, 78.7501 4.32123, 78.2532 4.11398, 77.7345 4.00979, 77.1935 4.00921, 76.653 4.00979, 76.1343 4.11398, 75.6374 4.32123, 75.1404 4.52905, 74.7116 4.82848, 74.3498 5.21893, 73.988 5.60995, 73.7206 6.06338, 73.5477 6.57921, 73.3748 7.09561, 73.2884 7.62805, 73.2884 8.17708, 73.2884 8.88013, 73.3972 9.57, 73.6136 10.2479, 73.8305 10.9257, 74.071 11.6053, 74.3349 12.286, 74.5994 12.9673, 74.8427 13.6571, 75.066 14.3562, 75.2893 15.0558, 75.4009 15.7777, 75.4009 16.522, 75.4009 16.7241, 75.3036 16.8243, 75.109 16.8243 L 71.9579 16.8243 C 71.7947 16.8243, 71.6939 16.751, 71.6562 16.6044 L 70.996 13.9846 C 70.996 13.8203, 71.0842 13.7167, 71.26 13.6732 L 71.3636 13.6732 C 71.5273 13.6738, 71.6281 13.7499, 71.6659 13.9022, 71.7666 14.3241, 71.8594 14.6722, 71.9441 14.947, 72.0289 15.2218, 72.0872 15.3684, 72.1182 15.3861, 72.1811 15.4354, 72.3323 15.4663, 72.571 15.4783, 72.8103 15.4909, 73.0966 15.4966, 73.4298 15.496 L 74.6372 15.496 C 74.5055 14.947, 74.2553 14.3825, 73.8872 13.802, 73.5197 13.222, 73.1372 12.6387, 72.7411 12.0524, 72.3449 11.4662, 71.9945 10.8587, 71.6894 10.2295, 71.3848 9.60092, 71.2319 8.91677, 71.2319 8.17708, 71.2319 7.49351, 71.3922 6.86203, 71.7128 6.28151, 72.0334 5.70155, 72.4645 5.20347, 73.005 4.78783, 73.5901 4.31837, 74.2445 3.96857, 74.9676 3.73956, 75.6906 3.51056, 76.4326 3.39606, 77.1935 3.39548, 77.9549 3.39606, 78.6969 3.51056, 79.42 3.73956, 80.143 3.96857, 80.8066 4.31837, 81.41 4.78783, 81.9384 5.21606, 82.3661 5.71816, 82.693 6.29525, 83.0199 6.87234, 83.1831 7.49981, 83.1831 8.17708, 83.1831 8.91677, 83.0308 9.60092, 82.7256 10.2295, 82.4211 10.8587, 82.0672 11.4662, 81.6648 12.0524, 81.2623 12.6387, 80.8753 13.222, 80.5043 13.802, 80.1333 14.3825, 79.882 14.947, 79.7497 15.496 L 80.9663 15.496 C 81.3001 15.4966, 81.5863 15.4909, 81.8251 15.4783, 82.0644 15.4663, 82.215 15.4354, 82.2779 15.3861, 82.2968 15.3747, 82.3501 15.2281, 82.4382 14.947, 82.5264 14.6665, 82.6203 14.3178, 82.721 13.9022, 82.7588 13.7562, 82.863 13.68, 83.0325 13.6732 L 83.1361 13.6732 C 83.3062 13.7104, 83.3909 13.814, 83.3909 13.9846 Z" stroke="none" fill="#000000" />
			<rect />
		</svg>
	</g>
	<path d="M -72.0422 -20.0408 L 72.0422 -20.0408, 72.0422 20.0408, -72.0422 20.0408 Z" stroke="none" fill="#FFFFFF" transform="matrix(1.71586e-008 0.227273 -0.227273 1.71586e-008 113.062 118.95)" />
	<path d="M -72.0422 -20.0408 L 72.0422 -20.0408, 72.0422 20.0408, -72.0422 20.0408 Z" fill="none" stroke="#000000" stroke-width="6.60000038" stroke-linecap="round" stroke-linejoin="round" transform="matrix(1.71586e-008 0.227273 -0.227273 1.71586e-008 113.062 118.95)" />
	<g transform="matrix(1 0 -0 1 8.99998 41.0261)">
		<svg width="234.069733" height="98.936142">
			<defs />
			<path d="M 12.7097 4.3115 C 12.6908 4.39738, 12.645 4.46665, 12.5729 4.51818, 12.5008 4.57028, 12.4235 4.59604, 12.3416 4.59547, 12.1155 4.59604, 11.8956 4.61321, 11.6815 4.64642, 11.4674 4.6802, 11.2693 4.76092, 11.0867 4.88859, 10.9361 4.98076, 10.8164 5.10156, 10.7283 5.25099, 10.6401 5.40099, 10.5743 5.56072, 10.5302 5.73133 L 8.78459 12.4915 C 8.62143 13.103, 8.37124 13.6938, 8.0346 14.2646, 7.69797 14.8359, 7.26859 15.3621, 6.74646 15.8441, 6.2873 16.2661, 5.77834 16.6067, 5.21843 16.8655, 4.65851 17.1254, 4.08944 17.2548, 3.51063 17.2548, 2.88202 17.2548, 2.32038 17.13, 1.82631 16.8792, 1.3328 16.6296, 0.934911 16.2873, 0.632625 15.8533, 0.299425 15.3896, 0.101336 14.8617, 0.0383604 14.2686, 0.0131699 14.0923, 0.000574708 13.9056, 0.000574708 13.7098, 0.000574708 13.301, 0.0509556 12.8831, 0.151717 12.4549 L 2.04787 5.15423 C 2.07306 5.03859, 2.08566 4.94699, 2.08566 4.87943, 2.08566 4.7884, 2.06676 4.73058, 2.02898 4.70539, 1.94768 4.6573, 1.77764 4.62695, 1.52002 4.61436, 1.26239 4.60234, 0.985291 4.59604, 0.689304 4.59547, 0.595412 4.59604, 0.526139 4.56569, 0.482055 4.50386, 0.44427 4.4678, 0.425377 4.422, 0.425377 4.36646, 0.425377 4.33039, 0.43511 4.29662, 0.45343 4.2657 L 0.482055 4.11914 C 0.551329 3.93651, 0.673846 3.84491, 0.849607 3.84433, 1.63623 3.86952, 2.42859 3.88155, 3.22724 3.88097, 4.02646 3.88155, 4.82511 3.86952, 5.62377 3.84433, 5.8001 3.84491, 5.88826 3.92735, 5.88826 4.09166 L 5.88826 4.16494, 5.83159 4.32066 C 5.7938 4.50444, 5.67758 4.59604, 5.48236 4.59547, 5.18694 4.59604, 4.90756 4.60234, 4.64306 4.61436, 4.37856 4.62695, 4.18677 4.65901, 4.06711 4.71054, 3.94803 4.76264, 3.85357 4.92294, 3.78429 5.19088 L 1.90646 12.4915 C 1.76219 13.0297, 1.67688 13.5455, 1.65169 14.0396, 1.6391 14.1134, 1.6328 14.1867, 1.6328 14.2594, 1.6328 14.6751, 1.71467 15.0569, 1.87841 15.4045, 2.04214 15.7348, 2.2763 16.0021, 2.58145 16.2065, 2.8866 16.4115, 3.24327 16.5134, 3.65204 16.5128, 4.10547 16.5134, 4.56004 16.4098, 5.01576 16.202, 5.47148 15.9947, 5.89456 15.7136, 6.28444 15.3586, 6.731 14.9625, 7.09454 14.5108, 7.3745 14.0035, 7.65446 13.4968, 7.86342 12.9804, 8.0014 12.4549 L 9.73782 5.67636 C 9.77561 5.56701, 9.79393 5.4508, 9.79393 5.32828 L 9.79393 5.20004 C 9.77561 5.07237, 9.72179 4.96531, 9.63362 4.87943, 9.50195 4.75176, 9.34622 4.67275, 9.16703 4.64184, 8.98783 4.6115, 8.77887 4.59604, 8.53956 4.59547, 8.44509 4.59604, 8.37582 4.56856, 8.33174 4.51302, 8.28823 4.47066, 8.2659 4.422, 8.2659 4.36646, 8.2659 4.33039, 8.27563 4.29375, 8.29395 4.25654 L 8.33174 4.1283 C 8.3512 4.04929, 8.39357 3.98231, 8.45941 3.92735, 8.52582 3.87239, 8.60253 3.84491, 8.69013 3.84433, 9.31932 3.86952, 9.95137 3.88155, 10.5869 3.88097, 11.216 3.88155, 11.8544 3.86952, 12.5019 3.84433, 12.5901 3.84491, 12.6656 3.87525, 12.7286 3.93593, 12.7538 3.98517, 12.7664 4.03097, 12.7664 4.07334, 12.7664 4.11055, 12.7572 4.14433, 12.7378 4.1741 Z" stroke="none" fill="#000000" />
			<path d="M 4.0311 -0.393652 C 3.90414 0.102645, 3.69896 0.581309, 3.41554 1.04298, 3.13213 1.50465, 2.77529 1.92689, 2.34568 2.30969, 1.95839 2.65531, 1.53455 2.93006, 1.0748 3.13333, 0.615052 3.33659, 0.154662 3.43822, -0.306689 3.43822, -0.771567 3.43822, -1.18483 3.33595, -1.54583 3.13076, -1.90683 2.92558, -2.19473 2.64857, -2.40954 2.29943, -2.64551 1.91342, -2.78112 1.48574, -2.81639 1.01701, -2.8305 0.904479, -2.83755 0.791626, -2.83755 0.678452, -2.83755 0.326427, -2.7917 -0.0377803, -2.70033 -0.414171, -2.56632 -0.91656, -2.35953 -1.40452, -2.07932 -1.87838, -1.79911 -2.35191, -1.44099 -2.78024, -1.00433 -3.16368, -0.616714 -3.50866, -0.193195 -3.78662, 0.266554 -3.99694, 0.726302 -4.20725, 1.19022 -4.31241, 1.65862 -4.31273, 2.1235 -4.31241, 2.53484 -4.20629, 2.89231 -3.99437, 3.25011 -3.78213, 3.53609 -3.50192, 3.75089 -3.15342, 3.98686 -2.76677, 4.126 -2.33588, 4.16832 -1.86074, 4.17537 -1.74404, 4.1789 -1.62959, 4.1789 -1.51705, 4.1789 -1.15092, 4.12985 -0.776455, 4.0311 -0.393652 Z M 2.96381 -2.97902 C 2.84775 -3.26596, 2.67334 -3.49936, 2.44058 -3.6789, 2.20814 -3.85844, 1.9228 -3.94821, 1.58456 -3.94853, 1.25017 -3.94821, 0.917382 -3.85651, 0.586197 -3.67377, 0.255332 -3.4907, -0.0405865 -3.25409, -0.301559 -2.96363, -0.629218 -2.61096, -0.887947 -2.2288, -1.07807 -1.81682, -1.26818 -1.40452, -1.4163 -0.986773, -1.5221 -0.562932, -1.64522 -0.10094, -1.72088 0.34887, -1.74909 0.786176, -1.75615 0.868571, -1.75967 0.950646, -1.75967 1.0324, -1.75967 1.37481, -1.70325 1.70984, -1.59071 2.03782, -1.48139 2.32893, -1.31403 2.57259, -1.08865 2.76912, -0.86326 2.96597, -0.581448 3.06408, -0.24353 3.06376, 0.105289 3.06408, 0.446413 2.96405, 0.779202 2.76399, 1.11199 2.56393, 1.41047 2.31675, 1.67465 2.02243, 2.01642 1.62616, 2.2822 1.20713, 2.47232 0.765978, 2.66276 0.324824, 2.81761 -0.124985, 2.9372 -0.583451, 3.04652 -1.0105, 3.11513 -1.43113, 3.14335 -1.84535 L 3.14335 -2.02489 C 3.14335 -2.36666, 3.08371 -2.6847, 2.96381 -2.97902 Z" stroke="none" fill="#000000" transform="matrix(1.12 0 0 1 15.0762 16.3063)" />
			<path d="M 3.98538 -1.34264 C 3.96422 -1.24646, 3.90267 -1.19709, 3.80039 -1.19388 L 3.68401 -1.19388 C 3.60322 -1.19356, 3.55898 -1.2346, 3.55192 -1.317 L 3.55192 -1.35803 C 3.58719 -1.57316, 3.60675 -1.77995, 3.61027 -1.97873, 3.61027 -2.09126, 3.60675 -2.20571, 3.59969 -2.32242, 3.56443 -2.62314, 3.48524 -2.88892, 3.36212 -3.11976, 3.23901 -3.3506, 3.07326 -3.53527, 2.86551 -3.67377, 2.65775 -3.81227, 2.40416 -3.88152, 2.10471 -3.88184, 1.73858 -3.88152, 1.37052 -3.79239, 1.00054 -3.61478, 0.630887 -3.43684, 0.296495 -3.19927, -0.00295043 -2.90207, -0.351449 -2.5494, -0.624284 -2.15955, -0.821777 -1.73218, -1.01895 -1.30449, -1.1738 -0.86879, -1.28665 -0.424431, -1.40977 0.0273025, -1.4803 0.464929, -1.49793 0.888769 L -1.49793 1.0324 C -1.49793 1.40559, -1.42387 1.74575, -1.27607 2.05321, -1.13501 2.34432, -0.92918 2.57868, -0.657948 2.7563, -0.386715 2.93423, -0.0645068 3.02304, 0.308678 3.02272, 0.61165 3.02304, 0.909172 2.95828, 1.20156 2.82811, 1.49396 2.69827, 1.7623 2.5229, 2.00693 2.30232, 2.25187 2.08174, 2.46571 1.82622, 2.64878 1.53543, 2.83216 1.24496, 2.96425 0.93686, 3.04505 0.611766, 3.06621 0.516226, 3.12776 0.468456, 3.22971 0.468135 L 3.34609 0.468135 C 3.43426 0.468456, 3.48171 0.505966, 3.48876 0.580988, 3.48876 0.601828, 3.48363 0.620743, 3.47273 0.637415, 3.37783 1.01381, 3.22106 1.37128, 3.00273 1.70984, 2.78439 2.0484, 2.5247 2.34528, 2.22365 2.59984, 1.92261 2.85472, 1.59238 3.05799, 1.2333 3.20995, 0.874226 3.36224, 0.504247 3.43822, 0.123689 3.43822, -0.362349 3.43822, -0.794525 3.33659, -1.17316 3.13333, -1.55147 2.93006, -1.85894 2.64857, -2.0949 2.28917, -2.34113 1.90317, -2.48572 1.47548, -2.52804 1.00675, -2.54215 0.880434, -2.5492 0.748986, -2.5492 0.611766, -2.5492 0.266795, -2.50496 -0.0855505, -2.41711 -0.444949, -2.2831 -0.947338, -2.07086 -1.43209, -1.78039 -1.8989, -1.48992 -2.3657, -1.12635 -2.7905, -0.689687 -3.17394, -0.277389 -3.52244, 0.168894 -3.79944, 0.649482 -4.00463, 1.13039 -4.20982, 1.61194 -4.31241, 2.09413 -4.31273, 2.47822 -4.31241, 2.80652 -4.22777, 3.07935 -4.05849, 3.35251 -3.88921, 3.55385 -3.68499, 3.68401 -3.44582 L 4.39736 -4.24092 C 4.42557 -4.28837, 4.47334 -4.31241, 4.54003 -4.31273 L 4.58203 -4.31273 C 4.66667 -4.31241, 4.70899 -4.27138, 4.70899 -4.18962 L 4.70899 -4.14858 Z" stroke="none" fill="#000000" transform="matrix(1.12 0 0 1 23.6089 16.3063)" />
			<polyline points="-6.566 -1.9698 6.566 -1.9698" fill="none" stroke="#000000" stroke-width="0.750400007" stroke-linecap="round" stroke-linejoin="round" transform="matrix(1 0 0 1 40.1214 11.2074)" />
			<polyline points="-6.566 1.9698 6.566 1.9698" fill="none" stroke="#000000" stroke-width="0.750400007" stroke-linecap="round" stroke-linejoin="round" transform="matrix(1 0 0 1 40.1214 11.2074)" />
			<path d="M 58.9525 16.7669 C 57.8186 16.731, 56.715 16.7131, 55.6423 16.7131, 54.5701 16.7131, 53.4665 16.731, 52.332 16.7669 L 52.332 15.9949, 52.9705 15.9949 C 53.1736 15.9955, 53.3649 15.9927, 53.5433 15.9865, 53.7223 15.9809, 53.8918 15.9657, 54.0522 15.9416, 54.2127 15.918, 54.3513 15.8939, 54.468 15.8692, 54.5667 15.8518, 54.6486 15.7969, 54.7132 15.7037, 54.7782 15.6111, 54.8102 15.5079, 54.8102 15.3935 L 54.8102 5.27643 C 54.5022 5.4268, 54.1229 5.54069, 53.6729 5.61812, 53.223 5.6961, 52.7298 5.73482, 52.1934 5.73426 L 52.1934 4.97122 C 52.9335 4.97178, 53.6163 4.88369, 54.2419 4.70696, 54.8674 4.53078, 55.4083 4.19976, 55.8644 3.71444 L 56.1511 3.71444 C 56.3542 3.715, 56.4558 3.81375, 56.4558 4.01068 L 56.4558 15.3935 C 56.4558 15.5135, 56.4867 15.6184, 56.5484 15.7082, 56.6101 15.798, 56.6999 15.8518, 56.8166 15.8692, 56.9153 15.8939, 57.0421 15.918, 57.1958 15.9416, 57.3501 15.9657, 57.5241 15.9809, 57.7182 15.9865, 57.9123 15.9927, 58.1019 15.9955, 58.2865 15.9949 L 58.9525 15.9949, 58.9525 16.7669 Z" stroke="none" fill="#000000" />
			<path d="M 76.4482 4.57714 C 76.1591 4.57772, 75.9044 4.59947, 75.6845 4.64184, 75.4647 4.68478, 75.2597 4.75806, 75.0708 4.86111, 74.7565 5.05118, 74.5177 5.33801, 74.354 5.72216 L 69.9863 16.98 C 69.905 17.1575, 69.7665 17.2428, 69.5713 17.2365 L 69.4207 17.2365 C 69.226 17.2365, 69.0875 17.1512, 69.0056 16.98 L 64.4307 5.19087 C 64.3803 5.07523, 64.3236 4.9716, 64.2607 4.88, 64.1977 4.7884, 64.1066 4.72142, 63.987 4.67791, 63.8427 4.62352, 63.64 4.59317, 63.379 4.58688, 63.1179 4.58115, 62.8397 4.57772, 62.5437 4.57714 L 62.5437 3.81685 C 63.3555 3.86036, 64.1318 3.88154, 64.8738 3.88097, 64.9872 3.88154, 65.1103 3.87525, 65.2419 3.86265, 66.1036 3.86322, 67.0058 3.8512, 67.9493 3.82601 L 67.9493 4.57714 C 67.6665 4.57772, 67.4146 4.58401, 67.1948 4.59604, 66.9749 4.60863, 66.7763 4.65386, 66.5999 4.73287, 66.5186 4.77638, 66.4557 4.8342, 66.4116 4.90691, 66.3801 4.95615, 66.3641 5.00195, 66.3641 5.04431, 66.3641 5.0695, 66.3675 5.09698, 66.3738 5.12675 L 70.0716 14.5984, 73.5616 5.64888 C 73.5931 5.57617, 73.6086 5.49373, 73.6086 5.40156, 73.6086 5.22522, 73.5239 5.06034, 73.3544 4.90691, 73.2101 4.77924, 73.0481 4.69222, 72.8683 4.64642, 72.6891 4.60062, 72.4613 4.57772, 72.1842 4.57714 L 72.1842 3.82601 C 72.9456 3.8512, 73.6624 3.86322, 74.3351 3.86265, 74.4233 3.87525, 74.5177 3.88154, 74.6179 3.88097, 75.1967 3.88154, 75.807 3.86036, 76.4482 3.81685 L 76.4482 4.57714 Z" stroke="none" fill="#000000" />
			<rect />
		</svg>
	</g>
	<path d="M -120.07 0 L -72.0421 0" fill="none" stroke="#000000" stroke-width="4.4000001" stroke-linecap="round" stroke-linejoin="round" transform="matrix(1.71586e-008 0.227273 -0.227273 1.71586e-008 192.291 84.1043)" />
	<path d="M 72.0421 0 L 120.07 0" fill="none" stroke="#000000" stroke-width="4.4000001" stroke-linecap="round" stroke-linejoin="round" transform="matrix(1.71586e-008 0.227273 -0.227273 1.71586e-008 192.291 84.1043)" />
	<path d="M -72.0421 -20.0408 L 72.0421 -20.0408, 72.0421 20.0408, -72.0421 20.0408 Z" stroke="none" fill="#FFFFFF" transform="matrix(1.71586e-008 0.227273 -0.227273 1.71586e-008 192.291 84.1043)" />
	<path d="M -72.0421 -20.0408 L 72.0421 -20.0408, 72.0421 20.0408, -72.0421 20.0408 Z" fill="none" stroke="#000000" stroke-width="6.60000038" stroke-linecap="round" stroke-linejoin="round" transform="matrix(1.71586e-008 0.227273 -0.227273 1.71586e-008 192.291 84.1043)" />
	<path d="M -33.4013 66.8026 L 33.4013 -66.8026" fill="none" stroke="#000000" stroke-width="4.4000001" stroke-linecap="round" stroke-linejoin="round" transform="matrix(1.71586e-008 0.227273 -0.227273 1.71586e-008 192.291 84.1043)" />
	<path d="M -33.4013 66.8026 L 33.4013 -66.8026, 73.4829 -66.8026" fill="none" stroke="#000000" stroke-width="4.4000001" stroke-linecap="round" stroke-linejoin="round" transform="matrix(1.71586e-008 0.227273 -0.227273 1.71586e-008 192.291 84.1043)" />
	<g transform="matrix(1 0 -0 1 216.68 72.8389)">
		<svg width="62.9920158" height="54.1276474">
			<defs />
			<path d="M 12.9653 14.9922 C 12.8966 15.2676, 12.793 15.5378, 12.6545 15.8035, 12.5159 16.0691, 12.3465 16.309, 12.1449 16.5226, 11.9434 16.7367, 11.7184 16.9113, 11.47 17.0487, 11.2215 17.1861, 10.953 17.2548, 10.6633 17.2548, 9.75128 17.2548, 9.06541 17.0138, 8.60626 16.5311, 8.29195 16.202, 8.13451 15.7869, 8.13451 15.2854, 8.13451 15.0295, 8.17573 14.7518, 8.2576 14.4518 L 8.68183 12.8121 C 8.73221 12.6049, 8.7574 12.4097, 8.7574 12.2259, 8.7574 12.1348, 8.7511 12.0404, 8.73851 11.9419, 8.70072 11.686, 8.61313 11.4604, 8.47458 11.2646, 8.33603 11.0694, 8.15856 10.9154, 7.94158 10.802, 7.72459 10.6893, 7.46811 10.6326, 7.17212 10.632 L 5.0401 10.632, 3.78515 15.5144 C 3.75996 15.6312, 3.74737 15.7256, 3.74737 15.7983, 3.74737 15.8905, 3.76626 15.9518, 3.80405 15.9815, 3.88592 16.0308, 4.05595 16.06, 4.31358 16.0691, 4.57178 16.0783, 4.84831 16.0829, 5.14372 16.0823, 5.32005 16.0829, 5.40822 16.1562, 5.40822 16.3021, 5.40822 16.3394, 5.40192 16.3789, 5.38933 16.4212 L 5.35154 16.5678 C 5.28284 16.751, 5.15975 16.8426, 4.98342 16.8426, 4.20996 16.806, 3.4302 16.7876, 2.64357 16.7876, 1.85751 16.7876, 1.06802 16.806, 0.27567 16.8426, 0.106207 16.8426, 0.0151782 16.7636, 0.00201051 16.6044 L 0.00201051 16.5311, 0.0397962 16.3754 C 0.090177 16.1745, 0.212694 16.0766, 0.407347 16.0823, 0.703335 16.0829, 0.983292 16.0783, 1.24722 16.0691, 1.51172 16.06, 1.70637 16.0279, 1.83232 15.9724, 1.95198 15.906, 2.04301 15.7411, 2.10598 15.4777 L 4.75728 5.15423 C 4.79506 5.02027, 4.81338 4.91664, 4.81338 4.84279, 4.81338 4.77008, 4.79792 4.72714, 4.76644 4.71455, 4.67827 4.66016, 4.50709 4.62695, 4.25232 4.61436, 3.99756 4.60234, 3.71932 4.59604, 3.41703 4.59547, 3.24127 4.59604, 3.1531 4.5136, 3.1531 4.34814 L 3.1531 4.27486, 3.20978 4.11914 C 3.24757 3.93651, 3.36436 3.84491, 3.55901 3.84433 L 8.87076 3.84433 C 9.46846 3.84491, 10.0375 3.92448, 10.5786 4.08307, 11.1196 4.24223, 11.5913 4.50444, 11.9938 4.87027, 12.327 5.16397, 12.5692 5.52408, 12.7203 5.95117, 12.8148 6.18361, 12.8652 6.42521, 12.8709 6.67482, 12.8709 6.90154, 12.8365 7.12424, 12.7673 7.34351, 12.6482 7.83244, 12.3997 8.27556, 12.0219 8.67231, 11.6446 9.06963, 11.2198 9.40798, 10.748 9.68851, 10.4211 9.87859, 10.0896 10.036, 9.753 10.1608, 9.41636 10.2862, 9.17591 10.3641, 9.03106 10.3938, 9.38945 10.5347, 9.72952 10.8095, 10.0501 11.2183, 10.3209 11.5732, 10.456 11.9974, 10.456 12.4915, 10.456 12.5957, 10.4497 12.6999, 10.4371 12.803 L 10.2574 14.4518 C 10.2076 14.88, 10.1824 15.2522, 10.1824 15.5693, 10.1824 15.7777, 10.195 15.9609, 10.2202 16.1189, 10.2642 16.4796, 10.4526 16.66, 10.7858 16.6594, 11.0881 16.66, 11.3646 16.4968, 11.6165 16.1699, 11.8684 15.8436, 12.0539 15.4388, 12.173 14.9556, 12.2423 14.773, 12.3648 14.6842, 12.5411 14.69 L 12.6917 14.69 C 12.8617 14.6905, 12.9528 14.7701, 12.9653 14.9281 L 12.9653 14.9922 Z M 10.748 7.28855 C 10.8488 6.92272, 10.9055 6.55631, 10.9181 6.18933 L 10.9181 6.13437 C 10.9181 5.8235, 10.8207 5.55499, 10.6255 5.32828, 10.3931 5.06034, 10.0896 4.87084, 9.71521 4.76092, 9.34079 4.651, 8.9303 4.59604, 8.48374 4.59547 L 7.2288 4.59547 C 6.9082 4.59604, 6.7164 4.62066, 6.65343 4.66932, 6.59045 4.71856, 6.52461 4.89203, 6.45534 5.19088 L 5.21013 10.0366, 7.03071 10.0366 C 7.47727 10.0372, 7.9181 9.98221, 8.35207 9.87229, 8.78603 9.76237, 9.19823 9.56714, 9.58754 9.28547, 9.92131 9.04787, 10.1732 8.74902, 10.3427 8.38834, 10.5127 8.02823, 10.6478 7.66183, 10.748 7.28855 Z" stroke="none" fill="#000000" />
			<path d="M 2.98718 -0.680915 C 2.94871 -0.526704, 2.87016 -0.411286, 2.75218 -0.33434, 2.63419 -0.257395, 2.51557 -0.218922, 2.39566 -0.219243, 2.27255 -0.218922, 2.17028 -0.258357, 2.08916 -0.337226, 2.02953 -0.394935, 1.99779 -0.470277, 1.99394 -0.562932, 1.99394 -0.600122, 2.001 -0.648213, 2.0151 -0.706563, 2.05422 -0.836088, 2.11417 -0.934514, 2.19496 -1.0012, 2.27608 -1.06789, 2.3325 -1.10636, 2.36392 -1.11694, 2.29724 -1.16791, 2.1597 -1.19356, 1.95195 -1.19388, 1.76888 -1.19356, 1.60505 -1.09866, 1.46078 -0.908866, 1.31651 -0.719067, 1.20878 -0.490796, 1.13825 -0.224373 L 0.652211 1.65309 C 0.603158 1.84161, 0.566288 2.02115, 0.541281 2.19171, 0.527495 2.25006, 0.520442 2.30136, 0.520442 2.3456, 0.520442 2.45204, 0.538075 2.55271, 0.573021 2.64825, 0.608288 2.75117, 0.661188 2.83324, 0.731721 2.8948, 0.802254 2.95635, 0.892024 2.98713, 1.00103 2.98681, 1.1421 2.98713, 1.27771 2.95058, 1.40788 2.87684, 1.53804 2.80343, 1.65795 2.70436, 1.76696 2.57932, 1.87628 2.45461, 1.97311 2.30937, 2.05774 2.1433, 2.14239 1.97755, 2.20907 1.8073, 2.25812 1.63257, 2.27928 1.54409, 2.33924 1.49952, 2.43798 1.4992 L 2.55917 1.4992 C 2.65087 1.49952, 2.69671 1.53383, 2.69671 1.6018, 2.69671 1.62264, 2.69158 1.64155, 2.68068 1.65822, 2.63163 1.86373, 2.55148 2.06635, 2.44055 2.26641, 2.32962 2.46647, 2.20041 2.64344, 2.05229 2.79733, 1.9045 2.95122, 1.7365 3.07786, 1.54798 3.17661, 1.35947 3.276, 1.15781 3.32537, 0.943 3.32537, 0.724668 3.32537, 0.536152 3.27856, 0.377773 3.1843, 0.219393 3.09069, 0.0908306 2.96822, -0.00791597 2.81753, -0.0393353 2.78034, -0.0640218 2.74187, -0.081655 2.70243, -0.0992883 2.66332, -0.104739 2.65723, -0.0976853 2.68416, -0.182325 2.82459, -0.316018 2.96661, -0.499083 3.11024, -0.682149 3.25388, -0.893428 3.32537, -1.13324 3.32537, -1.26693 3.32537, -1.39902 3.30838, -1.52919 3.27407, -1.65935 3.24009, -1.77317 3.18719, -1.86999 3.11537, -1.96682 3.04356, -2.03991 2.95635, -2.08929 2.85344, -2.11365 2.7922, -2.12584 2.72552, -2.12616 2.65338, -2.12584 2.60241, -2.11878 2.54245, -2.105 2.47384, -2.0662 2.32027, -1.98701 2.20485, -1.86743 2.12791, -1.74752 2.05096, -1.62794 2.01249, -1.50803 2.01217, -1.38492 2.01249, -1.27912 2.05193, -1.19127 2.13015, -1.13132 2.1885, -1.1015 2.26385, -1.1015 2.35586, -1.1015 2.40395, -1.10855 2.45204, -1.12266 2.49949, -1.15408 2.6194, -1.21147 2.71622, -1.29418 2.78964, -1.3769 2.86338, -1.43589 2.90345, -1.47116 2.90987, -1.40415 2.96501, -1.26854 2.99066, -1.06431 2.98681, -0.881245 2.98713, -0.715813 2.89159, -0.568014 2.69987, -0.419894 2.50847, -0.312491 2.27924, -0.245805 2.01217 L 0.245683 0.124446 C 0.295056 -0.0531695, 0.333529 -0.227579, 0.361742 -0.398782, 0.368796 -0.453285, 0.372322 -0.504582, 0.372322 -0.552673, 0.372322 -0.658473, 0.356612 -0.75754, 0.324872 -0.850195, 0.289606 -0.952468, 0.235103 -1.03518, 0.161043 -1.09866, 0.0873039 -1.16182, -0.00438929 -1.19356, -0.113716 -1.19388, -0.254461 -1.19356, -0.390719 -1.15669, -0.522808 -1.08328, -0.654898 -1.00954, -0.775445 -0.911431, -0.884772 -0.788318, -0.993778 -0.665205, -1.0906 -0.522215, -1.17524 -0.359989, -1.25988 -0.197442, -1.32144 -0.0255973, -1.36023 0.155224, -1.3987 0.247879, -1.46411 0.295649, -1.5558 0.298855 L -1.67186 0.298855 C -1.7565 0.299176, -1.79882 0.256536, -1.79882 0.170613 L -1.79882 0.134705 C -1.74592 -0.0768943, -1.6648 -0.283044, -1.5558 -0.483101, -1.44647 -0.683159, -1.31599 -0.860133, -1.16466 -1.01402, -1.01333 -1.16791, -0.844055 -1.29359, -0.657462 -1.39106, -0.47087 -1.48852, -0.268247 -1.53725, -0.0502357 -1.53757, 0.161364 -1.53725, 0.347956 -1.49108, 0.509862 -1.39875, 0.671768 -1.30642, 0.803857 -1.1833, 0.90581 -1.02973, 0.92697 -0.991902, 0.946527 -0.951506, 0.96416 -0.908866, 0.981793 -0.865905, 0.986923 -0.855004, 0.97987 -0.875843, 1.06804 -1.02589, 1.20365 -1.17369, 1.38672 -1.31924, 1.56978 -1.46447, 1.77914 -1.53725, 2.0151 -1.53757, 2.14912 -1.53725, 2.28217 -1.5209, 2.41426 -1.48852, 2.54635 -1.45582, 2.66048 -1.40388, 2.75731 -1.33206, 2.85413 -1.26025, 2.92562 -1.17144, 2.97147 -1.06564, 2.99616 -1.00376, 3.00834 -0.933552, 3.00834 -0.855325, 3.00834 -0.803707, 3.00129 -0.745677, 2.98718 -0.680915 Z" stroke="none" fill="#000000" transform="matrix(1.12 0 0 1 16.0636 16.3063)" />
			<rect />
		</svg>
	</g>
</svg>
