<?xml version="1.0"?>
<svg xmlns="http://www.w3.org/2000/svg" xmlns:xlink="http://www.w3.org/1999/xlink" width="329.946045" height="250.621323">
	<defs />
	<path d="M 0 -68.3212 L 0 -45.5469" fill="none" stroke="#000000" stroke-width="3" stroke-linecap="round" stroke-linejoin="round" transform="matrix(-1.54971e-007 -0.333333 0.333333 -1.54971e-007 226.019 52.54)" />
	<path d="M 0 68.3212 L 0 45.5469" fill="none" stroke="#000000" stroke-width="3" stroke-linecap="round" stroke-linejoin="round" transform="matrix(-1.54971e-007 -0.333333 0.333333 -1.54971e-007 226.019 52.54)" />
	<path d="M 45.5469 -0 C 45.5469 25.1548, 25.1548 45.5469, -0 45.5469, -25.1548 45.5469, -45.5469 25.1548, -45.5469 -0, -45.5469 -25.1548, -25.1548 -45.5469, -0 -45.5469, 25.1548 -45.5469, 45.5469 -25.1548, 45.5469 -0 Z" stroke="none" fill="#FFFFFF" transform="matrix(-1.54971e-007 -0.333333 0.333333 -1.54971e-007 226.019 52.54)" />
	<path d="M 45.5469 -0 C 45.5469 25.1548, 25.1548 45.5469, -0 45.5469, -25.1548 45.5469, -45.5469 25.1548, -45.5469 -0, -45.5469 -25.1548, -25.1548 -45.5469, -0 -45.5469, 25.1548 -45.5469, 45.5469 -25.1548, 45.5469 -0 Z" fill="none" stroke="#000000" stroke-width="4.5" stroke-linecap="round" stroke-linejoin="round" transform="matrix(-1.54971e-007 -0.333333 0.333333 -1.54971e-007 226.019 52.54)" />
	<path d="M 0 -45.5469 L 0 45.5469" fill="none" stroke="#000000" stroke-width="3" stroke-linecap="round" stroke-linejoin="round" transform="matrix(-1.54971e-007 -0.333333 0.333333 -1.54971e-007 226.019 52.54)" />
	<path d="M 31.8828 68.3212 L 59.2109 68.3212" fill="none" stroke="#000000" stroke-width="3" stroke-linecap="round" stroke-linejoin="round" transform="matrix(-1.54971e-007 -0.333333 0.333333 -1.54971e-007 226.019 52.54)" />
	<path d="M 45.5469 54.6571 L 45.5469 81.9852" fill="none" stroke="#000000" stroke-width="3" stroke-linecap="round" stroke-linejoin="round" transform="matrix(-1.54971e-007 -0.333333 0.333333 -1.54971e-007 226.019 52.54)" />
	<path d="M 45.5469 -81.9852 L 45.5469 -54.6571" fill="none" stroke="#000000" stroke-width="3" stroke-linecap="round" stroke-linejoin="round" transform="matrix(-1.54971e-007 -0.333333 0.333333 -1.54971e-007 226.019 52.54)" />
	<path d="M -369.955 0 L 369.955 0" fill="none" stroke="#000000" stroke-width="4" stroke-linecap="round" stroke-linejoin="round" transform="matrix(0.333333 0 0 0.333333 159.95 242.121)" />
	<path d="M -19.7908 -12.0952 L -19.7908 12.0952, 19.7908 0 Z" stroke="none" fill="#000000" transform="matrix(2.5166e-008 0.333333 0.333333 -2.5166e-008 36.632 204.662)" />
	<path d="M 0 -199.834 L 0 199.835" fill="none" stroke="#000000" stroke-width="4" stroke-linecap="round" stroke-linejoin="round" transform="matrix(0.333333 0 0 0.333333 36.632 175.51)" />
	<path d="M 0 -68.3207 L 0 -45.5468" fill="none" stroke="#000000" stroke-width="3" stroke-linecap="round" stroke-linejoin="round" transform="matrix(0.333333 -1.00664e-007 1.00664e-007 0.333333 36.5476 166.443)" />
	<path d="M 0 68.3207 L 0 45.5468" fill="none" stroke="#000000" stroke-width="3" stroke-linecap="round" stroke-linejoin="round" transform="matrix(0.333333 -1.00664e-007 1.00664e-007 0.333333 36.5476 166.443)" />
	<path d="M 45.5468 -0 C 45.5468 25.1548, 25.1548 45.5468, -0 45.5468, -25.1548 45.5468, -45.5468 25.1548, -45.5468 -0, -45.5468 -25.1548, -25.1548 -45.5468, -0 -45.5468, 25.1548 -45.5468, 45.5468 -25.1548, 45.5468 -0 Z" stroke="none" fill="#FFFFFF" transform="matrix(0.333333 -1.00664e-007 1.00664e-007 0.333333 36.5476 166.443)" />
	<path d="M 45.5468 -0 C 45.5468 25.1548, 25.1548 45.5468, -0 45.5468, -25.1548 45.5468, -45.5468 25.1548, -45.5468 -0, -45.5468 -25.1548, -25.1548 -45.5468, -0 -45.5468, 25.1548 -45.5468, 45.5468 -25.1548, 45.5468 -0 Z" fill="none" stroke="#000000" stroke-width="4.5" stroke-linecap="round" stroke-linejoin="round" transform="matrix(0.333333 -1.00664e-007 1.00664e-007 0.333333 36.5476 166.443)" />
	<path d="M -45.5468 0 L 45.5468 0" fill="none" stroke="#000000" stroke-width="3" stroke-linecap="round" stroke-linejoin="round" transform="matrix(0.333333 -1.00664e-007 1.00664e-007 0.333333 36.5476 166.443)" />
	<g transform="matrix(1 0 -0 1 8.99997 191.223)">
		<svg width="50.936203" height="54.1276474">
			<defs />
			<path d="M 8.72362 4.3115 C 8.7053 4.39165, 8.66294 4.45864, 8.59652 4.5136, 8.53011 4.56856, 8.44996 4.59604, 8.3555 4.59547, 8.06008 4.59604, 7.77097 4.60234, 7.48757 4.61436, 7.20475 4.62695, 7.00037 4.66016, 6.87442 4.71455, 6.74274 4.75806, 6.64484 4.91664, 6.58186 5.19088 L 3.93057 15.5144 C 3.90538 15.6312, 3.89278 15.7319, 3.89278 15.8167, 3.89278 15.9025, 3.90881 15.9546, 3.9403 15.9724, 4.02847 16.0279, 4.21053 16.06, 4.48762 16.0691, 4.76472 16.0783, 5.0567 16.0829, 5.36471 16.0823, 5.54104 16.0829, 5.62921 16.1562, 5.62921 16.3021, 5.62921 16.3394, 5.62291 16.3789, 5.61031 16.4212 L 5.57253 16.5678 C 5.50325 16.751, 5.3836 16.8426, 5.21356 16.8426, 4.40232 16.806, 3.58134 16.7876, 2.7512 16.7876, 1.92736 16.7876, 1.09092 16.806, 0.241318 16.8426, 0.0787248 16.8426, -0.0031441 16.7636, -0.0037166 16.6044 L -0.0037166 16.5311, 0.034069 16.3754 C 0.0850224 16.1745, 0.207539 16.0766, 0.402193 16.0823, 0.710203 16.0829, 1.00619 16.0783, 1.28901 16.0691, 1.57183 16.06, 1.77622 16.0279, 1.90217 15.9724, 2.01553 15.9117, 2.10713 15.7468, 2.17583 15.4777 L 4.84601 5.15423 C 4.8712 5.03859, 4.8838 4.94699, 4.8838 4.87943, 4.8838 4.7884, 4.86834 4.73058, 4.83628 4.70539, 4.73609 4.6573, 4.54774 4.62695, 4.27064 4.61436, 3.99355 4.60234, 3.70729 4.59604, 3.41188 4.59547, 3.23554 4.59604, 3.14738 4.5136, 3.14738 4.34814 L 3.14738 4.28402, 3.18516 4.11914 C 3.25444 3.93651, 3.37409 3.84491, 3.54355 3.84433, 4.36797 3.86952, 5.19524 3.88155, 6.02538 3.88097, 6.86239 3.88155, 7.69253 3.86952, 8.5158 3.84433, 8.60397 3.84491, 8.67954 3.87525, 8.74251 3.93593, 8.7677 3.98517, 8.7803 4.03097, 8.7803 4.07334, 8.7803 4.11055, 8.77114 4.14433, 8.75167 4.1741 Z" stroke="none" fill="#000000" />
			<path d="M 3.15184 -1.74789 C 3.13069 -1.65171, 3.07811 -1.60394, 2.99347 -1.60426, 2.98641 -1.59721, 2.96878 -1.59368, 2.94057 -1.594, 2.92325 -1.59368, 2.90915 -1.59721, 2.89825 -1.60426 L 2.8508 -1.60426 C 2.75942 -1.60394, 2.71358 -1.63824, 2.71358 -1.70685 L 2.71358 -1.74276 C 2.7559 -1.9954, 2.77674 -2.22976, 2.77674 -2.44553 L 2.77674 -2.64046 C 2.75558 -2.90335, 2.69658 -3.13002, 2.59976 -3.31982, 2.50294 -3.50962, 2.36123 -3.65645, 2.17464 -3.76097, 1.98805 -3.86517, 1.75208 -3.91743, 1.46674 -3.91775, 1.30131 -3.91743, 1.13331 -3.88152, 0.96243 -3.8097, 0.791548 -3.73789, 0.632207 -3.64042, 0.484087 -3.51763, 0.322502 -3.38394, 0.190412 -3.23261, 0.0881391 -3.06333, -0.0138135 -2.89405, -0.0878732 -2.72061, -0.13372 -2.54299, -0.168987 -2.41603, -0.188223 -2.29484, -0.19207 -2.17878, -0.19207 -2.01784, -0.156804 -1.86395, -0.0862703 -1.71711, 0.0160029 -1.47057, 0.199069 -1.31315, 0.463248 -1.24518 L 1.67802 -0.906621 C 1.89988 -0.841218, 2.08936 -0.737662, 2.24613 -0.595954, 2.40291 -0.453926, 2.52089 -0.28625, 2.60008 -0.093245, 2.67927 0.10008, 2.72576 0.311038, 2.73987 0.539951 L 2.73987 0.632285 C 2.73987 0.83106, 2.71165 1.03432, 2.65523 1.24272, 2.58149 1.5303, 2.46351 1.8073, 2.30128 2.07405, 2.13937 2.34079, 1.93867 2.58028, 1.69918 2.79188, 1.47027 2.98713, 1.21956 3.14359, 0.9464 3.26125, 0.673565 3.37923, 0.399768 3.43822, 0.125009 3.43822, -0.279916 3.43822, -0.624887 3.37346, -0.910226 3.2433, -1.19557 3.11377, -1.40684 2.94962, -1.54438 2.75085 L -2.06729 3.37154 C -2.11282 3.4161, -2.16059 3.43822, -2.20996 3.43822 L -2.24138 3.43822 C -2.32923 3.43822, -2.377 3.40424, -2.38405 3.33563, -2.38405 3.31511, -2.3786 3.29652, -2.36834 3.2792 L -1.75566 0.87851 C -1.7345 0.78297, -1.67263 0.733596, -1.57067 0.729749 L -1.45429 0.729749 C -1.41197 0.73007, -1.3735 0.747062, -1.33823 0.781046, -1.32413 0.808618, -1.31707 0.832664, -1.31707 0.852862, -1.31707 0.866968, -1.3206 0.88396, -1.32765 0.904159, -1.39113 1.1507, -1.42287 1.37994, -1.42287 1.59154, -1.42287 1.93042, -1.33984 2.21768, -1.17441 2.45332, -0.910226 2.83324, -0.448875 3.02304, 0.209649 3.02272, 0.375081 3.02304, 0.543399 2.98457, 0.713961 2.90762, 0.884844 2.83068, 1.04418 2.72712, 1.19198 2.59696, 1.35421 2.44691, 1.49047 2.2802, 1.6014 2.09713, 1.71233 1.91439, 1.7944 1.72523, 1.84698 1.52998, 1.88225 1.37288, 1.89988 1.22605, 1.89988 1.08883, 1.89988 0.918265, 1.87712 0.754115, 1.83127 0.596377, 1.72579 0.333481, 1.53022 0.164201, 1.24488 0.0885382 L 0.045819 -0.250021 C -0.168987 -0.30773, -0.353655 -0.402629, -0.508828 -0.534398, -0.663681 -0.665846, -0.784228 -0.822302, -0.870471 -1.00376, -0.956714 -1.18491, -1.00705 -1.38496, -1.02116 -1.60426 L -1.02116 -1.71711 C -1.02116 -1.88767, -0.999996 -2.06721, -0.957996 -2.25573, -0.883937 -2.52889, -0.765954 -2.7905, -0.604048 -3.04025, -0.441822 -3.28968, -0.241123 -3.51058, -0.00163054 -3.7023, 0.223755 -3.88665, 0.471263 -4.03445, 0.740571 -4.1457, 1.00988 -4.25663, 1.27662 -4.31241, 1.5408 -4.31273, 1.90373 -4.31241, 2.20285 -4.24477, 2.43882 -4.10979, 2.67478 -3.9745, 2.84567 -3.81483, 2.95115 -3.63049 L 3.45834 -4.24092 C 3.48656 -4.28837, 3.5324 -4.31241, 3.59556 -4.31273 L 3.64301 -4.31273 C 3.72765 -4.31241, 3.76997 -4.27138, 3.76997 -4.18962 L 3.76997 -4.14858 Z" stroke="none" fill="#000000" transform="matrix(1.12 0 0 1 11.2072 16.3063)" />
			<rect />
		</svg>
	</g>
	<path d="M -370.082 0 L 370.082 0" fill="none" stroke="#000000" stroke-width="4" stroke-linecap="round" stroke-linejoin="round" transform="matrix(0.333333 0 0 0.333333 159.908 108.898)" />
	<path d="M 0 -284.372 L 0 284.372" fill="none" stroke="#000000" stroke-width="4" stroke-linecap="round" stroke-linejoin="round" transform="matrix(0.333333 0 0 0.333333 98.6479 147.331)" />
	<path d="M -47.3513 -13.6641 L 47.3513 -13.6641, 47.3513 13.6641, -47.3513 13.6641 Z" stroke="none" fill="#FFFFFF" transform="matrix(2.5166e-008 0.333333 -0.333333 2.5166e-008 98.647 158.19)" />
	<path d="M -47.3513 -13.6641 L 47.3513 -13.6641, 47.3513 13.6641, -47.3513 13.6641 Z" fill="none" stroke="#000000" stroke-width="4.5" stroke-linecap="round" stroke-linejoin="round" transform="matrix(2.5166e-008 0.333333 -0.333333 2.5166e-008 98.647 158.19)" />
	<g transform="matrix(1 0 -0 1 113.409 146.983)">
		<svg width="77.9182587" height="48.0957298">
			<defs />
			<path d="M 8.50221 12.7632 C 8.50221 13.386, 8.41019 13.9442, 8.22504 14.438, 8.03989 14.9317, 7.7257 15.4181, 7.2819 15.8962, 6.84428 16.3456, 6.39599 16.6732, 5.93704 16.8791, 5.4781 17.0856, 4.92489 17.1888, 4.27743 17.1888, 3.61818 17.1888, 3.01448 17.0261, 2.46577 16.6996, 1.91705 16.3742, 1.47942 15.9326, 1.15289 15.3755, 0.690575 14.6158, 0.39658 13.8141, 0.270341 12.9702, 0.144103 12.1264, 0.0807031 11.2854, 0.0807031 10.4472, 0.0807031 9.61005, 0.202453 8.78586, 0.445953 7.97457, 0.689453 7.16384, 1.07883 6.41426, 1.6152 5.72528, 2.06517 5.13953, 2.61389 4.65758, 3.26079 4.28055, 3.90825 3.90352, 4.61967 3.715, 5.39618 3.71444, 6.14239 3.715, 6.7618 3.90689, 7.25441 4.28953, 7.74758 4.67273, 7.99389 5.22313, 7.99389 5.94073, 7.99389 6.27624, 7.89233 6.52479, 7.68867 6.68637, 7.48557 6.84796, 7.25104 6.92875, 6.98622 6.92819, 6.73375 6.92875, 6.50708 6.84796, 6.30678 6.68637, 6.10648 6.52479, 6.00605 6.27624, 6.00605 5.94073, 6.00605 5.58221, 6.13902 5.3129, 6.40384 5.1328, 6.57665 5.02564, 6.77078 4.97178, 6.98622 4.97122, 7.05411 4.97178, 7.06309 4.96897, 7.01372 4.96224, 6.92787 4.83095, 6.73824 4.70135, 6.44536 4.5723, 6.15249 4.44382, 5.80295 4.3793, 5.39618 4.37874, 4.84746 4.3793, 4.35485 4.54257, 3.91723 4.86854, 3.4796 5.19508, 3.10986 5.60297, 2.80745 6.09333, 2.45062 6.71611, 2.23461 7.39443, 2.16055 8.12718, 2.08649 8.86048, 2.04329 9.4451, 2.03095 9.88161, 2.14204 9.62464, 2.4091 9.30933, 2.83102 8.9351, 3.25293 8.56143, 3.78762 8.37404, 4.43453 8.37348, 5.05113 8.37404, 5.58301 8.47728, 6.02962 8.68375, 6.47622 8.89022, 6.90599 9.2117, 7.31893 9.64821, 7.75039 10.1274, 8.0556 10.6093, 8.23402 11.0941, 8.413 11.5788, 8.50221 12.1354, 8.50221 12.7632 Z M 6.53289 12.7632 C 6.53289 12.1892, 6.51493 11.6731, 6.4779 11.2152, 6.44087 10.7574, 6.318 10.3551, 6.10817 10.0073, 5.89272 9.65494, 5.65202 9.39461, 5.3872 9.22685, 5.12238 9.05966, 4.79865 8.9755, 4.41601 8.97494, 4.00307 8.9755, 3.65072 9.08041, 3.35785 9.28969, 3.06498 9.49953, 2.81699 9.77445, 2.61389 10.1156, 2.41078 10.4567, 2.26547 10.8545, 2.17907 11.3089, 2.11735 11.6209, 2.08649 11.953, 2.08649 12.3054, 2.08649 12.4434, 2.09266 12.5904, 2.10501 12.7453 L 2.10501 12.8171 C 2.12969 13.2665, 2.16392 13.6856, 2.20712 14.0744, 2.25032 14.4638, 2.31821 14.7808, 2.41022 15.0254, 2.58303 15.4569, 2.83719 15.807, 3.1727 16.0763, 3.50878 16.3456, 3.87683 16.4802, 4.27743 16.4797, 4.69037 16.4802, 5.03879 16.4011, 5.32212 16.2423, 5.60602 16.0841, 5.85569 15.8277, 6.07114 15.4742, 6.29332 15.1219, 6.42573 14.7224, 6.46837 14.2764, 6.51157 13.8309, 6.53289 13.3265, 6.53289 12.7632 Z" stroke="none" fill="#000000" />
			<path d="M 23.547 16.6044 C 23.5092 16.751, 23.4056 16.8243, 23.2355 16.8243 L 20.1136 16.8243 C 19.9064 16.8243, 19.8022 16.7241, 19.8022 16.522, 19.8022 15.7714, 19.9138 15.0478, 20.1371 14.3516, 20.3604 13.6554, 20.6043 12.9673, 20.8682 12.286, 21.1327 11.6053, 21.3714 10.9257, 21.585 10.2479, 21.7991 9.57, 21.9056 8.88013, 21.9056 8.17708, 21.9056 7.62805, 21.8209 7.09561, 21.6508 6.57921, 21.4814 6.06338, 21.214 5.60995, 20.8493 5.21893, 20.4846 4.82848, 20.0541 4.52905, 19.5572 4.32123, 19.0602 4.11398, 18.5415 4.00979, 18.0005 4.00921, 17.4601 4.00979, 16.9414 4.11398, 16.4444 4.32123, 15.9475 4.52905, 15.5187 4.82848, 15.1569 5.21893, 14.795 5.60995, 14.5277 6.06338, 14.3548 6.57921, 14.1819 7.09561, 14.0954 7.62805, 14.0954 8.17708, 14.0954 8.88013, 14.2042 9.57, 14.4206 10.2479, 14.6376 10.9257, 14.878 11.6053, 15.142 12.286, 15.4065 12.9673, 15.6498 13.6571, 15.8731 14.3562, 16.0963 15.0558, 16.208 15.7777, 16.208 16.522, 16.208 16.7241, 16.1107 16.8243, 15.916 16.8243 L 12.7649 16.8243 C 12.6017 16.8243, 12.501 16.751, 12.4632 16.6044 L 11.8031 13.9846 C 11.8031 13.8203, 11.8913 13.7167, 12.067 13.6732 L 12.1706 13.6732 C 12.3344 13.6738, 12.4351 13.7499, 12.4729 13.9022, 12.5737 14.3241, 12.6664 14.6722, 12.7512 14.947, 12.8359 15.2218, 12.8943 15.3684, 12.9252 15.3861, 12.9882 15.4354, 13.1393 15.4663, 13.3781 15.4783, 13.6174 15.4909, 13.9036 15.4966, 14.2368 15.496 L 15.4443 15.496 C 15.3126 14.947, 15.0624 14.3825, 14.6943 13.802, 14.3267 13.222, 13.9443 12.6387, 13.5481 12.0524, 13.1519 11.4662, 12.8015 10.8587, 12.4964 10.2295, 12.1918 9.60092, 12.039 8.91677, 12.039 8.17708, 12.039 7.49351, 12.1993 6.86203, 12.5199 6.28151, 12.8405 5.70155, 13.2716 5.20347, 13.812 4.78783, 14.3971 4.31837, 15.0515 3.96857, 15.7746 3.73956, 16.4977 3.51056, 17.2396 3.39606, 18.0005 3.39548, 18.7619 3.39606, 19.5039 3.51056, 20.227 3.73956, 20.9501 3.96857, 21.6136 4.31837, 22.217 4.78783, 22.7455 5.21606, 23.1731 5.71816, 23.5 6.29525, 23.8269 6.87234, 23.9901 7.49981, 23.9901 8.17708, 23.9901 8.91677, 23.8378 9.60092, 23.5327 10.2295, 23.2281 10.8587, 22.8743 11.4662, 22.4718 12.0524, 22.0693 12.6387, 21.6823 13.222, 21.3113 13.802, 20.9403 14.3825, 20.689 14.947, 20.5568 15.496 L 21.7733 15.496 C 22.1071 15.4966, 22.3934 15.4909, 22.6321 15.4783, 22.8714 15.4663, 23.022 15.4354, 23.085 15.3861, 23.1039 15.3747, 23.1571 15.2281, 23.2453 14.947, 23.3334 14.6665, 23.4273 14.3178, 23.5281 13.9022, 23.5659 13.7562, 23.6701 13.68, 23.8395 13.6732 L 23.9432 13.6732 C 24.1132 13.7104, 24.1979 13.814, 24.1979 13.9846 Z" stroke="none" fill="#000000" />
			<rect />
		</svg>
	</g>
	<path d="M -19.7908 -12.0952 L -19.7908 12.0952, 19.7908 0 Z" stroke="none" fill="#000000" transform="matrix(2.5166e-008 0.333333 0.333333 -2.5166e-008 98.6479 207.691)" />
	<g transform="matrix(1 0 -0 1 110.706 194.484)">
		<svg width="42.0378685" height="54.1276474">
			<defs />
			<path d="M 8.72362 4.3115 C 8.7053 4.39165, 8.66294 4.45864, 8.59652 4.5136, 8.53011 4.56856, 8.44996 4.59604, 8.3555 4.59547, 8.06008 4.59604, 7.77097 4.60234, 7.48757 4.61436, 7.20475 4.62695, 7.00037 4.66016, 6.87442 4.71455, 6.74274 4.75806, 6.64484 4.91664, 6.58186 5.19088 L 3.93057 15.5144 C 3.90538 15.6312, 3.89278 15.7319, 3.89278 15.8167, 3.89278 15.9025, 3.90881 15.9546, 3.9403 15.9724, 4.02847 16.0279, 4.21053 16.06, 4.48762 16.0691, 4.76472 16.0783, 5.0567 16.0829, 5.36471 16.0823, 5.54104 16.0829, 5.62921 16.1562, 5.62921 16.3021, 5.62921 16.3394, 5.62291 16.3789, 5.61031 16.4212 L 5.57253 16.5678 C 5.50325 16.751, 5.3836 16.8426, 5.21356 16.8426, 4.40232 16.806, 3.58134 16.7876, 2.7512 16.7876, 1.92736 16.7876, 1.09092 16.806, 0.241318 16.8426, 0.0787248 16.8426, -0.0031441 16.7636, -0.0037166 16.6044 L -0.0037166 16.5311, 0.034069 16.3754 C 0.0850224 16.1745, 0.207539 16.0766, 0.402193 16.0823, 0.710203 16.0829, 1.00619 16.0783, 1.28901 16.0691, 1.57183 16.06, 1.77622 16.0279, 1.90217 15.9724, 2.01553 15.9117, 2.10713 15.7468, 2.17583 15.4777 L 4.84601 5.15423 C 4.8712 5.03859, 4.8838 4.94699, 4.8838 4.87943, 4.8838 4.7884, 4.86834 4.73058, 4.83628 4.70539, 4.73609 4.6573, 4.54774 4.62695, 4.27064 4.61436, 3.99355 4.60234, 3.70729 4.59604, 3.41188 4.59547, 3.23554 4.59604, 3.14738 4.5136, 3.14738 4.34814 L 3.14738 4.28402, 3.18516 4.11914 C 3.25444 3.93651, 3.37409 3.84491, 3.54355 3.84433, 4.36797 3.86952, 5.19524 3.88155, 6.02538 3.88097, 6.86239 3.88155, 7.69253 3.86952, 8.5158 3.84433, 8.60397 3.84491, 8.67954 3.87525, 8.74251 3.93593, 8.7677 3.98517, 8.7803 4.03097, 8.7803 4.07334, 8.7803 4.11055, 8.77114 4.14433, 8.75167 4.1741 Z" stroke="none" fill="#000000" />
			<path d="M 2.37267 3.19713 C 1.72472 3.17661, 1.09441 3.16635, 0.481416 3.16635, -0.131261 3.16635, -0.761571 3.17661, -1.40951 3.19713 L -1.40951 2.75598, -1.04499 2.75598 C -0.928927 2.7563, -0.819601 2.75469, -0.717648 2.75117, -0.615375 2.74796, -0.518552 2.7393, -0.426859 2.72552, -0.335166 2.71205, -0.255976 2.69827, -0.18929 2.68416, -0.132864 2.67422, -0.086376 2.6428, -0.0495062 2.58958, -0.012316 2.53668, 0.00595856 2.47769, 0.00595856 2.41229 L 0.00595856 -3.36887 C -0.169733 -3.28295, -0.386463 -3.21787, -0.643588 -3.17362, -0.900714 -3.12906, -1.18221 -3.10694, -1.4887 -3.10726 L -1.4887 -3.54328 C -1.06615 -3.54296, -0.675969 -3.59329, -0.318494 -3.69429, 0.0389807 -3.79496, 0.348044 -3.98411, 0.608376 -4.26144 L 0.772206 -4.26144 C 0.888265 -4.26112, 0.946294 -4.20469, 0.946294 -4.09216 L 0.946294 2.41229 C 0.946294 2.4809, 0.963928 2.54085, 0.999194 2.59215, 1.03446 2.64344, 1.08576 2.67422, 1.15244 2.68416, 1.20887 2.69827, 1.28133 2.71205, 1.36917 2.72552, 1.45702 2.7393, 1.55641 2.74796, 1.66734 2.75117, 1.77827 2.75469, 1.88663 2.7563, 1.99243 2.75598 L 2.37267 2.75598, 2.37267 3.19713 Z" stroke="none" fill="#000000" transform="matrix(1.12 0 0 1 10.309 16.3063)" />
			<rect />
		</svg>
	</g>
	<path d="M 0 -91.0953 L 0 -63.7667" fill="none" stroke="#000000" stroke-width="3" stroke-linecap="round" stroke-linejoin="round" transform="matrix(2.5166e-008 0.333333 -0.333333 2.5166e-008 181.312 108.898)" />
	<path d="M 0 63.7667 L 0 91.0953" fill="none" stroke="#000000" stroke-width="3" stroke-linecap="round" stroke-linejoin="round" transform="matrix(2.5166e-008 0.333333 -0.333333 2.5166e-008 181.312 108.898)" />
	<path d="M 0 -63.7667 L -45.5475 0, 0 63.7667, 45.5475 0 Z" stroke="none" fill="#FFFFFF" transform="matrix(2.5166e-008 0.333333 -0.333333 2.5166e-008 181.312 108.898)" />
	<path d="M 0 -63.7667 L -45.5475 0, 0 63.7667, 45.5475 0 Z" fill="none" stroke="#000000" stroke-width="4.5" stroke-linecap="round" stroke-linejoin="round" transform="matrix(2.5166e-008 0.333333 -0.333333 2.5166e-008 181.312 108.898)" />
	<path d="M -45.5475 0 L 45.5475 0" fill="none" stroke="#000000" stroke-width="3" stroke-linecap="round" stroke-linejoin="round" transform="matrix(2.5166e-008 0.333333 -0.333333 2.5166e-008 181.312 108.898)" />
	<path d="M -19.7908 -12.0953 L -19.7908 12.0953, 19.7908 0 Z" stroke="none" fill="#000000" transform="matrix(0.333333 0 0 -0.333333 230.366 108.898)" />
	<g transform="matrix(1 0 -0 1 216.808 118.701)">
		<svg width="75.0478287" height="54.1276474">
			<defs />
			<path d="M 8.50312 13.3826 C 8.50312 13.8977, 8.38923 14.392, 8.16144 14.8644, 7.93365 15.3374, 7.62843 15.7413, 7.24579 16.0757, 6.81489 16.4533, 6.33855 16.7327, 5.81789 16.9151, 5.29723 17.098, 4.753 17.1888, 4.18577 17.1888, 3.67464 17.1888, 3.17586 17.117, 2.68886 16.9734, 2.20186 16.8298, 1.76311 16.6239, 1.37149 16.3546, 0.979875 16.0852, 0.667365 15.7548, 0.432842 15.3626, 0.19888 14.971, 0.0816184 14.5204, 0.0816184 14.011, 0.0816184 13.6284, 0.20954 13.3428, 0.465383 13.1543, 0.721226 12.9658, 0.990535 12.8715, 1.27387 12.8709, 1.57011 12.8715, 1.84559 12.9658, 2.10143 13.1543, 2.35728 13.3428, 2.4852 13.6284, 2.4852 14.011, 2.4852 14.2388, 2.44087 14.429, 2.3511 14.5816, 2.2619 14.7342, 2.148 14.8616, 2.00886 14.9631, 1.87028 15.0652, 1.7115 15.1275, 1.53308 15.1511, 1.44107 15.1758, 1.35466 15.1875, 1.27387 15.187, 1.1942 15.1875, 1.18186 15.1937, 1.23684 15.2049, 1.42816 15.5405, 1.80407 15.8373, 2.36513 16.0942, 2.92619 16.3517, 3.5327 16.4802, 4.18577 16.4797, 4.49435 16.4802, 4.78218 16.4039, 5.05036 16.2513, 5.31855 16.0987, 5.54241 15.8939, 5.72083 15.6358, 5.94301 15.3014, 6.09393 14.9424, 6.1736 14.5592, 6.25383 14.1765, 6.29367 13.7843, 6.29367 13.3826, 6.29367 12.9702, 6.25383 12.5741, 6.1736 12.1937, 6.09393 11.8139, 5.94301 11.4621, 5.72083 11.1384, 5.53568 10.8758, 5.31069 10.6632, 5.04587 10.5016, 4.78105 10.34, 4.49435 10.2592, 4.18577 10.2586 L 2.8454 10.2586 C 2.66698 10.2592, 2.5716 10.1756, 2.55926 10.0073 L 2.55926 9.90854 C 2.55926 9.83728, 2.58114 9.78062, 2.62378 9.73798, 2.67932 9.68468, 2.75002 9.65775, 2.83642 9.65718, 3.0154 9.63362, 3.19999 9.62184, 3.39075 9.62128, 3.5759 9.62184, 3.75824 9.61005, 3.93666 9.58537, 4.26937 9.5618, 4.55887 9.45913, 4.80518 9.27623, 5.05204 9.09388, 5.25851 8.86048, 5.42459 8.57602, 5.59122 8.29213, 5.71746 7.96447, 5.80386 7.59305, 5.89027 7.22219, 5.93347 6.84179, 5.93347 6.45241, 5.93347 6.16571, 5.90261 5.8936, 5.84089 5.63607, 5.77918 5.37911, 5.66528 5.15412, 5.49865 4.96224, 5.1536 4.56781, 4.71597 4.37313, 4.18577 4.37874, 3.6191 4.3793, 3.10012 4.4859, 2.62883 4.69798, 2.15754 4.91062, 1.8411 5.13953, 1.68064 5.38415, 1.638 5.39089, 1.65932 5.39369, 1.74572 5.39313, 1.9679 5.39369, 2.17718 5.45934, 2.37411 5.59062, 2.67035 5.76455, 2.81791 6.05799, 2.81791 6.47037, 2.81791 6.81822, 2.70569 7.08024, 2.48071 7.25641, 2.25572 7.43314, 2.00437 7.52123, 1.72721 7.52067, 1.45621 7.52123, 1.20205 7.43483, 0.964726 7.2609, 0.727398 7.08753, 0.608453 6.82383, 0.608453 6.47037, 0.608453 6.03386, 0.713371 5.64841, 0.922647 5.3129, 1.13248 4.97795, 1.40179 4.69069, 1.73169 4.45111, 2.0616 4.2121, 2.442 4.0292, 2.87345 3.90352, 3.30491 3.77784, 3.74253 3.715, 4.18577 3.71444, 4.66043 3.715, 5.11993 3.77784, 5.56373 3.90352, 6.00753 4.0292, 6.42664 4.22388, 6.8205 4.48646, 7.14143 4.71425, 7.41074 4.99422, 7.62955 5.32637, 7.84837 5.65851, 7.95777 6.03386, 7.95777 6.45241, 7.95777 6.87208, 7.88259 7.26707, 7.73167 7.63793, 7.58074 8.00935, 7.38044 8.34431, 7.13077 8.64335, 6.8811 8.94296, 6.58374 9.20609, 6.23869 9.43332, 5.89363 9.66111, 5.63442 9.80418, 5.46162 9.86365, 5.60974 9.88217, 5.86278 9.97082, 6.22017 10.129, 6.57757 10.2878, 6.91925 10.4988, 7.24579 10.7613, 7.62843 11.0913, 7.93365 11.4846, 8.16144 11.9424, 8.38923 12.4002, 8.50312 12.8805, 8.50312 13.3826 Z" stroke="none" fill="#000000" />
			<path d="M 18.6902 4.3115 C 18.6718 4.39165, 18.6295 4.45864, 18.5631 4.5136, 18.4967 4.56856, 18.4165 4.59604, 18.322 4.59547, 18.0266 4.59604, 17.7375 4.60234, 17.4541 4.61436, 17.1713 4.62695, 16.9669 4.66016, 16.841 4.71455, 16.7093 4.75806, 16.6114 4.91664, 16.5484 5.19088 L 13.8971 15.5144 C 13.8719 15.6312, 13.8593 15.7319, 13.8593 15.8167, 13.8593 15.9025, 13.8754 15.9546, 13.9068 15.9724, 13.995 16.0279, 14.1771 16.06, 14.4542 16.0691, 14.7313 16.0783, 15.0232 16.0829, 15.3313 16.0823, 15.5076 16.0829, 15.5958 16.1562, 15.5958 16.3021, 15.5958 16.3394, 15.5895 16.3789, 15.5769 16.4212 L 15.5391 16.5678 C 15.4698 16.751, 15.3501 16.8426, 15.1801 16.8426, 14.3689 16.806, 13.5479 16.7876, 12.7177 16.7876, 11.8939 16.7876, 11.0575 16.806, 10.2079 16.8426, 10.0453 16.8426, 9.9634 16.7636, 9.96283 16.6044 L 9.96283 16.5311, 10.0006 16.3754 C 10.0516 16.1745, 10.1741 16.0766, 10.3687 16.0823, 10.6767 16.0829, 10.9727 16.0783, 11.2556 16.0691, 11.5384 16.06, 11.7428 16.0279, 11.8687 15.9724, 11.9821 15.9117, 12.0737 15.7468, 12.1424 15.4777 L 14.8126 5.15423 C 14.8377 5.03859, 14.8503 4.94699, 14.8503 4.87943, 14.8503 4.7884, 14.8349 4.73058, 14.8028 4.70539, 14.7026 4.6573, 14.5143 4.62695, 14.2372 4.61436, 13.9601 4.60234, 13.6738 4.59604, 13.3784 4.59547, 13.2021 4.59604, 13.1139 4.5136, 13.1139 4.34814 L 13.1139 4.28402, 13.1517 4.11914 C 13.221 3.93651, 13.3406 3.84491, 13.5101 3.84433, 14.3345 3.86952, 15.1618 3.88155, 15.9919 3.88097, 16.8289 3.88155, 17.6591 3.86952, 18.4823 3.84433, 18.5705 3.84491, 18.6461 3.87525, 18.7091 3.93593, 18.7342 3.98517, 18.7468 4.03097, 18.7468 4.07334, 18.7468 4.11055, 18.7377 4.14433, 18.7182 4.1741 Z" stroke="none" fill="#000000" />
			<path d="M 2.37714 3.19713 C 1.7292 3.17661, 1.09857 3.16635, 0.485571 3.16635, -0.127106 3.16635, -0.757737 3.17661, -1.406 3.19713 L -1.406 2.75598, -1.04115 2.75598 C -0.925093 2.7563, -0.815766 2.75469, -0.713814 2.75117, -0.611541 2.74796, -0.514718 2.7393, -0.423025 2.72552, -0.331331 2.71205, -0.252142 2.69827, -0.185456 2.68416, -0.12903 2.67422, -0.082221 2.6428, -0.0453515 2.58958, -0.00816131 2.53668, 0.0101132 2.47769, 0.0101132 2.41229 L 0.0101132 -3.36887 C -0.165899 -3.28295, -0.382628 -3.21787, -0.639754 -3.17362, -0.89688 -3.12906, -1.17869 -3.10694, -1.48519 -3.10726 L -1.48519 -3.54328 C -1.06231 -3.54296, -0.672135 -3.59329, -0.31466 -3.69429, 0.042815 -3.79496, 0.351879 -3.98411, 0.612531 -4.26144 L 0.77636 -4.26144 C 0.89242 -4.26112, 0.950449 -4.20469, 0.950449 -4.09216 L 0.950449 2.41229 C 0.950449 2.4809, 0.968082 2.54085, 1.00335 2.59215, 1.03862 2.64344, 1.08991 2.67422, 1.1566 2.68416, 1.21302 2.69827, 1.28548 2.71205, 1.37333 2.72552, 1.46149 2.7393, 1.56088 2.74796, 1.67181 2.75117, 1.78274 2.75469, 1.89111 2.7563, 1.99658 2.75598 L 2.37714 2.75598, 2.37714 3.19713 Z" stroke="none" fill="#000000" transform="matrix(1.12 0 0 1 20.344 16.3063)" />
			<rect />
		</svg>
	</g>
	<path d="M 0 -284.212 L 0 284.212" fill="none" stroke="#000000" stroke-width="4" stroke-linecap="round" stroke-linejoin="round" transform="matrix(0.333333 0 0 0.333333 283.269 147.384)" />
	<path d="M -91.0951 0 L -54.6571 0" fill="none" stroke="#000000" stroke-width="3" stroke-linecap="round" stroke-linejoin="round" transform="matrix(2.5166e-008 0.333333 -0.333333 2.5166e-008 283.269 175.51)" />
	<path d="M 54.6571 0 L 91.0951 0" fill="none" stroke="#000000" stroke-width="3" stroke-linecap="round" stroke-linejoin="round" transform="matrix(2.5166e-008 0.333333 -0.333333 2.5166e-008 283.269 175.51)" />
	<path d="M -54.6571 -13.664 L 54.6571 -13.664, 54.6571 13.664, -54.6571 13.664 Z" stroke="none" fill="#FFFFFF" transform="matrix(2.5166e-008 0.333333 -0.333333 2.5166e-008 283.269 175.51)" />
	<path d="M -54.6571 -13.664 L 54.6571 -13.664, 54.6571 13.664, -54.6571 13.664 Z" fill="none" stroke="#000000" stroke-width="4.5" stroke-linecap="round" stroke-linejoin="round" transform="matrix(2.5166e-008 0.333333 -0.333333 2.5166e-008 283.269 175.51)" />
	<path d="M -22.7733 45.5465 L 22.7733 -45.5465" fill="none" stroke="#000000" stroke-width="3" stroke-linecap="round" stroke-linejoin="round" transform="matrix(2.5166e-008 0.333333 -0.333333 2.5166e-008 283.269 175.51)" />
	<path d="M -22.7733 45.5465 L 22.7733 -45.5465, 50.1012 -45.5465" fill="none" stroke="#000000" stroke-width="3" stroke-linecap="round" stroke-linejoin="round" transform="matrix(2.5166e-008 0.333333 -0.333333 2.5166e-008 283.269 175.51)" />
	<g transform="matrix(1 0 -0 1 307.983 164.302)">
		<svg width="42.0378685" height="48.0957298">
			<defs />
			<path d="M 12.9653 14.9922 C 12.8966 15.2676, 12.793 15.5378, 12.6545 15.8035, 12.5159 16.0691, 12.3465 16.309, 12.1449 16.5226, 11.9434 16.7367, 11.7184 16.9113, 11.47 17.0487, 11.2215 17.1861, 10.953 17.2548, 10.6633 17.2548, 9.75128 17.2548, 9.06541 17.0138, 8.60626 16.5311, 8.29195 16.202, 8.13451 15.7869, 8.13451 15.2854, 8.13451 15.0295, 8.17573 14.7518, 8.2576 14.4518 L 8.68183 12.8121 C 8.73221 12.6049, 8.7574 12.4097, 8.7574 12.2259, 8.7574 12.1348, 8.7511 12.0404, 8.73851 11.9419, 8.70072 11.686, 8.61313 11.4604, 8.47458 11.2646, 8.33603 11.0694, 8.15856 10.9154, 7.94158 10.802, 7.72459 10.6893, 7.46811 10.6326, 7.17212 10.632 L 5.0401 10.632, 3.78515 15.5144 C 3.75996 15.6312, 3.74737 15.7256, 3.74737 15.7983, 3.74737 15.8905, 3.76626 15.9518, 3.80405 15.9815, 3.88592 16.0308, 4.05595 16.06, 4.31358 16.0691, 4.57178 16.0783, 4.84831 16.0829, 5.14372 16.0823, 5.32005 16.0829, 5.40822 16.1562, 5.40822 16.3021, 5.40822 16.3394, 5.40192 16.3789, 5.38933 16.4212 L 5.35154 16.5678 C 5.28284 16.751, 5.15975 16.8426, 4.98342 16.8426, 4.20996 16.806, 3.4302 16.7876, 2.64357 16.7876, 1.85751 16.7876, 1.06802 16.806, 0.27567 16.8426, 0.106207 16.8426, 0.0151782 16.7636, 0.00201051 16.6044 L 0.00201051 16.5311, 0.0397962 16.3754 C 0.090177 16.1745, 0.212694 16.0766, 0.407347 16.0823, 0.703335 16.0829, 0.983292 16.0783, 1.24722 16.0691, 1.51172 16.06, 1.70637 16.0279, 1.83232 15.9724, 1.95198 15.906, 2.04301 15.7411, 2.10598 15.4777 L 4.75728 5.15423 C 4.79506 5.02027, 4.81338 4.91664, 4.81338 4.84279, 4.81338 4.77008, 4.79792 4.72714, 4.76644 4.71455, 4.67827 4.66016, 4.50709 4.62695, 4.25232 4.61436, 3.99756 4.60234, 3.71932 4.59604, 3.41703 4.59547, 3.24127 4.59604, 3.1531 4.5136, 3.1531 4.34814 L 3.1531 4.27486, 3.20978 4.11914 C 3.24757 3.93651, 3.36436 3.84491, 3.55901 3.84433 L 8.87076 3.84433 C 9.46846 3.84491, 10.0375 3.92448, 10.5786 4.08307, 11.1196 4.24223, 11.5913 4.50444, 11.9938 4.87027, 12.327 5.16397, 12.5692 5.52408, 12.7203 5.95117, 12.8148 6.18361, 12.8652 6.42521, 12.8709 6.67482, 12.8709 6.90154, 12.8365 7.12424, 12.7673 7.34351, 12.6482 7.83244, 12.3997 8.27556, 12.0219 8.67231, 11.6446 9.06963, 11.2198 9.40798, 10.748 9.68851, 10.4211 9.87859, 10.0896 10.036, 9.753 10.1608, 9.41636 10.2862, 9.17591 10.3641, 9.03106 10.3938, 9.38945 10.5347, 9.72952 10.8095, 10.0501 11.2183, 10.3209 11.5732, 10.456 11.9974, 10.456 12.4915, 10.456 12.5957, 10.4497 12.6999, 10.4371 12.803 L 10.2574 14.4518 C 10.2076 14.88, 10.1824 15.2522, 10.1824 15.5693, 10.1824 15.7777, 10.195 15.9609, 10.2202 16.1189, 10.2642 16.4796, 10.4526 16.66, 10.7858 16.6594, 11.0881 16.66, 11.3646 16.4968, 11.6165 16.1699, 11.8684 15.8436, 12.0539 15.4388, 12.173 14.9556, 12.2423 14.773, 12.3648 14.6842, 12.5411 14.69 L 12.6917 14.69 C 12.8617 14.6905, 12.9528 14.7701, 12.9653 14.9281 L 12.9653 14.9922 Z M 10.748 7.28855 C 10.8488 6.92272, 10.9055 6.55631, 10.9181 6.18933 L 10.9181 6.13437 C 10.9181 5.8235, 10.8207 5.55499, 10.6255 5.32828, 10.3931 5.06034, 10.0896 4.87084, 9.71521 4.76092, 9.34079 4.651, 8.9303 4.59604, 8.48374 4.59547 L 7.2288 4.59547 C 6.9082 4.59604, 6.7164 4.62066, 6.65343 4.66932, 6.59045 4.71856, 6.52461 4.89203, 6.45534 5.19088 L 5.21013 10.0366, 7.03071 10.0366 C 7.47727 10.0372, 7.9181 9.98221, 8.35207 9.87229, 8.78603 9.76237, 9.19823 9.56714, 9.58754 9.28547, 9.92131 9.04787, 10.1732 8.74902, 10.3427 8.38834, 10.5127 8.02823, 10.6478 7.66183, 10.748 7.28855 Z" stroke="none" fill="#000000" />
			<rect />
		</svg>
	</g>
	<ellipse cx="933.024658203125" cy="357.76300048828125" rx="7.875" ry="7.875" stroke="none" fill="#000000" transform="matrix(0.333333 0 0 0.333333 -212.36 -10.356)" />
	<path d="M -276.932 0 L 276.933 0" fill="none" stroke="#000000" stroke-width="4" stroke-linecap="round" stroke-linejoin="round" transform="matrix(0.333333 0 0 0.333333 190.958 52.54)" />
	<rect x="-47.3515167" y="-13.6640539" width="94.7030334" height="27.3281078" stroke="none" fill="#FFFFFF" transform="matrix(0.333333 0 -0 0.333333 150.947 52.6467)" />
	<path d="M -47.3515 -13.6641 L 47.3515 -13.6641, 47.3515 13.6641, -47.3515 13.6641 Z" fill="none" stroke="#000000" stroke-width="4.5" stroke-linecap="round" stroke-linejoin="round" transform="matrix(0.333333 0 -0 0.333333 150.947 52.6467)" />
	<ellipse cx="1486.8870849609375" cy="357.76300048828125" rx="7.875" ry="7.875" stroke="none" fill="#000000" transform="matrix(0.333333 0 0 0.333333 -212.36 -10.356)" />
	<g transform="matrix(1 0 -0 1 138.451 21.5258)">
		<svg width="77.9182587" height="45.2233963">
			<defs />
			<path d="M 7.07718 13.5711 L 7.07718 15.3935 C 7.07718 15.5017, 7.09738 15.6022, 7.13778 15.6947, 7.17817 15.7879, 7.24438 15.849, 7.33639 15.8782, 7.47834 15.9444, 7.7095 15.9809, 8.02986 15.9865, 8.35023 15.9927, 8.6734 15.9955, 8.99993 15.9949 L 8.99993 16.7669 C 8.05735 16.731, 7.13329 16.7131, 6.22662 16.7131, 5.33341 16.7131, 4.39363 16.731, 3.40729 16.7669 L 3.40729 15.9949 C 3.74617 15.9955, 4.07327 15.9927, 4.38746 15.9865, 4.70166 15.9809, 4.93618 15.9444, 5.08991 15.8782, 5.18248 15.849, 5.25037 15.7879, 5.29357 15.6947, 5.33678 15.6022, 5.3581 15.5017, 5.3581 15.3935 L 5.3581 13.5711, 0.0886252 13.5711, 0.0886252 12.844, 6.26365 3.66058 C 6.34444 3.55342, 6.44599 3.49956, 6.56886 3.49899 L 6.77253 3.49899 C 6.97563 3.49956, 7.07718 3.60111, 7.07718 3.80421 L 7.07718 12.7812, 9.06502 12.7812, 9.06502 13.5711 Z M 5.45011 6.02152 L 0.902161 12.7812, 5.45011 12.7812 Z" stroke="none" fill="#000000" />
			<path d="M 23.8206 16.6044 C 23.7829 16.751, 23.6792 16.8243, 23.5092 16.8243 L 20.3873 16.8243 C 20.1801 16.8243, 20.0759 16.7241, 20.0759 16.522, 20.0759 15.7714, 20.1875 15.0478, 20.4108 14.3516, 20.6341 13.6554, 20.8779 12.9673, 21.1419 12.286, 21.4064 11.6053, 21.6451 10.9257, 21.8587 10.2479, 22.0728 9.57, 22.1793 8.88013, 22.1793 8.17708, 22.1793 7.62805, 22.0945 7.09561, 21.9245 6.57921, 21.755 6.06338, 21.4877 5.60995, 21.123 5.21893, 20.7583 4.82848, 20.3278 4.52905, 19.8308 4.32123, 19.3339 4.11398, 18.8152 4.00979, 18.2742 4.00921, 17.7337 4.00979, 17.215 4.11398, 16.7181 4.32123, 16.2211 4.52905, 15.7923 4.82848, 15.4305 5.21893, 15.0687 5.60995, 14.8013 6.06338, 14.6284 6.57921, 14.4555 7.09561, 14.3691 7.62805, 14.3691 8.17708, 14.3691 8.88013, 14.4779 9.57, 14.6943 10.2479, 14.9112 10.9257, 15.1517 11.6053, 15.4156 12.286, 15.6801 12.9673, 15.9234 13.6571, 16.1467 14.3562, 16.37 15.0558, 16.4816 15.7777, 16.4816 16.522, 16.4816 16.7241, 16.3843 16.8243, 16.1897 16.8243 L 13.0386 16.8243 C 12.8754 16.8243, 12.7746 16.751, 12.7369 16.6044 L 12.0767 13.9846 C 12.0767 13.8203, 12.1649 13.7167, 12.3407 13.6732 L 12.4443 13.6732 C 12.608 13.6738, 12.7088 13.7499, 12.7466 13.9022, 12.8473 14.3241, 12.9401 14.6722, 13.0248 14.947, 13.1096 15.2218, 13.168 15.3684, 13.1989 15.3861, 13.2618 15.4354, 13.413 15.4663, 13.6517 15.4783, 13.891 15.4909, 14.1773 15.4966, 14.5105 15.496 L 15.7179 15.496 C 15.5862 14.947, 15.336 14.3825, 14.9679 13.802, 14.6004 13.222, 14.2179 12.6387, 13.8218 12.0524, 13.4256 11.4662, 13.0752 10.8587, 12.7701 10.2295, 12.4655 9.60092, 12.3126 8.91677, 12.3126 8.17708, 12.3126 7.49351, 12.4729 6.86203, 12.7935 6.28151, 13.1141 5.70155, 13.5452 5.20347, 14.0857 4.78783, 14.6708 4.31837, 15.3252 3.96857, 16.0482 3.73956, 16.7713 3.51056, 17.5133 3.39606, 18.2742 3.39548, 19.0356 3.39606, 19.7776 3.51056, 20.5007 3.73956, 21.2237 3.96857, 21.8873 4.31837, 22.4907 4.78783, 23.0191 5.21606, 23.4468 5.71816, 23.7737 6.29525, 24.1006 6.87234, 24.2638 7.49981, 24.2638 8.17708, 24.2638 8.91677, 24.1115 9.60092, 23.8063 10.2295, 23.5018 10.8587, 23.1479 11.4662, 22.7455 12.0524, 22.343 12.6387, 21.956 13.222, 21.585 13.802, 21.214 14.3825, 20.9627 14.947, 20.8304 15.496 L 22.047 15.496 C 22.3808 15.4966, 22.667 15.4909, 22.9058 15.4783, 23.1451 15.4663, 23.2957 15.4354, 23.3586 15.3861, 23.3775 15.3747, 23.4308 15.2281, 23.5189 14.947, 23.6071 14.6665, 23.701 14.3178, 23.8017 13.9022, 23.8395 13.7562, 23.9437 13.68, 24.1132 13.6732 L 24.2168 13.6732 C 24.3869 13.7104, 24.4716 13.814, 24.4716 13.9846 Z" stroke="none" fill="#000000" />
			<rect />
		</svg>
	</g>
	<g transform="matrix(1 0 -0 1 216.658 9.00001)">
		<svg width="60.1215858" height="54.1276474">
			<defs />
			<path d="M 12.7097 4.3115 C 12.6908 4.39738, 12.645 4.46665, 12.5729 4.51818, 12.5008 4.57028, 12.4235 4.59604, 12.3416 4.59547, 12.1155 4.59604, 11.8956 4.61321, 11.6815 4.64642, 11.4674 4.6802, 11.2693 4.76092, 11.0867 4.88859, 10.9361 4.98076, 10.8164 5.10156, 10.7283 5.25099, 10.6401 5.40099, 10.5743 5.56072, 10.5302 5.73133 L 8.78459 12.4915 C 8.62143 13.103, 8.37124 13.6938, 8.0346 14.2646, 7.69797 14.8359, 7.26859 15.3621, 6.74646 15.8441, 6.2873 16.2661, 5.77834 16.6067, 5.21843 16.8655, 4.65851 17.1254, 4.08944 17.2548, 3.51063 17.2548, 2.88202 17.2548, 2.32038 17.13, 1.82631 16.8792, 1.3328 16.6296, 0.934911 16.2873, 0.632625 15.8533, 0.299425 15.3896, 0.101336 14.8617, 0.0383604 14.2686, 0.0131699 14.0923, 0.000574708 13.9056, 0.000574708 13.7098, 0.000574708 13.301, 0.0509556 12.8831, 0.151717 12.4549 L 2.04787 5.15423 C 2.07306 5.03859, 2.08566 4.94699, 2.08566 4.87943, 2.08566 4.7884, 2.06676 4.73058, 2.02898 4.70539, 1.94768 4.6573, 1.77764 4.62695, 1.52002 4.61436, 1.26239 4.60234, 0.985291 4.59604, 0.689304 4.59547, 0.595412 4.59604, 0.526139 4.56569, 0.482055 4.50386, 0.44427 4.4678, 0.425377 4.422, 0.425377 4.36646, 0.425377 4.33039, 0.43511 4.29662, 0.45343 4.2657 L 0.482055 4.11914 C 0.551329 3.93651, 0.673846 3.84491, 0.849607 3.84433, 1.63623 3.86952, 2.42859 3.88155, 3.22724 3.88097, 4.02646 3.88155, 4.82511 3.86952, 5.62377 3.84433, 5.8001 3.84491, 5.88826 3.92735, 5.88826 4.09166 L 5.88826 4.16494, 5.83159 4.32066 C 5.7938 4.50444, 5.67758 4.59604, 5.48236 4.59547, 5.18694 4.59604, 4.90756 4.60234, 4.64306 4.61436, 4.37856 4.62695, 4.18677 4.65901, 4.06711 4.71054, 3.94803 4.76264, 3.85357 4.92294, 3.78429 5.19088 L 1.90646 12.4915 C 1.76219 13.0297, 1.67688 13.5455, 1.65169 14.0396, 1.6391 14.1134, 1.6328 14.1867, 1.6328 14.2594, 1.6328 14.6751, 1.71467 15.0569, 1.87841 15.4045, 2.04214 15.7348, 2.2763 16.0021, 2.58145 16.2065, 2.8866 16.4115, 3.24327 16.5134, 3.65204 16.5128, 4.10547 16.5134, 4.56004 16.4098, 5.01576 16.202, 5.47148 15.9947, 5.89456 15.7136, 6.28444 15.3586, 6.731 14.9625, 7.09454 14.5108, 7.3745 14.0035, 7.65446 13.4968, 7.86342 12.9804, 8.0014 12.4549 L 9.73782 5.67636 C 9.77561 5.56701, 9.79393 5.4508, 9.79393 5.32828 L 9.79393 5.20004 C 9.77561 5.07237, 9.72179 4.96531, 9.63362 4.87943, 9.50195 4.75176, 9.34622 4.67275, 9.16703 4.64184, 8.98783 4.6115, 8.77887 4.59604, 8.53956 4.59547, 8.44509 4.59604, 8.37582 4.56856, 8.33174 4.51302, 8.28823 4.47066, 8.2659 4.422, 8.2659 4.36646, 8.2659 4.33039, 8.27563 4.29375, 8.29395 4.25654 L 8.33174 4.1283 C 8.3512 4.04929, 8.39357 3.98231, 8.45941 3.92735, 8.52582 3.87239, 8.60253 3.84491, 8.69013 3.84433, 9.31932 3.86952, 9.95137 3.88155, 10.5869 3.88097, 11.216 3.88155, 11.8544 3.86952, 12.5019 3.84433, 12.5901 3.84491, 12.6656 3.87525, 12.7286 3.93593, 12.7538 3.98517, 12.7664 4.03097, 12.7664 4.07334, 12.7664 4.11055, 12.7572 4.14433, 12.7378 4.1741 Z" stroke="none" fill="#000000" />
			<path d="M 3.15097 -1.74789 C 3.12981 -1.65171, 3.07723 -1.60394, 2.99259 -1.60426, 2.98554 -1.59721, 2.96791 -1.59368, 2.93969 -1.594, 2.92206 -1.59368, 2.90795 -1.59721, 2.89737 -1.60426 L 2.84992 -1.60426 C 2.75823 -1.60394, 2.71238 -1.63824, 2.71238 -1.70685 L 2.71238 -1.74276 C 2.7547 -1.9954, 2.77586 -2.22976, 2.77586 -2.44553 L 2.77586 -2.64046 C 2.7547 -2.90335, 2.69571 -3.13002, 2.59889 -3.31982, 2.50207 -3.50962, 2.36036 -3.65645, 2.17377 -3.76097, 1.98718 -3.86517, 1.75089 -3.91743, 1.46555 -3.91775, 1.30012 -3.91743, 1.1318 -3.88152, 0.960917 -3.8097, 0.790355 -3.73789, 0.631014 -3.64042, 0.482894 -3.51763, 0.320989 -3.38394, 0.188899 -3.23261, 0.0866261 -3.06333, -0.0153265 -2.89405, -0.0893865 -2.72061, -0.135554 -2.54299, -0.1705 -2.41603, -0.189736 -2.29484, -0.193583 -2.17878, -0.193583 -2.01784, -0.158317 -1.86395, -0.0877833 -1.71711, 0.0144897 -1.47057, 0.197556 -1.31315, 0.461734 -1.24518 L 1.67683 -0.906621 C 1.89869 -0.841218, 2.08817 -0.737662, 2.24494 -0.595954, 2.40172 -0.453926, 2.5197 -0.28625, 2.59889 -0.093245, 2.6784 0.10008, 2.72489 0.311038, 2.73899 0.539951 L 2.73899 0.632285 C 2.73899 0.83106, 2.71078 1.03432, 2.65435 1.24272, 2.58062 1.5303, 2.46263 1.8073, 2.30041 2.07405, 2.1385 2.34079, 1.9378 2.58028, 1.69799 2.79188, 1.46908 2.98713, 1.21836 3.14359, 0.945207 3.26125, 0.672051 3.37923, 0.398254 3.43822, 0.123496 3.43822, -0.281429 3.43822, -0.626721 3.37346, -0.91206 3.2433, -1.1974 3.11377, -1.40868 2.94962, -1.54622 2.75085 L -2.06913 3.37154 C -2.11465 3.4161, -2.16242 3.43822, -2.21179 3.43822 L -2.24353 3.43822 C -2.33138 3.43822, -2.37915 3.40424, -2.3862 3.33563, -2.3862 3.31511, -2.38075 3.29652, -2.37049 3.2792 L -1.7575 0.87851 C -1.73634 0.78297, -1.67446 0.733596, -1.57251 0.729749 L -1.45645 0.729749 C -1.41413 0.73007, -1.37533 0.747062, -1.34007 0.781046, -1.32596 0.808618, -1.31891 0.832664, -1.31891 0.852862, -1.31891 0.866968, -1.32244 0.88396, -1.32949 0.904159, -1.39297 1.1507, -1.42471 1.37994, -1.42471 1.59154, -1.42471 1.93042, -1.34167 2.21768, -1.17624 2.45332, -0.91206 2.83324, -0.450388 3.02304, 0.208135 3.02272, 0.373568 3.02304, 0.541886 2.98457, 0.712768 2.90762, 0.883651 2.83068, 1.04299 2.72712, 1.19079 2.59696, 1.35302 2.44691, 1.48927 2.2802, 1.6002 2.09713, 1.71113 1.91439, 1.79321 1.72523, 1.84579 1.52998, 1.88105 1.37288, 1.89869 1.22605, 1.89869 1.08883, 1.89869 0.918265, 1.87592 0.754115, 1.83008 0.596377, 1.7246 0.333481, 1.52903 0.164201, 1.24369 0.0885382 L 0.044306 -0.250021 C -0.1705 -0.30773, -0.355489 -0.402629, -0.510662 -0.534398, -0.665514 -0.665846, -0.786062 -0.822302, -0.872305 -1.00376, -0.958548 -1.18491, -1.00888 -1.38496, -1.02299 -1.60426 L -1.02299 -1.71711 C -1.02299 -1.88767, -1.00183 -2.06721, -0.95951 -2.25573, -0.88545 -2.52889, -0.767467 -2.7905, -0.605561 -3.04025, -0.443335 -3.28968, -0.242636 -3.51058, -0.00346422 -3.7023, 0.222242 -3.88665, 0.469749 -4.03445, 0.739058 -4.1457, 1.00869 -4.25663, 1.27543 -4.31241, 1.53961 -4.31273, 1.90254 -4.31241, 2.20166 -4.24477, 2.43763 -4.10979, 2.67359 -3.9745, 2.84447 -3.81483, 2.95027 -3.63049 L 3.45747 -4.24092 C 3.48569 -4.28837, 3.53153 -4.31241, 3.59469 -4.31273 L 3.64246 -4.31273 C 3.7271 -4.31241, 3.7691 -4.27138, 3.7691 -4.18962 L 3.7691 -4.14858 Z" stroke="none" fill="#000000" transform="matrix(1.12 0 0 1 14.6262 16.3063)" />
			<rect />
		</svg>
	</g>
	<ellipse cx="933.024658203125" cy="757.4320068359375" rx="7.875" ry="7.875" stroke="none" fill="#000000" transform="matrix(0.333333 0 0 0.333333 -212.36 -10.356)" />
</svg>
