<?xml version="1.0"?>
<svg xmlns="http://www.w3.org/2000/svg" xmlns:xlink="http://www.w3.org/1999/xlink" width="338.786011" height="271.361969">
	<defs>
		<marker id="CustomMarker-01" markerUnits="strokeWidth" markerWidth="8.25" markerHeight="7.5" viewBox="-8.25 -3.75 8.25 7.5" orient="auto-start-reverse">
			<path d="M -5.5 -2.5 L 0 -0, -5.5 2.5" fill="none" stroke="#E50500" stroke-linejoin="round" />
		</marker>
		<marker id="CustomMarker-02" markerUnits="strokeWidth" markerWidth="8.25" markerHeight="7.5" viewBox="-8.25 -3.75 8.25 7.5" orient="auto-start-reverse">
			<path d="M -5.5 -2.5 L 0 -0, -5.5 2.5" fill="none" stroke="#E50500" stroke-linejoin="round" />
		</marker>
	</defs>
	<path d="M -18.9227 0 L 18.9223 0" fill="none" stroke="#E50A00" stroke-width="5.5999999" stroke-linecap="round" stroke-linejoin="round" transform="matrix(0.357143 0 0 0.357143 16.2581 112.133)" />
	<path d="M 0 -26.9968 L 0 26.9968" fill="none" stroke="#000000" stroke-width="3.73333335" stroke-linecap="round" stroke-linejoin="round" transform="matrix(0.357143 0 0 0.357143 117.251 175.718)" />
	<g transform="matrix(1 0 -0 1 56.392 239.947)">
		<svg width="77.9182587" height="48.0957298">
			<defs />
			<path d="M 8.17942 12.7991 C 8.17942 13.386, 8.0689 13.9459, 7.84672 14.4784, 7.6251 15.0114, 7.30473 15.49, 6.88506 15.9141, 6.45978 16.3276, 5.98063 16.6435, 5.44763 16.8612, 4.91462 17.08, 4.34851 17.1888, 3.75042 17.1888, 3.23312 17.1888, 2.75061 17.0918, 2.30345 16.8971, 1.85684 16.703, 1.46859 16.437, 1.13869 16.0987, 0.808785 15.761, 0.550137 15.3688, 0.362182 14.9227, 0.174227 14.4772, 0.079969 14.0026, 0.079969 13.4993, 0.079969 13.1526, 0.195547 12.8911, 0.426704 12.7144, 0.65786 12.5382, 0.896872 12.4496, 1.14318 12.449, 1.40239 12.4496, 1.64589 12.5365, 1.87368 12.7099, 2.10203 12.8838, 2.21592 13.147, 2.21592 13.4993, 2.21592 13.7153, 2.16823 13.8966, 2.07285 14.043, 1.97747 14.19, 1.86021 14.3033, 1.72107 14.3841, 1.58249 14.4649, 1.42707 14.5115, 1.25427 14.5227 L 1.14318 14.5227, 0.958027 14.5227 C 1.09998 15.026, 1.42988 15.4782, 1.94774 15.8788, 2.46559 16.2799, 3.06649 16.4802, 3.75042 16.4797, 4.10838 16.4802, 4.45679 16.3877, 4.79567 16.2019, 5.13455 16.0168, 5.41228 15.7711, 5.62773 15.4653, 5.8802 15.1006, 6.04235 14.6865, 6.11304 14.2225, 6.18374 13.7591, 6.21908 13.2844, 6.21908 12.7991, 6.21908 12.3088, 6.20393 11.838, 6.17308 11.3858, 6.14278 10.9342, 6.01598 10.5078, 5.7938 10.106, 5.6339 9.81316, 5.42911 9.56966, 5.17944 9.37497, 4.92977 9.18085, 4.65092 9.08322, 4.34234 9.08266, 3.75659 9.08322, 3.24827 9.2016, 2.81682 9.43781, 2.38536 9.67458, 2.03694 10.014, 1.77212 10.4561, 1.71658 10.5582, 1.62737 10.6093, 1.50394 10.6087 L 1.42988 10.6087 C 1.21443 10.6093, 1.10615 10.5106, 1.10615 10.3125 L 1.10615 4.01068 C 1.10615 3.85583, 1.19592 3.75708, 1.37433 3.71444, 1.40519 3.715, 1.42819 3.71837, 1.4439 3.72398, 1.45961 3.73015, 1.47308 3.73296, 1.48542 3.7324, 2.37919 4.13972, 3.30045 4.34339, 4.24976 4.34283, 5.21142 4.34339, 6.13324 4.13972, 7.01466 3.7324, 7.02701 3.73296, 7.03935 3.73015, 7.05169 3.72398, 7.06404 3.71837, 7.08255 3.715, 7.10724 3.71444, 7.31034 3.715, 7.40909 3.80758, 7.40292 3.99273, 7.40292 4.10101, 7.3844 4.17283, 7.34737 4.20817, 6.90975 4.80739, 6.35374 5.27587, 5.67878 5.61363, 5.00383 5.95195, 4.28735 6.12083, 3.5288 6.12027, 2.90042 6.12083, 2.35787 6.04901, 1.90117 5.90482 L 1.90117 9.33401 C 2.11718 9.10735, 2.44259 8.90536, 2.87685 8.72863, 3.31167 8.55246, 3.80035 8.46381, 4.34234 8.46325, 4.87254 8.46381, 5.37357 8.58388, 5.84486 8.82289, 6.31671 9.06246, 6.73133 9.37329, 7.08872 9.75593, 7.45846 10.1874, 7.73282 10.6648, 7.91124 11.1883, 8.09022 11.7123, 8.17942 12.2493, 8.17942 12.7991 Z" stroke="none" fill="#000000" />
			<path d="M 24.8231 16.8334 C 24.0056 16.7911, 23.2166 16.7693, 22.4552 16.7693 L 22.0871 16.7693 C 21.2003 16.7819, 20.2785 16.8002, 19.3224 16.8243 L 19.3224 16.064 C 19.6058 16.0646, 19.8606 16.0542, 20.0867 16.0325, 20.3134 16.0113, 20.5144 15.9667, 20.6907 15.8991, 20.7726 15.8567, 20.8447 15.7926, 20.9077 15.7067, 20.9329 15.677, 20.9455 15.6369, 20.9455 15.5877, 20.9455 15.5636, 20.9426 15.5361, 20.9358 15.5052 L 19.8698 12.5465, 15.237 12.5465, 14.3599 15.0014 C 14.3284 15.0753, 14.3124 15.1457, 14.3124 15.2121, 14.3124 15.2739, 14.3221 15.3346, 14.341 15.3953, 14.3914 15.5304, 14.4733 15.6403, 14.5861 15.7251, 14.7498 15.8602, 14.9244 15.9501, 15.1099 15.9959, 15.2954 16.0417, 15.5204 16.0646, 15.7843 16.064 L 15.7843 16.8243 C 15.0235 16.8002, 14.2969 16.7819, 13.6048 16.7693 L 13.3128 16.7693 C 12.7088 16.7693, 12.0796 16.7911, 11.4258 16.8334 L 11.4258 16.064 C 11.7281 16.0646, 11.9903 16.0451, 12.2136 16.005, 12.4369 15.9655, 12.6521 15.8876, 12.8594 15.7709, 13.1994 15.5819, 13.4382 15.3043, 13.5767 14.9373 L 17.6524 3.4596 C 17.7154 3.27697, 17.8476 3.18824, 18.0486 3.19396 L 18.1997 3.19396 C 18.4013 3.19453, 18.5329 3.28327, 18.5959 3.4596 L 22.8794 15.4502 C 22.9115 15.567, 22.9602 15.6707, 23.026 15.7623, 23.0924 15.8539, 23.1817 15.9151, 23.2945 15.9449, 23.4582 16.0067, 23.6741 16.0417, 23.9414 16.0508, 24.2088 16.06, 24.5025 16.0646, 24.8231 16.064 L 24.8231 16.8334 Z M 17.5677 6.04277 L 15.5107 11.7862, 19.5961 11.7862 Z" stroke="none" fill="#000000" />
			<rect />
		</svg>
	</g>
	<g transform="matrix(1 0 -0 1 40.1044 56.6191)">
		<svg width="75.0478287" height="45.2233963">
			<defs />
			<path d="M 6.82472 16.7669 C 5.69082 16.731, 4.58721 16.7131, 3.51447 16.7131, 2.44228 16.7131, 1.33868 16.731, 0.204215 16.7669 L 0.204215 15.9949, 0.842701 15.9949 C 1.0458 15.9955, 1.23713 15.9927, 1.41554 15.9865, 1.59452 15.9809, 1.76396 15.9657, 1.92442 15.9416, 2.08489 15.918, 2.22347 15.8939, 2.34017 15.8692, 2.43892 15.8518, 2.52083 15.7969, 2.58535 15.7037, 2.65043 15.6111, 2.68242 15.5079, 2.68242 15.3935 L 2.68242 5.27643 C 2.37439 5.4268, 1.99512 5.54069, 1.54515 5.61812, 1.09518 5.6961, 0.602006 5.73482, 0.0656334 5.73426 L 0.0656334 4.97122 C 0.805671 4.97178, 1.48848 4.88369, 2.11406 4.70696, 2.73964 4.53078, 3.2805 4.19976, 3.73665 3.71444 L 4.02335 3.71444 C 4.22645 3.715, 4.328 3.81375, 4.328 4.01068 L 4.328 15.3935 C 4.328 15.5135, 4.35886 15.6184, 4.42058 15.7082, 4.48229 15.798, 4.57206 15.8518, 4.68876 15.8692, 4.78751 15.8939, 4.91431 15.918, 5.06804 15.9416, 5.22233 15.9657, 5.39626 15.9809, 5.59039 15.9865, 5.78451 15.9927, 5.97415 15.9955, 6.15874 15.9949 L 6.82472 15.9949, 6.82472 16.7669 Z" stroke="none" fill="#000000" />
			<path d="M 22.6441 16.6044 C 22.6063 16.751, 22.5027 16.8243, 22.3327 16.8243 L 19.2096 16.8243 C 19.0024 16.8243, 18.8982 16.7241, 18.8982 16.522, 18.8982 15.7714, 19.0098 15.0478, 19.2331 14.3516, 19.4564 13.6554, 19.7003 12.9673, 19.9642 12.286, 20.2287 11.6053, 20.4675 10.9257, 20.6816 10.2479, 20.8957 9.57, 21.0022 8.88013, 21.0022 8.17708, 21.0022 7.62805, 20.9174 7.09561, 20.7474 6.57921, 20.5779 6.06338, 20.3106 5.60995, 19.9453 5.21893, 19.5806 4.82848, 19.1501 4.52905, 18.6532 4.32123, 18.1562 4.11398, 17.6375 4.00979, 17.0959 4.00921, 16.5555 4.00979, 16.0362 4.11398, 15.5393 4.32123, 15.0423 4.52905, 14.6135 4.82848, 14.2517 5.21893, 13.8899 5.60995, 13.6225 6.06338, 13.4496 6.57921, 13.2767 7.09561, 13.1903 7.62805, 13.1903 8.17708, 13.1903 8.88013, 13.2991 9.57, 13.516 10.2479, 13.733 10.9257, 13.9735 11.6053, 14.2374 12.286, 14.5019 12.9673, 14.7452 13.6571, 14.9685 14.3562, 15.1918 15.0558, 15.3034 15.7777, 15.3034 16.522, 15.3034 16.7241, 15.2061 16.8243, 15.0109 16.8243 L 11.8598 16.8243 C 11.6966 16.8243, 11.5958 16.751, 11.5581 16.6044 L 10.8974 13.9846 C 10.8974 13.8203, 10.9855 13.7167, 11.1613 13.6732 L 11.2655 13.6732 C 11.4292 13.6738, 11.5294 13.7499, 11.5672 13.9022, 11.668 14.3241, 11.7613 14.6722, 11.846 14.947, 11.9308 15.2218, 11.9892 15.3684, 12.0201 15.3861, 12.083 15.4354, 12.2342 15.4663, 12.4729 15.4783, 12.7122 15.4909, 12.9985 15.4966, 13.3317 15.496 L 14.5391 15.496 C 14.4074 14.947, 14.1572 14.3825, 13.7891 13.802, 13.4216 13.222, 13.0391 12.6387, 12.643 12.0524, 12.2468 11.4662, 11.8964 10.8587, 11.5913 10.2295, 11.2861 9.60092, 11.1333 8.91677, 11.1333 8.17708, 11.1333 7.49351, 11.2941 6.86203, 11.6147 6.28151, 11.9353 5.70155, 12.3664 5.20347, 12.9069 4.78783, 13.492 4.31837, 14.1464 3.96857, 14.8695 3.73956, 15.5931 3.51056, 16.3351 3.39606, 17.0959 3.39548, 17.8574 3.39606, 18.5994 3.51056, 19.323 3.73956, 20.0467 3.96857, 20.7102 4.31837, 21.3136 4.78783, 21.842 5.21606, 22.2697 5.71816, 22.5966 6.29525, 22.9241 6.87234, 23.0873 7.49981, 23.0873 8.17708, 23.0873 8.91677, 22.935 9.60092, 22.6298 10.2295, 22.3252 10.8587, 21.9714 11.4662, 21.5684 12.0524, 21.1659 12.6387, 20.7789 13.222, 20.4079 13.802, 20.0369 14.3825, 19.7856 14.947, 19.6528 15.496 L 20.8699 15.496 C 21.2037 15.4966, 21.49 15.4909, 21.7287 15.4783, 21.968 15.4663, 22.1186 15.4354, 22.1815 15.3861, 22.201 15.3747, 22.2543 15.2281, 22.3424 14.947, 22.4306 14.6665, 22.5245 14.3178, 22.6252 13.9022, 22.663 13.7562, 22.7667 13.68, 22.9361 13.6732 L 23.0403 13.6732 C 23.2103 13.7104, 23.2951 13.814, 23.2951 13.9846 Z" stroke="none" fill="#000000" />
			<rect />
		</svg>
	</g>
	<ellipse cx="805.14461708068848" cy="554.06496620178223" rx="7.3500003814697266" ry="7.3500003814697266" stroke="none" fill="#000000" transform="matrix(0.357143 0 0 0.357143 -264.536 -85.7476)" />
	<path d="M -18.4714 -11.2885 L -18.4714 11.2885, 18.4714 0 Z" stroke="none" fill="#000000" transform="matrix(0.357143 -1.07854e-007 -1.07854e-007 -0.357143 233.358 38.8428)" />
	<g transform="matrix(1 0 -0 1 39.7271 146.095)">
		<svg width="77.9182587" height="45.2233963">
			<defs />
			<path d="M 7.60602 16.7669 L 0.079969 16.7669, 0.079969 16.2732 C 0.079969 16.2379, 0.098484 16.184, 0.135514 16.1116 L 3.15906 12.826 C 3.51646 12.4316, 3.87834 12.0277, 4.24528 11.6147, 4.61221 11.2018, 4.94099 10.7799, 5.2305 10.349, 5.52 9.91808, 5.75116 9.47372, 5.92396 9.01589, 6.09677 8.55807, 6.18261 8.0778, 6.18261 7.57453, 6.18261 7.15037, 6.12707 6.7537, 6.01598 6.38565, 5.90489 6.01759, 5.74499 5.69442, 5.53515 5.41613, 5.32588 5.13785, 5.06386 4.91343, 4.74967 4.74286, 4.43547 4.5723, 4.07135 4.48702, 3.65841 4.48646, 3.04236 4.48702, 2.49814 4.67105, 2.02628 5.0391, 1.55499 5.40716, 1.24192 5.8128, 1.08763 6.25492, 1.05733 6.26726, 1.10671 6.27343, 1.23575 6.27287 L 1.39285 6.27287 C 1.578 6.31551, 1.7379 6.38004, 1.87368 6.46644, 2.00945 6.5534, 2.12335 6.67291, 2.21592 6.82552, 2.3085 6.97812, 2.3545 7.16215, 2.3545 7.37704, 2.3545 7.73668, 2.2378 8.01216, 2.00328 8.20348, 1.76876 8.39536, 1.50674 8.49074, 1.21724 8.49018, 0.940073 8.49074, 0.680864 8.39536, 0.44073 8.20348, 0.200597 8.01216, 0.079969 7.73668, 0.079969 7.37704, 0.079969 6.87489, 0.178716 6.39911, 0.376208 5.95026, 0.573702 5.50142, 0.841327 5.1126, 1.18021 4.78326, 1.51909 4.45448, 1.91968 4.19415, 2.382 4.00226, 2.84431 3.81094, 3.33468 3.715, 3.85253 3.71444, 4.49382 3.715, 5.08125 3.80926, 5.61426 3.99778, 6.14727 4.18629, 6.60173 4.45728, 6.97763 4.81019, 7.35354 5.16366, 7.6481 5.57211, 7.86074 6.03554, 8.07338 6.49954, 8.17942 7.01235, 8.17942 7.57453, 8.17942 8.19731, 8.03804 8.77071, 7.75414 9.29418, 7.47081 9.81821, 7.11958 10.2985, 6.70047 10.735, 6.28136 11.172, 5.83588 11.5833, 5.36403 11.9693, 4.89274 12.3553, 4.46577 12.7307, 4.08369 13.0954 L 1.95671 15.0972, 4.74013 15.0972 C 5.12838 15.0978, 5.49083 15.095, 5.82634 15.0888, 6.16242 15.0832, 6.44743 15.0708, 6.68196 15.0529, 6.91648 15.0349, 7.03655 15.0232, 7.04216 15.0164, 7.09153 14.9749, 7.1381 14.8913, 7.1813 14.7656, 7.2245 14.64, 7.26434 14.4918, 7.30137 14.3213, 7.3384 14.1507, 7.37543 13.9773, 7.41246 13.8006, 7.44949 13.6244, 7.48315 13.4309, 7.51401 13.221 L 8.19794 13.221 Z" stroke="none" fill="#000000" />
			<path d="M 23.3987 16.6044 C 23.3609 16.751, 23.2573 16.8243, 23.0873 16.8243 L 19.9642 16.8243 C 19.757 16.8243, 19.6528 16.7241, 19.6528 16.522, 19.6528 15.7714, 19.7644 15.0478, 19.9877 14.3516, 20.211 13.6554, 20.4549 12.9673, 20.7188 12.286, 20.9833 11.6053, 21.222 10.9257, 21.4361 10.2479, 21.6503 9.57, 21.7567 8.88013, 21.7567 8.17708, 21.7567 7.62805, 21.672 7.09561, 21.502 6.57921, 21.3325 6.06338, 21.0652 5.60995, 20.6999 5.21893, 20.3352 4.82848, 19.9047 4.52905, 19.4077 4.32123, 18.9108 4.11398, 18.3921 4.00979, 17.8505 4.00921, 17.3101 4.00979, 16.7908 4.11398, 16.2939 4.32123, 15.7969 4.52905, 15.3681 4.82848, 15.0063 5.21893, 14.6445 5.60995, 14.3771 6.06338, 14.2042 6.57921, 14.0313 7.09561, 13.9448 7.62805, 13.9448 8.17708, 13.9448 8.88013, 14.0536 9.57, 14.2706 10.2479, 14.4876 10.9257, 14.728 11.6053, 14.992 12.286, 15.2565 12.9673, 15.4998 13.6571, 15.7231 14.3562, 15.9463 15.0558, 16.058 15.7777, 16.058 16.522, 16.058 16.7241, 15.9607 16.8243, 15.7654 16.8243 L 12.6143 16.8243 C 12.4512 16.8243, 12.3504 16.751, 12.3126 16.6044 L 11.6519 13.9846 C 11.6519 13.8203, 11.7401 13.7167, 11.9159 13.6732 L 12.0201 13.6732 C 12.1838 13.6738, 12.284 13.7499, 12.3218 13.9022, 12.4225 14.3241, 12.5159 14.6722, 12.6006 14.947, 12.6853 15.2218, 12.7437 15.3684, 12.7746 15.3861, 12.8376 15.4354, 12.9888 15.4663, 13.2275 15.4783, 13.4668 15.4909, 13.7531 15.4966, 14.0863 15.496 L 15.2937 15.496 C 15.162 14.947, 14.9118 14.3825, 14.5437 13.802, 14.1761 13.222, 13.7937 12.6387, 13.3975 12.0524, 13.0014 11.4662, 12.651 10.8587, 12.3458 10.2295, 12.0407 9.60092, 11.8878 8.91677, 11.8878 8.17708, 11.8878 7.49351, 12.0487 6.86203, 12.3693 6.28151, 12.6899 5.70155, 13.121 5.20347, 13.6615 4.78783, 14.2466 4.31837, 14.9009 3.96857, 15.624 3.73956, 16.3477 3.51056, 17.0896 3.39606, 17.8505 3.39548, 18.6119 3.39606, 19.3539 3.51056, 20.0776 3.73956, 20.8012 3.96857, 21.4648 4.31837, 22.0682 4.78783, 22.5966 5.21606, 23.0243 5.71816, 23.3512 6.29525, 23.6787 6.87234, 23.8418 7.49981, 23.8418 8.17708, 23.8418 8.91677, 23.6895 9.60092, 23.3844 10.2295, 23.0798 10.8587, 22.726 11.4662, 22.323 12.0524, 21.9205 12.6387, 21.5335 13.222, 21.1625 13.802, 20.7915 14.3825, 20.5402 14.947, 20.4073 15.496 L 21.6245 15.496 C 21.9583 15.4966, 22.2445 15.4909, 22.4833 15.4783, 22.7226 15.4663, 22.8731 15.4354, 22.9361 15.3861, 22.9556 15.3747, 23.0088 15.2281, 23.097 14.947, 23.1852 14.6665, 23.279 14.3178, 23.3798 13.9022, 23.4176 13.7562, 23.5212 13.68, 23.6907 13.6732 L 23.7949 13.6732 C 23.9649 13.7104, 24.0496 13.814, 24.0496 13.9846 Z" stroke="none" fill="#000000" />
			<rect />
		</svg>
	</g>
	<g transform="matrix(1 0 -0 1 170.583 146.095)">
		<svg width="75.0478287" height="45.2233963">
			<defs />
			<path d="M 6.82472 16.7669 C 5.69082 16.731, 4.58721 16.7131, 3.51447 16.7131, 2.44228 16.7131, 1.33868 16.731, 0.204215 16.7669 L 0.204215 15.9949, 0.842701 15.9949 C 1.0458 15.9955, 1.23713 15.9927, 1.41554 15.9865, 1.59452 15.9809, 1.76396 15.9657, 1.92442 15.9416, 2.08489 15.918, 2.22347 15.8939, 2.34017 15.8692, 2.43892 15.8518, 2.52083 15.7969, 2.58535 15.7037, 2.65043 15.6111, 2.68242 15.5079, 2.68242 15.3935 L 2.68242 5.27643 C 2.37439 5.4268, 1.99512 5.54069, 1.54515 5.61812, 1.09518 5.6961, 0.602006 5.73482, 0.0656334 5.73426 L 0.0656334 4.97122 C 0.805671 4.97178, 1.48848 4.88369, 2.11406 4.70696, 2.73964 4.53078, 3.2805 4.19976, 3.73665 3.71444 L 4.02335 3.71444 C 4.22645 3.715, 4.328 3.81375, 4.328 4.01068 L 4.328 15.3935 C 4.328 15.5135, 4.35886 15.6184, 4.42058 15.7082, 4.48229 15.798, 4.57206 15.8518, 4.68876 15.8692, 4.78751 15.8939, 4.91431 15.918, 5.06804 15.9416, 5.22233 15.9657, 5.39626 15.9809, 5.59039 15.9865, 5.78451 15.9927, 5.97415 15.9955, 6.15874 15.9949 L 6.82472 15.9949, 6.82472 16.7669 Z" stroke="none" fill="#000000" />
			<path d="M 22.6441 16.6044 C 22.6063 16.751, 22.5027 16.8243, 22.3327 16.8243 L 19.2096 16.8243 C 19.0024 16.8243, 18.8982 16.7241, 18.8982 16.522, 18.8982 15.7714, 19.0098 15.0478, 19.2331 14.3516, 19.4564 13.6554, 19.7003 12.9673, 19.9642 12.286, 20.2287 11.6053, 20.4675 10.9257, 20.6816 10.2479, 20.8957 9.57, 21.0022 8.88013, 21.0022 8.17708, 21.0022 7.62805, 20.9174 7.09561, 20.7474 6.57921, 20.5779 6.06338, 20.3106 5.60995, 19.9453 5.21893, 19.5806 4.82848, 19.1501 4.52905, 18.6532 4.32123, 18.1562 4.11398, 17.6375 4.00979, 17.0959 4.00921, 16.5555 4.00979, 16.0362 4.11398, 15.5393 4.32123, 15.0423 4.52905, 14.6135 4.82848, 14.2517 5.21893, 13.8899 5.60995, 13.6225 6.06338, 13.4496 6.57921, 13.2767 7.09561, 13.1903 7.62805, 13.1903 8.17708, 13.1903 8.88013, 13.2991 9.57, 13.516 10.2479, 13.733 10.9257, 13.9735 11.6053, 14.2374 12.286, 14.5019 12.9673, 14.7452 13.6571, 14.9685 14.3562, 15.1918 15.0558, 15.3034 15.7777, 15.3034 16.522, 15.3034 16.7241, 15.2061 16.8243, 15.0109 16.8243 L 11.8598 16.8243 C 11.6966 16.8243, 11.5958 16.751, 11.5581 16.6044 L 10.8974 13.9846 C 10.8974 13.8203, 10.9855 13.7167, 11.1613 13.6732 L 11.2655 13.6732 C 11.4292 13.6738, 11.5294 13.7499, 11.5672 13.9022, 11.668 14.3241, 11.7613 14.6722, 11.846 14.947, 11.9308 15.2218, 11.9892 15.3684, 12.0201 15.3861, 12.083 15.4354, 12.2342 15.4663, 12.4729 15.4783, 12.7122 15.4909, 12.9985 15.4966, 13.3317 15.496 L 14.5391 15.496 C 14.4074 14.947, 14.1572 14.3825, 13.7891 13.802, 13.4216 13.222, 13.0391 12.6387, 12.643 12.0524, 12.2468 11.4662, 11.8964 10.8587, 11.5913 10.2295, 11.2861 9.60092, 11.1333 8.91677, 11.1333 8.17708, 11.1333 7.49351, 11.2941 6.86203, 11.6147 6.28151, 11.9353 5.70155, 12.3664 5.20347, 12.9069 4.78783, 13.492 4.31837, 14.1464 3.96857, 14.8695 3.73956, 15.5931 3.51056, 16.3351 3.39606, 17.0959 3.39548, 17.8574 3.39606, 18.5994 3.51056, 19.323 3.73956, 20.0467 3.96857, 20.7102 4.31837, 21.3136 4.78783, 21.842 5.21606, 22.2697 5.71816, 22.5966 6.29525, 22.9241 6.87234, 23.0873 7.49981, 23.0873 8.17708, 23.0873 8.91677, 22.935 9.60092, 22.6298 10.2295, 22.3252 10.8587, 21.9714 11.4662, 21.5684 12.0524, 21.1659 12.6387, 20.7789 13.222, 20.4079 13.802, 20.0369 14.3825, 19.7856 14.947, 19.6528 15.496 L 20.8699 15.496 C 21.2037 15.4966, 21.49 15.4909, 21.7287 15.4783, 21.968 15.4663, 22.1186 15.4354, 22.1815 15.3861, 22.201 15.3747, 22.2543 15.2281, 22.3424 14.947, 22.4306 14.6665, 22.5245 14.3178, 22.6252 13.9022, 22.663 13.7562, 22.7667 13.68, 22.9361 13.6732 L 23.0403 13.6732 C 23.2103 13.7104, 23.2951 13.814, 23.2951 13.9846 Z" stroke="none" fill="#000000" />
			<rect />
		</svg>
	</g>
	<g transform="matrix(1 0 -0 1 170.583 56.6191)">
		<svg width="75.0478287" height="45.2233963">
			<defs />
			<path d="M 6.82472 16.7669 C 5.69082 16.731, 4.58721 16.7131, 3.51447 16.7131, 2.44228 16.7131, 1.33868 16.731, 0.204215 16.7669 L 0.204215 15.9949, 0.842701 15.9949 C 1.0458 15.9955, 1.23713 15.9927, 1.41554 15.9865, 1.59452 15.9809, 1.76396 15.9657, 1.92442 15.9416, 2.08489 15.918, 2.22347 15.8939, 2.34017 15.8692, 2.43892 15.8518, 2.52083 15.7969, 2.58535 15.7037, 2.65043 15.6111, 2.68242 15.5079, 2.68242 15.3935 L 2.68242 5.27643 C 2.37439 5.4268, 1.99512 5.54069, 1.54515 5.61812, 1.09518 5.6961, 0.602006 5.73482, 0.0656334 5.73426 L 0.0656334 4.97122 C 0.805671 4.97178, 1.48848 4.88369, 2.11406 4.70696, 2.73964 4.53078, 3.2805 4.19976, 3.73665 3.71444 L 4.02335 3.71444 C 4.22645 3.715, 4.328 3.81375, 4.328 4.01068 L 4.328 15.3935 C 4.328 15.5135, 4.35886 15.6184, 4.42058 15.7082, 4.48229 15.798, 4.57206 15.8518, 4.68876 15.8692, 4.78751 15.8939, 4.91431 15.918, 5.06804 15.9416, 5.22233 15.9657, 5.39626 15.9809, 5.59039 15.9865, 5.78451 15.9927, 5.97415 15.9955, 6.15874 15.9949 L 6.82472 15.9949, 6.82472 16.7669 Z" stroke="none" fill="#000000" />
			<path d="M 22.6441 16.6044 C 22.6063 16.751, 22.5027 16.8243, 22.3327 16.8243 L 19.2096 16.8243 C 19.0024 16.8243, 18.8982 16.7241, 18.8982 16.522, 18.8982 15.7714, 19.0098 15.0478, 19.2331 14.3516, 19.4564 13.6554, 19.7003 12.9673, 19.9642 12.286, 20.2287 11.6053, 20.4675 10.9257, 20.6816 10.2479, 20.8957 9.57, 21.0022 8.88013, 21.0022 8.17708, 21.0022 7.62805, 20.9174 7.09561, 20.7474 6.57921, 20.5779 6.06338, 20.3106 5.60995, 19.9453 5.21893, 19.5806 4.82848, 19.1501 4.52905, 18.6532 4.32123, 18.1562 4.11398, 17.6375 4.00979, 17.0959 4.00921, 16.5555 4.00979, 16.0362 4.11398, 15.5393 4.32123, 15.0423 4.52905, 14.6135 4.82848, 14.2517 5.21893, 13.8899 5.60995, 13.6225 6.06338, 13.4496 6.57921, 13.2767 7.09561, 13.1903 7.62805, 13.1903 8.17708, 13.1903 8.88013, 13.2991 9.57, 13.516 10.2479, 13.733 10.9257, 13.9735 11.6053, 14.2374 12.286, 14.5019 12.9673, 14.7452 13.6571, 14.9685 14.3562, 15.1918 15.0558, 15.3034 15.7777, 15.3034 16.522, 15.3034 16.7241, 15.2061 16.8243, 15.0109 16.8243 L 11.8598 16.8243 C 11.6966 16.8243, 11.5958 16.751, 11.5581 16.6044 L 10.8974 13.9846 C 10.8974 13.8203, 10.9855 13.7167, 11.1613 13.6732 L 11.2655 13.6732 C 11.4292 13.6738, 11.5294 13.7499, 11.5672 13.9022, 11.668 14.3241, 11.7613 14.6722, 11.846 14.947, 11.9308 15.2218, 11.9892 15.3684, 12.0201 15.3861, 12.083 15.4354, 12.2342 15.4663, 12.4729 15.4783, 12.7122 15.4909, 12.9985 15.4966, 13.3317 15.496 L 14.5391 15.496 C 14.4074 14.947, 14.1572 14.3825, 13.7891 13.802, 13.4216 13.222, 13.0391 12.6387, 12.643 12.0524, 12.2468 11.4662, 11.8964 10.8587, 11.5913 10.2295, 11.2861 9.60092, 11.1333 8.91677, 11.1333 8.17708, 11.1333 7.49351, 11.2941 6.86203, 11.6147 6.28151, 11.9353 5.70155, 12.3664 5.20347, 12.9069 4.78783, 13.492 4.31837, 14.1464 3.96857, 14.8695 3.73956, 15.5931 3.51056, 16.3351 3.39606, 17.0959 3.39548, 17.8574 3.39606, 18.5994 3.51056, 19.323 3.73956, 20.0467 3.96857, 20.7102 4.31837, 21.3136 4.78783, 21.842 5.21606, 22.2697 5.71816, 22.5966 6.29525, 22.9241 6.87234, 23.0873 7.49981, 23.0873 8.17708, 23.0873 8.91677, 22.935 9.60092, 22.6298 10.2295, 22.3252 10.8587, 21.9714 11.4662, 21.5684 12.0524, 21.1659 12.6387, 20.7789 13.222, 20.4079 13.802, 20.0369 14.3825, 19.7856 14.947, 19.6528 15.496 L 20.8699 15.496 C 21.2037 15.4966, 21.49 15.4909, 21.7287 15.4783, 21.968 15.4663, 22.1186 15.4354, 22.1815 15.3861, 22.201 15.3747, 22.2543 15.2281, 22.3424 14.947, 22.4306 14.6665, 22.5245 14.3178, 22.6252 13.9022, 22.663 13.7562, 22.7667 13.68, 22.9361 13.6732 L 23.0403 13.6732 C 23.2103 13.7104, 23.2951 13.814, 23.2951 13.9846 Z" stroke="none" fill="#000000" />
			<rect />
		</svg>
	</g>
	<path d="M -131.93 76.1694 L 131.926 -76.1678" fill="none" stroke="#000000" stroke-width="3.73333335" stroke-linecap="round" stroke-linejoin="round" transform="matrix(0.357143 0 0 0.357143 164.368 139.335)" />
	<path d="M -51.0135 -12.7531 L 51.0135 -12.7531, 51.0135 12.7531, -51.0135 12.7531 Z" stroke="none" fill="#FFFFFF" transform="matrix(0.309295 -0.178572 0.178571 0.309295 160.919 141.059)" />
	<path d="M -51.0135 -12.7531 L 51.0135 -12.7531, 51.0135 12.7531, -51.0135 12.7531 Z" fill="none" stroke="#000000" stroke-width="4.19999981" stroke-linecap="round" stroke-linejoin="round" transform="matrix(0.309295 -0.178572 0.178571 0.309295 160.919 141.059)" />
	<path d="M -131.928 -76.1678 L 131.928 76.1694" fill="none" stroke="#000000" stroke-width="3.73333335" stroke-linecap="round" stroke-linejoin="round" transform="matrix(0.357143 0 0 0.357143 70.1339 139.335)" />
	<path d="M -51.0134 -12.7531 L 51.0134 -12.7531, 51.0134 12.7531, -51.0134 12.7531 Z" stroke="none" fill="#FFFFFF" transform="matrix(0.309295 0.178571 -0.178571 0.309295 73.5824 141.059)" />
	<path d="M -51.0134 -12.7531 L 51.0134 -12.7531, 51.0134 12.7531, -51.0134 12.7531 Z" fill="none" stroke="#000000" stroke-width="4.19999981" stroke-linecap="round" stroke-linejoin="round" transform="matrix(0.309295 0.178571 -0.178571 0.309295 73.5824 141.059)" />
	<path d="M -131.928 76.1686 L 131.927 -76.1686" fill="none" stroke="#000000" stroke-width="3.73333335" stroke-linecap="round" stroke-linejoin="round" transform="matrix(0.357143 0 0 0.357143 70.1333 84.9291)" />
	<path d="M -51.0135 -12.7532 L 51.0135 -12.7532, 51.0135 12.7532, -51.0135 12.7532 Z" stroke="none" fill="#FFFFFF" transform="matrix(0.309295 -0.178572 0.178571 0.309295 73.5817 83.205)" />
	<path d="M -51.0135 -12.7532 L 51.0135 -12.7532, 51.0135 12.7532, -51.0135 12.7532 Z" fill="none" stroke="#000000" stroke-width="4.19999981" stroke-linecap="round" stroke-linejoin="round" transform="matrix(0.309295 -0.178572 0.178571 0.309295 73.5817 83.205)" />
	<path d="M -131.927 -76.1686 L 131.928 76.1686" fill="none" stroke="#000000" stroke-width="3.73333335" stroke-linecap="round" stroke-linejoin="round" transform="matrix(0.357143 0 0 0.357143 164.368 84.9291)" />
	<path d="M -51.0135 -12.7532 L 51.0135 -12.7532, 51.0135 12.7532, -51.0135 12.7532 Z" stroke="none" fill="#FFFFFF" transform="matrix(0.309295 0.178571 -0.178571 0.309295 160.92 83.205)" />
	<path d="M -51.0135 -12.7532 L 51.0135 -12.7532, 51.0135 12.7532, -51.0135 12.7532 Z" fill="none" stroke="#000000" stroke-width="4.19999981" stroke-linecap="round" stroke-linejoin="round" transform="matrix(0.309295 0.178571 -0.178571 0.309295 160.92 83.205)" />
	<ellipse cx="1069.0016117095947" cy="705.10677528381348" rx="7.3500003814697266" ry="7.3500003814697266" stroke="none" fill="#E50500" transform="matrix(0.357143 0 0 0.357143 -264.536 -85.7476)" />
	<path d="M 0 -164.93 L 0 164.93" fill="none" stroke="#000000" stroke-width="3.73333335" stroke-linecap="round" stroke-linejoin="round" transform="matrix(0.357143 0 0 0.357143 23.0161 171.036)" />
	<path d="M 0 -26.9969 L 0 26.9966" fill="none" stroke="#000000" stroke-width="3.73333335" stroke-linecap="round" stroke-linejoin="round" transform="matrix(0.357143 0 0 0.357143 117.251 48.4846)" />
	<path d="M -263.857 0 L 263.857 0" fill="none" stroke="#000000" stroke-width="3.73333335" stroke-linecap="round" stroke-linejoin="round" transform="matrix(0.357143 0 0 0.357143 117.251 229.94)" />
	<path d="M 0 -63.7662 L 0 -42.5103" fill="none" stroke="#000000" stroke-width="2.79999995" stroke-linecap="round" stroke-linejoin="round" transform="matrix(2.69635e-008 0.357143 -0.357143 2.69635e-008 117.251 229.94)" />
	<path d="M 0 63.7662 L 0 42.5103" fill="none" stroke="#000000" stroke-width="2.79999995" stroke-linecap="round" stroke-linejoin="round" transform="matrix(2.69635e-008 0.357143 -0.357143 2.69635e-008 117.251 229.94)" />
	<path d="M 42.5103 -0 C 42.5103 23.4778, 23.4778 42.5103, -0 42.5103, -23.4778 42.5103, -42.5103 23.4778, -42.5103 -0, -42.5103 -23.4778, -23.4778 -42.5103, -0 -42.5103, 23.4778 -42.5103, 42.5103 -23.4778, 42.5103 -0 Z" stroke="none" fill="#FFFFFF" transform="matrix(2.69635e-008 0.357143 -0.357143 2.69635e-008 117.251 229.94)" />
	<path d="M 42.5103 -0 C 42.5103 23.4778, 23.4778 42.5103, -0 42.5103, -23.4778 42.5103, -42.5103 23.4778, -42.5103 -0, -42.5103 -23.4778, -23.4778 -42.5103, -0 -42.5103, 23.4778 -42.5103, 42.5103 -23.4778, 42.5103 -0 Z" fill="none" stroke="#000000" stroke-width="4.19999981" stroke-linecap="round" stroke-linejoin="round" transform="matrix(2.69635e-008 0.357143 -0.357143 2.69635e-008 117.251 229.94)" />
	<path d="M -42.5103 0 L 42.5103 0" fill="none" stroke="#000000" stroke-width="2.79999995" stroke-linecap="round" stroke-linejoin="round" transform="matrix(2.69635e-008 0.357143 -0.357143 2.69635e-008 117.251 229.94)" />
	<path d="M 0 -164.93 L 0 164.93" fill="none" stroke="#000000" stroke-width="3.73333335" stroke-linecap="round" stroke-linejoin="round" transform="matrix(0.357143 0 0 0.357143 211.485 171.036)" />
	<path d="M -199.238 0 L 199.236 0.000366211" fill="none" stroke="#000000" stroke-width="3.73333335" stroke-linecap="round" stroke-linejoin="round" transform="matrix(0.357143 0 0 0.357143 188.407 38.8428)" />
	<path d="M -199.238 0 L 199.236 0" fill="none" stroke="#000000" stroke-width="3.73333335" stroke-linecap="round" stroke-linejoin="round" transform="matrix(0.357143 0 0 0.357143 188.407 185.36)" />
	<path d="M -18.4714 -11.2888 L -18.4714 11.2888, 18.4714 0 Z" stroke="none" fill="#000000" transform="matrix(-0.357143 5.39271e-008 5.39271e-008 0.357143 66.3284 229.94)" />
	<g transform="matrix(1 0 -0 1 228.741 8.99999)">
		<svg width="29.9820557" height="45.2233963">
			<defs />
			<path d="M 8.72362 4.3115 C 8.7053 4.39165, 8.66294 4.45864, 8.59652 4.5136, 8.53011 4.56856, 8.44996 4.59604, 8.3555 4.59547, 8.06008 4.59604, 7.77097 4.60234, 7.48757 4.61436, 7.20475 4.62695, 7.00037 4.66016, 6.87442 4.71455, 6.74274 4.75806, 6.64484 4.91664, 6.58186 5.19088 L 3.93057 15.5144 C 3.90538 15.6312, 3.89278 15.7319, 3.89278 15.8167, 3.89278 15.9025, 3.90881 15.9546, 3.9403 15.9724, 4.02847 16.0279, 4.21053 16.06, 4.48762 16.0691, 4.76472 16.0783, 5.0567 16.0829, 5.36471 16.0823, 5.54104 16.0829, 5.62921 16.1562, 5.62921 16.3021, 5.62921 16.3394, 5.62291 16.3789, 5.61031 16.4212 L 5.57253 16.5678 C 5.50325 16.751, 5.3836 16.8426, 5.21356 16.8426, 4.40232 16.806, 3.58134 16.7876, 2.7512 16.7876, 1.92736 16.7876, 1.09092 16.806, 0.241318 16.8426, 0.0787248 16.8426, -0.0031441 16.7636, -0.0037166 16.6044 L -0.0037166 16.5311, 0.034069 16.3754 C 0.0850224 16.1745, 0.207539 16.0766, 0.402193 16.0823, 0.710203 16.0829, 1.00619 16.0783, 1.28901 16.0691, 1.57183 16.06, 1.77622 16.0279, 1.90217 15.9724, 2.01553 15.9117, 2.10713 15.7468, 2.17583 15.4777 L 4.84601 5.15423 C 4.8712 5.03859, 4.8838 4.94699, 4.8838 4.87943, 4.8838 4.7884, 4.86834 4.73058, 4.83628 4.70539, 4.73609 4.6573, 4.54774 4.62695, 4.27064 4.61436, 3.99355 4.60234, 3.70729 4.59604, 3.41188 4.59547, 3.23554 4.59604, 3.14738 4.5136, 3.14738 4.34814 L 3.14738 4.28402, 3.18516 4.11914 C 3.25444 3.93651, 3.37409 3.84491, 3.54355 3.84433, 4.36797 3.86952, 5.19524 3.88155, 6.02538 3.88097, 6.86239 3.88155, 7.69253 3.86952, 8.5158 3.84433, 8.60397 3.84491, 8.67954 3.87525, 8.74251 3.93593, 8.7677 3.98517, 8.7803 4.03097, 8.7803 4.07334, 8.7803 4.11055, 8.77114 4.14433, 8.75167 4.1741 Z" stroke="none" fill="#000000" />
			<rect />
		</svg>
	</g>
	<ellipse cx="1467.4758787155151" cy="348.85350322723389" rx="11.199999809265137" ry="11.199999809265137" stroke="none" fill="#000000" transform="matrix(0.357143 0 0 0.357143 -264.536 -85.7476)" />
	<ellipse cx="1467.4758219718933" cy="348.85350751876831" rx="7.4666666984558105" ry="7.4666666984558105" stroke="none" fill="#FFFFFF" transform="matrix(0.357143 0 0 0.357143 -264.536 -85.7476)" />
	<ellipse cx="1467.4758787155151" cy="759.10032939910889" rx="11.199999809265137" ry="11.199999809265137" stroke="none" fill="#000000" transform="matrix(0.357143 0 0 0.357143 -264.536 -85.7476)" />
	<ellipse cx="1467.4758219718933" cy="759.10033369064331" rx="7.4666666984558105" ry="7.4666666984558105" stroke="none" fill="#FFFFFF" transform="matrix(0.357143 0 0 0.357143 -264.536 -85.7476)" />
	<g transform="matrix(1 0 -0 1 253.276 100.867)">
		<svg width="234.069733" height="98.936142">
			<defs />
			<path d="M 12.7097 4.3115 C 12.6908 4.39738, 12.645 4.46665, 12.5729 4.51818, 12.5008 4.57028, 12.4235 4.59604, 12.3416 4.59547, 12.1155 4.59604, 11.8956 4.61321, 11.6815 4.64642, 11.4674 4.6802, 11.2693 4.76092, 11.0867 4.88859, 10.9361 4.98076, 10.8164 5.10156, 10.7283 5.25099, 10.6401 5.40099, 10.5743 5.56072, 10.5302 5.73133 L 8.78459 12.4915 C 8.62143 13.103, 8.37124 13.6938, 8.0346 14.2646, 7.69797 14.8359, 7.26859 15.3621, 6.74646 15.8441, 6.2873 16.2661, 5.77834 16.6067, 5.21843 16.8655, 4.65851 17.1254, 4.08944 17.2548, 3.51063 17.2548, 2.88202 17.2548, 2.32038 17.13, 1.82631 16.8792, 1.3328 16.6296, 0.934911 16.2873, 0.632625 15.8533, 0.299425 15.3896, 0.101336 14.8617, 0.0383604 14.2686, 0.0131699 14.0923, 0.000574708 13.9056, 0.000574708 13.7098, 0.000574708 13.301, 0.0509556 12.8831, 0.151717 12.4549 L 2.04787 5.15423 C 2.07306 5.03859, 2.08566 4.94699, 2.08566 4.87943, 2.08566 4.7884, 2.06676 4.73058, 2.02898 4.70539, 1.94768 4.6573, 1.77764 4.62695, 1.52002 4.61436, 1.26239 4.60234, 0.985291 4.59604, 0.689304 4.59547, 0.595412 4.59604, 0.526139 4.56569, 0.482055 4.50386, 0.44427 4.4678, 0.425377 4.422, 0.425377 4.36646, 0.425377 4.33039, 0.43511 4.29662, 0.45343 4.2657 L 0.482055 4.11914 C 0.551329 3.93651, 0.673846 3.84491, 0.849607 3.84433, 1.63623 3.86952, 2.42859 3.88155, 3.22724 3.88097, 4.02646 3.88155, 4.82511 3.86952, 5.62377 3.84433, 5.8001 3.84491, 5.88826 3.92735, 5.88826 4.09166 L 5.88826 4.16494, 5.83159 4.32066 C 5.7938 4.50444, 5.67758 4.59604, 5.48236 4.59547, 5.18694 4.59604, 4.90756 4.60234, 4.64306 4.61436, 4.37856 4.62695, 4.18677 4.65901, 4.06711 4.71054, 3.94803 4.76264, 3.85357 4.92294, 3.78429 5.19088 L 1.90646 12.4915 C 1.76219 13.0297, 1.67688 13.5455, 1.65169 14.0396, 1.6391 14.1134, 1.6328 14.1867, 1.6328 14.2594, 1.6328 14.6751, 1.71467 15.0569, 1.87841 15.4045, 2.04214 15.7348, 2.2763 16.0021, 2.58145 16.2065, 2.8866 16.4115, 3.24327 16.5134, 3.65204 16.5128, 4.10547 16.5134, 4.56004 16.4098, 5.01576 16.202, 5.47148 15.9947, 5.89456 15.7136, 6.28444 15.3586, 6.731 14.9625, 7.09454 14.5108, 7.3745 14.0035, 7.65446 13.4968, 7.86342 12.9804, 8.0014 12.4549 L 9.73782 5.67636 C 9.77561 5.56701, 9.79393 5.4508, 9.79393 5.32828 L 9.79393 5.20004 C 9.77561 5.07237, 9.72179 4.96531, 9.63362 4.87943, 9.50195 4.75176, 9.34622 4.67275, 9.16703 4.64184, 8.98783 4.6115, 8.77887 4.59604, 8.53956 4.59547, 8.44509 4.59604, 8.37582 4.56856, 8.33174 4.51302, 8.28823 4.47066, 8.2659 4.422, 8.2659 4.36646, 8.2659 4.33039, 8.27563 4.29375, 8.29395 4.25654 L 8.33174 4.1283 C 8.3512 4.04929, 8.39357 3.98231, 8.45941 3.92735, 8.52582 3.87239, 8.60253 3.84491, 8.69013 3.84433, 9.31932 3.86952, 9.95137 3.88155, 10.5869 3.88097, 11.216 3.88155, 11.8544 3.86952, 12.5019 3.84433, 12.5901 3.84491, 12.6656 3.87525, 12.7286 3.93593, 12.7538 3.98517, 12.7664 4.03097, 12.7664 4.07334, 12.7664 4.11055, 12.7572 4.14433, 12.7378 4.1741 Z" stroke="none" fill="#000000" />
			<path d="M 4.0311 -0.393652 C 3.90414 0.102645, 3.69896 0.581309, 3.41554 1.04298, 3.13213 1.50465, 2.77529 1.92689, 2.34568 2.30969, 1.95839 2.65531, 1.53455 2.93006, 1.0748 3.13333, 0.615052 3.33659, 0.154662 3.43822, -0.306689 3.43822, -0.771567 3.43822, -1.18483 3.33595, -1.54583 3.13076, -1.90683 2.92558, -2.19473 2.64857, -2.40954 2.29943, -2.64551 1.91342, -2.78112 1.48574, -2.81639 1.01701, -2.8305 0.904479, -2.83755 0.791626, -2.83755 0.678452, -2.83755 0.326427, -2.7917 -0.0377803, -2.70033 -0.414171, -2.56632 -0.91656, -2.35953 -1.40452, -2.07932 -1.87838, -1.79911 -2.35191, -1.44099 -2.78024, -1.00433 -3.16368, -0.616714 -3.50866, -0.193195 -3.78662, 0.266554 -3.99694, 0.726302 -4.20725, 1.19022 -4.31241, 1.65862 -4.31273, 2.1235 -4.31241, 2.53484 -4.20629, 2.89231 -3.99437, 3.25011 -3.78213, 3.53609 -3.50192, 3.75089 -3.15342, 3.98686 -2.76677, 4.126 -2.33588, 4.16832 -1.86074, 4.17537 -1.74404, 4.1789 -1.62959, 4.1789 -1.51705, 4.1789 -1.15092, 4.12985 -0.776455, 4.0311 -0.393652 Z M 2.96381 -2.97902 C 2.84775 -3.26596, 2.67334 -3.49936, 2.44058 -3.6789, 2.20814 -3.85844, 1.9228 -3.94821, 1.58456 -3.94853, 1.25017 -3.94821, 0.917382 -3.85651, 0.586197 -3.67377, 0.255332 -3.4907, -0.0405865 -3.25409, -0.301559 -2.96363, -0.629218 -2.61096, -0.887947 -2.2288, -1.07807 -1.81682, -1.26818 -1.40452, -1.4163 -0.986773, -1.5221 -0.562932, -1.64522 -0.10094, -1.72088 0.34887, -1.74909 0.786176, -1.75615 0.868571, -1.75967 0.950646, -1.75967 1.0324, -1.75967 1.37481, -1.70325 1.70984, -1.59071 2.03782, -1.48139 2.32893, -1.31403 2.57259, -1.08865 2.76912, -0.86326 2.96597, -0.581448 3.06408, -0.24353 3.06376, 0.105289 3.06408, 0.446413 2.96405, 0.779202 2.76399, 1.11199 2.56393, 1.41047 2.31675, 1.67465 2.02243, 2.01642 1.62616, 2.2822 1.20713, 2.47232 0.765978, 2.66276 0.324824, 2.81761 -0.124985, 2.9372 -0.583451, 3.04652 -1.0105, 3.11513 -1.43113, 3.14335 -1.84535 L 3.14335 -2.02489 C 3.14335 -2.36666, 3.08371 -2.6847, 2.96381 -2.97902 Z" stroke="none" fill="#000000" transform="matrix(1.12 0 0 1 15.0762 16.3063)" />
			<path d="M 3.98538 -1.34264 C 3.96422 -1.24646, 3.90267 -1.19709, 3.80039 -1.19388 L 3.68401 -1.19388 C 3.60322 -1.19356, 3.55898 -1.2346, 3.55192 -1.317 L 3.55192 -1.35803 C 3.58719 -1.57316, 3.60675 -1.77995, 3.61027 -1.97873, 3.61027 -2.09126, 3.60675 -2.20571, 3.59969 -2.32242, 3.56443 -2.62314, 3.48524 -2.88892, 3.36212 -3.11976, 3.23901 -3.3506, 3.07326 -3.53527, 2.86551 -3.67377, 2.65775 -3.81227, 2.40416 -3.88152, 2.10471 -3.88184, 1.73858 -3.88152, 1.37052 -3.79239, 1.00054 -3.61478, 0.630887 -3.43684, 0.296495 -3.19927, -0.00295043 -2.90207, -0.351449 -2.5494, -0.624284 -2.15955, -0.821777 -1.73218, -1.01895 -1.30449, -1.1738 -0.86879, -1.28665 -0.424431, -1.40977 0.0273025, -1.4803 0.464929, -1.49793 0.888769 L -1.49793 1.0324 C -1.49793 1.40559, -1.42387 1.74575, -1.27607 2.05321, -1.13501 2.34432, -0.92918 2.57868, -0.657948 2.7563, -0.386715 2.93423, -0.0645068 3.02304, 0.308678 3.02272, 0.61165 3.02304, 0.909172 2.95828, 1.20156 2.82811, 1.49396 2.69827, 1.7623 2.5229, 2.00693 2.30232, 2.25187 2.08174, 2.46571 1.82622, 2.64878 1.53543, 2.83216 1.24496, 2.96425 0.93686, 3.04505 0.611766, 3.06621 0.516226, 3.12776 0.468456, 3.22971 0.468135 L 3.34609 0.468135 C 3.43426 0.468456, 3.48171 0.505966, 3.48876 0.580988, 3.48876 0.601828, 3.48363 0.620743, 3.47273 0.637415, 3.37783 1.01381, 3.22106 1.37128, 3.00273 1.70984, 2.78439 2.0484, 2.5247 2.34528, 2.22365 2.59984, 1.92261 2.85472, 1.59238 3.05799, 1.2333 3.20995, 0.874226 3.36224, 0.504247 3.43822, 0.123689 3.43822, -0.362349 3.43822, -0.794525 3.33659, -1.17316 3.13333, -1.55147 2.93006, -1.85894 2.64857, -2.0949 2.28917, -2.34113 1.90317, -2.48572 1.47548, -2.52804 1.00675, -2.54215 0.880434, -2.5492 0.748986, -2.5492 0.611766, -2.5492 0.266795, -2.50496 -0.0855505, -2.41711 -0.444949, -2.2831 -0.947338, -2.07086 -1.43209, -1.78039 -1.8989, -1.48992 -2.3657, -1.12635 -2.7905, -0.689687 -3.17394, -0.277389 -3.52244, 0.168894 -3.79944, 0.649482 -4.00463, 1.13039 -4.20982, 1.61194 -4.31241, 2.09413 -4.31273, 2.47822 -4.31241, 2.80652 -4.22777, 3.07935 -4.05849, 3.35251 -3.88921, 3.55385 -3.68499, 3.68401 -3.44582 L 4.39736 -4.24092 C 4.42557 -4.28837, 4.47334 -4.31241, 4.54003 -4.31273 L 4.58203 -4.31273 C 4.66667 -4.31241, 4.70899 -4.27138, 4.70899 -4.18962 L 4.70899 -4.14858 Z" stroke="none" fill="#000000" transform="matrix(1.12 0 0 1 23.6089 16.3063)" />
			<polyline points="-6.566 -1.9698 6.566 -1.9698" fill="none" stroke="#000000" stroke-width="0.750400007" stroke-linecap="round" stroke-linejoin="round" transform="matrix(1 0 0 1 40.1214 11.2074)" />
			<polyline points="-6.566 1.9698 6.566 1.9698" fill="none" stroke="#000000" stroke-width="0.750400007" stroke-linecap="round" stroke-linejoin="round" transform="matrix(1 0 0 1 40.1214 11.2074)" />
			<path d="M 58.9525 16.7669 C 57.8186 16.731, 56.715 16.7131, 55.6423 16.7131, 54.5701 16.7131, 53.4665 16.731, 52.332 16.7669 L 52.332 15.9949, 52.9705 15.9949 C 53.1736 15.9955, 53.3649 15.9927, 53.5433 15.9865, 53.7223 15.9809, 53.8918 15.9657, 54.0522 15.9416, 54.2127 15.918, 54.3513 15.8939, 54.468 15.8692, 54.5667 15.8518, 54.6486 15.7969, 54.7132 15.7037, 54.7782 15.6111, 54.8102 15.5079, 54.8102 15.3935 L 54.8102 5.27643 C 54.5022 5.4268, 54.1229 5.54069, 53.6729 5.61812, 53.223 5.6961, 52.7298 5.73482, 52.1934 5.73426 L 52.1934 4.97122 C 52.9335 4.97178, 53.6163 4.88369, 54.2419 4.70696, 54.8674 4.53078, 55.4083 4.19976, 55.8644 3.71444 L 56.1511 3.71444 C 56.3542 3.715, 56.4558 3.81375, 56.4558 4.01068 L 56.4558 15.3935 C 56.4558 15.5135, 56.4867 15.6184, 56.5484 15.7082, 56.6101 15.798, 56.6999 15.8518, 56.8166 15.8692, 56.9153 15.8939, 57.0421 15.918, 57.1958 15.9416, 57.3501 15.9657, 57.5241 15.9809, 57.7182 15.9865, 57.9123 15.9927, 58.1019 15.9955, 58.2865 15.9949 L 58.9525 15.9949, 58.9525 16.7669 Z" stroke="none" fill="#000000" />
			<path d="M 76.4482 4.57714 C 76.1591 4.57772, 75.9044 4.59947, 75.6845 4.64184, 75.4647 4.68478, 75.2597 4.75806, 75.0708 4.86111, 74.7565 5.05118, 74.5177 5.33801, 74.354 5.72216 L 69.9863 16.98 C 69.905 17.1575, 69.7665 17.2428, 69.5713 17.2365 L 69.4207 17.2365 C 69.226 17.2365, 69.0875 17.1512, 69.0056 16.98 L 64.4307 5.19087 C 64.3803 5.07523, 64.3236 4.9716, 64.2607 4.88, 64.1977 4.7884, 64.1066 4.72142, 63.987 4.67791, 63.8427 4.62352, 63.64 4.59317, 63.379 4.58688, 63.1179 4.58115, 62.8397 4.57772, 62.5437 4.57714 L 62.5437 3.81685 C 63.3555 3.86036, 64.1318 3.88154, 64.8738 3.88097, 64.9872 3.88154, 65.1103 3.87525, 65.2419 3.86265, 66.1036 3.86322, 67.0058 3.8512, 67.9493 3.82601 L 67.9493 4.57714 C 67.6665 4.57772, 67.4146 4.58401, 67.1948 4.59604, 66.9749 4.60863, 66.7763 4.65386, 66.5999 4.73287, 66.5186 4.77638, 66.4557 4.8342, 66.4116 4.90691, 66.3801 4.95615, 66.3641 5.00195, 66.3641 5.04431, 66.3641 5.0695, 66.3675 5.09698, 66.3738 5.12675 L 70.0716 14.5984, 73.5616 5.64888 C 73.5931 5.57617, 73.6086 5.49373, 73.6086 5.40156, 73.6086 5.22522, 73.5239 5.06034, 73.3544 4.90691, 73.2101 4.77924, 73.0481 4.69222, 72.8683 4.64642, 72.6891 4.60062, 72.4613 4.57772, 72.1842 4.57714 L 72.1842 3.82601 C 72.9456 3.8512, 73.6624 3.86322, 74.3351 3.86265, 74.4233 3.87525, 74.5177 3.88154, 74.6179 3.88097, 75.1967 3.88154, 75.807 3.86036, 76.4482 3.81685 L 76.4482 4.57714 Z" stroke="none" fill="#000000" />
			<rect />
		</svg>
	</g>
	<path d="M 0 -23.3485 L 0 23.3482" fill="none" stroke="#E50A00" stroke-width="5.5999999" stroke-linecap="round" stroke-linejoin="round" transform="matrix(0.357143 0 0 0.357143 9.5 112.133)" />
	<path d="M -116.879 22.9091 C -46.8789 -21.2121, 45.6062 -22.9091, 116.879 18.2424" fill="none" stroke="#E50500" stroke-width="3.73333335" stroke-linecap="round" stroke-linejoin="round" marker-end="url(#CustomMarker-01)" transform="matrix(0.357143 -1.07854e-007 -1.07854e-007 -0.357143 117.251 172.515)" />
	<path d="M -116.879 22.9092 C -46.8789 -21.2123, 45.6062 -22.9092, 116.879 18.2425" fill="none" stroke="#E50500" stroke-width="3.73333335" stroke-linecap="round" stroke-linejoin="round" marker-end="url(#CustomMarker-02)" transform="matrix(0.357143 0 -0 0.357143 117.251 51.7497)" />
	<g transform="matrix(1 0 -0 1 43.8499 180.835)">
		<svg width="195.03186" height="98.936142">
			<defs />
			<path d="M 8.72362 4.3115 C 8.7053 4.39165, 8.66294 4.45864, 8.59652 4.5136, 8.53011 4.56856, 8.44996 4.59604, 8.3555 4.59547, 8.06008 4.59604, 7.77097 4.60234, 7.48757 4.61436, 7.20475 4.62695, 7.00037 4.66016, 6.87442 4.71455, 6.74274 4.75806, 6.64484 4.91664, 6.58186 5.19088 L 3.93057 15.5144 C 3.90538 15.6312, 3.89278 15.7319, 3.89278 15.8167, 3.89278 15.9025, 3.90881 15.9546, 3.9403 15.9724, 4.02847 16.0279, 4.21053 16.06, 4.48762 16.0691, 4.76472 16.0783, 5.0567 16.0829, 5.36471 16.0823, 5.54104 16.0829, 5.62921 16.1562, 5.62921 16.3021, 5.62921 16.3394, 5.62291 16.3789, 5.61031 16.4212 L 5.57253 16.5678 C 5.50325 16.751, 5.3836 16.8426, 5.21356 16.8426, 4.40232 16.806, 3.58134 16.7876, 2.7512 16.7876, 1.92736 16.7876, 1.09092 16.806, 0.241318 16.8426, 0.0787248 16.8426, -0.0031441 16.7636, -0.0037166 16.6044 L -0.0037166 16.5311, 0.034069 16.3754 C 0.0850224 16.1745, 0.207539 16.0766, 0.402193 16.0823, 0.710203 16.0829, 1.00619 16.0783, 1.28901 16.0691, 1.57183 16.06, 1.77622 16.0279, 1.90217 15.9724, 2.01553 15.9117, 2.10713 15.7468, 2.17583 15.4777 L 4.84601 5.15423 C 4.8712 5.03859, 4.8838 4.94699, 4.8838 4.87943, 4.8838 4.7884, 4.86834 4.73058, 4.83628 4.70539, 4.73609 4.6573, 4.54774 4.62695, 4.27064 4.61436, 3.99355 4.60234, 3.70729 4.59604, 3.41188 4.59547, 3.23554 4.59604, 3.14738 4.5136, 3.14738 4.34814 L 3.14738 4.28402, 3.18516 4.11914 C 3.25444 3.93651, 3.37409 3.84491, 3.54355 3.84433, 4.36797 3.86952, 5.19524 3.88155, 6.02538 3.88097, 6.86239 3.88155, 7.69253 3.86952, 8.5158 3.84433, 8.60397 3.84491, 8.67954 3.87525, 8.74251 3.93593, 8.7677 3.98517, 8.7803 4.03097, 8.7803 4.07334, 8.7803 4.11055, 8.77114 4.14433, 8.75167 4.1741 Z" stroke="none" fill="#E50500" />
			<path d="M 2.39126 3.19713 L -1.90934 3.19713, -1.90934 2.915 C -1.90934 2.8948, -1.89876 2.86402, -1.8776 2.82266 L -0.149855 0.945196 C 0.0543709 0.71981, 0.261161 0.488975, 0.470837 0.253009, 0.680513 0.0170434, 0.868388 -0.224052, 1.03382 -0.470277, 1.19925 -0.716502, 1.33134 -0.970422, 1.43009 -1.23204, 1.52884 -1.49365, 1.57789 -1.76809, 1.57789 -2.05567, 1.57789 -2.29805, 1.54615 -2.52472, 1.48267 -2.73503, 1.41919 -2.94535, 1.32782 -3.13002, 1.20791 -3.28904, 1.08832 -3.44806, 0.938601 -3.5763, 0.759062 -3.67377, 0.579523 -3.77123, 0.371449 -3.81996, 0.135484 -3.82028, -0.216541 -3.81996, -0.527528 -3.7148, -0.797157 -3.50449, -1.06647 -3.29417, -1.24536 -3.06237, -1.33353 -2.80974, -1.35084 -2.80268, -1.32263 -2.79915, -1.24889 -2.79948 L -1.15912 -2.79948 C -1.05332 -2.77511, -0.961949 -2.73824, -0.884362 -2.68887, -0.806775 -2.63917, -0.741693 -2.57088, -0.688793 -2.48368, -0.635893 -2.39647, -0.609603 -2.29132, -0.609603 -2.16852, -0.609603 -1.96302, -0.676289 -1.8056, -0.810302 -1.69627, -0.944315 -1.58663, -1.09404 -1.53212, -1.25947 -1.53244, -1.41785 -1.53212, -1.56597 -1.58663, -1.70319 -1.69627, -1.84041 -1.8056, -1.90934 -1.96302, -1.90934 -2.16852, -1.90934 -2.45547, -1.85291 -2.72734, -1.74006 -2.98382, -1.6272 -3.24031, -1.47428 -3.46249, -1.28063 -3.65068, -1.08698 -3.83856, -0.858072 -3.98732, -0.593893 -4.09697, -0.329715 -4.20629, -0.0495055 -4.26112, 0.246413 -4.26144, 0.612865 -4.26112, 0.948539 -4.20725, 1.25311 -4.09953, 1.55769 -3.99181, 1.81738 -3.83695, 2.03219 -3.63529, 2.24699 -3.43331, 2.41531 -3.19991, 2.53682 -2.93509, 2.65833 -2.66995, 2.71892 -2.37692, 2.71892 -2.05567, 2.71892 -1.6998, 2.63813 -1.37214, 2.4759 -1.07302, 2.314 -0.77357, 2.1133 -0.499131, 1.87381 -0.2497, 1.63431 5.126e-005, 1.37975 0.235055, 1.11012 0.455632, 0.840816 0.676208, 0.596835 0.890693, 0.378503 1.09909 L -0.836912 2.24301, 0.753611 2.24301 C 0.97547 2.24333, 1.18258 2.24172, 1.3743 2.2382, 1.56635 2.23499, 1.72921 2.22794, 1.86323 2.21768, 1.99724 2.20742, 2.06585 2.20069, 2.06906 2.19684, 2.09727 2.17312, 2.12388 2.12534, 2.14857 2.05353, 2.17325 1.98171, 2.19602 1.89707, 2.21718 1.79961, 2.23833 1.70215, 2.2595 1.60308, 2.28066 1.50209, 2.30181 1.40142, 2.32105 1.29081, 2.33868 1.1709 L 2.7295 1.1709 Z" stroke="none" fill="#E50500" transform="matrix(1.12 0 0 1 10.7316 16.3063)" />
			<polyline points="-6.566 -1.9698 6.566 -1.9698" fill="none" stroke="#E50500" stroke-width="0.750400007" stroke-linecap="round" stroke-linejoin="round" transform="matrix(1 0 0 1 26.1735 11.2074)" />
			<polyline points="-6.566 1.9698 6.566 1.9698" fill="none" stroke="#E50500" stroke-width="0.750400007" stroke-linecap="round" stroke-linejoin="round" transform="matrix(1 0 0 1 26.1735 11.2074)" />
			<path d="M 45.7859 16.7669 L 38.2599 16.7669, 38.2599 16.2732 C 38.2599 16.2379, 38.2784 16.184, 38.3154 16.1116 L 41.339 12.826 C 41.6964 12.4316, 42.0583 12.0277, 42.4252 11.6147, 42.7921 11.2018, 43.1209 10.7799, 43.4104 10.349, 43.6999 9.91808, 43.9311 9.47372, 44.1039 9.01589, 44.2767 8.55807, 44.3625 8.0778, 44.3625 7.57453, 44.3625 7.15037, 44.307 6.7537, 44.1959 6.38565, 44.0848 6.01759, 43.9249 5.69442, 43.7151 5.41613, 43.5058 5.13785, 43.2438 4.91343, 42.9296 4.74286, 42.6154 4.5723, 42.2513 4.48702, 41.8383 4.48646, 41.2223 4.48702, 40.678 4.67105, 40.2062 5.0391, 39.7349 5.40716, 39.4218 5.8128, 39.2675 6.25492, 39.2372 6.26726, 39.2866 6.27343, 39.4157 6.27287 L 39.5728 6.27287 C 39.7579 6.31551, 39.9178 6.38004, 40.0536 6.46644, 40.1894 6.5534, 40.3033 6.67291, 40.3958 6.82552, 40.4884 6.97812, 40.5344 7.16215, 40.5344 7.37704, 40.5344 7.73668, 40.4177 8.01216, 40.1832 8.20348, 39.9487 8.39536, 39.6867 8.49074, 39.3971 8.49018, 39.12 8.49074, 38.8608 8.39536, 38.6206 8.20348, 38.3805 8.01216, 38.2599 7.73668, 38.2599 7.37704, 38.2599 6.87489, 38.3586 6.39911, 38.5561 5.95026, 38.7536 5.50142, 39.0212 5.1126, 39.3601 4.78326, 39.699 4.45448, 40.0996 4.19415, 40.5619 4.00226, 41.0242 3.81094, 41.5146 3.715, 42.0324 3.71444, 42.6737 3.715, 43.2612 3.80926, 43.7942 3.99778, 44.3272 4.18629, 44.7816 4.45728, 45.1575 4.81019, 45.5335 5.16366, 45.828 5.57211, 46.0407 6.03554, 46.2533 6.49954, 46.3593 7.01235, 46.3593 7.57453, 46.3593 8.19731, 46.2179 8.77071, 45.9341 9.29418, 45.6507 9.81821, 45.2995 10.2985, 44.8804 10.735, 44.4613 11.172, 44.0158 11.5833, 43.5439 11.9693, 43.0727 12.3553, 42.6457 12.7307, 42.2636 13.0954 L 40.1366 15.0972, 42.92 15.0972 C 43.3083 15.0978, 43.6707 15.095, 44.0063 15.0888, 44.3423 15.0832, 44.6273 15.0708, 44.8619 15.0529, 45.0964 15.0349, 45.2165 15.0232, 45.2221 15.0164, 45.2714 14.9749, 45.318 14.8913, 45.3612 14.7656, 45.4044 14.64, 45.4442 14.4918, 45.4813 14.3213, 45.5183 14.1507, 45.5553 13.9773, 45.5924 13.8006, 45.6294 13.6244, 45.6631 13.4309, 45.6939 13.221 L 46.3779 13.221 Z" stroke="none" fill="#E50500" />
			<path d="M 63.003 16.8334 C 62.1855 16.7911, 61.3966 16.7693, 60.6351 16.7693 L 60.267 16.7693 C 59.3802 16.7819, 58.4584 16.8002, 57.5023 16.8243 L 57.5023 16.064 C 57.7857 16.0646, 58.0405 16.0542, 58.2666 16.0325, 58.4934 16.0113, 58.6943 15.9667, 58.8706 15.8991, 58.9525 15.8567, 59.0247 15.7926, 59.0876 15.7067, 59.1128 15.677, 59.1254 15.6369, 59.1254 15.5877, 59.1254 15.5636, 59.1225 15.5361, 59.1157 15.5052 L 58.0497 12.5465, 53.4169 12.5465, 52.5398 15.0014 C 52.5083 15.0753, 52.4923 15.1457, 52.4923 15.2121, 52.4923 15.2739, 52.502 15.3346, 52.5209 15.3953, 52.5713 15.5304, 52.6532 15.6403, 52.766 15.7251, 52.9297 15.8602, 53.1043 15.9501, 53.2898 15.9959, 53.4753 16.0417, 53.7003 16.0646, 53.9642 16.064 L 53.9642 16.8243 C 53.2034 16.8002, 52.4769 16.7819, 51.7847 16.7693 L 51.4927 16.7693 C 50.8887 16.7693, 50.2595 16.7911, 49.6057 16.8334 L 49.6057 16.064 C 49.908 16.0646, 50.1702 16.0451, 50.3935 16.005, 50.6168 15.9655, 50.832 15.8876, 51.0393 15.7709, 51.3794 15.5819, 51.6181 15.3043, 51.7566 14.9373 L 55.8323 3.4596 C 55.8953 3.27697, 56.0276 3.18824, 56.2285 3.19396 L 56.3797 3.19396 C 56.5812 3.19453, 56.7129 3.28327, 56.7758 3.4596 L 61.0593 15.4502 C 61.0914 15.567, 61.1401 15.6707, 61.2059 15.7623, 61.2723 15.8539, 61.3616 15.9151, 61.4744 15.9449, 61.6382 16.0067, 61.854 16.0417, 62.1214 16.0508, 62.3887 16.06, 62.6824 16.0646, 63.003 16.064 L 63.003 16.8334 Z M 55.7476 6.04277 L 53.6906 11.7862, 57.776 11.7862 Z" stroke="none" fill="#E50500" />
			<rect />
		</svg>
	</g>
	<g transform="matrix(1 0 -0 1 43.7743 21.9778)">
		<svg width="195.03186" height="98.936142">
			<defs />
			<path d="M 8.72362 4.3115 C 8.7053 4.39165, 8.66294 4.45864, 8.59652 4.5136, 8.53011 4.56856, 8.44996 4.59604, 8.3555 4.59547, 8.06008 4.59604, 7.77097 4.60234, 7.48757 4.61436, 7.20475 4.62695, 7.00037 4.66016, 6.87442 4.71455, 6.74274 4.75806, 6.64484 4.91664, 6.58186 5.19088 L 3.93057 15.5144 C 3.90538 15.6312, 3.89278 15.7319, 3.89278 15.8167, 3.89278 15.9025, 3.90881 15.9546, 3.9403 15.9724, 4.02847 16.0279, 4.21053 16.06, 4.48762 16.0691, 4.76472 16.0783, 5.0567 16.0829, 5.36471 16.0823, 5.54104 16.0829, 5.62921 16.1562, 5.62921 16.3021, 5.62921 16.3394, 5.62291 16.3789, 5.61031 16.4212 L 5.57253 16.5678 C 5.50325 16.751, 5.3836 16.8426, 5.21356 16.8426, 4.40232 16.806, 3.58134 16.7876, 2.7512 16.7876, 1.92736 16.7876, 1.09092 16.806, 0.241318 16.8426, 0.0787248 16.8426, -0.0031441 16.7636, -0.0037166 16.6044 L -0.0037166 16.5311, 0.034069 16.3754 C 0.0850224 16.1745, 0.207539 16.0766, 0.402193 16.0823, 0.710203 16.0829, 1.00619 16.0783, 1.28901 16.0691, 1.57183 16.06, 1.77622 16.0279, 1.90217 15.9724, 2.01553 15.9117, 2.10713 15.7468, 2.17583 15.4777 L 4.84601 5.15423 C 4.8712 5.03859, 4.8838 4.94699, 4.8838 4.87943, 4.8838 4.7884, 4.86834 4.73058, 4.83628 4.70539, 4.73609 4.6573, 4.54774 4.62695, 4.27064 4.61436, 3.99355 4.60234, 3.70729 4.59604, 3.41188 4.59547, 3.23554 4.59604, 3.14738 4.5136, 3.14738 4.34814 L 3.14738 4.28402, 3.18516 4.11914 C 3.25444 3.93651, 3.37409 3.84491, 3.54355 3.84433, 4.36797 3.86952, 5.19524 3.88155, 6.02538 3.88097, 6.86239 3.88155, 7.69253 3.86952, 8.5158 3.84433, 8.60397 3.84491, 8.67954 3.87525, 8.74251 3.93593, 8.7677 3.98517, 8.7803 4.03097, 8.7803 4.07334, 8.7803 4.11055, 8.77114 4.14433, 8.75167 4.1741 Z" stroke="none" fill="#E50500" />
			<path d="M 2.39126 3.19713 L -1.90934 3.19713, -1.90934 2.915 C -1.90934 2.8948, -1.89876 2.86402, -1.8776 2.82266 L -0.149855 0.945196 C 0.0543709 0.71981, 0.261161 0.488975, 0.470837 0.253009, 0.680513 0.0170434, 0.868388 -0.224052, 1.03382 -0.470277, 1.19925 -0.716502, 1.33134 -0.970422, 1.43009 -1.23204, 1.52884 -1.49365, 1.57789 -1.76809, 1.57789 -2.05567, 1.57789 -2.29805, 1.54615 -2.52472, 1.48267 -2.73503, 1.41919 -2.94535, 1.32782 -3.13002, 1.20791 -3.28904, 1.08832 -3.44806, 0.938601 -3.5763, 0.759062 -3.67377, 0.579523 -3.77123, 0.371449 -3.81996, 0.135484 -3.82028, -0.216541 -3.81996, -0.527528 -3.7148, -0.797157 -3.50449, -1.06647 -3.29417, -1.24536 -3.06237, -1.33353 -2.80974, -1.35084 -2.80268, -1.32263 -2.79915, -1.24889 -2.79948 L -1.15912 -2.79948 C -1.05332 -2.77511, -0.961949 -2.73824, -0.884362 -2.68887, -0.806775 -2.63917, -0.741693 -2.57088, -0.688793 -2.48368, -0.635893 -2.39647, -0.609603 -2.29132, -0.609603 -2.16852, -0.609603 -1.96302, -0.676289 -1.8056, -0.810302 -1.69627, -0.944315 -1.58663, -1.09404 -1.53212, -1.25947 -1.53244, -1.41785 -1.53212, -1.56597 -1.58663, -1.70319 -1.69627, -1.84041 -1.8056, -1.90934 -1.96302, -1.90934 -2.16852, -1.90934 -2.45547, -1.85291 -2.72734, -1.74006 -2.98382, -1.6272 -3.24031, -1.47428 -3.46249, -1.28063 -3.65068, -1.08698 -3.83856, -0.858072 -3.98732, -0.593893 -4.09697, -0.329715 -4.20629, -0.0495055 -4.26112, 0.246413 -4.26144, 0.612865 -4.26112, 0.948539 -4.20725, 1.25311 -4.09953, 1.55769 -3.99181, 1.81738 -3.83695, 2.03219 -3.63529, 2.24699 -3.43331, 2.41531 -3.19991, 2.53682 -2.93509, 2.65833 -2.66995, 2.71892 -2.37692, 2.71892 -2.05567, 2.71892 -1.6998, 2.63813 -1.37214, 2.4759 -1.07302, 2.314 -0.77357, 2.1133 -0.499131, 1.87381 -0.2497, 1.63431 5.126e-005, 1.37975 0.235055, 1.11012 0.455632, 0.840816 0.676208, 0.596835 0.890693, 0.378503 1.09909 L -0.836912 2.24301, 0.753611 2.24301 C 0.97547 2.24333, 1.18258 2.24172, 1.3743 2.2382, 1.56635 2.23499, 1.72921 2.22794, 1.86323 2.21768, 1.99724 2.20742, 2.06585 2.20069, 2.06906 2.19684, 2.09727 2.17312, 2.12388 2.12534, 2.14857 2.05353, 2.17325 1.98171, 2.19602 1.89707, 2.21718 1.79961, 2.23833 1.70215, 2.2595 1.60308, 2.28066 1.50209, 2.30181 1.40142, 2.32105 1.29081, 2.33868 1.1709 L 2.7295 1.1709 Z" stroke="none" fill="#E50500" transform="matrix(1.12 0 0 1 10.7316 16.3063)" />
			<polyline points="-6.566 -1.9698 6.566 -1.9698" fill="none" stroke="#E50500" stroke-width="0.750400007" stroke-linecap="round" stroke-linejoin="round" transform="matrix(1 0 0 1 26.1735 11.2074)" />
			<polyline points="-6.566 1.9698 6.566 1.9698" fill="none" stroke="#E50500" stroke-width="0.750400007" stroke-linecap="round" stroke-linejoin="round" transform="matrix(1 0 0 1 26.1735 11.2074)" />
			<path d="M 46.6821 13.3826 C 46.6821 13.8977, 46.5682 14.392, 46.3404 14.8644, 46.1126 15.3374, 45.8074 15.7413, 45.4248 16.0757, 44.9939 16.4533, 44.5176 16.7327, 43.9969 16.9151, 43.4762 17.098, 42.932 17.1888, 42.3648 17.1888, 41.8536 17.1888, 41.3549 17.117, 40.8679 16.9734, 40.3809 16.8298, 39.9421 16.6239, 39.5505 16.3546, 39.1589 16.0852, 38.8464 15.7548, 38.6118 15.3626, 38.3779 14.971, 38.2606 14.5204, 38.2606 14.011, 38.2606 13.6284, 38.3885 13.3428, 38.6444 13.1543, 38.9002 12.9658, 39.1695 12.8715, 39.4529 12.8709, 39.7491 12.8715, 40.0246 12.9658, 40.2804 13.1543, 40.5363 13.3428, 40.6642 13.6284, 40.6642 14.011, 40.6642 14.2388, 40.6199 14.429, 40.5301 14.5816, 40.4409 14.7342, 40.327 14.8616, 40.1879 14.9631, 40.0493 15.0652, 39.8905 15.1275, 39.7121 15.1511, 39.6201 15.1758, 39.5337 15.1875, 39.4529 15.187, 39.3732 15.1875, 39.3609 15.1937, 39.4158 15.2049, 39.6072 15.5405, 39.9831 15.8373, 40.5441 16.0942, 41.1052 16.3517, 41.7117 16.4802, 42.3648 16.4797, 42.6733 16.4802, 42.9612 16.4039, 43.2294 16.2513, 43.4975 16.0987, 43.7214 15.8939, 43.8998 15.6358, 44.122 15.3014, 44.2729 14.9424, 44.3526 14.5592, 44.4328 14.1765, 44.4727 13.7843, 44.4727 13.3826, 44.4727 12.9702, 44.4328 12.5741, 44.3526 12.1937, 44.2729 11.8139, 44.122 11.4621, 43.8998 11.1384, 43.7147 10.8758, 43.4897 10.6632, 43.2249 10.5016, 42.96 10.34, 42.6733 10.2592, 42.3648 10.2586 L 41.0244 10.2586 C 40.846 10.2592, 40.7506 10.1756, 40.7383 10.0073 L 40.7383 9.90854 C 40.7383 9.83728, 40.7601 9.78062, 40.8028 9.73798, 40.8583 9.68468, 40.929 9.65775, 41.0154 9.65718, 41.1944 9.63362, 41.379 9.62184, 41.5697 9.62128, 41.7549 9.62184, 41.9372 9.61005, 42.1157 9.58537, 42.4484 9.5618, 42.7379 9.45913, 42.9842 9.27623, 43.231 9.09388, 43.4375 8.86048, 43.6036 8.57602, 43.7702 8.29213, 43.8965 7.96447, 43.9829 7.59305, 44.0693 7.22219, 44.1125 6.84179, 44.1125 6.45241, 44.1125 6.16571, 44.0816 5.8936, 44.0199 5.63607, 43.9582 5.37911, 43.8443 5.15412, 43.6776 4.96224, 43.3326 4.56781, 42.895 4.37313, 42.3648 4.37874, 41.7981 4.3793, 41.2791 4.4859, 40.8078 4.69798, 40.3365 4.91062, 40.0201 5.13953, 39.8596 5.38415, 39.817 5.39089, 39.8383 5.39369, 39.9247 5.39313, 40.1469 5.39369, 40.3562 5.45934, 40.5531 5.59062, 40.8493 5.76455, 40.9969 6.05799, 40.9969 6.47037, 40.9969 6.81822, 40.8847 7.08024, 40.6597 7.25641, 40.4347 7.43314, 40.1834 7.52123, 39.9062 7.52067, 39.6352 7.52123, 39.3811 7.43483, 39.1437 7.2609, 38.9064 7.08753, 38.7874 6.82383, 38.7874 6.47037, 38.7874 6.03386, 38.8924 5.64841, 39.1016 5.3129, 39.3115 4.97795, 39.5808 4.69069, 39.9107 4.45111, 40.2406 4.2121, 40.621 4.0292, 41.0524 3.90352, 41.4839 3.77784, 41.9215 3.715, 42.3648 3.71444, 42.8394 3.715, 43.2989 3.77784, 43.7427 3.90352, 44.1865 4.0292, 44.6056 4.22388, 44.9995 4.48646, 45.3204 4.71425, 45.5897 4.99422, 45.8085 5.32637, 46.0274 5.65851, 46.1368 6.03386, 46.1368 6.45241, 46.1368 6.87208, 46.0616 7.26707, 45.9107 7.63793, 45.7597 8.00935, 45.5594 8.34431, 45.3098 8.64335, 45.0601 8.94296, 44.7627 9.20609, 44.4177 9.43332, 44.0726 9.66111, 43.8134 9.80418, 43.6406 9.86365, 43.7887 9.88217, 44.0418 9.97082, 44.3992 10.129, 44.7566 10.2878, 45.0982 10.4988, 45.4248 10.7613, 45.8074 11.0913, 46.1126 11.4846, 46.3404 11.9424, 46.5682 12.4002, 46.6821 12.8805, 46.6821 13.3826 Z" stroke="none" fill="#E50500" />
			<path d="M 63.1542 16.8334 C 62.3366 16.7911, 61.5477 16.7693, 60.7863 16.7693 L 60.4181 16.7693 C 59.5313 16.7819, 58.6096 16.8002, 57.6535 16.8243 L 57.6535 16.064 C 57.9369 16.0646, 58.1916 16.0542, 58.4178 16.0325, 58.6445 16.0113, 58.8455 15.9667, 59.0218 15.8991, 59.1037 15.8567, 59.1758 15.7926, 59.2388 15.7067, 59.264 15.677, 59.2766 15.6369, 59.2766 15.5877, 59.2766 15.5636, 59.2737 15.5361, 59.2668 15.5052 L 58.2008 12.5465, 53.5681 12.5465, 52.691 15.0014 C 52.6595 15.0753, 52.6435 15.1457, 52.6435 15.2121, 52.6435 15.2739, 52.6532 15.3346, 52.6721 15.3953, 52.7225 15.5304, 52.8043 15.6403, 52.9171 15.7251, 53.0809 15.8602, 53.2555 15.9501, 53.441 15.9959, 53.6265 16.0417, 53.8515 16.0646, 54.1154 16.064 L 54.1154 16.8243 C 53.3545 16.8002, 52.628 16.7819, 51.9358 16.7693 L 51.6439 16.7693 C 51.0399 16.7693, 50.4107 16.7911, 49.7569 16.8334 L 49.7569 16.064 C 50.0591 16.0646, 50.3214 16.0451, 50.5446 16.005, 50.7679 15.9655, 50.9832 15.8876, 51.1904 15.7709, 51.5305 15.5819, 51.7692 15.3043, 51.9078 14.9373 L 55.9835 3.4596 C 56.0465 3.27697, 56.1787 3.18824, 56.3797 3.19396 L 56.5308 3.19396 C 56.7323 3.19453, 56.864 3.28327, 56.927 3.4596 L 61.2105 15.4502 C 61.2425 15.567, 61.2912 15.6707, 61.3571 15.7623, 61.4235 15.8539, 61.5128 15.9151, 61.6256 15.9449, 61.7893 16.0067, 62.0051 16.0417, 62.2725 16.0508, 62.5399 16.06, 62.8336 16.0646, 63.1542 16.064 L 63.1542 16.8334 Z M 55.8987 6.04277 L 53.8417 11.7862, 57.9271 11.7862 Z" stroke="none" fill="#E50500" />
			<rect />
		</svg>
	</g>
	<ellipse cx="1069.0016117095947" cy="402.61440467834473" rx="7.3500003814697266" ry="7.3500003814697266" stroke="none" fill="#E50500" transform="matrix(0.357143 0 0 0.357143 -264.536 -85.7476)" />
	<g transform="matrix(1 0 -0 1 97.8159 69.6381)">
		<svg width="162.021881" height="86.8723221">
			<defs />
			<polyline points="-4.07092 0 4.07092 0" fill="none" stroke="#E50500" stroke-width="0.750400007" stroke-linecap="round" stroke-linejoin="round" transform="matrix(1 0 0 1 4.07092 11.2074)" />
			<path d="M 22.0861 13.3826 C 22.0861 13.8977, 21.9722 14.392, 21.7444 14.8644, 21.5167 15.3374, 21.2114 15.7413, 20.8288 16.0757, 20.3973 16.4533, 19.921 16.7327, 19.4003 16.9151, 18.8797 17.098, 18.3354 17.1888, 17.7682 17.1888, 17.2565 17.1888, 16.7577 17.117, 16.2707 16.9734, 15.7837 16.8298, 15.345 16.6239, 14.9534 16.3546, 14.5618 16.0852, 14.2492 15.7548, 14.0147 15.3626, 13.7802 14.971, 13.6629 14.5204, 13.6629 14.011, 13.6629 13.6284, 13.7909 13.3428, 14.0467 13.1543, 14.3026 12.9658, 14.5724 12.8715, 14.8558 12.8709, 15.152 12.8715, 15.4275 12.9658, 15.6833 13.1543, 15.9392 13.3428, 16.0671 13.6284, 16.0671 14.011, 16.0671 14.2388, 16.0228 14.429, 15.933 14.5816, 15.8438 14.7342, 15.7299 14.8616, 15.5907 14.9631, 15.4522 15.0652, 15.2934 15.1275, 15.1144 15.1511, 15.0224 15.1758, 14.936 15.1875, 14.8558 15.187, 14.7761 15.1875, 14.7637 15.1937, 14.8187 15.2049, 15.01 15.5405, 15.386 15.8373, 15.947 16.0942, 16.5081 16.3517, 17.1151 16.4802, 17.7682 16.4797, 18.0768 16.4802, 18.3646 16.4039, 18.6328 16.2513, 18.901 16.0987, 19.1249 15.8939, 19.3033 15.6358, 19.5255 15.3014, 19.6764 14.9424, 19.7566 14.5592, 19.8368 14.1765, 19.8767 13.7843, 19.8767 13.3826, 19.8767 12.9702, 19.8368 12.5741, 19.7566 12.1937, 19.6764 11.8139, 19.5255 11.4621, 19.3033 11.1384, 19.1181 10.8758, 18.8931 10.6632, 18.6283 10.5016, 18.3635 10.34, 18.0768 10.2592, 17.7682 10.2586 L 16.4278 10.2586 C 16.2494 10.2592, 16.1535 10.1756, 16.1411 10.0073 L 16.1411 9.90854 C 16.1411 9.83728, 16.163 9.78062, 16.2057 9.73798, 16.2612 9.68468, 16.3319 9.65775, 16.4183 9.65718, 16.5973 9.63362, 16.7824 9.62184, 16.9732 9.62128, 17.1583 9.62184, 17.3401 9.61005, 17.5185 9.58537, 17.8518 9.5618, 18.1413 9.45913, 18.3882 9.27623, 18.6351 9.09388, 18.8415 8.86048, 19.0076 8.57602, 19.1737 8.29213, 19.2999 7.96447, 19.3863 7.59305, 19.4727 7.22219, 19.5159 6.84179, 19.5159 6.45241, 19.5159 6.16571, 19.4851 5.8936, 19.4233 5.63607, 19.3616 5.37911, 19.2477 5.15412, 19.0811 4.96224, 18.736 4.56781, 18.2984 4.37313, 17.7682 4.37874, 17.2015 4.3793, 16.682 4.4859, 16.2107 4.69798, 15.7394 4.91062, 15.423 5.13953, 15.2625 5.38415, 15.2199 5.39089, 15.2412 5.39369, 15.3276 5.39313, 15.5498 5.39369, 15.7591 5.45934, 15.956 5.59062, 16.2522 5.76455, 16.3998 6.05799, 16.3998 6.47037, 16.3998 6.81822, 16.2876 7.08024, 16.0626 7.25641, 15.8376 7.43314, 15.5863 7.52123, 15.3091 7.52067, 15.0375 7.52123, 14.7834 7.43483, 14.5461 7.2609, 14.3087 7.08753, 14.1898 6.82383, 14.1898 6.47037, 14.1898 6.03386, 14.2947 5.64841, 14.5045 5.3129, 14.7144 4.97795, 14.9837 4.69069, 15.3136 4.45111, 15.6435 4.2121, 16.0239 4.0292, 16.4553 3.90352, 16.8874 3.77784, 17.325 3.715, 17.7682 3.71444, 18.2429 3.715, 18.7024 3.77784, 19.1462 3.90352, 19.59 4.0292, 20.0091 4.22388, 20.4035 4.48646, 20.7244 4.71425, 20.9937 4.99422, 21.2126 5.32637, 21.4314 5.65851, 21.5408 6.03386, 21.5408 6.45241, 21.5408 6.87208, 21.4656 7.26707, 21.3147 7.63793, 21.1637 8.00935, 20.9634 8.34431, 20.7138 8.64335, 20.4641 8.94296, 20.1667 9.20609, 19.8211 9.43332, 19.4761 9.66111, 19.2169 9.80418, 19.0441 9.86365, 19.1922 9.88217, 19.4452 9.97082, 19.8026 10.129, 20.1606 10.2878, 20.5023 10.4988, 20.8288 10.7613, 21.2114 11.0913, 21.5167 11.4846, 21.7444 11.9424, 21.9722 12.4002, 22.0861 12.8805, 22.0861 13.3826 Z" stroke="none" fill="#E50500" />
			<path d="M 38.8084 4.57714 C 38.5193 4.57772, 38.2645 4.59947, 38.0447 4.64184, 37.8248 4.68478, 37.6199 4.75806, 37.4309 4.86111, 37.1166 5.05118, 36.8779 5.33801, 36.7142 5.72216 L 32.3465 16.98 C 32.2652 17.1575, 32.1266 17.2428, 31.9314 17.2365 L 31.7808 17.2365 C 31.5862 17.2365, 31.4476 17.1512, 31.3658 16.98 L 26.7908 5.19087 C 26.7405 5.07523, 26.6838 4.9716, 26.6208 4.88, 26.5578 4.7884, 26.4668 4.72142, 26.3471 4.67791, 26.2029 4.62352, 26.0002 4.59317, 25.7391 4.58688, 25.4781 4.58115, 25.1998 4.57772, 24.9038 4.57714 L 24.9038 3.81685 C 25.7157 3.86036, 26.492 3.88154, 27.234 3.88097, 27.3473 3.88154, 27.4704 3.87525, 27.6021 3.86265, 28.4637 3.86322, 29.366 3.8512, 30.3095 3.82601 L 30.3095 4.57714 C 30.0267 4.57772, 29.7748 4.58401, 29.5549 4.59604, 29.3351 4.60863, 29.1364 4.65386, 28.9601 4.73287, 28.8788 4.77638, 28.8158 4.8342, 28.7717 4.90691, 28.7402 4.95615, 28.7242 5.00195, 28.7242 5.04431, 28.7242 5.0695, 28.7276 5.09698, 28.7339 5.12675 L 32.4318 14.5984, 35.9218 5.64888 C 35.9533 5.57617, 35.9687 5.49373, 35.9687 5.40156, 35.9687 5.22522, 35.884 5.06034, 35.7146 4.90691, 35.5703 4.77924, 35.4083 4.69222, 35.2285 4.64642, 35.0493 4.60062, 34.8214 4.57772, 34.5443 4.57714 L 34.5443 3.82601 C 35.3058 3.8512, 36.0226 3.86322, 36.6953 3.86265, 36.7834 3.87525, 36.8779 3.88154, 36.9781 3.88097, 37.5569 3.88154, 38.1672 3.86036, 38.8084 3.81685 L 38.8084 4.57714 Z" stroke="none" fill="#E50500" />
			<rect />
		</svg>
	</g>
	<g transform="matrix(1 0 -0 1 97.679 132.213)">
		<svg width="164.892319" height="86.8723221">
			<defs />
			<polyline points="-4.07092 0 4.07092 0" fill="none" stroke="#E50500" stroke-width="0.750400007" stroke-linecap="round" stroke-linejoin="round" transform="matrix(1 0 0 1 4.07092 11.2074)" />
			<path d="M 20.6594 13.5711 L 20.6594 15.3935 C 20.6594 15.5017, 20.6796 15.6022, 20.72 15.6947, 20.7604 15.7879, 20.8266 15.849, 20.9186 15.8782, 21.0606 15.9444, 21.2917 15.9809, 21.6121 15.9865, 21.9325 15.9927, 22.2556 15.9955, 22.5822 15.9949 L 22.5822 16.7669 C 21.6396 16.731, 20.7155 16.7131, 19.8089 16.7131, 18.9156 16.7131, 17.9759 16.731, 16.9895 16.7669 L 16.9895 15.9949 C 17.3284 15.9955, 17.6555 15.9927, 17.9697 15.9865, 18.2839 15.9809, 18.5184 15.9444, 18.6721 15.8782, 18.7647 15.849, 18.8326 15.7879, 18.8758 15.6947, 18.919 15.6022, 18.9403 15.5017, 18.9403 15.3935 L 18.9403 13.5711, 13.6709 13.5711, 13.6709 12.844, 19.8459 3.66058 C 19.9267 3.55342, 20.0282 3.49956, 20.1511 3.49899 L 20.3548 3.49899 C 20.5579 3.49956, 20.6594 3.60111, 20.6594 3.80421 L 20.6594 12.7812, 22.6473 12.7812, 22.6473 13.5711 Z M 19.0323 6.02152 L 14.4844 12.7812, 19.0323 12.7812 Z" stroke="none" fill="#E50500" />
			<path d="M 39.0821 4.57714 C 38.7929 4.57772, 38.5382 4.59947, 38.3183 4.64184, 38.0985 4.68478, 37.8935 4.75806, 37.7046 4.86111, 37.3903 5.05118, 37.1515 5.33801, 36.9878 5.72216 L 32.6201 16.98 C 32.5388 17.1575, 32.4003 17.2428, 32.2051 17.2365 L 32.0545 17.2365 C 31.8598 17.2365, 31.7213 17.1512, 31.6394 16.98 L 27.0645 5.19087 C 27.0141 5.07523, 26.9574 4.9716, 26.8945 4.88, 26.8315 4.7884, 26.7405 4.72142, 26.6208 4.67791, 26.4765 4.62352, 26.2739 4.59317, 26.0128 4.58688, 25.7517 4.58115, 25.4735 4.57772, 25.1775 4.57714 L 25.1775 3.81685 C 25.9893 3.86036, 26.7656 3.88154, 27.5076 3.88097, 27.621 3.88154, 27.7441 3.87525, 27.8757 3.86265, 28.7374 3.86322, 29.6396 3.8512, 30.5831 3.82601 L 30.5831 4.57714 C 30.3003 4.57772, 30.0484 4.58401, 29.8286 4.59604, 29.6087 4.60863, 29.4101 4.65386, 29.2337 4.73287, 29.1524 4.77638, 29.0895 4.8342, 29.0454 4.90691, 29.0139 4.95615, 28.9979 5.00195, 28.9979 5.04431, 28.9979 5.0695, 29.0013 5.09698, 29.0076 5.12675 L 32.7054 14.5984, 36.1955 5.64888 C 36.2269 5.57617, 36.2424 5.49373, 36.2424 5.40156, 36.2424 5.22522, 36.1577 5.06034, 35.9882 4.90691, 35.8439 4.77924, 35.6819 4.69222, 35.5021 4.64642, 35.323 4.60062, 35.0951 4.57772, 34.818 4.57714 L 34.818 3.82601 C 35.5794 3.8512, 36.2962 3.86322, 36.9689 3.86265, 37.0571 3.87525, 37.1515 3.88154, 37.2517 3.88097, 37.8305 3.88154, 38.4408 3.86036, 39.0821 3.81685 L 39.0821 4.57714 Z" stroke="none" fill="#E50500" />
			<rect />
		</svg>
	</g>
	<g transform="matrix(1 0 -0 1 192.05 85.8551)">
		<svg width="162.021881" height="86.8723221">
			<defs />
			<polyline points="-4.07092 0 4.07092 0" fill="none" stroke="#E50500" stroke-width="0.750400007" stroke-linecap="round" stroke-linejoin="round" transform="matrix(1 0 0 1 4.07092 11.2074)" />
			<path d="M 22.0844 12.7632 C 22.0844 13.386, 21.9924 13.9442, 21.8073 14.438, 21.6221 14.9317, 21.3079 15.4181, 20.8641 15.8962, 20.4265 16.3456, 19.9782 16.6732, 19.5193 16.8791, 19.0603 17.0856, 18.5071 17.1888, 17.8597 17.1888, 17.2004 17.1888, 16.5967 17.0261, 16.048 16.6996, 15.4993 16.3742, 15.0617 15.9326, 14.7351 15.3755, 14.2728 14.6158, 13.9788 13.8141, 13.8526 12.9702, 13.7263 12.1264, 13.6629 11.2854, 13.6629 10.4472, 13.6629 9.61005, 13.7847 8.78586, 14.0282 7.97457, 14.2717 7.16384, 14.6611 6.41426, 15.1974 5.72528, 15.6474 5.13953, 16.1961 4.65758, 16.843 4.28055, 17.4905 3.90352, 18.2019 3.715, 18.9784 3.71444, 19.7246 3.715, 20.344 3.90689, 20.8366 4.28953, 21.3298 4.67273, 21.5761 5.22313, 21.5761 5.94073, 21.5761 6.27624, 21.4746 6.52479, 21.2709 6.68637, 21.0678 6.84796, 20.8333 6.92875, 20.5685 6.92819, 20.316 6.92875, 20.0893 6.84796, 19.889 6.68637, 19.6887 6.52479, 19.5883 6.27624, 19.5883 5.94073, 19.5883 5.58221, 19.7213 5.3129, 19.9861 5.1328, 20.1589 5.02564, 20.353 4.97178, 20.5685 4.97122, 20.6364 4.97178, 20.6453 4.96897, 20.596 4.96224, 20.5101 4.83095, 20.3205 4.70135, 20.0276 4.5723, 19.7347 4.44382, 19.3852 4.3793, 18.9784 4.37874, 18.4297 4.3793, 17.9371 4.54257, 17.4995 4.86854, 17.0618 5.19508, 16.6921 5.60297, 16.3897 6.09333, 16.0329 6.71611, 15.8168 7.39443, 15.7428 8.12718, 15.6687 8.86048, 15.6255 9.4451, 15.6132 9.88161, 15.7243 9.62464, 15.9913 9.30933, 16.4133 8.9351, 16.8352 8.56143, 17.3699 8.37404, 18.0168 8.37348, 18.6334 8.37404, 19.1653 8.47728, 19.6119 8.68375, 20.0585 8.89022, 20.4882 9.2117, 20.9012 9.64821, 21.3326 10.1274, 21.6378 10.6093, 21.8163 11.0941, 21.9952 11.5788, 22.0844 12.1354, 22.0844 12.7632 Z M 20.1151 12.7632 C 20.1151 12.1892, 20.0972 11.6731, 20.0601 11.2152, 20.0231 10.7574, 19.9002 10.3551, 19.6904 10.0073, 19.475 9.65494, 19.2343 9.39461, 18.9694 9.22685, 18.7046 9.05966, 18.3809 8.9755, 17.9982 8.97494, 17.5853 8.9755, 17.233 9.08041, 16.9401 9.28969, 16.6472 9.49953, 16.3992 9.77445, 16.1961 10.1156, 15.993 10.4567, 15.8477 10.8545, 15.7613 11.3089, 15.6996 11.6209, 15.6687 11.953, 15.6687 12.3054, 15.6687 12.4434, 15.6749 12.5904, 15.6872 12.7453 L 15.6872 12.8171 C 15.7119 13.2665, 15.7462 13.6856, 15.7894 14.0744, 15.8326 14.4638, 15.9004 14.7808, 15.9925 15.0254, 16.1653 15.4569, 16.4194 15.807, 16.7549 16.0763, 17.091 16.3456, 17.4591 16.4802, 17.8597 16.4797, 18.2726 16.4802, 18.621 16.4011, 18.9044 16.2423, 19.1883 16.0841, 19.4379 15.8277, 19.6534 15.4742, 19.8756 15.1219, 20.008 14.7224, 20.0506 14.2764, 20.0938 13.8309, 20.1151 13.3265, 20.1151 12.7632 Z" stroke="none" fill="#E50500" />
			<path d="M 38.8084 4.57714 C 38.5193 4.57772, 38.2645 4.59947, 38.0447 4.64184, 37.8248 4.68478, 37.6199 4.75806, 37.4309 4.86111, 37.1166 5.05118, 36.8779 5.33801, 36.7142 5.72216 L 32.3465 16.98 C 32.2652 17.1575, 32.1266 17.2428, 31.9314 17.2365 L 31.7808 17.2365 C 31.5862 17.2365, 31.4476 17.1512, 31.3658 16.98 L 26.7908 5.19087 C 26.7405 5.07523, 26.6838 4.9716, 26.6208 4.88, 26.5578 4.7884, 26.4668 4.72142, 26.3471 4.67791, 26.2029 4.62352, 26.0002 4.59317, 25.7391 4.58688, 25.4781 4.58115, 25.1998 4.57772, 24.9038 4.57714 L 24.9038 3.81685 C 25.7157 3.86036, 26.492 3.88154, 27.234 3.88097, 27.3473 3.88154, 27.4704 3.87525, 27.6021 3.86265, 28.4637 3.86322, 29.366 3.8512, 30.3095 3.82601 L 30.3095 4.57714 C 30.0267 4.57772, 29.7748 4.58401, 29.5549 4.59604, 29.3351 4.60863, 29.1364 4.65386, 28.9601 4.73287, 28.8788 4.77638, 28.8158 4.8342, 28.7717 4.90691, 28.7402 4.95615, 28.7242 5.00195, 28.7242 5.04431, 28.7242 5.0695, 28.7276 5.09698, 28.7339 5.12675 L 32.4318 14.5984, 35.9218 5.64888 C 35.9533 5.57617, 35.9687 5.49373, 35.9687 5.40156, 35.9687 5.22522, 35.884 5.06034, 35.7146 4.90691, 35.5703 4.77924, 35.4083 4.69222, 35.2285 4.64642, 35.0493 4.60062, 34.8214 4.57772, 34.5443 4.57714 L 34.5443 3.82601 C 35.3058 3.8512, 36.0226 3.86322, 36.6953 3.86265, 36.7834 3.87525, 36.8779 3.88154, 36.9781 3.88097, 37.5569 3.88154, 38.1672 3.86036, 38.8084 3.81685 L 38.8084 4.57714 Z" stroke="none" fill="#E50500" />
			<rect />
		</svg>
	</g>
	<ellipse cx="1332.8585453033447" cy="554.06496620178223" rx="7.3500003814697266" ry="7.3500003814697266" stroke="none" fill="#E50500" transform="matrix(0.357143 0 0 0.357143 -264.536 -85.7476)" />
	<g transform="matrix(1 0 -0 1 272.096 27.6354)">
		<svg width="162.021881" height="86.8723221">
			<defs />
			<polyline points="-4.07092 0 4.07092 0" fill="none" stroke="#E50500" stroke-width="0.750400007" stroke-linecap="round" stroke-linejoin="round" transform="matrix(1 0 0 1 4.07092 11.2074)" />
			<path d="M 22.0861 13.3826 C 22.0861 13.8977, 21.9722 14.392, 21.7444 14.8644, 21.5167 15.3374, 21.2114 15.7413, 20.8288 16.0757, 20.3973 16.4533, 19.921 16.7327, 19.4003 16.9151, 18.8797 17.098, 18.3354 17.1888, 17.7682 17.1888, 17.2565 17.1888, 16.7577 17.117, 16.2707 16.9734, 15.7837 16.8298, 15.345 16.6239, 14.9534 16.3546, 14.5618 16.0852, 14.2492 15.7548, 14.0147 15.3626, 13.7802 14.971, 13.6629 14.5204, 13.6629 14.011, 13.6629 13.6284, 13.7909 13.3428, 14.0467 13.1543, 14.3026 12.9658, 14.5724 12.8715, 14.8558 12.8709, 15.152 12.8715, 15.4275 12.9658, 15.6833 13.1543, 15.9392 13.3428, 16.0671 13.6284, 16.0671 14.011, 16.0671 14.2388, 16.0228 14.429, 15.933 14.5816, 15.8438 14.7342, 15.7299 14.8616, 15.5907 14.9631, 15.4522 15.0652, 15.2934 15.1275, 15.1144 15.1511, 15.0224 15.1758, 14.936 15.1875, 14.8558 15.187, 14.7761 15.1875, 14.7637 15.1937, 14.8187 15.2049, 15.01 15.5405, 15.386 15.8373, 15.947 16.0942, 16.5081 16.3517, 17.1151 16.4802, 17.7682 16.4797, 18.0768 16.4802, 18.3646 16.4039, 18.6328 16.2513, 18.901 16.0987, 19.1249 15.8939, 19.3033 15.6358, 19.5255 15.3014, 19.6764 14.9424, 19.7566 14.5592, 19.8368 14.1765, 19.8767 13.7843, 19.8767 13.3826, 19.8767 12.9702, 19.8368 12.5741, 19.7566 12.1937, 19.6764 11.8139, 19.5255 11.4621, 19.3033 11.1384, 19.1181 10.8758, 18.8931 10.6632, 18.6283 10.5016, 18.3635 10.34, 18.0768 10.2592, 17.7682 10.2586 L 16.4278 10.2586 C 16.2494 10.2592, 16.1535 10.1756, 16.1411 10.0073 L 16.1411 9.90854 C 16.1411 9.83728, 16.163 9.78062, 16.2057 9.73798, 16.2612 9.68468, 16.3319 9.65775, 16.4183 9.65718, 16.5973 9.63362, 16.7824 9.62184, 16.9732 9.62128, 17.1583 9.62184, 17.3401 9.61005, 17.5185 9.58537, 17.8518 9.5618, 18.1413 9.45913, 18.3882 9.27623, 18.6351 9.09388, 18.8415 8.86048, 19.0076 8.57602, 19.1737 8.29213, 19.2999 7.96447, 19.3863 7.59305, 19.4727 7.22219, 19.5159 6.84179, 19.5159 6.45241, 19.5159 6.16571, 19.4851 5.8936, 19.4233 5.63607, 19.3616 5.37911, 19.2477 5.15412, 19.0811 4.96224, 18.736 4.56781, 18.2984 4.37313, 17.7682 4.37874, 17.2015 4.3793, 16.682 4.4859, 16.2107 4.69798, 15.7394 4.91062, 15.423 5.13953, 15.2625 5.38415, 15.2199 5.39089, 15.2412 5.39369, 15.3276 5.39313, 15.5498 5.39369, 15.7591 5.45934, 15.956 5.59062, 16.2522 5.76455, 16.3998 6.05799, 16.3998 6.47037, 16.3998 6.81822, 16.2876 7.08024, 16.0626 7.25641, 15.8376 7.43314, 15.5863 7.52123, 15.3091 7.52067, 15.0375 7.52123, 14.7834 7.43483, 14.5461 7.2609, 14.3087 7.08753, 14.1898 6.82383, 14.1898 6.47037, 14.1898 6.03386, 14.2947 5.64841, 14.5045 5.3129, 14.7144 4.97795, 14.9837 4.69069, 15.3136 4.45111, 15.6435 4.2121, 16.0239 4.0292, 16.4553 3.90352, 16.8874 3.77784, 17.325 3.715, 17.7682 3.71444, 18.2429 3.715, 18.7024 3.77784, 19.1462 3.90352, 19.59 4.0292, 20.0091 4.22388, 20.4035 4.48646, 20.7244 4.71425, 20.9937 4.99422, 21.2126 5.32637, 21.4314 5.65851, 21.5408 6.03386, 21.5408 6.45241, 21.5408 6.87208, 21.4656 7.26707, 21.3147 7.63793, 21.1637 8.00935, 20.9634 8.34431, 20.7138 8.64335, 20.4641 8.94296, 20.1667 9.20609, 19.8211 9.43332, 19.4761 9.66111, 19.2169 9.80418, 19.0441 9.86365, 19.1922 9.88217, 19.4452 9.97082, 19.8026 10.129, 20.1606 10.2878, 20.5023 10.4988, 20.8288 10.7613, 21.2114 11.0913, 21.5167 11.4846, 21.7444 11.9424, 21.9722 12.4002, 22.0861 12.8805, 22.0861 13.3826 Z" stroke="none" fill="#E50500" />
			<path d="M 38.8084 4.57714 C 38.5193 4.57772, 38.2645 4.59947, 38.0447 4.64184, 37.8248 4.68478, 37.6199 4.75806, 37.4309 4.86111, 37.1166 5.05118, 36.8779 5.33801, 36.7142 5.72216 L 32.3465 16.98 C 32.2652 17.1575, 32.1266 17.2428, 31.9314 17.2365 L 31.7808 17.2365 C 31.5862 17.2365, 31.4476 17.1512, 31.3658 16.98 L 26.7908 5.19087 C 26.7405 5.07523, 26.6838 4.9716, 26.6208 4.88, 26.5578 4.7884, 26.4668 4.72142, 26.3471 4.67791, 26.2029 4.62352, 26.0002 4.59317, 25.7391 4.58688, 25.4781 4.58115, 25.1998 4.57772, 24.9038 4.57714 L 24.9038 3.81685 C 25.7157 3.86036, 26.492 3.88154, 27.234 3.88097, 27.3473 3.88154, 27.4704 3.87525, 27.6021 3.86265, 28.4637 3.86322, 29.366 3.8512, 30.3095 3.82601 L 30.3095 4.57714 C 30.0267 4.57772, 29.7748 4.58401, 29.5549 4.59604, 29.3351 4.60863, 29.1364 4.65386, 28.9601 4.73287, 28.8788 4.77638, 28.8158 4.8342, 28.7717 4.90691, 28.7402 4.95615, 28.7242 5.00195, 28.7242 5.04431, 28.7242 5.0695, 28.7276 5.09698, 28.7339 5.12675 L 32.4318 14.5984, 35.9218 5.64888 C 35.9533 5.57617, 35.9687 5.49373, 35.9687 5.40156, 35.9687 5.22522, 35.884 5.06034, 35.7146 4.90691, 35.5703 4.77924, 35.4083 4.69222, 35.2285 4.64642, 35.0493 4.60062, 34.8214 4.57772, 34.5443 4.57714 L 34.5443 3.82601 C 35.3058 3.8512, 36.0226 3.86322, 36.6953 3.86265, 36.7834 3.87525, 36.8779 3.88154, 36.9781 3.88097, 37.5569 3.88154, 38.1672 3.86036, 38.8084 3.81685 L 38.8084 4.57714 Z" stroke="none" fill="#E50500" />
			<rect />
		</svg>
	</g>
	<g transform="matrix(1 0 -0 1 271.96 174.152)">
		<svg width="164.892319" height="86.8723221">
			<defs />
			<polyline points="-4.07092 0 4.07092 0" fill="none" stroke="#E50500" stroke-width="0.750400007" stroke-linecap="round" stroke-linejoin="round" transform="matrix(1 0 0 1 4.07092 11.2074)" />
			<path d="M 20.6594 13.5711 L 20.6594 15.3935 C 20.6594 15.5017, 20.6796 15.6022, 20.72 15.6947, 20.7604 15.7879, 20.8266 15.849, 20.9186 15.8782, 21.0606 15.9444, 21.2917 15.9809, 21.6121 15.9865, 21.9325 15.9927, 22.2556 15.9955, 22.5822 15.9949 L 22.5822 16.7669 C 21.6396 16.731, 20.7155 16.7131, 19.8089 16.7131, 18.9156 16.7131, 17.9759 16.731, 16.9895 16.7669 L 16.9895 15.9949 C 17.3284 15.9955, 17.6555 15.9927, 17.9697 15.9865, 18.2839 15.9809, 18.5184 15.9444, 18.6721 15.8782, 18.7647 15.849, 18.8326 15.7879, 18.8758 15.6947, 18.919 15.6022, 18.9403 15.5017, 18.9403 15.3935 L 18.9403 13.5711, 13.6709 13.5711, 13.6709 12.844, 19.8459 3.66058 C 19.9267 3.55342, 20.0282 3.49956, 20.1511 3.49899 L 20.3548 3.49899 C 20.5579 3.49956, 20.6594 3.60111, 20.6594 3.80421 L 20.6594 12.7812, 22.6473 12.7812, 22.6473 13.5711 Z M 19.0323 6.02152 L 14.4844 12.7812, 19.0323 12.7812 Z" stroke="none" fill="#E50500" />
			<path d="M 39.0821 4.57714 C 38.7929 4.57772, 38.5382 4.59947, 38.3183 4.64184, 38.0985 4.68478, 37.8935 4.75806, 37.7046 4.86111, 37.3903 5.05118, 37.1515 5.33801, 36.9878 5.72216 L 32.6201 16.98 C 32.5388 17.1575, 32.4003 17.2428, 32.2051 17.2365 L 32.0545 17.2365 C 31.8598 17.2365, 31.7213 17.1512, 31.6394 16.98 L 27.0645 5.19087 C 27.0141 5.07523, 26.9574 4.9716, 26.8945 4.88, 26.8315 4.7884, 26.7405 4.72142, 26.6208 4.67791, 26.4765 4.62352, 26.2739 4.59317, 26.0128 4.58688, 25.7517 4.58115, 25.4735 4.57772, 25.1775 4.57714 L 25.1775 3.81685 C 25.9893 3.86036, 26.7656 3.88154, 27.5076 3.88097, 27.621 3.88154, 27.7441 3.87525, 27.8757 3.86265, 28.7374 3.86322, 29.6396 3.8512, 30.5831 3.82601 L 30.5831 4.57714 C 30.3003 4.57772, 30.0484 4.58401, 29.8286 4.59604, 29.6087 4.60863, 29.4101 4.65386, 29.2337 4.73287, 29.1524 4.77638, 29.0895 4.8342, 29.0454 4.90691, 29.0139 4.95615, 28.9979 5.00195, 28.9979 5.04431, 28.9979 5.0695, 29.0013 5.09698, 29.0076 5.12675 L 32.7054 14.5984, 36.1955 5.64888 C 36.2269 5.57617, 36.2424 5.49373, 36.2424 5.40156, 36.2424 5.22522, 36.1577 5.06034, 35.9882 4.90691, 35.8439 4.77924, 35.6819 4.69222, 35.5021 4.64642, 35.323 4.60062, 35.0951 4.57772, 34.818 4.57714 L 34.818 3.82601 C 35.5794 3.8512, 36.2962 3.86322, 36.9689 3.86265, 37.0571 3.87525, 37.1515 3.88154, 37.2517 3.88097, 37.8305 3.88154, 38.4408 3.86036, 39.0821 3.81685 L 39.0821 4.57714 Z" stroke="none" fill="#E50500" />
			<rect />
		</svg>
	</g>
</svg>
