<?xml version="1.0"?>
<svg xmlns="http://www.w3.org/2000/svg" xmlns:xlink="http://www.w3.org/1999/xlink" width="265.768066" height="222.588852">
	<defs />
	<path d="M 0 -32.7819 L 0 32.7819" fill="none" stroke="#000000" stroke-width="4.53333378" stroke-linecap="round" stroke-linejoin="round" transform="matrix(0.294118 0 0 0.294118 102.735 146.642)" />
	<g transform="matrix(1 0 -0 1 25.5883 27.5428)">
		<svg width="75.0478287" height="45.2233963">
			<defs />
			<path d="M 6.82472 16.7669 C 5.69082 16.731, 4.58721 16.7131, 3.51447 16.7131, 2.44228 16.7131, 1.33868 16.731, 0.204215 16.7669 L 0.204215 15.9949, 0.842701 15.9949 C 1.0458 15.9955, 1.23713 15.9927, 1.41554 15.9865, 1.59452 15.9809, 1.76396 15.9657, 1.92442 15.9416, 2.08489 15.918, 2.22347 15.8939, 2.34017 15.8692, 2.43892 15.8518, 2.52083 15.7969, 2.58535 15.7037, 2.65043 15.6111, 2.68242 15.5079, 2.68242 15.3935 L 2.68242 5.27643 C 2.37439 5.4268, 1.99512 5.54069, 1.54515 5.61812, 1.09518 5.6961, 0.602006 5.73482, 0.0656334 5.73426 L 0.0656334 4.97122 C 0.805671 4.97178, 1.48848 4.88369, 2.11406 4.70696, 2.73964 4.53078, 3.2805 4.19976, 3.73665 3.71444 L 4.02335 3.71444 C 4.22645 3.715, 4.328 3.81375, 4.328 4.01068 L 4.328 15.3935 C 4.328 15.5135, 4.35886 15.6184, 4.42058 15.7082, 4.48229 15.798, 4.57206 15.8518, 4.68876 15.8692, 4.78751 15.8939, 4.91431 15.918, 5.06804 15.9416, 5.22233 15.9657, 5.39626 15.9809, 5.59039 15.9865, 5.78451 15.9927, 5.97415 15.9955, 6.15874 15.9949 L 6.82472 15.9949, 6.82472 16.7669 Z" stroke="none" fill="#000000" />
			<path d="M 22.6441 16.6044 C 22.6063 16.751, 22.5027 16.8243, 22.3327 16.8243 L 19.2096 16.8243 C 19.0024 16.8243, 18.8982 16.7241, 18.8982 16.522, 18.8982 15.7714, 19.0098 15.0478, 19.2331 14.3516, 19.4564 13.6554, 19.7003 12.9673, 19.9642 12.286, 20.2287 11.6053, 20.4675 10.9257, 20.6816 10.2479, 20.8957 9.57, 21.0022 8.88013, 21.0022 8.17708, 21.0022 7.62805, 20.9174 7.09561, 20.7474 6.57921, 20.5779 6.06338, 20.3106 5.60995, 19.9453 5.21893, 19.5806 4.82848, 19.1501 4.52905, 18.6532 4.32123, 18.1562 4.11398, 17.6375 4.00979, 17.0959 4.00921, 16.5555 4.00979, 16.0362 4.11398, 15.5393 4.32123, 15.0423 4.52905, 14.6135 4.82848, 14.2517 5.21893, 13.8899 5.60995, 13.6225 6.06338, 13.4496 6.57921, 13.2767 7.09561, 13.1903 7.62805, 13.1903 8.17708, 13.1903 8.88013, 13.2991 9.57, 13.516 10.2479, 13.733 10.9257, 13.9735 11.6053, 14.2374 12.286, 14.5019 12.9673, 14.7452 13.6571, 14.9685 14.3562, 15.1918 15.0558, 15.3034 15.7777, 15.3034 16.522, 15.3034 16.7241, 15.2061 16.8243, 15.0109 16.8243 L 11.8598 16.8243 C 11.6966 16.8243, 11.5958 16.751, 11.5581 16.6044 L 10.8974 13.9846 C 10.8974 13.8203, 10.9855 13.7167, 11.1613 13.6732 L 11.2655 13.6732 C 11.4292 13.6738, 11.5294 13.7499, 11.5672 13.9022, 11.668 14.3241, 11.7613 14.6722, 11.846 14.947, 11.9308 15.2218, 11.9892 15.3684, 12.0201 15.3861, 12.083 15.4354, 12.2342 15.4663, 12.4729 15.4783, 12.7122 15.4909, 12.9985 15.4966, 13.3317 15.496 L 14.5391 15.496 C 14.4074 14.947, 14.1572 14.3825, 13.7891 13.802, 13.4216 13.222, 13.0391 12.6387, 12.643 12.0524, 12.2468 11.4662, 11.8964 10.8587, 11.5913 10.2295, 11.2861 9.60092, 11.1333 8.91677, 11.1333 8.17708, 11.1333 7.49351, 11.2941 6.86203, 11.6147 6.28151, 11.9353 5.70155, 12.3664 5.20347, 12.9069 4.78783, 13.492 4.31837, 14.1464 3.96857, 14.8695 3.73956, 15.5931 3.51056, 16.3351 3.39606, 17.0959 3.39548, 17.8574 3.39606, 18.5994 3.51056, 19.323 3.73956, 20.0467 3.96857, 20.7102 4.31837, 21.3136 4.78783, 21.842 5.21606, 22.2697 5.71816, 22.5966 6.29525, 22.9241 6.87234, 23.0873 7.49981, 23.0873 8.17708, 23.0873 8.91677, 22.935 9.60092, 22.6298 10.2295, 22.3252 10.8587, 21.9714 11.4662, 21.5684 12.0524, 21.1659 12.6387, 20.7789 13.222, 20.4079 13.802, 20.0369 14.3825, 19.7856 14.947, 19.6528 15.496 L 20.8699 15.496 C 21.2037 15.4966, 21.49 15.4909, 21.7287 15.4783, 21.968 15.4663, 22.1186 15.4354, 22.1815 15.3861, 22.201 15.3747, 22.2543 15.2281, 22.3424 14.947, 22.4306 14.6665, 22.5245 14.3178, 22.6252 13.9022, 22.663 13.7562, 22.7667 13.68, 22.9361 13.6732 L 23.0403 13.6732 C 23.2103 13.7104, 23.2951 13.814, 23.2951 13.9846 Z" stroke="none" fill="#000000" />
			<rect />
		</svg>
	</g>
	<ellipse cx="792.09431171417236" cy="523.99097919464111" rx="8.9250001907348633" ry="8.9250001907348633" stroke="none" fill="#000000" transform="matrix(0.294118 0 0 0.294118 -224.469 -71.0585)" />
	<g transform="matrix(1 0 -0 1 25.211 117.019)">
		<svg width="77.9182587" height="45.2233963">
			<defs />
			<path d="M 7.60602 16.7669 L 0.079969 16.7669, 0.079969 16.2732 C 0.079969 16.2379, 0.098484 16.184, 0.135514 16.1116 L 3.15906 12.826 C 3.51646 12.4316, 3.87834 12.0277, 4.24528 11.6147, 4.61221 11.2018, 4.94099 10.7799, 5.2305 10.349, 5.52 9.91808, 5.75116 9.47372, 5.92396 9.01589, 6.09677 8.55807, 6.18261 8.0778, 6.18261 7.57453, 6.18261 7.15037, 6.12707 6.7537, 6.01598 6.38565, 5.90489 6.01759, 5.74499 5.69442, 5.53515 5.41613, 5.32588 5.13785, 5.06386 4.91343, 4.74967 4.74286, 4.43547 4.5723, 4.07135 4.48702, 3.65841 4.48646, 3.04236 4.48702, 2.49814 4.67105, 2.02628 5.0391, 1.55499 5.40716, 1.24192 5.8128, 1.08763 6.25492, 1.05733 6.26726, 1.10671 6.27343, 1.23575 6.27287 L 1.39285 6.27287 C 1.578 6.31551, 1.7379 6.38004, 1.87368 6.46644, 2.00945 6.5534, 2.12335 6.67291, 2.21592 6.82552, 2.3085 6.97812, 2.3545 7.16215, 2.3545 7.37704, 2.3545 7.73668, 2.2378 8.01216, 2.00328 8.20348, 1.76876 8.39536, 1.50674 8.49074, 1.21724 8.49018, 0.940073 8.49074, 0.680864 8.39536, 0.44073 8.20348, 0.200597 8.01216, 0.079969 7.73668, 0.079969 7.37704, 0.079969 6.87489, 0.178716 6.39911, 0.376208 5.95026, 0.573702 5.50142, 0.841327 5.1126, 1.18021 4.78326, 1.51909 4.45448, 1.91968 4.19415, 2.382 4.00226, 2.84431 3.81094, 3.33468 3.715, 3.85253 3.71444, 4.49382 3.715, 5.08125 3.80926, 5.61426 3.99778, 6.14727 4.18629, 6.60173 4.45728, 6.97763 4.81019, 7.35354 5.16366, 7.6481 5.57211, 7.86074 6.03554, 8.07338 6.49954, 8.17942 7.01235, 8.17942 7.57453, 8.17942 8.19731, 8.03804 8.77071, 7.75414 9.29418, 7.47081 9.81821, 7.11958 10.2985, 6.70047 10.735, 6.28136 11.172, 5.83588 11.5833, 5.36403 11.9693, 4.89274 12.3553, 4.46577 12.7307, 4.08369 13.0954 L 1.95671 15.0972, 4.74013 15.0972 C 5.12838 15.0978, 5.49083 15.095, 5.82634 15.0888, 6.16242 15.0832, 6.44743 15.0708, 6.68196 15.0529, 6.91648 15.0349, 7.03655 15.0232, 7.04216 15.0164, 7.09153 14.9749, 7.1381 14.8913, 7.1813 14.7656, 7.2245 14.64, 7.26434 14.4918, 7.30137 14.3213, 7.3384 14.1507, 7.37543 13.9773, 7.41246 13.8006, 7.44949 13.6244, 7.48315 13.4309, 7.51401 13.221 L 8.19794 13.221 Z" stroke="none" fill="#000000" />
			<path d="M 23.3987 16.6044 C 23.3609 16.751, 23.2573 16.8243, 23.0873 16.8243 L 19.9642 16.8243 C 19.757 16.8243, 19.6528 16.7241, 19.6528 16.522, 19.6528 15.7714, 19.7644 15.0478, 19.9877 14.3516, 20.211 13.6554, 20.4549 12.9673, 20.7188 12.286, 20.9833 11.6053, 21.222 10.9257, 21.4361 10.2479, 21.6503 9.57, 21.7567 8.88013, 21.7567 8.17708, 21.7567 7.62805, 21.672 7.09561, 21.502 6.57921, 21.3325 6.06338, 21.0652 5.60995, 20.6999 5.21893, 20.3352 4.82848, 19.9047 4.52905, 19.4077 4.32123, 18.9108 4.11398, 18.3921 4.00979, 17.8505 4.00921, 17.3101 4.00979, 16.7908 4.11398, 16.2939 4.32123, 15.7969 4.52905, 15.3681 4.82848, 15.0063 5.21893, 14.6445 5.60995, 14.3771 6.06338, 14.2042 6.57921, 14.0313 7.09561, 13.9448 7.62805, 13.9448 8.17708, 13.9448 8.88013, 14.0536 9.57, 14.2706 10.2479, 14.4876 10.9257, 14.728 11.6053, 14.992 12.286, 15.2565 12.9673, 15.4998 13.6571, 15.7231 14.3562, 15.9463 15.0558, 16.058 15.7777, 16.058 16.522, 16.058 16.7241, 15.9607 16.8243, 15.7654 16.8243 L 12.6143 16.8243 C 12.4512 16.8243, 12.3504 16.751, 12.3126 16.6044 L 11.6519 13.9846 C 11.6519 13.8203, 11.7401 13.7167, 11.9159 13.6732 L 12.0201 13.6732 C 12.1838 13.6738, 12.284 13.7499, 12.3218 13.9022, 12.4225 14.3241, 12.5159 14.6722, 12.6006 14.947, 12.6853 15.2218, 12.7437 15.3684, 12.7746 15.3861, 12.8376 15.4354, 12.9888 15.4663, 13.2275 15.4783, 13.4668 15.4909, 13.7531 15.4966, 14.0863 15.496 L 15.2937 15.496 C 15.162 14.947, 14.9118 14.3825, 14.5437 13.802, 14.1761 13.222, 13.7937 12.6387, 13.3975 12.0524, 13.0014 11.4662, 12.651 10.8587, 12.3458 10.2295, 12.0407 9.60092, 11.8878 8.91677, 11.8878 8.17708, 11.8878 7.49351, 12.0487 6.86203, 12.3693 6.28151, 12.6899 5.70155, 13.121 5.20347, 13.6615 4.78783, 14.2466 4.31837, 14.9009 3.96857, 15.624 3.73956, 16.3477 3.51056, 17.0896 3.39606, 17.8505 3.39548, 18.6119 3.39606, 19.3539 3.51056, 20.0776 3.73956, 20.8012 3.96857, 21.4648 4.31837, 22.0682 4.78783, 22.5966 5.21606, 23.0243 5.71816, 23.3512 6.29525, 23.6787 6.87234, 23.8418 7.49981, 23.8418 8.17708, 23.8418 8.91677, 23.6895 9.60092, 23.3844 10.2295, 23.0798 10.8587, 22.726 11.4662, 22.323 12.0524, 21.9205 12.6387, 21.5335 13.222, 21.1625 13.802, 20.7915 14.3825, 20.5402 14.947, 20.4073 15.496 L 21.6245 15.496 C 21.9583 15.4966, 22.2445 15.4909, 22.4833 15.4783, 22.7226 15.4663, 22.8731 15.4354, 22.9361 15.3861, 22.9556 15.3747, 23.0088 15.2281, 23.097 14.947, 23.1852 14.6665, 23.279 14.3178, 23.3798 13.9022, 23.4176 13.7562, 23.5212 13.68, 23.6907 13.6732 L 23.7949 13.6732 C 23.9649 13.7104, 24.0496 13.814, 24.0496 13.9846 Z" stroke="none" fill="#000000" />
			<rect />
		</svg>
	</g>
	<g transform="matrix(1 0 -0 1 156.067 117.019)">
		<svg width="75.0478287" height="45.2233963">
			<defs />
			<path d="M 6.82472 16.7669 C 5.69082 16.731, 4.58721 16.7131, 3.51447 16.7131, 2.44228 16.7131, 1.33868 16.731, 0.204215 16.7669 L 0.204215 15.9949, 0.842701 15.9949 C 1.0458 15.9955, 1.23713 15.9927, 1.41554 15.9865, 1.59452 15.9809, 1.76396 15.9657, 1.92442 15.9416, 2.08489 15.918, 2.22347 15.8939, 2.34017 15.8692, 2.43892 15.8518, 2.52083 15.7969, 2.58535 15.7037, 2.65043 15.6111, 2.68242 15.5079, 2.68242 15.3935 L 2.68242 5.27643 C 2.37439 5.4268, 1.99512 5.54069, 1.54515 5.61812, 1.09518 5.6961, 0.602006 5.73482, 0.0656334 5.73426 L 0.0656334 4.97122 C 0.805671 4.97178, 1.48848 4.88369, 2.11406 4.70696, 2.73964 4.53078, 3.2805 4.19976, 3.73665 3.71444 L 4.02335 3.71444 C 4.22645 3.715, 4.328 3.81375, 4.328 4.01068 L 4.328 15.3935 C 4.328 15.5135, 4.35886 15.6184, 4.42058 15.7082, 4.48229 15.798, 4.57206 15.8518, 4.68876 15.8692, 4.78751 15.8939, 4.91431 15.918, 5.06804 15.9416, 5.22233 15.9657, 5.39626 15.9809, 5.59039 15.9865, 5.78451 15.9927, 5.97415 15.9955, 6.15874 15.9949 L 6.82472 15.9949, 6.82472 16.7669 Z" stroke="none" fill="#000000" />
			<path d="M 22.6441 16.6044 C 22.6063 16.751, 22.5027 16.8243, 22.3327 16.8243 L 19.2096 16.8243 C 19.0024 16.8243, 18.8982 16.7241, 18.8982 16.522, 18.8982 15.7714, 19.0098 15.0478, 19.2331 14.3516, 19.4564 13.6554, 19.7003 12.9673, 19.9642 12.286, 20.2287 11.6053, 20.4675 10.9257, 20.6816 10.2479, 20.8957 9.57, 21.0022 8.88013, 21.0022 8.17708, 21.0022 7.62805, 20.9174 7.09561, 20.7474 6.57921, 20.5779 6.06338, 20.3106 5.60995, 19.9453 5.21893, 19.5806 4.82848, 19.1501 4.52905, 18.6532 4.32123, 18.1562 4.11398, 17.6375 4.00979, 17.0959 4.00921, 16.5555 4.00979, 16.0362 4.11398, 15.5393 4.32123, 15.0423 4.52905, 14.6135 4.82848, 14.2517 5.21893, 13.8899 5.60995, 13.6225 6.06338, 13.4496 6.57921, 13.2767 7.09561, 13.1903 7.62805, 13.1903 8.17708, 13.1903 8.88013, 13.2991 9.57, 13.516 10.2479, 13.733 10.9257, 13.9735 11.6053, 14.2374 12.286, 14.5019 12.9673, 14.7452 13.6571, 14.9685 14.3562, 15.1918 15.0558, 15.3034 15.7777, 15.3034 16.522, 15.3034 16.7241, 15.2061 16.8243, 15.0109 16.8243 L 11.8598 16.8243 C 11.6966 16.8243, 11.5958 16.751, 11.5581 16.6044 L 10.8974 13.9846 C 10.8974 13.8203, 10.9855 13.7167, 11.1613 13.6732 L 11.2655 13.6732 C 11.4292 13.6738, 11.5294 13.7499, 11.5672 13.9022, 11.668 14.3241, 11.7613 14.6722, 11.846 14.947, 11.9308 15.2218, 11.9892 15.3684, 12.0201 15.3861, 12.083 15.4354, 12.2342 15.4663, 12.4729 15.4783, 12.7122 15.4909, 12.9985 15.4966, 13.3317 15.496 L 14.5391 15.496 C 14.4074 14.947, 14.1572 14.3825, 13.7891 13.802, 13.4216 13.222, 13.0391 12.6387, 12.643 12.0524, 12.2468 11.4662, 11.8964 10.8587, 11.5913 10.2295, 11.2861 9.60092, 11.1333 8.91677, 11.1333 8.17708, 11.1333 7.49351, 11.2941 6.86203, 11.6147 6.28151, 11.9353 5.70155, 12.3664 5.20347, 12.9069 4.78783, 13.492 4.31837, 14.1464 3.96857, 14.8695 3.73956, 15.5931 3.51056, 16.3351 3.39606, 17.0959 3.39548, 17.8574 3.39606, 18.5994 3.51056, 19.323 3.73956, 20.0467 3.96857, 20.7102 4.31837, 21.3136 4.78783, 21.842 5.21606, 22.2697 5.71816, 22.5966 6.29525, 22.9241 6.87234, 23.0873 7.49981, 23.0873 8.17708, 23.0873 8.91677, 22.935 9.60092, 22.6298 10.2295, 22.3252 10.8587, 21.9714 11.4662, 21.5684 12.0524, 21.1659 12.6387, 20.7789 13.222, 20.4079 13.802, 20.0369 14.3825, 19.7856 14.947, 19.6528 15.496 L 20.8699 15.496 C 21.2037 15.4966, 21.49 15.4909, 21.7287 15.4783, 21.968 15.4663, 22.1186 15.4354, 22.1815 15.3861, 22.201 15.3747, 22.2543 15.2281, 22.3424 14.947, 22.4306 14.6665, 22.5245 14.3178, 22.6252 13.9022, 22.663 13.7562, 22.7667 13.68, 22.9361 13.6732 L 23.0403 13.6732 C 23.2103 13.7104, 23.2951 13.814, 23.2951 13.9846 Z" stroke="none" fill="#000000" />
			<rect />
		</svg>
	</g>
	<g transform="matrix(1 0 -0 1 156.067 27.5428)">
		<svg width="75.0478287" height="45.2233963">
			<defs />
			<path d="M 6.82472 16.7669 C 5.69082 16.731, 4.58721 16.7131, 3.51447 16.7131, 2.44228 16.7131, 1.33868 16.731, 0.204215 16.7669 L 0.204215 15.9949, 0.842701 15.9949 C 1.0458 15.9955, 1.23713 15.9927, 1.41554 15.9865, 1.59452 15.9809, 1.76396 15.9657, 1.92442 15.9416, 2.08489 15.918, 2.22347 15.8939, 2.34017 15.8692, 2.43892 15.8518, 2.52083 15.7969, 2.58535 15.7037, 2.65043 15.6111, 2.68242 15.5079, 2.68242 15.3935 L 2.68242 5.27643 C 2.37439 5.4268, 1.99512 5.54069, 1.54515 5.61812, 1.09518 5.6961, 0.602006 5.73482, 0.0656334 5.73426 L 0.0656334 4.97122 C 0.805671 4.97178, 1.48848 4.88369, 2.11406 4.70696, 2.73964 4.53078, 3.2805 4.19976, 3.73665 3.71444 L 4.02335 3.71444 C 4.22645 3.715, 4.328 3.81375, 4.328 4.01068 L 4.328 15.3935 C 4.328 15.5135, 4.35886 15.6184, 4.42058 15.7082, 4.48229 15.798, 4.57206 15.8518, 4.68876 15.8692, 4.78751 15.8939, 4.91431 15.918, 5.06804 15.9416, 5.22233 15.9657, 5.39626 15.9809, 5.59039 15.9865, 5.78451 15.9927, 5.97415 15.9955, 6.15874 15.9949 L 6.82472 15.9949, 6.82472 16.7669 Z" stroke="none" fill="#000000" />
			<path d="M 22.6441 16.6044 C 22.6063 16.751, 22.5027 16.8243, 22.3327 16.8243 L 19.2096 16.8243 C 19.0024 16.8243, 18.8982 16.7241, 18.8982 16.522, 18.8982 15.7714, 19.0098 15.0478, 19.2331 14.3516, 19.4564 13.6554, 19.7003 12.9673, 19.9642 12.286, 20.2287 11.6053, 20.4675 10.9257, 20.6816 10.2479, 20.8957 9.57, 21.0022 8.88013, 21.0022 8.17708, 21.0022 7.62805, 20.9174 7.09561, 20.7474 6.57921, 20.5779 6.06338, 20.3106 5.60995, 19.9453 5.21893, 19.5806 4.82848, 19.1501 4.52905, 18.6532 4.32123, 18.1562 4.11398, 17.6375 4.00979, 17.0959 4.00921, 16.5555 4.00979, 16.0362 4.11398, 15.5393 4.32123, 15.0423 4.52905, 14.6135 4.82848, 14.2517 5.21893, 13.8899 5.60995, 13.6225 6.06338, 13.4496 6.57921, 13.2767 7.09561, 13.1903 7.62805, 13.1903 8.17708, 13.1903 8.88013, 13.2991 9.57, 13.516 10.2479, 13.733 10.9257, 13.9735 11.6053, 14.2374 12.286, 14.5019 12.9673, 14.7452 13.6571, 14.9685 14.3562, 15.1918 15.0558, 15.3034 15.7777, 15.3034 16.522, 15.3034 16.7241, 15.2061 16.8243, 15.0109 16.8243 L 11.8598 16.8243 C 11.6966 16.8243, 11.5958 16.751, 11.5581 16.6044 L 10.8974 13.9846 C 10.8974 13.8203, 10.9855 13.7167, 11.1613 13.6732 L 11.2655 13.6732 C 11.4292 13.6738, 11.5294 13.7499, 11.5672 13.9022, 11.668 14.3241, 11.7613 14.6722, 11.846 14.947, 11.9308 15.2218, 11.9892 15.3684, 12.0201 15.3861, 12.083 15.4354, 12.2342 15.4663, 12.4729 15.4783, 12.7122 15.4909, 12.9985 15.4966, 13.3317 15.496 L 14.5391 15.496 C 14.4074 14.947, 14.1572 14.3825, 13.7891 13.802, 13.4216 13.222, 13.0391 12.6387, 12.643 12.0524, 12.2468 11.4662, 11.8964 10.8587, 11.5913 10.2295, 11.2861 9.60092, 11.1333 8.91677, 11.1333 8.17708, 11.1333 7.49351, 11.2941 6.86203, 11.6147 6.28151, 11.9353 5.70155, 12.3664 5.20347, 12.9069 4.78783, 13.492 4.31837, 14.1464 3.96857, 14.8695 3.73956, 15.5931 3.51056, 16.3351 3.39606, 17.0959 3.39548, 17.8574 3.39606, 18.5994 3.51056, 19.323 3.73956, 20.0467 3.96857, 20.7102 4.31837, 21.3136 4.78783, 21.842 5.21606, 22.2697 5.71816, 22.5966 6.29525, 22.9241 6.87234, 23.0873 7.49981, 23.0873 8.17708, 23.0873 8.91677, 22.935 9.60092, 22.6298 10.2295, 22.3252 10.8587, 21.9714 11.4662, 21.5684 12.0524, 21.1659 12.6387, 20.7789 13.222, 20.4079 13.802, 20.0369 14.3825, 19.7856 14.947, 19.6528 15.496 L 20.8699 15.496 C 21.2037 15.4966, 21.49 15.4909, 21.7287 15.4783, 21.968 15.4663, 22.1186 15.4354, 22.1815 15.3861, 22.201 15.3747, 22.2543 15.2281, 22.3424 14.947, 22.4306 14.6665, 22.5245 14.3178, 22.6252 13.9022, 22.663 13.7562, 22.7667 13.68, 22.9361 13.6732 L 23.0403 13.6732 C 23.2103 13.7104, 23.2951 13.814, 23.2951 13.9846 Z" stroke="none" fill="#000000" />
			<rect />
		</svg>
	</g>
	<path d="M -160.201 92.4915 L 160.195 -92.4895" fill="none" stroke="#000000" stroke-width="4.53333378" stroke-linecap="round" stroke-linejoin="round" transform="matrix(0.294118 0 0 0.294118 149.852 110.259)" />
	<path d="M -61.9449 -15.4859 L 61.9449 -15.4859, 61.9449 15.4859, -61.9449 15.4859 Z" stroke="none" fill="#FFFFFF" transform="matrix(0.254713 -0.147059 0.147059 0.254713 146.403 111.983)" />
	<path d="M -61.9449 -15.4859 L 61.9449 -15.4859, 61.9449 15.4859, -61.9449 15.4859 Z" fill="none" stroke="#000000" stroke-width="5.10000038" stroke-linecap="round" stroke-linejoin="round" transform="matrix(0.254713 -0.147059 0.147059 0.254713 146.403 111.983)" />
	<path d="M -160.198 -92.4895 L 160.199 92.4915" fill="none" stroke="#000000" stroke-width="4.53333378" stroke-linecap="round" stroke-linejoin="round" transform="matrix(0.294118 0 0 0.294118 55.6177 110.259)" />
	<path d="M -61.9448 -15.486 L 61.9448 -15.486, 61.9448 15.486, -61.9448 15.486 Z" stroke="none" fill="#FFFFFF" transform="matrix(0.254713 0.147059 -0.147059 0.254713 59.0662 111.983)" />
	<path d="M -61.9448 -15.486 L 61.9448 -15.486, 61.9448 15.486, -61.9448 15.486 Z" fill="none" stroke="#000000" stroke-width="5.10000038" stroke-linecap="round" stroke-linejoin="round" transform="matrix(0.254713 0.147059 -0.147059 0.254713 59.0662 111.983)" />
	<path d="M -160.198 92.4905 L 160.197 -92.4904" fill="none" stroke="#000000" stroke-width="4.53333378" stroke-linecap="round" stroke-linejoin="round" transform="matrix(0.294118 0 0 0.294118 55.6171 55.8528)" />
	<path d="M -61.9449 -15.486 L 61.9449 -15.486, 61.9449 15.486, -61.9449 15.486 Z" stroke="none" fill="#FFFFFF" transform="matrix(0.254713 -0.147059 0.147059 0.254713 59.0656 54.1287)" />
	<path d="M -61.9449 -15.486 L 61.9449 -15.486, 61.9449 15.486, -61.9449 15.486 Z" fill="none" stroke="#000000" stroke-width="5.10000038" stroke-linecap="round" stroke-linejoin="round" transform="matrix(0.254713 -0.147059 0.147059 0.254713 59.0656 54.1287)" />
	<path d="M -160.198 -92.4904 L 160.198 92.4905" fill="none" stroke="#000000" stroke-width="4.53333378" stroke-linecap="round" stroke-linejoin="round" transform="matrix(0.294118 0 0 0.294118 149.852 55.8528)" />
	<path d="M -61.945 -15.4861 L 61.945 -15.4861, 61.945 15.4861, -61.945 15.4861 Z" stroke="none" fill="#FFFFFF" transform="matrix(0.254713 0.147059 -0.147059 0.254713 146.404 54.1287)" />
	<path d="M -61.945 -15.4861 L 61.945 -15.4861, 61.945 15.4861, -61.945 15.4861 Z" fill="none" stroke="#000000" stroke-width="5.10000038" stroke-linecap="round" stroke-linejoin="round" transform="matrix(0.254713 0.147059 -0.147059 0.254713 146.404 54.1287)" />
	<ellipse cx="1112.4917726516724" cy="707.39893817901611" rx="8.9250001907348633" ry="8.9250001907348633" stroke="none" fill="#000000" transform="matrix(0.294118 0 0 0.294118 -224.469 -71.0585)" />
	<path d="M 0 -200.272 L 0 200.272" fill="none" stroke="#000000" stroke-width="4.53333378" stroke-linecap="round" stroke-linejoin="round" transform="matrix(0.294118 0 0 0.294118 8.49999 141.96)" />
	<path d="M 0 -32.782 L 0 32.7815" fill="none" stroke="#000000" stroke-width="4.53333378" stroke-linecap="round" stroke-linejoin="round" transform="matrix(0.294118 0 0 0.294118 102.735 19.4083)" />
	<path d="M -112.5 0 L 112.5 0" fill="none" stroke="#000000" stroke-width="4.53333378" stroke-linecap="round" stroke-linejoin="round" transform="matrix(0.294118 0 0 0.294118 41.5882 200.864)" />
	<path d="M 0 -200.272 L 0 200.272" fill="none" stroke="#000000" stroke-width="4.53333378" stroke-linecap="round" stroke-linejoin="round" transform="matrix(0.294118 0 0 0.294118 196.969 141.96)" />
	<path d="M -241.932 0 L 241.93 0.000457764" fill="none" stroke="#000000" stroke-width="4.53333378" stroke-linecap="round" stroke-linejoin="round" transform="matrix(0.294118 0 0 0.294118 173.891 9.76653)" />
	<path d="M -241.932 0 L 241.93 0" fill="none" stroke="#000000" stroke-width="4.53333378" stroke-linecap="round" stroke-linejoin="round" transform="matrix(0.294118 0 0 0.294118 173.891 156.283)" />
	<ellipse cx="1596.3540296554565" cy="274.80562877655029" rx="13.600001335144043" ry="13.600001335144043" stroke="none" fill="#000000" transform="matrix(0.294118 0 0 0.294118 -224.469 -71.0585)" />
	<ellipse cx="1596.3540210723877" cy="274.80562019348145" rx="9.0666675567626953" ry="9.0666675567626953" stroke="none" fill="#FFFFFF" transform="matrix(0.294118 0 0 0.294118 -224.469 -71.0585)" />
	<ellipse cx="1596.3540296554565" cy="772.96267223358154" rx="13.600001335144043" ry="13.600001335144043" stroke="none" fill="#000000" transform="matrix(0.294118 0 0 0.294118 -224.469 -71.0585)" />
	<ellipse cx="1596.3540210723877" cy="772.9626636505127" rx="9.0666675567626953" ry="9.0666675567626953" stroke="none" fill="#FFFFFF" transform="matrix(0.294118 0 0 0.294118 -224.469 -71.0585)" />
	<ellipse cx="1112.4917726516724" cy="340.08671283721924" rx="8.9250001907348633" ry="8.9250001907348633" stroke="none" fill="#000000" transform="matrix(0.294118 0 0 0.294118 -224.469 -71.0585)" />
	<ellipse cx="1432.8895998001099" cy="523.99097919464111" rx="8.9250001907348633" ry="8.9250001907348633" stroke="none" fill="#000000" transform="matrix(0.294118 0 0 0.294118 -224.469 -71.0585)" />
	<path d="M -113.587 0 L 113.587 0" fill="none" stroke="#000000" stroke-width="4.53333378" stroke-linecap="round" stroke-linejoin="round" transform="matrix(0.294118 0 0 0.294118 163.561 200.864)" />
	<ellipse cx="1017.094630241394" cy="924.53518199920654" rx="13.600001335144043" ry="13.600001335144043" stroke="none" fill="#000000" transform="matrix(0.294118 0 0 0.294118 -224.469 -71.0585)" />
	<ellipse cx="1017.0946216583252" cy="924.5351734161377" rx="9.0666675567626953" ry="9.0666675567626953" stroke="none" fill="#FFFFFF" transform="matrix(0.294118 0 0 0.294118 -224.469 -71.0585)" />
	<ellipse cx="1205.7153577804565" cy="924.53518199920654" rx="13.600001335144043" ry="13.600001335144043" stroke="none" fill="#000000" transform="matrix(0.294118 0 0 0.294118 -224.469 -71.0585)" />
	<ellipse cx="1205.7153491973877" cy="924.5351734161377" rx="9.0666675567626953" ry="9.0666675567626953" stroke="none" fill="#FFFFFF" transform="matrix(0.294118 0 0 0.294118 -224.469 -71.0585)" />
	<g transform="matrix(1 0 -0 1 233.326 71.7911)">
		<svg width="75.0478287" height="54.1276474">
			<defs />
			<path d="M 12.9653 14.9922 C 12.8966 15.2676, 12.793 15.5378, 12.6545 15.8035, 12.5159 16.0691, 12.3465 16.309, 12.1449 16.5226, 11.9434 16.7367, 11.7184 16.9113, 11.47 17.0487, 11.2215 17.1861, 10.953 17.2548, 10.6633 17.2548, 9.75128 17.2548, 9.06541 17.0138, 8.60626 16.5311, 8.29195 16.202, 8.13451 15.7869, 8.13451 15.2854, 8.13451 15.0295, 8.17573 14.7518, 8.2576 14.4518 L 8.68183 12.8121 C 8.73221 12.6049, 8.7574 12.4097, 8.7574 12.2259, 8.7574 12.1348, 8.7511 12.0404, 8.73851 11.9419, 8.70072 11.686, 8.61313 11.4604, 8.47458 11.2646, 8.33603 11.0694, 8.15856 10.9154, 7.94158 10.802, 7.72459 10.6893, 7.46811 10.6326, 7.17212 10.632 L 5.0401 10.632, 3.78515 15.5144 C 3.75996 15.6312, 3.74737 15.7256, 3.74737 15.7983, 3.74737 15.8905, 3.76626 15.9518, 3.80405 15.9815, 3.88592 16.0308, 4.05595 16.06, 4.31358 16.0691, 4.57178 16.0783, 4.84831 16.0829, 5.14372 16.0823, 5.32005 16.0829, 5.40822 16.1562, 5.40822 16.3021, 5.40822 16.3394, 5.40192 16.3789, 5.38933 16.4212 L 5.35154 16.5678 C 5.28284 16.751, 5.15975 16.8426, 4.98342 16.8426, 4.20996 16.806, 3.4302 16.7876, 2.64357 16.7876, 1.85751 16.7876, 1.06802 16.806, 0.27567 16.8426, 0.106207 16.8426, 0.0151782 16.7636, 0.00201051 16.6044 L 0.00201051 16.5311, 0.0397962 16.3754 C 0.090177 16.1745, 0.212694 16.0766, 0.407347 16.0823, 0.703335 16.0829, 0.983292 16.0783, 1.24722 16.0691, 1.51172 16.06, 1.70637 16.0279, 1.83232 15.9724, 1.95198 15.906, 2.04301 15.7411, 2.10598 15.4777 L 4.75728 5.15423 C 4.79506 5.02027, 4.81338 4.91664, 4.81338 4.84279, 4.81338 4.77008, 4.79792 4.72714, 4.76644 4.71455, 4.67827 4.66016, 4.50709 4.62695, 4.25232 4.61436, 3.99756 4.60234, 3.71932 4.59604, 3.41703 4.59547, 3.24127 4.59604, 3.1531 4.5136, 3.1531 4.34814 L 3.1531 4.27486, 3.20978 4.11914 C 3.24757 3.93651, 3.36436 3.84491, 3.55901 3.84433 L 8.87076 3.84433 C 9.46846 3.84491, 10.0375 3.92448, 10.5786 4.08307, 11.1196 4.24223, 11.5913 4.50444, 11.9938 4.87027, 12.327 5.16397, 12.5692 5.52408, 12.7203 5.95117, 12.8148 6.18361, 12.8652 6.42521, 12.8709 6.67482, 12.8709 6.90154, 12.8365 7.12424, 12.7673 7.34351, 12.6482 7.83244, 12.3997 8.27556, 12.0219 8.67231, 11.6446 9.06963, 11.2198 9.40798, 10.748 9.68851, 10.4211 9.87859, 10.0896 10.036, 9.753 10.1608, 9.41636 10.2862, 9.17591 10.3641, 9.03106 10.3938, 9.38945 10.5347, 9.72952 10.8095, 10.0501 11.2183, 10.3209 11.5732, 10.456 11.9974, 10.456 12.4915, 10.456 12.5957, 10.4497 12.6999, 10.4371 12.803 L 10.2574 14.4518 C 10.2076 14.88, 10.1824 15.2522, 10.1824 15.5693, 10.1824 15.7777, 10.195 15.9609, 10.2202 16.1189, 10.2642 16.4796, 10.4526 16.66, 10.7858 16.6594, 11.0881 16.66, 11.3646 16.4968, 11.6165 16.1699, 11.8684 15.8436, 12.0539 15.4388, 12.173 14.9556, 12.2423 14.773, 12.3648 14.6842, 12.5411 14.69 L 12.6917 14.69 C 12.8617 14.6905, 12.9528 14.7701, 12.9653 14.9281 L 12.9653 14.9922 Z M 10.748 7.28855 C 10.8488 6.92272, 10.9055 6.55631, 10.9181 6.18933 L 10.9181 6.13437 C 10.9181 5.8235, 10.8207 5.55499, 10.6255 5.32828, 10.3931 5.06034, 10.0896 4.87084, 9.71521 4.76092, 9.34079 4.651, 8.9303 4.59604, 8.48374 4.59547 L 7.2288 4.59547 C 6.9082 4.59604, 6.7164 4.62066, 6.65343 4.66932, 6.59045 4.71856, 6.52461 4.89203, 6.45534 5.19088 L 5.21013 10.0366, 7.03071 10.0366 C 7.47727 10.0372, 7.9181 9.98221, 8.35207 9.87229, 8.78603 9.76237, 9.19823 9.56714, 9.58754 9.28547, 9.92131 9.04787, 10.1732 8.74902, 10.3427 8.38834, 10.5127 8.02823, 10.6478 7.66183, 10.748 7.28855 Z" stroke="none" fill="#000000" />
			<path d="M 1.70623 -3.31244 C 1.67449 -3.18228, 1.60139 -3.07359, 1.48693 -2.98639, 1.37248 -2.89918, 1.2484 -2.85558, 1.11439 -2.8559, 0.973642 -2.85558, 0.866239 -2.90335, 0.792179 -2.99953, 0.743127 -3.05404, 0.716837 -3.12072, 0.712989 -3.19959, 0.712989 -3.24704, 0.720043 -3.29513, 0.734149 -3.34322, 0.765889 -3.47275, 0.839949 -3.58143, 0.956008 -3.66864, 1.07239 -3.75584, 1.19742 -3.79944, 1.33112 -3.79976, 1.47218 -3.79944, 1.57959 -3.75328, 1.65333 -3.66126, 1.7027 -3.59586, 1.72739 -3.52597, 1.72739 -3.45095, 1.72739 -3.40286, 1.72033 -3.35669, 1.70623 -3.31244 Z M 1.76425 1.66335 C 1.72578 1.84161, 1.66583 2.02884, 1.58472 2.22537, 1.50392 2.42223, 1.40421 2.6008, 1.28623 2.76143, 1.16825 2.92237, 1.03007 3.05638, 0.871689 3.16379, 0.71331 3.27151, 0.529924 3.32537, 0.322171 3.32537, 0.146159 3.32537, -0.00516665 3.28786, -0.132126 3.21252, -0.258766 3.1375, -0.35655 3.03843, -0.42516 2.91532, -0.493769 2.7922, -0.528395 2.65531, -0.528395 2.50462, -0.535448 2.49821, -0.538975 2.48442, -0.538975 2.46358, -0.538975 2.31001, -0.505311 2.1526, -0.438625 1.99165 L 0.417071 -0.26541 C 0.522871 -0.548826, 0.57577 -0.781585, 0.57577 -0.963048, 0.57577 -1.11662, 0.510687 -1.19356, 0.380201 -1.19388, 0.260615 -1.19356, 0.153212 -1.15926, 0.0579926 -1.09097, -0.0369066 -1.02236, -0.124111 -0.92746, -0.203301 -0.806272, -0.28249 -0.684762, -0.353665 -0.541131, -0.417145 -0.375378, -0.480625 -0.209304, -0.533525 -0.0326507, -0.575844 0.155224, -0.614317 0.247879, -0.679721 0.295649, -0.771414 0.298855 L -0.887473 0.298855 C -0.972113 0.299176, -1.01443 0.256536, -1.01443 0.170613 L -1.01443 0.134705 C -0.972113 -0.0531695, -0.908633 -0.245212, -0.823993 -0.442064, -0.739353 -0.638595, -0.637401 -0.817172, -0.517815 -0.978116, -0.397908 -1.13874, -0.258766 -1.27211, -0.100387 -1.37823, 0.0579926 -1.48403, 0.239455 -1.53725, 0.443681 -1.53757, 0.620014 -1.53725, 0.769737 -1.49942, 0.892849 -1.4244, 1.01596 -1.34906, 1.11022 -1.24903, 1.1753 -1.12431, 1.24071 -0.999276, 1.27661 -0.85853, 1.28367 -0.701434 L 1.28367 -0.665526 C 1.28367 -0.518047, 1.25385 -0.36608, 1.19358 -0.208984 L 0.337881 2.05834 C 0.239455 2.33566, 0.190082 2.57163, 0.190082 2.76624, 0.183029 2.77329, 0.179502 2.77329, 0.179502 2.76624, 0.179502 2.91371, 0.246509 2.98713, 0.380201 2.98681, 0.500108 2.98713, 0.608152 2.95122, 0.704974 2.87941, 0.801797 2.80759, 0.889964 2.71205, 0.969153 2.59215, 1.04866 2.47256, 1.11823 2.32893, 1.17787 2.16125, 1.23782 1.9939, 1.29232 1.81756, 1.3417 1.63257, 1.36286 1.54409, 1.42441 1.49952, 1.52637 1.4992 L 1.64275 1.4992 C 1.68154 1.49952, 1.72033 1.51139, 1.7588 1.53511, 1.76971 1.56268, 1.77836 1.58673, 1.78541 1.60693, 1.78541 1.62777, 1.77836 1.64668, 1.76425 1.66335 Z" stroke="none" fill="#000000" transform="matrix(1.12 0 0 1 14.9534 16.3063)" />
			<path d="M 3.13336 1.64796 C 3.08399 1.83648, 3.01891 2.02884, 2.9378 2.22537, 2.857 2.42223, 2.75473 2.6008, 2.63162 2.76143, 2.5085 2.92237, 2.36744 3.05638, 2.20906 3.16379, 2.05068 3.27151, 1.86922 3.32537, 1.66467 3.32537, 1.48866 3.32537, 1.33637 3.28786, 1.20781 3.21252, 1.07957 3.1375, 0.983385 3.03843, 0.919905 2.91532, 0.856425 2.7922, 0.819555 2.64857, 0.808975 2.4841 L 0.808975 2.44306 C 0.808975 2.29623, 0.840715 2.14586, 0.903874 1.99165, 1.02025 1.69445, 1.12958 1.39693, 1.23153 1.09941, 1.33381 0.801885, 1.4255 0.504364, 1.50629 0.206521, 1.55567 0.00518084, 1.59061 -0.189747, 1.61177 -0.378263, 1.61882 -0.432766, 1.62235 -0.490796, 1.62235 -0.552673, 1.62235 -0.668732, 1.60824 -0.774532, 1.58003 -0.870713, 1.51687 -1.08584, 1.38318 -1.19356, 1.17863 -1.19388, 0.819555 -1.19356, 0.511453 -1.07109, 0.254328 -0.82679, -0.00279784 -0.582168, -0.229786 -0.25483, -0.427279 0.155224 L -1.15089 2.94577 C -1.18231 3.07273, -1.24675 3.16731, -1.34357 3.23047, -1.44039 3.29395, -1.53818 3.32537, -1.63692 3.32537, -1.7424 3.32537, -1.82352 3.29139, -1.87994 3.22278, -1.92547 3.17853, -1.94855 3.11698, -1.94855 3.03811, -1.94855 3.00765, -1.94503 2.97014, -1.93797 2.92526 L -1.1246 -0.250021 C -1.06817 -0.47188, -1.03996 -0.663602, -1.03996 -0.824546 L -1.03996 -0.947659 C -1.05727 -1.11149, -1.13999 -1.19356, -1.28811 -1.19388, -1.44296 -1.19356, -1.57248 -1.06853, -1.67636 -0.819096, -1.78023 -0.569344, -1.88155 -0.244571, -1.98029 0.155224, -2.01876 0.247879, -2.08385 0.295649, -2.17554 0.298855 L -2.29705 0.298855 C -2.38169 0.299176, -2.42401 0.256536, -2.42401 0.170613 L -2.42401 0.134705 C -2.38169 -0.0255973, -2.33392 -0.200969, -2.28134 -0.390767, -2.22844 -0.580565, -2.15791 -0.760104, -2.07006 -0.929384, -1.9819 -1.09866, -1.87097 -1.2423, -1.73727 -1.36028, -1.60326 -1.47826, -1.43622 -1.53725, -1.23553 -1.53757, -0.94634 -1.53725, -0.719351 -1.45165, -0.553919 -1.28077, -0.388486 -1.10956, -0.302243 -0.942209, -0.29519 -0.778379, -0.14707 -0.96946, 0.0587585 -1.14387, 0.322937 -1.30129, 0.587116 -1.45838, 0.893615 -1.53725, 1.24211 -1.53757, 1.44987 -1.53725, 1.64383 -1.49878, 1.82337 -1.42183, 2.00291 -1.34489, 2.14205 -1.22081, 2.24048 -1.05025, 2.34628 -0.875522, 2.39886 -0.678991, 2.39886 -0.460338 L 2.39886 -0.43469 C 2.3918 -0.215396, 2.36038 0.00518084, 2.30396 0.22704, 2.22317 0.538668, 2.12987 0.844846, 2.02407 1.14557, 1.91827 1.44662, 1.80734 1.75088, 1.69128 2.05834, 1.58548 2.33566, 1.53258 2.5681, 1.53258 2.75598, 1.53258 2.91019, 1.59799 2.98713, 1.72815 2.98681, 1.84806 2.98713, 1.95706 2.95122, 2.05581 2.87941, 2.15456 2.80759, 2.24336 2.71109, 2.32255 2.58958, 2.40174 2.46839, 2.47292 2.32476, 2.5364 2.15869, 2.59988 1.99293, 2.65246 1.81596, 2.69478 1.62744, 2.7371 1.54216, 2.79705 1.49952, 2.87432 1.4992 L 3.0064 1.4992 C 3.09104 1.49952, 3.13336 1.53703, 3.13336 1.61206 L 3.13336 1.64796 Z" stroke="none" fill="#000000" transform="matrix(1.12 0 0 1 20.2056 16.3063)" />
			<rect />
		</svg>
	</g>
	<path d="M -41.5657 -41.5656 L 41.5659 41.5658" fill="none" stroke="#E50500" stroke-width="6.80000019" stroke-linecap="round" stroke-linejoin="round" transform="matrix(0.294118 0 0 0.294118 102.735 200.864)" />
	<path d="M 41.5658 -41.5656 L -41.5657 41.566" fill="none" stroke="#E50500" stroke-width="6.80000019" stroke-linecap="round" stroke-linejoin="round" transform="matrix(0.294118 0 0 0.294118 102.735 200.864)" />
</svg>
