<?xml version="1.0"?>
<svg xmlns="http://www.w3.org/2000/svg" xmlns:xlink="http://www.w3.org/1999/xlink" width="297.143341" height="271.362091">
	<defs />
	<path d="M 0 -26.9968 L 0 26.9968" fill="none" stroke="#000000" stroke-width="3.73333335" stroke-linecap="round" stroke-linejoin="round" transform="matrix(0.357143 0 0 0.357143 102.734 175.718)" />
	<g transform="matrix(1 0 -0 1 41.8753 239.947)">
		<svg width="77.9182587" height="48.0957298">
			<defs />
			<path d="M 8.17745 12.7991 C 8.17745 13.386, 8.06693 13.9459, 7.84475 14.4784, 7.62313 15.0114, 7.30276 15.49, 6.88309 15.9141, 6.45781 16.3276, 5.97866 16.6435, 5.44566 16.8612, 4.91265 17.08, 4.34766 17.1888, 3.74957 17.1888, 3.23228 17.1888, 2.74977 17.0918, 2.30316 16.8971, 1.85656 16.703, 1.46831 16.437, 1.1384 16.0987, 0.808499 15.761, 0.549851 15.3688, 0.361335 14.9227, 0.17338 14.4772, 0.0791219 14.0026, 0.0791219 13.4993, 0.0791219 13.1526, 0.1947 12.8911, 0.425857 12.7144, 0.657013 12.5382, 0.896025 12.4496, 1.14233 12.449, 1.40154 12.4496, 1.64504 12.5365, 1.87283 12.7099, 2.10118 12.8838, 2.21508 13.147, 2.21508 13.4993, 2.21508 13.7153, 2.16739 13.8966, 2.07201 14.043, 1.97663 14.19, 1.85936 14.3033, 1.72022 14.3841, 1.58164 14.4649, 1.42623 14.5115, 1.25342 14.5227 L 1.14233 14.5227, 0.957741 14.5227 C 1.09969 15.026, 1.42959 15.4782, 1.94689 15.8788, 2.46475 16.2799, 3.06564 16.4802, 3.74957 16.4797, 4.10697 16.4802, 4.45539 16.3877, 4.79427 16.2019, 5.13315 16.0168, 5.41031 15.7711, 5.62576 15.4653, 5.87879 15.1006, 6.04094 14.6865, 6.11163 14.2225, 6.18233 13.7591, 6.21767 13.2844, 6.21767 12.7991, 6.21767 12.3088, 6.20253 11.838, 6.17167 11.3858, 6.14081 10.9342, 6.01457 10.5078, 5.79239 10.106, 5.63249 9.81316, 5.4277 9.56966, 5.17803 9.37497, 4.92836 9.18085, 4.64951 9.08322, 4.34093 9.08266, 3.75575 9.08322, 3.24742 9.2016, 2.81597 9.43781, 2.38452 9.67458, 2.0361 10.014, 1.77128 10.4561, 1.71573 10.5582, 1.62652 10.6093, 1.50309 10.6087 L 1.42903 10.6087 C 1.21358 10.6093, 1.1053 10.5106, 1.1053 10.3125 L 1.1053 4.01068 C 1.1053 3.85583, 1.19507 3.75708, 1.37349 3.71444, 1.40491 3.715, 1.42791 3.71837, 1.44306 3.72398, 1.45877 3.73015, 1.47223 3.73296, 1.48458 3.7324, 2.37834 4.13972, 3.2996 4.34339, 4.24835 4.34283, 5.21001 4.34339, 6.13183 4.13972, 7.0127 3.7324, 7.02504 3.73296, 7.03738 3.73015, 7.04973 3.72398, 7.06207 3.71837, 7.08058 3.715, 7.10527 3.71444, 7.30837 3.715, 7.40712 3.80758, 7.40095 3.99273, 7.40095 4.10101, 7.38243 4.17283, 7.3454 4.20817, 6.90778 4.80739, 6.35177 5.27587, 5.67681 5.61363, 5.00242 5.95195, 4.28595 6.12083, 3.52739 6.12027, 2.89901 6.12083, 2.35702 6.04901, 1.90032 5.90482 L 1.90032 9.33401 C 2.11633 9.10735, 2.44174 8.90536, 2.876 8.72863, 3.31026 8.55246, 3.79895 8.46381, 4.34093 8.46325, 4.87113 8.46381, 5.37216 8.58388, 5.84345 8.82289, 6.31474 9.06246, 6.72936 9.37329, 7.08676 9.75593, 7.45649 10.1874, 7.73085 10.6648, 7.90927 11.1883, 8.08825 11.7123, 8.17745 12.2493, 8.17745 12.7991 Z" stroke="none" fill="#000000" />
			<path d="M 24.8237 16.8334 C 24.0061 16.7911, 23.2172 16.7693, 22.4558 16.7693 L 22.0877 16.7693 C 21.2008 16.7819, 20.2791 16.8002, 19.323 16.8243 L 19.323 16.064 C 19.6064 16.0646, 19.8612 16.0542, 20.0873 16.0325, 20.314 16.0113, 20.515 15.9667, 20.6913 15.8991, 20.7732 15.8567, 20.8453 15.7926, 20.9083 15.7067, 20.9335 15.677, 20.9461 15.6369, 20.9461 15.5877, 20.9461 15.5636, 20.9432 15.5361, 20.9363 15.5052 L 19.8703 12.5465, 15.2376 12.5465, 14.3605 15.0014 C 14.329 15.0753, 14.313 15.1457, 14.313 15.2121, 14.313 15.2739, 14.3227 15.3346, 14.3416 15.3953, 14.392 15.5304, 14.4738 15.6403, 14.5866 15.7251, 14.7504 15.8602, 14.925 15.9501, 15.1105 15.9959, 15.296 16.0417, 15.521 16.0646, 15.7849 16.064 L 15.7849 16.8243 C 15.024 16.8002, 14.2975 16.7819, 13.6053 16.7693 L 13.3134 16.7693 C 12.7094 16.7693, 12.0802 16.7911, 11.4264 16.8334 L 11.4264 16.064 C 11.7287 16.0646, 11.9909 16.0451, 12.2142 16.005, 12.4374 15.9655, 12.6527 15.8876, 12.8599 15.7709, 13.2 15.5819, 13.4387 15.3043, 13.5773 14.9373 L 17.653 3.4596 C 17.716 3.27697, 17.8482 3.18824, 18.0492 3.19396 L 18.2003 3.19396 C 18.4018 3.19453, 18.5335 3.28327, 18.5965 3.4596 L 22.88 15.4502 C 22.9121 15.567, 22.9607 15.6707, 23.0266 15.7623, 23.093 15.8539, 23.1823 15.9151, 23.2951 15.9449, 23.4588 16.0067, 23.6747 16.0417, 23.942 16.0508, 24.2094 16.06, 24.5031 16.0646, 24.8237 16.064 L 24.8237 16.8334 Z M 17.5683 6.04277 L 15.5112 11.7862, 19.5967 11.7862 Z" stroke="none" fill="#000000" />
			<rect />
		</svg>
	</g>
	<g transform="matrix(1 0 -0 1 25.5885 56.6192)">
		<svg width="75.0478287" height="45.2233963">
			<defs />
			<path d="M 6.82303 16.7669 C 5.68913 16.731, 4.58609 16.7131, 3.51334 16.7131, 2.44116 16.7131, 1.33812 16.731, 0.204215 16.7669 L 0.204215 15.9949, 0.84214 15.9949 C 1.04524 15.9955, 1.23656 15.9927, 1.41498 15.9865, 1.59396 15.9809, 1.7634 15.9657, 1.92386 15.9416, 2.08433 15.918, 2.22291 15.8939, 2.33961 15.8692, 2.43835 15.8518, 2.51971 15.7969, 2.58423 15.7037, 2.64931 15.6111, 2.68129 15.5079, 2.68129 15.3935 L 2.68129 5.27643 C 2.37383 5.4268, 1.99456 5.54069, 1.54459 5.61812, 1.09462 5.6961, 0.602006 5.73482, 0.0656334 5.73426 L 0.0656334 4.97122 C 0.80511 4.97178, 1.48792 4.88369, 2.1135 4.70696, 2.73908 4.53078, 3.27994 4.19976, 3.73552 3.71444 L 4.02223 3.71444 C 4.22533 3.715, 4.32688 3.81375, 4.32688 4.01068 L 4.32688 15.3935 C 4.32688 15.5135, 4.35774 15.6184, 4.41946 15.7082, 4.48117 15.798, 4.57094 15.8518, 4.68764 15.8692, 4.78639 15.8939, 4.91319 15.918, 5.06692 15.9416, 5.22065 15.9657, 5.39458 15.9809, 5.5887 15.9865, 5.78283 15.9927, 5.97247 15.9955, 6.15762 15.9949 L 6.82303 15.9949, 6.82303 16.7669 Z" stroke="none" fill="#000000" />
			<path d="M 22.6413 16.6044 C 22.6035 16.751, 22.4999 16.8243, 22.3298 16.8243 L 19.2079 16.8243 C 19.0007 16.8243, 18.8965 16.7241, 18.8965 16.522, 18.8965 15.7714, 19.0081 15.0478, 19.2314 14.3516, 19.4547 13.6554, 19.6986 12.9673, 19.9625 12.286, 20.227 11.6053, 20.4657 10.9257, 20.6793 10.2479, 20.8934 9.57, 20.9999 8.88013, 20.9999 8.17708, 20.9999 7.62805, 20.9152 7.09561, 20.7451 6.57921, 20.5757 6.06338, 20.3083 5.60995, 19.9436 5.21893, 19.5789 4.82848, 19.1484 4.52905, 18.6514 4.32123, 18.1545 4.11398, 17.6358 4.00979, 17.0948 4.00921, 16.5543 4.00979, 16.0357 4.11398, 15.5387 4.32123, 15.0418 4.52905, 14.613 4.82848, 14.2511 5.21893, 13.8893 5.60995, 13.622 6.06338, 13.4491 6.57921, 13.2762 7.09561, 13.1897 7.62805, 13.1897 8.17708, 13.1897 8.88013, 13.2985 9.57, 13.5149 10.2479, 13.7319 10.9257, 13.9723 11.6053, 14.2363 12.286, 14.5008 12.9673, 14.7441 13.6571, 14.9674 14.3562, 15.1906 15.0558, 15.3023 15.7777, 15.3023 16.522, 15.3023 16.7241, 15.2049 16.8243, 15.0103 16.8243 L 11.8592 16.8243 C 11.696 16.8243, 11.5953 16.751, 11.5575 16.6044 L 10.8974 13.9846 C 10.8974 13.8203, 10.9855 13.7167, 11.1613 13.6732 L 11.2649 13.6732 C 11.4287 13.6738, 11.5294 13.7499, 11.5672 13.9022, 11.668 14.3241, 11.7607 14.6722, 11.8455 14.947, 11.9302 15.2218, 11.9886 15.3684, 12.0195 15.3861, 12.0825 15.4354, 12.2336 15.4663, 12.4724 15.4783, 12.7117 15.4909, 12.9979 15.4966, 13.3311 15.496 L 14.5385 15.496 C 14.4069 14.947, 14.1567 14.3825, 13.7886 13.802, 13.421 13.222, 13.0386 12.6387, 12.6424 12.0524, 12.2462 11.4662, 11.8958 10.8587, 11.5907 10.2295, 11.2861 9.60092, 11.1333 8.91677, 11.1333 8.17708, 11.1333 7.49351, 11.2936 6.86203, 11.6142 6.28151, 11.9348 5.70155, 12.3659 5.20347, 12.9063 4.78783, 13.4914 4.31837, 14.1458 3.96857, 14.8689 3.73956, 15.592 3.51056, 16.3339 3.39606, 17.0948 3.39548, 17.8562 3.39606, 18.5982 3.51056, 19.3213 3.73956, 20.0444 3.96857, 20.7079 4.31837, 21.3113 4.78783, 21.8398 5.21606, 22.2674 5.71816, 22.5943 6.29525, 22.9212 6.87234, 23.0844 7.49981, 23.0844 8.17708, 23.0844 8.91677, 22.9321 9.60092, 22.627 10.2295, 22.3224 10.8587, 21.9686 11.4662, 21.5661 12.0524, 21.1636 12.6387, 20.7766 13.222, 20.4056 13.802, 20.0346 14.3825, 19.7833 14.947, 19.6511 15.496 L 20.8676 15.496 C 21.2014 15.4966, 21.4877 15.4909, 21.7264 15.4783, 21.9657 15.4663, 22.1163 15.4354, 22.1793 15.3861, 22.1981 15.3747, 22.2514 15.2281, 22.3396 14.947, 22.4277 14.6665, 22.5216 14.3178, 22.6224 13.9022, 22.6602 13.7562, 22.7644 13.68, 22.9338 13.6732 L 23.0374 13.6732 C 23.2075 13.7104, 23.2922 13.814, 23.2922 13.9846 Z" stroke="none" fill="#000000" />
			<rect />
		</svg>
	</g>
	<ellipse cx="1350.5124759674072" cy="554.06478309631348" rx="7.3500003814697266" ry="7.3500003814697266" stroke="none" fill="#000000" transform="matrix(0.357143 0 0 0.357143 -285.357 -85.7475)" />
	<ellipse cx="822.79934120178223" cy="554.06472206115723" rx="7.3500003814697266" ry="7.3500003814697266" stroke="none" fill="#000000" transform="matrix(0.357143 0 0 0.357143 -285.357 -85.7475)" />
	<path d="M -18.4714 -11.2886 L -18.4714 11.2886, 18.4714 0 Z" stroke="none" fill="#000000" transform="matrix(0.357143 -1.07854e-007 -1.07854e-007 -0.357143 218.842 38.8429)" />
	<g transform="matrix(1 0 -0 1 25.2109 146.095)">
		<svg width="77.9182587" height="45.2233963">
			<defs />
			<path d="M 7.60405 16.7669 L 0.0791219 16.7669, 0.0791219 16.2732 C 0.0791219 16.2379, 0.0976369 16.184, 0.134667 16.1116 L 3.15766 12.826 C 3.51561 12.4316, 3.8775 12.0277, 4.24443 11.6147, 4.61136 11.2018, 4.93902 10.7799, 5.22853 10.349, 5.51803 9.91808, 5.74919 9.47372, 5.922 9.01589, 6.0948 8.55807, 6.18064 8.0778, 6.18064 7.57453, 6.18064 7.15037, 6.12566 6.7537, 6.01457 6.38565, 5.90348 6.01759, 5.74358 5.69442, 5.53374 5.41613, 5.32391 5.13785, 5.06189 4.91343, 4.7477 4.74286, 4.4335 4.5723, 4.06994 4.48702, 3.657 4.48646, 3.04096 4.48702, 2.49673 4.67105, 2.02544 5.0391, 1.55415 5.40716, 1.24108 5.8128, 1.08678 6.25492, 1.05649 6.26726, 1.10586 6.27343, 1.2349 6.27287 L 1.392 6.27287 C 1.57715 6.31551, 1.73705 6.38004, 1.87283 6.46644, 2.00861 6.5534, 2.1225 6.67291, 2.21508 6.82552, 2.30765 6.97812, 2.35366 7.16215, 2.35366 7.37704, 2.35366 7.73668, 2.23696 8.01216, 2.00243 8.20348, 1.76791 8.39536, 1.5059 8.49074, 1.21639 8.49018, 0.939226 8.49074, 0.680578 8.39536, 0.439883 8.20348, 0.19975 8.01216, 0.0791219 7.73668, 0.0791219 7.37704, 0.0791219 6.87489, 0.177868 6.39911, 0.375361 5.95026, 0.572854 5.50142, 0.84048 5.1126, 1.17936 4.78326, 1.51824 4.45448, 1.91884 4.19415, 2.38115 4.00226, 2.84346 3.81094, 3.33383 3.715, 3.85113 3.71444, 4.49186 3.715, 5.07928 3.80926, 5.61229 3.99778, 6.1453 4.18629, 6.59976 4.45728, 6.97567 4.81019, 7.35157 5.16366, 7.64613 5.57211, 7.85877 6.03554, 8.07141 6.49954, 8.17745 7.01235, 8.17745 7.57453, 8.17745 8.19731, 8.03607 8.77071, 7.75217 9.29418, 7.46884 9.81821, 7.11761 10.2985, 6.6985 10.735, 6.27939 11.172, 5.83391 11.5833, 5.36262 11.9693, 4.89133 12.3553, 4.46436 12.7307, 4.08228 13.0954 L 1.95587 15.0972, 4.73872 15.0972 C 5.12697 15.0978, 5.48942 15.095, 5.82493 15.0888, 6.16101 15.0832, 6.44603 15.0708, 6.67999 15.0529, 6.91451 15.0349, 7.03458 15.0232, 7.04019 15.0164, 7.08956 14.9749, 7.13613 14.8913, 7.17933 14.7656, 7.22253 14.64, 7.26237 14.4918, 7.2994 14.3213, 7.33643 14.1507, 7.37346 13.9773, 7.41049 13.8006, 7.44752 13.6244, 7.48118 13.4309, 7.51204 13.221 L 8.19597 13.221 Z" stroke="none" fill="#000000" />
			<path d="M 23.3964 16.6044 C 23.3586 16.751, 23.255 16.8243, 23.085 16.8243 L 19.9631 16.8243 C 19.7558 16.8243, 19.6516 16.7241, 19.6516 16.522, 19.6516 15.7714, 19.7633 15.0478, 19.9865 14.3516, 20.2098 13.6554, 20.4537 12.9673, 20.7176 12.286, 20.9821 11.6053, 21.2209 10.9257, 21.4344 10.2479, 21.6485 9.57, 21.755 8.88013, 21.755 8.17708, 21.755 7.62805, 21.6703 7.09561, 21.5003 6.57921, 21.3308 6.06338, 21.0634 5.60995, 20.6987 5.21893, 20.3341 4.82848, 19.9035 4.52905, 19.4066 4.32123, 18.9097 4.11398, 18.391 4.00979, 17.8499 4.00921, 17.3095 4.00979, 16.7908 4.11398, 16.2939 4.32123, 15.7969 4.52905, 15.3681 4.82848, 15.0063 5.21893, 14.6445 5.60995, 14.3771 6.06338, 14.2042 6.57921, 14.0313 7.09561, 13.9448 7.62805, 13.9448 8.17708, 13.9448 8.88013, 14.0536 9.57, 14.27 10.2479, 14.487 10.9257, 14.7275 11.6053, 14.9914 12.286, 15.2559 12.9673, 15.4992 13.6571, 15.7225 14.3562, 15.9458 15.0558, 16.0574 15.7777, 16.0574 16.522, 16.0574 16.7241, 15.9601 16.8243, 15.7654 16.8243 L 12.6143 16.8243 C 12.4512 16.8243, 12.3504 16.751, 12.3126 16.6044 L 11.6525 13.9846 C 11.6525 13.8203, 11.7407 13.7167, 11.9164 13.6732 L 12.0201 13.6732 C 12.1838 13.6738, 12.2846 13.7499, 12.3224 13.9022, 12.4231 14.3241, 12.5159 14.6722, 12.6006 14.947, 12.6853 15.2218, 12.7437 15.3684, 12.7746 15.3861, 12.8376 15.4354, 12.9888 15.4663, 13.2275 15.4783, 13.4668 15.4909, 13.7531 15.4966, 14.0863 15.496 L 15.2937 15.496 C 15.162 14.947, 14.9118 14.3825, 14.5437 13.802, 14.1761 13.222, 13.7937 12.6387, 13.3975 12.0524, 13.0014 11.4662, 12.651 10.8587, 12.3458 10.2295, 12.0413 9.60092, 11.8884 8.91677, 11.8884 8.17708, 11.8884 7.49351, 12.0487 6.86203, 12.3693 6.28151, 12.6899 5.70155, 13.121 5.20347, 13.6615 4.78783, 14.2466 4.31837, 14.9009 3.96857, 15.624 3.73956, 16.3471 3.51056, 17.0891 3.39606, 17.8499 3.39548, 18.6114 3.39606, 19.3533 3.51056, 20.0764 3.73956, 20.7995 3.96857, 21.463 4.31837, 22.0665 4.78783, 22.5949 5.21606, 23.0226 5.71816, 23.3495 6.29525, 23.6764 6.87234, 23.8395 7.49981, 23.8395 8.17708, 23.8395 8.91677, 23.6872 9.60092, 23.3821 10.2295, 23.0775 10.8587, 22.7237 11.4662, 22.3212 12.0524, 21.9188 12.6387, 21.5317 13.222, 21.1608 13.802, 20.7898 14.3825, 20.5384 14.947, 20.4062 15.496 L 21.6228 15.496 C 21.9565 15.4966, 22.2428 15.4909, 22.4815 15.4783, 22.7208 15.4663, 22.8714 15.4354, 22.9344 15.3861, 22.9533 15.3747, 23.0065 15.2281, 23.0947 14.947, 23.1829 14.6665, 23.2768 14.3178, 23.3775 13.9022, 23.4153 13.7562, 23.5195 13.68, 23.689 13.6732 L 23.7926 13.6732 C 23.9626 13.7104, 24.0474 13.814, 24.0474 13.9846 Z" stroke="none" fill="#000000" />
			<rect />
		</svg>
	</g>
	<g transform="matrix(1 0 -0 1 156.067 146.095)">
		<svg width="75.0478287" height="45.2233963">
			<defs />
			<path d="M 6.82303 16.7669 C 5.68913 16.731, 4.58609 16.7131, 3.51334 16.7131, 2.44116 16.7131, 1.33812 16.731, 0.204215 16.7669 L 0.204215 15.9949, 0.84214 15.9949 C 1.04524 15.9955, 1.23656 15.9927, 1.41498 15.9865, 1.59396 15.9809, 1.7634 15.9657, 1.92386 15.9416, 2.08433 15.918, 2.22291 15.8939, 2.33961 15.8692, 2.43835 15.8518, 2.51971 15.7969, 2.58423 15.7037, 2.64931 15.6111, 2.68129 15.5079, 2.68129 15.3935 L 2.68129 5.27643 C 2.37383 5.4268, 1.99456 5.54069, 1.54459 5.61812, 1.09462 5.6961, 0.602006 5.73482, 0.0656334 5.73426 L 0.0656334 4.97122 C 0.80511 4.97178, 1.48792 4.88369, 2.1135 4.70696, 2.73908 4.53078, 3.27994 4.19976, 3.73552 3.71444 L 4.02223 3.71444 C 4.22533 3.715, 4.32688 3.81375, 4.32688 4.01068 L 4.32688 15.3935 C 4.32688 15.5135, 4.35774 15.6184, 4.41946 15.7082, 4.48117 15.798, 4.57094 15.8518, 4.68764 15.8692, 4.78639 15.8939, 4.91319 15.918, 5.06692 15.9416, 5.22065 15.9657, 5.39458 15.9809, 5.5887 15.9865, 5.78283 15.9927, 5.97247 15.9955, 6.15762 15.9949 L 6.82303 15.9949, 6.82303 16.7669 Z" stroke="none" fill="#000000" />
			<path d="M 22.6413 16.6044 C 22.6035 16.751, 22.4999 16.8243, 22.3298 16.8243 L 19.2079 16.8243 C 19.0007 16.8243, 18.8965 16.7241, 18.8965 16.522, 18.8965 15.7714, 19.0081 15.0478, 19.2314 14.3516, 19.4547 13.6554, 19.6986 12.9673, 19.9625 12.286, 20.227 11.6053, 20.4657 10.9257, 20.6793 10.2479, 20.8934 9.57, 20.9999 8.88013, 20.9999 8.17708, 20.9999 7.62805, 20.9152 7.09561, 20.7451 6.57921, 20.5757 6.06338, 20.3083 5.60995, 19.9436 5.21893, 19.5789 4.82848, 19.1484 4.52905, 18.6514 4.32123, 18.1545 4.11398, 17.6358 4.00979, 17.0948 4.00921, 16.5543 4.00979, 16.0357 4.11398, 15.5387 4.32123, 15.0418 4.52905, 14.613 4.82848, 14.2511 5.21893, 13.8893 5.60995, 13.622 6.06338, 13.4491 6.57921, 13.2762 7.09561, 13.1897 7.62805, 13.1897 8.17708, 13.1897 8.88013, 13.2985 9.57, 13.5149 10.2479, 13.7319 10.9257, 13.9723 11.6053, 14.2363 12.286, 14.5008 12.9673, 14.7441 13.6571, 14.9674 14.3562, 15.1906 15.0558, 15.3023 15.7777, 15.3023 16.522, 15.3023 16.7241, 15.2049 16.8243, 15.0103 16.8243 L 11.8592 16.8243 C 11.696 16.8243, 11.5953 16.751, 11.5575 16.6044 L 10.8974 13.9846 C 10.8974 13.8203, 10.9855 13.7167, 11.1613 13.6732 L 11.2649 13.6732 C 11.4287 13.6738, 11.5294 13.7499, 11.5672 13.9022, 11.668 14.3241, 11.7607 14.6722, 11.8455 14.947, 11.9302 15.2218, 11.9886 15.3684, 12.0195 15.3861, 12.0825 15.4354, 12.2336 15.4663, 12.4724 15.4783, 12.7117 15.4909, 12.9979 15.4966, 13.3311 15.496 L 14.5385 15.496 C 14.4069 14.947, 14.1567 14.3825, 13.7886 13.802, 13.421 13.222, 13.0386 12.6387, 12.6424 12.0524, 12.2462 11.4662, 11.8958 10.8587, 11.5907 10.2295, 11.2861 9.60092, 11.1333 8.91677, 11.1333 8.17708, 11.1333 7.49351, 11.2936 6.86203, 11.6142 6.28151, 11.9348 5.70155, 12.3659 5.20347, 12.9063 4.78783, 13.4914 4.31837, 14.1458 3.96857, 14.8689 3.73956, 15.592 3.51056, 16.3339 3.39606, 17.0948 3.39548, 17.8562 3.39606, 18.5982 3.51056, 19.3213 3.73956, 20.0444 3.96857, 20.7079 4.31837, 21.3113 4.78783, 21.8398 5.21606, 22.2674 5.71816, 22.5943 6.29525, 22.9212 6.87234, 23.0844 7.49981, 23.0844 8.17708, 23.0844 8.91677, 22.9321 9.60092, 22.627 10.2295, 22.3224 10.8587, 21.9686 11.4662, 21.5661 12.0524, 21.1636 12.6387, 20.7766 13.222, 20.4056 13.802, 20.0346 14.3825, 19.7833 14.947, 19.6511 15.496 L 20.8676 15.496 C 21.2014 15.4966, 21.4877 15.4909, 21.7264 15.4783, 21.9657 15.4663, 22.1163 15.4354, 22.1793 15.3861, 22.1981 15.3747, 22.2514 15.2281, 22.3396 14.947, 22.4277 14.6665, 22.5216 14.3178, 22.6224 13.9022, 22.6602 13.7562, 22.7644 13.68, 22.9338 13.6732 L 23.0374 13.6732 C 23.2075 13.7104, 23.2922 13.814, 23.2922 13.9846 Z" stroke="none" fill="#000000" />
			<rect />
		</svg>
	</g>
	<g transform="matrix(1 0 -0 1 156.067 56.6192)">
		<svg width="75.0478287" height="45.2233963">
			<defs />
			<path d="M 6.82303 16.7669 C 5.68913 16.731, 4.58609 16.7131, 3.51334 16.7131, 2.44116 16.7131, 1.33812 16.731, 0.204215 16.7669 L 0.204215 15.9949, 0.84214 15.9949 C 1.04524 15.9955, 1.23656 15.9927, 1.41498 15.9865, 1.59396 15.9809, 1.7634 15.9657, 1.92386 15.9416, 2.08433 15.918, 2.22291 15.8939, 2.33961 15.8692, 2.43835 15.8518, 2.51971 15.7969, 2.58423 15.7037, 2.64931 15.6111, 2.68129 15.5079, 2.68129 15.3935 L 2.68129 5.27643 C 2.37383 5.4268, 1.99456 5.54069, 1.54459 5.61812, 1.09462 5.6961, 0.602006 5.73482, 0.0656334 5.73426 L 0.0656334 4.97122 C 0.80511 4.97178, 1.48792 4.88369, 2.1135 4.70696, 2.73908 4.53078, 3.27994 4.19976, 3.73552 3.71444 L 4.02223 3.71444 C 4.22533 3.715, 4.32688 3.81375, 4.32688 4.01068 L 4.32688 15.3935 C 4.32688 15.5135, 4.35774 15.6184, 4.41946 15.7082, 4.48117 15.798, 4.57094 15.8518, 4.68764 15.8692, 4.78639 15.8939, 4.91319 15.918, 5.06692 15.9416, 5.22065 15.9657, 5.39458 15.9809, 5.5887 15.9865, 5.78283 15.9927, 5.97247 15.9955, 6.15762 15.9949 L 6.82303 15.9949, 6.82303 16.7669 Z" stroke="none" fill="#000000" />
			<path d="M 22.6413 16.6044 C 22.6035 16.751, 22.4999 16.8243, 22.3298 16.8243 L 19.2079 16.8243 C 19.0007 16.8243, 18.8965 16.7241, 18.8965 16.522, 18.8965 15.7714, 19.0081 15.0478, 19.2314 14.3516, 19.4547 13.6554, 19.6986 12.9673, 19.9625 12.286, 20.227 11.6053, 20.4657 10.9257, 20.6793 10.2479, 20.8934 9.57, 20.9999 8.88013, 20.9999 8.17708, 20.9999 7.62805, 20.9152 7.09561, 20.7451 6.57921, 20.5757 6.06338, 20.3083 5.60995, 19.9436 5.21893, 19.5789 4.82848, 19.1484 4.52905, 18.6514 4.32123, 18.1545 4.11398, 17.6358 4.00979, 17.0948 4.00921, 16.5543 4.00979, 16.0357 4.11398, 15.5387 4.32123, 15.0418 4.52905, 14.613 4.82848, 14.2511 5.21893, 13.8893 5.60995, 13.622 6.06338, 13.4491 6.57921, 13.2762 7.09561, 13.1897 7.62805, 13.1897 8.17708, 13.1897 8.88013, 13.2985 9.57, 13.5149 10.2479, 13.7319 10.9257, 13.9723 11.6053, 14.2363 12.286, 14.5008 12.9673, 14.7441 13.6571, 14.9674 14.3562, 15.1906 15.0558, 15.3023 15.7777, 15.3023 16.522, 15.3023 16.7241, 15.2049 16.8243, 15.0103 16.8243 L 11.8592 16.8243 C 11.696 16.8243, 11.5953 16.751, 11.5575 16.6044 L 10.8974 13.9846 C 10.8974 13.8203, 10.9855 13.7167, 11.1613 13.6732 L 11.2649 13.6732 C 11.4287 13.6738, 11.5294 13.7499, 11.5672 13.9022, 11.668 14.3241, 11.7607 14.6722, 11.8455 14.947, 11.9302 15.2218, 11.9886 15.3684, 12.0195 15.3861, 12.0825 15.4354, 12.2336 15.4663, 12.4724 15.4783, 12.7117 15.4909, 12.9979 15.4966, 13.3311 15.496 L 14.5385 15.496 C 14.4069 14.947, 14.1567 14.3825, 13.7886 13.802, 13.421 13.222, 13.0386 12.6387, 12.6424 12.0524, 12.2462 11.4662, 11.8958 10.8587, 11.5907 10.2295, 11.2861 9.60092, 11.1333 8.91677, 11.1333 8.17708, 11.1333 7.49351, 11.2936 6.86203, 11.6142 6.28151, 11.9348 5.70155, 12.3659 5.20347, 12.9063 4.78783, 13.4914 4.31837, 14.1458 3.96857, 14.8689 3.73956, 15.592 3.51056, 16.3339 3.39606, 17.0948 3.39548, 17.8562 3.39606, 18.5982 3.51056, 19.3213 3.73956, 20.0444 3.96857, 20.7079 4.31837, 21.3113 4.78783, 21.8398 5.21606, 22.2674 5.71816, 22.5943 6.29525, 22.9212 6.87234, 23.0844 7.49981, 23.0844 8.17708, 23.0844 8.91677, 22.9321 9.60092, 22.627 10.2295, 22.3224 10.8587, 21.9686 11.4662, 21.5661 12.0524, 21.1636 12.6387, 20.7766 13.222, 20.4056 13.802, 20.0346 14.3825, 19.7833 14.947, 19.6511 15.496 L 20.8676 15.496 C 21.2014 15.4966, 21.4877 15.4909, 21.7264 15.4783, 21.9657 15.4663, 22.1163 15.4354, 22.1793 15.3861, 22.1981 15.3747, 22.2514 15.2281, 22.3396 14.947, 22.4277 14.6665, 22.5216 14.3178, 22.6224 13.9022, 22.6602 13.7562, 22.7644 13.68, 22.9338 13.6732 L 23.0374 13.6732 C 23.2075 13.7104, 23.2922 13.814, 23.2922 13.9846 Z" stroke="none" fill="#000000" />
			<rect />
		</svg>
	</g>
	<path d="M -131.929 76.1686 L 131.926 -76.1684" fill="none" stroke="#000000" stroke-width="3.73333335" stroke-linecap="round" stroke-linejoin="round" transform="matrix(0.357143 0 0 0.357143 149.851 139.335)" />
	<path d="M -51.0133 -12.7532 L 51.0133 -12.7532, 51.0133 12.7532, -51.0133 12.7532 Z" stroke="none" fill="#FFFFFF" transform="matrix(0.309295 -0.178572 0.178571 0.309295 146.403 141.059)" />
	<path d="M -51.0133 -12.7532 L 51.0133 -12.7532, 51.0133 12.7532, -51.0133 12.7532 Z" fill="none" stroke="#000000" stroke-width="4.19999981" stroke-linecap="round" stroke-linejoin="round" transform="matrix(0.309295 -0.178572 0.178571 0.309295 146.403 141.059)" />
	<path d="M -131.928 -76.1684 L 131.928 76.1686" fill="none" stroke="#000000" stroke-width="3.73333335" stroke-linecap="round" stroke-linejoin="round" transform="matrix(0.357143 0 0 0.357143 55.6179 139.335)" />
	<path d="M -51.0133 -12.7532 L 51.0133 -12.7532, 51.0133 12.7532, -51.0133 12.7532 Z" stroke="none" fill="#FFFFFF" transform="matrix(0.309295 0.178571 -0.178571 0.309295 59.0662 141.059)" />
	<path d="M -51.0133 -12.7532 L 51.0133 -12.7532, 51.0133 12.7532, -51.0133 12.7532 Z" fill="none" stroke="#000000" stroke-width="4.19999981" stroke-linecap="round" stroke-linejoin="round" transform="matrix(0.309295 0.178571 -0.178571 0.309295 59.0662 141.059)" />
	<path d="M -131.928 76.1685 L 131.927 -76.1684" fill="none" stroke="#000000" stroke-width="3.73333335" stroke-linecap="round" stroke-linejoin="round" transform="matrix(0.357143 0 0 0.357143 55.6172 84.9291)" />
	<path d="M -51.0133 -12.7532 L 51.0133 -12.7532, 51.0133 12.7532, -51.0133 12.7532 Z" stroke="none" fill="#FFFFFF" transform="matrix(0.309295 -0.178572 0.178571 0.309295 59.0655 83.205)" />
	<path d="M -51.0133 -12.7532 L 51.0133 -12.7532, 51.0133 12.7532, -51.0133 12.7532 Z" fill="none" stroke="#000000" stroke-width="4.19999981" stroke-linecap="round" stroke-linejoin="round" transform="matrix(0.309295 -0.178572 0.178571 0.309295 59.0655 83.205)" />
	<path d="M -131.927 -76.1686 L 131.927 76.1685" fill="none" stroke="#000000" stroke-width="3.73333335" stroke-linecap="round" stroke-linejoin="round" transform="matrix(0.357143 0 0 0.357143 149.852 84.9291)" />
	<path d="M -51.0134 -12.7532 L 51.0134 -12.7532, 51.0134 12.7532, -51.0134 12.7532 Z" stroke="none" fill="#FFFFFF" transform="matrix(0.309295 0.178571 -0.178571 0.309295 146.404 83.205)" />
	<path d="M -51.0134 -12.7532 L 51.0134 -12.7532, 51.0134 12.7532, -51.0134 12.7532 Z" fill="none" stroke="#000000" stroke-width="4.19999981" stroke-linecap="round" stroke-linejoin="round" transform="matrix(0.309295 0.178571 -0.178571 0.309295 146.404 83.205)" />
	<ellipse cx="1086.6556644439697" cy="705.10634803771973" rx="7.3500003814697266" ry="7.3500003814697266" stroke="none" fill="#000000" transform="matrix(0.357143 0 0 0.357143 -285.357 -85.7475)" />
	<ellipse cx="1086.6556644439697" cy="402.61446571350098" rx="7.3500003814697266" ry="7.3500003814697266" stroke="none" fill="#000000" transform="matrix(0.357143 0 0 0.357143 -285.357 -85.7475)" />
	<path d="M 0 -164.93 L 0 164.93" fill="none" stroke="#000000" stroke-width="3.73333335" stroke-linecap="round" stroke-linejoin="round" transform="matrix(0.357143 0 0 0.357143 8.5 171.036)" />
	<path d="M 0 -26.9967 L 0 26.9968" fill="none" stroke="#000000" stroke-width="3.73333335" stroke-linecap="round" stroke-linejoin="round" transform="matrix(0.357143 0 0 0.357143 102.734 48.4846)" />
	<path d="M -263.857 0 L 263.856 0" fill="none" stroke="#000000" stroke-width="3.73333335" stroke-linecap="round" stroke-linejoin="round" transform="matrix(0.357143 0 0 0.357143 102.735 229.94)" />
	<path d="M 0 -63.7661 L 0 -42.5103" fill="none" stroke="#000000" stroke-width="2.79999995" stroke-linecap="round" stroke-linejoin="round" transform="matrix(2.69635e-008 0.357143 -0.357143 2.69635e-008 102.734 229.94)" />
	<path d="M 0 63.7661 L 0 42.5103" fill="none" stroke="#000000" stroke-width="2.79999995" stroke-linecap="round" stroke-linejoin="round" transform="matrix(2.69635e-008 0.357143 -0.357143 2.69635e-008 102.734 229.94)" />
	<path d="M 42.5103 -0 C 42.5103 23.4778, 23.4778 42.5103, -0 42.5103, -23.4778 42.5103, -42.5103 23.4778, -42.5103 -0, -42.5103 -23.4778, -23.4778 -42.5103, -0 -42.5103, 23.4778 -42.5103, 42.5103 -23.4778, 42.5103 -0 Z" stroke="none" fill="#FFFFFF" transform="matrix(2.69635e-008 0.357143 -0.357143 2.69635e-008 102.734 229.94)" />
	<path d="M 42.5103 -0 C 42.5103 23.4778, 23.4778 42.5103, -0 42.5103, -23.4778 42.5103, -42.5103 23.4778, -42.5103 -0, -42.5103 -23.4778, -23.4778 -42.5103, -0 -42.5103, 23.4778 -42.5103, 42.5103 -23.4778, 42.5103 -0 Z" fill="none" stroke="#000000" stroke-width="4.19999981" stroke-linecap="round" stroke-linejoin="round" transform="matrix(2.69635e-008 0.357143 -0.357143 2.69635e-008 102.734 229.94)" />
	<path d="M -42.5103 0 L 42.5103 0" fill="none" stroke="#000000" stroke-width="2.79999995" stroke-linecap="round" stroke-linejoin="round" transform="matrix(2.69635e-008 0.357143 -0.357143 2.69635e-008 102.734 229.94)" />
	<path d="M 0 -164.93 L 0 164.93" fill="none" stroke="#000000" stroke-width="3.73333335" stroke-linecap="round" stroke-linejoin="round" transform="matrix(0.357143 0 0 0.357143 196.969 171.036)" />
	<path d="M -199.237 0 L 199.237 3.05176e-005" fill="none" stroke="#000000" stroke-width="3.73333335" stroke-linecap="round" stroke-linejoin="round" transform="matrix(0.357143 0 0 0.357143 173.891 38.8429)" />
	<path d="M -199.237 0 L 199.237 0" fill="none" stroke="#000000" stroke-width="3.73333335" stroke-linecap="round" stroke-linejoin="round" transform="matrix(0.357143 0 0 0.357143 173.891 185.36)" />
	<path d="M 0 -205.123 L 0 205.123" fill="none" stroke="#000000" stroke-width="3.73333335" stroke-linecap="round" stroke-linejoin="round" transform="matrix(0.357143 0 0 0.357143 245.047 112.101)" />
	<path d="M -85.0224 0 L -51.0134 0" fill="none" stroke="#000000" stroke-width="2.79999995" stroke-linecap="round" stroke-linejoin="round" transform="matrix(2.69635e-008 0.357143 -0.357143 2.69635e-008 245.047 112.101)" />
	<path d="M 51.0134 0 L 85.0224 0" fill="none" stroke="#000000" stroke-width="2.79999995" stroke-linecap="round" stroke-linejoin="round" transform="matrix(2.69635e-008 0.357143 -0.357143 2.69635e-008 245.047 112.101)" />
	<path d="M -51.0134 -12.7534 L 51.0134 -12.7534, 51.0134 12.7534, -51.0134 12.7534 Z" stroke="none" fill="#FFFFFF" transform="matrix(2.69635e-008 0.357143 -0.357143 2.69635e-008 245.047 112.101)" />
	<path d="M -51.0134 -12.7534 L 51.0134 -12.7534, 51.0134 12.7534, -51.0134 12.7534 Z" fill="none" stroke="#000000" stroke-width="4.19999981" stroke-linecap="round" stroke-linejoin="round" transform="matrix(2.69635e-008 0.357143 -0.357143 2.69635e-008 245.047 112.101)" />
	<path d="M -21.2556 42.5112 L 21.2556 -42.5112" fill="none" stroke="#000000" stroke-width="2.79999995" stroke-linecap="round" stroke-linejoin="round" transform="matrix(2.69635e-008 0.357143 -0.357143 2.69635e-008 245.047 112.101)" />
	<path d="M -21.2556 42.5112 L 21.2556 -42.5112, 46.7624 -42.5112" fill="none" stroke="#000000" stroke-width="2.79999995" stroke-linecap="round" stroke-linejoin="round" transform="matrix(2.69635e-008 0.357143 -0.357143 2.69635e-008 245.047 112.101)" />
	<g transform="matrix(1 0 -0 1 268.867 100.867)">
		<svg width="62.9920158" height="54.1276474">
			<defs />
			<path d="M 12.9653 14.9922 C 12.8966 15.2676, 12.793 15.5378, 12.6545 15.8035, 12.5159 16.0691, 12.3465 16.309, 12.1449 16.5226, 11.9434 16.7367, 11.7184 16.9113, 11.47 17.0487, 11.2215 17.1861, 10.953 17.2548, 10.6633 17.2548, 9.75128 17.2548, 9.06541 17.0138, 8.60626 16.5311, 8.29195 16.202, 8.13451 15.7869, 8.13451 15.2854, 8.13451 15.0295, 8.17573 14.7518, 8.2576 14.4518 L 8.68183 12.8121 C 8.73221 12.6049, 8.7574 12.4097, 8.7574 12.2259, 8.7574 12.1348, 8.7511 12.0404, 8.73851 11.9419, 8.70072 11.686, 8.61313 11.4604, 8.47458 11.2646, 8.33603 11.0694, 8.15856 10.9154, 7.94158 10.802, 7.72459 10.6893, 7.46811 10.6326, 7.17212 10.632 L 5.0401 10.632, 3.78515 15.5144 C 3.75996 15.6312, 3.74737 15.7256, 3.74737 15.7983, 3.74737 15.8905, 3.76626 15.9518, 3.80405 15.9815, 3.88592 16.0308, 4.05595 16.06, 4.31358 16.0691, 4.57178 16.0783, 4.84831 16.0829, 5.14372 16.0823, 5.32005 16.0829, 5.40822 16.1562, 5.40822 16.3021, 5.40822 16.3394, 5.40192 16.3789, 5.38933 16.4212 L 5.35154 16.5678 C 5.28284 16.751, 5.15975 16.8426, 4.98342 16.8426, 4.20996 16.806, 3.4302 16.7876, 2.64357 16.7876, 1.85751 16.7876, 1.06802 16.806, 0.27567 16.8426, 0.106207 16.8426, 0.0151782 16.7636, 0.00201051 16.6044 L 0.00201051 16.5311, 0.0397962 16.3754 C 0.090177 16.1745, 0.212694 16.0766, 0.407347 16.0823, 0.703335 16.0829, 0.983292 16.0783, 1.24722 16.0691, 1.51172 16.06, 1.70637 16.0279, 1.83232 15.9724, 1.95198 15.906, 2.04301 15.7411, 2.10598 15.4777 L 4.75728 5.15423 C 4.79506 5.02027, 4.81338 4.91664, 4.81338 4.84279, 4.81338 4.77008, 4.79792 4.72714, 4.76644 4.71455, 4.67827 4.66016, 4.50709 4.62695, 4.25232 4.61436, 3.99756 4.60234, 3.71932 4.59604, 3.41703 4.59547, 3.24127 4.59604, 3.1531 4.5136, 3.1531 4.34814 L 3.1531 4.27486, 3.20978 4.11914 C 3.24757 3.93651, 3.36436 3.84491, 3.55901 3.84433 L 8.87076 3.84433 C 9.46846 3.84491, 10.0375 3.92448, 10.5786 4.08307, 11.1196 4.24223, 11.5913 4.50444, 11.9938 4.87027, 12.327 5.16397, 12.5692 5.52408, 12.7203 5.95117, 12.8148 6.18361, 12.8652 6.42521, 12.8709 6.67482, 12.8709 6.90154, 12.8365 7.12424, 12.7673 7.34351, 12.6482 7.83244, 12.3997 8.27556, 12.0219 8.67231, 11.6446 9.06963, 11.2198 9.40798, 10.748 9.68851, 10.4211 9.87859, 10.0896 10.036, 9.753 10.1608, 9.41636 10.2862, 9.17591 10.3641, 9.03106 10.3938, 9.38945 10.5347, 9.72952 10.8095, 10.0501 11.2183, 10.3209 11.5732, 10.456 11.9974, 10.456 12.4915, 10.456 12.5957, 10.4497 12.6999, 10.4371 12.803 L 10.2574 14.4518 C 10.2076 14.88, 10.1824 15.2522, 10.1824 15.5693, 10.1824 15.7777, 10.195 15.9609, 10.2202 16.1189, 10.2642 16.4796, 10.4526 16.66, 10.7858 16.6594, 11.0881 16.66, 11.3646 16.4968, 11.6165 16.1699, 11.8684 15.8436, 12.0539 15.4388, 12.173 14.9556, 12.2423 14.773, 12.3648 14.6842, 12.5411 14.69 L 12.6917 14.69 C 12.8617 14.6905, 12.9528 14.7701, 12.9653 14.9281 L 12.9653 14.9922 Z M 10.748 7.28855 C 10.8488 6.92272, 10.9055 6.55631, 10.9181 6.18933 L 10.9181 6.13437 C 10.9181 5.8235, 10.8207 5.55499, 10.6255 5.32828, 10.3931 5.06034, 10.0896 4.87084, 9.71521 4.76092, 9.34079 4.651, 8.9303 4.59604, 8.48374 4.59547 L 7.2288 4.59547 C 6.9082 4.59604, 6.7164 4.62066, 6.65343 4.66932, 6.59045 4.71856, 6.52461 4.89203, 6.45534 5.19088 L 5.21013 10.0366, 7.03071 10.0366 C 7.47727 10.0372, 7.9181 9.98221, 8.35207 9.87229, 8.78603 9.76237, 9.19823 9.56714, 9.58754 9.28547, 9.92131 9.04787, 10.1732 8.74902, 10.3427 8.38834, 10.5127 8.02823, 10.6478 7.66183, 10.748 7.28855 Z" stroke="none" fill="#000000" />
			<path d="M 2.98718 -0.680915 C 2.94871 -0.526704, 2.87016 -0.411286, 2.75218 -0.33434, 2.63419 -0.257395, 2.51557 -0.218922, 2.39566 -0.219243, 2.27255 -0.218922, 2.17028 -0.258357, 2.08916 -0.337226, 2.02953 -0.394935, 1.99779 -0.470277, 1.99394 -0.562932, 1.99394 -0.600122, 2.001 -0.648213, 2.0151 -0.706563, 2.05422 -0.836088, 2.11417 -0.934514, 2.19496 -1.0012, 2.27608 -1.06789, 2.3325 -1.10636, 2.36392 -1.11694, 2.29724 -1.16791, 2.1597 -1.19356, 1.95195 -1.19388, 1.76888 -1.19356, 1.60505 -1.09866, 1.46078 -0.908866, 1.31651 -0.719067, 1.20878 -0.490796, 1.13825 -0.224373 L 0.652211 1.65309 C 0.603158 1.84161, 0.566288 2.02115, 0.541281 2.19171, 0.527495 2.25006, 0.520442 2.30136, 0.520442 2.3456, 0.520442 2.45204, 0.538075 2.55271, 0.573021 2.64825, 0.608288 2.75117, 0.661188 2.83324, 0.731721 2.8948, 0.802254 2.95635, 0.892024 2.98713, 1.00103 2.98681, 1.1421 2.98713, 1.27771 2.95058, 1.40788 2.87684, 1.53804 2.80343, 1.65795 2.70436, 1.76696 2.57932, 1.87628 2.45461, 1.97311 2.30937, 2.05774 2.1433, 2.14239 1.97755, 2.20907 1.8073, 2.25812 1.63257, 2.27928 1.54409, 2.33924 1.49952, 2.43798 1.4992 L 2.55917 1.4992 C 2.65087 1.49952, 2.69671 1.53383, 2.69671 1.6018, 2.69671 1.62264, 2.69158 1.64155, 2.68068 1.65822, 2.63163 1.86373, 2.55148 2.06635, 2.44055 2.26641, 2.32962 2.46647, 2.20041 2.64344, 2.05229 2.79733, 1.9045 2.95122, 1.7365 3.07786, 1.54798 3.17661, 1.35947 3.276, 1.15781 3.32537, 0.943 3.32537, 0.724668 3.32537, 0.536152 3.27856, 0.377773 3.1843, 0.219393 3.09069, 0.0908306 2.96822, -0.00791597 2.81753, -0.0393353 2.78034, -0.0640218 2.74187, -0.081655 2.70243, -0.0992883 2.66332, -0.104739 2.65723, -0.0976853 2.68416, -0.182325 2.82459, -0.316018 2.96661, -0.499083 3.11024, -0.682149 3.25388, -0.893428 3.32537, -1.13324 3.32537, -1.26693 3.32537, -1.39902 3.30838, -1.52919 3.27407, -1.65935 3.24009, -1.77317 3.18719, -1.86999 3.11537, -1.96682 3.04356, -2.03991 2.95635, -2.08929 2.85344, -2.11365 2.7922, -2.12584 2.72552, -2.12616 2.65338, -2.12584 2.60241, -2.11878 2.54245, -2.105 2.47384, -2.0662 2.32027, -1.98701 2.20485, -1.86743 2.12791, -1.74752 2.05096, -1.62794 2.01249, -1.50803 2.01217, -1.38492 2.01249, -1.27912 2.05193, -1.19127 2.13015, -1.13132 2.1885, -1.1015 2.26385, -1.1015 2.35586, -1.1015 2.40395, -1.10855 2.45204, -1.12266 2.49949, -1.15408 2.6194, -1.21147 2.71622, -1.29418 2.78964, -1.3769 2.86338, -1.43589 2.90345, -1.47116 2.90987, -1.40415 2.96501, -1.26854 2.99066, -1.06431 2.98681, -0.881245 2.98713, -0.715813 2.89159, -0.568014 2.69987, -0.419894 2.50847, -0.312491 2.27924, -0.245805 2.01217 L 0.245683 0.124446 C 0.295056 -0.0531695, 0.333529 -0.227579, 0.361742 -0.398782, 0.368796 -0.453285, 0.372322 -0.504582, 0.372322 -0.552673, 0.372322 -0.658473, 0.356612 -0.75754, 0.324872 -0.850195, 0.289606 -0.952468, 0.235103 -1.03518, 0.161043 -1.09866, 0.0873039 -1.16182, -0.00438929 -1.19356, -0.113716 -1.19388, -0.254461 -1.19356, -0.390719 -1.15669, -0.522808 -1.08328, -0.654898 -1.00954, -0.775445 -0.911431, -0.884772 -0.788318, -0.993778 -0.665205, -1.0906 -0.522215, -1.17524 -0.359989, -1.25988 -0.197442, -1.32144 -0.0255973, -1.36023 0.155224, -1.3987 0.247879, -1.46411 0.295649, -1.5558 0.298855 L -1.67186 0.298855 C -1.7565 0.299176, -1.79882 0.256536, -1.79882 0.170613 L -1.79882 0.134705 C -1.74592 -0.0768943, -1.6648 -0.283044, -1.5558 -0.483101, -1.44647 -0.683159, -1.31599 -0.860133, -1.16466 -1.01402, -1.01333 -1.16791, -0.844055 -1.29359, -0.657462 -1.39106, -0.47087 -1.48852, -0.268247 -1.53725, -0.0502357 -1.53757, 0.161364 -1.53725, 0.347956 -1.49108, 0.509862 -1.39875, 0.671768 -1.30642, 0.803857 -1.1833, 0.90581 -1.02973, 0.92697 -0.991902, 0.946527 -0.951506, 0.96416 -0.908866, 0.981793 -0.865905, 0.986923 -0.855004, 0.97987 -0.875843, 1.06804 -1.02589, 1.20365 -1.17369, 1.38672 -1.31924, 1.56978 -1.46447, 1.77914 -1.53725, 2.0151 -1.53757, 2.14912 -1.53725, 2.28217 -1.5209, 2.41426 -1.48852, 2.54635 -1.45582, 2.66048 -1.40388, 2.75731 -1.33206, 2.85413 -1.26025, 2.92562 -1.17144, 2.97147 -1.06564, 2.99616 -1.00376, 3.00834 -0.933552, 3.00834 -0.855325, 3.00834 -0.803707, 3.00129 -0.745677, 2.98718 -0.680915 Z" stroke="none" fill="#000000" transform="matrix(1.12 0 0 1 16.0636 16.3063)" />
			<rect />
		</svg>
	</g>
	<path d="M -18.4713 -11.2886 L -18.4713 11.2886, 18.4713 0 Z" stroke="none" fill="#000000" transform="matrix(-0.357143 5.39271e-008 5.39271e-008 0.357143 51.8122 229.94)" />
	<g transform="matrix(1 0 -0 1 214.226 9)">
		<svg width="29.9820557" height="45.2233963">
			<defs />
			<path d="M 8.72448 4.3115 C 8.70559 4.39165, 8.66322 4.45864, 8.59681 4.5136, 8.53097 4.56856, 8.45082 4.59604, 8.35636 4.59547, 8.06094 4.59604, 7.77182 4.60234, 7.489 4.61436, 7.20618 4.62695, 7.00123 4.66016, 6.87527 4.71455, 6.7436 4.75806, 6.64627 4.91664, 6.58329 5.19088 L 3.93257 15.5144 C 3.90738 15.6312, 3.89479 15.7319, 3.89479 15.8167, 3.89479 15.9025, 3.91082 15.9546, 3.94173 15.9724, 4.0299 16.0279, 4.21253 16.06, 4.48905 16.0691, 4.76615 16.0783, 5.05813 16.0829, 5.36614 16.0823, 5.54247 16.0829, 5.63064 16.1562, 5.63064 16.3021, 5.63064 16.3394, 5.62434 16.3789, 5.61174 16.4212 L 5.57396 16.5678 C 5.50468 16.751, 5.38503 16.8426, 5.21557 16.8426, 4.40432 16.806, 3.58334 16.7876, 2.7532 16.7876, 1.92993 16.7876, 1.0935 16.806, 0.243893 16.8426, 0.0813007 16.8426, -0.000568226 16.7636, -0.00114073 16.6044 L -0.00114073 16.5311, 0.0366449 16.3754 C 0.0875983 16.1745, 0.210115 16.0766, 0.404769 16.0823, 0.712779 16.0829, 1.00877 16.0783, 1.29159 16.0691, 1.57441 16.06, 1.77879 16.0279, 1.90417 15.9724, 2.01753 15.9117, 2.10913 15.7468, 2.17783 15.4777 L 4.84744 5.15423 C 4.87263 5.03859, 4.88523 4.94699, 4.88523 4.87943, 4.88523 4.7884, 4.86977 4.73058, 4.83828 4.70539, 4.73752 4.6573, 4.54917 4.62695, 4.27207 4.61436, 3.99555 4.60234, 3.70929 4.59604, 3.41388 4.59547, 3.23755 4.59604, 3.14938 4.5136, 3.14938 4.34814 L 3.14938 4.28402, 3.18717 4.11914 C 3.25644 3.93651, 3.37609 3.84491, 3.54556 3.84433, 4.36997 3.86952, 5.19667 3.88155, 6.02681 3.88097, 6.86325 3.88155, 7.69339 3.86952, 8.51666 3.84433, 8.60483 3.84491, 8.6804 3.87525, 8.74337 3.93593, 8.76856 3.98517, 8.78116 4.03097, 8.78116 4.07334, 8.78116 4.11055, 8.772 4.14433, 8.75253 4.1741 Z" stroke="none" fill="#000000" />
			<rect />
		</svg>
	</g>
</svg>
