<?xml version="1.0"?>
<svg xmlns="http://www.w3.org/2000/svg" xmlns:xlink="http://www.w3.org/1999/xlink" width="228.27301" height="168.208664">
	<defs />
	<path d="M 0 -55.3145 L 0 -39.4737" fill="none" stroke="#000000" stroke-width="2.5999999" stroke-linecap="round" stroke-linejoin="round" transform="matrix(0.384615 -1.16151e-007 1.16151e-007 0.384615 99.5352 52.2915)" />
	<path d="M 0 55.3145 L 0 39.4737" fill="none" stroke="#000000" stroke-width="2.5999999" stroke-linecap="round" stroke-linejoin="round" transform="matrix(0.384615 -1.16151e-007 1.16151e-007 0.384615 99.5352 52.2915)" />
	<path d="M 39.4737 -0 C 39.4737 21.8007, 21.8007 39.4737, -0 39.4737, -21.8007 39.4737, -39.4737 21.8007, -39.4737 -0, -39.4737 -21.8007, -21.8007 -39.4737, -0 -39.4737, 21.8007 -39.4737, 39.4737 -21.8007, 39.4737 -0 Z" stroke="none" fill="#FFFFFF" transform="matrix(0.384615 -1.16151e-007 1.16151e-007 0.384615 99.5352 52.2915)" />
	<path d="M 39.4737 -0 C 39.4737 21.8007, 21.8007 39.4737, -0 39.4737, -21.8007 39.4737, -39.4737 21.8007, -39.4737 -0, -39.4737 -21.8007, -21.8007 -39.4737, -0 -39.4737, 21.8007 -39.4737, 39.4737 -21.8007, 39.4737 -0 Z" fill="none" stroke="#000000" stroke-width="3.89999986" stroke-linecap="round" stroke-linejoin="round" transform="matrix(0.384615 -1.16151e-007 1.16151e-007 0.384615 99.5352 52.2915)" />
	<path d="M 0 -39.4737 L 0 39.4737" fill="none" stroke="#000000" stroke-width="2.5999999" stroke-linecap="round" stroke-linejoin="round" transform="matrix(0.384615 -1.16151e-007 1.16151e-007 0.384615 99.5352 52.2915)" />
	<path d="M -51.3159 -55.3145 L -27.6316 -55.3145" fill="none" stroke="#000000" stroke-width="2.5999999" stroke-linecap="round" stroke-linejoin="round" transform="matrix(0.384615 -1.16151e-007 1.16151e-007 0.384615 99.5352 52.2915)" />
	<path d="M -39.4737 -67.1566 L -39.4737 -43.4723" fill="none" stroke="#000000" stroke-width="2.5999999" stroke-linecap="round" stroke-linejoin="round" transform="matrix(0.384615 -1.16151e-007 1.16151e-007 0.384615 99.5352 52.2915)" />
	<path d="M -51.3159 55.3145 L -27.6316 55.3145" fill="none" stroke="#000000" stroke-width="2.5999999" stroke-linecap="round" stroke-linejoin="round" transform="matrix(0.384615 -1.16151e-007 1.16151e-007 0.384615 99.5352 52.2915)" />
	<path d="M -102.996 -196.571 L 102.996 -196.571, 102.996 196.571, -102.996 196.571 Z" fill="none" stroke="#000000" stroke-width="3.4666667" stroke-linecap="round" stroke-linejoin="round" transform="matrix(0.384615 0 -0 0.384615 139.15 84.1044)" />
	<g transform="matrix(1 0 -0 1 9 107.684)">
		<svg width="230.912262" height="98.936142">
			<defs />
			<path d="M 12.9653 14.9922 C 12.8966 15.2676, 12.793 15.5378, 12.6545 15.8035, 12.5159 16.0691, 12.3465 16.309, 12.1449 16.5226, 11.9434 16.7367, 11.7184 16.9113, 11.47 17.0487, 11.2215 17.1861, 10.953 17.2548, 10.6633 17.2548, 9.75128 17.2548, 9.06541 17.0138, 8.60626 16.5311, 8.29195 16.202, 8.13451 15.7869, 8.13451 15.2854, 8.13451 15.0295, 8.17573 14.7518, 8.2576 14.4518 L 8.68183 12.8121 C 8.73221 12.6049, 8.7574 12.4097, 8.7574 12.2259, 8.7574 12.1348, 8.7511 12.0404, 8.73851 11.9419, 8.70072 11.686, 8.61313 11.4604, 8.47458 11.2646, 8.33603 11.0694, 8.15856 10.9154, 7.94158 10.802, 7.72459 10.6893, 7.46811 10.6326, 7.17212 10.632 L 5.0401 10.632, 3.78515 15.5144 C 3.75996 15.6312, 3.74737 15.7256, 3.74737 15.7983, 3.74737 15.8905, 3.76626 15.9518, 3.80405 15.9815, 3.88592 16.0308, 4.05595 16.06, 4.31358 16.0691, 4.57178 16.0783, 4.84831 16.0829, 5.14372 16.0823, 5.32005 16.0829, 5.40822 16.1562, 5.40822 16.3021, 5.40822 16.3394, 5.40192 16.3789, 5.38933 16.4212 L 5.35154 16.5678 C 5.28284 16.751, 5.15975 16.8426, 4.98342 16.8426, 4.20996 16.806, 3.4302 16.7876, 2.64357 16.7876, 1.85751 16.7876, 1.06802 16.806, 0.27567 16.8426, 0.106207 16.8426, 0.0151782 16.7636, 0.00201051 16.6044 L 0.00201051 16.5311, 0.0397962 16.3754 C 0.090177 16.1745, 0.212694 16.0766, 0.407347 16.0823, 0.703335 16.0829, 0.983292 16.0783, 1.24722 16.0691, 1.51172 16.06, 1.70637 16.0279, 1.83232 15.9724, 1.95198 15.906, 2.04301 15.7411, 2.10598 15.4777 L 4.75728 5.15423 C 4.79506 5.02027, 4.81338 4.91664, 4.81338 4.84279, 4.81338 4.77008, 4.79792 4.72714, 4.76644 4.71455, 4.67827 4.66016, 4.50709 4.62695, 4.25232 4.61436, 3.99756 4.60234, 3.71932 4.59604, 3.41703 4.59547, 3.24127 4.59604, 3.1531 4.5136, 3.1531 4.34814 L 3.1531 4.27486, 3.20978 4.11914 C 3.24757 3.93651, 3.36436 3.84491, 3.55901 3.84433 L 8.87076 3.84433 C 9.46846 3.84491, 10.0375 3.92448, 10.5786 4.08307, 11.1196 4.24223, 11.5913 4.50444, 11.9938 4.87027, 12.327 5.16397, 12.5692 5.52408, 12.7203 5.95117, 12.8148 6.18361, 12.8652 6.42521, 12.8709 6.67482, 12.8709 6.90154, 12.8365 7.12424, 12.7673 7.34351, 12.6482 7.83244, 12.3997 8.27556, 12.0219 8.67231, 11.6446 9.06963, 11.2198 9.40798, 10.748 9.68851, 10.4211 9.87859, 10.0896 10.036, 9.753 10.1608, 9.41636 10.2862, 9.17591 10.3641, 9.03106 10.3938, 9.38945 10.5347, 9.72952 10.8095, 10.0501 11.2183, 10.3209 11.5732, 10.456 11.9974, 10.456 12.4915, 10.456 12.5957, 10.4497 12.6999, 10.4371 12.803 L 10.2574 14.4518 C 10.2076 14.88, 10.1824 15.2522, 10.1824 15.5693, 10.1824 15.7777, 10.195 15.9609, 10.2202 16.1189, 10.2642 16.4796, 10.4526 16.66, 10.7858 16.6594, 11.0881 16.66, 11.3646 16.4968, 11.6165 16.1699, 11.8684 15.8436, 12.0539 15.4388, 12.173 14.9556, 12.2423 14.773, 12.3648 14.6842, 12.5411 14.69 L 12.6917 14.69 C 12.8617 14.6905, 12.9528 14.7701, 12.9653 14.9281 L 12.9653 14.9922 Z M 10.748 7.28855 C 10.8488 6.92272, 10.9055 6.55631, 10.9181 6.18933 L 10.9181 6.13437 C 10.9181 5.8235, 10.8207 5.55499, 10.6255 5.32828, 10.3931 5.06034, 10.0896 4.87084, 9.71521 4.76092, 9.34079 4.651, 8.9303 4.59604, 8.48374 4.59547 L 7.2288 4.59547 C 6.9082 4.59604, 6.7164 4.62066, 6.65343 4.66932, 6.59045 4.71856, 6.52461 4.89203, 6.45534 5.19088 L 5.21013 10.0366, 7.03071 10.0366 C 7.47727 10.0372, 7.9181 9.98221, 8.35207 9.87229, 8.78603 9.76237, 9.19823 9.56714, 9.58754 9.28547, 9.92131 9.04787, 10.1732 8.74902, 10.3427 8.38834, 10.5127 8.02823, 10.6478 7.66183, 10.748 7.28855 Z" stroke="none" fill="#000000" />
			<path d="M 1.70456 -3.31244 C 1.67282 -3.18228, 1.59973 -3.07359, 1.48527 -2.98639, 1.37081 -2.89918, 1.24674 -2.85558, 1.11273 -2.8559, 0.971981 -2.85558, 0.864578 -2.90335, 0.790519 -2.99953, 0.741145 -3.05404, 0.714855 -3.12072, 0.711008 -3.19959, 0.711008 -3.24704, 0.718062 -3.29513, 0.732168 -3.34322, 0.764229 -3.47275, 0.838289 -3.58143, 0.954348 -3.66864, 1.07041 -3.75584, 1.19544 -3.79944, 1.32946 -3.79976, 1.47052 -3.79944, 1.57793 -3.75328, 1.65166 -3.66126, 1.70104 -3.59586, 1.72572 -3.52597, 1.72572 -3.45095, 1.72572 -3.40286, 1.71867 -3.35669, 1.70456 -3.31244 Z M 1.76259 1.66335 C 1.72412 1.84161, 1.66417 2.02884, 1.58306 2.22537, 1.50226 2.42223, 1.40255 2.6008, 1.28457 2.76143, 1.16659 2.92237, 1.02809 3.05638, 0.869708 3.16379, 0.711329 3.27151, 0.527943 3.32537, 0.32019 3.32537, 0.144178 3.32537, -0.00714791 3.28786, -0.134108 3.21252, -0.261067 3.1375, -0.358852 3.03843, -0.427462 2.91532, -0.496071 2.7922, -0.530376 2.65531, -0.530376 2.50462, -0.537429 2.49821, -0.540956 2.48442, -0.540956 2.46358, -0.540956 2.31001, -0.507292 2.1526, -0.440606 1.99165 L 0.41541 -0.26541 C 0.52121 -0.548826, 0.573789 -0.781585, 0.573789 -0.963048, 0.573789 -1.11662, 0.508706 -1.19356, 0.37822 -1.19388, 0.258634 -1.19356, 0.151231 -1.15926, 0.0560113 -1.09097, -0.0388879 -1.02236, -0.126093 -0.92746, -0.205603 -0.806272, -0.284792 -0.684762, -0.355967 -0.541131, -0.419447 -0.375378, -0.482926 -0.209304, -0.535826 -0.0326507, -0.578146 0.155224, -0.616619 0.247879, -0.681702 0.295649, -0.773395 0.298855 L -0.889775 0.298855 C -0.974415 0.299176, -1.01673 0.256536, -1.01673 0.170613 L -1.01673 0.134705 C -0.974415 -0.0531695, -0.910935 -0.245212, -0.826295 -0.442064, -0.741655 -0.638595, -0.639702 -0.817172, -0.519796 -0.978116, -0.39989 -1.13874, -0.260747 -1.27211, -0.102368 -1.37823, 0.0560113 -1.48403, 0.237474 -1.53725, 0.4417 -1.53757, 0.618033 -1.53725, 0.767756 -1.49942, 0.890868 -1.4244, 1.0143 -1.34906, 1.10856 -1.24903, 1.17364 -1.12431, 1.23872 -0.999276, 1.27463 -0.85853, 1.28169 -0.701434 L 1.28169 -0.665526 C 1.28169 -0.518047, 1.25187 -0.36608, 1.19192 -0.208984 L 0.3359 2.05834 C 0.237474 2.33566, 0.188101 2.57163, 0.188101 2.76624, 0.181047 2.77329, 0.177521 2.77329, 0.177521 2.76624, 0.177521 2.91371, 0.244527 2.98713, 0.37822 2.98681, 0.498126 2.98713, 0.606491 2.95122, 0.703314 2.87941, 0.800137 2.80759, 0.888303 2.71205, 0.967493 2.59215, 1.04668 2.47256, 1.11625 2.32893, 1.17621 2.16125, 1.23616 1.9939, 1.29066 1.81756, 1.34004 1.63257, 1.3612 1.54409, 1.42275 1.49952, 1.5247 1.4992 L 1.64108 1.4992 C 1.67988 1.49952, 1.71867 1.51139, 1.75714 1.53511, 1.76804 1.56268, 1.7767 1.58673, 1.78375 1.60693, 1.78375 1.62777, 1.7767 1.64668, 1.76259 1.66335 Z" stroke="none" fill="#000000" transform="matrix(1.12 0 0 1 14.9534 16.3063)" />
			<polyline points="-6.566 -1.9698 6.566 -1.9698" fill="none" stroke="#000000" stroke-width="0.750400007" stroke-linecap="round" stroke-linejoin="round" transform="matrix(1 0 0 1 29.2319 11.2074)" />
			<polyline points="-6.566 1.9698 6.566 1.9698" fill="none" stroke="#000000" stroke-width="0.750400007" stroke-linecap="round" stroke-linejoin="round" transform="matrix(1 0 0 1 29.2319 11.2074)" />
			<path d="M 48.8465 16.7669 L 41.3216 16.7669, 41.3216 16.2732 C 41.3216 16.2379, 41.3401 16.184, 41.3772 16.1116 L 44.4001 12.826 C 44.7581 12.4316, 45.12 12.0277, 45.4869 11.6147, 45.8539 11.2018, 46.1815 10.7799, 46.471 10.349, 46.7605 9.91808, 46.9917 9.47372, 47.1645 9.01589, 47.3373 8.55807, 47.4231 8.0778, 47.4231 7.57453, 47.4231 7.15037, 47.3682 6.7537, 47.2571 6.38565, 47.146 6.01759, 46.9861 5.69442, 46.7762 5.41613, 46.5664 5.13785, 46.3044 4.91343, 45.9902 4.74286, 45.676 4.5723, 45.3124 4.48702, 44.8995 4.48646, 44.2834 4.48702, 43.7392 4.67105, 43.2679 5.0391, 42.7966 5.40716, 42.4836 5.8128, 42.3293 6.25492, 42.299 6.26726, 42.3484 6.27343, 42.4774 6.27287 L 42.6345 6.27287 C 42.8196 6.31551, 42.9795 6.38004, 43.1153 6.46644, 43.2511 6.5534, 43.365 6.67291, 43.4576 6.82552, 43.5501 6.97812, 43.5961 7.16215, 43.5961 7.37704, 43.5961 7.73668, 43.4795 8.01216, 43.2449 8.20348, 43.0104 8.39536, 42.7484 8.49074, 42.4589 8.49018, 42.1817 8.49074, 41.9231 8.39536, 41.6824 8.20348, 41.4422 8.01216, 41.3216 7.73668, 41.3216 7.37704, 41.3216 6.87489, 41.4204 6.39911, 41.6179 5.95026, 41.8153 5.50142, 42.083 5.1126, 42.4219 4.78326, 42.7607 4.45448, 43.1613 4.19415, 43.6236 4.00226, 44.086 3.81094, 44.5763 3.715, 45.0936 3.71444, 45.7343 3.715, 46.3218 3.80926, 46.8548 3.99778, 47.3878 4.18629, 47.8422 4.45728, 48.2182 4.81019, 48.5941 5.16366, 48.8886 5.57211, 49.1013 6.03554, 49.3139 6.49954, 49.4199 7.01235, 49.4199 7.57453, 49.4199 8.19731, 49.2786 8.77071, 48.9947 9.29418, 48.7113 9.81821, 48.3601 10.2985, 47.941 10.735, 47.5219 11.172, 47.0764 11.5833, 46.6051 11.9693, 46.1338 12.3553, 45.7069 12.7307, 45.3248 13.0954 L 43.1984 15.0972, 45.9812 15.0972 C 46.3695 15.0978, 46.7319 15.095, 47.0674 15.0888, 47.4035 15.0832, 47.6885 15.0708, 47.9225 15.0529, 48.157 15.0349, 48.2771 15.0232, 48.2827 15.0164, 48.3321 14.9749, 48.3786 14.8913, 48.4218 14.7656, 48.465 14.64, 48.5049 14.4918, 48.5419 14.3213, 48.5789 14.1507, 48.616 13.9773, 48.653 13.8006, 48.69 13.6244, 48.7237 13.4309, 48.7545 13.221 L 49.4385 13.221 Z" stroke="none" fill="#000000" />
			<path d="M 58.7357 16.7669 L 51.2108 16.7669, 51.2108 16.2732 C 51.2108 16.2379, 51.2293 16.184, 51.2664 16.1116 L 54.2893 12.826 C 54.6473 12.4316, 55.0092 12.0277, 55.3761 11.6147, 55.7431 11.2018, 56.0707 10.7799, 56.3602 10.349, 56.6497 9.91808, 56.8809 9.47372, 57.0537 9.01589, 57.2265 8.55807, 57.3123 8.0778, 57.3123 7.57453, 57.3123 7.15037, 57.2574 6.7537, 57.1463 6.38565, 57.0352 6.01759, 56.8753 5.69442, 56.6654 5.41613, 56.4556 5.13785, 56.1936 4.91343, 55.8794 4.74286, 55.5652 4.5723, 55.2016 4.48702, 54.7887 4.48646, 54.1726 4.48702, 53.6284 4.67105, 53.1571 5.0391, 52.6858 5.40716, 52.3728 5.8128, 52.2185 6.25492, 52.1882 6.26726, 52.2376 6.27343, 52.3666 6.27287 L 52.5237 6.27287 C 52.7088 6.31551, 52.8687 6.38004, 53.0045 6.46644, 53.1403 6.5534, 53.2542 6.67291, 53.3468 6.82552, 53.4393 6.97812, 53.4854 7.16215, 53.4854 7.37704, 53.4854 7.73668, 53.3687 8.01216, 53.1341 8.20348, 52.8996 8.39536, 52.6376 8.49074, 52.3481 8.49018, 52.0709 8.49074, 51.8123 8.39536, 51.5716 8.20348, 51.3314 8.01216, 51.2108 7.73668, 51.2108 7.37704, 51.2108 6.87489, 51.3096 6.39911, 51.5071 5.95026, 51.7045 5.50142, 51.9722 5.1126, 52.3111 4.78326, 52.6499 4.45448, 53.0505 4.19415, 53.5128 4.00226, 53.9752 3.81094, 54.4655 3.715, 54.9828 3.71444, 55.6236 3.715, 56.211 3.80926, 56.744 3.99778, 57.277 4.18629, 57.7314 4.45728, 58.1074 4.81019, 58.4833 5.16366, 58.7778 5.57211, 58.9905 6.03554, 59.2031 6.49954, 59.3092 7.01235, 59.3092 7.57453, 59.3092 8.19731, 59.1678 8.77071, 58.8839 9.29418, 58.6005 9.81821, 58.2493 10.2985, 57.8302 10.735, 57.4111 11.172, 56.9656 11.5833, 56.4943 11.9693, 56.023 12.3553, 55.5961 12.7307, 55.214 13.0954 L 53.0876 15.0972, 55.8704 15.0972 C 56.2587 15.0978, 56.6211 15.095, 56.9566 15.0888, 57.2927 15.0832, 57.5777 15.0708, 57.8117 15.0529, 58.0462 15.0349, 58.1663 15.0232, 58.1719 15.0164, 58.2213 14.9749, 58.2678 14.8913, 58.311 14.7656, 58.3542 14.64, 58.3941 14.4918, 58.4311 14.3213, 58.4681 14.1507, 58.5052 13.9773, 58.5422 13.8006, 58.5792 13.6244, 58.6129 13.4309, 58.6437 13.221 L 59.3277 13.221 Z" stroke="none" fill="#000000" />
			<path d="M 74.5247 16.6044 C 74.4869 16.751, 74.3833 16.8243, 74.2133 16.8243 L 71.0914 16.8243 C 70.8841 16.8243, 70.7799 16.7241, 70.7799 16.522, 70.7799 15.7714, 70.8916 15.0478, 71.1149 14.3516, 71.3381 13.6554, 71.582 12.9673, 71.846 12.286, 72.1105 11.6053, 72.3492 10.9257, 72.5627 10.2479, 72.7769 9.57, 72.8833 8.88013, 72.8833 8.17708, 72.8833 7.62805, 72.7986 7.09561, 72.6286 6.57921, 72.4591 6.06338, 72.1917 5.60995, 71.8271 5.21893, 71.4624 4.82848, 71.0318 4.52905, 70.5349 4.32123, 70.038 4.11398, 69.5193 4.00979, 68.9782 4.00921, 68.4378 4.00979, 67.9191 4.11398, 67.4222 4.32123, 66.9252 4.52905, 66.4964 4.82848, 66.1346 5.21893, 65.7728 5.60995, 65.5054 6.06338, 65.3325 6.57921, 65.1596 7.09561, 65.0732 7.62805, 65.0732 8.17708, 65.0732 8.88013, 65.1819 9.57, 65.3983 10.2479, 65.6153 10.9257, 65.8558 11.6053, 66.1197 12.286, 66.3842 12.9673, 66.6275 13.6571, 66.8508 14.3562, 67.0741 15.0558, 67.1857 15.7777, 67.1857 16.522, 67.1857 16.7241, 67.0884 16.8243, 66.8937 16.8243 L 63.7426 16.8243 C 63.5795 16.8243, 63.4787 16.751, 63.4409 16.6044 L 62.7808 13.9846 C 62.7808 13.8203, 62.869 13.7167, 63.0448 13.6732 L 63.1484 13.6732 C 63.3121 13.6738, 63.4129 13.7499, 63.4507 13.9022, 63.5514 14.3241, 63.6442 14.6722, 63.7289 14.947, 63.8136 15.2218, 63.872 15.3684, 63.903 15.3861, 63.9659 15.4354, 64.1171 15.4663, 64.3558 15.4783, 64.5951 15.4909, 64.8814 15.4966, 65.2146 15.496 L 66.422 15.496 C 66.2903 14.947, 66.0401 14.3825, 65.672 13.802, 65.3045 13.222, 64.922 12.6387, 64.5258 12.0524, 64.1297 11.4662, 63.7793 10.8587, 63.4741 10.2295, 63.1696 9.60092, 63.0167 8.91677, 63.0167 8.17708, 63.0167 7.49351, 63.177 6.86203, 63.4976 6.28151, 63.8182 5.70155, 64.2493 5.20347, 64.7898 4.78783, 65.3749 4.31837, 66.0293 3.96857, 66.7523 3.73956, 67.4754 3.51056, 68.2174 3.39606, 68.9782 3.39548, 69.7397 3.39606, 70.4817 3.51056, 71.2047 3.73956, 71.9278 3.96857, 72.5914 4.31837, 73.1948 4.78783, 73.7232 5.21606, 74.1509 5.71816, 74.4778 6.29525, 74.8047 6.87234, 74.9678 7.49981, 74.9678 8.17708, 74.9678 8.91677, 74.8156 9.60092, 74.5104 10.2295, 74.2058 10.8587, 73.852 11.4662, 73.4496 12.0524, 73.0471 12.6387, 72.6601 13.222, 72.2891 13.802, 71.9181 14.3825, 71.6668 14.947, 71.5345 15.496 L 72.7511 15.496 C 73.0849 15.4966, 73.3711 15.4909, 73.6099 15.4783, 73.8492 15.4663, 73.9997 15.4354, 74.0627 15.3861, 74.0816 15.3747, 74.1348 15.2281, 74.223 14.947, 74.3112 14.6665, 74.4051 14.3178, 74.5058 13.9022, 74.5436 13.7562, 74.6478 13.68, 74.8173 13.6732 L 74.9209 13.6732 C 75.0909 13.7104, 75.1757 13.814, 75.1757 13.9846 Z" stroke="none" fill="#000000" />
			<rect />
		</svg>
	</g>
	<path d="M -42.5704 -11.8423 L 42.5704 -11.8423, 42.5704 11.8423, -42.5704 11.8423 Z" stroke="none" fill="#FFFFFF" transform="matrix(2.90377e-008 0.384615 -0.384615 2.90377e-008 99.5352 118.95)" />
	<path d="M -42.5704 -11.8423 L 42.5704 -11.8423, 42.5704 11.8423, -42.5704 11.8423 Z" fill="none" stroke="#000000" stroke-width="3.89999986" stroke-linecap="round" stroke-linejoin="round" transform="matrix(2.90377e-008 0.384615 -0.384615 2.90377e-008 99.5352 118.95)" />
	<g transform="matrix(1 0 -0 1 44.3633 41.0261)">
		<svg width="89.9740677" height="54.1276474">
			<defs />
			<path d="M 12.7097 4.3115 C 12.6908 4.39738, 12.645 4.46665, 12.5729 4.51818, 12.5008 4.57028, 12.4235 4.59604, 12.3416 4.59547, 12.1155 4.59604, 11.8956 4.61321, 11.6815 4.64642, 11.4674 4.6802, 11.2693 4.76092, 11.0867 4.88859, 10.9361 4.98076, 10.8164 5.10156, 10.7283 5.25099, 10.6401 5.40099, 10.5743 5.56072, 10.5302 5.73133 L 8.78459 12.4915 C 8.62143 13.103, 8.37124 13.6938, 8.0346 14.2646, 7.69797 14.8359, 7.26859 15.3621, 6.74646 15.8441, 6.2873 16.2661, 5.77834 16.6067, 5.21843 16.8655, 4.65851 17.1254, 4.08944 17.2548, 3.51063 17.2548, 2.88202 17.2548, 2.32038 17.13, 1.82631 16.8792, 1.3328 16.6296, 0.934911 16.2873, 0.632625 15.8533, 0.299425 15.3896, 0.101336 14.8617, 0.0383604 14.2686, 0.0131699 14.0923, 0.000574708 13.9056, 0.000574708 13.7098, 0.000574708 13.301, 0.0509556 12.8831, 0.151717 12.4549 L 2.04787 5.15423 C 2.07306 5.03859, 2.08566 4.94699, 2.08566 4.87943, 2.08566 4.7884, 2.06676 4.73058, 2.02898 4.70539, 1.94768 4.6573, 1.77764 4.62695, 1.52002 4.61436, 1.26239 4.60234, 0.985291 4.59604, 0.689304 4.59547, 0.595412 4.59604, 0.526139 4.56569, 0.482055 4.50386, 0.44427 4.4678, 0.425377 4.422, 0.425377 4.36646, 0.425377 4.33039, 0.43511 4.29662, 0.45343 4.2657 L 0.482055 4.11914 C 0.551329 3.93651, 0.673846 3.84491, 0.849607 3.84433, 1.63623 3.86952, 2.42859 3.88155, 3.22724 3.88097, 4.02646 3.88155, 4.82511 3.86952, 5.62377 3.84433, 5.8001 3.84491, 5.88826 3.92735, 5.88826 4.09166 L 5.88826 4.16494, 5.83159 4.32066 C 5.7938 4.50444, 5.67758 4.59604, 5.48236 4.59547, 5.18694 4.59604, 4.90756 4.60234, 4.64306 4.61436, 4.37856 4.62695, 4.18677 4.65901, 4.06711 4.71054, 3.94803 4.76264, 3.85357 4.92294, 3.78429 5.19088 L 1.90646 12.4915 C 1.76219 13.0297, 1.67688 13.5455, 1.65169 14.0396, 1.6391 14.1134, 1.6328 14.1867, 1.6328 14.2594, 1.6328 14.6751, 1.71467 15.0569, 1.87841 15.4045, 2.04214 15.7348, 2.2763 16.0021, 2.58145 16.2065, 2.8866 16.4115, 3.24327 16.5134, 3.65204 16.5128, 4.10547 16.5134, 4.56004 16.4098, 5.01576 16.202, 5.47148 15.9947, 5.89456 15.7136, 6.28444 15.3586, 6.731 14.9625, 7.09454 14.5108, 7.3745 14.0035, 7.65446 13.4968, 7.86342 12.9804, 8.0014 12.4549 L 9.73782 5.67636 C 9.77561 5.56701, 9.79393 5.4508, 9.79393 5.32828 L 9.79393 5.20004 C 9.77561 5.07237, 9.72179 4.96531, 9.63362 4.87943, 9.50195 4.75176, 9.34622 4.67275, 9.16703 4.64184, 8.98783 4.6115, 8.77887 4.59604, 8.53956 4.59547, 8.44509 4.59604, 8.37582 4.56856, 8.33174 4.51302, 8.28823 4.47066, 8.2659 4.422, 8.2659 4.36646, 8.2659 4.33039, 8.27563 4.29375, 8.29395 4.25654 L 8.33174 4.1283 C 8.3512 4.04929, 8.39357 3.98231, 8.45941 3.92735, 8.52582 3.87239, 8.60253 3.84491, 8.69013 3.84433, 9.31932 3.86952, 9.95137 3.88155, 10.5869 3.88097, 11.216 3.88155, 11.8544 3.86952, 12.5019 3.84433, 12.5901 3.84491, 12.6656 3.87525, 12.7286 3.93593, 12.7538 3.98517, 12.7664 4.03097, 12.7664 4.07334, 12.7664 4.11055, 12.7572 4.14433, 12.7378 4.1741 Z" stroke="none" fill="#000000" />
			<path d="M 4.0311 -0.393652 C 3.90414 0.102645, 3.69896 0.581309, 3.41554 1.04298, 3.13213 1.50465, 2.77529 1.92689, 2.34568 2.30969, 1.95839 2.65531, 1.53455 2.93006, 1.0748 3.13333, 0.615052 3.33659, 0.154662 3.43822, -0.306689 3.43822, -0.771567 3.43822, -1.18483 3.33595, -1.54583 3.13076, -1.90683 2.92558, -2.19473 2.64857, -2.40954 2.29943, -2.64551 1.91342, -2.78112 1.48574, -2.81639 1.01701, -2.8305 0.904479, -2.83755 0.791626, -2.83755 0.678452, -2.83755 0.326427, -2.7917 -0.0377803, -2.70033 -0.414171, -2.56632 -0.91656, -2.35953 -1.40452, -2.07932 -1.87838, -1.79911 -2.35191, -1.44099 -2.78024, -1.00433 -3.16368, -0.616714 -3.50866, -0.193195 -3.78662, 0.266554 -3.99694, 0.726302 -4.20725, 1.19022 -4.31241, 1.65862 -4.31273, 2.1235 -4.31241, 2.53484 -4.20629, 2.89231 -3.99437, 3.25011 -3.78213, 3.53609 -3.50192, 3.75089 -3.15342, 3.98686 -2.76677, 4.126 -2.33588, 4.16832 -1.86074, 4.17537 -1.74404, 4.1789 -1.62959, 4.1789 -1.51705, 4.1789 -1.15092, 4.12985 -0.776455, 4.0311 -0.393652 Z M 2.96381 -2.97902 C 2.84775 -3.26596, 2.67334 -3.49936, 2.44058 -3.6789, 2.20814 -3.85844, 1.9228 -3.94821, 1.58456 -3.94853, 1.25017 -3.94821, 0.917382 -3.85651, 0.586197 -3.67377, 0.255332 -3.4907, -0.0405865 -3.25409, -0.301559 -2.96363, -0.629218 -2.61096, -0.887947 -2.2288, -1.07807 -1.81682, -1.26818 -1.40452, -1.4163 -0.986773, -1.5221 -0.562932, -1.64522 -0.10094, -1.72088 0.34887, -1.74909 0.786176, -1.75615 0.868571, -1.75967 0.950646, -1.75967 1.0324, -1.75967 1.37481, -1.70325 1.70984, -1.59071 2.03782, -1.48139 2.32893, -1.31403 2.57259, -1.08865 2.76912, -0.86326 2.96597, -0.581448 3.06408, -0.24353 3.06376, 0.105289 3.06408, 0.446413 2.96405, 0.779202 2.76399, 1.11199 2.56393, 1.41047 2.31675, 1.67465 2.02243, 2.01642 1.62616, 2.2822 1.20713, 2.47232 0.765978, 2.66276 0.324824, 2.81761 -0.124985, 2.9372 -0.583451, 3.04652 -1.0105, 3.11513 -1.43113, 3.14335 -1.84535 L 3.14335 -2.02489 C 3.14335 -2.36666, 3.08371 -2.6847, 2.96381 -2.97902 Z" stroke="none" fill="#000000" transform="matrix(1.12 0 0 1 15.0762 16.3063)" />
			<path d="M 3.98538 -1.34264 C 3.96422 -1.24646, 3.90267 -1.19709, 3.80039 -1.19388 L 3.68401 -1.19388 C 3.60322 -1.19356, 3.55898 -1.2346, 3.55192 -1.317 L 3.55192 -1.35803 C 3.58719 -1.57316, 3.60675 -1.77995, 3.61027 -1.97873, 3.61027 -2.09126, 3.60675 -2.20571, 3.59969 -2.32242, 3.56443 -2.62314, 3.48524 -2.88892, 3.36212 -3.11976, 3.23901 -3.3506, 3.07326 -3.53527, 2.86551 -3.67377, 2.65775 -3.81227, 2.40416 -3.88152, 2.10471 -3.88184, 1.73858 -3.88152, 1.37052 -3.79239, 1.00054 -3.61478, 0.630887 -3.43684, 0.296495 -3.19927, -0.00295043 -2.90207, -0.351449 -2.5494, -0.624284 -2.15955, -0.821777 -1.73218, -1.01895 -1.30449, -1.1738 -0.86879, -1.28665 -0.424431, -1.40977 0.0273025, -1.4803 0.464929, -1.49793 0.888769 L -1.49793 1.0324 C -1.49793 1.40559, -1.42387 1.74575, -1.27607 2.05321, -1.13501 2.34432, -0.92918 2.57868, -0.657948 2.7563, -0.386715 2.93423, -0.0645068 3.02304, 0.308678 3.02272, 0.61165 3.02304, 0.909172 2.95828, 1.20156 2.82811, 1.49396 2.69827, 1.7623 2.5229, 2.00693 2.30232, 2.25187 2.08174, 2.46571 1.82622, 2.64878 1.53543, 2.83216 1.24496, 2.96425 0.93686, 3.04505 0.611766, 3.06621 0.516226, 3.12776 0.468456, 3.22971 0.468135 L 3.34609 0.468135 C 3.43426 0.468456, 3.48171 0.505966, 3.48876 0.580988, 3.48876 0.601828, 3.48363 0.620743, 3.47273 0.637415, 3.37783 1.01381, 3.22106 1.37128, 3.00273 1.70984, 2.78439 2.0484, 2.5247 2.34528, 2.22365 2.59984, 1.92261 2.85472, 1.59238 3.05799, 1.2333 3.20995, 0.874226 3.36224, 0.504247 3.43822, 0.123689 3.43822, -0.362349 3.43822, -0.794525 3.33659, -1.17316 3.13333, -1.55147 2.93006, -1.85894 2.64857, -2.0949 2.28917, -2.34113 1.90317, -2.48572 1.47548, -2.52804 1.00675, -2.54215 0.880434, -2.5492 0.748986, -2.5492 0.611766, -2.5492 0.266795, -2.50496 -0.0855505, -2.41711 -0.444949, -2.2831 -0.947338, -2.07086 -1.43209, -1.78039 -1.8989, -1.48992 -2.3657, -1.12635 -2.7905, -0.689687 -3.17394, -0.277389 -3.52244, 0.168894 -3.79944, 0.649482 -4.00463, 1.13039 -4.20982, 1.61194 -4.31241, 2.09413 -4.31273, 2.47822 -4.31241, 2.80652 -4.22777, 3.07935 -4.05849, 3.35251 -3.88921, 3.55385 -3.68499, 3.68401 -3.44582 L 4.39736 -4.24092 C 4.42557 -4.28837, 4.47334 -4.31241, 4.54003 -4.31273 L 4.58203 -4.31273 C 4.66667 -4.31241, 4.70899 -4.27138, 4.70899 -4.18962 L 4.70899 -4.14858 Z" stroke="none" fill="#000000" transform="matrix(1.12 0 0 1 23.6089 16.3063)" />
			<rect />
		</svg>
	</g>
	<path d="M -70.9506 0 L -42.5703 0" fill="none" stroke="#000000" stroke-width="2.5999999" stroke-linecap="round" stroke-linejoin="round" transform="matrix(2.90377e-008 0.384615 -0.384615 2.90377e-008 178.764 84.1044)" />
	<path d="M 42.5703 0 L 70.9506 0" fill="none" stroke="#000000" stroke-width="2.5999999" stroke-linecap="round" stroke-linejoin="round" transform="matrix(2.90377e-008 0.384615 -0.384615 2.90377e-008 178.764 84.1044)" />
	<path d="M -42.5703 -11.8423 L 42.5703 -11.8423, 42.5703 11.8423, -42.5703 11.8423 Z" stroke="none" fill="#FFFFFF" transform="matrix(2.90377e-008 0.384615 -0.384615 2.90377e-008 178.764 84.1044)" />
	<path d="M -42.5703 -11.8423 L 42.5703 -11.8423, 42.5703 11.8423, -42.5703 11.8423 Z" fill="none" stroke="#000000" stroke-width="3.89999986" stroke-linecap="round" stroke-linejoin="round" transform="matrix(2.90377e-008 0.384615 -0.384615 2.90377e-008 178.764 84.1044)" />
	<path d="M -19.7371 39.4743 L 19.7371 -39.4743" fill="none" stroke="#000000" stroke-width="2.5999999" stroke-linecap="round" stroke-linejoin="round" transform="matrix(2.90377e-008 0.384615 -0.384615 2.90377e-008 178.764 84.1044)" />
	<path d="M -19.7371 39.4743 L 19.7371 -39.4743, 43.4217 -39.4743" fill="none" stroke="#000000" stroke-width="2.5999999" stroke-linecap="round" stroke-linejoin="round" transform="matrix(2.90377e-008 0.384615 -0.384615 2.90377e-008 178.764 84.1044)" />
	<g transform="matrix(1 0 -0 1 206.31 72.8969)">
		<svg width="42.0378685" height="48.0957298">
			<defs />
			<path d="M 12.9653 14.9922 C 12.8966 15.2676, 12.793 15.5378, 12.6545 15.8035, 12.5159 16.0691, 12.3465 16.309, 12.1449 16.5226, 11.9434 16.7367, 11.7184 16.9113, 11.47 17.0487, 11.2215 17.1861, 10.953 17.2548, 10.6633 17.2548, 9.75128 17.2548, 9.06541 17.0138, 8.60626 16.5311, 8.29195 16.202, 8.13451 15.7869, 8.13451 15.2854, 8.13451 15.0295, 8.17573 14.7518, 8.2576 14.4518 L 8.68183 12.8121 C 8.73221 12.6049, 8.7574 12.4097, 8.7574 12.2259, 8.7574 12.1348, 8.7511 12.0404, 8.73851 11.9419, 8.70072 11.686, 8.61313 11.4604, 8.47458 11.2646, 8.33603 11.0694, 8.15856 10.9154, 7.94158 10.802, 7.72459 10.6893, 7.46811 10.6326, 7.17212 10.632 L 5.0401 10.632, 3.78515 15.5144 C 3.75996 15.6312, 3.74737 15.7256, 3.74737 15.7983, 3.74737 15.8905, 3.76626 15.9518, 3.80405 15.9815, 3.88592 16.0308, 4.05595 16.06, 4.31358 16.0691, 4.57178 16.0783, 4.84831 16.0829, 5.14372 16.0823, 5.32005 16.0829, 5.40822 16.1562, 5.40822 16.3021, 5.40822 16.3394, 5.40192 16.3789, 5.38933 16.4212 L 5.35154 16.5678 C 5.28284 16.751, 5.15975 16.8426, 4.98342 16.8426, 4.20996 16.806, 3.4302 16.7876, 2.64357 16.7876, 1.85751 16.7876, 1.06802 16.806, 0.27567 16.8426, 0.106207 16.8426, 0.0151782 16.7636, 0.00201051 16.6044 L 0.00201051 16.5311, 0.0397962 16.3754 C 0.090177 16.1745, 0.212694 16.0766, 0.407347 16.0823, 0.703335 16.0829, 0.983292 16.0783, 1.24722 16.0691, 1.51172 16.06, 1.70637 16.0279, 1.83232 15.9724, 1.95198 15.906, 2.04301 15.7411, 2.10598 15.4777 L 4.75728 5.15423 C 4.79506 5.02027, 4.81338 4.91664, 4.81338 4.84279, 4.81338 4.77008, 4.79792 4.72714, 4.76644 4.71455, 4.67827 4.66016, 4.50709 4.62695, 4.25232 4.61436, 3.99756 4.60234, 3.71932 4.59604, 3.41703 4.59547, 3.24127 4.59604, 3.1531 4.5136, 3.1531 4.34814 L 3.1531 4.27486, 3.20978 4.11914 C 3.24757 3.93651, 3.36436 3.84491, 3.55901 3.84433 L 8.87076 3.84433 C 9.46846 3.84491, 10.0375 3.92448, 10.5786 4.08307, 11.1196 4.24223, 11.5913 4.50444, 11.9938 4.87027, 12.327 5.16397, 12.5692 5.52408, 12.7203 5.95117, 12.8148 6.18361, 12.8652 6.42521, 12.8709 6.67482, 12.8709 6.90154, 12.8365 7.12424, 12.7673 7.34351, 12.6482 7.83244, 12.3997 8.27556, 12.0219 8.67231, 11.6446 9.06963, 11.2198 9.40798, 10.748 9.68851, 10.4211 9.87859, 10.0896 10.036, 9.753 10.1608, 9.41636 10.2862, 9.17591 10.3641, 9.03106 10.3938, 9.38945 10.5347, 9.72952 10.8095, 10.0501 11.2183, 10.3209 11.5732, 10.456 11.9974, 10.456 12.4915, 10.456 12.5957, 10.4497 12.6999, 10.4371 12.803 L 10.2574 14.4518 C 10.2076 14.88, 10.1824 15.2522, 10.1824 15.5693, 10.1824 15.7777, 10.195 15.9609, 10.2202 16.1189, 10.2642 16.4796, 10.4526 16.66, 10.7858 16.6594, 11.0881 16.66, 11.3646 16.4968, 11.6165 16.1699, 11.8684 15.8436, 12.0539 15.4388, 12.173 14.9556, 12.2423 14.773, 12.3648 14.6842, 12.5411 14.69 L 12.6917 14.69 C 12.8617 14.6905, 12.9528 14.7701, 12.9653 14.9281 L 12.9653 14.9922 Z M 10.748 7.28855 C 10.8488 6.92272, 10.9055 6.55631, 10.9181 6.18933 L 10.9181 6.13437 C 10.9181 5.8235, 10.8207 5.55499, 10.6255 5.32828, 10.3931 5.06034, 10.0896 4.87084, 9.71521 4.76092, 9.34079 4.651, 8.9303 4.59604, 8.48374 4.59547 L 7.2288 4.59547 C 6.9082 4.59604, 6.7164 4.62066, 6.65343 4.66932, 6.59045 4.71856, 6.52461 4.89203, 6.45534 5.19088 L 5.21013 10.0366, 7.03071 10.0366 C 7.47727 10.0372, 7.9181 9.98221, 8.35207 9.87229, 8.78603 9.76237, 9.19823 9.56714, 9.58754 9.28547, 9.92131 9.04787, 10.1732 8.74902, 10.3427 8.38834, 10.5127 8.02823, 10.6478 7.66183, 10.748 7.28855 Z" stroke="none" fill="#000000" />
			<rect />
		</svg>
	</g>
</svg>
