<?xml version="1.0"?>
<svg xmlns="http://www.w3.org/2000/svg" xmlns:xlink="http://www.w3.org/1999/xlink" width="549.911011" height="162.041519">
	<defs>
		<marker id="CustomMarker-01" markerUnits="strokeWidth" markerWidth="8.25" markerHeight="7.5" viewBox="-8.25 -3.75 8.25 7.5" orient="auto-start-reverse">
			<path d="M -5.5 -2.5 L 0 -0, -5.5 2.5" fill="none" stroke="#0080FF" stroke-linejoin="round" />
		</marker>
	</defs>
	<path d="M 0 -63.7661 L 0 -42.511" fill="none" stroke="#000000" stroke-width="2.79999995" stroke-linecap="round" stroke-linejoin="round" transform="matrix(0.357143 -1.07854e-007 1.07854e-007 0.357143 23.6825 96.7256)" />
	<path d="M 0 63.7661 L 0 42.511" fill="none" stroke="#000000" stroke-width="2.79999995" stroke-linecap="round" stroke-linejoin="round" transform="matrix(0.357143 -1.07854e-007 1.07854e-007 0.357143 23.6825 96.7256)" />
	<path d="M 42.511 -0 C 42.511 23.4782, 23.4782 42.511, -0 42.511, -23.4782 42.511, -42.511 23.4782, -42.511 -0, -42.511 -23.4782, -23.4782 -42.511, -0 -42.511, 23.4782 -42.511, 42.511 -23.4782, 42.511 -0 Z" stroke="none" fill="#FFFFFF" transform="matrix(0.357143 -1.07854e-007 1.07854e-007 0.357143 23.6825 96.7256)" />
	<path d="M 42.511 -0 C 42.511 23.4782, 23.4782 42.511, -0 42.511, -23.4782 42.511, -42.511 23.4782, -42.511 -0, -42.511 -23.4782, -23.4782 -42.511, -0 -42.511, 23.4782 -42.511, 42.511 -23.4782, 42.511 -0 Z" fill="none" stroke="#000000" stroke-width="4.19999981" stroke-linecap="round" stroke-linejoin="round" transform="matrix(0.357143 -1.07854e-007 1.07854e-007 0.357143 23.6825 96.7256)" />
	<path d="M 0 -42.511 L 0 42.511" fill="none" stroke="#000000" stroke-width="2.79999995" stroke-linecap="round" stroke-linejoin="round" transform="matrix(0.357143 -1.07854e-007 1.07854e-007 0.357143 23.6825 96.7256)" />
	<path d="M 29.7577 -63.7661 L 55.2643 -63.7661" fill="none" stroke="#000000" stroke-width="2.79999995" stroke-linecap="round" stroke-linejoin="round" transform="matrix(0.357143 -1.07854e-007 1.07854e-007 0.357143 23.6825 96.7256)" />
	<path d="M 42.511 -76.5193 L 42.511 -51.0128" fill="none" stroke="#000000" stroke-width="2.79999995" stroke-linecap="round" stroke-linejoin="round" transform="matrix(0.357143 -1.07854e-007 1.07854e-007 0.357143 23.6825 96.7256)" />
	<path d="M 29.7577 63.7661 L 55.2643 63.7661" fill="none" stroke="#000000" stroke-width="2.79999995" stroke-linecap="round" stroke-linejoin="round" transform="matrix(0.357143 -1.07854e-007 1.07854e-007 0.357143 23.6825 96.7256)" />
	<path d="M -299.643 -159.085 L 299.643 -159.085, 299.643 159.085, -299.643 159.085 Z" fill="none" stroke="#000000" stroke-width="3.73333335" stroke-linecap="round" stroke-linejoin="round" transform="matrix(0.357143 0 -0 0.357143 130.698 96.7254)" />
	<path d="M 0 -63.7665 L 0 -42.511" fill="none" stroke="#000000" stroke-width="2.79999995" stroke-linecap="round" stroke-linejoin="round" transform="matrix(0.357143 -1.07854e-007 1.07854e-007 0.357143 526.229 96.7257)" />
	<path d="M 0 63.7665 L 0 42.511" fill="none" stroke="#000000" stroke-width="2.79999995" stroke-linecap="round" stroke-linejoin="round" transform="matrix(0.357143 -1.07854e-007 1.07854e-007 0.357143 526.229 96.7257)" />
	<path d="M 42.511 -0 C 42.511 23.4782, 23.4782 42.511, -0 42.511, -23.4782 42.511, -42.511 23.4782, -42.511 -0, -42.511 -23.4782, -23.4782 -42.511, -0 -42.511, 23.4782 -42.511, 42.511 -23.4782, 42.511 -0 Z" stroke="none" fill="#FFFFFF" transform="matrix(0.357143 -1.07854e-007 1.07854e-007 0.357143 526.229 96.7257)" />
	<path d="M 42.511 -0 C 42.511 23.4782, 23.4782 42.511, -0 42.511, -23.4782 42.511, -42.511 23.4782, -42.511 -0, -42.511 -23.4782, -23.4782 -42.511, -0 -42.511, 23.4782 -42.511, 42.511 -23.4782, 42.511 -0 Z" fill="none" stroke="#000000" stroke-width="4.19999981" stroke-linecap="round" stroke-linejoin="round" transform="matrix(0.357143 -1.07854e-007 1.07854e-007 0.357143 526.229 96.7257)" />
	<path d="M 0 -42.511 L 0 42.511" fill="none" stroke="#000000" stroke-width="2.79999995" stroke-linecap="round" stroke-linejoin="round" transform="matrix(0.357143 -1.07854e-007 1.07854e-007 0.357143 526.229 96.7257)" />
	<path d="M -55.2643 63.7665 L -29.7577 63.7665" fill="none" stroke="#000000" stroke-width="2.79999995" stroke-linecap="round" stroke-linejoin="round" transform="matrix(0.357143 -1.07854e-007 1.07854e-007 0.357143 526.229 96.7257)" />
	<path d="M -42.511 51.0132 L -42.511 76.5198" fill="none" stroke="#000000" stroke-width="2.79999995" stroke-linecap="round" stroke-linejoin="round" transform="matrix(0.357143 -1.07854e-007 1.07854e-007 0.357143 526.229 96.7257)" />
	<path d="M -55.2643 -63.7665 L -29.7577 -63.7665" fill="none" stroke="#000000" stroke-width="2.79999995" stroke-linecap="round" stroke-linejoin="round" transform="matrix(0.357143 -1.07854e-007 1.07854e-007 0.357143 526.229 96.7257)" />
	<path d="M -18.4711 -11.2883 L -18.4711 11.2883, 18.4711 0 Z" stroke="none" fill="#000000" transform="matrix(0.357143 0 0 -0.357143 65.2067 39.9097)" />
	<g transform="matrix(1 0 -0 1 46.9903 85.5183)">
		<svg width="108.057793" height="48.0957298">
			<defs />
			<path d="M 7.61023 16.7669 L 0.0841818 16.7669, 0.0841818 16.2732 C 0.0841818 16.2379, 0.102697 16.184, 0.139727 16.1116 L 3.16328 12.826 C 3.52067 12.4316, 3.88255 12.0277, 4.24949 11.6147, 4.61642 11.2018, 4.9452 10.7799, 5.23471 10.349, 5.52422 9.91808, 5.75537 9.47372, 5.92818 9.01589, 6.10098 8.55807, 6.18683 8.0778, 6.18683 7.57453, 6.18683 7.15037, 6.13128 6.7537, 6.02019 6.38565, 5.9091 6.01759, 5.7492 5.69442, 5.53936 5.41613, 5.33009 5.13785, 5.06807 4.91343, 4.75388 4.74286, 4.43969 4.5723, 4.07556 4.48702, 3.66262 4.48646, 3.04658 4.48702, 2.50235 4.67105, 2.0305 5.0391, 1.55921 5.40716, 1.24614 5.8128, 1.09184 6.25492, 1.06155 6.26726, 1.11092 6.27343, 1.23996 6.27287 L 1.39706 6.27287 C 1.58221 6.31551, 1.74211 6.38004, 1.87789 6.46644, 2.01367 6.5534, 2.12756 6.67291, 2.22014 6.82552, 2.31271 6.97812, 2.35872 7.16215, 2.35872 7.37704, 2.35872 7.73668, 2.24202 8.01216, 2.00749 8.20348, 1.77297 8.39536, 1.51096 8.49074, 1.22145 8.49018, 0.944286 8.49074, 0.685077 8.39536, 0.444943 8.20348, 0.20481 8.01216, 0.0841818 7.73668, 0.0841818 7.37704, 0.0841818 6.87489, 0.182928 6.39911, 0.380421 5.95026, 0.577914 5.50142, 0.84554 5.1126, 1.18442 4.78326, 1.5233 4.45448, 1.9239 4.19415, 2.38621 4.00226, 2.84852 3.81094, 3.33889 3.715, 3.85675 3.71444, 4.49804 3.715, 5.08547 3.80926, 5.61847 3.99778, 6.15148 4.18629, 6.60594 4.45728, 6.98185 4.81019, 7.35776 5.16366, 7.65231 5.57211, 7.86496 6.03554, 8.0776 6.49954, 8.18364 7.01235, 8.18364 7.57453, 8.18364 8.19731, 8.04225 8.77071, 7.75835 9.29418, 7.47502 9.81821, 7.1238 10.2985, 6.70468 10.735, 6.28557 11.172, 5.84009 11.5833, 5.36824 11.9693, 4.89695 12.3553, 4.46998 12.7307, 4.0879 13.0954 L 1.96093 15.0972, 4.74434 15.0972 C 5.1326 15.0978, 5.49504 15.095, 5.83055 15.0888, 6.16663 15.0832, 6.45165 15.0708, 6.68617 15.0529, 6.92069 15.0349, 7.04076 15.0232, 7.04637 15.0164, 7.09574 14.9749, 7.14231 14.8913, 7.18551 14.7656, 7.22871 14.64, 7.26855 14.4918, 7.30558 14.3213, 7.34261 14.1507, 7.37964 13.9773, 7.41667 13.8006, 7.4537 13.6244, 7.48736 13.4309, 7.51822 13.221 L 8.20215 13.221 Z" stroke="none" fill="#000000" />
			<path d="M 18.2476 12.7632 C 18.2476 13.386, 18.1556 13.9442, 17.9704 14.438, 17.7858 14.9317, 17.4716 15.4181, 17.0273 15.8962, 16.5897 16.3456, 16.1414 16.6732, 15.6819 16.8791, 15.2229 17.0856, 14.6697 17.1888, 14.0223 17.1888, 13.363 17.1888, 12.7587 17.0261, 12.21 16.6996, 11.6613 16.3742, 11.2237 15.9326, 10.8972 15.3755, 10.4348 14.6158, 10.1408 13.8141, 10.014 12.9702, 9.8878 12.1264, 9.8244 11.2854, 9.8244 10.4472, 9.8244 9.61005, 9.94615 8.78586, 10.1897 7.97457, 10.4332 7.16384, 10.8231 6.41426, 11.3595 5.72528, 11.8094 5.13953, 12.3581 4.65758, 13.0056 4.28055, 13.6531 3.90352, 14.3645 3.715, 15.141 3.71444, 15.8872 3.715, 16.5066 3.90689, 16.9998 4.28953, 17.493 4.67273, 17.7393 5.22313, 17.7393 5.94073, 17.7393 6.27624, 17.6377 6.52479, 17.4341 6.68637, 17.231 6.84796, 16.9964 6.92875, 16.7316 6.92819, 16.4791 6.92875, 16.2525 6.84796, 16.0522 6.68637, 15.8519 6.52479, 15.7514 6.27624, 15.7514 5.94073, 15.7514 5.58221, 15.8838 5.3129, 16.1487 5.1328, 16.3215 5.02564, 16.5162 4.97178, 16.7316 4.97122, 16.7995 4.97178, 16.8085 4.96897, 16.7591 4.96224, 16.6727 4.83095, 16.4836 4.70135, 16.1907 4.5723, 15.8979 4.44382, 15.5483 4.3793, 15.141 4.37874, 14.5923 4.3793, 14.0991 4.54257, 13.6615 4.86854, 13.2239 5.19508, 12.8541 5.60297, 12.5523 6.09333, 12.1949 6.71611, 11.9789 7.39443, 11.9048 8.12718, 11.8308 8.86048, 11.7876 9.4451, 11.7752 9.88161, 11.8863 9.62464, 12.1534 9.30933, 12.5753 8.9351, 12.9978 8.56143, 13.5324 8.37404, 14.1793 8.37348, 14.796 8.37404, 15.3278 8.47728, 15.7744 8.68375, 16.2216 8.89022, 16.6514 9.2117, 17.0643 9.64821, 17.4963 10.1274, 17.8015 10.6093, 17.98 11.0941, 18.1584 11.5788, 18.2476 12.1354, 18.2476 12.7632 Z M 16.2783 12.7632 C 16.2783 12.1892, 16.2598 11.6731, 16.2227 11.2152, 16.1857 10.7574, 16.0628 10.3551, 15.853 10.0073, 15.6375 9.65494, 15.3968 9.39461, 15.132 9.22685, 14.8672 9.05966, 14.5435 8.9755, 14.1608 8.97494, 13.7479 8.9755, 13.395 9.08041, 13.1021 9.28969, 12.8092 9.49953, 12.5613 9.77445, 12.3581 10.1156, 12.155 10.4567, 12.0097 10.8545, 11.9233 11.3089, 11.8616 11.6209, 11.8308 11.953, 11.8308 12.3054, 11.8308 12.4434, 11.8369 12.5904, 11.8493 12.7453 L 11.8493 12.8171 C 11.874 13.2665, 11.9082 13.6856, 11.9514 14.0744, 11.9946 14.4638, 12.0625 14.7808, 12.1545 15.0254, 12.3273 15.4569, 12.5815 15.807, 12.9175 16.0763, 13.2536 16.3456, 13.6217 16.4802, 14.0223 16.4797, 14.4352 16.4802, 14.7836 16.4011, 15.0669 16.2423, 15.3508 16.0841, 15.6005 15.8277, 15.816 15.4742, 16.0381 15.1219, 16.1705 14.7224, 16.2137 14.2764, 16.257 13.8309, 16.2783 13.3265, 16.2783 12.7632 Z" stroke="none" fill="#000000" />
			<path d="M 34.9679 4.57714 C 34.6788 4.57772, 34.424 4.59947, 34.2036 4.64184, 33.9838 4.68478, 33.7794 4.75806, 33.5905 4.86111, 33.2761 5.05118, 33.0368 5.33801, 32.8731 5.72216 L 28.5048 16.98 C 28.4236 17.1575, 28.285 17.2428, 28.0898 17.2365 L 27.9386 17.2365 C 27.744 17.2365, 27.606 17.1512, 27.5236 16.98 L 22.9481 5.19087 C 22.8977 5.07523, 22.841 4.9716, 22.778 4.88, 22.7151 4.7884, 22.624 4.72142, 22.5044 4.67791, 22.3601 4.62352, 22.1569 4.59317, 21.8958 4.58688, 21.6347 4.58115, 21.3565 4.57772, 21.0611 4.57714 L 21.0611 3.81685 C 21.8723 3.86036, 22.6492 3.88154, 23.3912 3.88097, 23.5045 3.88154, 23.6276 3.87525, 23.7593 3.86265, 24.6215 3.86322, 25.5238 3.8512, 26.4673 3.82601 L 26.4673 4.57714 C 26.1845 4.57772, 25.9326 4.58401, 25.7121 4.59604, 25.4923 4.60863, 25.2942 4.65386, 25.1179 4.73287, 25.0366 4.77638, 24.9736 4.8342, 24.929 4.90691, 24.898 4.95615, 24.882 5.00195, 24.882 5.04431, 24.882 5.0695, 24.8854 5.09698, 24.8912 5.12675 L 28.5902 14.5984, 32.0807 5.64888 C 32.1128 5.57617, 32.1283 5.49373, 32.1283 5.40156, 32.1283 5.22522, 32.0435 5.06034, 31.8735 4.90691, 31.7292 4.77924, 31.5672 4.69222, 31.3874 4.64642, 31.2082 4.60062, 30.9804 4.57772, 30.7033 4.57714 L 30.7033 3.82601 C 31.4647 3.8512, 32.1815 3.86322, 32.8548 3.86265, 32.9429 3.87525, 33.0368 3.88154, 33.1376 3.88097, 33.7164 3.88154, 34.3267 3.86036, 34.9679 3.81685 L 34.9679 4.57714 Z" stroke="none" fill="#000000" />
			<rect />
		</svg>
	</g>
	<path d="M 0 -159.084 L 0 159.085" fill="none" stroke="#000000" stroke-width="3.73333335" stroke-linecap="round" stroke-linejoin="round" transform="matrix(0.357143 0 0 0.357143 180.866 96.7254)" />
	<rect x="-51.0131111" y="-12.7531366" width="102.026222" height="25.5062733" stroke="none" fill="#FFFFFF" transform="matrix(0.357143 0 -0 0.357143 122.393 39.9097)" />
	<path d="M -51.0131 -12.7531 L 51.0131 -12.7531, 51.0131 12.7531, -51.0131 12.7531 Z" fill="none" stroke="#000000" stroke-width="4.19999981" stroke-linecap="round" stroke-linejoin="round" transform="matrix(0.357143 0 -0 0.357143 122.393 39.9097)" />
	<g transform="matrix(1 0 -0 1 109.897 9.05792)">
		<svg width="77.9182587" height="45.2233963">
			<defs />
			<path d="M 7.07718 13.5711 L 7.07718 15.3935 C 7.07718 15.5017, 7.09738 15.6022, 7.13778 15.6947, 7.17817 15.7879, 7.24438 15.849, 7.33639 15.8782, 7.47834 15.9444, 7.7095 15.9809, 8.02986 15.9865, 8.35023 15.9927, 8.6734 15.9955, 8.99993 15.9949 L 8.99993 16.7669 C 8.05735 16.731, 7.13329 16.7131, 6.22662 16.7131, 5.33341 16.7131, 4.39363 16.731, 3.40729 16.7669 L 3.40729 15.9949 C 3.74617 15.9955, 4.07327 15.9927, 4.38746 15.9865, 4.70166 15.9809, 4.93618 15.9444, 5.08991 15.8782, 5.18248 15.849, 5.25037 15.7879, 5.29357 15.6947, 5.33678 15.6022, 5.3581 15.5017, 5.3581 15.3935 L 5.3581 13.5711, 0.0886252 13.5711, 0.0886252 12.844, 6.26365 3.66058 C 6.34444 3.55342, 6.44599 3.49956, 6.56886 3.49899 L 6.77253 3.49899 C 6.97563 3.49956, 7.07718 3.60111, 7.07718 3.80421 L 7.07718 12.7812, 9.06502 12.7812, 9.06502 13.5711 Z M 5.45011 6.02152 L 0.902161 12.7812, 5.45011 12.7812 Z" stroke="none" fill="#000000" />
			<path d="M 23.8206 16.6044 C 23.7829 16.751, 23.6792 16.8243, 23.5092 16.8243 L 20.3873 16.8243 C 20.1801 16.8243, 20.0759 16.7241, 20.0759 16.522, 20.0759 15.7714, 20.1875 15.0478, 20.4108 14.3516, 20.6341 13.6554, 20.8779 12.9673, 21.1419 12.286, 21.4064 11.6053, 21.6451 10.9257, 21.8587 10.2479, 22.0728 9.57, 22.1793 8.88013, 22.1793 8.17708, 22.1793 7.62805, 22.0945 7.09561, 21.9245 6.57921, 21.755 6.06338, 21.4877 5.60995, 21.123 5.21893, 20.7583 4.82848, 20.3278 4.52905, 19.8308 4.32123, 19.3339 4.11398, 18.8152 4.00979, 18.2742 4.00921, 17.7337 4.00979, 17.215 4.11398, 16.7181 4.32123, 16.2211 4.52905, 15.7923 4.82848, 15.4305 5.21893, 15.0687 5.60995, 14.8013 6.06338, 14.6284 6.57921, 14.4555 7.09561, 14.3691 7.62805, 14.3691 8.17708, 14.3691 8.88013, 14.4779 9.57, 14.6943 10.2479, 14.9112 10.9257, 15.1517 11.6053, 15.4156 12.286, 15.6801 12.9673, 15.9234 13.6571, 16.1467 14.3562, 16.37 15.0558, 16.4816 15.7777, 16.4816 16.522, 16.4816 16.7241, 16.3843 16.8243, 16.1897 16.8243 L 13.0386 16.8243 C 12.8754 16.8243, 12.7746 16.751, 12.7369 16.6044 L 12.0767 13.9846 C 12.0767 13.8203, 12.1649 13.7167, 12.3407 13.6732 L 12.4443 13.6732 C 12.608 13.6738, 12.7088 13.7499, 12.7466 13.9022, 12.8473 14.3241, 12.9401 14.6722, 13.0248 14.947, 13.1096 15.2218, 13.168 15.3684, 13.1989 15.3861, 13.2618 15.4354, 13.413 15.4663, 13.6517 15.4783, 13.891 15.4909, 14.1773 15.4966, 14.5105 15.496 L 15.7179 15.496 C 15.5862 14.947, 15.336 14.3825, 14.9679 13.802, 14.6004 13.222, 14.2179 12.6387, 13.8218 12.0524, 13.4256 11.4662, 13.0752 10.8587, 12.7701 10.2295, 12.4655 9.60092, 12.3126 8.91677, 12.3126 8.17708, 12.3126 7.49351, 12.4729 6.86203, 12.7935 6.28151, 13.1141 5.70155, 13.5452 5.20347, 14.0857 4.78783, 14.6708 4.31837, 15.3252 3.96857, 16.0482 3.73956, 16.7713 3.51056, 17.5133 3.39606, 18.2742 3.39548, 19.0356 3.39606, 19.7776 3.51056, 20.5007 3.73956, 21.2237 3.96857, 21.8873 4.31837, 22.4907 4.78783, 23.0191 5.21606, 23.4468 5.71816, 23.7737 6.29525, 24.1006 6.87234, 24.2638 7.49981, 24.2638 8.17708, 24.2638 8.91677, 24.1115 9.60092, 23.8063 10.2295, 23.5018 10.8587, 23.1479 11.4662, 22.7455 12.0524, 22.343 12.6387, 21.956 13.222, 21.585 13.802, 21.214 14.3825, 20.9627 14.947, 20.8304 15.496 L 22.047 15.496 C 22.3808 15.4966, 22.667 15.4909, 22.9058 15.4783, 23.1451 15.4663, 23.2957 15.4354, 23.3586 15.3861, 23.3775 15.3747, 23.4308 15.2281, 23.5189 14.947, 23.6071 14.6665, 23.701 14.3178, 23.8017 13.9022, 23.8395 13.7562, 23.9437 13.68, 24.1132 13.6732 L 24.2168 13.6732 C 24.3869 13.7104, 24.4716 13.814, 24.4716 13.9846 Z" stroke="none" fill="#000000" />
			<rect />
		</svg>
	</g>
	<g transform="matrix(1 0 -0 1 142.109 85.518)">
		<svg width="77.9182587" height="48.0957298">
			<defs />
			<path d="M 8.17942 12.7991 C 8.17942 13.386, 8.0689 13.9459, 7.84672 14.4784, 7.6251 15.0114, 7.30473 15.49, 6.88506 15.9141, 6.45978 16.3276, 5.98063 16.6435, 5.44763 16.8612, 4.91462 17.08, 4.34851 17.1888, 3.75042 17.1888, 3.23312 17.1888, 2.75061 17.0918, 2.30345 16.8971, 1.85684 16.703, 1.46859 16.437, 1.13869 16.0987, 0.808785 15.761, 0.550137 15.3688, 0.362182 14.9227, 0.174227 14.4772, 0.079969 14.0026, 0.079969 13.4993, 0.079969 13.1526, 0.195547 12.8911, 0.426704 12.7144, 0.65786 12.5382, 0.896872 12.4496, 1.14318 12.449, 1.40239 12.4496, 1.64589 12.5365, 1.87368 12.7099, 2.10203 12.8838, 2.21592 13.147, 2.21592 13.4993, 2.21592 13.7153, 2.16823 13.8966, 2.07285 14.043, 1.97747 14.19, 1.86021 14.3033, 1.72107 14.3841, 1.58249 14.4649, 1.42707 14.5115, 1.25427 14.5227 L 1.14318 14.5227, 0.958027 14.5227 C 1.09998 15.026, 1.42988 15.4782, 1.94774 15.8788, 2.46559 16.2799, 3.06649 16.4802, 3.75042 16.4797, 4.10838 16.4802, 4.45679 16.3877, 4.79567 16.2019, 5.13455 16.0168, 5.41228 15.7711, 5.62773 15.4653, 5.8802 15.1006, 6.04235 14.6865, 6.11304 14.2225, 6.18374 13.7591, 6.21908 13.2844, 6.21908 12.7991, 6.21908 12.3088, 6.20393 11.838, 6.17308 11.3858, 6.14278 10.9342, 6.01598 10.5078, 5.7938 10.106, 5.6339 9.81316, 5.42911 9.56966, 5.17944 9.37497, 4.92977 9.18085, 4.65092 9.08322, 4.34234 9.08266, 3.75659 9.08322, 3.24827 9.2016, 2.81682 9.43781, 2.38536 9.67458, 2.03694 10.014, 1.77212 10.4561, 1.71658 10.5582, 1.62737 10.6093, 1.50394 10.6087 L 1.42988 10.6087 C 1.21443 10.6093, 1.10615 10.5106, 1.10615 10.3125 L 1.10615 4.01068 C 1.10615 3.85583, 1.19592 3.75708, 1.37433 3.71444, 1.40519 3.715, 1.42819 3.71837, 1.4439 3.72398, 1.45961 3.73015, 1.47308 3.73296, 1.48542 3.7324, 2.37919 4.13972, 3.30045 4.34339, 4.24976 4.34283, 5.21142 4.34339, 6.13324 4.13972, 7.01466 3.7324, 7.02701 3.73296, 7.03935 3.73015, 7.05169 3.72398, 7.06404 3.71837, 7.08255 3.715, 7.10724 3.71444, 7.31034 3.715, 7.40909 3.80758, 7.40292 3.99273, 7.40292 4.10101, 7.3844 4.17283, 7.34737 4.20817, 6.90975 4.80739, 6.35374 5.27587, 5.67878 5.61363, 5.00383 5.95195, 4.28735 6.12083, 3.5288 6.12027, 2.90042 6.12083, 2.35787 6.04901, 1.90117 5.90482 L 1.90117 9.33401 C 2.11718 9.10735, 2.44259 8.90536, 2.87685 8.72863, 3.31167 8.55246, 3.80035 8.46381, 4.34234 8.46325, 4.87254 8.46381, 5.37357 8.58388, 5.84486 8.82289, 6.31671 9.06246, 6.73133 9.37329, 7.08872 9.75593, 7.45846 10.1874, 7.73282 10.6648, 7.91124 11.1883, 8.09022 11.7123, 8.17942 12.2493, 8.17942 12.7991 Z" stroke="none" fill="#000000" />
			<path d="M 23.3987 16.6044 C 23.3609 16.751, 23.2573 16.8243, 23.0873 16.8243 L 19.9642 16.8243 C 19.757 16.8243, 19.6528 16.7241, 19.6528 16.522, 19.6528 15.7714, 19.7644 15.0478, 19.9877 14.3516, 20.211 13.6554, 20.4549 12.9673, 20.7188 12.286, 20.9833 11.6053, 21.222 10.9257, 21.4361 10.2479, 21.6503 9.57, 21.7567 8.88013, 21.7567 8.17708, 21.7567 7.62805, 21.672 7.09561, 21.502 6.57921, 21.3325 6.06338, 21.0652 5.60995, 20.6999 5.21893, 20.3352 4.82848, 19.9047 4.52905, 19.4077 4.32123, 18.9108 4.11398, 18.3921 4.00979, 17.8505 4.00921, 17.3101 4.00979, 16.7908 4.11398, 16.2939 4.32123, 15.7969 4.52905, 15.3681 4.82848, 15.0063 5.21893, 14.6445 5.60995, 14.3771 6.06338, 14.2042 6.57921, 14.0313 7.09561, 13.9448 7.62805, 13.9448 8.17708, 13.9448 8.88013, 14.0536 9.57, 14.2706 10.2479, 14.4876 10.9257, 14.728 11.6053, 14.992 12.286, 15.2565 12.9673, 15.4998 13.6571, 15.7231 14.3562, 15.9463 15.0558, 16.058 15.7777, 16.058 16.522, 16.058 16.7241, 15.9607 16.8243, 15.7654 16.8243 L 12.6143 16.8243 C 12.4512 16.8243, 12.3504 16.751, 12.3126 16.6044 L 11.6519 13.9846 C 11.6519 13.8203, 11.7401 13.7167, 11.9159 13.6732 L 12.0201 13.6732 C 12.1838 13.6738, 12.284 13.7499, 12.3218 13.9022, 12.4225 14.3241, 12.5159 14.6722, 12.6006 14.947, 12.6853 15.2218, 12.7437 15.3684, 12.7746 15.3861, 12.8376 15.4354, 12.9888 15.4663, 13.2275 15.4783, 13.4668 15.4909, 13.7531 15.4966, 14.0863 15.496 L 15.2937 15.496 C 15.162 14.947, 14.9118 14.3825, 14.5437 13.802, 14.1761 13.222, 13.7937 12.6387, 13.3975 12.0524, 13.0014 11.4662, 12.651 10.8587, 12.3458 10.2295, 12.0407 9.60092, 11.8878 8.91677, 11.8878 8.17708, 11.8878 7.49351, 12.0487 6.86203, 12.3693 6.28151, 12.6899 5.70155, 13.121 5.20347, 13.6615 4.78783, 14.2466 4.31837, 14.9009 3.96857, 15.624 3.73956, 16.3477 3.51056, 17.0896 3.39606, 17.8505 3.39548, 18.6119 3.39606, 19.3539 3.51056, 20.0776 3.73956, 20.8012 3.96857, 21.4648 4.31837, 22.0682 4.78783, 22.5966 5.21606, 23.0243 5.71816, 23.3512 6.29525, 23.6787 6.87234, 23.8418 7.49981, 23.8418 8.17708, 23.8418 8.91677, 23.6895 9.60092, 23.3844 10.2295, 23.0798 10.8587, 22.726 11.4662, 22.323 12.0524, 21.9205 12.6387, 21.5335 13.222, 21.1625 13.802, 20.7915 14.3825, 20.5402 14.947, 20.4073 15.496 L 21.6245 15.496 C 21.9583 15.4966, 22.2445 15.4909, 22.4833 15.4783, 22.7226 15.4663, 22.8731 15.4354, 22.9361 15.3861, 22.9556 15.3747, 23.0088 15.2281, 23.097 14.947, 23.1852 14.6665, 23.279 14.3178, 23.3798 13.9022, 23.4176 13.7562, 23.5212 13.68, 23.6907 13.6732 L 23.7949 13.6732 C 23.9649 13.7104, 24.0496 13.814, 24.0496 13.9846 Z" stroke="none" fill="#000000" />
			<rect />
		</svg>
	</g>
	<path d="M -51.0134 -12.7531 L 51.0134 -12.7531, 51.0134 12.7531, -51.0134 12.7531 Z" stroke="none" fill="#FFFFFF" transform="matrix(2.69635e-008 0.357143 -0.357143 2.69635e-008 180.866 96.7254)" />
	<path d="M -51.0134 -12.7531 L 51.0134 -12.7531, 51.0134 12.7531, -51.0134 12.7531 Z" fill="none" stroke="#000000" stroke-width="4.19999981" stroke-linecap="round" stroke-linejoin="round" transform="matrix(2.69635e-008 0.357143 -0.357143 2.69635e-008 180.866 96.7254)" />
	<path d="M -18.4714 -11.2883 L -18.4714 11.2883, 18.4714 0 Z" stroke="none" fill="#000000" transform="matrix(2.69635e-008 0.357143 0.357143 -2.69635e-008 237.713 128.227)" />
	<g transform="matrix(1 0 -0 1 250.127 115.884)">
		<svg width="77.9182587" height="45.2233963">
			<defs />
			<path d="M 7.60405 16.7669 L 0.0791219 16.7669, 0.0791219 16.2732 C 0.0791219 16.2379, 0.0976369 16.184, 0.134667 16.1116 L 3.15766 12.826 C 3.51561 12.4316, 3.8775 12.0277, 4.24443 11.6147, 4.61136 11.2018, 4.93902 10.7799, 5.22853 10.349, 5.51803 9.91808, 5.74919 9.47372, 5.922 9.01589, 6.0948 8.55807, 6.18064 8.0778, 6.18064 7.57453, 6.18064 7.15037, 6.12566 6.7537, 6.01457 6.38565, 5.90348 6.01759, 5.74358 5.69442, 5.53374 5.41613, 5.32391 5.13785, 5.06189 4.91343, 4.7477 4.74286, 4.4335 4.5723, 4.06994 4.48702, 3.657 4.48646, 3.04096 4.48702, 2.49673 4.67105, 2.02544 5.0391, 1.55415 5.40716, 1.24108 5.8128, 1.08678 6.25492, 1.05649 6.26726, 1.10586 6.27343, 1.2349 6.27287 L 1.392 6.27287 C 1.57715 6.31551, 1.73705 6.38004, 1.87283 6.46644, 2.00861 6.5534, 2.1225 6.67291, 2.21508 6.82552, 2.30765 6.97812, 2.35366 7.16215, 2.35366 7.37704, 2.35366 7.73668, 2.23696 8.01216, 2.00243 8.20348, 1.76791 8.39536, 1.5059 8.49074, 1.21639 8.49018, 0.939226 8.49074, 0.680578 8.39536, 0.439883 8.20348, 0.19975 8.01216, 0.0791219 7.73668, 0.0791219 7.37704, 0.0791219 6.87489, 0.177868 6.39911, 0.375361 5.95026, 0.572854 5.50142, 0.84048 5.1126, 1.17936 4.78326, 1.51824 4.45448, 1.91884 4.19415, 2.38115 4.00226, 2.84346 3.81094, 3.33383 3.715, 3.85113 3.71444, 4.49186 3.715, 5.07928 3.80926, 5.61229 3.99778, 6.1453 4.18629, 6.59976 4.45728, 6.97567 4.81019, 7.35157 5.16366, 7.64613 5.57211, 7.85877 6.03554, 8.07141 6.49954, 8.17745 7.01235, 8.17745 7.57453, 8.17745 8.19731, 8.03607 8.77071, 7.75217 9.29418, 7.46884 9.81821, 7.11761 10.2985, 6.6985 10.735, 6.27939 11.172, 5.83391 11.5833, 5.36262 11.9693, 4.89133 12.3553, 4.46436 12.7307, 4.08228 13.0954 L 1.95587 15.0972, 4.73872 15.0972 C 5.12697 15.0978, 5.48942 15.095, 5.82493 15.0888, 6.16101 15.0832, 6.44603 15.0708, 6.67999 15.0529, 6.91451 15.0349, 7.03458 15.0232, 7.04019 15.0164, 7.08956 14.9749, 7.13613 14.8913, 7.17933 14.7656, 7.22253 14.64, 7.26237 14.4918, 7.2994 14.3213, 7.33643 14.1507, 7.37346 13.9773, 7.41049 13.8006, 7.44752 13.6244, 7.48118 13.4309, 7.51204 13.221 L 8.19597 13.221 Z" stroke="none" fill="#000000" />
			<path d="M 24.8237 16.8334 C 24.0061 16.7911, 23.2172 16.7693, 22.4558 16.7693 L 22.0877 16.7693 C 21.2008 16.7819, 20.2791 16.8002, 19.323 16.8243 L 19.323 16.064 C 19.6064 16.0646, 19.8612 16.0542, 20.0873 16.0325, 20.314 16.0113, 20.515 15.9667, 20.6913 15.8991, 20.7732 15.8567, 20.8453 15.7926, 20.9083 15.7067, 20.9335 15.677, 20.9461 15.6369, 20.9461 15.5877, 20.9461 15.5636, 20.9432 15.5361, 20.9363 15.5052 L 19.8703 12.5465, 15.2376 12.5465, 14.3605 15.0014 C 14.329 15.0753, 14.313 15.1457, 14.313 15.2121, 14.313 15.2739, 14.3227 15.3346, 14.3416 15.3953, 14.392 15.5304, 14.4738 15.6403, 14.5866 15.7251, 14.7504 15.8602, 14.925 15.9501, 15.1105 15.9959, 15.296 16.0417, 15.521 16.0646, 15.7849 16.064 L 15.7849 16.8243 C 15.024 16.8002, 14.2975 16.7819, 13.6053 16.7693 L 13.3134 16.7693 C 12.7094 16.7693, 12.0802 16.7911, 11.4264 16.8334 L 11.4264 16.064 C 11.7287 16.0646, 11.9909 16.0451, 12.2142 16.005, 12.4374 15.9655, 12.6527 15.8876, 12.8599 15.7709, 13.2 15.5819, 13.4387 15.3043, 13.5773 14.9373 L 17.653 3.4596 C 17.716 3.27697, 17.8482 3.18824, 18.0492 3.19396 L 18.2003 3.19396 C 18.4018 3.19453, 18.5335 3.28327, 18.5965 3.4596 L 22.88 15.4502 C 22.9121 15.567, 22.9607 15.6707, 23.0266 15.7623, 23.093 15.8539, 23.1823 15.9151, 23.2951 15.9449, 23.4588 16.0067, 23.6747 16.0417, 23.942 16.0508, 24.2094 16.06, 24.5031 16.0646, 24.8237 16.064 L 24.8237 16.8334 Z M 17.5683 6.04277 L 15.5112 11.7862, 19.5967 11.7862 Z" stroke="none" fill="#000000" />
			<rect />
		</svg>
	</g>
	<g transform="matrix(1 0 -0 1 58.6984 8.99998)">
		<svg width="42.0378685" height="54.1276474">
			<defs />
			<path d="M 8.72362 4.3115 C 8.7053 4.39165, 8.66294 4.45864, 8.59652 4.5136, 8.53011 4.56856, 8.44996 4.59604, 8.3555 4.59547, 8.06008 4.59604, 7.77097 4.60234, 7.48757 4.61436, 7.20475 4.62695, 7.00037 4.66016, 6.87442 4.71455, 6.74274 4.75806, 6.64484 4.91664, 6.58186 5.19088 L 3.93057 15.5144 C 3.90538 15.6312, 3.89278 15.7319, 3.89278 15.8167, 3.89278 15.9025, 3.90881 15.9546, 3.9403 15.9724, 4.02847 16.0279, 4.21053 16.06, 4.48762 16.0691, 4.76472 16.0783, 5.0567 16.0829, 5.36471 16.0823, 5.54104 16.0829, 5.62921 16.1562, 5.62921 16.3021, 5.62921 16.3394, 5.62291 16.3789, 5.61031 16.4212 L 5.57253 16.5678 C 5.50325 16.751, 5.3836 16.8426, 5.21356 16.8426, 4.40232 16.806, 3.58134 16.7876, 2.7512 16.7876, 1.92736 16.7876, 1.09092 16.806, 0.241318 16.8426, 0.0787248 16.8426, -0.0031441 16.7636, -0.0037166 16.6044 L -0.0037166 16.5311, 0.034069 16.3754 C 0.0850224 16.1745, 0.207539 16.0766, 0.402193 16.0823, 0.710203 16.0829, 1.00619 16.0783, 1.28901 16.0691, 1.57183 16.06, 1.77622 16.0279, 1.90217 15.9724, 2.01553 15.9117, 2.10713 15.7468, 2.17583 15.4777 L 4.84601 5.15423 C 4.8712 5.03859, 4.8838 4.94699, 4.8838 4.87943, 4.8838 4.7884, 4.86834 4.73058, 4.83628 4.70539, 4.73609 4.6573, 4.54774 4.62695, 4.27064 4.61436, 3.99355 4.60234, 3.70729 4.59604, 3.41188 4.59547, 3.23554 4.59604, 3.14738 4.5136, 3.14738 4.34814 L 3.14738 4.28402, 3.18516 4.11914 C 3.25444 3.93651, 3.37409 3.84491, 3.54355 3.84433, 4.36797 3.86952, 5.19524 3.88155, 6.02538 3.88097, 6.86239 3.88155, 7.69253 3.86952, 8.5158 3.84433, 8.60397 3.84491, 8.67954 3.87525, 8.74251 3.93593, 8.7677 3.98517, 8.7803 4.03097, 8.7803 4.07334, 8.7803 4.11055, 8.77114 4.14433, 8.75167 4.1741 Z" stroke="none" fill="#000000" />
			<path d="M 2.37267 3.19713 C 1.72472 3.17661, 1.09441 3.16635, 0.481416 3.16635, -0.131261 3.16635, -0.761571 3.17661, -1.40951 3.19713 L -1.40951 2.75598, -1.04499 2.75598 C -0.928927 2.7563, -0.819601 2.75469, -0.717648 2.75117, -0.615375 2.74796, -0.518552 2.7393, -0.426859 2.72552, -0.335166 2.71205, -0.255976 2.69827, -0.18929 2.68416, -0.132864 2.67422, -0.086376 2.6428, -0.0495062 2.58958, -0.012316 2.53668, 0.00595856 2.47769, 0.00595856 2.41229 L 0.00595856 -3.36887 C -0.169733 -3.28295, -0.386463 -3.21787, -0.643588 -3.17362, -0.900714 -3.12906, -1.18221 -3.10694, -1.4887 -3.10726 L -1.4887 -3.54328 C -1.06615 -3.54296, -0.675969 -3.59329, -0.318494 -3.69429, 0.0389807 -3.79496, 0.348044 -3.98411, 0.608376 -4.26144 L 0.772206 -4.26144 C 0.888265 -4.26112, 0.946294 -4.20469, 0.946294 -4.09216 L 0.946294 2.41229 C 0.946294 2.4809, 0.963928 2.54085, 0.999194 2.59215, 1.03446 2.64344, 1.08576 2.67422, 1.15244 2.68416, 1.20887 2.69827, 1.28133 2.71205, 1.36917 2.72552, 1.45702 2.7393, 1.55641 2.74796, 1.66734 2.75117, 1.77827 2.75469, 1.88663 2.7563, 1.99243 2.75598 L 2.37267 2.75598, 2.37267 3.19713 Z" stroke="none" fill="#000000" transform="matrix(1.12 0 0 1 10.309 16.3063)" />
			<rect />
		</svg>
	</g>
	<ellipse cx="1241.6258792877197" cy="481.65566444396973" rx="7.3500003814697266" ry="7.3500003814697266" stroke="none" fill="#000000" transform="matrix(0.357143 0 0 0.357143 -262.571 -132.11)" />
	<ellipse cx="1241.6258792877197" cy="799.82479286193848" rx="7.3500003814697266" ry="7.3500003814697266" stroke="none" fill="#000000" transform="matrix(0.357143 0 0 0.357143 -262.571 -132.11)" />
	<path d="M 0 -63.7661 L 0 -42.511" fill="none" stroke="#000000" stroke-width="2.79999995" stroke-linecap="round" stroke-linejoin="round" transform="matrix(0.357143 -1.07854e-007 1.07854e-007 0.357143 237.713 96.7254)" />
	<path d="M 0 63.7661 L 0 42.511" fill="none" stroke="#000000" stroke-width="2.79999995" stroke-linecap="round" stroke-linejoin="round" transform="matrix(0.357143 -1.07854e-007 1.07854e-007 0.357143 237.713 96.7254)" />
	<path d="M 42.511 -0 C 42.511 23.4782, 23.4782 42.511, -0 42.511, -23.4782 42.511, -42.511 23.4782, -42.511 -0, -42.511 -23.4782, -23.4782 -42.511, -0 -42.511, 23.4782 -42.511, 42.511 -23.4782, 42.511 -0 Z" stroke="none" fill="#FFFFFF" transform="matrix(0.357143 -1.07854e-007 1.07854e-007 0.357143 237.713 96.7254)" />
	<path d="M 42.511 -0 C 42.511 23.4782, 23.4782 42.511, -0 42.511, -23.4782 42.511, -42.511 23.4782, -42.511 -0, -42.511 -23.4782, -23.4782 -42.511, -0 -42.511, 23.4782 -42.511, 42.511 -23.4782, 42.511 -0 Z" fill="none" stroke="#000000" stroke-width="4.19999981" stroke-linecap="round" stroke-linejoin="round" transform="matrix(0.357143 -1.07854e-007 1.07854e-007 0.357143 237.713 96.7254)" />
	<path d="M -42.511 0 L 42.511 0" fill="none" stroke="#000000" stroke-width="2.79999995" stroke-linecap="round" stroke-linejoin="round" transform="matrix(0.357143 -1.07854e-007 1.07854e-007 0.357143 237.713 96.7254)" />
	<path d="M 0 -63.7661 L 0 -42.5109" fill="none" stroke="#000000" stroke-width="2.79999995" stroke-linecap="round" stroke-linejoin="round" transform="matrix(0.357143 -1.07854e-007 1.07854e-007 0.357143 369.31 96.7257)" />
	<path d="M 0 63.7661 L 0 42.5109" fill="none" stroke="#000000" stroke-width="2.79999995" stroke-linecap="round" stroke-linejoin="round" transform="matrix(0.357143 -1.07854e-007 1.07854e-007 0.357143 369.31 96.7257)" />
	<path d="M 42.5109 -0 C 42.5109 23.4781, 23.4781 42.5109, -0 42.5109, -23.4781 42.5109, -42.5109 23.4781, -42.5109 -0, -42.5109 -23.4781, -23.4781 -42.5109, -0 -42.5109, 23.4781 -42.5109, 42.5109 -23.4781, 42.5109 -0 Z" stroke="none" fill="#FFFFFF" transform="matrix(0.357143 -1.07854e-007 1.07854e-007 0.357143 369.31 96.7257)" />
	<path d="M 42.5109 -0 C 42.5109 23.4781, 23.4781 42.5109, -0 42.5109, -23.4781 42.5109, -42.5109 23.4781, -42.5109 -0, -42.5109 -23.4781, -23.4781 -42.5109, -0 -42.5109, 23.4781 -42.5109, 42.5109 -23.4781, 42.5109 -0 Z" fill="none" stroke="#000000" stroke-width="4.19999981" stroke-linecap="round" stroke-linejoin="round" transform="matrix(0.357143 -1.07854e-007 1.07854e-007 0.357143 369.31 96.7257)" />
	<path d="M 0 -42.5109 L 0 42.5109" fill="none" stroke="#000000" stroke-width="2.79999995" stroke-linecap="round" stroke-linejoin="round" transform="matrix(0.357143 -1.07854e-007 1.07854e-007 0.357143 369.31 96.7257)" />
	<path d="M 29.7576 -63.7661 L 55.2642 -63.7661" fill="none" stroke="#000000" stroke-width="2.79999995" stroke-linecap="round" stroke-linejoin="round" transform="matrix(0.357143 -1.07854e-007 1.07854e-007 0.357143 369.31 96.7257)" />
	<path d="M 42.5109 -76.5193 L 42.5109 -51.0128" fill="none" stroke="#000000" stroke-width="2.79999995" stroke-linecap="round" stroke-linejoin="round" transform="matrix(0.357143 -1.07854e-007 1.07854e-007 0.357143 369.31 96.7257)" />
	<path d="M 29.7576 63.7661 L 55.2642 63.7661" fill="none" stroke="#000000" stroke-width="2.79999995" stroke-linecap="round" stroke-linejoin="round" transform="matrix(0.357143 -1.07854e-007 1.07854e-007 0.357143 369.31 96.7257)" />
	<path d="M -219.686 -159.085 L 219.686 -159.085, 219.686 159.085, -219.686 159.085 Z" fill="none" stroke="#000000" stroke-width="3.73333335" stroke-linecap="round" stroke-linejoin="round" transform="matrix(0.357143 0 -0 0.357143 447.77 96.7254)" />
	<path d="M -18.4712 -11.2883 L -18.4712 11.2883, 18.4712 0 Z" stroke="none" fill="#000000" transform="matrix(0.357143 0 0 -0.357143 410.834 39.9097)" />
	<g transform="matrix(1 0 -0 1 393.154 85.5183)">
		<svg width="108.057793" height="48.0957298">
			<defs />
			<path d="M 7.61023 16.7669 L 0.0841818 16.7669, 0.0841818 16.2732 C 0.0841818 16.2379, 0.102697 16.184, 0.139727 16.1116 L 3.16328 12.826 C 3.52067 12.4316, 3.88255 12.0277, 4.24949 11.6147, 4.61642 11.2018, 4.9452 10.7799, 5.23471 10.349, 5.52422 9.91808, 5.75537 9.47372, 5.92818 9.01589, 6.10098 8.55807, 6.18683 8.0778, 6.18683 7.57453, 6.18683 7.15037, 6.13128 6.7537, 6.02019 6.38565, 5.9091 6.01759, 5.7492 5.69442, 5.53936 5.41613, 5.33009 5.13785, 5.06807 4.91343, 4.75388 4.74286, 4.43969 4.5723, 4.07556 4.48702, 3.66262 4.48646, 3.04658 4.48702, 2.50235 4.67105, 2.0305 5.0391, 1.55921 5.40716, 1.24614 5.8128, 1.09184 6.25492, 1.06155 6.26726, 1.11092 6.27343, 1.23996 6.27287 L 1.39706 6.27287 C 1.58221 6.31551, 1.74211 6.38004, 1.87789 6.46644, 2.01367 6.5534, 2.12756 6.67291, 2.22014 6.82552, 2.31271 6.97812, 2.35872 7.16215, 2.35872 7.37704, 2.35872 7.73668, 2.24202 8.01216, 2.00749 8.20348, 1.77297 8.39536, 1.51096 8.49074, 1.22145 8.49018, 0.944286 8.49074, 0.685077 8.39536, 0.444943 8.20348, 0.20481 8.01216, 0.0841818 7.73668, 0.0841818 7.37704, 0.0841818 6.87489, 0.182928 6.39911, 0.380421 5.95026, 0.577914 5.50142, 0.84554 5.1126, 1.18442 4.78326, 1.5233 4.45448, 1.9239 4.19415, 2.38621 4.00226, 2.84852 3.81094, 3.33889 3.715, 3.85675 3.71444, 4.49804 3.715, 5.08547 3.80926, 5.61847 3.99778, 6.15148 4.18629, 6.60594 4.45728, 6.98185 4.81019, 7.35776 5.16366, 7.65231 5.57211, 7.86496 6.03554, 8.0776 6.49954, 8.18364 7.01235, 8.18364 7.57453, 8.18364 8.19731, 8.04225 8.77071, 7.75835 9.29418, 7.47502 9.81821, 7.1238 10.2985, 6.70468 10.735, 6.28557 11.172, 5.84009 11.5833, 5.36824 11.9693, 4.89695 12.3553, 4.46998 12.7307, 4.0879 13.0954 L 1.96093 15.0972, 4.74434 15.0972 C 5.1326 15.0978, 5.49504 15.095, 5.83055 15.0888, 6.16663 15.0832, 6.45165 15.0708, 6.68617 15.0529, 6.92069 15.0349, 7.04076 15.0232, 7.04637 15.0164, 7.09574 14.9749, 7.14231 14.8913, 7.18551 14.7656, 7.22871 14.64, 7.26855 14.4918, 7.30558 14.3213, 7.34261 14.1507, 7.37964 13.9773, 7.41667 13.8006, 7.4537 13.6244, 7.48736 13.4309, 7.51822 13.221 L 8.20215 13.221 Z" stroke="none" fill="#000000" />
			<path d="M 18.2476 12.7632 C 18.2476 13.386, 18.1556 13.9442, 17.9704 14.438, 17.7858 14.9317, 17.4716 15.4181, 17.0273 15.8962, 16.5897 16.3456, 16.1414 16.6732, 15.6819 16.8791, 15.2229 17.0856, 14.6697 17.1888, 14.0223 17.1888, 13.363 17.1888, 12.7587 17.0261, 12.21 16.6996, 11.6613 16.3742, 11.2237 15.9326, 10.8972 15.3755, 10.4348 14.6158, 10.1408 13.8141, 10.014 12.9702, 9.8878 12.1264, 9.8244 11.2854, 9.8244 10.4472, 9.8244 9.61005, 9.94615 8.78586, 10.1897 7.97457, 10.4332 7.16384, 10.8231 6.41426, 11.3595 5.72528, 11.8094 5.13953, 12.3581 4.65758, 13.0056 4.28055, 13.6531 3.90352, 14.3645 3.715, 15.141 3.71444, 15.8872 3.715, 16.5066 3.90689, 16.9998 4.28953, 17.493 4.67273, 17.7393 5.22313, 17.7393 5.94073, 17.7393 6.27624, 17.6377 6.52479, 17.4341 6.68637, 17.231 6.84796, 16.9964 6.92875, 16.7316 6.92819, 16.4791 6.92875, 16.2525 6.84796, 16.0522 6.68637, 15.8519 6.52479, 15.7514 6.27624, 15.7514 5.94073, 15.7514 5.58221, 15.8838 5.3129, 16.1487 5.1328, 16.3215 5.02564, 16.5162 4.97178, 16.7316 4.97122, 16.7995 4.97178, 16.8085 4.96897, 16.7591 4.96224, 16.6727 4.83095, 16.4836 4.70135, 16.1907 4.5723, 15.8979 4.44382, 15.5483 4.3793, 15.141 4.37874, 14.5923 4.3793, 14.0991 4.54257, 13.6615 4.86854, 13.2239 5.19508, 12.8541 5.60297, 12.5523 6.09333, 12.1949 6.71611, 11.9789 7.39443, 11.9048 8.12718, 11.8308 8.86048, 11.7876 9.4451, 11.7752 9.88161, 11.8863 9.62464, 12.1534 9.30933, 12.5753 8.9351, 12.9978 8.56143, 13.5324 8.37404, 14.1793 8.37348, 14.796 8.37404, 15.3278 8.47728, 15.7744 8.68375, 16.2216 8.89022, 16.6514 9.2117, 17.0643 9.64821, 17.4963 10.1274, 17.8015 10.6093, 17.98 11.0941, 18.1584 11.5788, 18.2476 12.1354, 18.2476 12.7632 Z M 16.2783 12.7632 C 16.2783 12.1892, 16.2598 11.6731, 16.2227 11.2152, 16.1857 10.7574, 16.0628 10.3551, 15.853 10.0073, 15.6375 9.65494, 15.3968 9.39461, 15.132 9.22685, 14.8672 9.05966, 14.5435 8.9755, 14.1608 8.97494, 13.7479 8.9755, 13.395 9.08041, 13.1021 9.28969, 12.8092 9.49953, 12.5613 9.77445, 12.3581 10.1156, 12.155 10.4567, 12.0097 10.8545, 11.9233 11.3089, 11.8616 11.6209, 11.8308 11.953, 11.8308 12.3054, 11.8308 12.4434, 11.8369 12.5904, 11.8493 12.7453 L 11.8493 12.8171 C 11.874 13.2665, 11.9082 13.6856, 11.9514 14.0744, 11.9946 14.4638, 12.0625 14.7808, 12.1545 15.0254, 12.3273 15.4569, 12.5815 15.807, 12.9175 16.0763, 13.2536 16.3456, 13.6217 16.4802, 14.0223 16.4797, 14.4352 16.4802, 14.7836 16.4011, 15.0669 16.2423, 15.3508 16.0841, 15.6005 15.8277, 15.816 15.4742, 16.0381 15.1219, 16.1705 14.7224, 16.2137 14.2764, 16.257 13.8309, 16.2783 13.3265, 16.2783 12.7632 Z" stroke="none" fill="#000000" />
			<path d="M 34.9679 4.57714 C 34.6788 4.57772, 34.424 4.59947, 34.2036 4.64184, 33.9838 4.68478, 33.7794 4.75806, 33.5905 4.86111, 33.2761 5.05118, 33.0368 5.33801, 32.8731 5.72216 L 28.5048 16.98 C 28.4236 17.1575, 28.285 17.2428, 28.0898 17.2365 L 27.9386 17.2365 C 27.744 17.2365, 27.606 17.1512, 27.5236 16.98 L 22.9481 5.19087 C 22.8977 5.07523, 22.841 4.9716, 22.778 4.88, 22.7151 4.7884, 22.624 4.72142, 22.5044 4.67791, 22.3601 4.62352, 22.1569 4.59317, 21.8958 4.58688, 21.6347 4.58115, 21.3565 4.57772, 21.0611 4.57714 L 21.0611 3.81685 C 21.8723 3.86036, 22.6492 3.88154, 23.3912 3.88097, 23.5045 3.88154, 23.6276 3.87525, 23.7593 3.86265, 24.6215 3.86322, 25.5238 3.8512, 26.4673 3.82601 L 26.4673 4.57714 C 26.1845 4.57772, 25.9326 4.58401, 25.7121 4.59604, 25.4923 4.60863, 25.2942 4.65386, 25.1179 4.73287, 25.0366 4.77638, 24.9736 4.8342, 24.929 4.90691, 24.898 4.95615, 24.882 5.00195, 24.882 5.04431, 24.882 5.0695, 24.8854 5.09698, 24.8912 5.12675 L 28.5902 14.5984, 32.0807 5.64888 C 32.1128 5.57617, 32.1283 5.49373, 32.1283 5.40156, 32.1283 5.22522, 32.0435 5.06034, 31.8735 4.90691, 31.7292 4.77924, 31.5672 4.69222, 31.3874 4.64642, 31.2082 4.60062, 30.9804 4.57772, 30.7033 4.57714 L 30.7033 3.82601 C 31.4647 3.8512, 32.1815 3.86322, 32.8548 3.86265, 32.9429 3.87525, 33.0368 3.88154, 33.1376 3.88097, 33.7164 3.88154, 34.3267 3.86036, 34.9679 3.81685 L 34.9679 4.57714 Z" stroke="none" fill="#000000" />
			<rect />
		</svg>
	</g>
	<rect x="-51.0131874" y="-12.7531366" width="102.026375" height="25.5062733" stroke="none" fill="#FFFFFF" transform="matrix(0.357143 0 -0 0.357143 470.962 39.9097)" />
	<path d="M -51.0132 -12.7531 L 51.0132 -12.7531, 51.0132 12.7531, -51.0132 12.7531 Z" fill="none" stroke="#000000" stroke-width="4.19999981" stroke-linecap="round" stroke-linejoin="round" transform="matrix(0.357143 0 -0 0.357143 470.962 39.9097)" />
	<g transform="matrix(1 0 -0 1 458.465 9.05792)">
		<svg width="77.9182587" height="45.2233963">
			<defs />
			<path d="M 7.07718 13.5711 L 7.07718 15.3935 C 7.07718 15.5017, 7.09738 15.6022, 7.13778 15.6947, 7.17817 15.7879, 7.24438 15.849, 7.33639 15.8782, 7.47834 15.9444, 7.7095 15.9809, 8.02986 15.9865, 8.35023 15.9927, 8.6734 15.9955, 8.99993 15.9949 L 8.99993 16.7669 C 8.05735 16.731, 7.13329 16.7131, 6.22662 16.7131, 5.33341 16.7131, 4.39363 16.731, 3.40729 16.7669 L 3.40729 15.9949 C 3.74617 15.9955, 4.07327 15.9927, 4.38746 15.9865, 4.70166 15.9809, 4.93618 15.9444, 5.08991 15.8782, 5.18248 15.849, 5.25037 15.7879, 5.29357 15.6947, 5.33678 15.6022, 5.3581 15.5017, 5.3581 15.3935 L 5.3581 13.5711, 0.0886252 13.5711, 0.0886252 12.844, 6.26365 3.66058 C 6.34444 3.55342, 6.44599 3.49956, 6.56886 3.49899 L 6.77253 3.49899 C 6.97563 3.49956, 7.07718 3.60111, 7.07718 3.80421 L 7.07718 12.7812, 9.06502 12.7812, 9.06502 13.5711 Z M 5.45011 6.02152 L 0.902161 12.7812, 5.45011 12.7812 Z" stroke="none" fill="#000000" />
			<path d="M 23.8206 16.6044 C 23.7829 16.751, 23.6792 16.8243, 23.5092 16.8243 L 20.3873 16.8243 C 20.1801 16.8243, 20.0759 16.7241, 20.0759 16.522, 20.0759 15.7714, 20.1875 15.0478, 20.4108 14.3516, 20.6341 13.6554, 20.8779 12.9673, 21.1419 12.286, 21.4064 11.6053, 21.6451 10.9257, 21.8587 10.2479, 22.0728 9.57, 22.1793 8.88013, 22.1793 8.17708, 22.1793 7.62805, 22.0945 7.09561, 21.9245 6.57921, 21.755 6.06338, 21.4877 5.60995, 21.123 5.21893, 20.7583 4.82848, 20.3278 4.52905, 19.8308 4.32123, 19.3339 4.11398, 18.8152 4.00979, 18.2742 4.00921, 17.7337 4.00979, 17.215 4.11398, 16.7181 4.32123, 16.2211 4.52905, 15.7923 4.82848, 15.4305 5.21893, 15.0687 5.60995, 14.8013 6.06338, 14.6284 6.57921, 14.4555 7.09561, 14.3691 7.62805, 14.3691 8.17708, 14.3691 8.88013, 14.4779 9.57, 14.6943 10.2479, 14.9112 10.9257, 15.1517 11.6053, 15.4156 12.286, 15.6801 12.9673, 15.9234 13.6571, 16.1467 14.3562, 16.37 15.0558, 16.4816 15.7777, 16.4816 16.522, 16.4816 16.7241, 16.3843 16.8243, 16.1897 16.8243 L 13.0386 16.8243 C 12.8754 16.8243, 12.7746 16.751, 12.7369 16.6044 L 12.0767 13.9846 C 12.0767 13.8203, 12.1649 13.7167, 12.3407 13.6732 L 12.4443 13.6732 C 12.608 13.6738, 12.7088 13.7499, 12.7466 13.9022, 12.8473 14.3241, 12.9401 14.6722, 13.0248 14.947, 13.1096 15.2218, 13.168 15.3684, 13.1989 15.3861, 13.2618 15.4354, 13.413 15.4663, 13.6517 15.4783, 13.891 15.4909, 14.1773 15.4966, 14.5105 15.496 L 15.7179 15.496 C 15.5862 14.947, 15.336 14.3825, 14.9679 13.802, 14.6004 13.222, 14.2179 12.6387, 13.8218 12.0524, 13.4256 11.4662, 13.0752 10.8587, 12.7701 10.2295, 12.4655 9.60092, 12.3126 8.91677, 12.3126 8.17708, 12.3126 7.49351, 12.4729 6.86203, 12.7935 6.28151, 13.1141 5.70155, 13.5452 5.20347, 14.0857 4.78783, 14.6708 4.31837, 15.3252 3.96857, 16.0482 3.73956, 16.7713 3.51056, 17.5133 3.39606, 18.2742 3.39548, 19.0356 3.39606, 19.7776 3.51056, 20.5007 3.73956, 21.2237 3.96857, 21.8873 4.31837, 22.4907 4.78783, 23.0191 5.21606, 23.4468 5.71816, 23.7737 6.29525, 24.1006 6.87234, 24.2638 7.49981, 24.2638 8.17708, 24.2638 8.91677, 24.1115 9.60092, 23.8063 10.2295, 23.5018 10.8587, 23.1479 11.4662, 22.7455 12.0524, 22.343 12.6387, 21.956 13.222, 21.585 13.802, 21.214 14.3825, 20.9627 14.947, 20.8304 15.496 L 22.047 15.496 C 22.3808 15.4966, 22.667 15.4909, 22.9058 15.4783, 23.1451 15.4663, 23.2957 15.4354, 23.3586 15.3861, 23.3775 15.3747, 23.4308 15.2281, 23.5189 14.947, 23.6071 14.6665, 23.701 14.3178, 23.8017 13.9022, 23.8395 13.7562, 23.9437 13.68, 24.1132 13.6732 L 24.2168 13.6732 C 24.3869 13.7104, 24.4716 13.814, 24.4716 13.9846 Z" stroke="none" fill="#000000" />
			<rect />
		</svg>
	</g>
	<g transform="matrix(1 0 -0 1 404.326 8.99998)">
		<svg width="42.0378685" height="54.1276474">
			<defs />
			<path d="M 8.72362 4.3115 C 8.7053 4.39165, 8.66294 4.45864, 8.59652 4.5136, 8.53011 4.56856, 8.44996 4.59604, 8.3555 4.59547, 8.06008 4.59604, 7.77097 4.60234, 7.48757 4.61436, 7.20475 4.62695, 7.00037 4.66016, 6.87442 4.71455, 6.74274 4.75806, 6.64484 4.91664, 6.58186 5.19088 L 3.93057 15.5144 C 3.90538 15.6312, 3.89278 15.7319, 3.89278 15.8167, 3.89278 15.9025, 3.90881 15.9546, 3.9403 15.9724, 4.02847 16.0279, 4.21053 16.06, 4.48762 16.0691, 4.76472 16.0783, 5.0567 16.0829, 5.36471 16.0823, 5.54104 16.0829, 5.62921 16.1562, 5.62921 16.3021, 5.62921 16.3394, 5.62291 16.3789, 5.61031 16.4212 L 5.57253 16.5678 C 5.50325 16.751, 5.3836 16.8426, 5.21356 16.8426, 4.40232 16.806, 3.58134 16.7876, 2.7512 16.7876, 1.92736 16.7876, 1.09092 16.806, 0.241318 16.8426, 0.0787248 16.8426, -0.0031441 16.7636, -0.0037166 16.6044 L -0.0037166 16.5311, 0.034069 16.3754 C 0.0850224 16.1745, 0.207539 16.0766, 0.402193 16.0823, 0.710203 16.0829, 1.00619 16.0783, 1.28901 16.0691, 1.57183 16.06, 1.77622 16.0279, 1.90217 15.9724, 2.01553 15.9117, 2.10713 15.7468, 2.17583 15.4777 L 4.84601 5.15423 C 4.8712 5.03859, 4.8838 4.94699, 4.8838 4.87943, 4.8838 4.7884, 4.86834 4.73058, 4.83628 4.70539, 4.73609 4.6573, 4.54774 4.62695, 4.27064 4.61436, 3.99355 4.60234, 3.70729 4.59604, 3.41188 4.59547, 3.23554 4.59604, 3.14738 4.5136, 3.14738 4.34814 L 3.14738 4.28402, 3.18516 4.11914 C 3.25444 3.93651, 3.37409 3.84491, 3.54355 3.84433, 4.36797 3.86952, 5.19524 3.88155, 6.02538 3.88097, 6.86239 3.88155, 7.69253 3.86952, 8.5158 3.84433, 8.60397 3.84491, 8.67954 3.87525, 8.74251 3.93593, 8.7677 3.98517, 8.7803 4.03097, 8.7803 4.07334, 8.7803 4.11055, 8.77114 4.14433, 8.75167 4.1741 Z" stroke="none" fill="#000000" />
			<path d="M 2.37267 3.19713 C 1.72472 3.17661, 1.09441 3.16635, 0.481416 3.16635, -0.131261 3.16635, -0.761571 3.17661, -1.40951 3.19713 L -1.40951 2.75598, -1.04499 2.75598 C -0.928927 2.7563, -0.819601 2.75469, -0.717648 2.75117, -0.615375 2.74796, -0.518552 2.7393, -0.426859 2.72552, -0.335166 2.71205, -0.255976 2.69827, -0.18929 2.68416, -0.132864 2.67422, -0.086376 2.6428, -0.0495062 2.58958, -0.012316 2.53668, 0.00595856 2.47769, 0.00595856 2.41229 L 0.00595856 -3.36887 C -0.169733 -3.28295, -0.386463 -3.21787, -0.643588 -3.17362, -0.900714 -3.12906, -1.18221 -3.10694, -1.4887 -3.10726 L -1.4887 -3.54328 C -1.06615 -3.54296, -0.675969 -3.59329, -0.318494 -3.69429, 0.0389807 -3.79496, 0.348044 -3.98411, 0.608376 -4.26144 L 0.772206 -4.26144 C 0.888265 -4.26112, 0.946294 -4.20469, 0.946294 -4.09216 L 0.946294 2.41229 C 0.946294 2.4809, 0.963928 2.54085, 0.999194 2.59215, 1.03446 2.64344, 1.08576 2.67422, 1.15244 2.68416, 1.20887 2.69827, 1.28133 2.71205, 1.36917 2.72552, 1.45702 2.7393, 1.55641 2.74796, 1.66734 2.75117, 1.77827 2.75469, 1.88663 2.7563, 1.99243 2.75598 L 2.37267 2.75598, 2.37267 3.19713 Z" stroke="none" fill="#000000" transform="matrix(1.12 0 0 1 10.309 16.3063)" />
			<rect />
		</svg>
	</g>
	<g transform="matrix(1 0 -0 1 470.22 85.518)">
		<svg width="108.057793" height="48.0957298">
			<defs />
			<path d="M 6.82725 16.7669 C 5.69335 16.731, 4.5903 16.7131, 3.51756 16.7131, 2.44537 16.7131, 1.34233 16.731, 0.208429 16.7669 L 0.208429 15.9949, 0.846354 15.9949 C 1.04946 15.9955, 1.24078 15.9927, 1.4192 15.9865, 1.59817 15.9809, 1.76761 15.9657, 1.92808 15.9416, 2.08854 15.918, 2.22712 15.8939, 2.34382 15.8692, 2.44257 15.8518, 2.52392 15.7969, 2.58844 15.7037, 2.65353 15.6111, 2.68551 15.5079, 2.68551 15.3935 L 2.68551 5.27643 C 2.37805 5.4268, 1.99877 5.54069, 1.5488 5.61812, 1.09883 5.6961, 0.60622 5.73482, 0.0698472 5.73426 L 0.0698472 4.97122 C 0.809324 4.97178, 1.49213 4.88369, 2.11771 4.70696, 2.7433 4.53078, 3.28416 4.19976, 3.73974 3.71444 L 4.02644 3.71444 C 4.22954 3.715, 4.33109 3.81375, 4.33109 4.01068 L 4.33109 15.3935 C 4.33109 15.5135, 4.36195 15.6184, 4.42367 15.7082, 4.48539 15.798, 4.57516 15.8518, 4.69186 15.8692, 4.7906 15.8939, 4.9174 15.918, 5.07113 15.9416, 5.22486 15.9657, 5.39879 15.9809, 5.59292 15.9865, 5.78704 15.9927, 5.97668 15.9955, 6.16183 15.9949 L 6.82725 15.9949, 6.82725 16.7669 Z" stroke="none" fill="#000000" />
			<path d="M 17.5469 10.519 C 17.5469 11.3813, 17.4869 12.2386, 17.3668 13.0914, 17.2467 13.9442, 16.9494 14.7449, 16.4747 15.4922, 16.1358 16.0376, 15.6825 16.4561, 15.1158 16.749, 14.5491 17.0424, 13.9325 17.1888, 13.2666 17.1888, 12.6258 17.1888, 12.0204 17.0424, 11.4504 16.749, 10.8804 16.4561, 10.4254 16.0376, 10.0865 15.4922, 9.61238 14.7449, 9.31502 13.9442, 9.19495 13.0914, 9.07489 12.2386, 9.01429 11.3813, 9.01429 10.519, 9.01429 9.64596, 9.07489 8.77352, 9.19495 7.90275, 9.31502 7.03199, 9.61238 6.21677, 10.0865 5.45597, 10.4254 4.90613, 10.8787 4.47804, 11.4454 4.17283, 12.0126 3.86761, 12.6197 3.715, 13.2666 3.71444, 13.9264 3.715, 14.5407 3.86761, 15.1108 4.17283, 15.6808 4.47804, 16.1358 4.90613, 16.4747 5.45597, 16.9494 6.21677, 17.2467 7.03199, 17.3668 7.90275, 17.4869 8.77352, 17.5469 9.64596, 17.5469 10.519 Z M 15.7161 10.2048 C 15.7161 9.82831, 15.7133 9.43052, 15.7072 9.0114, 15.7016 8.59285, 15.6859 8.18272, 15.6612 7.78156, 15.6365 7.38097, 15.5922 7.00225, 15.5271 6.64598, 15.4625 6.29027, 15.384 5.98617, 15.2914 5.73426, 15.1063 5.32805, 14.8353 4.99422, 14.4779 4.73389, 14.1205 4.47355, 13.7165 4.34339, 13.2666 4.34283, 12.8289 4.34339, 12.4334 4.47524, 12.0788 4.73837, 11.7248 5.00207, 11.4549 5.33366, 11.2698 5.73426, 11.1777 5.98617, 11.0992 6.29027, 11.0341 6.64598, 10.9696 7.00225, 10.9247 7.38097, 10.9 7.78156, 10.8753 8.18272, 10.8602 8.59285, 10.854 9.0114, 10.8478 9.43052, 10.8445 9.82831, 10.8445 10.2048, 10.8445 10.6245, 10.8478 11.066, 10.854 11.5294, 10.8602 11.9934, 10.8753 12.4423, 10.9 12.876, 10.9247 13.3102, 10.9696 13.7215, 11.0341 14.1103, 11.0992 14.4997, 11.1777 14.8257, 11.2698 15.0882, 11.4426 15.5259, 11.7096 15.8849, 12.0698 16.166, 12.43 16.4477, 12.8289 16.588, 13.2666 16.5874, 13.7227 16.588, 14.1312 16.4477, 14.4914 16.166, 14.8521 15.8849, 15.1186 15.5259, 15.2914 15.0882, 15.384 14.8257, 15.4625 14.4997, 15.5271 14.1103, 15.5922 13.7215, 15.6365 13.3102, 15.6612 12.876, 15.6859 12.4423, 15.7016 11.9934, 15.7072 11.5294, 15.7133 11.066, 15.7161 10.6245, 15.7161 10.2048 Z" stroke="none" fill="#000000" />
			<path d="M 34.2105 4.57714 C 33.9214 4.57772, 33.6666 4.59947, 33.4468 4.64184, 33.2269 4.68478, 33.0219 4.75806, 32.833 4.86111, 32.5187 5.05118, 32.28 5.33801, 32.1162 5.72216 L 27.7486 16.98 C 27.6673 17.1575, 27.5287 17.2428, 27.3335 17.2365 L 27.1829 17.2365 C 26.9883 17.2365, 26.8497 17.1512, 26.7679 16.98 L 22.1929 5.19087 C 22.1425 5.07523, 22.0859 4.9716, 22.0229 4.88, 21.9599 4.7884, 21.8689 4.72142, 21.7492 4.67791, 21.605 4.62352, 21.4023 4.59317, 21.1412 4.58688, 20.8802 4.58115, 20.6019 4.57772, 20.3059 4.57714 L 20.3059 3.81685 C 21.1178 3.86036, 21.8941 3.88154, 22.636 3.88097, 22.7494 3.88154, 22.8725 3.87525, 23.0042 3.86265, 23.8658 3.86322, 24.7681 3.8512, 25.7116 3.82601 L 25.7116 4.57714 C 25.4288 4.57772, 25.1768 4.58401, 24.957 4.59604, 24.7372 4.60863, 24.5385 4.65386, 24.3622 4.73287, 24.2809 4.77638, 24.2179 4.8342, 24.1738 4.90691, 24.1423 4.95615, 24.1263 5.00195, 24.1263 5.04431, 24.1263 5.0695, 24.1297 5.09698, 24.136 5.12675 L 27.8339 14.5984, 31.3239 5.64888 C 31.3554 5.57617, 31.3708 5.49373, 31.3708 5.40156, 31.3708 5.22522, 31.2861 5.06034, 31.1166 4.90691, 30.9724 4.77924, 30.8103 4.69222, 30.6306 4.64642, 30.4514 4.60062, 30.2235 4.57772, 29.9464 4.57714 L 29.9464 3.82601 C 30.7079 3.8512, 31.4246 3.86322, 32.0973 3.86265, 32.1855 3.87525, 32.28 3.88154, 32.3802 3.88097, 32.959 3.88154, 33.5693 3.86036, 34.2105 3.81685 L 34.2105 4.57714 Z" stroke="none" fill="#000000" />
			<rect />
		</svg>
	</g>
	<path d="M -70.014 0 L 70.0137 0" fill="none" stroke="#0080FF" stroke-width="7.4666667" stroke-linecap="round" stroke-linejoin="round" marker-end="url(#CustomMarker-01)" transform="matrix(0.357143 0 0 0.357143 305.585 96.7257)" />
</svg>
