<?xml version="1.0"?>
<svg xmlns="http://www.w3.org/2000/svg" xmlns:xlink="http://www.w3.org/1999/xlink" width="334.517883" height="162.041595">
	<defs />
	<path d="M 0 -100.204 L 0 -66.8028" fill="none" stroke="#000000" stroke-width="4.4000001" stroke-linecap="round" stroke-linejoin="round" transform="matrix(0.227273 -6.86345e-008 6.86345e-008 0.227273 68.1343 96.7256)" />
	<path d="M 0 100.204 L 0 66.8028" fill="none" stroke="#000000" stroke-width="4.4000001" stroke-linecap="round" stroke-linejoin="round" transform="matrix(0.227273 -6.86345e-008 6.86345e-008 0.227273 68.1343 96.7256)" />
	<path d="M 66.8028 -0 C 66.8028 36.8942, 36.8942 66.8028, -0 66.8028, -36.8942 66.8028, -66.8028 36.8942, -66.8028 -0, -66.8028 -36.8942, -36.8942 -66.8028, -0 -66.8028, 36.8942 -66.8028, 66.8028 -36.8942, 66.8028 -0 Z" stroke="none" fill="#FFFFFF" transform="matrix(0.227273 -6.86345e-008 6.86345e-008 0.227273 68.1343 96.7256)" />
	<path d="M 66.8028 -0 C 66.8028 36.8942, 36.8942 66.8028, -0 66.8028, -36.8942 66.8028, -66.8028 36.8942, -66.8028 -0, -66.8028 -36.8942, -36.8942 -66.8028, -0 -66.8028, 36.8942 -66.8028, 66.8028 -36.8942, 66.8028 -0 Z" fill="none" stroke="#000000" stroke-width="6.60000038" stroke-linecap="round" stroke-linejoin="round" transform="matrix(0.227273 -6.86345e-008 6.86345e-008 0.227273 68.1343 96.7256)" />
	<path d="M 0 -66.8028 L 0 66.8028" fill="none" stroke="#000000" stroke-width="4.4000001" stroke-linecap="round" stroke-linejoin="round" transform="matrix(0.227273 -6.86345e-008 6.86345e-008 0.227273 68.1343 96.7256)" />
	<path d="M -86.8437 -100.204 L -46.762 -100.204" fill="none" stroke="#000000" stroke-width="4.4000001" stroke-linecap="round" stroke-linejoin="round" transform="matrix(0.227273 -6.86345e-008 6.86345e-008 0.227273 68.1343 96.7256)" />
	<path d="M -66.8028 -120.245 L -66.8028 -80.1635" fill="none" stroke="#000000" stroke-width="4.4000001" stroke-linecap="round" stroke-linejoin="round" transform="matrix(0.227273 -6.86345e-008 6.86345e-008 0.227273 68.1343 96.7256)" />
	<path d="M -86.8437 100.204 L -46.762 100.204" fill="none" stroke="#000000" stroke-width="4.4000001" stroke-linecap="round" stroke-linejoin="round" transform="matrix(0.227273 -6.86345e-008 6.86345e-008 0.227273 68.1343 96.7256)" />
	<path d="M -494.93 -249.99 L 494.93 -249.99, 494.93 249.99, -494.93 249.99 Z" fill="none" stroke="#000000" stroke-width="5.86666679" stroke-linecap="round" stroke-linejoin="round" transform="matrix(0.227273 0 -0 0.227273 180.618 96.7256)" />
	<path d="M -29.0261 -17.7387 L -29.0261 17.7387, 29.0261 0 Z" stroke="none" fill="#000000" transform="matrix(0.227273 0 0 -0.227273 109.658 39.9097)" />
	<g transform="matrix(1 0 -0 1 9.00001 85.5182)">
		<svg width="108.057793" height="48.0957298">
			<defs />
			<path d="M 7.61023 16.7669 L 0.0841818 16.7669, 0.0841818 16.2732 C 0.0841818 16.2379, 0.102697 16.184, 0.139727 16.1116 L 3.16328 12.826 C 3.52067 12.4316, 3.88255 12.0277, 4.24949 11.6147, 4.61642 11.2018, 4.9452 10.7799, 5.23471 10.349, 5.52422 9.91808, 5.75537 9.47372, 5.92818 9.01589, 6.10098 8.55807, 6.18683 8.0778, 6.18683 7.57453, 6.18683 7.15037, 6.13128 6.7537, 6.02019 6.38565, 5.9091 6.01759, 5.7492 5.69442, 5.53936 5.41613, 5.33009 5.13785, 5.06807 4.91343, 4.75388 4.74286, 4.43969 4.5723, 4.07556 4.48702, 3.66262 4.48646, 3.04658 4.48702, 2.50235 4.67105, 2.0305 5.0391, 1.55921 5.40716, 1.24614 5.8128, 1.09184 6.25492, 1.06155 6.26726, 1.11092 6.27343, 1.23996 6.27287 L 1.39706 6.27287 C 1.58221 6.31551, 1.74211 6.38004, 1.87789 6.46644, 2.01367 6.5534, 2.12756 6.67291, 2.22014 6.82552, 2.31271 6.97812, 2.35872 7.16215, 2.35872 7.37704, 2.35872 7.73668, 2.24202 8.01216, 2.00749 8.20348, 1.77297 8.39536, 1.51096 8.49074, 1.22145 8.49018, 0.944286 8.49074, 0.685077 8.39536, 0.444943 8.20348, 0.20481 8.01216, 0.0841818 7.73668, 0.0841818 7.37704, 0.0841818 6.87489, 0.182928 6.39911, 0.380421 5.95026, 0.577914 5.50142, 0.84554 5.1126, 1.18442 4.78326, 1.5233 4.45448, 1.9239 4.19415, 2.38621 4.00226, 2.84852 3.81094, 3.33889 3.715, 3.85675 3.71444, 4.49804 3.715, 5.08547 3.80926, 5.61847 3.99778, 6.15148 4.18629, 6.60594 4.45728, 6.98185 4.81019, 7.35776 5.16366, 7.65231 5.57211, 7.86496 6.03554, 8.0776 6.49954, 8.18364 7.01235, 8.18364 7.57453, 8.18364 8.19731, 8.04225 8.77071, 7.75835 9.29418, 7.47502 9.81821, 7.1238 10.2985, 6.70468 10.735, 6.28557 11.172, 5.84009 11.5833, 5.36824 11.9693, 4.89695 12.3553, 4.46998 12.7307, 4.0879 13.0954 L 1.96093 15.0972, 4.74434 15.0972 C 5.1326 15.0978, 5.49504 15.095, 5.83055 15.0888, 6.16663 15.0832, 6.45165 15.0708, 6.68617 15.0529, 6.92069 15.0349, 7.04076 15.0232, 7.04637 15.0164, 7.09574 14.9749, 7.14231 14.8913, 7.18551 14.7656, 7.22871 14.64, 7.26855 14.4918, 7.30558 14.3213, 7.34261 14.1507, 7.37964 13.9773, 7.41667 13.8006, 7.4537 13.6244, 7.48736 13.4309, 7.51822 13.221 L 8.20215 13.221 Z" stroke="none" fill="#000000" />
			<path d="M 18.2476 12.7632 C 18.2476 13.386, 18.1556 13.9442, 17.9704 14.438, 17.7858 14.9317, 17.4716 15.4181, 17.0273 15.8962, 16.5897 16.3456, 16.1414 16.6732, 15.6819 16.8791, 15.2229 17.0856, 14.6697 17.1888, 14.0223 17.1888, 13.363 17.1888, 12.7587 17.0261, 12.21 16.6996, 11.6613 16.3742, 11.2237 15.9326, 10.8972 15.3755, 10.4348 14.6158, 10.1408 13.8141, 10.014 12.9702, 9.8878 12.1264, 9.8244 11.2854, 9.8244 10.4472, 9.8244 9.61005, 9.94615 8.78586, 10.1897 7.97457, 10.4332 7.16384, 10.8231 6.41426, 11.3595 5.72528, 11.8094 5.13953, 12.3581 4.65758, 13.0056 4.28055, 13.6531 3.90352, 14.3645 3.715, 15.141 3.71444, 15.8872 3.715, 16.5066 3.90689, 16.9998 4.28953, 17.493 4.67273, 17.7393 5.22313, 17.7393 5.94073, 17.7393 6.27624, 17.6377 6.52479, 17.4341 6.68637, 17.231 6.84796, 16.9964 6.92875, 16.7316 6.92819, 16.4791 6.92875, 16.2525 6.84796, 16.0522 6.68637, 15.8519 6.52479, 15.7514 6.27624, 15.7514 5.94073, 15.7514 5.58221, 15.8838 5.3129, 16.1487 5.1328, 16.3215 5.02564, 16.5162 4.97178, 16.7316 4.97122, 16.7995 4.97178, 16.8085 4.96897, 16.7591 4.96224, 16.6727 4.83095, 16.4836 4.70135, 16.1907 4.5723, 15.8979 4.44382, 15.5483 4.3793, 15.141 4.37874, 14.5923 4.3793, 14.0991 4.54257, 13.6615 4.86854, 13.2239 5.19508, 12.8541 5.60297, 12.5523 6.09333, 12.1949 6.71611, 11.9789 7.39443, 11.9048 8.12718, 11.8308 8.86048, 11.7876 9.4451, 11.7752 9.88161, 11.8863 9.62464, 12.1534 9.30933, 12.5753 8.9351, 12.9978 8.56143, 13.5324 8.37404, 14.1793 8.37348, 14.796 8.37404, 15.3278 8.47728, 15.7744 8.68375, 16.2216 8.89022, 16.6514 9.2117, 17.0643 9.64821, 17.4963 10.1274, 17.8015 10.6093, 17.98 11.0941, 18.1584 11.5788, 18.2476 12.1354, 18.2476 12.7632 Z M 16.2783 12.7632 C 16.2783 12.1892, 16.2598 11.6731, 16.2227 11.2152, 16.1857 10.7574, 16.0628 10.3551, 15.853 10.0073, 15.6375 9.65494, 15.3968 9.39461, 15.132 9.22685, 14.8672 9.05966, 14.5435 8.9755, 14.1608 8.97494, 13.7479 8.9755, 13.395 9.08041, 13.1021 9.28969, 12.8092 9.49953, 12.5613 9.77445, 12.3581 10.1156, 12.155 10.4567, 12.0097 10.8545, 11.9233 11.3089, 11.8616 11.6209, 11.8308 11.953, 11.8308 12.3054, 11.8308 12.4434, 11.8369 12.5904, 11.8493 12.7453 L 11.8493 12.8171 C 11.874 13.2665, 11.9082 13.6856, 11.9514 14.0744, 11.9946 14.4638, 12.0625 14.7808, 12.1545 15.0254, 12.3273 15.4569, 12.5815 15.807, 12.9175 16.0763, 13.2536 16.3456, 13.6217 16.4802, 14.0223 16.4797, 14.4352 16.4802, 14.7836 16.4011, 15.0669 16.2423, 15.3508 16.0841, 15.6005 15.8277, 15.816 15.4742, 16.0381 15.1219, 16.1705 14.7224, 16.2137 14.2764, 16.257 13.8309, 16.2783 13.3265, 16.2783 12.7632 Z" stroke="none" fill="#000000" />
			<path d="M 34.9679 4.57714 C 34.6788 4.57772, 34.424 4.59947, 34.2036 4.64184, 33.9838 4.68478, 33.7794 4.75806, 33.5905 4.86111, 33.2761 5.05118, 33.0368 5.33801, 32.8731 5.72216 L 28.5048 16.98 C 28.4236 17.1575, 28.285 17.2428, 28.0898 17.2365 L 27.9386 17.2365 C 27.744 17.2365, 27.606 17.1512, 27.5236 16.98 L 22.9481 5.19087 C 22.8977 5.07523, 22.841 4.9716, 22.778 4.88, 22.7151 4.7884, 22.624 4.72142, 22.5044 4.67791, 22.3601 4.62352, 22.1569 4.59317, 21.8958 4.58688, 21.6347 4.58115, 21.3565 4.57772, 21.0611 4.57714 L 21.0611 3.81685 C 21.8723 3.86036, 22.6492 3.88154, 23.3912 3.88097, 23.5045 3.88154, 23.6276 3.87525, 23.7593 3.86265, 24.6215 3.86322, 25.5238 3.8512, 26.4673 3.82601 L 26.4673 4.57714 C 26.1845 4.57772, 25.9326 4.58401, 25.7121 4.59604, 25.4923 4.60863, 25.2942 4.65386, 25.1179 4.73287, 25.0366 4.77638, 24.9736 4.8342, 24.929 4.90691, 24.898 4.95615, 24.882 5.00195, 24.882 5.04431, 24.882 5.0695, 24.8854 5.09698, 24.8912 5.12675 L 28.5902 14.5984, 32.0807 5.64888 C 32.1128 5.57617, 32.1283 5.49373, 32.1283 5.40156, 32.1283 5.22522, 32.0435 5.06034, 31.8735 4.90691, 31.7292 4.77924, 31.5672 4.69222, 31.3874 4.64642, 31.2082 4.60062, 30.9804 4.57772, 30.7033 4.57714 L 30.7033 3.82601 C 31.4647 3.8512, 32.1815 3.86322, 32.8548 3.86265, 32.9429 3.87525, 33.0368 3.88154, 33.1376 3.88097, 33.7164 3.88154, 34.3267 3.86036, 34.9679 3.81685 L 34.9679 4.57714 Z" stroke="none" fill="#000000" />
			<rect />
		</svg>
	</g>
	<path d="M 0 -249.99 L 0 249.99" fill="none" stroke="#000000" stroke-width="5.86666679" stroke-linecap="round" stroke-linejoin="round" transform="matrix(0.227273 0 0 0.227273 225.318 96.7256)" />
	<path d="M -80.1643 -20.0405 L 80.1643 -20.0405, 80.1643 20.0405, -80.1643 20.0405 Z" stroke="none" fill="#FFFFFF" transform="matrix(1.71586e-008 0.227273 -0.227273 1.71586e-008 293.102 96.7253)" />
	<path d="M -80.1643 -20.0405 L 80.1643 -20.0405, 80.1643 20.0405, -80.1643 20.0405 Z" fill="none" stroke="#000000" stroke-width="6.60000038" stroke-linecap="round" stroke-linejoin="round" transform="matrix(1.71586e-008 0.227273 -0.227273 1.71586e-008 293.102 96.7253)" />
	<g transform="matrix(1 0 -0 1 308.495 85.4602)">
		<svg width="56.9641113" height="54.1276474">
			<defs />
			<path d="M 12.7097 4.3115 C 12.6908 4.39738, 12.645 4.46665, 12.5729 4.51818, 12.5008 4.57028, 12.4235 4.59604, 12.3416 4.59547, 12.1155 4.59604, 11.8956 4.61321, 11.6815 4.64642, 11.4674 4.6802, 11.2693 4.76092, 11.0867 4.88859, 10.9361 4.98076, 10.8164 5.10156, 10.7283 5.25099, 10.6401 5.40099, 10.5743 5.56072, 10.5302 5.73133 L 8.78459 12.4915 C 8.62143 13.103, 8.37124 13.6938, 8.0346 14.2646, 7.69797 14.8359, 7.26859 15.3621, 6.74646 15.8441, 6.2873 16.2661, 5.77834 16.6067, 5.21843 16.8655, 4.65851 17.1254, 4.08944 17.2548, 3.51063 17.2548, 2.88202 17.2548, 2.32038 17.13, 1.82631 16.8792, 1.3328 16.6296, 0.934911 16.2873, 0.632625 15.8533, 0.299425 15.3896, 0.101336 14.8617, 0.0383604 14.2686, 0.0131699 14.0923, 0.000574708 13.9056, 0.000574708 13.7098, 0.000574708 13.301, 0.0509556 12.8831, 0.151717 12.4549 L 2.04787 5.15423 C 2.07306 5.03859, 2.08566 4.94699, 2.08566 4.87943, 2.08566 4.7884, 2.06676 4.73058, 2.02898 4.70539, 1.94768 4.6573, 1.77764 4.62695, 1.52002 4.61436, 1.26239 4.60234, 0.985291 4.59604, 0.689304 4.59547, 0.595412 4.59604, 0.526139 4.56569, 0.482055 4.50386, 0.44427 4.4678, 0.425377 4.422, 0.425377 4.36646, 0.425377 4.33039, 0.43511 4.29662, 0.45343 4.2657 L 0.482055 4.11914 C 0.551329 3.93651, 0.673846 3.84491, 0.849607 3.84433, 1.63623 3.86952, 2.42859 3.88155, 3.22724 3.88097, 4.02646 3.88155, 4.82511 3.86952, 5.62377 3.84433, 5.8001 3.84491, 5.88826 3.92735, 5.88826 4.09166 L 5.88826 4.16494, 5.83159 4.32066 C 5.7938 4.50444, 5.67758 4.59604, 5.48236 4.59547, 5.18694 4.59604, 4.90756 4.60234, 4.64306 4.61436, 4.37856 4.62695, 4.18677 4.65901, 4.06711 4.71054, 3.94803 4.76264, 3.85357 4.92294, 3.78429 5.19088 L 1.90646 12.4915 C 1.76219 13.0297, 1.67688 13.5455, 1.65169 14.0396, 1.6391 14.1134, 1.6328 14.1867, 1.6328 14.2594, 1.6328 14.6751, 1.71467 15.0569, 1.87841 15.4045, 2.04214 15.7348, 2.2763 16.0021, 2.58145 16.2065, 2.8866 16.4115, 3.24327 16.5134, 3.65204 16.5128, 4.10547 16.5134, 4.56004 16.4098, 5.01576 16.202, 5.47148 15.9947, 5.89456 15.7136, 6.28444 15.3586, 6.731 14.9625, 7.09454 14.5108, 7.3745 14.0035, 7.65446 13.4968, 7.86342 12.9804, 8.0014 12.4549 L 9.73782 5.67636 C 9.77561 5.56701, 9.79393 5.4508, 9.79393 5.32828 L 9.79393 5.20004 C 9.77561 5.07237, 9.72179 4.96531, 9.63362 4.87943, 9.50195 4.75176, 9.34622 4.67275, 9.16703 4.64184, 8.98783 4.6115, 8.77887 4.59604, 8.53956 4.59547, 8.44509 4.59604, 8.37582 4.56856, 8.33174 4.51302, 8.28823 4.47066, 8.2659 4.422, 8.2659 4.36646, 8.2659 4.33039, 8.27563 4.29375, 8.29395 4.25654 L 8.33174 4.1283 C 8.3512 4.04929, 8.39357 3.98231, 8.45941 3.92735, 8.52582 3.87239, 8.60253 3.84491, 8.69013 3.84433, 9.31932 3.86952, 9.95137 3.88155, 10.5869 3.88097, 11.216 3.88155, 11.8544 3.86952, 12.5019 3.84433, 12.5901 3.84491, 12.6656 3.87525, 12.7286 3.93593, 12.7538 3.98517, 12.7664 4.03097, 12.7664 4.07334, 12.7664 4.11055, 12.7572 4.14433, 12.7378 4.1741 Z" stroke="none" fill="#000000" />
			<path d="M 2.39126 3.19713 L -1.90934 3.19713, -1.90934 2.915 C -1.90934 2.8948, -1.89876 2.86402, -1.8776 2.82266 L -0.149855 0.945196 C 0.0543709 0.71981, 0.261161 0.488975, 0.470837 0.253009, 0.680513 0.0170434, 0.868388 -0.224052, 1.03382 -0.470277, 1.19925 -0.716502, 1.33134 -0.970422, 1.43009 -1.23204, 1.52884 -1.49365, 1.57789 -1.76809, 1.57789 -2.05567, 1.57789 -2.29805, 1.54615 -2.52472, 1.48267 -2.73503, 1.41919 -2.94535, 1.32782 -3.13002, 1.20791 -3.28904, 1.08832 -3.44806, 0.938601 -3.5763, 0.759062 -3.67377, 0.579523 -3.77123, 0.371449 -3.81996, 0.135484 -3.82028, -0.216541 -3.81996, -0.527528 -3.7148, -0.797157 -3.50449, -1.06647 -3.29417, -1.24536 -3.06237, -1.33353 -2.80974, -1.35084 -2.80268, -1.32263 -2.79915, -1.24889 -2.79948 L -1.15912 -2.79948 C -1.05332 -2.77511, -0.961949 -2.73824, -0.884362 -2.68887, -0.806775 -2.63917, -0.741693 -2.57088, -0.688793 -2.48368, -0.635893 -2.39647, -0.609603 -2.29132, -0.609603 -2.16852, -0.609603 -1.96302, -0.676289 -1.8056, -0.810302 -1.69627, -0.944315 -1.58663, -1.09404 -1.53212, -1.25947 -1.53244, -1.41785 -1.53212, -1.56597 -1.58663, -1.70319 -1.69627, -1.84041 -1.8056, -1.90934 -1.96302, -1.90934 -2.16852, -1.90934 -2.45547, -1.85291 -2.72734, -1.74006 -2.98382, -1.6272 -3.24031, -1.47428 -3.46249, -1.28063 -3.65068, -1.08698 -3.83856, -0.858072 -3.98732, -0.593893 -4.09697, -0.329715 -4.20629, -0.0495055 -4.26112, 0.246413 -4.26144, 0.612865 -4.26112, 0.948539 -4.20725, 1.25311 -4.09953, 1.55769 -3.99181, 1.81738 -3.83695, 2.03219 -3.63529, 2.24699 -3.43331, 2.41531 -3.19991, 2.53682 -2.93509, 2.65833 -2.66995, 2.71892 -2.37692, 2.71892 -2.05567, 2.71892 -1.6998, 2.63813 -1.37214, 2.4759 -1.07302, 2.314 -0.77357, 2.1133 -0.499131, 1.87381 -0.2497, 1.63431 5.126e-005, 1.37975 0.235055, 1.11012 0.455632, 0.840816 0.676208, 0.596835 0.890693, 0.378503 1.09909 L -0.836912 2.24301, 0.753611 2.24301 C 0.97547 2.24333, 1.18258 2.24172, 1.3743 2.2382, 1.56635 2.23499, 1.72921 2.22794, 1.86323 2.21768, 1.99724 2.20742, 2.06585 2.20069, 2.06906 2.19684, 2.09727 2.17312, 2.12388 2.12534, 2.14857 2.05353, 2.17325 1.98171, 2.19602 1.89707, 2.21718 1.79961, 2.23833 1.70215, 2.2595 1.60308, 2.28066 1.50209, 2.30181 1.40142, 2.32105 1.29081, 2.33868 1.1709 L 2.7295 1.1709 Z" stroke="none" fill="#000000" transform="matrix(1.12 0 0 1 14.1506 16.3063)" />
			<rect />
		</svg>
	</g>
	<rect x="-80.1636505" y="-20.0406876" width="160.327301" height="40.0813751" stroke="none" fill="#FFFFFF" transform="matrix(0.227273 0 -0 0.227273 166.845 39.9097)" />
	<path d="M -80.1637 -20.0407 L 80.1637 -20.0407, 80.1637 20.0407, -80.1637 20.0407 Z" fill="none" stroke="#000000" stroke-width="6.60000038" stroke-linecap="round" stroke-linejoin="round" transform="matrix(0.227273 0 -0 0.227273 166.845 39.9097)" />
	<g transform="matrix(1 0 -0 1 154.349 9.05794)">
		<svg width="77.9182587" height="45.2233963">
			<defs />
			<path d="M 7.07718 13.5711 L 7.07718 15.3935 C 7.07718 15.5017, 7.09738 15.6022, 7.13778 15.6947, 7.17817 15.7879, 7.24438 15.849, 7.33639 15.8782, 7.47834 15.9444, 7.7095 15.9809, 8.02986 15.9865, 8.35023 15.9927, 8.6734 15.9955, 8.99993 15.9949 L 8.99993 16.7669 C 8.05735 16.731, 7.13329 16.7131, 6.22662 16.7131, 5.33341 16.7131, 4.39363 16.731, 3.40729 16.7669 L 3.40729 15.9949 C 3.74617 15.9955, 4.07327 15.9927, 4.38746 15.9865, 4.70166 15.9809, 4.93618 15.9444, 5.08991 15.8782, 5.18248 15.849, 5.25037 15.7879, 5.29357 15.6947, 5.33678 15.6022, 5.3581 15.5017, 5.3581 15.3935 L 5.3581 13.5711, 0.0886252 13.5711, 0.0886252 12.844, 6.26365 3.66058 C 6.34444 3.55342, 6.44599 3.49956, 6.56886 3.49899 L 6.77253 3.49899 C 6.97563 3.49956, 7.07718 3.60111, 7.07718 3.80421 L 7.07718 12.7812, 9.06502 12.7812, 9.06502 13.5711 Z M 5.45011 6.02152 L 0.902161 12.7812, 5.45011 12.7812 Z" stroke="none" fill="#000000" />
			<path d="M 23.8206 16.6044 C 23.7829 16.751, 23.6792 16.8243, 23.5092 16.8243 L 20.3873 16.8243 C 20.1801 16.8243, 20.0759 16.7241, 20.0759 16.522, 20.0759 15.7714, 20.1875 15.0478, 20.4108 14.3516, 20.6341 13.6554, 20.8779 12.9673, 21.1419 12.286, 21.4064 11.6053, 21.6451 10.9257, 21.8587 10.2479, 22.0728 9.57, 22.1793 8.88013, 22.1793 8.17708, 22.1793 7.62805, 22.0945 7.09561, 21.9245 6.57921, 21.755 6.06338, 21.4877 5.60995, 21.123 5.21893, 20.7583 4.82848, 20.3278 4.52905, 19.8308 4.32123, 19.3339 4.11398, 18.8152 4.00979, 18.2742 4.00921, 17.7337 4.00979, 17.215 4.11398, 16.7181 4.32123, 16.2211 4.52905, 15.7923 4.82848, 15.4305 5.21893, 15.0687 5.60995, 14.8013 6.06338, 14.6284 6.57921, 14.4555 7.09561, 14.3691 7.62805, 14.3691 8.17708, 14.3691 8.88013, 14.4779 9.57, 14.6943 10.2479, 14.9112 10.9257, 15.1517 11.6053, 15.4156 12.286, 15.6801 12.9673, 15.9234 13.6571, 16.1467 14.3562, 16.37 15.0558, 16.4816 15.7777, 16.4816 16.522, 16.4816 16.7241, 16.3843 16.8243, 16.1897 16.8243 L 13.0386 16.8243 C 12.8754 16.8243, 12.7746 16.751, 12.7369 16.6044 L 12.0767 13.9846 C 12.0767 13.8203, 12.1649 13.7167, 12.3407 13.6732 L 12.4443 13.6732 C 12.608 13.6738, 12.7088 13.7499, 12.7466 13.9022, 12.8473 14.3241, 12.9401 14.6722, 13.0248 14.947, 13.1096 15.2218, 13.168 15.3684, 13.1989 15.3861, 13.2618 15.4354, 13.413 15.4663, 13.6517 15.4783, 13.891 15.4909, 14.1773 15.4966, 14.5105 15.496 L 15.7179 15.496 C 15.5862 14.947, 15.336 14.3825, 14.9679 13.802, 14.6004 13.222, 14.2179 12.6387, 13.8218 12.0524, 13.4256 11.4662, 13.0752 10.8587, 12.7701 10.2295, 12.4655 9.60092, 12.3126 8.91677, 12.3126 8.17708, 12.3126 7.49351, 12.4729 6.86203, 12.7935 6.28151, 13.1141 5.70155, 13.5452 5.20347, 14.0857 4.78783, 14.6708 4.31837, 15.3252 3.96857, 16.0482 3.73956, 16.7713 3.51056, 17.5133 3.39606, 18.2742 3.39548, 19.0356 3.39606, 19.7776 3.51056, 20.5007 3.73956, 21.2237 3.96857, 21.8873 4.31837, 22.4907 4.78783, 23.0191 5.21606, 23.4468 5.71816, 23.7737 6.29525, 24.1006 6.87234, 24.2638 7.49981, 24.2638 8.17708, 24.2638 8.91677, 24.1115 9.60092, 23.8063 10.2295, 23.5018 10.8587, 23.1479 11.4662, 22.7455 12.0524, 22.343 12.6387, 21.956 13.222, 21.585 13.802, 21.214 14.3825, 20.9627 14.947, 20.8304 15.496 L 22.047 15.496 C 22.3808 15.4966, 22.667 15.4909, 22.9058 15.4783, 23.1451 15.4663, 23.2957 15.4354, 23.3586 15.3861, 23.3775 15.3747, 23.4308 15.2281, 23.5189 14.947, 23.6071 14.6665, 23.701 14.3178, 23.8017 13.9022, 23.8395 13.7562, 23.9437 13.68, 24.1132 13.6732 L 24.2168 13.6732 C 24.3869 13.7104, 24.4716 13.814, 24.4716 13.9846 Z" stroke="none" fill="#000000" />
			<rect />
		</svg>
	</g>
	<g transform="matrix(1 0 -0 1 186.561 85.5182)">
		<svg width="77.9182587" height="48.0957298">
			<defs />
			<path d="M 8.17942 12.7991 C 8.17942 13.386, 8.0689 13.9459, 7.84672 14.4784, 7.6251 15.0114, 7.30473 15.49, 6.88506 15.9141, 6.45978 16.3276, 5.98063 16.6435, 5.44763 16.8612, 4.91462 17.08, 4.34851 17.1888, 3.75042 17.1888, 3.23312 17.1888, 2.75061 17.0918, 2.30345 16.8971, 1.85684 16.703, 1.46859 16.437, 1.13869 16.0987, 0.808785 15.761, 0.550137 15.3688, 0.362182 14.9227, 0.174227 14.4772, 0.079969 14.0026, 0.079969 13.4993, 0.079969 13.1526, 0.195547 12.8911, 0.426704 12.7144, 0.65786 12.5382, 0.896872 12.4496, 1.14318 12.449, 1.40239 12.4496, 1.64589 12.5365, 1.87368 12.7099, 2.10203 12.8838, 2.21592 13.147, 2.21592 13.4993, 2.21592 13.7153, 2.16823 13.8966, 2.07285 14.043, 1.97747 14.19, 1.86021 14.3033, 1.72107 14.3841, 1.58249 14.4649, 1.42707 14.5115, 1.25427 14.5227 L 1.14318 14.5227, 0.958027 14.5227 C 1.09998 15.026, 1.42988 15.4782, 1.94774 15.8788, 2.46559 16.2799, 3.06649 16.4802, 3.75042 16.4797, 4.10838 16.4802, 4.45679 16.3877, 4.79567 16.2019, 5.13455 16.0168, 5.41228 15.7711, 5.62773 15.4653, 5.8802 15.1006, 6.04235 14.6865, 6.11304 14.2225, 6.18374 13.7591, 6.21908 13.2844, 6.21908 12.7991, 6.21908 12.3088, 6.20393 11.838, 6.17308 11.3858, 6.14278 10.9342, 6.01598 10.5078, 5.7938 10.106, 5.6339 9.81316, 5.42911 9.56966, 5.17944 9.37497, 4.92977 9.18085, 4.65092 9.08322, 4.34234 9.08266, 3.75659 9.08322, 3.24827 9.2016, 2.81682 9.43781, 2.38536 9.67458, 2.03694 10.014, 1.77212 10.4561, 1.71658 10.5582, 1.62737 10.6093, 1.50394 10.6087 L 1.42988 10.6087 C 1.21443 10.6093, 1.10615 10.5106, 1.10615 10.3125 L 1.10615 4.01068 C 1.10615 3.85583, 1.19592 3.75708, 1.37433 3.71444, 1.40519 3.715, 1.42819 3.71837, 1.4439 3.72398, 1.45961 3.73015, 1.47308 3.73296, 1.48542 3.7324, 2.37919 4.13972, 3.30045 4.34339, 4.24976 4.34283, 5.21142 4.34339, 6.13324 4.13972, 7.01466 3.7324, 7.02701 3.73296, 7.03935 3.73015, 7.05169 3.72398, 7.06404 3.71837, 7.08255 3.715, 7.10724 3.71444, 7.31034 3.715, 7.40909 3.80758, 7.40292 3.99273, 7.40292 4.10101, 7.3844 4.17283, 7.34737 4.20817, 6.90975 4.80739, 6.35374 5.27587, 5.67878 5.61363, 5.00383 5.95195, 4.28735 6.12083, 3.5288 6.12027, 2.90042 6.12083, 2.35787 6.04901, 1.90117 5.90482 L 1.90117 9.33401 C 2.11718 9.10735, 2.44259 8.90536, 2.87685 8.72863, 3.31167 8.55246, 3.80035 8.46381, 4.34234 8.46325, 4.87254 8.46381, 5.37357 8.58388, 5.84486 8.82289, 6.31671 9.06246, 6.73133 9.37329, 7.08872 9.75593, 7.45846 10.1874, 7.73282 10.6648, 7.91124 11.1883, 8.09022 11.7123, 8.17942 12.2493, 8.17942 12.7991 Z" stroke="none" fill="#000000" />
			<path d="M 23.3987 16.6044 C 23.3609 16.751, 23.2573 16.8243, 23.0873 16.8243 L 19.9642 16.8243 C 19.757 16.8243, 19.6528 16.7241, 19.6528 16.522, 19.6528 15.7714, 19.7644 15.0478, 19.9877 14.3516, 20.211 13.6554, 20.4549 12.9673, 20.7188 12.286, 20.9833 11.6053, 21.222 10.9257, 21.4361 10.2479, 21.6503 9.57, 21.7567 8.88013, 21.7567 8.17708, 21.7567 7.62805, 21.672 7.09561, 21.502 6.57921, 21.3325 6.06338, 21.0652 5.60995, 20.6999 5.21893, 20.3352 4.82848, 19.9047 4.52905, 19.4077 4.32123, 18.9108 4.11398, 18.3921 4.00979, 17.8505 4.00921, 17.3101 4.00979, 16.7908 4.11398, 16.2939 4.32123, 15.7969 4.52905, 15.3681 4.82848, 15.0063 5.21893, 14.6445 5.60995, 14.3771 6.06338, 14.2042 6.57921, 14.0313 7.09561, 13.9448 7.62805, 13.9448 8.17708, 13.9448 8.88013, 14.0536 9.57, 14.2706 10.2479, 14.4876 10.9257, 14.728 11.6053, 14.992 12.286, 15.2565 12.9673, 15.4998 13.6571, 15.7231 14.3562, 15.9463 15.0558, 16.058 15.7777, 16.058 16.522, 16.058 16.7241, 15.9607 16.8243, 15.7654 16.8243 L 12.6143 16.8243 C 12.4512 16.8243, 12.3504 16.751, 12.3126 16.6044 L 11.6519 13.9846 C 11.6519 13.8203, 11.7401 13.7167, 11.9159 13.6732 L 12.0201 13.6732 C 12.1838 13.6738, 12.284 13.7499, 12.3218 13.9022, 12.4225 14.3241, 12.5159 14.6722, 12.6006 14.947, 12.6853 15.2218, 12.7437 15.3684, 12.7746 15.3861, 12.8376 15.4354, 12.9888 15.4663, 13.2275 15.4783, 13.4668 15.4909, 13.7531 15.4966, 14.0863 15.496 L 15.2937 15.496 C 15.162 14.947, 14.9118 14.3825, 14.5437 13.802, 14.1761 13.222, 13.7937 12.6387, 13.3975 12.0524, 13.0014 11.4662, 12.651 10.8587, 12.3458 10.2295, 12.0407 9.60092, 11.8878 8.91677, 11.8878 8.17708, 11.8878 7.49351, 12.0487 6.86203, 12.3693 6.28151, 12.6899 5.70155, 13.121 5.20347, 13.6615 4.78783, 14.2466 4.31837, 14.9009 3.96857, 15.624 3.73956, 16.3477 3.51056, 17.0896 3.39606, 17.8505 3.39548, 18.6119 3.39606, 19.3539 3.51056, 20.0776 3.73956, 20.8012 3.96857, 21.4648 4.31837, 22.0682 4.78783, 22.5966 5.21606, 23.0243 5.71816, 23.3512 6.29525, 23.6787 6.87234, 23.8418 7.49981, 23.8418 8.17708, 23.8418 8.91677, 23.6895 9.60092, 23.3844 10.2295, 23.0798 10.8587, 22.726 11.4662, 22.323 12.0524, 21.9205 12.6387, 21.5335 13.222, 21.1625 13.802, 20.7915 14.3825, 20.5402 14.947, 20.4073 15.496 L 21.6245 15.496 C 21.9583 15.4966, 22.2445 15.4909, 22.4833 15.4783, 22.7226 15.4663, 22.8731 15.4354, 22.9361 15.3861, 22.9556 15.3747, 23.0088 15.2281, 23.097 14.947, 23.1852 14.6665, 23.279 14.3178, 23.3798 13.9022, 23.4176 13.7562, 23.5212 13.68, 23.6907 13.6732 L 23.7949 13.6732 C 23.9649 13.7104, 24.0496 13.814, 24.0496 13.9846 Z" stroke="none" fill="#000000" />
			<rect />
		</svg>
	</g>
	<path d="M -80.1643 -20.0406 L 80.1643 -20.0406, 80.1643 20.0406, -80.1643 20.0406 Z" stroke="none" fill="#FFFFFF" transform="matrix(1.71586e-008 0.227273 -0.227273 1.71586e-008 225.318 96.7256)" />
	<path d="M -80.1643 -20.0406 L 80.1643 -20.0406, 80.1643 20.0406, -80.1643 20.0406 Z" fill="none" stroke="#000000" stroke-width="6.60000038" stroke-linecap="round" stroke-linejoin="round" transform="matrix(1.71586e-008 0.227273 -0.227273 1.71586e-008 225.318 96.7256)" />
	<g transform="matrix(1 0 -0 1 264.92 85.5182)">
		<svg width="42.0378685" height="48.0957298">
			<defs />
			<path d="M 12.9653 14.9922 C 12.8966 15.2676, 12.793 15.5378, 12.6545 15.8035, 12.5159 16.0691, 12.3465 16.309, 12.1449 16.5226, 11.9434 16.7367, 11.7184 16.9113, 11.47 17.0487, 11.2215 17.1861, 10.953 17.2548, 10.6633 17.2548, 9.75128 17.2548, 9.06541 17.0138, 8.60626 16.5311, 8.29195 16.202, 8.13451 15.7869, 8.13451 15.2854, 8.13451 15.0295, 8.17573 14.7518, 8.2576 14.4518 L 8.68183 12.8121 C 8.73221 12.6049, 8.7574 12.4097, 8.7574 12.2259, 8.7574 12.1348, 8.7511 12.0404, 8.73851 11.9419, 8.70072 11.686, 8.61313 11.4604, 8.47458 11.2646, 8.33603 11.0694, 8.15856 10.9154, 7.94158 10.802, 7.72459 10.6893, 7.46811 10.6326, 7.17212 10.632 L 5.0401 10.632, 3.78515 15.5144 C 3.75996 15.6312, 3.74737 15.7256, 3.74737 15.7983, 3.74737 15.8905, 3.76626 15.9518, 3.80405 15.9815, 3.88592 16.0308, 4.05595 16.06, 4.31358 16.0691, 4.57178 16.0783, 4.84831 16.0829, 5.14372 16.0823, 5.32005 16.0829, 5.40822 16.1562, 5.40822 16.3021, 5.40822 16.3394, 5.40192 16.3789, 5.38933 16.4212 L 5.35154 16.5678 C 5.28284 16.751, 5.15975 16.8426, 4.98342 16.8426, 4.20996 16.806, 3.4302 16.7876, 2.64357 16.7876, 1.85751 16.7876, 1.06802 16.806, 0.27567 16.8426, 0.106207 16.8426, 0.0151782 16.7636, 0.00201051 16.6044 L 0.00201051 16.5311, 0.0397962 16.3754 C 0.090177 16.1745, 0.212694 16.0766, 0.407347 16.0823, 0.703335 16.0829, 0.983292 16.0783, 1.24722 16.0691, 1.51172 16.06, 1.70637 16.0279, 1.83232 15.9724, 1.95198 15.906, 2.04301 15.7411, 2.10598 15.4777 L 4.75728 5.15423 C 4.79506 5.02027, 4.81338 4.91664, 4.81338 4.84279, 4.81338 4.77008, 4.79792 4.72714, 4.76644 4.71455, 4.67827 4.66016, 4.50709 4.62695, 4.25232 4.61436, 3.99756 4.60234, 3.71932 4.59604, 3.41703 4.59547, 3.24127 4.59604, 3.1531 4.5136, 3.1531 4.34814 L 3.1531 4.27486, 3.20978 4.11914 C 3.24757 3.93651, 3.36436 3.84491, 3.55901 3.84433 L 8.87076 3.84433 C 9.46846 3.84491, 10.0375 3.92448, 10.5786 4.08307, 11.1196 4.24223, 11.5913 4.50444, 11.9938 4.87027, 12.327 5.16397, 12.5692 5.52408, 12.7203 5.95117, 12.8148 6.18361, 12.8652 6.42521, 12.8709 6.67482, 12.8709 6.90154, 12.8365 7.12424, 12.7673 7.34351, 12.6482 7.83244, 12.3997 8.27556, 12.0219 8.67231, 11.6446 9.06963, 11.2198 9.40798, 10.748 9.68851, 10.4211 9.87859, 10.0896 10.036, 9.753 10.1608, 9.41636 10.2862, 9.17591 10.3641, 9.03106 10.3938, 9.38945 10.5347, 9.72952 10.8095, 10.0501 11.2183, 10.3209 11.5732, 10.456 11.9974, 10.456 12.4915, 10.456 12.5957, 10.4497 12.6999, 10.4371 12.803 L 10.2574 14.4518 C 10.2076 14.88, 10.1824 15.2522, 10.1824 15.5693, 10.1824 15.7777, 10.195 15.9609, 10.2202 16.1189, 10.2642 16.4796, 10.4526 16.66, 10.7858 16.6594, 11.0881 16.66, 11.3646 16.4968, 11.6165 16.1699, 11.8684 15.8436, 12.0539 15.4388, 12.173 14.9556, 12.2423 14.773, 12.3648 14.6842, 12.5411 14.69 L 12.6917 14.69 C 12.8617 14.6905, 12.9528 14.7701, 12.9653 14.9281 L 12.9653 14.9922 Z M 10.748 7.28855 C 10.8488 6.92272, 10.9055 6.55631, 10.9181 6.18933 L 10.9181 6.13437 C 10.9181 5.8235, 10.8207 5.55499, 10.6255 5.32828, 10.3931 5.06034, 10.0896 4.87084, 9.71521 4.76092, 9.34079 4.651, 8.9303 4.59604, 8.48374 4.59547 L 7.2288 4.59547 C 6.9082 4.59604, 6.7164 4.62066, 6.65343 4.66932, 6.59045 4.71856, 6.52461 4.89203, 6.45534 5.19088 L 5.21013 10.0366, 7.03071 10.0366 C 7.47727 10.0372, 7.9181 9.98221, 8.35207 9.87229, 8.78603 9.76237, 9.19823 9.56714, 9.58754 9.28547, 9.92131 9.04787, 10.1732 8.74902, 10.3427 8.38834, 10.5127 8.02823, 10.6478 7.66183, 10.748 7.28855 Z" stroke="none" fill="#000000" />
			<rect />
		</svg>
	</g>
	<path d="M -29.0261 -17.7387 L -29.0261 17.7387, 29.0261 0 Z" stroke="none" fill="#000000" transform="matrix(0.227273 0 0 -0.227273 262.328 39.9097)" />
	<g transform="matrix(1 0 -0 1 247.26 9.05794)">
		<svg width="77.9182587" height="45.2233963">
			<defs />
			<path d="M 7.60405 16.7669 L 0.0791219 16.7669, 0.0791219 16.2732 C 0.0791219 16.2379, 0.0976369 16.184, 0.134667 16.1116 L 3.15766 12.826 C 3.51561 12.4316, 3.8775 12.0277, 4.24443 11.6147, 4.61136 11.2018, 4.93902 10.7799, 5.22853 10.349, 5.51803 9.91808, 5.74919 9.47372, 5.922 9.01589, 6.0948 8.55807, 6.18064 8.0778, 6.18064 7.57453, 6.18064 7.15037, 6.12566 6.7537, 6.01457 6.38565, 5.90348 6.01759, 5.74358 5.69442, 5.53374 5.41613, 5.32391 5.13785, 5.06189 4.91343, 4.7477 4.74286, 4.4335 4.5723, 4.06994 4.48702, 3.657 4.48646, 3.04096 4.48702, 2.49673 4.67105, 2.02544 5.0391, 1.55415 5.40716, 1.24108 5.8128, 1.08678 6.25492, 1.05649 6.26726, 1.10586 6.27343, 1.2349 6.27287 L 1.392 6.27287 C 1.57715 6.31551, 1.73705 6.38004, 1.87283 6.46644, 2.00861 6.5534, 2.1225 6.67291, 2.21508 6.82552, 2.30765 6.97812, 2.35366 7.16215, 2.35366 7.37704, 2.35366 7.73668, 2.23696 8.01216, 2.00243 8.20348, 1.76791 8.39536, 1.5059 8.49074, 1.21639 8.49018, 0.939226 8.49074, 0.680578 8.39536, 0.439883 8.20348, 0.19975 8.01216, 0.0791219 7.73668, 0.0791219 7.37704, 0.0791219 6.87489, 0.177868 6.39911, 0.375361 5.95026, 0.572854 5.50142, 0.84048 5.1126, 1.17936 4.78326, 1.51824 4.45448, 1.91884 4.19415, 2.38115 4.00226, 2.84346 3.81094, 3.33383 3.715, 3.85113 3.71444, 4.49186 3.715, 5.07928 3.80926, 5.61229 3.99778, 6.1453 4.18629, 6.59976 4.45728, 6.97567 4.81019, 7.35157 5.16366, 7.64613 5.57211, 7.85877 6.03554, 8.07141 6.49954, 8.17745 7.01235, 8.17745 7.57453, 8.17745 8.19731, 8.03607 8.77071, 7.75217 9.29418, 7.46884 9.81821, 7.11761 10.2985, 6.6985 10.735, 6.27939 11.172, 5.83391 11.5833, 5.36262 11.9693, 4.89133 12.3553, 4.46436 12.7307, 4.08228 13.0954 L 1.95587 15.0972, 4.73872 15.0972 C 5.12697 15.0978, 5.48942 15.095, 5.82493 15.0888, 6.16101 15.0832, 6.44603 15.0708, 6.67999 15.0529, 6.91451 15.0349, 7.03458 15.0232, 7.04019 15.0164, 7.08956 14.9749, 7.13613 14.8913, 7.17933 14.7656, 7.22253 14.64, 7.26237 14.4918, 7.2994 14.3213, 7.33643 14.1507, 7.37346 13.9773, 7.41049 13.8006, 7.44752 13.6244, 7.48118 13.4309, 7.51204 13.221 L 8.19597 13.221 Z" stroke="none" fill="#000000" />
			<path d="M 24.8237 16.8334 C 24.0061 16.7911, 23.2172 16.7693, 22.4558 16.7693 L 22.0877 16.7693 C 21.2008 16.7819, 20.2791 16.8002, 19.323 16.8243 L 19.323 16.064 C 19.6064 16.0646, 19.8612 16.0542, 20.0873 16.0325, 20.314 16.0113, 20.515 15.9667, 20.6913 15.8991, 20.7732 15.8567, 20.8453 15.7926, 20.9083 15.7067, 20.9335 15.677, 20.9461 15.6369, 20.9461 15.5877, 20.9461 15.5636, 20.9432 15.5361, 20.9363 15.5052 L 19.8703 12.5465, 15.2376 12.5465, 14.3605 15.0014 C 14.329 15.0753, 14.313 15.1457, 14.313 15.2121, 14.313 15.2739, 14.3227 15.3346, 14.3416 15.3953, 14.392 15.5304, 14.4738 15.6403, 14.5866 15.7251, 14.7504 15.8602, 14.925 15.9501, 15.1105 15.9959, 15.296 16.0417, 15.521 16.0646, 15.7849 16.064 L 15.7849 16.8243 C 15.024 16.8002, 14.2975 16.7819, 13.6053 16.7693 L 13.3134 16.7693 C 12.7094 16.7693, 12.0802 16.7911, 11.4264 16.8334 L 11.4264 16.064 C 11.7287 16.0646, 11.9909 16.0451, 12.2142 16.005, 12.4374 15.9655, 12.6527 15.8876, 12.8599 15.7709, 13.2 15.5819, 13.4387 15.3043, 13.5773 14.9373 L 17.653 3.4596 C 17.716 3.27697, 17.8482 3.18824, 18.0492 3.19396 L 18.2003 3.19396 C 18.4018 3.19453, 18.5335 3.28327, 18.5965 3.4596 L 22.88 15.4502 C 22.9121 15.567, 22.9607 15.6707, 23.0266 15.7623, 23.093 15.8539, 23.1823 15.9151, 23.2951 15.9449, 23.4588 16.0067, 23.6747 16.0417, 23.942 16.0508, 24.2094 16.06, 24.5031 16.0646, 24.8237 16.064 L 24.8237 16.8334 Z M 17.5683 6.04277 L 15.5112 11.7862, 19.5967 11.7862 Z" stroke="none" fill="#000000" />
			<rect />
		</svg>
	</g>
	<g transform="matrix(1 0 -0 1 103.15 9)">
		<svg width="42.0378685" height="54.1276474">
			<defs />
			<path d="M 8.72362 4.3115 C 8.7053 4.39165, 8.66294 4.45864, 8.59652 4.5136, 8.53011 4.56856, 8.44996 4.59604, 8.3555 4.59547, 8.06008 4.59604, 7.77097 4.60234, 7.48757 4.61436, 7.20475 4.62695, 7.00037 4.66016, 6.87442 4.71455, 6.74274 4.75806, 6.64484 4.91664, 6.58186 5.19088 L 3.93057 15.5144 C 3.90538 15.6312, 3.89278 15.7319, 3.89278 15.8167, 3.89278 15.9025, 3.90881 15.9546, 3.9403 15.9724, 4.02847 16.0279, 4.21053 16.06, 4.48762 16.0691, 4.76472 16.0783, 5.0567 16.0829, 5.36471 16.0823, 5.54104 16.0829, 5.62921 16.1562, 5.62921 16.3021, 5.62921 16.3394, 5.62291 16.3789, 5.61031 16.4212 L 5.57253 16.5678 C 5.50325 16.751, 5.3836 16.8426, 5.21356 16.8426, 4.40232 16.806, 3.58134 16.7876, 2.7512 16.7876, 1.92736 16.7876, 1.09092 16.806, 0.241318 16.8426, 0.0787248 16.8426, -0.0031441 16.7636, -0.0037166 16.6044 L -0.0037166 16.5311, 0.034069 16.3754 C 0.0850224 16.1745, 0.207539 16.0766, 0.402193 16.0823, 0.710203 16.0829, 1.00619 16.0783, 1.28901 16.0691, 1.57183 16.06, 1.77622 16.0279, 1.90217 15.9724, 2.01553 15.9117, 2.10713 15.7468, 2.17583 15.4777 L 4.84601 5.15423 C 4.8712 5.03859, 4.8838 4.94699, 4.8838 4.87943, 4.8838 4.7884, 4.86834 4.73058, 4.83628 4.70539, 4.73609 4.6573, 4.54774 4.62695, 4.27064 4.61436, 3.99355 4.60234, 3.70729 4.59604, 3.41188 4.59547, 3.23554 4.59604, 3.14738 4.5136, 3.14738 4.34814 L 3.14738 4.28402, 3.18516 4.11914 C 3.25444 3.93651, 3.37409 3.84491, 3.54355 3.84433, 4.36797 3.86952, 5.19524 3.88155, 6.02538 3.88097, 6.86239 3.88155, 7.69253 3.86952, 8.5158 3.84433, 8.60397 3.84491, 8.67954 3.87525, 8.74251 3.93593, 8.7677 3.98517, 8.7803 4.03097, 8.7803 4.07334, 8.7803 4.11055, 8.77114 4.14433, 8.75167 4.1741 Z" stroke="none" fill="#000000" />
			<path d="M 2.37267 3.19713 C 1.72472 3.17661, 1.09441 3.16635, 0.481416 3.16635, -0.131261 3.16635, -0.761571 3.17661, -1.40951 3.19713 L -1.40951 2.75598, -1.04499 2.75598 C -0.928927 2.7563, -0.819601 2.75469, -0.717648 2.75117, -0.615375 2.74796, -0.518552 2.7393, -0.426859 2.72552, -0.335166 2.71205, -0.255976 2.69827, -0.18929 2.68416, -0.132864 2.67422, -0.086376 2.6428, -0.0495062 2.58958, -0.012316 2.53668, 0.00595856 2.47769, 0.00595856 2.41229 L 0.00595856 -3.36887 C -0.169733 -3.28295, -0.386463 -3.21787, -0.643588 -3.17362, -0.900714 -3.12906, -1.18221 -3.10694, -1.4887 -3.10726 L -1.4887 -3.54328 C -1.06615 -3.54296, -0.675969 -3.59329, -0.318494 -3.69429, 0.0389807 -3.79496, 0.348044 -3.98411, 0.608376 -4.26144 L 0.772206 -4.26144 C 0.888265 -4.26112, 0.946294 -4.20469, 0.946294 -4.09216 L 0.946294 2.41229 C 0.946294 2.4809, 0.963928 2.54085, 0.999194 2.59215, 1.03446 2.64344, 1.08576 2.67422, 1.15244 2.68416, 1.20887 2.69827, 1.28133 2.71205, 1.36917 2.72552, 1.45702 2.7393, 1.55641 2.74796, 1.66734 2.75117, 1.77827 2.75469, 1.88663 2.7563, 1.99243 2.75598 L 2.37267 2.75598, 2.37267 3.19713 Z" stroke="none" fill="#000000" transform="matrix(1.12 0 0 1 10.309 16.3063)" />
			<rect />
		</svg>
	</g>
	<ellipse cx="1470.4607667922974" cy="439.11118793487549" rx="11.550000190734863" ry="11.550000190734863" stroke="none" fill="#000000" transform="matrix(0.227273 0 0 0.227273 -108.877 -59.8883)" />
	<ellipse cx="1470.4607667922974" cy="939.09144306182861" rx="11.550000190734863" ry="11.550000190734863" stroke="none" fill="#000000" transform="matrix(0.227273 0 0 0.227273 -108.877 -59.8883)" />
</svg>
