<?xml version="1.0"?>
<svg xmlns="http://www.w3.org/2000/svg" xmlns:xlink="http://www.w3.org/1999/xlink" width="300.095306" height="165.191574">
	<defs />
	<path d="M 0 -104.759 L 0 -69.8392" fill="none" stroke="#000000" stroke-width="4.5999999" stroke-linecap="round" stroke-linejoin="round" transform="matrix(0.217391 -6.56503e-008 6.56503e-008 0.217391 67.9355 98.2141)" />
	<path d="M 0 104.759 L 0 69.8392" fill="none" stroke="#000000" stroke-width="4.5999999" stroke-linecap="round" stroke-linejoin="round" transform="matrix(0.217391 -6.56503e-008 6.56503e-008 0.217391 67.9355 98.2141)" />
	<path d="M 69.8392 -0 C 69.8392 38.5711, 38.5711 69.8392, -0 69.8392, -38.5711 69.8392, -69.8392 38.5711, -69.8392 -0, -69.8392 -38.5711, -38.5711 -69.8392, -0 -69.8392, 38.5711 -69.8392, 69.8392 -38.5711, 69.8392 -0 Z" stroke="none" fill="#FFFFFF" transform="matrix(0.217391 -6.56503e-008 6.56503e-008 0.217391 67.9355 98.2141)" />
	<path d="M 69.8392 -0 C 69.8392 38.5711, 38.5711 69.8392, -0 69.8392, -38.5711 69.8392, -69.8392 38.5711, -69.8392 -0, -69.8392 -38.5711, -38.5711 -69.8392, -0 -69.8392, 38.5711 -69.8392, 69.8392 -38.5711, 69.8392 -0 Z" fill="none" stroke="#000000" stroke-width="6.89999962" stroke-linecap="round" stroke-linejoin="round" transform="matrix(0.217391 -6.56503e-008 6.56503e-008 0.217391 67.9355 98.2141)" />
	<path d="M 0 -69.8392 L 0 69.8392" fill="none" stroke="#000000" stroke-width="4.5999999" stroke-linecap="round" stroke-linejoin="round" transform="matrix(0.217391 -6.56503e-008 6.56503e-008 0.217391 67.9355 98.2141)" />
	<path d="M -90.791 -104.759 L -48.8874 -104.759" fill="none" stroke="#000000" stroke-width="4.5999999" stroke-linecap="round" stroke-linejoin="round" transform="matrix(0.217391 -6.56503e-008 6.56503e-008 0.217391 67.9355 98.2141)" />
	<path d="M -69.8392 -125.711 L -69.8392 -83.8071" fill="none" stroke="#000000" stroke-width="4.5999999" stroke-linecap="round" stroke-linejoin="round" transform="matrix(0.217391 -6.56503e-008 6.56503e-008 0.217391 67.9355 98.2141)" />
	<path d="M -90.791 104.759 L -48.8874 104.759" fill="none" stroke="#000000" stroke-width="4.5999999" stroke-linecap="round" stroke-linejoin="round" transform="matrix(0.217391 -6.56503e-008 6.56503e-008 0.217391 67.9355 98.2141)" />
	<path d="M -428.995 -268.996 L 428.995 -268.996, 428.995 268.996, -428.995 268.996 Z" fill="none" stroke="#000000" stroke-width="6.13333321" stroke-linecap="round" stroke-linejoin="round" transform="matrix(0.217391 0 -0 0.217391 161.195 98.2142)" />
	<path d="M -30.3458 -18.5451 L -30.3458 18.5451, 30.3458 0 Z" stroke="none" fill="#000000" transform="matrix(1.64126e-008 0.217391 0.217391 -1.64126e-008 193.453 129.991)" />
	<g transform="matrix(1 0 -0 1 9 87.0067)">
		<svg width="108.057793" height="48.0957298">
			<defs />
			<path d="M 6.82725 16.7669 C 5.69335 16.731, 4.5903 16.7131, 3.51756 16.7131, 2.44537 16.7131, 1.34233 16.731, 0.208429 16.7669 L 0.208429 15.9949, 0.846354 15.9949 C 1.04946 15.9955, 1.24078 15.9927, 1.4192 15.9865, 1.59817 15.9809, 1.76761 15.9657, 1.92808 15.9416, 2.08854 15.918, 2.22712 15.8939, 2.34382 15.8692, 2.44257 15.8518, 2.52392 15.7969, 2.58844 15.7037, 2.65353 15.6111, 2.68551 15.5079, 2.68551 15.3935 L 2.68551 5.27643 C 2.37805 5.4268, 1.99877 5.54069, 1.5488 5.61812, 1.09883 5.6961, 0.60622 5.73482, 0.0698472 5.73426 L 0.0698472 4.97122 C 0.809324 4.97178, 1.49213 4.88369, 2.11771 4.70696, 2.7433 4.53078, 3.28416 4.19976, 3.73974 3.71444 L 4.02644 3.71444 C 4.22954 3.715, 4.33109 3.81375, 4.33109 4.01068 L 4.33109 15.3935 C 4.33109 15.5135, 4.36195 15.6184, 4.42367 15.7082, 4.48539 15.798, 4.57516 15.8518, 4.69186 15.8692, 4.7906 15.8939, 4.9174 15.918, 5.07113 15.9416, 5.22486 15.9657, 5.39879 15.9809, 5.59292 15.9865, 5.78704 15.9927, 5.97668 15.9955, 6.16183 15.9949 L 6.82725 15.9949, 6.82725 16.7669 Z" stroke="none" fill="#000000" />
			<path d="M 16.744 16.7669 L 9.21796 16.7669, 9.21796 16.2732 C 9.21796 16.2379, 9.23647 16.184, 9.2735 16.1116 L 12.2971 12.826 C 12.6544 12.4316, 13.0163 12.0277, 13.3833 11.6147, 13.7502 11.2018, 14.079 10.7799, 14.3685 10.349, 14.658 9.91808, 14.8891 9.47372, 15.062 9.01589, 15.2348 8.55807, 15.3206 8.0778, 15.3206 7.57453, 15.3206 7.15037, 15.2651 6.7537, 15.154 6.38565, 15.0429 6.01759, 14.883 5.69442, 14.6731 5.41613, 14.4639 5.13785, 14.2018 4.91343, 13.8877 4.74286, 13.5735 4.5723, 13.2093 4.48702, 12.7964 4.48646, 12.1804 4.48702, 11.6361 4.67105, 11.1643 5.0391, 10.693 5.40716, 10.3799 5.8128, 10.2256 6.25492, 10.1953 6.26726, 10.2447 6.27343, 10.3737 6.27287 L 10.5308 6.27287 C 10.716 6.31551, 10.8759 6.38004, 11.0117 6.46644, 11.1474 6.5534, 11.2613 6.67291, 11.3539 6.82552, 11.4465 6.97812, 11.4925 7.16215, 11.4925 7.37704, 11.4925 7.73668, 11.3758 8.01216, 11.1413 8.20348, 10.9067 8.39536, 10.6447 8.49074, 10.3552 8.49018, 10.0781 8.49074, 9.81885 8.39536, 9.57872 8.20348, 9.33858 8.01216, 9.21796 7.73668, 9.21796 7.37704, 9.21796 6.87489, 9.3167 6.39911, 9.5142 5.95026, 9.71169 5.50142, 9.97931 5.1126, 10.3182 4.78326, 10.6571 4.45448, 11.0577 4.19415, 11.52 4.00226, 11.9823 3.81094, 12.4727 3.715, 12.9905 3.71444, 13.6318 3.715, 14.2192 3.80926, 14.7522 3.99778, 15.2853 4.18629, 15.7397 4.45728, 16.1156 4.81019, 16.4915 5.16366, 16.7861 5.57211, 16.9987 6.03554, 17.2114 6.49954, 17.3174 7.01235, 17.3174 7.57453, 17.3174 8.19731, 17.176 8.77071, 16.8921 9.29418, 16.6088 9.81821, 16.2576 10.2985, 15.8385 10.735, 15.4193 11.172, 14.9739 11.5833, 14.502 11.9693, 14.0307 12.3553, 13.6038 12.7307, 13.2217 13.0954 L 11.0947 15.0972, 13.8781 15.0972 C 14.2664 15.0978, 14.6288 15.095, 14.9643 15.0888, 15.3004 15.0832, 15.5854 15.0708, 15.8199 15.0529, 16.0545 15.0349, 16.1745 15.0232, 16.1801 15.0164, 16.2295 14.9749, 16.2761 14.8913, 16.3193 14.7656, 16.3625 14.64, 16.4023 14.4918, 16.4394 14.3213, 16.4764 14.1507, 16.5134 13.9773, 16.5504 13.8006, 16.5875 13.6244, 16.6211 13.4309, 16.652 13.221 L 17.3359 13.221 Z" stroke="none" fill="#000000" />
			<path d="M 34.2105 4.57714 C 33.9214 4.57772, 33.6666 4.59947, 33.4468 4.64184, 33.2269 4.68478, 33.0219 4.75806, 32.833 4.86111, 32.5187 5.05118, 32.28 5.33801, 32.1162 5.72216 L 27.7486 16.98 C 27.6673 17.1575, 27.5287 17.2428, 27.3335 17.2365 L 27.1829 17.2365 C 26.9883 17.2365, 26.8497 17.1512, 26.7679 16.98 L 22.1929 5.19087 C 22.1425 5.07523, 22.0859 4.9716, 22.0229 4.88, 21.9599 4.7884, 21.8689 4.72142, 21.7492 4.67791, 21.605 4.62352, 21.4023 4.59317, 21.1412 4.58688, 20.8802 4.58115, 20.6019 4.57772, 20.3059 4.57714 L 20.3059 3.81685 C 21.1178 3.86036, 21.8941 3.88154, 22.636 3.88097, 22.7494 3.88154, 22.8725 3.87525, 23.0042 3.86265, 23.8658 3.86322, 24.7681 3.8512, 25.7116 3.82601 L 25.7116 4.57714 C 25.4288 4.57772, 25.1768 4.58401, 24.957 4.59604, 24.7372 4.60863, 24.5385 4.65386, 24.3622 4.73287, 24.2809 4.77638, 24.2179 4.8342, 24.1738 4.90691, 24.1423 4.95615, 24.1263 5.00195, 24.1263 5.04431, 24.1263 5.0695, 24.1297 5.09698, 24.136 5.12675 L 27.8339 14.5984, 31.3239 5.64888 C 31.3554 5.57617, 31.3708 5.49373, 31.3708 5.40156, 31.3708 5.22522, 31.2861 5.06034, 31.1166 4.90691, 30.9724 4.77924, 30.8103 4.69222, 30.6306 4.64642, 30.4514 4.60062, 30.2235 4.57772, 29.9464 4.57714 L 29.9464 3.82601 C 30.7079 3.8512, 31.4246 3.86322, 32.0973 3.86265, 32.1855 3.87525, 32.28 3.88154, 32.3802 3.88097, 32.959 3.88154, 33.5693 3.86036, 34.2105 3.81685 L 34.2105 4.57714 Z" stroke="none" fill="#000000" />
			<rect />
		</svg>
	</g>
	<path d="M 0 -268.996 L 0 268.996" fill="none" stroke="#000000" stroke-width="6.13333321" stroke-linecap="round" stroke-linejoin="round" transform="matrix(0.217391 0 0 0.217391 193.453 98.2142)" />
	<rect x="-83.8073959" y="-20.9516563" width="167.614792" height="41.9033127" stroke="none" fill="#FFFFFF" transform="matrix(0.217391 0 -0 0.217391 131.384 39.7368)" />
	<path d="M -83.8074 -20.9517 L 83.8074 -20.9517, 83.8074 20.9517, -83.8074 20.9517 Z" fill="none" stroke="#000000" stroke-width="6.89999962" stroke-linecap="round" stroke-linejoin="round" transform="matrix(0.217391 0 -0 0.217391 131.384 39.7368)" />
	<g transform="matrix(1 0 -0 1 265.959 65.4235)">
		<svg width="77.9182587" height="45.2233963">
			<defs />
			<path d="M 7.60602 16.7669 L 0.079969 16.7669, 0.079969 16.2732 C 0.079969 16.2379, 0.098484 16.184, 0.135514 16.1116 L 3.15906 12.826 C 3.51646 12.4316, 3.87834 12.0277, 4.24528 11.6147, 4.61221 11.2018, 4.94099 10.7799, 5.2305 10.349, 5.52 9.91808, 5.75116 9.47372, 5.92396 9.01589, 6.09677 8.55807, 6.18261 8.0778, 6.18261 7.57453, 6.18261 7.15037, 6.12707 6.7537, 6.01598 6.38565, 5.90489 6.01759, 5.74499 5.69442, 5.53515 5.41613, 5.32588 5.13785, 5.06386 4.91343, 4.74967 4.74286, 4.43547 4.5723, 4.07135 4.48702, 3.65841 4.48646, 3.04236 4.48702, 2.49814 4.67105, 2.02628 5.0391, 1.55499 5.40716, 1.24192 5.8128, 1.08763 6.25492, 1.05733 6.26726, 1.10671 6.27343, 1.23575 6.27287 L 1.39285 6.27287 C 1.578 6.31551, 1.7379 6.38004, 1.87368 6.46644, 2.00945 6.5534, 2.12335 6.67291, 2.21592 6.82552, 2.3085 6.97812, 2.3545 7.16215, 2.3545 7.37704, 2.3545 7.73668, 2.2378 8.01216, 2.00328 8.20348, 1.76876 8.39536, 1.50674 8.49074, 1.21724 8.49018, 0.940073 8.49074, 0.680864 8.39536, 0.44073 8.20348, 0.200597 8.01216, 0.079969 7.73668, 0.079969 7.37704, 0.079969 6.87489, 0.178716 6.39911, 0.376208 5.95026, 0.573702 5.50142, 0.841327 5.1126, 1.18021 4.78326, 1.51909 4.45448, 1.91968 4.19415, 2.382 4.00226, 2.84431 3.81094, 3.33468 3.715, 3.85253 3.71444, 4.49382 3.715, 5.08125 3.80926, 5.61426 3.99778, 6.14727 4.18629, 6.60173 4.45728, 6.97763 4.81019, 7.35354 5.16366, 7.6481 5.57211, 7.86074 6.03554, 8.07338 6.49954, 8.17942 7.01235, 8.17942 7.57453, 8.17942 8.19731, 8.03804 8.77071, 7.75414 9.29418, 7.47081 9.81821, 7.11958 10.2985, 6.70047 10.735, 6.28136 11.172, 5.83588 11.5833, 5.36403 11.9693, 4.89274 12.3553, 4.46577 12.7307, 4.08369 13.0954 L 1.95671 15.0972, 4.74013 15.0972 C 5.12838 15.0978, 5.49083 15.095, 5.82634 15.0888, 6.16242 15.0832, 6.44743 15.0708, 6.68196 15.0529, 6.91648 15.0349, 7.03655 15.0232, 7.04216 15.0164, 7.09153 14.9749, 7.1381 14.8913, 7.1813 14.7656, 7.2245 14.64, 7.26434 14.4918, 7.30137 14.3213, 7.3384 14.1507, 7.37543 13.9773, 7.41246 13.8006, 7.44949 13.6244, 7.48315 13.4309, 7.51401 13.221 L 8.19794 13.221 Z" stroke="none" fill="#000000" />
			<path d="M 24.8231 16.8334 C 24.0056 16.7911, 23.2166 16.7693, 22.4552 16.7693 L 22.0871 16.7693 C 21.2003 16.7819, 20.2785 16.8002, 19.3224 16.8243 L 19.3224 16.064 C 19.6058 16.0646, 19.8606 16.0542, 20.0867 16.0325, 20.3134 16.0113, 20.5144 15.9667, 20.6907 15.8991, 20.7726 15.8567, 20.8447 15.7926, 20.9077 15.7067, 20.9329 15.677, 20.9455 15.6369, 20.9455 15.5877, 20.9455 15.5636, 20.9426 15.5361, 20.9358 15.5052 L 19.8698 12.5465, 15.237 12.5465, 14.3599 15.0014 C 14.3284 15.0753, 14.3124 15.1457, 14.3124 15.2121, 14.3124 15.2739, 14.3221 15.3346, 14.341 15.3953, 14.3914 15.5304, 14.4733 15.6403, 14.5861 15.7251, 14.7498 15.8602, 14.9244 15.9501, 15.1099 15.9959, 15.2954 16.0417, 15.5204 16.0646, 15.7843 16.064 L 15.7843 16.8243 C 15.0235 16.8002, 14.2969 16.7819, 13.6048 16.7693 L 13.3128 16.7693 C 12.7088 16.7693, 12.0796 16.7911, 11.4258 16.8334 L 11.4258 16.064 C 11.7281 16.0646, 11.9903 16.0451, 12.2136 16.005, 12.4369 15.9655, 12.6521 15.8876, 12.8594 15.7709, 13.1994 15.5819, 13.4382 15.3043, 13.5767 14.9373 L 17.6524 3.4596 C 17.7154 3.27697, 17.8476 3.18824, 18.0486 3.19396 L 18.1997 3.19396 C 18.4013 3.19453, 18.5329 3.28327, 18.5959 3.4596 L 22.8794 15.4502 C 22.9115 15.567, 22.9602 15.6707, 23.026 15.7623, 23.0924 15.8539, 23.1817 15.9151, 23.2945 15.9449, 23.4582 16.0067, 23.6741 16.0417, 23.9414 16.0508, 24.2088 16.06, 24.5025 16.0646, 24.8231 16.064 L 24.8231 16.8334 Z M 17.5677 6.04277 L 15.5107 11.7862, 19.5961 11.7862 Z" stroke="none" fill="#000000" />
			<rect />
		</svg>
	</g>
	<g transform="matrix(1 0 -0 1 153.787 72.721)">
		<svg width="77.9182587" height="48.0957298">
			<defs />
			<path d="M 8.50221 12.7632 C 8.50221 13.386, 8.41019 13.9442, 8.22504 14.438, 8.03989 14.9317, 7.7257 15.4181, 7.2819 15.8962, 6.84428 16.3456, 6.39599 16.6732, 5.93704 16.8791, 5.4781 17.0856, 4.92489 17.1888, 4.27743 17.1888, 3.61818 17.1888, 3.01448 17.0261, 2.46577 16.6996, 1.91705 16.3742, 1.47942 15.9326, 1.15289 15.3755, 0.690575 14.6158, 0.39658 13.8141, 0.270341 12.9702, 0.144103 12.1264, 0.0807031 11.2854, 0.0807031 10.4472, 0.0807031 9.61005, 0.202453 8.78586, 0.445953 7.97457, 0.689453 7.16384, 1.07883 6.41426, 1.6152 5.72528, 2.06517 5.13953, 2.61389 4.65758, 3.26079 4.28055, 3.90825 3.90352, 4.61967 3.715, 5.39618 3.71444, 6.14239 3.715, 6.7618 3.90689, 7.25441 4.28953, 7.74758 4.67273, 7.99389 5.22313, 7.99389 5.94073, 7.99389 6.27624, 7.89233 6.52479, 7.68867 6.68637, 7.48557 6.84796, 7.25104 6.92875, 6.98622 6.92819, 6.73375 6.92875, 6.50708 6.84796, 6.30678 6.68637, 6.10648 6.52479, 6.00605 6.27624, 6.00605 5.94073, 6.00605 5.58221, 6.13902 5.3129, 6.40384 5.1328, 6.57665 5.02564, 6.77078 4.97178, 6.98622 4.97122, 7.05411 4.97178, 7.06309 4.96897, 7.01372 4.96224, 6.92787 4.83095, 6.73824 4.70135, 6.44536 4.5723, 6.15249 4.44382, 5.80295 4.3793, 5.39618 4.37874, 4.84746 4.3793, 4.35485 4.54257, 3.91723 4.86854, 3.4796 5.19508, 3.10986 5.60297, 2.80745 6.09333, 2.45062 6.71611, 2.23461 7.39443, 2.16055 8.12718, 2.08649 8.86048, 2.04329 9.4451, 2.03095 9.88161, 2.14204 9.62464, 2.4091 9.30933, 2.83102 8.9351, 3.25293 8.56143, 3.78762 8.37404, 4.43453 8.37348, 5.05113 8.37404, 5.58301 8.47728, 6.02962 8.68375, 6.47622 8.89022, 6.90599 9.2117, 7.31893 9.64821, 7.75039 10.1274, 8.0556 10.6093, 8.23402 11.0941, 8.413 11.5788, 8.50221 12.1354, 8.50221 12.7632 Z M 6.53289 12.7632 C 6.53289 12.1892, 6.51493 11.6731, 6.4779 11.2152, 6.44087 10.7574, 6.318 10.3551, 6.10817 10.0073, 5.89272 9.65494, 5.65202 9.39461, 5.3872 9.22685, 5.12238 9.05966, 4.79865 8.9755, 4.41601 8.97494, 4.00307 8.9755, 3.65072 9.08041, 3.35785 9.28969, 3.06498 9.49953, 2.81699 9.77445, 2.61389 10.1156, 2.41078 10.4567, 2.26547 10.8545, 2.17907 11.3089, 2.11735 11.6209, 2.08649 11.953, 2.08649 12.3054, 2.08649 12.4434, 2.09266 12.5904, 2.10501 12.7453 L 2.10501 12.8171 C 2.12969 13.2665, 2.16392 13.6856, 2.20712 14.0744, 2.25032 14.4638, 2.31821 14.7808, 2.41022 15.0254, 2.58303 15.4569, 2.83719 15.807, 3.1727 16.0763, 3.50878 16.3456, 3.87683 16.4802, 4.27743 16.4797, 4.69037 16.4802, 5.03879 16.4011, 5.32212 16.2423, 5.60602 16.0841, 5.85569 15.8277, 6.07114 15.4742, 6.29332 15.1219, 6.42573 14.7224, 6.46837 14.2764, 6.51157 13.8309, 6.53289 13.3265, 6.53289 12.7632 Z" stroke="none" fill="#000000" />
			<path d="M 23.547 16.6044 C 23.5092 16.751, 23.4056 16.8243, 23.2355 16.8243 L 20.1136 16.8243 C 19.9064 16.8243, 19.8022 16.7241, 19.8022 16.522, 19.8022 15.7714, 19.9138 15.0478, 20.1371 14.3516, 20.3604 13.6554, 20.6043 12.9673, 20.8682 12.286, 21.1327 11.6053, 21.3714 10.9257, 21.585 10.2479, 21.7991 9.57, 21.9056 8.88013, 21.9056 8.17708, 21.9056 7.62805, 21.8209 7.09561, 21.6508 6.57921, 21.4814 6.06338, 21.214 5.60995, 20.8493 5.21893, 20.4846 4.82848, 20.0541 4.52905, 19.5572 4.32123, 19.0602 4.11398, 18.5415 4.00979, 18.0005 4.00921, 17.4601 4.00979, 16.9414 4.11398, 16.4444 4.32123, 15.9475 4.52905, 15.5187 4.82848, 15.1569 5.21893, 14.795 5.60995, 14.5277 6.06338, 14.3548 6.57921, 14.1819 7.09561, 14.0954 7.62805, 14.0954 8.17708, 14.0954 8.88013, 14.2042 9.57, 14.4206 10.2479, 14.6376 10.9257, 14.878 11.6053, 15.142 12.286, 15.4065 12.9673, 15.6498 13.6571, 15.8731 14.3562, 16.0963 15.0558, 16.208 15.7777, 16.208 16.522, 16.208 16.7241, 16.1107 16.8243, 15.916 16.8243 L 12.7649 16.8243 C 12.6017 16.8243, 12.501 16.751, 12.4632 16.6044 L 11.8031 13.9846 C 11.8031 13.8203, 11.8913 13.7167, 12.067 13.6732 L 12.1706 13.6732 C 12.3344 13.6738, 12.4351 13.7499, 12.4729 13.9022, 12.5737 14.3241, 12.6664 14.6722, 12.7512 14.947, 12.8359 15.2218, 12.8943 15.3684, 12.9252 15.3861, 12.9882 15.4354, 13.1393 15.4663, 13.3781 15.4783, 13.6174 15.4909, 13.9036 15.4966, 14.2368 15.496 L 15.4443 15.496 C 15.3126 14.947, 15.0624 14.3825, 14.6943 13.802, 14.3267 13.222, 13.9443 12.6387, 13.5481 12.0524, 13.1519 11.4662, 12.8015 10.8587, 12.4964 10.2295, 12.1918 9.60092, 12.039 8.91677, 12.039 8.17708, 12.039 7.49351, 12.1993 6.86203, 12.5199 6.28151, 12.8405 5.70155, 13.2716 5.20347, 13.812 4.78783, 14.3971 4.31837, 15.0515 3.96857, 15.7746 3.73956, 16.4977 3.51056, 17.2396 3.39606, 18.0005 3.39548, 18.7619 3.39606, 19.5039 3.51056, 20.227 3.73956, 20.9501 3.96857, 21.6136 4.31837, 22.217 4.78783, 22.7455 5.21606, 23.1731 5.71816, 23.5 6.29525, 23.8269 6.87234, 23.9901 7.49981, 23.9901 8.17708, 23.9901 8.91677, 23.8378 9.60092, 23.5327 10.2295, 23.2281 10.8587, 22.8743 11.4662, 22.4718 12.0524, 22.0693 12.6387, 21.6823 13.222, 21.3113 13.802, 20.9403 14.3825, 20.689 14.947, 20.5568 15.496 L 21.7733 15.496 C 22.1071 15.4966, 22.3934 15.4909, 22.6321 15.4783, 22.8714 15.4663, 23.022 15.4354, 23.085 15.3861, 23.1039 15.3747, 23.1571 15.2281, 23.2453 14.947, 23.3334 14.6665, 23.4273 14.3178, 23.5281 13.9022, 23.5659 13.7562, 23.6701 13.68, 23.8395 13.6732 L 23.9432 13.6732 C 24.1132 13.7104, 24.1979 13.814, 24.1979 13.9846 Z" stroke="none" fill="#000000" />
			<rect />
		</svg>
	</g>
	<path d="M -83.8082 -20.9514 L 83.8082 -20.9514, 83.8082 20.9514, -83.8082 20.9514 Z" stroke="none" fill="#FFFFFF" transform="matrix(1.64126e-008 0.217391 -0.217391 1.64126e-008 193.453 83.9284)" />
	<path d="M -83.8082 -20.9514 L 83.8082 -20.9514, 83.8082 20.9514, -83.8082 20.9514 Z" fill="none" stroke="#000000" stroke-width="6.89999962" stroke-linecap="round" stroke-linejoin="round" transform="matrix(1.64126e-008 0.217391 -0.217391 1.64126e-008 193.453 83.9284)" />
	<g transform="matrix(1 0 -0 1 171.537 117.593)">
		<svg width="29.9820557" height="45.2233963">
			<defs />
			<path d="M 8.72362 4.3115 C 8.7053 4.39165, 8.66294 4.45864, 8.59652 4.5136, 8.53011 4.56856, 8.44996 4.59604, 8.3555 4.59547, 8.06008 4.59604, 7.77097 4.60234, 7.48757 4.61436, 7.20475 4.62695, 7.00037 4.66016, 6.87442 4.71455, 6.74274 4.75806, 6.64484 4.91664, 6.58186 5.19088 L 3.93057 15.5144 C 3.90538 15.6312, 3.89278 15.7319, 3.89278 15.8167, 3.89278 15.9025, 3.90881 15.9546, 3.9403 15.9724, 4.02847 16.0279, 4.21053 16.06, 4.48762 16.0691, 4.76472 16.0783, 5.0567 16.0829, 5.36471 16.0823, 5.54104 16.0829, 5.62921 16.1562, 5.62921 16.3021, 5.62921 16.3394, 5.62291 16.3789, 5.61031 16.4212 L 5.57253 16.5678 C 5.50325 16.751, 5.3836 16.8426, 5.21356 16.8426, 4.40232 16.806, 3.58134 16.7876, 2.7512 16.7876, 1.92736 16.7876, 1.09092 16.806, 0.241318 16.8426, 0.0787248 16.8426, -0.0031441 16.7636, -0.0037166 16.6044 L -0.0037166 16.5311, 0.034069 16.3754 C 0.0850224 16.1745, 0.207539 16.0766, 0.402193 16.0823, 0.710203 16.0829, 1.00619 16.0783, 1.28901 16.0691, 1.57183 16.06, 1.77622 16.0279, 1.90217 15.9724, 2.01553 15.9117, 2.10713 15.7468, 2.17583 15.4777 L 4.84601 5.15423 C 4.8712 5.03859, 4.8838 4.94699, 4.8838 4.87943, 4.8838 4.7884, 4.86834 4.73058, 4.83628 4.70539, 4.73609 4.6573, 4.54774 4.62695, 4.27064 4.61436, 3.99355 4.60234, 3.70729 4.59604, 3.41188 4.59547, 3.23554 4.59604, 3.14738 4.5136, 3.14738 4.34814 L 3.14738 4.28402, 3.18516 4.11914 C 3.25444 3.93651, 3.37409 3.84491, 3.54355 3.84433, 4.36797 3.86952, 5.19524 3.88155, 6.02538 3.88097, 6.86239 3.88155, 7.69253 3.86952, 8.5158 3.84433, 8.60397 3.84491, 8.67954 3.87525, 8.74251 3.93593, 8.7677 3.98517, 8.7803 4.03097, 8.7803 4.07334, 8.7803 4.11055, 8.77114 4.14433, 8.75167 4.1741 Z" stroke="none" fill="#000000" />
			<rect />
		</svg>
	</g>
	<g transform="matrix(1 0 -0 1 119.025 9.00001)">
		<svg width="77.9182587" height="48.0957298">
			<defs />
			<path d="M 8.50221 12.7632 C 8.50221 13.386, 8.41019 13.9442, 8.22504 14.438, 8.03989 14.9317, 7.7257 15.4181, 7.2819 15.8962, 6.84428 16.3456, 6.39599 16.6732, 5.93704 16.8791, 5.4781 17.0856, 4.92489 17.1888, 4.27743 17.1888, 3.61818 17.1888, 3.01448 17.0261, 2.46577 16.6996, 1.91705 16.3742, 1.47942 15.9326, 1.15289 15.3755, 0.690575 14.6158, 0.39658 13.8141, 0.270341 12.9702, 0.144103 12.1264, 0.0807031 11.2854, 0.0807031 10.4472, 0.0807031 9.61005, 0.202453 8.78586, 0.445953 7.97457, 0.689453 7.16384, 1.07883 6.41426, 1.6152 5.72528, 2.06517 5.13953, 2.61389 4.65758, 3.26079 4.28055, 3.90825 3.90352, 4.61967 3.715, 5.39618 3.71444, 6.14239 3.715, 6.7618 3.90689, 7.25441 4.28953, 7.74758 4.67273, 7.99389 5.22313, 7.99389 5.94073, 7.99389 6.27624, 7.89233 6.52479, 7.68867 6.68637, 7.48557 6.84796, 7.25104 6.92875, 6.98622 6.92819, 6.73375 6.92875, 6.50708 6.84796, 6.30678 6.68637, 6.10648 6.52479, 6.00605 6.27624, 6.00605 5.94073, 6.00605 5.58221, 6.13902 5.3129, 6.40384 5.1328, 6.57665 5.02564, 6.77078 4.97178, 6.98622 4.97122, 7.05411 4.97178, 7.06309 4.96897, 7.01372 4.96224, 6.92787 4.83095, 6.73824 4.70135, 6.44536 4.5723, 6.15249 4.44382, 5.80295 4.3793, 5.39618 4.37874, 4.84746 4.3793, 4.35485 4.54257, 3.91723 4.86854, 3.4796 5.19508, 3.10986 5.60297, 2.80745 6.09333, 2.45062 6.71611, 2.23461 7.39443, 2.16055 8.12718, 2.08649 8.86048, 2.04329 9.4451, 2.03095 9.88161, 2.14204 9.62464, 2.4091 9.30933, 2.83102 8.9351, 3.25293 8.56143, 3.78762 8.37404, 4.43453 8.37348, 5.05113 8.37404, 5.58301 8.47728, 6.02962 8.68375, 6.47622 8.89022, 6.90599 9.2117, 7.31893 9.64821, 7.75039 10.1274, 8.0556 10.6093, 8.23402 11.0941, 8.413 11.5788, 8.50221 12.1354, 8.50221 12.7632 Z M 6.53289 12.7632 C 6.53289 12.1892, 6.51493 11.6731, 6.4779 11.2152, 6.44087 10.7574, 6.318 10.3551, 6.10817 10.0073, 5.89272 9.65494, 5.65202 9.39461, 5.3872 9.22685, 5.12238 9.05966, 4.79865 8.9755, 4.41601 8.97494, 4.00307 8.9755, 3.65072 9.08041, 3.35785 9.28969, 3.06498 9.49953, 2.81699 9.77445, 2.61389 10.1156, 2.41078 10.4567, 2.26547 10.8545, 2.17907 11.3089, 2.11735 11.6209, 2.08649 11.953, 2.08649 12.3054, 2.08649 12.4434, 2.09266 12.5904, 2.10501 12.7453 L 2.10501 12.8171 C 2.12969 13.2665, 2.16392 13.6856, 2.20712 14.0744, 2.25032 14.4638, 2.31821 14.7808, 2.41022 15.0254, 2.58303 15.4569, 2.83719 15.807, 3.1727 16.0763, 3.50878 16.3456, 3.87683 16.4802, 4.27743 16.4797, 4.69037 16.4802, 5.03879 16.4011, 5.32212 16.2423, 5.60602 16.0841, 5.85569 15.8277, 6.07114 15.4742, 6.29332 15.1219, 6.42573 14.7224, 6.46837 14.2764, 6.51157 13.8309, 6.53289 13.3265, 6.53289 12.7632 Z" stroke="none" fill="#000000" />
			<path d="M 23.547 16.6044 C 23.5092 16.751, 23.4056 16.8243, 23.2355 16.8243 L 20.1136 16.8243 C 19.9064 16.8243, 19.8022 16.7241, 19.8022 16.522, 19.8022 15.7714, 19.9138 15.0478, 20.1371 14.3516, 20.3604 13.6554, 20.6043 12.9673, 20.8682 12.286, 21.1327 11.6053, 21.3714 10.9257, 21.585 10.2479, 21.7991 9.57, 21.9056 8.88013, 21.9056 8.17708, 21.9056 7.62805, 21.8209 7.09561, 21.6508 6.57921, 21.4814 6.06338, 21.214 5.60995, 20.8493 5.21893, 20.4846 4.82848, 20.0541 4.52905, 19.5572 4.32123, 19.0602 4.11398, 18.5415 4.00979, 18.0005 4.00921, 17.4601 4.00979, 16.9414 4.11398, 16.4444 4.32123, 15.9475 4.52905, 15.5187 4.82848, 15.1569 5.21893, 14.795 5.60995, 14.5277 6.06338, 14.3548 6.57921, 14.1819 7.09561, 14.0954 7.62805, 14.0954 8.17708, 14.0954 8.88013, 14.2042 9.57, 14.4206 10.2479, 14.6376 10.9257, 14.878 11.6053, 15.142 12.286, 15.4065 12.9673, 15.6498 13.6571, 15.8731 14.3562, 16.0963 15.0558, 16.208 15.7777, 16.208 16.522, 16.208 16.7241, 16.1107 16.8243, 15.916 16.8243 L 12.7649 16.8243 C 12.6017 16.8243, 12.501 16.751, 12.4632 16.6044 L 11.8031 13.9846 C 11.8031 13.8203, 11.8913 13.7167, 12.067 13.6732 L 12.1706 13.6732 C 12.3344 13.6738, 12.4351 13.7499, 12.4729 13.9022, 12.5737 14.3241, 12.6664 14.6722, 12.7512 14.947, 12.8359 15.2218, 12.8943 15.3684, 12.9252 15.3861, 12.9882 15.4354, 13.1393 15.4663, 13.3781 15.4783, 13.6174 15.4909, 13.9036 15.4966, 14.2368 15.496 L 15.4443 15.496 C 15.3126 14.947, 15.0624 14.3825, 14.6943 13.802, 14.3267 13.222, 13.9443 12.6387, 13.5481 12.0524, 13.1519 11.4662, 12.8015 10.8587, 12.4964 10.2295, 12.1918 9.60092, 12.039 8.91677, 12.039 8.17708, 12.039 7.49351, 12.1993 6.86203, 12.5199 6.28151, 12.8405 5.70155, 13.2716 5.20347, 13.812 4.78783, 14.3971 4.31837, 15.0515 3.96857, 15.7746 3.73956, 16.4977 3.51056, 17.2396 3.39606, 18.0005 3.39548, 18.7619 3.39606, 19.5039 3.51056, 20.227 3.73956, 20.9501 3.96857, 21.6136 4.31837, 22.217 4.78783, 22.7455 5.21606, 23.1731 5.71816, 23.5 6.29525, 23.8269 6.87234, 23.9901 7.49981, 23.9901 8.17708, 23.9901 8.91677, 23.8378 9.60092, 23.5327 10.2295, 23.2281 10.8587, 22.8743 11.4662, 22.4718 12.0524, 22.0693 12.6387, 21.6823 13.222, 21.3113 13.802, 20.9403 14.3825, 20.689 14.947, 20.5568 15.496 L 21.7733 15.496 C 22.1071 15.4966, 22.3934 15.4909, 22.6321 15.4783, 22.8714 15.4663, 23.022 15.4354, 23.085 15.3861, 23.1039 15.3747, 23.1571 15.2281, 23.2453 14.947, 23.3334 14.6665, 23.4273 14.3178, 23.5281 13.9022, 23.5659 13.7562, 23.6701 13.68, 23.8395 13.6732 L 23.9432 13.6732 C 24.1132 13.7104, 24.1979 13.814, 24.1979 13.9846 Z" stroke="none" fill="#000000" />
			<rect />
		</svg>
	</g>
	<ellipse cx="1414.6643562316895" cy="422.84871292114258" rx="12.075000762939453" ry="12.075000762939453" stroke="none" fill="#000000" transform="matrix(0.217391 0 0 0.217391 -114.083 -52.1868)" />
	<ellipse cx="1414.6643562316895" cy="960.8406867980957" rx="12.075000762939453" ry="12.075000762939453" stroke="none" fill="#000000" transform="matrix(0.217391 0 0 0.217391 -114.083 -52.1868)" />
	<path d="M 0 -104.759 L 0 -69.8392" fill="none" stroke="#000000" stroke-width="4.5999999" stroke-linecap="round" stroke-linejoin="round" transform="matrix(0.217391 -6.56503e-008 6.56503e-008 0.217391 254.455 111.702)" />
	<path d="M 0 104.759 L 0 69.8392" fill="none" stroke="#000000" stroke-width="4.5999999" stroke-linecap="round" stroke-linejoin="round" transform="matrix(0.217391 -6.56503e-008 6.56503e-008 0.217391 254.455 111.702)" />
	<path d="M 69.8392 -0 C 69.8392 38.5711, 38.5711 69.8392, -0 69.8392, -38.5711 69.8392, -69.8392 38.5711, -69.8392 -0, -69.8392 -38.5711, -38.5711 -69.8392, -0 -69.8392, 38.5711 -69.8392, 69.8392 -38.5711, 69.8392 -0 Z" stroke="none" fill="#FFFFFF" transform="matrix(0.217391 -6.56503e-008 6.56503e-008 0.217391 254.455 111.702)" />
	<path d="M 69.8392 -0 C 69.8392 38.5711, 38.5711 69.8392, -0 69.8392, -38.5711 69.8392, -69.8392 38.5711, -69.8392 -0, -69.8392 -38.5711, -38.5711 -69.8392, -0 -69.8392, 38.5711 -69.8392, 69.8392 -38.5711, 69.8392 -0 Z" fill="none" stroke="#000000" stroke-width="6.89999962" stroke-linecap="round" stroke-linejoin="round" transform="matrix(0.217391 -6.56503e-008 6.56503e-008 0.217391 254.455 111.702)" />
	<path d="M -69.8392 0 L 69.8392 0" fill="none" stroke="#000000" stroke-width="4.5999999" stroke-linecap="round" stroke-linejoin="round" transform="matrix(0.217391 -6.56503e-008 6.56503e-008 0.217391 254.455 111.702)" />
	<path d="M -30.3458 -18.5451 L -30.3458 18.5451, 30.3458 0 Z" stroke="none" fill="#000000" transform="matrix(-1.01068e-007 -0.217391 -0.217391 1.01068e-007 254.455 75.4405)" />
</svg>
