<?xml version="1.0"?>
<svg xmlns="http://www.w3.org/2000/svg" xmlns:xlink="http://www.w3.org/1999/xlink" width="178.214294" height="154.285721">
	<defs>
		<marker id="CustomMarker-01" markerUnits="strokeWidth" markerWidth="15.000001" markerHeight="9" viewBox="-15 -4.5 15 9" orient="auto-start-reverse">
			<path d="M 0 -0 L -10 -3, -8 -0.5, -8 0.5, -10 3 Z" fill="#000000" stroke="#000000" stroke-linejoin="round" />
		</marker>
	</defs>
	<path d="M 57.4008 -49.5862 L -57.4007 49.5862" fill="none" stroke="#000000" stroke-width="3.73333335" stroke-linecap="round" stroke-linejoin="round" marker-end="url(#CustomMarker-01)" transform="matrix(0.357143 0 0 0.357143 33.6761 42.1557)" />
	<path d="M 196.358 -0 C 196.358 108.446, 108.446 196.358, -0 196.358, -108.446 196.358, -196.358 108.446, -196.358 -0, -196.358 -108.446, -108.446 -196.358, -0 -196.358, 108.446 -196.358, 196.358 -108.446, 196.358 -0 Z" fill="none" stroke="#000000" stroke-width="3.73333335" stroke-linecap="round" stroke-linejoin="round" stroke-dasharray="13.0853, 9.31467" transform="matrix(0.357143 0 0 0.357143 99.8144 77.6926)" />
	<path d="M 0 0 L 0 -197.856" fill="none" stroke="#000000" stroke-width="3.73333335" stroke-linecap="round" stroke-linejoin="round" stroke-dasharray="13.0853, 9.31467" transform="matrix(0.357143 0 0 0.357143 99.8144 77.6926)" />
	<path d="M 0 0 L -126.901 -148.055" fill="none" stroke="#000000" stroke-width="3.73333335" stroke-linecap="round" stroke-linejoin="round" transform="matrix(0.357143 0 0 0.357143 99.8144 77.6926)" />
	<path d="M 18.1954 -0 C 18.1954 10.049, 10.049 18.1954, -0 18.1954, -10.049 18.1954, -18.1954 10.049, -18.1954 -0, -18.1954 -10.049, -10.049 -18.1954, -0 -18.1954, 10.049 -18.1954, 18.1954 -10.049, 18.1954 -0 Z" stroke="none" fill="#808080" transform="matrix(0.357143 0 0 0.357143 54.1764 24.4469)" />
	<path d="M 18.1954 -0 C 18.1954 10.049, 10.049 18.1954, -0 18.1954, -10.049 18.1954, -18.1954 10.049, -18.1954 -0, -18.1954 -10.049, -10.049 -18.1954, -0 -18.1954, 10.049 -18.1954, 18.1954 -10.049, 18.1954 -0 Z" fill="none" stroke="#000000" stroke-width="3.73333335" stroke-linecap="round" stroke-linejoin="round" transform="matrix(0.357143 0 0 0.357143 54.1764 24.4469)" />
	<path d="M -29.4482 -34.3571 C -21.247 -41.3866, -10.8017 -45.2505, -0.000140957 -45.2505" fill="none" stroke="#000000" stroke-width="3.73333335" stroke-linecap="round" stroke-linejoin="round" transform="matrix(0.357143 0 -0 0.357143 99.8144 77.6926)" />
	<path d="M 0 0 L -57.4124 -66.9828" fill="none" stroke="#000000" stroke-width="1.39999998" stroke-linecap="round" stroke-linejoin="round" stroke-dasharray="7.707, 3.493, 0.014, 4.186" transform="matrix(0.357143 0 -0 0.357143 99.8144 77.6926)" />
	<path d="M 0 0 L -2.30944e-005 -10.2748" fill="none" stroke="#000000" stroke-width="1.39999998" stroke-linecap="round" stroke-linejoin="round" stroke-dasharray="7.707, 3.493, 0.014, 4.186" transform="matrix(0.357143 0 -0 0.357143 99.8144 77.6926)" />
	<g transform="matrix(1 0 -0 1 85.874 36.7134)">
		<svg width="30.0150681" height="47.9999886">
			<defs />
			<path d="M 7.9765 5.50232 C 8.12764 6.08285, 8.20264 6.67539, 8.20264 7.27939, 8.20264 7.46947, 8.19634 7.65267, 8.18374 7.829, 8.12134 8.63567, 7.98623 9.44462, 7.77841 10.2564, 7.55227 11.0751, 7.26601 11.8864, 6.92022 12.689, 6.57442 13.4923, 6.11469 14.2629, 5.54218 15.0014, 5.34753 15.2522, 5.13169 15.5001, 4.89582 15.7439, 4.65995 15.9884, 4.4069 16.2065, 4.13667 16.3989, 3.86645 16.5913, 3.58477 16.7487, 3.29222 16.8701, 2.99967 16.9926, 2.6928 17.0533, 2.3722 17.0533, 2.0453 17.0533, 1.76362 16.9909, 1.52775 16.8655, 1.29187 16.7407, 1.0892 16.5792, 0.919168 16.3806, 0.749705 16.1825, 0.609441 15.9609, 0.499519 15.7165, 0.389597 15.4726, 0.299713 15.2218, 0.230439 14.9648, 0.0735714 14.3974, -0.00543487 13.8112, -0.00543487 13.206, -0.00543487 13.0114, 0.00716031 12.819, 0.0323508 12.6289, 0.0827316 11.8354, 0.217844 11.0328, 0.437688 10.2198, 0.645509 9.40226, 0.925466 8.5933, 1.27756 7.79293, 1.63023 6.99314, 2.09854 6.22025, 2.68364 5.47484, 2.87887 5.22523, 3.09299 4.97618, 3.32543 4.72886, 3.55787 4.48154, 3.80633 4.26169, 4.07026 4.06933, 4.33476 3.87697, 4.613 3.7201, 4.90555 3.59758, 5.19811 3.47564, 5.50783 3.41438, 5.83474 3.41381, 6.16221 3.41438, 6.44217 3.47735, 6.67461 3.60216, 6.90705 3.72754, 7.11315 3.88784, 7.29235 4.08307, 7.47211 4.27887, 7.61352 4.50157, 7.71715 4.75176, 7.82135 5.00252, 7.90779 5.25271, 7.9765 5.50232 Z M 6.70266 5.71301 C 6.67747 5.47541, 6.64598 5.25271, 6.6082 5.04489, 6.57041 4.83764, 6.51545 4.6573, 6.44332 4.50444, 6.37118 4.35215, 6.27843 4.23421, 6.16508 4.15177, 6.05172 4.06933, 5.90745 4.02811, 5.73111 4.02754, 5.36642 4.02811, 5.02979 4.19757, 4.72178 4.5365, 4.41377 4.87542, 4.11492 5.28019, 3.82523 5.74965, 3.41016 6.42177, 3.08955 7.11222, 2.86284 7.82041, 2.63613 8.52918, 2.44147 9.21276, 2.27773 9.87172 L 6.11756 9.87172 C 6.28759 9.18241, 6.44503 8.47994, 6.5893 7.76488, 6.69007 7.28283, 6.74045 6.8065, 6.74045 6.3359, 6.74045 6.12865, 6.72785 5.9214, 6.70266 5.71301 Z M 2.07965 10.6137 C 1.91018 11.3041, 1.7619 12.0003, 1.63595 12.7022, 1.53576 13.2094, 1.48538 13.7167, 1.48538 14.2228, 1.48538 14.4129, 1.49168 14.5961, 1.50427 14.7724, 1.51687 15.0111, 1.54549 15.2344, 1.589 15.4417, 1.63309 15.6495, 1.69148 15.8281, 1.76362 15.9775, 1.83576 16.1275, 1.93194 16.2432, 2.05159 16.3256, 2.17125 16.4081, 2.31609 16.4493, 2.48555 16.4487, 2.84395 16.4493, 3.17886 16.2815, 3.49031 15.9455, 3.80175 15.61, 4.09545 15.2064, 4.37255 14.7358, 4.78762 14.0522, 5.10822 13.3594, 5.33494 12.657, 5.56165 11.9551, 5.7563 11.2738, 5.91947 10.6137 Z" stroke="none" fill="#000000" />
			<rect />
		</svg>
	</g>
	<g transform="matrix(1 0 -0 1 58.6517 50.3243)">
		<svg width="41.9788857" height="47.9999886">
			<defs />
			<path d="M 12.9573 14.9922 C 12.8881 15.2676, 12.7844 15.5378, 12.6459 15.8035, 12.5073 16.0691, 12.3379 16.309, 12.1364 16.5226, 11.9354 16.7367, 11.7104 16.9113, 11.4619 17.0487, 11.2135 17.1861, 10.945 17.2548, 10.6553 17.2548, 9.74383 17.2548, 9.05797 17.0138, 8.59881 16.5311, 8.28508 16.202, 8.12764 15.7869, 8.12764 15.2854, 8.12764 15.0295, 8.16886 14.7518, 8.25016 14.4518 L 8.67439 12.8121 C 8.72477 12.6049, 8.74996 12.4097, 8.74996 12.2259, 8.74996 12.1348, 8.74366 12.0404, 8.73106 11.9419, 8.69328 11.686, 8.60569 11.4604, 8.46714 11.2646, 8.32859 11.0694, 8.15111 10.9154, 7.93413 10.802, 7.71715 10.6893, 7.46067 10.6326, 7.16525 10.632 L 5.03322 10.632, 3.77886 15.5144 C 3.75366 15.6312, 3.74107 15.7256, 3.74107 15.7983, 3.74107 15.8905, 3.75996 15.9518, 3.79775 15.9815, 3.87962 16.0308, 4.04965 16.06, 4.30728 16.0691, 4.56491 16.0783, 4.84143 16.0829, 5.13685 16.0823, 5.31318 16.0829, 5.40135 16.1562, 5.40135 16.3021, 5.40135 16.3394, 5.39505 16.3789, 5.38246 16.4212 L 5.34467 16.5678 C 5.27597 16.751, 5.15288 16.8426, 4.97655 16.8426, 4.20366 16.806, 3.4239 16.7876, 2.63727 16.7876, 1.85179 16.7876, 1.0623 16.806, 0.269943 16.8426, 0.10048 16.8426, 0.0094513 16.7636, -0.00371642 16.6044 L -0.00371642 16.5311, 0.0340692 16.3754 C 0.0844501 16.1745, 0.206967 16.0766, 0.40162 16.0823, 0.697608 16.0829, 0.977565 16.0783, 1.24149 16.0691, 1.50599 16.06, 1.70065 16.0279, 1.82602 15.9724, 1.94568 15.906, 2.03671 15.7411, 2.09968 15.4777 L 4.7504 5.15423 C 4.78819 5.02027, 4.80708 4.91664, 4.80708 4.84279, 4.80708 4.77008, 4.79163 4.72714, 4.75956 4.71455, 4.67197 4.66016, 4.50079 4.62695, 4.24602 4.61436, 3.99126 4.60234, 3.71302 4.59604, 3.41073 4.59547, 3.23497 4.59604, 3.1468 4.5136, 3.1468 4.34814 L 3.1468 4.27486, 3.20348 4.11914 C 3.24127 3.93651, 3.35749 3.84491, 3.55214 3.84433 L 8.86331 3.84433 C 9.46101 3.84491, 10.0301 3.92448, 10.5705 4.08307, 11.1116 4.24223, 11.5833 4.50444, 11.9852 4.87027, 12.319 5.16397, 12.5612 5.52408, 12.7117 5.95117, 12.8062 6.18361, 12.8566 6.42521, 12.8629 6.67482, 12.8629 6.90154, 12.8285 7.12424, 12.7592 7.34351, 12.6396 7.83244, 12.3911 8.27556, 12.0138 8.67231, 11.6366 9.06963, 11.2123 9.40798, 10.7406 9.68851, 10.4137 9.87859, 10.0822 10.036, 9.74555 10.1608, 9.40892 10.2862, 9.16846 10.3641, 9.02362 10.3938, 9.38201 10.5347, 9.72151 10.8095, 10.0421 11.2183, 10.3129 11.5732, 10.448 11.9974, 10.448 12.4915, 10.448 12.5957, 10.4417 12.6999, 10.4291 12.803 L 10.2499 14.4518 C 10.1996 14.88, 10.1744 15.2522, 10.1744 15.5693, 10.1744 15.7777, 10.187 15.9609, 10.2121 16.1189, 10.2562 16.4796, 10.4446 16.66, 10.7778 16.6594, 11.0801 16.66, 11.3566 16.4968, 11.6079 16.1699, 11.8598 15.8436, 12.0453 15.4388, 12.1644 14.9556, 12.2343 14.773, 12.3568 14.6842, 12.5325 14.69 L 12.6837 14.69 C 12.8537 14.6905, 12.9447 14.7701, 12.9573 14.9281 L 12.9573 14.9922 Z M 10.7406 7.28855 C 10.8413 6.92272, 10.8974 6.55631, 10.91 6.18933 L 10.91 6.13437 C 10.91 5.8235, 10.8127 5.55499, 10.6175 5.32828, 10.385 5.06034, 10.0822 4.87084, 9.70777 4.76092, 9.33334 4.651, 8.92286 4.59604, 8.4763 4.59547 L 7.22193 4.59547 C 6.90132 4.59604, 6.70953 4.62066, 6.64656 4.66932, 6.58358 4.71856, 6.51774 4.89203, 6.44847 5.19088 L 5.20326 10.0366, 7.02384 10.0366 C 7.4704 10.0372, 7.91066 9.98221, 8.34462 9.87229, 8.77858 9.76237, 9.19022 9.56714, 9.5801 9.28547, 9.9133 9.04787, 10.1652 8.74902, 10.3347 8.38834, 10.5047 8.02823, 10.6398 7.66183, 10.7406 7.28855 Z" stroke="none" fill="#000000" />
			<rect />
		</svg>
	</g>
	<g transform="matrix(1 0 -0 1 26.2381 2.60805)">
		<svg width="48.0251122" height="32.9571342">
			<defs />
			<path d="M 14.8429 14.0762 C 14.7679 14.4003, 14.6551 14.738, 14.504 15.089, 14.3528 15.4405, 14.1719 15.7594, 13.9612 16.0462, 13.7505 16.3336, 13.5038 16.5729, 13.221 16.7647, 12.9382 16.9571, 12.6107 17.0533, 12.2397 17.0533, 11.9254 17.0533, 11.6552 16.9863, 11.4284 16.8518, 11.2023 16.7178, 11.0311 16.5409, 10.9143 16.321, 10.7981 16.1012, 10.7334 15.8447, 10.7208 15.551 L 10.7208 15.4777 C 10.7208 15.2155, 10.7746 14.9499, 10.8811 14.6808, 11.0889 14.1438, 11.2807 13.6096, 11.4571 13.0783, 11.6334 12.5471, 11.7937 12.0129, 11.938 11.4747, 12.0387 11.1209, 12.1074 10.7763, 12.1452 10.4396, 12.1578 10.3549, 12.1641 10.2633, 12.1641 10.1648, 12.1641 9.95187, 12.1326 9.75034, 12.0697 9.56027, 11.9569 9.17612, 11.7181 8.98375, 11.3529 8.98318, 10.7117 8.98375, 10.158 9.20531, 9.6926 9.64786, 9.22772 10.091, 8.82181 10.6784, 8.47601 11.4106, 8.28136 12.2419, 8.07354 13.0709, 7.85369 13.8982, 7.63385 14.726, 7.4163 15.5516, 7.20218 16.3754, 7.14607 16.6021, 7.02985 16.771, 6.85352 16.8838, 6.67719 16.9972, 6.50429 17.0533, 6.33483 17.0533, 6.15277 17.0533, 6.00163 16.9926, 5.88197 16.8701, 5.8001 16.7911, 5.75602 16.6811, 5.74972 16.5403, 5.74972 16.4739, 5.75602 16.4063, 5.76861 16.3388 L 7.03271 11.4747 C 7.13348 11.1209, 7.20218 10.7763, 7.23996 10.4396 L 7.23996 10.1648 C 7.23996 9.94557, 7.21477 9.74405, 7.16439 9.56027, 7.05161 9.17612, 6.81287 8.98375, 6.44761 8.98318, 5.8064 8.98375, 5.25335 9.20531, 4.7879 9.64786, 4.32245 10.091, 3.91368 10.6784, 3.56102 11.4106 L 2.26886 16.3754 C 2.21276 16.6021, 2.09768 16.771, 1.92478 16.8838, 1.75188 16.9972, 1.57727 17.0533, 1.40094 17.0533, 1.21258 17.0533, 1.06774 16.9926, 0.966974 16.8701, 0.885678 16.7911, 0.844457 16.6811, 0.844457 16.5403, 0.844457 16.4859, 0.850755 16.4189, 0.86335 16.3388 L 2.31581 10.6686 C 2.41657 10.2725, 2.46695 9.93011, 2.46695 9.64271 L 2.46695 9.42287 C 2.43603 9.13032, 2.28833 8.98375, 2.02383 8.98318, 1.7473 8.98375, 1.51601 9.20703, 1.33052 9.65244, 1.14502 10.0984, 0.964112 10.6784, 0.787779 11.3923, 0.719077 11.5578, 0.602858 11.6431, 0.43912 11.6488 L 0.222139 11.6488 C 0.0709965 11.6494, -0.00457481 11.5732, -0.00457481 11.4198 L -0.00457481 11.3557 C 0.0709965 11.0694, 0.1563 10.7562, 0.250192 10.4173, 0.344656 10.0784, 0.470608 9.75779, 0.627476 9.4555, 0.784916 9.15322, 0.983005 8.89673, 1.22174 8.68605, 1.46105 8.47536, 1.75933 8.37002, 2.11772 8.36945, 2.63412 8.37002, 3.03946 8.52575, 3.33487 8.83719, 3.63029 9.14864, 3.78429 9.45092, 3.79689 9.74347, 4.06139 9.39596, 4.42894 9.07994, 4.90069 8.79597, 5.37244 8.512, 5.91976 8.37002, 6.54207 8.36945, 6.92566 8.37002, 7.27832 8.43872, 7.59893 8.57613, 7.91953 8.71353, 8.168 8.93509, 8.34376 9.23967, 8.4949 9.50302, 8.5762 9.72286, 8.5888 9.8992, 8.86589 9.50874, 9.24947 9.15665, 9.74011 8.84177, 10.2308 8.52746, 10.8061 8.37002, 11.4662 8.36945, 11.8372 8.37002, 12.183 8.43872, 12.5036 8.57613, 12.8242 8.71353, 13.0761 8.93509, 13.2582 9.23967, 13.4471 9.55168, 13.5387 9.90263, 13.5318 10.2931 L 13.5318 10.3389 C 13.5193 10.7305, 13.4631 11.1244, 13.3624 11.5205, 13.2181 12.077, 13.0515 12.6238, 12.8626 13.1608, 12.6737 13.6984, 12.4756 14.2417, 12.2677 14.7907, 12.0794 15.2859, 11.9849 15.701, 11.9849 16.0365, 11.9849 16.3119, 12.1046 16.4493, 12.3433 16.4487, 12.5574 16.4493, 12.7504 16.3852, 12.9233 16.2569, 13.0962 16.1287, 13.2536 15.9563, 13.395 15.7394, 13.537 15.523, 13.6641 15.2665, 13.7775 14.9699, 13.8908 14.6739, 13.991 14.3608, 14.0792 14.0304, 14.117 13.8724, 14.2269 13.7928, 14.4089 13.7923 L 14.6168 13.7923 C 14.686 13.7928, 14.7582 13.814, 14.8337 13.8564, 14.8589 13.9119, 14.8715 13.9577, 14.8715 13.9938, 14.8715 14.019, 14.8624 14.0465, 14.8429 14.0762 Z" stroke="none" fill="#000000" />
			<rect />
		</svg>
	</g>
	<g transform="matrix(1 0 -0 1 5.20052 30.2899)">
		<svg width="30.0150681" height="32.9571342">
			<defs />
			<path d="M 7.75093 8.56181 C 7.92096 8.72727, 8.02802 8.95914, 8.07153 9.25799, 8.08413 9.40512, 8.09043 9.54539, 8.09043 9.67935, 8.09043 9.85111, 8.07783 10.0217, 8.05264 10.1923, 8.01485 10.5347, 7.95703 10.8816, 7.87803 11.2326, 7.79959 11.5841, 7.72287 11.8967, 7.6473 12.1709, 7.52135 12.6908, 7.35303 13.2341, 7.14235 13.802, 6.93167 14.3699, 6.67232 14.8921, 6.36431 15.3684, 6.0563 15.8447, 5.69676 16.2449, 5.28456 16.5684, 4.87235 16.8918, 4.39602 17.0533, 3.855 17.0533, 3.42791 17.0533, 3.02371 16.9771, 2.643 16.8243, 2.26285 16.672, 1.96572 16.4247, 1.7516 16.0823, 1.51916 15.7348, 1.4058 15.338, 1.4121 14.8915, 1.4121 14.8674, 1.4184 14.8434, 1.43099 14.8182, 1.43099 14.3854, 1.48137 13.9486, 1.58156 13.5083, 1.68232 13.0875, 1.82889 12.6238, 2.02068 12.1165, 2.21247 11.6099, 2.39624 11.1181, 2.572 10.6412, 2.76093 10.1351, 2.8554 9.71943, 2.8554 9.39539, 2.8554 9.12116, 2.73918 8.98375, 2.50617 8.98318, 2.29262 8.98375, 2.09911 9.04501, 1.92621 9.16696, 1.75332 9.28947, 1.59645 9.45894, 1.45447 9.67535, 1.31306 9.89233, 1.18596 10.1488, 1.0726 10.4448, 0.959244 10.7414, 0.86478 11.0568, 0.789209 11.3923, 0.720508 11.5578, 0.604288 11.6431, 0.440551 11.6488 L 0.223569 11.6488 C 0.0724269 11.6494, -0.00314435 11.5732, -0.00314435 11.4198 L -0.00314435 11.3557 C 0.0850222 11.0202, 0.201814 10.6772, 0.346087 10.3257, 0.490932 9.97477, 0.673562 9.65588, 0.893406 9.36848, 1.11325 9.08165, 1.36515 8.84349, 1.64797 8.65399, 1.93079 8.46506, 2.25483 8.37002, 2.61952 8.36945, 2.9344 8.37002, 3.20291 8.43758, 3.42619 8.57155, 3.64947 8.70609, 3.81893 8.88471, 3.93515 9.10742, 4.05194 9.33069, 4.11606 9.58203, 4.12866 9.86256 L 4.12866 9.92668 C 4.12866 10.19, 4.07542 10.4614, 3.96836 10.7419, 3.7863 11.2188, 3.60538 11.706, 3.42619 12.2035, 3.24699 12.7016, 3.10673 13.1488, 3.00597 13.5449, 2.90578 13.9606, 2.8365 14.3579, 2.79872 14.7358, 2.78612 14.8216, 2.77983 14.9041, 2.77983 14.9831, 2.77983 15.2585, 2.82734 15.5178, 2.92124 15.7617, 3.0031 15.9758, 3.1365 16.1441, 3.32199 16.2661, 3.50749 16.3886, 3.72618 16.4493, 3.97752 16.4487, 4.3485 16.4493, 4.68342 16.3291, 4.98227 16.0875, 5.28112 15.8464, 5.54734 15.5212, 5.77978 15.1119, 6.01222 14.7031, 6.21832 14.2371, 6.39751 13.715, 6.57671 13.1928, 6.7353 12.6661, 6.87384 12.1343, 6.93682 11.8663, 6.96773 11.6099, 6.96773 11.3648, 6.96773 11.1822, 6.95571 11.0081, 6.93052 10.8427, 6.84865 10.4465, 6.66602 10.1105, 6.3832 9.83508, 6.25152 9.70741, 6.18225 9.56084, 6.17538 9.39539, 6.17538 9.3347, 6.18511 9.27688, 6.20401 9.22134, 6.26068 9.00837, 6.37232 8.82345, 6.53892 8.66773, 6.70552 8.512, 6.9019 8.41296, 7.12861 8.36945, 7.1664 8.358, 7.20991 8.3517, 7.26029 8.35113, 7.44292 8.3517, 7.60666 8.42212, 7.75093 8.56181 Z" stroke="none" fill="#000000" />
			<rect />
		</svg>
	</g>
</svg>
