<?xml version="1.0"?>
<svg xmlns="http://www.w3.org/2000/svg" xmlns:xlink="http://www.w3.org/1999/xlink" width="257.312286" height="149.953918">
	<defs>
		<marker id="CustomMarker-01" markerUnits="strokeWidth" markerWidth="15.000001" markerHeight="9" viewBox="-15 -4.5 15 9" orient="auto-start-reverse">
			<path d="M 0 -0 L -10 -3, -8 -0.5, -8 0.5, -10 3 Z" fill="#000000" stroke="#000000" stroke-linejoin="round" />
		</marker>
		<marker id="CustomMarker-02" markerUnits="strokeWidth" markerWidth="15.000001" markerHeight="9" viewBox="-15 -4.5 15 9" orient="auto-start-reverse">
			<path d="M 0 -0 L -10 -3, -8 -0.5, -8 0.5, -10 3 Z" fill="#000000" stroke="#000000" stroke-linejoin="round" />
		</marker>
		<marker id="CustomMarker-03" markerUnits="strokeWidth" markerWidth="15.000001" markerHeight="9" viewBox="-15 -4.5 15 9" orient="auto-start-reverse">
			<path d="M 0 -0 L -10 -3, -8 -0.5, -8 0.5, -10 3 Z" fill="#000000" stroke="#000000" stroke-linejoin="round" />
		</marker>
	</defs>
	<path d="M 92.0977 81.7808 L 78.4308 83.3186 C 23.6018 88.9415, -35.4323 88.5308, -89.6874 82.0721" fill="none" stroke="#000000" stroke-width="2.20000005" stroke-linecap="round" stroke-linejoin="round" marker-start="url(#CustomMarker-01)" transform="matrix(-0.454545 6.86344e-008 6.86345e-008 0.454545 128.656 101.796)" />
	<path d="M 16.0862 -0 C 16.0862 8.88414, 8.88419 16.0862, -0 16.0862, -8.88419 16.0862, -16.0862 8.88414, -16.0862 -0, -16.0862 -8.88414, -8.88419 -16.0862, -0 -16.0862, 8.88419 -16.0862, 16.0862 -8.88414, 16.0862 -0 Z" fill="none" stroke="#000000" stroke-width="2.9333334" stroke-linecap="round" stroke-linejoin="round" transform="matrix(0.454545 0 -0 0.454545 233.212 23.0875)" />
	<path d="M 0 -19.5237 L 0 19.5229" fill="none" stroke="#000000" stroke-width="2.9333334" stroke-linecap="round" stroke-linejoin="round" transform="matrix(0.454545 0 0 0.454545 233.212 39.2737)" />
	<path d="M 13.7159 -6.54971 L -13.7155 6.54993" fill="none" stroke="#000000" stroke-width="2.9333334" stroke-linecap="round" stroke-linejoin="round" transform="matrix(0.454545 0 0 0.454545 225.901 39.0587)" />
	<path d="M -13.7156 -6.54971 L 13.7152 6.54993" fill="none" stroke="#000000" stroke-width="2.9333334" stroke-linecap="round" stroke-linejoin="round" transform="matrix(0.454545 0 0 0.454545 240.525 39.0587)" />
	<path d="M -9.88745 20.7037 L 9.88629 -20.7035" fill="none" stroke="#000000" stroke-width="2.9333334" stroke-linecap="round" stroke-linejoin="round" transform="matrix(0.454545 0 0 0.454545 228.719 58.4697)" />
	<path d="M 10.4302 21.8401 L -10.4294 -21.8398" fill="none" stroke="#000000" stroke-width="2.9333334" stroke-linecap="round" stroke-linejoin="round" transform="matrix(0.454545 0 0 0.454545 237.953 58.0749)" />
	<path d="M 86.6026 -82.4321 L 102.002 -80.4901 C 134.961 -75.9402, 164.839 -69.2244, 189.786 -60.7318" fill="none" stroke="#000000" stroke-width="2.20000005" stroke-linecap="round" stroke-linejoin="round" marker-start="url(#CustomMarker-02)" transform="matrix(0.454545 0 -0 0.454545 128.656 62.1382)" />
	<g transform="matrix(1 0 -0 1 152.932 8.99999)">
		<svg width="30.0150681" height="32.9571342">
			<defs />
			<path d="M 7.75007 8.56181 C 7.9201 8.72727, 8.02716 8.95914, 8.07067 9.25799, 8.08327 9.40512, 8.08957 9.54539, 8.08957 9.67935, 8.08957 9.85111, 8.07697 10.0217, 8.05178 10.1923, 8.014 10.5347, 7.95617 10.8816, 7.87717 11.2326, 7.79873 11.5841, 7.72202 11.8967, 7.64644 12.1709, 7.52049 12.6908, 7.35217 13.2341, 7.14149 13.802, 6.93081 14.3699, 6.67146 14.8921, 6.36345 15.3684, 6.05544 15.8447, 5.69533 16.2449, 5.28312 16.5684, 4.87092 16.8918, 4.39459 17.0533, 3.85357 17.0533, 3.4259 17.0533, 3.02171 16.9771, 2.64099 16.8243, 2.26084 16.672, 1.96371 16.4247, 1.74959 16.0823, 1.51715 15.7348, 1.4038 15.338, 1.40952 14.8915, 1.40952 14.8674, 1.41582 14.8434, 1.42842 14.8182, 1.42842 14.3854, 1.4788 13.9486, 1.57956 13.5083, 1.68032 13.0875, 1.82688 12.6238, 2.01867 12.1165, 2.21046 11.6099, 2.39424 11.1181, 2.57 10.6412, 2.75893 10.1351, 2.85339 9.71943, 2.85339 9.39539, 2.85339 9.12116, 2.73717 8.98375, 2.50416 8.98318, 2.29062 8.98375, 2.09711 9.04501, 1.92421 9.16696, 1.75131 9.28947, 1.59387 9.45894, 1.45246 9.67535, 1.31105 9.89233, 1.18338 10.1488, 1.07002 10.4448, 0.956668 10.7414, 0.862776 11.0568, 0.787205 11.3923, 0.717931 11.5578, 0.601712 11.6431, 0.437974 11.6488 L 0.220993 11.6488 C 0.0698501 11.6494, -0.00572118 11.5732, -0.00572118 11.4198 L -0.00572118 11.3557 C 0.0824453 11.0202, 0.199237 10.6772, 0.34351 10.3257, 0.488355 9.97477, 0.670985 9.65588, 0.890829 9.36848, 1.11125 9.08165, 1.36315 8.84349, 1.64597 8.65399, 1.92879 8.46506, 2.25283 8.37002, 2.61752 8.36945, 2.9324 8.37002, 3.20091 8.43758, 3.42418 8.57155, 3.64746 8.70609, 3.8175 8.88471, 3.93372 9.10742, 4.05051 9.33069, 4.11463 9.58203, 4.12723 9.86256 L 4.12723 9.92668 C 4.12723 10.19, 4.07398 10.4614, 3.96635 10.7419, 3.78429 11.2188, 3.60395 11.706, 3.42418 12.2035, 3.24499 12.7016, 3.10472 13.1488, 3.00396 13.5449, 2.90377 13.9606, 2.8345 14.3579, 2.79671 14.7358, 2.78412 14.8216, 2.77782 14.9041, 2.77782 14.9831, 2.77782 15.2585, 2.82534 15.5178, 2.91923 15.7617, 3.0011 15.9758, 3.13507 16.1441, 3.32056 16.2661, 3.50605 16.3886, 3.72475 16.4493, 3.97608 16.4487, 4.34707 16.4493, 4.68199 16.3291, 4.98084 16.0875, 5.27969 15.8464, 5.54591 15.5212, 5.77834 15.1119, 6.01078 14.7031, 6.21689 14.2371, 6.39608 13.715, 6.57585 13.1928, 6.73444 12.6661, 6.87241 12.1343, 6.93539 11.8663, 6.96688 11.6099, 6.96688 11.3648, 6.96688 11.1822, 6.95428 11.0081, 6.92909 10.8427, 6.84779 10.4465, 6.66516 10.1105, 6.38177 9.83508, 6.25009 9.70741, 6.18082 9.56084, 6.17452 9.39539, 6.17452 9.3347, 6.18425 9.27688, 6.20257 9.22134, 6.25983 9.00837, 6.37146 8.82345, 6.53807 8.66773, 6.70467 8.512, 6.90104 8.41296, 7.12718 8.36945, 7.16496 8.358, 7.20905 8.3517, 7.25943 8.35113, 7.44206 8.3517, 7.6058 8.42212, 7.75007 8.56181 Z" stroke="none" fill="#000000" />
			<rect />
		</svg>
	</g>
	<path d="M 264.343 -12.0009 C 264.343 40.0815, 145.993 82.3027, -0 82.3027, -145.993 82.3027, -264.343 40.0815, -264.343 -12.0009, -264.343 -64.0833, -145.993 -106.305, -0 -106.305, 145.993 -106.305, 264.343 -64.0833, 264.343 -12.0009 Z" stroke="none" fill="#000000" fill-opacity="0.0901960731" transform="matrix(0.454545 0 -0 0.454545 128.656 81.3351)" />
	<path d="M 264.343 12.0009 C 264.343 64.0834, 145.993 106.305, -1.67676e-005 106.304, -145.993 106.304, -264.343 64.0834, -264.343 12.001 L -264.343 -12.0008 C -264.343 40.0816, -145.993 82.3028, 0.000252029 82.3027, 145.993 82.3026, 264.343 40.0815, 264.343 -12.0009 Z" stroke="none" fill="#000000" fill-opacity="0.34117645" transform="matrix(0.454545 0 -0 0.454545 128.656 81.3351)" />
	<path d="M 264.343 12.0009 C 264.343 64.0834, 145.993 106.305, -1.67676e-005 106.304, -145.993 106.304, -264.343 64.0834, -264.343 12.001 L -264.343 -12.0008 C -264.344 -64.0832, -145.993 -106.304, -0.000561411 -106.304, 145.992 -106.305, 264.343 -64.0835, 264.343 -12.0009, 264.343 -12.0009, 264.343 -12.0009, 264.343 -12.0009 Z" fill="none" stroke="#000000" stroke-width="2.20000005" stroke-linecap="round" stroke-linejoin="round" transform="matrix(0.454545 0 -0 0.454545 128.656 81.3351)" />
	<path d="M -264.343 -12.0008 C -264.343 40.0816, -145.993 82.3028, 0.000252029 82.3027, 145.993 82.3026, 264.343 40.0815, 264.343 -12.0009" fill="none" stroke="#000000" stroke-width="2.20000005" stroke-linecap="round" stroke-linejoin="round" transform="matrix(0.454545 0 -0 0.454545 128.656 81.3351)" />
	<path d="M -264.343 12.001 C -264.344 -40.0814, -145.993 -82.3026, -0.0005722 -82.3027, 145.992 -82.3028, 264.343 -40.0817, 264.343 12.0009, 264.343 12.0009, 264.343 12.0009, 264.343 12.001" fill="none" stroke="#000000" stroke-width="1.10000002" stroke-linecap="round" stroke-linejoin="round" stroke-dasharray="1.6555, 2.7445" transform="matrix(0.454545 0 -0 0.454545 128.656 81.3351)" />
	<path d="M 0 -11.2005 L 0 11.2" fill="none" stroke="#000000" stroke-width="1.4666667" stroke-linecap="round" stroke-linejoin="round" stroke-dasharray="0.740667, 2.19267" transform="matrix(0.454545 0 0 0.454545 128.656 81.3351)" />
	<g transform="matrix(1 0 -0 1 69.5773 69.3879)">
		<svg width="41.9788857" height="47.9999886">
			<defs />
			<path d="M 12.9573 14.9922 C 12.8881 15.2676, 12.7844 15.5378, 12.6459 15.8035, 12.5073 16.0691, 12.3379 16.309, 12.1364 16.5226, 11.9354 16.7367, 11.7104 16.9113, 11.4619 17.0487, 11.2135 17.1861, 10.945 17.2548, 10.6553 17.2548, 9.74383 17.2548, 9.05797 17.0138, 8.59881 16.5311, 8.28508 16.202, 8.12764 15.7869, 8.12764 15.2854, 8.12764 15.0295, 8.16886 14.7518, 8.25016 14.4518 L 8.67439 12.8121 C 8.72477 12.6049, 8.74996 12.4097, 8.74996 12.2259, 8.74996 12.1348, 8.74366 12.0404, 8.73106 11.9419, 8.69328 11.686, 8.60569 11.4604, 8.46714 11.2646, 8.32859 11.0694, 8.15111 10.9154, 7.93413 10.802, 7.71715 10.6893, 7.46067 10.6326, 7.16525 10.632 L 5.03322 10.632, 3.77886 15.5144 C 3.75366 15.6312, 3.74107 15.7256, 3.74107 15.7983, 3.74107 15.8905, 3.75996 15.9518, 3.79775 15.9815, 3.87962 16.0308, 4.04965 16.06, 4.30728 16.0691, 4.56491 16.0783, 4.84143 16.0829, 5.13685 16.0823, 5.31318 16.0829, 5.40135 16.1562, 5.40135 16.3021, 5.40135 16.3394, 5.39505 16.3789, 5.38246 16.4212 L 5.34467 16.5678 C 5.27597 16.751, 5.15288 16.8426, 4.97655 16.8426, 4.20366 16.806, 3.4239 16.7876, 2.63727 16.7876, 1.85179 16.7876, 1.0623 16.806, 0.269943 16.8426, 0.10048 16.8426, 0.0094513 16.7636, -0.00371642 16.6044 L -0.00371642 16.5311, 0.0340692 16.3754 C 0.0844501 16.1745, 0.206967 16.0766, 0.40162 16.0823, 0.697608 16.0829, 0.977565 16.0783, 1.24149 16.0691, 1.50599 16.06, 1.70065 16.0279, 1.82602 15.9724, 1.94568 15.906, 2.03671 15.7411, 2.09968 15.4777 L 4.7504 5.15423 C 4.78819 5.02027, 4.80708 4.91664, 4.80708 4.84279, 4.80708 4.77008, 4.79163 4.72714, 4.75956 4.71455, 4.67197 4.66016, 4.50079 4.62695, 4.24602 4.61436, 3.99126 4.60234, 3.71302 4.59604, 3.41073 4.59547, 3.23497 4.59604, 3.1468 4.5136, 3.1468 4.34814 L 3.1468 4.27486, 3.20348 4.11914 C 3.24127 3.93651, 3.35749 3.84491, 3.55214 3.84433 L 8.86331 3.84433 C 9.46101 3.84491, 10.0301 3.92448, 10.5705 4.08307, 11.1116 4.24223, 11.5833 4.50444, 11.9852 4.87027, 12.319 5.16397, 12.5612 5.52408, 12.7117 5.95117, 12.8062 6.18361, 12.8566 6.42521, 12.8629 6.67482, 12.8629 6.90154, 12.8285 7.12424, 12.7592 7.34351, 12.6396 7.83244, 12.3911 8.27556, 12.0138 8.67231, 11.6366 9.06963, 11.2123 9.40798, 10.7406 9.68851, 10.4137 9.87859, 10.0822 10.036, 9.74555 10.1608, 9.40892 10.2862, 9.16846 10.3641, 9.02362 10.3938, 9.38201 10.5347, 9.72151 10.8095, 10.0421 11.2183, 10.3129 11.5732, 10.448 11.9974, 10.448 12.4915, 10.448 12.5957, 10.4417 12.6999, 10.4291 12.803 L 10.2499 14.4518 C 10.1996 14.88, 10.1744 15.2522, 10.1744 15.5693, 10.1744 15.7777, 10.187 15.9609, 10.2121 16.1189, 10.2562 16.4796, 10.4446 16.66, 10.7778 16.6594, 11.0801 16.66, 11.3566 16.4968, 11.6079 16.1699, 11.8598 15.8436, 12.0453 15.4388, 12.1644 14.9556, 12.2343 14.773, 12.3568 14.6842, 12.5325 14.69 L 12.6837 14.69 C 12.8537 14.6905, 12.9447 14.7701, 12.9573 14.9281 L 12.9573 14.9922 Z M 10.7406 7.28855 C 10.8413 6.92272, 10.8974 6.55631, 10.91 6.18933 L 10.91 6.13437 C 10.91 5.8235, 10.8127 5.55499, 10.6175 5.32828, 10.385 5.06034, 10.0822 4.87084, 9.70777 4.76092, 9.33334 4.651, 8.92286 4.59604, 8.4763 4.59547 L 7.22193 4.59547 C 6.90132 4.59604, 6.70953 4.62066, 6.64656 4.66932, 6.58358 4.71856, 6.51774 4.89203, 6.44847 5.19088 L 5.20326 10.0366, 7.02384 10.0366 C 7.4704 10.0372, 7.91066 9.98221, 8.34462 9.87229, 8.77858 9.76237, 9.19022 9.56714, 9.5801 9.28547, 9.9133 9.04787, 10.1652 8.74902, 10.3347 8.38834, 10.5047 8.02823, 10.6398 7.66183, 10.7406 7.28855 Z" stroke="none" fill="#000000" />
			<rect />
		</svg>
	</g>
	<path d="M 115.716 23.3505 L -115.716 -23.3506" fill="none" stroke="#000000" stroke-width="2.20000005" stroke-linecap="round" stroke-linejoin="round" marker-end="url(#CustomMarker-03)" transform="matrix(0.454545 0 0 0.454545 76.0578 65.6301)" />
</svg>
