<?xml version="1.0"?>
<svg xmlns="http://www.w3.org/2000/svg" xmlns:xlink="http://www.w3.org/1999/xlink" width="172.189392" height="264.654388">
	<defs>
		<marker id="CustomMarker-01" markerUnits="strokeWidth" markerWidth="9" markerHeight="6" viewBox="-9 -3 9 6" orient="auto-start-reverse">
			<path d="M 0 -0 L -6 -2, -6 -0.5, -6 0.5, -6 2 Z" fill="#000000" stroke="#000000" stroke-linejoin="round" />
		</marker>
		<marker id="CustomMarker-02" markerUnits="strokeWidth" markerWidth="9" markerHeight="6" viewBox="-9 -3 9 6" orient="auto-start-reverse">
			<path d="M 0 -0 L -6 -2, -6 -0.5, -6 0.5, -6 2 Z" fill="#000000" stroke="#000000" stroke-linejoin="round" />
		</marker>
		<marker id="CustomMarker-03" markerUnits="strokeWidth" markerWidth="9" markerHeight="6" viewBox="-9 -3 9 6" orient="auto-start-reverse">
			<path d="M 0 -0 L -6 -2, -6 -0.5, -6 0.5, -6 2 Z" fill="#000000" stroke="#000000" stroke-linejoin="round" />
		</marker>
		<marker id="CustomMarker-04" markerUnits="strokeWidth" markerWidth="9" markerHeight="6" viewBox="-9 -3 9 6" orient="auto-start-reverse">
			<path d="M 0 -0 L -6 -2, -6 -0.5, -6 0.5, -6 2 Z" fill="#000000" stroke="#000000" stroke-linejoin="round" />
		</marker>
	</defs>
	<path d="M 186.227 -7.84889e-006 C 186.227 102.85, 102.85 186.227, 5.98294e-005 186.227, -102.85 186.227, -186.227 102.85, -186.227 8.04353e-005" fill="none" stroke="#000000" stroke-width="3.20000029" stroke-linecap="round" stroke-linejoin="round" transform="matrix(0.416667 0 0 0.416667 86.0947 180.275)" />
	<path d="M 137.424 -1.11868e-005 C 137.424 75.8974, 75.8974 137.424, 4.77587e-005 137.424, -75.8974 137.424, -137.424 75.8975, -137.424 6.5532e-005" fill="none" stroke="#000000" stroke-width="3.20000029" stroke-linecap="round" stroke-linejoin="round" transform="matrix(0.416667 0 0 0.416667 86.0947 180.275)" />
	<path d="M 0 -199.688 L 0 199.688" fill="none" stroke="#000000" stroke-width="3.20000029" stroke-linecap="round" stroke-linejoin="round" transform="matrix(0.416667 0 0 0.416667 28.8345 97.0721)" />
	<path d="M 0 -199.688 L 0 199.688" fill="none" stroke="#000000" stroke-width="3.20000029" stroke-linecap="round" stroke-linejoin="round" transform="matrix(0.416667 0 0 0.416667 8.50002 97.0721)" />
	<path d="M 0 -199.688 L 0 199.688" fill="none" stroke="#000000" stroke-width="3.20000029" stroke-linecap="round" stroke-linejoin="round" transform="matrix(0.416667 0 0 0.416667 163.689 97.072)" />
	<path d="M 0 -199.688 L 0 199.688" fill="none" stroke="#000000" stroke-width="3.20000029" stroke-linecap="round" stroke-linejoin="round" transform="matrix(0.416667 0 0 0.416667 143.355 97.072)" />
	<path d="M 24.4014 -0 C 24.4014 7.11636, 13.4765 12.8853, -0 12.8853, -13.4765 12.8853, -24.4014 7.11636, -24.4014 -0, -24.4014 -7.11636, -13.4765 -12.8853, -0 -12.8853, 13.4765 -12.8853, 24.4014 -7.11636, 24.4014 -0 Z" fill="none" stroke="#000000" stroke-width="3.20000029" stroke-linecap="round" stroke-linejoin="round" transform="matrix(0.416667 0 0 0.416667 18.6673 13.8689)" />
	<path d="M 24.4014 -0 C 24.4014 7.11636, 13.4765 12.8853, -0 12.8853, -13.4765 12.8853, -24.4014 7.11636, -24.4014 -0, -24.4014 -7.11636, -13.4765 -12.8853, -0 -12.8853, 13.4765 -12.8853, 24.4014 -7.11636, 24.4014 -0 Z" fill="none" stroke="#000000" stroke-width="3.20000029" stroke-linecap="round" stroke-linejoin="round" transform="matrix(0.416667 0 0 0.416667 153.522 13.8689)" />
	<path d="M -137.425 0 L 137.424 0" fill="none" stroke="#000000" stroke-width="3.20000029" stroke-linecap="round" stroke-linejoin="round" stroke-dasharray="11.216, 7.984" transform="matrix(0.416667 0 0 0.416667 86.0947 77.6764)" />
	<path d="M 24.4014 -0 C 24.4014 7.11646, 13.4765 12.8855, -0 12.8855, -13.4765 12.8855, -24.4014 7.11646, -24.4014 -0, -24.4014 -7.11646, -13.4765 -12.8855, -0 -12.8855, 13.4765 -12.8855, 24.4014 -7.11646, 24.4014 -0 Z" stroke="none" fill="#000000" fill-opacity="0.34117645" transform="matrix(0.416667 0 0 0.416667 18.6673 43.9922)" />
	<path d="M 24.4014 -0 C 24.4014 7.11646, 13.4765 12.8855, -0 12.8855, -13.4765 12.8855, -24.4014 7.11646, -24.4014 -0, -24.4014 -7.11646, -13.4765 -12.8855, -0 -12.8855, 13.4765 -12.8855, 24.4014 -7.11646, 24.4014 -0 Z" fill="none" stroke="#000000" stroke-width="3.20000029" stroke-linecap="round" stroke-linejoin="round" transform="matrix(0.416667 0 0 0.416667 18.6673 43.9922)" />
	<path d="M 24.4014 -0 C 24.4014 7.11606, 13.4765 12.8848, -0 12.8848, -13.4765 12.8848, -24.4014 7.11606, -24.4014 -0, -24.4014 -7.11606, -13.4765 -12.8848, -0 -12.8848, 13.4765 -12.8848, 24.4014 -7.11606, 24.4014 -0 Z" stroke="none" fill="#000000" fill-opacity="0.34117645" transform="matrix(0.416667 0 0 0.416667 153.522 111.36)" />
	<path d="M 24.4014 -0 C 24.4014 7.11606, 13.4765 12.8848, -0 12.8848, -13.4765 12.8848, -24.4014 7.11606, -24.4014 -0, -24.4014 -7.11606, -13.4765 -12.8848, -0 -12.8848, 13.4765 -12.8848, 24.4014 -7.11606, 24.4014 -0 Z" fill="none" stroke="#000000" stroke-width="3.20000029" stroke-linecap="round" stroke-linejoin="round" transform="matrix(0.416667 0 0 0.416667 153.522 111.36)" />
	<path d="M -184.5 -252 L -184.5 74.4, -183.9 84, -183.3 89.3999, -182.7 94.1999, -182.1 97.7999, -180.9 104.4, -179.7 109.8, -179.1 112.2, -178.5 114.6, -177.3 118.8, -176.1 123, -175.5 124.8, -174.9 126.6, -172.5 133.2, -171.3 136.2, -170.1 139.2, -167.7 144.6, -162.3 155.4, -157.5 163.8, -155.1 167.4, -151.5 172.8, -148.5 177, -146.7 179.4, -144.3 182.4, -141.9 185.4, -138.3 189.6, -131.1 197.4, -130.5 198, -122.1 205.8, -117.9 209.4, -114.9 211.8, -111.9 214.2, -109.5 216, -105.3 219, -99.9001 222.6, -95.1001 225.6, -90.9001 228, -84.3001 231.6, -79.5001 234, -72.9001 237, -63.9001 240.6, -53.1001 244.2, -48.9001 245.4, -41.7 247.2, -36.3 248.4, -29.7 249.6, -25.5 250.2, -20.7 250.8, -14.7 251.4, -2.7 252, 2.1 252, 14.1 251.4, 20.7 250.8, 25.5 250.2, 29.7 249.6, 36.3 248.4, 41.7 247.2, 44.1001 246.6, 46.5001 246, 53.1001 244.2, 63.9001 240.6, 72.9001 237, 79.5001 234, 87.9001 229.8, 95.1001 225.6, 99.9001 222.6, 105.3 219, 109.5 216, 114.9 211.8, 117.9 209.4, 122.1 205.8, 130.5 198, 131.1 197.4, 138.3 189.6, 141.9 185.4, 144.3 182.4, 146.7 179.4, 148.5 177, 151.5 172.8, 156.3 165.6, 158.1 162.6, 159.9 159.6, 162.3 155.4, 167.7 144.6, 170.1 139.2, 171.3 136.2, 172.5 133.2, 175.5 124.8, 176.1 123, 177.3 118.8, 178.5 114.6, 179.1 112.2, 179.7 109.8, 180.9 104.4, 182.1 97.7999, 182.7 93.5999, 183.3 88.7999, 183.9 83.3999, 184.5 75, 184.5 -90.5999, 182.7 -88.7999, 180.9 -87.6, 177.3 -85.7999, 175.5 -85.2, 173.7 -84.5999, 171.3 -84, 167.7 -83.3999, 156.3 -83.3999, 152.1 -84, 146.7 -85.7999, 143.7 -86.9999, 141.9 -88.1999, 139.5 -90.5999, 139.5 70.2, 138.9 80.9999, 138.3 85.7999, 137.7 89.9999, 137.1 93.5999, 136.5 96.5999, 134.7 103.8, 133.5 108, 131.1 115.2, 129.9 118.2, 128.7 121.2, 126.9 125.4, 122.7 133.8, 117.3 142.8, 116.1 144.6, 114.9 146.4, 111.9 150.6, 109.5 153.6, 107.1 156.6, 103.5 160.8, 93.3001 171, 89.1001 174.6, 86.1001 177, 83.1001 179.4, 78.9001 182.4, 77.1001 183.6, 72.3001 186.6, 69.3001 188.4, 63.9001 191.4, 59.1001 193.8, 53.7001 196.2, 50.7001 197.4, 44.1001 199.8, 42.3 200.4, 33.9 202.8, 28.5 204, 25.5 204.6, 21.9 205.2, 17.7 205.8, 11.7 206.4, -11.7 206.4, -17.7 205.8, -21.9 205.2, -25.5 204.6, -28.5 204, -33.9 202.8, -38.1 201.6, -50.7001 197.4, -53.7001 196.2, -59.1001 193.8, -63.9001 191.4, -69.3001 188.4, -72.3001 186.6, -77.1001 183.6, -83.1001 179.4, -86.1001 177, -89.1001 174.6, -93.3001 171, -103.5 160.8, -107.1 156.6, -109.5 153.6, -111.9 150.6, -114.9 146.4, -116.1 144.6, -117.3 142.8, -120.3 138, -122.7 133.8, -126.9 125.4, -128.7 121.2, -129.9 118.2, -131.1 115.2, -133.5 108, -134.7 103.8, -136.5 96.5999, -137.1 93.5999, -137.7 89.9999, -138.3 85.7999, -138.9 80.9999, -139.5 70.2, -139.5 -252, -140.7 -250.8, -142.5 -249.6, -144.3 -248.4, -147.3 -247.2, -149.1 -246.6, -150.9 -246, -153.9 -245.4, -159.9 -244.8, -164.1 -244.8, -164.7 -245.4, -169.5 -245.4, -172.5 -246, -177.9 -247.8, -179.1 -248.4, -180.3 -249, -182.1 -250.2 Z" stroke="none" fill="#000000" fill-opacity="0.168627441" transform="matrix(0.416667 0 -0 0.416667 86.1198 152.155)" />
	<path d="M -137.425 0 L 137.424 0" fill="none" stroke="#000000" stroke-width="3.20000029" stroke-linecap="round" stroke-linejoin="round" stroke-dasharray="11.216, 7.984" transform="matrix(0.416667 0 0 0.416667 86.1198 43.9922)" />
	<path d="M -137.425 0 L 137.424 0" fill="none" stroke="#000000" stroke-width="3.20000029" stroke-linecap="round" stroke-linejoin="round" stroke-dasharray="11.216, 7.984" transform="matrix(0.416667 0 0 0.416667 86.0947 111.36)" />
	<path d="M -40.421 0 L 40.421 0" fill="none" stroke="#000000" stroke-width="3.20000029" stroke-linecap="round" stroke-linejoin="round" marker-start="url(#CustomMarker-01)" marker-end="url(#CustomMarker-02)" transform="matrix(3.14575e-008 0.416667 -0.416667 3.14575e-008 43.3561 60.8342)" />
	<g transform="matrix(1 0 -0 1 52.5792 46.705)">
		<svg width="30.0150681" height="41.9571342">
			<defs />
			<path d="M 6.58759 16.7693 C 6.45591 17.2823, 6.24809 17.7724, 5.96527 18.2395, 5.68245 18.7067, 5.34868 19.1223, 4.9651 19.4853, 4.58151 19.8488, 4.15099 20.1437, 3.67294 20.3693, 3.19489 20.5954, 2.69796 20.7082, 2.18155 20.7082, 1.87354 20.7082, 1.59072 20.6521, 1.33252 20.5387, 1.07489 20.4259, 0.864208 20.2731, 0.70047 20.0807, 0.536732 19.8883, 0.42681 19.6611, 0.370132 19.3983, 0.344941 19.2826, 0.332346 19.1635, 0.332346 19.041, 0.332346 18.8824, 0.351239 18.7204, 0.389025 18.5555, 0.458298 18.2807, 0.599708 18.0746, 0.813827 17.9372, 1.02795 17.7998, 1.23863 17.7311, 1.44588 17.7311, 1.66629 17.7311, 1.85179 17.8015, 2.00236 17.9418, 2.10942 18.046, 2.16266 18.18, 2.16266 18.3449, 2.16266 18.4124, 2.15006 18.4949, 2.12487 18.5922, 2.05617 18.867, 1.91476 19.0731, 1.70064 19.2105, 1.48653 19.3479, 1.31706 19.4166, 1.19111 19.4166, 1.2289 19.5815, 1.34683 19.7361, 1.54492 19.8792, 1.74301 20.0229, 1.99606 20.0944, 2.30407 20.0944, 2.64414 20.0944, 2.96188 20.0028, 3.2573 19.8196, 3.55329 19.6364, 3.82408 19.3908, 4.06912 19.0823, 4.31415 18.7742, 4.52942 18.417, 4.71491 18.0105, 4.9004 17.6046, 5.04983 17.1787, 5.16318 16.7327 L 5.21986 16.5128 C 5.12597 16.5987, 4.92788 16.7103, 4.6256 16.8472, 4.32388 16.9846, 3.99355 17.0533, 3.63458 17.0533, 3.20749 17.0533, 2.82505 16.9743, 2.48842 16.8151, 2.15178 16.6571, 1.88614 16.4126, 1.69091 16.0823, 1.50256 15.7285, 1.41153 15.338, 1.41725 14.9098 L 1.41725 14.8365 C 1.42985 14.3911, 1.48653 13.9486, 1.58729 13.5083, 1.68805 13.0875, 1.83461 12.6238, 2.0264 12.1165, 2.21819 11.6099, 2.40197 11.1181, 2.57773 10.6412, 2.76666 10.1351, 2.86112 9.71943, 2.86112 9.39539, 2.86112 9.12116, 2.7449 8.98375, 2.51189 8.98318, 2.29834 8.98375, 2.10484 9.04501, 1.93194 9.16696, 1.75904 9.28947, 1.6016 9.45894, 1.46019 9.67535, 1.31878 9.89233, 1.19111 10.1488, 1.07775 10.4448, 0.964397 10.7414, 0.870505 11.0568, 0.794934 11.3923, 0.72566 11.5578, 0.609441 11.6431, 0.445703 11.6488 L 0.228722 11.6488 C 0.0775793 11.6494, 0.00200802 11.5732, 0.00200802 11.4198 L 0.00200802 11.3557 C 0.0901745 11.0202, 0.206967 10.6772, 0.351239 10.3257, 0.496084 9.97477, 0.678715 9.65588, 0.898558 9.36848, 1.11897 9.08165, 1.37088 8.84349, 1.6537 8.65399, 1.93652 8.46506, 2.26056 8.37002, 2.62525 8.36945, 2.94013 8.37002, 3.20863 8.43758, 3.43191 8.57155, 3.65519 8.70609, 3.82523 8.88471, 3.94145 9.10742, 4.05824 9.33069, 4.12236 9.58203, 4.13496 9.86256 L 4.13496 9.92668 C 4.13496 10.19, 4.08171 10.4614, 3.97408 10.7419, 3.79202 11.2188, 3.61168 11.706, 3.43191 12.2035, 3.25272 12.7016, 3.11303 13.1488, 3.01226 13.5455, 2.9115 13.9428, 2.84223 14.3361, 2.80444 14.7266, 2.77925 14.8308, 2.76379 14.9442, 2.7575 15.0655, 2.7575 15.3043, 2.79872 15.5396, 2.88001 15.7709, 2.93669 15.9792, 3.04032 16.1441, 3.19146 16.2661, 3.3426 16.3886, 3.5218 16.4493, 3.72905 16.4487, 4.13209 16.4493, 4.48419 16.3302, 4.7859 16.092, 5.08818 15.8539, 5.35211 15.5424, 5.57825 15.1571 L 7.09712 9.24883 C 7.15437 9.02326, 7.26887 8.85723, 7.44177 8.75017, 7.61467 8.64368, 7.78929 8.58987, 7.96505 8.58929, 8.14768 8.58987, 8.29882 8.64483, 8.41847 8.75418, 8.50034 8.83433, 8.54099 8.94081, 8.54099 9.07478, 8.54099 9.14234, 8.53469 9.21276, 8.5221 9.28547 Z" stroke="none" fill="#000000" />
			<rect />
		</svg>
	</g>
	<path d="M -40.4211 0 L 40.4211 0" fill="none" stroke="#000000" stroke-width="3.20000029" stroke-linecap="round" stroke-linejoin="round" marker-start="url(#CustomMarker-03)" marker-end="url(#CustomMarker-04)" transform="matrix(3.14575e-008 0.416667 -0.416667 3.14575e-008 128.883 94.5186)" />
	<g transform="matrix(1 0 -0 1 111.121 81.0232)">
		<svg width="30.0150681" height="41.9571342">
			<defs />
			<path d="M 6.58759 16.7693 C 6.45591 17.2823, 6.24809 17.7724, 5.96527 18.2395, 5.68245 18.7067, 5.34868 19.1223, 4.9651 19.4853, 4.58151 19.8488, 4.15099 20.1437, 3.67294 20.3693, 3.19489 20.5954, 2.69796 20.7082, 2.18155 20.7082, 1.87354 20.7082, 1.59072 20.6521, 1.33252 20.5387, 1.07489 20.4259, 0.864208 20.2731, 0.70047 20.0807, 0.536732 19.8883, 0.42681 19.6611, 0.370132 19.3983, 0.344941 19.2826, 0.332346 19.1635, 0.332346 19.041, 0.332346 18.8824, 0.351239 18.7204, 0.389025 18.5555, 0.458298 18.2807, 0.599708 18.0746, 0.813827 17.9372, 1.02795 17.7998, 1.23863 17.7311, 1.44588 17.7311, 1.66629 17.7311, 1.85179 17.8015, 2.00236 17.9418, 2.10942 18.046, 2.16266 18.18, 2.16266 18.3449, 2.16266 18.4124, 2.15006 18.4949, 2.12487 18.5922, 2.05617 18.867, 1.91476 19.0731, 1.70064 19.2105, 1.48653 19.3479, 1.31706 19.4166, 1.19111 19.4166, 1.2289 19.5815, 1.34683 19.7361, 1.54492 19.8792, 1.74301 20.0229, 1.99606 20.0944, 2.30407 20.0944, 2.64414 20.0944, 2.96188 20.0028, 3.2573 19.8196, 3.55329 19.6364, 3.82408 19.3908, 4.06912 19.0823, 4.31415 18.7742, 4.52942 18.417, 4.71491 18.0105, 4.9004 17.6046, 5.04983 17.1787, 5.16318 16.7327 L 5.21986 16.5128 C 5.12597 16.5987, 4.92788 16.7103, 4.6256 16.8472, 4.32388 16.9846, 3.99355 17.0533, 3.63458 17.0533, 3.20749 17.0533, 2.82505 16.9743, 2.48842 16.8151, 2.15178 16.6571, 1.88614 16.4126, 1.69091 16.0823, 1.50256 15.7285, 1.41153 15.338, 1.41725 14.9098 L 1.41725 14.8365 C 1.42985 14.3911, 1.48653 13.9486, 1.58729 13.5083, 1.68805 13.0875, 1.83461 12.6238, 2.0264 12.1165, 2.21819 11.6099, 2.40197 11.1181, 2.57773 10.6412, 2.76666 10.1351, 2.86112 9.71943, 2.86112 9.39539, 2.86112 9.12116, 2.7449 8.98375, 2.51189 8.98318, 2.29834 8.98375, 2.10484 9.04501, 1.93194 9.16696, 1.75904 9.28947, 1.6016 9.45894, 1.46019 9.67535, 1.31878 9.89233, 1.19111 10.1488, 1.07775 10.4448, 0.964397 10.7414, 0.870505 11.0568, 0.794934 11.3923, 0.72566 11.5578, 0.609441 11.6431, 0.445703 11.6488 L 0.228722 11.6488 C 0.0775793 11.6494, 0.00200802 11.5732, 0.00200802 11.4198 L 0.00200802 11.3557 C 0.0901745 11.0202, 0.206967 10.6772, 0.351239 10.3257, 0.496084 9.97477, 0.678715 9.65588, 0.898558 9.36848, 1.11897 9.08165, 1.37088 8.84349, 1.6537 8.65399, 1.93652 8.46506, 2.26056 8.37002, 2.62525 8.36945, 2.94013 8.37002, 3.20863 8.43758, 3.43191 8.57155, 3.65519 8.70609, 3.82523 8.88471, 3.94145 9.10742, 4.05824 9.33069, 4.12236 9.58203, 4.13496 9.86256 L 4.13496 9.92668 C 4.13496 10.19, 4.08171 10.4614, 3.97408 10.7419, 3.79202 11.2188, 3.61168 11.706, 3.43191 12.2035, 3.25272 12.7016, 3.11303 13.1488, 3.01226 13.5455, 2.9115 13.9428, 2.84223 14.3361, 2.80444 14.7266, 2.77925 14.8308, 2.76379 14.9442, 2.7575 15.0655, 2.7575 15.3043, 2.79872 15.5396, 2.88001 15.7709, 2.93669 15.9792, 3.04032 16.1441, 3.19146 16.2661, 3.3426 16.3886, 3.5218 16.4493, 3.72905 16.4487, 4.13209 16.4493, 4.48419 16.3302, 4.7859 16.092, 5.08818 15.8539, 5.35211 15.5424, 5.57825 15.1571 L 7.09712 9.24883 C 7.15437 9.02326, 7.26887 8.85723, 7.44177 8.75017, 7.61467 8.64368, 7.78929 8.58987, 7.96505 8.58929, 8.14768 8.58987, 8.29882 8.64483, 8.41847 8.75418, 8.50034 8.83433, 8.54099 8.94081, 8.54099 9.07478, 8.54099 9.14234, 8.53469 9.21276, 8.5221 9.28547 Z" stroke="none" fill="#000000" />
			<rect />
		</svg>
	</g>
</svg>
