<?xml version="1.0"?>
<svg xmlns="http://www.w3.org/2000/svg" xmlns:xlink="http://www.w3.org/1999/xlink" width="262.272736" height="291.818176">
	<defs>
		<marker id="CustomMarker-01" markerUnits="strokeWidth" markerWidth="9" markerHeight="6" viewBox="-9 -3 9 6" orient="auto-start-reverse">
			<path d="M 0 -0 L -6 -2, -6 -0.5, -6 0.5, -6 2 Z" fill="#000000" stroke="#000000" stroke-linejoin="round" />
		</marker>
		<marker id="CustomMarker-02" markerUnits="strokeWidth" markerWidth="9" markerHeight="6" viewBox="-9 -3 9 6" orient="auto-start-reverse">
			<path d="M 0 -0 L -6 -2, -6 -0.5, -6 0.5, -6 2 Z" fill="#000000" stroke="#000000" stroke-linejoin="round" />
		</marker>
		<marker id="CustomMarker-03" markerUnits="strokeWidth" markerWidth="9" markerHeight="6" viewBox="-9 -3 9 6" orient="auto-start-reverse">
			<path d="M 0 -0 L -6 -2, -6 -0.5, -6 0.5, -6 2 Z" fill="#000000" stroke="#000000" stroke-linejoin="round" />
		</marker>
		<marker id="CustomMarker-04" markerUnits="strokeWidth" markerWidth="9" markerHeight="6" viewBox="-9 -3 9 6" orient="auto-start-reverse">
			<path d="M 0 -0 L -6 -2, -6 -0.5, -6 0.5, -6 2 Z" fill="#000000" stroke="#000000" stroke-linejoin="round" />
		</marker>
		<marker id="CustomMarker-05" markerUnits="strokeWidth" markerWidth="15.000001" markerHeight="9" viewBox="-15 -4.5 15 9" orient="auto-start-reverse">
			<path d="M 0 -0 L -10 -3, -8 -0.5, -8 0.5, -10 3 Z" fill="#000000" stroke="#000000" stroke-linejoin="round" />
		</marker>
	</defs>
	<path d="M -169.126 -158.854 L -169.126 -5.84227, -168.576 3.06024, -168.026 8.0679, -167.476 12.5192, -166.926 15.8576, -165.826 21.9781, -164.726 26.9857, -164.176 29.2114, -163.626 31.437, -162.526 35.3318, -161.426 39.2267, -160.876 40.8959, -160.326 42.5651, -158.126 48.6856, -157.026 51.4676, -155.926 54.2497, -153.726 59.2573, -148.776 69.2726, -144.376 77.0623, -142.176 80.4008, -138.876 85.4084, -136.126 89.3033, -134.476 91.5289, -132.276 94.3109, -130.075 97.093, -126.775 100.988, -120.175 108.221, -119.625 108.778, -111.925 116.011, -108.075 119.349, -105.325 121.575, -102.575 123.8, -100.375 125.47, -96.5254 128.252, -91.5753 131.59, -87.1753 134.372, -83.3253 136.598, -77.2753 139.936, -72.8753 142.162, -66.8253 144.944, -58.5752 148.282, -48.6752 151.621, -44.8252 152.734, -38.2251 154.403, -33.2751 155.516, -27.2251 156.629, -23.3751 157.185, -18.9751 157.741, -13.4751 158.298, -2.47501 158.854, 1.92501 158.854, 12.925 158.298, 18.9751 157.741, 23.3751 157.185, 27.2251 156.629, 33.2751 155.516, 38.2251 154.403, 40.4252 153.846, 42.6252 153.29, 48.6752 151.621, 58.5752 148.282, 66.8253 144.944, 72.8753 142.162, 80.5753 138.267, 87.1753 134.372, 91.5753 131.59, 96.5254 128.252, 100.375 125.47, 105.325 121.575, 108.075 119.349, 111.925 116.011, 119.625 108.778, 120.175 108.221, 126.775 100.988, 130.075 97.093, 132.276 94.3109, 134.476 91.5289, 136.126 89.3033, 138.876 85.4084, 143.276 78.7316, 144.926 75.9495, 146.576 73.1675, 148.776 69.2726, 153.726 59.2573, 155.926 54.2497, 157.026 51.4676, 158.126 48.6856, 160.876 40.8959, 161.426 39.2267, 162.526 35.3318, 163.626 31.437, 164.176 29.2114, 164.726 26.9857, 165.826 21.9781, 166.926 15.8576, 167.476 11.9627, 168.026 7.51149, 168.576 2.50383, 169.126 -5.28586, 169.126 -158.854, 167.476 -157.185, 165.826 -156.072, 162.526 -154.403, 160.876 -153.846, 159.226 -153.29, 157.026 -152.734, 153.726 -152.177, 143.276 -152.177, 139.426 -152.734, 134.476 -154.403, 131.725 -155.516, 130.075 -156.629, 127.875 -158.854, 127.875 -9.73712, 127.325 0.278203, 126.775 4.72946, 126.225 8.6243, 125.675 11.9627, 125.125 14.7448, 123.475 21.4217, 122.375 25.3165, 120.175 31.9934, 119.075 34.7754, 117.975 37.5575, 116.325 41.4523, 112.475 49.242, 107.525 57.5881, 106.425 59.2573, 105.325 60.9265, 102.575 64.8214, 100.375 67.6034, 98.1754 70.3855, 94.8754 74.2803, 85.5253 83.7392, 81.6753 87.0777, 78.9253 89.3033, 76.1753 91.5289, 72.3253 94.3109, 70.6753 95.4238, 66.2753 98.2058, 63.5252 99.875, 58.5752 102.657, 54.1752 104.883, 49.2252 107.108, 46.4752 108.221, 40.4252 110.447, 38.7751 111.003, 31.0751 113.229, 26.1251 114.342, 23.3751 114.898, 20.0751 115.454, 16.2251 116.011, 10.725 116.567, -10.725 116.567, -16.2251 116.011, -20.0751 115.454, -23.3751 114.898, -26.1251 114.342, -31.0751 113.229, -34.9251 112.116, -46.4752 108.221, -49.2252 107.108, -54.1752 104.883, -58.5752 102.657, -63.5252 99.875, -66.2753 98.2058, -70.6753 95.4238, -76.1753 91.5289, -78.9253 89.3033, -81.6753 87.0777, -85.5253 83.7392, -94.8754 74.2803, -98.1754 70.3855, -100.375 67.6034, -102.575 64.8214, -105.325 60.9265, -106.425 59.2573, -107.525 57.5881, -110.275 53.1368, -112.475 49.242, -116.325 41.4523, -117.975 37.5575, -119.075 34.7754, -120.175 31.9934, -122.375 25.3165, -123.475 21.4217, -125.125 14.7448, -125.675 11.9627, -126.225 8.6243, -126.775 4.72946, -127.325 0.278203, -127.875 -9.73712, -127.875 -158.854, -130.075 -156.629, -131.725 -155.516, -135.576 -153.846, -137.776 -153.29, -139.976 -152.734, -143.276 -152.177, -153.726 -152.177, -157.026 -152.734, -159.226 -153.29, -160.876 -153.846, -163.626 -154.959, -164.726 -155.516, -165.826 -156.072, -167.476 -157.185 Z" stroke="none" fill="#C91924" fill-opacity="0.392156839" transform="matrix(0.454545 0 -0 0.454545 176.644 210.638)" />
	<path d="M 170.708 -1.79844e-005 C 170.708 94.2794, 94.2794 170.708, 5.57427e-005 170.708, -94.2794 170.708, -170.708 94.2795, -170.708 7.91272e-005" fill="none" stroke="#000000" stroke-width="2.9333334" stroke-linecap="round" stroke-linejoin="round" transform="matrix(0.454545 0 0 0.454545 176.619 205.905)" />
	<path d="M 125.973 -1.07042e-005 C 125.973 69.5731, 69.5731 125.973, 4.33292e-005 125.973, -69.5731 125.973, -125.973 69.5732, -125.973 5.91719e-005" fill="none" stroke="#000000" stroke-width="2.9333334" stroke-linecap="round" stroke-linejoin="round" transform="matrix(0.454545 0 0 0.454545 176.619 205.905)" />
	<path d="M 0 -183.047 L 0 183.047" fill="none" stroke="#000000" stroke-width="2.9333334" stroke-linecap="round" stroke-linejoin="round" transform="matrix(0.454545 0 0 0.454545 119.358 122.702)" />
	<path d="M 0 -183.047 L 0 183.047" fill="none" stroke="#000000" stroke-width="2.9333334" stroke-linecap="round" stroke-linejoin="round" transform="matrix(0.454545 0 0 0.454545 99.0238 122.702)" />
	<path d="M 0 -183.047 L 0 183.047" fill="none" stroke="#000000" stroke-width="2.9333334" stroke-linecap="round" stroke-linejoin="round" transform="matrix(0.454545 0 0 0.454545 254.213 122.702)" />
	<path d="M 0 -183.047 L 0 183.047" fill="none" stroke="#000000" stroke-width="2.9333334" stroke-linecap="round" stroke-linejoin="round" transform="matrix(0.454545 0 0 0.454545 233.879 122.702)" />
	<path d="M 22.3679 -0 C 22.3679 6.52342, 12.3535 11.8117, -0 11.8117, -12.3535 11.8117, -22.3679 6.52342, -22.3679 -0, -22.3679 -6.52343, -12.3535 -11.8117, -0 -11.8117, 12.3535 -11.8117, 22.3679 -6.52343, 22.3679 -0 Z" fill="none" stroke="#000000" stroke-width="2.9333334" stroke-linecap="round" stroke-linejoin="round" transform="matrix(0.454545 0 0 0.454545 109.191 39.4986)" />
	<path d="M 22.3668 -0 C 22.3668 6.52342, 12.3529 11.8117, -0 11.8117, -12.3529 11.8117, -22.3668 6.52342, -22.3668 -0, -22.3668 -6.52343, -12.3529 -11.8117, -0 -11.8117, 12.3529 -11.8117, 22.3668 -6.52343, 22.3668 -0 Z" fill="none" stroke="#000000" stroke-width="2.9333334" stroke-linecap="round" stroke-linejoin="round" transform="matrix(0.454545 0 0 0.454545 244.046 39.4986)" />
	<path d="M -125.973 0 L 125.973 0" fill="none" stroke="#000000" stroke-width="2.9333334" stroke-linecap="round" stroke-linejoin="round" stroke-dasharray="10.2813, 7.31867" transform="matrix(0.454545 0 0 0.454545 176.619 103.306)" />
	<path d="M 22.3679 -0 C 22.3679 6.52316, 12.3535 11.8112, -0 11.8112, -12.3535 11.8112, -22.3679 6.52316, -22.3679 -0, -22.3679 -6.52316, -12.3535 -11.8112, -0 -11.8112, 12.3535 -11.8112, 22.3679 -6.52316, 22.3679 -0 Z" stroke="none" fill="#781226" fill-opacity="0.329411745" transform="matrix(0.454545 0 0 0.454545 244.046 136.99)" />
	<path d="M 22.3679 -0 C 22.3679 6.52316, 12.3535 11.8112, -0 11.8112, -12.3535 11.8112, -22.3679 6.52316, -22.3679 -0, -22.3679 -6.52316, -12.3535 -11.8112, -0 -11.8112, 12.3535 -11.8112, 22.3679 -6.52316, 22.3679 -0 Z" fill="none" stroke="#000000" stroke-width="2.9333334" stroke-linecap="round" stroke-linejoin="round" transform="matrix(0.454545 0 0 0.454545 244.046 136.99)" />
	<path d="M -125.973 0 L 125.973 0" fill="none" stroke="#000000" stroke-width="2.9333334" stroke-linecap="round" stroke-linejoin="round" stroke-dasharray="10.2813, 7.31867" transform="matrix(0.454545 0 0 0.454545 176.644 69.6219)" />
	<path d="M -125.973 0 L 125.973 0" fill="none" stroke="#000000" stroke-width="2.9333334" stroke-linecap="round" stroke-linejoin="round" stroke-dasharray="10.2813, 7.31867" transform="matrix(0.454545 0 0 0.454545 176.619 136.99)" />
	<path d="M -37.0525 0 L 37.0525 0" fill="none" stroke="#000000" stroke-width="2.9333334" stroke-linecap="round" stroke-linejoin="round" marker-start="url(#CustomMarker-01)" marker-end="url(#CustomMarker-02)" transform="matrix(3.43172e-008 0.454545 -0.454545 3.43172e-008 133.88 86.4639)" />
	<g transform="matrix(1 0 -0 1 143.103 72.3347)">
		<svg width="30.0150681" height="41.9571342">
			<defs />
			<path d="M 6.58759 16.7693 C 6.45591 17.2823, 6.24809 17.7724, 5.96527 18.2395, 5.68245 18.7067, 5.34868 19.1223, 4.9651 19.4853, 4.58151 19.8488, 4.15099 20.1437, 3.67294 20.3693, 3.19489 20.5954, 2.69796 20.7082, 2.18155 20.7082, 1.87354 20.7082, 1.59072 20.6521, 1.33252 20.5387, 1.07489 20.4259, 0.864208 20.2731, 0.70047 20.0807, 0.536732 19.8883, 0.42681 19.6611, 0.370132 19.3983, 0.344941 19.2826, 0.332346 19.1635, 0.332346 19.041, 0.332346 18.8824, 0.351239 18.7204, 0.389025 18.5555, 0.458298 18.2807, 0.599708 18.0746, 0.813827 17.9372, 1.02795 17.7998, 1.23863 17.7311, 1.44588 17.7311, 1.66629 17.7311, 1.85179 17.8015, 2.00236 17.9418, 2.10942 18.046, 2.16266 18.18, 2.16266 18.3449, 2.16266 18.4124, 2.15006 18.4949, 2.12487 18.5922, 2.05617 18.867, 1.91476 19.0731, 1.70064 19.2105, 1.48653 19.3479, 1.31706 19.4166, 1.19111 19.4166, 1.2289 19.5815, 1.34683 19.7361, 1.54492 19.8792, 1.74301 20.0229, 1.99606 20.0944, 2.30407 20.0944, 2.64414 20.0944, 2.96188 20.0028, 3.2573 19.8196, 3.55329 19.6364, 3.82408 19.3908, 4.06912 19.0823, 4.31415 18.7742, 4.52942 18.417, 4.71491 18.0105, 4.9004 17.6046, 5.04983 17.1787, 5.16318 16.7327 L 5.21986 16.5128 C 5.12597 16.5987, 4.92788 16.7103, 4.6256 16.8472, 4.32388 16.9846, 3.99355 17.0533, 3.63458 17.0533, 3.20749 17.0533, 2.82505 16.9743, 2.48842 16.8151, 2.15178 16.6571, 1.88614 16.4126, 1.69091 16.0823, 1.50256 15.7285, 1.41153 15.338, 1.41725 14.9098 L 1.41725 14.8365 C 1.42985 14.3911, 1.48653 13.9486, 1.58729 13.5083, 1.68805 13.0875, 1.83461 12.6238, 2.0264 12.1165, 2.21819 11.6099, 2.40197 11.1181, 2.57773 10.6412, 2.76666 10.1351, 2.86112 9.71943, 2.86112 9.39539, 2.86112 9.12116, 2.7449 8.98375, 2.51189 8.98318, 2.29834 8.98375, 2.10484 9.04501, 1.93194 9.16696, 1.75904 9.28947, 1.6016 9.45894, 1.46019 9.67535, 1.31878 9.89233, 1.19111 10.1488, 1.07775 10.4448, 0.964397 10.7414, 0.870505 11.0568, 0.794934 11.3923, 0.72566 11.5578, 0.609441 11.6431, 0.445703 11.6488 L 0.228722 11.6488 C 0.0775793 11.6494, 0.00200802 11.5732, 0.00200802 11.4198 L 0.00200802 11.3557 C 0.0901745 11.0202, 0.206967 10.6772, 0.351239 10.3257, 0.496084 9.97477, 0.678715 9.65588, 0.898558 9.36848, 1.11897 9.08165, 1.37088 8.84349, 1.6537 8.65399, 1.93652 8.46506, 2.26056 8.37002, 2.62525 8.36945, 2.94013 8.37002, 3.20863 8.43758, 3.43191 8.57155, 3.65519 8.70609, 3.82523 8.88471, 3.94145 9.10742, 4.05824 9.33069, 4.12236 9.58203, 4.13496 9.86256 L 4.13496 9.92668 C 4.13496 10.19, 4.08171 10.4614, 3.97408 10.7419, 3.79202 11.2188, 3.61168 11.706, 3.43191 12.2035, 3.25272 12.7016, 3.11303 13.1488, 3.01226 13.5455, 2.9115 13.9428, 2.84223 14.3361, 2.80444 14.7266, 2.77925 14.8308, 2.76379 14.9442, 2.7575 15.0655, 2.7575 15.3043, 2.79872 15.5396, 2.88001 15.7709, 2.93669 15.9792, 3.04032 16.1441, 3.19146 16.2661, 3.3426 16.3886, 3.5218 16.4493, 3.72905 16.4487, 4.13209 16.4493, 4.48419 16.3302, 4.7859 16.092, 5.08818 15.8539, 5.35211 15.5424, 5.57825 15.1571 L 7.09712 9.24883 C 7.15437 9.02326, 7.26887 8.85723, 7.44177 8.75017, 7.61467 8.64368, 7.78929 8.58987, 7.96505 8.58929, 8.14768 8.58987, 8.29882 8.64483, 8.41847 8.75418, 8.50034 8.83433, 8.54099 8.94081, 8.54099 9.07478, 8.54099 9.14234, 8.53469 9.21276, 8.5221 9.28547 Z" stroke="none" fill="#000000" />
			<rect />
		</svg>
	</g>
	<path d="M -37.0529 0 L 37.0529 0" fill="none" stroke="#000000" stroke-width="2.9333334" stroke-linecap="round" stroke-linejoin="round" marker-start="url(#CustomMarker-03)" marker-end="url(#CustomMarker-04)" transform="matrix(3.43172e-008 0.454545 -0.454545 3.43172e-008 219.408 120.148)" />
	<g transform="matrix(1 0 -0 1 201.645 106.653)">
		<svg width="30.0150681" height="41.9571342">
			<defs />
			<path d="M 6.58759 16.7693 C 6.45591 17.2823, 6.24809 17.7724, 5.96527 18.2395, 5.68245 18.7067, 5.34868 19.1223, 4.9651 19.4853, 4.58151 19.8488, 4.15099 20.1437, 3.67294 20.3693, 3.19489 20.5954, 2.69796 20.7082, 2.18155 20.7082, 1.87354 20.7082, 1.59072 20.6521, 1.33252 20.5387, 1.07489 20.4259, 0.864208 20.2731, 0.70047 20.0807, 0.536732 19.8883, 0.42681 19.6611, 0.370132 19.3983, 0.344941 19.2826, 0.332346 19.1635, 0.332346 19.041, 0.332346 18.8824, 0.351239 18.7204, 0.389025 18.5555, 0.458298 18.2807, 0.599708 18.0746, 0.813827 17.9372, 1.02795 17.7998, 1.23863 17.7311, 1.44588 17.7311, 1.66629 17.7311, 1.85179 17.8015, 2.00236 17.9418, 2.10942 18.046, 2.16266 18.18, 2.16266 18.3449, 2.16266 18.4124, 2.15006 18.4949, 2.12487 18.5922, 2.05617 18.867, 1.91476 19.0731, 1.70064 19.2105, 1.48653 19.3479, 1.31706 19.4166, 1.19111 19.4166, 1.2289 19.5815, 1.34683 19.7361, 1.54492 19.8792, 1.74301 20.0229, 1.99606 20.0944, 2.30407 20.0944, 2.64414 20.0944, 2.96188 20.0028, 3.2573 19.8196, 3.55329 19.6364, 3.82408 19.3908, 4.06912 19.0823, 4.31415 18.7742, 4.52942 18.417, 4.71491 18.0105, 4.9004 17.6046, 5.04983 17.1787, 5.16318 16.7327 L 5.21986 16.5128 C 5.12597 16.5987, 4.92788 16.7103, 4.6256 16.8472, 4.32388 16.9846, 3.99355 17.0533, 3.63458 17.0533, 3.20749 17.0533, 2.82505 16.9743, 2.48842 16.8151, 2.15178 16.6571, 1.88614 16.4126, 1.69091 16.0823, 1.50256 15.7285, 1.41153 15.338, 1.41725 14.9098 L 1.41725 14.8365 C 1.42985 14.3911, 1.48653 13.9486, 1.58729 13.5083, 1.68805 13.0875, 1.83461 12.6238, 2.0264 12.1165, 2.21819 11.6099, 2.40197 11.1181, 2.57773 10.6412, 2.76666 10.1351, 2.86112 9.71943, 2.86112 9.39539, 2.86112 9.12116, 2.7449 8.98375, 2.51189 8.98318, 2.29834 8.98375, 2.10484 9.04501, 1.93194 9.16696, 1.75904 9.28947, 1.6016 9.45894, 1.46019 9.67535, 1.31878 9.89233, 1.19111 10.1488, 1.07775 10.4448, 0.964397 10.7414, 0.870505 11.0568, 0.794934 11.3923, 0.72566 11.5578, 0.609441 11.6431, 0.445703 11.6488 L 0.228722 11.6488 C 0.0775793 11.6494, 0.00200802 11.5732, 0.00200802 11.4198 L 0.00200802 11.3557 C 0.0901745 11.0202, 0.206967 10.6772, 0.351239 10.3257, 0.496084 9.97477, 0.678715 9.65588, 0.898558 9.36848, 1.11897 9.08165, 1.37088 8.84349, 1.6537 8.65399, 1.93652 8.46506, 2.26056 8.37002, 2.62525 8.36945, 2.94013 8.37002, 3.20863 8.43758, 3.43191 8.57155, 3.65519 8.70609, 3.82523 8.88471, 3.94145 9.10742, 4.05824 9.33069, 4.12236 9.58203, 4.13496 9.86256 L 4.13496 9.92668 C 4.13496 10.19, 4.08171 10.4614, 3.97408 10.7419, 3.79202 11.2188, 3.61168 11.706, 3.43191 12.2035, 3.25272 12.7016, 3.11303 13.1488, 3.01226 13.5455, 2.9115 13.9428, 2.84223 14.3361, 2.80444 14.7266, 2.77925 14.8308, 2.76379 14.9442, 2.7575 15.0655, 2.7575 15.3043, 2.79872 15.5396, 2.88001 15.7709, 2.93669 15.9792, 3.04032 16.1441, 3.19146 16.2661, 3.3426 16.3886, 3.5218 16.4493, 3.72905 16.4487, 4.13209 16.4493, 4.48419 16.3302, 4.7859 16.092, 5.08818 15.8539, 5.35211 15.5424, 5.57825 15.1571 L 7.09712 9.24883 C 7.15437 9.02326, 7.26887 8.85723, 7.44177 8.75017, 7.61467 8.64368, 7.78929 8.58987, 7.96505 8.58929, 8.14768 8.58987, 8.29882 8.64483, 8.41847 8.75418, 8.50034 8.83433, 8.54099 8.94081, 8.54099 9.07478, 8.54099 9.14234, 8.53469 9.21276, 8.5221 9.28547 Z" stroke="none" fill="#000000" />
			<rect />
		</svg>
	</g>
	<path d="M 22.3679 -0 C 22.3679 6.52316, 12.3535 11.8112, -0 11.8112, -12.3535 11.8112, -22.3679 6.52316, -22.3679 -0, -22.3679 -6.52316, -12.3535 -11.8112, -0 -11.8112, 12.3535 -11.8112, 22.3679 -6.52316, 22.3679 -0 Z" stroke="none" fill="#781226" fill-opacity="0.329411745" transform="matrix(0.454545 0 0 0.454545 109.191 136.99)" />
	<path d="M 22.3679 -0 C 22.3679 6.52316, 12.3535 11.8112, -0 11.8112, -12.3535 11.8112, -22.3679 6.52316, -22.3679 -0, -22.3679 -6.52316, -12.3535 -11.8112, -0 -11.8112, 12.3535 -11.8112, 22.3679 -6.52316, 22.3679 -0 Z" fill="none" stroke="#000000" stroke-width="2.9333334" stroke-linecap="round" stroke-linejoin="round" transform="matrix(0.454545 0 0 0.454545 109.191 136.99)" />
	<path d="M 22.3679 -74.0061 C 22.3679 -67.6752, 12.3535 -62.5429, -0 -62.5429, -12.3535 -62.5429, -22.3679 -67.6752, -22.3679 -74.0061, -22.3679 -80.3371, -12.3535 -85.4694, -0 -85.4694, 12.3535 -85.4694, 22.3679 -80.3371, 22.3679 -74.0061 Z" stroke="none" fill="#74D2AB" fill-opacity="0.392156839" transform="matrix(0.454545 0 -0 0.454545 109.191 103.306)" />
	<path d="M 22.3679 74.0061 C 22.3679 80.3371, 12.3535 85.4694, 4.98883e-006 85.4694, -12.3535 85.4694, -22.3679 80.3371, -22.3679 74.0061, -22.3679 74.0061, -22.3679 74.0061, -22.3679 74.0061 L -22.3679 -74.0061 C -22.3679 -67.6752, -12.3535 -62.5429, -2.68388e-007 -62.5429, 12.3535 -62.5429, 22.3679 -67.6752, 22.3679 -74.0061, 22.3679 -74.0061, 22.3679 -74.0061, 22.3679 -74.0061 Z" stroke="none" fill="#74D2AB" fill-opacity="0.392156839" transform="matrix(0.454545 0 -0 0.454545 109.191 103.306)" />
	<path d="M 22.3679 74.0061 C 22.3679 80.3371, 12.3535 85.4694, 4.98883e-006 85.4694, -12.3535 85.4694, -22.3679 80.3371, -22.3679 74.0061, -22.3679 74.0061, -22.3679 74.0061, -22.3679 74.0061 L -22.3679 -74.0061 C -22.3679 -80.3371, -12.3535 -85.4694, -1.57784e-005 -85.4694, 12.3534 -85.4694, 22.3679 -80.3371, 22.3679 -74.0061, 22.3679 -74.0061, 22.3679 -74.0061, 22.3679 -74.0061 Z" fill="none" stroke="#000000" stroke-width="2.9333334" stroke-linecap="round" stroke-linejoin="round" transform="matrix(0.454545 0 -0 0.454545 109.191 103.306)" />
	<path d="M 22.3679 -74.0061 C 22.3679 -67.6752, 12.3535 -62.5429, 4.98883e-006 -62.5429, -12.3535 -62.5429, -22.3679 -67.6752, -22.3679 -74.0061, -22.3679 -74.0061, -22.3679 -74.0061, -22.3679 -74.0061" fill="none" stroke="#000000" stroke-width="2.9333334" stroke-linecap="round" stroke-linejoin="round" transform="matrix(0.454545 0 -0 0.454545 109.191 103.306)" />
	<path d="M 0 -47.4442 L 0 47.4436" fill="none" stroke="#000000" stroke-width="2.9333334" stroke-linecap="round" stroke-linejoin="round" marker-end="url(#CustomMarker-05)" transform="matrix(0.454545 0 0 0.454545 87.9426 136.99)" />
	<g transform="matrix(1 0 -0 1 9.01413 124.738)">
		<svg width="212.945679" height="62.9142723">
			<defs />
			<path d="M 9.12989 13.3016 C 8.98562 13.8518, 8.76234 14.3865, 8.46006 14.9052, 8.15834 15.4245, 7.77476 15.8974, 7.30874 16.3245, 6.88737 16.7035, 6.42192 17.0138, 5.91239 17.2548, 5.40285 17.4958, 4.89332 17.6161, 4.38379 17.6161, 3.91204 17.6161, 3.51472 17.4913, 3.19068 17.2411, 2.86664 16.9909, 2.65767 16.7648, 2.56321 16.5627 L 1.4783 20.7672 C 1.42162 21.0053, 1.30368 21.1828, 1.12449 21.2985, 0.945294 21.4147, 0.761518 21.4725, 0.57259 21.4725, 0.390532 21.4725, 0.239389 21.4084, 0.119162 21.2801, 0.0378659 21.2011, -0.00335479 21.0849, -0.00335479 20.9321, -0.00335479 20.8771, 0.0029428 20.8101, 0.015538 20.7305 L 1.93116 13.265 C 2.0823 12.716, 2.30214 12.1818, 2.59126 11.6625, 2.88095 11.1439, 3.2548 10.667, 3.71395 10.233, 4.117 9.85513, 4.56642 9.54369, 5.06336 9.29923, 5.56029 9.05534, 6.06067 8.93282, 6.56333 8.93225, 7.08546 8.93282, 7.54347 9.05648, 7.93621 9.30381, 8.32952 9.55113, 8.63925 9.86086, 8.86539 10.233, 9.12989 10.6733, 9.27817 11.1587, 9.30909 11.6895 L 9.30909 11.9276 C 9.30909 12.3742, 9.24955 12.8322, 9.12989 13.3016 Z M 7.62992 10.5536 C 7.52916 10.249, 7.38488 10.0046, 7.19596 9.82136, 7.00703 9.63815, 6.75856 9.54655, 6.45055 9.54598, 6.13624 9.54655, 5.82021 9.64273, 5.50247 9.8351, 5.18473 10.0275, 4.90019 10.2765, 4.64829 10.5811, 4.32138 10.9784, 4.0649 11.4078, 3.87941 11.8687, 3.69391 12.3301, 3.53819 12.8076, 3.41224 13.3016 L 2.87465 15.3627 C 2.89984 15.4612, 2.92503 15.5648, 2.95022 15.6747, 2.97541 15.7846, 3.00976 15.8882, 3.05385 15.9856, 3.19239 16.2856, 3.37903 16.5312, 3.61491 16.7235, 3.85078 16.9159, 4.13875 17.0121, 4.47825 17.0115, 4.79313 17.0121, 5.09828 16.9148, 5.39369 16.719, 5.68911 16.5237, 5.96277 16.2793, 6.21467 15.9856, 6.54158 15.5768, 6.78833 15.1423, 6.95493 14.6808, 7.1221 14.2199, 7.26809 13.7482, 7.39404 13.265, 7.52 12.7646, 7.62362 12.2763, 7.70492 11.7994, 7.73011 11.6288, 7.7427 11.4673, 7.7427 11.3139, 7.7427 11.046, 7.70549 10.7923, 7.62992 10.5536 Z" stroke="none" fill="#000000" />
			<path d="M 17.2352 18.5504 C 17.1287 18.9477, 16.9444 19.3141, 16.6833 19.6496, 16.4223 19.9857, 16.1188 20.2725, 15.773 20.5107, 15.4272 20.7489, 15.0471 20.9355, 14.632 21.0695, 14.217 21.204, 13.8019 21.271, 13.3862 21.271, 13.1034 21.271, 12.8017 21.259, 12.4811 21.2343, 12.1605 21.2103, 11.8697 21.1508, 11.6086 21.0557, 11.3475 20.9613, 11.1512 20.813, 11.0189 20.6114, 10.9181 20.4895, 10.8649 20.3338, 10.8586 20.1443, 10.8586 20.0527, 10.8712 19.9462, 10.8964 19.8237, 10.9657 19.5489, 11.1071 19.3445, 11.3206 19.2099, 11.5347 19.076, 11.7483 19.0084, 11.9618 19.0084, 12.1823 19.0084, 12.3649 19.0788, 12.5092 19.2191, 12.6162 19.3233, 12.6695 19.4573, 12.6695 19.6222, 12.6695 19.6897, 12.6569 19.7687, 12.6317 19.8603, 12.5882 20.0561, 12.5063 20.2164, 12.3866 20.3412, 12.2676 20.4666, 12.2011 20.529, 12.1885 20.529, 12.2263 20.5473, 12.3729 20.5737, 12.6271 20.6069, 12.8819 20.6406, 13.1698 20.6572, 13.4904 20.6572, 13.7481 20.6572, 13.9983 20.6011, 14.2404 20.4878, 14.4826 20.375, 14.7076 20.2176, 14.9148 20.016, 15.1221 19.8145, 15.3047 19.5855, 15.4616 19.329, 15.619 19.0725, 15.7352 18.8012, 15.8108 18.5138 L 16.3106 16.5535 C 16.1663 16.6943, 15.9081 16.8718, 15.5372 17.0854, 15.1662 17.2995, 14.7797 17.4054, 14.3767 17.4054, 13.8929 17.4054, 13.4767 17.2857, 13.1275 17.0441, 12.7782 16.8031, 12.5092 16.4928, 12.3202 16.1138, 12.0941 15.6747, 11.9744 15.1984, 11.9618 14.6848 L 11.9618 14.5749 C 11.9618 14.1054, 12.0248 13.6291, 12.1508 13.1459, 12.283 12.6089, 12.4874 12.0919, 12.7639 11.5938, 13.041 11.0963, 13.4023 10.6303, 13.8488 10.1964, 14.2135 9.83052, 14.6269 9.52823, 15.0889 9.29007, 15.5515 9.0519, 16.0215 8.93282, 16.4995 8.93225, 16.9083 8.93282, 17.2484 9.0416, 17.5186 9.25801, 17.7888 9.47499, 17.9617 9.65647, 18.0367 9.80246 L 17.9898 9.97651 C 18.0465 9.75094, 18.161 9.58319, 18.3339 9.47327, 18.5068 9.36335, 18.6814 9.30839, 18.8577 9.30782, 19.0403 9.30839, 19.1915 9.36621, 19.3106 9.48186, 19.3924 9.56201, 19.4331 9.67193, 19.4331 9.81162, 19.4331 9.87918, 19.4268 9.94674, 19.4142 10.0131 Z M 17.6783 11.204 C 17.6657 11.0883, 17.6469 10.9755, 17.6217 10.8656, 17.5965 10.7557, 17.5684 10.6458, 17.5369 10.5353, 17.4362 10.249, 17.293 10.0126, 17.1076 9.82594, 16.9221 9.63987, 16.6879 9.54655, 16.4051 9.54598, 16.1412 9.54655, 15.8801 9.64159, 15.6225 9.83052, 15.3648 10.02, 15.129 10.2582, 14.9148 10.5444, 14.6257 10.9418, 14.4059 11.3648, 14.2547 11.8137, 14.1036 12.2625, 13.9622 12.7188, 13.8299 13.1826, 13.7166 13.6595, 13.6193 14.1238, 13.5374 14.5749, 13.487 14.7953, 13.4618 15.0089, 13.4618 15.2161, 13.4618 15.4365, 13.487 15.6472, 13.5374 15.8482, 13.5941 16.1235, 13.7011 16.3525, 13.858 16.5358, 14.0154 16.719, 14.2261 16.8106, 14.49 16.81, 14.7797 16.8106, 15.0688 16.7115, 15.358 16.5129, 15.6477 16.3148, 15.9179 16.0749, 16.1692 15.7932, 16.3518 15.5802, 16.5247 15.3478, 16.6879 15.097 L 17.6783 11.204 Z" stroke="none" fill="#000000" />
			<path d="M 37.494 17.3297 L 29.9691 17.3297, 29.9691 16.836 C 29.9691 16.8007, 29.9876 16.7468, 30.0246 16.6744 L 33.0476 13.3888 C 33.4055 12.9944, 33.7674 12.5905, 34.1344 12.1775, 34.5013 11.7646, 34.8289 11.3427, 35.1185 10.9118, 35.408 10.4809, 35.6391 10.0365, 35.8119 9.57869, 35.9847 9.12087, 36.0706 8.6406, 36.0706 8.13733, 36.0706 7.71317, 36.0156 7.3165, 35.9045 6.94845, 35.7934 6.58039, 35.6335 6.25722, 35.4237 5.97893, 35.2138 5.70065, 34.9518 5.47622, 34.6376 5.30566, 34.3234 5.1351, 33.9599 5.04982, 33.5469 5.04926, 32.9309 5.04982, 32.3867 5.23385, 31.9154 5.6019, 31.4441 5.96996, 31.131 6.3756, 30.9767 6.81772, 30.9464 6.83006, 30.9958 6.83623, 31.1248 6.83567 L 31.2819 6.83567 C 31.4671 6.87831, 31.627 6.94283, 31.7628 7.02924, 31.8985 7.1162, 32.0124 7.23571, 32.105 7.38832, 32.1976 7.54092, 32.2436 7.72495, 32.2436 7.93984, 32.2436 8.29948, 32.1269 8.57496, 31.8924 8.76628, 31.6578 8.95816, 31.3958 9.05354, 31.1063 9.05298, 30.8292 9.05354, 30.5705 8.95816, 30.3298 8.76628, 30.0897 8.57496, 29.9691 8.29948, 29.9691 7.93984, 29.9691 7.43769, 30.0678 6.96191, 30.2653 6.51306, 30.4628 6.06422, 30.7304 5.6754, 31.0693 5.34606, 31.4082 5.01728, 31.8088 4.75695, 32.2711 4.56506, 32.7334 4.37374, 33.2238 4.2778, 33.7411 4.27724, 34.3818 4.2778, 34.9692 4.37206, 35.5022 4.56058, 36.0352 4.74909, 36.4897 5.02008, 36.8656 5.37299, 37.2415 5.72646, 37.5361 6.13491, 37.7487 6.59834, 37.9613 7.06234, 38.0674 7.57515, 38.0674 8.13733, 38.0674 8.76011, 37.926 9.33351, 37.6421 9.85698, 37.3588 10.381, 37.0075 10.8613, 36.5884 11.2978, 36.1693 11.7348, 35.7238 12.1461, 35.2526 12.5321, 34.7813 12.9181, 34.3543 13.2935, 33.9722 13.6582 L 31.8458 15.66, 34.6287 15.66 C 35.0169 15.6606, 35.3793 15.6578, 35.7149 15.6516, 36.0509 15.646, 36.336 15.6336, 36.5699 15.6157, 36.8044 15.5977, 36.9245 15.586, 36.9301 15.5792, 36.9795 15.5377, 37.0261 15.4541, 37.0693 15.3284, 37.1125 15.2028, 37.1523 15.0546, 37.1893 14.8841, 37.2264 14.7135, 37.2634 14.5401, 37.3004 14.3634, 37.3374 14.1872, 37.3711 13.9937, 37.402 13.7838 L 38.0859 13.7838 Z" stroke="none" fill="#000000" />
			<path d="M 46.3131 17.3321 C 46.1814 17.8451, 45.9736 18.3351, 45.6907 18.8023, 45.4079 19.2695, 45.0741 19.6851, 44.6906 20.0481, 44.307 20.4116, 43.8765 20.7065, 43.3984 20.9321, 42.9204 21.1582, 42.4234 21.271, 41.9076 21.271, 41.5996 21.271, 41.3168 21.2149, 41.0591 21.1015, 40.8015 20.9887, 40.5908 20.8359, 40.4271 20.6435, 40.2633 20.4511, 40.1534 20.2239, 40.0967 19.9611, 40.0716 19.8454, 40.059 19.7263, 40.059 19.6038, 40.059 19.4452, 40.0779 19.2832, 40.1156 19.1183, 40.1849 18.8435, 40.3263 18.6374, 40.5399 18.5, 40.754 18.3626, 40.9647 18.2939, 41.1719 18.2939, 41.3923 18.2939, 41.5778 18.3643, 41.7284 18.5046, 41.8355 18.6088, 41.8887 18.7428, 41.8887 18.9077, 41.8887 18.9752, 41.8761 19.0577, 41.8509 19.155, 41.7822 19.4298, 41.6408 19.6359, 41.4267 19.7733, 41.2131 19.9107, 41.0431 19.9794, 40.9172 19.9794, 40.9549 20.1443, 41.0729 20.2989, 41.271 20.442, 41.4691 20.5857, 41.7227 20.6572, 42.0307 20.6572, 42.3702 20.6572, 42.6879 20.5656, 42.9833 20.3824, 43.2788 20.1992, 43.5496 19.9536, 43.7946 19.6451, 44.0396 19.337, 44.2549 18.9798, 44.4404 18.5733, 44.6259 18.1674, 44.7753 17.7415, 44.8887 17.2955 L 44.9453 17.0756 C 44.8514 17.1615, 44.6534 17.2731, 44.3511 17.41, 44.0494 17.5474, 43.719 17.6161, 43.3606 17.6161, 42.933 17.6161, 42.5511 17.5371, 42.2145 17.3779, 41.8778 17.2199, 41.6122 16.9754, 41.4175 16.6451, 41.2286 16.2913, 41.1376 15.9008, 41.1439 15.4726 L 41.1439 15.3993 C 41.1565 14.9539, 41.2131 14.5114, 41.3133 14.0711, 41.4141 13.6503, 41.5607 13.1866, 41.7524 12.6793, 41.9442 12.1727, 42.128 11.6809, 42.3038 11.204, 42.4927 10.6979, 42.5872 10.2822, 42.5872 9.95819, 42.5872 9.68396, 42.4709 9.54655, 42.2379 9.54598, 42.0244 9.54655, 41.8309 9.60781, 41.658 9.72976, 41.4851 9.85227, 41.3282 10.0217, 41.1862 10.2381, 41.0448 10.4551, 40.9177 10.7116, 40.8044 11.0076, 40.691 11.3042, 40.5965 11.6196, 40.521 11.9551, 40.4523 12.1206, 40.3361 12.2059, 40.1723 12.2116 L 39.9553 12.2116 C 39.8042 12.2122, 39.7286 12.136, 39.7286 11.9826 L 39.7286 11.9185 C 39.8168 11.583, 39.9336 11.24, 40.0779 10.8885, 40.2227 10.5376, 40.4053 10.2187, 40.6252 9.93128, 40.845 9.64445, 41.0969 9.40629, 41.3797 9.21679, 41.6626 9.02786, 41.9866 8.93282, 42.3513 8.93225, 42.6662 8.93282, 42.9347 9.00038, 43.158 9.13435, 43.3812 9.26889, 43.5507 9.44751, 43.6669 9.67021, 43.7837 9.89349, 43.8478 10.1448, 43.8604 10.4254 L 43.8604 10.4895 C 43.8604 10.7528, 43.8072 11.0242, 43.7001 11.3047, 43.5181 11.7816, 43.3372 12.2688, 43.158 12.7663, 42.9788 13.2644, 42.8391 13.7116, 42.7383 14.1083, 42.6375 14.5056, 42.5683 14.8989, 42.5305 15.2894, 42.5053 15.3936, 42.4898 15.507, 42.483 15.6283, 42.483 15.8671, 42.5242 16.1024, 42.6061 16.3337, 42.6627 16.542, 42.7664 16.7069, 42.9175 16.8289, 43.0686 16.9514, 43.2478 17.0121, 43.4551 17.0115, 43.8576 17.0121, 44.2097 16.893, 44.5114 16.6548, 44.8137 16.4167, 45.0776 16.1052, 45.3037 15.7199 L 46.8226 9.81162 C 46.8793 9.58606, 46.9938 9.42003, 47.1667 9.31297, 47.3396 9.20648, 47.5142 9.15267, 47.6899 9.15209, 47.8726 9.15267, 48.0237 9.20763, 48.1428 9.31698, 48.2252 9.39713, 48.2659 9.50361, 48.2659 9.63758, 48.2659 9.70514, 48.2596 9.77556, 48.247 9.84827 Z" stroke="none" fill="#000000" />
			<path d="M 1.5467 8.95625 C -4.56906 4.92594, -4.56906 -4.92594, 1.5467 -8.95625 L 2.50721 -8.95625 C -3.00823 -4.92594, -3.00823 4.92594, 2.50721 8.95625" stroke="none" fill="#000000" transform="matrix(1 0 -0 1 26.4184 11.7703)" />
			<path d="M 1.5467 8.95625 C -4.56906 4.92594, -4.56906 -4.92594, 1.5467 -8.95625 L 2.50721 -8.95625 C -3.00823 -4.92594, -3.00823 4.92594, 2.50721 8.95625" stroke="none" fill="#000000" transform="matrix(-1 1.50996e-007 -1.50996e-007 -1 51.9506 11.7703)" />
			<path d="M 68.4019 8.55668 C 68.3641 8.72844, 68.2702 8.81374, 68.119 8.81317, 68.1065 8.82576, 68.075 8.83206, 68.0246 8.83149, 67.9937 8.83206, 67.9685 8.82576, 67.949 8.81317 L 67.8643 8.81317 C 67.7011 8.81374, 67.6193 8.75248, 67.6193 8.62996 L 67.6193 8.56584 C 67.6948 8.11471, 67.732 7.6962, 67.732 7.3109 L 67.732 6.96282 C 67.6943 6.49336, 67.5889 6.08859, 67.416 5.74967, 67.2431 5.41074, 66.9901 5.14853, 66.6569 4.96189, 66.3237 4.77583, 65.9023 4.68251, 65.3928 4.68194, 65.0973 4.68251, 64.7973 4.74663, 64.4922 4.87487, 64.1871 5.00311, 63.9025 5.17716, 63.638 5.39643, 63.3495 5.63517, 63.1136 5.90539, 62.931 6.20768, 62.7489 6.50996, 62.6167 6.81969, 62.5348 7.13686, 62.4718 7.36357, 62.4375 7.57998, 62.4306 7.78723, 62.4306 8.07463, 62.4936 8.34943, 62.6195 8.61164, 62.8022 9.0519, 63.1291 9.33301, 63.6008 9.45438 L 65.77 10.0589 C 66.1662 10.1757, 66.5046 10.3607, 66.7845 10.6137, 67.0645 10.8673, 67.2752 11.1668, 67.4166 11.5114, 67.558 11.8566, 67.641 12.2333, 67.6662 12.6421 L 67.6662 12.807 C 67.6662 13.162, 67.6158 13.5249, 67.5151 13.8971, 67.3834 14.4106, 67.1727 14.9052, 66.883 15.3816, 66.5939 15.8579, 66.2355 16.2856, 65.8078 16.6634, 65.3991 17.0121, 64.9514 17.2915, 64.4636 17.5016, 63.9764 17.7123, 63.4874 17.8176, 62.9968 17.8176, 62.2737 17.8176, 61.6577 17.702, 61.1482 17.4695, 60.6386 17.2382, 60.2614 16.9451, 60.0158 16.5901 L 59.082 17.6985 C 59.0007 17.7781, 58.9154 17.8176, 58.8272 17.8176 L 58.7711 17.8176 C 58.6142 17.8176, 58.5289 17.7569, 58.5163 17.6344, 58.5163 17.5978, 58.5261 17.5646, 58.5444 17.5336 L 59.6385 13.2467 C 59.6763 13.0761, 59.7867 12.9879, 59.9688 12.981 L 60.1766 12.981 C 60.2522 12.9816, 60.3209 13.012, 60.3839 13.0726, 60.4091 13.1219, 60.4217 13.1648, 60.4217 13.2009, 60.4217 13.2261, 60.4154 13.2564, 60.4028 13.2925, 60.2894 13.7327, 60.2327 14.1421, 60.2327 14.5199, 60.2327 15.1251, 60.381 15.6381, 60.6764 16.0589, 61.1482 16.7373, 61.972 17.0762, 63.148 17.0756, 63.4434 17.0762, 63.7439 17.0075, 64.0485 16.8701, 64.3537 16.7327, 64.6382 16.5478, 64.9021 16.3153, 65.1918 16.0474, 65.4351 15.7497, 65.6332 15.4228, 65.8313 15.0965, 65.9779 14.7587, 66.0718 14.41, 66.1347 14.1295, 66.1662 13.8673, 66.1662 13.6222, 66.1662 13.3177, 66.1256 13.0245, 66.0437 12.7429, 65.8553 12.2734, 65.5061 11.9711, 64.9966 11.836 L 62.8554 11.2314 C 62.4718 11.1284, 62.1421 10.9589, 61.865 10.7236, 61.5884 10.4889, 61.3732 10.2095, 61.2192 9.88548, 61.0652 9.56201, 60.9753 9.20476, 60.9501 8.81317 L 60.9501 8.61164 C 60.9501 8.30707, 60.9879 7.98646, 61.0629 7.64983, 61.1951 7.16205, 61.4058 6.69488, 61.6949 6.2489, 61.9846 5.80348, 62.343 5.40902, 62.7707 5.06666, 63.1731 4.73747, 63.6151 4.47354, 64.096 4.27488, 64.5769 4.07679, 65.0533 3.97718, 65.525 3.97661, 66.1731 3.97718, 66.7072 4.09798, 67.1286 4.339, 67.55 4.5806, 67.8551 4.86571, 68.0435 5.19491 L 68.9492 4.10485 C 68.9996 4.02012, 69.0814 3.97718, 69.1942 3.97661 L 69.279 3.97661 C 69.4301 3.97718, 69.5057 4.05046, 69.5057 4.19645 L 69.5057 4.26973 Z" stroke="none" fill="#000000" />
			<rect />
		</svg>
	</g>
	<g transform="matrix(1 0 -0 1 104.443 9.19387)">
		<svg width="36.0612984" height="47.9999886">
			<defs />
			<path d="M 9.8841 7.99388 C 9.84631 8.16564, 9.75242 8.25094, 9.60128 8.25037, 9.58868 8.26296, 9.55719 8.26926, 9.50681 8.26869, 9.47532 8.26926, 9.45013 8.26296, 9.43124 8.25037 L 9.34651 8.25037 C 9.18277 8.25094, 9.1009 8.18968, 9.1009 8.06717 L 9.1009 8.00304 C 9.17647 7.55191, 9.21426 7.1334, 9.21426 6.7481 L 9.21426 6.40002 C 9.17647 5.93056, 9.07113 5.52579, 8.89823 5.18687, 8.72534 4.84794, 8.47229 4.58573, 8.13908 4.39909, 7.80588 4.21303, 7.38394 4.11971, 6.87441 4.11914, 6.579 4.11971, 6.27843 4.18383, 5.97328 4.31207, 5.66871 4.44032, 5.38417 4.61436, 5.11967 4.83363, 4.83055 5.07237, 4.59468 5.34259, 4.41205 5.64488, 4.22999 5.94716, 4.09774 6.25689, 4.0153 6.57406, 3.95289 6.80077, 3.91854 7.01718, 3.91167 7.22443, 3.91167 7.51183, 3.97465 7.78664, 4.1006 8.04884, 4.28323 8.4891, 4.61014 8.77021, 5.08188 8.89158 L 7.2517 9.49615 C 7.64787 9.61294, 7.98623 9.79786, 8.26618 10.0509, 8.54614 10.3045, 8.75682 10.604, 8.89823 10.9486, 9.04022 11.2938, 9.12323 11.6705, 9.14842 12.0793 L 9.14842 12.2442 C 9.14842 12.5992, 9.09804 12.9621, 8.99728 13.3343, 8.8656 13.8478, 8.65492 14.3424, 8.36523 14.8188, 8.07611 15.2951, 7.71772 15.7228, 7.28948 16.1006, 6.88071 16.4493, 6.43301 16.7287, 5.94523 16.9388, 5.45745 17.1495, 4.96853 17.2548, 4.47789 17.2548, 3.75481 17.2548, 3.13821 17.1392, 2.62868 16.9067, 2.11915 16.6754, 1.74186 16.3823, 1.49625 16.0273 L 0.562492 17.1357 C 0.481195 17.2153, 0.395891 17.2548, 0.307725 17.2548 L 0.251046 17.2548 C 0.0941787 17.2548, 0.00887477 17.1941, -0.0037204 17.0716, -0.0037204 17.035, 0.00601226 17.0018, 0.0243326 16.9708 L 1.11897 12.6839 C 1.15676 12.5133, 1.26725 12.4251, 1.44931 12.4182 L 1.65656 12.4182 C 1.73213 12.4188, 1.8014 12.4492, 1.86438 12.5098, 1.88957 12.5591, 1.90216 12.602, 1.90216 12.6381, 1.90216 12.6633, 1.89587 12.6936, 1.88327 12.7297, 1.76991 13.1699, 1.71324 13.5793, 1.71324 13.9571, 1.71324 14.5623, 1.86152 15.0753, 2.15693 15.4961, 2.62868 16.1745, 3.45309 16.5134, 4.62903 16.5128, 4.92444 16.5134, 5.22501 16.4447, 5.53016 16.3073, 5.83531 16.1699, 6.11984 15.985, 6.38377 15.7525, 6.67346 15.4846, 6.91678 15.1869, 7.11487 14.86, 7.31295 14.5337, 7.45952 14.1959, 7.55341 13.8472, 7.61638 13.5667, 7.64787 13.3045, 7.64787 13.0595, 7.64787 12.7549, 7.60722 12.4618, 7.52535 12.1801, 7.337 11.7106, 6.98777 11.4083, 6.47823 11.2732 L 4.33648 10.6686 C 3.95289 10.5656, 3.62256 10.3961, 3.34546 10.1608, 3.06894 9.9261, 2.85368 9.64672, 2.69967 9.32268, 2.54567 8.99921, 2.45578 8.64196, 2.43059 8.25037 L 2.43059 8.04884 C 2.43059 7.74427, 2.46838 7.42366, 2.54395 7.08703, 2.6762 6.59925, 2.88688 6.13208, 3.176 5.6861, 3.46569 5.24068, 3.82408 4.84622, 4.25117 4.50386, 4.65422 4.17467, 5.0962 3.91074, 5.5771 3.71208, 6.05859 3.514, 6.53491 3.41438, 7.00666 3.41381, 7.65474 3.41438, 8.18889 3.53518, 8.61026 3.7762, 9.03163 4.0178, 9.33678 4.30291, 9.5257 4.63211 L 10.4314 3.54205 C 10.4818 3.45732, 10.5637 3.41438, 10.6764 3.41381 L 10.7618 3.41381 C 10.9129 3.41438, 10.9879 3.48766, 10.9879 3.63365 L 10.9879 3.70693 Z" stroke="none" fill="#000000" />
			<rect />
		</svg>
	</g>
	<g transform="matrix(1 0 -0 1 239.299 9.19387)">
		<svg width="36.0612984" height="47.9999886">
			<defs />
			<path d="M 9.8841 7.99388 C 9.84631 8.16564, 9.75242 8.25094, 9.60128 8.25037, 9.58868 8.26296, 9.55719 8.26926, 9.50681 8.26869, 9.47532 8.26926, 9.45013 8.26296, 9.43124 8.25037 L 9.34651 8.25037 C 9.18277 8.25094, 9.1009 8.18968, 9.1009 8.06717 L 9.1009 8.00304 C 9.17647 7.55191, 9.21426 7.1334, 9.21426 6.7481 L 9.21426 6.40002 C 9.17647 5.93056, 9.07113 5.52579, 8.89823 5.18687, 8.72534 4.84794, 8.47229 4.58573, 8.13908 4.39909, 7.80588 4.21303, 7.38394 4.11971, 6.87441 4.11914, 6.579 4.11971, 6.27843 4.18383, 5.97328 4.31207, 5.66871 4.44032, 5.38417 4.61436, 5.11967 4.83363, 4.83055 5.07237, 4.59468 5.34259, 4.41205 5.64488, 4.22999 5.94716, 4.09774 6.25689, 4.0153 6.57406, 3.95289 6.80077, 3.91854 7.01718, 3.91167 7.22443, 3.91167 7.51183, 3.97465 7.78664, 4.1006 8.04884, 4.28323 8.4891, 4.61014 8.77021, 5.08188 8.89158 L 7.2517 9.49615 C 7.64787 9.61294, 7.98623 9.79786, 8.26618 10.0509, 8.54614 10.3045, 8.75682 10.604, 8.89823 10.9486, 9.04022 11.2938, 9.12323 11.6705, 9.14842 12.0793 L 9.14842 12.2442 C 9.14842 12.5992, 9.09804 12.9621, 8.99728 13.3343, 8.8656 13.8478, 8.65492 14.3424, 8.36523 14.8188, 8.07611 15.2951, 7.71772 15.7228, 7.28948 16.1006, 6.88071 16.4493, 6.43301 16.7287, 5.94523 16.9388, 5.45745 17.1495, 4.96853 17.2548, 4.47789 17.2548, 3.75481 17.2548, 3.13821 17.1392, 2.62868 16.9067, 2.11915 16.6754, 1.74186 16.3823, 1.49625 16.0273 L 0.562492 17.1357 C 0.481195 17.2153, 0.395891 17.2548, 0.307725 17.2548 L 0.251046 17.2548 C 0.0941787 17.2548, 0.00887477 17.1941, -0.0037204 17.0716, -0.0037204 17.035, 0.00601226 17.0018, 0.0243326 16.9708 L 1.11897 12.6839 C 1.15676 12.5133, 1.26725 12.4251, 1.44931 12.4182 L 1.65656 12.4182 C 1.73213 12.4188, 1.8014 12.4492, 1.86438 12.5098, 1.88957 12.5591, 1.90216 12.602, 1.90216 12.6381, 1.90216 12.6633, 1.89587 12.6936, 1.88327 12.7297, 1.76991 13.1699, 1.71324 13.5793, 1.71324 13.9571, 1.71324 14.5623, 1.86152 15.0753, 2.15693 15.4961, 2.62868 16.1745, 3.45309 16.5134, 4.62903 16.5128, 4.92444 16.5134, 5.22501 16.4447, 5.53016 16.3073, 5.83531 16.1699, 6.11984 15.985, 6.38377 15.7525, 6.67346 15.4846, 6.91678 15.1869, 7.11487 14.86, 7.31295 14.5337, 7.45952 14.1959, 7.55341 13.8472, 7.61638 13.5667, 7.64787 13.3045, 7.64787 13.0595, 7.64787 12.7549, 7.60722 12.4618, 7.52535 12.1801, 7.337 11.7106, 6.98777 11.4083, 6.47823 11.2732 L 4.33648 10.6686 C 3.95289 10.5656, 3.62256 10.3961, 3.34546 10.1608, 3.06894 9.9261, 2.85368 9.64672, 2.69967 9.32268, 2.54567 8.99921, 2.45578 8.64196, 2.43059 8.25037 L 2.43059 8.04884 C 2.43059 7.74427, 2.46838 7.42366, 2.54395 7.08703, 2.6762 6.59925, 2.88688 6.13208, 3.176 5.6861, 3.46569 5.24068, 3.82408 4.84622, 4.25117 4.50386, 4.65422 4.17467, 5.0962 3.91074, 5.5771 3.71208, 6.05859 3.514, 6.53491 3.41438, 7.00666 3.41381, 7.65474 3.41438, 8.18889 3.53518, 8.61026 3.7762, 9.03163 4.0178, 9.33678 4.30291, 9.5257 4.63211 L 10.4314 3.54205 C 10.4818 3.45732, 10.5637 3.41438, 10.6764 3.41381 L 10.7618 3.41381 C 10.9129 3.41438, 10.9879 3.48766, 10.9879 3.63365 L 10.9879 3.70693 Z" stroke="none" fill="#000000" />
			<rect />
		</svg>
	</g>
	<g transform="matrix(1 0 -0 1 129.596 206.442)">
		<svg width="287.944672" height="87.0856934">
			<defs />
			<path d="M 9.12581 13.3016 C 8.98154 13.8518, 8.75826 14.3865, 8.45654 14.9052, 8.15483 15.4245, 7.77125 15.8974, 7.30523 16.3245, 6.88386 16.7035, 6.41898 17.0138, 5.90945 17.2548, 5.39992 17.4958, 4.89095 17.6161, 4.38142 17.6161, 3.90967 17.6161, 3.51235 17.4913, 3.18831 17.2411, 2.86427 16.9909, 2.6553 16.7648, 2.56084 16.5627 L 1.47593 20.7672 C 1.41983 21.0053, 1.30189 21.1828, 1.12212 21.2985, 0.942928 21.4147, 0.759152 21.4725, 0.570224 21.4725, 0.388166 21.4725, 0.237023 21.4084, 0.117369 21.2801, 0.0360724 21.2011, -0.00514829 21.0849, -0.00514829 20.9321, -0.00514829 20.8771, 0.0011493 20.8101, 0.0137445 20.7305 L 1.92879 13.265 C 2.07993 12.716, 2.29978 12.1818, 2.58889 11.6625, 2.87858 11.1439, 3.25243 10.667, 3.71158 10.233, 4.11406 9.85513, 4.56348 9.54369, 5.06042 9.29923, 5.55736 9.05534, 6.05773 8.93282, 6.56039 8.93225, 7.08252 8.93282, 7.53996 9.05648, 7.9327 9.30381, 8.32601 9.55113, 8.63574 9.86086, 8.86188 10.233, 9.12638 10.6733, 9.27409 11.1587, 9.305 11.6895 L 9.305 11.9276 C 9.305 12.3742, 9.24546 12.8322, 9.12581 13.3016 Z M 7.62641 10.5536 C 7.52564 10.249, 7.38137 10.0046, 7.19244 9.82136, 7.00352 9.63815, 6.75505 9.54655, 6.44704 9.54598, 6.13273 9.54655, 5.8167 9.64273, 5.49896 9.8351, 5.18179 10.0275, 4.89725 10.2765, 4.64535 10.5811, 4.31845 10.9784, 4.06196 11.4078, 3.87647 11.8687, 3.69097 12.3301, 3.53582 12.8076, 3.40987 13.3016 L 2.87171 15.3627 C 2.8969 15.4612, 2.92209 15.5648, 2.94728 15.6747, 2.97247 15.7846, 3.0074 15.8882, 3.05091 15.9856, 3.18946 16.2856, 3.37667 16.5312, 3.61254 16.7235, 3.84841 16.9159, 4.13639 17.0121, 4.47531 17.0115, 4.79019 17.0121, 5.09534 16.9148, 5.39076 16.719, 5.68617 16.5237, 5.95983 16.2793, 6.21116 15.9856, 6.53864 15.5768, 6.78539 15.1423, 6.95199 14.6808, 7.11859 14.2199, 7.26458 13.7482, 7.39053 13.265, 7.51648 12.7646, 7.62011 12.2763, 7.70141 11.7994, 7.7266 11.6288, 7.73919 11.4673, 7.73919 11.3139, 7.73919 11.046, 7.70198 10.7923, 7.62641 10.5536 Z" stroke="none" fill="#000000" />
			<path d="M 28.7883 17.1581 C 28.7322 17.323, 28.6091 17.4054, 28.4202 17.4054 L 19.6178 17.4054 C 19.5234 17.4054, 19.4541 17.3779, 19.41 17.323, 19.3665 17.2806, 19.3447 17.2348, 19.3442 17.1856, 19.3447 17.1495, 19.351 17.1128, 19.3631 17.0756 L 19.4009 16.9382 C 19.4197 16.8592, 19.4638 16.7911, 19.5331 16.7327, 19.6024 16.6749, 19.6808 16.6457, 19.7684 16.6451, 20.0644 16.6457, 20.3415 16.6411, 20.5991 16.6319, 20.8567 16.6228, 21.052 16.5907, 21.1836 16.5352, 21.297 16.4745, 21.3852 16.3096, 21.4481 16.0405 L 24.1183 5.71703 C 24.1435 5.60139, 24.1561 5.50979, 24.1561 5.44223, 24.1561 5.3512, 24.1372 5.29338, 24.0994 5.26819, 24.0176 5.2201, 23.8475 5.18975, 23.5899 5.17716, 23.3323 5.16514, 23.0552 5.15884, 22.7592 5.15827, 22.6653 5.15884, 22.596 5.12849, 22.5519 5.06666, 22.5142 5.0306, 22.4953 4.98479, 22.4953 4.92926, 22.4953 4.89319, 22.505 4.85942, 22.5233 4.8285 L 22.5519 4.68194 C 22.6212 4.49931, 22.7437 4.40771, 22.9201 4.40713, 23.6563 4.44435, 24.3949 4.46267, 25.1368 4.46209, 25.2628 4.46267, 25.3922 4.45637, 25.5238 4.44377, 26.386 4.44435, 27.2631 4.43232, 28.1562 4.40713, 28.2444 4.40771, 28.32 4.43805, 28.383 4.49873, 28.4081 4.54797, 28.4202 4.59377, 28.4202 4.63614, 28.4202 4.67335, 28.411 4.70713, 28.3921 4.7369 L 28.3641 4.8743 C 28.3452 4.95445, 28.3028 5.02144, 28.2364 5.0764, 28.1706 5.13136, 28.0904 5.15884, 27.9959 5.15827, 27.6501 5.15884, 27.3026 5.16514, 26.9534 5.17716, 26.6042 5.18975, 26.3483 5.22296, 26.1845 5.27735, 26.0277 5.33918, 25.9172 5.49776, 25.8542 5.75368 L 23.2029 16.0863 C 23.1399 16.3004, 23.1084 16.4596, 23.1084 16.5627 L 23.1084 16.5993 C 23.1336 16.6245, 23.3099 16.6394, 23.6369 16.6451 L 25.2977 16.6451 C 25.7443 16.6457, 26.1897 16.5816, 26.6328 16.4533, 27.0759 16.3251, 27.4801 16.1052, 27.8448 15.7932, 28.2856 15.4457, 28.6394 14.9865, 28.9068 14.4152, 29.1742 13.8444, 29.4238 13.2564, 29.6562 12.6513, 29.7066 12.487, 29.8171 12.4045, 29.9866 12.4039 L 30.1658 12.4039 C 30.3295 12.4045, 30.4114 12.4841, 30.4114 12.6421 L 30.4114 12.7154 Z" stroke="none" fill="#000000" />
			<polyline points="-6.566 0 6.566 0" fill="none" stroke="#000000" stroke-width="0.750400007" stroke-linecap="round" stroke-linejoin="round" transform="matrix(1 0 0 1 42.4203 11.7703)" />
			<path d="M 62.0337 17.3297 L 54.5076 17.3297, 54.5076 16.836 C 54.5076 16.8007, 54.5261 16.7468, 54.5632 16.6744 L 57.5867 13.3888 C 57.9441 12.9944, 58.306 12.5905, 58.6729 12.1775, 59.0399 11.7646, 59.3686 11.3427, 59.6581 10.9118, 59.9477 10.4809, 60.1788 10.0365, 60.3516 9.57869, 60.5244 9.12087, 60.6103 8.6406, 60.6103 8.13733, 60.6103 7.71317, 60.5547 7.3165, 60.4436 6.94845, 60.3325 6.58039, 60.1726 6.25722, 59.9628 5.97893, 59.7535 5.70065, 59.4915 5.47622, 59.1773 5.30566, 58.8631 5.1351, 58.499 5.04982, 58.0861 5.04926, 57.47 5.04982, 56.9258 5.23385, 56.4539 5.6019, 55.9826 5.96996, 55.6696 6.3756, 55.5153 6.81772, 55.485 6.83006, 55.5344 6.83623, 55.6634 6.83567 L 55.8205 6.83567 C 56.0056 6.87831, 56.1655 6.94283, 56.3013 7.02924, 56.4371 7.1162, 56.551 7.23571, 56.6436 7.38832, 56.7361 7.54092, 56.7822 7.72495, 56.7822 7.93984, 56.7822 8.29948, 56.6655 8.57496, 56.4309 8.76628, 56.1964 8.95816, 55.9344 9.05354, 55.6449 9.05298, 55.3677 9.05354, 55.1085 8.95816, 54.8684 8.76628, 54.6282 8.57496, 54.5076 8.29948, 54.5076 7.93984, 54.5076 7.43769, 54.6064 6.96191, 54.8039 6.51306, 55.0013 6.06422, 55.269 5.6754, 55.6079 5.34606, 55.9467 5.01728, 56.3473 4.75695, 56.8096 4.56506, 57.272 4.37374, 57.7623 4.2778, 58.2802 4.27724, 58.9215 4.2778, 59.5089 4.37206, 60.0419 4.56058, 60.5749 4.74909, 61.0294 5.02008, 61.4053 5.37299, 61.7812 5.72646, 62.0757 6.13491, 62.2884 6.59834, 62.501 7.06234, 62.6071 7.57515, 62.6071 8.13733, 62.6071 8.76011, 62.4657 9.33351, 62.1818 9.85698, 61.8985 10.381, 61.5472 10.8613, 61.1281 11.2978, 60.709 11.7348, 60.2635 12.1461, 59.7917 12.5321, 59.3204 12.9181, 58.8934 13.2935, 58.5113 13.6582 L 56.3844 15.66, 59.1678 15.66 C 59.556 15.6606, 59.9185 15.6578, 60.254 15.6516, 60.5901 15.646, 60.8751 15.6336, 61.1096 15.6157, 61.3441 15.5977, 61.4642 15.586, 61.4698 15.5792, 61.5192 15.5377, 61.5657 15.4541, 61.6089 15.3284, 61.6521 15.2028, 61.692 15.0546, 61.729 14.8841, 61.766 14.7135, 61.8031 14.5401, 61.8401 14.3634, 61.8771 14.1872, 61.9108 13.9937, 61.9417 13.7838 L 62.6256 13.7838 Z" stroke="none" fill="#000000" />
			<path d="M 70.8502 17.3321 C 70.7185 17.8451, 70.5107 18.3351, 70.2279 18.8023, 69.9451 19.2695, 69.6113 19.6851, 69.2277 20.0481, 68.8441 20.4116, 68.4136 20.7065, 67.9356 20.9321, 67.4575 21.1582, 66.9606 21.271, 66.4447 21.271, 66.1367 21.271, 65.8539 21.2149, 65.5963 21.1015, 65.3387 20.9887, 65.128 20.8359, 64.9642 20.6435, 64.8005 20.4511, 64.6906 20.2239, 64.6339 19.9611, 64.6087 19.8454, 64.5961 19.7263, 64.5961 19.6038, 64.5961 19.4452, 64.615 19.2832, 64.6528 19.1183, 64.7221 18.8435, 64.8635 18.6374, 65.077 18.5, 65.2911 18.3626, 65.5018 18.2939, 65.7091 18.2939, 65.9295 18.2939, 66.115 18.3643, 66.2655 18.5046, 66.3726 18.6088, 66.4258 18.7428, 66.4258 18.9077, 66.4258 18.9752, 66.4133 19.0577, 66.3881 19.155, 66.3194 19.4298, 66.1779 19.6359, 65.9638 19.7733, 65.7503 19.9107, 65.5803 19.9794, 65.4543 19.9794, 65.4921 20.1443, 65.61 20.2989, 65.8081 20.442, 66.0062 20.5857, 66.2598 20.6572, 66.5678 20.6572, 66.9073 20.6572, 67.2251 20.5656, 67.5205 20.3824, 67.8159 20.1992, 68.0867 19.9536, 68.3317 19.6451, 68.5768 19.337, 68.792 18.9798, 68.9775 18.5733, 69.163 18.1674, 69.3124 17.7415, 69.4258 17.2955 L 69.4825 17.0756 C 69.3886 17.1615, 69.1905 17.2731, 68.8882 17.41, 68.5865 17.5474, 68.2562 17.6161, 67.8978 17.6161, 67.4701 17.6161, 67.0882 17.5371, 66.7516 17.3779, 66.415 17.2199, 66.1493 16.9754, 65.9547 16.6451, 65.7657 16.2913, 65.6747 15.9008, 65.681 15.4726 L 65.681 15.3993 C 65.6936 14.9539, 65.7503 14.5114, 65.8505 14.0711, 65.9512 13.6503, 66.0978 13.1866, 66.2896 12.6793, 66.4814 12.1727, 66.6652 11.6809, 66.8409 11.204, 67.0298 10.6979, 67.1243 10.2822, 67.1243 9.95819, 67.1243 9.68396, 67.0081 9.54655, 66.7751 9.54598, 66.5615 9.54655, 66.368 9.60781, 66.1951 9.72976, 66.0222 9.85227, 65.8654 10.0217, 65.7234 10.2381, 65.582 10.4551, 65.4549 10.7116, 65.3415 11.0076, 65.2282 11.3042, 65.1337 11.6196, 65.0581 11.9551, 64.9894 12.1206, 64.8732 12.2059, 64.7095 12.2116 L 64.4925 12.2116 C 64.3413 12.2122, 64.2658 12.136, 64.2658 11.9826 L 64.2658 11.9185 C 64.3539 11.583, 64.4707 11.24, 64.615 10.8885, 64.7598 10.5376, 64.9425 10.2187, 65.1623 9.93128, 65.3822 9.64445, 65.6341 9.40629, 65.9169 9.21679, 66.1997 9.02786, 66.5238 8.93282, 66.8884 8.93225, 67.2033 8.93282, 67.4718 9.00038, 67.6951 9.13435, 67.9184 9.26889, 68.0878 9.44751, 68.2041 9.67021, 68.3209 9.89349, 68.385 10.1448, 68.3976 10.4254 L 68.3976 10.4895 C 68.3976 10.7528, 68.3443 11.0242, 68.2373 11.3047, 68.0552 11.7816, 67.8743 12.2688, 67.6951 12.7663, 67.5159 13.2644, 67.3762 13.7116, 67.2755 14.1083, 67.1747 14.5056, 67.1054 14.8989, 67.0676 15.2894, 67.0424 15.3936, 67.027 15.507, 67.0201 15.6283, 67.0201 15.8671, 67.0613 16.1024, 67.1432 16.3337, 67.1999 16.542, 67.3035 16.7069, 67.4547 16.8289, 67.6058 16.9514, 67.785 17.0121, 67.9922 17.0115, 68.3947 17.0121, 68.7468 16.893, 69.0485 16.6548, 69.3508 16.4167, 69.6147 16.1052, 69.8409 15.7199 L 71.3597 9.81162 C 71.4164 9.58606, 71.5309 9.42003, 71.7038 9.31297, 71.8767 9.20648, 72.0513 9.15267, 72.2271 9.15209, 72.4097 9.15267, 72.5609 9.20763, 72.6799 9.31698, 72.7624 9.39713, 72.803 9.50361, 72.803 9.63758, 72.803 9.70514, 72.7967 9.77556, 72.7841 9.84827 Z" stroke="none" fill="#000000" />
			<path d="M 1.5467 8.95625 C -4.56906 4.92594, -4.56906 -4.92594, 1.5467 -8.95625 L 2.50721 -8.95625 C -3.00823 -4.92594, -3.00823 4.92594, 2.50721 8.95625" stroke="none" fill="#000000" transform="matrix(1 0 -0 1 15.8762 11.7703)" />
			<path d="M 1.5467 8.95625 C -4.56906 4.92594, -4.56906 -4.92594, 1.5467 -8.95625 L 2.50721 -8.95625 C -3.00823 -4.92594, -3.00823 4.92594, 2.50721 8.95625" stroke="none" fill="#000000" transform="matrix(-1 1.50996e-007 -1.50996e-007 -1 76.4878 11.7703)" />
			<path d="M 92.9379 8.55668 C 92.9001 8.72844, 92.8062 8.81374, 92.655 8.81317, 92.6424 8.82576, 92.611 8.83206, 92.5606 8.83149, 92.5291 8.83206, 92.5039 8.82576, 92.485 8.81317 L 92.4003 8.81317 C 92.2365 8.81374, 92.1547 8.75248, 92.1547 8.62996 L 92.1547 8.56584 C 92.2302 8.11471, 92.268 7.6962, 92.268 7.3109 L 92.268 6.96282 C 92.2302 6.49336, 92.1249 6.08859, 91.952 5.74967, 91.7791 5.41074, 91.5261 5.14853, 91.1928 4.96189, 90.8596 4.77583, 90.4377 4.68251, 89.9282 4.68194, 89.6328 4.68251, 89.3322 4.74663, 89.027 4.87487, 88.7225 5.00311, 88.4379 5.17716, 88.1734 5.39643, 87.8843 5.63517, 87.6484 5.90539, 87.4658 6.20768, 87.2838 6.50996, 87.1515 6.81969, 87.0691 7.13686, 87.0067 7.36357, 86.9723 7.57998, 86.9654 7.78723, 86.9654 8.07463, 87.0284 8.34943, 87.1544 8.61164, 87.337 9.0519, 87.6639 9.33301, 88.1357 9.45438 L 90.3055 10.0589 C 90.7016 10.1757, 91.04 10.3607, 91.3199 10.6137, 91.5999 10.8673, 91.8106 11.1668, 91.952 11.5114, 92.094 11.8566, 92.177 12.2333, 92.2022 12.6421 L 92.2022 12.807 C 92.2022 13.162, 92.1518 13.5249, 92.051 13.8971, 91.9194 14.4106, 91.7087 14.9052, 91.419 15.3816, 91.1299 15.8579, 90.7715 16.2856, 90.3432 16.6634, 89.9345 17.0121, 89.4868 17.2915, 88.999 17.5016, 88.5112 17.7123, 88.0223 17.8176, 87.5317 17.8176, 86.8086 17.8176, 86.192 17.702, 85.6824 17.4695, 85.1729 17.2382, 84.7956 16.9451, 84.55 16.5901 L 83.6163 17.6985 C 83.535 17.7781, 83.4497 17.8176, 83.3615 17.8176 L 83.3048 17.8176 C 83.1479 17.8176, 83.0626 17.7569, 83.05 17.6344, 83.05 17.5978, 83.0598 17.5646, 83.0781 17.5336 L 84.1727 13.2467 C 84.2105 13.0761, 84.321 12.9879, 84.5031 12.981 L 84.7103 12.981 C 84.7859 12.9816, 84.8552 13.012, 84.9181 13.0726, 84.9433 13.1219, 84.9559 13.1648, 84.9559 13.2009, 84.9559 13.2261, 84.9496 13.2564, 84.937 13.2925, 84.8237 13.7327, 84.767 14.1421, 84.767 14.5199, 84.767 15.1251, 84.9153 15.6381, 85.2107 16.0589, 85.6824 16.7373, 86.5069 17.0762, 87.6828 17.0756, 87.9782 17.0762, 88.2788 17.0075, 88.5839 16.8701, 88.8891 16.7327, 89.1736 16.5478, 89.4375 16.3153, 89.7272 16.0474, 89.9705 15.7497, 90.1686 15.4228, 90.3667 15.0965, 90.5133 14.7587, 90.6072 14.41, 90.6702 14.1295, 90.7016 13.8673, 90.7016 13.6222, 90.7016 13.3177, 90.661 13.0245, 90.5791 12.7429, 90.3908 12.2734, 90.0415 11.9711, 89.532 11.836 L 87.3902 11.2314 C 87.0067 11.1284, 86.6763 10.9589, 86.3992 10.7236, 86.1227 10.4889, 85.9074 10.2095, 85.7534 9.88548, 85.5994 9.56201, 85.5095 9.20476, 85.4844 8.81317 L 85.4844 8.61164 C 85.4844 8.30707, 85.5221 7.98646, 85.5977 7.64983, 85.73 7.16205, 85.9407 6.69488, 86.2298 6.2489, 86.5195 5.80348, 86.8778 5.40902, 87.3049 5.06666, 87.708 4.73747, 88.15 4.47354, 88.6309 4.27488, 89.1124 4.07679, 89.5887 3.97718, 90.0604 3.97661, 90.7085 3.97718, 91.2427 4.09798, 91.664 4.339, 92.0854 4.5806, 92.3905 4.86571, 92.5795 5.19491 L 93.4852 4.10485 C 93.5356 4.02012, 93.6174 3.97718, 93.7302 3.97661 L 93.8155 3.97661 C 93.9667 3.97718, 94.0417 4.05046, 94.0417 4.19645 L 94.0417 4.26973 Z" stroke="none" fill="#000000" />
			<rect />
		</svg>
	</g>
</svg>
