<?xml version="1.0"?>
<svg xmlns="http://www.w3.org/2000/svg" xmlns:xlink="http://www.w3.org/1999/xlink" width="188.199554" height="76.7720871">
	<defs />
	<path d="M -102.762 -80.2881 L 102.762 -80.2881, 102.762 80.2881, -102.762 80.2881 Z" fill="none" stroke="#000000" stroke-width="4.80000019" stroke-linecap="round" stroke-linejoin="round" transform="matrix(0.208333 0 -0 0.208333 108.667 44.6568)" />
	<g transform="matrix(1 0 -0 1 99.5221 33.4494)">
		<svg width="59.9889336" height="45.0428467">
			<defs />
			<path d="M 18.2327 4.3115 C 18.1949 4.50157, 18.0787 4.59604, 17.8835 4.59547, 17.5881 4.59604, 17.3087 4.60234, 17.0442 4.61436, 16.7803 4.62695, 16.5885 4.65901, 16.4688 4.71054, 16.3497 4.76264, 16.2553 4.92294, 16.1854 5.19088 L 13.5347 15.5144 C 13.4975 15.6495, 13.4786 15.756, 13.4786 15.835, 13.4786 15.9088, 13.4975 15.9546, 13.5347 15.9724, 13.6229 16.0279, 13.7946 16.06, 14.0494 16.0691, 14.3042 16.0783, 14.579 16.0829, 14.8744 16.0823, 15.0507 16.0829, 15.1383 16.1562, 15.1383 16.3021, 15.1383 16.3394, 15.1326 16.3789, 15.12 16.4212 L 15.0822 16.5586 C 15.0633 16.6388, 15.0209 16.7058, 14.9545 16.7602, 14.8887 16.8151, 14.8114 16.8426, 14.7232 16.8426, 13.9755 16.806, 13.2147 16.7876, 12.4406 16.7876, 11.6678 16.7876, 10.888 16.806, 10.1014 16.8426, 9.9382 16.8426, 9.85634 16.7636, 9.85634 16.6044 L 9.85634 16.5311, 9.89355 16.3754 C 9.94393 16.1745, 10.067 16.0766, 10.2617 16.0823, 10.5571 16.0829, 10.8342 16.0783, 11.0918 16.0691, 11.35 16.06, 11.5418 16.0279, 11.6672 15.9724, 11.7805 15.9117, 11.8721 15.7468, 11.9408 15.4777 L 14.5916 5.24584, 7.5829 16.5861 C 7.48901 16.7573, 7.34416 16.8426, 7.14894 16.8426 L 7.05447 16.8426 C 6.85982 16.8426, 6.74303 16.7453, 6.70524 16.5495 L 5.56423 5.3466, 3.08297 15.0106 C 3.04576 15.1211, 3.02687 15.2373, 3.02687 15.3586, 3.02687 15.3896, 3.03317 15.4233, 3.04576 15.4594, 3.05836 15.6065, 3.10816 15.7228, 3.19633 15.8075, 3.30969 15.918, 3.46083 15.9913, 3.64919 16.0279, 3.83811 16.0646, 4.05166 16.0829, 4.2904 16.0823, 4.46673 16.0829, 4.5549 16.1562, 4.5549 16.3021, 4.5549 16.3394, 4.5486 16.3789, 4.536 16.4212 L 4.49822 16.5586 C 4.47932 16.6388, 4.43696 16.7058, 4.37055 16.7602, 4.30471 16.8151, 4.22456 16.8426, 4.13009 16.8426, 3.50148 16.806, 2.86656 16.7876, 2.22478 16.7876, 1.58357 16.7876, 0.932627 16.806, 0.271951 16.8426, 0.178059 16.8426, 0.108785 16.8151, 0.0647021 16.7602, 0.0211914 16.7178, -0.00113648 16.672, -0.00113648 16.6228, -0.00113648 16.5867, 0.00516113 16.55, 0.0177563 16.5128 L 0.0549695 16.3754 C 0.10535 16.1745, 0.22844 16.0766, 0.423093 16.0823, 0.662402 16.0829, 0.886826 16.0646, 1.09751 16.0279, 1.30819 15.9913, 1.50514 15.9151, 1.68719 15.7983, 1.83204 15.7073, 1.94998 15.5871, 2.04101 15.4371, 2.13261 15.2877, 2.20016 15.1274, 2.24367 14.9556 L 4.77188 5.15423 C 4.80966 5.02027, 4.82856 4.91664, 4.82856 4.84279, 4.82856 4.77008, 4.8131 4.72714, 4.78104 4.71455, 4.69344 4.66016, 4.52226 4.62695, 4.2675 4.61436, 4.01273 4.60234, 3.73735 4.59604, 3.44194 4.59547, 3.27247 4.59604, 3.18087 4.5136, 3.16828 4.34814 L 3.16828 4.28402, 3.20606 4.11914 C 3.27534 3.93651, 3.39785 3.84491, 3.57361 3.84433 L 6.63024 3.84433 C 6.83177 3.84491, 6.94455 3.9428, 6.96974 4.13746 L 8.04491 14.6075, 14.5349 4.10082 C 14.6293 3.93021, 14.7742 3.84491, 14.9688 3.84433 L 18.0249 3.84433 C 18.1131 3.84491, 18.1886 3.87525, 18.2516 3.93593, 18.2768 3.98517, 18.2894 4.03097, 18.2894 4.07334, 18.2894 4.11055, 18.2802 4.14433, 18.2608 4.1741 Z" stroke="none" fill="#000000" />
			<rect />
		</svg>
	</g>
	<path d="M -406.079 0 L 406.079 6.10352e-005" fill="none" stroke="#000000" stroke-width="9.60000038" stroke-linecap="round" stroke-linejoin="round" transform="matrix(0.208333 0 0 0.208333 94.0998 61.3835)" />
	<path d="M -186.621 0 L -111.973 0" fill="none" stroke="#000000" stroke-width="4.80000019" stroke-linecap="round" stroke-linejoin="round" transform="matrix(0.208333 0 -0 0.208333 48.3794 44.6569)" />
	<path d="M 111.973 0 L 186.621 0" fill="none" stroke="#000000" stroke-width="4.80000019" stroke-linecap="round" stroke-linejoin="round" transform="matrix(0.208333 0 -0 0.208333 48.3794 44.6569)" />
	<path d="M -111.973 0 L -103.974 24.7028, -87.9784 -24.7028, -71.9823 24.7028, -55.9863 -24.7028, -39.9902 24.7028, -23.9941 -24.7028, -7.99804 24.7028, 7.99803 -24.7028, 23.9941 24.7028, 39.9902 -24.7028, 55.9862 24.7028, 71.9823 -24.7028, 87.9784 24.7028, 103.974 -24.7028, 111.973 0" fill="none" stroke="#000000" stroke-width="5.12000036" stroke-linecap="round" stroke-linejoin="round" transform="matrix(0.208333 0 -0 0.208333 48.3794 44.6569)" />
	<g transform="matrix(1 0 -0 1 44.9949 11.94)">
		<svg width="30.0150681" height="47.9999886">
			<defs />
			<path d="M 8.3804 9.90836 C 8.31113 10.1774, 8.17086 10.3807, 7.96018 10.5181, 7.7495 10.6555, 7.53767 10.7242, 7.32355 10.7236, 7.10371 10.7242, 6.92107 10.6538, 6.77623 10.5129, 6.66974 10.4099, 6.61593 10.2753, 6.61593 10.1099, 6.61593 10.0435, 6.62852 9.95759, 6.65371 9.8534, 6.72299 9.60951, 6.8455 9.42058, 7.02184 9.28604, 7.19817 9.15207, 7.33328 9.07822, 7.42717 9.06562, 7.38366 9.01123, 7.26401 8.98375, 7.06878 8.98318, 6.67261 8.98375, 6.31421 9.10455, 5.99361 9.34558, 5.673 9.58718, 5.35526 9.87572, 5.04038 10.2112, 4.72607 10.5473, 4.40833 10.8982, 4.08772 11.2646, 3.76712 11.631, 3.48659 11.8847, 3.24728 12.0244, 3.47399 12.0495, 3.76655 12.12, 4.12494 12.2356, 4.48333 12.3518, 4.78848 12.5121, 5.04038 12.7165, 5.29228 12.9215, 5.46805 13.1699, 5.56881 13.4625, 5.62549 13.6217, 5.65697 13.7991, 5.6627 13.9938, 5.6627 14.1529, 5.64381 14.3213, 5.60602 14.4976, 5.53102 14.785, 5.47778 15.0506, 5.44572 15.2945, 5.42053 15.448, 5.40793 15.5882, 5.40793 15.7159, 5.40793 15.7835, 5.41423 15.8567, 5.42682 15.9357, 5.43942 16.1075, 5.4835 16.2357, 5.55907 16.321, 5.63465 16.4069, 5.748 16.4493, 5.89857 16.4487, 6.0812 16.4493, 6.24151 16.3897, 6.38005 16.2707, 6.5186 16.1516, 6.64398 15.9838, 6.75734 15.7668, 6.87069 15.5504, 6.97146 15.2922, 7.05962 14.9928, 7.14779 14.694, 7.23538 14.3728, 7.32355 14.0304, 7.36134 13.8724, 7.47183 13.7928, 7.65389 13.7923 L 7.86114 13.7923 C 8.01858 13.7928, 8.10331 13.8598, 8.1159 13.9938 L 8.1159 14.0579 C 8.04033 14.3699, 7.943 14.6997, 7.82335 15.0478, 7.70427 15.3959, 7.55484 15.7182, 7.37565 16.0142, 7.19645 16.3107, 6.97947 16.5575, 6.7247 16.7556, 6.46994 16.9542, 6.15391 17.0533, 5.77606 17.0533, 5.43656 17.0533, 5.14229 16.9789, 4.89382 16.8289, 4.64535 16.68, 4.45699 16.4848, 4.32818 16.2432, 4.19936 16.0021, 4.12207 15.7228, 4.09688 15.4045 L 4.09688 15.1938 C 4.09688 14.9499, 4.12207 14.706, 4.17246 14.461, 4.21024 14.315, 4.232 14.1776, 4.23829 14.0487, 4.23829 13.7133, 4.11291 13.4236, 3.86101 13.1785, 3.49632 12.8556, 3.01828 12.6541, 2.42687 12.574 L 1.44559 16.3754 C 1.38949 16.6021, 1.27441 16.771, 1.10151 16.8838, 0.928615 16.9972, 0.754 17.0533, 0.577667 17.0533, 0.395609 17.0533, 0.244466 16.9926, 0.124812 16.8701, 0.0429429 16.7911, 0.00172222 16.6811, 0.00172222 16.5403, 0.00172222 16.4739, 0.0080198 16.4063, 0.020615 16.3388 L 2.86084 5.32828 C 2.91122 5.12733, 2.9427 4.97447, 2.9553 4.87027 L 2.9553 4.84279 C 2.9553 4.7884, 2.9427 4.7489, 2.91751 4.72371, 2.84194 4.67562, 2.70053 4.64184, 2.49271 4.62352, 2.28546 4.6052, 2.04615 4.59604, 1.77593 4.59547, 1.68147 4.59604, 1.61219 4.56569, 1.56811 4.50386, 1.53032 4.4678, 1.51143 4.422, 1.51143 4.36646, 1.51143 4.33039, 1.52116 4.29662, 1.54006 4.2657 L 1.56811 4.11914 C 1.61849 3.97315, 1.73814 3.88155, 1.9265 3.84433 L 4.38944 3.64281, 4.42665 3.64281 C 4.50222 3.64338, 4.5652 3.668, 4.61558 3.71609, 4.65336 3.77162, 4.67226 3.82029, 4.67226 3.86265, 4.67226 3.89987, 4.6631 3.93364, 4.6442 3.96342 L 2.64385 11.7312 C 2.795 11.6768, 2.98679 11.5457, 3.21923 11.3379, 3.45224 11.1307, 3.68353 10.9017, 3.91311 10.6509, 4.14268 10.4007, 4.37684 10.1414, 4.61558 9.87229, 4.85489 9.60378, 5.1045 9.35817, 5.36557 9.1349, 5.62663 8.91219, 5.90544 8.72899, 6.20086 8.58529, 6.49627 8.44216, 6.82661 8.37002, 7.1913 8.36945, 7.63786 8.37002, 7.97793 8.51945, 8.21037 8.8183, 8.36781 9.02669, 8.44624 9.2557, 8.44624 9.50531, 8.44624 9.64042, 8.42449 9.77439, 8.3804 9.90836 Z" stroke="none" fill="#000000" />
			<rect />
		</svg>
	</g>
	<path d="M 0 -124.52 L 0 124.521" fill="none" stroke="#000000" stroke-width="9.60000038" stroke-linecap="round" stroke-linejoin="round" transform="matrix(0.208333 0 0 0.208333 9.5 35.4417)" />
	<g transform="matrix(1 0 -0 1 153.496 11.94)">
		<svg width="48.0251122" height="32.9571342">
			<defs />
			<path d="M 14.8429 14.0762 C 14.7679 14.4003, 14.6551 14.738, 14.504 15.089, 14.3528 15.4405, 14.1719 15.7594, 13.9612 16.0462, 13.7505 16.3336, 13.5038 16.5729, 13.221 16.7647, 12.9382 16.9571, 12.6107 17.0533, 12.2397 17.0533, 11.9254 17.0533, 11.6552 16.9863, 11.4284 16.8518, 11.2023 16.7178, 11.0311 16.5409, 10.9143 16.321, 10.7981 16.1012, 10.7334 15.8447, 10.7208 15.551 L 10.7208 15.4777 C 10.7208 15.2155, 10.7746 14.9499, 10.8811 14.6808, 11.0889 14.1438, 11.2807 13.6096, 11.4571 13.0783, 11.6334 12.5471, 11.7937 12.0129, 11.938 11.4747, 12.0387 11.1209, 12.1074 10.7763, 12.1452 10.4396, 12.1578 10.3549, 12.1641 10.2633, 12.1641 10.1648, 12.1641 9.95187, 12.1326 9.75034, 12.0697 9.56027, 11.9569 9.17612, 11.7181 8.98375, 11.3529 8.98318, 10.7117 8.98375, 10.158 9.20531, 9.6926 9.64786, 9.22772 10.091, 8.82181 10.6784, 8.47601 11.4106, 8.28136 12.2419, 8.07354 13.0709, 7.85369 13.8982, 7.63385 14.726, 7.4163 15.5516, 7.20218 16.3754, 7.14607 16.6021, 7.02985 16.771, 6.85352 16.8838, 6.67719 16.9972, 6.50429 17.0533, 6.33483 17.0533, 6.15277 17.0533, 6.00163 16.9926, 5.88197 16.8701, 5.8001 16.7911, 5.75602 16.6811, 5.74972 16.5403, 5.74972 16.4739, 5.75602 16.4063, 5.76861 16.3388 L 7.03271 11.4747 C 7.13348 11.1209, 7.20218 10.7763, 7.23996 10.4396 L 7.23996 10.1648 C 7.23996 9.94557, 7.21477 9.74405, 7.16439 9.56027, 7.05161 9.17612, 6.81287 8.98375, 6.44761 8.98318, 5.8064 8.98375, 5.25335 9.20531, 4.7879 9.64786, 4.32245 10.091, 3.91368 10.6784, 3.56102 11.4106 L 2.26886 16.3754 C 2.21276 16.6021, 2.09768 16.771, 1.92478 16.8838, 1.75188 16.9972, 1.57727 17.0533, 1.40094 17.0533, 1.21258 17.0533, 1.06774 16.9926, 0.966974 16.8701, 0.885678 16.7911, 0.844457 16.6811, 0.844457 16.5403, 0.844457 16.4859, 0.850755 16.4189, 0.86335 16.3388 L 2.31581 10.6686 C 2.41657 10.2725, 2.46695 9.93011, 2.46695 9.64271 L 2.46695 9.42287 C 2.43603 9.13032, 2.28833 8.98375, 2.02383 8.98318, 1.7473 8.98375, 1.51601 9.20703, 1.33052 9.65244, 1.14502 10.0984, 0.964112 10.6784, 0.787779 11.3923, 0.719077 11.5578, 0.602858 11.6431, 0.43912 11.6488 L 0.222139 11.6488 C 0.0709965 11.6494, -0.00457481 11.5732, -0.00457481 11.4198 L -0.00457481 11.3557 C 0.0709965 11.0694, 0.1563 10.7562, 0.250192 10.4173, 0.344656 10.0784, 0.470608 9.75779, 0.627476 9.4555, 0.784916 9.15322, 0.983005 8.89673, 1.22174 8.68605, 1.46105 8.47536, 1.75933 8.37002, 2.11772 8.36945, 2.63412 8.37002, 3.03946 8.52575, 3.33487 8.83719, 3.63029 9.14864, 3.78429 9.45092, 3.79689 9.74347, 4.06139 9.39596, 4.42894 9.07994, 4.90069 8.79597, 5.37244 8.512, 5.91976 8.37002, 6.54207 8.36945, 6.92566 8.37002, 7.27832 8.43872, 7.59893 8.57613, 7.91953 8.71353, 8.168 8.93509, 8.34376 9.23967, 8.4949 9.50302, 8.5762 9.72286, 8.5888 9.8992, 8.86589 9.50874, 9.24947 9.15665, 9.74011 8.84177, 10.2308 8.52746, 10.8061 8.37002, 11.4662 8.36945, 11.8372 8.37002, 12.183 8.43872, 12.5036 8.57613, 12.8242 8.71353, 13.0761 8.93509, 13.2582 9.23967, 13.4471 9.55168, 13.5387 9.90263, 13.5318 10.2931 L 13.5318 10.3389 C 13.5193 10.7305, 13.4631 11.1244, 13.3624 11.5205, 13.2181 12.077, 13.0515 12.6238, 12.8626 13.1608, 12.6737 13.6984, 12.4756 14.2417, 12.2677 14.7907, 12.0794 15.2859, 11.9849 15.701, 11.9849 16.0365, 11.9849 16.3119, 12.1046 16.4493, 12.3433 16.4487, 12.5574 16.4493, 12.7504 16.3852, 12.9233 16.2569, 13.0962 16.1287, 13.2536 15.9563, 13.395 15.7394, 13.537 15.523, 13.6641 15.2665, 13.7775 14.9699, 13.8908 14.6739, 13.991 14.3608, 14.0792 14.0304, 14.117 13.8724, 14.2269 13.7928, 14.4089 13.7923 L 14.6168 13.7923 C 14.686 13.7928, 14.7582 13.814, 14.8337 13.8564, 14.8589 13.9119, 14.8715 13.9577, 14.8715 13.9938, 14.8715 14.019, 14.8624 14.0465, 14.8429 14.0762 Z" stroke="none" fill="#000000" />
			<rect />
		</svg>
	</g>
	<path d="M 11.47 -16.0712 L -11.471 16.071" fill="none" stroke="#000000" stroke-width="4.80000019" stroke-linecap="round" stroke-linejoin="round" transform="matrix(0.208333 0 0 0.208333 11.8898 64.924)" />
	<path d="M 11.4706 -16.0712 L -11.4706 16.071" fill="none" stroke="#000000" stroke-width="4.80000019" stroke-linecap="round" stroke-linejoin="round" transform="matrix(0.208333 0 0 0.208333 18.8539 64.924)" />
	<path d="M 11.4706 -16.0712 L -11.4707 16.071" fill="none" stroke="#000000" stroke-width="4.80000019" stroke-linecap="round" stroke-linejoin="round" transform="matrix(0.208333 0 0 0.208333 25.8181 64.924)" />
	<path d="M 11.4705 -16.0712 L -11.4706 16.071" fill="none" stroke="#000000" stroke-width="4.80000019" stroke-linecap="round" stroke-linejoin="round" transform="matrix(0.208333 0 0 0.208333 32.7823 64.924)" />
	<path d="M 11.4711 -16.0712 L -11.4703 16.071" fill="none" stroke="#000000" stroke-width="4.80000019" stroke-linecap="round" stroke-linejoin="round" transform="matrix(0.208333 0 0 0.208333 39.7464 64.924)" />
	<path d="M 11.471 -16.0712 L -11.4704 16.071" fill="none" stroke="#000000" stroke-width="4.80000019" stroke-linecap="round" stroke-linejoin="round" transform="matrix(0.208333 0 0 0.208333 46.7106 64.924)" />
	<path d="M 11.4703 -16.0712 L -11.4707 16.071" fill="none" stroke="#000000" stroke-width="4.80000019" stroke-linecap="round" stroke-linejoin="round" transform="matrix(0.208333 0 0 0.208333 53.6748 64.924)" />
	<path d="M 11.47 -16.0712 L -11.4711 16.071" fill="none" stroke="#000000" stroke-width="4.80000019" stroke-linecap="round" stroke-linejoin="round" transform="matrix(0.208333 0 0 0.208333 60.6389 64.924)" />
	<path d="M 11.4702 -16.0712 L -11.4711 16.071" fill="none" stroke="#000000" stroke-width="4.80000019" stroke-linecap="round" stroke-linejoin="round" transform="matrix(0.208333 0 0 0.208333 67.6031 64.924)" />
	<path d="M 11.4702 -16.0712 L -11.4709 16.071" fill="none" stroke="#000000" stroke-width="4.80000019" stroke-linecap="round" stroke-linejoin="round" transform="matrix(0.208333 0 0 0.208333 74.5673 64.924)" />
	<path d="M 11.471 -16.0712 L -11.47 16.071" fill="none" stroke="#000000" stroke-width="4.80000019" stroke-linecap="round" stroke-linejoin="round" transform="matrix(0.208333 0 0 0.208333 81.5314 64.924)" />
	<path d="M 11.4709 -16.0712 L -11.47 16.071" fill="none" stroke="#000000" stroke-width="4.80000019" stroke-linecap="round" stroke-linejoin="round" transform="matrix(0.208333 0 0 0.208333 88.4956 64.924)" />
	<path d="M 11.4707 -16.0712 L -11.4703 16.071" fill="none" stroke="#000000" stroke-width="4.80000019" stroke-linecap="round" stroke-linejoin="round" transform="matrix(0.208333 0 0 0.208333 95.4597 64.924)" />
	<path d="M 11.4707 -16.0712 L -11.4703 16.071" fill="none" stroke="#000000" stroke-width="4.80000019" stroke-linecap="round" stroke-linejoin="round" transform="matrix(0.208333 0 0 0.208333 102.424 64.924)" />
	<path d="M 11.4709 -16.0712 L -11.471 16.071" fill="none" stroke="#000000" stroke-width="4.80000019" stroke-linecap="round" stroke-linejoin="round" transform="matrix(0.208333 0 0 0.208333 116.352 64.924)" />
	<path d="M 11.47 -16.0712 L -11.4709 16.071" fill="none" stroke="#000000" stroke-width="4.80000019" stroke-linecap="round" stroke-linejoin="round" transform="matrix(0.208333 0 0 0.208333 123.316 64.924)" />
	<path d="M 11.4708 -16.0712 L -11.47 16.071" fill="none" stroke="#000000" stroke-width="4.80000019" stroke-linecap="round" stroke-linejoin="round" transform="matrix(0.208333 0 0 0.208333 130.28 64.924)" />
	<path d="M 11.471 -16.0712 L -11.4701 16.071" fill="none" stroke="#000000" stroke-width="4.80000019" stroke-linecap="round" stroke-linejoin="round" transform="matrix(0.208333 0 0 0.208333 137.245 64.924)" />
	<path d="M 11.47 -16.0712 L -11.4711 16.071" fill="none" stroke="#000000" stroke-width="4.80000019" stroke-linecap="round" stroke-linejoin="round" transform="matrix(0.208333 0 0 0.208333 144.209 64.924)" />
	<path d="M 11.47 -16.0712 L -11.4708 16.071" fill="none" stroke="#000000" stroke-width="4.80000019" stroke-linecap="round" stroke-linejoin="round" transform="matrix(0.208333 0 0 0.208333 151.173 64.924)" />
	<path d="M 11.4702 -16.0712 L -11.4708 16.071" fill="none" stroke="#000000" stroke-width="4.80000019" stroke-linecap="round" stroke-linejoin="round" transform="matrix(0.208333 0 0 0.208333 158.137 64.924)" />
	<path d="M 11.4707 -16.0712 L -11.4709 16.071" fill="none" stroke="#000000" stroke-width="4.80000019" stroke-linecap="round" stroke-linejoin="round" transform="matrix(0.208333 0 0 0.208333 165.101 64.924)" />
	<path d="M 11.4697 -16.0712 L -11.4703 16.071" fill="none" stroke="#000000" stroke-width="4.80000019" stroke-linecap="round" stroke-linejoin="round" transform="matrix(0.208333 0 0 0.208333 172.065 64.924)" />
	<path d="M 11.4706 -16.0712 L -11.4703 16.071" fill="none" stroke="#000000" stroke-width="4.80000019" stroke-linecap="round" stroke-linejoin="round" transform="matrix(0.208333 0 0 0.208333 109.388 64.924)" />
	<path d="M -0 21.4634 L -77.0439 -0, -0 -21.4634 Z" fill="none" stroke="#000000" stroke-width="4.80000019" stroke-linecap="round" stroke-linejoin="round" transform="matrix(0.208333 0 0 0.208333 167.633 42.0608)" />
</svg>
