<?xml version="1.0"?>
<svg xmlns="http://www.w3.org/2000/svg" xmlns:xlink="http://www.w3.org/1999/xlink" width="185.196198" height="196.789322">
	<defs>
		<marker id="CustomMarker-01" markerUnits="strokeWidth" markerWidth="15.000001" markerHeight="9" viewBox="-15 -4.5 15 9" orient="auto-start-reverse">
			<path d="M 0 -0 L -10 -3, -8 -0.5, -8 0.5, -10 3 Z" fill="#000000" stroke="#000000" stroke-linejoin="round" />
		</marker>
	</defs>
	<path d="M -269.114 0 L 269.114 0" fill="none" stroke="#000000" stroke-width="4.26666689" stroke-linecap="round" stroke-linejoin="round" transform="matrix(0.3125 0 0 0.3125 92.598 14.9407)" />
	<g transform="matrix(1 0 -0 1 104.278 90.1255)">
		<svg width="39.020092" height="45.0428467">
			<defs />
			<path d="M 9.44155 16.5953 C 9.38544 16.7602, 9.26235 16.8426, 9.07342 16.8426 L 0.271085 16.8426 C 0.176621 16.8426, 0.107348 16.8151, 0.0632644 16.7602, 0.0197537 16.7178, -0.00200171 16.672, -0.00257422 16.6228, -0.00200171 16.5867, 0.00429589 16.55, 0.0163186 16.5128 L 0.0541042 16.3754 C 0.0729971 16.2964, 0.11708 16.2283, 0.186354 16.1699, 0.255628 16.1121, 0.334062 16.0829, 0.421656 16.0823, 0.717643 16.0829, 0.994738 16.0783, 1.25237 16.0691, 1.51 16.06, 1.70522 16.0279, 1.8369 15.9724, 1.95026 15.9117, 2.03842 15.7468, 2.1014 15.4777 L 4.77158 5.15423 C 4.79677 5.03859, 4.80937 4.94699, 4.80937 4.87943, 4.80937 4.7884, 4.79048 4.73058, 4.75269 4.70539, 4.67082 4.6573, 4.50079 4.62695, 4.24316 4.61436, 3.98553 4.60234, 3.70843 4.59604, 3.41245 4.59547, 3.31855 4.59604, 3.24928 4.56569, 3.2052 4.50386, 3.16741 4.4678, 3.14852 4.422, 3.14852 4.36646, 3.14852 4.33039, 3.15825 4.29662, 3.17657 4.2657 L 3.2052 4.11914 C 3.27447 3.93651, 3.39699 3.84491, 3.57332 3.84433, 4.30957 3.88155, 5.04811 3.89987, 5.79008 3.89929, 5.91603 3.89987, 6.04542 3.89357, 6.1771 3.88097, 7.0393 3.88155, 7.91638 3.86952, 8.80949 3.84433, 8.89766 3.84491, 8.97323 3.87525, 9.03621 3.93593, 9.0614 3.98517, 9.07342 4.03097, 9.07342 4.07334, 9.07342 4.11055, 9.06426 4.14433, 9.04537 4.1741 L 9.01732 4.3115 C 8.99842 4.39165, 8.95606 4.45864, 8.88965 4.5136, 8.82381 4.56856, 8.74366 4.59604, 8.64919 4.59547, 8.3034 4.59604, 7.95588 4.60234, 7.60665 4.61436, 7.25742 4.62695, 7.00151 4.66016, 6.83777 4.71455, 6.6809 4.77638, 6.57041 4.93496, 6.50743 5.19088 L 3.85614 15.5235 C 3.79317 15.7377, 3.76168 15.8968, 3.76168 15.9999 L 3.76168 16.0365 C 3.78687 16.0617, 3.9632 16.0766, 4.2901 16.0823 L 5.95095 16.0823 C 6.39751 16.0829, 6.84292 16.0188, 7.28605 15.8905, 7.72917 15.7623, 8.13336 15.5424, 8.49805 15.2304, 8.93888 14.8829, 9.29269 14.4237, 9.56006 13.8524, 9.82742 13.2816, 10.077 12.6936, 10.3095 12.0885, 10.3599 11.9242, 10.4703 11.8417, 10.6398 11.8411 L 10.819 11.8411 C 10.9827 11.8417, 11.0646 11.9213, 11.0646 12.0793 L 11.0646 12.1526 Z" stroke="none" fill="#000000" />
			<rect />
		</svg>
	</g>
	<g transform="matrix(1 0 -0 1 19.3514 165.374)">
		<svg width="48.0251122" height="32.9571342">
			<defs />
			<path d="M 14.8512 14.0762 C 14.7756 14.4003, 14.6628 14.738, 14.5117 15.089, 14.3606 15.4405, 14.1796 15.7594, 13.969 16.0462, 13.7583 16.3336, 13.5115 16.5729, 13.2287 16.7647, 12.9459 16.9571, 12.6184 17.0533, 12.2468 17.0533, 11.9325 17.0533, 11.6623 16.9863, 11.4356 16.8518, 11.2095 16.7178, 11.0383 16.5409, 10.9215 16.321, 10.8053 16.1012, 10.7406 15.8447, 10.728 15.551 L 10.728 15.4777 C 10.728 15.2155, 10.7818 14.9499, 10.8883 14.6808, 11.0961 14.1438, 11.2879 13.6096, 11.4642 13.0783, 11.6406 12.5471, 11.8009 12.0129, 11.9451 11.4747, 12.0459 11.1209, 12.1152 10.7763, 12.153 10.4396, 12.1656 10.3549, 12.1718 10.2633, 12.1718 10.1648, 12.1718 9.95187, 12.1404 9.75034, 12.0774 9.56027, 11.964 9.17612, 11.7253 8.98375, 11.36 8.98318, 10.7188 8.98375, 10.1652 9.20531, 9.69975 9.64786, 9.2343 10.091, 8.82839 10.6784, 8.4826 11.4106, 8.28794 12.2419, 8.08012 13.0709, 7.8597 13.8982, 7.63986 14.726, 7.42288 15.5516, 7.20876 16.3754, 7.15266 16.6021, 7.03644 16.771, 6.8601 16.8838, 6.68377 16.9972, 6.51087 17.0533, 6.34084 17.0533, 6.15878 17.0533, 6.00764 16.9926, 5.88798 16.8701, 5.80668 16.7911, 5.7626 16.6811, 5.75573 16.5403, 5.75573 16.4739, 5.76203 16.4063, 5.77462 16.3388 L 7.03873 11.4747 C 7.13949 11.1209, 7.20876 10.7763, 7.24655 10.4396 L 7.24655 10.1648 C 7.24655 9.94557, 7.22136 9.74405, 7.17098 9.56027, 7.05819 9.17612, 6.81945 8.98375, 6.45419 8.98318, 5.81298 8.98375, 5.25937 9.20531, 4.79391 9.64786, 4.32846 10.091, 3.91969 10.6784, 3.56703 11.4106 L 2.2743 16.3754 C 2.21819 16.6021, 2.10312 16.771, 1.93022 16.8838, 1.75732 16.9972, 1.58271 17.0533, 1.40637 17.0533, 1.21802 17.0533, 1.07317 16.9926, 0.972413 16.8701, 0.891116 16.7911, 0.849895 16.6811, 0.849895 16.5403, 0.849895 16.4859, 0.856193 16.4189, 0.868788 16.3388 L 2.32125 10.6686 C 2.42201 10.2725, 2.47239 9.93011, 2.47239 9.64271 L 2.47239 9.42287 C 2.44147 9.13032, 2.29376 8.98375, 2.02927 8.98318, 1.75217 8.98375, 1.52088 9.20703, 1.33538 9.65244, 1.14989 10.0984, 0.96955 10.6784, 0.793217 11.3923, 0.723943 11.5578, 0.607724 11.6431, 0.443986 11.6488 L 0.227005 11.6488 C 0.0758623 11.6494, 0.00029096 11.5732, 0.00029096 11.4198 L 0.00029096 11.3557 C 0.0758623 11.0694, 0.161166 10.7562, 0.25563 10.4173, 0.350094 10.0784, 0.476047 9.75779, 0.632914 9.4555, 0.790354 9.15322, 0.988443 8.89673, 1.22718 8.68605, 1.46649 8.47536, 1.76477 8.37002, 2.12316 8.36945, 2.63956 8.37002, 3.04547 8.52575, 3.34089 8.83719, 3.6363 9.14864, 3.79031 9.45092, 3.8029 9.74347, 4.0674 9.39596, 4.43495 9.07994, 4.9067 8.79597, 5.37845 8.512, 5.92577 8.37002, 6.54808 8.36945, 6.93224 8.37002, 7.2849 8.43872, 7.60551 8.57613, 7.92612 8.71353, 8.17458 8.93509, 8.35035 9.23967, 8.50149 9.50302, 8.58336 9.72286, 8.59595 9.8992, 8.87305 9.50874, 9.25663 9.15665, 9.74727 8.84177, 10.2379 8.52746, 10.8133 8.37002, 11.4734 8.36945, 11.8444 8.37002, 12.1907 8.43872, 12.5113 8.57613, 12.832 8.71353, 13.0839 8.93509, 13.2659 9.23967, 13.4548 9.55168, 13.5464 9.90263, 13.5396 10.2931 L 13.5396 10.3389 C 13.527 10.7305, 13.4709 11.1244, 13.3701 11.5205, 13.2253 12.077, 13.0587 12.6238, 12.8697 13.1608, 12.6814 13.6984, 12.4833 14.2417, 12.2755 14.7907, 12.0865 15.2859, 11.9921 15.701, 11.9921 16.0365, 11.9921 16.3119, 12.1117 16.4493, 12.351 16.4487, 12.5652 16.4493, 12.7581 16.3852, 12.931 16.2569, 13.1039 16.1287, 13.2613 15.9563, 13.4027 15.7394, 13.5447 15.523, 13.6718 15.2665, 13.7852 14.9699, 13.8985 14.6739, 13.9987 14.3608, 14.0869 14.0304, 14.1247 13.8724, 14.2352 13.7928, 14.4172 13.7923 L 14.6245 13.7923 C 14.6943 13.7928, 14.7665 13.814, 14.8415 13.8564, 14.8667 13.9119, 14.8792 13.9577, 14.8792 13.9938, 14.8792 14.019, 14.8701 14.0465, 14.8512 14.0762 Z" stroke="none" fill="#000000" />
			<rect />
		</svg>
	</g>
	<g transform="matrix(1 0 -0 1 48.0603 130.802)">
		<svg width="30.0150681" height="32.9571342">
			<defs />
			<path d="M 7.75093 8.56181 C 7.92096 8.72727, 8.02802 8.95914, 8.07153 9.25799, 8.08413 9.40512, 8.09043 9.54539, 8.09043 9.67935, 8.09043 9.85111, 8.07783 10.0217, 8.05264 10.1923, 8.01485 10.5347, 7.95703 10.8816, 7.87803 11.2326, 7.79959 11.5841, 7.72287 11.8967, 7.6473 12.1709, 7.52135 12.6908, 7.35303 13.2341, 7.14235 13.802, 6.93167 14.3699, 6.67232 14.8921, 6.36431 15.3684, 6.0563 15.8447, 5.69676 16.2449, 5.28456 16.5684, 4.87235 16.8918, 4.39602 17.0533, 3.855 17.0533, 3.42791 17.0533, 3.02371 16.9771, 2.643 16.8243, 2.26285 16.672, 1.96572 16.4247, 1.7516 16.0823, 1.51916 15.7348, 1.4058 15.338, 1.4121 14.8915, 1.4121 14.8674, 1.4184 14.8434, 1.43099 14.8182, 1.43099 14.3854, 1.48137 13.9486, 1.58156 13.5083, 1.68232 13.0875, 1.82889 12.6238, 2.02068 12.1165, 2.21247 11.6099, 2.39624 11.1181, 2.572 10.6412, 2.76093 10.1351, 2.8554 9.71943, 2.8554 9.39539, 2.8554 9.12116, 2.73918 8.98375, 2.50617 8.98318, 2.29262 8.98375, 2.09911 9.04501, 1.92621 9.16696, 1.75332 9.28947, 1.59645 9.45894, 1.45447 9.67535, 1.31306 9.89233, 1.18596 10.1488, 1.0726 10.4448, 0.959244 10.7414, 0.86478 11.0568, 0.789209 11.3923, 0.720508 11.5578, 0.604288 11.6431, 0.440551 11.6488 L 0.223569 11.6488 C 0.0724269 11.6494, -0.00314435 11.5732, -0.00314435 11.4198 L -0.00314435 11.3557 C 0.0850222 11.0202, 0.201814 10.6772, 0.346087 10.3257, 0.490932 9.97477, 0.673562 9.65588, 0.893406 9.36848, 1.11325 9.08165, 1.36515 8.84349, 1.64797 8.65399, 1.93079 8.46506, 2.25483 8.37002, 2.61952 8.36945, 2.9344 8.37002, 3.20291 8.43758, 3.42619 8.57155, 3.64947 8.70609, 3.81893 8.88471, 3.93515 9.10742, 4.05194 9.33069, 4.11606 9.58203, 4.12866 9.86256 L 4.12866 9.92668 C 4.12866 10.19, 4.07542 10.4614, 3.96836 10.7419, 3.7863 11.2188, 3.60538 11.706, 3.42619 12.2035, 3.24699 12.7016, 3.10673 13.1488, 3.00597 13.5449, 2.90578 13.9606, 2.8365 14.3579, 2.79872 14.7358, 2.78612 14.8216, 2.77983 14.9041, 2.77983 14.9831, 2.77983 15.2585, 2.82734 15.5178, 2.92124 15.7617, 3.0031 15.9758, 3.1365 16.1441, 3.32199 16.2661, 3.50749 16.3886, 3.72618 16.4493, 3.97752 16.4487, 4.3485 16.4493, 4.68342 16.3291, 4.98227 16.0875, 5.28112 15.8464, 5.54734 15.5212, 5.77978 15.1119, 6.01222 14.7031, 6.21832 14.2371, 6.39751 13.715, 6.57671 13.1928, 6.7353 12.6661, 6.87384 12.1343, 6.93682 11.8663, 6.96773 11.6099, 6.96773 11.3648, 6.96773 11.1822, 6.95571 11.0081, 6.93052 10.8427, 6.84865 10.4465, 6.66602 10.1105, 6.3832 9.83508, 6.25152 9.70741, 6.18225 9.56084, 6.17538 9.39539, 6.17538 9.3347, 6.18511 9.27688, 6.20401 9.22134, 6.26068 9.00837, 6.37232 8.82345, 6.53892 8.66773, 6.70552 8.512, 6.9019 8.41296, 7.12861 8.36945, 7.1664 8.358, 7.20991 8.3517, 7.26029 8.35113, 7.44292 8.3517, 7.60666 8.42212, 7.75093 8.56181 Z" stroke="none" fill="#000000" />
			<rect />
		</svg>
	</g>
	<g transform="matrix(1 0 -0 1 67.1313 17.5049)">
		<svg width="41.9788857" height="47.9999886">
			<defs />
			<path d="M 12.2646 10.4122 C 12.0385 11.2984, 11.672 12.1532, 11.1659 12.9776, 10.6599 13.802, 10.0226 14.556, 9.25548 15.2396, 8.56389 15.8567, 7.80761 16.3474, 6.98663 16.7103, 6.16622 17.0733, 5.3441 17.2548, 4.51968 17.2548, 3.69012 17.2548, 2.95272 17.0722, 2.30808 16.7058, 1.66343 16.3394, 1.14932 15.8447, 0.765737 15.2212, 0.34437 14.5319, 0.102198 13.7682, 0.039222 12.9312, 0.0140315 12.7303, 0.00143635 12.5287, 0.00143635 12.3266, 0.00143635 11.698, 0.0833052 11.0477, 0.247043 10.3755, 0.486352 9.4784, 0.855621 8.60704, 1.35542 7.76087, 1.85522 6.91528, 2.49529 6.1504, 3.27505 5.46568, 3.96664 4.84966, 4.72292 4.35329, 5.54333 3.97773, 6.36431 3.60216, 7.19273 3.41438, 8.02917 3.41381, 8.85931 3.41438, 9.59384 3.60388, 10.2316 3.98231, 10.87 4.36131, 11.3806 4.86168, 11.7642 5.484, 12.1856 6.17445, 12.4341 6.9439, 12.5096 7.79236, 12.5222 8.00075, 12.5285 8.20514, 12.5285 8.40609, 12.5285 9.0599, 12.4409 9.72859, 12.2646 10.4122 Z M 10.3587 5.79545 C 10.1515 5.28305, 9.84059 4.86626, 9.42552 4.54566, 9.01045 4.22505, 8.50092 4.06475, 7.89692 4.06418, 7.29979 4.06475, 6.70553 4.22849, 6.11412 4.55482, 5.52329 4.88172, 4.99487 5.30423, 4.52942 5.82293, 3.94488 6.45269, 3.48287 7.13512, 3.1428 7.87079, 2.8033 8.60704, 2.53937 9.35302, 2.35044 10.1099, 2.1306 10.9349, 1.99492 11.7381, 1.94453 12.519, 1.93194 12.6661, 1.92564 12.8127, 1.92564 12.9587, 1.92564 13.5701, 2.0264 14.1684, 2.22793 14.7541, 2.42258 15.2739, 2.72143 15.709, 3.1239 16.06, 3.52638 16.4115, 4.02961 16.5867, 4.63304 16.5861, 5.25593 16.5867, 5.86394 16.4081, 6.4582 16.0508, 7.05247 15.6936, 7.58547 15.2522, 8.05722 14.7266, 8.66752 14.019, 9.14213 13.2707, 9.48163 12.4829, 9.8217 11.6952, 10.0982 10.8919, 10.3118 10.0732, 10.507 9.31066, 10.6295 8.55952, 10.6799 7.81984 L 10.6799 7.49924 C 10.6799 6.88894, 10.5728 6.32101, 10.3587 5.79545 Z" stroke="none" fill="#000000" />
			<rect />
		</svg>
	</g>
	<path d="M -256.739 -9.10962 L 256.739 -9.10962, 256.739 9.10962, -256.739 9.10962 Z" fill="none" stroke="#000000" stroke-width="4.26666689" stroke-linecap="round" stroke-linejoin="round" transform="matrix(-1.36598e-008 0.3125 -0.3125 -1.36598e-008 92.598 100.24)" />
	<path d="M 16.0001 -0 C 16.0001 8.83662, 8.83662 16.0001, -0 16.0001, -8.83662 16.0001, -16.0001 8.83662, -16.0001 -0, -16.0001 -8.83662, -8.83662 -16.0001, -0 -16.0001, 8.83662 -16.0001, 16.0001 -8.83662, 16.0001 -0 Z" stroke="none" fill="#FFFFFF" transform="matrix(0.3125 0 0 0.3125 92.598 20.009)" />
	<path d="M 16.0001 -0 C 16.0001 8.83662, 8.83662 16.0001, -0 16.0001, -8.83662 16.0001, -16.0001 8.83662, -16.0001 -0, -16.0001 -8.83662, -8.83662 -16.0001, -0 -16.0001, 8.83662 -16.0001, 16.0001 -8.83662, 16.0001 -0 Z" fill="none" stroke="#000000" stroke-width="4.26666689" stroke-linecap="round" stroke-linejoin="round" transform="matrix(0.3125 0 0 0.3125 92.598 20.009)" />
	<path d="M -9.20508 9.20522 L 9.20508 -9.20543" fill="none" stroke="#000000" stroke-width="3.20000005" stroke-linecap="round" stroke-linejoin="round" transform="matrix(0.3125 0 0 0.3125 16.147 11.3767)" />
	<path d="M -9.20508 9.20522 L 9.20508 -9.20543" fill="none" stroke="#000000" stroke-width="3.20000005" stroke-linecap="round" stroke-linejoin="round" transform="matrix(0.3125 0 0 0.3125 23.9143 11.3767)" />
	<path d="M -9.20508 9.20522 L 9.20508 -9.20543" fill="none" stroke="#000000" stroke-width="3.20000005" stroke-linecap="round" stroke-linejoin="round" transform="matrix(0.3125 0 0 0.3125 31.6816 11.3767)" />
	<path d="M -9.20508 9.20522 L 9.20508 -9.20543" fill="none" stroke="#000000" stroke-width="3.20000005" stroke-linecap="round" stroke-linejoin="round" transform="matrix(0.3125 0 0 0.3125 54.9836 11.3767)" />
	<path d="M -9.20508 9.20522 L 9.20508 -9.20543" fill="none" stroke="#000000" stroke-width="3.20000005" stroke-linecap="round" stroke-linejoin="round" transform="matrix(0.3125 0 0 0.3125 62.751 11.3767)" />
	<path d="M -9.20505 9.20522 L 9.20508 -9.20543" fill="none" stroke="#000000" stroke-width="3.20000005" stroke-linecap="round" stroke-linejoin="round" transform="matrix(0.3125 0 0 0.3125 101.587 11.3767)" />
	<path d="M -9.20563 9.20522 L 9.20508 -9.20543" fill="none" stroke="#000000" stroke-width="3.20000005" stroke-linecap="round" stroke-linejoin="round" transform="matrix(0.3125 0 0 0.3125 124.89 11.3767)" />
	<path d="M -9.20563 9.20522 L 9.20508 -9.20543" fill="none" stroke="#000000" stroke-width="3.20000005" stroke-linecap="round" stroke-linejoin="round" transform="matrix(0.3125 0 0 0.3125 163.726 11.3767)" />
	<path d="M -9.20563 9.20522 L 9.20508 -9.20543" fill="none" stroke="#000000" stroke-width="3.20000005" stroke-linecap="round" stroke-linejoin="round" transform="matrix(0.3125 0 0 0.3125 148.192 11.3767)" />
	<path d="M -9.20508 9.20522 L 9.20508 -9.20543" fill="none" stroke="#000000" stroke-width="3.20000005" stroke-linecap="round" stroke-linejoin="round" transform="matrix(0.3125 0 0 0.3125 70.5183 11.3767)" />
	<path d="M -9.20557 9.20522 L 9.20508 -9.20543" fill="none" stroke="#000000" stroke-width="3.20000005" stroke-linecap="round" stroke-linejoin="round" transform="matrix(0.3125 0 0 0.3125 117.122 11.3767)" />
	<path d="M -9.20605 9.20522 L 9.20508 -9.20543" fill="none" stroke="#000000" stroke-width="3.20000005" stroke-linecap="round" stroke-linejoin="round" transform="matrix(0.3125 0 0 0.3125 140.424 11.3767)" />
	<path d="M -9.20563 9.20522 L 9.20508 -9.20543" fill="none" stroke="#000000" stroke-width="3.20000005" stroke-linecap="round" stroke-linejoin="round" transform="matrix(0.3125 0 0 0.3125 155.959 11.3767)" />
	<path d="M -9.20563 9.20522 L 9.20508 -9.20543" fill="none" stroke="#000000" stroke-width="3.20000005" stroke-linecap="round" stroke-linejoin="round" transform="matrix(0.3125 0 0 0.3125 132.657 11.3767)" />
	<path d="M -9.20508 9.20522 L 9.20508 -9.20543" fill="none" stroke="#000000" stroke-width="3.20000005" stroke-linecap="round" stroke-linejoin="round" transform="matrix(0.3125 0 0 0.3125 39.449 11.3767)" />
	<path d="M -9.20508 9.20522 L 9.20508 -9.20543" fill="none" stroke="#000000" stroke-width="3.20000005" stroke-linecap="round" stroke-linejoin="round" transform="matrix(0.3125 0 0 0.3125 47.2163 11.3767)" />
	<path d="M -9.20499 9.20522 L 9.20517 -9.20543" fill="none" stroke="#000000" stroke-width="3.20000005" stroke-linecap="round" stroke-linejoin="round" transform="matrix(0.3125 0 0 0.3125 78.2856 11.3767)" />
	<path d="M -9.20508 9.20522 L 9.20508 -9.20543" fill="none" stroke="#000000" stroke-width="3.20000005" stroke-linecap="round" stroke-linejoin="round" transform="matrix(0.3125 0 0 0.3125 86.0529 11.3767)" />
	<path d="M -9.20508 9.20522 L 9.20508 -9.20543" fill="none" stroke="#000000" stroke-width="3.20000005" stroke-linecap="round" stroke-linejoin="round" transform="matrix(0.3125 0 0 0.3125 93.8202 11.3767)" />
	<path d="M -9.20508 9.20522 L 9.20459 -9.20543" fill="none" stroke="#000000" stroke-width="3.20000005" stroke-linecap="round" stroke-linejoin="round" transform="matrix(0.3125 0 0 0.3125 109.355 11.3767)" />
	<path d="M -9.20508 9.20522 L 9.20508 -9.20543" fill="none" stroke="#000000" stroke-width="3.20000005" stroke-linecap="round" stroke-linejoin="round" transform="matrix(0.3125 0 0 0.3125 171.494 11.3767)" />
	<path d="M 0 -14.9951 L 55.8413 0, 0 14.9951 Z" fill="none" stroke="#000000" stroke-width="4.26666689" stroke-linecap="round" stroke-linejoin="round" transform="matrix(0.3125 0 0 0.3125 44.2761 177.971)" />
	<path d="M -45.5249 0 L 45.525 0" fill="none" stroke="#000000" stroke-width="4.26666689" stroke-linecap="round" stroke-linejoin="round" marker-end="url(#CustomMarker-01)" transform="matrix(0.3125 0 0 0.3125 54.9836 157.672)" />
</svg>
