<?xml version="1.0"?>
<svg xmlns="http://www.w3.org/2000/svg" xmlns:xlink="http://www.w3.org/1999/xlink" width="253.298981" height="86.90168">
	<defs>
		<marker id="CustomMarker-01" markerUnits="strokeWidth" markerWidth="15.000001" markerHeight="9" viewBox="-15 -4.5 15 9" orient="auto-start-reverse">
			<path d="M 0 -0 L -10 -3, -8 -0.5, -8 0.5, -10 3 Z" fill="#000000" stroke="#000000" stroke-linejoin="round" />
		</marker>
		<marker id="CustomMarker-02" markerUnits="strokeWidth" markerWidth="15.000001" markerHeight="9" viewBox="-15 -4.5 15 9" orient="auto-start-reverse">
			<path d="M 0 -0 L -10 -3, -8 -0.5, -8 0.5, -10 3 Z" fill="#000000" stroke="#000000" stroke-linejoin="round" />
		</marker>
	</defs>
	<path d="M -173.629 -4.71432 L 173.629 -4.71432, 173.629 4.71432, -173.629 4.71432 Z" fill="none" stroke="#000000" stroke-width="2.20000005" stroke-linecap="round" stroke-linejoin="round" transform="matrix(0.454545 0 -0 0.454545 116.686 45.7802)" />
	<ellipse cx="292.45090961456299" cy="537.12464618682861" rx="8.8000001907348633" ry="8.8000001907348633" stroke="none" fill="#000000" transform="matrix(0.454545 0 0 0.454545 -95.1687 -198.367)" />
	<path d="M -8.25 3.60619e-007 L -1.43008e-006 -32.7165, 8.25 -3.60619e-007 Z" fill="none" stroke="#000000" stroke-opacity="0.403921545" stroke-width="2.20000005" stroke-linecap="round" stroke-linejoin="round" transform="matrix(0.454545 0 0 0.454545 193.823 75.6724)" />
	<g transform="matrix(1 0 -0 1 111.152 17.208)">
		<svg width="39.020092" height="45.0428467">
			<defs />
			<path d="M 9.44155 16.5953 C 9.38544 16.7602, 9.26235 16.8426, 9.07342 16.8426 L 0.271085 16.8426 C 0.176621 16.8426, 0.107348 16.8151, 0.0632644 16.7602, 0.0197537 16.7178, -0.00200171 16.672, -0.00257422 16.6228, -0.00200171 16.5867, 0.00429589 16.55, 0.0163186 16.5128 L 0.0541042 16.3754 C 0.0729971 16.2964, 0.11708 16.2283, 0.186354 16.1699, 0.255628 16.1121, 0.334062 16.0829, 0.421656 16.0823, 0.717643 16.0829, 0.994738 16.0783, 1.25237 16.0691, 1.51 16.06, 1.70522 16.0279, 1.8369 15.9724, 1.95026 15.9117, 2.03842 15.7468, 2.1014 15.4777 L 4.77158 5.15423 C 4.79677 5.03859, 4.80937 4.94699, 4.80937 4.87943, 4.80937 4.7884, 4.79048 4.73058, 4.75269 4.70539, 4.67082 4.6573, 4.50079 4.62695, 4.24316 4.61436, 3.98553 4.60234, 3.70843 4.59604, 3.41245 4.59547, 3.31855 4.59604, 3.24928 4.56569, 3.2052 4.50386, 3.16741 4.4678, 3.14852 4.422, 3.14852 4.36646, 3.14852 4.33039, 3.15825 4.29662, 3.17657 4.2657 L 3.2052 4.11914 C 3.27447 3.93651, 3.39699 3.84491, 3.57332 3.84433, 4.30957 3.88155, 5.04811 3.89987, 5.79008 3.89929, 5.91603 3.89987, 6.04542 3.89357, 6.1771 3.88097, 7.0393 3.88155, 7.91638 3.86952, 8.80949 3.84433, 8.89766 3.84491, 8.97323 3.87525, 9.03621 3.93593, 9.0614 3.98517, 9.07342 4.03097, 9.07342 4.07334, 9.07342 4.11055, 9.06426 4.14433, 9.04537 4.1741 L 9.01732 4.3115 C 8.99842 4.39165, 8.95606 4.45864, 8.88965 4.5136, 8.82381 4.56856, 8.74366 4.59604, 8.64919 4.59547, 8.3034 4.59604, 7.95588 4.60234, 7.60665 4.61436, 7.25742 4.62695, 7.00151 4.66016, 6.83777 4.71455, 6.6809 4.77638, 6.57041 4.93496, 6.50743 5.19088 L 3.85614 15.5235 C 3.79317 15.7377, 3.76168 15.8968, 3.76168 15.9999 L 3.76168 16.0365 C 3.78687 16.0617, 3.9632 16.0766, 4.2901 16.0823 L 5.95095 16.0823 C 6.39751 16.0829, 6.84292 16.0188, 7.28605 15.8905, 7.72917 15.7623, 8.13336 15.5424, 8.49805 15.2304, 8.93888 14.8829, 9.29269 14.4237, 9.56006 13.8524, 9.82742 13.2816, 10.077 12.6936, 10.3095 12.0885, 10.3599 11.9242, 10.4703 11.8417, 10.6398 11.8411 L 10.819 11.8411 C 10.9827 11.8417, 11.0646 11.9213, 11.0646 12.0793 L 11.0646 12.1526 Z" stroke="none" fill="#000000" />
			<rect />
		</svg>
	</g>
	<g transform="matrix(1 0 -0 1 228.585 55.4868)">
		<svg width="30.0150681" height="32.9571342">
			<defs />
			<path d="M 7.75007 8.56181 C 7.9201 8.72727, 8.02716 8.95914, 8.07067 9.25799, 8.08327 9.40512, 8.08957 9.54539, 8.08957 9.67935, 8.08957 9.85111, 8.07697 10.0217, 8.05178 10.1923, 8.014 10.5347, 7.95617 10.8816, 7.87717 11.2326, 7.79873 11.5841, 7.72202 11.8967, 7.64644 12.1709, 7.52049 12.6908, 7.35217 13.2341, 7.14149 13.802, 6.93081 14.3699, 6.67146 14.8921, 6.36345 15.3684, 6.05544 15.8447, 5.69533 16.2449, 5.28312 16.5684, 4.87092 16.8918, 4.39459 17.0533, 3.85357 17.0533, 3.4259 17.0533, 3.02171 16.9771, 2.64099 16.8243, 2.26084 16.672, 1.96371 16.4247, 1.74959 16.0823, 1.51715 15.7348, 1.4038 15.338, 1.40952 14.8915, 1.40952 14.8674, 1.41582 14.8434, 1.42842 14.8182, 1.42842 14.3854, 1.4788 13.9486, 1.57956 13.5083, 1.68032 13.0875, 1.82688 12.6238, 2.01867 12.1165, 2.21046 11.6099, 2.39424 11.1181, 2.57 10.6412, 2.75893 10.1351, 2.85339 9.71943, 2.85339 9.39539, 2.85339 9.12116, 2.73717 8.98375, 2.50416 8.98318, 2.29062 8.98375, 2.09711 9.04501, 1.92421 9.16696, 1.75131 9.28947, 1.59387 9.45894, 1.45246 9.67535, 1.31105 9.89233, 1.18338 10.1488, 1.07002 10.4448, 0.956668 10.7414, 0.862776 11.0568, 0.787205 11.3923, 0.717931 11.5578, 0.601712 11.6431, 0.437974 11.6488 L 0.220993 11.6488 C 0.0698501 11.6494, -0.00572118 11.5732, -0.00572118 11.4198 L -0.00572118 11.3557 C 0.0824453 11.0202, 0.199237 10.6772, 0.34351 10.3257, 0.488355 9.97477, 0.670985 9.65588, 0.890829 9.36848, 1.11125 9.08165, 1.36315 8.84349, 1.64597 8.65399, 1.92879 8.46506, 2.25283 8.37002, 2.61752 8.36945, 2.9324 8.37002, 3.20091 8.43758, 3.42418 8.57155, 3.64746 8.70609, 3.8175 8.88471, 3.93372 9.10742, 4.05051 9.33069, 4.11463 9.58203, 4.12723 9.86256 L 4.12723 9.92668 C 4.12723 10.19, 4.07398 10.4614, 3.96635 10.7419, 3.78429 11.2188, 3.60395 11.706, 3.42418 12.2035, 3.24499 12.7016, 3.10472 13.1488, 3.00396 13.5449, 2.90377 13.9606, 2.8345 14.3579, 2.79671 14.7358, 2.78412 14.8216, 2.77782 14.9041, 2.77782 14.9831, 2.77782 15.2585, 2.82534 15.5178, 2.91923 15.7617, 3.0011 15.9758, 3.13507 16.1441, 3.32056 16.2661, 3.50605 16.3886, 3.72475 16.4493, 3.97608 16.4487, 4.34707 16.4493, 4.68199 16.3291, 4.98084 16.0875, 5.27969 15.8464, 5.54591 15.5212, 5.77834 15.1119, 6.01078 14.7031, 6.21689 14.2371, 6.39608 13.715, 6.57585 13.1928, 6.73444 12.6661, 6.87241 12.1343, 6.93539 11.8663, 6.96688 11.6099, 6.96688 11.3648, 6.96688 11.1822, 6.95428 11.0081, 6.92909 10.8427, 6.84779 10.4465, 6.66516 10.1105, 6.38177 9.83508, 6.25009 9.70741, 6.18082 9.56084, 6.17452 9.39539, 6.17452 9.3347, 6.18425 9.27688, 6.20257 9.22134, 6.25983 9.00837, 6.37146 8.82345, 6.53807 8.66773, 6.70467 8.512, 6.90104 8.41296, 7.12718 8.36945, 7.16496 8.358, 7.20905 8.3517, 7.25943 8.35113, 7.44206 8.3517, 7.6058 8.42212, 7.75007 8.56181 Z" stroke="none" fill="#000000" />
			<rect />
		</svg>
	</g>
	<path d="M -8.25 3.60619e-007 L -1.43008e-006 -32.7163, 8.25 -3.60619e-007 Z" fill="none" stroke="#000000" stroke-width="2.20000005" stroke-linecap="round" stroke-linejoin="round" transform="matrix(0.454545 0 0 0.454545 193.823 30.9154)" />
	<g transform="matrix(1 0 -0 1 224.537 9)">
		<svg width="116.977852" height="89.9142609">
			<defs />
			<polyline points="0.3752 13.3869 9.50958 13.3869" fill="none" stroke="#000000" stroke-width="0.750400007" stroke-linecap="round" stroke-linejoin="round" />
			<path d="M 2.37267 3.19713 C 1.72472 3.17661, 1.09441 3.16635, 0.481416 3.16635, -0.131261 3.16635, -0.761571 3.17661, -1.40951 3.19713 L -1.40951 2.75598, -1.04499 2.75598 C -0.928927 2.7563, -0.819601 2.75469, -0.717648 2.75117, -0.615375 2.74796, -0.518552 2.7393, -0.426859 2.72552, -0.335166 2.71205, -0.255976 2.69827, -0.18929 2.68416, -0.132864 2.67422, -0.086376 2.6428, -0.0495062 2.58958, -0.012316 2.53668, 0.00595856 2.47769, 0.00595856 2.41229 L 0.00595856 -3.36887 C -0.169733 -3.28295, -0.386463 -3.21787, -0.643588 -3.17362, -0.900714 -3.12906, -1.18221 -3.10694, -1.4887 -3.10726 L -1.4887 -3.54328 C -1.06615 -3.54296, -0.675969 -3.59329, -0.318494 -3.69429, 0.0389807 -3.79496, 0.348044 -3.98411, 0.608376 -4.26144 L 0.772206 -4.26144 C 0.888265 -4.26112, 0.946294 -4.20469, 0.946294 -4.09216 L 0.946294 2.41229 C 0.946294 2.4809, 0.963928 2.54085, 0.999194 2.59215, 1.03446 2.64344, 1.08576 2.67422, 1.15244 2.68416, 1.20887 2.69827, 1.28133 2.71205, 1.36917 2.72552, 1.45702 2.7393, 1.55641 2.74796, 1.66734 2.75117, 1.77827 2.75469, 1.88663 2.7563, 1.99243 2.75598 L 2.37267 2.75598, 2.37267 3.19713 Z" stroke="none" fill="#000000" transform="matrix(1.12 0 0 1 4.68024 6.22446)" />
			<path d="M 2.39138 3.19713 L -1.90858 3.19713, -1.90858 2.915 C -1.90858 2.8948, -1.898 2.86402, -1.87684 2.82266 L -0.149418 0.945196 C 0.0551279 0.71981, 0.261918 0.488975, 0.471594 0.253009, 0.68127 0.0170434, 0.868504 -0.224052, 1.03394 -0.470277, 1.19937 -0.716502, 1.33146 -0.970422, 1.4302 -1.23204, 1.52895 -1.49365, 1.578 -1.76809, 1.578 -2.05567, 1.578 -2.29805, 1.54658 -2.52472, 1.4831 -2.73503, 1.41962 -2.94535, 1.32825 -3.13002, 1.20835 -3.28904, 1.08844 -3.44806, 0.938716 -3.5763, 0.759177 -3.67377, 0.579638 -3.77123, 0.371886 -3.81996, 0.13592 -3.82028, -0.216105 -3.81996, -0.527092 -3.7148, -0.7964 -3.50449, -1.06571 -3.29417, -1.24461 -3.06237, -1.33277 -2.80974, -1.35009 -2.80268, -1.32187 -2.79915, -1.24813 -2.79948 L -1.15836 -2.79948 C -1.05256 -2.77511, -0.961191 -2.73824, -0.883605 -2.68887, -0.806018 -2.63917, -0.740935 -2.57088, -0.688036 -2.48368, -0.635136 -2.39647, -0.608846 -2.29132, -0.608846 -2.16852, -0.608846 -1.96302, -0.675532 -1.8056, -0.809545 -1.69627, -0.943558 -1.58663, -1.09328 -1.53212, -1.25871 -1.53244, -1.41709 -1.53212, -1.56489 -1.58663, -1.70243 -1.69627, -1.83965 -1.8056, -1.90858 -1.96302, -1.90858 -2.16852, -1.90858 -2.45547, -1.85215 -2.72734, -1.7393 -2.98382, -1.62645 -3.24031, -1.47352 -3.46249, -1.27987 -3.65068, -1.08623 -3.83856, -0.857315 -3.98732, -0.593136 -4.09697, -0.328958 -4.20629, -0.0487483 -4.26112, 0.24685 -4.26144, 0.612981 -4.26112, 0.948655 -4.20725, 1.25323 -4.09953, 1.55781 -3.99181, 1.8175 -3.83695, 2.0323 -3.63529, 2.24711 -3.43331, 2.41543 -3.19991, 2.53693 -2.93509, 2.65844 -2.66995, 2.71904 -2.37692, 2.71904 -2.05567, 2.71904 -1.6998, 2.63825 -1.37214, 2.47602 -1.07302, 2.31411 -0.77357, 2.11342 -0.499131, 1.87392 -0.2497, 1.63443 5.126e-005, 1.37987 0.235055, 1.11056 0.455632, 0.841252 0.676208, 0.597272 0.890693, 0.378939 1.09909 L -0.836155 2.24301, 0.754048 2.24301 C 0.975907 2.24333, 1.18302 2.24172, 1.37474 2.2382, 1.56678 2.23499, 1.72965 2.22794, 1.86334 2.21768, 1.99736 2.20742, 2.06597 2.20069, 2.06917 2.19684, 2.09738 2.17312, 2.12399 2.12534, 2.14868 2.05353, 2.17337 1.98171, 2.19613 1.89707, 2.21729 1.79961, 2.23845 1.70215, 2.25961 1.60308, 2.28077 1.50209, 2.30193 1.40142, 2.32117 1.29081, 2.3388 1.1709 L 2.72962 1.1709 Z" stroke="none" fill="#000000" transform="matrix(1.12 0 0 1 4.66809 20.5494)" />
			<path d="M 19.4171 10.7413 C 19.5871 10.9067, 19.6941 11.1386, 19.7377 11.4375, 19.7503 11.5846, 19.7565 11.7249, 19.7565 11.8588, 19.7565 12.0306, 19.744 12.2012, 19.7188 12.3718, 19.681 12.7142, 19.6232 13.0611, 19.5441 13.412, 19.4657 13.7636, 19.389 14.0762, 19.3134 14.3504, 19.1875 14.8702, 19.0192 15.4135, 18.8085 15.9815, 18.5978 16.5494, 18.3384 17.0715, 18.0304 17.5479, 17.7224 18.0242, 17.3623 18.4244, 16.9501 18.7478, 16.5379 19.0713, 16.0616 19.2328, 15.5205 19.2328, 15.0929 19.2328, 14.6887 19.1566, 14.308 19.0038, 13.9278 18.8515, 13.6307 18.6041, 13.4166 18.2618, 13.1841 17.9143, 13.0708 17.5175, 13.0765 17.071, 13.0765 17.0469, 13.0828 17.0229, 13.0954 16.9977, 13.0954 16.5649, 13.1458 16.128, 13.2465 15.6878, 13.3473 15.267, 13.4939 14.8032, 13.6857 14.296, 13.8774 13.7893, 14.0612 13.2975, 14.237 12.8206, 14.4259 12.3145, 14.5204 11.8989, 14.5204 11.5749, 14.5204 11.3006, 14.4042 11.1632, 14.1711 11.1627, 13.9576 11.1632, 13.7641 11.2245, 13.5912 11.3464, 13.4183 11.469, 13.2609 11.6384, 13.1194 11.8548, 12.978 12.0718, 12.8504 12.3283, 12.737 12.6243, 12.6236 12.9208, 12.5298 13.2363, 12.4542 13.5718, 12.3849 13.7372, 12.2687 13.8225, 12.105 13.8283 L 11.888 13.8283 C 11.7368 13.8288, 11.6613 13.7527, 11.6613 13.5993 L 11.6613 13.5351 C 11.7494 13.1996, 11.8662 12.8567, 12.0105 12.5052, 12.1553 12.1542, 12.338 11.8354, 12.5578 11.548, 12.7782 11.2611, 13.0301 11.023, 13.313 10.8335, 13.5958 10.6445, 13.9198 10.5495, 14.2845 10.5489, 14.5994 10.5495, 14.8679 10.6171, 15.0912 10.751, 15.3144 10.8856, 15.4845 11.0642, 15.6007 11.2869, 15.7175 11.5102, 15.7816 11.7615, 15.7942 12.042 L 15.7942 12.1062 C 15.7942 12.3695, 15.741 12.6409, 15.6333 12.9214, 15.4513 13.3983, 15.2709 13.8855, 15.0912 14.383, 14.912 14.8811, 14.7717 15.3282, 14.6709 15.7244, 14.5708 16.1401, 14.5015 16.5374, 14.4637 16.9152, 14.4511 17.0011, 14.4448 17.0836, 14.4448 17.1626, 14.4448 17.4379, 14.4923 17.6973, 14.5862 17.9412, 14.6681 18.1553, 14.802 18.3236, 14.9875 18.4456, 15.173 18.5681, 15.3917 18.6288, 15.6431 18.6282, 16.0141 18.6288, 16.349 18.5085, 16.6478 18.2669, 16.9467 18.0259, 17.2129 17.7007, 17.4453 17.2914, 17.6778 16.8826, 17.8839 16.4166, 18.0631 15.8945, 18.2428 15.3723, 18.4014 14.8456, 18.5394 14.3138, 18.6024 14.0458, 18.6339 13.7893, 18.6339 13.5443, 18.6339 13.3617, 18.6213 13.1876, 18.5961 13.0222, 18.5148 12.626, 18.3321 12.2899, 18.0488 12.0146, 17.9171 11.8869, 17.8478 11.7403, 17.8415 11.5749, 17.8415 11.5142, 17.8512 11.4564, 17.8696 11.4008, 17.9268 11.1878, 18.0384 11.0029, 18.205 10.8472, 18.3716 10.6915, 18.568 10.5924, 18.7942 10.5489, 18.8319 10.5375, 18.876 10.5312, 18.9264 10.5306, 19.109 10.5312, 19.2728 10.6016, 19.4171 10.7413 Z" stroke="none" fill="#000000" />
			<rect />
		</svg>
	</g>
	<path d="M 0 24.1605 L 0 -24.1608" fill="none" stroke="#000000" stroke-width="2.20000005" stroke-linecap="round" stroke-linejoin="round" marker-end="url(#CustomMarker-01)" transform="matrix(0.454545 0 0 0.454545 213.738 66.6942)" />
	<path d="M 0 16.009 L 0 -16.0089" fill="none" stroke="#000000" stroke-width="2.20000005" stroke-linecap="round" stroke-linejoin="round" marker-end="url(#CustomMarker-02)" transform="matrix(0.454545 0 0 0.454545 213.738 22.253)" />
	<g transform="matrix(1 0 -0 1 8.99999 34.5728)">
		<svg width="41.9788857" height="47.9999886">
			<defs />
			<path d="M 12.2646 10.4122 C 12.0385 11.2984, 11.672 12.1532, 11.1659 12.9776, 10.6599 13.802, 10.0226 14.556, 9.25548 15.2396, 8.56389 15.8567, 7.80761 16.3474, 6.98663 16.7103, 6.16622 17.0733, 5.3441 17.2548, 4.51968 17.2548, 3.69012 17.2548, 2.95272 17.0722, 2.30808 16.7058, 1.66343 16.3394, 1.14932 15.8447, 0.765737 15.2212, 0.34437 14.5319, 0.102198 13.7682, 0.039222 12.9312, 0.0140315 12.7303, 0.00143635 12.5287, 0.00143635 12.3266, 0.00143635 11.698, 0.0833052 11.0477, 0.247043 10.3755, 0.486352 9.4784, 0.855621 8.60704, 1.35542 7.76087, 1.85522 6.91528, 2.49529 6.1504, 3.27505 5.46568, 3.96664 4.84966, 4.72292 4.35329, 5.54333 3.97773, 6.36431 3.60216, 7.19273 3.41438, 8.02917 3.41381, 8.85931 3.41438, 9.59384 3.60388, 10.2316 3.98231, 10.87 4.36131, 11.3806 4.86168, 11.7642 5.484, 12.1856 6.17445, 12.4341 6.9439, 12.5096 7.79236, 12.5222 8.00075, 12.5285 8.20514, 12.5285 8.40609, 12.5285 9.0599, 12.4409 9.72859, 12.2646 10.4122 Z M 10.3587 5.79545 C 10.1515 5.28305, 9.84059 4.86626, 9.42552 4.54566, 9.01045 4.22505, 8.50092 4.06475, 7.89692 4.06418, 7.29979 4.06475, 6.70553 4.22849, 6.11412 4.55482, 5.52329 4.88172, 4.99487 5.30423, 4.52942 5.82293, 3.94488 6.45269, 3.48287 7.13512, 3.1428 7.87079, 2.8033 8.60704, 2.53937 9.35302, 2.35044 10.1099, 2.1306 10.9349, 1.99492 11.7381, 1.94453 12.519, 1.93194 12.6661, 1.92564 12.8127, 1.92564 12.9587, 1.92564 13.5701, 2.0264 14.1684, 2.22793 14.7541, 2.42258 15.2739, 2.72143 15.709, 3.1239 16.06, 3.52638 16.4115, 4.02961 16.5867, 4.63304 16.5861, 5.25593 16.5867, 5.86394 16.4081, 6.4582 16.0508, 7.05247 15.6936, 7.58547 15.2522, 8.05722 14.7266, 8.66752 14.019, 9.14213 13.2707, 9.48163 12.4829, 9.8217 11.6952, 10.0982 10.8919, 10.3118 10.0732, 10.507 9.31066, 10.6295 8.55952, 10.6799 7.81984 L 10.6799 7.49924 C 10.6799 6.88894, 10.5728 6.32101, 10.3587 5.79545 Z" stroke="none" fill="#000000" />
			<rect />
		</svg>
	</g>
</svg>
