<?xml version="1.0"?>
<svg xmlns="http://www.w3.org/2000/svg" xmlns:xlink="http://www.w3.org/1999/xlink" width="322.825531" height="322.826019">
	<defs>
		<marker id="CustomMarker-01" markerUnits="strokeWidth" markerWidth="15.000001" markerHeight="9" viewBox="-15 -4.5 15 9" orient="auto-start-reverse">
			<path d="M 0 -0 L -10 -3, -8 -0.5, -8 0.5, -10 3 Z" fill="#000000" stroke="#000000" stroke-linejoin="round" />
		</marker>
		<marker id="CustomMarker-02" markerUnits="strokeWidth" markerWidth="15.000001" markerHeight="9" viewBox="-15 -4.5 15 9" orient="auto-start-reverse">
			<path d="M 0 -0 L -10 -3, -8 -0.5, -8 0.5, -10 3 Z" fill="#000000" stroke="#000000" stroke-linejoin="round" />
		</marker>
		<marker id="CustomMarker-03" markerUnits="strokeWidth" markerWidth="15.000001" markerHeight="9" viewBox="-15 -4.5 15 9" orient="auto-start-reverse">
			<path d="M 0 -0 L -10 -3, -8 -0.5, -8 0.5, -10 3 Z" fill="#000000" stroke="#000000" stroke-linejoin="round" />
		</marker>
		<marker id="CustomMarker-04" markerUnits="strokeWidth" markerWidth="15.000001" markerHeight="9" viewBox="-15 -4.5 15 9" orient="auto-start-reverse">
			<path d="M 0 -0 L -10 -3, -8 -0.5, -8 0.5, -10 3 Z" fill="#000000" stroke="#000000" stroke-linejoin="round" />
		</marker>
		<marker id="CustomMarker-05" markerUnits="strokeWidth" markerWidth="15.000001" markerHeight="9" viewBox="-15 -4.5 15 9" orient="auto-start-reverse">
			<path d="M 0 -0 L -10 -3, -8 -0.5, -8 0.5, -10 3 Z" fill="#000000" stroke="#000000" stroke-linejoin="round" />
		</marker>
	</defs>
	<path d="M 177.17 -0 C 177.17 97.8482, 97.8482 177.17, -0 177.17, -97.8482 177.17, -177.17 97.8482, -177.17 -0, -177.17 -97.8482, -97.8482 -177.17, -0 -177.17, 97.8482 -177.17, 177.17 -97.8482, 177.17 -0 Z" fill="none" stroke="#808080" stroke-opacity="0.490196049" stroke-width="2.9333334" stroke-linecap="round" stroke-linejoin="round" transform="matrix(0.454545 0 0 0.454545 161.413 161.413)" />
	<path d="M 249.756 -0 C 249.756 137.937, 137.937 249.756, -0 249.756, -137.937 249.756, -249.756 137.937, -249.756 -0, -249.756 -137.937, -137.937 -249.756, -0 -249.756, 137.937 -249.756, 249.756 -137.937, 249.756 -0 Z" fill="none" stroke="#808080" stroke-opacity="0.490196049" stroke-width="2.9333334" stroke-linecap="round" stroke-linejoin="round" transform="matrix(0.454545 0 0 0.454545 161.413 161.413)" />
	<path d="M -88.5588 88.6303 L 88.5588 88.6303" fill="none" stroke="#000000" stroke-width="2.9333334" stroke-linecap="round" stroke-linejoin="round" marker-end="url(#CustomMarker-01)" transform="matrix(0.321412 -0.321412 0.321412 0.321412 161.413 104.462)" />
	<path d="M -88.5588 88.6303 L -88.5588 -88.6303" fill="none" stroke="#000000" stroke-width="2.9333334" stroke-linecap="round" stroke-linejoin="round" marker-end="url(#CustomMarker-02)" transform="matrix(0.321412 -0.321412 0.321412 0.321412 161.413 104.462)" />
	<path d="M -88.5588 88.6303 L 88.5588 -88.6303" fill="none" stroke="#000000" stroke-width="2.9333334" stroke-linecap="round" stroke-linejoin="round" marker-end="url(#CustomMarker-03)" transform="matrix(0.321412 -0.321412 0.321412 0.321412 161.413 104.462)" />
	<path d="M 88.5588 -88.6303 L 88.5588 88.6303" fill="none" stroke="#000000" stroke-width="2.9333334" stroke-linecap="round" stroke-linejoin="round" stroke-dasharray="10.2813, 7.31867" transform="matrix(0.321412 -0.321412 0.321412 0.321412 161.413 104.462)" />
	<path d="M 88.5588 -88.6303 L -88.5588 -88.6303" fill="none" stroke="#000000" stroke-width="2.9333334" stroke-linecap="round" stroke-linejoin="round" stroke-dasharray="10.2813, 7.31867" transform="matrix(0.321412 -0.321412 0.321412 0.321412 161.413 104.462)" />
	<path d="M -336.408 0 L 336.408 0" fill="none" stroke="#000000" stroke-width="2.9333334" stroke-linecap="round" stroke-linejoin="round" marker-end="url(#CustomMarker-04)" transform="matrix(0.454545 0 -0 0.454545 161.413 161.413)" />
	<path d="M 0 336.409 L 0 -336.409" fill="none" stroke="#000000" stroke-width="2.9333334" stroke-linecap="round" stroke-linejoin="round" marker-end="url(#CustomMarker-05)" transform="matrix(0.454545 0 -0 0.454545 161.413 161.413)" />
	<g transform="matrix(1 0 -0 1 224.837 79.4904)">
		<svg width="131.88237" height="101.808479">
			<defs />
			<polyline points="0.3752 22.8839 14.92 22.8839" fill="none" stroke="#000000" stroke-width="0.750400007" stroke-linecap="round" stroke-linejoin="round" />
			<path d="M 12.4252 8.57097 C 12.6456 8.57784, 12.7967 8.65112, 12.878 8.79082, 12.9227 8.88299, 12.9444 8.97746, 12.9444 9.07478 L 12.9444 9.22134 C 12.9004 9.3868, 12.8093 9.53222, 12.6708 9.65702, 12.5322 9.7824, 12.353 9.84481, 12.1326 9.84424 L 9.77389 9.84424 C 9.55405 10.8524, 9.44413 11.86, 9.44413 12.8671 L 9.44413 13.0136 C 9.45672 14.0648, 9.6674 15.0415, 10.0762 15.9449, 10.1203 16.0308, 10.142 16.1258, 10.142 16.2289, 10.142 16.3331, 10.114 16.4281, 10.0573 16.5128, 9.95652 16.6903, 9.82141 16.8277, 9.65137 16.925, 9.49451 17.0166, 9.33077 17.0659, 9.16073 17.0716, 9.12295 17.0716, 9.09776 17.0659, 9.08516 17.0533, 8.89681 17.0533, 8.75826 16.9468, 8.67009 16.7327, 8.46914 16.2815, 8.34949 15.7777, 8.3117 15.2212, 8.29911 15.014, 8.29281 14.8125, 8.29281 14.6167, 8.29281 14.2508, 8.318 13.8661, 8.36838 13.4625, 8.43136 12.8465, 8.53555 12.2207, 8.67982 11.5852, 8.82467 10.9503, 8.96322 10.3698, 9.09489 9.84424 L 7.13233 9.84424 C 6.98806 10.3944, 6.8226 11.0282, 6.63711 11.7455, 6.45162 12.4635, 6.26784 13.1505, 6.08521 13.8066, 5.90315 14.4632, 5.73941 15.0403, 5.59457 15.5378, 5.4503 16.0359, 5.3398 16.3577, 5.26423 16.5037, 5.15087 16.7424, 5.0003 16.8947, 4.81138 16.9617, 4.67283 17.0166, 4.54401 17.0476, 4.42436 17.0533, 4.36196 17.0533, 4.30871 17.0441, 4.26406 17.0258, 4.082 16.9955, 3.95261 16.901, 3.87704 16.7418, 3.83353 16.6811, 3.8112 16.6079, 3.8112 16.522, 3.8112 16.4126, 3.84613 16.2907, 3.91483 16.1556, 4.44383 15.0936, 4.92645 14.031, 5.36328 12.9684, 5.80067 11.9058, 6.16364 10.8644, 6.45276 9.84424 L 5.19839 9.84424 C 4.76443 9.84481, 4.34936 9.99023, 3.95318 10.2799, 3.55701 10.5702, 3.22953 10.932, 2.97133 11.3648, 2.87114 11.4633, 2.77668 11.512, 2.68851 11.5114 L 2.48069 11.5114 C 2.3868 11.445, 2.33928 11.3654, 2.33928 11.2732 L 2.33928 11.2183 C 2.47153 10.8891, 2.64271 10.5685, 2.85339 10.257, 3.06408 9.94557, 3.3051 9.66504, 3.57533 9.41428, 3.84613 9.16409, 4.14326 8.96085, 4.4673 8.80513, 4.79134 8.64941, 5.13255 8.57155, 5.49095 8.57097 L 12.4252 8.57097 Z" stroke="none" fill="#000000" />
			<path d="M 10.1431 36.924 L 10.1431 38.7464 C 10.1431 38.8546, 10.1633 38.9551, 10.2037 39.0476, 10.2441 39.1408, 10.3103 39.2019, 10.4023 39.2311, 10.5442 39.2973, 10.7754 39.3338, 11.0957 39.3394, 11.4161 39.3456, 11.7393 39.3484, 12.0658 39.3478 L 12.0658 40.1198 C 11.1232 40.0839, 10.1992 40.066, 9.2925 40.066, 8.39929 40.066, 7.45952 40.0839, 6.47318 40.1198 L 6.47318 39.3478 C 6.81206 39.3484, 7.13915 39.3456, 7.45335 39.3394, 7.76754 39.3338, 8.00206 39.2973, 8.15579 39.2311, 8.24837 39.2019, 8.31626 39.1408, 8.35946 39.0476, 8.40266 38.9551, 8.42398 38.8546, 8.42398 38.7464 L 8.42398 36.924, 3.15451 36.924, 3.15451 36.1969, 9.32953 27.0135 C 9.41032 26.9063, 9.51188 26.8525, 9.63475 26.8519 L 9.83841 26.8519 C 10.0415 26.8525, 10.1431 26.954, 10.1431 27.1571 L 10.1431 36.1341, 12.1309 36.1341, 12.1309 36.924 Z M 8.51599 29.3744 L 3.96805 36.1341, 8.51599 36.1341 Z" stroke="none" fill="#000000" />
			<rect />
		</svg>
	</g>
	<g transform="matrix(1 0 -0 1 71.4042 79.5085)">
		<svg width="162.021881" height="117.031883">
			<defs />
			<polyline points="0.3752 22.8839 24.6961 22.8839" fill="none" stroke="#000000" stroke-width="0.750400007" stroke-linecap="round" stroke-linejoin="round" />
			<path d="M 10.8481 13.3826 C 10.8481 13.8977, 10.7342 14.392, 10.5064 14.8644, 10.2786 15.3374, 9.97343 15.7413, 9.59079 16.0757, 9.15989 16.4533, 8.68355 16.7327, 8.16289 16.9151, 7.64223 17.098, 7.098 17.1888, 6.53077 17.1888, 6.01964 17.1888, 5.52086 17.117, 5.03386 16.9734, 4.54686 16.8298, 4.10811 16.6239, 3.71649 16.3546, 3.32487 16.0852, 3.01236 15.7548, 2.77784 15.3626, 2.54388 14.971, 2.42662 14.5204, 2.42662 14.011, 2.42662 13.6284, 2.55454 13.3428, 2.81038 13.1543, 3.06623 12.9658, 3.33554 12.8715, 3.61887 12.8709, 3.91511 12.8715, 4.19059 12.9658, 4.44643 13.1543, 4.70228 13.3428, 4.8302 13.6284, 4.8302 14.011, 4.8302 14.2388, 4.78587 14.429, 4.6961 14.5816, 4.6069 14.7342, 4.493 14.8616, 4.35386 14.9631, 4.21528 15.0652, 4.0565 15.1275, 3.87808 15.1511, 3.78607 15.1758, 3.69966 15.1875, 3.61887 15.187, 3.5392 15.1875, 3.52686 15.1937, 3.58184 15.2049, 3.77316 15.5405, 4.14907 15.8373, 4.71013 16.0942, 5.27119 16.3517, 5.8777 16.4802, 6.53077 16.4797, 6.83935 16.4802, 7.12718 16.4039, 7.39536 16.2513, 7.66355 16.0987, 7.88741 15.8939, 8.06583 15.6358, 8.28801 15.3014, 8.43893 14.9424, 8.5186 14.5592, 8.59883 14.1765, 8.63867 13.7843, 8.63867 13.3826, 8.63867 12.9702, 8.59883 12.5741, 8.5186 12.1937, 8.43893 11.8139, 8.28801 11.4621, 8.06583 11.1384, 7.88068 10.8758, 7.65569 10.6632, 7.39087 10.5016, 7.12605 10.34, 6.83935 10.2592, 6.53077 10.2586 L 5.1904 10.2586 C 5.01198 10.2592, 4.9166 10.1756, 4.90426 10.0073 L 4.90426 9.90854 C 4.90426 9.83728, 4.92614 9.78062, 4.96878 9.73798, 5.02432 9.68468, 5.09502 9.65775, 5.18142 9.65718, 5.3604 9.63362, 5.54499 9.62184, 5.73575 9.62128, 5.9209 9.62184, 6.10324 9.61005, 6.28166 9.58537, 6.61437 9.5618, 6.90387 9.45913, 7.15018 9.27623, 7.39705 9.09388, 7.60352 8.86048, 7.76959 8.57602, 7.93622 8.29213, 8.06246 7.96447, 8.14886 7.59305, 8.23527 7.22219, 8.27847 6.84179, 8.27847 6.45241, 8.27847 6.16571, 8.24761 5.8936, 8.18589 5.63607, 8.12418 5.37911, 8.01028 5.15412, 7.84365 4.96224, 7.4986 4.56781, 7.06097 4.37313, 6.53077 4.37874, 5.9641 4.3793, 5.44512 4.4859, 4.97383 4.69798, 4.50254 4.91062, 4.1861 5.13953, 4.02564 5.38415, 3.983 5.39089, 4.00432 5.39369, 4.09072 5.39313, 4.3129 5.39369, 4.52218 5.45934, 4.71911 5.59062, 5.01535 5.76455, 5.16291 6.05799, 5.16291 6.47037, 5.16291 6.81822, 5.05069 7.08024, 4.82571 7.25641, 4.60072 7.43314, 4.34937 7.52123, 4.07221 7.52067, 3.80121 7.52123, 3.54705 7.43483, 3.30973 7.2609, 3.0724 7.08753, 2.95345 6.82383, 2.95345 6.47037, 2.95345 6.03386, 3.05837 5.64841, 3.26765 5.3129, 3.47748 4.97795, 3.74679 4.69069, 4.07669 4.45111, 4.4066 4.2121, 4.787 4.0292, 5.21845 3.90352, 5.64991 3.77784, 6.08753 3.715, 6.53077 3.71444, 7.00543 3.715, 7.46493 3.77784, 7.90873 3.90352, 8.35253 4.0292, 8.77164 4.22388, 9.1655 4.48646, 9.48643 4.71425, 9.75574 4.99422, 9.97455 5.32637, 10.1934 5.65851, 10.3028 6.03386, 10.3028 6.45241, 10.3028 6.87208, 10.2276 7.26707, 10.0767 7.63793, 9.92574 8.00935, 9.72544 8.34431, 9.47577 8.64335, 9.2261 8.94296, 8.92874 9.20609, 8.58369 9.43332, 8.23863 9.66111, 7.97942 9.80418, 7.80662 9.86365, 7.95474 9.88217, 8.20778 9.97082, 8.56517 10.129, 8.92257 10.2878, 9.26425 10.4988, 9.59079 10.7613, 9.97343 11.0913, 10.2786 11.4846, 10.5064 11.9424, 10.7342 12.4002, 10.8481 12.8805, 10.8481 13.3826 Z" stroke="none" fill="#000000" />
			<path d="M 22.4967 8.57097 C 22.7171 8.57784, 22.8682 8.65112, 22.9495 8.79082, 22.9942 8.88299, 23.0159 8.97746, 23.0159 9.07478 L 23.0159 9.22134 C 22.9718 9.3868, 22.8808 9.53222, 22.7423 9.65702, 22.6037 9.7824, 22.4245 9.84481, 22.2041 9.84424 L 19.8454 9.84424 C 19.6255 10.8524, 19.5156 11.86, 19.5156 12.8671 L 19.5156 13.0136 C 19.5282 14.0648, 19.7389 15.0415, 20.1476 15.9449, 20.1917 16.0308, 20.2135 16.1258, 20.2135 16.2289, 20.2135 16.3331, 20.1854 16.4281, 20.1288 16.5128, 20.028 16.6903, 19.8929 16.8277, 19.7228 16.925, 19.566 17.0166, 19.4022 17.0659, 19.2322 17.0716, 19.1944 17.0716, 19.1692 17.0659, 19.1566 17.0533, 18.9683 17.0533, 18.8297 16.9468, 18.7416 16.7327, 18.5406 16.2815, 18.421 15.7777, 18.3832 15.2212, 18.3706 15.014, 18.3643 14.8125, 18.3643 14.6167, 18.3643 14.2508, 18.3895 13.8661, 18.4399 13.4625, 18.5028 12.8465, 18.607 12.2207, 18.7513 11.5852, 18.8961 10.9503, 19.0347 10.3698, 19.1664 9.84424 L 17.2038 9.84424 C 17.0595 10.3944, 16.8941 11.0282, 16.7086 11.7455, 16.5231 12.4635, 16.3393 13.1505, 16.1567 13.8066, 15.9746 14.4632, 15.8109 15.0403, 15.666 15.5378, 15.5218 16.0359, 15.4113 16.3577, 15.3357 16.5037, 15.2223 16.7424, 15.0718 16.8947, 14.8828 16.9617, 14.7443 17.0166, 14.6155 17.0476, 14.4958 17.0533, 14.4334 17.0533, 14.3802 17.0441, 14.3355 17.0258, 14.1535 16.9955, 14.0241 16.901, 13.9485 16.7418, 13.905 16.6811, 13.8827 16.6079, 13.8827 16.522, 13.8827 16.4126, 13.9176 16.2907, 13.9863 16.1556, 14.5153 15.0936, 14.9979 14.031, 15.4347 12.9684, 15.8721 11.9058, 16.2351 10.8644, 16.5242 9.84424 L 15.2699 9.84424 C 14.8359 9.84481, 14.4208 9.99023, 14.0247 10.2799, 13.6285 10.5702, 13.301 10.932, 13.0428 11.3648, 12.9426 11.4633, 12.8481 11.512, 12.76 11.5114 L 12.5522 11.5114 C 12.4583 11.445, 12.4108 11.3654, 12.4108 11.2732 L 12.4108 11.2183 C 12.543 10.8891, 12.7142 10.5685, 12.9249 10.257, 13.1355 9.94557, 13.3766 9.66504, 13.6468 9.41428, 13.9176 9.16409, 14.2147 8.96085, 14.5388 8.80513, 14.8628 8.64941, 15.204 8.57155, 15.5624 8.57097 L 22.4967 8.57097 Z" stroke="none" fill="#000000" />
			<path d="M 15.0383 36.924 L 15.0383 38.7464 C 15.0383 38.8546, 15.0585 38.9551, 15.0984 39.0476, 15.1388 39.1408, 15.205 39.2019, 15.297 39.2311, 15.4395 39.2973, 15.6707 39.3338, 15.991 39.3394, 16.3114 39.3456, 16.6351 39.3484, 16.9616 39.3478 L 16.9616 40.1198 C 16.0185 40.0839, 15.0939 40.066, 14.1878 40.066, 13.294 40.066, 12.3537 40.0839, 11.3673 40.1198 L 11.3673 39.3478 C 11.7068 39.3484, 12.0339 39.3456, 12.3481 39.3394, 12.6622 39.3338, 12.8968 39.2973, 13.0505 39.2311, 13.1431 39.2019, 13.211 39.1408, 13.2542 39.0476, 13.2974 38.9551, 13.3187 38.8546, 13.3187 38.7464 L 13.3187 36.924, 8.04809 36.924, 8.04809 36.1969, 14.2248 27.0135 C 14.305 26.9063, 14.4066 26.8525, 14.53 26.8519 L 14.7331 26.8519 C 14.9368 26.8525, 15.0383 26.954, 15.0383 27.1571 L 15.0383 36.1341, 17.0262 36.1341, 17.0262 36.924 Z M 13.4113 29.3744 L 8.86163 36.1341, 13.4113 36.1341 Z" stroke="none" fill="#000000" />
			<rect />
		</svg>
	</g>
	<g transform="matrix(1 0 -0 1 197.069 129.637)">
		<svg width="29.9820557" height="48.0957298">
			<defs />
			<path d="M 8.18236 12.7991 C 8.18236 13.386, 8.07183 13.9459, 7.84965 14.4784, 7.62803 15.0114, 7.30767 15.49, 6.88799 15.9141, 6.46271 16.3276, 5.98357 16.6435, 5.45056 16.8612, 4.91755 17.08, 4.35144 17.1888, 3.75335 17.1888, 3.23606 17.1888, 2.75355 17.0918, 2.30638 16.8971, 1.85978 16.703, 1.47153 16.437, 1.14162 16.0987, 0.811719 15.761, 0.553071 15.3688, 0.365116 14.9227, 0.177161 14.4772, 0.082903 14.0026, 0.082903 13.4993, 0.082903 13.1526, 0.198481 12.8911, 0.429638 12.7144, 0.660794 12.5382, 0.899806 12.4496, 1.14611 12.449, 1.40532 12.4496, 1.64882 12.5365, 1.87661 12.7099, 2.10496 12.8838, 2.21886 13.147, 2.21886 13.4993, 2.21886 13.7153, 2.17117 13.8966, 2.07579 14.043, 1.98041 14.19, 1.86314 14.3033, 1.724 14.3841, 1.58542 14.4649, 1.43001 14.5115, 1.2572 14.5227 L 1.14611 14.5227, 0.960961 14.5227 C 1.10291 15.026, 1.43281 15.4782, 1.95067 15.8788, 2.46853 16.2799, 3.06942 16.4802, 3.75335 16.4797, 4.11131 16.4802, 4.45973 16.3877, 4.79861 16.2019, 5.13749 16.0168, 5.41521 15.7711, 5.63066 15.4653, 5.88314 15.1006, 6.04528 14.6865, 6.11598 14.2225, 6.18667 13.7591, 6.22202 13.2844, 6.22202 12.7991, 6.22202 12.3088, 6.20687 11.838, 6.17601 11.3858, 6.14571 10.9342, 6.01891 10.5078, 5.79673 10.106, 5.63683 9.81316, 5.43204 9.56966, 5.18237 9.37497, 4.9327 9.18085, 4.65385 9.08322, 4.34527 9.08266, 3.75953 9.08322, 3.25121 9.2016, 2.81975 9.43781, 2.3883 9.67458, 2.03988 10.014, 1.77506 10.4561, 1.71951 10.5582, 1.63031 10.6093, 1.50687 10.6087 L 1.43281 10.6087 C 1.21737 10.6093, 1.10908 10.5106, 1.10908 10.3125 L 1.10908 4.01068 C 1.10908 3.85583, 1.19885 3.75708, 1.37727 3.71444, 1.40813 3.715, 1.43113 3.71837, 1.44684 3.72398, 1.46255 3.73015, 1.47601 3.73296, 1.48836 3.7324, 2.38212 4.13972, 3.30338 4.34339, 4.2527 4.34283, 5.21435 4.34339, 6.13617 4.13972, 7.0176 3.7324, 7.02994 3.73296, 7.04229 3.73015, 7.05463 3.72398, 7.06697 3.71837, 7.08549 3.715, 7.11017 3.71444, 7.31328 3.715, 7.41202 3.80758, 7.40585 3.99273, 7.40585 4.10101, 7.38734 4.17283, 7.35031 4.20817, 6.91268 4.80739, 6.35667 5.27587, 5.68172 5.61363, 5.00676 5.95195, 4.29029 6.12083, 3.53174 6.12027, 2.90335 6.12083, 2.3608 6.04901, 1.9041 5.90482 L 1.9041 9.33401 C 2.12011 9.10735, 2.44552 8.90536, 2.87978 8.72863, 3.31461 8.55246, 3.80329 8.46381, 4.34527 8.46325, 4.87547 8.46381, 5.3765 8.58388, 5.84779 8.82289, 6.31964 9.06246, 6.73426 9.37329, 7.09166 9.75593, 7.4614 10.1874, 7.73575 10.6648, 7.91417 11.1883, 8.09315 11.7123, 8.18236 12.2493, 8.18236 12.7991 Z" stroke="none" fill="#000000" />
			<rect />
		</svg>
	</g>
	<g transform="matrix(1 0 -0 1 117.188 129.637)">
		<svg width="29.9820557" height="48.0957298">
			<defs />
			<path d="M 8.18236 12.7991 C 8.18236 13.386, 8.07183 13.9459, 7.84965 14.4784, 7.62803 15.0114, 7.30767 15.49, 6.88799 15.9141, 6.46271 16.3276, 5.98357 16.6435, 5.45056 16.8612, 4.91755 17.08, 4.35144 17.1888, 3.75335 17.1888, 3.23606 17.1888, 2.75355 17.0918, 2.30638 16.8971, 1.85978 16.703, 1.47153 16.437, 1.14162 16.0987, 0.811719 15.761, 0.553071 15.3688, 0.365116 14.9227, 0.177161 14.4772, 0.082903 14.0026, 0.082903 13.4993, 0.082903 13.1526, 0.198481 12.8911, 0.429638 12.7144, 0.660794 12.5382, 0.899806 12.4496, 1.14611 12.449, 1.40532 12.4496, 1.64882 12.5365, 1.87661 12.7099, 2.10496 12.8838, 2.21886 13.147, 2.21886 13.4993, 2.21886 13.7153, 2.17117 13.8966, 2.07579 14.043, 1.98041 14.19, 1.86314 14.3033, 1.724 14.3841, 1.58542 14.4649, 1.43001 14.5115, 1.2572 14.5227 L 1.14611 14.5227, 0.960961 14.5227 C 1.10291 15.026, 1.43281 15.4782, 1.95067 15.8788, 2.46853 16.2799, 3.06942 16.4802, 3.75335 16.4797, 4.11131 16.4802, 4.45973 16.3877, 4.79861 16.2019, 5.13749 16.0168, 5.41521 15.7711, 5.63066 15.4653, 5.88314 15.1006, 6.04528 14.6865, 6.11598 14.2225, 6.18667 13.7591, 6.22202 13.2844, 6.22202 12.7991, 6.22202 12.3088, 6.20687 11.838, 6.17601 11.3858, 6.14571 10.9342, 6.01891 10.5078, 5.79673 10.106, 5.63683 9.81316, 5.43204 9.56966, 5.18237 9.37497, 4.9327 9.18085, 4.65385 9.08322, 4.34527 9.08266, 3.75953 9.08322, 3.25121 9.2016, 2.81975 9.43781, 2.3883 9.67458, 2.03988 10.014, 1.77506 10.4561, 1.71951 10.5582, 1.63031 10.6093, 1.50687 10.6087 L 1.43281 10.6087 C 1.21737 10.6093, 1.10908 10.5106, 1.10908 10.3125 L 1.10908 4.01068 C 1.10908 3.85583, 1.19885 3.75708, 1.37727 3.71444, 1.40813 3.715, 1.43113 3.71837, 1.44684 3.72398, 1.46255 3.73015, 1.47601 3.73296, 1.48836 3.7324, 2.38212 4.13972, 3.30338 4.34339, 4.2527 4.34283, 5.21435 4.34339, 6.13617 4.13972, 7.0176 3.7324, 7.02994 3.73296, 7.04229 3.73015, 7.05463 3.72398, 7.06697 3.71837, 7.08549 3.715, 7.11017 3.71444, 7.31328 3.715, 7.41202 3.80758, 7.40585 3.99273, 7.40585 4.10101, 7.38734 4.17283, 7.35031 4.20817, 6.91268 4.80739, 6.35667 5.27587, 5.68172 5.61363, 5.00676 5.95195, 4.29029 6.12083, 3.53174 6.12027, 2.90335 6.12083, 2.3608 6.04901, 1.9041 5.90482 L 1.9041 9.33401 C 2.12011 9.10735, 2.44552 8.90536, 2.87978 8.72863, 3.31461 8.55246, 3.80329 8.46381, 4.34527 8.46325, 4.87547 8.46381, 5.3765 8.58388, 5.84779 8.82289, 6.31964 9.06246, 6.73426 9.37329, 7.09166 9.75593, 7.4614 10.1874, 7.73575 10.6648, 7.91417 11.1883, 8.09315 11.7123, 8.18236 12.2493, 8.18236 12.7991 Z" stroke="none" fill="#000000" />
			<rect />
		</svg>
	</g>
</svg>
