<?xml version="1.0"?>
<svg xmlns="http://www.w3.org/2000/svg" xmlns:xlink="http://www.w3.org/1999/xlink" width="254.4086" height="198.281845">
	<defs>
		<marker id="CustomMarker-01" markerUnits="strokeWidth" markerWidth="15.000001" markerHeight="9" viewBox="-15 -4.5 15 9" orient="auto-start-reverse">
			<path d="M 0 -0 L -10 -3, -8 -0.5, -8 0.5, -10 3 Z" fill="#858585" stroke="#858585" stroke-linejoin="round" />
		</marker>
		<marker id="CustomMarker-02" markerUnits="strokeWidth" markerWidth="15.000001" markerHeight="9" viewBox="-15 -4.5 15 9" orient="auto-start-reverse">
			<path d="M 0 -0 L -10 -3, -8 -0.5, -8 0.5, -10 3 Z" fill="#858585" stroke="#858585" stroke-linejoin="round" />
		</marker>
		<marker id="CustomMarker-03" markerUnits="strokeWidth" markerWidth="9" markerHeight="6" viewBox="-9 -3 9 6" orient="auto-start-reverse">
			<path d="M 0 -0 L -6 -2, -4.8 -0.5, -4.8 0.5, -6 2 Z" fill="#000000" stroke="#000000" stroke-linejoin="round" />
		</marker>
		<marker id="CustomMarker-04" markerUnits="strokeWidth" markerWidth="9" markerHeight="6" viewBox="-9 -3 9 6" orient="auto-start-reverse">
			<path d="M 0 -0 L -6 -2, -6 -0.5, -6 0.5, -6 2 Z" fill="#000000" stroke="#000000" stroke-linejoin="round" />
		</marker>
	</defs>
	<path d="M -199.41 0 L 199.41 0" fill="none" stroke="#858585" stroke-width="2.9333334" stroke-linecap="round" stroke-linejoin="round" marker-end="url(#CustomMarker-01)" transform="matrix(0.454545 0 -0 0.454545 127.204 99.141)" />
	<path d="M 0 199.41 L 0 -199.41" fill="none" stroke="#858585" stroke-width="2.9333334" stroke-linecap="round" stroke-linejoin="round" marker-end="url(#CustomMarker-02)" transform="matrix(0.454545 0 -0 0.454545 127.204 99.141)" />
	<path d="M 126.057 -0 C 126.057 69.6193, 69.6193 126.057, -0 126.057, -69.6193 126.057, -126.057 69.6193, -126.057 -0, -126.057 -69.6193, -69.6193 -126.057, -0 -126.057, 69.6193 -126.057, 126.057 -69.6193, 126.057 -0 Z" fill="none" stroke="#858585" stroke-width="2.9333334" stroke-linecap="round" stroke-linejoin="round" transform="matrix(0.454545 0 0 0.454545 127.204 99.141)" />
	<path d="M 0 -64.0921 L 0 64.0922" fill="none" stroke="#000000" stroke-width="5.86666679" stroke-linecap="round" stroke-linejoin="round" marker-end="url(#CustomMarker-03)" transform="matrix(0.454545 0 0 0.454545 127.204 128.274)" />
	<path d="M -59.497 -134.083 L -46.2626 -139.205 C -12.7411 -150.347, 23.8596 -149.061, 56.7286 -135.277" fill="none" stroke="#000000" stroke-width="2.9333334" stroke-linecap="round" stroke-linejoin="round" marker-start="url(#CustomMarker-04)" transform="matrix(-0.454545 6.86344e-008 -6.86345e-008 -0.454545 127.204 99.1411)" />
	<g transform="matrix(1 0 -0 1 227.077 85.9525)">
		<svg width="98.967804" height="98.9142685">
			<defs />
			<path d="M 6.58759 16.8852 C 6.45591 17.3982, 6.24809 17.8882, 5.96527 18.3554, 5.68245 18.8226, 5.34868 19.2382, 4.9651 19.6012, 4.58151 19.9647, 4.15099 20.2596, 3.67294 20.4851, 3.19489 20.7113, 2.69796 20.8241, 2.18155 20.8241, 1.87354 20.8241, 1.59072 20.768, 1.33252 20.6546, 1.07489 20.5418, 0.864208 20.389, 0.70047 20.1966, 0.536732 20.0042, 0.42681 19.7769, 0.370132 19.5142, 0.344941 19.3985, 0.332346 19.2794, 0.332346 19.1569, 0.332346 18.9983, 0.351239 18.8363, 0.389025 18.6714, 0.458298 18.3966, 0.599708 18.1905, 0.813827 18.0531, 1.02795 17.9157, 1.23863 17.847, 1.44588 17.847, 1.66629 17.847, 1.85179 17.9174, 2.00236 18.0577, 2.10942 18.1619, 2.16266 18.2959, 2.16266 18.4607, 2.16266 18.5283, 2.15006 18.6107, 2.12487 18.7081, 2.05617 18.9829, 1.91476 19.189, 1.70064 19.3264, 1.48653 19.4638, 1.31706 19.5325, 1.19111 19.5325, 1.2289 19.6974, 1.34683 19.8519, 1.54492 19.9951, 1.74301 20.1388, 1.99606 20.2103, 2.30407 20.2103, 2.64414 20.2103, 2.96188 20.1187, 3.2573 19.9355, 3.55329 19.7523, 3.82408 19.5067, 4.06912 19.1981, 4.31415 18.8901, 4.52942 18.5329, 4.71491 18.1264, 4.9004 17.7205, 5.04983 17.2945, 5.16318 16.8486 L 5.21986 16.6287 C 5.12597 16.7146, 4.92788 16.8262, 4.6256 16.9631, 4.32388 17.1005, 3.99355 17.1692, 3.63458 17.1692, 3.20749 17.1692, 2.82505 17.0902, 2.48842 16.931, 2.15178 16.773, 1.88614 16.5285, 1.69091 16.1982, 1.50256 15.8444, 1.41153 15.4539, 1.41725 15.0257 L 1.41725 14.9524 C 1.42985 14.507, 1.48653 14.0644, 1.58729 13.6242, 1.68805 13.2034, 1.83461 12.7396, 2.0264 12.2324, 2.21819 11.7257, 2.40197 11.2339, 2.57773 10.757, 2.76666 10.2509, 2.86112 9.83531, 2.86112 9.51127, 2.86112 9.23703, 2.7449 9.09963, 2.51189 9.09906, 2.29834 9.09963, 2.10484 9.16089, 1.93194 9.28284, 1.75904 9.40535, 1.6016 9.57482, 1.46019 9.79122, 1.31878 10.0082, 1.19111 10.2647, 1.07775 10.5607, 0.964397 10.8572, 0.870505 11.1727, 0.794934 11.5082, 0.72566 11.6736, 0.609441 11.7589, 0.445703 11.7647 L 0.228722 11.7647 C 0.0775793 11.7652, 0.00200802 11.6891, 0.00200802 11.5357 L 0.00200802 11.4715 C 0.0901745 11.136, 0.206967 10.7931, 0.351239 10.4416, 0.496084 10.0906, 0.678715 9.77176, 0.898558 9.48436, 1.11897 9.19753, 1.37088 8.95937, 1.6537 8.76987, 1.93652 8.58094, 2.26056 8.4859, 2.62525 8.48533, 2.94013 8.4859, 3.20863 8.55346, 3.43191 8.68743, 3.65519 8.82197, 3.82523 9.00059, 3.94145 9.22329, 4.05824 9.44657, 4.12236 9.6979, 4.13496 9.97843 L 4.13496 10.0426 C 4.13496 10.3059, 4.08171 10.5773, 3.97408 10.8578, 3.79202 11.3347, 3.61168 11.8219, 3.43191 12.3194, 3.25272 12.8175, 3.11303 13.2646, 3.01226 13.6614, 2.9115 14.0587, 2.84223 14.452, 2.80444 14.8425, 2.77925 14.9467, 2.76379 15.06, 2.7575 15.1814, 2.7575 15.4201, 2.79872 15.6554, 2.88001 15.8867, 2.93669 16.0951, 3.04032 16.26, 3.19146 16.382, 3.3426 16.5045, 3.5218 16.5652, 3.72905 16.5646, 4.13209 16.5652, 4.48419 16.4461, 4.7859 16.2079, 5.08818 15.9697, 5.35211 15.6583, 5.57825 15.273 L 7.09712 9.3647 C 7.15437 9.13914, 7.26887 8.97311, 7.44177 8.86605, 7.61467 8.75956, 7.78929 8.70575, 7.96505 8.70517, 8.14768 8.70575, 8.29882 8.76071, 8.41847 8.87006, 8.50034 8.95021, 8.54099 9.05669, 8.54099 9.19066, 8.54099 9.25822, 8.53469 9.32864, 8.5221 9.40135 Z" stroke="none" fill="#858585" />
			<polyline points="-3.67696 0 3.67696 0" fill="none" stroke="#858585" stroke-width="0.420223981" stroke-linecap="round" stroke-linejoin="round" transform="matrix(1 0 0 1 14.6547 6.22446)" />
			<polyline points="0 -3.67696 0 3.67696" fill="none" stroke="#858585" stroke-width="0.420223981" stroke-linecap="round" stroke-linejoin="round" transform="matrix(1 0 0 1 14.6547 6.22446)" />
			<rect />
		</svg>
	</g>
	<g transform="matrix(1 0 -0 1 9 85.9525)">
		<svg width="98.967804" height="83.9999771">
			<defs />
			<path d="M 6.58759 16.8852 C 6.45591 17.3982, 6.24809 17.8882, 5.96527 18.3554, 5.68245 18.8226, 5.34868 19.2382, 4.9651 19.6012, 4.58151 19.9647, 4.15099 20.2596, 3.67294 20.4851, 3.19489 20.7113, 2.69796 20.8241, 2.18155 20.8241, 1.87354 20.8241, 1.59072 20.768, 1.33252 20.6546, 1.07489 20.5418, 0.864208 20.389, 0.70047 20.1966, 0.536732 20.0042, 0.42681 19.7769, 0.370132 19.5142, 0.344941 19.3985, 0.332346 19.2794, 0.332346 19.1569, 0.332346 18.9983, 0.351239 18.8363, 0.389025 18.6714, 0.458298 18.3966, 0.599708 18.1905, 0.813827 18.0531, 1.02795 17.9157, 1.23863 17.847, 1.44588 17.847, 1.66629 17.847, 1.85179 17.9174, 2.00236 18.0577, 2.10942 18.1619, 2.16266 18.2959, 2.16266 18.4607, 2.16266 18.5283, 2.15006 18.6107, 2.12487 18.7081, 2.05617 18.9829, 1.91476 19.189, 1.70064 19.3264, 1.48653 19.4638, 1.31706 19.5325, 1.19111 19.5325, 1.2289 19.6974, 1.34683 19.8519, 1.54492 19.9951, 1.74301 20.1388, 1.99606 20.2103, 2.30407 20.2103, 2.64414 20.2103, 2.96188 20.1187, 3.2573 19.9355, 3.55329 19.7523, 3.82408 19.5067, 4.06912 19.1981, 4.31415 18.8901, 4.52942 18.5329, 4.71491 18.1264, 4.9004 17.7205, 5.04983 17.2945, 5.16318 16.8486 L 5.21986 16.6287 C 5.12597 16.7146, 4.92788 16.8262, 4.6256 16.9631, 4.32388 17.1005, 3.99355 17.1692, 3.63458 17.1692, 3.20749 17.1692, 2.82505 17.0902, 2.48842 16.931, 2.15178 16.773, 1.88614 16.5285, 1.69091 16.1982, 1.50256 15.8444, 1.41153 15.4539, 1.41725 15.0257 L 1.41725 14.9524 C 1.42985 14.507, 1.48653 14.0644, 1.58729 13.6242, 1.68805 13.2034, 1.83461 12.7396, 2.0264 12.2324, 2.21819 11.7257, 2.40197 11.2339, 2.57773 10.757, 2.76666 10.2509, 2.86112 9.83531, 2.86112 9.51127, 2.86112 9.23703, 2.7449 9.09963, 2.51189 9.09906, 2.29834 9.09963, 2.10484 9.16089, 1.93194 9.28284, 1.75904 9.40535, 1.6016 9.57482, 1.46019 9.79122, 1.31878 10.0082, 1.19111 10.2647, 1.07775 10.5607, 0.964397 10.8572, 0.870505 11.1727, 0.794934 11.5082, 0.72566 11.6736, 0.609441 11.7589, 0.445703 11.7647 L 0.228722 11.7647 C 0.0775793 11.7652, 0.00200802 11.6891, 0.00200802 11.5357 L 0.00200802 11.4715 C 0.0901745 11.136, 0.206967 10.7931, 0.351239 10.4416, 0.496084 10.0906, 0.678715 9.77176, 0.898558 9.48436, 1.11897 9.19753, 1.37088 8.95937, 1.6537 8.76987, 1.93652 8.58094, 2.26056 8.4859, 2.62525 8.48533, 2.94013 8.4859, 3.20863 8.55346, 3.43191 8.68743, 3.65519 8.82197, 3.82523 9.00059, 3.94145 9.22329, 4.05824 9.44657, 4.12236 9.6979, 4.13496 9.97843 L 4.13496 10.0426 C 4.13496 10.3059, 4.08171 10.5773, 3.97408 10.8578, 3.79202 11.3347, 3.61168 11.8219, 3.43191 12.3194, 3.25272 12.8175, 3.11303 13.2646, 3.01226 13.6614, 2.9115 14.0587, 2.84223 14.452, 2.80444 14.8425, 2.77925 14.9467, 2.76379 15.06, 2.7575 15.1814, 2.7575 15.4201, 2.79872 15.6554, 2.88001 15.8867, 2.93669 16.0951, 3.04032 16.26, 3.19146 16.382, 3.3426 16.5045, 3.5218 16.5652, 3.72905 16.5646, 4.13209 16.5652, 4.48419 16.4461, 4.7859 16.2079, 5.08818 15.9697, 5.35211 15.6583, 5.57825 15.273 L 7.09712 9.3647 C 7.15437 9.13914, 7.26887 8.97311, 7.44177 8.86605, 7.61467 8.75956, 7.78929 8.70575, 7.96505 8.70517, 8.14768 8.70575, 8.29882 8.76071, 8.41847 8.87006, 8.50034 8.95021, 8.54099 9.05669, 8.54099 9.19066, 8.54099 9.25822, 8.53469 9.32864, 8.5221 9.40135 Z" stroke="none" fill="#858585" />
			<polyline points="-3.67696 0 3.67696 0" fill="none" stroke="#858585" stroke-width="0.420223981" stroke-linecap="round" stroke-linejoin="round" transform="matrix(1 0 0 1 14.6547 6.22446)" />
			<rect />
		</svg>
	</g>
</svg>
