<?xml version="1.0"?>
<svg xmlns="http://www.w3.org/2000/svg" xmlns:xlink="http://www.w3.org/1999/xlink" width="322.8255" height="322.825989">
	<defs>
		<marker id="CustomMarker-01" markerUnits="strokeWidth" markerWidth="15.000001" markerHeight="9" viewBox="-15 -4.5 15 9" orient="auto-start-reverse">
			<path d="M 0 -0 L -10 -3, -8 -0.5, -8 0.5, -10 3 Z" fill="#000000" stroke="#000000" stroke-linejoin="round" />
		</marker>
		<marker id="CustomMarker-02" markerUnits="strokeWidth" markerWidth="15.000001" markerHeight="9" viewBox="-15 -4.5 15 9" orient="auto-start-reverse">
			<path d="M 0 -0 L -10 -3, -8 -0.5, -8 0.5, -10 3 Z" fill="#000000" stroke="#000000" stroke-linejoin="round" />
		</marker>
		<marker id="CustomMarker-03" markerUnits="strokeWidth" markerWidth="15.000001" markerHeight="9" viewBox="-15 -4.5 15 9" orient="auto-start-reverse">
			<path d="M 0 -0 L -10 -3, -8 -0.5, -8 0.5, -10 3 Z" fill="#000000" stroke="#000000" stroke-linejoin="round" />
		</marker>
		<marker id="CustomMarker-04" markerUnits="strokeWidth" markerWidth="15.000001" markerHeight="9" viewBox="-15 -4.5 15 9" orient="auto-start-reverse">
			<path d="M 0 -0 L -10 -3, -8 -0.5, -8 0.5, -10 3 Z" fill="#000000" stroke="#000000" stroke-linejoin="round" />
		</marker>
		<marker id="CustomMarker-05" markerUnits="strokeWidth" markerWidth="15.000001" markerHeight="9" viewBox="-15 -4.5 15 9" orient="auto-start-reverse">
			<path d="M 0 -0 L -10 -3, -8 -0.5, -8 0.5, -10 3 Z" fill="#000000" stroke="#000000" stroke-linejoin="round" />
		</marker>
	</defs>
	<path d="M 172.427 -0 C 172.427 95.2289, 95.2289 172.427, -0 172.427, -95.2289 172.427, -172.427 95.2289, -172.427 -0, -172.427 -95.2289, -95.2289 -172.427, -0 -172.427, 95.2289 -172.427, 172.427 -95.2289, 172.427 -0 Z" fill="none" stroke="#808080" stroke-opacity="0.490196049" stroke-width="2.9333334" stroke-linecap="round" stroke-linejoin="round" transform="matrix(0.454545 0 0 0.454545 161.413 161.413)" />
	<path d="M 218.734 -0 C 218.734 120.804, 120.804 218.734, -0 218.734, -120.804 218.734, -218.734 120.804, -218.734 -0, -218.734 -120.804, -120.804 -218.734, -0 -218.734, 120.804 -218.734, 218.734 -120.804, 218.734 -0 Z" fill="none" stroke="#C3C3C3" stroke-width="2.9333334" stroke-linecap="round" stroke-linejoin="round" transform="matrix(0.454545 0 0 0.454545 161.413 161.413)" />
	<path d="M 249.756 -0 C 249.756 137.937, 137.937 249.756, -0 249.756, -137.937 249.756, -249.756 137.937, -249.756 -0, -249.756 -137.937, -137.937 -249.756, -0 -249.756, 137.937 -249.756, 249.756 -137.937, 249.756 -0 Z" fill="none" stroke="#808080" stroke-opacity="0.490196049" stroke-width="2.9333334" stroke-linecap="round" stroke-linejoin="round" transform="matrix(0.454545 0 0 0.454545 161.413 161.413)" />
	<path d="M -57.8534 92.8126 L 102.785 155.473" fill="none" stroke="#000000" stroke-width="2.9333334" stroke-linecap="round" stroke-linejoin="round" marker-end="url(#CustomMarker-01)" transform="matrix(0.454545 0 -0 0.454545 187.71 119.225)" />
	<path d="M -57.8534 92.8126 L -102.785 -155.473" fill="none" stroke="#000000" stroke-width="2.9333334" stroke-linecap="round" stroke-linejoin="round" marker-end="url(#CustomMarker-02)" transform="matrix(0.454545 0 -0 0.454545 187.71 119.225)" />
	<path d="M -57.8534 92.8126 L 57.8534 -92.8126" fill="none" stroke="#000000" stroke-width="2.9333334" stroke-linecap="round" stroke-linejoin="round" marker-end="url(#CustomMarker-03)" transform="matrix(0.454545 0 -0 0.454545 187.71 119.225)" />
	<path d="M 57.8534 -92.8126 L 102.785 155.473" fill="none" stroke="#000000" stroke-width="2.9333334" stroke-linecap="round" stroke-linejoin="round" stroke-dasharray="10.2813, 7.31867" transform="matrix(0.454545 0 -0 0.454545 187.71 119.225)" />
	<path d="M 57.8534 -92.8126 L -102.785 -155.473" fill="none" stroke="#000000" stroke-width="2.9333334" stroke-linecap="round" stroke-linejoin="round" stroke-dasharray="10.2813, 7.31867" transform="matrix(0.454545 0 -0 0.454545 187.71 119.225)" />
	<path d="M -336.408 0 L 336.408 0" fill="none" stroke="#000000" stroke-width="2.9333334" stroke-linecap="round" stroke-linejoin="round" marker-end="url(#CustomMarker-04)" transform="matrix(0.454545 0 -0 0.454545 161.413 161.413)" />
	<path d="M 0 336.409 L 0 -336.409" fill="none" stroke="#000000" stroke-width="2.9333334" stroke-linecap="round" stroke-linejoin="round" marker-end="url(#CustomMarker-05)" transform="matrix(0.454545 0 -0 0.454545 161.413 161.413)" />
	<g transform="matrix(1 0 -0 1 236.748 186.356)">
		<svg width="137.910278" height="56.9999886">
			<defs />
			<path d="M 12.3905 16.5678 C 12.3218 16.751, 12.2022 16.8426, 12.0322 16.8426, 11.4035 16.806, 10.7778 16.7876, 10.1549 16.7876 L 9.84402 16.7876 C 9.10835 16.8002, 8.36924 16.8185, 7.62727 16.8426, 7.4578 16.8426, 7.3662 16.7636, 7.35361 16.6044 L 7.35361 16.5311, 7.39139 16.3754 C 7.44177 16.1745, 7.56429 16.0766, 7.75894 16.0823, 7.99196 16.0829, 8.19978 16.0754, 8.38183 16.06, 8.56389 16.0451, 8.74023 15.9913, 8.90969 15.8991, 8.97266 15.8693, 9.02648 15.8264, 9.06999 15.7709, 9.09518 15.7228, 9.11121 15.6735, 9.11751 15.6243 L 9.11751 15.5693, 8.8908 12.5282, 4.62732 12.5282, 3.12734 15.093 C 3.04604 15.2401, 3.00482 15.3747, 3.00482 15.4961, 3.00482 15.6002, 3.03631 15.6953, 3.09929 15.78, 3.23784 15.9821, 3.49547 16.0829, 3.87275 16.0823, 4.04278 16.0829, 4.13381 16.1562, 4.14641 16.3021, 4.14641 16.3394, 4.14011 16.3789, 4.12752 16.4212 L 4.08973 16.5678 C 4.02103 16.751, 3.89794 16.8426, 3.72161 16.8426, 3.14337 16.8185, 2.57086 16.8002, 2.00465 16.7876 L 1.75046 16.7876 C 1.25981 16.7876, 0.762876 16.806, 0.25964 16.8426, 0.165748 16.8426, 0.0964748 16.8123, 0.0523915 16.751, 0.0146059 16.7149, -0.00428694 16.672, -0.00428694 16.6228, -0.00428694 16.5867, 0.00201064 16.55, 0.0146059 16.5128 L 0.0523915 16.3754 C 0.102772 16.1745, 0.225289 16.0766, 0.419943 16.0823, 0.621466 16.0829, 0.820127 16.0617, 1.01478 16.0188, 1.20943 15.9764, 1.39206 15.8997, 1.56153 15.7897, 1.73156 15.6798, 1.889 15.547, 2.03328 15.3913, 2.17812 15.2356, 2.30693 15.0598, 2.41972 14.864 L 9.07972 3.45961 C 9.19308 3.289, 9.33735 3.20656, 9.51369 3.21228 L 9.69288 3.21228 C 9.89441 3.21285, 10.0072 3.30732, 10.0324 3.49625 L 10.8625 15.4319 C 10.8751 15.5911, 10.894 15.7119, 10.9192 15.7943, 10.9444 15.8768, 10.9885 15.9363, 11.0514 15.9724, 11.1396 16.0279, 11.2856 16.06, 11.49 16.0691, 11.6944 16.0783, 11.9257 16.0829, 12.1833 16.0823, 12.3596 16.0829, 12.4472 16.1562, 12.4472 16.3021, 12.4472 16.3394, 12.4409 16.3789, 12.4283 16.4212 Z M 8.43851 6.03361 L 5.08017 11.7862, 8.83469 11.7862 Z" stroke="none" fill="#000000" />
			<path d="M 2.37714 3.19713 C 1.7292 3.17661, 1.09857 3.16635, 0.485571 3.16635, -0.127106 3.16635, -0.757737 3.17661, -1.406 3.19713 L -1.406 2.75598, -1.04115 2.75598 C -0.925093 2.7563, -0.815766 2.75469, -0.713814 2.75117, -0.611541 2.74796, -0.514718 2.7393, -0.423025 2.72552, -0.331331 2.71205, -0.252142 2.69827, -0.185456 2.68416, -0.12903 2.67422, -0.082221 2.6428, -0.0453515 2.58958, -0.00816131 2.53668, 0.0101132 2.47769, 0.0101132 2.41229 L 0.0101132 -3.36887 C -0.165899 -3.28295, -0.382628 -3.21787, -0.639754 -3.17362, -0.89688 -3.12906, -1.17869 -3.10694, -1.48519 -3.10726 L -1.48519 -3.54328 C -1.06231 -3.54296, -0.672135 -3.59329, -0.31466 -3.69429, 0.042815 -3.79496, 0.351879 -3.98411, 0.612531 -4.26144 L 0.77636 -4.26144 C 0.89242 -4.26112, 0.950449 -4.20469, 0.950449 -4.09216 L 0.950449 2.41229 C 0.950449 2.4809, 0.968082 2.54085, 1.00335 2.59215, 1.03862 2.64344, 1.08991 2.67422, 1.1566 2.68416, 1.21302 2.69827, 1.28548 2.71205, 1.37333 2.72552, 1.46149 2.7393, 1.56088 2.74796, 1.67181 2.75117, 1.78274 2.75469, 1.89111 2.7563, 1.99658 2.75598 L 2.37714 2.75598, 2.37714 3.19713 Z" stroke="none" fill="#000000" transform="matrix(1.12 0 0 1 14.9145 16.3063)" />
			<path d="M 22.9791 16.696 C 22.9791 17.4105, 22.8331 18.0855, 22.5406 18.7204, 22.2486 19.3559, 21.8381 19.9175, 21.3097 20.4059, 21.2536 20.4425, 21.1906 20.4609, 21.1208 20.4609, 21.071 20.4609, 21.0051 20.4425, 20.9227 20.4059 L 20.8757 20.3326 C 20.8254 20.2839, 20.8002 20.229, 20.8002 20.1677, 20.8002 20.1128, 20.8254 20.0486, 20.8757 19.9754, 21.3538 19.5357, 21.7202 19.0353, 21.975 18.4731, 22.2297 17.9115, 22.3568 17.3189, 22.3568 16.696, 22.3568 16.6537, 22.354 16.6067, 22.3477 16.5546, 22.3414 16.5031, 22.3379 16.5346, 22.3379 16.6502, 22.2372 16.7664, 22.0047 16.8243, 21.64 16.8243, 21.2753 16.8243, 20.9988 16.7121, 20.8099 16.4859, 20.621 16.2603, 20.5265 16.0096, 20.5265 15.7342, 20.5265 15.46, 20.621 15.2115, 20.8099 14.9882, 20.9988 14.7655, 21.2753 14.6539, 21.64 14.6533, 21.9103 14.6539, 22.1307 14.7226, 22.3001 14.86, 22.4702 14.9974, 22.6053 15.164, 22.706 15.3592, 22.8068 15.555, 22.8772 15.7714, 22.9179 16.0096, 22.9591 16.2478, 22.9791 16.4768, 22.9791 16.696 Z" stroke="none" fill="#000000" />
			<path d="M 38.1892 12.2259 C 38.0198 12.8923, 37.7358 13.5169, 37.3362 14.0997, 36.9366 14.6831, 36.4603 15.1943, 35.9066 15.634, 35.353 16.0737, 34.7462 16.4207, 34.0855 16.6737, 33.4248 16.9268, 32.7521 17.0533, 32.0662 17.0533 L 31.7456 17.0533 C 31.6386 17.0533, 31.5601 17.0504, 31.5098 17.0441 L 30.9058 20.2044 C 30.8623 20.4551, 30.7472 20.6383, 30.5617 20.754, 30.3762 20.8702, 30.1827 20.928, 29.9812 20.928, 29.7865 20.928, 29.6291 20.8639, 29.5094 20.7357, 29.4281 20.675, 29.3869 20.5708, 29.3869 20.4242, 29.3869 20.3452, 29.3995 20.2565, 29.4247 20.1586 L 30.4999 16.8701 C 29.9777 16.7602, 29.4796 16.5701, 29.0045 16.2981, 28.5299 16.0268, 28.1417 15.6878, 27.8394 15.2814, 27.5377 14.8755, 27.3396 14.4094, 27.2451 13.8839, 27.2074 13.6892, 27.1885 13.4814, 27.1885 13.261, 27.1885 12.9318, 27.2325 12.5745, 27.3207 12.1892, 27.4781 11.5852, 27.6825 10.9824, 27.9339 10.3807, 28.1858 9.77954, 28.5659 9.22192, 29.0755 8.70838, 29.1258 8.62364, 29.2111 8.57784, 29.3302 8.57097 L 29.4247 8.57097 C 29.4877 8.57155, 29.5438 8.59616, 29.5941 8.64425, 29.6319 8.69979, 29.6508 8.75761, 29.6508 8.8183 L 29.6508 8.85494 C 29.6508 8.91677, 29.6228 8.97459, 29.5661 9.02898, 29.1258 9.48126, 28.7926 9.98221, 28.5659 10.5318, 28.3398 11.0814, 28.148 11.6465, 27.9905 12.2259, 27.9276 12.4829, 27.8961 12.7211, 27.8961 12.9404, 27.8961 13.1362, 27.9213 13.3165, 27.9717 13.4808, 28.0661 13.8724, 28.2499 14.2131, 28.5236 14.5027, 28.7972 14.793, 29.1436 15.0375, 29.5615 15.2356, 29.9794 15.4342, 30.4214 15.5728, 30.8869 15.6518 L 31.4153 14.0213 C 31.6294 13.3989, 31.8716 12.7566, 32.1418 12.0936, 32.412 11.4312, 32.7344 10.8238, 33.1088 10.2708, 33.4832 9.71828, 33.9177 9.26314, 34.4112 8.90589, 34.9047 8.54865, 35.4755 8.37002, 36.123 8.36945, 36.6074 8.37002, 37.0133 8.47994, 37.3402 8.69979, 37.6677 8.91963, 37.9144 9.21619, 38.081 9.58832, 38.2482 9.96103, 38.3375 10.379, 38.3501 10.8427 L 38.3501 10.9709 C 38.3501 11.3929, 38.2969 11.8114, 38.1892 12.2259 Z M 37.5194 12.1892 C 37.5824 11.9516, 37.6139 11.7163, 37.6139 11.4839, 37.6139 11.3929, 37.6076 11.295, 37.595 11.1908, 37.5572 10.8919, 37.4633 10.6269, 37.3121 10.3944, 37.161 10.1626, 36.9601 9.97935, 36.7081 9.84481, 36.4568 9.71084, 36.1677 9.64328, 35.8402 9.64271, 35.3811 9.64328, 34.9488 9.76408, 34.5429 10.0051, 34.1376 10.2467, 33.7695 10.573, 33.4391 10.9852, 33.1094 11.3975, 32.8311 11.8726, 32.6044 12.4097, 32.3777 12.9472, 32.2048 13.4997, 32.0851 14.0671 L 31.7548 15.7709 C 31.7989 15.7777, 31.8773 15.7806, 31.9907 15.78 L 32.3588 15.78 C 32.925 15.7806, 33.4878 15.6907, 34.0477 15.5104, 34.6076 15.3306, 35.1217 15.0816, 35.59 14.7638, 36.0589 14.4466, 36.4648 14.0665, 36.8072 13.6234, 37.1501 13.1808, 37.3877 12.7028, 37.5194 12.1892 Z" stroke="none" fill="#000000" />
			<path d="M 2.37714 3.19713 C 1.7292 3.17661, 1.09857 3.16635, 0.485571 3.16635, -0.127106 3.16635, -0.757737 3.17661, -1.406 3.19713 L -1.406 2.75598, -1.04115 2.75598 C -0.925093 2.7563, -0.815766 2.75469, -0.713814 2.75117, -0.611541 2.74796, -0.514718 2.7393, -0.423025 2.72552, -0.331331 2.71205, -0.252142 2.69827, -0.185456 2.68416, -0.12903 2.67422, -0.082221 2.6428, -0.0453515 2.58958, -0.00816131 2.53668, 0.0101132 2.47769, 0.0101132 2.41229 L 0.0101132 -3.36887 C -0.165899 -3.28295, -0.382628 -3.21787, -0.639754 -3.17362, -0.89688 -3.12906, -1.17869 -3.10694, -1.48519 -3.10726 L -1.48519 -3.54328 C -1.06231 -3.54296, -0.672135 -3.59329, -0.31466 -3.69429, 0.042815 -3.79496, 0.351879 -3.98411, 0.612531 -4.26144 L 0.77636 -4.26144 C 0.89242 -4.26112, 0.950449 -4.20469, 0.950449 -4.09216 L 0.950449 2.41229 C 0.950449 2.4809, 0.968082 2.54085, 1.00335 2.59215, 1.03862 2.64344, 1.08991 2.67422, 1.1566 2.68416, 1.21302 2.69827, 1.28548 2.71205, 1.37333 2.72552, 1.46149 2.7393, 1.56088 2.74796, 1.67181 2.75117, 1.78274 2.75469, 1.89111 2.7563, 1.99658 2.75598 L 2.37714 2.75598, 2.37714 3.19713 Z" stroke="none" fill="#000000" transform="matrix(1.12 0 0 1 41.6304 16.3063)" />
			<rect />
		</svg>
	</g>
	<g transform="matrix(1 0 -0 1 87.6368 24.1595)">
		<svg width="141.067749" height="56.9999886">
			<defs />
			<path d="M 12.3983 16.5678 C 12.3296 16.751, 12.2099 16.8426, 12.0399 16.8426, 11.4113 16.806, 10.7849 16.7876, 10.1621 16.7876 L 9.85061 16.7876 C 9.11493 16.8002, 8.37582 16.8185, 7.63385 16.8426, 7.46439 16.8426, 7.37279 16.7636, 7.36019 16.6044 L 7.36019 16.5311, 7.39798 16.3754 C 7.44836 16.1745, 7.57088 16.0766, 7.76553 16.0823, 7.99854 16.0829, 8.20636 16.0754, 8.38842 16.06, 8.57105 16.0451, 8.74738 15.9913, 8.91685 15.8991, 8.97982 15.8693, 9.03364 15.8264, 9.07715 15.7709, 9.10234 15.7228, 9.11837 15.6735, 9.12409 15.6243 L 9.12409 15.5693, 8.89795 12.5282, 4.63333 12.5282, 3.13335 15.093 C 3.05148 15.2401, 3.01026 15.3747, 3.01026 15.4961, 3.01026 15.6002, 3.04175 15.6953, 3.10473 15.78, 3.24327 15.9821, 3.50148 16.0829, 3.87819 16.0823, 4.04822 16.0829, 4.13925 16.1562, 4.15185 16.3021, 4.15185 16.3394, 4.14555 16.3789, 4.13295 16.4212 L 4.09574 16.5678 C 4.02647 16.751, 3.90395 16.8426, 3.72762 16.8426, 3.14938 16.8185, 2.57687 16.8002, 2.01009 16.7876 L 1.75589 16.7876 C 1.26525 16.7876, 0.768314 16.806, 0.265078 16.8426, 0.170614 16.8426, 0.101341 16.8123, 0.0572573 16.751, 0.0194716 16.7149, 0.000578821 16.672, 0.000578821 16.6228, 0.000578821 16.5867, 0.00687641 16.55, 0.0194716 16.5128 L 0.0572573 16.3754 C 0.107638 16.1745, 0.230728 16.0766, 0.425381 16.0823, 0.626904 16.0829, 0.824993 16.0617, 1.01965 16.0188, 1.21487 15.9764, 1.3975 15.8997, 1.56697 15.7897, 1.737 15.6798, 1.89444 15.547, 2.03871 15.3913, 2.18356 15.2356, 2.31237 15.0598, 2.42573 14.864 L 9.08631 3.45961 C 9.19967 3.289, 9.34451 3.20656, 9.52084 3.21228 L 9.70004 3.21228 C 9.90156 3.21285, 10.0143 3.30732, 10.0395 3.49625 L 10.8697 15.4319 C 10.8823 15.5911, 10.9012 15.7119, 10.9264 15.7943, 10.9515 15.8768, 10.9956 15.9363, 11.0586 15.9724, 11.1468 16.0279, 11.2928 16.06, 11.4971 16.0691, 11.7021 16.0783, 11.9328 16.0829, 12.1905 16.0823, 12.3668 16.0829, 12.455 16.1562, 12.455 16.3021, 12.455 16.3394, 12.4487 16.3789, 12.4361 16.4212 Z M 8.4451 6.03361 L 5.08618 11.7862, 8.84127 11.7862 Z" stroke="none" fill="#000000" />
			<path d="M 2.39138 3.19713 L -1.90858 3.19713, -1.90858 2.915 C -1.90858 2.8948, -1.898 2.86402, -1.87684 2.82266 L -0.149418 0.945196 C 0.0551279 0.71981, 0.261918 0.488975, 0.471594 0.253009, 0.68127 0.0170434, 0.868504 -0.224052, 1.03394 -0.470277, 1.19937 -0.716502, 1.33146 -0.970422, 1.4302 -1.23204, 1.52895 -1.49365, 1.578 -1.76809, 1.578 -2.05567, 1.578 -2.29805, 1.54658 -2.52472, 1.4831 -2.73503, 1.41962 -2.94535, 1.32825 -3.13002, 1.20835 -3.28904, 1.08844 -3.44806, 0.938716 -3.5763, 0.759177 -3.67377, 0.579638 -3.77123, 0.371886 -3.81996, 0.13592 -3.82028, -0.216105 -3.81996, -0.527092 -3.7148, -0.7964 -3.50449, -1.06571 -3.29417, -1.24461 -3.06237, -1.33277 -2.80974, -1.35009 -2.80268, -1.32187 -2.79915, -1.24813 -2.79948 L -1.15836 -2.79948 C -1.05256 -2.77511, -0.961191 -2.73824, -0.883605 -2.68887, -0.806018 -2.63917, -0.740935 -2.57088, -0.688036 -2.48368, -0.635136 -2.39647, -0.608846 -2.29132, -0.608846 -2.16852, -0.608846 -1.96302, -0.675532 -1.8056, -0.809545 -1.69627, -0.943558 -1.58663, -1.09328 -1.53212, -1.25871 -1.53244, -1.41709 -1.53212, -1.56489 -1.58663, -1.70243 -1.69627, -1.83965 -1.8056, -1.90858 -1.96302, -1.90858 -2.16852, -1.90858 -2.45547, -1.85215 -2.72734, -1.7393 -2.98382, -1.62645 -3.24031, -1.47352 -3.46249, -1.27987 -3.65068, -1.08623 -3.83856, -0.857315 -3.98732, -0.593136 -4.09697, -0.328958 -4.20629, -0.0487483 -4.26112, 0.24685 -4.26144, 0.612981 -4.26112, 0.948655 -4.20725, 1.25323 -4.09953, 1.55781 -3.99181, 1.8175 -3.83695, 2.0323 -3.63529, 2.24711 -3.43331, 2.41543 -3.19991, 2.53693 -2.93509, 2.65844 -2.66995, 2.71904 -2.37692, 2.71904 -2.05567, 2.71904 -1.6998, 2.63825 -1.37214, 2.47602 -1.07302, 2.31411 -0.77357, 2.11342 -0.499131, 1.87392 -0.2497, 1.63443 5.126e-005, 1.37987 0.235055, 1.11056 0.455632, 0.841252 0.676208, 0.597272 0.890693, 0.378939 1.09909 L -0.836155 2.24301, 0.754048 2.24301 C 0.975907 2.24333, 1.18302 2.24172, 1.37474 2.2382, 1.56678 2.23499, 1.72965 2.22794, 1.86334 2.21768, 1.99736 2.20742, 2.06597 2.20069, 2.06917 2.19684, 2.09738 2.17312, 2.12399 2.12534, 2.14868 2.05353, 2.17337 1.98171, 2.19613 1.89707, 2.21729 1.79961, 2.23845 1.70215, 2.25961 1.60308, 2.28077 1.50209, 2.30193 1.40142, 2.32117 1.29081, 2.3388 1.1709 L 2.72962 1.1709 Z" stroke="none" fill="#000000" transform="matrix(1.12 0 0 1 15.3403 16.3063)" />
			<path d="M 23.8524 16.696 C 23.8524 17.4105, 23.7064 18.0855, 23.4139 18.7204, 23.1213 19.3559, 22.7108 19.9175, 22.1824 20.4059, 22.1263 20.4425, 22.0633 20.4609, 21.9935 20.4609, 21.9437 20.4609, 21.8778 20.4425, 21.7954 20.4059 L 21.7484 20.3326 C 21.698 20.2839, 21.6729 20.229, 21.6729 20.1677, 21.6729 20.1128, 21.698 20.0486, 21.7484 19.9754, 22.2265 19.5357, 22.5929 19.0353, 22.8476 18.4731, 23.1024 17.9115, 23.2295 17.3189, 23.2295 16.696, 23.2295 16.6537, 23.2266 16.6067, 23.2203 16.5546, 23.2141 16.5031, 23.2106 16.5346, 23.2106 16.6502, 23.1104 16.7664, 22.878 16.8243, 22.5127 16.8243, 22.148 16.8243, 21.8715 16.7121, 21.6826 16.4859, 21.4937 16.2603, 21.3992 16.0096, 21.3992 15.7342, 21.3992 15.46, 21.4937 15.2115, 21.6826 14.9882, 21.8715 14.7655, 22.148 14.6539, 22.5127 14.6533, 22.783 14.6539, 23.0034 14.7226, 23.1728 14.86, 23.3429 14.9974, 23.478 15.164, 23.5787 15.3592, 23.6795 15.555, 23.7505 15.7714, 23.7911 16.0096, 23.8324 16.2478, 23.8524 16.4768, 23.8524 16.696 Z" stroke="none" fill="#000000" />
			<path d="M 39.0605 12.2259 C 38.891 12.8923, 38.6071 13.5169, 38.2075 14.0997, 37.8078 14.6831, 37.3315 15.1943, 36.7779 15.634, 36.2243 16.0737, 35.6174 16.4207, 34.9567 16.6737, 34.2961 16.9268, 33.6234 17.0533, 32.9375 17.0533 L 32.6169 17.0533 C 32.5098 17.0533, 32.4314 17.0504, 32.381 17.0441 L 31.777 20.2044 C 31.7335 20.4551, 31.6184 20.6383, 31.4329 20.754, 31.2475 20.8702, 31.0539 20.928, 30.8524 20.928, 30.6578 20.928, 30.5003 20.8639, 30.3807 20.7357, 30.2994 20.675, 30.2582 20.5708, 30.2582 20.4242, 30.2582 20.3452, 30.2708 20.2565, 30.2959 20.1586 L 31.3711 16.8701 C 30.849 16.7602, 30.3509 16.5701, 29.8757 16.2981, 29.4011 16.0268, 29.0129 15.6878, 28.7107 15.2814, 28.4089 14.8755, 28.2109 14.4094, 28.1164 13.8839, 28.0786 13.6892, 28.0597 13.4814, 28.0597 13.261, 28.0597 12.9318, 28.1038 12.5745, 28.192 12.1892, 28.3494 11.5852, 28.5538 10.9824, 28.8051 10.3807, 29.057 9.77954, 29.4372 9.22192, 29.9467 8.70838, 29.9971 8.62364, 30.0824 8.57784, 30.2015 8.57097 L 30.2959 8.57097 C 30.3589 8.57155, 30.415 8.59616, 30.4654 8.64425, 30.5032 8.69979, 30.5221 8.75761, 30.5221 8.8183 L 30.5221 8.85494 C 30.5221 8.91677, 30.494 8.97459, 30.4374 9.02898, 29.9971 9.48126, 29.6639 9.98221, 29.4372 10.5318, 29.211 11.0814, 29.0192 11.6465, 28.8618 12.2259, 28.7988 12.4829, 28.7673 12.7211, 28.7673 12.9404, 28.7673 13.1362, 28.7925 13.3165, 28.8429 13.4808, 28.9374 13.8724, 29.1212 14.2131, 29.3948 14.5027, 29.6685 14.793, 30.0148 15.0375, 30.4328 15.2356, 30.8507 15.4342, 31.2927 15.5728, 31.7581 15.6518 L 32.2866 14.0213 C 32.5007 13.3989, 32.7428 12.7566, 33.0131 12.0936, 33.2833 11.4312, 33.6056 10.8238, 33.98 10.2708, 34.3545 9.71828, 34.789 9.26314, 35.2825 8.90589, 35.776 8.54865, 36.3468 8.37002, 36.9943 8.36945, 37.4786 8.37002, 37.8846 8.47994, 38.2115 8.69979, 38.5389 8.91963, 38.7857 9.21619, 38.9523 9.58832, 39.1195 9.96103, 39.2088 10.379, 39.2214 10.8427 L 39.2214 10.9709 C 39.2214 11.3929, 39.1681 11.8114, 39.0605 12.2259 Z M 38.3907 12.1892 C 38.4536 11.9516, 38.4851 11.7163, 38.4851 11.4839, 38.4851 11.3929, 38.4788 11.295, 38.4662 11.1908, 38.4284 10.8919, 38.3345 10.6269, 38.1834 10.3944, 38.0323 10.1626, 37.8313 9.97935, 37.5794 9.84481, 37.3281 9.71084, 37.039 9.64328, 36.7115 9.64271, 36.2523 9.64328, 35.8201 9.76408, 35.4142 10.0051, 35.0088 10.2467, 34.6407 10.573, 34.3104 10.9852, 33.9806 11.3975, 33.7024 11.8726, 33.4757 12.4097, 33.2489 12.9472, 33.076 13.4997, 32.9564 14.0671 L 32.6261 15.7709 C 32.6701 15.7777, 32.7486 15.7806, 32.8619 15.78 L 33.2301 15.78 C 33.7963 15.7806, 34.359 15.6907, 34.919 15.5104, 35.4789 15.3306, 35.993 15.0816, 36.4613 14.7638, 36.9302 14.4466, 37.3361 14.0665, 37.6785 13.6234, 38.0214 13.1808, 38.259 12.7028, 38.3907 12.1892 Z" stroke="none" fill="#000000" />
			<path d="M 2.39138 3.19713 L -1.90858 3.19713, -1.90858 2.915 C -1.90858 2.8948, -1.898 2.86402, -1.87684 2.82266 L -0.149418 0.945196 C 0.0551279 0.71981, 0.261918 0.488975, 0.471594 0.253009, 0.68127 0.0170434, 0.868504 -0.224052, 1.03394 -0.470277, 1.19937 -0.716502, 1.33146 -0.970422, 1.4302 -1.23204, 1.52895 -1.49365, 1.578 -1.76809, 1.578 -2.05567, 1.578 -2.29805, 1.54658 -2.52472, 1.4831 -2.73503, 1.41962 -2.94535, 1.32825 -3.13002, 1.20835 -3.28904, 1.08844 -3.44806, 0.938716 -3.5763, 0.759177 -3.67377, 0.579638 -3.77123, 0.371886 -3.81996, 0.13592 -3.82028, -0.216105 -3.81996, -0.527092 -3.7148, -0.7964 -3.50449, -1.06571 -3.29417, -1.24461 -3.06237, -1.33277 -2.80974, -1.35009 -2.80268, -1.32187 -2.79915, -1.24813 -2.79948 L -1.15836 -2.79948 C -1.05256 -2.77511, -0.961191 -2.73824, -0.883605 -2.68887, -0.806018 -2.63917, -0.740935 -2.57088, -0.688036 -2.48368, -0.635136 -2.39647, -0.608846 -2.29132, -0.608846 -2.16852, -0.608846 -1.96302, -0.675532 -1.8056, -0.809545 -1.69627, -0.943558 -1.58663, -1.09328 -1.53212, -1.25871 -1.53244, -1.41709 -1.53212, -1.56489 -1.58663, -1.70243 -1.69627, -1.83965 -1.8056, -1.90858 -1.96302, -1.90858 -2.16852, -1.90858 -2.45547, -1.85215 -2.72734, -1.7393 -2.98382, -1.62645 -3.24031, -1.47352 -3.46249, -1.27987 -3.65068, -1.08623 -3.83856, -0.857315 -3.98732, -0.593136 -4.09697, -0.328958 -4.20629, -0.0487483 -4.26112, 0.24685 -4.26144, 0.612981 -4.26112, 0.948655 -4.20725, 1.25323 -4.09953, 1.55781 -3.99181, 1.8175 -3.83695, 2.0323 -3.63529, 2.24711 -3.43331, 2.41543 -3.19991, 2.53693 -2.93509, 2.65844 -2.66995, 2.71904 -2.37692, 2.71904 -2.05567, 2.71904 -1.6998, 2.63825 -1.37214, 2.47602 -1.07302, 2.31411 -0.77357, 2.11342 -0.499131, 1.87392 -0.2497, 1.63443 5.126e-005, 1.37987 0.235055, 1.11056 0.455632, 0.841252 0.676208, 0.597272 0.890693, 0.378939 1.09909 L -0.836155 2.24301, 0.754048 2.24301 C 0.975907 2.24333, 1.18302 2.24172, 1.37474 2.2382, 1.56678 2.23499, 1.72965 2.22794, 1.86334 2.21768, 1.99736 2.20742, 2.06597 2.20069, 2.06917 2.19684, 2.09738 2.17312, 2.12399 2.12534, 2.14868 2.05353, 2.17337 1.98171, 2.19613 1.89707, 2.21729 1.79961, 2.23845 1.70215, 2.25961 1.60308, 2.28077 1.50209, 2.30193 1.40142, 2.32117 1.29081, 2.3388 1.1709 L 2.72962 1.1709 Z" stroke="none" fill="#000000" transform="matrix(1.12 0 0 1 42.9246 16.3063)" />
			<rect />
		</svg>
	</g>
	<g transform="matrix(1 0 -0 1 223.22 55.4647)">
		<svg width="180.105621" height="63.0318985">
			<defs />
			<path d="M 12.3983 16.5678 C 12.3296 16.751, 12.2099 16.8426, 12.0399 16.8426, 11.4113 16.806, 10.7849 16.7876, 10.1621 16.7876 L 9.85061 16.7876 C 9.11493 16.8002, 8.37582 16.8185, 7.63385 16.8426, 7.46439 16.8426, 7.37279 16.7636, 7.36019 16.6044 L 7.36019 16.5311, 7.39798 16.3754 C 7.44836 16.1745, 7.57088 16.0766, 7.76553 16.0823, 7.99854 16.0829, 8.20636 16.0754, 8.38842 16.06, 8.57105 16.0451, 8.74738 15.9913, 8.91685 15.8991, 8.97982 15.8693, 9.03364 15.8264, 9.07715 15.7709, 9.10234 15.7228, 9.11837 15.6735, 9.12409 15.6243 L 9.12409 15.5693, 8.89795 12.5282, 4.63333 12.5282, 3.13335 15.093 C 3.05148 15.2401, 3.01026 15.3747, 3.01026 15.4961, 3.01026 15.6002, 3.04175 15.6953, 3.10473 15.78, 3.24327 15.9821, 3.50148 16.0829, 3.87819 16.0823, 4.04822 16.0829, 4.13925 16.1562, 4.15185 16.3021, 4.15185 16.3394, 4.14555 16.3789, 4.13295 16.4212 L 4.09574 16.5678 C 4.02647 16.751, 3.90395 16.8426, 3.72762 16.8426, 3.14938 16.8185, 2.57687 16.8002, 2.01009 16.7876 L 1.75589 16.7876 C 1.26525 16.7876, 0.768314 16.806, 0.265078 16.8426, 0.170614 16.8426, 0.101341 16.8123, 0.0572573 16.751, 0.0194716 16.7149, 0.000578821 16.672, 0.000578821 16.6228, 0.000578821 16.5867, 0.00687641 16.55, 0.0194716 16.5128 L 0.0572573 16.3754 C 0.107638 16.1745, 0.230728 16.0766, 0.425381 16.0823, 0.626904 16.0829, 0.824993 16.0617, 1.01965 16.0188, 1.21487 15.9764, 1.3975 15.8997, 1.56697 15.7897, 1.737 15.6798, 1.89444 15.547, 2.03871 15.3913, 2.18356 15.2356, 2.31237 15.0598, 2.42573 14.864 L 9.08631 3.45961 C 9.19967 3.289, 9.34451 3.20656, 9.52084 3.21228 L 9.70004 3.21228 C 9.90156 3.21285, 10.0143 3.30732, 10.0395 3.49625 L 10.8697 15.4319 C 10.8823 15.5911, 10.9012 15.7119, 10.9264 15.7943, 10.9515 15.8768, 10.9956 15.9363, 11.0586 15.9724, 11.1468 16.0279, 11.2928 16.06, 11.4971 16.0691, 11.7021 16.0783, 11.9328 16.0829, 12.1905 16.0823, 12.3668 16.0829, 12.455 16.1562, 12.455 16.3021, 12.455 16.3394, 12.4487 16.3789, 12.4361 16.4212 Z M 8.4451 6.03361 L 5.08618 11.7862, 8.84127 11.7862 Z" stroke="none" fill="#000000" />
			<path d="M -3.12061 4.82837 L -3.12061 0.483524, 3.875 0.483524, 3.875 4.82837, 3.0613 4.82837, 3.0613 4.21281, -2.31204 4.21281, -2.31204 4.82837 Z M -2.31204 3.47926 L 3.0613 3.47926, 3.0613 1.22733, -2.31204 1.22733 Z M -3.99747 -0.475728 C -4.10327 -0.653343, -4.26357 -0.901171, -4.47837 -1.21953, -3.4005 -1.72865, -2.45279 -2.31536, -1.63589 -2.97902, -0.864509 -3.60804, -0.249588 -4.27298, 0.208237 -4.97446 L 1.1646 -4.85135 C 1.07676 -4.72439, 0.986667 -4.59615, 0.894974 -4.46663, 1.98375 -3.12906, 3.43481 -2.10152, 5.2488 -1.38368, 5.07631 -1.11662, 4.91761 -0.858531, 4.77334 -0.6091, 4.21677 -0.86879, 3.68328 -1.15926, 3.17223 -1.48115 L 3.17223 -0.76812, -2.39123 -0.76812, -2.39123 -1.43498 C -2.92664 -1.07558, -3.46205 -0.755937, -3.99747 -0.475728 Z M -2.2803 -1.50167 L 3.12991 -1.50167 C 2.06615 -2.16468, 1.16973 -2.95818, 0.440676 -3.88184, -0.270748 -3.02326, -1.17774 -2.22976, -2.2803 -1.50167 Z" stroke="none" fill="#000000" transform="matrix(1.12 0 0 1 18.9167 17.7139)" />
			<path d="M 30.4568 16.696 C 30.4568 17.4105, 30.3108 18.0855, 30.0182 18.7204, 29.7257 19.3559, 29.3152 19.9175, 28.7867 20.4059, 28.7306 20.4425, 28.6677 20.4609, 28.5978 20.4609, 28.548 20.4609, 28.4822 20.4425, 28.3997 20.4059 L 28.3528 20.3326 C 28.3024 20.2839, 28.2772 20.229, 28.2772 20.1677, 28.2772 20.1128, 28.3024 20.0486, 28.3528 19.9754, 28.8308 19.5357, 29.1972 19.0353, 29.452 18.4731, 29.7068 17.9115, 29.8339 17.3189, 29.8339 16.696, 29.8339 16.6537, 29.831 16.6067, 29.8247 16.5546, 29.8184 16.5031, 29.815 16.5346, 29.815 16.6502, 29.7148 16.7664, 29.4823 16.8243, 29.1171 16.8243, 28.7524 16.8243, 28.4759 16.7121, 28.2869 16.4859, 28.098 16.2603, 28.0035 16.0096, 28.0035 15.7342, 28.0035 15.46, 28.098 15.2115, 28.2869 14.9882, 28.4759 14.7655, 28.7524 14.6539, 29.1171 14.6533, 29.3873 14.6539, 29.6077 14.7226, 29.7772 14.86, 29.9472 14.9974, 30.0823 15.164, 30.1831 15.3592, 30.2839 15.555, 30.3548 15.7714, 30.3955 16.0096, 30.4367 16.2478, 30.4568 16.4768, 30.4568 16.696 Z" stroke="none" fill="#000000" />
			<path d="M 45.6648 12.2259 C 45.4954 12.8923, 45.2114 13.5169, 44.8118 14.0997, 44.4122 14.6831, 43.9359 15.1943, 43.3822 15.634, 42.8286 16.0737, 42.2218 16.4207, 41.5611 16.6737, 40.9004 16.9268, 40.2277 17.0533, 39.5419 17.0533 L 39.2212 17.0533 C 39.1142 17.0533, 39.0358 17.0504, 38.9854 17.0441 L 38.3814 20.2044 C 38.3379 20.4551, 38.2228 20.6383, 38.0373 20.754, 37.8518 20.8702, 37.6583 20.928, 37.4568 20.928, 37.2621 20.928, 37.1047 20.8639, 36.985 20.7357, 36.9037 20.675, 36.8625 20.5708, 36.8625 20.4242, 36.8625 20.3452, 36.8751 20.2565, 36.9003 20.1586 L 37.9755 16.8701 C 37.4533 16.7602, 36.9553 16.5701, 36.4801 16.2981, 36.0055 16.0268, 35.6173 15.6878, 35.315 15.2814, 35.0133 14.8755, 34.8152 14.4094, 34.7207 13.8839, 34.683 13.6892, 34.6641 13.4814, 34.6641 13.261, 34.6641 12.9318, 34.7082 12.5745, 34.7963 12.1892, 34.9538 11.5852, 35.1581 10.9824, 35.4095 10.3807, 35.6614 9.77954, 36.0415 9.22192, 36.5511 8.70838, 36.6014 8.62364, 36.6867 8.57784, 36.8058 8.57097 L 36.9003 8.57097 C 36.9633 8.57155, 37.0194 8.59616, 37.0698 8.64425, 37.1075 8.69979, 37.1264 8.75761, 37.1264 8.8183 L 37.1264 8.85494 C 37.1264 8.91677, 37.0984 8.97459, 37.0417 9.02898, 36.6014 9.48126, 36.2682 9.98221, 36.0415 10.5318, 35.8154 11.0814, 35.6236 11.6465, 35.4662 12.2259, 35.4032 12.4829, 35.3717 12.7211, 35.3717 12.9404, 35.3717 13.1362, 35.3969 13.3165, 35.4473 13.4808, 35.5417 13.8724, 35.7255 14.2131, 35.9992 14.5027, 36.2728 14.793, 36.6192 15.0375, 37.0371 15.2356, 37.4551 15.4342, 37.897 15.5728, 38.3625 15.6518 L 38.8909 14.0213 C 39.105 13.3989, 39.3472 12.7566, 39.6174 12.0936, 39.8876 11.4312, 40.21 10.8238, 40.5844 10.2708, 40.9588 9.71828, 41.3933 9.26314, 41.8869 8.90589, 42.3804 8.54865, 42.9511 8.37002, 43.5987 8.36945, 44.083 8.37002, 44.4889 8.47994, 44.8158 8.69979, 45.1433 8.91963, 45.39 9.21619, 45.5566 9.58832, 45.7238 9.96103, 45.8131 10.379, 45.8257 10.8427 L 45.8257 10.9709 C 45.8257 11.3929, 45.7725 11.8114, 45.6648 12.2259 Z M 44.995 12.1892 C 45.058 11.9516, 45.0895 11.7163, 45.0895 11.4839, 45.0895 11.3929, 45.0832 11.295, 45.0706 11.1908, 45.0328 10.8919, 44.9389 10.6269, 44.7878 10.3944, 44.6366 10.1626, 44.4357 9.97935, 44.1838 9.84481, 43.9324 9.71084, 43.6433 9.64328, 43.3158 9.64271, 42.8567 9.64328, 42.4244 9.76408, 42.0185 10.0051, 41.6132 10.2467, 41.2451 10.573, 40.9147 10.9852, 40.585 11.3975, 40.3067 11.8726, 40.08 12.4097, 39.8533 12.9472, 39.6804 13.4997, 39.5607 14.0671 L 39.2304 15.7709 C 39.2745 15.7777, 39.3529 15.7806, 39.4663 15.78 L 39.8344 15.78 C 40.4006 15.7806, 40.9634 15.6907, 41.5233 15.5104, 42.0832 15.3306, 42.5973 15.0816, 43.0657 14.7638, 43.5345 14.4466, 43.9404 14.0665, 44.2828 13.6234, 44.6257 13.1808, 44.8633 12.7028, 44.995 12.1892 Z" stroke="none" fill="#000000" />
			<path d="M -3.12061 4.82837 L -3.12061 0.483524, 3.875 0.483524, 3.875 4.82837, 3.0613 4.82837, 3.0613 4.21281, -2.31204 4.21281, -2.31204 4.82837 Z M -2.31204 3.47926 L 3.0613 3.47926, 3.0613 1.22733, -2.31204 1.22733 Z M -3.99747 -0.475728 C -4.10327 -0.653343, -4.26357 -0.901171, -4.47837 -1.21953, -3.4005 -1.72865, -2.45279 -2.31536, -1.63589 -2.97902, -0.864509 -3.60804, -0.249588 -4.27298, 0.208237 -4.97446 L 1.1646 -4.85135 C 1.07676 -4.72439, 0.986667 -4.59615, 0.894974 -4.46663, 1.98375 -3.12906, 3.43481 -2.10152, 5.2488 -1.38368, 5.07631 -1.11662, 4.91761 -0.858531, 4.77334 -0.6091, 4.21677 -0.86879, 3.68328 -1.15926, 3.17223 -1.48115 L 3.17223 -0.76812, -2.39123 -0.76812, -2.39123 -1.43498 C -2.92664 -1.07558, -3.46205 -0.755937, -3.99747 -0.475728 Z M -2.2803 -1.50167 L 3.12991 -1.50167 C 2.06615 -2.16468, 1.16973 -2.95818, 0.440676 -3.88184, -0.270748 -3.02326, -1.17774 -2.22976, -2.2803 -1.50167 Z" stroke="none" fill="#000000" transform="matrix(1.12 0 0 1 53.1054 17.7139)" />
			<rect />
		</svg>
	</g>
</svg>
