<?xml version="1.0"?>
<svg xmlns="http://www.w3.org/2000/svg" xmlns:xlink="http://www.w3.org/1999/xlink" width="532.653259" height="310.674957">
	<defs />
	<path d="M 0 290.331 L 0 -290.331" fill="none" stroke="#1A5AB3" stroke-width="2.66666675" stroke-linecap="round" stroke-linejoin="round" transform="matrix(0.5 0 0 0.5 128.852 153.666)" />
	<path d="M 0 290.331 L 0 -290.331" fill="none" stroke="#1A5AB3" stroke-width="2.66666675" stroke-linecap="round" stroke-linejoin="round" transform="matrix(0.5 0 0 0.5 162.009 153.666)" />
	<path d="M 0 168.478 L 0 -168.478" fill="none" stroke="#1A5AB3" stroke-width="2.66666675" stroke-linecap="round" stroke-linejoin="round" transform="matrix(0.5 0 0 0.5 207.842 214.592)" />
	<path d="M 0 290.331 L 0 -290.331" fill="none" stroke="#1A5AB3" stroke-width="2.66666675" stroke-linecap="round" stroke-linejoin="round" transform="matrix(0.5 0 0 0.5 85.7253 153.666)" />
	<path d="M 0 168.478 L 0 -168.478" fill="none" stroke="#1A5AB3" stroke-width="2.66666675" stroke-linecap="round" stroke-linejoin="round" transform="matrix(0.5 0 0 0.5 260.404 214.592)" />
	<path d="M 0 168.478 L 0 -168.478" fill="none" stroke="#1A5AB3" stroke-width="2.66666675" stroke-linecap="round" stroke-linejoin="round" transform="matrix(0.5 0 0 0.5 337.278 214.592)" />
	<path d="M 0 160.085 L 0 -160.085" fill="none" stroke="#1A5AB3" stroke-width="2.66666675" stroke-linecap="round" stroke-linejoin="round" transform="matrix(0.5 0 0 0.5 448.528 218.788)" />
	<path d="M 0 168.478 L 0 -168.478" fill="none" stroke="#1A5AB3" stroke-width="2.66666675" stroke-linecap="round" stroke-linejoin="round" transform="matrix(0.5 0 0 0.5 484.778 214.592)" />
	<path d="M 0 290.331 L 0 -290.331" fill="none" stroke="#1A5AB3" stroke-width="2.66666675" stroke-linecap="round" stroke-linejoin="round" transform="matrix(0.5 0 0 0.5 519.153 153.666)" />
	<g transform="matrix(1 0 -0 1 221.08 67.7254)">
		<svg width="750.031006" height="60.0856972">
			<defs />
			<path d="M 0.798332 18.5775 L 0.798332 17.3043, 2.79868 17.3043, 2.79868 12.6875, 16.1021 12.6875, 16.1021 17.3043, 18.0458 17.3043, 18.0458 18.5775 Z M 4.25171 17.3043 L 6.84632 17.3043, 6.84632 13.8784, 4.25171 13.8784 Z M 8.15794 17.3043 L 10.7526 17.3043, 10.7526 13.8784, 8.15794 13.8784 Z M 12.0356 17.3043 L 14.6582 17.3043, 14.6582 13.8784, 12.0356 13.8784 Z M 15.055 12.1471 C 14.0485 11.3902, 12.9762 10.6391, 11.8375 9.8937 L 12.6584 9.02349 C 13.7909 9.74485, 14.8723 10.4651, 15.904 11.1853 Z M 6.12954 11.7441 L 6.12954 6.02811, 7.53505 6.02811, 7.53505 11.7441 Z M 9.40315 11.7257 C 9.00068 11.4212, 8.6045 11.1492, 8.21462 10.9105, 8.83751 10.117, 9.35277 9.32634, 9.76154 8.538, 10.1709 7.7508, 10.5138 6.8926, 10.7903 5.96399 L 12.177 6.22048 C 12.0831 6.48956, 11.9445 6.88058, 11.7619 7.39298 L 17.7063 7.39298, 17.7063 8.5838, 11.2432 8.5838 C 10.74 9.64065, 10.1268 10.6883, 9.40315 11.7257 Z M 2.4025 11.57 L 2.4025 6.52276, 3.73302 6.52276, 3.73302 11.57 Z M 5.8181 5.50598 L 5.8181 4.44341, 0.817225 4.44341, 0.817225 3.21595, 5.8181 3.21595, 5.8181 1.75032, 7.20472 1.75032, 7.20472 3.21595, 11.7052 3.21595, 11.7052 1.75032, 13.1113 1.75032, 13.1113 3.21595, 17.9891 3.21595, 17.9891 4.44341, 13.1113 4.44341, 13.1113 5.50598, 11.7052 5.50598, 11.7052 4.44341, 7.20472 4.44341, 7.20472 5.50598 Z" stroke="none" fill="#000000" />
			<path d="M 24.5053 18.5134 C 23.5561 18.5134, 22.8657 18.3027, 22.4345 17.8814, 22.004 17.4606, 21.7882 16.7798, 21.7882 15.8386 L 21.7882 7.75938 C 21.4991 7.99812, 21.21 8.22083, 20.9203 8.42807, 20.7508 8.22712, 20.4142 7.8819, 19.9109 7.39298, 22.2634 5.70808, 24.1189 3.80277, 25.4774 1.67704 L 27.0433 1.92436 C 27.0181 1.96158, 26.9809 2.0194, 26.9305 2.09841, 26.5154 2.69725, 26.1977 3.14037, 25.9772 3.42663 L 33.0157 3.42663, 33.0157 4.67241, 30.8928 6.98993, 35.3275 6.98993, 35.3275 12.9166, 23.2223 12.9166, 23.2223 15.5913 C 23.2223 16.1718, 23.35 16.5766, 23.6048 16.8056, 23.8595 17.0346, 24.3107 17.1491, 24.9582 17.1485 L 33.346 17.1485 C 34.0508 17.1491, 34.5603 17.0455, 34.8746 16.8371, 35.1769 16.6361, 35.3876 16.2726, 35.5067 15.747, 35.513 15.7173, 35.5221 15.6715, 35.5347 15.6096, 35.6796 14.8774, 35.7769 14.2608, 35.8273 13.7593, 36.2555 13.9247, 36.7175 14.0805, 37.2145 14.2265, 37.1206 15.0698, 36.9946 15.7997, 36.8372 16.4157, 36.6551 17.1428, 36.3185 17.6707, 35.8273 18.0004, 35.312 18.3428, 34.5729 18.5134, 33.6099 18.5134 Z M 23.2223 11.625 L 27.8551 11.625, 27.8551 8.29983, 23.2223 8.29983 Z M 29.2606 11.625 L 33.9025 11.625, 33.9025 8.29983, 29.2606 8.29983 Z M 22.6847 6.98993 L 29.0625 6.98993, 31.1665 4.71821, 24.9393 4.71821 C 24.2729 5.47621, 23.5212 6.23307, 22.6847 6.98993 Z" stroke="none" fill="#000000" />
			<path d="M 45.6933 18.9989 L 45.6933 3.15182, 55.6847 3.15182, 55.6847 18.9623, 54.2981 18.9623, 54.2981 17.5333, 47.0616 17.5333, 47.0616 18.9989 Z M 39.2777 17.8997 L 39.0132 16.4799 C 40.4353 16.2669, 42.3853 15.9428, 44.8631 15.5089, 44.8253 15.9371, 44.8064 16.3951, 44.8064 16.8829, 43.0769 17.1583, 41.234 17.4972, 39.2777 17.8997 Z M 47.0616 16.2234 L 50.0146 16.2234, 50.0146 10.9471, 47.0616 10.9471 Z M 51.3262 16.2234 L 54.2981 16.2234, 54.2981 10.9471, 51.3262 10.9471 Z M 39.7117 13.97 L 39.2302 12.6417 C 39.5577 12.4591, 39.8691 12.178, 40.1645 11.799, 40.7874 11.0055, 41.4538 10.038, 42.1649 8.89524, 40.9569 8.92616, 40.0323 8.99028, 39.3905 9.08761 L 38.9754 7.85098 C 39.3092 7.58878, 39.5674 7.29565, 39.7495 6.97161, 40.693 5.32335, 41.5861 3.5646, 42.4288 1.69536 L 43.8532 2.15337 C 42.6647 4.377, 41.6147 6.23937, 40.7021 7.74106, 41.1109 7.72961, 41.7149 7.70213, 42.5135 7.65862, 42.7025 7.6529, 42.8445 7.64717, 42.9383 7.6403, 43.2715 7.11588, 43.6551 6.44089, 44.0891 5.61591 L 45.3818 6.2388 C 44.8036 7.19203, 44.1086 8.27922, 43.2967 9.49981, 42.517 10.6666, 41.8317 11.6559, 41.2397 12.4677 L 44.7217 11.9547 C 44.6461 12.4133, 44.6084 12.8501, 44.6084 13.2646, 42.5267 13.5034, 40.8945 13.7387, 39.7117 13.97 Z M 47.0616 9.68302 L 50.0146 9.68302, 50.0146 4.46173, 47.0616 4.46173 Z M 51.3262 9.68302 L 54.2981 9.68302, 54.2981 4.46173, 51.3262 4.46173 Z" stroke="none" fill="#000000" />
			<path d="M 73.0706 18.9989 C 71.6554 18.9989, 70.492 18.0434, 69.5794 16.1318, 68.202 17.0054, 66.5698 17.8327, 64.6828 18.6142, 64.4818 18.2237, 64.2242 17.7932, 63.9093 17.3226, 66.0356 16.5108, 67.7491 15.6898, 69.051 14.8585 L 69.051 14.8219 C 68.6422 13.7232, 68.3251 12.4837, 68.0984 11.1028 L 64.7486 11.5883, 64.5505 10.3334, 67.9003 9.85706 C 67.8562 9.58912, 67.8087 9.21642, 67.7583 8.73952, 67.6833 8.14182, 67.6363 7.63458, 67.6169 7.21893 L 64.8997 7.52122, 64.7297 6.27544, 67.5035 5.96399 C 67.4096 4.43768, 67.3621 3.0608, 67.3621 1.83276 L 68.7871 1.83276 C 68.8123 3.40258, 68.8598 4.72165, 68.9285 5.78995 L 74.9765 5.10294, 75.1179 6.3304, 68.9852 7.04489 C 69.0356 7.6987, 69.0831 8.20594, 69.1266 8.56548, 69.1644 8.95078, 69.2056 9.31718, 69.2491 9.6647 L 75.4482 8.75784, 75.5897 10.0311, 69.4661 10.9105 C 69.6298 11.9124, 69.8943 12.9538, 70.259 14.0341, 71.3096 13.2772, 72.4449 12.2759, 73.6649 11.0296 L 74.6553 11.8723 C 73.2149 13.3385, 71.929 14.4864, 70.7966 15.3165, 71.451 16.7947, 72.1964 17.5338, 73.0328 17.5333, 73.2595 17.5338, 73.4479 17.4606, 73.599 17.3134, 73.7628 17.1491, 73.8916 16.8835, 73.9855 16.5165, 74.1933 15.7722, 74.3633 14.981, 74.495 14.144, 74.5328 14.1629, 74.5895 14.1904, 74.665 14.2265, 75.162 14.4715, 75.5238 14.6364, 75.75 14.7211, 75.5742 15.668, 75.3824 16.5171, 75.1746 17.2676, 74.8351 18.4218, 74.1338 18.9989, 73.0706 18.9989 Z M 58.5592 17.7806 L 58.2672 16.3424 C 59.884 16.1415, 61.9061 15.8209, 64.3335 15.3806, 64.29 15.9371, 64.2677 16.398, 64.2677 16.7638, 63.1227 16.9539, 61.2202 17.2928, 58.5592 17.7806 Z M 58.956 13.8417 L 58.4842 12.5868 C 58.8117 12.3612, 59.1729 11.9948, 59.5691 11.4876, 60.0597 10.8406, 60.6889 9.91889, 61.4561 8.7212, 60.5126 8.7338, 59.5662 8.79219, 58.6159 8.89524 L 58.1441 7.6403 C 58.4401 7.37237, 58.7046 7.05176, 58.9371 6.67848, 59.3836 6.03155, 59.8491 5.27126, 60.3334 4.39761, 60.8178 3.5188, 61.2517 2.64229, 61.6353 1.76864 L 63.0597 2.25413 C 61.6319 4.72794, 60.5567 6.49872, 59.833 7.56702 L 62.2107 7.48458 C 62.6011 6.83764, 62.9687 6.19643, 63.3145 5.56095 L 64.6072 6.11971 C 63.9723 7.16455, 63.2584 8.28838, 62.4654 9.49065, 61.7109 10.6334, 61.0571 11.5889, 60.5029 12.3578, 61.2706 12.2668, 62.4723 12.1505, 64.1074 12.0097, 64.0318 12.4866, 63.9877 12.8988, 63.9751 13.2463, 61.7612 13.4364, 60.0884 13.6345, 58.956 13.8417 Z M 72.6744 4.92889 C 71.8002 4.19036, 70.9764 3.53426, 70.2023 2.95946 L 71.0514 2.08009 C 71.9388 2.67321, 72.7906 3.2961, 73.6082 3.94876 Z" stroke="none" fill="#000000" />
			<path d="M 79.8697 19.1363 L 79.8697 8.75784 C 79.2033 9.86393, 78.4899 10.8773, 77.7285 11.799, 77.6025 11.2929, 77.4514 10.7158, 77.275 10.0677, 79.0304 7.72332, 80.4296 4.99073, 81.4738 1.8694 L 82.9171 2.30909 C 82.4019 3.69571, 81.8609 4.96611, 81.2946 6.11971 L 81.2946 19.1363 Z M 92.0223 19.0172 C 90.5441 19.0172, 89.3333 18.068, 88.3898 16.1684, 87.9369 15.253, 87.5785 14.2425, 87.314 13.1364, 87.0564 12.0257, 86.8486 10.6179, 86.6911 8.91356 L 82.7477 9.35325, 82.5496 7.93343, 86.5686 7.48458 C 86.4432 5.70178, 86.3522 3.81823, 86.2949 1.83276 L 87.7955 1.83276 C 87.8333 3.62243, 87.9088 5.45446, 88.0216 7.32886 L 94.4377 6.6052, 94.5792 8.00671, 88.135 8.73952 C 88.2609 10.2607, 88.4527 11.5586, 88.7104 12.6326, 88.9497 13.6408, 89.2737 14.5631, 89.6825 15.399, 90.0283 16.1323, 90.3901 16.6699, 90.7674 17.0111, 91.1132 17.3232, 91.4905 17.4789, 91.8992 17.4783, 92.2015 17.4789, 92.4466 17.3873, 92.6355 17.2035, 92.837 17.0026, 92.9973 16.6699, 93.1164 16.205, 93.2172 15.7293, 93.362 14.9535, 93.5504 13.8784, 94.0164 14.0868, 94.4658 14.2453, 94.8998 14.3547, 94.7429 15.2833, 94.5763 16.1049, 94.4 16.8188, 94.0101 18.2844, 93.2177 19.0172, 92.0223 19.0172 Z M 92.3807 6.06475 C 91.645 5.35083, 90.6672 4.47776, 89.4466 3.44495 L 90.3993 2.53809 C 91.4687 3.36308, 92.4723 4.19666, 93.4089 5.03882 Z" stroke="none" fill="#000000" />
			<path d="M 101.652 19.1546 L 100.878 18.0737 C 101.249 17.7686, 101.435 17.4085, 101.435 16.9928 L 101.435 14.6295 C 100.215 15.3692, 98.8059 16.0865, 97.208 16.7821, 97.0764 16.465, 96.8594 16.0104, 96.5571 15.4173, 99.7214 14.27, 102.181 12.7797, 103.936 10.9471 L 96.8119 10.9471, 96.8119 9.77462, 104.587 9.77462, 104.587 7.95175, 98.0668 7.95175, 98.0668 6.79757, 104.587 6.79757, 104.587 5.0205, 97.35 5.0205, 97.35 3.82968, 104.587 3.82968, 104.587 1.83276, 106.04 1.83276, 106.04 3.82968, 113.314 3.82968, 113.314 5.0205, 106.04 5.0205, 106.04 6.79757, 112.559 6.79757, 112.559 7.95175, 106.04 7.95175, 106.04 9.77462, 113.908 9.77462, 113.908 10.9471, 106.04 10.9471 C 106.524 12.0956, 107.112 13.0207, 107.803 13.7226, 109.735 12.691, 111.062 11.9215, 111.785 11.4143 L 112.653 12.5685 C 112.408 12.6973, 111.943 12.9383, 111.257 13.2921, 110.068 13.9156, 109.231 14.349, 108.747 14.5929, 109.986 15.5215, 111.751 16.2331, 114.04 16.7272, 113.909 16.9293, 113.619 17.4027, 113.172 18.147, 111.6 17.6524, 110.314 17.1308, 109.313 16.5806, 108.27 16.0012, 107.404 15.3234, 106.719 14.5471, 106.04 13.7845, 105.461 12.8347, 104.983 11.6983, 104.398 12.3584, 103.671 13.0207, 102.803 13.686 L 102.803 17.2859 C 103.099 17.1886, 103.914 16.9081, 105.247 16.4432, 106.215 16.102, 106.861 15.8759, 107.181 15.7654, 107.143 16.2056, 107.124 16.7003, 107.124 17.2493, 105.949 17.5733, 104.435 18.0646, 102.586 18.7241, 102.366 18.8037, 102.055 18.9474, 101.652 19.1546 Z" stroke="none" fill="#000000" />
			<path d="M 125.066 19.2096 C 124.947 19.0264, 124.67 18.6909, 124.236 18.202, 124.18 18.135, 124.139 18.0863, 124.114 18.0554, 125.862 16.7489, 127.152 15.5306, 127.982 14.4005, 127.133 12.9171, 126.551 11.0181, 126.237 8.70288, 125.866 9.34466, 125.579 9.82385, 125.378 10.141, 124.988 9.6166, 124.692 9.26508, 124.491 9.08761, 125.831 6.98764, 126.853 4.51096, 127.557 1.65872 L 128.888 1.8694 C 128.611 2.90794, 128.294 3.90639, 127.935 4.86477 L 133.096 4.86477, 133.096 6.17468, 131.746 6.17468 C 131.552 8.04392, 131.291 9.6166, 130.963 10.8922, 130.617 12.2181, 130.158 13.3872, 129.586 14.4005, 130.391 15.5186, 131.593 16.627, 133.19 17.7256, 133.14 17.8052, 133.058 17.9243, 132.945 18.0829, 132.649 18.4985, 132.442 18.81, 132.322 19.0172, 130.756 17.8144, 129.58 16.6848, 128.793 15.628, 127.875 16.8193, 126.633 18.013, 125.066 19.2096 Z M 116.424 19.1363 C 116.267 18.8008, 116.047 18.3823, 115.764 17.8814, 117.708 17.4119, 119.214 16.8863, 120.283 16.3058, 119.402 15.885, 118.292 15.372, 116.953 14.7669 L 118.103 13.0723, 115.962 13.0723, 115.962 11.9364, 118.821 11.9364 C 119.154 11.4057, 119.4 10.9872, 119.556 10.6815 L 120.925 10.8922 C 120.705 11.2591, 120.485 11.6072, 120.264 11.9364 L 124.425 11.9364, 124.425 13.1089 C 124.086 14.2453, 123.498 15.2192, 122.661 16.031 L 124.604 16.9012, 123.812 18.0554, 121.576 16.9195 C 120.249 17.8356, 118.532 18.5747, 116.424 19.1363 Z M 121.434 15.4906 C 122.201 14.8253, 122.746 14.0192, 123.067 13.0723 L 119.51 13.0723 C 119.208 13.5309, 118.919 13.9459, 118.642 14.3181, 119.403 14.6364, 120.334 15.0268, 121.434 15.4906 Z M 128.793 13.1089 C 129.24 12.2421, 129.593 11.2471, 129.85 10.1227, 130.102 9.0607, 130.297 7.7445, 130.435 6.17468 L 127.425 6.17468 C 127.344 6.39509, 127.256 6.60291, 127.161 6.79757, 127.337 8.20251, 127.551 9.39962, 127.803 10.3883, 128.061 11.4149, 128.391 12.3217, 128.793 13.1089 Z M 116.575 10.8372 C 116.431 10.508, 116.201 10.1296, 115.886 9.70134, 116.717 9.35382, 117.447 8.96165, 118.075 8.52483, 118.705 8.08858, 119.302 7.55557, 119.868 6.92581 L 116.122 6.92581, 116.122 5.77163, 120.189 5.77163, 120.189 1.8694, 121.472 1.8694, 121.472 5.77163, 125.048 5.77163, 125.048 6.92581, 121.472 6.92581, 121.472 8.44639, 122.029 7.79602 C 122.978 8.33418, 123.903 8.91127, 124.802 9.52729 L 124.076 10.5258 C 123.686 10.2149, 122.818 9.61317, 121.472 8.7212 L 121.472 10.3151, 120.189 10.3151, 120.189 8.02503 C 119.729 8.58723, 119.214 9.09104, 118.642 9.53645, 118.063 9.99503, 117.374 10.4284, 116.575 10.8372 Z M 123.019 5.3869 L 122.132 4.61745 C 122.673 4.11708, 123.359 3.42434, 124.189 2.53809 L 125.142 3.21595 C 124.312 4.16288, 123.604 4.88653, 123.019 5.3869 Z M 118.444 5.36858 C 118.129 4.99645, 117.481 4.28539, 116.5 3.23427 L 117.368 2.53809 C 118.418 3.52796, 119.101 4.21498, 119.415 4.59913 Z" stroke="none" fill="#000000" />
			<path d="M 137.508 18.8065 L 136.536 17.6524 C 136.744 17.4268, 136.889 17.1949, 136.97 16.9562, 137.052 16.7306, 137.093 16.4558, 137.093 16.1318 L 137.093 9.17921, 135.036 9.17921, 135.036 7.8693, 138.518 7.8693, 138.518 16.205 C 138.694 16.0774, 138.961 15.8822, 139.319 15.6188, 140.043 15.0881, 140.55 14.7062, 140.839 14.4738, 140.851 14.523, 140.864 14.5906, 140.877 14.6753, 140.984 15.2501, 141.084 15.6715, 141.178 15.9394, 140.782 16.2085, 140.106 16.7031, 139.15 17.4233, 138.804 17.6798, 138.549 17.8722, 138.386 18.0004, 138.235 18.1104, 137.999 18.3245, 137.678 18.6416, 137.602 18.7149, 137.546 18.7699, 137.508 18.8065 Z M 144.849 18.5775 C 143.899 18.5775, 143.226 18.3731, 142.829 17.9638, 142.446 17.567, 142.254 16.9047, 142.254 15.976 L 142.254 8.75784, 143.679 8.75784, 143.679 12.2204 C 145.868 11.3296, 147.77 10.2515, 149.387 8.98684 L 150.34 10.1044 C 148.359 11.4607, 146.138 12.6543, 143.679 13.686 L 143.679 15.7287 C 143.679 16.2972, 143.795 16.6854, 144.028 16.8926, 144.261 17.1005, 144.692 17.2041, 145.32 17.2035 L 148.075 17.2035 C 148.598 17.2041, 148.994 17.0987, 149.264 16.8881, 149.535 16.6774, 149.714 16.3276, 149.802 15.8386, 149.922 15.1677, 150.029 14.3461, 150.123 13.3746 L 151.529 13.7959 C 151.415 14.8104, 151.277 15.7356, 151.113 16.5715, 150.969 17.2499, 150.679 17.7502, 150.245 18.0737, 149.793 18.4098, 149.157 18.5775, 148.339 18.5775 Z M 140.707 9.16089 C 140.462 8.74639, 140.175 8.31586, 139.848 7.8693, 141.251 7.02085, 142.442 6.0991, 143.424 5.10294, 144.392 4.12051, 145.217 3.0087, 145.896 1.76864 L 147.481 1.961, 147.009 2.73046 C 147.777 3.80563, 148.591 4.73424, 149.453 5.51515, 150.333 6.30979, 151.35 7.03001, 152.5 7.67694, 152.457 7.7445, 152.397 7.83953, 152.321 7.96091, 152.032 8.41949, 151.821 8.76757, 151.689 9.00516, 150.494 8.24258, 149.475 7.46397, 148.632 6.66932, 147.777 5.8701, 146.984 4.94149, 146.254 3.88464, 145.544 4.91115, 144.751 5.83632, 143.877 6.66016, 143.034 7.45481, 141.978 8.28838, 140.707 9.16089 Z M 138.461 5.94567 C 137.738 5.01191, 136.898 3.99227, 135.942 2.88618 L 137.112 2.08009 C 137.93 2.96003, 138.804 3.95563, 139.735 5.0663 Z" stroke="none" fill="#000000" />
			<path d="M 155.507 19.2096 C 155.237 18.7882, 154.935 18.364, 154.601 17.9363, 156.111 17.2527, 157.237 16.5016, 157.979 15.6829, 158.696 14.8894, 159.18 13.891, 159.432 12.6875, 159.564 12.1448, 159.653 11.5002, 159.696 10.7548 L 156.583 10.7548, 156.583 9.40821, 168.32 9.40821 C 168.257 11.5276, 168.162 13.5429, 168.036 15.4539, 167.968 16.572, 167.684 17.3718, 167.187 17.8539, 166.685 18.3428, 165.857 18.6021, 164.706 18.6325, 163.637 18.6691, 162.731 18.6874, 161.989 18.6874, 161.989 18.6691, 161.986 18.6359, 161.979 18.5867, 161.879 17.9518, 161.791 17.4789, 161.715 17.1669, 162.69 17.2224, 163.628 17.2499, 164.527 17.2493, 165.225 17.2499, 165.725 17.1005, 166.027 16.801, 166.329 16.5022, 166.511 15.9703, 166.574 15.2066, 166.669 13.9368, 166.728 12.4528, 166.753 10.7548 L 161.177 10.7548 C 161.146 11.4818, 161.055 12.2089, 160.904 12.9349, 160.633 14.3827, 160.099 15.5736, 159.3 16.5073, 158.482 17.4669, 157.218 18.3668, 155.507 19.2096 Z M 154.998 10.2051 C 154.759 9.80267, 154.46 9.35096, 154.101 8.84944, 155.478 7.934, 156.661 6.92008, 157.649 5.80827, 158.611 4.73424, 159.485 3.45754, 160.271 1.97932 L 161.659 2.62054 C 160.728 4.25162, 159.769 5.6285, 158.781 6.75177, 157.756 7.93686, 156.495 9.08818, 154.998 10.2051 Z M 170.66 10.141 C 169.062 9.07272, 167.766 7.93858, 166.772 6.7386, 165.778 5.53862, 164.904 4.05009, 164.149 2.27245 L 165.498 1.76864 C 166.228 3.45468, 167.046 4.81955, 167.952 5.86323, 168.87 6.92008, 170.081 7.87904, 171.584 8.73952, 171.49 8.9233, 171.182 9.39046, 170.66 10.141 Z" stroke="none" fill="#000000" />
			<path d="M 178.799 19.1546 C 178.434 18.7275, 178.085 18.321, 177.751 17.9363, 179.292 16.9659, 180.45 16.007, 181.224 15.06, 181.979 14.1326, 182.485 13.07, 182.742 11.8723 L 178.978 11.8723, 178.978 10.5441, 182.941 10.5441 C 183.01 9.71393, 183.064 8.24544, 183.101 6.13804 L 179.931 6.13804, 179.931 4.80981, 183.12 4.80981, 183.12 1.8694, 184.592 1.8694 C 184.592 2.2547, 184.589 2.79801, 184.582 3.49991, 184.576 4.09303, 184.573 4.52928, 184.573 4.80981 L 189.007 4.80981, 189.007 10.5441, 190.659 10.5441, 190.659 11.8723, 184.865 11.8723 C 185.444 13.2469, 186.187 14.3707, 187.092 15.2432, 187.979 16.0928, 189.168 16.844, 190.659 17.4966 L 189.781 18.8981 C 188.221 18.0863, 186.992 17.2161, 186.092 16.2875, 185.149 15.3108, 184.41 14.1171, 183.875 12.7059, 183.573 13.9339, 183.013 15.0635, 182.195 16.0951, 181.403 17.085, 180.271 18.1046, 178.799 19.1546 Z M 173.629 16.4341 L 173.326 14.8951 C 174.037 14.7308, 174.83 14.5264, 175.704 14.2814 L 175.704 7.5487, 173.524 7.5487, 173.524 6.22048, 175.704 6.22048, 175.704 1.8694, 177.119 1.8694, 177.119 6.22048, 179.214 6.22048, 179.214 7.5487, 177.119 7.5487, 177.119 13.8784 C 177.742 13.702, 178.488 13.4759, 179.355 13.2005, 179.355 13.5858, 179.381 14.0742, 179.431 14.6661, 177.771 15.143, 175.836 15.7322, 173.629 16.4341 Z M 184.394 10.5441 L 187.601 10.5441, 187.601 6.13804, 184.554 6.13804 C 184.51 8.19048, 184.457 9.65897, 184.394 10.5441 Z" stroke="none" fill="#000000" />
			<path d="M 193.25 18.8798 L 193.25 4.69989, 195.156 4.69989 C 195.458 3.74151, 195.716 2.78599, 195.93 1.83276 L 197.448 2.08009 C 197.423 2.18428, 197.376 2.3463, 197.307 2.56557, 197.024 3.54342, 196.807 4.25448, 196.656 4.69989 L 200.053 4.69989, 200.053 18.7699, 198.647 18.7699, 198.647 17.3775, 194.656 17.3775, 194.656 18.8798 Z M 202.968 18.7699 C 202.892 18.3794, 202.786 17.8905, 202.647 17.3043, 202.679 17.3048, 202.723 17.3048, 202.779 17.3043, 203.905 17.3295, 204.814 17.3415, 205.506 17.3409, 206.236 17.3415, 206.755 17.1949, 207.063 16.9012, 207.384 16.5966, 207.563 16.0619, 207.601 15.2982, 207.67 14.0896, 207.746 11.467, 207.827 7.42962, 207.846 6.78898, 207.859 6.32811, 207.865 6.04643 L 203.204 6.04643 C 202.714 7.13993, 202.251 8.08342, 201.817 8.87692, 201.289 8.54143, 200.87 8.29754, 200.562 8.14411, 201.084 7.25901, 201.581 6.25483, 202.053 5.13042, 202.512 4.03807, 202.908 2.92969, 203.242 1.80528 L 204.685 2.13505 C 204.503 2.70355, 204.201 3.54915, 203.779 4.67241 L 209.327 4.67241 C 209.283 8.69715, 209.186 12.3246, 209.035 15.5547, 208.984 16.6545, 208.733 17.4394, 208.28 17.9088, 207.815 18.3978, 207.028 18.6691, 205.921 18.7241, 205.299 18.755, 204.315 18.7699, 202.968 18.7699 Z M 194.656 16.031 L 198.647 16.031, 198.647 11.6616, 194.656 11.6616 Z M 204.751 13.5852 C 204.688 13.5005, 204.594 13.3688, 204.468 13.1914, 203.399 11.653, 202.575 10.508, 201.996 9.7563 L 203.1 9.00516 C 204.289 10.5263, 205.242 11.7721, 205.959 12.7425 Z M 194.656 10.3334 L 198.647 10.3334, 198.647 6.04643, 194.656 6.04643 Z" stroke="none" fill="#000000" />
			<path d="M 212.598 18.8981 L 211.72 17.4966 C 212.633 16.4959, 213.4 15.6743, 214.022 15.0325 L 214.022 9.29829, 211.843 9.29829, 211.843 7.90595, 215.466 7.90595, 215.466 14.9135 C 216.051 15.7081, 216.728 16.2789, 217.495 16.6264, 218.193 16.9447, 219.058 17.1125, 220.089 17.1302, 223.599 17.1611, 226.613 17.1428, 229.128 17.0753 L 228.638 18.5317 C 225.008 18.5317, 222.068 18.5077, 219.816 18.4584, 218.659 18.4281, 217.703 18.2449, 216.947 17.9088, 216.161 17.555, 215.432 16.9751, 214.759 16.1684, 214.438 16.5171, 214.064 16.9596, 213.636 17.4966, 213.227 18.0222, 212.881 18.4894, 212.598 18.8981 Z M 217.712 15.857 C 217.146 15.3079, 216.768 14.9507, 216.579 14.7852, 217.598 13.998, 218.363 13.2652, 218.872 12.5868, 219.426 11.8608, 219.832 11.0238, 220.089 10.0769, 220.335 9.17978, 220.502 7.97694, 220.589 6.4678 L 217.278 6.4678, 217.278 5.08462, 220.646 5.08462 C 220.696 3.64418, 220.721 2.57244, 220.721 1.8694 L 222.193 1.8694 C 222.193 3.0545, 222.165 4.12624, 222.109 5.08462 L 228.194 5.08462 C 228.138 7.23496, 228.046 9.71737, 227.92 12.5318, 227.851 13.5463, 227.598 14.2774, 227.161 14.7263, 226.724 15.1751, 226.024 15.4178, 225.062 15.4539, 224.59 15.4665, 223.725 15.4728, 222.467 15.4722, 222.386 14.9232, 222.275 14.4039, 222.137 13.915, 222.967 13.9952, 223.798 14.0347, 224.628 14.0341, 225.251 14.0347, 225.697 13.9036, 225.967 13.6402, 226.238 13.378, 226.392 12.9171, 226.429 12.257, 226.58 10.1754, 226.656 8.24544, 226.656 6.4678 L 222.033 6.4678 C 221.939 8.10518, 221.757 9.4334, 221.486 10.4525, 221.197 11.5339, 220.756 12.4958, 220.165 13.3379, 219.599 14.1326, 218.781 14.9719, 217.712 15.857 Z M 215.098 5.96399 C 214.533 5.06687, 213.765 3.95219, 212.796 2.62054 L 214.004 1.92436 C 214.872 3.04247, 215.671 4.13253, 216.4 5.19454 Z" stroke="none" fill="#000000" />
			<path d="M 233.648 19.2096 C 233.605 19.1672, 233.535 19.106, 233.441 19.0264, 233.045 18.6846, 232.73 18.431, 232.497 18.2661, 233.491 17.7594, 234.218 17.2802, 234.677 16.8279, 235.142 16.3705, 235.447 15.818, 235.592 15.1699, 235.737 14.6759, 235.809 14.0192, 235.809 13.2005, 234.482 13.9642, 233.07 14.6209, 231.573 15.1699, 231.466 14.9507, 231.28 14.6089, 231.016 14.144, 230.953 14.0347, 230.906 13.9522, 230.874 13.8967, 233.674 12.9875, 235.941 11.8208, 237.677 10.3975 L 232.658 10.3975, 232.658 2.57473, 246.64 2.57473, 246.64 10.3975, 241.583 10.3975 C 242.426 11.1189, 243.385 11.7292, 244.46 12.2295, 245.555 12.7494, 246.848 13.1891, 248.339 13.5486, 248.295 13.6471, 248.225 13.7936, 248.131 13.9883, 247.936 14.3919, 247.795 14.6942, 247.707 14.8951, 245.927 14.3398, 244.533 13.7902, 243.527 13.2463 L 243.527 19.0355, 242.121 19.0355, 242.121 13.1822, 243.423 13.1822 C 242.102 12.4683, 240.901 11.5402, 239.819 10.3975 L 239.517 10.3975 C 238.435 11.467, 237.205 12.395, 235.828 13.1822 L 237.243 13.1822 C 237.243 13.9705, 237.19 14.6392, 237.083 15.1883, 236.913 16.0562, 236.57 16.7947, 236.054 17.405, 235.526 18.0222, 234.724 18.6233, 233.648 19.2096 Z M 234.063 9.19753 L 238.96 9.19753, 238.96 7.04489, 234.063 7.04489 Z M 240.309 9.19753 L 245.225 9.19753, 245.225 7.04489, 240.309 7.04489 Z M 234.063 5.94567 L 238.96 5.94567, 238.96 3.77472, 234.063 3.77472 Z M 240.309 5.94567 L 245.225 5.94567, 245.225 3.77472, 240.309 3.77472 Z" stroke="none" fill="#000000" />
			<rect />
		</svg>
	</g>
	<g transform="matrix(1 0 -0 1 188.942 89.6484)">
		<svg width="939.007874" height="101.999977">
			<defs />
			<path d="M 1.3737 30.6721 L 0.619137 29.2157 C 1.36798 28.3981, 2.14144 27.6344, 2.93952 26.9256 L 2.93952 21.1273, 0.760547 21.1273, 0.760547 19.7258, 4.38282 19.7258, 4.38282 26.8798 C 4.92384 27.6315, 5.51524 28.172, 6.15645 28.5012, 6.78507 28.8132, 7.56826 28.9809, 8.50489 29.005, 9.71861 29.0302, 11.3039 29.0422, 13.2596 29.0416, 15.2908 29.0422, 16.891 29.021, 18.0606 28.9775, 18.0297 29.088, 17.9822 29.2374, 17.9192 29.4264, 17.7687 29.8603, 17.6713 30.1867, 17.6267 30.4065, 17.4005 30.4065, 17.045 30.4036, 16.5607 30.3973, 12.1649 30.3733, 9.32873 30.3424, 8.05203 30.3057, 7.03983 30.2691, 6.19767 30.0813, 5.5244 29.7424, 4.8517 29.4035, 4.22251 28.8561, 3.63741 28.0981, 2.78265 28.9598, 2.02808 29.8174, 1.3737 30.6721 Z M 6.59041 27.8691 C 6.26351 27.3751, 5.95206 26.9233, 5.65608 26.5134, 7.76291 25.6896, 9.53369 24.6207, 10.9672 23.3074, 9.43922 21.9585, 8.09039 20.8009, 6.92018 19.8357 L 7.93925 18.8739, 11.9766 22.2631 C 13.0644 20.9996, 13.8916 19.5185, 14.4573 17.8204 L 5.96752 17.8204, 5.96752 16.4922, 11.5237 16.4922 C 11.3228 16.1081, 11.0302 15.5613, 10.6466 14.8526, 10.4325 14.4564, 10.2694 14.1541, 10.156 13.9457 L 11.5426 13.506 C 12.071 14.4289, 12.5331 15.2745, 12.9292 16.0434 L 11.6371 16.4922, 17.6645 16.4922, 17.6645 17.8204, 15.9195 17.8204 C 15.2531 19.9341, 14.3033 21.7232, 13.0707 23.1883 L 17.0324 26.5776, 15.9195 27.7501 C 15.5611 27.4272, 15.0458 26.9537, 14.3725 26.3302, 13.3414 25.3965, 12.5771 24.7095, 12.0802 24.2692, 10.697 25.5888, 8.86671 26.7888, 6.59041 27.8691 Z M 3.73187 17.8388 C 3.05917 16.8014, 2.30747 15.6896, 1.47733 14.5045 L 2.68475 13.8358 C 3.27615 14.6058, 4.06221 15.6838, 5.04292 17.0693 Z" stroke="none" fill="#000000" />
			<path d="M 22.4666 30.8828 L 22.4666 21.3563 C 21.9514 23.0177, 21.2094 24.6241, 20.2407 26.1745, 20.0083 25.3507, 19.8256 24.7524, 19.6934 24.3791, 20.8819 22.7005, 21.7847 20.7248, 22.4008 18.4525 L 20.1084 18.4525, 20.1084 17.1609, 22.4666 17.1609, 22.4666 13.6068, 23.8343 13.6068, 23.8343 17.1609, 25.7969 17.1609, 25.7969 18.4525, 23.8343 18.4525, 23.8343 21.1639, 24.3439 20.6509 C 25.2433 21.4942, 25.9853 22.2299, 26.5704 22.8585 L 25.6549 23.8203 C 25.0893 23.1494, 24.4824 22.4715, 23.8343 21.7868 L 23.8343 30.8828 Z M 30.8058 30.8645 L 30.8058 26.4951, 25.7969 26.4951, 25.7969 25.2127, 30.8058 25.2127, 30.8058 22.2998, 27.0982 22.2998, 27.0982 21.0082, 30.8058 21.0082, 30.8058 18.2601, 26.6454 18.2601, 26.6454 16.9685, 32.0413 16.9685 C 32.8279 15.7903, 33.5475 14.6487, 34.2013 13.5427 L 35.5691 14.0648 C 35.4311 14.2549, 35.2204 14.5508, 34.937 14.9533, 34.3021 15.8636, 33.8241 16.5357, 33.5035 16.9685 L 36.654 16.9685, 36.654 18.2601, 32.2205 18.2601, 32.2205 21.0082, 36.1633 21.0082, 36.1633 22.2998, 32.2205 22.2998, 32.2205 25.2127, 37.2293 25.2127, 37.2293 26.4951, 32.2205 26.4951, 32.2205 30.8645 Z M 29.4381 16.6846 C 28.7717 15.6592, 28.1648 14.7919, 27.6175 14.0831 L 28.806 13.5243 C 29.0705 13.8547, 29.4695 14.3797, 30.0037 15.0999, 30.306 15.5098, 30.5356 15.8178, 30.6924 16.0251 Z" stroke="none" fill="#000000" />
			<path d="M 40.3815 30.9836 C 40.1113 30.5622, 39.809 30.138, 39.4758 29.7103, 40.9855 29.0267, 42.1116 28.2756, 42.8536 27.4569, 43.5704 26.6634, 44.0547 25.665, 44.3061 24.4616, 44.4389 23.9188, 44.5271 23.2742, 44.5706 22.5288 L 41.4573 22.5288, 41.4573 21.1822, 53.1943 21.1822 C 53.1313 23.3017, 53.0368 25.3169, 52.9109 27.2279, 52.8422 28.346, 52.5588 29.1458, 52.0619 29.6279, 51.5592 30.1168, 50.7319 30.3762, 49.5806 30.4065, 48.5112 30.4431, 47.6054 30.4615, 46.8635 30.4615, 46.8635 30.4431, 46.8606 30.4099, 46.8537 30.3607, 46.753 29.7258, 46.6654 29.2529, 46.5898 28.9409, 47.5648 28.9964, 48.502 29.0239, 49.4014 29.0233, 50.0999 29.0239, 50.5997 28.8745, 50.9014 28.575, 51.2037 28.2762, 51.3857 27.7443, 51.4487 26.9806, 51.5432 25.7108, 51.6027 24.2268, 51.6279 22.5288 L 46.0517 22.5288 C 46.0207 23.2559, 45.9291 23.9829, 45.778 24.7089, 45.5078 26.1568, 44.9736 27.3476, 44.1744 28.2813, 43.3568 29.2409, 42.0922 30.1409, 40.3815 30.9836 Z M 39.872 21.9792 C 39.6332 21.5767, 39.3344 21.125, 38.9754 20.6235, 40.3529 19.708, 41.5357 18.6941, 42.5233 17.5823, 43.4857 16.5083, 44.3599 15.2316, 45.1459 13.7533 L 46.5331 14.3945 C 45.6022 16.0256, 44.6433 17.4025, 43.6551 18.5258, 42.6303 19.7109, 41.3691 20.8622, 39.872 21.9792 Z M 55.5341 21.915 C 53.9368 20.8467, 52.6407 19.7126, 51.6468 18.5126, 50.6529 17.3126, 49.7787 15.8241, 49.0236 14.0465 L 50.373 13.5427 C 51.1029 15.2287, 51.9204 16.5936, 52.8262 17.6372, 53.7445 18.6941, 54.9553 19.653, 56.4587 20.5135, 56.3648 20.6973, 56.0563 21.1645, 55.5341 21.915 Z" stroke="none" fill="#000000" />
			<path d="M 66.445 30.9286 C 66.3699 30.8737, 66.2377 30.77, 66.0488 30.6172, 65.7098 30.355, 65.4454 30.1626, 65.2564 30.0401, 66.1747 28.9661, 66.8823 27.955, 67.3793 27.0081, 67.8825 26.0377, 68.2598 24.9688, 68.5111 23.802, 68.7379 22.7217, 68.8947 21.3477, 68.9829 19.68 L 67.1434 19.68, 67.1434 18.4342, 69.0487 18.4342 C 69.0991 17.0974, 69.1243 15.4732, 69.1243 13.561 L 70.492 13.561 C 70.492 15.0151, 70.4605 16.6394, 70.3976 18.4342 L 75.2461 18.4342, 75.2461 19.68, 70.3128 19.68 C 70.2063 21.4759, 70.0237 22.9719, 69.7655 24.1684, 69.5016 25.4268, 69.1054 26.5844, 68.577 27.6401, 68.0743 28.6546, 67.3633 29.7504, 66.445 30.9286 Z M 60.2475 30.6355 C 60.2223 30.422, 60.1473 30.0401, 60.0214 29.4905, 60.0088 29.4172, 59.9962 29.3622, 59.9836 29.3256, 60.4239 29.3685, 60.867 29.3897, 61.3135 29.3897, 61.6719 29.3897, 61.9238 29.3141, 62.0681 29.1613, 62.213 29.009, 62.2851 28.7491, 62.2851 28.3821 L 62.2851 23.628, 59.3704 23.628, 59.3704 18.6632, 66.4077 18.6632, 66.4077 23.628, 63.615 23.628, 63.615 28.5378 C 63.615 29.2529, 63.4771 29.7653, 63.2 30.0767, 62.9114 30.4008, 62.4145 30.5805, 61.7097 30.6172, 61.4206 30.6298, 60.9334 30.6355, 60.2475 30.6355 Z M 72.7088 30.4248 C 72.1054 30.4248, 71.6525 30.2783, 71.3502 29.9851, 71.0422 29.6737, 70.8882 29.1979, 70.8882 28.5561 L 70.8882 19.7807, 72.2181 19.7807, 72.2181 28.1531 C 72.2181 28.5201, 72.2811 28.7737, 72.4071 28.9134, 72.5267 29.0485, 72.734 29.1155, 73.0294 29.1149 L 73.3878 29.1149 C 73.6712 29.1155, 73.8853 29.0422, 74.0296 28.8951, 74.1807 28.7371, 74.2906 28.4497, 74.3593 28.034, 74.4538 27.3871, 74.5259 26.5232, 74.5763 25.4417, 75.0984 25.6375, 75.482 25.7657, 75.7271 25.8264, 75.6709 26.6268, 75.5828 27.5188, 75.4631 28.5012, 75.3692 29.1979, 75.1631 29.692, 74.8454 29.9851, 74.5282 30.2783, 74.0485 30.4248, 73.4067 30.4248 Z M 59.4363 28.8676 C 59.0848 28.6603, 58.6852 28.4806, 58.2386 28.3271, 58.8426 27.2835, 59.4054 26.0835, 59.9269 24.7272 L 61.1344 25.1119 C 60.4617 26.7493, 59.8954 28.0008, 59.4363 28.8676 Z M 65.7001 27.3653 C 65.4047 26.8346, 64.9484 26.044, 64.3324 24.9928 L 65.3984 24.5165 C 65.9394 25.3295, 66.4077 26.1047, 66.8039 26.8432 Z M 60.7004 22.4555 L 65.0772 22.4555, 65.0772 19.8357, 60.7004 19.8357 Z M 73.6803 17.4174 C 73.0454 16.7951, 72.2811 16.1201, 71.388 15.393 L 72.3315 14.5869 C 73.3506 15.4056, 74.124 16.0651, 74.6519 16.5655 Z M 58.4178 16.9869 L 58.4178 15.796, 62.4643 15.796 C 62.2885 14.9905, 62.1093 14.2732, 61.9267 13.6434 L 63.3797 13.451 C 63.5561 14.0865, 63.7416 14.8686, 63.9362 15.796 L 67.2659 15.796, 67.2659 16.9869 Z" stroke="none" fill="#000000" />
			<path d="M 86.6047 30.5989 C 86.5291 30.0126, 86.4381 29.5059, 86.331 29.0783, 87.2115 29.1275, 88.1104 29.1521, 89.0287 29.1516, 89.6453 29.1521, 90.0701 29.0411, 90.3025 28.8178, 90.535 28.5951, 90.6512 28.1812, 90.6512 27.576 L 90.6512 16.2174, 77.492 16.2174, 77.492 14.8526, 94.8488 14.8526, 94.8488 16.2174, 92.1134 16.2174, 92.1134 27.9974 C 92.1134 28.8653, 91.925 29.4968, 91.5471 29.8935, 91.1578 30.2966, 90.5098 30.5199, 89.604 30.5622, 88.9817 30.5868, 87.9821 30.5989, 86.6047 30.5989 Z M 79.3882 27.521 L 79.3882 18.938, 87.1989 18.938, 87.1989 26.1745, 80.8406 26.1745, 80.8406 27.521 Z M 80.8406 24.8829 L 85.7556 24.8829, 85.7556 20.2021, 80.8406 20.2021 Z" stroke="none" fill="#000000" />
			<path d="M 103.594 30.9836 C 103.185 30.4036, 102.849 29.9485, 102.584 29.6187, 104.446 28.6787, 105.868 27.7443, 106.849 26.8157, 107.849 25.8699, 108.575 24.7524, 109.028 23.4631, 109.436 22.2975, 109.701 20.7368, 109.82 18.7823, 109.914 17.4884, 109.961 15.8911, 109.961 13.9915 L 111.461 13.9915 C 111.461 15.5676, 111.417 17.1643, 111.329 18.7823, 111.254 20.0532, 111.128 21.1616, 110.952 22.1074, 110.763 23.1036, 110.499 23.995, 110.159 24.7822, 111.273 25.9673, 112.6 27.4512, 114.14 29.234 L 112.867 30.4065 C 111.484 28.6483, 110.336 27.2377, 109.424 26.1745, 108.852 27.0728, 108.087 27.9092, 107.131 28.6844, 106.22 29.4298, 105.041 30.1958, 103.594 30.9836 Z M 98.321 29.692 L 97.255 28.3638 C 97.5132 28.0775, 97.6895 27.8044, 97.7834 27.5445, 97.8779 27.2852, 97.9248 26.9508, 97.9248 26.5409 L 97.9248 14.2388, 99.434 14.2388, 99.434 26.8615 C 101.157 25.7692, 102.748 24.7032, 104.207 23.6646, 104.277 24.2085, 104.39 24.7799, 104.547 25.3776, 102.516 26.6789, 100.805 27.8027, 99.4151 28.7485, 98.9376 29.1338, 98.5729 29.4481, 98.321 29.692 Z M 104.868 18.7823 C 104.201 17.4517, 103.374 15.9552, 102.386 14.2938 L 103.632 13.6434 C 104.431 14.8961, 105.311 16.3462, 106.273 17.9945 Z" stroke="none" fill="#000000" />
			<path d="M 118.537 30.0218 L 117.433 28.831 C 117.679 28.563, 117.849 28.2991, 117.943 28.0392, 118.037 27.7798, 118.084 27.4512, 118.084 27.0539 L 118.084 20.9899, 115.801 20.9899, 115.801 19.625, 119.555 19.625, 119.555 27.0722 C 120.568 26.273, 121.47 25.5247, 122.263 24.828, 122.395 25.4028, 122.543 25.9215, 122.706 26.3852, 121.575 27.2772, 120.509 28.1508, 119.508 29.005, 119.276 29.2071, 118.971 29.5243, 118.594 29.9577, 118.568 29.9823, 118.549 30.0035, 118.537 30.0218 Z M 121.574 29.8844 L 121.574 28.4462, 125.97 28.4462, 125.97 13.735, 127.498 13.735, 127.498 18.8555, 132.394 18.8555, 132.394 20.2845, 127.498 20.2845, 127.498 28.4462, 133.186 28.4462, 133.186 29.8844 Z M 120.225 17.912 C 119.414 16.9353, 118.471 15.934, 117.395 14.9075 L 118.518 14.0098 C 119.449 14.8714, 120.427 15.8333, 121.451 16.8953 Z" stroke="none" fill="#000000" />
			<path d="M 143.894 30.7729 C 143.85 30.5044, 143.755 30.1042, 143.61 29.5729, 143.592 29.4996, 143.579 29.451, 143.573 29.4264, 144.107 29.463, 145 29.4813, 146.252 29.4813, 146.881 29.4813, 147.333 29.3806, 147.61 29.179, 147.919 28.9661, 148.107 28.5779, 148.176 28.0157 L 136.602 28.0157, 137.328 23.5913, 135.036 23.5913, 135.036 22.3364, 137.554 22.3364, 138.3 17.9304, 150.157 17.9304, 149.94 22.3364, 152.412 22.3364, 152.412 23.5913, 149.902 23.5913, 149.723 26.7882, 151.78 26.7882, 151.78 28.0157, 149.638 28.0157 C 149.563 28.9626, 149.297 29.6451, 148.841 30.063, 148.386 30.4815, 147.673 30.7059, 146.705 30.7363, 146.032 30.7609, 145.095 30.7729, 143.894 30.7729 Z M 138.281 26.7882 L 148.271 26.7882, 148.431 23.5913, 138.818 23.5913 Z M 144.233 26.6142 C 143.391 25.8883, 142.611 25.2654, 141.894 24.7455 L 142.743 23.8387 C 143.227 24.1936, 143.919 24.7032, 144.818 25.3684, 144.969 25.4852, 145.082 25.5734, 145.158 25.6341 Z M 139.035 22.3364 L 148.488 22.3364 C 148.551 21.311, 148.592 20.2548, 148.61 19.167 L 139.573 19.167 Z M 144.488 22.144 C 143.708 21.4851, 142.916 20.865, 142.111 20.2845 L 142.941 19.3777 C 143.715 19.8912, 144.535 20.4746, 145.403 21.1273 Z M 135.866 19.5884 C 135.728 19.3571, 135.496 18.9998, 135.168 18.5166, 135.118 18.4376, 135.08 18.3769, 135.055 18.3334, 136.778 16.9353, 138.105 15.302, 139.035 13.4327 L 140.62 13.6068 C 140.381 14.0654, 140.124 14.505, 139.847 14.9258 L 152.015 14.9258, 152.015 16.1625, 139.017 16.1625 C 138.105 17.3842, 137.055 18.5263, 135.866 19.5884 Z" stroke="none" fill="#000000" />
			<rect x="154.138748" y="20.9715366" width="17.5073547" height="1.60302734" stroke="none" fill="#000000" />
			<path d="M 178.799 30.9286 C 178.434 30.5015, 178.085 30.0951, 177.751 29.7103, 179.292 28.7399, 180.45 27.781, 181.224 26.834, 181.979 25.9066, 182.485 24.844, 182.742 23.6463 L 178.978 23.6463, 178.978 22.3181, 182.941 22.3181 C 183.01 21.4879, 183.064 20.0195, 183.101 17.912 L 179.931 17.912, 179.931 16.5838, 183.12 16.5838, 183.12 13.6434, 184.592 13.6434 C 184.592 14.0287, 184.589 14.572, 184.582 15.2739, 184.576 15.867, 184.573 16.3033, 184.573 16.5838 L 189.007 16.5838, 189.007 22.3181, 190.659 22.3181, 190.659 23.6463, 184.865 23.6463 C 185.444 25.0209, 186.187 26.1447, 187.092 27.0172, 187.979 27.8668, 189.168 28.618, 190.659 29.2706 L 189.781 30.6721 C 188.221 29.8603, 186.992 28.9901, 186.092 28.0615, 185.149 27.0848, 184.41 25.8911, 183.875 24.4799, 183.573 25.7079, 183.013 26.8375, 182.195 27.8691, 181.403 28.859, 180.271 29.8786, 178.799 30.9286 Z M 173.629 28.2081 L 173.326 26.6692 C 174.037 26.5048, 174.83 26.3005, 175.704 26.0554 L 175.704 19.3227, 173.524 19.3227, 173.524 17.9945, 175.704 17.9945, 175.704 13.6434, 177.119 13.6434, 177.119 17.9945, 179.214 17.9945, 179.214 19.3227, 177.119 19.3227, 177.119 25.6524 C 177.742 25.476, 178.488 25.2499, 179.355 24.9745, 179.355 25.3598, 179.381 25.8482, 179.431 26.4402, 177.771 26.9171, 175.836 27.5062, 173.629 28.2081 Z M 184.394 22.3181 L 187.601 22.3181, 187.601 17.912, 184.554 17.912 C 184.51 19.9645, 184.457 21.433, 184.394 22.3181 Z" stroke="none" fill="#000000" />
			<path d="M 192.58 30.0035 L 192.58 28.7485, 200.523 28.7485, 200.523 26.5134, 193.627 26.5134, 193.627 25.286, 200.523 25.286, 200.523 23.1517, 194.183 23.1517, 194.183 14.4678, 208.333 14.4678, 208.333 23.1517, 201.975 23.1517, 201.975 25.286, 208.889 25.286, 208.889 26.5134, 201.975 26.5134, 201.975 28.7485, 209.955 28.7485, 209.955 30.0035 Z M 195.608 21.915 L 200.523 21.915, 200.523 19.396, 195.608 19.396 Z M 201.975 21.915 L 206.909 21.915, 206.909 19.396, 201.975 19.396 Z M 195.608 18.2052 L 200.523 18.2052, 200.523 15.7044, 195.608 15.7044 Z M 201.975 18.2052 L 206.909 18.2052, 206.909 15.7044, 201.975 15.7044 Z" stroke="none" fill="#000000" />
			<path d="M 226.606 30.8828 L 226.606 29.7928, 214.22 29.7928, 214.22 30.8645, 212.814 30.8645, 212.814 18.2052, 218.484 18.2052, 219.258 15.8144, 211.919 15.8144, 211.919 14.5045, 228.926 14.5045, 228.926 15.8144, 220.88 15.8144, 220.031 18.2052, 227.973 18.2052, 227.973 30.8828 Z M 214.22 28.5378 L 217.097 28.5378, 217.097 19.451, 214.22 19.451 Z M 218.446 28.5378 L 222.37 28.5378, 222.37 26.2661, 218.446 26.2661 Z M 223.719 28.5378 L 226.606 28.5378, 226.606 19.451, 223.719 19.451 Z M 218.446 25.1486 L 222.37 25.1486, 222.37 22.8402, 218.446 22.8402 Z M 218.446 21.741 L 222.37 21.741, 222.37 19.451, 218.446 19.451 Z" stroke="none" fill="#000000" />
			<path d="M 232.004 30.6538 L 232.004 16.4739, 233.91 16.4739 C 234.212 15.5155, 234.47 14.56, 234.683 13.6068 L 236.202 13.8541 C 236.177 13.9583, 236.13 14.1203, 236.061 14.3396, 235.778 15.3174, 235.561 16.0285, 235.41 16.4739 L 238.806 16.4739, 238.806 30.5439, 237.4 30.5439, 237.4 29.1516, 233.409 29.1516, 233.409 30.6538 Z M 241.722 30.5439 C 241.646 30.1534, 241.54 29.6645, 241.401 29.0783, 241.433 29.0788, 241.477 29.0788, 241.533 29.0783, 242.659 29.1035, 243.568 29.1155, 244.26 29.1149, 244.99 29.1155, 245.508 28.9689, 245.816 28.6752, 246.137 28.3707, 246.317 27.8359, 246.354 27.0722, 246.424 25.8636, 246.499 23.241, 246.581 19.2036, 246.6 18.563, 246.613 18.1021, 246.618 17.8204 L 241.958 17.8204 C 241.467 18.9139, 241.005 19.8574, 240.57 20.6509, 240.042 20.3154, 239.624 20.0716, 239.316 19.9181, 239.838 19.033, 240.334 18.0288, 240.806 16.9044, 241.266 15.8121, 241.662 14.7037, 241.995 13.5793 L 243.439 13.9091 C 243.257 14.4776, 242.954 15.3232, 242.533 16.4464 L 248.081 16.4464 C 248.037 20.4712, 247.94 24.0986, 247.789 27.3287, 247.738 28.4285, 247.487 29.2134, 247.033 29.6828, 246.569 30.1718, 245.782 30.4431, 244.675 30.4981, 244.052 30.529, 243.068 30.5439, 241.722 30.5439 Z M 233.409 27.805 L 237.4 27.805, 237.4 23.4356, 233.409 23.4356 Z M 243.505 25.3593 C 243.442 25.2745, 243.348 25.1428, 243.222 24.9654, 242.153 23.427, 241.329 22.282, 240.75 21.5303 L 241.854 20.7792 C 243.042 22.3003, 243.996 23.5461, 244.712 24.5165 Z M 233.409 22.1074 L 237.4 22.1074, 237.4 17.8204, 233.409 17.8204 Z" stroke="none" fill="#000000" />
			<polyline points="253.847 22.9815 271.68 22.9815" fill="none" stroke="#000000" stroke-width="0.750400007" stroke-linecap="round" stroke-linejoin="round" />
			<path d="M 264.278 14.0396 C 264.202 14.3396, 264.117 14.6602, 264.023 15.002, 263.929 15.3443, 263.803 15.6615, 263.646 15.9546, 263.489 16.2478, 263.291 16.5014, 263.051 16.7149, 262.813 16.9285, 262.514 17.035, 262.155 17.035, 261.677 17.035, 261.295 16.9027, 261.009 16.6371, 260.723 16.3714, 260.558 16.1012, 260.514 15.8258, 260.3 16.0709, 259.982 16.3336, 259.557 16.6142, 259.132 16.8947, 258.684 17.035, 258.212 17.035, 257.716 17.035, 257.299 16.9101, 256.963 16.66, 256.626 16.4098, 256.364 16.0949, 256.175 15.7159, 255.948 15.2648, 255.829 14.7793, 255.816 14.2594 L 255.816 14.122 C 255.816 13.64, 255.882 13.1579, 256.014 12.6747, 256.165 12.144, 256.376 11.619, 256.647 11.0997, 256.917 10.5811, 257.275 10.0984, 257.722 9.65187, 258.087 9.28604, 258.503 8.97803, 258.972 8.72727, 259.44 8.47708, 259.916 8.3517, 260.401 8.35113, 260.822 8.3517, 261.165 8.46334, 261.429 8.68605, 261.693 8.90933, 261.86 9.09367, 261.929 9.23966 L 261.891 9.39539 C 261.936 9.16982, 262.041 8.99921, 262.207 8.88299, 262.374 8.76734, 262.542 8.70895, 262.712 8.70837, 262.907 8.70895, 263.071 8.76677, 263.202 8.88242, 263.284 8.97459, 263.328 9.09654, 263.334 9.24882, 263.334 9.30436, 263.328 9.36562, 263.315 9.43203 L 261.957 14.7266 C 261.894 14.9774, 261.85 15.2127, 261.825 15.4319, 261.812 15.5424, 261.806 15.6432, 261.806 15.7342, 261.806 15.8144, 261.812 15.8997, 261.825 15.9907, 261.844 16.1378, 261.888 16.2478, 261.957 16.321, 262.027 16.3943, 262.124 16.431, 262.249 16.4304, 262.382 16.431, 262.506 16.376, 262.622 16.2661, 262.739 16.1562, 262.846 15.993, 262.943 15.776, 263.04 15.5596, 263.133 15.2997, 263.221 14.9974, 263.31 14.6951, 263.401 14.3671, 263.494 14.0121, 263.532 13.8541, 263.639 13.7745, 263.816 13.7739 L 264.033 13.7739 C 264.196 13.7745, 264.278 13.8415, 264.278 13.9755 L 264.278 14.0396 Z M 261.58 10.6686 C 261.555 10.5593, 261.533 10.4448, 261.514 10.3257, 261.495 10.2066, 261.467 10.0893, 261.429 9.97248, 261.328 9.68622, 261.185 9.44634, 260.999 9.25398, 260.814 9.06161, 260.58 8.96543, 260.297 8.96486, 260.033 8.96543, 259.772 9.06047, 259.514 9.2494, 259.257 9.4389, 259.02 9.68279, 258.806 9.98164, 258.505 10.4036, 258.279 10.8421, 258.128 11.2967, 257.977 11.7518, 257.838 12.2264, 257.712 12.7205, 257.587 13.2094, 257.483 13.6829, 257.401 14.1403, 257.351 14.3728, 257.326 14.5926, 257.326 14.7999, 257.326 15.0203, 257.351 15.2338, 257.401 15.4411, 257.458 15.7285, 257.56 15.9655, 257.708 16.1516, 257.855 16.3382, 258.061 16.431, 258.325 16.4304, 258.615 16.431, 258.906 16.3302, 259.198 16.1287, 259.49 15.9271, 259.762 15.6798, 260.014 15.3861, 260.114 15.2648, 260.211 15.1474, 260.302 15.034, 260.393 14.9213, 260.473 14.8005, 260.542 14.6716 L 261.58 10.6686 Z" stroke="none" fill="#000000" />
			<path d="M 2.06012 -3.31757 C 2.0178 -3.18388, 1.94214 -3.07359, 1.83313 -2.98639, 1.72412 -2.89918, 1.60069 -2.85558, 1.46315 -2.8559, 1.3224 -2.85558, 1.215 -2.90335, 1.14094 -2.99953, 1.09157 -3.05404, 1.06688 -3.12746, 1.06688 -3.22011, 1.06688 -3.2573, 1.07041 -3.29674, 1.07746 -3.33809, 1.11626 -3.47114, 1.19288 -3.58143, 1.30734 -3.66864, 1.42179 -3.75584, 1.54587 -3.79944, 1.67956 -3.79976, 1.82063 -3.79944, 1.92835 -3.75328, 2.00209 -3.66126, 2.04441 -3.59586, 2.06717 -3.51891, 2.0707 -3.43043, 2.0707 -3.3926, 2.06717 -3.35476, 2.06012 -3.31757 Z M 0.607455 3.74601 C 0.547822 3.96145, 0.453564 4.16856, 0.325001 4.3667, 0.196439 4.56515, 0.0431892 4.73956, -0.134747 4.88993, -0.312362 5.04061, -0.508893 5.15859, -0.723699 5.24387, -0.938505 5.32948, -1.15684 5.37212, -1.3787 5.37212, -1.50566 5.37212, -1.62845 5.35512, -1.74835 5.32082, -1.86794 5.28684, -1.97085 5.23618, -2.05742 5.16949, -2.14334 5.10281, -2.20426 5.01656, -2.23984 4.91044, -2.26421 4.85594, -2.27639 4.79246, -2.27671 4.72065, -2.27639 4.6764, -2.26934 4.62318, -2.25587 4.56163, -2.21676 4.40773, -2.13565 4.29328, -2.01253 4.21794, -1.8891 4.14291, -1.76951 4.10508, -1.65345 4.10508, -1.53002 4.10508, -1.42647 4.14452, -1.34183 4.22307, -1.28187 4.28142, -1.25206 4.35644, -1.25206 4.44877, -1.25206 4.4866, -1.25911 4.53277, -1.27322 4.58727, -1.30464 4.70013, -1.36202 4.79342, -1.44474 4.86684, -1.52746 4.94058, -1.57747 4.98066, -1.59543 4.98739, -1.55631 5.01144, -1.46686 5.02522, -1.32612 5.02843, -1.19916 5.02843, -1.07861 4.99348, -0.964153 4.92327, -0.849697 4.85338, -0.740371 4.75912, -0.636494 4.64114, -0.532618 4.52315, -0.442849 4.38561, -0.367186 4.2282, -0.291523 4.0711, -0.232532 3.90342, -0.190212 3.72549 L 0.829314 -0.250021 C 0.88574 -0.47188, 0.913633 -0.663602, 0.913633 -0.824546 L 0.913633 -0.947659 C 0.89632 -1.11149, 0.813604 -1.19356, 0.665484 -1.19388, 0.531792 -1.19356, 0.405153 -1.15669, 0.285246 -1.08328, 0.16534 -1.00954, 0.0528073 -0.910468, -0.0529925 -0.785753, -0.158472 -0.660717, -0.254333 -0.515482, -0.340576 -0.34973, -0.426818 -0.183656, -0.505367 -0.0102084, -0.5759 0.170613, -0.611167 0.253009, -0.670799 0.295649, -0.755439 0.298855 L -0.876948 0.298855 C -0.954535 0.288917, -0.996855 0.246276, -1.00391 0.170613 L -1.00391 0.129576 C -0.929848 -0.0650318, -0.837514 -0.262525, -0.726584 -0.462583, -0.615655 -0.66264, -0.487733 -0.841218, -0.343461 -0.998635, -0.199189 -1.15573, -0.0388858 -1.28494, 0.137127 -1.38593, 0.31346 -1.4866, 0.507105 -1.53725, 0.718384 -1.53757, 0.90177 -1.53725, 1.06015 -1.50199, 1.19384 -1.43209, 1.32786 -1.36188, 1.43526 -1.26602, 1.51605 -1.14483, 1.59716 -1.02332, 1.64814 -0.884179, 1.6693 -0.727082 L 1.6693 -0.583451 C 1.6693 -0.46675, 1.65519 -0.348768, 1.62698 -0.229502 Z" stroke="none" fill="#000000" transform="matrix(1.12 0 0 1 267.528 16.288)" />
			<path d="M 265.12 28.6505 C 265.064 28.8829, 264.933 29.077, 264.729 29.2327, 264.524 29.3885, 264.303 29.4663, 264.063 29.4657, 263.812 29.4663, 263.62 29.381, 263.488 29.2093, 263.401 29.1119, 263.354 28.9929, 263.347 28.852, 263.347 28.7673, 263.359 28.6814, 263.384 28.5955, 263.441 28.3642, 263.573 28.1702, 263.781 28.0144, 263.988 27.8587, 264.212 27.7808, 264.45 27.7803, 264.702 27.7808, 264.894 27.8633, 265.026 28.0276, 265.114 28.1444, 265.158 28.2692, 265.158 28.4032, 265.158 28.489, 265.146 28.5715, 265.12 28.6505 Z M 265.224 37.5358 C 265.155 37.8542, 265.048 38.1885, 264.903 38.5395, 264.759 38.891, 264.581 39.2099, 264.37 39.4967, 264.16 39.7841, 263.913 40.0234, 263.63 40.2152, 263.347 40.4076, 263.02 40.5037, 262.649 40.5037, 262.335 40.5037, 262.064 40.4367, 261.838 40.3022, 261.611 40.1682, 261.437 39.9913, 261.314 39.7715, 261.192 39.5517, 261.13 39.3072, 261.13 39.0381, 261.117 39.0267, 261.111 39.002, 261.111 38.9648, 261.111 38.6906, 261.171 38.4095, 261.29 38.1221 L 262.818 34.0916 C 263.007 33.5855, 263.102 33.1699, 263.102 32.8458, 263.102 32.5716, 262.985 32.4342, 262.752 32.4336, 262.539 32.4342, 262.347 32.4955, 262.177 32.6174, 262.008 32.7399, 261.852 32.9094, 261.71 33.1258, 261.569 33.3428, 261.442 33.5993, 261.329 33.8953, 261.215 34.1918, 261.121 34.5073, 261.045 34.8428, 260.977 35.0082, 260.86 35.0935, 260.696 35.0992 L 260.489 35.0992 C 260.338 35.0998, 260.262 35.0237, 260.262 34.8702 L 260.262 34.8061 C 260.338 34.4706, 260.451 34.1277, 260.602 33.7762, 260.753 33.4252, 260.935 33.1063, 261.149 32.8189, 261.363 32.5321, 261.611 32.2939, 261.894 32.1044, 262.177 31.9155, 262.501 31.8205, 262.866 31.8199, 263.181 31.8205, 263.448 31.888, 263.668 32.022, 263.888 32.1565, 264.056 32.3352, 264.172 32.5579, 264.289 32.7812, 264.353 33.0325, 264.366 33.313 L 264.366 33.3771 C 264.366 33.6405, 264.313 33.9119, 264.205 34.1924 L 262.677 38.2412 C 262.501 38.7364, 262.413 39.1578, 262.413 39.5053, 262.4 39.5179, 262.394 39.5179, 262.394 39.5053, 262.394 39.7686, 262.514 39.8997, 262.752 39.8992, 262.967 39.8997, 263.159 39.8356, 263.332 39.7074, 263.505 39.5791, 263.663 39.4085, 263.804 39.1944, 263.946 38.9809, 264.07 38.7244, 264.177 38.4249, 264.284 38.1261, 264.381 37.8112, 264.469 37.4809, 264.507 37.3229, 264.617 37.2433, 264.799 37.2427 L 265.007 37.2427 C 265.076 37.2433, 265.146 37.2645, 265.214 37.3068, 265.234 37.3561, 265.249 37.399, 265.262 37.4351, 265.262 37.4723, 265.249 37.5061, 265.224 37.5358 Z" stroke="none" fill="#000000" />
			<path d="M 283.431 30.9103 L 283.431 14.6968, 292.666 14.6968, 292.666 30.9103, 291.26 30.9103, 291.26 29.692, 284.846 29.692, 284.846 30.9103 Z M 278.78 30.8828 L 278.78 21.3379 C 278.208 23.091, 277.435 24.7032, 276.46 26.1745, 276.409 26.0222, 276.331 25.7812, 276.224 25.4509, 276.086 24.9934, 275.979 24.6637, 275.903 24.4616, 277.117 22.7463, 278.054 20.7248, 278.714 18.3975 L 276.262 18.3975, 276.262 17.106, 278.78 17.106, 278.78 13.6434, 280.148 13.6434, 280.148 17.106, 282.507 17.106, 282.507 18.3975, 280.148 18.3975, 280.148 21.283, 280.657 20.7425 C 281.192 21.2257, 281.919 21.9339, 282.836 22.8677, 282.874 22.9112, 282.903 22.9415, 282.922 22.9593 L 281.987 23.9394 C 281.472 23.3171, 280.859 22.6364, 280.148 21.8967 L 280.148 30.8828 Z M 284.846 28.4004 L 291.26 28.4004, 291.26 25.0936, 284.846 25.0936 Z M 284.846 23.8387 L 291.26 23.8387, 291.26 20.5318, 284.846 20.5318 Z M 284.846 19.2769 L 291.26 19.2769, 291.26 15.9884, 284.846 15.9884 Z" stroke="none" fill="#000000" />
			<path d="M 296.3 30.6905 L 296.3 14.4678, 311.506 14.4678, 311.506 28.1165 C 311.506 28.9844, 311.333 29.5975, 310.987 29.9577, 310.642 30.3183, 310.035 30.5199, 309.167 30.5622, 308.437 30.5868, 307.551 30.5989, 306.507 30.5989, 306.444 30.1592, 306.347 29.6645, 306.214 29.1149, 306.605 29.1458, 307.246 29.1584, 308.139 29.1516, 308.359 29.1521, 308.523 29.1521, 308.629 29.1516, 309.189 29.1521, 309.569 29.0622, 309.771 28.8819, 309.972 28.7021, 310.072 28.3552, 310.072 27.8417 L 310.072 15.796, 297.743 15.796, 297.743 30.6905 Z M 300.186 27.0356 L 300.186 21.3196, 307.639 21.3196, 307.639 27.0356 Z M 301.573 25.7623 L 306.252 25.7623, 306.252 22.5929, 301.573 22.5929 Z M 298.96 19.2219 L 298.96 17.9304, 308.865 17.9304, 308.865 19.2219 Z" stroke="none" fill="#000000" />
			<rect />
		</svg>
	</g>
	<path d="M -72.2253 0 L 72.2253 0" fill="none" stroke="#000000" stroke-width="8" stroke-linecap="round" stroke-linejoin="round" transform="matrix(0.5 0 0 0.5 49.6127 52.0809)" />
	<path d="M -122.117 0 L 122.117 0" fill="none" stroke="#000000" stroke-width="8" stroke-linecap="round" stroke-linejoin="round" transform="matrix(0.5 0 0 0.5 146.784 183.581)" />
	<path d="M -240.686 0 L 240.686 0" fill="none" stroke="#000000" stroke-width="8" stroke-linecap="round" stroke-linejoin="round" transform="matrix(0.5 0 0 0.5 328.185 230.081)" />
	<path d="M 0 131.5 L 0 -131.5" fill="none" stroke="#000000" stroke-width="8" stroke-linecap="round" stroke-linejoin="round" transform="matrix(0.5 0 0 0.5 85.7253 117.831)" />
	<path d="M 0 46.5003 L 0 -46.4996" fill="none" stroke="#000000" stroke-width="8" stroke-linecap="round" stroke-linejoin="round" transform="matrix(0.5 0 0 0.5 207.842 206.831)" />
	<path d="M 0 67.0941 L 0 -67.0934" fill="none" stroke="#000000" stroke-width="8" stroke-linecap="round" stroke-linejoin="round" transform="matrix(0.5 0 0 0.5 448.528 263.628)" />
	<path d="M -115.352 0 L 115.352 0" fill="none" stroke="#CD101A" stroke-width="8" stroke-linecap="round" stroke-linejoin="round" transform="matrix(0.5 0 0 0.5 71.1761 112.581)" />
	<path d="M -131.552 0 L 131.551 0" fill="none" stroke="#CD101A" stroke-width="8" stroke-linecap="round" stroke-linejoin="round" transform="matrix(0.5 0 0 0.5 194.628 211.831)" />
	<path d="M -224.375 0 L 224.375 0" fill="none" stroke="#CD101A" stroke-width="8" stroke-linecap="round" stroke-linejoin="round" transform="matrix(0.5 0 0 0.5 372.591 260.581)" />
	<path d="M 0 -99.2501 L 0 99.2499" fill="none" stroke="#CD101A" stroke-width="8" stroke-linecap="round" stroke-linejoin="round" transform="matrix(0.5 0 0 0.5 128.852 162.206)" />
	<path d="M 0 -48.75 L 0 48.7501" fill="none" stroke="#CD101A" stroke-width="8" stroke-linecap="round" stroke-linejoin="round" transform="matrix(0.5 0 0 0.5 260.404 236.206)" />
	<path d="M 0 -36.5942 L 0 36.5936" fill="none" stroke="#CD101A" stroke-width="8" stroke-linecap="round" stroke-linejoin="round" transform="matrix(0.5 0 0 0.5 484.778 278.878)" />
	<path d="M -148.509 0 L 148.509 0" fill="none" stroke="#1E9B43" stroke-width="8" stroke-linecap="round" stroke-linejoin="round" transform="matrix(0.5 0 0 0.5 87.7545 145.581)" />
	<path d="M -175.269 0 L 175.269 0" fill="none" stroke="#1E9B43" stroke-width="8" stroke-linecap="round" stroke-linejoin="round" transform="matrix(0.5 0 0 0.5 249.644 248.081)" />
	<path d="M -181.875 0 L 181.875 0" fill="none" stroke="#1E9B43" stroke-width="8" stroke-linecap="round" stroke-linejoin="round" transform="matrix(0.5 0 0 0.5 428.216 279.706)" />
	<path d="M 0 102.5 L 0 -102.5" fill="none" stroke="#1E9B43" stroke-width="8" stroke-linecap="round" stroke-linejoin="round" transform="matrix(0.5 0 0 0.5 162.009 196.831)" />
	<path d="M 0 31.6248 L 0 -31.6253" fill="none" stroke="#1E9B43" stroke-width="8" stroke-linecap="round" stroke-linejoin="round" transform="matrix(0.5 0 0 0.5 337.278 263.894)" />
	<path d="M 0 17.4688 L 0 -17.4689" fill="none" stroke="#1E9B43" stroke-width="8" stroke-linecap="round" stroke-linejoin="round" transform="matrix(0.5 0 0 0.5 519.153 288.441)" />
	<path d="M 0 84.8288 L 0 -84.8288" fill="none" stroke="#1A5AB3" stroke-width="2.66666675" stroke-linecap="round" stroke-linejoin="round" transform="matrix(0.5 0 0 0.5 207.842 50.9146)" />
	<path d="M 0 51.297 L 0 -51.297" fill="none" stroke="#1A5AB3" stroke-width="2.66666675" stroke-linecap="round" stroke-linejoin="round" transform="matrix(0.5 0 0 0.5 260.404 34.1487)" />
	<path d="M 0 51.297 L 0 -51.297" fill="none" stroke="#1A5AB3" stroke-width="2.66666675" stroke-linecap="round" stroke-linejoin="round" transform="matrix(0.5 0 0 0.5 337.278 34.1487)" />
	<path d="M 0 51.297 L 0 -51.297" fill="none" stroke="#1A5AB3" stroke-width="2.66666675" stroke-linecap="round" stroke-linejoin="round" transform="matrix(0.5 0 0 0.5 448.528 34.1487)" />
	<path d="M 0 84.8291 L 0 -84.8285" fill="none" stroke="#1A5AB3" stroke-width="2.66666675" stroke-linecap="round" stroke-linejoin="round" transform="matrix(0.5 0 0 0.5 484.778 50.9144)" />
</svg>
