<?xml version="1.0" encoding="iso-8859-1"?>
<!-- Generator: Adobe Illustrator 24.1.2, SVG Export Plug-In . SVG Version: 6.00 Build 0)  -->
<svg version="1.1" baseProfile="basic" id="Layer_1"
	 xmlns="http://www.w3.org/2000/svg" xmlns:xlink="http://www.w3.org/1999/xlink" x="0px" y="0px" viewBox="0 0 48 48"
	 xml:space="preserve">
<linearGradient id="SVGID_1_" gradientUnits="userSpaceOnUse" x1="26.8541" y1="37.5" x2="26.8541" y2="5.6604">
	<stop  offset="0" style="stop-color:#9631CC"/>
	<stop  offset="1" style="stop-color:#7717A2"/>
</linearGradient>
<path style="fill:url(#SVGID_1_);" d="M35.332,37.49l-19.903-1.965c-1.099-0.109-1.902-1.088-1.794-2.187l2.555-25.874
	c0.109-1.099,1.088-1.902,2.187-1.794l19.903,1.965c1.099,0.109,1.902,1.088,1.794,2.187l-2.555,25.874
	C37.41,36.796,36.431,37.599,35.332,37.49z"/>
<path style="fill:#5286FF;" d="M31.456,39.92l-19.899,2.008c-1.099,0.111-2.08-0.69-2.191-1.789L6.755,14.271
	c-0.111-1.099,0.69-2.08,1.789-2.191l19.899-2.008c1.099-0.111,2.08,0.69,2.191,1.789l2.611,25.869
	C33.356,38.828,32.555,39.809,31.456,39.92z"/>
<linearGradient id="SVGID_2_" gradientUnits="userSpaceOnUse" x1="4.2676" y1="4.7676" x2="25.7773" y2="26.2773">
	<stop  offset="0" style="stop-color:#FCFCFC"/>
	<stop  offset="0.4953" style="stop-color:#F4F4F4"/>
	<stop  offset="0.9464" style="stop-color:#E8E8E8"/>
	<stop  offset="1" style="stop-color:#E8E8E8"/>
</linearGradient>
<path style="fill:url(#SVGID_2_);" d="M34,40H14c-1.105,0-2-0.895-2-2V11c0-1.105,0.895-2,2-2h20c1.105,0,2,0.895,2,2v27
	C36,39.105,35.105,40,34,40z"/>
<rect x="12" y="12" style="fill:#CCCCCC;" width="24" height="1"/>
<rect x="12" y="16" style="fill:#CCCCCC;" width="24" height="1"/>
<rect x="12" y="20" style="fill:#CCCCCC;" width="24" height="1"/>
<rect x="12" y="24" style="fill:#CCCCCC;" width="24" height="1"/>
<rect x="12" y="28" style="fill:#CCCCCC;" width="24" height="1"/>
<rect x="12" y="32" style="fill:#CCCCCC;" width="24" height="1"/>
<rect x="12" y="36" style="fill:#CCCCCC;" width="24" height="1"/>
<path style="fill:#057093;" d="M32,29c-2.212,0-3.195-1.606-3.914-2.78C27.621,25.461,27.316,25,27,25
	c-0.354,0-0.682,0.6-1.105,1.447C25.355,27.524,24.618,29,23,29c-1.269,0-2.333-1.162-3.145-2.784
	c-1.156,1.493-2.079,2.422-2.148,2.491c-0.391,0.391-1.022,0.391-1.413,0c-0.391-0.39-0.392-1.022-0.001-1.414
	c0.019-0.019,1.287-1.3,2.693-3.264c-0.594-1.878-0.914-3.927-0.914-5.449c0-1.231,0.184-2.236,0.545-2.986
	C19.113,14.566,19.959,14,21,14c1.075,0,1.963,0.477,2.497,1.341c0.873,1.413,0.659,3.582-0.603,6.106
	c-0.518,1.036-1.098,2.003-1.676,2.874C21.839,25.91,22.565,27,23,27c0.354,0,0.682-0.6,1.105-1.447C24.645,24.476,25.382,23,27,23
	c1.459,0,2.198,1.207,2.792,2.176C30.484,26.307,30.961,27,32,27c0.553,0,1,0.447,1,1S32,29,32,29z M21,16
	c-0.134,0-0.357,0-0.581,0.463c-0.158,0.328-0.347,0.961-0.347,2.117c0,1.067,0.145,2.162,0.374,3.193
	c0.229-0.395,0.45-0.802,0.659-1.221c1.075-2.151,1.062-3.559,0.69-4.16C21.691,16.224,21.496,16,21,16z"/>
<path style="fill:#999999;" d="M38.963,6.766L31.21,26.074c-0.117,0.295-0.163,0.613-0.133,0.929l0.167,1.757
	c0.021,0.22,0.087,0.438,0.302,0.524c0.215,0.086,0.413-0.027,0.58-0.173l1.329-1.161c0.239-0.209,0.425-0.471,0.542-0.766
	L41.75,7.875c0.102-0.257-0.023-0.547-0.28-0.649l-1.858-0.74C39.356,6.384,39.065,6.509,38.963,6.766z"/>
<path style="fill:#666666;" d="M41.47,7.226l-1.858-0.74c-0.257-0.102-0.547,0.023-0.649,0.28l-1.479,3.716l2.787,1.109l1.479-3.716
	C41.852,7.618,41.727,7.328,41.47,7.226z"/>
<path style="fill:#666666;" d="M31.401,25.593l-0.191,0.481c-0.117,0.295-0.163,0.613-0.133,0.929l0.167,1.757
	c0.021,0.22,0.087,0.438,0.302,0.524c0.215,0.086,0.413-0.027,0.58-0.173l1.329-1.161c0.239-0.209,0.425-0.471,0.542-0.766
	l0.191-0.481L31.401,25.593z"/>
<path style="fill:#057093;" d="M32,33H17c-0.553,0-1-0.447-1-1s0.447-1,1-1h15c0.553,0,1,0.447,1,1S32.553,33,32,33z"/>
</svg>