<?xml version="1.0"?>
<svg xmlns="http://www.w3.org/2000/svg" xmlns:xlink="http://www.w3.org/1999/xlink" width="307.936615" height="237.829712">
	<defs>
		<marker id="CustomMarker-01" markerUnits="strokeWidth" markerWidth="15.000001" markerHeight="9" viewBox="-15 -4.5 15 9" orient="auto-start-reverse">
			<path d="M 0 -0 L -10 -3, -8 -0.5, -8 0.5, -10 3 Z" fill="#000000" stroke="#000000" stroke-linejoin="round" />
		</marker>
		<marker id="CustomMarker-02" markerUnits="strokeWidth" markerWidth="15.000001" markerHeight="9" viewBox="-15 -4.5 15 9" orient="auto-start-reverse">
			<path d="M 0 -0 L -10 -3, -8 -0.5, -8 0.5, -10 3 Z" fill="#000000" stroke="#000000" stroke-linejoin="round" />
		</marker>
		<marker id="CustomMarker-03" markerUnits="strokeWidth" markerWidth="9" markerHeight="6" viewBox="-9 -3 9 6" orient="auto-start-reverse">
			<path d="M 0 -0 L -6 -2, -6 -0.5, -6 0.5, -6 2 Z" fill="#000000" stroke="#000000" stroke-linejoin="round" />
		</marker>
		<marker id="CustomMarker-04" markerUnits="strokeWidth" markerWidth="9" markerHeight="6" viewBox="-9 -3 9 6" orient="auto-start-reverse">
			<path d="M 0 -0 L -6 -2, -6 -0.5, -6 0.5, -6 2 Z" fill="#000000" stroke="#000000" stroke-linejoin="round" />
		</marker>
		<marker id="CustomMarker-05" markerUnits="strokeWidth" markerWidth="9" markerHeight="6" viewBox="-9 -3 9 6" orient="auto-start-reverse">
			<path d="M 0 -0 L -6 -2, -6 -0.5, -6 0.5, -6 2 Z" fill="#000000" stroke="#000000" stroke-linejoin="round" />
		</marker>
		<marker id="CustomMarker-06" markerUnits="strokeWidth" markerWidth="9" markerHeight="6" viewBox="-9 -3 9 6" orient="auto-start-reverse">
			<path d="M 0 -0 L -6 -2, -6 -0.5, -6 0.5, -6 2 Z" fill="#000000" stroke="#000000" stroke-linejoin="round" />
		</marker>
	</defs>
	<path d="M -48.7999 -206 C -51.7333 -205.6, -60.6666 -204.667, -66.3999 -203.6, -72.1332 -202.533, -75.1999 -202.133, -83.1999 -199.6, -91.1999 -197.067, -102.8 -193.467, -114.4 -188.4, -126 -183.333, -140.133 -176.4, -152.8 -169.2, -165.466 -162, -184.133 -149.2, -190.4 -145.2 L -190.4 206, 190.4 206, 190.4 -165.2 C 186.666 -162.533, 176.8 -154.533, 168 -149.2, 159.2 -143.867, 145.2 -136.533, 137.6 -133.2, 130 -129.867, 128.4 -129.733, 122.4 -129.2, 116.4 -128.667, 107.333 -129.2, 101.6 -130, 95.8665 -130.8, 92.2665 -132.267, 87.9999 -134, 83.7332 -135.733, 79.0665 -138.533, 75.9999 -140.4, 72.9332 -142.267, 76.6665 -138.267, 69.5999 -145.2, 62.5332 -152.133, 41.9999 -174.133, 33.5999 -182, 25.2 -189.867, 23.1999 -189.867, 19.2 -192.4, 15.2 -194.933, 15.1999 -195.2, 9.59998 -197.2, 3.99999 -199.2, -4.66667 -202.933, -14.4 -204.4, -24.1333 -205.867, -43.0666 -205.733, -48.7999 -206 Z" stroke="none" fill="#C3C3C3" fill-opacity="0.498039186" transform="matrix(0.3125 0 -0 0.3125 133.489 141.503)" />
	<path d="M -15.8045 -177.756 L -16.1947 201.171, 15.4143 200.781, 16.1947 -201.171, 16.1947 -201.171 Z" stroke="none" fill="#000000" fill-opacity="0.494117618" transform="matrix(0.3125 0 -0 0.3125 198.809 143.878)" />
	<path d="M -15.8045 -177.756 L -16.1947 201.171, 15.4143 200.781, 16.1947 -201.171, 16.1947 -201.171 Z" fill="none" stroke="#000000" stroke-width="3.20000005" stroke-linecap="round" stroke-linejoin="round" transform="matrix(0.3125 0 -0 0.3125 198.809 143.878)" />
	<path d="M -362.316 107.765 C -294.756 44.0376, -192.327 -29.92, -110.602 -20.2353, -28.8763 -10.5506, -38.6833 54.1176, 26.6969 55.9999, 92.0772 57.8823, 204.313 -103.059, 362.316 -107.765" fill="none" stroke="#000000" stroke-width="4.26666689" stroke-linecap="round" stroke-linejoin="round" transform="matrix(0.3125 0 -0 0.3125 160.989 82.8545)" />
	<path d="M -401.781 315.78 L 401.781 315.78" fill="none" stroke="#000000" stroke-width="4.26666689" stroke-linecap="round" stroke-linejoin="round" marker-end="url(#CustomMarker-01)" transform="matrix(0.3125 0 -0 0.3125 156.737 108.075)" />
	<path d="M -401.781 315.78 L -401.781 -315.78" fill="none" stroke="#000000" stroke-width="4.26666689" stroke-linecap="round" stroke-linejoin="round" marker-end="url(#CustomMarker-02)" transform="matrix(0.3125 0 -0 0.3125 156.737 108.075)" />
	<path d="M 0 176.3 L 0 -176.3" fill="none" stroke="#000000" stroke-width="4.26666689" stroke-linecap="round" stroke-linejoin="round" transform="matrix(0.3125 0 0 0.3125 73.1373 151.662)" />
	<g transform="matrix(1 0 -0 1 289.766 195.536)">
		<svg width="33.1395264" height="32.8723297">
			<defs />
			<path d="M 9.12638 9.8992 C 9.05768 10.1746, 8.91741 10.3807, 8.70673 10.5181, 8.49605 10.6555, 8.28422 10.7242, 8.0701 10.7236, 7.85026 10.7242, 7.66762 10.6538, 7.52278 10.5129, 7.41629 10.4099, 7.35961 10.2753, 7.35274 10.1099, 7.35274 10.0435, 7.36534 9.95759, 7.39053 9.8534, 7.4598 9.6221, 7.56686 9.44634, 7.71114 9.32726, 7.85598 9.20818, 7.95674 9.13948, 8.01342 9.12058, 7.89434 9.02955, 7.64873 8.98375, 7.27717 8.98318, 6.95027 8.98375, 6.65772 9.15322, 6.40009 9.49214, 6.14246 9.83107, 5.9501 10.2387, 5.82414 10.7144 L 4.95622 14.0671 C 4.86805 14.4037, 4.80221 14.7243, 4.75813 15.0289, 4.73294 15.1331, 4.72034 15.2247, 4.72034 15.3037, 4.72034 15.4938, 4.75183 15.6735, 4.81481 15.8441, 4.87778 16.0279, 4.97225 16.1745, 5.0982 16.2844, 5.22415 16.3943, 5.38446 16.4493, 5.57911 16.4487, 5.83101 16.4493, 6.07318 16.384, 6.30562 16.2523, 6.53864 16.1212, 6.75275 15.9443, 6.94741 15.721, 7.14206 15.4983, 7.31496 15.239, 7.4661 14.9424, 7.61724 14.6464, 7.73633 14.3424, 7.82449 14.0304, 7.86228 13.8724, 7.96934 13.7928, 8.1451 13.7923 L 8.36208 13.7923 C 8.52582 13.7928, 8.60769 13.8541, 8.60769 13.9755, 8.60769 14.0127, 8.59853 14.0465, 8.57963 14.0762, 8.49147 14.4432, 8.34834 14.805, 8.15025 15.1623, 7.95216 15.5195, 7.72144 15.8356, 7.45694 16.1104, 7.19244 16.3852, 6.89245 16.6113, 6.55581 16.7876, 6.21917 16.9651, 5.85907 17.0533, 5.47548 17.0533, 5.08561 17.0533, 4.74897 16.9697, 4.46615 16.8014, 4.18333 16.6342, 3.95318 16.4155, 3.77685 16.1464, 3.72074 16.08, 3.67666 16.0113, 3.64517 15.9409, 3.61368 15.871, 3.60395 15.8602, 3.61655 15.9083, 3.46598 16.159, 3.22724 16.4126, 2.89976 16.6691, 2.57286 16.9256, 2.19558 17.0533, 1.76734 17.0533, 1.5286 17.0533, 1.29273 17.0229, 1.05972 16.9617, 0.827278 16.901, 0.624037 16.8065, 0.451139 16.6783, 0.278241 16.55, 0.147709 16.3943, 0.0595425 16.2105, 0.0160317 16.1012, -0.00572362 15.9821, -0.00629613 15.8533, -0.00572362 15.7623, 0.00687159 15.6552, 0.0314895 15.5327, 0.100763 15.2585, 0.242173 15.0524, 0.456292 14.915, 0.67041 14.7776, 0.883956 14.7089, 1.0975 14.7083, 1.31792 14.7089, 1.50685 14.7793, 1.66371 14.919, 1.77077 15.0232, 1.82402 15.1577, 1.82402 15.322, 1.82402 15.4079, 1.81142 15.4938, 1.78623 15.5785, 1.73013 15.7926, 1.62765 15.9655, 1.47994 16.0966, 1.33223 16.2283, 1.22632 16.2999, 1.16334 16.3113, 1.283 16.4098, 1.52517 16.4556, 1.88986 16.4487, 2.21733 16.4493, 2.51275 16.2787, 2.77667 15.9363, 3.04117 15.5945, 3.23296 15.1852, 3.35262 14.7083 L 4.2297 11.3373 C 4.31787 11.0202, 4.38714 10.7087, 4.43752 10.403, 4.45012 10.3057, 4.45642 10.2141, 4.45642 10.1282, 4.45642 9.93927, 4.42836 9.76237, 4.37111 9.59691, 4.30871 9.41428, 4.21138 9.26657, 4.07913 9.15322, 3.94688 9.04043, 3.78315 8.98375, 3.58849 8.98318, 3.33659 8.98375, 3.0927 9.04959, 2.85682 9.1807, 2.62095 9.31237, 2.40569 9.48756, 2.21103 9.70741, 2.01638 9.92725, 1.84348 10.1826, 1.69234 10.4723, 1.5412 10.7625, 1.43128 11.0694, 1.36143 11.3923, 1.29273 11.5578, 1.17651 11.6431, 1.01277 11.6488 L 0.80495 11.6488 C 0.65438 11.6494, 0.578809 11.5732, 0.578809 11.4198 L 0.578809 11.3557 C 0.673273 10.9778, 0.818118 10.6097, 1.01277 10.2524, 1.20742 9.89519, 1.44044 9.57916, 1.71066 9.30436, 1.98146 9.02955, 2.28374 8.80513, 2.61694 8.63109, 2.95014 8.45704, 3.31197 8.37002, 3.70128 8.36945, 4.07913 8.37002, 4.41233 8.45246, 4.70145 8.61735, 4.99114 8.78223, 5.22702 9.00207, 5.40907 9.27631, 5.44686 9.34386, 5.48178 9.416, 5.51327 9.49214, 5.54476 9.56886, 5.55392 9.58832, 5.54132 9.55111, 5.69876 9.28318, 5.94094 9.01925, 6.26784 8.75933, 6.59531 8.49998, 6.96916 8.37002, 7.39053 8.36945, 7.62984 8.37002, 7.86686 8.39922, 8.10273 8.45704, 8.3386 8.51544, 8.54356 8.60819, 8.71646 8.73643, 8.88936 8.86467, 9.01703 9.02326, 9.09833 9.21218, 9.14241 9.32268, 9.16416 9.44806, 9.16416 9.58775, 9.16416 9.67992, 9.15157 9.78355, 9.12638 9.8992 Z" stroke="none" fill="#000000" />
			<rect />
		</svg>
	</g>
	<g transform="matrix(1 0 -0 1 10.9952 9)">
		<svg width="29.9820557" height="41.7765884">
			<defs />
			<path d="M 6.58759 16.7693 C 6.45591 17.2823, 6.24809 17.7724, 5.96527 18.2395, 5.68245 18.7067, 5.34868 19.1223, 4.9651 19.4853, 4.58151 19.8488, 4.15099 20.1437, 3.67294 20.3693, 3.19489 20.5954, 2.69796 20.7082, 2.18155 20.7082, 1.87354 20.7082, 1.59072 20.6521, 1.33252 20.5387, 1.07489 20.4259, 0.864208 20.2731, 0.70047 20.0807, 0.536732 19.8883, 0.42681 19.6611, 0.370132 19.3983, 0.344941 19.2826, 0.332346 19.1635, 0.332346 19.041, 0.332346 18.8824, 0.351239 18.7204, 0.389025 18.5555, 0.458298 18.2807, 0.599708 18.0746, 0.813827 17.9372, 1.02795 17.7998, 1.23863 17.7311, 1.44588 17.7311, 1.66629 17.7311, 1.85179 17.8015, 2.00236 17.9418, 2.10942 18.046, 2.16266 18.18, 2.16266 18.3449, 2.16266 18.4124, 2.15006 18.4949, 2.12487 18.5922, 2.05617 18.867, 1.91476 19.0731, 1.70064 19.2105, 1.48653 19.3479, 1.31706 19.4166, 1.19111 19.4166, 1.2289 19.5815, 1.34683 19.7361, 1.54492 19.8792, 1.74301 20.0229, 1.99606 20.0944, 2.30407 20.0944, 2.64414 20.0944, 2.96188 20.0028, 3.2573 19.8196, 3.55329 19.6364, 3.82408 19.3908, 4.06912 19.0823, 4.31415 18.7742, 4.52942 18.417, 4.71491 18.0105, 4.9004 17.6046, 5.04983 17.1787, 5.16318 16.7327 L 5.21986 16.5128 C 5.12597 16.5987, 4.92788 16.7103, 4.6256 16.8472, 4.32388 16.9846, 3.99355 17.0533, 3.63458 17.0533, 3.20749 17.0533, 2.82505 16.9743, 2.48842 16.8151, 2.15178 16.6571, 1.88614 16.4126, 1.69091 16.0823, 1.50256 15.7285, 1.41153 15.338, 1.41725 14.9098 L 1.41725 14.8365 C 1.42985 14.3911, 1.48653 13.9486, 1.58729 13.5083, 1.68805 13.0875, 1.83461 12.6238, 2.0264 12.1165, 2.21819 11.6099, 2.40197 11.1181, 2.57773 10.6412, 2.76666 10.1351, 2.86112 9.71943, 2.86112 9.39539, 2.86112 9.12116, 2.7449 8.98375, 2.51189 8.98318, 2.29834 8.98375, 2.10484 9.04501, 1.93194 9.16696, 1.75904 9.28947, 1.6016 9.45894, 1.46019 9.67535, 1.31878 9.89233, 1.19111 10.1488, 1.07775 10.4448, 0.964397 10.7414, 0.870505 11.0568, 0.794934 11.3923, 0.72566 11.5578, 0.609441 11.6431, 0.445703 11.6488 L 0.228722 11.6488 C 0.0775793 11.6494, 0.00200802 11.5732, 0.00200802 11.4198 L 0.00200802 11.3557 C 0.0901745 11.0202, 0.206967 10.6772, 0.351239 10.3257, 0.496084 9.97477, 0.678715 9.65588, 0.898558 9.36848, 1.11897 9.08165, 1.37088 8.84349, 1.6537 8.65399, 1.93652 8.46506, 2.26056 8.37002, 2.62525 8.36945, 2.94013 8.37002, 3.20863 8.43758, 3.43191 8.57155, 3.65519 8.70609, 3.82523 8.88471, 3.94145 9.10742, 4.05824 9.33069, 4.12236 9.58203, 4.13496 9.86256 L 4.13496 9.92668 C 4.13496 10.19, 4.08171 10.4614, 3.97408 10.7419, 3.79202 11.2188, 3.61168 11.706, 3.43191 12.2035, 3.25272 12.7016, 3.11303 13.1488, 3.01226 13.5455, 2.9115 13.9428, 2.84223 14.3361, 2.80444 14.7266, 2.77925 14.8308, 2.76379 14.9442, 2.7575 15.0655, 2.7575 15.3043, 2.79872 15.5396, 2.88001 15.7709, 2.93669 15.9792, 3.04032 16.1441, 3.19146 16.2661, 3.3426 16.3886, 3.5218 16.4493, 3.72905 16.4487, 4.13209 16.4493, 4.48419 16.3302, 4.7859 16.092, 5.08818 15.8539, 5.35211 15.5424, 5.57825 15.1571 L 7.09712 9.24883 C 7.15437 9.02326, 7.26887 8.85723, 7.44177 8.75017, 7.61467 8.64368, 7.78929 8.58987, 7.96505 8.58929, 8.14768 8.58987, 8.29882 8.64483, 8.41847 8.75418, 8.50034 8.83433, 8.54099 8.94081, 8.54099 9.07478, 8.54099 9.14234, 8.53469 9.21276, 8.5221 9.28547 Z" stroke="none" fill="#000000" />
			<rect />
		</svg>
	</g>
	<g transform="matrix(1 0 -0 1 9.00002 195.549)">
		<svg width="42.0378685" height="48.0957298">
			<defs />
			<path d="M 12.2634 10.4122 C 12.0367 11.2984, 11.6703 12.1532, 11.1642 12.9776, 10.6581 13.802, 10.0209 14.556, 9.25376 15.2396, 8.56217 15.8567, 7.80531 16.3474, 6.98433 16.7103, 6.16336 17.0733, 5.34123 17.2548, 4.51739 17.2548, 3.68725 17.2548, 2.94929 17.0722, 2.30464 16.7058, 1.65999 16.3394, 1.14588 15.8447, 0.762298 15.2212, 0.340931 14.5319, 0.0987594 13.7682, 0.0357833 12.9312, 0.0105929 12.7303, -0.00200236 12.5287, -0.00200236 12.3266, -0.00200236 11.698, 0.0798666 11.0477, 0.243032 10.3755, 0.482341 9.4784, 0.85161 8.60704, 1.35198 7.76087, 1.85236 6.91528, 2.49185 6.1504, 3.27161 5.46568, 3.96377 4.84966, 4.72006 4.35329, 5.54104 3.97773, 6.36202 3.60216, 7.19044 3.41438, 8.02687 3.41381, 8.85701 3.41438, 9.59154 3.60388, 10.2299 3.98231, 10.8688 4.36131, 11.3795 4.86168, 11.7631 5.484, 12.1844 6.17445, 12.4329 6.9439, 12.5085 7.79236, 12.5211 8.00075, 12.5274 8.20514, 12.5274 8.40609, 12.5274 9.0599, 12.4398 9.72859, 12.2634 10.4122 Z M 10.3576 5.79545 C 10.1503 5.28305, 9.83887 4.86626, 9.42323 4.54566, 9.00816 4.22505, 8.49862 4.06475, 7.89462 4.06418, 7.2975 4.06475, 6.70323 4.22849, 6.11183 4.55482, 5.521 4.88172, 4.99257 5.30423, 4.52655 5.82293, 3.94144 6.45269, 3.47943 7.13512, 3.13993 7.87079, 2.80043 8.60704, 2.53593 9.35302, 2.34701 10.1099, 2.12716 10.9349, 1.99205 11.7381, 1.94167 12.519, 1.92907 12.6661, 1.92278 12.8127, 1.92278 12.9587, 1.92278 13.5701, 2.02354 14.1684, 2.22449 14.7541, 2.41971 15.2739, 2.71856 15.709, 3.12104 16.06, 3.52351 16.4115, 4.02675 16.5867, 4.63017 16.5861, 5.25306 16.5867, 5.86222 16.4081, 6.45648 16.0508, 7.05075 15.6936, 7.58375 15.2522, 8.0555 14.7266, 8.6658 14.019, 9.14041 13.2707, 9.4799 12.4829, 9.81997 11.6952, 10.0965 10.8919, 10.31 10.0732, 10.5053 9.31066, 10.6278 8.55952, 10.6782 7.81984 L 10.6782 7.49924 C 10.6782 6.88894, 10.5717 6.32101, 10.3576 5.79545 Z" stroke="none" fill="#000000" />
			<rect />
		</svg>
	</g>
	<g transform="matrix(1 0 -0 1 55.1508 44.9048)">
		<svg width="213.115585" height="98.9361496">
			<defs />
			<path d="M 6.58759 17.3321 C 6.45591 17.8451, 6.24809 18.3351, 5.96527 18.8023, 5.68245 19.2695, 5.34868 19.6851, 4.9651 20.0481, 4.58151 20.4116, 4.15099 20.7065, 3.67294 20.9321, 3.19489 21.1582, 2.69796 21.271, 2.18155 21.271, 1.87354 21.271, 1.59072 21.2149, 1.33252 21.1015, 1.07489 20.9887, 0.864208 20.8359, 0.70047 20.6435, 0.536732 20.4511, 0.42681 20.2239, 0.370132 19.9611, 0.344941 19.8454, 0.332346 19.7263, 0.332346 19.6038, 0.332346 19.4452, 0.351239 19.2832, 0.389025 19.1183, 0.458298 18.8435, 0.599708 18.6374, 0.813827 18.5, 1.02795 18.3626, 1.23863 18.2939, 1.44588 18.2939, 1.66629 18.2939, 1.85179 18.3643, 2.00236 18.5046, 2.10942 18.6088, 2.16266 18.7428, 2.16266 18.9077, 2.16266 18.9752, 2.15006 19.0577, 2.12487 19.155, 2.05617 19.4298, 1.91476 19.6359, 1.70064 19.7733, 1.48653 19.9107, 1.31706 19.9794, 1.19111 19.9794, 1.2289 20.1443, 1.34683 20.2989, 1.54492 20.442, 1.74301 20.5857, 1.99606 20.6572, 2.30407 20.6572, 2.64414 20.6572, 2.96188 20.5656, 3.2573 20.3824, 3.55329 20.1992, 3.82408 19.9536, 4.06912 19.6451, 4.31415 19.337, 4.52942 18.9798, 4.71491 18.5733, 4.9004 18.1674, 5.04983 17.7415, 5.16318 17.2955 L 5.21986 17.0756 C 5.12597 17.1615, 4.92788 17.2731, 4.6256 17.41, 4.32388 17.5474, 3.99355 17.6161, 3.63458 17.6161, 3.20749 17.6161, 2.82505 17.5371, 2.48842 17.3779, 2.15178 17.2199, 1.88614 16.9754, 1.69091 16.6451, 1.50256 16.2913, 1.41153 15.9008, 1.41725 15.4726 L 1.41725 15.3993 C 1.42985 14.9539, 1.48653 14.5114, 1.58729 14.0711, 1.68805 13.6503, 1.83461 13.1866, 2.0264 12.6793, 2.21819 12.1727, 2.40197 11.6809, 2.57773 11.204, 2.76666 10.6979, 2.86112 10.2822, 2.86112 9.95819, 2.86112 9.68396, 2.7449 9.54655, 2.51189 9.54598, 2.29834 9.54655, 2.10484 9.60781, 1.93194 9.72976, 1.75904 9.85227, 1.6016 10.0217, 1.46019 10.2381, 1.31878 10.4551, 1.19111 10.7116, 1.07775 11.0076, 0.964397 11.3042, 0.870505 11.6196, 0.794934 11.9551, 0.72566 12.1206, 0.609441 12.2059, 0.445703 12.2116 L 0.228722 12.2116 C 0.0775793 12.2122, 0.00200802 12.136, 0.00200802 11.9826 L 0.00200802 11.9185 C 0.0901745 11.583, 0.206967 11.24, 0.351239 10.8885, 0.496084 10.5376, 0.678715 10.2187, 0.898558 9.93128, 1.11897 9.64445, 1.37088 9.40629, 1.6537 9.21679, 1.93652 9.02786, 2.26056 8.93282, 2.62525 8.93225, 2.94013 8.93282, 3.20863 9.00038, 3.43191 9.13435, 3.65519 9.26889, 3.82523 9.44751, 3.94145 9.67021, 4.05824 9.89349, 4.12236 10.1448, 4.13496 10.4254 L 4.13496 10.4895 C 4.13496 10.7528, 4.08171 11.0242, 3.97408 11.3047, 3.79202 11.7816, 3.61168 12.2688, 3.43191 12.7663, 3.25272 13.2644, 3.11303 13.7116, 3.01226 14.1083, 2.9115 14.5056, 2.84223 14.8989, 2.80444 15.2894, 2.77925 15.3936, 2.76379 15.507, 2.7575 15.6283, 2.7575 15.8671, 2.79872 16.1024, 2.88001 16.3337, 2.93669 16.542, 3.04032 16.7069, 3.19146 16.8289, 3.3426 16.9514, 3.5218 17.0121, 3.72905 17.0115, 4.13209 17.0121, 4.48419 16.893, 4.7859 16.6548, 5.08818 16.4167, 5.35211 16.1052, 5.57825 15.7199 L 7.09712 9.81162 C 7.15437 9.58606, 7.26887 9.42003, 7.44177 9.31297, 7.61467 9.20648, 7.78929 9.15267, 7.96505 9.15209, 8.14768 9.15267, 8.29882 9.20763, 8.41847 9.31698, 8.50034 9.39713, 8.54099 9.50361, 8.54099 9.63758, 8.54099 9.70514, 8.53469 9.77556, 8.5221 9.84827 Z" stroke="none" fill="#000000" />
			<polyline points="-6.566 -1.9698 6.566 -1.9698" fill="none" stroke="#000000" stroke-width="0.750400007" stroke-linecap="round" stroke-linejoin="round" transform="matrix(1 0 0 1 20.5454 11.7703)" />
			<polyline points="-6.566 1.9698 6.566 1.9698" fill="none" stroke="#000000" stroke-width="0.750400007" stroke-linecap="round" stroke-linejoin="round" transform="matrix(1 0 0 1 20.5454 11.7703)" />
			<path d="M 41.8949 5.61627 C 41.8261 5.88535, 41.6847 6.09203, 41.4706 6.23516, 41.2565 6.37886, 41.0458 6.45042, 40.838 6.44985, 40.6119 6.45042, 40.4298 6.37084, 40.2913 6.21168, 40.1848 6.10863, 40.1281 5.97695, 40.1212 5.8178, 40.1212 5.75139, 40.1338 5.66551, 40.159 5.56131, 40.2283 5.33002, 40.3462 5.14682, 40.5128 5.01228, 40.68 4.87831, 40.8042 4.80445, 40.8855 4.79186, 40.7664 4.65789, 40.5306 4.59091, 40.1779 4.59034, 39.9706 4.59091, 39.7726 4.77125, 39.5836 5.13078, 39.5458 5.18632, 39.5035 5.30998, 39.4565 5.50234, 39.4096 5.69471, 39.3558 5.93001, 39.2962 6.20768, 39.2367 6.48592, 39.1749 6.78019, 39.1119 7.09163, 39.0489 7.40308, 38.9928 7.7025, 38.9424 7.98875 L 38.7065 9.15209, 40.4327 9.15209 C 40.5964 9.15267, 40.6777 9.23511, 40.6777 9.39942 L 40.6777 9.46354, 40.6399 9.62842 C 40.5712 9.8122, 40.4487 9.9038, 40.2724 9.90323 L 38.5554 9.90323, 37.6497 14.465 C 37.5621 14.8932, 37.4676 15.3495, 37.3669 15.835, 37.2661 16.3205, 37.1562 16.8031, 37.0365 17.2823, 36.9174 17.7615, 36.7806 18.2149, 36.6266 18.642, 36.4726 19.0697, 36.3077 19.4424, 36.1314 19.7596, 36.0249 19.937, 35.9035 20.1157, 35.7684 20.2954, 35.6333 20.4758, 35.4839 20.6361, 35.3201 20.7763, 35.1564 20.9172, 34.9789 21.0345, 34.7871 21.129, 34.5954 21.224, 34.3892 21.271, 34.1688 21.271, 33.9244 21.271, 33.6948 21.2315, 33.4807 21.1519, 33.2671 21.0729, 33.0834 20.963, 32.9288 20.8221, 32.7753 20.6819, 32.6603 20.5107, 32.5841 20.3092, 32.5601 20.1992, 32.5475 20.0893, 32.5469 19.9794, 32.5475 19.8758, 32.5601 19.763, 32.5841 19.6405, 32.654 19.3657, 32.7988 19.1596, 33.0187 19.0222, 33.2391 18.8848, 33.4561 18.8161, 33.669 18.8161, 33.89 18.8161, 34.0721 18.8893, 34.2164 19.0359, 34.3234 19.1401, 34.3767 19.2712, 34.3767 19.4298, 34.3767 19.4973, 34.3641 19.5826, 34.3389 19.6863, 34.2702 19.9187, 34.1505 20.1048, 33.981 20.245, 33.8116 20.3859, 33.6856 20.462, 33.6032 20.474, 33.7108 20.5966, 33.9307 20.6572, 34.2633 20.6572, 34.427 20.6572, 34.5799 20.5656, 34.7213 20.3824, 34.8627 20.1992, 34.9772 19.9491, 35.0654 19.6313, 35.2852 18.8865, 35.485 18.0609, 35.6642 17.1541, 35.844 16.2472, 36.0215 15.3633, 36.1972 14.5016 L 37.131 9.90323, 35.7163 9.90323 C 35.6219 9.9038, 35.5526 9.87346, 35.5085 9.81162, 35.4707 9.77556, 35.4518 9.72976, 35.4518 9.67422, 35.4518 9.63815, 35.4616 9.60438, 35.4805 9.57346 L 35.5085 9.43606 C 35.528 9.35705, 35.5703 9.29007, 35.6362 9.23511, 35.7026 9.18015, 35.773 9.15267, 35.848 9.15209 L 37.2821 9.15209, 37.4991 8.00707 C 37.5369 7.76948, 37.5873 7.50727, 37.6503 7.21987, 37.7132 6.93305, 37.7882 6.64736, 37.8764 6.3634, 37.9646 6.07943, 38.0636 5.80635, 38.1735 5.54356, 38.2835 5.28135, 38.4174 5.05808, 38.5743 4.8743, 38.801 4.61209, 39.0621 4.3974, 39.3575 4.22908, 39.6529 4.06134, 39.9643 3.97718, 40.2913 3.97661, 40.5363 3.97718, 40.7704 4.01382, 40.9937 4.0871, 41.217 4.16038, 41.4059 4.26744, 41.5599 4.40771, 41.7145 4.54854, 41.8227 4.71629, 41.8851 4.91094, 41.9298 5.00941, 41.9515 5.1222, 41.9515 5.24987, 41.9515 5.35406, 41.9326 5.47658, 41.8949 5.61627 Z" stroke="none" fill="#000000" />
			<path d="M 61.1202 10.462 C 61.0515 10.7374, 60.9113 10.9435, 60.7006 11.0809, 60.4899 11.2183, 60.2781 11.287, 60.0639 11.2864, 59.8441 11.287, 59.6615 11.2166, 59.5166 11.0757, 59.4101 10.9727, 59.3535 10.8381, 59.3466 10.6727, 59.3466 10.6063, 59.3592 10.5204, 59.3844 10.4162, 59.4542 10.1849, 59.5613 10.0091, 59.7056 9.89006, 59.8504 9.77098, 59.9512 9.70228, 60.0073 9.68338, 59.8882 9.59235, 59.6426 9.54655, 59.2716 9.54598, 58.9447 9.54655, 58.6521 9.71602, 58.3945 10.0549, 58.1369 10.3939, 57.9445 10.8015, 57.8186 11.2772 L 56.9506 14.6299 C 56.863 14.9665, 56.7972 15.2871, 56.7526 15.5917, 56.7279 15.6959, 56.7153 15.7875, 56.7153 15.8665, 56.7153 16.0566, 56.7468 16.2363, 56.8092 16.4069, 56.8722 16.5907, 56.9667 16.7373, 57.0926 16.8472, 57.2186 16.9571, 57.3789 17.0121, 57.5735 17.0115, 57.8254 17.0121, 58.0676 16.9468, 58.3 16.8151, 58.5325 16.684, 58.7466 16.5071, 58.9413 16.2838, 59.1365 16.0611, 59.3094 15.8018, 59.4605 15.5052, 59.6117 15.2092, 59.7307 14.9052, 59.8183 14.5932, 59.8561 14.4352, 59.9632 14.3556, 60.1395 14.3551 L 60.3559 14.3551 C 60.5197 14.3556, 60.6015 14.4169, 60.6015 14.5383, 60.6015 14.5755, 60.5924 14.6093, 60.5729 14.639, 60.4853 15.006, 60.3422 15.3678, 60.1441 15.7251, 59.946 16.0823, 59.7153 16.3983, 59.4508 16.6732, 59.1869 16.948, 58.8869 17.1741, 58.5502 17.3504, 58.2136 17.5279, 57.8535 17.6161, 57.4699 17.6161, 57.08 17.6161, 56.7434 17.5325, 56.4606 17.3642, 56.1778 17.197, 55.9482 16.9783, 55.7718 16.7092, 55.7157 16.6428, 55.6717 16.5741, 55.6402 16.5037, 55.6087 16.4338, 55.5989 16.423, 55.6115 16.4711, 55.4604 16.7218, 55.2217 16.9754, 54.8948 17.2319, 54.5679 17.4884, 54.1906 17.6161, 53.7623 17.6161, 53.5236 17.6161, 53.2877 17.5857, 53.0553 17.5245, 52.8228 17.4638, 52.6196 17.3693, 52.4467 17.2411, 52.2738 17.1128, 52.1433 16.9571, 52.0551 16.7733, 52.0116 16.664, 51.9898 16.5449, 51.9893 16.4161, 51.9898 16.3251, 52.0024 16.218, 52.0271 16.0955, 52.0963 15.8213, 52.2377 15.6152, 52.4513 15.4778, 52.6654 15.3404, 52.879 15.2717, 53.0931 15.2711, 53.3129 15.2717, 53.5018 15.3421, 53.6587 15.4818, 53.7658 15.586, 53.819 15.7205, 53.819 15.8848, 53.819 15.9707, 53.8064 16.0566, 53.7812 16.1413, 53.7251 16.3554, 53.6226 16.5283, 53.4749 16.6594, 53.3272 16.7911, 53.2219 16.8627, 53.1589 16.8741, 53.2786 16.9726, 53.5207 17.0184, 53.8854 17.0115, 54.2123 17.0121, 54.5077 16.8415, 54.7717 16.4991, 55.0362 16.1573, 55.228 15.748, 55.347 15.2711 L 56.2247 11.9001 C 56.3129 11.583, 56.3816 11.2715, 56.4319 10.9658, 56.4445 10.8685, 56.4508 10.7769, 56.4508 10.691, 56.4508 10.5021, 56.4228 10.3252, 56.3661 10.1597, 56.3031 9.97708, 56.2058 9.82937, 56.0736 9.71602, 55.9419 9.60323, 55.7781 9.54655, 55.5829 9.54598, 55.3316 9.54655, 55.0883 9.61239, 54.8524 9.7435, 54.6165 9.87517, 54.4013 10.0504, 54.206 10.2702, 54.0114 10.49, 53.8385 10.7454, 53.6873 11.0351, 53.5362 11.3253, 53.4263 11.6322, 53.357 11.9551, 53.2883 12.1206, 53.1715 12.2059, 53.0078 12.2116 L 52.8005 12.2116 C 52.6494 12.2122, 52.5738 12.136, 52.5738 11.9826 L 52.5738 11.9185 C 52.6683 11.5406, 52.8131 11.1725, 53.0078 10.8152, 53.203 10.458, 53.436 10.142, 53.7062 9.86716, 53.9765 9.59235, 54.2787 9.36793, 54.6119 9.19389, 54.9451 9.01984, 55.307 8.93282, 55.6963 8.93225, 56.0741 8.93282, 56.4073 9.01526, 56.6964 9.18015, 56.9856 9.34503, 57.2214 9.56487, 57.4035 9.8391, 57.4413 9.90666, 57.4762 9.9788, 57.5077 10.0549, 57.5392 10.1317, 57.5483 10.1511, 57.5357 10.1139, 57.6932 9.84597, 57.9354 9.58205, 58.2623 9.32213, 58.5892 9.06278, 58.963 8.93282, 59.3844 8.93225, 59.6237 8.93282, 59.8613 8.96202, 60.0972 9.01984, 60.333 9.07824, 60.5368 9.17099, 60.7097 9.29923, 60.8826 9.42747, 61.0103 9.58606, 61.0922 9.77498, 61.1363 9.88548, 61.158 10.0109, 61.158 10.1506, 61.158 10.2427, 61.1454 10.3463, 61.1202 10.462 Z" stroke="none" fill="#000000" />
			<path d="M 1.5467 8.95625 C -4.56906 4.92594, -4.56906 -4.92594, 1.5467 -8.95625 L 2.50721 -8.95625 C -3.00823 -4.92594, -3.00823 4.92594, 2.50721 8.95625" stroke="none" fill="#000000" transform="matrix(1 0 -0 1 48.5224 11.7703)" />
			<path d="M 1.5467 8.95625 C -4.56906 4.92594, -4.56906 -4.92594, 1.5467 -8.95625 L 2.50721 -8.95625 C -3.00823 -4.92594, -3.00823 4.92594, 2.50721 8.95625" stroke="none" fill="#000000" transform="matrix(-1 1.50996e-007 -1.50996e-007 -1 64.6323 11.7703)" />
			<rect />
		</svg>
	</g>
	<g transform="matrix(1 0 -0 1 68.9058 206.415)">
		<svg width="29.9820557" height="32.8723297">
			<defs />
			<path d="M 8.45998 14.0579 C 8.38498 14.3579, 8.30025 14.6785, 8.20578 15.0203, 8.11132 15.3627, 7.98537 15.6798, 7.82793 15.973, 7.67106 16.2661, 7.47297 16.5197, 7.23366 16.7332, 6.99493 16.9468, 6.69607 17.0533, 6.33711 17.0533, 5.85964 17.0533, 5.4772 16.921, 5.19095 16.6554, 4.90469 16.3897, 4.73981 16.1195, 4.69573 15.8441, 4.48161 16.0892, 4.16272 16.352, 3.73792 16.6325, 3.31369 16.913, 2.86541 17.0533, 2.39366 17.0533, 1.89673 17.0533, 1.47994 16.9285, 1.1433 16.6783, 0.806667 16.4281, 0.544458 16.1132, 0.35553 15.7342, 0.129388 15.2831, 0.00973374 14.7976, -0.00286144 14.2778 L -0.00286144 14.1403 C -0.00286144 13.6583, 0.0635496 13.1762, 0.195227 12.693, 0.34637 12.1623, 0.557053 11.6373, 0.827278 11.1181, 1.09807 10.5994, 1.45647 10.1167, 1.90302 9.67019, 2.26828 9.30436, 2.68507 8.99635, 3.15338 8.74559, 3.6217 8.4954, 4.09803 8.37002, 4.58237 8.36945, 5.00374 8.37002, 5.34667 8.48166, 5.6106 8.70437, 5.8751 8.92765, 6.0417 9.112, 6.11097 9.25799 L 6.07318 9.41371 C 6.11727 9.18814, 6.22261 9.01753, 6.38921 8.90131, 6.55638 8.78566, 6.7247 8.72727, 6.89416 8.7267, 7.08882 8.72727, 7.25255 8.78509, 7.3848 8.90074, 7.46667 8.99291, 7.51076 9.11486, 7.51648 9.26715, 7.51648 9.32268, 7.51018 9.38394, 7.49759 9.45035 L 6.13902 14.7449 C 6.07605 14.9957, 6.03196 15.231, 6.00677 15.4503, 5.99475 15.5607, 5.98845 15.6615, 5.98845 15.7525, 5.98845 15.8327, 5.99475 15.918, 6.00677 16.009, 6.02624 16.1562, 6.07032 16.2661, 6.13902 16.3394, 6.2083 16.4126, 6.30562 16.4493, 6.43158 16.4487, 6.56383 16.4493, 6.68806 16.3943, 6.80428 16.2844, 6.92107 16.1745, 7.02813 16.0113, 7.12546 15.7943, 7.22278 15.5779, 7.31553 15.318, 7.4037 15.0157, 7.49186 14.7134, 7.58289 14.3854, 7.67678 14.0304, 7.71457 13.8724, 7.82163 13.7928, 7.99796 13.7923 L 8.21494 13.7923 C 8.37868 13.7928, 8.45998 13.8598, 8.45998 13.9938 L 8.45998 14.0579 Z M 5.76174 10.687 C 5.73655 10.5776, 5.71479 10.4631, 5.6959 10.344, 5.67701 10.225, 5.64838 10.1076, 5.6106 9.9908, 5.51041 9.70454, 5.36728 9.46466, 5.18179 9.2723, 4.99629 9.07994, 4.76156 8.98375, 4.47874 8.98318, 4.21482 8.98375, 3.95375 9.07879, 3.69555 9.26772, 3.43792 9.45722, 3.20205 9.70111, 2.98793 9.99996, 2.68622 10.4219, 2.46008 10.8604, 2.30893 11.315, 2.15779 11.7702, 2.01924 12.2448, 1.89329 12.7388, 1.76791 13.2278, 1.66429 13.7012, 1.58185 14.1587, 1.53204 14.3911, 1.50685 14.611, 1.50685 14.8182, 1.50685 15.0386, 1.53204 15.2522, 1.58185 15.4594, 1.6391 15.7468, 1.741 15.9838, 1.88871 16.1699, 2.03642 16.3565, 2.24252 16.4493, 2.50645 16.4487, 2.79614 16.4493, 3.08697 16.3485, 3.37953 16.147, 3.67208 15.9455, 3.94402 15.6981, 4.19535 15.4045, 4.29611 15.2831, 4.3923 15.1657, 4.48332 15.0524, 4.57493 14.9396, 4.65508 14.8188, 4.72378 14.69 L 5.76174 10.687 Z" stroke="none" fill="#000000" />
			<rect />
		</svg>
	</g>
	<path d="M 0 234.644 L 0 -234.644" fill="none" stroke="#000000" stroke-width="4.26666689" stroke-linecap="round" stroke-linejoin="round" transform="matrix(0.3125 0 0 0.3125 193.796 133.43)" />
	<g transform="matrix(1 0 -0 1 189.211 206.415)">
		<svg width="33.1395264" height="32.8723297">
			<defs />
			<path d="M 9.12724 9.8992 C 9.05854 10.1746, 8.91827 10.3807, 8.70759 10.5181, 8.4969 10.6555, 8.28508 10.7242, 8.07096 10.7236, 7.85111 10.7242, 7.66848 10.6538, 7.52364 10.5129, 7.41715 10.4099, 7.36047 10.2753, 7.3536 10.1099, 7.3536 10.0435, 7.3662 9.95759, 7.39139 9.8534, 7.46123 9.6221, 7.56829 9.44634, 7.71257 9.32726, 7.85741 9.20818, 7.95817 9.13948, 8.01428 9.12058, 7.8952 9.02955, 7.64959 8.98375, 7.2786 8.98318, 6.9517 8.98375, 6.65915 9.15322, 6.40152 9.49214, 6.14389 9.83107, 5.95153 10.2387, 5.82557 10.7144 L 4.95765 14.0671 C 4.87006 14.4037, 4.80422 14.7243, 4.75956 15.0289, 4.73494 15.1331, 4.72235 15.2247, 4.72235 15.3037, 4.72235 15.4938, 4.75384 15.6735, 4.81624 15.8441, 4.87922 16.0279, 4.97368 16.1745, 5.09963 16.2844, 5.22558 16.3943, 5.38589 16.4493, 5.58054 16.4487, 5.83244 16.4493, 6.07462 16.384, 6.30705 16.2523, 6.53949 16.1212, 6.75361 15.9443, 6.94827 15.721, 7.14349 15.4983, 7.31639 15.239, 7.46753 14.9424, 7.61867 14.6464, 7.73776 14.3424, 7.82535 14.0304, 7.86314 13.8724, 7.9702 13.7928, 8.14653 13.7923 L 8.36294 13.7923 C 8.52667 13.7928, 8.60854 13.8541, 8.60854 13.9755, 8.60854 14.0127, 8.59938 14.0465, 8.57992 14.0762, 8.49232 14.4432, 8.3492 14.805, 8.15111 15.1623, 7.95302 15.5195, 7.7223 15.8356, 7.4578 16.1104, 7.19387 16.3852, 6.89388 16.6113, 6.55724 16.7876, 6.22061 16.9651, 5.8605 17.0533, 5.47692 17.0533, 5.08704 17.0533, 4.7504 16.9697, 4.46758 16.8014, 4.18476 16.6342, 3.95518 16.4155, 3.77885 16.1464, 3.72275 16.08, 3.67866 16.0113, 3.64717 15.9409, 3.61569 15.871, 3.60595 15.8602, 3.61855 15.9083, 3.46741 16.159, 3.22867 16.4126, 2.90177 16.6691, 2.57486 16.9256, 2.19758 17.0533, 1.76934 17.0533, 1.53061 17.0533, 1.29473 17.0229, 1.06229 16.9617, 0.829854 16.901, 0.626613 16.8065, 0.453715 16.6783, 0.280817 16.55, 0.150285 16.3943, 0.0621184 16.2105, 0.0186076 16.1012, -0.00314775 15.9821, -0.00372026 15.8533, -0.00314775 15.7623, 0.00944747 15.6552, 0.0340654 15.5327, 0.103339 15.2585, 0.244749 15.0524, 0.458295 14.915, 0.672414 14.7776, 0.88596 14.7089, 1.10008 14.7083, 1.31992 14.7089, 1.50885 14.7793, 1.66572 14.919, 1.77278 15.0232, 1.82602 15.1577, 1.82602 15.322, 1.82602 15.4079, 1.81343 15.4938, 1.78824 15.5785, 1.73213 15.7926, 1.62965 15.9655, 1.48194 16.0966, 1.33423 16.2283, 1.22889 16.2999, 1.16592 16.3113, 1.28557 16.4098, 1.52774 16.4556, 1.89243 16.4487, 2.21933 16.4493, 2.51475 16.2787, 2.77868 15.9363, 3.04318 15.5945, 3.23497 15.1852, 3.35405 14.7083 L 4.23171 11.3373 C 4.31987 11.0202, 4.38857 10.7087, 4.43896 10.403, 4.45155 10.3057, 4.45785 10.2141, 4.45785 10.1282, 4.45785 9.93927, 4.42979 9.76237, 4.37312 9.59691, 4.31014 9.41428, 4.21281 9.26657, 4.08056 9.15322, 3.94889 9.04043, 3.78515 8.98375, 3.58992 8.98318, 3.33859 8.98375, 3.09527 9.04959, 2.8594 9.1807, 2.62353 9.31237, 2.40826 9.48756, 2.21304 9.70741, 2.01838 9.92725, 1.84549 10.1826, 1.69434 10.4723, 1.5432 10.7625, 1.43328 11.0694, 1.36401 11.3923, 1.2953 11.5578, 1.17851 11.6431, 1.01477 11.6488 L 0.807526 11.6488 C 0.656383 11.6494, 0.580812 11.5732, 0.580812 11.4198 L 0.580812 11.3557 C 0.675276 10.9778, 0.820121 10.6097, 1.01477 10.2524, 1.21 9.89519, 1.44301 9.57916, 1.71324 9.30436, 1.98346 9.02955, 2.28575 8.80513, 2.61895 8.63109, 2.95215 8.45704, 3.31397 8.37002, 3.70328 8.36945, 4.08114 8.37002, 4.41434 8.45246, 4.70345 8.61735, 4.99257 8.78223, 5.22845 9.00207, 5.4105 9.27631, 5.44829 9.34386, 5.48321 9.416, 5.5147 9.49214, 5.54619 9.56886, 5.55535 9.58832, 5.54275 9.55111, 5.70019 9.28318, 5.94237 9.01925, 6.26927 8.75933, 6.59617 8.49998, 6.97002 8.37002, 7.39139 8.36945, 7.6307 8.37002, 7.86829 8.39922, 8.10416 8.45704, 8.34004 8.51544, 8.54385 8.60819, 8.71675 8.73643, 8.88965 8.86467, 9.01731 9.02326, 9.09918 9.21218, 9.14327 9.32268, 9.16502 9.44806, 9.16502 9.58775, 9.16502 9.67992, 9.15243 9.78355, 9.12724 9.8992 Z" stroke="none" fill="#000000" />
			<rect />
		</svg>
	</g>
	<g transform="matrix(1 0 -0 1 189.454 34.6372)">
		<svg width="62.9920158" height="48.0957298">
			<defs />
			<path d="M 6.67479 17.0441 L 6.67479 15.9541 C 6.47326 16.2048, 6.15094 16.4481, 5.70782 16.6829, 5.2647 16.9176, 4.76947 17.035, 4.22216 17.035, 3.64392 17.035, 3.0966 16.9222, 2.58077 16.6966, 2.06551 16.471, 1.61895 16.159, 1.2411 15.7617, 0.832326 15.3346, 0.522598 14.8617, 0.311915 14.3424, 0.101231 13.8237, -0.00411087 13.277, -0.00411087 12.7022, -0.00411087 12.1285, 0.106384 11.5761, 0.326227 11.0448, 0.546643 10.5135, 0.867249 10.0435, 1.28862 9.63412, 1.70998 9.22535, 2.19089 8.90933, 2.73134 8.68605, 3.27236 8.46334, 3.83857 8.3517, 4.4294 8.35113, 4.93894 8.3517, 5.40324 8.46048, 5.82118 8.67689, 6.23911 8.89387, 6.53624 9.11486, 6.71257 9.34043 L 6.71257 5.5298 C 6.71257 5.37179, 6.70513 5.21778, 6.6891 5.06778, 6.67307 4.91836, 6.61181 4.80386, 6.50475 4.72371, 6.39827 4.651, 6.22823 4.60863, 5.99579 4.59604, 5.76335 4.58401, 5.50858 4.57772, 5.23149 4.57714 L 5.23149 3.83517, 8.20282 3.61533, 8.20282 15.1205 C 8.20282 15.2796, 8.21083 15.4325, 8.22629 15.5791, 8.24232 15.7256, 8.30529 15.8355, 8.41522 15.9088, 8.52514 15.9821, 8.69689 16.0268, 8.92933 16.0417, 9.16177 16.0571, 9.41997 16.0646, 9.70279 16.064 L 9.70279 16.8151 Z M 6.67479 10.3755 C 6.46754 9.96675, 6.17155 9.62954, 5.78797 9.3639, 5.40439 9.09825, 4.96413 8.96543, 4.46719 8.96486, 4.07101 8.96543, 3.70003 9.05875, 3.35423 9.24482, 3.00844 9.43145, 2.71016 9.68908, 2.45825 10.0183, 2.18173 10.3916, 2.00425 10.8083, 1.92525 11.2692, 1.84681 11.7307, 1.80731 12.2081, 1.80731 12.7022, 1.80731 13.1974, 1.84223 13.6709, 1.91093 14.1226, 1.98021 14.5749, 2.14395 14.9991, 2.40158 15.3953, 2.61569 15.7073, 2.88764 15.9581, 3.2174 16.147, 3.54774 16.3365, 3.89525 16.431, 4.25994 16.4304, 4.80726 16.431, 5.29103 16.2798, 5.7124 15.9775, 6.13377 15.6752, 6.45494 15.2888, 6.67479 14.8182 Z" stroke="none" fill="#000000" />
			<path d="M 19.0964 9.8992 C 19.0277 10.1746, 18.8874 10.3807, 18.6768 10.5181, 18.4661 10.6555, 18.2542 10.7242, 18.0401 10.7236, 17.8203 10.7242, 17.6377 10.6538, 17.4928 10.5129, 17.3863 10.4099, 17.3296 10.2753, 17.3228 10.1099, 17.3228 10.0435, 17.3354 9.95759, 17.3606 9.8534, 17.4298 9.6221, 17.5369 9.44634, 17.6812 9.32726, 17.826 9.20818, 17.9268 9.13948, 17.9834 9.12058, 17.8644 9.02955, 17.6188 8.98375, 17.2472 8.98318, 16.9203 8.98375, 16.6277 9.15322, 16.3701 9.49214, 16.1125 9.83107, 15.9201 10.2387, 15.7942 10.7144 L 14.9262 14.0671 C 14.8381 14.4037, 14.7722 14.7243, 14.7282 15.0289, 14.703 15.1331, 14.6904 15.2247, 14.6904 15.3037, 14.6904 15.4938, 14.7219 15.6735, 14.7848 15.8441, 14.8478 16.0279, 14.9423 16.1745, 15.0682 16.2844, 15.1942 16.3943, 15.3545 16.4493, 15.5491 16.4487, 15.801 16.4493, 16.0432 16.384, 16.2757 16.2523, 16.5087 16.1212, 16.7228 15.9443, 16.9174 15.721, 17.1121 15.4983, 17.285 15.239, 17.4361 14.9424, 17.5873 14.6464, 17.7064 14.3424, 17.7945 14.0304, 17.8323 13.8724, 17.9394 13.7928, 18.1151 13.7923 L 18.3321 13.7923 C 18.4958 13.7928, 18.5777 13.8541, 18.5777 13.9755, 18.5777 14.0127, 18.5686 14.0465, 18.5497 14.0762, 18.4615 14.4432, 18.3184 14.805, 18.1203 15.1623, 17.9222 15.5195, 17.6915 15.8356, 17.427 16.1104, 17.1625 16.3852, 16.8625 16.6113, 16.5258 16.7876, 16.1892 16.9651, 15.8291 17.0533, 15.4455 17.0533, 15.0556 17.0533, 14.719 16.9697, 14.4362 16.8014, 14.1534 16.6342, 13.9232 16.4155, 13.7469 16.1464, 13.6908 16.08, 13.6467 16.0113, 13.6152 15.9409, 13.5837 15.871, 13.574 15.8602, 13.5866 15.9083, 13.436 16.159, 13.1973 16.4126, 12.8698 16.6691, 12.5429 16.9256, 12.1656 17.0533, 11.7374 17.0533, 11.4986 17.0533, 11.2628 17.0229, 11.0297 16.9617, 10.7973 16.901, 10.5941 16.8065, 10.4212 16.6783, 10.2483 16.55, 10.1177 16.3943, 10.0296 16.2105, 9.98606 16.1012, 9.9643 15.9821, 9.96373 15.8533, 9.9643 15.7623, 9.9769 15.6552, 10.0015 15.5327, 10.0708 15.2585, 10.2122 15.0524, 10.4263 14.915, 10.6404 14.7776, 10.854 14.7089, 11.0675 14.7083, 11.2879 14.7089, 11.4769 14.7793, 11.6337 14.919, 11.7408 15.0232, 11.794 15.1577, 11.794 15.322, 11.794 15.4079, 11.7814 15.4938, 11.7563 15.5785, 11.7002 15.7926, 11.5977 15.9655, 11.45 16.0966, 11.3023 16.2283, 11.1963 16.2999, 11.1334 16.3113, 11.253 16.4098, 11.4952 16.4556, 11.8599 16.4487, 12.1874 16.4493, 12.4828 16.2787, 12.7467 15.9363, 13.0112 15.5945, 13.203 15.1852, 13.3226 14.7083 L 14.1997 11.3373 C 14.2879 11.0202, 14.3572 10.7087, 14.4076 10.403, 14.4201 10.3057, 14.4264 10.2141, 14.4264 10.1282, 14.4264 9.93927, 14.3984 9.76237, 14.3411 9.59691, 14.2787 9.41428, 14.1814 9.26657, 14.0492 9.15322, 13.9169 9.04043, 13.7532 8.98375, 13.5585 8.98318, 13.3066 8.98375, 13.0627 9.04959, 12.8269 9.1807, 12.591 9.31237, 12.3757 9.48756, 12.1811 9.70741, 11.9864 9.92725, 11.8135 10.1826, 11.6624 10.4723, 11.5112 10.7625, 11.4013 11.0694, 11.3315 11.3923, 11.2628 11.5578, 11.1465 11.6431, 10.9828 11.6488 L 10.775 11.6488 C 10.6244 11.6494, 10.5488 11.5732, 10.5488 11.4198 L 10.5488 11.3557 C 10.6433 10.9778, 10.7881 10.6097, 10.9828 10.2524, 11.1775 9.89519, 11.4105 9.57916, 11.6807 9.30436, 11.9515 9.02955, 12.2538 8.80513, 12.587 8.63109, 12.9202 8.45704, 13.282 8.37002, 13.6713 8.36945, 14.0492 8.37002, 14.3824 8.45246, 14.6715 8.61735, 14.9612 8.78223, 15.197 9.00207, 15.3791 9.27631, 15.4169 9.34386, 15.4518 9.416, 15.4833 9.49214, 15.5148 9.56886, 15.5239 9.58832, 15.5114 9.55111, 15.6688 9.28318, 15.911 9.01925, 16.2379 8.75933, 16.5653 8.49998, 16.9392 8.37002, 17.3606 8.36945, 17.5999 8.37002, 17.8369 8.39922, 18.0728 8.45704, 18.3086 8.51544, 18.5136 8.60819, 18.6865 8.73643, 18.8594 8.86467, 18.9871 9.02326, 19.0684 9.21218, 19.1124 9.32268, 19.1342 9.44806, 19.1342 9.58775, 19.1342 9.67992, 19.1216 9.78355, 19.0964 9.8992 Z" stroke="none" fill="#000000" />
			<rect />
		</svg>
	</g>
	<path d="M 0 234.644 L 0 -234.644" fill="none" stroke="#000000" stroke-width="4.26666689" stroke-linecap="round" stroke-linejoin="round" transform="matrix(0.3125 0 0 0.3125 203.796 133.43)" />
	<g transform="matrix(1 0 -0 1 114.682 139.892)">
		<svg width="122.984032" height="59.8723221">
			<defs />
			<path d="M 12.0453 10.92 C 11.9011 11.5131, 11.5976 12.0507, 11.135 12.5328, 10.673 13.0154, 10.1492 13.4242, 9.56407 13.7597, 8.95434 14.0963, 8.33031 14.3556, 7.69139 14.5388, 7.05304 14.722, 6.43816 14.8383, 5.84676 14.8864 L 5.53531 16.0772 C 5.51012 16.1693, 5.49753 16.2426, 5.49753 16.297, 5.49753 16.4195, 5.53245 16.4928, 5.60173 16.5169, 5.76546 16.5724, 6.03397 16.6079, 6.40839 16.6228, 6.78281 16.6382, 7.15494 16.6457, 7.52593 16.6451, 7.70226 16.6457, 7.79043 16.719, 7.79043 16.8649, 7.79043 16.9022, 7.78413 16.9417, 7.77154 16.984 L 7.73375 17.1214 C 7.69597 17.3115, 7.57688 17.4054, 7.37536 17.4054, 6.38148 17.3688, 5.38131 17.3504, 4.37484 17.3504, 3.36837 17.3504, 2.35903 17.3688, 1.34626 17.4054, 1.25237 17.4054, 1.1831 17.3779, 1.13901 17.323, 1.09493 17.2806, 1.0726 17.2348, 1.0726 17.1856, 1.0726 17.1495, 1.0789 17.1128, 1.09149 17.0756 L 1.12928 16.9382 C 1.16707 16.7373, 1.29016 16.6394, 1.4974 16.6451, 1.86839 16.6457, 2.24453 16.6382, 2.62468 16.6228, 3.00539 16.6079, 3.29623 16.5695, 3.49775 16.5077, 3.66149 16.4596, 3.77427 16.3039, 3.83725 16.0405 L 4.13896 14.868 C 3.61683 14.8257, 3.09013 14.7117, 2.55884 14.5251, 2.02755 14.339, 1.55065 14.078, 1.12928 13.7419, 0.707913 13.4064, 0.39704 12.9971, 0.195516 12.5139, 0.0632666 12.2276, -0.00314456 11.919, -0.00314456 11.5887, -0.00314456 11.3574, 0.0283435 11.1221, 0.0913196 10.8834, 0.242462 10.304, 0.54761 9.77098, 1.00676 9.28549, 1.46592 8.8, 1.98804 8.39237, 2.57315 8.06261, 3.15825 7.73284, 3.76053 7.47636, 4.37999 7.29315, 4.99945 7.10995, 5.59886 6.99717, 6.1771 6.95366 L 6.48854 5.70787 C 6.51373 5.63517, 6.52633 5.56475, 6.52633 5.49719, 6.52633 5.38154, 6.49198 5.30826, 6.42213 5.27735, 6.25267 5.22296, 5.98187 5.18975, 5.61089 5.17716, 5.2399 5.16514, 4.86891 5.15884, 4.49735 5.15827, 4.40346 5.15884, 4.33419 5.13136, 4.29011 5.07582, 4.24602 5.03346, 4.22369 4.98479, 4.22369 4.92926, 4.22369 4.89319, 4.23343 4.85942, 4.25232 4.8285 L 4.28037 4.6911 C 4.29984 4.60637, 4.34564 4.53766, 4.41778 4.48557, 4.48991 4.43404, 4.5672 4.40771, 4.6485 4.40713, 5.64237 4.43232, 6.63969 4.44435, 7.63929 4.44377, 8.64576 4.44435, 9.65853 4.43232, 10.6776 4.40713, 10.8539 4.40771, 10.9415 4.49015, 10.9415 4.65446 L 10.9415 4.72774, 10.8848 4.88346 C 10.8471 5.06724, 10.7343 5.15884, 10.5453 5.15827, 10.1744 5.15884, 9.79421 5.16514, 9.40376 5.17716, 9.01388 5.18975, 8.72763 5.22296, 8.545 5.27735, 8.38183 5.3449, 8.25932 5.50692, 8.17745 5.76284 L 7.87516 6.93534 C 8.42878 6.97885, 8.98068 7.08877, 9.53086 7.26567, 10.0816 7.44315, 10.574 7.71166, 11.0079 8.07119, 11.4167 8.40783, 11.7282 8.82004, 11.9417 9.30782, 12.0614 9.60781, 12.1209 9.91296, 12.1209 10.2238, 12.1209 10.4563, 12.0957 10.6887, 12.0453 10.92 Z M 10.0169 10.8834 C 10.124 10.4746, 10.1772 10.087, 10.1772 9.72002 L 10.1772 9.50934 C 10.152 9.09484, 10.0043 8.74046, 9.7341 8.44676, 9.48907 8.16623, 9.18564 7.95727, 8.82381 7.81986, 8.46198 7.68246, 8.09901 7.59258, 7.73375 7.54907 L 5.98817 14.2543 C 6.34713 14.2182, 6.74675 14.1301, 7.18701 13.9892, 7.62726 13.849, 8.04233 13.6383, 8.43221 13.3566, 8.87247 13.052, 9.21655 12.6782, 9.46502 12.2351, 9.71349 11.7925, 9.89784 11.3419, 10.0169 10.8834 Z M 6.03569 7.55823 C 5.68989 7.60746, 5.30574 7.7025, 4.88437 7.84276, 4.463 7.9836, 4.06053 8.18799, 3.67695 8.45592, 3.24928 8.76164, 2.90635 9.1332, 2.64872 9.56945, 2.39109 10.0063, 2.20503 10.4563, 2.09167 10.92, 1.99091 11.287, 1.94053 11.6534, 1.94053 12.0192, 1.94053 12.0994, 1.94682 12.1847, 1.95942 12.2757, 1.98461 12.7097, 2.12945 13.0732, 2.39338 13.3658, 2.64529 13.6348, 2.94127 13.8381, 3.28077 13.9755, 3.62027 14.1129, 3.95977 14.2028, 4.29927 14.2451 L 6.03569 7.55823 Z" stroke="none" fill="#000000" />
			<path d="M 31.2879 10.462 C 31.2192 10.7374, 31.0789 10.9435, 30.8682 11.0809, 30.6575 11.2183, 30.4457 11.287, 30.2316 11.2864, 30.0117 11.287, 29.8291 11.2166, 29.6843 11.0757, 29.5778 10.9727, 29.5211 10.8381, 29.5142 10.6727, 29.5142 10.6063, 29.5268 10.5204, 29.552 10.4162, 29.6219 10.1849, 29.7289 10.0091, 29.8732 9.89006, 30.018 9.77098, 30.1188 9.70228, 30.1749 9.68338, 30.0558 9.59235, 29.8102 9.54655, 29.4392 9.54598, 29.1123 9.54655, 28.8198 9.71602, 28.5622 10.0549, 28.3045 10.3939, 28.1122 10.8015, 27.9862 11.2772 L 27.1183 14.6299 C 27.0307 14.9665, 26.9649 15.2871, 26.9202 15.5917, 26.8956 15.6959, 26.883 15.7875, 26.883 15.8665, 26.883 16.0566, 26.9145 16.2363, 26.9769 16.4069, 27.0399 16.5907, 27.1343 16.7373, 27.2603 16.8472, 27.3862 16.9571, 27.5465 17.0121, 27.7412 17.0115, 27.9931 17.0121, 28.2353 16.9468, 28.4677 16.8151, 28.7001 16.684, 28.9142 16.5071, 29.1089 16.2838, 29.3041 16.0611, 29.477 15.8018, 29.6282 15.5052, 29.7793 15.2092, 29.8984 14.9052, 29.986 14.5932, 30.0238 14.4352, 30.1308 14.3556, 30.3072 14.3551 L 30.5236 14.3551 C 30.6873 14.3556, 30.7692 14.4169, 30.7692 14.5383, 30.7692 14.5755, 30.76 14.6093, 30.7406 14.639, 30.653 15.006, 30.5098 15.3678, 30.3117 15.7251, 30.1137 16.0823, 29.8829 16.3983, 29.6184 16.6732, 29.3545 16.948, 29.0545 17.1741, 28.7179 17.3504, 28.3812 17.5279, 28.0211 17.6161, 27.6376 17.6161, 27.2477 17.6161, 26.911 17.5325, 26.6282 17.3642, 26.3454 17.197, 26.1158 16.9783, 25.9395 16.7092, 25.8834 16.6428, 25.8393 16.5741, 25.8078 16.5037, 25.7763 16.4338, 25.7666 16.423, 25.7792 16.4711, 25.628 16.7218, 25.3893 16.9754, 25.0624 17.2319, 24.7355 17.4884, 24.3582 17.6161, 23.93 17.6161, 23.6912 17.6161, 23.4554 17.5857, 23.2229 17.5245, 22.9905 17.4638, 22.7872 17.3693, 22.6144 17.2411, 22.4415 17.1128, 22.3109 16.9571, 22.2228 16.7733, 22.1792 16.664, 22.1575 16.5449, 22.1569 16.4161, 22.1575 16.3251, 22.1701 16.218, 22.1947 16.0955, 22.264 15.8213, 22.4054 15.6152, 22.6189 15.4778, 22.833 15.3404, 23.0466 15.2717, 23.2607 15.2711, 23.4806 15.2717, 23.6695 15.3421, 23.8264 15.4818, 23.9334 15.586, 23.9867 15.7205, 23.9867 15.8848, 23.9867 15.9707, 23.9741 16.0566, 23.9489 16.1413, 23.8928 16.3554, 23.7903 16.5283, 23.6426 16.6594, 23.4949 16.7911, 23.3895 16.8627, 23.3266 16.8741, 23.4462 16.9726, 23.6884 17.0184, 24.0531 17.0115, 24.38 17.0121, 24.6754 16.8415, 24.9393 16.4991, 25.2038 16.1573, 25.3956 15.748, 25.5147 15.2711 L 26.3923 11.9001 C 26.4805 11.583, 26.5492 11.2715, 26.5996 10.9658, 26.6122 10.8685, 26.6185 10.7769, 26.6185 10.691, 26.6185 10.5021, 26.5904 10.3252, 26.5338 10.1597, 26.4708 9.97708, 26.3734 9.82937, 26.2412 9.71602, 26.1095 9.60323, 25.9458 9.54655, 25.7506 9.54598, 25.4992 9.54655, 25.2559 9.61239, 25.02 9.7435, 24.7842 9.87517, 24.5689 10.0504, 24.3737 10.2702, 24.179 10.49, 24.0061 10.7454, 23.855 11.0351, 23.7038 11.3253, 23.5939 11.6322, 23.5246 11.9551, 23.4559 12.1206, 23.3391 12.2059, 23.1754 12.2116 L 22.9682 12.2116 C 22.817 12.2122, 22.7414 12.136, 22.7414 11.9826 L 22.7414 11.9185 C 22.8359 11.5406, 22.9808 11.1725, 23.1754 10.8152, 23.3706 10.458, 23.6036 10.142, 23.8739 9.86716, 24.1441 9.59235, 24.4464 9.36793, 24.7796 9.19389, 25.1128 9.01984, 25.4746 8.93282, 25.8639 8.93225, 26.2418 8.93282, 26.575 9.01526, 26.8641 9.18015, 27.1532 9.34503, 27.3891 9.56487, 27.5711 9.8391, 27.6089 9.90666, 27.6438 9.9788, 27.6753 10.0549, 27.7068 10.1317, 27.716 10.1511, 27.7034 10.1139, 27.8608 9.84597, 28.103 9.58205, 28.4299 9.32213, 28.7568 9.06278, 29.1307 8.93282, 29.552 8.93225, 29.7913 8.93282, 30.0289 8.96202, 30.2648 9.01984, 30.5007 9.07824, 30.7045 9.17099, 30.8774 9.29923, 31.0503 9.42747, 31.178 9.58606, 31.2598 9.77498, 31.3039 9.88548, 31.3257 10.0109, 31.3257 10.1506, 31.3257 10.2427, 31.3131 10.3463, 31.2879 10.462 Z" stroke="none" fill="#000000" />
			<path d="M 1.5467 8.95625 C -4.56906 4.92594, -4.56906 -4.92594, 1.5467 -8.95625 L 2.50721 -8.95625 C -3.00823 -4.92594, -3.00823 4.92594, 2.50721 8.95625" stroke="none" fill="#000000" transform="matrix(1 0 -0 1 18.69 11.7703)" />
			<path d="M 1.5467 8.95625 C -4.56906 4.92594, -4.56906 -4.92594, 1.5467 -8.95625 L 2.50721 -8.95625 C -3.00823 -4.92594, -3.00823 4.92594, 2.50721 8.95625" stroke="none" fill="#000000" transform="matrix(-1 1.50996e-007 -1.50996e-007 -1 34.8 11.7703)" />
			<rect />
		</svg>
	</g>
	<path d="M 15.8329 0 L -15.8339 0" fill="none" stroke="#000000" stroke-width="3.20000005" stroke-linecap="round" stroke-linejoin="round" marker-end="url(#CustomMarker-03)" transform="matrix(0.3125 0 0 0.3125 208.466 66.1455)" />
	<path d="M -15.8333 0 L 15.8339 0" fill="none" stroke="#000000" stroke-width="3.20000005" stroke-linecap="round" stroke-linejoin="round" marker-end="url(#CustomMarker-04)" transform="matrix(0.3125 0 0 0.3125 189.455 66.1455)" />
	<path d="M -193.395 0 L 193.395 0" fill="none" stroke="#000000" stroke-width="3.84000015" stroke-linecap="round" stroke-linejoin="round" marker-start="url(#CustomMarker-05)" marker-end="url(#CustomMarker-06)" transform="matrix(2.35931e-008 0.3125 -0.3125 2.35931e-008 210.645 146.326)" />
	<path d="M -193.395 -15.1797 L -193.395 15.1797" fill="none" stroke="#000000" stroke-width="3.20000005" stroke-linecap="round" stroke-linejoin="round" transform="matrix(2.35931e-008 0.3125 -0.3125 2.35931e-008 210.645 146.326)" />
	<path d="M 193.395 -15.1797 L 193.395 15.1797" fill="none" stroke="#000000" stroke-width="3.20000005" stroke-linecap="round" stroke-linejoin="round" transform="matrix(2.35931e-008 0.3125 -0.3125 2.35931e-008 210.645 146.326)" />
	<g transform="matrix(1 0 -0 1 219.458 122.879)">
		<svg width="245.83847" height="123.063797">
			<defs />
			<polyline points="0.3752 24.0095 52.8105 24.0095" fill="none" stroke="#000000" stroke-width="0.750400007" stroke-linecap="round" stroke-linejoin="round" />
			<path d="M 9.01979 17.6069 L 9.01979 16.5169 C 8.81826 16.7676, 8.49594 17.0109, 8.05282 17.2457, 7.6097 17.4804, 7.11447 17.5978, 6.56715 17.5978, 5.98892 17.5978, 5.4416 17.485, 4.92577 17.2594, 4.41051 17.0338, 3.96395 16.7218, 3.5861 16.3245, 3.17733 15.8974, 2.8676 15.4245, 2.65691 14.9052, 2.44623 14.3866, 2.34089 13.8398, 2.34089 13.265, 2.34089 12.6913, 2.45138 12.1389, 2.67123 11.6076, 2.89164 11.0763, 3.21225 10.6063, 3.63362 10.1969, 4.05498 9.78815, 4.53589 9.47213, 5.07634 9.24885, 5.61736 9.02614, 6.18357 8.9145, 6.7744 8.91393, 7.28394 8.9145, 7.74824 9.02328, 8.16617 9.23969, 8.58411 9.45667, 8.88124 9.67766, 9.05757 9.90323 L 9.05757 6.0926 C 9.05757 5.93459, 9.05013 5.78058, 9.0341 5.63059, 9.01807 5.48116, 8.95681 5.36666, 8.84975 5.28651, 8.74326 5.2138, 8.57323 5.17143, 8.34079 5.15884, 8.10835 5.14682, 7.85358 5.14052, 7.57649 5.13995 L 7.57649 4.39797, 10.5478 4.17813, 10.5478 15.6833 C 10.5478 15.8424, 10.5558 15.9953, 10.5713 16.1419, 10.5873 16.2884, 10.6503 16.3983, 10.7602 16.4716, 10.8701 16.5449, 11.0419 16.5896, 11.2743 16.6045, 11.5068 16.6199, 11.765 16.6274, 12.0478 16.6268 L 12.0478 17.3779 Z M 9.01979 10.9383 C 8.81254 10.5296, 8.51655 10.1923, 8.13297 9.9267, 7.74939 9.66105, 7.30913 9.52823, 6.81219 9.52766, 6.41601 9.52823, 6.04503 9.62155, 5.69923 9.80762, 5.35343 9.99426, 5.05516 10.2519, 4.80325 10.5811, 4.52673 10.9544, 4.34925 11.3711, 4.27025 11.832, 4.19181 12.2935, 4.15231 12.7709, 4.15231 13.265, 4.15231 13.7602, 4.18723 14.2337, 4.25593 14.6854, 4.32521 15.1377, 4.48895 15.5619, 4.74657 15.9581, 4.96069 16.2701, 5.23264 16.5209, 5.5624 16.7098, 5.89274 16.8993, 6.24025 16.9938, 6.60494 16.9932, 7.15226 16.9938, 7.63603 16.8426, 8.0574 16.5403, 8.47876 16.238, 8.79994 15.8516, 9.01979 15.381 Z" stroke="none" fill="#000000" />
			<path d="M 24.9566 10.92 C 24.8123 11.5131, 24.5089 12.0507, 24.0463 12.5328, 23.5843 13.0154, 23.0604 13.4242, 22.4753 13.7597, 21.8656 14.0963, 21.2416 14.3556, 20.6027 14.5388, 19.9643 14.722, 19.3494 14.8383, 18.758 14.8864 L 18.4466 16.0772 C 18.4214 16.1693, 18.4088 16.2426, 18.4088 16.297, 18.4088 16.4195, 18.4437 16.4928, 18.513 16.5169, 18.6767 16.5724, 18.9452 16.6079, 19.3197 16.6228, 19.6941 16.6382, 20.0662 16.6457, 20.4372 16.6451, 20.6135 16.6457, 20.7017 16.719, 20.7017 16.8649, 20.7017 16.9022, 20.6954 16.9417, 20.6828 16.984 L 20.645 17.1214 C 20.6072 17.3115, 20.4882 17.4054, 20.2866 17.4054, 19.2928 17.3688, 18.2926 17.3504, 17.2861 17.3504, 16.2796 17.3504, 15.2703 17.3688, 14.2575 17.4054, 14.1636 17.4054, 14.0944 17.3779, 14.0503 17.323, 14.0062 17.2806, 13.9839 17.2348, 13.9839 17.1856, 13.9839 17.1495, 13.9902 17.1128, 14.0028 17.0756 L 14.0405 16.9382 C 14.0783 16.7373, 14.2014 16.6394, 14.4087 16.6451, 14.7797 16.6457, 15.1558 16.6382, 15.5359 16.6228, 15.9167 16.6079, 16.2075 16.5695, 16.409 16.5077, 16.5728 16.4596, 16.6855 16.3039, 16.7485 16.0405 L 17.0502 14.868 C 16.5281 14.8257, 16.0014 14.7117, 15.4701 14.5251, 14.9388 14.339, 14.4619 14.078, 14.0405 13.7419, 13.6192 13.4064, 13.3083 12.9971, 13.1068 12.5139, 12.9745 12.2276, 12.9081 11.919, 12.9081 11.5887, 12.9081 11.3574, 12.9396 11.1221, 13.0026 10.8834, 13.1537 10.304, 13.4589 9.77098, 13.918 9.28549, 14.3772 8.8, 14.8993 8.39237, 15.4844 8.06261, 16.0695 7.73284, 16.6718 7.47636, 17.2913 7.29315, 17.9107 7.10995, 18.5101 6.99717, 19.0884 6.95366 L 19.3998 5.70787 C 19.425 5.63517, 19.4376 5.56475, 19.4376 5.49719, 19.4376 5.38154, 19.4032 5.30826, 19.3334 5.27735, 19.1639 5.22296, 18.8931 5.18975, 18.5222 5.17716, 18.1512 5.16514, 17.7802 5.15884, 17.4086 5.15827, 17.3147 5.15884, 17.2455 5.13136, 17.2014 5.07582, 17.1573 5.03346, 17.135 4.98479, 17.135 4.92926, 17.135 4.89319, 17.1447 4.85942, 17.1636 4.8285 L 17.1916 4.6911 C 17.2111 4.60637, 17.2569 4.53766, 17.329 4.48557, 17.4012 4.43404, 17.4785 4.40771, 17.5598 4.40713, 18.5536 4.43232, 19.551 4.44435, 20.5506 4.44377, 21.557 4.44435, 22.5698 4.43232, 23.5889 4.40713, 23.7652 4.40771, 23.8528 4.49015, 23.8528 4.65446 L 23.8528 4.72774, 23.7961 4.88346 C 23.7583 5.06724, 23.6455 5.15884, 23.4566 5.15827, 23.0856 5.15884, 22.7055 5.16514, 22.315 5.17716, 21.9252 5.18975, 21.6389 5.22296, 21.4563 5.27735, 21.2931 5.3449, 21.1706 5.50692, 21.0887 5.76284 L 20.7864 6.93534 C 21.34 6.97885, 21.8919 7.08877, 22.4421 7.26567, 22.9929 7.44315, 23.4852 7.71166, 23.9192 8.07119, 24.328 8.40783, 24.6394 8.82004, 24.853 9.30782, 24.9726 9.60781, 25.0322 9.91296, 25.0322 10.2238, 25.0322 10.4563, 25.007 10.6887, 24.9566 10.92 Z M 22.9282 10.8834 C 23.0352 10.4746, 23.0885 10.087, 23.0885 9.72002 L 23.0885 9.50934 C 23.0633 9.09484, 22.9156 8.74046, 22.6454 8.44676, 22.4003 8.16623, 22.0969 7.95727, 21.7351 7.81986, 21.3733 7.68246, 21.0103 7.59258, 20.645 7.54907 L 18.8994 14.2543 C 19.2584 14.2182, 19.658 14.1301, 20.0983 13.9892, 20.5385 13.849, 20.9536 13.6383, 21.3435 13.3566, 21.7837 13.052, 22.1278 12.6782, 22.3763 12.2351, 22.6248 11.7925, 22.8091 11.3419, 22.9282 10.8834 Z M 18.947 7.55823 C 18.6012 7.60746, 18.217 7.7025, 17.7956 7.84276, 17.3743 7.9836, 16.9718 8.18799, 16.5882 8.45592, 16.1606 8.76164, 15.8176 9.1332, 15.56 9.56945, 15.3024 10.0063, 15.1163 10.4563, 15.0029 10.92, 14.9022 11.287, 14.8518 11.6534, 14.8518 12.0192, 14.8518 12.0994, 14.8581 12.1847, 14.8707 12.2757, 14.8959 12.7097, 15.0407 13.0732, 15.3047 13.3658, 15.5566 13.6348, 15.8525 13.8381, 16.192 13.9755, 16.5315 14.1129, 16.871 14.2028, 17.2105 14.2451 L 18.947 7.55823 Z" stroke="none" fill="#000000" />
			<path d="M 44.512 10.462 C 44.4433 10.7374, 44.303 10.9435, 44.0923 11.0809, 43.8817 11.2183, 43.6698 11.287, 43.4557 11.2864, 43.2359 11.287, 43.0532 11.2166, 42.9084 11.0757, 42.8019 10.9727, 42.7452 10.8381, 42.7384 10.6727, 42.7384 10.6063, 42.751 10.5204, 42.7761 10.4162, 42.8454 10.1849, 42.9525 10.0091, 43.0967 9.89006, 43.2416 9.77098, 43.3424 9.70228, 43.399 9.68338, 43.28 9.59235, 43.0343 9.54655, 42.6628 9.54598, 42.3359 9.54655, 42.0433 9.71602, 41.7857 10.0549, 41.5281 10.3939, 41.3357 10.8015, 41.2098 11.2772 L 40.3418 14.6299 C 40.2537 14.9665, 40.1878 15.2871, 40.1437 15.5917, 40.1186 15.6959, 40.106 15.7875, 40.106 15.8665, 40.106 16.0566, 40.1374 16.2363, 40.2004 16.4069, 40.2634 16.5907, 40.3579 16.7373, 40.4838 16.8472, 40.6098 16.9571, 40.7701 17.0121, 40.9647 17.0115, 41.2166 17.0121, 41.4588 16.9468, 41.6912 16.8151, 41.9242 16.684, 42.1384 16.5071, 42.333 16.2838, 42.5277 16.0611, 42.7006 15.8018, 42.8517 15.5052, 43.0029 15.2092, 43.1219 14.9052, 43.2101 14.5932, 43.2479 14.4352, 43.3549 14.3556, 43.5307 14.3551 L 43.7477 14.3551 C 43.9114 14.3556, 43.9933 14.4169, 43.9933 14.5383, 43.9933 14.5755, 43.9841 14.6093, 43.9652 14.639, 43.8771 15.006, 43.734 15.3678, 43.5359 15.7251, 43.3378 16.0823, 43.1071 16.3983, 42.8426 16.6732, 42.5781 16.948, 42.2781 17.1741, 41.9414 17.3504, 41.6048 17.5279, 41.2447 17.6161, 40.8611 17.6161, 40.4712 17.6161, 40.1346 17.5325, 39.8518 17.3642, 39.5689 17.197, 39.3388 16.9783, 39.1625 16.7092, 39.1064 16.6428, 39.0623 16.5741, 39.0308 16.5037, 38.9993 16.4338, 38.9896 16.423, 39.0022 16.4711, 38.8516 16.7218, 38.6129 16.9754, 38.2854 17.2319, 37.9585 17.4884, 37.5812 17.6161, 37.153 17.6161, 36.9142 17.6161, 36.6783 17.5857, 36.4453 17.5245, 36.2129 17.4638, 36.0097 17.3693, 35.8368 17.2411, 35.6639 17.1128, 35.5333 16.9571, 35.4452 16.7733, 35.4016 16.664, 35.3799 16.5449, 35.3793 16.4161, 35.3799 16.3251, 35.3925 16.218, 35.4171 16.0955, 35.4864 15.8213, 35.6278 15.6152, 35.8419 15.4778, 36.056 15.3404, 36.2696 15.2717, 36.4831 15.2711, 36.7035 15.2717, 36.8925 15.3421, 37.0493 15.4818, 37.1564 15.586, 37.2096 15.7205, 37.2096 15.8848, 37.2096 15.9707, 37.197 16.0566, 37.1718 16.1413, 37.1157 16.3554, 37.0133 16.5283, 36.8656 16.6594, 36.7178 16.7911, 36.6119 16.8627, 36.549 16.8741, 36.6686 16.9726, 36.9108 17.0184, 37.2755 17.0115, 37.6029 17.0121, 37.8984 16.8415, 38.1623 16.4991, 38.4268 16.1573, 38.6186 15.748, 38.7382 15.2711 L 39.6153 11.9001 C 39.7035 11.583, 39.7728 11.2715, 39.8231 10.9658, 39.8357 10.8685, 39.842 10.7769, 39.842 10.691, 39.842 10.5021, 39.814 10.3252, 39.7567 10.1597, 39.6943 9.97708, 39.597 9.82937, 39.4647 9.71602, 39.3325 9.60323, 39.1688 9.54655, 38.9741 9.54598, 38.7222 9.54655, 38.4783 9.61239, 38.2424 9.7435, 38.0066 9.87517, 37.7913 10.0504, 37.5966 10.2702, 37.402 10.49, 37.2291 10.7454, 37.078 11.0351, 36.9268 11.3253, 36.8169 11.6322, 36.747 11.9551, 36.6783 12.1206, 36.5621 12.2059, 36.3984 12.2116 L 36.1906 12.2116 C 36.04 12.2122, 35.9644 12.136, 35.9644 11.9826 L 35.9644 11.9185 C 36.0589 11.5406, 36.2037 11.1725, 36.3984 10.8152, 36.593 10.458, 36.826 10.142, 37.0963 9.86716, 37.3671 9.59235, 37.6694 9.36793, 38.0026 9.19389, 38.3358 9.01984, 38.6976 8.93282, 39.0869 8.93225, 39.4647 8.93282, 39.7979 9.01526, 40.0871 9.18015, 40.3768 9.34503, 40.6126 9.56487, 40.7947 9.8391, 40.8325 9.90666, 40.8674 9.9788, 40.8989 10.0549, 40.9304 10.1317, 40.9395 10.1511, 40.9269 10.1139, 41.0844 9.84597, 41.3265 9.58205, 41.6535 9.32213, 41.9809 9.06278, 42.3548 8.93282, 42.7761 8.93225, 43.0155 8.93282, 43.2525 8.96202, 43.4883 9.01984, 43.7242 9.07824, 43.9292 9.17099, 44.1021 9.29923, 44.275 9.42747, 44.4026 9.58606, 44.4839 9.77498, 44.528 9.88548, 44.5498 10.0109, 44.5498 10.1506, 44.5498 10.2427, 44.5372 10.3463, 44.512 10.462 Z" stroke="none" fill="#000000" />
			<path d="M 1.5467 8.95625 C -4.56906 4.92594, -4.56906 -4.92594, 1.5467 -8.95625 L 2.50721 -8.95625 C -3.00823 -4.92594, -3.00823 4.92594, 2.50721 8.95625" stroke="none" fill="#000000" transform="matrix(1 0 -0 1 31.915 11.7703)" />
			<path d="M 1.5467 8.95625 C -4.56906 4.92594, -4.56906 -4.92594, 1.5467 -8.95625 L 2.50721 -8.95625 C -3.00823 -4.92594, -3.00823 4.92594, 2.50721 8.95625" stroke="none" fill="#000000" transform="matrix(-1 1.50996e-007 -1.50996e-007 -1 48.0267 11.7703)" />
			<path d="M 23.9135 41.5226 L 23.9135 40.4326 C 23.712 40.6833, 23.3896 40.9266, 22.9465 41.1614, 22.5034 41.3961, 22.0082 41.5135, 21.4609 41.5135, 20.8826 41.5135, 20.3353 41.4007, 19.8195 41.1751, 19.3042 40.9495, 18.8577 40.6375, 18.4798 40.2402, 18.071 39.8131, 17.7613 39.3402, 17.5506 38.8209, 17.3399 38.3022, 17.2346 37.7555, 17.2346 37.1807, 17.2346 36.607, 17.3451 36.0546, 17.5649 35.5233, 17.7853 34.992, 18.106 34.522, 18.5273 34.1126, 18.9487 33.7038, 19.4296 33.3878, 19.97 33.1645, 20.5111 32.9418, 21.0773 32.8302, 21.6681 32.8296, 22.1776 32.8302, 22.6419 32.939, 23.0599 33.1554, 23.4778 33.3724, 23.7749 33.5934, 23.9513 33.8189 L 23.9513 30.0083 C 23.9513 29.8503, 23.9438 29.6963, 23.9278 29.5463, 23.9118 29.3969, 23.8505 29.2824, 23.7435 29.2022, 23.637 29.1295, 23.4669 29.0871, 23.2345 29.0745, 23.0021 29.0625, 22.7473 29.0562, 22.4702 29.0556 L 22.4702 28.3137, 25.4415 28.0938, 25.4415 39.599 C 25.4415 39.7581, 25.4495 39.911, 25.465 40.0576, 25.481 40.2041, 25.544 40.314, 25.6539 40.3873, 25.7638 40.4606, 25.9356 40.5053, 26.168 40.5201, 26.4005 40.5356, 26.6587 40.543, 26.9415 40.5425 L 26.9415 41.2936 Z M 23.9135 34.854 C 23.7062 34.4452, 23.4103 34.108, 23.0267 33.8424, 22.6431 33.5768, 22.2028 33.4439, 21.7059 33.4434, 21.3097 33.4439, 20.9387 33.5372, 20.5929 33.7233, 20.2471 33.91, 19.9489 34.1676, 19.697 34.4968, 19.4204 34.87, 19.243 35.2868, 19.1639 35.7477, 19.0855 36.2092, 19.046 36.6866, 19.046 37.1807, 19.046 37.6759, 19.0809 38.1494, 19.1496 38.6011, 19.2189 39.0534, 19.3826 39.4776, 19.6403 39.8738, 19.8544 40.1858, 20.1263 40.4366, 20.4561 40.6255, 20.7864 40.815, 21.134 40.9095, 21.4986 40.9089, 22.046 40.9095, 22.5297 40.7583, 22.9511 40.456, 23.3725 40.1537, 23.6936 39.7673, 23.9135 39.2967 Z" stroke="none" fill="#000000" />
			<path d="M 36.3351 34.3777 C 36.2664 34.6531, 36.1261 34.8592, 35.9155 34.9966, 35.7048 35.134, 35.4929 35.2027, 35.2788 35.2021, 35.059 35.2027, 34.8764 35.1323, 34.7315 34.9914, 34.625 34.8884, 34.5683 34.7538, 34.5615 34.5884, 34.5615 34.522, 34.5741 34.4361, 34.5993 34.3319, 34.6685 34.1006, 34.7756 33.9248, 34.9199 33.8058, 35.0647 33.6867, 35.1655 33.618, 35.2221 33.5991, 35.1031 33.5081, 34.8575 33.4622, 34.4859 33.4617, 34.159 33.4622, 33.8664 33.6317, 33.6088 33.9706, 33.3512 34.3096, 33.1588 34.7172, 33.0329 35.1929 L 32.1649 38.5456 C 32.0768 38.8822, 32.0109 39.2028, 31.9669 39.5074, 31.9417 39.6116, 31.9291 39.7032, 31.9291 39.7822, 31.9291 39.9723, 31.9606 40.152, 32.0235 40.3226, 32.0865 40.5064, 32.181 40.653, 32.3069 40.7629, 32.4329 40.8728, 32.5932 40.9278, 32.7878 40.9272, 33.0397 40.9278, 33.2819 40.8625, 33.5144 40.7308, 33.7474 40.5997, 33.9615 40.4228, 34.1561 40.1995, 34.3508 39.9768, 34.5237 39.7175, 34.6748 39.4209, 34.826 39.1249, 34.9451 38.8209, 35.0332 38.5089, 35.071 38.3509, 35.1781 38.2713, 35.3538 38.2708 L 35.5708 38.2708 C 35.7345 38.2713, 35.8164 38.3326, 35.8164 38.454, 35.8164 38.4912, 35.8073 38.525, 35.7884 38.5547, 35.7002 38.9217, 35.5571 39.2835, 35.359 39.6408, 35.1609 39.998, 34.9302 40.314, 34.6657 40.5889, 34.4012 40.8637, 34.1012 41.0898, 33.7645 41.2661, 33.4279 41.4436, 33.0678 41.5318, 32.6842 41.5318, 32.2943 41.5318, 31.9577 41.4482, 31.6749 41.2799, 31.3921 41.1127, 31.1619 40.894, 30.9856 40.6249, 30.9295 40.5585, 30.8854 40.4898, 30.8539 40.4194, 30.8224 40.3495, 30.8127 40.3387, 30.8253 40.3868, 30.6747 40.6375, 30.436 40.8911, 30.1085 41.1476, 29.7816 41.4041, 29.4043 41.5318, 28.9761 41.5318, 28.7373 41.5318, 28.5015 41.5014, 28.2684 41.4402, 28.036 41.3795, 27.8328 41.285, 27.6599 41.1568, 27.487 41.0285, 27.3564 40.8728, 27.2683 40.689, 27.2248 40.5797, 27.203 40.4606, 27.2024 40.3318, 27.203 40.2408, 27.2156 40.1337, 27.2402 40.0112, 27.3095 39.737, 27.4509 39.5309, 27.665 39.3935, 27.8791 39.2561, 28.0927 39.1873, 28.3062 39.1868, 28.5266 39.1873, 28.7156 39.2578, 28.8724 39.3975, 28.9795 39.5017, 29.0327 39.6362, 29.0327 39.8005, 29.0327 39.8864, 29.0202 39.9723, 28.995 40.057, 28.9389 40.2711, 28.8364 40.444, 28.6887 40.5751, 28.541 40.7068, 28.435 40.7784, 28.3721 40.7898, 28.4917 40.8883, 28.7339 40.9341, 29.0986 40.9272, 29.4261 40.9278, 29.7215 40.7572, 29.9854 40.4148, 30.2499 40.073, 30.4417 39.6637, 30.5613 39.1868 L 31.4384 35.8158 C 31.5266 35.4987, 31.5959 35.1872, 31.6463 34.8815, 31.6588 34.7842, 31.6651 34.6926, 31.6651 34.6067, 31.6651 34.4178, 31.6371 34.2409, 31.5798 34.0754, 31.5174 33.8928, 31.4201 33.7451, 31.2879 33.6317, 31.1556 33.5189, 30.9919 33.4622, 30.7972 33.4617, 30.5453 33.4622, 30.3014 33.5281, 30.0656 33.6592, 29.8297 33.7909, 29.6144 33.9661, 29.4198 34.1859, 29.2251 34.4057, 29.0522 34.6611, 28.9011 34.9508, 28.7499 35.241, 28.64 35.5479, 28.5702 35.8708, 28.5015 36.0363, 28.3852 36.1216, 28.2215 36.1273 L 28.0137 36.1273 C 27.8631 36.1279, 27.7875 36.0517, 27.7875 35.8983 L 27.7875 35.8342 C 27.882 35.4563, 28.0268 35.0882, 28.2215 34.7309, 28.4162 34.3737, 28.6492 34.0577, 28.9194 33.7829, 29.1902 33.5081, 29.4925 33.2836, 29.8257 33.1096, 30.1589 32.9355, 30.5207 32.8485, 30.91 32.8479, 31.2879 32.8485, 31.6211 32.931, 31.9102 33.0958, 32.1999 33.2607, 32.4357 33.4806, 32.6178 33.7548, 32.6556 33.8224, 32.6905 33.8945, 32.722 33.9706, 32.7535 34.0474, 32.7626 34.0668, 32.75 34.0296, 32.9075 33.7617, 33.1497 33.4977, 33.4766 33.2378, 33.804 32.9785, 34.1779 32.8485, 34.5993 32.8479, 34.8386 32.8485, 35.0756 32.8777, 35.3115 32.9355, 35.5473 32.9939, 35.7523 33.0867, 35.9252 33.2149, 36.0981 33.3432, 36.2258 33.5018, 36.3071 33.6907, 36.3511 33.8012, 36.3729 33.9266, 36.3729 34.0662, 36.3729 34.1584, 36.3603 34.262, 36.3351 34.3777 Z" stroke="none" fill="#000000" />
			<rect />
		</svg>
	</g>
</svg>
