<?xml version="1.0"?>
<svg xmlns="http://www.w3.org/2000/svg" xmlns:xlink="http://www.w3.org/1999/xlink" width="272.723358" height="221.087006">
	<defs>
		<marker id="CustomMarker-01" markerUnits="strokeWidth" markerWidth="15.000001" markerHeight="9" viewBox="-15 -4.5 15 9" orient="auto-start-reverse">
			<path d="M 0 -0 L -10 -3, -10 -0.5, -10 0.5, -10 3 Z" fill="#000000" stroke="#000000" stroke-linejoin="round" />
		</marker>
		<marker id="CustomMarker-02" markerUnits="strokeWidth" markerWidth="15.000001" markerHeight="9" viewBox="-15 -4.5 15 9" orient="auto-start-reverse">
			<path d="M 0 -0 L -10 -3, -10 -0.5, -10 0.5, -10 3 Z" fill="#000000" stroke="#000000" stroke-linejoin="round" />
		</marker>
	</defs>
	<path d="M -132.911 -84.1218 C -89.5612 86.728, 52.3885 83.328, 132.911 -86.728" stroke="none" fill="#FF1800" fill-opacity="0.392156839" transform="matrix(0.294118 0 -0 0.294118 178.81 187.079)" />
	<path d="M -132.911 -84.1218 C -89.5612 86.728, 52.3885 83.328, 132.911 -86.728" fill="none" stroke="#000000" stroke-width="4.53333378" stroke-linecap="round" stroke-linejoin="round" transform="matrix(0.294118 0 -0 0.294118 178.81 187.079)" />
	<path d="M -150.026 170.85 C -31.0251 -170.85, 49.7252 -170.85, 150.026 169.15" stroke="none" fill="#0088DB" fill-opacity="0.392156839" transform="matrix(0.294118 0 -0 0.294118 95.5932 111.587)" />
	<path d="M -150.026 170.85 C -31.0251 -170.85, 49.7252 -170.85, 150.026 169.15" fill="none" stroke="#000000" stroke-width="4.53333378" stroke-linecap="round" stroke-linejoin="round" transform="matrix(0.294118 0 -0 0.294118 95.5932 111.587)" />
	<path d="M -400.509 67.5979 L 400.509 67.5979" fill="none" stroke="#000000" stroke-width="4.53333378" stroke-linecap="round" stroke-linejoin="round" marker-end="url(#CustomMarker-01)" transform="matrix(0.294118 0 -0 0.294118 126.297 141.689)" />
	<path d="M -299.095 241.054 L -299.095 -241.054" fill="none" stroke="#000000" stroke-width="4.53333378" stroke-linecap="round" stroke-linejoin="round" marker-end="url(#CustomMarker-02)" transform="matrix(0.294118 0 -0 0.294118 126.297 141.689)" />
	<g transform="matrix(1 0 -0 1 87.6536 119.884)">
		<svg width="54.0936813" height="54.1276474">
			<defs />
			<path d="M 9.8841 7.99388 C 9.84631 8.16564, 9.75242 8.25094, 9.60128 8.25037, 9.58868 8.26296, 9.55719 8.26926, 9.50681 8.26869, 9.47532 8.26926, 9.45013 8.26296, 9.43124 8.25037 L 9.34651 8.25037 C 9.18277 8.25094, 9.1009 8.18968, 9.1009 8.06717 L 9.1009 8.00304 C 9.17647 7.55191, 9.21426 7.1334, 9.21426 6.7481 L 9.21426 6.40002 C 9.17647 5.93056, 9.07113 5.52579, 8.89823 5.18687, 8.72534 4.84794, 8.47229 4.58573, 8.13908 4.39909, 7.80588 4.21303, 7.38394 4.11971, 6.87441 4.11914, 6.579 4.11971, 6.27843 4.18383, 5.97328 4.31207, 5.66871 4.44032, 5.38417 4.61436, 5.11967 4.83363, 4.83055 5.07237, 4.59468 5.34259, 4.41205 5.64488, 4.22999 5.94716, 4.09774 6.25689, 4.0153 6.57406, 3.95289 6.80077, 3.91854 7.01718, 3.91167 7.22443, 3.91167 7.51183, 3.97465 7.78664, 4.1006 8.04884, 4.28323 8.4891, 4.61014 8.77021, 5.08188 8.89158 L 7.2517 9.49615 C 7.64787 9.61294, 7.98623 9.79786, 8.26618 10.0509, 8.54614 10.3045, 8.75682 10.604, 8.89823 10.9486, 9.04022 11.2938, 9.12323 11.6705, 9.14842 12.0793 L 9.14842 12.2442 C 9.14842 12.5992, 9.09804 12.9621, 8.99728 13.3343, 8.8656 13.8478, 8.65492 14.3424, 8.36523 14.8188, 8.07611 15.2951, 7.71772 15.7228, 7.28948 16.1006, 6.88071 16.4493, 6.43301 16.7287, 5.94523 16.9388, 5.45745 17.1495, 4.96853 17.2548, 4.47789 17.2548, 3.75481 17.2548, 3.13821 17.1392, 2.62868 16.9067, 2.11915 16.6754, 1.74186 16.3823, 1.49625 16.0273 L 0.562492 17.1357 C 0.481195 17.2153, 0.395891 17.2548, 0.307725 17.2548 L 0.251046 17.2548 C 0.0941787 17.2548, 0.00887477 17.1941, -0.0037204 17.0716, -0.0037204 17.035, 0.00601226 17.0018, 0.0243326 16.9708 L 1.11897 12.6839 C 1.15676 12.5133, 1.26725 12.4251, 1.44931 12.4182 L 1.65656 12.4182 C 1.73213 12.4188, 1.8014 12.4492, 1.86438 12.5098, 1.88957 12.5591, 1.90216 12.602, 1.90216 12.6381, 1.90216 12.6633, 1.89587 12.6936, 1.88327 12.7297, 1.76991 13.1699, 1.71324 13.5793, 1.71324 13.9571, 1.71324 14.5623, 1.86152 15.0753, 2.15693 15.4961, 2.62868 16.1745, 3.45309 16.5134, 4.62903 16.5128, 4.92444 16.5134, 5.22501 16.4447, 5.53016 16.3073, 5.83531 16.1699, 6.11984 15.985, 6.38377 15.7525, 6.67346 15.4846, 6.91678 15.1869, 7.11487 14.86, 7.31295 14.5337, 7.45952 14.1959, 7.55341 13.8472, 7.61638 13.5667, 7.64787 13.3045, 7.64787 13.0595, 7.64787 12.7549, 7.60722 12.4618, 7.52535 12.1801, 7.337 11.7106, 6.98777 11.4083, 6.47823 11.2732 L 4.33648 10.6686 C 3.95289 10.5656, 3.62256 10.3961, 3.34546 10.1608, 3.06894 9.9261, 2.85368 9.64672, 2.69967 9.32268, 2.54567 8.99921, 2.45578 8.64196, 2.43059 8.25037 L 2.43059 8.04884 C 2.43059 7.74427, 2.46838 7.42366, 2.54395 7.08703, 2.6762 6.59925, 2.88688 6.13208, 3.176 5.6861, 3.46569 5.24068, 3.82408 4.84622, 4.25117 4.50386, 4.65422 4.17467, 5.0962 3.91074, 5.5771 3.71208, 6.05859 3.514, 6.53491 3.41438, 7.00666 3.41381, 7.65474 3.41438, 8.18889 3.53518, 8.61026 3.7762, 9.03163 4.0178, 9.33678 4.30291, 9.5257 4.63211 L 10.4314 3.54205 C 10.4818 3.45732, 10.5637 3.41438, 10.6764 3.41381 L 10.7618 3.41381 C 10.9129 3.41438, 10.9879 3.48766, 10.9879 3.63365 L 10.9879 3.70693 Z" stroke="none" fill="#000000" />
			<path d="M 2.37267 3.19713 C 1.72472 3.17661, 1.09441 3.16635, 0.481416 3.16635, -0.131261 3.16635, -0.761571 3.17661, -1.40951 3.19713 L -1.40951 2.75598, -1.04499 2.75598 C -0.928927 2.7563, -0.819601 2.75469, -0.717648 2.75117, -0.615375 2.74796, -0.518552 2.7393, -0.426859 2.72552, -0.335166 2.71205, -0.255976 2.69827, -0.18929 2.68416, -0.132864 2.67422, -0.086376 2.6428, -0.0495062 2.58958, -0.012316 2.53668, 0.00595856 2.47769, 0.00595856 2.41229 L 0.00595856 -3.36887 C -0.169733 -3.28295, -0.386463 -3.21787, -0.643588 -3.17362, -0.900714 -3.12906, -1.18221 -3.10694, -1.4887 -3.10726 L -1.4887 -3.54328 C -1.06615 -3.54296, -0.675969 -3.59329, -0.318494 -3.69429, 0.0389807 -3.79496, 0.348044 -3.98411, 0.608376 -4.26144 L 0.772206 -4.26144 C 0.888265 -4.26112, 0.946294 -4.20469, 0.946294 -4.09216 L 0.946294 2.41229 C 0.946294 2.4809, 0.963928 2.54085, 0.999194 2.59215, 1.03446 2.64344, 1.08576 2.67422, 1.15244 2.68416, 1.20887 2.69827, 1.28133 2.71205, 1.36917 2.72552, 1.45702 2.7393, 1.55641 2.74796, 1.66734 2.75117, 1.77827 2.75469, 1.88663 2.7563, 1.99243 2.75598 L 2.37267 2.75598, 2.37267 3.19713 Z" stroke="none" fill="#000000" transform="matrix(1.12 0 0 1 13.4546 16.3063)" />
			<rect />
		</svg>
	</g>
	<g transform="matrix(1 0 -0 1 168.873 167.072)">
		<svg width="54.0936813" height="54.1276474">
			<defs />
			<path d="M 9.8841 7.99388 C 9.84631 8.16564, 9.75242 8.25094, 9.60128 8.25037, 9.58868 8.26296, 9.55719 8.26926, 9.50681 8.26869, 9.47532 8.26926, 9.45013 8.26296, 9.43124 8.25037 L 9.34651 8.25037 C 9.18277 8.25094, 9.1009 8.18968, 9.1009 8.06717 L 9.1009 8.00304 C 9.17647 7.55191, 9.21426 7.1334, 9.21426 6.7481 L 9.21426 6.40002 C 9.17647 5.93056, 9.07113 5.52579, 8.89823 5.18687, 8.72534 4.84794, 8.47229 4.58573, 8.13908 4.39909, 7.80588 4.21303, 7.38394 4.11971, 6.87441 4.11914, 6.579 4.11971, 6.27843 4.18383, 5.97328 4.31207, 5.66871 4.44032, 5.38417 4.61436, 5.11967 4.83363, 4.83055 5.07237, 4.59468 5.34259, 4.41205 5.64488, 4.22999 5.94716, 4.09774 6.25689, 4.0153 6.57406, 3.95289 6.80077, 3.91854 7.01718, 3.91167 7.22443, 3.91167 7.51183, 3.97465 7.78664, 4.1006 8.04884, 4.28323 8.4891, 4.61014 8.77021, 5.08188 8.89158 L 7.2517 9.49615 C 7.64787 9.61294, 7.98623 9.79786, 8.26618 10.0509, 8.54614 10.3045, 8.75682 10.604, 8.89823 10.9486, 9.04022 11.2938, 9.12323 11.6705, 9.14842 12.0793 L 9.14842 12.2442 C 9.14842 12.5992, 9.09804 12.9621, 8.99728 13.3343, 8.8656 13.8478, 8.65492 14.3424, 8.36523 14.8188, 8.07611 15.2951, 7.71772 15.7228, 7.28948 16.1006, 6.88071 16.4493, 6.43301 16.7287, 5.94523 16.9388, 5.45745 17.1495, 4.96853 17.2548, 4.47789 17.2548, 3.75481 17.2548, 3.13821 17.1392, 2.62868 16.9067, 2.11915 16.6754, 1.74186 16.3823, 1.49625 16.0273 L 0.562492 17.1357 C 0.481195 17.2153, 0.395891 17.2548, 0.307725 17.2548 L 0.251046 17.2548 C 0.0941787 17.2548, 0.00887477 17.1941, -0.0037204 17.0716, -0.0037204 17.035, 0.00601226 17.0018, 0.0243326 16.9708 L 1.11897 12.6839 C 1.15676 12.5133, 1.26725 12.4251, 1.44931 12.4182 L 1.65656 12.4182 C 1.73213 12.4188, 1.8014 12.4492, 1.86438 12.5098, 1.88957 12.5591, 1.90216 12.602, 1.90216 12.6381, 1.90216 12.6633, 1.89587 12.6936, 1.88327 12.7297, 1.76991 13.1699, 1.71324 13.5793, 1.71324 13.9571, 1.71324 14.5623, 1.86152 15.0753, 2.15693 15.4961, 2.62868 16.1745, 3.45309 16.5134, 4.62903 16.5128, 4.92444 16.5134, 5.22501 16.4447, 5.53016 16.3073, 5.83531 16.1699, 6.11984 15.985, 6.38377 15.7525, 6.67346 15.4846, 6.91678 15.1869, 7.11487 14.86, 7.31295 14.5337, 7.45952 14.1959, 7.55341 13.8472, 7.61638 13.5667, 7.64787 13.3045, 7.64787 13.0595, 7.64787 12.7549, 7.60722 12.4618, 7.52535 12.1801, 7.337 11.7106, 6.98777 11.4083, 6.47823 11.2732 L 4.33648 10.6686 C 3.95289 10.5656, 3.62256 10.3961, 3.34546 10.1608, 3.06894 9.9261, 2.85368 9.64672, 2.69967 9.32268, 2.54567 8.99921, 2.45578 8.64196, 2.43059 8.25037 L 2.43059 8.04884 C 2.43059 7.74427, 2.46838 7.42366, 2.54395 7.08703, 2.6762 6.59925, 2.88688 6.13208, 3.176 5.6861, 3.46569 5.24068, 3.82408 4.84622, 4.25117 4.50386, 4.65422 4.17467, 5.0962 3.91074, 5.5771 3.71208, 6.05859 3.514, 6.53491 3.41438, 7.00666 3.41381, 7.65474 3.41438, 8.18889 3.53518, 8.61026 3.7762, 9.03163 4.0178, 9.33678 4.30291, 9.5257 4.63211 L 10.4314 3.54205 C 10.4818 3.45732, 10.5637 3.41438, 10.6764 3.41381 L 10.7618 3.41381 C 10.9129 3.41438, 10.9879 3.48766, 10.9879 3.63365 L 10.9879 3.70693 Z" stroke="none" fill="#000000" />
			<path d="M 2.39138 3.19713 L -1.90858 3.19713, -1.90858 2.915 C -1.90858 2.8948, -1.898 2.86402, -1.87684 2.82266 L -0.149418 0.945196 C 0.0551279 0.71981, 0.261918 0.488975, 0.471594 0.253009, 0.68127 0.0170434, 0.868504 -0.224052, 1.03394 -0.470277, 1.19937 -0.716502, 1.33146 -0.970422, 1.4302 -1.23204, 1.52895 -1.49365, 1.578 -1.76809, 1.578 -2.05567, 1.578 -2.29805, 1.54658 -2.52472, 1.4831 -2.73503, 1.41962 -2.94535, 1.32825 -3.13002, 1.20835 -3.28904, 1.08844 -3.44806, 0.938716 -3.5763, 0.759177 -3.67377, 0.579638 -3.77123, 0.371886 -3.81996, 0.13592 -3.82028, -0.216105 -3.81996, -0.527092 -3.7148, -0.7964 -3.50449, -1.06571 -3.29417, -1.24461 -3.06237, -1.33277 -2.80974, -1.35009 -2.80268, -1.32187 -2.79915, -1.24813 -2.79948 L -1.15836 -2.79948 C -1.05256 -2.77511, -0.961191 -2.73824, -0.883605 -2.68887, -0.806018 -2.63917, -0.740935 -2.57088, -0.688036 -2.48368, -0.635136 -2.39647, -0.608846 -2.29132, -0.608846 -2.16852, -0.608846 -1.96302, -0.675532 -1.8056, -0.809545 -1.69627, -0.943558 -1.58663, -1.09328 -1.53212, -1.25871 -1.53244, -1.41709 -1.53212, -1.56489 -1.58663, -1.70243 -1.69627, -1.83965 -1.8056, -1.90858 -1.96302, -1.90858 -2.16852, -1.90858 -2.45547, -1.85215 -2.72734, -1.7393 -2.98382, -1.62645 -3.24031, -1.47352 -3.46249, -1.27987 -3.65068, -1.08623 -3.83856, -0.857315 -3.98732, -0.593136 -4.09697, -0.328958 -4.20629, -0.0487483 -4.26112, 0.24685 -4.26144, 0.612981 -4.26112, 0.948655 -4.20725, 1.25323 -4.09953, 1.55781 -3.99181, 1.8175 -3.83695, 2.0323 -3.63529, 2.24711 -3.43331, 2.41543 -3.19991, 2.53693 -2.93509, 2.65844 -2.66995, 2.71904 -2.37692, 2.71904 -2.05567, 2.71904 -1.6998, 2.63825 -1.37214, 2.47602 -1.07302, 2.31411 -0.77357, 2.11342 -0.499131, 1.87392 -0.2497, 1.63443 5.126e-005, 1.37987 0.235055, 1.11056 0.455632, 0.841252 0.676208, 0.597272 0.890693, 0.378939 1.09909 L -0.836155 2.24301, 0.754048 2.24301 C 0.975907 2.24333, 1.18302 2.24172, 1.37474 2.2382, 1.56678 2.23499, 1.72965 2.22794, 1.86334 2.21768, 1.99736 2.20742, 2.06597 2.20069, 2.06917 2.19684, 2.09738 2.17312, 2.12399 2.12534, 2.14868 2.05353, 2.17337 1.98171, 2.19613 1.89707, 2.21729 1.79961, 2.23845 1.70215, 2.25961 1.60308, 2.28077 1.50209, 2.30193 1.40142, 2.32117 1.29081, 2.3388 1.1709 L 2.72962 1.1709 Z" stroke="none" fill="#000000" transform="matrix(1.12 0 0 1 13.8775 16.3063)" />
			<rect />
		</svg>
	</g>
	<g transform="matrix(1 0 -0 1 43.4218 9.00001)">
		<svg width="501.019867" height="137.999954">
			<defs />
			<path d="M 2.22578 0.914418 C 2.14114 1.21226, 2.02252 1.50658, 1.86927 1.79704, 1.71602 2.08783, 1.51628 2.35618, 1.26941 2.60209, 1.06519 2.80759, 0.833711 2.97944, 0.574662 3.11794, 0.315933 3.25644, 0.047266 3.32537, -0.23102 3.32537, -0.498725 3.32537, -0.722508 3.25388, -0.902047 3.11024, -1.08159 2.96661, -1.21913 2.78868, -1.31435 2.57644, -1.42688 2.3238, -1.48683 2.05193, -1.49388 1.76082 L -1.49388 1.69413 C -1.49388 1.42418, -1.45862 1.15583, -1.38808 0.888769 L -0.326239 -3.24063 C -0.298026 -3.35316, -0.280393 -3.43876, -0.27334 -3.49711 L -0.27334 -3.5125 C -0.27334 -3.54296, -0.280393 -3.56508, -0.2945 -3.57919, -0.336819 -3.60612, -0.416009 -3.62504, -0.532389 -3.63529, -0.648448 -3.64555, -0.782461 -3.65068, -0.933787 -3.651, -0.986366 -3.65068, -1.02516 -3.66768, -1.05017 -3.7023, -1.07133 -3.7225, -1.08191 -3.74815, -1.08191 -3.77925, -1.08191 -3.79944, -1.07646 -3.81836, -1.06588 -3.83567 L -1.05017 -3.91775 C -1.02195 -3.9995, -0.958473 -4.0508, -0.859727 -4.07164 L 0.540357 -4.18449, 0.561517 -4.18449 C 0.603837 -4.18417, 0.638783 -4.17039, 0.666996 -4.14345, 0.681103 -4.11588, 0.688156 -4.08831, 0.688156 -4.06138, 0.688156 -4.04054, 0.683027 -4.02162, 0.672446 -4.00495 L -0.0883502 -1.05025 C -0.0107636 -1.12848, 0.131906 -1.22947, 0.339658 -1.35258, 0.54741 -1.4757, 0.765743 -1.53725, 0.994655 -1.53757, 1.27294 -1.53725, 1.50827 -1.46544, 1.69999 -1.32181, 1.89203 -1.17817, 2.03919 -1.00216, 2.14114 -0.793768, 2.26105 -0.54049, 2.32421 -0.266693, 2.33126 0.0269821 L 2.33126 0.0987976 C 2.33126 0.362335, 2.29631 0.634209, 2.22578 0.914418 Z M 1.45953 -0.645007 C 1.42811 -0.808836, 1.36816 -0.941247, 1.27999 -1.04224, 1.19215 -1.14291, 1.07769 -1.19356, 0.936625 -1.19388, 0.767666 -1.19356, 0.602234 -1.13874, 0.440008 -1.02941, 0.278102 -0.919766, 0.126456 -0.781585, -0.014611 -0.614229, -0.123617 -0.473804, -0.218837 -0.342035, -0.29995 -0.219243 L -0.590418 0.909288 C -0.660951 1.18309, -0.713531 1.44662, -0.748797 1.69926, -0.762904 1.8057, -0.769957 1.90637, -0.769957 2.00191, -0.769957 2.1526, -0.752324 2.29623, -0.717057 2.43281, -0.678264 2.59054, -0.614143 2.72231, -0.524374 2.82811, -0.434604 2.93423, -0.315659 2.98713, -0.16786 2.98681, -0.0197406 2.98713, 0.127417 2.93263, 0.273613 2.82298, 0.419809 2.71366, 0.550937 2.57676, 0.666996 2.41229, 0.836276 2.18337, 0.963877 1.94003, 1.05012 1.68163, 1.13668 1.42354, 1.21491 1.15936, 1.28512 0.888769, 1.35566 0.60856, 1.41753 0.33861, 1.47011 0.0782788, 1.49127 -0.044513, 1.50185 -0.164099, 1.50185 -0.280799, 1.50185 -0.403591, 1.48775 -0.525101, 1.45953 -0.645007 Z" stroke="none" fill="#000000" transform="matrix(1.12 0 0 1 21.8034 6.22446)" />
			<path d="M 2.88729 1.64796 C 2.84529 1.81596, 2.79784 1.9955, 2.74494 2.1869, 2.69204 2.37862, 2.62151 2.55624, 2.53334 2.72039, 2.4455 2.88454, 2.33457 3.02657, 2.20056 3.14615, 2.06686 3.26574, 1.89951 3.32537, 1.69849 3.32537, 1.4311 3.32537, 1.21694 3.25131, 1.05664 3.10255, 0.896333 2.95379, 0.803998 2.80246, 0.779312 2.64825, 0.659405 2.78547, 0.480828 2.93263, 0.242939 3.08973, 0.0053699 3.24682, -0.245664 3.32537, -0.509843 3.32537, -0.788128 3.32537, -1.02153 3.25548, -1.21005 3.11537, -1.39856 2.97527, -1.5454 2.79894, -1.6512 2.5867, -1.77784 2.33406, -1.84484 2.06219, -1.8519 1.77108 L -1.8519 1.69413 C -1.8519 1.42418, -1.81471 1.15423, -1.74097 0.88364, -1.65633 0.586438, -1.53835 0.292443, -1.38702 0.00165415, -1.23537 -0.288814, -1.03467 -0.559085, -0.784602 -0.809157, -0.580056 -1.01402, -0.346655 -1.18651, -0.0843995 -1.32694, 0.177856 -1.46704, 0.444599 -1.53725, 0.715832 -1.53757, 0.951797 -1.53725, 1.14384 -1.47473, 1.29164 -1.35002, 1.43976 -1.22498, 1.53306 -1.12175, 1.57185 -1.03999 L 1.55069 -0.952789 C 1.57537 -1.07911, 1.63437 -1.17465, 1.72766 -1.23973, 1.82128 -1.30449, 1.91554 -1.33719, 2.01044 -1.33752, 2.11944 -1.33719, 2.21114 -1.30481, 2.2852 -1.24005, 2.33104 -1.18843, 2.35573 -1.12014, 2.35893 -1.03486, 2.35893 -1.00376, 2.35541 -0.96946, 2.34835 -0.93227 L 1.58756 2.03269 C 1.55229 2.17312, 1.5276 2.30488, 1.5135 2.42768, 1.50677 2.48955, 1.50324 2.54598, 1.50324 2.59696, 1.50324 2.64184, 1.50677 2.68961, 1.5135 2.74059, 1.5244 2.82298, 1.54909 2.88454, 1.58756 2.92558, 1.62635 2.96661, 1.68085 2.98713, 1.75139 2.98681, 1.82545 2.98713, 1.89502 2.95635, 1.9601 2.8948, 2.0255 2.83324, 2.08546 2.74187, 2.13996 2.62036, 2.19446 2.49917, 2.2464 2.35362, 2.29578 2.18434, 2.34515 2.01506, 2.39612 1.83135, 2.4487 1.63257, 2.46986 1.54409, 2.52982 1.49952, 2.62856 1.4992 L 2.75007 1.4992 C 2.84177 1.49952, 2.88729 1.53703, 2.88729 1.61206 L 2.88729 1.64796 Z M 1.37628 -0.239762 C 1.36217 -0.300997, 1.34999 -0.365119, 1.33941 -0.431804, 1.32883 -0.49849, 1.3128 -0.564214, 1.29164 -0.629618, 1.23553 -0.789921, 1.15538 -0.924255, 1.05151 -1.03198, 0.947629 -1.1397, 0.816181 -1.19356, 0.657802 -1.19388, 0.510003 -1.19356, 0.363807 -1.14034, 0.219214 -1.03454, 0.0749414 -0.928422, -0.0571482 -0.791844, -0.177055 -0.624488, -0.346014 -0.388202, -0.472653 -0.142618, -0.557293 0.111943, -0.641932 0.366824, -0.719519 0.632606, -0.790052 0.909288, -0.860265 1.18309, -0.918294 1.44823, -0.964462 1.70439, -0.992354 1.83456, -1.00646 1.95767, -1.00646 2.07373, -1.00646 2.19716, -0.992354 2.31675, -0.964462 2.43281, -0.932401 2.59375, -0.875333 2.72648, -0.792617 2.83068, -0.709901 2.93519, -0.594483 2.98713, -0.446684 2.98681, -0.284457 2.98713, -0.12159 2.93071, 0.0422397 2.81785, 0.206069 2.705, 0.358356 2.5665, 0.499102 2.40203, 0.555529 2.33406, 0.609391 2.26833, 0.660367 2.20485, 0.711664 2.1417, 0.756549 2.07405, 0.795021 2.00191 L 1.37628 -0.239762 Z" stroke="none" fill="#000000" transform="matrix(1.12 0 0 1 13.7653 43.5745)" />
			<path d="M 36.15 18.7455 C 36.0813 19.0146, 35.9399 19.2213, 35.7258 19.3644, 35.5117 19.5081, 35.301 19.5797, 35.0932 19.5791, 34.8671 19.5797, 34.685 19.5001, 34.5464 19.3409, 34.44 19.2379, 34.3833 19.1062, 34.3764 18.9471, 34.3764 18.8806, 34.389 18.7948, 34.4142 18.6906, 34.4835 18.4593, 34.6014 18.2761, 34.768 18.1415, 34.9352 18.0076, 35.0594 17.9337, 35.1407 17.9211, 35.0216 17.7871, 34.7858 17.7202, 34.4331 17.7196, 34.2258 17.7202, 34.0278 17.9005, 33.8388 18.26, 33.801 18.3156, 33.7587 18.4392, 33.7117 18.6316, 33.6648 18.824, 33.611 19.0593, 33.5514 19.3369, 33.4919 19.6152, 33.4301 19.9094, 33.3671 20.2209, 33.3041 20.5323, 33.248 20.8318, 33.1976 21.118 L 32.9617 22.2813, 34.6879 22.2813 C 34.8516 22.2819, 34.9329 22.3644, 34.9329 22.5287 L 34.9329 22.5928, 34.8951 22.7577 C 34.8264 22.9415, 34.7039 23.0331, 34.5276 23.0325 L 32.8106 23.0325, 31.9049 27.5942 C 31.8173 28.0225, 31.7228 28.4788, 31.6221 28.9643, 31.5213 29.4497, 31.4114 29.9324, 31.2917 30.4116, 31.1726 30.8907, 31.0358 31.3442, 30.8818 31.7713, 30.7278 32.1989, 30.5629 32.5716, 30.3866 32.8888, 30.2801 33.0663, 30.1587 33.2449, 30.0236 33.4247, 29.8885 33.605, 29.7391 33.7653, 29.5753 33.9056, 29.4116 34.0464, 29.2341 34.1638, 29.0423 34.2583, 28.8505 34.3533, 28.6444 34.4002, 28.424 34.4002, 28.1796 34.4002, 27.95 34.3607, 27.7359 34.2812, 27.5223 34.2021, 27.3386 34.0922, 27.184 33.9514, 27.0305 33.8111, 26.9155 33.6399, 26.8393 33.4384, 26.8153 33.3285, 26.8027 33.2186, 26.8021 33.1087, 26.8027 33.005, 26.8153 32.8922, 26.8393 32.7697, 26.9092 32.4949, 27.054 32.2888, 27.2739 32.1514, 27.4943 32.014, 27.7113 31.9453, 27.9242 31.9453, 28.1452 31.9453, 28.3273 32.0186, 28.4715 32.1652, 28.5786 32.2694, 28.6319 32.4005, 28.6319 32.559, 28.6319 32.6266, 28.6193 32.7119, 28.5941 32.8155, 28.5254 33.048, 28.4057 33.234, 28.2362 33.3743, 28.0668 33.5151, 27.9408 33.5913, 27.8584 33.6033, 27.966 33.7258, 28.1859 33.7865, 28.5185 33.7865, 28.6822 33.7865, 28.8351 33.6949, 28.9765 33.5117, 29.1179 33.3285, 29.2324 33.0783, 29.3206 32.7606, 29.5404 32.0157, 29.7402 31.1902, 29.9194 30.2833, 30.0992 29.3765, 30.2767 28.4925, 30.4524 27.6309 L 31.3862 23.0325, 29.9715 23.0325 C 29.8771 23.0331, 29.8078 23.0027, 29.7637 22.9409, 29.7259 22.9048, 29.707 22.859, 29.707 22.8035, 29.707 22.7674, 29.7168 22.7336, 29.7357 22.7027 L 29.7637 22.5653 C 29.7832 22.4863, 29.8255 22.4193, 29.8914 22.3644, 29.9578 22.3094, 30.0282 22.2819, 30.1032 22.2813 L 31.5373 22.2813, 31.7543 21.1363 C 31.7921 20.8987, 31.8425 20.6365, 31.9055 20.3491, 31.9684 20.0623, 32.0434 19.7766, 32.1316 19.4927, 32.2198 19.2087, 32.3188 18.9356, 32.4287 18.6728, 32.5387 18.4106, 32.6726 18.1873, 32.8295 18.0036, 33.0562 17.7413, 33.3173 17.5267, 33.6127 17.3583, 33.9081 17.1906, 34.2195 17.1064, 34.5464 17.1059, 34.7915 17.1064, 35.0256 17.1431, 35.2489 17.2164, 35.4722 17.2896, 35.6611 17.3967, 35.8151 17.537, 35.9697 17.6778, 36.0779 17.8455, 36.1403 18.0402, 36.185 18.1387, 36.2067 18.2514, 36.2067 18.3791, 36.2067 18.4833, 36.1878 18.6058, 36.15 18.7455 Z" stroke="none" fill="#000000" />
			<path d="M 55.3754 23.5912 C 55.3067 23.8666, 55.1665 24.0727, 54.9558 24.2101, 54.7451 24.3475, 54.5333 24.4162, 54.3191 24.4157, 54.0993 24.4162, 53.9167 24.3458, 53.7718 24.205, 53.6653 24.1019, 53.6087 23.9674, 53.6018 23.8019, 53.6018 23.7355, 53.6144 23.6496, 53.6396 23.5454, 53.7094 23.3142, 53.8165 23.1384, 53.9608 23.0193, 54.1056 22.9002, 54.2064 22.8315, 54.2625 22.8126, 54.1434 22.7216, 53.8978 22.6758, 53.5268 22.6752, 53.1999 22.6758, 52.9073 22.8453, 52.6497 23.1842, 52.3921 23.5231, 52.1997 23.9307, 52.0738 24.4065 L 51.2058 27.7591 C 51.1182 28.0958, 51.0524 28.4164, 51.0077 28.7209, 50.9831 28.8251, 50.9705 28.9167, 50.9705 28.9957, 50.9705 29.1858, 51.002 29.3656, 51.0644 29.5362, 51.1274 29.72, 51.2219 29.8665, 51.3478 29.9764, 51.4738 30.0864, 51.6341 30.1413, 51.8287 30.1408, 52.0806 30.1413, 52.3228 30.0761, 52.5552 29.9444, 52.7877 29.8133, 53.0018 29.6364, 53.1965 29.4131, 53.3917 29.1904, 53.5646 28.931, 53.7157 28.6345, 53.8669 28.3385, 53.9859 28.0345, 54.0735 27.7225, 54.1113 27.5645, 54.2184 27.4849, 54.3947 27.4843 L 54.6111 27.4843 C 54.7749 27.4849, 54.8567 27.5461, 54.8567 27.6675, 54.8567 27.7047, 54.8476 27.7385, 54.8281 27.7683, 54.7405 28.1353, 54.5974 28.4971, 54.3993 28.8543, 54.2012 29.2116, 53.9705 29.5276, 53.706 29.8024, 53.4421 30.0772, 53.1421 30.3034, 52.8054 30.4797, 52.4688 30.6572, 52.1087 30.7453, 51.7251 30.7453, 51.3352 30.7453, 50.9986 30.6617, 50.7158 30.4934, 50.4329 30.3263, 50.2034 30.1076, 50.027 29.8385, 49.9709 29.7721, 49.9268 29.7034, 49.8954 29.6329, 49.8639 29.5631, 49.8541 29.5522, 49.8667 29.6003, 49.7156 29.8511, 49.4769 30.1047, 49.15 30.3612, 48.8231 30.6177, 48.4458 30.7453, 48.0175 30.7453, 47.7788 30.7453, 47.5429 30.715, 47.3105 30.6537, 47.078 30.593, 46.8748 30.4986, 46.7019 30.3703, 46.529 30.2421, 46.3985 30.0864, 46.3103 29.9026, 46.2668 29.7932, 46.245 29.6742, 46.2445 29.5454, 46.245 29.4543, 46.2576 29.3473, 46.2823 29.2247, 46.3515 28.9505, 46.4929 28.7444, 46.7065 28.607, 46.9206 28.4696, 47.1341 28.4009, 47.3483 28.4003, 47.5681 28.4009, 47.757 28.4713, 47.9139 28.611, 48.021 28.7152, 48.0742 28.8498, 48.0742 29.0141, 48.0742 29.0999, 48.0616 29.1858, 48.0364 29.2705, 47.9803 29.4847, 47.8778 29.6576, 47.7301 29.7887, 47.5824 29.9203, 47.4771 29.9919, 47.4141 30.0034, 47.5338 30.1018, 47.7759 30.1476, 48.1406 30.1408, 48.4675 30.1413, 48.7629 29.9707, 49.0269 29.6284, 49.2914 29.2866, 49.4832 28.8772, 49.6022 28.4003 L 50.4799 25.0294 C 50.5681 24.7122, 50.6368 24.4008, 50.6871 24.0951, 50.6997 23.9977, 50.706 23.9061, 50.706 23.8203, 50.706 23.6313, 50.678 23.4544, 50.6213 23.289, 50.5583 23.1063, 50.461 22.9586, 50.3288 22.8453, 50.1971 22.7325, 50.0333 22.6758, 49.8381 22.6752, 49.5868 22.6758, 49.3435 22.7416, 49.1076 22.8727, 48.8717 23.0044, 48.6565 23.1796, 48.4612 23.3995, 48.2666 23.6193, 48.0937 23.8746, 47.9425 24.1643, 47.7914 24.4546, 47.6815 24.7615, 47.6122 25.0844, 47.5435 25.2498, 47.4267 25.3351, 47.263 25.3408 L 47.0557 25.3408 C 46.9046 25.3414, 46.829 25.2653, 46.829 25.1118 L 46.829 25.0477 C 46.9235 24.6699, 47.0683 24.3017, 47.263 23.9445, 47.4582 23.5872, 47.6912 23.2712, 47.9614 22.9964, 48.2316 22.7216, 48.5339 22.4972, 48.8671 22.3231, 49.2003 22.1491, 49.5622 22.0621, 49.9515 22.0615, 50.3293 22.0621, 50.6625 22.1445, 50.9516 22.3094, 51.2408 22.4743, 51.4766 22.6941, 51.6587 22.9684, 51.6965 23.0359, 51.7314 23.1081, 51.7629 23.1842, 51.7944 23.2609, 51.8035 23.2804, 51.7909 23.2432, 51.9484 22.9752, 52.1906 22.7113, 52.5175 22.4514, 52.8444 22.192, 53.2182 22.0621, 53.6396 22.0615, 53.8789 22.0621, 54.1165 22.0913, 54.3524 22.1491, 54.5882 22.2075, 54.792 22.3002, 54.9649 22.4285, 55.1378 22.5567, 55.2655 22.7153, 55.3474 22.9042, 55.3915 23.0147, 55.4132 23.1401, 55.4132 23.2798, 55.4132 23.372, 55.4006 23.4756, 55.3754 23.5912 Z" stroke="none" fill="#000000" />
			<path d="M 1.5467 8.95625 C -4.56906 4.92594, -4.56906 -4.92594, 1.5467 -8.95625 L 2.50721 -8.95625 C -3.00823 -4.92594, -3.00823 4.92594, 2.50721 8.95625" stroke="none" fill="#000000" transform="matrix(1 0 -0 1 42.7776 24.8995)" />
			<path d="M 1.5467 8.95625 C -4.56906 4.92594, -4.56906 -4.92594, 1.5467 -8.95625 L 2.50721 -8.95625 C -3.00823 -4.92594, -3.00823 4.92594, 2.50721 8.95625" stroke="none" fill="#000000" transform="matrix(-1 1.50996e-007 -1.50996e-007 -1 58.8875 24.8995)" />
			<path d="M 72.1283 30.7362 L 72.1283 29.6461 C 71.9268 29.8969, 71.6045 30.1402, 71.1613 30.3749, 70.7182 30.6096, 70.223 30.727, 69.6757 30.727, 69.0975 30.727, 68.5501 30.6142, 68.0343 30.3887, 67.519 30.1631, 67.0725 29.8511, 66.6946 29.4537, 66.2859 29.0267, 65.9761 28.5538, 65.7654 28.0345, 65.5548 27.5158, 65.4494 26.9691, 65.4494 26.3943, 65.4494 25.8206, 65.5599 25.2681, 65.7798 24.7368, 66.0002 24.2056, 66.3208 23.7355, 66.7421 23.3262, 67.1635 22.9174, 67.6444 22.6014, 68.1849 22.3781, 68.7259 22.1554, 69.2921 22.0438, 69.8829 22.0432, 70.3925 22.0438, 70.8568 22.1525, 71.2747 22.3689, 71.6926 22.5859, 71.9898 22.8069, 72.1661 23.0325 L 72.1661 19.2219 C 72.1661 19.0638, 72.1587 18.9098, 72.1426 18.7598, 72.1266 18.6104, 72.0653 18.4959, 71.9583 18.4158, 71.8518 18.3431, 71.6818 18.3007, 71.4493 18.2881, 71.2169 18.2761, 70.9621 18.2698, 70.685 18.2692 L 70.685 17.5272, 73.6563 17.3074, 73.6563 28.8125 C 73.6563 28.9717, 73.6644 29.1246, 73.6798 29.2711, 73.6958 29.4177, 73.7588 29.5276, 73.8687 29.6009, 73.9787 29.6742, 74.1504 29.7188, 74.3829 29.7337, 74.6153 29.7492, 74.8735 29.7566, 75.1563 29.756 L 75.1563 30.5072 Z M 72.1283 24.0676 C 71.9211 23.6588, 71.6251 23.3216, 71.2415 23.056, 70.8579 22.7903, 70.4177 22.6575, 69.9207 22.6569, 69.5245 22.6575, 69.1536 22.7508, 68.8078 22.9369, 68.462 23.1235, 68.1637 23.3811, 67.9118 23.7103, 67.6353 24.0836, 67.4578 24.5004, 67.3788 24.9613, 67.3003 25.4227, 67.2608 25.9002, 67.2608 26.3943, 67.2608 26.8895, 67.2958 27.3629, 67.3645 27.8147, 67.4337 28.2669, 67.5975 28.6912, 67.8551 29.0873, 68.0692 29.3994, 68.3412 29.6501, 68.6709 29.839, 69.0013 30.0285, 69.3488 30.123, 69.7135 30.1224, 70.2608 30.123, 70.7446 29.9719, 71.1659 29.6696, 71.5873 29.3673, 71.9085 28.9809, 72.1283 28.5103 Z" stroke="none" fill="#000000" />
			<path d="M 84.5442 23.5912 C 84.4755 23.8666, 84.3352 24.0727, 84.1245 24.2101, 83.9139 24.3475, 83.702 24.4162, 83.4879 24.4157, 83.2681 24.4162, 83.0854 24.3458, 82.9406 24.205, 82.8341 24.1019, 82.7774 23.9674, 82.7706 23.8019, 82.7706 23.7355, 82.7831 23.6496, 82.8083 23.5454, 82.8782 23.3142, 82.9853 23.1384, 83.1295 23.0193, 83.2744 22.9002, 83.3751 22.8315, 83.4312 22.8126, 83.3121 22.7216, 83.0665 22.6758, 82.6956 22.6752, 82.3687 22.6758, 82.0761 22.8453, 81.8185 23.1842, 81.5608 23.5231, 81.3685 23.9307, 81.2425 24.4065 L 80.3746 27.7591 C 80.287 28.0958, 80.2212 28.4164, 80.1765 28.7209, 80.1519 28.8251, 80.1393 28.9167, 80.1393 28.9957, 80.1393 29.1858, 80.1708 29.3656, 80.2332 29.5362, 80.2962 29.72, 80.3906 29.8665, 80.5166 29.9764, 80.6425 30.0864, 80.8028 30.1413, 80.9975 30.1408, 81.2494 30.1413, 81.4916 30.0761, 81.724 29.9444, 81.9565 29.8133, 82.1706 29.6364, 82.3652 29.4131, 82.5604 29.1904, 82.7333 28.931, 82.8845 28.6345, 83.0356 28.3385, 83.1547 28.0345, 83.2423 27.7225, 83.2801 27.5645, 83.3872 27.4849, 83.5635 27.4843 L 83.7799 27.4843 C 83.9436 27.4849, 84.0255 27.5461, 84.0255 27.6675, 84.0255 27.7047, 84.0163 27.7385, 83.9969 27.7683, 83.9093 28.1353, 83.7662 28.4971, 83.5681 28.8543, 83.37 29.2116, 83.1393 29.5276, 82.8748 29.8024, 82.6108 30.0772, 82.3108 30.3034, 81.9742 30.4797, 81.6376 30.6572, 81.2775 30.7453, 80.8939 30.7453, 80.504 30.7453, 80.1674 30.6617, 79.8845 30.4934, 79.6017 30.3263, 79.3721 30.1076, 79.1958 29.8385, 79.1397 29.7721, 79.0956 29.7034, 79.0641 29.6329, 79.0326 29.5631, 79.0229 29.5522, 79.0355 29.6003, 78.8844 29.8511, 78.6456 30.1047, 78.3187 30.3612, 77.9918 30.6177, 77.6145 30.7453, 77.1863 30.7453, 76.9476 30.7453, 76.7117 30.715, 76.4792 30.6537, 76.2468 30.593, 76.0436 30.4986, 75.8707 30.3703, 75.6978 30.2421, 75.5672 30.0864, 75.4791 29.9026, 75.4356 29.7932, 75.4138 29.6742, 75.4132 29.5454, 75.4138 29.4543, 75.4264 29.3473, 75.451 29.2247, 75.5203 28.9505, 75.6617 28.7444, 75.8753 28.607, 76.0894 28.4696, 76.3029 28.4009, 76.517 28.4003, 76.7369 28.4009, 76.9258 28.4713, 77.0827 28.611, 77.1897 28.7152, 77.243 28.8498, 77.243 29.0141, 77.243 29.0999, 77.2304 29.1858, 77.2052 29.2705, 77.1491 29.4847, 77.0466 29.6576, 76.8989 29.7887, 76.7512 29.9203, 76.6459 29.9919, 76.5829 30.0034, 76.7025 30.1018, 76.9447 30.1476, 77.3094 30.1408, 77.6363 30.1413, 77.9317 29.9707, 78.1956 29.6284, 78.4601 29.2866, 78.6519 28.8772, 78.771 28.4003 L 79.6487 25.0294 C 79.7368 24.7122, 79.8055 24.4008, 79.8559 24.0951, 79.8685 23.9977, 79.8748 23.9061, 79.8748 23.8203, 79.8748 23.6313, 79.8467 23.4544, 79.7901 23.289, 79.7271 23.1063, 79.6298 22.9586, 79.4975 22.8453, 79.3658 22.7325, 79.2021 22.6758, 79.0069 22.6752, 78.7555 22.6758, 78.5122 22.7416, 78.2764 22.8727, 78.0405 23.0044, 77.8252 23.1796, 77.63 23.3995, 77.4353 23.6193, 77.2624 23.8746, 77.1113 24.1643, 76.9602 24.4546, 76.8502 24.7615, 76.781 25.0844, 76.7123 25.2498, 76.5955 25.3351, 76.4317 25.3408 L 76.2245 25.3408 C 76.0733 25.3414, 75.9978 25.2653, 75.9978 25.1118 L 75.9978 25.0477 C 76.0922 24.6699, 76.2371 24.3017, 76.4317 23.9445, 76.627 23.5872, 76.86 23.2712, 77.1302 22.9964, 77.4004 22.7216, 77.7027 22.4972, 78.0359 22.3231, 78.3691 22.1491, 78.7309 22.0621, 79.1202 22.0615, 79.4981 22.0621, 79.8313 22.1445, 80.1204 22.3094, 80.4095 22.4743, 80.6454 22.6941, 80.8275 22.9684, 80.8652 23.0359, 80.9002 23.1081, 80.9317 23.1842, 80.9631 23.2609, 80.9723 23.2804, 80.9597 23.2432, 81.1171 22.9752, 81.3593 22.7113, 81.6862 22.4514, 82.0131 22.192, 82.387 22.0621, 82.8083 22.0615, 83.0477 22.0621, 83.2852 22.0913, 83.5211 22.1491, 83.757 22.2075, 83.9608 22.3002, 84.1337 22.4285, 84.3066 22.5567, 84.4343 22.7153, 84.5161 22.9042, 84.5602 23.0147, 84.582 23.1401, 84.582 23.2798, 84.582 23.372, 84.5694 23.4756, 84.5442 23.5912 Z" stroke="none" fill="#000000" />
			<polyline points="-6.566 -1.9698 6.566 -1.9698" fill="none" stroke="#000000" stroke-width="0.750400007" stroke-linecap="round" stroke-linejoin="round" transform="matrix(1 0 0 1 96.5434 24.8995)" />
			<polyline points="-6.566 1.9698 6.566 1.9698" fill="none" stroke="#000000" stroke-width="0.750400007" stroke-linecap="round" stroke-linejoin="round" transform="matrix(1 0 0 1 96.5434 24.8995)" />
			<path d="M 118.435 21.6859 C 118.397 21.8577, 118.303 21.943, 118.152 21.9424, 118.14 21.955, 118.108 21.9613, 118.058 21.9607, 118.027 21.9613, 118.002 21.955, 117.982 21.9424 L 117.897 21.9424 C 117.734 21.943, 117.652 21.8817, 117.652 21.7592 L 117.652 21.6951 C 117.728 21.244, 117.765 20.8255, 117.765 20.4402 L 117.765 20.0921 C 117.727 19.6226, 117.622 19.2178, 117.449 18.8789, 117.276 18.54, 117.023 18.2778, 116.69 18.0911, 116.357 17.9051, 115.935 17.8118, 115.426 17.8112, 115.131 17.8118, 114.831 17.8759, 114.525 18.0041, 114.22 18.1324, 113.936 18.3064, 113.671 18.5257, 113.383 18.7644, 113.147 19.0346, 112.964 19.3369, 112.782 19.6392, 112.65 19.9489, 112.568 20.2661, 112.505 20.4928, 112.471 20.7092, 112.464 20.9165, 112.464 21.2039, 112.527 21.4787, 112.653 21.7409, 112.835 22.1812, 113.162 22.4623, 113.634 22.5836 L 115.803 23.1882 C 116.199 23.305, 116.538 23.4899, 116.818 23.743, 117.098 23.9966, 117.308 24.296, 117.45 24.6407, 117.591 24.9859, 117.674 25.3626, 117.699 25.7714 L 117.699 25.9362 C 117.699 26.2912, 117.649 26.6542, 117.548 27.0263, 117.417 27.5398, 117.206 28.0345, 116.916 28.5108, 116.627 28.9872, 116.269 29.4148, 115.841 29.7927, 115.432 30.1413, 114.985 30.4207, 114.497 30.6308, 114.01 30.8415, 113.521 30.9469, 113.03 30.9469, 112.307 30.9469, 111.691 30.8312, 111.181 30.5988, 110.672 30.3675, 110.295 30.0743, 110.049 29.7194 L 109.115 30.8278 C 109.034 30.9074, 108.949 30.9469, 108.86 30.9469 L 108.804 30.9469 C 108.647 30.9469, 108.562 30.8862, 108.55 30.7637, 108.55 30.727, 108.559 30.6938, 108.578 30.6629 L 109.672 26.3759 C 109.709 26.2053, 109.82 26.1172, 110.002 26.1103 L 110.21 26.1103 C 110.285 26.1109, 110.354 26.1412, 110.417 26.2019, 110.442 26.2511, 110.455 26.2941, 110.455 26.3301, 110.455 26.3553, 110.449 26.3857, 110.436 26.4217, 110.323 26.862, 110.266 27.2713, 110.266 27.6492, 110.266 28.2543, 110.414 28.7673, 110.71 29.1881, 111.181 29.8665, 112.005 30.2055, 113.181 30.2049, 113.477 30.2055, 113.777 30.1368, 114.082 29.9993, 114.387 29.8619, 114.671 29.677, 114.935 29.4446, 115.225 29.1767, 115.468 28.8789, 115.666 28.552, 115.864 28.2257, 116.011 27.8879, 116.105 27.5393, 116.168 27.2587, 116.199 26.9965, 116.199 26.7515, 116.199 26.4469, 116.159 26.1538, 116.077 25.8721, 115.889 25.4027, 115.539 25.1004, 115.03 24.9653 L 112.889 24.3607 C 112.505 24.2577, 112.175 24.0882, 111.898 23.8529, 111.622 23.6182, 111.406 23.3388, 111.252 23.0147, 111.098 22.6913, 111.008 22.334, 110.983 21.9424 L 110.983 21.7409 C 110.983 21.4363, 111.021 21.1157, 111.096 20.7791, 111.228 20.2913, 111.439 19.8241, 111.728 19.3781, 112.018 18.9327, 112.376 18.5383, 112.804 18.1959, 113.206 17.8667, 113.648 17.6028, 114.129 17.4041, 114.61 17.206, 115.086 17.1064, 115.558 17.1059, 116.206 17.1064, 116.74 17.2272, 117.162 17.4683, 117.583 17.7099, 117.888 17.995, 118.077 18.3242 L 118.982 17.2341 C 119.033 17.1494, 119.115 17.1064, 119.227 17.1059 L 119.312 17.1059 C 119.463 17.1064, 119.539 17.1797, 119.539 17.3257 L 119.539 17.399 Z" stroke="none" fill="#000000" />
			<path d="M 2.37267 3.19713 C 1.72472 3.17661, 1.09441 3.16635, 0.481416 3.16635, -0.131261 3.16635, -0.761571 3.17661, -1.40951 3.19713 L -1.40951 2.75598, -1.04499 2.75598 C -0.928927 2.7563, -0.819601 2.75469, -0.717648 2.75117, -0.615375 2.74796, -0.518552 2.7393, -0.426859 2.72552, -0.335166 2.71205, -0.255976 2.69827, -0.18929 2.68416, -0.132864 2.67422, -0.086376 2.6428, -0.0495062 2.58958, -0.012316 2.53668, 0.00595856 2.47769, 0.00595856 2.41229 L 0.00595856 -3.36887 C -0.169733 -3.28295, -0.386463 -3.21787, -0.643588 -3.17362, -0.900714 -3.12906, -1.18221 -3.10694, -1.4887 -3.10726 L -1.4887 -3.54328 C -1.06615 -3.54296, -0.675969 -3.59329, -0.318494 -3.69429, 0.0389807 -3.79496, 0.348044 -3.98411, 0.608376 -4.26144 L 0.772206 -4.26144 C 0.888265 -4.26112, 0.946294 -4.20469, 0.946294 -4.09216 L 0.946294 2.41229 C 0.946294 2.4809, 0.963928 2.54085, 0.999194 2.59215, 1.03446 2.64344, 1.08576 2.67422, 1.15244 2.68416, 1.20887 2.69827, 1.28133 2.71205, 1.36917 2.72552, 1.45702 2.7393, 1.55641 2.74796, 1.66734 2.75117, 1.77827 2.75469, 1.88663 2.7563, 1.99243 2.75598 L 2.37267 2.75598, 2.37267 3.19713 Z" stroke="none" fill="#000000" transform="matrix(1.12 0 0 1 122.002 29.9984)" />
			<polyline points="-6.566 0 6.566 0" fill="none" stroke="#000000" stroke-width="0.750400007" stroke-linecap="round" stroke-linejoin="round" transform="matrix(1 0 0 1 136.996 24.8995)" />
			<path d="M 158.888 21.6859 C 158.85 21.8577, 158.756 21.943, 158.605 21.9424, 158.592 21.955, 158.561 21.9613, 158.51 21.9607, 158.479 21.9613, 158.454 21.955, 158.435 21.9424 L 158.35 21.9424 C 158.187 21.943, 158.105 21.8817, 158.105 21.7592 L 158.105 21.6951 C 158.18 21.244, 158.218 20.8255, 158.218 20.4402 L 158.218 20.0921 C 158.18 19.6226, 158.075 19.2178, 157.902 18.8789, 157.729 18.54, 157.476 18.2778, 157.143 18.0911, 156.809 17.9051, 156.388 17.8118, 155.878 17.8112, 155.583 17.8118, 155.283 17.8759, 154.978 18.0041, 154.673 18.1324, 154.388 18.3064, 154.124 18.5257, 153.835 18.7644, 153.599 19.0346, 153.417 19.3369, 153.235 19.6392, 153.102 19.9489, 153.02 20.2661, 152.957 20.4928, 152.923 20.7092, 152.916 20.9165, 152.916 21.2039, 152.979 21.4787, 153.105 21.7409, 153.288 22.1812, 153.615 22.4623, 154.086 22.5836 L 156.256 23.1882 C 156.652 23.305, 156.99 23.4899, 157.27 23.743, 157.55 23.9966, 157.761 24.296, 157.902 24.6407, 158.044 24.9859, 158.127 25.3626, 158.152 25.7714 L 158.152 25.9362 C 158.152 26.2912, 158.101 26.6542, 158.001 27.0263, 157.869 27.5398, 157.658 28.0345, 157.369 28.5108, 157.08 28.9872, 156.721 29.4148, 156.293 29.7927, 155.885 30.1413, 155.437 30.4207, 154.949 30.6308, 154.462 30.8415, 153.973 30.9469, 153.482 30.9469, 152.759 30.9469, 152.143 30.8312, 151.634 30.5988, 151.124 30.3675, 150.747 30.0743, 150.501 29.7194 L 149.568 30.8278 C 149.486 30.9074, 149.401 30.9469, 149.313 30.9469 L 149.257 30.9469 C 149.1 30.9469, 149.015 30.8862, 149.002 30.7637, 149.002 30.727, 149.012 30.6938, 149.03 30.6629 L 150.124 26.3759 C 150.162 26.2053, 150.272 26.1172, 150.454 26.1103 L 150.662 26.1103 C 150.738 26.1109, 150.807 26.1412, 150.87 26.2019, 150.895 26.2511, 150.907 26.2941, 150.907 26.3301, 150.907 26.3553, 150.901 26.3857, 150.888 26.4217, 150.775 26.862, 150.718 27.2713, 150.718 27.6492, 150.718 28.2543, 150.867 28.7673, 151.162 29.1881, 151.634 29.8665, 152.458 30.2055, 153.634 30.2049, 153.929 30.2055, 154.23 30.1368, 154.534 29.9993, 154.839 29.8619, 155.124 29.677, 155.388 29.4446, 155.677 29.1767, 155.921 28.8789, 156.119 28.552, 156.317 28.2257, 156.464 27.8879, 156.557 27.5393, 156.62 27.2587, 156.652 26.9965, 156.652 26.7515, 156.652 26.4469, 156.611 26.1538, 156.529 25.8721, 156.341 25.4027, 155.992 25.1004, 155.482 24.9653 L 153.341 24.3607 C 152.957 24.2577, 152.628 24.0882, 152.351 23.8529, 152.074 23.6182, 151.859 23.3388, 151.705 23.0147, 151.551 22.6913, 151.461 22.334, 151.436 21.9424 L 151.436 21.7409 C 151.436 21.4363, 151.474 21.1157, 151.549 20.7791, 151.681 20.2913, 151.891 19.8241, 152.181 19.3781, 152.47 18.9327, 152.829 18.5383, 153.256 18.1959, 153.659 17.8667, 154.101 17.6028, 154.582 17.4041, 155.063 17.206, 155.539 17.1064, 156.011 17.1059, 156.659 17.1064, 157.193 17.2272, 157.614 17.4683, 158.036 17.7099, 158.341 17.995, 158.529 18.3242 L 159.435 17.2341 C 159.485 17.1494, 159.567 17.1064, 159.68 17.1059 L 159.765 17.1059 C 159.916 17.1064, 159.991 17.1797, 159.991 17.3257 L 159.991 17.399 Z" stroke="none" fill="#000000" />
			<path d="M 2.39126 3.19713 L -1.90934 3.19713, -1.90934 2.915 C -1.90934 2.8948, -1.89876 2.86402, -1.8776 2.82266 L -0.149855 0.945196 C 0.0543709 0.71981, 0.261161 0.488975, 0.470837 0.253009, 0.680513 0.0170434, 0.868388 -0.224052, 1.03382 -0.470277, 1.19925 -0.716502, 1.33134 -0.970422, 1.43009 -1.23204, 1.52884 -1.49365, 1.57789 -1.76809, 1.57789 -2.05567, 1.57789 -2.29805, 1.54615 -2.52472, 1.48267 -2.73503, 1.41919 -2.94535, 1.32782 -3.13002, 1.20791 -3.28904, 1.08832 -3.44806, 0.938601 -3.5763, 0.759062 -3.67377, 0.579523 -3.77123, 0.371449 -3.81996, 0.135484 -3.82028, -0.216541 -3.81996, -0.527528 -3.7148, -0.797157 -3.50449, -1.06647 -3.29417, -1.24536 -3.06237, -1.33353 -2.80974, -1.35084 -2.80268, -1.32263 -2.79915, -1.24889 -2.79948 L -1.15912 -2.79948 C -1.05332 -2.77511, -0.961949 -2.73824, -0.884362 -2.68887, -0.806775 -2.63917, -0.741693 -2.57088, -0.688793 -2.48368, -0.635893 -2.39647, -0.609603 -2.29132, -0.609603 -2.16852, -0.609603 -1.96302, -0.676289 -1.8056, -0.810302 -1.69627, -0.944315 -1.58663, -1.09404 -1.53212, -1.25947 -1.53244, -1.41785 -1.53212, -1.56597 -1.58663, -1.70319 -1.69627, -1.84041 -1.8056, -1.90934 -1.96302, -1.90934 -2.16852, -1.90934 -2.45547, -1.85291 -2.72734, -1.74006 -2.98382, -1.6272 -3.24031, -1.47428 -3.46249, -1.28063 -3.65068, -1.08698 -3.83856, -0.858072 -3.98732, -0.593893 -4.09697, -0.329715 -4.20629, -0.0495055 -4.26112, 0.246413 -4.26144, 0.612865 -4.26112, 0.948539 -4.20725, 1.25311 -4.09953, 1.55769 -3.99181, 1.81738 -3.83695, 2.03219 -3.63529, 2.24699 -3.43331, 2.41531 -3.19991, 2.53682 -2.93509, 2.65833 -2.66995, 2.71892 -2.37692, 2.71892 -2.05567, 2.71892 -1.6998, 2.63813 -1.37214, 2.4759 -1.07302, 2.314 -0.77357, 2.1133 -0.499131, 1.87381 -0.2497, 1.63431 5.126e-005, 1.37975 0.235055, 1.11012 0.455632, 0.840816 0.676208, 0.596835 0.890693, 0.378503 1.09909 L -0.836912 2.24301, 0.753611 2.24301 C 0.97547 2.24333, 1.18258 2.24172, 1.3743 2.2382, 1.56635 2.23499, 1.72921 2.22794, 1.86323 2.21768, 1.99724 2.20742, 2.06585 2.20069, 2.06906 2.19684, 2.09727 2.17312, 2.12388 2.12534, 2.14857 2.05353, 2.17325 1.98171, 2.19602 1.89707, 2.21718 1.79961, 2.23833 1.70215, 2.2595 1.60308, 2.28066 1.50209, 2.30181 1.40142, 2.32105 1.29081, 2.33868 1.1709 L 2.7295 1.1709 Z" stroke="none" fill="#000000" transform="matrix(1.12 0 0 1 162.877 29.9984)" />
			<path d="M -6.73886 16.6458 C -6.73886 17.1975, -7.09153 17.5665, -7.79812 17.7542, -7.77041 17.7945, -7.73514 17.8348, -7.69358 17.8751, -7.44419 18.1308, -7.14065 18.258, -6.78042 18.258, -6.61417 18.2719, -6.43531 18.1913, -6.24135 18.0162, -5.56373 17.3713, -4.87099 15.4304, -4.16566 12.1922, -3.79284 10.5132, -3.32178 8.06849, -2.75499 4.85671, -1.55089 -1.97997, -0.0570973 -8.87207, 1.72764 -15.8196, 2.89018 -20.2115, 4.03887 -22.8049, 5.17244 -23.5984, 5.61579 -23.9057, 6.03773 -24.0606, 6.43826 -24.0619, 7.11714 -24.0606, 7.67007 -23.8453, 8.0983 -23.417, 8.50009 -22.9989, 8.72177 -22.4749, 8.76333 -21.8451, 8.76333 -21.0378, 8.38296 -20.6347, 7.62095 -20.636, 7.3174 -20.6347, 7.06172 -20.7355, 6.8539 -20.9383, 6.63222 -21.1524, 6.52138 -21.4144, 6.52138 -21.7242, 6.52138 -22.2734, 6.87405 -22.6361, 7.57938 -22.8125, 7.66251 -22.8112, 7.53908 -22.9258, 7.20656 -23.155, 7 -23.2886, 6.77833 -23.3553, 6.5428 -23.3566, 6.47352 -23.3553, 6.4244 -23.3415, 6.39669 -23.3163, 5.96845 -23.2079, 5.53896 -22.5694, 5.11072 -21.4018, 4.66737 -20.2317, 4.18371 -18.3374, 3.65723 -15.7188, 3.2567 -13.8232, 2.89018 -11.8748, 2.55767 -9.87465, 1.2717 -2.77976, -0.222095 4.08589, -1.92497 10.721, -2.35321 12.3609, -2.71343 13.6104, -3.00438 14.4694, -3.48803 15.9204, -4.01955 17.0224, -4.60145 17.7744, -5.2098 18.5805, -5.93654 18.9835, -6.78042 18.9835, -7.38877 18.9835, -7.9014 18.7618, -8.31704 18.3185, -8.73142 17.889, -8.9531 17.365, -8.98081 16.7466, -8.98081 15.9544, -8.60043 15.5576, -7.83968 15.5576, -7.53488 15.5576, -7.27793 15.6584, -7.07137 15.8599, -6.8497 16.0753, -6.73886 16.3373, -6.73886 16.6458 Z" stroke="none" fill="#000000" transform="matrix(1 0 0 1 8.98081 27.4387)" />
			<rect />
		</svg>
	</g>
	<g transform="matrix(1 0 -0 1 254.555 150.363)">
		<svg width="33.1395264" height="32.8723297">
			<defs />
			<path d="M 9.12724 9.8992 C 9.05854 10.1746, 8.91827 10.3807, 8.70759 10.5181, 8.4969 10.6555, 8.28508 10.7242, 8.07096 10.7236, 7.85111 10.7242, 7.66848 10.6538, 7.52364 10.5129, 7.41715 10.4099, 7.36047 10.2753, 7.3536 10.1099, 7.3536 10.0435, 7.3662 9.95759, 7.39139 9.8534, 7.46123 9.6221, 7.56829 9.44634, 7.71257 9.32726, 7.85741 9.20818, 7.95817 9.13948, 8.01428 9.12058, 7.8952 9.02955, 7.64959 8.98375, 7.2786 8.98318, 6.9517 8.98375, 6.65915 9.15322, 6.40152 9.49214, 6.14389 9.83107, 5.95153 10.2387, 5.82557 10.7144 L 4.95765 14.0671 C 4.87006 14.4037, 4.80422 14.7243, 4.75956 15.0289, 4.73494 15.1331, 4.72235 15.2247, 4.72235 15.3037, 4.72235 15.4938, 4.75384 15.6735, 4.81624 15.8441, 4.87922 16.0279, 4.97368 16.1745, 5.09963 16.2844, 5.22558 16.3943, 5.38589 16.4493, 5.58054 16.4487, 5.83244 16.4493, 6.07462 16.384, 6.30705 16.2523, 6.53949 16.1212, 6.75361 15.9443, 6.94827 15.721, 7.14349 15.4983, 7.31639 15.239, 7.46753 14.9424, 7.61867 14.6464, 7.73776 14.3424, 7.82535 14.0304, 7.86314 13.8724, 7.9702 13.7928, 8.14653 13.7923 L 8.36294 13.7923 C 8.52667 13.7928, 8.60854 13.8541, 8.60854 13.9755, 8.60854 14.0127, 8.59938 14.0465, 8.57992 14.0762, 8.49232 14.4432, 8.3492 14.805, 8.15111 15.1623, 7.95302 15.5195, 7.7223 15.8356, 7.4578 16.1104, 7.19387 16.3852, 6.89388 16.6113, 6.55724 16.7876, 6.22061 16.9651, 5.8605 17.0533, 5.47692 17.0533, 5.08704 17.0533, 4.7504 16.9697, 4.46758 16.8014, 4.18476 16.6342, 3.95518 16.4155, 3.77885 16.1464, 3.72275 16.08, 3.67866 16.0113, 3.64717 15.9409, 3.61569 15.871, 3.60595 15.8602, 3.61855 15.9083, 3.46741 16.159, 3.22867 16.4126, 2.90177 16.6691, 2.57486 16.9256, 2.19758 17.0533, 1.76934 17.0533, 1.53061 17.0533, 1.29473 17.0229, 1.06229 16.9617, 0.829854 16.901, 0.626613 16.8065, 0.453715 16.6783, 0.280817 16.55, 0.150285 16.3943, 0.0621184 16.2105, 0.0186076 16.1012, -0.00314775 15.9821, -0.00372026 15.8533, -0.00314775 15.7623, 0.00944747 15.6552, 0.0340654 15.5327, 0.103339 15.2585, 0.244749 15.0524, 0.458295 14.915, 0.672414 14.7776, 0.88596 14.7089, 1.10008 14.7083, 1.31992 14.7089, 1.50885 14.7793, 1.66572 14.919, 1.77278 15.0232, 1.82602 15.1577, 1.82602 15.322, 1.82602 15.4079, 1.81343 15.4938, 1.78824 15.5785, 1.73213 15.7926, 1.62965 15.9655, 1.48194 16.0966, 1.33423 16.2283, 1.22889 16.2999, 1.16592 16.3113, 1.28557 16.4098, 1.52774 16.4556, 1.89243 16.4487, 2.21933 16.4493, 2.51475 16.2787, 2.77868 15.9363, 3.04318 15.5945, 3.23497 15.1852, 3.35405 14.7083 L 4.23171 11.3373 C 4.31987 11.0202, 4.38857 10.7087, 4.43896 10.403, 4.45155 10.3057, 4.45785 10.2141, 4.45785 10.1282, 4.45785 9.93927, 4.42979 9.76237, 4.37312 9.59691, 4.31014 9.41428, 4.21281 9.26657, 4.08056 9.15322, 3.94889 9.04043, 3.78515 8.98375, 3.58992 8.98318, 3.33859 8.98375, 3.09527 9.04959, 2.8594 9.1807, 2.62353 9.31237, 2.40826 9.48756, 2.21304 9.70741, 2.01838 9.92725, 1.84549 10.1826, 1.69434 10.4723, 1.5432 10.7625, 1.43328 11.0694, 1.36401 11.3923, 1.2953 11.5578, 1.17851 11.6431, 1.01477 11.6488 L 0.807526 11.6488 C 0.656383 11.6494, 0.580812 11.5732, 0.580812 11.4198 L 0.580812 11.3557 C 0.675276 10.9778, 0.820121 10.6097, 1.01477 10.2524, 1.21 9.89519, 1.44301 9.57916, 1.71324 9.30436, 1.98346 9.02955, 2.28575 8.80513, 2.61895 8.63109, 2.95215 8.45704, 3.31397 8.37002, 3.70328 8.36945, 4.08114 8.37002, 4.41434 8.45246, 4.70345 8.61735, 4.99257 8.78223, 5.22845 9.00207, 5.4105 9.27631, 5.44829 9.34386, 5.48321 9.416, 5.5147 9.49214, 5.54619 9.56886, 5.55535 9.58832, 5.54275 9.55111, 5.70019 9.28318, 5.94237 9.01925, 6.26927 8.75933, 6.59617 8.49998, 6.97002 8.37002, 7.39139 8.36945, 7.6307 8.37002, 7.86829 8.39922, 8.10416 8.45704, 8.34004 8.51544, 8.54385 8.60819, 8.71675 8.73643, 8.88965 8.86467, 9.01731 9.02326, 9.09918 9.21218, 9.14327 9.32268, 9.16502 9.44806, 9.16502 9.58775, 9.16502 9.67992, 9.15243 9.78355, 9.12724 9.8992 Z" stroke="none" fill="#000000" />
			<rect />
		</svg>
	</g>
	<g transform="matrix(1 0 -0 1 16.2766 67.5519)">
		<svg width="29.9820557" height="41.7765884">
			<defs />
			<path d="M 6.57986 16.7693 C 6.44818 17.2823, 6.24036 17.7724, 5.95754 18.2395, 5.67472 18.7067, 5.34095 19.1223, 4.95737 19.4853, 4.57378 19.8488, 4.14326 20.1437, 3.66521 20.3693, 3.18717 20.5954, 2.69023 20.7082, 2.1744 20.7082, 1.86639 20.7082, 1.58357 20.6521, 1.32594 20.5387, 1.06831 20.4259, 0.857624 20.2731, 0.693887 20.0807, 0.530149 19.8883, 0.420227 19.6611, 0.363548 19.3983, 0.338358 19.2826, 0.325763 19.1635, 0.325763 19.041, 0.325763 18.8824, 0.344656 18.7204, 0.382441 18.5555, 0.451715 18.2807, 0.593125 18.0746, 0.806671 17.9372, 1.02079 17.7998, 1.23147 17.7311, 1.43872 17.7311, 1.65914 17.7311, 1.84463 17.8015, 1.9952 17.9418, 2.10226 18.046, 2.1555 18.18, 2.1555 18.3449, 2.1555 18.4124, 2.14291 18.4949, 2.11772 18.5922, 2.04902 18.867, 1.90761 19.0731, 1.69349 19.2105, 1.47994 19.3479, 1.30991 19.4166, 1.18395 19.4166, 1.22174 19.5815, 1.33968 19.7361, 1.53777 19.8792, 1.73585 20.0229, 1.98948 20.0944, 2.29749 20.0944, 2.63698 20.0944, 2.95473 20.0028, 3.25014 19.8196, 3.54556 19.6364, 3.81635 19.3908, 4.06139 19.0823, 4.30642 18.7742, 4.52169 18.417, 4.70718 18.0105, 4.89267 17.6046, 5.0421 17.1787, 5.15546 16.7327 L 5.21213 16.5128 C 5.11824 16.5987, 4.92015 16.7103, 4.61787 16.8472, 4.31616 16.9846, 3.98582 17.0533, 3.62743 17.0533, 3.19976 17.0533, 2.8179 16.9743, 2.48126 16.8151, 2.14463 16.6571, 1.87898 16.4126, 1.68433 16.0823, 1.4954 15.7285, 1.40437 15.338, 1.41067 14.9098 L 1.41067 14.8365 C 1.42326 14.3911, 1.47994 13.9486, 1.58013 13.5083, 1.68089 13.0875, 1.82746 12.6238, 2.01925 12.1165, 2.21104 11.6099, 2.39481 11.1181, 2.57057 10.6412, 2.7595 10.1351, 2.85397 9.71943, 2.85397 9.39539, 2.85397 9.12116, 2.73775 8.98375, 2.50473 8.98318, 2.29119 8.98375, 2.09768 9.04501, 1.92478 9.16696, 1.75188 9.28947, 1.59502 9.45894, 1.45303 9.67535, 1.31162 9.89233, 1.18453 10.1488, 1.07117 10.4448, 0.957814 10.7414, 0.863349 11.0568, 0.787778 11.3923, 0.719077 11.5578, 0.602858 11.6431, 0.43912 11.6488 L 0.222139 11.6488 C 0.070996 11.6494, -0.00457531 11.5732, -0.00457531 11.4198 L -0.00457531 11.3557 C 0.0835912 11.0202, 0.200383 10.6772, 0.344656 10.3257, 0.489501 9.97477, 0.672131 9.65588, 0.891975 9.36848, 1.11182 9.08165, 1.36372 8.84349, 1.64654 8.65399, 1.92936 8.46506, 2.2534 8.37002, 2.61809 8.36945, 2.93297 8.37002, 3.20148 8.43758, 3.42476 8.57155, 3.64804 8.70609, 3.8175 8.88471, 3.93372 9.10742, 4.05051 9.33069, 4.11463 9.58203, 4.12723 9.86256 L 4.12723 9.92668 C 4.12723 10.19, 4.07398 10.4614, 3.96692 10.7419, 3.78487 11.2188, 3.60395 11.706, 3.42476 12.2035, 3.24556 12.7016, 3.10587 13.1488, 3.00511 13.5455, 2.90435 13.9428, 2.83507 14.3361, 2.79729 14.7266, 2.7721 14.8308, 2.75664 14.9442, 2.74977 15.0655, 2.74977 15.3043, 2.79099 15.5396, 2.87286 15.7709, 2.92954 15.9792, 3.03316 16.1441, 3.1843 16.2661, 3.33545 16.3886, 3.51464 16.4493, 3.72189 16.4487, 4.12436 16.4493, 4.47646 16.3302, 4.77817 16.092, 5.08046 15.8539, 5.34438 15.5424, 5.57052 15.1571 L 7.08939 9.24883 C 7.14607 9.02326, 7.26057 8.85723, 7.43347 8.75017, 7.60637 8.64368, 7.78098 8.58987, 7.95674 8.58929, 8.13937 8.58987, 8.29052 8.64483, 8.4096 8.75418, 8.49204 8.83433, 8.53269 8.94081, 8.53269 9.07478, 8.53269 9.14234, 8.52639 9.21276, 8.5138 9.28547 Z" stroke="none" fill="#000000" />
			<rect />
		</svg>
	</g>
	<g transform="matrix(1 0 -0 1 130.241 81.2065)">
		<svg width="213.115585" height="98.9361496">
			<defs />
			<path d="M 6.58759 17.3321 C 6.45591 17.8451, 6.24809 18.3351, 5.96527 18.8023, 5.68245 19.2695, 5.34868 19.6851, 4.9651 20.0481, 4.58151 20.4116, 4.15099 20.7065, 3.67294 20.9321, 3.19489 21.1582, 2.69796 21.271, 2.18155 21.271, 1.87354 21.271, 1.59072 21.2149, 1.33252 21.1015, 1.07489 20.9887, 0.864208 20.8359, 0.70047 20.6435, 0.536732 20.4511, 0.42681 20.2239, 0.370132 19.9611, 0.344941 19.8454, 0.332346 19.7263, 0.332346 19.6038, 0.332346 19.4452, 0.351239 19.2832, 0.389025 19.1183, 0.458298 18.8435, 0.599708 18.6374, 0.813827 18.5, 1.02795 18.3626, 1.23863 18.2939, 1.44588 18.2939, 1.66629 18.2939, 1.85179 18.3643, 2.00236 18.5046, 2.10942 18.6088, 2.16266 18.7428, 2.16266 18.9077, 2.16266 18.9752, 2.15006 19.0577, 2.12487 19.155, 2.05617 19.4298, 1.91476 19.6359, 1.70064 19.7733, 1.48653 19.9107, 1.31706 19.9794, 1.19111 19.9794, 1.2289 20.1443, 1.34683 20.2989, 1.54492 20.442, 1.74301 20.5857, 1.99606 20.6572, 2.30407 20.6572, 2.64414 20.6572, 2.96188 20.5656, 3.2573 20.3824, 3.55329 20.1992, 3.82408 19.9536, 4.06912 19.6451, 4.31415 19.337, 4.52942 18.9798, 4.71491 18.5733, 4.9004 18.1674, 5.04983 17.7415, 5.16318 17.2955 L 5.21986 17.0756 C 5.12597 17.1615, 4.92788 17.2731, 4.6256 17.41, 4.32388 17.5474, 3.99355 17.6161, 3.63458 17.6161, 3.20749 17.6161, 2.82505 17.5371, 2.48842 17.3779, 2.15178 17.2199, 1.88614 16.9754, 1.69091 16.6451, 1.50256 16.2913, 1.41153 15.9008, 1.41725 15.4726 L 1.41725 15.3993 C 1.42985 14.9539, 1.48653 14.5114, 1.58729 14.0711, 1.68805 13.6503, 1.83461 13.1866, 2.0264 12.6793, 2.21819 12.1727, 2.40197 11.6809, 2.57773 11.204, 2.76666 10.6979, 2.86112 10.2822, 2.86112 9.95819, 2.86112 9.68396, 2.7449 9.54655, 2.51189 9.54598, 2.29834 9.54655, 2.10484 9.60781, 1.93194 9.72976, 1.75904 9.85227, 1.6016 10.0217, 1.46019 10.2381, 1.31878 10.4551, 1.19111 10.7116, 1.07775 11.0076, 0.964397 11.3042, 0.870505 11.6196, 0.794934 11.9551, 0.72566 12.1206, 0.609441 12.2059, 0.445703 12.2116 L 0.228722 12.2116 C 0.0775793 12.2122, 0.00200802 12.136, 0.00200802 11.9826 L 0.00200802 11.9185 C 0.0901745 11.583, 0.206967 11.24, 0.351239 10.8885, 0.496084 10.5376, 0.678715 10.2187, 0.898558 9.93128, 1.11897 9.64445, 1.37088 9.40629, 1.6537 9.21679, 1.93652 9.02786, 2.26056 8.93282, 2.62525 8.93225, 2.94013 8.93282, 3.20863 9.00038, 3.43191 9.13435, 3.65519 9.26889, 3.82523 9.44751, 3.94145 9.67021, 4.05824 9.89349, 4.12236 10.1448, 4.13496 10.4254 L 4.13496 10.4895 C 4.13496 10.7528, 4.08171 11.0242, 3.97408 11.3047, 3.79202 11.7816, 3.61168 12.2688, 3.43191 12.7663, 3.25272 13.2644, 3.11303 13.7116, 3.01226 14.1083, 2.9115 14.5056, 2.84223 14.8989, 2.80444 15.2894, 2.77925 15.3936, 2.76379 15.507, 2.7575 15.6283, 2.7575 15.8671, 2.79872 16.1024, 2.88001 16.3337, 2.93669 16.542, 3.04032 16.7069, 3.19146 16.8289, 3.3426 16.9514, 3.5218 17.0121, 3.72905 17.0115, 4.13209 17.0121, 4.48419 16.893, 4.7859 16.6548, 5.08818 16.4167, 5.35211 16.1052, 5.57825 15.7199 L 7.09712 9.81162 C 7.15437 9.58606, 7.26887 9.42003, 7.44177 9.31297, 7.61467 9.20648, 7.78929 9.15267, 7.96505 9.15209, 8.14768 9.15267, 8.29882 9.20763, 8.41847 9.31698, 8.50034 9.39713, 8.54099 9.50361, 8.54099 9.63758, 8.54099 9.70514, 8.53469 9.77556, 8.5221 9.84827 Z" stroke="none" fill="#000000" />
			<polyline points="-6.566 -1.9698 6.566 -1.9698" fill="none" stroke="#000000" stroke-width="0.750400007" stroke-linecap="round" stroke-linejoin="round" transform="matrix(1 0 0 1 20.5454 11.7703)" />
			<polyline points="-6.566 1.9698 6.566 1.9698" fill="none" stroke="#000000" stroke-width="0.750400007" stroke-linecap="round" stroke-linejoin="round" transform="matrix(1 0 0 1 20.5454 11.7703)" />
			<path d="M 41.8949 5.61627 C 41.8261 5.88535, 41.6847 6.09203, 41.4706 6.23516, 41.2565 6.37886, 41.0458 6.45042, 40.838 6.44985, 40.6119 6.45042, 40.4298 6.37084, 40.2913 6.21168, 40.1848 6.10863, 40.1281 5.97695, 40.1212 5.8178, 40.1212 5.75139, 40.1338 5.66551, 40.159 5.56131, 40.2283 5.33002, 40.3462 5.14682, 40.5128 5.01228, 40.68 4.87831, 40.8042 4.80445, 40.8855 4.79186, 40.7664 4.65789, 40.5306 4.59091, 40.1779 4.59034, 39.9706 4.59091, 39.7726 4.77125, 39.5836 5.13078, 39.5458 5.18632, 39.5035 5.30998, 39.4565 5.50234, 39.4096 5.69471, 39.3558 5.93001, 39.2962 6.20768, 39.2367 6.48592, 39.1749 6.78019, 39.1119 7.09163, 39.0489 7.40308, 38.9928 7.7025, 38.9424 7.98875 L 38.7065 9.15209, 40.4327 9.15209 C 40.5964 9.15267, 40.6777 9.23511, 40.6777 9.39942 L 40.6777 9.46354, 40.6399 9.62842 C 40.5712 9.8122, 40.4487 9.9038, 40.2724 9.90323 L 38.5554 9.90323, 37.6497 14.465 C 37.5621 14.8932, 37.4676 15.3495, 37.3669 15.835, 37.2661 16.3205, 37.1562 16.8031, 37.0365 17.2823, 36.9174 17.7615, 36.7806 18.2149, 36.6266 18.642, 36.4726 19.0697, 36.3077 19.4424, 36.1314 19.7596, 36.0249 19.937, 35.9035 20.1157, 35.7684 20.2954, 35.6333 20.4758, 35.4839 20.6361, 35.3201 20.7763, 35.1564 20.9172, 34.9789 21.0345, 34.7871 21.129, 34.5954 21.224, 34.3892 21.271, 34.1688 21.271, 33.9244 21.271, 33.6948 21.2315, 33.4807 21.1519, 33.2671 21.0729, 33.0834 20.963, 32.9288 20.8221, 32.7753 20.6819, 32.6603 20.5107, 32.5841 20.3092, 32.5601 20.1992, 32.5475 20.0893, 32.5469 19.9794, 32.5475 19.8758, 32.5601 19.763, 32.5841 19.6405, 32.654 19.3657, 32.7988 19.1596, 33.0187 19.0222, 33.2391 18.8848, 33.4561 18.8161, 33.669 18.8161, 33.89 18.8161, 34.0721 18.8893, 34.2164 19.0359, 34.3234 19.1401, 34.3767 19.2712, 34.3767 19.4298, 34.3767 19.4973, 34.3641 19.5826, 34.3389 19.6863, 34.2702 19.9187, 34.1505 20.1048, 33.981 20.245, 33.8116 20.3859, 33.6856 20.462, 33.6032 20.474, 33.7108 20.5966, 33.9307 20.6572, 34.2633 20.6572, 34.427 20.6572, 34.5799 20.5656, 34.7213 20.3824, 34.8627 20.1992, 34.9772 19.9491, 35.0654 19.6313, 35.2852 18.8865, 35.485 18.0609, 35.6642 17.1541, 35.844 16.2472, 36.0215 15.3633, 36.1972 14.5016 L 37.131 9.90323, 35.7163 9.90323 C 35.6219 9.9038, 35.5526 9.87346, 35.5085 9.81162, 35.4707 9.77556, 35.4518 9.72976, 35.4518 9.67422, 35.4518 9.63815, 35.4616 9.60438, 35.4805 9.57346 L 35.5085 9.43606 C 35.528 9.35705, 35.5703 9.29007, 35.6362 9.23511, 35.7026 9.18015, 35.773 9.15267, 35.848 9.15209 L 37.2821 9.15209, 37.4991 8.00707 C 37.5369 7.76948, 37.5873 7.50727, 37.6503 7.21987, 37.7132 6.93305, 37.7882 6.64736, 37.8764 6.3634, 37.9646 6.07943, 38.0636 5.80635, 38.1735 5.54356, 38.2835 5.28135, 38.4174 5.05808, 38.5743 4.8743, 38.801 4.61209, 39.0621 4.3974, 39.3575 4.22908, 39.6529 4.06134, 39.9643 3.97718, 40.2913 3.97661, 40.5363 3.97718, 40.7704 4.01382, 40.9937 4.0871, 41.217 4.16038, 41.4059 4.26744, 41.5599 4.40771, 41.7145 4.54854, 41.8227 4.71629, 41.8851 4.91094, 41.9298 5.00941, 41.9515 5.1222, 41.9515 5.24987, 41.9515 5.35406, 41.9326 5.47658, 41.8949 5.61627 Z" stroke="none" fill="#000000" />
			<path d="M 61.1202 10.462 C 61.0515 10.7374, 60.9113 10.9435, 60.7006 11.0809, 60.4899 11.2183, 60.2781 11.287, 60.0639 11.2864, 59.8441 11.287, 59.6615 11.2166, 59.5166 11.0757, 59.4101 10.9727, 59.3535 10.8381, 59.3466 10.6727, 59.3466 10.6063, 59.3592 10.5204, 59.3844 10.4162, 59.4542 10.1849, 59.5613 10.0091, 59.7056 9.89006, 59.8504 9.77098, 59.9512 9.70228, 60.0073 9.68338, 59.8882 9.59235, 59.6426 9.54655, 59.2716 9.54598, 58.9447 9.54655, 58.6521 9.71602, 58.3945 10.0549, 58.1369 10.3939, 57.9445 10.8015, 57.8186 11.2772 L 56.9506 14.6299 C 56.863 14.9665, 56.7972 15.2871, 56.7526 15.5917, 56.7279 15.6959, 56.7153 15.7875, 56.7153 15.8665, 56.7153 16.0566, 56.7468 16.2363, 56.8092 16.4069, 56.8722 16.5907, 56.9667 16.7373, 57.0926 16.8472, 57.2186 16.9571, 57.3789 17.0121, 57.5735 17.0115, 57.8254 17.0121, 58.0676 16.9468, 58.3 16.8151, 58.5325 16.684, 58.7466 16.5071, 58.9413 16.2838, 59.1365 16.0611, 59.3094 15.8018, 59.4605 15.5052, 59.6117 15.2092, 59.7307 14.9052, 59.8183 14.5932, 59.8561 14.4352, 59.9632 14.3556, 60.1395 14.3551 L 60.3559 14.3551 C 60.5197 14.3556, 60.6015 14.4169, 60.6015 14.5383, 60.6015 14.5755, 60.5924 14.6093, 60.5729 14.639, 60.4853 15.006, 60.3422 15.3678, 60.1441 15.7251, 59.946 16.0823, 59.7153 16.3983, 59.4508 16.6732, 59.1869 16.948, 58.8869 17.1741, 58.5502 17.3504, 58.2136 17.5279, 57.8535 17.6161, 57.4699 17.6161, 57.08 17.6161, 56.7434 17.5325, 56.4606 17.3642, 56.1778 17.197, 55.9482 16.9783, 55.7718 16.7092, 55.7157 16.6428, 55.6717 16.5741, 55.6402 16.5037, 55.6087 16.4338, 55.5989 16.423, 55.6115 16.4711, 55.4604 16.7218, 55.2217 16.9754, 54.8948 17.2319, 54.5679 17.4884, 54.1906 17.6161, 53.7623 17.6161, 53.5236 17.6161, 53.2877 17.5857, 53.0553 17.5245, 52.8228 17.4638, 52.6196 17.3693, 52.4467 17.2411, 52.2738 17.1128, 52.1433 16.9571, 52.0551 16.7733, 52.0116 16.664, 51.9898 16.5449, 51.9893 16.4161, 51.9898 16.3251, 52.0024 16.218, 52.0271 16.0955, 52.0963 15.8213, 52.2377 15.6152, 52.4513 15.4778, 52.6654 15.3404, 52.879 15.2717, 53.0931 15.2711, 53.3129 15.2717, 53.5018 15.3421, 53.6587 15.4818, 53.7658 15.586, 53.819 15.7205, 53.819 15.8848, 53.819 15.9707, 53.8064 16.0566, 53.7812 16.1413, 53.7251 16.3554, 53.6226 16.5283, 53.4749 16.6594, 53.3272 16.7911, 53.2219 16.8627, 53.1589 16.8741, 53.2786 16.9726, 53.5207 17.0184, 53.8854 17.0115, 54.2123 17.0121, 54.5077 16.8415, 54.7717 16.4991, 55.0362 16.1573, 55.228 15.748, 55.347 15.2711 L 56.2247 11.9001 C 56.3129 11.583, 56.3816 11.2715, 56.4319 10.9658, 56.4445 10.8685, 56.4508 10.7769, 56.4508 10.691, 56.4508 10.5021, 56.4228 10.3252, 56.3661 10.1597, 56.3031 9.97708, 56.2058 9.82937, 56.0736 9.71602, 55.9419 9.60323, 55.7781 9.54655, 55.5829 9.54598, 55.3316 9.54655, 55.0883 9.61239, 54.8524 9.7435, 54.6165 9.87517, 54.4013 10.0504, 54.206 10.2702, 54.0114 10.49, 53.8385 10.7454, 53.6873 11.0351, 53.5362 11.3253, 53.4263 11.6322, 53.357 11.9551, 53.2883 12.1206, 53.1715 12.2059, 53.0078 12.2116 L 52.8005 12.2116 C 52.6494 12.2122, 52.5738 12.136, 52.5738 11.9826 L 52.5738 11.9185 C 52.6683 11.5406, 52.8131 11.1725, 53.0078 10.8152, 53.203 10.458, 53.436 10.142, 53.7062 9.86716, 53.9765 9.59235, 54.2787 9.36793, 54.6119 9.19389, 54.9451 9.01984, 55.307 8.93282, 55.6963 8.93225, 56.0741 8.93282, 56.4073 9.01526, 56.6964 9.18015, 56.9856 9.34503, 57.2214 9.56487, 57.4035 9.8391, 57.4413 9.90666, 57.4762 9.9788, 57.5077 10.0549, 57.5392 10.1317, 57.5483 10.1511, 57.5357 10.1139, 57.6932 9.84597, 57.9354 9.58205, 58.2623 9.32213, 58.5892 9.06278, 58.963 8.93282, 59.3844 8.93225, 59.6237 8.93282, 59.8613 8.96202, 60.0972 9.01984, 60.333 9.07824, 60.5368 9.17099, 60.7097 9.29923, 60.8826 9.42747, 61.0103 9.58606, 61.0922 9.77498, 61.1363 9.88548, 61.158 10.0109, 61.158 10.1506, 61.158 10.2427, 61.1454 10.3463, 61.1202 10.462 Z" stroke="none" fill="#000000" />
			<path d="M 1.5467 8.95625 C -4.56906 4.92594, -4.56906 -4.92594, 1.5467 -8.95625 L 2.50721 -8.95625 C -3.00823 -4.92594, -3.00823 4.92594, 2.50721 8.95625" stroke="none" fill="#000000" transform="matrix(1 0 -0 1 48.5224 11.7703)" />
			<path d="M 1.5467 8.95625 C -4.56906 4.92594, -4.56906 -4.92594, 1.5467 -8.95625 L 2.50721 -8.95625 C -3.00823 -4.92594, -3.00823 4.92594, 2.50721 8.95625" stroke="none" fill="#000000" transform="matrix(-1 1.50996e-007 -1.50996e-007 -1 64.6323 11.7703)" />
			<rect />
		</svg>
	</g>
	<g transform="matrix(1 0 -0 1 47.2372 160.953)">
		<svg width="29.9820557" height="32.8723297">
			<defs />
			<path d="M 8.46055 14.0579 C 8.38498 14.3579, 8.30025 14.6785, 8.20578 15.0203, 8.11189 15.3627, 7.98594 15.6798, 7.8285 15.973, 7.67163 16.2661, 7.47354 16.5197, 7.23423 16.7332, 6.9955 16.9468, 6.69665 17.0533, 6.33826 17.0533, 5.86021 17.0533, 5.47835 16.921, 5.19209 16.6554, 4.90584 16.3897, 4.74095 16.1195, 4.69687 15.8441, 4.48333 16.0892, 4.16444 16.352, 3.73964 16.6325, 3.31483 16.913, 2.86656 17.0533, 2.39481 17.0533, 1.89844 17.0533, 1.48223 16.9285, 1.14559 16.6783, 0.808958 16.4281, 0.546749 16.1132, 0.35782 15.7342, 0.131106 15.2831, 0.011452 14.7976, -0.00114328 14.2778 L -0.00114328 14.1403 C -0.00114328 13.6583, 0.0652679 13.1762, 0.196945 12.693, 0.348088 12.1623, 0.559344 11.6373, 0.829568 11.1181, 1.09979 10.5994, 1.45818 10.1167, 1.90474 9.67019, 2.26943 9.30436, 2.68622 8.99635, 3.15453 8.74559, 3.62284 8.4954, 4.09917 8.37002, 4.58351 8.36945, 5.00488 8.37002, 5.34782 8.48166, 5.61174 8.70437, 5.87624 8.92765, 6.04284 9.112, 6.11154 9.25799 L 6.07376 9.41371 C 6.11841 9.18814, 6.22375 9.01753, 6.39036 8.90131, 6.55696 8.78566, 6.72527 8.72727, 6.89474 8.7267, 7.08996 8.72727, 7.2537 8.78509, 7.38538 8.90074, 7.46725 8.99291, 7.51133 9.11486, 7.51705 9.26715, 7.51705 9.32268, 7.51076 9.38394, 7.49816 9.45035 L 6.14017 14.7449 C 6.07719 14.9957, 6.03311 15.231, 6.00792 15.4503, 5.99532 15.5607, 5.98903 15.6615, 5.98903 15.7525, 5.98903 15.8327, 5.99532 15.918, 6.00792 16.009, 6.02681 16.1562, 6.07089 16.2661, 6.14017 16.3394, 6.20944 16.4126, 6.30677 16.4493, 6.43215 16.4487, 6.5644 16.4493, 6.68863 16.3943, 6.80485 16.2844, 6.92164 16.1745, 7.0287 16.0113, 7.12603 15.7943, 7.22336 15.5779, 7.3161 15.318, 7.40427 15.0157, 7.49244 14.7134, 7.58347 14.3854, 7.67736 14.0304, 7.71514 13.8724, 7.8222 13.7928, 7.99853 13.7923 L 8.21552 13.7923 C 8.37925 13.7928, 8.46055 13.8598, 8.46055 13.9938 L 8.46055 14.0579 Z M 5.76288 10.687 C 5.73769 10.5776, 5.71594 10.4631, 5.69705 10.344, 5.67815 10.225, 5.64953 10.1076, 5.61174 9.9908, 5.51098 9.70454, 5.36785 9.46466, 5.18236 9.2723, 4.99687 9.07994, 4.76271 8.98375, 4.47989 8.98318, 4.21596 8.98375, 3.9549 9.07879, 3.69727 9.26772, 3.43964 9.45722, 3.20319 9.70111, 2.98908 9.99996, 2.68793 10.4219, 2.46179 10.8604, 2.31065 11.315, 2.15951 11.7702, 2.02096 12.2448, 1.89501 12.7388, 1.76963 13.2278, 1.66601 13.7012, 1.58356 14.1587, 1.53376 14.3911, 1.50856 14.611, 1.50856 14.8182, 1.50856 15.0386, 1.53376 15.2522, 1.58356 15.4594, 1.64081 15.7468, 1.74272 15.9838, 1.89043 16.1699, 2.03814 16.3565, 2.24424 16.4493, 2.50817 16.4487, 2.79786 16.4493, 3.08869 16.3485, 3.38067 16.147, 3.67322 15.9455, 3.94517 15.6981, 4.1965 15.4045, 4.29726 15.2831, 4.39344 15.1657, 4.48447 15.0524, 4.57607 14.9396, 4.65622 14.8188, 4.72492 14.69 L 5.76288 10.687 Z" stroke="none" fill="#000000" />
			<rect />
		</svg>
	</g>
	<g transform="matrix(1 0 -0 1 214.486 137.277)">
		<svg width="23.9541492" height="48.0957298">
			<defs />
			<path d="M 6.63739 12.748 C 6.48625 13.2799, 6.27442 13.8054, 6.00076 14.3241, 5.7271 14.8434, 5.37043 15.3226, 4.9296 15.7617, 4.56491 16.1287, 4.15155 16.4355, 3.68897 16.6829, 3.22695 16.9302, 2.74719 17.0533, 2.25025 17.0533, 1.7722 17.0533, 1.37259 16.9256, 1.05199 16.6691, 0.731382 16.4126, 0.485775 16.0949, 0.31574 15.7159, 0.114789 15.2648, 0.00772941 14.7793, -0.00486588 14.2594 L -0.00486588 14.1403 C -0.00486588 13.6583, 0.0581102 13.1791, 0.184062 12.7022 L 2.08021 5.32828 C 2.1306 5.12733, 2.16208 4.97447, 2.17468 4.87027 L 2.17468 4.84279 C 2.17468 4.7884, 2.16208 4.7489, 2.13689 4.72371, 2.06132 4.67562, 1.91991 4.64184, 1.71209 4.62352, 1.50484 4.6052, 1.26553 4.59604, 0.995309 4.59547, 0.901417 4.59604, 0.832143 4.56569, 0.787488 4.50386, 0.749702 4.4678, 0.730809 4.422, 0.730809 4.36646, 0.730809 4.33039, 0.740542 4.29662, 0.759435 4.2657 L 0.787488 4.11914 C 0.837869 3.97315, 0.951226 3.88155, 1.12756 3.84433 L 3.62771 3.64281, 3.66549 3.64281 C 3.74107 3.64338, 3.80347 3.668, 3.85385 3.71609, 3.87904 3.76533, 3.89164 3.81456, 3.89164 3.86265, 3.89164 3.89987, 3.88248 3.93364, 3.86358 3.96342 L 2.50502 9.23967 C 2.64356 9.09997, 2.89833 8.91963, 3.26932 8.69979, 3.6403 8.47994, 4.03018 8.37002, 4.43895 8.36945, 4.93589 8.37002, 5.35612 8.49827, 5.69848 8.75475, 6.04141 9.01123, 6.30419 9.32554, 6.48625 9.69767, 6.70037 10.15, 6.81315 10.6389, 6.82575 11.1633 L 6.82575 11.2915 C 6.82575 11.7621, 6.76334 12.2476, 6.63739 12.748 Z M 5.26909 9.96332 C 5.21299 9.67076, 5.10593 9.43432, 4.94849 9.25398, 4.79162 9.07421, 4.58723 8.98375, 4.33533 8.98318, 4.03362 8.98375, 3.7382 9.08165, 3.44851 9.27688, 3.1594 9.47268, 2.8886 9.71943, 2.63669 10.0183, 2.44204 10.269, 2.27201 10.5043, 2.12716 10.7236 L 1.60847 12.7388 C 1.48251 13.2278, 1.38862 13.6984, 1.32565 14.1495, 1.30046 14.3396, 1.28786 14.5194, 1.28786 14.69, 1.28786 14.959, 1.31935 15.2155, 1.38233 15.4594, 1.4516 15.7411, 1.5661 15.9764, 1.7264 16.1653, 1.88671 16.3548, 2.09911 16.4493, 2.36303 16.4487, 2.62753 16.4493, 2.89032 16.352, 3.15138 16.1562, 3.41244 15.9609, 3.6466 15.7165, 3.85385 15.4228, 4.15614 15.014, 4.38399 14.5795, 4.538 14.118, 4.69258 13.6572, 4.83227 13.1854, 4.95765 12.7022, 5.0836 12.2018, 5.1941 11.7198, 5.28799 11.2549, 5.32577 11.0356, 5.34467 10.8221, 5.34467 10.6137, 5.34467 10.3944, 5.31947 10.1774, 5.26909 9.96332 Z" stroke="none" fill="#000000" />
			<rect />
		</svg>
	</g>
</svg>
