<svg width="1431" height="1123" xmlns="http://www.w3.org/2000/svg" xmlns:xlink="http://www.w3.org/1999/xlink" xml:space="preserve" overflow="hidden"><g transform="translate(-1315 -539)"><g><g><g><path d="M31.7018 33.9585C31.7018 36.8243 30.7346 39.2959 28.8003 41.3735 26.8659 43.4511 24.0719 44.49 20.4181 44.49 17.839 44.49 15.618 44.0243 13.7554 43.093 11.6061 41.7317 10.5314 39.869 10.5314 37.5048 10.4598 37.1467 10.4598 36.6809 10.5314 36.1078 10.6031 35.5347 11.1762 34.675 12.2509 33.5287 13.3255 32.3824 14.8658 31.4869 16.8718 30.8421 18.1614 30.4839 19.7375 30.1615 21.6002 29.8749 23.4629 29.5883 25.039 29.2659 26.3286 28.9077 27.6182 28.5496 28.7645 28.0838 29.7675 27.5107 30.9853 26.9376 32.1674 26.2212 33.3138 25.3614 34.4601 24.5017 35.6063 23.033 36.7526 20.9554 37.8989 18.8778 38.5078 16.6569 38.5795 14.2927 38.5795 9.85085 37.2182 6.19708 34.4959 3.33138 31.7735 0.465676 27.3675-1.00299 21.2778-1.07464L20.4181-1.07464C16.6927-1.07464 13.2538 0.214927 10.1016 2.79406L9.24188 2.04181 8.27471 1.07464C7.84485 0.644782 7.415 0.250748 6.98514-0.107464L5.80304-1.1821 4.94333-1.1821 4.51348-1.1821C4.29855-1.1821 3.97616-0.967174 3.5463-0.537319L3.5463 7.95232 3.5463 14.1852C3.5463 15.6897 3.61795 16.5852 3.76123 16.8718 3.90451 17.1584 4.26273 17.3374 4.83587 17.4091L5.80304 17.4091C6.66275 17.4091 7.23589 17.2659 7.52246 16.9793 7.80903 16.6927 7.98813 16.2628 8.05978 15.6897 8.13143 15.1166 8.38217 14.1494 8.81203 12.7882 9.24188 11.4269 9.92248 9.92248 10.8538 8.27471 13.3613 4.62094 16.836 2.79406 21.2778 2.79406 28.2272 2.79406 31.7018 5.58811 31.7018 11.1762 31.7018 13.2538 31.057 14.9375 29.7675 16.227 28.3346 17.9464 25.3614 19.236 20.848 20.0957 16.3345 20.9554 13.3613 21.7794 11.9285 22.5674 9.34934 23.7853 7.30753 25.4331 5.80304 27.5107 4.29855 29.5883 3.5463 31.8093 3.5463 34.1735 3.5463 36.9675 4.15527 39.3317 5.37319 41.2661 6.59111 43.2004 8.13143 44.6332 9.99413 45.5646 11.8568 46.496 13.6479 47.1408 15.3673 47.499 17.0867 47.8571 18.6629 48.0363 20.0957 48.0363L21.2778 48.0363C24.1436 48.0363 26.651 47.499 28.8003 46.4243L30.4122 45.5646 31.3794 46.3169C32.0959 46.9617 32.8839 47.5706 33.7436 48.1438L34.6033 48.1438 35.0332 48.1438C35.2481 48.1438 35.5705 47.9288 36.0004 47.499L36.0004 33.3138 35.3556 32.669 32.3466 32.669C31.9167 33.0988 31.7018 33.5287 31.7018 33.9585Z" transform="matrix(1.00211 0 0 -1 1315.08 717.139)"/><path d="M7.415 65.4454C7.415 67.4514 8.05978 69.0275 9.34934 70.1738 10.6389 71.3201 12.2151 71.8932 14.0777 71.8932 15.7255 71.75 17.1584 71.141 18.3763 70.0664 19.5942 68.9917 20.2032 67.4514 20.2032 65.4454 20.2032 63.2961 19.5942 61.6842 18.3763 60.6095 17.1584 59.5349 15.6539 58.9976 13.8628 58.9976 12.0717 58.9976 10.5673 59.5349 9.34934 60.6095 8.13143 61.6842 7.48664 63.2961 7.415 65.4454ZM26.5435 0C25.4689 0.214927 21.7435 0.322391 15.3673 0.322391 14.5793 0.322391 13.2538 0.322391 11.3912 0.322391 9.52845 0.322391 7.73739 0.250748 6.01797 0.107464L3.65377 0 2.79406 0 2.79406 4.94333 4.51348 4.94333C6.51947 4.94333 8.27471 5.0508 9.7792 5.26572 10.424 5.5523 10.8181 5.94632 10.9613 6.44782 11.1045 6.94933 11.1762 8.45382 11.1762 10.9613L11.1762 22.0301 11.1762 31.4869C11.1762 35.2123 11.1045 37.5765 10.9613 38.5795 10.8181 39.5824 10.3165 40.2631 9.45681 40.6213 8.45382 41.1228 6.77022 41.3735 4.40601 41.3735L3.22391 41.3735 3.22391 43.8452C3.22391 45.4929 3.29556 46.3169 3.43884 46.3169L4.51348 46.4243C5.22991 46.496 6.2329 46.5676 7.52246 46.6393 8.81203 46.7109 10.1016 46.7825 11.3912 46.8542 12.609 46.9259 13.8986 46.9974 15.2598 47.0691 16.6211 47.1408 17.6598 47.2483 18.3763 47.3915 19.0928 47.5348 19.4867 47.5706 19.5584 47.499L19.8808 47.499 19.8808 6.66275C20.239 5.94632 20.6688 5.51647 21.1704 5.37319 21.6719 5.22991 22.9256 5.08661 24.9316 4.94333L27.4033 4.94333 27.4033 0 26.5435 0Z" transform="matrix(1.00211 0 0 -1 1358.05 717.139)"/><path d="M4.40601 4.94333 5.91051 4.94333C8.70456 4.94333 10.3882 5.44483 10.9613 6.44782L10.9613 7.30753C10.9613 7.95232 10.9613 8.77621 10.9613 9.7792 10.9613 10.7822 10.9613 11.8927 10.9613 13.1106 10.9613 14.3285 10.9971 15.7255 11.0688 17.3017 11.1404 18.8778 11.1404 20.3823 11.0688 21.8151 11.0688 24.0361 11.0688 26.4003 11.0688 28.9077 11.0688 31.4152 11.033 33.5287 10.9613 35.2481L10.9613 37.7198C10.7464 39.081 10.2449 39.9765 9.45681 40.4064 8.66875 40.8362 7.05679 41.1586 4.62094 41.3735L2.68659 41.3735 2.68659 43.8452C2.68659 45.4929 2.75824 46.3169 2.90152 46.3169L3.97616 46.4243C4.69259 46.496 5.69558 46.5676 6.98514 46.6393 8.27471 46.7109 9.60009 46.7825 10.9613 46.8542 12.1792 46.9259 13.4688 46.9974 14.83 47.0691 16.1912 47.1408 17.23 47.2483 17.9464 47.3915 18.6629 47.5348 19.0569 47.5706 19.1285 47.499L19.4509 47.499 19.4509 43.2004C19.4509 40.478 19.4867 39.1168 19.5584 39.1168 19.6301 39.1168 19.8091 39.2959 20.0957 39.6541 20.3823 40.0123 20.8122 40.5496 21.3853 41.2661 21.9584 41.9825 22.6391 42.6273 23.4271 43.2004 24.2151 43.7735 25.254 44.4542 26.5435 45.2422 27.8331 46.0303 29.1943 46.6035 30.6272 46.9617 32.06 47.3198 33.8869 47.499 36.1078 47.499 44.2751 47.2124 48.8243 43.1646 49.7557 35.3556 49.8274 34.854 49.8632 29.8749 49.8632 20.4181L49.8632 11.1762C49.8632 8.45382 49.9348 6.84186 50.0781 6.34036 50.2213 5.83886 50.6154 5.48065 51.2602 5.26572 52.7647 5.0508 54.5199 4.94333 56.5259 4.94333L58.2453 4.94333 58.2453 0 57.3856 0 54.8065 0.107464C53.1588 0.179107 51.3677 0.214927 49.4333 0.214927 47.499 0.214927 46.1377 0.250748 45.3497 0.322391 37.9705 0.322391 33.9585 0.214927 33.3138 0L32.454 0 32.454 4.94333 34.1735 4.94333C38.5437 4.94333 40.7288 5.51647 40.7288 6.66275 40.8004 6.80603 40.8362 11.7493 40.8362 21.4927 40.7645 31.1645 40.693 36.287 40.6213 36.8601 40.1914 38.8661 39.475 40.3706 38.472 41.3735 37.4691 42.3765 36.6093 42.9855 35.8929 43.2004 35.1764 43.4153 34.2451 43.487 33.0988 43.4153 29.8749 43.4153 27.0451 42.1975 24.6092 39.7616 22.6748 37.8272 21.457 35.8571 20.9554 33.8511 20.4539 31.8451 20.1674 28.872 20.0957 24.9316L20.0957 18.0539 20.0957 11.6061C20.0957 9.45681 20.1315 8.02396 20.2032 7.30753 20.2749 6.59111 20.3823 6.12543 20.5256 5.91051 20.6688 5.69558 20.9912 5.48065 21.4927 5.26572 22.9972 5.0508 24.7524 4.94333 26.7585 4.94333L28.4779 4.94333 28.4779 0 27.6182 0 25.1465 0.107464C23.4271 0.179107 21.6002 0.214927 19.6659 0.214927 17.7315 0.214927 16.3703 0.250748 15.5822 0.322391 8.20306 0.322391 4.19109 0.214927 3.5463 0L2.68659 0 2.68659 4.94333 4.40601 4.94333Z" transform="matrix(1.00211 0 0 -1 1388.53 717.139)"/><path d="M2.79406 41.3735C2.29256 41.8751 2.04181 42.2332 2.04181 42.4482 2.04181 42.7348 2.14927 43.3079 2.3642 44.1676 2.57913 45.0273 2.75824 45.5288 2.90152 45.6721 3.0448 46.0303 3.36719 46.2094 3.86869 46.2094 4.3702 46.2094 6.19708 46.2452 9.34934 46.3169L15.0449 46.3169 17.0867 54.914C17.3017 55.702 17.5524 56.7409 17.839 58.0304 18.1256 59.32 18.3763 60.2514 18.5912 60.8245 18.8062 61.3976 19.0211 62.114 19.236 62.9737 19.4509 63.8335 19.7375 64.4425 20.0957 64.8006 20.4539 65.1588 20.8122 65.5887 21.1704 66.0902 21.5285 66.5917 22.0301 66.9141 22.6748 67.0574 23.3196 67.2006 23.9644 67.2723 24.6092 67.2723 25.8988 67.2006 26.7943 66.8067 27.2958 66.0902 27.7973 65.3737 28.048 64.6932 28.048 64.0484 28.048 63.5469 27.7256 61.8633 27.0809 58.9976 26.4361 56.1319 25.7196 53.302 24.9316 50.508L23.8569 46.5318C23.8569 46.3885 25.648 46.3169 29.2301 46.3169L34.7108 46.3169C35.2123 45.8153 35.463 45.4214 35.463 45.1348 35.463 43.5586 34.9974 42.3049 34.066 41.3735L22.5674 41.3735 18.6987 25.7913C15.9046 14.3285 14.5076 8.16724 14.5076 7.30753 14.5076 4.29855 15.4748 2.79406 17.4091 2.79406 19.9166 2.79406 22.3525 4.01198 24.7167 6.44782 27.0809 8.88367 28.9794 11.8927 30.4122 15.4748 30.5555 15.9046 30.7346 16.1553 30.9496 16.227 31.1645 16.2987 31.7018 16.3703 32.5615 16.442L32.9914 16.442C34.066 16.442 34.6033 16.1553 34.6033 15.5822 34.6033 15.3673 34.4959 14.9375 34.2809 14.2927 33.9228 13.1464 33.278 11.7852 32.3466 10.2091 31.4152 8.63292 30.1973 6.94933 28.6928 5.15826 27.1883 3.36719 25.3614 1.8627 23.2122 0.644782 21.0629-0.57314 18.8778-1.1821 16.6569-1.1821 14.5076-1.1821 12.4658-0.644782 10.5314 0.429855 8.5971 1.50449 7.20007 3.36719 6.34036 6.01797 6.19708 6.59111 6.12543 7.55828 6.12543 8.91949L6.12543 10.8538 9.88666 25.8988C12.3941 36.0004 13.6837 41.0869 13.7554 41.1586 13.7554 41.3019 11.9285 41.3735 8.27471 41.3735L2.79406 41.3735Z" transform="matrix(1.00211 0 0 -1 1466.82 717.139)"/><path d="M6.01797 37.2899C6.01797 38.2213 6.51947 38.9377 7.52246 39.4392L75.9769 39.4392C77.0515 38.8661 77.5888 38.1496 77.5888 37.2899 77.5888 36.5019 77.0873 35.8212 76.0843 35.2481L41.9109 35.1406 7.73739 35.1406C6.59111 35.4988 6.01797 36.2153 6.01797 37.2899ZM6.01797 16.442C6.01797 17.5166 6.59111 18.233 7.73739 18.5912L76.0843 18.5912C77.0873 17.8748 77.5888 17.1584 77.5888 16.442 77.5888 15.5106 77.0515 14.7942 75.9769 14.2927L7.52246 14.2927C6.51947 14.7942 6.01797 15.5106 6.01797 16.442Z" transform="matrix(1.00211 0 0 -1 1536.17 717.139)"/><path d="M0 23.642 74.9022 23.642 74.9022 30.0898 0 30.0898Z" transform="matrix(1.00211 0 0 -1 1663.24 717.139)"/><path d="M5.58811 31.057C6.08961 34.066 8.02396 37.5406 11.3912 41.481 14.7583 45.4214 18.9136 47.4273 23.8569 47.499 26.3644 47.499 28.657 46.8542 30.7346 45.5646 32.8122 44.2751 34.3526 42.6631 35.3556 40.7288 38.3646 45.2422 41.9825 47.499 46.2094 47.499 48.8602 47.499 51.1527 46.7109 53.0871 45.1348 55.0214 43.5586 56.0244 41.4452 56.0961 38.7944 56.0961 36.7168 55.5945 35.0332 54.5916 33.7436 53.5886 32.454 52.6214 31.666 51.6901 31.3794 50.7587 31.0928 49.9348 30.9496 49.2184 30.9496 47.8571 30.9496 46.7467 31.3436 45.887 32.1317 45.0273 32.9197 44.5975 33.9585 44.5975 35.2481 44.5975 38.5437 46.3885 40.8004 49.9706 42.0183 49.1826 42.9497 47.7497 43.4153 45.6721 43.4153 44.7407 43.4153 44.0601 43.3437 43.6303 43.2004 40.9079 42.0541 38.9019 39.6899 37.6123 36.1078 33.3138 20.2749 31.1645 11.033 31.1645 8.38217 31.1645 6.37618 31.7376 4.94333 32.8839 4.08362 34.0302 3.22391 35.2839 2.79406 36.6451 2.79406 39.2959 2.79406 41.9109 3.97616 44.49 6.34036 47.0691 8.70456 48.8243 11.6061 49.7557 15.0449 49.9706 15.7614 50.1856 16.1553 50.4005 16.227 50.6154 16.2987 51.1885 16.3703 52.1199 16.442L52.5498 16.442C53.6244 16.442 54.1617 16.1553 54.1617 15.5822 54.1617 15.5106 54.09 15.1166 53.9468 14.4001 52.8005 10.3165 50.5796 6.69857 47.284 3.5463 43.9885 0.394034 40.1557-1.1821 35.7854-1.1821 30.7704-1.1821 26.9734 1.07464 24.3943 5.58811 21.457 1.14628 18.0897-1.07464 14.2927-1.07464L13.6479-1.07464C10.1374-1.07464 7.62992-0.143285 6.12543 1.71942 4.62094 3.58212 3.83288 5.5523 3.76123 7.62992 3.76123 9.92248 4.44183 11.7852 5.80304 13.218 7.16425 14.6509 8.77621 15.3673 10.6389 15.3673 13.7196 15.3673 15.2598 13.8628 15.2598 10.8538 15.2598 9.42099 14.83 8.16724 13.9703 7.09261 13.1106 6.01797 12.2867 5.30154 11.4986 4.94333 10.7106 4.58512 10.2449 4.40601 10.1016 4.40601L9.7792 4.29855C9.7792 4.2269 9.99413 4.08362 10.424 3.86869 10.8538 3.65377 11.4269 3.40302 12.1434 3.11645 12.8599 2.82987 13.5404 2.72241 14.1852 2.79406 16.7643 2.79406 18.9853 4.40601 20.848 7.62992 21.4927 8.77621 22.3167 11.212 23.3196 14.9375 24.3226 18.6629 25.3257 22.5316 26.3286 26.5435 27.3316 30.5555 27.9048 32.9197 28.048 33.6361 28.4062 35.5705 28.5854 36.9675 28.5854 37.8272 28.5854 39.8333 28.048 41.2661 26.9734 42.1258 25.8988 42.9855 24.6809 43.4153 23.3196 43.4153 20.4539 43.4153 17.7673 42.269 15.2598 39.9765 12.7524 37.684 10.9971 34.7466 9.99413 31.1645 9.85085 30.5197 9.67174 30.1615 9.45681 30.0898 9.24188 30.0182 8.66875 29.9466 7.73739 29.8749L6.2329 29.8749C5.80304 30.3048 5.58811 30.6988 5.58811 31.057Z" transform="matrix(1.00211 0 0 -1 1669.71 644.494)"/><path d="M3.5463 16.8718C3.5463 24.1077 6.26871 30.9853 11.7135 37.5048 17.1584 44.0243 23.2838 47.3198 30.0898 47.3915 33.7436 47.3915 36.9675 45.6363 39.7616 42.1258 40.9079 44.2751 42.5556 45.3497 44.7049 45.3497 45.6363 45.3497 46.4601 45.0631 47.1766 44.49 47.893 43.9169 48.2512 43.2004 48.2512 42.3407 48.2512 41.4093 46.9259 35.678 44.2751 25.1465 41.6243 14.6151 40.2631 8.66875 40.1914 7.30753 40.1914 5.51647 40.4422 4.33437 40.9437 3.76123 41.4452 3.18809 42.1975 2.8657 43.2004 2.79406 43.8452 2.8657 44.5617 3.18809 45.3497 3.76123 46.8542 5.19408 48.3229 8.63292 49.7557 14.0777 50.1856 15.5106 50.5437 16.2628 50.8303 16.3345 50.9736 16.4062 51.3319 16.442 51.905 16.442L52.3348 16.442C53.6961 16.442 54.3766 16.1196 54.3766 15.4748 54.3766 15.0449 54.1975 14.0777 53.8393 12.5733 53.4812 11.0688 52.7647 9.13442 51.6901 6.77022 50.6154 4.40601 49.4691 2.61495 48.2512 1.39703 47.3198 0.465676 46.1736-0.28657 44.8124-0.85971 44.2393-1.00299 43.3796-1.07464 42.2332-1.07464 39.7974-1.07464 37.7556-0.537319 36.1078 0.537319 34.4601 1.61196 33.3854 2.72241 32.8839 3.86869L32.2391 5.48065C32.1674 5.5523 32.0242 5.51647 31.8093 5.37319 31.666 5.22991 31.5227 5.08661 31.3794 4.94333 27.1525 0.931353 22.854-1.07464 18.4838-1.07464 14.5434-1.07464 11.0688 0.358212 8.05978 3.22391 5.0508 6.08961 3.5463 10.6389 3.5463 16.8718ZM37.7198 35.2481C37.7198 35.678 37.5406 36.466 37.1825 37.6123 36.8243 38.7586 36.0004 40.0123 34.7108 41.3735 33.4212 42.7348 31.7735 43.4511 29.7675 43.5228 27.26 43.5228 24.8599 42.4124 22.5674 40.1914 20.2749 37.9705 18.4838 35.069 17.1942 31.4869 15.1166 25.8271 13.6479 19.9525 12.7882 13.8628 12.7882 13.6479 12.7882 13.2538 12.7882 12.6807 12.7882 12.1076 12.7524 11.6778 12.6807 11.3912 12.6807 8.16724 13.3255 5.94632 14.6151 4.7284 15.9046 3.51049 17.4449 2.8657 19.236 2.79406 21.9584 2.79406 24.645 3.97616 27.2958 6.34036 29.9466 8.70456 31.5227 10.5314 32.0242 11.821 32.1674 12.1076 33.1346 15.9404 34.9257 23.3196 36.7168 30.6988 37.6481 34.675 37.7198 35.2481Z" transform="matrix(1.00211 0 0 -1 1671.97 790.859)"/><path d="M62.329 55.2364C62.329 56.0244 62.9021 56.4185 64.0484 56.4185 64.4066 56.4185 64.6932 56.4185 64.9081 56.4185 65.123 56.4185 65.3022 56.4185 65.4454 56.4185 65.5887 56.4185 65.732 56.3827 65.8753 56.311 66.0185 56.2393 66.0902 56.2035 66.0902 56.2035 66.0902 56.2035 66.1619 56.0961 66.3051 55.8811 66.4484 55.6662 66.5201 55.5588 66.5201 55.5588 66.5201 55.5588 66.6275 55.3796 66.8424 55.0214 69.4932 49.7199 73.0037 45.0273 77.3739 40.9437 81.7441 36.8601 85.7203 33.9585 89.3024 32.2391 92.8845 30.5197 96.3233 29.1943 99.6189 28.263 100.837 27.9048 101.446 27.439 101.446 26.8659 101.446 26.2928 101.123 25.8988 100.479 25.6838 99.8338 25.4689 98.5085 25.0748 96.5024 24.5017 94.4964 23.9286 92.4188 23.0689 90.2695 21.9226 79.953 16.9076 72.144 9.17023 66.8424-1.28956 66.5558-1.93435 66.3051-2.29256 66.0902-2.3642 65.8753-2.43585 65.338-2.50748 64.4782-2.57913 63.0454-2.57913 62.329-2.32838 62.329-1.82688 62.329-1.54031 62.5081-0.931353 62.8663 0 65.3737 4.94333 68.4544 9.34934 72.1082 13.218L73.1828 14.2927 7.52246 14.2927C6.51947 14.7942 6.01797 15.5106 6.01797 16.442 6.01797 17.5166 6.59111 18.233 7.73739 18.5912L77.9112 18.5912 78.9858 19.4509C81.7799 21.6002 85.971 24.0719 91.5591 26.8659 91.4874 26.9376 90.8426 27.26 89.6248 27.8331 88.4069 28.4062 86.7949 29.2659 84.7889 30.4122 82.7829 31.5586 80.8485 32.8481 78.9858 34.2809L77.9112 35.1406 7.73739 35.1406C6.59111 35.4988 6.01797 36.2153 6.01797 37.2899 6.01797 38.2213 6.51947 38.9377 7.52246 39.4392L73.1828 39.4392 72.1082 40.5138C69.744 43.0213 67.523 45.9228 65.4454 49.2184 63.3678 52.514 62.329 54.5199 62.329 55.2364Z" transform="matrix(1.00211 0 0 -1 1781.27 717.139)"/><path d="M39.7616 32.7764C39.7616 32.7764 39.0093 32.7764 37.5048 32.7764 36.0004 32.7764 34.7108 33.3138 33.6361 34.3884 32.5615 35.463 31.9884 36.8243 31.9167 38.472 31.9167 40.1198 32.454 41.481 33.5287 42.5556 33.8869 42.9138 34.066 43.1287 34.066 43.2004 34.066 43.2721 33.7078 43.3437 32.9914 43.4153 31.1287 43.702 29.3734 43.8452 27.7256 43.8452 24.2151 43.8452 21.3495 42.6989 19.1285 40.4064 15.7614 37.0392 14.0777 31.4152 14.0777 23.5346 14.0777 17.6598 15.1882 13.0389 17.4091 9.67174 20.3464 5.30154 24.2868 3.11645 29.2301 3.11645 32.1674 3.11645 34.5316 4.0478 36.3227 5.91051 38.1138 7.77321 39.4034 9.99413 40.1914 12.5733 40.3347 13.1464 40.5138 13.5046 40.7288 13.6479 40.9437 13.7911 41.5168 13.8628 42.4482 13.8628L43.9527 13.8628C44.3825 13.433 44.5975 13.1106 44.5975 12.8956 44.5975 12.609 44.4542 12.0359 44.1676 11.1762 43.881 10.3165 43.3079 9.13442 42.4482 7.62992 41.5885 6.12543 40.5496 4.76422 39.3317 3.5463 38.1138 2.32838 36.3944 1.21792 34.1735 0.214927 31.9525-0.788067 29.4808-1.25375 26.7585-1.1821 20.5973-1.1821 15.2241 1.11045 10.6389 5.69558 6.05379 10.2807 3.72541 16.0479 3.65377 22.9972 3.65377 30.448 5.98215 36.5019 10.6389 41.1586 15.2956 45.8153 20.7047 48.1438 26.8659 48.1438 33.0272 48.1438 37.3257 47.1766 39.7616 45.2422 42.1975 43.3079 43.4153 41.0154 43.4153 38.3646 43.4153 36.7168 42.8064 35.3914 41.5885 34.3884Z" transform="matrix(1.00211 0 0 -1 1919.33 717.139)"/><path d="M3.00898 22.9972C3.00898 29.8032 5.33737 35.678 9.99413 40.6213 14.6509 45.5646 20.2749 48.0721 26.8659 48.1438 33.3138 48.1438 38.8661 45.7079 43.5228 40.8362 48.1795 35.9646 50.5437 30.0541 50.6154 23.1047 50.6154 16.2987 48.3229 10.5673 43.7377 5.91051 39.1526 1.25375 33.5287-1.07464 26.8659-1.07464 19.9166-1.07464 14.221 1.32538 9.7792 6.12543 5.33737 10.9255 3.08063 16.5494 3.00898 22.9972ZM26.8659 3.22391C35.6063 3.22391 39.9765 9.06277 39.9765 20.7405L39.9765 24.1793 39.9765 26.8659C39.9765 28.4421 39.9407 29.8032 39.869 30.9496 39.7974 32.0959 39.5467 33.457 39.1168 35.0332 38.6869 36.6093 38.1138 37.8989 37.3974 38.9019 36.6809 39.9048 35.5705 40.9079 34.066 41.9109 32.5615 42.9138 30.8063 43.6303 28.8003 44.0601 28.4421 44.1318 27.8689 44.1676 27.0809 44.1676 24.9316 44.1676 22.8898 43.7377 20.9554 42.878 17.8748 41.3019 15.8688 39.1168 14.9375 36.3227 14.0061 33.5287 13.5404 30.2331 13.5404 26.4361L13.5404 24.2868C13.5404 17.4091 14.221 12.5733 15.5822 9.7792 17.8748 5.409 21.636 3.22391 26.8659 3.22391Z" transform="matrix(1.00211 0 0 -1 1967.68 717.139)"/><path d="M31.7018 33.9585C31.7018 36.8243 30.7346 39.2959 28.8003 41.3735 26.8659 43.4511 24.0719 44.49 20.4181 44.49 17.839 44.49 15.618 44.0243 13.7554 43.093 11.6061 41.7317 10.5314 39.869 10.5314 37.5048 10.4598 37.1467 10.4598 36.6809 10.5314 36.1078 10.6031 35.5347 11.1762 34.675 12.2509 33.5287 13.3255 32.3824 14.8658 31.4869 16.8718 30.8421 18.1614 30.4839 19.7375 30.1615 21.6002 29.8749 23.4629 29.5883 25.039 29.2659 26.3286 28.9077 27.6182 28.5496 28.7645 28.0838 29.7675 27.5107 30.9853 26.9376 32.1674 26.2212 33.3138 25.3614 34.4601 24.5017 35.6063 23.033 36.7526 20.9554 37.8989 18.8778 38.5078 16.6569 38.5795 14.2927 38.5795 9.85085 37.2182 6.19708 34.4959 3.33138 31.7735 0.465676 27.3675-1.00299 21.2778-1.07464L20.4181-1.07464C16.6927-1.07464 13.2538 0.214927 10.1016 2.79406L9.24188 2.04181 8.27471 1.07464C7.84485 0.644782 7.415 0.250748 6.98514-0.107464L5.80304-1.1821 4.94333-1.1821 4.51348-1.1821C4.29855-1.1821 3.97616-0.967174 3.5463-0.537319L3.5463 7.95232 3.5463 14.1852C3.5463 15.6897 3.61795 16.5852 3.76123 16.8718 3.90451 17.1584 4.26273 17.3374 4.83587 17.4091L5.80304 17.4091C6.66275 17.4091 7.23589 17.2659 7.52246 16.9793 7.80903 16.6927 7.98813 16.2628 8.05978 15.6897 8.13143 15.1166 8.38217 14.1494 8.81203 12.7882 9.24188 11.4269 9.92248 9.92248 10.8538 8.27471 13.3613 4.62094 16.836 2.79406 21.2778 2.79406 28.2272 2.79406 31.7018 5.58811 31.7018 11.1762 31.7018 13.2538 31.057 14.9375 29.7675 16.227 28.3346 17.9464 25.3614 19.236 20.848 20.0957 16.3345 20.9554 13.3613 21.7794 11.9285 22.5674 9.34934 23.7853 7.30753 25.4331 5.80304 27.5107 4.29855 29.5883 3.5463 31.8093 3.5463 34.1735 3.5463 36.9675 4.15527 39.3317 5.37319 41.2661 6.59111 43.2004 8.13143 44.6332 9.99413 45.5646 11.8568 46.496 13.6479 47.1408 15.3673 47.499 17.0867 47.8571 18.6629 48.0363 20.0957 48.0363L21.2778 48.0363C24.1436 48.0363 26.651 47.499 28.8003 46.4243L30.4122 45.5646 31.3794 46.3169C32.0959 46.9617 32.8839 47.5706 33.7436 48.1438L34.6033 48.1438 35.0332 48.1438C35.2481 48.1438 35.5705 47.9288 36.0004 47.499L36.0004 33.3138 35.3556 32.669 32.3466 32.669C31.9167 33.0988 31.7018 33.5287 31.7018 33.9585Z" transform="matrix(1.00211 0 0 -1 2022.07 717.139)"/><path d="M2.79406 41.3735C2.29256 41.8751 2.04181 42.2332 2.04181 42.4482 2.04181 42.7348 2.14927 43.3079 2.3642 44.1676 2.57913 45.0273 2.75824 45.5288 2.90152 45.6721 3.0448 46.0303 3.36719 46.2094 3.86869 46.2094 4.3702 46.2094 6.19708 46.2452 9.34934 46.3169L15.0449 46.3169 17.0867 54.914C17.3017 55.702 17.5524 56.7409 17.839 58.0304 18.1256 59.32 18.3763 60.2514 18.5912 60.8245 18.8062 61.3976 19.0211 62.114 19.236 62.9737 19.4509 63.8335 19.7375 64.4425 20.0957 64.8006 20.4539 65.1588 20.8122 65.5887 21.1704 66.0902 21.5285 66.5917 22.0301 66.9141 22.6748 67.0574 23.3196 67.2006 23.9644 67.2723 24.6092 67.2723 25.8988 67.2006 26.7943 66.8067 27.2958 66.0902 27.7973 65.3737 28.048 64.6932 28.048 64.0484 28.048 63.5469 27.7256 61.8633 27.0809 58.9976 26.4361 56.1319 25.7196 53.302 24.9316 50.508L23.8569 46.5318C23.8569 46.3885 25.648 46.3169 29.2301 46.3169L34.7108 46.3169C35.2123 45.8153 35.463 45.4214 35.463 45.1348 35.463 43.5586 34.9974 42.3049 34.066 41.3735L22.5674 41.3735 18.6987 25.7913C15.9046 14.3285 14.5076 8.16724 14.5076 7.30753 14.5076 4.29855 15.4748 2.79406 17.4091 2.79406 19.9166 2.79406 22.3525 4.01198 24.7167 6.44782 27.0809 8.88367 28.9794 11.8927 30.4122 15.4748 30.5555 15.9046 30.7346 16.1553 30.9496 16.227 31.1645 16.2987 31.7018 16.3703 32.5615 16.442L32.9914 16.442C34.066 16.442 34.6033 16.1553 34.6033 15.5822 34.6033 15.3673 34.4959 14.9375 34.2809 14.2927 33.9228 13.1464 33.278 11.7852 32.3466 10.2091 31.4152 8.63292 30.1973 6.94933 28.6928 5.15826 27.1883 3.36719 25.3614 1.8627 23.2122 0.644782 21.0629-0.57314 18.8778-1.1821 16.6569-1.1821 14.5076-1.1821 12.4658-0.644782 10.5314 0.429855 8.5971 1.50449 7.20007 3.36719 6.34036 6.01797 6.19708 6.59111 6.12543 7.55828 6.12543 8.91949L6.12543 10.8538 9.88666 25.8988C12.3941 36.0004 13.6837 41.0869 13.7554 41.1586 13.7554 41.3019 11.9285 41.3735 8.27471 41.3735L2.79406 41.3735Z" transform="matrix(1.00211 0 0 -1 2083.02 717.139)"/><path d="M6.01797 37.2899C6.01797 38.2213 6.51947 38.9377 7.52246 39.4392L75.9769 39.4392C77.0515 38.8661 77.5888 38.1496 77.5888 37.2899 77.5888 36.5019 77.0873 35.8212 76.0843 35.2481L41.9109 35.1406 7.73739 35.1406C6.59111 35.4988 6.01797 36.2153 6.01797 37.2899ZM6.01797 16.442C6.01797 17.5166 6.59111 18.233 7.73739 18.5912L76.0843 18.5912C77.0873 17.8748 77.5888 17.1584 77.5888 16.442 77.5888 15.5106 77.0515 14.7942 75.9769 14.2927L7.52246 14.2927C6.51947 14.7942 6.01797 15.5106 6.01797 16.442Z" transform="matrix(1.00211 0 0 -1 2152.37 717.139)"/><path d="M0 23.642 452.422 23.642 452.422 30.0898 0 30.0898Z" transform="matrix(1.00211 0 0 -1 2279.45 717.139)"/><path d="M10.2091 19.1285C9.7792 19.1285 9.2777 19.4152 8.70456 19.9883 8.13143 20.5614 7.80903 21.0629 7.73739 21.4927 7.66574 21.9226 8.77621 22.9972 11.0688 24.7167 13.3613 26.4361 15.7255 28.2272 18.1614 30.0898 20.5973 31.9525 21.9584 32.9914 22.245 33.2063 22.3882 33.3495 22.5674 33.4212 22.7823 33.4212L22.8898 33.4212C23.3196 33.4212 23.8212 32.8122 24.3943 31.5943 24.9674 30.3764 26.9017 26.1854 30.1973 19.0211 31.5586 15.9404 32.669 13.4688 33.5287 11.6061L42.6631-8.27471C42.7348-8.27471 46.4601-0.644782 53.8393 14.6151 61.2185 29.8749 68.5976 45.2422 75.9769 60.717 83.3561 76.1918 87.1889 84.1083 87.4755 84.4665 87.9053 85.4695 88.6218 85.971 89.6248 85.971 90.1263 85.971 90.5561 85.7561 90.9143 85.3262 91.2725 84.8963 91.5233 84.4665 91.6666 84.0366L91.6666 83.3919 66.6275 31.4869 41.3735-20.7405C41.0869-21.242 40.4064-21.4927 39.3317-21.4927 38.6869-21.4927 38.2571-21.3853 38.0422-21.1704 37.8989-21.0271 34.3884-13.433 27.5107 1.61196L17.1942 24.1793 15.4748 22.9972C14.4001 22.1375 13.2897 21.2778 12.1434 20.4181 10.9971 19.5584 10.3523 19.1285 10.2091 19.1285Z" transform="matrix(1.00211 0 0 -1 2285.91 634.607)"/><path d="M90.0546 90.4845 439.527 90.4845 439.527 96.9323 90.0546 96.9323Z" transform="matrix(1.00211 0 0 -1 2285.91 644.494)"/><path d="M3.5463 16.8718C3.5463 24.1077 6.26871 30.9853 11.7135 37.5048 17.1584 44.0243 23.2838 47.3198 30.0898 47.3915 33.7436 47.3915 36.9675 45.6363 39.7616 42.1258 40.9079 44.2751 42.5556 45.3497 44.7049 45.3497 45.6363 45.3497 46.4601 45.0631 47.1766 44.49 47.893 43.9169 48.2512 43.2004 48.2512 42.3407 48.2512 41.4093 46.9259 35.678 44.2751 25.1465 41.6243 14.6151 40.2631 8.66875 40.1914 7.30753 40.1914 5.51647 40.4422 4.33437 40.9437 3.76123 41.4452 3.18809 42.1975 2.8657 43.2004 2.79406 43.8452 2.8657 44.5617 3.18809 45.3497 3.76123 46.8542 5.19408 48.3229 8.63292 49.7557 14.0777 50.1856 15.5106 50.5437 16.2628 50.8303 16.3345 50.9736 16.4062 51.3319 16.442 51.905 16.442L52.3348 16.442C53.6961 16.442 54.3766 16.1196 54.3766 15.4748 54.3766 15.0449 54.1975 14.0777 53.8393 12.5733 53.4812 11.0688 52.7647 9.13442 51.6901 6.77022 50.6154 4.40601 49.4691 2.61495 48.2512 1.39703 47.3198 0.465676 46.1736-0.28657 44.8124-0.85971 44.2393-1.00299 43.3796-1.07464 42.2332-1.07464 39.7974-1.07464 37.7556-0.537319 36.1078 0.537319 34.4601 1.61196 33.3854 2.72241 32.8839 3.86869L32.2391 5.48065C32.1674 5.5523 32.0242 5.51647 31.8093 5.37319 31.666 5.22991 31.5227 5.08661 31.3794 4.94333 27.1525 0.931353 22.854-1.07464 18.4838-1.07464 14.5434-1.07464 11.0688 0.358212 8.05978 3.22391 5.0508 6.08961 3.5463 10.6389 3.5463 16.8718ZM37.7198 35.2481C37.7198 35.678 37.5406 36.466 37.1825 37.6123 36.8243 38.7586 36.0004 40.0123 34.7108 41.3735 33.4212 42.7348 31.7735 43.4511 29.7675 43.5228 27.26 43.5228 24.8599 42.4124 22.5674 40.1914 20.2749 37.9705 18.4838 35.069 17.1942 31.4869 15.1166 25.8271 13.6479 19.9525 12.7882 13.8628 12.7882 13.6479 12.7882 13.2538 12.7882 12.6807 12.7882 12.1076 12.7524 11.6778 12.6807 11.3912 12.6807 8.16724 13.3255 5.94632 14.6151 4.7284 15.9046 3.51049 17.4449 2.8657 19.236 2.79406 21.9584 2.79406 24.645 3.97616 27.2958 6.34036 29.9466 8.70456 31.5227 10.5314 32.0242 11.821 32.1674 12.1076 33.1346 15.9404 34.9257 23.3196 36.7168 30.6988 37.6481 34.675 37.7198 35.2481Z" transform="matrix(1.00211 0 0 -1 2376.15 644.494)"/><path d="M8.28273 32.599C6.91494 32.599 5.82578 33.0549 5.01523 33.9668 4.20469 34.8787 3.79942 35.9932 3.79942 37.3103 3.79942 40.907 5.14188 44.0226 7.8268 46.6568 10.5117 49.2911 13.8552 50.6082 17.8573 50.6082 22.4672 50.6082 26.3173 49.1898 29.4075 46.3529 32.4977 43.516 34.0681 39.8432 34.1188 35.3346 34.1188 33.1562 33.6122 31.0792 32.599 29.1035 31.5858 27.1278 30.37 25.4054 28.9516 23.9363 27.5331 22.4672 25.5068 20.5928 22.8725 18.3132 21.0488 16.7427 18.5159 14.4125 15.2737 11.3223L10.7903 7.06692 16.5655 6.99093C24.5189 6.99093 28.7489 7.11758 29.2555 7.37087 29.6102 7.47219 30.2181 9.72651 31.0792 14.1338L31.0792 14.3618 34.1188 14.3618 34.1188 14.1338C34.0681 13.9819 33.7388 11.6769 33.1309 7.21889 32.523 2.76091 32.1431 0.430601 31.9911 0.227965L31.9911 0 3.79942 0 3.79942 1.44378 3.79942 2.35564C3.79942 2.71025 3.95139 3.0902 4.25535 3.49546 4.5593 3.90073 5.31918 4.78727 6.535 6.15506 8.00408 7.77612 9.27058 9.19459 10.3344 10.4104 10.7903 10.917 11.6515 11.8542 12.918 13.222 14.1845 14.5898 15.0457 15.5269 15.5016 16.0335 15.9576 16.5402 16.6921 17.376 17.7053 18.5412 18.7184 19.7063 19.4277 20.5675 19.833 21.1248 20.2382 21.682 20.8208 22.4419 21.5807 23.4044 22.3406 24.367 22.8725 25.1775 23.1764 25.836 23.4804 26.4946 23.8603 27.2291 24.3163 28.0397 24.7722 28.8503 25.1015 29.6608 25.3041 30.4713 25.5068 31.2819 25.6841 32.0418 25.836 32.751 25.988 33.4602 26.064 34.2961 26.064 35.2586 26.064 38.4501 25.2028 41.211 23.4804 43.5413 21.758 45.8717 19.301 47.0368 16.1095 47.0368 14.4378 47.0368 12.9687 46.6062 11.7022 45.745 10.4357 44.8838 9.54923 44.0479 9.04261 43.2374 8.536 42.4268 8.28273 41.9456 8.28273 41.7936 8.28273 41.7429 8.4094 41.7176 8.66267 41.7176 9.57453 41.7176 10.5117 41.363 11.4742 40.6538 12.4368 39.9446 12.918 38.7794 12.918 37.1583 12.918 35.8918 12.5128 34.828 11.7022 33.9668 10.8916 33.1056 9.75181 32.6497 8.28273 32.599Z" transform="matrix(1.00211 0 0 -1 2433.65 613.491)"/><path d="M9.02695 25.4689C9.02695 25.4689 9.02695 25.9345 9.02695 26.8659 9.02695 27.7973 9.52845 28.5137 10.5314 29.0152L72.9679 29.0152C74.0425 28.4421 74.5798 27.7256 74.5798 26.8659 74.5798 26.0062 74.0425 25.2898 72.9679 24.7167L10.5314 24.7167C9.52845 25.2182 9.02695 25.9345 9.02695 26.8659Z" transform="matrix(1.00211 0 0 -1 2506.78 644.494)"/><path d="M5.58811 31.057C6.08961 34.066 8.02396 37.5406 11.3912 41.481 14.7583 45.4214 18.9136 47.4273 23.8569 47.499 26.3644 47.499 28.657 46.8542 30.7346 45.5646 32.8122 44.2751 34.3526 42.6631 35.3556 40.7288 38.3646 45.2422 41.9825 47.499 46.2094 47.499 48.8602 47.499 51.1527 46.7109 53.0871 45.1348 55.0214 43.5586 56.0244 41.4452 56.0961 38.7944 56.0961 36.7168 55.5945 35.0332 54.5916 33.7436 53.5886 32.454 52.6214 31.666 51.6901 31.3794 50.7587 31.0928 49.9348 30.9496 49.2184 30.9496 47.8571 30.9496 46.7467 31.3436 45.887 32.1317 45.0273 32.9197 44.5975 33.9585 44.5975 35.2481 44.5975 38.5437 46.3885 40.8004 49.9706 42.0183 49.1826 42.9497 47.7497 43.4153 45.6721 43.4153 44.7407 43.4153 44.0601 43.3437 43.6303 43.2004 40.9079 42.0541 38.9019 39.6899 37.6123 36.1078 33.3138 20.2749 31.1645 11.033 31.1645 8.38217 31.1645 6.37618 31.7376 4.94333 32.8839 4.08362 34.0302 3.22391 35.2839 2.79406 36.6451 2.79406 39.2959 2.79406 41.9109 3.97616 44.49 6.34036 47.0691 8.70456 48.8243 11.6061 49.7557 15.0449 49.9706 15.7614 50.1856 16.1553 50.4005 16.227 50.6154 16.2987 51.1885 16.3703 52.1199 16.442L52.5498 16.442C53.6244 16.442 54.1617 16.1553 54.1617 15.5822 54.1617 15.5106 54.09 15.1166 53.9468 14.4001 52.8005 10.3165 50.5796 6.69857 47.284 3.5463 43.9885 0.394034 40.1557-1.1821 35.7854-1.1821 30.7704-1.1821 26.9734 1.07464 24.3943 5.58811 21.457 1.14628 18.0897-1.07464 14.2927-1.07464L13.6479-1.07464C10.1374-1.07464 7.62992-0.143285 6.12543 1.71942 4.62094 3.58212 3.83288 5.5523 3.76123 7.62992 3.76123 9.92248 4.44183 11.7852 5.80304 13.218 7.16425 14.6509 8.77621 15.3673 10.6389 15.3673 13.7196 15.3673 15.2598 13.8628 15.2598 10.8538 15.2598 9.42099 14.83 8.16724 13.9703 7.09261 13.1106 6.01797 12.2867 5.30154 11.4986 4.94333 10.7106 4.58512 10.2449 4.40601 10.1016 4.40601L9.7792 4.29855C9.7792 4.2269 9.99413 4.08362 10.424 3.86869 10.8538 3.65377 11.4269 3.40302 12.1434 3.11645 12.8599 2.82987 13.5404 2.72241 14.1852 2.79406 16.7643 2.79406 18.9853 4.40601 20.848 7.62992 21.4927 8.77621 22.3167 11.212 23.3196 14.9375 24.3226 18.6629 25.3257 22.5316 26.3286 26.5435 27.3316 30.5555 27.9048 32.9197 28.048 33.6361 28.4062 35.5705 28.5854 36.9675 28.5854 37.8272 28.5854 39.8333 28.048 41.2661 26.9734 42.1258 25.8988 42.9855 24.6809 43.4153 23.3196 43.4153 20.4539 43.4153 17.7673 42.269 15.2598 39.9765 12.7524 37.684 10.9971 34.7466 9.99413 31.1645 9.85085 30.5197 9.67174 30.1615 9.45681 30.0898 9.24188 30.0182 8.66875 29.9466 7.73739 29.8749L6.2329 29.8749C5.80304 30.3048 5.58811 30.6988 5.58811 31.057Z" transform="matrix(1.00211 0 0 -1 2615.01 644.494)"/><path d="M8.28273 32.599C6.91494 32.599 5.82578 33.0549 5.01523 33.9668 4.20469 34.8787 3.79942 35.9932 3.79942 37.3103 3.79942 40.907 5.14188 44.0226 7.8268 46.6568 10.5117 49.2911 13.8552 50.6082 17.8573 50.6082 22.4672 50.6082 26.3173 49.1898 29.4075 46.3529 32.4977 43.516 34.0681 39.8432 34.1188 35.3346 34.1188 33.1562 33.6122 31.0792 32.599 29.1035 31.5858 27.1278 30.37 25.4054 28.9516 23.9363 27.5331 22.4672 25.5068 20.5928 22.8725 18.3132 21.0488 16.7427 18.5159 14.4125 15.2737 11.3223L10.7903 7.06692 16.5655 6.99093C24.5189 6.99093 28.7489 7.11758 29.2555 7.37087 29.6102 7.47219 30.2181 9.72651 31.0792 14.1338L31.0792 14.3618 34.1188 14.3618 34.1188 14.1338C34.0681 13.9819 33.7388 11.6769 33.1309 7.21889 32.523 2.76091 32.1431 0.430601 31.9911 0.227965L31.9911 0 3.79942 0 3.79942 1.44378 3.79942 2.35564C3.79942 2.71025 3.95139 3.0902 4.25535 3.49546 4.5593 3.90073 5.31918 4.78727 6.535 6.15506 8.00408 7.77612 9.27058 9.19459 10.3344 10.4104 10.7903 10.917 11.6515 11.8542 12.918 13.222 14.1845 14.5898 15.0457 15.5269 15.5016 16.0335 15.9576 16.5402 16.6921 17.376 17.7053 18.5412 18.7184 19.7063 19.4277 20.5675 19.833 21.1248 20.2382 21.682 20.8208 22.4419 21.5807 23.4044 22.3406 24.367 22.8725 25.1775 23.1764 25.836 23.4804 26.4946 23.8603 27.2291 24.3163 28.0397 24.7722 28.8503 25.1015 29.6608 25.3041 30.4713 25.5068 31.2819 25.6841 32.0418 25.836 32.751 25.988 33.4602 26.064 34.2961 26.064 35.2586 26.064 38.4501 25.2028 41.211 23.4804 43.5413 21.758 45.8717 19.301 47.0368 16.1095 47.0368 14.4378 47.0368 12.9687 46.6062 11.7022 45.745 10.4357 44.8838 9.54923 44.0479 9.04261 43.2374 8.536 42.4268 8.28273 41.9456 8.28273 41.7936 8.28273 41.7429 8.4094 41.7176 8.66267 41.7176 9.57453 41.7176 10.5117 41.363 11.4742 40.6538 12.4368 39.9446 12.918 38.7794 12.918 37.1583 12.918 35.8918 12.5128 34.828 11.7022 33.9668 10.8916 33.1056 9.75181 32.6497 8.28273 32.599Z" transform="matrix(1.00211 0 0 -1 2677.15 613.491)"/><path d="M3.5463 16.8718C3.5463 24.1077 6.26871 30.9853 11.7135 37.5048 17.1584 44.0243 23.2838 47.3198 30.0898 47.3915 33.7436 47.3915 36.9675 45.6363 39.7616 42.1258 40.9079 44.2751 42.5556 45.3497 44.7049 45.3497 45.6363 45.3497 46.4601 45.0631 47.1766 44.49 47.893 43.9169 48.2512 43.2004 48.2512 42.3407 48.2512 41.4093 46.9259 35.678 44.2751 25.1465 41.6243 14.6151 40.2631 8.66875 40.1914 7.30753 40.1914 5.51647 40.4422 4.33437 40.9437 3.76123 41.4452 3.18809 42.1975 2.8657 43.2004 2.79406 43.8452 2.8657 44.5617 3.18809 45.3497 3.76123 46.8542 5.19408 48.3229 8.63292 49.7557 14.0777 50.1856 15.5106 50.5437 16.2628 50.8303 16.3345 50.9736 16.4062 51.3319 16.442 51.905 16.442L52.3348 16.442C53.6961 16.442 54.3766 16.1196 54.3766 15.4748 54.3766 15.0449 54.1975 14.0777 53.8393 12.5733 53.4812 11.0688 52.7647 9.13442 51.6901 6.77022 50.6154 4.40601 49.4691 2.61495 48.2512 1.39703 47.3198 0.465676 46.1736-0.28657 44.8124-0.85971 44.2393-1.00299 43.3796-1.07464 42.2332-1.07464 39.7974-1.07464 37.7556-0.537319 36.1078 0.537319 34.4601 1.61196 33.3854 2.72241 32.8839 3.86869L32.2391 5.48065C32.1674 5.5523 32.0242 5.51647 31.8093 5.37319 31.666 5.22991 31.5227 5.08661 31.3794 4.94333 27.1525 0.931353 22.854-1.07464 18.4838-1.07464 14.5434-1.07464 11.0688 0.358212 8.05978 3.22391 5.0508 6.08961 3.5463 10.6389 3.5463 16.8718ZM37.7198 35.2481C37.7198 35.678 37.5406 36.466 37.1825 37.6123 36.8243 38.7586 36.0004 40.0123 34.7108 41.3735 33.4212 42.7348 31.7735 43.4511 29.7675 43.5228 27.26 43.5228 24.8599 42.4124 22.5674 40.1914 20.2749 37.9705 18.4838 35.069 17.1942 31.4869 15.1166 25.8271 13.6479 19.9525 12.7882 13.8628 12.7882 13.6479 12.7882 13.2538 12.7882 12.6807 12.7882 12.1076 12.7524 11.6778 12.6807 11.3912 12.6807 8.16724 13.3255 5.94632 14.6151 4.7284 15.9046 3.51049 17.4449 2.8657 19.236 2.79406 21.9584 2.79406 24.645 3.97616 27.2958 6.34036 29.9466 8.70456 31.5227 10.5314 32.0242 11.821 32.1674 12.1076 33.1346 15.9404 34.9257 23.3196 36.7168 30.6988 37.6481 34.675 37.7198 35.2481Z" transform="matrix(1.00211 0 0 -1 2477.38 790.859)"/></g></g></g><path d="M1593.5 1459.5 1593.5 878.5 2544.5 1459.5Z" stroke="#000000" stroke-width="9.16667" stroke-miterlimit="8" fill="none" fill-rule="evenodd"/><rect x="1593.5" y="1398.5" width="60.9999" height="61.0002" stroke="#000000" stroke-width="9.16667" stroke-miterlimit="8" fill="none"/><path d="M2417.5 1383.5C2400.83 1414.62 2398.95 1415.19 2397.5 1457.5" stroke="#000000" stroke-width="9.16667" stroke-miterlimit="8" fill="none" fill-rule="evenodd"/><path d="M2.44354 42.9726C3.11426 46.9903 5.70164 51.6297 10.2053 56.891 14.709 62.1523 20.267 64.8305 26.8789 64.9264 30.2328 64.9264 33.2993 64.0653 36.0782 62.3435 38.8571 60.6217 40.9174 58.4694 42.2588 55.8865 46.2835 61.913 51.1227 64.9264 56.7764 64.9264 60.322 64.9264 63.3882 63.8741 65.9756 61.7696 68.5629 59.6651 69.9045 56.8433 70.0003 53.3038 70.0003 50.5297 69.3294 48.2816 67.988 46.5598 66.6464 44.838 65.3528 43.7857 64.107 43.403 62.8612 43.0205 61.7593 42.8291 60.801 42.8291 58.9804 42.8291 57.4951 43.3553 56.3452 44.4075 55.1952 45.4598 54.6204 46.8468 54.6204 48.5686 54.6204 52.969 57.0161 55.9822 61.8073 57.6085 60.7532 58.8521 58.8365 59.4737 56.0576 59.4737 54.8119 59.4737 53.9016 59.3781 53.3268 59.1867 49.6855 57.6562 47.0022 54.4995 45.2774 49.7166 39.5279 28.5761 36.653 16.236 36.653 12.6967 36.653 10.0182 37.4196 8.10501 38.9529 6.95708 40.4862 5.80932 42.163 5.23527 43.9838 5.23527 47.5293 5.23527 51.0269 6.81365 54.4765 9.97042 57.9263 13.1272 60.274 17.0013 61.5198 21.593 61.8073 22.5496 62.0946 23.0755 62.3822 23.1712 62.6697 23.2671 63.4363 23.3626 64.682 23.4582L65.2569 23.4582C66.6944 23.4582 67.4129 23.0755 67.4129 22.3103 67.4129 22.2146 67.3171 21.6887 67.1256 20.7319 65.5923 15.2795 62.6219 10.4486 58.2138 6.23977 53.8058 2.03075 48.6792-0.0737675 42.8339-0.0737675 36.126-0.0737675 31.0474 2.9394 27.5976 8.96592 23.6688 3.03508 19.1649 0.0696598 14.0863 0.0696598L13.2239 0.0696598C8.52837 0.0696598 5.1746 1.31327 3.16226 3.80048 1.14993 6.28753 0.0958417 8.91817 0 11.6922 0 14.7533 0.910411 17.2405 2.73106 19.1537 4.55171 21.0667 6.70772 22.0235 9.19926 22.0235 13.3198 22.0235 15.3799 20.0146 15.3799 15.9969 15.3799 14.0838 14.8051 12.4097 13.6551 10.9748 12.5052 9.53997 11.4031 8.58339 10.3492 8.10501 9.29511 7.62681 8.67222 7.38753 8.48054 7.38753L8.04933 7.24411C8.04933 7.14843 8.33686 6.95708 8.91174 6.67023 9.48662 6.3832 10.2532 6.04842 11.2116 5.66572 12.1698 5.28319 13.0801 5.13959 13.9425 5.23527 17.3923 5.23527 20.3629 7.38753 22.8542 11.6922 23.7168 13.2229 24.8187 16.4751 26.1603 21.4494 27.5018 26.4237 28.8434 31.5893 30.185 36.9461 31.5264 42.303 32.2932 45.4598 32.4847 46.4164 32.9637 48.9991 33.2034 50.8645 33.2034 52.0124 33.2034 54.6908 32.4847 56.604 31.0474 57.7519 29.61 58.8999 27.981 59.4737 26.1603 59.4737 22.3272 59.4737 18.7337 57.9431 15.3799 54.8822 12.0262 51.8211 9.6783 47.8991 8.33686 43.1162 8.14518 42.2553 7.90566 41.7769 7.61813 41.6812 7.33061 41.5855 6.56404 41.49 5.31827 41.3942L3.30594 41.3942C2.73106 41.9682 2.44354 42.4944 2.44354 42.9726Z" fill-rule="evenodd" transform="matrix(1 0 0 -1 1475 1201)"/><path d="M0.0989457 23.9946C0.0989457 33.699 3.7409 42.923 11.025 51.6665 18.3091 60.4102 26.5036 64.8299 35.6086 64.926 40.4966 64.926 44.8094 62.572 48.5474 57.864 50.0808 60.7465 52.2852 62.1876 55.1604 62.1876 56.4064 62.1876 57.5086 61.8032 58.467 61.0346 59.4254 60.266 59.9047 59.3052 59.9047 58.1521 59.9047 56.903 58.1316 49.2164 54.5853 35.0922 51.0392 20.9681 49.2182 12.9932 49.1224 11.1677 49.1224 8.76552 49.4578 7.18014 50.1286 6.41151 50.7996 5.64289 51.8061 5.21053 53.1477 5.11443 54.0103 5.21053 54.9687 5.64289 56.023 6.41151 58.0357 8.33316 60.0006 12.9451 61.9174 20.2475 62.4924 22.1691 62.9715 23.1779 63.3549 23.274 63.5466 23.3703 64.0259 23.4182 64.7926 23.4182L65.3676 23.4182C67.1888 23.4182 68.0992 22.9859 68.0992 22.1211 68.0992 21.5445 67.8594 20.2475 67.3803 18.2297 66.9012 16.212 65.9428 13.6178 64.5051 10.447 63.0674 7.27624 61.534 4.87409 59.9047 3.24074 58.6587 1.99162 57.1253 0.982829 55.3041 0.214204 54.5374 0.0220049 53.3873-0.0740947 51.8539-0.0740947 48.5952-0.0740947 45.8637 0.646567 43.6594 2.08772 41.455 3.52904 40.0173 5.01833 39.3464 6.55558L38.4839 8.71756C38.388 8.81366 38.1963 8.76552 37.9087 8.57333 37.7172 8.38113 37.5253 8.1891 37.3337 7.9969 31.6791 2.61618 25.9286-0.0740947 20.082-0.0740947 14.8106-0.0740947 10.1624 1.84755 6.13704 5.69085 2.11164 9.53415 0.0989457 15.6355 0.0989457 23.9946ZM45.8158 48.64C45.8158 49.2164 45.5761 50.2733 45.097 51.8108 44.6178 53.348 43.5155 55.0295 41.7904 56.855 40.0653 58.6806 37.8609 59.6414 35.1774 59.7375 31.8228 59.7375 28.6119 58.2482 25.5451 55.2697 22.4782 52.2911 20.082 48.3997 18.3569 43.5955 15.5775 36.005 13.6127 28.1262 12.4627 19.9592 12.4627 19.671 12.4627 19.1424 12.4627 18.3738 12.4627 17.6051 12.4147 17.0287 12.3188 16.6443 12.3188 12.3205 13.1814 9.34195 14.9067 7.7086 16.6318 6.07525 18.6923 5.21053 21.0885 5.11443 24.7304 5.11443 28.3245 6.69981 31.8706 9.87041 35.4169 13.0412 37.5253 15.4913 38.1963 17.2209 38.388 17.6051 39.6819 22.7455 42.078 32.6421 44.474 42.5388 45.72 47.8714 45.8158 48.64Z" fill-rule="evenodd" transform="matrix(1 0 0 -1 2098 1136)"/><path d="M0.990396 46.5384C0.435241 47.088 0.157663 47.4804 0.157663 47.7159 0.157663 48.0299 0.276584 48.6578 0.514569 49.5997 0.752553 50.5415 0.950803 51.0911 1.10946 51.2481 1.26812 51.6405 1.62502 51.8367 2.18018 51.8367 2.73533 51.8367 4.75784 51.876 8.24772 51.9545L14.5532 51.9545 16.8137 61.3736C17.0516 62.2371 17.3292 63.3752 17.6465 64.788 17.9638 66.201 18.2414 67.2215 18.4793 67.8494 18.7172 68.4771 18.9552 69.2622 19.1932 70.2041 19.431 71.146 19.7483 71.8132 20.145 72.2057 20.5415 72.5981 20.9381 73.069 21.3346 73.6186 21.7311 74.1681 22.2864 74.5213 23.0002 74.6782 23.714 74.8352 24.4278 74.9137 25.1418 74.9137 26.5694 74.8352 27.5608 74.4035 28.1159 73.6186 28.6712 72.8336 28.9488 72.0879 28.9488 71.3815 28.9488 70.8321 28.5919 68.9875 27.8781 65.8478 27.1643 62.708 26.371 59.6076 25.4987 56.5464L24.3089 52.1899C24.3089 52.033 26.2918 51.9545 30.2575 51.9545L36.3251 51.9545C36.8802 51.405 37.1578 50.9734 37.1578 50.6594 37.1578 48.9325 36.6424 47.5589 35.6113 46.5384L22.8813 46.5384 18.5983 29.4662C15.505 16.9073 13.9584 10.157 13.9584 9.21505 13.9584 5.91833 15.0291 4.26997 17.1706 4.26997 19.9466 4.26997 22.6433 5.6043 25.2607 8.27311 27.8781 10.9419 29.9799 14.2386 31.5662 18.1633 31.7247 18.6342 31.9231 18.9089 32.161 18.9874 32.399 19.066 32.9938 19.1444 33.9456 19.2229L34.4215 19.2229C35.6113 19.2229 36.2061 18.9089 36.2061 18.2809 36.2061 18.0456 36.0871 17.5745 35.8491 16.8681 35.4526 15.6121 34.7388 14.1209 33.7077 12.3941 32.6765 10.6672 31.3282 8.82265 29.6626 6.86027 27.997 4.89789 25.9745 3.24953 23.5951 1.9152 21.2157 0.580865 18.7967-0.0863713 16.3378-0.0863713 13.9584-0.0863713 11.6979 0.502358 9.55642 1.67968 7.41498 2.85714 5.8683 4.89789 4.9165 7.80221 4.75784 8.43012 4.67852 9.48975 4.67852 10.9811L4.67852 13.1005 8.84261 29.5839C11.6185 40.6515 13.0461 46.2244 13.1256 46.303 13.1256 46.4599 11.1031 46.5384 7.05808 46.5384L0.990396 46.5384Z" fill-rule="evenodd" transform="matrix(1 0 0 -1 2251 1428)"/><g><g><g><path d="M13.5209 25.3339C12.9516 25.3339 12.2874 25.7135 11.5284 26.4725 10.7693 27.2315 10.3423 27.8958 10.2474 28.4651 10.1525 29.0344 11.6232 30.4576 14.6595 32.7348 17.6957 35.012 20.8269 37.3842 24.053 39.8511 27.2791 42.318 29.0818 43.6939 29.4613 43.9785 29.6511 44.1682 29.8883 44.2632 30.173 44.2632L30.3153 44.2632C30.8846 44.2632 31.5488 43.4566 32.3078 41.8436 33.0669 40.2307 35.6287 34.68 39.9934 25.1916 41.7962 21.1115 43.2669 17.8381 44.4055 15.3711L56.5032-10.9591C56.5981-10.9591 61.5319-0.853952 71.305 19.3562 81.078 39.5664 90.851 59.919 100.624 80.4138 110.397 100.909 115.473 111.393 115.853 111.868 116.422 113.196 117.371 113.86 118.699 113.86 119.364 113.86 119.933 113.576 120.407 113.006 120.882 112.437 121.214 111.868 121.404 111.298L121.404 110.444 88.2417 41.7013 54.7952-27.4688C54.4157-28.133 53.5143-28.4651 52.0911-28.4651 51.2371-28.4651 50.6678-28.3227 50.3832-28.0381 50.1934-27.8484 45.5441-17.7907 36.4353 2.13488L22.7721 32.0232 20.4948 30.4576C19.0716 29.319 17.6009 28.1804 16.0828 27.0418 14.5646 25.9032 13.7107 25.3339 13.5209 25.3339Z" transform="matrix(1.00286 0 0 -1 1729.07 1629.55)"/><path d="M119.269 119.838 582.111 119.838 582.111 128.377 119.269 128.377Z" transform="matrix(1.00286 0 0 -1 1729.07 1642.64)"/><path d="M4.69674 22.3451C4.69674 31.9283 8.30231 41.0371 15.5135 49.6715 22.7247 58.306 30.8372 62.6705 39.8511 62.7655 44.6902 62.7655 48.9599 60.4409 52.6604 55.7915 54.1786 58.638 56.3608 60.0613 59.2073 60.0613 60.4409 60.0613 61.5319 59.6817 62.4808 58.9227 63.4297 58.1637 63.9041 57.2148 63.9041 56.0762 63.9041 54.8426 62.1488 47.252 58.638 33.3041 55.1273 19.3562 53.3246 11.4809 53.2297 9.67812 53.2297 7.30603 53.5617 5.74045 54.2259 4.98139 54.8902 4.22232 55.8865 3.79535 57.2148 3.70046 58.0687 3.79535 59.0176 4.22232 60.0613 4.98139 62.0538 6.87905 63.999 11.4335 65.8966 18.6446 66.4659 20.5422 66.9403 21.5385 67.3199 21.6334 67.5096 21.7284 67.9841 21.7758 68.7431 21.7758L69.3124 21.7758C71.1153 21.7758 72.0166 21.3488 72.0166 20.4948 72.0166 19.9255 71.7794 18.6446 71.305 16.6521 70.8306 14.6595 69.8817 12.0977 68.4585 8.9665 67.0352 5.83534 65.517 3.46324 63.9041 1.85023 62.6705 0.616743 61.1525-0.379535 59.3497-1.1386 58.5906-1.32837 57.452-1.42325 55.9339-1.42325 52.7078-1.42325 50.0036-0.711627 47.8213 0.711627 45.639 2.13488 44.2158 3.60557 43.5516 5.12371L42.6976 7.25859C42.6027 7.35348 42.4129 7.30603 42.1283 7.11627 41.9386 6.9265 41.7487 6.73673 41.559 6.54697 35.9609 1.23349 30.2679-1.42325 24.48-1.42325 19.2613-1.42325 14.6595 0.474417 10.6744 4.26976 6.68929 8.06511 4.69674 14.0902 4.69674 22.3451ZM49.9562 46.6827C49.9562 47.252 49.7189 48.2957 49.2446 49.8139 48.7702 51.332 47.679 52.9924 45.9711 54.7952 44.2632 56.5981 42.0809 57.5468 39.4241 57.6418 36.1032 57.6418 32.9245 56.1711 29.8883 53.2297 26.8521 50.2882 24.48 46.4455 22.7721 41.7013 20.0205 34.2055 18.0753 26.4251 16.9367 18.36 16.9367 18.0753 16.9367 17.5534 16.9367 16.7944 16.9367 16.0354 16.8893 15.4661 16.7944 15.0865 16.7944 10.8167 17.6483 7.87533 19.3562 6.26231 21.0641 4.6493 23.1041 3.79535 25.4762 3.70046 29.0818 3.70046 32.6399 5.26604 36.1506 8.39719 39.6614 11.5284 41.7487 13.9479 42.4129 15.6558 42.6027 16.0354 43.8836 21.1115 46.2557 30.8846 48.6279 40.6576 49.8613 45.9237 49.9562 46.6827Z" transform="matrix(1.00286 0 0 -1 1848.68 1642.64)"/><path d="M10.9697 43.1742C9.15817 43.1742 7.71568 43.7781 6.64219 44.9857 5.5687 46.1934 5.03196 47.6695 5.03196 49.4139 5.03196 54.1774 6.80993 58.3036 10.3658 61.7925 13.9217 65.2813 18.3499 67.0257 23.6502 67.0257 29.7557 67.0257 34.8547 65.1471 38.9474 61.3899 43.0401 57.6328 45.1199 52.7685 45.187 46.7972 45.187 43.9122 44.5161 41.1614 43.1742 38.5448 41.8324 35.9282 40.2222 33.647 38.3436 31.7014 36.4649 29.7557 33.7813 27.2732 30.2924 24.2541 27.8771 22.1741 24.5225 19.0879 20.2285 14.9952L14.2908 9.35945 21.9394 9.25881C32.473 9.25881 38.0751 9.42655 38.7461 9.76201 39.2158 9.89619 40.0209 12.8818 41.1614 18.7189L41.1614 19.0208 45.187 19.0208 45.187 18.7189C45.1199 18.5176 44.6838 15.4649 43.8787 9.56073 43.0736 3.65656 42.5704 0.570289 42.3691 0.301918L42.3691 0 5.03196 0 5.03196 1.91215 5.03196 3.11982C5.03196 3.58947 5.23324 4.09267 5.6358 4.62941 6.03835 5.16614 7.04475 6.34027 8.65497 8.15178 10.6006 10.2987 12.278 12.1773 13.6869 13.7876 14.2908 14.4585 15.4313 15.6997 17.1087 17.5112 18.786 19.3227 19.9266 20.5639 20.5304 21.2349 21.1342 21.9058 22.1071 23.0129 23.4489 24.556 24.7908 26.0991 25.7301 27.2397 26.2668 27.9777 26.8036 28.7157 27.5752 29.7221 28.5815 30.9969 29.5879 32.2717 30.2924 33.3451 30.695 34.2173 31.0975 35.0896 31.6007 36.0624 32.2046 37.1359 32.8084 38.2094 33.2445 39.2828 33.5129 40.3563 33.7813 41.4299 34.0161 42.4362 34.2173 43.3755 34.4186 44.3148 34.5193 45.4218 34.5193 46.6966 34.5193 50.9235 33.3787 54.58 31.0975 57.6663 28.8163 60.7526 25.5624 62.2957 21.3355 62.2957 19.1215 62.2957 17.1758 61.7254 15.4984 60.5848 13.8211 59.4443 12.647 58.3372 11.9761 57.2637 11.3051 56.1902 10.9697 55.5529 10.9697 55.3516 10.9697 55.2845 11.1374 55.2509 11.4729 55.2509 12.6805 55.2509 13.9217 54.7813 15.1965 53.842 16.4713 52.9027 17.1087 51.3595 17.1087 49.2126 17.1087 47.5352 16.572 46.1263 15.4984 44.9857 14.4249 43.8452 12.9153 43.2414 10.9697 43.1742Z" transform="matrix(1.00286 0 0 -1 1924.88 1601.58)"/><path d="M11.9553 33.7311C11.9553 33.7311 11.9553 34.3478 11.9553 35.5813 11.9553 36.8149 12.6195 37.7636 13.9479 38.4278L96.6389 38.4278C98.0621 37.6688 98.7738 36.7199 98.7738 35.5813 98.7738 34.4427 98.0621 33.4938 96.6389 32.7348L13.9479 32.7348C12.6195 33.3991 11.9553 34.3478 11.9553 35.5813Z" transform="matrix(1.00286 0 0 -1 2021.81 1642.64)"/><path d="M7.40092 41.132C8.06511 45.1171 10.627 49.7189 15.0865 54.9376 19.546 60.1562 25.0493 62.8129 31.5962 62.9078 34.9171 62.9078 37.9535 62.0538 40.705 60.3459 43.4566 58.638 45.4967 56.5032 46.825 53.9413 50.8101 59.919 55.6018 62.9078 61.1999 62.9078 64.7106 62.9078 67.7469 61.8641 70.3087 59.7766 72.8706 57.6892 74.1989 54.8902 74.2938 51.3794 74.2938 48.6279 73.6296 46.3981 72.3013 44.6902 70.9729 42.9823 69.692 41.9386 68.4585 41.559 67.225 41.1794 66.1339 40.9897 65.185 40.9897 63.3822 40.9897 61.9115 41.5116 60.7729 42.5553 59.6343 43.5989 59.065 44.9748 59.065 46.6827 59.065 51.0474 61.4371 54.0362 66.1813 55.6492 65.1376 56.8827 63.2398 57.4994 60.4883 57.4994 59.2547 57.4994 58.3534 57.4045 57.7841 57.2148 54.1786 55.6966 51.5218 52.5654 49.8139 47.8213 44.1208 26.8521 41.2743 14.6121 41.2743 11.1014 41.2743 8.44463 42.0334 6.54697 43.5516 5.40836 45.0697 4.26976 46.7301 3.70046 48.5329 3.70046 52.0437 3.70046 55.5069 5.26604 58.9227 8.39719 62.3385 11.5284 64.6631 15.3711 65.8966 19.9255 66.1813 20.8744 66.4659 21.3962 66.7506 21.4911 67.0352 21.5861 67.7943 21.6808 69.0278 21.7758L69.5971 21.7758C71.0203 21.7758 71.732 21.3962 71.732 20.6372 71.732 20.5422 71.637 20.0205 71.4473 19.0716 69.9291 13.6632 66.9878 8.87161 62.6231 4.69674 58.2585 0.52186 53.1823-1.56558 47.3943-1.56558 40.7524-1.56558 35.7237 1.42325 32.3078 7.40092 28.4177 1.51814 23.958-1.42325 18.9293-1.42325L18.0753-1.42325C13.426-1.42325 10.1051-0.189767 8.11254 2.27721 6.11999 4.74417 5.07627 7.35348 4.98139 10.1051 4.98139 13.1414 5.88278 15.6084 7.68557 17.506 9.48836 19.4036 11.6232 20.3525 14.0902 20.3525 18.1702 20.3525 20.2102 18.36 20.2102 14.3749 20.2102 12.4772 19.6409 10.8167 18.5023 9.39347 17.3637 7.97022 16.2725 7.02138 15.2288 6.54697 14.1851 6.07255 13.5683 5.83534 13.3786 5.83534L12.9516 5.69301C12.9516 5.59812 13.2363 5.40836 13.8056 5.12371 14.3749 4.83906 15.1339 4.50697 16.0828 4.12743 17.0316 3.7479 17.933 3.60557 18.7869 3.70046 22.2028 3.70046 25.1442 5.83534 27.6111 10.1051 28.4651 11.6232 29.5563 14.8492 30.8846 19.7832 32.2129 24.7172 33.5414 29.8409 34.8697 35.1544 36.198 40.4678 36.9572 43.5989 37.1469 44.5478 37.6213 47.1097 37.8585 48.9599 37.8585 50.0985 37.8585 52.7553 37.1469 54.6529 35.7237 55.7915 34.3004 56.9301 32.6874 57.4994 30.8846 57.4994 27.0892 57.4994 23.5311 55.9813 20.2102 52.945 16.8893 49.9088 14.5646 46.0185 13.2363 41.2743 13.0465 40.4204 12.8093 39.946 12.5246 39.8511 12.24 39.7562 11.4809 39.6614 10.2474 39.5664L8.25487 39.5664C7.68557 40.1357 7.40092 40.6576 7.40092 41.132Z" transform="matrix(1.00286 0 0 -1 2165.26 1642.64)"/><path d="M10.9697 43.1742C9.15817 43.1742 7.71568 43.7781 6.64219 44.9857 5.5687 46.1934 5.03196 47.6695 5.03196 49.4139 5.03196 54.1774 6.80993 58.3036 10.3658 61.7925 13.9217 65.2813 18.3499 67.0257 23.6502 67.0257 29.7557 67.0257 34.8547 65.1471 38.9474 61.3899 43.0401 57.6328 45.1199 52.7685 45.187 46.7972 45.187 43.9122 44.5161 41.1614 43.1742 38.5448 41.8324 35.9282 40.2222 33.647 38.3436 31.7014 36.4649 29.7557 33.7813 27.2732 30.2924 24.2541 27.8771 22.1741 24.5225 19.0879 20.2285 14.9952L14.2908 9.35945 21.9394 9.25881C32.473 9.25881 38.0751 9.42655 38.7461 9.76201 39.2158 9.89619 40.0209 12.8818 41.1614 18.7189L41.1614 19.0208 45.187 19.0208 45.187 18.7189C45.1199 18.5176 44.6838 15.4649 43.8787 9.56073 43.0736 3.65656 42.5704 0.570289 42.3691 0.301918L42.3691 0 5.03196 0 5.03196 1.91215 5.03196 3.11982C5.03196 3.58947 5.23324 4.09267 5.6358 4.62941 6.03835 5.16614 7.04475 6.34027 8.65497 8.15178 10.6006 10.2987 12.278 12.1773 13.6869 13.7876 14.2908 14.4585 15.4313 15.6997 17.1087 17.5112 18.786 19.3227 19.9266 20.5639 20.5304 21.2349 21.1342 21.9058 22.1071 23.0129 23.4489 24.556 24.7908 26.0991 25.7301 27.2397 26.2668 27.9777 26.8036 28.7157 27.5752 29.7221 28.5815 30.9969 29.5879 32.2717 30.2924 33.3451 30.695 34.2173 31.0975 35.0896 31.6007 36.0624 32.2046 37.1359 32.8084 38.2094 33.2445 39.2828 33.5129 40.3563 33.7813 41.4299 34.0161 42.4362 34.2173 43.3755 34.4186 44.3148 34.5193 45.4218 34.5193 46.6966 34.5193 50.9235 33.3787 54.58 31.0975 57.6663 28.8163 60.7526 25.5624 62.2957 21.3355 62.2957 19.1215 62.2957 17.1758 61.7254 15.4984 60.5848 13.8211 59.4443 12.647 58.3372 11.9761 57.2637 11.3051 56.1902 10.9697 55.5529 10.9697 55.3516 10.9697 55.2845 11.1374 55.2509 11.4729 55.2509 12.6805 55.2509 13.9217 54.7813 15.1965 53.842 16.4713 52.9027 17.1087 51.3595 17.1087 49.2126 17.1087 47.5352 16.572 46.1263 15.4984 44.9857 14.4249 43.8452 12.9153 43.2414 10.9697 43.1742Z" transform="matrix(1.00286 0 0 -1 2247.61 1601.58)"/></g></g></g></g></svg>