<svg width="2186" height="1661" xmlns="http://www.w3.org/2000/svg" xmlns:xlink="http://www.w3.org/1999/xlink" xml:space="preserve" overflow="hidden"><g transform="translate(-1100 -383)"><path d="M43.3989 54.191C43.3989 58.6067 41.9079 62.4147 38.9264 65.6161 35.9449 68.8171 31.6384 70.4178 26.0061 70.4178 22.0308 70.4178 18.6075 69.7001 15.7362 68.2652 12.4235 66.1677 10.767 63.298 10.767 59.6551 10.6564 59.1032 10.6564 58.3858 10.767 57.5025 10.8773 56.6196 11.7609 55.2952 13.4174 53.529 15.0735 51.7628 17.4481 50.383 20.5398 49.3893 22.5279 48.8374 24.957 48.3409 27.8282 47.899 30.6995 47.4576 33.129 46.9607 35.1166 46.4088 37.1043 45.8572 38.8715 45.1395 40.4174 44.2565 42.2944 43.3732 44.1165 42.2698 45.8837 40.9447 47.6505 39.6203 49.4172 37.3572 51.1844 34.1562 52.9512 30.9551 53.8897 27.5332 54.0003 23.8903 54.0003 17.0464 51.902 11.4168 47.7058 7.00149 43.5095 2.58616 36.7182 0.32309 27.3315 0.212635L26.0061 0.212635C20.264 0.212635 14.9633 2.19975 10.1043 6.17361L8.77934 5.01438 7.2884 3.52449C6.62572 2.86212 5.9634 2.2548 5.30072 1.70288L3.47862 0.0471323 2.15326 0.0471323 1.49094 0.0471323C1.15942 0.0471323 0.66268 0.378498 0 1.04051L0 14.1213 0 23.7248C0 26.0429 0.110626 27.4227 0.33116 27.8642 0.552054 28.3057 1.10447 28.5816 1.98768 28.6921L3.47862 28.6921C4.80362 28.6921 5.68719 28.4715 6.12898 28.0301 6.57077 27.5882 6.84661 26.9259 6.95724 26.0429 7.06751 25.16 7.45398 23.6698 8.11666 21.5722 8.77934 19.475 9.82813 17.1569 11.2638 14.6182 15.1289 8.98824 20.4849 6.17361 27.3315 6.17361 38.0432 6.17361 43.3989 10.4785 43.3989 19.0886 43.3989 22.2896 42.405 24.8841 40.4174 26.8708 38.2088 29.5199 33.6257 31.5071 26.6688 32.8314 19.7119 34.1562 15.1289 35.4259 12.9203 36.6398 8.94492 38.5165 5.79746 41.0555 3.47862 44.2565 1.15942 47.4576 0 50.8795 0 54.5224 0 58.8273 0.938886 62.4701 2.81594 65.4506 4.69335 68.4307 7.06751 70.6384 9.93876 72.0736 12.81 73.5084 15.5706 74.5022 18.221 75.0541 20.8714 75.6056 23.3008 75.882 25.5094 75.882L27.3315 75.882C31.7487 75.882 35.6137 75.0541 38.9264 73.398L41.4112 72.0736 42.9021 73.2325C44.0063 74.2262 45.221 75.1642 46.546 76.0475L47.8713 76.0475 48.534 76.0475C48.8652 76.0475 49.3623 75.7161 50.025 75.0541L50.025 53.1976 49.0308 52.2043 44.3927 52.2043C43.73 52.8666 43.3989 53.529 43.3989 54.191Z" fill-rule="evenodd" transform="matrix(1 0 0 -1 1100 647)"/><path d="M7.15098 101.083C7.15098 104.181 8.14659 106.614 10.1378 108.384 12.129 110.154 14.5628 111.038 17.4392 111.038 19.9835 110.817 22.196 109.877 24.0767 108.218 25.9575 106.559 26.8977 104.181 26.8977 101.083 26.8977 97.7649 25.9575 95.2762 24.0767 93.617 22.196 91.9578 19.873 91.1283 17.1071 91.1283 14.3415 91.1283 12.0186 91.9578 10.1378 93.617 8.25706 95.2762 7.26145 97.7649 7.15098 101.083ZM36.6883 0.0382163C35.0288 0.370266 29.2761 0.53611 19.4304 0.53611 18.2135 0.53611 16.1669 0.53611 13.2909 0.53611 10.4145 0.53611 7.64861 0.425427 4.99353 0.204061L1.34319 0.0382163 0.0154721 0.0382163 0.0154721 7.67066 2.67055 7.67066C5.76821 7.67066 8.47834 7.83651 10.8017 8.1682 11.7973 8.61093 12.4057 9.21915 12.627 9.99357 12.8479 10.7676 12.9588 13.0905 12.9588 16.9619L12.9588 34.0518 12.9588 48.6526C12.9588 54.4045 12.8479 58.0549 12.627 59.6034 12.4057 61.1519 11.6314 62.2028 10.3037 62.7559 8.75504 63.5303 6.15537 63.9172 2.50468 63.9172L0.679333 63.9172 0.679333 67.7334C0.679333 70.2773 0.789796 71.5496 1.01108 71.5496L2.67055 71.7155C3.77699 71.8261 5.32564 71.9368 7.31686 72.0475 9.30808 72.1578 11.2993 72.2685 13.2909 72.3792 15.1713 72.4899 17.1625 72.6002 19.2645 72.7109 21.3666 72.8216 22.9703 72.9878 24.0767 73.2088 25.1832 73.4301 25.7912 73.4853 25.9021 73.3746L26.4001 73.3746 26.4001 10.3253C26.9531 9.21915 27.6166 8.55541 28.3913 8.3344 29.1656 8.11304 31.1014 7.89167 34.1991 7.67066L38.0156 7.67066 38.0156 0.0382163 36.6883 0.0382163Z" fill-rule="evenodd" transform="matrix(1 0 0 -1 1165 645)"/><path d="M2.68789 7.63833 5.01689 7.63833C9.34198 7.63833 11.948 8.40862 12.8349 9.94884L12.8349 11.2692C12.8349 12.2593 12.8349 13.5245 12.8349 15.0651 12.8349 16.6053 12.8349 18.3108 12.8349 20.181 12.8349 22.0515 12.8905 24.1967 13.0016 26.6173 13.1123 29.0379 13.1123 31.3484 13.0016 33.5488 13.0016 36.9595 13.0016 40.5904 13.0016 44.4408 13.0016 48.2918 12.946 51.5376 12.8349 54.178L12.8349 57.9739C12.5024 60.0642 11.7262 61.4394 10.5063 62.0996 9.28643 62.7598 6.79115 63.2547 3.02081 63.585L0.0266914 63.585 0.0266914 67.3809C0.0266914 69.9112 0.137424 71.1767 0.359251 71.1767L2.02277 71.3413C3.13155 71.4518 4.68433 71.5615 6.68042 71.6716 8.6765 71.7817 10.7281 71.8914 12.8349 72.0015 14.7203 72.112 16.7164 72.2217 18.8235 72.3318 20.9304 72.4419 22.5383 72.6068 23.6475 72.8267 24.7566 73.0468 25.3665 73.1017 25.4773 72.992L25.9761 72.992 25.9761 66.3904C25.9761 62.2097 26.0317 60.1191 26.1427 60.1191 26.2535 60.1191 26.5309 60.3941 26.9745 60.9442 27.4182 61.4943 28.0833 62.3195 28.9706 63.42 29.8575 64.5202 30.9115 65.5104 32.131 66.3904 33.3509 67.2708 34.9588 68.3161 36.9549 69.526 38.9514 70.7363 41.0582 71.6167 43.2761 72.1668 45.494 72.7166 48.3218 72.992 51.7596 72.992 64.4019 72.5516 71.4438 66.3355 72.8855 54.343 72.9966 53.5727 73.0521 45.9261 73.0521 31.4032L73.0521 17.2103C73.0521 13.0296 73.1628 10.5542 73.3847 9.78388 73.6061 9.01359 74.2164 8.46349 75.2145 8.13357 77.5431 7.80329 80.2602 7.63833 83.3651 7.63833L86.0266 7.63833 86.0266 0.0469775 84.696 0.0469775 80.7039 0.211937C78.1534 0.322029 75.3807 0.376896 72.3866 0.376896 69.3925 0.376896 67.2853 0.431763 66.0655 0.541855 54.643 0.541855 48.4329 0.376896 47.4349 0.0469775L46.1039 0.0469775 46.1039 7.63833 48.7655 7.63833C55.5303 7.63833 58.9125 8.51871 58.9125 10.2791 59.0236 10.4989 59.0788 18.0903 59.0788 33.0535 58.9681 47.9067 58.8573 55.7735 58.7463 56.6535 58.0808 59.7343 56.972 62.0448 55.4192 63.585 53.8668 65.1252 52.5362 66.0605 51.427 66.3904 50.3179 66.7207 48.8766 66.8307 47.102 66.7207 42.1118 66.7207 37.7315 64.8502 33.9608 61.1095 30.9667 58.1388 29.0817 55.1133 28.3051 52.0325 27.5289 48.952 27.0852 44.3862 26.9745 38.3347L26.9745 27.7727 26.9745 17.8705C26.9745 14.5698 27.0297 12.3694 27.1408 11.2692 27.2519 10.169 27.4182 9.4536 27.64 9.12368 27.8615 8.79377 28.3607 8.46349 29.1369 8.13357 31.4655 7.80329 34.1826 7.63833 37.2878 7.63833L39.9494 7.63833 39.9494 0.0469775 38.6184 0.0469775 34.7926 0.211937C32.131 0.322029 29.3032 0.376896 26.309 0.376896 23.3149 0.376896 21.2077 0.431763 19.9879 0.541855 8.5654 0.541855 2.35533 0.376896 1.35729 0.0469775L0.0266914 0.0469775 0.0266914 7.63833 2.68789 7.63833Z" fill-rule="evenodd" transform="matrix(1 0 0 -1 1212 645)"/><path d="M1.22544 65.9368C0.445218 66.7135 0.0551085 67.2682 0.0551085 67.6012 0.0551085 68.0448 0.222247 68.9322 0.556523 70.2635 0.891162 71.5949 1.1696 72.3712 1.39258 72.5932 1.61555 73.1479 2.11732 73.4252 2.89754 73.4252 3.67776 73.4252 6.5202 73.4806 11.4249 73.5916L20.2864 73.5916 23.4635 86.9041C23.7981 88.1245 24.1879 89.7332 24.6338 91.7299 25.0798 93.7265 25.4699 95.1689 25.8042 96.0562 26.1388 96.9439 26.4731 98.0533 26.8077 99.3843 27.142 100.716 27.5879 101.659 28.1452 102.213 28.7024 102.768 29.26 103.434 29.8173 104.21 30.3745 104.987 31.1548 105.486 32.158 105.708 33.1611 105.93 34.1643 106.041 35.1679 106.041 37.1743 105.93 38.5676 105.32 39.3478 104.21 40.128 103.101 40.5181 102.047 40.5181 101.049 40.5181 100.272 40.0167 97.6649 39.0135 93.2275 38.0103 88.7902 36.8955 84.4081 35.6693 80.0813L33.9972 73.9246C33.9972 73.7026 36.7842 73.5916 42.3574 73.5916L50.8847 73.5916C51.6653 72.8149 52.0554 72.2049 52.0554 71.7612 52.0554 69.3205 51.3306 67.3792 49.8815 65.9368L31.9908 65.9368 25.9717 41.8081C21.6243 24.0582 19.4507 14.5177 19.4507 13.1863 19.4507 8.5273 20.9554 6.1976 23.9649 6.1976 27.8664 6.1976 31.6565 8.08327 35.335 11.8553 39.0135 15.6271 41.9673 20.2865 44.1966 25.8332 44.4196 26.4989 44.6984 26.8872 45.0327 26.9982 45.3673 27.1092 46.203 27.2199 47.5408 27.3309L48.2097 27.3309C49.8815 27.3309 50.7175 26.8872 50.7175 25.9995 50.7175 25.6669 50.5504 25.0012 50.2161 24.0028 49.6589 22.2278 48.6557 20.1201 47.2066 17.6794 45.7571 15.2387 43.8623 12.632 41.5213 9.8583 39.1807 7.08493 36.3382 4.75523 32.994 2.86955 29.6502 0.983516 26.2501 0.0404977 22.7946 0.0404977 19.4507 0.0404977 16.2737 0.872509 13.2641 2.53653 10.2545 4.20055 8.08064 7.08493 6.74317 11.1897 6.5202 12.077 6.4089 13.5747 6.4089 15.6827L6.4089 18.6778 12.2609 41.9748C16.1624 57.6167 18.1687 65.4931 18.2804 65.6041 18.2804 65.8261 15.4376 65.9368 9.75275 65.9368L1.22544 65.9368Z" fill-rule="evenodd" transform="matrix(1 0 0 -1 1332 647)"/><path d="M0.0798678 35.7118C0.0798678 37.1561 0.857585 38.2672 2.41338 39.0451L108.58 39.0451C110.247 38.1564 111.08 37.0449 111.08 35.7118 111.08 34.4895 110.303 33.4339 108.747 32.5451L55.7467 32.3785 2.74659 32.3785C0.968894 32.9341 0.0798678 34.0452 0.0798678 35.7118ZM0.0798678 3.37855C0.0798678 5.04519 0.968894 6.15629 2.74659 6.71183L108.747 6.71183C110.303 5.60074 111.08 4.48965 111.08 3.37855 111.08 1.93391 110.247 0.822818 108.58 0.0449073L2.41338 0.0449073C0.857585 0.822818 0.0798678 1.93391 0.0798678 3.37855Z" fill-rule="evenodd" transform="matrix(1 0 0 -1 1445 623)"/><path d="M0.125584 0.0404169 116.126 0.0404169 116.126 9.04068 0.125584 9.04068Z" fill-rule="evenodd" transform="matrix(1 0 0 -1 1632 608)"/><path d="M2.95554 50.3529C3.73166 55.0505 6.72543 60.4747 11.9372 66.6266 17.1486 72.778 23.5797 75.9099 31.2306 76.0218 35.1116 76.0218 38.66 75.0149 41.8756 73.0019 45.0912 70.9884 47.4751 68.4719 49.0277 65.4523 53.6848 72.4984 59.2842 76.0218 65.8264 76.0218 69.9292 76.0218 73.4773 74.7915 76.4711 72.3307 79.4648 69.87 81.0174 66.5708 81.1282 62.4324 81.1282 59.1886 80.352 56.5601 78.7998 54.5471 77.2472 52.5336 75.7505 51.3036 74.309 50.856 72.8674 50.4087 71.5922 50.1852 70.4835 50.1852 68.3766 50.1852 66.6577 50.8002 65.3273 52.0306 63.9969 53.2609 63.3315 54.8825 63.3315 56.8959 63.3315 62.0408 66.1034 65.5639 71.6477 67.4654 70.428 68.9196 68.2104 69.6462 64.9948 69.6462 63.5533 69.6462 62.4998 69.5346 61.8344 69.3108 57.6209 67.5212 54.5164 63.8304 52.5202 58.2378 45.8673 33.52 42.541 19.0917 42.541 14.9533 42.541 11.8214 43.4278 9.58448 45.2019 8.24219 46.9763 6.90027 48.9166 6.22913 51.0235 6.22913 55.1259 6.22913 59.1735 8.0745 63.1652 11.7656 67.1569 15.4563 69.8733 19.9863 71.3152 25.3551 71.6477 26.4735 71.9802 27.0885 72.3131 27.2004 72.6456 27.3124 73.5325 27.4239 74.974 27.5362L75.6394 27.5362C77.3027 27.5362 78.1344 27.0885 78.1344 26.1935 78.1344 26.082 78.0233 25.467 77.8019 24.3482 76.0275 17.9729 72.5901 12.3248 67.4894 7.40336 62.3891 2.48225 56.4567 0.0215087 49.6927 0.0215087 41.9308 0.0215087 36.0543 3.54492 32.0623 10.591 27.5163 3.65647 22.3045 0.189203 16.4277 0.189203L15.4297 0.189203C9.99653 0.189203 6.11557 1.64341 3.7872 4.55145 1.45847 7.4595 0.238751 10.5352 0.128031 13.7787 0.128031 17.3579 1.18149 20.2659 3.28806 22.5028 5.39498 24.7397 7.88997 25.8582 10.7727 25.8582 15.5408 25.8582 17.9247 23.5093 17.9247 18.8117 17.9247 16.5748 17.2593 14.6175 15.9289 12.9398 14.5981 11.2622 13.3232 10.1437 12.1035 9.58448 10.8837 9.02526 10.1628 8.74564 9.94099 8.74564L9.44221 8.57795C9.44221 8.46603 9.77473 8.24219 10.4401 7.90681 11.1052 7.57142 11.9924 7.17988 13.1014 6.73258 14.2104 6.28491 15.2635 6.11721 16.2614 6.22913 20.2531 6.22913 23.6908 8.74564 26.5735 13.7787 27.5714 15.5683 28.8467 19.3709 30.3989 25.1874 31.9515 31.0031 33.5038 37.043 35.056 43.3064 36.6086 49.5698 37.4958 53.2609 37.7173 54.379 38.2716 57.399 38.5489 59.5801 38.5489 60.9224 38.5489 64.0543 37.7173 66.2912 36.0543 67.6331 34.391 68.9754 32.5059 69.6462 30.3989 69.6462 25.9637 69.6462 21.8057 67.8566 17.9247 64.2777 14.0438 60.6986 11.327 56.1128 9.77473 50.5206 9.55293 49.514 9.27595 48.9548 8.94307 48.8429 8.61055 48.731 7.72335 48.6191 6.28183 48.5072L3.95346 48.5072C3.28806 49.1783 2.95554 49.7937 2.95554 50.3529Z" fill-rule="evenodd" transform="matrix(1 0 0 -1 1648 535)"/><path d="M0.12929 27.8459C0.12929 39.0435 4.36038 49.6864 12.8226 59.775 21.2851 69.864 30.8052 74.9634 41.3831 75.0744 47.0617 75.0744 52.0725 72.3584 56.4152 66.9259 58.1966 70.2521 60.7574 71.9151 64.098 71.9151 65.5455 71.9151 66.8258 71.4713 67.9394 70.5846 69.0527 69.6978 69.6097 68.5888 69.6097 67.2587 69.6097 65.8172 67.5497 56.9482 63.4298 40.6508 59.3099 24.3538 57.1945 15.1519 57.083 13.0456 57.083 10.274 57.4727 8.44446 58.2524 7.5577 59.0318 6.67058 60.2008 6.17191 61.7595 6.06098 62.7616 6.17191 63.8753 6.67058 65.1001 7.5577 67.4382 9.77497 69.7208 15.0966 71.9478 23.5223 72.6159 25.7395 73.1726 26.9035 73.618 27.0144 73.8408 27.1253 74.3974 27.181 75.2883 27.181L75.9561 27.181C78.0719 27.181 79.1297 26.682 79.1297 25.6843 79.1297 25.019 78.8512 23.5223 78.2946 21.1941 77.7379 18.8659 76.6243 15.8724 74.9544 12.2141 73.2841 8.5554 71.5023 5.78382 69.6097 3.899 68.1621 2.45792 66.3807 1.29364 64.2649 0.406884 63.3744 0.185013 62.038 0.0744388 60.2562 0.0744388 56.4706 0.0744388 53.2973 0.905912 50.7362 2.56886 48.1753 4.23181 46.5051 5.95004 45.7257 7.72392L44.7236 10.2183C44.6121 10.3293 44.3897 10.274 44.0554 10.0521 43.8327 9.83025 43.61 9.60874 43.3873 9.38687 36.8181 3.17846 30.1373 0.0744388 23.3451 0.0744388 17.221 0.0744388 11.8208 2.2917 7.14429 6.72623 2.46774 11.1608 0.12929 18.2006 0.12929 27.8459ZM53.2416 56.2829C53.2416 56.9482 52.9631 58.1677 52.4064 59.9416 51.8498 61.7151 50.5692 63.6553 48.565 65.7619 46.5608 67.8683 44 68.9769 40.8822 69.0878 36.985 69.0878 33.2548 67.3696 29.6919 63.9324 26.129 60.4959 23.3451 56.0058 21.3409 50.4626 18.1119 41.7041 15.8292 32.6132 14.4932 23.1895 14.4932 22.857 14.4932 22.2471 14.4932 21.3603 14.4932 20.4735 14.4374 19.8083 14.3259 19.3649 14.3259 14.3757 15.328 10.9389 17.3325 9.05443 19.3367 7.16961 21.7306 6.17191 24.5141 6.06098 28.7452 6.06098 32.9209 7.89015 37.0408 11.5488 41.1607 15.2075 43.61 18.0344 44.3897 20.0302 44.6121 20.4735 46.1154 26.4048 48.8989 37.8239 51.6828 49.243 53.1304 55.3962 53.2416 56.2829Z" fill-rule="evenodd" transform="matrix(1 0 0 -1 1651 761)"/><path d="M87.5021 89.2219C87.5021 90.4371 88.3907 91.0451 90.1684 91.0451 90.7242 91.0451 91.1684 91.0451 91.5019 91.0451 91.8351 91.0451 92.1131 91.0451 92.3353 91.0451 92.5576 91.0451 92.7795 90.99 93.0017 90.8791 93.224 90.7685 93.3353 90.7134 93.3353 90.7134 93.3353 90.7134 93.4462 90.5477 93.6685 90.216 93.8907 89.8846 94.002 89.7189 94.002 89.7189 94.002 89.7189 94.1686 89.4427 94.5019 88.8902 98.613 80.7127 104.057 73.475 110.835 67.1762 117.613 60.8774 123.78 56.4019 129.335 53.7499 134.891 51.0976 140.224 49.0536 145.335 47.6168 147.224 47.0643 148.169 46.3461 148.169 45.4619 148.169 44.578 147.668 43.9704 146.669 43.6387 145.668 43.3073 143.613 42.6993 140.502 41.8154 137.391 40.9312 134.169 39.6054 130.835 37.8373 114.835 30.1018 102.724 18.1673 94.5019 2.03392 94.0573 1.03947 93.6685 0.486959 93.3353 0.376385 93.0017 0.26581 92.1687 0.155236 90.8352 0.0446619 88.613 0.0446619 87.5021 0.431492 87.5021 1.20515 87.5021 1.64709 87.7796 2.58643 88.3351 4.02281 92.224 11.6478 97.002 18.4436 102.669 24.411L104.335 26.0685 2.50192 26.0685C0.946486 26.8422 0.168409 27.9472 0.168409 29.3836 0.168409 31.0411 1.05743 32.1461 2.83512 32.6986L111.668 32.6986 113.335 34.0248C117.669 37.3399 124.169 41.1524 132.835 45.4619 132.724 45.5724 131.724 46.0698 129.835 46.9537 127.947 47.838 125.446 49.1638 122.335 50.9319 119.224 52.7003 116.224 54.6892 113.335 56.8993L111.668 58.2251 2.83512 58.2251C1.05743 58.7776 0.168409 59.883 0.168409 61.5405 0.168409 62.9769 0.946486 64.0819 2.50192 64.8556L104.335 64.8556 102.669 66.5131C99.0019 70.3807 95.5575 74.8563 92.3353 79.9394 89.1131 85.0226 87.5021 88.1165 87.5021 89.2219Z" fill-rule="evenodd" transform="matrix(1 0 0 -1 1824 649)"/><path d="M55.7759 52.3732C55.7759 52.3732 54.6182 52.3732 52.3034 52.3732 49.9886 52.3732 48.004 53.201 46.3504 54.8565 44.6972 56.512 43.8151 58.6089 43.7047 61.1475 43.7047 63.6858 44.5315 65.7831 46.1851 67.4383 46.7366 67.9901 47.0119 68.3214 47.0119 68.4318 47.0119 68.5423 46.4609 68.6524 45.3587 68.7628 42.4925 69.2046 39.7915 69.4251 37.2559 69.4251 31.8544 69.4251 27.445 67.6591 24.0277 64.1276 18.8467 58.9402 16.2562 50.276 16.2562 38.1356 16.2562 29.085 17.9646 21.9666 21.3819 16.7792 25.9018 10.0467 31.9648 6.6803 39.571 6.6803 44.0905 6.6803 47.7283 8.11528 50.4845 10.9849 53.2403 13.8545 55.2248 17.276 56.4371 21.2492 56.6576 22.132 56.9333 22.6839 57.2639 22.9047 57.5948 23.1253 58.4765 23.2357 59.9096 23.2357L62.2247 23.2357C62.8859 22.5734 63.2168 22.077 63.2168 21.7457 63.2168 21.3043 62.9963 20.4211 62.5553 19.0969 62.1143 17.7724 61.2326 15.9514 59.9096 13.6336 58.5869 11.3159 56.9881 9.21895 55.1144 7.34257 53.2403 5.46619 50.5945 3.75564 47.1772 2.21058 43.7599 0.665152 39.9568-0.0521617 35.7679 0.0582772 26.2876 0.0582772 18.0198 3.59016 10.9647 10.6536 3.90959 17.7174 0.326995 26.6021 0.216562 37.3078 0.216562 48.7859 3.79952 58.1125 10.9647 65.2863 18.1299 72.4602 26.4529 76.0475 35.9332 76.0475 45.4135 76.0475 52.0276 74.5574 55.7759 71.5774 59.5238 68.5973 61.3979 65.0658 61.3979 60.9821 61.3979 58.4434 60.4607 56.4016 58.5869 54.8565Z" fill-rule="evenodd" transform="matrix(1 0 0 -1 2034 647)"/><path d="M0.233327 37.2177C0.233327 47.727 3.80362 56.7987 10.9442 64.4317 18.0852 72.0647 26.709 75.9369 36.8156 76.0476 46.7033 76.0476 55.217 72.2861 62.3576 64.7634 69.4985 57.2411 73.1235 48.1143 73.2336 37.3836 73.2336 26.8743 69.7183 18.024 62.6874 10.8334 55.6565 3.64252 47.0327 0.0472352 36.8156 0.0472352 26.1598 0.0472352 17.4259 3.75321 10.6148 11.1652 3.80362 18.5771 0.343023 27.2612 0.233327 37.2177ZM36.8156 6.68468C50.2185 6.68468 56.9196 15.7008 56.9196 33.7328L56.9196 39.0429 56.9196 43.1913C56.9196 45.6252 56.8649 47.727 56.7549 49.4971 56.6452 51.2671 56.2607 53.3689 55.6015 55.8028 54.9422 58.2367 54.0636 60.2277 52.9648 61.7768 51.8661 63.3254 50.1635 64.8741 47.8567 66.4231 45.5495 67.9714 42.8582 69.078 39.7821 69.7415 39.2329 69.8525 38.3539 69.9077 37.1454 69.9077 33.8495 69.9077 30.7188 69.2439 27.7527 67.9163 23.0286 65.4827 19.9528 62.1085 18.5247 57.7939 17.0965 53.4796 16.3822 48.3908 16.3822 42.5279L16.3822 39.2088C16.3822 28.5888 17.4259 21.1217 19.5133 16.8071 23.0286 10.0589 28.796 6.68468 36.8156 6.68468Z" fill-rule="evenodd" transform="matrix(1 0 0 -1 2108 647)"/><path d="M44.4612 54.191C44.4612 58.6067 42.9427 62.4147 39.9059 65.6161 36.8692 68.8171 32.4826 70.4178 26.7464 70.4178 22.6974 70.4178 19.2107 69.7001 16.2863 68.2652 12.9123 66.1677 11.2251 63.298 11.2251 59.6551 11.1124 59.1032 11.1124 58.3858 11.2251 57.5025 11.3374 56.6196 12.2373 55.2952 13.9245 53.529 15.6113 51.7628 18.0298 50.383 21.1789 49.3893 23.2037 48.8374 25.6778 48.3409 28.6022 47.899 31.5267 47.4576 34.0011 46.9607 36.0256 46.4088 38.0501 45.8572 39.85 45.1395 41.4245 44.2565 43.3363 43.3732 45.1922 42.2698 46.992 40.9447 48.7915 39.6203 50.591 37.3572 52.3909 34.1562 54.1904 30.9551 55.1463 27.5332 55.259 23.8903 55.259 17.0464 53.1218 11.4168 48.8479 7.00149 44.5739 2.58616 37.6568 0.32309 28.0963 0.212635L26.7464 0.212635C20.8979 0.212635 15.499 2.19975 10.5501 6.17361L9.20057 5.01438 7.68202 3.52449C7.00706 2.86212 6.33248 2.2548 5.65753 1.70288L3.80168 0.0471323 2.45178 0.0471323 1.77719 0.0471323C1.43953 0.0471323 0.933592 0.378498 0.25864 1.04051L0.25864 14.1213 0.25864 23.7248C0.25864 26.0429 0.371315 27.4227 0.595933 27.8642 0.820917 28.3057 1.38356 28.5816 2.28313 28.6921L3.80168 28.6921C5.15122 28.6921 6.05116 28.4715 6.50112 28.0301 6.95109 27.5882 7.23205 26.9259 7.34472 26.0429 7.45703 25.16 7.85066 23.6698 8.52561 21.5722 9.20057 19.475 10.2688 17.1569 11.731 14.6182 15.6677 8.98824 21.1229 6.17361 28.0963 6.17361 39.0064 6.17361 44.4612 10.4785 44.4612 19.0886 44.4612 22.2896 43.449 24.8841 41.4245 26.8708 39.175 29.5199 34.5071 31.5071 27.4213 32.8314 20.3356 34.1562 15.6677 35.4259 13.4182 36.6398 9.36921 38.5165 6.16347 41.0555 3.80168 44.2565 1.43953 47.4576 0.25864 50.8795 0.25864 54.5224 0.25864 58.8273 1.21491 62.4701 3.12673 65.4506 5.03891 68.4307 7.45703 70.6384 10.3815 72.0736 13.3059 73.5084 16.1176 74.5022 18.8171 75.0541 21.5165 75.6056 23.991 75.882 26.2405 75.882L28.0963 75.882C32.5952 75.882 36.5319 75.0541 39.9059 73.398L42.4367 72.0736 43.9553 73.2325C45.0798 74.2262 46.3171 75.1642 47.6666 76.0475L49.0165 76.0475 49.6915 76.0475C50.0288 76.0475 50.5351 75.7161 51.21 75.0541L51.21 53.1976 50.1974 52.2043 45.4735 52.2043C44.7985 52.8666 44.4612 53.529 44.4612 54.191Z" fill-rule="evenodd" transform="matrix(1 0 0 -1 2192 647)"/><path d="M1.44878 65.9368C0.668557 66.7135 0.278445 67.2682 0.278445 67.6012 0.278445 68.0448 0.445584 68.9322 0.780225 70.2635 1.1145 71.5949 1.39331 72.3712 1.61592 72.5932 1.83889 73.1479 2.34068 73.4252 3.1209 73.4252 3.90113 73.4252 6.74358 73.4806 11.6483 73.5916L20.5103 73.5916 23.687 86.9041C24.0217 88.1245 24.4118 89.7332 24.8577 91.7299 25.3033 93.7265 25.6934 95.1689 26.028 96.0562 26.3623 96.9439 26.6966 98.0533 27.0312 99.3843 27.3655 100.716 27.8115 101.659 28.3687 102.213 28.926 102.768 29.4836 103.434 30.0408 104.21 30.5981 104.987 31.3787 105.486 32.3815 105.708 33.3847 105.93 34.3883 106.041 35.3915 106.041 37.3979 105.93 38.7912 105.32 39.5714 104.21 40.3516 103.101 40.7417 102.047 40.7417 101.049 40.7417 100.272 40.2403 97.6649 39.2371 93.2275 38.2339 88.7902 37.1191 84.4081 35.8929 80.0813L34.2208 73.9246C34.2208 73.7026 37.0078 73.5916 42.581 73.5916L51.1087 73.5916C51.889 72.8149 52.2791 72.2049 52.2791 71.7612 52.2791 69.3205 51.5547 67.3792 50.1055 65.9368L32.2144 65.9368 26.1952 41.8081C21.8478 24.0582 19.6742 14.5177 19.6742 13.1863 19.6742 8.5273 21.1792 6.1976 24.1888 6.1976 28.0903 6.1976 31.8801 8.08327 35.5586 11.8553 39.2371 15.6271 42.1909 20.2865 44.4203 25.8332 44.6432 26.4989 44.922 26.8872 45.2567 26.9982 45.591 27.1092 46.427 27.2199 47.7645 27.3309L48.4334 27.3309C50.1055 27.3309 50.9412 26.8872 50.9412 25.9995 50.9412 25.6669 50.7741 25.0012 50.4398 24.0028 49.8826 22.2278 48.8794 20.1201 47.4302 17.6794 45.9811 15.2387 44.086 12.632 41.7449 9.8583 39.4043 7.08493 36.5618 4.75523 33.2179 2.86955 29.8737 0.983516 26.474 0.0404977 23.0185 0.0404977 19.6742 0.0404977 16.4971 0.872509 13.4875 2.53653 10.4779 4.20055 8.30439 7.08493 6.96655 11.1897 6.74358 12.077 6.63228 13.5747 6.63228 15.6827L6.63228 18.6778 12.4843 41.9748C16.3858 57.6167 18.3922 65.4931 18.5039 65.6041 18.5039 65.8261 15.6614 65.9368 9.97615 65.9368L1.44878 65.9368Z" fill-rule="evenodd" transform="matrix(1 0 0 -1 2284 647)"/><path d="M0.302486 35.7118C0.302486 37.1561 1.08056 38.2672 2.636 39.0451L108.803 39.0451C110.47 38.1564 111.303 37.0449 111.303 35.7118 111.303 34.4895 110.525 33.4339 108.969 32.5451L55.9696 32.3785 2.9692 32.3785C1.19151 32.9341 0.302486 34.0452 0.302486 35.7118ZM0.302486 3.37855C0.302486 5.04519 1.19151 6.15629 2.9692 6.71183L108.969 6.71183C110.525 5.60074 111.303 4.48965 111.303 3.37855 111.303 1.93391 110.47 0.822818 108.803 0.0449073L2.636 0.0449073C1.08056 0.822818 0.302486 1.93391 0.302486 3.37855Z" fill-rule="evenodd" transform="matrix(1 0 0 -1 2398 623)"/><path d="M0.347916 0.0404169 700.348 0.0404169 700.348 9.04068 0.347916 9.04068Z" fill-rule="evenodd" transform="matrix(1 0 0 -1 2585 608)"/><path d="M4.18373 62.759C3.51784 62.759 2.74115 63.2019 1.85366 64.0874 0.96581 64.9726 0.466303 65.7471 0.355502 66.4111 0.244701 67.0752 1.96446 68.7352 5.51551 71.3914 9.0662 74.0473 12.728 76.8139 16.5011 79.6913 20.2737 82.5686 22.3818 84.1734 22.8257 84.5052 23.0477 84.7264 23.3252 84.8371 23.658 84.8371L23.8244 84.8371C24.4903 84.8371 25.267 83.8964 26.1548 82.0153 27.0423 80.1338 30.0383 73.6599 35.1427 62.5934 37.2512 57.8346 38.9713 54.0165 40.3027 51.1392L54.4506 20.4293C54.5618 20.4293 60.3317 32.2151 71.7612 55.7872 83.1906 79.359 94.6198 103.097 106.049 127.001 117.479 150.905 123.415 163.134 123.859 163.687 124.525 165.237 125.635 166.011 127.188 166.011 127.965 166.011 128.631 165.679 129.185 165.015 129.74 164.351 130.128 163.687 130.35 163.023L130.35 162.027 91.5682 81.8494 52.4533 1.17302C52.0094 0.398581 50.9555 0.0111819 49.2909 0.0111819 48.2919 0.0111819 47.6264 0.177107 47.2936 0.508957 47.0717 0.730431 41.6345 12.461 30.9817 35.7013L15.0029 70.5611 12.3397 68.7352C10.6752 67.407 8.95539 66.0793 7.17969 64.7512 5.40435 63.4234 4.40569 62.759 4.18373 62.759Z" fill-rule="evenodd" transform="matrix(1 0 0 -1 2607 551)"/><path d="M0.350264-0.0296971 541.351-0.0296971 541.351 9.97027 0.350264 9.97027Z" fill-rule="evenodd" transform="matrix(1 0 0 -1 2734 393)"/><path d="M0.379386 27.7931C0.379386 38.9904 4.55692 49.6333 12.9123 59.7223 21.2674 69.8109 30.6669 74.9107 41.111 75.0216 46.7181 75.0216 51.6651 72.3057 55.9528 66.8731 57.7117 70.199 60.2401 71.8619 63.5383 71.8619 64.9676 71.8619 66.2316 71.4186 67.3311 70.5318 68.4306 69.6447 68.9802 68.536 68.9802 67.2055 68.9802 65.7645 66.9464 56.8954 62.8786 40.598 58.8112 24.301 56.7223 15.0991 56.6121 12.9925 56.6121 10.2209 56.9972 8.3917 57.7667 7.50494 58.5362 6.61782 59.6905 6.11879 61.2295 6.00822 62.2189 6.11879 63.3184 6.61782 64.5277 7.50494 66.8366 9.72221 69.09 15.0435 71.2887 23.4692 71.9485 25.6868 72.498 26.8507 72.9379 26.9616 73.1578 27.0726 73.7077 27.1279 74.587 27.1279L75.2467 27.1279C77.3357 27.1279 78.3798 26.6292 78.3798 25.6311 78.3798 24.9659 78.1048 23.4692 77.5552 21.1413 77.0056 18.8131 75.9061 15.8197 74.2573 12.161 72.6082 8.50264 70.8489 5.73106 68.9802 3.84624 67.551 2.40517 65.7921 1.24089 63.7032 0.354126 62.8239 0.132255 61.5044 0.0213198 59.7455 0.0213198 56.0075 0.0213198 52.8744 0.852793 50.346 2.51574 47.8172 4.17869 46.1681 5.89728 45.3986 7.67117L44.4092 10.1656C44.2991 10.2765 44.0795 10.2209 43.7498 9.99936 43.5299 9.77749 43.31 9.55562 43.0901 9.33411 36.6037 3.1257 30.0076 0.0213198 23.3013 0.0213198 17.2547 0.0213198 11.9229 2.23858 7.30559 6.67347 2.68824 11.108 0.379386 18.1479 0.379386 27.7931ZM52.8193 56.2302C52.8193 56.8954 52.5444 58.1146 51.9951 59.8885 51.4452 61.6624 50.1812 63.6025 48.202 65.7088 46.2232 67.8155 43.6948 68.9241 40.6164 69.0351 36.7686 69.0351 33.0856 67.3165 29.5678 63.8797 26.05 60.4428 23.3013 55.953 21.3225 50.4095 18.1343 41.6514 15.8806 32.5605 14.5615 23.1367 14.5615 22.8043 14.5615 22.1943 14.5615 21.3076 14.5615 20.4204 14.5064 19.7555 14.3963 19.3122 14.3963 14.323 15.386 10.8861 17.3648 9.00131 19.3437 7.11685 21.7072 6.11879 24.4555 6.00822 28.6334 6.00822 32.7559 7.83739 36.8236 11.4961 40.8914 15.1544 43.31 17.9813 44.0795 19.977 44.2991 20.4204 45.7834 26.3517 48.532 37.7708 51.2803 49.1899 52.7096 55.343 52.8193 56.2302Z" fill-rule="evenodd" transform="matrix(1 0 0 -1 2740 534)"/><path d="M7.35407 50.2521C5.23371 50.2521 3.54537 50.9546 2.28869 52.36 1.03237 53.7654 0.404205 55.4833 0.404205 57.5131 0.404205 63.0566 2.48519 67.8588 6.64716 71.9184 10.8091 75.9788 15.9923 78.0087 22.1962 78.0087 29.3422 78.0087 35.3107 75.8226 40.1008 71.4502 44.8913 67.0778 47.3256 61.4169 47.4043 54.4683 47.4043 51.1108 46.619 47.9095 45.0484 44.8644 43.4778 41.8193 41.593 39.1647 39.3943 36.9005 37.1955 34.6364 34.0543 31.7475 29.9708 28.2338 27.1435 25.8135 23.217 22.222 18.191 17.4591L11.2412 10.9006 20.1936 10.7833C32.5228 10.7833 39.08 10.9787 39.8653 11.3689 40.4151 11.5251 41.3575 14.9995 42.6926 21.7923L42.6926 22.1439 47.4043 22.1439 47.4043 21.7923C47.3256 21.5584 46.8152 18.0058 45.8727 11.1346 44.9307 4.26373 44.3415 0.672293 44.106 0.3599L44.106 0.0086376 0.404205 0.0086376 0.404205 2.2339 0.404205 3.63931C0.404205 4.18564 0.63972 4.77155 1.11075 5.39598 1.58214 6.02077 2.76008 7.38695 4.64456 9.49524 6.92205 11.9937 8.88528 14.1797 10.5342 16.0537 11.2412 16.8343 12.5762 18.279 14.5395 20.3869 16.5027 22.4952 17.8378 23.9395 18.5443 24.7204 19.2512 25.5014 20.3898 26.7895 21.9607 28.5854 23.5309 30.381 24.6305 31.7083 25.259 32.5673 25.8872 33.4261 26.7902 34.5972 27.9682 36.0807 29.1461 37.5642 29.9708 38.8134 30.4418 39.8283 30.9128 40.8436 31.502 41.9755 32.2089 43.2251 32.9154 44.4743 33.4258 45.7235 33.7401 46.9727 34.0543 48.2219 34.3292 49.393 34.5644 50.486 34.8003 51.5794 34.918 52.8675 34.918 54.351 34.918 59.2701 33.583 63.5252 30.9128 67.1167 28.243 70.7085 24.4343 72.5044 19.4867 72.5044 16.8953 72.5044 14.6182 71.8407 12.6546 70.5134 10.6914 69.1861 9.3173 67.8976 8.53201 66.6484 7.74672 65.3992 7.35407 64.6575 7.35407 64.4232 7.35407 64.3451 7.55021 64.3062 7.94286 64.3062 9.35667 64.3062 10.8091 63.7595 12.3013 62.6665 13.7935 61.5735 14.5395 59.7776 14.5395 57.2792 14.5395 55.3271 13.9113 53.6874 12.6546 52.36 11.3983 51.0327 9.6312 50.3302 7.35407 50.2521Z" fill-rule="evenodd" transform="matrix(1 0 0 -1 2829 485)"/><path d="M0.432193 1.2446C0.432193 1.2446 0.432193 2.00284 0.432193 3.51971 0.432193 5.03619 1.21246 6.20284 2.773 7.01964L99.9243 7.01964C101.596 6.08648 102.432 4.91945 102.432 3.51971 102.432 2.11958 101.596 0.952937 99.9243 0.0197736L2.773 0.0197736C1.21246 0.836197 0.432193 2.00284 0.432193 3.51971Z" fill-rule="evenodd" transform="matrix(1 0 0 -1 2950 495)"/><path d="M3.29635 50.3529C4.07247 55.0505 7.0666 60.4747 12.278 66.6266 17.4894 72.778 23.9206 75.9099 31.5714 76.0218 35.4524 76.0218 39.0008 75.0149 42.2164 73.0019 45.432 70.9884 47.8162 68.4719 49.3685 65.4523 54.0256 72.4984 59.625 76.0218 66.1673 76.0218 70.27 76.0218 73.8181 74.7915 76.8122 72.3307 79.806 69.87 81.3583 66.5708 81.4693 62.4324 81.4693 59.1886 80.6929 56.5601 79.1406 54.5471 77.5884 52.5336 76.0913 51.3036 74.6498 50.856 73.2083 50.4087 71.933 50.1852 70.8244 50.1852 68.7174 50.1852 66.9989 50.8002 65.6681 52.0306 64.3377 53.2609 63.6723 54.8825 63.6723 56.8959 63.6723 62.0408 66.4446 65.5639 71.9885 67.4654 70.7688 68.9196 68.5512 69.6462 65.3356 69.6462 63.8941 69.6462 62.8406 69.5346 62.1756 69.3108 57.9621 67.5212 54.8572 63.8304 52.8614 58.2378 46.2085 33.52 42.8818 19.0917 42.8818 14.9533 42.8818 11.8214 43.7686 9.58448 45.5431 8.24219 47.3171 6.90027 49.2574 6.22913 51.3643 6.22913 55.4671 6.22913 59.5143 8.0745 63.506 11.7656 67.4977 15.4563 70.2145 19.9863 71.656 25.3551 71.9885 26.4735 72.3214 27.0885 72.6539 27.2004 72.9865 27.3124 73.8737 27.4239 75.3152 27.5362L75.9806 27.5362C77.6435 27.5362 78.4752 27.0885 78.4752 26.1935 78.4752 26.082 78.3641 25.467 78.1427 24.3482 76.3686 17.9729 72.9313 12.3248 67.8306 7.40336 62.7299 2.48225 56.7979 0.0215087 50.0335 0.0215087 42.2719 0.0215087 36.3951 3.54492 32.4034 10.591 27.8571 3.65647 22.6457 0.189203 16.7688 0.189203L15.7709 0.189203C10.3373 0.189203 6.45674 1.64341 4.12802 4.55145 1.79965 7.4595 0.579927 10.5352 0.468847 13.7787 0.468847 17.3579 1.52231 20.2659 3.62887 22.5028 5.7358 24.7397 8.23079 25.8582 11.1138 25.8582 15.8816 25.8582 18.2655 23.5093 18.2655 18.8117 18.2655 16.5748 17.6005 14.6175 16.2697 12.9398 14.9393 11.2622 13.664 10.1437 12.4443 9.58448 11.2246 9.02526 10.504 8.74564 10.2822 8.74564L9.78303 8.57795C9.78303 8.46603 10.1155 8.24219 10.781 7.90681 11.4464 7.57142 12.3332 7.17988 13.4422 6.73258 14.5512 6.28491 15.6043 6.11721 16.6022 6.22913 20.5943 6.22913 24.0316 8.74564 26.9147 13.7787 27.9123 15.5683 29.1879 19.3709 30.7401 25.1874 32.2924 31.0031 33.845 37.043 35.3972 43.3064 36.9495 49.5698 37.8367 53.2609 38.0581 54.379 38.6128 57.399 38.8901 59.5801 38.8901 60.9224 38.8901 64.0543 38.0581 66.2912 36.3951 67.6331 34.7318 68.9754 32.847 69.6462 30.7401 69.6462 26.3045 69.6462 22.1465 67.8566 18.2655 64.2777 14.3849 60.6986 11.6682 56.1128 10.1155 50.5206 9.89411 49.514 9.61677 48.9548 9.28425 48.8429 8.95137 48.731 8.06453 48.6191 6.623 48.5072L4.29428 48.5072C3.62887 49.1783 3.29635 49.7937 3.29635 50.3529Z" fill-rule="evenodd" transform="matrix(1 0 0 -1 3109 535)"/><path d="M7.44179 50.2521C5.32145 50.2521 3.63312 50.9546 2.37681 52.36 1.12013 53.7654 0.491977 55.4833 0.491977 57.5131 0.491977 63.0566 2.57295 67.8588 6.73525 71.9184 10.8972 75.9788 16.0799 78.0087 22.2838 78.0087 29.4301 78.0087 35.3982 75.8226 40.1886 71.4502 44.9791 67.0778 47.4133 61.4169 47.4917 54.4683 47.4917 51.1108 46.7064 47.9095 45.1359 44.8644 43.5653 41.8193 41.6808 39.1647 39.4817 36.9005 37.283 34.6364 34.1419 31.7475 30.0583 28.2338 27.2314 25.8135 23.305 22.222 18.279 17.4591L11.3288 10.9006 20.2816 10.7833C32.6107 10.7833 39.1678 10.9787 39.9531 11.3689 40.5029 11.5251 41.4453 14.9995 42.78 21.7923L42.78 22.1439 47.4917 22.1439 47.4917 21.7923C47.4133 21.5584 46.9029 18.0058 45.9605 11.1346 45.0181 4.26373 44.4293 0.672293 44.1934 0.3599L44.1934 0.0086376 0.491977 0.0086376 0.491977 2.2339 0.491977 3.63931C0.491977 4.18564 0.727491 4.77155 1.19888 5.39598 1.66991 6.02077 2.84783 7.38695 4.73266 9.49524 7.00978 11.9937 8.97335 14.1797 10.6223 16.0537 11.3288 16.8343 12.6639 18.279 14.6271 20.3869 16.5907 22.4952 17.9254 23.9395 18.6323 24.7204 19.3392 25.5014 20.4777 26.7895 22.0483 28.5854 23.6189 30.381 24.7184 31.7083 25.3466 32.5673 25.9747 33.4261 26.8778 34.5972 28.0557 36.0807 29.2336 37.5642 30.0583 38.8134 30.5293 39.8283 31.0007 40.8436 31.5895 41.9755 32.2964 43.2251 33.0033 44.4743 33.5137 45.7235 33.8276 46.9727 34.1419 48.2219 34.4167 49.393 34.6523 50.486 34.8878 51.5794 35.0055 52.8675 35.0055 54.351 35.0055 59.2701 33.6708 63.5252 31.0007 67.1167 28.3306 70.7085 24.5219 72.5044 19.5747 72.5044 16.9833 72.5044 14.7059 71.8407 12.7426 70.5134 10.7794 69.1861 9.405 67.8976 8.61972 66.6484 7.83443 65.3992 7.44179 64.6575 7.44179 64.4232 7.44179 64.3451 7.63829 64.3062 8.03094 64.3062 9.44438 64.3062 10.8972 63.7595 12.389 62.6665 13.8812 61.5735 14.6271 59.7776 14.6271 57.2792 14.6271 55.3271 13.9993 53.6874 12.7426 52.36 11.486 51.0327 9.71926 50.3302 7.44179 50.2521Z" fill-rule="evenodd" transform="matrix(1 0 0 -1 3205 485)"/><path d="M0.420828 27.8459C0.420828 39.0435 4.65228 49.6864 13.1145 59.775 21.577 69.864 31.0971 74.9634 41.675 75.0744 47.3536 75.0744 52.3641 72.3584 56.7067 66.9259 58.4882 70.2521 61.049 71.9151 64.3895 71.9151 65.8371 71.9151 67.1177 71.4713 68.2309 70.5846 69.3446 69.6978 69.9012 68.5888 69.9012 67.2587 69.9012 65.8172 67.8416 56.9482 63.7217 40.6508 59.6018 24.3538 57.4861 15.1519 57.3745 13.0456 57.3745 10.274 57.7646 8.44446 58.5439 7.5577 59.3233 6.67058 60.4927 6.17191 62.0514 6.06098 63.0535 6.17191 64.1672 6.67058 65.3916 7.5577 67.7301 9.77497 70.0127 15.0966 72.2397 23.5223 72.9075 25.7395 73.4641 26.9035 73.9096 27.0144 74.1323 27.1253 74.6893 27.181 75.5798 27.181L76.248 27.181C78.3638 27.181 79.4213 26.682 79.4213 25.6843 79.4213 25.019 79.1428 23.5223 78.5861 21.1941 78.0298 18.8659 76.9162 15.8724 75.2459 12.2141 73.5757 8.5554 71.7942 5.78382 69.9012 3.899 68.4537 2.45792 66.6722 1.29364 64.5565 0.406884 63.6659 0.185013 62.3299 0.0744388 60.5481 0.0744388 56.7625 0.0744388 53.5889 0.905912 51.0281 2.56886 48.4672 4.23181 46.797 5.95004 46.0172 7.72392L45.0152 10.2183C44.904 10.3293 44.6812 10.274 44.3473 10.0521 44.1246 9.83025 43.9019 9.60874 43.6792 9.38687 37.1096 3.17846 30.4289 0.0744388 23.637 0.0744388 17.5125 0.0744388 12.1124 2.2917 7.43583 6.72623 2.75928 11.1608 0.420828 18.2006 0.420828 27.8459ZM53.5335 56.2829C53.5335 56.9482 53.255 58.1677 52.6983 59.9416 52.1417 61.7151 50.8611 63.6553 48.8569 65.7619 46.8524 67.8683 44.2916 68.9769 41.1737 69.0878 37.2769 69.0878 33.5467 67.3696 29.9834 63.9324 26.4205 60.4959 23.637 56.0058 21.6324 50.4626 18.4034 41.7041 16.1207 32.6132 14.7847 23.1895 14.7847 22.857 14.7847 22.2471 14.7847 21.3603 14.7847 20.4735 14.729 19.8083 14.6178 19.3649 14.6178 14.3757 15.6199 10.9389 17.6241 9.05443 19.6282 7.16961 22.0221 6.17191 24.806 6.06098 29.0371 6.06098 33.2124 7.89015 37.3323 11.5488 41.4522 15.2075 43.9019 18.0344 44.6812 20.0302 44.904 20.4735 46.4069 26.4048 49.1908 37.8239 51.9744 49.243 53.4219 55.3962 53.5335 56.2829Z" fill-rule="evenodd" transform="matrix(1 0 0 -1 2896 761)"/><path d="M1524.53 1791.81 1524.53 893.806 2993.53 1791.81Z" stroke="#000000" stroke-width="14.1589" stroke-miterlimit="8" fill="none" fill-rule="evenodd"/><path d="M1524.53 1697.81 1618.53 1697.81 1618.53 1791.81 1524.53 1791.81Z" stroke="#000000" stroke-width="14.1589" stroke-miterlimit="8" fill="none" fill-rule="evenodd"/><path d="M2797.52 1674.81C2771.69 1722.75 2768.77 1723.63 2766.52 1788.81" stroke="#000000" stroke-width="14.1589" stroke-miterlimit="8" fill="none" fill-rule="evenodd"/><path d="M2.94154 51.8228C3.737 56.6442 6.8048 62.2114 12.1449 68.5249 17.485 74.8384 24.075 78.0524 31.915 78.1673 35.8918 78.1673 39.5277 77.1342 42.8226 75.0679 46.1177 73.0019 48.5605 70.4189 50.1509 67.3194 54.9232 74.5515 60.6612 78.1673 67.3646 78.1673 71.5687 78.1673 75.2044 76.9047 78.2722 74.3791 81.34 71.8538 82.9309 68.4678 83.0444 64.2203 83.0444 60.8914 82.2489 58.1938 80.6583 56.1275 79.0676 54.0615 77.5337 52.7985 76.0566 52.3393 74.5795 51.8803 73.2729 51.6508 72.1366 51.6508 69.9781 51.6508 68.2168 52.2821 66.8535 53.5447 65.4899 54.8074 64.8082 56.4718 64.8082 58.5381 64.8082 63.8185 67.649 67.4343 73.3299 69.386 72.0801 70.8781 69.8075 71.6241 66.5124 71.6241 65.0353 71.6241 63.956 71.5095 63.2746 71.2797 58.957 69.4432 55.7754 65.6553 53.7301 59.9157 46.9129 34.5472 43.5042 19.739 43.5042 15.4918 43.5042 12.2778 44.4132 9.98174 46.2312 8.60421 48.0492 7.22697 50.0374 6.5382 52.1965 6.5382 56.4003 6.5382 60.5474 8.43216 64.6377 12.2204 68.7282 16.0086 71.5119 20.6573 72.9891 26.1674 73.3299 27.3154 73.6705 27.9465 74.0116 28.0613 74.3524 28.1762 75.2614 28.2908 76.7385 28.4057L77.4202 28.4057C79.1247 28.4057 79.9766 27.9465 79.9766 27.0282 79.9766 26.9133 79.8628 26.2823 79.6358 25.134 77.8178 18.5913 74.2957 12.7942 69.0691 7.74368 63.8425 2.69284 57.7636 0.167287 50.8329 0.167287 42.8793 0.167287 36.8575 3.78315 32.767 11.0149 28.1088 3.89804 22.7684 0.339338 16.7466 0.339338L15.7241 0.339338C10.1564 0.339338 6.17988 1.83175 3.79376 4.8163 1.40792 7.80084 0.15782 10.9577 0.0443002 14.2864 0.0443002 17.9597 1.12384 20.9445 3.28265 23.2403 5.44118 25.5358 7.99758 26.6841 10.9519 26.6841 15.8376 26.6841 18.2805 24.2734 18.2805 19.4521 18.2805 17.1563 17.5988 15.1475 16.2352 13.4256 14.8719 11.7039 13.565 10.5559 12.3155 9.98174 11.0656 9.40814 10.3269 9.12093 10.0999 9.12093L9.58851 8.94888C9.58851 8.83399 9.92935 8.60421 10.611 8.26011 11.2927 7.91573 12.2017 7.51391 13.338 7.05464 14.4743 6.59565 15.5535 6.42332 16.576 6.5382 20.6666 6.5382 24.1888 9.12093 27.1428 14.2864 28.1655 16.1232 29.4721 20.026 31.0628 25.9951 32.6534 31.9642 34.2441 38.163 35.835 44.5911 37.4254 51.0195 38.3347 54.8074 38.5617 55.9554 39.1296 59.0546 39.4139 61.2932 39.4139 62.6707 39.4139 65.8848 38.5617 68.1805 36.8575 69.5581 35.1531 70.9356 33.2216 71.6241 31.0628 71.6241 26.5179 71.6241 22.257 69.7876 18.2805 66.1142 14.304 62.4409 11.52 57.7348 9.92935 51.9952 9.70203 50.962 9.41823 50.3881 9.07712 50.2733 8.73629 50.1584 7.8273 50.0438 6.35016 49.9289L3.96432 49.9289C3.28265 50.6176 2.94154 51.249 2.94154 51.8228Z" fill-rule="evenodd" transform="matrix(1 0 0 -1 1354 1382)"/><path d="M0.220483 29.0316C0.220483 40.677 4.61212 51.7457 13.3959 62.238 22.1798 72.7303 32.0615 78.0339 43.0409 78.1494 48.9353 78.1494 54.136 75.3246 58.6436 69.6749 60.4928 73.1338 63.151 74.8633 66.6182 74.8633 68.1207 74.8633 69.4498 74.4021 70.6055 73.4796 71.7614 72.5574 72.3392 71.4044 72.3392 70.0207 72.3392 68.5218 70.2011 59.2977 65.9246 42.3487 61.6484 25.3997 59.4526 15.8298 59.3372 13.6394 59.3372 10.7566 59.7415 8.8542 60.5505 7.93173 61.3595 7.00955 62.5732 6.49059 64.1912 6.37542 65.2314 6.49059 66.387 7.00955 67.6584 7.93173 70.0854 10.2379 72.4549 15.7721 74.7665 24.535 75.4597 26.8411 76.0376 28.0516 76.4999 28.1668 76.7311 28.2825 77.3089 28.34 78.2337 28.34L78.9269 28.34C81.123 28.34 82.2209 27.821 82.2209 26.7834 82.2209 26.0915 81.9317 24.535 81.3539 22.1136 80.7764 19.6926 79.6205 16.5794 77.8867 12.7744 76.153 8.96964 74.3041 6.08708 72.3392 4.12699 70.8366 2.62785 68.9877 1.41732 66.7914 0.495138 65.8669 0.264522 64.4801 0.149074 62.6309 0.149074 58.7014 0.149074 55.4074 1.01381 52.7494 2.74329 50.091 4.47277 48.3573 6.25998 47.5482 8.10462L46.5084 10.6991C46.3926 10.8146 46.1614 10.7566 45.8145 10.526 45.5836 10.2953 45.3524 10.065 45.1213 9.83438 38.3026 3.37742 31.368 0.149074 24.3176 0.149074 17.961 0.149074 12.3558 2.45523 7.50176 7.06699 2.64748 11.679 0.220483 19.0007 0.220483 29.0316ZM55.3496 58.6062C55.3496 59.2977 55.0607 60.566 54.4829 62.4112 53.9051 64.2558 52.5757 66.2736 50.4956 68.4641 48.4153 70.6548 45.7571 71.8079 42.5211 71.923 38.4758 71.923 34.6037 70.1361 30.9056 66.5617 27.2072 62.9876 24.3176 58.3178 22.2375 52.5527 18.8858 43.4441 16.5165 33.9897 15.1297 24.1892 15.1297 23.8434 15.1297 23.209 15.1297 22.2865 15.1297 21.3641 15.072 20.6725 14.9562 20.2113 14.9562 15.0225 15.9964 11.4484 18.0771 9.48832 20.1571 7.52822 22.6419 6.49059 25.5315 6.37542 29.9231 6.37542 34.2573 8.2778 38.5335 12.0825 42.8097 15.8876 45.3524 18.8276 46.1614 20.9031 46.3926 21.3641 47.9529 27.5327 50.8423 39.4087 53.7316 51.2847 55.2342 57.6837 55.3496 58.6062Z" fill-rule="evenodd" transform="matrix(1 0 0 -1 2316 1281)"/><path d="M1.25015 55.5538C0.590088 56.2058 0.259916 56.6716 0.259916 56.9509 0.259916 57.3236 0.40126 58.0688 0.684224 59.1863 0.967466 60.3041 1.20322 60.9561 1.39177 61.1426 1.58032 61.6082 2.00491 61.8409 2.66498 61.8409 3.32532 61.8409 5.73038 61.8878 9.88043 61.9809L17.3788 61.9809 20.0672 73.1582C20.3498 74.1827 20.68 75.5333 21.0574 77.21 21.4348 78.8867 21.7649 80.0976 22.0479 80.8428 22.3306 81.5876 22.6138 82.5192 22.8968 83.637 23.1795 84.7546 23.5569 85.5465 24.0287 86.0123 24.5002 86.4779 24.9717 87.0368 25.4432 87.6888 25.9147 88.3408 26.5751 88.7601 27.4239 88.9463 28.2728 89.1325 29.1217 89.2256 29.9706 89.2256 31.6684 89.1325 32.8475 88.6204 33.5075 87.6888 34.1679 86.7575 34.4981 85.8724 34.4981 85.0342 34.4981 84.3822 34.0735 82.1934 33.2246 78.4675 32.376 74.7416 31.4324 71.0625 30.3952 67.4297L28.9804 62.2602C28.9804 62.074 31.3382 61.9809 36.0542 61.9809L43.2697 61.9809C43.93 61.3288 44.2599 60.8165 44.2599 60.4441 44.2599 58.3946 43.6471 56.7647 42.4211 55.5538L27.2826 55.5538 22.1892 35.2948C18.5107 20.3915 16.6716 12.3811 16.6716 11.2633 16.6716 7.35118 17.9448 5.39513 20.4915 5.39513 23.7926 5.39513 26.9996 6.97848 30.1122 10.1455 33.2246 13.3124 35.7241 17.2245 37.6107 21.882 37.7989 22.4407 38.035 22.7668 38.3179 22.8599 38.6009 22.953 39.3082 23.0461 40.44 23.1392L41.006 23.1392C42.4211 23.1392 43.1283 22.7668 43.1283 22.0214 43.1283 21.7421 42.9867 21.1832 42.7038 20.3449 42.2322 18.8544 41.3833 17.0849 40.1571 15.0357 38.9308 12.9866 37.3274 10.7977 35.347 8.469 33.3662 6.14026 30.9609 4.18421 28.1315 2.60086 25.3019 1.01751 22.4253 0.225559 19.5012 0.225559 16.6716 0.225559 13.9836 0.924128 11.4369 2.32127 8.89019 3.71868 7.05106 6.14026 5.91893 9.58682 5.73038 10.3319 5.63596 11.5891 5.63596 13.359L5.63596 15.8739 10.588 35.4344C13.8889 48.5678 15.5866 55.1811 15.6813 55.2742 15.6813 55.4604 13.276 55.5538 8.46589 55.5538L1.25015 55.5538Z" fill-rule="evenodd" transform="matrix(1 0 0 -1 2624 1740)"/><path d="M4.06742 64.5405C3.38142 64.5405 2.58063 64.9938 1.66559 65.9005 0.750554 66.807 0.235776 67.6005 0.121537 68.2805 0.00701715 68.9605 1.77983 70.6605 5.43998 73.3805 9.10012 76.1005 12.8748 78.934 16.7637 81.8805 20.6526 84.827 22.8257 86.4706 23.2832 86.8103 23.5119 87.0371 23.798 87.1506 24.141 87.1506L24.3125 87.1506C24.9987 87.1506 25.7995 86.187 26.7146 84.2605 27.6296 82.334 30.7177 75.7039 35.9792 64.3704 38.1522 59.4971 39.9253 55.587 41.2979 52.6405L55.8812 21.1904C55.9955 21.1904 61.9429 33.2606 73.7241 57.4005 85.5051 81.5405 97.2861 105.851 109.067 130.331 120.848 154.811 126.967 167.334 127.425 167.901 128.111 169.487 129.255 170.28 130.856 170.28 131.657 170.28 132.343 169.941 132.915 169.26 133.487 168.581 133.888 167.901 134.117 167.22L134.117 166.2 94.1407 84.0903 53.8221 1.47045C53.3646 0.676931 52.2781 0.280311 50.5625 0.280311 49.5329 0.280311 48.8467 0.450451 48.5037 0.79045 48.2749 1.01693 42.6704 13.0304 31.69 36.8304L15.2196 72.5304 12.4742 70.6605C10.7587 69.3005 8.98588 67.9405 7.15581 66.5805 5.32574 65.2205 4.29646 64.5405 4.06742 64.5405Z" fill-rule="evenodd" transform="matrix(1 0 0 -1 1850 2044)"/><path d="M0.115871 0.233817 555.116 0.233817 555.116 10.2341 0.115871 10.2341Z" fill-rule="evenodd" transform="matrix(1 0 0 -1 1981 1882)"/><path d="M0.14776 28.4301C0.14776 39.7768 4.43252 50.5617 13.002 60.7848 21.5713 71.0081 31.2119 76.1758 41.9237 76.2883 47.6744 76.2883 52.7484 73.536 57.1457 68.031 58.9501 71.4013 61.5431 73.0864 64.9258 73.0864 66.3918 73.0864 67.6884 72.6369 68.816 71.7383 69.9436 70.8398 70.5075 69.7161 70.5075 68.368 70.5075 66.9074 68.4214 57.9202 64.2493 41.4058 60.0774 24.8911 57.9352 15.5669 57.8223 13.4322 57.8223 10.6237 58.2169 8.7702 59.0063 7.87136 59.7957 6.97253 60.9795 6.46712 62.5581 6.3546 63.5727 6.46712 64.7006 6.97253 65.9408 7.87136 68.3085 10.1183 70.6201 15.5108 72.8752 24.0487 73.5518 26.2954 74.1154 27.4751 74.5667 27.5874 74.792 27.6999 75.3559 27.756 76.258 27.756L76.9345 27.756C79.077 27.756 80.1479 27.2506 80.1479 26.2393 80.1479 25.5652 79.8662 24.0487 79.3023 21.6895 78.7386 19.3303 77.611 16.2971 75.9195 12.5898 74.2283 8.88244 72.4242 6.07369 70.5075 4.16405 69.0415 2.70341 67.2374 1.52395 65.0952 0.625119 64.1931 0.400618 62.84 0.288091 61.0359 0.288091 57.2022 0.288091 53.9885 1.1308 51.3953 2.81594 48.802 4.50108 47.1105 6.24235 46.3214 8.03974L45.3064 10.5676C45.1938 10.6798 44.968 10.6237 44.6299 10.3989 44.4043 10.1744 44.1788 9.94965 43.9533 9.72488 37.3008 3.43387 30.5354 0.288091 23.6574 0.288091 17.4556 0.288091 11.9871 2.53504 7.2513 7.02865 2.51552 11.5225 0.14776 18.6563 0.14776 28.4301ZM53.9324 57.2461C53.9324 57.9202 53.6501 59.1558 53.0868 60.9534 52.5228 62.7508 51.2262 64.7169 49.1966 66.8513 47.167 68.986 44.5737 70.1093 41.4162 70.2218 37.4699 70.2218 33.6926 68.4803 30.0844 64.9978 26.4761 61.5149 23.6574 56.9652 21.6277 51.348 18.3579 42.473 16.0463 33.261 14.6933 23.7117 14.6933 23.3747 14.6933 22.7567 14.6933 21.8582 14.6933 20.9593 14.6368 20.2853 14.5242 19.836 14.5242 14.7803 15.5389 11.2978 17.5685 9.38785 19.5981 7.47821 22.0223 6.46712 24.8411 6.3546 29.1259 6.3546 33.3542 8.20839 37.5263 11.9157 41.6985 15.623 44.1788 18.4879 44.968 20.5101 45.1938 20.9593 46.7159 26.9694 49.5347 38.5409 52.3538 50.1124 53.8195 56.3473 53.9324 57.2461Z" fill-rule="evenodd" transform="matrix(1 0 0 -1 1987 2027)"/><path d="M7.26767 52.4565C5.1022 52.4565 3.3779 53.1863 2.09449 54.6458 0.811354 56.1053 0.169786 57.8891 0.169786 59.9971 0.169786 65.7539 2.29517 70.7403 6.54566 74.9566 10.7964 79.1728 16.0899 81.2808 22.4256 81.2808 29.7239 81.2808 35.8192 79.0106 40.7116 74.47 45.6039 69.9295 48.09 64.0511 48.1702 56.8348 48.1702 53.3483 47.3683 50.024 45.764 46.862 44.1602 43.6997 42.2352 40.9429 39.9896 38.5917 37.744 36.2404 34.5361 33.2404 30.3655 29.5919 27.4783 27.0781 23.4683 23.3486 18.3355 18.4025L11.2376 11.5918 20.3804 11.4701C32.9721 11.4701 39.6687 11.6727 40.4708 12.0783 41.0322 12.2405 41.9947 15.8484 43.358 22.9024L43.358 23.2673 48.1702 23.2673 48.1702 22.9024C48.09 22.6592 47.5687 18.97 46.6062 11.835 45.6437 4.69997 45.0422 0.970189 44.8018 0.645946L44.8018 0.281067 0.169786 0.281067 0.169786 2.59169 0.169786 4.0512C0.169786 4.6187 0.410269 5.22683 0.891515 5.8756 1.37276 6.52408 2.57573 7.94296 4.50072 10.1322 6.8265 12.7267 8.83165 14.997 10.5156 16.943 11.2376 17.7538 12.6009 19.2539 14.606 21.4429 16.6109 23.6322 17.9745 25.1321 18.6962 25.9431 19.4179 26.7538 20.5811 28.0917 22.1849 29.9565 23.7889 31.8215 24.9118 33.1998 25.5533 34.0918 26.1952 34.9835 27.1173 36.1998 28.3203 37.7403 29.5233 39.2811 30.3655 40.5781 30.8468 41.6323 31.328 42.6863 31.9295 43.862 32.6512 45.1592 33.3729 46.4565 33.8943 47.7537 34.2152 49.051 34.5361 50.3485 34.8167 51.5648 35.0572 52.6998 35.2979 53.835 35.4182 55.1727 35.4182 56.7134 35.4182 61.8215 34.0549 66.2404 31.328 69.9701 28.6011 73.6999 24.7114 75.5647 19.6587 75.5647 17.012 75.5647 14.6862 74.8756 12.6811 73.497 10.6762 72.1188 9.27253 70.7809 8.47064 69.4836 7.66848 68.1861 7.26767 67.416 7.26767 67.1727 7.26767 67.0918 7.46807 67.0511 7.86916 67.0511 9.31262 67.0511 10.7964 66.4836 12.3203 65.3483 13.8439 64.2134 14.606 62.3483 14.606 59.7538 14.606 57.7268 13.9645 56.024 12.6811 54.6458 11.3979 53.2675 9.59346 52.5378 7.26767 52.4565Z" fill-rule="evenodd" transform="matrix(1 0 0 -1 2078 1977)"/><path d="M0.1972 1.52142C0.1972 1.52142 0.1972 2.27969 0.1972 3.79624 0.1972 5.31307 0.992974 6.47962 2.58424 7.29617L101.64 7.29617C103.345 6.36305 104.197 5.19621 104.197 3.79624 104.197 2.39626 103.345 1.22971 101.64 0.296303L2.58424 0.296303C0.992974 1.11315 0.1972 2.27969 0.1972 3.79624Z" fill-rule="evenodd" transform="matrix(1 0 0 -1 2202 1987)"/><path d="M3.13456 51.9502C3.92977 56.7714 6.9977 62.3387 12.3378 68.652 17.6779 74.9657 24.2679 78.1797 32.1077 78.2944 36.0843 78.2944 39.7205 77.2613 43.0153 75.1951 46.3102 73.1288 48.7533 70.5462 50.3437 67.4469 55.1158 74.6786 60.8538 78.2944 67.5573 78.2944 71.7612 78.2944 75.3971 77.0319 78.465 74.5063 81.5327 71.981 83.1234 68.595 83.2368 64.3475 83.2368 61.0185 82.4416 58.3209 80.8509 56.2547 79.2602 54.1885 77.7264 52.926 76.2495 52.4666 74.7722 52.0076 73.4657 51.7779 72.3294 51.7779 70.1705 51.7779 68.4094 52.4093 67.046 53.6721 65.6825 54.9346 65.0008 56.5991 65.0008 58.6653 65.0008 63.9458 67.8415 67.5616 73.5225 69.5131 72.2726 71.0053 70.0001 71.7514 66.7052 71.7514 65.228 71.7514 64.1487 71.6367 63.467 71.407 59.1496 69.5704 55.9682 65.7824 53.923 60.0428 47.1054 34.6743 43.6971 19.8661 43.6971 15.619 43.6971 12.405 44.606 10.1091 46.424 8.73158 48.2419 7.3541 50.2302 6.66536 52.3889 6.66536 56.5931 6.66536 60.74 8.55926 64.8304 12.3473 68.9208 16.1357 71.7043 20.7845 73.1815 26.2945 73.5225 27.4423 73.8633 28.0737 74.2043 28.1884 74.545 28.3033 75.454 28.418 76.9312 28.533L77.6129 28.533C79.3171 28.533 80.1692 28.0737 80.1692 27.1555 80.1692 27.0406 80.0554 26.4095 79.8285 25.2614 78.0102 18.7183 74.4881 12.9214 69.2615 7.87052 64.0352 2.81994 57.9565 0.294367 51.0255 0.294367 43.0719 0.294367 37.0501 3.9104 32.9598 11.1422 28.3014 4.02509 22.9611 0.466694 16.9392 0.466694L15.9168 0.466694C10.3492 0.466694 6.37257 1.95887 3.98666 4.94351 1.60046 7.92815 0.350763 11.0848 0.237002 14.4136 0.237002 18.0869 1.31662 21.0716 3.47529 23.3672 5.63396 25.6631 8.19052 26.8109 11.1447 26.8109 16.0303 26.8109 18.4733 24.4006 18.4733 19.5794 18.4733 17.2835 17.7916 15.2746 16.4282 13.5528 15.0647 11.8309 13.7578 10.6831 12.5081 10.1091 11.2584 9.53502 10.5198 9.248 10.2926 9.248L9.78122 9.07595C9.78122 8.96126 10.1222 8.73158 10.804 8.38721 11.4857 8.04284 12.3944 7.64112 13.5309 7.18178 14.6668 6.72271 15.7464 6.55066 16.7689 6.66536 20.8593 6.66536 24.3817 9.248 27.3356 14.4136 28.3583 16.2504 29.6649 20.1532 31.2556 26.1221 32.8463 32.0914 34.437 38.2901 36.0277 44.7184 37.6181 51.1465 38.5274 54.9346 38.7546 56.0827 39.3226 59.182 39.6067 61.4203 39.6067 62.7977 39.6067 66.012 38.7546 68.3077 37.0501 69.6851 35.3459 71.0626 33.4142 71.7514 31.2556 71.7514 26.7107 71.7514 22.45 69.9148 18.4733 66.2414 14.4964 62.5683 11.7126 57.8619 10.1222 52.1222 9.89498 51.0891 9.61086 50.5154 9.26985 50.4004 8.92913 50.2857 8.02015 50.171 6.54293 50.056L4.15702 50.056C3.47529 50.7448 3.13456 51.3762 3.13456 51.9502Z" fill-rule="evenodd" transform="matrix(1 0 0 -1 2366 2028)"/><path d="M7.35729 52.4565C5.19211 52.4565 3.46753 53.1863 2.18439 54.6458 0.901257 56.1053 0.259689 57.8891 0.259689 59.9971 0.259689 65.7539 2.38507 70.7403 6.63557 74.9566 10.8861 79.1728 16.1795 81.2808 22.5153 81.2808 29.8138 81.2808 35.9089 79.0106 40.8012 74.47 45.6936 69.9295 48.1797 64.0511 48.2601 56.8348 48.2601 53.3483 47.4579 50.024 45.8539 46.862 44.2501 43.6997 42.3251 40.9429 40.0795 38.5917 37.8339 36.2404 34.6257 33.2404 30.4554 29.5919 27.5682 27.0781 23.5582 23.3486 18.4251 18.4025L11.3275 11.5918 20.4703 11.4701C33.062 11.4701 39.7586 11.6727 40.5607 12.0783 41.1221 12.2405 42.0846 15.8484 43.4479 22.9024L43.4479 23.2673 48.2601 23.2673 48.2601 22.9024C48.1797 22.6592 47.6583 18.97 46.6961 11.835 45.7336 4.69997 45.1321 0.970189 44.8917 0.645946L44.8917 0.281067 0.259689 0.281067 0.259689 2.59169 0.259689 4.0512C0.259689 4.6187 0.500172 5.22683 0.981418 5.8756 1.46266 6.52408 2.66564 7.94296 4.59034 10.1322 6.91613 12.7267 8.92127 14.997 10.6055 16.943 11.3275 17.7538 12.6908 19.2539 14.6959 21.4429 16.7008 23.6322 18.0644 25.1321 18.7861 25.9431 19.5078 26.7538 20.6707 28.0917 22.2748 29.9565 23.8789 31.8215 25.0017 33.1998 25.6432 34.0918 26.2848 34.9835 27.2072 36.1998 28.4102 37.7403 29.6132 39.2811 30.4554 40.5781 30.9367 41.6323 31.4176 42.6863 32.0191 43.862 32.7411 45.1592 33.4628 46.4565 33.9842 47.7537 34.3051 49.051 34.6257 50.3485 34.9066 51.5648 35.1471 52.6998 35.3875 53.835 35.5081 55.1727 35.5081 56.7134 35.5081 61.8215 34.1445 66.2404 31.4176 69.9701 28.6907 73.6999 24.8013 75.5647 19.7486 75.5647 17.1019 75.5647 14.7761 74.8756 12.771 73.497 10.7658 72.1188 9.36244 70.7809 8.56055 69.4836 7.75838 68.1861 7.35729 67.416 7.35729 67.1727 7.35729 67.0918 7.55798 67.0511 7.95906 67.0511 9.40252 67.0511 10.8861 66.4836 12.41 65.3483 13.9339 64.2134 14.6959 62.3483 14.6959 59.7538 14.6959 57.7268 14.0544 56.024 12.771 54.6458 11.4878 53.2675 9.68308 52.5378 7.35729 52.4565Z" fill-rule="evenodd" transform="matrix(1 0 0 -1 2464 1977)"/></g></svg>