<?xml version="1.0" standalone="no"?><!DOCTYPE svg PUBLIC "-//W3C//DTD SVG 1.1//EN" "http://www.w3.org/Graphics/SVG/1.1/DTD/svg11.dtd"><svg class="icon" width="200px" height="200.00px" viewBox="0 0 1024 1024" version="1.1" xmlns="http://www.w3.org/2000/svg"><path d="M749.216 892.096l-27.136-43.424C839.008 775.584 908.8 649.728 908.8 512c0-133.216-66.336-256.832-177.408-330.688l28.352-42.624C885.12 222.048 960 361.6 960 512c0 155.488-78.784 297.568-210.784 380.096zM274.784 892.128C142.816 809.568 64 667.488 64 512c0-150.4 74.88-289.952 200.256-373.312l28.352 42.624C181.536 255.168 115.2 378.784 115.2 512c0 137.728 69.792 263.584 186.72 336.704l-27.136 43.424z" fill="#F4AE00" /><path d="M512 848c-185.28 0-336-150.72-336-336S326.72 176 512 176s336 150.72 336 336-150.72 336-336 336z m0-620.8c-157.024 0-284.8 127.776-284.8 284.8 0 157.056 127.776 284.8 284.8 284.8 157.056 0 284.8-127.744 284.8-284.8 0-157.024-127.744-284.8-284.8-284.8z" fill="#F4AE00" /><path d="M264.512 613.536l67.232-202.944h36.864l67.232 202.944h-33.888l-17.088-57.824H314.432l-17.344 57.824H264.512z m65.504-110.144l-8.192 27.296h55.392l-8.064-27.296c-3.424-11.04-6.656-22.176-9.76-33.408-3.104-11.264-6.176-22.624-9.216-34.08h-1.344c-2.944 11.552-6.016 22.944-9.152 34.144-3.104 11.2-6.336 22.336-9.664 33.344zM451.616 613.536v-202.944h62.816c13.792 0 26.112 1.6 36.928 4.832 10.816 3.232 19.264 8.512 25.408 15.872 6.144 7.36 9.216 17.12 9.216 29.312 0 9.696-2.56 18.656-7.68 26.912-5.12 8.256-12.192 13.888-21.248 16.96v1.344c11.552 2.496 21.12 7.744 28.64 15.68s11.296 18.816 11.296 32.608c0 13.344-3.36 24.416-10.08 33.216-6.72 8.8-15.936 15.36-27.648 19.712s-25.024 6.528-40 6.528h-67.648z m31.872-118.208h27.296c15.424 0 26.592-2.72 33.472-8.128 6.912-5.408 10.368-12.896 10.368-22.4 0-10.592-3.584-18.08-10.752-22.528-7.168-4.448-17.92-6.656-32.288-6.656h-28.096v59.712z m0 93.184h32.288c15.776 0 28.032-2.912 36.768-8.736 8.736-5.824 13.12-14.976 13.12-27.424 0-11.392-4.288-19.712-12.832-25.024-8.576-5.28-20.896-7.936-37.056-7.936h-32.288v69.12zM677.408 617.184c-13.888 0-27.104-2.624-39.616-7.872-12.512-5.248-23.392-12.576-32.608-21.984l18.688-21.92c7.36 7.264 15.744 13.056 25.216 17.408s19.072 6.528 28.832 6.528c12.288 0 21.728-2.656 28.384-7.936 6.624-5.28 9.952-12.192 9.952-20.704 0-6.176-1.408-11.168-4.224-14.912-2.816-3.776-6.688-6.944-11.616-9.536s-10.496-5.28-16.672-8.064l-28.096-12.096a100.384 100.384 0 0 1-19.296-10.976c-6.336-4.512-11.552-10.24-15.744-17.152-4.16-6.912-6.24-15.232-6.24-25.024 0-10.656 2.88-20.224 8.608-28.64 5.728-8.416 13.632-15.072 23.68-19.968 10.048-4.896 21.472-7.328 34.304-7.328 11.84 0 23.104 2.304 33.824 6.912 10.72 4.608 19.936 10.816 27.648 18.624l-16.8 20.448c-6.368-5.632-13.152-10.08-20.384-13.312-7.2-3.232-15.296-4.832-24.256-4.832-10.304 0-18.592 2.304-24.8 6.912-6.24 4.608-9.344 10.912-9.344 18.88 0 5.92 1.6 10.752 4.768 14.464 3.168 3.712 7.296 6.848 12.288 9.344 5.024 2.496 10.272 4.896 15.744 7.136l27.84 11.84c12 5.12 21.888 11.776 29.664 20.032 7.744 8.256 11.616 19.808 11.616 34.688 0 10.848-2.88 20.736-8.608 29.664-5.728 8.928-13.92 16.064-24.544 21.376-10.688 5.312-23.424 8-38.208 8z" fill="#F4AE00" /></svg>