<svg width="1342" height="660" xmlns="http://www.w3.org/2000/svg" xmlns:xlink="http://www.w3.org/1999/xlink" xml:space="preserve" overflow="hidden"><defs><clipPath id="clip0"><rect x="1204" y="0" width="1342" height="660"/></clipPath><clipPath id="clip1"><rect x="1204" y="0" width="523" height="550"/></clipPath><clipPath id="clip2"><rect x="1204" y="0" width="523" height="550"/></clipPath><clipPath id="clip3"><rect x="1204" y="0" width="523" height="650"/></clipPath><clipPath id="clip4"><rect x="2010" y="0" width="525" height="550"/></clipPath><clipPath id="clip5"><rect x="2010" y="0" width="525" height="550"/></clipPath></defs><g clip-path="url(#clip0)" transform="translate(-1204 0)"><g clip-path="url(#clip1)"><g clip-path="url(#clip2)"><g clip-path="url(#clip3)"><g><path d="M0 0-24.8108 0-24.8108-16.3751C-25.0209-16.976-25.4389-17.482-25.9896-17.8018-26.5388-18.1799-27.1838-18.3949-27.8503-18.4221-28.9761-18.5247-29.972-17.6952-30.0747-16.5697-30.0807-16.5049-30.0833-16.4401-30.083-16.3751L-30.083 0-58.0574 0C-58.6944-0.0167205-59.2895 0.316383-59.608 0.86842-59.9463 1.49674-60.1172 2.20188-60.1044 2.91537-60.1556 3.65212-59.9826 4.3873-59.608 5.02398-59.2942 5.54258-58.7249 5.85086-58.1193 5.83048L-29.9592 5.83048-29.9592 16.437-51.4826 16.437C-52.0067 16.6936-52.4399 17.1053-52.7231 17.6158-52.9825 18.1127-53.1108 18.6679-53.0951 19.2286-53.092 19.8467-52.9653 20.4583-52.7231 21.027L-52.3508 21.7095C-50.1573 25.07-48.2684 28.6197-46.7063 32.316-45.8998 34.2388-44.6594 36.9682-43.1088 40.5655L-57.1887 40.5655C-58.1204 41.1964-58.6962 42.2325-58.7396 43.3567-58.6991 44.2839-58.3244 45.1652-57.6851 45.8379-57.554 46.0344-57.3852 46.2031-57.1887 46.3343L-41.372 46.3343-38.7048 56.0105C-38.0576 57.0343-36.9387 57.6637-35.7275 57.6851-35.0388 57.6919-34.382 57.3972-33.9287 56.8786-33.4383 56.2699-33.2555 55.4691-33.4326 54.7076L-35.6034 46.3343-2.23297 46.3343C-1.56415 46.4874-0.86633 46.247-0.43421 45.7141-0.0381436 45.0839 0.156755 44.3485 0.124097 43.6049 0.148133 42.9173-0.00104503 42.2346-0.310113 41.6202-0.576857 41.0501-1.11374 40.6532-1.73684 40.5655L-37.4024 40.5655-45.1557 22.702-44.7215 22.2056-29.8973 22.2056-29.8973 32.8124C-29.8886 33.4135-29.6164 33.9805-29.1527 34.3629-28.685 34.7028-28.1178 34.8774-27.5399 34.8593-26.2026 34.9662-24.978 34.1066-24.6248 32.8124L-24.6248 22.2056-6.0165 22.2056C-5.37041 22.2456-4.74548 21.9678-4.34184 21.4613-3.22313 20.0317-3.47499 17.9656-4.90485 16.8464-5.11333 16.6831-5.34089 16.5457-5.58255 16.4373L-24.6248 16.4373-24.6248 5.83048 0.186015 5.83048C0.800754 5.82526 1.36716 5.49477 1.67466 4.96232 2.01299 4.334 2.18385 3.62913 2.17105 2.91537 2.19195 2.18124 2.02083 1.45416 1.67466 0.806502 1.38571 0.151791 0.712972-0.246888 0-0.186015ZM-78.5883 1.92286C-78.6477 1.49283-78.7733 1.07429-78.9604 0.682405-79.2859 0.256555-79.7891 0.00496389-80.3249 0L-95.7697 0C-96.1882 0.0629631-96.589 0.210835-96.9482 0.43421-97.3336 0.83106-97.536 1.37056-97.5065 1.92286L-97.5065 11.413C-97.4078 11.673-97.2829 11.9222-97.1342 12.1574-96.8092 12.6791-96.3332 13.09-95.7697 13.3359L-80.3249 13.3359-79.7047 12.9636C-79.1874 12.5686-78.7987 12.0291-78.5883 11.413L-78.5883 1.73658ZM-71.5791-15.8787C-70.2958-15.3541-69.5303-14.0272-69.7181-12.6535-69.6821-12.0633-69.8341-11.477-70.1526-10.9786-70.4708-10.4871-70.9962-10.1674-71.5791-10.1104L-99.2431-10.1104-103.585-9.55236C-106.903-8.9081-110.063-7.62271-112.889-5.76857L-112.889 8.68368-106.314 8.68368C-105.046 9.22552-104.287 10.5399-104.454 11.9092-104.45 12.5153-104.599 13.1128-104.888 13.6457-105.233 14.109-105.744 14.4201-106.314 14.5144L-112.889 14.5144-112.889 27.5399-103.647 27.5399C-102.524 27.6677-101.717 28.6816-101.845 29.805-101.846 29.815-101.847 29.8249-101.848 29.8348-101.866 30.4658-102.036 31.0831-102.344 31.6336-102.647 32.1511-103.102 32.5626-103.647 32.8124L-112.889 32.8124-112.889 41.8062-105.012 41.8062C-103.771 41.8062-103.151 42.8606-103.151 44.2873-103.168 44.9972-103.337 45.6952-103.647 46.3343-103.936 46.9004-104.421 47.3414-105.012 47.5747L-113.758 47.5747-113.758 54.3358C-113.824 55.5329-114.848 56.4494-116.046 56.3828-116.048 56.3828-116.05 56.3825-116.052 56.3825-116.712 56.3707-117.356 56.1774-117.913 55.8245-118.452 55.4783-118.848 54.9498-119.03 54.3358L-119.03 47.5747-129.202 47.5747C-130.461 47.029-131.198 45.7073-131.001 44.3492-131.037 43.7593-130.885 43.1728-130.567 42.6746-130.262 42.1986-129.763 41.8811-129.202 41.8064L-119.03 41.8064-119.03 32.6264-131.435 32.6264C-132.011 32.6582-132.55 32.3398-132.8 31.8199-133.131 31.2111-133.301 30.5282-133.296 29.8351-133.319 29.1989-133.146 28.5706-132.8 28.0361-132.515 27.5642-131.984 27.2985-131.435 27.3539L-119.03 27.3539-119.03-1.61274C-119.734-0.814862-120.377 0.035531-120.953 0.930599-122.197 2.96371-123.039 5.21679-123.434 7.56758L-123.434 11.9092C-123.406 12.4466-123.406 12.9848-123.434 13.5222L-123.434 16.8715-123.434 19.3524C-123.37 20.0748-123.37 20.8013-123.434 21.5234-123.886 21.8464-124.429 22.0198-124.985 22.0196-125.66 22.0271-126.31 21.758-126.783 21.2755-127.359 20.8389-127.738 20.1921-127.837 19.4765L-127.837 18.9182C-127.891 18.7361-127.891 18.5425-127.837 18.3599-127.837 16.8093-128.272 15.2587-128.458 13.7701-128.926 9.95496-129.589 6.16672-130.443 2.41924-131.434-2.48978-132.781-7.32017-134.475-12.0333-134.612-12.8061-134.357-13.5966-133.792-14.1421-133.213-14.661-132.462-14.9481-131.683-14.9484-130.866-15.0456-130.067-14.6579-129.636-13.9559L-126.101-2.41898C-123.322-5.59666-120.248-8.50419-116.921-11.1027-113.733-13.5068-109.872-14.852-105.88-14.9484L-100.112-15.8787ZM-73.3159-1.92259-73.3159 15.4448C-73.4486 16.037-73.6793 16.6032-73.9981 17.1194-74.6765 18.2742-75.9494 18.9467-77.2857 18.8563L-98.8089 18.8563-99.6154 18.8563C-100.882 18.2776-101.754 17.0768-101.91 15.6927L-101.91-1.67466C-101.809-2.18986-101.642-2.69017-101.414-3.16331-100.872-4.24779-99.942-5.08904-98.8089-5.52037L-76.8515-5.52037-75.859-5.14808C-74.5146-4.45209-73.5732-3.1667-73.3159-1.67466ZM-71.5791 40.0693C-71.4631 36.5298-71.7753 32.9892-72.5097 29.525-73.0931 25.8854-75.8525 22.9781-79.4568 22.2056L-82.5579 22.2056-86.5899 23.3222C-87.9377 23.7143-89.1298 24.5167-90.0011 25.6173-90.0304 25.8023-90.0304 25.9904-90.0011 26.1754L-90.0011 26.5474C-90.0816 27.2716-89.8036 27.9893-89.2571 28.4705-88.6533 28.8149-87.9667 28.9865-87.272 28.9667-86.453 28.946-85.6402 28.8209-84.853 28.5944L-82.4338 27.9741C-79.3324 27.9741-77.5958 30.083-77.0994 34.1767-77.0994 36.9063-76.7896 38.8908-76.7277 39.9452L-76.7277 43.7909C-76.8972 44.395-77.2426 44.9347-77.7197 45.3418L-78.4642 45.7141-86.5277 45.7141C-87.3031 42.1748-88.3821 38.709-89.7532 35.3555-91.0637 32.0675-92.9544 29.0422-95.3355 26.4236-96.6271 25.2278-97.8101 23.9202-98.8711 22.516-99.8571 21.0223-101.439 20.0275-103.213 19.7866-103.828 19.8206-104.434 19.9462-105.012 20.1586-105.942 21.5527-105.674 23.4228-104.391 24.5005-103.653 25.2484-102.819 25.8948-101.91 26.4236-99.5321 29.2028-97.2962 32.1012-95.2116 35.1073-93.1064 38.2552-91.9248 41.9292-91.8001 45.7141L-101.042 45.7141C-101.902 46.0806-102.527 46.8453-102.717 47.761-102.756 48.2148-102.756 48.6715-102.717 49.1253-102.505 49.6917-102.166 50.2011-101.724 50.6139L-100.98 51.0484-73.6882 51.0484C-72.9692 51.0683-72.2991 50.6853-71.9514 50.0559-71.7343 49.785-71.5853 49.4657-71.5172 49.1253L-71.5172 39.9452ZM-144.399-11.5369C-144.574-12.0886-144.95-12.5539-145.453-12.8398L-146.198-12.8398-205.557-12.8398-207.294-11.3509-207.294-8.49766-204.689-6.57481-196.067-6.57481-196.067 38.8289C-195.862 39.4326-195.443 39.9403-194.889 40.2556-194.358 40.6164-193.732 40.8108-193.09 40.8139-191.968 40.9511-190.947 40.1527-190.81 39.0306-190.801 38.9637-190.797 38.8963-190.795 38.8289L-190.795-6.57481-174.358-6.57481-174.358 50.4901C-174.363 51.1255-174.063 51.7251-173.552 52.1028-173.009 52.4872-172.355 52.6834-171.691 52.6609-171.016 52.6826-170.348 52.5104-169.768 52.1648-169.276 51.7551-169.02 51.1268-169.086 50.4901L-169.086 35.5415-149.237 35.5415C-148.636 35.2711-148.089 34.8925-147.624 34.4251L-147.066 33.6186-147.066 30.7032C-147.277 30.1188-147.616 29.589-148.058 29.1527L-148.803 28.7804-169.086 28.7804-169.086-6.9471-146.446-6.9471C-145.868-7.16551-145.37-7.55504-145.019-8.06345L-144.647-8.86969-144.647-11.5369ZM-259.645-4.09364C-262.587-6.67252-265.695-9.05545-268.949-11.227-272.109-13.3586-275.475-15.1665-278.997-16.6233-279.738-16.5872-280.432-16.2513-280.92-15.6927-281.258-15.1318-281.43-14.4865-281.416-13.8318-281.455-13.4608-281.455-13.0866-281.416-12.7154-281.456-12.5735-281.456-12.4233-281.416-12.2815-279.995-11.1251-278.48-10.0877-276.889-9.18007L-269.135-4.58977-263.429-0.682143C-263.116-0.468173-262.752-0.340157-262.374-0.310113-261.754-0.310113-261.196-0.744323-260.638-1.55082-260.157-2.31265-259.9-3.19335-259.893-4.0939ZM-221.808 3.16331C-221.237 3.14763-220.706 3.46088-220.444 3.96955-220.135 4.58429-219.985 5.26695-220.01 5.95458-219.968 6.58447-220.119 7.21175-220.444 7.75334-220.739 8.2142-221.263 8.47624-221.808 8.43574L-277.633 8.43574-278.377 8.43574C-278.839 8.11936-279.187 7.66268-279.369 7.13311L-279.369 5.21026C-279.369 4.40376-278.749 3.78353-277.695 3.2874L-251.271 3.2874-251.271-10.7306C-251.383-11.297-251.664-11.8162-252.078-12.2193-252.403-12.5059-252.823-12.6608-253.256-12.6535-254.13-12.6057-254.981-12.3504-255.737-11.9092-256.487-11.5669-257.213-11.1735-257.908-10.7306L-258.591-10.7306C-260.079-10.7306-260.823-11.661-260.823-13.3975-260.821-14.1095-260.651-14.8107-260.327-15.4445-259.973-16.0148-259.421-16.4344-258.776-16.6233L-257.102-17.4295C-255.809-17.9651-254.455-18.34-253.07-18.5459L-250.403-18.5459C-249.667-18.2828-248.976-17.9061-248.356-17.4295-246.957-16.2748-246.102-14.5889-245.999-12.7773L-245.999 3.16331ZM-219.638-14.204C-219.096-14.6401-218.797-15.3089-218.831-16.0031-218.851-16.7038-219.14-17.37-219.638-17.8637-220.079-18.4056-220.738-18.7235-221.436-18.7322-221.699-18.8098-221.98-18.8098-222.243-18.7322L-232.787-10.5446C-233.604-9.62055-234.519-8.7887-235.516-8.06345-237.378-6.91575-238.646-5.01301-238.99-2.85319-238.556-1.67466-237.936-1.05444-237.191-0.992517L-235.454-0.992517-219.638-14.5144ZM-227.081 13.274-271.368 13.274C-271.931 13.518-272.422 13.9026-272.795 14.3903L-273.167 15.1966C-273.375 16.2881-272.97 17.406-272.112 18.1119L-271.368 18.6083-227.081 18.6083C-226.543 18.613-226.035 18.3591-225.716 17.9257-225.39 17.3621-225.239 16.7147-225.282 16.065-225.257 15.3972-225.407 14.7344-225.716 14.1421-225.972 13.6196-226.499 13.2844-227.081 13.274M-251.581 35.3555C-252.946 36.2236-254.001 36.906-254.807 37.5265-256.969 39.1032-259.04 40.8014-261.01 42.6124L-253.566 42.6124-253.07 43.0469C-252.401 43.7248-252.023 44.6371-252.016 45.59-252.069 46.7113-252.642 47.7435-253.566 48.3812L-261.01 48.3812-261.01 54.5837C-261.313 56.0601-262.757 57.0106-264.233 56.7067-264.254 56.7023-264.276 56.6976-264.297 56.6926-264.847 56.7198-265.391 56.5675-265.848 56.2584-266.299 55.866-266.568 55.3051-266.592 54.7076L-266.592 48.5051-278.005 48.5051C-279.245 48.5051-279.804 47.4506-279.804 46.0239-279.826 45.3096-279.654 44.6024-279.308 43.977-279.044 43.4152-278.579 42.9724-278.005 42.7365L-267.026 42.7365-281.044 30.3312C-281.35 29.8244-281.52 29.2478-281.54 28.6566-281.55 27.925-281.284 27.2165-280.796 26.6718-280.36 26.1305-279.692 25.8305-278.997 25.8653L-278.501 25.8653-278.005 25.8653-274.283 28.9667C-271.368 31.3856-268.825 33.7427-266.53 36.0376L-266.53 23.6323C-266.5 22.5024-265.56 21.6102-264.43 21.6397-264.386 21.6407-264.341 21.6434-264.297 21.6473-263.637 21.6593-262.994 21.8526-262.436 22.2056-261.899 22.5405-261.485 23.0413-261.258 23.6323L-261.258 36.0376C-260.562 35.2444-259.793 34.5176-258.963 33.8668-257.112 32.4315-255.008 31.3582-252.76 30.7032-252.404 30.8877-252.087 31.1406-251.83 31.4478-251.311 32.0769-251.026 32.8657-251.023 33.6808-251.026 34.319-251.153 34.951-251.395 35.5415ZM-215.978 25.6793C-215.921 25.4977-215.921 25.3028-215.978 25.121L-215.978 24.5629C-215.955 23.829-216.223 23.1158-216.722 22.5779-217.195 22.0951-217.845 21.8262-218.521 21.8335-219.072 21.8639-219.606 22.0345-220.072 22.3299L-233.283 34.549-233.283 23.446C-233.252 22.8365-233.533 22.2526-234.028 21.8957-234.55 21.4652-235.213 21.2442-235.889 21.2755-236.574 21.2436-237.25 21.4398-237.811 21.8333-238.326 22.2024-238.609 22.8151-238.556 23.446L-238.556 34.549C-240.992 31.7397-243.624 29.1072-246.433 26.6718L-250.403 23.4463-250.899 23.4463-251.457 23.4463C-252.148 23.4309-252.808 23.7269-253.256 24.2525-253.69 24.8242-253.929 25.5199-253.938 26.2376-253.911 26.8196-253.763 27.39-253.504 27.9122-249.708 30.9744-246.142 34.312-242.836 37.8985-241.637 39.1805-240.21 40.8552-238.556 42.9228L-248.108 42.9228C-248.67 43.1772-249.129 43.6143-249.411 44.1632-249.728 44.7994-249.898 45.499-249.907 46.2102-250.059 47.383-249.27 48.4708-248.108 48.6911L-238.432 48.6911-238.432 53.9635C-237.913 54.9453-236.933 55.5987-235.827 55.7001-234.959 55.6573-234.149 55.252-233.593 54.5837L-233.16 53.9635-233.16 48.6911-219.514 48.6911C-218.93 48.6341-218.405 48.3146-218.087 47.8229-217.764 47.3038-217.612 46.6961-217.653 46.0858-217.472 44.7291-218.24 43.4241-219.514 42.9228L-233.283 42.9228-218.707 28.9047C-217.835 28.5366-217.099 27.9083-216.598 27.1057-216.412 26.7428-216.247 26.3705-216.102 25.9894Z" fill-rule="evenodd" transform="matrix(1.00072 0 0 -1 1605.41 630.813)"/></g><g><path d="M0 0C142.247 5.91226 262.355-104.609 268.267-246.857 274.179-389.104 163.657-509.211 21.4101-515.123-120.837-521.036-240.944-410.514-246.857-268.267-252.769-126.019-142.247-5.91226 0 0" fill="#FFFFFF" transform="matrix(1.00072 0 0 -1 1454.86 3.77358)"/></g><g><path d="M0 0C-140.452 0-254.31-113.859-254.31-254.31-254.31-394.762-140.452-508.621 0-508.621 140.452-508.621 254.311-394.762 254.311-254.31 254.106-113.944 140.367-0.205087 0 0M0-515.568C-144.289-515.602-261.285-398.661-261.319-254.373-261.354-110.084-144.412 6.91261-0.124097 6.94684 144.165 6.98132 261.161-109.96 261.196-254.248L261.196-254.373C261.025-398.556 144.183-515.397 0-515.568" fill="#FF0001" transform="matrix(1.00072 0 0 -1 1465.56 6.94629)"/></g><g><path d="M0 0C-104.825 0-189.803-84.9774-189.803-189.803-189.803-294.628-104.825-379.605 0-379.605 104.825-379.605 189.803-294.628 189.803-189.803 189.53-85.1208 104.682-0.356616 0-0.186015ZM0 49.1253C131.956 49.1253 238.928-57.8463 238.928-189.803 238.928-321.759 131.956-428.73 0-428.73-131.956-428.73-238.928-321.759-238.928-189.803-238.689-57.9453-131.857 48.8862 0 49.1253" fill="#FF0001" fill-rule="evenodd" transform="matrix(1.00072 0 0 -1 1465.56 71.5163)"/></g><g><path d="M0 0C-104.688 0.0342247-189.582-84.8045-189.616-189.492-189.65-294.18-104.812-379.074-0.123836-379.109 104.564-379.143 189.458-294.304 189.492-189.616L189.492-189.368C189.39-84.737 104.631 0.077071 0 0.248195ZM0-379.605C-104.962-379.605-190.05-294.516-190.05-189.554-190.05-84.5923-104.962 0.496128 0.000261258 0.496128 104.89 0.496128 189.948-84.4789 190.051-189.368 189.948-294.288 104.919-379.316 0-379.419ZM0 49.1253C-131.819 49.1595-238.707-57.6731-238.742-189.492-238.776-321.312-131.943-428.2-0.123836-428.234 131.695-428.268 238.583-321.435 238.618-189.616L238.618-189.368C238.481-57.63 131.739 49.1404 0 49.3116ZM0-428.482C-132.093-428.378-239.091-321.211-238.987-189.118-238.912-93.1192-181.446-6.46795-93.0403 30.9514-33.5721 56.1474 33.5724 56.1474 93.0406 30.9514 214.72-20.3684 271.757-160.612 220.437-282.291 183.055-370.926 96.1963-428.529 0-428.482" fill="#FF0001" transform="matrix(1.00072 0 0 -1 1465.56 71.9506)"/></g><g><path d="M0 0 33.7427-4.59003 315.655-265.041 315.655-289.542 291.155-289.542 9.24198-27.5399Z" fill="#FF0001" fill-rule="evenodd" transform="matrix(1.00072 0 0 -1 1307.59 116.548)"/></g><g><path d="M0 0 24.1906 0 24.1906 24.3145-257.474 284.828-290.658 289.356-281.664 262.25ZM24.8108-0.496128 0-0.496128-282.098 262.002-291.465 289.976-291.03 289.976-257.226 285.324 24.7487 24.8108Z" fill="#FF0001" transform="matrix(1.00072 0 0 -1 1598.89 406.152)"/></g><g><path d="M0 0-43.543-43.543-43.543-82.4957-13.7701-57.3131-13.7701-128.334 12.5913-128.334 12.5913-57.3131 40.0693-83.6123 40.0693-43.543Z" fill-rule="evenodd" transform="matrix(1.00072 0 0 -1 1491.01 264.11)"/></g><g><path d="M0 0 0-71.0208 26.3614-71.0208 26.3614 0 53.8394-26.2992 53.8394 14.0183 13.7698 57.4369-29.6488 14.0183-29.6488-24.9347ZM0-71.0208 0 0-29.7732-25.1829-29.7732 14.0183 13.6457 57.4369 53.7153 14.0183 53.7153-26.1132 26.2373 0.248195 26.2373-71.0208Z" transform="matrix(1.00072 0 0 -1 1477.48 321.423)"/></g><g><path d="M0 0-44.2251-46.7063-45.3418-87.2718-11.475-48.1328-11.475-83.4263-114.564-142.972C-130.966-149.085-141.746-164.857-141.483-182.359L-141.918-260.327C-138.878-276.578-120.704-281.726-110.098-292.457L-22.3297-339.225-22.6398-304.738-91.7999-270.003C-102.344-263.056-111.648-255.303-112.703-241.595L-112.083-190.485C-114.316-178.079-107.307-171.008-96.0176-166.542L10.5446-103.957 10.5446-48.1328 40.3797-89.6288 40.3797-46.7063Z" fill-rule="evenodd" transform="matrix(1.00072 0 0 -1 1490.7 91.7993)"/></g><g><path d="M0 0 0-35.2933-103.089-94.8391C-119.467-100.982-130.234-116.736-130.009-134.226L-130.443-212.194C-128.396-223.049-119.526-229.003-110.904-234.834-106.472-237.589-102.317-240.767-98.4988-244.324L-10.7306-291.093-11.041-256.606-80.3249-221.87C-89.877-215.668-100.173-207.666-101.228-193.462L-100.608-142.352C-102.655-131.125-97.5063-123.744-84.5427-118.409L22.0196-55.8242 22.0196 0 51.8544-41.4961 51.8544 1.42647 11.475 48.1328-32.7502 1.42647-33.8668-39.139ZM-10.8547-290.844-98.6229-244.076C-102.441-240.519-106.596-237.34-111.028-234.586-119.65-228.755-128.52-222.801-130.567-211.946L-130.133-133.978C-130.358-116.488-119.591-100.734-103.213-94.5912L-0.124097-35.0453-0.124097 0-34.1767-39.3872-32.7502 1.42647 11.6612 48.1328 52.0404 1.42647 52.0404-41.2479 22.0196 0 22.0196-55.8242-84.5427-118.409C-97.5063-123.558-102.593-130.815-100.608-142.352L-100.98-193.462C-99.8633-207.666-89.6288-215.606-80.0767-221.871L-10.9166-256.357Z" transform="matrix(1.00072 0 0 -1 1479.22 139.932)"/></g></g></g></g><g clip-path="url(#clip4)"><g clip-path="url(#clip5)"><g><g><path d="M0 0C141.9 11.741 266.45-93.7732 278.191-235.673 289.932-377.573 184.418-502.123 42.5182-513.864-99.3814-525.605-223.932-420.091-235.673-278.191-247.414-136.291-141.9-11.741 0 0" fill="#FFFFFF" transform="matrix(1.00072 0 0 -1 2251.26 4.43532)"/></g><g><path d="M0 0C-140.466 0-254.336-113.87-254.336-254.336-254.336-394.802-140.466-508.672 0-508.672 140.466-508.672 254.336-394.802 254.336-254.336 254.131-113.955 140.381-0.205108 0 0M0-515.62C-144.303-515.654-261.311-398.701-261.346-254.398-261.38-110.095-144.427 6.91331-0.12411 6.94754 144.179 6.98203 261.187-109.971 261.222-254.274L261.222-254.398C261.051-398.596 144.198-515.449 0-515.62" transform="matrix(1.00072 0 0 -1 2272.56 6.94853)"/></g><g><path d="M0 0-47.0212-46.9592-47.0212-89.0176-14.826-61.8472-14.826-138.52 13.5852-138.52 13.5852-61.8472 43.2992-90.2581 43.2992-46.9592Z" fill-rule="evenodd" transform="matrix(1.00072 0 0 -1 2304.9 266.744)"/></g><g><path d="M0 0 0-76.7351 28.4112-76.7351 28.4112 0 58.1252-28.5353 58.1252 14.8877 14.7019 61.8469-32.1951 14.8877-32.1951-27.1706ZM0-76.7351 0 0-32.1951-27.2328-32.1951 14.8877 14.826 61.8469 58.2493 14.8877 58.2493-28.5353 28.5353-0.124371 28.5353-76.7351Z" transform="matrix(1.00072 0 0 -1 2290.07 328.529)"/></g><g><path d="M0 0-47.9516-50.433-49.1924-94.2283-12.4065-51.6738-12.4065-89.8241-123.694-154.152C-141.391-160.743-153.02-177.763-152.726-196.645L-153.222-280.824C-149.934-298.38-130.332-303.963-118.856-315.501L-24.1309-365.996-24.441-328.776-98.8808-291.556C-110.295-284.05-120.344-275.676-121.523-260.911L-120.841-205.702C-123.26-192.179-115.63-184.673-103.471-179.834L11.352-112.156 11.352-51.7358 43.6093-96.5856 43.6093-50.4949Z" fill-rule="evenodd" transform="matrix(1.00072 0 0 -1 2304.59 77.9145)"/></g><g><path d="M0 0 0-38.1503-111.288-102.417C-128.961-109.037-140.576-126.039-140.319-144.91L-140.816-229.088C-138.582-240.813-129.029-247.264-119.724-253.53-114.979-256.505-110.534-259.933-106.449-263.765L-11.7243-314.26-12.0964-277.04-86.5364-239.82C-96.8958-232.997-108-224.498-109.178-209.176L-108.496-154.028C-110.667-141.622-105.146-133.619-91.1269-128.099L23.7588-60.3581 23.7588 0 56.0161-44.788 56.0161 1.24084 12.5926 51.6116-35.359 1.24084-36.5996-42.5548ZM-11.7243-314.26-106.449-263.765C-110.549-259.952-114.993-256.525-119.724-253.53-129.029-247.326-138.334-241.123-140.816-229.088L-140.319-144.91C-140.576-126.039-128.961-109.037-111.288-102.417L0-38.1503 0 0-36.7856-42.5548-35.545 1.24084 12.4065 51.7358 55.8301 1.30276 55.8301-44.788 23.5728 0 23.5728-60.3581-91.2507-128.16C-105.27-133.744-110.791-141.932-108.62-154.091L-109.303-209.238C-108.062-224.56-96.8958-233.059-86.6603-239.882L-12.2205-277.102Z" transform="matrix(1.00072 0 0 -1 2292.18 129.65)"/></g><g><path d="M0 0 280.213 306.873 286.306 301.309 6.09262-5.56325Z" transform="matrix(1.00072 0 0 -1 2086.94 394.1)"/></g><g><path d="M0 0 280.213 306.873 286.306 301.31 6.09262-5.56325Z" transform="matrix(1.00072 0 0 -1 2102.15 407.44)"/></g><g><path d="M0 0 280.213 306.873 286.306 301.309 6.09262-5.56325Z" transform="matrix(1.00072 0 0 -1 2119.39 415.032)"/></g><g><path d="M0 0 280.214 306.873 286.306 301.309 6.09262-5.56325Z" transform="matrix(1.00072 0 0 -1 2130.74 432.23)"/></g><g><path d="M0 0 280.213 306.873 286.306 301.309 6.09262-5.56325Z" transform="matrix(1.00072 0 0 -1 2147.97 445.531)"/></g><g><path d="M0 0C-104.835 0.0342282-189.849-84.924-189.884-189.759-189.918-294.595-104.96-379.609-0.12411-379.643 104.711-379.677 189.725-294.719 189.759-189.884L189.759-189.822C189.486-85.1537 104.668-0.390619 0-0.186034ZM0 49.1302C131.97 49.1302 238.952-57.8521 238.952-189.822 238.952-321.791 131.97-428.773 0-428.773-131.969-428.773-238.952-321.791-238.952-189.822-238.713-57.9514-131.87 48.8912 0 49.1302" fill-rule="evenodd" transform="matrix(1.00072 0 0 -1 2272.56 71.525)"/></g><g><path d="M0 0-24.8133 0-24.8133-16.377C-25.0017-16.9897-25.4255-17.5029-25.992-17.8036-26.5172-18.1833-27.1432-18.3991-27.7909-18.4239-28.9513-18.5271-29.9755-17.6701-30.0785-16.51-30.0824-16.4658-30.085-16.4214-30.086-16.377L-30.086 0-58.2493 0C-58.8534-0.0133255-59.4102 0.32556-59.6762 0.868246-60.0637 1.47913-60.258 2.19269-60.2343 2.9154-60.2552 3.64987-60.0843 4.37676-59.7381 5.02449-59.4243 5.54287-58.8547 5.85145-58.2493 5.83081L-30.086 5.83081-30.086 16.4387-51.4254 16.4387C-51.978 16.6772-52.4357 17.0916-52.7284 17.6173-52.8622 18.1467-52.8622 18.7009-52.7284 19.2302-52.8156 19.8267-52.8156 20.4327-52.7284 21.0292L-52.356 21.7116C-50.1375 25.0576-48.2471 28.6101-46.711 32.3192-45.8425 34.2423-44.6639 36.9717-43.1131 40.5695L-57.1945 40.5695C-58.0954 41.2204-58.6446 42.2506-58.6836 43.3611-58.6713 44.2824-58.3175 45.1668-57.6909 45.8425-57.5417 46.0236-57.3756 46.1895-57.1945 46.3389L-41.3139 46.3389-38.7087 56.0158C-38.0262 57.0333-36.8935 57.6575-35.6692 57.6909-34.9854 57.6747-34.3369 57.3842-33.8702 56.8844-33.3926 56.2688-33.2319 55.4648-33.436 54.7131L-35.607 46.3389-2.41923 46.3389C-1.76915 46.4816-1.09452 46.241-0.682212 45.7187-0.267816 45.0939-0.0517342 44.3587-0.0619243 43.6093-0.0569599 42.9164-0.227578 42.2334-0.558363 41.6243-0.815467 41.0464-1.35711 40.6458-1.98523 40.5695L-37.4059 40.5695-45.1603 22.7043-44.726 22.2078-29.9 22.2078-29.9 32.8157C-29.8347 33.402-29.5724 33.9486-29.1556 34.3664-27.7481 35.2814-25.8655 34.8827-24.9502 33.4752-24.8165 33.2693-24.7078 33.0477-24.627 32.8157L-24.627 22.2078-6.0171 22.2078C-5.35501 22.2379-4.71513 21.9638-4.28035 21.4634-3.83669 20.9006-3.61565 20.1938-3.66006 19.4784-3.52498 18.1433-4.31876 16.8889-5.58285 16.4387L-24.6273 16.4387-24.6273 5.83107 0.186034 5.83107C0.801096 5.82558 1.3673 5.49532 1.67483 4.96256 2.01345 4.33418 2.18407 3.62923 2.17127 2.9154 2.22248 2.17858 2.04951 1.44307 1.67483 0.806583 1.38611 0.151806 0.713043-0.246913 0-0.186295ZM-78.5963 1.92279C-78.5949 1.48174-78.7243 1.0501-78.9681 0.682212-79.2871 0.248742-79.795-0.00522568-80.333 -1.16033e-16L-95.4692 -1.16033e-16C-95.8935 0.0381474-96.2998 0.188124-96.6478 0.434254-97.0701 0.810502-97.2984 1.35815-97.2681 1.92279L-97.2681 11.4142-96.896 12.1583C-96.5391 12.6618-96.0435 13.0498-95.4692 13.275L-80.0848 13.275-79.4026 12.903C-78.9223 12.4862-78.5586 11.9516-78.3478 11.352L-78.3478 1.67483ZM-71.5241-15.8806C-70.2652-15.3345-69.5281-14.0129-69.7251-12.655-69.6891-12.0648-69.8412-11.4782-70.1597-10.9799-70.4648-10.5039-70.9639-10.1861-71.5241-10.1114L-99.2531-10.1114-103.595-9.55332C-106.914-8.90899-110.074-7.62374-112.9-5.76915L-112.9 8.68455-106.325 8.68455C-105.056 9.22645-104.298 10.5407-104.464 11.9101-104.431 12.5197-104.582 13.1248-104.898 13.6471-105.234 14.1206-105.75 14.4349-106.325 14.5156L-112.9 14.5156-112.9 27.5424-103.658 27.5424C-102.531 27.6362-101.693 28.6263-101.788 29.7526-101.79 29.7809-101.793 29.8096-101.797 29.8378-101.81 30.4777-102.004 31.1014-102.355 31.6368-102.626 32.1789-103.091 32.5999-103.658 32.8154L-112.9 32.8154-112.9 41.8104-104.96 41.8104C-103.781 41.8104-103.161 42.8649-103.161 44.2918-103.148 45.0051-103.319 45.7103-103.658 46.3387-103.921 46.9007-104.386 47.3433-104.96 47.5795L-113.769 47.5795-113.769 54.341C-113.799 55.5056-114.767 56.4253-115.931 56.3958-115.976 56.3944-116.02 56.3918-116.064 56.3882-116.706 56.385-117.332 56.1906-117.863 55.8298-118.433 55.5043-118.856 54.971-119.042 54.341L-119.042 47.5795-129.153 47.5795C-130.437 47.0546-131.202 45.7275-131.014 44.3537-131.018 43.7671-130.869 43.1894-130.58 42.6789-130.261 42.1871-129.736 41.8673-129.153 41.8104L-119.042 41.8104-119.042 32.6294-131.448 32.6294C-131.959 32.6012-132.424 32.3226-132.689 31.885-132.998 31.2704-133.148 30.5874-133.123 29.9-133.165 29.2698-133.013 28.6425-132.689 28.1011-132.385 27.6498-131.867 27.3909-131.324 27.4183L-118.918 27.4183-118.918-1.55098C-119.622-0.75302-120.265 0.0971976-120.841 0.992356-122.063 3.03638-122.904 5.28551-123.322 7.63001L-123.322 11.9723C-123.263 12.5082-123.263 13.049-123.322 13.5852L-123.322 16.9348-123.322 19.4165C-123.322 20.2226-123.322 20.9051-123.632 21.5875-124.085 21.9105-124.627 22.084-125.183 22.0837-125.859 22.091-126.509 21.8222-126.982 21.3393-127.487 20.805-127.756 20.0893-127.726 19.3541L-127.726 18.796C-127.755 18.611-127.755 18.4226-127.726 18.2379L-128.285 13.6471C-128.843 9.61524-129.525 5.83107-130.27 2.29512-131.29-2.60735-132.637-7.43587-134.302-12.1586-134.492-12.9221-134.255-13.7292-133.682-14.2677-133.077-14.786-132.307-15.0722-131.51-15.074-130.698-15.1417-129.913-14.7612-129.463-14.0816L-125.989-2.54334C-123.21-5.72107-120.136-8.62916-116.808-11.2281-113.599-13.6372-109.716-14.982-105.705-15.074L-99.9975-16.0047ZM-73.3233-1.92305-73.3233 15.4461C-73.4388 16.0342-73.6483 16.5996-73.9436 17.1209-74.642 18.2551-75.9008 18.9203-77.2313 18.8582L-98.8188 18.8582-99.6254 18.8582C-100.877 18.2603-101.741 17.0694-101.921 15.6943L-101.921-1.67509C-101.776-2.1859-101.589-2.68391-101.362-3.16362-100.861-4.25579-99.946-5.10392-98.8188-5.52119L-76.859-5.52119-75.9288-5.14886C-74.5639-4.47657-73.6138-3.1793-73.3852-1.67509ZM-71.5241 40.0734C-71.39 36.5298-71.7237 32.9839-72.5167 29.5277-73.1004 25.8877-75.8601 22.9804-79.4645 22.2078L-82.5662 22.2078-86.5986 23.3245C-87.9379 23.7348-89.1252 24.5335-90.0102 25.6197-90.0402 25.8046-90.0402 25.993-90.0102 26.1778L-90.0102 26.5501C-90.0773 27.2603-89.8278 27.9639-89.328 28.4731-88.7241 28.8178-88.0375 28.9894-87.3427 28.9693-86.5236 28.9489-85.7107 28.8238-84.9235 28.5972L-82.5043 27.9767C-79.4026 27.9767-77.6036 30.0445-77.1072 34.1801-77.1072 36.9097-77.1072 38.8947-76.7351 39.9492L-76.7351 43.7953C-76.9536 44.3913-77.3154 44.9244-77.7897 45.3463-78.024 45.496-78.2736 45.6209-78.5341 45.7184L-86.4742 45.7184C-87.2787 42.1866-88.3573 38.723-89.7 35.3587-91.0569 32.0945-92.9433 29.0762-95.2831 26.4262-96.6026 25.2395-97.8071 23.931-98.8808 22.518-99.8668 21.0245-101.45 20.0292-103.223 19.7883-103.818 19.8231-104.404 19.9488-104.96 20.1607-105.367 20.6955-105.585 21.3498-105.581 22.0215-105.518 22.9687-105.097 23.8565-104.402 24.5029-103.663 25.2507-102.829 25.8974-101.921 26.4262-99.5217 29.1893-97.2846 32.0888-95.221 35.1108-93.0996 38.2551-91.8969 41.9285-91.7472 45.7184L-100.99 45.7184C-101.881 46.0591-102.536 46.8312-102.727 47.7656L-102.727 49.1302C-102.496 49.6667-102.133 50.1359-101.672 50.4949L-100.928 50.9292-73.7575 50.9292C-73.0233 50.9449-72.3367 50.566-71.9583 49.9366-71.7914 49.6376-71.6461 49.3265-71.5241 49.0061L-71.5241 39.8251ZM-144.413-11.5383C-144.563-12.1029-144.946-12.5772-145.468-12.8411L-146.15-12.8411-205.578-12.8411-207.129-11.5383-207.129-8.68481-204.524-6.76176-196.149-6.76176-196.149 38.6465C-195.922 39.2375-195.508 39.7384-194.97 40.0734-194.42 40.4425-193.772 40.6372-193.109 40.6317-191.984 40.7347-190.987 39.9056-190.884 38.78-190.88 38.7356-190.877 38.6909-190.876 38.6465L-190.876-6.76176-174.127-6.76176-174.127 50.4949C-174.157 51.1217-173.879 51.7237-173.383 52.1078-172.84 52.4924-172.187 52.6884-171.522 52.6659-170.846 52.6876-170.179 52.5154-169.599 52.1698-169.092 51.7663-168.815 51.1411-168.854 50.4949L-168.854 35.5448-149.066 35.5448C-148.465 35.2744-147.918 34.896-147.453 34.4283L-146.895 33.622-146.895 30.7061C-147.08 30.1093-147.423 29.5739-147.887 29.1556L-148.632 28.7833-169.04 28.7833-169.04-6.9478-146.15-6.9478C-145.591-7.17015-145.114-7.56051-144.785-8.06426-144.614-8.30882-144.488-8.58187-144.413-8.87085ZM-259.609-4.03239C-262.527-6.64053-265.638-9.02526-268.914-11.166-272.059-13.3226-275.428-15.1323-278.963-16.563-279.692-16.5489-280.376-16.2072-280.824-15.6323-281.209-15.0899-281.405-14.4362-281.383-13.7715-281.428-13.4007-281.428-13.0258-281.383-12.655-281.43-12.5142-281.43-12.3616-281.383-12.2205-279.95-11.0784-278.437-10.0419-276.854-9.1188L-269.1-4.52857-263.331-0.620549C-263.045-0.399503-262.699-0.269645-262.338-0.24822-261.582-0.328956-260.923-0.79979-260.602-1.4888-260.121-2.25096-259.864-3.13175-259.857-4.03239ZM-221.769 3.22581C-221.193 3.19393-220.654 3.51192-220.404 4.03213-220.073 4.64118-219.902 5.32418-219.908 6.0171-219.884 6.65359-220.058 7.28146-220.404 7.81604-220.689 8.28818-221.22 8.55365-221.769 8.49826L-277.599 8.49826-278.343 8.49826C-278.838 8.20353-279.212 7.74184-279.398 7.19576L-279.398 5.27271C-279.398 4.46638-278.777 3.8461-277.661 3.34966L-251.172 3.34966-251.172-10.6698C-251.237-11.2386-251.5-11.7659-251.917-12.1586-252.266-12.4447-252.706-12.5983-253.157-12.5928-254.03-12.5361-254.879-12.2814-255.639-11.8484-256.365-11.4994-257.07-11.1056-257.748-10.6698L-258.492-10.6698C-259.981-10.6698-260.725-11.6002-260.725-13.3372-260.732-14.0581-260.539-14.7665-260.167-15.3844-259.844-15.9825-259.279-16.412-258.616-16.563L-256.941-17.3694C-255.651-17.9131-254.296-18.2883-252.909-18.4858L-250.552-18.4858C-249.816-18.2227-249.125-17.8459-248.505-17.3694-247.105-16.2147-246.251-14.5284-246.148-12.7169L-246.148 3.22581ZM-219.535-14.1438C-219.017-14.5966-218.722-15.254-218.729-15.9428-218.782-16.6359-219.066-17.2912-219.535-17.8036-220.011-18.3359-220.683-18.6497-221.396-18.6721-221.661-18.7432-221.939-18.7432-222.203-18.6721L-232.748-10.4838C-233.549-9.54391-234.466-8.71016-235.478-8.00234-237.328-6.85373-238.577-4.94689-238.89-2.79182-238.455-1.6129-237.897-0.992617-237.153-0.930693L-235.416-0.930693ZM-226.793 13.1509-271.395 13.1509C-271.948 13.412-272.436 13.7934-272.822 14.2674L-272.822 15.0737C-273.089 16.1562-272.701 17.2949-271.829 17.9896L-271.085 18.4858-226.98 18.4858C-226.436 18.5133-225.919 18.2543-225.615 17.8034-225.267 17.2466-225.094 16.5983-225.118 15.9425-225.113 15.2689-225.284 14.6058-225.615 14.0192-225.859 13.4864-226.393 13.1462-226.98 13.1509ZM-251.607 35.3587C-252.909 36.2273-254.026 36.9097-254.832 37.53-256.995 39.1071-259.066 40.8052-261.036 42.6164L-253.53 42.6164-253.033 43.0509C-252.407 43.7517-252.055 44.6547-252.041 45.5943-252.097 46.6998-252.643 47.723-253.53 48.3858L-261.284 48.3858-261.284 54.5892C-261.64 55.8742-262.873 56.7137-264.199 56.5739-264.77 56.6103-265.337 56.4577-265.812 56.1397-266.237 55.7282-266.501 55.1784-266.557 54.5892L-266.557 48.3858-277.971 48.3858C-279.158 48.1946-279.981 47.0977-279.832 45.9042-279.823 45.1935-279.653 44.4935-279.335 43.8575-279.047 43.2913-278.562 42.85-277.971 42.6164L-266.991 42.6164-281.072 30.2099C-281.361 29.6993-281.511 29.1219-281.507 28.5351-281.507 27.816-281.267 27.1171-280.824 26.5501-280.388 26.009-279.719 25.709-279.025 25.7435L-278.529 25.7435-277.971 25.7435-274.249 28.8452C-271.395 31.2647-268.79 33.622-266.556 35.9171L-266.556 23.5103C-266.531 22.38-265.593 21.4851-264.463 21.5107-264.396 21.5123-264.328 21.5172-264.261 21.5253-263.62 21.5285-262.993 21.7229-262.462 22.0837-261.908 22.3991-261.489 22.9067-261.284 23.5103L-261.284 35.9171C-260.569 35.1197-259.78 34.3928-258.926 33.7458-257.082 32.3015-254.976 31.2273-252.723 30.5822-252.372 30.7484-252.072 31.0052-251.855 31.3266-251.312 31.9414-251.023 32.7402-251.048 33.5598-251.051 34.1984-251.178 34.8304-251.421 35.4207ZM-216 25.6816C-215.946 25.4995-215.946 25.3056-216 25.1232L-216 24.5651C-215.971 23.8184-216.265 23.0957-216.806 22.5801-217.279 22.097-217.929 21.8284-218.605 21.8355-219.136 21.8679-219.65 22.039-220.094 22.3319L-233.307 34.3661-233.307 23.2624C-233.277 22.6381-233.585 22.0458-234.113 21.7116-234.635 21.2813-235.299 21.0603-235.974 21.0914-236.64 21.0592-237.297 21.2562-237.835 21.6495-238.35 22.0184-238.633 22.6311-238.58 23.2624L-238.58 34.3661C-241.038 31.5573-243.692 28.9246-246.52 26.4882-247.513 25.6197-248.877 24.5651-250.49 23.2624L-250.986 23.2624-251.482 23.2624C-252.177 23.2276-252.846 23.5276-253.282 24.0687-253.742 24.6257-253.985 25.3312-253.964 26.0539-253.968 26.6405-253.819 27.2182-253.53 27.7287-249.768 30.8093-246.223 34.1464-242.922 37.7163L-238.58 42.7408-248.071 42.7408C-248.662 42.9741-249.147 43.4152-249.435 43.9814-249.753 44.6179-249.923 45.3173-249.932 46.0285-250.081 47.2218-249.258 48.3187-248.071 48.5099L-238.145 48.5099-238.145 53.7827C-237.665 54.7714-236.698 55.4321-235.602 55.5197-234.716 55.4789-233.886 55.075-233.307 54.4029L-232.873 53.7827-232.873 48.5099-219.535 48.5099C-218.975 48.4352-218.476 48.1175-218.171 47.6414-217.847 47.1225-217.695 46.5145-217.737 45.9044-217.569 44.5677-218.301 43.2804-219.535 42.7408L-233.183 42.7408-218.667 28.7214C-217.784 28.3723-217.042 27.7395-216.558 26.9224-216.372 26.5595-216.206 26.1869-216.062 25.8057ZM-339.135 12.5306C-339.239 11.4241-339.801 10.4116-340.686 9.73909-341.639 9.10156-342.766 8.77652-343.912 8.80866-345.236 8.75118-346.529 9.21966-347.51 10.1112L-347.51 45.7803-345.773 47.7034-342.671 47.7034C-341.704 47.44-341.056 46.5326-341.121 45.5324-341.032 44.9567-341.032 44.371-341.121 43.7953-341.31 43.1434-341.581 42.5185-341.927 41.9342L-345.463 30.8304C-345.528 29.7189-345.199 28.6202-344.532 27.7287-343.899 26.7048-343.319 25.6489-342.795 24.5651-340.726 21.8841-339.362 18.7278-338.825 15.3841L-338.825 12.5306ZM-323.193 4.15598-335.599-11.2901C-335.989-11.9396-336.704-12.3214-337.461-12.2827-338.27-12.2874-339.049-11.9759-339.632-11.4142-340.258-10.8446-340.599-10.0265-340.562-9.18099L-340.562-8.37467-327.039 8.99469C-326.578 9.64477-325.849 10.0545-325.054 10.1112-324.351 10.0728-323.707 9.70512-323.317 9.11854-322.816 8.45985-322.554 7.65065-322.573 6.82343-322.537 5.83812-322.894 4.87869-323.565 4.15598ZM-334.731 12.0345-334.731 15.8803C-334.812 18.5483-335.512 21.1606-336.778 23.5103-337.523 24.9994-338.763 27.2945-340.438 30.3343-338.701 36.1653-336.964 41.9342-335.165 47.7034L-335.165 50.1228C-335.165 50.8051-335.6 51.3634-335.786 51.7358-336.431 52.8298-337.477 53.6306-338.701 53.9689L-348.813 53.9689-351.914 52.0456-352.348 50.1228-352.348-15.0121C-352.359-15.6002-352.081-16.156-351.604-16.5009-351.06-16.8243-350.439-16.9957-349.805-16.997-349.209-17.0109-348.623-16.8371-348.13-16.5009-347.708-16.1246-347.48-15.5767-347.51-15.0121L-347.51 3.59814-346.207 3.59814C-345.754 3.53412-345.295 3.53412-344.843 3.59814L-342.237 3.59814C-340.144 3.33189-338.081 4.26781-336.902 6.0171-335.508 7.78547-334.744 9.9685-334.731 12.2205ZM-295.154 14.4534-294.658 14.8877C-294.014 15.5827-293.64 16.4849-293.603 17.4313-293.656 18.5527-294.23 19.585-295.154 20.2226L-311.903 20.2226-311.903 28.411-301.295 28.411C-300.69 28.3908-300.12 28.6991-299.806 29.2175-299.46 29.8655-299.289 30.5924-299.31 31.3266-299.286 32.0496-299.481 32.7632-299.868 33.3735-300.134 33.9165-300.691 34.2554-301.295 34.2423L-327.721 34.2423-328.59 34.2423C-329.172 33.8626-329.504 33.1987-329.458 32.5053L-329.458 30.5822C-329.458 29.7759-328.838 29.1556-327.783 28.6594L-317.238 28.6594-317.238 20.4711-331.195 20.4711-331.691 19.9746C-332.318 19.2987-332.672 18.4148-332.684 17.4932-332.645 16.3828-332.096 15.3525-331.195 14.7019L-317.114 14.7019-317.114-7.50616C-317.229-8.36657-317.647-9.15826-318.292-9.73909-318.83-10.1911-319.513-10.4333-320.215-10.4218L-321.828-10.4218C-322.55-10.3471-323.278-10.3471-323.999-10.4218-324.644-10.4325-325.278-10.5804-325.86-10.8561-326.434-11.2023-326.904-11.6948-327.225-12.2827-327.428-13.5774-326.844-14.8691-325.736-15.5704-324.768-16.2856-323.589-16.6568-322.386-16.625L-316.183-16.625C-314.863-16.6333-313.667-15.8518-313.143-14.64L-311.841-10.8561-311.841 13.9573ZM-292.052-7.75438C-291.447-8.18367-291.079-8.8732-291.06-9.61524-291.059-10.4179-291.397-11.1835-291.99-11.7243-292.596-12.2897-293.395-12.6009-294.223-12.5928-294.958-12.6088-295.644-12.2299-296.022-11.6002L-306.382 7.07165C-306.426 7.40112-306.426 7.73505-306.382 8.06426-306.379 8.57194-306.229 9.06785-305.948 9.49087-305.395 10.1882-304.542 10.5799-303.653 10.5454-302.99 10.5512-302.341 10.3568-301.791 9.98731L-292.114-7.87823ZM-292.487 38.0881C-291.954 37.9434-291.479 37.6405-291.122 37.2199-290.821 36.7598-290.669 36.2184-290.688 35.6692-290.677 34.8811-290.941 34.1137-291.432 33.4979-291.874 32.8747-292.591 32.5047-293.355 32.5053L-294.285 32.5053C-297.387 34.4283-300.489 36.5993-303.714 38.7084-304.831 39.515-306.258 40.5695-307.933 41.9342-309.206 42.924-310.409 44.0018-311.531 45.16-312.631 46.2553-313.938 47.1202-315.377 47.7034-318.32 44.4943-321.538 41.547-324.992 38.8947L-327.349 37.1577-330.947 34.1801C-332.017 33.1577-333.348 32.4496-334.793 32.1329-335.557 31.9281-336.371 32.1674-336.902 32.7532-337.373 33.4216-337.592 34.2342-337.523 35.0486-337.52 35.88-337.352 36.7031-337.026 37.4678-333.364 39.7204-329.88 42.2504-326.605 45.0359-325.364 46.0285-323.875 47.3932-322.076 49.0681L-318.851 52.7281C-317.94 53.9909-316.548 54.8213-315.005 55.0232-314.24 54.9545-313.5 54.722-312.833 54.341-309.891 51.3386-306.784 48.5016-303.528 45.8422-300.861 43.6712-298.318 41.7482-295.774 40.0112-294.764 39.2315-293.684 38.5462-292.548 37.9643ZM-412.769 18.2998-417.173 18.2998-417.173 8.62263-412.769 8.62263ZM-403.092 18.2998-407.496 18.2998-407.496 8.62263-403.092 8.62263ZM-412.769 24.0687-412.769 32.7532-415.374 32.7532C-416.033 32.7895-416.647 32.4211-416.925 31.8231-416.975 31.4941-416.975 31.1594-416.925 30.8304L-416.925 24.0687ZM-403.092 24.0687-403.092 30.8304C-403.068 31.4121-403.294 31.9759-403.712 32.3814L-404.394 32.7532-407.496 32.7532-407.496 24.0687ZM-397.819-6.9478C-397.815-9.10339-398.77-11.149-400.424-12.5309-401.249-13.169-402.143-13.7103-403.092-14.1438L-405.635-14.1438C-406.701-13.9024-407.725-13.5052-408.675-12.9649-409.643-12.5589-410.311-11.6535-410.411-10.6079-410.386-9.9442-410.096-9.31869-409.605-8.87085-409.058-8.56018-408.435-8.40968-407.806-8.43659L-406.565-8.43659-405.263-8.43659C-404.711-8.46612-404.171-8.26388-403.774-7.87823-403.26-7.25977-402.937-6.50544-402.844-5.70722L-402.844 2.48115C-402.844 3.03951-403.154 3.34966-403.774 3.47377L-417.173 3.47377-418.042 2.48115C-418.347-1.15278-419.012-4.74779-420.027-8.25056-420.337-9.49113-420.895-11.0421-421.577-12.9652-422.26-14.8879-422.57-15.0123-423.687-15.0123-424.335-15.0332-424.963-14.7866-425.424-14.3298-425.991-13.8676-426.348-13.1972-426.416-12.469-425.127-8.91187-424.111-5.26226-423.377-1.55098-422.709 2.17414-422.397 5.95466-422.446 9.73883L-422.446 36.2894C-422.271 37.056-421.832 37.737-421.205 38.2122L-420.213 38.7084-412.335 38.7084-407.93 44.9121C-407.684 45.5159-407.349 46.0803-406.938 46.5869-406.552 47.0577-406.277 47.6088-406.131 48.1998-406.131 48.6338-406.442 48.9439-407.062 49.2541L-413.637 49.2541-414.94 48.7579C-416.801 45.8422-418.786 42.9268-421.143 40.0112L-423.935 36.227C-424.4 36.001-424.907 35.8743-425.424 35.8552-426.328 35.8858-427.129 36.4444-427.471 37.2818-427.681 37.7134-427.827 38.173-427.905 38.6465-426.549 41.1548-424.949 43.5236-423.128 45.7184-422.041 47.0912-421.125 48.5909-420.399 50.1845-419.7 51.8165-418.478 53.1694-416.925 54.0306-416.226 54.4557-415.476 54.7894-414.692 55.0232L-401.293 55.0232C-400.528 54.7737-399.858 54.2979-399.37 53.6585-399.073 53.3573-398.841 52.9985-398.687 52.604-398.877 50.051-399.902 47.6315-401.603 45.7184-403.314 43.8144-404.566 41.5439-405.263 39.0807L-399.99 39.0807C-399.241 38.8981-398.608 38.4006-398.253 37.7161-398.026 37.4041-397.877 37.0425-397.819 36.6613L-397.819-6.76176ZM-364.817-0.186295C-364.212-0.206414-363.642 0.101901-363.328 0.620288-362.954 1.2573-362.781 1.99229-362.832 2.72911-362.819 3.44294-362.99 4.14814-363.328 4.77627-363.636 5.30903-364.202 5.63929-364.817 5.64477L-376.231 5.64477-376.231 16.2526-366.12 16.2526C-364.861 16.7985-364.124 18.1203-364.321 19.4782-364.284 20.0684-364.437 20.655-364.755 21.153-365.047 21.6424-365.553 21.9643-366.12 22.0215L-376.231 22.0215-376.231 28.2249C-376.191 28.8711-376.469 29.4963-376.976 29.9-377.556 30.2457-378.223 30.4176-378.899 30.3962-379.564 30.4187-380.217 30.2224-380.76 29.8378-381.256 29.454-381.534 28.8517-381.504 28.2249L-381.504 22.0215-387.025 22.0215C-386.238 23.3128-385.81 24.7901-385.784 26.3019-385.74 27.039-386.01 27.7606-386.529 28.2871-387.184 28.7817-388.023 28.9633-388.824 28.7833-389.223 28.5541-389.598 28.284-389.941 27.9767-390.604 27.295-390.982 26.3847-390.995 25.4334-390.995 24.627-392.422 21.4632-394.593 15.7565-395.362 13.9008-395.924 11.966-396.268 9.98731-396.305 9.42503-396.047 8.88417-395.586 8.56044-395.128 8.2017-394.553 8.02481-393.973 8.064-393.402 8.02794-392.835 8.18053-392.36 8.49826L-388.824 16.2524-381.318 16.2524-381.318 5.64477-393.228 5.64477C-393.834 5.66515-394.403 5.35684-394.717 4.83845-395.063 4.19047-395.235 3.46358-395.213 2.72911-395.237 2.0064-395.043 1.29283-394.655 0.682212-394.389 0.139526-393.833-0.199621-393.228-0.186295L-381.752-0.186295-381.752-14.1438C-381.653-14.3607-381.504-14.5517-381.318-14.7022-380.754-15.3588-379.949-15.7612-379.085-15.8186-377.995-15.7194-377.022-15.0941-376.479-14.1438L-376.479-0.186295ZM-365.251 47.5795C-365.83 41.7482-366.203 38.5846-366.368 38.0881-366.911 35.0259-369.231 32.5837-372.261 31.885L-374.618 31.885C-376.107 31.885-377.596 32.071-379.085 32.4433-380.651 32.6289-382.068 33.461-382.993 34.7385-383.172 35.7248-382.872 36.7373-382.187 37.4678-381.445 37.9912-380.55 38.253-379.643 38.2122L-378.092 38.2122-375.921 37.7161C-375.532 37.6408-375.132 37.6408-374.742 37.7161-373.751 37.7686-372.858 38.3324-372.385 39.2048-371.872 40.1826-371.437 41.199-371.083 42.2446-371.118 42.9263-371.118 43.6096-371.083 44.2918L-371.083 46.2146C-371.083 47.8275-371.641 48.7579-372.757 49.0061L-379.333 49.0061C-380.71 45.3944-382.434 41.9251-384.482 38.6465-384.844 37.9596-385.281 37.3145-385.784 36.7237L-388.638 33.0017C-389.93 30.983-391.726 29.3367-393.849 28.2249-394.589 28.261-395.284 28.597-395.772 29.1556-396.103 29.7419-396.274 30.4051-396.268 31.0784L-396.268 32.1951C-396.311 32.3156-396.311 32.447-396.268 32.5675-392.928 35.6498-390.138 39.2793-388.018 43.2992-387.211 44.726-386.343 46.6488-385.288 49.0061L-394.283 49.0061C-394.854 49.2084-395.336 49.6032-395.648 50.1226-395.808 50.3734-395.933 50.6446-396.02 50.9292-396.449 52.4626-395.717 54.0829-394.283 54.7753L-370.524 54.7753C-368.912 54.5759-367.441 53.7518-366.43 52.4799-365.953 51.8497-365.557 51.162-365.251 50.433L-365.251 48.0135Z" fill-rule="evenodd" transform="matrix(1.00072 0 0 -1 2485.55 630.878)"/></g></g></g></g><path d="M1284.67 628.026 1367.48 628.026 1367.48 637.581 1343.31 637.581C1353.78 642.543 1362.06 646.555 1368.13 649.617L1363.2 659.173C1359.79 657.213 1355.55 654.885 1350.47 652.19 1345.39 649.495 1341.33 647.443 1338.3 646.034L1343.04 637.581 1333 637.581 1333 649.25C1333 653.109 1332.13 655.865 1330.4 657.519 1328.66 659.173 1325.78 660 1321.75 660 1318.9 660 1315.4 659.786 1311.25 659.357L1309.21 649.066C1312.43 649.617 1315.15 649.893 1317.39 649.893 1318.93 649.893 1319.97 649.572 1320.5 648.929 1321.03 648.285 1321.29 647.045 1321.29 645.207L1321.29 637.581 1308.37 637.581 1313.67 644.288C1310.45 646.616 1306.54 649.112 1301.96 651.777 1297.37 654.441 1292.91 656.845 1288.58 658.989L1283.28 649.985C1287.12 648.331 1291.13 646.371 1295.31 644.105 1299.5 641.838 1303.14 639.664 1306.23 637.581L1284.67 637.581ZM1522.68 624.35 1522.68 634.365 1539.68 634.365 1539.68 624.35ZM1512.64 615.071 1550.09 615.071 1550.09 643.829 1512.64 643.829ZM1293.41 614.06 1358.74 614.06 1358.74 623.156 1293.41 623.156ZM1510.22 578.778 1551.76 578.778C1551.64 587.598 1551.21 594.888 1550.46 600.645 1550.15 603.034 1549.64 604.903 1548.93 606.25 1548.22 607.598 1547.1 608.562 1545.58 609.144 1544.07 609.726 1541.98 610.017 1539.31 610.017 1537.7 610.078 1534.97 609.956 1531.13 609.65L1529.55 600.37C1532.78 600.676 1535.25 600.829 1536.99 600.829 1538.1 600.829 1538.91 600.599 1539.4 600.14 1539.9 599.681 1540.21 598.9 1540.33 597.797 1540.77 594.122 1540.98 590.998 1540.98 588.425L1530.11 588.425C1529.55 592.774 1528.33 596.939 1526.44 600.921 1524.55 604.903 1521.53 609.129 1517.38 613.601L1509.29 606.801C1515.3 600.982 1518.87 594.857 1519.98 588.425L1510.22 588.425ZM1485.32 575.195 1496 575.195 1496 585.485 1506.97 585.485 1506.97 595.316 1496 595.316 1496 604.321 1507.53 604.321 1507.53 614.152 1498.33 614.152 1498.33 623.432 1507.99 623.432 1507.99 633.447 1498.33 633.447 1498.33 645.575C1501.3 646.677 1505.02 647.382 1509.48 647.688 1517.47 648.301 1525.84 648.607 1534.57 648.607 1541.39 648.607 1548.17 648.423 1554.92 648.055L1552.69 658.714C1544.14 658.959 1537.95 659.081 1534.11 659.081 1525.5 659.081 1516.91 658.806 1508.36 658.254 1501.55 657.826 1496.05 656.57 1491.87 654.487 1487.69 652.404 1484.23 649.128 1481.51 644.656 1480.33 649.924 1478.72 655.039 1476.67 660L1467.94 655.682C1470.29 649.556 1471.93 643.783 1472.86 638.362 1473.79 632.941 1474.35 626.249 1474.54 618.287L1483.92 618.562C1483.8 622.727 1483.68 625.851 1483.55 627.934 1484.54 632.222 1486.12 635.744 1488.29 638.5L1488.29 614.152 1470.91 614.152 1470.91 604.321 1485.32 604.321 1485.32 595.316 1472.68 595.316 1472.68 585.485 1485.32 585.485ZM1340.43 575.195 1350.01 575.195 1350.01 582.821 1365.71 582.821 1365.71 591.641 1353.07 591.641C1357.16 596.296 1362.55 600.4 1369.24 603.953L1364.69 612.039C1359.17 608.976 1354.28 604.994 1350.01 600.094L1350.01 611.579 1340.43 611.579 1340.43 600.186C1337.03 604.658 1332.97 608.516 1328.26 611.763L1322.4 604.412C1325.63 602.514 1328.38 600.538 1330.68 598.486 1332.97 596.434 1335.04 594.152 1336.9 591.641L1327.61 591.641 1327.61 582.821 1340.43 582.821ZM1301.59 575.195 1311.44 575.195 1311.44 582.821 1324.17 582.821 1324.17 591.641 1312.37 591.641C1316.46 594.336 1320.14 596.909 1323.43 599.359L1317.57 606.25 1311.44 601.197 1311.44 611.579 1301.59 611.579 1301.59 599.911C1298.18 604.382 1293.47 608.578 1287.46 612.498L1283 603.586C1289.38 599.911 1294.34 595.929 1297.87 591.641L1286.81 591.641 1286.81 582.821 1301.59 582.821ZM1418.4 575.011 1430.76 575.011 1430.76 600.002 1456.23 600.002 1456.23 611.579 1430.76 611.579 1430.76 645.024 1460.69 645.024 1460.69 656.508 1377.33 656.508 1377.33 645.024 1390.15 645.024 1390.15 590.355 1402.14 590.355 1402.14 645.024 1418.4 645.024ZM1592.84 574 1605.11 576.205C1604.3 578.288 1602.91 581.534 1600.93 585.945L1643.4 585.945 1643.4 596.419 1595.63 596.419C1592.28 602.728 1589 608.21 1585.78 612.865L1601.02 612.865 1601.02 600.002 1612.54 600.002 1612.54 612.865 1638.01 612.865 1638.01 623.248 1612.54 623.248 1612.54 634.09 1646 634.09 1646 644.748 1612.54 644.748 1612.54 659.908 1601.02 659.908 1601.02 644.748 1564.22 644.748 1564.22 634.09 1601.02 634.09 1601.02 623.248 1571.93 623.248 1571.93 612.865C1575.09 608.639 1578.56 603.157 1582.34 596.419L1565.89 596.419 1565.89 585.945 1587.73 585.945C1589.96 581.289 1591.66 577.308 1592.84 574Z" fill="#7F7F7F" fill-rule="evenodd"/><path d="M2025.29 639.143 2025.29 649.71C2026.41 649.893 2027.55 649.985 2028.73 649.985 2029.65 649.985 2030.26 649.832 2030.54 649.526 2030.81 649.219 2030.95 648.576 2030.95 647.596L2030.95 639.143ZM2163.89 630.231C2168.9 637.275 2173.35 643.829 2177.25 649.893L2168.81 655.498C2167.38 653.109 2165.37 649.909 2162.78 645.896 2160.18 641.884 2157.95 638.592 2156.1 636.019ZM2130.31 630.231 2139.03 634.917C2135.5 642.022 2130.77 649.311 2124.83 656.784L2116.95 650.353C2122.27 644.35 2126.72 637.643 2130.31 630.231ZM2185.32 628.026 2267.97 628.026 2267.97 637.581 2243.85 637.581C2254.31 642.543 2262.56 646.555 2268.62 649.617L2263.71 659.173C2260.31 657.213 2256.07 654.885 2251 652.19 2245.93 649.495 2241.88 647.443 2238.85 646.034L2243.58 637.581 2233.56 637.581 2233.56 649.25C2233.56 653.109 2232.69 655.865 2230.96 657.519 2229.23 659.173 2226.35 660 2222.33 660 2219.49 660 2215.99 659.786 2211.85 659.357L2209.81 649.066C2213.03 649.617 2215.75 649.893 2217.97 649.893 2219.52 649.893 2220.56 649.572 2221.08 648.929 2221.61 648.285 2221.87 647.045 2221.87 645.207L2221.87 637.581 2208.97 637.581 2214.26 644.288C2211.05 646.616 2207.15 649.112 2202.57 651.777 2198 654.441 2193.54 656.845 2189.21 658.989L2183.93 649.985C2187.76 648.331 2191.77 646.371 2195.94 644.105 2200.11 641.838 2203.75 639.664 2206.84 637.581L2185.32 637.581ZM2422.9 624.35 2422.9 634.365 2439.87 634.365 2439.87 624.35ZM2025.29 622.605 2025.29 630.507 2030.95 630.507 2030.95 622.605ZM2011.84 622.605 2011.84 625.086 2011.84 630.507 2017.04 630.507 2017.04 622.605ZM2412.88 615.071 2450.26 615.071 2450.26 643.829 2412.88 643.829ZM2194.04 614.06 2259.25 614.06 2259.25 623.156 2194.04 623.156ZM2059.43 609.558 2069.82 609.558 2069.82 616.449 2082.25 616.449 2082.25 625.821 2069.82 625.821 2069.82 634.733 2084.39 634.733 2084.39 644.472 2069.82 644.472 2069.82 659.908 2059.43 659.908 2059.43 644.472 2042.83 644.472 2042.83 634.733 2059.43 634.733 2059.43 625.821 2051.83 625.821C2050.71 628.883 2049.82 631.211 2049.14 632.803L2040.6 629.679C2043.26 623.554 2045.49 616.97 2047.28 609.925L2055.72 611.947C2055.47 613.172 2055.13 614.672 2054.7 616.449L2059.43 616.449ZM2025.29 606.158 2025.29 613.784 2030.95 613.784 2030.95 606.158ZM2011.84 606.158 2011.84 613.784 2017.04 613.784 2017.04 606.158ZM2016.67 590.079C2015.49 592.162 2014.01 594.428 2012.21 596.878L2021.12 596.878 2025.85 590.079ZM2148.12 586.496C2145.4 591.151 2141.63 595.898 2136.8 600.737L2159.9 600.737C2155.2 596.082 2151.27 591.335 2148.12 586.496ZM2094.31 578.87 2122.89 578.87 2122.89 589.436 2115.74 609.374C2118.15 613.601 2119.89 617.337 2120.94 620.583 2121.99 623.83 2122.51 627.229 2122.51 630.782 2122.51 636.295 2121.54 640.154 2119.59 642.359 2117.64 644.564 2114.88 645.667 2111.29 645.667 2110.3 645.667 2108.82 645.544 2106.84 645.299L2104.98 635.468C2106.96 635.836 2108.38 636.019 2109.25 636.019 2110.67 636.019 2111.61 635.453 2112.08 634.32 2112.54 633.186 2112.77 631.364 2112.77 628.853 2112.77 622.421 2110.67 616.449 2106.47 610.936L2112.77 589.344 2104.42 589.344 2104.42 659.541 2094.31 659.541ZM2410.47 578.778 2451.93 578.778C2451.81 587.598 2451.38 594.888 2450.64 600.645 2450.33 603.034 2449.82 604.903 2449.1 606.25 2448.39 607.598 2447.28 608.562 2445.76 609.144 2444.25 609.726 2442.16 610.017 2439.5 610.017 2437.9 610.078 2435.17 609.956 2431.34 609.65L2429.76 600.37C2432.98 600.676 2435.45 600.829 2437.18 600.829 2438.3 600.829 2439.1 600.599 2439.6 600.14 2440.09 599.681 2440.4 598.9 2440.52 597.797 2440.96 594.122 2441.17 590.998 2441.17 588.425L2430.32 588.425C2429.76 592.774 2428.54 596.939 2426.65 600.921 2424.77 604.903 2421.75 609.129 2417.61 613.601L2409.54 606.801C2415.54 600.982 2419.09 594.857 2420.21 588.425L2410.47 588.425ZM2043.29 578.135 2082.07 578.135C2081.82 584.322 2081.29 590.63 2080.49 597.062 2080.12 599.88 2079.55 601.978 2078.77 603.356 2078 604.734 2076.81 605.684 2075.2 606.204 2073.6 606.725 2071.21 606.985 2068.06 606.985 2066.33 606.985 2063.85 606.863 2060.64 606.617L2058.78 597.338C2061.2 597.705 2063.64 597.889 2066.11 597.889 2067.66 597.889 2068.69 597.659 2069.22 597.2 2069.75 596.74 2070.16 595.776 2070.47 594.306 2070.91 591.856 2071.12 589.62 2071.12 587.598L2061.01 587.598C2060.82 589.13 2060.61 590.416 2060.36 591.458 2059.43 595.439 2058.03 598.762 2056.14 601.426 2054.25 604.091 2051.33 606.863 2047.37 609.741L2040.69 602.667C2044.09 600.339 2046.41 598.287 2047.65 596.511 2048.89 594.734 2049.94 592.131 2050.81 588.701 2050.93 588.211 2050.99 587.843 2050.99 587.598L2043.29 587.598ZM2385.6 575.195 2396.27 575.195 2396.27 585.485 2407.22 585.485 2407.22 595.316 2396.27 595.316 2396.27 604.321 2407.78 604.321 2407.78 614.152 2398.59 614.152 2398.59 623.432 2408.24 623.432 2408.24 633.447 2398.59 633.447 2398.59 645.575C2401.56 646.677 2405.27 647.382 2409.72 647.688 2417.7 648.301 2426.05 648.607 2434.77 648.607 2441.57 648.607 2448.35 648.423 2455.09 648.055L2452.86 658.714C2444.33 658.959 2438.14 659.081 2434.31 659.081 2425.71 659.081 2417.15 658.806 2408.61 658.254 2401.81 657.826 2396.32 656.57 2392.14 654.487 2387.97 652.404 2384.52 649.128 2381.8 644.656 2380.63 649.924 2379.02 655.039 2376.98 660L2368.26 655.682C2370.61 649.556 2372.25 643.783 2373.17 638.362 2374.1 632.941 2374.66 626.249 2374.84 618.287L2384.21 618.562C2384.09 622.727 2383.97 625.851 2383.84 627.934 2384.83 632.222 2386.41 635.744 2388.57 638.5L2388.57 614.152 2371.23 614.152 2371.23 604.321 2385.6 604.321 2385.6 595.316 2372.99 595.316 2372.99 585.485 2385.6 585.485ZM2240.98 575.195 2250.53 575.195 2250.53 582.821 2266.21 582.821 2266.21 591.641 2253.6 591.641C2257.68 596.296 2263.06 600.4 2269.74 603.953L2265.19 612.039C2259.69 608.976 2254.8 604.994 2250.53 600.094L2250.53 611.579 2240.98 611.579 2240.98 600.186C2237.58 604.658 2233.53 608.516 2228.83 611.763L2222.98 604.412C2226.2 602.514 2228.95 600.538 2231.24 598.486 2233.53 596.434 2235.6 594.152 2237.45 591.641L2228.18 591.641 2228.18 582.821 2240.98 582.821ZM2202.2 575.195 2212.04 575.195 2212.04 582.821 2224.74 582.821 2224.74 591.641 2212.96 591.641C2217.05 594.336 2220.73 596.909 2224 599.359L2218.16 606.25 2212.04 601.197 2212.04 611.579 2202.2 611.579 2202.2 599.911C2198.8 604.382 2194.1 608.578 2188.1 612.498L2183.65 603.586C2190.02 599.911 2194.97 595.929 2198.49 591.641L2187.45 591.641 2187.45 582.821 2202.2 582.821ZM2318.81 575.011 2331.15 575.011 2331.15 600.002 2356.57 600.002 2356.57 611.579 2331.15 611.579 2331.15 645.024 2361.02 645.024 2361.02 656.508 2277.81 656.508 2277.81 645.024 2290.61 645.024 2290.61 590.355 2302.58 590.355 2302.58 645.024 2318.81 645.024ZM2143.48 574.368 2152.66 574.368C2155.45 579.391 2159.08 584.306 2163.56 589.115 2168.05 593.923 2173.01 598.195 2178.45 601.932L2172.05 611.303C2169.27 609.282 2166.61 607.108 2164.07 604.78L2164.07 610.936 2153.59 610.936 2153.59 617.919 2172.52 617.919 2172.52 628.485 2153.59 628.485 2153.59 648.883C2153.59 652.741 2152.87 655.513 2151.41 657.198 2149.96 658.882 2147.65 659.725 2144.5 659.725 2140.98 659.725 2137.82 659.479 2135.04 658.989L2132.9 648.883C2136.12 649.495 2138.5 649.801 2140.05 649.801 2141.28 649.801 2142.15 649.434 2142.65 648.699 2143.14 647.964 2143.39 646.861 2143.39 645.391L2143.39 628.485 2124.28 628.485 2124.28 617.919 2143.39 617.919 2143.39 610.936 2131.33 610.936 2131.33 605.791C2130.21 606.771 2128.17 608.394 2125.21 610.66L2118.71 601.84C2124.28 597.981 2129.09 593.831 2133.14 589.39 2137.19 584.949 2140.64 579.942 2143.48 574.368ZM2013.79 574.184 2023.9 576.113C2022.91 578.38 2022.05 580.218 2021.31 581.626L2037.73 581.626 2037.73 589.528 2032.34 596.878 2040.23 596.878 2040.23 650.536C2040.23 652.925 2039.94 654.717 2039.35 655.911 2038.76 657.106 2037.83 657.917 2036.57 658.346 2035.3 658.775 2033.46 658.989 2031.05 658.989 2029.38 658.989 2027.61 658.897 2025.76 658.714L2025.02 654.12 2017.04 654.12 2017.04 639.143 2011.47 639.143C2011.16 643.554 2010.61 647.321 2009.8 650.445 2009 653.568 2007.73 656.723 2006 659.908L1997.09 655.314C1998.89 651.761 2000.15 648.576 2000.9 645.759 2001.64 642.941 2002.12 639.832 2002.33 636.433 2002.55 633.033 2002.66 627.873 2002.66 620.951L2002.66 605.423 1997 599.267C2000.46 595.714 2003.52 591.902 2006.18 587.828 2008.84 583.755 2011.38 579.207 2013.79 574.184ZM2492.94 574 2505.18 576.205C2504.38 578.288 2502.99 581.534 2501.01 585.945L2543.4 585.945 2543.4 596.419 2495.72 596.419C2492.38 602.728 2489.1 608.21 2485.89 612.865L2501.1 612.865 2501.1 600.002 2512.6 600.002 2512.6 612.865 2538.02 612.865 2538.02 623.248 2512.6 623.248 2512.6 634.09 2546 634.09 2546 644.748 2512.6 644.748 2512.6 659.908 2501.1 659.908 2501.1 644.748 2464.36 644.748 2464.36 634.09 2501.1 634.09 2501.1 623.248 2472.06 623.248 2472.06 612.865C2475.22 608.639 2478.68 603.157 2482.45 596.419L2466.03 596.419 2466.03 585.945 2487.83 585.945C2490.06 581.289 2491.76 577.308 2492.94 574Z" fill="#7F7F7F" fill-rule="evenodd"/></g></svg>