<svg width="1312" height="632" xmlns="http://www.w3.org/2000/svg" xmlns:xlink="http://www.w3.org/1999/xlink" xml:space="preserve" overflow="hidden"><defs><clipPath id="clip0"><rect x="1205" y="886" width="1312" height="632"/></clipPath><clipPath id="clip1"><rect x="1204" y="885" width="523" height="530"/></clipPath><clipPath id="clip2"><rect x="1204" y="885" width="523" height="530"/></clipPath><clipPath id="clip3"><rect x="2027" y="885" width="490" height="503"/></clipPath><clipPath id="clip4"><rect x="2027" y="885" width="490" height="503"/></clipPath></defs><g clip-path="url(#clip0)" transform="translate(-1205 -886)"><path d="M1325.77 1483.54 1325.77 1494.81 1331.15 1494.81 1331.15 1483.54ZM1293.21 1470.96 1303.6 1472.92 1293.67 1510.92 1283 1508.31C1284.24 1504.46 1286 1498.33 1288.29 1489.92 1290.58 1481.5 1292.22 1475.18 1293.21 1470.96ZM1437.02 1462.95 1437.02 1470.31 1447.5 1470.31 1447.5 1462.95ZM1415.77 1462.95 1415.77 1470.31 1425.98 1470.31 1425.98 1462.95ZM1596.32 1462.67 1648 1462.67 1648 1473.57 1634.27 1473.57 1634.27 1503.28C1634.27 1508.13 1633.22 1511.59 1631.11 1513.67 1629.01 1515.75 1625.52 1516.85 1620.63 1516.98 1616.42 1517.04 1612.19 1516.85 1607.92 1516.42L1605.6 1505.05C1610.11 1505.67 1614.2 1505.98 1617.85 1505.98 1619.7 1505.98 1620.95 1505.57 1621.6 1504.73 1622.25 1503.89 1622.58 1502.35 1622.58 1500.12L1622.58 1473.57 1596.32 1473.57ZM1377.64 1462.2 1397.96 1462.2 1397.96 1494.06C1400.12 1497.97 1402.97 1500.72 1406.49 1502.3 1410.02 1503.89 1414.84 1504.87 1420.97 1505.24 1428.2 1505.55 1434.67 1505.7 1440.36 1505.7 1447.78 1505.7 1455.39 1505.52 1463.18 1505.15L1460.86 1515.67C1453.75 1516.04 1446.73 1516.23 1439.8 1516.23 1433 1516.23 1426.16 1516.04 1419.29 1515.67 1412.68 1515.36 1407.43 1514.4 1403.57 1512.78 1399.7 1511.17 1396.07 1508.31 1392.67 1504.21L1382.09 1516.88 1376.62 1506.26 1387.19 1495.27 1387.19 1473.1 1377.64 1473.1ZM1318.63 1459.69 1338.2 1459.69 1338.2 1469.1 1318.63 1469.1ZM1585.28 1454.75 1593.91 1461.37C1591.74 1464.72 1588.96 1468.45 1585.56 1472.54L1585.56 1517.53 1574.33 1517.53 1574.33 1484.84C1571.12 1488.07 1568.42 1490.61 1566.26 1492.48L1561.44 1481.77C1565.7 1477.98 1570.02 1473.61 1574.38 1468.68 1578.74 1463.74 1582.37 1459.1 1585.28 1454.75ZM1600.13 1436.22 1644.38 1436.22 1644.38 1447.11 1600.13 1447.11ZM1294.78 1434.54C1295.22 1435.53 1296.86 1439.6 1299.7 1446.74L1304.9 1459.5 1294.5 1463.23C1293.33 1459.63 1291.8 1455.31 1289.91 1450.28 1288.03 1445.25 1286.4 1441.15 1285.04 1437.99ZM1387.94 1432.68C1389.67 1434.42 1391.96 1437.01 1394.8 1440.45 1397.65 1443.9 1399.93 1446.84 1401.67 1449.26L1392.39 1456.34C1385.96 1447.95 1381.38 1442.27 1378.66 1439.29ZM1517.92 1432.02 1529.43 1432.02 1529.43 1456.43 1551.69 1456.43 1551.69 1467.51 1529.43 1467.51 1529.43 1503.47 1555.22 1503.47 1555.22 1514.27 1497.05 1514.27 1497.05 1504.21C1493.21 1507.38 1490.24 1510.02 1488.14 1512.13 1486.41 1513.75 1485.17 1514.96 1484.43 1515.76L1477.65 1507.29C1478.46 1506.48 1478.98 1505.66 1479.23 1504.82 1479.48 1503.98 1479.6 1502.75 1479.6 1501.14L1479.6 1471.61 1469.77 1471.61 1469.77 1460.62 1490.55 1460.62 1490.55 1496.02C1492.47 1494.4 1495.28 1491.92 1498.99 1488.57L1503.54 1499.09 1497.97 1503.47 1517.92 1503.47ZM1425.98 1431.93 1437.02 1431.93 1437.02 1439.29 1459.93 1439.29 1459.93 1448.7 1437.02 1448.7 1437.02 1454.01 1457.8 1454.01 1457.8 1479.34 1438.41 1479.34C1448.06 1484.56 1455.48 1488.66 1460.68 1491.64L1455.11 1501.7C1450.28 1498.16 1444.25 1493.84 1437.02 1488.75L1437.02 1502.63 1425.98 1502.63 1425.98 1488.38C1421.21 1493.47 1415.31 1497.97 1408.25 1501.89L1401.76 1492.66C1410.17 1488.69 1417.04 1484.25 1422.36 1479.34L1405.56 1479.34 1405.56 1454.01 1425.98 1454.01 1425.98 1448.7 1403.99 1448.7 1403.99 1439.29 1425.98 1439.29ZM1338.39 1431.74 1348.22 1431.74 1348.6 1438.27 1348.87 1443.39 1355.83 1443.39 1352.68 1435.38 1361.03 1434.63C1362.27 1437.37 1363.5 1440.28 1364.74 1443.39L1369.01 1443.39 1369.01 1453.63 1349.43 1453.63C1350.05 1462.76 1350.79 1470.77 1351.66 1477.67 1353.64 1472.58 1355.31 1466.37 1356.67 1459.04L1365.85 1460.62C1363.63 1473.35 1359.92 1484.34 1354.72 1493.6 1355.46 1496.58 1356.39 1499.28 1357.5 1501.7 1358.62 1504.25 1359.64 1505.46 1360.56 1505.33 1361.31 1505.21 1361.83 1503.03 1362.14 1498.81L1362.79 1489.4 1371.23 1491.36C1370.99 1494.84 1370.46 1499.03 1369.66 1503.93 1368.98 1508.84 1367.86 1512.19 1366.32 1513.99 1364.77 1515.8 1362.82 1516.7 1360.47 1516.7 1358.06 1516.7 1355.94 1515.94 1354.12 1514.41 1352.29 1512.89 1350.42 1509.99 1348.5 1505.7L1347.76 1503.93C1344.42 1508.41 1340.25 1512.94 1335.24 1517.53L1328.18 1509.62C1330.1 1508.06 1332.27 1506.14 1334.68 1503.84L1318.53 1503.84 1318.53 1474.31 1338.2 1474.31 1338.2 1500.12C1340.56 1497.45 1342.63 1494.78 1344.42 1492.11 1342.13 1482.11 1340.49 1469.28 1339.5 1453.63L1315.57 1453.63 1315.57 1481.86C1315.57 1495.89 1312.97 1507.94 1307.77 1518L1297.84 1513.9C1300.69 1509 1302.75 1504 1304.01 1498.9 1305.28 1493.81 1305.92 1488.13 1305.92 1481.86L1305.92 1443.39 1338.95 1443.39ZM1484.24 1431.47C1485.97 1433.45 1488.26 1436.17 1491.11 1439.62 1493.95 1443.06 1496.52 1446.25 1498.81 1449.16L1489.62 1456.62C1485.23 1451.15 1480.5 1445.31 1475.43 1439.1ZM1585.37 1431 1594 1438.54C1590.85 1442.46 1586.92 1446.71 1582.22 1451.31 1577.52 1455.9 1573.06 1459.81 1568.86 1463.04L1562.83 1452.7C1566.35 1450.28 1570.27 1446.97 1574.56 1442.78 1578.86 1438.59 1582.47 1434.66 1585.37 1431Z" fill="#7F7F7F" fill-rule="evenodd"/><path d="M2113.4 1474.15 2174.41 1474.15 2174.41 1490.9 2164.02 1490.9 2164.02 1482.48 2123.42 1482.48 2123.42 1487.48 2163.84 1487.48 2163.84 1496.55 2150.49 1496.55 2150.49 1505.52C2150.49 1508.42 2150.07 1510.66 2149.24 1512.23 2148.4 1513.81 2146.99 1514.93 2145.02 1515.61 2143.04 1516.29 2140.23 1516.63 2136.58 1516.63 2133.92 1516.63 2130.99 1516.48 2127.77 1516.17L2125.83 1506.17C2129.16 1506.6 2132.53 1506.88 2135.93 1507 2137.35 1507 2138.34 1506.68 2138.9 1506.03 2139.45 1505.38 2139.73 1504.35 2139.73 1502.93L2139.73 1496.55 2123.32 1496.55 2123.32 1490.81 2113.4 1490.81ZM2401.36 1462.21 2453 1462.21 2453 1473.04 2439.28 1473.04 2439.28 1502.56C2439.28 1507.37 2438.23 1510.81 2436.13 1512.88 2434.03 1514.95 2430.53 1516.04 2425.65 1516.17 2421.45 1516.23 2417.21 1516.04 2412.95 1515.61L2410.63 1504.32C2415.14 1504.94 2419.22 1505.25 2422.87 1505.25 2424.72 1505.25 2425.97 1504.83 2426.62 1504 2427.27 1503.16 2427.6 1501.64 2427.6 1499.41L2427.6 1473.04 2401.36 1473.04ZM2130.18 1458.41 2130.18 1462.76 2157.53 1462.76 2157.53 1458.41ZM2390.33 1454.34 2398.95 1460.91C2396.79 1464.24 2394.01 1467.95 2390.61 1472.02L2390.61 1516.72 2379.39 1516.72 2379.39 1484.24C2376.17 1487.44 2373.49 1489.97 2371.32 1491.83L2366.5 1481.18C2370.77 1477.42 2375.08 1473.08 2379.43 1468.18 2383.79 1463.27 2387.42 1458.66 2390.33 1454.34ZM2119.71 1451.1 2167.92 1451.1 2167.92 1470.08 2119.71 1470.08ZM2405.16 1435.92 2449.38 1435.92 2449.38 1446.75 2405.16 1446.75ZM2323.02 1431.76 2334.52 1431.76 2334.52 1456.01 2356.77 1456.01 2356.77 1467.02 2334.52 1467.02 2334.52 1502.75 2360.29 1502.75 2360.29 1513.48 2302.16 1513.48 2302.16 1503.49C2298.33 1506.63 2295.36 1509.26 2293.26 1511.35 2291.53 1512.96 2290.29 1514.16 2289.55 1514.96L2282.78 1506.54C2283.59 1505.74 2284.11 1504.92 2284.36 1504.09 2284.61 1503.26 2284.73 1502.04 2284.73 1500.43L2284.73 1471.09 2274.9 1471.09 2274.9 1460.17 2295.67 1460.17 2295.67 1495.34C2297.59 1493.74 2300.4 1491.27 2304.11 1487.94L2308.65 1498.4 2303.09 1502.75 2323.02 1502.75ZM2105.61 1431.39 2116.46 1433.61C2113.5 1443.24 2110.84 1450.79 2108.49 1456.28L2108.49 1516.72 2098.57 1516.72 2098.57 1474.61C2097.09 1476.83 2095.05 1479.67 2092.45 1483.13L2088 1471.09C2091.21 1466.16 2094.46 1460.09 2097.73 1452.91 2101.01 1445.72 2103.64 1438.55 2105.61 1431.39ZM2289.37 1431.2C2291.1 1433.18 2293.38 1435.88 2296.23 1439.3 2299.07 1442.73 2301.64 1445.89 2303.92 1448.79L2294.74 1456.19C2290.36 1450.76 2285.63 1444.96 2280.56 1438.79ZM2390.42 1430.74 2399.04 1438.24C2395.89 1442.12 2391.97 1446.35 2387.27 1450.92 2382.57 1455.48 2378.12 1459.37 2373.92 1462.58L2367.89 1452.31C2371.42 1449.9 2375.32 1446.61 2379.62 1442.45 2383.92 1438.28 2387.52 1434.38 2390.42 1430.74ZM2212.97 1430.46 2225.21 1432.68C2224.41 1434.78 2223.02 1438.05 2221.04 1442.49L2263.41 1442.49 2263.41 1453.05 2215.75 1453.05C2212.42 1459.4 2209.14 1464.92 2205.93 1469.61L2221.13 1469.61 2221.13 1456.66 2232.63 1456.66 2232.63 1469.61 2258.03 1469.61 2258.03 1480.07 2232.63 1480.07 2232.63 1490.99 2266 1490.99 2266 1501.73 2232.63 1501.73 2232.63 1517 2221.13 1517 2221.13 1501.73 2184.42 1501.73 2184.42 1490.99 2221.13 1490.99 2221.13 1480.07 2192.11 1480.07 2192.11 1469.61C2195.27 1465.36 2198.73 1459.83 2202.5 1453.05L2186.09 1453.05 2186.09 1442.49 2207.87 1442.49C2210.1 1437.81 2211.8 1433.79 2212.97 1430.46ZM2146.96 1430 2150.39 1438.98 2173.11 1438.98 2173.11 1447.59 2116.46 1447.59 2116.46 1438.98 2138.06 1438.98C2137.63 1437.68 2136.8 1435.49 2135.56 1432.41Z" fill="#7F7F7F" fill-rule="evenodd"/><g clip-path="url(#clip1)"><g clip-path="url(#clip2)"><g><g><path d="M0 0 227.762 420.498C235.861 435.684 230.116 454.56 214.93 462.659 210.456 465.046 205.467 466.304 200.396 466.326L-255.127 466.326C-272.338 466.289-286.26 452.308-286.224 435.098-286.213 430.005-284.955 424.992-282.558 420.498L-54.7965 0C-46.5964-15.1317-27.6823-20.7507-12.5509-12.5507-7.23907-9.67236-2.87856-5.31185 0 0" fill="#FFFFFF" transform="matrix(1 0 0 -1.00007 1493.38 1354.58)"/></g><g><path d="M0 0C-16.0535 0.0318419-29.0933-12.9563-29.1251-29.0098-29.1348-33.8774-27.9219-38.6699-25.5977-42.9466L202.164-463.445C209.804-477.564 227.443-482.817 241.562-475.177 246.53-472.489 250.606-468.412 253.294-463.445L255.127-464.427 253.425-463.445 481.056-42.9466C488.721-28.8414 483.5-11.1927 469.395-3.52766 465.137-1.21391 460.369-0.001305 455.523-5.0999e-15ZM227.762-482.823C215.518-482.949 204.227-476.23 198.498-465.409L-29.264-44.9109C-37.9777-28.7417-31.934-8.57017-15.7649 0.14355-10.9202 2.75458-5.50343 4.12222 0 4.12431L455.523 4.12431C473.855 4.14179 488.729-10.7046 488.747-29.0361 488.752-34.5808 487.368-40.0386 484.722-44.9109L256.96-465.409C251.241-476.209 239.982-482.924 227.762-482.823" fill="#FA0F0C" transform="matrix(1 0 0 -1.00007 1238.25 890.124)"/></g><g><path d="M0 0-180.429-333.165C-181.488-335.099-183.915-335.808-185.85-334.749-186.518-334.382-187.067-333.833-187.434-333.165L-367.731 0C-368.744 1.95958-367.976 4.3686-366.016 5.38102-365.454 5.67177-364.829 5.82446-364.196 5.82654L-3.46972 5.82654C-1.3003 5.84377 0.472147 4.09925 0.489112 1.92983 0.494593 1.25514 0.325988 0.590641 0 0M42.292 51.5886-410.089 51.5886C-421.695 51.5405-431.065 42.0931-431.017 30.487-431.003 27.1183-430.18 23.8023-428.616 20.8186L-202.426-396.995C-196.914-407.209-184.166-411.022-173.952-405.511-170.343-403.564-167.383-400.604-165.436-396.995L60.7538 20.8186C66.1416 31.0988 62.1755 43.7998 51.8952 49.1876 48.9313 50.7411 45.6386 51.5643 42.292 51.5886" fill="#FA0F0C" transform="matrix(1 0 0 -1.00007 1649.91 949.834)"/></g><g><path d="M0 0-3.07718 0C-3.8513-0.157643-4.40227-0.84642-4.38635-1.63673L-4.38635-11.3258C-4.38635-12.635-3.86253-13.2898-2.81514-13.2898L-0.261782-13.2898C0.529567-13.3702 1.23609-12.7939 1.31648-12.0023 1.32822-11.8862 1.32588-11.769 1.30943-11.6531L1.30943-1.96376C1.1129-0.654586 0.720096-0.327293 0-0.327293ZM-4.90991 5.82654 1.63673 5.82654C4.38635 5.82654 5.89205 3.73177 6.02308 0.327554L6.02308-12.766C6.02308-16.825 4.32084-18.8546 1.37494-18.8546L-4.25533-18.8546C-7.72531-18.8546-9.29653-16.825-9.16551-12.3077L-9.16551 0.785868C-9.03448 3.86279-7.6598 5.56476-4.90991 5.82654M-7.98709 17.0871 5.10645 17.0871C6.35037 17.0871 7.00495 15.8432 7.20149 13.8794 7.39776 11.9151 6.35037 10.9988 5.10645 10.9988L-7.98709 10.9988C-9.68933 10.9988-10.6057 11.9151-10.6057 13.8794-10.8255 15.4183-9.75589 16.8441-8.21677 17.0641-8.14056 17.0748-8.06383 17.0826-7.98709 17.0871M12.9625 37.7749 12.9625 30.3772 18.3963 30.3772C17.8638 31.0581 17.4235 31.8067 17.0871 32.603 17.0871 33.2578 16.3667 34.0434 16.0397 34.8943 15.2912 36.2538 15.7544 37.9615 17.0871 38.7568 18.2655 39.4116 19.3784 38.7568 20.4258 37.4476 23.095 32.4331 25.4349 27.2501 27.431 21.9318 28.0511 20.4576 27.6244 18.751 26.3834 17.7419 25.0087 16.8908 23.8955 17.3491 23.0444 19.0511 22.1421 20.5701 21.4382 22.1982 20.9496 23.8958L13.2243 23.8958C13.2243 18.069 13.2243 12.8318 13.7481 8.0526 14.272 3.27345 14.5992-1.30943 15.2538-6.48113 18.059-1.94183 20.2598 2.94381 21.8007 8.0526 22.4553 9.55831 23.6337 9.75484 25.1394 8.70719 26.3614 7.68616 26.7848 5.99332 26.1868 4.51737 23.8676-2.32602 20.8395-8.90868 17.1523-15.1228 17.5297-19.9221 19.0323-24.5647 21.5387-28.6747 22.259-28.6747 22.8481-25.4667 23.3719-18.9853 23.3719-17.9382 23.3719-16.7595 23.8955-15.4501 23.8822-14.2208 24.868-13.2136 26.0973-13.2003 26.2147-13.199 26.3325-13.2071 26.4489-13.2243 27.8429-13.6753 28.7921-14.9673 28.8057-16.4322 27.8891-30.4424 25.6633-37.8399 22.259-38.6913 18.9856-38.102 15.7121-32.1444 13.2243-20.9496 8.92643-26.8341 3.68374-31.9666-2.29131-36.1379-3.86253-36.989-5.17196-36.1379-6.1541-34.5012-7.06968-33.2004-6.75727-31.4034-5.45645-30.4878-5.3651-30.4234-5.27009-30.3646-5.17196-30.3114 1.4582-25.6727 7.09056-19.7514 11.3913-12.897 9.45391-0.704176 8.42557 11.616 8.31439 23.9613L-10.3439 23.9613C-11.5223 23.9613-12.1114 23.1757-12.1114 21.6697L-12.1114-1.57121C-12.0678-12.6316-14.1803-23.5943-18.331-33.8466-18.8496-35.001-20.206-35.5162-21.3602-34.9976-21.4674-34.9493-21.5711-34.8927-21.6697-34.8285-22.9379-34.4025-23.6202-33.0289-23.1939-31.7607-23.1391-31.5976-23.0671-31.4413-22.9791-31.2933-19.3703-21.8167-17.4645-11.7765-17.3489-1.63673L-17.3489 23.5685C-17.5739 26.9458-15.0291 29.8706-11.6531 30.1154L7.98709 30.1154 7.98709 37.5131C9.4928 41.0481 11.195 41.0481 12.9625 37.7749M-27.3655 33.2578C-24.3389 27.1617-21.9265 20.78-20.164 14.2067-19.6887 12.5869-20.1703 10.8372-21.4079 9.68933-22.9791 9.03448-24.0265 9.68933-24.5504 11.5878-26.4799 17.8792-28.7973 24.0451-31.4898 30.0499-32.4195 31.3731-32.1929 33.1858-30.9662 34.2397-29.5913 35.0908-28.4129 34.7632-27.3655 33.2578M-19.6402-3.60048C-21.1636-14.6783-24.3878-25.4545-29.1985-35.5486-30.2461-37.0546-31.4243-37.3819-32.7992-36.5307-33.998-35.4619-34.2219-33.6718-33.3231-32.3409-28.8707-22.6057-25.913-12.2544-24.5504-1.63673-24.1576 0.524086-23.1754 1.3752-21.4079 0.98214-19.6402 0.589336-19.4439-1.17841-19.6402-3.60048" transform="matrix(1 0 0 -1.00007 1358.45 1472.11)"/></g><g><path d="M0 0-10.6057 0-10.6057-8.70693 0.261782-8.70693C1.50596-8.70693 2.09504-8.11812 2.09504-6.15384L2.09504-2.9459C2.09504-0.98214 1.37494 0 0 0M-27.6273-2.6186-27.6273-5.82654C-27.6273-7.98709-27.0379-8.96897-25.336-8.70693L-15.2538-8.70693-15.2538 0-25.5977 0C-26.8565-0.1305-27.7711-1.25671-27.6403-2.51577-27.6367-2.55022-27.6325-2.58415-27.6273-2.6186M-10.6057 21.0154-10.6057 17.0871 7.52878 17.0871C8.70719 17.0871 9.42729 15.9087 9.55831 14.2067 9.68933 12.5042 8.70719 11.6531 7.52878 11.6531L-10.6057 11.6531-10.6057 5.82654 2.48784 5.82654C5.23747 5.82654 6.67766 3.73177 6.87419 0.327554L6.87419-9.36178C6.87419-13.4863 5.56476-15.3193 2.48784-14.861L-10.6057-14.861-10.6057-18.3963C-10.0117-18.1916-9.36647-18.1916-8.7727-18.3963-2.79269-22.2095 2.9164-26.4314 8.31439-31.0317 9.64235-32.2712 10.0367-34.2172 9.29653-35.8762 8.31439-37.5784 7.07047-37.8402 5.69578-36.5307 0.594556-32.005-4.85615-27.8896-10.6057-24.2231L-10.6057-38.102C-10.6057-40.2625-11.5221-41.3754-12.897-41.3754-14.272-41.3754-15.2538-40.2625-15.2538-38.102L-15.2538-21.4077C-19.3275-26.8578-24.1043-31.7451-29.4603-35.9417-31.1625-37.2511-32.5375-37.1201-33.5848-35.6144-34.5017-33.8051-33.9427-31.5973-32.2754-30.4424-26.3708-26.0336-21.1433-20.7844-16.7595-14.861L-27.6273-14.861C-30.9007-14.861-32.4719-13.2243-32.2754-9.36178L-32.2754 0.327293C-32.2754 3.73177-30.7697 5.56476-27.6273 5.82654L-15.2538 5.82654-15.2538 11.3261-31.4898 11.3261C-32.93 11.3261-33.6504 12.1769-33.8466 13.8791-34.0432 15.5814-32.93 16.5633-31.4898 16.7598L-15.2538 16.7598-15.2538 21.0154C-15.3624 22.3123-14.3988 23.4518-13.1016 23.5604-13.0338 23.5659-12.9654 23.5687-12.897 23.5685-11.5221 23.6995-10.7367 22.7174-10.6057 21.0154M-44.1905 20.3605C-40.9145 16.9895-37.9762 13.3055-35.4178 9.36178-34.5526 7.86286-34.5526 6.01629-35.4178 4.51737-36.0907 3.57595-37.3991 3.35801-38.3405 4.03061-38.6326 4.23941-38.8662 4.51972-39.0186 4.84467-41.5957 8.70484-44.4395 12.38-47.5292 15.8432-48.6601 17.0111-48.6601 18.8653-47.5292 20.0332-46.6544 20.9608-45.2291 21.1005-44.1905 20.3605M-12.6352-43.6015 7.52878-43.6015C9.23102-43.6015 10.2784-44.5833 10.6057-46.5474 10.9333-48.5114 9.4928-49.8863 7.79082-50.0826L-11.8496-50.0826C-17.5297-50.4143-23.2237-49.7496-28.6747-48.1186-32.7457-46.6862-36.3924-44.2553-39.2804-41.0481-41.6745-44.1689-44.6543-46.7932-48.0531-48.7732-49.6243-49.6243-50.9337-48.7732-51.9159-47.2022-52.8977-45.6307-51.9159-43.9288-50.6719-43.2742-45.4992-41.521-42.1803-36.4757-42.6193-31.0317L-42.6193-12.3077C-42.4233-11.0575-43.2778-9.88534-44.528-9.68907-44.7632-9.65201-45.0028-9.65201-45.2382-9.68907L-49.3625-9.68907C-50.7372-9.68907-51.523-8.64142-51.6538-6.48113-51.7848-4.32084-50.9337-3.46972-49.3625-3.20794L-41.9647-3.20794C-39.4114-3.20794-38.0367-5.49925-37.8402-9.36178L-37.8402-29.3948C-36.88-39.5205-28.4784-44.2558-12.6352-43.6015" transform="matrix(1 0 0 -1.00007 1448.53 1457.57)"/></g><g><path d="M0 0 0-22.9136 14.992-22.9136C16.5633-22.9136 17.4146-24.2231 17.5454-26.1216 17.6764-28.0198 16.5633-29.3948 14.992-29.3948L-0.261782-29.3948-0.261782-64.6163 18.5928-64.6163C19.9677-64.6163 20.7533-65.7947 20.9499-67.497 21.1461-69.1992 19.9677-70.5084 18.5928-70.7047L-21.4732-70.7047C-22.9791-70.7047-23.7647-69.461-23.7647-67.497-23.9519-66.0993-22.9703-64.8147-21.5724-64.6275-21.5395-64.6234-21.5063-64.6195-21.4732-64.6163L-5.43374-64.6163-5.43374 0.000260999C-5.61487 1.43497-4.59828 2.74519-3.16331 2.92606-3.06961 2.93781-2.97487 2.94459-2.88039 2.94616-1.36711 2.80861-0.221066 1.51901-0.261782 0.000260999ZM-32.7337-0.589075C-29.4451-3.62188-26.6021-7.10439-24.2886-10.933-23.4388-12.3189-23.4388-14.0645-24.2886-15.4501-25.6633-16.7595-26.7762-16.6943-27.6928-15.4501-29.8364-12.3246-32.2459-9.38944-34.894-6.67766-35.202-6.29373-35.4656-5.87666-35.6796-5.43374-36.8275-4.46883-37.1537-2.83784-36.4655-1.5057-36.1283-0.361223-34.9269 0.293363-33.7827-0.0438478-33.4356-0.145898-33.12-0.333296-32.8647-0.589075ZM-39.2804-23.2409-30.8352-23.2409C-28.4129-23.2409-27.2345-24.8774-27.2345-28.0853L-27.2345-57.1531-27.2345-58.7898C-27.2345-58.7898-26.7106-58.7898-26.1871-57.8076-24.8236-54.8638-23.6217-51.8477-22.5863-48.7732-22.4517-47.5512-21.3526-46.6698-20.1303-46.8039-19.7931-46.841-19.4687-46.9548-19.1819-47.1367-17.8072-48.0476-17.2831-49.8127-17.9382-51.3263-19.4134-56.2544-21.6204-60.9328-24.4848-65.2057-26.3834-67.1694-28.2164-67.6932-29.9186-66.8424-31.6208-65.9913-32.2754-63.9615-32.2754-60.6883L-32.2754-31.9481C-32.2754-30.4205-32.8647-29.5694-34.0432-29.3948L-39.2151-29.3948C-40.7863-29.3948-41.5717-28.4126-41.5717-26.4489-41.6372-24.5504-40.8518-23.6992-39.2804-23.2409" transform="matrix(1 0 0 -1.00007 1509.42 1435.64)"/></g><g><path d="M0 0 31.0317 0C32.7157-0.139113 33.9883-1.58531 33.9121-3.27345 33.9121-5.36823 32.7992-6.48139 31.0317-6.48139L0-6.48139C-1.76749-6.48139-2.68411-5.36823-2.88065-3.27345-2.95686-1.58531-1.68423-0.139113 0 0M-2.6186-19.0511 34.6322-19.0511C36.1382-19.0511 36.9238-20.3605 36.9238-22.3246 36.9238-24.2886 36.1379-25.5325 34.6322-25.5325L27.1037-25.5325 27.1037-59.7722C28.1508-71.6435 20.7533-74.5458 4.90991-68.4791 3.18836-67.9281 2.23911-66.0855 2.79008-64.3637 2.79817-64.3389 2.80652-64.3141 2.81514-64.2893 3.28807-62.7324 4.9334-61.8537 6.49026-62.3268 6.55343-62.3459 6.61607-62.3673 6.67766-62.3908 17.5454-66.4498 22.5208-65.2712 21.6697-58.79L21.6697-25.5325-2.88065-25.5325C-4.58288-25.5325-5.43374-24.4851-5.43374-22.3246-5.51204-20.6594-4.27673-19.2228-2.6186-19.0511M-14.272 1.30943C-13.3553 3.20794-12.2424 3.86253-10.8677 3.20794-9.38605 2.07468-8.84917 0.0884787-9.55831-1.63673-12.3364-8.03303-15.643-14.1863-19.4439-20.0332-20.8189-21.5387-22.0625-21.6697-23.3064-20.0332-24.3979-18.6024-24.3979-16.6191-23.3064-15.1883-19.6258-10.0832-16.5912-4.54164-14.272 1.30943M-11.9151-69.134C-11.9151-71.2943-12.9625-72.4727-14.4685-72.7347-15.9739-72.9965-17.0871-71.2943-17.0871-69.134L-17.0871-38.1675C-17.5647-38.7712-18.0021-39.4054-18.3963-40.0662L-20.164-42.6848C-21.5387-44.3871-22.9136-44.5833-24.3541-43.2742-25.4273-41.7413-25.4273-39.7006-24.3541-38.1675-20.1718-32.2209-16.7003-25.805-14.0102-19.0511-13.1591-17.1526-11.9804-16.367-10.6057-16.8253-9.07207-17.9181-8.45611-19.9001-9.09999-21.6697-9.84254-23.658-10.695-25.6032-11.6531-27.4965L-12.1769-28.4129Z" transform="matrix(1 0 0 -1.00007 1565.39 1437.54)"/></g><g><path d="M0 0C-0.321812-0.231245-0.571588-0.549142-0.720096-0.916629-7.60238 7.29231-15.1575 14.913-23.3064 21.8662-18.6653 25.6878-14.2905 29.8218-10.2129 34.2397-8.83821 32.8647-7.46327 31.4898-6.02308 30.2461L11.2605 13.0935C10.2847 11.669 9.21275 10.3131 8.0526 9.03448 2.68411 3.05526 0 0.0435868 0 0M3.92804-102.26 83.6019-101.671C87.9666-101.671 92.3313-101.867 96.6955-102.26L96.6955-84.3878 56.1712-84.8461 56.1712-21.2117 91.7856-21.2117 91.7856-3.60074 56.1712-3.60074 56.6295 34.436 38.6258 34.436 39.0186-84.5185 6.28486-84.0602 24.6159-68.8719C23.1099-59.3136 22.1935-52.6359 21.8007-48.7079 15.3407-55.5411 8.18832-61.6843 0.458314-67.0387L0.851118-5.76103-39.6732-5.76103-39.6732-23.0444C-33.1265-23.0444-25.4015-22.5863-16.8906-22.5863-16.8906-55.4075-17.2178-73.1492-17.8727-75.8114-18.7029-77.9701-19.8743-79.9816-21.3424-81.7689-18.1345-88.3156-14.7955-95.5826-12.2424-102.653-3.99355-94.0113 0.851118-89.5597 1.833-88.3156 2.61364-87.7797 3.31808-87.1411 3.92804-86.4173L3.92804-102.326Z" fill-rule="evenodd" transform="matrix(1 0 0 -1.00007 1429.88 1025.65)"/></g></g></g></g><g clip-path="url(#clip3)"><g clip-path="url(#clip4)"><g><path d="M0 0 199.119 0 342.927-138.102 342.927-347.294 203.253-483.94 2.79469-483.94-141.013-345.896-141.013-139.5Z" fill="#FFFFFF" fill-rule="evenodd" transform="matrix(1 0 0 -1.00022 2171.04 889.145)"/><path d="M0 0-142.702-141.305-142.702-350.612 2.85275-490.345 205.931-490.345 347.294-351.835 347.294-139.733 201.739 0ZM-136.472-347.759-136.472-143.983 2.85275-6.40424 199.119-6.40424 341.006-142.585 341.006-349.331 203.369-483.882 5.41445-483.882Z" fill="#FF0001" transform="matrix(1 0 0 -1.00022 2169.7 886)"/><path d="M0 0 175.655 0 302.521-121.8 302.521-306.363 179.323-426.941 2.44532-426.941-124.42-305.141-124.42-123.081Z" fill="#FF0001" fill-rule="evenodd" transform="matrix(1 0 0 -1.00022 2182.92 917.68)"/><path d="M0 0 174.258 0 295.592 118.656 295.592 300.483 170.648 420.42-2.44532 420.42-124.711 299.261-124.711 119.937ZM176.936-6.46255-2.44532-6.46255-131.349 117.201-131.349 301.997-5.06533 426.883 173.21 426.883 301.997 303.278 301.997 115.92Z" fill="#FF0001" transform="matrix(1 0 0 -1.00022 2186.65 1341.45)"/><g><path d="M0 0-0.873417-33.1864 29.5766-33.1864C27.5973 28.9168 27.4419 85.8967 29.1109 137.753L23.2887 137.753C30.353 152.774 37.65 170.396 45.18 190.618 45.9037 193.025 46.8391 195.363 47.9747 197.605 36.9028 201.172 26.0374 205.351 15.4287 210.123 11.2273 181.71 1.32519 154.44-13.6821 129.951-18.5689 121.725-24.7857 114.367-32.0802 108.176-24.7808 97.1661-19.2414 85.0857-15.6617 72.3699-9.93417 79.2362-4.71915 86.5141-0.0583095 94.1448ZM87.3329 122.732 148 122.732 148 113.649 87.3329 113.649ZM60.609 143.459 60.609 94.9016C101.946 95.9497 140.062 95.9497 174.957 94.9016 174.433 114.639 174.433 130.941 174.957 143.691ZM65.1503 176.121 42.2109 177.169 42.2109 148.932C55.4854 149.397 100.996 149.727 178.741 149.921 185.32 149.921 192.132 149.572 199.177 148.932L199.177 177.169 129.893 176.121C133.91 179.789 138.103 183.224 142.469 186.485 133.91 195.276 124.595 204.359 114.522 213.5 107.144 206.678 99.131 200.576 90.5933 195.276 97.9714 189.376 104.935 182.976 111.437 176.121ZM37.6694 32.4877 37.1456 88.206 205.174 88.206C204.708 75.572 204.708 56.5915 205.174 31.1488L176.063 31.1488 176.529 61.4822 65.9071 61.4822C65.9071 54.6119 65.9071 44.889 66.6641 32.3713ZM108.176 27.306C108.518 16.8404 108.284 6.36431 107.478-4.07554 106.313-6.05512 103.344-7.16128 98.6277-7.16128 97.638-7.16128 93.2133-6.46279 85.295-5.06533 89.3022-15.2602 92.0966-25.8906 93.6207-36.7381 111.437-36.1558 123.314-34.1762 129.427-30.9158 135.541-27.6556 137.811-21.4838 137.928-11.9939L137.928 27.306 171.696 26.7819 171.696 54.1462C138.471 53.176 104.547 53.176 69.9245 54.1462L69.9245 26.7819Z" fill="#FFFFFF" fill-rule="evenodd" transform="matrix(1 0 0 -1.00022 2189.21 1219.68)"/></g><g><path d="M0 0C-0.373866 0.464516-0.919966 0.758513-1.51384 0.814862-2.26035 0.761698-2.94365 0.377296-3.3768-0.232993-3.8766-0.888117-4.34332-1.56823-4.77402-2.27088L-8.26745-8.09301C-11.1204-12.5179-13.7405-16.5351-16.2438-20.2032-16.2911-20.4531-16.2911-20.7099-16.2438-20.96-16.2556-21.6698-15.9582-22.3499-15.429-22.823-14.8995-23.2902-14.2133-23.5399-13.5075-23.5217-12.9371-23.5455-12.3775-23.3593-11.9356-22.9977-11.4541-22.6461-11.1219-22.1267-11.0038-21.5424L-8.20938-17.9324-8.20938-47.0435C-8.21379-48.0725-7.38325-48.9101-6.35451-48.9145-6.29326-48.9148-6.23225-48.9123-6.17149-48.9064-5.58742-48.9028-5.01804-48.72-4.54128-48.3824-4.04957-48.0683-3.68011-47.5959-3.49342-47.0435L-3.49342-10.7711C-3.03675-9.6583-2.45022-8.60285-1.74659-7.62727-0.553205-6.08819 0.210208-4.25977 0.465741-2.32895 0.449326-1.53124 0.291547-0.742588 0 0M-1.33916 16.4768C-2.24712 13.8135-3.31653 11.2082-4.54128 8.67488-5.88043 5.9385-8.09276 2.03765-11.2368-2.96937-11.5828-3.54879-12.1933-3.91947-12.8673-3.95916-13.5552-3.96382-14.2047-3.6392-14.6136-3.08599-15.1161-2.55092-15.3881-1.83993-15.3704-1.10641-15.3841-0.474316-15.1783 0.142834-14.7883 0.640424-12.6696 4.1314-10.7262 7.72625-8.96618 11.4115-8.32576 12.7507-7.51065 14.4389-6.57917 16.4768L-6.17149 17.8741C-5.58276 18.8261-4.55402 19.417-3.43511 19.446-2.83021 19.4736-2.24785 19.2149-1.86296 18.7475-1.45504 18.0654-1.31025 17.2579-1.45553 16.4768ZM39.4162-6.17149 31.8473-6.17149 31.8473-41.1047C31.3653-43.7007 29.7978-45.9672 27.539-47.3345 26.5222-47.8226 25.4455-48.1751 24.3368-48.3824L20.3777-48.3824 14.5553-47.0435C13.3661-46.7759 12.2394-46.2815 11.2368-45.5877 10.152-44.9691 9.43535-43.8617 9.3153-42.6186 9.35034-41.8899 9.66271-41.2025 10.1887-40.6971 10.801-40.4587 11.4532-40.3399 12.1102-40.3479 13.4849-40.479 14.8255-40.8534 16.0692-41.4541 17.2461-42.0671 18.5321-42.4429 19.8536-42.5603L22.8813-42.5603C24.1739-42.5546 25.3685-41.8691 26.0254-40.7556 26.3627-40.1857 26.6362-39.5806 26.8402-38.9505L26.8402-6.34618 4.01723-6.34618 3.20212-5.88043C2.76137-5.204 2.51907-4.41731 2.50363-3.6098 2.49432-2.87039 2.74103-2.1501 3.20212-1.57215 3.20212-1.57215 3.6098-1.16447 4.01723-0.873417L39.2998-0.873417C39.8499-0.869252 40.3514-1.18848 40.5807-1.68877 40.9242-2.26819 41.0864-2.93728 41.0464-3.6098 41.0817-4.29358 40.9411-4.97517 40.639-5.58938 40.3636-6.06663 39.8506-6.35647 39.2998-6.34618ZM36.6218 10.5964 5.82237 10.5964C5.22139 11.0202 4.82131 11.6732 4.71596 12.401 4.6601 13.0013 4.6601 13.6057 4.71596 14.2059L5.9385 16.0692 36.4471 16.0692C37.9403 15.0066 38.2897 12.9347 37.2272 11.4411 37.1321 11.3071 37.0267 11.1805 36.9126 11.0619 36.7734 10.8916 36.6171 10.7356 36.4471 10.5962ZM-56.1841-31.9639C-56.1454-31.4599-56.1454-30.954-56.1841-30.45-56.5335-29.4602-57.1156-28.9362-57.8726-28.9362-58.2761-28.8563-58.6916-28.8563-59.0952-28.9362L-66.0234-36.2141-66.0234-6.28811C-65.9948-5.22066-66.3689-4.18113-67.0718-3.3768-67.6872-2.6303-68.6074-2.20253-69.5749-2.21257L-78.0756-2.21257C-78.8638-2.18489-79.6189-2.52985-80.1133-3.14406-80.5746-3.72225-80.8216-4.4423-80.812-5.1817-80.8412-5.816-80.6334-6.43854-80.2299-6.92853-79.7732-7.44033-79.1098-7.71865-78.4247-7.68533L-71.9622-7.68533-71.3218-8.0347C-70.8737-8.41665-70.5495-8.92355-70.3903-9.49023L-70.3903-40.7556C-70.3704-41.5906-70.062-42.3929-69.5169-43.026-69.0837-43.6738-68.3732-44.0827-67.5954-44.1324-67.2176-44.1116-66.8626-43.9445-66.6058-43.6664-65.1503-42.0945-63.9277-40.8717-63.0541-39.882-60.4343-37.0875-58.222-34.4675-56.3005-32.1386ZM-63.5201 9.25724C-62.495 8.71285-61.8808 7.62114-61.9482 6.46255-61.9479 5.75181-62.1721 5.05896-62.5886 4.48297-62.9389 3.92388-63.559 3.59142-64.2188 3.60955-64.5263 3.5483-64.8428 3.5483-65.1503 3.60955L-75.6886 14.6719C-76.2161 15.0174-76.5253 15.6135-76.5037 16.2438-76.502 16.9801-76.1837 17.6798-75.6301 18.1651-75.1364 18.683-74.407 18.904-73.7088 18.7475-71.6753 17.6009-69.8457 16.1253-68.2943 14.3806-65.4413 11.2951-63.8111 9.60636-63.4037 9.25699ZM-27.0732-45.2383-58.9205-45.2383C-59.4311-45.1675-59.8814-44.8677-60.143-44.4232-60.4422-43.9558-60.5847-43.4053-60.5507-42.8513-60.7249-41.5947-60.0656-40.37-58.9205-39.8239L-45.8204-39.8239-45.8204 16.9423C-45.7592 17.4926-45.513 18.0059-45.122 18.3981-44.7231 18.7083-44.2299 18.8727-43.7247 18.8638-42.4836 18.9589-41.3539 18.1484-41.0464 16.9423L-41.0464 1.57191-29.4022 1.57191C-28.8838 1.48126-28.4229 1.18799-28.1211 0.756798-27.8702 0.250878-27.7502-0.309432-27.7717-0.873417-27.5975-2.13001-28.2571-3.35475-29.4022-3.9011L-40.7554-3.9011-40.7554-39.8239-26.8985-39.8239C-26.3711-40.0625-25.9401-40.4731-25.6758-40.9884-25.3847-41.5881-25.2262-42.2432-25.21-42.9096-25.21-44.2485-25.7921-45.0639-26.8985-45.2383ZM-93.155-32.8373-115.454-32.8373-115.454-48.266C-115.641-48.8187-116.01-49.2911-116.502-49.6052-116.982-49.9362-117.549-50.1182-118.132-50.129-119.189-50.226-120.124-49.4479-120.221-48.3912-120.225-48.3496-120.227-48.3079-120.228-48.266L-120.228-32.8373-145.555-32.8373C-146.109-32.8606-146.628-32.5673-146.894-32.0802-147.212-31.4905-147.372-30.8288-147.359-30.1592-147.395-29.4754-147.254-28.7938-146.952-28.1796-146.677-27.6727-146.129-27.3758-145.555-27.4228L-120.228-27.4228-120.228-17.4666-139.732-17.4666C-140.731-16.9979-141.318-15.9422-141.188-14.8469-141.27-14.2868-141.27-13.7182-141.188-13.1583L-140.839-12.4594C-138.839-9.30893-137.143-5.97525-135.774-2.50363-135.017-0.757043-133.91 1.80465-132.513 5.18146L-144.798 5.18146C-145.63 5.80351-146.142 6.7639-146.195 7.80171-146.163 8.66214-145.834 9.48509-145.264 10.1307-145.124 10.3002-144.968 10.4565-144.798 10.5964L-130.533 10.5964-128.146 19.6787C-127.558 20.6308-126.529 21.2217-125.41 21.2509-124.793 21.2746-124.204 20.9912-123.838 20.4938-123.378 19.9222-123.206 19.1711-123.372 18.4562L-125.352 10.5964-95.2509 10.5964C-94.6399 10.7458-93.9988 10.5168-93.6207 10.014-93.2488 9.42286-93.066 8.73245-93.0967 8.03445-93.0918 7.38423-93.252 6.74283-93.5627 6.17125-93.7932 5.64499-94.2758 5.27211-94.8435 5.1817L-126.924 5.1817-133.91-11.6445-133.503-12.1102-120.17-12.1102-120.17-2.15426C-120.123-1.59984-119.875-1.08191-119.471-0.698978-119.05-0.388321-118.539-0.224663-118.016-0.232993-116.789-0.142834-115.679-0.957206-115.396-2.15426L-115.396-12.1102-98.395-12.1102C-97.8065-12.0821-97.2415-12.343-96.8812-12.809-96.4647-13.3372-96.2574-14.0006-96.299-14.6722-96.1763-15.8901-96.8606-17.0464-97.9876-17.5249L-115.454-17.5249-115.454-27.4809-93.155-27.4809C-92.5881-27.4684-92.0652-27.7864-91.8158-28.296-91.4983-28.8857-91.3378-29.5477-91.3501-30.2173-91.3057-30.8832-91.4469-31.5484-91.7575-32.1388-92.0324-32.6455-92.5805-32.9421-93.155-32.8956ZM-166.456-2.21257C-166.492-1.24434-166.863-0.318497-167.504 0.407431-167.648 0.610289-167.825 0.787423-168.028 0.931481L-190.618 0.931481C-191.074 0.603674-191.436 0.161943-191.666-0.349612-191.869-0.747978-191.988-1.18383-192.016-1.63021-191.996-2.40833-191.66-3.1443-191.084-3.66811-190.965-3.82613-190.803-3.94716-190.618-4.01723L-168.028-4.01723C-167.519-3.80873-167.09-3.44124-166.806-2.96937-166.645-2.7403-166.526-2.48379-166.456-2.21257M-199.759 15.254C-199.685 15.5603-199.685 15.8795-199.759 16.1855-199.759 16.9144-199.982 17.6259-200.4 18.2234-200.796 18.723-201.393 19.0214-202.03 19.0385-202.566 19.0361-203.075 18.8026-203.427 18.3981-203.951 17.2917-204.359 16.3021-204.65 15.5451-205.448 13.3764-206.109 11.1596-206.63 8.90787-209.366 2.09596-212.452-4.6579-214.955-11.4696-215.087-12.1659-214.918-12.8852-214.489-13.4494-214.135-13.884-213.594-14.1224-213.034-14.0898-211.826-14.1035-210.718-13.4249-210.181-12.343L-208.201-8.73319-208.201-46.5775C-208.171-47.6383-207.287-48.4738-206.226-48.4434-206.206-48.4431-206.184-48.4422-206.164-48.4407-205.563-48.428-204.978-48.2464-204.475-47.9166-203.984-47.6028-203.614-47.1302-203.427-46.5775L-203.427 1.45529-199.876 15.0213ZM-165.641-29.1109C-164.593-29.1109-164.011-28.1213-164.011-26.7822-164.02-26.1334-164.18-25.4957-164.477-24.9192-164.688-24.3736-165.107-23.9338-165.641-23.6964L-191.434-23.6964C-191.807-23.9108-192.141-24.1864-192.423-24.5115-193.021-25.3112-193.234-26.3343-193.006-27.3062-193.021-27.6166-193.021-27.9273-193.006-28.2377-192.765-28.7899-192.21-29.1371-191.608-29.1111L-179.964-29.1111-179.964-41.8035-179.964-42.5603C-180.272-43.0334-180.72-43.3996-181.245-43.6084L-183.224-43.6084C-184.568-43.3288-185.877-42.8991-187.125-42.3275-187.883-42.0105-188.691-41.8329-189.512-41.8035-190.717-41.8525-191.805-42.5404-192.365-43.6084-192.372-44.9174-191.52-46.0762-190.269-46.4614-189.13-46.9384-187.964-47.3465-186.776-47.6839L-182.409-48.6156-178.45-48.6156C-177.367-48.5407-176.43-47.8324-176.063-46.8105-175.714-45.7043-175.306-44.6562-174.898-43.6084L-174.898-29.1109ZM-156.151-21.0764C-156.156-22.4937-156.352-23.9034-156.733-25.2686-156.733-25.676-157.083-26.2584-157.315-26.9569-157.4-27.6044-157.709-28.2017-158.189-28.6454-158.63-29.0143-159.186-29.2199-159.761-29.2275-160.224-29.2557-160.68-29.1104-161.042-28.8201-161.435-28.4594-161.666-27.9555-161.682-27.4228-161.753-26.4041-161.654-25.3815-161.391-24.3952-161.164-23.3809-161.027-22.3482-160.984-21.3094-160.902-20.1317-161.486-19.0074-162.497-18.3983L-194.577-18.3983-195.8-20.2032-195.8-26.0254C-195.809-26.5729-196.066-27.0872-196.499-27.4228-196.881-27.7631-197.386-27.9317-197.896-27.8883-199.12-27.9895-200.244-27.2082-200.574-26.0254L-200.574-17.4666-198.944-13.8571-197.372-13.3911-161.682-13.3911C-159.535-13.6104-157.659-14.9348-156.733-16.8845-156.506-17.3755-156.311-17.8809-156.151-18.3983ZM-161.333-6.17149C-161.495-7.29334-162.104-8.30126-163.021-8.96643-163.475-9.2908-163.963-9.56422-164.477-9.78153L-193.588-9.78153C-194.741-9.39297-195.687-8.55213-196.208-7.45259-196.208-7.04491-196.557-6.46279-196.79-5.70575L-196.79 2.44508-196.382 3.84254C-195.779 4.53344-195.021 5.07194-194.17 5.41469L-193.588 5.41469-165.059 5.41469C-163.887 5.41298-162.802 4.79313-162.206 3.78423-161.908 3.29179-161.673 2.76333-161.507 2.21233L-161.507-6.40473ZM-158.946 9.25699-195.8 9.25699C-196.632 9.87904-197.145 10.8394-197.198 11.8772-197.156 12.7357-196.828 13.5557-196.266 14.2059-196.126 14.376-195.97 14.5318-195.8 14.6719L-181.536 14.6719-181.536 18.7475C-181.597 19.3862-181.278 20.0014-180.721 20.3194-180.471 20.3696-180.214 20.3696-179.964 20.3194L-177.984 20.3194C-177.373 20.3831-176.797 20.0232-176.587 19.446-176.54 19.1373-176.54 18.8232-176.587 18.5142L-176.587 14.4389-159.12 14.4389C-158.602 14.3899-158.132 14.1126-157.84 13.6821-157.575 13.1789-157.436 12.6201-157.432 12.0517-157.267 10.7809-157.953 9.55173-159.12 9.02425Z" fill-rule="evenodd" transform="matrix(1 0 0 -1.00022 2358.87 1427.58)"/></g></g></g></g></g></svg>