<?xml version="1.0" standalone="no"?><!DOCTYPE svg PUBLIC "-//W3C//DTD SVG 1.1//EN" "http://www.w3.org/Graphics/SVG/1.1/DTD/svg11.dtd"><svg class="icon" width="200px" height="200.00px" viewBox="0 0 1024 1024" version="1.1" xmlns="http://www.w3.org/2000/svg"><path d="M993.856 429.248L969.376 348.8H828.8v86.4h-32v-83.2h-76.032l-60.8-89.6H563.2V217.6h92.8V166.4H297.6v51.2h83.2v44.8H263.2l-48 57.6H161.632L105.6 380.352V483.2H70.4v-102.4H19.2v262.4h51.2v-108.8h35.2v109.792l48.608 48.608h115.616l115.2 108.8h371.616l35.04-70.048 2.08-35.552H828.8V780.8h122.24l34.848-78.4a144.5856 144.5856 0 0 0 12.512-58.976v-183.616c0-10.368-1.536-20.672-4.544-30.56zM432 217.6h80v44.8h-80V217.6z m515.2 425.824c0 13.248-2.72 26.08-8.096 38.176l-21.344 48H880v-84.8h-134.528l-4.32 73.248-16.16 32.352h-319.616l-115.2-108.8H175.392L156.8 623.008v-222.528l27.168-29.248h55.232l48-57.6h345.632l60.8 89.6H745.6v83.2h134.4v-86.4h51.424l13.44 44.16c1.536 5.088 2.336 10.368 2.336 15.68v183.552z" fill="#ED0303" /></svg>