<?xml version="1.0" standalone="no"?><!DOCTYPE svg PUBLIC "-//W3C//DTD SVG 1.1//EN" "http://www.w3.org/Graphics/SVG/1.1/DTD/svg11.dtd"><svg class="icon" width="200px" height="200.00px" viewBox="0 0 1024 1024" version="1.1" xmlns="http://www.w3.org/2000/svg"><path d="M832.896 287.968C741.472 233.792 628.8 222.4 550.4 222.4c-8.608 0-17.504 0.224-26.464 0.704l-15.712 0.832-6.368 14.368c-77.824 175.808-76.96 379.872 2.336 559.904l6.304 14.272 19.232 1.184c7.136 0.448 11.424 0.704 20.672 0.704 109.568 0 209.952-24.192 282.656-68.096C920.288 693.632 966.4 614.816 966.4 518.4c0-98.944-46.176-178.624-133.504-230.432zM550.4 763.2c-2.144 0-3.904 0-5.504-0.032-65.28-158.272-66.176-334.912-2.464-489.472 2.688-0.064 5.344-0.064 7.968-0.064 101.792 0 192.832 20.736 256.384 58.432C878.72 374.688 915.2 437.376 915.2 518.4c0 180.672-196.512 244.8-364.8 244.8zM86.4 338.048l266.24-46.944c12.576-2.208 25.184-4.448 37.76-6.656 30.88-5.44 30.944-53.44 0-48L124.16 283.392c-12.576 2.208-25.184 4.448-37.76 6.656-30.88 5.44-30.944 53.44 0 48zM400 721.152c-91.456 16.128-182.912 32.256-274.4 48.384L86.4 776.448c-30.88 5.44-30.944 53.44 0 48 91.456-16.128 182.912-32.256 274.4-48.384l39.2-6.912c30.88-5.44 30.944-53.44 0-48zM86.4 459.648c90.656-16 181.344-31.968 272-47.968 30.88-5.44 30.944-53.44 0-48-90.656 16-181.344 31.968-272 47.968-30.88 5.44-30.944 53.44 0 48zM86.4 581.248c80-14.112 160-28.224 240-42.304 30.88-5.44 30.944-53.44 0-48-80 14.112-160 28.224-240 42.304-30.88 5.44-30.944 53.44 0 48zM86.4 702.848c90.656-16 181.344-31.968 272-47.968 30.88-5.44 30.944-53.44 0-48-90.656 16-181.344 31.968-272 47.968-30.88 5.44-30.944 53.44 0 48z" fill="#1BF609" /></svg>