<svg width="200" height="200" xmlns="http://www.w3.org/2000/svg" xmlns:xlink="http://www.w3.org/1999/xlink" xml:space="preserve" overflow="hidden"><g transform="translate(-343 -156)"><path d="M528.333 190.708C471.375 171.375 413.958 171.375 357.625 190.708L352.083 192.625 379.125 291.5 385.208 289.75C391.375 287.958 397.583 286.542 403.792 285.333 404.875 286.542 405.333 287.042 406.083 287.917 410.083 292.583 411.833 295.833 411.833 298.667 411.833 306.167 408.208 313.75 400.625 321.583 398.833 323.458 398.875 326.458 400.75 328.25 402.625 330.083 405.625 330.042 407.417 328.167 416.583 318.708 421.292 308.833 421.292 298.667 421.292 293.5 419.083 288.958 414.708 283.5 422.583 282.417 430.458 281.792 438.333 281.625 438.75 282.083 439.083 282.5 439.542 282.958 442.5 286.167 442.875 286.625 444 287.917 448 292.583 449.75 295.833 449.75 298.667 449.75 306.167 446.125 313.75 438.542 321.583 436.75 323.458 436.792 326.458 438.667 328.25 440.542 330.083 443.542 330.042 445.333 328.167 454.5 318.708 459.208 308.833 459.208 298.667 459.208 292.958 456.5 288 451.167 281.75L451.125 281.708C460.417 282.083 469.75 283.083 479.042 284.75 480.583 286.417 481 286.917 481.875 287.917 485.875 292.583 487.625 295.833 487.625 298.667 487.625 306.167 484 313.75 476.417 321.583 474.625 323.458 474.667 326.458 476.542 328.25 478.417 330.083 481.417 330.042 483.208 328.167 492.375 318.708 497.083 308.833 497.083 298.667 497.083 294.958 495.917 291.542 493.625 287.875 496 288.458 498.333 289.083 500.708 289.75L506.792 291.5 533.833 192.583 528.333 190.708ZM498.125 276.125C492.375 274.667 486.583 273.5 480.833 272.458 476.083 266.833 474.25 263.333 474.25 259.542 474.25 251.667 476.917 245.625 482.375 241.042L489.583 246.583 492.417 221.25 468.333 230.25 474.708 235.167C468.125 241.417 464.75 249.625 464.75 259.542 464.75 263.542 465.625 266.917 467.708 270.542 459.417 269.583 451.167 269.042 442.875 269.042 442 269.042 441.125 269.125 440.208 269.125 437.417 265.333 436.292 262.542 436.292 259.542 436.292 251.667 438.958 245.625 444.417 241.042L451.625 246.583 454.458 221.25 430.375 230.25 436.792 235.167C430.208 241.417 426.833 249.625 426.833 259.542 426.833 263.125 427.625 266.25 429.25 269.5 421.125 270 413.042 271.042 404.958 272.5 400.208 266.875 398.375 263.375 398.375 259.583 398.375 251.708 401.042 245.667 406.5 241.083L413.708 246.625 416.542 221.292 392.458 230.292 398.875 235.167C392.292 241.417 388.917 249.625 388.917 259.542 388.917 264.958 390.625 269.25 394.542 274.583 392.292 275.083 390.083 275.5 387.833 276.083L367.25 200.708C417.25 184.708 468.167 184.75 518.708 200.708L498.125 276.125Z"/></g></svg>