<?xml version="1.0" standalone="no"?><!DOCTYPE svg PUBLIC "-//W3C//DTD SVG 1.1//EN" "http://www.w3.org/Graphics/SVG/1.1/DTD/svg11.dtd"><svg class="icon" width="200px" height="200.00px" viewBox="0 0 1024 1024" version="1.1" xmlns="http://www.w3.org/2000/svg"><path d="M949.76 481.92a38.4 38.4 0 0 0-24.32-26.752c-19.712-3.392-19.584-2.56-41.344-7.168a109.504 109.504 0 0 1-42.24-22.72c-22.656-16.384-15.168-11.072-76.096-60.48a97.024 97.024 0 0 0-64-26.688c-37.888-0.64-75.84 0-113.792 0v-0.64c-37.312 0-74.752-2.432-111.744 0.96a136.384 136.384 0 0 0-61.44 21.184 347.776 347.776 0 0 0-32 25.6l-39.488-47.808c11.072-9.408 21.824-18.752 34.304-28.8A144.64 144.64 0 0 1 468.224 275.2c84.352-0.832 146.56 0.832 230.912 2.176a157.76 157.76 0 0 1 115.712 51.712c22.976 18.624 36.608 29.632 59.264 49.088a73.024 73.024 0 0 0 37.248 16.192c32 6.08 21.248 3.264 40.832 7.104a86.144 86.144 0 0 1 63.232 82.688c2.112 9.6 3.968 17.024 5.568 24.704l-63.104 1.024c-2.112-8.32-4.8-17.088-8.128-27.968zM273.408 459.712c-4.288 1.536-8.512 3.52-12.8 4.736-45.888 12.8-102.4 24.832-148.672 36.352a38.4 38.4 0 0 0-21.184 12.8c-2.688 3.84-3.456 7.488-5.76 11.2l-72.512 1.216a204.8 204.8 0 0 1 27.136-49.408 93.12 93.12 0 0 1 45.696-31.168c44.8-13.44 97.536-25.6 144.768-37.696z m-206.72 141.376a23.04 23.04 0 0 0 22.016 16.128c18.624 3.072 33.28 3.52 51.712 7.168a44.8 44.8 0 0 1 28.416 20.48 54.208 54.208 0 0 0 92.416 0A49.536 49.536 0 0 1 295.04 627.2c149.824-1.472 285.056-1.28 435.2-1.856a46.784 46.784 0 0 1 41.984 23.04 49.984 49.984 0 0 0 43.904 27.904 41.6 41.6 0 0 0 43.968-26.752 47.616 47.616 0 0 1 39.936-24.448c16.704-1.408 24.64-1.088 40.32-2.304a22.784 22.784 0 0 0 21.888-19.2c0.896-15.744 1.344-28.352 1.472-39.232l61.44-1.152c0 12.416-0.448 27.2-1.408 46.4-2.496 51.2-17.536 69.056-84.48 76.288a48.256 48.256 0 0 0-45.184 19.968 105.472 105.472 0 0 1-163.2-4.928 30.592 30.592 0 0 0-27.904-13.568c-32.704 0.704-65.472 0.576-98.24 0.64h-96v0.96c-64.832 0-129.664-0.384-194.496 0.448a25.6 25.6 0 0 0-20.416 10.368 106.048 106.048 0 0 1-161.472-0.832 36.224 36.224 0 0 0-19.2-15.296c-24.256-7.36-40.704-5.056-70.4-12.16a70.4 70.4 0 0 1-39.36-65.536 223.424 223.424 0 0 1-0.832-25.6l65.344-1.088a100.288 100.288 0 0 0-1.216 21.824z m194.624-311.36s49.6 67.2 94.848 119.168a176.384 176.384 0 0 0 143.616 55.488h118.208l3.072-39.936 163.2 72.704c-56.832 25.6-108.8 48.576-159.424 72.192a400.576 400.576 0 0 1-8.448-39.936H494.08a231.36 231.36 0 0 1-198.72-98.624C224 341.76 183.424 289.728 183.424 289.728h77.888z" /></svg>