<svg width="2617" height="1851" xmlns="http://www.w3.org/2000/svg" xmlns:xlink="http://www.w3.org/1999/xlink" xml:space="preserve" overflow="hidden"><defs><clipPath id="clip0"><rect x="795" y="271" width="2617" height="1851"/></clipPath></defs><g clip-path="url(#clip0)" transform="translate(-795 -271)"><path d="M1486 506 1486 583C1486 639.885 1439.89 686 1383 686L1304.08 686C1290.78 686 1280 675.22 1280 661.923L1280 427.077C1280 413.779 1290.78 403 1304.08 403L1383 403C1439.89 403 1486 449.114 1486 506Z" fill="#262626" fill-rule="evenodd"/><rect x="1126" y="471" width="154" height="23" fill="#7F7F7F"/><rect x="1126" y="595" width="154" height="22" fill="#7F7F7F"/><rect x="1486" y="523" width="1134" height="43.0003" fill="#262626"/><path d="M3037.5 456C3063.18 456 3084 476.819 3084 502.5 3084 528.181 3063.18 549 3037.5 549 3011.82 549 2991 528.181 2991 502.5 2991 476.819 3011.82 456 3037.5 456Z" fill="#262626" fill-rule="evenodd"/><path d="M3037.5 543C3063.18 543 3084 563.819 3084 589.5 3084 615.181 3063.18 636 3037.5 636 3011.82 636 2991 615.181 2991 589.5 2991 563.819 3011.82 543 3037.5 543Z" fill="#262626" fill-rule="evenodd"/><rect x="3007" y="517" width="60.9998" height="61.9999" fill="#262626"/><path d="M3038 486.5C3047.11 486.5 3054.5 493.887 3054.5 503 3054.5 512.113 3047.11 519.5 3038 519.5 3028.89 519.5 3021.5 512.113 3021.5 503 3021.5 493.887 3028.89 486.5 3038 486.5Z" stroke="#E97132" stroke-width="6.875" stroke-miterlimit="8" fill-rule="evenodd"/><path d="M3038 573.5C3047.11 573.5 3054.5 580.887 3054.5 590 3054.5 599.113 3047.11 606.5 3038 606.5 3028.89 606.5 3021.5 599.113 3021.5 590 3021.5 580.887 3028.89 573.5 3038 573.5Z" stroke="#E97132" stroke-width="6.875" stroke-miterlimit="8" fill-rule="evenodd"/><path d="M73.3918 0 105.608 0C146.141-1.69327e-14 179 32.8586 179 73.3918L179 252.503C179 259.957 172.957 266 165.503 266L13.4967 266C6.04266 266 0 259.957 0 252.503L0 73.3918C-8.46635e-15 32.8586 32.8586-1.69327e-14 73.3918-3.38654e-14Z" fill="#262626" fill-rule="evenodd" transform="matrix(6.12323e-17 1 1 -6.12323e-17 2549 453)"/><rect x="2671" y="536" width="144" height="18.0002"/><path d="M2855 527.352 2914.79 527.352 2914.79 501 2961 543 2914.79 585 2914.79 558.648 2855 558.648Z" fill="#A6A6A6" fill-rule="evenodd"/><path d="M2954.35 328.624C2952.76 331.671 2951.24 334.221 2949.78 336.274 2953.62 337.665 2958.8 339.818 2965.3 342.732 2967.29 340.944 2969 338.923 2970.42 336.671 2971.85 334.419 2973.19 331.737 2974.45 328.624ZM2591.28 320.179C2586.84 320.179 2583.34 321.471 2580.79 324.054 2578.23 326.637 2576.96 330.115 2576.96 334.486 2576.96 338.857 2578.25 342.285 2580.84 344.769 2583.42 347.253 2586.91 348.494 2591.28 348.494 2595.53 348.494 2598.95 347.236 2601.53 344.719 2604.12 342.202 2605.41 338.791 2605.41 334.486 2605.41 330.115 2604.15 326.637 2601.63 324.054 2599.11 321.471 2595.66 320.179 2591.28 320.179ZM2953.56 311.933 2961.32 313.224C2960.06 316.536 2958.93 319.285 2957.93 321.471L2993.46 321.471 2993.46 328.624 2982.51 328.624C2979.66 335.976 2976.28 341.739 2972.36 345.912 2981.32 350.018 2988.12 353.264 2992.76 355.648L2989.58 362.603C2982.54 358.893 2974.78 355.052 2966.29 351.078 2962.64 353.528 2958.23 355.698 2953.06 357.585 2947.88 359.473 2941.52 361.179 2933.96 362.702L2931.27 355.449C2943.41 353.197 2952.43 350.548 2958.33 347.501 2949.97 343.924 2943.57 341.308 2939.13 339.652 2941.38 336.539 2943.67 332.863 2945.99 328.624L2932.26 328.624 2932.26 321.471 2949.68 321.471C2951.47 317.696 2952.76 314.516 2953.56 311.933ZM2803.16 303.885 2804.45 310.343C2796.76 311.536 2786.98 312.794 2775.1 314.119L2775.1 321.868 2804.85 320.08 2805.15 326.339 2775.1 328.127 2775.1 335.479 2812.61 333.294 2813.01 340.248 2775.1 342.335 2775.1 347.004C2775.1 349.389 2775.47 351.061 2776.2 352.021 2776.93 352.982 2778.22 353.528 2780.08 353.661 2783.92 353.926 2786.81 354.058 2788.73 354.058 2790.66 354.058 2793.54 353.926 2797.39 353.661 2799.51 353.462 2800.97 352.949 2801.77 352.121 2802.56 351.293 2803.06 349.72 2803.26 347.402 2803.39 345.812 2803.46 344.024 2803.46 342.037L2810.72 344.024C2810.72 346.077 2810.62 348.395 2810.42 350.978 2810.16 354.555 2809.23 357.056 2807.64 358.48 2806.05 359.904 2803.39 360.748 2799.68 361.013 2796.43 361.278 2792.71 361.411 2788.53 361.411 2784.49 361.411 2780.77 361.278 2777.39 361.013 2773.81 360.748 2771.22 359.771 2769.63 358.082 2768.04 356.393 2767.24 353.396 2767.24 349.09L2767.24 342.732 2742.37 344.123 2741.97 337.467 2767.24 335.976 2767.24 328.624 2746.35 329.916 2745.95 323.557 2767.24 322.266 2767.24 314.914C2759.28 315.708 2752.45 316.272 2746.75 316.602L2745.95 310.244C2754.44 309.714 2764.32 308.836 2775.6 307.611 2786.88 306.386 2796.06 305.144 2803.16 303.885ZM2640.68 301.103 2697.79 301.103 2697.79 308.654 2674.01 323.259 2674.01 326.637 2713.51 326.637 2713.51 334.387 2674.01 334.387 2674.01 348.494C2674.01 352.204 2673.65 354.986 2672.92 356.84 2672.19 358.695 2670.94 359.97 2669.19 360.665 2667.43 361.361 2664.79 361.709 2661.28 361.709 2658.49 361.709 2654.38 361.443 2648.94 360.913L2647.35 353.164C2651.99 353.826 2656.13 354.158 2659.78 354.158 2661.57 354.158 2662.87 353.975 2663.66 353.611 2664.46 353.247 2665.01 352.518 2665.31 351.425 2665.6 350.333 2665.75 348.627 2665.75 346.309L2665.75 334.387 2624.86 334.387 2624.86 326.637 2665.75 326.637 2665.75 320.08 2683.76 308.753 2640.68 308.753ZM3021.02 289.877 3021.02 343.328 3075.74 343.328 3075.74 289.877ZM2591.28 289.082C2587.57 289.082 2584.64 290.142 2582.48 292.261 2580.32 294.38 2579.25 297.163 2579.25 300.607 2579.25 303.985 2580.32 306.733 2582.48 308.853 2584.64 310.973 2587.57 312.032 2591.28 312.032 2594.93 312.032 2597.82 310.956 2599.94 308.803 2602.06 306.65 2603.13 303.919 2603.13 300.607 2603.13 297.229 2602.06 294.463 2599.94 292.311 2597.82 290.158 2594.93 289.082 2591.28 289.082ZM2952.96 288.585 2956.54 302.594 2969.68 302.594 2973.26 288.585ZM2741.17 283.916 2741.17 292.658 2799.38 292.658 2799.38 283.916ZM2591.28 281.332C2595.33 281.332 2598.93 282.177 2602.08 283.866 2605.23 285.555 2607.67 287.84 2609.39 290.721 2611.12 293.603 2611.98 296.798 2611.98 300.309 2611.98 303.687 2611.15 306.717 2609.49 309.4 2607.83 312.082 2605.51 314.218 2602.53 315.808 2606.31 317.53 2609.28 320.047 2611.43 323.358 2613.59 326.67 2614.67 330.479 2614.67 334.784 2614.67 338.891 2613.69 342.583 2611.73 345.862 2609.78 349.141 2607.02 351.723 2603.47 353.611 2599.92 355.499 2595.86 356.443 2591.28 356.443 2586.58 356.443 2582.43 355.515 2578.85 353.661 2575.27 351.806 2572.48 349.223 2570.49 345.912 2568.5 342.6 2567.5 338.891 2567.5 334.784 2567.5 330.479 2568.58 326.67 2570.74 323.358 2572.89 320.047 2575.9 317.53 2579.74 315.808 2576.69 314.218 2574.3 312.082 2572.58 309.4 2570.85 306.717 2569.99 303.687 2569.99 300.309 2569.99 296.865 2570.89 293.685 2572.68 290.771 2574.47 287.856 2576.99 285.555 2580.24 283.866 2583.49 282.177 2587.17 281.332 2591.28 281.332ZM3012.66 281.233 3084 281.233 3084 360.615 3075.74 360.615 3075.74 351.872 3021.02 351.872 3021.02 361.113 3012.66 361.113ZM2733.21 276.563 2807.44 276.563 2807.44 299.812 2741.17 299.812 2741.17 308.853C2741.17 321.372 2740.39 331.555 2738.83 339.404 2737.28 347.253 2734.47 355.118 2730.43 363L2722.57 359.92C2725.49 354.29 2727.67 349.141 2729.13 344.471 2730.59 339.801 2731.64 334.585 2732.27 328.823 2732.9 323.06 2733.21 315.675 2733.21 306.667ZM2849.13 274.974C2851.05 274.974 2852.61 275.719 2853.81 277.209 2855 278.7 2855.6 281.001 2855.6 284.114 2855.6 288.618 2854.42 292.328 2852.07 295.242 2849.71 298.156 2846.61 299.977 2842.76 300.706L2842.76 296.036C2847.27 294.646 2849.66 291.433 2849.93 286.4 2849.73 286.466 2849.43 286.499 2849.03 286.499 2847.37 286.499 2846.06 285.936 2845.1 284.81 2844.14 283.684 2843.66 282.326 2843.66 280.736 2843.66 279.081 2844.17 277.706 2845.2 276.613 2846.23 275.52 2847.54 274.974 2849.13 274.974ZM2833.01 274.974C2834.93 274.974 2836.49 275.719 2837.69 277.209 2838.88 278.7 2839.48 281.001 2839.48 284.114 2839.48 288.618 2838.3 292.328 2835.95 295.242 2833.59 298.156 2830.49 299.977 2826.64 300.706L2826.64 296.036C2831.15 294.646 2833.54 291.433 2833.81 286.4 2833.61 286.466 2833.31 286.499 2832.91 286.499 2831.25 286.499 2829.94 285.936 2828.98 284.81 2828.02 283.684 2827.54 282.326 2827.54 280.736 2827.54 279.081 2828.05 277.706 2829.08 276.613 2830.11 275.52 2831.42 274.974 2833.01 274.974ZM2553.95 274.974 2553.95 279.643C2549.44 281.034 2547.06 284.247 2546.79 289.28 2546.99 289.214 2547.29 289.181 2547.69 289.181 2549.34 289.181 2550.65 289.744 2551.62 290.87 2552.58 291.996 2553.06 293.354 2553.06 294.944 2553.06 296.533 2552.54 297.891 2551.52 299.017 2550.49 300.143 2549.18 300.706 2547.59 300.706 2545.66 300.706 2544.1 299.961 2542.91 298.471 2541.72 296.98 2541.12 294.679 2541.12 291.566 2541.12 287.062 2542.3 283.353 2544.65 280.438 2547.01 277.524 2550.11 275.703 2553.95 274.974ZM2537.83 274.974 2537.83 279.643C2533.32 281.034 2530.94 284.247 2530.67 289.28 2530.87 289.214 2531.17 289.181 2531.57 289.181 2533.22 289.181 2534.54 289.744 2535.5 290.87 2536.46 291.996 2536.94 293.354 2536.94 294.944 2536.94 296.533 2536.43 297.891 2535.4 299.017 2534.37 300.143 2533.06 300.706 2531.47 300.706 2529.54 300.706 2527.98 299.961 2526.79 298.471 2525.6 296.98 2525 294.679 2525 291.566 2525 287.062 2526.18 283.353 2528.53 280.438 2530.89 277.524 2533.99 275.703 2537.83 274.974ZM2916.54 272.589 2924.01 272.589 2924.01 290.572 2932.66 290.572 2932.66 297.825 2924.01 297.825 2924.01 314.417 2926.39 313.523 2931.77 311.337 2932.16 319.285 2924.01 322.067 2924.01 350.78C2924.01 354.82 2923.33 357.569 2921.97 359.026 2920.61 360.483 2918.2 361.212 2914.75 361.212 2911.9 361.212 2909.15 361.046 2906.49 360.715L2905.2 353.264C2908.32 353.727 2911.04 353.959 2913.36 353.959 2914.62 353.959 2915.47 353.644 2915.9 353.015 2916.33 352.386 2916.54 351.243 2916.54 349.588L2916.54 324.749C2912.3 326.207 2908.25 327.664 2904.4 329.121L2902.81 321.67C2905.66 320.874 2910.24 319.351 2916.54 317.099L2916.54 297.825 2904.8 297.825 2904.8 290.572 2916.54 290.572ZM2669.93 271.397 2675.8 282.922 2710.73 282.922 2710.73 304.779 2702.47 304.779 2702.47 290.572 2636 290.572 2636 304.68 2627.84 304.68 2627.84 282.922 2666.35 282.922C2664.16 278.352 2662.57 275.272 2661.57 273.683ZM2963.8 271C2964.8 272.921 2966.36 276.464 2968.48 281.631L2990.57 281.631 2990.57 288.585 2980.92 288.585 2977.14 302.594 2993.26 302.594 2993.26 309.747 2934.25 309.747 2934.25 302.594 2948.88 302.594 2945.5 288.585 2936.24 288.585 2936.24 281.631 2959.63 281.631C2958.43 278.849 2957.14 276.166 2955.75 273.583Z" fill-rule="evenodd"/><path d="M813.425 527.742C815.587 527.742 817.327 528.183 818.648 529.065 819.968 529.948 821.469 531.271 823.15 533.036 824.351 534.375 825.416 535.379 826.346 536.048 827.277 536.717 828.342 537.051 829.543 537.051 831.163 537.051 832.439 536.352 833.369 534.952 834.3 533.553 834.915 531.484 835.215 528.746L841.968 528.746C841.848 533.127 840.723 536.793 838.592 539.744 836.461 542.695 833.505 544.17 829.723 544.17 827.502 544.17 825.701 543.715 824.32 542.802 822.94 541.889 821.439 540.55 819.818 538.786 818.618 537.447 817.567 536.458 816.667 535.819 815.767 535.18 814.716 534.861 813.515 534.861 811.835 534.861 810.544 535.561 809.644 536.96 808.744 538.36 808.143 540.428 807.843 543.167L801 543.167C801.12 538.786 802.275 535.12 804.466 532.169 806.657 529.218 809.644 527.742 813.425 527.742ZM977.916 508.393C973.534 508.393 970.308 510.629 968.236 515.101 966.166 519.574 965.13 526.404 965.13 535.591 965.13 544.658 966.166 551.412 968.236 555.853 970.308 560.295 973.534 562.516 977.916 562.516 982.298 562.516 985.54 560.31 987.64 555.899 989.741 551.488 990.792 544.718 990.792 535.591 990.792 526.404 989.741 519.574 987.64 515.101 985.54 510.629 982.298 508.393 977.916 508.393ZM1005.01 502.187 1013.93 502.187 1034.91 558.135 1054.9 502.187 1063 502.187 1037.97 568.996 1031.22 568.996ZM977.916 501C984.819 501 990.116 503.92 993.808 509.762 997.5 515.603 999.346 524.213 999.346 535.591 999.346 546.909 997.5 555.473 993.808 561.284 990.116 567.095 984.819 570 977.916 570 971.073 570 965.805 567.079 962.114 561.238 958.422 555.397 956.576 546.848 956.576 535.591 956.576 524.274 958.422 515.679 962.114 509.807 965.805 503.936 971.073 501 977.916 501ZM925.967 501C929.449 501 932.63 501.745 935.511 503.236 938.393 504.727 940.689 506.917 942.4 509.807 944.11 512.698 944.966 516.181 944.966 520.258 944.966 524.213 944.005 527.955 942.084 531.484 940.164 535.013 936.802 539.455 932 544.809L916.873 561.786 946.676 561.786 946.676 568.996 904.627 568.996 904.627 563.794 925.967 539.699C929.989 535.196 932.75 531.652 934.251 529.065 935.752 526.479 936.502 523.665 936.502 520.623 936.502 516.729 935.452 513.717 933.35 511.587 931.249 509.458 928.608 508.393 925.427 508.393 922.185 508.393 919.334 509.503 916.873 511.724 914.412 513.945 912.641 516.881 911.561 520.532L905.078 516.79C906.398 511.8 909.009 507.921 912.911 505.153 916.813 502.384 921.165 501 925.967 501ZM873.838 501C877.32 501 880.501 501.745 883.382 503.236 886.264 504.727 888.56 506.917 890.271 509.807 891.981 512.698 892.837 516.181 892.837 520.258 892.837 524.213 891.876 527.955 889.956 531.484 888.035 535.013 884.673 539.455 879.871 544.809L864.744 561.786 894.547 561.786 894.547 568.996 852.498 568.996 852.498 563.794 873.838 539.699C877.86 535.196 880.621 531.652 882.122 529.065 883.623 526.479 884.373 523.665 884.373 520.623 884.373 516.729 883.323 513.717 881.222 511.587 879.12 509.458 876.48 508.393 873.298 508.393 870.056 508.393 867.205 509.503 864.744 511.724 862.283 513.945 860.512 516.881 859.432 520.532L852.949 516.79C854.269 511.8 856.88 507.921 860.782 505.153 864.684 502.384 869.036 501 873.838 501Z" fill-rule="evenodd"/><path d="M3161.47 527.742C3163.64 527.742 3165.39 528.183 3166.72 529.065 3168.04 529.948 3169.55 531.271 3171.23 533.036 3172.44 534.375 3173.51 535.379 3174.44 536.048 3175.38 536.717 3176.45 537.051 3177.65 537.051 3179.28 537.051 3180.56 536.352 3181.49 534.952 3182.43 533.553 3183.04 531.484 3183.35 528.746L3190.12 528.746C3190 533.127 3188.87 536.793 3186.74 539.744 3184.6 542.695 3181.63 544.17 3177.83 544.17 3175.6 544.17 3173.8 543.715 3172.41 542.802 3171.02 541.889 3169.52 540.55 3167.89 538.786 3166.69 537.447 3165.63 536.458 3164.73 535.819 3163.82 535.18 3162.77 534.861 3161.56 534.861 3159.88 534.861 3158.58 535.561 3157.68 536.96 3156.77 538.36 3156.17 540.428 3155.87 543.167L3149 543.167C3149.12 538.786 3150.28 535.12 3152.48 532.169 3154.68 529.218 3157.68 527.742 3161.47 527.742ZM3326.59 508.393C3322.19 508.393 3318.95 510.629 3316.87 515.101 3314.8 519.574 3313.76 526.404 3313.76 535.591 3313.76 544.658 3314.8 551.412 3316.87 555.853 3318.95 560.295 3322.19 562.516 3326.59 562.516 3330.99 562.516 3334.24 560.31 3336.35 555.899 3338.46 551.488 3339.52 544.718 3339.52 535.591 3339.52 526.404 3338.46 519.574 3336.35 515.101 3334.24 510.629 3330.99 508.393 3326.59 508.393ZM3353.79 502.187 3362.74 502.187 3383.8 558.135 3403.87 502.187 3412 502.187 3386.87 568.996 3380.09 568.996ZM3326.59 501C3333.52 501 3338.84 503.92 3342.54 509.762 3346.25 515.603 3348.1 524.213 3348.1 535.591 3348.1 546.909 3346.25 555.473 3342.54 561.284 3338.84 567.095 3333.52 570 3326.59 570 3319.72 570 3314.43 567.079 3310.73 561.238 3307.02 555.397 3305.17 546.848 3305.17 535.591 3305.17 524.274 3307.02 515.679 3310.73 509.807 3314.43 503.936 3319.72 501 3326.59 501ZM3274.44 501C3277.94 501 3281.13 501.745 3284.02 503.236 3286.92 504.727 3289.22 506.917 3290.94 509.807 3292.66 512.698 3293.52 516.181 3293.52 520.258 3293.52 524.213 3292.55 527.955 3290.62 531.484 3288.69 535.013 3285.32 539.455 3280.5 544.809L3265.32 561.786 3295.23 561.786 3295.23 568.996 3253.02 568.996 3253.02 563.794 3274.44 539.699C3278.48 535.196 3281.25 531.652 3282.76 529.065 3284.27 526.479 3285.02 523.665 3285.02 520.623 3285.02 516.729 3283.96 513.717 3281.86 511.587 3279.75 509.458 3277.1 508.393 3273.9 508.393 3270.65 508.393 3267.79 509.503 3265.32 511.724 3262.84 513.945 3261.07 516.881 3259.98 520.532L3253.48 516.79C3254.8 511.8 3257.42 507.921 3261.34 505.153 3265.26 502.384 3269.62 501 3274.44 501ZM3222.12 501C3225.61 501 3228.8 501.745 3231.7 503.236 3234.59 504.727 3236.89 506.917 3238.61 509.807 3240.33 512.698 3241.19 516.181 3241.19 520.258 3241.19 524.213 3240.22 527.955 3238.3 531.484 3236.37 535.013 3232.99 539.455 3228.17 544.809L3212.99 561.786 3242.9 561.786 3242.9 568.996 3200.7 568.996 3200.7 563.794 3222.12 539.699C3226.15 535.196 3228.93 531.652 3230.43 529.065 3231.94 526.479 3232.69 523.665 3232.69 520.623 3232.69 516.729 3231.64 513.717 3229.53 511.587 3227.42 509.458 3224.77 508.393 3221.57 508.393 3218.32 508.393 3215.46 509.503 3212.99 511.724 3210.52 513.945 3208.74 516.881 3207.65 520.532L3201.15 516.79C3202.47 511.8 3205.09 507.921 3209.01 505.153 3212.93 502.384 3217.3 501 3222.12 501Z" fill-rule="evenodd"/><path d="M2053.5 359.5 2053.5 585.539" stroke="#0F9ED5" stroke-width="6.875" stroke-miterlimit="8" stroke-dasharray="27.5 20.625" fill="none" fill-rule="evenodd"/><path d="M2008.57 726.722C2014.03 721.262 2022.97 721.262 2028.43 726.722 2033.89 732.182 2033.89 741.118 2028.43 746.578 2022.97 752.038 2014.03 752.038 2008.57 746.578 2003.11 741.117 2003.11 732.183 2008.57 726.722ZM2082.53 723.579C2089.65 720.435 2097.76 723.909 2100.9 731.024 2104.04 738.139 2100.57 746.247 2093.45 749.39 2086.34 752.534 2078.23 749.06 2075.09 741.945 2072.11 734.995 2075.42 726.722 2082.53 723.579ZM2048.28 680.393C2051.1 677.581 2055.4 677.58 2058.21 680.393 2061.02 683.206 2061.02 687.508 2058.21 690.321 2055.4 693.134 2051.1 693.134 2048.28 690.321 2045.47 687.508 2045.47 683.206 2048.28 680.393ZM2038.36 756.505C2042.66 752.203 2045.31 746.909 2046.3 741.283L2053.41 716.298 2060.53 741.283C2061.02 743.434 2061.52 745.585 2062.35 747.736 2068.3 761.965 2084.85 768.584 2099.08 762.628 2113.31 756.671 2119.93 740.125 2113.97 725.895 2108.01 711.665 2091.47 705.047 2077.24 711.004 2074.43 712.162 2072.11 713.816 2069.96 715.637L2069.96 685.854 2065.49 674.106 2086.34 599.318 2079.72 572.844 2053.25 642.337 2026.77 572.844 2020.16 599.318 2041.17 673.61 2036.7 685.357 2036.7 715.14C2025.62 705.709 2009.07 706.371 1998.65 716.795 1987.72 727.715 1987.72 745.585 1998.65 756.505 2009.57 767.426 2027.44 767.426 2038.36 756.505Z" fill="#0F9ED5" fill-rule="evenodd"/><path d="M1156 999 1156 1076C1156 1132.89 1109.89 1179 1053 1179L974.078 1179C960.78 1179 950 1168.22 950 1154.92L950 920.077C950 906.78 960.78 896 974.078 896L1053 896C1109.89 896 1156 942.115 1156 999Z" fill="#262626" fill-rule="evenodd"/><rect x="795" y="965" width="155" height="22" fill="#7F7F7F"/><rect x="795" y="1088" width="155" height="22" fill="#7F7F7F"/><path d="M1269.58 1029.97 1537.23 1041.7 1536.29 1063.15 1268.64 1051.43Z" fill="#156082" fill-rule="evenodd"/><path d="M1536.98 1047.36 1609.63 1050.54 1609.18 1060.67 1536.54 1057.49Z" fill="#E97132" fill-rule="evenodd"/><path d="M1268.81 1023.76 1536.47 1012.06 1537.4 1033.51 1269.75 1045.21Z" fill="#C00000" fill-rule="evenodd"/><path d="M1536.71 1017.71 1609.36 1014.54 1609.8 1024.67 1537.16 1027.85Z" fill="#E97132" fill-rule="evenodd"/><rect x="1076" y="1016" width="267" height="43" fill="#262626"/><path d="M73.3918 0 105.608 0C146.141-8.43451e-15 179 32.8586 179 73.3917L179 251.503C179 258.957 172.957 265 165.503 265L13.4966 265C6.04265 265 0 258.957 0 251.503L0 73.3917C-8.43452e-15 32.8586 32.8586-1.6869e-14 73.3918-1.6869e-14Z" fill="#262626" fill-rule="evenodd" transform="matrix(6.12323e-17 1 1 -6.12323e-17 3136 948)"/><rect x="3258" y="1029" width="143" height="17.0002"/><rect x="0" y="0" width="267.911" height="21.4727" fill="#156082" transform="matrix(-0.999042 0.0437612 0.0437612 0.999042 3003.57 1029.97)"/><rect x="0" y="0" width="72.7126" height="10.1447" fill="#E97132" transform="matrix(-0.999042 0.0437612 0.0437612 0.999042 2736.17 1047.36)"/><rect x="0" y="0" width="267.911" height="21.4727" fill="#C00000" transform="matrix(-0.999045 -0.0436836 -0.0436836 0.999045 3004.34 1023.76)"/><rect x="0" y="0" width="72.7126" height="10.1447" fill="#E97132" transform="matrix(-0.999045 -0.0436836 -0.0436836 0.999045 2736.44 1017.72)"/><rect x="0" y="0" width="267" height="43" fill="#262626" transform="matrix(-1 0 0 1 3197 1016)"/><rect x="0" y="0" width="180" height="22" fill="#C00000" transform="matrix(-1 0 0 1 1976 980)"/><rect x="0" y="0" width="72.0002" height="9.99997" fill="#E97132" transform="matrix(-1 0 0 1 1796 986)"/><rect x="0" y="0" width="180" height="22" transform="matrix(-1 0 0 1 1976 1073)"/><rect x="0" y="0" width="72.0002" height="9.99997" fill="#E97132" transform="matrix(-1 0 0 1 1796 1079)"/><rect x="2297" y="980" width="180" height="22" fill="#C00000"/><rect x="2477" y="986" width="71.9998" height="9.99994" fill="#E97132"/><rect x="2297" y="1073" width="180" height="22"/><rect x="2477" y="1079" width="71.9998" height="10" fill="#E97132"/><rect x="1893.5" y="942.5" width="487" height="191" stroke="#595959" stroke-width="6.875" stroke-miterlimit="8" fill="#F2F2F2"/><path d="M2268.67 1050.34 2268.67 1055.22 2276.55 1055.22 2276.55 1050.34ZM2246.91 1050.34 2246.91 1055.22 2254.53 1055.22 2254.53 1050.34ZM2166.7 1038.58 2166.7 1041.56 2173.33 1041.56 2173.33 1038.58ZM2154.69 1038.58 2154.69 1041.56 2161.01 1041.56 2161.01 1038.58ZM2051.61 1036.06C2050.19 1036.06 2048.97 1036.51 2047.96 1037.4 2046.95 1038.29 2046.27 1039.54 2045.92 1041.15L2056.67 1041.15C2056.54 1039.5 2056 1038.24 2055.08 1037.37 2054.16 1036.5 2053 1036.06 2051.61 1036.06ZM2166.7 1031.13 2166.7 1034.21 2173.33 1034.21 2173.33 1031.13ZM2154.69 1031.13 2154.69 1034.21 2161.01 1034.21 2161.01 1031.13ZM2077.63 1030.26C2080.34 1030.26 2082.64 1030.83 2084.52 1031.98 2086.39 1033.12 2087.58 1034.64 2088.06 1036.52L2082.79 1039.45C2081.75 1037.22 2079.99 1036.11 2077.52 1036.11 2076.48 1036.11 2075.64 1036.31 2075.02 1036.7 2074.39 1037.1 2074.08 1037.65 2074.08 1038.37 2074.08 1039.19 2074.49 1039.82 2075.33 1040.25 2076.16 1040.67 2077.47 1041.13 2079.24 1041.61 2081.12 1042.12 2082.67 1042.63 2083.89 1043.15 2085.11 1043.66 2086.15 1044.44 2087.02 1045.49 2087.89 1046.53 2088.32 1047.91 2088.32 1049.62 2088.32 1052.26 2087.29 1054.34 2085.22 1055.86 2083.15 1057.39 2080.46 1058.15 2077.16 1058.15 2074.3 1058.15 2071.84 1057.55 2069.77 1056.35 2067.7 1055.15 2066.3 1053.49 2065.57 1051.37L2070.84 1048.34C2071.36 1049.6 2072.18 1050.59 2073.29 1051.29 2074.41 1051.99 2075.71 1052.34 2077.21 1052.34 2078.32 1052.34 2079.21 1052.14 2079.87 1051.73 2080.53 1051.32 2080.86 1050.73 2080.86 1049.98 2080.86 1049.12 2080.43 1048.46 2079.56 1048 2078.69 1047.54 2077.33 1047.05 2075.49 1046.54 2073.64 1045.99 2072.14 1045.46 2070.97 1044.95 2069.81 1044.43 2068.8 1043.69 2067.95 1042.71 2067.09 1041.74 2066.67 1040.46 2066.67 1038.89 2066.67 1037.1 2067.16 1035.56 2068.15 1034.26 2069.15 1032.96 2070.48 1031.97 2072.15 1031.28 2073.82 1030.6 2075.64 1030.26 2077.63 1030.26ZM2051.82 1030.26C2054.22 1030.26 2056.35 1030.78 2058.21 1031.82 2060.08 1032.87 2061.52 1034.34 2062.55 1036.24 2063.57 1038.14 2064.09 1040.32 2064.09 1042.79 2064.09 1043.88 2063.98 1045 2063.77 1046.13L2045.82 1046.13C2046.13 1048.11 2046.86 1049.61 2048.01 1050.62 2049.16 1051.63 2050.59 1052.14 2052.29 1052.14 2053.51 1052.14 2054.6 1051.87 2055.55 1051.34 2056.51 1050.81 2057.25 1050.01 2057.77 1048.95L2063.09 1052.03C2062.36 1053.99 2060.96 1055.49 2058.89 1056.55 2056.82 1057.62 2054.52 1058.15 2051.98 1058.15 2049.54 1058.15 2047.28 1057.62 2045.19 1056.55 2043.11 1055.49 2041.43 1053.9 2040.16 1051.78 2038.89 1049.66 2038.25 1047.1 2038.25 1044.12 2038.25 1041.18 2038.89 1038.66 2040.16 1036.57 2041.43 1034.48 2043.09 1032.91 2045.14 1031.85 2047.19 1030.79 2049.42 1030.26 2051.82 1030.26ZM2192.84 1021.01 2192.84 1045.05C2195.24 1042.41 2197.18 1039.6 2198.64 1036.63L2193.89 1036.63 2193.89 1031.08 2200.15 1031.08 2200.15 1027.64 2196.44 1029.18C2195.33 1026.3 2194.13 1023.58 2192.84 1021.01ZM2157.56 1020.75 2162.99 1023.78 2168.58 1020.75ZM2269.04 1020.65 2269.04 1024.86 2276.97 1024.86 2276.97 1020.65ZM2246.44 1020.65 2246.44 1025.17 2254.22 1025.17 2254.22 1020.65ZM1993 1019.93 1999 1019.93 2012.05 1039.4 2025.04 1019.93 2030.78 1019.93 2030.78 1057.53 2023.58 1057.53 2023.58 1033.29 2013.88 1047.51 2009.91 1047.51 2000.15 1033.18 2000.15 1057.53 1993 1057.53ZM2092.01 1018.44 2099.26 1018.44 2099.26 1034.47C2101 1031.66 2103.75 1030.26 2107.51 1030.26 2110.46 1030.26 2112.82 1031.22 2114.58 1033.16 2116.33 1035.09 2117.21 1037.91 2117.21 1041.61L2117.21 1057.53 2109.96 1057.53 2109.96 1043.92C2109.96 1039.06 2108.32 1036.63 2105.05 1036.63 2103.31 1036.63 2101.91 1037.28 2100.85 1038.6 2099.79 1039.92 2099.26 1041.78 2099.26 1044.18L2099.26 1057.53 2092.01 1057.53ZM2263.45 1015.87 2282.4 1015.87 2282.4 1029.74 2275.09 1029.74 2277.44 1033.39 2283.96 1033.39 2283.96 1038.53 2270.19 1038.53C2271.89 1039.45 2274.01 1040.23 2276.53 1040.86 2279.05 1041.5 2282.21 1042.07 2286 1042.58L2284.28 1047.98 2282.14 1047.57 2282.14 1061.64 2276.55 1061.64 2276.55 1059.95 2268.67 1059.95 2268.67 1061.64 2263.09 1061.64 2263.09 1045.31 2273.74 1045.31C2268.76 1043.56 2264.76 1041.3 2261.73 1038.53L2261.21 1038.53C2260.06 1039.9 2258.53 1041.11 2256.62 1042.17 2254.7 1043.23 2252.18 1044.28 2249.05 1045.31L2260.06 1045.31 2260.06 1061.64 2254.53 1061.64 2254.53 1059.95 2246.91 1059.95 2246.91 1061.64 2241.33 1061.64 2241.33 1047.57 2239.13 1048.18 2237.41 1042.63C2241.07 1042.02 2244.08 1041.39 2246.44 1040.73 2248.81 1040.08 2250.74 1039.35 2252.23 1038.53L2239.4 1038.53 2239.4 1033.39 2257.24 1033.39C2257.7 1032.4 2258.04 1031.37 2258.29 1030.31L2264.86 1030.82C2264.59 1031.78 2264.31 1032.64 2264.03 1033.39L2271.28 1033.39 2269.72 1031.03 2274.21 1029.74 2263.45 1029.74ZM2240.91 1015.87 2259.75 1015.87 2259.75 1029.74 2240.91 1029.74ZM2148.9 1015.67 2177.55 1015.67 2177.55 1020.7 2168.37 1026.35 2179.07 1026.35 2179.07 1048.44C2179.07 1050.39 2178.66 1051.75 2177.84 1052.52 2177.02 1053.29 2175.66 1053.68 2173.74 1053.68 2172.07 1053.68 2170.51 1053.59 2169.05 1053.42L2168.21 1048.59C2169.64 1048.83 2170.89 1048.94 2171.97 1048.9 2172.49 1048.9 2172.85 1048.72 2173.04 1048.36 2173.23 1048 2173.33 1047.38 2173.33 1046.49L2173.33 1045.87 2166.7 1045.87 2166.7 1052.81 2161.01 1052.81 2161.01 1045.87 2154.69 1045.87 2154.69 1053.11 2149.33 1053.11 2149.92 1053.68C2151.68 1054.64 2154.21 1055.22 2157.51 1055.42 2161.27 1055.63 2165.04 1055.73 2168.84 1055.73 2172.39 1055.73 2176.65 1055.61 2181.62 1055.37L2180.48 1060.92C2176.4 1061.13 2172.37 1061.23 2168.37 1061.23 2164.58 1061.23 2160.8 1061.13 2157.04 1060.92 2153.46 1060.72 2150.58 1060.09 2148.41 1059.05 2146.23 1058 2144.13 1056.31 2142.12 1053.99 2139.96 1056.97 2138.03 1059.4 2136.32 1061.28L2132.83 1055.78C2134.71 1054.07 2136.81 1051.92 2139.14 1049.31L2139.14 1037.04 2133.66 1037.04 2133.66 1031.13 2145.09 1031.13 2145.09 1049.06 2149.01 1052.8 2149.01 1026.35 2158.14 1026.35 2153.65 1023.73 2155.74 1020.75 2148.9 1020.75ZM2139.56 1015.1C2142.2 1018.08 2144.78 1021.11 2147.28 1024.19L2142.43 1028.2C2141.63 1027.11 2140.43 1025.56 2138.83 1023.58 2137.23 1021.59 2135.92 1020.02 2134.91 1018.85ZM2231.1 1015 2232.92 1021.01C2231.19 1021.69 2229.1 1022.32 2226.66 1022.88 2224.23 1023.45 2221.93 1023.89 2219.77 1024.19L2219.77 1030.92 2233.92 1030.92 2233.92 1036.98 2229.58 1036.98 2229.58 1061.85 2224.05 1061.85 2224.05 1036.98 2219.77 1036.98C2219.74 1041.37 2219.58 1044.96 2219.3 1047.75 2219.02 1050.54 2218.54 1053.03 2217.84 1055.22 2217.15 1057.41 2216.12 1059.67 2214.76 1062L2209.49 1059.43 2209.49 1060 2186.89 1060 2186.89 1016.85 2192.84 1016.85 2192.84 1019.52 2196.08 1018.18C2196.64 1019.14 2197.31 1020.5 2198.11 1022.24 2198.92 1023.99 2199.59 1025.56 2200.15 1026.97L2200.15 1015.26 2205.37 1015.26 2205.37 1026.66C2206.52 1024.43 2207.79 1021.58 2209.18 1018.08L2213.04 1019.67C2212.62 1020.84 2211.95 1022.43 2211.01 1024.45 2210.07 1026.47 2209.25 1028.08 2208.55 1029.28L2205.37 1027.84 2205.37 1031.08 2211.58 1031.08 2211.58 1036.63 2205.37 1036.63 2205.37 1037.91C2207.67 1040.03 2210.01 1042.43 2212.41 1045.1L2209.23 1048.7C2208.36 1047.6 2207.07 1046.08 2205.37 1044.12L2205.37 1052.86 2200.15 1052.86 2200.15 1042.63C2198.69 1045.58 2197.09 1048.17 2195.35 1050.39L2192.84 1045.77 2192.84 1054.19 2209.49 1054.19 2209.49 1058.82C2210.74 1056.55 2211.68 1054.43 2212.31 1052.45 2212.94 1050.46 2213.38 1048.17 2213.64 1045.56 2213.9 1042.96 2214.03 1039.54 2214.03 1035.29L2214.03 1018.75C2219.95 1018 2225.64 1016.75 2231.1 1015Z" fill-rule="evenodd"/><path d="M1918 979 1920.97 979 1920.97 1000.38 1933 1000.38 1933 1003 1918 1003Z" fill-rule="evenodd"/><path d="M1916 1072 1918.52 1072 1932.18 1090.79 1932.18 1072 1935 1072 1935 1096 1932.48 1096 1918.82 1077.18 1918.82 1096 1916 1096Z" fill-rule="evenodd"/><path d="M2340 979 2342.97 979 2342.97 1000.38 2355 1000.38 2355 1003 2340 1003Z" fill-rule="evenodd"/><path d="M2338 1072 2340.52 1072 2354.18 1090.79 2354.18 1072 2357 1072 2357 1096 2354.48 1096 2340.82 1077.18 2340.82 1096 2338 1096Z" fill-rule="evenodd"/><path d="M2564 1635.33C2564 1621.34 2575.34 1610 2589.33 1610L2952.67 1610C2966.66 1610 2978 1621.34 2978 1635.33L2978 1736.67C2978 1750.66 2966.66 1762 2952.67 1762L2589.33 1762C2575.34 1762 2564 1750.66 2564 1736.67Z" fill="#BFBFBF" fill-rule="evenodd"/><path d="M2564 1646.5C2564 1643.46 2566.46 1641 2569.5 1641L2716.5 1641C2719.54 1641 2722 1643.46 2722 1646.5L2722 1668.5C2722 1671.54 2719.54 1674 2716.5 1674L2569.5 1674C2566.46 1674 2564 1671.54 2564 1668.5Z" fill="#F93C23" fill-rule="evenodd"/><path d="M2564 1704.5C2564 1701.46 2566.46 1699 2569.5 1699L2716.5 1699C2719.54 1699 2722 1701.46 2722 1704.5L2722 1726.5C2722 1729.54 2719.54 1732 2716.5 1732L2569.5 1732C2566.46 1732 2564 1729.54 2564 1726.5Z" fill="#0F9ED5" fill-rule="evenodd"/><path d="M0 5.50012C-1.25722e-15 2.46249 2.46248-1.25722e-15 5.5001-1.25722e-15L152.5 0C155.537 -6.28611e-16 158 2.46249 158 5.50012L158 27.4999C158 30.5375 155.537 33 152.5 33L5.5001 33C2.46248 33 -6.28609e-16 30.5375 -6.28609e-16 27.4999Z" fill="#F93C23" fill-rule="evenodd" transform="matrix(-1 0 0 1 2978 1641)"/><path d="M0 5.50012C-1.25722e-15 2.46249 2.46248-1.25722e-15 5.5001-1.25722e-15L152.5 0C155.537 -6.28611e-16 158 2.46249 158 5.50012L158 27.4999C158 30.5375 155.537 33 152.5 33L5.5001 33C2.46248 33 -6.28609e-16 30.5375 -6.28609e-16 27.4999Z" fill="#0F9ED5" fill-rule="evenodd" transform="matrix(-1 0 0 1 2978 1699)"/><path d="M0 3.83341C0 1.71628 1.71628-1.20948e-15 3.83342-1.20948e-15L19.1666 0C21.2838 -6.04738e-16 23 1.71628 23 3.83341L23 148.167C23 150.284 21.2838 152 19.1666 152L3.83342 152C1.71628 152 0 150.284 0 148.167Z" fill="#A6A6A6" fill-rule="evenodd" transform="matrix(-1 0 0 1 2784 1610)"/><rect x="0" y="0" width="179" height="21" fill="#C00000" transform="matrix(-1 0 0 1 2320 1648)"/><rect x="0" y="0" width="72.9999" height="9.99997" fill="#E97132" transform="matrix(-1 0 0 1 2393 1653)"/><rect x="0" y="0" width="179" height="21" fill="#156082" transform="matrix(-1 0 0 1 2320 1704)"/><rect x="0" y="0" width="72.9999" height="9.99997" fill="#E97132" transform="matrix(-1 0 0 1 2393 1709)"/><rect x="3222" y="1648" width="179" height="21" fill="#C00000"/><rect x="3149" y="1653" width="72.9998" height="10" fill="#E97132"/><rect x="3222" y="1704" width="179" height="21"/><rect x="3149" y="1709" width="72.9998" height="10" fill="#E97132"/><path d="M2425 1670.35 2484.79 1670.35 2484.79 1644 2531 1686 2484.79 1728 2484.79 1701.65 2425 1701.65Z" fill="#BFBFBF" fill-rule="evenodd"/><path d="M0 26.3525 59.7934 26.3525 59.7934 0 106 42.0002 59.7934 84.0002 59.7934 57.6477 0 57.6477Z" fill="#BFBFBF" fill-rule="evenodd" transform="matrix(-1 0 0 1 3117 1644)"/><path d="M2564 1896.33C2564 1882.34 2575.34 1871 2589.33 1871L2952.67 1871C2966.66 1871 2978 1882.34 2978 1896.33L2978 1997.67C2978 2011.66 2966.66 2023 2952.67 2023L2589.33 2023C2575.34 2023 2564 2011.66 2564 1997.67Z" fill="#BFBFBF" fill-rule="evenodd"/><path d="M2564 1906.67C2564 1903.54 2566.54 1901 2569.67 1901L2716.33 1901C2719.46 1901 2722 1903.54 2722 1906.67L2722 1929.33C2722 1932.46 2719.46 1935 2716.33 1935L2569.67 1935C2566.54 1935 2564 1932.46 2564 1929.33Z" fill="#F93C23" fill-rule="evenodd"/><path d="M2564 1965.5C2564 1962.46 2566.46 1960 2569.5 1960L2716.5 1960C2719.54 1960 2722 1962.46 2722 1965.5L2722 1987.5C2722 1990.54 2719.54 1993 2716.5 1993L2569.5 1993C2566.46 1993 2564 1990.54 2564 1987.5Z" fill="#0F9ED5" fill-rule="evenodd"/><path d="M0 5.66667C0 2.53706 2.53705-2.51444e-15 5.66667-2.51444e-15L152.333 0C155.463-1.25722e-15 158 2.53706 158 5.66667L158 28.3332C158 31.4628 155.463 33.9999 152.333 33.9999L5.66667 33.9999C2.53705 33.9999 0 31.4628 0 28.3332Z" fill="#F93C23" fill-rule="evenodd" transform="matrix(-1 0 0 1 2978 1901)"/><path d="M0 5.50012C-1.25722e-15 2.46249 2.46248-1.25722e-15 5.5001-1.25722e-15L152.5 0C155.537 -6.28611e-16 158 2.46249 158 5.50012L158 27.4999C158 30.5375 155.537 33 152.5 33L5.5001 33C2.46248 33 -6.28609e-16 30.5375 -6.28609e-16 27.4999Z" fill="#0F9ED5" fill-rule="evenodd" transform="matrix(-1 0 0 1 2978 1960)"/><path d="M0 3.83341C0 1.71628 1.71628-1.20948e-15 3.83342-1.20948e-15L19.1666 0C21.2838 -6.04738e-16 23 1.71628 23 3.83341L23 148.167C23 150.284 21.2838 152 19.1666 152L3.83342 152C1.71628 152 0 150.284 0 148.167Z" fill="#A6A6A6" fill-rule="evenodd" transform="matrix(-1 0 0 1 2784 1871)"/><rect x="0" y="0" width="179" height="22" fill="#C00000" transform="matrix(-1 0 0 1 2564 1908)"/><rect x="0" y="0" width="179" height="22" fill="#156082" transform="matrix(-1 0 0 1 2564 1964)"/><rect x="2978" y="1908" width="179" height="22" fill="#C00000"/><rect x="2978" y="1964" width="179" height="22"/><path d="M1031 1524.17C1031 1515.24 1038.24 1508 1047.17 1508L1356.83 1508C1365.76 1508 1373 1515.24 1373 1524.17L1373 1588.83C1373 1597.76 1365.76 1605 1356.83 1605L1047.17 1605C1038.24 1605 1031 1597.76 1031 1588.83Z" fill="#A6A6A6" fill-rule="evenodd"/><path d="M1210 1524.17C1210 1515.24 1217.24 1508 1226.17 1508L1607.83 1508C1616.76 1508 1624 1515.24 1624 1524.17L1624 1588.83C1624 1597.76 1616.76 1605 1607.83 1605L1226.17 1605C1217.24 1605 1210 1597.76 1210 1588.83Z" fill="#BFBFBF" fill-rule="evenodd"/><path d="M0 3.66678C-7.7184e-16 1.64167 1.64168 0 3.66679 0L18.3332 0C20.3583 -7.71837e-16 22 1.64167 22 3.66678L22 93.3332C22 95.3583 20.3583 96.9999 18.3332 96.9999L3.66679 96.9999C1.64168 96.9999 0 95.3583 0 93.3332Z" fill="#A6A6A6" fill-rule="evenodd" transform="matrix(-1 0 0 1 1428 1508)"/><path d="M1055 1539.83C1055 1534.95 1058.95 1531 1063.83 1531L1099.17 1531C1104.05 1531 1108 1534.95 1108 1539.83L1108 1577.17C1108 1582.05 1104.05 1586 1099.17 1586L1063.83 1586C1058.95 1586 1055 1582.05 1055 1577.17Z" fill="#595959" fill-rule="evenodd"/><path d="M1131 1539.83C1131 1534.95 1134.95 1531 1139.83 1531L1175.17 1531C1180.04 1531 1184 1534.95 1184 1539.83L1184 1577.17C1184 1582.05 1180.04 1586 1175.17 1586L1139.83 1586C1134.95 1586 1131 1582.05 1131 1577.17Z" fill="#595959" fill-rule="evenodd"/><path d="M0 7.3335C-1.46411e-15 3.28332 3.28332 0 7.3335 0L36.6665 0C40.7167-1.46411e-15 44 3.28332 44 7.3335L44 38.6666C44 42.7167 40.7167 46.0001 36.6665 46.0001L7.3335 46.0001C3.28332 46.0001 0 42.7167 0 38.6666Z" fill="#F93C23" fill-rule="evenodd" transform="matrix(-1 0 0 1 1102 1509)"/><path d="M0 7.3335C-1.46411e-15 3.28332 3.28332 0 7.3335 0L36.6665 0C40.7167-1.46411e-15 44 3.28332 44 7.3335L44 38.6666C44 42.7167 40.7167 46.0001 36.6665 46.0001L7.3335 46.0001C3.28332 46.0001 0 42.7167 0 38.6666Z" fill="#00B0F0" fill-rule="evenodd" transform="matrix(-1 0 0 1 1179 1507)"/><path d="M1058 1567.17C1058 1563.76 1060.76 1561 1064.17 1561L1098.83 1561C1102.24 1561 1105 1563.76 1105 1567.17L1105 1577.83C1105 1581.24 1102.24 1584 1098.83 1584L1064.17 1584C1060.76 1584 1058 1581.24 1058 1577.83Z" fill="#C04F15" fill-rule="evenodd"/><path d="M1134 1567.17C1134 1563.76 1136.76 1561 1140.17 1561L1174.83 1561C1178.24 1561 1181 1563.76 1181 1567.17L1181 1577.83C1181 1581.24 1178.24 1584 1174.83 1584L1140.17 1584C1136.76 1584 1134 1581.24 1134 1577.83Z" fill="#C04F15" fill-rule="evenodd"/><path d="M0 26.2642 48.9346 26.2642 48.9346 0 94.9865 41.8594 48.9346 83.7187 48.9346 57.4545 0 57.4545Z" fill="#BFBFBF" fill-rule="evenodd" transform="matrix(0.468002 -0.883727 -0.883727 -0.468002 1218.54 1504.53)"/><path d="M1276.62 1410 1284 1410 1284 1458 1274.4 1458 1274.4 1420.48 1262 1427.42 1262 1418.32Z" fill-rule="evenodd"/><path d="M0 8.08793C0 3.62109 3.62107-2.94551e-15 8.08789-3.92735e-15L238.694 0C243.161-1.96368e-15 246.782 3.62109 246.782 8.08793L246.782 40.438C246.782 44.9049 243.161 48.526 238.694 48.526L8.08789 48.526C3.62107 48.526 0 44.9049 0 40.438Z" fill="#0B76A0" fill-rule="evenodd" transform="matrix(-0.899564 -0.436789 -0.436789 0.899564 1465.68 1949.6)"/><path d="M1095 1963.17C1095 1954.24 1102.24 1947 1111.17 1947L1420.83 1947C1429.76 1947 1437 1954.24 1437 1963.17L1437 2027.83C1437 2036.76 1429.76 2044 1420.83 2044L1111.17 2044C1102.24 2044 1095 2036.76 1095 2027.83Z" fill="#A6A6A6" fill-rule="evenodd"/><path d="M1274 1963.17C1274 1954.24 1281.24 1947 1290.17 1947L1671.83 1947C1680.76 1947 1688 1954.24 1688 1963.17L1688 2027.83C1688 2036.76 1680.76 2044 1671.83 2044L1290.17 2044C1281.24 2044 1274 2036.76 1274 2027.83Z" fill="#BFBFBF" fill-rule="evenodd"/><path d="M0 3.83343C-1.54368e-15 1.71628 1.71629 0 3.83345 0L19.1666 0C21.2837 -7.71837e-16 23 1.71628 23 3.83343L23 93.1665C23 95.2837 21.2837 96.9999 19.1666 96.9999L3.83345 96.9999C1.71629 96.9999 0 95.2837 0 93.1665Z" fill="#A6A6A6" fill-rule="evenodd" transform="matrix(-1 0 0 1 1493 1947)"/><path d="M1119 1978.83C1119 1973.95 1122.95 1970 1127.83 1970L1163.17 1970C1168.04 1970 1172 1973.95 1172 1978.83L1172 2016.17C1172 2021.05 1168.04 2025 1163.17 2025L1127.83 2025C1122.95 2025 1119 2021.05 1119 2016.17Z" fill="#595959" fill-rule="evenodd"/><path d="M1195 1978.83C1195 1973.95 1198.95 1970 1203.83 1970L1239.17 1970C1244.04 1970 1248 1973.95 1248 1978.83L1248 2016.17C1248 2021.05 1244.04 2025 1239.17 2025L1203.83 2025C1198.95 2025 1195 2021.05 1195 2016.17Z" fill="#595959" fill-rule="evenodd"/><path d="M0 7.3335C-1.46411e-15 3.28332 3.28332 0 7.3335 0L36.6665 0C40.7167-1.46411e-15 44 3.28332 44 7.3335L44 38.6666C44 42.7167 40.7167 46.0001 36.6665 46.0001L7.3335 46.0001C3.28332 46.0001 0 42.7167 0 38.6666Z" fill="#F93C23" fill-rule="evenodd" transform="matrix(-1 0 0 1 1166 1948)"/><path d="M0 7.3335C-1.46411e-15 3.28332 3.28332 0 7.3335 0L36.6665 0C40.7167-1.46411e-15 44 3.28332 44 7.3335L44 38.6666C44 42.7167 40.7167 46.0001 36.6665 46.0001L7.3335 46.0001C3.28332 46.0001 0 42.7167 0 38.6666Z" fill="#595959" fill-rule="evenodd" transform="matrix(-1 0 0 1 1243 1946)"/><path d="M0 7.27178C-1.5445e-15 3.25569 3.25569 0 7.27179 0L36.3579 0C40.374-1.5445e-15 43.6297 3.25569 43.6297 7.27178L43.6297 41.2542C43.6297 45.2703 40.374 48.526 36.3579 48.526L7.27179 48.526C3.25569 48.526 0 45.2703 0 41.2542Z" fill="#00B0F0" fill-rule="evenodd" transform="matrix(-0.899564 -0.436789 -0.436789 0.899564 1269.45 1854.1)"/><path d="M1122 2006.91C1122 2003.64 1124.64 2001 1127.91 2001L1163.09 2001C1166.36 2001 1169 2003.64 1169 2006.91L1169 2017.09C1169 2020.36 1166.36 2023 1163.09 2023L1127.91 2023C1124.64 2023 1122 2020.36 1122 2017.09Z" fill="#C04F15" fill-rule="evenodd"/><path d="M1198 2006.91C1198 2003.64 1200.64 2001 1203.91 2001L1240.09 2001C1243.36 2001 1246 2003.64 1246 2006.91L1246 2017.09C1246 2020.36 1243.36 2023 1240.09 2023L1203.91 2023C1200.64 2023 1198 2020.36 1198 2017.09Z" fill="#C04F15" fill-rule="evenodd"/><rect x="0" y="0" width="179.22" height="34.0949" transform="matrix(-0.975596 0.219574 0.219574 0.975596 1133.96 2008.53)"/><path d="M0 0 3.62572 16.1084 114.12 16.1084 114.12 0Z" fill="#E97132" fill-rule="evenodd" transform="matrix(-0.975596 0.219574 0.219574 0.975596 1247.27 1992.24)"/><path d="M0 26.2642 48.9346 26.2642 48.9346 0 94.9865 41.8594 48.9346 83.7187 48.9346 57.4545 0 57.4545Z" fill="#BFBFBF" fill-rule="evenodd" transform="matrix(0.972499 -0.232907 -0.232907 -0.972499 863.119 2132.91)"/><path d="M843.305 1993C846.337 1993 848.968 1993.62 851.198 1994.87 853.428 1996.12 855.139 1997.84 856.33 2000.03 857.521 2002.22 858.116 2004.71 858.116 2007.52 858.116 2010.27 857.456 2012.85 856.135 2015.23 854.814 2017.62 852.465 2020.72 849.087 2024.53L840.967 2033.66 860 2033.66 860 2042 827.195 2042 827.195 2035.83 841.551 2019.54C844.02 2016.73 845.741 2014.53 846.716 2012.94 847.69 2011.34 848.177 2009.68 848.177 2007.98 848.177 2006.09 847.658 2004.58 846.618 2003.44 845.579 2002.31 844.172 2001.74 842.396 2001.74 840.577 2001.74 838.975 2002.4 837.589 2003.74 836.203 2005.07 835.142 2006.97 834.406 2009.42L827 2005.09C828.126 2001.19 830.161 1998.2 833.107 1996.12 836.051 1994.04 839.451 1993 843.305 1993Z" fill-rule="evenodd"/><path d="M0 26.2642 48.9346 26.2642 48.9346 0 94.9865 41.8594 48.9346 83.7187 48.9346 57.4545 0 57.4545Z" fill="#BFBFBF" fill-rule="evenodd" transform="matrix(-0.5 0.866025 0.866025 0.5 1284.39 1730.03)"/><path d="M1375.97 1765C1379.03 1765 1381.72 1765.56 1384.05 1766.68 1386.38 1767.8 1388.19 1769.38 1389.47 1771.4 1390.76 1773.42 1391.4 1775.75 1391.4 1778.39 1391.4 1780.85 1390.84 1782.99 1389.71 1784.79 1388.58 1786.59 1386.9 1788 1384.68 1789.01 1387.39 1790.02 1389.45 1791.51 1390.87 1793.46 1392.29 1795.42 1393 1797.85 1393 1800.75 1393 1803.74 1392.23 1806.3 1390.7 1808.44 1389.17 1810.57 1387.11 1812.2 1384.52 1813.32 1381.92 1814.44 1379.05 1815 1375.9 1815 1371.86 1815 1368.35 1814.05 1365.35 1812.16 1362.36 1810.27 1360.24 1807.52 1359 1803.92L1366.65 1799.57C1367.36 1801.85 1368.54 1803.58 1370.18 1804.74 1371.82 1805.91 1373.66 1806.49 1375.7 1806.49 1377.7 1806.49 1379.37 1805.92 1380.72 1804.78 1382.08 1803.63 1382.75 1802.05 1382.75 1800.03 1382.75 1795.58 1379.34 1793.36 1372.51 1793.36L1370.71 1793.36 1370.71 1785.45 1373.31 1785.45C1375.83 1785.45 1377.77 1784.84 1379.13 1783.64 1380.48 1782.43 1381.16 1780.92 1381.16 1779.12 1381.16 1777.45 1380.6 1776.1 1379.49 1775.09 1378.38 1774.08 1376.94 1773.58 1375.17 1773.58 1373.26 1773.58 1371.61 1774.18 1370.21 1775.39 1368.81 1776.6 1367.74 1778.32 1366.98 1780.57L1359.67 1776.41C1360.82 1772.72 1362.84 1769.89 1365.72 1767.94 1368.6 1765.98 1372.02 1765 1375.97 1765Z" fill-rule="evenodd"/><path d="M1480.5 1038C1480.5 934.999 1564 851.5 1667 851.5 1770 851.5 1853.5 934.999 1853.5 1038 1853.5 1141 1770 1224.5 1667 1224.5 1564 1224.5 1480.5 1141 1480.5 1038Z" stroke="#0F9ED5" stroke-width="6.875" stroke-miterlimit="8" stroke-dasharray="27.5 20.625" fill="none" fill-rule="evenodd"/><path d="M2420.5 1038C2420.5 934.999 2504 851.5 2607 851.5 2710 851.5 2793.5 934.999 2793.5 1038 2793.5 1141 2710 1224.5 2607 1224.5 2504 1224.5 2420.5 1141 2420.5 1038Z" stroke="#0F9ED5" stroke-width="6.875" stroke-miterlimit="8" stroke-dasharray="27.5 20.625" fill="none" fill-rule="evenodd"/></g></svg>