<svg width="2494" height="1282" xmlns="http://www.w3.org/2000/svg" xmlns:xlink="http://www.w3.org/1999/xlink" xml:space="preserve" overflow="hidden"><g transform="translate(-1042 -330)"><path d="M1379 743.856 1379 408" stroke="#000000" stroke-width="13.75" stroke-miterlimit="8" fill="none" fill-rule="evenodd"/><path d="M1328 743.856 1328 408" stroke="#C00000" stroke-width="13.75" stroke-miterlimit="8" fill="none" fill-rule="evenodd"/><path d="M1380 1550.57 1380 1433" stroke="#000000" stroke-width="13.75" stroke-miterlimit="8" fill="none" fill-rule="evenodd"/><path d="M1329 1600.4 1329 1433" stroke="#C00000" stroke-width="13.75" stroke-miterlimit="8" fill="none" fill-rule="evenodd"/><path d="M1329 964 1329 1233.59" stroke="#196B24" stroke-width="13.75" stroke-linecap="square" stroke-miterlimit="8" fill="none" fill-rule="evenodd"/><path d="M0 0 0.000360892 218.683" stroke="#196B24" stroke-width="13.75" stroke-linecap="square" stroke-miterlimit="8" fill="none" fill-rule="evenodd" transform="matrix(-1 1.22465e-16 1.22465e-16 1 1380 1015)"/><path d="M2812 1550.26 2812 699" stroke="#000000" stroke-width="13.75" stroke-miterlimit="8" fill="none" fill-rule="evenodd"/><rect x="1776.5" y="627.5" width="832" height="463" stroke="#595959" stroke-width="6.875" stroke-miterlimit="8" fill="#F2F2F2"/><rect x="2183.5" y="990.5" width="162" height="65.0003" stroke="#A6A6A6" stroke-width="6.875" stroke-miterlimit="8" fill="#FFFFFF"/><rect x="1972.5" y="990.5" width="161" height="65.0003" stroke="#A6A6A6" stroke-width="6.875" stroke-miterlimit="8" fill="#FFFFFF"/><path d="M2161.19 848.412 2176.33 856.188C2180.97 858.657 2184.6 860.539 2187.2 861.835L2183.95 868.778C2180.48 866.68 2176 864.134 2170.52 861.141 2165.04 858.148 2160.85 855.942 2157.94 854.522ZM2128.68 847.857 2133.14 853.226C2130.04 855.571 2126.17 858.117 2121.52 860.863 2116.88 863.61 2112.17 866.186 2107.4 868.593L2103.78 862.021C2107.93 860.169 2112.31 857.932 2116.93 855.309 2121.54 852.686 2125.46 850.202 2128.68 847.857ZM2104.8 839.896 2187.38 839.896 2187.38 846.468 2150.78 846.468 2150.78 859.799C2150.78 863.316 2150.01 865.831 2148.46 867.343 2146.91 868.855 2144.34 869.611 2140.75 869.611 2136.79 869.611 2133.38 869.457 2130.53 869.148L2129.23 862.113C2132.33 862.607 2135.18 862.853 2137.78 862.853 2139.27 862.853 2140.36 862.715 2141.08 862.437 2141.79 862.159 2142.28 861.619 2142.56 860.817 2142.84 860.015 2142.98 858.781 2142.98 857.114L2142.98 846.468 2104.8 846.468ZM2113.63 825.917 2178.65 825.917 2178.65 832.397 2113.63 832.397ZM2237.54 825.269 2237.54 831.657 2268.85 831.657 2268.85 825.269ZM2237.54 814.068 2237.54 820.178 2268.85 820.178 2268.85 814.068ZM2231.04 808.421 2275.16 808.421 2275.16 837.304 2256.22 837.304 2256.03 842.302 2256.03 843.414 2280.18 843.414 2280.18 849.801 2258.07 849.801C2260.3 853.133 2263.23 855.926 2266.85 858.179 2270.47 860.431 2275.29 862.298 2281.3 863.779L2278.79 870.352C2267.15 867.266 2258.51 861.681 2252.87 853.596 2248.6 860.57 2239.62 866.155 2225.93 870.352L2223.15 863.687C2229.34 862.082 2234.4 860.138 2238.33 857.855 2242.27 855.571 2245.1 852.887 2246.83 849.801L2224.82 849.801 2224.82 843.414 2248.78 843.414 2248.88 842.302C2248.94 841.438 2248.97 839.772 2248.97 837.304L2231.04 837.304ZM2343.62 807.403 2343.53 825.639C2343.53 826.689 2343.5 827.46 2343.44 827.954L2358.02 827.954 2358.02 807.403ZM2016 802.589 2023.43 802.589 2023.43 868.963 2016 868.963ZM2042.38 791.851 2089.94 791.851 2089.94 856.003C2089.94 859.706 2089.54 862.437 2088.73 864.196 2087.93 865.955 2086.52 867.127 2084.51 867.714 2082.49 868.3 2079.38 868.593 2075.17 868.593 2073.19 868.593 2070.09 868.47 2065.88 868.223L2064.4 860.539C2067.86 860.91 2071.33 861.095 2074.8 861.095 2077.03 861.095 2078.67 860.91 2079.72 860.539 2080.78 860.169 2081.49 859.475 2081.86 858.457 2082.23 857.438 2082.42 855.787 2082.42 853.504L2082.42 799.071 2042.38 799.071ZM2301.27 786.296 2308.42 786.296 2308.42 810.643 2318.36 810.643 2318.36 817.956 2308.42 817.956 2308.42 846.376 2318.54 842.858 2319.1 850.449C2309.75 854.028 2300.06 857.33 2290.03 860.354L2288.26 852.578C2292.84 851.344 2297.18 850.048 2301.27 848.69L2301.27 817.956 2290.4 817.956 2290.4 810.643 2301.27 810.643ZM2209.21 785.648 2215.99 785.648 2215.99 803.144 2226.03 803.144 2226.03 809.81 2215.99 809.81 2215.99 814.901C2221.32 821.196 2224.97 825.67 2226.95 828.324L2223.15 834.989C2222.09 833.446 2220.58 831.163 2218.59 828.139L2215.99 824.158 2215.99 869.982 2209.21 869.982 2209.21 824.992C2205.87 834.557 2202.46 842.086 2198.99 847.579L2194.44 841.192C2197.23 836.933 2199.91 831.996 2202.48 826.38 2205.05 820.764 2207.14 815.241 2208.75 809.81L2197.32 809.81 2197.32 803.144 2209.21 803.144ZM2336.29 785.556 2343.72 785.556 2343.72 800.182 2365.27 800.182 2365.27 827.954 2373.91 827.954 2373.91 835.174 2344.83 835.174C2346.94 841.593 2350.31 847.024 2354.96 851.467 2359.6 855.911 2365.95 859.799 2374 863.131L2369.82 870.352C2362.45 867.081 2356.37 863.116 2351.57 858.457 2346.77 853.797 2343.1 848.289 2340.56 841.932 2338.39 847.363 2335.02 852.439 2330.43 857.16 2325.85 861.882 2319.78 866.495 2312.23 871L2308.05 864.15C2316.41 859.583 2322.72 855.062 2327 850.588 2331.27 846.114 2334.03 840.976 2335.26 835.174L2315.29 835.174 2315.29 827.954 2336.19 827.954 2336.19 826.195 2336.19 807.403 2319.38 807.403 2319.38 800.182 2336.29 800.182ZM2160.82 785.556 2167.23 785.556 2167.23 794.443 2185.34 794.443 2185.34 800.83 2171.78 800.83C2176.11 807.372 2181.72 812.803 2188.59 817.123L2184.5 822.955C2177.57 818.326 2171.81 811.784 2167.23 803.33L2167.23 822.307 2160.82 822.307 2160.82 804.44C2157.16 811.599 2152.52 817.4 2146.88 821.844L2142.42 817.03C2145.71 814.623 2148.49 812.109 2150.78 809.486 2153.08 806.863 2155.15 803.978 2157.01 800.83L2147.72 800.83 2147.72 794.443 2160.82 794.443ZM2123.29 785.556 2129.88 785.556 2129.88 794.443 2143.72 794.443 2143.72 800.83 2129.88 800.83 2129.88 802.867C2132.42 804.101 2136.48 806.292 2142.05 809.439L2138.89 814.716C2136.79 813.235 2133.79 811.445 2129.88 809.347L2129.88 822.307 2123.29 822.307 2123.29 805.736C2121.43 809.069 2119.22 812.155 2116.65 814.994 2114.08 817.833 2110.9 820.548 2107.13 823.14L2103.6 816.938C2111.15 812.186 2116.69 806.817 2120.22 800.83L2106.66 800.83 2106.66 794.443 2123.29 794.443ZM2238.57 785.463 2245.25 785.463 2245.25 794.165 2259.84 794.165 2259.84 785.463 2266.53 785.463 2266.53 794.165 2280.18 794.165 2280.18 800.645 2266.53 800.645 2266.53 805.736 2259.84 805.736 2259.84 800.645 2245.25 800.645 2245.25 805.736 2238.57 805.736 2238.57 800.645 2226.3 800.645 2226.3 794.165 2238.57 794.165ZM2023.15 785C2025.32 786.728 2027.92 789.042 2030.96 791.943 2033.99 794.844 2036.44 797.312 2038.29 799.349L2032.81 805.181C2030.89 803.021 2028.4 800.398 2025.34 797.312 2022.27 794.227 2019.81 791.881 2017.95 790.277Z" fill-rule="evenodd"/><path d="M2044.25 999.668 2068.95 999.668 2068.95 1004.06 2049.15 1004.06 2049.15 1017.8 2066.86 1017.8 2066.86 1022.2 2049.15 1022.2 2049.15 1040.39 2044.25 1040.39ZM2003 999.668 2007.13 999.668 2029.51 1031.54 2029.51 999.668 2034.13 999.668 2034.13 1040.39 2030.01 1040.39 2007.62 1008.46 2007.62 1040.39 2003 1040.39ZM2091.47 999C2093.52 999 2095.44 999.334 2097.22 1000 2099 1000.67 2100.55 1001.63 2101.89 1002.89 2103.23 1004.16 2104.27 1005.66 2105 1007.4L2101.04 1009.74C2100.05 1007.77 2098.76 1006.25 2097.16 1005.17 2095.57 1004.1 2093.63 1003.56 2091.36 1003.56 2088.79 1003.56 2086.52 1004.25 2084.54 1005.62 2082.56 1006.99 2081.03 1008.92 2079.95 1011.41 2078.87 1013.89 2078.32 1016.75 2078.32 1019.97 2078.32 1023.2 2078.87 1026.06 2079.95 1028.57 2081.03 1031.07 2082.56 1033.01 2084.54 1034.38 2086.52 1035.75 2088.79 1036.44 2091.36 1036.44 2093.63 1036.44 2095.57 1035.9 2097.16 1034.83 2098.76 1033.75 2100.05 1032.23 2101.04 1030.26L2105 1032.6C2104.27 1034.34 2103.23 1035.85 2101.89 1037.11 2100.55 1038.37 2099 1039.33 2097.22 1040 2095.44 1040.67 2093.52 1041 2091.47 1041 2088.06 1041 2084.96 1040.11 2082.17 1038.33 2079.39 1036.55 2077.19 1034.06 2075.57 1030.88 2073.96 1027.69 2073.15 1024.05 2073.15 1019.97 2073.15 1015.89 2073.96 1012.26 2075.57 1009.07 2077.19 1005.88 2079.39 1003.4 2082.17 1001.64 2084.96 999.881 2088.06 999 2091.47 999Z" fill-rule="evenodd"/><path d="M2286.2 1032.27 2286.47 1036.38C2283.02 1037.22 2281.54 1037.59 2282.02 1037.48 2275.82 1039.01 2270.96 1040.14 2267.44 1040.88L2266.56 1036.71C2271.18 1035.76 2277.72 1034.28 2286.2 1032.27ZM2235.7 1032.05 2235.7 1037.48 2253.3 1037.48 2253.3 1032.05ZM2235.7 1022.67 2235.7 1028.21 2253.3 1028.21 2253.3 1022.67ZM2231.57 1018.95 2257.59 1018.95 2257.59 1043.89 2253.3 1043.89 2253.3 1041.26 2235.7 1041.26 2235.7 1043.95 2231.57 1043.95ZM2293.73 1006.77C2294.24 1010.79 2295.04 1014.38 2296.12 1017.52 2297.21 1020.66 2298.59 1023.5 2300.28 1026.02 2301.96 1023.57 2303.33 1020.78 2304.38 1017.66 2305.42 1014.53 2306.22 1010.9 2306.77 1006.77ZM2231.57 994.493 2235.86 994.493 2235.86 1002.06C2238.98 1001.44 2242.62 1000.58 2246.78 999.483 2250.94 998.386 2254.42 997.381 2257.21 996.467L2258.42 1000.47C2255.37 1001.38 2251.72 1002.37 2247.47 1003.43 2243.22 1004.49 2239.35 1005.39 2235.86 1006.12L2235.86 1007.32C2235.86 1008.71 2236.05 1009.63 2236.41 1010.09 2236.78 1010.55 2237.51 1010.81 2238.61 1010.89 2241.69 1011.03 2243.99 1011.11 2245.49 1011.11 2247.03 1011.11 2249.3 1011.03 2252.31 1010.89 2253.67 1010.81 2254.59 1010.54 2255.09 1010.06 2255.58 1009.59 2255.87 1008.71 2255.94 1007.43 2256.01 1005.97 2256.05 1004.67 2256.05 1003.54L2260.29 1004.42C2260.29 1005.73 2260.2 1007.34 2260.01 1009.24 2259.87 1011.25 2259.36 1012.64 2258.5 1013.41 2257.64 1014.18 2256.12 1014.61 2253.96 1014.72 2250.37 1014.87 2247.64 1014.94 2245.76 1014.94 2243.97 1014.94 2241.24 1014.87 2237.57 1014.72 2235.37 1014.61 2233.82 1014.09 2232.92 1013.16 2232.02 1012.23 2231.57 1010.56 2231.57 1008.14ZM2218.87 994.274 2223.27 994.274 2223.27 1003.92 2229.32 1003.92 2229.32 1008.09 2223.27 1008.09 2223.27 1017.36 2228.55 1015.44 2229.26 1019.77C2228.75 1019.99 2227.26 1020.52 2224.81 1021.36 2224.59 1021.43 2224.36 1021.51 2224.12 1021.6 2223.88 1021.7 2223.6 1021.8 2223.27 1021.91L2223.27 1037.64C2223.27 1039.14 2223.09 1040.27 2222.74 1041.04 2222.4 1041.81 2221.78 1042.36 2220.9 1042.71 2220.02 1043.06 2218.72 1043.27 2217 1043.34 2215.79 1043.38 2214.34 1043.31 2212.65 1043.12L2211.83 1038.96C2213.11 1039.18 2214.39 1039.29 2215.68 1039.29 2217 1039.29 2217.86 1039.08 2218.26 1038.65 2218.66 1038.23 2218.87 1037.44 2218.87 1036.27L2218.87 1023.39C2216.19 1024.26 2213.86 1025.05 2211.88 1025.74L2211 1021.41C2211.77 1021.19 2213.64 1020.59 2216.61 1019.6 2217.01 1019.46 2217.41 1019.32 2217.79 1019.19 2218.18 1019.06 2218.54 1018.95 2218.87 1018.84L2218.87 1008.09 2212.1 1008.09 2212.1 1003.92 2218.87 1003.92ZM2300.55 994.219C2301.8 997.399 2302.81 1000.18 2303.58 1002.55L2316.28 1002.55 2316.28 1006.77 2311.11 1006.77C2310.34 1011.89 2309.33 1016.26 2308.06 1019.88 2306.8 1023.5 2305.12 1026.71 2303.03 1029.53 2306.4 1033.25 2311.06 1036.6 2317 1039.56L2314.58 1043.67C2308.49 1040.34 2303.69 1036.73 2300.17 1032.82 2298.3 1034.75 2296.12 1036.63 2293.62 1038.44 2291.13 1040.24 2288.18 1042.1 2284.77 1044L2281.96 1040.27C2285.44 1038.55 2288.44 1036.83 2290.95 1035.09 2293.47 1033.35 2295.64 1031.48 2297.47 1029.47 2295.42 1026.58 2293.74 1023.29 2292.44 1019.58 2291.14 1015.87 2290.14 1011.6 2289.44 1006.77L2285.87 1006.77 2285.87 1002.55 2299.29 1002.55C2298.63 1000.58 2297.71 998.148 2296.54 995.261ZM2277.06 994 2280.75 995.809C2279.61 998.441 2278.25 1001.29 2276.65 1004.36 2275.06 1007.43 2273.71 1009.77 2272.61 1011.38L2279.15 1010.17C2279.78 1009 2280.62 1007.34 2281.68 1005.18L2285.54 1007.1C2284.03 1010.14 2282.32 1013.33 2280.39 1016.7 2278.47 1020.06 2276.75 1022.71 2275.25 1024.65L2285.32 1022.18 2285.37 1026.24 2276.95 1028.05 2271.78 1029.2 2268.98 1029.8 2267.99 1025.41C2268.76 1025.16 2269.37 1024.87 2269.83 1024.54 2270.29 1024.21 2270.76 1023.71 2271.23 1023.06 2273.18 1020.32 2275.1 1017.3 2277.01 1014.01L2270.13 1015.22 2267.6 1015.66 2266.61 1011.49C2267.24 1011.27 2267.72 1011.02 2268.07 1010.75 2268.42 1010.47 2268.76 1010.1 2269.09 1009.63 2269.97 1008.38 2271.2 1006.2 2272.77 1003.07 2274.35 999.948 2275.78 996.924 2277.06 994Z" fill-rule="evenodd"/><rect x="2484.5" y="924.5" width="90.9998" height="131" stroke="#A6A6A6" stroke-width="6.875" stroke-miterlimit="8" fill="#FFFFFF"/><path d="M2519.74 1027.07 2524.21 1027.07 2524.21 1033.51C2524.21 1034.83 2524.46 1035.72 2524.96 1036.18 2525.47 1036.64 2526.41 1036.91 2527.79 1036.98 2529.72 1037.05 2531.16 1037.09 2532.09 1037.09 2533.05 1037.09 2534.47 1037.05 2536.33 1036.98 2537.9 1036.91 2538.95 1036.68 2539.49 1036.29 2540.03 1035.91 2540.32 1035.13 2540.35 1033.95L2540.52 1028.78 2544.88 1029.82C2544.77 1031.73 2544.62 1033.64 2544.43 1035.55 2544.28 1036.98 2543.97 1038.07 2543.48 1038.83 2543 1039.58 2542.28 1040.09 2541.33 1040.37 2540.38 1040.64 2539.07 1040.82 2537.39 1040.89 2534.94 1040.96 2533.05 1041 2531.75 1041 2530.52 1041 2528.64 1040.96 2526.11 1040.89 2524.47 1040.82 2523.21 1040.6 2522.31 1040.23 2521.42 1039.86 2520.77 1039.23 2520.36 1038.33 2519.95 1037.43 2519.74 1036.15 2519.74 1034.5ZM2512.54 1026.9 2516.39 1028.67C2514.49 1032.67 2512.26 1036.56 2509.69 1040.34L2506 1037.97C2508.5 1034.67 2510.67 1030.98 2512.54 1026.9ZM2549.12 1025.86C2550.99 1028.35 2553.61 1032.17 2557 1037.31L2553.26 1039.57C2552.21 1037.84 2550.97 1035.89 2549.51 1033.7 2548.06 1031.52 2546.76 1029.68 2545.6 1028.17ZM2532.09 1024.43C2533.5 1026.04 2535.38 1028.39 2537.73 1031.47L2534.49 1033.84C2532.07 1030.61 2530.21 1028.24 2528.9 1026.74ZM2521.64 999.485C2520.04 1001.21 2518.2 1002.93 2516.11 1004.66L2533.99 1004.66C2536.78 1001.65 2538.4 999.925 2538.85 999.485ZM2523.04 991.005 2527.56 992.382C2526.71 993.593 2525.85 994.713 2524.99 995.741L2544.99 995.741 2544.99 999.099 2539.68 1004.66 2551.14 1004.66 2551.14 1023.88 2512.26 1023.88 2512.26 1020.13 2547 1020.13 2547 1016.06 2514.16 1016.06 2514.16 1012.48 2547 1012.48 2547 1008.4 2513.54 1008.4 2513.54 1006.7C2512.65 1007.43 2511.44 1008.31 2509.91 1009.34L2507.17 1005.98C2510.52 1003.85 2513.55 1001.51 2516.25 998.961 2518.95 996.41 2521.21 993.758 2523.04 991.005ZM2522.53 952.683C2523.61 955.069 2524.87 958.391 2526.31 962.649 2527.74 966.907 2528.85 970.725 2529.63 974.102L2525.55 975.478C2524.73 972.028 2523.63 968.146 2522.26 963.833 2520.88 959.52 2519.65 956.207 2518.57 953.895ZM2548.73 951.802 2553.09 952.959C2552.31 956.666 2551.02 961.126 2549.24 966.338 2547.45 971.55 2545.62 976.157 2543.76 980.158L2556.61 980.158 2556.61 984.398 2516.11 984.398 2516.11 980.158 2539.07 980.158C2541.08 976.157 2542.98 971.505 2544.77 966.201 2546.55 960.896 2547.88 956.097 2548.73 951.802ZM2535.55 950.866C2536.26 953.032 2537.06 956.152 2537.95 960.227 2538.85 964.301 2539.53 967.972 2540.02 971.239L2535.66 972.34C2535.25 969.036 2534.61 965.338 2533.73 961.245 2532.86 957.152 2532.03 953.968 2531.25 951.692ZM2534.38 936C2535.38 938.092 2536.26 940.166 2537 942.222L2556.05 942.222 2556.05 946.571 2515.72 946.571 2515.72 957.418C2515.72 961.787 2515.6 965.475 2515.36 968.486 2515.11 971.496 2514.61 974.478 2513.85 977.433 2513.09 980.388 2511.92 983.462 2510.36 986.656L2506.34 984.288C2507.79 981.388 2508.88 978.58 2509.6 975.864 2510.33 973.147 2510.8 970.422 2511.03 967.687 2511.25 964.953 2511.36 961.585 2511.36 957.583L2511.36 942.222 2531.97 942.222C2531.19 940.203 2530.5 938.551 2529.91 937.266Z" fill-rule="evenodd"/><path d="M2818.88 699 2575 698.999" stroke="#000000" stroke-width="13.75" stroke-miterlimit="8" fill="none" fill-rule="evenodd"/><path d="M2761.17 750 2575 750" stroke="#C00000" stroke-width="13.75" stroke-linecap="square" stroke-miterlimit="8" fill="none" fill-rule="evenodd"/><path d="M1808.02 699 1361 698.999" stroke="#000000" stroke-width="13.75" stroke-miterlimit="8" fill="none" fill-rule="evenodd"/><path d="M1808.02 750 1361 750" stroke="#C00000" stroke-width="13.75" stroke-miterlimit="8" fill="none" fill-rule="evenodd"/><path d="M0 0 480.749 0.000360892" stroke="#196B24" stroke-width="13.75" stroke-linecap="square" stroke-miterlimit="8" fill="none" fill-rule="evenodd" transform="matrix(-1 0 0 1 1808.75 964)"/><path d="M0 0 429.844 0.000360892" stroke="#196B24" stroke-width="13.75" stroke-linecap="square" stroke-miterlimit="8" fill="none" fill-rule="evenodd" transform="matrix(-1 0 0 1 1808.84 1015)"/><rect x="2022" y="1055" width="63.9999" height="179" fill="#156082"/><rect x="2915.5" y="1216.5" width="617" height="200" stroke="#595959" stroke-width="6.875" stroke-miterlimit="8" fill="#F2F2F2"/><path d="M3095.2 1334.88C3096.25 1334.88 3097.13 1335.25 3097.85 1335.98 3098.57 1336.72 3098.93 1337.61 3098.93 1338.65 3098.93 1339.69 3098.57 1340.58 3097.85 1341.32 3097.13 1342.05 3096.25 1342.42 3095.2 1342.42 3094.2 1342.42 3093.34 1342.04 3092.62 1341.28 3091.9 1340.53 3091.55 1339.65 3091.55 1338.65 3091.55 1337.61 3091.9 1336.72 3092.62 1335.98 3093.34 1335.25 3094.2 1334.88 3095.2 1334.88ZM3353.43 1332.14 3353.95 1337.41C3352.17 1337.67 3348.6 1338.4 3343.24 1339.59 3337.88 1340.79 3334.07 1341.71 3331.8 1342.36L3330.82 1337.28C3334 1336.5 3338.14 1335.53 3343.24 1334.36 3348.33 1333.19 3351.73 1332.45 3353.43 1332.14ZM3363.56 1327.53 3363.56 1339.1 3380.68 1339.1 3380.68 1327.53ZM3276.73 1321.35 3281.49 1323.3C3276.96 1333.75 3273.76 1341.3 3271.89 1345.94L3267.12 1343.79C3268.34 1341.14 3270.08 1337.21 3272.35 1331.98 3274.61 1326.76 3276.07 1323.21 3276.73 1321.35ZM3068.62 1318.68C3066.66 1318.68 3064.98 1319.06 3063.58 1319.82 3062.19 1320.58 3061.11 1321.66 3060.35 1323.07 3059.59 1324.48 3059.21 1326.14 3059.21 1328.05 3059.21 1329.95 3059.6 1331.59 3060.38 1332.96 3061.17 1334.32 3062.27 1335.38 3063.68 1336.11 3065.1 1336.85 3066.74 1337.22 3068.62 1337.22 3070.45 1337.22 3072.06 1336.85 3073.45 1336.11 3074.84 1335.38 3075.93 1334.31 3076.72 1332.93 3077.5 1331.54 3077.89 1329.91 3077.89 1328.05 3077.89 1326.14 3077.52 1324.48 3076.78 1323.07 3076.04 1321.66 3074.97 1320.58 3073.58 1319.82 3072.19 1319.06 3070.53 1318.68 3068.62 1318.68ZM3231.58 1315.17 3231.58 1324.86 3247.58 1324.86 3247.58 1315.17ZM3210.93 1315.17 3210.93 1324.86 3226.28 1324.86 3226.28 1315.17ZM3363.56 1311.59 3363.56 1322.58 3380.68 1322.58 3380.68 1311.59ZM3268.23 1304.17C3271.54 1306.56 3275.72 1309.68 3280.78 1313.54L3277.77 1317.9C3271.93 1313.39 3267.77 1310.22 3265.29 1308.4ZM3231.58 1300.92 3231.58 1310.55 3247.58 1310.55 3247.58 1300.92ZM3210.93 1300.92 3210.93 1310.55 3226.28 1310.55 3226.28 1300.92ZM3068.62 1298.32C3066.96 1298.32 3065.54 1298.64 3064.37 1299.29 3063.19 1299.94 3062.29 1300.83 3061.66 1301.96 3061.03 1303.09 3060.71 1304.39 3060.71 1305.86 3060.71 1308.08 3061.42 1309.88 3062.83 1311.26 3064.25 1312.65 3066.18 1313.35 3068.62 1313.35 3071.01 1313.35 3072.91 1312.64 3074.3 1311.23 3075.69 1309.82 3076.39 1308.03 3076.39 1305.86 3076.39 1304.39 3076.07 1303.09 3075.44 1301.96 3074.81 1300.83 3073.91 1299.94 3072.73 1299.29 3071.56 1298.64 3070.18 1298.32 3068.62 1298.32ZM3363.56 1295.33 3363.56 1306.64 3380.68 1306.64 3380.68 1295.33ZM3139.73 1294.09 3146.2 1294.09 3161.42 1333.97 3175.93 1294.09 3181.81 1294.09 3163.64 1341.71 3158.74 1341.71ZM3121.83 1294.03 3128.17 1294.03 3110.66 1326.16 3125.03 1326.16 3125.03 1312.82 3130.85 1312.82 3130.85 1326.16 3137.71 1326.16 3137.71 1331.17 3130.85 1331.17 3130.85 1341.71 3125.03 1341.71 3125.03 1331.17 3103.86 1331.17 3103.86 1327.14ZM3068.62 1293.24C3071.27 1293.24 3073.64 1293.8 3075.7 1294.9 3077.77 1296.01 3079.37 1297.51 3080.51 1299.39 3081.64 1301.28 3082.21 1303.37 3082.21 1305.67 3082.21 1307.88 3081.66 1309.87 3080.57 1311.62 3079.48 1313.38 3077.96 1314.78 3076 1315.82 3078.48 1316.94 3080.43 1318.59 3081.85 1320.76 3083.26 1322.93 3083.97 1325.42 3083.97 1328.24 3083.97 1330.93 3083.33 1333.35 3082.04 1335.49 3080.76 1337.64 3078.95 1339.33 3076.62 1340.57 3074.29 1341.8 3071.62 1342.42 3068.62 1342.42 3065.52 1342.42 3062.8 1341.82 3060.45 1340.6 3058.1 1339.39 3056.27 1337.7 3054.96 1335.53 3053.65 1333.36 3053 1330.93 3053 1328.24 3053 1325.42 3053.71 1322.93 3055.12 1320.76 3056.54 1318.59 3058.51 1316.94 3061.04 1315.82 3059.03 1314.78 3057.46 1313.38 3056.33 1311.62 3055.2 1309.87 3054.63 1307.88 3054.63 1305.67 3054.63 1303.41 3055.22 1301.33 3056.4 1299.42 3057.57 1297.52 3059.23 1296.01 3061.36 1294.9 3063.5 1293.8 3065.91 1293.24 3068.62 1293.24ZM3358.46 1290.25 3385.77 1290.25 3385.77 1339.1 3391 1339.1 3391 1344.05 3352.71 1344.05 3352.71 1339.1 3358.46 1339.1ZM3271.56 1289.21C3275.18 1291.86 3279.16 1294.89 3283.52 1298.32L3280.58 1302.61C3276.35 1299.23 3272.37 1296.13 3268.62 1293.31ZM3226.28 1287.46 3231.58 1287.46 3231.58 1296.04 3252.68 1296.04 3252.68 1329.74 3231.58 1329.74 3231.58 1335.53C3231.58 1337.44 3231.95 1338.75 3232.69 1339.46 3233.43 1340.18 3234.76 1340.6 3236.67 1340.73 3238.46 1340.86 3240.22 1340.93 3241.97 1340.93 3243.75 1340.93 3245.52 1340.86 3247.26 1340.73 3249.09 1340.6 3250.47 1340.4 3251.41 1340.11 3252.34 1339.83 3253.05 1339.33 3253.53 1338.62 3254.01 1337.9 3254.29 1336.83 3254.38 1335.4 3254.6 1331.49 3254.71 1329.13 3254.71 1328.31L3260 1329.54C3259.87 1332.23 3259.69 1334.96 3259.48 1337.74 3259.3 1339.82 3258.86 1341.39 3258.14 1342.45 3257.42 1343.52 3256.35 1344.27 3254.94 1344.7 3253.52 1345.13 3251.53 1345.41 3248.96 1345.54 3246.78 1345.67 3244.58 1345.74 3242.36 1345.74 3240.14 1345.74 3237.91 1345.67 3235.69 1345.54 3233.17 1345.37 3231.25 1345.04 3229.94 1344.54 3228.64 1344.04 3227.7 1343.17 3227.13 1341.93 3226.57 1340.7 3226.28 1338.91 3226.28 1336.57L3226.28 1329.74 3205.9 1329.74 3205.9 1296.04 3226.28 1296.04ZM3300.77 1287.33 3305.73 1287.33 3305.73 1302.61 3320.96 1297.93C3320.96 1300.66 3320.83 1304.67 3320.57 1309.96 3320.31 1315.25 3320.04 1318.94 3319.78 1321.02 3319.48 1323.49 3318.87 1325.25 3317.95 1326.29 3317.04 1327.33 3315.47 1327.85 3313.25 1327.85 3311.55 1327.85 3310.07 1327.74 3308.81 1327.53L3307.83 1322.65C3309 1322.99 3310.27 1323.17 3311.62 1323.17 3312.62 1323.17 3313.35 1322.84 3313.8 1322.19 3314.26 1321.54 3314.62 1320.37 3314.88 1318.68 3315.4 1315.08 3315.67 1310.37 3315.67 1304.56L3305.73 1307.69 3305.73 1333.77 3300.77 1333.77 3300.77 1309.25 3292.08 1311.91 3292.08 1334.16C3292.08 1335.77 3292.2 1336.98 3292.44 1337.8 3292.68 1338.63 3293.17 1339.25 3293.91 1339.66 3294.65 1340.07 3295.8 1340.38 3297.37 1340.6 3300.25 1340.95 3302.88 1341.12 3305.28 1341.12 3307.85 1341.12 3310.59 1340.95 3313.51 1340.6 3315.12 1340.38 3316.33 1340.09 3317.14 1339.72 3317.94 1339.35 3318.5 1338.81 3318.8 1338.1 3319.11 1337.38 3319.28 1336.35 3319.33 1335.01 3319.46 1332.53 3319.52 1330.19 3319.52 1327.98L3324.75 1328.96C3324.57 1333.29 3324.44 1336.11 3324.36 1337.41 3324.23 1339.28 3323.88 1340.74 3323.31 1341.8 3322.74 1342.87 3321.83 1343.69 3320.57 1344.28 3319.3 1344.86 3317.54 1345.26 3315.27 1345.48 3311.79 1345.83 3308.52 1346 3305.47 1346 3302.47 1346 3299.18 1345.83 3295.61 1345.48 3292.52 1345.18 3290.33 1344.33 3289.04 1342.94 3287.76 1341.56 3287.11 1339.21 3287.11 1335.92L3287.11 1313.48 3283 1314.78 3281.76 1310.03 3287.11 1308.4 3287.11 1292.98 3292.08 1292.98 3292.08 1306.84 3300.77 1304.17ZM3343.96 1287 3348.86 1289.15C3347.38 1292.18 3345.74 1295.34 3343.96 1298.61 3342.17 1301.89 3340.6 1304.58 3339.25 1306.71 3341.04 1306.49 3343.72 1306.12 3347.29 1305.6 3349.55 1301.87 3351.14 1299.12 3352.06 1297.34L3356.57 1299.55C3354.83 1302.81 3352.47 1306.74 3349.51 1311.36 3346.55 1315.98 3344 1319.7 3341.87 1322.52L3353.37 1319.85 3353.43 1325.25C3348.33 1325.99 3343.33 1326.9 3338.4 1327.98 3337.23 1328.2 3335.79 1328.55 3334.09 1329.02L3332.98 1323.69C3333.81 1323.43 3334.46 1323.15 3334.94 1322.84 3335.42 1322.54 3335.88 1322.11 3336.31 1321.54 3338.4 1318.98 3341 1315.32 3344.09 1310.55 3341.91 1310.76 3339.23 1311.11 3336.05 1311.59 3334.92 1311.76 3333.7 1311.98 3332.39 1312.24L3331.28 1307.1C3331.98 1306.88 3332.5 1306.66 3332.85 1306.42 3333.2 1306.18 3333.53 1305.84 3333.83 1305.41 3335.18 1303.5 3336.87 1300.73 3338.89 1297.08 3340.92 1293.44 3342.61 1290.08 3343.96 1287Z" fill-rule="evenodd"/><rect x="1776.5" y="1234.5" width="617" height="200" stroke="#595959" stroke-width="6.875" stroke-miterlimit="8" fill="#F2F2F2"/><path d="M2181.08 1349.97 2181.41 1354.89C2175.09 1356.63 2167.74 1358.45 2159.36 1360.33L2158.51 1355.41C2166.89 1353.57 2174.41 1351.76 2181.08 1349.97ZM2003.2 1311.28 2032.58 1311.28 2032.58 1316.46 2009.03 1316.46 2009.03 1332.66 2030.09 1332.66 2030.09 1337.84 2009.03 1337.84 2009.03 1359.28 2003.2 1359.28ZM1955 1311.28 1959.91 1311.28 1986.53 1348.85 1986.53 1311.28 1992.03 1311.28 1992.03 1359.28 1987.12 1359.28 1960.5 1321.64 1960.5 1359.28 1955 1359.28ZM2060.44 1310.49C2062.89 1310.49 2065.16 1310.89 2067.28 1311.67 2069.39 1312.46 2071.25 1313.6 2072.84 1315.08 2074.43 1316.57 2075.66 1318.34 2076.54 1320.39L2071.83 1323.15C2070.65 1320.83 2069.11 1319.04 2067.21 1317.77 2065.32 1316.5 2063.02 1315.87 2060.31 1315.87 2057.26 1315.87 2054.56 1316.68 2052.2 1318.29 2049.85 1319.91 2048.02 1322.19 2046.74 1325.11 2045.45 1328.04 2044.81 1331.41 2044.81 1335.21 2044.81 1339.02 2045.45 1342.39 2046.74 1345.34 2048.02 1348.29 2049.85 1350.58 2052.2 1352.2 2054.56 1353.81 2057.26 1354.62 2060.31 1354.62 2063.02 1354.62 2065.32 1353.99 2067.21 1352.72 2069.11 1351.45 2070.65 1349.66 2071.83 1347.34L2076.54 1350.1C2075.66 1352.15 2074.43 1353.92 2072.84 1355.41 2071.25 1356.9 2069.39 1358.03 2067.28 1358.82 2065.16 1359.61 2062.89 1360 2060.44 1360 2056.39 1360 2052.7 1358.95 2049.39 1356.85 2046.07 1354.75 2043.46 1351.83 2041.54 1348.07 2039.62 1344.31 2038.66 1340.02 2038.66 1335.21 2038.66 1330.4 2039.62 1326.12 2041.54 1322.36 2043.46 1318.6 2046.07 1315.68 2049.39 1313.61 2052.7 1311.53 2056.39 1310.49 2060.44 1310.49ZM2098.26 1308.59 2147.79 1308.59 2147.79 1313.7 2125.61 1313.7 2125.61 1327.61 2150.73 1327.61 2150.73 1332.52 2125.94 1332.52C2127.77 1338.51 2130.84 1343.61 2135.16 1347.8 2139.48 1352 2145.34 1355.67 2152.76 1358.82L2149.94 1364C2142.79 1360.5 2137.1 1356.82 2132.87 1352.95 2128.64 1349.08 2125.5 1344.57 2123.45 1339.41 2119.48 1349.03 2110.58 1357.22 2096.76 1364L2093.75 1359.15C2101.64 1355.48 2107.75 1351.43 2112.07 1347.02 2116.38 1342.6 2118.98 1337.77 2119.85 1332.52L2095.32 1332.52 2095.32 1327.61 2120.18 1327.61 2120.18 1313.7 2098.26 1313.7ZM2195.15 1304.33C2195.41 1309.01 2195.61 1313.57 2195.74 1318.03L2214.84 1315.87 2215.43 1320.59 2196 1322.75C2196.13 1325.33 2196.33 1327.78 2196.59 1330.1L2216.41 1327.67 2216.87 1332.52 2197.18 1334.95C2197.79 1339.37 2198.53 1343.04 2199.4 1345.97 2203.89 1342.6 2207.86 1338.89 2211.31 1334.82L2214.51 1338.23C2210.41 1342.91 2205.92 1347.08 2201.04 1350.75 2201.65 1352.07 2202.24 1353.25 2202.8 1354.3 2204.33 1356.74 2205.92 1357.97 2207.58 1357.97 2208.41 1357.97 2209.05 1357.65 2209.51 1357.02 2209.97 1356.38 2210.41 1355.13 2210.85 1353.25L2211.24 1351.61C2211.9 1348.72 2212.29 1346.91 2212.42 1346.16L2217 1348.33C2216.56 1350.73 2215.93 1353.29 2215.1 1356 2214.27 1358.75 2213.25 1360.74 2212.03 1361.97 2210.81 1363.19 2209.35 1363.8 2207.64 1363.8 2205.99 1363.8 2204.45 1363.3 2203.03 1362.3 2201.62 1361.29 2200.08 1359.48 2198.42 1356.85 2197.85 1355.98 2197.33 1354.95 2196.85 1353.77 2192.23 1356.87 2187.34 1359.45 2182.2 1361.51L2180.04 1356.72C2185.31 1354.67 2190.33 1352.09 2195.08 1348.98 2193.99 1345.31 2193.08 1340.85 2192.34 1335.61L2182.13 1336.85 2181.67 1331.93 2191.75 1330.69C2191.57 1329.07 2191.36 1326.62 2191.09 1323.34L2183.9 1324.13 2183.5 1319.48 2190.77 1318.62 2190.77 1318.56C2190.59 1315.93 2190.37 1311.23 2190.11 1304.46ZM2202.41 1304.13C2205.46 1306.8 2208.26 1309.57 2210.78 1312.46L2207.32 1315.41C2204.92 1312.66 2202.22 1309.88 2199.21 1307.08ZM2171.79 1304 2176.37 1306.16C2174.98 1309.18 2173.38 1312.34 2171.57 1315.64 2169.76 1318.94 2168.02 1321.86 2166.36 1324.39L2174.48 1323.02C2176.09 1320.17 2177.64 1317.33 2179.12 1314.49L2183.5 1316.92C2178.4 1326.54 2173.76 1334.34 2169.57 1340.33L2180.95 1337.9 2181.02 1342.75 2166.3 1345.77 2161.65 1346.75 2160.48 1341.7C2161.61 1341.36 2162.45 1341.02 2163 1340.69 2163.54 1340.36 2164.07 1339.83 2164.6 1339.08 2166.6 1336.24 2169 1332.46 2171.79 1327.74L2163.75 1328.92 2160.08 1329.51 2158.97 1324.39C2159.67 1324.13 2160.18 1323.89 2160.51 1323.67 2160.84 1323.45 2161.15 1323.15 2161.46 1322.75 2163.12 1320.52 2164.88 1317.7 2166.76 1314.29 2168.63 1310.89 2170.31 1307.45 2171.79 1304Z" fill-rule="evenodd"/><rect x="1046.5" y="627.5" width="617" height="200" stroke="#595959" stroke-width="6.875" stroke-miterlimit="8" fill="#F2F2F2"/><path d="M1430.98 730.86C1432.68 732.616 1434.6 734.625 1436.75 736.887 1438.9 739.149 1440.81 741.18 1442.46 742.981L1438.61 746.669C1437.52 745.396 1435.8 743.453 1433.43 740.84 1431.06 738.227 1429.05 736.042 1427.39 734.285ZM1188.61 730.728 1212.35 730.728 1212.35 735.471 1188.61 735.471ZM1359.18 725.392 1364.01 725.392 1364.01 730.794 1377.57 730.794 1377.57 735.207 1364.01 735.207 1364.01 743.244 1378.22 743.244 1378.22 747.921 1364.01 747.921 1364.01 757.934 1359.18 757.934 1359.18 747.921 1343.6 747.921 1343.6 743.639 1346.53 737.118 1351.23 737.184 1348.75 743.244 1359.18 743.244 1359.18 735.207 1344.05 735.207 1344.05 730.794 1359.18 730.794ZM1226.93 709.911 1226.93 747.789 1233.39 747.789C1237.35 747.789 1240.76 747.054 1243.63 745.583 1246.5 744.111 1248.7 741.948 1250.25 739.094 1251.79 736.239 1252.56 732.814 1252.56 728.818 1252.56 724.865 1251.79 721.461 1250.25 718.607 1248.7 715.753 1246.49 713.59 1243.6 712.118 1240.7 710.647 1237.3 709.911 1233.39 709.911ZM1106.8 709.911 1106.8 747.789 1113.26 747.789C1117.22 747.789 1120.63 747.054 1123.5 745.583 1126.37 744.111 1128.57 741.948 1130.12 739.094 1131.66 736.239 1132.43 732.814 1132.43 728.818 1132.43 724.865 1131.66 721.461 1130.12 718.607 1128.57 715.753 1126.36 713.59 1123.47 712.118 1120.57 710.647 1117.17 709.911 1113.26 709.911ZM1418.66 709.516 1424.26 709.516 1424.26 723.218 1442.52 723.218 1442.52 728.554 1424.26 728.554 1424.26 749.568 1445.98 749.568 1445.98 754.772 1398.05 754.772 1398.05 749.568 1418.66 749.568 1418.66 728.554 1401.83 728.554 1401.83 723.218 1418.66 723.218ZM1353.77 707.738 1353.44 708.199C1355.53 711.097 1358.16 713.601 1361.33 715.708 1364.81 713.513 1367.79 710.856 1370.27 707.738ZM1566 704.773 1572.46 704.773 1587.65 745.154 1602.13 704.773 1608 704.773 1589.87 752.994 1584.98 752.994ZM1221.13 704.773 1234.17 704.773C1238.82 704.773 1243.01 705.718 1246.73 707.606 1250.44 709.494 1253.37 712.25 1255.5 715.873 1257.63 719.496 1258.69 723.811 1258.69 728.818 1258.69 733.868 1257.64 738.205 1255.53 741.828 1253.42 745.451 1250.51 748.218 1246.79 750.128 1243.07 752.038 1238.87 752.994 1234.17 752.994L1221.13 752.994ZM1101 704.773 1114.04 704.773C1118.69 704.773 1122.88 705.718 1126.6 707.606 1130.31 709.494 1133.24 712.25 1135.37 715.873 1137.5 719.496 1138.56 723.811 1138.56 728.818 1138.56 733.868 1137.51 738.205 1135.4 741.828 1133.29 745.451 1130.38 748.218 1126.66 750.128 1122.94 752.038 1118.74 752.994 1114.04 752.994L1101 752.994ZM1536.53 704.642 1559.09 704.642 1559.09 709.78 1541.62 709.78 1539.73 724.075C1540.64 723.504 1541.68 723.054 1542.86 722.724 1544.03 722.395 1545.31 722.23 1546.7 722.23 1549.53 722.23 1552.05 722.9 1554.27 724.239 1556.49 725.579 1558.2 727.423 1559.42 729.773 1560.64 732.122 1561.25 734.79 1561.25 737.776 1561.25 740.895 1560.57 743.661 1559.22 746.076 1557.88 748.492 1556.03 750.37 1553.68 751.709 1551.33 753.049 1548.72 753.718 1545.86 753.718 1542.68 753.718 1539.87 752.917 1537.41 751.314 1534.95 749.711 1533.25 747.372 1532.29 744.298L1536.99 741.597C1537.77 743.837 1538.91 745.528 1540.41 746.669 1541.91 747.811 1543.72 748.382 1545.86 748.382 1547.77 748.382 1549.43 747.932 1550.84 747.032 1552.26 746.131 1553.32 744.902 1554.04 743.343 1554.76 741.784 1555.12 740.016 1555.12 738.04 1555.12 736.151 1554.78 734.417 1554.1 732.836 1553.43 731.255 1552.4 729.981 1551.01 729.015 1549.62 728.049 1547.9 727.566 1545.86 727.566 1542.07 727.566 1539.12 729.301 1536.99 732.77L1533.27 730.86ZM1288.48 703.983C1290.92 703.983 1293.19 704.378 1295.3 705.169 1297.41 705.959 1299.26 707.101 1300.84 708.594 1302.43 710.087 1303.66 711.866 1304.53 713.93L1299.83 716.696C1298.66 714.369 1297.12 712.568 1295.23 711.295 1293.34 710.021 1291.05 709.384 1288.35 709.384 1285.31 709.384 1282.61 710.197 1280.27 711.822 1277.92 713.447 1276.1 715.73 1274.82 718.673 1273.54 721.615 1272.9 724.997 1272.9 728.818 1272.9 732.638 1273.54 736.031 1274.82 738.995 1276.1 741.959 1277.92 744.254 1280.27 745.879 1282.61 747.504 1285.31 748.316 1288.35 748.316 1291.05 748.316 1293.34 747.68 1295.23 746.406 1297.12 745.132 1298.66 743.332 1299.83 741.004L1304.53 743.771C1303.66 745.835 1302.43 747.614 1300.84 749.107 1299.26 750.6 1297.41 751.742 1295.3 752.532 1293.19 753.323 1290.92 753.718 1288.48 753.718 1284.44 753.718 1280.77 752.664 1277.46 750.556 1274.16 748.448 1271.55 745.506 1269.64 741.729 1267.72 737.952 1266.77 733.648 1266.77 728.818 1266.77 723.987 1267.72 719.683 1269.64 715.906 1271.55 712.129 1274.16 709.198 1277.46 707.112 1280.77 705.026 1284.44 703.983 1288.48 703.983ZM1168.35 703.983C1170.79 703.983 1173.06 704.378 1175.17 705.169 1177.28 705.959 1179.13 707.101 1180.71 708.594 1182.3 710.087 1183.53 711.866 1184.4 713.93L1179.7 716.696C1178.53 714.369 1177 712.568 1175.1 711.295 1173.21 710.021 1170.92 709.384 1168.22 709.384 1165.18 709.384 1162.49 710.197 1160.14 711.822 1157.79 713.447 1155.98 715.73 1154.69 718.673 1153.41 721.615 1152.77 724.997 1152.77 728.818 1152.77 732.638 1153.41 736.031 1154.69 738.995 1155.98 741.959 1157.79 744.254 1160.14 745.879 1162.49 747.504 1165.18 748.316 1168.22 748.316 1170.92 748.316 1173.21 747.68 1175.1 746.406 1177 745.132 1178.53 743.332 1179.7 741.004L1184.4 743.771C1183.53 745.835 1182.3 747.614 1180.71 749.107 1179.13 750.6 1177.28 751.742 1175.17 752.532 1173.06 753.323 1170.79 753.718 1168.35 753.718 1164.31 753.718 1160.64 752.664 1157.33 750.556 1154.03 748.448 1151.42 745.506 1149.51 741.729 1147.6 737.952 1146.64 733.648 1146.64 728.818 1146.64 723.987 1147.6 719.683 1149.51 715.906 1151.42 712.129 1154.03 709.198 1157.33 707.112 1160.64 705.026 1164.31 703.983 1168.35 703.983ZM1454.13 701.941 1508.85 701.941 1508.85 707.013 1480.22 707.013C1478.09 709.604 1475.73 712.272 1473.14 715.017 1470.55 717.761 1468.26 720.078 1466.26 721.966L1496.65 719.529C1494.04 715.708 1492.02 712.876 1490.59 711.031L1494.95 708.265C1496.69 710.417 1498.88 713.381 1501.51 717.158 1504.14 720.934 1506.39 724.272 1508.26 727.171L1503.69 730.201 1499.85 724.206 1484.33 725.392 1484.33 735.207 1506.17 735.207 1506.17 740.082 1484.33 740.082 1484.33 750.359 1510.93 750.359 1510.93 755.299 1451.98 755.299 1451.98 750.359 1478.98 750.359 1478.98 740.082 1456.81 740.082 1456.81 735.207 1478.98 735.207 1478.98 725.787 1465.54 726.907 1457.07 727.632 1455.7 722.428C1456.74 722.252 1457.59 722.01 1458.24 721.703 1458.89 721.396 1459.57 720.957 1460.26 720.385 1463.7 717.531 1468.04 713.074 1473.3 707.013L1454.13 707.013ZM1393.29 701.809 1444.81 701.809 1444.81 707.013 1398.77 707.013 1398.77 719.463C1398.77 726.841 1398.57 732.671 1398.18 736.953 1397.79 741.235 1397.09 744.913 1396.09 747.987 1395.09 751.061 1393.59 754.399 1391.59 758L1386.31 755.431C1388.35 751.874 1389.84 748.777 1390.78 746.142 1391.71 743.507 1392.36 740.269 1392.73 736.426 1393.1 732.583 1393.29 727.127 1393.29 720.056ZM1324.03 701.216 1341.7 701.216 1341.7 706.288 1336.49 721.703C1339.79 727.193 1341.44 732.287 1341.44 736.986 1341.44 739.621 1341.17 741.641 1340.63 743.046 1340.09 744.452 1339.28 745.418 1338.22 745.945 1337.15 746.472 1335.75 746.735 1334.01 746.735 1333.01 746.735 1332.01 746.669 1331.01 746.538L1330.1 741.531C1331.05 741.751 1332.21 741.861 1333.55 741.861 1334.64 741.861 1335.44 741.433 1335.97 740.576 1336.49 739.72 1336.75 738.26 1336.75 736.195 1336.75 734.307 1336.35 732.188 1335.54 729.839 1334.74 727.489 1333.49 725.085 1331.79 722.625L1337.07 706.288 1328.73 706.288 1328.73 757.802 1324.03 757.802ZM1355.14 697 1359.83 698.91C1359.31 699.877 1358.4 701.37 1357.09 703.39L1375.55 703.39 1375.55 707.738C1372.85 711.91 1369.57 715.423 1365.7 718.278 1369.66 720.21 1374.55 721.945 1380.38 723.482L1378.42 727.829C1370.9 725.809 1365.12 723.592 1361.07 721.176 1356.33 723.811 1350.42 726.204 1343.33 728.356L1341.38 724.075C1347.73 722.186 1352.86 720.254 1356.77 718.278 1354.38 716.433 1352.23 714.215 1350.31 711.624 1348.75 713.249 1347.05 714.83 1345.23 716.367L1342.29 712.678C1344.86 710.614 1347.25 708.188 1349.46 705.399 1351.68 702.61 1353.57 699.811 1355.14 697Z" fill-rule="evenodd"/><rect x="1045.5" y="333.5" width="617" height="200" stroke="#595959" stroke-width="6.875" stroke-miterlimit="8" fill="#F2F2F2"/><path d="M1231.73 447.182 1231.73 457.312 1240.6 457.312 1240.6 447.182ZM1218.56 447.182 1218.56 457.312 1227.1 457.312 1227.1 447.182ZM1205.06 447.182 1205.06 457.312 1213.87 457.312 1213.87 447.182ZM1199.98 442.571 1245.56 442.571 1245.56 457.312 1252.73 457.312 1252.73 461.922 1193 461.922 1193 457.312 1199.98 457.312ZM1347.41 434.974C1350.24 439.909 1353.78 444.065 1358.04 447.441 1362.26 444.152 1365.65 439.995 1368.22 434.974ZM1398.67 434.649 1398.67 440.299 1412.36 440.299 1412.36 434.649ZM1487.87 432.961C1486.22 435.991 1484.24 438.783 1481.94 441.337L1490.35 441.337 1490.35 435.429 1494.98 435.429 1494.98 441.337 1503.13 441.337C1500.96 438.87 1499.05 436.078 1497.39 432.961ZM1234.28 429.649C1236.58 430.948 1240.56 433.394 1246.21 436.987L1243.47 440.818C1241.65 439.563 1238.39 437.463 1233.69 434.519L1231.67 433.286ZM1423.77 428.091C1425.08 430.125 1426.58 432.561 1428.27 435.396 1429.97 438.232 1431.49 440.818 1432.84 443.156L1428.73 445.883C1424.51 438.394 1421.56 433.307 1419.86 430.623ZM1398.67 425.039 1398.67 430.623 1412.36 430.623 1412.36 425.039ZM1198.67 421.273 1203.89 421.273 1203.89 439.779 1198.67 439.779ZM1211.13 420.039 1216.41 420.039 1216.41 440.234 1211.13 440.234ZM1227.63 418.87 1232.32 419.974C1232.1 420.926 1231.69 422.312 1231.08 424.13L1250.97 424.13 1250.97 428.805 1229.19 428.805C1227.41 432.701 1225.41 436.035 1223.19 438.805L1218.82 435.948C1220.78 433.524 1222.53 430.796 1224.07 427.766 1225.62 424.736 1226.8 421.771 1227.63 418.87ZM1398.67 415.493 1398.67 420.948 1412.36 420.948 1412.36 415.493ZM1262.38 408.285 1314.68 408.285 1314.68 413.091 1301.77 413.091 1301.77 428.545 1316.11 428.545 1316.11 433.416 1301.77 433.416 1301.77 454.584C1301.77 457.571 1301.18 459.66 1300.01 460.85 1298.83 462.041 1296.81 462.68 1293.94 462.766 1291.03 462.81 1288.14 462.68 1285.27 462.376L1284.23 457.312C1287.7 457.658 1290.31 457.831 1292.05 457.831 1293.7 457.831 1294.84 457.463 1295.48 456.727 1296.11 455.991 1296.42 454.649 1296.42 452.701L1296.42 433.416 1293.49 433.416C1289.97 439 1285.53 443.978 1280.18 448.351 1274.84 452.723 1268.64 456.684 1261.6 460.234L1258.6 455.299C1270.77 449.714 1280.38 442.42 1287.42 433.416L1265.25 433.416 1265.25 428.48 1268.84 416.013 1274.32 417.052 1270.92 428.545 1296.42 428.545 1296.42 413.091 1262.38 413.091ZM1436.23 405.039 1441.12 405.039 1441.12 418.35 1447.77 418.35 1447.77 423.221 1441.12 423.221 1441.12 454.454C1441.12 457.485 1440.52 459.693 1439.33 461.078 1438.13 462.463 1436.1 463.156 1433.23 463.156 1430.66 463.156 1427.88 462.982 1424.88 462.636L1423.9 457.766C1427.38 458.199 1429.97 458.416 1431.66 458.416 1433.36 458.416 1434.54 458.004 1435.22 457.182 1435.89 456.359 1436.23 455.017 1436.23 453.156L1436.23 423.221 1419.66 423.221 1419.66 418.35 1436.23 418.35ZM1462.38 404.649 1466.94 404.649 1466.94 416.857 1474.18 416.857 1474.18 421.597 1466.94 421.597 1466.94 426.143C1469.85 429.26 1472.59 432.398 1475.16 435.558L1472.55 439.974C1469.85 436.381 1467.98 433.913 1466.94 432.571L1466.94 463.221 1462.38 463.221 1462.38 434.584C1460.33 440.472 1458.18 445.342 1455.92 449.195L1452.99 443.87C1454.68 441.056 1456.34 437.615 1457.97 433.545 1459.6 429.476 1460.96 425.494 1462.05 421.597L1454.68 421.597 1454.68 416.857 1462.38 416.857ZM1209.69 404.649 1215.04 404.649 1215.04 409.649 1230.63 409.649 1230.63 404.649 1235.91 404.649 1235.91 409.649 1251.82 409.649 1251.82 414.26 1235.91 414.26 1235.91 418.48 1230.63 418.48 1230.63 414.26 1215.04 414.26 1215.04 418.48 1209.69 418.48 1209.69 414.26 1193.72 414.26 1193.72 409.649 1209.69 409.649ZM1490.16 404.455 1495.05 404.649 1494.2 410.818 1510.96 410.818 1510.96 415.104 1493.61 415.104C1493.39 416.532 1493.09 418.113 1492.7 419.844L1509.26 419.844 1509.26 424.065 1491.59 424.065C1491.2 425.407 1490.66 426.922 1489.96 428.61L1512.59 428.61 1512.59 432.961 1502.35 432.961C1503.96 435.602 1505.79 437.928 1507.86 439.942 1509.92 441.955 1512.3 443.697 1515 445.169L1512.26 449.195C1509.13 447.29 1506.26 444.866 1503.65 441.922L1503.65 445.558 1494.98 445.558 1494.98 450.688 1509.98 450.688 1509.98 454.974 1494.98 454.974 1494.98 463.74 1490.35 463.74 1490.35 454.974 1475.42 454.974 1475.42 450.688 1490.35 450.688 1490.35 445.558 1481.55 445.558 1481.55 441.727C1479.11 444.368 1476.33 446.857 1473.2 449.195L1470.2 445.493C1475.42 441.597 1479.46 437.42 1482.33 432.961L1474.31 432.961 1474.31 428.61 1484.68 428.61C1485.37 427.138 1485.96 425.623 1486.44 424.065L1476.4 424.065 1476.4 419.844 1487.68 419.844C1487.98 418.589 1488.33 417.008 1488.72 415.104L1475.42 415.104 1475.42 410.818 1489.44 410.818C1489.79 408.134 1490.02 406.013 1490.16 404.455ZM1346.7 404.455 1351.98 404.844C1351.2 410.298 1350.48 414.627 1349.83 417.831L1381.71 417.831 1381.71 422.766 1348.78 422.766C1348.13 425.407 1347.41 427.939 1346.63 430.364L1374.15 430.364 1374.15 434.909C1372.45 438.242 1370.66 441.175 1368.77 443.708 1366.88 446.24 1364.76 448.524 1362.41 450.558 1367.67 453.805 1374.3 456.533 1382.3 458.74L1379.95 463.935C1370.65 460.775 1363.37 457.398 1358.11 453.805 1355.41 455.623 1352.29 457.344 1348.75 458.967 1345.21 460.591 1340.94 462.268 1335.94 464L1333.72 459.13C1342.24 456.316 1348.89 453.437 1353.67 450.493 1349.63 447.03 1346.28 442.918 1343.63 438.156 1341.76 442.398 1339.45 446.457 1336.69 450.331 1333.93 454.206 1330.55 458.177 1326.55 462.247L1322.76 457.831C1328.03 452.81 1332.29 447.485 1335.55 441.857 1338.81 436.229 1341.37 429.866 1343.24 422.766L1327.66 422.766 1327.66 418.285C1328.13 416.727 1328.7 414.671 1329.35 412.117 1330 409.562 1330.48 407.528 1330.79 406.013L1335.94 407.117C1334.89 411.922 1334 415.493 1333.26 417.831L1344.41 417.831C1345.37 413.459 1346.13 409 1346.7 404.455ZM1403.23 404.325 1408.58 405.363C1408.45 405.883 1408.01 407.203 1407.28 409.325L1406.62 411.143 1416.86 411.143 1416.86 456.013C1416.86 458.653 1416.31 460.526 1415.2 461.63 1414.09 462.734 1412.25 463.286 1409.69 463.286 1407.73 463.286 1405.38 463.134 1402.65 462.831L1401.67 458.221C1404.41 458.61 1406.67 458.805 1408.45 458.805 1409.93 458.805 1410.95 458.426 1411.51 457.669 1412.08 456.911 1412.36 455.775 1412.36 454.26L1412.36 444.519 1410.08 444.519C1405.95 451.056 1399.58 456.922 1390.97 462.117L1388.04 457.896C1391.69 456.035 1394.85 454.011 1397.53 451.825 1400.2 449.638 1402.52 447.204 1404.47 444.519L1389.08 444.519 1389.08 440.299 1394.04 440.299 1394.04 411.143 1401.08 411.143C1402.17 408.113 1402.88 405.84 1403.23 404.325ZM1362.67 404C1365.63 405.558 1369.85 408.004 1375.32 411.338L1372.65 415.753C1369.74 413.935 1365.5 411.446 1359.93 408.285Z" fill-rule="evenodd"/><path d="M2914.89 1291 2812 1291" stroke="#000000" stroke-width="13.75" stroke-miterlimit="8" fill="none" fill-rule="evenodd"/><path d="M2914.8 1342 2761 1342" stroke="#C00000" stroke-width="13.75" stroke-miterlimit="8" fill="none" fill-rule="evenodd"/><path d="M0 0 1433.4 0.000360892" stroke="#000000" stroke-width="13.75" stroke-linecap="square" stroke-miterlimit="8" fill="none" fill-rule="evenodd" transform="matrix(-1 0 0 1 2812.4 1550)"/><path d="M0 0 1433.4 0.000360892" stroke="#C00000" stroke-width="13.75" stroke-linecap="square" stroke-miterlimit="8" fill="none" fill-rule="evenodd" transform="matrix(-1 0 0 1 2761.4 1601)"/><rect x="1046.5" y="1232.5" width="617" height="200" stroke="#595959" stroke-width="6.875" stroke-miterlimit="8" fill="#F2F2F2"/><path d="M1563.4 1347.34 1563.93 1352.57C1562.14 1352.83 1558.56 1353.55 1553.2 1354.73 1547.84 1355.92 1544.03 1356.83 1541.76 1357.48L1540.78 1352.44C1543.96 1351.67 1548.1 1350.7 1553.2 1349.54 1558.3 1348.37 1561.7 1347.64 1563.4 1347.34ZM1433.48 1346.37C1434.01 1348.14 1434.55 1350.34 1435.12 1352.99 1435.68 1355.64 1436.12 1357.91 1436.42 1359.8L1431.19 1360.84C1430.8 1357.01 1429.93 1352.48 1428.58 1347.27ZM1447.54 1345.72C1448.33 1347.53 1449.19 1349.71 1450.12 1352.25 1451.06 1354.79 1451.81 1357.01 1452.38 1358.9L1447.48 1360.26C1446.52 1356.73 1444.97 1352.38 1442.83 1347.21ZM1418.38 1344.82 1423.15 1346.76C1422.28 1349.08 1421.15 1351.63 1419.75 1354.41 1418.36 1357.19 1416.96 1359.72 1415.57 1362L1410.79 1359.35C1412.32 1357.16 1413.77 1354.73 1415.14 1352.09 1416.52 1349.44 1417.59 1347.02 1418.38 1344.82ZM1461.47 1344.76C1463.78 1348.46 1466.37 1353.11 1469.25 1358.71L1464.67 1361.29C1462.93 1357.54 1460.31 1352.74 1456.83 1346.89ZM1573.54 1342.75 1573.54 1354.25 1590.67 1354.25 1590.67 1342.75ZM1378.49 1339.46C1377.45 1341.44 1376.44 1343.1 1375.49 1344.43 1378.01 1345.34 1381.41 1346.74 1385.69 1348.63 1386.99 1347.47 1388.12 1346.16 1389.05 1344.69 1389.99 1343.23 1390.87 1341.48 1391.7 1339.46ZM1504.75 1330.35 1504.75 1334.81 1526.79 1334.81 1526.79 1330.35ZM1377.97 1328.61 1383.07 1329.45C1382.24 1331.6 1381.5 1333.39 1380.85 1334.81L1404.19 1334.81 1404.19 1339.46 1397 1339.46C1395.12 1344.24 1392.9 1347.98 1390.33 1350.7 1396.21 1353.37 1400.68 1355.48 1403.73 1357.03L1401.64 1361.55C1397.02 1359.14 1391.92 1356.64 1386.34 1354.06 1383.94 1355.65 1381.04 1357.06 1377.64 1358.29 1374.24 1359.51 1370.06 1360.62 1365.09 1361.61L1363.32 1356.9C1371.3 1355.43 1377.23 1353.71 1381.11 1351.73 1375.62 1349.41 1371.41 1347.7 1368.49 1346.63 1369.97 1344.6 1371.48 1342.22 1373 1339.46L1363.98 1339.46 1363.98 1334.81 1375.42 1334.81C1376.6 1332.36 1377.45 1330.29 1377.97 1328.61ZM1175.33 1327.58C1173.72 1327.58 1172.24 1327.91 1170.89 1328.58 1169.54 1329.24 1168.38 1330.27 1167.42 1331.64 1166.46 1333.02 1165.83 1334.7 1165.53 1336.68L1184.03 1336.68C1183.94 1334.79 1183.53 1333.15 1182.79 1331.77 1182.05 1330.4 1181.03 1329.35 1179.75 1328.64 1178.46 1327.93 1176.99 1327.58 1175.33 1327.58ZM1573.54 1326.93 1573.54 1337.84 1590.67 1337.84 1590.67 1326.93ZM1423.22 1326.61 1423.22 1337.52 1457.35 1337.52 1457.35 1326.61ZM1504.75 1322.54 1504.75 1326.8 1526.79 1326.8 1526.79 1322.54ZM1206.28 1322.54C1209.25 1322.54 1211.8 1323.18 1213.93 1324.48 1216.07 1325.77 1217.51 1327.53 1218.25 1329.77L1214 1332.16C1213.3 1330.7 1212.27 1329.57 1210.89 1328.77 1209.52 1327.97 1207.9 1327.58 1206.02 1327.58 1204.1 1327.58 1202.57 1327.95 1201.41 1328.71 1200.26 1329.46 1199.68 1330.55 1199.68 1331.97 1199.68 1333 1200.02 1333.84 1200.69 1334.49 1201.37 1335.13 1202.21 1335.65 1203.21 1336.04 1204.21 1336.42 1205.63 1336.88 1207.46 1337.39 1209.86 1338.04 1211.8 1338.67 1213.28 1339.3 1214.76 1339.92 1216.04 1340.88 1217.1 1342.17 1218.17 1343.46 1218.71 1345.16 1218.71 1347.27 1218.71 1349.3 1218.17 1351.08 1217.1 1352.63 1216.04 1354.19 1214.54 1355.39 1212.62 1356.25 1210.71 1357.11 1208.51 1357.54 1206.02 1357.54 1202.71 1357.54 1199.85 1356.81 1197.46 1355.35 1195.06 1353.88 1193.49 1351.88 1192.75 1349.34L1197 1346.95C1197.78 1348.8 1198.93 1350.2 1200.43 1351.15 1201.93 1352.1 1203.8 1352.57 1206.02 1352.57 1208.16 1352.57 1209.83 1352.14 1211.06 1351.28 1212.28 1350.42 1212.89 1349.23 1212.89 1347.73 1212.89 1346.56 1212.53 1345.62 1211.81 1344.88 1211.09 1344.15 1210.19 1343.58 1209.13 1343.17 1208.06 1342.76 1206.57 1342.28 1204.65 1341.72 1202.34 1341.07 1200.46 1340.45 1199.02 1339.85 1197.59 1339.24 1196.37 1338.35 1195.36 1337.17 1194.36 1335.98 1193.86 1334.42 1193.86 1332.48 1193.86 1330.46 1194.41 1328.7 1195.53 1327.19 1196.64 1325.68 1198.14 1324.53 1200.04 1323.73 1201.93 1322.94 1204.02 1322.54 1206.28 1322.54ZM1175.53 1322.54C1178.8 1322.54 1181.62 1323.39 1184 1325.09 1186.37 1326.79 1188.06 1329.07 1189.07 1331.94 1190.07 1334.8 1190.31 1337.87 1189.78 1341.14L1165.33 1341.14C1165.46 1343.72 1166.03 1345.86 1167.03 1347.57 1168.03 1349.27 1169.32 1350.51 1170.89 1351.31 1172.46 1352.11 1174.24 1352.51 1176.25 1352.51 1178.12 1352.51 1179.75 1352.14 1181.12 1351.41 1182.49 1350.68 1183.62 1349.54 1184.49 1347.98L1188.74 1350.37C1187.87 1352.66 1186.24 1354.42 1183.87 1355.67 1181.49 1356.92 1178.84 1357.54 1175.92 1357.54 1172.87 1357.54 1170.09 1356.85 1167.59 1355.48 1165.08 1354.1 1163.1 1352.09 1161.64 1349.44 1160.18 1346.79 1159.45 1343.61 1159.45 1339.91 1159.45 1336.34 1160.18 1333.24 1161.64 1330.61 1163.1 1327.98 1165.05 1325.98 1167.49 1324.6 1169.93 1323.23 1172.61 1322.54 1175.53 1322.54ZM1500.18 1318.6 1531.23 1318.6 1531.23 1338.75 1517.9 1338.75 1517.76 1342.24 1517.76 1343.01 1534.76 1343.01 1534.76 1347.47 1519.2 1347.47C1520.77 1349.79 1522.83 1351.74 1525.38 1353.31 1527.93 1354.88 1531.32 1356.19 1535.55 1357.22L1533.78 1361.81C1525.59 1359.65 1519.51 1355.76 1515.54 1350.12 1512.53 1354.98 1506.21 1358.88 1496.58 1361.81L1494.62 1357.16C1498.98 1356.04 1502.54 1354.68 1505.31 1353.09 1508.08 1351.49 1510.07 1349.62 1511.29 1347.47L1495.79 1347.47 1495.79 1343.01 1512.66 1343.01 1512.73 1342.24C1512.77 1341.63 1512.8 1340.47 1512.8 1338.75L1500.18 1338.75ZM1377.58 1313.43 1379.93 1322.54 1388.56 1322.54 1390.92 1313.43ZM1573.54 1310.78 1573.54 1322.02 1590.67 1322.02 1590.67 1310.78ZM1107 1309.56 1112.1 1309.56 1129.75 1337.65 1147.34 1309.56 1152.12 1309.56 1152.12 1356.83 1146.43 1356.83 1146.43 1320.79 1131.32 1344.63 1127.86 1344.63 1112.62 1320.67 1112.62 1356.83 1107 1356.83ZM1226.79 1307.68 1232.35 1307.68 1232.35 1328.35C1233.53 1326.46 1235.05 1325.01 1236.93 1324.02 1238.8 1323.03 1240.89 1322.54 1243.2 1322.54 1246.74 1322.54 1249.61 1323.72 1251.84 1326.09 1254.06 1328.46 1255.17 1331.82 1255.17 1336.17L1255.17 1356.83 1249.61 1356.83 1249.61 1337.72C1249.61 1334.53 1248.97 1332.08 1247.68 1330.35 1246.4 1328.63 1244.49 1327.77 1241.96 1327.77 1240.31 1327.77 1238.75 1328.15 1237.29 1328.9 1235.83 1329.65 1234.64 1330.77 1233.72 1332.26 1232.81 1333.74 1232.35 1335.58 1232.35 1337.78L1232.35 1356.83 1226.79 1356.83ZM1285.06 1306.71 1333.9 1306.71 1333.9 1312.01 1312.39 1312.01 1312.39 1329.06 1338.48 1329.06 1338.48 1334.42 1312.39 1334.42 1312.39 1361.1 1306.57 1361.1 1306.57 1334.42 1280.42 1334.42 1280.42 1329.06 1306.57 1329.06 1306.57 1312.01 1285.06 1312.01ZM1568.44 1305.75 1595.77 1305.75 1595.77 1354.25 1601 1354.25 1601 1359.16 1562.68 1359.16 1562.68 1354.25 1568.44 1354.25ZM1353.65 1303.03 1358.55 1303.03 1358.55 1314.72 1364.24 1314.72 1364.24 1319.44 1358.55 1319.44 1358.55 1330.22 1360.12 1329.64 1363.65 1328.22 1363.91 1333.39 1358.55 1335.2 1358.55 1353.86C1358.55 1356.49 1358.1 1358.28 1357.21 1359.22 1356.32 1360.17 1354.74 1360.64 1352.47 1360.64 1350.6 1360.64 1348.79 1360.54 1347.04 1360.32L1346.19 1355.48C1348.24 1355.78 1350.03 1355.93 1351.55 1355.93 1352.38 1355.93 1352.94 1355.72 1353.22 1355.32 1353.51 1354.91 1353.65 1354.16 1353.65 1353.09L1353.65 1336.94C1350.86 1337.89 1348.2 1338.84 1345.67 1339.78L1344.62 1334.94C1346.5 1334.42 1349.51 1333.43 1353.65 1331.97L1353.65 1319.44 1345.93 1319.44 1345.93 1314.72 1353.65 1314.72ZM1435.71 1302.78 1441.2 1302.78 1441.2 1309.17 1467.35 1309.17 1467.35 1314.34 1441.2 1314.34 1441.2 1321.44 1462.58 1321.44 1462.58 1342.49 1417.99 1342.49 1417.99 1321.44 1435.71 1321.44ZM1484.81 1302.71 1489.58 1302.71 1489.58 1314.92 1496.64 1314.92 1496.64 1319.57 1489.58 1319.57 1489.58 1323.12C1493.33 1327.51 1495.9 1330.63 1497.3 1332.48L1494.62 1337.13C1493.88 1336.06 1492.81 1334.46 1491.41 1332.36L1489.58 1329.58 1489.58 1361.55 1484.81 1361.55 1484.81 1330.16C1482.46 1336.83 1480.06 1342.09 1477.62 1345.92L1474.41 1341.46C1476.38 1338.49 1478.26 1335.05 1480.07 1331.13 1481.88 1327.21 1483.35 1323.36 1484.48 1319.57L1476.44 1319.57 1476.44 1314.92 1484.81 1314.92ZM1505.47 1302.58 1510.18 1302.58 1510.18 1308.65 1520.45 1308.65 1520.45 1302.58 1525.15 1302.58 1525.15 1308.65 1534.76 1308.65 1534.76 1313.17 1525.15 1313.17 1525.15 1316.73 1520.45 1316.73 1520.45 1313.17 1510.18 1313.17 1510.18 1316.73 1505.47 1316.73 1505.47 1313.17 1496.84 1313.17 1496.84 1308.65 1505.47 1308.65ZM1553.92 1302.52 1558.83 1304.65C1557.34 1307.66 1555.71 1310.79 1553.92 1314.05 1552.14 1317.3 1550.57 1319.98 1549.21 1322.09 1551 1321.87 1553.68 1321.5 1557.26 1320.99 1559.52 1317.29 1561.11 1314.55 1562.03 1312.79L1566.54 1314.98C1564.8 1318.21 1562.44 1322.12 1559.48 1326.7 1556.52 1331.29 1553.97 1334.98 1551.83 1337.78L1563.34 1335.13 1563.4 1340.49C1558.3 1341.22 1553.29 1342.13 1548.36 1343.21 1547.19 1343.42 1545.75 1343.77 1544.05 1344.24L1542.94 1338.94C1543.77 1338.68 1544.42 1338.4 1544.9 1338.1 1545.38 1337.8 1545.84 1337.37 1546.27 1336.81 1548.36 1334.27 1550.96 1330.63 1554.05 1325.9 1551.87 1326.11 1549.19 1326.46 1546.01 1326.93 1544.88 1327.1 1543.66 1327.32 1542.35 1327.58L1541.24 1322.47C1541.93 1322.26 1542.46 1322.03 1542.81 1321.8 1543.16 1321.56 1543.48 1321.22 1543.79 1320.79 1545.14 1318.9 1546.83 1316.14 1548.86 1312.53 1550.88 1308.91 1552.57 1305.57 1553.92 1302.52ZM1384.71 1302C1385.36 1303.25 1386.38 1305.55 1387.78 1308.91L1402.29 1308.91 1402.29 1313.43 1395.95 1313.43 1393.47 1322.54 1404.06 1322.54 1404.06 1327.19 1365.29 1327.19 1365.29 1322.54 1374.9 1322.54 1372.67 1313.43 1366.59 1313.43 1366.59 1308.91 1381.96 1308.91C1381.17 1307.1 1380.32 1305.36 1379.41 1303.68Z" fill-rule="evenodd"/><path d="M2761 1601.27 2761 750" stroke="#C00000" stroke-width="13.75" stroke-linecap="square" stroke-miterlimit="8" fill="none" fill-rule="evenodd"/><rect x="1808.5" y="924.5" width="92.0001" height="131" stroke="#A6A6A6" stroke-width="6.875" stroke-miterlimit="8" fill="#FFFFFF"/><path d="M1859.97 1018.3 1858.93 1035.99 1870.32 1035.99 1871.09 1018.3ZM1861.18 999.132 1860.25 1014.01 1871.31 1014.01 1871.97 999.132ZM1851.61 994.891 1876.31 994.891 1874.61 1035.99 1880 1035.99 1880 1040.06 1848.48 1040.06 1848.48 1035.99 1854.69 1035.99 1855.85 1018.3 1850.51 1018.3 1850.51 1014.01 1856.12 1014.01 1857.11 999.132 1851.61 999.132ZM1836.98 991.805 1840.94 992.797C1840.43 994.523 1839.73 996.469 1838.85 998.637L1849.25 998.637 1849.25 1002.66 1837.09 1002.66C1836.24 1004.46 1835.18 1006.5 1833.9 1008.77L1848.15 1008.77 1848.15 1012.85 1841.54 1012.85 1841.54 1019.35 1848.81 1019.35 1848.81 1023.37 1841.54 1023.37 1841.54 1033.89 1847.98 1030.09 1848.86 1034.61C1846.81 1035.64 1844.29 1037.03 1841.32 1038.8L1837.75 1041 1835.66 1037.53C1836.43 1036.94 1836.92 1036.46 1837.14 1036.07 1837.36 1035.68 1837.47 1035.16 1837.47 1034.5L1837.47 1023.37 1830.65 1023.37 1830.65 1019.35 1837.47 1019.35 1837.47 1012.85 1833.35 1012.85 1833.35 1009.71 1831.86 1012.02 1829 1009.1C1830.54 1006.86 1832.02 1004.21 1833.43 1001.14 1834.84 998.076 1836.02 994.964 1836.98 991.805ZM1858.71 962.388C1857.72 965.106 1856.78 967.382 1855.9 969.219 1857.74 970.137 1860.27 971.533 1863.5 973.406 1864.82 971.973 1865.92 970.366 1866.8 968.585 1867.68 966.804 1868.41 964.738 1869 962.388ZM1858.21 949.662 1862.62 950.709C1861.73 953.574 1860.93 956.108 1860.19 958.311L1879.89 958.311 1879.89 962.388 1873.51 962.388C1872.88 965.289 1872.1 967.823 1871.14 969.99 1870.19 972.157 1868.98 974.103 1867.51 975.829 1870.74 977.776 1874.09 979.888 1877.58 982.165 1877.95 982.348 1878.46 982.661 1879.12 983.101L1876.42 987.013C1871.55 983.781 1867.47 981.118 1864.21 979.025 1862.19 980.641 1859.74 982.128 1856.84 983.487 1853.94 984.846 1850.4 986.205 1846.22 987.563L1844.29 983.156C1847.85 982.165 1850.91 981.118 1853.48 980.016 1856.05 978.915 1858.23 977.721 1860.03 976.436 1856.36 974.232 1853.17 972.414 1850.46 970.982 1851.7 968.448 1852.93 965.583 1854.14 962.388L1847.54 962.388 1847.54 958.311 1855.57 958.311C1856.49 955.63 1857.37 952.747 1858.21 949.662ZM1836.76 937.212 1840.99 937.212 1840.99 946.853 1846 946.853 1846 951.095 1840.99 951.095 1840.99 960.184C1842.64 959.523 1844.06 958.917 1845.23 958.366L1845.89 962.553 1843.36 963.6 1840.99 964.591 1840.99 980.567C1840.99 982.807 1840.55 984.341 1839.67 985.167 1838.79 985.993 1837.31 986.407 1835.22 986.407 1833.42 986.407 1831.88 986.315 1830.6 986.131L1829.72 981.889C1831.62 982.183 1833.03 982.33 1833.95 982.33 1834.8 982.33 1835.4 982.257 1835.77 982.11 1836.13 981.963 1836.39 981.669 1836.54 981.228 1836.68 980.787 1836.76 980.09 1836.76 979.135L1836.76 966.244 1834.06 967.291C1833 967.695 1831.73 968.209 1830.27 968.833L1829.17 964.591C1831.37 963.857 1833.9 962.939 1836.76 961.837L1836.76 951.095 1830.49 951.095 1830.49 946.853 1836.76 946.853ZM1863.22 936C1863.59 936.808 1864.05 937.882 1864.6 939.223 1865.15 940.563 1865.66 941.858 1866.14 943.107L1877.63 943.107 1877.63 953.629 1873.4 953.629 1873.4 947.183 1852.6 947.183 1852.6 953.629 1848.48 953.629 1848.48 943.107 1861.29 943.107C1859.94 939.838 1859.08 937.855 1858.71 937.157Z" fill-rule="evenodd"/><rect x="2484.5" y="659.5" width="90.9998" height="131" stroke="#A6A6A6" stroke-width="6.875" stroke-miterlimit="8" fill="#FFFFFF"/><path d="M2531.39 761.418 2534.94 762.849C2534.13 764.868 2533.1 767.043 2531.86 769.374 2530.62 771.705 2529.37 773.788 2528.11 775.623L2524.78 773.641C2527.7 769.42 2529.91 765.345 2531.39 761.418ZM2551.11 761.032C2552.48 763.602 2554.44 767.731 2557 773.421L2553.28 775.018C2552.69 773.439 2551.8 771.338 2550.61 768.713 2549.43 766.089 2548.43 764.005 2547.61 762.464ZM2513.11 755.031 2517.28 756.022 2511.89 776.449 2507.83 775.293C2508.31 773.641 2509.27 770.145 2510.69 764.804 2512.12 759.463 2512.93 756.205 2513.11 755.031ZM2534.5 750.681 2534.5 755.306 2549 755.306 2549 750.681ZM2534.5 742.477 2534.5 747.102 2549 747.102 2549 742.477ZM2508.44 740.11C2509.48 740.88 2511.87 742.752 2515.61 745.726L2518.44 747.983 2515.72 751.507C2514.5 750.369 2512.91 748.993 2510.94 747.378 2508.98 745.762 2507.33 744.459 2506 743.468ZM2522.5 729.648 2556.78 729.648 2556.78 733.778 2544.11 733.778C2543.56 735.833 2543.09 737.503 2542.72 738.788L2553.11 738.788 2553.11 758.885 2543.94 758.885 2543.94 770.228C2543.94 772.54 2543.56 774.164 2542.81 775.1 2542.05 776.036 2540.72 776.504 2538.83 776.504 2537.2 776.504 2535.57 776.394 2533.94 776.174L2533.11 772.155C2535.19 772.448 2536.63 772.595 2537.44 772.595 2538.37 772.595 2539 772.292 2539.33 771.686 2539.67 771.081 2539.83 770.044 2539.83 768.576L2539.83 758.885 2530.39 758.885 2530.39 738.788 2538.39 738.788C2538.69 737.87 2539.13 736.2 2539.72 733.778L2526.67 733.778 2526.67 747.763C2526.67 752.388 2526.48 756.306 2526.11 759.518 2525.74 762.73 2525.11 765.685 2524.22 768.383 2523.33 771.081 2522.07 773.953 2520.44 777L2516.39 775.183C2518.02 772.173 2519.27 769.402 2520.14 766.869 2521.01 764.336 2521.62 761.61 2521.97 758.692 2522.32 755.774 2522.5 752.186 2522.5 747.928ZM2510.72 727.941 2520.11 735.429 2517.5 739.008C2516.54 738.091 2515.11 736.842 2513.22 735.264 2511.33 733.686 2509.67 732.346 2508.22 731.245ZM2532.5 695.456 2532.5 703.66 2546.11 703.66 2546.11 695.456ZM2514.94 695.456 2514.94 703.66 2528 703.66 2528 695.456ZM2532.5 683.398 2532.5 691.546 2546.11 691.546 2546.11 683.398ZM2514.94 683.398 2514.94 691.546 2528 691.546 2528 683.398ZM2528 672 2532.5 672 2532.5 679.268 2550.44 679.268 2550.44 707.789 2532.5 707.789 2532.5 712.69C2532.5 714.305 2532.81 715.415 2533.44 716.021 2534.07 716.626 2535.2 716.984 2536.83 717.094 2538.35 717.204 2539.85 717.26 2541.33 717.26 2542.85 717.26 2544.35 717.204 2545.83 717.094 2547.39 716.984 2548.56 716.81 2549.36 716.571 2550.16 716.333 2550.76 715.911 2551.17 715.305 2551.57 714.699 2551.81 713.791 2551.89 712.579 2552.07 709.276 2552.17 707.275 2552.17 706.578L2556.67 707.624C2556.56 709.9 2556.41 712.212 2556.22 714.562 2556.07 716.323 2555.69 717.654 2555.08 718.553 2554.47 719.453 2553.56 720.086 2552.36 720.453 2551.16 720.82 2549.46 721.059 2547.28 721.169 2545.43 721.279 2543.56 721.334 2541.67 721.334 2539.78 721.334 2537.89 721.279 2536 721.169 2533.85 721.022 2532.22 720.737 2531.11 720.315 2530 719.893 2529.2 719.159 2528.72 718.113 2528.24 717.067 2528 715.552 2528 713.57L2528 707.789 2510.67 707.789 2510.67 679.268 2528 679.268Z" fill-rule="evenodd"/><rect x="1808.5" y="659.5" width="92.0001" height="131" stroke="#A6A6A6" stroke-width="6.875" stroke-miterlimit="8" fill="#FFFFFF"/><path d="M1853.1 725.992 1857.63 725.992 1857.63 745.655 1870.56 745.655 1870.56 730.976 1874.98 730.976 1874.98 749.928 1857.63 749.928 1857.63 769.262 1872.16 769.262 1872.16 754.145 1876.63 754.145 1876.63 776 1872.16 776 1872.16 773.48 1834.2 773.48 1834.2 754.255 1838.73 754.255 1838.73 769.262 1853.1 769.262 1853.1 749.928 1835.8 749.928 1835.8 730.976 1840.22 730.976 1840.22 745.655 1853.1 745.655ZM1853.76 702.604 1853.76 707.314 1860.39 707.314 1860.39 702.604ZM1853.76 694.552 1853.76 699.318 1860.39 699.318 1860.39 694.552ZM1867.57 691.978 1871 691.978 1871 711.97 1867.57 711.97ZM1850.33 691.211 1863.76 691.211 1863.76 716.242C1863.76 717.958 1863.48 719.164 1862.9 719.858 1862.33 720.551 1861.37 720.898 1860 720.898 1859.19 720.898 1857.98 720.825 1856.36 720.679L1855.64 717.174C1855.9 717.21 1856.34 717.274 1856.96 717.365 1857.59 717.456 1858.2 717.502 1858.79 717.502 1859.38 717.502 1859.79 717.329 1860.03 716.982 1860.27 716.635 1860.39 716.06 1860.39 715.256L1860.39 710.655 1853.76 710.655 1853.76 721.062 1850.33 721.062ZM1874.26 690.225 1877.85 690.225 1877.85 715.421C1877.85 717.502 1877.47 718.963 1876.72 719.803 1875.96 720.642 1874.59 721.062 1872.6 721.062 1870.98 721.062 1869.29 720.953 1867.52 720.734L1866.8 717.009C1868.79 717.301 1870.56 717.447 1872.1 717.447 1872.88 717.447 1873.43 717.182 1873.76 716.653 1874.09 716.124 1874.26 715.293 1874.26 714.161ZM1864.26 675.491C1862.19 678.595 1859.67 681.48 1856.69 684.146L1871.94 684.146C1868.81 681.443 1866.25 678.559 1864.26 675.491ZM1861.99 671.657 1866.3 671.657C1868 674.396 1870.12 676.952 1872.68 679.326 1875.24 681.699 1878.02 683.725 1881 685.405L1879.07 689.294C1876.71 687.907 1874.41 686.245 1872.16 684.31L1872.16 687.651 1855.64 687.651 1855.64 685.077C1853.72 686.647 1851.7 688.144 1849.56 689.568L1847.29 685.789C1850.54 683.78 1853.35 681.626 1855.75 679.326 1858.14 677.025 1860.22 674.469 1861.99 671.657ZM1838.01 671 1841.88 671.822C1841.47 673.757 1840.94 675.948 1840.28 678.394L1849.34 678.394 1849.34 682.338 1839.28 682.338C1837.96 687.341 1836.69 691.667 1835.47 695.319L1839.61 695.319 1839.61 687.706 1843.54 687.706 1843.54 695.319 1848.01 695.319 1848.01 699.153 1843.54 699.153 1843.54 705.89C1844.09 705.817 1844.62 705.735 1845.14 705.644 1845.66 705.553 1846.15 705.47 1846.63 705.397L1848.07 705.123 1848.34 709.286 1843.54 710.053 1843.54 721.555 1839.61 721.555 1839.61 710.71C1836.08 711.331 1833.04 711.897 1830.5 712.408L1830 708.081C1831.8 707.862 1834.05 707.515 1836.74 707.041 1837.48 706.968 1838.44 706.821 1839.61 706.602L1839.61 699.153 1831.55 699.153 1831.55 695.045C1832.84 691.467 1834.13 687.231 1835.42 682.338L1830.61 682.338 1830.61 678.394 1836.41 678.394C1837.07 675.692 1837.61 673.227 1838.01 671Z" fill-rule="evenodd"/></g></svg>