<?xml version="1.0"?>
<svg xmlns="http://www.w3.org/2000/svg" xmlns:xlink="http://www.w3.org/1999/xlink" width="574.586854" height="380.895966">
<defs>
<g id="orig">
<defs />
	<path d="M -163.949 -72.3133 L 163.949 -72.3133, 163.949 72.3133, -163.949 72.3133 Z" fill="none" stroke="#000000" stroke-opacity="0.474509776" stroke-width="4.53333378" stroke-linecap="round" stroke-linejoin="round" stroke-dasharray="15.8893, 11.3107" transform="matrix(0.294118 0 -0 0.294118 129.291 137.643)" />
	<path d="M -46.3972 18.3303 L 46.397 -18.3322" fill="none" stroke="#E50500" stroke-width="4.53333378" stroke-linecap="round" stroke-linejoin="round" transform="matrix(0.294118 0 0 0.294118 127.606 141.411)" />
	<path d="M -46.1221 0 L 46.1162 0" fill="none" stroke="#003FDB" stroke-width="4.53333378" stroke-linecap="round" stroke-linejoin="round" transform="matrix(0.294118 0 0 0.294118 239.582 146.802)" />
	<path d="M -410.943 0 L 410.943 0" fill="none" stroke="#E50500" stroke-width="9.06666756" stroke-linecap="round" stroke-linejoin="round" transform="matrix(0.294118 0 0 0.294118 155.594 18.1061)" />
	<path d="M -410.943 0 L 410.943 0" fill="none" stroke="#003FDB" stroke-width="9.06666756" stroke-linecap="round" stroke-linejoin="round" transform="matrix(0.294118 0 0 0.294118 155.594 43.2224)" />
	<path d="M -410.943 0 L 410.943 0" fill="none" stroke="#E5CE00" stroke-width="9.06666756" stroke-linecap="round" stroke-linejoin="round" transform="matrix(0.294118 0 0 0.294118 155.594 68.3386)" />
	<path d="M -410.943 0 L 410.943 0" fill="none" stroke="#008704" stroke-width="3.62666702" stroke-linecap="round" stroke-linejoin="round" transform="matrix(0.294118 0 0 0.294118 155.594 67.6477)" />
	<g transform="matrix(1 0 -0 1 9.60413 8.49973)">
		<svg width="32.9738617" height="38.9999886">
			<defs />
			<path d="M 8.7832 14.4208 L 0.000246644 14.4208, 0.000246644 13.7691 C 0.297134 13.7696, 0.583225 13.7657, 0.85803 13.7578, 1.13283 13.75, 1.34041 13.7225, 1.48027 13.6749, 1.55584 13.6494, 1.61276 13.5984, 1.65055 13.5223, 1.68833 13.4467, 1.70698 13.3613, 1.70698 13.2666 L 1.70698 4.41791 C 1.70698 4.32419, 1.68833 4.23929, 1.65055 4.16323, 1.61276 4.08766, 1.55584 4.03613, 1.48027 4.00963, 1.34041 3.96301, 1.13283 3.93701, 0.85803 3.93161, 0.583225 3.9267, 0.297134 3.92376, 0.000246644 3.92327 L 0.000246644 3.27944 C 0.814846 3.31133, 1.60197 3.32704, 2.36209 3.32655, 2.48625 3.32704, 2.61285 3.32164, 2.74191 3.31084, 3.6154 3.31133, 4.52127 3.30103, 5.45904 3.27944 L 5.45904 3.92327, 4.90109 3.92327 C 4.73425 3.92376, 4.57084 3.9267, 4.41184 3.93161, 4.25285 3.93701, 4.10367 3.94731, 3.96332 3.96301, 3.82298 3.97872, 3.71256 3.99687, 3.63159 4.01748, 3.54032 4.04398, 3.46867 4.09551, 3.41764 4.17108, 3.3666 4.24714, 3.3406 4.32958, 3.3406 4.41791 L 3.3406 13.2666 C 3.3406 13.3559, 3.34501 13.4374, 3.35286 13.5105, 3.36072 13.5841, 3.39458 13.6415, 3.45346 13.6828, 3.50744 13.725, 3.59921 13.75, 3.72876 13.7578, 3.85831 13.7657, 3.98197 13.7696, 4.10072 13.7691 L 5.42715 13.7691 C 5.86389 13.7696, 6.28395 13.7147, 6.68831 13.6047, 7.09266 13.4948, 7.44353 13.2931, 7.73992 12.9997, 8.08539 12.6444, 8.31014 12.2165, 8.41516 11.7164, 8.52017 11.2169, 8.60507 10.6894, 8.66984 10.1339 L 9.24399 10.1339 Z" stroke="none" fill="#000000" />
			<rect />
		</svg>
	</g>
	<g transform="matrix(1 0 -0 1 8.50025 33.4836)">
		<svg width="39.020092" height="38.9999886">
			<defs />
			<path d="M 11.4456 3.92327 C 11.1762 3.92376, 10.9338 3.93701, 10.7179 3.96301, 10.5024 3.98951, 10.3081 4.05723, 10.1354 4.16666, 10.0063 4.24027, 9.90818 4.34136, 9.84046 4.46944, 9.77323 4.59801, 9.73937 4.73247, 9.73937 4.87331 L 9.73937 14.1617 C 9.73937 14.3349, 9.65301 14.4208, 9.48027 14.4208 L 9.3836 14.4208 C 9.29233 14.4208, 9.21921 14.3845, 9.16523 14.3109 L 2.29119 4.46502 C 2.248 4.4027, 2.2588 4.4027, 2.32357 4.46502 L 2.32357 12.8269 C 2.32357 13.1204, 2.45558 13.3535, 2.71959 13.5257, 2.89772 13.6361, 3.09303 13.7044, 3.306 13.7304, 3.51897 13.7569, 3.76041 13.7696, 4.02982 13.7691 L 4.02982 14.4287 C 3.33446 14.3923, 2.6607 14.3737, 2.00804 14.3737, 1.36666 14.3737, 0.695356 14.3923, -0.00588694 14.4287 L -0.00588694 13.7691 C 0.26401 13.7696, 0.504955 13.7554, 0.717929 13.7264, 0.930903 13.698, 1.1267 13.6307, 1.30434 13.5257, 1.56344 13.3589, 1.69545 13.1258, 1.70085 12.8269 L 1.70085 4.03319 C 1.70624 4.03368, 1.6979 4.02583, 1.67631 4.00963, 1.50407 3.96301, 1.26312 3.93701, 0.952985 3.93161, 0.642848 3.9267, 0.323388 3.92376, -0.00588694 3.92327 L -0.00588694 3.27944, 3.13228 3.27944 C 3.22405 3.27993, 3.29668 3.31673, 3.35066 3.38936 L 9.11665 11.6571, 9.11665 4.87331 C 9.11665 4.73247, 9.08328 4.59899, 9.01556 4.47337, 8.94833 4.34774, 8.85264 4.24322, 8.72849 4.15881, 8.55084 4.04938, 8.35406 3.98264, 8.13815 3.95909, 7.92272 3.93553, 7.6803 3.92376, 7.4104 3.92327 L 7.4104 3.27944 C 8.11655 3.30103, 8.79032 3.31133, 9.43218 3.31084, 10.0848 3.31133, 10.7557 3.30103, 11.4456 3.27944 L 11.4456 3.92327 Z" stroke="none" fill="#000000" />
			<rect />
		</svg>
	</g>
	<g transform="matrix(1 0 -0 1 9.02189 58.7322)">
		<svg width="36.0612984" height="38.9999886">
			<defs />
			<path d="M 9.67705 14.4208 L -0.00343508 14.4208, -0.00343508 13.7691 C 0.293452 13.7696, 0.579543 13.7657, 0.854348 13.7578, 1.12915 13.75, 1.33673 13.7225, 1.47658 13.6749, 1.55216 13.6494, 1.60908 13.5984, 1.64687 13.5223, 1.68465 13.4467, 1.7033 13.3613, 1.7033 13.2666 L 1.7033 4.47288 C 1.7033 4.37915, 1.68465 4.29278, 1.64687 4.21426, 1.60908 4.13575, 1.55216 4.08324, 1.47658 4.05674, 1.33673 4.01012, 1.12915 3.98412, 0.854348 3.97872, 0.579543 3.97381, 0.293452 3.97087, -0.00343508 3.97038 L -0.00343508 3.31084, 9.45868 3.31084, 9.93566 7.08745, 9.36152 7.08745 C 9.32422 6.81559, 9.28791 6.5609, 9.25257 6.32241, 9.21773 6.08441, 9.16915 5.85524, 9.10732 5.6354, 9.04549 5.41555, 8.9601 5.21141, 8.85215 5.02298, 8.74419 4.83454, 8.60973 4.66965, 8.44779 4.52784, 8.29174 4.3973, 8.10821 4.29278, 7.89818 4.21426, 7.68815 4.13575, 7.46684 4.07833, 7.23472 4.04153, 7.0031 4.00522, 6.76167 3.98412, 6.51091 3.97872, 6.26064 3.97381, 6.01381 3.97087, 5.7709 3.97038 L 4.09704 3.97038 C 3.97338 3.97087, 3.84923 3.97381, 3.72508 3.97872, 3.60141 3.98412, 3.50965 4.00767, 3.44978 4.04889, 3.39089 4.09109, 3.35703 4.15145, 3.34918 4.22997, 3.34133 4.30848, 3.33691 4.38945, 3.33691 4.47288 L 3.33691 8.32799, 4.50925 8.32799 C 4.79534 8.32848, 5.08781 8.31572, 5.38715 8.28923, 5.68649 8.26322, 5.92204 8.17145, 6.09428 8.01393, 6.26702 7.84169, 6.36713 7.62332, 6.39412 7.35882, 6.42111 7.09481, 6.43435 6.79743, 6.43435 6.46717 L 7.0085 6.46717, 7.0085 10.8483, 6.43435 10.8483 C 6.43435 10.5191, 6.42111 10.2222, 6.39412 9.95768, 6.36713 9.69367, 6.26702 9.47481, 6.09428 9.30159, 5.92204 9.14505, 5.68748 9.05377, 5.39108 9.02727, 5.09468 9.00126, 4.80074 8.98801, 4.50925 8.98752 L 3.33691 8.98752, 3.33691 13.2666 C 3.33691 13.3559, 3.34133 13.4374, 3.34918 13.5105, 3.35703 13.5841, 3.39089 13.6415, 3.44978 13.6828, 3.50376 13.725, 3.59552 13.75, 3.72508 13.7578, 3.85463 13.7657, 3.97829 13.7696, 4.09704 13.7691 L 5.90045 13.7691 C 6.15366 13.7696, 6.40982 13.7657, 6.66843 13.7578, 6.92753 13.75, 7.17829 13.7255, 7.42071 13.6832, 7.66362 13.6415, 7.89573 13.5763, 8.11655 13.487, 8.33738 13.3981, 8.5371 13.2774, 8.71474 13.1253, 8.88748 12.9845, 9.03568 12.8014, 9.15934 12.5762, 9.28349 12.3514, 9.38458 12.109, 9.4626 11.8499, 9.54112 11.5908, 9.60835 11.3175, 9.66478 11.0294, 9.72171 10.7419, 9.77421 10.443, 9.82279 10.1339 L 10.4048 10.1339 Z" stroke="none" fill="#000000" />
			<rect />
		</svg>
	</g>
	<path d="M 0 -218.784 L 0 218.784" fill="none" stroke="#E50500" stroke-width="4.53333378" stroke-linecap="round" stroke-linejoin="round" transform="matrix(0.294118 0 0 0.294118 59.4213 82.4543)" />
	<ellipse cx="1705.8617677688599" cy="354.78114032745361" rx="8.9250001907348633" ry="8.9250001907348633" stroke="none" fill="#E50500" transform="matrix(0.294118 0 0 0.294118 -442.303 -86.2413)" />
	<path d="M -92.7156 0 L 92.7158 0" fill="none" stroke="#E50500" stroke-width="4.53333378" stroke-linecap="round" stroke-linejoin="round" transform="matrix(0.294118 0 0 0.294118 86.6906 146.802)" />
	<ellipse cx="1891.2932090759277" cy="792.34850692749023" rx="10.880001068115234" ry="10.880001068115234" stroke="none" fill="#E50500" transform="matrix(0.294118 0 0 0.294118 -442.303 -86.2413)" />
	<ellipse cx="1891.2932510375977" cy="792.34848785400391" rx="7.2533340454101562" ry="7.2533340454101562" stroke="none" fill="#FFFFFF" transform="matrix(0.294118 0 0 0.294118 -442.303 -86.2413)" />
	<path d="M -99.6343 0 L 99.6306 0" fill="none" stroke="#E50500" stroke-width="4.53333378" stroke-linecap="round" stroke-linejoin="round" transform="matrix(0.294118 0 0 0.294118 171.842 146.802)" />
	<ellipse cx="1988.4577598571777" cy="792.34850692749023" rx="10.880001068115234" ry="10.880001068115234" stroke="none" fill="#E50500" transform="matrix(0.294118 0 0 0.294118 -442.303 -86.2413)" />
	<ellipse cx="1988.4578018188477" cy="792.34848785400391" rx="7.2533340454101562" ry="7.2533340454101562" stroke="none" fill="#FFFFFF" transform="matrix(0.294118 0 0 0.294118 -442.303 -86.2413)" />
	<path d="M -42.2822 0 L -40.7495 0" fill="none" stroke="#000000" stroke-width="3.4000001" stroke-linecap="round" stroke-linejoin="round" transform="matrix(0.294118 0 -0 0.294118 213.582 146.802)" />
	<path d="M 42.2822 0 L 40.7495 0" fill="none" stroke="#000000" stroke-width="3.4000001" stroke-linecap="round" stroke-linejoin="round" transform="matrix(0.294118 0 -0 0.294118 213.582 146.802)" />
	<path d="M 40.7495 -0 C 40.7495 22.5053, 22.5053 40.7495, -0 40.7495, -22.5053 40.7495, -40.7495 22.5053, -40.7495 -0, -40.7495 -22.5053, -22.5053 -40.7495, -0 -40.7495, 22.5053 -40.7495, 40.7495 -22.5053, 40.7495 -0 Z" stroke="none" fill="#FFFFFF" transform="matrix(0.294118 0 -0 0.294118 213.582 146.802)" />
	<path d="M 40.7495 -0 C 40.7495 22.5053, 22.5053 40.7495, -0 40.7495, -22.5053 40.7495, -40.7495 22.5053, -40.7495 -0, -40.7495 -22.5053, -22.5053 -40.7495, -0 -40.7495, 22.5053 -40.7495, 40.7495 -22.5053, 40.7495 -0 Z" fill="none" stroke="#000000" stroke-width="5.10000038" stroke-linecap="round" stroke-linejoin="round" transform="matrix(0.294118 0 -0 0.294118 213.582 146.802)" />
	<path d="M -28.5247 -28.5247 L 28.5247 28.5247" fill="none" stroke="#000000" stroke-width="3.4000001" stroke-linecap="round" stroke-linejoin="round" transform="matrix(0.294118 0 -0 0.294118 213.582 146.802)" />
	<path d="M -28.5247 28.5247 L 28.5247 -28.5247" fill="none" stroke="#000000" stroke-width="3.4000001" stroke-linecap="round" stroke-linejoin="round" transform="matrix(0.294118 0 -0 0.294118 213.582 146.802)" />
	<path d="M 0 176.087 L 0 -176.086" fill="none" stroke="#003FDB" stroke-width="4.53333378" stroke-linecap="round" stroke-linejoin="round" transform="matrix(0.294118 0 0 0.294118 253.146 95.0122)" />
	<ellipse cx="2364.5253419876099" cy="440.17646503448486" rx="8.9250001907348633" ry="8.9250001907348633" stroke="none" fill="#003FDB" transform="matrix(0.294118 0 0 0.294118 -442.303 -86.2413)" />
	<g transform="matrix(1 0 -0 1 106.69 164.854)">
		<svg width="125.982887" height="45.0428505">
			<defs />
			<path d="M 12.8171 6.56877 L 12.8171 7.62737, 9.87748 7.62737, 9.87748 13.0142, 8.74518 13.0142, 8.74518 7.62737, 4.7838 7.62737 C 4.72015 8.46822, 4.58699 9.18094, 4.38431 9.76551, 4.18164 10.3509, 3.87344 10.9003, 3.45971 11.4137, 3.04599 11.9271, 2.4656 12.5008, 1.72023 13.1348 L 0.823265 12.3174 C 1.52258 11.7638, 2.06276 11.2663, 2.44466 10.8241, 2.82656 10.3819, 3.10964 9.91291, 3.29389 9.41711, 3.47814 8.92131, 3.59706 8.32501, 3.65234 7.62737 L 0.574527 7.62737, 0.574527 6.56877, 3.70761 6.56877, 3.70761 6.07297, 3.70761 2.81677, 1.15408 2.81677, 1.15408 1.77157, 12.2099 1.77157, 12.2099 2.81677, 9.87748 2.81677, 9.87748 6.56877 Z M 4.83908 6.56877 L 8.74518 6.56877, 8.74518 2.81677, 4.83908 2.81677, 4.83908 5.95237 Z" stroke="none" fill="#000000" />
			<path d="M 21.0704 8.01597 C 21.8618 9.9908, 23.6834 11.34, 26.5359 12.0628 L 25.984 13.1616 C 24.6314 12.778, 23.4857 12.2395, 22.5477 11.5477, 21.6097 10.8559, 20.892 10.0226, 20.3945 9.04777, 19.5755 10.7194, 17.7078 12.103, 14.7908 13.2018 L 14.1836 12.1432 C 15.8955 11.5276, 17.1693 10.8802, 18.0068 10.201, 18.8443 9.52264, 19.3728 8.79401, 19.5939 8.01597 L 14.3905 8.01597, 14.3905 6.91717, 19.7321 6.91717, 19.7321 4.57217, 15.0253 4.57217, 15.0253 3.51357, 21.0151 3.51357 C 21.7789 2.60321, 22.5059 1.66521, 23.196 0.699574 L 24.2454 1.30257 C 23.5921 2.18781, 23.0117 2.92481, 22.5059 3.51357 L 25.6256 3.51357, 25.6256 4.57217, 20.9188 4.57217, 20.9188 6.85017, 20.9188 6.91717, 26.288 6.91717, 26.288 8.01597 Z M 18.1718 3.48677 C 17.7212 2.81761, 17.1928 2.10741, 16.5847 1.35617 L 17.537 0.753174 C 18.0805 1.4148, 18.614 2.12081, 19.1383 2.87037 Z" stroke="none" fill="#000000" />
			<path d="M 31.0108 3.76817 C 30.0544 4.25141, 29.0653 4.66681, 28.0435 5.01437 L 27.6156 3.99597 C 28.84 3.6124, 29.9581 3.14591, 30.9698 2.59651, 31.9815 2.04711, 32.8282 1.46421, 33.5091 0.846974 L 34.5995 0.846974 C 35.9797 2.16101, 37.9352 3.20621, 40.4653 3.98257 L 40.0516 5.01437 C 39.0299 4.66681, 38.05 4.26062, 37.1111 3.79497 L 37.1111 4.41137, 31.0108 4.41137 Z M 34.0752 1.71797 C 33.468 2.326, 32.5752 2.9424, 31.3977 3.56717 L 36.6832 3.56717 C 35.5609 2.96082, 34.6916 2.34442, 34.0752 1.71797 Z M 38.3264 7.92217 L 29.7964 7.92217, 29.7964 5.22877, 38.3264 5.22877 Z M 37.3046 6.04617 L 30.8173 6.04617, 30.8173 7.07797, 37.3046 7.07797 Z M 29.2579 8.87357 L 38.823 8.87357, 38.823 11.7546, 40.2995 11.7546, 40.2995 12.6658, 27.7948 12.6658, 27.7948 11.7546, 29.2579 11.7546 Z M 32.1565 9.74457 L 30.2797 9.74457, 30.2797 11.7546, 32.1565 11.7546 Z M 33.1364 11.7546 L 34.9722 11.7546, 34.9722 9.74457, 33.1364 9.74457 Z M 35.952 11.7546 L 37.8289 11.7546, 37.8289 9.74457, 35.952 9.74457 Z" stroke="none" fill="#000000" />
			<rect />
		</svg>
	</g>
	<g transform="matrix(1 0 -0 1 200.01 164.854)">
		<svg width="84.0452042" height="45.0428505">
			<defs />
			<path d="M 2.18923 5.06797 L 1.30566 5.75137, 0.561127 4.93397 C 1.38941 4.34521, 2.15991 3.68024, 2.87263 2.93821, 3.58618 2.19702, 4.16824 1.4416, 4.61881 0.672774 L 5.72264 1.02117 C 5.61209 1.21882, 5.42868 1.50441, 5.17073 1.87877 L 10.277 1.87877, 10.277 2.85697, 8.52408 4.70617, 11.2158 4.70617, 11.2158 10.1198, 10.112 10.1198, 10.112 5.72457, 3.30729 5.72457, 3.30729 10.1332, 2.18923 10.1332 Z M 4.42535 2.85697 C 3.89186 3.51022, 3.28468 4.12662, 2.60379 4.70617 L 7.08944 4.70617, 8.82809 2.85697 Z M 11.9746 13.1884 C 11.3213 12.8316, 10.4612 12.3802, 9.39424 11.835, 8.32726 11.2906, 7.39261 10.8308, 6.59196 10.4548, 6.18745 11.0008, 5.55011 11.4966, 4.68079 11.9422, 3.81146 12.3894, 2.61719 12.8182, 1.0988 13.2286 L 0.53349 12.17 C 2.12558 11.7864, 3.32153 11.3961, 4.12218 10.9983, 4.92283 10.6013, 5.4538 10.1675, 5.71594 9.69851, 5.97808 9.22951, 6.10873 8.63321, 6.10873 7.90877 L 6.10873 6.52857, 7.28206 6.52857, 7.28206 8.01597 C 7.28206 8.6508, 7.20418 9.17842, 7.04756 9.59717, 7.87585 9.964, 8.84903 10.4087, 9.96709 10.9313, 11.0852 11.4539, 11.9428 11.871, 12.5407 12.1834 Z" stroke="none" fill="#000000" />
			<path d="M 26.6083 5.13497 L 22.8262 5.13497 C 22.9736 6.72622, 23.1762 8.021, 23.4334 9.02097, 24.0498 8.08381, 24.5564 6.95402, 24.9517 5.63077 L 25.9459 6.03277 C 25.6511 6.90042, 25.3336 7.67511, 24.9936 8.35851, 24.6536 9.04191, 24.2575 9.68762, 23.806 10.294, 23.9258 10.6072, 24.0364 10.871, 24.1377 11.0846, 24.2759 11.3626, 24.4023 11.5569, 24.5171 11.6683, 24.6327 11.7797, 24.7499 11.835, 24.8688 11.835, 24.9702 11.835, 25.0573 11.7554, 25.131 11.5946, 25.2047 11.4338, 25.2784 11.1616, 25.3521 10.7764, 25.4258 10.3844, 25.481 9.91961, 25.5179 9.38277 L 26.5254 9.67757 C 26.4701 10.1516, 26.3872 10.706, 26.2767 11.3392, 26.1762 11.974, 26.0062 12.4179, 25.7666 12.6725, 25.5271 12.9271, 25.2281 13.0544, 24.8688 13.0544, 24.538 13.0544, 24.2441 12.9497, 23.9861 12.7395, 23.7282 12.5301, 23.471 12.1834, 23.2131 11.701, 23.121 11.5234, 23.0565 11.3802, 23.0196 11.2722, 22.5138 11.8442, 21.9242 12.443, 21.2525 13.0678 L 20.4661 12.2236 C 21.3312 11.4832, 22.0439 10.7814, 22.6051 10.1198, 22.1729 8.6642, 21.879 7.0026, 21.7223 5.13497 L 14.1446 5.13497, 14.1446 4.19697, 17.457 4.19697, 17.457 3.03117, 14.89 3.03117, 14.89 2.13337, 17.457 2.13337, 17.457 0.846974, 18.5197 0.846974, 18.5197 2.13337, 21.0046 2.13337, 21.0046 3.03117, 18.5197 3.03117, 18.5197 4.19697, 21.6528 4.19697, 21.6118 3.51357, 21.5155 0.753174, 22.5917 0.753174 C 22.6009 1.1736, 22.6285 1.79502, 22.6746 2.61577 L 22.7299 3.71457, 22.7575 4.19697, 26.6083 4.19697 Z M 25.0481 3.75477 C 24.7817 3.41642, 24.4685 3.04374, 24.1101 2.63671, 23.7516 2.23052, 23.4702 1.92902, 23.2675 1.73137 L 24.0271 1.14177 C 24.4049 1.5086, 25.012 2.17022, 25.8487 3.12497 Z M 21.1286 11.1516 C 20.8991 11.1616, 20.1261 11.2236, 18.8095 11.3392 L 18.8095 13.0678, 17.761 13.0678, 17.761 11.4196, 14.5039 11.7144, 14.4344 10.763, 17.761 10.495, 17.761 9.43637, 15.0416 9.43637, 15.0416 8.55197 C 15.4193 7.99922, 15.7275 7.52101, 15.967 7.11817 L 14.4763 7.11817, 14.4763 6.23377, 16.4913 6.23377, 16.9746 5.29577, 18.0231 5.51017, 17.6504 6.23377, 21.1972 6.23377, 21.1972 7.11817, 17.1672 7.11817 C 16.9285 7.54781, 16.6437 8.021, 16.3121 8.53857 L 17.761 8.53857, 17.761 7.58717, 18.8095 7.58717, 18.8095 8.53857, 21.0456 8.53857, 21.0456 9.43637, 18.8095 9.43637, 18.8095 10.4146 C 19.7207 10.3442, 20.4803 10.2814, 21.0875 10.227 Z" stroke="none" fill="#000000" />
			<rect />
		</svg>
	</g>
</g>
</defs>
<use xlink:href="#orig" transform="scale(2)"/>
</svg>
