<?xml version="1.0"?>
<svg xmlns="http://www.w3.org/2000/svg" xmlns:xlink="http://www.w3.org/1999/xlink" width="528.632874" height="225.55449">
<defs>
<g id="orig">
<defs>
		<marker id="CustomMarker-01" markerUnits="strokeWidth" markerWidth="9" markerHeight="6" viewBox="-9 -3 9 6" orient="auto-start-reverse">
			<path d="M 0 -0 L -6 -2, -6 -0.5, -6 0.5, -6 2 Z" fill="#000000" stroke="#000000" stroke-linejoin="round" />
		</marker>
		<marker id="CustomMarker-02" markerUnits="strokeWidth" markerWidth="9" markerHeight="6" viewBox="-9 -3 9 6" orient="auto-start-reverse">
			<path d="M 0 -0 L -6 -2, -6 -0.5, -6 0.5, -6 2 Z" fill="#000000" stroke="#000000" stroke-linejoin="round" />
		</marker>
	</defs>
	<path d="M 0 -42.0872 L 0 0" fill="none" stroke="#000000" stroke-width="7.4666667" stroke-linecap="round" stroke-linejoin="round" transform="matrix(0.178571 0 -0 0.178571 157.517 96.7617)" />
	<path d="M -42.087 0 L 42.087 0" fill="none" stroke="#000000" stroke-width="8.39999962" stroke-linecap="round" stroke-linejoin="round" transform="matrix(0.178571 0 -0 0.178571 157.517 96.7617)" />
	<path d="M -25.2522 21.0436 L 25.2522 21.0436" fill="none" stroke="#000000" stroke-width="8.39999962" stroke-linecap="round" stroke-linejoin="round" transform="matrix(0.178571 0 -0 0.178571 157.517 96.7617)" />
	<path d="M -8.4174 41.6663 L 8.4174 41.6663" fill="none" stroke="#000000" stroke-width="8.39999962" stroke-linecap="round" stroke-linejoin="round" transform="matrix(0.178571 0 -0 0.178571 157.517 96.7617)" />
	<path d="M -276.324 0 L 276.322 0" fill="none" stroke="#E50500" stroke-width="14.9333334" stroke-linecap="round" stroke-linejoin="round" transform="matrix(0.178571 0 0 0.178571 115.689 20.2075)" />
	<path d="M -276.323 0 L 276.322 0" fill="none" stroke="#003FDB" stroke-width="14.9333334" stroke-linecap="round" stroke-linejoin="round" transform="matrix(0.178571 0 0 0.178571 115.689 54.147)" />
	<path d="M -276.323 0 L 276.322 0" fill="none" stroke="#E5CE00" stroke-width="14.9333334" stroke-linecap="round" stroke-linejoin="round" transform="matrix(0.178571 0 0 0.178571 115.689 88.0868)" />
	<path d="M -276.324 0 L 276.322 0" fill="none" stroke="#008704" stroke-width="5.97333336" stroke-linecap="round" stroke-linejoin="round" transform="matrix(0.178571 0 0 0.178571 115.689 87.3959)" />
	<g transform="matrix(1 0 -0 1 40.451 9)">
		<svg width="36.0612984" height="45.0428467">
			<defs />
			<path d="M 10.2471 16.8243 L 0.000290453 16.8243, 0.000290453 16.064 C 0.346659 16.0646, 0.680432 16.06, 1.00104 16.0508, 1.32164 16.0417, 1.56381 16.0096, 1.72698 15.9541, 1.81515 15.9243, 1.88156 15.8647, 1.92564 15.776, 1.96972 15.6878, 1.99148 15.5882, 1.99148 15.4777 L 1.99148 5.15423 C 1.99148 5.04488, 1.96972 4.94584, 1.92564 4.8571, 1.88156 4.76893, 1.81515 4.70882, 1.72698 4.67791, 1.56381 4.62352, 1.32164 4.59317, 1.00104 4.58688, 0.680432 4.58115, 0.346659 4.57772, 0.000290453 4.57714 L 0.000290453 3.82601 C 0.950657 3.86322, 1.86896 3.88154, 2.75578 3.88097, 2.90062 3.88154, 3.04833 3.87525, 3.1989 3.86265, 4.21797 3.86322, 5.27482 3.8512, 6.36889 3.82601 L 6.36889 4.57714, 5.71795 4.57714 C 5.52329 4.57772, 5.33265 4.58115, 5.14715 4.58688, 4.96166 4.59317, 4.78762 4.6052, 4.62388 4.62352, 4.46014 4.64184, 4.33133 4.66302, 4.23686 4.68707, 4.13038 4.71798, 4.04679 4.77809, 3.98725 4.86626, 3.92771 4.955, 3.89736 5.05118, 3.89736 5.15423 L 3.89736 15.4777 C 3.89736 15.5819, 3.90252 15.677, 3.91168 15.7623, 3.92084 15.8481, 3.96034 15.9151, 4.02904 15.9632, 4.09202 16.0125, 4.19908 16.0417, 4.35022 16.0508, 4.50136 16.06, 4.64563 16.0646, 4.78418 16.064 L 6.33168 16.064 C 6.84121 16.0646, 7.33128 16.0004, 7.80303 15.8722, 8.27477 15.7439, 8.68412 15.5086, 9.02991 15.1663, 9.43296 14.7518, 9.69517 14.2526, 9.81769 13.6692, 9.9402 13.0864, 10.0392 12.4709, 10.1148 11.8228 L 10.7847 11.8228 Z" stroke="none" fill="#000000" />
			<rect />
		</svg>
	</g>
	<g transform="matrix(1 0 -0 1 39.1632 42.8071)">
		<svg width="44.9376793" height="45.0428467">
			<defs />
			<path d="M 13.3532 4.57714 C 13.0389 4.57772, 12.7561 4.59317, 12.5042 4.62352, 12.2529 4.65443, 12.0261 4.73344, 11.8246 4.86111, 11.6741 4.94699, 11.5595 5.06492, 11.4805 5.21435, 11.4021 5.36434, 11.3626 5.52121, 11.3626 5.68552 L 11.3626 16.522 C 11.3626 16.7241, 11.2618 16.8243, 11.0603 16.8243 L 10.9475 16.8243 C 10.8411 16.8243, 10.7557 16.7819, 10.6928 16.696 L 2.67305 5.20919 C 2.62267 5.13649, 2.63527 5.13649, 2.71084 5.20919 L 2.71084 14.9648 C 2.71084 15.3071, 2.86484 15.5791, 3.17285 15.78, 3.38068 15.9088, 3.60853 15.9884, 3.857 16.0188, 4.10547 16.0497, 4.38715 16.0646, 4.70146 16.064 L 4.70146 16.8334 C 3.89021 16.7911, 3.10415 16.7693, 2.34272 16.7693, 1.59445 16.7693, 0.811252 16.7911, -0.00686431 16.8334 L -0.00686431 16.064 C 0.308016 16.0646, 0.589118 16.0479, 0.837588 16.0142, 1.08606 15.981, 1.31449 15.9025, 1.52174 15.78, 1.82402 15.5854, 1.97803 15.3134, 1.98432 14.9648 L 1.98432 4.70539 C 1.99062 4.70596, 1.98089 4.6968, 1.9557 4.67791, 1.75475 4.62352, 1.47365 4.59317, 1.11182 4.58688, 0.749994 4.58115, 0.37729 4.57772, -0.00686431 4.57714 L -0.00686431 3.82601, 3.65434 3.82601 C 3.76139 3.82658, 3.84613 3.86952, 3.9091 3.95425 L 10.6361 13.5999, 10.6361 5.68552 C 10.6361 5.52121, 10.5972 5.36549, 10.5182 5.21893, 10.4397 5.07236, 10.3281 4.95042, 10.1832 4.85195, 9.97599 4.72428, 9.74641 4.64642, 9.49451 4.61894, 9.24317 4.59146, 8.96035 4.57772, 8.64547 4.57714 L 8.64547 3.82601 C 9.46932 3.8512, 10.2554 3.86322, 11.0042 3.86265, 11.7657 3.86322, 12.5483 3.8512, 13.3532 3.82601 L 13.3532 4.57714 Z" stroke="none" fill="#000000" />
			<rect />
		</svg>
	</g>
	<g transform="matrix(1 0 -0 1 39.7718 76.8793)">
		<svg width="41.9788857" height="45.0428467">
			<defs />
			<path d="M 11.2899 16.8243 L -0.00400221 16.8243, -0.00400221 16.064 C 0.342366 16.0646, 0.676139 16.06, 0.996745 16.0508, 1.31735 16.0417, 1.55952 16.0096, 1.72269 15.9541, 1.81085 15.9243, 1.87726 15.8647, 1.92135 15.776, 1.96543 15.6878, 1.98719 15.5882, 1.98719 15.4777 L 1.98719 5.21836 C 1.98719 5.109, 1.96543 5.00824, 1.92135 4.91664, 1.87726 4.82504, 1.81085 4.76378, 1.72269 4.73287, 1.55952 4.67848, 1.31735 4.64814, 0.996745 4.64184, 0.676139 4.63611, 0.342366 4.63268, -0.00400221 4.6321 L -0.00400221 3.86265, 11.0351 3.86265, 11.5916 8.26869, 10.9218 8.26869 C 10.8783 7.95152, 10.8359 7.65438, 10.7947 7.37614, 10.754 7.09848, 10.6973 6.83111, 10.6252 6.57463, 10.5531 6.31815, 10.4535 6.07998, 10.3275 5.86014, 10.2016 5.64029, 10.0447 5.44793, 9.85576 5.28248, 9.6737 5.13019, 9.45958 5.00824, 9.21455 4.91664, 8.96951 4.82504, 8.71131 4.75806, 8.44052 4.71512, 8.17029 4.67275, 7.88862 4.64814, 7.59606 4.64184, 7.30408 4.63611, 7.01611 4.63268, 6.73272 4.6321 L 4.77989 4.6321 C 4.63562 4.63268, 4.49077 4.63611, 4.34593 4.64184, 4.20165 4.64814, 4.09459 4.67562, 4.02475 4.72371, 3.95605 4.77294, 3.91654 4.84336, 3.90738 4.93496, 3.89822 5.02656, 3.89307 5.12103, 3.89307 5.21836 L 3.89307 9.71599, 5.2608 9.71599 C 5.59457 9.71656, 5.93579 9.70168, 6.28502 9.67076, 6.63425 9.64042, 6.90905 9.53336, 7.11 9.34959, 7.31153 9.14863, 7.42832 8.89387, 7.45981 8.58528, 7.4913 8.27727, 7.50675 7.93033, 7.50675 7.54503 L 8.17659 7.54503, 8.17659 12.6564, 7.50675 12.6564 C 7.50675 12.2722, 7.4913 11.9259, 7.45981 11.6173, 7.42832 11.3093, 7.31153 11.0539, 7.11 10.8519, 6.90905 10.6692, 6.63539 10.5627, 6.2896 10.5318, 5.9438 10.5015, 5.60087 10.486, 5.2608 10.4854 L 3.89307 10.4854, 3.89307 15.4777 C 3.89307 15.5819, 3.89822 15.677, 3.90738 15.7623, 3.91654 15.8481, 3.95605 15.9151, 4.02475 15.9632, 4.08772 16.0125, 4.19478 16.0417, 4.34593 16.0508, 4.49707 16.06, 4.64134 16.0646, 4.77989 16.064 L 6.88386 16.064 C 7.17928 16.0646, 7.47813 16.06, 7.77984 16.0508, 8.08212 16.0417, 8.37468 16.013, 8.6575 15.9638, 8.94089 15.9151, 9.21169 15.839, 9.46932 15.7348, 9.72694 15.6312, 9.95996 15.4903, 10.1672 15.3128, 10.3687 15.1485, 10.5416 14.935, 10.6859 14.6722, 10.8307 14.41, 10.9487 14.1272, 11.0397 13.8249, 11.1313 13.5226, 11.2097 13.2037, 11.2756 12.8677, 11.342 12.5322, 11.4033 12.1835, 11.4599 11.8228 L 12.1389 11.8228 Z" stroke="none" fill="#000000" />
			<rect />
		</svg>
	</g>
	<path d="M -94.6599 0 L 94.6599 0" fill="none" stroke="#000000" stroke-width="7.4666667" stroke-linecap="round" stroke-linejoin="round" marker-start="url(#CustomMarker-01)" marker-end="url(#CustomMarker-02)" transform="matrix(1.34818e-008 0.178571 -0.178571 1.34818e-008 181.204 37.111)" />
	<path d="M -94.6599 -56.1418 L -94.6599 56.1418" fill="none" stroke="#000000" stroke-width="7.4666667" stroke-linecap="round" stroke-linejoin="round" transform="matrix(1.34818e-008 0.178571 -0.178571 1.34818e-008 181.204 37.111)" />
	<path d="M 94.6599 -56.1418 L 94.6599 56.1418" fill="none" stroke="#000000" stroke-width="7.4666667" stroke-linecap="round" stroke-linejoin="round" transform="matrix(1.34818e-008 0.178571 -0.178571 1.34818e-008 181.204 37.111)" />
	<g transform="matrix(1 0 -0 1 8.50001 10.1103)">
		<svg width="50.9839096" height="47.9999886">
			<defs />
			<path d="M 8.70877 5.90469 C 8.83137 7.77097, 9.43337 9.38199, 10.5147 10.7377, 11.5971 12.0945, 13.2473 13.3236, 15.4664 14.4271 L 14.6885 15.7296 C 12.9328 14.7969, 11.5197 13.7849, 10.4484 12.6915, 9.37709 11.598, 8.60424 10.3599, 8.12988 8.97597, 7.65552 10.2634, 6.87966 11.4674, 5.8023 12.5869, 4.72595 13.7075, 3.2878 14.7708, 1.48784 15.7778 L 0.65972 14.5236 C 2.35013 13.6351, 3.68879 12.7266, 4.6767 11.799, 5.66462 10.8724, 6.37113 9.87243, 6.79625 8.80009, 7.22136 7.72876, 7.43342 6.4896, 7.43342 5.08461 L 7.43342 1.17717, 8.72585 1.17717, 8.72585 5.34189 C 8.72585 5.58912, 8.72082 5.77705, 8.70877 5.90469 Z M 4.61841 8.71869 C 4.15511 8.00112, 3.61643 7.20616, 3.00338 6.33181, 2.39033 5.45847, 1.84663 4.70472, 1.37227 4.07157 L 2.54812 3.28365 C 3.00037 3.86353, 3.54709 4.60321, 4.18727 5.50369, 4.82846 6.40417, 5.37518 7.19712, 5.82743 7.88253 Z M 14.7709 4.03941 C 14.3297 4.73688, 13.7941 5.53887, 13.1649 6.44437, 12.5358 7.35088, 11.978 8.11971, 11.4916 8.75085 L 10.2987 7.88253 C 10.8072 7.24033, 11.37 6.47955, 11.9881 5.60017, 12.6072 4.7218, 13.1257 3.94896, 13.5448 3.28365 Z" stroke="none" fill="#000000" />
			<rect />
		</svg>
	</g>
	<g transform="matrix(1 0 -0 1 8.50001 44.0499)">
		<svg width="50.9839096" height="47.9999886">
			<defs />
			<path d="M 7.41734 4.50573 L 2.49787 4.50573, 2.49787 6.70869, 1.27277 6.70869, 1.27277 3.55701, 7.41734 3.55701, 7.41734 2.56005, 1.81949 2.56005, 1.81949 1.56309, 14.2745 1.56309, 14.2745 2.56005, 8.69268 2.56005, 8.69268 3.55701, 14.8373 3.55701, 14.8373 6.54789, 13.578 6.54789, 13.578 4.50573, 8.69268 4.50573, 8.69268 6.41925, 7.41734 6.41925 Z M 3.29282 5.16501 L 6.48972 5.16501, 6.48972 5.96901, 3.29282 5.96901 Z M 9.58713 5.16501 L 12.783 5.16501, 12.783 5.96901, 9.58713 5.96901 Z M 6.48972 7.38405 L 3.29282 7.38405, 3.29282 6.59613, 6.48972 6.59613 Z M 12.783 7.38405 L 9.58713 7.38405, 9.58713 6.59613, 12.783 6.59613 Z M 8.70877 6.93381 C 9.39417 7.52475, 10.3489 8.09056, 11.575 8.63125, 12.8011 9.17295, 14.192 9.64128, 15.7478 10.0372 L 15.2845 11.1789 C 13.7388 10.7297, 12.3227 10.2071, 11.0363 9.61213, 9.74994 9.01717, 8.75901 8.41417, 8.06355 7.80213, 7.37915 8.38201, 6.39927 8.96391, 5.12393 9.54781, 3.84859 10.1327, 2.41043 10.6764, 0.80846 11.1789 L 0.29591 10.0694 C 1.83055 9.66339, 3.21343 9.18601, 4.44455 8.63929, 5.67567 8.09257, 6.67163 7.52475, 7.43342 6.93381 Z M 7.88064 8.79909 C 8.06858 9.01416, 8.3339 9.3448, 8.6756 9.78901, 9.0183 10.2342, 9.29468 10.6061, 9.50372 10.9056 L 13.38 10.9056, 13.38 11.9508 C 12.2423 12.6915, 10.973 13.4201, 9.57005 14.1376, 10.564 14.417, 11.3147 14.6361, 11.8233 14.7969 L 11.3589 15.9386 C 9.51578 15.3386, 6.948 14.5778, 3.65763 13.6552 L 4.02245 12.6583 C 5.08273 12.9166, 6.46862 13.2814, 8.17913 13.7517, 9.47156 13.0985, 10.559 12.4874, 11.4424 11.9186 L 2.66369 11.9186, 2.66369 10.9056, 8.1128 10.9056 C 7.61633 10.2423, 7.20227 9.72771, 6.87062 9.36189 Z" stroke="none" fill="#000000" />
			<rect />
		</svg>
	</g>
	<g transform="matrix(1 0 -0 1 8.50001 77.9897)">
		<svg width="50.9839096" height="47.9999886">
			<defs />
			<path d="M 15.4995 11.5488 C 15.4995 11.7106, 15.4774 12.1015, 15.4332 12.7226, 15.4232 12.8633, 15.4121 13.003, 15.4011 13.1417, 15.39 13.2814, 15.384 13.41, 15.384 13.5266, 15.3619 14.1698, 15.191 14.6281, 14.8704 14.9014, 14.5508 15.1748, 13.9931 15.3436, 13.1971 15.408, 12.4574 15.4723, 11.7288 15.5044, 11.0112 15.5044, 10.2494 15.5044, 9.47156 15.4723, 8.6756 15.408, 7.92587 15.3547, 7.39322 15.1698, 7.07765 14.8532, 6.76308 14.5376, 6.6053 13.9939, 6.6053 13.2211 L 6.6053 7.83429, 5.41337 8.23629, 5.08172 7.03029, 6.6053 6.53181, 6.6053 2.47965, 7.88064 2.47965, 7.88064 6.09765, 9.78612 5.47053, 9.78612 1.12893, 11.0283 1.12893, 11.0283 5.05245, 14.7709 3.81429 C 14.7709 4.59819, 14.7357 5.63032, 14.6634 6.91069, 14.592 8.19207, 14.5227 9.09456, 14.4564 9.61917, 14.4011 10.0594, 14.3267 10.39, 14.2322 10.6091, 14.1388 10.8292, 13.9951 10.987, 13.8021 11.0835, 13.6091 11.1799, 13.3308 11.2392, 12.9659 11.2593 L 12.4353 11.2754, 11.8886 11.2593, 11.6243 10.0051 C 11.8675 10.0383, 12.1318 10.0543, 12.4192 10.0533, 12.7067 10.0543, 12.8996 9.99001, 12.9991 9.86137, 13.0986 9.73273, 13.176 9.47043, 13.2303 9.07245, 13.3408 8.21619, 13.4071 7.04235, 13.4292 5.55093 L 11.0283 6.35493, 11.0283 12.61, 9.78612 12.61, 9.78612 6.77301, 7.88064 7.41621, 7.88064 12.6904 C 7.88064 13.0985, 7.90577 13.402, 7.95602 13.6, 8.00627 13.799, 8.10275 13.9407, 8.24546 14.0251, 8.38917 14.1115, 8.61027 14.1698, 8.90775 14.202, 9.57105 14.2663, 10.2163 14.2984, 10.8454 14.2984, 11.4313 14.2984, 12.0383 14.2663, 12.6675 14.202, 13.0765 14.1598, 13.375 14.0985, 13.5619 14.0181, 13.7498 13.9377, 13.8825 13.815, 13.9599 13.6482, 14.0373 13.4824, 14.0925 13.2221, 14.1247 12.8673, 14.1468 12.6432, 14.1689 12.3598, 14.191 12.0161, 14.2131 11.6734, 14.2192 11.4262, 14.2081 11.2754 Z M 3.82346 12.0472 L 5.56211 11.404, 5.7611 12.5779 C 5.15408 12.793, 4.31491 13.1015, 3.24358 13.5035, 2.17225 13.9055, 1.33307 14.2241, 0.72605 14.4592 L 0.37832 13.2854 C 1.19539 12.997, 1.92401 12.7347, 2.5642 12.4975 L 2.5642 6.80517, 0.626555 6.80517, 0.626555 5.58309, 2.5642 5.58309, 2.5642 1.43445, 3.82346 1.43445, 3.82346 5.58309, 5.28071 5.58309, 5.28071 6.80517, 3.82346 6.80517 Z" stroke="none" fill="#000000" />
			<rect />
		</svg>
	</g>
	<g transform="matrix(1 0 -0 1 201.397 27.5046)">
		<svg width="209.986862" height="113.95713">
			<defs />
			<path d="M -5.628 1.5477 C -1.85724 -4.95264, 1.85724 4.95264, 5.628 -1.5477" fill="none" stroke="#000000" stroke-width="0.64319998" stroke-linecap="round" stroke-linejoin="round" transform="matrix(0.992109 0.12538 -0.12538 0.992109 5.628 9.60638)" />
			<path d="M 22.4423 14.3717 L 15.9914 14.3717, 15.9914 13.9485 C 15.9914 13.9182, 16.0072 13.872, 16.039 13.81 L 18.6306 10.9938 C 18.9369 10.6557, 19.2471 10.3094, 19.5616 9.95547, 19.8761 9.60153, 20.1579 9.23988, 20.4061 8.87055, 20.6542 8.50121, 20.8524 8.12033, 21.0005 7.72791, 21.1486 7.33549, 21.2222 6.92383, 21.2222 6.49245, 21.2222 6.12889, 21.1746 5.78889, 21.0794 5.47341, 20.9841 5.15793, 20.8471 4.88093, 20.6672 4.6424, 20.4878 4.40387, 20.2633 4.21151, 19.994 4.06531, 19.7246 3.91911, 19.4125 3.84602, 19.0586 3.84554, 18.5305 3.84602, 18.0641 4.00375, 17.6596 4.31923, 17.2557 4.63471, 16.9873 4.9824, 16.8551 5.36136, 16.8291 5.37194, 16.8714 5.37723, 16.982 5.37675 L 17.1167 5.37675 C 17.2754 5.4133, 17.4124 5.4686, 17.5288 5.54266, 17.6452 5.6172, 17.7428 5.71964, 17.8222 5.85044, 17.9015 5.98125, 17.941 6.13899, 17.941 6.32317, 17.941 6.63144, 17.8409 6.86756, 17.6399 7.03155, 17.4389 7.19602, 17.2143 7.27778, 16.9662 7.2773, 16.7286 7.27778, 16.5064 7.19602, 16.3006 7.03155, 16.0947 6.86756, 15.9914 6.63144, 15.9914 6.32317, 15.9914 5.89276, 16.076 5.48495, 16.2453 5.10022, 16.4146 4.7155, 16.6439 4.38223, 16.9344 4.09994, 17.2249 3.81812, 17.5683 3.59498, 17.9645 3.43051, 18.3608 3.26652, 18.7811 3.18429, 19.225 3.18381, 19.7747 3.18429, 20.2782 3.26508, 20.735 3.42666, 21.1919 3.58825, 21.5814 3.82053, 21.9036 4.12302, 22.2258 4.42599, 22.4783 4.77609, 22.6606 5.17332, 22.8429 5.57103, 22.9337 6.01058, 22.9337 6.49245, 22.9337 7.02626, 22.8126 7.51775, 22.5692 7.96644, 22.3264 8.41561, 22.0253 8.82726, 21.6661 9.20141, 21.3068 9.57604, 20.925 9.92854, 20.5205 10.2594, 20.1166 10.5903, 19.7506 10.912, 19.4231 11.2246 L 17.6 12.9405, 19.9858 12.9405 C 20.3186 12.941, 20.6292 12.9385, 20.9168 12.9333, 21.2049 12.9284, 21.4492 12.9179, 21.6502 12.9025, 21.8512 12.8871, 21.9541 12.877, 21.9589 12.8712, 22.0013 12.8356, 22.0412 12.764, 22.0782 12.6563, 22.1152 12.5485, 22.1494 12.4216, 22.1811 12.2754, 22.2129 12.1292, 22.2446 11.9806, 22.2763 11.8291, 22.3081 11.6781, 22.3369 11.5122, 22.3634 11.3323 L 22.9496 11.3323 Z" stroke="none" fill="#000000" />
			<path d="M 30.9139 14.3717 L 24.463 14.3717, 24.463 13.9485 C 24.463 13.9182, 24.4789 13.872, 24.5106 13.81 L 27.1022 10.9938 C 27.4086 10.6557, 27.7187 10.3094, 28.0333 9.95547, 28.3478 9.60153, 28.6296 9.23988, 28.8777 8.87055, 29.1259 8.50121, 29.324 8.12033, 29.4721 7.72791, 29.6203 7.33549, 29.6938 6.92383, 29.6938 6.49245, 29.6938 6.12889, 29.6462 5.78889, 29.551 5.47341, 29.4558 5.15793, 29.3187 4.88093, 29.1389 4.6424, 28.9595 4.40387, 28.7349 4.21151, 28.4656 4.06531, 28.1963 3.91911, 27.8842 3.84602, 27.5302 3.84554, 27.0022 3.84602, 26.5357 4.00375, 26.1313 4.31923, 25.7273 4.63471, 25.459 4.9824, 25.3267 5.36136, 25.3007 5.37194, 25.3431 5.37723, 25.4537 5.37675 L 25.5883 5.37675 C 25.747 5.4133, 25.8841 5.4686, 26.0005 5.54266, 26.1168 5.6172, 26.2145 5.71964, 26.2938 5.85044, 26.3732 5.98125, 26.4126 6.13899, 26.4126 6.32317, 26.4126 6.63144, 26.3126 6.86756, 26.1115 7.03155, 25.9105 7.19602, 25.6859 7.27778, 25.4378 7.2773, 25.2002 7.27778, 24.978 7.19602, 24.7722 7.03155, 24.5664 6.86756, 24.463 6.63144, 24.463 6.32317, 24.463 5.89276, 24.5476 5.48495, 24.7169 5.10022, 24.8862 4.7155, 25.1156 4.38223, 25.4061 4.09994, 25.6965 3.81812, 26.0399 3.59498, 26.4362 3.43051, 26.8324 3.26652, 27.2527 3.18429, 27.6966 3.18381, 28.2463 3.18429, 28.7498 3.26508, 29.2067 3.42666, 29.6635 3.58825, 30.0531 3.82053, 30.3753 4.12302, 30.6975 4.42599, 30.95 4.77609, 31.1322 5.17332, 31.3145 5.57103, 31.4054 6.01058, 31.4054 6.49245, 31.4054 7.02626, 31.2842 7.51775, 31.0409 7.96644, 30.798 8.41561, 30.4969 8.82726, 30.1377 9.20141, 29.7785 9.57604, 29.3966 9.92854, 28.9922 10.2594, 28.5882 10.5903, 28.2223 10.912, 27.8948 11.2246 L 26.0716 12.9405, 28.4574 12.9405 C 28.7902 12.941, 29.1009 12.9385, 29.3885 12.9333, 29.6765 12.9284, 29.9208 12.9179, 30.1218 12.9025, 30.3229 12.8871, 30.4258 12.877, 30.4306 12.8712, 30.4729 12.8356, 30.5128 12.764, 30.5498 12.6563, 30.5869 12.5485, 30.621 12.4216, 30.6528 12.2754, 30.6845 12.1292, 30.7162 11.9806, 30.748 11.8291, 30.7797 11.6781, 30.8086 11.5122, 30.835 11.3323 L 31.4213 11.3323 Z" stroke="none" fill="#000000" />
			<path d="M 40.0848 9.01626 C 40.0848 9.75542, 40.0333 10.4902, 39.9304 11.2212, 39.8275 11.9522, 39.5726 12.6385, 39.1658 13.279, 38.8753 13.7465, 38.4867 14.1052, 38.0005 14.3563, 37.5148 14.6078, 36.9863 14.7333, 36.4154 14.7333, 35.8662 14.7333, 35.3469 14.6078, 34.8583 14.3563, 34.3697 14.1052, 33.9796 13.7465, 33.6892 13.279, 33.2823 12.6385, 33.0274 11.9522, 32.9245 11.2212, 32.8216 10.4902, 32.7697 9.75542, 32.7697 9.01626, 32.7697 8.26797, 32.8216 7.52015, 32.9245 6.77379, 33.0274 6.02742, 33.2823 5.32866, 33.6892 4.67655, 33.9796 4.20525, 34.3682 3.83832, 34.8544 3.57671, 35.3406 3.31509, 35.861 3.18429, 36.4154 3.18381, 36.981 3.18429, 37.5081 3.31509, 37.9967 3.57671, 38.4853 3.83832, 38.8753 4.20525, 39.1658 4.67655, 39.5726 5.32866, 39.8275 6.02742, 39.9304 6.77379, 40.0333 7.52015, 40.0848 8.26797, 40.0848 9.01626 Z M 38.5156 8.74695 C 38.5156 8.42426, 38.5132 8.0833, 38.5079 7.72406, 38.5026 7.3653, 38.4891 7.01376, 38.468 6.66991, 38.4468 6.32654, 38.4088 6.00193, 38.353 5.69655, 38.2977 5.39165, 38.2304 5.131, 38.151 4.91508, 37.9928 4.5669, 37.7605 4.28076, 37.4537 4.05762, 37.1474 3.83447, 36.8011 3.7229, 36.4154 3.72242, 36.0403 3.7229, 35.7013 3.83592, 35.3974 4.06146, 35.0934 4.28749, 34.8621 4.57171, 34.7034 4.91508, 34.6245 5.131, 34.5572 5.39165, 34.5014 5.69655, 34.4461 6.00193, 34.4077 6.32654, 34.3865 6.66991, 34.3653 7.01376, 34.3523 7.3653, 34.3471 7.72406, 34.3418 8.0833, 34.3389 8.42426, 34.3389 8.74695, 34.3389 9.10667, 34.3418 9.48515, 34.3471 9.88238, 34.3523 10.2801, 34.3653 10.6648, 34.3865 11.0366, 34.4077 11.4088, 34.4461 11.7613, 34.5014 12.0946, 34.5572 12.4283, 34.6245 12.7077, 34.7034 12.9328, 34.8515 13.3079, 35.0804 13.6157, 35.3892 13.8566, 35.6984 14.098, 36.0403 14.2182, 36.4154 14.2178, 36.8069 14.2182, 37.157 14.098, 37.4657 13.8566, 37.775 13.6157, 38.0034 13.3079, 38.151 12.9328, 38.2304 12.7077, 38.2977 12.4283, 38.353 12.0946, 38.4088 11.7613, 38.4468 11.4088, 38.468 11.0366, 38.4891 10.6648, 38.5026 10.2801, 38.5079 9.88238, 38.5132 9.48515, 38.5156 9.10667, 38.5156 8.74695 Z" stroke="none" fill="#000000" />
			<path d="M 54.3689 3.92327 C 54.121 3.92376, 53.9027 3.9424, 53.7137 3.97872, 53.5253 4.01552, 53.3501 4.07833, 53.1882 4.16666, 52.9188 4.32958, 52.7137 4.57544, 52.5733 4.90471 L 48.8291 14.5543 C 48.7594 14.7064, 48.6407 14.7795, 48.4733 14.7741 L 48.3438 14.7741 C 48.1769 14.7741, 48.0587 14.701, 47.988 14.5543 L 44.0661 4.44932 C 44.023 4.35019, 43.9744 4.26137, 43.9204 4.18286, 43.8664 4.10434, 43.7884 4.04693, 43.6858 4.00963, 43.5622 3.96301, 43.388 3.93701, 43.1642 3.93161, 42.9404 3.9267, 42.7019 3.92376, 42.4487 3.92327 L 42.4487 3.27159 C 43.1441 3.30888, 43.81 3.32704, 44.446 3.32655, 44.5431 3.32704, 44.6486 3.32164, 44.7615 3.31084, 45.5005 3.31133, 46.2739 3.30103, 47.0826 3.27944 L 47.0826 3.92327 C 46.8402 3.92376, 46.6243 3.92915, 46.4354 3.93946, 46.2469 3.95026, 46.0771 3.98902, 45.926 4.05674, 45.8563 4.09404, 45.8023 4.1436, 45.764 4.20592, 45.7375 4.24812, 45.7238 4.28738, 45.7238 4.3237, 45.7238 4.34529, 45.7267 4.36884, 45.7317 4.39436 L 48.9022 12.5129, 51.8941 4.8419 C 51.9216 4.77958, 51.9349 4.70891, 51.9349 4.62991, 51.9349 4.47876, 51.8623 4.33744, 51.7165 4.20592, 51.5928 4.09649, 51.454 4.0219, 51.2999 3.98264, 51.1463 3.94339, 50.951 3.92376, 50.7135 3.92327 L 50.7135 3.27944 C 51.3661 3.30103, 51.9805 3.31133, 52.5576 3.31084, 52.6332 3.32164, 52.7137 3.32704, 52.8 3.32655, 53.2961 3.32704, 53.8193 3.30888, 54.3689 3.27159 L 54.3689 3.92327 Z" stroke="none" fill="#000000" />
			<rect />
		</svg>
	</g>
</g>
</defs>
<use xlink:href="#orig" transform="scale(2)"/>
</svg>
