<?xml version="1.0"?>
<svg xmlns="http://www.w3.org/2000/svg" xmlns:xlink="http://www.w3.org/1999/xlink" width="574.586304" height="380.895874">
<defs>
<g id="orig">
<defs />
	<path d="M 326.169 0 L -326.168 0" fill="none" stroke="#E50500" stroke-width="9.33333397" stroke-linecap="round" stroke-linejoin="round" transform="matrix(0.142857 0 0 0.142857 124.357 101.973)" />
	<path d="M -370.911 -284.156 L 370.911 -284.156, 370.911 284.156, -370.911 284.156 Z" fill="none" stroke="#000000" stroke-opacity="0.474509776" stroke-width="9.33333397" stroke-linecap="round" stroke-linejoin="round" stroke-dasharray="32.7133, 23.2867" transform="matrix(0.142857 0 -0 0.142857 124.524 118.318)" />
	<path d="M -95.5195 27.0405 L 95.5237 -27.0404" fill="none" stroke="#E50500" stroke-width="9.33333397" stroke-linecap="round" stroke-linejoin="round" transform="matrix(0.142857 0 0 0.142857 132.017 142.94)" />
	<path d="M -94.9509 0 L 94.9424 0" fill="none" stroke="#003FDB" stroke-width="9.33333397" stroke-linecap="round" stroke-linejoin="round" transform="matrix(0.142857 0 0 0.142857 239.582 146.803)" />
	<path d="M -846.062 0 L 846.057 -9.15527e-005" fill="none" stroke="#E50500" stroke-width="18.6666679" stroke-linecap="round" stroke-linejoin="round" transform="matrix(0.142857 0 0 0.142857 155.594 18.1064)" />
	<path d="M -846.062 0 L 846.057 0" fill="none" stroke="#003FDB" stroke-width="18.6666679" stroke-linecap="round" stroke-linejoin="round" transform="matrix(0.142857 0 0 0.142857 155.594 43.2225)" />
	<path d="M -846.062 0 L 846.057 0" fill="none" stroke="#E5CE00" stroke-width="18.6666679" stroke-linecap="round" stroke-linejoin="round" transform="matrix(0.142857 0 0 0.142857 155.594 68.3385)" />
	<path d="M -846.062 0 L 846.057 0" fill="none" stroke="#008704" stroke-width="7.46666718" stroke-linecap="round" stroke-linejoin="round" transform="matrix(0.142857 0 0 0.142857 155.594 67.6479)" />
	<g transform="matrix(1 0 -0 1 9.60388 8.49997)">
		<svg width="32.9738617" height="38.9999886">
			<defs />
			<path d="M 8.7832 14.4208 L 0.000246644 14.4208, 0.000246644 13.7691 C 0.297134 13.7696, 0.583225 13.7657, 0.85803 13.7578, 1.13283 13.75, 1.34041 13.7225, 1.48027 13.6749, 1.55584 13.6494, 1.61276 13.5984, 1.65055 13.5223, 1.68833 13.4467, 1.70698 13.3613, 1.70698 13.2666 L 1.70698 4.41791 C 1.70698 4.32419, 1.68833 4.23929, 1.65055 4.16323, 1.61276 4.08766, 1.55584 4.03613, 1.48027 4.00963, 1.34041 3.96301, 1.13283 3.93701, 0.85803 3.93161, 0.583225 3.9267, 0.297134 3.92376, 0.000246644 3.92327 L 0.000246644 3.27944 C 0.814846 3.31133, 1.60197 3.32704, 2.36209 3.32655, 2.48625 3.32704, 2.61285 3.32164, 2.74191 3.31084, 3.6154 3.31133, 4.52127 3.30103, 5.45904 3.27944 L 5.45904 3.92327, 4.90109 3.92327 C 4.73425 3.92376, 4.57084 3.9267, 4.41184 3.93161, 4.25285 3.93701, 4.10367 3.94731, 3.96332 3.96301, 3.82298 3.97872, 3.71256 3.99687, 3.63159 4.01748, 3.54032 4.04398, 3.46867 4.09551, 3.41764 4.17108, 3.3666 4.24714, 3.3406 4.32958, 3.3406 4.41791 L 3.3406 13.2666 C 3.3406 13.3559, 3.34501 13.4374, 3.35286 13.5105, 3.36072 13.5841, 3.39458 13.6415, 3.45346 13.6828, 3.50744 13.725, 3.59921 13.75, 3.72876 13.7578, 3.85831 13.7657, 3.98197 13.7696, 4.10072 13.7691 L 5.42715 13.7691 C 5.86389 13.7696, 6.28395 13.7147, 6.68831 13.6047, 7.09266 13.4948, 7.44353 13.2931, 7.73992 12.9997, 8.08539 12.6444, 8.31014 12.2165, 8.41516 11.7164, 8.52017 11.2169, 8.60507 10.6894, 8.66984 10.1339 L 9.24399 10.1339 Z" stroke="none" fill="#000000" />
			<rect />
		</svg>
	</g>
	<g transform="matrix(1 0 -0 1 8.5 33.4836)">
		<svg width="39.020092" height="38.9999886">
			<defs />
			<path d="M 11.4456 3.92327 C 11.1762 3.92376, 10.9338 3.93701, 10.7179 3.96301, 10.5024 3.98951, 10.3081 4.05723, 10.1354 4.16666, 10.0063 4.24027, 9.90818 4.34136, 9.84046 4.46944, 9.77323 4.59801, 9.73937 4.73247, 9.73937 4.87331 L 9.73937 14.1617 C 9.73937 14.3349, 9.65301 14.4208, 9.48027 14.4208 L 9.3836 14.4208 C 9.29233 14.4208, 9.21921 14.3845, 9.16523 14.3109 L 2.29119 4.46502 C 2.248 4.4027, 2.2588 4.4027, 2.32357 4.46502 L 2.32357 12.8269 C 2.32357 13.1204, 2.45558 13.3535, 2.71959 13.5257, 2.89772 13.6361, 3.09303 13.7044, 3.306 13.7304, 3.51897 13.7569, 3.76041 13.7696, 4.02982 13.7691 L 4.02982 14.4287 C 3.33446 14.3923, 2.6607 14.3737, 2.00804 14.3737, 1.36666 14.3737, 0.695356 14.3923, -0.00588694 14.4287 L -0.00588694 13.7691 C 0.26401 13.7696, 0.504955 13.7554, 0.717929 13.7264, 0.930903 13.698, 1.1267 13.6307, 1.30434 13.5257, 1.56344 13.3589, 1.69545 13.1258, 1.70085 12.8269 L 1.70085 4.03319 C 1.70624 4.03368, 1.6979 4.02583, 1.67631 4.00963, 1.50407 3.96301, 1.26312 3.93701, 0.952985 3.93161, 0.642848 3.9267, 0.323388 3.92376, -0.00588694 3.92327 L -0.00588694 3.27944, 3.13228 3.27944 C 3.22405 3.27993, 3.29668 3.31673, 3.35066 3.38936 L 9.11665 11.6571, 9.11665 4.87331 C 9.11665 4.73247, 9.08328 4.59899, 9.01556 4.47337, 8.94833 4.34774, 8.85264 4.24322, 8.72849 4.15881, 8.55084 4.04938, 8.35406 3.98264, 8.13815 3.95909, 7.92272 3.93553, 7.6803 3.92376, 7.4104 3.92327 L 7.4104 3.27944 C 8.11655 3.30103, 8.79032 3.31133, 9.43218 3.31084, 10.0848 3.31133, 10.7557 3.30103, 11.4456 3.27944 L 11.4456 3.92327 Z" stroke="none" fill="#000000" />
			<rect />
		</svg>
	</g>
	<g transform="matrix(1 0 -0 1 9.02164 58.7321)">
		<svg width="36.0612984" height="38.9999886">
			<defs />
			<path d="M 9.67705 14.4208 L -0.00343508 14.4208, -0.00343508 13.7691 C 0.293452 13.7696, 0.579543 13.7657, 0.854348 13.7578, 1.12915 13.75, 1.33673 13.7225, 1.47658 13.6749, 1.55216 13.6494, 1.60908 13.5984, 1.64687 13.5223, 1.68465 13.4467, 1.7033 13.3613, 1.7033 13.2666 L 1.7033 4.47288 C 1.7033 4.37915, 1.68465 4.29278, 1.64687 4.21426, 1.60908 4.13575, 1.55216 4.08324, 1.47658 4.05674, 1.33673 4.01012, 1.12915 3.98412, 0.854348 3.97872, 0.579543 3.97381, 0.293452 3.97087, -0.00343508 3.97038 L -0.00343508 3.31084, 9.45868 3.31084, 9.93566 7.08745, 9.36152 7.08745 C 9.32422 6.81559, 9.28791 6.5609, 9.25257 6.32241, 9.21773 6.08441, 9.16915 5.85524, 9.10732 5.6354, 9.04549 5.41555, 8.9601 5.21141, 8.85215 5.02298, 8.74419 4.83454, 8.60973 4.66965, 8.44779 4.52784, 8.29174 4.3973, 8.10821 4.29278, 7.89818 4.21426, 7.68815 4.13575, 7.46684 4.07833, 7.23472 4.04153, 7.0031 4.00522, 6.76167 3.98412, 6.51091 3.97872, 6.26064 3.97381, 6.01381 3.97087, 5.7709 3.97038 L 4.09704 3.97038 C 3.97338 3.97087, 3.84923 3.97381, 3.72508 3.97872, 3.60141 3.98412, 3.50965 4.00767, 3.44978 4.04889, 3.39089 4.09109, 3.35703 4.15145, 3.34918 4.22997, 3.34133 4.30848, 3.33691 4.38945, 3.33691 4.47288 L 3.33691 8.32799, 4.50925 8.32799 C 4.79534 8.32848, 5.08781 8.31572, 5.38715 8.28923, 5.68649 8.26322, 5.92204 8.17145, 6.09428 8.01393, 6.26702 7.84169, 6.36713 7.62332, 6.39412 7.35882, 6.42111 7.09481, 6.43435 6.79743, 6.43435 6.46717 L 7.0085 6.46717, 7.0085 10.8483, 6.43435 10.8483 C 6.43435 10.5191, 6.42111 10.2222, 6.39412 9.95768, 6.36713 9.69367, 6.26702 9.47481, 6.09428 9.30159, 5.92204 9.14505, 5.68748 9.05377, 5.39108 9.02727, 5.09468 9.00126, 4.80074 8.98801, 4.50925 8.98752 L 3.33691 8.98752, 3.33691 13.2666 C 3.33691 13.3559, 3.34133 13.4374, 3.34918 13.5105, 3.35703 13.5841, 3.39089 13.6415, 3.44978 13.6828, 3.50376 13.725, 3.59552 13.75, 3.72508 13.7578, 3.85463 13.7657, 3.97829 13.7696, 4.09704 13.7691 L 5.90045 13.7691 C 6.15366 13.7696, 6.40982 13.7657, 6.66843 13.7578, 6.92753 13.75, 7.17829 13.7255, 7.42071 13.6832, 7.66362 13.6415, 7.89573 13.5763, 8.11655 13.487, 8.33738 13.3981, 8.5371 13.2774, 8.71474 13.1253, 8.88748 12.9845, 9.03568 12.8014, 9.15934 12.5762, 9.28349 12.3514, 9.38458 12.109, 9.4626 11.8499, 9.54112 11.5908, 9.60835 11.3175, 9.66478 11.0294, 9.72171 10.7419, 9.77421 10.443, 9.82279 10.1339 L 10.4048 10.1339 Z" stroke="none" fill="#000000" />
			<rect />
		</svg>
	</g>
	<path d="M 0 -450.437 L 0 450.437" fill="none" stroke="#E50500" stroke-width="9.33333397" stroke-linecap="round" stroke-linejoin="round" transform="matrix(0.142857 0 0 0.142857 59.4208 82.4545)" />
	<ellipse cx="692.8978271484375" cy="-132.56390380859375" rx="18.375" ry="18.375" stroke="none" fill="#E50500" transform="matrix(0.142857 0 0 0.142857 -39.5646 37.0441)" />
	<path d="M -206.453 0 L 206.452 0" fill="none" stroke="#E50500" stroke-width="9.33333397" stroke-linecap="round" stroke-linejoin="round" transform="matrix(0.142857 0 0 0.142857 88.914 146.803)" />
	<ellipse cx="1105.5546646118164" cy="768.31046295166016" rx="22.400001525878906" ry="22.400001525878906" stroke="none" fill="#E50500" transform="matrix(0.142857 0 0 0.142857 -39.5646 37.0441)" />
	<ellipse cx="1105.5546722412109" cy="768.31047058105469" rx="14.933334350585938" ry="14.933334350585938" stroke="none" fill="#FFFFFF" transform="matrix(0.142857 0 0 0.142857 -39.5646 37.0441)" />
	<path d="M -194.185 0 L 194.184 0" fill="none" stroke="#E50500" stroke-width="9.33333397" stroke-linecap="round" stroke-linejoin="round" transform="matrix(0.142857 0 0 0.142857 173.404 146.803)" />
	<ellipse cx="1305.5956802368164" cy="768.31046295166016" rx="22.400001525878906" ry="22.400001525878906" stroke="none" fill="#E50500" transform="matrix(0.142857 0 0 0.142857 -39.5646 37.0441)" />
	<ellipse cx="1305.5956878662109" cy="768.31047058105469" rx="14.933334350585938" ry="14.933334350585938" stroke="none" fill="#FFFFFF" transform="matrix(0.142857 0 0 0.142857 -39.5646 37.0441)" />
	<path d="M -87.0552 0 L -83.8952 0" fill="none" stroke="#000000" stroke-width="7" stroke-linecap="round" stroke-linejoin="round" transform="matrix(0.142857 0 -0 0.142857 213.581 146.803)" />
	<path d="M 87.0552 0 L 83.8952 0" fill="none" stroke="#000000" stroke-width="7" stroke-linecap="round" stroke-linejoin="round" transform="matrix(0.142857 0 -0 0.142857 213.581 146.803)" />
	<path d="M 83.8952 -0 C 83.8952 46.334, 46.334 83.8952, -0 83.8952, -46.334 83.8952, -83.8952 46.334, -83.8952 -0, -83.8952 -46.334, -46.334 -83.8952, -0 -83.8952, 46.334 -83.8952, 83.8952 -46.334, 83.8952 -0 Z" stroke="none" fill="#FFFFFF" transform="matrix(0.142857 0 -0 0.142857 213.581 146.803)" />
	<path d="M 83.8952 -0 C 83.8952 46.334, 46.334 83.8952, -0 83.8952, -46.334 83.8952, -83.8952 46.334, -83.8952 -0, -83.8952 -46.334, -46.334 -83.8952, -0 -83.8952, 46.334 -83.8952, 83.8952 -46.334, 83.8952 -0 Z" fill="none" stroke="#000000" stroke-width="10.5" stroke-linecap="round" stroke-linejoin="round" transform="matrix(0.142857 0 -0 0.142857 213.581 146.803)" />
	<path d="M -58.7266 -58.7266 L 58.7266 58.7266" fill="none" stroke="#000000" stroke-width="7" stroke-linecap="round" stroke-linejoin="round" transform="matrix(0.142857 0 -0 0.142857 213.581 146.803)" />
	<path d="M -58.7266 58.7266 L 58.7266 -58.7266" fill="none" stroke="#000000" stroke-width="7" stroke-linecap="round" stroke-linejoin="round" transform="matrix(0.142857 0 -0 0.142857 213.581 146.803)" />
	<path d="M 0 362.531 L 0 -362.53" fill="none" stroke="#003FDB" stroke-width="9.33333397" stroke-linecap="round" stroke-linejoin="round" transform="matrix(0.142857 0 0 0.142857 253.146 95.0125)" />
	<ellipse cx="2048.97119140625" cy="43.24896240234375" rx="18.375" ry="18.375" stroke="none" fill="#003FDB" transform="matrix(0.142857 0 0 0.142857 -39.5646 37.0441)" />
	<g transform="matrix(1 0 -0 1 102.315 164.854)">
		<svg width="125.982887" height="45.0428505">
			<defs />
			<path d="M 12.8171 6.56877 L 12.8171 7.62737, 9.87748 7.62737, 9.87748 13.0142, 8.74518 13.0142, 8.74518 7.62737, 4.7838 7.62737 C 4.72015 8.46822, 4.58699 9.18094, 4.38431 9.76551, 4.18164 10.3509, 3.87344 10.9003, 3.45971 11.4137, 3.04599 11.9271, 2.4656 12.5008, 1.72023 13.1348 L 0.823265 12.3174 C 1.52258 11.7638, 2.06276 11.2663, 2.44466 10.8241, 2.82656 10.3819, 3.10964 9.91291, 3.29389 9.41711, 3.47814 8.92131, 3.59706 8.32501, 3.65234 7.62737 L 0.574527 7.62737, 0.574527 6.56877, 3.70761 6.56877, 3.70761 6.07297, 3.70761 2.81677, 1.15408 2.81677, 1.15408 1.77157, 12.2099 1.77157, 12.2099 2.81677, 9.87748 2.81677, 9.87748 6.56877 Z M 4.83908 6.56877 L 8.74518 6.56877, 8.74518 2.81677, 4.83908 2.81677, 4.83908 5.95237 Z" stroke="none" fill="#000000" />
			<path d="M 21.0704 8.01597 C 21.8618 9.9908, 23.6834 11.34, 26.5359 12.0628 L 25.984 13.1616 C 24.6314 12.778, 23.4857 12.2395, 22.5477 11.5477, 21.6097 10.8559, 20.892 10.0226, 20.3945 9.04777, 19.5755 10.7194, 17.7078 12.103, 14.7908 13.2018 L 14.1836 12.1432 C 15.8955 11.5276, 17.1693 10.8802, 18.0068 10.201, 18.8443 9.52264, 19.3728 8.79401, 19.5939 8.01597 L 14.3905 8.01597, 14.3905 6.91717, 19.7321 6.91717, 19.7321 4.57217, 15.0253 4.57217, 15.0253 3.51357, 21.0151 3.51357 C 21.7789 2.60321, 22.5059 1.66521, 23.196 0.699574 L 24.2454 1.30257 C 23.5921 2.18781, 23.0117 2.92481, 22.5059 3.51357 L 25.6256 3.51357, 25.6256 4.57217, 20.9188 4.57217, 20.9188 6.85017, 20.9188 6.91717, 26.288 6.91717, 26.288 8.01597 Z M 18.1718 3.48677 C 17.7212 2.81761, 17.1928 2.10741, 16.5847 1.35617 L 17.537 0.753174 C 18.0805 1.4148, 18.614 2.12081, 19.1383 2.87037 Z" stroke="none" fill="#000000" />
			<path d="M 31.0108 3.76817 C 30.0544 4.25141, 29.0653 4.66681, 28.0435 5.01437 L 27.6156 3.99597 C 28.84 3.6124, 29.9581 3.14591, 30.9698 2.59651, 31.9815 2.04711, 32.8282 1.46421, 33.5091 0.846974 L 34.5995 0.846974 C 35.9797 2.16101, 37.9352 3.20621, 40.4653 3.98257 L 40.0516 5.01437 C 39.0299 4.66681, 38.05 4.26062, 37.1111 3.79497 L 37.1111 4.41137, 31.0108 4.41137 Z M 34.0752 1.71797 C 33.468 2.326, 32.5752 2.9424, 31.3977 3.56717 L 36.6832 3.56717 C 35.5609 2.96082, 34.6916 2.34442, 34.0752 1.71797 Z M 38.3264 7.92217 L 29.7964 7.92217, 29.7964 5.22877, 38.3264 5.22877 Z M 37.3046 6.04617 L 30.8173 6.04617, 30.8173 7.07797, 37.3046 7.07797 Z M 29.2579 8.87357 L 38.823 8.87357, 38.823 11.7546, 40.2995 11.7546, 40.2995 12.6658, 27.7948 12.6658, 27.7948 11.7546, 29.2579 11.7546 Z M 32.1565 9.74457 L 30.2797 9.74457, 30.2797 11.7546, 32.1565 11.7546 Z M 33.1364 11.7546 L 34.9722 11.7546, 34.9722 9.74457, 33.1364 9.74457 Z M 35.952 11.7546 L 37.8289 11.7546, 37.8289 9.74457, 35.952 9.74457 Z" stroke="none" fill="#000000" />
			<rect />
		</svg>
	</g>
	<g transform="matrix(1 0 -0 1 200.01 164.854)">
		<svg width="84.0452042" height="45.0428505">
			<defs />
			<path d="M 2.18923 5.06797 L 1.30566 5.75137, 0.561127 4.93397 C 1.38941 4.34521, 2.15991 3.68024, 2.87263 2.93821, 3.58618 2.19702, 4.16824 1.4416, 4.61881 0.672774 L 5.72264 1.02117 C 5.61209 1.21882, 5.42868 1.50441, 5.17073 1.87877 L 10.277 1.87877, 10.277 2.85697, 8.52408 4.70617, 11.2158 4.70617, 11.2158 10.1198, 10.112 10.1198, 10.112 5.72457, 3.30729 5.72457, 3.30729 10.1332, 2.18923 10.1332 Z M 4.42535 2.85697 C 3.89186 3.51022, 3.28468 4.12662, 2.60379 4.70617 L 7.08944 4.70617, 8.82809 2.85697 Z M 11.9746 13.1884 C 11.3213 12.8316, 10.4612 12.3802, 9.39424 11.835, 8.32726 11.2906, 7.39261 10.8308, 6.59196 10.4548, 6.18745 11.0008, 5.55011 11.4966, 4.68079 11.9422, 3.81146 12.3894, 2.61719 12.8182, 1.0988 13.2286 L 0.53349 12.17 C 2.12558 11.7864, 3.32153 11.3961, 4.12218 10.9983, 4.92283 10.6013, 5.4538 10.1675, 5.71594 9.69851, 5.97808 9.22951, 6.10873 8.63321, 6.10873 7.90877 L 6.10873 6.52857, 7.28206 6.52857, 7.28206 8.01597 C 7.28206 8.6508, 7.20418 9.17842, 7.04756 9.59717, 7.87585 9.964, 8.84903 10.4087, 9.96709 10.9313, 11.0852 11.4539, 11.9428 11.871, 12.5407 12.1834 Z" stroke="none" fill="#000000" />
			<path d="M 26.6083 5.13497 L 22.8262 5.13497 C 22.9736 6.72622, 23.1762 8.021, 23.4334 9.02097, 24.0498 8.08381, 24.5564 6.95402, 24.9517 5.63077 L 25.9459 6.03277 C 25.6511 6.90042, 25.3336 7.67511, 24.9936 8.35851, 24.6536 9.04191, 24.2575 9.68762, 23.806 10.294, 23.9258 10.6072, 24.0364 10.871, 24.1377 11.0846, 24.2759 11.3626, 24.4023 11.5569, 24.5171 11.6683, 24.6327 11.7797, 24.7499 11.835, 24.8688 11.835, 24.9702 11.835, 25.0573 11.7554, 25.131 11.5946, 25.2047 11.4338, 25.2784 11.1616, 25.3521 10.7764, 25.4258 10.3844, 25.481 9.91961, 25.5179 9.38277 L 26.5254 9.67757 C 26.4701 10.1516, 26.3872 10.706, 26.2767 11.3392, 26.1762 11.974, 26.0062 12.4179, 25.7666 12.6725, 25.5271 12.9271, 25.2281 13.0544, 24.8688 13.0544, 24.538 13.0544, 24.2441 12.9497, 23.9861 12.7395, 23.7282 12.5301, 23.471 12.1834, 23.2131 11.701, 23.121 11.5234, 23.0565 11.3802, 23.0196 11.2722, 22.5138 11.8442, 21.9242 12.443, 21.2525 13.0678 L 20.4661 12.2236 C 21.3312 11.4832, 22.0439 10.7814, 22.6051 10.1198, 22.1729 8.6642, 21.879 7.0026, 21.7223 5.13497 L 14.1446 5.13497, 14.1446 4.19697, 17.457 4.19697, 17.457 3.03117, 14.89 3.03117, 14.89 2.13337, 17.457 2.13337, 17.457 0.846974, 18.5197 0.846974, 18.5197 2.13337, 21.0046 2.13337, 21.0046 3.03117, 18.5197 3.03117, 18.5197 4.19697, 21.6528 4.19697, 21.6118 3.51357, 21.5155 0.753174, 22.5917 0.753174 C 22.6009 1.1736, 22.6285 1.79502, 22.6746 2.61577 L 22.7299 3.71457, 22.7575 4.19697, 26.6083 4.19697 Z M 25.0481 3.75477 C 24.7817 3.41642, 24.4685 3.04374, 24.1101 2.63671, 23.7516 2.23052, 23.4702 1.92902, 23.2675 1.73137 L 24.0271 1.14177 C 24.4049 1.5086, 25.012 2.17022, 25.8487 3.12497 Z M 21.1286 11.1516 C 20.8991 11.1616, 20.1261 11.2236, 18.8095 11.3392 L 18.8095 13.0678, 17.761 13.0678, 17.761 11.4196, 14.5039 11.7144, 14.4344 10.763, 17.761 10.495, 17.761 9.43637, 15.0416 9.43637, 15.0416 8.55197 C 15.4193 7.99922, 15.7275 7.52101, 15.967 7.11817 L 14.4763 7.11817, 14.4763 6.23377, 16.4913 6.23377, 16.9746 5.29577, 18.0231 5.51017, 17.6504 6.23377, 21.1972 6.23377, 21.1972 7.11817, 17.1672 7.11817 C 16.9285 7.54781, 16.6437 8.021, 16.3121 8.53857 L 17.761 8.53857, 17.761 7.58717, 18.8095 7.58717, 18.8095 8.53857, 21.0456 8.53857, 21.0456 9.43637, 18.8095 9.43637, 18.8095 10.4146 C 19.7207 10.3442, 20.4803 10.2814, 21.0875 10.227 Z" stroke="none" fill="#000000" />
			<rect />
		</svg>
	</g>
	<path d="M -99.8966 -38.8633 L 99.8966 -38.8633, 99.8966 38.8633, -99.8966 38.8633 Z" fill="none" stroke="#000000" stroke-width="7" stroke-linecap="round" stroke-linejoin="round" transform="matrix(0.142857 0 -0 0.142857 132.678 126.235)" />
	<path d="M 0 -39.0354 L 0 39.0332" fill="none" stroke="#000000" stroke-width="5.5999999" stroke-linecap="round" stroke-linejoin="round" stroke-dasharray="19.628, 13.972" transform="matrix(0.142857 0 0 0.142857 132.678 137.364)" />
	<path d="M -34.436 0 L 34.436 0" fill="none" stroke="#000000" stroke-width="7" stroke-linecap="round" stroke-linejoin="round" transform="matrix(0.142857 0 0 0.142857 113.452 126.235)" />
	<path d="M -34.4333 0 L 34.436 0" fill="none" stroke="#000000" stroke-width="7" stroke-linecap="round" stroke-linejoin="round" transform="matrix(0.142857 0 0 0.142857 152.384 126.235)" />
	<path d="M 0 44.329 L 0 -44.3311" fill="none" stroke="#000000" stroke-width="7" stroke-linecap="round" stroke-linejoin="round" transform="matrix(0.142857 0 0 0.142857 108.533 119.902)" />
	<path d="M 0 44.329 L 0 -44.3311" fill="none" stroke="#000000" stroke-width="7" stroke-linecap="round" stroke-linejoin="round" transform="matrix(0.142857 0 0 0.142857 157.304 119.902)" />
	<rect x="-206.991455" y="-81.1767426" width="413.98291" height="162.353485" stroke="none" fill="#DDDDDD" transform="matrix(0.142857 0 -0 0.142857 132.678 101.973)" />
	<path d="M -206.991 -81.1767 L 206.991 -81.1767, 206.991 81.1767, -206.991 81.1767 Z" fill="none" stroke="#000000" stroke-width="7" stroke-linecap="round" stroke-linejoin="round" transform="matrix(0.142857 0 -0 0.142857 132.678 101.973)" />
	<g transform="matrix(1 0 -0 1 110.857 95.2413)">
		<svg width="134.987915" height="36.0428505">
			<defs />
			<path d="M 4.80993 2.74654 L 4.80993 4.0651, 3.97109 4.0651, 3.97109 1.94254, 6.64305 1.94254 C 6.49565 1.52178, 6.34892 1.14256, 6.20152 0.806219 L 7.02964 0.602539, 7.54822 1.94254, 10.0768 1.94254, 10.0768 4.0651, 9.27079 4.0651, 9.27079 2.74654 Z M 3.57311 5.7267 L 2.5795 6.1019, 2.5795 9.25358 C 2.5795 9.68975, 2.50044 9.99862, 2.34232 10.1809, 2.1842 10.3631, 1.91017 10.4542, 1.51956 10.4542, 1.18858 10.4542, 0.890431 10.4261, 0.625111 10.3685 L 0.459621 9.55374 C 0.828121 9.62543, 1.09679 9.66094, 1.26563 9.66094, 1.44988 9.66094, 1.57718 9.60734, 1.64686 9.50014, 1.71654 9.39294, 1.75138 9.22209, 1.75138 8.98558 L 1.75138 6.4235 C 1.7219 6.43824, 1.45323 6.54544, 0.945371 6.7451, 0.673351 6.8456, 0.500491 6.91394, 0.426791 6.94878 L 0.205691 6.11262, 1.11086 5.79102 C 1.43514 5.67042, 1.6482 5.59136, 1.75138 5.55518 L 1.75138 3.55054, 0.426791 3.55054, 0.426791 2.70366, 1.75138 2.70366, 1.75138 0.741899, 2.5795 0.741899, 2.5795 2.70366, 3.62872 2.70366, 3.62872 3.55054, 2.5795 3.55054, 2.5795 5.25502, 2.91115 5.1371 C 2.88904 5.14514, 3.10947 5.06608, 3.57311 4.90126 Z M 7.73582 3.59342 C 8.99475 4.43025, 9.88183 5.03794, 10.3971 5.41582 L 9.89992 6.09118 C 9.45102 5.72737, 8.56796 5.11298, 7.25007 4.24734 Z M 6.59883 4.19374 C 5.89935 4.87312, 5.09334 5.52369, 4.1808 6.14478 L 3.73927 5.4587 C 4.4756 5.00913, 5.24476 4.39474, 6.04675 3.61486 Z M 9.65738 7.19534 L 7.40484 7.19534, 7.40484 9.29646, 10.3307 9.29646, 10.3307 10.1005, 3.48534 10.1005, 3.48534 9.29646, 6.51039 9.29646, 6.51039 7.19534, 4.24713 7.19534, 4.24713 6.39134, 9.65738 6.39134 Z" stroke="none" fill="#000000" />
			<path d="M 14.9575 2.9931 L 14.9575 4.25806, 17.4084 4.25806, 17.4084 5.05134, 14.9575 5.05134, 14.9575 6.13406, 17.0553 6.13406, 17.0553 8.86766 C 17.0553 9.18256, 16.9836 9.4184, 16.8402 9.57518, 16.6969 9.73263, 16.4664 9.81102, 16.1495 9.81102, 15.9733 9.81102, 15.716 9.78958, 15.377 9.7467 L 15.2222 9.02846 C 15.2885 9.0365, 15.3917 9.04923, 15.5317 9.06665, 15.6718 9.08474, 15.797 9.09345, 15.9069 9.09278, 16.0396 9.09345, 16.1341 9.06129, 16.189 8.99697, 16.2439 8.93265, 16.2714 8.81808, 16.2714 8.65326 L 16.2714 6.91662, 14.9575 6.91662, 14.9575 10.5936, 14.1294 10.5936, 14.1294 6.91662, 12.7821 6.91662, 12.7821 9.87534, 11.9981 9.87534, 11.9981 6.13406, 14.1294 6.13406, 14.1294 5.05134, 11.4018 5.05134, 11.4018 4.25806, 14.1294 4.25806, 14.1294 2.9931, 12.7713 2.9931 C 12.6387 3.32944, 12.5027 3.6296, 12.3626 3.89358 L 11.5894 3.64702 C 11.9948 2.79746, 12.2822 1.9613, 12.4511 1.13854 L 13.2678 1.26718 C 13.2169 1.5325, 13.1358 1.84673, 13.0253 2.21054 L 14.1294 2.21054, 14.1294 0.78478, 14.9575 0.78478, 14.9575 2.21054, 17.1766 2.21054, 17.1766 2.9931 Z M 20.0033 0.91342 L 20.8314 0.91342, 20.8314 9.13566 C 20.8314 9.60734, 20.7363 9.94904, 20.5447 10.1594, 20.353 10.3705, 20.0147 10.4757, 19.5283 10.4757, 19.1826 10.4757, 18.745 10.4435, 18.2144 10.3792 L 18.0382 9.55374 C 18.5534 9.6328, 18.9695 9.67166, 19.2857 9.67166, 19.5437 9.67166, 19.7279 9.60064, 19.8378 9.45726, 19.9484 9.31522, 20.0033 9.10082, 20.0033 8.81406 Z M 18.071 1.79246 L 18.8991 1.79246, 18.8991 8.2459, 18.071 8.2459 Z" stroke="none" fill="#000000" />
			<path d="M 32.3036 7.7099 C 32.2822 8.15344, 32.2527 8.60368, 32.2152 9.06062, 32.1857 9.40366, 32.1107 9.66295, 31.9887 9.83782, 31.8675 10.0134, 31.6872 10.1366, 31.448 10.2077, 31.2088 10.2793, 30.8718 10.3256, 30.4377 10.347, 30.0698 10.3685, 29.698 10.3792, 29.3221 10.3792, 28.9469 10.3792, 28.5717 10.3685, 28.1959 10.347, 27.7697 10.3189, 27.4461 10.2633, 27.225 10.1809, 27.0039 10.0991, 26.8458 9.95574, 26.75 9.75206, 26.6542 9.54838, 26.6059 9.25425, 26.6059 8.86766 L 26.6059 7.74206, 23.1615 7.74206, 23.1615 2.1891, 26.6059 2.1891, 26.6059 0.774059, 27.5004 0.774059, 27.5004 2.1891, 31.0668 2.1891, 31.0668 7.74206, 27.5004 7.74206, 27.5004 8.69614 C 27.5004 9.01104, 27.5634 9.22745, 27.6887 9.34537, 27.814 9.46329, 28.0384 9.5323, 28.362 9.55374, 28.6635 9.57518, 28.9617 9.5859, 29.2565 9.5859, 29.558 9.5859, 29.8561 9.57518, 30.1502 9.55374, 30.4598 9.5323, 30.6936 9.4988, 30.8517 9.4519, 31.0099 9.40567, 31.1298 9.32393, 31.2109 9.20601, 31.2919 9.08809, 31.3395 8.91121, 31.3542 8.6747, 31.3911 8.03217, 31.4092 7.6429, 31.4092 7.50622 Z M 26.6059 4.57966 L 26.6059 2.9931, 24.0117 2.9931, 24.0117 4.57966 Z M 30.2059 4.57966 L 30.2059 2.9931, 27.5004 2.9931, 27.5004 4.57966 Z M 24.0117 5.34078 L 24.0117 6.93806, 26.6059 6.93806, 26.6059 5.34078 Z M 27.5004 5.34078 L 27.5004 6.93806, 30.2059 6.93806, 30.2059 5.34078 Z" stroke="none" fill="#000000" />
			<path d="M 40.9186 4.50462 C 41.5591 4.92672, 42.3839 5.27713, 43.3915 5.55518 L 43.0606 6.32702 C 41.9122 5.97058, 40.9849 5.53776, 40.2781 5.0299, 39.5571 5.5592, 38.6553 6.00944, 37.5726 6.38062 L 37.1974 5.64094 C 38.1622 5.31264, 38.9756 4.92672, 39.6375 4.48318, 39.2329 4.112, 38.8617 3.65841, 38.5227 3.12174, 38.331 3.34418, 38.0771 3.60816, 37.7609 3.91502 L 37.2637 3.28254 C 38.0443 2.54688, 38.666 1.6464, 39.1297 0.5811 L 39.925 0.806219 C 39.7849 1.12112, 39.6596 1.3784, 39.5491 1.57806 L 42.5413 1.57806, 42.5413 2.33918 C 42.0857 3.21889, 41.5444 3.94048, 40.9186 4.50462 Z M 36.0825 8.70686 L 37.1203 8.48174, 37.1425 9.32862, 33.2444 10.1433, 33.1231 9.33934, 33.7858 9.19998, 33.7858 5.25502, 34.5475 5.25502, 34.5475 9.02846, 35.3093 8.86766, 35.3093 4.47246, 33.8186 4.47246, 33.8186 1.20286, 36.9214 1.20286, 36.9214 4.47246, 36.0825 4.47246, 36.0825 6.05902, 37.0647 6.05902, 37.0647 6.84158, 36.0825 6.84158 Z M 36.1482 1.98542 L 34.6025 1.98542, 34.6025 3.70062, 36.1482 3.70062 Z M 39.0191 2.44638 C 39.395 3.09025, 39.8111 3.61218, 40.2667 4.0115, 40.8047 3.55456, 41.2723 2.99377, 41.669 2.32846 L 39.0968 2.32846, 39.0191 2.44638 Z M 38.8979 10.3899 L 38.0918 10.3899, 38.0918 6.46638, 42.4093 6.46638, 42.4093 10.3899, 41.5812 10.3899, 41.5812 9.8003, 38.8979 9.8003 Z M 41.5812 9.06062 L 41.5812 7.21678, 38.8979 7.21678, 38.8979 9.06062 Z" stroke="none" fill="#000000" />
			<rect />
		</svg>
	</g>
	<ellipse cx="821.28479099273682" cy="768.31048679351807" rx="14.000000953674316" ry="14.000000953674316" stroke="none" fill="#E50500" transform="matrix(0.142857 0 0 0.142857 -39.5646 37.0441)" />
	<path d="M 0 156.905 L 0 -156.905" fill="none" stroke="#E50500" stroke-width="9.33333397" stroke-linecap="round" stroke-linejoin="round" transform="matrix(0.142857 0 0 0.142857 77.7618 124.388)" />
	<path d="M 0 156.905 L 0 -156.905" fill="none" stroke="#E50500" stroke-width="9.33333397" stroke-linecap="round" stroke-linejoin="round" transform="matrix(0.142857 0 0 0.142857 170.953 124.388)" />
	<ellipse cx="1473.6223154067993" cy="768.31048679351807" rx="14.000000953674316" ry="14.000000953674316" stroke="none" fill="#E50500" transform="matrix(0.142857 0 0 0.142857 -39.5646 37.0441)" />
	<rect x="-60.7095947" y="-19.4311523" width="121.419189" height="38.8623047" stroke="none" fill="#FFFFFF" transform="matrix(0.142857 0 -0 0.142857 97.5072 146.803)" />
	<path d="M -60.7096 -19.4312 L 60.7096 -19.4312, 60.7096 19.4312, -60.7096 19.4312 Z" fill="none" stroke="#E50500" stroke-width="7" stroke-linecap="round" stroke-linejoin="round" transform="matrix(0.142857 0 -0 0.142857 97.5072 146.803)" />
</g>
</defs>
<use xlink:href="#orig" transform="scale(2)"/>
</svg>
