<svg width="1825" height="839" xmlns="http://www.w3.org/2000/svg" xmlns:xlink="http://www.w3.org/1999/xlink" xml:space="preserve" overflow="hidden"><defs><clipPath id="clip0"><rect x="381" y="440" width="1825" height="839"/></clipPath></defs><g clip-path="url(#clip0)" transform="translate(-381 -440)"><path d="M1792.14 723.913C1789.88 723.913 1787.93 724.734 1786.28 726.376 1784.63 728.018 1783.81 729.961 1783.81 732.206 1783.81 734.505 1784.63 736.475 1786.28 738.117 1787.93 739.76 1789.88 740.581 1792.14 740.581 1794.5 740.581 1796.48 739.773 1798.08 738.158 1799.67 736.544 1800.47 734.56 1800.47 732.206 1800.47 729.907 1799.66 727.95 1798.04 726.335 1796.42 724.72 1794.45 723.913 1792.14 723.913ZM1792.14 719.726C1795.66 719.726 1798.64 720.944 1801.09 723.379 1803.54 725.815 1804.76 728.757 1804.76 732.206 1804.76 735.654 1803.54 738.61 1801.09 741.073 1798.64 743.537 1795.66 744.768 1792.14 744.768 1788.73 744.768 1785.79 743.537 1783.31 741.073 1780.84 738.61 1779.6 735.654 1779.6 732.206 1779.6 728.757 1780.84 725.815 1783.31 723.379 1785.79 720.944 1788.73 719.726 1792.14 719.726ZM1634.66 691.481C1639.12 702.319 1645.11 711.487 1652.64 718.987 1659.85 711.761 1665.51 702.592 1669.64 691.481ZM1469.68 691.481C1474.13 702.319 1480.12 711.487 1487.66 718.987 1494.86 711.761 1500.53 702.592 1504.65 691.481ZM1304.69 691.481C1309.14 702.319 1315.14 711.487 1322.67 718.987 1329.88 711.761 1335.54 702.592 1339.67 691.481ZM1139.7 691.481C1144.16 702.319 1150.15 711.487 1157.69 718.987 1164.89 711.761 1170.56 702.592 1174.68 691.481ZM1615.6 685.487 1689.52 685.487 1689.52 691.481 1676.57 691.481C1671.95 704.18 1665.51 714.772 1657.26 723.256 1666.78 731.248 1677.89 736.804 1690.59 739.924 1689.22 741.238 1687.81 743.126 1686.38 745.589 1673.02 741.812 1661.75 735.818 1652.56 727.608 1643.65 735.381 1632.21 741.484 1618.24 745.918 1617.2 743.783 1615.93 741.895 1614.45 740.252 1627.98 736.421 1639.2 730.755 1648.11 723.256 1639.8 714.772 1633.2 704.18 1628.31 691.481L1615.6 691.481ZM1450.62 685.487 1524.53 685.487 1524.53 691.481 1511.58 691.481C1506.96 704.18 1500.53 714.772 1492.28 723.256 1501.79 731.248 1512.9 736.804 1525.61 739.924 1524.23 741.238 1522.83 743.126 1521.4 745.589 1508.03 741.812 1496.76 735.818 1487.58 727.608 1478.67 735.381 1467.23 741.484 1453.26 745.918 1452.21 743.783 1450.95 741.895 1449.46 740.252 1462.99 736.421 1474.21 730.755 1483.12 723.256 1474.82 714.772 1468.22 704.18 1463.32 691.481L1450.62 691.481ZM1285.63 685.487 1359.55 685.487 1359.55 691.481 1346.6 691.481C1341.98 704.18 1335.54 714.772 1327.29 723.256 1336.81 731.248 1347.92 736.804 1360.62 739.924 1359.24 741.238 1357.84 743.126 1356.41 745.589 1343.05 741.812 1331.77 735.818 1322.59 727.608 1313.68 735.381 1302.24 741.484 1288.27 745.918 1287.23 743.783 1285.96 741.895 1284.48 740.252 1298.01 736.421 1309.23 730.755 1318.14 723.256 1309.83 714.772 1303.23 704.18 1298.34 691.481L1285.63 691.481ZM1120.65 685.487 1194.56 685.487 1194.56 691.481 1181.61 691.481C1176.99 704.18 1170.56 714.772 1162.31 723.256 1171.82 731.248 1182.93 736.804 1195.63 739.924 1194.26 741.238 1192.86 743.126 1191.43 745.589 1178.06 741.812 1166.79 735.818 1157.6 727.608 1148.7 735.381 1137.26 741.484 1123.29 745.918 1122.24 743.783 1120.98 741.895 1119.49 740.252 1133.02 736.421 1144.24 730.755 1153.15 723.256 1144.85 714.772 1138.25 704.18 1133.35 691.481L1120.65 691.481ZM1731.67 671.118 1738.02 671.118 1738.02 688.279 1770.69 688.279 1770.69 694.354 1745.2 694.354C1748.23 701.416 1752.16 707.902 1757 713.814 1762 719.835 1767.31 724.433 1772.92 727.608 1770.77 729.414 1769.21 731.138 1768.22 732.781 1762.22 729.058 1756.64 723.694 1751.47 716.687 1746.41 709.955 1742.31 702.51 1739.18 694.354L1738.02 694.354 1738.02 724.652 1757.16 724.652 1757.16 730.728 1738.02 730.728 1738.02 746 1731.67 746 1731.67 730.728 1712.53 730.728 1712.53 724.652 1731.67 724.652 1731.67 694.354 1730.35 694.354C1727.16 702.456 1723.04 709.9 1717.98 716.687 1712.86 723.585 1707.36 729.031 1701.48 733.027 1700.22 731.166 1698.76 729.551 1697.11 728.182 1702.44 724.953 1707.56 720.218 1712.45 713.978 1717.18 708.012 1721.09 701.47 1724.17 694.354L1699.25 694.354 1699.25 688.279 1731.67 688.279ZM1566.69 671.118 1573.04 671.118 1573.04 688.279 1605.71 688.279 1605.71 694.354 1580.22 694.354C1583.24 701.416 1587.17 707.902 1592.01 713.814 1597.02 719.835 1602.32 724.433 1607.93 727.608 1605.79 729.414 1604.22 731.138 1603.23 732.781 1597.24 729.058 1591.65 723.694 1586.48 716.687 1581.43 709.955 1577.33 702.51 1574.19 694.354L1573.04 694.354 1573.04 724.652 1592.18 724.652 1592.18 730.728 1573.04 730.728 1573.04 746 1566.69 746 1566.69 730.728 1547.55 730.728 1547.55 724.652 1566.69 724.652 1566.69 694.354 1565.37 694.354C1562.18 702.456 1558.05 709.9 1552.99 716.687 1547.88 723.585 1542.38 729.031 1536.49 733.027 1535.23 731.166 1533.77 729.551 1532.12 728.182 1537.46 724.953 1542.57 720.218 1547.47 713.978 1552.2 708.012 1556.1 701.47 1559.18 694.354L1534.27 694.354 1534.27 688.279 1566.69 688.279ZM1401.7 671.118 1408.05 671.118 1408.05 688.279 1440.72 688.279 1440.72 694.354 1415.23 694.354C1418.25 701.416 1422.19 707.902 1427.03 713.814 1432.03 719.835 1437.34 724.433 1442.95 727.608 1440.8 729.414 1439.24 731.138 1438.25 732.781 1432.25 729.058 1426.67 723.694 1421.5 716.687 1416.44 709.955 1412.34 702.51 1409.21 694.354L1408.05 694.354 1408.05 724.652 1427.19 724.652 1427.19 730.728 1408.05 730.728 1408.05 746 1401.7 746 1401.7 730.728 1382.56 730.728 1382.56 724.652 1401.7 724.652 1401.7 694.354 1400.38 694.354C1397.19 702.456 1393.07 709.9 1388.01 716.687 1382.89 723.585 1377.39 729.031 1371.51 733.027 1370.24 731.166 1368.79 729.551 1367.14 728.182 1372.47 724.953 1377.59 720.218 1382.48 713.978 1387.21 708.012 1391.11 701.47 1394.19 694.354L1369.28 694.354 1369.28 688.279 1401.7 688.279ZM1236.72 671.118 1243.07 671.118 1243.07 688.279 1275.73 688.279 1275.73 694.354 1250.24 694.354C1253.27 701.416 1257.2 707.902 1262.04 713.814 1267.05 719.835 1272.35 724.433 1277.96 727.608 1275.82 729.414 1274.25 731.138 1273.26 732.781 1267.27 729.058 1261.68 723.694 1256.51 716.687 1251.45 709.955 1247.36 702.51 1244.22 694.354L1243.07 694.354 1243.07 724.652 1262.21 724.652 1262.21 730.728 1243.07 730.728 1243.07 746 1236.72 746 1236.72 730.728 1217.58 730.728 1217.58 724.652 1236.72 724.652 1236.72 694.354 1235.4 694.354C1232.21 702.456 1228.08 709.9 1223.02 716.687 1217.91 723.585 1212.41 729.031 1206.52 733.027 1205.26 731.166 1203.8 729.551 1202.15 728.182 1207.49 724.953 1212.6 720.218 1217.49 713.978 1222.22 708.012 1226.13 701.47 1229.21 694.354L1204.3 694.354 1204.3 688.279 1236.72 688.279ZM1652.4 670.626C1655.53 675.497 1657.68 679.685 1658.83 683.188L1652.15 685.323C1651.05 681.546 1649.01 677.249 1646.04 672.432ZM1487.41 670.626C1490.55 675.497 1492.69 679.685 1493.85 683.188L1487.16 685.323C1486.06 681.546 1484.03 677.249 1481.06 672.432ZM1322.43 670.626C1325.56 675.497 1327.71 679.685 1328.86 683.188L1322.18 685.323C1321.08 681.546 1319.04 677.249 1316.07 672.432ZM1157.44 670.626C1160.57 675.497 1162.72 679.685 1163.87 683.188L1157.19 685.323C1156.09 681.546 1154.06 677.249 1151.09 672.432ZM1883.13 670.543C1884.94 670.543 1886.48 671.283 1887.75 672.76 1889.01 674.238 1889.65 676.099 1889.65 678.344 1889.65 681.792 1888.6 684.967 1886.51 687.868 1884.59 690.386 1882.19 692.329 1879.33 693.698L1877.6 690.578C1879.8 689.483 1881.59 687.978 1882.96 686.062 1884.28 684.201 1884.94 682.339 1884.94 680.478 1884.28 680.916 1883.51 681.135 1882.63 681.135 1881.15 681.135 1879.93 680.629 1878.96 679.616 1878 678.604 1877.52 677.358 1877.52 675.88 1877.52 674.457 1877.99 673.226 1878.92 672.186 1879.97 671.091 1881.37 670.543 1883.13 670.543ZM1867.29 670.543C1869.11 670.543 1870.65 671.283 1871.91 672.76 1873.18 674.238 1873.81 676.099 1873.81 678.344 1873.81 681.792 1872.76 684.967 1870.67 687.868 1868.75 690.386 1866.36 692.329 1863.5 693.698L1861.76 690.578C1863.96 689.483 1865.75 687.978 1867.13 686.062 1868.45 684.201 1869.11 682.339 1869.11 680.478 1868.45 680.916 1867.7 681.135 1866.88 681.135 1865.34 681.135 1864.09 680.629 1863.12 679.616 1862.16 678.604 1861.68 677.358 1861.68 675.88 1861.68 674.457 1862.15 673.226 1863.08 672.186 1864.13 671.091 1865.53 670.543 1867.29 670.543ZM1111.33 670.215 1113.06 673.335C1110.86 674.43 1109.07 675.935 1107.7 677.851 1106.38 679.712 1105.72 681.573 1105.72 683.434 1106.27 682.996 1107.01 682.778 1107.94 682.778 1109.48 682.778 1110.73 683.284 1111.7 684.297 1112.66 685.309 1113.14 686.554 1113.14 688.032 1113.14 689.401 1112.67 690.605 1111.74 691.645 1110.69 692.794 1109.29 693.369 1107.53 693.369 1105.72 693.369 1104.18 692.63 1102.91 691.152 1101.65 689.674 1101.01 687.813 1101.01 685.569 1101.01 682.121 1102.09 678.946 1104.23 676.044 1106.1 673.472 1108.47 671.529 1111.33 670.215ZM1095.49 670.215 1097.22 673.335C1095.02 674.43 1093.23 675.935 1091.86 677.851 1090.54 679.712 1089.88 681.573 1089.88 683.434 1090.43 682.996 1091.2 682.778 1092.19 682.778 1093.67 682.778 1094.9 683.284 1095.86 684.297 1096.82 685.309 1097.3 686.554 1097.3 688.032 1097.3 689.401 1096.83 690.605 1095.9 691.645 1094.86 692.794 1093.45 693.369 1091.69 693.369 1089.88 693.369 1088.35 692.63 1087.11 691.152 1085.88 689.674 1085.26 687.813 1085.26 685.569 1085.26 682.121 1086.3 678.946 1088.39 676.044 1090.26 673.417 1092.63 671.474 1095.49 670.215ZM2126.73 618.296C2128.44 618.296 2129.89 618.843 2131.1 619.938 2132.37 621.142 2133 622.648 2133 624.454 2133 626.261 2132.37 627.738 2131.1 628.888 2129.89 630.037 2128.44 630.612 2126.73 630.612 2125.03 630.612 2123.57 630.037 2122.36 628.888 2121.15 627.738 2120.54 626.261 2120.54 624.454 2120.54 622.648 2121.18 621.142 2122.44 619.938 2123.6 618.843 2125.03 618.296 2126.73 618.296ZM1882.14 582.005C1886.59 592.843 1892.59 602.011 1900.12 609.51 1907.33 602.285 1912.99 593.116 1917.12 582.005ZM1717.15 582.005C1721.61 592.843 1727.6 602.011 1735.14 609.51 1742.34 602.285 1748.01 593.116 1752.13 582.005ZM1552.17 582.005C1556.62 592.843 1562.62 602.011 1570.15 609.51 1577.36 602.285 1583.02 593.116 1587.15 582.005ZM1387.18 582.005C1391.64 592.843 1397.63 602.011 1405.17 609.51 1412.37 602.285 1418.03 593.116 1422.16 582.005ZM1222.2 582.005C1226.65 592.843 1232.65 602.011 1240.18 609.51 1247.38 602.285 1253.05 593.116 1257.17 582.005ZM1057.21 582.005C1061.67 592.843 1067.66 602.011 1075.19 609.51 1082.4 602.285 1088.06 593.116 1092.19 582.005ZM2126.73 578.063C2128.44 578.063 2129.89 578.638 2131.1 579.788 2132.37 580.992 2133 582.497 2133 584.304 2133 586.11 2132.37 587.588 2131.1 588.737 2129.89 589.832 2128.44 590.38 2126.73 590.38 2125.03 590.38 2123.6 589.832 2122.44 588.737 2121.18 587.588 2120.54 586.096 2120.54 584.263 2120.54 582.429 2121.15 580.937 2122.36 579.788 2123.57 578.638 2125.03 578.063 2126.73 578.063ZM1863.08 576.011 1937 576.011 1937 582.005 1924.05 582.005C1919.43 594.704 1912.99 605.296 1904.74 613.78 1914.26 621.772 1925.37 627.328 1938.07 630.448 1936.69 631.762 1935.29 633.65 1933.86 636.113 1920.5 632.336 1909.22 626.342 1900.04 618.132 1891.13 625.905 1879.69 632.008 1865.72 636.442 1864.68 634.307 1863.41 632.419 1861.93 630.776 1875.46 626.945 1886.68 621.279 1895.59 613.78 1887.28 605.296 1880.68 594.704 1875.79 582.005L1863.08 582.005ZM1698.1 576.011 1772.01 576.011 1772.01 582.005 1759.06 582.005C1754.44 594.704 1748.01 605.296 1739.76 613.78 1749.27 621.772 1760.38 627.328 1773.08 630.448 1771.71 631.762 1770.31 633.65 1768.88 636.113 1755.51 632.336 1744.24 626.342 1735.05 618.132 1726.15 625.905 1714.71 632.008 1700.74 636.442 1699.69 634.307 1698.43 632.419 1696.94 630.776 1710.47 626.945 1721.69 621.279 1730.6 613.78 1722.3 605.296 1715.7 594.704 1710.8 582.005L1698.1 582.005ZM1533.11 576.011 1607.03 576.011 1607.03 582.005 1594.07 582.005C1589.45 594.704 1583.02 605.296 1574.77 613.78 1584.29 621.772 1595.39 627.328 1608.1 630.448 1606.72 631.762 1605.32 633.65 1603.89 636.113 1590.53 632.336 1579.25 626.342 1570.07 618.132 1561.16 625.905 1549.72 632.008 1535.75 636.442 1534.71 634.307 1533.44 632.419 1531.96 630.776 1545.49 626.945 1556.7 621.279 1565.61 613.78 1557.31 605.296 1550.71 594.704 1545.82 582.005L1533.11 582.005ZM1368.13 576.011 1442.04 576.011 1442.04 582.005 1429.09 582.005C1424.47 594.704 1418.03 605.296 1409.79 613.78 1419.3 621.772 1430.41 627.328 1443.11 630.448 1441.74 631.762 1440.34 633.65 1438.91 636.113 1425.54 632.336 1414.27 626.342 1405.08 618.132 1396.17 625.905 1384.73 632.008 1370.77 636.442 1369.72 634.307 1368.46 632.419 1366.97 630.776 1380.5 626.945 1391.72 621.279 1400.63 613.78 1392.32 605.296 1385.73 594.704 1380.83 582.005L1368.13 582.005ZM1203.14 576.011 1277.05 576.011 1277.05 582.005 1264.1 582.005C1259.48 594.704 1253.05 605.296 1244.8 613.78 1254.31 621.772 1265.42 627.328 1278.13 630.448 1276.75 631.762 1275.35 633.65 1273.92 636.113 1260.56 632.336 1249.28 626.342 1240.1 618.132 1231.19 625.905 1219.75 632.008 1205.78 636.442 1204.74 634.307 1203.47 632.419 1201.99 630.776 1215.51 626.945 1226.73 621.279 1235.64 613.78 1227.34 605.296 1220.74 594.704 1215.84 582.005L1203.14 582.005ZM1038.16 576.011 1112.07 576.011 1112.07 582.005 1099.12 582.005C1094.5 594.704 1088.06 605.296 1079.81 613.78 1089.33 621.772 1100.44 627.328 1113.14 630.448 1111.77 631.762 1110.36 633.65 1108.93 636.113 1095.57 632.336 1084.3 626.342 1075.11 618.132 1066.2 625.905 1054.76 632.008 1040.79 636.442 1039.75 634.307 1038.49 632.419 1037 630.776 1050.53 626.945 1061.75 621.279 1070.66 613.78 1062.35 605.296 1055.75 594.704 1050.86 582.005L1038.16 582.005ZM1979.15 561.642 1985.5 561.642 1985.5 578.803 2018.17 578.803 2018.17 584.878 1992.68 584.878C1995.7 591.94 1999.64 598.426 2004.48 604.338 2009.48 610.359 2014.79 614.957 2020.4 618.132 2018.25 619.938 2016.69 621.662 2015.69 623.305 2009.7 619.582 2004.12 614.218 1998.95 607.211 1993.89 600.479 1989.79 593.035 1986.66 584.878L1985.5 584.878 1985.5 615.176 2004.64 615.176 2004.64 621.252 1985.5 621.252 1985.5 636.524 1979.15 636.524 1979.15 621.252 1960.01 621.252 1960.01 615.176 1979.15 615.176 1979.15 584.878 1977.83 584.878C1974.64 592.98 1970.52 600.424 1965.46 607.211 1960.34 614.109 1954.84 619.555 1948.96 623.551 1947.69 621.69 1946.24 620.075 1944.59 618.706 1949.92 615.477 1955.04 610.742 1959.93 604.502 1964.66 598.536 1968.56 591.994 1971.64 584.878L1946.73 584.878 1946.73 578.803 1979.15 578.803ZM1814.17 561.642 1820.52 561.642 1820.52 578.803 1853.18 578.803 1853.18 584.878 1827.69 584.878C1830.72 591.94 1834.65 598.426 1839.49 604.338 1844.49 610.359 1849.8 614.957 1855.41 618.132 1853.27 619.938 1851.7 621.662 1850.71 623.305 1844.72 619.582 1839.13 614.218 1833.96 607.211 1828.9 600.479 1824.81 593.035 1821.67 584.878L1820.52 584.878 1820.52 615.176 1839.66 615.176 1839.66 621.252 1820.52 621.252 1820.52 636.524 1814.17 636.524 1814.17 621.252 1795.03 621.252 1795.03 615.176 1814.17 615.176 1814.17 584.878 1812.85 584.878C1809.66 592.98 1805.53 600.424 1800.47 607.211 1795.36 614.109 1789.86 619.555 1783.97 623.551 1782.71 621.69 1781.25 620.075 1779.6 618.706 1784.94 615.477 1790.05 610.742 1794.94 604.502 1799.67 598.536 1803.58 591.994 1806.66 584.878L1781.75 584.878 1781.75 578.803 1814.17 578.803ZM1484.19 561.642 1490.55 561.642 1490.55 578.803 1523.21 578.803 1523.21 584.878 1497.72 584.878C1500.75 591.94 1504.68 598.426 1509.52 604.338 1514.52 610.359 1519.83 614.957 1525.44 618.132 1523.3 619.938 1521.73 621.662 1520.74 623.305 1514.74 619.582 1509.16 614.218 1503.99 607.211 1498.93 600.479 1494.84 593.035 1491.7 584.878L1490.55 584.878 1490.55 615.176 1509.68 615.176 1509.68 621.252 1490.55 621.252 1490.55 636.524 1484.19 636.524 1484.19 621.252 1465.06 621.252 1465.06 615.176 1484.19 615.176 1484.19 584.878 1482.87 584.878C1479.68 592.98 1475.56 600.424 1470.5 607.211 1465.39 614.109 1459.89 619.555 1454 623.551 1452.74 621.69 1451.28 620.075 1449.63 618.706 1454.96 615.477 1460.08 610.742 1464.97 604.502 1469.7 598.536 1473.61 591.994 1476.69 584.878L1451.77 584.878 1451.77 578.803 1484.19 578.803ZM1319.21 561.642 1325.56 561.642 1325.56 578.803 1358.23 578.803 1358.23 584.878 1332.74 584.878C1335.76 591.94 1339.69 598.426 1344.53 604.338 1349.54 610.359 1354.85 614.957 1360.45 618.132 1358.31 619.938 1356.74 621.662 1355.75 623.305 1349.76 619.582 1344.18 614.218 1339.01 607.211 1333.95 600.479 1329.85 593.035 1326.71 584.878L1325.56 584.878 1325.56 615.176 1344.7 615.176 1344.7 621.252 1325.56 621.252 1325.56 636.524 1319.21 636.524 1319.21 621.252 1300.07 621.252 1300.07 615.176 1319.21 615.176 1319.21 584.878 1317.89 584.878C1314.7 592.98 1310.57 600.424 1305.51 607.211 1300.4 614.109 1294.9 619.555 1289.02 623.551 1287.75 621.69 1286.29 620.075 1284.64 618.706 1289.98 615.477 1295.09 610.742 1299.99 604.502 1304.72 598.536 1308.62 591.994 1311.7 584.878L1286.79 584.878 1286.79 578.803 1319.21 578.803ZM1154.22 561.642 1160.57 561.642 1160.57 578.803 1193.24 578.803 1193.24 584.878 1167.75 584.878C1170.78 591.94 1174.71 598.426 1179.55 604.338 1184.55 610.359 1189.86 614.957 1195.47 618.132 1193.32 619.938 1191.76 621.662 1190.77 623.305 1184.77 619.582 1179.19 614.218 1174.02 607.211 1168.96 600.479 1164.86 593.035 1161.73 584.878L1160.57 584.878 1160.57 615.176 1179.71 615.176 1179.71 621.252 1160.57 621.252 1160.57 636.524 1154.22 636.524 1154.22 621.252 1135.08 621.252 1135.08 615.176 1154.22 615.176 1154.22 584.878 1152.9 584.878C1149.71 592.98 1145.59 600.424 1140.53 607.211 1135.41 614.109 1129.91 619.555 1124.03 623.551 1122.77 621.69 1121.31 620.075 1119.66 618.706 1124.99 615.477 1130.11 610.742 1135 604.502 1139.73 598.536 1143.64 591.994 1146.72 584.878L1121.8 584.878 1121.8 578.803 1154.22 578.803ZM1899.88 561.15C1903.01 566.021 1905.15 570.209 1906.31 573.712L1899.63 575.847C1898.53 572.07 1896.49 567.773 1893.52 562.956ZM1734.89 561.15C1738.02 566.021 1740.17 570.209 1741.32 573.712L1734.64 575.847C1733.54 572.07 1731.51 567.773 1728.54 562.956ZM1569.9 561.15C1573.04 566.021 1575.18 570.209 1576.34 573.712L1569.66 575.847C1568.56 572.07 1566.52 567.773 1563.55 562.956ZM1404.92 561.15C1408.05 566.021 1410.2 570.209 1411.35 573.712L1404.67 575.847C1403.57 572.07 1401.54 567.773 1398.57 562.956ZM1239.93 561.15C1243.07 566.021 1245.21 570.209 1246.37 573.712L1239.68 575.847C1238.58 572.07 1236.55 567.773 1233.58 562.956ZM1074.95 561.15C1078.08 566.021 1080.23 570.209 1081.38 573.712L1074.7 575.847C1073.6 572.07 1071.56 567.773 1068.59 562.956ZM2032.36 560C2043.3 571.057 2048.77 584.085 2048.77 599.083 2048.77 614.081 2043.3 627.109 2032.36 638.166L2027.41 635.621C2037.64 625.111 2042.75 612.932 2042.75 599.083 2042.75 585.234 2037.64 573.055 2027.41 562.545ZM1684.9 560 1689.85 562.545C1679.62 573.055 1674.5 585.234 1674.5 599.083 1674.5 612.932 1679.62 625.111 1689.85 635.621L1684.9 638.166C1673.95 627.109 1668.48 614.081 1668.48 599.083 1668.48 584.085 1673.95 571.057 1684.9 560Z" fill-rule="evenodd"/><path d="M1034.5 440.5 1034.5 1274.03" stroke="#000000" stroke-width="9.16667" stroke-miterlimit="8" stroke-opacity="0.301961" fill="none" fill-rule="evenodd"/><path d="M2201.5 440.5 2201.5 1274.03" stroke="#000000" stroke-width="9.16667" stroke-miterlimit="8" stroke-opacity="0.301961" fill="none" fill-rule="evenodd"/><path d="M449.183 598.982C446.928 598.982 445.14 599.602 443.82 600.841 442.499 602.08 441.84 603.719 441.84 605.757 441.84 607.794 442.541 609.432 443.944 610.672 445.346 611.911 447.34 612.53 449.926 612.53 452.951 612.53 455.344 611.787 457.104 610.3 458.864 608.813 459.745 606.83 459.745 604.352L459.745 598.982ZM584.944 598.239 620.837 598.322 620.92 607.739 585.027 607.739ZM785.698 588.078 812.102 588.078 812.102 597.661 785.698 597.661ZM551.114 582.791C548.473 582.791 546.438 583.548 545.008 585.063 543.578 586.577 542.863 588.684 542.863 591.382L542.863 599.974C542.863 602.672 543.578 604.779 545.008 606.294 546.438 607.808 548.473 608.565 551.114 608.565 553.754 608.565 555.803 607.78 557.261 606.211 558.719 604.641 559.448 602.452 559.448 599.643L559.448 591.713C559.448 588.904 558.719 586.715 557.261 585.146 555.803 583.576 553.754 582.791 551.114 582.791ZM584.944 578 620.837 578 620.92 587.5 585.027 587.417ZM681.622 574.696 716.525 574.696 716.607 584.03 692.678 611.043 717.432 611.043 717.515 620.13 680.962 620.13 680.879 610.795 704.56 583.783 681.704 583.783ZM547.648 573.87C551.609 573.87 554.772 575.136 557.137 577.67L559.695 581.977 559.695 574.696 569.762 574.696 569.762 619.469C569.762 624.261 568.18 628.047 565.017 630.828 561.854 633.609 557.55 635 552.104 635L539.149 635 539.149 626.409 551.939 626.409C554.359 626.409 556.229 625.762 557.55 624.467 558.87 623.173 559.53 621.424 559.53 619.221L559.53 616.496 559.657 609.431 557.137 613.646C554.772 616.151 551.609 617.404 547.648 617.404 543.027 617.404 539.356 615.849 536.633 612.737 533.91 609.625 532.548 605.398 532.548 600.056L532.548 591.217C532.548 585.93 533.91 581.717 536.633 578.578 539.356 575.439 543.027 573.87 547.648 573.87ZM507.107 573.87C511.563 573.87 515.125 575.357 517.792 578.33 520.46 581.304 521.794 585.297 521.794 590.308L521.794 620.13 511.48 620.13 511.48 591.548C511.48 588.739 510.765 586.577 509.335 585.063 507.905 583.548 505.924 582.791 503.394 582.791 500.808 582.791 498.787 583.562 497.329 585.104 495.872 586.646 495.143 588.849 495.143 591.713L495.143 620.13 484.828 620.13 484.828 574.696 494.895 574.696 494.895 583.37 495.092 583.37 495.555 580.871C496.133 579.425 496.986 578.165 498.113 577.091 500.368 574.943 503.366 573.87 507.107 573.87ZM451.823 573.87C457.599 573.87 462.083 575.219 465.273 577.917 468.463 580.616 470.059 584.416 470.059 589.317L470.059 620.13 459.992 620.13 459.992 611.456 459.736 611.456 458.507 615.794C457.407 617.418 455.839 618.685 453.804 619.593 451.768 620.502 449.375 620.956 446.625 620.956 442.004 620.956 438.36 619.649 435.692 617.033 433.024 614.417 431.69 610.988 431.69 606.748 431.69 603.774 432.378 601.213 433.753 599.065 435.128 596.917 437.095 595.251 439.653 594.067 442.211 592.883 445.222 592.291 448.688 592.291L459.745 592.291 459.745 589.069C459.745 586.866 459.071 585.173 457.723 583.989 456.375 582.805 454.381 582.213 451.741 582.213 449.321 582.213 447.382 582.681 445.924 583.617 444.466 584.554 443.682 585.875 443.572 587.583L433.671 587.583C433.891 583.452 435.61 580.134 438.828 577.628 442.046 575.122 446.378 573.87 451.823 573.87ZM950.944 559.826 962 559.826 961.34 584.609 951.686 584.609ZM931.47 559.826 942.527 559.826 941.867 584.609 932.213 584.609ZM876.352 559.826 888.976 559.826 905.727 608.565C905.562 606.803 905.383 604.724 905.19 602.328 904.998 599.932 904.846 597.482 904.736 594.976 904.626 592.47 904.571 590.281 904.571 588.409L904.571 559.826 913.978 559.826 913.978 620.13 901.353 620.13 884.768 571.391C884.878 572.988 885.016 574.916 885.181 577.174 885.346 579.432 885.483 581.745 885.594 584.113 885.703 586.481 885.758 588.656 885.758 590.639L885.758 620.13 876.352 620.13ZM728.929 559.826 739.243 559.826 739.243 574.696 738.996 583.37 739.192 583.37 739.656 580.871C740.233 579.425 741.086 578.165 742.214 577.091 744.469 574.943 747.467 573.87 751.207 573.87 755.663 573.87 759.225 575.357 761.893 578.33 764.561 581.304 765.895 585.297 765.895 590.308L765.895 620.13 755.581 620.13 755.581 591.548C755.581 588.739 754.866 586.577 753.435 585.063 752.005 583.548 750.025 582.791 747.494 582.791 744.909 582.791 742.887 583.562 741.43 585.104 739.972 586.646 739.243 588.849 739.243 591.713L739.243 620.13 728.929 620.13ZM655.273 559.826 666.329 559.826 665.669 584.609 656.015 584.609ZM635.799 559.826 646.856 559.826 646.196 584.609 636.542 584.609ZM381 559.826 406.249 559.826 406.249 605.178C406.249 606.885 406.73 608.249 407.693 609.267 408.655 610.286 409.962 610.795 411.612 610.795L424.897 610.795 424.897 620.13 410.869 620.13C407.899 620.13 405.3 619.525 403.072 618.313 400.844 617.101 399.098 615.381 397.833 613.15 396.567 610.919 395.935 608.345 395.935 605.426L395.935 569.161 381 569.161ZM847.693 559C851.598 559 854.967 559.73 857.8 561.189 860.633 562.649 862.847 564.714 864.443 567.385 866.038 570.056 866.835 573.209 866.835 576.844L856.439 576.844C856.439 573.98 855.682 571.804 854.17 570.317 852.657 568.83 850.498 568.087 847.693 568.087 844.887 568.087 842.714 568.83 841.174 570.317 839.634 571.804 838.864 573.98 838.864 576.844L838.864 603.113C838.864 605.922 839.634 608.083 841.174 609.598 842.714 611.112 844.887 611.87 847.693 611.87 850.498 611.87 852.657 611.112 854.17 609.598 855.682 608.083 856.439 605.922 856.439 603.113L866.835 603.113C866.835 606.693 866.038 609.832 864.443 612.53 862.847 615.229 860.633 617.308 857.8 618.767 854.967 620.227 851.598 620.956 847.693 620.956 843.842 620.956 840.473 620.227 837.584 618.767 834.697 617.308 832.469 615.243 830.901 612.572 829.334 609.901 828.55 606.748 828.55 603.113L828.55 576.844C828.55 573.154 829.334 569.987 830.901 567.344 832.469 564.7 834.697 562.649 837.584 561.189 840.473 559.73 843.842 559 847.693 559Z" fill-rule="evenodd"/><path d="M1219.29 1086.99C1220.99 1086.99 1222.45 1087.54 1223.66 1088.64 1224.93 1089.85 1225.56 1091.37 1225.56 1093.19 1225.56 1095.01 1224.93 1096.5 1223.66 1097.65 1222.45 1098.81 1220.99 1099.39 1219.29 1099.39 1217.58 1099.39 1216.13 1098.81 1214.92 1097.65 1213.71 1096.5 1213.1 1095.01 1213.1 1093.19 1213.1 1091.37 1213.73 1089.85 1215 1088.64 1216.15 1087.54 1217.58 1086.99 1219.29 1086.99ZM2039.5 1083.1C2037.25 1083.1 2035.3 1083.93 2033.65 1085.58 2032 1087.23 2031.17 1089.19 2031.17 1091.45 2031.17 1093.77 2032 1095.75 2033.65 1097.41 2035.3 1099.06 2037.25 1099.89 2039.5 1099.89 2041.87 1099.89 2043.85 1099.07 2045.44 1097.45 2047.04 1095.82 2047.84 1093.82 2047.84 1091.45 2047.84 1089.14 2047.02 1087.17 2045.4 1085.54 2043.78 1083.91 2041.81 1083.1 2039.5 1083.1ZM2039.5 1078.88C2043.02 1078.88 2046.01 1080.11 2048.45 1082.56 2050.9 1085.02 2052.12 1087.98 2052.12 1091.45 2052.12 1094.93 2050.9 1097.9 2048.45 1100.38 2046.01 1102.86 2043.02 1104.11 2039.5 1104.11 2036.1 1104.11 2033.15 1102.86 2030.68 1100.38 2028.2 1097.9 2026.97 1094.93 2026.97 1091.45 2026.97 1087.98 2028.2 1085.02 2030.68 1082.56 2033.15 1080.11 2036.1 1078.88 2039.5 1078.88ZM1882.04 1050.43C1886.5 1061.35 1892.49 1070.58 1900.03 1078.14 1907.23 1070.86 1912.89 1061.62 1917.02 1050.43ZM1717.08 1050.43C1721.53 1061.35 1727.52 1070.58 1735.06 1078.14 1742.26 1070.86 1747.93 1061.62 1752.05 1050.43ZM1552.11 1050.43C1556.56 1061.35 1562.56 1070.58 1570.09 1078.14 1577.29 1070.86 1582.96 1061.62 1587.08 1050.43ZM1387.14 1050.43C1391.6 1061.35 1397.59 1070.58 1405.12 1078.14 1412.33 1070.86 1417.99 1061.62 1422.12 1050.43ZM1219.29 1046.46C1220.99 1046.46 1222.45 1047.04 1223.66 1048.2 1224.93 1049.41 1225.56 1050.93 1225.56 1052.75 1225.56 1054.57 1224.93 1056.06 1223.66 1057.21 1222.45 1058.32 1220.99 1058.87 1219.29 1058.87 1217.58 1058.87 1216.15 1058.32 1215 1057.21 1213.73 1056.06 1213.1 1054.55 1213.1 1052.71 1213.1 1050.86 1213.71 1049.36 1214.92 1048.2 1216.13 1047.04 1217.58 1046.46 1219.29 1046.46ZM1862.99 1044.4 1936.9 1044.4 1936.9 1050.43 1923.95 1050.43C1919.33 1063.22 1912.89 1073.89 1904.64 1082.44 1914.16 1090.49 1925.26 1096.08 1937.97 1099.23 1936.59 1100.55 1935.19 1102.45 1933.76 1104.93 1920.4 1101.13 1909.13 1095.09 1899.94 1086.82 1891.03 1094.65 1879.6 1100.8 1865.63 1105.26 1864.58 1103.11 1863.32 1101.21 1861.83 1099.56 1875.36 1095.7 1886.58 1089.99 1895.49 1082.44 1887.19 1073.89 1880.59 1063.22 1875.69 1050.43L1862.99 1050.43ZM1698.02 1044.4 1771.93 1044.4 1771.93 1050.43 1758.98 1050.43C1754.36 1063.22 1747.93 1073.89 1739.68 1082.44 1749.19 1090.49 1760.3 1096.08 1773 1099.23 1771.63 1100.55 1770.22 1102.45 1768.79 1104.93 1755.43 1101.13 1744.16 1095.09 1734.98 1086.82 1726.07 1094.65 1714.63 1100.8 1700.66 1105.26 1699.62 1103.11 1698.35 1101.21 1696.87 1099.56 1710.4 1095.7 1721.61 1089.99 1730.52 1082.44 1722.22 1073.89 1715.62 1063.22 1710.73 1050.43L1698.02 1050.43ZM1533.06 1044.4 1606.96 1044.4 1606.96 1050.43 1594.01 1050.43C1589.39 1063.22 1582.96 1073.89 1574.71 1082.44 1584.22 1090.49 1595.33 1096.08 1608.03 1099.23 1606.66 1100.55 1605.26 1102.45 1603.83 1104.93 1590.46 1101.13 1579.19 1095.09 1570.01 1086.82 1561.1 1094.65 1549.66 1100.8 1535.7 1105.26 1534.65 1103.11 1533.39 1101.21 1531.9 1099.56 1545.43 1095.7 1556.65 1089.99 1565.55 1082.44 1557.25 1073.89 1550.65 1063.22 1545.76 1050.43L1533.06 1050.43ZM1368.09 1044.4 1441.99 1044.4 1441.99 1050.43 1429.04 1050.43C1424.43 1063.22 1417.99 1073.89 1409.74 1082.44 1419.26 1090.49 1430.36 1096.08 1443.07 1099.23 1441.69 1100.55 1440.29 1102.45 1438.86 1104.93 1425.5 1101.13 1414.22 1095.09 1405.04 1086.82 1396.13 1094.65 1384.7 1100.8 1370.73 1105.26 1369.68 1103.11 1368.42 1101.21 1366.93 1099.56 1380.46 1095.7 1391.68 1089.99 1400.59 1082.44 1392.28 1073.89 1385.69 1063.22 1380.79 1050.43L1368.09 1050.43ZM1979.04 1029.92 1985.4 1029.92 1985.4 1047.21 2018.06 1047.21 2018.06 1053.33 1992.57 1053.33C1995.6 1060.44 1999.53 1066.97 2004.37 1072.93 2009.37 1078.99 2014.68 1083.62 2020.29 1086.82 2018.14 1088.64 2016.57 1090.38 2015.58 1092.03 2009.59 1088.28 2004.01 1082.88 1998.84 1075.82 1993.78 1069.04 1989.68 1061.54 1986.55 1053.33L1985.4 1053.33 1985.4 1083.84 2004.53 1083.84 2004.53 1089.96 1985.4 1089.96 1985.4 1105.35 1979.04 1105.35 1979.04 1089.96 1959.91 1089.96 1959.91 1083.84 1979.04 1083.84 1979.04 1053.33 1977.72 1053.33C1974.54 1061.49 1970.41 1068.98 1965.35 1075.82 1960.24 1082.77 1954.74 1088.25 1948.86 1092.28 1947.59 1090.4 1946.13 1088.78 1944.48 1087.4 1949.82 1084.15 1954.93 1079.38 1959.83 1073.09 1964.55 1067.08 1968.46 1060.49 1971.54 1053.33L1946.63 1053.33 1946.63 1047.21 1979.04 1047.21ZM1814.08 1029.92 1820.43 1029.92 1820.43 1047.21 1853.09 1047.21 1853.09 1053.33 1827.6 1053.33C1830.63 1060.44 1834.56 1066.97 1839.4 1072.93 1844.4 1078.99 1849.71 1083.62 1855.32 1086.82 1853.17 1088.64 1851.61 1090.38 1850.62 1092.03 1844.62 1088.28 1839.04 1082.88 1833.87 1075.82 1828.81 1069.04 1824.72 1061.54 1821.58 1053.33L1820.43 1053.33 1820.43 1083.84 1839.56 1083.84 1839.56 1089.96 1820.43 1089.96 1820.43 1105.35 1814.08 1105.35 1814.08 1089.96 1794.94 1089.96 1794.94 1083.84 1814.08 1083.84 1814.08 1053.33 1812.76 1053.33C1809.57 1061.49 1805.44 1068.98 1800.38 1075.82 1795.27 1082.77 1789.77 1088.25 1783.89 1092.28 1782.62 1090.4 1781.17 1088.78 1779.52 1087.4 1784.85 1084.15 1789.96 1079.38 1794.86 1073.09 1799.59 1067.08 1803.49 1060.49 1806.57 1053.33L1781.66 1053.33 1781.66 1047.21 1814.08 1047.21ZM1649.11 1029.92 1655.46 1029.92 1655.46 1047.21 1688.12 1047.21 1688.12 1053.33 1662.64 1053.33C1665.66 1060.44 1669.59 1066.97 1674.43 1072.93 1679.44 1078.99 1684.74 1083.62 1690.35 1086.82 1688.21 1088.64 1686.64 1090.38 1685.65 1092.03 1679.66 1088.28 1674.08 1082.88 1668.91 1075.82 1663.85 1069.04 1659.75 1061.54 1656.62 1053.33L1655.46 1053.33 1655.46 1083.84 1674.6 1083.84 1674.6 1089.96 1655.46 1089.96 1655.46 1105.35 1649.11 1105.35 1649.11 1089.96 1629.97 1089.96 1629.97 1083.84 1649.11 1083.84 1649.11 1053.33 1647.79 1053.33C1644.6 1061.49 1640.48 1068.98 1635.42 1075.82 1630.3 1082.77 1624.81 1088.25 1618.92 1092.28 1617.66 1090.4 1616.2 1088.78 1614.55 1087.4 1619.88 1084.15 1625 1079.38 1629.89 1073.09 1634.62 1067.08 1638.52 1060.49 1641.6 1053.33L1616.69 1053.33 1616.69 1047.21 1649.11 1047.21ZM1484.14 1029.92 1490.49 1029.92 1490.49 1047.21 1523.16 1047.21 1523.16 1053.33 1497.67 1053.33C1500.69 1060.44 1504.63 1066.97 1509.47 1072.93 1514.47 1078.99 1519.78 1083.62 1525.39 1086.82 1523.24 1088.64 1521.67 1090.38 1520.68 1092.03 1514.69 1088.28 1509.11 1082.88 1503.94 1075.82 1498.88 1069.04 1494.78 1061.54 1491.65 1053.33L1490.49 1053.33 1490.49 1083.84 1509.63 1083.84 1509.63 1089.96 1490.49 1089.96 1490.49 1105.35 1484.14 1105.35 1484.14 1089.96 1465.01 1089.96 1465.01 1083.84 1484.14 1083.84 1484.14 1053.33 1482.82 1053.33C1479.63 1061.49 1475.51 1068.98 1470.45 1075.82 1465.34 1082.77 1459.84 1088.25 1453.95 1092.28 1452.69 1090.4 1451.23 1088.78 1449.58 1087.4 1454.92 1084.15 1460.03 1079.38 1464.92 1073.09 1469.65 1067.08 1473.56 1060.49 1476.64 1053.33L1451.73 1053.33 1451.73 1047.21 1484.14 1047.21ZM1071.73 1029.92 1078.08 1029.92 1078.08 1047.21 1110.74 1047.21 1110.74 1053.33 1085.25 1053.33C1088.28 1060.44 1092.21 1066.97 1097.05 1072.93 1102.05 1078.99 1107.36 1083.62 1112.97 1086.82 1110.82 1088.64 1109.26 1090.38 1108.27 1092.03 1102.27 1088.28 1096.69 1082.88 1091.52 1075.82 1086.46 1069.04 1082.37 1061.54 1079.23 1053.33L1078.08 1053.33 1078.08 1083.84 1097.21 1083.84 1097.21 1089.96 1078.08 1089.96 1078.08 1105.35 1071.73 1105.35 1071.73 1089.96 1052.59 1089.96 1052.59 1083.84 1071.73 1083.84 1071.73 1053.33 1070.41 1053.33C1067.22 1061.49 1063.09 1068.98 1058.03 1075.82 1052.92 1082.77 1047.42 1088.25 1041.54 1092.28 1040.27 1090.4 1038.81 1088.78 1037.17 1087.4 1042.5 1084.15 1047.61 1079.38 1052.51 1073.09 1057.24 1067.08 1061.14 1060.49 1064.22 1053.33L1039.31 1053.33 1039.31 1047.21 1071.73 1047.21ZM1899.78 1029.43C1902.91 1034.33 1905.06 1038.55 1906.21 1042.08L1899.53 1044.23C1898.43 1040.43 1896.4 1036.1 1893.43 1031.25ZM1734.81 1029.43C1737.94 1034.33 1740.09 1038.55 1741.24 1042.08L1734.56 1044.23C1733.46 1040.43 1731.43 1036.1 1728.46 1031.25ZM1569.84 1029.43C1572.98 1034.33 1575.12 1038.55 1576.28 1042.08L1569.6 1044.23C1568.5 1040.43 1566.46 1036.1 1563.49 1031.25ZM1404.88 1029.43C1408.01 1034.33 1410.16 1038.55 1411.31 1042.08L1404.63 1044.23C1403.53 1040.43 1401.49 1036.1 1398.53 1031.25ZM2130.48 1029.34C2132.3 1029.34 2133.84 1030.09 2135.1 1031.58 2136.37 1033.06 2137 1034.94 2137 1037.2 2137 1040.67 2135.96 1043.87 2133.87 1046.79 2131.94 1049.33 2129.55 1051.29 2126.69 1052.67L2124.96 1049.52C2127.16 1048.42 2128.94 1046.9 2130.32 1044.97 2131.64 1043.1 2132.3 1041.22 2132.3 1039.35 2131.64 1039.79 2130.87 1040.01 2129.99 1040.01 2128.5 1040.01 2127.28 1039.5 2126.32 1038.48 2125.36 1037.46 2124.88 1036.21 2124.88 1034.72 2124.88 1033.29 2125.34 1032.04 2126.28 1031 2127.32 1029.89 2128.72 1029.34 2130.48 1029.34ZM2114.65 1029.34C2116.46 1029.34 2118 1030.09 2119.27 1031.58 2120.53 1033.06 2121.16 1034.94 2121.16 1037.2 2121.16 1040.67 2120.12 1043.87 2118.03 1046.79 2116.1 1049.33 2113.71 1051.29 2110.85 1052.67L2109.12 1049.52C2111.32 1048.42 2113.11 1046.9 2114.48 1044.97 2115.8 1043.1 2116.46 1041.22 2116.46 1039.35 2115.8 1039.79 2115.06 1040.01 2114.23 1040.01 2112.69 1040.01 2111.44 1039.5 2110.48 1038.48 2109.52 1037.46 2109.04 1036.21 2109.04 1034.72 2109.04 1033.29 2109.51 1032.04 2110.44 1031 2111.49 1029.89 2112.89 1029.34 2114.65 1029.34ZM1358.77 1029.01 1360.5 1032.16C1358.3 1033.26 1356.51 1034.77 1355.14 1036.7 1353.82 1038.58 1353.16 1040.45 1353.16 1042.33 1353.71 1041.89 1354.45 1041.67 1355.39 1041.67 1356.93 1041.67 1358.18 1042.18 1359.14 1043.2 1360.1 1044.22 1360.58 1045.47 1360.58 1046.96 1360.58 1048.34 1360.12 1049.55 1359.18 1050.6 1358.14 1051.76 1356.73 1052.33 1354.97 1052.33 1353.16 1052.33 1351.62 1051.59 1350.36 1050.1 1349.09 1048.61 1348.46 1046.74 1348.46 1044.48 1348.46 1041 1349.53 1037.81 1351.67 1034.88 1353.54 1032.29 1355.91 1030.34 1358.77 1029.01ZM1342.93 1029.01 1344.66 1032.16C1342.46 1033.26 1340.68 1034.77 1339.3 1036.7 1337.98 1038.58 1337.32 1040.45 1337.32 1042.33 1337.87 1041.89 1338.64 1041.67 1339.63 1041.67 1341.12 1041.67 1342.34 1042.18 1343.3 1043.2 1344.26 1044.22 1344.75 1045.47 1344.75 1046.96 1344.75 1048.34 1344.28 1049.55 1343.34 1050.6 1342.3 1051.76 1340.9 1052.33 1339.14 1052.33 1337.32 1052.33 1335.8 1051.59 1334.56 1050.1 1333.32 1048.61 1332.7 1046.74 1332.7 1044.48 1332.7 1041 1333.75 1037.81 1335.84 1034.88 1337.71 1032.24 1340.07 1030.28 1342.93 1029.01ZM1124.93 1028.27C1135.87 1039.41 1141.34 1052.53 1141.34 1067.63 1141.34 1082.74 1135.87 1095.86 1124.93 1107L1119.98 1104.44C1130.21 1093.85 1135.32 1081.58 1135.32 1067.63 1135.32 1053.69 1130.21 1041.42 1119.98 1030.83ZM1882.04 940.164C1886.5 951.081 1892.49 960.316 1900.03 967.869 1907.23 960.591 1912.89 951.356 1917.02 940.164ZM1717.08 940.164C1721.53 951.081 1727.52 960.316 1735.06 967.869 1742.26 960.591 1747.93 951.356 1752.05 940.164ZM1552.11 940.164C1556.56 951.081 1562.56 960.316 1570.09 967.869 1577.29 960.591 1582.96 951.356 1587.08 940.164ZM1387.14 940.164C1391.6 951.081 1397.59 960.316 1405.12 967.869 1412.33 960.591 1417.99 951.356 1422.12 940.164ZM1222.18 940.164C1226.63 951.081 1232.62 960.316 1240.16 967.869 1247.36 960.591 1253.02 951.356 1257.15 940.164ZM1057.21 940.164C1061.66 951.081 1067.66 960.316 1075.19 967.869 1082.39 960.591 1088.06 951.356 1092.18 940.164ZM1862.99 934.127 1936.9 934.127 1936.9 940.164 1923.95 940.164C1919.33 952.955 1912.89 963.624 1904.64 972.169 1914.16 980.219 1925.26 985.815 1937.97 988.958 1936.59 990.281 1935.19 992.183 1933.76 994.664 1920.4 990.86 1909.13 984.822 1899.94 976.552 1891.03 984.381 1879.6 990.529 1865.63 994.995 1864.58 992.845 1863.32 990.943 1861.83 989.289 1875.36 985.429 1886.58 979.723 1895.49 972.169 1887.19 963.624 1880.59 952.955 1875.69 940.164L1862.99 940.164ZM1698.02 934.127 1771.93 934.127 1771.93 940.164 1758.98 940.164C1754.36 952.955 1747.93 963.624 1739.68 972.169 1749.19 980.219 1760.3 985.815 1773 988.958 1771.63 990.281 1770.22 992.183 1768.79 994.664 1755.43 990.86 1744.16 984.822 1734.98 976.552 1726.07 984.381 1714.63 990.529 1700.66 994.995 1699.62 992.845 1698.35 990.943 1696.87 989.289 1710.4 985.429 1721.61 979.723 1730.52 972.169 1722.22 963.624 1715.62 952.955 1710.73 940.164L1698.02 940.164ZM1533.06 934.127 1606.96 934.127 1606.96 940.164 1594.01 940.164C1589.39 952.955 1582.96 963.624 1574.71 972.169 1584.22 980.219 1595.33 985.815 1608.03 988.958 1606.66 990.281 1605.26 992.183 1603.83 994.664 1590.46 990.86 1579.19 984.822 1570.01 976.552 1561.1 984.381 1549.66 990.529 1535.7 994.995 1534.65 992.845 1533.39 990.943 1531.9 989.289 1545.43 985.429 1556.65 979.723 1565.55 972.169 1557.25 963.624 1550.65 952.955 1545.76 940.164L1533.06 940.164ZM1368.09 934.127 1441.99 934.127 1441.99 940.164 1429.04 940.164C1424.43 952.955 1417.99 963.624 1409.74 972.169 1419.26 980.219 1430.36 985.815 1443.07 988.958 1441.69 990.281 1440.29 992.183 1438.86 994.664 1425.5 990.86 1414.22 984.822 1405.04 976.552 1396.13 984.381 1384.7 990.529 1370.73 994.995 1369.68 992.845 1368.42 990.943 1366.93 989.289 1380.46 985.429 1391.68 979.723 1400.59 972.169 1392.28 963.624 1385.69 952.955 1380.79 940.164L1368.09 940.164ZM1203.12 934.127 1277.03 934.127 1277.03 940.164 1264.08 940.164C1259.46 952.955 1253.02 963.624 1244.78 972.169 1254.29 980.219 1265.4 985.815 1278.1 988.958 1276.72 990.281 1275.32 992.183 1273.89 994.664 1260.53 990.86 1249.26 984.822 1240.07 976.552 1231.17 984.381 1219.73 990.529 1205.76 994.995 1204.72 992.845 1203.45 990.943 1201.97 989.289 1215.49 985.429 1226.71 979.723 1235.62 972.169 1227.32 963.624 1220.72 952.955 1215.82 940.164L1203.12 940.164ZM1038.16 934.127 1112.06 934.127 1112.06 940.164 1099.11 940.164C1094.49 952.955 1088.06 963.624 1079.81 972.169 1089.32 980.219 1100.43 985.815 1113.13 988.958 1111.76 990.281 1110.36 992.183 1108.93 994.664 1095.56 990.86 1084.29 984.822 1075.11 976.552 1066.2 984.381 1054.76 990.529 1040.79 994.995 1039.75 992.845 1038.48 990.943 1037 989.289 1050.53 985.429 1061.75 979.723 1070.65 972.169 1062.35 963.624 1055.75 952.955 1050.86 940.164L1038.16 940.164ZM1814.08 919.654 1820.43 919.654 1820.43 936.939 1853.09 936.939 1853.09 943.058 1827.6 943.058C1830.63 950.171 1834.56 956.704 1839.4 962.659 1844.4 968.724 1849.71 973.355 1855.32 976.552 1853.17 978.372 1851.61 980.109 1850.62 981.763 1844.62 978.014 1839.04 972.61 1833.87 965.553 1828.81 958.772 1824.72 951.273 1821.58 943.058L1820.43 943.058 1820.43 973.575 1839.56 973.575 1839.56 979.695 1820.43 979.695 1820.43 995.078 1814.08 995.078 1814.08 979.695 1794.94 979.695 1794.94 973.575 1814.08 973.575 1814.08 943.058 1812.76 943.058C1809.57 951.219 1805.44 958.717 1800.38 965.553 1795.27 972.5 1789.77 977.986 1783.89 982.011 1782.62 980.136 1781.17 978.51 1779.52 977.132 1784.85 973.878 1789.96 969.109 1794.86 962.824 1799.59 956.814 1803.49 950.226 1806.57 943.058L1781.66 943.058 1781.66 936.939 1814.08 936.939ZM1484.14 919.654 1490.49 919.654 1490.49 936.939 1523.16 936.939 1523.16 943.058 1497.67 943.058C1500.69 950.171 1504.63 956.704 1509.47 962.659 1514.47 968.724 1519.78 973.355 1525.39 976.552 1523.24 978.372 1521.67 980.109 1520.68 981.763 1514.69 978.014 1509.11 972.61 1503.94 965.553 1498.88 958.772 1494.78 951.273 1491.65 943.058L1490.49 943.058 1490.49 973.575 1509.63 973.575 1509.63 979.695 1490.49 979.695 1490.49 995.078 1484.14 995.078 1484.14 979.695 1465.01 979.695 1465.01 973.575 1484.14 973.575 1484.14 943.058 1482.82 943.058C1479.63 951.219 1475.51 958.717 1470.45 965.553 1465.34 972.5 1459.84 977.986 1453.95 982.011 1452.69 980.136 1451.23 978.51 1449.58 977.132 1454.92 973.878 1460.03 969.109 1464.92 962.824 1469.65 956.814 1473.56 950.226 1476.64 943.058L1451.73 943.058 1451.73 936.939 1484.14 936.939ZM1319.18 919.654 1325.53 919.654 1325.53 936.939 1358.19 936.939 1358.19 943.058 1332.7 943.058C1335.73 950.171 1339.66 956.704 1344.5 962.659 1349.5 968.724 1354.81 973.355 1360.42 976.552 1358.27 978.372 1356.71 980.109 1355.72 981.763 1349.72 978.014 1344.14 972.61 1338.97 965.553 1333.91 958.772 1329.82 951.273 1326.68 943.058L1325.53 943.058 1325.53 973.575 1344.66 973.575 1344.66 979.695 1325.53 979.695 1325.53 995.078 1319.18 995.078 1319.18 979.695 1300.04 979.695 1300.04 973.575 1319.18 973.575 1319.18 943.058 1317.86 943.058C1314.67 951.219 1310.54 958.717 1305.48 965.553 1300.37 972.5 1294.87 977.986 1288.99 982.011 1287.72 980.136 1286.27 978.51 1284.62 977.132 1289.95 973.878 1295.06 969.109 1299.96 962.824 1304.69 956.814 1308.59 950.226 1311.67 943.058L1286.76 943.058 1286.76 936.939 1319.18 936.939ZM1154.21 919.654 1160.56 919.654 1160.56 936.939 1193.22 936.939 1193.22 943.058 1167.74 943.058C1170.76 950.171 1174.69 956.704 1179.53 962.659 1184.54 968.724 1189.84 973.355 1195.45 976.552 1193.31 978.372 1191.74 980.109 1190.75 981.763 1184.76 978.014 1179.17 972.61 1174.01 965.553 1168.95 958.772 1164.85 951.273 1161.72 943.058L1160.56 943.058 1160.56 973.575 1179.7 973.575 1179.7 979.695 1160.56 979.695 1160.56 995.078 1154.21 995.078 1154.21 979.695 1135.07 979.695 1135.07 973.575 1154.21 973.575 1154.21 943.058 1152.89 943.058C1149.7 951.219 1145.58 958.717 1140.52 965.553 1135.4 972.5 1129.9 977.986 1124.02 982.011 1122.76 980.136 1121.3 978.51 1119.65 977.132 1124.98 973.878 1130.1 969.109 1134.99 962.824 1139.72 956.814 1143.62 950.226 1146.7 943.058L1121.79 943.058 1121.79 936.939 1154.21 936.939ZM1899.78 919.158C1902.91 924.065 1905.06 928.282 1906.21 931.811L1899.53 933.961C1898.43 930.157 1896.4 925.829 1893.43 920.977ZM1734.81 919.158C1737.94 924.065 1740.09 928.282 1741.24 931.811L1734.56 933.961C1733.46 930.157 1731.43 925.829 1728.46 920.977ZM1569.84 919.158C1572.98 924.065 1575.12 928.282 1576.28 931.811L1569.6 933.961C1568.5 930.157 1566.46 925.829 1563.49 920.977ZM1404.88 919.158C1408.01 924.065 1410.16 928.282 1411.31 931.811L1404.63 933.961C1403.53 930.157 1401.49 925.829 1398.53 920.977ZM1239.91 919.158C1243.04 924.065 1245.19 928.282 1246.34 931.811L1239.66 933.961C1238.56 930.157 1236.53 925.829 1233.56 920.977ZM1074.94 919.158C1078.08 924.065 1080.22 928.282 1081.38 931.811L1074.69 933.961C1073.6 930.157 1071.56 925.829 1068.59 920.977ZM1684.83 918 1689.77 920.564C1679.55 931.15 1674.43 943.417 1674.43 957.366 1674.43 971.315 1679.55 983.582 1689.77 994.168L1684.83 996.732C1673.88 985.594 1668.41 972.473 1668.41 957.366 1668.41 942.259 1673.88 929.137 1684.83 918Z" fill-rule="evenodd"/><path d="M449.183 956.983C446.928 956.983 445.14 957.602 443.82 958.841 442.499 960.081 441.84 961.719 441.84 963.757 441.84 965.794 442.541 967.433 443.944 968.672 445.346 969.911 447.34 970.531 449.926 970.531 452.951 970.531 455.344 969.787 457.104 968.3 458.864 966.813 459.745 964.831 459.745 962.352L459.745 956.983ZM584.944 956.239 620.837 956.322 620.92 965.739 585.027 965.739ZM785.698 946.078 812.102 946.078 812.102 955.661 785.698 955.661ZM551.114 940.792C548.473 940.792 546.438 941.549 545.008 943.063 543.578 944.578 542.863 946.684 542.863 949.383L542.863 957.974C542.863 960.672 543.578 962.779 545.008 964.294 546.438 965.808 548.473 966.565 551.114 966.565 553.754 966.565 555.803 965.78 557.261 964.211 558.719 962.642 559.448 960.452 559.448 957.643L559.448 949.713C559.448 946.904 558.719 944.715 557.261 943.146 555.803 941.576 553.754 940.792 551.114 940.792ZM699.28 939.8C696.309 939.8 694.04 940.668 692.472 942.402 690.904 944.137 690.12 946.574 690.12 949.713L690.12 951.283 708.273 951.204 708.273 949.631C708.273 946.491 707.517 944.068 706.004 942.361 704.492 940.654 702.25 939.8 699.28 939.8ZM584.944 936 620.837 936 620.92 945.5 585.027 945.418ZM751.207 931.87C755.663 931.87 759.225 933.357 761.893 936.331 764.561 939.304 765.895 943.297 765.895 948.309L765.895 978.131 755.581 978.131 755.581 949.548C755.581 946.739 754.866 944.578 753.435 943.063 752.005 941.549 750.025 940.792 747.494 940.792 744.909 940.792 742.887 941.563 741.43 943.105 739.972 944.647 739.243 946.849 739.243 949.713L739.243 978.131 728.929 978.131 728.929 932.696 738.996 932.696 738.996 941.37 739.192 941.37 739.656 938.871C740.233 937.425 741.086 936.165 742.214 935.092 744.469 932.944 747.467 931.87 751.207 931.87ZM699.28 931.87C703.075 931.87 706.389 932.613 709.222 934.1 712.055 935.587 714.256 937.666 715.823 940.337 717.391 943.008 718.175 946.134 718.175 949.713L718.175 957.974 690.12 957.974 690.12 961.113C690.12 964.197 690.918 966.524 692.513 968.094 694.109 969.663 696.364 970.448 699.28 970.448 701.425 970.448 703.254 970.076 704.767 969.333 706.279 968.589 707.173 967.502 707.448 966.07L717.68 966.07C716.965 969.98 714.93 973.105 711.574 975.446 708.218 977.786 704.12 978.957 699.28 978.957 695.429 978.957 692.073 978.213 689.213 976.726 686.353 975.239 684.138 973.133 682.57 970.407 681.003 967.68 680.219 964.473 680.219 960.783L680.219 950.044C680.219 946.354 681.003 943.146 682.57 940.42 684.138 937.693 686.353 935.587 689.213 934.1 692.073 932.613 695.429 931.87 699.28 931.87ZM547.648 931.87C551.609 931.87 554.772 933.136 557.137 935.67L559.695 939.978 559.695 932.696 569.762 932.696 569.762 977.47C569.762 982.261 568.18 986.047 565.017 988.828 561.854 991.61 557.55 993 552.104 993L539.149 993 539.149 984.409 551.939 984.409C554.359 984.409 556.229 983.762 557.55 982.468 558.87 981.173 559.53 979.425 559.53 977.222L559.53 974.496 559.657 967.431 557.137 971.646C554.772 974.151 551.609 975.404 547.648 975.404 543.027 975.404 539.356 973.849 536.633 970.737 533.91 967.626 532.548 963.399 532.548 958.057L532.548 949.218C532.548 943.931 533.91 939.718 536.633 936.578 539.356 933.439 543.027 931.87 547.648 931.87ZM507.107 931.87C511.563 931.87 515.125 933.357 517.792 936.331 520.46 939.304 521.794 943.297 521.794 948.309L521.794 978.131 511.48 978.131 511.48 949.548C511.48 946.739 510.765 944.578 509.335 943.063 507.905 941.549 505.924 940.792 503.394 940.792 500.808 940.792 498.787 941.563 497.329 943.105 495.872 944.647 495.143 946.849 495.143 949.713L495.143 978.131 484.828 978.131 484.828 932.696 494.895 932.696 494.895 941.37 495.092 941.37 495.555 938.871C496.133 937.425 496.986 936.165 498.113 935.092 500.368 932.944 503.366 931.87 507.107 931.87ZM451.823 931.87C457.599 931.87 462.083 933.219 465.273 935.918 468.463 938.616 470.059 942.416 470.059 947.317L470.059 978.131 459.992 978.131 459.992 969.457 459.736 969.457 458.507 973.794C457.407 975.418 455.839 976.685 453.804 977.594 451.768 978.502 449.375 978.957 446.625 978.957 442.004 978.957 438.36 977.649 435.692 975.033 433.024 972.417 431.69 968.989 431.69 964.748 431.69 961.774 432.378 959.213 433.753 957.065 435.128 954.918 437.095 953.251 439.653 952.068 442.211 950.883 445.222 950.292 448.688 950.292L459.745 950.292 459.745 947.07C459.745 944.867 459.071 943.173 457.723 941.989 456.375 940.805 454.381 940.213 451.741 940.213 449.321 940.213 447.382 940.681 445.924 941.618 444.466 942.554 443.682 943.875 443.572 945.583L433.671 945.583C433.891 941.452 435.61 938.134 438.828 935.628 442.046 933.123 446.378 931.87 451.823 931.87ZM950.944 917.826 962 917.826 961.34 942.609 951.686 942.609ZM931.47 917.826 942.527 917.826 941.867 942.609 932.213 942.609ZM828.219 917.826 838.616 917.826 838.616 960.865C838.616 963.729 839.331 965.96 840.762 967.557 842.192 969.154 844.282 969.952 847.032 969.952 849.728 969.952 851.804 969.154 853.262 967.557 854.72 965.96 855.449 963.729 855.449 960.865L855.449 917.826 865.845 917.826 865.845 960.948C865.845 966.51 864.195 970.902 860.895 974.124 857.594 977.346 852.973 978.957 847.032 978.957 841.146 978.957 836.54 977.346 833.212 974.124 829.884 970.902 828.219 966.51 828.219 960.948ZM655.273 917.826 666.329 917.826 665.669 942.609 656.015 942.609ZM635.799 917.826 646.856 917.826 646.196 942.609 636.542 942.609ZM381 917.826 406.249 917.826 406.249 963.179C406.249 964.886 406.73 966.249 407.693 967.267 408.655 968.286 409.962 968.796 411.612 968.796L424.897 968.796 424.897 978.131 410.869 978.131C407.899 978.131 405.3 977.525 403.072 976.313 400.844 975.102 399.098 973.381 397.833 971.15 396.567 968.92 395.935 966.345 395.935 963.426L395.935 927.161 381 927.161ZM894.835 917C898.63 917 901.931 917.689 904.736 919.065 907.542 920.442 909.728 922.383 911.296 924.889 912.864 927.395 913.648 930.328 913.648 933.687L903.581 933.687C903.581 931.319 902.784 929.433 901.188 928.028 899.593 926.624 897.475 925.922 894.835 925.922 892.249 925.922 890.2 926.624 888.688 928.028 887.175 929.433 886.419 931.264 886.419 933.522 886.419 935.394 886.955 936.936 888.027 938.148 889.1 939.36 890.599 940.241 892.524 940.792L900.858 942.857C905.314 943.958 908.821 946.161 911.379 949.465 913.937 952.77 915.215 956.708 915.215 961.279 915.215 964.858 914.404 967.97 912.781 970.613 911.159 973.257 908.862 975.308 905.891 976.767 902.921 978.227 899.428 978.957 895.412 978.957 891.342 978.957 887.78 978.241 884.727 976.809 881.674 975.377 879.309 973.312 877.631 970.613 875.953 967.915 875.114 964.748 875.114 961.113L885.263 961.113C885.263 963.812 886.185 965.96 888.027 967.557 889.87 969.154 892.332 969.952 895.412 969.952 898.383 969.952 900.735 969.154 902.467 967.557 904.2 965.96 905.066 963.867 905.066 961.279 905.066 959.296 904.516 957.534 903.416 955.991 902.316 954.449 900.693 953.431 898.548 952.935L890.462 950.87C886.116 949.768 882.678 947.703 880.148 944.674 877.617 941.645 876.352 938.038 876.352 933.852 876.352 930.438 877.108 927.464 878.621 924.931 880.134 922.397 882.279 920.442 885.057 919.065 887.835 917.689 891.094 917 894.835 917Z" fill-rule="evenodd"/></g></svg>