<?xml version="1.0"?>
<svg xmlns="http://www.w3.org/2000/svg" xmlns:xlink="http://www.w3.org/1999/xlink" width="278.872711" height="229.198013">
	<defs>
		<marker id="CustomMarker-01" markerUnits="strokeWidth" markerWidth="15.000001" markerHeight="9" viewBox="-15 -4.5 15 9" orient="auto-start-reverse">
			<path d="M 0 -0 L -10 -3, -8 -0.5, -8 0.5, -10 3 Z" fill="#000000" stroke="#000000" stroke-linejoin="round" />
		</marker>
		<marker id="CustomMarker-02" markerUnits="strokeWidth" markerWidth="15.000001" markerHeight="9" viewBox="-15 -4.5 15 9" orient="auto-start-reverse">
			<path d="M 0 -0 L -10 -3, -8 -0.5, -8 0.5, -10 3 Z" fill="#000000" stroke="#000000" stroke-linejoin="round" />
		</marker>
	</defs>
	<path d="M -206.411 80.1271 L -160.836 80.1271, -46.8966 -107.113, 105.022 -6.84644, 199.972 -6.84644" fill="none" stroke="#0068D0" stroke-width="3" stroke-linecap="round" stroke-linejoin="round" transform="matrix(0.5 0 -0 0.5 139.436 115.618)" />
	<path d="M -267.873 156.087 L 267.873 156.087" fill="none" stroke="#000000" stroke-width="2.66666675" stroke-linecap="round" stroke-linejoin="round" marker-end="url(#CustomMarker-01)" transform="matrix(0.5 0 -0 0.5 139.436 115.618)" />
	<path d="M -160.836 206.087 L -160.836 -206.087" fill="none" stroke="#000000" stroke-width="2.66666675" stroke-linecap="round" stroke-linejoin="round" marker-end="url(#CustomMarker-02)" transform="matrix(0.5 0 -0 0.5 139.436 115.618)" />
	<g transform="matrix(1 0 -0 1 68.8901 8.99998)">
		<svg width="98.9678192" height="62.9142723">
			<defs />
			<path d="M 9.41539 14.0854 C 9.34669 14.3671, 9.26482 14.6785, 9.17036 15.0203, 9.0759 15.3627, 8.94994 15.6798, 8.79308 15.973, 8.63621 16.2661, 8.43812 16.5197, 8.19881 16.7332, 7.9595 16.9468, 7.66065 17.0533, 7.30226 17.0533, 6.86257 17.0533, 6.50704 16.9405, 6.23682 16.7149, 5.96659 16.4894, 5.79942 16.2569, 5.73645 16.0182, 5.5229 16.2815, 5.23664 16.5197, 4.87825 16.7332, 4.51986 16.9468, 4.10479 17.0533, 3.63305 17.0533, 3.20538 17.0533, 2.82352 16.9743, 2.48688 16.8151, 2.15024 16.6571, 1.8846 16.4126, 1.68995 16.0823, 1.50102 15.7285, 1.40999 15.338, 1.41629 14.9098 L 1.41629 14.8365 C 1.42888 14.3911, 1.48556 13.9486, 1.58575 13.5083, 1.68651 13.0875, 1.83307 12.6238, 2.02487 12.1165, 2.21666 11.6099, 2.40043 11.1181, 2.57619 10.6412, 2.76512 10.1351, 2.85958 9.71943, 2.85958 9.39539, 2.85958 9.12116, 2.74337 8.98375, 2.51035 8.98318, 2.29681 8.98375, 2.1033 9.04501, 1.9304 9.16696, 1.7575 9.28947, 1.60064 9.45894, 1.45865 9.67535, 1.31724 9.89233, 1.19015 10.1488, 1.07679 10.4448, 0.963432 10.7414, 0.868968 11.0568, 0.793397 11.3923, 0.724696 11.5578, 0.608476 11.6431, 0.444739 11.6488 L 0.227757 11.6488 C 0.0766148 11.6494, 0.0010435 11.5732, 0.0010435 11.4198 L 0.0010435 11.3557 C 0.08921 11.0202, 0.206002 10.6772, 0.350274 10.3257, 0.495119 9.97477, 0.67775 9.65588, 0.897594 9.36848, 1.11744 9.08165, 1.36934 8.84349, 1.65216 8.65399, 1.93498 8.46506, 2.25902 8.37002, 2.62371 8.36945, 2.93859 8.37002, 3.2071 8.43758, 3.43038 8.57155, 3.65366 8.70609, 3.82312 8.88471, 3.93934 9.10742, 4.05613 9.33069, 4.12025 9.58203, 4.13285 9.86256 L 4.13285 9.92668 C 4.13285 10.19, 4.0796 10.4614, 3.97254 10.7419, 3.79049 11.2188, 3.60957 11.706, 3.43038 12.2035, 3.25118 12.7016, 3.11149 13.1488, 3.01073 13.5455, 2.90997 13.9428, 2.84069 14.3361, 2.80291 14.7266, 2.77772 14.8308, 2.76226 14.9442, 2.75539 15.0655, 2.75539 15.3043, 2.79661 15.5396, 2.87848 15.7709, 2.93516 15.9792, 3.03878 16.1441, 3.18992 16.2661, 3.34107 16.3886, 3.52026 16.4493, 3.72751 16.4487, 4.14258 16.4493, 4.50441 16.3245, 4.81242 16.0737, 5.12043 15.8235, 5.39065 15.4903, 5.62309 15.0747, 5.63568 15.0266, 5.64542 14.9699, 5.65171 14.9058, 5.65801 14.8417, 5.66717 14.7758, 5.67977 14.7083 L 7.09501 9.24883 C 7.15169 9.02326, 7.26619 8.85723, 7.43909 8.75017, 7.61199 8.64368, 7.7866 8.58987, 7.96236 8.58929, 8.14499 8.58987, 8.29614 8.64483, 8.41522 8.75418, 8.49766 8.83433, 8.53831 8.94081, 8.53831 9.07478, 8.53831 9.14234, 8.53201 9.21276, 8.51942 9.28547 L 7.10417 14.7449 C 7.00341 15.1239, 6.95303 15.46, 6.95303 15.7525, 6.95303 15.8327, 6.95933 15.918, 6.97192 16.009, 7.00398 16.3027, 7.15169 16.4493, 7.41562 16.4487, 7.68012 16.4493, 7.90798 16.2237, 8.09977 15.7714, 8.29156 15.3197, 8.47877 14.7392, 8.66083 14.0304, 8.69861 13.8724, 8.80567 13.7928, 8.98143 13.7923 L 9.19841 13.7923 C 9.26769 13.7928, 9.33696 13.814, 9.40566 13.8564, 9.43085 13.9119, 9.44345 13.9577, 9.44345 13.9938, 9.44345 14.019, 9.43429 14.0493, 9.41539 14.0854 Z" stroke="none" fill="#000000" />
			<path d="M 11.0753 21.2028 C 11.0318 21.3253, 10.9499 21.4135, 10.8302 21.4685, 10.7547 21.4994, 10.6854 21.5143, 10.6224 21.5143, 10.5789 21.5143, 10.5251 21.5085, 10.4621 21.496, 10.236 21.4169, 10.1226 21.2795, 10.1226 21.0837, 10.1226 21.0231, 10.1386 20.9555, 10.1696 20.8822 L 16.8593 2.88251 C 16.9034 2.76114, 16.9881 2.66611, 17.1141 2.59855, 17.1834 2.5808, 17.2464 2.57164, 17.3025 2.57107, 17.3471 2.57164, 17.4038 2.57794, 17.4725 2.58939, 17.6992 2.66954, 17.8091 2.80694, 17.8028 3.0016, 17.8028 3.06343, 17.7874 3.13041, 17.7553 3.20312 Z" stroke="none" fill="#000000" />
			<path d="M 31.7346 4.57714 C 31.4454 4.57772, 31.1907 4.59947, 30.9708 4.64184, 30.751 4.68478, 30.546 4.75806, 30.3571 4.86111, 30.0428 5.05118, 29.8041 5.33801, 29.6403 5.72216 L 25.2726 16.98 C 25.1913 17.1575, 25.0528 17.2428, 24.8576 17.2365 L 24.707 17.2365 C 24.5123 17.2365, 24.3738 17.1512, 24.2919 16.98 L 19.717 5.19087 C 19.6666 5.07523, 19.6099 4.9716, 19.547 4.88, 19.484 4.7884, 19.393 4.72142, 19.2733 4.67791, 19.129 4.62352, 18.9264 4.59317, 18.6653 4.58688, 18.4042 4.58115, 18.126 4.57772, 17.83 4.57714 L 17.83 3.81685 C 18.6418 3.86036, 19.4182 3.88154, 20.1601 3.88097, 20.2735 3.88154, 20.3966 3.87525, 20.5282 3.86265, 21.3899 3.86322, 22.2922 3.8512, 23.2356 3.82601 L 23.2356 4.57714 C 22.9528 4.57772, 22.7009 4.58401, 22.4811 4.59604, 22.2612 4.60863, 22.0626 4.65386, 21.8862 4.73287, 21.8049 4.77638, 21.742 4.8342, 21.6979 4.90691, 21.6664 4.95615, 21.6504 5.00195, 21.6504 5.04431, 21.6504 5.0695, 21.6538 5.09698, 21.6601 5.12675 L 25.3579 14.5984, 28.848 5.64888 C 28.8794 5.57617, 28.8949 5.49373, 28.8949 5.40156, 28.8949 5.22522, 28.8102 5.06034, 28.6407 4.90691, 28.4964 4.77924, 28.3344 4.69222, 28.1547 4.64642, 27.9755 4.60062, 27.7476 4.57772, 27.4705 4.57714 L 27.4705 3.82601 C 28.2319 3.8512, 28.9487 3.86322, 29.6214 3.86265, 29.7096 3.87525, 29.8041 3.88154, 29.9042 3.88097, 30.483 3.88154, 31.0933 3.86036, 31.7346 3.81685 L 31.7346 4.57714 Z" stroke="none" fill="#000000" />
			<rect />
		</svg>
	</g>
	<g transform="matrix(1 0 -0 1 246.981 164.862)">
		<svg width="66.0351563" height="62.9142723">
			<defs />
			<path d="M 5.58416 9.06562 C 5.51546 9.2494, 5.39237 9.341, 5.21603 9.34043 L 3.46129 9.34043, 2.06494 14.7541 C 1.95216 15.1457, 1.89548 15.4875, 1.89548 15.78, 1.89548 15.8602, 1.90178 15.9363, 1.91437 16.009, 1.94586 16.3027, 2.09357 16.4493, 2.35749 16.4487, 2.5968 16.4493, 2.82294 16.384, 3.03706 16.2523, 3.25118 16.1212, 3.45213 15.9455, 3.64106 15.7256, 3.82999 15.5058, 3.99945 15.2464, 4.15059 14.947, 4.30174 14.6482, 4.43971 14.3333, 4.56509 14.0029, 4.58456 13.9302, 4.6252 13.877, 4.68818 13.8432, 4.75116 13.81, 4.8107 13.7928, 4.86738 13.7923 L 5.10325 13.7923 C 5.18512 13.7928, 5.25096 13.8266, 5.30134 13.893, 5.32023 13.9365, 5.32939 13.976, 5.32939 14.0121 L 5.32939 14.0671 C 5.19771 14.4277, 5.03226 14.7838, 4.83417 15.1348, 4.63608 15.4863, 4.40822 15.8023, 4.15059 16.0829, 3.89296 16.364, 3.60785 16.5958, 3.29641 16.7785, 2.98496 16.9617, 2.64089 17.0533, 2.26303 17.0533, 1.93613 17.0533, 1.65331 16.9909, 1.414 16.8655, 1.17526 16.7407, 0.983469 16.5672, 0.838624 16.3439, 0.694352 16.1212, 0.609048 15.8659, 0.583858 15.5785, 0.571262 15.5058, 0.564965 15.4262, 0.564965 15.3403, 0.564965 15.1331, 0.590155 14.9224, 0.640536 14.7083 L 2.02715 9.34043, 0.25352 9.34043 C 0.0966519 9.341, 0.0113479 9.25856, -0.00124732 9.0931 L -0.00124732 9.01982, 0.0554311 8.8641 C 0.118407 8.68147, 0.235199 8.58987, 0.404662 8.58929 L 2.20635 8.58929, 2.98038 5.58476 C 3.03706 5.35919, 3.15156 5.19145, 3.32446 5.08153, 3.49736 4.9716, 3.67198 4.91664, 3.84831 4.91607, 4.03094 4.91664, 4.18208 4.97447, 4.30116 5.09011, 4.38303 5.17027, 4.42368 5.28019, 4.42368 5.41988, 4.42368 5.48744, 4.41738 5.55499, 4.40479 5.6214 L 3.64049 8.58929, 5.37691 8.58929 C 5.54065 8.58987, 5.62194 8.67231, 5.62194 8.83662 L 5.62194 8.90074 Z" stroke="none" fill="#000000" />
			<path d="M 6.95778 21.2028 C 6.91427 21.3253, 6.8324 21.4135, 6.71275 21.4685, 6.63718 21.4994, 6.5679 21.5143, 6.50493 21.5143, 6.46141 21.5143, 6.4076 21.5085, 6.34462 21.496, 6.11848 21.4169, 6.00512 21.2795, 6.00512 21.0837, 6.00512 21.0231, 6.02115 20.9555, 6.05207 20.8822 L 12.7418 2.88251 C 12.7859 2.76114, 12.8707 2.66611, 12.9966 2.59855, 13.0659 2.5808, 13.1289 2.57164, 13.185 2.57107, 13.2296 2.57164, 13.2863 2.57794, 13.355 2.58939, 13.5817 2.66954, 13.6916 2.80694, 13.6853 3.0016, 13.6853 3.06343, 13.6699 3.13041, 13.6378 3.20312 Z" stroke="none" fill="#000000" />
			<path d="M 20.467 14.3144 C 20.467 14.6877, 20.4012 15.0524, 20.2689 15.4096, 20.1372 15.7668, 19.9139 16.0766, 19.5991 16.3388, 19.2596 16.6079, 18.884 16.7911, 18.4718 16.8884, 18.0602 16.9863, 17.6434 17.035, 17.222 17.035, 16.7566 17.035, 16.3506 16.9588, 16.0049 16.806, 15.6591 16.6537, 15.3762 16.4676, 15.1558 16.2472 L 14.5524 16.9434 C 14.502 16.9983, 14.4264 17.0292, 14.3257 17.035 L 14.2696 17.035 C 14.0806 17.035, 13.9862 16.9405, 13.9862 16.751 L 13.9862 13.7281 C 13.9862 13.5942, 14.0589 13.5089, 14.2032 13.4717, 14.2478 13.4602, 14.2885 13.4539, 14.3257 13.4533, 14.3761 13.4539, 14.4236 13.4631, 14.4677 13.4808, 14.5621 13.518, 14.6251 13.5821, 14.656 13.6732, 14.8198 14.5102, 15.0997 15.1795, 15.4959 15.6798, 15.8921 16.1808, 16.4674 16.431, 17.222 16.4304, 17.5243 16.431, 17.8163 16.4023, 18.0991 16.3439, 18.3819 16.2861, 18.6275 16.1716, 18.8348 15.9999, 19.0048 15.8602, 19.1308 15.6878, 19.2121 15.4829, 19.2939 15.2785, 19.3346 15.0569, 19.3346 14.8182, 19.3346 14.4277, 19.1806 14.094, 18.8726 13.8157, 18.5645 13.5381, 18.1844 13.3531, 17.731 13.261 L 16.4297 12.9953 C 16.1153 12.9346, 15.8119 12.839, 15.5194 12.7074, 15.2274 12.5763, 14.9692 12.4142, 14.7459 12.2219, 14.5226 12.0295, 14.3406 11.8022, 14.1986 11.5394, 14.0572 11.2772, 13.9862 10.987, 13.9862 10.6686, 13.9862 10.3211, 14.0606 9.98679, 14.2083 9.66618, 14.356 9.34558, 14.5776 9.08165, 14.873 8.87326, 15.2188 8.61734, 15.5995 8.45132, 16.0146 8.3746, 16.4297 8.29846, 16.8321 8.2601, 17.222 8.25953, 17.9388 8.2601, 18.5176 8.42498, 18.9573 8.75418 L 19.4479 8.31449 C 19.5235 8.27842, 19.5865 8.2601, 19.6369 8.25953 L 19.7027 8.25953 C 19.8916 8.2601, 19.9855 8.3454, 19.9855 8.51601 L 19.9855 10.9526 C 19.9855 11.1364, 19.8916 11.2309, 19.7027 11.2366 L 19.5991 11.2366 C 19.4107 11.2372, 19.3162 11.1427, 19.3162 10.9526, 19.3162 10.2874, 19.1359 9.76122, 18.7741 9.37306, 18.4123 8.98547, 17.8953 8.79139, 17.222 8.79082, 16.9329 8.79139, 16.6484 8.81601, 16.3684 8.86467, 16.0884 8.91391, 15.8383 9.01409, 15.6184 9.16638, 15.2852 9.3868, 15.118 9.7137, 15.118 10.1465, 15.118 10.4648, 15.2629 10.7368, 15.552 10.9623, 15.8417 11.1885, 16.2064 11.3442, 16.6466 11.4289 L 17.9388 11.6671 C 18.2789 11.7289, 18.6023 11.8389, 18.9103 11.9974, 19.2183 12.1566, 19.4874 12.3472, 19.717 12.57, 19.9466 12.7932, 20.1292 13.0554, 20.2643 13.3577, 20.3994 13.66, 20.467 13.9789, 20.467 14.3144 Z" stroke="none" fill="#000000" />
			<rect />
		</svg>
	</g>
	<g transform="matrix(1 0 -0 1 23.3117 50.6593)">
		<svg width="87.0040054" height="47.9999886">
			<defs />
			<path d="M 6.82725 16.7669 C 5.69335 16.731, 4.5903 16.7131, 3.51756 16.7131, 2.44537 16.7131, 1.34233 16.731, 0.208429 16.7669 L 0.208429 15.9949, 0.846354 15.9949 C 1.04946 15.9955, 1.24078 15.9927, 1.4192 15.9865, 1.59817 15.9809, 1.76761 15.9657, 1.92808 15.9416, 2.08854 15.918, 2.22712 15.8939, 2.34382 15.8692, 2.44257 15.8518, 2.52392 15.7969, 2.58844 15.7037, 2.65353 15.6111, 2.68551 15.5079, 2.68551 15.3935 L 2.68551 5.27643 C 2.37805 5.4268, 1.99877 5.54069, 1.5488 5.61812, 1.09883 5.6961, 0.60622 5.73482, 0.0698472 5.73426 L 0.0698472 4.97122 C 0.809324 4.97178, 1.49213 4.88369, 2.11771 4.70696, 2.7433 4.53078, 3.28416 4.19976, 3.73974 3.71444 L 4.02644 3.71444 C 4.22954 3.715, 4.33109 3.81375, 4.33109 4.01068 L 4.33109 15.3935 C 4.33109 15.5135, 4.36195 15.6184, 4.42367 15.7082, 4.48539 15.798, 4.57516 15.8518, 4.69186 15.8692, 4.7906 15.8939, 4.9174 15.918, 5.07113 15.9416, 5.22486 15.9657, 5.39879 15.9809, 5.59292 15.9865, 5.78704 15.9927, 5.97668 15.9955, 6.16183 15.9949 L 6.82725 15.9949, 6.82725 16.7669 Z" stroke="none" fill="#000000" />
			<path d="M 17.5421 10.519 C 17.5421 11.3813, 17.4821 12.2386, 17.362 13.0914, 17.242 13.9442, 16.9446 14.7449, 16.4699 15.4922, 16.1311 16.0376, 15.6777 16.4561, 15.1111 16.749, 14.5444 17.0424, 13.9278 17.1888, 13.2618 17.1888, 12.6211 17.1888, 12.0157 17.0424, 11.4456 16.749, 10.8756 16.4561, 10.4206 16.0376, 10.0817 15.4922, 9.60762 14.7449, 9.31026 13.9442, 9.19019 13.0914, 9.07012 12.2386, 9.00953 11.3813, 9.00953 10.519, 9.00953 9.64596, 9.07012 8.77352, 9.19019 7.90275, 9.31026 7.03199, 9.60762 6.21677, 10.0817 5.45597, 10.4206 4.90613, 10.8739 4.47804, 11.4406 4.17283, 12.0078 3.86761, 12.6149 3.715, 13.2618 3.71444, 13.9216 3.715, 14.536 3.86761, 15.106 4.17283, 15.676 4.47804, 16.1311 4.90613, 16.4699 5.45597, 16.9446 6.21677, 17.242 7.03199, 17.362 7.90275, 17.4821 8.77352, 17.5421 9.64596, 17.5421 10.519 Z M 15.7114 10.2048 C 15.7114 9.82831, 15.7086 9.43052, 15.7024 9.0114, 15.6968 8.59285, 15.6811 8.18272, 15.6564 7.78156, 15.6317 7.38097, 15.5874 7.00225, 15.5223 6.64598, 15.4578 6.29027, 15.3792 5.98617, 15.2867 5.73426, 15.1015 5.32805, 14.8305 4.99422, 14.4731 4.73389, 14.1157 4.47355, 13.7118 4.34339, 13.2618 4.34283, 12.8242 4.34339, 12.4286 4.47524, 12.074 4.73837, 11.72 5.00207, 11.4501 5.33366, 11.265 5.73426, 11.173 5.98617, 11.0944 6.29027, 11.0293 6.64598, 10.9648 7.00225, 10.9199 7.38097, 10.8952 7.78156, 10.8706 8.18272, 10.8554 8.59285, 10.8492 9.0114, 10.8431 9.43052, 10.8397 9.82831, 10.8397 10.2048, 10.8397 10.6245, 10.8431 11.066, 10.8492 11.5294, 10.8554 11.9934, 10.8706 12.4423, 10.8952 12.876, 10.9199 13.3102, 10.9648 13.7215, 11.0293 14.1103, 11.0944 14.4997, 11.173 14.8257, 11.265 15.0882, 11.4378 15.5259, 11.7049 15.8849, 12.0651 16.166, 12.4253 16.4477, 12.8242 16.588, 13.2618 16.5874, 13.7179 16.588, 14.1264 16.4477, 14.4866 16.166, 14.8474 15.8849, 15.1139 15.5259, 15.2867 15.0882, 15.3792 14.8257, 15.4578 14.4997, 15.5223 14.1103, 15.5874 13.7215, 15.6317 13.3102, 15.6564 12.876, 15.6811 12.4423, 15.6968 11.9934, 15.7024 11.5294, 15.7086 11.066, 15.7114 10.6245, 15.7114 10.2048 Z" stroke="none" fill="#000000" />
			<path d="M 27.2072 12.7991 C 27.2072 13.386, 27.0967 13.9459, 26.8745 14.4784, 26.6529 15.0114, 26.3325 15.49, 25.9129 15.9141, 25.4876 16.3276, 25.0084 16.6435, 24.4754 16.8612, 23.9424 17.08, 23.3774 17.1888, 22.7793 17.1888, 22.2621 17.1888, 21.7795 17.0918, 21.3329 16.8971, 20.8863 16.703, 20.4981 16.437, 20.1682 16.0987, 19.8383 15.761, 19.5796 15.3688, 19.3911 14.9227, 19.2032 14.4772, 19.1089 14.0026, 19.1089 13.4993, 19.1089 13.1526, 19.2245 12.8911, 19.4556 12.7144, 19.6868 12.5382, 19.9258 12.4496, 20.1721 12.449, 20.4313 12.4496, 20.6748 12.5365, 20.9026 12.7099, 21.131 12.8838, 21.2449 13.147, 21.2449 13.4993, 21.2449 13.7153, 21.1972 13.8966, 21.1018 14.043, 21.0064 14.19, 20.8891 14.3033, 20.75 14.3841, 20.6114 14.4649, 20.456 14.5115, 20.2832 14.5227 L 20.1721 14.5227, 19.9875 14.5227 C 20.1295 15.026, 20.4594 15.4782, 20.9767 15.8788, 21.4945 16.2799, 22.0954 16.4802, 22.7793 16.4797, 23.1367 16.4802, 23.4852 16.3877, 23.824 16.2019, 24.1629 16.0168, 24.4401 15.7711, 24.6555 15.4653, 24.9086 15.1006, 25.0707 14.6865, 25.1414 14.2225, 25.2121 13.7591, 25.2474 13.2844, 25.2474 12.7991, 25.2474 12.3088, 25.2323 11.838, 25.2014 11.3858, 25.1706 10.9342, 25.0443 10.5078, 24.8222 10.106, 24.6623 9.81316, 24.4575 9.56966, 24.2078 9.37497, 23.9581 9.18085, 23.6793 9.08322, 23.3707 9.08266, 22.7855 9.08322, 22.2772 9.2016, 21.8457 9.43781, 21.4143 9.67458, 21.0659 10.014, 20.8011 10.4561, 20.7455 10.5582, 20.6563 10.6093, 20.5329 10.6087 L 20.4588 10.6087 C 20.2434 10.6093, 20.1351 10.5106, 20.1351 10.3125 L 20.1351 4.01068 C 20.1351 3.85583, 20.2248 3.75708, 20.4033 3.71444, 20.4347 3.715, 20.4577 3.71837, 20.4728 3.72398, 20.4885 3.73015, 20.502 3.73296, 20.5144 3.7324, 21.4081 4.13972, 22.3294 4.34339, 23.2781 4.34283, 24.2398 4.34339, 25.1616 4.13972, 26.0425 3.7324, 26.0548 3.73296, 26.0672 3.73015, 26.0795 3.72398, 26.0918 3.71837, 26.1104 3.715, 26.135 3.71444, 26.3381 3.715, 26.4369 3.80758, 26.4307 3.99273, 26.4307 4.10101, 26.4122 4.17283, 26.3752 4.20817, 25.9376 4.80739, 25.3815 5.27587, 24.7066 5.61363, 24.0322 5.95195, 23.3157 6.12083, 22.5572 6.12027, 21.9288 6.12083, 21.3868 6.04901, 20.9301 5.90482 L 20.9301 9.33401 C 21.1461 9.10735, 21.4715 8.90536, 21.9058 8.72863, 22.34 8.55246, 22.8287 8.46381, 23.3707 8.46325, 23.9009 8.46381, 24.4019 8.58388, 24.8732 8.82289, 25.3445 9.06246, 25.7591 9.37329, 26.1165 9.75593, 26.4863 10.1874, 26.7606 10.6648, 26.939 11.1883, 27.118 11.7123, 27.2072 12.2493, 27.2072 12.7991 Z" stroke="none" fill="#000000" />
			<rect />
		</svg>
	</g>
	<g transform="matrix(1 0 -0 1 9.33976 145.245)">
		<svg width="59.9889336" height="47.9999886">
			<defs />
			<path d="M 8.50642 13.3826 C 8.50642 13.8977, 8.39252 14.392, 8.16473 14.8644, 7.93694 15.3374, 7.63173 15.7413, 7.24908 16.0757, 6.81819 16.4533, 6.34185 16.7327, 5.82119 16.9151, 5.30053 17.098, 4.7563 17.1888, 4.18907 17.1888, 3.67794 17.1888, 3.17916 17.117, 2.69216 16.9734, 2.20516 16.8298, 1.76641 16.6239, 1.37479 16.3546, 0.983172 16.0852, 0.670662 15.7548, 0.436139 15.3626, 0.202177 14.971, 0.0849159 14.5204, 0.0849159 14.011, 0.0849159 13.6284, 0.212837 13.3428, 0.468681 13.1543, 0.724524 12.9658, 0.993832 12.8715, 1.27717 12.8709, 1.57341 12.8715, 1.84889 12.9658, 2.10473 13.1543, 2.36057 13.3428, 2.48849 13.6284, 2.48849 14.011, 2.48849 14.2388, 2.44417 14.429, 2.3544 14.5816, 2.26519 14.7342, 2.1513 14.8616, 2.01216 14.9631, 1.87357 15.0652, 1.71479 15.1275, 1.53638 15.1511, 1.44436 15.1758, 1.35796 15.1875, 1.27717 15.187, 1.1975 15.1875, 1.18515 15.1937, 1.24014 15.2049, 1.43146 15.5405, 1.80737 15.8373, 2.36843 16.0942, 2.92949 16.3517, 3.53599 16.4802, 4.18907 16.4797, 4.49765 16.4802, 4.78547 16.4039, 5.05366 16.2513, 5.32185 16.0987, 5.54571 15.8939, 5.72413 15.6358, 5.9463 15.3014, 6.09723 14.9424, 6.1769 14.5592, 6.25713 14.1765, 6.29697 13.7843, 6.29697 13.3826, 6.29697 12.9702, 6.25713 12.5741, 6.1769 12.1937, 6.09723 11.8139, 5.9463 11.4621, 5.72413 11.1384, 5.53898 10.8758, 5.31399 10.6632, 5.04917 10.5016, 4.78435 10.34, 4.49765 10.2592, 4.18907 10.2586 L 2.8487 10.2586 C 2.67028 10.2592, 2.5749 10.1756, 2.56255 10.0073 L 2.56255 9.90854 C 2.56255 9.83728, 2.58444 9.78062, 2.62708 9.73798, 2.68262 9.68468, 2.75331 9.65775, 2.83972 9.65718, 3.0187 9.63362, 3.20328 9.62184, 3.39404 9.62128, 3.57919 9.62184, 3.76154 9.61005, 3.93996 9.58537, 4.27266 9.5618, 4.56217 9.45913, 4.80848 9.27623, 5.05534 9.09388, 5.26181 8.86048, 5.42789 8.57602, 5.59452 8.29213, 5.72076 7.96447, 5.80716 7.59305, 5.89357 7.22219, 5.93677 6.84179, 5.93677 6.45241, 5.93677 6.16571, 5.90591 5.8936, 5.84419 5.63607, 5.78248 5.37911, 5.66858 5.15412, 5.50195 4.96224, 5.15689 4.56781, 4.71927 4.37313, 4.18907 4.37874, 3.6224 4.3793, 3.10342 4.4859, 2.63213 4.69798, 2.16084 4.91062, 1.8444 5.13953, 1.68394 5.38415, 1.6413 5.39089, 1.66262 5.39369, 1.74902 5.39313, 1.9712 5.39369, 2.18047 5.45934, 2.3774 5.59062, 2.67364 5.76455, 2.8212 6.05799, 2.8212 6.47037, 2.8212 6.81822, 2.70899 7.08024, 2.48401 7.25641, 2.25902 7.43314, 2.00767 7.52123, 1.7305 7.52067, 1.45951 7.52123, 1.20535 7.43483, 0.968024 7.2609, 0.730695 7.08753, 0.611751 6.82383, 0.611751 6.47037, 0.611751 6.03386, 0.716669 5.64841, 0.925944 5.3129, 1.13578 4.97795, 1.40509 4.69069, 1.73499 4.45111, 2.06489 4.2121, 2.44529 4.0292, 2.87675 3.90352, 3.3082 3.77784, 3.74583 3.715, 4.18907 3.71444, 4.66372 3.715, 5.12323 3.77784, 5.56703 3.90352, 6.01083 4.0292, 6.42994 4.22388, 6.8238 4.48646, 7.14473 4.71425, 7.41404 4.99422, 7.63285 5.32637, 7.85166 5.65851, 7.96107 6.03386, 7.96107 6.45241, 7.96107 6.87208, 7.88589 7.26707, 7.73496 7.63793, 7.58404 8.00935, 7.38374 8.34431, 7.13407 8.64335, 6.8844 8.94296, 6.58703 9.20609, 6.24198 9.43332, 5.89693 9.66111, 5.63772 9.80418, 5.46492 9.86365, 5.61304 9.88217, 5.86607 9.97082, 6.22347 10.129, 6.58086 10.2878, 6.92255 10.4988, 7.24908 10.7613, 7.63173 11.0913, 7.93694 11.4846, 8.16473 11.9424, 8.39252 12.4002, 8.50642 12.8805, 8.50642 13.3826 Z" stroke="none" fill="#000000" />
			<path d="M 18.4541 10.519 C 18.4541 11.3813, 18.394 12.2386, 18.274 13.0914, 18.1539 13.9442, 17.8565 14.7449, 17.3819 15.4922, 17.043 16.0376, 16.5897 16.4561, 16.023 16.749, 15.4563 17.0424, 14.8397 17.1888, 14.1737 17.1888, 13.533 17.1888, 12.9276 17.0424, 12.3576 16.749, 11.7876 16.4561, 11.3325 16.0376, 10.9937 15.4922, 10.5196 14.7449, 10.2222 13.9442, 10.1021 13.0914, 9.98206 12.2386, 9.92147 11.3813, 9.92147 10.519, 9.92147 9.64596, 9.98206 8.77352, 10.1021 7.90275, 10.2222 7.03199, 10.5196 6.21677, 10.9937 5.45597, 11.3325 4.90613, 11.7859 4.47804, 12.3525 4.17283, 12.9198 3.86761, 13.5268 3.715, 14.1737 3.71444, 14.8335 3.715, 15.4479 3.86761, 16.0179 4.17283, 16.588 4.47804, 17.043 4.90613, 17.3819 5.45597, 17.8565 6.21677, 18.1539 7.03199, 18.274 7.90275, 18.394 8.77352, 18.4541 9.64596, 18.4541 10.519 Z M 16.6233 10.2048 C 16.6233 9.82831, 16.6205 9.43052, 16.6143 9.0114, 16.6087 8.59285, 16.593 8.18272, 16.5683 7.78156, 16.5437 7.38097, 16.4993 7.00225, 16.4342 6.64598, 16.3697 6.29027, 16.2912 5.98617, 16.1986 5.73426, 16.0135 5.32805, 15.7425 4.99422, 15.3851 4.73389, 15.0277 4.47355, 14.6237 4.34339, 14.1737 4.34283, 13.7361 4.34339, 13.3406 4.47524, 12.986 4.73837, 12.6319 5.00207, 12.3621 5.33366, 12.1769 5.73426, 12.0849 5.98617, 12.0064 6.29027, 11.9413 6.64598, 11.8768 7.00225, 11.8319 7.38097, 11.8072 7.78156, 11.7825 8.18272, 11.7674 8.59285, 11.7612 9.0114, 11.755 9.43052, 11.7516 9.82831, 11.7516 10.2048, 11.7516 10.6245, 11.755 11.066, 11.7612 11.5294, 11.7674 11.9934, 11.7825 12.4423, 11.8072 12.876, 11.8319 13.3102, 11.8768 13.7215, 11.9413 14.1103, 12.0064 14.4997, 12.0849 14.8257, 12.1769 15.0882, 12.3497 15.5259, 12.6168 15.8849, 12.977 16.166, 13.3372 16.4477, 13.7361 16.588, 14.1737 16.5874, 14.6299 16.588, 15.0383 16.4477, 15.3985 16.166, 15.7593 15.8849, 16.0258 15.5259, 16.1986 15.0882, 16.2912 14.8257, 16.3697 14.4997, 16.4342 14.1103, 16.4993 13.7215, 16.5437 13.3102, 16.5683 12.876, 16.593 12.4423, 16.6087 11.9934, 16.6143 11.5294, 16.6205 11.066, 16.6233 10.6245, 16.6233 10.2048 Z" stroke="none" fill="#000000" />
			<rect />
		</svg>
	</g>
	<g transform="matrix(1 0 -0 1 112.004 197.783)">
		<svg width="30.0150681" height="47.9999886">
			<defs />
			<path d="M 8.50823 13.3826 C 8.50823 13.8977, 8.39434 14.392, 8.16655 14.8644, 7.93876 15.3374, 7.63354 15.7413, 7.2509 16.0757, 6.82 16.4533, 6.34366 16.7327, 5.823 16.9151, 5.30234 17.098, 4.75811 17.1888, 4.19088 17.1888, 3.67975 17.1888, 3.18097 17.117, 2.69397 16.9734, 2.20697 16.8298, 1.76822 16.6239, 1.3766 16.3546, 0.984985 16.0852, 0.672475 15.7548, 0.437952 15.3626, 0.20399 14.971, 0.0867284 14.5204, 0.0867284 14.011, 0.0867284 13.6284, 0.21465 13.3428, 0.470493 13.1543, 0.726336 12.9658, 0.995645 12.8715, 1.27898 12.8709, 1.57522 12.8715, 1.8507 12.9658, 2.10654 13.1543, 2.36239 13.3428, 2.49031 13.6284, 2.49031 14.011, 2.49031 14.2388, 2.44598 14.429, 2.35621 14.5816, 2.26701 14.7342, 2.15311 14.8616, 2.01397 14.9631, 1.87539 15.0652, 1.71661 15.1275, 1.53819 15.1511, 1.44618 15.1758, 1.35977 15.1875, 1.27898 15.187, 1.19931 15.1875, 1.18697 15.1937, 1.24195 15.2049, 1.43327 15.5405, 1.80918 15.8373, 2.37024 16.0942, 2.9313 16.3517, 3.53781 16.4802, 4.19088 16.4797, 4.49946 16.4802, 4.78728 16.4039, 5.05547 16.2513, 5.32366 16.0987, 5.54752 15.8939, 5.72594 15.6358, 5.94812 15.3014, 6.09904 14.9424, 6.17871 14.5592, 6.25894 14.1765, 6.29878 13.7843, 6.29878 13.3826, 6.29878 12.9702, 6.25894 12.5741, 6.17871 12.1937, 6.09904 11.8139, 5.94812 11.4621, 5.72594 11.1384, 5.54079 10.8758, 5.3158 10.6632, 5.05098 10.5016, 4.78616 10.34, 4.49946 10.2592, 4.19088 10.2586 L 2.85051 10.2586 C 2.67209 10.2592, 2.57671 10.1756, 2.56437 10.0073 L 2.56437 9.90854 C 2.56437 9.83728, 2.58625 9.78062, 2.62889 9.73798, 2.68443 9.68468, 2.75513 9.65775, 2.84153 9.65718, 3.02051 9.63362, 3.2051 9.62184, 3.39586 9.62128, 3.58101 9.62184, 3.76335 9.61005, 3.94177 9.58537, 4.27448 9.5618, 4.56398 9.45913, 4.81029 9.27623, 5.05715 9.09388, 5.26362 8.86048, 5.4297 8.57602, 5.59633 8.29213, 5.72257 7.96447, 5.80897 7.59305, 5.89538 7.22219, 5.93858 6.84179, 5.93858 6.45241, 5.93858 6.16571, 5.90772 5.8936, 5.846 5.63607, 5.78429 5.37911, 5.67039 5.15412, 5.50376 4.96224, 5.15871 4.56781, 4.72108 4.37313, 4.19088 4.37874, 3.62421 4.3793, 3.10523 4.4859, 2.63394 4.69798, 2.16265 4.91062, 1.84621 5.13953, 1.68575 5.38415, 1.64311 5.39089, 1.66443 5.39369, 1.75083 5.39313, 1.97301 5.39369, 2.18229 5.45934, 2.37922 5.59062, 2.67546 5.76455, 2.82302 6.05799, 2.82302 6.47037, 2.82302 6.81822, 2.7108 7.08024, 2.48582 7.25641, 2.26083 7.43314, 2.00948 7.52123, 1.73232 7.52067, 1.46132 7.52123, 1.20716 7.43483, 0.969836 7.2609, 0.732508 7.08753, 0.613563 6.82383, 0.613563 6.47037, 0.613563 6.03386, 0.718481 5.64841, 0.927757 5.3129, 1.13759 4.97795, 1.4069 4.69069, 1.7368 4.45111, 2.06671 4.2121, 2.44711 4.0292, 2.87856 3.90352, 3.31002 3.77784, 3.74764 3.715, 4.19088 3.71444, 4.66553 3.715, 5.12504 3.77784, 5.56884 3.90352, 6.01264 4.0292, 6.43175 4.22388, 6.82561 4.48646, 7.14654 4.71425, 7.41585 4.99422, 7.63466 5.32637, 7.85348 5.65851, 7.96288 6.03386, 7.96288 6.45241, 7.96288 6.87208, 7.8877 7.26707, 7.73677 7.63793, 7.58585 8.00935, 7.38555 8.34431, 7.13588 8.64335, 6.88621 8.94296, 6.58885 9.20609, 6.2438 9.43332, 5.89874 9.66111, 5.63953 9.80418, 5.46673 9.86365, 5.61485 9.88217, 5.86789 9.97082, 6.22528 10.129, 6.58268 10.2878, 6.92436 10.4988, 7.2509 10.7613, 7.63354 11.0913, 7.93876 11.4846, 8.16655 11.9424, 8.39434 12.4002, 8.50823 12.8805, 8.50823 13.3826 Z" stroke="none" fill="#000000" />
			<rect />
		</svg>
	</g>
	<g transform="matrix(1 0 -0 1 187.967 197.783)">
		<svg width="30.0150681" height="47.9999886">
			<defs />
			<path d="M 8.77761 4.62111 C 8.77761 4.65758, 8.76246 4.70864, 8.7316 4.77372 L 5.95828 8.57097 C 5.60089 9.06807, 5.32204 9.61735, 5.12174 10.2188, 4.92144 10.8203, 4.77837 11.452, 4.69197 12.1129, 4.60557 12.7744, 4.55171 13.4494, 4.52982 14.1372, 4.5085 14.8257, 4.49728 15.5197, 4.49728 16.2193, 4.49728 16.5431, 4.39124 16.7883, 4.1786 16.9554, 3.96652 17.1232, 3.73368 17.2068, 3.48064 17.2068, 3.22817 17.2068, 2.99869 17.1232, 2.79222 16.9554, 2.58575 16.7883, 2.48252 16.5431, 2.48252 16.2193, 2.48252 14.7595, 2.73668 13.3551, 3.245 12.0052, 3.75332 10.6559, 4.43893 9.38844, 5.30184 8.20292 L 7.05796 5.82403, 3.73031 5.82403 C 3.31176 5.82459, 2.92183 5.82795, 2.56107 5.83356, 2.20087 5.83974, 1.89397 5.8504, 1.64149 5.86498, 1.38901 5.88013, 1.25941 5.89023, 1.25268 5.89584, 1.19096 5.95026, 1.1371 6.04003, 1.09109 6.16571, 1.04508 6.29139, 1.00188 6.43839, 0.961485 6.60558, 0.92165 6.77334, 0.886303 6.94671, 0.855445 7.12624, 0.824587 7.30578, 0.793728 7.4971, 0.76287 7.70021 L 0.0789385 7.70021, 0.744355 3.51695, 1.41931 3.51695, 1.41931 3.69649 C 1.41931 3.76269, 1.45634 3.82553, 1.52984 3.885, 1.65944 3.96916, 1.79522 4.02302, 1.93661 4.04659, 2.10324 4.07128, 2.30691 4.09372, 2.54704 4.11448, 2.78717 4.1358, 3.0447 4.14926, 3.31906 4.15487, 3.59342 4.16105, 3.8689 4.16385, 4.14606 4.16329 L 8.77761 4.16329, 8.77761 4.62111 Z" stroke="none" fill="#000000" />
			<rect />
		</svg>
	</g>
	<path d="M 0 131.794 L 0 -131.794" fill="none" stroke="#000000" stroke-opacity="0.505882323" stroke-width="2.66666675" stroke-linecap="round" stroke-linejoin="round" stroke-dasharray="9.34667, 6.65333" transform="matrix(0.5 0 0 0.5 116.301 127.764)" />
	<path d="M 0 80.7117 L 0 -80.7125" fill="none" stroke="#000000" stroke-opacity="0.505882323" stroke-width="2.66666675" stroke-linecap="round" stroke-linejoin="round" stroke-dasharray="9.34667, 6.65333" transform="matrix(0.5 0 0 0.5 192.405 153.305)" />
	<path d="M -57.2824 0 L 57.2826 0" fill="none" stroke="#000000" stroke-opacity="0.505882323" stroke-width="2.66666675" stroke-linecap="round" stroke-linejoin="round" stroke-dasharray="9.34667, 6.65333" transform="matrix(0.5 0 0 0.5 87.6597 61.8668)" />
	<path d="M -133.387 0 L 133.387 0" fill="none" stroke="#000000" stroke-opacity="0.505882323" stroke-width="2.66666675" stroke-linecap="round" stroke-linejoin="round" stroke-dasharray="9.34667, 6.65333" transform="matrix(0.5 0 0 0.5 125.712 112.354)" />
	<g transform="matrix(1 0 -0 1 32.7471 101.741)">
		<svg width="59.9889336" height="47.9999886">
			<defs />
			<path d="M 8.50642 12.7632 C 8.50642 13.386, 8.41441 13.9442, 8.22926 14.438, 8.04411 14.9317, 7.72991 15.4181, 7.28612 15.8962, 6.84849 16.3456, 6.4002 16.6732, 5.94126 16.8791, 5.48231 17.0856, 4.9291 17.1888, 4.28164 17.1888, 3.6224 17.1888, 3.0187 17.0261, 2.46998 16.6996, 1.92126 16.3742, 1.48364 15.9326, 1.1571 15.3755, 0.694788 14.6158, 0.400792 13.8141, 0.274554 12.9702, 0.148316 12.1264, 0.0849159 11.2854, 0.0849159 10.4472, 0.0849159 9.61005, 0.206666 8.78586, 0.450166 7.97457, 0.693666 7.16384, 1.08304 6.41426, 1.61941 5.72528, 2.06938 5.13953, 2.6181 4.65758, 3.265 4.28055, 3.91246 3.90352, 4.62389 3.715, 5.40039 3.71444, 6.1466 3.715, 6.76601 3.90689, 7.25862 4.28953, 7.75179 4.67273, 7.9981 5.22313, 7.9981 5.94073, 7.9981 6.27624, 7.89655 6.52479, 7.69288 6.68637, 7.48978 6.84796, 7.25526 6.92875, 6.99044 6.92819, 6.73796 6.92875, 6.51129 6.84796, 6.31099 6.68637, 6.1107 6.52479, 6.01027 6.27624, 6.01027 5.94073, 6.01027 5.58221, 6.14324 5.3129, 6.40806 5.1328, 6.58086 5.02564, 6.77499 4.97178, 6.99044 4.97122, 7.05832 4.97178, 7.0673 4.96897, 7.01793 4.96224, 6.93209 4.83095, 6.74245 4.70135, 6.44958 4.5723, 6.1567 4.44382, 5.80716 4.3793, 5.40039 4.37874, 4.85168 4.3793, 4.35907 4.54257, 3.92144 4.86854, 3.48381 5.19508, 3.11408 5.60297, 2.81167 6.09333, 2.45483 6.71611, 2.23882 7.39443, 2.16476 8.12718, 2.0907 8.86048, 2.0475 9.4451, 2.03516 9.88161, 2.14625 9.62464, 2.41331 9.30933, 2.83523 8.9351, 3.25715 8.56143, 3.79184 8.37404, 4.43874 8.37348, 5.05534 8.37404, 5.58723 8.47728, 6.03383 8.68375, 6.48043 8.89022, 6.91021 9.2117, 7.32314 9.64821, 7.7546 10.1274, 8.05982 10.6093, 8.23823 11.0941, 8.41721 11.5788, 8.50642 12.1354, 8.50642 12.7632 Z M 6.5371 12.7632 C 6.5371 12.1892, 6.51915 11.6731, 6.48212 11.2152, 6.44509 10.7574, 6.32221 10.3551, 6.11238 10.0073, 5.89693 9.65494, 5.65624 9.39461, 5.39142 9.22685, 5.1266 9.05966, 4.80287 8.9755, 4.42022 8.97494, 4.00728 8.9755, 3.65494 9.08041, 3.36206 9.28969, 3.06919 9.49953, 2.8212 9.77445, 2.6181 10.1156, 2.415 10.4567, 2.26968 10.8545, 2.18328 11.3089, 2.12156 11.6209, 2.0907 11.953, 2.0907 12.3054, 2.0907 12.4434, 2.09688 12.5904, 2.10922 12.7453 L 2.10922 12.8171 C 2.13391 13.2665, 2.16813 13.6856, 2.21133 14.0744, 2.25453 14.4638, 2.32242 14.7808, 2.41443 15.0254, 2.58724 15.4569, 2.8414 15.807, 3.17691 16.0763, 3.51299 16.3456, 3.88104 16.4802, 4.28164 16.4797, 4.69458 16.4802, 5.043 16.4011, 5.32633 16.2423, 5.61023 16.0841, 5.8599 15.8277, 6.07535 15.4742, 6.29753 15.1219, 6.42994 14.7224, 6.47258 14.2764, 6.51578 13.8309, 6.5371 13.3265, 6.5371 12.7632 Z" stroke="none" fill="#000000" />
			<path d="M 18.2229 12.7991 C 18.2229 13.386, 18.1124 13.9459, 17.8902 14.4784, 17.6686 15.0114, 17.3482 15.49, 16.9285 15.9141, 16.5033 16.3276, 16.0241 16.6435, 15.4911 16.8612, 14.9581 17.08, 14.3931 17.1888, 13.795 17.1888, 13.2777 17.1888, 12.7952 17.0918, 12.3486 16.8971, 11.902 16.703, 11.5138 16.437, 11.1839 16.0987, 10.8539 15.761, 10.5953 15.3688, 10.4068 14.9227, 10.2188 14.4772, 10.1246 14.0026, 10.1246 13.4993, 10.1246 13.1526, 10.2401 12.8911, 10.4713 12.7144, 10.7025 12.5382, 10.9415 12.4496, 11.1878 12.449, 11.447 12.4496, 11.6905 12.5365, 11.9183 12.7099, 12.1466 12.8838, 12.2605 13.147, 12.2605 13.4993, 12.2605 13.7153, 12.2128 13.8966, 12.1175 14.043, 12.0221 14.19, 11.9048 14.3033, 11.7657 14.3841, 11.6271 14.4649, 11.4717 14.5115, 11.2989 14.5227 L 11.1878 14.5227, 11.0032 14.5227 C 11.1451 15.026, 11.475 15.4782, 11.9923 15.8788, 12.5102 16.2799, 13.1111 16.4802, 13.795 16.4797, 14.1524 16.4802, 14.5008 16.3877, 14.8397 16.2019, 15.1786 16.0168, 15.4558 15.7711, 15.6712 15.4653, 15.9242 15.1006, 16.0864 14.6865, 16.1571 14.2225, 16.2278 13.7591, 16.2631 13.2844, 16.2631 12.7991, 16.2631 12.3088, 16.248 11.838, 16.2171 11.3858, 16.1863 10.9342, 16.06 10.5078, 15.8378 10.106, 15.6779 9.81316, 15.4732 9.56966, 15.2235 9.37497, 14.9738 9.18085, 14.695 9.08322, 14.3864 9.08266, 13.8012 9.08322, 13.2929 9.2016, 12.8614 9.43781, 12.43 9.67458, 12.0815 10.014, 11.8167 10.4561, 11.7612 10.5582, 11.672 10.6093, 11.5485 10.6087 L 11.4745 10.6087 C 11.259 10.6093, 11.1507 10.5106, 11.1507 10.3125 L 11.1507 4.01068 C 11.1507 3.85583, 11.2405 3.75708, 11.4189 3.71444, 11.4504 3.715, 11.4734 3.71837, 11.4885 3.72398, 11.5042 3.73015, 11.5177 3.73296, 11.53 3.7324, 12.4238 4.13972, 13.3451 4.34339, 14.2938 4.34283, 15.2555 4.34339, 16.1773 4.13972, 17.0581 3.7324, 17.0705 3.73296, 17.0828 3.73015, 17.0952 3.72398, 17.1075 3.71837, 17.126 3.715, 17.1507 3.71444, 17.3538 3.715, 17.4526 3.80758, 17.4464 3.99273, 17.4464 4.10101, 17.4279 4.17283, 17.3909 4.20817, 16.9532 4.80739, 16.3972 5.27587, 15.7223 5.61363, 15.0479 5.95195, 14.3314 6.12083, 13.5728 6.12027, 12.9445 6.12083, 12.4025 6.04901, 11.9458 5.90482 L 11.9458 9.33401 C 12.1618 9.10735, 12.4872 8.90536, 12.9215 8.72863, 13.3557 8.55246, 13.8444 8.46381, 14.3864 8.46325, 14.9166 8.46381, 15.4176 8.58388, 15.8889 8.82289, 16.3602 9.06246, 16.7748 9.37329, 17.1322 9.75593, 17.5019 10.1874, 17.7763 10.6648, 17.9547 11.1883, 18.1337 11.7123, 18.2229 12.2493, 18.2229 12.7991 Z" stroke="none" fill="#000000" />
			<rect />
		</svg>
	</g>
</svg>
