<?xml version="1.0"?>
<svg xmlns="http://www.w3.org/2000/svg" xmlns:xlink="http://www.w3.org/1999/xlink" width="247.276062" height="219.163422">
	<defs>
		<marker id="CustomMarker-01" markerUnits="strokeWidth" markerWidth="15.000001" markerHeight="9" viewBox="-15 -4.5 15 9" orient="auto-start-reverse">
			<path d="M 0 -0 L -10 -3, -8 -0.5, -8 0.5, -10 3 Z" fill="#000000" stroke="#000000" stroke-linejoin="round" />
		</marker>
		<marker id="CustomMarker-02" markerUnits="strokeWidth" markerWidth="15.000001" markerHeight="9" viewBox="-15 -4.5 15 9" orient="auto-start-reverse">
			<path d="M 0 -0 L -10 -3, -8 -0.5, -8 0.5, -10 3 Z" fill="#000000" stroke="#000000" stroke-linejoin="round" />
		</marker>
		<marker id="CustomMarker-03" markerUnits="strokeWidth" markerWidth="15.000001" markerHeight="9" viewBox="-15 -4.5 15 9" orient="auto-start-reverse">
			<path d="M 0 -0 L -10 -3, -8 -0.5, -8 0.5, -10 3 Z" fill="#000000" stroke="#000000" stroke-linejoin="round" />
		</marker>
	</defs>
	<path d="M -143.339 -149.023 L -15.1312 -149.023, -15.1312 150.129, 155.813 150.129, 155.813 64.6572" fill="none" stroke="#0068D0" stroke-width="3.30000019" stroke-linecap="round" stroke-linejoin="round" transform="matrix(0.454545 0 -0 0.454545 120.338 115.962)" />
	<path d="M -252.644 64.6572 L 252.644 64.6572" fill="none" stroke="#000000" stroke-width="2.9333334" stroke-linecap="round" stroke-linejoin="round" marker-end="url(#CustomMarker-01)" transform="matrix(0.454545 0 -0 0.454545 120.338 115.962)" />
	<path d="M -143.339 214.943 L -143.339 -214.943" fill="none" stroke="#000000" stroke-width="2.9333334" stroke-linecap="round" stroke-linejoin="round" marker-end="url(#CustomMarker-02)" transform="matrix(0.454545 0 -0 0.454545 120.338 115.962)" />
	<g transform="matrix(1 0 -0 1 69.9359 9.00007)">
		<svg width="87.0040054" height="62.9142723">
			<defs />
			<path d="M 4.85535 5.20004 C 4.79867 5.43248, 4.66814 5.62656, 4.46376 5.78228, 4.25937 5.938, 4.03781 6.01586, 3.7985 6.01529, 3.54717 6.01586, 3.35538 5.93056, 3.22313 5.75881, 3.13496 5.66148, 3.08801 5.5424, 3.08114 5.40156, 3.08114 5.31683, 3.09374 5.23095, 3.11893 5.14507, 3.17618 4.91378, 3.30843 4.7197, 3.51568 4.56398, 3.72293 4.40825, 3.94621 4.33039, 4.18552 4.32982, 4.43742 4.33039, 4.62921 4.41284, 4.76089 4.57715, 4.84905 4.69394, 4.89314 4.81874, 4.89314 4.95271, 4.89314 5.03859, 4.88054 5.12103, 4.85535 5.20004 Z M 4.95898 14.0854 C 4.89028 14.4037, 4.78322 14.738, 4.63837 15.089, 4.4941 15.4405, 4.31605 15.7594, 4.10536 16.0462, 3.89468 16.3336, 3.64736 16.5729, 3.36454 16.7647, 3.08172 16.9571, 2.75424 17.0533, 2.38326 17.0533, 2.06895 17.0533, 1.79872 16.9863, 1.57201 16.8518, 1.3453 16.7178, 1.17068 16.5409, 1.04816 16.321, 0.925646 16.1012, 0.864387 15.8567, 0.864387 15.5877, 0.851792 15.5762, 0.845494 15.5516, 0.845494 15.5144, 0.845494 15.2401, 0.905608 14.959, 1.02469 14.6716 L 2.55329 10.6412 C 2.74222 10.1351, 2.83611 9.71943, 2.83611 9.39539, 2.83611 9.12116, 2.71989 8.98375, 2.48688 8.98318, 2.27333 8.98375, 2.08154 9.04501, 1.91151 9.16696, 1.74204 9.28947, 1.58632 9.45894, 1.44434 9.67535, 1.30293 9.89233, 1.17583 10.1488, 1.06248 10.4448, 0.949119 10.7414, 0.854654 11.0568, 0.779083 11.3923, 0.710382 11.5578, 0.594163 11.6431, 0.430425 11.6488 L 0.222604 11.6488 C 0.0714612 11.6494, -0.0041101 11.5732, -0.0041101 11.4198 L -0.0041101 11.3557 C 0.0714612 11.0202, 0.184818 10.6772, 0.335961 10.3257, 0.487103 9.97477, 0.669161 9.65588, 0.88328 9.36848, 1.0974 9.08165, 1.34587 8.84349, 1.62869 8.65399, 1.91151 8.46506, 2.23555 8.37002, 2.60024 8.36945, 2.91512 8.37002, 3.18248 8.43758, 3.40232 8.57155, 3.62274 8.70609, 3.79106 8.88471, 3.90728 9.10742, 4.0235 9.33069, 4.08762 9.58203, 4.10021 9.86256 L 4.10021 9.92668 C 4.10021 10.19, 4.04697 10.4614, 3.93991 10.7419 L 2.41131 14.7907 C 2.23555 15.2859, 2.14738 15.7073, 2.14738 16.0548, 2.13479 16.0674, 2.12849 16.0674, 2.12849 16.0548, 2.12849 16.3182, 2.24814 16.4493, 2.48688 16.4487, 2.701 16.4493, 2.89451 16.3852, 3.0674 16.2569, 3.2403 16.1287, 3.39774 15.9581, 3.53915 15.7439, 3.68056 15.5304, 3.8048 15.2739, 3.91186 14.9745, 4.01892 14.6756, 4.11624 14.3608, 4.20441 14.0304, 4.24219 13.8724, 4.35212 13.7928, 4.53417 13.7923 L 4.742 13.7923 C 4.81127 13.7928, 4.88054 13.814, 4.94924 13.8564, 4.96871 13.9056, 4.98417 13.9486, 4.99676 13.9846, 4.99676 14.0218, 4.98417 14.0556, 4.95898 14.0854 Z" stroke="none" fill="#000000" />
			<path d="M 6.70931 21.2028 C 6.6658 21.3253, 6.58393 21.4135, 6.46428 21.4685, 6.38871 21.4994, 6.31943 21.5143, 6.25646 21.5143, 6.21295 21.5143, 6.15913 21.5085, 6.09615 21.496, 5.87001 21.4169, 5.75666 21.2795, 5.75666 21.0837, 5.75666 21.0231, 5.77269 20.9555, 5.8036 20.8822 L 12.4934 2.88251 C 12.5375 2.76114, 12.6222 2.66611, 12.7481 2.59855, 12.8174 2.5808, 12.8804 2.57164, 12.9365 2.57107, 12.9812 2.57164, 13.0378 2.57794, 13.1065 2.58939, 13.3333 2.66954, 13.4432 2.80694, 13.4369 3.0016, 13.4369 3.06343, 13.4214 3.13041, 13.3894 3.20312 Z" stroke="none" fill="#000000" />
			<path d="M 27.1167 16.8334 C 26.2992 16.7911, 25.5102 16.7693, 24.7488 16.7693 L 24.3807 16.7693 C 23.4939 16.7819, 22.5721 16.8002, 21.616 16.8243 L 21.616 16.064 C 21.8994 16.0646, 22.1542 16.0542, 22.3803 16.0325, 22.607 16.0113, 22.808 15.9667, 22.9843 15.8991, 23.0662 15.8567, 23.1383 15.7926, 23.2013 15.7067, 23.2265 15.677, 23.2391 15.6369, 23.2391 15.5877, 23.2391 15.5636, 23.2362 15.5361, 23.2294 15.5052 L 22.1633 12.5465, 17.5306 12.5465, 16.6535 15.0014 C 16.622 15.0753, 16.606 15.1457, 16.606 15.2121, 16.606 15.2739, 16.6157 15.3346, 16.6346 15.3953, 16.685 15.5304, 16.7669 15.6403, 16.8796 15.7251, 17.0434 15.8602, 17.218 15.9501, 17.4035 15.9959, 17.589 16.0417, 17.814 16.0646, 18.0779 16.064 L 18.0779 16.8243 C 17.317 16.8002, 16.5905 16.7819, 15.8984 16.7693 L 15.6064 16.7693 C 15.0024 16.7693, 14.3732 16.7911, 13.7194 16.8334 L 13.7194 16.064 C 14.0217 16.0646, 14.2839 16.0451, 14.5072 16.005, 14.7304 15.9655, 14.9457 15.8876, 15.153 15.7709, 15.493 15.5819, 15.7318 15.3043, 15.8703 14.9373 L 19.946 3.4596 C 20.009 3.27697, 20.1412 3.18824, 20.3422 3.19396 L 20.4933 3.19396 C 20.6949 3.19453, 20.8265 3.28327, 20.8895 3.4596 L 25.173 15.4502 C 25.2051 15.567, 25.2537 15.6707, 25.3196 15.7623, 25.386 15.8539, 25.4753 15.9151, 25.5881 15.9449, 25.7518 16.0067, 25.9677 16.0417, 26.235 16.0508, 26.5024 16.06, 26.7961 16.0646, 27.1167 16.064 L 27.1167 16.8334 Z M 19.8613 6.04277 L 17.8043 11.7862, 21.8897 11.7862 Z" stroke="none" fill="#000000" />
			<rect />
		</svg>
	</g>
	<g transform="matrix(1 0 -0 1 217.505 112.54)">
		<svg width="66.0351563" height="62.9142723">
			<defs />
			<path d="M 5.58416 9.06562 C 5.51546 9.2494, 5.39237 9.341, 5.21603 9.34043 L 3.46129 9.34043, 2.06494 14.7541 C 1.95216 15.1457, 1.89548 15.4875, 1.89548 15.78, 1.89548 15.8602, 1.90178 15.9363, 1.91437 16.009, 1.94586 16.3027, 2.09357 16.4493, 2.35749 16.4487, 2.5968 16.4493, 2.82294 16.384, 3.03706 16.2523, 3.25118 16.1212, 3.45213 15.9455, 3.64106 15.7256, 3.82999 15.5058, 3.99945 15.2464, 4.15059 14.947, 4.30174 14.6482, 4.43971 14.3333, 4.56509 14.0029, 4.58456 13.9302, 4.6252 13.877, 4.68818 13.8432, 4.75116 13.81, 4.8107 13.7928, 4.86738 13.7923 L 5.10325 13.7923 C 5.18512 13.7928, 5.25096 13.8266, 5.30134 13.893, 5.32023 13.9365, 5.32939 13.976, 5.32939 14.0121 L 5.32939 14.0671 C 5.19771 14.4277, 5.03226 14.7838, 4.83417 15.1348, 4.63608 15.4863, 4.40822 15.8023, 4.15059 16.0829, 3.89296 16.364, 3.60785 16.5958, 3.29641 16.7785, 2.98496 16.9617, 2.64089 17.0533, 2.26303 17.0533, 1.93613 17.0533, 1.65331 16.9909, 1.414 16.8655, 1.17526 16.7407, 0.983469 16.5672, 0.838624 16.3439, 0.694352 16.1212, 0.609048 15.8659, 0.583858 15.5785, 0.571262 15.5058, 0.564965 15.4262, 0.564965 15.3403, 0.564965 15.1331, 0.590155 14.9224, 0.640536 14.7083 L 2.02715 9.34043, 0.25352 9.34043 C 0.0966519 9.341, 0.0113479 9.25856, -0.00124732 9.0931 L -0.00124732 9.01982, 0.0554311 8.8641 C 0.118407 8.68147, 0.235199 8.58987, 0.404662 8.58929 L 2.20635 8.58929, 2.98038 5.58476 C 3.03706 5.35919, 3.15156 5.19145, 3.32446 5.08153, 3.49736 4.9716, 3.67198 4.91664, 3.84831 4.91607, 4.03094 4.91664, 4.18208 4.97447, 4.30116 5.09011, 4.38303 5.17027, 4.42368 5.28019, 4.42368 5.41988, 4.42368 5.48744, 4.41738 5.55499, 4.40479 5.6214 L 3.64049 8.58929, 5.37691 8.58929 C 5.54065 8.58987, 5.62194 8.67231, 5.62194 8.83662 L 5.62194 8.90074 Z" stroke="none" fill="#000000" />
			<path d="M 6.95778 21.2028 C 6.91427 21.3253, 6.8324 21.4135, 6.71275 21.4685, 6.63718 21.4994, 6.5679 21.5143, 6.50493 21.5143, 6.46141 21.5143, 6.4076 21.5085, 6.34462 21.496, 6.11848 21.4169, 6.00512 21.2795, 6.00512 21.0837, 6.00512 21.0231, 6.02115 20.9555, 6.05207 20.8822 L 12.7418 2.88251 C 12.7859 2.76114, 12.8707 2.66611, 12.9966 2.59855, 13.0659 2.5808, 13.1289 2.57164, 13.185 2.57107, 13.2296 2.57164, 13.2863 2.57794, 13.355 2.58939, 13.5817 2.66954, 13.6916 2.80694, 13.6853 3.0016, 13.6853 3.06343, 13.6699 3.13041, 13.6378 3.20312 Z" stroke="none" fill="#000000" />
			<path d="M 20.467 14.3144 C 20.467 14.6877, 20.4012 15.0524, 20.2689 15.4096, 20.1372 15.7668, 19.9139 16.0766, 19.5991 16.3388, 19.2596 16.6079, 18.884 16.7911, 18.4718 16.8884, 18.0602 16.9863, 17.6434 17.035, 17.222 17.035, 16.7566 17.035, 16.3506 16.9588, 16.0049 16.806, 15.6591 16.6537, 15.3762 16.4676, 15.1558 16.2472 L 14.5524 16.9434 C 14.502 16.9983, 14.4264 17.0292, 14.3257 17.035 L 14.2696 17.035 C 14.0806 17.035, 13.9862 16.9405, 13.9862 16.751 L 13.9862 13.7281 C 13.9862 13.5942, 14.0589 13.5089, 14.2032 13.4717, 14.2478 13.4602, 14.2885 13.4539, 14.3257 13.4533, 14.3761 13.4539, 14.4236 13.4631, 14.4677 13.4808, 14.5621 13.518, 14.6251 13.5821, 14.656 13.6732, 14.8198 14.5102, 15.0997 15.1795, 15.4959 15.6798, 15.8921 16.1808, 16.4674 16.431, 17.222 16.4304, 17.5243 16.431, 17.8163 16.4023, 18.0991 16.3439, 18.3819 16.2861, 18.6275 16.1716, 18.8348 15.9999, 19.0048 15.8602, 19.1308 15.6878, 19.2121 15.4829, 19.2939 15.2785, 19.3346 15.0569, 19.3346 14.8182, 19.3346 14.4277, 19.1806 14.094, 18.8726 13.8157, 18.5645 13.5381, 18.1844 13.3531, 17.731 13.261 L 16.4297 12.9953 C 16.1153 12.9346, 15.8119 12.839, 15.5194 12.7074, 15.2274 12.5763, 14.9692 12.4142, 14.7459 12.2219, 14.5226 12.0295, 14.3406 11.8022, 14.1986 11.5394, 14.0572 11.2772, 13.9862 10.987, 13.9862 10.6686, 13.9862 10.3211, 14.0606 9.98679, 14.2083 9.66618, 14.356 9.34558, 14.5776 9.08165, 14.873 8.87326, 15.2188 8.61734, 15.5995 8.45132, 16.0146 8.3746, 16.4297 8.29846, 16.8321 8.2601, 17.222 8.25953, 17.9388 8.2601, 18.5176 8.42498, 18.9573 8.75418 L 19.4479 8.31449 C 19.5235 8.27842, 19.5865 8.2601, 19.6369 8.25953 L 19.7027 8.25953 C 19.8916 8.2601, 19.9855 8.3454, 19.9855 8.51601 L 19.9855 10.9526 C 19.9855 11.1364, 19.8916 11.2309, 19.7027 11.2366 L 19.5991 11.2366 C 19.4107 11.2372, 19.3162 11.1427, 19.3162 10.9526, 19.3162 10.2874, 19.1359 9.76122, 18.7741 9.37306, 18.4123 8.98547, 17.8953 8.79139, 17.222 8.79082, 16.9329 8.79139, 16.6484 8.81601, 16.3684 8.86467, 16.0884 8.91391, 15.8383 9.01409, 15.6184 9.16638, 15.2852 9.3868, 15.118 9.7137, 15.118 10.1465, 15.118 10.4648, 15.2629 10.7368, 15.552 10.9623, 15.8417 11.1885, 16.2064 11.3442, 16.6466 11.4289 L 17.9388 11.6671 C 18.2789 11.7289, 18.6023 11.8389, 18.9103 11.9974, 19.2183 12.1566, 19.4874 12.3472, 19.717 12.57, 19.9466 12.7932, 20.1292 13.0554, 20.2643 13.3577, 20.3994 13.66, 20.467 13.9789, 20.467 14.3144 Z" stroke="none" fill="#000000" />
			<rect />
		</svg>
	</g>
	<g transform="matrix(1 0 -0 1 25.4063 172.951)">
		<svg width="113.890419" height="86.9571228">
			<defs />
			<polyline points="-4.07092 0 4.07092 0" fill="none" stroke="#000000" stroke-width="0.750400007" stroke-linecap="round" stroke-linejoin="round" transform="matrix(1 0 0 1 4.07092 11.2074)" />
			<path d="M 22.0896 13.3826 C 22.0896 13.8977, 21.9757 14.392, 21.7479 14.8644, 21.5201 15.3374, 21.2149 15.7413, 20.8322 16.0757, 20.4008 16.4533, 19.9244 16.7327, 19.4038 16.9151, 18.8831 17.098, 18.3389 17.1888, 17.7717 17.1888, 17.26 17.1888, 16.7612 17.117, 16.2742 16.9734, 15.7872 16.8298, 15.3484 16.6239, 14.9568 16.3546, 14.5652 16.0852, 14.2527 15.7548, 14.0182 15.3626, 13.7837 14.971, 13.6664 14.5204, 13.6664 14.011, 13.6664 13.6284, 13.7943 13.3428, 14.0502 13.1543, 14.306 12.9658, 14.5759 12.8715, 14.8592 12.8709, 15.1554 12.8715, 15.4309 12.9658, 15.6868 13.1543, 15.9426 13.3428, 16.0705 13.6284, 16.0705 14.011, 16.0705 14.2388, 16.0262 14.429, 15.9364 14.5816, 15.8472 14.7342, 15.7333 14.8616, 15.5942 14.9631, 15.4556 15.0652, 15.2968 15.1275, 15.1179 15.1511, 15.0258 15.1758, 14.9394 15.1875, 14.8592 15.187, 14.7795 15.1875, 14.7672 15.1937, 14.8222 15.2049, 15.0135 15.5405, 15.3894 15.8373, 15.9505 16.0942, 16.5115 16.3517, 17.1186 16.4802, 17.7717 16.4797, 18.0802 16.4802, 18.3681 16.4039, 18.6363 16.2513, 18.9044 16.0987, 19.1283 15.8939, 19.3067 15.6358, 19.5289 15.3014, 19.6798 14.9424, 19.7601 14.5592, 19.8403 14.1765, 19.8801 13.7843, 19.8801 13.3826, 19.8801 12.9702, 19.8403 12.5741, 19.7601 12.1937, 19.6798 11.8139, 19.5289 11.4621, 19.3067 11.1384, 19.1216 10.8758, 18.8966 10.6632, 18.6318 10.5016, 18.3669 10.34, 18.0802 10.2592, 17.7717 10.2586 L 16.4313 10.2586 C 16.2529 10.2592, 16.1569 10.1756, 16.1446 10.0073 L 16.1446 9.90854 C 16.1446 9.83728, 16.1665 9.78062, 16.2091 9.73798, 16.2647 9.68468, 16.3354 9.65775, 16.4218 9.65718, 16.6007 9.63362, 16.7859 9.62184, 16.9766 9.62128, 17.1618 9.62184, 17.3436 9.61005, 17.522 9.58537, 17.8553 9.5618, 18.1448 9.45913, 18.3916 9.27623, 18.6385 9.09388, 18.845 8.86048, 19.011 8.57602, 19.1771 8.29213, 19.3034 7.96447, 19.3898 7.59305, 19.4762 7.22219, 19.5194 6.84179, 19.5194 6.45241, 19.5194 6.16571, 19.4885 5.8936, 19.4268 5.63607, 19.3651 5.37911, 19.2512 5.15412, 19.0845 4.96224, 18.7395 4.56781, 18.3019 4.37313, 17.7717 4.37874, 17.205 4.3793, 16.6855 4.4859, 16.2142 4.69798, 15.7429 4.91062, 15.4264 5.13953, 15.266 5.38415, 15.2233 5.39089, 15.2447 5.39369, 15.3311 5.39313, 15.5532 5.39369, 15.7625 5.45934, 15.9594 5.59062, 16.2557 5.76455, 16.4032 6.05799, 16.4032 6.47037, 16.4032 6.81822, 16.291 7.08024, 16.066 7.25641, 15.8411 7.43314, 15.5897 7.52123, 15.3125 7.52067, 15.041 7.52123, 14.7868 7.43483, 14.5495 7.2609, 14.3122 7.08753, 14.1932 6.82383, 14.1932 6.47037, 14.1932 6.03386, 14.2981 5.64841, 14.508 5.3129, 14.7178 4.97795, 14.9871 4.69069, 15.317 4.45111, 15.6469 4.2121, 16.0273 4.0292, 16.4588 3.90352, 16.8908 3.77784, 17.3284 3.715, 17.7717 3.71444, 18.2463 3.715, 18.7058 3.77784, 19.1496 3.90352, 19.5934 4.0292, 20.0125 4.22388, 20.407 4.48646, 20.7279 4.71425, 20.9972 4.99422, 21.216 5.32637, 21.4348 5.65851, 21.5442 6.03386, 21.5442 6.45241, 21.5442 6.87208, 21.469 7.26707, 21.3181 7.63793, 21.1672 8.00935, 20.9669 8.34431, 20.7172 8.64335, 20.4676 8.94296, 20.1702 9.20609, 19.8246 9.43332, 19.4795 9.66111, 19.2203 9.80418, 19.0475 9.86365, 19.1956 9.88217, 19.4487 9.97082, 19.8061 10.129, 20.164 10.2878, 20.5057 10.4988, 20.8322 10.7613, 21.2149 11.0913, 21.5201 11.4846, 21.7479 11.9424, 21.9757 12.4002, 22.0896 12.8805, 22.0896 13.3826 Z" stroke="none" fill="#000000" />
			<rect />
		</svg>
	</g>
	<g transform="matrix(1 0 -0 1 38.9543 38.2256)">
		<svg width="30.0150681" height="47.9999886">
			<defs />
			<path d="M 8.18297 12.7991 C 8.18297 13.386, 8.07244 13.9459, 7.85026 14.4784, 7.62864 15.0114, 7.30827 15.49, 6.8886 15.9141, 6.46332 16.3276, 5.98417 16.6435, 5.45117 16.8612, 4.91816 17.08, 4.35317 17.1888, 3.75508 17.1888, 3.23779 17.1888, 2.75528 17.0918, 2.30867 16.8971, 1.86207 16.703, 1.47382 16.437, 1.14391 16.0987, 0.81401 15.761, 0.555362 15.3688, 0.366846 14.9227, 0.178891 14.4772, 0.0846326 14.0026, 0.0846326 13.4993, 0.0846326 13.1526, 0.200211 12.8911, 0.431367 12.7144, 0.662524 12.5382, 0.901535 12.4496, 1.14784 12.449, 1.40705 12.4496, 1.65055 12.5365, 1.87834 12.7099, 2.10669 12.8838, 2.22059 13.147, 2.22059 13.4993, 2.22059 13.7153, 2.1729 13.8966, 2.07752 14.043, 1.98214 14.19, 1.86487 14.3033, 1.72573 14.3841, 1.58715 14.4649, 1.43174 14.5115, 1.25893 14.5227 L 1.14784 14.5227, 0.963252 14.5227 C 1.1052 15.026, 1.4351 15.4782, 1.9524 15.8788, 2.47026 16.2799, 3.07115 16.4802, 3.75508 16.4797, 4.11248 16.4802, 4.4609 16.3877, 4.79978 16.2019, 5.13866 16.0168, 5.41582 15.7711, 5.63127 15.4653, 5.88431 15.1006, 6.04645 14.6865, 6.11714 14.2225, 6.18784 13.7591, 6.22319 13.2844, 6.22319 12.7991, 6.22319 12.3088, 6.20804 11.838, 6.17718 11.3858, 6.14632 10.9342, 6.02008 10.5078, 5.7979 10.106, 5.638 9.81316, 5.43321 9.56966, 5.18354 9.37497, 4.93387 9.18085, 4.65502 9.08322, 4.34644 9.08266, 3.76126 9.08322, 3.25294 9.2016, 2.82148 9.43781, 2.39003 9.67458, 2.04161 10.014, 1.77679 10.4561, 1.72124 10.5582, 1.63203 10.6093, 1.5086 10.6087 L 1.43454 10.6087 C 1.21909 10.6093, 1.11081 10.5106, 1.11081 10.3125 L 1.11081 4.01068 C 1.11081 3.85583, 1.20058 3.75708, 1.379 3.71444, 1.41042 3.715, 1.43342 3.71837, 1.44857 3.72398, 1.46428 3.73015, 1.47774 3.73296, 1.49009 3.7324, 2.38385 4.13972, 3.30511 4.34339, 4.25387 4.34283, 5.21552 4.34339, 6.13734 4.13972, 7.01821 3.7324, 7.03055 3.73296, 7.04289 3.73015, 7.05524 3.72398, 7.06758 3.71837, 7.08609 3.715, 7.11078 3.71444, 7.31388 3.715, 7.41263 3.80758, 7.40646 3.99273, 7.40646 4.10101, 7.38794 4.17283, 7.35091 4.20817, 6.91329 4.80739, 6.35728 5.27587, 5.68232 5.61363, 5.00793 5.95195, 4.29146 6.12083, 3.5329 6.12027, 2.90452 6.12083, 2.36253 6.04901, 1.90583 5.90482 L 1.90583 9.33401 C 2.12184 9.10735, 2.44725 8.90536, 2.88151 8.72863, 3.31577 8.55246, 3.80446 8.46381, 4.34644 8.46325, 4.87664 8.46381, 5.37767 8.58388, 5.84896 8.82289, 6.32025 9.06246, 6.73487 9.37329, 7.09227 9.75593, 7.462 10.1874, 7.73636 10.6648, 7.91478 11.1883, 8.09376 11.7123, 8.18297 12.2493, 8.18297 12.7991 Z" stroke="none" fill="#000000" />
			<rect />
		</svg>
	</g>
	<g transform="matrix(1 0 -0 1 99.8394 146.288)">
		<svg width="30.0150681" height="47.9999886">
			<defs />
			<path d="M 8.50823 13.3826 C 8.50823 13.8977, 8.39434 14.392, 8.16655 14.8644, 7.93876 15.3374, 7.63354 15.7413, 7.2509 16.0757, 6.82 16.4533, 6.34366 16.7327, 5.823 16.9151, 5.30234 17.098, 4.75811 17.1888, 4.19088 17.1888, 3.67975 17.1888, 3.18097 17.117, 2.69397 16.9734, 2.20697 16.8298, 1.76822 16.6239, 1.3766 16.3546, 0.984985 16.0852, 0.672475 15.7548, 0.437952 15.3626, 0.20399 14.971, 0.0867284 14.5204, 0.0867284 14.011, 0.0867284 13.6284, 0.21465 13.3428, 0.470493 13.1543, 0.726336 12.9658, 0.995645 12.8715, 1.27898 12.8709, 1.57522 12.8715, 1.8507 12.9658, 2.10654 13.1543, 2.36239 13.3428, 2.49031 13.6284, 2.49031 14.011, 2.49031 14.2388, 2.44598 14.429, 2.35621 14.5816, 2.26701 14.7342, 2.15311 14.8616, 2.01397 14.9631, 1.87539 15.0652, 1.71661 15.1275, 1.53819 15.1511, 1.44618 15.1758, 1.35977 15.1875, 1.27898 15.187, 1.19931 15.1875, 1.18697 15.1937, 1.24195 15.2049, 1.43327 15.5405, 1.80918 15.8373, 2.37024 16.0942, 2.9313 16.3517, 3.53781 16.4802, 4.19088 16.4797, 4.49946 16.4802, 4.78728 16.4039, 5.05547 16.2513, 5.32366 16.0987, 5.54752 15.8939, 5.72594 15.6358, 5.94812 15.3014, 6.09904 14.9424, 6.17871 14.5592, 6.25894 14.1765, 6.29878 13.7843, 6.29878 13.3826, 6.29878 12.9702, 6.25894 12.5741, 6.17871 12.1937, 6.09904 11.8139, 5.94812 11.4621, 5.72594 11.1384, 5.54079 10.8758, 5.3158 10.6632, 5.05098 10.5016, 4.78616 10.34, 4.49946 10.2592, 4.19088 10.2586 L 2.85051 10.2586 C 2.67209 10.2592, 2.57671 10.1756, 2.56437 10.0073 L 2.56437 9.90854 C 2.56437 9.83728, 2.58625 9.78062, 2.62889 9.73798, 2.68443 9.68468, 2.75513 9.65775, 2.84153 9.65718, 3.02051 9.63362, 3.2051 9.62184, 3.39586 9.62128, 3.58101 9.62184, 3.76335 9.61005, 3.94177 9.58537, 4.27448 9.5618, 4.56398 9.45913, 4.81029 9.27623, 5.05715 9.09388, 5.26362 8.86048, 5.4297 8.57602, 5.59633 8.29213, 5.72257 7.96447, 5.80897 7.59305, 5.89538 7.22219, 5.93858 6.84179, 5.93858 6.45241, 5.93858 6.16571, 5.90772 5.8936, 5.846 5.63607, 5.78429 5.37911, 5.67039 5.15412, 5.50376 4.96224, 5.15871 4.56781, 4.72108 4.37313, 4.19088 4.37874, 3.62421 4.3793, 3.10523 4.4859, 2.63394 4.69798, 2.16265 4.91062, 1.84621 5.13953, 1.68575 5.38415, 1.64311 5.39089, 1.66443 5.39369, 1.75083 5.39313, 1.97301 5.39369, 2.18229 5.45934, 2.37922 5.59062, 2.67546 5.76455, 2.82302 6.05799, 2.82302 6.47037, 2.82302 6.81822, 2.7108 7.08024, 2.48582 7.25641, 2.26083 7.43314, 2.00948 7.52123, 1.73232 7.52067, 1.46132 7.52123, 1.20716 7.43483, 0.969836 7.2609, 0.732508 7.08753, 0.613563 6.82383, 0.613563 6.47037, 0.613563 6.03386, 0.718481 5.64841, 0.927757 5.3129, 1.13759 4.97795, 1.4069 4.69069, 1.7368 4.45111, 2.06671 4.2121, 2.44711 4.0292, 2.87856 3.90352, 3.31002 3.77784, 3.74764 3.715, 4.19088 3.71444, 4.66553 3.715, 5.12504 3.77784, 5.56884 3.90352, 6.01264 4.0292, 6.43175 4.22388, 6.82561 4.48646, 7.14654 4.71425, 7.41585 4.99422, 7.63466 5.32637, 7.85348 5.65851, 7.96288 6.03386, 7.96288 6.45241, 7.96288 6.87208, 7.8877 7.26707, 7.73677 7.63793, 7.58585 8.00935, 7.38555 8.34431, 7.13588 8.64335, 6.88621 8.94296, 6.58885 9.20609, 6.2438 9.43332, 5.89874 9.66111, 5.63953 9.80418, 5.46673 9.86365, 5.61485 9.88217, 5.86789 9.97082, 6.22528 10.129, 6.58268 10.2878, 6.92436 10.4988, 7.2509 10.7613, 7.63354 11.0913, 7.93876 11.4846, 8.16655 11.9424, 8.39434 12.4002, 8.50823 12.8805, 8.50823 13.3826 Z" stroke="none" fill="#000000" />
			<rect />
		</svg>
	</g>
	<g transform="matrix(1 0 -0 1 177.288 146.288)">
		<svg width="30.0150681" height="47.9999886">
			<defs />
			<path d="M 8.77761 4.62111 C 8.77761 4.65758, 8.76246 4.70864, 8.7316 4.77372 L 5.95828 8.57097 C 5.60089 9.06807, 5.32204 9.61735, 5.12174 10.2188, 4.92144 10.8203, 4.77837 11.452, 4.69197 12.1129, 4.60557 12.7744, 4.55171 13.4494, 4.52982 14.1372, 4.5085 14.8257, 4.49728 15.5197, 4.49728 16.2193, 4.49728 16.5431, 4.39124 16.7883, 4.1786 16.9554, 3.96652 17.1232, 3.73368 17.2068, 3.48064 17.2068, 3.22817 17.2068, 2.99869 17.1232, 2.79222 16.9554, 2.58575 16.7883, 2.48252 16.5431, 2.48252 16.2193, 2.48252 14.7595, 2.73668 13.3551, 3.245 12.0052, 3.75332 10.6559, 4.43893 9.38844, 5.30184 8.20292 L 7.05796 5.82403, 3.73031 5.82403 C 3.31176 5.82459, 2.92183 5.82795, 2.56107 5.83356, 2.20087 5.83974, 1.89397 5.8504, 1.64149 5.86498, 1.38901 5.88013, 1.25941 5.89023, 1.25268 5.89584, 1.19096 5.95026, 1.1371 6.04003, 1.09109 6.16571, 1.04508 6.29139, 1.00188 6.43839, 0.961485 6.60558, 0.92165 6.77334, 0.886303 6.94671, 0.855445 7.12624, 0.824587 7.30578, 0.793728 7.4971, 0.76287 7.70021 L 0.0789385 7.70021, 0.744355 3.51695, 1.41931 3.51695, 1.41931 3.69649 C 1.41931 3.76269, 1.45634 3.82553, 1.52984 3.885, 1.65944 3.96916, 1.79522 4.02302, 1.93661 4.04659, 2.10324 4.07128, 2.30691 4.09372, 2.54704 4.11448, 2.78717 4.1358, 3.0447 4.14926, 3.31906 4.15487, 3.59342 4.16105, 3.8689 4.16385, 4.14606 4.16329 L 8.77761 4.16329, 8.77761 4.62111 Z" stroke="none" fill="#000000" />
			<rect />
		</svg>
	</g>
	<path d="M -62.5638 0 L 62.564 0" fill="none" stroke="#000000" stroke-opacity="0.505882323" stroke-width="2.9333334" stroke-linecap="round" stroke-linejoin="round" stroke-dasharray="10.2813, 7.31867" transform="matrix(0.454545 0 0 0.454545 84.0606 184.158)" />
	<path d="M -86.2015 0 L -6.68033 0" fill="none" stroke="#000000" stroke-width="2.9333334" stroke-linecap="round" stroke-linejoin="round" transform="matrix(0.454545 0 -0 0.454545 197.043 42.6149)" />
	<path d="M 6.68033 0 L 86.2015 0" fill="none" stroke="#000000" stroke-width="2.9333334" stroke-linecap="round" stroke-linejoin="round" transform="matrix(0.454545 0 -0 0.454545 197.043 42.6149)" />
	<path d="M 6.68033 -24.0492 L 6.68033 24.0492" fill="none" stroke="#000000" stroke-width="2.9333334" stroke-linecap="round" stroke-linejoin="round" transform="matrix(0.454545 0 -0 0.454545 197.043 42.6149)" />
	<path d="M -6.68033 -24.0492 L -6.68033 24.0492" fill="none" stroke="#000000" stroke-width="2.9333334" stroke-linecap="round" stroke-linejoin="round" transform="matrix(0.454545 0 -0 0.454545 197.043 42.6149)" />
	<g transform="matrix(1 0 -0 1 209.454 16.2249)">
		<svg width="41.9788857" height="47.9999886">
			<defs />
			<path d="M 11.6652 8.71754 C 11.6274 8.88929, 11.5175 8.97746, 11.3348 8.98318 L 11.127 8.98318 C 10.9827 8.98375, 10.9037 8.91047, 10.8911 8.76334 L 10.8911 8.69006 C 10.9541 8.3059, 10.989 7.93663, 10.9953 7.58168, 10.9953 7.38073, 10.989 7.17634, 10.9764 6.96795, 10.9135 6.43093, 10.7721 5.95632, 10.5522 5.54411, 10.3324 5.13191, 10.0364 4.80214, 9.6654 4.55482, 9.29441 4.30749, 8.84156 4.18383, 8.30684 4.18326, 7.65303 4.18383, 6.99579 4.34299, 6.33511 4.66016, 5.67501 4.9779, 5.07788 5.40213, 4.54316 5.93285, 3.92084 6.56261, 3.43363 7.25878, 3.08097 8.02194, 2.72887 8.78566, 2.45235 9.56371, 2.25083 10.3572, 2.03098 11.1639, 1.90503 11.9453, 1.87354 12.7022 L 1.87354 12.9587 C 1.87354 13.6251, 2.00579 14.2325, 2.26972 14.7816, 2.52162 15.3014, 2.88918 15.7199, 3.37352 16.0371, 3.85786 16.3548, 4.43323 16.5134, 5.09964 16.5128, 5.64066 16.5134, 6.17195 16.3978, 6.69408 16.1653, 7.2162 15.9334, 7.69539 15.6203, 8.13222 15.2264, 8.56962 14.8325, 8.95148 14.3762, 9.27838 13.857, 9.60586 13.3383, 9.84173 12.7881, 9.98601 12.2076, 10.0238 12.0369, 10.1337 11.9516, 10.3158 11.9511 L 10.5236 11.9511 C 10.681 11.9516, 10.7658 12.0186, 10.7784 12.1526, 10.7784 12.1898, 10.7692 12.2236, 10.7497 12.2534, 10.5803 12.9255, 10.3003 13.5638, 9.91043 14.1684, 9.52056 14.773, 9.05682 15.3031, 8.51924 15.7577, 7.98165 16.2128, 7.39196 16.5758, 6.75075 16.8472, 6.10954 17.1191, 5.44887 17.2548, 4.7693 17.2548, 3.90137 17.2548, 3.12963 17.0733, 2.4535 16.7103, 1.77793 16.3474, 1.2289 15.8447, 0.80753 15.2029, 0.367843 14.5136, 0.109641 13.7499, 0.0340694 12.9129, 0.00887895 12.6873, -0.00371623 12.4526, -0.00371623 12.2076, -0.00371623 11.5915, 0.0752901 10.9623, 0.232158 10.3206, 0.471467 9.42344, 0.850468 8.55781, 1.36916 7.72423, 1.88786 6.89066, 2.53708 6.13208, 3.31684 5.44736, 4.05309 4.82504, 4.85002 4.33039, 5.70821 3.96399, 6.56698 3.59758, 7.42689 3.41438, 8.28794 3.41381, 8.97381 3.41438, 9.56006 3.56552, 10.0473 3.86781, 10.535 4.17009, 10.8946 4.53478, 11.127 4.96187 L 12.4009 3.54205 C 12.4512 3.45732, 12.5365 3.41438, 12.6556 3.41381 L 12.7306 3.41381 C 12.8818 3.41438, 12.9573 3.48766, 12.9573 3.63365 L 12.9573 3.70693 Z" stroke="none" fill="#000000" />
			<rect />
		</svg>
	</g>
	<path d="M -27.6669 0 L 27.6668 0" fill="none" stroke="#000000" stroke-width="2.9333334" stroke-linecap="round" stroke-linejoin="round" marker-end="url(#CustomMarker-03)" transform="matrix(0.454545 0 0 0.454545 170.436 42.6149)" />
	<g transform="matrix(1 0 -0 1 171.45 16.2249)">
		<svg width="18.0512524" height="45.0428467">
			<defs />
			<path d="M 4.85632 5.20004 C 4.79964 5.43248, 4.66911 5.62656, 4.46472 5.78228, 4.26033 5.938, 4.03877 6.01586, 3.79946 6.01529, 3.54813 6.01586, 3.35634 5.93056, 3.22409 5.75881, 3.1365 5.66148, 3.08955 5.5424, 3.08268 5.40156, 3.08268 5.31683, 3.09528 5.23095, 3.12047 5.14507, 3.17715 4.91378, 3.3094 4.7197, 3.51664 4.56398, 3.72447 4.40825, 3.94774 4.33039, 4.18648 4.32982, 4.43839 4.33039, 4.63018 4.41284, 4.76185 4.57715, 4.85002 4.69394, 4.8941 4.81874, 4.8941 4.95271, 4.8941 5.03859, 4.88151 5.12103, 4.85632 5.20004 Z M 4.95994 14.0854 C 4.89124 14.4037, 4.78418 14.738, 4.63934 15.089, 4.49506 15.4405, 4.31701 15.7594, 4.10633 16.0462, 3.89565 16.3336, 3.64889 16.5729, 3.36607 16.7647, 3.08325 16.9571, 2.75578 17.0533, 2.38479 17.0533, 2.07048 17.0533, 1.80026 16.9863, 1.57355 16.8518, 1.3474 16.7178, 1.17279 16.5409, 1.05027 16.321, 0.927755 16.1012, 0.865924 15.8567, 0.865924 15.5877, 0.853329 15.5762, 0.847031 15.5516, 0.847031 15.5144, 0.847031 15.2401, 0.907145 14.959, 1.02623 14.6716 L 2.55426 10.6412 C 2.74318 10.1351, 2.83765 9.71943, 2.83765 9.39539, 2.83765 9.12116, 2.72143 8.98375, 2.48842 8.98318, 2.27487 8.98375, 2.08308 9.04501, 1.91304 9.16696, 1.74358 9.28947, 1.58786 9.45894, 1.44645 9.67535, 1.30504 9.89233, 1.17794 10.1488, 1.06459 10.4448, 0.951228 10.7414, 0.856764 11.0568, 0.781193 11.3923, 0.712492 11.5578, 0.5957 11.6431, 0.431962 11.6488 L 0.224713 11.6488 C 0.0735708 11.6494, -0.00200051 11.5732, -0.00200051 11.4198 L -0.00200051 11.3557 C 0.0735708 11.0202, 0.186928 10.6772, 0.33807 10.3257, 0.489213 9.97477, 0.671271 9.65588, 0.884817 9.36848, 1.09894 9.08165, 1.3474 8.84349, 1.63022 8.65399, 1.91304 8.46506, 2.23709 8.37002, 2.60177 8.36945, 2.91665 8.37002, 3.18402 8.43758, 3.40386 8.57155, 3.6237 8.70609, 3.79202 8.88471, 3.90824 9.10742, 4.02503 9.33069, 4.08915 9.58203, 4.10175 9.86256 L 4.10175 9.92668 C 4.10175 10.19, 4.04851 10.4614, 3.94087 10.7419 L 2.41285 14.7907 C 2.23709 15.2859, 2.14892 15.7073, 2.14892 16.0548, 2.13632 16.0674, 2.13003 16.0674, 2.13003 16.0548, 2.13003 16.3182, 2.24968 16.4493, 2.48842 16.4487, 2.70254 16.4493, 2.89547 16.3852, 3.06837 16.2569, 3.24127 16.1287, 3.39871 15.9581, 3.54012 15.7439, 3.6821 15.5304, 3.80633 15.2739, 3.91282 14.9745, 4.01988 14.6756, 4.11721 14.3608, 4.20537 14.0304, 4.24316 13.8724, 4.35308 13.7928, 4.53514 13.7923 L 4.74296 13.7923 C 4.81223 13.7928, 4.88151 13.814, 4.95021 13.8564, 4.96967 13.9056, 4.98513 13.9486, 4.99773 13.9846, 4.99773 14.0218, 4.98513 14.0556, 4.95994 14.0854 Z" stroke="none" fill="#000000" />
			<rect />
		</svg>
	</g>
	<g transform="matrix(1 0 -0 1 192.322 52.2517)">
		<svg width="32.9738617" height="32.9571342">
			<defs />
			<path d="M 9.41235 14.0854 C 9.34365 14.3671, 9.26178 14.6785, 9.16732 15.0203, 9.07285 15.3627, 8.9469 15.6798, 8.79003 15.973, 8.63316 16.2661, 8.43507 16.5197, 8.19577 16.7332, 7.95646 16.9468, 7.65761 17.0533, 7.29922 17.0533, 6.85953 17.0533, 6.504 16.9405, 6.23378 16.7149, 5.96355 16.4894, 5.79638 16.2569, 5.7334 16.0182, 5.51986 16.2815, 5.2336 16.5197, 4.87521 16.7332, 4.51682 16.9468, 4.10175 17.0533, 3.63 17.0533, 3.20234 17.0533, 2.82047 16.9743, 2.48384 16.8151, 2.1472 16.6571, 1.88156 16.4126, 1.6869 16.0823, 1.49798 15.7285, 1.40695 15.338, 1.41324 14.9098 L 1.41324 14.8365 C 1.42584 14.3911, 1.48252 13.9486, 1.58271 13.5083, 1.68347 13.0875, 1.83003 12.6238, 2.02182 12.1165, 2.21361 11.6099, 2.39739 11.1181, 2.57315 10.6412, 2.76208 10.1351, 2.85654 9.71943, 2.85654 9.39539, 2.85654 9.12116, 2.74032 8.98375, 2.50731 8.98318, 2.29376 8.98375, 2.10026 9.04501, 1.92736 9.16696, 1.75446 9.28947, 1.59759 9.45894, 1.45561 9.67535, 1.3142 9.89233, 1.1871 10.1488, 1.07375 10.4448, 0.960389 10.7414, 0.865925 11.0568, 0.790353 11.3923, 0.721652 11.5578, 0.605433 11.6431, 0.441695 11.6488 L 0.224714 11.6488 C 0.0735712 11.6494, -0.00200012 11.5732, -0.00200012 11.4198 L -0.00200012 11.3557 C 0.0861664 11.0202, 0.202958 10.6772, 0.347231 10.3257, 0.492076 9.97477, 0.674706 9.65588, 0.89455 9.36848, 1.11439 9.08165, 1.3663 8.84349, 1.64912 8.65399, 1.93194 8.46506, 2.25598 8.37002, 2.62067 8.36945, 2.93555 8.37002, 3.20405 8.43758, 3.42733 8.57155, 3.65061 8.70609, 3.82007 8.88471, 3.93629 9.10742, 4.05309 9.33069, 4.11721 9.58203, 4.1298 9.86256 L 4.1298 9.92668 C 4.1298 10.19, 4.07656 10.4614, 3.9695 10.7419, 3.78744 11.2188, 3.60653 11.706, 3.42733 12.2035, 3.24814 12.7016, 3.10845 13.1488, 3.00768 13.5455, 2.90692 13.9428, 2.83765 14.3361, 2.79986 14.7266, 2.77467 14.8308, 2.75921 14.9442, 2.75234 15.0655, 2.75234 15.3043, 2.79356 15.5396, 2.87543 15.7709, 2.93211 15.9792, 3.03574 16.1441, 3.18688 16.2661, 3.33802 16.3886, 3.51722 16.4493, 3.72447 16.4487, 4.13953 16.4493, 4.50136 16.3245, 4.80937 16.0737, 5.11738 15.8235, 5.38761 15.4903, 5.62005 15.0747, 5.63264 15.0266, 5.64237 14.9699, 5.64867 14.9058, 5.65497 14.8417, 5.66413 14.7758, 5.67672 14.7083 L 7.09197 9.24883 C 7.14865 9.02326, 7.26315 8.85723, 7.43605 8.75017, 7.60894 8.64368, 7.78356 8.58987, 7.95932 8.58929, 8.14195 8.58987, 8.29309 8.64483, 8.41218 8.75418, 8.49462 8.83433, 8.53526 8.94081, 8.53526 9.07478, 8.53526 9.14234, 8.52897 9.21276, 8.51637 9.28547 L 7.10113 14.7449 C 7.00037 15.1239, 6.94999 15.46, 6.94999 15.7525, 6.94999 15.8327, 6.95628 15.918, 6.96888 16.009, 7.00094 16.3027, 7.14865 16.4493, 7.41257 16.4487, 7.67707 16.4493, 7.90493 16.2237, 8.09672 15.7714, 8.28851 15.3197, 8.47572 14.7392, 8.65778 14.0304, 8.69557 13.8724, 8.80263 13.7928, 8.97839 13.7923 L 9.19537 13.7923 C 9.26464 13.7928, 9.33392 13.814, 9.40262 13.8564, 9.42781 13.9119, 9.4404 13.9577, 9.4404 13.9938, 9.4404 14.019, 9.43124 14.0493, 9.41235 14.0854 Z" stroke="none" fill="#000000" />
			<rect />
		</svg>
	</g>
	<g transform="matrix(1 0 -0 1 168.517 53.8527)">
		<svg width="119.936646" height="119.999977">
			<defs />
			<polyline points="-5.628 0 5.628 0" fill="none" stroke="#000000" stroke-width="0.64319998" stroke-linecap="round" stroke-linejoin="round" transform="matrix(1 0 0 1 5.628 9.60638)" />
			<polyline points="0 -5.628 0 5.628" fill="none" stroke="#000000" stroke-width="0.64319998" stroke-linecap="round" stroke-linejoin="round" transform="matrix(1 0 0 1 5.628 9.60638)" />
			<rect />
		</svg>
	</g>
	<g transform="matrix(1 0 -0 1 214.313 53.8527)">
		<svg width="119.936646" height="83.9999847">
			<defs />
			<polyline points="-5.628 0 5.628 0" fill="none" stroke="#000000" stroke-width="0.64319998" stroke-linecap="round" stroke-linejoin="round" transform="matrix(1 0 0 1 5.628 9.60638)" />
			<rect />
		</svg>
	</g>
</svg>
