<?xml version="1.0"?>
<svg xmlns="http://www.w3.org/2000/svg" xmlns:xlink="http://www.w3.org/1999/xlink" width="490.780823" height="101.910942">
	<defs>
		<marker id="CustomMarker-01" markerUnits="strokeWidth" markerWidth="8.25" markerHeight="13.5" viewBox="-8.25 -6.75 8.25 13.5" orient="auto-start-reverse">
			<path d="M -5.5 -4.5 L 0 -0, -5.5 4.5" fill="none" stroke="#000000" stroke-linejoin="round" />
		</marker>
		<marker id="CustomMarker-02" markerUnits="strokeWidth" markerWidth="8.25" markerHeight="13.5" viewBox="-8.25 -6.75 8.25 13.5" orient="auto-start-reverse">
			<path d="M -5.5 -4.5 L 0 -0, -5.5 4.5" fill="none" stroke="#000000" stroke-linejoin="round" />
		</marker>
	</defs>
	<path d="M -40.4235 0 L 40.4235 0" fill="none" stroke="#000000" stroke-width="1.92000008" stroke-linecap="round" stroke-linejoin="round" transform="matrix(0.833333 0 0 0.833333 43.4529 55.9253)" />
	<path d="M 10.4446 0 L -10.4445 0" fill="none" stroke="#000000" stroke-width="1.60000014" stroke-linecap="round" stroke-linejoin="round" marker-start="url(#CustomMarker-01)" transform="matrix(0.833333 0 0 0.833333 39.7686 55.9253)" />
	<g transform="matrix(1 0 -0 1 11.1802 70.496)">
		<svg width="173.966797" height="99.0428314">
			<defs />
			<path d="M 8.72448 4.3115 C 8.70559 4.39165, 8.66322 4.45864, 8.59681 4.5136, 8.53097 4.56856, 8.45082 4.59604, 8.35636 4.59547, 8.06094 4.59604, 7.77182 4.60234, 7.489 4.61436, 7.20618 4.62695, 7.00123 4.66016, 6.87527 4.71455, 6.7436 4.75806, 6.64627 4.91664, 6.58329 5.19088 L 3.93257 15.5144 C 3.90738 15.6312, 3.89479 15.7319, 3.89479 15.8167, 3.89479 15.9025, 3.91082 15.9546, 3.94173 15.9724, 4.0299 16.0279, 4.21253 16.06, 4.48905 16.0691, 4.76615 16.0783, 5.05813 16.0829, 5.36614 16.0823, 5.54247 16.0829, 5.63064 16.1562, 5.63064 16.3021, 5.63064 16.3394, 5.62434 16.3789, 5.61174 16.4212 L 5.57396 16.5678 C 5.50468 16.751, 5.38503 16.8426, 5.21557 16.8426, 4.40432 16.806, 3.58334 16.7876, 2.7532 16.7876, 1.92993 16.7876, 1.0935 16.806, 0.243893 16.8426, 0.0813007 16.8426, -0.000568226 16.7636, -0.00114073 16.6044 L -0.00114073 16.5311, 0.0366449 16.3754 C 0.0875983 16.1745, 0.210115 16.0766, 0.404769 16.0823, 0.712779 16.0829, 1.00877 16.0783, 1.29159 16.0691, 1.57441 16.06, 1.77879 16.0279, 1.90417 15.9724, 2.01753 15.9117, 2.10913 15.7468, 2.17783 15.4777 L 4.84744 5.15423 C 4.87263 5.03859, 4.88523 4.94699, 4.88523 4.87943, 4.88523 4.7884, 4.86977 4.73058, 4.83828 4.70539, 4.73752 4.6573, 4.54917 4.62695, 4.27207 4.61436, 3.99555 4.60234, 3.70929 4.59604, 3.41388 4.59547, 3.23755 4.59604, 3.14938 4.5136, 3.14938 4.34814 L 3.14938 4.28402, 3.18717 4.11914 C 3.25644 3.93651, 3.37609 3.84491, 3.54556 3.84433, 4.36997 3.86952, 5.19667 3.88155, 6.02681 3.88097, 6.86325 3.88155, 7.69339 3.86952, 8.51666 3.84433, 8.60483 3.84491, 8.6804 3.87525, 8.74337 3.93593, 8.76856 3.98517, 8.78116 4.03097, 8.78116 4.07334, 8.78116 4.11055, 8.772 4.14433, 8.75253 4.1741 Z" stroke="none" fill="#000000" />
			<polyline points="-6.566 -1.9698 6.566 -1.9698" fill="none" stroke="#000000" stroke-width="0.750400007" stroke-linecap="round" stroke-linejoin="round" transform="matrix(1 0 0 1 20.7887 11.2074)" />
			<polyline points="-6.566 1.9698 6.566 1.9698" fill="none" stroke="#000000" stroke-width="0.750400007" stroke-linecap="round" stroke-linejoin="round" transform="matrix(1 0 0 1 20.7887 11.2074)" />
			<path d="M 39.6198 16.7669 C 38.4859 16.731, 37.3823 16.7131, 36.3096 16.7131, 35.2374 16.7131, 34.1338 16.731, 32.9993 16.7669 L 32.9993 15.9949, 33.6378 15.9949 C 33.8409 15.9955, 34.0322 15.9927, 34.2106 15.9865, 34.3896 15.9809, 34.5591 15.9657, 34.7195 15.9416, 34.88 15.918, 35.0186 15.8939, 35.1353 15.8692, 35.234 15.8518, 35.3159 15.7969, 35.3804 15.7037, 35.4455 15.6111, 35.4775 15.5079, 35.4775 15.3935 L 35.4775 5.27643 C 35.1695 5.4268, 34.7902 5.54069, 34.3402 5.61812, 33.8903 5.6961, 33.3971 5.73482, 32.8607 5.73426 L 32.8607 4.97122 C 33.6008 4.97178, 34.2836 4.88369, 34.9092 4.70696, 35.5347 4.53078, 36.0756 4.19976, 36.5317 3.71444 L 36.8184 3.71444 C 37.0215 3.715, 37.1231 3.81375, 37.1231 4.01068 L 37.1231 15.3935 C 37.1231 15.5135, 37.154 15.6184, 37.2157 15.7082, 37.2774 15.798, 37.3672 15.8518, 37.4839 15.8692, 37.5826 15.8939, 37.7094 15.918, 37.8631 15.9416, 38.0174 15.9657, 38.1914 15.9809, 38.3855 15.9865, 38.5796 15.9927, 38.7692 15.9955, 38.9538 15.9949 L 39.6198 15.9949, 39.6198 16.7669 Z" stroke="none" fill="#000000" />
			<path d="M 56.8636 16.8334 C 56.0461 16.7911, 55.2572 16.7693, 54.4957 16.7693 L 54.1276 16.7693 C 53.2408 16.7819, 52.319 16.8002, 51.363 16.8243 L 51.363 16.064 C 51.6463 16.0646, 51.9011 16.0542, 52.1273 16.0325, 52.354 16.0113, 52.5549 15.9667, 52.7313 15.8991, 52.8131 15.8567, 52.8853 15.7926, 52.9482 15.7067, 52.9734 15.677, 52.986 15.6369, 52.986 15.5877, 52.986 15.5636, 52.9832 15.5361, 52.9763 15.5052 L 51.9103 12.5465, 47.2775 12.5465, 46.4004 15.0014 C 46.369 15.0753, 46.3529 15.1457, 46.3529 15.2121, 46.3529 15.2739, 46.3627 15.3346, 46.3815 15.3953, 46.4319 15.5304, 46.5138 15.6403, 46.6266 15.7251, 46.7903 15.8602, 46.9649 15.9501, 47.1504 15.9959, 47.3359 16.0417, 47.5609 16.0646, 47.8248 16.064 L 47.8248 16.8243 C 47.064 16.8002, 46.3375 16.7819, 45.6453 16.7693 L 45.3533 16.7693 C 44.7493 16.7693, 44.1201 16.7911, 43.4663 16.8334 L 43.4663 16.064 C 43.7686 16.0646, 44.0308 16.0451, 44.2541 16.005, 44.4774 15.9655, 44.6926 15.8876, 44.8999 15.7709, 45.24 15.5819, 45.4787 15.3043, 45.6172 14.9373 L 49.6929 3.4596 C 49.7559 3.27697, 49.8882 3.18824, 50.0891 3.19396 L 50.2403 3.19396 C 50.4418 3.19453, 50.5735 3.28327, 50.6364 3.4596 L 54.92 15.4502 C 54.952 15.567, 55.0007 15.6707, 55.0665 15.7623, 55.1329 15.8539, 55.2222 15.9151, 55.335 15.9449, 55.4988 16.0067, 55.7146 16.0417, 55.982 16.0508, 56.2493 16.06, 56.543 16.0646, 56.8636 16.064 L 56.8636 16.8334 Z M 49.6082 6.04277 L 47.5512 11.7862, 51.6366 11.7862 Z" stroke="none" fill="#000000" />
			<rect />
		</svg>
	</g>
	<ellipse cx="205.25149250030518" cy="538.96387958526611" rx="4.8000001907348633" ry="4.8000001907348633" stroke="none" fill="#000000" transform="matrix(0.833333 0 0 0.833333 -161.276 -393.211)" />
	<ellipse cx="205.25149869918823" cy="538.96385526657104" rx="3.2000002861022949" ry="3.2000002861022949" stroke="none" fill="#FFFFFF" transform="matrix(0.833333 0 0 0.833333 -161.276 -393.211)" />
	<path d="M -16.6296 0 L 16.6296 0" fill="none" stroke="#000000" stroke-width="1.92000008" stroke-linecap="round" stroke-linejoin="round" transform="matrix(0.833333 0 0 0.833333 190.732 55.9253)" />
	<ellipse cx="439.03989887237549" cy="538.96387958526611" rx="4.8000001907348633" ry="4.8000001907348633" stroke="none" fill="#000000" transform="matrix(0.833333 0 0 0.833333 -161.276 -393.211)" />
	<ellipse cx="439.03987455368042" cy="538.96385526657104" rx="3.2000002861022949" ry="3.2000002861022949" stroke="none" fill="#FFFFFF" transform="matrix(0.833333 0 0 0.833333 -161.276 -393.211)" />
	<g transform="matrix(1 0 -0 1 86.2941 8.99996)">
		<svg width="248.965775" height="99.0428314">
			<defs />
			<path d="M 12.7097 4.3115 C 12.6908 4.39738, 12.645 4.46665, 12.5729 4.51818, 12.5008 4.57028, 12.4235 4.59604, 12.3416 4.59547, 12.1155 4.59604, 11.8956 4.61321, 11.6815 4.64642, 11.4674 4.6802, 11.2693 4.76092, 11.0867 4.88859, 10.9361 4.98076, 10.8164 5.10156, 10.7283 5.25099, 10.6401 5.40099, 10.5743 5.56072, 10.5302 5.73133 L 8.78459 12.4915 C 8.62143 13.103, 8.37124 13.6938, 8.0346 14.2646, 7.69797 14.8359, 7.26859 15.3621, 6.74646 15.8441, 6.2873 16.2661, 5.77834 16.6067, 5.21843 16.8655, 4.65851 17.1254, 4.08944 17.2548, 3.51063 17.2548, 2.88202 17.2548, 2.32038 17.13, 1.82631 16.8792, 1.3328 16.6296, 0.934911 16.2873, 0.632625 15.8533, 0.299425 15.3896, 0.101336 14.8617, 0.0383604 14.2686, 0.0131699 14.0923, 0.000574708 13.9056, 0.000574708 13.7098, 0.000574708 13.301, 0.0509556 12.8831, 0.151717 12.4549 L 2.04787 5.15423 C 2.07306 5.03859, 2.08566 4.94699, 2.08566 4.87943, 2.08566 4.7884, 2.06676 4.73058, 2.02898 4.70539, 1.94768 4.6573, 1.77764 4.62695, 1.52002 4.61436, 1.26239 4.60234, 0.985291 4.59604, 0.689304 4.59547, 0.595412 4.59604, 0.526139 4.56569, 0.482055 4.50386, 0.44427 4.4678, 0.425377 4.422, 0.425377 4.36646, 0.425377 4.33039, 0.43511 4.29662, 0.45343 4.2657 L 0.482055 4.11914 C 0.551329 3.93651, 0.673846 3.84491, 0.849607 3.84433, 1.63623 3.86952, 2.42859 3.88155, 3.22724 3.88097, 4.02646 3.88155, 4.82511 3.86952, 5.62377 3.84433, 5.8001 3.84491, 5.88826 3.92735, 5.88826 4.09166 L 5.88826 4.16494, 5.83159 4.32066 C 5.7938 4.50444, 5.67758 4.59604, 5.48236 4.59547, 5.18694 4.59604, 4.90756 4.60234, 4.64306 4.61436, 4.37856 4.62695, 4.18677 4.65901, 4.06711 4.71054, 3.94803 4.76264, 3.85357 4.92294, 3.78429 5.19088 L 1.90646 12.4915 C 1.76219 13.0297, 1.67688 13.5455, 1.65169 14.0396, 1.6391 14.1134, 1.6328 14.1867, 1.6328 14.2594, 1.6328 14.6751, 1.71467 15.0569, 1.87841 15.4045, 2.04214 15.7348, 2.2763 16.0021, 2.58145 16.2065, 2.8866 16.4115, 3.24327 16.5134, 3.65204 16.5128, 4.10547 16.5134, 4.56004 16.4098, 5.01576 16.202, 5.47148 15.9947, 5.89456 15.7136, 6.28444 15.3586, 6.731 14.9625, 7.09454 14.5108, 7.3745 14.0035, 7.65446 13.4968, 7.86342 12.9804, 8.0014 12.4549 L 9.73782 5.67636 C 9.77561 5.56701, 9.79393 5.4508, 9.79393 5.32828 L 9.79393 5.20004 C 9.77561 5.07237, 9.72179 4.96531, 9.63362 4.87943, 9.50195 4.75176, 9.34622 4.67275, 9.16703 4.64184, 8.98783 4.6115, 8.77887 4.59604, 8.53956 4.59547, 8.44509 4.59604, 8.37582 4.56856, 8.33174 4.51302, 8.28823 4.47066, 8.2659 4.422, 8.2659 4.36646, 8.2659 4.33039, 8.27563 4.29375, 8.29395 4.25654 L 8.33174 4.1283 C 8.3512 4.04929, 8.39357 3.98231, 8.45941 3.92735, 8.52582 3.87239, 8.60253 3.84491, 8.69013 3.84433, 9.31932 3.86952, 9.95137 3.88155, 10.5869 3.88097, 11.216 3.88155, 11.8544 3.86952, 12.5019 3.84433, 12.5901 3.84491, 12.6656 3.87525, 12.7286 3.93593, 12.7538 3.98517, 12.7664 4.03097, 12.7664 4.07334, 12.7664 4.11055, 12.7572 4.14433, 12.7378 4.1741 Z" stroke="none" fill="#000000" />
			<polyline points="-6.566 -1.9698 6.566 -1.9698" fill="none" stroke="#000000" stroke-width="0.750400007" stroke-linecap="round" stroke-linejoin="round" transform="matrix(1 0 0 1 24.7722 11.2074)" />
			<polyline points="-6.566 1.9698 6.566 1.9698" fill="none" stroke="#000000" stroke-width="0.750400007" stroke-linecap="round" stroke-linejoin="round" transform="matrix(1 0 0 1 24.7722 11.2074)" />
			<polyline points="-6.566 0 6.566 0" fill="none" stroke="#000000" stroke-width="0.750400007" stroke-linecap="round" stroke-linejoin="round" transform="matrix(1 0 0 1 44.2826 11.2074)" />
			<path d="M 64.4684 12.7991 C 64.4684 13.386, 64.3579 13.9459, 64.1357 14.4784, 63.9141 15.0114, 63.5938 15.49, 63.1741 15.9141, 62.7488 16.3276, 62.2696 16.6435, 61.7366 16.8612, 61.2036 17.08, 60.6375 17.1888, 60.0394 17.1888, 59.5221 17.1888, 59.0396 17.0918, 58.5925 16.8971, 58.1459 16.703, 57.7576 16.437, 57.4277 16.0987, 57.0978 15.761, 56.8392 15.3688, 56.6512 14.9227, 56.4632 14.4772, 56.369 14.0026, 56.369 13.4993, 56.369 13.1526, 56.4846 12.8911, 56.7157 12.7144, 56.9469 12.5382, 57.1859 12.4496, 57.4322 12.449, 57.6914 12.4496, 57.9349 12.5365, 58.1627 12.7099, 58.391 12.8838, 58.5049 13.147, 58.5049 13.4993, 58.5049 13.7153, 58.4572 13.8966, 58.3619 14.043, 58.2665 14.19, 58.1492 14.3033, 58.0101 14.3841, 57.8715 14.4649, 57.7161 14.5115, 57.5433 14.5227 L 57.4322 14.5227, 57.247 14.5227 C 57.389 15.026, 57.7189 15.4782, 58.2368 15.8788, 58.7546 16.2799, 59.3555 16.4802, 60.0394 16.4797, 60.3974 16.4802, 60.7458 16.3877, 61.0847 16.2019, 61.4236 16.0168, 61.7013 15.7711, 61.9167 15.4653, 62.1692 15.1006, 62.3314 14.6865, 62.4021 14.2225, 62.4728 13.7591, 62.5081 13.2844, 62.5081 12.7991, 62.5081 12.3088, 62.493 11.838, 62.4621 11.3858, 62.4318 10.9342, 62.305 10.5078, 62.0828 10.106, 61.9229 9.81316, 61.7181 9.56966, 61.4685 9.37497, 61.2188 9.18085, 60.9399 9.08322, 60.6314 9.08266, 60.0456 9.08322, 59.5373 9.2016, 59.1058 9.43781, 58.6744 9.67458, 58.326 10.014, 58.0611 10.4561, 58.0056 10.5582, 57.9164 10.6093, 57.793 10.6087 L 57.7189 10.6087 C 57.5034 10.6093, 57.3952 10.5106, 57.3952 10.3125 L 57.3952 4.01068 C 57.3952 3.85583, 57.4849 3.75708, 57.6633 3.71444, 57.6942 3.715, 57.7172 3.71837, 57.7329 3.72398, 57.7486 3.73015, 57.7621 3.73296, 57.7744 3.7324, 58.6682 4.13972, 59.5895 4.34339, 60.5388 4.34283, 61.5004 4.34339, 62.4223 4.13972, 63.3037 3.7324, 63.316 3.73296, 63.3284 3.73015, 63.3407 3.72398, 63.3531 3.71837, 63.3716 3.715, 63.3963 3.71444, 63.5994 3.715, 63.6981 3.80758, 63.6919 3.99273, 63.6919 4.10101, 63.6734 4.17283, 63.6364 4.20817, 63.1988 4.80739, 62.6428 5.27587, 61.9678 5.61363, 61.2928 5.95195, 60.5764 6.12083, 59.8178 6.12027, 59.1894 6.12083, 58.6469 6.04901, 58.1902 5.90482 L 58.1902 9.33401 C 58.4062 9.10735, 58.7316 8.90536, 59.1659 8.72863, 59.6007 8.55246, 60.0894 8.46381, 60.6314 8.46325, 61.1616 8.46381, 61.6626 8.58388, 62.1339 8.82289, 62.6057 9.06246, 63.0203 9.37329, 63.3777 9.75593, 63.7475 10.1874, 64.0218 10.6648, 64.2003 11.1883, 64.3792 11.7123, 64.4684 12.2493, 64.4684 12.7991 Z" stroke="none" fill="#000000" />
			<path d="M 81.364 4.57714 C 81.0749 4.57772, 80.8201 4.59947, 80.6003 4.64184, 80.3805 4.68478, 80.1755 4.75806, 79.9866 4.86111, 79.6723 5.05118, 79.4335 5.33801, 79.2698 5.72216 L 74.9021 16.98 C 74.8208 17.1575, 74.6823 17.2428, 74.487 17.2365 L 74.3365 17.2365 C 74.1418 17.2365, 74.0033 17.1512, 73.9214 16.98 L 69.3465 5.19087 C 69.2961 5.07523, 69.2394 4.9716, 69.1764 4.88, 69.1135 4.7884, 69.0224 4.72142, 68.9028 4.67791, 68.7585 4.62352, 68.5558 4.59317, 68.2948 4.58688, 68.0337 4.58115, 67.7555 4.57772, 67.4595 4.57714 L 67.4595 3.81685 C 68.2713 3.86036, 69.0476 3.88154, 69.7896 3.88097, 69.903 3.88154, 70.026 3.87525, 70.1577 3.86265, 71.0193 3.86322, 71.9216 3.8512, 72.8651 3.82601 L 72.8651 4.57714 C 72.5823 4.57772, 72.3304 4.58401, 72.1106 4.59604, 71.8907 4.60863, 71.692 4.65386, 71.5157 4.73287, 71.4344 4.77638, 71.3714 4.8342, 71.3274 4.90691, 71.2959 4.95615, 71.2798 5.00195, 71.2798 5.04431, 71.2798 5.0695, 71.2833 5.09698, 71.2896 5.12675 L 74.9874 14.5984, 78.4774 5.64888 C 78.5089 5.57617, 78.5244 5.49373, 78.5244 5.40156, 78.5244 5.22522, 78.4397 5.06034, 78.2702 4.90691, 78.1259 4.77924, 77.9639 4.69222, 77.7841 4.64642, 77.6049 4.60062, 77.3771 4.57772, 77.1 4.57714 L 77.1 3.82601 C 77.8614 3.8512, 78.5782 3.86322, 79.2509 3.86265, 79.3391 3.87525, 79.4335 3.88154, 79.5337 3.88097, 80.1125 3.88154, 80.7228 3.86036, 81.364 3.81685 L 81.364 4.57714 Z" stroke="none" fill="#000000" />
			<rect />
		</svg>
	</g>
	<g transform="matrix(1 0 -0 1 59.9727 14.4472)">
		<svg width="119.936646" height="119.999977">
			<defs />
			<polyline points="-5.628 0 5.628 0" fill="none" stroke="#000000" stroke-width="0.64319998" stroke-linecap="round" stroke-linejoin="round" transform="matrix(1 0 0 1 5.628 9.60638)" />
			<polyline points="0 -5.628 0 5.628" fill="none" stroke="#000000" stroke-width="0.64319998" stroke-linecap="round" stroke-linejoin="round" transform="matrix(1 0 0 1 5.628 9.60638)" />
			<rect />
		</svg>
	</g>
	<g transform="matrix(1 0 -0 1 183.181 14.4472)">
		<svg width="119.936646" height="83.9999847">
			<defs />
			<polyline points="-5.628 0 5.628 0" fill="none" stroke="#000000" stroke-width="0.64319998" stroke-linecap="round" stroke-linejoin="round" transform="matrix(1 0 0 1 5.628 9.60638)" />
			<rect />
		</svg>
	</g>
	<path d="M -59.8411 -22.6635 L 59.8411 -22.6635, 59.8411 22.6635, -59.8411 22.6635 Z" fill="none" stroke="#000000" stroke-width="1.60000014" stroke-linecap="round" stroke-linejoin="round" transform="matrix(0.833333 0 -0 0.833333 127.007 55.9253)" />
	<g transform="matrix(1 0 -0 1 119.351 43.1168)">
		<svg width="50.9839096" height="54.0428391">
			<defs />
			<path d="M 15.3128 19.2382 C 14.3785 19.1898, 13.4769 19.1649, 12.6067 19.1649 L 12.186 19.1649 C 11.1724 19.1793, 10.119 19.2003, 9.02635 19.2277 L 9.02635 18.3588 C 9.35023 18.3595, 9.64139 18.3477, 9.89984 18.3229, 10.1589 18.2986, 10.3886 18.2476, 10.5901 18.1704, 10.6837 18.122, 10.7661 18.0487, 10.8381 17.9506, 10.8669 17.9165, 10.8813 17.8707, 10.8813 17.8145, 10.8813 17.787, 10.878 17.7556, 10.8702 17.7202 L 9.65186 14.3388, 4.35729 14.3388, 3.35491 17.1445 C 3.31892 17.2289, 3.3006 17.3093, 3.3006 17.3852, 3.3006 17.4559, 3.31172 17.5253, 3.33332 17.5946, 3.39089 17.749, 3.48446 17.8747, 3.61336 17.9715, 3.80048 18.1259, 4.00004 18.2286, 4.21204 18.281, 4.42403 18.3333, 4.68117 18.3595, 4.9828 18.3588 L 4.9828 19.2277 C 4.11324 19.2003, 3.28294 19.1793, 2.49189 19.1649 L 2.1582 19.1649 C 1.46792 19.1649, 0.748844 19.1898, 0.00163668 19.2382 L 0.00163668 18.3588 C 0.347105 18.3595, 0.646773 18.3372, 0.901949 18.2914, 1.15712 18.2463, 1.40314 18.1573, 1.64 18.0238, 2.02865 17.8079, 2.30149 17.4906, 2.45983 17.0712 L 7.11777 3.95384 C 7.18974 3.74512, 7.34088 3.6437, 7.57054 3.65024 L 7.74328 3.65024 C 7.97359 3.6509, 8.12408 3.75231, 8.19605 3.95384 L 13.0915 17.6574 C 13.1281 17.7909, 13.1838 17.9093, 13.259 18.014, 13.3349 18.1187, 13.437 18.1887, 13.5659 18.2227, 13.753 18.2934, 13.9997 18.3333, 14.3052 18.3438, 14.6108 18.3543, 14.9464 18.3595, 15.3128 18.3588 L 15.3128 19.2382 Z M 7.02093 6.90602 L 4.67004 13.4699, 9.33911 13.4699 Z" stroke="none" fill="#000000" />
			<rect />
		</svg>
	</g>
	<path d="M -40.4235 0 L 40.4235 0" fill="none" stroke="#000000" stroke-width="1.92000008" stroke-linecap="round" stroke-linejoin="round" transform="matrix(0.833333 0 0 0.833333 319.877 55.9253)" />
	<path d="M -10.4446 0 L 10.4444 0" fill="none" stroke="#000000" stroke-width="1.60000014" stroke-linecap="round" stroke-linejoin="round" marker-start="url(#CustomMarker-02)" transform="matrix(0.833333 0 0 0.833333 324.526 55.9253)" />
	<g transform="matrix(1 0 -0 1 282.58 70.496)">
		<svg width="203.940674" height="99.0428314">
			<defs />
			<path d="M 8.72362 4.3115 C 8.7053 4.39165, 8.66294 4.45864, 8.59652 4.5136, 8.53011 4.56856, 8.44996 4.59604, 8.3555 4.59547, 8.06008 4.59604, 7.77097 4.60234, 7.48757 4.61436, 7.20475 4.62695, 7.00037 4.66016, 6.87442 4.71455, 6.74274 4.75806, 6.64484 4.91664, 6.58186 5.19088 L 3.93057 15.5144 C 3.90538 15.6312, 3.89278 15.7319, 3.89278 15.8167, 3.89278 15.9025, 3.90881 15.9546, 3.9403 15.9724, 4.02847 16.0279, 4.21053 16.06, 4.48762 16.0691, 4.76472 16.0783, 5.0567 16.0829, 5.36471 16.0823, 5.54104 16.0829, 5.62921 16.1562, 5.62921 16.3021, 5.62921 16.3394, 5.62291 16.3789, 5.61031 16.4212 L 5.57253 16.5678 C 5.50325 16.751, 5.3836 16.8426, 5.21356 16.8426, 4.40232 16.806, 3.58134 16.7876, 2.7512 16.7876, 1.92736 16.7876, 1.09092 16.806, 0.241318 16.8426, 0.0787248 16.8426, -0.0031441 16.7636, -0.0037166 16.6044 L -0.0037166 16.5311, 0.034069 16.3754 C 0.0850224 16.1745, 0.207539 16.0766, 0.402193 16.0823, 0.710203 16.0829, 1.00619 16.0783, 1.28901 16.0691, 1.57183 16.06, 1.77622 16.0279, 1.90217 15.9724, 2.01553 15.9117, 2.10713 15.7468, 2.17583 15.4777 L 4.84601 5.15423 C 4.8712 5.03859, 4.8838 4.94699, 4.8838 4.87943, 4.8838 4.7884, 4.86834 4.73058, 4.83628 4.70539, 4.73609 4.6573, 4.54774 4.62695, 4.27064 4.61436, 3.99355 4.60234, 3.70729 4.59604, 3.41188 4.59547, 3.23554 4.59604, 3.14738 4.5136, 3.14738 4.34814 L 3.14738 4.28402, 3.18516 4.11914 C 3.25444 3.93651, 3.37409 3.84491, 3.54355 3.84433, 4.36797 3.86952, 5.19524 3.88155, 6.02538 3.88097, 6.86239 3.88155, 7.69253 3.86952, 8.5158 3.84433, 8.60397 3.84491, 8.67954 3.87525, 8.74251 3.93593, 8.7677 3.98517, 8.7803 4.03097, 8.7803 4.07334, 8.7803 4.11055, 8.77114 4.14433, 8.75167 4.1741 Z" stroke="none" fill="#000000" />
			<polyline points="-6.566 -1.9698 6.566 -1.9698" fill="none" stroke="#000000" stroke-width="0.750400007" stroke-linecap="round" stroke-linejoin="round" transform="matrix(1 0 0 1 20.7904 11.2074)" />
			<polyline points="-6.566 1.9698 6.566 1.9698" fill="none" stroke="#000000" stroke-width="0.750400007" stroke-linecap="round" stroke-linejoin="round" transform="matrix(1 0 0 1 20.7904 11.2074)" />
			<path d="M 39.6215 16.7669 C 38.4876 16.731, 37.384 16.7131, 36.3113 16.7131, 35.2391 16.7131, 34.1355 16.731, 33.001 16.7669 L 33.001 15.9949, 33.6395 15.9949 C 33.8426 15.9955, 34.0339 15.9927, 34.2124 15.9865, 34.3913 15.9809, 34.5608 15.9657, 34.7212 15.9416, 34.8817 15.918, 35.0203 15.8939, 35.137 15.8692, 35.2357 15.8518, 35.3176 15.7969, 35.3822 15.7037, 35.4472 15.6111, 35.4792 15.5079, 35.4792 15.3935 L 35.4792 5.27643 C 35.1712 5.4268, 34.7919 5.54069, 34.342 5.61812, 33.892 5.6961, 33.3988 5.73482, 32.8624 5.73426 L 32.8624 4.97122 C 33.6025 4.97178, 34.2853 4.88369, 34.9109 4.70696, 35.5365 4.53078, 36.0773 4.19976, 36.5335 3.71444 L 36.8202 3.71444 C 37.0233 3.715, 37.1248 3.81375, 37.1248 4.01068 L 37.1248 15.3935 C 37.1248 15.5135, 37.1557 15.6184, 37.2174 15.7082, 37.2791 15.798, 37.3689 15.8518, 37.4856 15.8692, 37.5843 15.8939, 37.7111 15.918, 37.8649 15.9416, 38.0191 15.9657, 38.1931 15.9809, 38.3872 15.9865, 38.5813 15.9927, 38.771 15.9955, 38.9556 15.9949 L 39.6215 15.9949, 39.6215 16.7669 Z" stroke="none" fill="#000000" />
			<path d="M 52.8589 16.8334 C 52.2681 16.7911, 51.7019 16.7693, 51.1608 16.7693 L 50.9158 16.7693 C 50.2872 16.7819, 49.6236 16.8002, 48.9252 16.8243 L 48.9252 16.064 C 49.1267 16.0646, 49.2836 16.0508, 49.3969 16.0233, 49.5103 15.9959, 49.5796 15.93, 49.6048 15.8258, 49.6173 15.796, 49.6236 15.7594, 49.6236 15.7159, 49.6236 15.6369, 49.5956 15.5487, 49.5383 15.4502, 49.457 15.298, 49.3626 15.1548, 49.2555 15.0197 L 47.416 12.4824, 46.2934 13.4167, 46.2934 15.4777 C 46.2934 15.5819, 46.306 15.6787, 46.3311 15.7668, 46.3563 15.8556, 46.4101 15.918, 46.4914 15.9541, 46.6111 16.0096, 46.7886 16.0417, 47.0245 16.0508, 47.2603 16.06, 47.5202 16.0646, 47.8031 16.064 L 47.8031 16.8334 C 47.0296 16.7911, 46.2905 16.7693, 45.5863 16.7693, 44.8884 16.7693, 44.1527 16.7911, 43.3787 16.8334 L 43.3787 16.064 C 43.6615 16.0646, 43.9209 16.06, 44.1567 16.0508, 44.3926 16.0417, 44.5707 16.0096, 44.6898 15.9541, 44.7653 15.918, 44.8174 15.8539, 44.8455 15.7623, 44.8741 15.6707, 44.8878 15.5762, 44.8878 15.4777 L 44.8878 5.5298 C 44.8878 5.37179, 44.8804 5.21778, 44.8644 5.06778, 44.8489 4.91836, 44.7842 4.80386, 44.6709 4.72371, 44.5644 4.651, 44.3926 4.60863, 44.1567 4.59604, 43.9209 4.58401, 43.6615 4.57772, 43.3787 4.57714 L 43.3787 3.83517, 46.35 3.61533, 46.35 12.5007, 48.9063 10.3572 C 49.0259 10.2662, 49.1267 10.1563, 49.2086 10.0274, 49.2653 9.93011, 49.2933 9.83278, 49.2933 9.73431 L 49.2933 9.62439 C 49.287 9.53966, 49.2383 9.46809, 49.1473 9.4097, 49.0563 9.35188, 48.9195 9.32268, 48.7368 9.3221 L 48.7368 8.54349 C 49.5355 8.587, 50.2935 8.60818, 51.0103 8.60761, 51.2301 8.60818, 51.4517 8.60532, 51.6749 8.59902, 51.8982 8.5933, 52.1518 8.57441, 52.4347 8.54349 L 52.4347 9.3221 C 51.9692 9.32268, 51.5255 9.42058, 51.1042 9.61523, 50.8528 9.72572, 50.6204 9.8574, 50.4063 10.0097, 50.1927 10.1625, 49.9757 10.3274, 49.7553 10.5038 L 48.4443 11.6121, 50.8494 14.9098 C 50.9942 15.0873, 51.1391 15.2711, 51.2834 15.46, 51.4282 15.6495, 51.5776 15.7897, 51.7316 15.8813, 51.8862 15.973, 52.0528 16.0268, 52.232 16.0417, 52.4112 16.0571, 52.6202 16.0646, 52.8589 16.064 L 52.8589 16.8334 Z" stroke="none" fill="#000000" />
			<path d="M 66.9111 16.8334 C 66.0936 16.7911, 65.3046 16.7693, 64.5432 16.7693 L 64.1751 16.7693 C 63.2883 16.7819, 62.3665 16.8002, 61.4104 16.8243 L 61.4104 16.064 C 61.6938 16.0646, 61.9486 16.0542, 62.1747 16.0325, 62.4014 16.0113, 62.6024 15.9667, 62.7787 15.8991, 62.8606 15.8567, 62.9327 15.7926, 62.9957 15.7067, 63.0209 15.677, 63.0335 15.6369, 63.0335 15.5877, 63.0335 15.5636, 63.0306 15.5361, 63.0238 15.5052 L 61.9578 12.5465, 57.325 12.5465, 56.4479 15.0014 C 56.4164 15.0753, 56.4004 15.1457, 56.4004 15.2121, 56.4004 15.2739, 56.4101 15.3346, 56.429 15.3953, 56.4794 15.5304, 56.5613 15.6403, 56.6741 15.7251, 56.8378 15.8602, 57.0124 15.9501, 57.1979 15.9959, 57.3834 16.0417, 57.6084 16.0646, 57.8723 16.064 L 57.8723 16.8243 C 57.1115 16.8002, 56.3849 16.7819, 55.6928 16.7693 L 55.4008 16.7693 C 54.7968 16.7693, 54.1676 16.7911, 53.5138 16.8334 L 53.5138 16.064 C 53.8161 16.0646, 54.0783 16.0451, 54.3016 16.005, 54.5249 15.9655, 54.7401 15.8876, 54.9474 15.7709, 55.2874 15.5819, 55.5262 15.3043, 55.6647 14.9373 L 59.7404 3.4596 C 59.8034 3.27697, 59.9356 3.18824, 60.1366 3.19396 L 60.2877 3.19396 C 60.4893 3.19453, 60.6209 3.28327, 60.6839 3.4596 L 64.9674 15.4502 C 64.9995 15.567, 65.0482 15.6707, 65.114 15.7623, 65.1804 15.8539, 65.2697 15.9151, 65.3825 15.9449, 65.5462 16.0067, 65.7621 16.0417, 66.0294 16.0508, 66.2968 16.06, 66.5905 16.0646, 66.9111 16.064 L 66.9111 16.8334 Z M 59.6557 6.04277 L 57.5987 11.7862, 61.6841 11.7862 Z" stroke="none" fill="#000000" />
			<rect />
		</svg>
	</g>
	<ellipse cx="536.96015644073486" cy="538.96387958526611" rx="4.8000001907348633" ry="4.8000001907348633" stroke="none" fill="#000000" transform="matrix(0.833333 0 0 0.833333 -161.276 -393.211)" />
	<ellipse cx="536.96013212203979" cy="538.96385526657104" rx="3.2000002861022949" ry="3.2000002861022949" stroke="none" fill="#FFFFFF" transform="matrix(0.833333 0 0 0.833333 -161.276 -393.211)" />
	<path d="M -16.6296 0 L 16.6296 0" fill="none" stroke="#000000" stroke-width="1.92000008" stroke-linecap="round" stroke-linejoin="round" transform="matrix(0.833333 0 0 0.833333 467.156 55.9253)" />
	<ellipse cx="770.74854755401611" cy="538.96387958526611" rx="4.8000001907348633" ry="4.8000001907348633" stroke="none" fill="#000000" transform="matrix(0.833333 0 0 0.833333 -161.276 -393.211)" />
	<ellipse cx="770.74852323532104" cy="538.96385526657104" rx="3.2000002861022949" ry="3.2000002861022949" stroke="none" fill="#FFFFFF" transform="matrix(0.833333 0 0 0.833333 -161.276 -393.211)" />
	<g transform="matrix(1 0 -0 1 367.45 8.99996)">
		<svg width="218.991913" height="99.0428314">
			<defs />
			<path d="M 12.7097 4.3115 C 12.6908 4.39738, 12.645 4.46665, 12.5729 4.51818, 12.5008 4.57028, 12.4235 4.59604, 12.3416 4.59547, 12.1155 4.59604, 11.8956 4.61321, 11.6815 4.64642, 11.4674 4.6802, 11.2693 4.76092, 11.0867 4.88859, 10.9361 4.98076, 10.8164 5.10156, 10.7283 5.25099, 10.6401 5.40099, 10.5743 5.56072, 10.5302 5.73133 L 8.78459 12.4915 C 8.62143 13.103, 8.37124 13.6938, 8.0346 14.2646, 7.69797 14.8359, 7.26859 15.3621, 6.74646 15.8441, 6.2873 16.2661, 5.77834 16.6067, 5.21843 16.8655, 4.65851 17.1254, 4.08944 17.2548, 3.51063 17.2548, 2.88202 17.2548, 2.32038 17.13, 1.82631 16.8792, 1.3328 16.6296, 0.934911 16.2873, 0.632625 15.8533, 0.299425 15.3896, 0.101336 14.8617, 0.0383604 14.2686, 0.0131699 14.0923, 0.000574708 13.9056, 0.000574708 13.7098, 0.000574708 13.301, 0.0509556 12.8831, 0.151717 12.4549 L 2.04787 5.15423 C 2.07306 5.03859, 2.08566 4.94699, 2.08566 4.87943, 2.08566 4.7884, 2.06676 4.73058, 2.02898 4.70539, 1.94768 4.6573, 1.77764 4.62695, 1.52002 4.61436, 1.26239 4.60234, 0.985291 4.59604, 0.689304 4.59547, 0.595412 4.59604, 0.526139 4.56569, 0.482055 4.50386, 0.44427 4.4678, 0.425377 4.422, 0.425377 4.36646, 0.425377 4.33039, 0.43511 4.29662, 0.45343 4.2657 L 0.482055 4.11914 C 0.551329 3.93651, 0.673846 3.84491, 0.849607 3.84433, 1.63623 3.86952, 2.42859 3.88155, 3.22724 3.88097, 4.02646 3.88155, 4.82511 3.86952, 5.62377 3.84433, 5.8001 3.84491, 5.88826 3.92735, 5.88826 4.09166 L 5.88826 4.16494, 5.83159 4.32066 C 5.7938 4.50444, 5.67758 4.59604, 5.48236 4.59547, 5.18694 4.59604, 4.90756 4.60234, 4.64306 4.61436, 4.37856 4.62695, 4.18677 4.65901, 4.06711 4.71054, 3.94803 4.76264, 3.85357 4.92294, 3.78429 5.19088 L 1.90646 12.4915 C 1.76219 13.0297, 1.67688 13.5455, 1.65169 14.0396, 1.6391 14.1134, 1.6328 14.1867, 1.6328 14.2594, 1.6328 14.6751, 1.71467 15.0569, 1.87841 15.4045, 2.04214 15.7348, 2.2763 16.0021, 2.58145 16.2065, 2.8866 16.4115, 3.24327 16.5134, 3.65204 16.5128, 4.10547 16.5134, 4.56004 16.4098, 5.01576 16.202, 5.47148 15.9947, 5.89456 15.7136, 6.28444 15.3586, 6.731 14.9625, 7.09454 14.5108, 7.3745 14.0035, 7.65446 13.4968, 7.86342 12.9804, 8.0014 12.4549 L 9.73782 5.67636 C 9.77561 5.56701, 9.79393 5.4508, 9.79393 5.32828 L 9.79393 5.20004 C 9.77561 5.07237, 9.72179 4.96531, 9.63362 4.87943, 9.50195 4.75176, 9.34622 4.67275, 9.16703 4.64184, 8.98783 4.6115, 8.77887 4.59604, 8.53956 4.59547, 8.44509 4.59604, 8.37582 4.56856, 8.33174 4.51302, 8.28823 4.47066, 8.2659 4.422, 8.2659 4.36646, 8.2659 4.33039, 8.27563 4.29375, 8.29395 4.25654 L 8.33174 4.1283 C 8.3512 4.04929, 8.39357 3.98231, 8.45941 3.92735, 8.52582 3.87239, 8.60253 3.84491, 8.69013 3.84433, 9.31932 3.86952, 9.95137 3.88155, 10.5869 3.88097, 11.216 3.88155, 11.8544 3.86952, 12.5019 3.84433, 12.5901 3.84491, 12.6656 3.87525, 12.7286 3.93593, 12.7538 3.98517, 12.7664 4.03097, 12.7664 4.07334, 12.7664 4.11055, 12.7572 4.14433, 12.7378 4.1741 Z" stroke="none" fill="#000000" />
			<polyline points="-6.566 -1.9698 6.566 -1.9698" fill="none" stroke="#000000" stroke-width="0.750400007" stroke-linecap="round" stroke-linejoin="round" transform="matrix(1 0 0 1 24.7722 11.2074)" />
			<polyline points="-6.566 1.9698 6.566 1.9698" fill="none" stroke="#000000" stroke-width="0.750400007" stroke-linecap="round" stroke-linejoin="round" transform="matrix(1 0 0 1 24.7722 11.2074)" />
			<path d="M 44.958 12.7991 C 44.958 13.386, 44.8475 13.9459, 44.6253 14.4784, 44.4037 15.0114, 44.0834 15.49, 43.6637 15.9141, 43.2384 16.3276, 42.7593 16.6435, 42.2262 16.8612, 41.6932 17.08, 41.1271 17.1888, 40.529 17.1888, 40.0117 17.1888, 39.5292 17.0918, 39.0821 16.8971, 38.6355 16.703, 38.2472 16.437, 37.9173 16.0987, 37.5874 15.761, 37.3288 15.3688, 37.1408 14.9227, 36.9528 14.4772, 36.8586 14.0026, 36.8586 13.4993, 36.8586 13.1526, 36.9742 12.8911, 37.2053 12.7144, 37.4365 12.5382, 37.6755 12.4496, 37.9218 12.449, 38.181 12.4496, 38.4245 12.5365, 38.6523 12.7099, 38.8806 12.8838, 38.9945 13.147, 38.9945 13.4993, 38.9945 13.7153, 38.9468 13.8966, 38.8515 14.043, 38.7561 14.19, 38.6388 14.3033, 38.4997 14.3841, 38.3611 14.4649, 38.2057 14.5115, 38.0329 14.5227 L 37.9218 14.5227, 37.7366 14.5227 C 37.8786 15.026, 38.2085 15.4782, 38.7264 15.8788, 39.2442 16.2799, 39.8451 16.4802, 40.529 16.4797, 40.887 16.4802, 41.2354 16.3877, 41.5743 16.2019, 41.9132 16.0168, 42.1909 15.7711, 42.4063 15.4653, 42.6588 15.1006, 42.821 14.6865, 42.8917 14.2225, 42.9624 13.7591, 42.9977 13.2844, 42.9977 12.7991, 42.9977 12.3088, 42.9826 11.838, 42.9517 11.3858, 42.9214 10.9342, 42.7946 10.5078, 42.5724 10.106, 42.4125 9.81316, 42.2077 9.56966, 41.9581 9.37497, 41.7084 9.18085, 41.4295 9.08322, 41.121 9.08266, 40.5352 9.08322, 40.0269 9.2016, 39.5954 9.43781, 39.164 9.67458, 38.8156 10.014, 38.5507 10.4561, 38.4952 10.5582, 38.406 10.6093, 38.2826 10.6087 L 38.2085 10.6087 C 37.993 10.6093, 37.8848 10.5106, 37.8848 10.3125 L 37.8848 4.01068 C 37.8848 3.85583, 37.9745 3.75708, 38.153 3.71444, 38.1838 3.715, 38.2068 3.71837, 38.2225 3.72398, 38.2382 3.73015, 38.2517 3.73296, 38.264 3.7324, 39.1578 4.13972, 40.0791 4.34339, 41.0284 4.34283, 41.99 4.34339, 42.9119 4.13972, 43.7933 3.7324, 43.8056 3.73296, 43.818 3.73015, 43.8303 3.72398, 43.8427 3.71837, 43.8612 3.715, 43.8859 3.71444, 44.089 3.715, 44.1877 3.80758, 44.1815 3.99273, 44.1815 4.10101, 44.163 4.17283, 44.126 4.20817, 43.6884 4.80739, 43.1324 5.27587, 42.4574 5.61363, 41.7824 5.95195, 41.066 6.12083, 40.3074 6.12027, 39.679 6.12083, 39.1365 6.04901, 38.6798 5.90482 L 38.6798 9.33401 C 38.8958 9.10735, 39.2212 8.90536, 39.6555 8.72863, 40.0903 8.55246, 40.579 8.46381, 41.121 8.46325, 41.6512 8.46381, 42.1522 8.58388, 42.6235 8.82289, 43.0953 9.06246, 43.5099 9.37329, 43.8673 9.75593, 44.2371 10.1874, 44.5114 10.6648, 44.6899 11.1883, 44.8688 11.7123, 44.958 12.2493, 44.958 12.7991 Z" stroke="none" fill="#000000" />
			<path d="M 57.5953 16.8334 C 57.0044 16.7911, 56.4382 16.7693, 55.8972 16.7693 L 55.6522 16.7693 C 55.0236 16.7819, 54.36 16.8002, 53.6616 16.8243 L 53.6616 16.064 C 53.8631 16.0646, 54.02 16.0508, 54.1333 16.0233, 54.2467 15.9959, 54.3159 15.93, 54.3411 15.8258, 54.3537 15.796, 54.36 15.7594, 54.36 15.7159, 54.36 15.6369, 54.332 15.5487, 54.2747 15.4502, 54.1934 15.298, 54.099 15.1548, 53.9919 15.0197 L 52.1524 12.4824, 51.0297 13.4167, 51.0297 15.4777 C 51.0297 15.5819, 51.0423 15.6787, 51.0675 15.7668, 51.0927 15.8556, 51.1465 15.918, 51.2278 15.9541, 51.3475 16.0096, 51.525 16.0417, 51.7608 16.0508, 51.9967 16.06, 52.2566 16.0646, 52.5394 16.064 L 52.5394 16.8334 C 51.766 16.7911, 51.0269 16.7693, 50.3227 16.7693, 49.6248 16.7693, 48.8891 16.7911, 48.1151 16.8334 L 48.1151 16.064 C 48.3979 16.0646, 48.6573 16.06, 48.8931 16.0508, 49.129 16.0417, 49.3071 16.0096, 49.4261 15.9541, 49.5017 15.918, 49.5538 15.8539, 49.5819 15.7623, 49.6105 15.6707, 49.6242 15.5762, 49.6242 15.4777 L 49.6242 5.5298 C 49.6242 5.37179, 49.6168 5.21778, 49.6007 5.06778, 49.5853 4.91836, 49.5206 4.80386, 49.4072 4.72371, 49.3008 4.651, 49.129 4.60863, 48.8931 4.59604, 48.6573 4.58401, 48.3979 4.57772, 48.1151 4.57714 L 48.1151 3.83517, 51.0864 3.61533, 51.0864 12.5007, 53.6427 10.3572 C 53.7623 10.2662, 53.8631 10.1563, 53.945 10.0274, 54.0016 9.93011, 54.0297 9.83278, 54.0297 9.73431 L 54.0297 9.62439 C 54.0234 9.53966, 53.9747 9.46809, 53.8837 9.4097, 53.7927 9.35188, 53.6558 9.32268, 53.4732 9.3221 L 53.4732 8.54349 C 54.2719 8.587, 55.0299 8.60818, 55.7466 8.60761, 55.9665 8.60818, 56.188 8.60532, 56.4113 8.59902, 56.6346 8.5933, 56.8882 8.57441, 57.171 8.54349 L 57.171 9.3221 C 56.7056 9.32268, 56.2619 9.42058, 55.8405 9.61523, 55.5892 9.72572, 55.3568 9.8574, 55.1426 10.0097, 54.9291 10.1625, 54.7121 10.3274, 54.4917 10.5038 L 53.1807 11.6121, 55.5858 14.9098 C 55.7306 15.0873, 55.8755 15.2711, 56.0197 15.46, 56.1646 15.6495, 56.314 15.7897, 56.468 15.8813, 56.6226 15.973, 56.7892 16.0268, 56.9684 16.0417, 57.1476 16.0571, 57.3565 16.0646, 57.5953 16.064 L 57.5953 16.8334 Z" stroke="none" fill="#000000" />
			<path d="M 71.8994 4.57714 C 71.6103 4.57772, 71.3555 4.59947, 71.1357 4.64184, 70.9158 4.68478, 70.7109 4.75806, 70.5219 4.86111, 70.2076 5.05118, 69.9689 5.33801, 69.8051 5.72216 L 65.4375 16.98 C 65.3562 17.1575, 65.2176 17.2428, 65.0224 17.2365 L 64.8718 17.2365 C 64.6772 17.2365, 64.5386 17.1512, 64.4568 16.98 L 59.8818 5.19087 C 59.8315 5.07523, 59.7748 4.9716, 59.7118 4.88, 59.6488 4.7884, 59.5578 4.72142, 59.4381 4.67791, 59.2939 4.62352, 59.0912 4.59317, 58.8301 4.58688, 58.5691 4.58115, 58.2908 4.57772, 57.9948 4.57714 L 57.9948 3.81685 C 58.8067 3.86036, 59.583 3.88154, 60.325 3.88097, 60.4383 3.88154, 60.5614 3.87525, 60.6931 3.86265, 61.5547 3.86322, 62.457 3.8512, 63.4005 3.82601 L 63.4005 4.57714 C 63.1177 4.57772, 62.8658 4.58401, 62.6459 4.59604, 62.4261 4.60863, 62.2274 4.65386, 62.0511 4.73287, 61.9698 4.77638, 61.9068 4.8342, 61.8627 4.90691, 61.8312 4.95615, 61.8152 5.00195, 61.8152 5.04431, 61.8152 5.0695, 61.8186 5.09698, 61.8249 5.12675 L 65.5228 14.5984, 69.0128 5.64888 C 69.0443 5.57617, 69.0597 5.49373, 69.0597 5.40156, 69.0597 5.22522, 68.975 5.06034, 68.8055 4.90691, 68.6613 4.77924, 68.4993 4.69222, 68.3195 4.64642, 68.1403 4.60062, 67.9124 4.57772, 67.6353 4.57714 L 67.6353 3.82601 C 68.3968 3.8512, 69.1136 3.86322, 69.7863 3.86265, 69.8744 3.87525, 69.9689 3.88154, 70.0691 3.88097, 70.6479 3.88154, 71.2582 3.86036, 71.8994 3.81685 L 71.8994 4.57714 Z" stroke="none" fill="#000000" />
			<rect />
		</svg>
	</g>
	<g transform="matrix(1 0 -0 1 336.397 14.4472)">
		<svg width="119.936646" height="119.999977">
			<defs />
			<polyline points="-5.628 0 5.628 0" fill="none" stroke="#000000" stroke-width="0.64319998" stroke-linecap="round" stroke-linejoin="round" transform="matrix(1 0 0 1 5.628 9.60638)" />
			<polyline points="0 -5.628 0 5.628" fill="none" stroke="#000000" stroke-width="0.64319998" stroke-linecap="round" stroke-linejoin="round" transform="matrix(1 0 0 1 5.628 9.60638)" />
			<rect />
		</svg>
	</g>
	<g transform="matrix(1 0 -0 1 459.605 14.4472)">
		<svg width="119.936646" height="83.9999847">
			<defs />
			<polyline points="-5.628 0 5.628 0" fill="none" stroke="#000000" stroke-width="0.64319998" stroke-linecap="round" stroke-linejoin="round" transform="matrix(1 0 0 1 5.628 9.60638)" />
			<rect />
		</svg>
	</g>
	<path d="M -59.841 -22.6635 L 59.841 -22.6635, 59.841 22.6635, -59.841 22.6635 Z" fill="none" stroke="#000000" stroke-width="1.60000014" stroke-linecap="round" stroke-linejoin="round" transform="matrix(0.833333 0 -0 0.833333 403.431 55.9253)" />
	<g transform="matrix(1 0 -0 1 396.535 43.1168)">
		<svg width="44.9376793" height="51.0856972">
			<defs />
			<path d="M 13.7854 15.1973 C 13.7854 15.756, 13.6506 16.2814, 13.381 16.7735, 13.1115 17.2655, 12.7542 17.6895, 12.308 18.0448, 11.812 18.4504, 11.2624 18.7488, 10.6585 18.9405, 10.0552 19.1322, 9.43693 19.2277, 8.80357 19.2277 L -0.00588304 19.2277, -0.00588304 18.3588 C 0.389966 18.3595, 0.771422 18.3543, 1.13783 18.3438, 1.50423 18.3333, 1.781 18.2967, 1.96748 18.2332, 2.06824 18.1992, 2.14414 18.1311, 2.19452 18.0297, 2.2449 17.929, 2.26976 17.8151, 2.26976 17.6888 L 2.26976 5.89056 C 2.26976 5.76558, 2.2449 5.65239, 2.19452 5.55098, 2.14414 5.45021, 2.06824 5.38151, 1.96748 5.34618, 1.781 5.28402, 1.50423 5.24934, 1.13783 5.24215, 0.771422 5.2356, 0.389966 5.23168, -0.00588304 5.23102 L -0.00588304 4.37259, 8.17872 4.37259 C 8.80422 4.37324, 9.42188 4.45699, 10.033 4.62449, 10.6441 4.79199, 11.1976 5.06745, 11.6936 5.45087, 12.132 5.78652, 12.4879 6.1791, 12.7614 6.62926, 13.0349 7.07941, 13.171 7.56948, 13.171 8.09946, 13.171 8.62355, 13.0329 9.10381, 12.7562 9.53957, 12.4794 9.97599, 12.1254 10.3476, 11.6936 10.6538, 11.0184 11.1014, 10.5152 11.3592, 10.1841 11.4285, 10.2057 11.4292, 10.4609 11.5201, 10.9497 11.7014, 11.4391 11.8833, 11.8919 12.1339, 12.308 12.4545, 12.747 12.7901, 13.103 13.1932, 13.3758 13.6643, 13.6493 14.1354, 13.7854 14.6464, 13.7854 15.1973 Z M 10.8096 8.09946 C 10.8096 7.33263, 10.5473 6.6587, 10.0225 6.07899, 9.77782 5.81466, 9.49778 5.60725, 9.1811 5.45676, 8.86507 5.30692, 8.53073 5.23168, 8.17872 5.23102 L 5.35346 5.23102 C 5.18858 5.23168, 5.01781 5.2356, 4.84115 5.24215, 4.66514 5.24934, 4.54148 5.28075, 4.46951 5.33571, 4.39034 5.39198, 4.34519 5.47246, 4.33472 5.57715, 4.32425 5.68184, 4.31836 5.78652, 4.31836 5.89056 L 4.31836 11.1668, 7.56368 11.1668 C 7.98832 11.1675, 8.39987 11.0857, 8.79899 10.9214, 9.19811 10.7579, 9.54816 10.5361, 9.84979 10.256, 10.4897 9.66323, 10.8096 8.94481, 10.8096 8.09946 Z M 11.3593 15.1973 C 11.3593 14.7582, 11.2879 14.3362, 11.144 13.9312, 11 13.5269, 10.7881 13.1565, 10.5074 12.8209, 10.2561 12.5212, 9.95644 12.2843, 9.6077 12.1096, 9.25896 11.9356, 8.88666 11.8479, 8.49147 11.8473 L 4.31836 11.8473, 4.31836 17.6888 C 4.31836 17.8079, 4.32425 17.9165, 4.33472 18.014, 4.34519 18.1122, 4.39034 18.1887, 4.46951 18.2437, 4.54148 18.2999, 4.6671 18.3333, 4.84638 18.3438, 5.02631 18.3543, 5.19512 18.3595, 5.35346 18.3588 L 8.17872 18.3588 C 8.58831 18.3595, 8.98939 18.2797, 9.38066 18.1187, 9.77258 17.9584, 10.1194 17.7314, 10.421 17.4376, 10.7161 17.1314, 10.9464 16.7859, 11.1113 16.4018, 11.2768 16.0184, 11.3593 15.6167, 11.3593 15.1973 Z" stroke="none" fill="#000000" />
			<rect />
		</svg>
	</g>
</svg>
