<svg width="324" height="254" xmlns="http://www.w3.org/2000/svg" xmlns:xlink="http://www.w3.org/1999/xlink" xml:space="preserve" overflow="hidden"><defs><clipPath id="clip0"><path d="M679.633 303.317 694.376 285.742 704.909 294.599 690.165 312.174Z" fill-rule="evenodd" clip-rule="evenodd"/></clipPath></defs><g transform="translate(-534 -277)"><path d="M-121.682 0 121.682 0" stroke="#000000" stroke-width="1.5283" stroke-linecap="round" stroke-linejoin="round" fill="none" transform="matrix(1 0 0 1.00119 681.088 457.335)"/><g><path d="M0 0-15.283-4.5849-12.2264-0.76415-12.2264 0.76415-15.283 4.5849Z" stroke="#000000" stroke-width="1.5283" stroke-linejoin="round" transform="matrix(1 0 0 1.00119 802.77 457.335)"/></g><g><path d="M12.4295 16.8699C12.3319 17.2666 12.2034 17.6734 12.0446 18.0914 11.8864 18.5094 11.6898 18.8965 11.4554 19.252 11.2216 19.6081 10.9363 19.9029 10.6002 20.1368 10.2647 20.3718 9.86251 20.4887 9.39366 20.4887 8.83475 20.4887 8.31913 20.3808 7.84684 20.1643 7.37523 19.9483 7.05968 19.7119 6.90088 19.4548 6.57639 19.727 6.14464 19.967 5.6043 20.1753 5.06394 20.3842 4.51809 20.4887 3.96674 20.4887 3.27238 20.4887 2.62822 20.3663 2.03493 20.1202 1.44232 19.8756 0.972092 19.481 0.62423 18.9378 0.246807 18.3665 0.0467514 17.7361 0.0240646 17.0459 0.00894023 16.973 0.00137798 16.8925 0.00137798 16.8038 0.00137798 16.2031 0.0845625 15.5946 0.250932 14.9779 0.424862 14.2822 0.698477 13.6078 1.07246 12.9547 1.44645 12.3023 1.93112 11.7117 2.52784 11.1831 3.10945 10.6778 3.74399 10.3058 4.43146 10.0673 5.11894 9.82943 5.79816 9.70981 6.47051 9.70912 7.44535 9.70981 8.18508 9.97379 8.69106 10.5011 8.81205 10.3773 9.02724 10.2673 9.33659 10.1711 9.50296 10.1202 9.6769 10.0948 9.85839 10.0941 9.98695 10.0948 10.1079 10.1134 10.2207 10.1491 10.5005 10.2158 10.7273 10.3732 10.9006 10.6221 10.9762 10.7768 11.0133 10.9603 11.0133 11.1721 11.0133 11.3047 10.9989 11.4553 10.9687 11.623L9.38197 17.7278C9.26923 18.1761 9.21216 18.5349 9.21216 18.8058 9.21216 19.122 9.29191 19.2829 9.45003 19.2898 9.71471 19.2904 9.94501 19.0526 10.1416 18.5754 10.3382 18.0991 10.5459 17.4535 10.7645 16.6389 10.8325 16.4051 11.0024 16.2799 11.2746 16.265L11.9084 16.265C12.2714 16.2656 12.4447 16.4381 12.4295 16.7818L12.4295 16.8699ZM7.94309 12.129C7.93621 12.0933 7.90184 12.0053 7.84133 11.865 7.73547 11.5873 7.55809 11.3597 7.30923 11.1837 7.06037 11.0078 6.76544 10.9198 6.42513 10.9191 6.10821 10.9198 5.78922 11.0153 5.46817 11.2058 5.14712 11.3969 4.86182 11.6567 4.61228 11.986 4.31803 12.3683 4.07673 12.8557 3.88768 13.4497 3.6993 14.0436 3.5288 14.6342 3.37756 15.2199 3.21119 15.8511 3.08333 16.456 2.99258 17.0349 2.93208 17.3291 2.90183 17.5966 2.90183 17.8379 2.90183 18.0661 2.92109 18.26 2.95821 18.4208 3.02695 18.6855 3.14795 18.8965 3.3212 19.0539 3.49512 19.2121 3.72543 19.2904 4.0121 19.2898 4.38196 19.2904 4.76008 19.1915 5.14506 18.9934 5.53005 18.7955 5.87791 18.5239 6.18727 18.1788 6.26289 18.1059 6.32752 18.0366 6.38046 17.9705 6.43339 17.9045 6.47464 17.853 6.50419 17.8159 6.50419 17.7725 6.51932 17.6701 6.54957 17.5078L7.94309 12.129Z" transform="matrix(1 0 0 1.00119 781.936 425.184)"/><path d="M2.8579 3.84371C2.07891 3.81904 1.32074 3.80671 0.583773 3.80671-0.15281 3.80671-0.910979 3.81904-1.69034 3.84371L-1.69034 3.31334-1.25171 3.31334C-1.11218 3.31372-0.980745 3.31179-0.858173 3.30755-0.735215 3.3037-0.618811 3.29329-0.508575 3.27672-0.398338 3.26053-0.303134 3.24396-0.222962 3.22699-0.155124 3.21504-0.0988481 3.17728-0.054522 3.11329-0.00981044 3.0497 0.0121598 2.97878 0.0121598 2.90014L0.0121598-4.05018C-0.19945-3.94688-0.460009-3.86863-0.769135-3.81545-1.07826-3.76188-1.41707-3.73527-1.78554-3.73567L-1.78554-4.25987C-1.27715-4.25947-0.808064-4.31999-0.378295-4.4414 0.0514751-4.56244 0.423043-4.78984 0.736409-5.12326L0.93337-5.12326C1.0729-5.12287 1.14267-5.05503 1.14267-4.91975L1.14267 2.90014C1.14267 2.98263 1.16387 3.0547 1.20627 3.11638 1.24866 3.17804 1.31034 3.21504 1.39051 3.22699 1.45835 3.24396 1.54545 3.26053 1.65106 3.27672 1.75707 3.29329 1.87656 3.3037 2.00992 3.30755 2.14329 3.31179 2.27356 3.31372 2.40038 3.31334L2.8579 3.31334 2.8579 3.84371Z" transform="matrix(1.11867 0 0 1 797.337 444.788)"/><path d="M-7.88451-2.36535 7.88451-2.36535" stroke="#000000" stroke-width="0.901087" stroke-linecap="round" stroke-linejoin="round" fill="none" transform="matrix(1 0 0 1.00119 815.343 438.658)"/><path d="M-7.88451 2.36535 7.88451 2.36535" stroke="#000000" stroke-width="0.901087" stroke-linecap="round" stroke-linejoin="round" fill="none" transform="matrix(1 0 0 1.00119 815.343 438.658)"/><path d="M57.8771 15.2199C57.6963 15.9246 57.4186 16.6065 57.0446 17.2666 56.6707 17.9265 56.1743 18.5171 55.5548 19.0368 54.9891 19.5435 54.3628 19.9119 53.6752 20.1423 52.9878 20.3732 52.3003 20.4887 51.6129 20.4887 50.9336 20.4887 50.3073 20.3629 49.7332 20.1099 49.1592 19.8569 48.7096 19.4631 48.3851 18.9268 48.0229 18.3555 47.8339 17.721 47.8187 17.0239L47.8187 16.8699C47.8187 16.2546 47.8984 15.6387 48.0565 15.0219L50.4352 5.81526C50.4352 5.72039 50.3073 5.73552 50.0502 5.85926 50.2241 5.89639 50.0276 5.91494 49.461 5.91425 49.2877 5.91494 49.1407 5.85995 49.0197 5.74995 48.8986 5.63995 48.8383 5.49353 48.8383 5.30927 48.8383 5.21441 48.8534 5.15253 48.8835 5.12229L48.9289 4.9353C48.9971 4.62042 49.1895 4.46299 49.5064 4.46231L51.5337 4.35231C51.7682 4.33856 52.0006 4.32413 52.2309 4.309 52.4613 4.29457 52.6894 4.28701 52.9156 4.28632 53.0895 4.28701 53.2367 4.33856 53.3576 4.441 53.4786 4.54412 53.5384 4.68643 53.5384 4.86929L53.5384 5.00129 53.2442 6.09025C53.0408 6.84647 52.8462 7.59652 52.6613 8.34036 52.4762 9.0849 52.3271 9.68437 52.2137 10.1381 52.6743 9.86036 53.3163 9.71737 54.1393 9.70912 54.8193 9.70981 55.4572 9.83837 56.054 10.0948 56.6506 10.3519 57.1298 10.7472 57.4921 11.2821 57.8551 11.8403 58.051 12.4707 58.0813 13.174L58.0813 13.449C58.0813 14.0512 58.0133 14.6411 57.8771 15.2199ZM55.1589 11.799C55.0909 11.5433 54.9643 11.3323 54.7794 11.1673 54.5945 11.0023 54.3661 10.9198 54.0939 10.9191 53.7241 10.9198 53.3425 11.0208 52.95 11.2222 52.5574 11.4244 52.2137 11.6863 51.9187 12.008 51.8666 12.0823 51.8136 12.1462 51.7607 12.2012 51.7076 12.2562 51.6699 12.3057 51.6473 12.349L50.8766 15.2639C50.7109 15.8881 50.5824 16.4711 50.4916 17.0129 50.4462 17.248 50.4236 17.4645 50.4236 17.6618 50.4236 17.9265 50.4613 18.1685 50.537 18.3878 50.6201 18.667 50.7563 18.8875 50.9446 19.0484 51.1336 19.21 51.3791 19.2904 51.6809 19.2898 51.9834 19.2904 52.2968 19.1956 52.6214 19.0044 52.9459 18.814 53.2257 18.5569 53.4594 18.2339 53.7618 17.8385 54.0094 17.349 54.2018 16.7661 54.3944 16.183 54.5662 15.587 54.7167 14.9779 54.8832 14.3626 55.0193 13.7652 55.1245 13.185 55.185 12.8777 55.2153 12.6027 55.2153 12.36 55.2153 12.1483 55.1966 11.9613 55.1589 11.799Z" transform="matrix(1 0 0 1.00119 781.936 425.184)"/><path d="M2.8579 3.84371C2.07891 3.81904 1.32074 3.80671 0.583773 3.80671-0.15281 3.80671-0.910979 3.81904-1.69034 3.84371L-1.69034 3.31334-1.25171 3.31334C-1.11218 3.31372-0.980745 3.31179-0.858173 3.30755-0.735215 3.3037-0.618811 3.29329-0.508575 3.27672-0.398338 3.26053-0.303134 3.24396-0.222962 3.22699-0.155124 3.21504-0.0988481 3.17728-0.054522 3.11329-0.00981044 3.0497 0.0121598 2.97878 0.0121598 2.90014L0.0121598-4.05018C-0.19945-3.94688-0.460009-3.86863-0.769135-3.81545-1.07826-3.76188-1.41707-3.73527-1.78554-3.73567L-1.78554-4.25987C-1.27715-4.25947-0.808064-4.31999-0.378295-4.4414 0.0514751-4.56244 0.423043-4.78984 0.736409-5.12326L0.93337-5.12326C1.0729-5.12287 1.14267-5.05503 1.14267-4.91975L1.14267 2.90014C1.14267 2.98263 1.16387 3.0547 1.20627 3.11638 1.24866 3.17804 1.31034 3.21504 1.39051 3.22699 1.45835 3.24396 1.54545 3.26053 1.65106 3.27672 1.75707 3.29329 1.87656 3.3037 2.00992 3.30755 2.14329 3.31179 2.27356 3.31372 2.40038 3.31334L2.8579 3.31334 2.8579 3.84371Z" transform="matrix(1.11867 0 0 1 842.981 444.788)"/></g><path d="M-70.1184 83.4834 70.1184-83.4834" stroke="#000000" stroke-width="1.5283" stroke-linecap="round" stroke-linejoin="round" fill="none" transform="matrix(1 0 0 1.00119 629.524 373.753)"/><g clip-path="url(#clip0)"><path d="M0 0-15.2905-4.58715-12.2324-0.764526-12.2324 0.764526-15.2905 4.58715Z" stroke="#000000" stroke-width="1.52905" stroke-linejoin="round" transform="matrix(0.642835 -0.766274 0.765363 0.6436 699.643 290.17)"/></g><g><path d="M12.4295 16.8699C12.3319 17.2666 12.2034 17.6734 12.0446 18.0914 11.8864 18.5094 11.6898 18.8965 11.4554 19.252 11.2216 19.6081 10.9363 19.9029 10.6002 20.1368 10.2647 20.3718 9.86251 20.4887 9.39366 20.4887 8.83475 20.4887 8.31913 20.3808 7.84684 20.1643 7.37523 19.9483 7.05968 19.7119 6.90088 19.4548 6.57639 19.727 6.14464 19.967 5.6043 20.1753 5.06394 20.3842 4.51809 20.4887 3.96674 20.4887 3.27238 20.4887 2.62822 20.3663 2.03493 20.1202 1.44232 19.8756 0.972092 19.481 0.62423 18.9378 0.246807 18.3665 0.0467514 17.7361 0.0240646 17.0459 0.00894023 16.973 0.00137798 16.8925 0.00137798 16.8038 0.00137798 16.2031 0.0845625 15.5946 0.250932 14.9779 0.424862 14.2822 0.698477 13.6078 1.07246 12.9547 1.44645 12.3023 1.93112 11.7117 2.52784 11.1831 3.10945 10.6778 3.74399 10.3058 4.43146 10.0673 5.11894 9.82943 5.79816 9.70981 6.47051 9.70912 7.44535 9.70981 8.18508 9.97379 8.69106 10.5011 8.81205 10.3773 9.02724 10.2673 9.33659 10.1711 9.50296 10.1202 9.6769 10.0948 9.85839 10.0941 9.98695 10.0948 10.1079 10.1134 10.2207 10.1491 10.5005 10.2158 10.7273 10.3732 10.9006 10.6221 10.9762 10.7768 11.0133 10.9603 11.0133 11.1721 11.0133 11.3047 10.9989 11.4553 10.9687 11.623L9.38197 17.7278C9.26923 18.1761 9.21216 18.5349 9.21216 18.8058 9.21216 19.122 9.29191 19.2829 9.45003 19.2898 9.71471 19.2904 9.94501 19.0526 10.1416 18.5754 10.3382 18.0991 10.5459 17.4535 10.7645 16.6389 10.8325 16.4051 11.0024 16.2799 11.2746 16.265L11.9084 16.265C12.2714 16.2656 12.4447 16.4381 12.4295 16.7818L12.4295 16.8699ZM7.94309 12.129C7.93621 12.0933 7.90184 12.0053 7.84133 11.865 7.73547 11.5873 7.55809 11.3597 7.30923 11.1837 7.06037 11.0078 6.76544 10.9198 6.42513 10.9191 6.10821 10.9198 5.78922 11.0153 5.46817 11.2058 5.14712 11.3969 4.86182 11.6567 4.61228 11.986 4.31803 12.3683 4.07673 12.8557 3.88768 13.4497 3.6993 14.0436 3.5288 14.6342 3.37756 15.2199 3.21119 15.8511 3.08333 16.456 2.99258 17.0349 2.93208 17.3291 2.90183 17.5966 2.90183 17.8379 2.90183 18.0661 2.92109 18.26 2.95821 18.4208 3.02695 18.6855 3.14795 18.8965 3.3212 19.0539 3.49512 19.2121 3.72543 19.2904 4.0121 19.2898 4.38196 19.2904 4.76008 19.1915 5.14506 18.9934 5.53005 18.7955 5.87791 18.5239 6.18727 18.1788 6.26289 18.1059 6.32752 18.0366 6.38046 17.9705 6.43339 17.9045 6.47464 17.853 6.50419 17.8159 6.50419 17.7725 6.51932 17.6701 6.54957 17.5078L7.94309 12.129Z" transform="matrix(1 0 0 1.00119 640.125 289.624)"/><path d="M2.875 3.84371-2.29457 3.84371-2.29457 3.50451C-2.29457 3.48023-2.28185 3.44323-2.25641 3.39352L-0.179636 1.13635C0.0662775 0.865384 0.314888 0.587865 0.566969 0.304177 0.819049 0.0204909 1.04415-0.269362 1.24304-0.565384 1.44193-0.861404 1.60074-1.16668 1.71944-1.4812 1.83816-1.79572 1.89714-2.12566 1.89714-2.4714 1.89714-2.7628 1.85936-3.03532 1.78305-3.28815 1.70673-3.541 1.59688-3.76303 1.45272-3.95421 1.30856-4.14539 1.12856-4.29956 0.912712-4.41674 0.696864-4.53392 0.447097-4.5925 0.163409-4.59289-0.259808-4.5925-0.633689-4.46607-0.957462-4.21323-1.28123-3.96038-1.49631-3.6817-1.60231-3.37797-1.62312-3.36949-1.5892-3.36526-1.50055-3.36564L-1.39263-3.36564C-1.26543-3.33634-1.15558-3.29201-1.0623-3.23265-0.969025-3.17292-0.890779-3.09081-0.827182-2.98597-0.763584-2.88113-0.731978-2.75471-0.731978-2.60708-0.731978-2.36001-0.81215-2.17075-0.973265-2.03931-1.13438-1.90749-1.31438-1.84197-1.51327-1.84236-1.70368-1.84197-1.88137-1.90749-2.04672-2.03931-2.2117-2.17075-2.29457-2.36001-2.29457-2.60708-2.29457-2.95205-2.22672-3.27891-2.09105-3.58726-1.95537-3.89563-1.77151-4.16274-1.5387-4.38898-1.3059-4.61486-1.0307-4.7937-0.71309-4.92552-0.395484-5.05696-0.0586064-5.12287 0.296773-5.12326 0.73695-5.12287 1.14051-5.05812 1.50668-4.92861 1.87285-4.7991 2.18506-4.61293 2.44331-4.37048 2.70155-4.12765 2.90391-3.84706 3.05-3.52867 3.19608-3.20992 3.26893-2.85762 3.26893-2.4714 3.26893-2.04357 3.1718-1.64964 2.97676-1.29002 2.78211-0.930013 2.54083-0.600073 2.2529-0.300199 1.96498 6.23824e-05 1.65893 0.282593 1.33516 0.547779 1.01139 0.812964 0.718063 1.07083 0.455575 1.32136L-1.00526 2.69662 0.906544 2.69662C1.17327 2.69702 1.42227 2.69509 1.65276 2.69084 1.88364 2.687 2.07945 2.67851 2.24019 2.66617 2.40129 2.65384 2.48378 2.64575 2.48764 2.64113 2.52156 2.6126 2.55354 2.55516 2.58323 2.46883 2.61291 2.38249 2.64027 2.28074 2.66571 2.16356 2.69115 2.04638 2.71659 1.92728 2.74202 1.80586 2.76747 1.68483 2.79059 1.55186 2.8118 1.4077L3.28165 1.4077Z" transform="matrix(1.11867 0 0 1 656.034 309.228)"/></g><path d="M0 83.4834 0-83.4834" stroke="#000000" stroke-width="1.5283" stroke-linecap="round" stroke-linejoin="round" fill="none" transform="matrix(1 0 0 1.00119 699.643 373.753)"/><g><path d="M0 0-15.283-4.5849-12.2264-0.76415-12.2264 0.76415-15.283 4.5849Z" stroke="#000000" stroke-width="1.5283" stroke-linejoin="round" transform="matrix(6.12323e-17 -1.00119 1 6.13052e-17 699.643 290.17)"/></g><path d="M0 5.39048 0-5.39018" stroke="#000000" stroke-width="1.5283" stroke-linecap="round" stroke-linejoin="round" fill="none" transform="matrix(1 0 0 1.00119 689.003 451.939)"/><path d="M-5.39028 0 5.38972 0" stroke="#000000" stroke-width="1.5283" stroke-linecap="round" stroke-linejoin="round" fill="none" transform="matrix(1 0 0 1.00119 694.394 446.542)"/><g><path d="M10.0629 15.2199C9.88211 15.9246 9.60437 16.6065 9.23038 17.2666 8.85639 17.9265 8.36004 18.5171 7.74062 19.0368 7.17414 19.5435 6.54786 19.9119 5.86038 20.1423 5.1729 20.3732 4.48543 20.4887 3.79795 20.4887 3.11873 20.4887 2.49176 20.3629 1.91771 20.1099 1.34367 19.8569 0.894061 19.4631 0.568886 18.9268 0.206587 18.3555 0.0175316 17.721 0.00240715 17.0239L0.00240715 16.8699C0.00240715 16.2546 0.0821542 15.6387 0.240273 15.0219L2.61962 5.81526C2.61962 5.72039 2.49176 5.73552 2.23464 5.85926 2.40857 5.89639 2.21196 5.91494 1.64548 5.91425 1.47223 5.91494 1.32442 5.85995 1.20342 5.74995 1.08243 5.63995 1.02193 5.49353 1.02193 5.30927 1.02193 5.21441 1.03706 5.15253 1.0673 5.12229L1.11268 4.9353C1.18143 4.62042 1.37392 4.46299 1.69085 4.46231L3.71889 4.35231C3.95263 4.33856 4.18501 4.32413 4.41531 4.309 4.6463 4.29457 4.87453 4.28701 5.10072 4.28632 5.27464 4.28701 5.42177 4.33856 5.54277 4.441 5.66376 4.54412 5.72425 4.68643 5.72425 4.86929L5.72425 5.00129 5.42934 6.09025C5.22584 6.84647 5.03128 7.59652 4.84635 8.34036 4.66143 9.0849 4.51223 9.68437 4.39812 10.1381 4.85942 9.86036 5.50152 9.71737 6.32442 9.70912 7.00433 9.70981 7.64232 9.83837 8.23904 10.0948 8.83577 10.3519 9.31563 10.7472 9.67793 11.2821 10.0409 11.8403 10.2368 12.4707 10.2671 13.174L10.2671 13.449C10.2671 14.0512 10.199 14.6411 10.0629 15.2199ZM7.34395 11.799C7.27658 11.5433 7.15008 11.3323 6.96446 11.1673 6.77953 11.0023 6.5513 10.9198 6.27904 10.9191 5.90919 10.9198 5.52833 11.0208 5.13509 11.2222 4.74255 11.4244 4.3988 11.6863 4.10389 12.008 4.05164 12.0823 3.99869 12.1462 3.94575 12.2012 3.89283 12.2562 3.85502 12.3057 3.83164 12.349L3.06166 15.2639C2.89531 15.8881 2.76675 16.4711 2.676 17.0129 2.63131 17.248 2.60863 17.4645 2.60863 17.6618 2.60863 17.9265 2.64644 18.1685 2.72137 18.3878 2.80524 18.667 2.94135 18.8875 3.12973 19.0484 3.31878 19.21 3.56421 19.2904 3.86601 19.2898 4.1685 19.2904 4.48199 19.1956 4.80648 19.0044 5.13097 18.814 5.41077 18.5569 5.64451 18.2339 5.947 17.8385 6.1945 17.349 6.38699 16.7661 6.57948 16.183 6.75135 15.587 6.9019 14.9779 7.06827 14.3626 7.20438 13.7652 7.31027 13.185 7.37076 12.8777 7.40102 12.6027 7.40102 12.36 7.40102 12.1483 7.38245 11.9613 7.34395 11.799Z" transform="matrix(1 0 0 1.00119 714.477 289.624)"/><path d="M2.87487 3.84371-2.29547 3.84371-2.29547 3.50451C-2.29547 3.48023-2.28276 3.44323-2.25733 3.39352L-0.180161 1.13635C0.0653671 0.865384 0.313978 0.587865 0.566059 0.304177 0.818139 0.0204909 1.04401-0.269362 1.2429-0.565384 1.44179-0.861404 1.6006-1.16668 1.7193-1.4812 1.83803-1.79572 1.897-2.12566 1.897-2.4714 1.897-2.7628 1.85884-3.03532 1.78251-3.28815 1.70621-3.541 1.59634-3.76303 1.45219-3.95421 1.30842-4.14539 1.12842-4.29956 0.912573-4.41674 0.696724-4.53392 0.44657-4.5925 0.162884-4.59289-0.260333-4.5925-0.634214-4.46607-0.958373-4.21323-1.28214-3.96038-1.49722-3.6817-1.60321-3.37797-1.62404-3.36949-1.59012-3.36526-1.50146-3.36564L-1.39354-3.36564C-1.26634-3.33634-1.15649-3.29201-1.06321-3.23265-0.969936-3.17292-0.89169-3.09081-0.828092-2.98597-0.764494-2.88113-0.732888-2.75471-0.732888-2.60708-0.732888-2.36001-0.81306-2.17075-0.974176-2.03931-1.13529-1.90749-1.31529-1.84197-1.51418-1.84236-1.70458-1.84197-1.88266-1.90749-2.04764-2.03931-2.2126-2.17075-2.29547-2.36001-2.29547-2.60708-2.29547-2.95205-2.22764-3.27891-2.09197-3.58726-1.95629-3.89563-1.77243-4.16274-1.53962-4.38898-1.30681-4.61486-1.03161-4.7937-0.714-4.92552-0.396395-5.05696-0.0595168-5.12287 0.296248-5.12326 0.73681-5.12287 1.14037-5.05812 1.50654-4.92861 1.87271-4.7991 2.18492-4.61293 2.44317-4.37048 2.70141-4.12765 2.90377-3.84706 3.04987-3.52867 3.19595-3.20992 3.2688-2.85762 3.2688-2.4714 3.2688-2.04357 3.17166-1.64964 2.97662-1.29002 2.78197-0.930013 2.54069-0.600073 2.25277-0.300199 1.96483 6.23824e-05 1.65879 0.282593 1.33463 0.547779 1.01086 0.812964 0.717538 1.07083 0.45505 1.32136L-1.00617 2.69662 0.906021 2.69662C1.17275 2.69702 1.42174 2.69509 1.65224 2.69084 1.88312 2.687 2.07893 2.67851 2.24004 2.66617 2.40116 2.65384 2.48365 2.64575 2.4875 2.64113 2.52141 2.6126 2.5534 2.55516 2.58309 2.46883 2.61277 2.38249 2.64013 2.28074 2.66558 2.16356 2.69101 2.04638 2.71645 1.92728 2.74188 1.80586 2.76733 1.68483 2.79045 1.55186 2.81166 1.4077L3.28151 1.4077Z" transform="matrix(1.11867 0 0 1 728.207 309.228)"/></g><path d="M-70.1184 0 70.1184 0" stroke="#000000" stroke-width="1.5283" stroke-linecap="round" stroke-linejoin="round" fill="none" transform="matrix(1 0 0 1.00119 629.524 457.335)"/><g><path d="M0 0-15.283-4.5849-12.2264-0.76415-12.2264 0.76415-15.283 4.5849Z" stroke="#000000" stroke-width="1.5283" stroke-linejoin="round" transform="matrix(1 0 0 1.00119 699.643 457.335)"/></g><path d="M0-20.052 0 20.0524" stroke="#000000" stroke-width="1.5283" stroke-linecap="round" stroke-linejoin="round" stroke-opacity="0.498039" fill="none" transform="matrix(1 0 0 1.00119 614.115 428.385)"/><g><path d="M0 0-9.1698-4.5849-7.33584-0.76415-7.33584 0.76415-9.1698 4.5849Z" stroke="#000000" stroke-width="1.5283" stroke-linejoin="round" stroke-opacity="0.498039" fill="#000000" fill-opacity="0.498039" transform="matrix(6.12323e-17 1.00119 -1 6.13052e-17 614.115 448.461)"/></g><path d="M0-29.1949 0 29.1948" stroke="#000000" stroke-width="1.5283" stroke-linecap="round" stroke-linejoin="round" stroke-opacity="0.498039" fill="none" transform="matrix(1 0 0 1.00119 631.96 419.232)"/><g><path d="M0 0-9.1698-4.5849-7.33584-0.76415-7.33584 0.76415-9.1698 4.5849Z" stroke="#000000" stroke-width="1.5283" stroke-linejoin="round" stroke-opacity="0.498039" fill="#000000" fill-opacity="0.498039" transform="matrix(6.12323e-17 1.00119 -1 6.13052e-17 631.96 448.462)"/></g><path d="M0-50.9974 0 50.9977" stroke="#000000" stroke-width="1.5283" stroke-linecap="round" stroke-linejoin="round" stroke-opacity="0.498039" fill="none" transform="matrix(1 0 0 1.00119 667.648 397.403)"/><g><path d="M0 0-9.1698-4.5849-7.33584-0.76415-7.33584 0.76415-9.1698 4.5849Z" stroke="#000000" stroke-width="1.5283" stroke-linejoin="round" stroke-opacity="0.498039" fill="#000000" fill-opacity="0.498039" transform="matrix(6.12323e-17 1.00119 -1 6.13052e-17 667.648 448.462)"/></g><path d="M0-39.0464 0 39.0467" stroke="#000000" stroke-width="1.5283" stroke-linecap="round" stroke-linejoin="round" stroke-opacity="0.498039" fill="none" transform="matrix(1 0 0 1.00119 649.804 409.368)"/><g><path d="M0 0-9.1698-4.5849-7.33584-0.76415-7.33584 0.76415-9.1698 4.5849Z" stroke="#000000" stroke-width="1.5283" stroke-linejoin="round" stroke-opacity="0.498039" fill="#000000" fill-opacity="0.498039" transform="matrix(6.12323e-17 1.00119 -1 6.13052e-17 649.804 448.462)"/></g><g><path d="M-2.20791-10.2501-2.20791 10.2501" stroke="#000000" stroke-width="0.901087" stroke-linecap="round" stroke-linejoin="round" fill="none" transform="matrix(1 0 0 1.00119 550.393 503.498)"/><path d="M2.20791-10.2501 2.20791 10.2501" stroke="#000000" stroke-width="0.901087" stroke-linecap="round" stroke-linejoin="round" fill="none" transform="matrix(1 0 0 1.00119 550.393 503.498)"/><path d="M26.5316 17.6847C26.434 18.0815 26.3054 18.4885 26.1465 18.9065 25.9885 19.3245 25.7918 19.7114 25.5573 20.0669 25.3237 20.423 25.0383 20.718 24.7022 20.9516 24.3666 21.1868 23.9645 21.3036 23.4957 21.3036 22.9368 21.3036 22.4211 21.1957 21.9489 20.9792 21.4772 20.7634 21.1616 20.5268 21.0028 20.2697 20.6784 20.5419 20.2466 20.7818 19.7062 20.9902 19.166 21.1992 18.6201 21.3036 18.0688 21.3036 17.3743 21.3036 16.7302 21.1813 16.1369 20.9351 15.5444 20.6905 15.0741 20.2958 14.7262 19.7527 14.3488 19.1814 14.1488 18.551 14.1261 17.8608 14.1109 17.7879 14.1034 17.7075 14.1034 17.6189 14.1034 17.0179 14.1866 16.4095 14.3529 15.7929 14.5269 15.0972 14.8005 14.4228 15.1745 13.7696 15.5485 13.1172 16.0331 12.5267 16.6299 11.998 17.2114 11.4927 17.846 11.1208 18.5334 10.8823 19.221 10.6444 19.9002 10.5248 20.5725 10.5241 21.5474 10.5248 22.2871 10.7888 22.7931 11.3161 22.914 11.1923 23.1292 11.0823 23.4386 10.9861 23.6049 10.9352 23.7788 10.9098 23.9604 10.9091 24.0889 10.9098 24.21 10.9283 24.3228 10.9641 24.6025 11.0307 24.8294 11.1882 25.0026 11.437 25.0782 11.5917 25.1153 11.7753 25.1153 11.987 25.1153 12.1197 25.101 12.2703 25.0707 12.438L23.484 18.5427C23.3713 18.991 23.3142 19.3498 23.3142 19.6208 23.3142 19.937 23.3939 20.0978 23.552 20.1047 23.8168 20.1054 24.0471 19.8676 24.2436 19.3905 24.4403 18.914 24.6478 18.2686 24.8665 17.4538 24.9346 17.2201 25.1043 17.095 25.3765 17.0798L26.0105 17.0798C26.3734 17.0805 26.5466 17.2532 26.5316 17.5969L26.5316 17.6847ZM22.0451 12.944C22.0383 12.9082 22.0039 12.8203 21.9434 12.68 21.8374 12.4023 21.6602 12.1747 21.4112 11.9987 21.1624 11.8227 20.8674 11.7347 20.5271 11.734 20.2103 11.7347 19.8913 11.8303 19.5702 12.0207 19.2491 12.2118 18.9638 12.4717 18.7142 12.801 18.42 13.1832 18.1787 13.6706 17.9896 14.2646 17.8014 14.8586 17.6308 15.4491 17.4796 16.0349 17.3132 16.666 17.1853 17.271 17.0945 17.8498 17.0341 18.144 17.0039 18.4115 17.0039 18.6528 17.0039 18.8809 17.0231 19.0749 17.0603 19.2358 17.1289 19.5004 17.2499 19.7114 17.4233 19.869 17.5972 20.027 17.8275 20.1054 18.114 20.1047 18.484 20.1054 18.8621 20.0064 19.2471 19.8085 19.6321 19.6104 19.9799 19.3388 20.2893 18.9937 20.3649 18.9208 20.4296 18.8514 20.4825 18.7854 20.5353 18.7194 20.5766 18.6679 20.6062 18.6308 20.6062 18.5875 20.6214 18.485 20.6516 18.3228L22.0451 12.944Z" transform="matrix(1 0 0 1.00119 546.609 489.208)"/><path d="M2.87487 3.84371-2.29547 3.84371-2.29547 3.50451C-2.29547 3.48023-2.28276 3.44323-2.25733 3.39352L-0.180161 1.13635C0.0653671 0.865384 0.313978 0.587865 0.566059 0.304177 0.818139 0.0204909 1.04401-0.269362 1.2429-0.565384 1.44179-0.861404 1.6006-1.16668 1.7193-1.4812 1.83803-1.79572 1.897-2.12566 1.897-2.4714 1.897-2.7628 1.85884-3.03532 1.78251-3.28815 1.70621-3.541 1.59634-3.76303 1.45219-3.95421 1.30842-4.14539 1.12842-4.29956 0.912573-4.41674 0.696724-4.53392 0.44657-4.5925 0.162884-4.59289-0.260333-4.5925-0.634214-4.46607-0.958373-4.21323-1.28214-3.96038-1.49722-3.6817-1.60321-3.37797-1.62404-3.36949-1.59012-3.36526-1.50146-3.36564L-1.39354-3.36564C-1.26634-3.33634-1.15649-3.29201-1.06321-3.23265-0.969936-3.17292-0.89169-3.09081-0.828092-2.98597-0.764494-2.88113-0.732888-2.75471-0.732888-2.60708-0.732888-2.36001-0.81306-2.17075-0.974176-2.03931-1.13529-1.90749-1.31529-1.84197-1.51418-1.84236-1.70458-1.84197-1.88266-1.90749-2.04764-2.03931-2.2126-2.17075-2.29547-2.36001-2.29547-2.60708-2.29547-2.95205-2.22764-3.27891-2.09197-3.58726-1.95629-3.89563-1.77243-4.16274-1.53962-4.38898-1.30681-4.61486-1.03161-4.7937-0.714-4.92552-0.396395-5.05696-0.0595168-5.12287 0.296248-5.12326 0.73681-5.12287 1.14037-5.05812 1.50654-4.92861 1.87271-4.7991 2.18492-4.61293 2.44317-4.37048 2.70141-4.12765 2.90377-3.84706 3.04987-3.52867 3.19595-3.20992 3.2688-2.85762 3.2688-2.4714 3.2688-2.04357 3.17166-1.64964 2.97662-1.29002 2.78197-0.930013 2.54069-0.600073 2.25277-0.300199 1.96483 6.23824e-05 1.65879 0.282593 1.33463 0.547779 1.01086 0.812964 0.717538 1.07083 0.45505 1.32136L-1.00617 2.69662 0.906021 2.69662C1.17275 2.69702 1.42174 2.69509 1.65224 2.69084 1.88312 2.687 2.07893 2.67851 2.24004 2.66617 2.40116 2.65384 2.48365 2.64575 2.4875 2.64113 2.52141 2.6126 2.5534 2.55516 2.58309 2.46883 2.61277 2.38249 2.64013 2.28074 2.66558 2.16356 2.69101 2.04638 2.71645 1.92728 2.74188 1.80586 2.76733 1.68483 2.79045 1.55186 2.81166 1.4077L3.28151 1.4077Z" transform="matrix(1.11867 0 0 1 576.619 509.628)"/><path d="M-2.20791-10.2501-2.20791 10.2501" stroke="#000000" stroke-width="0.901087" stroke-linecap="round" stroke-linejoin="round" fill="none" transform="matrix(1 0 0 1.00119 591.062 503.498)"/><path d="M2.20791-10.2501 2.20791 10.2501" stroke="#000000" stroke-width="0.901087" stroke-linecap="round" stroke-linejoin="round" fill="none" transform="matrix(1 0 0 1.00119 591.062 503.498)"/><path d="M1.38767 0C1.38767 0.766391 0.766391 1.38767 -3.39351e-16 1.38767-0.766391 1.38767-1.38767 0.766391-1.38767 -2.54513e-16-1.38767-0.766391-0.766391-1.38767 8.48378e-17-1.38767 0.766391-1.38767 1.38767-0.766391 1.38767 0Z" transform="matrix(1 0 0 1.00119 605.028 503.498)"/><path d="M76.5574 18.2348C76.4295 19.1519 75.9971 19.8875 75.2608 20.4409 74.5244 20.9943 73.635 21.2708 72.592 21.2708 71.8976 21.2708 71.2371 21.1352 70.61 20.8644 69.9831 20.5936 69.4358 20.2188 68.9669 19.7417 68.476 19.2441 68.1042 18.6797 67.8512 18.0485 67.5982 17.4181 67.471 16.7581 67.471 16.0678 67.471 15.3646 67.5962 14.6867 67.845 14.0336 68.0946 13.3812 68.4685 12.8017 68.9669 12.295 69.4358 11.8042 69.9831 11.4212 70.61 11.1462 71.2371 10.8713 71.8976 10.7338 72.592 10.7331 73.0307 10.7338 73.4685 10.7798 73.9064 10.8713 74.345 10.9634 74.7396 11.1077 75.091 11.3057 75.4423 11.5037 75.731 11.7622 75.9572 12.0812 76.184 12.4002 76.2968 12.7763 76.2968 13.208 76.2968 13.5902 76.1744 13.8796 75.9289 14.0776 75.6836 14.2756 75.4134 14.3746 75.1185 14.3739 74.8243 14.3746 74.5547 14.2756 74.3092 14.0776 74.064 13.8796 73.9408 13.5902 73.9408 13.208 73.9408 12.8271 74.0728 12.5343 74.3368 12.328 74.5637 12.1671 74.8098 12.0833 75.0739 12.075L74.8579 12.075C74.73 11.9582 74.4503 11.8358 74.0199 11.7072 73.5896 11.5794 73.1138 11.5147 72.592 11.514 72.1699 11.5147 71.7636 11.6288 71.3745 11.8557 70.9853 12.0833 70.663 12.3871 70.4058 12.768 70.0965 13.2451 69.8923 13.7628 69.794 14.3196 69.6964 14.8772 69.6469 15.4601 69.6469 16.0678 69.6469 16.6481 69.7052 17.2091 69.8222 17.7515 69.9391 18.2945 70.1639 18.7931 70.4966 19.2468 70.7688 19.6214 71.1029 19.9205 71.4988 20.1439 71.8956 20.368 72.3128 20.4794 72.7508 20.4788 73.5593 20.4794 74.2165 20.2636 74.7225 19.8305 75.2285 19.398 75.5722 18.8404 75.753 18.1578 75.7984 17.9825 75.9083 17.8944 76.0816 17.8938L76.2858 17.9158C76.4674 17.9604 76.5574 18.0671 76.5574 18.2348Z" transform="matrix(1 0 0 1.00119 546.609 489.208)"/><path d="M87.9507 16.1118C87.9507 16.8022 87.8187 17.4621 87.5547 18.0925 87.2906 18.7235 86.9051 19.2804 86.399 19.7637 85.9164 20.234 85.3575 20.6024 84.7229 20.8699 84.0884 21.1373 83.4161 21.2708 82.7066 21.2708 81.9972 21.2708 81.3248 21.1393 80.6902 20.8754 80.0564 20.6114 79.4934 20.2408 79.0025 19.7637 78.489 19.273 78.104 18.7139 77.8468 18.087 77.5905 17.4601 77.4618 16.8022 77.4618 16.1118 77.4618 15.4086 77.5925 14.7307 77.8531 14.0776 78.1136 13.4252 78.4965 12.8381 79.0025 12.317 79.4858 11.8262 80.0468 11.4398 80.6847 11.1572 81.3228 10.8754 81.9972 10.7338 82.7066 10.7331 83.4161 10.7338 84.0884 10.8754 84.7229 11.1572 85.3575 11.4398 85.9164 11.8262 86.399 12.317 86.9125 12.8457 87.2997 13.4342 87.5602 14.0831 87.8208 14.7321 87.9507 15.4086 87.9507 16.1118ZM85.7989 15.8589C85.7989 15.2951 85.7597 14.7376 85.68 14.1876 85.601 13.6376 85.4064 13.1351 85.0963 12.68 84.8096 12.2923 84.4582 11.9898 84.0432 11.7732 83.6279 11.5574 83.1824 11.4487 82.7066 11.4481 82.2309 11.4487 81.7854 11.5574 81.3701 11.7732 80.9549 11.9898 80.6037 12.2923 80.3162 12.68 80.0069 13.1282 79.8131 13.6287 79.7333 14.1821 79.6542 14.7362 79.6144 15.2951 79.6144 15.8589 79.6144 16.4535 79.6508 17.0421 79.7223 17.625 79.7939 18.208 79.9918 18.7449 80.3162 19.2358 80.5734 19.618 80.9172 19.9205 81.3475 20.1439 81.7779 20.368 82.2309 20.4794 82.7066 20.4788 83.1824 20.4794 83.6354 20.368 84.0658 20.1439 84.4961 19.9205 84.8399 19.618 85.0963 19.2358 85.4215 18.7449 85.6202 18.208 85.6916 17.625 85.7631 17.0421 85.7989 16.4535 85.7989 15.8589Z" transform="matrix(1 0 0 1.00119 546.609 489.208)"/><path d="M96.8156 18.0039C96.8156 18.4521 96.7365 18.89 96.5777 19.319 96.4196 19.748 96.1514 20.1198 95.7733 20.4348 95.3657 20.7579 94.9147 20.9778 94.4197 21.0947 93.9255 21.2122 93.4249 21.2708 92.9189 21.2708 92.36 21.2708 91.8726 21.1792 91.4574 20.9957 91.0422 20.8129 90.7026 20.5894 90.4379 20.3247L89.7133 21.1607C89.6528 21.2267 89.562 21.2639 89.4411 21.2708L89.3737 21.2708C89.1468 21.2708 89.0334 21.1572 89.0334 20.9296L89.0334 17.2998C89.0334 17.139 89.1206 17.0366 89.2939 16.9918 89.3476 16.9781 89.3963 16.9706 89.4411 16.9698 89.5015 16.9706 89.5586 16.9816 89.6115 17.0028 89.7249 17.0476 89.8006 17.1245 89.8377 17.2339 90.0344 18.2389 90.3705 19.0426 90.8462 19.6434 91.322 20.245 92.0129 20.5454 92.9189 20.5447 93.282 20.5454 93.6326 20.511 93.9722 20.4409 94.3118 20.3715 94.6068 20.234 94.8556 20.0278 95.0598 19.86 95.2111 19.653 95.3087 19.407 95.407 19.1615 95.4557 18.8955 95.4557 18.6088 95.4557 18.1399 95.2708 17.7392 94.901 17.4051 94.5311 17.0716 94.0746 16.8495 93.5301 16.7389L91.9676 16.4199C91.5901 16.347 91.2257 16.2322 90.8745 16.0741 90.5238 15.9167 90.2138 15.7221 89.9456 15.491 89.6775 15.2601 89.459 14.9872 89.2884 14.6716 89.1186 14.3567 89.0334 14.0082 89.0334 13.626 89.0334 13.2087 89.1228 12.8072 89.3 12.4222 89.4775 12.0372 89.7436 11.7203 90.0983 11.47 90.5135 11.1627 90.9706 10.9634 91.4692 10.8713 91.9676 10.7798 92.4508 10.7338 92.9189 10.7331 93.7797 10.7338 94.4747 10.9318 95.0028 11.3271L95.5919 10.7991C95.6827 10.7558 95.7582 10.7338 95.8187 10.7331L95.8979 10.7331C96.1247 10.7338 96.2375 10.8362 96.2375 11.0411L96.2375 13.967C96.2375 14.1876 96.1247 14.3011 95.8979 14.3079L95.7733 14.3079C95.5471 14.3086 95.4337 14.1952 95.4337 13.967 95.4337 13.1681 95.2172 12.5363 94.7827 12.0702 94.3482 11.6048 93.7274 11.3717 92.9189 11.3711 92.5718 11.3717 92.2301 11.4013 91.894 11.4597 91.5578 11.5189 91.2573 11.6392 90.9934 11.822 90.5933 12.0867 90.3925 12.4793 90.3925 12.999 90.3925 13.3812 90.5664 13.7078 90.9136 13.9786 91.2615 14.2502 91.6995 14.4372 92.2281 14.5389L93.7797 14.8249C94.188 14.8992 94.5765 15.0312 94.9464 15.2216 95.3162 15.4128 95.6393 15.6417 95.915 15.909 96.1907 16.1772 96.41 16.4921 96.5722 16.855 96.7345 17.218 96.8156 17.601 96.8156 18.0039Z" transform="matrix(1 0 0 1.00119 546.609 489.208)"/><path d="M124.934 17.6847C124.837 18.0815 124.708 18.4885 124.549 18.9065 124.391 19.3245 124.195 19.7114 123.96 20.0669 123.726 20.423 123.441 20.718 123.105 20.9516 122.769 21.1868 122.367 21.3036 121.898 21.3036 121.339 21.3036 120.824 21.1957 120.351 20.9792 119.88 20.7634 119.564 20.5268 119.406 20.2697 119.081 20.5419 118.649 20.7818 118.109 20.9902 117.569 21.1992 117.023 21.3036 116.471 21.3036 115.777 21.3036 115.133 21.1813 114.54 20.9351 113.947 20.6905 113.477 20.2958 113.129 19.7527 112.752 19.1814 112.551 18.551 112.529 17.8608 112.514 17.7879 112.506 17.7075 112.506 17.6189 112.506 17.0179 112.589 16.4095 112.756 15.7929 112.93 15.0972 113.203 14.4228 113.577 13.7696 113.951 13.1172 114.436 12.5267 115.033 11.998 115.614 11.4927 116.249 11.1208 116.936 10.8823 117.624 10.6444 118.303 10.5248 118.975 10.5241 119.95 10.5248 120.69 10.7888 121.196 11.3161 121.317 11.1923 121.532 11.0823 121.841 10.9861 122.008 10.9352 122.182 10.9098 122.363 10.9091 122.492 10.9098 122.613 10.9283 122.725 10.9641 123.005 11.0307 123.232 11.1882 123.405 11.437 123.481 11.5917 123.518 11.7753 123.518 11.987 123.518 12.1197 123.504 12.2703 123.473 12.438L121.887 18.5427C121.774 18.991 121.717 19.3498 121.717 19.6208 121.717 19.937 121.797 20.0978 121.955 20.1047 122.219 20.1054 122.45 19.8676 122.646 19.3905 122.843 18.914 123.05 18.2686 123.269 17.4538 123.337 17.2201 123.507 17.095 123.779 17.0798L124.413 17.0798C124.776 17.0805 124.949 17.2532 124.934 17.5969L124.934 17.6847ZM120.448 12.944C120.441 12.9082 120.406 12.8203 120.346 12.68 120.24 12.4023 120.063 12.1747 119.814 11.9987 119.565 11.8227 119.27 11.7347 118.93 11.734 118.613 11.7347 118.294 11.8303 117.973 12.0207 117.652 12.2118 117.367 12.4717 117.117 12.801 116.823 13.1832 116.581 13.6706 116.392 14.2646 116.204 14.8586 116.033 15.4491 115.882 16.0349 115.716 16.666 115.588 17.271 115.497 17.8498 115.437 18.144 115.407 18.4115 115.407 18.6528 115.407 18.8809 115.426 19.0749 115.463 19.2358 115.532 19.5004 115.653 19.7114 115.826 19.869 116 20.027 116.23 20.1054 116.517 20.1047 116.887 20.1054 117.265 20.0064 117.65 19.8085 118.035 19.6104 118.383 19.3388 118.692 18.9937 118.768 18.9208 118.832 18.8514 118.885 18.7854 118.938 18.7194 118.979 18.6679 119.009 18.6308 119.009 18.5875 119.024 18.485 119.054 18.3228L120.448 12.944Z" transform="matrix(1 0 0 1.00119 546.609 489.208)"/><path d="M2.87487 3.84371-2.29547 3.84371-2.29547 3.50451C-2.29547 3.48023-2.28276 3.44323-2.25733 3.39352L-0.180161 1.13635C0.0653671 0.865384 0.313978 0.587865 0.566059 0.304177 0.818139 0.0204909 1.04401-0.269362 1.2429-0.565384 1.44179-0.861404 1.6006-1.16668 1.7193-1.4812 1.83803-1.79572 1.897-2.12566 1.897-2.4714 1.897-2.7628 1.85884-3.03532 1.78251-3.28815 1.70621-3.541 1.59634-3.76303 1.45219-3.95421 1.30842-4.14539 1.12842-4.29956 0.912573-4.41674 0.696724-4.53392 0.44657-4.5925 0.162884-4.59289-0.260333-4.5925-0.634214-4.46607-0.958373-4.21323-1.28214-3.96038-1.49722-3.6817-1.60321-3.37797-1.62404-3.36949-1.59012-3.36526-1.50146-3.36564L-1.39354-3.36564C-1.26634-3.33634-1.15649-3.29201-1.06321-3.23265-0.969936-3.17292-0.89169-3.09081-0.828092-2.98597-0.764494-2.88113-0.732888-2.75471-0.732888-2.60708-0.732888-2.36001-0.81306-2.17075-0.974176-2.03931-1.13529-1.90749-1.31529-1.84197-1.51418-1.84236-1.70458-1.84197-1.88266-1.90749-2.04764-2.03931-2.2126-2.17075-2.29547-2.36001-2.29547-2.60708-2.29547-2.95205-2.22764-3.27891-2.09197-3.58726-1.95629-3.89563-1.77243-4.16274-1.53962-4.38898-1.30681-4.61486-1.03161-4.7937-0.714-4.92552-0.396395-5.05696-0.0595168-5.12287 0.296248-5.12326 0.73681-5.12287 1.14037-5.05812 1.50654-4.92861 1.87271-4.7991 2.18492-4.61293 2.44317-4.37048 2.70141-4.12765 2.90377-3.84706 3.04987-3.52867 3.19595-3.20992 3.2688-2.85762 3.2688-2.4714 3.2688-2.04357 3.17166-1.64964 2.97662-1.29002 2.78197-0.930013 2.54069-0.600073 2.25277-0.300199 1.96483 6.23824e-05 1.65879 0.282593 1.33463 0.547779 1.01086 0.812964 0.717538 1.07083 0.45505 1.32136L-1.00617 2.69662 0.906021 2.69662C1.17275 2.69702 1.42174 2.69509 1.65224 2.69084 1.88312 2.687 2.07893 2.67851 2.24004 2.66617 2.40116 2.65384 2.48365 2.64575 2.4875 2.64113 2.52141 2.6126 2.5534 2.55516 2.58309 2.46883 2.61277 2.38249 2.64013 2.28074 2.66558 2.16356 2.69101 2.04638 2.71645 1.92728 2.74188 1.80586 2.76733 1.68483 2.79045 1.55186 2.81166 1.4077L3.28151 1.4077Z" transform="matrix(1.11867 0 0 1 675.021 509.628)"/><path d="M138.636 20.8638C138.636 21.7216 138.46 22.5322 138.109 23.2947 137.758 24.0578 137.265 24.732 136.63 25.3185 136.563 25.3625 136.487 25.3845 136.403 25.3845 136.344 25.3845 136.265 25.3625 136.166 25.3185L136.109 25.2306C136.049 25.172 136.018 25.1062 136.018 25.0325 136.018 24.9665 136.049 24.8896 136.109 24.8016 136.683 24.2736 137.123 23.6728 137.429 22.9976 137.735 22.3231 137.888 21.6117 137.888 20.8638 137.888 20.8129 137.884 20.7565 137.877 20.6938 137.869 20.6321 137.865 20.6698 137.865 20.8087 137.745 20.9483 137.466 21.0177 137.027 21.0177 136.589 21.0177 136.257 20.883 136.03 20.6114 135.803 20.3405 135.69 20.0394 135.69 19.7087 135.69 19.3795 135.803 19.0812 136.03 18.8129 136.257 18.5455 136.589 18.4115 137.027 18.4108 137.352 18.4115 137.616 18.494 137.82 18.659 138.024 18.8239 138.186 19.024 138.307 19.2584 138.428 19.4935 138.513 19.7535 138.562 20.0394 138.612 20.3253 138.636 20.6004 138.636 20.8638Z" transform="matrix(1 0 0 1.00119 546.609 489.208)"/><path d="M153.515 16.0349C153.333 16.7395 153.056 17.4216 152.682 18.0815 152.308 18.7414 151.811 19.3319 151.192 19.8517 150.625 20.3584 149.999 20.7268 149.312 20.9571 148.624 21.1882 147.937 21.3036 147.249 21.3036 146.57 21.3036 145.943 21.1778 145.369 20.9249 144.795 20.672 144.345 20.278 144.02 19.7417 143.658 19.1704 143.469 18.5359 143.454 17.8388L143.454 17.6847C143.454 17.0696 143.534 16.4535 143.692 15.8369L146.071 6.63023C146.071 6.53535 145.943 6.55049 145.686 6.67422 145.86 6.71135 145.663 6.72991 145.097 6.72922 144.924 6.72991 144.776 6.6749 144.655 6.56491 144.534 6.45492 144.473 6.30849 144.473 6.12424 144.473 6.02936 144.488 5.9675 144.519 5.93725L144.564 5.75025C144.633 5.43539 144.825 5.27796 145.142 5.27727L147.17 5.16728C147.404 5.15353 147.636 5.1391 147.867 5.12397 148.098 5.10953 148.326 5.10198 148.552 5.10129 148.726 5.10198 148.873 5.15353 148.994 5.25597 149.115 5.35908 149.176 5.5014 149.176 5.68426L149.176 5.81626 148.881 6.90522C148.677 7.66144 148.483 8.41147 148.298 9.15532 148.113 9.89985 147.964 10.4993 147.849 10.9531 148.311 10.6753 148.953 10.5323 149.776 10.5241 150.456 10.5248 151.094 10.6533 151.69 10.9098 152.287 11.1669 152.767 11.5622 153.13 12.097 153.492 12.6553 153.688 13.2857 153.718 13.989L153.718 14.2639C153.718 14.8662 153.651 15.456 153.515 16.0349ZM150.795 12.614C150.728 12.3583 150.601 12.1472 150.416 11.9822 150.231 11.8172 150.003 11.7347 149.73 11.734 149.361 11.7347 148.98 11.8358 148.586 12.0372 148.194 12.2393 147.85 12.5013 147.555 12.823 147.503 12.8972 147.45 12.9612 147.397 13.0162 147.344 13.0712 147.306 13.1207 147.283 13.164L146.513 16.0788C146.347 16.7031 146.218 17.286 146.127 17.8278 146.083 18.063 146.06 18.2794 146.06 18.4769 146.06 18.7414 146.098 18.9835 146.173 19.2028 146.257 19.4819 146.393 19.7026 146.581 19.8635 146.77 20.025 147.016 20.1054 147.317 20.1047 147.62 20.1054 147.933 20.0105 148.258 19.8195 148.582 19.6291 148.862 19.3718 149.096 19.0488 149.398 18.6535 149.646 18.164 149.838 17.581 150.031 16.9981 150.203 16.402 150.353 15.7929 150.52 15.1776 150.656 14.5802 150.762 13.9999 150.822 13.6927 150.852 13.4177 150.852 13.175 150.852 12.9632 150.834 12.7763 150.795 12.614Z" transform="matrix(1 0 0 1.00119 546.609 489.208)"/><path d="M2.8579 3.84371C2.07891 3.81904 1.32074 3.80671 0.583773 3.80671-0.15281 3.80671-0.910979 3.81904-1.69034 3.84371L-1.69034 3.31334-1.25171 3.31334C-1.11218 3.31372-0.980745 3.31179-0.858173 3.30755-0.735215 3.3037-0.618811 3.29329-0.508575 3.27672-0.398338 3.26053-0.303134 3.24396-0.222962 3.22699-0.155124 3.21504-0.0988481 3.17728-0.054522 3.11329-0.00981044 3.0497 0.0121598 2.97878 0.0121598 2.90014L0.0121598-4.05018C-0.19945-3.94688-0.460009-3.86863-0.769135-3.81545-1.07826-3.76188-1.41707-3.73527-1.78554-3.73567L-1.78554-4.25987C-1.27715-4.25947-0.808064-4.31999-0.378295-4.4414 0.0514751-4.56244 0.423043-4.78984 0.736409-5.12326L0.93337-5.12326C1.0729-5.12287 1.14267-5.05503 1.14267-4.91975L1.14267 2.90014C1.14267 2.98263 1.16387 3.0547 1.20627 3.11638 1.24866 3.17804 1.31034 3.21504 1.39051 3.22699 1.45835 3.24396 1.54545 3.26053 1.65106 3.27672 1.75707 3.29329 1.87656 3.3037 2.00992 3.30755 2.14329 3.31179 2.27356 3.31372 2.40038 3.31334L2.8579 3.31334 2.8579 3.84371Z" transform="matrix(1.11867 0 0 1 704.036 509.628)"/><path d="M2.98485-10.4433-4.78702 0 2.98485 10.4433 4.06615 10.2631-2.98485 0 4.06615-10.2631" transform="matrix(1 0 0 1.00119 653.538 503.498)"/><path d="M2.98485-10.4433-4.78702 0 2.98485 10.4433 4.06615 10.2631-2.98485 0 4.06615-10.2631" transform="matrix(-1 1.51176e-07 -1.50996e-07 -1.00119 712.524 503.498)"/></g><path d="M-70.1184 0 70.1184 0" stroke="#000000" stroke-width="1.14622" stroke-linecap="round" stroke-linejoin="round" fill="none" transform="matrix(1 0 0 1.00119 629.524 472.263)"/><g><path d="M0 0-16.0471-3.43867-16.0471-0.573112-16.0471 0.573112-16.0471 3.43867Z" stroke="#000000" stroke-width="1.14622" stroke-linejoin="round" transform="matrix(-1 1.2261e-16 -1.22465e-16 -1.00119 559.406 472.263)"/></g><g><path d="M0 0-16.0471-3.43867-16.0471-0.573112-16.0471 0.573112-16.0471 3.43867Z" stroke="#000000" stroke-width="1.14622" stroke-linejoin="round" transform="matrix(1 0 0 1.00119 699.643 472.263)"/></g><path d="M-70.1184-10.9202-70.1184 10.9202" stroke="#000000" stroke-width="0.76415" stroke-linecap="round" stroke-linejoin="round" fill="none" transform="matrix(1 0 0 1.00119 629.524 472.263)"/><path d="M70.1184-10.9202 70.1184 10.9202" stroke="#000000" stroke-width="0.76415" stroke-linecap="round" stroke-linejoin="round" fill="none" transform="matrix(1 0 0 1.00119 629.524 472.263)"/><g><path d="M12.4295 16.8699C12.3319 17.2666 12.2034 17.6734 12.0446 18.0914 11.8864 18.5094 11.6898 18.8965 11.4554 19.252 11.2216 19.6081 10.9363 19.9029 10.6002 20.1368 10.2647 20.3718 9.86251 20.4887 9.39366 20.4887 8.83475 20.4887 8.31913 20.3808 7.84684 20.1643 7.37523 19.9483 7.05968 19.7119 6.90088 19.4548 6.57639 19.727 6.14464 19.967 5.6043 20.1753 5.06394 20.3842 4.51809 20.4887 3.96674 20.4887 3.27238 20.4887 2.62822 20.3663 2.03493 20.1202 1.44232 19.8756 0.972092 19.481 0.62423 18.9378 0.246807 18.3665 0.0467514 17.7361 0.0240646 17.0459 0.00894023 16.973 0.00137798 16.8925 0.00137798 16.8038 0.00137798 16.2031 0.0845625 15.5946 0.250932 14.9779 0.424862 14.2822 0.698477 13.6078 1.07246 12.9547 1.44645 12.3023 1.93112 11.7117 2.52784 11.1831 3.10945 10.6778 3.74399 10.3058 4.43146 10.0673 5.11894 9.82943 5.79816 9.70981 6.47051 9.70912 7.44535 9.70981 8.18508 9.97379 8.69106 10.5011 8.81205 10.3773 9.02724 10.2673 9.33659 10.1711 9.50296 10.1202 9.6769 10.0948 9.85839 10.0941 9.98695 10.0948 10.1079 10.1134 10.2207 10.1491 10.5005 10.2158 10.7273 10.3732 10.9006 10.6221 10.9762 10.7768 11.0133 10.9603 11.0133 11.1721 11.0133 11.3047 10.9989 11.4553 10.9687 11.623L9.38197 17.7278C9.26923 18.1761 9.21216 18.5349 9.21216 18.8058 9.21216 19.122 9.29191 19.2829 9.45003 19.2898 9.71471 19.2904 9.94501 19.0526 10.1416 18.5754 10.3382 18.0991 10.5459 17.4535 10.7645 16.6389 10.8325 16.4051 11.0024 16.2799 11.2746 16.265L11.9084 16.265C12.2714 16.2656 12.4447 16.4381 12.4295 16.7818L12.4295 16.8699ZM7.94309 12.129C7.93621 12.0933 7.90184 12.0053 7.84133 11.865 7.73547 11.5873 7.55809 11.3597 7.30923 11.1837 7.06037 11.0078 6.76544 10.9198 6.42513 10.9191 6.10821 10.9198 5.78922 11.0153 5.46817 11.2058 5.14712 11.3969 4.86182 11.6567 4.61228 11.986 4.31803 12.3683 4.07673 12.8557 3.88768 13.4497 3.6993 14.0436 3.5288 14.6342 3.37756 15.2199 3.21119 15.8511 3.08333 16.456 2.99258 17.0349 2.93208 17.3291 2.90183 17.5966 2.90183 17.8379 2.90183 18.0661 2.92109 18.26 2.95821 18.4208 3.02695 18.6855 3.14795 18.8965 3.3212 19.0539 3.49512 19.2121 3.72543 19.2904 4.0121 19.2898 4.38196 19.2904 4.76008 19.1915 5.14506 18.9934 5.53005 18.7955 5.87791 18.5239 6.18727 18.1788 6.26289 18.1059 6.32752 18.0366 6.38046 17.9705 6.43339 17.9045 6.47464 17.853 6.50419 17.8159 6.50419 17.7725 6.51932 17.6701 6.54957 17.5078L7.94309 12.129Z" transform="matrix(1 0 0 1.00119 709.565 425.184)"/><path d="M2.875 3.84371-2.29457 3.84371-2.29457 3.50451C-2.29457 3.48023-2.28185 3.44323-2.25641 3.39352L-0.179636 1.13635C0.0662775 0.865384 0.314888 0.587865 0.566969 0.304177 0.819049 0.0204909 1.04415-0.269362 1.24304-0.565384 1.44193-0.861404 1.60074-1.16668 1.71944-1.4812 1.83816-1.79572 1.89714-2.12566 1.89714-2.4714 1.89714-2.7628 1.85936-3.03532 1.78305-3.28815 1.70673-3.541 1.59688-3.76303 1.45272-3.95421 1.30856-4.14539 1.12856-4.29956 0.912712-4.41674 0.696864-4.53392 0.447097-4.5925 0.163409-4.59289-0.259808-4.5925-0.633689-4.46607-0.957462-4.21323-1.28123-3.96038-1.49631-3.6817-1.60231-3.37797-1.62312-3.36949-1.5892-3.36526-1.50055-3.36564L-1.39263-3.36564C-1.26543-3.33634-1.15558-3.29201-1.0623-3.23265-0.969025-3.17292-0.890779-3.09081-0.827182-2.98597-0.763584-2.88113-0.731978-2.75471-0.731978-2.60708-0.731978-2.36001-0.81215-2.17075-0.973265-2.03931-1.13438-1.90749-1.31438-1.84197-1.51327-1.84236-1.70368-1.84197-1.88137-1.90749-2.04672-2.03931-2.2117-2.17075-2.29457-2.36001-2.29457-2.60708-2.29457-2.95205-2.22672-3.27891-2.09105-3.58726-1.95537-3.89563-1.77151-4.16274-1.5387-4.38898-1.3059-4.61486-1.0307-4.7937-0.71309-4.92552-0.395484-5.05696-0.0586064-5.12287 0.296773-5.12326 0.73695-5.12287 1.14051-5.05812 1.50668-4.92861 1.87285-4.7991 2.18506-4.61293 2.44331-4.37048 2.70155-4.12765 2.90391-3.84706 3.05-3.52867 3.19608-3.20992 3.26893-2.85762 3.26893-2.4714 3.26893-2.04357 3.1718-1.64964 2.97676-1.29002 2.78211-0.930013 2.54083-0.600073 2.2529-0.300199 1.96498 6.23824e-05 1.65893 0.282593 1.33516 0.547779 1.01139 0.812964 0.718063 1.07083 0.455575 1.32136L-1.00526 2.69662 0.906544 2.69662C1.17327 2.69702 1.42227 2.69509 1.65276 2.69084 1.88364 2.687 2.07945 2.67851 2.24019 2.66617 2.40129 2.65384 2.48378 2.64575 2.48764 2.64113 2.52156 2.6126 2.55354 2.55516 2.58323 2.46883 2.61291 2.38249 2.64027 2.28074 2.66571 2.16356 2.69115 2.04638 2.71659 1.92728 2.74202 1.80586 2.76747 1.68483 2.79059 1.55186 2.8118 1.4077L3.28165 1.4077Z" transform="matrix(1.11867 0 0 1 725.474 444.788)"/><path d="M26.8671 6.82723C26.6409 7.67831 26.2614 8.48541 25.7293 9.24782 25.1971 10.0109 24.5344 10.6853 23.7411 11.2711 23.658 11.3082 23.5939 11.3267 23.5487 11.3261L23.5259 11.3481C23.4125 11.3487 23.3259 11.3082 23.2653 11.2271L23.2427 11.1831C23.2048 11.1253 23.1856 11.0703 23.1856 11.0181 23.1856 10.9163 23.2386 10.8173 23.3445 10.7211 24.0319 10.1862 24.619 9.58331 25.1057 8.91234 25.5931 8.24135 25.9273 7.52845 26.1081 6.77223 26.1384 6.70692 26.1576 6.64298 26.1651 6.58042 26.1728 6.51854 26.161 6.56736 26.1308 6.72823 26.161 6.69936 26.0744 6.73098 25.8702 6.82242 25.6668 6.91453 25.4516 6.9599 25.2246 6.95921 24.7641 6.9599 24.4505 6.81348 24.2843 6.51923 24.1866 6.35836 24.1371 6.1755 24.1371 5.96926 24.1371 5.85995 24.1522 5.7424 24.1825 5.61727 24.2656 5.31753 24.4527 5.03498 24.7435 4.77099 25.0342 4.50699 25.3944 4.37501 25.8248 4.37432 26.15 4.37501 26.3996 4.45613 26.5729 4.617 26.7468 4.77856 26.8677 4.97655 26.9351 5.21029 26.9805 5.39452 27.0031 5.58497 27.0031 5.78227L27.0031 6.00225C26.973 6.2965 26.9276 6.57148 26.8671 6.82723Z" transform="matrix(1 0 0 1.00119 709.565 425.184)"/></g></g></svg>