<?xml version="1.0"?>
<svg xmlns="http://www.w3.org/2000/svg" xmlns:xlink="http://www.w3.org/1999/xlink" width="465.947418" height="499.615356">
	<defs>
		<marker id="CustomMarker-01" markerUnits="strokeWidth" markerWidth="15.000001" markerHeight="9" viewBox="-15 -4.5 15 9" orient="auto-start-reverse">
			<path d="M 0 -0 L -10 -3, -8 -0.5, -8 0.5, -10 3 Z" fill="#000000" stroke="#000000" stroke-linejoin="round" />
		</marker>
		<marker id="CustomMarker-02" markerUnits="strokeWidth" markerWidth="15.000001" markerHeight="9" viewBox="-15 -4.5 15 9" orient="auto-start-reverse">
			<path d="M 0 -0 L -10 -3, -8 -0.5, -8 0.5, -10 3 Z" fill="#000000" stroke="#000000" stroke-linejoin="round" />
		</marker>
		<marker id="CustomMarker-03" markerUnits="strokeWidth" markerWidth="15.000001" markerHeight="9" viewBox="-15 -4.5 15 9" orient="auto-start-reverse">
			<path d="M 0 -0 L -10 -3, -8 -0.5, -8 0.5, -10 3 Z" fill="#000000" stroke="#000000" stroke-linejoin="round" />
		</marker>
		<marker id="CustomMarker-04" markerUnits="strokeWidth" markerWidth="15.000001" markerHeight="9" viewBox="-15 -4.5 15 9" orient="auto-start-reverse">
			<path d="M 0 -0 L -10 -3, -8 -0.5, -8 0.5, -10 3 Z" fill="#000000" stroke="#000000" stroke-linejoin="round" />
		</marker>
		<marker id="CustomMarker-05" markerUnits="strokeWidth" markerWidth="15.000001" markerHeight="9" viewBox="-15 -4.5 15 9" orient="auto-start-reverse">
			<path d="M 0 -0 L -10 -3, -8 -0.5, -8 0.5, -10 3 Z" fill="#000000" stroke="#000000" stroke-linejoin="round" />
		</marker>
		<marker id="CustomMarker-06" markerUnits="strokeWidth" markerWidth="15.000001" markerHeight="9" viewBox="-15 -4.5 15 9" orient="auto-start-reverse">
			<path d="M 0 -0 L -10 -3, -8 -0.5, -8 0.5, -10 3 Z" fill="#000000" stroke="#000000" stroke-linejoin="round" />
		</marker>
	</defs>
	<path d="M -221.263 0 L 221.263 0" fill="none" stroke="#000000" stroke-width="1.60000014" stroke-linecap="round" stroke-linejoin="round" marker-end="url(#CustomMarker-01)" transform="matrix(0.833333 0 0 0.833333 244.618 249.424)" />
	<path d="M 0.0722197 206.692 C -50.7463 165.449, -84.9423 88.304, -84.9423 -0.0592696, -84.9423 -88.3435, -50.8074 -165.43, -0.0641893 -206.7 L -0.0722331 -206.692 C 50.7462 -165.449, 84.9422 -88.3041, 84.9422 0.0592426, 84.9422 88.3434, 50.8073 165.43, 0.0641759 206.7" fill="none" stroke="#000000" stroke-opacity="0.498039186" stroke-width="1.60000014" stroke-linecap="round" stroke-linejoin="round" transform="matrix(0.833333 0 -0 0.833333 244.618 249.424)" />
	<path d="M 0 249.282 L 0 -249.282" fill="none" stroke="#000000" stroke-width="1.60000014" stroke-linecap="round" stroke-linejoin="round" marker-end="url(#CustomMarker-02)" transform="matrix(0.833333 0 0 0.833333 134.479 249.424)" />
	<g transform="matrix(1 0 -0 1 107.349 37.8662)">
		<svg width="32.9738617" height="32.9571342">
			<defs />
			<path d="M 9.12724 9.8992 C 9.05854 10.1746, 8.91827 10.3807, 8.70759 10.5181, 8.4969 10.6555, 8.28508 10.7242, 8.07096 10.7236, 7.85111 10.7242, 7.66848 10.6538, 7.52364 10.5129, 7.41715 10.4099, 7.36047 10.2753, 7.3536 10.1099, 7.3536 10.0435, 7.3662 9.95759, 7.39139 9.8534, 7.46123 9.6221, 7.56829 9.44634, 7.71257 9.32726, 7.85741 9.20818, 7.95817 9.13948, 8.01428 9.12058, 7.8952 9.02955, 7.64959 8.98375, 7.2786 8.98318, 6.9517 8.98375, 6.65915 9.15322, 6.40152 9.49214, 6.14389 9.83107, 5.95153 10.2387, 5.82557 10.7144 L 4.95765 14.0671 C 4.87006 14.4037, 4.80422 14.7243, 4.75956 15.0289, 4.73494 15.1331, 4.72235 15.2247, 4.72235 15.3037, 4.72235 15.4938, 4.75384 15.6735, 4.81624 15.8441, 4.87922 16.0279, 4.97368 16.1745, 5.09963 16.2844, 5.22558 16.3943, 5.38589 16.4493, 5.58054 16.4487, 5.83244 16.4493, 6.07462 16.384, 6.30705 16.2523, 6.53949 16.1212, 6.75361 15.9443, 6.94827 15.721, 7.14349 15.4983, 7.31639 15.239, 7.46753 14.9424, 7.61867 14.6464, 7.73776 14.3424, 7.82535 14.0304, 7.86314 13.8724, 7.9702 13.7928, 8.14653 13.7923 L 8.36294 13.7923 C 8.52667 13.7928, 8.60854 13.8541, 8.60854 13.9755, 8.60854 14.0127, 8.59938 14.0465, 8.57992 14.0762, 8.49232 14.4432, 8.3492 14.805, 8.15111 15.1623, 7.95302 15.5195, 7.7223 15.8356, 7.4578 16.1104, 7.19387 16.3852, 6.89388 16.6113, 6.55724 16.7876, 6.22061 16.9651, 5.8605 17.0533, 5.47692 17.0533, 5.08704 17.0533, 4.7504 16.9697, 4.46758 16.8014, 4.18476 16.6342, 3.95518 16.4155, 3.77885 16.1464, 3.72275 16.08, 3.67866 16.0113, 3.64717 15.9409, 3.61569 15.871, 3.60595 15.8602, 3.61855 15.9083, 3.46741 16.159, 3.22867 16.4126, 2.90177 16.6691, 2.57486 16.9256, 2.19758 17.0533, 1.76934 17.0533, 1.53061 17.0533, 1.29473 17.0229, 1.06229 16.9617, 0.829854 16.901, 0.626613 16.8065, 0.453715 16.6783, 0.280817 16.55, 0.150285 16.3943, 0.0621184 16.2105, 0.0186076 16.1012, -0.00314775 15.9821, -0.00372026 15.8533, -0.00314775 15.7623, 0.00944747 15.6552, 0.0340654 15.5327, 0.103339 15.2585, 0.244749 15.0524, 0.458295 14.915, 0.672414 14.7776, 0.88596 14.7089, 1.10008 14.7083, 1.31992 14.7089, 1.50885 14.7793, 1.66572 14.919, 1.77278 15.0232, 1.82602 15.1577, 1.82602 15.322, 1.82602 15.4079, 1.81343 15.4938, 1.78824 15.5785, 1.73213 15.7926, 1.62965 15.9655, 1.48194 16.0966, 1.33423 16.2283, 1.22889 16.2999, 1.16592 16.3113, 1.28557 16.4098, 1.52774 16.4556, 1.89243 16.4487, 2.21933 16.4493, 2.51475 16.2787, 2.77868 15.9363, 3.04318 15.5945, 3.23497 15.1852, 3.35405 14.7083 L 4.23171 11.3373 C 4.31987 11.0202, 4.38857 10.7087, 4.43896 10.403, 4.45155 10.3057, 4.45785 10.2141, 4.45785 10.1282, 4.45785 9.93927, 4.42979 9.76237, 4.37312 9.59691, 4.31014 9.41428, 4.21281 9.26657, 4.08056 9.15322, 3.94889 9.04043, 3.78515 8.98375, 3.58992 8.98318, 3.33859 8.98375, 3.09527 9.04959, 2.8594 9.1807, 2.62353 9.31237, 2.40826 9.48756, 2.21304 9.70741, 2.01838 9.92725, 1.84549 10.1826, 1.69434 10.4723, 1.5432 10.7625, 1.43328 11.0694, 1.36401 11.3923, 1.2953 11.5578, 1.17851 11.6431, 1.01477 11.6488 L 0.807526 11.6488 C 0.656383 11.6494, 0.580812 11.5732, 0.580812 11.4198 L 0.580812 11.3557 C 0.675276 10.9778, 0.820121 10.6097, 1.01477 10.2524, 1.21 9.89519, 1.44301 9.57916, 1.71324 9.30436, 1.98346 9.02955, 2.28575 8.80513, 2.61895 8.63109, 2.95215 8.45704, 3.31397 8.37002, 3.70328 8.36945, 4.08114 8.37002, 4.41434 8.45246, 4.70345 8.61735, 4.99257 8.78223, 5.22845 9.00207, 5.4105 9.27631, 5.44829 9.34386, 5.48321 9.416, 5.5147 9.49214, 5.54619 9.56886, 5.55535 9.58832, 5.54275 9.55111, 5.70019 9.28318, 5.94237 9.01925, 6.26927 8.75933, 6.59617 8.49998, 6.97002 8.37002, 7.39139 8.36945, 7.6307 8.37002, 7.86829 8.39922, 8.10416 8.45704, 8.34004 8.51544, 8.54385 8.60819, 8.71675 8.73643, 8.88965 8.86467, 9.01731 9.02326, 9.09918 9.21218, 9.14327 9.32268, 9.16502 9.44806, 9.16502 9.58775, 9.16502 9.67992, 9.15243 9.78355, 9.12724 9.8992 Z" stroke="none" fill="#000000" />
			<rect />
		</svg>
	</g>
	<g transform="matrix(1 0 -0 1 415.847 258.144)">
		<svg width="30.0150681" height="41.9571342">
			<defs />
			<path d="M 6.57986 16.7693 C 6.44818 17.2823, 6.24036 17.7724, 5.95754 18.2395, 5.67472 18.7067, 5.34095 19.1223, 4.95737 19.4853, 4.57378 19.8488, 4.14326 20.1437, 3.66521 20.3693, 3.18717 20.5954, 2.69023 20.7082, 2.1744 20.7082, 1.86639 20.7082, 1.58357 20.6521, 1.32594 20.5387, 1.06831 20.4259, 0.857624 20.2731, 0.693887 20.0807, 0.530149 19.8883, 0.420227 19.6611, 0.363548 19.3983, 0.338358 19.2826, 0.325763 19.1635, 0.325763 19.041, 0.325763 18.8824, 0.344656 18.7204, 0.382441 18.5555, 0.451715 18.2807, 0.593125 18.0746, 0.806671 17.9372, 1.02079 17.7998, 1.23147 17.7311, 1.43872 17.7311, 1.65914 17.7311, 1.84463 17.8015, 1.9952 17.9418, 2.10226 18.046, 2.1555 18.18, 2.1555 18.3449, 2.1555 18.4124, 2.14291 18.4949, 2.11772 18.5922, 2.04902 18.867, 1.90761 19.0731, 1.69349 19.2105, 1.47994 19.3479, 1.30991 19.4166, 1.18395 19.4166, 1.22174 19.5815, 1.33968 19.7361, 1.53777 19.8792, 1.73585 20.0229, 1.98948 20.0944, 2.29749 20.0944, 2.63698 20.0944, 2.95473 20.0028, 3.25014 19.8196, 3.54556 19.6364, 3.81635 19.3908, 4.06139 19.0823, 4.30642 18.7742, 4.52169 18.417, 4.70718 18.0105, 4.89267 17.6046, 5.0421 17.1787, 5.15546 16.7327 L 5.21213 16.5128 C 5.11824 16.5987, 4.92015 16.7103, 4.61787 16.8472, 4.31616 16.9846, 3.98582 17.0533, 3.62743 17.0533, 3.19976 17.0533, 2.8179 16.9743, 2.48126 16.8151, 2.14463 16.6571, 1.87898 16.4126, 1.68433 16.0823, 1.4954 15.7285, 1.40437 15.338, 1.41067 14.9098 L 1.41067 14.8365 C 1.42326 14.3911, 1.47994 13.9486, 1.58013 13.5083, 1.68089 13.0875, 1.82746 12.6238, 2.01925 12.1165, 2.21104 11.6099, 2.39481 11.1181, 2.57057 10.6412, 2.7595 10.1351, 2.85397 9.71943, 2.85397 9.39539, 2.85397 9.12116, 2.73775 8.98375, 2.50473 8.98318, 2.29119 8.98375, 2.09768 9.04501, 1.92478 9.16696, 1.75188 9.28947, 1.59502 9.45894, 1.45303 9.67535, 1.31162 9.89233, 1.18453 10.1488, 1.07117 10.4448, 0.957814 10.7414, 0.863349 11.0568, 0.787778 11.3923, 0.719077 11.5578, 0.602858 11.6431, 0.43912 11.6488 L 0.222139 11.6488 C 0.070996 11.6494, -0.00457531 11.5732, -0.00457531 11.4198 L -0.00457531 11.3557 C 0.0835912 11.0202, 0.200383 10.6772, 0.344656 10.3257, 0.489501 9.97477, 0.672131 9.65588, 0.891975 9.36848, 1.11182 9.08165, 1.36372 8.84349, 1.64654 8.65399, 1.92936 8.46506, 2.2534 8.37002, 2.61809 8.36945, 2.93297 8.37002, 3.20148 8.43758, 3.42476 8.57155, 3.64804 8.70609, 3.8175 8.88471, 3.93372 9.10742, 4.05051 9.33069, 4.11463 9.58203, 4.12723 9.86256 L 4.12723 9.92668 C 4.12723 10.19, 4.07398 10.4614, 3.96692 10.7419, 3.78487 11.2188, 3.60395 11.706, 3.42476 12.2035, 3.24556 12.7016, 3.10587 13.1488, 3.00511 13.5455, 2.90435 13.9428, 2.83507 14.3361, 2.79729 14.7266, 2.7721 14.8308, 2.75664 14.9442, 2.74977 15.0655, 2.74977 15.3043, 2.79099 15.5396, 2.87286 15.7709, 2.92954 15.9792, 3.03316 16.1441, 3.1843 16.2661, 3.33545 16.3886, 3.51464 16.4493, 3.72189 16.4487, 4.12436 16.4493, 4.47646 16.3302, 4.77817 16.092, 5.08046 15.8539, 5.34438 15.5424, 5.57052 15.1571 L 7.08939 9.24883 C 7.14607 9.02326, 7.26057 8.85723, 7.43347 8.75017, 7.60637 8.64368, 7.78098 8.58987, 7.95674 8.58929, 8.13937 8.58987, 8.29052 8.64483, 8.4096 8.75418, 8.49204 8.83433, 8.53269 8.94081, 8.53269 9.07478, 8.53269 9.14234, 8.52639 9.21276, 8.5138 9.28547 Z" stroke="none" fill="#000000" />
			<rect />
		</svg>
	</g>
	<g transform="matrix(1 0 -0 1 235.212 9)">
		<svg width="59.9889336" height="56.9999886">
			<defs />
			<path d="M 5.92867 7.93936 L 5.92867 3.15556, 7.53265 3.15556, 7.53265 20.0771, 5.92867 20.0771, 5.92867 16.569 C 5.81377 16.6206, 5.70355 16.6674, 5.60037 16.7108, 5.49719 16.7554, 5.40105 16.7953, 5.31077 16.8316, 4.13827 17.3581, 2.76058 17.9584, 1.17536 18.6326 L 0.576212 17.1318 C 1.64553 16.7073, 3.43008 15.9323, 5.92867 14.8055 L 5.92867 9.49644, 1.07921 9.49644, 1.07921 7.93936 Z M 18.0441 14.5241 C 18.0441 15.0506, 18.0054 15.8139, 17.928 16.8128 L 17.9093 17.2443 C 17.8706 17.8458, 17.7709 18.3078, 17.6091 18.6326, 17.4485 18.9585, 17.1976 19.1954, 16.8564 19.3454, 16.5152 19.4955, 16.0286 19.5964, 15.3966 19.6456, 15.1398 19.6714, 14.7412 19.6831, 14.1995 19.6831, 13.6719 19.6831, 13.272 19.6714, 13.0012 19.6456, 12.3704 19.5964, 11.8897 19.4932, 11.5614 19.3361, 11.2331 19.1801, 10.995 18.9233, 10.8473 18.5669, 10.6996 18.2116, 10.6245 17.7016, 10.6245 17.038 L 10.6245 3.15556, 12.2473 3.15556, 12.2473 9.3276 C 14.1022 8.24069, 15.6745 7.20889, 16.9619 6.2322 L 17.9093 7.62044 C 17.2656 8.07185, 16.3862 8.64169, 15.2723 9.32877, 14.1585 10.017, 13.1501 10.6232, 12.2473 11.1473 L 12.2473 16.8504 C 12.2473 17.3264, 12.3153 17.6524, 12.4501 17.8271, 12.5861 18.0029, 12.8535 18.1085, 13.2521 18.1448, 13.639 18.1706, 13.9298 18.1835, 14.1221 18.1823, 14.3027 18.1835, 14.5852 18.1706, 14.9722 18.1448, 15.4623 18.0956, 15.7964 17.9806, 15.977 17.7989, 16.1576 17.6183, 16.2607 17.2959, 16.2854 16.8316, 16.3112 16.4576, 16.3346 16.005, 16.3534 15.4727, 16.3733 14.9415, 16.3827 14.4936, 16.3827 14.1302 Z" stroke="none" fill="#000000" />
			<rect />
		</svg>
	</g>
	<g transform="matrix(1 0 -0 1 438.135 237.645)">
		<svg width="59.9889336" height="59.9571304">
			<defs />
			<path d="M 16.7884 12.7794 L 10.6632 12.7794, 10.6632 17.7321 C 10.6632 18.5833, 10.4838 19.1801, 10.1227 19.5237, 9.76158 19.8684, 9.16946 20.0396, 8.34402 20.0396, 7.64873 20.0396, 6.94054 20.002, 6.21828 19.927 L 5.94861 18.4637 C 6.67087 18.5646, 7.35912 18.6138, 8.01572 18.6138, 8.40265 18.6138, 8.67584 18.5294, 8.83647 18.3605, 8.99828 18.1929, 9.07801 17.8892, 9.07801 17.4507 L 9.07801 12.7794, 2.41235 12.7794, 2.41235 11.3537 C 3.1604 10.2797, 4.04212 8.82812, 5.05985 7.00136 L 1.05928 7.00136, 1.05928 5.55684, 5.83253 5.55684 C 6.40002 4.46993, 6.8315 3.57532, 7.12697 2.87416 L 8.63363 3.45572 C 8.38975 4.03259, 8.05442 4.73257, 7.6288 5.55684 L 17.581 5.55684, 17.581 7.00136, 6.85612 7.00136 C 5.8126 8.90316, 4.94964 10.3606, 4.26724 11.3724 L 9.07801 11.3724, 9.07801 7.93936, 10.6632 7.93936, 10.6632 11.3724, 16.7884 11.3724 Z M 6.3156 14.7868 C 5.71059 15.5888, 4.96605 16.4458, 4.08433 17.3581, 3.20261 18.2703, 2.36193 19.0582, 1.56228 19.7206 L 0.480067 18.4262 C 1.23985 17.84, 2.03949 17.1177, 2.87666 16.2606, 3.71382 15.4047, 4.43491 14.5687, 5.03992 13.755 Z M 13.2134 13.7925 C 13.8583 14.3318, 14.6826 15.0635, 15.6874 15.9886, 16.6922 16.9148, 17.5106 17.7016, 18.1414 18.3512 L 16.9431 19.5706 C 16.3252 18.8835, 15.5326 18.0709, 14.5665 17.1329, 13.6003 16.1949, 12.789 15.4504, 12.1312 14.8993 Z" stroke="none" fill="#000000" />
			<rect />
		</svg>
	</g>
	<g transform="matrix(1 0 -0 1 32.1825 237.645)">
		<svg width="57.0301361" height="54.0428391">
			<defs />
			<path d="M 17.8893 3.99976 L 17.8893 5.40676, 12.2086 5.40676, 12.2086 8.12696, 16.8271 8.12696, 16.8271 20.1146, 15.3579 20.1146, 15.3579 18.8202, 3.37849 18.8202, 3.37849 20.0958, 1.89058 20.0958, 1.89058 8.12696, 6.33436 8.12696, 6.33436 5.40676, 0.904512 5.40676, 0.904512 3.99976 Z M 7.82226 8.12696 L 10.682 8.12696, 10.682 5.40676, 7.82226 5.40676 Z M 3.37849 17.3944 L 15.3579 17.3944, 15.3579 14.7117, 13.1173 14.7117 C 12.2156 14.7129, 11.5848 14.5476, 11.2237 14.2158, 10.8626 13.8851, 10.682 13.293, 10.682 12.4418 L 10.682 9.53396, 7.82226 9.53396 C 7.82226 10.9738, 7.57838 12.1932, 7.08828 13.1933, 6.59934 14.1946, 5.76218 15.0693, 4.57678 15.8186 L 3.55202 14.768 C 4.28717 14.2943, 4.85466 13.803, 5.25331 13.2965, 5.65196 12.79, 5.92867 12.2401, 6.08344 11.6456, 6.23821 11.0523, 6.32263 10.3477, 6.33436 9.53396 L 3.37849 9.53396 Z M 15.3579 9.53396 L 12.2086 9.53396, 12.2086 11.9728 C 12.2086 12.5121, 12.3059 12.865, 12.4994 13.0339, 12.6928 13.2027, 13.0786 13.2871, 13.6578 13.286 L 15.3579 13.286 Z" stroke="none" fill="#000000" />
			<rect />
		</svg>
	</g>
	<g transform="matrix(1 0 -0 1 235.212 467.055)">
		<svg width="57.0301361" height="56.9999886">
			<defs />
			<path d="M 17.928 6.45732 L 10.1028 6.45732, 10.1028 8.18324, 16.711 8.18324, 16.711 17.7884 C 16.711 18.377, 16.65 18.8331, 16.5281 19.1578, 16.4061 19.4838, 16.1998 19.7148, 15.909 19.852, 15.6194 19.9903, 15.2102 20.0583, 14.6826 20.0583, 13.768 20.0583, 12.9824 20.0278, 12.3247 19.9645 L 12.0538 18.5575 C 12.8664 18.6455, 13.5558 18.6888, 14.1221 18.6888, 14.5735 18.6888, 14.8666 18.6044, 15.0015 18.4356, 15.1375 18.2667, 15.2043 17.9396, 15.2043 17.4507 L 15.2043 9.53396, 3.37849 9.53396, 3.37849 20.0396, 1.87065 20.0396, 1.87065 8.18324, 8.53749 8.18324, 8.53749 6.45732, 0.673529 6.45732, 0.673529 5.05032, 8.53749 5.05032, 8.53749 3.06176, 10.1028 3.06176, 10.1028 5.05032, 17.928 5.05032 Z M 14.373 16.3626 L 10.0254 16.3626, 10.0254 19.6456, 8.55625 19.6456, 8.55625 16.3626, 4.32469 16.3626, 4.32469 15.1807, 8.55625 15.1807, 8.55625 13.5111, 4.73038 13.5111, 4.73038 12.3292, 7.03082 12.3292 C 6.36133 11.4545, 5.90405 10.8988, 5.65783 10.6596 L 6.72128 9.87164 C 6.99213 10.1601, 7.31691 10.5294, 7.6968 10.9797, 8.07669 11.4299, 8.35106 11.7676, 8.51873 11.9915 L 8.05442 12.3292, 9.85186 12.3292 C 10.6245 11.4053, 11.2495 10.5798, 11.7255 9.85288 L 12.9238 10.547 C 12.5381 11.0981, 12.0808 11.6925, 11.552 12.3292 L 13.9474 12.3292, 13.9474 13.5111, 10.0254 13.5111, 10.0254 15.1807, 14.373 15.1807 Z" stroke="none" fill="#000000" />
			<rect />
		</svg>
	</g>
	<path d="M 0 249.282 L 0 -249.282" fill="none" stroke="#000000" stroke-opacity="0.498039186" stroke-width="1.60000014" stroke-linecap="round" stroke-linejoin="round" stroke-dasharray="5.608, 3.992" transform="matrix(0.833333 0 0 0.833333 244.618 249.424)" />
	<ellipse cx="1187.0966553688049" cy="452.32550668716431" rx="3.1500000953674316" ry="3.1500000953674316" stroke="none" fill="#E60000" transform="matrix(0.833333 0 0 0.833333 -707.86 -198.526)" />
	<path d="M 0 42.6073 L 0 -42.6073" fill="none" stroke="#E60000" stroke-width="1.60000014" stroke-linecap="round" stroke-linejoin="round" stroke-dasharray="5.608, 3.992" transform="matrix(0.833333 0 0 0.833333 281.388 213.918)" />
	<path d="M -88.1451 0 L 88.1453 0" fill="none" stroke="#E60000" stroke-width="1.60000014" stroke-linecap="round" stroke-linejoin="round" stroke-dasharray="5.608, 3.992" transform="matrix(0.833333 0 0 0.833333 207.933 178.412)" />
	<path d="M -66.0836 0 L 66.0836 0" fill="none" stroke="#000000" stroke-width="1.60000014" stroke-linecap="round" stroke-linejoin="round" marker-start="url(#CustomMarker-03)" marker-end="url(#CustomMarker-04)" transform="matrix(0.833333 0 -0 0.833333 189.549 385.437)" />
	<g transform="matrix(1 0 -0 1 161.28 393.179)">
		<svg width="173.966797" height="47.9999886">
			<defs />
			<path d="M 8.18364 12.7991 C 8.18364 13.386, 8.07311 13.9459, 7.85093 14.4784, 7.62931 15.0114, 7.30895 15.49, 6.88927 15.9141, 6.46399 16.3276, 5.98485 16.6435, 5.45184 16.8612, 4.91883 17.08, 4.35272 17.1888, 3.75463 17.1888, 3.23734 17.1888, 2.75483 17.0918, 2.30766 16.8971, 1.86106 16.703, 1.4728 16.437, 1.1429 16.0987, 0.812998 15.761, 0.55435 15.3688, 0.366395 14.9227, 0.17844 14.4772, 0.0841818 14.0026, 0.0841818 13.4993, 0.0841818 13.1526, 0.19976 12.8911, 0.430917 12.7144, 0.662073 12.5382, 0.901085 12.4496, 1.14739 12.449, 1.4066 12.4496, 1.6501 12.5365, 1.87789 12.7099, 2.10624 12.8838, 2.22014 13.147, 2.22014 13.4993, 2.22014 13.7153, 2.17245 13.8966, 2.07707 14.043, 1.98169 14.19, 1.86442 14.3033, 1.72528 14.3841, 1.5867 14.4649, 1.43129 14.5115, 1.25848 14.5227 L 1.14739 14.5227, 0.96224 14.5227 C 1.10419 15.026, 1.43409 15.4782, 1.95195 15.8788, 2.46981 16.2799, 3.0707 16.4802, 3.75463 16.4797, 4.11259 16.4802, 4.46101 16.3877, 4.79989 16.2019, 5.13877 16.0168, 5.41649 15.7711, 5.63194 15.4653, 5.88442 15.1006, 6.04656 14.6865, 6.11726 14.2225, 6.18795 13.7591, 6.2233 13.2844, 6.2233 12.7991, 6.2233 12.3088, 6.20815 11.838, 6.17729 11.3858, 6.14699 10.9342, 6.02019 10.5078, 5.79801 10.106, 5.63811 9.81316, 5.43332 9.56966, 5.18365 9.37497, 4.93398 9.18085, 4.65513 9.08322, 4.34655 9.08266, 3.7608 9.08322, 3.25248 9.2016, 2.82103 9.43781, 2.38958 9.67458, 2.04116 10.014, 1.77634 10.4561, 1.72079 10.5582, 1.63158 10.6093, 1.50815 10.6087 L 1.43409 10.6087 C 1.21864 10.6093, 1.11036 10.5106, 1.11036 10.3125 L 1.11036 4.01068 C 1.11036 3.85583, 1.20013 3.75708, 1.37855 3.71444, 1.4094 3.715, 1.43241 3.71837, 1.44812 3.72398, 1.46383 3.73015, 1.47729 3.73296, 1.48964 3.7324, 2.3834 4.13972, 3.30466 4.34339, 4.25398 4.34283, 5.21563 4.34339, 6.13745 4.13972, 7.01888 3.7324, 7.03122 3.73296, 7.04356 3.73015, 7.05591 3.72398, 7.06825 3.71837, 7.08677 3.715, 7.11145 3.71444, 7.31456 3.715, 7.4133 3.80758, 7.40713 3.99273, 7.40713 4.10101, 7.38862 4.17283, 7.35159 4.20817, 6.91396 4.80739, 6.35795 5.27587, 5.68299 5.61363, 5.00804 5.95195, 4.29157 6.12083, 3.53301 6.12027, 2.90463 6.12083, 2.36208 6.04901, 1.90538 5.90482 L 1.90538 9.33401 C 2.12139 9.10735, 2.4468 8.90536, 2.88106 8.72863, 3.31588 8.55246, 3.80457 8.46381, 4.34655 8.46325, 4.87675 8.46381, 5.37778 8.58388, 5.84907 8.82289, 6.32092 9.06246, 6.73554 9.37329, 7.09294 9.75593, 7.46268 10.1874, 7.73703 10.6648, 7.91545 11.1883, 8.09443 11.7123, 8.18364 12.2493, 8.18364 12.7991 Z" stroke="none" fill="#000000" />
			<path d="M 18.2967 10.519 C 18.2967 11.3813, 18.2367 12.2386, 18.1166 13.0914, 17.9965 13.9442, 17.6992 14.7449, 17.2245 15.4922, 16.8856 16.0376, 16.4323 16.4561, 15.8656 16.749, 15.2989 17.0424, 14.6823 17.1888, 14.0164 17.1888, 13.3756 17.1888, 12.7703 17.0424, 12.2002 16.749, 11.6302 16.4561, 11.1752 16.0376, 10.8363 15.4922, 10.3622 14.7449, 10.0648 13.9442, 9.94476 13.0914, 9.82469 12.2386, 9.7641 11.3813, 9.7641 10.519, 9.7641 9.64596, 9.82469 8.77352, 9.94476 7.90275, 10.0648 7.03199, 10.3622 6.21677, 10.8363 5.45597, 11.1752 4.90613, 11.6285 4.47804, 12.1952 4.17283, 12.7624 3.86761, 13.3695 3.715, 14.0164 3.71444, 14.6762 3.715, 15.2905 3.86761, 15.8606 4.17283, 16.4306 4.47804, 16.8856 4.90613, 17.2245 5.45597, 17.6992 6.21677, 17.9965 7.03199, 18.1166 7.90275, 18.2367 8.77352, 18.2967 9.64596, 18.2967 10.519 Z M 16.466 10.2048 C 16.466 9.82831, 16.4631 9.43052, 16.457 9.0114, 16.4514 8.59285, 16.4357 8.18272, 16.411 7.78156, 16.3863 7.38097, 16.342 7.00225, 16.2769 6.64598, 16.2124 6.29027, 16.1338 5.98617, 16.0412 5.73426, 15.8561 5.32805, 15.5851 4.99422, 15.2277 4.73389, 14.8703 4.47355, 14.4663 4.34339, 14.0164 4.34283, 13.5787 4.34339, 13.1832 4.47524, 12.8286 4.73837, 12.4746 5.00207, 12.2047 5.33366, 12.0196 5.73426, 11.9275 5.98617, 11.849 6.29027, 11.7839 6.64598, 11.7194 7.00225, 11.6745 7.38097, 11.6498 7.78156, 11.6251 8.18272, 11.61 8.59285, 11.6038 9.0114, 11.5976 9.43052, 11.5943 9.82831, 11.5943 10.2048, 11.5943 10.6245, 11.5976 11.066, 11.6038 11.5294, 11.61 11.9934, 11.6251 12.4423, 11.6498 12.876, 11.6745 13.3102, 11.7194 13.7215, 11.7839 14.1103, 11.849 14.4997, 11.9275 14.8257, 12.0196 15.0882, 12.1924 15.5259, 12.4594 15.8849, 12.8196 16.166, 13.1798 16.4477, 13.5787 16.588, 14.0164 16.5874, 14.4725 16.588, 14.881 16.4477, 15.2412 16.166, 15.6019 15.8849, 15.8684 15.5259, 16.0412 15.0882, 16.1338 14.8257, 16.2124 14.4997, 16.2769 14.1103, 16.342 13.7215, 16.3863 13.3102, 16.411 12.876, 16.4357 12.4423, 16.4514 11.9934, 16.457 11.5294, 16.4631 11.066, 16.466 10.6245, 16.466 10.2048 Z" stroke="none" fill="#000000" />
			<path d="M 28.1915 10.519 C 28.1915 11.3813, 28.1315 12.2386, 28.0114 13.0914, 27.8913 13.9442, 27.594 14.7449, 27.1193 15.4922, 26.7804 16.0376, 26.3271 16.4561, 25.7604 16.749, 25.1937 17.0424, 24.5771 17.1888, 23.9112 17.1888, 23.2704 17.1888, 22.6651 17.0424, 22.095 16.749, 21.525 16.4561, 21.07 16.0376, 20.7311 15.4922, 20.257 14.7449, 19.9596 13.9442, 19.8396 13.0914, 19.7195 12.2386, 19.6589 11.3813, 19.6589 10.519, 19.6589 9.64596, 19.7195 8.77352, 19.8396 7.90275, 19.9596 7.03199, 20.257 6.21677, 20.7311 5.45597, 21.07 4.90613, 21.5233 4.47804, 22.09 4.17283, 22.6572 3.86761, 23.2643 3.715, 23.9112 3.71444, 24.571 3.715, 25.1853 3.86761, 25.7554 4.17283, 26.3254 4.47804, 26.7804 4.90613, 27.1193 5.45597, 27.594 6.21677, 27.8913 7.03199, 28.0114 7.90275, 28.1315 8.77352, 28.1915 9.64596, 28.1915 10.519 Z M 26.3608 10.2048 C 26.3608 9.82831, 26.3579 9.43052, 26.3518 9.0114, 26.3462 8.59285, 26.3305 8.18272, 26.3058 7.78156, 26.2811 7.38097, 26.2368 7.00225, 26.1717 6.64598, 26.1072 6.29027, 26.0286 5.98617, 25.936 5.73426, 25.7509 5.32805, 25.4799 4.99422, 25.1225 4.73389, 24.7651 4.47355, 24.3611 4.34339, 23.9112 4.34283, 23.4735 4.34339, 23.078 4.47524, 22.7234 4.73837, 22.3694 5.00207, 22.0995 5.33366, 21.9144 5.73426, 21.8223 5.98617, 21.7438 6.29027, 21.6787 6.64598, 21.6142 7.00225, 21.5693 7.38097, 21.5446 7.78156, 21.5199 8.18272, 21.5048 8.59285, 21.4986 9.0114, 21.4924 9.43052, 21.4891 9.82831, 21.4891 10.2048, 21.4891 10.6245, 21.4924 11.066, 21.4986 11.5294, 21.5048 11.9934, 21.5199 12.4423, 21.5446 12.876, 21.5693 13.3102, 21.6142 13.7215, 21.6787 14.1103, 21.7438 14.4997, 21.8223 14.8257, 21.9144 15.0882, 22.0872 15.5259, 22.3542 15.8849, 22.7144 16.166, 23.0746 16.4477, 23.4735 16.588, 23.9112 16.5874, 24.3673 16.588, 24.7758 16.4477, 25.136 16.166, 25.4967 15.8849, 25.7632 15.5259, 25.936 15.0882, 26.0286 14.8257, 26.1072 14.4997, 26.1717 14.1103, 26.2368 13.7215, 26.2811 13.3102, 26.3058 12.876, 26.3305 12.4423, 26.3462 11.9934, 26.3518 11.5294, 26.3579 11.066, 26.3608 10.6245, 26.3608 10.2048 Z" stroke="none" fill="#000000" />
			<path d="M 40.5967 16.8334 C 40.0059 16.7911, 39.4397 16.7693, 38.8987 16.7693 L 38.6536 16.7693 C 38.025 16.7819, 37.3615 16.8002, 36.663 16.8243 L 36.663 16.064 C 36.8645 16.0646, 37.0214 16.0508, 37.1348 16.0233, 37.2481 15.9959, 37.3174 15.93, 37.3426 15.8258, 37.3552 15.796, 37.3615 15.7594, 37.3615 15.7159, 37.3615 15.6369, 37.3334 15.5487, 37.2762 15.4502, 37.1949 15.298, 37.1004 15.1548, 36.9934 15.0197 L 35.1539 12.4824, 34.0312 13.4167, 34.0312 15.4777 C 34.0312 15.5819, 34.0438 15.6787, 34.069 15.7668, 34.0942 15.8556, 34.148 15.918, 34.2293 15.9541, 34.3489 16.0096, 34.5264 16.0417, 34.7623 16.0508, 34.9982 16.06, 35.2581 16.0646, 35.5409 16.064 L 35.5409 16.8334 C 34.7674 16.7911, 34.0283 16.7693, 33.3241 16.7693, 32.6263 16.7693, 31.8906 16.7911, 31.1165 16.8334 L 31.1165 16.064 C 31.3994 16.0646, 31.6587 16.06, 31.8946 16.0508, 32.1305 16.0417, 32.3085 16.0096, 32.4276 15.9541, 32.5032 15.918, 32.5553 15.8539, 32.5833 15.7623, 32.6119 15.6707, 32.6257 15.5762, 32.6257 15.4777 L 32.6257 5.5298 C 32.6257 5.37179, 32.6182 5.21778, 32.6022 5.06778, 32.5867 4.91836, 32.5221 4.80386, 32.4087 4.72371, 32.3022 4.651, 32.1305 4.60863, 31.8946 4.59604, 31.6587 4.58401, 31.3994 4.57772, 31.1165 4.57714 L 31.1165 3.83517, 34.0879 3.61533, 34.0879 12.5007, 36.6441 10.3572 C 36.7638 10.2662, 36.8645 10.1563, 36.9464 10.0274, 37.0031 9.93011, 37.0311 9.83278, 37.0311 9.73431 L 37.0311 9.62439 C 37.0248 9.53966, 36.9762 9.46809, 36.8852 9.4097, 36.7941 9.35188, 36.6573 9.32268, 36.4747 9.3221 L 36.4747 8.54349 C 37.2733 8.587, 38.0313 8.60818, 38.7481 8.60761, 38.9679 8.60818, 39.1895 8.60532, 39.4128 8.59902, 39.6361 8.5933, 39.8897 8.57441, 40.1725 8.54349 L 40.1725 9.3221 C 39.7071 9.32268, 39.2634 9.42058, 38.842 9.61523, 38.5907 9.72572, 38.3582 9.8574, 38.1441 10.0097, 37.9306 10.1625, 37.7136 10.3274, 37.4932 10.5038 L 36.1821 11.6121, 38.5872 14.9098 C 38.7321 15.0873, 38.8769 15.2711, 39.0212 15.46, 39.166 15.6495, 39.3155 15.7897, 39.4695 15.8813, 39.624 15.973, 39.7906 16.0268, 39.9698 16.0417, 40.149 16.0571, 40.358 16.0646, 40.5967 16.064 L 40.5967 16.8334 Z" stroke="none" fill="#000000" />
			<path d="M 56.4667 16.8334 C 55.6869 16.7911, 54.9358 16.7693, 54.2121 16.7693, 53.489 16.7693, 52.7282 16.7911, 51.9295 16.8334 L 51.9295 16.064 C 52.2123 16.0646, 52.4717 16.06, 52.7076 16.0508, 52.9434 16.0417, 53.1215 16.0096, 53.2406 15.9541, 53.3161 15.918, 53.3682 15.8539, 53.3963 15.7623, 53.4249 15.6707, 53.4387 15.5762, 53.4387 15.4777 L 53.4387 11.0076 C 53.4387 10.703, 53.4198 10.4145, 53.382 10.1425, 53.3442 9.87114, 53.2503 9.61866, 53.0992 9.38623, 53.011 9.24024, 52.8839 9.13375, 52.7173 9.06619, 52.5507 8.99921, 52.3635 8.96543, 52.1557 8.96486, 51.7973 8.96543, 51.4641 9.04043, 51.1561 9.18985, 50.848 9.33985, 50.5824 9.54138, 50.3591 9.79443, 50.1358 10.048, 49.9584 10.3458, 49.8261 10.6875, 49.6944 11.0299, 49.628 11.3866, 49.628 11.7587 L 49.628 15.4777 C 49.628 15.5819, 49.6406 15.6787, 49.6658 15.7668, 49.691 15.8556, 49.7442 15.918, 49.8261 15.9541, 49.9458 16.0096, 50.1232 16.0417, 50.3591 16.0508, 50.595 16.06, 50.8543 16.0646, 51.1372 16.064 L 51.1372 16.8334 C 50.3385 16.7911, 49.5776 16.7693, 48.854 16.7693, 48.1189 16.7693, 47.3672 16.7911, 46.6 16.8334 L 46.6 16.064 C 46.8828 16.0646, 47.1422 16.06, 47.3781 16.0508, 47.6139 16.0417, 47.792 16.0096, 47.9111 15.9541, 47.9803 15.918, 48.0273 15.8556, 48.0525 15.7668, 48.0777 15.6787, 48.0903 15.5819, 48.0903 15.4777 L 48.0903 11.0076 C 48.0903 10.703, 48.0731 10.4145, 48.0387 10.1425, 48.0044 9.87114, 47.9111 9.61866, 47.7599 9.38623, 47.666 9.24024, 47.5355 9.13375, 47.3689 9.06619, 47.2023 8.99921, 47.0151 8.96543, 46.8073 8.96486, 46.4489 8.96543, 46.1145 9.04043, 45.8031 9.18985, 45.4916 9.33985, 45.226 9.54138, 45.0056 9.79443, 44.7857 10.048, 44.6094 10.3458, 44.4772 10.6875, 44.3455 11.0299, 44.2791 11.3866, 44.2791 11.7587 L 44.2791 15.4777 C 44.2791 15.5819, 44.2917 15.6787, 44.3169 15.7668, 44.342 15.8556, 44.3924 15.918, 44.468 15.9541, 44.5877 16.0096, 44.7668 16.0417, 45.0056 16.0508, 45.2449 16.06, 45.5025 16.0646, 45.779 16.064 L 45.779 16.8243 C 45.4584 16.8123, 45.163 16.8031, 44.8928 16.7968, 44.6226 16.7911, 44.3581 16.7819, 44.0999 16.7693 L 43.5056 16.7693 C 42.7699 16.7693, 42.0182 16.7911, 41.2511 16.8334 L 41.2511 16.064 C 41.5345 16.0646, 41.7938 16.06, 42.0297 16.0508, 42.2656 16.0417, 42.4436 16.0096, 42.5627 15.9541, 42.6383 15.918, 42.6881 15.8556, 42.7133 15.7668, 42.7384 15.6787, 42.751 15.5819, 42.751 15.4777 L 42.751 10.2748 C 42.751 10.1042, 42.7436 9.949, 42.7276 9.80817, 42.7121 9.6679, 42.6509 9.55454, 42.5438 9.46867, 42.4373 9.39596, 42.2644 9.35359, 42.0251 9.341, 41.7858 9.32897, 41.5282 9.32268, 41.2511 9.3221 L 41.2511 8.56181, 42.8736 8.44273, 44.1754 8.34197, 44.1754 9.91751 C 44.2951 9.63698, 44.6048 9.30607, 45.1046 8.92421, 45.605 8.54292, 46.1913 8.3517, 46.864 8.35113, 47.2166 8.3517, 47.5796 8.39292, 47.9534 8.47536, 48.3279 8.5578, 48.6565 8.73643, 48.9393 9.01066, 49.1282 9.19444, 49.2714 9.39481, 49.3687 9.61122, 49.466 9.8282, 49.5147 9.94557, 49.5147 9.96332, 49.6847 9.59748, 50.015 9.23737, 50.5051 8.88299, 50.9958 8.52918, 51.562 8.3517, 52.2032 8.35113, 52.5553 8.3517, 52.9217 8.39292, 53.3018 8.47536, 53.6825 8.5578, 54.0146 8.73643, 54.2974 9.01123, 54.5802 9.28604, 54.7646 9.60206, 54.8493 9.95931, 54.934 10.3166, 54.9764 10.6664, 54.9764 11.0076 L 54.9764 15.4777 C 54.9764 15.5819, 54.989 15.6787, 55.0142 15.7668, 55.0394 15.8556, 55.0932 15.918, 55.1745 15.9541, 55.2942 16.0096, 55.4716 16.0417, 55.7075 16.0508, 55.9434 16.06, 56.1964 16.0646, 56.4667 16.064 L 56.4667 16.8334 Z" stroke="none" fill="#000000" />
			<rect />
		</svg>
	</g>
	<g transform="matrix(1 0 -0 1 103.161 167.147)">
		<svg width="57.0301361" height="38.9999924">
			<defs />
			<path d="M 9.12638 9.8992 C 9.05768 10.1746, 8.91741 10.3807, 8.70673 10.5181, 8.49605 10.6555, 8.28422 10.7242, 8.0701 10.7236, 7.85026 10.7242, 7.66762 10.6538, 7.52278 10.5129, 7.41629 10.4099, 7.35961 10.2753, 7.35274 10.1099, 7.35274 10.0435, 7.36534 9.95759, 7.39053 9.8534, 7.4598 9.6221, 7.56686 9.44634, 7.71114 9.32726, 7.85598 9.20818, 7.95674 9.13948, 8.01342 9.12058, 7.89434 9.02955, 7.64873 8.98375, 7.27717 8.98318, 6.95027 8.98375, 6.65772 9.15322, 6.40009 9.49214, 6.14246 9.83107, 5.9501 10.2387, 5.82414 10.7144 L 4.95622 14.0671 C 4.86805 14.4037, 4.80221 14.7243, 4.75813 15.0289, 4.73294 15.1331, 4.72034 15.2247, 4.72034 15.3037, 4.72034 15.4938, 4.75183 15.6735, 4.81481 15.8441, 4.87778 16.0279, 4.97225 16.1745, 5.0982 16.2844, 5.22415 16.3943, 5.38446 16.4493, 5.57911 16.4487, 5.83101 16.4493, 6.07318 16.384, 6.30562 16.2523, 6.53864 16.1212, 6.75275 15.9443, 6.94741 15.721, 7.14206 15.4983, 7.31496 15.239, 7.4661 14.9424, 7.61724 14.6464, 7.73633 14.3424, 7.82449 14.0304, 7.86228 13.8724, 7.96934 13.7928, 8.1451 13.7923 L 8.36208 13.7923 C 8.52582 13.7928, 8.60769 13.8541, 8.60769 13.9755, 8.60769 14.0127, 8.59853 14.0465, 8.57963 14.0762, 8.49147 14.4432, 8.34834 14.805, 8.15025 15.1623, 7.95216 15.5195, 7.72144 15.8356, 7.45694 16.1104, 7.19244 16.3852, 6.89245 16.6113, 6.55581 16.7876, 6.21917 16.9651, 5.85907 17.0533, 5.47548 17.0533, 5.08561 17.0533, 4.74897 16.9697, 4.46615 16.8014, 4.18333 16.6342, 3.95318 16.4155, 3.77685 16.1464, 3.72074 16.08, 3.67666 16.0113, 3.64517 15.9409, 3.61368 15.871, 3.60395 15.8602, 3.61655 15.9083, 3.46598 16.159, 3.22724 16.4126, 2.89976 16.6691, 2.57286 16.9256, 2.19558 17.0533, 1.76734 17.0533, 1.5286 17.0533, 1.29273 17.0229, 1.05972 16.9617, 0.827278 16.901, 0.624037 16.8065, 0.451139 16.6783, 0.278241 16.55, 0.147709 16.3943, 0.0595425 16.2105, 0.0160317 16.1012, -0.00572362 15.9821, -0.00629613 15.8533, -0.00572362 15.7623, 0.00687159 15.6552, 0.0314895 15.5327, 0.100763 15.2585, 0.242173 15.0524, 0.456292 14.915, 0.67041 14.7776, 0.883956 14.7089, 1.0975 14.7083, 1.31792 14.7089, 1.50685 14.7793, 1.66371 14.919, 1.77077 15.0232, 1.82402 15.1577, 1.82402 15.322, 1.82402 15.4079, 1.81142 15.4938, 1.78623 15.5785, 1.73013 15.7926, 1.62765 15.9655, 1.47994 16.0966, 1.33223 16.2283, 1.22632 16.2999, 1.16334 16.3113, 1.283 16.4098, 1.52517 16.4556, 1.88986 16.4487, 2.21733 16.4493, 2.51275 16.2787, 2.77667 15.9363, 3.04117 15.5945, 3.23296 15.1852, 3.35262 14.7083 L 4.2297 11.3373 C 4.31787 11.0202, 4.38714 10.7087, 4.43752 10.403, 4.45012 10.3057, 4.45642 10.2141, 4.45642 10.1282, 4.45642 9.93927, 4.42836 9.76237, 4.37111 9.59691, 4.30871 9.41428, 4.21138 9.26657, 4.07913 9.15322, 3.94688 9.04043, 3.78315 8.98375, 3.58849 8.98318, 3.33659 8.98375, 3.0927 9.04959, 2.85682 9.1807, 2.62095 9.31237, 2.40569 9.48756, 2.21103 9.70741, 2.01638 9.92725, 1.84348 10.1826, 1.69234 10.4723, 1.5412 10.7625, 1.43128 11.0694, 1.36143 11.3923, 1.29273 11.5578, 1.17651 11.6431, 1.01277 11.6488 L 0.80495 11.6488 C 0.65438 11.6494, 0.578809 11.5732, 0.578809 11.4198 L 0.578809 11.3557 C 0.673273 10.9778, 0.818118 10.6097, 1.01277 10.2524, 1.20742 9.89519, 1.44044 9.57916, 1.71066 9.30436, 1.98146 9.02955, 2.28374 8.80513, 2.61694 8.63109, 2.95014 8.45704, 3.31197 8.37002, 3.70128 8.36945, 4.07913 8.37002, 4.41233 8.45246, 4.70145 8.61735, 4.99114 8.78223, 5.22702 9.00207, 5.40907 9.27631, 5.44686 9.34386, 5.48178 9.416, 5.51327 9.49214, 5.54476 9.56886, 5.55392 9.58832, 5.54132 9.55111, 5.69876 9.28318, 5.94094 9.01925, 6.26784 8.75933, 6.59531 8.49998, 6.96916 8.37002, 7.39053 8.36945, 7.62984 8.37002, 7.86686 8.39922, 8.10273 8.45704, 8.3386 8.51544, 8.54356 8.60819, 8.71646 8.73643, 8.88936 8.86467, 9.01703 9.02326, 9.09833 9.21218, 9.14241 9.32268, 9.16416 9.44806, 9.16416 9.58775, 9.16416 9.67992, 9.15157 9.78355, 9.12638 9.8992 Z" stroke="none" fill="#E60000" />
			<path d="M 3.70677 3.0535 C 3.6683 3.15609, 3.60129 3.20739, 3.50607 3.20739, 3.15405 3.18687, 2.80331 3.17661, 2.45449 3.17661 L 2.28008 3.17661 C 1.8681 3.18366, 1.4542 3.19392, 1.0387 3.20739, 0.943796 3.20739, 0.892499 3.16314, 0.885446 3.07402 L 0.885446 3.03298, 0.906606 2.94577 C 0.934819 2.83324, 1.00343 2.77842, 1.11243 2.78162, 1.24292 2.78194, 1.3593 2.77778, 1.46125 2.76912, 1.56353 2.76078, 1.66227 2.73065, 1.75717 2.67903, 1.79244 2.66236, 1.82258 2.63831, 1.84694 2.60721, 1.86105 2.58028, 1.87003 2.55271, 1.87323 2.52514 L 1.87323 2.49436, 1.74659 0.791305, -0.641598 0.791305, -1.48158 2.22762 C -1.52743 2.31001, -1.55051 2.38536, -1.55051 2.45332, -1.55051 2.51167, -1.53288 2.56489, -1.49761 2.61234, -1.42003 2.72552, -1.27543 2.78194, -1.06448 2.78162, -0.969256 2.78194, -0.91828 2.82298, -0.911227 2.90474, -0.911227 2.92558, -0.914753 2.9477, -0.921807 2.97142 L -0.942646 3.0535 C -0.98144 3.15609, -1.05005 3.20739, -1.1488 3.20739, -1.47261 3.19392, -1.79321 3.18366, -2.11061 3.17661 L -2.25296 3.17661 C -2.52772 3.17661, -2.80601 3.18687, -3.08782 3.20739, -3.14072 3.20739, -3.17951 3.1904, -3.2042 3.15609, -3.22536 3.13589, -3.23594 3.11185, -3.23594 3.08428, -3.23594 3.06408, -3.23241 3.04356, -3.22536 3.02272 L -3.2042 2.94577 C -3.17598 2.83324, -3.10705 2.77842, -2.99805 2.78162, -2.88519 2.78194, -2.77427 2.77008, -2.66526 2.74604, -2.55593 2.72231, -2.45366 2.67935, -2.35876 2.61779, -2.26354 2.55624, -2.17537 2.48186, -2.09458 2.39465, -2.01347 2.30745, -1.94133 2.20902, -1.87785 2.09938 L 1.85207 -4.28709 C 1.91555 -4.38263, 1.99666 -4.42879, 2.09541 -4.42559 L 2.19576 -4.42559 C 2.30861 -4.42527, 2.37177 -4.37237, 2.38588 -4.26657 L 2.85076 2.41742 C 2.85781 2.50654, 2.86839 2.57419, 2.8825 2.62036, 2.8966 2.66653, 2.92129 2.69987, 2.95656 2.72007, 3.00593 2.75117, 3.08769 2.76912, 3.20214 2.77425, 3.31692 2.77938, 3.44612 2.78194, 3.59039 2.78162, 3.68914 2.78194, 3.73851 2.82298, 3.73851 2.90474, 3.73851 2.92558, 3.73499 2.9477, 3.72793 2.97142 Z M 1.49299 -2.84564 L -0.387999 0.375801, 1.71485 0.375801 Z" stroke="none" fill="#E60000" transform="matrix(1.12 0 0 1 13.3767 16.3063)" />
			<rect />
		</svg>
	</g>
	<g transform="matrix(1 0 -0 1 272.932 254.515)">
		<svg width="53.9427032" height="41.9571342">
			<defs />
			<path d="M 6.57986 16.7693 C 6.44818 17.2823, 6.24036 17.7724, 5.95754 18.2395, 5.67472 18.7067, 5.34095 19.1223, 4.95737 19.4853, 4.57378 19.8488, 4.14326 20.1437, 3.66521 20.3693, 3.18717 20.5954, 2.69023 20.7082, 2.1744 20.7082, 1.86639 20.7082, 1.58357 20.6521, 1.32594 20.5387, 1.06831 20.4259, 0.857624 20.2731, 0.693887 20.0807, 0.530149 19.8883, 0.420227 19.6611, 0.363548 19.3983, 0.338358 19.2826, 0.325763 19.1635, 0.325763 19.041, 0.325763 18.8824, 0.344656 18.7204, 0.382441 18.5555, 0.451715 18.2807, 0.593125 18.0746, 0.806671 17.9372, 1.02079 17.7998, 1.23147 17.7311, 1.43872 17.7311, 1.65914 17.7311, 1.84463 17.8015, 1.9952 17.9418, 2.10226 18.046, 2.1555 18.18, 2.1555 18.3449, 2.1555 18.4124, 2.14291 18.4949, 2.11772 18.5922, 2.04902 18.867, 1.90761 19.0731, 1.69349 19.2105, 1.47994 19.3479, 1.30991 19.4166, 1.18395 19.4166, 1.22174 19.5815, 1.33968 19.7361, 1.53777 19.8792, 1.73585 20.0229, 1.98948 20.0944, 2.29749 20.0944, 2.63698 20.0944, 2.95473 20.0028, 3.25014 19.8196, 3.54556 19.6364, 3.81635 19.3908, 4.06139 19.0823, 4.30642 18.7742, 4.52169 18.417, 4.70718 18.0105, 4.89267 17.6046, 5.0421 17.1787, 5.15546 16.7327 L 5.21213 16.5128 C 5.11824 16.5987, 4.92015 16.7103, 4.61787 16.8472, 4.31616 16.9846, 3.98582 17.0533, 3.62743 17.0533, 3.19976 17.0533, 2.8179 16.9743, 2.48126 16.8151, 2.14463 16.6571, 1.87898 16.4126, 1.68433 16.0823, 1.4954 15.7285, 1.40437 15.338, 1.41067 14.9098 L 1.41067 14.8365 C 1.42326 14.3911, 1.47994 13.9486, 1.58013 13.5083, 1.68089 13.0875, 1.82746 12.6238, 2.01925 12.1165, 2.21104 11.6099, 2.39481 11.1181, 2.57057 10.6412, 2.7595 10.1351, 2.85397 9.71943, 2.85397 9.39539, 2.85397 9.12116, 2.73775 8.98375, 2.50473 8.98318, 2.29119 8.98375, 2.09768 9.04501, 1.92478 9.16696, 1.75188 9.28947, 1.59502 9.45894, 1.45303 9.67535, 1.31162 9.89233, 1.18453 10.1488, 1.07117 10.4448, 0.957814 10.7414, 0.863349 11.0568, 0.787778 11.3923, 0.719077 11.5578, 0.602858 11.6431, 0.43912 11.6488 L 0.222139 11.6488 C 0.070996 11.6494, -0.00457531 11.5732, -0.00457531 11.4198 L -0.00457531 11.3557 C 0.0835912 11.0202, 0.200383 10.6772, 0.344656 10.3257, 0.489501 9.97477, 0.672131 9.65588, 0.891975 9.36848, 1.11182 9.08165, 1.36372 8.84349, 1.64654 8.65399, 1.92936 8.46506, 2.2534 8.37002, 2.61809 8.36945, 2.93297 8.37002, 3.20148 8.43758, 3.42476 8.57155, 3.64804 8.70609, 3.8175 8.88471, 3.93372 9.10742, 4.05051 9.33069, 4.11463 9.58203, 4.12723 9.86256 L 4.12723 9.92668 C 4.12723 10.19, 4.07398 10.4614, 3.96692 10.7419, 3.78487 11.2188, 3.60395 11.706, 3.42476 12.2035, 3.24556 12.7016, 3.10587 13.1488, 3.00511 13.5455, 2.90435 13.9428, 2.83507 14.3361, 2.79729 14.7266, 2.7721 14.8308, 2.75664 14.9442, 2.74977 15.0655, 2.74977 15.3043, 2.79099 15.5396, 2.87286 15.7709, 2.92954 15.9792, 3.03316 16.1441, 3.1843 16.2661, 3.33545 16.3886, 3.51464 16.4493, 3.72189 16.4487, 4.12436 16.4493, 4.47646 16.3302, 4.77817 16.092, 5.08046 15.8539, 5.34438 15.5424, 5.57052 15.1571 L 7.08939 9.24883 C 7.14607 9.02326, 7.26057 8.85723, 7.43347 8.75017, 7.60637 8.64368, 7.78098 8.58987, 7.95674 8.58929, 8.13937 8.58987, 8.29052 8.64483, 8.4096 8.75418, 8.49204 8.83433, 8.53269 8.94081, 8.53269 9.07478, 8.53269 9.14234, 8.52639 9.21276, 8.5138 9.28547 Z" stroke="none" fill="#E60000" />
			<path d="M 3.70677 3.0535 C 3.6683 3.15609, 3.60129 3.20739, 3.50607 3.20739, 3.15405 3.18687, 2.80331 3.17661, 2.45449 3.17661 L 2.28008 3.17661 C 1.8681 3.18366, 1.4542 3.19392, 1.0387 3.20739, 0.943796 3.20739, 0.892499 3.16314, 0.885446 3.07402 L 0.885446 3.03298, 0.906606 2.94577 C 0.934819 2.83324, 1.00343 2.77842, 1.11243 2.78162, 1.24292 2.78194, 1.3593 2.77778, 1.46125 2.76912, 1.56353 2.76078, 1.66227 2.73065, 1.75717 2.67903, 1.79244 2.66236, 1.82258 2.63831, 1.84694 2.60721, 1.86105 2.58028, 1.87003 2.55271, 1.87323 2.52514 L 1.87323 2.49436, 1.74659 0.791305, -0.641598 0.791305, -1.48158 2.22762 C -1.52743 2.31001, -1.55051 2.38536, -1.55051 2.45332, -1.55051 2.51167, -1.53288 2.56489, -1.49761 2.61234, -1.42003 2.72552, -1.27543 2.78194, -1.06448 2.78162, -0.969256 2.78194, -0.91828 2.82298, -0.911227 2.90474, -0.911227 2.92558, -0.914753 2.9477, -0.921807 2.97142 L -0.942646 3.0535 C -0.98144 3.15609, -1.05005 3.20739, -1.1488 3.20739, -1.47261 3.19392, -1.79321 3.18366, -2.11061 3.17661 L -2.25296 3.17661 C -2.52772 3.17661, -2.80601 3.18687, -3.08782 3.20739, -3.14072 3.20739, -3.17951 3.1904, -3.2042 3.15609, -3.22536 3.13589, -3.23594 3.11185, -3.23594 3.08428, -3.23594 3.06408, -3.23241 3.04356, -3.22536 3.02272 L -3.2042 2.94577 C -3.17598 2.83324, -3.10705 2.77842, -2.99805 2.78162, -2.88519 2.78194, -2.77427 2.77008, -2.66526 2.74604, -2.55593 2.72231, -2.45366 2.67935, -2.35876 2.61779, -2.26354 2.55624, -2.17537 2.48186, -2.09458 2.39465, -2.01347 2.30745, -1.94133 2.20902, -1.87785 2.09938 L 1.85207 -4.28709 C 1.91555 -4.38263, 1.99666 -4.42879, 2.09541 -4.42559 L 2.19576 -4.42559 C 2.30861 -4.42527, 2.37177 -4.37237, 2.38588 -4.26657 L 2.85076 2.41742 C 2.85781 2.50654, 2.86839 2.57419, 2.8825 2.62036, 2.8966 2.66653, 2.92129 2.69987, 2.95656 2.72007, 3.00593 2.75117, 3.08769 2.76912, 3.20214 2.77425, 3.31692 2.77938, 3.44612 2.78194, 3.59039 2.78162, 3.68914 2.78194, 3.73851 2.82298, 3.73851 2.90474, 3.73851 2.92558, 3.73499 2.9477, 3.72793 2.97142 Z M 1.49299 -2.84564 L -0.387999 0.375801, 1.71485 0.375801 Z" stroke="none" fill="#E60000" transform="matrix(1.12 0 0 1 12.7435 16.3063)" />
			<rect />
		</svg>
	</g>
	<g transform="matrix(1 0 -0 1 275.16 152.026)">
		<svg width="41.9788857" height="45.0428467">
			<defs />
			<path d="M 12.3983 16.5678 C 12.3296 16.751, 12.2099 16.8426, 12.0399 16.8426, 11.4113 16.806, 10.7849 16.7876, 10.1621 16.7876 L 9.85061 16.7876 C 9.11493 16.8002, 8.37582 16.8185, 7.63385 16.8426, 7.46439 16.8426, 7.37279 16.7636, 7.36019 16.6044 L 7.36019 16.5311, 7.39798 16.3754 C 7.44836 16.1745, 7.57088 16.0766, 7.76553 16.0823, 7.99854 16.0829, 8.20636 16.0754, 8.38842 16.06, 8.57105 16.0451, 8.74738 15.9913, 8.91685 15.8991, 8.97982 15.8693, 9.03364 15.8264, 9.07715 15.7709, 9.10234 15.7228, 9.11837 15.6735, 9.12409 15.6243 L 9.12409 15.5693, 8.89795 12.5282, 4.63333 12.5282, 3.13335 15.093 C 3.05148 15.2401, 3.01026 15.3747, 3.01026 15.4961, 3.01026 15.6002, 3.04175 15.6953, 3.10473 15.78, 3.24327 15.9821, 3.50148 16.0829, 3.87819 16.0823, 4.04822 16.0829, 4.13925 16.1562, 4.15185 16.3021, 4.15185 16.3394, 4.14555 16.3789, 4.13295 16.4212 L 4.09574 16.5678 C 4.02647 16.751, 3.90395 16.8426, 3.72762 16.8426, 3.14938 16.8185, 2.57687 16.8002, 2.01009 16.7876 L 1.75589 16.7876 C 1.26525 16.7876, 0.768314 16.806, 0.265078 16.8426, 0.170614 16.8426, 0.101341 16.8123, 0.0572573 16.751, 0.0194716 16.7149, 0.000578821 16.672, 0.000578821 16.6228, 0.000578821 16.5867, 0.00687641 16.55, 0.0194716 16.5128 L 0.0572573 16.3754 C 0.107638 16.1745, 0.230728 16.0766, 0.425381 16.0823, 0.626904 16.0829, 0.824993 16.0617, 1.01965 16.0188, 1.21487 15.9764, 1.3975 15.8997, 1.56697 15.7897, 1.737 15.6798, 1.89444 15.547, 2.03871 15.3913, 2.18356 15.2356, 2.31237 15.0598, 2.42573 14.864 L 9.08631 3.45961 C 9.19967 3.289, 9.34451 3.20656, 9.52084 3.21228 L 9.70004 3.21228 C 9.90156 3.21285, 10.0143 3.30732, 10.0395 3.49625 L 10.8697 15.4319 C 10.8823 15.5911, 10.9012 15.7119, 10.9264 15.7943, 10.9515 15.8768, 10.9956 15.9363, 11.0586 15.9724, 11.1468 16.0279, 11.2928 16.06, 11.4971 16.0691, 11.7021 16.0783, 11.9328 16.0829, 12.1905 16.0823, 12.3668 16.0829, 12.455 16.1562, 12.455 16.3021, 12.455 16.3394, 12.4487 16.3789, 12.4361 16.4212 Z M 8.4451 6.03361 L 5.08618 11.7862, 8.84127 11.7862 Z" stroke="none" fill="#E60000" />
			<rect />
		</svg>
	</g>
	<path d="M 0 72.8445 L 0 -72.8445" fill="none" stroke="#000000" stroke-opacity="0.498039186" stroke-width="1.60000014" stroke-linecap="round" stroke-linejoin="round" stroke-dasharray="5.608, 3.992" transform="matrix(0.833333 0 0 0.833333 173.833 310.128)" />
	<path d="M -42.4713 0 L 42.4713 0" fill="none" stroke="#000000" stroke-width="1.60000014" stroke-linecap="round" stroke-linejoin="round" marker-start="url(#CustomMarker-05)" marker-end="url(#CustomMarker-06)" transform="matrix(0.833333 0 -0 0.833333 207.933 354.773)" />
	<g transform="matrix(1 0 -0 1 170.303 324.833)">
		<svg width="272.893372" height="135.042816">
			<defs />
			<path d="M -6.566 1.80565 C -2.16678 -5.77808, 2.16678 5.77808, 6.566 -1.80565" fill="none" stroke="#000000" stroke-width="0.750400007" stroke-linecap="round" stroke-linejoin="round" transform="matrix(0.992109 0.12538 -0.12538 0.992109 6.566 9.23765)" />
			<path d="M -6.566 1.80565 C -2.16678 -5.77808, 2.16678 5.77808, 6.566 -1.80565" fill="none" stroke="#000000" stroke-width="0.750400007" stroke-linecap="round" stroke-linejoin="round" transform="matrix(0.992109 0.12538 -0.12538 0.992109 6.566 13.1772)" />
			<path d="M 27.0788 13.3826 C 27.0788 13.8977, 26.9649 14.392, 26.7371 14.8644, 26.5093 15.3374, 26.2041 15.7413, 25.8215 16.0757, 25.3906 16.4533, 24.9142 16.7327, 24.3936 16.9151, 23.8729 17.098, 23.3287 17.1888, 22.7615 17.1888, 22.2503 17.1888, 21.7516 17.117, 21.2646 16.9734, 20.7776 16.8298, 20.3388 16.6239, 19.9472 16.3546, 19.5556 16.0852, 19.2431 15.7548, 19.0085 15.3626, 18.7746 14.971, 18.6573 14.5204, 18.6573 14.011, 18.6573 13.6284, 18.7852 13.3428, 19.0411 13.1543, 19.2969 12.9658, 19.5662 12.8715, 19.8496 12.8709, 20.1458 12.8715, 20.4213 12.9658, 20.6771 13.1543, 20.933 13.3428, 21.0609 13.6284, 21.0609 14.011, 21.0609 14.2388, 21.0166 14.429, 20.9268 14.5816, 20.8376 14.7342, 20.7237 14.8616, 20.5846 14.9631, 20.446 15.0652, 20.2872 15.1275, 20.1088 15.1511, 20.0168 15.1758, 19.9304 15.1875, 19.8496 15.187, 19.7699 15.1875, 19.7576 15.1937, 19.8125 15.2049, 20.0039 15.5405, 20.3798 15.8373, 20.9408 16.0942, 21.5019 16.3517, 22.1084 16.4802, 22.7615 16.4797, 23.07 16.4802, 23.3579 16.4039, 23.6261 16.2513, 23.8942 16.0987, 24.1181 15.8939, 24.2965 15.6358, 24.5187 15.3014, 24.6696 14.9424, 24.7493 14.5592, 24.8295 14.1765, 24.8694 13.7843, 24.8694 13.3826, 24.8694 12.9702, 24.8295 12.5741, 24.7493 12.1937, 24.6696 11.8139, 24.5187 11.4621, 24.2965 11.1384, 24.1114 10.8758, 23.8864 10.6632, 23.6216 10.5016, 23.3567 10.34, 23.07 10.2592, 22.7615 10.2586 L 21.4211 10.2586 C 21.2427 10.2592, 21.1473 10.1756, 21.135 10.0073 L 21.135 9.90854 C 21.135 9.83728, 21.1568 9.78062, 21.1995 9.73798, 21.255 9.68468, 21.3257 9.65775, 21.4121 9.65718, 21.5911 9.63362, 21.7757 9.62184, 21.9664 9.62128, 22.1516 9.62184, 22.3339 9.61005, 22.5124 9.58537, 22.8451 9.5618, 23.1346 9.45913, 23.3809 9.27623, 23.6277 9.09388, 23.8342 8.86048, 24.0003 8.57602, 24.1669 8.29213, 24.2932 7.96447, 24.3796 7.59305, 24.466 7.22219, 24.5092 6.84179, 24.5092 6.45241, 24.5092 6.16571, 24.4783 5.8936, 24.4166 5.63607, 24.3549 5.37911, 24.241 5.15412, 24.0743 4.96224, 23.7293 4.56781, 23.2917 4.37313, 22.7615 4.37874, 22.1948 4.3793, 21.6758 4.4859, 21.2045 4.69798, 20.7332 4.91062, 20.4168 5.13953, 20.2563 5.38415, 20.2137 5.39089, 20.235 5.39369, 20.3214 5.39313, 20.5436 5.39369, 20.7529 5.45934, 20.9498 5.59062, 21.246 5.76455, 21.3936 6.05799, 21.3936 6.47037, 21.3936 6.81822, 21.2814 7.08024, 21.0564 7.25641, 20.8314 7.43314, 20.5801 7.52123, 20.3029 7.52067, 20.0319 7.52123, 19.7778 7.43483, 19.5404 7.2609, 19.3031 7.08753, 19.1841 6.82383, 19.1841 6.47037, 19.1841 6.03386, 19.2891 5.64841, 19.4983 5.3129, 19.7082 4.97795, 19.9775 4.69069, 20.3074 4.45111, 20.6373 4.2121, 21.0177 4.0292, 21.4491 3.90352, 21.8806 3.77784, 22.3182 3.715, 22.7615 3.71444, 23.2361 3.715, 23.6956 3.77784, 24.1394 3.90352, 24.5832 4.0292, 25.0023 4.22388, 25.3962 4.48646, 25.7171 4.71425, 25.9864 4.99422, 26.2052 5.32637, 26.4241 5.65851, 26.5335 6.03386, 26.5335 6.45241, 26.5335 6.87208, 26.4583 7.26707, 26.3074 7.63793, 26.1564 8.00935, 25.9561 8.34431, 25.7065 8.64335, 25.4568 8.94296, 25.1594 9.20609, 24.8144 9.43332, 24.4693 9.66111, 24.2101 9.80418, 24.0373 9.86365, 24.1854 9.88217, 24.4385 9.97082, 24.7959 10.129, 25.1533 10.2878, 25.4949 10.4988, 25.8215 10.7613, 26.2041 11.0913, 26.5093 11.4846, 26.7371 11.9424, 26.9649 12.4002, 27.0788 12.8805, 27.0788 13.3826 Z" stroke="none" fill="#000000" />
			<path d="M 36.9647 13.3826 C 36.9647 13.8977, 36.8508 14.392, 36.623 14.8644, 36.3952 15.3374, 36.09 15.7413, 35.7074 16.0757, 35.2765 16.4533, 34.8001 16.7327, 34.2795 16.9151, 33.7588 17.098, 33.2146 17.1888, 32.6473 17.1888, 32.1362 17.1888, 31.6374 17.117, 31.1504 16.9734, 30.6634 16.8298, 30.2247 16.6239, 29.8331 16.3546, 29.4414 16.0852, 29.1289 15.7548, 28.8944 15.3626, 28.6604 14.971, 28.5432 14.5204, 28.5432 14.011, 28.5432 13.6284, 28.6711 13.3428, 28.9269 13.1543, 29.1828 12.9658, 29.4521 12.8715, 29.7354 12.8709, 30.0317 12.8715, 30.3072 12.9658, 30.563 13.1543, 30.8188 13.3428, 30.9468 13.6284, 30.9468 14.011, 30.9468 14.2388, 30.9024 14.429, 30.8127 14.5816, 30.7235 14.7342, 30.6096 14.8616, 30.4704 14.9631, 30.3318 15.0652, 30.1731 15.1275, 29.9946 15.1511, 29.9026 15.1758, 29.8162 15.1875, 29.7354 15.187, 29.6558 15.1875, 29.6434 15.1937, 29.6984 15.2049, 29.8897 15.5405, 30.2656 15.8373, 30.8267 16.0942, 31.3878 16.3517, 31.9943 16.4802, 32.6473 16.4797, 32.9559 16.4802, 33.2437 16.4039, 33.5119 16.2513, 33.7801 16.0987, 34.004 15.8939, 34.1824 15.6358, 34.4046 15.3014, 34.5555 14.9424, 34.6352 14.5592, 34.7154 14.1765, 34.7552 13.7843, 34.7552 13.3826, 34.7552 12.9702, 34.7154 12.5741, 34.6352 12.1937, 34.5555 11.8139, 34.4046 11.4621, 34.1824 11.1384, 33.9972 10.8758, 33.7723 10.6632, 33.5074 10.5016, 33.2426 10.34, 32.9559 10.2592, 32.6473 10.2586 L 31.307 10.2586 C 31.1285 10.2592, 31.0332 10.1756, 31.0208 10.0073 L 31.0208 9.90854 C 31.0208 9.83728, 31.0427 9.78062, 31.0853 9.73798, 31.1409 9.68468, 31.2116 9.65775, 31.298 9.65718, 31.477 9.63362, 31.6616 9.62184, 31.8523 9.62128, 32.0375 9.62184, 32.2198 9.61005, 32.3982 9.58537, 32.7309 9.5618, 33.0204 9.45913, 33.2667 9.27623, 33.5136 9.09388, 33.7201 8.86048, 33.8862 8.57602, 34.0528 8.29213, 34.179 7.96447, 34.2654 7.59305, 34.3518 7.22219, 34.395 6.84179, 34.395 6.45241, 34.395 6.16571, 34.3642 5.8936, 34.3025 5.63607, 34.2407 5.37911, 34.1268 5.15412, 33.9602 4.96224, 33.6152 4.56781, 33.1775 4.37313, 32.6473 4.37874, 32.0807 4.3793, 31.5617 4.4859, 31.0904 4.69798, 30.6191 4.91062, 30.3027 5.13953, 30.1422 5.38415, 30.0996 5.39089, 30.1209 5.39369, 30.2073 5.39313, 30.4295 5.39369, 30.6387 5.45934, 30.8357 5.59062, 31.1319 5.76455, 31.2795 6.05799, 31.2795 6.47037, 31.2795 6.81822, 31.1673 7.08024, 30.9423 7.25641, 30.7173 7.43314, 30.4659 7.52123, 30.1888 7.52067, 29.9178 7.52123, 29.6636 7.43483, 29.4263 7.2609, 29.189 7.08753, 29.07 6.82383, 29.07 6.47037, 29.07 6.03386, 29.1749 5.64841, 29.3842 5.3129, 29.594 4.97795, 29.8634 4.69069, 30.1933 4.45111, 30.5232 4.2121, 30.9036 4.0292, 31.335 3.90352, 31.7665 3.77784, 32.2041 3.715, 32.6473 3.71444, 33.122 3.715, 33.5815 3.77784, 34.0253 3.90352, 34.4691 4.0292, 34.8882 4.22388, 35.2821 4.48646, 35.603 4.71425, 35.8723 4.99422, 36.0911 5.32637, 36.3099 5.65851, 36.4193 6.03386, 36.4193 6.45241, 36.4193 6.87208, 36.3442 7.26707, 36.1932 7.63793, 36.0423 8.00935, 35.842 8.34431, 35.5923 8.64335, 35.3427 8.94296, 35.0453 9.20609, 34.7002 9.43332, 34.3552 9.66111, 34.096 9.80418, 33.9232 9.86365, 34.0713 9.88217, 34.3243 9.97082, 34.6817 10.129, 35.0391 10.2878, 35.3808 10.4988, 35.7074 10.7613, 36.09 11.0913, 36.3952 11.4846, 36.623 11.9424, 36.8508 12.4002, 36.9647 12.8805, 36.9647 13.3826 Z" stroke="none" fill="#000000" />
			<path d="M 46.8595 13.3826 C 46.8595 13.8977, 46.7456 14.392, 46.5178 14.8644, 46.29 15.3374, 45.9848 15.7413, 45.6021 16.0757, 45.1713 16.4533, 44.6949 16.7327, 44.1743 16.9151, 43.6536 17.098, 43.1094 17.1888, 42.5421 17.1888, 42.031 17.1888, 41.5322 17.117, 41.0452 16.9734, 40.5582 16.8298, 40.1195 16.6239, 39.7279 16.3546, 39.3362 16.0852, 39.0237 15.7548, 38.7892 15.3626, 38.5552 14.971, 38.438 14.5204, 38.438 14.011, 38.438 13.6284, 38.5659 13.3428, 38.8217 13.1543, 39.0776 12.9658, 39.3469 12.8715, 39.6302 12.8709, 39.9265 12.8715, 40.202 12.9658, 40.4578 13.1543, 40.7136 13.3428, 40.8416 13.6284, 40.8416 14.011, 40.8416 14.2388, 40.7972 14.429, 40.7075 14.5816, 40.6183 14.7342, 40.5044 14.8616, 40.3652 14.9631, 40.2266 15.0652, 40.0679 15.1275, 39.8894 15.1511, 39.7974 15.1758, 39.711 15.1875, 39.6302 15.187, 39.5506 15.1875, 39.5382 15.1937, 39.5932 15.2049, 39.7845 15.5405, 40.1604 15.8373, 40.7215 16.0942, 41.2826 16.3517, 41.8891 16.4802, 42.5421 16.4797, 42.8507 16.4802, 43.1385 16.4039, 43.4067 16.2513, 43.6749 16.0987, 43.8988 15.8939, 44.0772 15.6358, 44.2994 15.3014, 44.4503 14.9424, 44.53 14.5592, 44.6102 14.1765, 44.65 13.7843, 44.65 13.3826, 44.65 12.9702, 44.6102 12.5741, 44.53 12.1937, 44.4503 11.8139, 44.2994 11.4621, 44.0772 11.1384, 43.892 10.8758, 43.6671 10.6632, 43.4022 10.5016, 43.1374 10.34, 42.8507 10.2592, 42.5421 10.2586 L 41.2018 10.2586 C 41.0233 10.2592, 40.928 10.1756, 40.9156 10.0073 L 40.9156 9.90854 C 40.9156 9.83728, 40.9375 9.78062, 40.9801 9.73798, 41.0357 9.68468, 41.1064 9.65775, 41.1928 9.65718, 41.3718 9.63362, 41.5563 9.62184, 41.7471 9.62128, 41.9323 9.62184, 42.1146 9.61005, 42.293 9.58537, 42.6257 9.5618, 42.9152 9.45913, 43.1615 9.27623, 43.4084 9.09388, 43.6149 8.86048, 43.7809 8.57602, 43.9476 8.29213, 44.0738 7.96447, 44.1602 7.59305, 44.2466 7.22219, 44.2898 6.84179, 44.2898 6.45241, 44.2898 6.16571, 44.259 5.8936, 44.1973 5.63607, 44.1355 5.37911, 44.0216 5.15412, 43.855 4.96224, 43.51 4.56781, 43.0723 4.37313, 42.5421 4.37874, 41.9755 4.3793, 41.4565 4.4859, 40.9852 4.69798, 40.5139 4.91062, 40.1975 5.13953, 40.037 5.38415, 39.9944 5.39089, 40.0157 5.39369, 40.1021 5.39313, 40.3243 5.39369, 40.5335 5.45934, 40.7305 5.59062, 41.0267 5.76455, 41.1743 6.05799, 41.1743 6.47037, 41.1743 6.81822, 41.0621 7.08024, 40.8371 7.25641, 40.6121 7.43314, 40.3607 7.52123, 40.0836 7.52067, 39.8126 7.52123, 39.5584 7.43483, 39.3211 7.2609, 39.0838 7.08753, 38.9648 6.82383, 38.9648 6.47037, 38.9648 6.03386, 39.0697 5.64841, 39.279 5.3129, 39.4888 4.97795, 39.7582 4.69069, 40.0881 4.45111, 40.418 4.2121, 40.7984 4.0292, 41.2298 3.90352, 41.6613 3.77784, 42.0989 3.715, 42.5421 3.71444, 43.0168 3.715, 43.4763 3.77784, 43.9201 3.90352, 44.3639 4.0292, 44.783 4.22388, 45.1769 4.48646, 45.4978 4.71425, 45.7671 4.99422, 45.9859 5.32637, 46.2047 5.65851, 46.3141 6.03386, 46.3141 6.45241, 46.3141 6.87208, 46.239 7.26707, 46.088 7.63793, 45.9371 8.00935, 45.7368 8.34431, 45.4871 8.64335, 45.2375 8.94296, 44.9401 9.20609, 44.595 9.43332, 44.25 9.66111, 43.9908 9.80418, 43.818 9.86365, 43.9661 9.88217, 44.2191 9.97082, 44.5765 10.129, 44.9339 10.2878, 45.2756 10.4988, 45.6021 10.7613, 45.9848 11.0913, 46.29 11.4846, 46.5178 11.9424, 46.7456 12.4002, 46.8595 12.8805, 46.8595 13.3826 Z" stroke="none" fill="#000000" />
			<path d="M 59.3203 16.8334 C 58.7294 16.7911, 58.1632 16.7693, 57.6222 16.7693 L 57.3772 16.7693 C 56.7486 16.7819, 56.085 16.8002, 55.3866 16.8243 L 55.3866 16.064 C 55.5881 16.0646, 55.7449 16.0508, 55.8583 16.0233, 55.9717 15.9959, 56.0409 15.93, 56.0661 15.8258, 56.0787 15.796, 56.085 15.7594, 56.085 15.7159, 56.085 15.6369, 56.057 15.5487, 55.9997 15.4502, 55.9184 15.298, 55.824 15.1548, 55.7169 15.0197 L 53.8774 12.4824, 52.7547 13.4167, 52.7547 15.4777 C 52.7547 15.5819, 52.7673 15.6787, 52.7925 15.7668, 52.8177 15.8556, 52.8715 15.918, 52.9528 15.9541, 53.0725 16.0096, 53.25 16.0417, 53.4858 16.0508, 53.7217 16.06, 53.9816 16.0646, 54.2644 16.064 L 54.2644 16.8334 C 53.491 16.7911, 52.7519 16.7693, 52.0477 16.7693, 51.3498 16.7693, 50.6141 16.7911, 49.8401 16.8334 L 49.8401 16.064 C 50.1229 16.0646, 50.3822 16.06, 50.6181 16.0508, 50.854 16.0417, 51.032 16.0096, 51.1511 15.9541, 51.2267 15.918, 51.2788 15.8539, 51.3069 15.7623, 51.3355 15.6707, 51.3492 15.5762, 51.3492 15.4777 L 51.3492 5.5298 C 51.3492 5.37179, 51.3418 5.21778, 51.3257 5.06778, 51.3103 4.91836, 51.2456 4.80386, 51.1322 4.72371, 51.0257 4.651, 50.854 4.60863, 50.6181 4.59604, 50.3822 4.58401, 50.1229 4.57772, 49.8401 4.57714 L 49.8401 3.83517, 52.8114 3.61533, 52.8114 12.5007, 55.3677 10.3572 C 55.4873 10.2662, 55.5881 10.1563, 55.6699 10.0274, 55.7266 9.93011, 55.7547 9.83278, 55.7547 9.73431 L 55.7547 9.62439 C 55.7484 9.53966, 55.6997 9.46809, 55.6087 9.4097, 55.5177 9.35188, 55.3808 9.32268, 55.1982 9.3221 L 55.1982 8.54349 C 55.9969 8.587, 56.7549 8.60818, 57.4716 8.60761, 57.6915 8.60818, 57.913 8.60532, 58.1363 8.59902, 58.3596 8.5933, 58.6132 8.57441, 58.896 8.54349 L 58.896 9.3221 C 58.4306 9.32268, 57.9869 9.42058, 57.5655 9.61523, 57.3142 9.72572, 57.0818 9.8574, 56.8676 10.0097, 56.6541 10.1625, 56.4371 10.3274, 56.2167 10.5038 L 54.9056 11.6121, 57.3108 14.9098 C 57.4556 15.0873, 57.6005 15.2711, 57.7447 15.46, 57.8896 15.6495, 58.039 15.7897, 58.193 15.8813, 58.3476 15.973, 58.5142 16.0268, 58.6934 16.0417, 58.8726 16.0571, 59.0815 16.0646, 59.3203 16.064 L 59.3203 16.8334 Z" stroke="none" fill="#000000" />
			<path d="M 75.1902 16.8334 C 74.4104 16.7911, 73.6593 16.7693, 72.9357 16.7693, 72.2126 16.7693, 71.4517 16.7911, 70.6531 16.8334 L 70.6531 16.064 C 70.9359 16.0646, 71.1952 16.06, 71.4311 16.0508, 71.667 16.0417, 71.845 16.0096, 71.9641 15.9541, 72.0397 15.918, 72.0918 15.8539, 72.1198 15.7623, 72.1485 15.6707, 72.1622 15.5762, 72.1622 15.4777 L 72.1622 11.0076 C 72.1622 10.703, 72.1433 10.4145, 72.1055 10.1425, 72.0677 9.87114, 71.9738 9.61866, 71.8227 9.38623, 71.7345 9.24024, 71.6074 9.13375, 71.4408 9.06619, 71.2742 8.99921, 71.087 8.96543, 70.8792 8.96486, 70.5208 8.96543, 70.1876 9.04043, 69.8796 9.18985, 69.5716 9.33985, 69.3059 9.54138, 69.0827 9.79443, 68.8594 10.048, 68.6819 10.3458, 68.5497 10.6875, 68.418 11.0299, 68.3516 11.3866, 68.3516 11.7587 L 68.3516 15.4777 C 68.3516 15.5819, 68.3642 15.6787, 68.3894 15.7668, 68.4145 15.8556, 68.4678 15.918, 68.5497 15.9541, 68.6693 16.0096, 68.8468 16.0417, 69.0827 16.0508, 69.3185 16.06, 69.5779 16.0646, 69.8607 16.064 L 69.8607 16.8334 C 69.062 16.7911, 68.3012 16.7693, 67.5775 16.7693, 66.8424 16.7693, 66.0907 16.7911, 65.3236 16.8334 L 65.3236 16.064 C 65.6064 16.0646, 65.8657 16.06, 66.1016 16.0508, 66.3375 16.0417, 66.5155 16.0096, 66.6346 15.9541, 66.7039 15.918, 66.7508 15.8556, 66.776 15.7668, 66.8012 15.6787, 66.8138 15.5819, 66.8138 15.4777 L 66.8138 11.0076 C 66.8138 10.703, 66.7966 10.4145, 66.7623 10.1425, 66.7279 9.87114, 66.6346 9.61866, 66.4835 9.38623, 66.3896 9.24024, 66.259 9.13375, 66.0924 9.06619, 65.9258 8.99921, 65.7386 8.96543, 65.5308 8.96486, 65.1724 8.96543, 64.8381 9.04043, 64.5266 9.18985, 64.2152 9.33985, 63.9495 9.54138, 63.7291 9.79443, 63.5093 10.048, 63.333 10.3458, 63.2007 10.6875, 63.069 11.0299, 63.0026 11.3866, 63.0026 11.7587 L 63.0026 15.4777 C 63.0026 15.5819, 63.0152 15.6787, 63.0404 15.7668, 63.0656 15.8556, 63.116 15.918, 63.1915 15.9541, 63.3112 16.0096, 63.4904 16.0417, 63.7291 16.0508, 63.9684 16.06, 64.2261 16.0646, 64.5026 16.064 L 64.5026 16.8243 C 64.182 16.8123, 63.8866 16.8031, 63.6163 16.7968, 63.3461 16.7911, 63.0816 16.7819, 62.8234 16.7693 L 62.2291 16.7693 C 61.4935 16.7693, 60.7418 16.7911, 59.9746 16.8334 L 59.9746 16.064 C 60.258 16.0646, 60.5173 16.06, 60.7532 16.0508, 60.9891 16.0417, 61.1671 16.0096, 61.2862 15.9541, 61.3618 15.918, 61.4116 15.8556, 61.4368 15.7668, 61.462 15.6787, 61.4746 15.5819, 61.4746 15.4777 L 61.4746 10.2748 C 61.4746 10.1042, 61.4671 9.949, 61.4511 9.80817, 61.4356 9.6679, 61.3744 9.55454, 61.2673 9.46867, 61.1608 9.39596, 60.9879 9.35359, 60.7486 9.341, 60.5093 9.32897, 60.2517 9.32268, 59.9746 9.3221 L 59.9746 8.56181, 61.5971 8.44273, 62.899 8.34197, 62.899 9.91751 C 63.0186 9.63698, 63.3284 9.30607, 63.8282 8.92421, 64.3285 8.54292, 64.9148 8.3517, 65.5875 8.35113, 65.9402 8.3517, 66.3031 8.39292, 66.677 8.47536, 67.0514 8.5578, 67.38 8.73643, 67.6628 9.01066, 67.8518 9.19444, 67.9949 9.39481, 68.0922 9.61122, 68.1895 9.8282, 68.2382 9.94557, 68.2382 9.96332, 68.4082 9.59748, 68.7386 9.23737, 69.2287 8.88299, 69.7193 8.52918, 70.2855 8.3517, 70.9267 8.35113, 71.2788 8.3517, 71.6452 8.39292, 72.0254 8.47536, 72.4061 8.5578, 72.7381 8.73643, 73.021 9.01123, 73.3038 9.28604, 73.4881 9.60206, 73.5729 9.95931, 73.6576 10.3166, 73.7 10.6664, 73.7 11.0076 L 73.7 15.4777 C 73.7 15.5819, 73.7125 15.6787, 73.7377 15.7668, 73.7629 15.8556, 73.8167 15.918, 73.898 15.9541, 74.0177 16.0096, 74.1952 16.0417, 74.431 16.0508, 74.6669 16.06, 74.92 16.0646, 75.1902 16.064 L 75.1902 16.8334 Z" stroke="none" fill="#000000" />
			<rect />
		</svg>
	</g>
	<g transform="matrix(1 0 -0 1 305.121 255.299)">
		<svg width="230.955734" height="56.9999886">
			<defs />
			<path d="M 16.0504 10.0968 C 14.9423 10.2105, 13.4474 10.3735, 11.5667 10.5845 L 9.32607 10.8284, 7.85692 10.9972, 7.52862 9.59024 C 7.78657 9.49175, 7.97066 9.40147, 8.0797 9.31939, 8.18991 9.23849, 8.30247 9.12241, 8.41738 8.97116, 8.92038 8.30987, 9.49022 7.40353, 10.1281 6.25213, 10.7659 5.10191, 11.3029 4.01969, 11.7414 3.00548 L 13.1906 3.512 C 12.7779 4.48869, 12.2667 5.53691, 11.6547 6.65547, 11.0426 7.77521, 10.4669 8.6968, 9.92521 9.4214 L 15.3926 8.80232 C 14.9036 7.81508, 14.3948 6.86535, 13.866 5.9508 L 15.1417 5.35048 C 15.5028 5.88983, 15.98 6.70237, 16.5721 7.79045, 17.1654 8.87853, 17.6801 9.87868, 18.1175 10.7909 L 16.7269 11.4475, 16.0504 10.0968 Z M 6.85209 8.05192 C 6.6856 9.84116, 6.48862 11.3115, 6.2635 12.4617, 6.03838 13.6131, 5.73235 14.6379, 5.34543 15.5372, 6.29867 16.3638, 7.08425 17.0638, 7.70215 17.6383 L 6.75595 18.8764 C 6.3573 18.4895, 5.65497 17.8329, 4.65014 16.9066, 3.96774 18.0088, 2.9887 19.1895, 1.71302 20.4523 L 0.649567 19.4392 C 1.33313 18.7768, 1.91 18.1683, 2.38018 17.6113, 2.85035 17.0555, 3.23962 16.501, 3.54799 15.9499, 2.55605 15.1127, 1.75758 14.4749, 1.15257 14.0364, 1.61688 12.287, 2.01553 10.2914, 2.34969 8.05192 L 0.592114 8.05192, 0.592114 6.6074, 2.54315 6.6074 C 2.67213 5.5076, 2.78821 4.36324, 2.89139 3.17432 L 4.37929 3.26812 C 4.28901 4.39489, 4.17293 5.5076, 4.03106 6.6074 L 6.85209 6.6074 Z M 2.77531 13.436 C 3.22672 13.7749, 3.70393 14.156, 4.20576 14.5804, 4.5024 13.8066, 4.73104 12.9342, 4.89167 11.9646, 5.05348 10.9961, 5.21763 9.69108, 5.38412 8.05192 L 3.81883 8.05192 C 3.54916 9.94199, 3.20093 11.7359, 2.77531 13.436 Z M 10.0401 20.2459 L 8.5147 20.2459, 8.5147 12.5356, 16.9966 12.5356, 16.9966 20.2647, 15.47 20.2647, 15.47 19.2141, 10.0401 19.2141 Z M 15.47 17.8071 L 15.47 13.9238, 10.0401 13.9238, 10.0401 17.8071 Z" stroke="none" fill="#E60000" />
			<path d="M 32.7452 10.3406 C 33.9951 11.2048, 35.6108 11.9927, 37.5947 12.7044 L 37.0541 14.1114 C 35.9074 13.6494, 34.9003 13.1875, 34.0303 12.7243, 33.1603 12.2624, 32.3712 11.7617, 31.663 11.2224, 30.3357 12.1991, 28.5652 13.1429, 26.3492 14.0551 L 25.6539 12.7982 C 27.6507 12.049, 29.2863 11.2235, 30.562 10.3219, 29.8151 9.6348, 29.087 8.82225, 28.3776 7.88308, 27.7339 8.74721, 27.1477 9.43547, 26.6201 9.94668 L 25.7888 8.91488 C 26.4852 8.2278, 27.2005 7.31207, 27.9344 6.16771, 28.6684 5.02335, 29.223 3.97631, 29.5959 3.02424 L 30.8903 3.45572 C 30.7226 3.86961, 30.4776 4.38903, 30.1552 5.0128 L 35.9145 5.0128, 35.9145 6.40104 C 35.4244 7.21476, 34.9284 7.94053, 34.4266 8.57837, 33.9247 9.21621, 33.3643 9.80364, 32.7452 10.3406 Z M 20.978 10.153 C 20.7587 10.1671, 20.475 10.2164, 20.1268 10.3031 L 19.7985 8.87736 C 19.979 8.82812, 20.108 8.77301, 20.1854 8.70969, 20.2628 8.64755, 20.3531 8.54672, 20.4562 8.40836, 20.7658 7.99681, 21.1937 7.25345, 21.7413 6.17709, 22.2889 5.10191, 22.7555 4.07597, 23.1413 3.09928 L 24.4357 3.62456 C 24.0242 4.53911, 23.554 5.51111, 23.0264 6.54291, 22.4987 7.57471, 22.0661 8.3216, 21.7307 8.78356, 22.2982 8.72259, 23.0322 8.61589, 23.9339 8.46464, 24.3982 7.64037, 24.8226 6.79617, 25.2096 5.93204 L 26.4067 6.47608 C 25.9177 7.49029, 25.267 8.70735, 24.4556 10.1261, 23.6443 11.546, 23.0006 12.5743, 22.5234 13.2109, 22.949 13.1371, 23.5997 12.987, 24.4744 12.7607 L 25.3057 12.5731, 25.3444 13.9988 C 25.1122 14.0246, 23.9022 14.2439, 21.712 14.6554, 21.5572 14.6812, 21.4224 14.7105, 21.3063 14.741, 21.1902 14.7727, 21.0929 14.8008, 21.0155 14.8243, 20.9135 14.863, 20.7587 14.9064, 20.5524 14.9556 L 20.2042 13.5111 C 20.475 13.3997, 20.672 13.3059, 20.7939 13.2309, 20.917 13.1558, 21.0425 13.0374, 21.1703 12.8732, 21.7378 12.212, 22.4073 11.2048, 23.18 9.85288, 23.051 9.86695, 22.8458 9.89744, 22.562 9.94668, 21.7249 10.0733, 21.1973 10.1413, 20.978 10.153 Z M 29.1703 6.71996 C 29.9441 7.82211, 30.7613 8.74135, 31.6243 9.47768, 32.5529 8.67804, 33.4346 7.64624, 34.2718 6.38228 L 29.3825 6.38228 C 29.345 6.45849, 29.2734 6.57105, 29.1703 6.71996 Z M 29.1316 13.1359 L 30.1751 13.4736 C 31.7087 13.9496, 33.2154 14.4315, 34.6963 14.9181 L 34.1358 16.3063 C 33.2869 16.0073, 32.3243 15.6767, 31.2479 15.3132, 30.1727 14.9509, 29.3192 14.6754, 28.6872 14.4866 Z M 19.6824 17.6946 L 22.5421 17.0567 C 23.1999 16.9207, 23.8319 16.7835, 24.4369 16.6452, 25.0419 16.508, 25.5508 16.3954, 25.9623 16.3063 L 26.0397 17.7321 C 25.6926 17.7954, 24.2493 18.1085, 21.712 18.6701, 20.604 18.9327, 19.999 19.0711, 19.8958 19.0828 Z M 27.5663 16.4564 C 28.4175 16.6827, 29.6416 17.0462, 31.2385 17.5457, 32.8355 18.0463, 34.2659 18.5012, 35.5276 18.914 L 35.0058 20.3397 C 33.8474 19.9153, 32.4755 19.4463, 30.8903 18.9327, 29.3063 18.4203, 28.0634 18.0522, 27.1606 17.8259 Z" stroke="none" fill="#E60000" />
			<path d="M 55.2557 7.52664 C 55.2697 9.31588, 55.2182 11.1274, 55.1021 12.9588, 54.986 14.7915, 54.8254 16.2512, 54.619 17.3381, 54.49 17.9771, 54.3224 18.4708, 54.116 18.8202, 53.9096 19.1707, 53.62 19.424, 53.2472 19.5799, 52.8743 19.7371, 52.3655 19.8215, 51.7206 19.8332, 50.5352 19.8461, 49.3885 19.784, 48.2805 19.6456 L 47.9322 18.1073 C 48.6674 18.1964, 49.2701 18.2609, 49.7402 18.3043, 50.2104 18.3488, 50.7415 18.3699, 51.3337 18.3699, 51.7335 18.3582, 52.043 18.3113, 52.2611 18.2304, 52.4804 18.1495, 52.6539 17.9865, 52.7829 17.7426, 52.9118 17.4988, 53.035 17.12, 53.1499 16.6065, 53.2917 16.0073, 53.4078 14.9732, 53.4981 13.5029, 53.5884 12.0337, 53.6329 10.7416, 53.6329 9.62776 L 53.6329 8.97116, 47.4304 8.97116 C 47.1865 10.6736, 46.7996 12.1686, 46.2708 13.456, 45.7432 14.7446, 44.9963 15.9393, 44.0302 17.0391, 43.064 18.1401, 41.8012 19.2212, 40.2418 20.2834 L 39.1795 19.0265 C 40.5842 18.1272, 41.7274 17.1869, 42.6091 16.2043, 43.492 15.2229, 44.1849 14.1536, 44.6868 12.9964, 45.1898 11.8403, 45.5696 10.4978, 45.8264 8.97116 L 39.6825 8.97116, 39.6825 7.52664, 46.0387 7.52664, 46.0387 7.4516 C 46.116 6.77741, 46.1782 6.00591, 46.2227 5.13591, 46.2685 4.26709, 46.2849 3.61284, 46.2708 3.17432 L 47.8748 3.17432 C 47.8373 4.87679, 47.7528 6.31428, 47.6239 7.48912 L 47.6239 7.52664 Z M 43.6819 7.05764 C 43.3865 6.70824, 42.955 6.23689, 42.3875 5.64243, 41.8212 5.04915, 41.3955 4.62588, 41.1118 4.37496 L 42.2515 3.43696 C 42.5739 3.70077, 43.0054 4.11115, 43.5471 4.66691, 44.0888 5.22385, 44.5203 5.68933, 44.8415 6.06336 Z M 50.6571 15.237 C 50.4132 14.8255, 49.9782 14.2158, 49.3533 13.4091, 48.7284 12.6024, 48.2488 12.0302, 47.9135 11.6914 L 49.1505 10.8096 C 49.4858 11.1485, 49.9583 11.7089, 50.5704 12.4898, 51.1824 13.2719, 51.6303 13.8746, 51.9129 14.299 Z" stroke="none" fill="#E60000" />
			<path d="M 68.593 12.0853 L 68.593 17.9572, 75.7617 17.9572, 75.7617 19.458, 58.1589 19.458, 58.1589 17.9572, 61.1734 17.9572, 61.1734 8.46464, 62.7575 8.46464, 62.7575 17.9572, 66.989 17.9572, 66.989 5.98832, 59.0664 5.98832, 59.0664 4.50628, 75.1438 4.50628, 75.1438 5.98832, 68.593 5.98832, 68.593 10.6408, 74.5059 10.6408, 74.5059 12.0853 Z" stroke="none" fill="#E60000" />
			<rect />
		</svg>
	</g>
	<g transform="matrix(1 0 -0 1 10.7947 166.632)">
		<svg width="230.955734" height="59.9571304">
			<defs />
			<path d="M 18.1949 4.2624 L 18.1949 5.70692, 15.6447 5.70692, 15.6447 17.3194 C 15.6447 18.0463, 15.5673 18.595, 15.4125 18.9702, 15.2577 19.3454, 14.9752 19.6116, 14.5625 19.7675, 14.1497 19.9247, 13.5377 20.002, 12.7263 20.002, 11.7602 20.002, 10.93 19.9716, 10.2336 19.9082 L 9.92521 18.445 C 10.8785 18.5458, 11.7672 18.595, 12.5915 18.595, 13.0171 18.595, 13.336 18.5458, 13.5482 18.445, 13.7605 18.3453, 13.9082 18.1776, 13.9926 17.9396, 14.077 17.7028, 14.1181 17.3581, 14.1181 16.9066 L 14.1181 5.70692, 0.708192 5.70692, 0.708192 4.2624 Z M 2.85269 8.46464 L 10.6592 8.46464, 10.6592 15.8561, 2.85269 15.8561 Z M 4.32066 14.4303 L 9.1713 14.4303, 9.1713 9.90916, 4.32066 9.90916 Z" stroke="none" fill="#E60000" />
			<path d="M 30.2138 12.0853 L 30.2138 17.9572, 37.3824 17.9572, 37.3824 19.458, 19.7797 19.458, 19.7797 17.9572, 22.7942 17.9572, 22.7942 8.46464, 24.3783 8.46464, 24.3783 17.9572, 28.6098 17.9572, 28.6098 5.98832, 20.6872 5.98832, 20.6872 4.50628, 36.7645 4.50628, 36.7645 5.98832, 30.2138 5.98832, 30.2138 10.6408, 36.1267 10.6408, 36.1267 12.0853 Z" stroke="none" fill="#E60000" />
			<path d="M 56.57 4.2624 L 56.57 5.70692, 54.0199 5.70692, 54.0199 17.3194 C 54.0199 18.0463, 53.9425 18.595, 53.7877 18.9702, 53.6329 19.3454, 53.3504 19.6116, 52.9376 19.7675, 52.5249 19.9247, 51.9129 20.002, 51.1015 20.002, 50.1354 20.002, 49.3052 19.9716, 48.6088 19.9082 L 48.3004 18.445 C 49.2536 18.5458, 50.1424 18.595, 50.9667 18.595, 51.3923 18.595, 51.7112 18.5458, 51.9234 18.445, 52.1356 18.3453, 52.2834 18.1776, 52.3678 17.9396, 52.4522 17.7028, 52.4933 17.3581, 52.4933 16.9066 L 52.4933 5.70692, 39.0834 5.70692, 39.0834 4.2624 Z M 41.2279 8.46464 L 49.0344 8.46464, 49.0344 15.8561, 41.2279 15.8561 Z M 42.6959 14.4303 L 47.5465 14.4303, 47.5465 9.90916, 42.6959 9.90916 Z" stroke="none" fill="#E60000" />
			<path d="M 60.6317 8.97116 L 59.3947 9.92792, 58.3524 8.78356 C 59.512 7.95929, 60.5907 7.02833, 61.5885 5.98949, 62.5875 4.95183, 63.4023 3.89424, 64.0331 2.81788 L 65.5785 3.30564 C 65.4237 3.58235, 65.167 3.98217, 64.8058 4.50628 L 71.9546 4.50628, 71.9546 5.87576, 69.5005 8.46464, 73.2689 8.46464, 73.2689 16.0437, 71.7236 16.0437, 71.7236 9.8904, 62.197 9.8904, 62.197 16.0624, 60.6317 16.0624 Z M 63.7623 5.87576 C 63.0154 6.79031, 62.1654 7.65327, 61.2121 8.46464 L 67.492 8.46464, 69.9261 5.87576 Z M 74.3312 20.3397 C 73.4167 19.8402, 72.2125 19.2083, 70.7187 18.445, 69.225 17.6828, 67.9165 17.0391, 66.7956 16.5127, 66.2292 17.2772, 65.337 17.9713, 64.1199 18.595, 62.9029 19.2212, 61.2309 19.8215, 59.1051 20.396 L 58.3137 18.914 C 60.5426 18.377, 62.2169 17.8306, 63.3379 17.2736, 64.4588 16.7179, 65.2021 16.1105, 65.5691 15.4539, 65.9361 14.7973, 66.119 13.9625, 66.119 12.9483 L 66.119 11.016, 67.7617 11.016, 67.7617 13.0984 C 67.7617 13.9871, 67.6527 14.7258, 67.4334 15.312, 68.593 15.8256, 69.9554 16.4482, 71.5207 17.1798, 73.086 17.9115, 74.2867 18.4954, 75.1238 18.9327 Z" stroke="none" fill="#E60000" />
			<rect />
		</svg>
	</g>
	<g transform="matrix(1 0 -0 1 8.00004 192.587)">
		<svg width="248.965775" height="41.9571304">
			<defs />
			<path d="M 12.8858 11.1114 C 12.7384 11.7646, 12.5776 12.3676, 12.4025 12.9204, 12.2283 13.4564, 12.0215 13.8341, 11.782 14.0527, 11.5424 14.2721, 11.2434 14.381, 10.885 14.381, 10.5349 14.381, 10.2108 14.2788, 9.91181 14.0728, 9.61283 13.8676, 9.31635 13.5418, 9.02155 13.0946, 8.79208 12.7202, 8.59359 12.3048, 8.42776 11.8484, 7.57184 12.4564, 6.63384 12.9974, 5.61209 13.4698 L 5.06018 12.4648 C 6.16484 11.9832, 7.17738 11.4246, 8.09695 10.7898, 7.82058 9.74541, 7.60953 8.50842, 7.46213 7.07797 L 4.35668 7.07797, 4.35668 9.03437, 5.19836 8.86017 C 6.04508 8.691, 6.52329 8.59301, 6.63384 8.56537 L 6.75779 9.62397, 4.35668 10.0796, 4.35668 12.6792 C 4.35668 13.242, 4.23943 13.644, 4.00493 13.8852, 3.77043 14.1264, 3.38099 14.247, 2.83829 14.247, 2.29559 14.247, 1.83078 14.2252, 1.44385 14.18 L 1.22359 13.1482 C 1.73865 13.2202, 2.21268 13.2554, 2.64483 13.2554, 2.86593 13.2554, 3.02254 13.1867, 3.11466 13.0477, 3.20679 12.9103, 3.25201 12.6842, 3.25201 12.371 L 3.25201 10.294, 0.712715 10.8032, 0.53349 9.73117 C 0.745377 9.70521, 1.65155 9.54441, 3.25201 9.24877 L 3.25201 7.07797, 0.519252 7.07797, 0.519252 6.07297, 3.25201 6.07297, 3.25201 4.26397 C 2.58034 4.3628, 1.81235 4.44822, 0.947215 4.51857 L 0.864302 3.54037 C 2.70513 3.38962, 4.47141 3.1166, 6.164 2.72297 L 6.32983 3.71457 C 5.89768 3.82261, 5.24024 3.95242, 4.35668 4.10317 L 4.35668 6.07297, 7.37921 6.07297 C 7.34236 5.62742, 7.31975 5.2606, 7.3097 4.97417, 7.25443 3.8938, 7.21339 2.98762, 7.18575 2.25397 L 8.27618 2.25397 C 8.27618 2.728, 8.31303 3.62161, 8.38673 4.93397 L 8.4554 6.07297, 12.7895 6.07297, 12.7895 7.07797, 8.53831 7.07797 C 8.64886 8.31161, 8.79626 9.3208, 8.97968 10.1064, 9.9093 9.33922, 10.7007 8.45482, 11.354 7.45317 L 12.2652 8.00257 C 11.4277 9.2002, 10.4344 10.2638, 9.28369 11.1918, 9.48636 11.7462, 9.70663 12.2018, 9.94615 12.5586, 10.1304 12.8098, 10.2845 12.984, 10.4085 13.0812, 10.5324 13.18, 10.6731 13.2286, 10.8297 13.2286, 10.9863 13.2286, 11.1195 13.1641, 11.23 13.0343, 11.3406 12.9053, 11.4461 12.6398, 11.5475 12.237, 11.6764 11.7998, 11.8046 11.273, 11.9335 10.6558 Z M 11.354 5.51017 C 11.06 5.1802, 10.7058 4.81672, 10.2912 4.41891, 9.87748 4.02194, 9.48134 3.65762, 9.10446 3.32597 L 9.80796 2.64257 C 10.1857 2.94742, 10.591 3.30001, 11.0232 3.70201, 11.4553 4.10401, 11.8238 4.46581, 12.127 4.78657 Z" stroke="none" fill="#E60000" />
			<path d="M 14.8042 14.515 L 14.8042 2.78997, 26.0393 2.78997, 26.0393 14.5284, 24.9355 14.5284, 24.9355 13.7646, 15.8946 13.7646, 15.8946 14.515 Z M 15.8946 3.76817 L 15.8946 12.7596, 24.9355 12.7596, 24.9355 3.76817 Z M 20.8769 8.40457 L 20.8769 10.6826, 24.2454 10.6826, 24.2454 11.6474, 16.5571 11.6474, 16.5571 10.6826, 19.8141 10.6826, 19.8141 8.40457, 17.372 8.40457, 17.372 7.47997, 19.8141 7.47997, 19.8141 5.85857, 16.9022 5.85857, 16.9022 4.93397, 23.9137 4.93397, 23.9137 5.85857, 20.8769 5.85857, 20.8769 7.47997, 23.4857 7.47997, 23.4857 8.40457 Z M 22.423 8.63237 C 22.8652 9.14241, 23.2378 9.6022, 23.541 10.0126 L 22.8375 10.5352 C 22.4422 9.98242, 22.0737 9.51761, 21.7329 9.14157 Z" stroke="none" fill="#E60000" />
			<path d="M 36.8738 12.9472 C 37.5739 12.9748, 38.1669 12.9882, 38.6543 12.9874, 39.2807 12.9882, 39.846 12.9706, 40.3519 12.9338 L 40.0755 14.0192 C 39.4139 14.0376, 38.9265 14.046, 38.6132 14.046, 38.3369 14.046, 37.8218 14.0376, 37.0672 14.0192, 35.7884 13.984, 34.6887 13.8048, 33.7683 13.4832, 32.8487 13.1616, 32.0523 12.613, 31.3806 11.835, 30.6537 12.6574, 29.7249 13.448, 28.5926 14.2068 L 27.9301 13.242 C 29.0716 12.5368, 30.0012 11.7596, 30.7181 10.9104, 30.2399 10.1072, 29.8396 9.11142, 29.5172 7.92217, 29.2693 8.40541, 28.9745 8.91461, 28.6344 9.44977 L 27.9301 8.59217 C 28.4184 7.8334, 28.8832 6.89121, 29.3245 5.76561, 29.7667 4.64001, 30.116 3.48761, 30.3731 2.30757 L 31.4635 2.48177 C 31.3446 3.00102, 31.1737 3.6258, 30.9526 4.35777 L 34.2515 4.35777, 34.2515 5.37617 C 34.0589 6.5202, 33.7892 7.54781, 33.4442 8.45901, 33.0991 9.37021, 32.6461 10.2102, 32.0849 10.9774, 32.6461 11.6658, 33.3161 12.1557, 34.0933 12.4455, 34.8705 12.7361, 35.7976 12.9036, 36.8738 12.9472 Z M 37.0119 12.1834 L 35.8939 12.1834, 35.8939 2.36117, 37.0119 2.36117, 37.0119 5.51017, 37.3294 5.72457 C 38.9399 6.83342, 39.9792 7.5788, 40.4482 7.96237 L 39.9516 9.00757 C 39.6208 8.7312, 39.1702 8.37861, 38.599 7.94981, 38.0287 7.52101, 37.4994 7.13241, 37.0119 6.78317 Z M 30.2215 6.38117 C 30.5163 7.86522, 30.9166 9.0662, 31.4225 9.98577, 32.26 8.72701, 32.8303 7.1902, 33.1335 5.37617 L 30.6076 5.37617 C 30.5339 5.60062, 30.4058 5.93562, 30.2215 6.38117 Z" stroke="none" fill="#E60000" />
			<path d="M 45.3482 5.67097 L 45.3482 2.25397, 46.4939 2.25397, 46.4939 14.3408, 45.3482 14.3408, 45.3482 11.835 C 45.2661 11.8718, 45.1874 11.9053, 45.1137 11.9363, 45.04 11.9681, 44.9713 11.9966, 44.9068 12.0226, 44.0693 12.3986, 43.0852 12.8274, 41.9529 13.309 L 41.525 12.237 C 42.2888 11.9338, 43.5634 11.3802, 45.3482 10.5754 L 45.3482 6.78317, 41.8843 6.78317, 41.8843 5.67097 Z M 54.002 10.3744 C 54.002 10.7504, 53.9744 11.2956, 53.9191 12.0092 L 53.9057 12.3174 C 53.8781 12.747, 53.8069 13.077, 53.6913 13.309, 53.5766 13.5418, 53.3974 13.711, 53.1537 13.8182, 52.9099 13.9254, 52.5624 13.9974, 52.111 14.0326, 51.9276 14.051, 51.6428 14.0594, 51.2559 14.0594, 50.879 14.0594, 50.5934 14.051, 50.4 14.0326, 49.9494 13.9974, 49.606 13.9237, 49.3715 13.8115, 49.137 13.7001, 48.967 13.5167, 48.8615 13.2621, 48.7559 13.0083, 48.7023 12.644, 48.7023 12.17 L 48.7023 2.25397, 49.8614 2.25397, 49.8614 6.66257 C 51.1864 5.88621, 52.3095 5.14921, 53.229 4.45157 L 53.9057 5.44317 C 53.4459 5.76561, 52.8178 6.17264, 52.0222 6.66341, 51.2266 7.15502, 50.5063 7.58801, 49.8614 7.96237 L 49.8614 12.036 C 49.8614 12.376, 49.91 12.6088, 50.0063 12.7336, 50.1035 12.8592, 50.2944 12.9346, 50.5792 12.9606, 50.8556 12.979, 51.0633 12.9882, 51.2006 12.9874, 51.3296 12.9882, 51.5314 12.979, 51.8078 12.9606, 52.1579 12.9254, 52.3966 12.8433, 52.5255 12.7135, 52.6545 12.5845, 52.7282 12.3542, 52.7458 12.0226, 52.7642 11.7554, 52.781 11.4321, 52.7944 11.0519, 52.8086 10.6725, 52.8153 10.3526, 52.8153 10.093 Z" stroke="none" fill="#E60000" />
			<path d="M 62.0904 10.1198 L 67.6941 10.1198, 67.6941 11.1382, 62.0904 11.1382, 62.0904 14.4078, 60.9723 14.4078, 60.9723 11.1382, 55.3828 11.1382, 55.3828 10.1198, 60.9723 10.1198, 60.9723 8.16337, 55.9758 8.16337, 55.9758 7.13157, 60.9723 7.13157, 60.9723 2.24057, 62.0904 2.24057, 62.0904 7.13157, 67.1145 7.13157, 67.1145 8.16337, 62.0904 8.16337 Z M 58.8191 6.32757 C 58.5067 5.92641, 58.1114 5.45992, 57.6323 4.92811, 57.1541 4.39714, 56.7262 3.9474, 56.3485 3.58057 L 57.1767 2.85697 C 57.5545 3.21542, 57.9916 3.66181, 58.4883 4.19781, 58.9849 4.73381, 59.3944 5.19862, 59.716 5.59057 Z M 66.7 3.56717 C 66.0568 4.37201, 65.21 5.29242, 64.1607 6.32757 L 63.319 5.63077 C 63.7612 5.18522, 64.2143 4.70701, 64.6782 4.19781, 65.143 3.68861, 65.5182 3.24641, 65.803 2.87037 Z" stroke="none" fill="#E60000" />
			<path d="M 79.0557 9.26217 C 79.7919 10.5494, 80.6662 11.5988, 81.6779 12.4112 L 80.9325 13.2956 C 80.1604 12.5728, 79.5071 11.8048, 78.9728 10.9916, 78.4393 10.1792, 77.9837 9.2672, 77.6068 8.25717 L 77.6068 12.7998 C 77.6068 13.3358, 77.5013 13.7294, 77.2894 13.979, 77.0784 14.2294, 76.7375 14.3542, 76.2677 14.3542, 75.7618 14.3542, 75.3255 14.3324, 74.957 14.2872 L 74.7635 13.2554 C 75.2794 13.3274, 75.6705 13.3626, 75.9368 13.3626, 76.1579 13.3626, 76.3187 13.2939, 76.4201 13.1549, 76.5214 13.0175, 76.5717 12.8006, 76.5717 12.505 L 76.5717 9.93217 C 75.9 10.5586, 74.9662 11.3442, 73.7694 12.2906 L 73.1898 11.3928 C 74.5885 10.3576, 75.7157 9.44642, 76.5717 8.65917 L 76.5717 5.55037, 73.4662 5.55037, 73.4662 4.54537, 76.5717 4.54537, 76.5717 2.20037, 77.6068 2.20037, 77.6068 4.54537, 81.1679 4.54537, 81.1679 5.55037, 77.6068 5.55037 C 77.8279 6.52522, 78.1545 7.46322, 78.5867 8.36437, 79.3505 7.6056, 79.9535 6.91801, 80.3949 6.30077 L 81.2089 6.99757 C 80.9057 7.3644, 80.5557 7.75802, 80.1604 8.17761, 79.7651 8.59804, 79.3966 8.959, 79.0557 9.26217 Z M 79.8697 4.49177 C 79.6771 4.269, 79.4242 4.00854, 79.111 3.70871, 78.7986 3.40972, 78.5038 3.14842, 78.2274 2.92397 L 78.8346 2.32097 C 79.1018 2.527, 79.3982 2.77992, 79.7249 3.07891, 80.0515 3.37874, 80.3161 3.64422, 80.5188 3.87537 Z M 69.0492 4.55877 L 69.0492 3.55377, 73.1764 3.55377, 73.1764 4.55877, 71.6581 4.55877, 71.6581 7.45317, 72.9964 7.45317, 72.9964 8.47157, 71.6581 8.47157, 71.6581 11.8484 C 72.0266 11.742, 72.3046 11.6641, 72.493 11.6147, 72.6823 11.5661, 72.813 11.5318, 72.8867 11.5134 L 73.0106 12.572 C 72.4679 12.7068, 71.7418 12.8902, 70.8306 13.1214, 69.9194 13.3542, 69.3214 13.51, 69.0358 13.5904 L 68.8147 12.5854 C 69.0174 12.5418, 69.6246 12.3852, 70.6363 12.1164 L 70.6363 8.47157, 69.1456 8.47157, 69.1456 7.45317, 70.6363 7.45317, 70.6363 4.55877 Z M 74.1421 6.24717 C 74.3816 6.5068, 74.6789 6.85604, 75.0332 7.29321, 75.3874 7.73122, 75.6747 8.10642, 75.895 8.41797 L 75.122 9.02097 C 74.9109 8.70942, 74.6303 8.33171, 74.2803 7.88951, 73.931 7.44731, 73.6362 7.0964, 73.3967 6.83677 Z" stroke="none" fill="#E60000" />
			<rect />
		</svg>
	</g>
	<g transform="matrix(1 0 -0 1 21.7055 210.437)">
		<svg width="168.04921" height="41.9571304">
			<defs />
			<path d="M 12.9277 5.45657 L 12.9277 6.31417, 4.5493 6.31417, 4.5493 5.45657, 6.55093 5.45657 C 6.44038 4.86781, 6.35328 4.42561, 6.28879 4.12997 L 4.7838 4.12997, 4.7838 3.27237, 8.02744 3.27237 C 7.80718 2.7816, 7.65056 2.45581, 7.55844 2.29417 L 8.62123 2.02617 C 8.75941 2.26821, 8.94785 2.68361, 9.18738 3.27237 L 12.5273 3.27237, 12.5273 4.12997, 10.885 4.12997, 10.6363 5.45657 Z M 4.49403 11.6206 C 3.32571 12.0142, 2.00581 12.4254, 0.53349 12.8534 L 0.31239 11.7948, 1.98236 11.299, 1.98236 6.68937, 0.561127 6.68937, 0.561127 5.64417, 1.98236 5.64417, 1.98236 2.18697, 3.03091 2.18697, 3.03091 5.64417, 4.20425 5.64417, 4.20425 6.68937, 3.03091 6.68937, 3.03091 10.9774 C 3.54681 10.8174, 4.01163 10.6658, 4.42535 10.5218 Z M 7.28206 4.12997 L 7.5442 5.45657, 9.64214 5.45657, 9.89088 4.12997 Z M 13.0516 11.7948 C 13.0516 12.2068, 13.0332 12.6038, 12.9963 12.9874, 12.9695 13.309, 12.9168 13.5485, 12.838 13.7043, 12.7593 13.8609, 12.6354 13.9748, 12.4654 14.046, 12.2953 14.118, 12.0399 14.1624, 11.699 14.18, 11.3682 14.1984, 11.1195 14.2068, 10.9537 14.2068, 10.7795 14.2068, 10.5265 14.1984, 10.1949 14.18, 9.76274 14.1624, 9.46794 14.0711, 9.31133 13.9053, 9.15555 13.7403, 9.07683 13.443, 9.07683 13.0142 L 9.07683 11.2186, 7.66899 11.2186 C 7.65978 11.237, 7.65475 11.2688, 7.65475 11.3124, 7.62795 11.9028, 7.47385 12.3919, 7.19329 12.7805, 6.91273 13.1691, 6.5124 13.4991, 5.99231 13.7713, 5.47223 14.0443, 4.77543 14.319, 3.90108 14.5954 L 3.43124 13.6976 C 4.20509 13.4832, 4.8173 13.2621, 5.26788 13.0343, 5.71845 12.8073, 6.04508 12.5577, 6.24775 12.2847, 6.45043 12.0125, 6.56935 11.6926, 6.6062 11.3258, 6.6062 11.2822, 6.61123 11.2462, 6.6196 11.2186 L 5.07358 11.2186, 5.07358 7.19857, 11.9478 7.19857, 11.9478 11.2186, 10.0843 11.2186, 10.0843 12.6524 C 10.0843 12.9036, 10.1212 13.0678, 10.1949 13.1482, 10.2686 13.2286, 10.4244 13.2822, 10.6639 13.309, 10.8481 13.3274, 10.9855 13.3358, 11.0776 13.3358, 11.1614 13.3358, 11.2945 13.3274, 11.4779 13.309, 11.7083 13.2914, 11.8598 13.242, 11.9335 13.1616, 12.0072 13.0812, 12.0533 12.917, 12.0717 12.6658, 12.0994 12.3182, 12.1128 11.9606, 12.1128 11.5938 Z M 10.9394 8.81997 L 10.9394 8.02937, 6.08193 8.02937, 6.08193 8.81997 Z M 10.9394 9.61057 L 6.08193 9.61057, 6.08193 10.4146, 10.9394 10.4146 Z" stroke="none" fill="#E60000" />
			<path d="M 25.6666 4.30417 L 25.6666 12.6256 C 25.6666 13.0812, 25.6163 13.4212, 25.515 13.644, 25.4137 13.8676, 25.2386 14.0242, 24.9907 14.113, 24.7428 14.2026, 24.3701 14.247, 23.8727 14.247, 23.2102 14.247, 22.6441 14.2252, 22.1751 14.18 L 21.9674 13.0946 C 22.5293 13.1666, 23.0494 13.2018, 23.5276 13.2018, 23.8408 13.2018, 24.0661 13.1775, 24.2035 13.1281, 24.3417 13.0795, 24.4363 12.9932, 24.4866 12.8676, 24.5376 12.7428, 24.5628 12.5418, 24.5628 12.2638 L 24.5628 5.36277, 20.9875 5.36277 C 20.9691 6.00681, 20.8962 6.59222, 20.7672 7.11817, 21.2463 7.5386, 21.8484 8.09302, 22.5754 8.78061, 23.3023 9.46904, 23.8911 10.0444, 24.3417 10.5084 L 23.541 11.366 C 23.1273 10.9112, 22.6206 10.3777, 22.0226 9.76551, 21.4247 9.15414, 20.882 8.61562, 20.3945 8.14997, 20.1182 8.74041, 19.7203 9.30991, 19.2003 9.85931, 18.681 10.4087, 18.0068 10.9874, 17.1785 11.5938 L 16.4332 10.6558 C 17.3167 10.0402, 18.0001 9.46904, 18.4825 8.94141, 18.9658 8.41462, 19.3108 7.87192, 19.5177 7.31331, 19.7254 6.75554, 19.8376 6.1048, 19.856 5.36277 L 16.2816 5.36277, 16.2816 14.3676, 15.1769 14.3676, 15.1769 4.30417, 19.856 4.30417, 19.856 2.28077, 20.9875 2.28077, 20.9875 4.30417 Z" stroke="none" fill="#E60000" />
			<path d="M 31.8915 7.14497 C 31.6067 6.74381, 31.2198 6.24801, 30.7324 5.65757 L 30.7324 14.4078, 29.6696 14.4078, 29.6696 2.21377, 30.7324 2.21377, 30.7324 4.42477 C 31.4962 5.18522, 32.1218 5.85522, 32.6092 6.43477 Z M 32.4434 3.00437 L 40.1032 3.00437, 40.1032 4.03617, 32.4434 4.03617 Z M 27.4887 9.22197 C 27.6177 8.6776, 27.7509 7.92134, 27.8891 6.95151, 28.0273 5.98252, 28.1328 5.1132, 28.2065 4.34437 L 29.1997 4.43817 C 29.1361 5.11822, 29.0373 5.96912, 28.9033 6.99171, 28.7701 8.01514, 28.6437 8.8116, 28.5239 9.38277 Z M 39.331 5.42977 L 39.331 11.4464, 32.8713 11.4464, 32.8713 5.42977 Z M 38.2682 7.94897 L 38.2682 6.44817, 33.9199 6.44817, 33.9199 7.94897 Z M 33.9199 8.94057 L 33.9199 10.4414, 38.2682 10.4414, 38.2682 8.94057 Z M 31.822 13.9656 L 31.822 12.9606, 40.4206 12.9606, 40.4206 13.9656 Z" stroke="none" fill="#E60000" />
			<path d="M 48.995 8.63237 L 48.995 12.8266, 54.1155 12.8266, 54.1155 13.8986, 41.5421 13.8986, 41.5421 12.8266, 43.6953 12.8266, 43.6953 6.04617, 44.8268 6.04617, 44.8268 12.8266, 47.8493 12.8266, 47.8493 4.27737, 42.1903 4.27737, 42.1903 3.21877, 53.6741 3.21877, 53.6741 4.27737, 48.995 4.27737, 48.995 7.60057, 53.2185 7.60057, 53.2185 8.63237 Z" stroke="none" fill="#E60000" />
			<rect />
		</svg>
	</g>
</svg>
