<?xml version="1.0"?>
<svg xmlns="http://www.w3.org/2000/svg" xmlns:xlink="http://www.w3.org/1999/xlink" width="333.050354" height="375.819153">
	<defs>
		<marker id="CustomMarker-01" markerUnits="strokeWidth" markerWidth="15.000001" markerHeight="9" viewBox="-15 -4.5 15 9" orient="auto-start-reverse">
			<path d="M 0 -0 L -10 -3, -8 -0.5, -8 0.5, -10 3 Z" fill="#000000" stroke="#000000" stroke-linejoin="round" />
		</marker>
		<marker id="CustomMarker-02" markerUnits="strokeWidth" markerWidth="15.000001" markerHeight="9" viewBox="-15 -4.5 15 9" orient="auto-start-reverse">
			<path d="M 0 -0 L -10 -3, -8 -0.5, -8 0.5, -10 3 Z" fill="#000000" stroke="#000000" stroke-linejoin="round" />
		</marker>
		<marker id="CustomMarker-03" markerUnits="strokeWidth" markerWidth="15.000001" markerHeight="9" viewBox="-15 -4.5 15 9" orient="auto-start-reverse">
			<path d="M 0 -0 L -10 -3, -8 -0.5, -8 0.5, -10 3 Z" fill="#E60000" stroke="#E60000" stroke-linejoin="round" />
		</marker>
	</defs>
	<g transform="matrix(1 0 -0 1 233.689 98.5752)">
		<svg width="23.9688396" height="45.0428467">
			<defs />
			<path d="M 6.08521 16.8243 C 5.04782 16.7876, 4.03162 16.7693, 3.03774 16.7693, 2.05646 16.7693, 1.04369 16.7876, -0.000570059 16.8243 L -0.000570059 16.064 C 0.358394 16.0646, 0.705907 16.06, 1.04254 16.0508, 1.37918 16.0417, 1.63509 16.0096, 1.81085 15.9541, 1.89902 15.9243, 1.96715 15.8647, 2.01409 15.776, 2.06104 15.6878, 2.08451 15.5882, 2.08451 15.4777 L 2.08451 5.15423 C 2.08451 5.04488, 2.06104 4.94584, 2.01409 4.8571, 1.96715 4.76893, 1.89902 4.70882, 1.81085 4.67791, 1.63509 4.62352, 1.37918 4.59317, 1.04254 4.58688, 0.705907 4.58115, 0.358394 4.57772, -0.000570059 4.57714 L -0.000570059 3.82601 C 1.04369 3.8512, 2.05646 3.86322, 3.03774 3.86265, 4.03162 3.86322, 5.04782 3.8512, 6.08521 3.82601 L 6.08521 4.57714 C 5.72682 4.57772, 5.3793 4.58115, 5.04267 4.58688, 4.70603 4.59317, 4.45298 4.62352, 4.28295 4.67791, 4.19478 4.70882, 4.12608 4.77008, 4.0757 4.86168, 4.02532 4.95328, 4.00013 5.05118, 4.00013 5.15423 L 4.00013 15.4777 C 4.00013 15.5882, 4.02417 15.6878, 4.07112 15.776, 4.11806 15.8647, 4.18906 15.9243, 4.28295 15.9541, 4.45928 16.0096, 4.71405 16.0417, 5.04725 16.0508, 5.38045 16.06, 5.72682 16.0646, 6.08521 16.064 L 6.08521 16.8243 Z" stroke="none" fill="#E60000" />
			<rect />
		</svg>
	</g>
	<g transform="matrix(1 0 -0 1 231.708 254.939)">
		<svg width="32.9738617" height="45.0428467">
			<defs />
			<path d="M 6.0811 16.8243 C 5.04371 16.7876, 4.0275 16.7693, 3.03363 16.7693, 2.05234 16.7693, 1.03957 16.7876, -0.00468272 16.8243 L -0.00468272 16.064 C 0.354281 16.0646, 0.701794 16.06, 1.03843 16.0508, 1.37507 16.0417, 1.63098 16.0096, 1.80674 15.9541, 1.8949 15.9243, 1.96303 15.8647, 2.00998 15.776, 2.05692 15.6878, 2.0804 15.5882, 2.0804 15.4777 L 2.0804 5.15423 C 2.0804 5.04488, 2.05692 4.94584, 2.00998 4.8571, 1.96303 4.76893, 1.8949 4.70882, 1.80674 4.67791, 1.63098 4.62352, 1.37507 4.59317, 1.03843 4.58688, 0.701794 4.58115, 0.354281 4.57772, -0.00468272 4.57714 L -0.00468272 3.82601 C 1.03957 3.8512, 2.05234 3.86322, 3.03363 3.86265, 4.0275 3.86322, 5.04371 3.8512, 6.0811 3.82601 L 6.0811 4.57714 C 5.7227 4.57772, 5.37519 4.58115, 5.03856 4.58688, 4.70192 4.59317, 4.44887 4.62352, 4.27883 4.67791, 4.19067 4.70882, 4.12197 4.77008, 4.07159 4.86168, 4.02121 4.95328, 3.99602 5.05118, 3.99602 5.15423 L 3.99602 15.4777 C 3.99602 15.5882, 4.02006 15.6878, 4.06701 15.776, 4.11395 15.8647, 4.18494 15.9243, 4.27883 15.9541, 4.45517 16.0096, 4.70993 16.0417, 5.04314 16.0508, 5.37634 16.06, 5.7227 16.0646, 6.0811 16.064 L 6.0811 16.8243 Z" stroke="none" fill="#E60000" />
			<path d="M 9.85744 16.8243 C 8.82005 16.7876, 7.80384 16.7693, 6.80997 16.7693, 5.82868 16.7693, 4.81591 16.7876, 3.77166 16.8243 L 3.77166 16.064 C 4.13062 16.0646, 4.47813 16.06, 4.81477 16.0508, 5.15141 16.0417, 5.40732 16.0096, 5.58308 15.9541, 5.67124 15.9243, 5.73937 15.8647, 5.78632 15.776, 5.83326 15.6878, 5.85674 15.5882, 5.85674 15.4777 L 5.85674 5.15423 C 5.85674 5.04488, 5.83326 4.94584, 5.78632 4.8571, 5.73937 4.76893, 5.67124 4.70882, 5.58308 4.67791, 5.40732 4.62352, 5.15141 4.59317, 4.81477 4.58688, 4.47813 4.58115, 4.13062 4.57772, 3.77166 4.57714 L 3.77166 3.82601 C 4.81591 3.8512, 5.82868 3.86322, 6.80997 3.86265, 7.80384 3.86322, 8.82005 3.8512, 9.85744 3.82601 L 9.85744 4.57714 C 9.49904 4.57772, 9.15153 4.58115, 8.81489 4.58688, 8.47826 4.59317, 8.22521 4.62352, 8.05517 4.67791, 7.96701 4.70882, 7.89831 4.77008, 7.84793 4.86168, 7.79754 4.95328, 7.77235 5.05118, 7.77235 5.15423 L 7.77235 15.4777 C 7.77235 15.5882, 7.7964 15.6878, 7.84335 15.776, 7.89029 15.8647, 7.96128 15.9243, 8.05517 15.9541, 8.23151 16.0096, 8.48627 16.0417, 8.81948 16.0508, 9.15268 16.06, 9.49904 16.0646, 9.85744 16.064 L 9.85744 16.8243 Z" stroke="none" fill="#E60000" />
			<rect />
		</svg>
	</g>
	<g transform="matrix(1 0 -0 1 89.0134 254.939)">
		<svg width="44.9376793" height="45.0428467">
			<defs />
			<path d="M 6.0811 16.8243 C 5.04371 16.7876, 4.0275 16.7693, 3.03363 16.7693, 2.05234 16.7693, 1.03957 16.7876, -0.00468272 16.8243 L -0.00468272 16.064 C 0.354281 16.0646, 0.701794 16.06, 1.03843 16.0508, 1.37507 16.0417, 1.63098 16.0096, 1.80674 15.9541, 1.8949 15.9243, 1.96303 15.8647, 2.00998 15.776, 2.05692 15.6878, 2.0804 15.5882, 2.0804 15.4777 L 2.0804 5.15423 C 2.0804 5.04488, 2.05692 4.94584, 2.00998 4.8571, 1.96303 4.76893, 1.8949 4.70882, 1.80674 4.67791, 1.63098 4.62352, 1.37507 4.59317, 1.03843 4.58688, 0.701794 4.58115, 0.354281 4.57772, -0.00468272 4.57714 L -0.00468272 3.82601 C 1.03957 3.8512, 2.05234 3.86322, 3.03363 3.86265, 4.0275 3.86322, 5.04371 3.8512, 6.0811 3.82601 L 6.0811 4.57714 C 5.7227 4.57772, 5.37519 4.58115, 5.03856 4.58688, 4.70192 4.59317, 4.44887 4.62352, 4.27883 4.67791, 4.19067 4.70882, 4.12197 4.77008, 4.07159 4.86168, 4.02121 4.95328, 3.99602 5.05118, 3.99602 5.15423 L 3.99602 15.4777 C 3.99602 15.5882, 4.02006 15.6878, 4.06701 15.776, 4.11395 15.8647, 4.18494 15.9243, 4.27883 15.9541, 4.45517 16.0096, 4.70993 16.0417, 5.04314 16.0508, 5.37634 16.06, 5.7227 16.0646, 6.0811 16.064 L 6.0811 16.8243 Z" stroke="none" fill="#E60000" />
			<path d="M 9.8534 16.8243 C 8.81602 16.7876, 7.79981 16.7693, 6.80594 16.7693, 5.82465 16.7693, 4.81188 16.7876, 3.76763 16.8243 L 3.76763 16.064 C 4.12659 16.0646, 4.4741 16.06, 4.81074 16.0508, 5.14738 16.0417, 5.40329 16.0096, 5.57905 15.9541, 5.66721 15.9243, 5.73534 15.8647, 5.78229 15.776, 5.82923 15.6878, 5.85271 15.5882, 5.85271 15.4777 L 5.85271 5.15423 C 5.85271 5.04488, 5.82923 4.94584, 5.78229 4.8571, 5.73534 4.76893, 5.66721 4.70882, 5.57905 4.67791, 5.40329 4.62352, 5.14738 4.59317, 4.81074 4.58688, 4.4741 4.58115, 4.12659 4.57772, 3.76763 4.57714 L 3.76763 3.82601 C 4.81188 3.8512, 5.82465 3.86322, 6.80594 3.86265, 7.79981 3.86322, 8.81602 3.8512, 9.8534 3.82601 L 9.8534 4.57714 C 9.49501 4.57772, 9.1475 4.58115, 8.81087 4.58688, 8.47423 4.59317, 8.22118 4.62352, 8.05114 4.67791, 7.96298 4.70882, 7.89428 4.77008, 7.8439 4.86168, 7.79352 4.95328, 7.76832 5.05118, 7.76832 5.15423 L 7.76832 15.4777 C 7.76832 15.5882, 7.79237 15.6878, 7.83932 15.776, 7.88626 15.8647, 7.95725 15.9243, 8.05114 15.9541, 8.22748 16.0096, 8.48224 16.0417, 8.81544 16.0508, 9.14865 16.06, 9.49501 16.0646, 9.8534 16.064 L 9.8534 16.8243 Z" stroke="none" fill="#E60000" />
			<path d="M 13.6298 16.8243 C 12.5924 16.7876, 11.5762 16.7693, 10.5824 16.7693, 9.60107 16.7693, 8.5883 16.7876, 7.54405 16.8243 L 7.54405 16.064 C 7.90301 16.0646, 8.25052 16.06, 8.58716 16.0508, 8.92379 16.0417, 9.17971 16.0096, 9.35547 15.9541, 9.44363 15.9243, 9.51176 15.8647, 9.55871 15.776, 9.60565 15.6878, 9.62913 15.5882, 9.62913 15.4777 L 9.62913 5.15423 C 9.62913 5.04488, 9.60565 4.94584, 9.55871 4.8571, 9.51176 4.76893, 9.44363 4.70882, 9.35547 4.67791, 9.17971 4.62352, 8.92379 4.59317, 8.58716 4.58688, 8.25052 4.58115, 7.90301 4.57772, 7.54405 4.57714 L 7.54405 3.82601 C 8.5883 3.8512, 9.60107 3.86322, 10.5824 3.86265, 11.5762 3.86322, 12.5924 3.8512, 13.6298 3.82601 L 13.6298 4.57714 C 13.2714 4.57772, 12.9239 4.58115, 12.5873 4.58688, 12.2506 4.59317, 11.9976 4.62352, 11.8276 4.67791, 11.7394 4.70882, 11.6707 4.77008, 11.6203 4.86168, 11.5699 4.95328, 11.5447 5.05118, 11.5447 5.15423 L 11.5447 15.4777 C 11.5447 15.5882, 11.5688 15.6878, 11.6157 15.776, 11.6627 15.8647, 11.7337 15.9243, 11.8276 15.9541, 12.0039 16.0096, 12.2587 16.0417, 12.5919 16.0508, 12.9251 16.06, 13.2714 16.0646, 13.6298 16.064 L 13.6298 16.8243 Z" stroke="none" fill="#E60000" />
			<rect />
		</svg>
	</g>
	<g transform="matrix(1 0 -0 1 87.1301 98.5752)">
		<svg width="57.0301361" height="47.9999886">
			<defs />
			<path d="M 6.0811 16.8243 C 5.04371 16.7876, 4.0275 16.7693, 3.03363 16.7693, 2.05234 16.7693, 1.03957 16.7876, -0.00468272 16.8243 L -0.00468272 16.064 C 0.354281 16.0646, 0.701794 16.06, 1.03843 16.0508, 1.37507 16.0417, 1.63098 16.0096, 1.80674 15.9541, 1.8949 15.9243, 1.96303 15.8647, 2.00998 15.776, 2.05692 15.6878, 2.0804 15.5882, 2.0804 15.4777 L 2.0804 5.15423 C 2.0804 5.04488, 2.05692 4.94584, 2.00998 4.8571, 1.96303 4.76893, 1.8949 4.70882, 1.80674 4.67791, 1.63098 4.62352, 1.37507 4.59317, 1.03843 4.58688, 0.701794 4.58115, 0.354281 4.57772, -0.00468272 4.57714 L -0.00468272 3.82601 C 1.03957 3.8512, 2.05234 3.86322, 3.03363 3.86265, 4.0275 3.86322, 5.04371 3.8512, 6.0811 3.82601 L 6.0811 4.57714 C 5.7227 4.57772, 5.37519 4.58115, 5.03856 4.58688, 4.70192 4.59317, 4.44887 4.62352, 4.27883 4.67791, 4.19067 4.70882, 4.12197 4.77008, 4.07159 4.86168, 4.02121 4.95328, 3.99602 5.05118, 3.99602 5.15423 L 3.99602 15.4777 C 3.99602 15.5882, 4.02006 15.6878, 4.06701 15.776, 4.11395 15.8647, 4.18494 15.9243, 4.27883 15.9541, 4.45517 16.0096, 4.70993 16.0417, 5.04314 16.0508, 5.37634 16.06, 5.7227 16.0646, 6.0811 16.064 L 6.0811 16.8243 Z" stroke="none" fill="#E60000" />
			<path d="M 17.5279 4.57714 C 17.2388 4.57772, 16.984 4.59947, 16.7636 4.64184, 16.5438 4.68478, 16.3394 4.75806, 16.1505 4.86111, 15.8362 5.05118, 15.5968 5.33801, 15.4331 5.72216 L 11.0649 16.98 C 10.9836 17.1575, 10.845 17.2428, 10.6498 17.2365 L 10.4986 17.2365 C 10.304 17.2365, 10.166 17.1512, 10.0836 16.98 L 5.50808 5.19087 C 5.4577 5.07523, 5.40102 4.9716, 5.33804 4.88, 5.27507 4.7884, 5.18404 4.72142, 5.06438 4.67791, 4.92011 4.62352, 4.71687 4.59317, 4.45581 4.58688, 4.19474 4.58115, 3.9165 4.57772, 3.62109 4.57714 L 3.62109 3.81685 C 4.43233 3.86036, 5.20923 3.88154, 5.9512 3.88097, 6.06456 3.88154, 6.18765 3.87525, 6.31933 3.86265, 7.18153 3.86322, 8.0838 3.8512, 9.0273 3.82601 L 9.0273 4.57714 C 8.74448 4.57772, 8.49257 4.58401, 8.27216 4.59604, 8.05231 4.60863, 7.85422 4.65386, 7.67789 4.73287, 7.59659 4.77638, 7.53362 4.8342, 7.48896 4.90691, 7.45805 4.95615, 7.44202 5.00195, 7.44202 5.04431, 7.44202 5.0695, 7.44545 5.09698, 7.45118 5.12675 L 11.1502 14.5984, 14.6408 5.64888 C 14.6728 5.57617, 14.6883 5.49373, 14.6883 5.40156, 14.6883 5.22522, 14.6035 5.06034, 14.4335 4.90691, 14.2892 4.77924, 14.1272 4.69222, 13.9474 4.64642, 13.7682 4.60062, 13.5404 4.57772, 13.2633 4.57714 L 13.2633 3.82601 C 14.0247 3.8512, 14.7415 3.86322, 15.4148 3.86265, 15.503 3.87525, 15.5968 3.88154, 15.6976 3.88097, 16.2764 3.88154, 16.8867 3.86036, 17.5279 3.81685 L 17.5279 4.57714 Z" stroke="none" fill="#E60000" />
			<rect />
		</svg>
	</g>
	<path d="M -215.285 0 L 215.284 0" fill="none" stroke="#000000" stroke-width="2.13333344" stroke-linecap="round" stroke-linejoin="round" marker-end="url(#CustomMarker-01)" transform="matrix(0.625 0 0 0.625 166.565 187.91)" />
	<path d="M 0 242.547 L 0 -242.546" fill="none" stroke="#000000" stroke-width="2.13333344" stroke-linecap="round" stroke-linejoin="round" marker-end="url(#CustomMarker-02)" transform="matrix(0.625 0 0 0.625 166.565 187.63)" />
	<g transform="matrix(1 0 -0 1 143.577 37.9462)">
		<svg width="32.9738617" height="32.9571342">
			<defs />
			<path d="M 9.12638 9.8992 C 9.05768 10.1746, 8.91741 10.3807, 8.70673 10.5181, 8.49605 10.6555, 8.28422 10.7242, 8.0701 10.7236, 7.85026 10.7242, 7.66762 10.6538, 7.52278 10.5129, 7.41629 10.4099, 7.35961 10.2753, 7.35274 10.1099, 7.35274 10.0435, 7.36534 9.95759, 7.39053 9.8534, 7.4598 9.6221, 7.56686 9.44634, 7.71114 9.32726, 7.85598 9.20818, 7.95674 9.13948, 8.01342 9.12058, 7.89434 9.02955, 7.64873 8.98375, 7.27717 8.98318, 6.95027 8.98375, 6.65772 9.15322, 6.40009 9.49214, 6.14246 9.83107, 5.9501 10.2387, 5.82414 10.7144 L 4.95622 14.0671 C 4.86805 14.4037, 4.80221 14.7243, 4.75813 15.0289, 4.73294 15.1331, 4.72034 15.2247, 4.72034 15.3037, 4.72034 15.4938, 4.75183 15.6735, 4.81481 15.8441, 4.87778 16.0279, 4.97225 16.1745, 5.0982 16.2844, 5.22415 16.3943, 5.38446 16.4493, 5.57911 16.4487, 5.83101 16.4493, 6.07318 16.384, 6.30562 16.2523, 6.53864 16.1212, 6.75275 15.9443, 6.94741 15.721, 7.14206 15.4983, 7.31496 15.239, 7.4661 14.9424, 7.61724 14.6464, 7.73633 14.3424, 7.82449 14.0304, 7.86228 13.8724, 7.96934 13.7928, 8.1451 13.7923 L 8.36208 13.7923 C 8.52582 13.7928, 8.60769 13.8541, 8.60769 13.9755, 8.60769 14.0127, 8.59853 14.0465, 8.57963 14.0762, 8.49147 14.4432, 8.34834 14.805, 8.15025 15.1623, 7.95216 15.5195, 7.72144 15.8356, 7.45694 16.1104, 7.19244 16.3852, 6.89245 16.6113, 6.55581 16.7876, 6.21917 16.9651, 5.85907 17.0533, 5.47548 17.0533, 5.08561 17.0533, 4.74897 16.9697, 4.46615 16.8014, 4.18333 16.6342, 3.95318 16.4155, 3.77685 16.1464, 3.72074 16.08, 3.67666 16.0113, 3.64517 15.9409, 3.61368 15.871, 3.60395 15.8602, 3.61655 15.9083, 3.46598 16.159, 3.22724 16.4126, 2.89976 16.6691, 2.57286 16.9256, 2.19558 17.0533, 1.76734 17.0533, 1.5286 17.0533, 1.29273 17.0229, 1.05972 16.9617, 0.827278 16.901, 0.624037 16.8065, 0.451139 16.6783, 0.278241 16.55, 0.147709 16.3943, 0.0595425 16.2105, 0.0160317 16.1012, -0.00572362 15.9821, -0.00629613 15.8533, -0.00572362 15.7623, 0.00687159 15.6552, 0.0314895 15.5327, 0.100763 15.2585, 0.242173 15.0524, 0.456292 14.915, 0.67041 14.7776, 0.883956 14.7089, 1.0975 14.7083, 1.31792 14.7089, 1.50685 14.7793, 1.66371 14.919, 1.77077 15.0232, 1.82402 15.1577, 1.82402 15.322, 1.82402 15.4079, 1.81142 15.4938, 1.78623 15.5785, 1.73013 15.7926, 1.62765 15.9655, 1.47994 16.0966, 1.33223 16.2283, 1.22632 16.2999, 1.16334 16.3113, 1.283 16.4098, 1.52517 16.4556, 1.88986 16.4487, 2.21733 16.4493, 2.51275 16.2787, 2.77667 15.9363, 3.04117 15.5945, 3.23296 15.1852, 3.35262 14.7083 L 4.2297 11.3373 C 4.31787 11.0202, 4.38714 10.7087, 4.43752 10.403, 4.45012 10.3057, 4.45642 10.2141, 4.45642 10.1282, 4.45642 9.93927, 4.42836 9.76237, 4.37111 9.59691, 4.30871 9.41428, 4.21138 9.26657, 4.07913 9.15322, 3.94688 9.04043, 3.78315 8.98375, 3.58849 8.98318, 3.33659 8.98375, 3.0927 9.04959, 2.85682 9.1807, 2.62095 9.31237, 2.40569 9.48756, 2.21103 9.70741, 2.01638 9.92725, 1.84348 10.1826, 1.69234 10.4723, 1.5412 10.7625, 1.43128 11.0694, 1.36143 11.3923, 1.29273 11.5578, 1.17651 11.6431, 1.01277 11.6488 L 0.80495 11.6488 C 0.65438 11.6494, 0.578809 11.5732, 0.578809 11.4198 L 0.578809 11.3557 C 0.673273 10.9778, 0.818118 10.6097, 1.01277 10.2524, 1.20742 9.89519, 1.44044 9.57916, 1.71066 9.30436, 1.98146 9.02955, 2.28374 8.80513, 2.61694 8.63109, 2.95014 8.45704, 3.31197 8.37002, 3.70128 8.36945, 4.07913 8.37002, 4.41233 8.45246, 4.70145 8.61735, 4.99114 8.78223, 5.22702 9.00207, 5.40907 9.27631, 5.44686 9.34386, 5.48178 9.416, 5.51327 9.49214, 5.54476 9.56886, 5.55392 9.58832, 5.54132 9.55111, 5.69876 9.28318, 5.94094 9.01925, 6.26784 8.75933, 6.59531 8.49998, 6.96916 8.37002, 7.39053 8.36945, 7.62984 8.37002, 7.86686 8.39922, 8.10273 8.45704, 8.3386 8.51544, 8.54356 8.60819, 8.71646 8.73643, 8.88936 8.86467, 9.01703 9.02326, 9.09833 9.21218, 9.14241 9.32268, 9.16416 9.44806, 9.16416 9.58775, 9.16416 9.67992, 9.15157 9.78355, 9.12638 9.8992 Z" stroke="none" fill="#E60000" />
			<rect />
		</svg>
	</g>
	<g transform="matrix(1 0 -0 1 289.452 151.532)">
		<svg width="30.0150681" height="41.9571342">
			<defs />
			<path d="M 6.58759 16.7693 C 6.45591 17.2823, 6.24809 17.7724, 5.96527 18.2395, 5.68245 18.7067, 5.34868 19.1223, 4.9651 19.4853, 4.58151 19.8488, 4.15099 20.1437, 3.67294 20.3693, 3.19489 20.5954, 2.69796 20.7082, 2.18155 20.7082, 1.87354 20.7082, 1.59072 20.6521, 1.33252 20.5387, 1.07489 20.4259, 0.864208 20.2731, 0.70047 20.0807, 0.536732 19.8883, 0.42681 19.6611, 0.370132 19.3983, 0.344941 19.2826, 0.332346 19.1635, 0.332346 19.041, 0.332346 18.8824, 0.351239 18.7204, 0.389025 18.5555, 0.458298 18.2807, 0.599708 18.0746, 0.813827 17.9372, 1.02795 17.7998, 1.23863 17.7311, 1.44588 17.7311, 1.66629 17.7311, 1.85179 17.8015, 2.00236 17.9418, 2.10942 18.046, 2.16266 18.18, 2.16266 18.3449, 2.16266 18.4124, 2.15006 18.4949, 2.12487 18.5922, 2.05617 18.867, 1.91476 19.0731, 1.70064 19.2105, 1.48653 19.3479, 1.31706 19.4166, 1.19111 19.4166, 1.2289 19.5815, 1.34683 19.7361, 1.54492 19.8792, 1.74301 20.0229, 1.99606 20.0944, 2.30407 20.0944, 2.64414 20.0944, 2.96188 20.0028, 3.2573 19.8196, 3.55329 19.6364, 3.82408 19.3908, 4.06912 19.0823, 4.31415 18.7742, 4.52942 18.417, 4.71491 18.0105, 4.9004 17.6046, 5.04983 17.1787, 5.16318 16.7327 L 5.21986 16.5128 C 5.12597 16.5987, 4.92788 16.7103, 4.6256 16.8472, 4.32388 16.9846, 3.99355 17.0533, 3.63458 17.0533, 3.20749 17.0533, 2.82505 16.9743, 2.48842 16.8151, 2.15178 16.6571, 1.88614 16.4126, 1.69091 16.0823, 1.50256 15.7285, 1.41153 15.338, 1.41725 14.9098 L 1.41725 14.8365 C 1.42985 14.3911, 1.48653 13.9486, 1.58729 13.5083, 1.68805 13.0875, 1.83461 12.6238, 2.0264 12.1165, 2.21819 11.6099, 2.40197 11.1181, 2.57773 10.6412, 2.76666 10.1351, 2.86112 9.71943, 2.86112 9.39539, 2.86112 9.12116, 2.7449 8.98375, 2.51189 8.98318, 2.29834 8.98375, 2.10484 9.04501, 1.93194 9.16696, 1.75904 9.28947, 1.6016 9.45894, 1.46019 9.67535, 1.31878 9.89233, 1.19111 10.1488, 1.07775 10.4448, 0.964397 10.7414, 0.870505 11.0568, 0.794934 11.3923, 0.72566 11.5578, 0.609441 11.6431, 0.445703 11.6488 L 0.228722 11.6488 C 0.0775793 11.6494, 0.00200802 11.5732, 0.00200802 11.4198 L 0.00200802 11.3557 C 0.0901745 11.0202, 0.206967 10.6772, 0.351239 10.3257, 0.496084 9.97477, 0.678715 9.65588, 0.898558 9.36848, 1.11897 9.08165, 1.37088 8.84349, 1.6537 8.65399, 1.93652 8.46506, 2.26056 8.37002, 2.62525 8.36945, 2.94013 8.37002, 3.20863 8.43758, 3.43191 8.57155, 3.65519 8.70609, 3.82523 8.88471, 3.94145 9.10742, 4.05824 9.33069, 4.12236 9.58203, 4.13496 9.86256 L 4.13496 9.92668 C 4.13496 10.19, 4.08171 10.4614, 3.97408 10.7419, 3.79202 11.2188, 3.61168 11.706, 3.43191 12.2035, 3.25272 12.7016, 3.11303 13.1488, 3.01226 13.5455, 2.9115 13.9428, 2.84223 14.3361, 2.80444 14.7266, 2.77925 14.8308, 2.76379 14.9442, 2.7575 15.0655, 2.7575 15.3043, 2.79872 15.5396, 2.88001 15.7709, 2.93669 15.9792, 3.04032 16.1441, 3.19146 16.2661, 3.3426 16.3886, 3.5218 16.4493, 3.72905 16.4487, 4.13209 16.4493, 4.48419 16.3302, 4.7859 16.092, 5.08818 15.8539, 5.35211 15.5424, 5.57825 15.1571 L 7.09712 9.24883 C 7.15437 9.02326, 7.26887 8.85723, 7.44177 8.75017, 7.61467 8.64368, 7.78929 8.58987, 7.96505 8.58929, 8.14768 8.58987, 8.29882 8.64483, 8.41847 8.75418, 8.50034 8.83433, 8.54099 8.94081, 8.54099 9.07478, 8.54099 9.14234, 8.53469 9.21276, 8.5221 9.28547 Z" stroke="none" fill="#E60000" />
			<rect />
		</svg>
	</g>
	<g transform="matrix(1 0 -0 1 157.158 8.99998)">
		<svg width="59.9889336" height="56.9999886">
			<defs />
			<path d="M 5.92867 7.93936 L 5.92867 3.15556, 7.53265 3.15556, 7.53265 20.0771, 5.92867 20.0771, 5.92867 16.569 C 5.81377 16.6206, 5.70355 16.6674, 5.60037 16.7108, 5.49719 16.7554, 5.40105 16.7953, 5.31077 16.8316, 4.13827 17.3581, 2.76058 17.9584, 1.17536 18.6326 L 0.576212 17.1318 C 1.64553 16.7073, 3.43008 15.9323, 5.92867 14.8055 L 5.92867 9.49644, 1.07921 9.49644, 1.07921 7.93936 Z M 18.0441 14.5241 C 18.0441 15.0506, 18.0054 15.8139, 17.928 16.8128 L 17.9093 17.2443 C 17.8706 17.8458, 17.7709 18.3078, 17.6091 18.6326, 17.4485 18.9585, 17.1976 19.1954, 16.8564 19.3454, 16.5152 19.4955, 16.0286 19.5964, 15.3966 19.6456, 15.1398 19.6714, 14.7412 19.6831, 14.1995 19.6831, 13.6719 19.6831, 13.272 19.6714, 13.0012 19.6456, 12.3704 19.5964, 11.8897 19.4932, 11.5614 19.3361, 11.2331 19.1801, 10.995 18.9233, 10.8473 18.5669, 10.6996 18.2116, 10.6245 17.7016, 10.6245 17.038 L 10.6245 3.15556, 12.2473 3.15556, 12.2473 9.3276 C 14.1022 8.24069, 15.6745 7.20889, 16.9619 6.2322 L 17.9093 7.62044 C 17.2656 8.07185, 16.3862 8.64169, 15.2723 9.32877, 14.1585 10.017, 13.1501 10.6232, 12.2473 11.1473 L 12.2473 16.8504 C 12.2473 17.3264, 12.3153 17.6524, 12.4501 17.8271, 12.5861 18.0029, 12.8535 18.1085, 13.2521 18.1448, 13.639 18.1706, 13.9298 18.1835, 14.1221 18.1823, 14.3027 18.1835, 14.5852 18.1706, 14.9722 18.1448, 15.4623 18.0956, 15.7964 17.9806, 15.977 17.7989, 16.1576 17.6183, 16.2607 17.2959, 16.2854 16.8316, 16.3112 16.4576, 16.3346 16.005, 16.3534 15.4727, 16.3733 14.9415, 16.3827 14.4936, 16.3827 14.1302 Z" stroke="none" fill="#000000" />
			<rect />
		</svg>
	</g>
	<g transform="matrix(1 0 -0 1 305.238 175.85)">
		<svg width="59.9889336" height="59.9571304">
			<defs />
			<path d="M 16.7884 12.7794 L 10.6632 12.7794, 10.6632 17.7321 C 10.6632 18.5833, 10.4838 19.1801, 10.1227 19.5237, 9.76158 19.8684, 9.16946 20.0396, 8.34402 20.0396, 7.64873 20.0396, 6.94054 20.002, 6.21828 19.927 L 5.94861 18.4637 C 6.67087 18.5646, 7.35912 18.6138, 8.01572 18.6138, 8.40265 18.6138, 8.67584 18.5294, 8.83647 18.3605, 8.99828 18.1929, 9.07801 17.8892, 9.07801 17.4507 L 9.07801 12.7794, 2.41235 12.7794, 2.41235 11.3537 C 3.1604 10.2797, 4.04212 8.82812, 5.05985 7.00136 L 1.05928 7.00136, 1.05928 5.55684, 5.83253 5.55684 C 6.40002 4.46993, 6.8315 3.57532, 7.12697 2.87416 L 8.63363 3.45572 C 8.38975 4.03259, 8.05442 4.73257, 7.6288 5.55684 L 17.581 5.55684, 17.581 7.00136, 6.85612 7.00136 C 5.8126 8.90316, 4.94964 10.3606, 4.26724 11.3724 L 9.07801 11.3724, 9.07801 7.93936, 10.6632 7.93936, 10.6632 11.3724, 16.7884 11.3724 Z M 6.3156 14.7868 C 5.71059 15.5888, 4.96605 16.4458, 4.08433 17.3581, 3.20261 18.2703, 2.36193 19.0582, 1.56228 19.7206 L 0.480067 18.4262 C 1.23985 17.84, 2.03949 17.1177, 2.87666 16.2606, 3.71382 15.4047, 4.43491 14.5687, 5.03992 13.755 Z M 13.2134 13.7925 C 13.8583 14.3318, 14.6826 15.0635, 15.6874 15.9886, 16.6922 16.9148, 17.5106 17.7016, 18.1414 18.3512 L 16.9431 19.5706 C 16.3252 18.8835, 15.5326 18.0709, 14.5665 17.1329, 13.6003 16.1949, 12.789 15.4504, 12.1312 14.8993 Z" stroke="none" fill="#000000" />
			<rect />
		</svg>
	</g>
	<g transform="matrix(1 0 -0 1 9.00004 175.85)">
		<svg width="57.0301361" height="54.0428391">
			<defs />
			<path d="M 17.8893 3.99976 L 17.8893 5.40676, 12.2086 5.40676, 12.2086 8.12696, 16.8271 8.12696, 16.8271 20.1146, 15.3579 20.1146, 15.3579 18.8202, 3.37849 18.8202, 3.37849 20.0958, 1.89058 20.0958, 1.89058 8.12696, 6.33436 8.12696, 6.33436 5.40676, 0.904512 5.40676, 0.904512 3.99976 Z M 7.82226 8.12696 L 10.682 8.12696, 10.682 5.40676, 7.82226 5.40676 Z M 3.37849 17.3944 L 15.3579 17.3944, 15.3579 14.7117, 13.1173 14.7117 C 12.2156 14.7129, 11.5848 14.5476, 11.2237 14.2158, 10.8626 13.8851, 10.682 13.293, 10.682 12.4418 L 10.682 9.53396, 7.82226 9.53396 C 7.82226 10.9738, 7.57838 12.1932, 7.08828 13.1933, 6.59934 14.1946, 5.76218 15.0693, 4.57678 15.8186 L 3.55202 14.768 C 4.28717 14.2943, 4.85466 13.803, 5.25331 13.2965, 5.65196 12.79, 5.92867 12.2401, 6.08344 11.6456, 6.23821 11.0523, 6.32263 10.3477, 6.33436 9.53396 L 3.37849 9.53396 Z M 15.3579 9.53396 L 12.2086 9.53396, 12.2086 11.9728 C 12.2086 12.5121, 12.3059 12.865, 12.4994 13.0339, 12.6928 13.2027, 13.0786 13.2871, 13.6578 13.286 L 15.3579 13.286 Z" stroke="none" fill="#000000" />
			<rect />
		</svg>
	</g>
	<g transform="matrix(1 0 -0 1 157.158 343.259)">
		<svg width="57.0301361" height="56.9999886">
			<defs />
			<path d="M 17.928 6.45732 L 10.1028 6.45732, 10.1028 8.18324, 16.711 8.18324, 16.711 17.7884 C 16.711 18.377, 16.65 18.8331, 16.5281 19.1578, 16.4061 19.4838, 16.1998 19.7148, 15.909 19.852, 15.6194 19.9903, 15.2102 20.0583, 14.6826 20.0583, 13.768 20.0583, 12.9824 20.0278, 12.3247 19.9645 L 12.0538 18.5575 C 12.8664 18.6455, 13.5558 18.6888, 14.1221 18.6888, 14.5735 18.6888, 14.8666 18.6044, 15.0015 18.4356, 15.1375 18.2667, 15.2043 17.9396, 15.2043 17.4507 L 15.2043 9.53396, 3.37849 9.53396, 3.37849 20.0396, 1.87065 20.0396, 1.87065 8.18324, 8.53749 8.18324, 8.53749 6.45732, 0.673529 6.45732, 0.673529 5.05032, 8.53749 5.05032, 8.53749 3.06176, 10.1028 3.06176, 10.1028 5.05032, 17.928 5.05032 Z M 14.373 16.3626 L 10.0254 16.3626, 10.0254 19.6456, 8.55625 19.6456, 8.55625 16.3626, 4.32469 16.3626, 4.32469 15.1807, 8.55625 15.1807, 8.55625 13.5111, 4.73038 13.5111, 4.73038 12.3292, 7.03082 12.3292 C 6.36133 11.4545, 5.90405 10.8988, 5.65783 10.6596 L 6.72128 9.87164 C 6.99213 10.1601, 7.31691 10.5294, 7.6968 10.9797, 8.07669 11.4299, 8.35106 11.7676, 8.51873 11.9915 L 8.05442 12.3292, 9.85186 12.3292 C 10.6245 11.4053, 11.2495 10.5798, 11.7255 9.85288 L 12.9238 10.547 C 12.5381 11.0981, 12.0808 11.6925, 11.552 12.3292 L 13.9474 12.3292, 13.9474 13.5111, 10.0254 13.5111, 10.0254 15.1807, 14.373 15.1807 Z" stroke="none" fill="#000000" />
			<rect />
		</svg>
	</g>
	<path d="M 0.0171291 -48.5842 C 26.8493 -48.5747, 48.5935 -26.8152, 48.584 0.0171262, 48.5791 13.9672, 42.6013 26.9958, 32.5554 36.0655 L 21.1727 43.728" fill="none" stroke="#E60000" stroke-width="2.13333344" stroke-linecap="round" stroke-linejoin="round" marker-end="url(#CustomMarker-03)" transform="matrix(0.625 0 -0 0.625 166.525 187.91)" />
	<path d="M 0 0 L 0.0629439 -178.066" fill="none" stroke="#000000" stroke-width="2.13333344" stroke-linecap="round" stroke-linejoin="round" transform="matrix(0.625 0 -0 0.625 166.525 187.91)" />
	<path d="M 0 0 L 97.1681 200.682" fill="none" stroke="#000000" stroke-width="2.13333344" stroke-linecap="round" stroke-linejoin="round" transform="matrix(0.625 0 -0 0.625 166.525 187.91)" />
	<g transform="matrix(1 0 -0 1 177.384 122.48)">
		<svg width="405.009979" height="59.9571304">
			<defs />
			<path d="M 16.5334 7.93936 L 16.5334 17.8634 C 16.5334 18.6513, 16.3951 19.2024, 16.1184 19.5143, 15.8416 19.8273, 15.3222 19.9903, 14.5625 20.002, 13.9574 20.0149, 13.2293 19.9903, 12.3793 19.927 L 12.0885 18.445 C 12.772 18.5329, 13.3583 18.5763, 13.8472 18.5763, 14.3244 18.5763, 14.6375 18.5083, 14.7852 18.3699, 14.933 18.2339, 15.0068 17.9338, 15.0068 17.4694 L 15.0068 16.2313, 10.4083 16.2313, 10.4083 19.9082, 8.86176 19.9082, 8.86176 16.2313, 4.10844 16.2313 C 3.97947 16.9829, 3.77428 17.677, 3.49053 18.3136, 3.20679 18.9515, 2.8011 19.6456, 2.27348 20.396 L 0.881722 19.5518 C 1.42342 18.8272, 1.82558 18.1741, 2.0894 17.5926, 2.35438 17.011, 2.53143 16.3802, 2.62171 15.6978, 2.71199 15.0166, 2.75655 14.0997, 2.75655 12.9483 L 2.75655 9.30884 C 2.29224 9.68521, 1.94518 9.96075, 1.71302 10.1343 L 0.726952 8.89612 C 1.80917 8.05896, 2.8398 7.10571, 3.81883 6.03639, 4.79787 4.96707, 5.61628 3.89424, 6.27288 2.81788 L 7.79947 3.38068 C 7.6447 3.65739, 7.38792 4.07011, 7.02679 4.61884 L 14.3491 4.61884, 14.3491 5.857 C 14.1697 6.03288, 13.526 6.727, 12.4168 7.93936 Z M 6.04072 5.96956 C 5.34543 6.80907, 4.75332 7.46567, 4.26321 7.93936 L 10.3696 7.93936 C 11.4647 6.77741, 12.0697 6.12081, 12.1858 5.96956 Z M 4.28197 11.3912 L 8.86176 11.3912, 8.86176 9.36512, 4.28197 9.36512 Z M 10.4083 11.3912 L 15.0068 11.3912, 15.0068 9.36512, 10.4083 9.36512 Z M 8.86176 14.8055 L 8.86176 12.7982, 4.28197 12.7982, 4.28197 13.361 C 4.28197 13.7245, 4.26907 14.2064, 4.24328 14.8055 Z M 10.4083 12.7982 L 10.4083 14.8055, 15.0068 14.8055, 15.0068 12.7982 Z" stroke="none" fill="#E60000" />
			<path d="M 23.0252 9.44016 L 23.0252 10.8847 C 23.0252 12.3738, 22.9548 13.6412, 22.813 14.6848, 22.6723 15.7295, 22.4495 16.6768, 22.147 17.5269, 21.8445 18.377, 21.4224 19.2704, 20.8807 20.2084 L 19.4901 19.458 C 20.0435 18.4954, 20.4598 17.6113, 20.7365 16.8046, 21.0132 15.998, 21.2102 15.1104, 21.3251 14.1407, 21.4411 13.1722, 21.4986 11.9423, 21.4986 10.4532 L 21.4986 4.78768, 28.7646 4.78768 C 28.4691 4.13812, 28.2369 3.66912, 28.0693 3.38068 L 29.6346 3.02424 C 29.828 3.37599, 30.1118 3.96341, 30.4846 4.78768 L 37.0928 4.78768, 37.0928 6.11964, 33.8661 6.11964, 33.8661 8.14572, 36.9955 8.14572, 36.9955 9.44016, 33.8661 9.44016, 33.8661 12.2166, 26.0596 12.2166, 26.0596 9.44016 Z M 26.0596 8.14572 L 26.0596 6.11964, 23.0252 6.11964, 23.0252 8.14572 Z M 27.5475 8.14572 L 32.3583 8.14572, 32.3583 6.11964, 27.5475 6.11964 Z M 27.5475 10.941 L 32.3583 10.941, 32.3583 9.44016, 27.5475 9.44016 Z M 36.822 20.1896 C 35.2766 19.9528, 33.9435 19.6925, 32.8226 19.4111, 31.7017 19.1297, 30.6969 18.7826, 29.8081 18.3699, 28.0564 19.0957, 25.7641 19.7464, 22.929 20.321 L 22.3111 18.9702 C 24.6561 18.595, 26.6388 18.1214, 28.2616 17.5445, 27.1289 16.8328, 26.0596 15.876, 25.0548 14.6742 L 23.9139 14.6742, 23.9139 13.436, 35.1606 13.436, 35.1606 14.693 C 34.1428 15.8573, 32.8812 16.8386, 31.3734 17.6383, 32.8038 18.1272, 34.7748 18.5141, 37.2863 18.8014 Z M 26.7549 14.6742 C 27.6061 15.6134, 28.5981 16.3767, 29.7307 16.9629, 31.058 16.3638, 32.1977 15.6005, 33.1509 14.6742 Z" stroke="none" fill="#E60000" />
			<path d="M 46.6577 19.8707 L 45.402 19.8707, 45.402 3.54952, 46.6577 3.54952 Z M 40.0882 3.56828 L 41.3827 3.56828, 41.3827 9.55272 C 41.3827 11.6796, 41.3475 13.3469, 41.276 14.5534, 41.2056 15.7611, 41.093 16.7554, 40.9383 17.5363, 40.7835 18.3172, 40.5455 19.1649, 40.223 20.0771 L 38.8899 19.6456 C 39.2253 18.7334, 39.4726 17.8962, 39.6333 17.1329, 39.7951 16.3708, 39.9112 15.4258, 39.9815 14.3002, 40.053 13.1746, 40.0882 11.6234, 40.0882 9.64652 Z M 50.541 7.43284 C 50.7732 6.62147, 50.9479 5.93321, 51.0628 5.36924 L 47.4105 5.36924, 47.4105 4.11232, 56.4739 4.11232, 56.4739 5.36924, 52.532 5.36924 C 52.403 5.98363, 52.2295 6.67072, 52.0102 7.43284 L 55.4491 7.43284, 55.4491 16.1187, 54.0773 16.1187, 54.0773 8.72728, 49.4588 8.72728, 49.4588 16.1375, 48.1257 16.1375, 48.1257 7.43284 Z M 44.0102 19.0078 L 42.7732 19.0078, 42.7732 4.29992, 44.0102 4.29992 Z M 52.2799 15.1995 C 53.8006 16.5268, 55.231 17.8024, 56.57 19.0265 L 55.5465 20.1709 C 54.6319 19.2458, 53.3949 18.0768, 51.8355 16.6628, 51.5271 17.3147, 51.0605 17.9244, 50.4355 18.4919, 49.8106 19.0617, 48.9511 19.6644, 47.856 20.3022 L 47.0435 19.1016 C 48.2043 18.4766, 49.0672 17.8962, 49.6335 17.3581, 50.201 16.821, 50.5844 16.2301, 50.7838 15.5852, 50.9831 14.9415, 51.0827 14.0938, 51.0827 13.0421 L 51.0827 9.74032, 52.4159 9.74032, 52.4159 13.3798 C 52.4159 14.0809, 52.3713 14.6883, 52.2799 15.1995 Z" stroke="none" fill="#E60000" />
			<path d="M 75.7764 6.77624 L 75.7764 8.22076, 73.4197 8.22076, 73.4197 17.4694 C 73.4197 18.1085, 73.3458 18.595, 73.1981 18.9327, 73.0503 19.2704, 72.8111 19.5119, 72.4828 19.655, 72.1545 19.7992, 71.6867 19.8836, 71.0817 19.9082, 70.9011 19.9211, 70.6373 19.927, 70.2891 19.927, 69.5938 19.927, 68.9372 19.8895, 68.3181 19.8144 L 68.0098 18.3324 C 69.0662 18.4332, 69.8963 18.4825, 70.5013 18.4825, 71.043 18.4825, 71.4018 18.4203, 71.5753 18.2949, 71.7489 18.1706, 71.8356 17.915, 71.8356 17.5257 L 71.8356 8.22076, 65.9802 8.22076, 65.9802 6.77624, 71.8356 6.77624, 71.8356 3.1368, 73.4197 3.1368, 73.4197 6.77624 Z M 64.8018 18.6513 L 58.8701 18.6513, 58.8701 4.60008, 64.8018 4.60008 Z M 63.3713 10.5845 L 63.3713 6.11964, 60.3569 6.11964, 60.3569 10.5845 Z M 69.072 14.9744 C 68.7367 14.3506, 68.2865 13.5439, 67.719 12.5555, 67.1527 11.5682, 66.7083 10.8296, 66.3858 10.3406 L 67.6615 9.66528 C 68.0098 10.1671, 68.4741 10.914, 69.0533 11.9083, 69.6325 12.9026, 70.0581 13.6811, 70.3278 14.2427 Z M 60.3569 11.9915 L 60.3569 17.188, 63.3713 17.188, 63.3713 11.9915 Z" stroke="none" fill="#E60000" />
			<path d="M 80.1436 6.795 C 79.5515 7.80921, 78.9078 8.70969, 78.2113 9.49644 L 77.2264 8.31456 C 78.5279 6.77741, 79.5386 4.95183, 80.2597 2.83664 L 81.7288 3.21184 C 81.4709 3.97631, 81.1813 4.70795, 80.8588 5.40676 L 85.2838 5.40676, 85.2838 6.795 Z M 90.7137 9.45892 L 94.9265 9.45892, 94.9265 11.016, 90.7137 11.016, 90.7137 20.2084, 89.1672 20.2084, 89.1672 11.016, 85.2064 11.016, 85.2064 9.45892, 89.1672 9.45892, 89.1672 3.1368, 90.7137 3.1368 Z M 82.0571 17.6758 L 84.9356 16.0249, 85.2264 17.5257 C 83.6552 18.2644, 82.3538 18.9585, 81.3231 19.6081, 81.2715 19.6339, 81.0265 19.7898, 80.588 20.0771 L 79.7965 18.7264 C 80.0545 18.5646, 80.2374 18.411, 80.3464 18.2667, 80.4566 18.1237, 80.5106 17.9267, 80.5106 17.6758 L 80.5106 13.9988, 77.4199 13.9988, 77.4199 12.5731, 80.5106 12.5731, 80.5106 10.2281, 79.0239 10.2281, 79.0239 8.8586, 84.3177 8.8586, 84.3177 10.2281, 82.0571 10.2281, 82.0571 12.5731, 85.0517 12.5731, 85.0517 13.9988, 82.0571 13.9988 Z" stroke="none" fill="#E60000" />
			<path d="M 112.818 7.52664 C 112.833 9.31588, 112.781 11.1274, 112.665 12.9588, 112.549 14.7915, 112.388 16.2512, 112.182 17.3381, 112.053 17.9771, 111.885 18.4708, 111.679 18.8202, 111.472 19.1707, 111.183 19.424, 110.81 19.5799, 110.437 19.7371, 109.928 19.8215, 109.283 19.8332, 108.098 19.8461, 106.951 19.784, 105.843 19.6456 L 105.495 18.1073 C 106.23 18.1964, 106.833 18.2609, 107.303 18.3043, 107.773 18.3488, 108.304 18.3699, 108.896 18.3699, 109.296 18.3582, 109.606 18.3113, 109.824 18.2304, 110.043 18.1495, 110.217 17.9865, 110.346 17.7426, 110.475 17.4988, 110.598 17.12, 110.713 16.6065, 110.855 16.0073, 110.971 14.9732, 111.061 13.5029, 111.151 12.0337, 111.196 10.7416, 111.196 9.62776 L 111.196 8.97116, 104.993 8.97116 C 104.749 10.6736, 104.362 12.1686, 103.834 13.456, 103.306 14.7446, 102.559 15.9393, 101.593 17.0391, 100.627 18.1401, 99.364 19.2212, 97.8046 20.2834 L 96.7423 19.0265 C 98.147 18.1272, 99.2901 17.1869, 100.172 16.2043, 101.055 15.2229, 101.748 14.1536, 102.25 12.9964, 102.753 11.8403, 103.132 10.4978, 103.389 8.97116 L 97.2453 8.97116, 97.2453 7.52664, 103.601 7.52664, 103.601 7.4516 C 103.679 6.77741, 103.741 6.00591, 103.786 5.13591, 103.831 4.26709, 103.848 3.61284, 103.834 3.17432 L 105.438 3.17432 C 105.4 4.87679, 105.316 6.31428, 105.187 7.48912 L 105.187 7.52664 Z M 101.245 7.05764 C 100.949 6.70824, 100.518 6.23689, 99.9503 5.64243, 99.3839 5.04915, 98.9583 4.62588, 98.6746 4.37496 L 99.8143 3.43696 C 100.137 3.70077, 100.568 4.11115, 101.11 4.66691, 101.652 5.22385, 102.083 5.68933, 102.404 6.06336 Z M 108.22 15.237 C 107.976 14.8255, 107.541 14.2158, 106.916 13.4091, 106.291 12.6024, 105.812 12.0302, 105.476 11.6914 L 106.713 10.8096 C 107.049 11.1485, 107.521 11.7089, 108.133 12.4898, 108.745 13.2719, 109.193 13.8746, 109.476 14.299 Z" stroke="none" fill="#E60000" />
			<path d="M 126.156 12.0853 L 126.156 17.9572, 133.324 17.9572, 133.324 19.458, 115.722 19.458, 115.722 17.9572, 118.736 17.9572, 118.736 8.46464, 120.32 8.46464, 120.32 17.9572, 124.552 17.9572, 124.552 5.98832, 116.629 5.98832, 116.629 4.50628, 132.707 4.50628, 132.707 5.98832, 126.156 5.98832, 126.156 10.6408, 132.069 10.6408, 132.069 12.0853 Z" stroke="none" fill="#E60000" />
			<rect />
		</svg>
	</g>
	<g transform="matrix(1 0 -0 1 180.448 37.3737)">
		<svg width="227.996933" height="56.9999886">
			<defs />
			<path d="M 17.924 6.45732 L 10.0987 6.45732, 10.0987 8.18324, 16.707 8.18324, 16.707 17.7884 C 16.707 18.377, 16.646 18.8331, 16.524 19.1578, 16.4021 19.4838, 16.1957 19.7148, 15.905 19.852, 15.6154 19.9903, 15.2062 20.0583, 14.6785 20.0583, 13.764 20.0583, 12.9784 20.0278, 12.3206 19.9645 L 12.0498 18.5575 C 12.8623 18.6455, 13.5518 18.6888, 14.1181 18.6888, 14.5695 18.6888, 14.8626 18.6044, 14.9974 18.4356, 15.1335 18.2667, 15.2003 17.9396, 15.2003 17.4507 L 15.2003 9.53396, 3.37446 9.53396, 3.37446 20.0396, 1.86662 20.0396, 1.86662 8.18324, 8.53346 8.18324, 8.53346 6.45732, 0.669499 6.45732, 0.669499 5.05032, 8.53346 5.05032, 8.53346 3.06176, 10.0987 3.06176, 10.0987 5.05032, 17.924 5.05032 Z M 14.369 16.3626 L 10.0214 16.3626, 10.0214 19.6456, 8.55222 19.6456, 8.55222 16.3626, 4.32066 16.3626, 4.32066 15.1807, 8.55222 15.1807, 8.55222 13.5111, 4.72635 13.5111, 4.72635 12.3292, 7.02679 12.3292 C 6.3573 11.4545, 5.90002 10.8988, 5.6538 10.6596 L 6.71725 9.87164 C 6.9881 10.1601, 7.31288 10.5294, 7.69277 10.9797, 8.07266 11.4299, 8.34703 11.7676, 8.5147 11.9915 L 8.05039 12.3292, 9.84783 12.3292 C 10.6205 11.4053, 11.2454 10.5798, 11.7215 9.85288 L 12.9198 10.547 C 12.534 11.0981, 12.0767 11.6925, 11.548 12.3292 L 13.9434 12.3292, 13.9434 13.5111, 10.0214 13.5111, 10.0214 15.1807, 14.369 15.1807 Z" stroke="none" fill="#E60000" />
			<path d="M 25.1122 7.93936 L 25.1122 3.15556, 26.7162 3.15556, 26.7162 20.0771, 25.1122 20.0771, 25.1122 16.569 C 24.9973 16.6206, 24.8871 16.6674, 24.7839 16.7108, 24.6808 16.7554, 24.5846 16.7953, 24.4943 16.8316, 23.3218 17.3581, 21.9441 17.9584, 20.3589 18.6326 L 19.7598 17.1318 C 20.8291 16.7073, 22.6136 15.9323, 25.1122 14.8055 L 25.1122 9.49644, 20.2628 9.49644, 20.2628 7.93936 Z M 37.2277 14.5241 C 37.2277 15.0506, 37.189 15.8139, 37.1116 16.8128 L 37.0928 17.2443 C 37.0541 17.8458, 36.9545 18.3078, 36.7927 18.6326, 36.632 18.9585, 36.3811 19.1954, 36.0399 19.3454, 35.6987 19.4955, 35.2122 19.5964, 34.5802 19.6456, 34.3234 19.6714, 33.9247 19.6831, 33.383 19.6831, 32.8554 19.6831, 32.4556 19.6714, 32.1848 19.6456, 31.554 19.5964, 31.0732 19.4932, 30.7449 19.3361, 30.4166 19.1801, 30.1786 18.9233, 30.0309 18.5669, 29.8831 18.2116, 29.8081 17.7016, 29.8081 17.038 L 29.8081 3.15556, 31.4308 3.15556, 31.4308 9.3276 C 33.2857 8.24069, 34.8581 7.20889, 36.1455 6.2322 L 37.0928 7.62044 C 36.4491 8.07185, 35.5698 8.64169, 34.4559 9.32877, 33.342 10.017, 32.3337 10.6232, 31.4308 11.1473 L 31.4308 16.8504 C 31.4308 17.3264, 31.4988 17.6524, 31.6337 17.8271, 31.7697 18.0029, 32.037 18.1085, 32.4357 18.1448, 32.8226 18.1706, 33.1134 18.1835, 33.3057 18.1823, 33.4862 18.1835, 33.7688 18.1706, 34.1557 18.1448, 34.6458 18.0956, 34.98 17.9806, 35.1606 17.7989, 35.3411 17.6183, 35.4443 17.2959, 35.4689 16.8316, 35.4947 16.4576, 35.5182 16.005, 35.5369 15.4727, 35.5569 14.9415, 35.5662 14.4936, 35.5662 14.1302 Z" stroke="none" fill="#E60000" />
			<path d="M 55.2538 7.52664 C 55.2679 9.31588, 55.2163 11.1274, 55.1002 12.9588, 54.9842 14.7915, 54.8235 16.2512, 54.6172 17.3381, 54.4882 17.9771, 54.3205 18.4708, 54.1142 18.8202, 53.9078 19.1707, 53.6182 19.424, 53.2453 19.5799, 52.8725 19.7371, 52.3636 19.8215, 51.7188 19.8332, 50.5334 19.8461, 49.3867 19.784, 48.2786 19.6456 L 47.9304 18.1073 C 48.6656 18.1964, 49.2682 18.2609, 49.7384 18.3043, 50.2086 18.3488, 50.7397 18.3699, 51.3318 18.3699, 51.7317 18.3582, 52.0412 18.3113, 52.2593 18.2304, 52.4785 18.1495, 52.6521 17.9865, 52.781 17.7426, 52.91 17.4988, 53.0331 17.12, 53.148 16.6065, 53.2899 16.0073, 53.406 14.9732, 53.4963 13.5029, 53.5865 12.0337, 53.6311 10.7416, 53.6311 9.62776 L 53.6311 8.97116, 47.4286 8.97116 C 47.1847 10.6736, 46.7978 12.1686, 46.269 13.456, 45.7413 14.7446, 44.9945 15.9393, 44.0283 17.0391, 43.0622 18.1401, 41.7994 19.2212, 40.24 20.2834 L 39.1777 19.0265 C 40.5823 18.1272, 41.7255 17.1869, 42.6073 16.2043, 43.4901 15.2229, 44.1831 14.1536, 44.6849 12.9964, 45.1879 11.8403, 45.5678 10.4978, 45.8246 8.97116 L 39.6807 8.97116, 39.6807 7.52664, 46.0368 7.52664, 46.0368 7.4516 C 46.1142 6.77741, 46.1763 6.00591, 46.2209 5.13591, 46.2666 4.26709, 46.283 3.61284, 46.269 3.17432 L 47.873 3.17432 C 47.8354 4.87679, 47.751 6.31428, 47.622 7.48912 L 47.622 7.52664 Z M 43.6801 7.05764 C 43.3846 6.70824, 42.9531 6.23689, 42.3857 5.64243, 41.8193 5.04915, 41.3937 4.62588, 41.11 4.37496 L 42.2496 3.43696 C 42.5721 3.70077, 43.0036 4.11115, 43.5453 4.66691, 44.0869 5.22385, 44.5184 5.68933, 44.8397 6.06336 Z M 50.6553 15.237 C 50.4114 14.8255, 49.9764 14.2158, 49.3515 13.4091, 48.7265 12.6024, 48.247 12.0302, 47.9116 11.6914 L 49.1486 10.8096 C 49.484 11.1485, 49.9565 11.7089, 50.5685 12.4898, 51.1806 13.2719, 51.6285 13.8746, 51.911 14.299 Z" stroke="none" fill="#E60000" />
			<path d="M 74.3571 10.4717 C 74.2884 10.7471, 74.1482 10.9532, 73.9375 11.0906, 73.7268 11.228, 73.515 11.2967, 73.3008 11.2961, 73.081 11.2967, 72.8984 11.2263, 72.7535 11.0854, 72.647 10.9824, 72.5904 10.8478, 72.5835 10.6824, 72.5835 10.616, 72.5961 10.5301, 72.6213 10.4259, 72.6911 10.1946, 72.7982 10.0189, 72.9425 9.89977, 73.0873 9.78069, 73.1881 9.71199, 73.2442 9.69309, 73.1251 9.60206, 72.8795 9.55626, 72.5085 9.55569, 72.1816 9.55626, 71.889 9.72573, 71.6314 10.0647, 71.3738 10.4036, 71.1814 10.8112, 71.0555 11.287 L 70.1875 14.6396 C 70.0999 14.9762, 70.0341 15.2968, 69.9894 15.6014, 69.9648 15.7056, 69.9522 15.7972, 69.9522 15.8762, 69.9522 16.0663, 69.9837 16.246, 70.0461 16.4166, 70.1091 16.6004, 70.2036 16.747, 70.3295 16.8569, 70.4555 16.9668, 70.6158 17.0218, 70.8104 17.0212, 71.0623 17.0218, 71.3045 16.9565, 71.5369 16.8248, 71.7694 16.6937, 71.9835 16.5168, 72.1782 16.2936, 72.3734 16.0709, 72.5463 15.8115, 72.6974 15.5149, 72.8486 15.219, 72.9676 14.915, 73.0552 14.6029, 73.093 14.4449, 73.2001 14.3653, 73.3764 14.3648 L 73.5928 14.3648 C 73.7566 14.3653, 73.8384 14.4266, 73.8384 14.548, 73.8384 14.5852, 73.8293 14.619, 73.8098 14.6487, 73.7222 15.0157, 73.5791 15.3775, 73.381 15.7348, 73.1829 16.092, 72.9522 16.4081, 72.6877 16.6829, 72.4238 16.9577, 72.1238 17.1838, 71.7871 17.3601, 71.4505 17.5376, 71.0904 17.6258, 70.7068 17.6258, 70.3169 17.6258, 69.9803 17.5422, 69.6975 17.3739, 69.4146 17.2067, 69.1851 16.988, 69.0087 16.7189, 68.9526 16.6525, 68.9086 16.5838, 68.8771 16.5134, 68.8456 16.4436, 68.8358 16.4327, 68.8484 16.4808, 68.6973 16.7315, 68.4586 16.9851, 68.1317 17.2416, 67.8048 17.4981, 67.4275 17.6258, 66.9992 17.6258, 66.7605 17.6258, 66.5246 17.5954, 66.2922 17.5342, 66.0597 17.4735, 65.8565 17.379, 65.6836 17.2508, 65.5107 17.1226, 65.3802 16.9668, 65.292 16.7831, 65.2485 16.6737, 65.2267 16.5546, 65.2262 16.4258, 65.2267 16.3348, 65.2393 16.2277, 65.264 16.1052, 65.3332 15.831, 65.4746 15.6249, 65.6882 15.4875, 65.9023 15.3501, 66.1159 15.2814, 66.33 15.2808, 66.5498 15.2814, 66.7387 15.3518, 66.8956 15.4915, 67.0027 15.5957, 67.0559 15.7302, 67.0559 15.8945, 67.0559 15.9804, 67.0433 16.0663, 67.0181 16.151, 66.962 16.3651, 66.8595 16.538, 66.7118 16.6691, 66.5641 16.8008, 66.4588 16.8724, 66.3958 16.8838, 66.5155 16.9823, 66.7576 17.0281, 67.1223 17.0212, 67.4492 17.0218, 67.7446 16.8512, 68.0086 16.5088, 68.2731 16.167, 68.4649 15.7577, 68.5839 15.2808 L 69.4616 11.9099 C 69.5498 11.5927, 69.6185 11.2812, 69.6688 10.9755, 69.6814 10.8782, 69.6877 10.7866, 69.6877 10.7007, 69.6877 10.5118, 69.6597 10.3349, 69.603 10.1694, 69.54 9.98679, 69.4427 9.83908, 69.3105 9.72573, 69.1788 9.61294, 69.015 9.55626, 68.8198 9.55569, 68.5685 9.55626, 68.3252 9.6221, 68.0893 9.75321, 67.8534 9.88488, 67.6382 10.0601, 67.4429 10.2799, 67.2483 10.4998, 67.0754 10.7551, 66.9242 11.0448, 66.7731 11.3351, 66.6632 11.6419, 66.5939 11.9648, 66.5252 12.1303, 66.4084 12.2156, 66.2447 12.2213 L 66.0374 12.2213 C 65.8863 12.2219, 65.8107 12.1457, 65.8107 11.9923 L 65.8107 11.9282 C 65.9052 11.5503, 66.05 11.1822, 66.2447 10.8249, 66.4399 10.4677, 66.6729 10.1517, 66.9431 9.87687, 67.2133 9.60206, 67.5156 9.37764, 67.8488 9.2036, 68.182 9.02955, 68.5439 8.94253, 68.9332 8.94196, 69.311 8.94253, 69.6442 9.02497, 69.9333 9.18986, 70.2225 9.35474, 70.4583 9.57458, 70.6404 9.84881, 70.6782 9.91637, 70.7131 9.98851, 70.7446 10.0647, 70.7761 10.1414, 70.7852 10.1608, 70.7726 10.1236, 70.9301 9.85569, 71.1723 9.59176, 71.4992 9.33184, 71.8261 9.07249, 72.1999 8.94253, 72.6213 8.94196, 72.8606 8.94253, 73.0982 8.97173, 73.3341 9.02955, 73.5699 9.08795, 73.7737 9.1807, 73.9466 9.30894, 74.1195 9.43718, 74.2472 9.59577, 74.3291 9.78469, 74.3732 9.89519, 74.3949 10.0206, 74.3949 10.1603, 74.3949 10.2524, 74.3823 10.3561, 74.3571 10.4717 Z" stroke="none" fill="#E60000" />
			<rect />
		</svg>
	</g>
	<g transform="matrix(1 0 -0 1 244.447 200.245)">
		<svg width="227.996933" height="62.9142723">
			<defs />
			<path d="M 16.7843 12.7794 L 10.6592 12.7794, 10.6592 17.7321 C 10.6592 18.5833, 10.4798 19.1801, 10.1187 19.5237, 9.75755 19.8684, 9.16543 20.0396, 8.33999 20.0396, 7.6447 20.0396, 6.93651 20.002, 6.21425 19.927 L 5.94458 18.4637 C 6.66684 18.5646, 7.35509 18.6138, 8.01169 18.6138, 8.39862 18.6138, 8.67181 18.5294, 8.83244 18.3605, 8.99425 18.1929, 9.07398 17.8892, 9.07398 17.4507 L 9.07398 12.7794, 2.40832 12.7794, 2.40832 11.3537 C 3.15637 10.2797, 4.03809 8.82812, 5.05582 7.00136 L 1.05525 7.00136, 1.05525 5.55684, 5.8285 5.55684 C 6.39599 4.46993, 6.82747 3.57532, 7.12294 2.87416 L 8.6296 3.45572 C 8.38572 4.03259, 8.05039 4.73257, 7.62477 5.55684 L 17.5769 5.55684, 17.5769 7.00136, 6.85209 7.00136 C 5.80857 8.90316, 4.94561 10.3606, 4.26321 11.3724 L 9.07398 11.3724, 9.07398 7.93936, 10.6592 7.93936, 10.6592 11.3724, 16.7843 11.3724 Z M 6.31157 14.7868 C 5.70656 15.5888, 4.96202 16.4458, 4.0803 17.3581, 3.19858 18.2703, 2.3579 19.0582, 1.55825 19.7206 L 0.476037 18.4262 C 1.23582 17.84, 2.03546 17.1177, 2.87263 16.2606, 3.70979 15.4047, 4.43088 14.5687, 5.03589 13.755 Z M 13.2094 13.7925 C 13.8543 14.3318, 14.6785 15.0635, 15.6834 15.9886, 16.6882 16.9148, 17.5066 17.7016, 18.1374 18.3512 L 16.9391 19.5706 C 16.3212 18.8835, 15.5286 18.0709, 14.5625 17.1329, 13.5963 16.1949, 12.7849 15.4504, 12.1272 14.8993 Z" stroke="none" fill="#E60000" />
			<path d="M 37.0729 3.99976 L 37.0729 5.40676, 31.3921 5.40676, 31.3921 8.12696, 36.0106 8.12696, 36.0106 20.1146, 34.5415 20.1146, 34.5415 18.8202, 22.562 18.8202, 22.562 20.0958, 21.0741 20.0958, 21.0741 8.12696, 25.5179 8.12696, 25.5179 5.40676, 20.0881 5.40676, 20.0881 3.99976 Z M 27.0058 8.12696 L 29.8656 8.12696, 29.8656 5.40676, 27.0058 5.40676 Z M 22.562 17.3944 L 34.5415 17.3944, 34.5415 14.7117, 32.3008 14.7117 C 31.3992 14.7129, 30.7684 14.5476, 30.4072 14.2158, 30.0461 13.8851, 29.8656 13.293, 29.8656 12.4418 L 29.8656 9.53396, 27.0058 9.53396 C 27.0058 10.9738, 26.7619 12.1932, 26.2718 13.1933, 25.7829 14.1946, 24.9457 15.0693, 23.7603 15.8186 L 22.7356 14.768 C 23.4707 14.2943, 24.0382 13.803, 24.4369 13.2965, 24.8355 12.79, 25.1122 12.2401, 25.267 11.6456, 25.4218 11.0523, 25.5062 10.3477, 25.5179 9.53396 L 22.562 9.53396 Z M 34.5415 9.53396 L 31.3921 9.53396, 31.3921 11.9728 C 31.3921 12.5121, 31.4895 12.865, 31.6829 13.0339, 31.8764 13.2027, 32.2621 13.2871, 32.8414 13.286 L 34.5415 13.286 Z" stroke="none" fill="#E60000" />
			<path d="M 55.2538 7.52664 C 55.2679 9.31588, 55.2163 11.1274, 55.1002 12.9588, 54.9842 14.7915, 54.8235 16.2512, 54.6172 17.3381, 54.4882 17.9771, 54.3205 18.4708, 54.1142 18.8202, 53.9078 19.1707, 53.6182 19.424, 53.2453 19.5799, 52.8725 19.7371, 52.3636 19.8215, 51.7188 19.8332, 50.5334 19.8461, 49.3867 19.784, 48.2786 19.6456 L 47.9304 18.1073 C 48.6656 18.1964, 49.2682 18.2609, 49.7384 18.3043, 50.2086 18.3488, 50.7397 18.3699, 51.3318 18.3699, 51.7317 18.3582, 52.0412 18.3113, 52.2593 18.2304, 52.4785 18.1495, 52.6521 17.9865, 52.781 17.7426, 52.91 17.4988, 53.0331 17.12, 53.148 16.6065, 53.2899 16.0073, 53.406 14.9732, 53.4963 13.5029, 53.5865 12.0337, 53.6311 10.7416, 53.6311 9.62776 L 53.6311 8.97116, 47.4286 8.97116 C 47.1847 10.6736, 46.7978 12.1686, 46.269 13.456, 45.7413 14.7446, 44.9945 15.9393, 44.0283 17.0391, 43.0622 18.1401, 41.7994 19.2212, 40.24 20.2834 L 39.1777 19.0265 C 40.5823 18.1272, 41.7255 17.1869, 42.6073 16.2043, 43.4901 15.2229, 44.1831 14.1536, 44.6849 12.9964, 45.1879 11.8403, 45.5678 10.4978, 45.8246 8.97116 L 39.6807 8.97116, 39.6807 7.52664, 46.0368 7.52664, 46.0368 7.4516 C 46.1142 6.77741, 46.1763 6.00591, 46.2209 5.13591, 46.2666 4.26709, 46.283 3.61284, 46.269 3.17432 L 47.873 3.17432 C 47.8354 4.87679, 47.751 6.31428, 47.622 7.48912 L 47.622 7.52664 Z M 43.6801 7.05764 C 43.3846 6.70824, 42.9531 6.23689, 42.3857 5.64243, 41.8193 5.04915, 41.3937 4.62588, 41.11 4.37496 L 42.2496 3.43696 C 42.5721 3.70077, 43.0036 4.11115, 43.5453 4.66691, 44.0869 5.22385, 44.5184 5.68933, 44.8397 6.06336 Z M 50.6553 15.237 C 50.4114 14.8255, 49.9764 14.2158, 49.3515 13.4091, 48.7265 12.6024, 48.247 12.0302, 47.9116 11.6914 L 49.1486 10.8096 C 49.484 11.1485, 49.9565 11.7089, 50.5685 12.4898, 51.1806 13.2719, 51.6285 13.8746, 51.911 14.299 Z" stroke="none" fill="#E60000" />
			<path d="M 72.2159 17.3418 C 72.0843 17.8548, 71.8764 18.3449, 71.5936 18.812, 71.3108 19.2792, 70.977 19.6948, 70.5935 20.0578, 70.2099 20.4214, 69.7793 20.7162, 69.3013 20.9418, 68.8232 21.1679, 68.3263 21.2807, 67.8105 21.2807, 67.5025 21.2807, 67.2197 21.2246, 66.962 21.1112, 66.7044 20.9984, 66.4937 20.8456, 66.33 20.6532, 66.1662 20.4609, 66.0563 20.2336, 65.9996 19.9708, 65.9744 19.8551, 65.9618 19.7361, 65.9618 19.6135, 65.9618 19.455, 65.9807 19.2929, 66.0185 19.1281, 66.0878 18.8532, 66.2292 18.6471, 66.4428 18.5097, 66.6569 18.3723, 66.8676 18.3036, 67.0748 18.3036, 67.2952 18.3036, 67.4807 18.3741, 67.6313 18.5143, 67.7383 18.6185, 67.7916 18.7525, 67.7916 18.9174, 67.7916 18.9849, 67.779 19.0674, 67.7538 19.1647, 67.6851 19.4395, 67.5437 19.6456, 67.3296 19.783, 67.116 19.9204, 66.946 19.9891, 66.82 19.9891, 66.8578 20.154, 66.9758 20.3086, 67.1739 20.4517, 67.3719 20.5954, 67.6256 20.667, 67.9336 20.667, 68.2731 20.667, 68.5908 20.5754, 68.8862 20.3922, 69.1816 20.209, 69.4524 19.9633, 69.6975 19.6548, 69.9425 19.3468, 70.1578 18.9895, 70.3433 18.583, 70.5288 18.1771, 70.6782 17.7512, 70.7915 17.3052 L 70.8482 17.0853 C 70.7543 17.1712, 70.5562 17.2829, 70.254 17.4197, 69.9522 17.5571, 69.6219 17.6258, 69.2635 17.6258, 68.8358 17.6258, 68.454 17.5468, 68.1173 17.3876, 67.7807 17.2296, 67.5151 16.9851, 67.3204 16.6548, 67.1315 16.301, 67.0405 15.9105, 67.0468 15.4823 L 67.0468 15.409 C 67.0593 14.9636, 67.116 14.5211, 67.2162 14.0808, 67.317 13.66, 67.4635 13.1963, 67.6553 12.689, 67.8471 12.1824, 68.0309 11.6906, 68.2067 11.2137, 68.3956 10.7076, 68.4901 10.2919, 68.4901 9.9679, 68.4901 9.69367, 68.3738 9.55626, 68.1408 9.55569, 67.9273 9.55626, 67.7338 9.61752, 67.5609 9.73947, 67.388 9.86198, 67.2311 10.0314, 67.0891 10.2479, 66.9477 10.4648, 66.8206 10.7213, 66.7073 11.0173, 66.5939 11.3139, 66.4994 11.6293, 66.4239 11.9648, 66.3552 12.1303, 66.2389 12.2156, 66.0752 12.2213 L 65.8582 12.2213 C 65.7071 12.2219, 65.6315 12.1457, 65.6315 11.9923 L 65.6315 11.9282 C 65.7197 11.5927, 65.8365 11.2497, 65.9807 10.8982, 66.1256 10.5473, 66.3082 10.2284, 66.5281 9.94099, 66.7479 9.65416, 66.9998 9.416, 67.2826 9.2265, 67.5654 9.03757, 67.8895 8.94253, 68.2542 8.94196, 68.5691 8.94253, 68.8376 9.01009, 69.0608 9.14406, 69.2841 9.2786, 69.4536 9.45722, 69.5698 9.67992, 69.6866 9.9032, 69.7507 10.1545, 69.7633 10.4351 L 69.7633 10.4992 C 69.7633 10.7625, 69.7101 11.0339, 69.603 11.3144, 69.421 11.7913, 69.24 12.2785, 69.0608 12.7761, 68.8816 13.2741, 68.742 13.7213, 68.6412 14.118, 68.5404 14.5153, 68.4712 14.9087, 68.4334 15.2991, 68.4082 15.4033, 68.3927 15.5167, 68.3858 15.638, 68.3858 15.8768, 68.4271 16.1121, 68.5089 16.3434, 68.5656 16.5518, 68.6692 16.7166, 68.8204 16.8386, 68.9715 16.9611, 69.1507 17.0218, 69.358 17.0212, 69.7604 17.0218, 70.1125 16.9027, 70.4143 16.6645, 70.7165 16.4264, 70.9805 16.1149, 71.2066 15.7296 L 72.7255 9.82133 C 72.7822 9.59577, 72.8967 9.42974, 73.0696 9.32268, 73.2425 9.21619, 73.4171 9.16238, 73.5928 9.1618, 73.7755 9.16238, 73.9266 9.21734, 74.0457 9.32669, 74.1281 9.40684, 74.1688 9.51332, 74.1688 9.64729, 74.1688 9.71485, 74.1625 9.78527, 74.1499 9.85798 Z" stroke="none" fill="#E60000" />
			<rect />
		</svg>
	</g>
</svg>
