<?xml version="1.0"?>
<svg xmlns="http://www.w3.org/2000/svg" xmlns:xlink="http://www.w3.org/1999/xlink" width="333.050262" height="289.455505">
	<defs>
		<marker id="CustomMarker-01" markerUnits="strokeWidth" markerWidth="15.000001" markerHeight="9" viewBox="-15 -4.5 15 9" orient="auto-start-reverse">
			<path d="M 0 -0 L -10 -3, -8 -0.5, -8 0.5, -10 3 Z" fill="#000000" stroke="#000000" stroke-linejoin="round" />
		</marker>
		<marker id="CustomMarker-02" markerUnits="strokeWidth" markerWidth="15.000001" markerHeight="9" viewBox="-15 -4.5 15 9" orient="auto-start-reverse">
			<path d="M 0 -0 L -10 -3, -8 -0.5, -8 0.5, -10 3 Z" fill="#000000" stroke="#000000" stroke-linejoin="round" />
		</marker>
		<marker id="CustomMarker-03" markerUnits="strokeWidth" markerWidth="9" markerHeight="9" viewBox="-9 -4.5 9 9" orient="auto-start-reverse">
			<path d="M 0 -0 L -6 -3, -4.8 -0.5, -4.8 0.5, -6 3 Z" fill="#000000" stroke="#000000" stroke-linejoin="round" />
		</marker>
		<marker id="CustomMarker-04" markerUnits="strokeWidth" markerWidth="9" markerHeight="9" viewBox="-9 -4.5 9 9" orient="auto-start-reverse">
			<path d="M 0 -0 L -6 -3, -4.8 -0.5, -4.8 0.5, -6 3 Z" fill="#E60000" stroke="#E60000" stroke-linejoin="round" />
		</marker>
		<marker id="CustomMarker-05" markerUnits="strokeWidth" markerWidth="9" markerHeight="9" viewBox="-9 -4.5 9 9" orient="auto-start-reverse">
			<path d="M 0 -0 L -6 -3, -4.8 -0.5, -4.8 0.5, -6 3 Z" fill="#000000" stroke="#000000" stroke-linejoin="round" />
		</marker>
		<marker id="CustomMarker-06" markerUnits="strokeWidth" markerWidth="9" markerHeight="9" viewBox="-9 -4.5 9 9" orient="auto-start-reverse">
			<path d="M 0 -0 L -6 -3, -4.8 -0.5, -4.8 0.5, -6 3 Z" fill="#E60000" stroke="#E60000" stroke-linejoin="round" />
		</marker>
	</defs>
	<path d="M -296.017 0 L 296.015 0" fill="none" stroke="#000000" stroke-width="2.9333334" stroke-linecap="round" stroke-linejoin="round" marker-end="url(#CustomMarker-01)" transform="matrix(0.454545 0 0 0.454545 166.565 143.819)" />
	<path d="M 0 232.848 L 0 -232.848" fill="none" stroke="#000000" stroke-width="2.9333334" stroke-linecap="round" stroke-linejoin="round" marker-end="url(#CustomMarker-02)" transform="matrix(0.454545 0 0 0.454545 166.565 143.819)" />
	<g transform="matrix(1 0 -0 1 143.577 37.9462)">
		<svg width="32.9738617" height="32.9571342">
			<defs />
			<path d="M 9.12638 9.8992 C 9.05768 10.1746, 8.91741 10.3807, 8.70673 10.5181, 8.49605 10.6555, 8.28422 10.7242, 8.0701 10.7236, 7.85026 10.7242, 7.66762 10.6538, 7.52278 10.5129, 7.41629 10.4099, 7.35961 10.2753, 7.35274 10.1099, 7.35274 10.0435, 7.36534 9.95759, 7.39053 9.8534, 7.4598 9.6221, 7.56686 9.44634, 7.71114 9.32726, 7.85598 9.20818, 7.95674 9.13948, 8.01342 9.12058, 7.89434 9.02955, 7.64873 8.98375, 7.27717 8.98318, 6.95027 8.98375, 6.65772 9.15322, 6.40009 9.49214, 6.14246 9.83107, 5.9501 10.2387, 5.82414 10.7144 L 4.95622 14.0671 C 4.86805 14.4037, 4.80221 14.7243, 4.75813 15.0289, 4.73294 15.1331, 4.72034 15.2247, 4.72034 15.3037, 4.72034 15.4938, 4.75183 15.6735, 4.81481 15.8441, 4.87778 16.0279, 4.97225 16.1745, 5.0982 16.2844, 5.22415 16.3943, 5.38446 16.4493, 5.57911 16.4487, 5.83101 16.4493, 6.07318 16.384, 6.30562 16.2523, 6.53864 16.1212, 6.75275 15.9443, 6.94741 15.721, 7.14206 15.4983, 7.31496 15.239, 7.4661 14.9424, 7.61724 14.6464, 7.73633 14.3424, 7.82449 14.0304, 7.86228 13.8724, 7.96934 13.7928, 8.1451 13.7923 L 8.36208 13.7923 C 8.52582 13.7928, 8.60769 13.8541, 8.60769 13.9755, 8.60769 14.0127, 8.59853 14.0465, 8.57963 14.0762, 8.49147 14.4432, 8.34834 14.805, 8.15025 15.1623, 7.95216 15.5195, 7.72144 15.8356, 7.45694 16.1104, 7.19244 16.3852, 6.89245 16.6113, 6.55581 16.7876, 6.21917 16.9651, 5.85907 17.0533, 5.47548 17.0533, 5.08561 17.0533, 4.74897 16.9697, 4.46615 16.8014, 4.18333 16.6342, 3.95318 16.4155, 3.77685 16.1464, 3.72074 16.08, 3.67666 16.0113, 3.64517 15.9409, 3.61368 15.871, 3.60395 15.8602, 3.61655 15.9083, 3.46598 16.159, 3.22724 16.4126, 2.89976 16.6691, 2.57286 16.9256, 2.19558 17.0533, 1.76734 17.0533, 1.5286 17.0533, 1.29273 17.0229, 1.05972 16.9617, 0.827278 16.901, 0.624037 16.8065, 0.451139 16.6783, 0.278241 16.55, 0.147709 16.3943, 0.0595425 16.2105, 0.0160317 16.1012, -0.00572362 15.9821, -0.00629613 15.8533, -0.00572362 15.7623, 0.00687159 15.6552, 0.0314895 15.5327, 0.100763 15.2585, 0.242173 15.0524, 0.456292 14.915, 0.67041 14.7776, 0.883956 14.7089, 1.0975 14.7083, 1.31792 14.7089, 1.50685 14.7793, 1.66371 14.919, 1.77077 15.0232, 1.82402 15.1577, 1.82402 15.322, 1.82402 15.4079, 1.81142 15.4938, 1.78623 15.5785, 1.73013 15.7926, 1.62765 15.9655, 1.47994 16.0966, 1.33223 16.2283, 1.22632 16.2999, 1.16334 16.3113, 1.283 16.4098, 1.52517 16.4556, 1.88986 16.4487, 2.21733 16.4493, 2.51275 16.2787, 2.77667 15.9363, 3.04117 15.5945, 3.23296 15.1852, 3.35262 14.7083 L 4.2297 11.3373 C 4.31787 11.0202, 4.38714 10.7087, 4.43752 10.403, 4.45012 10.3057, 4.45642 10.2141, 4.45642 10.1282, 4.45642 9.93927, 4.42836 9.76237, 4.37111 9.59691, 4.30871 9.41428, 4.21138 9.26657, 4.07913 9.15322, 3.94688 9.04043, 3.78315 8.98375, 3.58849 8.98318, 3.33659 8.98375, 3.0927 9.04959, 2.85682 9.1807, 2.62095 9.31237, 2.40569 9.48756, 2.21103 9.70741, 2.01638 9.92725, 1.84348 10.1826, 1.69234 10.4723, 1.5412 10.7625, 1.43128 11.0694, 1.36143 11.3923, 1.29273 11.5578, 1.17651 11.6431, 1.01277 11.6488 L 0.80495 11.6488 C 0.65438 11.6494, 0.578809 11.5732, 0.578809 11.4198 L 0.578809 11.3557 C 0.673273 10.9778, 0.818118 10.6097, 1.01277 10.2524, 1.20742 9.89519, 1.44044 9.57916, 1.71066 9.30436, 1.98146 9.02955, 2.28374 8.80513, 2.61694 8.63109, 2.95014 8.45704, 3.31197 8.37002, 3.70128 8.36945, 4.07913 8.37002, 4.41233 8.45246, 4.70145 8.61735, 4.99114 8.78223, 5.22702 9.00207, 5.40907 9.27631, 5.44686 9.34386, 5.48178 9.416, 5.51327 9.49214, 5.54476 9.56886, 5.55392 9.58832, 5.54132 9.55111, 5.69876 9.28318, 5.94094 9.01925, 6.26784 8.75933, 6.59531 8.49998, 6.96916 8.37002, 7.39053 8.36945, 7.62984 8.37002, 7.86686 8.39922, 8.10273 8.45704, 8.3386 8.51544, 8.54356 8.60819, 8.71646 8.73643, 8.88936 8.86467, 9.01703 9.02326, 9.09833 9.21218, 9.14241 9.32268, 9.16416 9.44806, 9.16416 9.58775, 9.16416 9.67992, 9.15157 9.78355, 9.12638 9.8992 Z" stroke="none" fill="#000000" />
			<rect />
		</svg>
	</g>
	<g transform="matrix(1 0 -0 1 289.452 107.441)">
		<svg width="30.0150681" height="41.9571342">
			<defs />
			<path d="M 6.58759 16.7693 C 6.45591 17.2823, 6.24809 17.7724, 5.96527 18.2395, 5.68245 18.7067, 5.34868 19.1223, 4.9651 19.4853, 4.58151 19.8488, 4.15099 20.1437, 3.67294 20.3693, 3.19489 20.5954, 2.69796 20.7082, 2.18155 20.7082, 1.87354 20.7082, 1.59072 20.6521, 1.33252 20.5387, 1.07489 20.4259, 0.864208 20.2731, 0.70047 20.0807, 0.536732 19.8883, 0.42681 19.6611, 0.370132 19.3983, 0.344941 19.2826, 0.332346 19.1635, 0.332346 19.041, 0.332346 18.8824, 0.351239 18.7204, 0.389025 18.5555, 0.458298 18.2807, 0.599708 18.0746, 0.813827 17.9372, 1.02795 17.7998, 1.23863 17.7311, 1.44588 17.7311, 1.66629 17.7311, 1.85179 17.8015, 2.00236 17.9418, 2.10942 18.046, 2.16266 18.18, 2.16266 18.3449, 2.16266 18.4124, 2.15006 18.4949, 2.12487 18.5922, 2.05617 18.867, 1.91476 19.0731, 1.70064 19.2105, 1.48653 19.3479, 1.31706 19.4166, 1.19111 19.4166, 1.2289 19.5815, 1.34683 19.7361, 1.54492 19.8792, 1.74301 20.0229, 1.99606 20.0944, 2.30407 20.0944, 2.64414 20.0944, 2.96188 20.0028, 3.2573 19.8196, 3.55329 19.6364, 3.82408 19.3908, 4.06912 19.0823, 4.31415 18.7742, 4.52942 18.417, 4.71491 18.0105, 4.9004 17.6046, 5.04983 17.1787, 5.16318 16.7327 L 5.21986 16.5128 C 5.12597 16.5987, 4.92788 16.7103, 4.6256 16.8472, 4.32388 16.9846, 3.99355 17.0533, 3.63458 17.0533, 3.20749 17.0533, 2.82505 16.9743, 2.48842 16.8151, 2.15178 16.6571, 1.88614 16.4126, 1.69091 16.0823, 1.50256 15.7285, 1.41153 15.338, 1.41725 14.9098 L 1.41725 14.8365 C 1.42985 14.3911, 1.48653 13.9486, 1.58729 13.5083, 1.68805 13.0875, 1.83461 12.6238, 2.0264 12.1165, 2.21819 11.6099, 2.40197 11.1181, 2.57773 10.6412, 2.76666 10.1351, 2.86112 9.71943, 2.86112 9.39539, 2.86112 9.12116, 2.7449 8.98375, 2.51189 8.98318, 2.29834 8.98375, 2.10484 9.04501, 1.93194 9.16696, 1.75904 9.28947, 1.6016 9.45894, 1.46019 9.67535, 1.31878 9.89233, 1.19111 10.1488, 1.07775 10.4448, 0.964397 10.7414, 0.870505 11.0568, 0.794934 11.3923, 0.72566 11.5578, 0.609441 11.6431, 0.445703 11.6488 L 0.228722 11.6488 C 0.0775793 11.6494, 0.00200802 11.5732, 0.00200802 11.4198 L 0.00200802 11.3557 C 0.0901745 11.0202, 0.206967 10.6772, 0.351239 10.3257, 0.496084 9.97477, 0.678715 9.65588, 0.898558 9.36848, 1.11897 9.08165, 1.37088 8.84349, 1.6537 8.65399, 1.93652 8.46506, 2.26056 8.37002, 2.62525 8.36945, 2.94013 8.37002, 3.20863 8.43758, 3.43191 8.57155, 3.65519 8.70609, 3.82523 8.88471, 3.94145 9.10742, 4.05824 9.33069, 4.12236 9.58203, 4.13496 9.86256 L 4.13496 9.92668 C 4.13496 10.19, 4.08171 10.4614, 3.97408 10.7419, 3.79202 11.2188, 3.61168 11.706, 3.43191 12.2035, 3.25272 12.7016, 3.11303 13.1488, 3.01226 13.5455, 2.9115 13.9428, 2.84223 14.3361, 2.80444 14.7266, 2.77925 14.8308, 2.76379 14.9442, 2.7575 15.0655, 2.7575 15.3043, 2.79872 15.5396, 2.88001 15.7709, 2.93669 15.9792, 3.04032 16.1441, 3.19146 16.2661, 3.3426 16.3886, 3.5218 16.4493, 3.72905 16.4487, 4.13209 16.4493, 4.48419 16.3302, 4.7859 16.092, 5.08818 15.8539, 5.35211 15.5424, 5.57825 15.1571 L 7.09712 9.24883 C 7.15437 9.02326, 7.26887 8.85723, 7.44177 8.75017, 7.61467 8.64368, 7.78929 8.58987, 7.96505 8.58929, 8.14768 8.58987, 8.29882 8.64483, 8.41847 8.75418, 8.50034 8.83433, 8.54099 8.94081, 8.54099 9.07478, 8.54099 9.14234, 8.53469 9.21276, 8.5221 9.28547 Z" stroke="none" fill="#000000" />
			<rect />
		</svg>
	</g>
	<g transform="matrix(1 0 -0 1 157.181 8.99999)">
		<svg width="59.9889336" height="56.9999886">
			<defs />
			<path d="M 5.92867 7.93936 L 5.92867 3.15556, 7.53265 3.15556, 7.53265 20.0771, 5.92867 20.0771, 5.92867 16.569 C 5.81377 16.6206, 5.70355 16.6674, 5.60037 16.7108, 5.49719 16.7554, 5.40105 16.7953, 5.31077 16.8316, 4.13827 17.3581, 2.76058 17.9584, 1.17536 18.6326 L 0.576212 17.1318 C 1.64553 16.7073, 3.43008 15.9323, 5.92867 14.8055 L 5.92867 9.49644, 1.07921 9.49644, 1.07921 7.93936 Z M 18.0441 14.5241 C 18.0441 15.0506, 18.0054 15.8139, 17.928 16.8128 L 17.9093 17.2443 C 17.8706 17.8458, 17.7709 18.3078, 17.6091 18.6326, 17.4485 18.9585, 17.1976 19.1954, 16.8564 19.3454, 16.5152 19.4955, 16.0286 19.5964, 15.3966 19.6456, 15.1398 19.6714, 14.7412 19.6831, 14.1995 19.6831, 13.6719 19.6831, 13.272 19.6714, 13.0012 19.6456, 12.3704 19.5964, 11.8897 19.4932, 11.5614 19.3361, 11.2331 19.1801, 10.995 18.9233, 10.8473 18.5669, 10.6996 18.2116, 10.6245 17.7016, 10.6245 17.038 L 10.6245 3.15556, 12.2473 3.15556, 12.2473 9.3276 C 14.1022 8.24069, 15.6745 7.20889, 16.9619 6.2322 L 17.9093 7.62044 C 17.2656 8.07185, 16.3862 8.64169, 15.2723 9.32877, 14.1585 10.017, 13.1501 10.6232, 12.2473 11.1473 L 12.2473 16.8504 C 12.2473 17.3264, 12.3153 17.6524, 12.4501 17.8271, 12.5861 18.0029, 12.8535 18.1085, 13.2521 18.1448, 13.639 18.1706, 13.9298 18.1835, 14.1221 18.1823, 14.3027 18.1835, 14.5852 18.1706, 14.9722 18.1448, 15.4623 18.0956, 15.7964 17.9806, 15.977 17.7989, 16.1576 17.6183, 16.2607 17.2959, 16.2854 16.8316, 16.3112 16.4576, 16.3346 16.005, 16.3534 15.4727, 16.3733 14.9415, 16.3827 14.4936, 16.3827 14.1302 Z" stroke="none" fill="#000000" />
			<rect />
		</svg>
	</g>
	<g transform="matrix(1 0 -0 1 305.238 131.759)">
		<svg width="59.9889336" height="59.9571304">
			<defs />
			<path d="M 16.7884 12.7794 L 10.6632 12.7794, 10.6632 17.7321 C 10.6632 18.5833, 10.4838 19.1801, 10.1227 19.5237, 9.76158 19.8684, 9.16946 20.0396, 8.34402 20.0396, 7.64873 20.0396, 6.94054 20.002, 6.21828 19.927 L 5.94861 18.4637 C 6.67087 18.5646, 7.35912 18.6138, 8.01572 18.6138, 8.40265 18.6138, 8.67584 18.5294, 8.83647 18.3605, 8.99828 18.1929, 9.07801 17.8892, 9.07801 17.4507 L 9.07801 12.7794, 2.41235 12.7794, 2.41235 11.3537 C 3.1604 10.2797, 4.04212 8.82812, 5.05985 7.00136 L 1.05928 7.00136, 1.05928 5.55684, 5.83253 5.55684 C 6.40002 4.46993, 6.8315 3.57532, 7.12697 2.87416 L 8.63363 3.45572 C 8.38975 4.03259, 8.05442 4.73257, 7.6288 5.55684 L 17.581 5.55684, 17.581 7.00136, 6.85612 7.00136 C 5.8126 8.90316, 4.94964 10.3606, 4.26724 11.3724 L 9.07801 11.3724, 9.07801 7.93936, 10.6632 7.93936, 10.6632 11.3724, 16.7884 11.3724 Z M 6.3156 14.7868 C 5.71059 15.5888, 4.96605 16.4458, 4.08433 17.3581, 3.20261 18.2703, 2.36193 19.0582, 1.56228 19.7206 L 0.480067 18.4262 C 1.23985 17.84, 2.03949 17.1177, 2.87666 16.2606, 3.71382 15.4047, 4.43491 14.5687, 5.03992 13.755 Z M 13.2134 13.7925 C 13.8583 14.3318, 14.6826 15.0635, 15.6874 15.9886, 16.6922 16.9148, 17.5106 17.7016, 18.1414 18.3512 L 16.9431 19.5706 C 16.3252 18.8835, 15.5326 18.0709, 14.5665 17.1329, 13.6003 16.1949, 12.789 15.4504, 12.1312 14.8993 Z" stroke="none" fill="#000000" />
			<rect />
		</svg>
	</g>
	<g transform="matrix(1 0 -0 1 8.99997 131.759)">
		<svg width="57.0301361" height="54.0428391">
			<defs />
			<path d="M 17.8893 3.99976 L 17.8893 5.40676, 12.2086 5.40676, 12.2086 8.12696, 16.8271 8.12696, 16.8271 20.1146, 15.3579 20.1146, 15.3579 18.8202, 3.37849 18.8202, 3.37849 20.0958, 1.89058 20.0958, 1.89058 8.12696, 6.33436 8.12696, 6.33436 5.40676, 0.904512 5.40676, 0.904512 3.99976 Z M 7.82226 8.12696 L 10.682 8.12696, 10.682 5.40676, 7.82226 5.40676 Z M 3.37849 17.3944 L 15.3579 17.3944, 15.3579 14.7117, 13.1173 14.7117 C 12.2156 14.7129, 11.5848 14.5476, 11.2237 14.2158, 10.8626 13.8851, 10.682 13.293, 10.682 12.4418 L 10.682 9.53396, 7.82226 9.53396 C 7.82226 10.9738, 7.57838 12.1932, 7.08828 13.1933, 6.59934 14.1946, 5.76218 15.0693, 4.57678 15.8186 L 3.55202 14.768 C 4.28717 14.2943, 4.85466 13.803, 5.25331 13.2965, 5.65196 12.79, 5.92867 12.2401, 6.08344 11.6456, 6.23821 11.0523, 6.32263 10.3477, 6.33436 9.53396 L 3.37849 9.53396 Z M 15.3579 9.53396 L 12.2086 9.53396, 12.2086 11.9728 C 12.2086 12.5121, 12.3059 12.865, 12.4994 13.0339, 12.6928 13.2027, 13.0786 13.2871, 13.6578 13.286 L 15.3579 13.286 Z" stroke="none" fill="#000000" />
			<rect />
		</svg>
	</g>
	<g transform="matrix(1 0 -0 1 157.181 256.896)">
		<svg width="57.0301361" height="56.9999886">
			<defs />
			<path d="M 17.928 6.45732 L 10.1028 6.45732, 10.1028 8.18324, 16.711 8.18324, 16.711 17.7884 C 16.711 18.377, 16.65 18.8331, 16.5281 19.1578, 16.4061 19.4838, 16.1998 19.7148, 15.909 19.852, 15.6194 19.9903, 15.2102 20.0583, 14.6826 20.0583, 13.768 20.0583, 12.9824 20.0278, 12.3247 19.9645 L 12.0538 18.5575 C 12.8664 18.6455, 13.5558 18.6888, 14.1221 18.6888, 14.5735 18.6888, 14.8666 18.6044, 15.0015 18.4356, 15.1375 18.2667, 15.2043 17.9396, 15.2043 17.4507 L 15.2043 9.53396, 3.37849 9.53396, 3.37849 20.0396, 1.87065 20.0396, 1.87065 8.18324, 8.53749 8.18324, 8.53749 6.45732, 0.673529 6.45732, 0.673529 5.05032, 8.53749 5.05032, 8.53749 3.06176, 10.1028 3.06176, 10.1028 5.05032, 17.928 5.05032 Z M 14.373 16.3626 L 10.0254 16.3626, 10.0254 19.6456, 8.55625 19.6456, 8.55625 16.3626, 4.32469 16.3626, 4.32469 15.1807, 8.55625 15.1807, 8.55625 13.5111, 4.73038 13.5111, 4.73038 12.3292, 7.03082 12.3292 C 6.36133 11.4545, 5.90405 10.8988, 5.65783 10.6596 L 6.72128 9.87164 C 6.99213 10.1601, 7.31691 10.5294, 7.6968 10.9797, 8.07669 11.4299, 8.35106 11.7676, 8.51873 11.9915 L 8.05442 12.3292, 9.85186 12.3292 C 10.6245 11.4053, 11.2495 10.5798, 11.7255 9.85288 L 12.9238 10.547 C 12.5381 11.0981, 12.0808 11.6925, 11.552 12.3292 L 13.9474 12.3292, 13.9474 13.5111, 10.0254 13.5111, 10.0254 15.1807, 14.373 15.1807 Z" stroke="none" fill="#000000" />
			<rect />
		</svg>
	</g>
	<path d="M 0.0252979 -71.6949 C 8.34703 -71.6919, 16.5752 -70.2405, 24.3492 -67.4335 L 34.6037 -62.7912" fill="none" stroke="#000000" stroke-width="2.9333334" stroke-linecap="round" stroke-linejoin="round" marker-end="url(#CustomMarker-03)" transform="matrix(0.454545 0 -0 0.454545 166.565 143.819)" />
	<path d="M 0 0 L 0.0489226 -138.408" fill="none" stroke="#000000" stroke-width="2.9333334" stroke-linecap="round" stroke-linejoin="round" transform="matrix(0.454545 0 -0 0.454545 166.565 143.819)" />
	<path d="M 0 0 L 107.233 -194.583" fill="none" stroke="#000000" stroke-width="2.9333334" stroke-linecap="round" stroke-linejoin="round" transform="matrix(0.454545 0 -0 0.454545 166.565 143.819)" />
	<g transform="matrix(1 0 -0 1 194.654 99.9647)">
		<svg width="155.956741" height="54.0428391">
			<defs />
			<path d="M 12.9653 14.9922 C 12.8966 15.2676, 12.793 15.5378, 12.6545 15.8035, 12.5159 16.0691, 12.3465 16.309, 12.1449 16.5226, 11.9434 16.7367, 11.7184 16.9113, 11.47 17.0487, 11.2215 17.1861, 10.953 17.2548, 10.6633 17.2548, 9.75128 17.2548, 9.06541 17.0138, 8.60626 16.5311, 8.29195 16.202, 8.13451 15.7869, 8.13451 15.2854, 8.13451 15.0295, 8.17573 14.7518, 8.2576 14.4518 L 8.68183 12.8121 C 8.73221 12.6049, 8.7574 12.4097, 8.7574 12.2259, 8.7574 12.1348, 8.7511 12.0404, 8.73851 11.9419, 8.70072 11.686, 8.61313 11.4604, 8.47458 11.2646, 8.33603 11.0694, 8.15856 10.9154, 7.94158 10.802, 7.72459 10.6893, 7.46811 10.6326, 7.17212 10.632 L 5.0401 10.632, 3.78515 15.5144 C 3.75996 15.6312, 3.74737 15.7256, 3.74737 15.7983, 3.74737 15.8905, 3.76626 15.9518, 3.80405 15.9815, 3.88592 16.0308, 4.05595 16.06, 4.31358 16.0691, 4.57178 16.0783, 4.84831 16.0829, 5.14372 16.0823, 5.32005 16.0829, 5.40822 16.1562, 5.40822 16.3021, 5.40822 16.3394, 5.40192 16.3789, 5.38933 16.4212 L 5.35154 16.5678 C 5.28284 16.751, 5.15975 16.8426, 4.98342 16.8426, 4.20996 16.806, 3.4302 16.7876, 2.64357 16.7876, 1.85751 16.7876, 1.06802 16.806, 0.27567 16.8426, 0.106207 16.8426, 0.0151782 16.7636, 0.00201051 16.6044 L 0.00201051 16.5311, 0.0397962 16.3754 C 0.090177 16.1745, 0.212694 16.0766, 0.407347 16.0823, 0.703335 16.0829, 0.983292 16.0783, 1.24722 16.0691, 1.51172 16.06, 1.70637 16.0279, 1.83232 15.9724, 1.95198 15.906, 2.04301 15.7411, 2.10598 15.4777 L 4.75728 5.15423 C 4.79506 5.02027, 4.81338 4.91664, 4.81338 4.84279, 4.81338 4.77008, 4.79792 4.72714, 4.76644 4.71455, 4.67827 4.66016, 4.50709 4.62695, 4.25232 4.61436, 3.99756 4.60234, 3.71932 4.59604, 3.41703 4.59547, 3.24127 4.59604, 3.1531 4.5136, 3.1531 4.34814 L 3.1531 4.27486, 3.20978 4.11914 C 3.24757 3.93651, 3.36436 3.84491, 3.55901 3.84433 L 8.87076 3.84433 C 9.46846 3.84491, 10.0375 3.92448, 10.5786 4.08307, 11.1196 4.24223, 11.5913 4.50444, 11.9938 4.87027, 12.327 5.16397, 12.5692 5.52408, 12.7203 5.95117, 12.8148 6.18361, 12.8652 6.42521, 12.8709 6.67482, 12.8709 6.90154, 12.8365 7.12424, 12.7673 7.34351, 12.6482 7.83244, 12.3997 8.27556, 12.0219 8.67231, 11.6446 9.06963, 11.2198 9.40798, 10.748 9.68851, 10.4211 9.87859, 10.0896 10.036, 9.753 10.1608, 9.41636 10.2862, 9.17591 10.3641, 9.03106 10.3938, 9.38945 10.5347, 9.72952 10.8095, 10.0501 11.2183, 10.3209 11.5732, 10.456 11.9974, 10.456 12.4915, 10.456 12.5957, 10.4497 12.6999, 10.4371 12.803 L 10.2574 14.4518 C 10.2076 14.88, 10.1824 15.2522, 10.1824 15.5693, 10.1824 15.7777, 10.195 15.9609, 10.2202 16.1189, 10.2642 16.4796, 10.4526 16.66, 10.7858 16.6594, 11.0881 16.66, 11.3646 16.4968, 11.6165 16.1699, 11.8684 15.8436, 12.0539 15.4388, 12.173 14.9556, 12.2423 14.773, 12.3648 14.6842, 12.5411 14.69 L 12.6917 14.69 C 12.8617 14.6905, 12.9528 14.7701, 12.9653 14.9281 L 12.9653 14.9922 Z M 10.748 7.28855 C 10.8488 6.92272, 10.9055 6.55631, 10.9181 6.18933 L 10.9181 6.13437 C 10.9181 5.8235, 10.8207 5.55499, 10.6255 5.32828, 10.3931 5.06034, 10.0896 4.87084, 9.71521 4.76092, 9.34079 4.651, 8.9303 4.59604, 8.48374 4.59547 L 7.2288 4.59547 C 6.9082 4.59604, 6.7164 4.62066, 6.65343 4.66932, 6.59045 4.71856, 6.52461 4.89203, 6.45534 5.19088 L 5.21013 10.0366, 7.03071 10.0366 C 7.47727 10.0372, 7.9181 9.98221, 8.35207 9.87229, 8.78603 9.76237, 9.19823 9.56714, 9.58754 9.28547, 9.92131 9.04787, 10.1732 8.74902, 10.3427 8.38834, 10.5127 8.02823, 10.6478 7.66183, 10.748 7.28855 Z" stroke="none" fill="#000000" />
			<path d="M 2.10737 3.19713 C 1.52644 3.17661, 0.957362 3.16635, 0.400791 3.16635, -0.148727 3.16635, -0.715878 3.17661, -1.30066 3.19713 L -1.30066 2.77136 C -1.09964 2.77169, -0.905035 2.76912, -0.716519 2.76399, -0.528003 2.75886, -0.384692 2.74091, -0.286266 2.70981, -0.236893 2.69314, -0.198741 2.65979, -0.172451 2.6101, -0.146162 2.56073, -0.133017 2.50494, -0.133017 2.44306 L -0.133017 -3.33809 C -0.133017 -3.39933, -0.146162 -3.45479, -0.172451 -3.50449, -0.198741 -3.55386, -0.236893 -3.58752, -0.286266 -3.60484, -0.384692 -3.63529, -0.528003 -3.65229, -0.716519 -3.65581, -0.905035 -3.65902, -1.09964 -3.66094, -1.30066 -3.66126 L -1.30066 -4.0819 C -0.715878 -4.06779, -0.148727 -4.06106, 0.400791 -4.06138, 0.957362 -4.06106, 1.52644 -4.06779, 2.10737 -4.0819 L 2.10737 -3.66126 C 1.90667 -3.66094, 1.71207 -3.65902, 1.52355 -3.65581, 1.33504 -3.65229, 1.19333 -3.63529, 1.09811 -3.60484, 1.04873 -3.58752, 1.01026 -3.55322, 0.982049 -3.50192, 0.953835 -3.45063, 0.939729 -3.3958, 0.939729 -3.33809 L 0.939729 2.44306 C 0.939729 2.50494, 0.953194 2.56073, 0.979484 2.6101, 1.00577 2.65979, 1.04553 2.69314, 1.09811 2.70981, 1.19685 2.74091, 1.33952 2.75886, 1.52612 2.76399, 1.71271 2.76912, 1.90667 2.77169, 2.10737 2.77136 L 2.10737 3.19713 Z" stroke="none" fill="#000000" transform="matrix(1.12 0 0 1 15.2376 16.3063)" />
			<polyline points="-5.2528 6.04072 0 -6.04072" fill="none" stroke="#000000" stroke-width="0.750400007" stroke-linecap="round" stroke-linejoin="round" transform="matrix(7.54979e-008 1 -1 7.54979e-008 29.9123 11.2074)" />
			<polyline points="0 -6.04072 5.2528 6.04072" fill="none" stroke="#000000" stroke-width="0.750400007" stroke-linecap="round" stroke-linejoin="round" transform="matrix(7.54979e-008 1 -1 7.54979e-008 29.9123 11.2074)" />
			<ellipse cx="-5.252799779176712" cy="6.0407201945781708" rx="0.37520000338554382" ry="0.37520000338554382" stroke="none" fill="#000000" transform="matrix(7.54979e-008 1 -1 7.54979e-008 29.9123 11.2074)" />
			<ellipse cx="-0" cy="-6.0407197773456573" rx="0.37520000338554382" ry="0.37520000338554382" stroke="none" fill="#000000" transform="matrix(7.54979e-008 1 -1 7.54979e-008 29.9123 11.2074)" />
			<ellipse cx="5.2528001964092255" cy="6.0407201945781708" rx="0.37520000338554382" ry="0.37520000338554382" stroke="none" fill="#000000" transform="matrix(7.54979e-008 1 -1 7.54979e-008 29.9123 11.2074)" />
			<path d="M 50.5397 10.519 C 50.5397 11.3813, 50.4797 12.2386, 50.3596 13.0914, 50.2395 13.9442, 49.9422 14.7449, 49.4675 15.4922, 49.1286 16.0376, 48.6753 16.4561, 48.1086 16.749, 47.542 17.0424, 46.9254 17.1888, 46.2594 17.1888, 45.6187 17.1888, 45.0133 17.0424, 44.4432 16.749, 43.8732 16.4561, 43.4182 16.0376, 43.0793 15.4922, 42.6052 14.7449, 42.3078 13.9442, 42.1878 13.0914, 42.0677 12.2386, 42.0071 11.3813, 42.0071 10.519, 42.0071 9.64596, 42.0677 8.77352, 42.1878 7.90275, 42.3078 7.03199, 42.6052 6.21677, 43.0793 5.45597, 43.4182 4.90613, 43.8715 4.47804, 44.4382 4.17283, 45.0054 3.86761, 45.6125 3.715, 46.2594 3.71444, 46.9192 3.715, 47.5336 3.86761, 48.1036 4.17283, 48.6736 4.47804, 49.1286 4.90613, 49.4675 5.45597, 49.9422 6.21677, 50.2395 7.03199, 50.3596 7.90275, 50.4797 8.77352, 50.5397 9.64596, 50.5397 10.519 Z M 48.709 10.2048 C 48.709 9.82831, 48.7062 9.43052, 48.7 9.0114, 48.6944 8.59285, 48.6787 8.18272, 48.654 7.78156, 48.6293 7.38097, 48.585 7.00225, 48.5199 6.64598, 48.4554 6.29027, 48.3768 5.98617, 48.2843 5.73426, 48.0991 5.32805, 47.8281 4.99422, 47.4707 4.73389, 47.1133 4.47355, 46.7094 4.34339, 46.2594 4.34283, 45.8218 4.34339, 45.4262 4.47524, 45.0716 4.73837, 44.7176 5.00207, 44.4477 5.33366, 44.2626 5.73426, 44.1706 5.98617, 44.092 6.29027, 44.0269 6.64598, 43.9624 7.00225, 43.9175 7.38097, 43.8928 7.78156, 43.8682 8.18272, 43.853 8.59285, 43.8468 9.0114, 43.8407 9.43052, 43.8373 9.82831, 43.8373 10.2048, 43.8373 10.6245, 43.8407 11.066, 43.8468 11.5294, 43.853 11.9934, 43.8682 12.4423, 43.8928 12.876, 43.9175 13.3102, 43.9624 13.7215, 44.0269 14.1103, 44.092 14.4997, 44.1706 14.8257, 44.2626 15.0882, 44.4354 15.5259, 44.7024 15.8849, 45.0626 16.166, 45.4228 16.4477, 45.8218 16.588, 46.2594 16.5874, 46.7155 16.588, 47.124 16.4477, 47.4842 16.166, 47.8449 15.8849, 48.1114 15.5259, 48.2843 15.0882, 48.3768 14.8257, 48.4554 14.4997, 48.5199 14.1103, 48.585 13.7215, 48.6293 13.3102, 48.654 12.876, 48.6787 12.4423, 48.6944 11.9934, 48.7 11.5294, 48.7062 11.066, 48.709 10.6245, 48.709 10.2048 Z" stroke="none" fill="#000000" />
			<rect />
		</svg>
	</g>
	<path d="M 67.592 23.9051 L 62.9186 34.3783 C 50.5081 57.1082, 26.5284 71.6821, 0.0343683 71.6948" fill="none" stroke="#E60000" stroke-width="2.9333334" stroke-linecap="round" stroke-linejoin="round" marker-start="url(#CustomMarker-04)" transform="matrix(0.454545 0 -0 0.454545 166.565 143.819)" />
	<path d="M 0 0 L 202.718 71.6949" fill="none" stroke="#000000" stroke-width="2.9333334" stroke-linecap="round" stroke-linejoin="round" transform="matrix(0.454545 0 -0 0.454545 166.565 143.819)" />
	<path d="M 0 0 L 0.0489596 102.202" fill="none" stroke="#000000" stroke-width="2.9333334" stroke-linecap="round" stroke-linejoin="round" transform="matrix(0.454545 0 -0 0.454545 166.565 143.819)" />
	<g transform="matrix(1 0 -0 1 180.741 179.009)">
		<svg width="168.04921" height="54.0428391">
			<defs />
			<path d="M 12.9653 14.9922 C 12.8966 15.2676, 12.793 15.5378, 12.6545 15.8035, 12.5159 16.0691, 12.3465 16.309, 12.1449 16.5226, 11.9434 16.7367, 11.7184 16.9113, 11.47 17.0487, 11.2215 17.1861, 10.953 17.2548, 10.6633 17.2548, 9.75128 17.2548, 9.06541 17.0138, 8.60626 16.5311, 8.29195 16.202, 8.13451 15.7869, 8.13451 15.2854, 8.13451 15.0295, 8.17573 14.7518, 8.2576 14.4518 L 8.68183 12.8121 C 8.73221 12.6049, 8.7574 12.4097, 8.7574 12.2259, 8.7574 12.1348, 8.7511 12.0404, 8.73851 11.9419, 8.70072 11.686, 8.61313 11.4604, 8.47458 11.2646, 8.33603 11.0694, 8.15856 10.9154, 7.94158 10.802, 7.72459 10.6893, 7.46811 10.6326, 7.17212 10.632 L 5.0401 10.632, 3.78515 15.5144 C 3.75996 15.6312, 3.74737 15.7256, 3.74737 15.7983, 3.74737 15.8905, 3.76626 15.9518, 3.80405 15.9815, 3.88592 16.0308, 4.05595 16.06, 4.31358 16.0691, 4.57178 16.0783, 4.84831 16.0829, 5.14372 16.0823, 5.32005 16.0829, 5.40822 16.1562, 5.40822 16.3021, 5.40822 16.3394, 5.40192 16.3789, 5.38933 16.4212 L 5.35154 16.5678 C 5.28284 16.751, 5.15975 16.8426, 4.98342 16.8426, 4.20996 16.806, 3.4302 16.7876, 2.64357 16.7876, 1.85751 16.7876, 1.06802 16.806, 0.27567 16.8426, 0.106207 16.8426, 0.0151782 16.7636, 0.00201051 16.6044 L 0.00201051 16.5311, 0.0397962 16.3754 C 0.090177 16.1745, 0.212694 16.0766, 0.407347 16.0823, 0.703335 16.0829, 0.983292 16.0783, 1.24722 16.0691, 1.51172 16.06, 1.70637 16.0279, 1.83232 15.9724, 1.95198 15.906, 2.04301 15.7411, 2.10598 15.4777 L 4.75728 5.15423 C 4.79506 5.02027, 4.81338 4.91664, 4.81338 4.84279, 4.81338 4.77008, 4.79792 4.72714, 4.76644 4.71455, 4.67827 4.66016, 4.50709 4.62695, 4.25232 4.61436, 3.99756 4.60234, 3.71932 4.59604, 3.41703 4.59547, 3.24127 4.59604, 3.1531 4.5136, 3.1531 4.34814 L 3.1531 4.27486, 3.20978 4.11914 C 3.24757 3.93651, 3.36436 3.84491, 3.55901 3.84433 L 8.87076 3.84433 C 9.46846 3.84491, 10.0375 3.92448, 10.5786 4.08307, 11.1196 4.24223, 11.5913 4.50444, 11.9938 4.87027, 12.327 5.16397, 12.5692 5.52408, 12.7203 5.95117, 12.8148 6.18361, 12.8652 6.42521, 12.8709 6.67482, 12.8709 6.90154, 12.8365 7.12424, 12.7673 7.34351, 12.6482 7.83244, 12.3997 8.27556, 12.0219 8.67231, 11.6446 9.06963, 11.2198 9.40798, 10.748 9.68851, 10.4211 9.87859, 10.0896 10.036, 9.753 10.1608, 9.41636 10.2862, 9.17591 10.3641, 9.03106 10.3938, 9.38945 10.5347, 9.72952 10.8095, 10.0501 11.2183, 10.3209 11.5732, 10.456 11.9974, 10.456 12.4915, 10.456 12.5957, 10.4497 12.6999, 10.4371 12.803 L 10.2574 14.4518 C 10.2076 14.88, 10.1824 15.2522, 10.1824 15.5693, 10.1824 15.7777, 10.195 15.9609, 10.2202 16.1189, 10.2642 16.4796, 10.4526 16.66, 10.7858 16.6594, 11.0881 16.66, 11.3646 16.4968, 11.6165 16.1699, 11.8684 15.8436, 12.0539 15.4388, 12.173 14.9556, 12.2423 14.773, 12.3648 14.6842, 12.5411 14.69 L 12.6917 14.69 C 12.8617 14.6905, 12.9528 14.7701, 12.9653 14.9281 L 12.9653 14.9922 Z M 10.748 7.28855 C 10.8488 6.92272, 10.9055 6.55631, 10.9181 6.18933 L 10.9181 6.13437 C 10.9181 5.8235, 10.8207 5.55499, 10.6255 5.32828, 10.3931 5.06034, 10.0896 4.87084, 9.71521 4.76092, 9.34079 4.651, 8.9303 4.59604, 8.48374 4.59547 L 7.2288 4.59547 C 6.9082 4.59604, 6.7164 4.62066, 6.65343 4.66932, 6.59045 4.71856, 6.52461 4.89203, 6.45534 5.19088 L 5.21013 10.0366, 7.03071 10.0366 C 7.47727 10.0372, 7.9181 9.98221, 8.35207 9.87229, 8.78603 9.76237, 9.19823 9.56714, 9.58754 9.28547, 9.92131 9.04787, 10.1732 8.74902, 10.3427 8.38834, 10.5127 8.02823, 10.6478 7.66183, 10.748 7.28855 Z" stroke="none" fill="#E60000" />
			<path d="M 2.11118 3.19713 C 1.53024 3.17661, 0.961164 3.16635, 0.404593 3.16635, -0.144925 3.16635, -0.712076 3.17661, -1.29686 3.19713 L -1.29686 2.77136 C -1.09584 2.77169, -0.901233 2.76912, -0.712717 2.76399, -0.524201 2.75886, -0.38089 2.74091, -0.282465 2.70981, -0.233091 2.69314, -0.194939 2.65979, -0.16865 2.6101, -0.14236 2.56073, -0.129215 2.50494, -0.129215 2.44306 L -0.129215 -3.33809 C -0.129215 -3.39933, -0.14236 -3.45479, -0.16865 -3.50449, -0.194939 -3.55386, -0.233091 -3.58752, -0.282465 -3.60484, -0.38089 -3.63529, -0.524201 -3.65229, -0.712717 -3.65581, -0.901233 -3.65902, -1.09584 -3.66094, -1.29686 -3.66126 L -1.29686 -4.0819 C -0.712076 -4.06779, -0.144925 -4.06106, 0.404593 -4.06138, 0.961164 -4.06106, 1.53024 -4.06779, 2.11118 -4.0819 L 2.11118 -3.66126 C 1.91048 -3.66094, 1.71587 -3.65902, 1.52735 -3.65581, 1.33884 -3.65229, 1.19713 -3.63529, 1.10191 -3.60484, 1.05254 -3.58752, 1.01406 -3.55322, 0.985851 -3.50192, 0.957637 -3.45063, 0.943531 -3.3958, 0.943531 -3.33809 L 0.943531 2.44306 C 0.943531 2.50494, 0.956996 2.56073, 0.983286 2.6101, 1.00958 2.65979, 1.04933 2.69314, 1.10191 2.70981, 1.20066 2.74091, 1.34333 2.75886, 1.52992 2.76399, 1.71651 2.76912, 1.91048 2.77169, 2.11118 2.77136 L 2.11118 3.19713 Z" stroke="none" fill="#E60000" transform="matrix(1.12 0 0 1 15.2376 16.3063)" />
			<path d="M 2.10686 3.19713 C 1.52593 3.17661, 0.956851 3.16635, 0.40028 3.16635, -0.149238 3.16635, -0.716389 3.17661, -1.30117 3.19713 L -1.30117 2.77136 C -1.10015 2.77169, -0.905546 2.76912, -0.71703 2.76399, -0.528514 2.75886, -0.385203 2.74091, -0.286777 2.70981, -0.237404 2.69314, -0.199252 2.65979, -0.172962 2.6101, -0.146673 2.56073, -0.133528 2.50494, -0.133528 2.44306 L -0.133528 -3.33809 C -0.133528 -3.39933, -0.146673 -3.45479, -0.172962 -3.50449, -0.199252 -3.55386, -0.237404 -3.58752, -0.286777 -3.60484, -0.385203 -3.63529, -0.528514 -3.65229, -0.71703 -3.65581, -0.905546 -3.65902, -1.10015 -3.66094, -1.30117 -3.66126 L -1.30117 -4.0819 C -0.716389 -4.06779, -0.149238 -4.06106, 0.40028 -4.06138, 0.956851 -4.06106, 1.52593 -4.06779, 2.10686 -4.0819 L 2.10686 -3.66126 C 1.90616 -3.66094, 1.71156 -3.65902, 1.52304 -3.65581, 1.33452 -3.65229, 1.19282 -3.63529, 1.0976 -3.60484, 1.04822 -3.58752, 1.00975 -3.55322, 0.981538 -3.50192, 0.953324 -3.45063, 0.939218 -3.3958, 0.939218 -3.33809 L 0.939218 2.44306 C 0.939218 2.50494, 0.952683 2.56073, 0.978973 2.6101, 1.00526 2.65979, 1.04502 2.69314, 1.0976 2.70981, 1.19634 2.74091, 1.33901 2.75886, 1.52561 2.76399, 1.7122 2.76912, 1.90616 2.77169, 2.10686 2.77136 L 2.10686 3.19713 Z" stroke="none" fill="#E60000" transform="matrix(1.12 0 0 1 19.516 16.3063)" />
			<polyline points="-5.2528 6.04072 0 -6.04072" fill="none" stroke="#E60000" stroke-width="0.750400007" stroke-linecap="round" stroke-linejoin="round" transform="matrix(-4.37114e-008 -1 1 -4.37114e-008 34.1067 11.2074)" />
			<polyline points="0 -6.04072 5.2528 6.04072" fill="none" stroke="#E60000" stroke-width="0.750400007" stroke-linecap="round" stroke-linejoin="round" transform="matrix(-4.37114e-008 -1 1 -4.37114e-008 34.1067 11.2074)" />
			<ellipse cx="-5.252799779176712" cy="6.0407201945781708" rx="0.37520000338554382" ry="0.37520000338554382" stroke="none" fill="#E60000" transform="matrix(-4.37114e-008 -1 1 -4.37114e-008 34.1067 11.2074)" />
			<ellipse cx="-0" cy="-6.0407197773456573" rx="0.37520000338554382" ry="0.37520000338554382" stroke="none" fill="#E60000" transform="matrix(-4.37114e-008 -1 1 -4.37114e-008 34.1067 11.2074)" />
			<ellipse cx="5.2528001964092255" cy="6.0407201945781708" rx="0.37520000338554382" ry="0.37520000338554382" stroke="none" fill="#E60000" transform="matrix(-4.37114e-008 -1 1 -4.37114e-008 34.1067 11.2074)" />
			<path d="M 54.7332 10.519 C 54.7332 11.3813, 54.6732 12.2386, 54.5531 13.0914, 54.4331 13.9442, 54.1357 14.7449, 53.661 15.4922, 53.3222 16.0376, 52.8688 16.4561, 52.3016 16.749, 51.7349 17.0424, 51.1183 17.1888, 50.4523 17.1888, 49.8116 17.1888, 49.2057 17.0424, 48.6356 16.749, 48.0656 16.4561, 47.6106 16.0376, 47.2717 15.4922, 46.797 14.7449, 46.4997 13.9442, 46.3796 13.0914, 46.2595 12.2386, 46.1989 11.3813, 46.1989 10.519, 46.1989 9.64596, 46.2595 8.77352, 46.3796 7.90275, 46.4997 7.03199, 46.797 6.21677, 47.2717 5.45597, 47.6106 4.90613, 48.0639 4.47804, 48.6311 4.17283, 49.1984 3.86761, 49.8054 3.715, 50.4523 3.71444, 51.1121 3.715, 51.7271 3.86761, 52.2971 4.17283, 52.8671 4.47804, 53.3222 4.90613, 53.661 5.45597, 54.1357 6.21677, 54.4331 7.03199, 54.5531 7.90275, 54.6732 8.77352, 54.7332 9.64596, 54.7332 10.519 Z M 52.9025 10.2048 C 52.9025 9.82831, 52.8997 9.43052, 52.8935 9.0114, 52.8873 8.59285, 52.8716 8.18272, 52.8469 7.78156, 52.8223 7.38097, 52.7779 7.00225, 52.7128 6.64598, 52.6483 6.29027, 52.5698 5.98617, 52.4772 5.73426, 52.2926 5.32805, 52.0216 4.99422, 51.6637 4.73389, 51.3063 4.47355, 50.9023 4.34339, 50.4523 4.34283, 50.0147 4.34339, 49.6192 4.47524, 49.2646 4.73837, 48.91 5.00207, 48.6401 5.33366, 48.455 5.73426, 48.363 5.98617, 48.2844 6.29027, 48.2193 6.64598, 48.1548 7.00225, 48.1099 7.38097, 48.0852 7.78156, 48.0605 8.18272, 48.0454 8.59285, 48.0392 9.0114, 48.0331 9.43052, 48.0297 9.82831, 48.0297 10.2048, 48.0297 10.6245, 48.0331 11.066, 48.0392 11.5294, 48.0454 11.9934, 48.0605 12.4423, 48.0852 12.876, 48.1099 13.3102, 48.1548 13.7215, 48.2193 14.1103, 48.2844 14.4997, 48.363 14.8257, 48.455 15.0882, 48.6278 15.5259, 48.8948 15.8849, 49.255 16.166, 49.6158 16.4477, 50.0147 16.588, 50.4523 16.5874, 50.909 16.588, 51.3175 16.4477, 51.6777 16.166, 52.0385 15.8849, 52.305 15.5259, 52.4772 15.0882, 52.5698 14.8257, 52.6483 14.4997, 52.7128 14.1103, 52.7779 13.7215, 52.8223 13.3102, 52.8469 12.876, 52.8716 12.4423, 52.8873 11.9934, 52.8935 11.5294, 52.8997 11.066, 52.9025 10.6245, 52.9025 10.2048 Z" stroke="none" fill="#E60000" />
			<rect />
		</svg>
	</g>
	<path d="M 2.2698e-005 56.2398 C -17.47 56.2399, -33.3411 45.7942, -42.1829 29.3236 L -46.7841 18.1541" fill="none" stroke="#000000" stroke-width="2.9333334" stroke-linecap="round" stroke-linejoin="round" marker-end="url(#CustomMarker-05)" transform="matrix(0.454545 0 -0 0.454545 166.565 143.819)" />
	<path d="M 0 0 L 0 102.113" fill="none" stroke="#000000" stroke-width="2.9333334" stroke-linecap="round" stroke-linejoin="round" transform="matrix(0.454545 0 -0 0.454545 166.565 143.819)" />
	<path d="M 0 0 L -236.441 91.7488" fill="none" stroke="#000000" stroke-width="2.9333334" stroke-linecap="round" stroke-linejoin="round" transform="matrix(0.454545 0 -0 0.454545 166.565 143.819)" />
	<g transform="matrix(1 0 -0 1 72.7675 106.99)">
		<svg width="182.971817" height="54.0428391">
			<defs />
			<path d="M 12.9653 14.9922 C 12.8966 15.2676, 12.793 15.5378, 12.6545 15.8035, 12.5159 16.0691, 12.3465 16.309, 12.1449 16.5226, 11.9434 16.7367, 11.7184 16.9113, 11.47 17.0487, 11.2215 17.1861, 10.953 17.2548, 10.6633 17.2548, 9.75128 17.2548, 9.06541 17.0138, 8.60626 16.5311, 8.29195 16.202, 8.13451 15.7869, 8.13451 15.2854, 8.13451 15.0295, 8.17573 14.7518, 8.2576 14.4518 L 8.68183 12.8121 C 8.73221 12.6049, 8.7574 12.4097, 8.7574 12.2259, 8.7574 12.1348, 8.7511 12.0404, 8.73851 11.9419, 8.70072 11.686, 8.61313 11.4604, 8.47458 11.2646, 8.33603 11.0694, 8.15856 10.9154, 7.94158 10.802, 7.72459 10.6893, 7.46811 10.6326, 7.17212 10.632 L 5.0401 10.632, 3.78515 15.5144 C 3.75996 15.6312, 3.74737 15.7256, 3.74737 15.7983, 3.74737 15.8905, 3.76626 15.9518, 3.80405 15.9815, 3.88592 16.0308, 4.05595 16.06, 4.31358 16.0691, 4.57178 16.0783, 4.84831 16.0829, 5.14372 16.0823, 5.32005 16.0829, 5.40822 16.1562, 5.40822 16.3021, 5.40822 16.3394, 5.40192 16.3789, 5.38933 16.4212 L 5.35154 16.5678 C 5.28284 16.751, 5.15975 16.8426, 4.98342 16.8426, 4.20996 16.806, 3.4302 16.7876, 2.64357 16.7876, 1.85751 16.7876, 1.06802 16.806, 0.27567 16.8426, 0.106207 16.8426, 0.0151782 16.7636, 0.00201051 16.6044 L 0.00201051 16.5311, 0.0397962 16.3754 C 0.090177 16.1745, 0.212694 16.0766, 0.407347 16.0823, 0.703335 16.0829, 0.983292 16.0783, 1.24722 16.0691, 1.51172 16.06, 1.70637 16.0279, 1.83232 15.9724, 1.95198 15.906, 2.04301 15.7411, 2.10598 15.4777 L 4.75728 5.15423 C 4.79506 5.02027, 4.81338 4.91664, 4.81338 4.84279, 4.81338 4.77008, 4.79792 4.72714, 4.76644 4.71455, 4.67827 4.66016, 4.50709 4.62695, 4.25232 4.61436, 3.99756 4.60234, 3.71932 4.59604, 3.41703 4.59547, 3.24127 4.59604, 3.1531 4.5136, 3.1531 4.34814 L 3.1531 4.27486, 3.20978 4.11914 C 3.24757 3.93651, 3.36436 3.84491, 3.55901 3.84433 L 8.87076 3.84433 C 9.46846 3.84491, 10.0375 3.92448, 10.5786 4.08307, 11.1196 4.24223, 11.5913 4.50444, 11.9938 4.87027, 12.327 5.16397, 12.5692 5.52408, 12.7203 5.95117, 12.8148 6.18361, 12.8652 6.42521, 12.8709 6.67482, 12.8709 6.90154, 12.8365 7.12424, 12.7673 7.34351, 12.6482 7.83244, 12.3997 8.27556, 12.0219 8.67231, 11.6446 9.06963, 11.2198 9.40798, 10.748 9.68851, 10.4211 9.87859, 10.0896 10.036, 9.753 10.1608, 9.41636 10.2862, 9.17591 10.3641, 9.03106 10.3938, 9.38945 10.5347, 9.72952 10.8095, 10.0501 11.2183, 10.3209 11.5732, 10.456 11.9974, 10.456 12.4915, 10.456 12.5957, 10.4497 12.6999, 10.4371 12.803 L 10.2574 14.4518 C 10.2076 14.88, 10.1824 15.2522, 10.1824 15.5693, 10.1824 15.7777, 10.195 15.9609, 10.2202 16.1189, 10.2642 16.4796, 10.4526 16.66, 10.7858 16.6594, 11.0881 16.66, 11.3646 16.4968, 11.6165 16.1699, 11.8684 15.8436, 12.0539 15.4388, 12.173 14.9556, 12.2423 14.773, 12.3648 14.6842, 12.5411 14.69 L 12.6917 14.69 C 12.8617 14.6905, 12.9528 14.7701, 12.9653 14.9281 L 12.9653 14.9922 Z M 10.748 7.28855 C 10.8488 6.92272, 10.9055 6.55631, 10.9181 6.18933 L 10.9181 6.13437 C 10.9181 5.8235, 10.8207 5.55499, 10.6255 5.32828, 10.3931 5.06034, 10.0896 4.87084, 9.71521 4.76092, 9.34079 4.651, 8.9303 4.59604, 8.48374 4.59547 L 7.2288 4.59547 C 6.9082 4.59604, 6.7164 4.62066, 6.65343 4.66932, 6.59045 4.71856, 6.52461 4.89203, 6.45534 5.19088 L 5.21013 10.0366, 7.03071 10.0366 C 7.47727 10.0372, 7.9181 9.98221, 8.35207 9.87229, 8.78603 9.76237, 9.19823 9.56714, 9.58754 9.28547, 9.92131 9.04787, 10.1732 8.74902, 10.3427 8.38834, 10.5127 8.02823, 10.6478 7.66183, 10.748 7.28855 Z" stroke="none" fill="#E60000" />
			<path d="M 2.11118 3.19713 C 1.53024 3.17661, 0.961164 3.16635, 0.404593 3.16635, -0.144925 3.16635, -0.712076 3.17661, -1.29686 3.19713 L -1.29686 2.77136 C -1.09584 2.77169, -0.901233 2.76912, -0.712717 2.76399, -0.524201 2.75886, -0.38089 2.74091, -0.282465 2.70981, -0.233091 2.69314, -0.194939 2.65979, -0.16865 2.6101, -0.14236 2.56073, -0.129215 2.50494, -0.129215 2.44306 L -0.129215 -3.33809 C -0.129215 -3.39933, -0.14236 -3.45479, -0.16865 -3.50449, -0.194939 -3.55386, -0.233091 -3.58752, -0.282465 -3.60484, -0.38089 -3.63529, -0.524201 -3.65229, -0.712717 -3.65581, -0.901233 -3.65902, -1.09584 -3.66094, -1.29686 -3.66126 L -1.29686 -4.0819 C -0.712076 -4.06779, -0.144925 -4.06106, 0.404593 -4.06138, 0.961164 -4.06106, 1.53024 -4.06779, 2.11118 -4.0819 L 2.11118 -3.66126 C 1.91048 -3.66094, 1.71587 -3.65902, 1.52735 -3.65581, 1.33884 -3.65229, 1.19713 -3.63529, 1.10191 -3.60484, 1.05254 -3.58752, 1.01406 -3.55322, 0.985851 -3.50192, 0.957637 -3.45063, 0.943531 -3.3958, 0.943531 -3.33809 L 0.943531 2.44306 C 0.943531 2.50494, 0.956996 2.56073, 0.983286 2.6101, 1.00958 2.65979, 1.04933 2.69314, 1.10191 2.70981, 1.20066 2.74091, 1.34333 2.75886, 1.52992 2.76399, 1.71651 2.76912, 1.91048 2.77169, 2.11118 2.77136 L 2.11118 3.19713 Z" stroke="none" fill="#E60000" transform="matrix(1.12 0 0 1 15.2376 16.3063)" />
			<path d="M 4.29428 -3.66126 C 4.13237 -3.66094, 3.9897 -3.64876, 3.86659 -3.62504, 3.74348 -3.60099, 3.6287 -3.55995, 3.5229 -3.50224, 3.34689 -3.3958, 3.2132 -3.23518, 3.1215 -3.02005 L 0.675603 3.28433 C 0.630077 3.38372, 0.55249 3.43149, 0.443164 3.42796 L 0.358845 3.42796 C 0.249839 3.42796, 0.172252 3.38019, 0.126406 3.28433 L -2.43555 -3.31757 C -2.46377 -3.38234, -2.49551 -3.44037, -2.53077 -3.49166, -2.56604 -3.54296, -2.61702 -3.58047, -2.68402 -3.60484, -2.76481 -3.63529, -2.87831 -3.65229, -3.0245 -3.65581, -3.1707 -3.65902, -3.32651 -3.66094, -3.49227 -3.66126 L -3.49227 -4.08703 C -3.03765 -4.06266, -2.60291 -4.0508, -2.1874 -4.05112, -2.12392 -4.0508, -2.05499 -4.05433, -1.98125 -4.06138, -1.49874 -4.06106, -0.993469 -4.06779, -0.465111 -4.0819 L -0.465111 -3.66126 C -0.62349 -3.66094, -0.764557 -3.65742, -0.887669 -3.65068, -1.01078 -3.64363, -1.12203 -3.6183, -1.22078 -3.57406, -1.2663 -3.54969, -1.30157 -3.51731, -1.32626 -3.47659, -1.34389 -3.44902, -1.35287 -3.42337, -1.35287 -3.39965, -1.35287 -3.38554, -1.35094 -3.37015, -1.34742 -3.35348 L 0.723373 1.95062, 2.67778 -3.06109 C 2.69542 -3.10181, 2.70407 -3.14797, 2.70407 -3.19959, 2.70407 -3.29834, 2.65662 -3.39067, 2.56172 -3.47659, 2.48093 -3.54809, 2.3902 -3.59682, 2.28953 -3.62247, 2.18918 -3.64812, 2.06158 -3.66094, 1.90641 -3.66126 L 1.90641 -4.0819 C 2.33281 -4.06779, 2.73421 -4.06106, 3.11092 -4.06138, 3.1603 -4.05433, 3.2132 -4.0508, 3.2693 -4.05112, 3.59343 -4.0508, 3.9352 -4.06266, 4.29428 -4.08703 L 4.29428 -3.66126 Z" stroke="none" fill="#E60000" transform="matrix(1.12 0 0 1 21.8802 16.3063)" />
			<polyline points="-5.2528 6.04072 0 -6.04072" fill="none" stroke="#E60000" stroke-width="0.750400007" stroke-linecap="round" stroke-linejoin="round" transform="matrix(-4.37114e-008 -1 1 -4.37114e-008 38.8351 11.2074)" />
			<polyline points="0 -6.04072 5.2528 6.04072" fill="none" stroke="#E60000" stroke-width="0.750400007" stroke-linecap="round" stroke-linejoin="round" transform="matrix(-4.37114e-008 -1 1 -4.37114e-008 38.8351 11.2074)" />
			<ellipse cx="-5.252799779176712" cy="6.0407201945781708" rx="0.37520000338554382" ry="0.37520000338554382" stroke="none" fill="#E60000" transform="matrix(-4.37114e-008 -1 1 -4.37114e-008 38.8351 11.2074)" />
			<ellipse cx="-0" cy="-6.0407197773456573" rx="0.37520000338554382" ry="0.37520000338554382" stroke="none" fill="#E60000" transform="matrix(-4.37114e-008 -1 1 -4.37114e-008 38.8351 11.2074)" />
			<ellipse cx="5.2528001964092255" cy="6.0407201945781708" rx="0.37520000338554382" ry="0.37520000338554382" stroke="none" fill="#E60000" transform="matrix(-4.37114e-008 -1 1 -4.37114e-008 38.8351 11.2074)" />
			<path d="M 59.4616 10.519 C 59.4616 11.3813, 59.4015 12.2386, 59.2815 13.0914, 59.1614 13.9442, 58.864 14.7449, 58.3894 15.4922, 58.0505 16.0376, 57.5972 16.4561, 57.0299 16.749, 56.4633 17.0424, 55.8467 17.1888, 55.1807 17.1888, 54.54 17.1888, 53.934 17.0424, 53.364 16.749, 52.7939 16.4561, 52.3389 16.0376, 52 15.4922, 51.5254 14.7449, 51.228 13.9442, 51.1079 13.0914, 50.9879 12.2386, 50.9273 11.3813, 50.9273 10.519, 50.9273 9.64596, 50.9879 8.77352, 51.1079 7.90275, 51.228 7.03199, 51.5254 6.21677, 52 5.45597, 52.3389 4.90613, 52.7922 4.47804, 53.3595 4.17283, 53.9267 3.86761, 54.5338 3.715, 55.1807 3.71444, 55.8405 3.715, 56.4554 3.86761, 57.0254 4.17283, 57.5955 4.47804, 58.0505 4.90613, 58.3894 5.45597, 58.864 6.21677, 59.1614 7.03199, 59.2815 7.90275, 59.4015 8.77352, 59.4616 9.64596, 59.4616 10.519 Z M 57.6308 10.2048 C 57.6308 9.82831, 57.628 9.43052, 57.6218 9.0114, 57.6157 8.59285, 57.6 8.18272, 57.5753 7.78156, 57.5506 7.38097, 57.5063 7.00225, 57.4412 6.64598, 57.3767 6.29027, 57.2981 5.98617, 57.2055 5.73426, 57.021 5.32805, 56.75 4.99422, 56.392 4.73389, 56.0346 4.47355, 55.6306 4.34339, 55.1807 4.34283, 54.7431 4.34339, 54.3475 4.47524, 53.9929 4.73837, 53.6383 5.00207, 53.3685 5.33366, 53.1833 5.73426, 53.0913 5.98617, 53.0127 6.29027, 52.9477 6.64598, 52.8831 7.00225, 52.8383 7.38097, 52.8136 7.78156, 52.7889 8.18272, 52.7737 8.59285, 52.7676 9.0114, 52.7614 9.43052, 52.758 9.82831, 52.758 10.2048, 52.758 10.6245, 52.7614 11.066, 52.7676 11.5294, 52.7737 11.9934, 52.7889 12.4423, 52.8136 12.876, 52.8383 13.3102, 52.8831 13.7215, 52.9477 14.1103, 53.0127 14.4997, 53.0913 14.8257, 53.1833 15.0882, 53.3561 15.5259, 53.6232 15.8849, 53.9834 16.166, 54.3441 16.4477, 54.7431 16.588, 55.1807 16.5874, 55.6374 16.588, 56.0458 16.4477, 56.406 16.166, 56.7668 15.8849, 57.0333 15.5259, 57.2055 15.0882, 57.2981 14.8257, 57.3767 14.4997, 57.4412 14.1103, 57.5063 13.7215, 57.5506 13.3102, 57.5753 12.876, 57.6 12.4423, 57.6157 11.9934, 57.6218 11.5294, 57.628 11.066, 57.6308 10.6245, 57.6308 10.2048 Z" stroke="none" fill="#E60000" />
			<rect />
		</svg>
	</g>
	<g transform="matrix(1 0 -0 1 95.5404 179.009)">
		<svg width="182.971817" height="54.0428391">
			<defs />
			<path d="M 12.9653 14.9922 C 12.8966 15.2676, 12.793 15.5378, 12.6545 15.8035, 12.5159 16.0691, 12.3465 16.309, 12.1449 16.5226, 11.9434 16.7367, 11.7184 16.9113, 11.47 17.0487, 11.2215 17.1861, 10.953 17.2548, 10.6633 17.2548, 9.75128 17.2548, 9.06541 17.0138, 8.60626 16.5311, 8.29195 16.202, 8.13451 15.7869, 8.13451 15.2854, 8.13451 15.0295, 8.17573 14.7518, 8.2576 14.4518 L 8.68183 12.8121 C 8.73221 12.6049, 8.7574 12.4097, 8.7574 12.2259, 8.7574 12.1348, 8.7511 12.0404, 8.73851 11.9419, 8.70072 11.686, 8.61313 11.4604, 8.47458 11.2646, 8.33603 11.0694, 8.15856 10.9154, 7.94158 10.802, 7.72459 10.6893, 7.46811 10.6326, 7.17212 10.632 L 5.0401 10.632, 3.78515 15.5144 C 3.75996 15.6312, 3.74737 15.7256, 3.74737 15.7983, 3.74737 15.8905, 3.76626 15.9518, 3.80405 15.9815, 3.88592 16.0308, 4.05595 16.06, 4.31358 16.0691, 4.57178 16.0783, 4.84831 16.0829, 5.14372 16.0823, 5.32005 16.0829, 5.40822 16.1562, 5.40822 16.3021, 5.40822 16.3394, 5.40192 16.3789, 5.38933 16.4212 L 5.35154 16.5678 C 5.28284 16.751, 5.15975 16.8426, 4.98342 16.8426, 4.20996 16.806, 3.4302 16.7876, 2.64357 16.7876, 1.85751 16.7876, 1.06802 16.806, 0.27567 16.8426, 0.106207 16.8426, 0.0151782 16.7636, 0.00201051 16.6044 L 0.00201051 16.5311, 0.0397962 16.3754 C 0.090177 16.1745, 0.212694 16.0766, 0.407347 16.0823, 0.703335 16.0829, 0.983292 16.0783, 1.24722 16.0691, 1.51172 16.06, 1.70637 16.0279, 1.83232 15.9724, 1.95198 15.906, 2.04301 15.7411, 2.10598 15.4777 L 4.75728 5.15423 C 4.79506 5.02027, 4.81338 4.91664, 4.81338 4.84279, 4.81338 4.77008, 4.79792 4.72714, 4.76644 4.71455, 4.67827 4.66016, 4.50709 4.62695, 4.25232 4.61436, 3.99756 4.60234, 3.71932 4.59604, 3.41703 4.59547, 3.24127 4.59604, 3.1531 4.5136, 3.1531 4.34814 L 3.1531 4.27486, 3.20978 4.11914 C 3.24757 3.93651, 3.36436 3.84491, 3.55901 3.84433 L 8.87076 3.84433 C 9.46846 3.84491, 10.0375 3.92448, 10.5786 4.08307, 11.1196 4.24223, 11.5913 4.50444, 11.9938 4.87027, 12.327 5.16397, 12.5692 5.52408, 12.7203 5.95117, 12.8148 6.18361, 12.8652 6.42521, 12.8709 6.67482, 12.8709 6.90154, 12.8365 7.12424, 12.7673 7.34351, 12.6482 7.83244, 12.3997 8.27556, 12.0219 8.67231, 11.6446 9.06963, 11.2198 9.40798, 10.748 9.68851, 10.4211 9.87859, 10.0896 10.036, 9.753 10.1608, 9.41636 10.2862, 9.17591 10.3641, 9.03106 10.3938, 9.38945 10.5347, 9.72952 10.8095, 10.0501 11.2183, 10.3209 11.5732, 10.456 11.9974, 10.456 12.4915, 10.456 12.5957, 10.4497 12.6999, 10.4371 12.803 L 10.2574 14.4518 C 10.2076 14.88, 10.1824 15.2522, 10.1824 15.5693, 10.1824 15.7777, 10.195 15.9609, 10.2202 16.1189, 10.2642 16.4796, 10.4526 16.66, 10.7858 16.6594, 11.0881 16.66, 11.3646 16.4968, 11.6165 16.1699, 11.8684 15.8436, 12.0539 15.4388, 12.173 14.9556, 12.2423 14.773, 12.3648 14.6842, 12.5411 14.69 L 12.6917 14.69 C 12.8617 14.6905, 12.9528 14.7701, 12.9653 14.9281 L 12.9653 14.9922 Z M 10.748 7.28855 C 10.8488 6.92272, 10.9055 6.55631, 10.9181 6.18933 L 10.9181 6.13437 C 10.9181 5.8235, 10.8207 5.55499, 10.6255 5.32828, 10.3931 5.06034, 10.0896 4.87084, 9.71521 4.76092, 9.34079 4.651, 8.9303 4.59604, 8.48374 4.59547 L 7.2288 4.59547 C 6.9082 4.59604, 6.7164 4.62066, 6.65343 4.66932, 6.59045 4.71856, 6.52461 4.89203, 6.45534 5.19088 L 5.21013 10.0366, 7.03071 10.0366 C 7.47727 10.0372, 7.9181 9.98221, 8.35207 9.87229, 8.78603 9.76237, 9.19823 9.56714, 9.58754 9.28547, 9.92131 9.04787, 10.1732 8.74902, 10.3427 8.38834, 10.5127 8.02823, 10.6478 7.66183, 10.748 7.28855 Z" stroke="none" fill="#000000" />
			<path d="M 2.11118 3.19713 C 1.53024 3.17661, 0.961164 3.16635, 0.404593 3.16635, -0.144925 3.16635, -0.712076 3.17661, -1.29686 3.19713 L -1.29686 2.77136 C -1.09584 2.77169, -0.901233 2.76912, -0.712717 2.76399, -0.524201 2.75886, -0.38089 2.74091, -0.282465 2.70981, -0.233091 2.69314, -0.194939 2.65979, -0.16865 2.6101, -0.14236 2.56073, -0.129215 2.50494, -0.129215 2.44306 L -0.129215 -3.33809 C -0.129215 -3.39933, -0.14236 -3.45479, -0.16865 -3.50449, -0.194939 -3.55386, -0.233091 -3.58752, -0.282465 -3.60484, -0.38089 -3.63529, -0.524201 -3.65229, -0.712717 -3.65581, -0.901233 -3.65902, -1.09584 -3.66094, -1.29686 -3.66126 L -1.29686 -4.0819 C -0.712076 -4.06779, -0.144925 -4.06106, 0.404593 -4.06138, 0.961164 -4.06106, 1.53024 -4.06779, 2.11118 -4.0819 L 2.11118 -3.66126 C 1.91048 -3.66094, 1.71587 -3.65902, 1.52735 -3.65581, 1.33884 -3.65229, 1.19713 -3.63529, 1.10191 -3.60484, 1.05254 -3.58752, 1.01406 -3.55322, 0.985851 -3.50192, 0.957637 -3.45063, 0.943531 -3.3958, 0.943531 -3.33809 L 0.943531 2.44306 C 0.943531 2.50494, 0.956996 2.56073, 0.983286 2.6101, 1.00958 2.65979, 1.04933 2.69314, 1.10191 2.70981, 1.20066 2.74091, 1.34333 2.75886, 1.52992 2.76399, 1.71651 2.76912, 1.91048 2.77169, 2.11118 2.77136 L 2.11118 3.19713 Z" stroke="none" fill="#000000" transform="matrix(1.12 0 0 1 15.2376 16.3063)" />
			<path d="M 2.10782 3.19713 C 1.52689 3.17661, 0.957811 3.16635, 0.40124 3.16635, -0.148277 3.16635, -0.715428 3.17661, -1.30021 3.19713 L -1.30021 2.77136 C -1.09919 2.77169, -0.904586 2.76912, -0.71607 2.76399, -0.527554 2.75886, -0.384243 2.74091, -0.285817 2.70981, -0.236444 2.69314, -0.198292 2.65979, -0.172002 2.6101, -0.145713 2.56073, -0.132568 2.50494, -0.132568 2.44306 L -0.132568 -3.33809 C -0.132568 -3.39933, -0.145713 -3.45479, -0.172002 -3.50449, -0.198292 -3.55386, -0.236444 -3.58752, -0.285817 -3.60484, -0.384243 -3.63529, -0.527554 -3.65229, -0.71607 -3.65581, -0.904586 -3.65902, -1.09919 -3.66094, -1.30021 -3.66126 L -1.30021 -4.0819 C -0.715428 -4.06779, -0.148277 -4.06106, 0.40124 -4.06138, 0.957811 -4.06106, 1.52689 -4.06779, 2.10782 -4.0819 L 2.10782 -3.66126 C 1.90712 -3.66094, 1.71252 -3.65902, 1.524 -3.65581, 1.33548 -3.65229, 1.19378 -3.63529, 1.09856 -3.60484, 1.04918 -3.58752, 1.01071 -3.55322, 0.982498 -3.50192, 0.954285 -3.45063, 0.940178 -3.3958, 0.940178 -3.33809 L 0.940178 2.44306 C 0.940178 2.50494, 0.953644 2.56073, 0.979933 2.6101, 1.00622 2.65979, 1.04598 2.69314, 1.09856 2.70981, 1.1973 2.74091, 1.33997 2.75886, 1.52657 2.76399, 1.71316 2.76912, 1.90712 2.77169, 2.10782 2.77136 L 2.10782 3.19713 Z" stroke="none" fill="#000000" transform="matrix(1.12 0 0 1 19.516 16.3063)" />
			<path d="M 2.10686 3.19713 C 1.52593 3.17661, 0.956851 3.16635, 0.40028 3.16635, -0.149238 3.16635, -0.716389 3.17661, -1.30117 3.19713 L -1.30117 2.77136 C -1.10015 2.77169, -0.905546 2.76912, -0.71703 2.76399, -0.528514 2.75886, -0.385203 2.74091, -0.286777 2.70981, -0.237404 2.69314, -0.199252 2.65979, -0.172962 2.6101, -0.146673 2.56073, -0.133528 2.50494, -0.133528 2.44306 L -0.133528 -3.33809 C -0.133528 -3.39933, -0.146673 -3.45479, -0.172962 -3.50449, -0.199252 -3.55386, -0.237404 -3.58752, -0.286777 -3.60484, -0.385203 -3.63529, -0.528514 -3.65229, -0.71703 -3.65581, -0.905546 -3.65902, -1.10015 -3.66094, -1.30117 -3.66126 L -1.30117 -4.0819 C -0.716389 -4.06779, -0.149238 -4.06106, 0.40028 -4.06138, 0.956851 -4.06106, 1.52593 -4.06779, 2.10686 -4.0819 L 2.10686 -3.66126 C 1.90616 -3.66094, 1.71156 -3.65902, 1.52304 -3.65581, 1.33452 -3.65229, 1.19282 -3.63529, 1.0976 -3.60484, 1.04822 -3.58752, 1.00975 -3.55322, 0.981538 -3.50192, 0.953324 -3.45063, 0.939218 -3.3958, 0.939218 -3.33809 L 0.939218 2.44306 C 0.939218 2.50494, 0.952683 2.56073, 0.978973 2.6101, 1.00526 2.65979, 1.04502 2.69314, 1.0976 2.70981, 1.19634 2.74091, 1.33901 2.75886, 1.52561 2.76399, 1.7122 2.76912, 1.90616 2.77169, 2.10686 2.77136 L 2.10686 3.19713 Z" stroke="none" fill="#000000" transform="matrix(1.12 0 0 1 23.7944 16.3063)" />
			<polyline points="-5.2528 6.04072 0 -6.04072" fill="none" stroke="#000000" stroke-width="0.750400007" stroke-linecap="round" stroke-linejoin="round" transform="matrix(7.54979e-008 1 -1 7.54979e-008 38.3851 11.2074)" />
			<polyline points="0 -6.04072 5.2528 6.04072" fill="none" stroke="#000000" stroke-width="0.750400007" stroke-linecap="round" stroke-linejoin="round" transform="matrix(7.54979e-008 1 -1 7.54979e-008 38.3851 11.2074)" />
			<ellipse cx="-5.252799779176712" cy="6.0407201945781708" rx="0.37520000338554382" ry="0.37520000338554382" stroke="none" fill="#000000" transform="matrix(7.54979e-008 1 -1 7.54979e-008 38.3851 11.2074)" />
			<ellipse cx="-0" cy="-6.0407197773456573" rx="0.37520000338554382" ry="0.37520000338554382" stroke="none" fill="#000000" transform="matrix(7.54979e-008 1 -1 7.54979e-008 38.3851 11.2074)" />
			<ellipse cx="5.2528001964092255" cy="6.0407201945781708" rx="0.37520000338554382" ry="0.37520000338554382" stroke="none" fill="#000000" transform="matrix(7.54979e-008 1 -1 7.54979e-008 38.3851 11.2074)" />
			<path d="M 59.0116 10.519 C 59.0116 11.3813, 58.9516 12.2386, 58.8315 13.0914, 58.7114 13.9442, 58.4141 14.7449, 57.9394 15.4922, 57.6005 16.0376, 57.1472 16.4561, 56.58 16.749, 56.0133 17.0424, 55.3967 17.1888, 54.7307 17.1888, 54.09 17.1888, 53.484 17.0424, 52.914 16.749, 52.344 16.4561, 51.8889 16.0376, 51.5501 15.4922, 51.0754 14.7449, 50.778 13.9442, 50.658 13.0914, 50.5379 12.2386, 50.4773 11.3813, 50.4773 10.519, 50.4773 9.64596, 50.5379 8.77352, 50.658 7.90275, 50.778 7.03199, 51.0754 6.21677, 51.5501 5.45597, 51.8889 4.90613, 52.3423 4.47804, 52.9095 4.17283, 53.4767 3.86761, 54.0838 3.715, 54.7307 3.71444, 55.3905 3.715, 56.0054 3.86761, 56.5755 4.17283, 57.1455 4.47804, 57.6005 4.90613, 57.9394 5.45597, 58.4141 6.21677, 58.7114 7.03199, 58.8315 7.90275, 58.9516 8.77352, 59.0116 9.64596, 59.0116 10.519 Z M 57.1809 10.2048 C 57.1809 9.82831, 57.1781 9.43052, 57.1719 9.0114, 57.1657 8.59285, 57.15 8.18272, 57.1253 7.78156, 57.1006 7.38097, 57.0563 7.00225, 56.9912 6.64598, 56.9267 6.29027, 56.8482 5.98617, 56.7556 5.73426, 56.571 5.32805, 56.3 4.99422, 55.942 4.73389, 55.5846 4.47355, 55.1807 4.34339, 54.7307 4.34283, 54.2931 4.34339, 53.8975 4.47524, 53.5429 4.73837, 53.1884 5.00207, 52.9185 5.33366, 52.7333 5.73426, 52.6413 5.98617, 52.5628 6.29027, 52.4977 6.64598, 52.4332 7.00225, 52.3883 7.38097, 52.3636 7.78156, 52.3389 8.18272, 52.3238 8.59285, 52.3176 9.0114, 52.3114 9.43052, 52.3081 9.82831, 52.3081 10.2048, 52.3081 10.6245, 52.3114 11.066, 52.3176 11.5294, 52.3238 11.9934, 52.3389 12.4423, 52.3636 12.876, 52.3883 13.3102, 52.4332 13.7215, 52.4977 14.1103, 52.5628 14.4997, 52.6413 14.8257, 52.7333 15.0882, 52.9061 15.5259, 53.1732 15.8849, 53.5334 16.166, 53.8942 16.4477, 54.2931 16.588, 54.7307 16.5874, 55.1874 16.588, 55.5959 16.4477, 55.9561 16.166, 56.3168 15.8849, 56.5833 15.5259, 56.7556 15.0882, 56.8482 14.8257, 56.9267 14.4997, 56.9912 14.1103, 57.0563 13.7215, 57.1006 13.3102, 57.1253 12.876, 57.15 12.4423, 57.1657 11.9934, 57.1719 11.5294, 57.1781 11.066, 57.1809 10.6245, 57.1809 10.2048 Z" stroke="none" fill="#000000" />
			<rect />
		</svg>
	</g>
	<path d="M -58.7446 -72.4516 L -49.5497 -79.0254 C -34.7645 -88.2961, -17.6023 -93.2747, -0.000113896 -93.2747" fill="none" stroke="#E60000" stroke-width="2.9333334" stroke-linecap="round" stroke-linejoin="round" marker-start="url(#CustomMarker-06)" transform="matrix(0.454545 0 -0 0.454545 166.565 143.819)" />
	<path d="M 0 0 L -133.759 -164.97" fill="none" stroke="#000000" stroke-width="2.9333334" stroke-linecap="round" stroke-linejoin="round" transform="matrix(0.454545 0 -0 0.454545 166.565 143.819)" />
	<path d="M 0 0 L 0 -114.506" fill="none" stroke="#000000" stroke-width="2.9333334" stroke-linecap="round" stroke-linejoin="round" transform="matrix(0.454545 0 -0 0.454545 166.565 143.819)" />
</svg>
