<?xml version="1.0"?>
<svg xmlns="http://www.w3.org/2000/svg" xmlns:xlink="http://www.w3.org/1999/xlink" width="180.045029" height="190.298416">
	<defs />
	<path d="M -241.387 150 L 241.387 -150" fill="none" stroke="#000000" stroke-width="5.33333349" stroke-linecap="round" stroke-linejoin="round" transform="matrix(0.25 0 0 0.25 68.8467 66.8536)" />
	<g transform="matrix(1 0 -0 1 137.155 9)">
		<svg width="54.0936813" height="54.1276474">
			<defs />
			<path d="M 9.44155 16.5953 C 9.38544 16.7602, 9.26235 16.8426, 9.07342 16.8426 L 0.271085 16.8426 C 0.176621 16.8426, 0.107348 16.8151, 0.0632644 16.7602, 0.0197537 16.7178, -0.00200171 16.672, -0.00257422 16.6228, -0.00200171 16.5867, 0.00429589 16.55, 0.0163186 16.5128 L 0.0541042 16.3754 C 0.0729971 16.2964, 0.11708 16.2283, 0.186354 16.1699, 0.255628 16.1121, 0.334062 16.0829, 0.421656 16.0823, 0.717643 16.0829, 0.994738 16.0783, 1.25237 16.0691, 1.51 16.06, 1.70522 16.0279, 1.8369 15.9724, 1.95026 15.9117, 2.03842 15.7468, 2.1014 15.4777 L 4.77158 5.15423 C 4.79677 5.03859, 4.80937 4.94699, 4.80937 4.87943, 4.80937 4.7884, 4.79048 4.73058, 4.75269 4.70539, 4.67082 4.6573, 4.50079 4.62695, 4.24316 4.61436, 3.98553 4.60234, 3.70843 4.59604, 3.41245 4.59547, 3.31855 4.59604, 3.24928 4.56569, 3.2052 4.50386, 3.16741 4.4678, 3.14852 4.422, 3.14852 4.36646, 3.14852 4.33039, 3.15825 4.29662, 3.17657 4.2657 L 3.2052 4.11914 C 3.27447 3.93651, 3.39699 3.84491, 3.57332 3.84433, 4.30957 3.88155, 5.04811 3.89987, 5.79008 3.89929, 5.91603 3.89987, 6.04542 3.89357, 6.1771 3.88097, 7.0393 3.88155, 7.91638 3.86952, 8.80949 3.84433, 8.89766 3.84491, 8.97323 3.87525, 9.03621 3.93593, 9.0614 3.98517, 9.07342 4.03097, 9.07342 4.07334, 9.07342 4.11055, 9.06426 4.14433, 9.04537 4.1741 L 9.01732 4.3115 C 8.99842 4.39165, 8.95606 4.45864, 8.88965 4.5136, 8.82381 4.56856, 8.74366 4.59604, 8.64919 4.59547, 8.3034 4.59604, 7.95588 4.60234, 7.60665 4.61436, 7.25742 4.62695, 7.00151 4.66016, 6.83777 4.71455, 6.6809 4.77638, 6.57041 4.93496, 6.50743 5.19088 L 3.85614 15.5235 C 3.79317 15.7377, 3.76168 15.8968, 3.76168 15.9999 L 3.76168 16.0365 C 3.78687 16.0617, 3.9632 16.0766, 4.2901 16.0823 L 5.95095 16.0823 C 6.39751 16.0829, 6.84292 16.0188, 7.28605 15.8905, 7.72917 15.7623, 8.13336 15.5424, 8.49805 15.2304, 8.93888 14.8829, 9.29269 14.4237, 9.56006 13.8524, 9.82742 13.2816, 10.077 12.6936, 10.3095 12.0885, 10.3599 11.9242, 10.4703 11.8417, 10.6398 11.8411 L 10.819 11.8411 C 10.9827 11.8417, 11.0646 11.9213, 11.0646 12.0793 L 11.0646 12.1526 Z" stroke="none" fill="#000000" />
			<path d="M 2.37714 3.19713 C 1.7292 3.17661, 1.09857 3.16635, 0.485571 3.16635, -0.127106 3.16635, -0.757737 3.17661, -1.406 3.19713 L -1.406 2.75598, -1.04115 2.75598 C -0.925093 2.7563, -0.815766 2.75469, -0.713814 2.75117, -0.611541 2.74796, -0.514718 2.7393, -0.423025 2.72552, -0.331331 2.71205, -0.252142 2.69827, -0.185456 2.68416, -0.12903 2.67422, -0.082221 2.6428, -0.0453515 2.58958, -0.00816131 2.53668, 0.0101132 2.47769, 0.0101132 2.41229 L 0.0101132 -3.36887 C -0.165899 -3.28295, -0.382628 -3.21787, -0.639754 -3.17362, -0.89688 -3.12906, -1.17869 -3.10694, -1.48519 -3.10726 L -1.48519 -3.54328 C -1.06231 -3.54296, -0.672135 -3.59329, -0.31466 -3.69429, 0.042815 -3.79496, 0.351879 -3.98411, 0.612531 -4.26144 L 0.77636 -4.26144 C 0.89242 -4.26112, 0.950449 -4.20469, 0.950449 -4.09216 L 0.950449 2.41229 C 0.950449 2.4809, 0.968082 2.54085, 1.00335 2.59215, 1.03862 2.64344, 1.08991 2.67422, 1.1566 2.68416, 1.21302 2.69827, 1.28548 2.71205, 1.37333 2.72552, 1.46149 2.7393, 1.56088 2.74796, 1.67181 2.75117, 1.78274 2.75469, 1.89111 2.7563, 1.99658 2.75598 L 2.37714 2.75598, 2.37714 3.19713 Z" stroke="none" fill="#000000" transform="matrix(1.12 0 0 1 13.5302 16.3063)" />
			<rect />
		</svg>
	</g>
	<path d="M -273.264 -17.5349 L 273.266 17.5351" fill="none" stroke="#000000" stroke-width="5.33333349" stroke-linecap="round" stroke-linejoin="round" transform="matrix(0.25 0 0 0.25 76.8161 108.737)" />
	<path d="M -241.387 -124.006 L 241.387 124.006" fill="none" stroke="#000000" stroke-width="5.33333349" stroke-linecap="round" stroke-linejoin="round" transform="matrix(0.25 0 0 0.25 68.8467 135.355)" />
	<g transform="matrix(1 0 -0 1 154.22 101.856)">
		<svg width="56.9641113" height="54.1276474">
			<defs />
			<path d="M 9.44155 16.5953 C 9.38544 16.7602, 9.26235 16.8426, 9.07342 16.8426 L 0.271085 16.8426 C 0.176621 16.8426, 0.107348 16.8151, 0.0632644 16.7602, 0.0197537 16.7178, -0.00200171 16.672, -0.00257422 16.6228, -0.00200171 16.5867, 0.00429589 16.55, 0.0163186 16.5128 L 0.0541042 16.3754 C 0.0729971 16.2964, 0.11708 16.2283, 0.186354 16.1699, 0.255628 16.1121, 0.334062 16.0829, 0.421656 16.0823, 0.717643 16.0829, 0.994738 16.0783, 1.25237 16.0691, 1.51 16.06, 1.70522 16.0279, 1.8369 15.9724, 1.95026 15.9117, 2.03842 15.7468, 2.1014 15.4777 L 4.77158 5.15423 C 4.79677 5.03859, 4.80937 4.94699, 4.80937 4.87943, 4.80937 4.7884, 4.79048 4.73058, 4.75269 4.70539, 4.67082 4.6573, 4.50079 4.62695, 4.24316 4.61436, 3.98553 4.60234, 3.70843 4.59604, 3.41245 4.59547, 3.31855 4.59604, 3.24928 4.56569, 3.2052 4.50386, 3.16741 4.4678, 3.14852 4.422, 3.14852 4.36646, 3.14852 4.33039, 3.15825 4.29662, 3.17657 4.2657 L 3.2052 4.11914 C 3.27447 3.93651, 3.39699 3.84491, 3.57332 3.84433, 4.30957 3.88155, 5.04811 3.89987, 5.79008 3.89929, 5.91603 3.89987, 6.04542 3.89357, 6.1771 3.88097, 7.0393 3.88155, 7.91638 3.86952, 8.80949 3.84433, 8.89766 3.84491, 8.97323 3.87525, 9.03621 3.93593, 9.0614 3.98517, 9.07342 4.03097, 9.07342 4.07334, 9.07342 4.11055, 9.06426 4.14433, 9.04537 4.1741 L 9.01732 4.3115 C 8.99842 4.39165, 8.95606 4.45864, 8.88965 4.5136, 8.82381 4.56856, 8.74366 4.59604, 8.64919 4.59547, 8.3034 4.59604, 7.95588 4.60234, 7.60665 4.61436, 7.25742 4.62695, 7.00151 4.66016, 6.83777 4.71455, 6.6809 4.77638, 6.57041 4.93496, 6.50743 5.19088 L 3.85614 15.5235 C 3.79317 15.7377, 3.76168 15.8968, 3.76168 15.9999 L 3.76168 16.0365 C 3.78687 16.0617, 3.9632 16.0766, 4.2901 16.0823 L 5.95095 16.0823 C 6.39751 16.0829, 6.84292 16.0188, 7.28605 15.8905, 7.72917 15.7623, 8.13336 15.5424, 8.49805 15.2304, 8.93888 14.8829, 9.29269 14.4237, 9.56006 13.8524, 9.82742 13.2816, 10.077 12.6936, 10.3095 12.0885, 10.3599 11.9242, 10.4703 11.8417, 10.6398 11.8411 L 10.819 11.8411 C 10.9827 11.8417, 11.0646 11.9213, 11.0646 12.0793 L 11.0646 12.1526 Z" stroke="none" fill="#000000" />
			<path d="M 2.39138 3.19713 L -1.90858 3.19713, -1.90858 2.915 C -1.90858 2.8948, -1.898 2.86402, -1.87684 2.82266 L -0.149418 0.945196 C 0.0551279 0.71981, 0.261918 0.488975, 0.471594 0.253009, 0.68127 0.0170434, 0.868504 -0.224052, 1.03394 -0.470277, 1.19937 -0.716502, 1.33146 -0.970422, 1.4302 -1.23204, 1.52895 -1.49365, 1.578 -1.76809, 1.578 -2.05567, 1.578 -2.29805, 1.54658 -2.52472, 1.4831 -2.73503, 1.41962 -2.94535, 1.32825 -3.13002, 1.20835 -3.28904, 1.08844 -3.44806, 0.938716 -3.5763, 0.759177 -3.67377, 0.579638 -3.77123, 0.371886 -3.81996, 0.13592 -3.82028, -0.216105 -3.81996, -0.527092 -3.7148, -0.7964 -3.50449, -1.06571 -3.29417, -1.24461 -3.06237, -1.33277 -2.80974, -1.35009 -2.80268, -1.32187 -2.79915, -1.24813 -2.79948 L -1.15836 -2.79948 C -1.05256 -2.77511, -0.961191 -2.73824, -0.883605 -2.68887, -0.806018 -2.63917, -0.740935 -2.57088, -0.688036 -2.48368, -0.635136 -2.39647, -0.608846 -2.29132, -0.608846 -2.16852, -0.608846 -1.96302, -0.675532 -1.8056, -0.809545 -1.69627, -0.943558 -1.58663, -1.09328 -1.53212, -1.25871 -1.53244, -1.41709 -1.53212, -1.56489 -1.58663, -1.70243 -1.69627, -1.83965 -1.8056, -1.90858 -1.96302, -1.90858 -2.16852, -1.90858 -2.45547, -1.85215 -2.72734, -1.7393 -2.98382, -1.62645 -3.24031, -1.47352 -3.46249, -1.27987 -3.65068, -1.08623 -3.83856, -0.857315 -3.98732, -0.593136 -4.09697, -0.328958 -4.20629, -0.0487483 -4.26112, 0.24685 -4.26144, 0.612981 -4.26112, 0.948655 -4.20725, 1.25323 -4.09953, 1.55781 -3.99181, 1.8175 -3.83695, 2.0323 -3.63529, 2.24711 -3.43331, 2.41543 -3.19991, 2.53693 -2.93509, 2.65844 -2.66995, 2.71904 -2.37692, 2.71904 -2.05567, 2.71904 -1.6998, 2.63825 -1.37214, 2.47602 -1.07302, 2.31411 -0.77357, 2.11342 -0.499131, 1.87392 -0.2497, 1.63443 5.126e-005, 1.37987 0.235055, 1.11056 0.455632, 0.841252 0.676208, 0.597272 0.890693, 0.378939 1.09909 L -0.836155 2.24301, 0.754048 2.24301 C 0.975907 2.24333, 1.18302 2.24172, 1.37474 2.2382, 1.56678 2.23499, 1.72965 2.22794, 1.86334 2.21768, 1.99736 2.20742, 2.06597 2.20069, 2.06917 2.19684, 2.09738 2.17312, 2.12399 2.12534, 2.14868 2.05353, 2.17337 1.98171, 2.19613 1.89707, 2.21729 1.79961, 2.23845 1.70215, 2.25961 1.60308, 2.28077 1.50209, 2.30193 1.40142, 2.32117 1.29081, 2.3388 1.1709 L 2.72962 1.1709 Z" stroke="none" fill="#000000" transform="matrix(1.12 0 0 1 13.9531 16.3063)" />
			<rect />
		</svg>
	</g>
	<g transform="matrix(1 0 -0 1 136.623 158.768)">
		<svg width="56.9641113" height="54.1276474">
			<defs />
			<path d="M 9.44155 16.5953 C 9.38544 16.7602, 9.26235 16.8426, 9.07342 16.8426 L 0.271085 16.8426 C 0.176621 16.8426, 0.107348 16.8151, 0.0632644 16.7602, 0.0197537 16.7178, -0.00200171 16.672, -0.00257422 16.6228, -0.00200171 16.5867, 0.00429589 16.55, 0.0163186 16.5128 L 0.0541042 16.3754 C 0.0729971 16.2964, 0.11708 16.2283, 0.186354 16.1699, 0.255628 16.1121, 0.334062 16.0829, 0.421656 16.0823, 0.717643 16.0829, 0.994738 16.0783, 1.25237 16.0691, 1.51 16.06, 1.70522 16.0279, 1.8369 15.9724, 1.95026 15.9117, 2.03842 15.7468, 2.1014 15.4777 L 4.77158 5.15423 C 4.79677 5.03859, 4.80937 4.94699, 4.80937 4.87943, 4.80937 4.7884, 4.79048 4.73058, 4.75269 4.70539, 4.67082 4.6573, 4.50079 4.62695, 4.24316 4.61436, 3.98553 4.60234, 3.70843 4.59604, 3.41245 4.59547, 3.31855 4.59604, 3.24928 4.56569, 3.2052 4.50386, 3.16741 4.4678, 3.14852 4.422, 3.14852 4.36646, 3.14852 4.33039, 3.15825 4.29662, 3.17657 4.2657 L 3.2052 4.11914 C 3.27447 3.93651, 3.39699 3.84491, 3.57332 3.84433, 4.30957 3.88155, 5.04811 3.89987, 5.79008 3.89929, 5.91603 3.89987, 6.04542 3.89357, 6.1771 3.88097, 7.0393 3.88155, 7.91638 3.86952, 8.80949 3.84433, 8.89766 3.84491, 8.97323 3.87525, 9.03621 3.93593, 9.0614 3.98517, 9.07342 4.03097, 9.07342 4.07334, 9.07342 4.11055, 9.06426 4.14433, 9.04537 4.1741 L 9.01732 4.3115 C 8.99842 4.39165, 8.95606 4.45864, 8.88965 4.5136, 8.82381 4.56856, 8.74366 4.59604, 8.64919 4.59547, 8.3034 4.59604, 7.95588 4.60234, 7.60665 4.61436, 7.25742 4.62695, 7.00151 4.66016, 6.83777 4.71455, 6.6809 4.77638, 6.57041 4.93496, 6.50743 5.19088 L 3.85614 15.5235 C 3.79317 15.7377, 3.76168 15.8968, 3.76168 15.9999 L 3.76168 16.0365 C 3.78687 16.0617, 3.9632 16.0766, 4.2901 16.0823 L 5.95095 16.0823 C 6.39751 16.0829, 6.84292 16.0188, 7.28605 15.8905, 7.72917 15.7623, 8.13336 15.5424, 8.49805 15.2304, 8.93888 14.8829, 9.29269 14.4237, 9.56006 13.8524, 9.82742 13.2816, 10.077 12.6936, 10.3095 12.0885, 10.3599 11.9242, 10.4703 11.8417, 10.6398 11.8411 L 10.819 11.8411 C 10.9827 11.8417, 11.0646 11.9213, 11.0646 12.0793 L 11.0646 12.1526 Z" stroke="none" fill="#000000" />
			<path d="M 2.81931 1.26324 C 2.81931 1.55755, 2.75423 1.84001, 2.62406 2.10996, 2.4939 2.38023, 2.31949 2.61106, 2.10083 2.80214, 1.85461 3.01791, 1.58242 3.17757, 1.28489 3.28177, 0.987372 3.38629, 0.676384 3.43822, 0.352252 3.43822, 0.0601807 3.43822, -0.224838 3.39719, -0.503123 3.31511, -0.781409 3.23304, -1.03212 3.11537, -1.2559 2.96148, -1.47969 2.80759, -1.65826 2.61876, -1.79228 2.39465, -1.92597 2.17087, -1.99298 1.91342, -1.99298 1.62232, -1.99298 1.40366, -1.91988 1.24047, -1.77368 1.13275, -1.62749 1.02503, -1.4736 0.971165, -1.31169 0.970845, -1.14241 0.971165, -0.984993 1.02503, -0.838797 1.13275, -0.692601 1.24047, -0.619503 1.40366, -0.619503 1.62232, -0.619503 1.75248, -0.644831 1.86117, -0.696128 1.94837, -0.747104 2.03558, -0.812187 2.10835, -0.891697 2.16638, -0.970886 2.22473, -1.06162 2.26032, -1.16357 2.27379, -1.21615 2.28789, -1.26552 2.29462, -1.31169 2.2943, -1.35722 2.29462, -1.36427 2.29815, -1.33285 2.30456, -1.22352 2.49629, -1.00872 2.66589, -0.688112 2.81272, -0.367507 2.95988, -0.0209324 3.0333, 0.352252 3.03298, 0.528585 3.0333, 0.693056 2.9897, 0.846305 2.90249, 0.999555 2.81529, 1.12748 2.69827, 1.22943 2.55079, 1.35639 2.35971, 1.44263 2.15452, 1.48816 1.93555, 1.534 1.71689, 1.55677 1.49279, 1.55677 1.26324, 1.55677 1.02759, 1.534 0.801244, 1.48816 0.583874, 1.44263 0.366824, 1.35639 0.165804, 1.22943 -0.0191851, 1.12363 -0.169228, 0.995066 -0.290738, 0.84374 -0.383072, 0.692415 -0.475407, 0.528585 -0.521574, 0.352252 -0.521894 L -0.413674 -0.521894 C -0.515627 -0.521574, -0.57013 -0.569344, -0.577183 -0.665526 L -0.577183 -0.721952 C -0.577183 -0.762669, -0.564679 -0.79505, -0.540313 -0.819416, -0.508573 -0.849874, -0.468177 -0.865263, -0.418804 -0.865584, -0.316531 -0.879049, -0.211051 -0.885782, -0.102046 -0.886102, 0.00375414 -0.885782, 0.107951 -0.892514, 0.209903 -0.906621, 0.400023 -0.920087, 0.565455 -0.978757, 0.706201 -1.08327, 0.847267 -1.18747, 0.96525 -1.32084, 1.06015 -1.48339, 1.15537 -1.64562, 1.22751 -1.83285, 1.27688 -2.04509, 1.32625 -2.25701, 1.35094 -2.47438, 1.35094 -2.69688, 1.35094 -2.86071, 1.33331 -3.01621, 1.29804 -3.16336, 1.26277 -3.3102, 1.19769 -3.43876, 1.10247 -3.54841, 0.905297 -3.7738, 0.655225 -3.88505, 0.352252 -3.88184, 0.0284407 -3.88152, -0.268119 -3.8206, -0.537428 -3.69942, -0.806736 -3.57791, -0.987558 -3.4471, -1.07925 -3.30731, -1.10362 -3.30347, -1.09143 -3.30186, -1.04206 -3.30219, -0.915101 -3.30186, -0.795515 -3.26435, -0.682983 -3.18933, -0.513703 -3.08994, -0.429384 -2.92227, -0.429384 -2.68662, -0.429384 -2.48785, -0.493505 -2.33812, -0.622068 -2.23745, -0.75063 -2.13646, -0.894262 -2.08613, -1.05264 -2.08645, -1.20749 -2.08613, -1.35273 -2.1355, -1.48834 -2.23489, -1.62396 -2.33396, -1.69193 -2.48464, -1.69193 -2.68662, -1.69193 -2.93605, -1.63197 -3.15631, -1.51239 -3.34803, -1.39248 -3.53943, -1.23859 -3.70358, -1.05008 -3.84048, -0.86156 -3.97706, -0.644189 -4.08158, -0.397644 -4.15339, -0.151098 -4.22521, 0.098974 -4.26112, 0.352252 -4.26144, 0.623485 -4.26112, 0.88606 -4.22521, 1.13966 -4.15339, 1.39326 -4.08158, 1.63275 -3.97033, 1.85782 -3.82028, 2.0412 -3.69012, 2.19509 -3.53014, 2.32013 -3.34034, 2.44516 -3.15054, 2.50768 -2.93605, 2.50768 -2.69688, 2.50768 -2.45707, 2.46472 -2.23136, 2.37848 -2.01944, 2.29224 -1.8072, 2.17778 -1.6158, 2.03511 -1.44492, 1.89244 -1.27371, 1.72252 -1.12335, 1.52535 -0.993505, 1.32818 -0.863339, 1.18006 -0.781585, 1.08131 -0.747601, 1.16595 -0.737021, 1.31054 -0.686365, 1.51477 -0.595954, 1.71899 -0.505223, 1.91424 -0.384675, 2.10083 -0.234632, 2.31949 -0.0461159, 2.4939 0.178629, 2.62406 0.440243, 2.75423 0.701857, 2.81931 0.976295, 2.81931 1.26324 Z" stroke="none" fill="#000000" transform="matrix(1.12 0 0 1 14.0374 16.3063)" />
			<rect />
		</svg>
	</g>
	<g transform="matrix(1 0 -0 1 47.9229 79.6499)">
		<svg width="54.0936813" height="38.9042473">
			<defs />
			<path d="M 11.024 9.57859 C 10.7978 10.4339, 10.4772 11.2589, 10.0616 12.0524, 9.6465 12.8465, 9.15586 13.5667, 8.58965 14.2136, 8.58965 14.5136, 8.59595 14.8039, 8.60854 15.0844, 8.62114 15.3655, 8.64977 15.6111, 8.69385 15.8218, 8.73793 16.0325, 8.79461 16.1899, 8.86331 16.2936, 8.93258 16.3978, 9.02361 16.4493, 9.13697 16.4487, 9.34479 16.4493, 9.54288 16.3668, 9.73181 16.202, 9.92074 16.0371, 10.0433 15.8384, 10.0994 15.606, 10.1371 15.4354, 10.2476 15.3501, 10.4297 15.3495 L 10.5431 15.3495 C 10.6879 15.3501, 10.7663 15.4233, 10.7789 15.5693 L 10.7789 15.6335 C 10.7348 15.8293, 10.6564 16.013, 10.5431 16.1836, 10.4297 16.3548, 10.2929 16.506, 10.1326 16.6371, 9.97226 16.7682, 9.79765 16.8701, 9.60872 16.9434, 9.42036 17.0166, 9.22227 17.0533, 9.01445 17.0533, 8.46713 17.0533, 8.05206 16.889, 7.76925 16.5592, 7.48643 16.2294, 7.30379 15.8842, 7.22193 15.5235, 6.67461 15.9701, 6.04885 16.3365, 5.34409 16.6233, 4.63991 16.9102, 3.90709 17.0533, 3.14566 17.0533, 2.59261 17.0533, 2.08938 16.9405, 1.63652 16.7149, 1.18367 16.4894, 0.825274 16.1653, 0.560775 15.7434, 0.277955 15.3346, 0.101622 14.8617, 0.0323482 14.3236, 0.00715774 14.1713, -0.00543743 14.0064, -0.00543743 13.8289, -0.00543743 13.4631, 0.0483785 13.0846, 0.154865 12.693, 0.306008 12.1257, 0.547035 11.5807, 0.8768 11.0585, 1.20714 10.5364, 1.61763 10.0647, 2.1077 9.64271, 2.58631 9.25226, 3.10386 8.94253, 3.66034 8.71353, 4.21682 8.48452, 4.77216 8.37002, 5.3252 8.36945, 5.85363 8.37002, 6.3208 8.46964, 6.72613 8.66773, 7.13204 8.86639, 7.47497 9.13375, 7.75493 9.46924, 8.03489 9.8053, 8.24386 10.1975, 8.3824 10.6463, 8.52095 11.0952, 8.58965 11.5669, 8.58965 12.061 L 8.58965 13.2701 C 8.92342 12.8373, 9.25663 12.2848, 9.58983 11.6127, 9.92303 10.9412, 10.1778 10.2542, 10.3541 9.55111, 10.3919 9.3805, 10.5024 9.29234, 10.6845 9.28547 L 10.7789 9.28547 C 10.9427 9.28604, 11.024 9.35932, 11.024 9.50531 L 11.024 9.57859 Z M 7.09884 14.8732 C 7.09311 14.8308, 7.08681 14.7672, 7.08052 14.6814, 7.07422 14.5961, 7.07078 14.5102, 7.07078 14.4243 L 7.07078 12.3633 C 7.07078 11.9179, 7.04101 11.4925, 6.98147 11.086, 6.92193 10.6801, 6.82403 10.3183, 6.68892 10.0005, 6.55381 9.68336, 6.36774 9.43432, 6.13187 9.25398, 5.89599 9.07421, 5.5897 8.98375, 5.21184 8.98318, 4.85975 8.98375, 4.50422 9.07707, 4.14583 9.26314, 3.78744 9.44978, 3.46683 9.70454, 3.18344 10.0274, 2.83135 10.419, 2.56227 10.845, 2.37678 11.3059, 2.19128 11.7673, 2.03556 12.2448, 1.90961 12.7388, 1.78423 13.2278, 1.6932 13.6984, 1.63595 14.1495, 1.62335 14.2663, 1.61706 14.3819, 1.61706 14.4976, 1.61706 14.8216, 1.67087 15.1331, 1.77793 15.4319, 1.89758 15.7377, 2.08308 15.9838, 2.33441 16.1699, 2.58631 16.3565, 2.88803 16.4493, 3.24012 16.4487, 3.95118 16.4493, 4.63533 16.309, 5.29257 16.0279, 5.94981 15.7474, 6.55209 15.3621, 7.09884 14.8732 Z" stroke="none" fill="#000000" />
			<path d="M 2.37267 3.19713 C 1.72472 3.17661, 1.09441 3.16635, 0.481416 3.16635, -0.131261 3.16635, -0.761571 3.17661, -1.40951 3.19713 L -1.40951 2.75598, -1.04499 2.75598 C -0.928927 2.7563, -0.819601 2.75469, -0.717648 2.75117, -0.615375 2.74796, -0.518552 2.7393, -0.426859 2.72552, -0.335166 2.71205, -0.255976 2.69827, -0.18929 2.68416, -0.132864 2.67422, -0.086376 2.6428, -0.0495062 2.58958, -0.012316 2.53668, 0.00595856 2.47769, 0.00595856 2.41229 L 0.00595856 -3.36887 C -0.169733 -3.28295, -0.386463 -3.21787, -0.643588 -3.17362, -0.900714 -3.12906, -1.18221 -3.10694, -1.4887 -3.10726 L -1.4887 -3.54328 C -1.06615 -3.54296, -0.675969 -3.59329, -0.318494 -3.69429, 0.0389807 -3.79496, 0.348044 -3.98411, 0.608376 -4.26144 L 0.772206 -4.26144 C 0.888265 -4.26112, 0.946294 -4.20469, 0.946294 -4.09216 L 0.946294 2.41229 C 0.946294 2.4809, 0.963928 2.54085, 0.999194 2.59215, 1.03446 2.64344, 1.08576 2.67422, 1.15244 2.68416, 1.20887 2.69827, 1.28133 2.71205, 1.36917 2.72552, 1.45702 2.7393, 1.55641 2.74796, 1.66734 2.75117, 1.77827 2.75469, 1.88663 2.7563, 1.99243 2.75598 L 2.37267 2.75598, 2.37267 3.19713 Z" stroke="none" fill="#000000" transform="matrix(1.12 0 0 1 13.4924 16.3063)" />
			<rect />
		</svg>
	</g>
	<g transform="matrix(1 0 -0 1 57.1013 105.988)">
		<svg width="54.0936813" height="38.9042473">
			<defs />
			<path d="M 11.024 9.57859 C 10.7978 10.4339, 10.4772 11.2589, 10.0616 12.0524, 9.6465 12.8465, 9.15586 13.5667, 8.58965 14.2136, 8.58965 14.5136, 8.59595 14.8039, 8.60854 15.0844, 8.62114 15.3655, 8.64977 15.6111, 8.69385 15.8218, 8.73793 16.0325, 8.79461 16.1899, 8.86331 16.2936, 8.93258 16.3978, 9.02361 16.4493, 9.13697 16.4487, 9.34479 16.4493, 9.54288 16.3668, 9.73181 16.202, 9.92074 16.0371, 10.0433 15.8384, 10.0994 15.606, 10.1371 15.4354, 10.2476 15.3501, 10.4297 15.3495 L 10.5431 15.3495 C 10.6879 15.3501, 10.7663 15.4233, 10.7789 15.5693 L 10.7789 15.6335 C 10.7348 15.8293, 10.6564 16.013, 10.5431 16.1836, 10.4297 16.3548, 10.2929 16.506, 10.1326 16.6371, 9.97226 16.7682, 9.79765 16.8701, 9.60872 16.9434, 9.42036 17.0166, 9.22227 17.0533, 9.01445 17.0533, 8.46713 17.0533, 8.05206 16.889, 7.76925 16.5592, 7.48643 16.2294, 7.30379 15.8842, 7.22193 15.5235, 6.67461 15.9701, 6.04885 16.3365, 5.34409 16.6233, 4.63991 16.9102, 3.90709 17.0533, 3.14566 17.0533, 2.59261 17.0533, 2.08938 16.9405, 1.63652 16.7149, 1.18367 16.4894, 0.825274 16.1653, 0.560775 15.7434, 0.277955 15.3346, 0.101622 14.8617, 0.0323482 14.3236, 0.00715774 14.1713, -0.00543743 14.0064, -0.00543743 13.8289, -0.00543743 13.4631, 0.0483785 13.0846, 0.154865 12.693, 0.306008 12.1257, 0.547035 11.5807, 0.8768 11.0585, 1.20714 10.5364, 1.61763 10.0647, 2.1077 9.64271, 2.58631 9.25226, 3.10386 8.94253, 3.66034 8.71353, 4.21682 8.48452, 4.77216 8.37002, 5.3252 8.36945, 5.85363 8.37002, 6.3208 8.46964, 6.72613 8.66773, 7.13204 8.86639, 7.47497 9.13375, 7.75493 9.46924, 8.03489 9.8053, 8.24386 10.1975, 8.3824 10.6463, 8.52095 11.0952, 8.58965 11.5669, 8.58965 12.061 L 8.58965 13.2701 C 8.92342 12.8373, 9.25663 12.2848, 9.58983 11.6127, 9.92303 10.9412, 10.1778 10.2542, 10.3541 9.55111, 10.3919 9.3805, 10.5024 9.29234, 10.6845 9.28547 L 10.7789 9.28547 C 10.9427 9.28604, 11.024 9.35932, 11.024 9.50531 L 11.024 9.57859 Z M 7.09884 14.8732 C 7.09311 14.8308, 7.08681 14.7672, 7.08052 14.6814, 7.07422 14.5961, 7.07078 14.5102, 7.07078 14.4243 L 7.07078 12.3633 C 7.07078 11.9179, 7.04101 11.4925, 6.98147 11.086, 6.92193 10.6801, 6.82403 10.3183, 6.68892 10.0005, 6.55381 9.68336, 6.36774 9.43432, 6.13187 9.25398, 5.89599 9.07421, 5.5897 8.98375, 5.21184 8.98318, 4.85975 8.98375, 4.50422 9.07707, 4.14583 9.26314, 3.78744 9.44978, 3.46683 9.70454, 3.18344 10.0274, 2.83135 10.419, 2.56227 10.845, 2.37678 11.3059, 2.19128 11.7673, 2.03556 12.2448, 1.90961 12.7388, 1.78423 13.2278, 1.6932 13.6984, 1.63595 14.1495, 1.62335 14.2663, 1.61706 14.3819, 1.61706 14.4976, 1.61706 14.8216, 1.67087 15.1331, 1.77793 15.4319, 1.89758 15.7377, 2.08308 15.9838, 2.33441 16.1699, 2.58631 16.3565, 2.88803 16.4493, 3.24012 16.4487, 3.95118 16.4493, 4.63533 16.309, 5.29257 16.0279, 5.94981 15.7474, 6.55209 15.3621, 7.09884 14.8732 Z" stroke="none" fill="#000000" />
			<path d="M 2.39138 3.19713 L -1.90858 3.19713, -1.90858 2.915 C -1.90858 2.8948, -1.898 2.86402, -1.87684 2.82266 L -0.149418 0.945196 C 0.0551279 0.71981, 0.261918 0.488975, 0.471594 0.253009, 0.68127 0.0170434, 0.868504 -0.224052, 1.03394 -0.470277, 1.19937 -0.716502, 1.33146 -0.970422, 1.4302 -1.23204, 1.52895 -1.49365, 1.578 -1.76809, 1.578 -2.05567, 1.578 -2.29805, 1.54658 -2.52472, 1.4831 -2.73503, 1.41962 -2.94535, 1.32825 -3.13002, 1.20835 -3.28904, 1.08844 -3.44806, 0.938716 -3.5763, 0.759177 -3.67377, 0.579638 -3.77123, 0.371886 -3.81996, 0.13592 -3.82028, -0.216105 -3.81996, -0.527092 -3.7148, -0.7964 -3.50449, -1.06571 -3.29417, -1.24461 -3.06237, -1.33277 -2.80974, -1.35009 -2.80268, -1.32187 -2.79915, -1.24813 -2.79948 L -1.15836 -2.79948 C -1.05256 -2.77511, -0.961191 -2.73824, -0.883605 -2.68887, -0.806018 -2.63917, -0.740935 -2.57088, -0.688036 -2.48368, -0.635136 -2.39647, -0.608846 -2.29132, -0.608846 -2.16852, -0.608846 -1.96302, -0.675532 -1.8056, -0.809545 -1.69627, -0.943558 -1.58663, -1.09328 -1.53212, -1.25871 -1.53244, -1.41709 -1.53212, -1.56489 -1.58663, -1.70243 -1.69627, -1.83965 -1.8056, -1.90858 -1.96302, -1.90858 -2.16852, -1.90858 -2.45547, -1.85215 -2.72734, -1.7393 -2.98382, -1.62645 -3.24031, -1.47352 -3.46249, -1.27987 -3.65068, -1.08623 -3.83856, -0.857315 -3.98732, -0.593136 -4.09697, -0.328958 -4.20629, -0.0487483 -4.26112, 0.24685 -4.26144, 0.612981 -4.26112, 0.948655 -4.20725, 1.25323 -4.09953, 1.55781 -3.99181, 1.8175 -3.83695, 2.0323 -3.63529, 2.24711 -3.43331, 2.41543 -3.19991, 2.53693 -2.93509, 2.65844 -2.66995, 2.71904 -2.37692, 2.71904 -2.05567, 2.71904 -1.6998, 2.63825 -1.37214, 2.47602 -1.07302, 2.31411 -0.77357, 2.11342 -0.499131, 1.87392 -0.2497, 1.63443 5.126e-005, 1.37987 0.235055, 1.11056 0.455632, 0.841252 0.676208, 0.597272 0.890693, 0.378939 1.09909 L -0.836155 2.24301, 0.754048 2.24301 C 0.975907 2.24333, 1.18302 2.24172, 1.37474 2.2382, 1.56678 2.23499, 1.72965 2.22794, 1.86334 2.21768, 1.99736 2.20742, 2.06597 2.20069, 2.06917 2.19684, 2.09738 2.17312, 2.12399 2.12534, 2.14868 2.05353, 2.17337 1.98171, 2.19613 1.89707, 2.21729 1.79961, 2.23845 1.70215, 2.25961 1.60308, 2.28077 1.50209, 2.30193 1.40142, 2.32117 1.29081, 2.3388 1.1709 L 2.72962 1.1709 Z" stroke="none" fill="#000000" transform="matrix(1.12 0 0 1 13.9153 16.3063)" />
			<rect />
		</svg>
	</g>
	<path d="M 6.47456e-007 -5.91672e-006 C 13.5553 -23.2781, 8.5 -52.9219, -12.0042 -70.3917" fill="none" stroke="#000000" stroke-width="5.33333349" stroke-linecap="round" stroke-linejoin="round" transform="matrix(0.25 0 0 0.25 39.0811 105.477)" />
	<path d="M 3.803e-006 -7.36225e-006 C 16.351 -16.8755, 23.246 -40.7737, 18.3973 -63.7656" fill="none" stroke="#000000" stroke-width="5.33333349" stroke-linecap="round" stroke-linejoin="round" transform="matrix(0.25 0 0 0.25 44.617 122.908)" />
</svg>
