<?xml version="1.0"?>
<svg xmlns="http://www.w3.org/2000/svg" xmlns:xlink="http://www.w3.org/1999/xlink" width="304.583191" height="267.083374">
	<defs />
	<g transform="matrix(1 0 -0 1 56.6028 139.892)">
		<svg width="23.9688396" height="45.0428467">
			<defs />
			<path d="M 6.82276 16.7669 C 5.68886 16.731, 4.58525 16.7131, 3.51251 16.7131, 2.44032 16.7131, 1.33672 16.731, 0.202257 16.7669 L 0.202257 15.9949, 0.840743 15.9949 C 1.04385 15.9955, 1.23517 15.9927, 1.41358 15.9865, 1.59256 15.9809, 1.762 15.9657, 1.92247 15.9416, 2.08293 15.918, 2.22151 15.8939, 2.33821 15.8692, 2.43696 15.8518, 2.51887 15.7969, 2.58339 15.7037, 2.64848 15.6111, 2.68046 15.5079, 2.68046 15.3935 L 2.68046 5.27643 C 2.37244 5.4268, 1.99316 5.54069, 1.54319 5.61812, 1.09322 5.6961, 0.600048 5.73482, 0.0636752 5.73426 L 0.0636752 4.97122 C 0.803713 4.97178, 1.48652 4.88369, 2.1121 4.70696, 2.73768 4.53078, 3.27855 4.19976, 3.73469 3.71444 L 4.02139 3.71444 C 4.22449 3.715, 4.32604 3.81375, 4.32604 4.01068 L 4.32604 15.3935 C 4.32604 15.5135, 4.3569 15.6184, 4.41862 15.7082, 4.48034 15.798, 4.57011 15.8518, 4.68681 15.8692, 4.78555 15.8939, 4.91235 15.918, 5.06608 15.9416, 5.22037 15.9657, 5.3943 15.9809, 5.58843 15.9865, 5.78256 15.9927, 5.97219 15.9955, 6.15678 15.9949 L 6.82276 15.9949, 6.82276 16.7669 Z" stroke="none" fill="#000000" />
			<rect />
		</svg>
	</g>
	<g transform="matrix(1 0 -0 1 51.9465 203.98)">
		<svg width="30.0150681" height="45.0428467">
			<defs />
			<path d="M 7.60755 16.7669 L 0.0814935 16.7669, 0.0814935 16.2732 C 0.0814935 16.2379, 0.100008 16.184, 0.137038 16.1116 L 3.16059 12.826 C 3.51798 12.4316, 3.87987 12.0277, 4.2468 11.6147, 4.61373 11.2018, 4.94251 10.7799, 5.23202 10.349, 5.52153 9.91808, 5.75268 9.47372, 5.92549 9.01589, 6.0983 8.55807, 6.18414 8.0778, 6.18414 7.57453, 6.18414 7.15037, 6.12859 6.7537, 6.0175 6.38565, 5.90641 6.01759, 5.74651 5.69442, 5.53668 5.41613, 5.3274 5.13785, 5.06539 4.91343, 4.75119 4.74286, 4.437 4.5723, 4.07287 4.48702, 3.65993 4.48646, 3.04389 4.48702, 2.49966 4.67105, 2.02781 5.0391, 1.55652 5.40716, 1.24345 5.8128, 1.08916 6.25492, 1.05886 6.26726, 1.10823 6.27343, 1.23728 6.27287 L 1.39437 6.27287 C 1.57952 6.31551, 1.73942 6.38004, 1.8752 6.46644, 2.01098 6.5534, 2.12487 6.67291, 2.21745 6.82552, 2.31002 6.97812, 2.35603 7.16215, 2.35603 7.37704, 2.35603 7.73668, 2.23933 8.01216, 2.00481 8.20348, 1.77028 8.39536, 1.50827 8.49074, 1.21876 8.49018, 0.941598 8.49074, 0.682388 8.39536, 0.442255 8.20348, 0.202121 8.01216, 0.0814935 7.73668, 0.0814935 7.37704, 0.0814935 6.87489, 0.18024 6.39911, 0.377733 5.95026, 0.575226 5.50142, 0.842851 5.1126, 1.18173 4.78326, 1.52061 4.45448, 1.92121 4.19415, 2.38352 4.00226, 2.84583 3.81094, 3.3362 3.715, 3.85406 3.71444, 4.49535 3.715, 5.08278 3.80926, 5.61578 3.99778, 6.14879 4.18629, 6.60325 4.45728, 6.97916 4.81019, 7.35507 5.16366, 7.64963 5.57211, 7.86227 6.03554, 8.07491 6.49954, 8.18095 7.01235, 8.18095 7.57453, 8.18095 8.19731, 8.03956 8.77071, 7.75567 9.29418, 7.47233 9.81821, 7.12111 10.2985, 6.702 10.735, 6.28288 11.172, 5.8374 11.5833, 5.36555 11.9693, 4.89426 12.3553, 4.4673 12.7307, 4.08521 13.0954 L 1.95824 15.0972, 4.74165 15.0972 C 5.12991 15.0978, 5.49235 15.095, 5.82787 15.0888, 6.16394 15.0832, 6.44896 15.0708, 6.68348 15.0529, 6.918 15.0349, 7.03807 15.0232, 7.04368 15.0164, 7.09305 14.9749, 7.13962 14.8913, 7.18282 14.7656, 7.22603 14.64, 7.26586 14.4918, 7.30289 14.3213, 7.33992 14.1507, 7.37695 13.9773, 7.41398 13.8006, 7.45101 13.6244, 7.48467 13.4309, 7.51553 13.221 L 8.19946 13.221 Z" stroke="none" fill="#000000" />
			<rect />
		</svg>
	</g>
	<g transform="matrix(1 0 -0 1 145.105 194.405)">
		<svg width="30.0150681" height="47.9999886">
			<defs />
			<path d="M 8.50734 13.3826 C 8.50734 13.8977, 8.39344 14.392, 8.16565 14.8644, 7.93786 15.3374, 7.63265 15.7413, 7.25 16.0757, 6.81855 16.4533, 6.34221 16.7327, 5.82155 16.9151, 5.30088 17.098, 4.75666 17.1888, 4.18942 17.1888, 3.67774 17.1888, 3.17896 17.117, 2.69196 16.9734, 2.20496 16.8298, 1.76621 16.6239, 1.37459 16.3546, 0.982969 16.0852, 0.670459 15.7548, 0.435936 15.3626, 0.201413 14.971, 0.0841516 14.5204, 0.0841516 14.011, 0.0841516 13.6284, 0.212073 13.3428, 0.467916 13.1543, 0.723759 12.9658, 0.993629 12.8715, 1.27696 12.8709, 1.5732 12.8715, 1.84868 12.9658, 2.10453 13.1543, 2.36037 13.3428, 2.48829 13.6284, 2.48829 14.011, 2.48829 14.2388, 2.44397 14.429, 2.3542 14.5816, 2.26499 14.7342, 2.15109 14.8616, 2.01195 14.9631, 1.87337 15.0652, 1.71459 15.1275, 1.53561 15.1511, 1.4436 15.1758, 1.3572 15.1875, 1.27696 15.187, 1.19729 15.1875, 1.18495 15.1937, 1.23993 15.2049, 1.43126 15.5405, 1.80717 15.8373, 2.36822 16.0942, 2.92928 16.3517, 3.53635 16.4802, 4.18942 16.4797, 4.49801 16.4802, 4.78583 16.4039, 5.05402 16.2513, 5.3222 16.0987, 5.54607 15.8939, 5.72448 15.6358, 5.94666 15.3014, 6.09759 14.9424, 6.17782 14.5592, 6.25805 14.1765, 6.29789 13.7843, 6.29789 13.3826, 6.29789 12.9702, 6.25805 12.5741, 6.17782 12.1937, 6.09759 11.8139, 5.94666 11.4621, 5.72448 11.1384, 5.53933 10.8758, 5.31435 10.6632, 5.04953 10.5016, 4.78471 10.34, 4.49801 10.2592, 4.18942 10.2586 L 2.84905 10.2586 C 2.67064 10.2592, 2.57469 10.1756, 2.56235 10.0073 L 2.56235 9.90854 C 2.56235 9.83728, 2.58423 9.78062, 2.62687 9.73798, 2.68242 9.68468, 2.75311 9.65775, 2.83951 9.65718, 3.01849 9.63362, 3.20364 9.62184, 3.3944 9.62128, 3.57955 9.62184, 3.76134 9.61005, 3.93975 9.58537, 4.27302 9.5618, 4.56253 9.45913, 4.80939 9.27623, 5.05626 9.09388, 5.26273 8.86048, 5.4288 8.57602, 5.59488 8.29213, 5.72112 7.96447, 5.80752 7.59305, 5.89392 7.22219, 5.93712 6.84179, 5.93712 6.45241, 5.93712 6.16571, 5.90627 5.8936, 5.84455 5.63607, 5.78283 5.37911, 5.66894 5.15412, 5.5023 4.96224, 5.15725 4.56781, 4.71963 4.37313, 4.18942 4.37874, 3.62275 4.3793, 3.10321 4.4859, 2.63192 4.69798, 2.16063 4.91062, 1.8442 5.13953, 1.68373 5.38415, 1.64109 5.39089, 1.66241 5.39369, 1.74882 5.39313, 1.97099 5.39369, 2.18027 5.45934, 2.3772 5.59062, 2.67344 5.76455, 2.821 6.05799, 2.821 6.47037, 2.821 6.81822, 2.70879 7.08024, 2.4838 7.25641, 2.25882 7.43314, 2.00746 7.52123, 1.7303 7.52067, 1.45875 7.52123, 1.20459 7.43483, 0.967259 7.2609, 0.729931 7.08753, 0.610986 6.82383, 0.610986 6.47037, 0.610986 6.03386, 0.715905 5.64841, 0.925741 5.3129, 1.13558 4.97795, 1.40489 4.69069, 1.73479 4.45111, 2.06469 4.2121, 2.44509 4.0292, 2.87654 3.90352, 3.30856 3.77784, 3.74619 3.715, 4.18942 3.71444, 4.66408 3.715, 5.12359 3.77784, 5.56739 3.90352, 6.01118 4.0292, 6.4303 4.22388, 6.82472 4.48646, 7.14565 4.71425, 7.41496 4.99422, 7.63377 5.32637, 7.85258 5.65851, 7.96199 6.03386, 7.96199 6.45241, 7.96199 6.87208, 7.88681 7.26707, 7.73588 7.63793, 7.58496 8.00935, 7.38466 8.34431, 7.13499 8.64335, 6.88532 8.94296, 6.58795 9.20609, 6.24234 9.43332, 5.89729 9.66111, 5.63808 9.80418, 5.46527 9.86365, 5.61339 9.88217, 5.86643 9.97082, 6.22383 10.129, 6.58178 10.2878, 6.92347 10.4988, 7.25 10.7613, 7.63265 11.0913, 7.93786 11.4846, 8.16565 11.9424, 8.39344 12.4002, 8.50734 12.8805, 8.50734 13.3826 Z" stroke="none" fill="#000000" />
			<rect />
		</svg>
	</g>
	<g transform="matrix(1 0 -0 1 146.951 53.4959)">
		<svg width="32.9738617" height="45.0428467">
			<defs />
			<path d="M 7.08336 13.5711 L 7.08336 15.3935 C 7.08336 15.5017, 7.10356 15.6022, 7.14339 15.6947, 7.18379 15.7879, 7.24999 15.849, 7.34201 15.8782, 7.48452 15.9444, 7.71567 15.9809, 8.03604 15.9865, 8.3564 15.9927, 8.68013 15.9955, 9.00667 15.9949 L 9.00667 16.7669 C 8.06353 16.731, 7.1389 16.7131, 6.23279 16.7131, 5.33902 16.7131, 4.39869 16.731, 3.41234 16.7669 L 3.41234 15.9949 C 3.75179 15.9955, 4.07888 15.9927, 4.39308 15.9865, 4.70727 15.9809, 4.94179 15.9444, 5.09552 15.8782, 5.1881 15.849, 5.25599 15.7879, 5.29919 15.6947, 5.34239 15.6022, 5.36371 15.5017, 5.36371 15.3935 L 5.36371 13.5711, 0.0931168 13.5711, 0.0931168 12.844, 6.26982 3.66058 C 6.35005 3.55342, 6.4516 3.49956, 6.57504 3.49899 L 6.77814 3.49899 C 6.98181 3.49956, 7.08336 3.60111, 7.08336 3.80421 L 7.08336 12.7812, 9.07119 12.7812, 9.07119 13.5711 Z M 5.45628 6.02152 L 0.906653 12.7812, 5.45628 12.7812 Z" stroke="none" fill="#000000" />
			<rect />
		</svg>
	</g>
	<g transform="matrix(1 0 -0 1 68.3359 109.492)">
		<svg width="30.0150681" height="47.9999886">
			<defs />
			<path d="M 8.18236 12.7991 C 8.18236 13.386, 8.07183 13.9459, 7.84965 14.4784, 7.62803 15.0114, 7.30767 15.49, 6.88799 15.9141, 6.46271 16.3276, 5.98357 16.6435, 5.45056 16.8612, 4.91755 17.08, 4.35144 17.1888, 3.75335 17.1888, 3.23606 17.1888, 2.75355 17.0918, 2.30638 16.8971, 1.85978 16.703, 1.47153 16.437, 1.14162 16.0987, 0.811719 15.761, 0.553071 15.3688, 0.365116 14.9227, 0.177161 14.4772, 0.082903 14.0026, 0.082903 13.4993, 0.082903 13.1526, 0.198481 12.8911, 0.429638 12.7144, 0.660794 12.5382, 0.899806 12.4496, 1.14611 12.449, 1.40532 12.4496, 1.64882 12.5365, 1.87661 12.7099, 2.10496 12.8838, 2.21886 13.147, 2.21886 13.4993, 2.21886 13.7153, 2.17117 13.8966, 2.07579 14.043, 1.98041 14.19, 1.86314 14.3033, 1.724 14.3841, 1.58542 14.4649, 1.43001 14.5115, 1.2572 14.5227 L 1.14611 14.5227, 0.960961 14.5227 C 1.10291 15.026, 1.43281 15.4782, 1.95067 15.8788, 2.46853 16.2799, 3.06942 16.4802, 3.75335 16.4797, 4.11131 16.4802, 4.45973 16.3877, 4.79861 16.2019, 5.13749 16.0168, 5.41521 15.7711, 5.63066 15.4653, 5.88314 15.1006, 6.04528 14.6865, 6.11598 14.2225, 6.18667 13.7591, 6.22202 13.2844, 6.22202 12.7991, 6.22202 12.3088, 6.20687 11.838, 6.17601 11.3858, 6.14571 10.9342, 6.01891 10.5078, 5.79673 10.106, 5.63683 9.81316, 5.43204 9.56966, 5.18237 9.37497, 4.9327 9.18085, 4.65385 9.08322, 4.34527 9.08266, 3.75953 9.08322, 3.25121 9.2016, 2.81975 9.43781, 2.3883 9.67458, 2.03988 10.014, 1.77506 10.4561, 1.71951 10.5582, 1.63031 10.6093, 1.50687 10.6087 L 1.43281 10.6087 C 1.21737 10.6093, 1.10908 10.5106, 1.10908 10.3125 L 1.10908 4.01068 C 1.10908 3.85583, 1.19885 3.75708, 1.37727 3.71444, 1.40813 3.715, 1.43113 3.71837, 1.44684 3.72398, 1.46255 3.73015, 1.47601 3.73296, 1.48836 3.7324, 2.38212 4.13972, 3.30338 4.34339, 4.2527 4.34283, 5.21435 4.34339, 6.13617 4.13972, 7.0176 3.7324, 7.02994 3.73296, 7.04229 3.73015, 7.05463 3.72398, 7.06697 3.71837, 7.08549 3.715, 7.11017 3.71444, 7.31328 3.715, 7.41202 3.80758, 7.40585 3.99273, 7.40585 4.10101, 7.38734 4.17283, 7.35031 4.20817, 6.91268 4.80739, 6.35667 5.27587, 5.68172 5.61363, 5.00676 5.95195, 4.29029 6.12083, 3.53174 6.12027, 2.90335 6.12083, 2.3608 6.04901, 1.9041 5.90482 L 1.9041 9.33401 C 2.12011 9.10735, 2.44552 8.90536, 2.87978 8.72863, 3.31461 8.55246, 3.80329 8.46381, 4.34527 8.46325, 4.87547 8.46381, 5.3765 8.58388, 5.84779 8.82289, 6.31964 9.06246, 6.73426 9.37329, 7.09166 9.75593, 7.4614 10.1874, 7.73575 10.6648, 7.91417 11.1883, 8.09315 11.7123, 8.18236 12.2493, 8.18236 12.7991 Z" stroke="none" fill="#000000" />
			<rect />
		</svg>
	</g>
	<g transform="matrix(1 0 -0 1 165.08 173.206)">
		<svg width="30.0150681" height="47.9999886">
			<defs />
			<path d="M 8.50734 12.7632 C 8.50734 13.386, 8.41532 13.9442, 8.23017 14.438, 8.04559 14.9317, 7.73139 15.4181, 7.28703 15.8962, 6.84941 16.3456, 6.40112 16.6732, 5.94161 16.8791, 5.48267 17.0856, 4.92946 17.1888, 4.282 17.1888, 3.62275 17.1888, 3.01849 17.0261, 2.46978 16.6996, 1.92106 16.3742, 1.48343 15.9326, 1.1569 15.3755, 0.694584 14.6158, 0.400589 13.8141, 0.27379 12.9702, 0.147551 12.1264, 0.0841516 11.2854, 0.0841516 10.4472, 0.0841516 9.61005, 0.205901 8.78586, 0.449401 7.97457, 0.692901 7.16384, 1.08284 6.41426, 1.61921 5.72528, 2.06918 5.13953, 2.6179 4.65758, 3.26536 4.28055, 3.91282 3.90352, 4.62425 3.715, 5.40075 3.71444, 6.14696 3.715, 6.76637 3.90689, 7.25954 4.28953, 7.75271 4.67273, 7.99902 5.22313, 7.99902 5.94073, 7.99902 6.27624, 7.89747 6.52479, 7.6938 6.68637, 7.4907 6.84796, 7.25618 6.92875, 6.99136 6.92819, 6.73888 6.92875, 6.51221 6.84796, 6.31191 6.68637, 6.11161 6.52479, 6.01118 6.27624, 6.01118 5.94073, 6.01118 5.58221, 6.14359 5.3129, 6.40841 5.1328, 6.58122 5.02564, 6.77591 4.97178, 6.99136 4.97122, 7.05924 4.97178, 7.06822 4.96897, 7.01885 4.96224, 6.93244 4.83095, 6.74337 4.70135, 6.45049 4.5723, 6.15762 4.44382, 5.80808 4.3793, 5.40075 4.37874, 4.85204 4.3793, 4.35886 4.54257, 3.92124 4.86854, 3.48361 5.19508, 3.11387 5.60297, 2.81202 6.09333, 2.45463 6.71611, 2.23862 7.39443, 2.16456 8.12718, 2.0905 8.86048, 2.0473 9.4451, 2.03496 9.88161, 2.14605 9.62464, 2.41311 9.30933, 2.83503 8.9351, 3.2575 8.56143, 3.79219 8.37404, 4.4391 8.37348, 5.0557 8.37404, 5.58758 8.47728, 6.03419 8.68375, 6.48135 8.89022, 6.91112 9.2117, 7.32406 9.64821, 7.75608 10.1274, 8.0613 10.6093, 8.23971 11.0941, 8.41813 11.5788, 8.50734 12.1354, 8.50734 12.7632 Z M 6.53802 12.7632 C 6.53802 12.1892, 6.5195 11.6731, 6.48247 11.2152, 6.44544 10.7574, 6.32257 10.3551, 6.11274 10.0073, 5.89729 9.65494, 5.65659 9.39461, 5.39177 9.22685, 5.12695 9.05966, 4.80322 8.9755, 4.42058 8.97494, 4.00764 8.9755, 3.65473 9.08041, 3.36186 9.28969, 3.06899 9.49953, 2.821 9.77445, 2.6179 10.1156, 2.41479 10.4567, 2.26948 10.8545, 2.18308 11.3089, 2.12136 11.6209, 2.0905 11.953, 2.0905 12.3054, 2.0905 12.4434, 2.09667 12.5904, 2.10902 12.7453 L 2.10902 12.8171 C 2.1337 13.2665, 2.16793 13.6856, 2.21113 14.0744, 2.25433 14.4638, 2.32222 14.7808, 2.41423 15.0254, 2.58704 15.4569, 2.8412 15.807, 3.17727 16.0763, 3.51335 16.3456, 3.8814 16.4802, 4.282 16.4797, 4.69494 16.4802, 5.04336 16.4011, 5.32669 16.2423, 5.61059 16.0841, 5.86026 15.8277, 6.07571 15.4742, 6.29789 15.1219, 6.4303 14.7224, 6.4735 14.2764, 6.5167 13.8309, 6.53802 13.3265, 6.53802 12.7632 Z" stroke="none" fill="#000000" />
			<rect />
		</svg>
	</g>
	<g transform="matrix(1 0 -0 1 174.012 56.1567)">
		<svg width="30.0150681" height="47.9999886">
			<defs />
			<path d="M 8.77641 4.62111 C 8.77641 4.65758, 8.76127 4.70864, 8.72985 4.77372 L 5.95597 8.57097 C 5.59857 9.06807, 5.31973 9.61735, 5.11943 10.2188, 4.91913 10.8203, 4.77606 11.452, 4.68966 12.1129, 4.60325 12.7744, 4.54939 13.4494, 4.52751 14.1372, 4.50619 14.8257, 4.49497 15.5197, 4.49497 16.2193, 4.49497 16.5431, 4.38893 16.7883, 4.17629 16.9554, 3.96365 17.1232, 3.73081 17.2068, 3.47833 17.2068, 3.22585 17.2068, 2.99582 17.1232, 2.78935 16.9554, 2.58288 16.7883, 2.47964 16.5431, 2.47964 16.2193, 2.47964 14.7595, 2.73436 13.3551, 3.24268 12.0052, 3.751 10.6559, 4.43662 9.38844, 5.29953 8.20292 L 7.05621 5.82403, 3.728 5.82403 C 3.30889 5.82459, 2.91895 5.82795, 2.55819 5.83356, 2.19799 5.83974, 1.89109 5.8504, 1.63805 5.86498, 1.38558 5.88013, 1.25597 5.89023, 1.2498 5.89584, 1.18808 5.95026, 1.13422 6.04003, 1.08822 6.16571, 1.04221 6.29139, 0.999007 6.43839, 0.958611 6.60558, 0.918776 6.77334, 0.883429 6.94671, 0.852571 7.12624, 0.821712 7.30578, 0.790854 7.4971, 0.759996 7.70021 L 0.0755033 7.70021, 0.741481 3.51695, 1.41644 3.51695, 1.41644 3.69649 C 1.41644 3.76269, 1.45347 3.82553, 1.52696 3.885, 1.65657 3.96916, 1.79235 4.02302, 1.93373 4.04659, 2.10037 4.07128, 2.30403 4.09372, 2.54417 4.11448, 2.78486 4.1358, 3.04239 4.14926, 3.31674 4.15487, 3.5911 4.16105, 3.86658 4.16385, 4.14375 4.16329 L 8.77641 4.16329, 8.77641 4.62111 Z" stroke="none" fill="#000000" />
			<rect />
		</svg>
	</g>
	<g transform="matrix(1 0 -0 1 189.068 171.732)">
		<svg width="30.0150681" height="47.9999886">
			<defs />
			<path d="M 8.50734 13.4455 C 8.50734 13.9846, 8.39344 14.4801, 8.16565 14.9317, 7.93786 15.3839, 7.62928 15.78, 7.24103 16.1212, 6.85277 16.4623, 6.40561 16.7254, 5.90009 16.9106, 5.39514 17.0963, 4.8554 17.1888, 4.282 17.1888, 3.74002 17.1888, 3.21879 17.1114, 2.71945 16.9554, 2.2201 16.8, 1.77631 16.5762, 1.38805 16.2827, 0.999801 15.9899, 0.685607 15.6308, 0.444913 15.2055, 0.204779 14.7808, 0.0841516 14.3078, 0.0841516 13.7866, 0.0841516 13.3445, 0.161578 12.9422, 0.315308 12.5797, 0.469599 12.2179, 0.682241 11.8874, 0.953233 11.5878, 1.22479 11.2887, 1.5373 11.0166, 1.89189 10.7709, 2.24647 10.5257, 2.57189 10.3338, 2.86757 10.1958 L 2.21057 9.78286 C 1.7303 9.48438, 1.34317 9.09556, 1.0503 8.61642, 0.757423 8.13784, 0.610986 7.61381, 0.610986 7.04489, 0.610986 6.56687, 0.713099 6.12531, 0.916203 5.72135, 1.11987 5.31739, 1.38974 4.96729, 1.72525 4.67105, 2.06133 4.37481, 2.45294 4.14141, 2.89955 3.97085, 3.34671 3.80028, 3.80734 3.715, 4.282 3.71444, 4.75048 3.715, 5.20382 3.78401, 5.64145 3.92147, 6.07907 4.05949, 6.4735 4.25699, 6.82472 4.51395, 7.17594 4.77148, 7.45367 5.08399, 7.65677 5.45204, 7.86044 5.8201, 7.96199 6.22855, 7.96199 6.67684, 7.96199 7.04265, 7.89298 7.3776, 7.75384 7.68282, 7.61525 7.98803, 7.43628 8.26968, 7.21746 8.52665, 6.99865 8.78418, 6.73832 9.01309, 6.43647 9.21339, 6.13462 9.41425, 5.86924 9.57078, 5.64145 9.68412 L 6.69512 10.3574 C 7.23822 10.6929, 7.67585 11.13, 8.00856 11.6686, 8.34126 12.2072, 8.50734 12.7997, 8.50734 13.4455 Z M 6.88027 6.67684 C 6.88027 6.3604, 6.81126 6.05967, 6.67211 5.77521, 6.53353 5.49132, 6.34558 5.24726, 6.10825 5.04359, 5.87092 4.84049, 5.59656 4.6789, 5.28517 4.55884, 4.97435 4.43933, 4.63996 4.3793, 4.282 4.37874, 3.94312 4.3793, 3.61827 4.42587, 3.30688 4.51844, 2.99549 4.61158, 2.72113 4.74455, 2.4838 4.91791, 2.24647 5.09184, 2.05852 5.29831, 1.91994 5.53732, 1.78136 5.7769, 1.71179 6.03386, 1.71179 6.30878, 1.71179 6.62073, 1.79538 6.90519, 1.96146 7.16215, 2.12753 7.41968, 2.34971 7.63176, 2.62687 7.79895 L 5.00296 9.28913 C 5.52699 9.0086, 5.97135 8.64784, 6.33492 8.20797, 6.69848 7.7681, 6.88027 7.25809, 6.88027 6.67684 Z M 7.31453 14.1187 C 7.31453 13.7484, 7.21297 13.4, 7.00987 13.0735, 6.80677 12.7475, 6.53241 12.4827, 6.1868 12.2785 L 3.49595 10.6087 C 2.87374 10.9145, 2.34522 11.3454, 1.9104 11.902, 1.47614 12.4586, 1.25845 13.0869, 1.25845 13.7866, 1.25845 14.1524, 1.34036 14.5025, 1.50363 14.8374, 1.66746 15.173, 1.88627 15.4613, 2.16007 15.7037, 2.43443 15.9461, 2.75648 16.1363, 3.12622 16.2738, 3.49652 16.4118, 3.8814 16.4802, 4.282 16.4797, 4.68933 16.4802, 5.07758 16.4208, 5.44732 16.3007, 5.81706 16.1812, 6.14191 16.0168, 6.42244 15.807, 6.70297 15.5977, 6.92178 15.3508, 7.07888 15.0664, 7.23598 14.7825, 7.31453 14.4666, 7.31453 14.1187 Z" stroke="none" fill="#000000" />
			<rect />
		</svg>
	</g>
	<g transform="matrix(1 0 -0 1 240.498 98.8233)">
		<svg width="30.0150681" height="47.9999886">
			<defs />
			<path d="M 8.50734 10.4472 C 8.50734 11.2854, 8.39176 12.1073, 8.1606 12.9119, 7.92945 13.717, 7.55859 14.4756, 7.0469 15.187, 6.63396 15.7559, 6.11891 16.2322, 5.5023 16.6149, 4.88626 16.9975, 4.20177 17.1888, 3.44995 17.1888, 3.06787 17.1888, 2.70093 17.1473, 2.34971 17.0632, 1.99849 16.9796, 1.6899 16.8466, 1.42508 16.6643, 1.16026 16.4819, 0.952111 16.253, 0.801186 15.9775, 0.650261 15.7026, 0.574518 15.3733, 0.574518 14.9895, 0.574518 14.6669, 0.679436 14.42, 0.888711 14.2495, 1.09855 14.0789, 1.32353 13.9936, 1.56367 13.9931, 1.82905 13.9936, 2.06469 14.0778, 2.27116 14.245, 2.47763 14.4127, 2.58087 14.6607, 2.58087 14.9895, 2.58087 15.3491, 2.45182 15.6095, 2.19261 15.7705, 2.00185 15.8906, 1.80436 15.9534, 1.6007 15.959, 1.53337 15.9596, 1.54571 15.9685, 1.63773 15.9859, 1.72413 16.106, 1.93509 16.2188, 2.27116 16.3231, 2.60724 16.4281, 2.99998 16.4802, 3.44995 16.4797, 3.95546 16.4802, 4.41441 16.3203, 4.82735 16, 5.24029 15.6802, 5.57636 15.2773, 5.83557 14.792, 6.18119 14.1524, 6.38148 13.4763, 6.43647 12.7638, 6.49201 12.0518, 6.52287 11.4739, 6.52904 11.0307, 6.41795 11.3005, 6.15482 11.6226, 5.73851 11.9962, 5.3222 12.3705, 4.79368 12.5573, 4.15239 12.5567, 3.53635 12.5573, 2.99998 12.4529, 2.54384 12.2431, 2.08769 12.0338, 1.65905 11.7073, 1.25845 11.2641, 0.820823 10.786, 0.516167 10.303, 0.343361 9.81484, 0.170555 9.32728, 0.0841516 8.77183, 0.0841516 8.14906, 0.0841516 7.51506, 0.176726 6.95456, 0.361876 6.46644, 0.547026 5.97888, 0.873562 5.49524, 1.34149 5.0161, 1.77911 4.56781, 2.23694 4.23903, 2.71496 4.0292, 3.19298 3.81992, 3.76134 3.715, 4.42058 3.71444, 5.06804 3.715, 5.65716 3.88276, 6.1868 4.21771, 6.717 4.55323, 7.14565 4.9959, 7.47218 5.54574, 7.92215 6.29419, 8.20717 7.09202, 8.32724 7.93866, 8.4473 8.78586, 8.50734 9.62184, 8.50734 10.4472 Z M 6.50099 8.05929 C 6.4763 7.62278, 6.44264 7.20872, 6.39944 6.81654, 6.3568 6.42492, 6.27937 6.10287, 6.16828 5.85096, 6.01455 5.43241, 5.78171 5.08287, 5.47032 4.80121, 5.15894 4.52012, 4.80883 4.3793, 4.42058 4.37874, 3.98295 4.3793, 3.61658 4.46009, 3.32034 4.62167, 3.02466 4.78326, 2.75984 5.0464, 2.52532 5.41109, 2.28519 5.76455, 2.14156 6.16908, 2.09555 6.62354, 2.04954 7.07855, 2.02598 7.58687, 2.02598 8.14906, 2.02598 8.72414, 2.04954 9.24032, 2.09555 9.69814, 2.14156 10.156, 2.26948 10.5554, 2.47875 10.896, 2.68859 11.2618, 2.9248 11.5294, 3.18681 11.7, 3.44883 11.8706, 3.77705 11.9558, 4.17091 11.9553, 4.57151 11.9558, 4.92161 11.8498, 5.22065 11.6372, 5.5197 11.4251, 5.77105 11.1496, 5.97415 10.8113, 6.17782 10.4735, 6.32257 10.0707, 6.40841 9.60332, 6.47013 9.2925, 6.50099 8.96035, 6.50099 8.60688, 6.50099 8.46998, 6.49482 8.32298, 6.48247 8.16701, 6.48247 8.10754, 6.48865 8.07163, 6.50099 8.05929 Z" stroke="none" fill="#000000" />
			<rect />
		</svg>
	</g>
	<path d="M -41.3415 51.592 C -67.354 30.7453, -73.778 -6.20763, -56.3273 -34.6109" fill="none" stroke="#000000" stroke-width="5.86666679" stroke-linecap="round" stroke-linejoin="round" transform="matrix(0.227273 0 -0 0.227273 271.165 105.79)" />
	<path d="M -9.52375 -65.1505 C 8.42789 -67.7746, 26.6668 -62.8755, 40.8874 -51.6098" fill="none" stroke="#000000" stroke-width="5.86666679" stroke-linecap="round" stroke-linejoin="round" transform="matrix(0.227273 0 -0 0.227273 186.128 212.436)" />
	<path d="M -65.736 -42.6344 C -53.4461 -61.5844, -33.5764 -74.3089, -11.2232 -77.5442" fill="none" stroke="#000000" stroke-width="5.86666679" stroke-linecap="round" stroke-linejoin="round" transform="matrix(0.227273 0 -0 0.227273 186.128 212.436)" />
	<path d="M -91.5027 12.877 C -94.6056 -9.1718, -89.6426 -31.5996, -77.5268 -50.2807" fill="none" stroke="#000000" stroke-width="5.86666679" stroke-linecap="round" stroke-linejoin="round" transform="matrix(0.227273 0 -0 0.227273 186.128 212.436)" />
	<path d="M 5.82351 -56.6012 C 31.5998 -53.9491, 52.3284 -34.2155, 56.245 -8.60023" fill="none" stroke="#000000" stroke-width="5.86666679" stroke-linecap="round" stroke-linejoin="round" transform="matrix(0.227273 0 -0 0.227273 36.3196 234.104)" />
	<path d="M 58.8931 38.1967 C 44.5444 60.3212, 19.0069 72.5374, -7.22265 69.824" fill="none" stroke="#000000" stroke-width="5.86666679" stroke-linecap="round" stroke-linejoin="round" transform="matrix(0.227273 0 -0 0.227273 47.898 122.783)" />
	<path d="M 42.8864 -31.9427 C 56.2778 -13.9625, 57.0323 10.4622, 44.7762 29.2347" fill="none" stroke="#000000" stroke-width="5.86666679" stroke-linecap="round" stroke-linejoin="round" transform="matrix(0.227273 0 -0 0.227273 47.898 122.185)" />
	<path d="M 65.8504 40.4621 C 53.842 60.007, 33.7725 73.2078, 11.0705 76.4936" fill="none" stroke="#000000" stroke-width="5.86666679" stroke-linecap="round" stroke-linejoin="round" transform="matrix(0.227273 0 -0 0.227273 160.886 38.0294)" />
	<path d="M 8.54999 59.0754 C -13.0573 62.2029, -34.6481 53.2835, -47.7487 35.8177" fill="none" stroke="#000000" stroke-width="5.86666679" stroke-linecap="round" stroke-linejoin="round" transform="matrix(0.227273 0 -0 0.227273 160.886 38.0294)" />
	<path d="M 329.575 -47.698 L -329.577 47.698" fill="none" stroke="#000000" stroke-width="5.86666679" stroke-linecap="round" stroke-linejoin="round" transform="matrix(0.227273 0 0 0.227273 111.224 223.277)" />
	<path d="M 304.101 198.553 L -304.11 -198.555" fill="none" stroke="#000000" stroke-width="5.86666679" stroke-linecap="round" stroke-linejoin="round" transform="matrix(0.227273 0 0 0.227273 117.014 167.311)" />
	<path d="M -55.5317 -383.694 L 55.5317 383.698" fill="none" stroke="#000000" stroke-width="5.86666679" stroke-linecap="round" stroke-linejoin="round" transform="matrix(0.227273 0 0 0.227273 173.507 125.232)" />
	<path d="M -248.579 185.141 L 248.569 -185.143" fill="none" stroke="#000000" stroke-width="5.86666679" stroke-linecap="round" stroke-linejoin="round" transform="matrix(0.227273 0 0 0.227273 104.393 80.1071)" />
	<path d="M -242.617 -149.075 L 242.613 149.073" fill="none" stroke="#000000" stroke-width="5.86666679" stroke-linecap="round" stroke-linejoin="round" transform="matrix(0.227273 0 0 0.227273 216.026 71.9098)" />
	<path d="M 187.081 -234.621 L -187.086 234.623" fill="none" stroke="#000000" stroke-width="5.86666679" stroke-linecap="round" stroke-linejoin="round" transform="matrix(0.227273 0 0 0.227273 228.647 159.113)" />
	<path d="M -248.876 -9.27558 L 248.876 -9.27558, 248.876 9.27558, -248.876 9.27558 Z" stroke="none" fill="#FFFFFF" transform="matrix(0.0232607 -0.226079 0.226079 0.0232607 42.1088 178.45)" />
	<path d="M -248.876 -9.27558 L 248.876 -9.27558, 248.876 9.27558, -248.876 9.27558 Z" fill="none" stroke="#000000" stroke-width="5.28000021" stroke-linecap="round" stroke-linejoin="round" transform="matrix(0.0232607 -0.226079 0.226079 0.0232607 42.1088 178.45)" />
	<path d="M 0 -21.0459 L 21.9503 21.0459, -21.9503 21.0459 Z" stroke="none" fill="#FFFFFF" transform="matrix(0.227273 0 -0 0.227273 47.6624 122.497)" />
	<path d="M 0 -21.0459 L 21.9503 21.0459, -21.9503 21.0459 Z" fill="none" stroke="#000000" stroke-width="5.28000021" stroke-linecap="round" stroke-linejoin="round" transform="matrix(0.227273 0 -0 0.227273 47.6624 122.497)" />
	<path d="M 0 -21.0466 L 21.9517 21.0466, -21.9517 21.0466 Z" stroke="none" fill="#FFFFFF" transform="matrix(0.227273 0 -0 0.227273 270.388 105.533)" />
	<path d="M 0 -21.0466 L 21.9517 21.0466, -21.9517 21.0466 Z" fill="none" stroke="#000000" stroke-width="5.28000021" stroke-linecap="round" stroke-linejoin="round" transform="matrix(0.227273 0 -0 0.227273 270.388 105.533)" />
	<ellipse cx="1189.9387454986572" cy="141.79004096984863" rx="17.600000381469727" ry="17.600000381469727" stroke="none" fill="#000000" transform="matrix(0.227273 0 0 0.227273 -109.339 6.16516)" />
	<ellipse cx="1189.938777923584" cy="141.79003524780273" rx="11.733333587646484" ry="11.733333587646484" stroke="none" fill="#FFFFFF" transform="matrix(0.227273 0 0 0.227273 -109.339 6.16516)" />
	<ellipse cx="1298.3697757720947" cy="908.64858436584473" rx="17.600000381469727" ry="17.600000381469727" stroke="none" fill="#000000" transform="matrix(0.227273 0 0 0.227273 -109.339 6.16516)" />
	<ellipse cx="1298.3698081970215" cy="908.64855575561523" rx="11.733333587646484" ry="11.733333587646484" stroke="none" fill="#FFFFFF" transform="matrix(0.227273 0 0 0.227273 -109.339 6.16516)" />
	<ellipse cx="638.36904335021973" cy="1002.9328861236572" rx="17.600000381469727" ry="17.600000381469727" stroke="none" fill="#000000" transform="matrix(0.227273 0 0 0.227273 -109.339 6.16516)" />
	<ellipse cx="638.36901473999023" cy="1002.9328575134277" rx="11.733333587646484" ry="11.733333587646484" stroke="none" fill="#FFFFFF" transform="matrix(0.227273 0 0 0.227273 -109.339 6.16516)" />
	<g transform="matrix(1 0 -0 1 22.7163 103.729)">
		<svg width="41.9788857" height="45.0428467">
			<defs />
			<path d="M 12.3983 16.5678 C 12.3296 16.751, 12.2099 16.8426, 12.0399 16.8426, 11.4113 16.806, 10.7849 16.7876, 10.1621 16.7876 L 9.85061 16.7876 C 9.11493 16.8002, 8.37582 16.8185, 7.63385 16.8426, 7.46439 16.8426, 7.37279 16.7636, 7.36019 16.6044 L 7.36019 16.5311, 7.39798 16.3754 C 7.44836 16.1745, 7.57088 16.0766, 7.76553 16.0823, 7.99854 16.0829, 8.20636 16.0754, 8.38842 16.06, 8.57105 16.0451, 8.74738 15.9913, 8.91685 15.8991, 8.97982 15.8693, 9.03364 15.8264, 9.07715 15.7709, 9.10234 15.7228, 9.11837 15.6735, 9.12409 15.6243 L 9.12409 15.5693, 8.89795 12.5282, 4.63333 12.5282, 3.13335 15.093 C 3.05148 15.2401, 3.01026 15.3747, 3.01026 15.4961, 3.01026 15.6002, 3.04175 15.6953, 3.10473 15.78, 3.24327 15.9821, 3.50148 16.0829, 3.87819 16.0823, 4.04822 16.0829, 4.13925 16.1562, 4.15185 16.3021, 4.15185 16.3394, 4.14555 16.3789, 4.13295 16.4212 L 4.09574 16.5678 C 4.02647 16.751, 3.90395 16.8426, 3.72762 16.8426, 3.14938 16.8185, 2.57687 16.8002, 2.01009 16.7876 L 1.75589 16.7876 C 1.26525 16.7876, 0.768314 16.806, 0.265078 16.8426, 0.170614 16.8426, 0.101341 16.8123, 0.0572573 16.751, 0.0194716 16.7149, 0.000578821 16.672, 0.000578821 16.6228, 0.000578821 16.5867, 0.00687641 16.55, 0.0194716 16.5128 L 0.0572573 16.3754 C 0.107638 16.1745, 0.230728 16.0766, 0.425381 16.0823, 0.626904 16.0829, 0.824993 16.0617, 1.01965 16.0188, 1.21487 15.9764, 1.3975 15.8997, 1.56697 15.7897, 1.737 15.6798, 1.89444 15.547, 2.03871 15.3913, 2.18356 15.2356, 2.31237 15.0598, 2.42573 14.864 L 9.08631 3.45961 C 9.19967 3.289, 9.34451 3.20656, 9.52084 3.21228 L 9.70004 3.21228 C 9.90156 3.21285, 10.0143 3.30732, 10.0395 3.49625 L 10.8697 15.4319 C 10.8823 15.5911, 10.9012 15.7119, 10.9264 15.7943, 10.9515 15.8768, 10.9956 15.9363, 11.0586 15.9724, 11.1468 16.0279, 11.2928 16.06, 11.4971 16.0691, 11.7021 16.0783, 11.9328 16.0829, 12.1905 16.0823, 12.3668 16.0829, 12.455 16.1562, 12.455 16.3021, 12.455 16.3394, 12.4487 16.3789, 12.4361 16.4212 Z M 8.4451 6.03361 L 5.08618 11.7862, 8.84127 11.7862 Z" stroke="none" fill="#000000" />
			<rect />
		</svg>
	</g>
	<g transform="matrix(1 0 -0 1 282.482 95.622)">
		<svg width="44.9376793" height="45.0428467">
			<defs />
			<path d="M 13.0332 7.12367 C 12.9267 7.56393, 12.7143 7.97614, 12.3966 8.36086, 12.0788 8.74559, 11.7124 9.07249, 11.2973 9.34043, 10.9704 9.56084, 10.6355 9.73489, 10.2926 9.86313, 9.94965 9.99137, 9.82828 10.0463, 9.92904 10.0274, 9.91072 10.0217, 10.0756 10.1001, 10.4248 10.2616, 10.7741 10.4236, 11.0804 10.6446, 11.3443 10.9251, 11.6403 11.2251, 11.8418 11.5852, 11.9483 12.006, 11.9987 12.2144, 12.0273 12.4188, 12.033 12.6198, 12.033 12.8522, 11.9987 13.0938, 11.9294 13.3434, 11.8103 13.814, 11.5899 14.2634, 11.2693 14.6905, 10.9487 15.1182, 10.5645 15.4903, 10.118 15.8075, 9.64622 16.1499, 9.1447 16.4081, 8.61342 16.5821, 8.08213 16.7561, 7.55198 16.8426, 7.02298 16.8426 L 0.267942 16.8426 C 0.173478 16.8426, 0.104204 16.8151, 0.0601207 16.7602, 0.0166099 16.7178, -0.00571795 16.672, -0.00571795 16.6228, -0.00571795 16.5867, 0.000579656 16.55, 0.0131749 16.5128 L 0.0509605 16.3754 C 0.0887462 16.1745, 0.211263 16.0766, 0.418512 16.0823, 0.714499 16.0829, 0.991594 16.0783, 1.24922 16.0691, 1.50685 16.06, 1.70208 16.0279, 1.83376 15.9724, 1.94711 15.9117, 2.03528 15.7468, 2.09826 15.4777 L 4.74955 5.15423 C 4.78733 5.02027, 4.80565 4.91664, 4.80565 4.84279, 4.80565 4.77008, 4.7902 4.72714, 4.75871 4.71455, 4.67054 4.66016, 4.49936 4.62695, 4.24459 4.61436, 3.98983 4.60234, 3.71159 4.59604, 3.4093 4.59547, 3.31541 4.59604, 3.24614 4.56569, 3.20205 4.50386, 3.16427 4.4678, 3.14538 4.422, 3.14538 4.36646, 3.14538 4.33039, 3.15511 4.29662, 3.17343 4.2657 L 3.20205 4.1283 C 3.22095 4.04357, 3.26675 3.97486, 3.33888 3.92277, 3.41102 3.87124, 3.48831 3.84491, 3.57018 3.84433 L 9.82542 3.84433 C 10.3413 3.84491, 10.8285 3.92162, 11.2876 4.07391, 11.7468 4.22677, 12.1275 4.4678, 12.4292 4.79699, 12.7252 5.09698, 12.933 5.44507, 13.0521 5.84125, 13.1025 6.04334, 13.1277 6.24773, 13.1277 6.45498, 13.1277 6.67539, 13.0962 6.8981, 13.0332 7.12367 Z M 11.1273 7.08703 C 11.1903 6.84314, 11.2218 6.59925, 11.2218 6.35422 L 11.2218 6.13437 C 11.1966 5.84182, 11.1084 5.56988, 10.9573 5.31912, 10.8256 5.09355, 10.651 4.91664, 10.434 4.7884, 10.217 4.66016, 9.96397 4.59604, 9.67428 4.59547 L 7.18329 4.59547 C 6.85009 4.59604, 6.6583 4.61722, 6.60791 4.65959, 6.53234 4.72142, 6.46021 4.89832, 6.39093 5.19088 L 5.2213 9.78927, 7.79702 9.78927 C 8.15541 9.78985, 8.51094 9.72, 8.86303 9.57916, 9.2157 9.4389, 9.55176 9.24024, 9.87236 8.98318, 10.5393 8.44617, 10.9578 7.81412, 11.1273 7.08703 Z M 9.96683 13.2885 C 10.055 12.9776, 10.0991 12.669, 10.0991 12.3633 L 10.0991 12.1709 C 10.0739 11.8297, 9.98286 11.5148, 9.82542 11.2274, 9.68687 10.9778, 9.49966 10.7746, 9.26379 10.6188, 9.02791 10.4631, 8.75311 10.3853, 8.43823 10.3847 L 5.05126 10.3847, 3.73964 15.5144 C 3.68926 15.7228, 3.66407 15.8722, 3.66407 15.9632, 3.66407 16.0125, 3.6675 16.0399, 3.6738 16.0457, 3.6864 16.0646, 3.85014 16.0766, 4.16444 16.0823 L 6.68349 16.0823 C 7.02928 16.0829, 7.37851 16.0084, 7.73061 15.8585, 8.08327 15.709, 8.40731 15.5121, 8.70273 15.267, 9.0302 14.9928, 9.29871 14.6848, 9.50939 14.3424, 9.72008 14.0007, 9.87294 13.6491, 9.96683 13.2885 Z" stroke="none" fill="#000000" />
			<rect />
		</svg>
	</g>
	<g transform="matrix(1 0 -0 1 10.8179 235.829)">
		<svg width="41.9788857" height="47.9999886">
			<defs />
			<path d="M 11.6723 8.71754 C 11.6345 8.88929, 11.5246 8.97746, 11.342 8.98318 L 11.1347 8.98318 C 10.9905 8.98375, 10.9115 8.91047, 10.8989 8.76334 L 10.8989 8.69006 C 10.9618 8.3059, 10.9968 7.93663, 11.0025 7.58168, 11.0025 7.38073, 10.9962 7.17634, 10.9836 6.96795, 10.9206 6.43093, 10.7792 5.95632, 10.5594 5.54411, 10.3395 5.13191, 10.0435 4.80214, 9.67256 4.55482, 9.30157 4.30749, 8.84814 4.18383, 8.31342 4.18326, 7.65961 4.18383, 7.00237 4.34299, 6.34169 4.66016, 5.68159 4.9779, 5.08389 5.40213, 4.54917 5.93285, 3.92628 6.56261, 3.43907 7.25878, 3.08698 8.02194, 2.73488 8.78566, 2.45779 9.56371, 2.25627 10.3572, 2.03642 11.1639, 1.91047 11.9453, 1.87898 12.7022 L 1.87898 12.9587 C 1.87898 13.6251, 2.01123 14.2325, 2.27516 14.7816, 2.52706 15.3014, 2.89461 15.7199, 3.37896 16.0371, 3.8633 16.3548, 4.43924 16.5134, 5.10565 16.5128, 5.64667 16.5134, 6.17796 16.3978, 6.70009 16.1653, 7.22221 15.9334, 7.70198 15.6203, 8.13938 15.2264, 8.57677 14.8325, 8.95864 14.3762, 9.28554 13.857, 9.61302 13.3383, 9.84889 12.7881, 9.99316 12.2076, 10.0309 12.0369, 10.1414 11.9516, 10.3235 11.9511 L 10.5307 11.9511 C 10.6882 11.9516, 10.7729 12.0186, 10.7855 12.1526, 10.7855 12.1898, 10.7764 12.2236, 10.7575 12.2534, 10.588 12.9255, 10.308 13.5638, 9.91759 14.1684, 9.52771 14.773, 9.06398 15.3031, 8.52582 15.7577, 7.98823 16.2128, 7.39855 16.5758, 6.75676 16.8472, 6.11555 17.1191, 5.45488 17.2548, 4.77531 17.2548, 3.90738 17.2548, 3.13564 17.0733, 2.45951 16.7103, 1.78337 16.3474, 1.23434 15.8447, 0.812968 15.2029, 0.372708 14.5136, 0.114506 13.7499, 0.0389352 12.9129, 0.0137447 12.6873, 0.00114954 12.4526, 0.00114954 12.2076, 0.00114954 11.5915, 0.0801558 10.9623, 0.237023 10.3206, 0.476333 9.42344, 0.855906 8.55781, 1.3746 7.72423, 1.89329 6.89066, 2.54252 6.13208, 3.32228 5.44736, 4.05853 4.82504, 4.85603 4.33039, 5.7148 3.96399, 6.57356 3.59758, 7.43347 3.41438, 8.29453 3.41381, 8.98039 3.41438, 9.56721 3.56552, 10.0544 3.86781, 10.5422 4.17009, 10.9023 4.53478, 11.1347 4.96187 L 12.4086 3.54205 C 12.459 3.45732, 12.5437 3.41438, 12.6633 3.41381 L 12.7383 3.41381 C 12.8895 3.41438, 12.9651 3.48766, 12.9651 3.63365 L 12.9651 3.70693 Z" stroke="none" fill="#000000" />
			<rect />
		</svg>
	</g>
	<g transform="matrix(1 0 -0 1 190.389 216.193)">
		<svg width="44.9376793" height="45.0428467">
			<defs />
			<path d="M 13.6764 10.4854 C 13.4623 11.3104, 13.1245 12.1074, 12.6619 12.8768, 12.1999 13.6463, 11.6199 14.3453, 10.9215 14.9739, 10.286 15.5424, 9.58811 15.9959, 8.82667 16.3348, 8.06581 16.6737, 7.30494 16.8426, 6.5435 16.8426 L 0.269371 16.8426 C 0.0999078 16.8426, 0.00887877 16.7636, -0.00428895 16.6044 L -0.00428895 16.5311, 0.0334967 16.3754 C 0.0838775 16.1745, 0.206395 16.0766, 0.401048 16.0823, 0.697035 16.0829, 0.976993 16.0783, 1.24092 16.0691, 1.50542 16.06, 1.70007 16.0279, 1.82602 15.9724, 1.94568 15.906, 2.03671 15.7411, 2.09968 15.4777 L 4.75098 5.15423 C 4.78876 5.02027, 4.80708 4.91664, 4.80708 4.84279, 4.80708 4.77008, 4.79163 4.72714, 4.76014 4.71455, 4.67197 4.66016, 4.50079 4.62695, 4.24602 4.61436, 3.99126 4.60234, 3.71302 4.59604, 3.41073 4.59547, 3.23497 4.59604, 3.1468 4.5136, 3.1468 4.34814 L 3.1468 4.27486, 3.20348 4.11914 C 3.24127 3.93651, 3.35806 3.84491, 3.55271 3.84433 L 9.84574 3.84433 C 10.6255 3.84491, 11.3051 4.02525, 11.8839 4.38535, 12.4627 4.74604, 12.9281 5.21893, 13.2802 5.80461, 13.6575 6.46471, 13.8711 7.19752, 13.9214 8.00304, 13.934 8.1748, 13.9403 8.33338, 13.9403 8.47937, 13.9403 9.13318, 13.8527 9.80187, 13.6764 10.4854 Z M 11.8552 6.22597 C 11.6417 5.71988, 11.3068 5.32141, 10.8505 5.03115, 10.3948 4.74146, 9.86177 4.59604, 9.25148 4.59547 L 7.2225 4.59547 C 6.9019 4.59604, 6.7101 4.62066, 6.64713 4.66932, 6.58415 4.71856, 6.51831 4.89203, 6.44904 5.19088 L 3.77886 15.5144 C 3.72847 15.7228, 3.70328 15.8722, 3.70328 15.9632 L 3.70328 16.0365 C 3.72847 16.0617, 3.89565 16.0766, 4.20366 16.0823 L 6.23206 16.0823 C 6.84865 16.0829, 7.46353 15.9443, 8.07668 15.6661, 8.69042 15.3884, 9.23888 15.002, 9.72322 14.5068, 10.2768 13.9331, 10.7016 13.2936, 10.9971 12.5883, 11.2925 11.8829, 11.5283 11.1702, 11.7041 10.4488, 11.8993 9.69825, 12.0344 8.95627, 12.11 8.22289, 12.1226 8.05228, 12.1289 7.8874, 12.1289 7.72824, 12.1289 7.19123, 12.0379 6.69085, 11.8552 6.22597 Z" stroke="none" fill="#000000" />
			<rect />
		</svg>
	</g>
	<g transform="matrix(1 0 -0 1 153.752 9.2561)">
		<svg width="44.9376793" height="45.0428467">
			<defs />
			<path d="M 12.8855 7.99388 C 12.8672 8.07403, 12.8259 8.14274, 12.763 8.20056, 12.7 8.25896, 12.6313 8.28758, 12.5557 8.28701, 12.5305 8.2996, 12.499 8.3059, 12.4612 8.30533, 12.3857 8.3059, 12.3479 8.2996, 12.3479 8.28701, 12.191 8.28758, 12.1057 8.2206, 12.0931 8.08549 L 12.0931 8.02136 C 12.1309 7.73511, 12.1624 7.44485, 12.1876 7.15115, 12.2128 6.92558, 12.2254 6.71833, 12.2254 6.52826 L 12.2254 6.37254 C 12.2128 6.12865, 12.183 5.91052, 12.1361 5.71816, 12.0891 5.52579, 12.0055 5.36263, 11.8859 5.22752, 11.6466 4.94699, 11.291 4.78096, 10.8193 4.72886, 10.3475 4.67733, 9.84431 4.651, 9.30958 4.65043 L 7.28118 4.65043 C 6.94798 4.651, 6.75333 4.67562, 6.69665 4.72371, 6.66516 4.7489, 6.60218 4.92867, 6.50772 5.26416 L 5.33751 9.73431, 6.63997 9.73431 C 6.99263 9.73489, 7.31324 9.72, 7.60236 9.68909, 7.89205 9.65874, 8.14052 9.56714, 8.34776 9.41371, 8.53669 9.26142, 8.67982 9.04787, 8.77715 8.77307, 8.87447 8.49827, 8.97066 8.18396, 9.06455 7.829, 9.13382 7.64637, 9.25348 7.55763, 9.42294 7.56336 L 9.58324 7.56336 C 9.75957 7.56393, 9.84774 7.64351, 9.84774 7.80152 L 9.84774 7.86564, 8.66837 12.3999 C 8.63058 12.59, 8.50807 12.6816, 8.30025 12.6747 L 8.1491 12.6747 C 7.97334 12.6753, 7.88518 12.602, 7.88518 12.4549, 7.88518 12.4188, 7.89491 12.385, 7.91323 12.3541, 7.99567 12.0129, 8.05521 11.698, 8.093 11.4106, 8.10559 11.3379, 8.11189 11.2738, 8.11189 11.2183, 8.11189 11.0477, 8.07411 10.9102, 7.99853 10.8061, 7.89205 10.6601, 7.7014 10.573, 7.42774 10.5456, 7.15408 10.5181, 6.84779 10.5043, 6.50772 10.5038 L 5.14915 10.5038, 3.85643 15.5235 C 3.79345 15.7377, 3.76196 15.8968, 3.76196 15.9999 L 3.76196 16.0365 C 3.78715 16.0617, 3.96349 16.0766, 4.29039 16.0823 L 6.45104 16.0823 C 7.01095 16.0829, 7.55369 16.0451, 8.07869 15.9684, 8.60425 15.8922, 9.09317 15.6981, 9.54546 15.3861, 9.74698 15.2401, 9.93934 15.0449, 10.1214 14.8005, 10.304 14.5566, 10.4769 14.2863, 10.6407 13.9898, 10.8044 13.6938, 10.9596 13.3795, 11.1073 13.0463, 11.255 12.7137, 11.4015 12.385, 11.5458 12.061, 11.5962 11.915, 11.7067 11.8417, 11.8761 11.8411 L 12.0364 11.8411 C 12.2128 11.8417, 12.3009 11.9213, 12.3009 12.0793 L 12.3009 12.1526, 10.4231 16.6228 C 10.3544 16.7693, 10.2411 16.8426, 10.0836 16.8426 L 0.27137 16.8426 C 0.176906 16.8426, 0.107633 16.8151, 0.0635494 16.7602, 0.0200386 16.7178, -0.00171675 16.672, -0.00228926 16.6228, -0.00171675 16.5867, 0.00458086 16.55, 0.0166036 16.5128 L 0.0543892 16.3754 C 0.073282 16.2964, 0.117365 16.2283, 0.186639 16.1699, 0.255913 16.1121, 0.334346 16.0829, 0.42194 16.0823, 0.717928 16.0829, 0.995023 16.0783, 1.25265 16.0691, 1.51028 16.06, 1.70551 16.0279, 1.83718 15.9724, 1.95054 15.9117, 2.03871 15.7468, 2.10168 15.4777 L 4.75298 5.21836 C 4.79076 5.08439, 4.80965 4.9779, 4.80965 4.89775, 4.80965 4.82504, 4.7942 4.7821, 4.76214 4.76951, 4.67397 4.71512, 4.50107 4.68191, 4.24344 4.66932, 3.98581 4.6573, 3.70872 4.651, 3.41273 4.65043, 3.23697 4.651, 3.1488 4.56856, 3.1488 4.4031 L 3.1488 4.33898, 3.18659 4.18326 C 3.23697 3.98231, 3.36006 3.88155, 3.55471 3.88097 L 13.1122 3.88097 C 13.2696 3.88155, 13.3544 3.95769, 13.367 4.10998 L 13.367 4.1741 Z" stroke="none" fill="#000000" />
			<rect />
		</svg>
	</g>
</svg>
