<?xml version="1.0"?>
<svg xmlns="http://www.w3.org/2000/svg" xmlns:xlink="http://www.w3.org/1999/xlink" width="363.608429" height="198.179733">
	<defs />
	<path d="M 173.06 -59.4468 L -173.06 59.446" fill="none" stroke="#000000" stroke-width="9.33333397" stroke-linecap="round" stroke-linejoin="round" transform="matrix(0.142857 0 0 0.142857 240.729 65.4091)" />
	<path d="M 554.799 -190.576 L -554.799 190.575" fill="none" stroke="#000000" stroke-width="9.33333397" stroke-linecap="round" stroke-linejoin="round" transform="matrix(0.142857 0 0 0.142857 114.708 108.697)" />
	<path d="M 37.3453 94.3612 L -37.3456 -94.3588" fill="none" stroke="#000000" stroke-width="9.33333397" stroke-linecap="round" stroke-linejoin="round" transform="matrix(0.142857 0 0 0.142857 165.815 156.494)" />
	<path d="M 113.81 287.559 L -113.81 -287.559" fill="none" stroke="#000000" stroke-width="9.33333397" stroke-linecap="round" stroke-linejoin="round" transform="matrix(0.142857 0 0 0.142857 134.179 76.5599)" />
	<path d="M 474.946 119.18 L -474.946 -119.182" fill="none" stroke="#000000" stroke-width="9.33333397" stroke-linecap="round" stroke-linejoin="round" transform="matrix(0.142857 0 0 0.142857 103.3 152.948)" />
	<path d="M -516.359 -75.028 L 516.361 75.0271" fill="none" stroke="#000000" stroke-width="9.33333397" stroke-linecap="round" stroke-linejoin="round" transform="matrix(0.142857 0 0 0.142857 191.686 46.1985)" />
	<path d="M 330.056 -395.703 L -330.056 395.699" fill="none" stroke="#000000" stroke-width="9.33333397" stroke-linecap="round" stroke-linejoin="round" transform="matrix(0.142857 0 0 0.142857 218.301 113.446)" />
	<path d="M -454.862 -14.758 L 454.862 -14.758, 454.862 14.758, -454.862 14.758 Z" fill="none" stroke="#000000" stroke-width="8.40000057" stroke-linecap="round" stroke-linejoin="round" transform="matrix(0.0906526 -0.11041 0.11041 0.0906526 76.6855 85.7014)" />
	<g transform="matrix(1 0 -0 1 97.0733 8.99996)">
		<svg width="41.9788857" height="45.0428467">
			<defs />
			<path d="M 12.3983 16.5678 C 12.3296 16.751, 12.2099 16.8426, 12.0399 16.8426, 11.4113 16.806, 10.7849 16.7876, 10.1621 16.7876 L 9.85061 16.7876 C 9.11493 16.8002, 8.37582 16.8185, 7.63385 16.8426, 7.46439 16.8426, 7.37279 16.7636, 7.36019 16.6044 L 7.36019 16.5311, 7.39798 16.3754 C 7.44836 16.1745, 7.57088 16.0766, 7.76553 16.0823, 7.99854 16.0829, 8.20636 16.0754, 8.38842 16.06, 8.57105 16.0451, 8.74738 15.9913, 8.91685 15.8991, 8.97982 15.8693, 9.03364 15.8264, 9.07715 15.7709, 9.10234 15.7228, 9.11837 15.6735, 9.12409 15.6243 L 9.12409 15.5693, 8.89795 12.5282, 4.63333 12.5282, 3.13335 15.093 C 3.05148 15.2401, 3.01026 15.3747, 3.01026 15.4961, 3.01026 15.6002, 3.04175 15.6953, 3.10473 15.78, 3.24327 15.9821, 3.50148 16.0829, 3.87819 16.0823, 4.04822 16.0829, 4.13925 16.1562, 4.15185 16.3021, 4.15185 16.3394, 4.14555 16.3789, 4.13295 16.4212 L 4.09574 16.5678 C 4.02647 16.751, 3.90395 16.8426, 3.72762 16.8426, 3.14938 16.8185, 2.57687 16.8002, 2.01009 16.7876 L 1.75589 16.7876 C 1.26525 16.7876, 0.768314 16.806, 0.265078 16.8426, 0.170614 16.8426, 0.101341 16.8123, 0.0572573 16.751, 0.0194716 16.7149, 0.000578821 16.672, 0.000578821 16.6228, 0.000578821 16.5867, 0.00687641 16.55, 0.0194716 16.5128 L 0.0572573 16.3754 C 0.107638 16.1745, 0.230728 16.0766, 0.425381 16.0823, 0.626904 16.0829, 0.824993 16.0617, 1.01965 16.0188, 1.21487 15.9764, 1.3975 15.8997, 1.56697 15.7897, 1.737 15.6798, 1.89444 15.547, 2.03871 15.3913, 2.18356 15.2356, 2.31237 15.0598, 2.42573 14.864 L 9.08631 3.45961 C 9.19967 3.289, 9.34451 3.20656, 9.52084 3.21228 L 9.70004 3.21228 C 9.90156 3.21285, 10.0143 3.30732, 10.0395 3.49625 L 10.8697 15.4319 C 10.8823 15.5911, 10.9012 15.7119, 10.9264 15.7943, 10.9515 15.8768, 10.9956 15.9363, 11.0586 15.9724, 11.1468 16.0279, 11.2928 16.06, 11.4971 16.0691, 11.7021 16.0783, 11.9328 16.0829, 12.1905 16.0823, 12.3668 16.0829, 12.455 16.1562, 12.455 16.3021, 12.455 16.3394, 12.4487 16.3789, 12.4361 16.4212 Z M 8.4451 6.03361 L 5.08618 11.7862, 8.84127 11.7862 Z" stroke="none" fill="#000000" />
			<rect />
		</svg>
	</g>
	<g transform="matrix(1 0 -0 1 9.00003 127.792)">
		<svg width="44.9376793" height="45.0428467">
			<defs />
			<path d="M 13.0332 7.12367 C 12.9267 7.56393, 12.7143 7.97614, 12.3966 8.36086, 12.0788 8.74559, 11.7124 9.07249, 11.2973 9.34043, 10.9704 9.56084, 10.6355 9.73489, 10.2926 9.86313, 9.94965 9.99137, 9.82828 10.0463, 9.92904 10.0274, 9.91072 10.0217, 10.0756 10.1001, 10.4248 10.2616, 10.7741 10.4236, 11.0804 10.6446, 11.3443 10.9251, 11.6403 11.2251, 11.8418 11.5852, 11.9483 12.006, 11.9987 12.2144, 12.0273 12.4188, 12.033 12.6198, 12.033 12.8522, 11.9987 13.0938, 11.9294 13.3434, 11.8103 13.814, 11.5899 14.2634, 11.2693 14.6905, 10.9487 15.1182, 10.5645 15.4903, 10.118 15.8075, 9.64622 16.1499, 9.1447 16.4081, 8.61342 16.5821, 8.08213 16.7561, 7.55198 16.8426, 7.02298 16.8426 L 0.267942 16.8426 C 0.173478 16.8426, 0.104204 16.8151, 0.0601207 16.7602, 0.0166099 16.7178, -0.00571795 16.672, -0.00571795 16.6228, -0.00571795 16.5867, 0.000579656 16.55, 0.0131749 16.5128 L 0.0509605 16.3754 C 0.0887462 16.1745, 0.211263 16.0766, 0.418512 16.0823, 0.714499 16.0829, 0.991594 16.0783, 1.24922 16.0691, 1.50685 16.06, 1.70208 16.0279, 1.83376 15.9724, 1.94711 15.9117, 2.03528 15.7468, 2.09826 15.4777 L 4.74955 5.15423 C 4.78733 5.02027, 4.80565 4.91664, 4.80565 4.84279, 4.80565 4.77008, 4.7902 4.72714, 4.75871 4.71455, 4.67054 4.66016, 4.49936 4.62695, 4.24459 4.61436, 3.98983 4.60234, 3.71159 4.59604, 3.4093 4.59547, 3.31541 4.59604, 3.24614 4.56569, 3.20205 4.50386, 3.16427 4.4678, 3.14538 4.422, 3.14538 4.36646, 3.14538 4.33039, 3.15511 4.29662, 3.17343 4.2657 L 3.20205 4.1283 C 3.22095 4.04357, 3.26675 3.97486, 3.33888 3.92277, 3.41102 3.87124, 3.48831 3.84491, 3.57018 3.84433 L 9.82542 3.84433 C 10.3413 3.84491, 10.8285 3.92162, 11.2876 4.07391, 11.7468 4.22677, 12.1275 4.4678, 12.4292 4.79699, 12.7252 5.09698, 12.933 5.44507, 13.0521 5.84125, 13.1025 6.04334, 13.1277 6.24773, 13.1277 6.45498, 13.1277 6.67539, 13.0962 6.8981, 13.0332 7.12367 Z M 11.1273 7.08703 C 11.1903 6.84314, 11.2218 6.59925, 11.2218 6.35422 L 11.2218 6.13437 C 11.1966 5.84182, 11.1084 5.56988, 10.9573 5.31912, 10.8256 5.09355, 10.651 4.91664, 10.434 4.7884, 10.217 4.66016, 9.96397 4.59604, 9.67428 4.59547 L 7.18329 4.59547 C 6.85009 4.59604, 6.6583 4.61722, 6.60791 4.65959, 6.53234 4.72142, 6.46021 4.89832, 6.39093 5.19088 L 5.2213 9.78927, 7.79702 9.78927 C 8.15541 9.78985, 8.51094 9.72, 8.86303 9.57916, 9.2157 9.4389, 9.55176 9.24024, 9.87236 8.98318, 10.5393 8.44617, 10.9578 7.81412, 11.1273 7.08703 Z M 9.96683 13.2885 C 10.055 12.9776, 10.0991 12.669, 10.0991 12.3633 L 10.0991 12.1709 C 10.0739 11.8297, 9.98286 11.5148, 9.82542 11.2274, 9.68687 10.9778, 9.49966 10.7746, 9.26379 10.6188, 9.02791 10.4631, 8.75311 10.3853, 8.43823 10.3847 L 5.05126 10.3847, 3.73964 15.5144 C 3.68926 15.7228, 3.66407 15.8722, 3.66407 15.9632, 3.66407 16.0125, 3.6675 16.0399, 3.6738 16.0457, 3.6864 16.0646, 3.85014 16.0766, 4.16444 16.0823 L 6.68349 16.0823 C 7.02928 16.0829, 7.37851 16.0084, 7.73061 15.8585, 8.08327 15.709, 8.40731 15.5121, 8.70273 15.267, 9.0302 14.9928, 9.29871 14.6848, 9.50939 14.3424, 9.72008 14.0007, 9.87294 13.6491, 9.96683 13.2885 Z" stroke="none" fill="#000000" />
			<rect />
		</svg>
	</g>
	<g transform="matrix(1 0 -0 1 91.0476 156.786)">
		<svg width="53.9427032" height="54.0428391">
			<defs />
			<path d="M 9.44155 16.5953 C 9.38544 16.7602, 9.26235 16.8426, 9.07342 16.8426 L 0.271085 16.8426 C 0.176621 16.8426, 0.107348 16.8151, 0.0632644 16.7602, 0.0197537 16.7178, -0.00200171 16.672, -0.00257422 16.6228, -0.00200171 16.5867, 0.00429589 16.55, 0.0163186 16.5128 L 0.0541042 16.3754 C 0.0729971 16.2964, 0.11708 16.2283, 0.186354 16.1699, 0.255628 16.1121, 0.334062 16.0829, 0.421656 16.0823, 0.717643 16.0829, 0.994738 16.0783, 1.25237 16.0691, 1.51 16.06, 1.70522 16.0279, 1.8369 15.9724, 1.95026 15.9117, 2.03842 15.7468, 2.1014 15.4777 L 4.77158 5.15423 C 4.79677 5.03859, 4.80937 4.94699, 4.80937 4.87943, 4.80937 4.7884, 4.79048 4.73058, 4.75269 4.70539, 4.67082 4.6573, 4.50079 4.62695, 4.24316 4.61436, 3.98553 4.60234, 3.70843 4.59604, 3.41245 4.59547, 3.31855 4.59604, 3.24928 4.56569, 3.2052 4.50386, 3.16741 4.4678, 3.14852 4.422, 3.14852 4.36646, 3.14852 4.33039, 3.15825 4.29662, 3.17657 4.2657 L 3.2052 4.11914 C 3.27447 3.93651, 3.39699 3.84491, 3.57332 3.84433, 4.30957 3.88155, 5.04811 3.89987, 5.79008 3.89929, 5.91603 3.89987, 6.04542 3.89357, 6.1771 3.88097, 7.0393 3.88155, 7.91638 3.86952, 8.80949 3.84433, 8.89766 3.84491, 8.97323 3.87525, 9.03621 3.93593, 9.0614 3.98517, 9.07342 4.03097, 9.07342 4.07334, 9.07342 4.11055, 9.06426 4.14433, 9.04537 4.1741 L 9.01732 4.3115 C 8.99842 4.39165, 8.95606 4.45864, 8.88965 4.5136, 8.82381 4.56856, 8.74366 4.59604, 8.64919 4.59547, 8.3034 4.59604, 7.95588 4.60234, 7.60665 4.61436, 7.25742 4.62695, 7.00151 4.66016, 6.83777 4.71455, 6.6809 4.77638, 6.57041 4.93496, 6.50743 5.19088 L 3.85614 15.5235 C 3.79317 15.7377, 3.76168 15.8968, 3.76168 15.9999 L 3.76168 16.0365 C 3.78687 16.0617, 3.9632 16.0766, 4.2901 16.0823 L 5.95095 16.0823 C 6.39751 16.0829, 6.84292 16.0188, 7.28605 15.8905, 7.72917 15.7623, 8.13336 15.5424, 8.49805 15.2304, 8.93888 14.8829, 9.29269 14.4237, 9.56006 13.8524, 9.82742 13.2816, 10.077 12.6936, 10.3095 12.0885, 10.3599 11.9242, 10.4703 11.8417, 10.6398 11.8411 L 10.819 11.8411 C 10.9827 11.8417, 11.0646 11.9213, 11.0646 12.0793 L 11.0646 12.1526 Z" stroke="none" fill="#0050FF" />
			<path d="M 2.72131 0.929807 C 2.72131 1.26516, 2.65815 1.58512, 2.53119 1.88938, 2.40455 2.19395, 2.22148 2.46743, 1.98167 2.70981, 1.73865 2.94609, 1.46485 3.1266, 1.16028 3.25099, 0.855704 3.37603, 0.532213 3.43822, 0.190447 3.43822, -0.105151 3.43822, -0.380872 3.38276, -0.636394 3.27151, -0.891596 3.16058, -1.11345 3.00861, -1.30197 2.81529, -1.49049 2.62228, -1.63829 2.39818, -1.74569 2.1433, -1.85309 1.88874, -1.90695 1.61751, -1.90695 1.32992, -1.90695 1.13179, -1.84091 0.982387, -1.70882 0.881396, -1.57673 0.780726, -1.44015 0.73007, -1.29941 0.729749, -1.15129 0.73007, -1.01214 0.779764, -0.881978 0.878831, -0.751491 0.978219, -0.686408 1.12858, -0.686408 1.32992, -0.686408 1.45336, -0.71366 1.55691, -0.768163 1.64059, -0.822666 1.72459, -0.889672 1.78935, -0.969182 1.83552, -1.04837 1.88168, -1.13718 1.9083, -1.23593 1.91471 L -1.29941 1.91471, -1.40521 1.91471 C -1.32409 2.20229, -1.13558 2.4607, -0.839658 2.68961, -0.543739 2.91884, -0.200371 3.0333, 0.190447 3.03298, 0.394994 3.0333, 0.59409 2.9804, 0.787735 2.87428, 0.981381 2.76848, 1.14008 2.62805, 1.26319 2.45332, 1.40747 2.24493, 1.50012 2.00832, 1.54052 1.74318, 1.58091 1.47836, 1.60111 1.20713, 1.60111 0.929807, 1.60111 0.649598, 1.59246 0.38061, 1.57482 0.122202, 1.55751 -0.135885, 1.48505 -0.379545, 1.35809 -0.609099, 1.26672 -0.776455, 1.1497 -0.915598, 1.00703 -1.02685, 0.86436 -1.13778, 0.705019 -1.19356, 0.528686 -1.19388, 0.193974 -1.19356, -0.0964944 -1.12592, -0.34304 -0.99094, -0.589586 -0.855645, -0.788682 -0.661678, -0.940007 -0.409041, -0.971747 -0.350691, -1.02272 -0.321516, -1.09326 -0.321836 L -1.13558 -0.321836 C -1.25869 -0.321516, -1.32057 -0.377943, -1.32057 -0.491116 L -1.32057 -4.09216 C -1.32057 -4.18064, -1.26927 -4.23707, -1.16732 -4.26144, -1.14968 -4.26112, -1.13654 -4.25919, -1.12756 -4.25599, -1.11858 -4.25246, -1.11089 -4.25086, -1.10384 -4.25118, -0.593112 -4.01842, -0.066678 -3.90204, 0.475786 -3.90236, 1.0253 -3.90204, 1.55206 -4.01842, 2.05573 -4.25118, 2.06278 -4.25086, 2.06984 -4.25246, 2.07689 -4.25599, 2.08394 -4.25919, 2.09452 -4.26112, 2.10863 -4.26144, 2.22469 -4.26112, 2.28112 -4.20822, 2.27759 -4.10242, 2.27759 -4.04054, 2.26701 -3.9995, 2.24585 -3.9793, 1.99578 -3.6369, 1.67806 -3.36919, 1.29237 -3.17619, 0.90668 -2.98286, 0.497267 -2.88636, 0.0638082 -2.88668, -0.29527 -2.88636, -0.605295 -2.9274, -0.866268 -3.00979 L -0.866268 -1.05025 C -0.742835 -1.17978, -0.556884 -1.29519, -0.308735 -1.39619, -0.060266 -1.49686, 0.218981 -1.54751, 0.528686 -1.54783, 0.831658 -1.54751, 1.11796 -1.4789, 1.38727 -1.34232, 1.6569 -1.20543, 1.89382 -1.02781, 2.09805 -0.809157, 2.30933 -0.562611, 2.4661 -0.289776, 2.56806 0.00934887, 2.67033 0.308794, 2.72131 0.615614, 2.72131 0.929807 Z" stroke="none" fill="#0050FF" transform="matrix(1.12 0 0 1 13.9528 16.3063)" />
			<rect />
		</svg>
	</g>
	<path d="M 0 -33.4828 L 34.9231 33.4828, -34.9231 33.4828 Z" stroke="none" fill="#FFFFFF" transform="matrix(0.142857 0 -0 0.142857 117.271 34.9858)" />
	<path d="M 0 -33.4828 L 34.9231 33.4828, -34.9231 33.4828 Z" fill="none" stroke="#000000" stroke-width="8.40000057" stroke-linecap="round" stroke-linejoin="round" transform="matrix(0.142857 0 -0 0.142857 117.271 34.9858)" />
	<path d="M 0 -33.4832 L 34.9231 33.4832, -34.9231 33.4832 Z" stroke="none" fill="#FFFFFF" transform="matrix(0.142857 0 -0 0.142857 35.7324 134.217)" />
	<path d="M 0 -33.4832 L 34.9231 33.4832, -34.9231 33.4832 Z" fill="none" stroke="#000000" stroke-width="8.40000057" stroke-linecap="round" stroke-linejoin="round" transform="matrix(0.142857 0 -0 0.142857 35.7324 134.217)" />
	<ellipse cx="1116.2170429229736" cy="1062.8867206573486" rx="28.000001907348633" ry="28.000001907348633" stroke="none" fill="#000000" transform="matrix(0.142857 0 0 0.142857 11.6903 18.1332)" />
	<ellipse cx="1116.2170829772949" cy="1062.8867607116699" rx="18.666667938232422" ry="18.666667938232422" stroke="none" fill="#FFFFFF" transform="matrix(0.142857 0 0 0.142857 11.6903 18.1332)" />
	<ellipse cx="1776.3292255401611" cy="271.48416328430176" rx="28.000001907348633" ry="28.000001907348633" stroke="none" fill="#000000" transform="matrix(0.142857 0 0 0.142857 11.6903 18.1332)" />
	<ellipse cx="1776.3292655944824" cy="271.48415756225586" rx="18.666667938232422" ry="18.666667938232422" stroke="none" fill="#FFFFFF" transform="matrix(0.142857 0 0 0.142857 11.6903 18.1332)" />
	<g transform="matrix(1 0 -0 1 183.602 165.407)">
		<svg width="234.043167" height="62.9142723">
			<defs />
			<path d="M 11.6652 9.39621 C 11.6274 9.56797, 11.5175 9.65613, 11.3348 9.66186 L 11.127 9.66186 C 10.9827 9.66243, 10.9037 9.58915, 10.8911 9.44202 L 10.8911 9.36873 C 10.9541 8.98458, 10.989 8.61531, 10.9953 8.26035, 10.9953 8.0594, 10.989 7.85502, 10.9764 7.64662, 10.9135 7.10961, 10.7721 6.635, 10.5522 6.22279, 10.3324 5.81059, 10.0364 5.48082, 9.6654 5.2335, 9.29441 4.98617, 8.84156 4.86251, 8.30684 4.86194, 7.65303 4.86251, 6.99579 5.02167, 6.33511 5.33884, 5.67501 5.65658, 5.07788 6.08081, 4.54316 6.61153, 3.92084 7.24129, 3.43363 7.93746, 3.08097 8.70061, 2.72887 9.46434, 2.45235 10.2424, 2.25083 11.0359, 2.03098 11.8425, 1.90503 12.624, 1.87354 13.3809 L 1.87354 13.6374 C 1.87354 14.3038, 2.00579 14.9112, 2.26972 15.4602, 2.52162 15.9801, 2.88918 16.3986, 3.37352 16.7158, 3.85786 17.0335, 4.43323 17.1921, 5.09964 17.1915, 5.64066 17.1921, 6.17195 17.0764, 6.69408 16.844, 7.2162 16.6121, 7.69539 16.299, 8.13222 15.9051, 8.56962 15.5112, 8.95148 15.0549, 9.27838 14.5356, 9.60586 14.0169, 9.84173 13.4668, 9.98601 12.8862, 10.0238 12.7156, 10.1337 12.6303, 10.3158 12.6298 L 10.5236 12.6298 C 10.681 12.6303, 10.7658 12.6973, 10.7784 12.8313, 10.7784 12.8685, 10.7692 12.9023, 10.7497 12.932, 10.5803 13.6042, 10.3003 14.2425, 9.91043 14.8471, 9.52056 15.4517, 9.05682 15.9818, 8.51924 16.4364, 7.98165 16.8915, 7.39196 17.2545, 6.75075 17.5259, 6.10954 17.7978, 5.44887 17.9335, 4.7693 17.9335, 3.90137 17.9335, 3.12963 17.752, 2.4535 17.389, 1.77793 17.0261, 1.2289 16.5234, 0.80753 15.8816, 0.367843 15.1923, 0.109641 14.4286, 0.0340694 13.5916, 0.00887895 13.366, -0.00371623 13.1313, -0.00371623 12.8862, -0.00371623 12.2702, 0.0752901 11.641, 0.232158 10.9992, 0.471467 10.1021, 0.850468 9.23648, 1.36916 8.40291, 1.88786 7.56934, 2.53708 6.81076, 3.31684 6.12604, 4.05309 5.50372, 4.85002 5.00907, 5.70821 4.64267, 6.56698 4.27626, 7.42689 4.09306, 8.28794 4.09248, 8.97381 4.09306, 9.56006 4.2442, 10.0473 4.54648, 10.535 4.84877, 10.8946 5.21346, 11.127 5.64055 L 12.4009 4.22073 C 12.4512 4.13599, 12.5365 4.09306, 12.6556 4.09248 L 12.7306 4.09248 C 12.8818 4.09306, 12.9573 4.16634, 12.9573 4.31233 L 12.9573 4.38561 Z" stroke="none" fill="#000000" />
			<path d="M 38.1188 4.99934 C 38.0495 5.18312, 37.927 5.27472, 37.7507 5.27414, 37.2474 5.27472, 36.7694 5.38464, 36.3165 5.60391, 35.8637 5.8123, 35.4515 6.12947, 35.0805 6.55657 L 31.7313 10.2664, 33.9108 16.0282 C 33.9738 16.1873, 34.0351 16.319, 34.0946 16.4226, 34.1541 16.5268, 34.2343 16.603, 34.3351 16.6511, 34.4484 16.7066, 34.6076 16.7387, 34.812 16.7478, 35.0163 16.757, 35.2413 16.7616, 35.4864 16.761, 35.6564 16.7616, 35.7474 16.8348, 35.76 16.9808, 35.76 17.018, 35.7537 17.0575, 35.7411 17.0999 L 35.7034 17.2465 C 35.6341 17.4297, 35.5116 17.5213, 35.3352 17.5213, 34.7066 17.4846, 34.0803 17.4663, 33.4574 17.4663 L 33.1557 17.4663 C 32.42 17.4789, 31.6843 17.4972, 30.9481 17.5213, 30.7718 17.5213, 30.6836 17.4423, 30.6836 17.2831 L 30.6836 17.2007, 30.7403 17.0449 C 30.7781 16.8503, 30.8914 16.7553, 31.0803 16.761, 31.2315 16.7616, 31.3792 16.7432, 31.5235 16.7066, 31.6683 16.67, 31.8069 16.6121, 31.9385 16.532, 32.0708 16.4409, 32.1338 16.3705, 32.1275 16.3213 L 32.1275 16.303, 30.391 11.7504, 26.7304 15.8266 C 26.5987 15.9738, 26.5358 16.114, 26.5421 16.248, 26.5421 16.3098, 26.5581 16.374, 26.589 16.4404, 26.6898 16.6545, 26.9004 16.7616, 27.2211 16.761, 27.3974 16.7616, 27.4856 16.8469, 27.4856 17.0175 L 27.4856 17.0816, 27.4478 17.2465 C 27.3785 17.4297, 27.2588 17.5213, 27.0888 17.5213, 26.4602 17.4972, 25.8281 17.4789, 25.1926 17.4663 L 24.919 17.4663 C 24.3785 17.4663, 23.8249 17.4846, 23.2587 17.5213, 23.1648 17.5213, 23.0955 17.4909, 23.0509 17.4297, 23.0137 17.3936, 22.9948 17.3507, 22.9942 17.3014, 22.9948 17.2654, 23.0011 17.2287, 23.0131 17.1915 L 23.0509 17.0541 C 23.1018 16.8532, 23.2215 16.7553, 23.4093 16.761, 23.6486 16.7616, 23.8879 16.7358, 24.1266 16.6837, 24.3659 16.6322, 24.6047 16.5509, 24.844 16.4409, 25.0833 16.331, 25.3066 16.1953, 25.5138 16.0333, 25.7211 15.8719, 25.91 15.6898, 26.0795 15.4877 L 30.1271 11.0176, 28.2212 6.00696 C 28.1583 5.85467, 28.1004 5.727, 28.0466 5.6228, 27.9934 5.51918, 27.9132 5.44246, 27.8062 5.39323, 27.6928 5.33884, 27.5342 5.30563, 27.3298 5.29304, 27.1254 5.28101, 26.9004 5.27472, 26.6548 5.27414, 26.5609 5.27472, 26.4917 5.24437, 26.4476 5.18254, 26.4098 5.14647, 26.3909 5.10067, 26.3909 5.04514, 26.3909 5.00907, 26.4006 4.97529, 26.419 4.94438 L 26.4476 4.79782 C 26.5169 4.61519, 26.6394 4.52358, 26.8157 4.52301, 27.4449 4.56022, 28.0678 4.57854, 28.6838 4.57797, 28.7783 4.57854, 28.8853 4.57225, 29.0044 4.55965, 29.7344 4.56022, 30.4672 4.5482, 31.2029 4.52301, 31.3792 4.52358, 31.4668 4.60603, 31.4668 4.77034 L 31.4668 4.84362, 31.4101 4.99934 C 31.3723 5.18312, 31.2561 5.27472, 31.0614 5.27414, 30.7345 5.27472, 30.4512 5.3543, 30.2118 5.51231, 30.0802 5.59246, 30.0172 5.65658, 30.0235 5.70467 L 30.0235 5.72299, 31.4668 9.52446, 34.4387 6.19932 C 34.5268 6.11459, 34.5807 6.01383, 34.5996 5.89703, 34.6122 5.86097, 34.6185 5.82719, 34.6185 5.79627, 34.6185 5.72986, 34.603 5.67147, 34.5709 5.62223, 34.4644 5.39094, 34.2475 5.27472, 33.92 5.27414, 33.7568 5.27472, 33.675 5.19228, 33.675 5.02682 L 33.675 4.9627, 33.7122 4.79782 C 33.782 4.61519, 33.9045 4.52358, 34.0803 4.52301, 34.7095 4.5482, 35.345 4.56022, 35.9862 4.55965, 36.0743 4.57225, 36.1596 4.57854, 36.2409 4.57797, 36.782 4.57854, 37.3293 4.56022, 37.8829 4.52301, 38.0529 4.52358, 38.144 4.60603, 38.1566 4.77034 L 38.1566 4.83446 Z" stroke="none" fill="#F00000" />
			<path d="M 2.37714 3.19713 C 1.7292 3.17661, 1.09857 3.16635, 0.485571 3.16635, -0.127106 3.16635, -0.757737 3.17661, -1.406 3.19713 L -1.406 2.75598, -1.04115 2.75598 C -0.925093 2.7563, -0.815766 2.75469, -0.713814 2.75117, -0.611541 2.74796, -0.514718 2.7393, -0.423025 2.72552, -0.331331 2.71205, -0.252142 2.69827, -0.185456 2.68416, -0.12903 2.67422, -0.082221 2.6428, -0.0453515 2.58958, -0.00816131 2.53668, 0.0101132 2.47769, 0.0101132 2.41229 L 0.0101132 -3.36887 C -0.165899 -3.28295, -0.382628 -3.21787, -0.639754 -3.17362, -0.89688 -3.12906, -1.17869 -3.10694, -1.48519 -3.10726 L -1.48519 -3.54328 C -1.06231 -3.54296, -0.672135 -3.59329, -0.31466 -3.69429, 0.042815 -3.79496, 0.351879 -3.98411, 0.612531 -4.26144 L 0.77636 -4.26144 C 0.89242 -4.26112, 0.950449 -4.20469, 0.950449 -4.09216 L 0.950449 2.41229 C 0.950449 2.4809, 0.968082 2.54085, 1.00335 2.59215, 1.03862 2.64344, 1.08991 2.67422, 1.1566 2.68416, 1.21302 2.69827, 1.28548 2.71205, 1.37333 2.72552, 1.46149 2.7393, 1.56088 2.74796, 1.67181 2.75117, 1.78274 2.75469, 1.89111 2.7563, 1.99658 2.75598 L 2.37714 2.75598, 2.37714 3.19713 Z" stroke="none" fill="#F00000" transform="matrix(1.12 0 0 1 40.623 16.985)" />
			<path d="M 48.689 17.3747 C 48.689 18.0892, 48.5431 18.7642, 48.2505 19.3991, 47.9579 20.0346, 47.5475 20.5962, 47.019 21.0846, 46.9629 21.1212, 46.9 21.1395, 46.8301 21.1395, 46.7803 21.1395, 46.7145 21.1212, 46.632 21.0846 L 46.5851 21.0113 C 46.5347 20.9626, 46.5095 20.9077, 46.5095 20.8464, 46.5095 20.7914, 46.5347 20.7273, 46.5851 20.654, 47.0631 20.2144, 47.4295 19.714, 47.6843 19.1518, 47.9391 18.5901, 48.0662 17.9976, 48.0662 17.3747, 48.0662 17.3323, 48.0633 17.2854, 48.057 17.2333, 48.0507 17.1818, 48.0473 17.2133, 48.0473 17.3289, 47.9471 17.4451, 47.7146 17.503, 47.3494 17.503, 46.9847 17.503, 46.7082 17.3907, 46.5192 17.1646, 46.3303 16.939, 46.2358 16.6883, 46.2358 16.4129, 46.2358 16.1387, 46.3303 15.8902, 46.5192 15.6669, 46.7082 15.4442, 46.9847 15.3326, 47.3494 15.332, 47.6196 15.3326, 47.84 15.4013, 48.0095 15.5387, 48.1795 15.6761, 48.3146 15.8427, 48.4154 16.0379, 48.5161 16.2337, 48.5871 16.4501, 48.6278 16.6883, 48.669 16.9264, 48.689 17.1554, 48.689 17.3747 Z" stroke="none" fill="#F00000" />
			<path d="M 65.6221 4.99018 C 65.6032 5.07606, 65.5574 5.14533, 65.4853 5.19686, 65.4131 5.24895, 65.3359 5.27472, 65.254 5.27414, 64.8395 5.27472, 64.437 5.37548, 64.0466 5.57643, 63.6321 5.80887, 63.2485 6.13291, 62.8958 6.54741 L 58.0192 12.3549, 57.019 16.2022 C 56.9812 16.3127, 56.9623 16.4106, 56.9623 16.4953, 56.9623 16.5812, 56.9784 16.6333, 57.0098 16.6511, 57.098 16.7066, 57.2738 16.7387, 57.5377 16.7478, 57.8022 16.757, 58.0822 16.7616, 58.3776 16.761, 58.5413 16.7616, 58.6226 16.8411, 58.6226 16.9991 L 58.6226 17.0816, 58.5848 17.2465 C 58.5161 17.4297, 58.3965 17.5213, 58.2264 17.5213, 57.453 17.4846, 56.6669 17.4663, 55.8683 17.4663, 55.0822 17.4663, 54.2899 17.4846, 53.4912 17.5213, 53.3343 17.5213, 53.249 17.4423, 53.2364 17.2831 L 53.2364 17.2007, 53.2834 17.0449 C 53.3338 16.8503, 53.4534 16.7553, 53.6418 16.761, 53.9378 16.7616, 54.2149 16.757, 54.4725 16.7478, 54.7301 16.7387, 54.9253 16.7066, 55.057 16.6511, 55.1704 16.5904, 55.262 16.4255, 55.3307 16.1564 L 56.3303 12.3091, 54.2647 5.9978 C 54.2212 5.83978, 54.1725 5.71154, 54.1187 5.61364, 54.0649 5.51632, 53.9864 5.44132, 53.8828 5.38922, 53.7792 5.33769, 53.6269 5.30563, 53.4254 5.29304, 53.2238 5.28101, 53.0006 5.27472, 52.7555 5.27414, 52.5918 5.27472, 52.5099 5.19228, 52.5099 5.02682 L 52.5099 4.9627, 52.5477 4.79782 C 52.617 4.61519, 52.7366 4.52358, 52.9061 4.52301, 53.5353 4.56022, 54.1673 4.57854, 54.8022 4.57797, 54.8967 4.57854, 54.9975 4.57225, 55.104 4.55965, 55.8465 4.56022, 56.5885 4.5482, 57.3305 4.52301, 57.5005 4.52358, 57.5915 4.60603, 57.6041 4.77034 L 57.6041 4.84362, 57.5474 4.99934 C 57.5097 5.18312, 57.3934 5.27472, 57.1982 5.27414, 56.9721 5.27472, 56.7723 5.28388, 56.5994 5.3022, 56.4265 5.32052, 56.277 5.36632, 56.1511 5.43903, 56.1133 5.46994, 56.0944 5.52204, 56.0944 5.59475, 56.0944 5.63826, 56.1007 5.68692, 56.1133 5.74131 L 57.9339 11.329, 62.2449 6.2268 C 62.3519 6.09283, 62.4304 5.96459, 62.4808 5.84207, 62.4996 5.77566, 62.5088 5.71154, 62.5088 5.64971, 62.5088 5.61364, 62.5059 5.5833, 62.4996 5.55811, 62.4115 5.36918, 62.2042 5.27472, 61.8768 5.27414, 61.7199 5.27472, 61.6352 5.19228, 61.6226 5.02682 L 61.6226 4.9627, 61.6603 4.79782 C 61.7296 4.61519, 61.8521 4.52358, 62.0279 4.52301, 62.5815 4.5482, 63.1443 4.56022, 63.7162 4.55965, 63.7918 4.57225, 63.8674 4.57854, 63.9429 4.57797, 64.421 4.57854, 64.9082 4.56022, 65.4051 4.52301, 65.4933 4.52358, 65.5717 4.55393, 65.641 4.61461, 65.6662 4.66385, 65.6788 4.70965, 65.6788 4.75202, 65.6788 4.78923, 65.6696 4.82301, 65.6502 4.85278 Z" stroke="none" fill="#F00000" />
			<path d="M 2.37714 3.19713 C 1.7292 3.17661, 1.09857 3.16635, 0.485571 3.16635, -0.127106 3.16635, -0.757737 3.17661, -1.406 3.19713 L -1.406 2.75598, -1.04115 2.75598 C -0.925093 2.7563, -0.815766 2.75469, -0.713814 2.75117, -0.611541 2.74796, -0.514718 2.7393, -0.423025 2.72552, -0.331331 2.71205, -0.252142 2.69827, -0.185456 2.68416, -0.12903 2.67422, -0.082221 2.6428, -0.0453515 2.58958, -0.00816131 2.53668, 0.0101132 2.47769, 0.0101132 2.41229 L 0.0101132 -3.36887 C -0.165899 -3.28295, -0.382628 -3.21787, -0.639754 -3.17362, -0.89688 -3.12906, -1.17869 -3.10694, -1.48519 -3.10726 L -1.48519 -3.54328 C -1.06231 -3.54296, -0.672135 -3.59329, -0.31466 -3.69429, 0.042815 -3.79496, 0.351879 -3.98411, 0.612531 -4.26144 L 0.77636 -4.26144 C 0.89242 -4.26112, 0.950449 -4.20469, 0.950449 -4.09216 L 0.950449 2.41229 C 0.950449 2.4809, 0.968082 2.54085, 1.00335 2.59215, 1.03862 2.64344, 1.08991 2.67422, 1.1566 2.68416, 1.21302 2.69827, 1.28548 2.71205, 1.37333 2.72552, 1.46149 2.7393, 1.56088 2.74796, 1.67181 2.75117, 1.78274 2.75469, 1.89111 2.7563, 1.99658 2.75598 L 2.37714 2.75598, 2.37714 3.19713 Z" stroke="none" fill="#F00000" transform="matrix(1.12 0 0 1 66.3203 16.985)" />
			<path d="M 1.55535 9.07213 C -4.56041 4.98967, -4.56041 -4.98967, 1.55535 -9.07213 L 2.51587 -9.07213 C -2.99957 -4.98967, -2.99957 4.98967, 2.51587 9.07213" stroke="none" fill="#000000" transform="matrix(1 0 -0 1 19.527 11.8861)" />
			<path d="M 1.55535 9.07213 C -4.56041 4.98967, -4.56041 -4.98967, 1.55535 -9.07213 L 2.51587 -9.07213 C -2.99957 -4.98967, -2.99957 4.98967, 2.51587 9.07213" stroke="none" fill="#000000" transform="matrix(-1 1.50996e-007 -1.50996e-007 -1 72.2165 11.8861)" />
			<rect />
		</svg>
	</g>
	<g transform="matrix(1 0 -0 1 276.856 45.0305)">
		<svg width="243.048203" height="62.9142723">
			<defs />
			<path d="M 13.6778 11.1641 C 13.4643 11.9891, 13.1265 12.786, 12.6639 13.5555, 12.2013 14.325, 11.6214 15.024, 10.9235 15.6526, 10.288 16.2211, 9.59012 16.6745, 8.82925 17.0135, 8.06838 17.3524, 7.30752 17.5213, 6.54608 17.5213 L 0.273665 17.5213 C 0.104202 17.5213, 0.0131732 17.4423, 5.44265e-006 17.2831 L 5.44265e-006 17.2098, 0.0377911 17.0541 C 0.0881719 16.8532, 0.210689 16.7553, 0.405342 16.761, 0.70133 16.7616, 0.981287 16.757, 1.24521 16.7478, 1.50971 16.7387, 1.70437 16.7066, 1.82975 16.6511, 1.9494 16.5846, 2.04043 16.4198, 2.10341 16.1564 L 4.75413 5.83291 C 4.79191 5.69895, 4.8108 5.59532, 4.8108 5.52147, 4.8108 5.44876, 4.79535 5.40582, 4.76329 5.39323, 4.67569 5.33884, 4.50451 5.30563, 4.24974 5.29304, 3.99498 5.28101, 3.71674 5.27472, 3.41445 5.27414, 3.23869 5.27472, 3.15053 5.19228, 3.15053 5.02682 L 3.15053 4.95354, 3.20721 4.79782 C 3.24499 4.61519, 3.36121 4.52358, 3.55586 4.52301 L 9.84774 4.52301 C 10.6275 4.52358, 11.3071 4.70392, 11.8853 5.06403, 12.4641 5.42471, 12.9296 5.89761, 13.2817 6.48328, 13.6589 7.14339, 13.8725 7.8762, 13.9229 8.68172, 13.9355 8.85348, 13.9418 9.01206, 13.9418 9.15805, 13.9418 9.81186, 13.8542 10.4805, 13.6778 11.1641 Z M 11.8573 6.90465 C 11.6437 6.39855, 11.3088 6.00009, 10.8525 5.70982, 10.3968 5.42013, 9.86378 5.27472, 9.25348 5.27414 L 7.22565 5.27414 C 6.90505 5.27472, 6.71325 5.29933, 6.65028 5.348, 6.5873 5.39723, 6.52146 5.5707, 6.45219 5.86955 L 3.78258 16.1931 C 3.7322 16.4014, 3.70701 16.5509, 3.70701 16.6419 L 3.70701 16.7152 C 3.7322 16.7404, 3.8988 16.7553, 4.20681 16.761 L 6.23521 16.761 C 6.85123 16.7616, 7.4661 16.623, 8.07926 16.3448, 8.69242 16.0671, 9.24088 15.6807, 9.72523 15.1854, 10.2788 14.6118, 10.7036 13.9723, 10.9991 13.267, 11.2945 12.5616, 11.5304 11.8488, 11.7061 11.1275, 11.9013 10.3769, 12.0364 9.63495, 12.112 8.90157, 12.1246 8.73096, 12.1309 8.56608, 12.1309 8.40692, 12.1309 7.8699, 12.0399 7.36953, 11.8573 6.90465 Z" stroke="none" fill="#000000" />
			<path d="M 39.0995 4.99934 C 39.0302 5.18312, 38.9077 5.27472, 38.7314 5.27414, 38.2281 5.27472, 37.7501 5.38464, 37.2972 5.60391, 36.8444 5.8123, 36.4322 6.12947, 36.0612 6.55657 L 32.712 10.2664, 34.8915 16.0282 C 34.9545 16.1873, 35.0158 16.319, 35.0753 16.4226, 35.1349 16.5268, 35.215 16.603, 35.3158 16.6511, 35.4291 16.7066, 35.5883 16.7387, 35.7927 16.7478, 35.9971 16.757, 36.222 16.7616, 36.4671 16.761, 36.6371 16.7616, 36.7281 16.8348, 36.7407 16.9808, 36.7407 17.018, 36.7344 17.0575, 36.7219 17.0999 L 36.6841 17.2465 C 36.6148 17.4297, 36.4923 17.5213, 36.3159 17.5213, 35.6873 17.4846, 35.061 17.4663, 34.4381 17.4663 L 34.1364 17.4663 C 33.4007 17.4789, 32.665 17.4972, 31.9288 17.5213, 31.7525 17.5213, 31.6643 17.4423, 31.6643 17.2831 L 31.6643 17.2007, 31.721 17.0449 C 31.7588 16.8503, 31.8721 16.7553, 32.061 16.761, 32.2122 16.7616, 32.3599 16.7432, 32.5042 16.7066, 32.649 16.67, 32.7876 16.6121, 32.9192 16.532, 33.0515 16.4409, 33.1145 16.3705, 33.1082 16.3213 L 33.1082 16.303, 31.3717 11.7504, 27.7111 15.8266 C 27.5794 15.9738, 27.5165 16.114, 27.5228 16.248, 27.5228 16.3098, 27.5388 16.374, 27.5697 16.4404, 27.6705 16.6545, 27.8812 16.7616, 28.2018 16.761, 28.3781 16.7616, 28.4663 16.8469, 28.4663 17.0175 L 28.4663 17.0816, 28.4285 17.2465 C 28.3592 17.4297, 28.2395 17.5213, 28.0695 17.5213, 27.4409 17.4972, 26.8088 17.4789, 26.1734 17.4663 L 25.8997 17.4663 C 25.3592 17.4663, 24.8056 17.4846, 24.2394 17.5213, 24.1455 17.5213, 24.0763 17.4909, 24.0316 17.4297, 23.9944 17.3936, 23.9755 17.3507, 23.9749 17.3014, 23.9755 17.2654, 23.9818 17.2287, 23.9938 17.1915 L 24.0316 17.0541 C 24.0826 16.8532, 24.2022 16.7553, 24.39 16.761, 24.6293 16.7616, 24.8686 16.7358, 25.1073 16.6837, 25.3467 16.6322, 25.5854 16.5509, 25.8247 16.4409, 26.064 16.331, 26.2873 16.1953, 26.4945 16.0333, 26.7018 15.8719, 26.8907 15.6898, 27.0602 15.4877 L 31.1078 11.0176, 29.2019 6.00696 C 29.139 5.85467, 29.0811 5.727, 29.0273 5.6228, 28.9741 5.51918, 28.8939 5.44246, 28.7869 5.39323, 28.6735 5.33884, 28.5149 5.30563, 28.3105 5.29304, 28.1062 5.28101, 27.8812 5.27472, 27.6355 5.27414, 27.5417 5.27472, 27.4724 5.24437, 27.4283 5.18254, 27.3905 5.14647, 27.3716 5.10067, 27.3716 5.04514, 27.3716 5.00907, 27.3814 4.97529, 27.3997 4.94438 L 27.4283 4.79782 C 27.4976 4.61519, 27.6201 4.52358, 27.7964 4.52301, 28.4256 4.56022, 29.0485 4.57854, 29.6645 4.57797, 29.759 4.57854, 29.866 4.57225, 29.9851 4.55965, 30.7151 4.56022, 31.4479 4.5482, 32.1836 4.52301, 32.3599 4.52358, 32.4475 4.60603, 32.4475 4.77034 L 32.4475 4.84362, 32.3908 4.99934 C 32.353 5.18312, 32.2368 5.27472, 32.0422 5.27414, 31.7153 5.27472, 31.4319 5.3543, 31.1926 5.51231, 31.0609 5.59246, 30.9979 5.65658, 31.0042 5.70467 L 31.0042 5.72299, 32.4475 9.52446, 35.4194 6.19932 C 35.5076 6.11459, 35.5614 6.01383, 35.5803 5.89703, 35.5929 5.86097, 35.5992 5.82719, 35.5992 5.79627, 35.5992 5.72986, 35.5837 5.67147, 35.5516 5.62223, 35.4452 5.39094, 35.2282 5.27472, 34.9007 5.27414, 34.7375 5.27472, 34.6557 5.19228, 34.6557 5.02682 L 34.6557 4.9627, 34.6929 4.79782 C 34.7627 4.61519, 34.8852 4.52358, 35.061 4.52301, 35.6902 4.5482, 36.3257 4.56022, 36.9669 4.55965, 37.055 4.57225, 37.1404 4.57854, 37.2217 4.57797, 37.7627 4.57854, 38.31 4.56022, 38.8636 4.52301, 39.0336 4.52358, 39.1247 4.60603, 39.1373 4.77034 L 39.1373 4.83446 Z" stroke="none" fill="#F00000" />
			<path d="M 2.39138 3.19713 L -1.90858 3.19713, -1.90858 2.915 C -1.90858 2.8948, -1.898 2.86402, -1.87684 2.82266 L -0.149418 0.945196 C 0.0551279 0.71981, 0.261918 0.488975, 0.471594 0.253009, 0.68127 0.0170434, 0.868504 -0.224052, 1.03394 -0.470277, 1.19937 -0.716502, 1.33146 -0.970422, 1.4302 -1.23204, 1.52895 -1.49365, 1.578 -1.76809, 1.578 -2.05567, 1.578 -2.29805, 1.54658 -2.52472, 1.4831 -2.73503, 1.41962 -2.94535, 1.32825 -3.13002, 1.20835 -3.28904, 1.08844 -3.44806, 0.938716 -3.5763, 0.759177 -3.67377, 0.579638 -3.77123, 0.371886 -3.81996, 0.13592 -3.82028, -0.216105 -3.81996, -0.527092 -3.7148, -0.7964 -3.50449, -1.06571 -3.29417, -1.24461 -3.06237, -1.33277 -2.80974, -1.35009 -2.80268, -1.32187 -2.79915, -1.24813 -2.79948 L -1.15836 -2.79948 C -1.05256 -2.77511, -0.961191 -2.73824, -0.883605 -2.68887, -0.806018 -2.63917, -0.740935 -2.57088, -0.688036 -2.48368, -0.635136 -2.39647, -0.608846 -2.29132, -0.608846 -2.16852, -0.608846 -1.96302, -0.675532 -1.8056, -0.809545 -1.69627, -0.943558 -1.58663, -1.09328 -1.53212, -1.25871 -1.53244, -1.41709 -1.53212, -1.56489 -1.58663, -1.70243 -1.69627, -1.83965 -1.8056, -1.90858 -1.96302, -1.90858 -2.16852, -1.90858 -2.45547, -1.85215 -2.72734, -1.7393 -2.98382, -1.62645 -3.24031, -1.47352 -3.46249, -1.27987 -3.65068, -1.08623 -3.83856, -0.857315 -3.98732, -0.593136 -4.09697, -0.328958 -4.20629, -0.0487483 -4.26112, 0.24685 -4.26144, 0.612981 -4.26112, 0.948655 -4.20725, 1.25323 -4.09953, 1.55781 -3.99181, 1.8175 -3.83695, 2.0323 -3.63529, 2.24711 -3.43331, 2.41543 -3.19991, 2.53693 -2.93509, 2.65844 -2.66995, 2.71904 -2.37692, 2.71904 -2.05567, 2.71904 -1.6998, 2.63825 -1.37214, 2.47602 -1.07302, 2.31411 -0.77357, 2.11342 -0.499131, 1.87392 -0.2497, 1.63443 5.126e-005, 1.37987 0.235055, 1.11056 0.455632, 0.841252 0.676208, 0.597272 0.890693, 0.378939 1.09909 L -0.836155 2.24301, 0.754048 2.24301 C 0.975907 2.24333, 1.18302 2.24172, 1.37474 2.2382, 1.56678 2.23499, 1.72965 2.22794, 1.86334 2.21768, 1.99736 2.20742, 2.06597 2.20069, 2.06917 2.19684, 2.09738 2.17312, 2.12399 2.12534, 2.14868 2.05353, 2.17337 1.98171, 2.19613 1.89707, 2.21729 1.79961, 2.23845 1.70215, 2.25961 1.60308, 2.28077 1.50209, 2.30193 1.40142, 2.32117 1.29081, 2.3388 1.1709 L 2.72962 1.1709 Z" stroke="none" fill="#F00000" transform="matrix(1.12 0 0 1 42.0266 16.985)" />
			<path d="M 50.5387 17.3747 C 50.5387 18.0892, 50.3927 18.7642, 50.1002 19.3991, 49.8076 20.0346, 49.3971 20.5962, 48.8687 21.0846, 48.8126 21.1212, 48.7496 21.1395, 48.6798 21.1395, 48.63 21.1395, 48.5641 21.1212, 48.4817 21.0846 L 48.4348 21.0113 C 48.3844 20.9626, 48.3592 20.9077, 48.3592 20.8464, 48.3592 20.7914, 48.3844 20.7273, 48.4348 20.654, 48.9128 20.2144, 49.2792 19.714, 49.534 19.1518, 49.7887 18.5901, 49.9158 17.9976, 49.9158 17.3747, 49.9158 17.3323, 49.913 17.2854, 49.9067 17.2333, 49.9004 17.1818, 49.8969 17.2133, 49.8969 17.3289, 49.7968 17.4451, 49.5643 17.503, 49.1991 17.503, 48.8344 17.503, 48.5578 17.3907, 48.3689 17.1646, 48.18 16.939, 48.0855 16.6883, 48.0855 16.4129, 48.0855 16.1387, 48.18 15.8902, 48.3689 15.6669, 48.5578 15.4442, 48.8344 15.3326, 49.1991 15.332, 49.4693 15.3326, 49.6897 15.4013, 49.8592 15.5387, 50.0292 15.6761, 50.1643 15.8427, 50.2651 16.0379, 50.3658 16.2337, 50.4368 16.4501, 50.4775 16.6883, 50.5187 16.9264, 50.5387 17.1554, 50.5387 17.3747 Z" stroke="none" fill="#F00000" />
			<path d="M 67.4704 4.99018 C 67.4515 5.07606, 67.4057 5.14533, 67.3335 5.19686, 67.2614 5.24895, 67.1841 5.27472, 67.1022 5.27414, 66.6872 5.27472, 66.2847 5.37548, 65.8942 5.57643, 65.4797 5.80887, 65.0962 6.13291, 64.7435 6.54741 L 59.8657 12.3549, 58.8655 16.2022 C 58.8278 16.3127, 58.8089 16.4106, 58.8089 16.4953, 58.8089 16.5812, 58.8249 16.6333, 58.8558 16.6511, 58.944 16.7066, 59.1203 16.7387, 59.3842 16.7478, 59.6487 16.757, 59.9287 16.7616, 60.2241 16.761, 60.3878 16.7616, 60.4691 16.8411, 60.4691 16.9991 L 60.4691 17.0816, 60.4319 17.2465 C 60.3627 17.4297, 60.243 17.5213, 60.073 17.5213, 59.2995 17.4846, 58.5135 17.4663, 57.7142 17.4663, 56.9282 17.4663, 56.1358 17.4846, 55.3366 17.5213, 55.1797 17.5213, 55.0944 17.4423, 55.0818 17.2831 L 55.0818 17.2007, 55.1293 17.0449 C 55.1797 16.8503, 55.2994 16.7553, 55.4877 16.761, 55.7837 16.7616, 56.0608 16.757, 56.3184 16.7478, 56.5761 16.7387, 56.7713 16.7066, 56.903 16.6511, 57.0163 16.5904, 57.1079 16.4255, 57.1766 16.1564 L 58.1768 12.3091, 56.1106 5.9978 C 56.0665 5.83978, 56.0179 5.71154, 55.9641 5.61364, 55.9108 5.51632, 55.8324 5.44132, 55.7282 5.38922, 55.6246 5.33769, 55.4723 5.30563, 55.2708 5.29304, 55.0698 5.28101, 54.8465 5.27472, 54.6009 5.27414, 54.4372 5.27472, 54.3553 5.19228, 54.3553 5.02682 L 54.3553 4.9627, 54.3931 4.79782 C 54.4629 4.61519, 54.5826 4.52358, 54.7521 4.52301, 55.3812 4.56022, 56.0133 4.57854, 56.6482 4.57797, 56.7427 4.57854, 56.8434 4.57225, 56.9499 4.55965, 57.6925 4.56022, 58.435 4.5482, 59.177 4.52301, 59.347 4.52358, 59.4381 4.60603, 59.4506 4.77034 L 59.4506 4.84362, 59.394 4.99934 C 59.3562 5.18312, 59.24 5.27472, 59.0447 5.27414, 58.8186 5.27472, 58.6188 5.28388, 58.4459 5.3022, 58.273 5.32052, 58.1236 5.36632, 57.9976 5.43903, 57.9598 5.46994, 57.9409 5.52204, 57.9409 5.59475, 57.9409 5.63826, 57.9472 5.68692, 57.9598 5.74131 L 59.7804 11.329, 64.0926 6.2268 C 64.1996 6.09283, 64.278 5.96459, 64.3284 5.84207, 64.3473 5.77566, 64.3565 5.71154, 64.3565 5.64971, 64.3565 5.61364, 64.3536 5.5833, 64.3473 5.55811, 64.2592 5.36918, 64.0519 5.27472, 63.7244 5.27414, 63.5676 5.27472, 63.4823 5.19228, 63.4697 5.02682 L 63.4697 4.9627, 63.5075 4.79782 C 63.5767 4.61519, 63.6992 4.52358, 63.8756 4.52301, 64.4292 4.5482, 64.992 4.56022, 65.5645 4.55965, 65.6401 4.57225, 65.715 4.57854, 65.7906 4.57797, 66.2692 4.57854, 66.7564 4.56022, 67.2534 4.52301, 67.3416 4.52358, 67.42 4.55393, 67.4893 4.61461, 67.5145 4.66385, 67.527 4.70965, 67.527 4.75202, 67.527 4.78923, 67.5179 4.82301, 67.4984 4.85278 Z" stroke="none" fill="#F00000" />
			<path d="M 2.39138 3.19713 L -1.90858 3.19713, -1.90858 2.915 C -1.90858 2.8948, -1.898 2.86402, -1.87684 2.82266 L -0.149418 0.945196 C 0.0551279 0.71981, 0.261918 0.488975, 0.471594 0.253009, 0.68127 0.0170434, 0.868504 -0.224052, 1.03394 -0.470277, 1.19937 -0.716502, 1.33146 -0.970422, 1.4302 -1.23204, 1.52895 -1.49365, 1.578 -1.76809, 1.578 -2.05567, 1.578 -2.29805, 1.54658 -2.52472, 1.4831 -2.73503, 1.41962 -2.94535, 1.32825 -3.13002, 1.20835 -3.28904, 1.08844 -3.44806, 0.938716 -3.5763, 0.759177 -3.67377, 0.579638 -3.77123, 0.371886 -3.81996, 0.13592 -3.82028, -0.216105 -3.81996, -0.527092 -3.7148, -0.7964 -3.50449, -1.06571 -3.29417, -1.24461 -3.06237, -1.33277 -2.80974, -1.35009 -2.80268, -1.32187 -2.79915, -1.24813 -2.79948 L -1.15836 -2.79948 C -1.05256 -2.77511, -0.961191 -2.73824, -0.883605 -2.68887, -0.806018 -2.63917, -0.740935 -2.57088, -0.688036 -2.48368, -0.635136 -2.39647, -0.608846 -2.29132, -0.608846 -2.16852, -0.608846 -1.96302, -0.675532 -1.8056, -0.809545 -1.69627, -0.943558 -1.58663, -1.09328 -1.53212, -1.25871 -1.53244, -1.41709 -1.53212, -1.56489 -1.58663, -1.70243 -1.69627, -1.83965 -1.8056, -1.90858 -1.96302, -1.90858 -2.16852, -1.90858 -2.45547, -1.85215 -2.72734, -1.7393 -2.98382, -1.62645 -3.24031, -1.47352 -3.46249, -1.27987 -3.65068, -1.08623 -3.83856, -0.857315 -3.98732, -0.593136 -4.09697, -0.328958 -4.20629, -0.0487483 -4.26112, 0.24685 -4.26144, 0.612981 -4.26112, 0.948655 -4.20725, 1.25323 -4.09953, 1.55781 -3.99181, 1.8175 -3.83695, 2.0323 -3.63529, 2.24711 -3.43331, 2.41543 -3.19991, 2.53693 -2.93509, 2.65844 -2.66995, 2.71904 -2.37692, 2.71904 -2.05567, 2.71904 -1.6998, 2.63825 -1.37214, 2.47602 -1.07302, 2.31411 -0.77357, 2.11342 -0.499131, 1.87392 -0.2497, 1.63443 5.126e-005, 1.37987 0.235055, 1.11056 0.455632, 0.841252 0.676208, 0.597272 0.890693, 0.378939 1.09909 L -0.836155 2.24301, 0.754048 2.24301 C 0.975907 2.24333, 1.18302 2.24172, 1.37474 2.2382, 1.56678 2.23499, 1.72965 2.22794, 1.86334 2.21768, 1.99736 2.20742, 2.06597 2.20069, 2.06917 2.19684, 2.09738 2.17312, 2.12399 2.12534, 2.14868 2.05353, 2.17337 1.98171, 2.19613 1.89707, 2.21729 1.79961, 2.23845 1.70215, 2.25961 1.60308, 2.28077 1.50209, 2.30193 1.40142, 2.32117 1.29081, 2.3388 1.1709 L 2.72962 1.1709 Z" stroke="none" fill="#F00000" transform="matrix(1.12 0 0 1 68.5958 16.985)" />
			<path d="M 1.55535 9.07213 C -4.56041 4.98967, -4.56041 -4.98967, 1.55535 -9.07213 L 2.51587 -9.07213 C -2.99957 -4.98967, -2.99957 4.98967, 2.51587 9.07213" stroke="none" fill="#000000" transform="matrix(1 0 -0 1 20.5078 11.8861)" />
			<path d="M 1.55535 9.07213 C -4.56041 4.98967, -4.56041 -4.98967, 1.55535 -9.07213 L 2.51587 -9.07213 C -2.99957 -4.98967, -2.99957 4.98967, 2.51587 9.07213" stroke="none" fill="#000000" transform="matrix(-1 1.50996e-007 -1.50996e-007 -1 74.938 11.8861)" />
			<rect />
		</svg>
	</g>
	<g transform="matrix(1 0 -0 1 224.53 109.49)">
		<svg width="57.0301361" height="54.0428391">
			<defs />
			<path d="M 9.44155 16.5953 C 9.38544 16.7602, 9.26235 16.8426, 9.07342 16.8426 L 0.271085 16.8426 C 0.176621 16.8426, 0.107348 16.8151, 0.0632644 16.7602, 0.0197537 16.7178, -0.00200171 16.672, -0.00257422 16.6228, -0.00200171 16.5867, 0.00429589 16.55, 0.0163186 16.5128 L 0.0541042 16.3754 C 0.0729971 16.2964, 0.11708 16.2283, 0.186354 16.1699, 0.255628 16.1121, 0.334062 16.0829, 0.421656 16.0823, 0.717643 16.0829, 0.994738 16.0783, 1.25237 16.0691, 1.51 16.06, 1.70522 16.0279, 1.8369 15.9724, 1.95026 15.9117, 2.03842 15.7468, 2.1014 15.4777 L 4.77158 5.15423 C 4.79677 5.03859, 4.80937 4.94699, 4.80937 4.87943, 4.80937 4.7884, 4.79048 4.73058, 4.75269 4.70539, 4.67082 4.6573, 4.50079 4.62695, 4.24316 4.61436, 3.98553 4.60234, 3.70843 4.59604, 3.41245 4.59547, 3.31855 4.59604, 3.24928 4.56569, 3.2052 4.50386, 3.16741 4.4678, 3.14852 4.422, 3.14852 4.36646, 3.14852 4.33039, 3.15825 4.29662, 3.17657 4.2657 L 3.2052 4.11914 C 3.27447 3.93651, 3.39699 3.84491, 3.57332 3.84433, 4.30957 3.88155, 5.04811 3.89987, 5.79008 3.89929, 5.91603 3.89987, 6.04542 3.89357, 6.1771 3.88097, 7.0393 3.88155, 7.91638 3.86952, 8.80949 3.84433, 8.89766 3.84491, 8.97323 3.87525, 9.03621 3.93593, 9.0614 3.98517, 9.07342 4.03097, 9.07342 4.07334, 9.07342 4.11055, 9.06426 4.14433, 9.04537 4.1741 L 9.01732 4.3115 C 8.99842 4.39165, 8.95606 4.45864, 8.88965 4.5136, 8.82381 4.56856, 8.74366 4.59604, 8.64919 4.59547, 8.3034 4.59604, 7.95588 4.60234, 7.60665 4.61436, 7.25742 4.62695, 7.00151 4.66016, 6.83777 4.71455, 6.6809 4.77638, 6.57041 4.93496, 6.50743 5.19088 L 3.85614 15.5235 C 3.79317 15.7377, 3.76168 15.8968, 3.76168 15.9999 L 3.76168 16.0365 C 3.78687 16.0617, 3.9632 16.0766, 4.2901 16.0823 L 5.95095 16.0823 C 6.39751 16.0829, 6.84292 16.0188, 7.28605 15.8905, 7.72917 15.7623, 8.13336 15.5424, 8.49805 15.2304, 8.93888 14.8829, 9.29269 14.4237, 9.56006 13.8524, 9.82742 13.2816, 10.077 12.6936, 10.3095 12.0885, 10.3599 11.9242, 10.4703 11.8417, 10.6398 11.8411 L 10.819 11.8411 C 10.9827 11.8417, 11.0646 11.9213, 11.0646 12.0793 L 11.0646 12.1526 Z" stroke="none" fill="#0050FF" />
			<path d="M 2.81866 1.26324 C 2.81866 1.55755, 2.75357 1.84001, 2.62341 2.10996, 2.49324 2.38023, 2.31883 2.61106, 2.10018 2.80214, 1.85363 3.01791, 1.58144 3.17757, 1.28392 3.28177, 0.986397 3.38629, 0.675409 3.43822, 0.351277 3.43822, 0.0588849 3.43822, -0.226133 3.39719, -0.504419 3.31511, -0.782704 3.23304, -1.03342 3.11537, -1.2572 2.96148, -1.48098 2.80759, -1.65956 2.61876, -1.79357 2.39465, -1.92759 2.17087, -1.99459 1.91342, -1.99459 1.62232, -1.99459 1.40366, -1.9215 1.24047, -1.7753 1.13275, -1.6291 1.02503, -1.47489 0.971165, -1.31299 0.970845, -1.14371 0.971165, -0.986289 1.02503, -0.840093 1.13275, -0.693897 1.24047, -0.620799 1.40366, -0.620799 1.62232, -0.620799 1.75248, -0.646127 1.86117, -0.697423 1.94837, -0.7484 2.03558, -0.813483 2.10835, -0.892993 2.16638, -0.972182 2.22473, -1.06291 2.26032, -1.16519 2.27379, -1.21777 2.28789, -1.26714 2.29462, -1.31299 2.2943, -1.35851 2.29462, -1.36557 2.29815, -1.33415 2.30456, -1.22482 2.49629, -1.01001 2.66589, -0.689408 2.81272, -0.368803 2.95988, -0.0219078 3.0333, 0.351277 3.03298, 0.52761 3.0333, 0.692081 2.9897, 0.84533 2.90249, 0.99858 2.81529, 1.1265 2.69827, 1.22845 2.55079, 1.35541 2.35971, 1.44166 2.15452, 1.4875 1.93555, 1.53335 1.71689, 1.55611 1.49279, 1.55611 1.26324, 1.55611 1.02759, 1.53335 0.801244, 1.4875 0.583874, 1.44166 0.366824, 1.35541 0.165804, 1.22845 -0.0191851, 1.12265 -0.169228, 0.994091 -0.290738, 0.842765 -0.383072, 0.691439 -0.475407, 0.52761 -0.521574, 0.351277 -0.521894 L -0.414649 -0.521894 C -0.516602 -0.521574, -0.571425 -0.569344, -0.578479 -0.665526 L -0.578479 -0.721952 C -0.578479 -0.762669, -0.565975 -0.79505, -0.541609 -0.819416, -0.509869 -0.849874, -0.469473 -0.865263, -0.4201 -0.865584, -0.317827 -0.879049, -0.212027 -0.885782, -0.103021 -0.886102, 0.00277901 -0.885782, 0.106655 -0.892514, 0.208608 -0.906621, 0.399047 -0.920087, 0.56448 -0.978757, 0.705546 -1.08327, 0.846612 -1.18747, 0.964595 -1.32084, 1.05949 -1.48339, 1.15439 -1.64562, 1.22653 -1.83285, 1.2759 -2.04509, 1.32528 -2.25701, 1.34996 -2.47438, 1.34996 -2.69688, 1.34996 -2.86071, 1.33233 -3.01621, 1.29706 -3.16336, 1.2618 -3.3102, 1.19671 -3.43876, 1.10149 -3.54841, 0.904321 -3.7738, 0.654249 -3.88505, 0.351277 -3.88184, 0.0274656 -3.88152, -0.269415 -3.8206, -0.538724 -3.69942, -0.808032 -3.57791, -0.988854 -3.4471, -1.08055 -3.30731, -1.10491 -3.30347, -1.09273 -3.30186, -1.04336 -3.30219, -0.916397 -3.30186, -0.796811 -3.26435, -0.684279 -3.18933, -0.514999 -3.08994, -0.43068 -2.92227, -0.43068 -2.68662, -0.43068 -2.48785, -0.494801 -2.33812, -0.623363 -2.23745, -0.751926 -2.13646, -0.895558 -2.08613, -1.05394 -2.08645, -1.20911 -2.08613, -1.35434 -2.1355, -1.48996 -2.23489, -1.62558 -2.33396, -1.69354 -2.48464, -1.69354 -2.68662, -1.69354 -2.93605, -1.63359 -3.15631, -1.51368 -3.34803, -1.39378 -3.53943, -1.23989 -3.70358, -1.05137 -3.84048, -0.862856 -3.97706, -0.645485 -4.08158, -0.39894 -4.15339, -0.152074 -4.22521, 0.0979986 -4.26112, 0.351277 -4.26144, 0.622509 -4.26112, 0.885085 -4.22521, 1.13868 -4.15339, 1.39228 -4.08158, 1.63178 -3.97033, 1.85716 -3.82028, 2.04055 -3.69012, 2.19444 -3.53014, 2.31947 -3.34034, 2.44451 -3.15054, 2.50703 -2.93605, 2.50703 -2.69688, 2.50703 -2.45707, 2.46407 -2.23136, 2.37782 -2.01944, 2.29158 -1.8072, 2.17713 -1.6158, 2.03446 -1.44492, 1.89179 -1.27371, 1.72187 -1.12335, 1.52437 -0.993505, 1.3272 -0.863339, 1.17908 -0.781585, 1.08033 -0.747601, 1.16497 -0.737021, 1.30957 -0.686365, 1.51379 -0.595954, 1.71834 -0.505223, 1.91359 -0.384675, 2.10018 -0.234632, 2.31883 -0.0461159, 2.49324 0.178629, 2.62341 0.440243, 2.75357 0.701857, 2.81866 0.976295, 2.81866 1.26324 Z" stroke="none" fill="#0050FF" transform="matrix(1.12 0 0 1 14.0374 16.3063)" />
			<rect />
		</svg>
	</g>
	<g transform="matrix(1 0 -0 1 184.293 20.2589)">
		<svg width="53.9427032" height="54.0428391">
			<defs />
			<path d="M 9.44155 16.5953 C 9.38544 16.7602, 9.26235 16.8426, 9.07342 16.8426 L 0.271085 16.8426 C 0.176621 16.8426, 0.107348 16.8151, 0.0632644 16.7602, 0.0197537 16.7178, -0.00200171 16.672, -0.00257422 16.6228, -0.00200171 16.5867, 0.00429589 16.55, 0.0163186 16.5128 L 0.0541042 16.3754 C 0.0729971 16.2964, 0.11708 16.2283, 0.186354 16.1699, 0.255628 16.1121, 0.334062 16.0829, 0.421656 16.0823, 0.717643 16.0829, 0.994738 16.0783, 1.25237 16.0691, 1.51 16.06, 1.70522 16.0279, 1.8369 15.9724, 1.95026 15.9117, 2.03842 15.7468, 2.1014 15.4777 L 4.77158 5.15423 C 4.79677 5.03859, 4.80937 4.94699, 4.80937 4.87943, 4.80937 4.7884, 4.79048 4.73058, 4.75269 4.70539, 4.67082 4.6573, 4.50079 4.62695, 4.24316 4.61436, 3.98553 4.60234, 3.70843 4.59604, 3.41245 4.59547, 3.31855 4.59604, 3.24928 4.56569, 3.2052 4.50386, 3.16741 4.4678, 3.14852 4.422, 3.14852 4.36646, 3.14852 4.33039, 3.15825 4.29662, 3.17657 4.2657 L 3.2052 4.11914 C 3.27447 3.93651, 3.39699 3.84491, 3.57332 3.84433, 4.30957 3.88155, 5.04811 3.89987, 5.79008 3.89929, 5.91603 3.89987, 6.04542 3.89357, 6.1771 3.88097, 7.0393 3.88155, 7.91638 3.86952, 8.80949 3.84433, 8.89766 3.84491, 8.97323 3.87525, 9.03621 3.93593, 9.0614 3.98517, 9.07342 4.03097, 9.07342 4.07334, 9.07342 4.11055, 9.06426 4.14433, 9.04537 4.1741 L 9.01732 4.3115 C 8.99842 4.39165, 8.95606 4.45864, 8.88965 4.5136, 8.82381 4.56856, 8.74366 4.59604, 8.64919 4.59547, 8.3034 4.59604, 7.95588 4.60234, 7.60665 4.61436, 7.25742 4.62695, 7.00151 4.66016, 6.83777 4.71455, 6.6809 4.77638, 6.57041 4.93496, 6.50743 5.19088 L 3.85614 15.5235 C 3.79317 15.7377, 3.76168 15.8968, 3.76168 15.9999 L 3.76168 16.0365 C 3.78687 16.0617, 3.9632 16.0766, 4.2901 16.0823 L 5.95095 16.0823 C 6.39751 16.0829, 6.84292 16.0188, 7.28605 15.8905, 7.72917 15.7623, 8.13336 15.5424, 8.49805 15.2304, 8.93888 14.8829, 9.29269 14.4237, 9.56006 13.8524, 9.82742 13.2816, 10.077 12.6936, 10.3095 12.0885, 10.3599 11.9242, 10.4703 11.8417, 10.6398 11.8411 L 10.819 11.8411 C 10.9827 11.8417, 11.0646 11.9213, 11.0646 12.0793 L 11.0646 12.1526 Z" stroke="none" fill="#0050FF" />
			<path d="M 2.37714 3.19713 C 1.7292 3.17661, 1.09857 3.16635, 0.485571 3.16635, -0.127106 3.16635, -0.757737 3.17661, -1.406 3.19713 L -1.406 2.75598, -1.04115 2.75598 C -0.925093 2.7563, -0.815766 2.75469, -0.713814 2.75117, -0.611541 2.74796, -0.514718 2.7393, -0.423025 2.72552, -0.331331 2.71205, -0.252142 2.69827, -0.185456 2.68416, -0.12903 2.67422, -0.082221 2.6428, -0.0453515 2.58958, -0.00816131 2.53668, 0.0101132 2.47769, 0.0101132 2.41229 L 0.0101132 -3.36887 C -0.165899 -3.28295, -0.382628 -3.21787, -0.639754 -3.17362, -0.89688 -3.12906, -1.17869 -3.10694, -1.48519 -3.10726 L -1.48519 -3.54328 C -1.06231 -3.54296, -0.672135 -3.59329, -0.31466 -3.69429, 0.042815 -3.79496, 0.351879 -3.98411, 0.612531 -4.26144 L 0.77636 -4.26144 C 0.89242 -4.26112, 0.950449 -4.20469, 0.950449 -4.09216 L 0.950449 2.41229 C 0.950449 2.4809, 0.968082 2.54085, 1.00335 2.59215, 1.03862 2.64344, 1.08991 2.67422, 1.1566 2.68416, 1.21302 2.69827, 1.28548 2.71205, 1.37333 2.72552, 1.46149 2.7393, 1.56088 2.74796, 1.67181 2.75117, 1.78274 2.75469, 1.89111 2.7563, 1.99658 2.75598 L 2.37714 2.75598, 2.37714 3.19713 Z" stroke="none" fill="#0050FF" transform="matrix(1.12 0 0 1 13.5302 16.3063)" />
			<rect />
		</svg>
	</g>
	<g transform="matrix(1 0 -0 1 196.878 64.8587)">
		<svg width="57.0301361" height="54.0428391">
			<defs />
			<path d="M 9.44155 16.5953 C 9.38544 16.7602, 9.26235 16.8426, 9.07342 16.8426 L 0.271085 16.8426 C 0.176621 16.8426, 0.107348 16.8151, 0.0632644 16.7602, 0.0197537 16.7178, -0.00200171 16.672, -0.00257422 16.6228, -0.00200171 16.5867, 0.00429589 16.55, 0.0163186 16.5128 L 0.0541042 16.3754 C 0.0729971 16.2964, 0.11708 16.2283, 0.186354 16.1699, 0.255628 16.1121, 0.334062 16.0829, 0.421656 16.0823, 0.717643 16.0829, 0.994738 16.0783, 1.25237 16.0691, 1.51 16.06, 1.70522 16.0279, 1.8369 15.9724, 1.95026 15.9117, 2.03842 15.7468, 2.1014 15.4777 L 4.77158 5.15423 C 4.79677 5.03859, 4.80937 4.94699, 4.80937 4.87943, 4.80937 4.7884, 4.79048 4.73058, 4.75269 4.70539, 4.67082 4.6573, 4.50079 4.62695, 4.24316 4.61436, 3.98553 4.60234, 3.70843 4.59604, 3.41245 4.59547, 3.31855 4.59604, 3.24928 4.56569, 3.2052 4.50386, 3.16741 4.4678, 3.14852 4.422, 3.14852 4.36646, 3.14852 4.33039, 3.15825 4.29662, 3.17657 4.2657 L 3.2052 4.11914 C 3.27447 3.93651, 3.39699 3.84491, 3.57332 3.84433, 4.30957 3.88155, 5.04811 3.89987, 5.79008 3.89929, 5.91603 3.89987, 6.04542 3.89357, 6.1771 3.88097, 7.0393 3.88155, 7.91638 3.86952, 8.80949 3.84433, 8.89766 3.84491, 8.97323 3.87525, 9.03621 3.93593, 9.0614 3.98517, 9.07342 4.03097, 9.07342 4.07334, 9.07342 4.11055, 9.06426 4.14433, 9.04537 4.1741 L 9.01732 4.3115 C 8.99842 4.39165, 8.95606 4.45864, 8.88965 4.5136, 8.82381 4.56856, 8.74366 4.59604, 8.64919 4.59547, 8.3034 4.59604, 7.95588 4.60234, 7.60665 4.61436, 7.25742 4.62695, 7.00151 4.66016, 6.83777 4.71455, 6.6809 4.77638, 6.57041 4.93496, 6.50743 5.19088 L 3.85614 15.5235 C 3.79317 15.7377, 3.76168 15.8968, 3.76168 15.9999 L 3.76168 16.0365 C 3.78687 16.0617, 3.9632 16.0766, 4.2901 16.0823 L 5.95095 16.0823 C 6.39751 16.0829, 6.84292 16.0188, 7.28605 15.8905, 7.72917 15.7623, 8.13336 15.5424, 8.49805 15.2304, 8.93888 14.8829, 9.29269 14.4237, 9.56006 13.8524, 9.82742 13.2816, 10.077 12.6936, 10.3095 12.0885, 10.3599 11.9242, 10.4703 11.8417, 10.6398 11.8411 L 10.819 11.8411 C 10.9827 11.8417, 11.0646 11.9213, 11.0646 12.0793 L 11.0646 12.1526 Z" stroke="none" fill="#0050FF" />
			<path d="M 2.39126 3.19713 L -1.90934 3.19713, -1.90934 2.915 C -1.90934 2.8948, -1.89876 2.86402, -1.8776 2.82266 L -0.149855 0.945196 C 0.0543709 0.71981, 0.261161 0.488975, 0.470837 0.253009, 0.680513 0.0170434, 0.868388 -0.224052, 1.03382 -0.470277, 1.19925 -0.716502, 1.33134 -0.970422, 1.43009 -1.23204, 1.52884 -1.49365, 1.57789 -1.76809, 1.57789 -2.05567, 1.57789 -2.29805, 1.54615 -2.52472, 1.48267 -2.73503, 1.41919 -2.94535, 1.32782 -3.13002, 1.20791 -3.28904, 1.08832 -3.44806, 0.938601 -3.5763, 0.759062 -3.67377, 0.579523 -3.77123, 0.371449 -3.81996, 0.135484 -3.82028, -0.216541 -3.81996, -0.527528 -3.7148, -0.797157 -3.50449, -1.06647 -3.29417, -1.24536 -3.06237, -1.33353 -2.80974, -1.35084 -2.80268, -1.32263 -2.79915, -1.24889 -2.79948 L -1.15912 -2.79948 C -1.05332 -2.77511, -0.961949 -2.73824, -0.884362 -2.68887, -0.806775 -2.63917, -0.741693 -2.57088, -0.688793 -2.48368, -0.635893 -2.39647, -0.609603 -2.29132, -0.609603 -2.16852, -0.609603 -1.96302, -0.676289 -1.8056, -0.810302 -1.69627, -0.944315 -1.58663, -1.09404 -1.53212, -1.25947 -1.53244, -1.41785 -1.53212, -1.56597 -1.58663, -1.70319 -1.69627, -1.84041 -1.8056, -1.90934 -1.96302, -1.90934 -2.16852, -1.90934 -2.45547, -1.85291 -2.72734, -1.74006 -2.98382, -1.6272 -3.24031, -1.47428 -3.46249, -1.28063 -3.65068, -1.08698 -3.83856, -0.858072 -3.98732, -0.593893 -4.09697, -0.329715 -4.20629, -0.0495055 -4.26112, 0.246413 -4.26144, 0.612865 -4.26112, 0.948539 -4.20725, 1.25311 -4.09953, 1.55769 -3.99181, 1.81738 -3.83695, 2.03219 -3.63529, 2.24699 -3.43331, 2.41531 -3.19991, 2.53682 -2.93509, 2.65833 -2.66995, 2.71892 -2.37692, 2.71892 -2.05567, 2.71892 -1.6998, 2.63813 -1.37214, 2.4759 -1.07302, 2.314 -0.77357, 2.1133 -0.499131, 1.87381 -0.2497, 1.63431 5.126e-005, 1.37975 0.235055, 1.11012 0.455632, 0.840816 0.676208, 0.596835 0.890693, 0.378503 1.09909 L -0.836912 2.24301, 0.753611 2.24301 C 0.97547 2.24333, 1.18258 2.24172, 1.3743 2.2382, 1.56635 2.23499, 1.72921 2.22794, 1.86323 2.21768, 1.99724 2.20742, 2.06585 2.20069, 2.06906 2.19684, 2.09727 2.17312, 2.12388 2.12534, 2.14857 2.05353, 2.17325 1.98171, 2.19602 1.89707, 2.21718 1.79961, 2.23833 1.70215, 2.2595 1.60308, 2.28066 1.50209, 2.30181 1.40142, 2.32105 1.29081, 2.33868 1.1709 L 2.7295 1.1709 Z" stroke="none" fill="#0050FF" transform="matrix(1.12 0 0 1 13.9528 16.3063)" />
			<rect />
		</svg>
	</g>
	<g transform="matrix(1 0 -0 1 146.457 118.168)">
		<svg width="57.0301361" height="54.0428391">
			<defs />
			<path d="M 9.44155 16.5953 C 9.38544 16.7602, 9.26235 16.8426, 9.07342 16.8426 L 0.271085 16.8426 C 0.176621 16.8426, 0.107348 16.8151, 0.0632644 16.7602, 0.0197537 16.7178, -0.00200171 16.672, -0.00257422 16.6228, -0.00200171 16.5867, 0.00429589 16.55, 0.0163186 16.5128 L 0.0541042 16.3754 C 0.0729971 16.2964, 0.11708 16.2283, 0.186354 16.1699, 0.255628 16.1121, 0.334062 16.0829, 0.421656 16.0823, 0.717643 16.0829, 0.994738 16.0783, 1.25237 16.0691, 1.51 16.06, 1.70522 16.0279, 1.8369 15.9724, 1.95026 15.9117, 2.03842 15.7468, 2.1014 15.4777 L 4.77158 5.15423 C 4.79677 5.03859, 4.80937 4.94699, 4.80937 4.87943, 4.80937 4.7884, 4.79048 4.73058, 4.75269 4.70539, 4.67082 4.6573, 4.50079 4.62695, 4.24316 4.61436, 3.98553 4.60234, 3.70843 4.59604, 3.41245 4.59547, 3.31855 4.59604, 3.24928 4.56569, 3.2052 4.50386, 3.16741 4.4678, 3.14852 4.422, 3.14852 4.36646, 3.14852 4.33039, 3.15825 4.29662, 3.17657 4.2657 L 3.2052 4.11914 C 3.27447 3.93651, 3.39699 3.84491, 3.57332 3.84433, 4.30957 3.88155, 5.04811 3.89987, 5.79008 3.89929, 5.91603 3.89987, 6.04542 3.89357, 6.1771 3.88097, 7.0393 3.88155, 7.91638 3.86952, 8.80949 3.84433, 8.89766 3.84491, 8.97323 3.87525, 9.03621 3.93593, 9.0614 3.98517, 9.07342 4.03097, 9.07342 4.07334, 9.07342 4.11055, 9.06426 4.14433, 9.04537 4.1741 L 9.01732 4.3115 C 8.99842 4.39165, 8.95606 4.45864, 8.88965 4.5136, 8.82381 4.56856, 8.74366 4.59604, 8.64919 4.59547, 8.3034 4.59604, 7.95588 4.60234, 7.60665 4.61436, 7.25742 4.62695, 7.00151 4.66016, 6.83777 4.71455, 6.6809 4.77638, 6.57041 4.93496, 6.50743 5.19088 L 3.85614 15.5235 C 3.79317 15.7377, 3.76168 15.8968, 3.76168 15.9999 L 3.76168 16.0365 C 3.78687 16.0617, 3.9632 16.0766, 4.2901 16.0823 L 5.95095 16.0823 C 6.39751 16.0829, 6.84292 16.0188, 7.28605 15.8905, 7.72917 15.7623, 8.13336 15.5424, 8.49805 15.2304, 8.93888 14.8829, 9.29269 14.4237, 9.56006 13.8524, 9.82742 13.2816, 10.077 12.6936, 10.3095 12.0885, 10.3599 11.9242, 10.4703 11.8417, 10.6398 11.8411 L 10.819 11.8411 C 10.9827 11.8417, 11.0646 11.9213, 11.0646 12.0793 L 11.0646 12.1526 Z" stroke="none" fill="#0050FF" />
			<path d="M 1.84737 1.37096 L 1.84737 2.41229 C 1.84737 2.47416, 1.85892 2.53155, 1.88168 2.58445, 1.90476 2.63767, 1.94259 2.67262, 1.99517 2.68929, 2.07661 2.72712, 2.2087 2.74796, 2.39176 2.75117, 2.57483 2.75469, 2.75982 2.7563, 2.94641 2.75598 L 2.94641 3.19713 C 2.40747 3.17661, 1.87911 3.16635, 1.36134 3.16635, 0.850612 3.16635, 0.313277 3.17661, -0.250347 3.19713 L -0.250347 2.75598 C -0.0563805 2.7563, 0.130532 2.75469, 0.310071 2.75117, 0.48961 2.74796, 0.623624 2.72712, 0.711469 2.68929, 0.764369 2.67262, 0.803163 2.63767, 0.827849 2.58445, 0.852536 2.53155, 0.864719 2.47416, 0.864719 2.41229 L 0.864719 1.37096, -2.14705 1.37096, -2.14705 0.955456, 1.3825 -4.29221 C 1.42834 -4.35345, 1.48637 -4.38423, 1.55691 -4.38455 L 1.67297 -4.38455 C 1.78934 -4.38423, 1.84737 -4.3262, 1.84737 -4.21014 L 1.84737 0.919548, 2.98328 0.919548, 2.98328 1.37096 Z M 0.917619 -2.94311 L -1.68217 0.919548, 0.917619 0.919548 Z" stroke="none" fill="#0050FF" transform="matrix(1.12 0 0 1 14.1906 16.3063)" />
			<rect />
		</svg>
	</g>
</svg>
