<?xml version="1.0"?>
<svg xmlns="http://www.w3.org/2000/svg" xmlns:xlink="http://www.w3.org/1999/xlink" width="449.444397" height="420.555542">
	<defs />
	<polyline points="0 0 353.443 0" fill="none" stroke="#000000" stroke-opacity="0.399999976" stroke-width="1" stroke-linecap="round" stroke-linejoin="round" stroke-dasharray="1.505, 2.495" transform="matrix(0.5 0 -0 0.5 225.433 210.051)" />
	<polyline points="0 0 306.091 -176.722" fill="none" stroke="#000000" stroke-opacity="0.399999976" stroke-width="1" stroke-linecap="round" stroke-linejoin="round" stroke-dasharray="1.505, 2.495" transform="matrix(0.5 0 -0 0.5 225.433 210.051)" />
	<polyline points="0 0 176.722 -306.091" fill="none" stroke="#000000" stroke-opacity="0.399999976" stroke-width="1" stroke-linecap="round" stroke-linejoin="round" stroke-dasharray="1.505, 2.495" transform="matrix(0.5 0 -0 0.5 225.433 210.051)" />
	<polyline points="0 0 -1.54495e-005 -353.443" fill="none" stroke="#000000" stroke-opacity="0.399999976" stroke-width="1" stroke-linecap="round" stroke-linejoin="round" stroke-dasharray="1.505, 2.495" transform="matrix(0.5 0 -0 0.5 225.433 210.051)" />
	<polyline points="0 0 -176.722 -306.091" fill="none" stroke="#000000" stroke-opacity="0.399999976" stroke-width="1" stroke-linecap="round" stroke-linejoin="round" stroke-dasharray="1.505, 2.495" transform="matrix(0.5 0 -0 0.5 225.433 210.051)" />
	<polyline points="0 0 -306.091 -176.722" fill="none" stroke="#000000" stroke-opacity="0.399999976" stroke-width="1" stroke-linecap="round" stroke-linejoin="round" stroke-dasharray="1.505, 2.495" transform="matrix(0.5 0 -0 0.5 225.433 210.051)" />
	<polyline points="0 0 -353.443 -5.33684e-005" fill="none" stroke="#000000" stroke-opacity="0.399999976" stroke-width="1" stroke-linecap="round" stroke-linejoin="round" stroke-dasharray="1.505, 2.495" transform="matrix(0.5 0 -0 0.5 225.433 210.051)" />
	<polyline points="0 0 -306.091 176.722" fill="none" stroke="#000000" stroke-opacity="0.399999976" stroke-width="1" stroke-linecap="round" stroke-linejoin="round" stroke-dasharray="1.505, 2.495" transform="matrix(0.5 0 -0 0.5 225.433 210.051)" />
	<polyline points="0 0 -176.722 306.091" fill="none" stroke="#000000" stroke-opacity="0.399999976" stroke-width="1" stroke-linecap="round" stroke-linejoin="round" stroke-dasharray="1.505, 2.495" transform="matrix(0.5 0 -0 0.5 225.433 210.051)" />
	<polyline points="0 0 -0.00016432 353.443" fill="none" stroke="#000000" stroke-opacity="0.399999976" stroke-width="1" stroke-linecap="round" stroke-linejoin="round" stroke-dasharray="1.505, 2.495" transform="matrix(0.5 0 -0 0.5 225.433 210.051)" />
	<polyline points="0 0 176.721 306.091" fill="none" stroke="#000000" stroke-opacity="0.399999976" stroke-width="1" stroke-linecap="round" stroke-linejoin="round" stroke-dasharray="1.505, 2.495" transform="matrix(0.5 0 -0 0.5 225.433 210.051)" />
	<polyline points="0 0 306.091 176.722" fill="none" stroke="#000000" stroke-opacity="0.399999976" stroke-width="1" stroke-linecap="round" stroke-linejoin="round" stroke-dasharray="1.505, 2.495" transform="matrix(0.5 0 -0 0.5 225.433 210.051)" />
	<polyline points="366.307 0 353.443 0" fill="none" stroke="#000000" stroke-width="2.66666675" stroke-linecap="round" stroke-linejoin="round" transform="matrix(0.5 0 -0 0.5 225.433 210.051)" />
	<polyline points="349.079 93.5354 341.4 91.4778" fill="none" stroke="#000000" stroke-width="1.648" stroke-linecap="round" stroke-linejoin="round" transform="matrix(0.5 0 -0 0.5 225.433 210.051)" />
	<polyline points="317.231 -183.154 306.091 -176.722" fill="none" stroke="#000000" stroke-width="2.66666675" stroke-linecap="round" stroke-linejoin="round" transform="matrix(0.5 0 -0 0.5 225.433 210.051)" />
	<polyline points="349.079 -93.5354 341.4 -91.4778" fill="none" stroke="#000000" stroke-width="1.648" stroke-linecap="round" stroke-linejoin="round" transform="matrix(0.5 0 -0 0.5 225.433 210.051)" />
	<polyline points="183.154 -317.231 176.722 -306.091" fill="none" stroke="#000000" stroke-width="2.66666675" stroke-linecap="round" stroke-linejoin="round" transform="matrix(0.5 0 -0 0.5 225.433 210.051)" />
	<polyline points="255.544 -255.544 249.922 -249.922" fill="none" stroke="#000000" stroke-width="1.648" stroke-linecap="round" stroke-linejoin="round" transform="matrix(0.5 0 -0 0.5 225.433 210.051)" />
	<polyline points="-1.60118e-005 -366.307 -1.54495e-005 -353.443" fill="none" stroke="#000000" stroke-width="2.66666675" stroke-linecap="round" stroke-linejoin="round" transform="matrix(0.5 0 -0 0.5 225.433 210.051)" />
	<polyline points="93.5355 -349.079 91.4779 -341.4" fill="none" stroke="#000000" stroke-width="1.648" stroke-linecap="round" stroke-linejoin="round" transform="matrix(0.5 0 -0 0.5 225.433 210.051)" />
	<polyline points="-183.154 -317.231 -176.722 -306.091" fill="none" stroke="#000000" stroke-width="2.66666675" stroke-linecap="round" stroke-linejoin="round" transform="matrix(0.5 0 -0 0.5 225.433 210.051)" />
	<polyline points="-93.5355 -349.079 -91.4779 -341.4" fill="none" stroke="#000000" stroke-width="1.648" stroke-linecap="round" stroke-linejoin="round" transform="matrix(0.5 0 -0 0.5 225.433 210.051)" />
	<polyline points="-317.231 -183.154 -306.091 -176.722" fill="none" stroke="#000000" stroke-width="2.66666675" stroke-linecap="round" stroke-linejoin="round" transform="matrix(0.5 0 -0 0.5 225.433 210.051)" />
	<polyline points="-255.544 -255.544 -249.922 -249.922" fill="none" stroke="#000000" stroke-width="1.648" stroke-linecap="round" stroke-linejoin="round" transform="matrix(0.5 0 -0 0.5 225.433 210.051)" />
	<polyline points="-366.307 -5.53109e-005 -353.443 -5.33684e-005" fill="none" stroke="#000000" stroke-width="2.66666675" stroke-linecap="round" stroke-linejoin="round" transform="matrix(0.5 0 -0 0.5 225.433 210.051)" />
	<polyline points="-349.079 -93.5355 -341.4 -91.4779" fill="none" stroke="#000000" stroke-width="1.648" stroke-linecap="round" stroke-linejoin="round" transform="matrix(0.5 0 -0 0.5 225.433 210.051)" />
	<polyline points="-317.231 183.154 -306.091 176.722" fill="none" stroke="#000000" stroke-width="2.66666675" stroke-linecap="round" stroke-linejoin="round" transform="matrix(0.5 0 -0 0.5 225.433 210.051)" />
	<polyline points="-349.079 93.5354 -341.4 91.4778" fill="none" stroke="#000000" stroke-width="1.648" stroke-linecap="round" stroke-linejoin="round" transform="matrix(0.5 0 -0 0.5 225.433 210.051)" />
	<polyline points="-183.154 317.231 -176.722 306.091" fill="none" stroke="#000000" stroke-width="2.66666675" stroke-linecap="round" stroke-linejoin="round" transform="matrix(0.5 0 -0 0.5 225.433 210.051)" />
	<polyline points="-255.544 255.544 -249.922 249.922" fill="none" stroke="#000000" stroke-width="1.648" stroke-linecap="round" stroke-linejoin="round" transform="matrix(0.5 0 -0 0.5 225.433 210.051)" />
	<polyline points="-0.000170301 366.307 -0.00016432 353.443" fill="none" stroke="#000000" stroke-width="2.66666675" stroke-linecap="round" stroke-linejoin="round" transform="matrix(0.5 0 -0 0.5 225.433 210.051)" />
	<polyline points="-93.5356 349.079 -91.478 341.4" fill="none" stroke="#000000" stroke-width="1.648" stroke-linecap="round" stroke-linejoin="round" transform="matrix(0.5 0 -0 0.5 225.433 210.051)" />
	<polyline points="183.153 317.231 176.721 306.091" fill="none" stroke="#000000" stroke-width="2.66666675" stroke-linecap="round" stroke-linejoin="round" transform="matrix(0.5 0 -0 0.5 225.433 210.051)" />
	<polyline points="93.5353 349.079 91.4777 341.4" fill="none" stroke="#000000" stroke-width="1.648" stroke-linecap="round" stroke-linejoin="round" transform="matrix(0.5 0 -0 0.5 225.433 210.051)" />
	<polyline points="317.231 183.154 306.091 176.722" fill="none" stroke="#000000" stroke-width="2.66666675" stroke-linecap="round" stroke-linejoin="round" transform="matrix(0.5 0 -0 0.5 225.433 210.051)" />
	<polyline points="255.543 255.544 249.922 249.922" fill="none" stroke="#000000" stroke-width="1.648" stroke-linecap="round" stroke-linejoin="round" transform="matrix(0.5 0 -0 0.5 225.433 210.051)" />
	<text font-family="TIMES NEW ROMAN" font-size="32.1599998" fill="#000000" dominant-baseline="middle" text-anchor="start" x="376.800873" y="3.2800684" transform="matrix(0.5 0 -0 0.5 225.433 210.051)">0°</text>
	<text font-family="TIMES NEW ROMAN" font-size="32.1599998" fill="#000000" dominant-baseline="middle" text-anchor="start" x="326.319122" y="-184.998657" transform="matrix(0.5 0 -0 0.5 225.433 210.051)">30°</text>
	<text font-family="TIMES NEW ROMAN" font-size="32.1599998" fill="#000000" dominant-baseline="middle" text-anchor="start" x="188.400421" y="-322.828278" transform="matrix(0.5 0 -0 0.5 225.433 210.051)">60°</text>
	<text font-family="TIMES NEW ROMAN" font-size="32.1599998" fill="#000000" dominant-baseline="middle" text-anchor="middle" x="5.24678993" y="-383.527618" transform="matrix(0.5 0 -0 0.5 225.433 210.051)">90°</text>
	<text font-family="TIMES NEW ROMAN" font-size="32.1599998" fill="#000000" dominant-baseline="middle" text-anchor="end" x="-189.585648" y="-322.828278" transform="matrix(0.5 0 -0 0.5 225.433 210.051)">120°</text>
	<text font-family="TIMES NEW ROMAN" font-size="32.1599998" fill="#000000" dominant-baseline="middle" text-anchor="end" x="-327.504333" y="-184.998672" transform="matrix(0.5 0 -0 0.5 225.433 210.051)">150°</text>
	<text font-family="TIMES NEW ROMAN" font-size="32.1599998" fill="#000000" dominant-baseline="middle" text-anchor="end" x="-377.986084" y="3.28001142" transform="matrix(0.5 0 -0 0.5 225.433 210.051)">180°</text>
	<text font-family="TIMES NEW ROMAN" font-size="32.1599998" fill="#000000" dominant-baseline="middle" text-anchor="end" x="-327.504364" y="191.558731" transform="matrix(0.5 0 -0 0.5 225.433 210.051)">210°</text>
	<text font-family="TIMES NEW ROMAN" font-size="32.1599998" fill="#000000" dominant-baseline="middle" text-anchor="end" x="-189.585739" y="329.388306" transform="matrix(0.5 0 -0 0.5 225.433 210.051)">240°</text>
	<text font-family="TIMES NEW ROMAN" font-size="32.1599998" fill="#000000" dominant-baseline="middle" text-anchor="middle" x="5.24663162" y="390.087738" transform="matrix(0.5 0 -0 0.5 225.433 210.051)">270°</text>
	<text font-family="TIMES NEW ROMAN" font-size="32.1599998" fill="#000000" dominant-baseline="middle" text-anchor="start" x="188.400238" y="329.388489" transform="matrix(0.5 0 -0 0.5 225.433 210.051)">300°</text>
	<text font-family="TIMES NEW ROMAN" font-size="32.1599998" fill="#000000" dominant-baseline="middle" text-anchor="start" x="326.319" y="191.559036" transform="matrix(0.5 0 -0 0.5 225.433 210.051)">330°</text>
	<path d="M 88.3608 -0 C 88.3608 48.8003, 48.8003 88.3608, -0 88.3608, -48.8003 88.3608, -88.3608 48.8003, -88.3608 -0, -88.3608 -48.8003, -48.8003 -88.3608, -0 -88.3608, 48.8003 -88.3608, 88.3608 -48.8003, 88.3608 -0 Z" fill="none" stroke="#000000" stroke-opacity="0.399999976" stroke-width="1" stroke-linecap="round" stroke-linejoin="round" stroke-dasharray="1.505, 2.495" transform="matrix(0.5 0 -0 0.5 225.433 210.051)" />
	<path d="M 176.722 -0 C 176.722 97.6006, 97.6006 176.722, -0 176.722, -97.6007 176.722, -176.722 97.6006, -176.722 -0, -176.722 -97.6007, -97.6007 -176.722, -0 -176.722, 97.6006 -176.722, 176.722 -97.6007, 176.722 -0 Z" fill="none" stroke="#000000" stroke-opacity="0.399999976" stroke-width="1" stroke-linecap="round" stroke-linejoin="round" stroke-dasharray="1.505, 2.495" transform="matrix(0.5 0 -0 0.5 225.433 210.051)" />
	<path d="M 265.082 -0 C 265.082 146.401, 146.401 265.082, -0 265.082, -146.401 265.082, -265.082 146.401, -265.082 -0, -265.082 -146.401, -146.401 -265.082, -0 -265.082, 146.401 -265.082, 265.082 -146.401, 265.082 -0 Z" fill="none" stroke="#000000" stroke-opacity="0.399999976" stroke-width="1" stroke-linecap="round" stroke-linejoin="round" stroke-dasharray="1.505, 2.495" transform="matrix(0.5 0 -0 0.5 225.433 210.051)" />
	<polyline points="0 -0 -12.864 -0" fill="none" stroke="#000000" stroke-width="2.66666675" stroke-linecap="round" stroke-linejoin="round" transform="matrix(0.5 -2.18557e-008 2.18557e-008 0.5 225.433 210.051)" />
	<text font-family="TIMES NEW ROMAN" font-size="32.1599998" fill="#000000" dominant-baseline="middle" text-anchor="end" x="-24.1200008" y="3.2800684" transform="matrix(0.5 -2.18557e-008 2.18557e-008 0.5 225.433 210.051)">0.0</text>
	<polyline points="0 -44.1804 -7.94995 -44.1804" fill="none" stroke="#000000" stroke-width="1.648" stroke-linecap="round" stroke-linejoin="round" transform="matrix(0.5 -2.18557e-008 2.18557e-008 0.5 225.433 210.051)" />
	<polyline points="0 -88.3608 -12.864 -88.3608" fill="none" stroke="#000000" stroke-width="2.66666675" stroke-linecap="round" stroke-linejoin="round" transform="matrix(0.5 -2.18557e-008 2.18557e-008 0.5 225.433 210.051)" />
	<text font-family="TIMES NEW ROMAN" font-size="32.1599998" fill="#000000" dominant-baseline="middle" text-anchor="end" x="-24.1200008" y="-85.0807419" transform="matrix(0.5 -2.18557e-008 2.18557e-008 0.5 225.433 210.051)">1.5</text>
	<polyline points="0 -132.541 -7.94995 -132.541" fill="none" stroke="#000000" stroke-width="1.648" stroke-linecap="round" stroke-linejoin="round" transform="matrix(0.5 -2.18557e-008 2.18557e-008 0.5 225.433 210.051)" />
	<polyline points="0 -176.722 -12.864 -176.722" fill="none" stroke="#000000" stroke-width="2.66666675" stroke-linecap="round" stroke-linejoin="round" transform="matrix(0.5 -2.18557e-008 2.18557e-008 0.5 225.433 210.051)" />
	<text font-family="TIMES NEW ROMAN" font-size="32.1599998" fill="#000000" dominant-baseline="middle" text-anchor="end" x="-24.1200008" y="-173.441544" transform="matrix(0.5 -2.18557e-008 2.18557e-008 0.5 225.433 210.051)">3.0</text>
	<polyline points="0 -220.902 -7.94995 -220.902" fill="none" stroke="#000000" stroke-width="1.648" stroke-linecap="round" stroke-linejoin="round" transform="matrix(0.5 -2.18557e-008 2.18557e-008 0.5 225.433 210.051)" />
	<polyline points="0 -265.082 -12.864 -265.082" fill="none" stroke="#000000" stroke-width="2.66666675" stroke-linecap="round" stroke-linejoin="round" transform="matrix(0.5 -2.18557e-008 2.18557e-008 0.5 225.433 210.051)" />
	<text font-family="TIMES NEW ROMAN" font-size="32.1599998" fill="#000000" dominant-baseline="middle" text-anchor="end" x="-24.1200008" y="-261.802368" transform="matrix(0.5 -2.18557e-008 2.18557e-008 0.5 225.433 210.051)">4.5</text>
	<polyline points="0 -309.263 -7.94995 -309.263" fill="none" stroke="#000000" stroke-width="1.648" stroke-linecap="round" stroke-linejoin="round" transform="matrix(0.5 -2.18557e-008 2.18557e-008 0.5 225.433 210.051)" />
	<polyline points="0 -353.443 -12.864 -353.443" fill="none" stroke="#000000" stroke-width="2.66666675" stroke-linecap="round" stroke-linejoin="round" transform="matrix(0.5 -2.18557e-008 2.18557e-008 0.5 225.433 210.051)" />
	<text font-family="TIMES NEW ROMAN" font-size="32.1599998" fill="#000000" dominant-baseline="middle" text-anchor="end" x="-24.1200008" y="-350.163177" transform="matrix(0.5 -2.18557e-008 2.18557e-008 0.5 225.433 210.051)">6.0</text>
	<polyline points="0 0 0 -353.443" fill="none" stroke="#000000" stroke-width="2.66666675" stroke-linecap="round" stroke-linejoin="round" transform="matrix(0.5 -2.18557e-008 2.18557e-008 0.5 225.433 210.051)" />
	<path d="M 353.443 -0 C 353.443 195.201, 195.201 353.443, -0 353.443, -195.201 353.443, -353.443 195.201, -353.443 -0, -353.443 -195.201, -195.201 -353.443, -0 -353.443, 195.201 -353.443, 353.443 -195.201, 353.443 -0 Z" fill="none" stroke="#000000" stroke-width="2.66666675" stroke-linecap="round" stroke-linejoin="round" transform="matrix(0.5 0 -0 0.5 225.433 210.051)" />
	<path d="M 265.082 -0 L 265.316 -0.577562, 265.547 -1.15605, 265.776 -1.73549, 266.004 -2.31588, 266.229 -2.89724, 266.452 -3.47959, 266.673 -4.06294, 266.891 -4.64731, 267.108 -5.23263, 267.323 -5.81884, 267.535 -6.40597, 267.746 -6.99402, 267.954 -7.58301, 268.16 -8.17296, 268.364 -8.76387, 268.566 -9.35577, 268.766 -9.94855, 268.964 -10.5421, 269.159 -11.1365, 269.353 -11.7316, 269.544 -12.3277, 269.733 -12.9246, 269.92 -13.5224, 270.105 -14.1212, 270.287 -14.7208, 270.467 -15.3211, 270.646 -15.9221, 270.821 -16.5239, 270.995 -17.1265, 271.167 -17.7298, 271.336 -18.3341, 271.503 -18.9391, 271.668 -19.545, 271.831 -20.1515, 271.991 -20.7587, 272.15 -21.3665, 272.306 -21.9751, 272.46 -22.5844, 272.611 -23.1944, 272.761 -23.8053, 272.908 -24.4169, 273.053 -25.029, 273.196 -25.6417, 273.336 -26.255, 273.474 -26.869, 273.61 -27.4836, 273.743 -28.099, 273.874 -28.715, 274.003 -29.3317, 274.13 -29.9489, 274.254 -30.5666, 274.377 -31.1848, 274.496 -31.8036, 274.614 -32.423, 274.729 -33.043, 274.842 -33.6637, 274.953 -34.285, 275.061 -34.9066, 275.168 -35.5287, 275.271 -36.1513, 275.373 -36.7744, 275.472 -37.3979, 275.569 -38.0221, 275.663 -38.6468, 275.756 -39.272, 275.845 -39.8975, 275.933 -40.5234, 276.018 -41.1497, 276.101 -41.7764, 276.181 -42.4035, 276.259 -43.0311, 276.335 -43.6593, 276.408 -44.2878, 276.48 -44.9166, 276.548 -45.5457, 276.615 -46.1751, 276.679 -46.8049, 276.741 -47.435, 276.8 -48.0655, 276.857 -48.6965, 276.911 -49.3278, 276.964 -49.9593, 277.013 -50.591, 277.061 -51.2229, 277.106 -51.8551, 277.149 -52.4875, 277.189 -53.1203, 277.227 -53.7535, 277.262 -54.3869, 277.296 -55.0205, 277.326 -55.6542, 277.355 -56.288, 277.381 -56.922, 277.404 -57.5562, 277.426 -58.1907, 277.445 -58.8254, 277.461 -59.4603, 277.475 -60.0953, 277.487 -60.7304, 277.496 -61.3656, 277.503 -62.0009, 277.507 -62.6363, 277.509 -63.2717, 277.509 -63.9072, 277.506 -64.5428, 277.501 -65.1785, 277.493 -65.8142, 277.483 -66.45, 277.471 -67.0858, 277.456 -67.7217, 277.439 -68.3577, 277.419 -68.9938, 277.397 -69.6299, 277.373 -70.2658, 277.346 -70.9017, 277.316 -71.5374, 277.285 -72.1731, 277.251 -72.8088, 277.214 -73.4445, 277.175 -74.0802, 277.134 -74.716, 277.09 -75.3515, 277.044 -75.9868, 276.995 -76.622, 276.944 -77.257, 276.891 -77.892, 276.835 -78.5268, 276.777 -79.1616, 276.716 -79.7963, 276.653 -80.4308, 276.587 -81.0649, 276.519 -81.6988, 276.449 -82.3325, 276.376 -82.966, 276.301 -83.5993, 276.223 -84.2326, 276.143 -84.8656, 276.06 -85.4983, 275.976 -86.1307, 275.888 -86.7627, 275.799 -87.3944, 275.706 -88.0259, 275.612 -88.6572, 275.515 -89.2882, 275.416 -89.919, 275.314 -90.5494, 275.21 -91.1793, 275.103 -91.8089, 274.994 -92.438, 274.883 -93.0668, 274.769 -93.6953, 274.653 -94.3236, 274.534 -94.9515, 274.413 -95.5789, 274.29 -96.2057, 274.164 -96.8321, 274.036 -97.4581, 273.905 -98.0836, 273.772 -98.7087, 273.637 -99.3335, 273.499 -99.9579, 273.359 -100.582, 273.217 -101.205, 273.072 -101.827, 272.924 -102.45, 272.775 -103.071, 272.623 -103.692, 272.468 -104.313, 272.311 -104.933, 272.152 -105.553, 271.99 -106.171, 271.826 -106.79, 271.66 -107.407, 271.491 -108.024, 271.32 -108.641, 271.146 -109.257, 270.971 -109.872, 270.792 -110.487, 270.612 -111.101, 270.429 -111.714, 270.244 -112.326, 270.056 -112.938, 269.866 -113.549, 269.674 -114.16, 269.479 -114.77, 269.283 -115.379, 269.083 -115.988, 268.882 -116.595, 268.678 -117.202, 268.472 -117.808, 268.263 -118.414, 268.052 -119.018, 267.839 -119.622, 267.623 -120.225, 267.405 -120.828, 267.185 -121.429, 266.963 -122.029, 266.738 -122.629, 266.511 -123.228, 266.281 -123.826, 266.049 -124.423, 265.815 -125.02, 265.579 -125.615, 265.341 -126.21, 265.1 -126.803, 264.857 -127.396, 264.611 -127.988, 264.364 -128.579, 264.114 -129.169, 263.861 -129.758, 263.607 -130.346, 263.35 -130.933, 263.091 -131.519, 262.83 -132.104, 262.566 -132.688, 262.301 -133.271, 262.032 -133.854, 261.762 -134.435, 261.49 -135.015, 261.215 -135.594, 260.939 -136.172, 260.66 -136.749, 260.379 -137.325, 260.095 -137.9, 259.809 -138.474, 259.521 -139.046, 259.231 -139.618, 258.939 -140.188, 258.645 -140.758, 258.348 -141.326, 258.049 -141.893, 257.748 -142.459, 257.445 -143.024, 257.139 -143.587, 256.832 -144.15, 256.522 -144.711, 256.21 -145.271, 255.897 -145.83, 255.581 -146.387, 255.262 -146.944, 254.942 -147.499, 254.619 -148.053, 254.295 -148.606, 253.968 -149.158, 253.639 -149.708, 253.309 -150.257, 252.976 -150.804, 252.64 -151.351, 252.303 -151.896, 251.964 -152.44, 251.623 -152.983, 251.279 -153.524, 250.934 -154.064, 250.586 -154.602, 250.237 -155.139, 249.885 -155.675, 249.531 -156.21, 249.176 -156.743, 248.818 -157.275, 248.458 -157.805, 248.096 -158.334, 247.732 -158.862, 247.366 -159.388, 246.998 -159.913, 246.629 -160.436, 246.257 -160.958, 245.883 -161.479, 245.507 -161.998, 245.129 -162.515, 244.75 -163.031, 244.368 -163.546, 243.984 -164.059, 243.599 -164.571, 243.211 -165.081, 242.822 -165.59, 242.43 -166.097, 242.037 -166.603, 241.642 -167.107, 241.244 -167.609, 240.845 -168.111, 240.444 -168.61, 240.041 -169.108, 239.636 -169.605, 239.23 -170.099, 238.821 -170.593, 238.411 -171.084, 237.999 -171.574, 237.584 -172.063, 237.168 -172.55, 236.75 -173.035, 236.331 -173.519, 235.909 -174.001, 235.486 -174.481, 235.061 -174.959, 234.634 -175.436, 234.205 -175.912, 233.775 -176.386, 233.342 -176.858, 232.908 -177.328, 232.472 -177.797, 232.035 -178.264, 231.595 -178.729, 231.154 -179.193, 230.711 -179.655, 230.267 -180.115, 229.82 -180.573, 229.372 -181.03, 228.922 -181.485, 228.471 -181.938, 228.018 -182.39, 227.563 -182.839, 227.107 -183.287, 226.648 -183.734, 226.188 -184.178, 225.727 -184.621, 225.263 -185.061, 224.799 -185.5, 224.332 -185.937, 223.864 -186.373, 223.394 -186.806, 222.923 -187.238, 222.45 -187.668, 221.975 -188.096, 221.499 -188.522, 221.021 -188.947, 220.542 -189.369, 220.061 -189.79, 219.578 -190.208, 219.094 -190.625, 218.608 -191.04, 218.121 -191.453, 217.632 -191.865, 217.142 -192.274, 216.651 -192.681, 216.157 -193.087, 215.663 -193.49, 215.166 -193.892, 214.668 -194.292, 214.169 -194.69, 213.669 -195.086, 213.167 -195.479, 212.663 -195.871, 212.158 -196.261, 211.652 -196.649, 211.144 -197.036, 210.635 -197.42, 210.124 -197.802, 209.612 -198.182, 209.099 -198.561, 208.584 -198.937, 208.068 -199.311, 207.55 -199.683, 207.031 -200.053, 206.511 -200.422, 205.989 -200.788, 205.466 -201.152, 204.942 -201.514, 204.416 -201.874, 203.889 -202.232, 203.361 -202.588, 202.831 -202.942, 202.3 -203.294, 201.768 -203.644, 201.235 -203.991, 200.701 -204.337, 200.165 -204.681, 199.628 -205.022, 199.09 -205.362, 198.55 -205.699, 198.009 -206.035, 197.467 -206.368, 196.924 -206.699, 196.38 -207.028, 195.835 -207.355, 195.288 -207.68, 194.74 -208.002, 194.191 -208.323, 193.641 -208.642, 193.09 -208.958, 192.538 -209.272, 191.984 -209.584, 191.43 -209.894, 190.874 -210.202, 190.318 -210.507, 189.76 -210.811, 189.201 -211.112, 188.641 -211.412, 188.08 -211.709, 187.518 -212.003, 186.955 -212.296, 186.391 -212.587, 185.826 -212.875, 185.26 -213.161, 184.693 -213.445, 184.125 -213.727, 183.556 -214.007, 182.986 -214.284, 182.415 -214.56, 181.843 -214.833, 181.27 -215.104, 180.697 -215.372, 180.122 -215.639, 179.546 -215.903, 178.97 -216.165, 178.393 -216.425, 177.814 -216.682, 177.235 -216.938, 176.655 -217.191, 176.074 -217.442, 175.493 -217.691, 174.91 -217.937, 174.327 -218.182, 173.743 -218.424, 173.158 -218.663, 172.573 -218.901, 171.986 -219.136, 171.399 -219.37, 170.811 -219.6, 170.222 -219.829, 169.632 -220.055, 169.042 -220.279, 168.451 -220.501, 167.859 -220.721, 167.267 -220.938, 166.674 -221.153, 166.08 -221.366, 165.485 -221.576, 164.89 -221.785, 164.294 -221.991, 163.698 -222.194, 163.101 -222.396, 162.503 -222.595, 161.905 -222.792, 161.306 -222.987, 160.706 -223.179, 160.106 -223.369, 159.506 -223.557, 158.904 -223.743, 158.303 -223.926, 157.7 -224.107, 157.097 -224.286, 156.493 -224.462, 155.889 -224.636, 155.285 -224.808, 154.68 -224.977, 154.074 -225.144, 153.468 -225.309, 152.862 -225.472, 152.255 -225.632, 151.647 -225.791, 151.039 -225.946, 150.431 -226.1, 149.822 -226.251, 149.213 -226.4, 148.604 -226.547, 147.994 -226.691, 147.383 -226.833, 146.773 -226.973, 146.161 -227.111, 145.55 -227.246, 144.938 -227.379, 144.326 -227.509, 143.714 -227.637, 143.101 -227.763, 142.488 -227.887, 141.874 -228.008, 141.26 -228.127, 140.646 -228.244, 140.032 -228.359, 139.418 -228.471, 138.803 -228.581, 138.188 -228.688, 137.573 -228.794, 136.957 -228.897, 136.342 -228.998, 135.726 -229.096, 135.11 -229.192, 134.494 -229.286, 133.877 -229.378, 133.261 -229.467, 132.644 -229.554, 132.027 -229.639, 131.41 -229.721, 130.793 -229.801, 130.176 -229.879, 129.559 -229.955, 128.941 -230.028, 128.324 -230.099, 127.706 -230.168, 127.088 -230.234, 126.47 -230.298, 125.853 -230.36, 125.235 -230.42, 124.617 -230.477, 123.999 -230.532, 123.381 -230.585, 122.763 -230.635, 122.145 -230.684, 121.528 -230.73, 120.91 -230.773, 120.292 -230.815, 119.674 -230.854, 119.057 -230.891, 118.439 -230.926, 117.822 -230.958, 117.204 -230.988, 116.587 -231.016, 115.969 -231.042, 115.352 -231.065, 114.735 -231.087, 114.119 -231.106, 113.502 -231.122, 112.885 -231.137, 112.269 -231.149, 111.653 -231.159, 111.037 -231.167, 110.421 -231.173, 109.805 -231.176, 109.19 -231.177, 108.574 -231.176, 107.959 -231.173, 107.345 -231.168, 106.73 -231.16, 106.116 -231.15, 105.502 -231.138, 104.889 -231.124, 104.275 -231.108, 103.662 -231.089, 103.049 -231.068, 102.436 -231.045, 101.824 -231.02, 101.212 -230.993, 100.601 -230.963, 99.9896 -230.931, 99.3788 -230.897, 98.7683 -230.861, 98.1581 -230.823, 97.5482 -230.783, 96.9389 -230.74, 96.33 -230.695, 95.7215 -230.648, 95.1135 -230.6, 94.5059 -230.549, 93.8987 -230.495, 93.2919 -230.44, 92.6854 -230.382, 92.0794 -230.323, 91.4741 -230.261, 90.8692 -230.197, 90.2649 -230.131, 89.661 -230.063, 89.0576 -229.993, 88.4546 -229.921, 87.8521 -229.846, 87.2501 -229.77, 86.6488 -229.691, 86.0481 -229.611, 85.448 -229.528, 84.8485 -229.444, 84.2494 -229.357, 83.6509 -229.268, 83.0528 -229.177, 82.4555 -229.084, 81.8589 -228.989, 81.2629 -228.892, 80.6676 -228.793, 80.0729 -228.692, 79.4788 -228.589, 78.8852 -228.484, 78.2922 -228.377, 77.7 -228.268, 77.1086 -228.157, 76.5178 -228.044, 75.9278 -227.929, 75.3385 -227.812, 74.7498 -227.693, 74.1617 -227.572, 73.5743 -227.449, 72.9877 -227.324, 72.4019 -227.197, 71.8169 -227.068, 71.2327 -226.937, 70.6492 -226.804, 70.0665 -226.67, 69.4844 -226.533, 68.9031 -226.395, 68.3226 -226.254, 67.7431 -226.112, 67.1644 -225.968, 66.5865 -225.822, 66.0095 -225.674, 65.4332 -225.525, 64.8577 -225.373, 64.2829 -225.219, 63.7091 -225.064, 63.1362 -224.906, 62.5643 -224.747, 61.9932 -224.586, 61.423 -224.423, 60.8536 -224.259, 60.285 -224.092, 59.7173 -223.924, 59.1506 -223.754, 58.5849 -223.582, 58.0202 -223.408, 57.4564 -223.233, 56.8935 -223.056, 56.3316 -222.877, 55.7705 -222.696, 55.2103 -222.514, 54.6511 -222.329, 54.093 -222.143, 53.536 -221.956, 52.9799 -221.766, 52.4248 -221.575, 51.8706 -221.382, 51.3174 -221.188, 50.7652 -220.991, 50.214 -220.793, 49.6639 -220.594, 49.115 -220.392, 48.567 -220.19, 48.0202 -219.985, 47.4743 -219.779, 46.9294 -219.571, 46.3855 -219.361, 45.8428 -219.15, 45.3012 -218.938, 44.7607 -218.723, 44.2213 -218.507, 43.6831 -218.29, 43.1458 -218.071, 42.6097 -217.85, 42.0745 -217.628, 41.5406 -217.404, 41.0078 -217.178, 40.4762 -216.952, 39.9457 -216.723, 39.4164 -216.493, 38.8882 -216.262, 38.3611 -216.029, 37.8351 -215.794, 37.3103 -215.558, 36.7867 -215.321, 36.2644 -215.082, 35.7432 -214.842, 35.2233 -214.6, 34.7044 -214.357, 34.1868 -214.112, 33.6702 -213.866, 33.1549 -213.618, 32.6409 -213.369, 32.1282 -213.119, 31.6166 -212.868, 31.1063 -212.615, 30.5972 -212.36, 30.0893 -212.104, 29.5825 -211.847, 29.077 -211.589, 28.5728 -211.329, 28.07 -211.068, 27.5683 -210.805, 27.068 -210.542, 26.5689 -210.277, 26.0709 -210.01, 25.5742 -209.743, 25.0789 -209.474, 24.5848 -209.204, 24.0921 -208.933, 23.6007 -208.66, 23.1106 -208.386, 22.6217 -208.112, 22.1341 -207.835, 21.6477 -207.558, 21.1627 -207.279, 20.6791 -207, 20.1968 -206.719, 19.7158 -206.437, 19.2362 -206.154, 18.7578 -205.87, 18.2807 -205.585, 17.8049 -205.298, 17.3305 -205.01, 16.8574 -204.722, 16.3857 -204.432, 15.9154 -204.141, 15.4464 -203.85, 14.9788 -203.557, 14.5124 -203.263, 14.0474 -202.968, 13.5837 -202.672, 13.1214 -202.375, 12.6606 -202.077, 12.2011 -201.778, 11.743 -201.478, 11.2862 -201.178, 10.8307 -200.876, 10.3766 -200.573, 9.92388 -200.269, 9.47257 -199.965, 9.02267 -199.66, 8.57416 -199.353, 8.12703 -199.046, 7.68126 -198.738, 7.23684 -198.429, 6.79375 -198.12, 6.35209 -197.809, 5.91185 -197.498, 5.47302 -197.185, 5.0356 -196.873, 4.59956 -196.559, 4.16491 -196.244, 3.73161 -195.929, 3.29968 -195.613, 2.86915 -195.296, 2.44006 -194.979, 2.01239 -194.661, 1.58613 -194.342, 1.16127 -194.023, 0.737787 -193.702, 0.315683 -193.381, -0.105055 -193.06, -0.524379 -192.737, -0.942274 -192.415, -1.35875 -192.091, -1.77382 -191.767, -2.18749 -191.443, -2.59976 -191.117, -3.01066 -190.792, -3.42019 -190.465, -3.82831 -190.138, -4.23501 -189.811, -4.6403 -189.483, -5.04417 -189.155, -5.44666 -188.826, -5.84775 -188.497, -6.24746 -188.167, -6.6458 -187.836, -7.04274 -187.505, -7.43828 -187.174, -7.83241 -186.843, -8.22514 -186.511, -8.61649 -186.178, -9.00646 -185.846, -9.39505 -185.512, -9.78228 -185.179, -10.1681 -184.845, -10.5526 -184.511, -10.9356 -184.176, -11.3173 -183.842, -11.6976 -183.507, -12.0766 -183.171, -12.4542 -182.836, -12.8304 -182.5, -13.2052 -182.164, -13.5787 -181.827, -13.9508 -181.491, -14.3216 -181.154, -14.691 -180.817, -15.0591 -180.48, -15.4258 -180.143, -15.7911 -179.805, -16.1552 -179.467, -16.5179 -179.129, -16.8792 -178.792, -17.2393 -178.454, -17.598 -178.116, -17.9553 -177.778, -18.3114 -177.44, -18.6661 -177.102, -19.0195 -176.763, -19.3716 -176.425, -19.7224 -176.087, -20.0719 -175.749, -20.4202 -175.41, -20.7671 -175.072, -21.1127 -174.734, -21.457 -174.396, -21.8 -174.058, -22.1418 -173.72, -22.4823 -173.382, -22.8216 -173.044, -23.1596 -172.707, -23.4964 -172.369, -23.8319 -172.032, -24.1661 -171.694, -24.4991 -171.357, -24.8308 -171.021, -25.1614 -170.684, -25.4908 -170.348, -25.8189 -170.012, -26.1458 -169.676, -26.4715 -169.34, -26.796 -169.004, -27.1192 -168.669, -27.4413 -168.334, -27.7623 -168, -28.0821 -167.666, -28.4007 -167.332, -28.7182 -166.998, -29.0344 -166.665, -29.3495 -166.332, -29.6634 -165.999, -29.9763 -165.667, -30.2881 -165.335, -30.5988 -165.004, -30.9083 -164.673, -31.2168 -164.343, -31.5241 -164.013, -31.8302 -163.683, -32.1353 -163.354, -32.4393 -163.026, -32.7424 -162.698, -33.0444 -162.37, -33.3453 -162.044, -33.6452 -161.717, -33.944 -161.391, -34.2417 -161.066, -34.5384 -160.741, -34.8342 -160.417, -35.1291 -160.094, -35.423 -159.771, -35.7159 -159.449, -36.0077 -159.127, -36.2986 -158.807, -36.5884 -158.486, -36.8772 -158.166, -37.1652 -157.847, -37.4524 -157.529, -37.7387 -157.212, -38.024 -156.895, -38.3085 -156.579, -38.5919 -156.264, -38.8744 -155.949, -39.156 -155.635, -39.4368 -155.322, -39.7168 -155.01, -39.996 -154.698, -40.2744 -154.388, -40.552 -154.078, -40.8288 -153.769, -41.1049 -153.461, -41.3802 -153.154, -41.6547 -152.848, -41.9283 -152.542, -42.2012 -152.238, -42.4733 -151.934, -42.7446 -151.631, -43.0151 -151.329, -43.2849 -151.028, -43.5541 -150.728, -43.8226 -150.429, -44.0906 -150.131, -44.3579 -149.834, -44.6246 -149.539, -44.8906 -149.244, -45.1559 -148.95, -45.4204 -148.657, -45.6843 -148.365, -45.9478 -148.074, -46.2107 -147.784, -46.4732 -147.495, -46.7351 -147.207, -46.9963 -146.921, -47.257 -146.635, -47.5169 -146.35, -47.7764 -146.067, -48.0355 -145.784, -48.2942 -145.503, -48.5525 -145.223, -48.8103 -144.944, -49.0677 -144.667, -49.3245 -144.39, -49.5807 -144.114, -49.8364 -143.84, -50.092 -143.567, -50.3473 -143.295, -50.6023 -143.024, -50.8569 -142.755, -51.1112 -142.487, -51.365 -142.219, -51.6183 -141.953, -51.8712 -141.689, -52.1241 -141.425, -52.3768 -141.163, -52.6293 -140.902, -52.8816 -140.643, -53.1335 -140.384, -53.3851 -140.127, -53.6363 -139.871, -53.8873 -139.617, -54.1382 -139.363, -54.3892 -139.111, -54.64 -138.861, -54.8907 -138.611, -55.1413 -138.363, -55.3915 -138.117, -55.6415 -137.871, -55.8913 -137.627, -56.1413 -137.384, -56.3913 -137.143, -56.6414 -136.903, -56.8915 -136.664, -57.1415 -136.427, -57.3913 -136.191, -57.641 -135.956, -57.8906 -135.722, -58.1404 -135.49, -58.3905 -135.26, -58.6406 -135.031, -58.8909 -134.803, -59.1412 -134.576, -59.3915 -134.351, -59.6417 -134.127, -59.8919 -133.905, -60.1425 -133.684, -60.3934 -133.464, -60.6445 -133.246, -60.8959 -133.029, -61.1473 -132.814, -61.3989 -132.6, -61.6505 -132.387, -61.9022 -132.176, -62.1544 -131.966, -62.407 -131.757, -62.6599 -131.55, -62.9132 -131.345, -63.1667 -131.14, -63.4204 -130.938, -63.6743 -130.736, -63.9284 -130.536, -64.1831 -130.337, -64.4383 -130.14, -64.6939 -129.944, -64.95 -129.749, -65.2064 -129.556, -65.4632 -129.365, -65.7202 -129.174, -65.9776 -128.985, -66.2356 -128.798, -66.4942 -128.611, -66.7534 -128.426, -67.0131 -128.243, -67.2733 -128.061, -67.5339 -127.88, -67.7949 -127.701, -68.0563 -127.523, -68.3185 -127.346, -68.5813 -127.171, -68.8448 -126.997, -69.1089 -126.824, -69.3737 -126.653, -69.6389 -126.483, -69.9046 -126.315, -70.1709 -126.147, -70.4379 -125.982, -70.7056 -125.817, -70.974 -125.654, -71.2432 -125.492, -71.5132 -125.331, -71.784 -125.172, -72.0556 -125.014, -72.328 -124.857, -72.601 -124.701, -72.8747 -124.547, -73.1491 -124.394, -73.4242 -124.242, -73.7 -124.091, -73.9766 -123.942, -74.254 -123.794, -74.5321 -123.648, -74.8113 -123.502, -75.0913 -123.358, -75.3723 -123.215, -75.6542 -123.073, -75.9369 -122.932, -76.2204 -122.792, -76.5047 -122.654, -76.7899 -122.517, -77.076 -122.381, -77.3632 -122.246, -77.6513 -122.112, -77.9403 -121.979, -78.2303 -121.848, -78.5212 -121.717, -78.813 -121.588, -79.1056 -121.46, -79.3994 -121.333, -79.6941 -121.207, -79.9899 -121.081, -80.2868 -120.957, -80.5846 -120.834, -80.8834 -120.712, -81.1832 -120.591, -81.4839 -120.472, -81.7858 -120.353, -82.0887 -120.235, -82.3928 -120.118, -82.6979 -120.002, -83.004 -119.886, -83.3112 -119.772, -83.6195 -119.659, -83.9287 -119.547, -84.2391 -119.436, -84.5507 -119.325, -84.8633 -119.216, -85.1771 -119.107, -85.492 -118.998, -85.8079 -118.891, -86.125 -118.785, -86.4431 -118.68, -86.7624 -118.575, -87.0829 -118.471, -87.4045 -118.368, -87.7273 -118.265, -88.0513 -118.164, -88.3763 -118.063, -88.7025 -117.963, -89.0299 -117.863, -89.3584 -117.765, -89.6881 -117.667, -90.0191 -117.569, -90.3512 -117.472, -90.6845 -117.376, -91.019 -117.28, -91.3546 -117.185, -91.6915 -117.091, -92.0295 -116.998, -92.3688 -116.904, -92.7092 -116.812, -93.0509 -116.719, -93.3938 -116.628, -93.7379 -116.536, -94.0832 -116.446, -94.4296 -116.356, -94.7773 -116.267, -95.1262 -116.178, -95.4763 -116.089, -95.8276 -116, -96.1802 -115.912, -96.5339 -115.824, -96.8889 -115.737, -97.245 -115.651, -97.6024 -115.564, -97.961 -115.478, -98.3209 -115.392, -98.6819 -115.306, -99.0442 -115.221, -99.4077 -115.136, -99.7725 -115.051, -100.138 -114.967, -100.506 -114.883, -100.874 -114.799, -101.244 -114.715, -101.615 -114.631, -101.987 -114.548, -102.36 -114.464, -102.734 -114.381, -103.11 -114.299, -103.487 -114.216, -103.865 -114.133, -104.244 -114.05, -104.625 -113.967, -105.006 -113.884, -105.389 -113.801, -105.773 -113.718, -106.159 -113.636, -106.545 -113.553, -106.933 -113.471, -107.322 -113.388, -107.712 -113.305, -108.103 -113.222, -108.495 -113.138, -108.889 -113.055, -109.284 -112.972, -109.68 -112.889, -110.077 -112.806, -110.475 -112.722, -110.874 -112.638, -111.275 -112.554, -111.677 -112.47, -112.08 -112.385, -112.484 -112.3, -112.889 -112.215, -113.295 -112.13, -113.702 -112.044, -114.111 -111.958, -114.521 -111.872, -114.931 -111.785, -115.343 -111.699, -115.756 -111.612, -116.171 -111.524, -116.586 -111.436, -117.002 -111.348, -117.419 -111.259, -117.838 -111.17, -118.257 -111.08, -118.678 -110.99, -119.099 -110.899, -119.522 -110.808, -119.946 -110.717, -120.371 -110.624, -120.796 -110.532, -121.223 -110.438, -121.651 -110.345, -122.08 -110.25, -122.51 -110.156, -122.941 -110.06, -123.373 -109.964, -123.806 -109.867, -124.239 -109.77, -124.674 -109.672, -125.11 -109.573, -125.547 -109.474, -125.985 -109.374, -126.424 -109.274, -126.864 -109.172, -127.304 -109.07, -127.746 -108.967, -128.188 -108.863, -128.632 -108.759, -129.076 -108.654, -129.521 -108.548, -129.968 -108.441, -130.415 -108.334, -130.862 -108.225, -131.311 -108.116, -131.761 -108.006, -132.211 -107.895, -132.663 -107.783, -133.115 -107.671, -133.568 -107.557, -134.022 -107.443, -134.477 -107.327, -134.932 -107.211, -135.388 -107.093, -135.845 -106.975, -136.303 -106.856, -136.762 -106.736, -137.221 -106.614, -137.681 -106.492, -138.142 -106.369, -138.604 -106.245, -139.066 -106.119, -139.529 -105.993, -139.993 -105.866, -140.458 -105.737, -140.923 -105.608, -141.389 -105.477, -141.855 -105.346, -142.323 -105.213, -142.79 -105.079, -143.259 -104.944, -143.728 -104.807, -144.198 -104.67, -144.669 -104.532, -145.14 -104.392, -145.611 -104.251, -146.083 -104.109, -146.556 -103.966, -147.03 -103.821, -147.504 -103.676, -147.978 -103.529, -148.454 -103.381, -148.929 -103.232, -149.405 -103.081, -149.882 -102.929, -150.359 -102.776, -150.837 -102.621, -151.315 -102.466, -151.794 -102.309, -152.273 -102.151, -152.753 -101.991, -153.233 -101.83, -153.713 -101.668, -154.194 -101.504, -154.675 -101.339, -155.157 -101.173, -155.639 -101.005, -156.122 -100.836, -156.605 -100.666, -157.088 -100.494, -157.572 -100.321, -158.056 -100.146, -158.54 -99.97, -159.025 -99.7926, -159.51 -99.6138, -159.995 -99.4336, -160.481 -99.2519, -160.967 -99.0687, -161.453 -98.884, -161.939 -98.6979, -162.426 -98.5104, -162.913 -98.3214, -163.4 -98.1309, -163.888 -97.939, -164.375 -97.7456, -164.863 -97.5506, -165.351 -97.3541, -165.839 -97.1562, -166.328 -96.9567, -166.816 -96.7557, -167.305 -96.5532, -167.794 -96.3491, -168.283 -96.1435, -168.772 -95.9363, -169.261 -95.7276, -169.75 -95.5173, -170.24 -95.3054, -170.729 -95.092, -171.219 -94.8771, -171.709 -94.6605, -172.198 -94.4424, -172.688 -94.2227, -173.178 -94.0014, -173.667 -93.7785, -174.157 -93.5539, -174.647 -93.3278, -175.137 -93.1001, -175.627 -92.8708, -176.116 -92.6398, -176.606 -92.4072, -177.095 -92.173, -177.585 -91.9371, -178.074 -91.6996, -178.563 -91.4605, -179.053 -91.2197, -179.542 -90.9772, -180.031 -90.7331, -180.52 -90.4874, -181.008 -90.2399, -181.497 -89.9908, -181.985 -89.7401, -182.473 -89.4877, -182.962 -89.2336, -183.45 -88.9778, -183.937 -88.7203, -184.425 -88.4612, -184.912 -88.2004, -185.399 -87.9379, -185.885 -87.6737, -186.372 -87.4078, -186.858 -87.1401, -187.344 -86.8708, -187.829 -86.5998, -188.315 -86.327, -188.799 -86.0526, -189.284 -85.7764, -189.768 -85.4985, -190.252 -85.2189, -190.736 -84.9375, -191.219 -84.6544, -191.702 -84.3697, -192.184 -84.0832, -192.666 -83.795, -193.147 -83.505, -193.628 -83.2134, -194.109 -82.92, -194.59 -82.6248, -195.07 -82.3279, -195.549 -82.0293, -196.028 -81.729, -196.506 -81.4269, -196.984 -81.1231, -197.462 -80.8176, -197.939 -80.5103, -198.415 -80.2012, -198.891 -79.8903, -199.366 -79.5778, -199.841 -79.2635, -200.315 -78.9474, -200.788 -78.6297, -201.261 -78.3101, -201.734 -77.9888, -202.206 -77.6657, -202.677 -77.3409, -203.147 -77.0143, -203.617 -76.686, -204.086 -76.356, -204.555 -76.0242, -205.022 -75.6907, -205.49 -75.3554, -205.956 -75.0183, -206.422 -74.6795, -206.887 -74.3389, -207.351 -73.9967, -207.815 -73.6527, -208.278 -73.3069, -208.74 -72.9594, -209.201 -72.6101, -209.662 -72.259, -210.122 -71.9062, -210.581 -71.5516, -211.039 -71.1954, -211.496 -70.8373, -211.952 -70.4776, -212.408 -70.1161, -212.863 -69.7528, -213.316 -69.3877, -213.77 -69.0209, -214.222 -68.6524, -214.673 -68.2822, -215.123 -67.9103, -215.573 -67.5367, -216.021 -67.1613, -216.469 -66.7841, -216.916 -66.4052, -217.361 -66.0246, -217.806 -65.6422, -218.25 -65.2582, -218.693 -64.8725, -219.134 -64.485, -219.575 -64.0959, -220.015 -63.7049, -220.454 -63.3122, -220.892 -62.9178, -221.328 -62.5217, -221.764 -62.124, -222.198 -61.7245, -222.632 -61.3234, -223.064 -60.9205, -223.495 -60.5159, -223.926 -60.1096, -224.355 -59.7015, -224.783 -59.2919, -225.21 -58.8806, -225.636 -58.4676, -226.06 -58.053, -226.484 -57.6366, -226.906 -57.2186, -227.327 -56.7988, -227.747 -56.3773, -228.166 -55.9542, -228.583 -55.5295, -229 -55.1031, -229.415 -54.6751, -229.828 -54.2454, -230.241 -53.8141, -230.652 -53.381, -231.062 -52.9463, -231.471 -52.51, -231.879 -52.0721, -232.285 -51.6326, -232.69 -51.1915, -233.094 -50.7488, -233.496 -50.3044, -233.897 -49.8583, -234.297 -49.4106, -234.695 -48.9613, -235.092 -48.5105, -235.488 -48.0581, -235.882 -47.6041, -236.275 -47.1485, -236.666 -46.6912, -237.056 -46.2323, -237.445 -45.7718, -237.832 -45.3098, -238.218 -44.8463, -238.603 -44.3813, -238.985 -43.9147, -239.367 -43.4465, -239.747 -42.9767, -240.126 -42.5053, -240.503 -42.0324, -240.879 -41.5579, -241.253 -41.082, -241.625 -40.6046, -241.996 -40.1257, -242.366 -39.6453, -242.734 -39.1633, -243.101 -38.6797, -243.466 -38.1946, -243.83 -37.7081, -244.192 -37.2201, -244.552 -36.7307, -244.911 -36.2398, -245.268 -35.7474, -245.623 -35.2534, -245.978 -34.758, -246.33 -34.261, -246.681 -33.7627, -247.03 -33.263, -247.378 -32.7618, -247.723 -32.2593, -248.068 -31.7553, -248.41 -31.2498, -248.751 -30.7428, -249.091 -30.2344, -249.428 -29.7246, -249.764 -29.2135, -250.098 -28.7011, -250.431 -28.1873, -250.762 -27.672, -251.091 -27.1554, -251.418 -26.6372, -251.744 -26.1177, -252.068 -25.5969, -252.39 -25.0748, -252.71 -24.5514, -253.029 -24.0266, -253.345 -23.5006, -253.66 -22.9731, -253.974 -22.4442, -254.285 -21.914, -254.595 -21.3825, -254.903 -20.8498, -255.209 -20.3159, -255.513 -19.7807, -255.816 -19.2442, -256.116 -18.7063, -256.415 -18.1671, -256.712 -17.6266, -257.007 -17.0849, -257.3 -16.5421, -257.592 -15.998, -257.881 -15.4527, -258.169 -14.9062, -258.454 -14.3584, -258.738 -13.8094, -259.02 -13.259, -259.3 -12.7075, -259.578 -12.155, -259.855 -11.6012, -260.129 -11.0464, -260.401 -10.4903, -260.671 -9.933, -260.94 -9.37449, -261.207 -8.81475, -261.471 -8.25395, -261.734 -7.6921, -261.994 -7.12918, -262.253 -6.56515, -262.509 -6, -262.764 -5.4337, -263.017 -4.86621, -263.267 -4.29756, -263.516 -3.72792, -263.763 -3.15729, -264.007 -2.58564, -264.25 -2.01296, -264.49 -1.43921, -264.728 -0.864364, -264.965 -0.288406, -265.199 0.288661, -265.432 0.866659, -265.662 1.44558, -265.89 2.02545, -266.116 2.60629, -266.34 3.18814, -266.562 3.77101, -266.782 4.35494, -267 4.93991, -267.216 5.52575, -267.429 6.11245, -267.641 6.70003, -267.85 7.28852, -268.057 7.87794, -268.262 8.46833, -268.465 9.0597, -268.666 9.65207, -268.865 10.2452, -269.062 10.8392, -269.256 11.4339, -269.449 12.0296, -269.639 12.626, -269.827 13.2234, -270.012 13.8217, -270.196 14.4209, -270.378 15.0208, -270.557 15.6215, -270.734 16.2229, -270.908 16.8251, -271.081 17.428, -271.251 18.0318, -271.42 18.6365, -271.586 19.242, -271.75 19.8482, -271.911 20.455, -272.071 21.0625, -272.228 21.6707, -272.383 22.2796, -272.536 22.8893, -272.686 23.4998, -272.835 24.111, -272.981 24.7229, -273.125 25.3353, -273.266 25.9483, -273.405 26.5619, -273.542 27.1762, -273.677 27.7912, -273.809 28.4069, -273.939 29.0233, -274.067 29.6403, -274.193 30.2577, -274.316 30.8756, -274.437 31.4941, -274.555 32.1132, -274.672 32.7329, -274.786 33.3533, -274.898 33.9743, -275.008 34.5957, -275.115 35.2176, -275.22 35.84, -275.322 36.4628, -275.423 37.0861, -275.521 37.7099, -275.617 38.3344, -275.71 38.9593, -275.801 39.5847, -275.889 40.2104, -275.976 40.8365, -276.06 41.463, -276.141 42.0899, -276.22 42.7173, -276.297 43.3451, -276.372 43.9735, -276.444 44.6022, -276.514 45.2311, -276.582 45.8604, -276.647 46.49, -276.71 47.1199, -276.77 47.7502, -276.829 48.381, -276.884 49.0121, -276.938 49.6435, -276.989 50.2751, -277.037 50.9069, -277.084 51.5389, -277.128 52.1713, -277.169 52.8039, -277.208 53.4369, -277.245 54.0702, -277.279 54.7037, -277.311 55.3373, -277.341 55.9711, -277.368 56.605, -277.393 57.2391, -277.415 57.8734, -277.435 58.508, -277.453 59.1428, -277.468 59.7778, -277.481 60.4129, -277.492 61.048, -277.5 61.6833, -277.505 62.3186, -277.509 62.954, -277.509 63.5895, -277.508 64.225, -277.504 64.8606, -277.497 65.4963, -277.489 66.132, -277.478 66.7679, -277.464 67.4038, -277.448 68.0397, -277.429 68.6757, -277.409 69.3118, -277.385 69.9479, -277.36 70.5838, -277.331 71.2196, -277.301 71.8553, -277.268 72.491, -277.233 73.1267, -277.195 73.7624, -277.155 74.3981, -277.112 75.0338, -277.067 75.6692, -277.02 76.3044, -276.97 76.9395, -276.918 77.5745, -276.863 78.2094, -276.806 78.8442, -276.747 79.479, -276.685 80.1136, -276.62 80.7479, -276.554 81.3819, -276.484 82.0157, -276.413 82.6493, -276.339 83.2827, -276.262 83.916, -276.183 84.5491, -276.102 85.182, -276.018 85.8145, -275.932 86.4467, -275.844 87.0786, -275.753 87.7102, -275.659 88.3416, -275.564 88.9727, -275.466 89.6037, -275.365 90.2343, -275.262 90.8644, -275.157 91.4941, -275.049 92.1235, -274.939 92.7525, -274.826 93.3811, -274.711 94.0095, -274.594 94.6376, -274.474 95.2652, -274.352 95.8924, -274.227 96.519, -274.1 97.1452, -273.971 97.7709, -273.839 98.3962, -273.705 99.0211, -273.569 99.6457, -273.43 100.27, -273.288 100.893, -273.144 101.516, -272.998 102.139, -272.85 102.76, -272.699 103.382, -272.546 104.003, -272.39 104.623, -272.232 105.243, -272.071 105.862, -271.908 106.481, -271.743 107.099, -271.576 107.716, -271.406 108.333, -271.233 108.949, -271.059 109.564, -270.882 110.179, -270.702 110.794, -270.521 111.407, -270.337 112.02, -270.15 112.632, -269.962 113.244, -269.771 113.855, -269.577 114.465, -269.381 115.075, -269.183 115.684, -268.983 116.292, -268.78 116.899, -268.575 117.505, -268.368 118.111, -268.158 118.716, -267.946 119.32, -267.731 119.924, -267.514 120.527, -267.295 121.128, -267.074 121.729, -266.85 122.329, -266.625 122.929, -266.396 123.527, -266.166 124.125, -265.933 124.722, -265.698 125.318, -265.46 125.913, -265.221 126.507, -264.979 127.1, -264.734 127.692, -264.488 128.283, -264.239 128.874, -263.988 129.464, -263.734 130.052, -263.479 130.64, -263.221 131.226, -262.961 131.812, -262.698 132.396, -262.434 132.98, -262.167 133.563, -261.898 134.144, -261.626 134.725, -261.353 135.305, -261.077 135.883, -260.799 136.461, -260.519 137.037, -260.237 137.612, -259.952 138.187, -259.666 138.76, -259.377 139.332, -259.085 139.903, -258.792 140.473, -258.496 141.042, -258.199 141.609, -257.899 142.176, -257.597 142.741, -257.292 143.306, -256.986 143.869, -256.677 144.43, -256.367 144.991, -256.054 145.55, -255.739 146.109, -255.422 146.666, -255.102 147.222, -254.781 147.776, -254.457 148.33, -254.132 148.882, -253.804 149.433, -253.474 149.982, -253.142 150.531, -252.808 151.078, -252.472 151.624, -252.134 152.168, -251.794 152.712, -251.451 153.253, -251.107 153.794, -250.76 154.333, -250.412 154.871, -250.061 155.408, -249.709 155.943, -249.354 156.477, -248.997 157.009, -248.638 157.54, -248.277 158.07, -247.914 158.598, -247.55 159.125, -247.183 159.65, -246.814 160.175, -246.443 160.697, -246.07 161.219, -245.695 161.738, -245.318 162.257, -244.94 162.773, -244.559 163.289, -244.177 163.803, -243.792 164.315, -243.405 164.826, -243.017 165.336, -242.626 165.844, -242.234 166.35, -241.84 166.855, -241.443 167.358, -241.045 167.86, -240.645 168.361, -240.243 168.859, -239.839 169.357, -239.433 169.852, -239.026 170.346, -238.616 170.839, -238.205 171.329, -237.792 171.819, -237.377 172.306, -236.96 172.793, -236.541 173.277, -236.12 173.76, -235.698 174.241, -235.274 174.72, -234.848 175.198, -234.42 175.674, -233.99 176.149, -233.559 176.622, -233.125 177.093, -232.69 177.563, -232.254 178.031, -231.815 178.497, -231.375 178.961, -230.933 179.424, -230.489 179.885, -230.044 180.344, -229.596 180.802, -229.147 181.258, -228.697 181.712, -228.245 182.164, -227.791 182.615, -227.335 183.064, -226.878 183.511, -226.418 183.956, -225.958 184.4, -225.495 184.841, -225.031 185.281, -224.566 185.719, -224.098 186.155, -223.629 186.59, -223.159 187.022, -222.686 187.453, -222.212 187.882, -221.737 188.309, -221.26 188.735, -220.781 189.158, -220.301 189.579, -219.82 189.999, -219.336 190.417, -218.851 190.833, -218.365 191.247, -217.877 191.659, -217.387 192.07, -216.897 192.478, -216.404 192.884, -215.91 193.289, -215.415 193.691, -214.918 194.092, -214.419 194.491, -213.919 194.888, -213.418 195.283, -212.915 195.676, -212.411 196.067, -211.905 196.456, -211.398 196.843, -210.889 197.228, -210.379 197.611, -209.868 197.992, -209.355 198.372, -208.841 198.749, -208.326 199.124, -207.809 199.497, -207.291 199.868, -206.771 200.238, -206.25 200.605, -205.728 200.97, -205.204 201.333, -204.679 201.694, -204.153 202.053, -203.625 202.41, -203.096 202.765, -202.566 203.118, -202.035 203.469, -201.502 203.818, -200.968 204.164, -200.433 204.509, -199.897 204.852, -199.359 205.192, -198.82 205.531, -198.28 205.867, -197.738 206.201, -197.196 206.534, -196.652 206.864, -196.108 207.192, -195.562 207.517, -195.014 207.841, -194.466 208.163, -193.916 208.483, -193.366 208.8, -192.814 209.115, -192.261 209.428, -191.707 209.739, -191.152 210.048, -190.596 210.355, -190.039 210.659, -189.48 210.962, -188.921 211.262, -188.36 211.56, -187.799 211.856, -187.237 212.15, -186.673 212.442, -186.109 212.731, -185.543 213.018, -184.976 213.304, -184.409 213.587, -183.84 213.867, -183.271 214.146, -182.701 214.422, -182.129 214.696, -181.557 214.968, -180.984 215.238, -180.409 215.506, -179.834 215.771, -179.258 216.034, -178.681 216.295, -178.104 216.554, -177.525 216.81, -176.945 217.065, -176.365 217.317, -175.784 217.567, -175.202 217.814, -174.619 218.06, -174.035 218.303, -173.451 218.544, -172.866 218.783, -172.28 219.019, -171.693 219.253, -171.105 219.485, -170.516 219.715, -169.927 219.942, -169.337 220.168, -168.747 220.39, -168.155 220.611, -167.563 220.829, -166.97 221.046, -166.377 221.26, -165.783 221.471, -165.188 221.681, -164.592 221.888, -163.996 222.093, -163.4 222.295, -162.802 222.496, -162.204 222.694, -161.605 222.89, -161.006 223.083, -160.406 223.275, -159.806 223.464, -159.205 223.65, -158.604 223.835, -158.001 224.017, -157.399 224.197, -156.795 224.374, -156.191 224.549, -155.587 224.722, -154.982 224.893, -154.377 225.061, -153.771 225.227, -153.165 225.391, -152.558 225.553, -151.951 225.712, -151.343 225.869, -150.735 226.024, -150.127 226.176, -149.518 226.326, -148.909 226.474, -148.299 226.619, -147.689 226.763, -147.078 226.904, -146.467 227.042, -145.856 227.178, -145.244 227.312, -144.632 227.444, -144.02 227.573, -143.407 227.7, -142.794 227.825, -142.181 227.948, -141.567 228.068, -140.953 228.186, -140.339 228.302, -139.725 228.415, -139.111 228.526, -138.496 228.635, -137.881 228.741, -137.265 228.846, -136.65 228.947, -136.034 229.047, -135.418 229.144, -134.802 229.239, -134.186 229.332, -133.569 229.422, -132.952 229.511, -132.336 229.596, -131.719 229.68, -131.101 229.761, -130.484 229.84, -129.867 229.917, -129.25 229.991, -128.632 230.064, -128.015 230.133, -127.397 230.201, -126.779 230.266, -126.161 230.329, -125.544 230.39, -124.926 230.449, -124.308 230.505, -123.69 230.559, -123.072 230.61, -122.454 230.66, -121.836 230.707, -121.219 230.752, -120.601 230.794, -119.983 230.835, -119.366 230.873, -118.748 230.909, -118.13 230.942, -117.513 230.974, -116.895 231.003, -116.278 231.029, -115.661 231.054, -115.044 231.076, -114.427 231.097, -113.81 231.114, -113.194 231.13, -112.577 231.143, -111.961 231.155, -111.345 231.164, -110.729 231.17, -110.113 231.175, -109.497 231.177, -108.882 231.177, -108.267 231.175, -107.652 231.171, -107.038 231.164, -106.423 231.155, -105.809 231.145, -105.195 231.131, -104.582 231.116, -103.969 231.099, -103.355 231.079, -102.743 231.057, -102.13 231.033, -101.518 231.006, -100.906 230.978, -100.295 230.947, -99.6842 230.915, -99.0735 230.88, -98.4632 230.842, -97.8531 230.803, -97.2435 230.762, -96.6344 230.718, -96.0257 230.672, -95.4175 230.624, -94.8097 230.574, -94.2023 230.522, -93.5952 230.468, -92.9885 230.411, -92.3823 230.353, -91.7767 230.292, -91.1716 230.229, -90.567 230.165, -89.9629 230.098, -89.3593 230.028, -88.7561 229.957, -88.1533 229.884, -87.551 229.808, -86.9494 229.731, -86.3484 229.651, -85.748 229.57, -85.1482 229.486, -84.5489 229.4, -83.9501 229.313, -83.3518 229.223, -82.7541 229.131, -82.1571 229.037, -81.5608 228.941, -80.9652 228.843, -80.3702 228.743, -79.7757 228.641, -79.1819 228.537, -78.5886 228.431, -77.996 228.323, -77.4042 228.213, -76.8131 228.101, -76.2227 227.987, -75.633 227.871, -75.044 227.753, -74.4557 227.633, -73.8679 227.51, -73.2809 227.386, -72.6947 227.26, -72.1093 227.133, -71.5247 227.003, -70.9408 226.871, -70.3577 226.737, -69.7754 226.602, -69.1936 226.464, -68.6128 226.325, -68.0328 226.184, -67.4536 226.04, -66.8754 225.895, -66.2979 225.748, -65.7213 225.6, -65.1454 225.449, -64.5702 225.296, -63.9959 225.142, -63.4226 224.985, -62.8501 224.827, -62.2786 224.667, -61.708 224.505, -61.1382 224.341, -60.5692 224.176, -60.0011 224.008, -59.4338 223.839, -58.8676 223.668, -58.3024 223.495, -57.7382 223.321, -57.1748 223.145, -56.6124 222.967, -56.0509 222.787, -55.4903 222.605, -54.9306 222.422, -54.372 222.237, -53.8144 222.05, -53.2578 221.861, -52.7022 221.671, -52.1476 221.479, -51.5939 221.285, -51.0412 221.09, -50.4894 220.893, -49.9388 220.694, -49.3893 220.493, -48.8409 220.291, -48.2935 220.088, -47.7471 219.882, -47.2017 219.675, -46.6573 219.466, -46.114 219.256, -45.5718 219.044, -45.0308 218.831, -44.4909 218.615, -43.9521 218.399, -43.4143 218.181, -42.8776 217.961, -42.342 217.739, -41.8074 217.516, -41.274 217.291, -40.7418 217.065, -40.2108 216.838, -39.6809 216.608, -39.1522 216.378, -38.6245 216.145, -38.0979 215.912, -37.5725 215.676, -37.0483 215.439, -36.5254 215.201, -36.0037 214.962, -35.4831 214.721, -34.9637 214.478, -34.4455 214.234, -33.9283 213.989, -33.4124 213.742, -32.8978 213.494, -32.3844 213.244, -31.8722 212.994, -31.3613 212.741, -30.8516 212.488, -30.3431 212.232, -29.8357 211.976, -29.3296 211.718, -28.8248 211.459, -28.3212 211.198, -27.819 210.937, -27.318 210.674, -26.8183 210.409, -26.3197 210.144, -25.8224 209.877, -25.3264 209.608, -24.8317 209.339, -24.3383 209.068, -23.8462 208.796, -23.3555 208.523, -22.866 208.249, -22.3778 207.974, -21.8908 207.697, -21.4051 207.419, -20.9207 207.14, -20.4378 206.86, -19.9561 206.578, -19.4758 206.296, -18.9968 206.012, -18.5191 205.727, -18.0427 205.442, -17.5675 205.154, -17.0938 204.866, -16.6214 204.577, -16.1504 204.287, -15.6808 203.996, -15.2124 203.703, -14.7454 203.41, -14.2797 203.115, -13.8154 202.82, -13.3524 202.523, -12.8908 202.226, -12.4307 201.928, -11.9719 201.628, -11.5144 201.328, -11.0583 201.027, -10.6035 200.725, -10.1501 200.421, -9.69805 200.117, -9.24745 199.812, -8.79824 199.507, -8.35042 199.2, -7.90397 198.892, -7.45888 198.584, -7.01513 198.275, -6.57274 197.964, -6.13179 197.653, -5.69226 197.342, -5.25413 197.029, -4.81741 196.716, -4.38206 196.402, -3.94809 196.087, -3.51548 195.771, -3.08424 195.455, -2.65443 195.138, -2.22605 194.82, -1.79909 194.501, -1.37352 194.182, -0.949354 193.863, -0.526564 193.542, -0.105143 193.221, 0.314896 192.899, 0.733504 192.576, 1.15069 192.253, 1.56646 191.929, 1.98083 191.605, 2.3938 191.28, 2.80539 190.955, 3.2156 190.628, 3.62443 190.302, 4.03184 189.975, 4.43783 189.647, 4.84241 189.319, 5.24559 188.99, 5.64738 188.661, 6.04778 188.332, 6.44681 188.002, 6.84445 187.671, 7.24069 187.34, 7.63552 187.008, 8.02895 186.677, 8.42099 186.345, 8.81165 186.012, 9.20093 185.679, 9.58883 185.346, 9.97537 185.012, 10.3605 184.678, 10.7443 184.344, 11.1267 184.009, 11.5077 183.674, 11.8873 183.339, 12.2655 183.004, 12.6424 182.668, 13.018 182.332, 13.3921 181.995, 13.7649 181.659, 14.1364 181.322, 14.5065 180.986, 14.8752 180.648, 15.2426 180.311, 15.6086 179.974, 15.9733 179.636, 16.3367 179.298, 16.6987 178.961, 17.0594 178.623, 17.4188 178.285, 17.7768 177.947, 18.1335 177.609, 18.4889 177.271, 18.8429 176.932, 19.1957 176.594, 19.5472 176.256, 19.8973 175.918, 20.2462 175.58, 20.5938 175.241, 20.94 174.903, 21.285 174.565, 21.6287 174.227, 21.9711 173.889, 22.3122 173.551, 22.6521 173.213, 22.9908 172.875, 23.3282 172.538, 23.6643 172.201, 23.9991 171.863, 24.3327 171.526, 24.6651 171.189, 24.9963 170.852, 25.3263 170.516, 25.655 170.18, 25.9825 169.844, 26.3088 169.508, 26.6339 169.172, 26.9577 168.837, 27.2804 168.502, 27.6019 168.167, 27.9223 167.833, 28.2416 167.499, 28.5596 167.165, 28.8765 166.831, 29.1921 166.498, 29.5066 166.165, 29.82 165.833, 30.1323 165.501, 30.4436 165.17, 30.7537 164.839, 31.0627 164.508, 31.3706 164.178, 31.6773 163.848, 31.9828 163.519, 32.2874 163.19, 32.591 162.862, 32.8935 162.534, 33.195 162.207, 33.4954 161.88, 33.7948 161.554, 34.093 161.229, 34.3902 160.903, 34.6864 160.579, 34.9818 160.255, 35.2761 159.932, 35.5695 159.61, 35.8619 159.288, 36.1533 158.967, 36.4436 158.646, 36.7329 158.326, 37.0213 158.007, 37.3089 157.688, 37.5957 157.37, 37.8815 157.053, 38.1664 156.737, 38.4503 156.421, 38.7333 156.106, 39.0153 155.792, 39.2965 155.478, 39.5769 155.166, 39.8565 154.854, 40.1353 154.543, 40.4133 154.233, 40.6905 153.924, 40.967 153.615, 41.2426 153.308, 41.5175 153.001, 41.7916 152.695, 42.0649 152.39, 42.3373 152.086, 42.609 151.783, 42.88 151.48, 43.1501 151.179, 43.4196 150.878, 43.6884 150.579, 43.9567 150.28, 44.2243 149.983, 44.4914 149.686, 44.7577 149.391, 45.0233 149.097, 45.2882 148.803, 45.5524 148.51, 45.8161 148.219, 46.0793 147.929, 46.342 147.639, 46.6042 147.351, 46.8658 147.064, 47.1267 146.778, 47.3871 146.493, 47.6467 146.208, 47.906 145.925, 48.1649 145.644, 48.4234 145.363, 48.6815 145.084, 48.9391 144.805, 49.1961 144.528, 49.4526 144.252, 49.7086 143.977, 49.9642 143.703, 50.2197 143.431, 50.4748 143.159, 50.7297 142.889, 50.9841 142.621, 51.2381 142.353, 51.4917 142.086, 51.7448 141.821, 51.9977 141.557, 52.2505 141.294, 52.5031 141.033, 52.7555 140.772, 53.0076 140.514, 53.2594 140.256, 53.5108 139.999, 53.7618 139.744, 54.0128 139.49, 54.2637 139.237, 54.5146 138.986, 54.7654 138.736, 55.016 138.487, 55.2664 138.24, 55.5166 137.994, 55.7664 137.749, 56.0163 137.505, 56.2663 137.263, 56.5164 137.022, 56.7665 136.783, 57.0165 136.545, 57.2664 136.308, 57.5162 136.073, 57.7658 135.839, 58.0155 135.606, 58.2654 135.375, 58.5155 135.145, 58.7658 134.917, 59.0161 134.689, 59.2664 134.464, 59.5166 134.239, 59.7668 134.016, 60.0172 133.794, 60.2679 133.574, 60.5189 133.355, 60.7702 133.138, 61.0216 132.922, 61.2731 132.707, 61.5247 132.493, 61.7763 132.281, 62.0282 132.071, 62.2806 131.862, 62.5334 131.654, 62.7865 131.447, 63.0399 131.242, 63.2935 131.039, 63.5474 130.837, 63.8013 130.636, 64.0557 130.436, 64.3106 130.238, 64.566 130.042, 64.8219 129.846, 65.0782 129.653, 65.3348 129.46, 65.5917 129.269, 65.8488 129.079, 66.1065 128.891, 66.3648 128.704, 66.6238 128.519, 66.8832 128.335, 67.1432 128.152, 67.4036 127.97, 67.6644 127.79, 67.9255 127.612, 68.1873 127.434, 68.4498 127.258, 68.713 127.084, 68.9768 126.91, 69.2412 126.738, 69.5062 126.568, 69.7717 126.399, 70.0377 126.231, 70.3043 126.064, 70.5716 125.899, 70.8397 125.735, 71.1085 125.573, 71.3781 125.411, 71.6485 125.251, 71.9197 125.092, 72.1917 124.935, 72.4644 124.779, 72.7378 124.624, 73.0118 124.47, 73.2865 124.317, 73.562 124.166, 73.8382 124.017, 74.1152 123.868, 74.3929 123.721, 74.6716 123.575, 74.9512 123.43, 75.2317 123.286, 75.5131 123.143, 75.7954 123.002, 76.0785 122.862, 76.3625 122.723, 76.6472 122.585, 76.9328 122.449, 77.2195 122.313, 77.5071 122.179, 77.7957 122.046, 78.0852 121.913, 78.3756 121.782, 78.667 121.652, 78.9592 121.524, 79.2524 121.396, 79.5466 121.27, 79.8419 121.144, 80.1382 121.019, 80.4355 120.896, 80.7339 120.773, 81.0332 120.652, 81.3334 120.531, 81.6347 120.412, 81.9371 120.294, 82.2406 120.176, 82.5452 120.06, 82.8508 119.944, 83.1575 119.829, 83.4652 119.716, 83.774 119.603, 84.0838 119.492, 84.3948 119.381, 84.7069 119.27, 85.0201 119.161, 85.3344 119.052, 85.6498 118.945, 85.9663 118.838, 86.2839 118.732, 86.6026 118.628, 86.9225 118.523, 87.2436 118.42, 87.5658 118.317, 87.8891 118.214, 88.2136 118.113, 88.5393 118.013, 88.8661 117.913, 89.194 117.814, 89.5231 117.716, 89.8535 117.618, 90.185 117.52, 90.5177 117.424, 90.8516 117.328, 91.1866 117.232, 91.5229 117.138, 91.8603 117.044, 92.199 116.951, 92.5389 116.858, 92.8799 116.765, 93.2222 116.673, 93.5657 116.582, 93.9104 116.491, 94.2562 116.401, 94.6033 116.311, 94.9516 116.222, 95.3011 116.133, 95.6518 116.044, 96.0037 115.956, 96.3569 115.868, 96.7112 115.781, 97.0668 115.694, 97.4236 115.608, 97.7816 115.521, 98.1408 115.435, 98.5012 115.349, 98.8629 115.264, 99.2258 115.178, 99.5899 115.094, 99.9553 115.009, 100.322 114.925, 100.69 114.841, 101.059 114.757, 101.429 114.673, 101.8 114.59, 102.173 114.506, 102.547 114.423, 102.922 114.34, 103.298 114.257, 103.676 114.174, 104.055 114.091, 104.434 114.008, 104.816 113.925, 105.198 113.843, 105.581 113.76, 105.966 113.677, 106.352 113.595, 106.739 113.512, 107.127 113.429, 107.516 113.346, 107.907 113.263, 108.299 113.18, 108.692 113.097, 109.086 113.014, 109.481 112.931, 109.878 112.847, 110.276 112.764, 110.675 112.68, 111.075 112.596, 111.476 112.512, 111.878 112.427, 112.282 112.343, 112.686 112.258, 113.092 112.172, 113.499 112.087, 113.907 112.001, 114.316 111.915, 114.726 111.829, 115.137 111.742, 115.55 111.655, 115.963 111.568, 116.378 111.48, 116.794 111.392, 117.21 111.303, 117.628 111.214, 118.047 111.125, 118.467 111.035, 118.888 110.945, 119.311 110.854, 119.734 110.763, 120.158 110.671, 120.583 110.578, 121.01 110.485, 121.437 110.392, 121.865 110.297, 122.295 110.203, 122.725 110.108, 123.157 110.012, 123.589 109.916, 124.022 109.819, 124.457 109.721, 124.892 109.623, 125.329 109.524, 125.766 109.424, 126.204 109.324, 126.644 109.223, 127.084 109.121, 127.525 109.019, 127.967 108.915, 128.41 108.811, 128.854 108.706, 129.298 108.601, 129.744 108.495, 130.191 108.388, 130.638 108.28, 131.087 108.171, 131.536 108.061, 131.986 107.951, 132.437 107.839, 132.889 107.727, 133.342 107.614, 133.795 107.5, 134.249 107.385, 134.704 107.269, 135.16 107.152, 135.617 107.034, 136.074 106.915, 136.532 106.796, 136.991 106.675, 137.451 106.553, 137.912 106.431, 138.373 106.307, 138.835 106.182, 139.298 106.056, 139.761 105.929, 140.225 105.802, 140.69 105.673, 141.156 105.543, 141.622 105.412, 142.089 105.279, 142.556 105.146, 143.025 105.011, 143.493 104.876, 143.963 104.739, 144.433 104.601, 144.904 104.462, 145.375 104.322, 145.847 104.18, 146.32 104.038, 146.793 103.894, 147.267 103.749, 147.741 103.602, 148.216 103.455, 148.691 103.306, 149.167 103.156, 149.644 103.005, 150.121 102.853, 150.598 102.699, 151.076 102.544, 151.554 102.387, 152.034 102.23, 152.513 102.071, 152.993 101.911, 153.473 101.749, 153.953 101.586, 154.435 101.422, 154.916 101.256, 155.398 101.089, 155.881 100.921, 156.363 100.751, 156.846 100.58, 157.33 100.407, 157.814 100.234, 158.298 100.058, 158.782 99.8815, 159.267 99.7034, 159.753 99.5239, 160.238 99.3429, 160.724 99.1605, 161.21 98.9765, 161.696 98.7912, 162.182 98.6043, 162.669 98.416, 163.156 98.2263, 163.644 98.0351, 164.131 97.8425, 164.619 97.6483, 165.107 97.4526, 165.595 97.2553, 166.083 97.0566, 166.572 96.8564, 167.061 96.6546, 167.55 96.4514, 168.039 96.2465, 168.528 96.0401, 169.017 95.8322, 169.506 95.6226, 169.995 95.4115, 170.484 95.1989, 170.974 94.9847, 171.464 94.769, 171.953 94.5517, 172.443 94.3327, 172.933 94.1122, 173.422 93.8901, 173.912 93.6664, 174.402 93.4411, 174.892 93.2142, 175.382 92.9857, 175.871 92.7555, 176.361 92.5237, 176.851 92.2903, 177.34 92.0553, 177.829 91.8186, 178.319 91.5803, 178.808 91.3403, 179.297 91.0987, 179.787 90.8554, 180.275 90.6105, 180.764 90.3639, 181.253 90.1156, 181.741 89.8657, 182.229 89.6141, 182.717 89.3608, 183.206 89.1059, 183.693 88.8493, 184.181 88.591, 184.668 88.331, 185.155 88.0694, 185.642 87.806, 186.128 87.5409, 186.615 87.2742, 187.101 87.0057, 187.587 86.7355, 188.072 86.4636, 188.557 86.19, 189.042 85.9147, 189.526 85.6376, 190.01 85.3589, 190.494 85.0784, 190.977 84.7962, 191.46 84.5123, 191.943 84.2266, 192.425 83.9393, 192.907 83.6502, 193.388 83.3594, 193.869 83.0669, 194.35 82.7726, 194.83 82.4766, 195.309 82.1788, 195.789 81.8794, 196.267 81.5782, 196.745 81.2752, 197.223 80.9706, 197.7 80.6641, 198.177 80.3559, 198.653 80.046, 199.129 79.7343, 199.604 79.4208, 200.078 79.1057, 200.552 78.7888, 201.025 78.4701, 201.498 78.1497, 201.97 77.8275, 202.441 77.5035, 202.912 77.1778, 203.382 76.8504, 203.852 76.5212, 204.32 76.1903, 204.789 75.8577, 205.256 75.5233, 205.723 75.1871, 206.189 74.8491, 206.655 74.5094, 207.119 74.168, 207.583 73.8249, 208.047 73.48, 208.509 73.1334, 208.971 72.785, 209.432 72.4348, 209.892 72.0828, 210.351 71.7291, 210.81 71.3737, 211.267 71.0166, 211.724 70.6577, 212.18 70.2971, 212.635 69.9347, 213.09 69.5705, 213.543 69.2046, 213.996 68.8369, 214.448 68.4676, 214.898 68.0965, 215.348 67.7237, 215.797 67.3492, 216.245 66.9729, 216.692 66.5949, 217.139 66.2151, 217.584 65.8336, 218.028 65.4504, 218.471 65.0656, 218.914 64.679, 219.355 64.2907, 219.795 63.9006, 220.235 63.5088, 220.673 63.1152, 221.11 62.72, 221.546 62.323, 221.981 61.9244, 222.415 61.5241, 222.848 61.1221, 223.28 60.7184, 223.711 60.313, 224.141 59.9058, 224.569 59.4969, 224.997 59.0864, 225.423 58.6743, 225.848 58.2605, 226.272 57.845, 226.695 57.4278, 227.117 57.0089, 227.537 56.5883, 227.957 56.166, 228.375 55.7421, 228.792 55.3165, 229.207 54.8893, 229.622 54.4605, 230.035 54.03, 230.447 53.5978, 230.857 53.1638, 231.267 52.7283, 231.675 52.2912, 232.082 51.8526, 232.488 51.4123, 232.892 50.9703, 233.295 50.5268, 233.697 50.0815, 234.097 49.6346, 234.496 49.1861, 234.894 48.7361, 235.29 48.2845, 235.685 47.8313, 236.079 47.3765, 236.471 46.92, 236.861 46.462, 237.251 46.0023, 237.639 45.541, 238.025 45.0783, 238.411 44.614, 238.794 44.1482, 239.176 43.6808, 239.557 43.2118, 239.936 42.7412, 240.314 42.269, 240.691 41.7953, 241.066 41.3202, 241.439 40.8435, 241.811 40.3654, 242.181 39.8857, 242.55 39.4045, 242.918 38.9217, 243.284 38.4374, 243.648 37.9515, 244.011 37.4643, 244.372 36.9756, 244.732 36.4854, 245.089 35.9938, 245.446 35.5006, 245.801 35.0059, 246.154 34.5097, 246.506 34.012, 246.856 33.513, 247.204 33.0126, 247.551 32.5107, 247.896 32.0075, 248.239 31.5027, 248.581 30.9965, 248.921 30.4888, 249.26 29.9797, 249.596 29.4693, 249.931 28.9575, 250.265 28.4443, 250.596 27.9298, 250.926 27.4139, 251.255 26.8965, 251.581 26.3776, 251.906 25.8575, 252.229 25.336, 252.55 24.8132, 252.87 24.2892, 253.187 23.7638, 253.503 23.237, 253.817 22.7088, 254.13 22.1793, 254.44 21.6484, 254.749 21.1163, 255.056 20.583, 255.361 20.0484, 255.665 19.5126, 255.966 18.9754, 256.266 18.4369, 256.564 17.897, 256.86 17.3559, 257.154 16.8137, 257.446 16.2702, 257.737 15.7255, 258.025 15.1796, 258.312 14.6325, 258.596 14.0841, 258.879 13.5343, 259.16 12.9834, 259.44 12.4314, 259.717 11.8782, 259.992 11.3239, 260.265 10.7685, 260.536 10.2118, 260.806 9.6539, 261.073 9.09476, 261.339 8.53446, 261.603 7.97311, 261.864 7.41068, 262.124 6.84717, 262.381 6.28256, 262.637 5.71684, 262.891 5.15, 263.142 4.58202, 263.392 4.01297, 263.639 3.44288, 263.885 2.87175, 264.128 2.29956, 264.37 1.72631, 264.609 1.15197, 264.847 0.576539, 265.082 6.49265e-014" fill="none" stroke="#FF0000" stroke-width="4" stroke-linecap="round" stroke-linejoin="round" transform="matrix(0.5 0 -0 0.5 225.433 210.051)" />
	<path d="M 255.56 -146.809 C 295.162 -77.8708, 212.848 43.7435, 71.7065 124.824, -69.4354 205.904, -215.958 215.747, -255.56 146.809, -295.162 77.8708, -212.848 -43.7435, -71.7065 -124.824, 69.4354 -205.904, 215.958 -215.748, 255.56 -146.809 Z" fill="none" stroke="#0050FF" stroke-width="5.33333349" stroke-linecap="round" stroke-linejoin="round" transform="matrix(0.5 0 0 0.5 225.432 210.051)" />
	<path d="M -66.3123 114.772 L 66.3123 -114.773" fill="none" stroke="#0E8700" stroke-width="4" stroke-linecap="round" stroke-linejoin="round" transform="matrix(0.5 0 0 0.5 258.588 152.665)" />
	<path d="M 48.717 28.1473 L -48.717 -28.1471" fill="none" stroke="#0E8700" stroke-width="4" stroke-linecap="round" stroke-linejoin="round" transform="matrix(0.5 0 0 0.5 316.623 109.652)" />
	<path d="M 5.39319 3.11618 L -5.39307 -3.11597" fill="none" stroke="#0E8700" stroke-width="2.66666675" stroke-linecap="round" stroke-linejoin="round" transform="matrix(0.5 0 0 0.5 291.167 102.502)" />
	<path d="M -3.11633 5.3934 L 3.11621 -5.39319" fill="none" stroke="#0E8700" stroke-width="2.66666675" stroke-linecap="round" stroke-linejoin="round" transform="matrix(0.5 0 0 0.5 295.422 101.444)" />
</svg>
