<?xml version="1.0"?>
<svg xmlns="http://www.w3.org/2000/svg" xmlns:xlink="http://www.w3.org/1999/xlink" width="449.444458" height="420.555573">
	<defs />
	<polyline points="0 0 318.099 0" fill="none" stroke="#000000" stroke-opacity="0.399999976" stroke-width="0.899999976" stroke-linecap="round" stroke-linejoin="round" stroke-dasharray="1.3545, 2.2455" transform="matrix(0.555556 0 -0 0.555556 225.432 210.051)" />
	<polyline points="0 0 275.482 -159.05" fill="none" stroke="#000000" stroke-opacity="0.399999976" stroke-width="0.899999976" stroke-linecap="round" stroke-linejoin="round" stroke-dasharray="1.3545, 2.2455" transform="matrix(0.555556 0 -0 0.555556 225.432 210.051)" />
	<polyline points="0 0 159.05 -275.482" fill="none" stroke="#000000" stroke-opacity="0.399999976" stroke-width="0.899999976" stroke-linecap="round" stroke-linejoin="round" stroke-dasharray="1.3545, 2.2455" transform="matrix(0.555556 0 -0 0.555556 225.432 210.051)" />
	<polyline points="0 0 -1.39046e-005 -318.099" fill="none" stroke="#000000" stroke-opacity="0.399999976" stroke-width="0.899999976" stroke-linecap="round" stroke-linejoin="round" stroke-dasharray="1.3545, 2.2455" transform="matrix(0.555556 0 -0 0.555556 225.432 210.051)" />
	<polyline points="0 0 -159.05 -275.482" fill="none" stroke="#000000" stroke-opacity="0.399999976" stroke-width="0.899999976" stroke-linecap="round" stroke-linejoin="round" stroke-dasharray="1.3545, 2.2455" transform="matrix(0.555556 0 -0 0.555556 225.432 210.051)" />
	<polyline points="0 0 -275.482 -159.05" fill="none" stroke="#000000" stroke-opacity="0.399999976" stroke-width="0.899999976" stroke-linecap="round" stroke-linejoin="round" stroke-dasharray="1.3545, 2.2455" transform="matrix(0.555556 0 -0 0.555556 225.432 210.051)" />
	<polyline points="0 0 -318.099 -4.80317e-005" fill="none" stroke="#000000" stroke-opacity="0.399999976" stroke-width="0.899999976" stroke-linecap="round" stroke-linejoin="round" stroke-dasharray="1.3545, 2.2455" transform="matrix(0.555556 0 -0 0.555556 225.432 210.051)" />
	<polyline points="0 0 -275.482 159.05" fill="none" stroke="#000000" stroke-opacity="0.399999976" stroke-width="0.899999976" stroke-linecap="round" stroke-linejoin="round" stroke-dasharray="1.3545, 2.2455" transform="matrix(0.555556 0 -0 0.555556 225.432 210.051)" />
	<polyline points="0 0 -159.05 275.482" fill="none" stroke="#000000" stroke-opacity="0.399999976" stroke-width="0.899999976" stroke-linecap="round" stroke-linejoin="round" stroke-dasharray="1.3545, 2.2455" transform="matrix(0.555556 0 -0 0.555556 225.432 210.051)" />
	<polyline points="0 0 -0.000147888 318.099" fill="none" stroke="#000000" stroke-opacity="0.399999976" stroke-width="0.899999976" stroke-linecap="round" stroke-linejoin="round" stroke-dasharray="1.3545, 2.2455" transform="matrix(0.555556 0 -0 0.555556 225.432 210.051)" />
	<polyline points="0 0 159.049 275.482" fill="none" stroke="#000000" stroke-opacity="0.399999976" stroke-width="0.899999976" stroke-linecap="round" stroke-linejoin="round" stroke-dasharray="1.3545, 2.2455" transform="matrix(0.555556 0 -0 0.555556 225.432 210.051)" />
	<polyline points="0 0 275.482 159.05" fill="none" stroke="#000000" stroke-opacity="0.399999976" stroke-width="0.899999976" stroke-linecap="round" stroke-linejoin="round" stroke-dasharray="1.3545, 2.2455" transform="matrix(0.555556 0 -0 0.555556 225.432 210.051)" />
	<polyline points="329.677 0 318.099 0" fill="none" stroke="#000000" stroke-width="2.4000001" stroke-linecap="round" stroke-linejoin="round" transform="matrix(0.555556 0 -0 0.555556 225.432 210.051)" />
	<polyline points="314.171 84.182 307.26 82.3301" fill="none" stroke="#000000" stroke-width="1.48319995" stroke-linecap="round" stroke-linejoin="round" transform="matrix(0.555556 0 -0 0.555556 225.432 210.051)" />
	<polyline points="285.509 -164.838 275.482 -159.05" fill="none" stroke="#000000" stroke-width="2.4000001" stroke-linecap="round" stroke-linejoin="round" transform="matrix(0.555556 0 -0 0.555556 225.432 210.051)" />
	<polyline points="314.171 -84.182 307.26 -82.3301" fill="none" stroke="#000000" stroke-width="1.48319995" stroke-linecap="round" stroke-linejoin="round" transform="matrix(0.555556 0 -0 0.555556 225.432 210.051)" />
	<polyline points="164.838 -285.509 159.05 -275.482" fill="none" stroke="#000000" stroke-width="2.4000001" stroke-linecap="round" stroke-linejoin="round" transform="matrix(0.555556 0 -0 0.555556 225.432 210.051)" />
	<polyline points="229.989 -229.989 224.93 -224.93" fill="none" stroke="#000000" stroke-width="1.48319995" stroke-linecap="round" stroke-linejoin="round" transform="matrix(0.555556 0 -0 0.555556 225.432 210.051)" />
	<polyline points="-1.44106e-005 -329.677 -1.39046e-005 -318.099" fill="none" stroke="#000000" stroke-width="2.4000001" stroke-linecap="round" stroke-linejoin="round" transform="matrix(0.555556 0 -0 0.555556 225.432 210.051)" />
	<polyline points="84.182 -314.171 82.3302 -307.26" fill="none" stroke="#000000" stroke-width="1.48319995" stroke-linecap="round" stroke-linejoin="round" transform="matrix(0.555556 0 -0 0.555556 225.432 210.051)" />
	<polyline points="-164.838 -285.509 -159.05 -275.482" fill="none" stroke="#000000" stroke-width="2.4000001" stroke-linecap="round" stroke-linejoin="round" transform="matrix(0.555556 0 -0 0.555556 225.432 210.051)" />
	<polyline points="-84.182 -314.171 -82.3302 -307.26" fill="none" stroke="#000000" stroke-width="1.48319995" stroke-linecap="round" stroke-linejoin="round" transform="matrix(0.555556 0 -0 0.555556 225.432 210.051)" />
	<polyline points="-285.509 -164.838 -275.482 -159.05" fill="none" stroke="#000000" stroke-width="2.4000001" stroke-linecap="round" stroke-linejoin="round" transform="matrix(0.555556 0 -0 0.555556 225.432 210.051)" />
	<polyline points="-229.989 -229.989 -224.93 -224.93" fill="none" stroke="#000000" stroke-width="1.48319995" stroke-linecap="round" stroke-linejoin="round" transform="matrix(0.555556 0 -0 0.555556 225.432 210.051)" />
	<polyline points="-329.677 -4.97798e-005 -318.099 -4.80317e-005" fill="none" stroke="#000000" stroke-width="2.4000001" stroke-linecap="round" stroke-linejoin="round" transform="matrix(0.555556 0 -0 0.555556 225.432 210.051)" />
	<polyline points="-314.171 -84.182 -307.26 -82.3302" fill="none" stroke="#000000" stroke-width="1.48319995" stroke-linecap="round" stroke-linejoin="round" transform="matrix(0.555556 0 -0 0.555556 225.432 210.051)" />
	<polyline points="-285.509 164.838 -275.482 159.05" fill="none" stroke="#000000" stroke-width="2.4000001" stroke-linecap="round" stroke-linejoin="round" transform="matrix(0.555556 0 -0 0.555556 225.432 210.051)" />
	<polyline points="-314.171 84.1819 -307.26 82.3301" fill="none" stroke="#000000" stroke-width="1.48319995" stroke-linecap="round" stroke-linejoin="round" transform="matrix(0.555556 0 -0 0.555556 225.432 210.051)" />
	<polyline points="-164.839 285.508 -159.05 275.482" fill="none" stroke="#000000" stroke-width="2.4000001" stroke-linecap="round" stroke-linejoin="round" transform="matrix(0.555556 0 -0 0.555556 225.432 210.051)" />
	<polyline points="-229.99 229.989 -224.93 224.93" fill="none" stroke="#000000" stroke-width="1.48319995" stroke-linecap="round" stroke-linejoin="round" transform="matrix(0.555556 0 -0 0.555556 225.432 210.051)" />
	<polyline points="-0.000153271 329.677 -0.000147888 318.099" fill="none" stroke="#000000" stroke-width="2.4000001" stroke-linecap="round" stroke-linejoin="round" transform="matrix(0.555556 0 -0 0.555556 225.432 210.051)" />
	<polyline points="-84.1821 314.171 -82.3303 307.26" fill="none" stroke="#000000" stroke-width="1.48319995" stroke-linecap="round" stroke-linejoin="round" transform="matrix(0.555556 0 -0 0.555556 225.432 210.051)" />
	<polyline points="164.838 285.509 159.049 275.482" fill="none" stroke="#000000" stroke-width="2.4000001" stroke-linecap="round" stroke-linejoin="round" transform="matrix(0.555556 0 -0 0.555556 225.432 210.051)" />
	<polyline points="84.1818 314.171 82.33 307.26" fill="none" stroke="#000000" stroke-width="1.48319995" stroke-linecap="round" stroke-linejoin="round" transform="matrix(0.555556 0 -0 0.555556 225.432 210.051)" />
	<polyline points="285.508 164.839 275.482 159.05" fill="none" stroke="#000000" stroke-width="2.4000001" stroke-linecap="round" stroke-linejoin="round" transform="matrix(0.555556 0 -0 0.555556 225.432 210.051)" />
	<polyline points="229.989 229.99 224.93 224.93" fill="none" stroke="#000000" stroke-width="1.48319995" stroke-linecap="round" stroke-linejoin="round" transform="matrix(0.555556 0 -0 0.555556 225.432 210.051)" />
	<text font-family="TIMES NEW ROMAN" font-size="28.9440002" fill="#000000" dominant-baseline="middle" text-anchor="start" x="339.121094" y="2.95206189" transform="matrix(0.555556 0 -0 0.555556 225.432 210.051)">0°</text>
	<text font-family="TIMES NEW ROMAN" font-size="28.9440002" fill="#000000" dominant-baseline="middle" text-anchor="start" x="293.687469" y="-166.498962" transform="matrix(0.555556 0 -0 0.555556 225.432 210.051)">30°</text>
	<text font-family="TIMES NEW ROMAN" font-size="28.9440002" fill="#000000" dominant-baseline="middle" text-anchor="start" x="169.560547" y="-290.545746" transform="matrix(0.555556 0 -0 0.555556 225.432 210.051)">60°</text>
	<text font-family="TIMES NEW ROMAN" font-size="28.9440002" fill="#000000" dominant-baseline="middle" text-anchor="middle" x="4.7221117" y="-345.175171" transform="matrix(0.555556 0 -0 0.555556 225.432 210.051)">90°</text>
	<text font-family="TIMES NEW ROMAN" font-size="28.9440002" fill="#000000" dominant-baseline="middle" text-anchor="end" x="-170.627258" y="-290.545715" transform="matrix(0.555556 0 -0 0.555556 225.432 210.051)">120°</text>
	<text font-family="TIMES NEW ROMAN" font-size="28.9440002" fill="#000000" dominant-baseline="middle" text-anchor="end" x="-294.75415" y="-166.498978" transform="matrix(0.555556 0 -0 0.555556 225.432 210.051)">150°</text>
	<text font-family="TIMES NEW ROMAN" font-size="28.9440002" fill="#000000" dominant-baseline="middle" text-anchor="end" x="-340.187775" y="2.95201087" transform="matrix(0.555556 0 -0 0.555556 225.432 210.051)">180°</text>
	<text font-family="TIMES NEW ROMAN" font-size="28.9440002" fill="#000000" dominant-baseline="middle" text-anchor="end" x="-294.754211" y="172.403015" transform="matrix(0.555556 0 -0 0.555556 225.432 210.051)">210°</text>
	<text font-family="TIMES NEW ROMAN" font-size="28.9440002" fill="#000000" dominant-baseline="middle" text-anchor="end" x="-170.627335" y="296.449768" transform="matrix(0.555556 0 -0 0.555556 225.432 210.051)">240°</text>
	<text font-family="TIMES NEW ROMAN" font-size="28.9440002" fill="#000000" dominant-baseline="middle" text-anchor="middle" x="4.72196865" y="351.079285" transform="matrix(0.555556 0 -0 0.555556 225.432 210.051)">270°</text>
	<text font-family="TIMES NEW ROMAN" font-size="28.9440002" fill="#000000" dominant-baseline="middle" text-anchor="start" x="169.560379" y="296.449921" transform="matrix(0.555556 0 -0 0.555556 225.432 210.051)">300°</text>
	<text font-family="TIMES NEW ROMAN" font-size="28.9440002" fill="#000000" dominant-baseline="middle" text-anchor="start" x="293.687378" y="172.403275" transform="matrix(0.555556 0 -0 0.555556 225.432 210.051)">330°</text>
	<path d="M 79.5248 -0 C 79.5248 43.9203, 43.9203 79.5248, -0 79.5248, -43.9203 79.5248, -79.5248 43.9203, -79.5248 -0, -79.5248 -43.9203, -43.9203 -79.5248, -0 -79.5248, 43.9203 -79.5248, 79.5248 -43.9203, 79.5248 -0 Z" fill="none" stroke="#000000" stroke-opacity="0.399999976" stroke-width="0.899999976" stroke-linecap="round" stroke-linejoin="round" stroke-dasharray="1.3545, 2.2455" transform="matrix(0.555556 0 -0 0.555556 225.432 210.051)" />
	<path d="M 159.05 -0 C 159.05 87.8407, 87.8407 159.05, -0 159.05, -87.8407 159.05, -159.05 87.8407, -159.05 -0, -159.05 -87.8407, -87.8407 -159.05, -0 -159.05, 87.8407 -159.05, 159.05 -87.8407, 159.05 -0 Z" fill="none" stroke="#000000" stroke-opacity="0.399999976" stroke-width="0.899999976" stroke-linecap="round" stroke-linejoin="round" stroke-dasharray="1.3545, 2.2455" transform="matrix(0.555556 0 -0 0.555556 225.432 210.051)" />
	<path d="M 238.574 -0 C 238.574 131.761, 131.761 238.574, -0 238.574, -131.761 238.574, -238.574 131.761, -238.574 -0, -238.574 -131.761, -131.761 -238.574, -0 -238.574, 131.761 -238.574, 238.574 -131.761, 238.574 -0 Z" fill="none" stroke="#000000" stroke-opacity="0.399999976" stroke-width="0.899999976" stroke-linecap="round" stroke-linejoin="round" stroke-dasharray="1.3545, 2.2455" transform="matrix(0.555556 0 -0 0.555556 225.432 210.051)" />
	<polyline points="0 -0 -11.5776 -0" fill="none" stroke="#000000" stroke-width="2.4000001" stroke-linecap="round" stroke-linejoin="round" transform="matrix(0.555556 -2.42841e-008 2.42841e-008 0.555556 225.432 210.051)" />
	<text font-family="TIMES NEW ROMAN" font-size="28.9440002" fill="#000000" dominant-baseline="middle" text-anchor="end" x="-21.7080021" y="2.95206189" transform="matrix(0.555556 -2.42841e-008 2.42841e-008 0.555556 225.432 210.051)">0.0</text>
	<polyline points="0 -39.7624 -7.15496 -39.7624" fill="none" stroke="#000000" stroke-width="1.48319995" stroke-linecap="round" stroke-linejoin="round" transform="matrix(0.555556 -2.42841e-008 2.42841e-008 0.555556 225.432 210.051)" />
	<polyline points="0 -79.5248 -11.5776 -79.5248" fill="none" stroke="#000000" stroke-width="2.4000001" stroke-linecap="round" stroke-linejoin="round" transform="matrix(0.555556 -2.42841e-008 2.42841e-008 0.555556 225.432 210.051)" />
	<text font-family="TIMES NEW ROMAN" font-size="28.9440002" fill="#000000" dominant-baseline="middle" text-anchor="end" x="-21.7080021" y="-76.5727463" transform="matrix(0.555556 -2.42841e-008 2.42841e-008 0.555556 225.432 210.051)">1.5</text>
	<polyline points="0 -119.287 -7.15496 -119.287" fill="none" stroke="#000000" stroke-width="1.48319995" stroke-linecap="round" stroke-linejoin="round" transform="matrix(0.555556 -2.42841e-008 2.42841e-008 0.555556 225.432 210.051)" />
	<polyline points="0 -159.05 -11.5776 -159.05" fill="none" stroke="#000000" stroke-width="2.4000001" stroke-linecap="round" stroke-linejoin="round" transform="matrix(0.555556 -2.42841e-008 2.42841e-008 0.555556 225.432 210.051)" />
	<text font-family="TIMES NEW ROMAN" font-size="28.9440002" fill="#000000" dominant-baseline="middle" text-anchor="end" x="-21.7080021" y="-156.097565" transform="matrix(0.555556 -2.42841e-008 2.42841e-008 0.555556 225.432 210.051)">3.0</text>
	<polyline points="0 -198.812 -7.15496 -198.812" fill="none" stroke="#000000" stroke-width="1.48319995" stroke-linecap="round" stroke-linejoin="round" transform="matrix(0.555556 -2.42841e-008 2.42841e-008 0.555556 225.432 210.051)" />
	<polyline points="0 -238.574 -11.5776 -238.574" fill="none" stroke="#000000" stroke-width="2.4000001" stroke-linecap="round" stroke-linejoin="round" transform="matrix(0.555556 -2.42841e-008 2.42841e-008 0.555556 225.432 210.051)" />
	<text font-family="TIMES NEW ROMAN" font-size="28.9440002" fill="#000000" dominant-baseline="middle" text-anchor="end" x="-21.7080021" y="-235.622375" transform="matrix(0.555556 -2.42841e-008 2.42841e-008 0.555556 225.432 210.051)">4.5</text>
	<polyline points="0 -278.337 -7.15496 -278.337" fill="none" stroke="#000000" stroke-width="1.48319995" stroke-linecap="round" stroke-linejoin="round" transform="matrix(0.555556 -2.42841e-008 2.42841e-008 0.555556 225.432 210.051)" />
	<polyline points="0 -318.099 -11.5776 -318.099" fill="none" stroke="#000000" stroke-width="2.4000001" stroke-linecap="round" stroke-linejoin="round" transform="matrix(0.555556 -2.42841e-008 2.42841e-008 0.555556 225.432 210.051)" />
	<text font-family="TIMES NEW ROMAN" font-size="28.9440002" fill="#000000" dominant-baseline="middle" text-anchor="end" x="-21.7080021" y="-315.147186" transform="matrix(0.555556 -2.42841e-008 2.42841e-008 0.555556 225.432 210.051)">6.0</text>
	<polyline points="0 0 0 -318.099" fill="none" stroke="#000000" stroke-width="2.4000001" stroke-linecap="round" stroke-linejoin="round" transform="matrix(0.555556 -2.42841e-008 2.42841e-008 0.555556 225.432 210.051)" />
	<path d="M 318.099 -0 C 318.099 175.681, 175.681 318.099, -0 318.099, -175.681 318.099, -318.099 175.681, -318.099 -0, -318.099 -175.681, -175.681 -318.099, -0 -318.099, 175.681 -318.099, 318.099 -175.681, 318.099 -0 Z" fill="none" stroke="#000000" stroke-width="2.4000001" stroke-linecap="round" stroke-linejoin="round" transform="matrix(0.555556 0 -0 0.555556 225.432 210.051)" />
	<path d="M 238.574 -0 L 238.785 -0.519806, 238.993 -1.04045, 239.199 -1.56194, 239.403 -2.0843, 239.606 -2.60752, 239.807 -3.13164, 240.006 -3.65665, 240.202 -4.18258, 240.398 -4.70937, 240.591 -5.23697, 240.782 -5.76538, 240.971 -6.29463, 241.159 -6.82472, 241.344 -7.35567, 241.528 -7.88749, 241.71 -8.4202, 241.89 -8.9537, 242.068 -9.4879, 242.244 -10.0228, 242.418 -10.5585, 242.59 -11.0949, 242.76 -11.6322, 242.928 -12.1702, 243.094 -12.7091, 243.259 -13.2487, 243.421 -13.789, 243.581 -14.3299, 243.74 -14.8715, 243.896 -15.4138, 244.05 -15.9569, 244.203 -16.5007, 244.353 -17.0452, 244.502 -17.5905, 244.648 -18.1364, 244.792 -18.6828, 244.935 -19.2299, 245.075 -19.7776, 245.214 -20.326, 245.35 -20.875, 245.485 -21.4248, 245.617 -21.9752, 245.748 -22.5261, 245.876 -23.0776, 246.003 -23.6296, 246.127 -24.1821, 246.249 -24.7353, 246.369 -25.2891, 246.487 -25.8436, 246.603 -26.3986, 246.717 -26.954, 246.829 -27.51, 246.939 -28.0664, 247.047 -28.6233, 247.153 -29.1807, 247.257 -29.7388, 247.358 -30.2974, 247.458 -30.8565, 247.556 -31.416, 247.651 -31.9759, 247.745 -32.5362, 247.836 -33.097, 247.925 -33.6582, 248.012 -34.2199, 248.097 -34.7821, 248.18 -35.3448, 248.261 -35.9078, 248.34 -36.4711, 248.416 -37.0348, 248.491 -37.5988, 248.563 -38.1632, 248.634 -38.7281, 248.702 -39.2934, 248.768 -39.8591, 248.832 -40.425, 248.894 -40.9912, 248.954 -41.5577, 249.011 -42.1245, 249.067 -42.6916, 249.12 -43.259, 249.171 -43.8269, 249.221 -44.3951, 249.268 -44.9634, 249.312 -45.5319, 249.355 -46.1006, 249.396 -46.6696, 249.434 -47.2388, 249.47 -47.8083, 249.504 -48.3782, 249.536 -48.9483, 249.566 -49.5185, 249.594 -50.0888, 249.62 -50.6593, 249.643 -51.2299, 249.664 -51.8007, 249.683 -52.3717, 249.7 -52.9429, 249.715 -53.5143, 249.728 -54.0859, 249.738 -54.6575, 249.747 -55.2291, 249.753 -55.8009, 249.757 -56.3727, 249.759 -56.9446, 249.758 -57.5166, 249.756 -58.0886, 249.751 -58.6607, 249.744 -59.2328, 249.735 -59.805, 249.724 -60.3773, 249.711 -60.9496, 249.695 -61.522, 249.678 -62.0945, 249.658 -62.6669, 249.636 -63.2393, 249.611 -63.8116, 249.585 -64.3837, 249.556 -64.9559, 249.526 -65.528, 249.493 -66.1001, 249.458 -66.6723, 249.421 -67.2444, 249.381 -67.8164, 249.34 -68.3882, 249.296 -68.9599, 249.25 -69.5314, 249.202 -70.1028, 249.152 -70.6742, 249.099 -71.2455, 249.045 -71.8168, 248.988 -72.3878, 248.929 -72.9585, 248.868 -73.529, 248.804 -74.0993, 248.739 -74.6695, 248.671 -75.2395, 248.601 -75.8094, 248.529 -76.3791, 248.455 -76.9486, 248.378 -77.5177, 248.3 -78.0865, 248.219 -78.6551, 248.136 -79.2234, 248.051 -79.7915, 247.964 -80.3595, 247.874 -80.9272, 247.783 -81.4945, 247.689 -82.0615, 247.593 -82.6281, 247.495 -83.1943, 247.395 -83.7602, 247.292 -84.3259, 247.188 -84.8913, 247.081 -85.4564, 246.972 -86.0211, 246.861 -86.5853, 246.748 -87.149, 246.633 -87.7124, 246.515 -88.2753, 246.395 -88.8379, 246.274 -89.4002, 246.15 -89.9622, 246.023 -90.5236, 245.895 -91.0844, 245.765 -91.6448, 245.632 -92.2047, 245.497 -92.7641, 245.361 -93.3231, 245.222 -93.8817, 245.08 -94.4399, 244.937 -94.9974, 244.791 -95.5544, 244.644 -96.1108, 244.494 -96.6666, 244.342 -97.2219, 244.188 -97.7767, 244.032 -98.3311, 243.874 -98.8849, 243.713 -99.4381, 243.551 -99.9907, 243.386 -100.543, 243.22 -101.094, 243.051 -101.645, 242.88 -102.195, 242.707 -102.744, 242.532 -103.293, 242.354 -103.842, 242.175 -104.389, 241.994 -104.936, 241.81 -105.482, 241.625 -106.027, 241.437 -106.572, 241.247 -107.117, 241.055 -107.66, 240.861 -108.203, 240.665 -108.745, 240.467 -109.286, 240.267 -109.827, 240.064 -110.366, 239.86 -110.905, 239.653 -111.444, 239.445 -111.981, 239.234 -112.518, 239.022 -113.054, 238.807 -113.589, 238.59 -114.123, 238.371 -114.657, 238.15 -115.189, 237.928 -115.721, 237.702 -116.252, 237.475 -116.782, 237.246 -117.312, 237.015 -117.84, 236.782 -118.367, 236.547 -118.894, 236.31 -119.419, 236.071 -119.944, 235.829 -120.468, 235.586 -120.992, 235.341 -121.514, 235.094 -122.035, 234.845 -122.555, 234.594 -123.074, 234.341 -123.593, 234.086 -124.11, 233.829 -124.626, 233.569 -125.142, 233.308 -125.656, 233.045 -126.17, 232.78 -126.682, 232.513 -127.193, 232.244 -127.704, 231.973 -128.213, 231.7 -128.721, 231.426 -129.229, 231.149 -129.735, 230.87 -130.24, 230.59 -130.744, 230.307 -131.247, 230.023 -131.749, 229.736 -132.25, 229.448 -132.749, 229.158 -133.248, 228.866 -133.746, 228.572 -134.242, 228.276 -134.737, 227.978 -135.231, 227.678 -135.724, 227.377 -136.216, 227.073 -136.707, 226.768 -137.196, 226.461 -137.685, 226.152 -138.172, 225.841 -138.657, 225.528 -139.142, 225.213 -139.626, 224.897 -140.108, 224.579 -140.589, 224.258 -141.069, 223.936 -141.548, 223.612 -142.025, 223.287 -142.501, 222.959 -142.976, 222.63 -143.449, 222.299 -143.921, 221.966 -144.393, 221.631 -144.862, 221.295 -145.331, 220.957 -145.798, 220.617 -146.264, 220.275 -146.728, 219.932 -147.191, 219.586 -147.653, 219.239 -148.114, 218.89 -148.573, 218.54 -149.031, 218.187 -149.488, 217.833 -149.943, 217.478 -150.396, 217.12 -150.849, 216.761 -151.3, 216.4 -151.749, 216.037 -152.198, 215.673 -152.644, 215.307 -153.09, 214.939 -153.533, 214.57 -153.976, 214.199 -154.417, 213.826 -154.857, 213.452 -155.295, 213.076 -155.732, 212.698 -156.167, 212.319 -156.601, 211.938 -157.033, 211.555 -157.464, 211.171 -157.893, 210.785 -158.321, 210.397 -158.747, 210.008 -159.172, 209.617 -159.596, 209.225 -160.017, 208.831 -160.438, 208.436 -160.856, 208.039 -161.273, 207.64 -161.689, 207.24 -162.104, 206.838 -162.516, 206.435 -162.927, 206.03 -163.337, 205.624 -163.745, 205.216 -164.151, 204.807 -164.556, 204.396 -164.959, 203.984 -165.36, 203.57 -165.76, 203.154 -166.159, 202.737 -166.555, 202.319 -166.95, 201.899 -167.344, 201.478 -167.736, 201.055 -168.126, 200.631 -168.515, 200.205 -168.901, 199.778 -169.287, 199.349 -169.67, 198.919 -170.052, 198.488 -170.432, 198.055 -170.811, 197.621 -171.188, 197.185 -171.563, 196.748 -171.937, 196.309 -172.308, 195.869 -172.678, 195.428 -173.047, 194.986 -173.413, 194.542 -173.778, 194.097 -174.141, 193.65 -174.503, 193.202 -174.863, 192.753 -175.221, 192.302 -175.577, 191.85 -175.932, 191.397 -176.284, 190.943 -176.635, 190.487 -176.985, 190.03 -177.332, 189.571 -177.678, 189.112 -178.022, 188.651 -178.364, 188.189 -178.705, 187.726 -179.043, 187.261 -179.38, 186.795 -179.715, 186.328 -180.048, 185.86 -180.38, 185.39 -180.709, 184.92 -181.037, 184.448 -181.363, 183.975 -181.687, 183.501 -182.009, 183.025 -182.329, 182.548 -182.648, 182.071 -182.965, 181.592 -183.279, 181.112 -183.592, 180.631 -183.903, 180.149 -184.213, 179.665 -184.52, 179.181 -184.826, 178.695 -185.129, 178.209 -185.431, 177.721 -185.731, 177.232 -186.029, 176.742 -186.325, 176.251 -186.62, 175.76 -186.912, 175.267 -187.202, 174.772 -187.491, 174.277 -187.778, 173.781 -188.062, 173.284 -188.345, 172.786 -188.626, 172.287 -188.905, 171.787 -189.182, 171.286 -189.457, 170.784 -189.73, 170.281 -190.001, 169.777 -190.271, 169.272 -190.538, 168.766 -190.803, 168.26 -191.067, 167.752 -191.328, 167.243 -191.588, 166.734 -191.845, 166.224 -192.101, 165.712 -192.355, 165.2 -192.606, 164.687 -192.856, 164.174 -193.104, 163.659 -193.35, 163.144 -193.593, 162.627 -193.835, 162.11 -194.075, 161.592 -194.313, 161.073 -194.549, 160.553 -194.782, 160.033 -195.014, 159.512 -195.244, 158.99 -195.472, 158.467 -195.698, 157.944 -195.922, 157.419 -196.144, 156.895 -196.364, 156.369 -196.581, 155.843 -196.797, 155.316 -197.011, 154.788 -197.223, 154.259 -197.433, 153.73 -197.641, 153.2 -197.846, 152.669 -198.05, 152.138 -198.252, 151.606 -198.451, 151.074 -198.649, 150.54 -198.844, 150.007 -199.038, 149.472 -199.229, 148.937 -199.419, 148.401 -199.606, 147.865 -199.792, 147.328 -199.975, 146.791 -200.156, 146.253 -200.336, 145.715 -200.513, 145.175 -200.688, 144.636 -200.862, 144.096 -201.033, 143.555 -201.202, 143.014 -201.369, 142.472 -201.534, 141.93 -201.696, 141.387 -201.857, 140.844 -202.016, 140.3 -202.173, 139.756 -202.327, 139.212 -202.48, 138.667 -202.63, 138.122 -202.779, 137.576 -202.925, 137.029 -203.069, 136.482 -203.212, 135.935 -203.352, 135.388 -203.49, 134.84 -203.626, 134.292 -203.76, 133.744 -203.892, 133.195 -204.022, 132.645 -204.15, 132.095 -204.276, 131.545 -204.4, 130.995 -204.521, 130.445 -204.641, 129.894 -204.758, 129.342 -204.874, 128.791 -204.987, 128.239 -205.098, 127.687 -205.208, 127.134 -205.315, 126.582 -205.42, 126.029 -205.523, 125.476 -205.624, 124.923 -205.723, 124.37 -205.82, 123.816 -205.915, 123.262 -206.007, 122.708 -206.098, 122.153 -206.187, 121.599 -206.273, 121.045 -206.358, 120.49 -206.44, 119.935 -206.52, 119.38 -206.599, 118.824 -206.675, 118.269 -206.749, 117.714 -206.821, 117.158 -206.891, 116.603 -206.959, 116.047 -207.025, 115.491 -207.089, 114.935 -207.151, 114.379 -207.211, 113.823 -207.269, 113.267 -207.324, 112.711 -207.378, 112.156 -207.43, 111.6 -207.479, 111.043 -207.527, 110.487 -207.572, 109.931 -207.616, 109.375 -207.657, 108.819 -207.696, 108.263 -207.734, 107.707 -207.769, 107.151 -207.802, 106.595 -207.833, 106.04 -207.863, 105.484 -207.89, 104.928 -207.915, 104.373 -207.938, 103.817 -207.959, 103.262 -207.978, 102.707 -207.995, 102.152 -208.01, 101.597 -208.024, 101.042 -208.035, 100.487 -208.044, 99.933 -208.051, 99.3787 -208.056, 98.8246 -208.059, 98.2707 -208.06, 97.7171 -208.059, 97.1636 -208.056, 96.6104 -208.051, 96.0574 -208.044, 95.5047 -208.035, 94.9521 -208.025, 94.3998 -208.012, 93.8477 -207.997, 93.2959 -207.98, 92.7442 -207.962, 92.1928 -207.941, 91.6417 -207.918, 91.0911 -207.893, 90.5407 -207.867, 89.9907 -207.838, 89.441 -207.808, 88.8916 -207.775, 88.3424 -207.741, 87.7935 -207.704, 87.2451 -207.666, 86.6971 -207.626, 86.1495 -207.584, 85.6023 -207.54, 85.0554 -207.494, 84.5089 -207.446, 83.9628 -207.396, 83.4169 -207.344, 82.8716 -207.291, 82.3268 -207.235, 81.7824 -207.178, 81.2385 -207.118, 80.695 -207.057, 80.1519 -206.994, 79.6092 -206.929, 79.0669 -206.862, 78.5252 -206.793, 77.984 -206.723, 77.4434 -206.65, 76.9033 -206.576, 76.3637 -206.499, 75.8245 -206.421, 75.2859 -206.341, 74.7476 -206.259, 74.21 -206.176, 73.6731 -206.09, 73.1367 -206.003, 72.6009 -205.914, 72.0657 -205.823, 71.531 -205.731, 70.9967 -205.636, 70.4631 -205.54, 69.9301 -205.441, 69.3978 -205.341, 68.8661 -205.24, 68.3351 -205.136, 67.8047 -205.031, 67.2749 -204.924, 66.7456 -204.815, 66.2169 -204.704, 65.689 -204.592, 65.1618 -204.477, 64.6353 -204.361, 64.1095 -204.244, 63.5844 -204.124, 63.0599 -204.003, 62.536 -203.88, 62.0128 -203.756, 61.4904 -203.629, 60.9689 -203.501, 60.448 -203.372, 59.928 -203.24, 59.4086 -203.107, 58.89 -202.972, 58.372 -202.836, 57.8547 -202.697, 57.3383 -202.558, 56.8227 -202.416, 56.3079 -202.273, 55.7939 -202.128, 55.2807 -201.981, 54.7683 -201.833, 54.2566 -201.683, 53.7456 -201.532, 53.2356 -201.379, 52.7265 -201.224, 52.2182 -201.068, 51.7108 -200.91, 51.2042 -200.751, 50.6985 -200.59, 50.1935 -200.427, 49.6893 -200.263, 49.1861 -200.097, 48.6838 -199.929, 48.1824 -199.76, 47.6819 -199.59, 47.1824 -199.418, 46.6836 -199.244, 46.1857 -199.069, 45.6887 -198.892, 45.1926 -198.714, 44.6976 -198.535, 44.2035 -198.353, 43.7104 -198.171, 43.2182 -197.987, 42.7269 -197.801, 42.2365 -197.614, 41.747 -197.425, 41.2585 -197.235, 40.7711 -197.044, 40.2847 -196.851, 39.7993 -196.657, 39.3148 -196.461, 38.8313 -196.264, 38.3487 -196.065, 37.8671 -195.865, 37.3865 -195.664, 36.907 -195.461, 36.4286 -195.257, 35.9512 -195.051, 35.4748 -194.844, 34.9994 -194.636, 34.525 -194.426, 34.0516 -194.215, 33.5793 -194.002, 33.1081 -193.789, 32.638 -193.574, 32.1689 -193.358, 31.701 -193.14, 31.234 -192.921, 30.7681 -192.701, 30.3032 -192.479, 29.8395 -192.257, 29.3769 -192.033, 28.9154 -191.807, 28.455 -191.581, 27.9957 -191.353, 27.5375 -191.124, 27.0804 -190.894, 26.6243 -190.663, 26.1693 -190.43, 25.7156 -190.196, 25.263 -189.961, 24.8115 -189.725, 24.3612 -189.488, 23.912 -189.249, 23.4639 -189.01, 23.0168 -188.769, 22.571 -188.527, 22.1264 -188.284, 21.6829 -188.039, 21.2406 -187.794, 20.7995 -187.548, 20.3596 -187.301, 19.9207 -187.052, 19.483 -186.802, 19.0465 -186.552, 18.6112 -186.3, 18.1771 -186.047, 17.7442 -185.794, 17.3126 -185.539, 16.882 -185.283, 16.4527 -185.026, 16.0244 -184.768, 15.5974 -184.51, 15.1717 -184.25, 14.7472 -183.989, 14.3239 -183.727, 13.9018 -183.465, 13.4809 -183.201, 13.0612 -182.937, 12.6426 -182.671, 12.2253 -182.405, 11.8093 -182.137, 11.3945 -181.869, 10.981 -181.6, 10.5687 -181.331, 10.1576 -181.06, 9.74767 -180.788, 9.33896 -180.516, 8.9315 -180.243, 8.52532 -179.969, 8.12041 -179.694, 7.71675 -179.418, 7.31433 -179.142, 6.91314 -178.865, 6.51316 -178.587, 6.11439 -178.308, 5.71688 -178.028, 5.32067 -177.748, 4.92572 -177.467, 4.53204 -177.185, 4.13961 -176.903, 3.74842 -176.62, 3.35846 -176.336, 2.96971 -176.052, 2.58224 -175.767, 2.19606 -175.481, 1.81116 -175.195, 1.42752 -174.908, 1.04514 -174.62, 0.664009 -174.332, 0.284115 -174.043, -0.0945499 -173.754, -0.471942 -173.464, -0.848047 -173.173, -1.22288 -172.882, -1.59644 -172.591, -1.96874 -172.299, -2.33979 -172.006, -2.7096 -171.713, -3.07818 -171.419, -3.44549 -171.125, -3.81151 -170.83, -4.17627 -170.535, -4.53976 -170.239, -4.902 -169.944, -5.26298 -169.647, -5.62272 -169.35, -5.98123 -169.053, -6.33848 -168.755, -6.69446 -168.457, -7.04917 -168.159, -7.40264 -167.86, -7.75485 -167.561, -8.10582 -167.261, -8.45556 -166.961, -8.80406 -166.661, -9.15132 -166.361, -9.49732 -166.06, -9.84209 -165.759, -10.1856 -165.458, -10.5279 -165.156, -10.8689 -164.855, -11.2088 -164.552, -11.5473 -164.25, -11.8847 -163.947, -12.2208 -163.645, -12.5558 -163.342, -12.8895 -163.039, -13.2219 -162.735, -13.5532 -162.432, -13.8832 -162.128, -14.212 -161.825, -14.5397 -161.521, -14.8661 -161.217, -15.1913 -160.913, -15.5153 -160.609, -15.8382 -160.305, -16.1598 -160, -16.4802 -159.696, -16.7995 -159.392, -17.1176 -159.087, -17.4345 -158.783, -17.7502 -158.478, -18.0648 -158.174, -18.3782 -157.87, -18.6904 -157.565, -19.0014 -157.261, -19.3113 -156.956, -19.62 -156.652, -19.9277 -156.348, -20.2341 -156.044, -20.5395 -155.74, -20.8437 -155.436, -21.1468 -155.132, -21.4487 -154.829, -21.7495 -154.525, -22.0492 -154.222, -22.3478 -153.919, -22.6453 -153.616, -22.9417 -153.313, -23.2371 -153.011, -23.5313 -152.708, -23.8244 -152.406, -24.1164 -152.104, -24.4073 -151.802, -24.6972 -151.501, -24.9861 -151.2, -25.2739 -150.899, -25.5607 -150.599, -25.8464 -150.298, -26.131 -149.998, -26.4146 -149.699, -26.6971 -149.399, -26.9787 -149.1, -27.2593 -148.802, -27.5389 -148.504, -27.8175 -148.206, -28.0951 -147.909, -28.3717 -147.612, -28.6472 -147.315, -28.9218 -147.019, -29.1954 -146.723, -29.4681 -146.428, -29.74 -146.134, -30.0108 -145.839, -30.2807 -145.546, -30.5496 -145.252, -30.8176 -144.959, -31.0846 -144.667, -31.3508 -144.376, -31.6162 -144.084, -31.8807 -143.794, -32.1443 -143.504, -32.407 -143.215, -32.6688 -142.926, -32.9296 -142.638, -33.1895 -142.35, -33.4488 -142.063, -33.7072 -141.776, -33.9648 -141.491, -34.2217 -141.206, -34.4777 -140.921, -34.7328 -140.637, -34.987 -140.354, -35.2405 -140.072, -35.4932 -139.79, -35.7451 -139.509, -35.9964 -139.229, -36.247 -138.949, -36.4968 -138.67, -36.746 -138.392, -36.9945 -138.115, -37.2422 -137.839, -37.4892 -137.563, -37.7355 -137.288, -37.9811 -137.014, -38.226 -136.741, -38.4702 -136.468, -38.7137 -136.197, -38.9565 -135.926, -39.1987 -135.656, -39.4404 -135.386, -39.6816 -135.118, -39.9222 -134.851, -40.1622 -134.585, -40.4016 -134.319, -40.6403 -134.055, -40.8784 -133.791, -41.1159 -133.528, -41.353 -133.266, -41.5897 -133.006, -41.8259 -132.746, -42.0616 -132.487, -42.2968 -132.229, -42.5313 -131.972, -42.7653 -131.716, -42.9988 -131.46, -43.232 -131.206, -43.4648 -130.953, -43.6973 -130.701, -43.9294 -130.45, -44.161 -130.2, -44.3921 -129.951, -44.6226 -129.703, -44.8528 -129.456, -45.0828 -129.21, -45.3126 -128.965, -45.5421 -128.722, -45.7713 -128.479, -46.0001 -128.238, -46.2285 -127.998, -46.4565 -127.758, -46.6842 -127.52, -46.9117 -127.283, -47.1392 -127.047, -47.3664 -126.812, -47.5935 -126.579, -47.8202 -126.346, -48.0467 -126.115, -48.2728 -125.884, -48.4986 -125.655, -48.7245 -125.427, -48.9503 -125.2, -49.1761 -124.975, -49.4017 -124.75, -49.6272 -124.527, -49.8524 -124.305, -50.0774 -124.084, -50.3022 -123.864, -50.5272 -123.646, -50.7523 -123.428, -50.9773 -123.212, -51.2024 -122.998, -51.4274 -122.784, -51.6522 -122.572, -51.8769 -122.36, -52.1016 -122.15, -52.3264 -121.941, -52.5515 -121.734, -52.7766 -121.528, -53.0019 -121.323, -53.2272 -121.119, -53.4524 -120.916, -53.6776 -120.715, -53.9028 -120.515, -54.1283 -120.316, -54.3541 -120.118, -54.5801 -119.922, -54.8063 -119.727, -55.0327 -119.533, -55.2591 -119.34, -55.4855 -119.149, -55.712 -118.958, -55.939 -118.77, -56.1663 -118.582, -56.394 -118.396, -56.6219 -118.21, -56.8501 -118.027, -57.0784 -117.844, -57.3069 -117.663, -57.5356 -117.482, -57.7648 -117.303, -57.9945 -117.126, -58.2246 -116.95, -58.4551 -116.775, -58.6859 -116.601, -58.9169 -116.428, -59.1483 -116.257, -59.3799 -116.087, -59.6121 -115.918, -59.8449 -115.75, -60.0781 -115.584, -60.3119 -115.419, -60.546 -115.255, -60.7806 -115.092, -61.0155 -114.931, -61.2508 -114.771, -61.4867 -114.612, -61.7233 -114.454, -61.9604 -114.297, -62.1981 -114.142, -62.4364 -113.988, -62.6751 -113.835, -62.9142 -113.683, -63.1539 -113.533, -63.3941 -113.384, -63.6351 -113.235, -63.8767 -113.089, -64.119 -112.943, -64.362 -112.798, -64.6057 -112.655, -64.8501 -112.512, -65.0952 -112.371, -65.341 -112.231, -65.5873 -112.092, -65.8342 -111.954, -66.0818 -111.818, -66.3301 -111.682, -66.579 -111.548, -66.8286 -111.415, -67.079 -111.283, -67.3302 -111.152, -67.5823 -111.022, -67.8352 -110.893, -68.0888 -110.765, -68.3433 -110.639, -68.5984 -110.513, -68.8543 -110.389, -69.111 -110.265, -69.3685 -110.143, -69.6269 -110.021, -69.8862 -109.901, -70.1464 -109.781, -70.4073 -109.663, -70.6691 -109.546, -70.9317 -109.429, -71.1951 -109.314, -71.4595 -109.2, -71.7248 -109.086, -71.991 -108.973, -72.2582 -108.862, -72.5262 -108.751, -72.7951 -108.641, -73.0649 -108.532, -73.3356 -108.425, -73.6073 -108.318, -73.8799 -108.212, -74.1536 -108.106, -74.4282 -108.002, -74.7037 -107.898, -74.9802 -107.795, -75.2576 -107.693, -75.5359 -107.593, -75.8153 -107.493, -76.0957 -107.393, -76.3771 -107.294, -76.6595 -107.196, -76.9428 -107.099, -77.2272 -107.002, -77.5126 -106.907, -77.7989 -106.812, -78.0863 -106.718, -78.3747 -106.624, -78.6642 -106.531, -78.9547 -106.439, -79.2462 -106.347, -79.5388 -106.257, -79.8324 -106.166, -80.127 -106.077, -80.4227 -105.988, -80.7194 -105.9, -81.0173 -105.812, -81.3162 -105.725, -81.6161 -105.638, -81.9172 -105.552, -82.2193 -105.467, -82.5224 -105.382, -82.8267 -105.298, -83.132 -105.214, -83.4384 -105.131, -83.7459 -105.047, -84.0545 -104.965, -84.3642 -104.883, -84.6749 -104.802, -84.9867 -104.721, -85.2997 -104.64, -85.6137 -104.56, -85.9288 -104.48, -86.245 -104.4, -86.5622 -104.321, -86.8806 -104.242, -87.2001 -104.164, -87.5206 -104.086, -87.8423 -104.008, -88.165 -103.93, -88.4889 -103.853, -88.8138 -103.776, -89.1399 -103.699, -89.467 -103.622, -89.7953 -103.546, -90.1247 -103.471, -90.4552 -103.395, -90.7868 -103.319, -91.1194 -103.244, -91.4532 -103.168, -91.788 -103.093, -92.124 -103.018, -92.461 -102.943, -92.7992 -102.869, -93.1384 -102.794, -93.4787 -102.72, -93.82 -102.645, -94.1624 -102.57, -94.5059 -102.496, -94.8505 -102.421, -95.1962 -102.347, -95.543 -102.273, -95.8908 -102.198, -96.2396 -102.124, -96.5896 -102.049, -96.9406 -101.974, -97.2926 -101.899, -97.6458 -101.825, -98 -101.75, -98.3553 -101.675, -98.7117 -101.6, -99.0691 -101.525, -99.4276 -101.45, -99.7871 -101.374, -100.148 -101.299, -100.509 -101.223, -100.872 -101.147, -101.235 -101.07, -101.6 -100.994, -101.966 -100.917, -102.332 -100.84, -102.7 -100.762, -103.069 -100.685, -103.438 -100.607, -103.809 -100.529, -104.181 -100.451, -104.554 -100.372, -104.927 -100.293, -105.302 -100.213, -105.677 -100.133, -106.054 -100.053, -106.432 -99.9719, -106.81 -99.8908, -107.19 -99.8095, -107.57 -99.7276, -107.951 -99.6452, -108.334 -99.5621, -108.717 -99.4786, -109.101 -99.3946, -109.486 -99.3102, -109.872 -99.2253, -110.259 -99.1401, -110.647 -99.0543, -111.036 -98.9678, -111.425 -98.8807, -111.816 -98.793, -112.207 -98.7048, -112.599 -98.616, -112.993 -98.5267, -113.387 -98.4369, -113.782 -98.3463, -114.177 -98.2551, -114.574 -98.1631, -114.971 -98.0704, -115.369 -97.977, -115.769 -97.883, -116.168 -97.7884, -116.569 -97.6932, -116.971 -97.5973, -117.373 -97.5005, -117.776 -97.4029, -118.18 -97.3045, -118.585 -97.2054, -118.99 -97.1055, -119.397 -97.0049, -119.804 -96.9037, -120.211 -96.8015, -120.62 -96.6984, -121.029 -96.5945, -121.439 -96.4896, -121.849 -96.384, -122.261 -96.2775, -122.673 -96.1702, -123.086 -96.0621, -123.499 -95.9531, -123.913 -95.8431, -124.328 -95.7322, -124.744 -95.6203, -125.16 -95.5075, -125.576 -95.3938, -125.994 -95.2792, -126.412 -95.1637, -126.831 -95.0472, -127.25 -94.9297, -127.67 -94.8111, -128.09 -94.6915, -128.512 -94.571, -128.933 -94.4494, -129.355 -94.3268, -129.778 -94.2033, -130.202 -94.0787, -130.626 -93.953, -131.05 -93.8262, -131.475 -93.6983, -131.901 -93.5693, -132.327 -93.4393, -132.753 -93.3082, -133.181 -93.1761, -133.608 -93.0429, -134.036 -92.9085, -134.465 -92.7729, -134.894 -92.6362, -135.323 -92.4984, -135.753 -92.3594, -136.184 -92.2193, -136.615 -92.0781, -137.046 -91.9357, -137.478 -91.792, -137.91 -91.6471, -138.342 -91.501, -138.775 -91.3537, -139.208 -91.2052, -139.641 -91.0555, -140.075 -90.9047, -140.51 -90.7526, -140.945 -90.5992, -141.379 -90.4446, -141.815 -90.2887, -142.25 -90.1315, -142.686 -89.9731, -143.122 -89.8134, -143.559 -89.6525, -143.996 -89.4903, -144.433 -89.3268, -144.87 -89.1619, -145.308 -88.9957, -145.745 -88.8282, -146.183 -88.6594, -146.622 -88.4893, -147.06 -88.3179, -147.499 -88.1452, -147.938 -87.9711, -148.377 -87.7956, -148.816 -87.6188, -149.255 -87.4406, -149.695 -87.2611, -150.135 -87.0802, -150.575 -86.8979, -151.015 -86.7143, -151.455 -86.5293, -151.895 -86.3428, -152.335 -86.1549, -152.775 -85.9656, -153.216 -85.775, -153.656 -85.5829, -154.097 -85.3894, -154.538 -85.1946, -154.979 -84.9982, -155.419 -84.8005, -155.86 -84.6013, -156.301 -84.4007, -156.742 -84.1986, -157.182 -83.9951, -157.623 -83.7902, -158.064 -83.5838, -158.505 -83.3759, -158.945 -83.1666, -159.386 -82.9558, -159.826 -82.7435, -160.267 -82.5297, -160.707 -82.3145, -161.148 -82.0978, -161.588 -81.8796, -162.028 -81.6599, -162.468 -81.4387, -162.908 -81.216, -163.347 -80.9918, -163.787 -80.7662, -164.226 -80.539, -164.666 -80.3103, -165.105 -80.0801, -165.544 -79.8484, -165.982 -79.6152, -166.421 -79.3804, -166.859 -79.1442, -167.297 -78.9064, -167.735 -78.6671, -168.172 -78.4262, -168.61 -78.1838, -169.047 -77.9399, -169.483 -77.6944, -169.92 -77.4474, -170.356 -77.1988, -170.791 -76.9487, -171.227 -76.6971, -171.662 -76.4438, -172.097 -76.1891, -172.532 -75.9328, -172.966 -75.6749, -173.399 -75.4156, -173.833 -75.1546, -174.266 -74.8921, -174.699 -74.6281, -175.131 -74.3624, -175.563 -74.0952, -175.994 -73.8265, -176.425 -73.5562, -176.856 -73.2843, -177.286 -73.0109, -177.716 -72.7359, -178.145 -72.4593, -178.574 -72.1811, -179.002 -71.9014, -179.43 -71.6201, -179.857 -71.3372, -180.284 -71.0528, -180.71 -70.7668, -181.135 -70.4792, -181.561 -70.19, -181.985 -69.8992, -182.409 -69.6069, -182.833 -69.313, -183.256 -69.0175, -183.678 -68.7205, -184.099 -68.4219, -184.52 -68.1217, -184.941 -67.8199, -185.361 -67.5166, -185.78 -67.2116, -186.199 -66.9051, -186.617 -66.5971, -187.034 -66.2875, -187.45 -65.9763, -187.866 -65.6635, -188.281 -65.3492, -188.696 -65.0332, -189.11 -64.7156, -189.523 -64.3965, -189.935 -64.0759, -190.347 -63.7537, -190.757 -63.4299, -191.167 -63.1045, -191.576 -62.7776, -191.985 -62.449, -192.393 -62.1189, -192.8 -61.7873, -193.206 -61.4541, -193.611 -61.1194, -194.016 -60.7831, -194.419 -60.4452, -194.822 -60.1058, -195.224 -59.7648, -195.625 -59.4222, -196.026 -59.0781, -196.425 -58.7325, -196.824 -58.3853, -197.221 -58.0366, -197.618 -57.6863, -198.014 -57.3345, -198.409 -56.9811, -198.803 -56.6261, -199.196 -56.2696, -199.588 -55.9116, -199.979 -55.5521, -200.369 -55.1911, -200.758 -54.8285, -201.146 -54.4644, -201.533 -54.0987, -201.92 -53.7314, -202.305 -53.3628, -202.689 -52.9926, -203.072 -52.6209, -203.454 -52.2477, -203.836 -51.873, -204.216 -51.4968, -204.595 -51.119, -204.973 -50.7396, -205.35 -50.3588, -205.725 -49.9766, -206.1 -49.5929, -206.473 -49.2077, -206.846 -48.8209, -207.217 -48.4327, -207.587 -48.043, -207.956 -47.6517, -208.324 -47.259, -208.691 -46.8649, -209.057 -46.4694, -209.421 -46.0724, -209.784 -45.6739, -210.147 -45.274, -210.508 -44.8725, -210.867 -44.4695, -211.226 -44.0652, -211.583 -43.6595, -211.939 -43.2523, -212.294 -42.8437, -212.648 -42.4337, -213 -42.0221, -213.351 -41.6091, -213.701 -41.1947, -214.049 -40.7789, -214.397 -40.3617, -214.742 -39.9432, -215.087 -39.5232, -215.43 -39.1019, -215.772 -38.6791, -216.113 -38.2548, -216.453 -37.8292, -216.791 -37.4022, -217.128 -36.9739, -217.463 -36.5442, -217.797 -36.1132, -218.13 -35.6808, -218.461 -35.247, -218.791 -34.8118, -219.12 -34.3752, -219.447 -33.9373, -219.773 -33.4981, -220.097 -33.0576, -220.42 -32.6158, -220.741 -32.1727, -221.061 -31.7281, -221.38 -31.2822, -221.697 -30.835, -222.013 -30.3865, -222.327 -29.9367, -222.64 -29.4857, -222.951 -29.0334, -223.261 -28.5798, -223.569 -28.1249, -223.876 -27.6686, -224.182 -27.211, -224.486 -26.7522, -224.788 -26.2922, -225.089 -25.831, -225.388 -25.3686, -225.686 -24.9048, -225.982 -24.4398, -226.276 -23.9735, -226.57 -23.506, -226.861 -23.0372, -227.151 -22.5673, -227.439 -22.0963, -227.726 -21.624, -228.011 -21.1505, -228.295 -20.6758, -228.577 -20.1998, -228.857 -19.7226, -229.136 -19.2443, -229.413 -18.7649, -229.688 -18.2843, -229.962 -17.8026, -230.234 -17.3198, -230.505 -16.8357, -230.774 -16.3504, -231.041 -15.864, -231.307 -15.3765, -231.571 -14.8879, -231.833 -14.3982, -232.093 -13.9075, -232.352 -13.4156, -232.609 -12.9226, -232.865 -12.4284, -233.118 -11.9331, -233.37 -11.4368, -233.621 -10.9395, -233.869 -10.4411, -234.116 -9.94173, -234.361 -9.44127, -234.605 -8.93971, -234.846 -8.43705, -235.086 -7.93328, -235.324 -7.42856, -235.561 -6.9229, -235.795 -6.41627, -236.028 -5.90864, -236.259 -5.40001, -236.488 -4.89033, -236.715 -4.3796, -236.941 -3.86781, -237.165 -3.35513, -237.386 -2.84156, -237.607 -2.32708, -237.825 -1.81166, -238.041 -1.29529, -238.256 -0.777928, -238.469 -0.259566, -238.68 0.259795, -238.889 0.779993, -239.096 1.30102, -239.301 1.82291, -239.505 2.34567, -239.707 2.86933, -239.906 3.39391, -240.104 3.91945, -240.3 4.44593, -240.494 4.97318, -240.687 5.50121, -240.877 6.03003, -241.065 6.55967, -241.252 7.09015, -241.436 7.6215, -241.619 8.15374, -241.8 8.68687, -241.979 9.22072, -242.156 9.75527, -242.331 10.2906, -242.504 10.8266, -242.675 11.3634, -242.844 11.9011, -243.011 12.4395, -243.177 12.9788, -243.34 13.5188, -243.501 14.0594, -243.661 14.6006, -243.818 15.1426, -243.973 15.6853, -244.127 16.2287, -244.278 16.7729, -244.428 17.3178, -244.575 17.8634, -244.721 18.4095, -244.864 18.9563, -245.005 19.5036, -245.145 20.0517, -245.282 20.6004, -245.418 21.1498, -245.551 21.6999, -245.683 22.2506, -245.812 22.8018, -245.94 23.3535, -246.065 23.9058, -246.188 24.4586, -246.309 25.0121, -246.428 25.5662, -246.546 26.121, -246.661 26.6763, -246.774 27.2319, -246.885 27.7881, -246.993 28.3448, -247.1 28.9019, -247.205 29.4597, -247.308 30.018, -247.408 30.5769, -247.507 31.1362, -247.604 31.6959, -247.698 32.256, -247.79 32.8165, -247.881 33.3775, -247.969 33.939, -248.055 34.501, -248.139 35.0634, -248.221 35.6263, -248.301 36.1894, -248.378 36.7529, -248.454 37.3167, -248.527 37.8809, -248.599 38.4456, -248.668 39.0107, -248.735 39.5762, -248.8 40.142, -248.863 40.7081, -248.924 41.2744, -248.983 41.841, -249.039 42.408, -249.094 42.9753, -249.146 43.5429, -249.196 44.111, -249.244 44.6792, -249.29 45.2476, -249.334 45.8163, -249.376 46.3851, -249.415 46.9542, -249.452 47.5236, -249.488 48.0932, -249.521 48.6632, -249.552 49.2334, -249.58 49.8036, -249.607 50.374, -249.632 50.9445, -249.654 51.5153, -249.674 52.0862, -249.692 52.6573, -249.708 53.2286, -249.722 53.8001, -249.733 54.3716, -249.743 54.9433, -249.75 55.515, -249.755 56.0868, -249.758 56.6586, -249.759 57.2306, -249.757 57.8026, -249.754 58.3746, -249.748 58.9467, -249.74 59.5189, -249.73 60.0911, -249.718 60.6634, -249.703 61.2358, -249.687 61.8082, -249.668 62.3807, -249.647 62.9531, -249.624 63.5254, -249.599 64.0977, -249.571 64.6698, -249.541 65.2419, -249.51 65.8141, -249.476 66.3862, -249.439 66.9584, -249.401 67.5304, -249.361 68.1023, -249.318 68.6741, -249.273 69.2456, -249.226 69.8171, -249.177 70.3885, -249.126 70.9599, -249.072 71.5312, -249.017 72.1023, -248.959 72.6731, -248.898 73.2438, -248.836 73.8142, -248.772 74.3844, -248.705 74.9545, -248.636 75.5244, -248.565 76.0943, -248.492 76.6639, -248.417 77.2331, -248.339 77.8021, -248.26 78.3708, -248.178 78.9393, -248.094 79.5075, -248.008 80.0755, -247.919 80.6434, -247.829 81.2109, -247.736 81.7781, -247.641 82.3448, -247.544 82.9112, -247.445 83.4773, -247.344 84.0431, -247.24 84.6086, -247.135 85.1739, -247.027 85.7388, -246.917 86.3032, -246.805 86.8672, -246.691 87.4307, -246.574 87.9939, -246.456 88.5567, -246.335 89.1191, -246.212 89.6813, -246.087 90.2429, -245.96 90.8041, -245.83 91.3647, -245.699 91.9248, -245.565 92.4844, -245.429 93.0437, -245.291 93.6024, -245.151 94.1609, -245.009 94.7187, -244.864 95.276, -244.718 95.8326, -244.569 96.3888, -244.418 96.9443, -244.265 97.4994, -244.11 98.054, -243.953 98.6081, -243.794 99.1616, -243.632 99.7145, -243.469 100.267, -243.303 100.818, -243.135 101.369, -242.966 101.92, -242.794 102.469, -242.62 103.019, -242.443 103.567, -242.265 104.115, -242.085 104.663, -241.902 105.209, -241.718 105.755, -241.531 106.3, -241.342 106.845, -241.151 107.388, -240.958 107.932, -240.763 108.474, -240.566 109.016, -240.367 109.556, -240.166 110.096, -239.962 110.636, -239.757 111.174, -239.549 111.712, -239.34 112.25, -239.128 112.786, -238.914 113.321, -238.699 113.856, -238.481 114.39, -238.261 114.923, -238.039 115.455, -237.815 115.987, -237.589 116.517, -237.361 117.047, -237.131 117.576, -236.899 118.104, -236.665 118.631, -236.429 119.157, -236.191 119.682, -235.95 120.207, -235.708 120.73, -235.464 121.253, -235.218 121.774, -234.97 122.295, -234.72 122.815, -234.468 123.333, -234.214 123.851, -233.957 124.368, -233.699 124.884, -233.439 125.399, -233.177 125.913, -232.913 126.426, -232.647 126.938, -232.379 127.449, -232.109 127.958, -231.837 128.467, -231.563 128.975, -231.287 129.482, -231.01 129.988, -230.73 130.492, -230.449 130.996, -230.165 131.498, -229.88 131.999, -229.592 132.5, -229.303 132.999, -229.012 133.497, -228.719 133.994, -228.424 134.49, -228.127 134.984, -227.828 135.478, -227.528 135.97, -227.225 136.461, -226.921 136.952, -226.614 137.441, -226.306 137.928, -225.996 138.415, -225.685 138.9, -225.371 139.384, -225.055 139.867, -224.738 140.349, -224.419 140.829, -224.097 141.309, -223.775 141.786, -223.45 142.263, -223.123 142.738, -222.795 143.213, -222.465 143.685, -222.133 144.157, -221.799 144.628, -221.463 145.097, -221.126 145.565, -220.787 146.031, -220.446 146.496, -220.104 146.96, -219.759 147.423, -219.413 147.884, -219.065 148.344, -218.715 148.802, -218.364 149.26, -218.011 149.715, -217.656 150.17, -217.299 150.623, -216.941 151.074, -216.581 151.525, -216.219 151.974, -215.855 152.421, -215.49 152.867, -215.123 153.312, -214.755 153.755, -214.385 154.197, -214.013 154.637, -213.639 155.076, -213.264 155.513, -212.887 155.949, -212.508 156.384, -212.128 156.817, -211.747 157.248, -211.363 157.678, -210.978 158.107, -210.591 158.534, -210.203 158.96, -209.813 159.384, -209.421 159.807, -209.028 160.228, -208.634 160.647, -208.238 161.065, -207.84 161.482, -207.44 161.897, -207.039 162.31, -206.637 162.722, -206.233 163.132, -205.827 163.541, -205.42 163.948, -205.012 164.353, -204.602 164.757, -204.19 165.16, -203.777 165.561, -203.362 165.96, -202.946 166.357, -202.528 166.753, -202.109 167.147, -201.689 167.54, -201.267 167.931, -200.843 168.32, -200.418 168.708, -199.991 169.094, -199.563 169.479, -199.134 169.861, -198.704 170.242, -198.271 170.622, -197.838 170.999, -197.403 171.376, -196.966 171.75, -196.529 172.123, -196.089 172.494, -195.649 172.863, -195.207 173.23, -194.764 173.596, -194.319 173.96, -193.873 174.322, -193.426 174.683, -192.977 175.042, -192.527 175.399, -192.076 175.755, -191.624 176.108, -191.17 176.46, -190.715 176.81, -190.258 177.159, -189.801 177.505, -189.342 177.85, -188.881 178.193, -188.42 178.535, -187.957 178.874, -187.494 179.212, -187.028 179.548, -186.562 179.882, -186.094 180.214, -185.625 180.545, -185.155 180.873, -184.684 181.2, -184.211 181.525, -183.738 181.848, -183.263 182.169, -182.787 182.489, -182.31 182.806, -181.831 183.122, -181.352 183.436, -180.871 183.748, -180.39 184.058, -179.907 184.367, -179.423 184.673, -178.938 184.978, -178.452 185.281, -177.965 185.582, -177.477 185.88, -176.987 186.178, -176.497 186.473, -176.006 186.766, -175.513 187.057, -175.02 187.347, -174.525 187.634, -174.029 187.92, -173.533 188.204, -173.035 188.486, -172.537 188.766, -172.037 189.044, -171.537 189.32, -171.035 189.594, -170.532 189.866, -170.029 190.136, -169.525 190.405, -169.019 190.671, -168.513 190.935, -168.006 191.198, -167.498 191.458, -166.989 191.717, -166.479 191.973, -165.968 192.228, -165.456 192.481, -164.944 192.731, -164.431 192.98, -163.916 193.227, -163.401 193.472, -162.885 193.715, -162.369 193.955, -161.851 194.194, -161.332 194.431, -160.813 194.666, -160.293 194.899, -159.773 195.129, -159.251 195.358, -158.729 195.585, -158.205 195.81, -157.682 196.033, -157.157 196.254, -156.632 196.473, -156.106 196.69, -155.579 196.904, -155.052 197.117, -154.524 197.328, -153.994 197.537, -153.465 197.744, -152.935 197.948, -152.404 198.151, -151.872 198.352, -151.34 198.55, -150.807 198.747, -150.274 198.941, -149.739 199.134, -149.204 199.324, -148.669 199.513, -148.133 199.699, -147.597 199.884, -147.06 200.066, -146.522 200.246, -145.984 200.425, -145.445 200.601, -144.906 200.775, -144.366 200.947, -143.826 201.117, -143.285 201.285, -142.743 201.451, -142.201 201.615, -141.659 201.777, -141.116 201.937, -140.572 202.095, -140.028 202.25, -139.484 202.404, -138.939 202.555, -138.394 202.705, -137.849 202.852, -137.302 202.997, -136.756 203.141, -136.209 203.282, -135.662 203.421, -135.114 203.559, -134.566 203.694, -134.018 203.827, -133.469 203.958, -132.92 204.087, -132.37 204.213, -131.82 204.338, -131.27 204.461, -130.72 204.581, -130.169 204.7, -129.618 204.816, -129.067 204.931, -128.515 205.043, -127.963 205.153, -127.411 205.261, -126.858 205.368, -126.306 205.472, -125.753 205.574, -125.2 205.674, -124.646 205.772, -124.093 205.867, -123.539 205.961, -122.985 206.053, -122.431 206.143, -121.876 206.23, -121.322 206.316, -120.767 206.399, -120.212 206.48, -119.657 206.56, -119.102 206.637, -118.547 206.712, -117.991 206.785, -117.436 206.857, -116.881 206.926, -116.325 206.993, -115.769 207.057, -115.213 207.12, -114.657 207.181, -114.101 207.24, -113.545 207.297, -112.989 207.351, -112.434 207.404, -111.878 207.455, -111.321 207.503, -110.765 207.55, -110.209 207.594, -109.653 207.636, -109.097 207.677, -108.541 207.715, -107.985 207.751, -107.429 207.786, -106.873 207.818, -106.317 207.848, -105.762 207.876, -105.206 207.903, -104.65 207.927, -104.095 207.949, -103.54 207.969, -102.984 207.987, -102.429 208.003, -101.874 208.017, -101.319 208.029, -100.765 208.039, -100.21 208.047, -99.6558 208.053, -99.1016 208.058, -98.5477 208.06, -97.9939 208.06, -97.4403 208.058, -96.887 208.054, -96.3339 208.048, -95.781 208.04, -95.2284 208.03, -94.6759 208.018, -94.1238 208.005, -93.5718 207.989, -93.02 207.971, -92.4684 207.951, -91.9172 207.93, -91.3664 207.906, -90.8159 207.88, -90.2657 207.853, -89.7159 207.823, -89.1663 207.792, -88.617 207.758, -88.0679 207.723, -87.5192 207.686, -86.971 207.646, -86.4232 207.605, -85.8758 207.562, -85.3288 207.517, -84.7822 207.47, -84.2358 207.421, -83.6898 207.37, -83.1442 207.318, -82.5991 207.263, -82.0545 207.207, -81.5104 207.148, -80.9667 207.088, -80.4234 207.026, -79.8805 206.962, -79.338 206.896, -78.796 206.828, -78.2545 206.758, -77.7137 206.686, -77.1733 206.613, -76.6334 206.538, -76.0941 206.461, -75.5551 206.382, -75.0167 206.301, -74.4787 206.218, -73.9415 206.133, -73.4048 206.047, -72.8687 205.959, -72.3332 205.869, -71.7982 205.777, -71.2638 205.683, -70.7298 205.588, -70.1965 205.491, -69.6638 205.392, -69.1319 205.291, -68.6005 205.188, -68.0698 205.084, -67.5397 204.978, -67.0102 204.869, -66.4812 204.76, -65.9528 204.648, -65.4253 204.535, -64.8984 204.42, -64.3723 204.303, -63.8468 204.184, -63.322 204.064, -62.7979 203.942, -62.2743 203.818, -61.7515 203.693, -61.2296 203.565, -60.7083 203.437, -60.1879 203.306, -59.6682 203.174, -59.1492 203.04, -58.6309 202.904, -58.1133 202.767, -57.5964 202.628, -57.0804 202.487, -56.5652 202.345, -56.0508 202.2, -55.5372 202.055, -55.0244 201.907, -54.5123 201.758, -54.001 201.608, -53.4905 201.455, -52.9809 201.301, -52.4722 201.146, -51.9644 200.989, -51.4574 200.83, -50.9512 200.67, -50.4459 200.508, -49.9413 200.345, -49.4376 200.18, -48.9348 200.013, -48.433 199.845, -47.9321 199.675, -47.432 199.504, -46.9329 199.331, -46.4346 199.157, -45.9371 198.981, -45.4405 198.803, -44.945 198.625, -44.4504 198.444, -43.9568 198.262, -43.4642 198.079, -42.9724 197.894, -42.4816 197.708, -41.9916 197.52, -41.5026 197.331, -41.0147 197.14, -40.5278 196.948, -40.0418 196.754, -39.5569 196.559, -39.0729 196.363, -38.5899 196.165, -38.1078 195.965, -37.6267 195.765, -37.1467 195.562, -36.6677 195.359, -36.1898 195.154, -35.7129 194.948, -35.237 194.74, -34.7621 194.531, -34.2882 194.321, -33.8153 194.109, -33.3435 193.896, -32.8729 193.681, -32.4033 193.466, -31.9348 193.249, -31.4674 193.031, -31.001 192.811, -30.5355 192.59, -30.0712 192.368, -29.608 192.145, -29.146 191.92, -28.685 191.694, -28.2252 191.467, -27.7665 191.239, -27.3088 191.009, -26.8522 190.779, -26.3966 190.546, -25.9423 190.313, -25.4891 190.079, -25.0371 189.843, -24.5862 189.607, -24.1365 189.369, -23.6878 189.13, -23.2402 188.889, -22.7938 188.648, -22.3485 188.405, -21.9045 188.162, -21.4616 187.917, -21.0199 187.671, -20.5794 187.424, -20.14 187.176, -19.7017 186.927, -19.2646 186.677, -18.8287 186.426, -18.394 186.174, -17.9605 185.921, -17.5283 185.666, -17.0972 185.411, -16.6672 185.155, -16.2384 184.898, -15.8108 184.639, -15.3844 184.38, -14.9593 184.12, -14.5354 183.858, -14.1127 183.596, -13.6912 183.333, -13.2709 183.069, -12.8518 182.804, -12.4338 182.538, -12.0172 182.271, -11.6018 182.004, -11.1876 181.735, -10.7747 181.466, -10.363 181.195, -9.95248 180.924, -9.54316 180.652, -9.13507 180.379, -8.72825 180.106, -8.32271 179.831, -7.91843 179.556, -7.51539 179.28, -7.11358 179.003, -6.713 178.726, -6.31362 178.447, -5.91547 178.168, -5.51862 177.888, -5.12304 177.608, -4.72873 177.326, -4.33567 177.044, -3.94386 176.762, -3.55329 176.478, -3.16393 176.194, -2.77582 175.909, -2.38899 175.624, -2.00345 175.338, -1.61918 175.051, -1.23617 174.764, -0.85442 174.476, -0.473908 174.188, -0.0946286 173.899, 0.283407 173.609, 0.660155 173.319, 1.03562 173.028, 1.40981 172.737, 1.78274 172.445, 2.15442 172.152, 2.52485 171.859, 2.89404 171.566, 3.26199 171.272, 3.62866 170.977, 3.99405 170.682, 4.35817 170.387, 4.72104 170.092, 5.08264 169.795, 5.44301 169.499, 5.80213 169.202, 6.16001 168.904, 6.51662 168.606, 6.87197 168.308, 7.22606 168.009, 7.5789 167.71, 7.93049 167.411, 8.28084 167.111, 8.62996 166.811, 8.97784 166.511, 9.32448 166.21, 9.66986 165.909, 10.014 165.608, 10.3569 165.307, 10.6986 165.005, 11.039 164.704, 11.3782 164.401, 11.7162 164.099, 12.0529 163.796, 12.3885 163.493, 12.7228 163.19, 13.0558 162.887, 13.3877 162.584, 13.7183 162.28, 14.0478 161.977, 14.376 161.673, 14.703 161.369, 15.0289 161.065, 15.3535 160.761, 15.6769 160.457, 15.9991 160.153, 16.3202 159.848, 16.64 159.544, 16.9587 159.239, 17.2762 158.935, 17.5925 158.63, 17.9076 158.326, 18.2216 158.022, 18.5344 157.717, 18.8461 157.413, 19.1565 157.109, 19.4658 156.804, 19.774 156.5, 20.081 156.196, 20.387 155.892, 20.6917 155.588, 20.9954 155.284, 21.2979 154.981, 21.5992 154.677, 21.8995 154.373, 22.1986 154.07, 22.4967 153.767, 22.7937 153.464, 23.0895 153.162, 23.3843 152.86, 23.678 152.557, 23.9705 152.255, 24.262 151.953, 24.5524 151.652, 24.8418 151.35, 25.1301 151.049, 25.4174 150.749, 25.7037 150.449, 25.9888 150.148, 26.2729 149.849, 26.556 149.549, 26.838 149.25, 27.1191 148.951, 27.3992 148.653, 27.6784 148.355, 27.9565 148.058, 28.2335 147.76, 28.5096 147.464, 28.7846 147.167, 29.0587 146.871, 29.3319 146.576, 29.6042 146.281, 29.8755 145.986, 30.1459 145.692, 30.4153 145.399, 30.6837 145.106, 30.9512 144.813, 31.2178 144.521, 31.4836 144.23, 31.7486 143.939, 32.0126 143.649, 32.2758 143.359, 32.538 143.07, 32.7993 142.782, 33.0597 142.494, 33.3192 142.206, 33.5781 141.919, 33.8361 141.633, 34.0934 141.348, 34.3498 141.063, 34.6053 140.779, 34.86 140.496, 35.1138 140.213, 35.3669 139.931, 35.6192 139.649, 35.8709 139.369, 36.1218 139.089, 36.372 138.81, 36.6215 138.531, 36.8703 138.254, 37.1184 137.977, 37.3658 137.701, 37.6125 137.426, 37.8584 137.151, 38.1036 136.877, 38.3482 136.604, 38.592 136.332, 38.8352 136.061, 39.0776 135.79, 39.3196 135.521, 39.5611 135.252, 39.8019 134.985, 40.0423 134.718, 40.282 134.452, 40.521 134.187, 40.7594 133.923, 40.9972 133.659, 41.2345 133.397, 41.4714 133.136, 41.7079 132.875, 41.9438 132.616, 42.1792 132.358, 42.4141 132.1, 42.6484 131.844, 42.8821 131.588, 43.1154 131.333, 43.3484 131.079, 43.5811 130.827, 43.8134 130.575, 44.0452 130.325, 44.2766 130.075, 44.5074 129.827, 44.7378 129.579, 44.9678 129.333, 45.1977 129.088, 45.4274 128.844, 45.6567 128.601, 45.8857 128.359, 46.1144 128.118, 46.3426 127.878, 46.5703 127.639, 46.798 127.401, 47.0255 127.165, 47.2528 126.929, 47.48 126.695, 47.7069 126.462, 47.9335 126.23, 48.1598 125.999, 48.3857 125.77, 48.6115 125.541, 48.8374 125.314, 49.0632 125.087, 49.2889 124.862, 49.5145 124.639, 49.7398 124.416, 49.965 124.194, 50.1898 123.974, 50.4147 123.755, 50.6397 123.537, 50.8648 123.32, 51.0899 123.105, 51.3149 122.891, 51.5398 122.678, 51.7646 122.466, 51.9892 122.255, 52.214 122.046, 52.4389 121.837, 52.664 121.631, 52.8893 121.425, 53.1145 121.221, 53.3398 121.017, 53.565 120.815, 53.7901 120.615, 54.0155 120.415, 54.2412 120.217, 54.4671 120.02, 54.6932 119.824, 54.9195 119.63, 55.1459 119.436, 55.3723 119.244, 55.5987 119.053, 55.8255 118.864, 56.0526 118.676, 56.2801 118.489, 56.5079 118.303, 56.736 118.118, 56.9643 117.935, 57.1927 117.753, 57.4212 117.572, 57.6502 117.393, 57.8796 117.215, 58.1095 117.038, 58.3398 116.862, 58.5704 116.687, 58.8014 116.514, 59.0326 116.342, 59.264 116.172, 59.4959 116.002, 59.7284 115.834, 59.9614 115.667, 60.195 115.501, 60.4289 115.337, 60.6633 115.173, 60.898 115.011, 61.133 114.851, 61.3686 114.691, 61.6049 114.533, 61.8418 114.375, 62.0792 114.219, 62.3172 114.065, 62.5557 113.911, 62.7946 113.759, 63.034 113.608, 63.2739 113.458, 63.5145 113.309, 63.7558 113.162, 63.9977 113.016, 64.2404 112.87, 64.4837 112.726, 64.7278 112.583, 64.9726 112.442, 65.218 112.301, 65.464 112.161, 65.7107 112.023, 65.9579 111.886, 66.2059 111.75, 66.4545 111.615, 66.7037 111.481, 66.9537 111.349, 67.2045 111.217, 67.4562 111.087, 67.7086 110.958, 67.9619 110.829, 68.216 110.702, 68.4708 110.576, 68.7263 110.451, 68.9826 110.327, 69.2396 110.204, 69.4976 110.082, 69.7565 109.961, 70.0162 109.841, 70.2767 109.722, 70.5381 109.604, 70.8003 109.487, 71.0633 109.372, 71.3272 109.257, 71.592 109.143, 71.8578 109.03, 72.1245 108.917, 72.3921 108.806, 72.6606 108.696, 72.9299 108.587, 73.2001 108.478, 73.4713 108.371, 73.7435 108.265, 74.0166 108.159, 74.2907 108.054, 74.5658 107.95, 74.8418 107.846, 75.1188 107.744, 75.3966 107.643, 75.6755 107.543, 75.9554 107.443, 76.2363 107.343, 76.5182 107.245, 76.801 107.147, 77.0849 107.05, 77.3698 106.954, 77.6556 106.859, 77.9424 106.765, 78.2303 106.671, 78.5193 106.578, 78.8093 106.485, 79.1003 106.393, 79.3924 106.302, 79.6854 106.211, 79.9795 106.122, 80.2747 106.033, 80.5709 105.944, 80.8682 105.856, 81.1666 105.768, 81.466 105.681, 81.7665 105.595, 82.0681 105.509, 82.3707 105.424, 82.6744 105.34, 82.9792 105.256, 83.2851 105.172, 83.592 105.089, 83.9001 105.006, 84.2092 104.924, 84.5194 104.842, 84.8307 104.761, 85.1431 104.68, 85.4565 104.6, 85.7711 104.52, 86.0867 104.44, 86.4035 104.36, 86.7213 104.281, 87.0402 104.203, 87.3602 104.125, 87.6813 104.047, 88.0035 103.969, 88.3268 103.892, 88.6512 103.814, 88.9767 103.737, 89.3033 103.661, 89.631 103.584, 89.9599 103.508, 90.2898 103.433, 90.6208 103.357, 90.9529 103.282, 91.2862 103.206, 91.6205 103.131, 91.9559 103.056, 92.2924 102.981, 92.63 102.906, 92.9687 102.832, 93.3084 102.757, 93.6492 102.682, 93.9911 102.608, 94.3341 102.533, 94.6781 102.458, 95.0232 102.384, 95.3694 102.31, 95.7167 102.235, 96.0651 102.161, 96.4145 102.086, 96.7649 102.012, 97.1164 101.937, 97.4691 101.862, 97.8227 101.787, 98.1775 101.713, 98.5334 101.638, 98.8903 101.563, 99.2483 101.488, 99.6072 101.412, 99.9673 101.337, 100.328 101.261, 100.69 101.185, 101.054 101.109, 101.418 101.032, 101.783 100.955, 102.149 100.878, 102.516 100.801, 102.884 100.724, 103.253 100.646, 103.624 100.568, 103.995 100.49, 104.367 100.411, 104.74 100.332, 105.114 100.253, 105.49 100.173, 105.866 100.093, 106.243 100.012, 106.621 99.9314, 107 99.8502, 107.38 99.7686, 107.761 99.6865, 108.142 99.6037, 108.525 99.5205, 108.909 99.4367, 109.293 99.3525, 109.679 99.2678, 110.065 99.1828, 110.453 99.0973, 110.841 99.0111, 111.23 98.9243, 111.62 98.837, 112.011 98.749, 112.403 98.6605, 112.796 98.5714, 113.189 98.4818, 113.584 98.3917, 113.979 98.3008, 114.376 98.2092, 114.772 98.1168, 115.17 98.0238, 115.569 97.9301, 115.968 97.8358, 116.369 97.7409, 116.77 97.6454, 117.172 97.549, 117.575 97.4518, 117.978 97.3538, 118.382 97.2551, 118.788 97.1556, 119.193 97.0553, 119.6 96.9544, 120.007 96.8527, 120.416 96.7501, 120.824 96.6466, 121.234 96.5422, 121.644 96.4369, 122.055 96.3308, 122.467 96.2239, 122.879 96.1162, 123.292 96.0077, 123.706 95.8982, 124.121 95.7877, 124.536 95.6763, 124.951 95.564, 125.368 95.4507, 125.785 95.3366, 126.203 95.2216, 126.621 95.1056, 127.04 94.9886, 127.46 94.8705, 127.88 94.7515, 128.301 94.6314, 128.722 94.5103, 129.144 94.3882, 129.567 94.2652, 129.99 94.1411, 130.414 94.016, 130.838 93.8897, 131.263 93.7624, 131.688 93.6339, 132.114 93.5044, 132.54 93.3739, 132.967 93.2423, 133.394 93.1096, 133.822 92.9758, 134.251 92.8409, 134.679 92.7047, 135.109 92.5675, 135.538 92.4291, 135.968 92.2895, 136.399 92.1488, 136.83 92.007, 137.262 91.864, 137.694 91.7197, 138.126 91.5742, 138.558 91.4275, 138.991 91.2796, 139.425 91.1305, 139.858 90.9803, 140.293 90.8288, 140.727 90.6761, 141.162 90.5221, 141.597 90.3668, 142.032 90.2103, 142.468 90.0525, 142.904 89.8934, 143.341 89.7331, 143.777 89.5716, 144.214 89.4087, 144.652 89.2445, 145.089 89.079, 145.526 88.9121, 145.964 88.744, 146.402 88.5745, 146.841 88.4038, 147.28 88.2317, 147.718 88.0583, 148.157 87.8835, 148.597 87.7074, 149.036 87.5299, 149.475 87.351, 149.915 87.1708, 150.355 86.9893, 150.795 86.8063, 151.235 86.622, 151.675 86.4362, 152.115 86.249, 152.555 86.0605, 152.996 85.8705, 153.436 85.6791, 153.877 85.4863, 154.318 85.2922, 154.758 85.0966, 155.199 84.8996, 155.64 84.7011, 156.08 84.5012, 156.521 84.2998, 156.962 84.0971, 157.403 83.8929, 157.844 83.6872, 158.284 83.4801, 158.725 83.2715, 159.166 83.0614, 159.606 82.8498, 160.047 82.6368, 160.487 82.4223, 160.927 82.2063, 161.368 81.9889, 161.808 81.7699, 162.248 81.5495, 162.688 81.3276, 163.128 81.1041, 163.567 80.8792, 164.007 80.6528, 164.446 80.4248, 164.885 80.1954, 165.324 79.9644, 165.763 79.732, 166.201 79.498, 166.64 79.2625, 167.078 79.0255, 167.516 78.7869, 167.953 78.5468, 168.391 78.3052, 168.828 78.062, 169.265 77.8173, 169.701 77.5711, 170.138 77.3233, 170.574 77.074, 171.009 76.8231, 171.445 76.5706, 171.88 76.3167, 172.314 76.0611, 172.749 75.8041, 173.183 75.5454, 173.616 75.2853, 174.049 75.0236, 174.482 74.7603, 174.915 74.4954, 175.347 74.229, 175.779 73.961, 176.21 73.6915, 176.641 73.4204, 177.071 73.1478, 177.501 72.8736, 177.93 72.5978, 178.359 72.3204, 178.788 72.0415, 179.216 71.7609, 179.644 71.4788, 180.07 71.1952, 180.497 70.91, 180.923 70.6232, 181.348 70.3348, 181.773 70.0448, 182.197 69.7532, 182.621 69.4601, 183.044 69.1654, 183.467 68.8692, 183.889 68.5714, 184.31 68.272, 184.731 67.971, 185.151 67.6684, 185.57 67.3643, 185.989 67.0586, 186.408 66.7513, 186.825 66.4425, 187.242 66.1321, 187.658 65.8201, 188.074 65.5065, 188.489 65.1914, 188.903 64.8746, 189.316 64.5563, 189.729 64.2364, 190.141 63.915, 190.552 63.592, 190.962 63.2674, 191.372 62.9413, 191.781 62.6135, 192.189 62.2842, 192.596 61.9533, 193.003 61.6209, 193.409 61.2869, 193.813 60.9514, 194.217 60.6143, 194.621 60.2757, 195.023 59.9355, 195.425 59.5937, 195.826 59.2503, 196.226 58.9055, 196.625 58.5591, 197.023 58.2111, 197.42 57.8617, 197.816 57.5106, 198.211 57.158, 198.606 56.8038, 198.999 56.448, 199.392 56.0908, 199.783 55.7321, 200.174 55.3718, 200.563 55.01, 200.952 54.6466, 201.34 54.2817, 201.727 53.9152, 202.113 53.5473, 202.497 53.1778, 202.881 52.8069, 203.264 52.4345, 203.645 52.0606, 204.026 51.6851, 204.405 51.3081, 204.784 50.9295, 205.161 50.5494, 205.538 50.1679, 205.913 49.7849, 206.287 49.4005, 206.66 49.0145, 207.031 48.627, 207.402 48.238, 207.772 47.8475, 208.14 47.4555, 208.508 47.0622, 208.874 46.6674, 209.239 46.2711, 209.603 45.8734, 209.966 45.4741, 210.327 45.0734, 210.688 44.6712, 211.047 44.2675, 211.405 43.8625, 211.761 43.4561, 212.117 43.0482, 212.471 42.6389, 212.824 42.2281, 213.176 41.8158, 213.526 41.4021, 213.875 40.987, 214.223 40.5705, 214.57 40.1526, 214.915 39.7334, 215.259 39.3127, 215.602 38.8907, 215.943 38.4671, 216.283 38.0422, 216.622 37.6158, 216.959 37.1882, 217.296 36.7592, 217.63 36.3289, 217.964 35.8972, 218.296 35.4641, 218.626 35.0296, 218.956 34.5937, 219.284 34.1564, 219.61 33.7179, 219.935 33.278, 220.259 32.8369, 220.581 32.3944, 220.902 31.9506, 221.221 31.5054, 221.539 31.0588, 221.855 30.6109, 222.17 30.1617, 222.484 29.7114, 222.796 29.2597, 223.106 28.8068, 223.415 28.3525, 223.723 27.8969, 224.029 27.4399, 224.334 26.9817, 224.637 26.5224, 224.938 26.0618, 225.238 25.5999, 225.537 25.1369, 225.834 24.6725, 226.129 24.2069, 226.423 23.7399, 226.716 23.2717, 227.006 22.8024, 227.295 22.3319, 227.583 21.8603, 227.869 21.3874, 228.153 20.9133, 228.436 20.438, 228.717 19.9614, 228.997 19.4836, 229.274 19.0047, 229.551 18.5247, 229.825 18.0436, 230.098 17.5613, 230.37 17.0779, 230.639 16.5932, 230.908 16.1073, 231.174 15.6203, 231.439 15.1323, 231.702 14.6432, 231.963 14.153, 232.223 13.6617, 232.481 13.1693, 232.737 12.6757, 232.992 12.1809, 233.245 11.6851, 233.496 11.1883, 233.745 10.6904, 233.993 10.1916, 234.239 9.69163, 234.483 9.19063, 234.726 8.68852, 234.966 8.18529, 235.205 7.68102, 235.443 7.1758, 235.678 6.66962, 235.912 6.16246, 236.143 5.65431, 236.373 5.14516, 236.602 4.635, 236.828 4.12383, 237.053 3.61168, 237.276 3.0986, 237.497 2.58458, 237.716 2.06961, 237.933 1.55368, 238.149 1.03678, 238.363 0.518886, 238.574 5.84339e-014" fill="none" stroke="#FF0000" stroke-width="4.80000019" stroke-linecap="round" stroke-linejoin="round" transform="matrix(0.555556 0 -0 0.555556 225.432 210.051)" />
</svg>
