<?xml version="1.0"?>
<svg xmlns="http://www.w3.org/2000/svg" xmlns:xlink="http://www.w3.org/1999/xlink" width="197" height="154.333344">
	<defs />
	<path d="M 141.454 -169.586 L -141.452 169.587" fill="none" stroke="#000000" stroke-width="4" stroke-linecap="round" stroke-linejoin="round" transform="matrix(0.333333 0 0 0.333333 77.3405 78.5749)" />
	<ellipse cx="1186.474853515625" cy="189.13858032226562" rx="12" ry="12" stroke="none" fill="#000000" transform="matrix(0.333333 0 0 0.333333 -271 -41)" />
	<ellipse cx="1186.474853515625" cy="189.13858032226562" rx="8" ry="8" stroke="none" fill="#FFFFFF" transform="matrix(0.333333 0 0 0.333333 -271 -41)" />
	<path d="M 209.602 0 L -209.603 0" fill="none" stroke="#000000" stroke-width="4" stroke-linecap="round" stroke-linejoin="round" transform="matrix(0.333333 0 0 0.333333 100.057 135.104)" />
	<ellipse cx="903.56976318359375" cy="528.31146240234375" rx="12" ry="12" stroke="none" fill="#000000" transform="matrix(0.333333 0 0 0.333333 -271 -41)" />
	<ellipse cx="903.56976318359375" cy="528.31146240234375" rx="8" ry="8" stroke="none" fill="#FFFFFF" transform="matrix(0.333333 0 0 0.333333 -271 -41)" />
	<ellipse cx="1322.774658203125" cy="528.31146240234375" rx="12" ry="12" stroke="none" fill="#000000" transform="matrix(0.333333 0 0 0.333333 -271 -41)" />
	<ellipse cx="1322.774658203125" cy="528.31146240234375" rx="8" ry="8" stroke="none" fill="#FFFFFF" transform="matrix(0.333333 0 0 0.333333 -271 -41)" />
	<path d="M 41.7797 -50.0893 C 56.6372 -37.6965, 65.2264 -19.3475, 65.2264 3.77287e-005" fill="none" stroke="#000000" stroke-width="4" stroke-linecap="round" stroke-linejoin="round" transform="matrix(0.333333 0 -0 0.333333 30.1899 135.104)" />
	<g transform="matrix(1 0 -0 1 134.95 9.32083)">
		<svg width="32.9738617" height="47.9999886">
			<defs />
			<path d="M 9.09632 14.0579 C 9.00816 14.3945, 8.89194 14.738, 8.74709 15.089, 8.60282 15.4405, 8.42019 15.7594, 8.20035 16.0462, 7.9805 16.3336, 7.7286 16.5729, 7.44521 16.7647, 7.16239 16.9571, 6.83835 17.0533, 6.47366 17.0533, 6.15935 17.0533, 5.89027 16.9863, 5.66699 16.8518, 5.44371 16.7178, 5.27082 16.5409, 5.1483 16.321, 5.02578 16.1012, 4.96395 15.8567, 4.96395 15.5877, 4.95135 15.5762, 4.94506 15.5453, 4.94506 15.4961, 4.94506 15.2338, 5.00174 14.959, 5.11509 14.6716, 5.32234 14.1409, 5.51757 13.6096, 5.69963 13.0783, 5.88226 12.5471, 6.04256 12.0158, 6.18111 11.4839, 6.26927 11.1244, 6.33511 10.7763, 6.37919 10.4396, 6.39179 10.3423, 6.39809 10.2387, 6.39809 10.1282, 6.39809 9.92095, 6.3729 9.73202, 6.32252 9.56027, 6.20916 9.17612, 5.97042 8.98375, 5.60516 8.98318, 4.96395 8.98375, 4.41377 9.20245, 3.95462 9.6387, 3.49546 10.0755, 3.08612 10.6601, 2.72773 11.3923 L 1.44473 16.3754 C 1.38863 16.6021, 1.27355 16.771, 1.10065 16.8838, 0.927757 16.9972, 0.753141 17.0533, 0.576808 17.0533, 0.39475 17.0533, 0.243607 16.9926, 0.123953 16.8701, 0.042084 16.7911, 0.000863314 16.6811, 0.000863314 16.5403, 0.000863314 16.4739, 0.0071609 16.4063, 0.0197561 16.3388 L 2.85998 5.32828 C 2.91036 5.12733, 2.94185 4.97447, 2.95444 4.87027 L 2.95444 4.84279 C 2.95444 4.7884, 2.94185 4.7489, 2.91666 4.72371, 2.84108 4.67562, 2.69967 4.64184, 2.49185 4.62352, 2.2846 4.6052, 2.0453 4.59604, 1.77507 4.59547, 1.68061 4.59604, 1.61133 4.56569, 1.56725 4.50386, 1.52946 4.4678, 1.51057 4.422, 1.51057 4.36646, 1.51057 4.33039, 1.5203 4.29662, 1.5392 4.2657 L 1.56725 4.11914 C 1.61763 3.97315, 1.73729 3.88155, 1.92564 3.84433 L 4.38858 3.64281, 4.42579 3.64281 C 4.50136 3.64338, 4.56434 3.668, 4.61472 3.71609, 4.6525 3.77162, 4.6714 3.82029, 4.6714 3.86265, 4.6714 3.89987, 4.66224 3.93364, 4.64334 3.96342 L 3.23726 9.42287 C 3.41359 9.21562, 3.72504 8.98833, 4.1716 8.74101, 4.61815 8.49368, 5.13399 8.37002, 5.71852 8.36945, 6.09008 8.37002, 6.43645 8.43872, 6.75705 8.57613, 7.07766 8.71353, 7.32613 8.93509, 7.50189 9.23967, 7.69081 9.55168, 7.78471 9.90263, 7.78471 10.2931 L 7.78471 10.3389 C 7.77211 10.7305, 7.716 11.1244, 7.61524 11.5205, 7.47097 12.077, 7.30093 12.6238, 7.10571 13.1608, 6.91106 13.6984, 6.70953 14.2445, 6.50171 14.7999, 6.31336 15.2768, 6.21889 15.677, 6.21889 15.9999, 6.21889 15.9518, 6.22519 15.9272, 6.23778 15.9266, 6.23778 16.2752, 6.354 16.4493, 6.58644 16.4487, 6.80056 16.4493, 6.99121 16.3852, 7.15781 16.2569, 7.32441 16.1287, 7.48013 15.9563, 7.6244 15.7394, 7.76925 15.523, 7.89692 15.2665, 8.00684 14.9699, 8.11676 14.6739, 8.21924 14.3608, 8.31313 14.0304, 8.35092 13.8724, 8.45798 13.7928, 8.63431 13.7923 L 8.85129 13.7923 C 9.01503 13.7928, 9.09632 13.8598, 9.09632 13.9938 L 9.09632 14.0579 Z" stroke="none" fill="#000000" />
			<rect />
		</svg>
	</g>
	<g transform="matrix(1 0 -0 1 9.9492 123.896)">
		<svg width="27.0562763" height="54.0428391">
			<defs />
			<path d="M 7.73747 5.19088 C 7.6619 5.42961, 7.52679 5.62656, 7.33213 5.78228, 7.13748 5.938, 6.91707 6.01586, 6.67146 6.01529, 6.42013 6.01586, 6.22834 5.93056, 6.09609 5.75881, 6.00792 5.66148, 5.96384 5.53037, 5.96384 5.36492, 5.96384 5.29851, 5.97013 5.22809, 5.98273 5.15423, 6.052 4.91664, 6.18883 4.7197, 6.39322 4.56398, 6.5976 4.40825, 6.81917 4.33039, 7.0579 4.32982, 7.30981 4.33039, 7.50217 4.41284, 7.63385 4.57715, 7.70942 4.69394, 7.75007 4.83134, 7.75636 4.98935, 7.75636 5.05691, 7.75007 5.12446, 7.73747 5.19088 Z M 5.14343 17.8044 C 5.03694 18.1891, 4.86863 18.559, 4.63905 18.9128, 4.40947 19.2672, 4.13581 19.5786, 3.81807 19.8471, 3.5009 20.1162, 3.14995 20.3269, 2.76637 20.4792, 2.38279 20.632, 1.99291 20.7082, 1.59673 20.7082, 1.37002 20.7082, 1.15075 20.6778, 0.936628 20.6166, 0.723082 20.5559, 0.539307 20.4654, 0.384729 20.3464, 0.231296 20.2273, 0.122519 20.0733, 0.0589708 19.8838, 0.01546 19.7864, -0.00629532 19.6731, -0.00686777 19.5448, -0.00629532 19.4658, 0.00629985 19.3708, 0.0303453 19.2609, 0.100191 18.9861, 0.245036 18.7817, 0.46488 18.6471, 0.685297 18.5132, 0.898843 18.4456, 1.10609 18.4456, 1.32651 18.4456, 1.51143 18.516, 1.66257 18.6563, 1.76963 18.7605, 1.82287 18.8945, 1.82287 19.0594, 1.82287 19.1269, 1.81028 19.2094, 1.78509 19.3067, 1.72898 19.5082, 1.6265 19.6748, 1.4788 19.8059, 1.33109 19.9376, 1.24178 20.0091, 1.20972 20.0212, 1.27956 20.0641, 1.43929 20.0887, 1.69062 20.0944, 1.91734 20.0944, 2.1326 20.032, 2.33699 19.9067, 2.54137 19.7819, 2.7366 19.6135, 2.92209 19.4029, 3.10759 19.1922, 3.26789 18.9466, 3.403 18.6655, 3.53811 18.3849, 3.64345 18.0855, 3.71903 17.7678 L 5.53961 10.6686 C 5.64037 10.2725, 5.69018 9.93011, 5.69018 9.64271 L 5.69018 9.42287 C 5.65926 9.13032, 5.51155 8.98375, 5.24705 8.98318, 5.00832 8.98375, 4.78218 9.04959, 4.56806 9.1807, 4.35394 9.31237, 4.15299 9.48928, 3.96406 9.71199, 3.7757 9.93526, 3.60452 10.1946, 3.45052 10.4906, 3.29651 10.7872, 3.15625 11.0969, 3.0303 11.4198, 2.96732 11.5669, 2.86083 11.6431, 2.70969 11.6488 L 2.49271 11.6488 C 2.35416 11.631, 2.27859 11.5549, 2.266 11.4198 L 2.266 11.3465 C 2.39825 10.999, 2.56313 10.6463, 2.76122 10.2891, 2.95931 9.93183, 3.18774 9.61294, 3.44537 9.33184, 3.703 9.05131, 3.98925 8.82059, 4.30356 8.64025, 4.61844 8.46048, 4.96423 8.37002, 5.34152 8.36945, 5.66899 8.37002, 5.95181 8.433, 6.19055 8.55781, 6.42986 8.68319, 6.62165 8.85437, 6.76592 9.07078, 6.91077 9.28776, 7.0018 9.53623, 7.03958 9.81676 L 7.03958 10.0732 C 7.03958 10.2816, 7.01439 10.4923, 6.96401 10.7053 Z" stroke="none" fill="#000000" />
			<rect />
		</svg>
	</g>
	<g transform="matrix(1 0 -0 1 179.609 122.654)">
		<svg width="30.0150681" height="47.9999886">
			<defs />
			<path d="M 8.37153 9.90836 C 8.30282 10.1774, 8.16256 10.3807, 7.95188 10.5181, 7.74119 10.6555, 7.52937 10.7242, 7.31525 10.7236, 7.0954 10.7242, 6.91277 10.6538, 6.76793 10.5129, 6.66144 10.4099, 6.60762 10.2753, 6.60762 10.1099, 6.60762 10.0435, 6.62022 9.95759, 6.64541 9.8534, 6.71468 9.60951, 6.8372 9.42058, 7.01353 9.28604, 7.18987 9.15207, 7.32498 9.07822, 7.41887 9.06562, 7.37536 9.01123, 7.25571 8.98375, 7.06048 8.98318, 6.6643 8.98375, 6.30591 9.10455, 5.98531 9.34558, 5.6647 9.58718, 5.34753 9.87572, 5.03265 10.2112, 4.71834 10.5473, 4.4006 10.8982, 4.07999 11.2646, 3.75939 11.631, 3.47943 11.8847, 3.24012 12.0244, 3.46684 12.0495, 3.75939 12.12, 4.11778 12.2356, 4.47617 12.3518, 4.78132 12.5121, 5.03265 12.7165, 5.28455 12.9215, 5.46031 13.1699, 5.5605 13.4625, 5.61775 13.6217, 5.64924 13.7991, 5.65497 13.9938, 5.65497 14.1529, 5.63608 14.3213, 5.59829 14.4976, 5.52329 14.785, 5.47005 15.0506, 5.43799 15.2945, 5.4128 15.448, 5.4002 15.5882, 5.4002 15.7159, 5.4002 15.7835, 5.4065 15.8567, 5.41909 15.9357, 5.43169 16.1075, 5.47577 16.2357, 5.55134 16.321, 5.62691 16.4069, 5.74027 16.4493, 5.89084 16.4487, 6.07347 16.4493, 6.23378 16.3897, 6.37232 16.2707, 6.51087 16.1516, 6.63625 15.9838, 6.74961 15.7668, 6.86296 15.5504, 6.96315 15.2922, 7.05132 14.9928, 7.13949 14.694, 7.22708 14.3728, 7.31525 14.0304, 7.35303 13.8724, 7.46353 13.7928, 7.64558 13.7923 L 7.85283 13.7923 C 8.01027 13.7928, 8.095 13.8598, 8.1076 13.9938 L 8.1076 14.0579 C 8.03203 14.3699, 7.9347 14.6997, 7.81505 15.0478, 7.69597 15.3959, 7.54654 15.7182, 7.36734 16.0142, 7.18815 16.3107, 6.97117 16.5575, 6.7164 16.7556, 6.46221 16.9542, 6.14618 17.0533, 5.76832 17.0533, 5.42883 17.0533, 5.13513 16.9789, 4.88666 16.8289, 4.63819 16.68, 4.44983 16.4848, 4.32045 16.2432, 4.19163 16.0021, 4.11434 15.7228, 4.08915 15.4045 L 4.08915 15.1938 C 4.08915 14.9499, 4.11434 14.706, 4.16472 14.461, 4.20251 14.315, 4.22484 14.1776, 4.23056 14.0487, 4.23056 13.7133, 4.10518 13.4236, 3.85328 13.1785, 3.48916 12.8556, 3.01112 12.6541, 2.41972 12.574 L 1.43843 16.3754 C 1.38233 16.6021, 1.26725 16.771, 1.09436 16.8838, 0.921458 16.9972, 0.746842 17.0533, 0.570509 17.0533, 0.388451 17.0533, 0.237881 16.9926, 0.117654 16.8701, 0.0363577 16.7911, -0.00486302 16.6811, -0.00486302 16.5403, -0.00486302 16.4739, 0.00143456 16.4063, 0.0140298 16.3388 L 2.85368 5.32828 C 2.90406 5.12733, 2.93497 4.97447, 2.94757 4.87027 L 2.94757 4.84279 C 2.94757 4.7884, 2.93555 4.7489, 2.91036 4.72371, 2.83479 4.67562, 2.69338 4.64184, 2.48555 4.62352, 2.27831 4.6052, 2.039 4.59604, 1.76877 4.59547, 1.67488 4.59604, 1.60561 4.56569, 1.56095 4.50386, 1.52374 4.4678, 1.50485 4.422, 1.50485 4.36646, 1.50485 4.33039, 1.51458 4.29662, 1.5329 4.2657 L 1.56095 4.11914 C 1.61133 3.97315, 1.73099 3.88155, 1.91934 3.84433 L 4.38171 3.64281, 4.41949 3.64281 C 4.49506 3.64338, 4.55747 3.668, 4.60785 3.71609, 4.64563 3.77162, 4.66453 3.82029, 4.66453 3.86265, 4.66453 3.89987, 4.65537 3.93364, 4.63647 3.96342 L 2.6367 11.7312 C 2.78784 11.6768, 2.97963 11.5457, 3.21207 11.3379, 3.44451 11.1307, 3.6758 10.9017, 3.90538 10.6509, 4.13495 10.4007, 4.36911 10.1414, 4.60785 9.87229, 4.84716 9.60378, 5.09677 9.35817, 5.35784 9.1349, 5.6189 8.91219, 5.89771 8.72899, 6.19313 8.58529, 6.48854 8.44216, 6.81888 8.37002, 7.183 8.36945, 7.62955 8.37002, 7.96962 8.51945, 8.20206 8.8183, 8.3595 9.02669, 8.43794 9.2557, 8.43794 9.50531, 8.43794 9.64042, 8.41618 9.77439, 8.37153 9.90836 Z" stroke="none" fill="#000000" />
			<rect />
		</svg>
	</g>
	<g transform="matrix(1 0 -0 1 56.1157 109.596)">
		<svg width="50.9839096" height="54.0428391">
			<defs />
			<path d="M 9.44326 16.5953 C 9.38716 16.7602, 9.26407 16.8426, 9.07514 16.8426 L 0.27452 16.8426 C 0.180056 16.8426, 0.110782 16.8151, 0.0666986 16.7602, 0.0231878 16.7178, 0.00143247 16.672, 0.000859957 16.6228, 0.00143247 16.5867, 0.00773007 16.55, 0.0197528 16.5128 L 0.0575384 16.3754 C 0.0764312 16.2964, 0.120514 16.2283, 0.189788 16.1699, 0.259062 16.1121, 0.337496 16.0829, 0.42509 16.0823, 0.721077 16.0829, 0.998172 16.0783, 1.2558 16.0691, 1.51343 16.06, 1.70866 16.0279, 1.84033 15.9724, 1.95369 15.9117, 2.04128 15.7468, 2.10426 15.4777 L 4.77387 5.15423 C 4.79906 5.03859, 4.81166 4.94699, 4.81166 4.87943, 4.81166 4.7884, 4.79277 4.73058, 4.75498 4.70539, 4.67368 4.6573, 4.50365 4.62695, 4.24602 4.61436, 3.98839 4.60234, 3.7113 4.59604, 3.41531 4.59547, 3.32142 4.59604, 3.25214 4.56569, 3.20806 4.50386, 3.17027 4.4678, 3.15138 4.422, 3.15138 4.36646, 3.15138 4.33039, 3.16111 4.29662, 3.17943 4.2657 L 3.20806 4.11914 C 3.27733 3.93651, 3.39985 3.84491, 3.57561 3.84433, 4.31186 3.88155, 5.0504 3.89987, 5.79237 3.89929, 5.91832 3.89987, 6.04771 3.89357, 6.17938 3.88097, 7.04101 3.88155, 7.9181 3.86952, 8.81121 3.84433, 8.89938 3.84491, 8.97495 3.87525, 9.03735 3.93593, 9.06254 3.98517, 9.07514 4.03097, 9.07514 4.07334, 9.07514 4.11055, 9.06598 4.14433, 9.04709 4.1741 L 9.01846 4.3115 C 9.00014 4.39165, 8.95777 4.45864, 8.89136 4.5136, 8.82552 4.56856, 8.74537 4.59604, 8.65091 4.59547, 8.30511 4.59604, 7.95817 4.60234, 7.60894 4.61436, 7.25971 4.62695, 7.00323 4.66016, 6.83949 4.71455, 6.68262 4.77638, 6.5727 4.93496, 6.50972 5.19088 L 3.859 15.5235 C 3.79603 15.7377, 3.76454 15.8968, 3.76454 15.9999 L 3.76454 16.0365 C 3.78973 16.0617, 3.96606 16.0766, 4.29296 16.0823 L 5.95267 16.0823 C 6.39923 16.0829, 6.84464 16.0188, 7.28776 15.8905, 7.73146 15.7623, 8.13565 15.5424, 8.49977 15.2304, 8.9406 14.8829, 9.29441 14.4237, 9.5612 13.8524, 9.82856 13.2816, 10.0787 12.6936, 10.3112 12.0885, 10.3616 11.9242, 10.4715 11.8417, 10.641 11.8411 L 10.8201 11.8411 C 10.9839 11.8417, 11.0658 11.9213, 11.0658 12.0793 L 11.0658 12.1526 Z" stroke="none" fill="#000000" />
			<path d="M 1.705 -3.31244 C 1.67326 -3.18228, 1.60016 -3.07359, 1.48571 -2.98639, 1.37125 -2.89918, 1.24718 -2.85558, 1.11316 -2.8559, 0.972418 -2.85558, 0.865015 -2.90335, 0.790955 -2.99953, 0.741902 -3.05404, 0.715613 -3.12072, 0.711765 -3.19959, 0.711765 -3.24704, 0.718819 -3.29513, 0.732925 -3.34322, 0.764665 -3.47275, 0.838725 -3.58143, 0.954784 -3.66864, 1.07116 -3.75584, 1.1962 -3.79944, 1.32989 -3.79976, 1.47096 -3.79944, 1.57836 -3.75328, 1.6521 -3.66126, 1.70147 -3.59586, 1.72616 -3.52597, 1.72616 -3.45095, 1.72616 -3.40286, 1.71911 -3.35669, 1.705 -3.31244 Z M 1.76303 1.66335 C 1.72456 1.84161, 1.6646 2.02884, 1.58349 2.22537, 1.5027 2.42223, 1.40299 2.6008, 1.28501 2.76143, 1.16703 2.92237, 1.02884 3.05638, 0.870465 3.16379, 0.712086 3.27151, 0.5287 3.32537, 0.320947 3.32537, 0.144935 3.32537, -0.00639081 3.28786, -0.133351 3.21252, -0.25999 3.1375, -0.357774 3.03843, -0.426384 2.91532, -0.494994 2.7922, -0.529619 2.65531, -0.529619 2.50462, -0.536672 2.49821, -0.540199 2.48442, -0.540199 2.46358, -0.540199 2.31001, -0.506535 2.1526, -0.439849 1.99165 L 0.415847 -0.26541 C 0.521646 -0.548826, 0.574546 -0.781585, 0.574546 -0.963048, 0.574546 -1.11662, 0.509463 -1.19356, 0.378977 -1.19388, 0.259391 -1.19356, 0.151988 -1.15926, 0.0567684 -1.09097, -0.0381308 -1.02236, -0.125335 -0.92746, -0.204525 -0.806272, -0.283715 -0.684762, -0.354889 -0.541131, -0.418369 -0.375378, -0.481849 -0.209304, -0.534749 -0.0326507, -0.577069 0.155224, -0.615541 0.247879, -0.680945 0.295649, -0.772638 0.298855 L -0.888697 0.298855 C -0.973337 0.299176, -1.01566 0.256536, -1.01566 0.170613 L -1.01566 0.134705 C -0.973337 -0.0531695, -0.909857 -0.245212, -0.825217 -0.442064, -0.740577 -0.638595, -0.638625 -0.817172, -0.519039 -0.978116, -0.399133 -1.13874, -0.25999 -1.27211, -0.101611 -1.37823, 0.0567684 -1.48403, 0.238231 -1.53725, 0.442457 -1.53757, 0.61879 -1.53725, 0.768512 -1.49942, 0.891625 -1.4244, 1.01474 -1.34906, 1.109 -1.24903, 1.17408 -1.12431, 1.23948 -0.999276, 1.27539 -0.85853, 1.28244 -0.701434 L 1.28244 -0.665526 C 1.28244 -0.518047, 1.25263 -0.36608, 1.19235 -0.208984 L 0.336657 2.05834 C 0.238231 2.33566, 0.188858 2.57163, 0.188858 2.76624, 0.181805 2.77329, 0.178278 2.77329, 0.178278 2.76624, 0.178278 2.91371, 0.245284 2.98713, 0.378977 2.98681, 0.498883 2.98713, 0.606927 2.95122, 0.70375 2.87941, 0.800573 2.80759, 0.88874 2.71205, 0.967929 2.59215, 1.04744 2.47256, 1.11701 2.32893, 1.17664 2.16125, 1.2366 1.9939, 1.2911 1.81756, 1.34047 1.63257, 1.36163 1.54409, 1.42319 1.49952, 1.52514 1.4992 L 1.64152 1.4992 C 1.68031 1.49952, 1.71911 1.51139, 1.75758 1.53511, 1.76848 1.56268, 1.77714 1.58673, 1.78419 1.60693, 1.78419 1.62777, 1.77714 1.64668, 1.76303 1.66335 Z" stroke="none" fill="#000000" transform="matrix(1.12 0 0 1 13.0549 16.3063)" />
			<rect />
		</svg>
	</g>
</svg>
