<?xml version="1.0"?>
<svg xmlns="http://www.w3.org/2000/svg" xmlns:xlink="http://www.w3.org/1999/xlink" width="386.708832" height="265.341827">
	<defs>
		<marker id="CustomMarker-01" markerUnits="strokeWidth" markerWidth="39" markerHeight="21" viewBox="-39 -10.5 39 21" orient="auto-start-reverse">
			<path d="M 0 -0 L -26 -7, -20.8 -0.5, -20.8 0.5, -26 7 Z" fill="#000000" stroke="#000000" stroke-linejoin="round" />
		</marker>
		<marker id="CustomMarker-02" markerUnits="strokeWidth" markerWidth="39" markerHeight="21" viewBox="-39 -10.5 39 21" orient="auto-start-reverse">
			<path d="M 0 -0 L -26 -7, -20.8 -0.5, -20.8 0.5, -26 7 Z" fill="#000000" stroke="#000000" stroke-linejoin="round" />
		</marker>
		<marker id="CustomMarker-03" markerUnits="strokeWidth" markerWidth="39" markerHeight="21" viewBox="-39 -10.5 39 21" orient="auto-start-reverse">
			<path d="M 0 -0 L -26 -7, -20.8 -0.5, -20.8 0.5, -26 7 Z" fill="#000000" stroke="#000000" stroke-linejoin="round" />
		</marker>
		<marker id="CustomMarker-04" markerUnits="strokeWidth" markerWidth="39" markerHeight="21" viewBox="-39 -10.5 39 21" orient="auto-start-reverse">
			<path d="M 0 -0 L -26 -7, -20.8 -0.5, -20.8 0.5, -26 7 Z" fill="#000000" stroke="#000000" stroke-linejoin="round" />
		</marker>
		<marker id="CustomMarker-05" markerUnits="strokeWidth" markerWidth="39" markerHeight="21" viewBox="-39 -10.5 39 21" orient="auto-start-reverse">
			<path d="M 0 -0 L -26 -7, -20.8 -0.5, -20.8 0.5, -26 7 Z" fill="#000000" stroke="#000000" stroke-linejoin="round" />
		</marker>
		<marker id="CustomMarker-06" markerUnits="strokeWidth" markerWidth="39" markerHeight="21" viewBox="-39 -10.5 39 21" orient="auto-start-reverse">
			<path d="M 0 -0 L -26 -7, -20.8 -0.5, -20.8 0.5, -26 7 Z" fill="#000000" stroke="#000000" stroke-linejoin="round" />
		</marker>
		<marker id="CustomMarker-07" markerUnits="strokeWidth" markerWidth="39" markerHeight="21" viewBox="-39 -10.5 39 21" orient="auto-start-reverse">
			<path d="M 0 -0 L -26 -7, -20.8 -0.5, -20.8 0.5, -26 7 Z" fill="#000000" stroke="#000000" stroke-linejoin="round" />
		</marker>
		<marker id="CustomMarker-08" markerUnits="strokeWidth" markerWidth="39" markerHeight="21" viewBox="-39 -10.5 39 21" orient="auto-start-reverse">
			<path d="M 0 -0 L -26 -7, -20.8 -0.5, -20.8 0.5, -26 7 Z" fill="#000000" stroke="#000000" stroke-linejoin="round" />
		</marker>
		<marker id="CustomMarker-09" markerUnits="strokeWidth" markerWidth="39" markerHeight="21" viewBox="-39 -10.5 39 21" orient="auto-start-reverse">
			<path d="M 0 -0 L -26 -7, -20.8 -0.5, -20.8 0.5, -26 7 Z" fill="#000000" stroke="#000000" stroke-linejoin="round" />
		</marker>
	</defs>
	<path d="M -169.2 96.0001 C -153.2 83.4001, -113 36.8, -73.2002 20.4, -33.4001 3.99998, 29.2 17, 69.6002 -2.4, 110 -21.8, 152.6 -80.4001, 169.2 -96.0001" fill="none" stroke="#000000" stroke-width="3.20000029" stroke-linecap="round" stroke-linejoin="round" transform="matrix(0.416667 0 -0 0.416667 101.3 78.8914)" />
	<path d="M -204.667 -117.556 C -182.898 -105.805, -112.887 -82.9341, -74.0514 -47.0497, -35.2154 -11.1654, -18.1042 77.9461, 28.3489 97.7508, 74.802 117.556, 175.281 76.1072, 204.667 71.7785" fill="none" stroke="#000000" stroke-width="3.20000029" stroke-linecap="round" stroke-linejoin="round" transform="matrix(0.416667 0 -0 0.416667 116.875 168.572)" />
	<path d="M -39.9994 -191.777 C -27.4108 -166.252, 31.0654 -92.1614, 35.5325 -38.6265, 39.9994 14.9084, -12.5888 91.0319, -13.1977 129.433, -13.8069 167.833, 24.365 181.386, 31.8777 191.777" fill="none" stroke="#000000" stroke-width="3.20000029" stroke-linecap="round" stroke-linejoin="round" transform="matrix(0.416667 0 -0 0.416667 188.773 118.798)" />
	<path d="M -206 -49.6175 C -183.768 -50.1025, -122.839 -67.9095, -72.6063 -52.5278, -22.374 -37.1462, 48.9593 22.5993, 95.3937 42.6722, 141.828 62.7451, 187.565 63.7032, 206 67.9095" fill="none" stroke="#000000" stroke-width="3.20000029" stroke-linecap="round" stroke-linejoin="round" transform="matrix(0.416667 0 -0 0.416667 257.939 59.8543)" />
	<path d="M 80.3525 -56.6668 C 75.0323 -47.6453, 66.2266 -15.8106, 48.4317 -2.53732, 30.6366 10.736, -4.95337 13.1057, -26.4173 22.973, -47.8813 32.8404, -71.3634 51.0512, -80.3525 56.6668" fill="none" stroke="#000000" stroke-width="3.20000029" stroke-linecap="round" stroke-linejoin="round" transform="matrix(0.416667 0 -0 0.416667 310.292 111.761)" />
	<path d="M 89.5913 -76 C 81.5682 -65.8194, 62.7027 -28.7541, 41.4527 -14.9159, 20.2026 -1.07766, -16.0684 -8.1233, -37.9091 7.02935, -59.7497 22.182, -80.9776 64.5049, -89.5913 76" fill="none" stroke="#000000" stroke-width="3.20000029" stroke-linecap="round" stroke-linejoin="round" transform="matrix(0.416667 0 -0 0.416667 239.483 167.039)" />
	<path d="M -14.186 -166 C -9.07483 -136.155, 9.27063 -31.6563, 16.4809 13.0709, 23.691 57.798, 38.1861 76.8748, 29.075 102.363, 19.9638 127.851, -26.976 155.394, -38.1861 166" fill="none" stroke="#000000" stroke-width="3.20000029" stroke-linecap="round" stroke-linejoin="round" transform="matrix(0.416667 0 -0 0.416667 350.239 157.316)" />
	<path d="M -158.61 -34.8699 C -143.863 -24.7651, -108.962 16.6479, -70.1281 25.7589, -31.2945 34.8699, 36.2691 18.79, 74.3922 19.7962, 112.515 20.8023, 144.573 29.7961, 158.61 31.796" fill="none" stroke="#000000" stroke-width="3.20000029" stroke-linecap="round" stroke-linejoin="round" transform="matrix(0.416667 0 -0 0.416667 268.241 213.235)" />
	<path d="M -71.002 -109.334 C -62.8442 -96.6954, -43.2801 -56.2756, -22.0556 -33.5039, -0.831113 -10.7322, 41.6886 3.49017, 56.3453 27.2964, 71.002 51.1027, 64.2945 95.6608, 65.8843 109.334" fill="none" stroke="#000000" stroke-width="3.20000029" stroke-linecap="round" stroke-linejoin="round" transform="matrix(0.416667 0 -0 0.416667 306.877 180.928)" />
	<path d="M 14.6829 -0 C 14.6829 8.10904, 8.10912 14.6827, -0 14.6827, -8.10912 14.6827, -14.6829 8.10904, -14.6829 -0, -14.6829 -8.10904, -8.10912 -14.6827, -0 -14.6827, 8.10912 -14.6827, 14.6829 -8.10904, 14.6829 -0 Z" stroke="none" fill="#FFFFFF" transform="matrix(0.416667 0 -0 0.416667 31.5968 118.798)" />
	<path d="M 14.6829 -0 C 14.6829 8.10904, 8.10912 14.6827, -0 14.6827, -8.10912 14.6827, -14.6829 8.10904, -14.6829 -0, -14.6829 -8.10904, -8.10912 -14.6827, -0 -14.6827, 8.10912 -14.6827, 14.6829 -8.10904, 14.6829 -0 Z" fill="none" stroke="#000000" stroke-width="2.72000003" stroke-linecap="round" stroke-linejoin="round" transform="matrix(0.416667 0 -0 0.416667 31.5968 118.798)" />
	<path d="M -7.26655 -7.26647 L 7.26655 7.26647" fill="none" stroke="#000000" stroke-width="3.26400018" stroke-linecap="round" stroke-linejoin="round" transform="matrix(0.416667 0 -0 0.416667 31.5968 118.798)" />
	<path d="M -7.26655 7.26647 L 7.26655 -7.26647" fill="none" stroke="#000000" stroke-width="3.26400018" stroke-linecap="round" stroke-linejoin="round" transform="matrix(0.416667 0 -0 0.416667 31.5968 118.798)" />
	<ellipse cx="1150.1163578033447" cy="695.48317909240723" rx="9.6000003814697266" ry="9.6000003814697266" stroke="none" fill="#000000" transform="matrix(0.416667 0 0 0.416667 -277.062 -91.0791)" />
	<ellipse cx="1150.1163091659546" cy="695.48313045501709" rx="6.4000005722045898" ry="6.4000005722045898" stroke="none" fill="#FFFFFF" transform="matrix(0.416667 0 0 0.416667 -277.062 -91.0791)" />
	<ellipse cx="1329.8469486236572" cy="543.48317909240723" rx="9.6000003814697266" ry="9.6000003814697266" stroke="none" fill="#000000" transform="matrix(0.416667 0 0 0.416667 -277.062 -91.0791)" />
	<ellipse cx="1329.8468999862671" cy="543.48313045501709" rx="6.4000005722045898" ry="6.4000005722045898" stroke="none" fill="#FFFFFF" transform="matrix(0.416667 0 0 0.416667 -277.062 -91.0791)" />
	<ellipse cx="1467.3371829986572" cy="762.14968299865723" rx="9.6000003814697266" ry="9.6000003814697266" stroke="none" fill="#000000" transform="matrix(0.416667 0 0 0.416667 -277.062 -91.0791)" />
	<ellipse cx="1467.3371343612671" cy="762.14963436126709" rx="6.4000005722045898" ry="6.4000005722045898" stroke="none" fill="#FFFFFF" transform="matrix(0.416667 0 0 0.416667 -277.062 -91.0791)" />
	<ellipse cx="1490.0041751861572" cy="430.14943885803223" rx="9.6000003814697266" ry="9.6000003814697266" stroke="none" fill="#000000" transform="matrix(0.416667 0 0 0.416667 -277.062 -91.0791)" />
	<ellipse cx="1490.0041265487671" cy="430.14945125579834" rx="6.4000005722045898" ry="6.4000005722045898" stroke="none" fill="#FFFFFF" transform="matrix(0.416667 0 0 0.416667 -277.062 -91.0791)" />
	<ellipse cx="1078.0044193267822" cy="311.92916297912598" rx="9.6000003814697266" ry="9.6000003814697266" stroke="none" fill="#000000" transform="matrix(0.416667 0 0 0.416667 -277.062 -91.0791)" />
	<ellipse cx="1078.0043706893921" cy="311.92917537689209" rx="6.4000005722045898" ry="6.4000005722045898" stroke="none" fill="#FFFFFF" transform="matrix(0.416667 0 0 0.416667 -277.062 -91.0791)" />
	<g transform="matrix(1 0 -0 1 160.905 9.00001)">
		<svg width="23.9688396" height="45.0428467">
			<defs />
			<path d="M 6.82276 16.7669 C 5.68886 16.731, 4.58525 16.7131, 3.51251 16.7131, 2.44032 16.7131, 1.33672 16.731, 0.202257 16.7669 L 0.202257 15.9949, 0.840743 15.9949 C 1.04385 15.9955, 1.23517 15.9927, 1.41358 15.9865, 1.59256 15.9809, 1.762 15.9657, 1.92247 15.9416, 2.08293 15.918, 2.22151 15.8939, 2.33821 15.8692, 2.43696 15.8518, 2.51887 15.7969, 2.58339 15.7037, 2.64848 15.6111, 2.68046 15.5079, 2.68046 15.3935 L 2.68046 5.27643 C 2.37244 5.4268, 1.99316 5.54069, 1.54319 5.61812, 1.09322 5.6961, 0.600048 5.73482, 0.0636752 5.73426 L 0.0636752 4.97122 C 0.803713 4.97178, 1.48652 4.88369, 2.1121 4.70696, 2.73768 4.53078, 3.27855 4.19976, 3.73469 3.71444 L 4.02139 3.71444 C 4.22449 3.715, 4.32604 3.81375, 4.32604 4.01068 L 4.32604 15.3935 C 4.32604 15.5135, 4.3569 15.6184, 4.41862 15.7082, 4.48034 15.798, 4.57011 15.8518, 4.68681 15.8692, 4.78555 15.8939, 4.91235 15.918, 5.06608 15.9416, 5.22037 15.9657, 5.3943 15.9809, 5.58843 15.9865, 5.78256 15.9927, 5.97219 15.9955, 6.15678 15.9949 L 6.82276 15.9949, 6.82276 16.7669 Z" stroke="none" fill="#000000" />
			<rect />
		</svg>
	</g>
	<g transform="matrix(1 0 -0 1 354.101 67.684)">
		<svg width="30.0150681" height="45.0428467">
			<defs />
			<path d="M 7.60755 16.7669 L 0.0814935 16.7669, 0.0814935 16.2732 C 0.0814935 16.2379, 0.100008 16.184, 0.137038 16.1116 L 3.16059 12.826 C 3.51798 12.4316, 3.87987 12.0277, 4.2468 11.6147, 4.61373 11.2018, 4.94251 10.7799, 5.23202 10.349, 5.52153 9.91808, 5.75268 9.47372, 5.92549 9.01589, 6.0983 8.55807, 6.18414 8.0778, 6.18414 7.57453, 6.18414 7.15037, 6.12859 6.7537, 6.0175 6.38565, 5.90641 6.01759, 5.74651 5.69442, 5.53668 5.41613, 5.3274 5.13785, 5.06539 4.91343, 4.75119 4.74286, 4.437 4.5723, 4.07287 4.48702, 3.65993 4.48646, 3.04389 4.48702, 2.49966 4.67105, 2.02781 5.0391, 1.55652 5.40716, 1.24345 5.8128, 1.08916 6.25492, 1.05886 6.26726, 1.10823 6.27343, 1.23728 6.27287 L 1.39437 6.27287 C 1.57952 6.31551, 1.73942 6.38004, 1.8752 6.46644, 2.01098 6.5534, 2.12487 6.67291, 2.21745 6.82552, 2.31002 6.97812, 2.35603 7.16215, 2.35603 7.37704, 2.35603 7.73668, 2.23933 8.01216, 2.00481 8.20348, 1.77028 8.39536, 1.50827 8.49074, 1.21876 8.49018, 0.941598 8.49074, 0.682388 8.39536, 0.442255 8.20348, 0.202121 8.01216, 0.0814935 7.73668, 0.0814935 7.37704, 0.0814935 6.87489, 0.18024 6.39911, 0.377733 5.95026, 0.575226 5.50142, 0.842851 5.1126, 1.18173 4.78326, 1.52061 4.45448, 1.92121 4.19415, 2.38352 4.00226, 2.84583 3.81094, 3.3362 3.715, 3.85406 3.71444, 4.49535 3.715, 5.08278 3.80926, 5.61578 3.99778, 6.14879 4.18629, 6.60325 4.45728, 6.97916 4.81019, 7.35507 5.16366, 7.64963 5.57211, 7.86227 6.03554, 8.07491 6.49954, 8.18095 7.01235, 8.18095 7.57453, 8.18095 8.19731, 8.03956 8.77071, 7.75567 9.29418, 7.47233 9.81821, 7.12111 10.2985, 6.702 10.735, 6.28288 11.172, 5.8374 11.5833, 5.36555 11.9693, 4.89426 12.3553, 4.4673 12.7307, 4.08521 13.0954 L 1.95824 15.0972, 4.74165 15.0972 C 5.12991 15.0978, 5.49235 15.095, 5.82787 15.0888, 6.16394 15.0832, 6.44896 15.0708, 6.68348 15.0529, 6.918 15.0349, 7.03807 15.0232, 7.04368 15.0164, 7.09305 14.9749, 7.13962 14.8913, 7.18282 14.7656, 7.22603 14.64, 7.26586 14.4918, 7.30289 14.3213, 7.33992 14.1507, 7.37695 13.9773, 7.41398 13.8006, 7.45101 13.6244, 7.48467 13.4309, 7.51553 13.221 L 8.19946 13.221 Z" stroke="none" fill="#000000" />
			<rect />
		</svg>
	</g>
	<g transform="matrix(1 0 -0 1 332.163 233.927)">
		<svg width="30.0150681" height="47.9999886">
			<defs />
			<path d="M 8.50734 13.3826 C 8.50734 13.8977, 8.39344 14.392, 8.16565 14.8644, 7.93786 15.3374, 7.63265 15.7413, 7.25 16.0757, 6.81855 16.4533, 6.34221 16.7327, 5.82155 16.9151, 5.30088 17.098, 4.75666 17.1888, 4.18942 17.1888, 3.67774 17.1888, 3.17896 17.117, 2.69196 16.9734, 2.20496 16.8298, 1.76621 16.6239, 1.37459 16.3546, 0.982969 16.0852, 0.670459 15.7548, 0.435936 15.3626, 0.201413 14.971, 0.0841516 14.5204, 0.0841516 14.011, 0.0841516 13.6284, 0.212073 13.3428, 0.467916 13.1543, 0.723759 12.9658, 0.993629 12.8715, 1.27696 12.8709, 1.5732 12.8715, 1.84868 12.9658, 2.10453 13.1543, 2.36037 13.3428, 2.48829 13.6284, 2.48829 14.011, 2.48829 14.2388, 2.44397 14.429, 2.3542 14.5816, 2.26499 14.7342, 2.15109 14.8616, 2.01195 14.9631, 1.87337 15.0652, 1.71459 15.1275, 1.53561 15.1511, 1.4436 15.1758, 1.3572 15.1875, 1.27696 15.187, 1.19729 15.1875, 1.18495 15.1937, 1.23993 15.2049, 1.43126 15.5405, 1.80717 15.8373, 2.36822 16.0942, 2.92928 16.3517, 3.53635 16.4802, 4.18942 16.4797, 4.49801 16.4802, 4.78583 16.4039, 5.05402 16.2513, 5.3222 16.0987, 5.54607 15.8939, 5.72448 15.6358, 5.94666 15.3014, 6.09759 14.9424, 6.17782 14.5592, 6.25805 14.1765, 6.29789 13.7843, 6.29789 13.3826, 6.29789 12.9702, 6.25805 12.5741, 6.17782 12.1937, 6.09759 11.8139, 5.94666 11.4621, 5.72448 11.1384, 5.53933 10.8758, 5.31435 10.6632, 5.04953 10.5016, 4.78471 10.34, 4.49801 10.2592, 4.18942 10.2586 L 2.84905 10.2586 C 2.67064 10.2592, 2.57469 10.1756, 2.56235 10.0073 L 2.56235 9.90854 C 2.56235 9.83728, 2.58423 9.78062, 2.62687 9.73798, 2.68242 9.68468, 2.75311 9.65775, 2.83951 9.65718, 3.01849 9.63362, 3.20364 9.62184, 3.3944 9.62128, 3.57955 9.62184, 3.76134 9.61005, 3.93975 9.58537, 4.27302 9.5618, 4.56253 9.45913, 4.80939 9.27623, 5.05626 9.09388, 5.26273 8.86048, 5.4288 8.57602, 5.59488 8.29213, 5.72112 7.96447, 5.80752 7.59305, 5.89392 7.22219, 5.93712 6.84179, 5.93712 6.45241, 5.93712 6.16571, 5.90627 5.8936, 5.84455 5.63607, 5.78283 5.37911, 5.66894 5.15412, 5.5023 4.96224, 5.15725 4.56781, 4.71963 4.37313, 4.18942 4.37874, 3.62275 4.3793, 3.10321 4.4859, 2.63192 4.69798, 2.16063 4.91062, 1.8442 5.13953, 1.68373 5.38415, 1.64109 5.39089, 1.66241 5.39369, 1.74882 5.39313, 1.97099 5.39369, 2.18027 5.45934, 2.3772 5.59062, 2.67344 5.76455, 2.821 6.05799, 2.821 6.47037, 2.821 6.81822, 2.70879 7.08024, 2.4838 7.25641, 2.25882 7.43314, 2.00746 7.52123, 1.7303 7.52067, 1.45875 7.52123, 1.20459 7.43483, 0.967259 7.2609, 0.729931 7.08753, 0.610986 6.82383, 0.610986 6.47037, 0.610986 6.03386, 0.715905 5.64841, 0.925741 5.3129, 1.13558 4.97795, 1.40489 4.69069, 1.73479 4.45111, 2.06469 4.2121, 2.44509 4.0292, 2.87654 3.90352, 3.30856 3.77784, 3.74619 3.715, 4.18942 3.71444, 4.66408 3.715, 5.12359 3.77784, 5.56739 3.90352, 6.01118 4.0292, 6.4303 4.22388, 6.82472 4.48646, 7.14565 4.71425, 7.41496 4.99422, 7.63377 5.32637, 7.85258 5.65851, 7.96199 6.03386, 7.96199 6.45241, 7.96199 6.87208, 7.88681 7.26707, 7.73588 7.63793, 7.58496 8.00935, 7.38466 8.34431, 7.13499 8.64335, 6.88532 8.94296, 6.58795 9.20609, 6.24234 9.43332, 5.89729 9.66111, 5.63808 9.80418, 5.46527 9.86365, 5.61339 9.88217, 5.86643 9.97082, 6.22383 10.129, 6.58178 10.2878, 6.92347 10.4988, 7.25 10.7613, 7.63265 11.0913, 7.93786 11.4846, 8.16565 11.9424, 8.39344 12.4002, 8.50734 12.8805, 8.50734 13.3826 Z" stroke="none" fill="#000000" />
			<rect />
		</svg>
	</g>
	<g transform="matrix(1 0 -0 1 192.44 206.346)">
		<svg width="32.9738617" height="45.0428467">
			<defs />
			<path d="M 7.08336 13.5711 L 7.08336 15.3935 C 7.08336 15.5017, 7.10356 15.6022, 7.14339 15.6947, 7.18379 15.7879, 7.24999 15.849, 7.34201 15.8782, 7.48452 15.9444, 7.71567 15.9809, 8.03604 15.9865, 8.3564 15.9927, 8.68013 15.9955, 9.00667 15.9949 L 9.00667 16.7669 C 8.06353 16.731, 7.1389 16.7131, 6.23279 16.7131, 5.33902 16.7131, 4.39869 16.731, 3.41234 16.7669 L 3.41234 15.9949 C 3.75179 15.9955, 4.07888 15.9927, 4.39308 15.9865, 4.70727 15.9809, 4.94179 15.9444, 5.09552 15.8782, 5.1881 15.849, 5.25599 15.7879, 5.29919 15.6947, 5.34239 15.6022, 5.36371 15.5017, 5.36371 15.3935 L 5.36371 13.5711, 0.0931168 13.5711, 0.0931168 12.844, 6.26982 3.66058 C 6.35005 3.55342, 6.4516 3.49956, 6.57504 3.49899 L 6.77814 3.49899 C 6.98181 3.49956, 7.08336 3.60111, 7.08336 3.80421 L 7.08336 12.7812, 9.07119 12.7812, 9.07119 13.5711 Z M 5.45628 6.02152 L 0.906653 12.7812, 5.45628 12.7812 Z" stroke="none" fill="#000000" />
			<rect />
		</svg>
	</g>
	<g transform="matrix(1 0 -0 1 258.807 116.209)">
		<svg width="30.0150681" height="47.9999886">
			<defs />
			<path d="M 8.18236 12.7991 C 8.18236 13.386, 8.07183 13.9459, 7.84965 14.4784, 7.62803 15.0114, 7.30767 15.49, 6.88799 15.9141, 6.46271 16.3276, 5.98357 16.6435, 5.45056 16.8612, 4.91755 17.08, 4.35144 17.1888, 3.75335 17.1888, 3.23606 17.1888, 2.75355 17.0918, 2.30638 16.8971, 1.85978 16.703, 1.47153 16.437, 1.14162 16.0987, 0.811719 15.761, 0.553071 15.3688, 0.365116 14.9227, 0.177161 14.4772, 0.082903 14.0026, 0.082903 13.4993, 0.082903 13.1526, 0.198481 12.8911, 0.429638 12.7144, 0.660794 12.5382, 0.899806 12.4496, 1.14611 12.449, 1.40532 12.4496, 1.64882 12.5365, 1.87661 12.7099, 2.10496 12.8838, 2.21886 13.147, 2.21886 13.4993, 2.21886 13.7153, 2.17117 13.8966, 2.07579 14.043, 1.98041 14.19, 1.86314 14.3033, 1.724 14.3841, 1.58542 14.4649, 1.43001 14.5115, 1.2572 14.5227 L 1.14611 14.5227, 0.960961 14.5227 C 1.10291 15.026, 1.43281 15.4782, 1.95067 15.8788, 2.46853 16.2799, 3.06942 16.4802, 3.75335 16.4797, 4.11131 16.4802, 4.45973 16.3877, 4.79861 16.2019, 5.13749 16.0168, 5.41521 15.7711, 5.63066 15.4653, 5.88314 15.1006, 6.04528 14.6865, 6.11598 14.2225, 6.18667 13.7591, 6.22202 13.2844, 6.22202 12.7991, 6.22202 12.3088, 6.20687 11.838, 6.17601 11.3858, 6.14571 10.9342, 6.01891 10.5078, 5.79673 10.106, 5.63683 9.81316, 5.43204 9.56966, 5.18237 9.37497, 4.9327 9.18085, 4.65385 9.08322, 4.34527 9.08266, 3.75953 9.08322, 3.25121 9.2016, 2.81975 9.43781, 2.3883 9.67458, 2.03988 10.014, 1.77506 10.4561, 1.71951 10.5582, 1.63031 10.6093, 1.50687 10.6087 L 1.43281 10.6087 C 1.21737 10.6093, 1.10908 10.5106, 1.10908 10.3125 L 1.10908 4.01068 C 1.10908 3.85583, 1.19885 3.75708, 1.37727 3.71444, 1.40813 3.715, 1.43113 3.71837, 1.44684 3.72398, 1.46255 3.73015, 1.47601 3.73296, 1.48836 3.7324, 2.38212 4.13972, 3.30338 4.34339, 4.2527 4.34283, 5.21435 4.34339, 6.13617 4.13972, 7.0176 3.7324, 7.02994 3.73296, 7.04229 3.73015, 7.05463 3.72398, 7.06697 3.71837, 7.08549 3.715, 7.11017 3.71444, 7.31328 3.715, 7.41202 3.80758, 7.40585 3.99273, 7.40585 4.10101, 7.38734 4.17283, 7.35031 4.20817, 6.91268 4.80739, 6.35667 5.27587, 5.68172 5.61363, 5.00676 5.95195, 4.29029 6.12083, 3.53174 6.12027, 2.90335 6.12083, 2.3608 6.04901, 1.9041 5.90482 L 1.9041 9.33401 C 2.12011 9.10735, 2.44552 8.90536, 2.87978 8.72863, 3.31461 8.55246, 3.80329 8.46381, 4.34527 8.46325, 4.87547 8.46381, 5.3765 8.58388, 5.84779 8.82289, 6.31964 9.06246, 6.73426 9.37329, 7.09166 9.75593, 7.4614 10.1874, 7.73575 10.6648, 7.91417 11.1883, 8.09315 11.7123, 8.18236 12.2493, 8.18236 12.7991 Z" stroke="none" fill="#000000" />
			<rect />
		</svg>
	</g>
	<g transform="matrix(1 0 -0 1 9 106.473)">
		<svg width="30.0150681" height="47.9999886">
			<defs />
			<path d="M 8.62098 10.519 C 8.62098 11.3813, 8.56095 12.2386, 8.44088 13.0914, 8.32082 13.9442, 8.02345 14.7449, 7.5488 15.4922, 7.20992 16.0376, 6.75658 16.4561, 6.18991 16.749, 5.62324 17.0424, 5.00664 17.1888, 4.34066 17.1888, 3.69993 17.1888, 3.09455 17.0424, 2.52451 16.749, 1.95447 16.4561, 1.49945 16.0376, 1.16057 15.4922, 0.686478 14.7449, 0.389116 13.9442, 0.269049 13.0914, 0.148982 12.2386, 0.088388 11.3813, 0.088388 10.519, 0.088388 9.64596, 0.148982 8.77352, 0.269049 7.90275, 0.389116 7.03199, 0.686478 6.21677, 1.16057 5.45597, 1.49945 4.90613, 1.95279 4.47804, 2.51946 4.17283, 3.08669 3.86761, 3.69376 3.715, 4.34066 3.71444, 5.00046 3.715, 5.61482 3.86761, 6.18486 4.17283, 6.7549 4.47804, 7.20992 4.90613, 7.5488 5.45597, 8.02345 6.21677, 8.32082 7.03199, 8.44088 7.90275, 8.56095 8.77352, 8.62098 9.64596, 8.62098 10.519 Z M 6.79024 10.2048 C 6.79024 9.82831, 6.78744 9.43052, 6.78127 9.0114, 6.77566 8.59285, 6.75995 8.18272, 6.73526 7.78156, 6.71057 7.38097, 6.66625 7.00225, 6.60117 6.64598, 6.53665 6.29027, 6.4581 5.98617, 6.36552 5.73426, 6.18037 5.32805, 5.90938 4.99422, 5.55199 4.73389, 5.19459 4.47355, 4.79063 4.34339, 4.34066 4.34283, 3.90303 4.34339, 3.50748 4.47524, 3.1529 4.73837, 2.79887 5.00207, 2.529 5.33366, 2.34385 5.73426, 2.25183 5.98617, 2.17329 6.29027, 2.1082 6.64598, 2.04368 7.00225, 1.9988 7.38097, 1.97411 7.78156, 1.94942 8.18272, 1.93427 8.59285, 1.9281 9.0114, 1.92193 9.43052, 1.91856 9.82831, 1.91856 10.2048, 1.91856 10.6245, 1.92193 11.066, 1.9281 11.5294, 1.93427 11.9934, 1.94942 12.4423, 1.97411 12.876, 1.9988 13.3102, 2.04368 13.7215, 2.1082 14.1103, 2.17329 14.4997, 2.25183 14.8257, 2.34385 15.0882, 2.51665 15.5259, 2.78372 15.8849, 3.14392 16.166, 3.50412 16.4477, 3.90303 16.588, 4.34066 16.5874, 4.7968 16.588, 5.20525 16.4477, 5.56545 16.166, 5.92621 15.8849, 6.19272 15.5259, 6.36552 15.0882, 6.4581 14.8257, 6.53665 14.4997, 6.60117 14.1103, 6.66625 13.7215, 6.71057 13.3102, 6.73526 12.876, 6.75995 12.4423, 6.77566 11.9934, 6.78127 11.5294, 6.78744 11.066, 6.79024 10.6245, 6.79024 10.2048 Z" stroke="none" fill="#000000" />
			<rect />
		</svg>
	</g>
	<path d="M -4.70068 -9.58496 L 4.70129 9.58447" fill="none" stroke="#000000" stroke-width="1.28000009" stroke-linecap="round" stroke-linejoin="round" marker-end="url(#CustomMarker-01)" transform="matrix(0.416667 0 0 0.416667 106.58 182.75)" />
	<path d="M 10.7908 -1.24988 L -10.79 1.24988" fill="none" stroke="#000000" stroke-width="1.28000009" stroke-linecap="round" stroke-linejoin="round" marker-end="url(#CustomMarker-02)" transform="matrix(0.416667 0 0 0.416667 105.796 82.9754)" />
	<path d="M -8.86133 -6.11206 L 8.86035 6.11133" fill="none" stroke="#000000" stroke-width="1.28000009" stroke-linecap="round" stroke-linejoin="round" marker-end="url(#CustomMarker-03)" transform="matrix(0.416667 0 0 0.416667 268.066 60.3222)" />
	<path d="M -0.997559 11.8458 L 0.997559 -11.8459" fill="none" stroke="#000000" stroke-width="1.28000009" stroke-linecap="round" stroke-linejoin="round" marker-end="url(#CustomMarker-04)" transform="matrix(0.416667 0 0 0.416667 203.346 106.755)" />
	<path d="M 8.97498 -1.55713 L -8.97363 1.55566" fill="none" stroke="#000000" stroke-width="1.28000009" stroke-linecap="round" stroke-linejoin="round" marker-end="url(#CustomMarker-05)" transform="matrix(0.416667 0 0 0.416667 241.199 165.062)" />
	<path d="M -11.4609 1.32715 L 11.4609 -1.32715" fill="none" stroke="#000000" stroke-width="1.28000009" stroke-linecap="round" stroke-linejoin="round" marker-end="url(#CustomMarker-06)" transform="matrix(0.416667 0 0 0.416667 272.268 223.687)" />
	<path d="M 6.1416 3.79437 L -6.14258 -3.79449" fill="none" stroke="#000000" stroke-width="1.28000009" stroke-linecap="round" stroke-linejoin="round" marker-end="url(#CustomMarker-07)" transform="matrix(0.416667 0 0 0.416667 314.523 179.279)" />
	<path d="M 0.685547 3.94745 L -0.683594 -3.94708" fill="none" stroke="#000000" stroke-width="1.28000009" stroke-linecap="round" stroke-linejoin="round" marker-end="url(#CustomMarker-08)" transform="matrix(0.416667 0 0 0.416667 354.107 144.628)" />
	<g transform="matrix(1 0 -0 1 80.5024 169.662)">
		<svg width="44.9376793" height="41.9571342">
			<defs />
			<path d="M 6.58759 16.7693 C 6.45591 17.2823, 6.24809 17.7724, 5.96527 18.2395, 5.68245 18.7067, 5.34868 19.1223, 4.9651 19.4853, 4.58151 19.8488, 4.15099 20.1437, 3.67294 20.3693, 3.19489 20.5954, 2.69796 20.7082, 2.18155 20.7082, 1.87354 20.7082, 1.59072 20.6521, 1.33252 20.5387, 1.07489 20.4259, 0.864208 20.2731, 0.70047 20.0807, 0.536732 19.8883, 0.42681 19.6611, 0.370132 19.3983, 0.344941 19.2826, 0.332346 19.1635, 0.332346 19.041, 0.332346 18.8824, 0.351239 18.7204, 0.389025 18.5555, 0.458298 18.2807, 0.599708 18.0746, 0.813827 17.9372, 1.02795 17.7998, 1.23863 17.7311, 1.44588 17.7311, 1.66629 17.7311, 1.85179 17.8015, 2.00236 17.9418, 2.10942 18.046, 2.16266 18.18, 2.16266 18.3449, 2.16266 18.4124, 2.15006 18.4949, 2.12487 18.5922, 2.05617 18.867, 1.91476 19.0731, 1.70064 19.2105, 1.48653 19.3479, 1.31706 19.4166, 1.19111 19.4166, 1.2289 19.5815, 1.34683 19.7361, 1.54492 19.8792, 1.74301 20.0229, 1.99606 20.0944, 2.30407 20.0944, 2.64414 20.0944, 2.96188 20.0028, 3.2573 19.8196, 3.55329 19.6364, 3.82408 19.3908, 4.06912 19.0823, 4.31415 18.7742, 4.52942 18.417, 4.71491 18.0105, 4.9004 17.6046, 5.04983 17.1787, 5.16318 16.7327 L 5.21986 16.5128 C 5.12597 16.5987, 4.92788 16.7103, 4.6256 16.8472, 4.32388 16.9846, 3.99355 17.0533, 3.63458 17.0533, 3.20749 17.0533, 2.82505 16.9743, 2.48842 16.8151, 2.15178 16.6571, 1.88614 16.4126, 1.69091 16.0823, 1.50256 15.7285, 1.41153 15.338, 1.41725 14.9098 L 1.41725 14.8365 C 1.42985 14.3911, 1.48653 13.9486, 1.58729 13.5083, 1.68805 13.0875, 1.83461 12.6238, 2.0264 12.1165, 2.21819 11.6099, 2.40197 11.1181, 2.57773 10.6412, 2.76666 10.1351, 2.86112 9.71943, 2.86112 9.39539, 2.86112 9.12116, 2.7449 8.98375, 2.51189 8.98318, 2.29834 8.98375, 2.10484 9.04501, 1.93194 9.16696, 1.75904 9.28947, 1.6016 9.45894, 1.46019 9.67535, 1.31878 9.89233, 1.19111 10.1488, 1.07775 10.4448, 0.964397 10.7414, 0.870505 11.0568, 0.794934 11.3923, 0.72566 11.5578, 0.609441 11.6431, 0.445703 11.6488 L 0.228722 11.6488 C 0.0775793 11.6494, 0.00200802 11.5732, 0.00200802 11.4198 L 0.00200802 11.3557 C 0.0901745 11.0202, 0.206967 10.6772, 0.351239 10.3257, 0.496084 9.97477, 0.678715 9.65588, 0.898558 9.36848, 1.11897 9.08165, 1.37088 8.84349, 1.6537 8.65399, 1.93652 8.46506, 2.26056 8.37002, 2.62525 8.36945, 2.94013 8.37002, 3.20863 8.43758, 3.43191 8.57155, 3.65519 8.70609, 3.82523 8.88471, 3.94145 9.10742, 4.05824 9.33069, 4.12236 9.58203, 4.13496 9.86256 L 4.13496 9.92668 C 4.13496 10.19, 4.08171 10.4614, 3.97408 10.7419, 3.79202 11.2188, 3.61168 11.706, 3.43191 12.2035, 3.25272 12.7016, 3.11303 13.1488, 3.01226 13.5455, 2.9115 13.9428, 2.84223 14.3361, 2.80444 14.7266, 2.77925 14.8308, 2.76379 14.9442, 2.7575 15.0655, 2.7575 15.3043, 2.79872 15.5396, 2.88001 15.7709, 2.93669 15.9792, 3.04032 16.1441, 3.19146 16.2661, 3.3426 16.3886, 3.5218 16.4493, 3.72905 16.4487, 4.13209 16.4493, 4.48419 16.3302, 4.7859 16.092, 5.08818 15.8539, 5.35211 15.5424, 5.57825 15.1571 L 7.09712 9.24883 C 7.15437 9.02326, 7.26887 8.85723, 7.44177 8.75017, 7.61467 8.64368, 7.78929 8.58987, 7.96505 8.58929, 8.14768 8.58987, 8.29882 8.64483, 8.41847 8.75418, 8.50034 8.83433, 8.54099 8.94081, 8.54099 9.07478, 8.54099 9.14234, 8.53469 9.21276, 8.5221 9.28547 Z" stroke="none" fill="#000000" />
			<path d="M 2.37714 3.19713 C 1.7292 3.17661, 1.09857 3.16635, 0.485571 3.16635, -0.127106 3.16635, -0.757737 3.17661, -1.406 3.19713 L -1.406 2.75598, -1.04115 2.75598 C -0.925093 2.7563, -0.815766 2.75469, -0.713814 2.75117, -0.611541 2.74796, -0.514718 2.7393, -0.423025 2.72552, -0.331331 2.71205, -0.252142 2.69827, -0.185456 2.68416, -0.12903 2.67422, -0.082221 2.6428, -0.0453515 2.58958, -0.00816131 2.53668, 0.0101132 2.47769, 0.0101132 2.41229 L 0.0101132 -3.36887 C -0.165899 -3.28295, -0.382628 -3.21787, -0.639754 -3.17362, -0.89688 -3.12906, -1.17869 -3.10694, -1.48519 -3.10726 L -1.48519 -3.54328 C -1.06231 -3.54296, -0.672135 -3.59329, -0.31466 -3.69429, 0.042815 -3.79496, 0.351879 -3.98411, 0.612531 -4.26144 L 0.77636 -4.26144 C 0.89242 -4.26112, 0.950449 -4.20469, 0.950449 -4.09216 L 0.950449 2.41229 C 0.950449 2.4809, 0.968082 2.54085, 1.00335 2.59215, 1.03862 2.64344, 1.08991 2.67422, 1.1566 2.68416, 1.21302 2.69827, 1.28548 2.71205, 1.37333 2.72552, 1.46149 2.7393, 1.56088 2.74796, 1.67181 2.75117, 1.78274 2.75469, 1.89111 2.7563, 1.99658 2.75598 L 2.37714 2.75598, 2.37714 3.19713 Z" stroke="none" fill="#000000" transform="matrix(1.12 0 0 1 11.002 16.3063)" />
			<rect />
		</svg>
	</g>
	<g transform="matrix(1 0 -0 1 178.752 95.5205)">
		<svg width="48.0251122" height="41.9571342">
			<defs />
			<path d="M 6.58759 16.7693 C 6.45591 17.2823, 6.24809 17.7724, 5.96527 18.2395, 5.68245 18.7067, 5.34868 19.1223, 4.9651 19.4853, 4.58151 19.8488, 4.15099 20.1437, 3.67294 20.3693, 3.19489 20.5954, 2.69796 20.7082, 2.18155 20.7082, 1.87354 20.7082, 1.59072 20.6521, 1.33252 20.5387, 1.07489 20.4259, 0.864208 20.2731, 0.70047 20.0807, 0.536732 19.8883, 0.42681 19.6611, 0.370132 19.3983, 0.344941 19.2826, 0.332346 19.1635, 0.332346 19.041, 0.332346 18.8824, 0.351239 18.7204, 0.389025 18.5555, 0.458298 18.2807, 0.599708 18.0746, 0.813827 17.9372, 1.02795 17.7998, 1.23863 17.7311, 1.44588 17.7311, 1.66629 17.7311, 1.85179 17.8015, 2.00236 17.9418, 2.10942 18.046, 2.16266 18.18, 2.16266 18.3449, 2.16266 18.4124, 2.15006 18.4949, 2.12487 18.5922, 2.05617 18.867, 1.91476 19.0731, 1.70064 19.2105, 1.48653 19.3479, 1.31706 19.4166, 1.19111 19.4166, 1.2289 19.5815, 1.34683 19.7361, 1.54492 19.8792, 1.74301 20.0229, 1.99606 20.0944, 2.30407 20.0944, 2.64414 20.0944, 2.96188 20.0028, 3.2573 19.8196, 3.55329 19.6364, 3.82408 19.3908, 4.06912 19.0823, 4.31415 18.7742, 4.52942 18.417, 4.71491 18.0105, 4.9004 17.6046, 5.04983 17.1787, 5.16318 16.7327 L 5.21986 16.5128 C 5.12597 16.5987, 4.92788 16.7103, 4.6256 16.8472, 4.32388 16.9846, 3.99355 17.0533, 3.63458 17.0533, 3.20749 17.0533, 2.82505 16.9743, 2.48842 16.8151, 2.15178 16.6571, 1.88614 16.4126, 1.69091 16.0823, 1.50256 15.7285, 1.41153 15.338, 1.41725 14.9098 L 1.41725 14.8365 C 1.42985 14.3911, 1.48653 13.9486, 1.58729 13.5083, 1.68805 13.0875, 1.83461 12.6238, 2.0264 12.1165, 2.21819 11.6099, 2.40197 11.1181, 2.57773 10.6412, 2.76666 10.1351, 2.86112 9.71943, 2.86112 9.39539, 2.86112 9.12116, 2.7449 8.98375, 2.51189 8.98318, 2.29834 8.98375, 2.10484 9.04501, 1.93194 9.16696, 1.75904 9.28947, 1.6016 9.45894, 1.46019 9.67535, 1.31878 9.89233, 1.19111 10.1488, 1.07775 10.4448, 0.964397 10.7414, 0.870505 11.0568, 0.794934 11.3923, 0.72566 11.5578, 0.609441 11.6431, 0.445703 11.6488 L 0.228722 11.6488 C 0.0775793 11.6494, 0.00200802 11.5732, 0.00200802 11.4198 L 0.00200802 11.3557 C 0.0901745 11.0202, 0.206967 10.6772, 0.351239 10.3257, 0.496084 9.97477, 0.678715 9.65588, 0.898558 9.36848, 1.11897 9.08165, 1.37088 8.84349, 1.6537 8.65399, 1.93652 8.46506, 2.26056 8.37002, 2.62525 8.36945, 2.94013 8.37002, 3.20863 8.43758, 3.43191 8.57155, 3.65519 8.70609, 3.82523 8.88471, 3.94145 9.10742, 4.05824 9.33069, 4.12236 9.58203, 4.13496 9.86256 L 4.13496 9.92668 C 4.13496 10.19, 4.08171 10.4614, 3.97408 10.7419, 3.79202 11.2188, 3.61168 11.706, 3.43191 12.2035, 3.25272 12.7016, 3.11303 13.1488, 3.01226 13.5455, 2.9115 13.9428, 2.84223 14.3361, 2.80444 14.7266, 2.77925 14.8308, 2.76379 14.9442, 2.7575 15.0655, 2.7575 15.3043, 2.79872 15.5396, 2.88001 15.7709, 2.93669 15.9792, 3.04032 16.1441, 3.19146 16.2661, 3.3426 16.3886, 3.5218 16.4493, 3.72905 16.4487, 4.13209 16.4493, 4.48419 16.3302, 4.7859 16.092, 5.08818 15.8539, 5.35211 15.5424, 5.57825 15.1571 L 7.09712 9.24883 C 7.15437 9.02326, 7.26887 8.85723, 7.44177 8.75017, 7.61467 8.64368, 7.78929 8.58987, 7.96505 8.58929, 8.14768 8.58987, 8.29882 8.64483, 8.41847 8.75418, 8.50034 8.83433, 8.54099 8.94081, 8.54099 9.07478, 8.54099 9.14234, 8.53469 9.21276, 8.5221 9.28547 Z" stroke="none" fill="#000000" />
			<path d="M 2.39138 3.19713 L -1.90858 3.19713, -1.90858 2.915 C -1.90858 2.8948, -1.898 2.86402, -1.87684 2.82266 L -0.149418 0.945196 C 0.0551279 0.71981, 0.261918 0.488975, 0.471594 0.253009, 0.68127 0.0170434, 0.868504 -0.224052, 1.03394 -0.470277, 1.19937 -0.716502, 1.33146 -0.970422, 1.4302 -1.23204, 1.52895 -1.49365, 1.578 -1.76809, 1.578 -2.05567, 1.578 -2.29805, 1.54658 -2.52472, 1.4831 -2.73503, 1.41962 -2.94535, 1.32825 -3.13002, 1.20835 -3.28904, 1.08844 -3.44806, 0.938716 -3.5763, 0.759177 -3.67377, 0.579638 -3.77123, 0.371886 -3.81996, 0.13592 -3.82028, -0.216105 -3.81996, -0.527092 -3.7148, -0.7964 -3.50449, -1.06571 -3.29417, -1.24461 -3.06237, -1.33277 -2.80974, -1.35009 -2.80268, -1.32187 -2.79915, -1.24813 -2.79948 L -1.15836 -2.79948 C -1.05256 -2.77511, -0.961191 -2.73824, -0.883605 -2.68887, -0.806018 -2.63917, -0.740935 -2.57088, -0.688036 -2.48368, -0.635136 -2.39647, -0.608846 -2.29132, -0.608846 -2.16852, -0.608846 -1.96302, -0.675532 -1.8056, -0.809545 -1.69627, -0.943558 -1.58663, -1.09328 -1.53212, -1.25871 -1.53244, -1.41709 -1.53212, -1.56489 -1.58663, -1.70243 -1.69627, -1.83965 -1.8056, -1.90858 -1.96302, -1.90858 -2.16852, -1.90858 -2.45547, -1.85215 -2.72734, -1.7393 -2.98382, -1.62645 -3.24031, -1.47352 -3.46249, -1.27987 -3.65068, -1.08623 -3.83856, -0.857315 -3.98732, -0.593136 -4.09697, -0.328958 -4.20629, -0.0487483 -4.26112, 0.24685 -4.26144, 0.612981 -4.26112, 0.948655 -4.20725, 1.25323 -4.09953, 1.55781 -3.99181, 1.8175 -3.83695, 2.0323 -3.63529, 2.24711 -3.43331, 2.41543 -3.19991, 2.53693 -2.93509, 2.65844 -2.66995, 2.71904 -2.37692, 2.71904 -2.05567, 2.71904 -1.6998, 2.63825 -1.37214, 2.47602 -1.07302, 2.31411 -0.77357, 2.11342 -0.499131, 1.87392 -0.2497, 1.63443 5.126e-005, 1.37987 0.235055, 1.11056 0.455632, 0.841252 0.676208, 0.597272 0.890693, 0.378939 1.09909 L -0.836155 2.24301, 0.754048 2.24301 C 0.975907 2.24333, 1.18302 2.24172, 1.37474 2.2382, 1.56678 2.23499, 1.72965 2.22794, 1.86334 2.21768, 1.99736 2.20742, 2.06597 2.20069, 2.06917 2.19684, 2.09738 2.17312, 2.12399 2.12534, 2.14868 2.05353, 2.17337 1.98171, 2.19613 1.89707, 2.21729 1.79961, 2.23845 1.70215, 2.25961 1.60308, 2.28077 1.50209, 2.30193 1.40142, 2.32117 1.29081, 2.3388 1.1709 L 2.72962 1.1709 Z" stroke="none" fill="#000000" transform="matrix(1.12 0 0 1 11.4249 16.3063)" />
			<rect />
		</svg>
	</g>
	<g transform="matrix(1 0 -0 1 97.6021 52.8889)">
		<svg width="48.0251122" height="41.9571342">
			<defs />
			<path d="M 6.58759 16.7693 C 6.45591 17.2823, 6.24809 17.7724, 5.96527 18.2395, 5.68245 18.7067, 5.34868 19.1223, 4.9651 19.4853, 4.58151 19.8488, 4.15099 20.1437, 3.67294 20.3693, 3.19489 20.5954, 2.69796 20.7082, 2.18155 20.7082, 1.87354 20.7082, 1.59072 20.6521, 1.33252 20.5387, 1.07489 20.4259, 0.864208 20.2731, 0.70047 20.0807, 0.536732 19.8883, 0.42681 19.6611, 0.370132 19.3983, 0.344941 19.2826, 0.332346 19.1635, 0.332346 19.041, 0.332346 18.8824, 0.351239 18.7204, 0.389025 18.5555, 0.458298 18.2807, 0.599708 18.0746, 0.813827 17.9372, 1.02795 17.7998, 1.23863 17.7311, 1.44588 17.7311, 1.66629 17.7311, 1.85179 17.8015, 2.00236 17.9418, 2.10942 18.046, 2.16266 18.18, 2.16266 18.3449, 2.16266 18.4124, 2.15006 18.4949, 2.12487 18.5922, 2.05617 18.867, 1.91476 19.0731, 1.70064 19.2105, 1.48653 19.3479, 1.31706 19.4166, 1.19111 19.4166, 1.2289 19.5815, 1.34683 19.7361, 1.54492 19.8792, 1.74301 20.0229, 1.99606 20.0944, 2.30407 20.0944, 2.64414 20.0944, 2.96188 20.0028, 3.2573 19.8196, 3.55329 19.6364, 3.82408 19.3908, 4.06912 19.0823, 4.31415 18.7742, 4.52942 18.417, 4.71491 18.0105, 4.9004 17.6046, 5.04983 17.1787, 5.16318 16.7327 L 5.21986 16.5128 C 5.12597 16.5987, 4.92788 16.7103, 4.6256 16.8472, 4.32388 16.9846, 3.99355 17.0533, 3.63458 17.0533, 3.20749 17.0533, 2.82505 16.9743, 2.48842 16.8151, 2.15178 16.6571, 1.88614 16.4126, 1.69091 16.0823, 1.50256 15.7285, 1.41153 15.338, 1.41725 14.9098 L 1.41725 14.8365 C 1.42985 14.3911, 1.48653 13.9486, 1.58729 13.5083, 1.68805 13.0875, 1.83461 12.6238, 2.0264 12.1165, 2.21819 11.6099, 2.40197 11.1181, 2.57773 10.6412, 2.76666 10.1351, 2.86112 9.71943, 2.86112 9.39539, 2.86112 9.12116, 2.7449 8.98375, 2.51189 8.98318, 2.29834 8.98375, 2.10484 9.04501, 1.93194 9.16696, 1.75904 9.28947, 1.6016 9.45894, 1.46019 9.67535, 1.31878 9.89233, 1.19111 10.1488, 1.07775 10.4448, 0.964397 10.7414, 0.870505 11.0568, 0.794934 11.3923, 0.72566 11.5578, 0.609441 11.6431, 0.445703 11.6488 L 0.228722 11.6488 C 0.0775793 11.6494, 0.00200802 11.5732, 0.00200802 11.4198 L 0.00200802 11.3557 C 0.0901745 11.0202, 0.206967 10.6772, 0.351239 10.3257, 0.496084 9.97477, 0.678715 9.65588, 0.898558 9.36848, 1.11897 9.08165, 1.37088 8.84349, 1.6537 8.65399, 1.93652 8.46506, 2.26056 8.37002, 2.62525 8.36945, 2.94013 8.37002, 3.20863 8.43758, 3.43191 8.57155, 3.65519 8.70609, 3.82523 8.88471, 3.94145 9.10742, 4.05824 9.33069, 4.12236 9.58203, 4.13496 9.86256 L 4.13496 9.92668 C 4.13496 10.19, 4.08171 10.4614, 3.97408 10.7419, 3.79202 11.2188, 3.61168 11.706, 3.43191 12.2035, 3.25272 12.7016, 3.11303 13.1488, 3.01226 13.5455, 2.9115 13.9428, 2.84223 14.3361, 2.80444 14.7266, 2.77925 14.8308, 2.76379 14.9442, 2.7575 15.0655, 2.7575 15.3043, 2.79872 15.5396, 2.88001 15.7709, 2.93669 15.9792, 3.04032 16.1441, 3.19146 16.2661, 3.3426 16.3886, 3.5218 16.4493, 3.72905 16.4487, 4.13209 16.4493, 4.48419 16.3302, 4.7859 16.092, 5.08818 15.8539, 5.35211 15.5424, 5.57825 15.1571 L 7.09712 9.24883 C 7.15437 9.02326, 7.26887 8.85723, 7.44177 8.75017, 7.61467 8.64368, 7.78929 8.58987, 7.96505 8.58929, 8.14768 8.58987, 8.29882 8.64483, 8.41847 8.75418, 8.50034 8.83433, 8.54099 8.94081, 8.54099 9.07478, 8.54099 9.14234, 8.53469 9.21276, 8.5221 9.28547 Z" stroke="none" fill="#000000" />
			<path d="M 2.81931 1.26324 C 2.81931 1.55755, 2.75423 1.84001, 2.62406 2.10996, 2.4939 2.38023, 2.31949 2.61106, 2.10083 2.80214, 1.85461 3.01791, 1.58242 3.17757, 1.28489 3.28177, 0.987372 3.38629, 0.676384 3.43822, 0.352252 3.43822, 0.0601807 3.43822, -0.224838 3.39719, -0.503123 3.31511, -0.781409 3.23304, -1.03212 3.11537, -1.2559 2.96148, -1.47969 2.80759, -1.65826 2.61876, -1.79228 2.39465, -1.92597 2.17087, -1.99298 1.91342, -1.99298 1.62232, -1.99298 1.40366, -1.91988 1.24047, -1.77368 1.13275, -1.62749 1.02503, -1.4736 0.971165, -1.31169 0.970845, -1.14241 0.971165, -0.984993 1.02503, -0.838797 1.13275, -0.692601 1.24047, -0.619503 1.40366, -0.619503 1.62232, -0.619503 1.75248, -0.644831 1.86117, -0.696128 1.94837, -0.747104 2.03558, -0.812187 2.10835, -0.891697 2.16638, -0.970886 2.22473, -1.06162 2.26032, -1.16357 2.27379, -1.21615 2.28789, -1.26552 2.29462, -1.31169 2.2943, -1.35722 2.29462, -1.36427 2.29815, -1.33285 2.30456, -1.22352 2.49629, -1.00872 2.66589, -0.688112 2.81272, -0.367507 2.95988, -0.0209324 3.0333, 0.352252 3.03298, 0.528585 3.0333, 0.693056 2.9897, 0.846305 2.90249, 0.999555 2.81529, 1.12748 2.69827, 1.22943 2.55079, 1.35639 2.35971, 1.44263 2.15452, 1.48816 1.93555, 1.534 1.71689, 1.55677 1.49279, 1.55677 1.26324, 1.55677 1.02759, 1.534 0.801244, 1.48816 0.583874, 1.44263 0.366824, 1.35639 0.165804, 1.22943 -0.0191851, 1.12363 -0.169228, 0.995066 -0.290738, 0.84374 -0.383072, 0.692415 -0.475407, 0.528585 -0.521574, 0.352252 -0.521894 L -0.413674 -0.521894 C -0.515627 -0.521574, -0.57013 -0.569344, -0.577183 -0.665526 L -0.577183 -0.721952 C -0.577183 -0.762669, -0.564679 -0.79505, -0.540313 -0.819416, -0.508573 -0.849874, -0.468177 -0.865263, -0.418804 -0.865584, -0.316531 -0.879049, -0.211051 -0.885782, -0.102046 -0.886102, 0.00375414 -0.885782, 0.107951 -0.892514, 0.209903 -0.906621, 0.400023 -0.920087, 0.565455 -0.978757, 0.706201 -1.08327, 0.847267 -1.18747, 0.96525 -1.32084, 1.06015 -1.48339, 1.15537 -1.64562, 1.22751 -1.83285, 1.27688 -2.04509, 1.32625 -2.25701, 1.35094 -2.47438, 1.35094 -2.69688, 1.35094 -2.86071, 1.33331 -3.01621, 1.29804 -3.16336, 1.26277 -3.3102, 1.19769 -3.43876, 1.10247 -3.54841, 0.905297 -3.7738, 0.655225 -3.88505, 0.352252 -3.88184, 0.0284407 -3.88152, -0.268119 -3.8206, -0.537428 -3.69942, -0.806736 -3.57791, -0.987558 -3.4471, -1.07925 -3.30731, -1.10362 -3.30347, -1.09143 -3.30186, -1.04206 -3.30219, -0.915101 -3.30186, -0.795515 -3.26435, -0.682983 -3.18933, -0.513703 -3.08994, -0.429384 -2.92227, -0.429384 -2.68662, -0.429384 -2.48785, -0.493505 -2.33812, -0.622068 -2.23745, -0.75063 -2.13646, -0.894262 -2.08613, -1.05264 -2.08645, -1.20749 -2.08613, -1.35273 -2.1355, -1.48834 -2.23489, -1.62396 -2.33396, -1.69193 -2.48464, -1.69193 -2.68662, -1.69193 -2.93605, -1.63197 -3.15631, -1.51239 -3.34803, -1.39248 -3.53943, -1.23859 -3.70358, -1.05008 -3.84048, -0.86156 -3.97706, -0.644189 -4.08158, -0.397644 -4.15339, -0.151098 -4.22521, 0.098974 -4.26112, 0.352252 -4.26144, 0.623485 -4.26112, 0.88606 -4.22521, 1.13966 -4.15339, 1.39326 -4.08158, 1.63275 -3.97033, 1.85782 -3.82028, 2.0412 -3.69012, 2.19509 -3.53014, 2.32013 -3.34034, 2.44516 -3.15054, 2.50768 -2.93605, 2.50768 -2.69688, 2.50768 -2.45707, 2.46472 -2.23136, 2.37848 -2.01944, 2.29224 -1.8072, 2.17778 -1.6158, 2.03511 -1.44492, 1.89244 -1.27371, 1.72252 -1.12335, 1.52535 -0.993505, 1.32818 -0.863339, 1.18006 -0.781585, 1.08131 -0.747601, 1.16595 -0.737021, 1.31054 -0.686365, 1.51477 -0.595954, 1.71899 -0.505223, 1.91424 -0.384675, 2.10083 -0.234632, 2.31949 -0.0461159, 2.4939 0.178629, 2.62406 0.440243, 2.75423 0.701857, 2.81931 0.976295, 2.81931 1.26324 Z" stroke="none" fill="#000000" transform="matrix(1.12 0 0 1 11.5092 16.3063)" />
			<rect />
		</svg>
	</g>
	<g transform="matrix(1 0 -0 1 271.372 30.2573)">
		<svg width="50.9839096" height="41.9571342">
			<defs />
			<path d="M 6.58759 16.7693 C 6.45591 17.2823, 6.24809 17.7724, 5.96527 18.2395, 5.68245 18.7067, 5.34868 19.1223, 4.9651 19.4853, 4.58151 19.8488, 4.15099 20.1437, 3.67294 20.3693, 3.19489 20.5954, 2.69796 20.7082, 2.18155 20.7082, 1.87354 20.7082, 1.59072 20.6521, 1.33252 20.5387, 1.07489 20.4259, 0.864208 20.2731, 0.70047 20.0807, 0.536732 19.8883, 0.42681 19.6611, 0.370132 19.3983, 0.344941 19.2826, 0.332346 19.1635, 0.332346 19.041, 0.332346 18.8824, 0.351239 18.7204, 0.389025 18.5555, 0.458298 18.2807, 0.599708 18.0746, 0.813827 17.9372, 1.02795 17.7998, 1.23863 17.7311, 1.44588 17.7311, 1.66629 17.7311, 1.85179 17.8015, 2.00236 17.9418, 2.10942 18.046, 2.16266 18.18, 2.16266 18.3449, 2.16266 18.4124, 2.15006 18.4949, 2.12487 18.5922, 2.05617 18.867, 1.91476 19.0731, 1.70064 19.2105, 1.48653 19.3479, 1.31706 19.4166, 1.19111 19.4166, 1.2289 19.5815, 1.34683 19.7361, 1.54492 19.8792, 1.74301 20.0229, 1.99606 20.0944, 2.30407 20.0944, 2.64414 20.0944, 2.96188 20.0028, 3.2573 19.8196, 3.55329 19.6364, 3.82408 19.3908, 4.06912 19.0823, 4.31415 18.7742, 4.52942 18.417, 4.71491 18.0105, 4.9004 17.6046, 5.04983 17.1787, 5.16318 16.7327 L 5.21986 16.5128 C 5.12597 16.5987, 4.92788 16.7103, 4.6256 16.8472, 4.32388 16.9846, 3.99355 17.0533, 3.63458 17.0533, 3.20749 17.0533, 2.82505 16.9743, 2.48842 16.8151, 2.15178 16.6571, 1.88614 16.4126, 1.69091 16.0823, 1.50256 15.7285, 1.41153 15.338, 1.41725 14.9098 L 1.41725 14.8365 C 1.42985 14.3911, 1.48653 13.9486, 1.58729 13.5083, 1.68805 13.0875, 1.83461 12.6238, 2.0264 12.1165, 2.21819 11.6099, 2.40197 11.1181, 2.57773 10.6412, 2.76666 10.1351, 2.86112 9.71943, 2.86112 9.39539, 2.86112 9.12116, 2.7449 8.98375, 2.51189 8.98318, 2.29834 8.98375, 2.10484 9.04501, 1.93194 9.16696, 1.75904 9.28947, 1.6016 9.45894, 1.46019 9.67535, 1.31878 9.89233, 1.19111 10.1488, 1.07775 10.4448, 0.964397 10.7414, 0.870505 11.0568, 0.794934 11.3923, 0.72566 11.5578, 0.609441 11.6431, 0.445703 11.6488 L 0.228722 11.6488 C 0.0775793 11.6494, 0.00200802 11.5732, 0.00200802 11.4198 L 0.00200802 11.3557 C 0.0901745 11.0202, 0.206967 10.6772, 0.351239 10.3257, 0.496084 9.97477, 0.678715 9.65588, 0.898558 9.36848, 1.11897 9.08165, 1.37088 8.84349, 1.6537 8.65399, 1.93652 8.46506, 2.26056 8.37002, 2.62525 8.36945, 2.94013 8.37002, 3.20863 8.43758, 3.43191 8.57155, 3.65519 8.70609, 3.82523 8.88471, 3.94145 9.10742, 4.05824 9.33069, 4.12236 9.58203, 4.13496 9.86256 L 4.13496 9.92668 C 4.13496 10.19, 4.08171 10.4614, 3.97408 10.7419, 3.79202 11.2188, 3.61168 11.706, 3.43191 12.2035, 3.25272 12.7016, 3.11303 13.1488, 3.01226 13.5455, 2.9115 13.9428, 2.84223 14.3361, 2.80444 14.7266, 2.77925 14.8308, 2.76379 14.9442, 2.7575 15.0655, 2.7575 15.3043, 2.79872 15.5396, 2.88001 15.7709, 2.93669 15.9792, 3.04032 16.1441, 3.19146 16.2661, 3.3426 16.3886, 3.5218 16.4493, 3.72905 16.4487, 4.13209 16.4493, 4.48419 16.3302, 4.7859 16.092, 5.08818 15.8539, 5.35211 15.5424, 5.57825 15.1571 L 7.09712 9.24883 C 7.15437 9.02326, 7.26887 8.85723, 7.44177 8.75017, 7.61467 8.64368, 7.78929 8.58987, 7.96505 8.58929, 8.14768 8.58987, 8.29882 8.64483, 8.41847 8.75418, 8.50034 8.83433, 8.54099 8.94081, 8.54099 9.07478, 8.54099 9.14234, 8.53469 9.21276, 8.5221 9.28547 Z" stroke="none" fill="#000000" />
			<path d="M 1.84803 1.37096 L 1.84803 2.41229 C 1.84803 2.47416, 1.85957 2.53155, 1.88265 2.58445, 1.90574 2.63767, 1.94357 2.67262, 1.99615 2.68929, 2.07726 2.72712, 2.20935 2.74796, 2.39242 2.75117, 2.57548 2.75469, 2.76015 2.7563, 2.94674 2.75598 L 2.94674 3.19713 C 2.40813 3.17661, 1.88009 3.16635, 1.36199 3.16635, 0.851588 3.16635, 0.314573 3.17661, -0.249051 3.19713 L -0.249051 2.75598 C -0.0554054 2.7563, 0.131508 2.75469, 0.311047 2.75117, 0.490586 2.74796, 0.624599 2.72712, 0.712445 2.68929, 0.765345 2.67262, 0.804138 2.63767, 0.828825 2.58445, 0.853511 2.53155, 0.865694 2.47416, 0.865694 2.41229 L 0.865694 1.37096, -2.14543 1.37096, -2.14543 0.955456, 1.38315 -4.29221 C 1.42932 -4.35345, 1.48735 -4.38423, 1.55756 -4.38455 L 1.67394 -4.38455 C 1.79 -4.38423, 1.84803 -4.3262, 1.84803 -4.21014 L 1.84803 0.919548, 2.98393 0.919548, 2.98393 1.37096 Z M 0.918273 -2.94311 L -1.68055 0.919548, 0.918273 0.919548 Z" stroke="none" fill="#000000" transform="matrix(1.12 0 0 1 11.6624 16.3063)" />
			<rect />
		</svg>
	</g>
	<path d="M 11.4268 -3.17798 L -11.4277 3.17761" fill="none" stroke="#000000" stroke-width="1.28000009" stroke-linecap="round" stroke-linejoin="round" marker-end="url(#CustomMarker-09)" transform="matrix(0.416667 0 0 0.416667 315.59 116.39)" />
	<g transform="matrix(1 0 -0 1 299.734 90.5539)">
		<svg width="48.0251122" height="41.9571342">
			<defs />
			<path d="M 6.58759 16.7693 C 6.45591 17.2823, 6.24809 17.7724, 5.96527 18.2395, 5.68245 18.7067, 5.34868 19.1223, 4.9651 19.4853, 4.58151 19.8488, 4.15099 20.1437, 3.67294 20.3693, 3.19489 20.5954, 2.69796 20.7082, 2.18155 20.7082, 1.87354 20.7082, 1.59072 20.6521, 1.33252 20.5387, 1.07489 20.4259, 0.864208 20.2731, 0.70047 20.0807, 0.536732 19.8883, 0.42681 19.6611, 0.370132 19.3983, 0.344941 19.2826, 0.332346 19.1635, 0.332346 19.041, 0.332346 18.8824, 0.351239 18.7204, 0.389025 18.5555, 0.458298 18.2807, 0.599708 18.0746, 0.813827 17.9372, 1.02795 17.7998, 1.23863 17.7311, 1.44588 17.7311, 1.66629 17.7311, 1.85179 17.8015, 2.00236 17.9418, 2.10942 18.046, 2.16266 18.18, 2.16266 18.3449, 2.16266 18.4124, 2.15006 18.4949, 2.12487 18.5922, 2.05617 18.867, 1.91476 19.0731, 1.70064 19.2105, 1.48653 19.3479, 1.31706 19.4166, 1.19111 19.4166, 1.2289 19.5815, 1.34683 19.7361, 1.54492 19.8792, 1.74301 20.0229, 1.99606 20.0944, 2.30407 20.0944, 2.64414 20.0944, 2.96188 20.0028, 3.2573 19.8196, 3.55329 19.6364, 3.82408 19.3908, 4.06912 19.0823, 4.31415 18.7742, 4.52942 18.417, 4.71491 18.0105, 4.9004 17.6046, 5.04983 17.1787, 5.16318 16.7327 L 5.21986 16.5128 C 5.12597 16.5987, 4.92788 16.7103, 4.6256 16.8472, 4.32388 16.9846, 3.99355 17.0533, 3.63458 17.0533, 3.20749 17.0533, 2.82505 16.9743, 2.48842 16.8151, 2.15178 16.6571, 1.88614 16.4126, 1.69091 16.0823, 1.50256 15.7285, 1.41153 15.338, 1.41725 14.9098 L 1.41725 14.8365 C 1.42985 14.3911, 1.48653 13.9486, 1.58729 13.5083, 1.68805 13.0875, 1.83461 12.6238, 2.0264 12.1165, 2.21819 11.6099, 2.40197 11.1181, 2.57773 10.6412, 2.76666 10.1351, 2.86112 9.71943, 2.86112 9.39539, 2.86112 9.12116, 2.7449 8.98375, 2.51189 8.98318, 2.29834 8.98375, 2.10484 9.04501, 1.93194 9.16696, 1.75904 9.28947, 1.6016 9.45894, 1.46019 9.67535, 1.31878 9.89233, 1.19111 10.1488, 1.07775 10.4448, 0.964397 10.7414, 0.870505 11.0568, 0.794934 11.3923, 0.72566 11.5578, 0.609441 11.6431, 0.445703 11.6488 L 0.228722 11.6488 C 0.0775793 11.6494, 0.00200802 11.5732, 0.00200802 11.4198 L 0.00200802 11.3557 C 0.0901745 11.0202, 0.206967 10.6772, 0.351239 10.3257, 0.496084 9.97477, 0.678715 9.65588, 0.898558 9.36848, 1.11897 9.08165, 1.37088 8.84349, 1.6537 8.65399, 1.93652 8.46506, 2.26056 8.37002, 2.62525 8.36945, 2.94013 8.37002, 3.20863 8.43758, 3.43191 8.57155, 3.65519 8.70609, 3.82523 8.88471, 3.94145 9.10742, 4.05824 9.33069, 4.12236 9.58203, 4.13496 9.86256 L 4.13496 9.92668 C 4.13496 10.19, 4.08171 10.4614, 3.97408 10.7419, 3.79202 11.2188, 3.61168 11.706, 3.43191 12.2035, 3.25272 12.7016, 3.11303 13.1488, 3.01226 13.5455, 2.9115 13.9428, 2.84223 14.3361, 2.80444 14.7266, 2.77925 14.8308, 2.76379 14.9442, 2.7575 15.0655, 2.7575 15.3043, 2.79872 15.5396, 2.88001 15.7709, 2.93669 15.9792, 3.04032 16.1441, 3.19146 16.2661, 3.3426 16.3886, 3.5218 16.4493, 3.72905 16.4487, 4.13209 16.4493, 4.48419 16.3302, 4.7859 16.092, 5.08818 15.8539, 5.35211 15.5424, 5.57825 15.1571 L 7.09712 9.24883 C 7.15437 9.02326, 7.26887 8.85723, 7.44177 8.75017, 7.61467 8.64368, 7.78929 8.58987, 7.96505 8.58929, 8.14768 8.58987, 8.29882 8.64483, 8.41847 8.75418, 8.50034 8.83433, 8.54099 8.94081, 8.54099 9.07478, 8.54099 9.14234, 8.53469 9.21276, 8.5221 9.28547 Z" stroke="none" fill="#000000" />
			<path d="M 2.71629 0.929807 C 2.71629 1.26516, 2.65313 1.58512, 2.52617 1.88938, 2.39954 2.19395, 2.21647 2.46743, 1.97666 2.70981, 1.73364 2.94609, 1.45984 3.1266, 1.15527 3.25099, 0.850691 3.37603, 0.527841 3.43822, 0.186076 3.43822, -0.109523 3.43822, -0.385243 3.38276, -0.640445 3.27151, -0.895647 3.16058, -1.11751 3.00861, -1.30602 2.81529, -1.49454 2.62228, -1.64234 2.39818, -1.75006 2.1433, -1.85746 1.88874, -1.91133 1.61751, -1.91133 1.32992, -1.91133 1.13179, -1.84528 0.982387, -1.71319 0.881396, -1.5811 0.780726, -1.44452 0.73007, -1.30378 0.729749, -1.15566 0.73007, -1.01652 0.779764, -0.88635 0.878831, -0.755863 0.978219, -0.69078 1.12858, -0.69078 1.32992, -0.69078 1.45336, -0.718032 1.55691, -0.772535 1.64059, -0.827038 1.72459, -0.894044 1.78935, -0.973554 1.83552, -1.05274 1.88168, -1.14155 1.9083, -1.2403 1.91471 L -1.30378 1.91471, -1.40926 1.91471 C -1.32814 2.20229, -1.13963 2.4607, -0.84403 2.68961, -0.548111 2.91884, -0.204742 3.0333, 0.186076 3.03298, 0.390301 3.0333, 0.589397 2.9804, 0.783043 2.87428, 0.976689 2.76848, 1.13507 2.62805, 1.25818 2.45332, 1.40277 2.24493, 1.49543 2.00832, 1.53582 1.74318, 1.57622 1.47836, 1.59642 1.20713, 1.59642 0.929807, 1.59642 0.649598, 1.58776 0.38061, 1.57013 0.122202, 1.5525 -0.135885, 1.48036 -0.379545, 1.3534 -0.609099, 1.26203 -0.776455, 1.14501 -0.915598, 1.00234 -1.02685, 0.859668 -1.13778, 0.700327 -1.19356, 0.523994 -1.19388, 0.189602 -1.19356, -0.100866 -1.12592, -0.347412 -0.99094, -0.593957 -0.855645, -0.793053 -0.661678, -0.944379 -0.409041, -0.976119 -0.350691, -1.0271 -0.321516, -1.09763 -0.321836 L -1.13995 -0.321836 C -1.26306 -0.321516, -1.32494 -0.377943, -1.32494 -0.491116 L -1.32494 -4.09216 C -1.32494 -4.18064, -1.27364 -4.23707, -1.17169 -4.26144, -1.15373 -4.26112, -1.14059 -4.25919, -1.13193 -4.25599, -1.12296 -4.25246, -1.11526 -4.25086, -1.10821 -4.25118, -0.597484 -4.01842, -0.0710499 -3.90204, 0.471094 -3.90236, 1.02061 -3.90204, 1.54737 -4.01842, 2.05072 -4.25118, 2.05777 -4.25086, 2.06482 -4.25246, 2.07188 -4.25599, 2.07893 -4.25919, 2.08951 -4.26112, 2.10362 -4.26144, 2.21968 -4.26112, 2.2761 -4.20822, 2.27258 -4.10242, 2.27258 -4.04054, 2.262 -3.9995, 2.24084 -3.9793, 1.99076 -3.6369, 1.67304 -3.36919, 1.28736 -3.17619, 0.901988 -2.98286, 0.492574 -2.88636, 0.0591159 -2.88668, -0.299962 -2.88636, -0.609667 -2.9274, -0.87064 -3.00979 L -0.87064 -1.05025 C -0.747207 -1.17978, -0.561256 -1.29519, -0.313107 -1.39619, -0.0649586 -1.49686, 0.214289 -1.54751, 0.523994 -1.54783, 0.826966 -1.54751, 1.11327 -1.4789, 1.38258 -1.34232, 1.65188 -1.20543, 1.88881 -1.02781, 2.09304 -0.809157, 2.30432 -0.562611, 2.46109 -0.289776, 2.56304 0.00934887, 2.66532 0.308794, 2.71629 0.615614, 2.71629 0.929807 Z" stroke="none" fill="#000000" transform="matrix(1.12 0 0 1 11.4249 16.3063)" />
			<rect />
		</svg>
	</g>
	<g transform="matrix(1 0 -0 1 220.901 138.471)">
		<svg width="48.0251122" height="41.9571342">
			<defs />
			<path d="M 6.58759 16.7693 C 6.45591 17.2823, 6.24809 17.7724, 5.96527 18.2395, 5.68245 18.7067, 5.34868 19.1223, 4.9651 19.4853, 4.58151 19.8488, 4.15099 20.1437, 3.67294 20.3693, 3.19489 20.5954, 2.69796 20.7082, 2.18155 20.7082, 1.87354 20.7082, 1.59072 20.6521, 1.33252 20.5387, 1.07489 20.4259, 0.864208 20.2731, 0.70047 20.0807, 0.536732 19.8883, 0.42681 19.6611, 0.370132 19.3983, 0.344941 19.2826, 0.332346 19.1635, 0.332346 19.041, 0.332346 18.8824, 0.351239 18.7204, 0.389025 18.5555, 0.458298 18.2807, 0.599708 18.0746, 0.813827 17.9372, 1.02795 17.7998, 1.23863 17.7311, 1.44588 17.7311, 1.66629 17.7311, 1.85179 17.8015, 2.00236 17.9418, 2.10942 18.046, 2.16266 18.18, 2.16266 18.3449, 2.16266 18.4124, 2.15006 18.4949, 2.12487 18.5922, 2.05617 18.867, 1.91476 19.0731, 1.70064 19.2105, 1.48653 19.3479, 1.31706 19.4166, 1.19111 19.4166, 1.2289 19.5815, 1.34683 19.7361, 1.54492 19.8792, 1.74301 20.0229, 1.99606 20.0944, 2.30407 20.0944, 2.64414 20.0944, 2.96188 20.0028, 3.2573 19.8196, 3.55329 19.6364, 3.82408 19.3908, 4.06912 19.0823, 4.31415 18.7742, 4.52942 18.417, 4.71491 18.0105, 4.9004 17.6046, 5.04983 17.1787, 5.16318 16.7327 L 5.21986 16.5128 C 5.12597 16.5987, 4.92788 16.7103, 4.6256 16.8472, 4.32388 16.9846, 3.99355 17.0533, 3.63458 17.0533, 3.20749 17.0533, 2.82505 16.9743, 2.48842 16.8151, 2.15178 16.6571, 1.88614 16.4126, 1.69091 16.0823, 1.50256 15.7285, 1.41153 15.338, 1.41725 14.9098 L 1.41725 14.8365 C 1.42985 14.3911, 1.48653 13.9486, 1.58729 13.5083, 1.68805 13.0875, 1.83461 12.6238, 2.0264 12.1165, 2.21819 11.6099, 2.40197 11.1181, 2.57773 10.6412, 2.76666 10.1351, 2.86112 9.71943, 2.86112 9.39539, 2.86112 9.12116, 2.7449 8.98375, 2.51189 8.98318, 2.29834 8.98375, 2.10484 9.04501, 1.93194 9.16696, 1.75904 9.28947, 1.6016 9.45894, 1.46019 9.67535, 1.31878 9.89233, 1.19111 10.1488, 1.07775 10.4448, 0.964397 10.7414, 0.870505 11.0568, 0.794934 11.3923, 0.72566 11.5578, 0.609441 11.6431, 0.445703 11.6488 L 0.228722 11.6488 C 0.0775793 11.6494, 0.00200802 11.5732, 0.00200802 11.4198 L 0.00200802 11.3557 C 0.0901745 11.0202, 0.206967 10.6772, 0.351239 10.3257, 0.496084 9.97477, 0.678715 9.65588, 0.898558 9.36848, 1.11897 9.08165, 1.37088 8.84349, 1.6537 8.65399, 1.93652 8.46506, 2.26056 8.37002, 2.62525 8.36945, 2.94013 8.37002, 3.20863 8.43758, 3.43191 8.57155, 3.65519 8.70609, 3.82523 8.88471, 3.94145 9.10742, 4.05824 9.33069, 4.12236 9.58203, 4.13496 9.86256 L 4.13496 9.92668 C 4.13496 10.19, 4.08171 10.4614, 3.97408 10.7419, 3.79202 11.2188, 3.61168 11.706, 3.43191 12.2035, 3.25272 12.7016, 3.11303 13.1488, 3.01226 13.5455, 2.9115 13.9428, 2.84223 14.3361, 2.80444 14.7266, 2.77925 14.8308, 2.76379 14.9442, 2.7575 15.0655, 2.7575 15.3043, 2.79872 15.5396, 2.88001 15.7709, 2.93669 15.9792, 3.04032 16.1441, 3.19146 16.2661, 3.3426 16.3886, 3.5218 16.4493, 3.72905 16.4487, 4.13209 16.4493, 4.48419 16.3302, 4.7859 16.092, 5.08818 15.8539, 5.35211 15.5424, 5.57825 15.1571 L 7.09712 9.24883 C 7.15437 9.02326, 7.26887 8.85723, 7.44177 8.75017, 7.61467 8.64368, 7.78929 8.58987, 7.96505 8.58929, 8.14768 8.58987, 8.29882 8.64483, 8.41847 8.75418, 8.50034 8.83433, 8.54099 8.94081, 8.54099 9.07478, 8.54099 9.14234, 8.53469 9.21276, 8.5221 9.28547 Z" stroke="none" fill="#000000" />
			<path d="M 2.81931 0.909288 C 2.81931 1.26516, 2.76673 1.58416, 2.66093 1.8663, 2.55513 2.14843, 2.37559 2.42639, 2.12199 2.69955, 1.87192 2.95635, 1.61576 3.14359, 1.3535 3.26125, 1.09125 3.37923, 0.775131 3.43822, 0.405152 3.43822, 0.0284407 3.43822, -0.316531 3.34525, -0.630083 3.15866, -0.943635 2.97271, -1.19371 2.72039, -1.3803 2.40203, -1.64448 1.96793, -1.81248 1.50978, -1.88461 1.02759, -1.95675 0.545401, -1.99298 0.0648136, -1.99298 -0.414171, -1.99298 -0.892514, -1.92341 -1.36348, -1.78426 -1.82708, -1.64512 -2.29035, -1.42262 -2.71868, -1.11612 -3.11239, -0.858995 -3.4471, -0.545443 -3.7225, -0.175785 -3.93795, 0.194194 -4.15339, 0.600722 -4.26112, 1.04444 -4.26144, 1.47084 -4.26112, 1.82479 -4.15147, 2.10628 -3.93282, 2.3881 -3.71384, 2.52884 -3.39933, 2.52884 -2.98927, 2.52884 -2.79755, 2.47081 -2.65552, 2.35443 -2.56319, 2.23837 -2.47085, 2.10436 -2.42469, 1.95304 -2.42501, 1.80876 -2.42469, 1.67924 -2.47085, 1.56478 -2.56319, 1.45033 -2.65552, 1.39294 -2.79755, 1.39294 -2.98927, 1.39294 -3.19414, 1.46892 -3.34803, 1.62025 -3.45095, 1.71899 -3.51218, 1.82992 -3.54296, 1.95304 -3.54328, 1.99183 -3.54296, 1.99696 -3.54456, 1.96874 -3.54841, 1.91969 -3.62343, 1.81133 -3.69749, 1.64397 -3.77123, 1.47662 -3.84465, 1.27688 -3.88152, 1.04444 -3.88184, 0.730887 -3.88152, 0.449396 -3.78822, 0.199323 -3.60195, -0.0507488 -3.41536, -0.262028 -3.18228, -0.434834 -2.90207, -0.638739 -2.5462, -0.762172 -2.15859, -0.804492 -1.73987, -0.846812 -1.32084, -0.871499 -0.986772, -0.878552 -0.737341, -0.815072 -0.884179, -0.662464 -1.06436, -0.421369 -1.2782, -0.180273 -1.49173, 0.125264 -1.59881, 0.494922 -1.59913, 0.847267 -1.59881, 1.1512 -1.53982, 1.4064 -1.42183, 1.66161 -1.30385, 1.90719 -1.12014, 2.14315 -0.870713, 2.3897 -0.596916, 2.56411 -0.321516, 2.66606 -0.0445127, 2.76834 0.23249, 2.81931 0.550531, 2.81931 0.909288 Z M 1.69399 0.909288 C 1.69399 0.581309, 1.68373 0.286352, 1.66257 0.0247378, 1.64141 -0.236876, 1.57119 -0.46675, 1.45129 -0.665526, 1.32818 -0.866866, 1.19064 -1.01563, 1.03931 -1.11149, 0.887984 -1.20703, 0.702995 -1.25512, 0.484342 -1.25544, 0.248376 -1.25512, 0.0470359 -1.19517, -0.12032 -1.07558, -0.287676 -0.955673, -0.429384 -0.798577, -0.545443 -0.603649, -0.661502 -0.408721, -0.744539 -0.181411, -0.793912 0.078279, -0.829179 0.256536, -0.846812 0.446334, -0.846812 0.647674, -0.846812 0.726543, -0.843285 0.810542, -0.836232 0.899029 L -0.836232 0.940067 C -0.822125 1.19687, -0.802569 1.43636, -0.777882 1.65854, -0.753195 1.88104, -0.714402 2.06219, -0.661823 2.20197, -0.563076 2.44852, -0.417842 2.64857, -0.22612 2.80246, -0.0340772 2.95635, 0.17624 3.0333, 0.405152 3.03298, 0.641118 3.0333, 0.840214 2.98809, 1.00212 2.89736, 1.16435 2.80695, 1.30702 2.66044, 1.43013 2.45845, 1.55709 2.25711, 1.63275 2.02884, 1.65712 1.77396, 1.6818 1.5194, 1.69399 1.23118, 1.69399 0.909288 Z" stroke="none" fill="#000000" transform="matrix(1.12 0 0 1 11.5092 16.3063)" />
			<rect />
		</svg>
	</g>
	<g transform="matrix(1 0 -0 1 257.612 226.271)">
		<svg width="48.0251122" height="41.9571342">
			<defs />
			<path d="M 6.58759 16.7693 C 6.45591 17.2823, 6.24809 17.7724, 5.96527 18.2395, 5.68245 18.7067, 5.34868 19.1223, 4.9651 19.4853, 4.58151 19.8488, 4.15099 20.1437, 3.67294 20.3693, 3.19489 20.5954, 2.69796 20.7082, 2.18155 20.7082, 1.87354 20.7082, 1.59072 20.6521, 1.33252 20.5387, 1.07489 20.4259, 0.864208 20.2731, 0.70047 20.0807, 0.536732 19.8883, 0.42681 19.6611, 0.370132 19.3983, 0.344941 19.2826, 0.332346 19.1635, 0.332346 19.041, 0.332346 18.8824, 0.351239 18.7204, 0.389025 18.5555, 0.458298 18.2807, 0.599708 18.0746, 0.813827 17.9372, 1.02795 17.7998, 1.23863 17.7311, 1.44588 17.7311, 1.66629 17.7311, 1.85179 17.8015, 2.00236 17.9418, 2.10942 18.046, 2.16266 18.18, 2.16266 18.3449, 2.16266 18.4124, 2.15006 18.4949, 2.12487 18.5922, 2.05617 18.867, 1.91476 19.0731, 1.70064 19.2105, 1.48653 19.3479, 1.31706 19.4166, 1.19111 19.4166, 1.2289 19.5815, 1.34683 19.7361, 1.54492 19.8792, 1.74301 20.0229, 1.99606 20.0944, 2.30407 20.0944, 2.64414 20.0944, 2.96188 20.0028, 3.2573 19.8196, 3.55329 19.6364, 3.82408 19.3908, 4.06912 19.0823, 4.31415 18.7742, 4.52942 18.417, 4.71491 18.0105, 4.9004 17.6046, 5.04983 17.1787, 5.16318 16.7327 L 5.21986 16.5128 C 5.12597 16.5987, 4.92788 16.7103, 4.6256 16.8472, 4.32388 16.9846, 3.99355 17.0533, 3.63458 17.0533, 3.20749 17.0533, 2.82505 16.9743, 2.48842 16.8151, 2.15178 16.6571, 1.88614 16.4126, 1.69091 16.0823, 1.50256 15.7285, 1.41153 15.338, 1.41725 14.9098 L 1.41725 14.8365 C 1.42985 14.3911, 1.48653 13.9486, 1.58729 13.5083, 1.68805 13.0875, 1.83461 12.6238, 2.0264 12.1165, 2.21819 11.6099, 2.40197 11.1181, 2.57773 10.6412, 2.76666 10.1351, 2.86112 9.71943, 2.86112 9.39539, 2.86112 9.12116, 2.7449 8.98375, 2.51189 8.98318, 2.29834 8.98375, 2.10484 9.04501, 1.93194 9.16696, 1.75904 9.28947, 1.6016 9.45894, 1.46019 9.67535, 1.31878 9.89233, 1.19111 10.1488, 1.07775 10.4448, 0.964397 10.7414, 0.870505 11.0568, 0.794934 11.3923, 0.72566 11.5578, 0.609441 11.6431, 0.445703 11.6488 L 0.228722 11.6488 C 0.0775793 11.6494, 0.00200802 11.5732, 0.00200802 11.4198 L 0.00200802 11.3557 C 0.0901745 11.0202, 0.206967 10.6772, 0.351239 10.3257, 0.496084 9.97477, 0.678715 9.65588, 0.898558 9.36848, 1.11897 9.08165, 1.37088 8.84349, 1.6537 8.65399, 1.93652 8.46506, 2.26056 8.37002, 2.62525 8.36945, 2.94013 8.37002, 3.20863 8.43758, 3.43191 8.57155, 3.65519 8.70609, 3.82523 8.88471, 3.94145 9.10742, 4.05824 9.33069, 4.12236 9.58203, 4.13496 9.86256 L 4.13496 9.92668 C 4.13496 10.19, 4.08171 10.4614, 3.97408 10.7419, 3.79202 11.2188, 3.61168 11.706, 3.43191 12.2035, 3.25272 12.7016, 3.11303 13.1488, 3.01226 13.5455, 2.9115 13.9428, 2.84223 14.3361, 2.80444 14.7266, 2.77925 14.8308, 2.76379 14.9442, 2.7575 15.0655, 2.7575 15.3043, 2.79872 15.5396, 2.88001 15.7709, 2.93669 15.9792, 3.04032 16.1441, 3.19146 16.2661, 3.3426 16.3886, 3.5218 16.4493, 3.72905 16.4487, 4.13209 16.4493, 4.48419 16.3302, 4.7859 16.092, 5.08818 15.8539, 5.35211 15.5424, 5.57825 15.1571 L 7.09712 9.24883 C 7.15437 9.02326, 7.26887 8.85723, 7.44177 8.75017, 7.61467 8.64368, 7.78929 8.58987, 7.96505 8.58929, 8.14768 8.58987, 8.29882 8.64483, 8.41847 8.75418, 8.50034 8.83433, 8.54099 8.94081, 8.54099 9.07478, 8.54099 9.14234, 8.53469 9.21276, 8.5221 9.28547 Z" stroke="none" fill="#000000" />
			<path d="M 3.13161 -3.74334 C 3.13161 -3.7225, 3.12295 -3.69332, 3.10532 -3.65613 L 1.52056 -1.48628 C 1.31634 -1.20222, 1.157 -0.888346, 1.04254 -0.544657, 0.928084 -0.200968, 0.84633 0.160033, 0.796957 0.537707, 0.747583 0.9157, 0.716805 1.30139, 0.704302 1.69445, 0.692119 2.08783, 0.685706 2.48442, 0.685706 2.88422, 0.685706 3.06921, 0.625112 3.20931, 0.503603 3.30485, 0.382414 3.40071, 0.249362 3.44848, 0.104769 3.44848, -0.0395031 3.44848, -0.170631 3.40071, -0.288614 3.30485, -0.406596 3.20931, -0.465588 3.06921, -0.465588 2.88422, -0.465588 2.05, -0.320354 1.24753, -0.0298851 0.476151, 0.260584 -0.294906, 0.652364 -1.01915, 1.14545 -1.69659 L 2.14895 -3.05596, 0.247439 -3.05596 C 0.00826716 -3.05564, -0.214554 -3.05372, -0.420703 -3.05051, -0.626532 -3.04698, -0.801903 -3.04089, -0.946175 -3.03256, -1.09045 -3.0239, -1.16451 -3.01813, -1.16835 -3.01492, -1.20362 -2.98382, -1.2344 -2.93253, -1.26069 -2.86071, -1.28698 -2.7889, -1.31167 -2.7049, -1.33475 -2.60936, -1.35751 -2.5135, -1.37771 -2.41443, -1.39534 -2.31184, -1.41298 -2.20924, -1.43061 -2.09991, -1.44824 -1.98386 L -1.83906 -1.98386, -1.45882 -4.37429, -1.07314 -4.37429, -1.07314 -4.2717 C -1.07314 -4.23386, -1.05198 -4.19796, -1.00998 -4.16397, -0.935916 -4.11588, -0.858329 -4.0851, -0.777537 -4.07164, -0.682317 -4.05753, -0.565937 -4.04471, -0.428718 -4.03285, -0.291499 -4.02066, -0.144341 -4.01297, 0.012435 -4.00976, 0.169211 -4.00624, 0.326628 -4.00463, 0.485008 -4.00495 L 3.13161 -4.00495, 3.13161 -3.74334 Z" stroke="none" fill="#000000" transform="matrix(1.12 0 0 1 11.3559 16.3063)" />
			<rect />
		</svg>
	</g>
	<g transform="matrix(1 0 -0 1 296.184 177.071)">
		<svg width="48.0251122" height="41.9571342">
			<defs />
			<path d="M 6.58759 16.7693 C 6.45591 17.2823, 6.24809 17.7724, 5.96527 18.2395, 5.68245 18.7067, 5.34868 19.1223, 4.9651 19.4853, 4.58151 19.8488, 4.15099 20.1437, 3.67294 20.3693, 3.19489 20.5954, 2.69796 20.7082, 2.18155 20.7082, 1.87354 20.7082, 1.59072 20.6521, 1.33252 20.5387, 1.07489 20.4259, 0.864208 20.2731, 0.70047 20.0807, 0.536732 19.8883, 0.42681 19.6611, 0.370132 19.3983, 0.344941 19.2826, 0.332346 19.1635, 0.332346 19.041, 0.332346 18.8824, 0.351239 18.7204, 0.389025 18.5555, 0.458298 18.2807, 0.599708 18.0746, 0.813827 17.9372, 1.02795 17.7998, 1.23863 17.7311, 1.44588 17.7311, 1.66629 17.7311, 1.85179 17.8015, 2.00236 17.9418, 2.10942 18.046, 2.16266 18.18, 2.16266 18.3449, 2.16266 18.4124, 2.15006 18.4949, 2.12487 18.5922, 2.05617 18.867, 1.91476 19.0731, 1.70064 19.2105, 1.48653 19.3479, 1.31706 19.4166, 1.19111 19.4166, 1.2289 19.5815, 1.34683 19.7361, 1.54492 19.8792, 1.74301 20.0229, 1.99606 20.0944, 2.30407 20.0944, 2.64414 20.0944, 2.96188 20.0028, 3.2573 19.8196, 3.55329 19.6364, 3.82408 19.3908, 4.06912 19.0823, 4.31415 18.7742, 4.52942 18.417, 4.71491 18.0105, 4.9004 17.6046, 5.04983 17.1787, 5.16318 16.7327 L 5.21986 16.5128 C 5.12597 16.5987, 4.92788 16.7103, 4.6256 16.8472, 4.32388 16.9846, 3.99355 17.0533, 3.63458 17.0533, 3.20749 17.0533, 2.82505 16.9743, 2.48842 16.8151, 2.15178 16.6571, 1.88614 16.4126, 1.69091 16.0823, 1.50256 15.7285, 1.41153 15.338, 1.41725 14.9098 L 1.41725 14.8365 C 1.42985 14.3911, 1.48653 13.9486, 1.58729 13.5083, 1.68805 13.0875, 1.83461 12.6238, 2.0264 12.1165, 2.21819 11.6099, 2.40197 11.1181, 2.57773 10.6412, 2.76666 10.1351, 2.86112 9.71943, 2.86112 9.39539, 2.86112 9.12116, 2.7449 8.98375, 2.51189 8.98318, 2.29834 8.98375, 2.10484 9.04501, 1.93194 9.16696, 1.75904 9.28947, 1.6016 9.45894, 1.46019 9.67535, 1.31878 9.89233, 1.19111 10.1488, 1.07775 10.4448, 0.964397 10.7414, 0.870505 11.0568, 0.794934 11.3923, 0.72566 11.5578, 0.609441 11.6431, 0.445703 11.6488 L 0.228722 11.6488 C 0.0775793 11.6494, 0.00200802 11.5732, 0.00200802 11.4198 L 0.00200802 11.3557 C 0.0901745 11.0202, 0.206967 10.6772, 0.351239 10.3257, 0.496084 9.97477, 0.678715 9.65588, 0.898558 9.36848, 1.11897 9.08165, 1.37088 8.84349, 1.6537 8.65399, 1.93652 8.46506, 2.26056 8.37002, 2.62525 8.36945, 2.94013 8.37002, 3.20863 8.43758, 3.43191 8.57155, 3.65519 8.70609, 3.82523 8.88471, 3.94145 9.10742, 4.05824 9.33069, 4.12236 9.58203, 4.13496 9.86256 L 4.13496 9.92668 C 4.13496 10.19, 4.08171 10.4614, 3.97408 10.7419, 3.79202 11.2188, 3.61168 11.706, 3.43191 12.2035, 3.25272 12.7016, 3.11303 13.1488, 3.01226 13.5455, 2.9115 13.9428, 2.84223 14.3361, 2.80444 14.7266, 2.77925 14.8308, 2.76379 14.9442, 2.7575 15.0655, 2.7575 15.3043, 2.79872 15.5396, 2.88001 15.7709, 2.93669 15.9792, 3.04032 16.1441, 3.19146 16.2661, 3.3426 16.3886, 3.5218 16.4493, 3.72905 16.4487, 4.13209 16.4493, 4.48419 16.3302, 4.7859 16.092, 5.08818 15.8539, 5.35211 15.5424, 5.57825 15.1571 L 7.09712 9.24883 C 7.15437 9.02326, 7.26887 8.85723, 7.44177 8.75017, 7.61467 8.64368, 7.78929 8.58987, 7.96505 8.58929, 8.14768 8.58987, 8.29882 8.64483, 8.41847 8.75418, 8.50034 8.83433, 8.54099 8.94081, 8.54099 9.07478, 8.54099 9.14234, 8.53469 9.21276, 8.5221 9.28547 Z" stroke="none" fill="#000000" />
			<path d="M 2.81931 1.29914 C 2.81931 1.60725, 2.75423 1.89034, 2.62406 2.14843, 2.4939 2.40684, 2.31756 2.63318, 2.0957 2.82811, 1.87385 3.02304, 1.61864 3.1734, 1.32978 3.2792, 1.04123 3.38532, 0.732811 3.43822, 0.405152 3.43822, 0.0954473 3.43822, -0.202075 3.39398, -0.487413 3.30485, -0.772752 3.21604, -1.02635 3.08812, -1.24821 2.92045, -1.47007 2.75309, -1.64961 2.5479, -1.78683 2.30488, -1.92405 2.06219, -1.99298 1.79192, -1.99298 1.49407, -1.99298 1.24144, -1.94873 1.01156, -1.86089 0.804451, -1.77272 0.59766, -1.65121 0.408823, -1.49636 0.23762, -1.34119 0.0667372, -1.16261 -0.0887563, -0.960306 -0.229182, -0.757684 -0.369286, -0.572053 -0.478933, -0.403094 -0.557802 L -0.778203 -0.793768 C -1.05264 -0.96433, -1.27354 -1.18651, -1.44089 -1.46031, -1.60825 -1.73378, -1.69193 -2.03323, -1.69193 -2.35832, -1.69193 -2.63148, -1.63358 -2.8838, -1.51752 -3.11463, -1.40146 -3.34547, -1.24725 -3.54552, -1.05553 -3.7148, -0.863484 -3.88408, -0.639701 -4.01746, -0.384499 -4.11492, -0.128977 -4.21238, 0.134241 -4.26112, 0.405152 -4.26144, 0.672858 -4.26112, 0.931587 -4.22168, 1.18166 -4.14313, 1.43173 -4.06426, 1.65712 -3.95141, 1.85782 -3.80457, 2.05851 -3.65742, 2.21721 -3.47884, 2.33327 -3.26852, 2.44965 -3.0582, 2.50768 -2.8248, 2.50768 -2.56864, 2.50768 -2.35961, 2.46825 -2.1682, 2.38874 -1.99379, 2.30955 -1.81938, 2.2076 -1.65844, 2.08256 -1.5116, 1.95752 -1.36445, 1.80876 -1.23364, 1.63628 -1.11918, 1.46379 -1.00441, 1.31214 -0.914957, 1.18166 -0.850194 L 1.78408 -0.465468 C 2.0941 -0.273746, 2.34417 -0.023994, 2.53429 0.283787, 2.72441 0.591568, 2.81931 0.930128, 2.81931 1.29914 Z M 1.88956 -2.56864 C 1.88956 -2.74946, 1.85012 -2.92131, 1.77093 -3.08385, 1.69174 -3.24608, 1.58434 -3.38554, 1.44872 -3.50192, 1.31311 -3.61798, 1.15633 -3.71032, 0.978395 -3.77893, 0.800779 -3.84721, 0.609699 -3.88152, 0.405152 -3.88184, 0.211507 -3.88152, 0.025876 -3.85491, -0.15206 -3.80201, -0.329675 -3.74879, -0.486452 -3.67281, -0.622068 -3.57374, -0.757684 -3.47435, -0.865087 -3.35637, -0.944276 -3.21979, -1.02347 -3.08289, -1.06322 -2.93605, -1.06322 -2.77896, -1.06322 -2.6007, -1.01545 -2.43815, -0.920551 -2.29132, -0.825652 -2.14416, -0.698692 -2.02297, -0.540313 -1.92743 L 0.81713 -1.0759 C 1.11658 -1.2362, 1.37017 -1.44235, 1.57793 -1.69371, 1.78568 -1.94506, 1.88956 -2.23649, 1.88956 -2.56864 Z M 2.13802 1.68387 C 2.13802 1.47227, 2.07999 1.27318, 1.96362 1.08658, 1.84756 0.900311, 1.69078 0.748986, 1.49329 0.632285 L -0.0436954 -0.321836 C -0.399247 -0.147107, -0.701257 0.0991185, -0.949726 0.417159, -1.19788 0.7352, -1.32227 1.09428, -1.32227 1.49407, -1.32227 1.70311, -1.27546 1.90317, -1.18217 2.09457, -1.08855 2.28629, -0.963512 2.45108, -0.807057 2.58958, -0.650281 2.72808, -0.466253 2.83677, -0.254974 2.91532, -0.0436954 2.99419, 0.17624 3.0333, 0.405152 3.03298, 0.637912 3.0333, 0.859771 2.99932, 1.07105 2.93071, 1.28233 2.86242, 1.46796 2.76848, 1.62826 2.64857, 1.78856 2.52899, 1.9136 2.38792, 2.00337 2.22537, 2.09314 2.06315, 2.13802 1.88265, 2.13802 1.68387 Z" stroke="none" fill="#000000" transform="matrix(1.12 0 0 1 11.5092 16.3063)" />
			<rect />
		</svg>
	</g>
	<g transform="matrix(1 0 -0 1 363.217 132.671)">
		<svg width="48.0251122" height="41.9571342">
			<defs />
			<path d="M 6.58759 16.7693 C 6.45591 17.2823, 6.24809 17.7724, 5.96527 18.2395, 5.68245 18.7067, 5.34868 19.1223, 4.9651 19.4853, 4.58151 19.8488, 4.15099 20.1437, 3.67294 20.3693, 3.19489 20.5954, 2.69796 20.7082, 2.18155 20.7082, 1.87354 20.7082, 1.59072 20.6521, 1.33252 20.5387, 1.07489 20.4259, 0.864208 20.2731, 0.70047 20.0807, 0.536732 19.8883, 0.42681 19.6611, 0.370132 19.3983, 0.344941 19.2826, 0.332346 19.1635, 0.332346 19.041, 0.332346 18.8824, 0.351239 18.7204, 0.389025 18.5555, 0.458298 18.2807, 0.599708 18.0746, 0.813827 17.9372, 1.02795 17.7998, 1.23863 17.7311, 1.44588 17.7311, 1.66629 17.7311, 1.85179 17.8015, 2.00236 17.9418, 2.10942 18.046, 2.16266 18.18, 2.16266 18.3449, 2.16266 18.4124, 2.15006 18.4949, 2.12487 18.5922, 2.05617 18.867, 1.91476 19.0731, 1.70064 19.2105, 1.48653 19.3479, 1.31706 19.4166, 1.19111 19.4166, 1.2289 19.5815, 1.34683 19.7361, 1.54492 19.8792, 1.74301 20.0229, 1.99606 20.0944, 2.30407 20.0944, 2.64414 20.0944, 2.96188 20.0028, 3.2573 19.8196, 3.55329 19.6364, 3.82408 19.3908, 4.06912 19.0823, 4.31415 18.7742, 4.52942 18.417, 4.71491 18.0105, 4.9004 17.6046, 5.04983 17.1787, 5.16318 16.7327 L 5.21986 16.5128 C 5.12597 16.5987, 4.92788 16.7103, 4.6256 16.8472, 4.32388 16.9846, 3.99355 17.0533, 3.63458 17.0533, 3.20749 17.0533, 2.82505 16.9743, 2.48842 16.8151, 2.15178 16.6571, 1.88614 16.4126, 1.69091 16.0823, 1.50256 15.7285, 1.41153 15.338, 1.41725 14.9098 L 1.41725 14.8365 C 1.42985 14.3911, 1.48653 13.9486, 1.58729 13.5083, 1.68805 13.0875, 1.83461 12.6238, 2.0264 12.1165, 2.21819 11.6099, 2.40197 11.1181, 2.57773 10.6412, 2.76666 10.1351, 2.86112 9.71943, 2.86112 9.39539, 2.86112 9.12116, 2.7449 8.98375, 2.51189 8.98318, 2.29834 8.98375, 2.10484 9.04501, 1.93194 9.16696, 1.75904 9.28947, 1.6016 9.45894, 1.46019 9.67535, 1.31878 9.89233, 1.19111 10.1488, 1.07775 10.4448, 0.964397 10.7414, 0.870505 11.0568, 0.794934 11.3923, 0.72566 11.5578, 0.609441 11.6431, 0.445703 11.6488 L 0.228722 11.6488 C 0.0775793 11.6494, 0.00200802 11.5732, 0.00200802 11.4198 L 0.00200802 11.3557 C 0.0901745 11.0202, 0.206967 10.6772, 0.351239 10.3257, 0.496084 9.97477, 0.678715 9.65588, 0.898558 9.36848, 1.11897 9.08165, 1.37088 8.84349, 1.6537 8.65399, 1.93652 8.46506, 2.26056 8.37002, 2.62525 8.36945, 2.94013 8.37002, 3.20863 8.43758, 3.43191 8.57155, 3.65519 8.70609, 3.82523 8.88471, 3.94145 9.10742, 4.05824 9.33069, 4.12236 9.58203, 4.13496 9.86256 L 4.13496 9.92668 C 4.13496 10.19, 4.08171 10.4614, 3.97408 10.7419, 3.79202 11.2188, 3.61168 11.706, 3.43191 12.2035, 3.25272 12.7016, 3.11303 13.1488, 3.01226 13.5455, 2.9115 13.9428, 2.84223 14.3361, 2.80444 14.7266, 2.77925 14.8308, 2.76379 14.9442, 2.7575 15.0655, 2.7575 15.3043, 2.79872 15.5396, 2.88001 15.7709, 2.93669 15.9792, 3.04032 16.1441, 3.19146 16.2661, 3.3426 16.3886, 3.5218 16.4493, 3.72905 16.4487, 4.13209 16.4493, 4.48419 16.3302, 4.7859 16.092, 5.08818 15.8539, 5.35211 15.5424, 5.57825 15.1571 L 7.09712 9.24883 C 7.15437 9.02326, 7.26887 8.85723, 7.44177 8.75017, 7.61467 8.64368, 7.78929 8.58987, 7.96505 8.58929, 8.14768 8.58987, 8.29882 8.64483, 8.41847 8.75418, 8.50034 8.83433, 8.54099 8.94081, 8.54099 9.07478, 8.54099 9.14234, 8.53469 9.21276, 8.5221 9.28547 Z" stroke="none" fill="#000000" />
			<path d="M 2.81931 -0.414171 C 2.81931 0.0648136, 2.75327 0.534501, 2.62118 0.994249, 2.48909 1.45432, 2.27717 1.88778, 1.98478 2.2943, 1.74881 2.6194, 1.45481 2.89159, 1.10247 3.11024, 0.750444 3.3289, 0.359306 3.43822, -0.0703056 3.43822, -0.288317 3.43822, -0.497993 3.4145, -0.698692 3.36641, -0.899391 3.31864, -1.07572 3.24266, -1.22705 3.13846, -1.37838 3.03426, -1.49732 2.90345, -1.58356 2.74604, -1.66981 2.58894, -1.71309 2.40075, -1.71309 2.18145, -1.71309 1.9971, -1.65313 1.85604, -1.53323 1.75857, -1.41332 1.66111, -1.28508 1.61238, -1.14786 1.61206, -0.996214 1.61238, -0.86156 1.66047, -0.743577 1.75601, -0.625594 1.85187, -0.566603 1.99358, -0.566603 2.18145, -0.566603 2.38696, -0.640342 2.53572, -0.788462 2.62773, -0.897468 2.69634, -1.01032 2.73225, -1.1267 2.73546, -1.16517 2.73578, -1.15812 2.74091, -1.10554 2.75085, -1.05617 2.81946, -0.935299 2.8839, -0.743577 2.94353, -0.551534 3.00348, -0.327111 3.0333, -0.0703056 3.03298, 0.21856 3.0333, 0.480815 2.94193, 0.716781 2.75886, 0.952746 2.57612, 1.14479 2.34592, 1.29259 2.0686, 1.49008 1.70311, 1.60454 1.31678, 1.63628 0.909609, 1.66802 0.502761, 1.68565 0.172537, 1.68886 -0.0807412, 1.62538 0.0734699, 1.47501 0.257498, 1.23712 0.471021, 0.999555 0.684865, 0.697544 0.791626, 0.331413 0.791306, -0.0206118 0.791626, -0.327111 0.731994, -0.587763 0.612087, -0.848415 0.492501, -1.09336 0.305909, -1.32227 0.0526307, -1.57202 -0.220525, -1.74611 -0.496567, -1.84486 -0.775493, -1.9436 -1.0541, -1.99298 -1.3715, -1.99298 -1.72737, -1.99298 -2.08966, -1.94008 -2.40994, -1.8346 -2.68887, -1.7288 -2.96747, -1.54221 -3.24383, -1.2745 -3.51763, -1.02443 -3.7738, -0.763134 -3.96167, -0.490299 -4.08158, -0.217143 -4.20116, 0.10763 -4.26112, 0.484342 -4.26144, 0.854321 -4.26112, 1.19064 -4.16526, 1.49329 -3.97385, 1.79626 -3.78213, 2.0412 -3.52917, 2.22779 -3.21498, 2.48492 -2.78729, 2.64779 -2.33139, 2.7164 -1.8476, 2.78501 -1.36348, 2.81931 -0.885782, 2.81931 -0.414171 Z M 1.67315 -1.77867 C 1.65904 -2.0281, 1.6398 -2.26471, 1.61512 -2.48881, 1.59043 -2.71259, 1.54619 -2.89662, 1.48271 -3.04057, 1.39486 -3.27974, 1.26213 -3.47948, 1.08419 -3.64042, 0.906259 -3.80105, 0.706201 -3.88152, 0.484342 -3.88184, 0.23459 -3.88152, 0.0252347 -3.83535, -0.144045 -3.74302, -0.313004 -3.65068, -0.46433 -3.50032, -0.598343 -3.29193, -0.735562 -3.08994, -0.817637 -2.85879, -0.843927 -2.5991, -0.870216 -2.33909, -0.883682 -2.04862, -0.883682 -1.72737, -0.883682 -1.39875, -0.870216 -1.10379, -0.843927 -0.842179, -0.817637 -0.580565, -0.744539 -0.352294, -0.624953 -0.157686, -0.505047 0.0513482, -0.370392 0.204277, -0.22067 0.301741, -0.0709469 0.399205, 0.116607 0.447937, 0.341672 0.447617, 0.570585 0.447937, 0.770643 0.387343, 0.941525 0.265833, 1.11241 0.144644, 1.25604 -0.0127728, 1.3721 -0.206098, 1.48816 -0.399102, 1.57087 -0.629297, 1.62025 -0.896362, 1.65551 -1.07398, 1.67315 -1.26378, 1.67315 -1.46576, 1.67315 -1.54398, 1.66962 -1.62798, 1.66257 -1.71711, 1.66257 -1.7511, 1.66609 -1.77161, 1.67315 -1.77867 Z" stroke="none" fill="#000000" transform="matrix(1.12 0 0 1 11.5092 16.3063)" />
			<rect />
		</svg>
	</g>
</svg>
