<?xml version="1.0"?>
<svg xmlns="http://www.w3.org/2000/svg" xmlns:xlink="http://www.w3.org/1999/xlink" width="214.102722" height="201.729416">
	<defs>
		<marker id="CustomMarker-01" markerUnits="strokeWidth" markerWidth="15.000001" markerHeight="9" viewBox="-15 -4.5 15 9" orient="auto-start-reverse">
			<path d="M 0 -0 L -10 -3, -8 -0.5, -8 0.5, -10 3 Z" fill="#000000" stroke="#000000" stroke-linejoin="round" />
		</marker>
		<marker id="CustomMarker-02" markerUnits="strokeWidth" markerWidth="15.000001" markerHeight="9" viewBox="-15 -4.5 15 9" orient="auto-start-reverse">
			<path d="M 0 -0 L -10 -3, -8 -0.5, -8 0.5, -10 3 Z" fill="#000000" stroke="#000000" stroke-linejoin="round" />
		</marker>
		<marker id="CustomMarker-03" markerUnits="strokeWidth" markerWidth="15.000001" markerHeight="9" viewBox="-15 -4.5 15 9" orient="auto-start-reverse">
			<path d="M 0 -0 L -10 -3, -8 -0.5, -8 0.5, -10 3 Z" fill="#000000" stroke="#000000" stroke-linejoin="round" />
		</marker>
		<marker id="CustomMarker-04" markerUnits="strokeWidth" markerWidth="15.000001" markerHeight="9" viewBox="-15 -4.5 15 9" orient="auto-start-reverse">
			<path d="M 0 -0 L -10 -3, -8 -0.5, -8 0.5, -10 3 Z" fill="#000000" stroke="#000000" stroke-linejoin="round" />
		</marker>
	</defs>
	<path d="M 204.843 -143.094 C 61.1561 -221.469, -189.406 -36.2187, -204.843 221.469" fill="none" stroke="#000000" stroke-width="5.0666666" stroke-linecap="round" stroke-linejoin="round" transform="matrix(0.263158 0 -0 0.263158 91.5703 75.0466)" />
	<path d="M 203.656 -181.687 C 181.093 -9.49999, 43.3436 155.562, -203.656 181.687" fill="none" stroke="#000000" stroke-width="5.0666666" stroke-linecap="round" stroke-linejoin="round" transform="matrix(0.263158 0 -0 0.263158 91.5703 84.8903)" />
	<path d="M -78.9688 -207.219 C 43.3438 -149.031, 78.9688 100.344, 20.7813 207.219" fill="none" stroke="#000000" stroke-width="5.0666666" stroke-linecap="round" stroke-linejoin="round" transform="matrix(0.263158 0 -0 0.263158 165.632 91.6091)" />
	<ellipse cx="1359.9513425827026" cy="378.95207500457764" rx="15.199999809265137" ry="15.199999809265137" stroke="none" fill="#000000" transform="matrix(0.263158 0 0 0.263158 -212.685 -62.2932)" />
	<ellipse cx="1359.9513263702393" cy="378.95208930969238" rx="10.133333206176758" ry="10.133333206176758" stroke="none" fill="#FFFFFF" transform="matrix(0.263158 0 0 0.263158 -212.685 -62.2932)" />
	<path d="M 253.531 -25.5313 C 132.406 75.4064, -115.781 46.9064, -253.531 -75.4064" fill="none" stroke="#000000" stroke-width="5.0666666" stroke-linecap="round" stroke-linejoin="round" transform="matrix(0.263158 0 -0 0.263158 104.07 152.859)" />
	<ellipse cx="1457.2015867233276" cy="793.23485088348389" rx="15.199999809265137" ry="15.199999809265137" stroke="none" fill="#000000" transform="matrix(0.263158 0 0 0.263158 -212.685 -62.2932)" />
	<ellipse cx="1457.2015705108643" cy="793.23483467102051" rx="10.133333206176758" ry="10.133333206176758" stroke="none" fill="#FFFFFF" transform="matrix(0.263158 0 0 0.263158 -212.685 -62.2932)" />
	<path d="M -16.4124 7.17407e-007 L -1.40317e-006 -32.1008, 16.4124 -7.17407e-007 Z" stroke="none" fill="#FFFFFF" transform="matrix(0.263158 0 0 0.263158 38.1642 136.357)" />
	<path d="M -16.4124 7.17407e-007 L -1.40317e-006 -32.1008, 16.4124 -7.17407e-007 Z" fill="none" stroke="#000000" stroke-width="4.30666637" stroke-linecap="round" stroke-linejoin="round" transform="matrix(0.263158 0 0 0.263158 38.1642 136.357)" />
	<g transform="matrix(1 0 -0 1 9.00002 121.495)">
		<svg width="44.9082985" height="45.2233963">
			<defs />
			<path d="M 13.525 16.925 C 12.4876 16.8827, 11.4903 16.8609, 10.5342 16.8609 L 10.5153 16.8609 C 9.45844 16.8609, 8.34834 16.8827, 7.18443 16.925 L 7.18443 15.7067, 8.71303 15.7067, 7.90178 13.4991, 3.91998 13.4991, 3.13679 15.6518, 3.13679 15.6426 C 3.13679 15.5882, 3.13049 15.5579, 3.11789 15.551, 3.22552 15.5819, 3.32915 15.6094, 3.42934 15.6335, 3.59937 15.6586, 3.77227 15.677, 3.9486 15.689, 4.12494 15.7016, 4.35451 15.7073, 4.63733 15.7067 L 4.63733 16.925 C 3.83868 16.8827, 3.09957 16.8609, 2.42 16.8609 L 2.13661 16.8609 C 1.4891 16.8609, 0.775183 16.8827, -0.00457555 16.925 L -0.00457555 15.7067, 0.778045 15.7067 C 0.973271 15.7073, 1.17766 15.689, 1.39178 15.6518, 1.47364 15.6403, 1.54922 15.6249, 1.61792 15.6065, 1.68719 15.5882, 1.72154 15.5762, 1.72154 15.5693 L 5.92949 3.91761 C 5.97987 3.78994, 6.06517 3.68346, 6.18483 3.59758, 6.30448 3.51228, 6.44303 3.46934, 6.5999 3.46877 L 6.94855 3.46877 C 7.0871 3.46934, 7.21649 3.51228, 7.33557 3.59758, 7.45523 3.68346, 7.53996 3.78994, 7.59034 3.91761 L 11.855 15.7067, 13.525 15.7067, 13.525 16.925 Z M 5.92033 7.98472 L 4.36367 12.29, 7.47698 12.29 Z" stroke="none" fill="#000000" />
			<rect />
		</svg>
	</g>
	<g transform="matrix(1 0 -0 1 148.582 9)">
		<svg width="54.0936813" height="54.1276474">
			<defs />
			<path d="M 11.7926 7.53588 C 11.7926 8.06144, 11.6809 8.5641, 11.4576 9.04329, 11.2344 9.52306, 10.912 9.92725, 10.4907 10.2564, 10.0069 10.6297, 9.46931 10.8925, 8.87791 11.0448, 8.28708 11.1976, 7.68938 11.2738, 7.08538 11.2732 L 4.89725 11.2732, 4.89725 15.7067, 6.7081 15.7067, 6.7081 16.925 C 5.52644 16.8827, 4.41004 16.8609, 3.35949 16.8609, 2.29061 16.8609, 1.17136 16.8827, 0.00114617 16.925 L 0.00114617 15.7067, 1.81257 15.7067, 1.81257 4.92523, 0.00114617 4.92523, 0.00114617 3.71609, 7.08538 3.71609 C 7.68938 3.71666, 8.28708 3.79452, 8.87791 3.95025, 9.46931 4.10597, 10.0069 4.37333, 10.4907 4.75119, 10.9315 5.09355, 11.2584 5.50633, 11.472 5.98838, 11.6861 6.47101, 11.7926 6.98684, 11.7926 7.53588 Z M 8.50063 7.53588 C 8.50063 7.35325, 8.49776 7.1626, 8.49147 6.96394, 8.48517 6.76585, 8.47257 6.57349, 8.45368 6.38685, 8.43479 6.20078, 8.40502 6.03418, 8.3638 5.88762, 8.32315 5.74106, 8.26475 5.62827, 8.18918 5.54812, 7.98193 5.29851, 7.70999 5.13191, 7.37335 5.04947, 7.03672 4.96702, 6.68921 4.9258, 6.33081 4.92523 L 4.80279 4.92523, 4.80279 10.1557, 6.33081 10.1557 C 6.68921 10.1563, 7.03672 10.115, 7.37335 10.0326, 7.70999 9.95015, 7.98193 9.77782, 8.18918 9.51447, 8.26475 9.43546, 8.32315 9.32268, 8.3638 9.17612, 8.40502 9.02955, 8.43479 8.86639, 8.45368 8.68605, 8.47257 8.50628, 8.48517 8.31678, 8.49147 8.11812, 8.49776 7.92003, 8.50063 7.72595, 8.50063 7.53588 Z" stroke="none" fill="#000000" />
			<path d="M 2.52592 3.2433 C 1.80776 3.21957, 1.11397 3.20739, 0.444547 3.20739, -0.203076 3.20739, -0.881157 3.21957, -1.58905 3.2433 L -1.58905 2.54053, -0.32138 2.54053, -0.32138 -2.9072 C -0.465652 -2.85558, -0.661863 -2.81775, -0.910011 -2.79403, -1.15816 -2.76998, -1.43933 -2.75812, -1.75288 -2.75844 L -1.75288 -3.46121 C -1.26332 -3.46088, -0.820562 -3.50769, -0.424294 -3.60195, -0.0280259 -3.69589, 0.328808 -3.89018, 0.645566 -4.18449 L 0.920005 -4.18449 C 1.0117 -4.18417, 1.08512 -4.15339, 1.13962 -4.09184, 1.19412 -4.03028, 1.22137 -3.96359, 1.22137 -3.8921 L 1.22137 2.54053, 2.52592 2.54053, 2.52592 3.2433 Z" stroke="none" fill="#000000" transform="matrix(1.12 0 0 1 13.6916 16.3063)" />
			<rect />
		</svg>
	</g>
	<g transform="matrix(1 0 -0 1 181.645 145.66)">
		<svg width="56.9641113" height="54.1276474">
			<defs />
			<path d="M 11.7914 7.53588 C 11.7914 8.06144, 11.6798 8.5641, 11.4565 9.04329, 11.2332 9.52306, 10.9109 9.92725, 10.489 10.2564, 10.0046 10.6297, 9.46702 10.8925, 8.87562 11.0448, 8.28479 11.1976, 7.68709 11.2738, 7.0831 11.2732 L 4.89439 11.2732, 4.89439 15.7067, 6.70581 15.7067, 6.70581 16.925 C 5.52358 16.8827, 4.40718 16.8609, 3.35606 16.8609, 2.28718 16.8609, 1.16792 16.8827, -0.00228581 16.925 L -0.00228581 15.7067, 1.80913 15.7067, 1.80913 4.92523, -0.00228581 4.92523, -0.00228581 3.71609, 7.0831 3.71609 C 7.68709 3.71666, 8.28479 3.79452, 8.87562 3.95025, 9.46702 4.10597, 10.0046 4.37333, 10.489 4.75119, 10.9298 5.09355, 11.2567 5.50633, 11.4708 5.98838, 11.6849 6.47101, 11.7914 6.98684, 11.7914 7.53588 Z M 8.49834 7.53588 C 8.49834 7.35325, 8.49548 7.1626, 8.48918 6.96394, 8.48288 6.76585, 8.47029 6.57349, 8.45139 6.38685, 8.4325 6.20078, 8.40273 6.03418, 8.36151 5.88762, 8.32086 5.74106, 8.26246 5.62827, 8.18689 5.54812, 7.97965 5.29851, 7.7077 5.13191, 7.37107 5.04947, 7.03443 4.96702, 6.68692 4.9258, 6.32853 4.92523 L 4.79993 4.92523, 4.79993 10.1557, 6.32853 10.1557 C 6.68692 10.1563, 7.03443 10.115, 7.37107 10.0326, 7.7077 9.95015, 7.97965 9.77782, 8.18689 9.51447, 8.26246 9.43546, 8.32086 9.32268, 8.36151 9.17612, 8.40273 9.02955, 8.4325 8.86639, 8.45139 8.68605, 8.47029 8.50628, 8.48288 8.31678, 8.48918 8.11812, 8.49548 7.92003, 8.49834 7.72595, 8.49834 7.53588 Z" stroke="none" fill="#000000" />
			<path d="M 2.4012 3.23817 L -1.95679 3.23817, -1.95679 2.78675 C -1.95679 2.73225, -1.93723 2.67935, -1.89876 2.62773 L -0.213655 0.591248 C -0.0482228 0.389908, 0.10695 0.186323, 0.251223 -0.0188644, 0.395495 -0.224052, 0.523096 -0.433407, 0.634026 -0.647251, 0.744955 -0.860774, 0.834083 -1.07814, 0.90109 -1.29872, 0.968096 -1.5193, 1.00144 -1.74597, 1.00144 -1.97873, 1.00144 -2.18712, 0.980279 -2.38269, 0.93796 -2.56575, 0.89564 -2.7485, 0.835045 -2.90592, 0.755856 -3.03769, 0.676666 -3.16913, 0.575355 -3.27365, 0.451922 -3.3506, 0.328809 -3.42754, 0.182613 -3.46601, 0.0133333 -3.46634, -0.342218 -3.46601, -0.593893 -3.39067, -0.742013 -3.24063, -0.667953 -3.23005, -0.549008 -3.15214, -0.385179 -3.00691, -0.22135 -2.86135, -0.139596 -2.652, -0.139596 -2.37884, -0.139596 -2.081, -0.235456 -1.86042, -0.427499 -1.71679, -0.619221 -1.57316, -0.826332 -1.50134, -1.04819 -1.50166, -1.27005 -1.50134, -1.47684 -1.57316, -1.66888 -1.71679, -1.86061 -1.86042, -1.95679 -2.081, -1.95679 -2.37884, -1.95679 -2.65552, -1.89331 -2.90335, -1.76667 -3.12233, -1.63971 -3.34098, -1.47428 -3.53078, -1.27005 -3.69172, -1.06582 -3.85234, -0.832424 -3.97449, -0.570168 -4.05849, -0.307913 -4.14217, -0.037643 -4.18417, 0.240643 -4.18449, 0.610621 -4.18417, 0.946937 -4.13031, 1.24959 -4.02259, 1.55256 -3.91486, 1.8177 -3.76354, 2.04469 -3.56861, 2.27168 -3.37368, 2.44705 -3.14092, 2.57016 -2.87097, 2.69359 -2.6007, 2.75515 -2.30318, 2.75515 -1.97873, 2.75515 -1.64658, 2.675 -1.34296, 2.5147 -1.06789, 2.35439 -0.792485, 2.16428 -0.541131, 1.94434 -0.313821, 1.7244 -0.0861917, 1.49453 0.121561, 1.25504 0.309436, 1.01555 0.497631, 0.812923 0.666911, 0.647491 0.816954 L -0.282265 1.67874, 0.605171 1.67874 C 0.80587 1.67906, 0.997913 1.67746, 1.18098 1.67393, 1.36436 1.67073, 1.51216 1.66463, 1.6247 1.65598, 1.73755 1.64764, 1.79205 1.64476, 1.78853 1.64796, 1.81674 1.61398, 1.84463 1.56204, 1.87285 1.49183, 1.90106 1.42194, 1.92318 1.34307, 1.93889 1.25586, 1.95492 1.16866, 1.96967 1.07376, 1.98377 0.971165, 1.99788 0.868572, 2.02257 0.747062, 2.05783 0.606637 L 2.77086 0.606637 Z" stroke="none" fill="#000000" transform="matrix(1.12 0 0 1 14.1165 16.3063)" />
			<rect />
		</svg>
	</g>
	<path d="M 12.8259 -12.8156 L -12.8259 12.8161" fill="none" stroke="#000000" stroke-width="5.0666666" stroke-linecap="round" stroke-linejoin="round" marker-end="url(#CustomMarker-01)" transform="matrix(0.263158 0 0 0.263158 72.1654 58.1775)" />
	<path d="M 11.7842 -9.71802 L -11.7842 9.71802" fill="none" stroke="#000000" stroke-width="5.0666666" stroke-linecap="round" stroke-linejoin="round" marker-end="url(#CustomMarker-02)" transform="matrix(0.263158 0 0 0.263158 107.966 104.347)" />
	<path d="M -1.08179 -13.1445 L 1.08276 13.1448" fill="none" stroke="#000000" stroke-width="5.0666666" stroke-linecap="round" stroke-linejoin="round" marker-end="url(#CustomMarker-03)" transform="matrix(0.263158 0 0 0.263158 177.654 100.887)" />
	<path d="M 16.6445 1.80951 L -16.6461 -1.80908" fill="none" stroke="#000000" stroke-width="5.0666666" stroke-linecap="round" stroke-linejoin="round" marker-end="url(#CustomMarker-04)" transform="matrix(0.263158 0 0 0.263158 103.65 161.457)" />
	<g transform="matrix(1 0 -0 1 97.8731 170.199)">
		<svg width="48.065773" height="54.1276474">
			<defs />
			<path d="M 9.09632 14.0579 C 9.00816 14.3945, 8.89194 14.738, 8.74709 15.089, 8.60282 15.4405, 8.42019 15.7594, 8.20035 16.0462, 7.9805 16.3336, 7.7286 16.5729, 7.44521 16.7647, 7.16239 16.9571, 6.83835 17.0533, 6.47366 17.0533, 6.15935 17.0533, 5.89027 16.9863, 5.66699 16.8518, 5.44371 16.7178, 5.27082 16.5409, 5.1483 16.321, 5.02578 16.1012, 4.96395 15.8567, 4.96395 15.5877, 4.95135 15.5762, 4.94506 15.5453, 4.94506 15.4961, 4.94506 15.2338, 5.00174 14.959, 5.11509 14.6716, 5.32234 14.1409, 5.51757 13.6096, 5.69963 13.0783, 5.88226 12.5471, 6.04256 12.0158, 6.18111 11.4839, 6.26927 11.1244, 6.33511 10.7763, 6.37919 10.4396, 6.39179 10.3423, 6.39809 10.2387, 6.39809 10.1282, 6.39809 9.92095, 6.3729 9.73202, 6.32252 9.56027, 6.20916 9.17612, 5.97042 8.98375, 5.60516 8.98318, 4.96395 8.98375, 4.41377 9.20245, 3.95462 9.6387, 3.49546 10.0755, 3.08612 10.6601, 2.72773 11.3923 L 1.44473 16.3754 C 1.38863 16.6021, 1.27355 16.771, 1.10065 16.8838, 0.927757 16.9972, 0.753141 17.0533, 0.576808 17.0533, 0.39475 17.0533, 0.243607 16.9926, 0.123953 16.8701, 0.042084 16.7911, 0.000863314 16.6811, 0.000863314 16.5403, 0.000863314 16.4739, 0.0071609 16.4063, 0.0197561 16.3388 L 2.85998 5.32828 C 2.91036 5.12733, 2.94185 4.97447, 2.95444 4.87027 L 2.95444 4.84279 C 2.95444 4.7884, 2.94185 4.7489, 2.91666 4.72371, 2.84108 4.67562, 2.69967 4.64184, 2.49185 4.62352, 2.2846 4.6052, 2.0453 4.59604, 1.77507 4.59547, 1.68061 4.59604, 1.61133 4.56569, 1.56725 4.50386, 1.52946 4.4678, 1.51057 4.422, 1.51057 4.36646, 1.51057 4.33039, 1.5203 4.29662, 1.5392 4.2657 L 1.56725 4.11914 C 1.61763 3.97315, 1.73729 3.88155, 1.92564 3.84433 L 4.38858 3.64281, 4.42579 3.64281 C 4.50136 3.64338, 4.56434 3.668, 4.61472 3.71609, 4.6525 3.77162, 4.6714 3.82029, 4.6714 3.86265, 4.6714 3.89987, 4.66224 3.93364, 4.64334 3.96342 L 3.23726 9.42287 C 3.41359 9.21562, 3.72504 8.98833, 4.1716 8.74101, 4.61815 8.49368, 5.13399 8.37002, 5.71852 8.36945, 6.09008 8.37002, 6.43645 8.43872, 6.75705 8.57613, 7.07766 8.71353, 7.32613 8.93509, 7.50189 9.23967, 7.69081 9.55168, 7.78471 9.90263, 7.78471 10.2931 L 7.78471 10.3389 C 7.77211 10.7305, 7.716 11.1244, 7.61524 11.5205, 7.47097 12.077, 7.30093 12.6238, 7.10571 13.1608, 6.91106 13.6984, 6.70953 14.2445, 6.50171 14.7999, 6.31336 15.2768, 6.21889 15.677, 6.21889 15.9999, 6.21889 15.9518, 6.22519 15.9272, 6.23778 15.9266, 6.23778 16.2752, 6.354 16.4493, 6.58644 16.4487, 6.80056 16.4493, 6.99121 16.3852, 7.15781 16.2569, 7.32441 16.1287, 7.48013 15.9563, 7.6244 15.7394, 7.76925 15.523, 7.89692 15.2665, 8.00684 14.9699, 8.11676 14.6739, 8.21924 14.3608, 8.31313 14.0304, 8.35092 13.8724, 8.45798 13.7928, 8.63431 13.7923 L 8.85129 13.7923 C 9.01503 13.7928, 9.09632 13.8598, 9.09632 13.9938 L 9.09632 14.0579 Z" stroke="none" fill="#000000" />
			<path d="M 2.37267 3.19713 C 1.72472 3.17661, 1.09441 3.16635, 0.481416 3.16635, -0.131261 3.16635, -0.761571 3.17661, -1.40951 3.19713 L -1.40951 2.75598, -1.04499 2.75598 C -0.928927 2.7563, -0.819601 2.75469, -0.717648 2.75117, -0.615375 2.74796, -0.518552 2.7393, -0.426859 2.72552, -0.335166 2.71205, -0.255976 2.69827, -0.18929 2.68416, -0.132864 2.67422, -0.086376 2.6428, -0.0495062 2.58958, -0.012316 2.53668, 0.00595856 2.47769, 0.00595856 2.41229 L 0.00595856 -3.36887 C -0.169733 -3.28295, -0.386463 -3.21787, -0.643588 -3.17362, -0.900714 -3.12906, -1.18221 -3.10694, -1.4887 -3.10726 L -1.4887 -3.54328 C -1.06615 -3.54296, -0.675969 -3.59329, -0.318494 -3.69429, 0.0389807 -3.79496, 0.348044 -3.98411, 0.608376 -4.26144 L 0.772206 -4.26144 C 0.888265 -4.26112, 0.946294 -4.20469, 0.946294 -4.09216 L 0.946294 2.41229 C 0.946294 2.4809, 0.963928 2.54085, 0.999194 2.59215, 1.03446 2.64344, 1.08576 2.67422, 1.15244 2.68416, 1.20887 2.69827, 1.28133 2.71205, 1.36917 2.72552, 1.45702 2.7393, 1.55641 2.74796, 1.66734 2.75117, 1.77827 2.75469, 1.88663 2.7563, 1.99243 2.75598 L 2.37267 2.75598, 2.37267 3.19713 Z" stroke="none" fill="#000000" transform="matrix(1.12 0 0 1 11.5585 16.3063)" />
			<rect />
		</svg>
	</g>
	<g transform="matrix(1 0 -0 1 50.6522 33.3236)">
		<svg width="50.936203" height="54.1276474">
			<defs />
			<path d="M 9.09632 14.0579 C 9.00816 14.3945, 8.89194 14.738, 8.74709 15.089, 8.60282 15.4405, 8.42019 15.7594, 8.20035 16.0462, 7.9805 16.3336, 7.7286 16.5729, 7.44521 16.7647, 7.16239 16.9571, 6.83835 17.0533, 6.47366 17.0533, 6.15935 17.0533, 5.89027 16.9863, 5.66699 16.8518, 5.44371 16.7178, 5.27082 16.5409, 5.1483 16.321, 5.02578 16.1012, 4.96395 15.8567, 4.96395 15.5877, 4.95135 15.5762, 4.94506 15.5453, 4.94506 15.4961, 4.94506 15.2338, 5.00174 14.959, 5.11509 14.6716, 5.32234 14.1409, 5.51757 13.6096, 5.69963 13.0783, 5.88226 12.5471, 6.04256 12.0158, 6.18111 11.4839, 6.26927 11.1244, 6.33511 10.7763, 6.37919 10.4396, 6.39179 10.3423, 6.39809 10.2387, 6.39809 10.1282, 6.39809 9.92095, 6.3729 9.73202, 6.32252 9.56027, 6.20916 9.17612, 5.97042 8.98375, 5.60516 8.98318, 4.96395 8.98375, 4.41377 9.20245, 3.95462 9.6387, 3.49546 10.0755, 3.08612 10.6601, 2.72773 11.3923 L 1.44473 16.3754 C 1.38863 16.6021, 1.27355 16.771, 1.10065 16.8838, 0.927757 16.9972, 0.753141 17.0533, 0.576808 17.0533, 0.39475 17.0533, 0.243607 16.9926, 0.123953 16.8701, 0.042084 16.7911, 0.000863314 16.6811, 0.000863314 16.5403, 0.000863314 16.4739, 0.0071609 16.4063, 0.0197561 16.3388 L 2.85998 5.32828 C 2.91036 5.12733, 2.94185 4.97447, 2.95444 4.87027 L 2.95444 4.84279 C 2.95444 4.7884, 2.94185 4.7489, 2.91666 4.72371, 2.84108 4.67562, 2.69967 4.64184, 2.49185 4.62352, 2.2846 4.6052, 2.0453 4.59604, 1.77507 4.59547, 1.68061 4.59604, 1.61133 4.56569, 1.56725 4.50386, 1.52946 4.4678, 1.51057 4.422, 1.51057 4.36646, 1.51057 4.33039, 1.5203 4.29662, 1.5392 4.2657 L 1.56725 4.11914 C 1.61763 3.97315, 1.73729 3.88155, 1.92564 3.84433 L 4.38858 3.64281, 4.42579 3.64281 C 4.50136 3.64338, 4.56434 3.668, 4.61472 3.71609, 4.6525 3.77162, 4.6714 3.82029, 4.6714 3.86265, 4.6714 3.89987, 4.66224 3.93364, 4.64334 3.96342 L 3.23726 9.42287 C 3.41359 9.21562, 3.72504 8.98833, 4.1716 8.74101, 4.61815 8.49368, 5.13399 8.37002, 5.71852 8.36945, 6.09008 8.37002, 6.43645 8.43872, 6.75705 8.57613, 7.07766 8.71353, 7.32613 8.93509, 7.50189 9.23967, 7.69081 9.55168, 7.78471 9.90263, 7.78471 10.2931 L 7.78471 10.3389 C 7.77211 10.7305, 7.716 11.1244, 7.61524 11.5205, 7.47097 12.077, 7.30093 12.6238, 7.10571 13.1608, 6.91106 13.6984, 6.70953 14.2445, 6.50171 14.7999, 6.31336 15.2768, 6.21889 15.677, 6.21889 15.9999, 6.21889 15.9518, 6.22519 15.9272, 6.23778 15.9266, 6.23778 16.2752, 6.354 16.4493, 6.58644 16.4487, 6.80056 16.4493, 6.99121 16.3852, 7.15781 16.2569, 7.32441 16.1287, 7.48013 15.9563, 7.6244 15.7394, 7.76925 15.523, 7.89692 15.2665, 8.00684 14.9699, 8.11676 14.6739, 8.21924 14.3608, 8.31313 14.0304, 8.35092 13.8724, 8.45798 13.7928, 8.63431 13.7923 L 8.85129 13.7923 C 9.01503 13.7928, 9.09632 13.8598, 9.09632 13.9938 L 9.09632 14.0579 Z" stroke="none" fill="#000000" />
			<path d="M 2.39138 3.19713 L -1.90858 3.19713, -1.90858 2.915 C -1.90858 2.8948, -1.898 2.86402, -1.87684 2.82266 L -0.149418 0.945196 C 0.0551279 0.71981, 0.261918 0.488975, 0.471594 0.253009, 0.68127 0.0170434, 0.868504 -0.224052, 1.03394 -0.470277, 1.19937 -0.716502, 1.33146 -0.970422, 1.4302 -1.23204, 1.52895 -1.49365, 1.578 -1.76809, 1.578 -2.05567, 1.578 -2.29805, 1.54658 -2.52472, 1.4831 -2.73503, 1.41962 -2.94535, 1.32825 -3.13002, 1.20835 -3.28904, 1.08844 -3.44806, 0.938716 -3.5763, 0.759177 -3.67377, 0.579638 -3.77123, 0.371886 -3.81996, 0.13592 -3.82028, -0.216105 -3.81996, -0.527092 -3.7148, -0.7964 -3.50449, -1.06571 -3.29417, -1.24461 -3.06237, -1.33277 -2.80974, -1.35009 -2.80268, -1.32187 -2.79915, -1.24813 -2.79948 L -1.15836 -2.79948 C -1.05256 -2.77511, -0.961191 -2.73824, -0.883605 -2.68887, -0.806018 -2.63917, -0.740935 -2.57088, -0.688036 -2.48368, -0.635136 -2.39647, -0.608846 -2.29132, -0.608846 -2.16852, -0.608846 -1.96302, -0.675532 -1.8056, -0.809545 -1.69627, -0.943558 -1.58663, -1.09328 -1.53212, -1.25871 -1.53244, -1.41709 -1.53212, -1.56489 -1.58663, -1.70243 -1.69627, -1.83965 -1.8056, -1.90858 -1.96302, -1.90858 -2.16852, -1.90858 -2.45547, -1.85215 -2.72734, -1.7393 -2.98382, -1.62645 -3.24031, -1.47352 -3.46249, -1.27987 -3.65068, -1.08623 -3.83856, -0.857315 -3.98732, -0.593136 -4.09697, -0.328958 -4.20629, -0.0487483 -4.26112, 0.24685 -4.26144, 0.612981 -4.26112, 0.948655 -4.20725, 1.25323 -4.09953, 1.55781 -3.99181, 1.8175 -3.83695, 2.0323 -3.63529, 2.24711 -3.43331, 2.41543 -3.19991, 2.53693 -2.93509, 2.65844 -2.66995, 2.71904 -2.37692, 2.71904 -2.05567, 2.71904 -1.6998, 2.63825 -1.37214, 2.47602 -1.07302, 2.31411 -0.77357, 2.11342 -0.499131, 1.87392 -0.2497, 1.63443 5.126e-005, 1.37987 0.235055, 1.11056 0.455632, 0.841252 0.676208, 0.597272 0.890693, 0.378939 1.09909 L -0.836155 2.24301, 0.754048 2.24301 C 0.975907 2.24333, 1.18302 2.24172, 1.37474 2.2382, 1.56678 2.23499, 1.72965 2.22794, 1.86334 2.21768, 1.99736 2.20742, 2.06597 2.20069, 2.06917 2.19684, 2.09738 2.17312, 2.12399 2.12534, 2.14868 2.05353, 2.17337 1.98171, 2.19613 1.89707, 2.21729 1.79961, 2.23845 1.70215, 2.25961 1.60308, 2.28077 1.50209, 2.30193 1.40142, 2.32117 1.29081, 2.3388 1.1709 L 2.72962 1.1709 Z" stroke="none" fill="#000000" transform="matrix(1.12 0 0 1 11.9814 16.3063)" />
			<rect />
		</svg>
	</g>
	<g transform="matrix(1 0 -0 1 190.055 77.5737)">
		<svg width="50.936203" height="54.1276474">
			<defs />
			<path d="M 9.09632 14.0579 C 9.00816 14.3945, 8.89194 14.738, 8.74709 15.089, 8.60282 15.4405, 8.42019 15.7594, 8.20035 16.0462, 7.9805 16.3336, 7.7286 16.5729, 7.44521 16.7647, 7.16239 16.9571, 6.83835 17.0533, 6.47366 17.0533, 6.15935 17.0533, 5.89027 16.9863, 5.66699 16.8518, 5.44371 16.7178, 5.27082 16.5409, 5.1483 16.321, 5.02578 16.1012, 4.96395 15.8567, 4.96395 15.5877, 4.95135 15.5762, 4.94506 15.5453, 4.94506 15.4961, 4.94506 15.2338, 5.00174 14.959, 5.11509 14.6716, 5.32234 14.1409, 5.51757 13.6096, 5.69963 13.0783, 5.88226 12.5471, 6.04256 12.0158, 6.18111 11.4839, 6.26927 11.1244, 6.33511 10.7763, 6.37919 10.4396, 6.39179 10.3423, 6.39809 10.2387, 6.39809 10.1282, 6.39809 9.92095, 6.3729 9.73202, 6.32252 9.56027, 6.20916 9.17612, 5.97042 8.98375, 5.60516 8.98318, 4.96395 8.98375, 4.41377 9.20245, 3.95462 9.6387, 3.49546 10.0755, 3.08612 10.6601, 2.72773 11.3923 L 1.44473 16.3754 C 1.38863 16.6021, 1.27355 16.771, 1.10065 16.8838, 0.927757 16.9972, 0.753141 17.0533, 0.576808 17.0533, 0.39475 17.0533, 0.243607 16.9926, 0.123953 16.8701, 0.042084 16.7911, 0.000863314 16.6811, 0.000863314 16.5403, 0.000863314 16.4739, 0.0071609 16.4063, 0.0197561 16.3388 L 2.85998 5.32828 C 2.91036 5.12733, 2.94185 4.97447, 2.95444 4.87027 L 2.95444 4.84279 C 2.95444 4.7884, 2.94185 4.7489, 2.91666 4.72371, 2.84108 4.67562, 2.69967 4.64184, 2.49185 4.62352, 2.2846 4.6052, 2.0453 4.59604, 1.77507 4.59547, 1.68061 4.59604, 1.61133 4.56569, 1.56725 4.50386, 1.52946 4.4678, 1.51057 4.422, 1.51057 4.36646, 1.51057 4.33039, 1.5203 4.29662, 1.5392 4.2657 L 1.56725 4.11914 C 1.61763 3.97315, 1.73729 3.88155, 1.92564 3.84433 L 4.38858 3.64281, 4.42579 3.64281 C 4.50136 3.64338, 4.56434 3.668, 4.61472 3.71609, 4.6525 3.77162, 4.6714 3.82029, 4.6714 3.86265, 4.6714 3.89987, 4.66224 3.93364, 4.64334 3.96342 L 3.23726 9.42287 C 3.41359 9.21562, 3.72504 8.98833, 4.1716 8.74101, 4.61815 8.49368, 5.13399 8.37002, 5.71852 8.36945, 6.09008 8.37002, 6.43645 8.43872, 6.75705 8.57613, 7.07766 8.71353, 7.32613 8.93509, 7.50189 9.23967, 7.69081 9.55168, 7.78471 9.90263, 7.78471 10.2931 L 7.78471 10.3389 C 7.77211 10.7305, 7.716 11.1244, 7.61524 11.5205, 7.47097 12.077, 7.30093 12.6238, 7.10571 13.1608, 6.91106 13.6984, 6.70953 14.2445, 6.50171 14.7999, 6.31336 15.2768, 6.21889 15.677, 6.21889 15.9999, 6.21889 15.9518, 6.22519 15.9272, 6.23778 15.9266, 6.23778 16.2752, 6.354 16.4493, 6.58644 16.4487, 6.80056 16.4493, 6.99121 16.3852, 7.15781 16.2569, 7.32441 16.1287, 7.48013 15.9563, 7.6244 15.7394, 7.76925 15.523, 7.89692 15.2665, 8.00684 14.9699, 8.11676 14.6739, 8.21924 14.3608, 8.31313 14.0304, 8.35092 13.8724, 8.45798 13.7928, 8.63431 13.7923 L 8.85129 13.7923 C 9.01503 13.7928, 9.09632 13.8598, 9.09632 13.9938 L 9.09632 14.0579 Z" stroke="none" fill="#000000" />
			<path d="M 2.81931 1.26324 C 2.81931 1.55755, 2.75423 1.84001, 2.62406 2.10996, 2.4939 2.38023, 2.31949 2.61106, 2.10083 2.80214, 1.85461 3.01791, 1.58242 3.17757, 1.28489 3.28177, 0.987372 3.38629, 0.676384 3.43822, 0.352252 3.43822, 0.0601807 3.43822, -0.224838 3.39719, -0.503123 3.31511, -0.781409 3.23304, -1.03212 3.11537, -1.2559 2.96148, -1.47969 2.80759, -1.65826 2.61876, -1.79228 2.39465, -1.92597 2.17087, -1.99298 1.91342, -1.99298 1.62232, -1.99298 1.40366, -1.91988 1.24047, -1.77368 1.13275, -1.62749 1.02503, -1.4736 0.971165, -1.31169 0.970845, -1.14241 0.971165, -0.984993 1.02503, -0.838797 1.13275, -0.692601 1.24047, -0.619503 1.40366, -0.619503 1.62232, -0.619503 1.75248, -0.644831 1.86117, -0.696128 1.94837, -0.747104 2.03558, -0.812187 2.10835, -0.891697 2.16638, -0.970886 2.22473, -1.06162 2.26032, -1.16357 2.27379, -1.21615 2.28789, -1.26552 2.29462, -1.31169 2.2943, -1.35722 2.29462, -1.36427 2.29815, -1.33285 2.30456, -1.22352 2.49629, -1.00872 2.66589, -0.688112 2.81272, -0.367507 2.95988, -0.0209324 3.0333, 0.352252 3.03298, 0.528585 3.0333, 0.693056 2.9897, 0.846305 2.90249, 0.999555 2.81529, 1.12748 2.69827, 1.22943 2.55079, 1.35639 2.35971, 1.44263 2.15452, 1.48816 1.93555, 1.534 1.71689, 1.55677 1.49279, 1.55677 1.26324, 1.55677 1.02759, 1.534 0.801244, 1.48816 0.583874, 1.44263 0.366824, 1.35639 0.165804, 1.22943 -0.0191851, 1.12363 -0.169228, 0.995066 -0.290738, 0.84374 -0.383072, 0.692415 -0.475407, 0.528585 -0.521574, 0.352252 -0.521894 L -0.413674 -0.521894 C -0.515627 -0.521574, -0.57013 -0.569344, -0.577183 -0.665526 L -0.577183 -0.721952 C -0.577183 -0.762669, -0.564679 -0.79505, -0.540313 -0.819416, -0.508573 -0.849874, -0.468177 -0.865263, -0.418804 -0.865584, -0.316531 -0.879049, -0.211051 -0.885782, -0.102046 -0.886102, 0.00375414 -0.885782, 0.107951 -0.892514, 0.209903 -0.906621, 0.400023 -0.920087, 0.565455 -0.978757, 0.706201 -1.08327, 0.847267 -1.18747, 0.96525 -1.32084, 1.06015 -1.48339, 1.15537 -1.64562, 1.22751 -1.83285, 1.27688 -2.04509, 1.32625 -2.25701, 1.35094 -2.47438, 1.35094 -2.69688, 1.35094 -2.86071, 1.33331 -3.01621, 1.29804 -3.16336, 1.26277 -3.3102, 1.19769 -3.43876, 1.10247 -3.54841, 0.905297 -3.7738, 0.655225 -3.88505, 0.352252 -3.88184, 0.0284407 -3.88152, -0.268119 -3.8206, -0.537428 -3.69942, -0.806736 -3.57791, -0.987558 -3.4471, -1.07925 -3.30731, -1.10362 -3.30347, -1.09143 -3.30186, -1.04206 -3.30219, -0.915101 -3.30186, -0.795515 -3.26435, -0.682983 -3.18933, -0.513703 -3.08994, -0.429384 -2.92227, -0.429384 -2.68662, -0.429384 -2.48785, -0.493505 -2.33812, -0.622068 -2.23745, -0.75063 -2.13646, -0.894262 -2.08613, -1.05264 -2.08645, -1.20749 -2.08613, -1.35273 -2.1355, -1.48834 -2.23489, -1.62396 -2.33396, -1.69193 -2.48464, -1.69193 -2.68662, -1.69193 -2.93605, -1.63197 -3.15631, -1.51239 -3.34803, -1.39248 -3.53943, -1.23859 -3.70358, -1.05008 -3.84048, -0.86156 -3.97706, -0.644189 -4.08158, -0.397644 -4.15339, -0.151098 -4.22521, 0.098974 -4.26112, 0.352252 -4.26144, 0.623485 -4.26112, 0.88606 -4.22521, 1.13966 -4.15339, 1.39326 -4.08158, 1.63275 -3.97033, 1.85782 -3.82028, 2.0412 -3.69012, 2.19509 -3.53014, 2.32013 -3.34034, 2.44516 -3.15054, 2.50768 -2.93605, 2.50768 -2.69688, 2.50768 -2.45707, 2.46472 -2.23136, 2.37848 -2.01944, 2.29224 -1.8072, 2.17778 -1.6158, 2.03511 -1.44492, 1.89244 -1.27371, 1.72252 -1.12335, 1.52535 -0.993505, 1.32818 -0.863339, 1.18006 -0.781585, 1.08131 -0.747601, 1.16595 -0.737021, 1.31054 -0.686365, 1.51477 -0.595954, 1.71899 -0.505223, 1.91424 -0.384675, 2.10083 -0.234632, 2.31949 -0.0461159, 2.4939 0.178629, 2.62406 0.440243, 2.75423 0.701857, 2.81931 0.976295, 2.81931 1.26324 Z" stroke="none" fill="#000000" transform="matrix(1.12 0 0 1 12.0657 16.3063)" />
			<rect />
		</svg>
	</g>
	<g transform="matrix(1 0 -0 1 116.127 103.574)">
		<svg width="50.936203" height="54.1276474">
			<defs />
			<path d="M 9.09632 14.0579 C 9.00816 14.3945, 8.89194 14.738, 8.74709 15.089, 8.60282 15.4405, 8.42019 15.7594, 8.20035 16.0462, 7.9805 16.3336, 7.7286 16.5729, 7.44521 16.7647, 7.16239 16.9571, 6.83835 17.0533, 6.47366 17.0533, 6.15935 17.0533, 5.89027 16.9863, 5.66699 16.8518, 5.44371 16.7178, 5.27082 16.5409, 5.1483 16.321, 5.02578 16.1012, 4.96395 15.8567, 4.96395 15.5877, 4.95135 15.5762, 4.94506 15.5453, 4.94506 15.4961, 4.94506 15.2338, 5.00174 14.959, 5.11509 14.6716, 5.32234 14.1409, 5.51757 13.6096, 5.69963 13.0783, 5.88226 12.5471, 6.04256 12.0158, 6.18111 11.4839, 6.26927 11.1244, 6.33511 10.7763, 6.37919 10.4396, 6.39179 10.3423, 6.39809 10.2387, 6.39809 10.1282, 6.39809 9.92095, 6.3729 9.73202, 6.32252 9.56027, 6.20916 9.17612, 5.97042 8.98375, 5.60516 8.98318, 4.96395 8.98375, 4.41377 9.20245, 3.95462 9.6387, 3.49546 10.0755, 3.08612 10.6601, 2.72773 11.3923 L 1.44473 16.3754 C 1.38863 16.6021, 1.27355 16.771, 1.10065 16.8838, 0.927757 16.9972, 0.753141 17.0533, 0.576808 17.0533, 0.39475 17.0533, 0.243607 16.9926, 0.123953 16.8701, 0.042084 16.7911, 0.000863314 16.6811, 0.000863314 16.5403, 0.000863314 16.4739, 0.0071609 16.4063, 0.0197561 16.3388 L 2.85998 5.32828 C 2.91036 5.12733, 2.94185 4.97447, 2.95444 4.87027 L 2.95444 4.84279 C 2.95444 4.7884, 2.94185 4.7489, 2.91666 4.72371, 2.84108 4.67562, 2.69967 4.64184, 2.49185 4.62352, 2.2846 4.6052, 2.0453 4.59604, 1.77507 4.59547, 1.68061 4.59604, 1.61133 4.56569, 1.56725 4.50386, 1.52946 4.4678, 1.51057 4.422, 1.51057 4.36646, 1.51057 4.33039, 1.5203 4.29662, 1.5392 4.2657 L 1.56725 4.11914 C 1.61763 3.97315, 1.73729 3.88155, 1.92564 3.84433 L 4.38858 3.64281, 4.42579 3.64281 C 4.50136 3.64338, 4.56434 3.668, 4.61472 3.71609, 4.6525 3.77162, 4.6714 3.82029, 4.6714 3.86265, 4.6714 3.89987, 4.66224 3.93364, 4.64334 3.96342 L 3.23726 9.42287 C 3.41359 9.21562, 3.72504 8.98833, 4.1716 8.74101, 4.61815 8.49368, 5.13399 8.37002, 5.71852 8.36945, 6.09008 8.37002, 6.43645 8.43872, 6.75705 8.57613, 7.07766 8.71353, 7.32613 8.93509, 7.50189 9.23967, 7.69081 9.55168, 7.78471 9.90263, 7.78471 10.2931 L 7.78471 10.3389 C 7.77211 10.7305, 7.716 11.1244, 7.61524 11.5205, 7.47097 12.077, 7.30093 12.6238, 7.10571 13.1608, 6.91106 13.6984, 6.70953 14.2445, 6.50171 14.7999, 6.31336 15.2768, 6.21889 15.677, 6.21889 15.9999, 6.21889 15.9518, 6.22519 15.9272, 6.23778 15.9266, 6.23778 16.2752, 6.354 16.4493, 6.58644 16.4487, 6.80056 16.4493, 6.99121 16.3852, 7.15781 16.2569, 7.32441 16.1287, 7.48013 15.9563, 7.6244 15.7394, 7.76925 15.523, 7.89692 15.2665, 8.00684 14.9699, 8.11676 14.6739, 8.21924 14.3608, 8.31313 14.0304, 8.35092 13.8724, 8.45798 13.7928, 8.63431 13.7923 L 8.85129 13.7923 C 9.01503 13.7928, 9.09632 13.8598, 9.09632 13.9938 L 9.09632 14.0579 Z" stroke="none" fill="#000000" />
			<path d="M 1.84803 1.37096 L 1.84803 2.41229 C 1.84803 2.47416, 1.85957 2.53155, 1.88265 2.58445, 1.90574 2.63767, 1.94357 2.67262, 1.99615 2.68929, 2.07726 2.72712, 2.20935 2.74796, 2.39242 2.75117, 2.57548 2.75469, 2.76015 2.7563, 2.94674 2.75598 L 2.94674 3.19713 C 2.40813 3.17661, 1.88009 3.16635, 1.36199 3.16635, 0.851588 3.16635, 0.314573 3.17661, -0.249051 3.19713 L -0.249051 2.75598 C -0.0554054 2.7563, 0.131508 2.75469, 0.311047 2.75117, 0.490586 2.74796, 0.624599 2.72712, 0.712445 2.68929, 0.765345 2.67262, 0.804138 2.63767, 0.828825 2.58445, 0.853511 2.53155, 0.865694 2.47416, 0.865694 2.41229 L 0.865694 1.37096, -2.14543 1.37096, -2.14543 0.955456, 1.38315 -4.29221 C 1.42932 -4.35345, 1.48735 -4.38423, 1.55756 -4.38455 L 1.67394 -4.38455 C 1.79 -4.38423, 1.84803 -4.3262, 1.84803 -4.21014 L 1.84803 0.919548, 2.98393 0.919548, 2.98393 1.37096 Z M 0.918273 -2.94311 L -1.68055 0.919548, 0.918273 0.919548 Z" stroke="none" fill="#000000" transform="matrix(1.12 0 0 1 12.2189 16.3063)" />
			<rect />
		</svg>
	</g>
</svg>
