<?xml version="1.0"?>
<svg xmlns="http://www.w3.org/2000/svg" xmlns:xlink="http://www.w3.org/1999/xlink" width="316.449219" height="279.223206">
	<defs />
	<path d="M -153.511 -5.00576 L 153.511 -5.00576, 153.511 5.00576, -153.511 5.00576 Z" fill="none" stroke="#000000" stroke-width="3.12000012" stroke-linecap="round" stroke-linejoin="round" transform="matrix(0.211372 0.321327 -0.321327 0.211372 63.4035 200.787)" />
	<path d="M -193.891 -5.0058 L 193.891 -5.0058, 193.891 5.0058, -193.891 5.0058 Z" fill="none" stroke="#000000" stroke-width="3.12000012" stroke-linecap="round" stroke-linejoin="round" transform="matrix(0.226049 -0.311177 0.311177 0.226049 74.7843 91.1253)" />
	<path d="M -283.073 -5.0056 L 283.073 -5.0056, 283.073 5.0056, -283.073 5.0056 Z" fill="none" stroke="#000000" stroke-width="3.12000012" stroke-linecap="round" stroke-linejoin="round" transform="matrix(0.0407329 -0.382452 0.382452 0.0407329 107.382 139.736)" />
	<g transform="matrix(1 0 -0 1 9.00005 140.252)">
		<svg width="42.0378685" height="45.2233963">
			<defs />
			<path d="M 12.3983 16.5678 C 12.3296 16.751, 12.2099 16.8426, 12.0399 16.8426, 11.4113 16.806, 10.7849 16.7876, 10.1621 16.7876 L 9.85061 16.7876 C 9.11493 16.8002, 8.37582 16.8185, 7.63385 16.8426, 7.46439 16.8426, 7.37279 16.7636, 7.36019 16.6044 L 7.36019 16.5311, 7.39798 16.3754 C 7.44836 16.1745, 7.57088 16.0766, 7.76553 16.0823, 7.99854 16.0829, 8.20636 16.0754, 8.38842 16.06, 8.57105 16.0451, 8.74738 15.9913, 8.91685 15.8991, 8.97982 15.8693, 9.03364 15.8264, 9.07715 15.7709, 9.10234 15.7228, 9.11837 15.6735, 9.12409 15.6243 L 9.12409 15.5693, 8.89795 12.5282, 4.63333 12.5282, 3.13335 15.093 C 3.05148 15.2401, 3.01026 15.3747, 3.01026 15.4961, 3.01026 15.6002, 3.04175 15.6953, 3.10473 15.78, 3.24327 15.9821, 3.50148 16.0829, 3.87819 16.0823, 4.04822 16.0829, 4.13925 16.1562, 4.15185 16.3021, 4.15185 16.3394, 4.14555 16.3789, 4.13295 16.4212 L 4.09574 16.5678 C 4.02647 16.751, 3.90395 16.8426, 3.72762 16.8426, 3.14938 16.8185, 2.57687 16.8002, 2.01009 16.7876 L 1.75589 16.7876 C 1.26525 16.7876, 0.768314 16.806, 0.265078 16.8426, 0.170614 16.8426, 0.101341 16.8123, 0.0572573 16.751, 0.0194716 16.7149, 0.000578821 16.672, 0.000578821 16.6228, 0.000578821 16.5867, 0.00687641 16.55, 0.0194716 16.5128 L 0.0572573 16.3754 C 0.107638 16.1745, 0.230728 16.0766, 0.425381 16.0823, 0.626904 16.0829, 0.824993 16.0617, 1.01965 16.0188, 1.21487 15.9764, 1.3975 15.8997, 1.56697 15.7897, 1.737 15.6798, 1.89444 15.547, 2.03871 15.3913, 2.18356 15.2356, 2.31237 15.0598, 2.42573 14.864 L 9.08631 3.45961 C 9.19967 3.289, 9.34451 3.20656, 9.52084 3.21228 L 9.70004 3.21228 C 9.90156 3.21285, 10.0143 3.30732, 10.0395 3.49625 L 10.8697 15.4319 C 10.8823 15.5911, 10.9012 15.7119, 10.9264 15.7943, 10.9515 15.8768, 10.9956 15.9363, 11.0586 15.9724, 11.1468 16.0279, 11.2928 16.06, 11.4971 16.0691, 11.7021 16.0783, 11.9328 16.0829, 12.1905 16.0823, 12.3668 16.0829, 12.455 16.1562, 12.455 16.3021, 12.455 16.3394, 12.4487 16.3789, 12.4361 16.4212 Z M 8.4451 6.03361 L 5.08618 11.7862, 8.84127 11.7862 Z" stroke="none" fill="#000000" />
			<rect />
		</svg>
	</g>
	<g transform="matrix(1 0 -0 1 68.2176 247.808)">
		<svg width="44.9082985" height="45.2233963">
			<defs />
			<path d="M 13.0332 7.12367 C 12.9267 7.56393, 12.7143 7.97614, 12.3966 8.36086, 12.0788 8.74559, 11.7124 9.07249, 11.2973 9.34043, 10.9704 9.56084, 10.6355 9.73489, 10.2926 9.86313, 9.94965 9.99137, 9.82828 10.0463, 9.92904 10.0274, 9.91072 10.0217, 10.0756 10.1001, 10.4248 10.2616, 10.7741 10.4236, 11.0804 10.6446, 11.3443 10.9251, 11.6403 11.2251, 11.8418 11.5852, 11.9483 12.006, 11.9987 12.2144, 12.0273 12.4188, 12.033 12.6198, 12.033 12.8522, 11.9987 13.0938, 11.9294 13.3434, 11.8103 13.814, 11.5899 14.2634, 11.2693 14.6905, 10.9487 15.1182, 10.5645 15.4903, 10.118 15.8075, 9.64622 16.1499, 9.1447 16.4081, 8.61342 16.5821, 8.08213 16.7561, 7.55198 16.8426, 7.02298 16.8426 L 0.267942 16.8426 C 0.173478 16.8426, 0.104204 16.8151, 0.0601207 16.7602, 0.0166099 16.7178, -0.00571795 16.672, -0.00571795 16.6228, -0.00571795 16.5867, 0.000579656 16.55, 0.0131749 16.5128 L 0.0509605 16.3754 C 0.0887462 16.1745, 0.211263 16.0766, 0.418512 16.0823, 0.714499 16.0829, 0.991594 16.0783, 1.24922 16.0691, 1.50685 16.06, 1.70208 16.0279, 1.83376 15.9724, 1.94711 15.9117, 2.03528 15.7468, 2.09826 15.4777 L 4.74955 5.15423 C 4.78733 5.02027, 4.80565 4.91664, 4.80565 4.84279, 4.80565 4.77008, 4.7902 4.72714, 4.75871 4.71455, 4.67054 4.66016, 4.49936 4.62695, 4.24459 4.61436, 3.98983 4.60234, 3.71159 4.59604, 3.4093 4.59547, 3.31541 4.59604, 3.24614 4.56569, 3.20205 4.50386, 3.16427 4.4678, 3.14538 4.422, 3.14538 4.36646, 3.14538 4.33039, 3.15511 4.29662, 3.17343 4.2657 L 3.20205 4.1283 C 3.22095 4.04357, 3.26675 3.97486, 3.33888 3.92277, 3.41102 3.87124, 3.48831 3.84491, 3.57018 3.84433 L 9.82542 3.84433 C 10.3413 3.84491, 10.8285 3.92162, 11.2876 4.07391, 11.7468 4.22677, 12.1275 4.4678, 12.4292 4.79699, 12.7252 5.09698, 12.933 5.44507, 13.0521 5.84125, 13.1025 6.04334, 13.1277 6.24773, 13.1277 6.45498, 13.1277 6.67539, 13.0962 6.8981, 13.0332 7.12367 Z M 11.1273 7.08703 C 11.1903 6.84314, 11.2218 6.59925, 11.2218 6.35422 L 11.2218 6.13437 C 11.1966 5.84182, 11.1084 5.56988, 10.9573 5.31912, 10.8256 5.09355, 10.651 4.91664, 10.434 4.7884, 10.217 4.66016, 9.96397 4.59604, 9.67428 4.59547 L 7.18329 4.59547 C 6.85009 4.59604, 6.6583 4.61722, 6.60791 4.65959, 6.53234 4.72142, 6.46021 4.89832, 6.39093 5.19088 L 5.2213 9.78927, 7.79702 9.78927 C 8.15541 9.78985, 8.51094 9.72, 8.86303 9.57916, 9.2157 9.4389, 9.55176 9.24024, 9.87236 8.98318, 10.5393 8.44617, 10.9578 7.81412, 11.1273 7.08703 Z M 9.96683 13.2885 C 10.055 12.9776, 10.0991 12.669, 10.0991 12.3633 L 10.0991 12.1709 C 10.0739 11.8297, 9.98286 11.5148, 9.82542 11.2274, 9.68687 10.9778, 9.49966 10.7746, 9.26379 10.6188, 9.02791 10.4631, 8.75311 10.3853, 8.43823 10.3847 L 5.05126 10.3847, 3.73964 15.5144 C 3.68926 15.7228, 3.66407 15.8722, 3.66407 15.9632, 3.66407 16.0125, 3.6675 16.0399, 3.6738 16.0457, 3.6864 16.0646, 3.85014 16.0766, 4.16444 16.0823 L 6.68349 16.0823 C 7.02928 16.0829, 7.37851 16.0084, 7.73061 15.8585, 8.08327 15.709, 8.40731 15.5121, 8.70273 15.267, 9.0302 14.9928, 9.29871 14.6848, 9.50939 14.3424, 9.72008 14.0007, 9.87294 13.6491, 9.96683 13.2885 Z" stroke="none" fill="#000000" />
			<rect />
		</svg>
	</g>
	<g transform="matrix(1 0 -0 1 293.505 105.463)">
		<svg width="44.9082985" height="45.2233963">
			<defs />
			<path d="M 13.6764 10.4854 C 13.4623 11.3104, 13.1245 12.1074, 12.6619 12.8768, 12.1999 13.6463, 11.6199 14.3453, 10.9215 14.9739, 10.286 15.5424, 9.58811 15.9959, 8.82667 16.3348, 8.06581 16.6737, 7.30494 16.8426, 6.5435 16.8426 L 0.269371 16.8426 C 0.0999078 16.8426, 0.00887877 16.7636, -0.00428895 16.6044 L -0.00428895 16.5311, 0.0334967 16.3754 C 0.0838775 16.1745, 0.206395 16.0766, 0.401048 16.0823, 0.697035 16.0829, 0.976993 16.0783, 1.24092 16.0691, 1.50542 16.06, 1.70007 16.0279, 1.82602 15.9724, 1.94568 15.906, 2.03671 15.7411, 2.09968 15.4777 L 4.75098 5.15423 C 4.78876 5.02027, 4.80708 4.91664, 4.80708 4.84279, 4.80708 4.77008, 4.79163 4.72714, 4.76014 4.71455, 4.67197 4.66016, 4.50079 4.62695, 4.24602 4.61436, 3.99126 4.60234, 3.71302 4.59604, 3.41073 4.59547, 3.23497 4.59604, 3.1468 4.5136, 3.1468 4.34814 L 3.1468 4.27486, 3.20348 4.11914 C 3.24127 3.93651, 3.35806 3.84491, 3.55271 3.84433 L 9.84574 3.84433 C 10.6255 3.84491, 11.3051 4.02525, 11.8839 4.38535, 12.4627 4.74604, 12.9281 5.21893, 13.2802 5.80461, 13.6575 6.46471, 13.8711 7.19752, 13.9214 8.00304, 13.934 8.1748, 13.9403 8.33338, 13.9403 8.47937, 13.9403 9.13318, 13.8527 9.80187, 13.6764 10.4854 Z M 11.8552 6.22597 C 11.6417 5.71988, 11.3068 5.32141, 10.8505 5.03115, 10.3948 4.74146, 9.86177 4.59604, 9.25148 4.59547 L 7.2225 4.59547 C 6.9019 4.59604, 6.7101 4.62066, 6.64713 4.66932, 6.58415 4.71856, 6.51831 4.89203, 6.44904 5.19088 L 3.77886 15.5144 C 3.72847 15.7228, 3.70328 15.8722, 3.70328 15.9632 L 3.70328 16.0365 C 3.72847 16.0617, 3.89565 16.0766, 4.20366 16.0823 L 6.23206 16.0823 C 6.84865 16.0829, 7.46353 15.9443, 8.07668 15.6661, 8.69042 15.3884, 9.23888 15.002, 9.72322 14.5068, 10.2768 13.9331, 10.7016 13.2936, 10.9971 12.5883, 11.2925 11.8829, 11.5283 11.1702, 11.7041 10.4488, 11.8993 9.69825, 12.0344 8.95627, 12.11 8.22289, 12.1226 8.05228, 12.1289 7.8874, 12.1289 7.72824, 12.1289 7.19123, 12.0379 6.69085, 11.8552 6.22597 Z" stroke="none" fill="#000000" />
			<rect />
		</svg>
	</g>
	<g transform="matrix(1 0 -0 1 99.7737 9)">
		<svg width="42.0378685" height="48.0957298">
			<defs />
			<path d="M 11.6723 8.71754 C 11.6345 8.88929, 11.5246 8.97746, 11.342 8.98318 L 11.1347 8.98318 C 10.9905 8.98375, 10.9115 8.91047, 10.8989 8.76334 L 10.8989 8.69006 C 10.9618 8.3059, 10.9968 7.93663, 11.0025 7.58168, 11.0025 7.38073, 10.9962 7.17634, 10.9836 6.96795, 10.9206 6.43093, 10.7792 5.95632, 10.5594 5.54411, 10.3395 5.13191, 10.0435 4.80214, 9.67256 4.55482, 9.30157 4.30749, 8.84814 4.18383, 8.31342 4.18326, 7.65961 4.18383, 7.00237 4.34299, 6.34169 4.66016, 5.68159 4.9779, 5.08389 5.40213, 4.54917 5.93285, 3.92628 6.56261, 3.43907 7.25878, 3.08698 8.02194, 2.73488 8.78566, 2.45779 9.56371, 2.25627 10.3572, 2.03642 11.1639, 1.91047 11.9453, 1.87898 12.7022 L 1.87898 12.9587 C 1.87898 13.6251, 2.01123 14.2325, 2.27516 14.7816, 2.52706 15.3014, 2.89461 15.7199, 3.37896 16.0371, 3.8633 16.3548, 4.43924 16.5134, 5.10565 16.5128, 5.64667 16.5134, 6.17796 16.3978, 6.70009 16.1653, 7.22221 15.9334, 7.70198 15.6203, 8.13938 15.2264, 8.57677 14.8325, 8.95864 14.3762, 9.28554 13.857, 9.61302 13.3383, 9.84889 12.7881, 9.99316 12.2076, 10.0309 12.0369, 10.1414 11.9516, 10.3235 11.9511 L 10.5307 11.9511 C 10.6882 11.9516, 10.7729 12.0186, 10.7855 12.1526, 10.7855 12.1898, 10.7764 12.2236, 10.7575 12.2534, 10.588 12.9255, 10.308 13.5638, 9.91759 14.1684, 9.52771 14.773, 9.06398 15.3031, 8.52582 15.7577, 7.98823 16.2128, 7.39855 16.5758, 6.75676 16.8472, 6.11555 17.1191, 5.45488 17.2548, 4.77531 17.2548, 3.90738 17.2548, 3.13564 17.0733, 2.45951 16.7103, 1.78337 16.3474, 1.23434 15.8447, 0.812968 15.2029, 0.372708 14.5136, 0.114506 13.7499, 0.0389352 12.9129, 0.0137447 12.6873, 0.00114954 12.4526, 0.00114954 12.2076, 0.00114954 11.5915, 0.0801558 10.9623, 0.237023 10.3206, 0.476333 9.42344, 0.855906 8.55781, 1.3746 7.72423, 1.89329 6.89066, 2.54252 6.13208, 3.32228 5.44736, 4.05853 4.82504, 4.85603 4.33039, 5.7148 3.96399, 6.57356 3.59758, 7.43347 3.41438, 8.29453 3.41381, 8.98039 3.41438, 9.56721 3.56552, 10.0544 3.86781, 10.5422 4.17009, 10.9023 4.53478, 11.1347 4.96187 L 12.4086 3.54205 C 12.459 3.45732, 12.5437 3.41438, 12.6633 3.41381 L 12.7383 3.41381 C 12.8895 3.41438, 12.9651 3.48766, 12.9651 3.63365 L 12.9651 3.70693 Z" stroke="none" fill="#000000" />
			<rect />
		</svg>
	</g>
	<g transform="matrix(1 0 -0 1 50.2486 131.426)">
		<svg width="21.0837173" height="39.1914787">
			<defs />
			<path d="M 5.84808 14.3717 C 4.87616 14.3409, 3.93022 14.3255, 3.01072 14.3255, 2.09171 14.3255, 1.14576 14.3409, 0.173363 14.3717 L 0.173363 13.7099, 0.720637 13.7099 C 0.894725 13.7104, 1.05872 13.708, 1.21164 13.7027, 1.36505 13.6979, 1.51029 13.6849, 1.64783 13.6642, 1.78537 13.644, 1.90415 13.6234, 2.00418 13.6022, 2.08882 13.5873, 2.15903 13.5402, 2.21434 13.4603, 2.27012 13.381, 2.29753 13.2925, 2.29753 13.1944 L 2.29753 4.52265 C 2.03352 4.65154, 1.70842 4.74916, 1.32273 4.81553, 0.937045 4.88237, 0.514327 4.91556, 0.0545789 4.91508 L 0.0545789 4.26104 C 0.688897 4.26152, 1.27416 4.18602, 1.81037 4.03453, 2.34659 3.88353, 2.81018 3.59979, 3.20116 3.18381 L 3.4469 3.18381 C 3.62099 3.18429, 3.70804 3.26893, 3.70804 3.43773 L 3.70804 13.1944 C 3.70804 13.2973, 3.73449 13.3872, 3.78739 13.4642, 3.84029 13.5411, 3.91723 13.5873, 4.01726 13.6022, 4.1019 13.6234, 4.21059 13.644, 4.34236 13.6642, 4.47461 13.6849, 4.62369 13.6979, 4.79008 13.7027, 4.95648 13.708, 5.11902 13.7104, 5.27724 13.7099 L 5.84808 13.7099, 5.84808 14.3717 Z" stroke="none" fill="#000000" />
			<rect />
		</svg>
	</g>
	<g transform="matrix(1 0 -0 1 50.0401 153.088)">
		<svg width="27.1116219" height="39.1914787">
			<defs />
			<path d="M 6.52075 14.3717 L 0.0698506 14.3717, 0.0698506 13.9485 C 0.0698506 13.9182, 0.0857206 13.872, 0.117461 13.81 L 2.70907 10.9938 C 3.01541 10.6557, 3.3256 10.3094, 3.64011 9.95547, 3.95463 9.60153, 4.23644 9.23988, 4.48459 8.87055, 4.73274 8.50121, 4.93087 8.12033, 5.07899 7.72791, 5.22711 7.33549, 5.30069 6.92383, 5.30069 6.49245, 5.30069 6.12889, 5.25308 5.78889, 5.15786 5.47341, 5.06264 5.15793, 4.92558 4.88093, 4.74572 4.6424, 4.56634 4.40387, 4.34176 4.21151, 4.07245 4.06531, 3.80314 3.91911, 3.49103 3.84602, 3.13708 3.84554, 2.60905 3.84602, 2.14257 4.00375, 1.73812 4.31923, 1.33416 4.63471, 1.06581 4.9824, 0.933562 5.36136, 0.907593 5.37194, 0.949913 5.37723, 1.06052 5.37675 L 1.19518 5.37675 C 1.35388 5.4133, 1.49093 5.4686, 1.60731 5.54266, 1.72369 5.6172, 1.82132 5.71964, 1.90067 5.85044, 1.98002 5.98125, 2.01945 6.13899, 2.01945 6.32317, 2.01945 6.63144, 1.91942 6.86756, 1.7184 7.03155, 1.51738 7.19602, 1.2928 7.27778, 1.04465 7.2773, 0.807083 7.27778, 0.584903 7.19602, 0.379075 7.03155, 0.173246 6.86756, 0.0698506 6.63144, 0.0698506 6.32317, 0.0698506 5.89276, 0.15449 5.48495, 0.32377 5.10022, 0.49305 4.7155, 0.722443 4.38223, 1.01291 4.09994, 1.30338 3.81812, 1.64675 3.59498, 2.04302 3.43051, 2.43929 3.26652, 2.8596 3.18429, 3.30348 3.18381, 3.85316 3.18429, 4.35667 3.26508, 4.81353 3.42666, 5.27039 3.58825, 5.65993 3.82053, 5.98214 4.12302, 6.30434 4.42599, 6.55682 4.77609, 6.73909 5.17332, 6.92135 5.57103, 7.01224 6.01058, 7.01224 6.49245, 7.01224 7.02626, 6.89105 7.51775, 6.64771 7.96644, 6.40485 8.41561, 6.10381 8.82726, 5.74457 9.20141, 5.38533 9.57604, 5.00349 9.92854, 4.59904 10.2594, 4.19508 10.5903, 3.82911 10.912, 3.50161 11.2246 L 1.67849 12.9405, 4.06427 12.9405 C 4.39706 12.941, 4.70773 12.9385, 4.99531 12.9333, 5.28338 12.9284, 5.52768 12.9179, 5.7287 12.9025, 5.92972 12.8871, 6.03263 12.877, 6.03744 12.8712, 6.07976 12.8356, 6.11968 12.764, 6.15671 12.6563, 6.19374 12.5485, 6.22788 12.4216, 6.25962 12.2754, 6.29136 12.1292, 6.3231 11.9806, 6.35484 11.8291, 6.38658 11.6781, 6.41543 11.5122, 6.44188 11.3323 L 7.02811 11.3323 Z" stroke="none" fill="#000000" />
			<rect />
		</svg>
	</g>
	<g transform="matrix(1 0 -0 1 84.7368 209.397)">
		<svg width="27.1116219" height="39.1914787">
			<defs />
			<path d="M 7.292 11.4708 C 7.292 11.9123, 7.19438 12.336, 6.99913 12.7409, 6.80388 13.1463, 6.54227 13.4926, 6.21429 13.7792, 5.84447 14.1028, 5.43618 14.3423, 4.9899 14.4986, 4.54361 14.6554, 4.07713 14.7333, 3.59093 14.7333, 3.15235 14.7333, 2.72482 14.6717, 2.30739 14.5486, 1.88996 14.4255, 1.51389 14.249, 1.17822 14.0182, 0.842544 13.7874, 0.574678 13.5041, 0.373659 13.1679, 0.172639 12.8323, 0.0721291 12.4461, 0.0721291 12.0094, 0.0721291 11.6815, 0.181776 11.4367, 0.40107 11.2751, 0.620364 11.1135, 0.851681 11.0327, 1.09454 11.0322, 1.34846 11.0327, 1.58459 11.1135, 1.80388 11.2751, 2.02317 11.4367, 2.13282 11.6815, 2.13282 12.0094, 2.13282 12.2047, 2.09483 12.3677, 2.01788 12.4985, 1.94142 12.6293, 1.84379 12.7385, 1.72453 12.8255, 1.60575 12.9131, 1.46965 12.9664, 1.31624 12.9866, 1.23737 13.0078, 1.16331 13.0179, 1.09454 13.0174, 1.02625 13.0179, 1.01567 13.0232, 1.0628 13.0328, 1.22679 13.3204, 1.549 13.5748, 2.02991 13.795, 2.51081 14.0158, 3.03116 14.1259, 3.59093 14.1254, 3.85543 14.1259, 4.10214 14.0605, 4.33201 13.9297, 4.56189 13.7989, 4.75377 13.6234, 4.9067 13.4021, 5.09714 13.1155, 5.2265 12.8077, 5.29527 12.4793, 5.36404 12.1513, 5.39819 11.8151, 5.39819 11.4708, 5.39819 11.1173, 5.36404 10.7778, 5.29527 10.4518, 5.2265 10.1262, 5.09714 9.82467, 4.9067 9.54718, 4.748 9.32212, 4.55515 9.13985, 4.32817 9.00135, 4.10118 8.86285, 3.85543 8.7936, 3.59093 8.79312 L 2.44204 8.79312 C 2.28912 8.7936, 2.20688 8.72194, 2.1963 8.57767 L 2.1963 8.49303 C 2.1963 8.43196, 2.21506 8.38338, 2.2516 8.34684, 2.29921 8.30115, 2.35981 8.27807, 2.43387 8.27759, 2.58728 8.25739, 2.74598 8.24729, 2.90949 8.24681, 3.06819 8.24729, 3.224 8.23719, 3.37693 8.21603, 3.66259 8.19583, 3.91074 8.10782, 4.12234 7.95105, 4.33394 7.79475, 4.51091 7.5947, 4.65326 7.35088, 4.79561 7.10754, 4.90381 6.82669, 4.97787 6.50832, 5.05193 6.19044, 5.08896 5.86439, 5.08896 5.53064, 5.08896 5.28489, 5.06251 5.05165, 5.00961 4.83092, 4.95671 4.61066, 4.85909 4.41782, 4.71626 4.25335, 4.4205 3.91527, 4.04539 3.74839, 3.59093 3.7532, 3.10522 3.75368, 2.6599 3.84505, 2.25593 4.02684, 1.85197 4.2091, 1.58074 4.40531, 1.4432 4.61499, 1.40665 4.62076, 1.42492 4.62316, 1.49898 4.62268, 1.68942 4.62316, 1.8688 4.67943, 2.0376 4.79196, 2.29152 4.94104, 2.418 5.19256, 2.418 5.54603, 2.418 5.84419, 2.32182 6.06877, 2.12897 6.21978, 1.93613 6.37127, 1.72068 6.44677, 1.48311 6.44629, 1.25035 6.44677, 1.0325 6.37271, 0.829079 6.22363, 0.625654 6.07503, 0.523702 5.849, 0.523702 5.54603, 0.523702 5.17188, 0.613632 4.8415, 0.793491 4.55391, 0.973351 4.26681, 1.20419 4.02059, 1.48696 3.81524, 1.76973 3.61037, 2.09579 3.4536, 2.46561 3.34587, 2.83591 3.23815, 3.21102 3.18429, 3.59093 3.18381, 3.99778 3.18429, 4.39165 3.23815, 4.77204 3.34587, 5.15244 3.4536, 5.51168 3.62047, 5.84976 3.84554, 6.12484 4.04078, 6.35568 4.28076, 6.54323 4.56545, 6.73078 4.85015, 6.82456 5.17188, 6.82456 5.53064, 6.82456 5.89036, 6.76012 6.22892, 6.63075 6.5468, 6.50139 6.86516, 6.32971 7.15226, 6.1157 7.40858, 5.9017 7.66539, 5.64682 7.89094, 5.35058 8.0857, 5.05482 8.28095, 4.83264 8.40358, 4.68452 8.45456, 4.81148 8.47043, 5.02837 8.54641, 5.33471 8.68203, 5.64153 8.81813, 5.9344 8.99895, 6.21429 9.22401, 6.54227 9.50679, 6.80388 9.8439, 6.99913 10.2363, 7.19438 10.6287, 7.292 11.0404, 7.292 11.4708 Z" stroke="none" fill="#000000" />
			<rect />
		</svg>
	</g>
	<g transform="matrix(1 0 -0 1 105.455 202.012)">
		<svg width="27.1116219" height="39.1914787">
			<defs />
			<path d="M 6.07145 11.6324 L 6.07145 13.1944 C 6.07145 13.2872, 6.08876 13.3733, 6.1229 13.4526, 6.15753 13.5325, 6.21428 13.5849, 6.29315 13.6099, 6.4153 13.6666, 6.61343 13.6979, 6.88803 13.7027, 7.16263 13.708, 7.44011 13.7104, 7.72 13.7099 L 7.72 14.3717 C 6.91159 14.3409, 6.11906 14.3255, 5.34239 14.3255, 4.5763 14.3255, 3.7703 14.3409, 2.92486 14.3717 L 2.92486 13.7099 C 3.21581 13.7104, 3.49618 13.708, 3.76549 13.7027, 4.0348 13.6979, 4.23582 13.6666, 4.36759 13.6099, 4.44694 13.5849, 4.50513 13.5325, 4.54216 13.4526, 4.57919 13.3733, 4.59746 13.2872, 4.59746 13.1944 L 4.59746 11.6324, 0.079812 11.6324, 0.079812 11.0091, 5.37413 3.13764 C 5.4429 3.04578, 5.52994 2.99962, 5.63574 2.99914 L 5.80983 2.99914 C 5.9844 2.99962, 6.07145 3.08666, 6.07145 3.26075 L 6.07145 10.9553, 7.7753 10.9553, 7.7753 11.6324 Z M 4.67681 5.1613 L 0.777129 10.9553, 4.67681 10.9553 Z" stroke="none" fill="#000000" />
			<rect />
		</svg>
	</g>
	<g transform="matrix(1 0 -0 1 101.84 58.9432)">
		<svg width="27.1116219" height="39.1914787">
			<defs />
			<path d="M 7.01345 10.9707 C 7.01345 11.4737, 6.91871 11.9536, 6.72827 12.41, 6.53831 12.8669, 6.26371 13.2771, 5.90399 13.6407, 5.53946 13.9951, 5.12877 14.2659, 4.67191 14.4524, 4.21504 14.64, 3.72981 14.7333, 3.21716 14.7333, 2.77376 14.7333, 2.36018 14.6501, 1.9769 14.4832, 1.59409 14.3168, 1.2613 14.0889, 0.978531 13.7989, 0.695757 13.5094, 0.474058 13.1732, 0.312954 12.7909, 0.15185 12.4091, 0.0710571 12.0022, 0.0710571 11.5708, 0.0710571 11.2736, 0.170124 11.0495, 0.368258 10.8981, 0.566392 10.747, 0.771259 10.6711, 0.982378 10.6706, 1.20456 10.6711, 1.41327 10.7456, 1.60852 10.8942, 1.80425 11.0433, 1.90187 11.2688, 1.90187 11.5708, 1.90187 11.756, 1.861 11.9113, 1.77924 12.0368, 1.69749 12.1628, 1.59698 12.26, 1.47771 12.3292, 1.35893 12.3985, 1.22572 12.4384, 1.0776 12.448 L 0.982378 12.448, 0.823678 12.448 C 0.945348 12.8794, 1.22812 13.267, 1.672 13.6104, 2.11588 13.9542, 2.63093 14.1259, 3.21716 14.1254, 3.52398 14.1259, 3.82262 14.0466, 4.11309 13.8874, 4.40356 13.7287, 4.64161 13.518, 4.82628 13.2559, 5.04269 12.9434, 5.18167 12.5884, 5.24226 12.1907, 5.30286 11.7935, 5.33315 11.3867, 5.33315 10.9707, 5.33315 10.5504, 5.32017 10.1469, 5.29372 9.75926, 5.26775 9.37213, 5.15907 9.00664, 4.96863 8.66231, 4.83157 8.41128, 4.65604 8.20256, 4.44203 8.03569, 4.22803 7.86929, 3.98902 7.78562, 3.72452 7.78514, 3.22245 7.78562, 2.78675 7.88709, 2.41693 8.08955, 2.04711 8.29249, 1.74846 8.58344, 1.52148 8.9624, 1.47387 9.04992, 1.3974 9.09369, 1.2916 9.09321 L 1.22812 9.09321 C 1.04345 9.09369, 0.950638 9.00905, 0.950638 8.83929 L 0.950638 3.43773 C 0.950638 3.30499, 1.02758 3.22036, 1.18051 3.18381, 1.20696 3.18429, 1.22668 3.18717, 1.24014 3.19198, 1.25361 3.19727, 1.26515 3.19968, 1.27573 3.19919, 2.04182 3.54833, 2.83147 3.7229, 3.64517 3.72242, 4.46944 3.7229, 5.25958 3.54833, 6.01508 3.19919, 6.02566 3.19968, 6.03624 3.19727, 6.04682 3.19198, 6.0574 3.18717, 6.07327 3.18429, 6.09443 3.18381, 6.26852 3.18429, 6.35316 3.26364, 6.34787 3.42234, 6.34787 3.51515, 6.332 3.57671, 6.30026 3.60701, 5.92515 4.12062, 5.44857 4.52217, 4.87004 4.81168, 4.29151 5.10167, 3.67739 5.24642, 3.0272 5.24594, 2.48858 5.24642, 2.02354 5.18486, 1.63209 5.06127 L 1.63209 8.00058 C 1.81723 7.8063, 2.09616 7.63317, 2.46838 7.48168, 2.84109 7.33068, 3.25996 7.25469, 3.72452 7.25421, 4.17897 7.25469, 4.60843 7.35761, 5.01239 7.56248, 5.41683 7.76782, 5.77222 8.03425, 6.07856 8.36223, 6.39548 8.73204, 6.63064 9.1413, 6.78357 9.58998, 6.93698 10.0392, 7.01345 10.4994, 7.01345 10.9707 Z" stroke="none" fill="#000000" />
			<rect />
		</svg>
	</g>
	<g transform="matrix(1 0 -0 1 120.812 62.5049)">
		<svg width="27.1116219" height="39.1914787">
			<defs />
			<path d="M 7.292 10.9399 C 7.292 11.4737, 7.21313 11.9522, 7.05443 12.3754, 6.89622 12.7986, 6.62691 13.2156, 6.24603 13.6253, 5.87092 14.0105, 5.48667 14.2913, 5.09281 14.4678, 4.69943 14.6448, 4.22525 14.7333, 3.67028 14.7333, 3.10522 14.7333, 2.58728 14.5938, 2.11695 14.3139, 1.64662 14.035, 1.27151 13.6565, 0.991626 13.179, 0.595357 12.5279, 0.343361 11.8406, 0.234676 11.1173, 0.126472 10.3941, 0.0721291 9.67318, 0.0721291 8.9547, 0.0721291 8.23719, 0.176486 7.53074, 0.3852 6.83534, 0.593915 6.14043, 0.928146 5.49794, 1.38789 4.90738, 1.77358 4.40531, 2.24391 3.99221, 2.79888 3.66904, 3.35385 3.34587, 3.96364 3.18429, 4.62921 3.18381, 5.26882 3.18429, 5.79975 3.34876, 6.22246 3.67674, 6.64518 4.0052, 6.8563 4.47697, 6.8563 5.09205, 6.8563 5.37963, 6.76926 5.59268, 6.59469 5.73118, 6.4206 5.86968, 6.21958 5.93893, 5.99259 5.93845, 5.77618 5.93893, 5.58189 5.86968, 5.41021 5.73118, 5.23853 5.59268, 5.15244 5.37963, 5.15244 5.09205, 5.15244 4.78475, 5.26594 4.55391, 5.49293 4.39954, 5.64105 4.30769, 5.80792 4.26152, 5.99259 4.26104, 6.05078 4.26152, 6.05847 4.25912, 6.01615 4.25335, 5.94209 4.14081, 5.78003 4.02972, 5.52899 3.91911, 5.27796 3.80899, 4.97835 3.75368, 4.62921 3.7532, 4.15889 3.75368, 3.73617 3.89363, 3.36106 4.17303, 2.98595 4.45292, 2.66903 4.80254, 2.4103 5.22286, 2.10397 5.75666, 1.91882 6.33808, 1.85534 6.96615, 1.79186 7.5947, 1.75483 8.0958, 1.74425 8.46995, 1.83947 8.24969, 2.06838 7.97942, 2.43002 7.65866, 2.79215 7.33837, 3.25045 7.17775, 3.80494 7.17727, 4.33346 7.17775, 4.78936 7.26624, 5.17216 7.44321, 5.55544 7.62018, 5.92382 7.89574, 6.27777 8.26989, 6.64807 8.68059, 6.90968 9.09369, 7.06261 9.50919, 7.21554 9.9247, 7.292 10.4018, 7.292 10.9399 Z M 5.60402 10.9399 C 5.60402 10.4479, 5.58815 10.0055, 5.55641 9.61307, 5.52467 9.22065, 5.41935 8.87584, 5.23949 8.57767, 5.05482 8.27566, 4.84851 8.05252, 4.62152 7.90873, 4.39453 7.76542, 4.11705 7.69328, 3.78907 7.6928, 3.43512 7.69328, 3.13263 7.78321, 2.88159 7.96259, 2.63056 8.14245, 2.418 8.37809, 2.24391 8.67049, 2.06982 8.96288, 1.94527 9.30384, 1.87121 9.69338, 1.81831 9.96076, 1.79186 10.2455, 1.79186 10.5475, 1.79186 10.6658, 1.79715 10.7918, 1.80773 10.9245 L 1.80773 10.9861 C 1.82889 11.3713, 1.85822 11.7305, 1.89525 12.0638, 1.93228 12.3975, 1.99047 12.6692, 2.06934 12.8789, 2.21746 13.2487, 2.43531 13.5488, 2.72338 13.7797, 3.01144 14.0105, 3.32692 14.1259, 3.67028 14.1254, 4.02423 14.1259, 4.32288 14.0581, 4.56573 13.922, 4.80907 13.7864, 5.02308 13.5666, 5.20775 13.2636, 5.39819 12.9616, 5.51168 12.6192, 5.54871 12.2369, 5.58574 11.8551, 5.60402 11.4227, 5.60402 10.9399 Z" stroke="none" fill="#000000" />
			<rect />
		</svg>
	</g>
	<g transform="matrix(1 0 -0 1 145.94 129.956)">
		<svg width="27.1116219" height="39.1914787">
			<defs />
			<path d="M 7.52264 3.96095 C 7.52264 3.99221, 7.50966 4.03597, 7.48273 4.09176 L 5.10512 7.34655 C 4.79878 7.77263, 4.55977 8.24344, 4.38808 8.75897, 4.2164 9.27451, 4.09377 9.81601, 4.01971 10.3825, 3.94565 10.9495, 3.89948 11.528, 3.88072 12.1176, 3.86245 12.7077, 3.85283 13.3026, 3.85283 13.9023, 3.85283 14.1798, 3.76194 14.3899, 3.57968 14.5332, 3.39741 14.677, 3.19783 14.7487, 2.98143 14.7487, 2.76502 14.7487, 2.56784 14.677, 2.39087 14.5332, 2.2139 14.3899, 2.12541 14.1798, 2.12541 13.9023, 2.12541 12.651, 2.34374 11.4473, 2.77944 10.2902, 3.21515 9.1336, 3.80282 8.04723, 4.54245 7.03107 L 6.04818 4.99202, 3.19543 4.99202 C 2.83619 4.9925, 2.50196 4.99539, 2.19274 5.0002, 1.88399 5.00549, 1.62094 5.01462, 1.40405 5.02713, 1.18764 5.04011, 1.07655 5.04877, 1.07126 5.05358, 1.01836 5.10022, 0.972191 5.17717, 0.932757 5.28489, 0.893322 5.39262, 0.856292 5.51861, 0.821667 5.66193, 0.787522 5.80572, 0.757225 5.95432, 0.730775 6.10821, 0.704325 6.2621, 0.677875 6.42609, 0.651425 6.60018 L 0.0647173 6.60018, 0.635555 3.01453, 1.21409 3.01453, 1.21409 3.16842 C 1.21409 3.22516, 1.24583 3.27903, 1.30883 3.33, 1.41992 3.40214, 1.5363 3.44831, 1.65749 3.4685, 1.80031 3.48966, 1.97488 3.5089, 2.18071 3.52669, 2.38702 3.54497, 2.60776 3.55651, 2.84292 3.56132, 3.07809 3.56661, 3.31421 3.56901, 3.55178 3.56853 L 7.52264 3.56853, 7.52264 3.96095 Z" stroke="none" fill="#000000" />
			<rect />
		</svg>
	</g>
	<g transform="matrix(1 0 -0 1 142.21 151.898)">
		<svg width="27.1116219" height="39.1914787">
			<defs />
			<path d="M 7.292 11.5247 C 7.292 11.9868, 7.19438 12.4115, 6.99913 12.7986, 6.80388 13.1862, 6.53938 13.5257, 6.20659 13.8181, 5.87381 14.1105, 5.49052 14.3361, 5.05722 14.4948, 4.62441 14.6539, 4.16177 14.7333, 3.67028 14.7333, 3.20573 14.7333, 2.75896 14.6669, 2.33095 14.5332, 1.90295 14.4, 1.52255 14.2081, 1.18976 13.9566, 0.856971 13.7056, 0.587663 13.3978, 0.381353 13.0333, 0.175524 12.6692, 0.0721291 12.2638, 0.0721291 11.8171, 0.0721291 11.4381, 0.138494 11.0933, 0.270263 10.7826, 0.402513 10.4725, 0.584777 10.1892, 0.817056 9.93239, 1.04982 9.67607, 1.31768 9.44283, 1.62162 9.23219, 1.92555 9.02203, 2.20448 8.85756, 2.45791 8.73926 L 1.89477 8.38531 C 1.48311 8.12947, 1.15129 7.7962, 0.900253 7.3855, 0.649219 6.97529, 0.523702 6.52612, 0.523702 6.03848, 0.523702 5.62874, 0.611227 5.25027, 0.785316 4.90401, 0.959886 4.55776, 1.1912 4.25767, 1.47879 4.00375, 1.76685 3.74984, 2.10252 3.54978, 2.48533 3.40358, 2.86861 3.25738, 3.26344 3.18429, 3.67028 3.18381, 4.07184 3.18429, 4.46042 3.24344, 4.83552 3.36126, 5.21063 3.47956, 5.54871 3.64884, 5.84976 3.8691, 6.15081 4.08984, 6.38886 4.3577, 6.56295 4.67318, 6.73752 4.98865, 6.82456 5.33876, 6.82456 5.723, 6.82456 6.03655, 6.76541 6.32366, 6.64614 6.58527, 6.52736 6.84688, 6.37395 7.0883, 6.1864 7.30856, 5.99884 7.52929, 5.7757 7.7255, 5.51697 7.89719, 5.25824 8.06935, 5.03077 8.20353, 4.83552 8.30067 L 5.73867 8.87776 C 6.20419 9.16534, 6.5793 9.53997, 6.86448 10.0016, 7.14965 10.4633, 7.292 10.9712, 7.292 11.5247 Z M 5.89737 5.723 C 5.89737 5.45177, 5.83822 5.194, 5.71895 4.95018, 5.60017 4.70684, 5.43906 4.49765, 5.23564 4.32308, 5.03222 4.14899, 4.79705 4.01049, 4.53015 3.90757, 4.26372 3.80514, 3.9771 3.75368, 3.67028 3.7532, 3.37982 3.75368, 3.10137 3.7936, 2.83447 3.87295, 2.56756 3.95278, 2.3324 4.06675, 2.12897 4.21535, 1.92555 4.36444, 1.76444 4.54141, 1.64566 4.74628, 1.52688 4.95162, 1.46724 5.17188, 1.46724 5.40753, 1.46724 5.67491, 1.5389 5.91873, 1.68125 6.13899, 1.8236 6.35972, 2.01404 6.54151, 2.2516 6.68482 L 4.28825 7.96211 C 4.73742 7.72166, 5.1183 7.41243, 5.42993 7.0354, 5.74156 6.65837, 5.89737 6.22122, 5.89737 5.723 Z M 6.26959 12.1018 C 6.26959 11.7844, 6.18255 11.4857, 6.00846 11.2058, 5.83437 10.9264, 5.59921 10.6994, 5.30297 10.5244 L 2.99653 9.09321 C 2.4632 9.3553, 2.01019 9.72464, 1.63749 10.2017, 1.26526 10.6788, 1.07867 11.2174, 1.07867 11.8171, 1.07867 12.1306, 1.14888 12.4307, 1.28883 12.7178, 1.42925 13.0054, 1.61681 13.2526, 1.85149 13.4603, 2.08665 13.6681, 2.36269 13.8311, 2.67961 13.9489, 2.99701 14.0672, 3.32692 14.1259, 3.67028 14.1254, 4.01942 14.1259, 4.35221 14.0749, 4.66913 13.972, 4.98605 13.8696, 5.26449 13.7287, 5.50495 13.5488, 5.7454 13.3694, 5.93296 13.1578, 6.06761 12.914, 6.20227 12.6707, 6.26959 12.3999, 6.26959 12.1018 Z" stroke="none" fill="#000000" />
			<rect />
		</svg>
	</g>
	<path d="M -175.78 0 L 175.779 0" fill="none" stroke="#000000" stroke-width="3.4666667" stroke-linecap="round" stroke-linejoin="round" transform="matrix(0.384615 0 0 0.384615 98.5634 151.46)" />
	<path d="M -91.4152 127.343 L 91.4153 -127.343" fill="none" stroke="#000000" stroke-width="3.4666667" stroke-linecap="round" stroke-linejoin="round" transform="matrix(0.384615 0 0 0.384615 131.011 199.427)" />
	<path d="M -61.1805 -156.87 L 61.1813 156.87" fill="none" stroke="#000000" stroke-width="3.4666667" stroke-linecap="round" stroke-linejoin="round" transform="matrix(0.384615 0 0 0.384615 142.144 91.1253)" />
	<path d="M 157.459 -49.4361 L -157.457 49.4365" fill="none" stroke="#000000" stroke-width="3.4666667" stroke-linecap="round" stroke-linejoin="round" transform="matrix(0.384615 0 0 0.384615 226.731 132.446)" />
	<path d="M 248.873 -175.466 L -248.873 175.466" fill="none" stroke="#000000" stroke-width="3.4666667" stroke-linecap="round" stroke-linejoin="round" transform="matrix(0.384615 0 0 0.384615 191.572 180.919)" />
	<path d="M 219.283 107.434 L -219.282 -107.433" fill="none" stroke="#000000" stroke-width="3.4666667" stroke-linecap="round" stroke-linejoin="round" transform="matrix(0.384615 0 0 0.384615 202.952 72.1113)" />
	<g transform="matrix(1 0 -0 1 184.728 117.024)">
		<svg width="44.9082985" height="45.2233963">
			<defs />
			<path d="M 12.8875 7.99388 C 12.8686 8.07403, 12.8279 8.14274, 12.765 8.20056, 12.702 8.25896, 12.6327 8.28758, 12.5571 8.28701, 12.532 8.2996, 12.5005 8.3059, 12.4627 8.30533, 12.3877 8.3059, 12.3499 8.2996, 12.3499 8.28701, 12.193 8.28758, 12.1077 8.2206, 12.0951 8.08549 L 12.0951 8.02136 C 12.1329 7.73511, 12.1644 7.44485, 12.189 7.15115, 12.2142 6.92558, 12.2268 6.71833, 12.2268 6.52826 L 12.2268 6.37254 C 12.2142 6.12865, 12.1844 5.91052, 12.1375 5.71816, 12.0905 5.52579, 12.007 5.36263, 11.8873 5.22752, 11.6486 4.94699, 11.2936 4.78096, 10.8219 4.72886, 10.3501 4.67733, 9.84688 4.651, 9.31216 4.65043 L 7.28433 4.65043 C 6.95113 4.651, 6.7559 4.67562, 6.69922 4.72371, 6.66831 4.7489, 6.60533 4.92867, 6.51087 5.26416 L 5.34123 9.73431, 6.64255 9.73431 C 6.99521 9.73489, 7.31582 9.72, 7.60493 9.68909, 7.89462 9.65874, 8.14309 9.56714, 8.35034 9.41371, 8.53927 9.26142, 8.6824 9.04787, 8.77972 8.77307, 8.87705 8.49827, 8.97323 8.18396, 9.06712 7.829, 9.1364 7.64637, 9.25605 7.55763, 9.42552 7.56336 L 9.58582 7.56336 C 9.76215 7.56393, 9.84974 7.64351, 9.84974 7.80152 L 9.84974 7.86564, 8.67095 12.3999 C 8.63316 12.59, 8.51064 12.6816, 8.30282 12.6747 L 8.15225 12.6747 C 7.97592 12.6753, 7.88775 12.602, 7.88775 12.4549, 7.88775 12.4188, 7.89749 12.385, 7.91638 12.3541, 7.99825 12.0129, 8.05779 11.698, 8.09558 11.4106, 8.10817 11.3379, 8.11447 11.2738, 8.11447 11.2183, 8.11447 11.0477, 8.07668 10.9102, 8.00111 10.8061, 7.89462 10.6601, 7.70398 10.573, 7.43032 10.5456, 7.15666 10.5181, 6.85037 10.5043, 6.51087 10.5038 L 5.1523 10.5038, 3.86015 15.5235 C 3.79717 15.7377, 3.76568 15.8968, 3.76568 15.9999 L 3.76568 16.0365 C 3.79087 16.0617, 3.96721 16.0766, 4.29411 16.0823 L 6.45419 16.0823 C 7.0141 16.0829, 7.55627 16.0451, 8.08126 15.9684, 8.60683 15.8922, 9.09575 15.6981, 9.54803 15.3861, 9.74956 15.2401, 9.94135 15.0449, 10.1234 14.8005, 10.306 14.5566, 10.4789 14.2863, 10.6427 13.9898, 10.8064 13.6938, 10.9616 13.3795, 11.1093 13.0463, 11.257 12.7137, 11.4035 12.385, 11.5478 12.061, 11.5982 11.915, 11.7087 11.8417, 11.8781 11.8411 L 12.0385 11.8411 C 12.2148 11.8417, 12.3024 11.9213, 12.3024 12.0793 L 12.3024 12.1526, 10.4251 16.6228 C 10.3564 16.7693, 10.2431 16.8426, 10.0856 16.8426 L 0.275665 16.8426 C 0.181201 16.8426, 0.111927 16.8151, 0.0678438 16.7602, 0.024333 16.7178, 0.00257765 16.672, 0.00200514 16.6228, 0.00257765 16.5867, 0.00887525 16.55, 0.020898 16.5128 L 0.0586836 16.3754 C 0.0775764 16.2964, 0.12166 16.2283, 0.190933 16.1699, 0.260207 16.1121, 0.338641 16.0829, 0.426235 16.0823, 0.722222 16.0829, 0.999317 16.0783, 1.25695 16.0691, 1.51458 16.06, 1.7098 16.0279, 1.84148 15.9724, 1.95484 15.9117, 2.04243 15.7468, 2.10541 15.4777 L 4.75613 5.21836 C 4.79391 5.08439, 4.8128 4.9779, 4.8128 4.89775, 4.8128 4.82504, 4.79735 4.7821, 4.76529 4.76951, 4.67769 4.71512, 4.50479 4.68191, 4.24716 4.66932, 3.98954 4.6573, 3.71244 4.651, 3.41645 4.65043, 3.24069 4.651, 3.15253 4.56856, 3.15253 4.4031 L 3.15253 4.33898, 3.19031 4.18326 C 3.24069 3.98231, 3.36321 3.88155, 3.55786 3.88097 L 13.1136 3.88097 C 13.2711 3.88155, 13.3558 3.95769, 13.3684 4.10998 L 13.3684 4.1741 Z" stroke="none" fill="#000000" />
			<rect />
		</svg>
	</g>
	<g transform="matrix(1 0 -0 1 169.089 153.938)">
		<svg width="27.1116219" height="39.1914787">
			<defs />
			<path d="M 7.29277 8.9547 C 7.29277 9.67318, 7.1937 10.3777, 6.99557 11.0673, 6.79743 11.7574, 6.47955 12.4076, 6.04097 13.0174, 5.68702 13.5051, 5.24602 13.9133, 4.71751 14.2413, 4.18947 14.5693, 3.60276 14.7333, 2.95834 14.7333, 2.63133 14.7333, 2.31681 14.6977, 2.01576 14.6256, 1.71472 14.5539, 1.45022 14.4399, 1.22323 14.2836, 0.996239 14.1274, 0.817822 13.9311, 0.688458 13.695, 0.559093 13.4594, 0.494171 13.1771, 0.494171 12.8481, 0.494171 12.5716, 0.5841 12.36, 0.76396 12.2138, 0.94382 12.0676, 1.13618 11.9945, 1.34201 11.994, 1.56948 11.9945, 1.77146 12.0667, 1.94844 12.21, 2.12541 12.3538, 2.2139 12.5663, 2.2139 12.8481, 2.2139 13.1564, 2.10329 13.3795, 1.88111 13.5176, 1.7176 13.6205, 1.54832 13.6743, 1.37375 13.6791, 1.31604 13.6796, 1.32662 13.6873, 1.40549 13.7022, 1.47955 13.8051, 1.66085 13.9018, 1.94844 13.9913, 2.2365 14.0812, 2.57314 14.1259, 2.95834 14.1254, 3.39164 14.1259, 3.78503 13.9889, 4.13897 13.7143, 4.49292 13.4401, 4.78099 13.0948, 5.00268 12.6789, 5.29892 12.1306, 5.47061 11.5511, 5.51822 10.9404, 5.56583 10.3301, 5.59228 9.83477, 5.59709 9.45485, 5.50187 9.68617, 5.27632 9.96221, 4.91949 10.2825, 4.56313 10.6033, 4.11012 10.7634, 3.56092 10.7629, 3.03288 10.7634, 2.57314 10.674, 2.18216 10.4941, 1.79118 10.3147, 1.42377 10.0348, 1.0804 9.65491, 0.70577 9.24517, 0.444637 8.83111, 0.296517 8.41272, 0.148398 7.99481, 0.0743378 7.51871, 0.0743378 6.9849, 0.0743378 6.44148, 0.153688 5.96105, 0.311907 5.54266, 0.470606 5.12475, 0.750495 4.71021, 1.15205 4.29951, 1.52716 3.91527, 1.9191 3.63345, 2.32835 3.4536, 2.73809 3.27422, 3.22525 3.18429, 3.79032 3.18381, 4.34528 3.18429, 4.84976 3.32808, 5.30373 3.61518, 5.75819 3.90276, 6.12561 4.2822, 6.40549 4.75349, 6.79118 5.39502, 7.03548 6.07887, 7.1384 6.80456, 7.24131 7.53074, 7.29277 8.24729, 7.29277 8.9547 Z M 5.57352 6.90796 C 5.55236 6.53381, 5.52351 6.1789, 5.48648 5.84275, 5.44945 5.50707, 5.38308 5.23103, 5.28786 5.0151, 5.15609 4.65635, 4.957 4.35674, 4.69009 4.11532, 4.42319 3.87439, 4.1231 3.75368, 3.79032 3.7532, 3.41569 3.75368, 3.10165 3.82293, 2.84774 3.96143, 2.5943 4.09994, 2.36731 4.32548, 2.16629 4.63807, 1.96046 4.94104, 1.83735 5.28778, 1.79791 5.67731, 1.75848 6.06733, 1.73828 6.50303, 1.73828 6.9849, 1.73828 7.47784, 1.75848 7.92027, 1.79791 8.31269, 1.83735 8.70511, 1.94699 9.04752, 2.12637 9.33943, 2.30623 9.65298, 2.50821 9.88238, 2.7328 10.0286, 2.95738 10.1748, 3.23871 10.2479, 3.57631 10.2474, 3.91968 10.2479, 4.21977 10.157, 4.47609 9.97471, 4.73241 9.79293, 4.94786 9.5568, 5.12195 9.26681, 5.29604 8.97731, 5.42011 8.63201, 5.49417 8.23142, 5.54707 7.965, 5.57352 7.6803, 5.57352 7.37733, 5.57352 7.25998, 5.56823 7.13399, 5.55765 7.00029, 5.55765 6.94932, 5.56294 6.91854, 5.57352 6.90796 Z" stroke="none" fill="#000000" />
			<rect />
		</svg>
	</g>
	<g transform="matrix(1 0 -0 1 167.396 125.997)">
		<svg width="50.936203" height="39.1914787">
			<defs />
			<path d="M 5.85193 14.3717 C 4.88001 14.3409, 3.93455 14.3255, 3.01505 14.3255, 2.09603 14.3255, 1.15057 14.3409, 0.178653 14.3717 L 0.178653 13.7099, 0.725445 13.7099 C 0.899534 13.7104, 1.06352 13.708, 1.21645 13.7027, 1.36986 13.6979, 1.5151 13.6849, 1.65264 13.6642, 1.79018 13.644, 1.90896 13.6234, 2.00899 13.6022, 2.09363 13.5873, 2.16336 13.5402, 2.21867 13.4603, 2.27445 13.381, 2.30186 13.2925, 2.30186 13.1944 L 2.30186 4.52265 C 2.03832 4.65154, 1.71323 4.74916, 1.32754 4.81553, 0.941854 4.88237, 0.519616 4.91556, 0.0598683 4.91508 L 0.0598683 4.26104 C 0.693705 4.26152, 1.27897 4.18602, 1.81518 4.03453, 2.3514 3.88353, 2.81499 3.59979, 3.20549 3.18381 L 3.45123 3.18381 C 3.62532 3.18429, 3.71237 3.26893, 3.71237 3.43773 L 3.71237 13.1944 C 3.71237 13.2973, 3.73882 13.3872, 3.79172 13.4642, 3.84462 13.5411, 3.92156 13.5873, 4.02159 13.6022, 4.10623 13.6234, 4.21491 13.644, 4.34668 13.6642, 4.47845 13.6849, 4.62753 13.6979, 4.79393 13.7027, 4.96032 13.708, 5.12287 13.7104, 5.28157 13.7099 L 5.85193 13.7099, 5.85193 14.3717 Z" stroke="none" fill="#000000" />
			<path d="M 15.0414 9.01626 C 15.0414 9.75542, 14.99 10.4902, 14.8871 11.2212, 14.7842 11.9522, 14.5293 12.6385, 14.1224 13.279, 13.832 13.7465, 13.4434 14.1052, 12.9577 14.3563, 12.472 14.6078, 11.9434 14.7333, 11.3726 14.7333, 10.8234 14.7333, 10.3045 14.6078, 9.8159 14.3563, 9.32729 14.1052, 8.93728 13.7465, 8.64681 13.279, 8.24044 12.6385, 7.98556 11.9522, 7.88264 11.2212, 7.77973 10.4902, 7.72779 9.75542, 7.72779 9.01626, 7.72779 8.26797, 7.77973 7.52015, 7.88264 6.77379, 7.98556 6.02742, 8.24044 5.32866, 8.64681 4.67655, 8.93728 4.20525, 9.32585 3.83832, 9.81157 3.57671, 10.2978 3.31509, 10.8181 3.18429, 11.3726 3.18381, 11.9381 3.18429, 12.4647 3.31509, 12.9533 3.57671, 13.4419 3.83832, 13.832 4.20525, 14.1224 4.67655, 14.5293 5.32866, 14.7842 6.02742, 14.8871 6.77379, 14.99 7.52015, 15.0414 8.26797, 15.0414 9.01626 Z M 13.4722 8.74695 C 13.4722 8.42426, 13.4698 8.0833, 13.4645 7.72406, 13.4597 7.3653, 13.4463 7.01376, 13.4251 6.66991, 13.404 6.32654, 13.366 6.00193, 13.3102 5.69655, 13.2549 5.39165, 13.1875 5.131, 13.1082 4.91508, 12.9495 4.5669, 12.7172 4.28076, 12.4109 4.05762, 12.1045 3.83447, 11.7583 3.7229, 11.3726 3.72242, 10.9975 3.7229, 10.6584 3.83592, 10.3545 4.06146, 10.0511 4.28749, 9.81974 4.57171, 9.66104 4.91508, 9.58217 5.131, 9.51485 5.39165, 9.45906 5.69655, 9.40376 6.00193, 9.36528 6.32654, 9.34412 6.66991, 9.32296 7.01376, 9.30998 7.3653, 9.30469 7.72406, 9.2994 8.0833, 9.29651 8.42426, 9.29651 8.74695, 9.29651 9.10667, 9.2994 9.48515, 9.30469 9.88238, 9.30998 10.2801, 9.32296 10.6648, 9.34412 11.0366, 9.36528 11.4088, 9.40376 11.7613, 9.45906 12.0946, 9.51485 12.4283, 9.58217 12.7077, 9.66104 12.9328, 9.80916 13.3079, 10.0381 13.6157, 10.3468 13.8566, 10.6556 14.098, 10.9975 14.2182, 11.3726 14.2178, 11.7636 14.2182, 12.1137 14.098, 12.4224 13.8566, 12.7316 13.6157, 12.9601 13.3079, 13.1082 12.9328, 13.1875 12.7077, 13.2549 12.4283, 13.3102 12.0946, 13.366 11.7613, 13.404 11.4088, 13.4251 11.0366, 13.4463 10.6648, 13.4597 10.2801, 13.4645 9.88238, 13.4698 9.48515, 13.4722 9.10667, 13.4722 8.74695 Z" stroke="none" fill="#000000" />
			<rect />
		</svg>
	</g>
	<g transform="matrix(1 0 -0 1 135.739 46.2766)">
		<svg width="44.9082985" height="39.1914787">
			<defs />
			<path d="M 5.85133 14.3717 C 4.87941 14.3409, 3.93347 14.3255, 3.01397 14.3255, 2.09495 14.3255, 1.14901 14.3409, 0.176611 14.3717 L 0.176611 13.7099, 0.723885 13.7099 C 0.897973 13.7104, 1.06196 13.708, 1.21489 13.7027, 1.3683 13.6979, 1.51354 13.6849, 1.65108 13.6642, 1.78862 13.644, 1.9074 13.6234, 2.00743 13.6022, 2.09207 13.5873, 2.16228 13.5402, 2.21759 13.4603, 2.27337 13.381, 2.30078 13.2925, 2.30078 13.1944 L 2.30078 4.52265 C 2.03676 4.65154, 1.71167 4.74916, 1.32598 4.81553, 0.940293 4.88237, 0.517575 4.91556, 0.0578268 4.91508 L 0.0578268 4.26104 C 0.692145 4.26152, 1.27741 4.18602, 1.81362 4.03453, 2.34984 3.88353, 2.81343 3.59979, 3.20441 3.18381 L 3.45015 3.18381 C 3.62424 3.18429, 3.71129 3.26893, 3.71129 3.43773 L 3.71129 13.1944 C 3.71129 13.2973, 3.73774 13.3872, 3.79064 13.4642, 3.84354 13.5411, 3.92048 13.5873, 4.02051 13.6022, 4.10515 13.6234, 4.21384 13.644, 4.3456 13.6642, 4.47785 13.6849, 4.62694 13.6979, 4.79333 13.7027, 4.95972 13.708, 5.12227 13.7104, 5.28049 13.7099 L 5.85133 13.7099, 5.85133 14.3717 Z" stroke="none" fill="#000000" />
			<path d="M 13.5257 14.3717 C 12.5538 14.3409, 11.6078 14.3255, 10.6883 14.3255, 9.76933 14.3255, 8.82338 14.3409, 7.85098 14.3717 L 7.85098 13.7099, 8.39826 13.7099 C 8.57235 13.7104, 8.73634 13.708, 8.88926 13.7027, 9.04267 13.6979, 9.18791 13.6849, 9.32545 13.6642, 9.46299 13.644, 9.58177 13.6234, 9.6818 13.6022, 9.76644 13.5873, 9.83665 13.5402, 9.89196 13.4603, 9.94774 13.381, 9.97515 13.2925, 9.97515 13.1944 L 9.97515 4.52265 C 9.71114 4.65154, 9.38604 4.74916, 9.00035 4.81553, 8.61467 4.88237, 8.19195 4.91556, 7.7322 4.91508 L 7.7322 4.26104 C 8.36652 4.26152, 8.95178 4.18602, 9.488 4.03453, 10.0242 3.88353, 10.4878 3.59979, 10.8788 3.18381 L 11.1245 3.18381 C 11.2986 3.18429, 11.3857 3.26893, 11.3857 3.43773 L 11.3857 13.1944 C 11.3857 13.2973, 11.4121 13.3872, 11.465 13.4642, 11.5179 13.5411, 11.5949 13.5873, 11.6949 13.6022, 11.7795 13.6234, 11.8882 13.644, 12.02 13.6642, 12.1522 13.6849, 12.3013 13.6979, 12.4677 13.7027, 12.6341 13.708, 12.7966 13.7104, 12.9549 13.7099 L 13.5257 13.7099, 13.5257 14.3717 Z" stroke="none" fill="#000000" />
			<rect />
		</svg>
	</g>
	<g transform="matrix(1 0 -0 1 245.351 102.159)">
		<svg width="48.065773" height="39.1914787">
			<defs />
			<path d="M 5.85337 14.3717 C 4.88145 14.3409, 3.93551 14.3255, 3.01601 14.3255, 2.097 14.3255, 1.15105 14.3409, 0.178653 14.3717 L 0.178653 13.7099, 0.725926 13.7099 C 0.900015 13.7104, 1.064 13.708, 1.21693 13.7027, 1.37034 13.6979, 1.51558 13.6849, 1.65312 13.6642, 1.79066 13.644, 1.90944 13.6234, 2.00947 13.6022, 2.09411 13.5873, 2.16432 13.5402, 2.21963 13.4603, 2.27541 13.381, 2.30282 13.2925, 2.30282 13.1944 L 2.30282 4.52265 C 2.03881 4.65154, 1.71371 4.74916, 1.32802 4.81553, 0.942335 4.88237, 0.519616 4.91556, 0.0598683 4.91508 L 0.0598683 4.26104 C 0.694186 4.26152, 1.27945 4.18602, 1.81566 4.03453, 2.35188 3.88353, 2.81547 3.59979, 3.20645 3.18381 L 3.45219 3.18381 C 3.62628 3.18429, 3.71333 3.26893, 3.71333 3.43773 L 3.71333 13.1944 C 3.71333 13.2973, 3.73978 13.3872, 3.79268 13.4642, 3.84558 13.5411, 3.92252 13.5873, 4.02255 13.6022, 4.10719 13.6234, 4.21588 13.644, 4.34765 13.6642, 4.4799 13.6849, 4.62898 13.6979, 4.79537 13.7027, 4.96177 13.708, 5.12431 13.7104, 5.28253 13.7099 L 5.85337 13.7099, 5.85337 14.3717 Z" stroke="none" fill="#000000" />
			<path d="M 14.3518 14.3717 L 7.90188 14.3717, 7.90188 13.9485 C 7.90188 13.9182, 7.91775 13.872, 7.94949 13.81 L 10.5406 10.9938 C 10.8474 10.6557, 11.1576 10.3094, 11.4721 9.95547, 11.7867 9.60153, 12.0675 9.23988, 12.3157 8.87055, 12.5638 8.50121, 12.7619 8.12033, 12.9101 7.72791, 13.0582 7.33549, 13.1318 6.92383, 13.1318 6.49245, 13.1318 6.12889, 13.0846 5.78889, 12.9894 5.47341, 12.8942 5.15793, 12.7571 4.88093, 12.5773 4.6424, 12.3974 4.40387, 12.1728 4.21151, 11.9035 4.06531, 11.6342 3.91911, 11.3226 3.84602, 10.9686 3.84554, 10.4406 3.84602, 9.97411 4.00375, 9.57015 4.31923, 9.16619 4.63471, 8.89784 4.9824, 8.76559 5.36136, 8.73962 5.37194, 8.78194 5.37723, 8.89255 5.37675 L 9.02721 5.37675 C 9.18591 5.4133, 9.32296 5.4686, 9.43934 5.54266, 9.55572 5.6172, 9.65335 5.71964, 9.7327 5.85044, 9.81205 5.98125, 9.85148 6.13899, 9.85148 6.32317, 9.85148 6.63144, 9.75145 6.86756, 9.55043 7.03155, 9.34941 7.19602, 9.12483 7.27778, 8.87668 7.2773, 8.63911 7.27778, 8.41741 7.19602, 8.21111 7.03155, 8.00528 6.86756, 7.90188 6.63144, 7.90188 6.32317, 7.90188 5.89276, 7.98652 5.48495, 8.1558 5.10022, 8.32508 4.7155, 8.55447 4.38223, 8.84494 4.09994, 9.13541 3.81812, 9.47878 3.59498, 9.87505 3.43051, 10.2713 3.26652, 10.6916 3.18429, 11.135 3.18381, 11.6842 3.18429, 12.1877 3.26508, 12.6446 3.42666, 13.1015 3.58825, 13.491 3.82053, 13.8132 4.12302, 14.1354 4.42599, 14.3879 4.77609, 14.5702 5.17332, 14.7524 5.57103, 14.8433 6.01058, 14.8433 6.49245, 14.8433 7.02626, 14.7221 7.51775, 14.4788 7.96644, 14.2359 8.41561, 13.9349 8.82726, 13.5756 9.20141, 13.2164 9.57604, 12.8346 9.92854, 12.4306 10.2594, 12.0266 10.5903, 11.6607 10.912, 11.3332 11.2246 L 9.51052 12.9405, 11.8958 12.9405 C 12.2286 12.941, 12.5393 12.9385, 12.8269 12.9333, 13.1149 12.9284, 13.3592 12.9179, 13.5598 12.9025, 13.7608 12.8871, 13.8637 12.877, 13.8685 12.8712, 13.9108 12.8356, 13.9507 12.764, 13.9878 12.6563, 14.0248 12.5485, 14.0589 12.4216, 14.0907 12.2754, 14.1224 12.1292, 14.1542 11.9806, 14.1859 11.8291, 14.2176 11.6781, 14.2465 11.5122, 14.273 11.3323 L 14.8592 11.3323 Z" stroke="none" fill="#000000" />
			<rect />
		</svg>
	</g>
	<g transform="matrix(1 0 -0 1 219.118 133.336)">
		<svg width="48.065773" height="39.1914787">
			<defs />
			<path d="M 5.85337 14.3717 C 4.88145 14.3409, 3.93551 14.3255, 3.01601 14.3255, 2.097 14.3255, 1.15105 14.3409, 0.178653 14.3717 L 0.178653 13.7099, 0.725926 13.7099 C 0.900015 13.7104, 1.064 13.708, 1.21693 13.7027, 1.37034 13.6979, 1.51558 13.6849, 1.65312 13.6642, 1.79066 13.644, 1.90944 13.6234, 2.00947 13.6022, 2.09411 13.5873, 2.16432 13.5402, 2.21963 13.4603, 2.27541 13.381, 2.30282 13.2925, 2.30282 13.1944 L 2.30282 4.52265 C 2.03881 4.65154, 1.71371 4.74916, 1.32802 4.81553, 0.942335 4.88237, 0.519616 4.91556, 0.0598683 4.91508 L 0.0598683 4.26104 C 0.694186 4.26152, 1.27945 4.18602, 1.81566 4.03453, 2.35188 3.88353, 2.81547 3.59979, 3.20645 3.18381 L 3.45219 3.18381 C 3.62628 3.18429, 3.71333 3.26893, 3.71333 3.43773 L 3.71333 13.1944 C 3.71333 13.2973, 3.73978 13.3872, 3.79268 13.4642, 3.84558 13.5411, 3.92252 13.5873, 4.02255 13.6022, 4.10719 13.6234, 4.21588 13.644, 4.34765 13.6642, 4.4799 13.6849, 4.62898 13.6979, 4.79537 13.7027, 4.96177 13.708, 5.12431 13.7104, 5.28253 13.7099 L 5.85337 13.7099, 5.85337 14.3717 Z" stroke="none" fill="#000000" />
			<path d="M 14.9938 11.4708 C 14.9938 11.9123, 14.8962 12.336, 14.701 12.7409, 14.5057 13.1463, 14.2441 13.4926, 13.9161 13.7792, 13.5468 14.1028, 13.1385 14.3423, 12.6922 14.4986, 12.2459 14.6554, 11.7794 14.7333, 11.2932 14.7333, 10.8551 14.7333, 10.4276 14.6717, 10.0102 14.5486, 9.59275 14.4255, 9.21668 14.249, 8.88101 14.0182, 8.54534 13.7874, 8.27747 13.5041, 8.07645 13.1679, 7.87591 12.8323, 7.7754 12.4461, 7.7754 12.0094, 7.7754 11.6815, 7.88505 11.4367, 8.10434 11.2751, 8.32364 11.1135, 8.55447 11.0327, 8.79733 11.0322, 9.05125 11.0327, 9.28738 11.1135, 9.50667 11.2751, 9.72597 11.4367, 9.83561 11.6815, 9.83561 12.0094, 9.83561 12.2047, 9.79762 12.3677, 9.72068 12.4985, 9.64421 12.6293, 9.54659 12.7385, 9.42732 12.8255, 9.30854 12.9131, 9.17244 12.9664, 9.01951 12.9866, 8.94064 13.0078, 8.86658 13.0179, 8.79733 13.0174, 8.72904 13.0179, 8.71846 13.0232, 8.76559 13.0328, 8.92958 13.3204, 9.25179 13.5748, 9.7327 13.795, 10.2136 14.0158, 10.7335 14.1259, 11.2932 14.1254, 11.5577 14.1259, 11.8045 14.0605, 12.0343 13.9297, 12.2642 13.7989, 12.4561 13.6234, 12.609 13.4021, 12.7994 13.1155, 12.9288 12.8077, 12.9971 12.4793, 13.0659 12.1513, 13.1 11.8151, 13.1 11.4708, 13.1 11.1173, 13.0659 10.7778, 12.9971 10.4518, 12.9288 10.1262, 12.7994 9.82467, 12.609 9.54718, 12.4503 9.32212, 12.2575 9.13985, 12.0305 9.00135, 11.8035 8.86285, 11.5577 8.7936, 11.2932 8.79312 L 10.1444 8.79312 C 9.99143 8.7936, 9.90967 8.72194, 9.89909 8.57767 L 9.89909 8.49303 C 9.89909 8.43196, 9.91785 8.38338, 9.9544 8.34684, 10.002 8.30115, 10.0626 8.27807, 10.1367 8.27759, 10.2901 8.25739, 10.4483 8.24729, 10.6118 8.24681, 10.7705 8.24729, 10.9268 8.23719, 11.0797 8.21603, 11.3649 8.19583, 11.613 8.10782, 11.8242 7.95105, 12.0358 7.79475, 12.2127 7.5947, 12.3551 7.35088, 12.4979 7.10754, 12.6061 6.82669, 12.6802 6.50832, 12.7542 6.19044, 12.7913 5.86439, 12.7913 5.53064, 12.7913 5.28489, 12.7648 5.05165, 12.7119 4.83092, 12.659 4.61066, 12.5614 4.41782, 12.4186 4.25335, 12.1228 3.91527, 11.7477 3.74839, 11.2932 3.7532, 10.8075 3.75368, 10.3627 3.84505, 9.95872 4.02684, 9.55476 4.2091, 9.28353 4.40531, 9.14599 4.61499, 9.10944 4.62076, 9.12772 4.62316, 9.20178 4.62268, 9.39222 4.62316, 9.57159 4.67943, 9.74039 4.79196, 9.99431 4.94104, 10.1208 5.19256, 10.1208 5.54603, 10.1208 5.84419, 10.0246 6.06877, 9.83177 6.21978, 9.63892 6.37127, 9.42347 6.44677, 9.18591 6.44629, 8.95363 6.44677, 8.73578 6.37271, 8.53235 6.22363, 8.32893 6.07503, 8.22697 5.849, 8.22697 5.54603, 8.22697 5.17188, 8.31691 4.8415, 8.49628 4.55391, 8.67614 4.26681, 8.90698 4.02059, 9.18975 3.81524, 9.47253 3.61037, 9.79858 3.4536, 10.1684 3.34587, 10.5382 3.23815, 10.9133 3.18429, 11.2932 3.18381, 11.7001 3.18429, 12.094 3.23815, 12.4744 3.34587, 12.8548 3.4536, 13.214 3.62047, 13.5516 3.84554, 13.8267 4.04078, 14.0575 4.28076, 14.2451 4.56545, 14.4326 4.85015, 14.5264 5.17188, 14.5264 5.53064, 14.5264 5.89036, 14.4619 6.22892, 14.3326 6.5468, 14.2032 6.86516, 14.0315 7.15226, 13.8175 7.40858, 13.6035 7.66539, 13.3486 7.89094, 13.0529 8.0857, 12.7571 8.28095, 12.535 8.40358, 12.3868 8.45456, 12.5138 8.47043, 12.7307 8.54641, 13.037 8.68203, 13.3434 8.81813, 13.6362 8.99895, 13.9161 9.22401, 14.2441 9.50679, 14.5057 9.8439, 14.701 10.2363, 14.8962 10.6287, 14.9938 11.0404, 14.9938 11.4708 Z" stroke="none" fill="#000000" />
			<rect />
		</svg>
	</g>
	<g transform="matrix(1 0 -0 1 135.415 192.288)">
		<svg width="50.936203" height="39.1914787">
			<defs />
			<path d="M 5.85337 14.3717 C 4.88145 14.3409, 3.93551 14.3255, 3.01601 14.3255, 2.097 14.3255, 1.15105 14.3409, 0.178653 14.3717 L 0.178653 13.7099, 0.725926 13.7099 C 0.900015 13.7104, 1.064 13.708, 1.21693 13.7027, 1.37034 13.6979, 1.51558 13.6849, 1.65312 13.6642, 1.79066 13.644, 1.90944 13.6234, 2.00947 13.6022, 2.09411 13.5873, 2.16432 13.5402, 2.21963 13.4603, 2.27541 13.381, 2.30282 13.2925, 2.30282 13.1944 L 2.30282 4.52265 C 2.03881 4.65154, 1.71371 4.74916, 1.32802 4.81553, 0.942335 4.88237, 0.519616 4.91556, 0.0598683 4.91508 L 0.0598683 4.26104 C 0.694186 4.26152, 1.27945 4.18602, 1.81566 4.03453, 2.35188 3.88353, 2.81547 3.59979, 3.20645 3.18381 L 3.45219 3.18381 C 3.62628 3.18429, 3.71333 3.26893, 3.71333 3.43773 L 3.71333 13.1944 C 3.71333 13.2973, 3.73978 13.3872, 3.79268 13.4642, 3.84558 13.5411, 3.92252 13.5873, 4.02255 13.6022, 4.10719 13.6234, 4.21588 13.644, 4.34765 13.6642, 4.4799 13.6849, 4.62898 13.6979, 4.79537 13.7027, 4.96177 13.708, 5.12431 13.7104, 5.28253 13.7099 L 5.85337 13.7099, 5.85337 14.3717 Z" stroke="none" fill="#000000" />
			<path d="M 13.5357 11.6324 L 13.5357 13.1944 C 13.5357 13.2872, 13.553 13.3733, 13.5877 13.4526, 13.6223 13.5325, 13.679 13.5849, 13.7579 13.6099, 13.8796 13.6666, 14.0777 13.6979, 14.3523 13.7027, 14.6269 13.708, 14.9039 13.7104, 15.1838 13.7099 L 15.1838 14.3717 C 14.3759 14.3409, 13.5838 14.3255, 12.8067 14.3255, 12.0411 14.3255, 11.2355 14.3409, 10.3901 14.3717 L 10.3901 13.7099 C 10.6806 13.7104, 10.9609 13.708, 11.2302 13.7027, 11.4996 13.6979, 11.7006 13.6666, 11.8323 13.6099, 11.9117 13.5849, 11.9699 13.5325, 12.0069 13.4526, 12.0439 13.3733, 12.0622 13.2872, 12.0622 13.1944 L 12.0622 11.6324, 7.54553 11.6324, 7.54553 11.0091, 12.8384 3.13764 C 12.9077 3.04578, 12.9947 2.99962, 13.1 2.99914 L 13.2746 2.99914 C 13.4487 2.99962, 13.5357 3.08666, 13.5357 3.26075 L 13.5357 10.9553, 15.2396 10.9553, 15.2396 11.6324 Z M 12.1411 5.1613 L 8.24284 10.9553, 12.1411 10.9553 Z" stroke="none" fill="#000000" />
			<rect />
		</svg>
	</g>
	<path d="M 0 -10.6085 L 11.064 10.6085, -11.064 10.6085 Z" stroke="none" fill="#FFFFFF" transform="matrix(0.384615 0 -0 0.384615 31.3923 150.167)" />
	<path d="M 0 -10.6085 L 11.064 10.6085, -11.064 10.6085 Z" fill="none" stroke="#000000" stroke-width="3.12000012" stroke-linecap="round" stroke-linejoin="round" transform="matrix(0.384615 0 -0 0.384615 31.3923 150.167)" />
	<path d="M 0 -10.6087 L 11.0637 10.6087, -11.0637 10.6087 Z" stroke="none" fill="#FFFFFF" transform="matrix(0.384615 0 -0 0.384615 118.767 30.6109)" />
	<path d="M 0 -10.6087 L 11.0637 10.6087, -11.0637 10.6087 Z" fill="none" stroke="#000000" stroke-width="3.12000012" stroke-linecap="round" stroke-linejoin="round" transform="matrix(0.384615 0 -0 0.384615 118.767 30.6109)" />
	<path d="M 0 -10.6086 L 11.064 10.6086, -11.064 10.6086 Z" stroke="none" fill="#FFFFFF" transform="matrix(0.384615 0 -0 0.384615 95.8513 247.232)" />
	<path d="M 0 -10.6086 L 11.064 10.6086, -11.064 10.6086 Z" fill="none" stroke="#000000" stroke-width="3.12000012" stroke-linecap="round" stroke-linejoin="round" transform="matrix(0.384615 0 -0 0.384615 95.8513 247.232)" />
	<ellipse cx="1233.9806880950928" cy="651.15140342712402" rx="10.399999618530273" ry="10.399999618530273" stroke="none" fill="#000000" transform="matrix(0.384615 0 0 0.384615 -309.083 -98.8499)" />
	<ellipse cx="1233.9806966781616" cy="651.15141201019287" rx="6.9333333969116211" ry="6.9333333969116211" stroke="none" fill="#FFFFFF" transform="matrix(0.384615 0 0 0.384615 -309.083 -98.8499)" />
	<ellipse cx="1548.6880855560303" cy="552.56790733337402" rx="10.399999618530273" ry="10.399999618530273" stroke="none" fill="#000000" transform="matrix(0.384615 0 0 0.384615 -309.083 -98.8499)" />
	<ellipse cx="1548.6880941390991" cy="552.56791591644287" rx="6.9333333969116211" ry="6.9333333969116211" stroke="none" fill="#FFFFFF" transform="matrix(0.384615 0 0 0.384615 -309.083 -98.8499)" />
</svg>
