<?xml version="1.0"?>
<svg xmlns="http://www.w3.org/2000/svg" xmlns:xlink="http://www.w3.org/1999/xlink" width="234.753616" height="205.768356">
	<defs />
	<path d="M 22.1847 -154.466 L -22.1847 154.466" fill="none" stroke="#000000" stroke-width="4.80000019" stroke-linecap="round" stroke-linejoin="round" transform="matrix(0.277778 0 0 0.277778 134.855 74.8987)" />
	<path d="M -325.632 -27.6634 L 325.631 27.6633" fill="none" stroke="#000000" stroke-width="4.80000019" stroke-linecap="round" stroke-linejoin="round" transform="matrix(0.277778 0 0 0.277778 118.169 167.588)" />
	<path d="M -203.944 230.242 L 203.944 -230.242" fill="none" stroke="#000000" stroke-width="4.80000019" stroke-linecap="round" stroke-linejoin="round" transform="matrix(0.277778 0 0 0.277778 84.3664 95.9475)" />
	<path d="M -143.873 -103.439 L 143.873 103.439" fill="none" stroke="#000000" stroke-width="4.80000019" stroke-linecap="round" stroke-linejoin="round" transform="matrix(0.277778 0 0 0.277778 168.657 146.539)" />
	<g transform="matrix(1 0 -0 1 2.05485 156.38)">
		<svg width="42.0378685" height="45.2233963">
			<defs />
			<path d="M 12.3983 16.5678 C 12.3296 16.751, 12.2099 16.8426, 12.0399 16.8426, 11.4113 16.806, 10.7849 16.7876, 10.1621 16.7876 L 9.85061 16.7876 C 9.11493 16.8002, 8.37582 16.8185, 7.63385 16.8426, 7.46439 16.8426, 7.37279 16.7636, 7.36019 16.6044 L 7.36019 16.5311, 7.39798 16.3754 C 7.44836 16.1745, 7.57088 16.0766, 7.76553 16.0823, 7.99854 16.0829, 8.20636 16.0754, 8.38842 16.06, 8.57105 16.0451, 8.74738 15.9913, 8.91685 15.8991, 8.97982 15.8693, 9.03364 15.8264, 9.07715 15.7709, 9.10234 15.7228, 9.11837 15.6735, 9.12409 15.6243 L 9.12409 15.5693, 8.89795 12.5282, 4.63333 12.5282, 3.13335 15.093 C 3.05148 15.2401, 3.01026 15.3747, 3.01026 15.4961, 3.01026 15.6002, 3.04175 15.6953, 3.10473 15.78, 3.24327 15.9821, 3.50148 16.0829, 3.87819 16.0823, 4.04822 16.0829, 4.13925 16.1562, 4.15185 16.3021, 4.15185 16.3394, 4.14555 16.3789, 4.13295 16.4212 L 4.09574 16.5678 C 4.02647 16.751, 3.90395 16.8426, 3.72762 16.8426, 3.14938 16.8185, 2.57687 16.8002, 2.01009 16.7876 L 1.75589 16.7876 C 1.26525 16.7876, 0.768314 16.806, 0.265078 16.8426, 0.170614 16.8426, 0.101341 16.8123, 0.0572573 16.751, 0.0194716 16.7149, 0.000578821 16.672, 0.000578821 16.6228, 0.000578821 16.5867, 0.00687641 16.55, 0.0194716 16.5128 L 0.0572573 16.3754 C 0.107638 16.1745, 0.230728 16.0766, 0.425381 16.0823, 0.626904 16.0829, 0.824993 16.0617, 1.01965 16.0188, 1.21487 15.9764, 1.3975 15.8997, 1.56697 15.7897, 1.737 15.6798, 1.89444 15.547, 2.03871 15.3913, 2.18356 15.2356, 2.31237 15.0598, 2.42573 14.864 L 9.08631 3.45961 C 9.19967 3.289, 9.34451 3.20656, 9.52084 3.21228 L 9.70004 3.21228 C 9.90156 3.21285, 10.0143 3.30732, 10.0395 3.49625 L 10.8697 15.4319 C 10.8823 15.5911, 10.9012 15.7119, 10.9264 15.7943, 10.9515 15.8768, 10.9956 15.9363, 11.0586 15.9724, 11.1468 16.0279, 11.2928 16.06, 11.4971 16.0691, 11.7021 16.0783, 11.9328 16.0829, 12.1905 16.0823, 12.3668 16.0829, 12.455 16.1562, 12.455 16.3021, 12.455 16.3394, 12.4487 16.3789, 12.4361 16.4212 Z M 8.4451 6.03361 L 5.08618 11.7862, 8.84127 11.7862 Z" stroke="none" fill="#000000" />
			<rect />
		</svg>
	</g>
	<g transform="matrix(1 0 -0 1 137.705 1.34337)">
		<svg width="44.9082985" height="45.2233963">
			<defs />
			<path d="M 13.0332 7.12367 C 12.9267 7.56393, 12.7143 7.97614, 12.3966 8.36086, 12.0788 8.74559, 11.7124 9.07249, 11.2973 9.34043, 10.9704 9.56084, 10.6355 9.73489, 10.2926 9.86313, 9.94965 9.99137, 9.82828 10.0463, 9.92904 10.0274, 9.91072 10.0217, 10.0756 10.1001, 10.4248 10.2616, 10.7741 10.4236, 11.0804 10.6446, 11.3443 10.9251, 11.6403 11.2251, 11.8418 11.5852, 11.9483 12.006, 11.9987 12.2144, 12.0273 12.4188, 12.033 12.6198, 12.033 12.8522, 11.9987 13.0938, 11.9294 13.3434, 11.8103 13.814, 11.5899 14.2634, 11.2693 14.6905, 10.9487 15.1182, 10.5645 15.4903, 10.118 15.8075, 9.64622 16.1499, 9.1447 16.4081, 8.61342 16.5821, 8.08213 16.7561, 7.55198 16.8426, 7.02298 16.8426 L 0.267942 16.8426 C 0.173478 16.8426, 0.104204 16.8151, 0.0601207 16.7602, 0.0166099 16.7178, -0.00571795 16.672, -0.00571795 16.6228, -0.00571795 16.5867, 0.000579656 16.55, 0.0131749 16.5128 L 0.0509605 16.3754 C 0.0887462 16.1745, 0.211263 16.0766, 0.418512 16.0823, 0.714499 16.0829, 0.991594 16.0783, 1.24922 16.0691, 1.50685 16.06, 1.70208 16.0279, 1.83376 15.9724, 1.94711 15.9117, 2.03528 15.7468, 2.09826 15.4777 L 4.74955 5.15423 C 4.78733 5.02027, 4.80565 4.91664, 4.80565 4.84279, 4.80565 4.77008, 4.7902 4.72714, 4.75871 4.71455, 4.67054 4.66016, 4.49936 4.62695, 4.24459 4.61436, 3.98983 4.60234, 3.71159 4.59604, 3.4093 4.59547, 3.31541 4.59604, 3.24614 4.56569, 3.20205 4.50386, 3.16427 4.4678, 3.14538 4.422, 3.14538 4.36646, 3.14538 4.33039, 3.15511 4.29662, 3.17343 4.2657 L 3.20205 4.1283 C 3.22095 4.04357, 3.26675 3.97486, 3.33888 3.92277, 3.41102 3.87124, 3.48831 3.84491, 3.57018 3.84433 L 9.82542 3.84433 C 10.3413 3.84491, 10.8285 3.92162, 11.2876 4.07391, 11.7468 4.22677, 12.1275 4.4678, 12.4292 4.79699, 12.7252 5.09698, 12.933 5.44507, 13.0521 5.84125, 13.1025 6.04334, 13.1277 6.24773, 13.1277 6.45498, 13.1277 6.67539, 13.0962 6.8981, 13.0332 7.12367 Z M 11.1273 7.08703 C 11.1903 6.84314, 11.2218 6.59925, 11.2218 6.35422 L 11.2218 6.13437 C 11.1966 5.84182, 11.1084 5.56988, 10.9573 5.31912, 10.8256 5.09355, 10.651 4.91664, 10.434 4.7884, 10.217 4.66016, 9.96397 4.59604, 9.67428 4.59547 L 7.18329 4.59547 C 6.85009 4.59604, 6.6583 4.61722, 6.60791 4.65959, 6.53234 4.72142, 6.46021 4.89832, 6.39093 5.19088 L 5.2213 9.78927, 7.79702 9.78927 C 8.15541 9.78985, 8.51094 9.72, 8.86303 9.57916, 9.2157 9.4389, 9.55176 9.24024, 9.87236 8.98318, 10.5393 8.44617, 10.9578 7.81412, 11.1273 7.08703 Z M 9.96683 13.2885 C 10.055 12.9776, 10.0991 12.669, 10.0991 12.3633 L 10.0991 12.1709 C 10.0739 11.8297, 9.98286 11.5148, 9.82542 11.2274, 9.68687 10.9778, 9.49966 10.7746, 9.26379 10.6188, 9.02791 10.4631, 8.75311 10.3853, 8.43823 10.3847 L 5.05126 10.3847, 3.73964 15.5144 C 3.68926 15.7228, 3.66407 15.8722, 3.66407 15.9632, 3.66407 16.0125, 3.6675 16.0399, 3.6738 16.0457, 3.6864 16.0646, 3.85014 16.0766, 4.16444 16.0823 L 6.68349 16.0823 C 7.02928 16.0829, 7.37851 16.0084, 7.73061 15.8585, 8.08327 15.709, 8.40731 15.5121, 8.70273 15.267, 9.0302 14.9928, 9.29871 14.6848, 9.50939 14.3424, 9.72008 14.0007, 9.87294 13.6491, 9.96683 13.2885 Z" stroke="none" fill="#000000" />
			<rect />
		</svg>
	</g>
	<g transform="matrix(1 0 -0 1 218.382 176.454)">
		<svg width="42.0378685" height="48.0957298">
			<defs />
			<path d="M 11.6723 8.71754 C 11.6345 8.88929, 11.5246 8.97746, 11.342 8.98318 L 11.1347 8.98318 C 10.9905 8.98375, 10.9115 8.91047, 10.8989 8.76334 L 10.8989 8.69006 C 10.9618 8.3059, 10.9968 7.93663, 11.0025 7.58168, 11.0025 7.38073, 10.9962 7.17634, 10.9836 6.96795, 10.9206 6.43093, 10.7792 5.95632, 10.5594 5.54411, 10.3395 5.13191, 10.0435 4.80214, 9.67256 4.55482, 9.30157 4.30749, 8.84814 4.18383, 8.31342 4.18326, 7.65961 4.18383, 7.00237 4.34299, 6.34169 4.66016, 5.68159 4.9779, 5.08389 5.40213, 4.54917 5.93285, 3.92628 6.56261, 3.43907 7.25878, 3.08698 8.02194, 2.73488 8.78566, 2.45779 9.56371, 2.25627 10.3572, 2.03642 11.1639, 1.91047 11.9453, 1.87898 12.7022 L 1.87898 12.9587 C 1.87898 13.6251, 2.01123 14.2325, 2.27516 14.7816, 2.52706 15.3014, 2.89461 15.7199, 3.37896 16.0371, 3.8633 16.3548, 4.43924 16.5134, 5.10565 16.5128, 5.64667 16.5134, 6.17796 16.3978, 6.70009 16.1653, 7.22221 15.9334, 7.70198 15.6203, 8.13938 15.2264, 8.57677 14.8325, 8.95864 14.3762, 9.28554 13.857, 9.61302 13.3383, 9.84889 12.7881, 9.99316 12.2076, 10.0309 12.0369, 10.1414 11.9516, 10.3235 11.9511 L 10.5307 11.9511 C 10.6882 11.9516, 10.7729 12.0186, 10.7855 12.1526, 10.7855 12.1898, 10.7764 12.2236, 10.7575 12.2534, 10.588 12.9255, 10.308 13.5638, 9.91759 14.1684, 9.52771 14.773, 9.06398 15.3031, 8.52582 15.7577, 7.98823 16.2128, 7.39855 16.5758, 6.75676 16.8472, 6.11555 17.1191, 5.45488 17.2548, 4.77531 17.2548, 3.90738 17.2548, 3.13564 17.0733, 2.45951 16.7103, 1.78337 16.3474, 1.23434 15.8447, 0.812968 15.2029, 0.372708 14.5136, 0.114506 13.7499, 0.0389352 12.9129, 0.0137447 12.6873, 0.00114954 12.4526, 0.00114954 12.2076, 0.00114954 11.5915, 0.0801558 10.9623, 0.237023 10.3206, 0.476333 9.42344, 0.855906 8.55781, 1.3746 7.72423, 1.89329 6.89066, 2.54252 6.13208, 3.32228 5.44736, 4.05853 4.82504, 4.85603 4.33039, 5.7148 3.96399, 6.57356 3.59758, 7.43347 3.41438, 8.29453 3.41381, 8.98039 3.41438, 9.56721 3.56552, 10.0544 3.86781, 10.5422 4.17009, 10.9023 4.53478, 11.1347 4.96187 L 12.4086 3.54205 C 12.459 3.45732, 12.5437 3.41438, 12.6633 3.41381 L 12.7383 3.41381 C 12.8895 3.41438, 12.9651 3.48766, 12.9651 3.63365 L 12.9651 3.70693 Z" stroke="none" fill="#000000" />
			<rect />
		</svg>
	</g>
	<g transform="matrix(1 0 -0 1 99.8266 103.724)">
		<svg width="38.880394" height="39.1914787">
			<defs />
			<path d="M 11.7226 8.98752 C 11.5391 9.69466, 11.2496 10.3777, 10.8531 11.0373, 10.4571 11.6968, 9.95996 12.296, 9.36127 12.8348, 8.81657 13.3221, 8.21838 13.7107, 7.56572 14.0012, 6.91355 14.2917, 6.26138 14.4365, 5.60872 14.4365 L 0.230889 14.4365 C 0.0856351 14.4365, 0.00761024 14.3688, -0.00367638 14.2324 L -0.00367638 14.1696, 0.0287113 14.0361 C 0.0718949 13.8638, 0.17691 13.7799, 0.343755 13.7848, 0.597459 13.7853, 0.837422 13.7814, 1.06365 13.7735, 1.29036 13.7657, 1.4572 13.7382, 1.56516 13.6906, 1.66772 13.6337, 1.74575 13.4924, 1.79973 13.2666 L 4.07227 4.41791 C 4.10465 4.30309, 4.12036 4.21426, 4.12036 4.15096, 4.12036 4.08864, 4.10711 4.05184, 4.08012 4.04104, 4.00455 3.99442, 3.85782 3.96596, 3.63945 3.95516, 3.42108 3.94486, 3.18259 3.93946, 2.92348 3.93897, 2.77283 3.93946, 2.69726 3.8688, 2.69726 3.72698 L 2.69726 3.66416, 2.74584 3.53069 C 2.77823 3.37415, 2.87834 3.29563, 3.04518 3.29514 L 8.43921 3.29514 C 9.10757 3.29563, 9.69006 3.45021, 10.1862 3.75887, 10.6823 4.06803, 11.0813 4.47337, 11.3831 4.97538, 11.7064 5.54118, 11.8895 6.1693, 11.9327 6.85975, 11.9435 7.00697, 11.9489 7.1429, 11.9489 7.26803, 11.9489 7.82844, 11.8738 8.4016, 11.7226 8.98752 Z M 10.1616 5.33655 C 9.9786 4.90275, 9.69153 4.56121, 9.30042 4.31241, 8.90981 4.0641, 8.45295 3.93946, 7.92984 3.93897 L 6.19071 3.93897 C 5.91591 3.93946, 5.75152 3.96056, 5.69754 4.00227, 5.64356 4.04447, 5.58713 4.19316, 5.52775 4.44932 L 3.23902 13.298 C 3.19583 13.4767, 3.17424 13.6047, 3.17424 13.6828 L 3.17424 13.7456 C 3.19583 13.7672, 3.33913 13.7799, 3.60313 13.7848 L 5.34176 13.7848 C 5.87027 13.7853, 6.39731 13.6666, 6.92287 13.4281, 7.44893 13.1901, 7.91904 12.8588, 8.33419 12.4344, 8.80872 11.9427, 9.17284 11.3945, 9.42605 10.7899, 9.67926 10.1854, 9.88144 9.57443, 10.0321 8.95612, 10.1994 8.31278, 10.3152 7.6768, 10.38 7.04819, 10.3908 6.90195, 10.3962 6.76062, 10.3962 6.6242, 10.3962 6.16391, 10.3182 5.73501, 10.1616 5.33655 Z" stroke="none" fill="#000000" />
			<rect />
		</svg>
	</g>
	<path d="M 121.688 257.905 L -121.688 -257.905" fill="none" stroke="#000000" stroke-width="4.80000019" stroke-linecap="round" stroke-linejoin="round" transform="matrix(0.277778 0 0 0.277778 174.82 103.632)" />
	<path d="M 181.759 -75.7756 L -181.759 75.7756" fill="none" stroke="#000000" stroke-width="4.80000019" stroke-linecap="round" stroke-linejoin="round" transform="matrix(0.277778 0 0 0.277778 78.204 138.855)" />
	<path d="M -307.578 -6.93137 L 307.578 -6.93137, 307.578 6.93137, -307.578 6.93137 Z" stroke="none" fill="#FFFFFF" transform="matrix(0.184184 -0.207934 0.207934 0.184184 84.3664 95.9475)" />
	<path d="M -307.578 -6.93137 L 307.578 -6.93137, 307.578 6.93137, -307.578 6.93137 Z" fill="none" stroke="#000000" stroke-width="4.32000017" stroke-linecap="round" stroke-linejoin="round" transform="matrix(0.184184 -0.207934 0.207934 0.184184 84.3664 95.9475)" />
	<path d="M 0 -14.6882 L 15.3195 14.6882, -15.3195 14.6882 Z" stroke="none" fill="#FFFFFF" transform="matrix(0.277778 0 -0 0.277778 140.497 32.0286)" />
	<path d="M 0 -14.6882 L 15.3195 14.6882, -15.3195 14.6882 Z" fill="none" stroke="#000000" stroke-width="4.32000017" stroke-linecap="round" stroke-linejoin="round" transform="matrix(0.277778 0 -0 0.277778 140.497 32.0286)" />
	<path d="M 0 -14.6882 L 15.3195 14.6882, -15.3195 14.6882 Z" stroke="none" fill="#FFFFFF" transform="matrix(0.277778 0 -0 0.277778 28.4969 158.779)" />
	<path d="M 0 -14.6882 L 15.3195 14.6882, -15.3195 14.6882 Z" fill="none" stroke="#000000" stroke-width="4.32000017" stroke-linecap="round" stroke-linejoin="round" transform="matrix(0.277778 0 -0 0.277778 28.4969 158.779)" />
	<ellipse cx="1255.9321050643921" cy="673.61948299407959" rx="14.40000057220459" ry="14.40000057220459" stroke="none" fill="#000000" transform="matrix(0.277778 0 0 0.277778 -220.123 -69.3381)" />
	<ellipse cx="1255.9321537017822" cy="673.61953163146973" rx="9.6000003814697266" ry="9.6000003814697266" stroke="none" fill="#FFFFFF" transform="matrix(0.277778 0 0 0.277778 -220.123 -69.3381)" />
	<ellipse cx="1540.3320074081421" cy="877.91947078704834" rx="14.40000057220459" ry="14.40000057220459" stroke="none" fill="#000000" transform="matrix(0.277778 0 0 0.277778 -220.123 -69.3381)" />
	<ellipse cx="1540.3320560455322" cy="877.91951942443848" rx="9.6000003814697266" ry="9.6000003814697266" stroke="none" fill="#FFFFFF" transform="matrix(0.277778 0 0 0.277778 -220.123 -69.3381)" />
	<g transform="matrix(1 0 -0 1 64.1659 122.297)">
		<svg width="21.0837173" height="39.1914787">
			<defs />
			<path d="M 5.84808 14.3717 C 4.87616 14.3409, 3.93022 14.3255, 3.01072 14.3255, 2.09171 14.3255, 1.14576 14.3409, 0.173363 14.3717 L 0.173363 13.7099, 0.720637 13.7099 C 0.894725 13.7104, 1.05872 13.708, 1.21164 13.7027, 1.36505 13.6979, 1.51029 13.6849, 1.64783 13.6642, 1.78537 13.644, 1.90415 13.6234, 2.00418 13.6022, 2.08882 13.5873, 2.15903 13.5402, 2.21434 13.4603, 2.27012 13.381, 2.29753 13.2925, 2.29753 13.1944 L 2.29753 4.52265 C 2.03352 4.65154, 1.70842 4.74916, 1.32273 4.81553, 0.937045 4.88237, 0.514327 4.91556, 0.0545789 4.91508 L 0.0545789 4.26104 C 0.688897 4.26152, 1.27416 4.18602, 1.81037 4.03453, 2.34659 3.88353, 2.81018 3.59979, 3.20116 3.18381 L 3.4469 3.18381 C 3.62099 3.18429, 3.70804 3.26893, 3.70804 3.43773 L 3.70804 13.1944 C 3.70804 13.2973, 3.73449 13.3872, 3.78739 13.4642, 3.84029 13.5411, 3.91723 13.5873, 4.01726 13.6022, 4.1019 13.6234, 4.21059 13.644, 4.34236 13.6642, 4.47461 13.6849, 4.62369 13.6979, 4.79008 13.7027, 4.95648 13.708, 5.11902 13.7104, 5.27724 13.7099 L 5.84808 13.7099, 5.84808 14.3717 Z" stroke="none" fill="#000000" />
			<rect />
		</svg>
	</g>
	<g transform="matrix(1 0 -0 1 122.642 56.7971)">
		<svg width="27.1116219" height="39.1914787">
			<defs />
			<path d="M 6.52075 14.3717 L 0.0698506 14.3717, 0.0698506 13.9485 C 0.0698506 13.9182, 0.0857206 13.872, 0.117461 13.81 L 2.70907 10.9938 C 3.01541 10.6557, 3.3256 10.3094, 3.64011 9.95547, 3.95463 9.60153, 4.23644 9.23988, 4.48459 8.87055, 4.73274 8.50121, 4.93087 8.12033, 5.07899 7.72791, 5.22711 7.33549, 5.30069 6.92383, 5.30069 6.49245, 5.30069 6.12889, 5.25308 5.78889, 5.15786 5.47341, 5.06264 5.15793, 4.92558 4.88093, 4.74572 4.6424, 4.56634 4.40387, 4.34176 4.21151, 4.07245 4.06531, 3.80314 3.91911, 3.49103 3.84602, 3.13708 3.84554, 2.60905 3.84602, 2.14257 4.00375, 1.73812 4.31923, 1.33416 4.63471, 1.06581 4.9824, 0.933562 5.36136, 0.907593 5.37194, 0.949913 5.37723, 1.06052 5.37675 L 1.19518 5.37675 C 1.35388 5.4133, 1.49093 5.4686, 1.60731 5.54266, 1.72369 5.6172, 1.82132 5.71964, 1.90067 5.85044, 1.98002 5.98125, 2.01945 6.13899, 2.01945 6.32317, 2.01945 6.63144, 1.91942 6.86756, 1.7184 7.03155, 1.51738 7.19602, 1.2928 7.27778, 1.04465 7.2773, 0.807083 7.27778, 0.584903 7.19602, 0.379075 7.03155, 0.173246 6.86756, 0.0698506 6.63144, 0.0698506 6.32317, 0.0698506 5.89276, 0.15449 5.48495, 0.32377 5.10022, 0.49305 4.7155, 0.722443 4.38223, 1.01291 4.09994, 1.30338 3.81812, 1.64675 3.59498, 2.04302 3.43051, 2.43929 3.26652, 2.8596 3.18429, 3.30348 3.18381, 3.85316 3.18429, 4.35667 3.26508, 4.81353 3.42666, 5.27039 3.58825, 5.65993 3.82053, 5.98214 4.12302, 6.30434 4.42599, 6.55682 4.77609, 6.73909 5.17332, 6.92135 5.57103, 7.01224 6.01058, 7.01224 6.49245, 7.01224 7.02626, 6.89105 7.51775, 6.64771 7.96644, 6.40485 8.41561, 6.10381 8.82726, 5.74457 9.20141, 5.38533 9.57604, 5.00349 9.92854, 4.59904 10.2594, 4.19508 10.5903, 3.82911 10.912, 3.50161 11.2246 L 1.67849 12.9405, 4.06427 12.9405 C 4.39706 12.941, 4.70773 12.9385, 4.99531 12.9333, 5.28338 12.9284, 5.52768 12.9179, 5.7287 12.9025, 5.92972 12.8871, 6.03263 12.877, 6.03744 12.8712, 6.07976 12.8356, 6.11968 12.764, 6.15671 12.6563, 6.19374 12.5485, 6.22788 12.4216, 6.25962 12.2754, 6.29136 12.1292, 6.3231 11.9806, 6.35484 11.8291, 6.38658 11.6781, 6.41543 11.5122, 6.44188 11.3323 L 7.02811 11.3323 Z" stroke="none" fill="#000000" />
			<rect />
		</svg>
	</g>
	<g transform="matrix(1 0 -0 1 115.735 96.5253)">
		<svg width="27.1116219" height="39.1914787">
			<defs />
			<path d="M 7.292 11.4708 C 7.292 11.9123, 7.19438 12.336, 6.99913 12.7409, 6.80388 13.1463, 6.54227 13.4926, 6.21429 13.7792, 5.84447 14.1028, 5.43618 14.3423, 4.9899 14.4986, 4.54361 14.6554, 4.07713 14.7333, 3.59093 14.7333, 3.15235 14.7333, 2.72482 14.6717, 2.30739 14.5486, 1.88996 14.4255, 1.51389 14.249, 1.17822 14.0182, 0.842544 13.7874, 0.574678 13.5041, 0.373659 13.1679, 0.172639 12.8323, 0.0721291 12.4461, 0.0721291 12.0094, 0.0721291 11.6815, 0.181776 11.4367, 0.40107 11.2751, 0.620364 11.1135, 0.851681 11.0327, 1.09454 11.0322, 1.34846 11.0327, 1.58459 11.1135, 1.80388 11.2751, 2.02317 11.4367, 2.13282 11.6815, 2.13282 12.0094, 2.13282 12.2047, 2.09483 12.3677, 2.01788 12.4985, 1.94142 12.6293, 1.84379 12.7385, 1.72453 12.8255, 1.60575 12.9131, 1.46965 12.9664, 1.31624 12.9866, 1.23737 13.0078, 1.16331 13.0179, 1.09454 13.0174, 1.02625 13.0179, 1.01567 13.0232, 1.0628 13.0328, 1.22679 13.3204, 1.549 13.5748, 2.02991 13.795, 2.51081 14.0158, 3.03116 14.1259, 3.59093 14.1254, 3.85543 14.1259, 4.10214 14.0605, 4.33201 13.9297, 4.56189 13.7989, 4.75377 13.6234, 4.9067 13.4021, 5.09714 13.1155, 5.2265 12.8077, 5.29527 12.4793, 5.36404 12.1513, 5.39819 11.8151, 5.39819 11.4708, 5.39819 11.1173, 5.36404 10.7778, 5.29527 10.4518, 5.2265 10.1262, 5.09714 9.82467, 4.9067 9.54718, 4.748 9.32212, 4.55515 9.13985, 4.32817 9.00135, 4.10118 8.86285, 3.85543 8.7936, 3.59093 8.79312 L 2.44204 8.79312 C 2.28912 8.7936, 2.20688 8.72194, 2.1963 8.57767 L 2.1963 8.49303 C 2.1963 8.43196, 2.21506 8.38338, 2.2516 8.34684, 2.29921 8.30115, 2.35981 8.27807, 2.43387 8.27759, 2.58728 8.25739, 2.74598 8.24729, 2.90949 8.24681, 3.06819 8.24729, 3.224 8.23719, 3.37693 8.21603, 3.66259 8.19583, 3.91074 8.10782, 4.12234 7.95105, 4.33394 7.79475, 4.51091 7.5947, 4.65326 7.35088, 4.79561 7.10754, 4.90381 6.82669, 4.97787 6.50832, 5.05193 6.19044, 5.08896 5.86439, 5.08896 5.53064, 5.08896 5.28489, 5.06251 5.05165, 5.00961 4.83092, 4.95671 4.61066, 4.85909 4.41782, 4.71626 4.25335, 4.4205 3.91527, 4.04539 3.74839, 3.59093 3.7532, 3.10522 3.75368, 2.6599 3.84505, 2.25593 4.02684, 1.85197 4.2091, 1.58074 4.40531, 1.4432 4.61499, 1.40665 4.62076, 1.42492 4.62316, 1.49898 4.62268, 1.68942 4.62316, 1.8688 4.67943, 2.0376 4.79196, 2.29152 4.94104, 2.418 5.19256, 2.418 5.54603, 2.418 5.84419, 2.32182 6.06877, 2.12897 6.21978, 1.93613 6.37127, 1.72068 6.44677, 1.48311 6.44629, 1.25035 6.44677, 1.0325 6.37271, 0.829079 6.22363, 0.625654 6.07503, 0.523702 5.849, 0.523702 5.54603, 0.523702 5.17188, 0.613632 4.8415, 0.793491 4.55391, 0.973351 4.26681, 1.20419 4.02059, 1.48696 3.81524, 1.76973 3.61037, 2.09579 3.4536, 2.46561 3.34587, 2.83591 3.23815, 3.21102 3.18429, 3.59093 3.18381, 3.99778 3.18429, 4.39165 3.23815, 4.77204 3.34587, 5.15244 3.4536, 5.51168 3.62047, 5.84976 3.84554, 6.12484 4.04078, 6.35568 4.28076, 6.54323 4.56545, 6.73078 4.85015, 6.82456 5.17188, 6.82456 5.53064, 6.82456 5.89036, 6.76012 6.22892, 6.63075 6.5468, 6.50139 6.86516, 6.32971 7.15226, 6.1157 7.40858, 5.9017 7.66539, 5.64682 7.89094, 5.35058 8.0857, 5.05482 8.28095, 4.83264 8.40358, 4.68452 8.45456, 4.81148 8.47043, 5.02837 8.54641, 5.33471 8.68203, 5.64153 8.81813, 5.9344 8.99895, 6.21429 9.22401, 6.54227 9.50679, 6.80388 9.8439, 6.99913 10.2363, 7.19438 10.6287, 7.292 11.0404, 7.292 11.4708 Z" stroke="none" fill="#000000" />
			<rect />
		</svg>
	</g>
	<g transform="matrix(1 0 -0 1 140.826 54.2971)">
		<svg width="27.1116219" height="39.1914787">
			<defs />
			<path d="M 6.07145 11.6324 L 6.07145 13.1944 C 6.07145 13.2872, 6.08876 13.3733, 6.1229 13.4526, 6.15753 13.5325, 6.21428 13.5849, 6.29315 13.6099, 6.4153 13.6666, 6.61343 13.6979, 6.88803 13.7027, 7.16263 13.708, 7.44011 13.7104, 7.72 13.7099 L 7.72 14.3717 C 6.91159 14.3409, 6.11906 14.3255, 5.34239 14.3255, 4.5763 14.3255, 3.7703 14.3409, 2.92486 14.3717 L 2.92486 13.7099 C 3.21581 13.7104, 3.49618 13.708, 3.76549 13.7027, 4.0348 13.6979, 4.23582 13.6666, 4.36759 13.6099, 4.44694 13.5849, 4.50513 13.5325, 4.54216 13.4526, 4.57919 13.3733, 4.59746 13.2872, 4.59746 13.1944 L 4.59746 11.6324, 0.079812 11.6324, 0.079812 11.0091, 5.37413 3.13764 C 5.4429 3.04578, 5.52994 2.99962, 5.63574 2.99914 L 5.80983 2.99914 C 5.9844 2.99962, 6.07145 3.08666, 6.07145 3.26075 L 6.07145 10.9553, 7.7753 10.9553, 7.7753 11.6324 Z M 4.67681 5.1613 L 0.777129 10.9553, 4.67681 10.9553 Z" stroke="none" fill="#000000" />
			<rect />
		</svg>
	</g>
	<g transform="matrix(1 0 -0 1 179.163 133.797)">
		<svg width="27.1116219" height="39.1914787">
			<defs />
			<path d="M 7.01345 10.9707 C 7.01345 11.4737, 6.91871 11.9536, 6.72827 12.41, 6.53831 12.8669, 6.26371 13.2771, 5.90399 13.6407, 5.53946 13.9951, 5.12877 14.2659, 4.67191 14.4524, 4.21504 14.64, 3.72981 14.7333, 3.21716 14.7333, 2.77376 14.7333, 2.36018 14.6501, 1.9769 14.4832, 1.59409 14.3168, 1.2613 14.0889, 0.978531 13.7989, 0.695757 13.5094, 0.474058 13.1732, 0.312954 12.7909, 0.15185 12.4091, 0.0710571 12.0022, 0.0710571 11.5708, 0.0710571 11.2736, 0.170124 11.0495, 0.368258 10.8981, 0.566392 10.747, 0.771259 10.6711, 0.982378 10.6706, 1.20456 10.6711, 1.41327 10.7456, 1.60852 10.8942, 1.80425 11.0433, 1.90187 11.2688, 1.90187 11.5708, 1.90187 11.756, 1.861 11.9113, 1.77924 12.0368, 1.69749 12.1628, 1.59698 12.26, 1.47771 12.3292, 1.35893 12.3985, 1.22572 12.4384, 1.0776 12.448 L 0.982378 12.448, 0.823678 12.448 C 0.945348 12.8794, 1.22812 13.267, 1.672 13.6104, 2.11588 13.9542, 2.63093 14.1259, 3.21716 14.1254, 3.52398 14.1259, 3.82262 14.0466, 4.11309 13.8874, 4.40356 13.7287, 4.64161 13.518, 4.82628 13.2559, 5.04269 12.9434, 5.18167 12.5884, 5.24226 12.1907, 5.30286 11.7935, 5.33315 11.3867, 5.33315 10.9707, 5.33315 10.5504, 5.32017 10.1469, 5.29372 9.75926, 5.26775 9.37213, 5.15907 9.00664, 4.96863 8.66231, 4.83157 8.41128, 4.65604 8.20256, 4.44203 8.03569, 4.22803 7.86929, 3.98902 7.78562, 3.72452 7.78514, 3.22245 7.78562, 2.78675 7.88709, 2.41693 8.08955, 2.04711 8.29249, 1.74846 8.58344, 1.52148 8.9624, 1.47387 9.04992, 1.3974 9.09369, 1.2916 9.09321 L 1.22812 9.09321 C 1.04345 9.09369, 0.950638 9.00905, 0.950638 8.83929 L 0.950638 3.43773 C 0.950638 3.30499, 1.02758 3.22036, 1.18051 3.18381, 1.20696 3.18429, 1.22668 3.18717, 1.24014 3.19198, 1.25361 3.19727, 1.26515 3.19968, 1.27573 3.19919, 2.04182 3.54833, 2.83147 3.7229, 3.64517 3.72242, 4.46944 3.7229, 5.25958 3.54833, 6.01508 3.19919, 6.02566 3.19968, 6.03624 3.19727, 6.04682 3.19198, 6.0574 3.18717, 6.07327 3.18429, 6.09443 3.18381, 6.26852 3.18429, 6.35316 3.26364, 6.34787 3.42234, 6.34787 3.51515, 6.332 3.57671, 6.30026 3.60701, 5.92515 4.12062, 5.44857 4.52217, 4.87004 4.81168, 4.29151 5.10167, 3.67739 5.24642, 3.0272 5.24594, 2.48858 5.24642, 2.02354 5.18486, 1.63209 5.06127 L 1.63209 8.00058 C 1.81723 7.8063, 2.09616 7.63317, 2.46838 7.48168, 2.84109 7.33068, 3.25996 7.25469, 3.72452 7.25421, 4.17897 7.25469, 4.60843 7.35761, 5.01239 7.56248, 5.41683 7.76782, 5.77222 8.03425, 6.07856 8.36223, 6.39548 8.73204, 6.63064 9.1413, 6.78357 9.58998, 6.93698 10.0392, 7.01345 10.4994, 7.01345 10.9707 Z" stroke="none" fill="#000000" />
			<rect />
		</svg>
	</g>
	<g transform="matrix(1 0 -0 1 136.813 102.297)">
		<svg width="27.1116219" height="39.1914787">
			<defs />
			<path d="M 7.292 10.9399 C 7.292 11.4737, 7.21313 11.9522, 7.05443 12.3754, 6.89622 12.7986, 6.62691 13.2156, 6.24603 13.6253, 5.87092 14.0105, 5.48667 14.2913, 5.09281 14.4678, 4.69943 14.6448, 4.22525 14.7333, 3.67028 14.7333, 3.10522 14.7333, 2.58728 14.5938, 2.11695 14.3139, 1.64662 14.035, 1.27151 13.6565, 0.991626 13.179, 0.595357 12.5279, 0.343361 11.8406, 0.234676 11.1173, 0.126472 10.3941, 0.0721291 9.67318, 0.0721291 8.9547, 0.0721291 8.23719, 0.176486 7.53074, 0.3852 6.83534, 0.593915 6.14043, 0.928146 5.49794, 1.38789 4.90738, 1.77358 4.40531, 2.24391 3.99221, 2.79888 3.66904, 3.35385 3.34587, 3.96364 3.18429, 4.62921 3.18381, 5.26882 3.18429, 5.79975 3.34876, 6.22246 3.67674, 6.64518 4.0052, 6.8563 4.47697, 6.8563 5.09205, 6.8563 5.37963, 6.76926 5.59268, 6.59469 5.73118, 6.4206 5.86968, 6.21958 5.93893, 5.99259 5.93845, 5.77618 5.93893, 5.58189 5.86968, 5.41021 5.73118, 5.23853 5.59268, 5.15244 5.37963, 5.15244 5.09205, 5.15244 4.78475, 5.26594 4.55391, 5.49293 4.39954, 5.64105 4.30769, 5.80792 4.26152, 5.99259 4.26104, 6.05078 4.26152, 6.05847 4.25912, 6.01615 4.25335, 5.94209 4.14081, 5.78003 4.02972, 5.52899 3.91911, 5.27796 3.80899, 4.97835 3.75368, 4.62921 3.7532, 4.15889 3.75368, 3.73617 3.89363, 3.36106 4.17303, 2.98595 4.45292, 2.66903 4.80254, 2.4103 5.22286, 2.10397 5.75666, 1.91882 6.33808, 1.85534 6.96615, 1.79186 7.5947, 1.75483 8.0958, 1.74425 8.46995, 1.83947 8.24969, 2.06838 7.97942, 2.43002 7.65866, 2.79215 7.33837, 3.25045 7.17775, 3.80494 7.17727, 4.33346 7.17775, 4.78936 7.26624, 5.17216 7.44321, 5.55544 7.62018, 5.92382 7.89574, 6.27777 8.26989, 6.64807 8.68059, 6.90968 9.09369, 7.06261 9.50919, 7.21554 9.9247, 7.292 10.4018, 7.292 10.9399 Z M 5.60402 10.9399 C 5.60402 10.4479, 5.58815 10.0055, 5.55641 9.61307, 5.52467 9.22065, 5.41935 8.87584, 5.23949 8.57767, 5.05482 8.27566, 4.84851 8.05252, 4.62152 7.90873, 4.39453 7.76542, 4.11705 7.69328, 3.78907 7.6928, 3.43512 7.69328, 3.13263 7.78321, 2.88159 7.96259, 2.63056 8.14245, 2.418 8.37809, 2.24391 8.67049, 2.06982 8.96288, 1.94527 9.30384, 1.87121 9.69338, 1.81831 9.96076, 1.79186 10.2455, 1.79186 10.5475, 1.79186 10.6658, 1.79715 10.7918, 1.80773 10.9245 L 1.80773 10.9861 C 1.82889 11.3713, 1.85822 11.7305, 1.89525 12.0638, 1.93228 12.3975, 1.99047 12.6692, 2.06934 12.8789, 2.21746 13.2487, 2.43531 13.5488, 2.72338 13.7797, 3.01144 14.0105, 3.32692 14.1259, 3.67028 14.1254, 4.02423 14.1259, 4.32288 14.0581, 4.56573 13.922, 4.80907 13.7864, 5.02308 13.5666, 5.20775 13.2636, 5.39819 12.9616, 5.51168 12.6192, 5.54871 12.2369, 5.58574 11.8551, 5.60402 11.4227, 5.60402 10.9399 Z" stroke="none" fill="#000000" />
			<rect />
		</svg>
	</g>
	<g transform="matrix(1 0 -0 1 162.352 151.6)">
		<svg width="27.1116219" height="39.1914787">
			<defs />
			<path d="M 7.52264 3.96095 C 7.52264 3.99221, 7.50966 4.03597, 7.48273 4.09176 L 5.10512 7.34655 C 4.79878 7.77263, 4.55977 8.24344, 4.38808 8.75897, 4.2164 9.27451, 4.09377 9.81601, 4.01971 10.3825, 3.94565 10.9495, 3.89948 11.528, 3.88072 12.1176, 3.86245 12.7077, 3.85283 13.3026, 3.85283 13.9023, 3.85283 14.1798, 3.76194 14.3899, 3.57968 14.5332, 3.39741 14.677, 3.19783 14.7487, 2.98143 14.7487, 2.76502 14.7487, 2.56784 14.677, 2.39087 14.5332, 2.2139 14.3899, 2.12541 14.1798, 2.12541 13.9023, 2.12541 12.651, 2.34374 11.4473, 2.77944 10.2902, 3.21515 9.1336, 3.80282 8.04723, 4.54245 7.03107 L 6.04818 4.99202, 3.19543 4.99202 C 2.83619 4.9925, 2.50196 4.99539, 2.19274 5.0002, 1.88399 5.00549, 1.62094 5.01462, 1.40405 5.02713, 1.18764 5.04011, 1.07655 5.04877, 1.07126 5.05358, 1.01836 5.10022, 0.972191 5.17717, 0.932757 5.28489, 0.893322 5.39262, 0.856292 5.51861, 0.821667 5.66193, 0.787522 5.80572, 0.757225 5.95432, 0.730775 6.10821, 0.704325 6.2621, 0.677875 6.42609, 0.651425 6.60018 L 0.0647173 6.60018, 0.635555 3.01453, 1.21409 3.01453, 1.21409 3.16842 C 1.21409 3.22516, 1.24583 3.27903, 1.30883 3.33, 1.41992 3.40214, 1.5363 3.44831, 1.65749 3.4685, 1.80031 3.48966, 1.97488 3.5089, 2.18071 3.52669, 2.38702 3.54497, 2.60776 3.55651, 2.84292 3.56132, 3.07809 3.56661, 3.31421 3.56901, 3.55178 3.56853 L 7.52264 3.56853, 7.52264 3.96095 Z" stroke="none" fill="#000000" />
			<rect />
		</svg>
	</g>
	<g transform="matrix(1 0 -0 1 68.4382 143.842)">
		<svg width="27.1116219" height="39.1914787">
			<defs />
			<path d="M 7.292 11.5247 C 7.292 11.9868, 7.19438 12.4115, 6.99913 12.7986, 6.80388 13.1862, 6.53938 13.5257, 6.20659 13.8181, 5.87381 14.1105, 5.49052 14.3361, 5.05722 14.4948, 4.62441 14.6539, 4.16177 14.7333, 3.67028 14.7333, 3.20573 14.7333, 2.75896 14.6669, 2.33095 14.5332, 1.90295 14.4, 1.52255 14.2081, 1.18976 13.9566, 0.856971 13.7056, 0.587663 13.3978, 0.381353 13.0333, 0.175524 12.6692, 0.0721291 12.2638, 0.0721291 11.8171, 0.0721291 11.4381, 0.138494 11.0933, 0.270263 10.7826, 0.402513 10.4725, 0.584777 10.1892, 0.817056 9.93239, 1.04982 9.67607, 1.31768 9.44283, 1.62162 9.23219, 1.92555 9.02203, 2.20448 8.85756, 2.45791 8.73926 L 1.89477 8.38531 C 1.48311 8.12947, 1.15129 7.7962, 0.900253 7.3855, 0.649219 6.97529, 0.523702 6.52612, 0.523702 6.03848, 0.523702 5.62874, 0.611227 5.25027, 0.785316 4.90401, 0.959886 4.55776, 1.1912 4.25767, 1.47879 4.00375, 1.76685 3.74984, 2.10252 3.54978, 2.48533 3.40358, 2.86861 3.25738, 3.26344 3.18429, 3.67028 3.18381, 4.07184 3.18429, 4.46042 3.24344, 4.83552 3.36126, 5.21063 3.47956, 5.54871 3.64884, 5.84976 3.8691, 6.15081 4.08984, 6.38886 4.3577, 6.56295 4.67318, 6.73752 4.98865, 6.82456 5.33876, 6.82456 5.723, 6.82456 6.03655, 6.76541 6.32366, 6.64614 6.58527, 6.52736 6.84688, 6.37395 7.0883, 6.1864 7.30856, 5.99884 7.52929, 5.7757 7.7255, 5.51697 7.89719, 5.25824 8.06935, 5.03077 8.20353, 4.83552 8.30067 L 5.73867 8.87776 C 6.20419 9.16534, 6.5793 9.53997, 6.86448 10.0016, 7.14965 10.4633, 7.292 10.9712, 7.292 11.5247 Z M 5.89737 5.723 C 5.89737 5.45177, 5.83822 5.194, 5.71895 4.95018, 5.60017 4.70684, 5.43906 4.49765, 5.23564 4.32308, 5.03222 4.14899, 4.79705 4.01049, 4.53015 3.90757, 4.26372 3.80514, 3.9771 3.75368, 3.67028 3.7532, 3.37982 3.75368, 3.10137 3.7936, 2.83447 3.87295, 2.56756 3.95278, 2.3324 4.06675, 2.12897 4.21535, 1.92555 4.36444, 1.76444 4.54141, 1.64566 4.74628, 1.52688 4.95162, 1.46724 5.17188, 1.46724 5.40753, 1.46724 5.67491, 1.5389 5.91873, 1.68125 6.13899, 1.8236 6.35972, 2.01404 6.54151, 2.2516 6.68482 L 4.28825 7.96211 C 4.73742 7.72166, 5.1183 7.41243, 5.42993 7.0354, 5.74156 6.65837, 5.89737 6.22122, 5.89737 5.723 Z M 6.26959 12.1018 C 6.26959 11.7844, 6.18255 11.4857, 6.00846 11.2058, 5.83437 10.9264, 5.59921 10.6994, 5.30297 10.5244 L 2.99653 9.09321 C 2.4632 9.3553, 2.01019 9.72464, 1.63749 10.2017, 1.26526 10.6788, 1.07867 11.2174, 1.07867 11.8171, 1.07867 12.1306, 1.14888 12.4307, 1.28883 12.7178, 1.42925 13.0054, 1.61681 13.2526, 1.85149 13.4603, 2.08665 13.6681, 2.36269 13.8311, 2.67961 13.9489, 2.99701 14.0672, 3.32692 14.1259, 3.67028 14.1254, 4.01942 14.1259, 4.35221 14.0749, 4.66913 13.972, 4.98605 13.8696, 5.26449 13.7287, 5.50495 13.5488, 5.7454 13.3694, 5.93296 13.1578, 6.06761 12.914, 6.20227 12.6707, 6.26959 12.3999, 6.26959 12.1018 Z" stroke="none" fill="#000000" />
			<rect />
		</svg>
	</g>
	<g transform="matrix(1 0 -0 1 122.509 123.547)">
		<svg width="27.1116219" height="39.1914787">
			<defs />
			<path d="M 7.292 8.9547 C 7.292 9.67318, 7.19294 10.3777, 6.9948 11.0673, 6.79667 11.7574, 6.47879 12.4076, 6.0402 13.0174, 5.68625 13.5051, 5.24478 13.9133, 4.71626 14.2413, 4.18822 14.5693, 3.60151 14.7333, 2.9571 14.7333, 2.6296 14.7333, 2.31508 14.6977, 2.01404 14.6256, 1.71299 14.5539, 1.44849 14.4399, 1.2215 14.2836, 0.994511 14.1274, 0.816094 13.9311, 0.68673 13.695, 0.557366 13.4594, 0.492443 13.1771, 0.492443 12.8481, 0.492443 12.5716, 0.582373 12.36, 0.761751 12.2138, 0.941611 12.0676, 1.13446 11.9945, 1.34028 11.994, 1.56775 11.9945, 1.76973 12.0667, 1.94671 12.21, 2.12368 12.3538, 2.21217 12.5663, 2.21217 12.8481, 2.21217 13.1564, 2.10156 13.3795, 1.87938 13.5176, 1.71587 13.6205, 1.54659 13.6743, 1.37202 13.6791, 1.31431 13.6796, 1.3249 13.6873, 1.40376 13.7022, 1.47782 13.8051, 1.65865 13.9018, 1.94671 13.9913, 2.23477 14.0812, 2.57141 14.1259, 2.9571 14.1254, 3.3904 14.1259, 3.78378 13.9889, 4.13773 13.7143, 4.49167 13.4401, 4.77974 13.0948, 5.00192 12.6789, 5.29816 12.1306, 5.46984 11.5511, 5.51697 10.9404, 5.56458 10.3301, 5.59103 9.83477, 5.59632 9.45485, 5.5011 9.68617, 5.27556 9.96221, 4.91872 10.2825, 4.56189 10.6033, 4.10887 10.7634, 3.55919 10.7629, 3.03116 10.7634, 2.57141 10.674, 2.18043 10.4941, 1.78945 10.3147, 1.42204 10.0348, 1.07867 9.65491, 0.703562 9.24517, 0.442428 8.83111, 0.294309 8.41272, 0.146189 7.99481, 0.0721291 7.51871, 0.0721291 6.9849, 0.0721291 6.44148, 0.151479 5.96105, 0.310179 5.54266, 0.468878 5.12475, 0.748767 4.71021, 1.14984 4.29951, 1.52495 3.91527, 1.91737 3.63345, 2.32711 3.4536, 2.73684 3.27422, 3.224 3.18429, 3.78907 3.18381, 4.34404 3.18429, 4.84899 3.32808, 5.30297 3.61518, 5.75743 3.90276, 6.12484 4.2822, 6.40473 4.75349, 6.79042 5.39502, 7.03472 6.07887, 7.13763 6.80456, 7.24055 7.53074, 7.292 8.24729, 7.292 8.9547 Z M 5.57228 6.90796 C 5.55112 6.53381, 5.52226 6.1789, 5.48523 5.84275, 5.44868 5.50707, 5.38232 5.23103, 5.2871 5.0151, 5.15533 4.65635, 4.95575 4.35674, 4.68885 4.11532, 4.42194 3.87439, 4.12186 3.75368, 3.78907 3.7532, 3.41396 3.75368, 3.09993 3.82293, 2.84601 3.96143, 2.59257 4.09994, 2.36558 4.32548, 2.16456 4.63807, 1.95873 4.94104, 1.83562 5.28778, 1.79618 5.67731, 1.75675 6.06733, 1.73655 6.50303, 1.73655 6.9849, 1.73655 7.47784, 1.75675 7.92027, 1.79618 8.31269, 1.83562 8.70511, 1.94527 9.04752, 2.12465 9.33943, 2.3045 9.65298, 2.50697 9.88238, 2.73155 10.0286, 2.95614 10.1748, 3.23747 10.2479, 3.57506 10.2474, 3.91843 10.2479, 4.21852 10.157, 4.47484 9.97471, 4.73117 9.79293, 4.94661 9.5568, 5.1207 9.26681, 5.29527 8.97731, 5.41935 8.63201, 5.49293 8.23142, 5.54583 7.965, 5.57228 7.6803, 5.57228 7.37733, 5.57228 7.25998, 5.56699 7.13399, 5.55641 7.00029, 5.55641 6.94932, 5.5617 6.91854, 5.57228 6.90796 Z" stroke="none" fill="#000000" />
			<rect />
		</svg>
	</g>
</svg>
