<?xml version="1.0"?>
<svg xmlns="http://www.w3.org/2000/svg" xmlns:xlink="http://www.w3.org/1999/xlink" width="212.013641" height="189.699783">
	<defs />
	<path d="M -97.208 -124.935 L 97.2085 124.936" fill="none" stroke="#000000" stroke-width="5.33333349" stroke-linecap="round" stroke-linejoin="round" transform="matrix(0.25 0 0 0.25 91.5127 60.4289)" />
	<path d="M 75.6909 -142.154 L -75.6909 142.153" fill="none" stroke="#000000" stroke-width="5.33333349" stroke-linecap="round" stroke-linejoin="round" transform="matrix(0.25 0 0 0.25 48.2879 64.7336)" />
	<path d="M -158.302 -7.70182 L 158.302 -7.70182, 158.302 7.70182, -158.302 7.70182 Z" stroke="none" fill="#FFFFFF" transform="matrix(0.15352 0.197311 -0.197311 0.15352 91.5134 60.4299)" />
	<path d="M -158.302 -7.70182 L 158.302 -7.70182, 158.302 7.70182, -158.302 7.70182 Z" fill="none" stroke="#000000" stroke-width="4.80000019" stroke-linecap="round" stroke-linejoin="round" transform="matrix(0.15352 0.197311 -0.197311 0.15352 91.5134 60.4299)" />
	<g transform="matrix(1 0 -0 1 84.0048 29.0448)">
		<svg width="38.880394" height="33.1595688">
			<defs />
			<path d="M 7.25141 12.0496 C 7.18712 12.3068, 7.1145 12.5816, 7.03353 12.8745, 6.95256 13.168, 6.8446 13.4399, 6.70965 13.6911, 6.57519 13.9424, 6.4054 14.1597, 6.20028 14.3428, 5.99565 14.5258, 5.73949 14.6171, 5.43181 14.6171, 5.02255 14.6171, 4.69474 14.5037, 4.44938 14.276, 4.20402 14.0483, 4.06269 13.8167, 4.02491 13.5807, 3.84138 13.7907, 3.56804 14.016, 3.20393 14.2564, 2.8403 14.4969, 2.45607 14.6171, 2.05171 14.6171, 1.62576 14.6171, 1.26852 14.5101, 0.979973 14.2957, 0.691429 14.0812, 0.466678 13.8113, 0.304739 13.4865, 0.110904 13.0998, 0.00834268 12.6836, -0.00245327 12.2381 L -0.00245327 12.1203 C -0.00245327 11.7071, 0.0544706 11.2939, 0.167337 10.8798, 0.296888 10.4249, 0.477473 9.97486, 0.709095 9.52977, 0.941206 9.08518, 1.2484 8.6715, 1.63116 8.28873, 1.94424 7.97516, 2.30149 7.71115, 2.7029 7.49622, 3.10431 7.28177, 3.51259 7.1743, 3.92774 7.17381, 4.28892 7.1743, 4.58286 7.26999, 4.80908 7.46089, 5.0358 7.65227, 5.1786 7.81028, 5.23797 7.93541 L 5.20559 8.06889 C 5.24337 7.87555, 5.33366 7.72931, 5.47646 7.62969, 5.61976 7.53057, 5.76403 7.48052, 5.90928 7.48002, 6.07613 7.48052, 6.21647 7.53008, 6.32983 7.6292, 6.4 7.70821, 6.43779 7.81273, 6.4427 7.94327, 6.4427 7.99087, 6.4373 8.04337, 6.4265 8.1003 L 5.26202 12.6385 C 5.20804 12.8534, 5.17025 13.0551, 5.14866 13.2431, 5.13836 13.3378, 5.13296 13.4241, 5.13296 13.5022, 5.13296 13.5709, 5.13836 13.644, 5.14866 13.722, 5.16535 13.8481, 5.20313 13.9424, 5.26202 14.0052, 5.3214 14.068, 5.40482 14.0994, 5.51278 14.0989, 5.62614 14.0994, 5.73262 14.0523, 5.83224 13.9581, 5.93235 13.8638, 6.02411 13.724, 6.10753 13.538, 6.19096 13.3525, 6.27045 13.1297, 6.34603 12.8706, 6.4216 12.6115, 6.49962 12.3303, 6.5801 12.0261, 6.61249 11.8906, 6.70425 11.8224, 6.8554 11.8219 L 7.04138 11.8219 C 7.18173 11.8224, 7.25141 11.8798, 7.25141 11.9947 L 7.25141 12.0496 Z M 4.93863 9.16026 C 4.91704 9.06653, 4.89839 8.96839, 4.8822 8.86632, 4.86601 8.76425, 4.84147 8.66365, 4.80908 8.56354, 4.72321 8.31818, 4.60052 8.11257, 4.44153 7.94768, 4.28254 7.7828, 4.08134 7.70036, 3.83892 7.69987, 3.6127 7.70036, 3.38893 7.78182, 3.16761 7.94376, 2.94679 8.10619, 2.74461 8.31523, 2.56108 8.57139, 2.30247 8.93305, 2.10864 9.30895, 1.97908 9.69858, 1.84953 10.0887, 1.73078 10.4955, 1.62282 10.919, 1.51535 11.3381, 1.42653 11.7439, 1.35587 12.136, 1.31317 12.3352, 1.29158 12.5237, 1.29158 12.7013, 1.29158 12.8902, 1.31317 13.0733, 1.35587 13.2509, 1.40494 13.4973, 1.49229 13.7004, 1.61889 13.8599, 1.7455 14.0199, 1.92216 14.0994, 2.14838 14.0989, 2.39669 14.0994, 2.64598 14.013, 2.89674 13.8403, 3.1475 13.6675, 3.38059 13.4556, 3.59602 13.2038, 3.68238 13.0998, 3.76482 12.9992, 3.84285 12.902, 3.92136 12.8053, 3.99007 12.7018, 4.04895 12.5914 L 4.93863 9.16026 Z" stroke="none" fill="#000000" />
			<path d="M 2.03755 2.7404 C 1.48217 2.72281, 0.941631 2.71402, 0.416204 2.71402, -0.108947 2.71402, -0.649488 2.72281, -1.20514 2.7404 L -1.20514 2.36227, -0.892416 2.36227 C -0.792936 2.36254, -0.699228 2.36117, -0.61184 2.35814, -0.524177 2.3554, -0.441186 2.34798, -0.362592 2.33616, -0.283998 2.32462, -0.216121 2.3128, -0.158962 2.30071, -0.110596 2.29219, -0.0704747 2.26526, -0.0388722 2.21964, -0.00699496 2.1743, 0.0086689 2.12374, 0.0086689 2.06768 L 0.0086689 -2.8876 C -0.142199 -2.81396, -0.327967 -2.75817, -0.54836 -2.72025, -0.768753 -2.68205, -1.01031 -2.66309, -1.27302 -2.66336 L -1.27302 -3.0371 C -0.910553 -3.03682, -0.576115 -3.07997, -0.269708 -3.16653, 0.0366991 -3.25282, 0.301611 -3.41495, 0.525027 -3.65266 L 0.665452 -3.65266 C 0.764931 -3.65238, 0.814671 -3.60402, 0.814671 -3.50756 L 0.814671 2.06768 C 0.814671 2.12648, 0.829785 2.17787, 0.860014 2.22184, 0.890242 2.26581, 0.934211 2.29219, 0.99137 2.30071, 1.03974 2.3128, 1.10184 2.32462, 1.17714 2.33616, 1.25271 2.34798, 1.3379 2.3554, 1.43298 2.35814, 1.52806 2.36117, 1.62095 2.36254, 1.71136 2.36227 L 2.03755 2.36227, 2.03755 2.7404 Z" stroke="none" fill="#000000" transform="matrix(1.12 0 0 1 9.36502 13.9768)" />
			<rect />
		</svg>
	</g>
	<g transform="matrix(1 0 -0 1 129.846 34.7961)">
		<svg width="36.0099602" height="45.2233963">
			<defs />
			<path d="M 5.68919 10.9269 C 5.55964 11.3827, 5.37808 11.8332, 5.14351 12.2778, 4.90894 12.7229, 4.60322 13.1336, 4.22537 13.51, 3.91278 13.8246, 3.55848 14.0876, 3.16197 14.2996, 2.76596 14.5116, 2.35473 14.6171, 1.92879 14.6171, 1.51903 14.6171, 1.17651 14.5077, 0.901704 14.2878, 0.626899 14.068, 0.416379 13.7956, 0.270634 13.4708, 0.0983905 13.0841, 0.00662541 12.6679, -0.00417048 12.2224 L -0.00417048 12.1203 C -0.00417048 11.7071, 0.049809 11.2964, 0.157768 10.8876 L 1.78304 4.56709 C 1.82622 4.39485, 1.85321 4.26383, 1.86401 4.17452 L 1.86401 4.15096 C 1.86401 4.10434, 1.85321 4.07048, 1.83162 4.04889, 1.76685 4.00767, 1.64564 3.97872, 1.46751 3.96301, 1.28986 3.94731, 1.08474 3.93946, 0.853122 3.93897, 0.772643 3.93946, 0.713266 3.91345, 0.67499 3.86045, 0.642602 3.82954, 0.626408 3.79028, 0.626408 3.74268, 0.626408 3.71176, 0.63475 3.68281, 0.650944 3.65631 L 0.67499 3.53069 C 0.718173 3.40555, 0.815336 3.32704, 0.966479 3.29514 L 3.10946 3.12241, 3.14185 3.12241 C 3.20663 3.1229, 3.26012 3.144, 3.3033 3.18522, 3.32489 3.22742, 3.33569 3.26962, 3.33569 3.31084, 3.33569 3.34274, 3.32784 3.37169, 3.31164 3.39721 L 2.14716 7.91971 C 2.26591 7.79998, 2.48428 7.6454, 2.80227 7.45696, 3.12026 7.26852, 3.45444 7.1743, 3.80482 7.17381, 4.23077 7.1743, 4.59096 7.28423, 4.88441 7.50407, 5.17835 7.72391, 5.40359 7.99332, 5.55964 8.31229, 5.74317 8.69996, 5.83985 9.11904, 5.85064 9.56854 L 5.85064 9.67846 C 5.85064 10.0818, 5.79715 10.498, 5.68919 10.9269 Z M 4.51637 8.53998 C 4.46828 8.28923, 4.37651 8.08656, 4.24156 7.93198, 4.1071 7.77789, 3.93192 7.70036, 3.716 7.69987, 3.45739 7.70036, 3.20417 7.78427, 2.95587 7.95161, 2.70805 8.11944, 2.47594 8.33094, 2.26002 8.58709, 2.09318 8.80203, 1.94743 9.00372, 1.82328 9.19166 L 1.37869 10.919 C 1.27073 11.3381, 1.19025 11.7415, 1.13627 12.1281, 1.11468 12.2911, 1.10388 12.4452, 1.10388 12.5914, 1.10388 12.822, 1.13087 13.0419, 1.18485 13.2509, 1.24423 13.4924, 1.34237 13.694, 1.47977 13.856, 1.61718 14.0184, 1.79923 14.0994, 2.02546 14.0989, 2.25217 14.0994, 2.47741 14.016, 2.70118 13.8481, 2.92495 13.6808, 3.12566 13.4713, 3.3033 13.2195, 3.5624 12.8691, 3.75771 12.4967, 3.88971 12.1012, 4.02221 11.7061, 4.14194 11.3018, 4.24941 10.8876, 4.35737 10.4587, 4.45208 10.0455, 4.53256 9.64706, 4.56495 9.45911, 4.58114 9.27607, 4.58114 9.09745, 4.58114 8.9095, 4.55955 8.72352, 4.51637 8.53998 Z" stroke="none" fill="#000000" />
			<path d="M 2.03755 2.7404 C 1.48217 2.72281, 0.941631 2.71402, 0.416204 2.71402, -0.108947 2.71402, -0.649488 2.72281, -1.20514 2.7404 L -1.20514 2.36227, -0.892416 2.36227 C -0.792936 2.36254, -0.699228 2.36117, -0.61184 2.35814, -0.524177 2.3554, -0.441186 2.34798, -0.362592 2.33616, -0.283998 2.32462, -0.216121 2.3128, -0.158962 2.30071, -0.110596 2.29219, -0.0704747 2.26526, -0.0388722 2.21964, -0.00699496 2.1743, 0.0086689 2.12374, 0.0086689 2.06768 L 0.0086689 -2.8876 C -0.142199 -2.81396, -0.327967 -2.75817, -0.54836 -2.72025, -0.768753 -2.68205, -1.01031 -2.66309, -1.27302 -2.66336 L -1.27302 -3.0371 C -0.910553 -3.03682, -0.576115 -3.07997, -0.269708 -3.16653, 0.0366991 -3.25282, 0.301611 -3.41495, 0.525027 -3.65266 L 0.665452 -3.65266 C 0.764931 -3.65238, 0.814671 -3.60402, 0.814671 -3.50756 L 0.814671 2.06768 C 0.814671 2.12648, 0.829785 2.17787, 0.860014 2.22184, 0.890242 2.26581, 0.934211 2.29219, 0.99137 2.30071, 1.03974 2.3128, 1.10184 2.32462, 1.17714 2.33616, 1.25271 2.34798, 1.3379 2.3554, 1.43298 2.35814, 1.52806 2.36117, 1.62095 2.36254, 1.71136 2.36227 L 2.03755 2.36227, 2.03755 2.7404 Z" stroke="none" fill="#000000" transform="matrix(1.12 0 0 1 7.96597 13.9768)" />
			<rect />
		</svg>
	</g>
	<g transform="matrix(1 0 -0 1 108.874 63.3232)">
		<svg width="36.0099602" height="33.1595688">
			<defs />
			<path d="M 6.06116 12.5207 C 6.09895 12.558, 6.1176 12.5973, 6.1176 12.6385, 6.1176 12.6861, 6.09649 12.7386, 6.05331 12.7955, 5.62736 13.3873, 5.08413 13.8393, 4.42362 14.1504, 3.76311 14.4615, 3.10161 14.6171, 2.43816 14.6171, 1.96903 14.6171, 1.56222 14.514, 1.21724 14.3074, 0.872261 14.1009, 0.59991 13.83, 0.400186 13.4943, 0.173963 13.1179, 0.0444121 12.7072, 0.0120244 12.2616, 0.00122845 12.1522, -0.00416946 12.0423, -0.00416946 11.9319, -0.00416946 11.5972, 0.0390141 11.2493, 0.125381 10.8876, 0.254932 10.4067, 0.452693 9.94345, 0.719646 9.49837, 0.9866 9.05377, 1.32225 8.645, 1.72661 8.27303, 2.09858 7.94915, 2.5098 7.68466, 2.95979 7.48052, 3.41028 7.27637, 3.86174 7.1743, 4.31419 7.17381, 4.58948 7.1743, 4.84711 7.21651, 5.08708 7.29993, 5.32704 7.38384, 5.53167 7.50554, 5.70146 7.66503, 5.87125 7.825, 5.99393 8.01197, 6.0695 8.22592, 6.0911 8.34173, 6.1014 8.45656, 6.1014 8.57139, 6.1014 8.69751, 6.0857 8.83098, 6.05331 8.97182, 5.99393 9.20786, 5.87272 9.38746, 5.68919 9.51014, 5.50616 9.63332, 5.32262 9.69466, 5.13909 9.69416, 4.94526 9.69466, 4.78921 9.62644, 4.67045 9.49002, 4.57869 9.40169, 4.53256 9.28637, 4.53256 9.14456, 4.53256 9.08763, 4.54336 9.01697, 4.56495 8.93256, 4.62482 8.7029, 4.7421 8.53164, 4.91729 8.41878, 5.09248 8.3064, 5.22841 8.24751, 5.32508 8.24163, 5.27159 8.11109, 5.14351 7.98841, 4.94133 7.87309, 4.73916 7.75826, 4.49821 7.70036, 4.21752 7.69987, 3.94811 7.70036, 3.67183 7.7828, 3.38869 7.94768, 3.10554 8.11257, 2.85625 8.32603, 2.64033 8.58709, 2.34934 8.92766, 2.12704 9.2957, 1.97344 9.69073, 1.81985 10.0863, 1.68882 10.4955, 1.58086 10.919, 1.4734 11.3381, 1.38997 11.7439, 1.33011 12.136, 1.30851 12.2621, 1.29772 12.3799, 1.29772 12.4893, 1.29772 12.7465, 1.3409 12.9923, 1.42727 13.2274, 1.50824 13.4894, 1.64417 13.7004, 1.83555 13.8599, 2.02693 14.0199, 2.25757 14.0994, 2.52698 14.0989, 3.09867 14.0994, 3.65662 13.9531, 4.20132 13.6597, 4.74603 13.3667, 5.19602 12.9688, 5.55179 12.4658, 5.58418 12.4088, 5.6465 12.3642, 5.73778 12.3323 L 5.80255 12.3323 C 5.85653 12.3328, 5.90266 12.3509, 5.93995 12.3873 L 6.06116 12.5207 Z" stroke="none" fill="#000000" />
			<path d="M 2.03755 2.7404 C 1.48217 2.72281, 0.941631 2.71402, 0.416204 2.71402, -0.108947 2.71402, -0.649488 2.72281, -1.20514 2.7404 L -1.20514 2.36227, -0.892416 2.36227 C -0.792936 2.36254, -0.699228 2.36117, -0.61184 2.35814, -0.524177 2.3554, -0.441186 2.34798, -0.362592 2.33616, -0.283998 2.32462, -0.216121 2.3128, -0.158962 2.30071, -0.110596 2.29219, -0.0704747 2.26526, -0.0388722 2.21964, -0.00699496 2.1743, 0.0086689 2.12374, 0.0086689 2.06768 L 0.0086689 -2.8876 C -0.142199 -2.81396, -0.327967 -2.75817, -0.54836 -2.72025, -0.768753 -2.68205, -1.01031 -2.66309, -1.27302 -2.66336 L -1.27302 -3.0371 C -0.910553 -3.03682, -0.576115 -3.07997, -0.269708 -3.16653, 0.0366991 -3.25282, 0.301611 -3.41495, 0.525027 -3.65266 L 0.665452 -3.65266 C 0.764931 -3.65238, 0.814671 -3.60402, 0.814671 -3.50756 L 0.814671 2.06768 C 0.814671 2.12648, 0.829785 2.17787, 0.860014 2.22184, 0.890242 2.26581, 0.934211 2.29219, 0.99137 2.30071, 1.03974 2.3128, 1.10184 2.32462, 1.17714 2.33616, 1.25271 2.34798, 1.3379 2.3554, 1.43298 2.35814, 1.52806 2.36117, 1.62095 2.36254, 1.71136 2.36227 L 2.03755 2.36227, 2.03755 2.7404 Z" stroke="none" fill="#000000" transform="matrix(1.12 0 0 1 8.23292 13.9768)" />
			<rect />
		</svg>
	</g>
	<g transform="matrix(1 0 -0 1 127.256 73.665)">
		<svg width="38.880394" height="33.1595688">
			<defs />
			<path d="M 6.06116 12.5207 C 6.09895 12.558, 6.1176 12.5973, 6.1176 12.6385, 6.1176 12.6861, 6.09649 12.7386, 6.05331 12.7955, 5.62736 13.3873, 5.08413 13.8393, 4.42362 14.1504, 3.76311 14.4615, 3.10161 14.6171, 2.43816 14.6171, 1.96903 14.6171, 1.56222 14.514, 1.21724 14.3074, 0.872261 14.1009, 0.59991 13.83, 0.400186 13.4943, 0.173963 13.1179, 0.0444121 12.7072, 0.0120244 12.2616, 0.00122845 12.1522, -0.00416946 12.0423, -0.00416946 11.9319, -0.00416946 11.5972, 0.0390141 11.2493, 0.125381 10.8876, 0.254932 10.4067, 0.452693 9.94345, 0.719646 9.49837, 0.9866 9.05377, 1.32225 8.645, 1.72661 8.27303, 2.09858 7.94915, 2.5098 7.68466, 2.95979 7.48052, 3.41028 7.27637, 3.86174 7.1743, 4.31419 7.17381, 4.58948 7.1743, 4.84711 7.21651, 5.08708 7.29993, 5.32704 7.38384, 5.53167 7.50554, 5.70146 7.66503, 5.87125 7.825, 5.99393 8.01197, 6.0695 8.22592, 6.0911 8.34173, 6.1014 8.45656, 6.1014 8.57139, 6.1014 8.69751, 6.0857 8.83098, 6.05331 8.97182, 5.99393 9.20786, 5.87272 9.38746, 5.68919 9.51014, 5.50616 9.63332, 5.32262 9.69466, 5.13909 9.69416, 4.94526 9.69466, 4.78921 9.62644, 4.67045 9.49002, 4.57869 9.40169, 4.53256 9.28637, 4.53256 9.14456, 4.53256 9.08763, 4.54336 9.01697, 4.56495 8.93256, 4.62482 8.7029, 4.7421 8.53164, 4.91729 8.41878, 5.09248 8.3064, 5.22841 8.24751, 5.32508 8.24163, 5.27159 8.11109, 5.14351 7.98841, 4.94133 7.87309, 4.73916 7.75826, 4.49821 7.70036, 4.21752 7.69987, 3.94811 7.70036, 3.67183 7.7828, 3.38869 7.94768, 3.10554 8.11257, 2.85625 8.32603, 2.64033 8.58709, 2.34934 8.92766, 2.12704 9.2957, 1.97344 9.69073, 1.81985 10.0863, 1.68882 10.4955, 1.58086 10.919, 1.4734 11.3381, 1.38997 11.7439, 1.33011 12.136, 1.30851 12.2621, 1.29772 12.3799, 1.29772 12.4893, 1.29772 12.7465, 1.3409 12.9923, 1.42727 13.2274, 1.50824 13.4894, 1.64417 13.7004, 1.83555 13.8599, 2.02693 14.0199, 2.25757 14.0994, 2.52698 14.0989, 3.09867 14.0994, 3.65662 13.9531, 4.20132 13.6597, 4.74603 13.3667, 5.19602 12.9688, 5.55179 12.4658, 5.58418 12.4088, 5.6465 12.3642, 5.73778 12.3323 L 5.80255 12.3323 C 5.85653 12.3328, 5.90266 12.3509, 5.93995 12.3873 L 6.06116 12.5207 Z" stroke="none" fill="#000000" />
			<path d="M 2.04965 2.7404 L -1.63658 2.7404, -1.63658 2.49857 C -1.63658 2.48126, -1.62751 2.45487, -1.60937 2.41943 L -0.128447 0.810169 C 0.0466034 0.616981, 0.223852 0.419122, 0.403575 0.216866, 0.583297 0.0146096, 0.744333 -0.192044, 0.886132 -0.403094, 1.02793 -0.614144, 1.14115 -0.831789, 1.22579 -1.05603, 1.31043 -1.28027, 1.35248 -1.5155, 1.35248 -1.762, 1.35248 -1.96976, 1.32527 -2.16404, 1.27086 -2.34431, 1.21645 -2.52459, 1.13813 -2.68287, 1.03535 -2.81918, 0.932848 -2.95548, 0.804515 -3.0654, 0.650624 -3.14894, 0.496733 -3.23248, 0.318385 -3.27425, 0.116129 -3.27453, -0.185606 -3.27425, -0.452167 -3.18412, -0.683278 -3.00385, -0.914114 -2.82357, -1.06745 -2.62489, -1.14303 -2.40834, -1.15787 -2.4023, -1.13368 -2.39928, -1.07048 -2.39955 L -0.993532 -2.39955 C -0.902847 -2.37866, -0.824527 -2.34706, -0.758025 -2.30474, -0.691522 -2.26215, -0.635737 -2.20361, -0.590394 -2.12887, -0.545051 -2.05412, -0.522517 -1.96398, -0.522517 -1.85873, -0.522517 -1.68258, -0.579676 -1.54766, -0.694545 -1.45395, -0.809413 -1.35996, -0.937747 -1.31325, -1.07955 -1.31352, -1.2153 -1.31325, -1.34226 -1.35996, -1.45988 -1.45395, -1.57749 -1.54766, -1.63658 -1.68258, -1.63658 -1.85873, -1.63658 -2.10468, -1.58821 -2.33772, -1.49148 -2.55756, -1.39475 -2.77741, -1.26367 -2.96785, -1.09768 -3.12916, -0.931701 -3.29019, -0.735491 -3.4177, -0.509052 -3.51168, -0.282613 -3.60539, -0.0424333 -3.65238, 0.211211 -3.65266, 0.525313 -3.65238, 0.813034 -3.60622, 1.0741 -3.51388, 1.33516 -3.42155, 1.55775 -3.28882, 1.74187 -3.11597, 1.92599 -2.94284, 2.07027 -2.74278, 2.17442 -2.51579, 2.27857 -2.28853, 2.33051 -2.03736, 2.33051 -1.762, 2.33051 -1.45697, 2.26125 -1.17612, 2.1222 -0.919726, 1.98343 -0.663059, 1.8114 -0.427826, 1.60612 -0.214028, 1.40084 4.48227e-005, 1.18265 0.201477, 0.951535 0.390542, 0.720699 0.579608, 0.511573 0.763452, 0.324431 0.942075 L -0.717353 1.92258, 0.645952 1.92258 C 0.836117 1.92285, 1.01364 1.92148, 1.17797 1.91846, 1.34258 1.91571, 1.48218 1.90966, 1.59705 1.90087, 1.71192 1.89208, 1.77073 1.8863, 1.77348 1.88301, 1.79766 1.86267, 1.82047 1.82173, 1.84163 1.76017, 1.86279 1.69861, 1.8823 1.62606, 1.90044 1.54252, 1.91857 1.45898, 1.93671 1.37407, 1.95485 1.2875, 1.97298 1.20122, 1.98947 1.10641, 2.00459 1.00363 L 2.33957 1.00363 Z" stroke="none" fill="#000000" transform="matrix(1.12 0 0 1 8.59511 13.9768)" />
			<rect />
		</svg>
	</g>
	<path d="M -173.421 -11.197 L 173.422 11.1974" fill="none" stroke="#000000" stroke-width="5.33333349" stroke-linecap="round" stroke-linejoin="round" transform="matrix(0.25 0 0 0.25 110.566 31.9944)" />
	<path d="M -58.7111 -139.645 L 58.7128 139.646" fill="none" stroke="#000000" stroke-width="5.33333349" stroke-linecap="round" stroke-linejoin="round" transform="matrix(0.25 0 0 0.25 168.599 69.705)" />
	<path d="M -152.921 -121.901 L 152.922 121.901" fill="none" stroke="#000000" stroke-width="5.33333349" stroke-linecap="round" stroke-linejoin="round" transform="matrix(0.25 0 0 0.25 67.5955 130.747)" />
	<path d="M -154.901 113.212 L 154.904 -113.212" fill="none" stroke="#000000" stroke-width="5.33333349" stroke-linecap="round" stroke-linejoin="round" transform="matrix(0.25 0 0 0.25 144.551 132.919)" />
	<path d="M -172.899 17.2184 L 172.899 -17.218" fill="none" stroke="#000000" stroke-width="5.33333349" stroke-linecap="round" stroke-linejoin="round" transform="matrix(0.25 0 0 0.25 72.59 95.9674)" />
	<path d="M -76.2134 113.739 L 76.2133 -113.738" fill="none" stroke="#000000" stroke-width="5.33333349" stroke-linecap="round" stroke-linejoin="round" transform="matrix(0.25 0 0 0.25 134.868 63.2283)" />
	<path d="M -134.924 -25.9038 L 134.926 25.9046" fill="none" stroke="#000000" stroke-width="5.33333349" stroke-linecap="round" stroke-linejoin="round" transform="matrix(0.25 0 0 0.25 149.546 98.1403)" />
	<path d="M 19.9795 -139.115 L -19.9805 139.115" fill="none" stroke="#000000" stroke-width="5.33333349" stroke-linecap="round" stroke-linejoin="round" transform="matrix(0.25 0 0 0.25 110.821 126.443)" />
	<g transform="matrix(1 0 -0 1 48.51 8.5)">
		<svg width="36.0099602" height="42.0638199">
			<defs />
			<path d="M 10.6271 14.201 C 10.5682 14.358, 10.4656 14.4365, 10.3199 14.4365, 9.78109 14.4051, 9.24424 14.3894, 8.71033 14.3894 L 8.44338 14.3894 C 7.8128 14.4002, 7.17927 14.4159, 6.5433 14.4365, 6.39804 14.4365, 6.31953 14.3688, 6.30873 14.2324 L 6.30873 14.1696, 6.34112 14.0361 C 6.3843 13.8638, 6.48932 13.7799, 6.65616 13.7848, 6.85589 13.7853, 7.03402 13.7789, 7.19007 13.7657, 7.34661 13.7529, 7.49775 13.7068, 7.64301 13.6278, 7.69699 13.6023, 7.74311 13.5655, 7.78041 13.5179, 7.802 13.4767, 7.81574 13.4345, 7.82065 13.3923 L 7.82065 13.3451, 7.62681 10.7384, 3.97142 10.7384, 2.68573 12.9369 C 2.61555 13.063, 2.58022 13.1783, 2.58022 13.2823, 2.58022 13.3716, 2.60721 13.4531, 2.66119 13.5257, 2.77995 13.699, 3.00126 13.7853, 3.32416 13.7848, 3.4699 13.7853, 3.54793 13.8481, 3.55872 13.9733, 3.55872 14.0052, 3.55333 14.039, 3.54253 14.0753 L 3.51063 14.201 C 3.45126 14.358, 3.34624 14.4365, 3.1951 14.4365, 2.69947 14.4159, 2.20875 14.4002, 1.72293 14.3894 L 1.50505 14.3894 C 1.0845 14.3894, 0.658553 14.4051, 0.227207 14.4365, 0.146238 14.4365, 0.0868607 14.4105, 0.0490751 14.358, 0.0166874 14.3271, 0.000493526 14.2903, 0.000493526 14.2481, 0.000493526 14.2172, 0.0058915 14.1857, 0.0166874 14.1539 L 0.0490751 14.0361 C 0.0922587 13.8638, 0.197764 13.7799, 0.36461 13.7848, 0.537344 13.7853, 0.707134 13.7672, 0.87398 13.7304, 1.04132 13.694, 1.19786 13.6283, 1.34311 13.5341, 1.48886 13.4399, 1.6238 13.326, 1.74747 13.1925, 1.87162 13.059, 1.98203 12.9084, 2.07919 12.7406 L 7.78826 2.96538 C 7.88542 2.81914, 8.00958 2.74848, 8.16072 2.75338 L 8.31432 2.75338 C 8.48705 2.75387, 8.58372 2.83484, 8.60531 2.99678 L 9.31686 13.2274 C 9.32766 13.3638, 9.34385 13.4673, 9.36544 13.538, 9.38704 13.6087, 9.42482 13.6597, 9.4788 13.6906, 9.55437 13.7382, 9.67951 13.7657, 9.85469 13.7735, 10.0304 13.7814, 10.2281 13.7853, 10.449 13.7848, 10.6001 13.7853, 10.6757 13.8481, 10.6757 13.9733, 10.6757 14.0052, 10.6703 14.039, 10.6595 14.0753 Z M 7.23865 5.17166 L 4.35958 10.1024, 7.57823 10.1024 Z" stroke="none" fill="#000000" />
			<rect />
		</svg>
	</g>
	<g transform="matrix(1 0 -0 1 156.154 12.0714)">
		<svg width="38.880394" height="39.1914787">
			<defs />
			<path d="M 11.1713 6.106 C 11.08 6.48337, 10.898 6.83669, 10.6256 7.16645, 10.3533 7.49622, 10.0392 7.77642, 9.68343 8.00608, 9.40323 8.19501, 9.11616 8.34419, 8.82221 8.45411, 8.52827 8.56403, 8.42424 8.61114, 8.5106 8.59495, 8.4949 8.59004, 8.63623 8.65727, 8.93557 8.79565, 9.23491 8.93453, 9.49745 9.12395, 9.72367 9.3644, 9.97738 9.62154, 10.1501 9.9302, 10.2414 10.2909, 10.2846 10.4695, 10.3091 10.6447, 10.314 10.8169, 10.314 11.0162, 10.2846 11.2233, 10.2252 11.4372, 10.1231 11.8406, 9.93419 12.2258, 9.65939 12.5919, 9.38458 12.9585, 9.05531 13.2774, 8.67254 13.5493, 8.26819 13.8427, 7.83832 14.064, 7.38293 14.2132, 6.92753 14.3624, 6.47313 14.4365, 6.0197 14.4365 L 0.229661 14.4365 C 0.148692 14.4365, 0.0893148 14.413, 0.0515291 14.3658, 0.0142342 14.3295, -0.00490396 14.2903, -0.00490396 14.2481, -0.00490396 14.2172, 0.000493987 14.1857, 0.0112899 14.1539 L 0.0436776 14.0361 C 0.0760653 13.8638, 0.18108 13.7799, 0.358721 13.7848, 0.612425 13.7853, 0.849935 13.7814, 1.07076 13.7735, 1.29159 13.7657, 1.45892 13.7382, 1.57179 13.6906, 1.66895 13.6386, 1.74452 13.4973, 1.7985 13.2666 L 4.07104 4.41791 C 4.10343 4.30309, 4.11913 4.21426, 4.11913 4.15096, 4.11913 4.08864, 4.10588 4.05184, 4.07889 4.04104, 4.00332 3.99442, 3.85659 3.96596, 3.63822 3.95516, 3.41985 3.94486, 3.18136 3.93946, 2.92226 3.93897, 2.84178 3.93946, 2.7824 3.91345, 2.74461 3.86045, 2.71223 3.82954, 2.69603 3.79028, 2.69603 3.74268, 2.69603 3.71176, 2.70438 3.68281, 2.72008 3.65631 L 2.74461 3.53854 C 2.76081 3.46591, 2.80007 3.40703, 2.8619 3.36237, 2.92373 3.3182, 2.98998 3.29563, 3.06015 3.29514 L 8.42178 3.29514 C 8.86392 3.29563, 9.28153 3.36139, 9.67509 3.49192, 10.0686 3.62294, 10.395 3.82954, 10.6536 4.1117, 10.9073 4.36884, 11.0854 4.6672, 11.1875 5.00678, 11.2307 5.18001, 11.2523 5.3552, 11.2523 5.53284, 11.2523 5.72176, 11.2253 5.91266, 11.1713 6.106 Z M 9.53769 6.07459 C 9.59167 5.86555, 9.61866 5.6565, 9.61866 5.44647 L 9.61866 5.25803 C 9.59706 5.00727, 9.52149 4.77418, 9.39194 4.55924, 9.27908 4.3659, 9.12941 4.21426, 8.94342 4.10434, 8.75744 3.99442, 8.54054 3.93946, 8.29223 3.93897 L 6.1571 3.93897 C 5.8715 3.93946, 5.70711 3.95762, 5.66392 3.99393, 5.59915 4.04693, 5.53732 4.19856, 5.47794 4.44932 L 4.47539 8.39081, 6.68315 8.39081 C 6.99035 8.3913, 7.29509 8.33143, 7.59688 8.21071, 7.89917 8.09048, 8.18722 7.9202, 8.46202 7.69987, 9.03372 7.23957, 9.39243 6.69781, 9.53769 6.07459 Z M 8.54299 11.3901 C 8.61856 11.1236, 8.65635 10.8591, 8.65635 10.5971 L 8.65635 10.4322 C 8.63476 10.1397, 8.55673 9.86984, 8.42178 9.6235, 8.30303 9.40954, 8.14256 9.23534, 7.94039 9.10186, 7.73821 8.96839, 7.50266 8.90165, 7.23276 8.90116 L 4.32965 8.90116, 3.2054 13.298 C 3.16222 13.4767, 3.14063 13.6047, 3.14063 13.6828, 3.14063 13.725, 3.14357 13.7485, 3.14897 13.7534, 3.15977 13.7696, 3.30011 13.7799, 3.56952 13.7848 L 5.7287 13.7848 C 6.0251 13.7853, 6.32444 13.7215, 6.62623 13.593, 6.92852 13.4649, 7.20626 13.2961, 7.45948 13.086, 7.74017 12.851, 7.97032 12.587, 8.15091 12.2935, 8.33149 12.0006, 8.46251 11.6993, 8.54299 11.3901 Z" stroke="none" fill="#000000" />
			<rect />
		</svg>
	</g>
	<g transform="matrix(1 0 -0 1 192.402 100.377)">
		<svg width="38.880394" height="42.0638199">
			<defs />
			<path d="M 10.0049 7.47217 C 9.97247 7.61939, 9.87825 7.69496, 9.72171 7.69987 L 9.54406 7.69987 C 9.4204 7.70036, 9.35268 7.63755, 9.34189 7.51143 L 9.34189 7.44862 C 9.39587 7.11934, 9.4258 6.80283, 9.43071 6.49858, 9.43071 6.32633, 9.42531 6.15115, 9.41451 5.97252, 9.36053 5.51223, 9.23933 5.10542, 9.05089 4.7521, 8.86245 4.39878, 8.60875 4.11612, 8.29076 3.90413, 7.97277 3.69214, 7.58412 3.58614, 7.12578 3.58565, 6.56538 3.58614, 6.00203 3.72256, 5.43573 3.99442, 4.86993 4.26677, 4.35762 4.6304, 3.89928 5.0853, 3.36538 5.62509, 2.94777 6.22181, 2.64598 6.87594, 2.34418 7.53057, 2.10667 8.19746, 1.93394 8.8776, 1.7455 9.56903, 1.63754 10.2389, 1.61055 10.8876 L 1.61055 11.1074 C 1.61055 11.6786, 1.72391 12.1993, 1.95013 12.6699, 2.16605 13.1155, 2.48109 13.4742, 2.89625 13.7461, 3.3114 14.0184, 3.80506 14.1543, 4.37626 14.1539, 4.84 14.1543, 5.29539 14.0552, 5.74293 13.856, 6.19047 13.6572, 6.60169 13.3888, 6.9766 13.0512, 7.35152 12.7136, 7.67883 12.3225, 7.95903 11.8774, 8.23972 11.4328, 8.4419 10.9612, 8.56556 10.4636, 8.59795 10.3174, 8.69266 10.2443, 8.84871 10.2438 L 9.02635 10.2438 C 9.1613 10.2443, 9.23393 10.3017, 9.24472 10.4165, 9.24472 10.4484, 9.23687 10.4774, 9.22068 10.5029, 9.07542 11.079, 8.83546 11.6261, 8.50079 12.1443, 8.16661 12.6625, 7.76912 13.117, 7.30784 13.5066, 6.84705 13.8967, 6.34161 14.2078, 5.79151 14.4404, 5.2419 14.6735, 4.67561 14.7898, 4.09312 14.7898, 3.34918 14.7898, 2.68769 14.6343, 2.10814 14.3232, 1.5286 14.012, 1.058 13.5812, 0.696827 13.0311, 0.319461 12.4402, 0.098145 11.7856, 0.0333697 11.0682, 0.0117779 10.8748, 0.000981927 10.6736, 0.000981927 10.4636, 0.000981927 9.9356, 0.0687016 9.3963, 0.20316 8.8462, 0.408282 8.07723, 0.733631 7.33526, 1.17823 6.62077, 1.62282 5.90628, 2.1793 5.25607, 2.84766 4.66916, 3.47873 4.13575, 4.16231 3.71176, 4.89839 3.3977, 5.63448 3.08364, 6.37154 2.92661, 7.10959 2.92612, 7.69747 2.92661, 8.20047 3.05616, 8.61807 3.31526, 9.03617 3.57436, 9.34483 3.88695, 9.54406 4.25303 L 10.6359 3.03604 C 10.6791 2.96341, 10.7517 2.92661, 10.8543 2.92612 L 10.9186 2.92612 C 11.0481 2.92661, 11.1129 2.98942, 11.1129 3.11456 L 11.1129 3.17737 Z" stroke="none" fill="#000000" />
			<rect />
		</svg>
	</g>
	<g transform="matrix(1 0 -0 1 84.5866 161.987)">
		<svg width="38.880394" height="39.1914787">
			<defs />
			<path d="M 11.7226 8.98752 C 11.5391 9.69466, 11.2496 10.3777, 10.8531 11.0373, 10.4571 11.6968, 9.95996 12.296, 9.36127 12.8348, 8.81657 13.3221, 8.21838 13.7107, 7.56572 14.0012, 6.91355 14.2917, 6.26138 14.4365, 5.60872 14.4365 L 0.230889 14.4365 C 0.0856351 14.4365, 0.00761024 14.3688, -0.00367638 14.2324 L -0.00367638 14.1696, 0.0287113 14.0361 C 0.0718949 13.8638, 0.17691 13.7799, 0.343755 13.7848, 0.597459 13.7853, 0.837422 13.7814, 1.06365 13.7735, 1.29036 13.7657, 1.4572 13.7382, 1.56516 13.6906, 1.66772 13.6337, 1.74575 13.4924, 1.79973 13.2666 L 4.07227 4.41791 C 4.10465 4.30309, 4.12036 4.21426, 4.12036 4.15096, 4.12036 4.08864, 4.10711 4.05184, 4.08012 4.04104, 4.00455 3.99442, 3.85782 3.96596, 3.63945 3.95516, 3.42108 3.94486, 3.18259 3.93946, 2.92348 3.93897, 2.77283 3.93946, 2.69726 3.8688, 2.69726 3.72698 L 2.69726 3.66416, 2.74584 3.53069 C 2.77823 3.37415, 2.87834 3.29563, 3.04518 3.29514 L 8.43921 3.29514 C 9.10757 3.29563, 9.69006 3.45021, 10.1862 3.75887, 10.6823 4.06803, 11.0813 4.47337, 11.3831 4.97538, 11.7064 5.54118, 11.8895 6.1693, 11.9327 6.85975, 11.9435 7.00697, 11.9489 7.1429, 11.9489 7.26803, 11.9489 7.82844, 11.8738 8.4016, 11.7226 8.98752 Z M 10.1616 5.33655 C 9.9786 4.90275, 9.69153 4.56121, 9.30042 4.31241, 8.90981 4.0641, 8.45295 3.93946, 7.92984 3.93897 L 6.19071 3.93897 C 5.91591 3.93946, 5.75152 3.96056, 5.69754 4.00227, 5.64356 4.04447, 5.58713 4.19316, 5.52775 4.44932 L 3.23902 13.298 C 3.19583 13.4767, 3.17424 13.6047, 3.17424 13.6828 L 3.17424 13.7456 C 3.19583 13.7672, 3.33913 13.7799, 3.60313 13.7848 L 5.34176 13.7848 C 5.87027 13.7853, 6.39731 13.6666, 6.92287 13.4281, 7.44893 13.1901, 7.91904 12.8588, 8.33419 12.4344, 8.80872 11.9427, 9.17284 11.3945, 9.42605 10.7899, 9.67926 10.1854, 9.88144 9.57443, 10.0321 8.95612, 10.1994 8.31278, 10.3152 7.6768, 10.38 7.04819, 10.3908 6.90195, 10.3962 6.76062, 10.3962 6.6242, 10.3962 6.16391, 10.3182 5.73501, 10.1616 5.33655 Z" stroke="none" fill="#000000" />
			<rect />
		</svg>
	</g>
	<g transform="matrix(1 0 -0 1 8.50001 93.2244)">
		<svg width="38.880394" height="39.1914787">
			<defs />
			<path d="M 11.0447 6.8519 C 11.029 6.9206, 10.9937 6.97949, 10.9397 7.02905, 10.8857 7.0791, 10.8268 7.10364, 10.762 7.10315, 10.7404 7.11395, 10.7135 7.11934, 10.6811 7.11885, 10.6163 7.11934, 10.5839 7.11395, 10.5839 7.10315, 10.4495 7.10364, 10.3763 7.04623, 10.3655 6.93041 L 10.3655 6.87545 C 10.3979 6.63009, 10.4249 6.3813, 10.4465 6.12955, 10.4681 5.93621, 10.4789 5.75857, 10.4789 5.59565 L 10.4789 5.46217 C 10.4681 5.25312, 10.4426 5.06616, 10.4023 4.90128, 10.3621 4.73639, 10.2905 4.59654, 10.1879 4.48073, 9.98277 4.24027, 9.67803 4.09796, 9.27368 4.05331, 8.86932 4.00914, 8.43798 3.98657, 7.97964 3.98608 L 6.24101 3.98608 C 5.95541 3.98657, 5.78857 4.00767, 5.73999 4.04889, 5.713 4.07048, 5.65902 4.22457, 5.57805 4.51213 L 4.57501 8.3437, 5.6914 8.3437 C 5.99369 8.34419, 6.26849 8.33143, 6.51631 8.30493, 6.76461 8.27892, 6.97759 8.20041, 7.15523 8.06889, 7.31717 7.93836, 7.43985 7.75532, 7.52327 7.51977, 7.60669 7.28423, 7.68914 7.01482, 7.76961 6.71057, 7.82899 6.55403, 7.93155 6.47797, 8.07681 6.48288 L 8.21421 6.48288 C 8.36535 6.48337, 8.44092 6.55158, 8.44092 6.68702 L 8.44092 6.74198, 7.43003 10.6285 C 7.39765 10.7914, 7.29263 10.8699, 7.1145 10.864 L 6.98495 10.864 C 6.8343 10.8645, 6.75873 10.8017, 6.75873 10.6756, 6.75873 10.6447, 6.76707 10.6157, 6.78277 10.5892, 6.85344 10.2968, 6.90447 10.0269, 6.93686 9.78053, 6.94765 9.71821, 6.95305 9.66325, 6.95305 9.61565, 6.95305 9.46941, 6.92066 9.35164, 6.85589 9.26233, 6.76461 9.13719, 6.6012 9.0626, 6.36664 9.03905, 6.13207 9.0155, 5.86954 9.00372, 5.57805 9.00323 L 4.41356 9.00323, 3.30551 13.3059 C 3.25153 13.4894, 3.22454 13.6258, 3.22454 13.7142 L 3.22454 13.7456 C 3.24613 13.7672, 3.39728 13.7799, 3.67748 13.7848 L 5.52947 13.7848 C 6.00939 13.7853, 6.4746 13.7529, 6.92459 13.6872, 7.37507 13.6219, 7.79415 13.4556, 8.18182 13.1881, 8.35456 13.063, 8.51944 12.8956, 8.67549 12.6861, 8.83203 12.4771, 8.98023 12.2454, 9.12057 11.9912, 9.26092 11.7375, 9.39391 11.4681, 9.52051 11.1825, 9.64712 10.8974, 9.77274 10.6157, 9.89641 10.338, 9.93959 10.2129, 10.0343 10.15, 10.1796 10.1496 L 10.317 10.1496 C 10.4681 10.15, 10.5437 10.2183, 10.5437 10.3537 L 10.5437 10.4165, 8.9341 14.2481 C 8.87521 14.3737, 8.77805 14.4365, 8.6431 14.4365 L 0.232605 14.4365 C 0.151636 14.4365, 0.0922587 14.413, 0.0544731 14.3658, 0.0171781 14.3295, -0.00146932 14.2903, -0.00196004 14.2481, -0.00146932 14.2172, 0.00392863 14.1857, 0.0142338 14.1539 L 0.0466215 14.0361 C 0.0628153 13.9684, 0.100601 13.91, 0.159978 13.8599, 0.219356 13.8103, 0.286585 13.7853, 0.361665 13.7848, 0.615369 13.7853, 0.852879 13.7814, 1.0737 13.7735, 1.29453 13.7657, 1.46187 13.7382, 1.57473 13.6906, 1.67189 13.6386, 1.74747 13.4973, 1.80145 13.2666 L 4.07398 4.47288 C 4.10637 4.35805, 4.12256 4.26677, 4.12256 4.19807, 4.12256 4.13575, 4.10931 4.09894, 4.08183 4.08815, 4.00626 4.04153, 3.85806 4.01307, 3.63724 4.00227, 3.41641 3.99197, 3.1789 3.98657, 2.9252 3.98608, 2.77455 3.98657, 2.69898 3.9159, 2.69898 3.77409 L 2.69898 3.71913, 2.73136 3.58565 C 2.77455 3.41341, 2.88005 3.32704, 3.0469 3.32655 L 11.239 3.32655 C 11.374 3.32704, 11.4466 3.3923, 11.4574 3.52284 L 11.4574 3.5778 Z" stroke="none" fill="#000000" />
			<rect />
		</svg>
	</g>
	<g transform="matrix(1 0 -0 1 119.195 91.9596)">
		<svg width="38.880394" height="33.1595688">
			<defs />
			<path d="M 6.06116 12.5207 C 6.09895 12.558, 6.1176 12.5973, 6.1176 12.6385, 6.1176 12.6861, 6.09649 12.7386, 6.05331 12.7955, 5.62736 13.3873, 5.08413 13.8393, 4.42362 14.1504, 3.76311 14.4615, 3.10161 14.6171, 2.43816 14.6171, 1.96903 14.6171, 1.56222 14.514, 1.21724 14.3074, 0.872261 14.1009, 0.59991 13.83, 0.400186 13.4943, 0.173963 13.1179, 0.0444121 12.7072, 0.0120244 12.2616, 0.00122845 12.1522, -0.00416946 12.0423, -0.00416946 11.9319, -0.00416946 11.5972, 0.0390141 11.2493, 0.125381 10.8876, 0.254932 10.4067, 0.452693 9.94345, 0.719646 9.49837, 0.9866 9.05377, 1.32225 8.645, 1.72661 8.27303, 2.09858 7.94915, 2.5098 7.68466, 2.95979 7.48052, 3.41028 7.27637, 3.86174 7.1743, 4.31419 7.17381, 4.58948 7.1743, 4.84711 7.21651, 5.08708 7.29993, 5.32704 7.38384, 5.53167 7.50554, 5.70146 7.66503, 5.87125 7.825, 5.99393 8.01197, 6.0695 8.22592, 6.0911 8.34173, 6.1014 8.45656, 6.1014 8.57139, 6.1014 8.69751, 6.0857 8.83098, 6.05331 8.97182, 5.99393 9.20786, 5.87272 9.38746, 5.68919 9.51014, 5.50616 9.63332, 5.32262 9.69466, 5.13909 9.69416, 4.94526 9.69466, 4.78921 9.62644, 4.67045 9.49002, 4.57869 9.40169, 4.53256 9.28637, 4.53256 9.14456, 4.53256 9.08763, 4.54336 9.01697, 4.56495 8.93256, 4.62482 8.7029, 4.7421 8.53164, 4.91729 8.41878, 5.09248 8.3064, 5.22841 8.24751, 5.32508 8.24163, 5.27159 8.11109, 5.14351 7.98841, 4.94133 7.87309, 4.73916 7.75826, 4.49821 7.70036, 4.21752 7.69987, 3.94811 7.70036, 3.67183 7.7828, 3.38869 7.94768, 3.10554 8.11257, 2.85625 8.32603, 2.64033 8.58709, 2.34934 8.92766, 2.12704 9.2957, 1.97344 9.69073, 1.81985 10.0863, 1.68882 10.4955, 1.58086 10.919, 1.4734 11.3381, 1.38997 11.7439, 1.33011 12.136, 1.30851 12.2621, 1.29772 12.3799, 1.29772 12.4893, 1.29772 12.7465, 1.3409 12.9923, 1.42727 13.2274, 1.50824 13.4894, 1.64417 13.7004, 1.83555 13.8599, 2.02693 14.0199, 2.25757 14.0994, 2.52698 14.0989, 3.09867 14.0994, 3.65662 13.9531, 4.20132 13.6597, 4.74603 13.3667, 5.19602 12.9688, 5.55179 12.4658, 5.58418 12.4088, 5.6465 12.3642, 5.73778 12.3323 L 5.80255 12.3323 C 5.85653 12.3328, 5.90266 12.3509, 5.93995 12.3873 L 6.06116 12.5207 Z" stroke="none" fill="#000000" />
			<path d="M 2.41655 1.08278 C 2.41655 1.33505, 2.36077 1.57715, 2.2492 1.80853, 2.13763 2.04019, 1.98813 2.23805, 1.80072 2.40184, 1.58967 2.58678, 1.35636 2.72363, 1.10134 2.81295, 0.846319 2.90253, 0.579759 2.94705, 0.301931 2.94705, 0.051584 2.94705, -0.192717 2.91188, -0.431248 2.84153, -0.669778 2.77118, -0.884675 2.67032, -1.07649 2.53842, -1.2683 2.40651, -1.42137 2.24465, -1.53624 2.05256, -1.65083 1.86075, -1.70827 1.64008, -1.70827 1.39056, -1.70827 1.20314, -1.64561 1.06326, -1.5203 0.97093, -1.39499 0.878595, -1.26308 0.832428, -1.12431 0.832154, -0.979208 0.832428, -0.844279 0.878595, -0.718968 0.97093, -0.593657 1.06326, -0.531002 1.20314, -0.531002 1.39056, -0.531002 1.50213, -0.552711 1.59529, -0.59668 1.67003, -0.640374 1.74478, -0.696159 1.80716, -0.764311 1.8569, -0.832188 1.90691, -0.909958 1.93742, -0.997345 1.94896, -1.04241 1.96105, -1.08473 1.96682, -1.12431 1.96655, -1.16333 1.96682, -1.16937 1.96984, -1.14244 1.97534, -1.04873 2.13967, -0.864615 2.28505, -0.58981 2.41091, -0.315005 2.53704, -0.0179415 2.59997, 0.301931 2.5997, 0.453074 2.59997, 0.594049 2.5626, 0.725405 2.48785, 0.856762 2.4131, 0.966409 2.3128, 1.0538 2.18639, 1.16262 2.02261, 1.23654 1.84673, 1.27556 1.65904, 1.31486 1.47162, 1.33437 1.27954, 1.33437 1.08278, 1.33437 0.880794, 1.31486 0.686782, 1.27556 0.500464, 1.23654 0.314421, 1.16262 0.142119, 1.0538 -0.0164435, 0.963111 -0.145052, 0.852915 -0.249203, 0.723207 -0.328347, 0.593499 -0.40749, 0.453074 -0.447062, 0.301931 -0.447337 L -0.354577 -0.447337 C -0.441965 -0.447062, -0.488682 -0.488008, -0.494728 -0.57045 L -0.494728 -0.618815 C -0.494728 -0.653715, -0.48401 -0.681471, -0.463125 -0.702356, -0.435919 -0.728462, -0.401294 -0.741653, -0.358974 -0.741928, -0.271311 -0.753469, -0.180901 -0.75924, -0.0874671 -0.759515, 0.00321841 -0.75924, 0.09253 -0.765011, 0.179918 -0.777103, 0.342877 -0.788645, 0.484676 -0.838934, 0.605315 -0.92852, 0.726229 -1.01783, 0.827358 -1.13215, 0.9087 -1.27148, 0.990317 -1.41053, 1.05215 -1.57101, 1.09447 -1.75293, 1.13679 -1.93458, 1.15795 -2.1209, 1.15795 -2.31161, 1.15795 -2.45204, 1.14283 -2.58532, 1.1126 -2.71145, 1.08238 -2.83731, 1.02659 -2.94751, 0.944974 -3.04149, 0.775969 -3.23468, 0.561621 -3.33004, 0.301931 -3.32729, 0.0243783 -3.32702, -0.229816 -3.2748, -0.460652 -3.17093, -0.691488 -3.06678, -0.846478 -2.95466, -0.925072 -2.83484, -0.945957 -2.83154, -0.935514 -2.83017, -0.893194 -2.83044, -0.784372 -2.83017, -0.68187 -2.79802, -0.585413 -2.73371, -0.440316 -2.64852, -0.368043 -2.5048, -0.368043 -2.30282, -0.368043 -2.13244, -0.423004 -2.00411, -0.5332 -1.91782, -0.643397 -1.83125, -0.766509 -1.78811, -0.902263 -1.78838, -1.03499 -1.78811, -1.15948 -1.83043, -1.27572 -1.91562, -1.39196 -2.00053, -1.45022 -2.12969, -1.45022 -2.30282, -1.45022 -2.51662, -1.39884 -2.70541, -1.29633 -2.86974, -1.19356 -3.0338, -1.06165 -3.1745, -0.900064 -3.29184, -0.738479 -3.40891, -0.552162 -3.49849, -0.340837 -3.56005, -0.129512 -3.62161, 0.0848355 -3.65238, 0.301931 -3.65266, 0.534416 -3.65238, 0.759481 -3.62161, 0.976851 -3.56005, 1.19422 -3.49849, 1.3995 -3.40314, 1.59241 -3.27453, 1.7496 -3.16296, 1.88151 -3.02583, 1.98868 -2.86315, 2.09586 -2.70046, 2.14944 -2.51662, 2.14944 -2.31161, 2.14944 -2.10606, 2.11262 -1.9126, 2.0387 -1.73095, 1.96477 -1.54903, 1.86667 -1.38497, 1.74438 -1.2385, 1.62209 -1.09175, 1.47645 -0.962871, 1.30744 -0.851575, 1.13844 -0.740004, 1.01148 -0.669929, 0.926837 -0.6408, 0.999385 -0.631731, 1.12332 -0.588312, 1.29837 -0.510817, 1.47342 -0.433047, 1.64078 -0.329721, 1.80072 -0.201112, 1.98813 -0.0395269, 2.13763 0.153111, 2.2492 0.377352, 2.36077 0.601592, 2.41655 0.836825, 2.41655 1.08278 Z" stroke="none" fill="#000000" transform="matrix(1.12 0 0 1 8.66766 13.9768)" />
			<rect />
		</svg>
	</g>
	<g transform="matrix(1 0 -0 1 99.4003 93.2096)">
		<svg width="38.880394" height="33.1595688">
			<defs />
			<path d="M 6.06116 12.5207 C 6.09895 12.558, 6.1176 12.5973, 6.1176 12.6385, 6.1176 12.6861, 6.09649 12.7386, 6.05331 12.7955, 5.62736 13.3873, 5.08413 13.8393, 4.42362 14.1504, 3.76311 14.4615, 3.10161 14.6171, 2.43816 14.6171, 1.96903 14.6171, 1.56222 14.514, 1.21724 14.3074, 0.872261 14.1009, 0.59991 13.83, 0.400186 13.4943, 0.173963 13.1179, 0.0444121 12.7072, 0.0120244 12.2616, 0.00122845 12.1522, -0.00416946 12.0423, -0.00416946 11.9319, -0.00416946 11.5972, 0.0390141 11.2493, 0.125381 10.8876, 0.254932 10.4067, 0.452693 9.94345, 0.719646 9.49837, 0.9866 9.05377, 1.32225 8.645, 1.72661 8.27303, 2.09858 7.94915, 2.5098 7.68466, 2.95979 7.48052, 3.41028 7.27637, 3.86174 7.1743, 4.31419 7.17381, 4.58948 7.1743, 4.84711 7.21651, 5.08708 7.29993, 5.32704 7.38384, 5.53167 7.50554, 5.70146 7.66503, 5.87125 7.825, 5.99393 8.01197, 6.0695 8.22592, 6.0911 8.34173, 6.1014 8.45656, 6.1014 8.57139, 6.1014 8.69751, 6.0857 8.83098, 6.05331 8.97182, 5.99393 9.20786, 5.87272 9.38746, 5.68919 9.51014, 5.50616 9.63332, 5.32262 9.69466, 5.13909 9.69416, 4.94526 9.69466, 4.78921 9.62644, 4.67045 9.49002, 4.57869 9.40169, 4.53256 9.28637, 4.53256 9.14456, 4.53256 9.08763, 4.54336 9.01697, 4.56495 8.93256, 4.62482 8.7029, 4.7421 8.53164, 4.91729 8.41878, 5.09248 8.3064, 5.22841 8.24751, 5.32508 8.24163, 5.27159 8.11109, 5.14351 7.98841, 4.94133 7.87309, 4.73916 7.75826, 4.49821 7.70036, 4.21752 7.69987, 3.94811 7.70036, 3.67183 7.7828, 3.38869 7.94768, 3.10554 8.11257, 2.85625 8.32603, 2.64033 8.58709, 2.34934 8.92766, 2.12704 9.2957, 1.97344 9.69073, 1.81985 10.0863, 1.68882 10.4955, 1.58086 10.919, 1.4734 11.3381, 1.38997 11.7439, 1.33011 12.136, 1.30851 12.2621, 1.29772 12.3799, 1.29772 12.4893, 1.29772 12.7465, 1.3409 12.9923, 1.42727 13.2274, 1.50824 13.4894, 1.64417 13.7004, 1.83555 13.8599, 2.02693 14.0199, 2.25757 14.0994, 2.52698 14.0989, 3.09867 14.0994, 3.65662 13.9531, 4.20132 13.6597, 4.74603 13.3667, 5.19602 12.9688, 5.55179 12.4658, 5.58418 12.4088, 5.6465 12.3642, 5.73778 12.3323 L 5.80255 12.3323 C 5.85653 12.3328, 5.90266 12.3509, 5.93995 12.3873 L 6.06116 12.5207 Z" stroke="none" fill="#000000" />
			<path d="M 1.58403 1.17511 L 1.58403 2.06768 C 1.58403 2.12071, 1.59392 2.1699, 1.61371 2.21525, 1.63349 2.26086, 1.66592 2.29082, 1.71099 2.30511, 1.78051 2.33753, 1.89373 2.3554, 2.05064 2.35814, 2.20756 2.36117, 2.36585 2.36254, 2.52578 2.36227 L 2.52578 2.7404 C 2.06411 2.72281, 1.61151 2.71402, 1.16742 2.71402, 0.729934 2.71402, 0.269636 2.72281, -0.213471 2.7404 L -0.213471 2.36227 C -0.0474887 2.36254, 0.112722 2.36117, 0.266613 2.35814, 0.420504 2.3554, 0.535372 2.33753, 0.610669 2.30511, 0.656011 2.29082, 0.689263 2.26086, 0.710423 2.21525, 0.731583 2.1699, 0.742025 2.12071, 0.742025 2.06768 L 0.742025 1.17511, -1.83894 1.17511, -1.83894 0.818963, 1.18556 -3.67904 C 1.22513 -3.73153, 1.27487 -3.75791, 1.33505 -3.75818 L 1.43481 -3.75818 C 1.53429 -3.75791, 1.58403 -3.70817, 1.58403 -3.60869 L 1.58403 0.788185, 2.55766 0.788185, 2.55766 1.17511 Z M 0.787093 -2.52266 L -1.44047 0.788185, 0.787093 0.788185 Z" stroke="none" fill="#000000" transform="matrix(1.12 0 0 1 8.79902 13.9768)" />
			<rect />
		</svg>
	</g>
	<g transform="matrix(1 0 -0 1 89.6411 71.6025)">
		<svg width="38.880394" height="33.1595688">
			<defs />
			<path d="M 6.06116 12.5207 C 6.09895 12.558, 6.1176 12.5973, 6.1176 12.6385, 6.1176 12.6861, 6.09649 12.7386, 6.05331 12.7955, 5.62736 13.3873, 5.08413 13.8393, 4.42362 14.1504, 3.76311 14.4615, 3.10161 14.6171, 2.43816 14.6171, 1.96903 14.6171, 1.56222 14.514, 1.21724 14.3074, 0.872261 14.1009, 0.59991 13.83, 0.400186 13.4943, 0.173963 13.1179, 0.0444121 12.7072, 0.0120244 12.2616, 0.00122845 12.1522, -0.00416946 12.0423, -0.00416946 11.9319, -0.00416946 11.5972, 0.0390141 11.2493, 0.125381 10.8876, 0.254932 10.4067, 0.452693 9.94345, 0.719646 9.49837, 0.9866 9.05377, 1.32225 8.645, 1.72661 8.27303, 2.09858 7.94915, 2.5098 7.68466, 2.95979 7.48052, 3.41028 7.27637, 3.86174 7.1743, 4.31419 7.17381, 4.58948 7.1743, 4.84711 7.21651, 5.08708 7.29993, 5.32704 7.38384, 5.53167 7.50554, 5.70146 7.66503, 5.87125 7.825, 5.99393 8.01197, 6.0695 8.22592, 6.0911 8.34173, 6.1014 8.45656, 6.1014 8.57139, 6.1014 8.69751, 6.0857 8.83098, 6.05331 8.97182, 5.99393 9.20786, 5.87272 9.38746, 5.68919 9.51014, 5.50616 9.63332, 5.32262 9.69466, 5.13909 9.69416, 4.94526 9.69466, 4.78921 9.62644, 4.67045 9.49002, 4.57869 9.40169, 4.53256 9.28637, 4.53256 9.14456, 4.53256 9.08763, 4.54336 9.01697, 4.56495 8.93256, 4.62482 8.7029, 4.7421 8.53164, 4.91729 8.41878, 5.09248 8.3064, 5.22841 8.24751, 5.32508 8.24163, 5.27159 8.11109, 5.14351 7.98841, 4.94133 7.87309, 4.73916 7.75826, 4.49821 7.70036, 4.21752 7.69987, 3.94811 7.70036, 3.67183 7.7828, 3.38869 7.94768, 3.10554 8.11257, 2.85625 8.32603, 2.64033 8.58709, 2.34934 8.92766, 2.12704 9.2957, 1.97344 9.69073, 1.81985 10.0863, 1.68882 10.4955, 1.58086 10.919, 1.4734 11.3381, 1.38997 11.7439, 1.33011 12.136, 1.30851 12.2621, 1.29772 12.3799, 1.29772 12.4893, 1.29772 12.7465, 1.3409 12.9923, 1.42727 13.2274, 1.50824 13.4894, 1.64417 13.7004, 1.83555 13.8599, 2.02693 14.0199, 2.25757 14.0994, 2.52698 14.0989, 3.09867 14.0994, 3.65662 13.9531, 4.20132 13.6597, 4.74603 13.3667, 5.19602 12.9688, 5.55179 12.4658, 5.58418 12.4088, 5.6465 12.3642, 5.73778 12.3323 L 5.80255 12.3323 C 5.85653 12.3328, 5.90266 12.3509, 5.93995 12.3873 L 6.06116 12.5207 Z" stroke="none" fill="#000000" />
			<path d="M 2.32825 0.796978 C 2.32825 1.08442, 2.27411 1.35868, 2.16529 1.61947, 2.05674 1.88053, 1.89983 2.11494, 1.69428 2.32269, 1.48598 2.52523, 1.25129 2.67994, 0.990227 2.78656, 0.729163 2.89374, 0.452435 2.94705, 0.159493 2.94705, -0.093877 2.94705, -0.330209 2.89951, -0.548954 2.80415, -0.767698 2.70907, -0.957863 2.57881, -1.11945 2.4131, -1.28103 2.24767, -1.40772 2.05558, -1.50005 1.83711, -1.59211 1.61892, -1.63828 1.38643, -1.63828 1.13993, -1.63828 0.970105, -1.58167 0.842046, -1.46845 0.755483, -1.35523 0.669194, -1.23816 0.625775, -1.11752 0.6255, -0.990565 0.625775, -0.871299 0.66837, -0.759729 0.753285, -0.647883 0.838474, -0.592098 0.967357, -0.592098 1.13993, -0.592098 1.24573, -0.615456 1.3345, -0.662173 1.40622, -0.70889 1.47822, -0.766324 1.53373, -0.834476 1.5733, -0.902352 1.61287, -0.978473 1.63568, -1.06311 1.64118 L -1.11752 1.64118, -1.20794 1.64118 C -1.13841 1.88768, -0.976824 2.10917, -0.723454 2.30538, -0.46981 2.50187, -0.175494 2.59997, 0.159493 2.5997, 0.334543 2.59997, 0.505197 2.55463, 0.671179 2.46367, 0.837161 2.37298, 0.972915 2.25262, 1.07844 2.10285, 1.20238 1.92423, 1.2818 1.72142, 1.31642 1.49416, 1.35105 1.26717, 1.36836 1.03468, 1.36836 0.796978, 1.36836 0.556799, 1.36094 0.326238, 1.34582 0.104745, 1.33071 -0.116472, 1.26888 -0.325324, 1.16006 -0.522084, 1.08174 -0.665532, 0.981434 -0.784797, 0.859146 -0.880155, 0.736857 -0.975237, 0.60028 -1.02305, 0.449137 -1.02333, 0.162516 -1.02305, -0.0864573 -0.965069, -0.297782 -0.849376, -0.509107 -0.733409, -0.679761 -0.567152, -0.809468 -0.350606, -0.836674 -0.300591, -0.880368 -0.275584, -0.940825 -0.275859 L -0.977099 -0.275859 C -1.08262 -0.275584, -1.13566 -0.32395, -1.13566 -0.420956 L -1.13566 -3.50756 C -1.13566 -3.58341, -1.09169 -3.63177, -1.0043 -3.65266, -0.988916 -3.65238, -0.977649 -3.65074, -0.970229 -3.64799, -0.962535 -3.64496, -0.955939 -3.64359, -0.949894 -3.64387, -0.51213 -3.44436, -0.0609004 -3.3446, 0.403794 -3.34488, 0.87481 -3.3446, 1.32631 -3.44436, 1.75776 -3.64387, 1.7638 -3.64359, 1.76985 -3.64496, 1.77589 -3.64799, 1.78194 -3.65074, 1.79101 -3.65238, 1.8031 -3.65266, 1.90258 -3.65238, 1.95094 -3.60704, 1.94792 -3.51636, 1.94792 -3.46332, 1.93885 -3.42814, 1.92072 -3.41083, 1.70637 -3.11734, 1.43404 -2.88788, 1.10345 -2.72245, 0.773132 -2.55674, 0.422206 -2.47402, 0.0506701 -2.4743, -0.257111 -2.47402, -0.522572 -2.5092, -0.746263 -2.57982 L -0.746263 -0.900215 C -0.640463 -1.01124, -0.481077 -1.11017, -0.268378 -1.19673, -0.0556792 -1.28302, 0.183676 -1.32644, 0.449137 -1.32671, 0.708827 -1.32644, 0.954228 -1.26763, 1.18506 -1.15056, 1.4159 -1.03322, 1.61898 -0.880979, 1.79403 -0.693562, 1.97513 -0.482237, 2.10951 -0.248379, 2.19689 0.0080142, 2.28456 0.264682, 2.32825 0.52767, 2.32825 0.796978 Z" stroke="none" fill="#000000" transform="matrix(1.12 0 0 1 8.59539 13.9768)" />
			<rect />
		</svg>
	</g>
	<g transform="matrix(1 0 -0 1 147.284 46.9597)">
		<svg width="42.0378685" height="33.1595688">
			<defs />
			<path d="M 7.25141 12.0496 C 7.18712 12.3068, 7.1145 12.5816, 7.03353 12.8745, 6.95256 13.168, 6.8446 13.4399, 6.70965 13.6911, 6.57519 13.9424, 6.4054 14.1597, 6.20028 14.3428, 5.99565 14.5258, 5.73949 14.6171, 5.43181 14.6171, 5.02255 14.6171, 4.69474 14.5037, 4.44938 14.276, 4.20402 14.0483, 4.06269 13.8167, 4.02491 13.5807, 3.84138 13.7907, 3.56804 14.016, 3.20393 14.2564, 2.8403 14.4969, 2.45607 14.6171, 2.05171 14.6171, 1.62576 14.6171, 1.26852 14.5101, 0.979973 14.2957, 0.691429 14.0812, 0.466678 13.8113, 0.304739 13.4865, 0.110904 13.0998, 0.00834268 12.6836, -0.00245327 12.2381 L -0.00245327 12.1203 C -0.00245327 11.7071, 0.0544706 11.2939, 0.167337 10.8798, 0.296888 10.4249, 0.477473 9.97486, 0.709095 9.52977, 0.941206 9.08518, 1.2484 8.6715, 1.63116 8.28873, 1.94424 7.97516, 2.30149 7.71115, 2.7029 7.49622, 3.10431 7.28177, 3.51259 7.1743, 3.92774 7.17381, 4.28892 7.1743, 4.58286 7.26999, 4.80908 7.46089, 5.0358 7.65227, 5.1786 7.81028, 5.23797 7.93541 L 5.20559 8.06889 C 5.24337 7.87555, 5.33366 7.72931, 5.47646 7.62969, 5.61976 7.53057, 5.76403 7.48052, 5.90928 7.48002, 6.07613 7.48052, 6.21647 7.53008, 6.32983 7.6292, 6.4 7.70821, 6.43779 7.81273, 6.4427 7.94327, 6.4427 7.99087, 6.4373 8.04337, 6.4265 8.1003 L 5.26202 12.6385 C 5.20804 12.8534, 5.17025 13.0551, 5.14866 13.2431, 5.13836 13.3378, 5.13296 13.4241, 5.13296 13.5022, 5.13296 13.5709, 5.13836 13.644, 5.14866 13.722, 5.16535 13.8481, 5.20313 13.9424, 5.26202 14.0052, 5.3214 14.068, 5.40482 14.0994, 5.51278 14.0989, 5.62614 14.0994, 5.73262 14.0523, 5.83224 13.9581, 5.93235 13.8638, 6.02411 13.724, 6.10753 13.538, 6.19096 13.3525, 6.27045 13.1297, 6.34603 12.8706, 6.4216 12.6115, 6.49962 12.3303, 6.5801 12.0261, 6.61249 11.8906, 6.70425 11.8224, 6.8554 11.8219 L 7.04138 11.8219 C 7.18173 11.8224, 7.25141 11.8798, 7.25141 11.9947 L 7.25141 12.0496 Z M 4.93863 9.16026 C 4.91704 9.06653, 4.89839 8.96839, 4.8822 8.86632, 4.86601 8.76425, 4.84147 8.66365, 4.80908 8.56354, 4.72321 8.31818, 4.60052 8.11257, 4.44153 7.94768, 4.28254 7.7828, 4.08134 7.70036, 3.83892 7.69987, 3.6127 7.70036, 3.38893 7.78182, 3.16761 7.94376, 2.94679 8.10619, 2.74461 8.31523, 2.56108 8.57139, 2.30247 8.93305, 2.10864 9.30895, 1.97908 9.69858, 1.84953 10.0887, 1.73078 10.4955, 1.62282 10.919, 1.51535 11.3381, 1.42653 11.7439, 1.35587 12.136, 1.31317 12.3352, 1.29158 12.5237, 1.29158 12.7013, 1.29158 12.8902, 1.31317 13.0733, 1.35587 13.2509, 1.40494 13.4973, 1.49229 13.7004, 1.61889 13.8599, 1.7455 14.0199, 1.92216 14.0994, 2.14838 14.0989, 2.39669 14.0994, 2.64598 14.013, 2.89674 13.8403, 3.1475 13.6675, 3.38059 13.4556, 3.59602 13.2038, 3.68238 13.0998, 3.76482 12.9992, 3.84285 12.902, 3.92136 12.8053, 3.99007 12.7018, 4.04895 12.5914 L 4.93863 9.16026 Z" stroke="none" fill="#000000" />
			<path d="M 2.04965 2.7404 L -1.63658 2.7404, -1.63658 2.49857 C -1.63658 2.48126, -1.62751 2.45487, -1.60937 2.41943 L -0.128447 0.810169 C 0.0466034 0.616981, 0.223852 0.419122, 0.403575 0.216866, 0.583297 0.0146096, 0.744333 -0.192044, 0.886132 -0.403094, 1.02793 -0.614144, 1.14115 -0.831789, 1.22579 -1.05603, 1.31043 -1.28027, 1.35248 -1.5155, 1.35248 -1.762, 1.35248 -1.96976, 1.32527 -2.16404, 1.27086 -2.34431, 1.21645 -2.52459, 1.13813 -2.68287, 1.03535 -2.81918, 0.932848 -2.95548, 0.804515 -3.0654, 0.650624 -3.14894, 0.496733 -3.23248, 0.318385 -3.27425, 0.116129 -3.27453, -0.185606 -3.27425, -0.452167 -3.18412, -0.683278 -3.00385, -0.914114 -2.82357, -1.06745 -2.62489, -1.14303 -2.40834, -1.15787 -2.4023, -1.13368 -2.39928, -1.07048 -2.39955 L -0.993532 -2.39955 C -0.902847 -2.37866, -0.824527 -2.34706, -0.758025 -2.30474, -0.691522 -2.26215, -0.635737 -2.20361, -0.590394 -2.12887, -0.545051 -2.05412, -0.522517 -1.96398, -0.522517 -1.85873, -0.522517 -1.68258, -0.579676 -1.54766, -0.694545 -1.45395, -0.809413 -1.35996, -0.937747 -1.31325, -1.07955 -1.31352, -1.2153 -1.31325, -1.34226 -1.35996, -1.45988 -1.45395, -1.57749 -1.54766, -1.63658 -1.68258, -1.63658 -1.85873, -1.63658 -2.10468, -1.58821 -2.33772, -1.49148 -2.55756, -1.39475 -2.77741, -1.26367 -2.96785, -1.09768 -3.12916, -0.931701 -3.29019, -0.735491 -3.4177, -0.509052 -3.51168, -0.282613 -3.60539, -0.0424333 -3.65238, 0.211211 -3.65266, 0.525313 -3.65238, 0.813034 -3.60622, 1.0741 -3.51388, 1.33516 -3.42155, 1.55775 -3.28882, 1.74187 -3.11597, 1.92599 -2.94284, 2.07027 -2.74278, 2.17442 -2.51579, 2.27857 -2.28853, 2.33051 -2.03736, 2.33051 -1.762, 2.33051 -1.45697, 2.26125 -1.17612, 2.1222 -0.919726, 1.98343 -0.663059, 1.8114 -0.427826, 1.60612 -0.214028, 1.40084 4.48227e-005, 1.18265 0.201477, 0.951535 0.390542, 0.720699 0.579608, 0.511573 0.763452, 0.324431 0.942075 L -0.717353 1.92258, 0.645952 1.92258 C 0.836117 1.92285, 1.01364 1.92148, 1.17797 1.91846, 1.34258 1.91571, 1.48218 1.90966, 1.59705 1.90087, 1.71192 1.89208, 1.77073 1.8863, 1.77348 1.88301, 1.79766 1.86267, 1.82047 1.82173, 1.84163 1.76017, 1.86279 1.69861, 1.8823 1.62606, 1.90044 1.54252, 1.91857 1.45898, 1.93671 1.37407, 1.95485 1.2875, 1.97298 1.20122, 1.98947 1.10641, 2.00459 1.00363 L 2.33957 1.00363 Z" stroke="none" fill="#000000" transform="matrix(1.12 0 0 1 9.72721 13.9768)" />
			<rect />
		</svg>
	</g>
	<g transform="matrix(1 0 -0 1 150.772 96.6025)">
		<svg width="42.0378685" height="33.1595688">
			<defs />
			<path d="M 7.25141 12.0496 C 7.18712 12.3068, 7.1145 12.5816, 7.03353 12.8745, 6.95256 13.168, 6.8446 13.4399, 6.70965 13.6911, 6.57519 13.9424, 6.4054 14.1597, 6.20028 14.3428, 5.99565 14.5258, 5.73949 14.6171, 5.43181 14.6171, 5.02255 14.6171, 4.69474 14.5037, 4.44938 14.276, 4.20402 14.0483, 4.06269 13.8167, 4.02491 13.5807, 3.84138 13.7907, 3.56804 14.016, 3.20393 14.2564, 2.8403 14.4969, 2.45607 14.6171, 2.05171 14.6171, 1.62576 14.6171, 1.26852 14.5101, 0.979973 14.2957, 0.691429 14.0812, 0.466678 13.8113, 0.304739 13.4865, 0.110904 13.0998, 0.00834268 12.6836, -0.00245327 12.2381 L -0.00245327 12.1203 C -0.00245327 11.7071, 0.0544706 11.2939, 0.167337 10.8798, 0.296888 10.4249, 0.477473 9.97486, 0.709095 9.52977, 0.941206 9.08518, 1.2484 8.6715, 1.63116 8.28873, 1.94424 7.97516, 2.30149 7.71115, 2.7029 7.49622, 3.10431 7.28177, 3.51259 7.1743, 3.92774 7.17381, 4.28892 7.1743, 4.58286 7.26999, 4.80908 7.46089, 5.0358 7.65227, 5.1786 7.81028, 5.23797 7.93541 L 5.20559 8.06889 C 5.24337 7.87555, 5.33366 7.72931, 5.47646 7.62969, 5.61976 7.53057, 5.76403 7.48052, 5.90928 7.48002, 6.07613 7.48052, 6.21647 7.53008, 6.32983 7.6292, 6.4 7.70821, 6.43779 7.81273, 6.4427 7.94327, 6.4427 7.99087, 6.4373 8.04337, 6.4265 8.1003 L 5.26202 12.6385 C 5.20804 12.8534, 5.17025 13.0551, 5.14866 13.2431, 5.13836 13.3378, 5.13296 13.4241, 5.13296 13.5022, 5.13296 13.5709, 5.13836 13.644, 5.14866 13.722, 5.16535 13.8481, 5.20313 13.9424, 5.26202 14.0052, 5.3214 14.068, 5.40482 14.0994, 5.51278 14.0989, 5.62614 14.0994, 5.73262 14.0523, 5.83224 13.9581, 5.93235 13.8638, 6.02411 13.724, 6.10753 13.538, 6.19096 13.3525, 6.27045 13.1297, 6.34603 12.8706, 6.4216 12.6115, 6.49962 12.3303, 6.5801 12.0261, 6.61249 11.8906, 6.70425 11.8224, 6.8554 11.8219 L 7.04138 11.8219 C 7.18173 11.8224, 7.25141 11.8798, 7.25141 11.9947 L 7.25141 12.0496 Z M 4.93863 9.16026 C 4.91704 9.06653, 4.89839 8.96839, 4.8822 8.86632, 4.86601 8.76425, 4.84147 8.66365, 4.80908 8.56354, 4.72321 8.31818, 4.60052 8.11257, 4.44153 7.94768, 4.28254 7.7828, 4.08134 7.70036, 3.83892 7.69987, 3.6127 7.70036, 3.38893 7.78182, 3.16761 7.94376, 2.94679 8.10619, 2.74461 8.31523, 2.56108 8.57139, 2.30247 8.93305, 2.10864 9.30895, 1.97908 9.69858, 1.84953 10.0887, 1.73078 10.4955, 1.62282 10.919, 1.51535 11.3381, 1.42653 11.7439, 1.35587 12.136, 1.31317 12.3352, 1.29158 12.5237, 1.29158 12.7013, 1.29158 12.8902, 1.31317 13.0733, 1.35587 13.2509, 1.40494 13.4973, 1.49229 13.7004, 1.61889 13.8599, 1.7455 14.0199, 1.92216 14.0994, 2.14838 14.0989, 2.39669 14.0994, 2.64598 14.013, 2.89674 13.8403, 3.1475 13.6675, 3.38059 13.4556, 3.59602 13.2038, 3.68238 13.0998, 3.76482 12.9992, 3.84285 12.902, 3.92136 12.8053, 3.99007 12.7018, 4.04895 12.5914 L 4.93863 9.16026 Z" stroke="none" fill="#000000" />
			<path d="M 2.41599 1.08278 C 2.41599 1.33505, 2.36021 1.57715, 2.24864 1.80853, 2.13707 2.04019, 1.98757 2.23805, 1.80016 2.40184, 1.58883 2.58678, 1.35552 2.72363, 1.1005 2.81295, 0.845484 2.90253, 0.578923 2.94705, 0.301095 2.94705, 0.0504737 2.94705, -0.193828 2.91188, -0.432358 2.84153, -0.670889 2.77118, -0.885786 2.67032, -1.0776 2.53842, -1.26941 2.40651, -1.42248 2.24465, -1.53735 2.05256, -1.65222 1.86075, -1.70965 1.64008, -1.70965 1.39056, -1.70965 1.20314, -1.64699 1.06326, -1.52168 0.97093, -1.39637 0.878595, -1.26419 0.832428, -1.12542 0.832154, -0.980319 0.832428, -0.84539 0.878595, -0.720079 0.97093, -0.594768 1.06326, -0.532112 1.20314, -0.532112 1.39056, -0.532112 1.50213, -0.553822 1.59529, -0.597791 1.67003, -0.641484 1.74478, -0.69727 1.80716, -0.765421 1.8569, -0.833298 1.90691, -0.911068 1.93742, -0.998731 1.94896, -1.0438 1.96105, -1.08612 1.96682, -1.12542 1.96655, -1.16444 1.96682, -1.17048 1.96984, -1.14355 1.97534, -1.04984 2.13967, -0.865725 2.28505, -0.59092 2.41091, -0.316116 2.53704, -0.0187771 2.59997, 0.301095 2.5997, 0.452238 2.59997, 0.593213 2.5626, 0.72457 2.48785, 0.855926 2.4131, 0.965573 2.3128, 1.05296 2.18639, 1.16178 2.02261, 1.23571 1.84673, 1.275 1.65904, 1.3143 1.47162, 1.33381 1.27954, 1.33381 1.08278, 1.33381 0.880794, 1.3143 0.686782, 1.275 0.500464, 1.23571 0.314421, 1.16178 0.142119, 1.05296 -0.0164435, 0.962276 -0.145052, 0.852079 -0.249203, 0.722371 -0.328347, 0.592663 -0.40749, 0.452238 -0.447062, 0.301095 -0.447337 L -0.355413 -0.447337 C -0.442801 -0.447062, -0.489792 -0.488008, -0.495838 -0.57045 L -0.495838 -0.618815 C -0.495838 -0.653715, -0.485121 -0.681471, -0.464235 -0.702356, -0.43703 -0.728462, -0.402404 -0.741653, -0.360085 -0.741928, -0.272422 -0.753469, -0.181736 -0.75924, -0.0883026 -0.759515, 0.00238276 -0.75924, 0.0914195 -0.765011, 0.178807 -0.777103, 0.342041 -0.788645, 0.483841 -0.838934, 0.604755 -0.92852, 0.725669 -1.01783, 0.826797 -1.13215, 0.908139 -1.27148, 0.989481 -1.41053, 1.05131 -1.57101, 1.09363 -1.75293, 1.13595 -1.93458, 1.15711 -2.1209, 1.15711 -2.31161, 1.15711 -2.45204, 1.142 -2.58532, 1.11177 -2.71145, 1.08154 -2.83731, 1.02576 -2.94751, 0.944139 -3.04149, 0.775134 -3.23468, 0.560786 -3.33004, 0.301095 -3.32729, 0.0235429 -3.32702, -0.230926 -3.2748, -0.461762 -3.17093, -0.692598 -3.06678, -0.847588 -2.95466, -0.926182 -2.83484, -0.947067 -2.83154, -0.936625 -2.83017, -0.894305 -2.83044, -0.785482 -2.83017, -0.68298 -2.79802, -0.586524 -2.73371, -0.441427 -2.64852, -0.369153 -2.5048, -0.369153 -2.30282, -0.369153 -2.13244, -0.424114 -2.00411, -0.534311 -1.91782, -0.644507 -1.83125, -0.76762 -1.78811, -0.903373 -1.78838, -1.03638 -1.78811, -1.16087 -1.83043, -1.27711 -1.91562, -1.39335 -2.00053, -1.45161 -2.12969, -1.45161 -2.30282, -1.45161 -2.51662, -1.40022 -2.70541, -1.29744 -2.86974, -1.19467 -3.0338, -1.06276 -3.1745, -0.901175 -3.29184, -0.73959 -3.40891, -0.553272 -3.49849, -0.341947 -3.56005, -0.130348 -3.62161, 0.0839999 -3.65238, 0.301095 -3.65266, 0.53358 -3.65238, 0.758645 -3.62161, 0.976016 -3.56005, 1.19339 -3.49849, 1.39867 -3.40314, 1.59185 -3.27453, 1.74904 -3.16296, 1.88095 -3.02583, 1.98812 -2.86315, 2.09529 -2.70046, 2.14888 -2.51662, 2.14888 -2.31161, 2.14888 -2.10606, 2.11206 -1.9126, 2.03814 -1.73095, 1.96421 -1.54903, 1.86611 -1.38497, 1.74382 -1.2385, 1.62153 -1.09175, 1.47589 -0.962871, 1.30661 -0.851575, 1.1376 -0.740004, 1.01064 -0.669929, 0.926001 -0.6408, 0.99855 -0.631731, 1.12249 -0.588312, 1.29754 -0.510817, 1.47286 -0.433047, 1.64022 -0.329721, 1.80016 -0.201112, 1.98757 -0.0395269, 2.13707 0.153111, 2.24864 0.377352, 2.36021 0.601592, 2.41599 0.836825, 2.41599 1.08278 Z" stroke="none" fill="#000000" transform="matrix(1.12 0 0 1 9.79976 13.9768)" />
			<rect />
		</svg>
	</g>
	<g transform="matrix(1 0 -0 1 90.2628 128.745)">
		<svg width="42.0378685" height="33.1595688">
			<defs />
			<path d="M 7.25141 12.0496 C 7.18712 12.3068, 7.1145 12.5816, 7.03353 12.8745, 6.95256 13.168, 6.8446 13.4399, 6.70965 13.6911, 6.57519 13.9424, 6.4054 14.1597, 6.20028 14.3428, 5.99565 14.5258, 5.73949 14.6171, 5.43181 14.6171, 5.02255 14.6171, 4.69474 14.5037, 4.44938 14.276, 4.20402 14.0483, 4.06269 13.8167, 4.02491 13.5807, 3.84138 13.7907, 3.56804 14.016, 3.20393 14.2564, 2.8403 14.4969, 2.45607 14.6171, 2.05171 14.6171, 1.62576 14.6171, 1.26852 14.5101, 0.979973 14.2957, 0.691429 14.0812, 0.466678 13.8113, 0.304739 13.4865, 0.110904 13.0998, 0.00834268 12.6836, -0.00245327 12.2381 L -0.00245327 12.1203 C -0.00245327 11.7071, 0.0544706 11.2939, 0.167337 10.8798, 0.296888 10.4249, 0.477473 9.97486, 0.709095 9.52977, 0.941206 9.08518, 1.2484 8.6715, 1.63116 8.28873, 1.94424 7.97516, 2.30149 7.71115, 2.7029 7.49622, 3.10431 7.28177, 3.51259 7.1743, 3.92774 7.17381, 4.28892 7.1743, 4.58286 7.26999, 4.80908 7.46089, 5.0358 7.65227, 5.1786 7.81028, 5.23797 7.93541 L 5.20559 8.06889 C 5.24337 7.87555, 5.33366 7.72931, 5.47646 7.62969, 5.61976 7.53057, 5.76403 7.48052, 5.90928 7.48002, 6.07613 7.48052, 6.21647 7.53008, 6.32983 7.6292, 6.4 7.70821, 6.43779 7.81273, 6.4427 7.94327, 6.4427 7.99087, 6.4373 8.04337, 6.4265 8.1003 L 5.26202 12.6385 C 5.20804 12.8534, 5.17025 13.0551, 5.14866 13.2431, 5.13836 13.3378, 5.13296 13.4241, 5.13296 13.5022, 5.13296 13.5709, 5.13836 13.644, 5.14866 13.722, 5.16535 13.8481, 5.20313 13.9424, 5.26202 14.0052, 5.3214 14.068, 5.40482 14.0994, 5.51278 14.0989, 5.62614 14.0994, 5.73262 14.0523, 5.83224 13.9581, 5.93235 13.8638, 6.02411 13.724, 6.10753 13.538, 6.19096 13.3525, 6.27045 13.1297, 6.34603 12.8706, 6.4216 12.6115, 6.49962 12.3303, 6.5801 12.0261, 6.61249 11.8906, 6.70425 11.8224, 6.8554 11.8219 L 7.04138 11.8219 C 7.18173 11.8224, 7.25141 11.8798, 7.25141 11.9947 L 7.25141 12.0496 Z M 4.93863 9.16026 C 4.91704 9.06653, 4.89839 8.96839, 4.8822 8.86632, 4.86601 8.76425, 4.84147 8.66365, 4.80908 8.56354, 4.72321 8.31818, 4.60052 8.11257, 4.44153 7.94768, 4.28254 7.7828, 4.08134 7.70036, 3.83892 7.69987, 3.6127 7.70036, 3.38893 7.78182, 3.16761 7.94376, 2.94679 8.10619, 2.74461 8.31523, 2.56108 8.57139, 2.30247 8.93305, 2.10864 9.30895, 1.97908 9.69858, 1.84953 10.0887, 1.73078 10.4955, 1.62282 10.919, 1.51535 11.3381, 1.42653 11.7439, 1.35587 12.136, 1.31317 12.3352, 1.29158 12.5237, 1.29158 12.7013, 1.29158 12.8902, 1.31317 13.0733, 1.35587 13.2509, 1.40494 13.4973, 1.49229 13.7004, 1.61889 13.8599, 1.7455 14.0199, 1.92216 14.0994, 2.14838 14.0989, 2.39669 14.0994, 2.64598 14.013, 2.89674 13.8403, 3.1475 13.6675, 3.38059 13.4556, 3.59602 13.2038, 3.68238 13.0998, 3.76482 12.9992, 3.84285 12.902, 3.92136 12.8053, 3.99007 12.7018, 4.04895 12.5914 L 4.93863 9.16026 Z" stroke="none" fill="#000000" />
			<path d="M 1.58403 1.17511 L 1.58403 2.06768 C 1.58403 2.12071, 1.59392 2.1699, 1.61371 2.21525, 1.63349 2.26086, 1.66592 2.29082, 1.71099 2.30511, 1.78051 2.33753, 1.89373 2.3554, 2.05064 2.35814, 2.20756 2.36117, 2.36585 2.36254, 2.52578 2.36227 L 2.52578 2.7404 C 2.06411 2.72281, 1.61151 2.71402, 1.16742 2.71402, 0.729934 2.71402, 0.269636 2.72281, -0.213471 2.7404 L -0.213471 2.36227 C -0.0474887 2.36254, 0.112722 2.36117, 0.266613 2.35814, 0.420504 2.3554, 0.535372 2.33753, 0.610669 2.30511, 0.656011 2.29082, 0.689263 2.26086, 0.710423 2.21525, 0.731583 2.1699, 0.742025 2.12071, 0.742025 2.06768 L 0.742025 1.17511, -1.83894 1.17511, -1.83894 0.818963, 1.18556 -3.67904 C 1.22513 -3.73153, 1.27487 -3.75791, 1.33505 -3.75818 L 1.43481 -3.75818 C 1.53429 -3.75791, 1.58403 -3.70817, 1.58403 -3.60869 L 1.58403 0.788185, 2.55766 0.788185, 2.55766 1.17511 Z M 0.787093 -2.52266 L -1.44047 0.788185, 0.787093 0.788185 Z" stroke="none" fill="#000000" transform="matrix(1.12 0 0 1 9.93112 13.9768)" />
			<rect />
		</svg>
	</g>
	<g transform="matrix(1 0 -0 1 43.0036 75.174)">
		<svg width="42.0378685" height="33.1595688">
			<defs />
			<path d="M 7.25141 12.0496 C 7.18712 12.3068, 7.1145 12.5816, 7.03353 12.8745, 6.95256 13.168, 6.8446 13.4399, 6.70965 13.6911, 6.57519 13.9424, 6.4054 14.1597, 6.20028 14.3428, 5.99565 14.5258, 5.73949 14.6171, 5.43181 14.6171, 5.02255 14.6171, 4.69474 14.5037, 4.44938 14.276, 4.20402 14.0483, 4.06269 13.8167, 4.02491 13.5807, 3.84138 13.7907, 3.56804 14.016, 3.20393 14.2564, 2.8403 14.4969, 2.45607 14.6171, 2.05171 14.6171, 1.62576 14.6171, 1.26852 14.5101, 0.979973 14.2957, 0.691429 14.0812, 0.466678 13.8113, 0.304739 13.4865, 0.110904 13.0998, 0.00834268 12.6836, -0.00245327 12.2381 L -0.00245327 12.1203 C -0.00245327 11.7071, 0.0544706 11.2939, 0.167337 10.8798, 0.296888 10.4249, 0.477473 9.97486, 0.709095 9.52977, 0.941206 9.08518, 1.2484 8.6715, 1.63116 8.28873, 1.94424 7.97516, 2.30149 7.71115, 2.7029 7.49622, 3.10431 7.28177, 3.51259 7.1743, 3.92774 7.17381, 4.28892 7.1743, 4.58286 7.26999, 4.80908 7.46089, 5.0358 7.65227, 5.1786 7.81028, 5.23797 7.93541 L 5.20559 8.06889 C 5.24337 7.87555, 5.33366 7.72931, 5.47646 7.62969, 5.61976 7.53057, 5.76403 7.48052, 5.90928 7.48002, 6.07613 7.48052, 6.21647 7.53008, 6.32983 7.6292, 6.4 7.70821, 6.43779 7.81273, 6.4427 7.94327, 6.4427 7.99087, 6.4373 8.04337, 6.4265 8.1003 L 5.26202 12.6385 C 5.20804 12.8534, 5.17025 13.0551, 5.14866 13.2431, 5.13836 13.3378, 5.13296 13.4241, 5.13296 13.5022, 5.13296 13.5709, 5.13836 13.644, 5.14866 13.722, 5.16535 13.8481, 5.20313 13.9424, 5.26202 14.0052, 5.3214 14.068, 5.40482 14.0994, 5.51278 14.0989, 5.62614 14.0994, 5.73262 14.0523, 5.83224 13.9581, 5.93235 13.8638, 6.02411 13.724, 6.10753 13.538, 6.19096 13.3525, 6.27045 13.1297, 6.34603 12.8706, 6.4216 12.6115, 6.49962 12.3303, 6.5801 12.0261, 6.61249 11.8906, 6.70425 11.8224, 6.8554 11.8219 L 7.04138 11.8219 C 7.18173 11.8224, 7.25141 11.8798, 7.25141 11.9947 L 7.25141 12.0496 Z M 4.93863 9.16026 C 4.91704 9.06653, 4.89839 8.96839, 4.8822 8.86632, 4.86601 8.76425, 4.84147 8.66365, 4.80908 8.56354, 4.72321 8.31818, 4.60052 8.11257, 4.44153 7.94768, 4.28254 7.7828, 4.08134 7.70036, 3.83892 7.69987, 3.6127 7.70036, 3.38893 7.78182, 3.16761 7.94376, 2.94679 8.10619, 2.74461 8.31523, 2.56108 8.57139, 2.30247 8.93305, 2.10864 9.30895, 1.97908 9.69858, 1.84953 10.0887, 1.73078 10.4955, 1.62282 10.919, 1.51535 11.3381, 1.42653 11.7439, 1.35587 12.136, 1.31317 12.3352, 1.29158 12.5237, 1.29158 12.7013, 1.29158 12.8902, 1.31317 13.0733, 1.35587 13.2509, 1.40494 13.4973, 1.49229 13.7004, 1.61889 13.8599, 1.7455 14.0199, 1.92216 14.0994, 2.14838 14.0989, 2.39669 14.0994, 2.64598 14.013, 2.89674 13.8403, 3.1475 13.6675, 3.38059 13.4556, 3.59602 13.2038, 3.68238 13.0998, 3.76482 12.9992, 3.84285 12.902, 3.92136 12.8053, 3.99007 12.7018, 4.04895 12.5914 L 4.93863 9.16026 Z" stroke="none" fill="#000000" />
			<path d="M 2.32825 0.796978 C 2.32825 1.08442, 2.27411 1.35868, 2.16529 1.61947, 2.05674 1.88053, 1.89983 2.11494, 1.69428 2.32269, 1.48598 2.52523, 1.25129 2.67994, 0.990227 2.78656, 0.729163 2.89374, 0.452435 2.94705, 0.159493 2.94705, -0.093877 2.94705, -0.330209 2.89951, -0.548954 2.80415, -0.767698 2.70907, -0.957863 2.57881, -1.11945 2.4131, -1.28103 2.24767, -1.40772 2.05558, -1.50005 1.83711, -1.59211 1.61892, -1.63828 1.38643, -1.63828 1.13993, -1.63828 0.970105, -1.58167 0.842046, -1.46845 0.755483, -1.35523 0.669194, -1.23816 0.625775, -1.11752 0.6255, -0.990565 0.625775, -0.871299 0.66837, -0.759729 0.753285, -0.647883 0.838474, -0.592098 0.967357, -0.592098 1.13993, -0.592098 1.24573, -0.615456 1.3345, -0.662173 1.40622, -0.70889 1.47822, -0.766324 1.53373, -0.834476 1.5733, -0.902352 1.61287, -0.978473 1.63568, -1.06311 1.64118 L -1.11752 1.64118, -1.20794 1.64118 C -1.13841 1.88768, -0.976824 2.10917, -0.723454 2.30538, -0.46981 2.50187, -0.175494 2.59997, 0.159493 2.5997, 0.334543 2.59997, 0.505197 2.55463, 0.671179 2.46367, 0.837161 2.37298, 0.972915 2.25262, 1.07844 2.10285, 1.20238 1.92423, 1.2818 1.72142, 1.31642 1.49416, 1.35105 1.26717, 1.36836 1.03468, 1.36836 0.796978, 1.36836 0.556799, 1.36094 0.326238, 1.34582 0.104745, 1.33071 -0.116472, 1.26888 -0.325324, 1.16006 -0.522084, 1.08174 -0.665532, 0.981434 -0.784797, 0.859146 -0.880155, 0.736857 -0.975237, 0.60028 -1.02305, 0.449137 -1.02333, 0.162516 -1.02305, -0.0864573 -0.965069, -0.297782 -0.849376, -0.509107 -0.733409, -0.679761 -0.567152, -0.809468 -0.350606, -0.836674 -0.300591, -0.880368 -0.275584, -0.940825 -0.275859 L -0.977099 -0.275859 C -1.08262 -0.275584, -1.13566 -0.32395, -1.13566 -0.420956 L -1.13566 -3.50756 C -1.13566 -3.58341, -1.09169 -3.63177, -1.0043 -3.65266, -0.988916 -3.65238, -0.977649 -3.65074, -0.970229 -3.64799, -0.962535 -3.64496, -0.955939 -3.64359, -0.949894 -3.64387, -0.51213 -3.44436, -0.0609004 -3.3446, 0.403794 -3.34488, 0.87481 -3.3446, 1.32631 -3.44436, 1.75776 -3.64387, 1.7638 -3.64359, 1.76985 -3.64496, 1.77589 -3.64799, 1.78194 -3.65074, 1.79101 -3.65238, 1.8031 -3.65266, 1.90258 -3.65238, 1.95094 -3.60704, 1.94792 -3.51636, 1.94792 -3.46332, 1.93885 -3.42814, 1.92072 -3.41083, 1.70637 -3.11734, 1.43404 -2.88788, 1.10345 -2.72245, 0.773132 -2.55674, 0.422206 -2.47402, 0.0506701 -2.4743, -0.257111 -2.47402, -0.522572 -2.5092, -0.746263 -2.57982 L -0.746263 -0.900215 C -0.640463 -1.01124, -0.481077 -1.11017, -0.268378 -1.19673, -0.0556792 -1.28302, 0.183676 -1.32644, 0.449137 -1.32671, 0.708827 -1.32644, 0.954228 -1.26763, 1.18506 -1.15056, 1.4159 -1.03322, 1.61898 -0.880979, 1.79403 -0.693562, 1.97513 -0.482237, 2.10951 -0.248379, 2.19689 0.0080142, 2.28456 0.264682, 2.32825 0.52767, 2.32825 0.796978 Z" stroke="none" fill="#000000" transform="matrix(1.12 0 0 1 9.72749 13.9768)" />
			<rect />
		</svg>
	</g>
	<g transform="matrix(1 0 -0 1 161.198 79.8168)">
		<svg width="36.0099602" height="45.2233963">
			<defs />
			<path d="M 5.68919 10.9269 C 5.55964 11.3827, 5.37808 11.8332, 5.14351 12.2778, 4.90894 12.7229, 4.60322 13.1336, 4.22537 13.51, 3.91278 13.8246, 3.55848 14.0876, 3.16197 14.2996, 2.76596 14.5116, 2.35473 14.6171, 1.92879 14.6171, 1.51903 14.6171, 1.17651 14.5077, 0.901704 14.2878, 0.626899 14.068, 0.416379 13.7956, 0.270634 13.4708, 0.0983905 13.0841, 0.00662541 12.6679, -0.00417048 12.2224 L -0.00417048 12.1203 C -0.00417048 11.7071, 0.049809 11.2964, 0.157768 10.8876 L 1.78304 4.56709 C 1.82622 4.39485, 1.85321 4.26383, 1.86401 4.17452 L 1.86401 4.15096 C 1.86401 4.10434, 1.85321 4.07048, 1.83162 4.04889, 1.76685 4.00767, 1.64564 3.97872, 1.46751 3.96301, 1.28986 3.94731, 1.08474 3.93946, 0.853122 3.93897, 0.772643 3.93946, 0.713266 3.91345, 0.67499 3.86045, 0.642602 3.82954, 0.626408 3.79028, 0.626408 3.74268, 0.626408 3.71176, 0.63475 3.68281, 0.650944 3.65631 L 0.67499 3.53069 C 0.718173 3.40555, 0.815336 3.32704, 0.966479 3.29514 L 3.10946 3.12241, 3.14185 3.12241 C 3.20663 3.1229, 3.26012 3.144, 3.3033 3.18522, 3.32489 3.22742, 3.33569 3.26962, 3.33569 3.31084, 3.33569 3.34274, 3.32784 3.37169, 3.31164 3.39721 L 2.14716 7.91971 C 2.26591 7.79998, 2.48428 7.6454, 2.80227 7.45696, 3.12026 7.26852, 3.45444 7.1743, 3.80482 7.17381, 4.23077 7.1743, 4.59096 7.28423, 4.88441 7.50407, 5.17835 7.72391, 5.40359 7.99332, 5.55964 8.31229, 5.74317 8.69996, 5.83985 9.11904, 5.85064 9.56854 L 5.85064 9.67846 C 5.85064 10.0818, 5.79715 10.498, 5.68919 10.9269 Z M 4.51637 8.53998 C 4.46828 8.28923, 4.37651 8.08656, 4.24156 7.93198, 4.1071 7.77789, 3.93192 7.70036, 3.716 7.69987, 3.45739 7.70036, 3.20417 7.78427, 2.95587 7.95161, 2.70805 8.11944, 2.47594 8.33094, 2.26002 8.58709, 2.09318 8.80203, 1.94743 9.00372, 1.82328 9.19166 L 1.37869 10.919 C 1.27073 11.3381, 1.19025 11.7415, 1.13627 12.1281, 1.11468 12.2911, 1.10388 12.4452, 1.10388 12.5914, 1.10388 12.822, 1.13087 13.0419, 1.18485 13.2509, 1.24423 13.4924, 1.34237 13.694, 1.47977 13.856, 1.61718 14.0184, 1.79923 14.0994, 2.02546 14.0989, 2.25217 14.0994, 2.47741 14.016, 2.70118 13.8481, 2.92495 13.6808, 3.12566 13.4713, 3.3033 13.2195, 3.5624 12.8691, 3.75771 12.4967, 3.88971 12.1012, 4.02221 11.7061, 4.14194 11.3018, 4.24941 10.8876, 4.35737 10.4587, 4.45208 10.0455, 4.53256 9.64706, 4.56495 9.45911, 4.58114 9.27607, 4.58114 9.09745, 4.58114 8.9095, 4.55955 8.72352, 4.51637 8.53998 Z" stroke="none" fill="#000000" />
			<path d="M 2.04975 2.7404 L -1.63593 2.7404, -1.63593 2.49857 C -1.63593 2.48126, -1.62686 2.45487, -1.60872 2.41943 L -0.128074 0.810169 C 0.0472517 0.616981, 0.224501 0.419122, 0.404223 0.216866, 0.583945 0.0146096, 0.744431 -0.192044, 0.88623 -0.403094, 1.02803 -0.614144, 1.14125 -0.831789, 1.22589 -1.05603, 1.31053 -1.28027, 1.35257 -1.5155, 1.35257 -1.762, 1.35257 -1.96976, 1.32564 -2.16404, 1.27123 -2.34431, 1.21682 -2.52459, 1.1385 -2.68287, 1.03572 -2.81918, 0.932947 -2.95548, 0.804614 -3.0654, 0.650723 -3.14894, 0.496832 -3.23248, 0.318759 -3.27425, 0.116503 -3.27453, -0.185233 -3.27425, -0.451793 -3.18412, -0.682629 -3.00385, -0.913465 -2.82357, -1.06681 -2.62489, -1.14238 -2.40834, -1.15722 -2.4023, -1.13303 -2.39928, -1.06983 -2.39955 L -0.992884 -2.39955 C -0.902198 -2.37866, -0.823879 -2.34706, -0.757376 -2.30474, -0.690874 -2.26215, -0.635088 -2.20361, -0.589745 -2.12887, -0.544403 -2.05412, -0.521869 -1.96398, -0.521869 -1.85873, -0.521869 -1.68258, -0.579028 -1.54766, -0.693896 -1.45395, -0.808765 -1.35996, -0.937099 -1.31325, -1.0789 -1.31352, -1.21465 -1.31325, -1.34134 -1.35996, -1.45923 -1.45395, -1.57684 -1.54766, -1.63593 -1.68258, -1.63593 -1.85873, -1.63593 -2.10468, -1.58756 -2.33772, -1.49083 -2.55756, -1.3941 -2.77741, -1.26302 -2.96785, -1.09703 -3.12916, -0.931053 -3.29019, -0.734842 -3.4177, -0.508403 -3.51168, -0.281964 -3.60539, -0.041785 -3.65238, 0.211585 -3.65266, 0.525412 -3.65238, 0.813133 -3.60622, 1.0742 -3.51388, 1.33526 -3.42155, 1.55785 -3.28882, 1.74197 -3.11597, 1.92609 -2.94284, 2.07036 -2.74278, 2.17451 -2.51579, 2.27867 -2.28853, 2.3306 -2.03736, 2.3306 -1.762, 2.3306 -1.45697, 2.26135 -1.17612, 2.1223 -0.919726, 1.98353 -0.663059, 1.8115 -0.427826, 1.60622 -0.214028, 1.40094 4.48227e-005, 1.18274 0.201477, 0.951909 0.390542, 0.721073 0.579608, 0.511946 0.763452, 0.324805 0.942075 L -0.716705 1.92258, 0.646326 1.92258 C 0.836491 1.92285, 1.01401 1.92148, 1.17835 1.91846, 1.34296 1.91571, 1.48256 1.90966, 1.59715 1.90087, 1.71202 1.89208, 1.77083 1.8863, 1.77357 1.88301, 1.79776 1.86267, 1.82057 1.82173, 1.84173 1.76017, 1.86289 1.69861, 1.8824 1.62606, 1.90053 1.54252, 1.91867 1.45898, 1.93681 1.37407, 1.95495 1.2875, 1.97308 1.20122, 1.98957 1.10641, 2.00469 1.00363 L 2.33967 1.00363 Z" stroke="none" fill="#000000" transform="matrix(1.12 0 0 1 8.32844 13.9768)" />
			<rect />
		</svg>
	</g>
	<g transform="matrix(1 0 -0 1 112.9 125.888)">
		<svg width="38.880394" height="45.2233963">
			<defs />
			<path d="M 5.68919 10.9269 C 5.55964 11.3827, 5.37808 11.8332, 5.14351 12.2778, 4.90894 12.7229, 4.60322 13.1336, 4.22537 13.51, 3.91278 13.8246, 3.55848 14.0876, 3.16197 14.2996, 2.76596 14.5116, 2.35473 14.6171, 1.92879 14.6171, 1.51903 14.6171, 1.17651 14.5077, 0.901704 14.2878, 0.626899 14.068, 0.416379 13.7956, 0.270634 13.4708, 0.0983905 13.0841, 0.00662541 12.6679, -0.00417048 12.2224 L -0.00417048 12.1203 C -0.00417048 11.7071, 0.049809 11.2964, 0.157768 10.8876 L 1.78304 4.56709 C 1.82622 4.39485, 1.85321 4.26383, 1.86401 4.17452 L 1.86401 4.15096 C 1.86401 4.10434, 1.85321 4.07048, 1.83162 4.04889, 1.76685 4.00767, 1.64564 3.97872, 1.46751 3.96301, 1.28986 3.94731, 1.08474 3.93946, 0.853122 3.93897, 0.772643 3.93946, 0.713266 3.91345, 0.67499 3.86045, 0.642602 3.82954, 0.626408 3.79028, 0.626408 3.74268, 0.626408 3.71176, 0.63475 3.68281, 0.650944 3.65631 L 0.67499 3.53069 C 0.718173 3.40555, 0.815336 3.32704, 0.966479 3.29514 L 3.10946 3.12241, 3.14185 3.12241 C 3.20663 3.1229, 3.26012 3.144, 3.3033 3.18522, 3.32489 3.22742, 3.33569 3.26962, 3.33569 3.31084, 3.33569 3.34274, 3.32784 3.37169, 3.31164 3.39721 L 2.14716 7.91971 C 2.26591 7.79998, 2.48428 7.6454, 2.80227 7.45696, 3.12026 7.26852, 3.45444 7.1743, 3.80482 7.17381, 4.23077 7.1743, 4.59096 7.28423, 4.88441 7.50407, 5.17835 7.72391, 5.40359 7.99332, 5.55964 8.31229, 5.74317 8.69996, 5.83985 9.11904, 5.85064 9.56854 L 5.85064 9.67846 C 5.85064 10.0818, 5.79715 10.498, 5.68919 10.9269 Z M 4.51637 8.53998 C 4.46828 8.28923, 4.37651 8.08656, 4.24156 7.93198, 4.1071 7.77789, 3.93192 7.70036, 3.716 7.69987, 3.45739 7.70036, 3.20417 7.78427, 2.95587 7.95161, 2.70805 8.11944, 2.47594 8.33094, 2.26002 8.58709, 2.09318 8.80203, 1.94743 9.00372, 1.82328 9.19166 L 1.37869 10.919 C 1.27073 11.3381, 1.19025 11.7415, 1.13627 12.1281, 1.11468 12.2911, 1.10388 12.4452, 1.10388 12.5914, 1.10388 12.822, 1.13087 13.0419, 1.18485 13.2509, 1.24423 13.4924, 1.34237 13.694, 1.47977 13.856, 1.61718 14.0184, 1.79923 14.0994, 2.02546 14.0989, 2.25217 14.0994, 2.47741 14.016, 2.70118 13.8481, 2.92495 13.6808, 3.12566 13.4713, 3.3033 13.2195, 3.5624 12.8691, 3.75771 12.4967, 3.88971 12.1012, 4.02221 11.7061, 4.14194 11.3018, 4.24941 10.8876, 4.35737 10.4587, 4.45208 10.0455, 4.53256 9.64706, 4.56495 9.45911, 4.58114 9.27607, 4.58114 9.09745, 4.58114 8.9095, 4.55955 8.72352, 4.51637 8.53998 Z" stroke="none" fill="#000000" />
			<path d="M 2.41655 1.08278 C 2.41655 1.33505, 2.36077 1.57715, 2.2492 1.80853, 2.13763 2.04019, 1.98813 2.23805, 1.80072 2.40184, 1.58967 2.58678, 1.35636 2.72363, 1.10134 2.81295, 0.846319 2.90253, 0.579759 2.94705, 0.301931 2.94705, 0.051584 2.94705, -0.192717 2.91188, -0.431248 2.84153, -0.669778 2.77118, -0.884675 2.67032, -1.07649 2.53842, -1.2683 2.40651, -1.42137 2.24465, -1.53624 2.05256, -1.65083 1.86075, -1.70827 1.64008, -1.70827 1.39056, -1.70827 1.20314, -1.64561 1.06326, -1.5203 0.97093, -1.39499 0.878595, -1.26308 0.832428, -1.12431 0.832154, -0.979208 0.832428, -0.844279 0.878595, -0.718968 0.97093, -0.593657 1.06326, -0.531002 1.20314, -0.531002 1.39056, -0.531002 1.50213, -0.552711 1.59529, -0.59668 1.67003, -0.640374 1.74478, -0.696159 1.80716, -0.764311 1.8569, -0.832188 1.90691, -0.909958 1.93742, -0.997345 1.94896, -1.04241 1.96105, -1.08473 1.96682, -1.12431 1.96655, -1.16333 1.96682, -1.16937 1.96984, -1.14244 1.97534, -1.04873 2.13967, -0.864615 2.28505, -0.58981 2.41091, -0.315005 2.53704, -0.0179415 2.59997, 0.301931 2.5997, 0.453074 2.59997, 0.594049 2.5626, 0.725405 2.48785, 0.856762 2.4131, 0.966409 2.3128, 1.0538 2.18639, 1.16262 2.02261, 1.23654 1.84673, 1.27556 1.65904, 1.31486 1.47162, 1.33437 1.27954, 1.33437 1.08278, 1.33437 0.880794, 1.31486 0.686782, 1.27556 0.500464, 1.23654 0.314421, 1.16262 0.142119, 1.0538 -0.0164435, 0.963111 -0.145052, 0.852915 -0.249203, 0.723207 -0.328347, 0.593499 -0.40749, 0.453074 -0.447062, 0.301931 -0.447337 L -0.354577 -0.447337 C -0.441965 -0.447062, -0.488682 -0.488008, -0.494728 -0.57045 L -0.494728 -0.618815 C -0.494728 -0.653715, -0.48401 -0.681471, -0.463125 -0.702356, -0.435919 -0.728462, -0.401294 -0.741653, -0.358974 -0.741928, -0.271311 -0.753469, -0.180901 -0.75924, -0.0874671 -0.759515, 0.00321841 -0.75924, 0.09253 -0.765011, 0.179918 -0.777103, 0.342877 -0.788645, 0.484676 -0.838934, 0.605315 -0.92852, 0.726229 -1.01783, 0.827358 -1.13215, 0.9087 -1.27148, 0.990317 -1.41053, 1.05215 -1.57101, 1.09447 -1.75293, 1.13679 -1.93458, 1.15795 -2.1209, 1.15795 -2.31161, 1.15795 -2.45204, 1.14283 -2.58532, 1.1126 -2.71145, 1.08238 -2.83731, 1.02659 -2.94751, 0.944974 -3.04149, 0.775969 -3.23468, 0.561621 -3.33004, 0.301931 -3.32729, 0.0243783 -3.32702, -0.229816 -3.2748, -0.460652 -3.17093, -0.691488 -3.06678, -0.846478 -2.95466, -0.925072 -2.83484, -0.945957 -2.83154, -0.935514 -2.83017, -0.893194 -2.83044, -0.784372 -2.83017, -0.68187 -2.79802, -0.585413 -2.73371, -0.440316 -2.64852, -0.368043 -2.5048, -0.368043 -2.30282, -0.368043 -2.13244, -0.423004 -2.00411, -0.5332 -1.91782, -0.643397 -1.83125, -0.766509 -1.78811, -0.902263 -1.78838, -1.03499 -1.78811, -1.15948 -1.83043, -1.27572 -1.91562, -1.39196 -2.00053, -1.45022 -2.12969, -1.45022 -2.30282, -1.45022 -2.51662, -1.39884 -2.70541, -1.29633 -2.86974, -1.19356 -3.0338, -1.06165 -3.1745, -0.900064 -3.29184, -0.738479 -3.40891, -0.552162 -3.49849, -0.340837 -3.56005, -0.129512 -3.62161, 0.0848355 -3.65238, 0.301931 -3.65266, 0.534416 -3.65238, 0.759481 -3.62161, 0.976851 -3.56005, 1.19422 -3.49849, 1.3995 -3.40314, 1.59241 -3.27453, 1.7496 -3.16296, 1.88151 -3.02583, 1.98868 -2.86315, 2.09586 -2.70046, 2.14944 -2.51662, 2.14944 -2.31161, 2.14944 -2.10606, 2.11262 -1.9126, 2.0387 -1.73095, 1.96477 -1.54903, 1.86667 -1.38497, 1.74438 -1.2385, 1.62209 -1.09175, 1.47645 -0.962871, 1.30744 -0.851575, 1.13844 -0.740004, 1.01148 -0.669929, 0.926837 -0.6408, 0.999385 -0.631731, 1.12332 -0.588312, 1.29837 -0.510817, 1.47342 -0.433047, 1.64078 -0.329721, 1.80072 -0.201112, 1.98813 -0.0395269, 2.13763 0.153111, 2.2492 0.377352, 2.36077 0.601592, 2.41655 0.836825, 2.41655 1.08278 Z" stroke="none" fill="#000000" transform="matrix(1.12 0 0 1 8.40071 13.9768)" />
			<rect />
		</svg>
	</g>
	<g transform="matrix(1 0 -0 1 53.1052 98.7454)">
		<svg width="38.880394" height="45.2233963">
			<defs />
			<path d="M 5.68919 10.9269 C 5.55964 11.3827, 5.37808 11.8332, 5.14351 12.2778, 4.90894 12.7229, 4.60322 13.1336, 4.22537 13.51, 3.91278 13.8246, 3.55848 14.0876, 3.16197 14.2996, 2.76596 14.5116, 2.35473 14.6171, 1.92879 14.6171, 1.51903 14.6171, 1.17651 14.5077, 0.901704 14.2878, 0.626899 14.068, 0.416379 13.7956, 0.270634 13.4708, 0.0983905 13.0841, 0.00662541 12.6679, -0.00417048 12.2224 L -0.00417048 12.1203 C -0.00417048 11.7071, 0.049809 11.2964, 0.157768 10.8876 L 1.78304 4.56709 C 1.82622 4.39485, 1.85321 4.26383, 1.86401 4.17452 L 1.86401 4.15096 C 1.86401 4.10434, 1.85321 4.07048, 1.83162 4.04889, 1.76685 4.00767, 1.64564 3.97872, 1.46751 3.96301, 1.28986 3.94731, 1.08474 3.93946, 0.853122 3.93897, 0.772643 3.93946, 0.713266 3.91345, 0.67499 3.86045, 0.642602 3.82954, 0.626408 3.79028, 0.626408 3.74268, 0.626408 3.71176, 0.63475 3.68281, 0.650944 3.65631 L 0.67499 3.53069 C 0.718173 3.40555, 0.815336 3.32704, 0.966479 3.29514 L 3.10946 3.12241, 3.14185 3.12241 C 3.20663 3.1229, 3.26012 3.144, 3.3033 3.18522, 3.32489 3.22742, 3.33569 3.26962, 3.33569 3.31084, 3.33569 3.34274, 3.32784 3.37169, 3.31164 3.39721 L 2.14716 7.91971 C 2.26591 7.79998, 2.48428 7.6454, 2.80227 7.45696, 3.12026 7.26852, 3.45444 7.1743, 3.80482 7.17381, 4.23077 7.1743, 4.59096 7.28423, 4.88441 7.50407, 5.17835 7.72391, 5.40359 7.99332, 5.55964 8.31229, 5.74317 8.69996, 5.83985 9.11904, 5.85064 9.56854 L 5.85064 9.67846 C 5.85064 10.0818, 5.79715 10.498, 5.68919 10.9269 Z M 4.51637 8.53998 C 4.46828 8.28923, 4.37651 8.08656, 4.24156 7.93198, 4.1071 7.77789, 3.93192 7.70036, 3.716 7.69987, 3.45739 7.70036, 3.20417 7.78427, 2.95587 7.95161, 2.70805 8.11944, 2.47594 8.33094, 2.26002 8.58709, 2.09318 8.80203, 1.94743 9.00372, 1.82328 9.19166 L 1.37869 10.919 C 1.27073 11.3381, 1.19025 11.7415, 1.13627 12.1281, 1.11468 12.2911, 1.10388 12.4452, 1.10388 12.5914, 1.10388 12.822, 1.13087 13.0419, 1.18485 13.2509, 1.24423 13.4924, 1.34237 13.694, 1.47977 13.856, 1.61718 14.0184, 1.79923 14.0994, 2.02546 14.0989, 2.25217 14.0994, 2.47741 14.016, 2.70118 13.8481, 2.92495 13.6808, 3.12566 13.4713, 3.3033 13.2195, 3.5624 12.8691, 3.75771 12.4967, 3.88971 12.1012, 4.02221 11.7061, 4.14194 11.3018, 4.24941 10.8876, 4.35737 10.4587, 4.45208 10.0455, 4.53256 9.64706, 4.56495 9.45911, 4.58114 9.27607, 4.58114 9.09745, 4.58114 8.9095, 4.55955 8.72352, 4.51637 8.53998 Z" stroke="none" fill="#000000" />
			<path d="M 1.58403 1.17511 L 1.58403 2.06768 C 1.58403 2.12071, 1.59392 2.1699, 1.61371 2.21525, 1.63349 2.26086, 1.66592 2.29082, 1.71099 2.30511, 1.78051 2.33753, 1.89373 2.3554, 2.05064 2.35814, 2.20756 2.36117, 2.36585 2.36254, 2.52578 2.36227 L 2.52578 2.7404 C 2.06411 2.72281, 1.61151 2.71402, 1.16742 2.71402, 0.729934 2.71402, 0.269636 2.72281, -0.213471 2.7404 L -0.213471 2.36227 C -0.0474887 2.36254, 0.112722 2.36117, 0.266613 2.35814, 0.420504 2.3554, 0.535372 2.33753, 0.610669 2.30511, 0.656011 2.29082, 0.689263 2.26086, 0.710423 2.21525, 0.731583 2.1699, 0.742025 2.12071, 0.742025 2.06768 L 0.742025 1.17511, -1.83894 1.17511, -1.83894 0.818963, 1.18556 -3.67904 C 1.22513 -3.73153, 1.27487 -3.75791, 1.33505 -3.75818 L 1.43481 -3.75818 C 1.53429 -3.75791, 1.58403 -3.70817, 1.58403 -3.60869 L 1.58403 0.788185, 2.55766 0.788185, 2.55766 1.17511 Z M 0.787093 -2.52266 L -1.44047 0.788185, 0.787093 0.788185 Z" stroke="none" fill="#000000" transform="matrix(1.12 0 0 1 8.53207 13.9768)" />
			<rect />
		</svg>
	</g>
	<g transform="matrix(1 0 -0 1 64.4175 39.1025)">
		<svg width="36.0099602" height="45.2233963">
			<defs />
			<path d="M 5.68919 10.9269 C 5.55964 11.3827, 5.37808 11.8332, 5.14351 12.2778, 4.90894 12.7229, 4.60322 13.1336, 4.22537 13.51, 3.91278 13.8246, 3.55848 14.0876, 3.16197 14.2996, 2.76596 14.5116, 2.35473 14.6171, 1.92879 14.6171, 1.51903 14.6171, 1.17651 14.5077, 0.901704 14.2878, 0.626899 14.068, 0.416379 13.7956, 0.270634 13.4708, 0.0983905 13.0841, 0.00662541 12.6679, -0.00417048 12.2224 L -0.00417048 12.1203 C -0.00417048 11.7071, 0.049809 11.2964, 0.157768 10.8876 L 1.78304 4.56709 C 1.82622 4.39485, 1.85321 4.26383, 1.86401 4.17452 L 1.86401 4.15096 C 1.86401 4.10434, 1.85321 4.07048, 1.83162 4.04889, 1.76685 4.00767, 1.64564 3.97872, 1.46751 3.96301, 1.28986 3.94731, 1.08474 3.93946, 0.853122 3.93897, 0.772643 3.93946, 0.713266 3.91345, 0.67499 3.86045, 0.642602 3.82954, 0.626408 3.79028, 0.626408 3.74268, 0.626408 3.71176, 0.63475 3.68281, 0.650944 3.65631 L 0.67499 3.53069 C 0.718173 3.40555, 0.815336 3.32704, 0.966479 3.29514 L 3.10946 3.12241, 3.14185 3.12241 C 3.20663 3.1229, 3.26012 3.144, 3.3033 3.18522, 3.32489 3.22742, 3.33569 3.26962, 3.33569 3.31084, 3.33569 3.34274, 3.32784 3.37169, 3.31164 3.39721 L 2.14716 7.91971 C 2.26591 7.79998, 2.48428 7.6454, 2.80227 7.45696, 3.12026 7.26852, 3.45444 7.1743, 3.80482 7.17381, 4.23077 7.1743, 4.59096 7.28423, 4.88441 7.50407, 5.17835 7.72391, 5.40359 7.99332, 5.55964 8.31229, 5.74317 8.69996, 5.83985 9.11904, 5.85064 9.56854 L 5.85064 9.67846 C 5.85064 10.0818, 5.79715 10.498, 5.68919 10.9269 Z M 4.51637 8.53998 C 4.46828 8.28923, 4.37651 8.08656, 4.24156 7.93198, 4.1071 7.77789, 3.93192 7.70036, 3.716 7.69987, 3.45739 7.70036, 3.20417 7.78427, 2.95587 7.95161, 2.70805 8.11944, 2.47594 8.33094, 2.26002 8.58709, 2.09318 8.80203, 1.94743 9.00372, 1.82328 9.19166 L 1.37869 10.919 C 1.27073 11.3381, 1.19025 11.7415, 1.13627 12.1281, 1.11468 12.2911, 1.10388 12.4452, 1.10388 12.5914, 1.10388 12.822, 1.13087 13.0419, 1.18485 13.2509, 1.24423 13.4924, 1.34237 13.694, 1.47977 13.856, 1.61718 14.0184, 1.79923 14.0994, 2.02546 14.0989, 2.25217 14.0994, 2.47741 14.016, 2.70118 13.8481, 2.92495 13.6808, 3.12566 13.4713, 3.3033 13.2195, 3.5624 12.8691, 3.75771 12.4967, 3.88971 12.1012, 4.02221 11.7061, 4.14194 11.3018, 4.24941 10.8876, 4.35737 10.4587, 4.45208 10.0455, 4.53256 9.64706, 4.56495 9.45911, 4.58114 9.27607, 4.58114 9.09745, 4.58114 8.9095, 4.55955 8.72352, 4.51637 8.53998 Z" stroke="none" fill="#000000" />
			<path d="M 2.32825 0.796978 C 2.32825 1.08442, 2.27411 1.35868, 2.16529 1.61947, 2.05674 1.88053, 1.89983 2.11494, 1.69428 2.32269, 1.48598 2.52523, 1.25129 2.67994, 0.990227 2.78656, 0.729163 2.89374, 0.452435 2.94705, 0.159493 2.94705, -0.093877 2.94705, -0.330209 2.89951, -0.548954 2.80415, -0.767698 2.70907, -0.957863 2.57881, -1.11945 2.4131, -1.28103 2.24767, -1.40772 2.05558, -1.50005 1.83711, -1.59211 1.61892, -1.63828 1.38643, -1.63828 1.13993, -1.63828 0.970105, -1.58167 0.842046, -1.46845 0.755483, -1.35523 0.669194, -1.23816 0.625775, -1.11752 0.6255, -0.990565 0.625775, -0.871299 0.66837, -0.759729 0.753285, -0.647883 0.838474, -0.592098 0.967357, -0.592098 1.13993, -0.592098 1.24573, -0.615456 1.3345, -0.662173 1.40622, -0.70889 1.47822, -0.766324 1.53373, -0.834476 1.5733, -0.902352 1.61287, -0.978473 1.63568, -1.06311 1.64118 L -1.11752 1.64118, -1.20794 1.64118 C -1.13841 1.88768, -0.976824 2.10917, -0.723454 2.30538, -0.46981 2.50187, -0.175494 2.59997, 0.159493 2.5997, 0.334543 2.59997, 0.505197 2.55463, 0.671179 2.46367, 0.837161 2.37298, 0.972915 2.25262, 1.07844 2.10285, 1.20238 1.92423, 1.2818 1.72142, 1.31642 1.49416, 1.35105 1.26717, 1.36836 1.03468, 1.36836 0.796978, 1.36836 0.556799, 1.36094 0.326238, 1.34582 0.104745, 1.33071 -0.116472, 1.26888 -0.325324, 1.16006 -0.522084, 1.08174 -0.665532, 0.981434 -0.784797, 0.859146 -0.880155, 0.736857 -0.975237, 0.60028 -1.02305, 0.449137 -1.02333, 0.162516 -1.02305, -0.0864573 -0.965069, -0.297782 -0.849376, -0.509107 -0.733409, -0.679761 -0.567152, -0.809468 -0.350606, -0.836674 -0.300591, -0.880368 -0.275584, -0.940825 -0.275859 L -0.977099 -0.275859 C -1.08262 -0.275584, -1.13566 -0.32395, -1.13566 -0.420956 L -1.13566 -3.50756 C -1.13566 -3.58341, -1.09169 -3.63177, -1.0043 -3.65266, -0.988916 -3.65238, -0.977649 -3.65074, -0.970229 -3.64799, -0.962535 -3.64496, -0.955939 -3.64359, -0.949894 -3.64387, -0.51213 -3.44436, -0.0609004 -3.3446, 0.403794 -3.34488, 0.87481 -3.3446, 1.32631 -3.44436, 1.75776 -3.64387, 1.7638 -3.64359, 1.76985 -3.64496, 1.77589 -3.64799, 1.78194 -3.65074, 1.79101 -3.65238, 1.8031 -3.65266, 1.90258 -3.65238, 1.95094 -3.60704, 1.94792 -3.51636, 1.94792 -3.46332, 1.93885 -3.42814, 1.92072 -3.41083, 1.70637 -3.11734, 1.43404 -2.88788, 1.10345 -2.72245, 0.773132 -2.55674, 0.422206 -2.47402, 0.0506701 -2.4743, -0.257111 -2.47402, -0.522572 -2.5092, -0.746263 -2.57982 L -0.746263 -0.900215 C -0.640463 -1.01124, -0.481077 -1.11017, -0.268378 -1.19673, -0.0556792 -1.28302, 0.183676 -1.32644, 0.449137 -1.32671, 0.708827 -1.32644, 0.954228 -1.26763, 1.18506 -1.15056, 1.4159 -1.03322, 1.61898 -0.880979, 1.79403 -0.693562, 1.97513 -0.482237, 2.10951 -0.248379, 2.19689 0.0080142, 2.28456 0.264682, 2.32825 0.52767, 2.32825 0.796978 Z" stroke="none" fill="#000000" transform="matrix(1.12 0 0 1 8.32844 13.9768)" />
			<rect />
		</svg>
	</g>
	<g transform="matrix(1 0 -0 1 84.7957 95.4022)">
		<svg width="36.0099602" height="42.0638199">
			<defs />
			<path d="M 10.5125 8.92471 C 10.3187 9.68435, 10.0046 10.417, 9.57081 11.1236, 9.13701 11.8303, 8.59084 12.4766, 7.93327 13.0625, 7.34048 13.5915, 6.69223 14.012, 5.98854 14.3232, 5.28533 14.6343, 4.58065 14.7898, 3.87401 14.7898, 3.16296 14.7898, 2.53091 14.6333, 1.97835 14.3192, 1.4258 14.0052, 0.985129 13.5812, 0.656345 13.0468, 0.295173 12.456, 0.0875971 11.8013, 0.0336176 11.0839, 0.0120258 10.9116, 0.00123 10.7389, 0.00123 10.5657, 0.00123 10.0269, 0.0714033 9.46941, 0.21175 8.8933, 0.416872 8.12434, 0.733388 7.37746, 1.16179 6.65217, 1.59019 5.92738, 2.13882 5.27177, 2.80718 4.68487, 3.39997 4.15685, 4.04822 3.73139, 4.75143 3.40948, 5.45512 3.08757, 6.1652 2.92661, 6.88214 2.92612, 7.59369 2.92661, 8.22329 3.08904, 8.76995 3.41341, 9.31711 3.73826, 9.75483 4.16716, 10.0836 4.70057, 10.4448 5.29238, 10.6578 5.95191, 10.7225 6.67916, 10.7333 6.85779, 10.7387 7.03298, 10.7387 7.20522, 10.7387 7.76562, 10.6637 8.33879, 10.5125 8.92471 Z M 8.87889 4.96752 C 8.70125 4.52833, 8.43479 4.17108, 8.07901 3.89628, 7.72324 3.62147, 7.2865 3.48407, 6.76879 3.48358, 6.25696 3.48407, 5.74759 3.62442, 5.24068 3.90413, 4.73425 4.18433, 4.28131 4.54648, 3.88236 4.99108, 3.38133 5.53087, 2.98531 6.11582, 2.69383 6.74639, 2.40283 7.37746, 2.1766 8.01687, 2.01466 8.66561, 1.82623 9.37274, 1.70993 10.0612, 1.66674 10.7306, 1.65595 10.8567, 1.65055 10.9823, 1.65055 11.1074, 1.65055 11.6315, 1.73692 12.1443, 1.90965 12.6464, 2.0765 13.0919, 2.33265 13.4649, 2.67763 13.7657, 3.02261 14.067, 3.45395 14.2172, 3.97118 14.2167, 4.50508 14.2172, 5.02623 14.064, 5.5356 13.7578, 6.04497 13.4516, 6.50183 13.0733, 6.90619 12.6228, 7.4293 12.0163, 7.83611 11.3749, 8.12711 10.6997, 8.41859 10.0244, 8.65561 9.33594, 8.83865 8.6342, 9.00599 7.98056, 9.111 7.33673, 9.15419 6.70272 L 9.15419 6.42791 C 9.15419 5.9048, 9.06242 5.41801, 8.87889 4.96752 Z" stroke="none" fill="#000000" />
			<rect />
		</svg>
	</g>
	<path d="M 0 -16.3202 L 17.0217 16.3202, -17.0217 16.3202 Z" stroke="none" fill="#FFFFFF" transform="matrix(0.25 0 -0 0.25 67.0097 29.1754)" />
	<path d="M 0 -16.3202 L 17.0217 16.3202, -17.0217 16.3202 Z" fill="none" stroke="#000000" stroke-width="4.80000019" stroke-linecap="round" stroke-linejoin="round" transform="matrix(0.25 0 -0 0.25 67.0097 29.1754)" />
	<path d="M 0 -16.3202 L 17.0217 16.3202, -17.0217 16.3202 Z" stroke="none" fill="#FFFFFF" transform="matrix(0.25 0 -0 0.25 115.26 90.9254)" />
	<path d="M 0 -16.3202 L 17.0217 16.3202, -17.0217 16.3202 Z" fill="none" stroke="#000000" stroke-width="4.80000019" stroke-linecap="round" stroke-linejoin="round" transform="matrix(0.25 0 -0 0.25 115.26 90.9254)" />
	<ellipse cx="1405.0113525390625" cy="381.30133056640625" rx="16" ry="16" stroke="none" fill="#000000" transform="matrix(0.25 0 0 0.25 -197.743 -60.1501)" />
	<ellipse cx="1405.0113935470581" cy="381.30134105682373" rx="10.666666984558105" ry="10.666666984558105" stroke="none" fill="#FFFFFF" transform="matrix(0.25 0 0 0.25 -197.743 -60.1501)" />
	<ellipse cx="1523.0113525390625" cy="660.30133056640625" rx="16" ry="16" stroke="none" fill="#000000" transform="matrix(0.25 0 0 0.25 -197.743 -60.1501)" />
	<ellipse cx="1523.0113935470581" cy="660.30131053924561" rx="10.666666984558105" ry="10.666666984558105" stroke="none" fill="#FFFFFF" transform="matrix(0.25 0 0 0.25 -197.743 -60.1501)" />
	<ellipse cx="1215.0113525390625" cy="884.30126953125" rx="16" ry="16" stroke="none" fill="#000000" transform="matrix(0.25 0 0 0.25 -197.743 -60.1501)" />
	<ellipse cx="1215.0113935470581" cy="884.30124950408936" rx="10.666666984558105" ry="10.666666984558105" stroke="none" fill="#FFFFFF" transform="matrix(0.25 0 0 0.25 -197.743 -60.1501)" />
	<ellipse cx="908.0113525390625" cy="641.30126953125" rx="16" ry="16" stroke="none" fill="#000000" transform="matrix(0.25 0 0 0.25 -197.743 -60.1501)" />
	<ellipse cx="908.01133251190186" cy="641.30124950408936" rx="10.666666984558105" ry="10.666666984558105" stroke="none" fill="#FFFFFF" transform="matrix(0.25 0 0 0.25 -197.743 -60.1501)" />
</svg>
