<?xml version="1.0"?>
<svg xmlns="http://www.w3.org/2000/svg" xmlns:xlink="http://www.w3.org/1999/xlink" width="561.393494" height="196.397415">
	<defs />
	<ellipse cx="653.23558330535889" cy="513.23057842254639" rx="6.8249998092651367" ry="6.8249998092651367" stroke="none" fill="#000000" transform="matrix(0.384615 0 0 0.384615 -186.611 -140.263)" />
	<ellipse cx="653.23558330535889" cy="548.76396465301514" rx="6.8249998092651367" ry="6.8249998092651367" stroke="none" fill="#000000" transform="matrix(0.384615 0 0 0.384615 -186.611 -140.263)" />
	<ellipse cx="628.96922588348389" cy="566.09733867645264" rx="6.8249998092651367" ry="6.8249998092651367" stroke="none" fill="#000000" transform="matrix(0.384615 0 0 0.384615 -186.611 -140.263)" />
	<ellipse cx="662.76890850067139" cy="586.89750957489014" rx="6.8249998092651367" ry="6.8249998092651367" stroke="none" fill="#000000" transform="matrix(0.384615 0 0 0.384615 -186.611 -140.263)" />
	<ellipse cx="628.96922588348389" cy="599.03105449676514" rx="6.8249998092651367" ry="6.8249998092651367" stroke="none" fill="#000000" transform="matrix(0.384615 0 0 0.384615 -186.611 -140.263)" />
	<ellipse cx="714.76890850067139" cy="599.03105449676514" rx="6.8249998092651367" ry="6.8249998092651367" stroke="none" fill="#000000" transform="matrix(0.384615 0 0 0.384615 -186.611 -140.263)" />
	<ellipse cx="704.36894512176514" cy="522.76414775848389" rx="6.8249998092651367" ry="6.8249998092651367" stroke="none" fill="#000000" transform="matrix(0.384615 0 0 0.384615 -186.611 -140.263)" />
	<ellipse cx="704.36894512176514" cy="560.89750957489014" rx="6.8249998092651367" ry="6.8249998092651367" stroke="none" fill="#000000" transform="matrix(0.384615 0 0 0.384615 -186.611 -140.263)" />
	<ellipse cx="689.63585186004639" cy="623.29735088348389" rx="6.8249998092651367" ry="6.8249998092651367" stroke="none" fill="#000000" transform="matrix(0.384615 0 0 0.384615 -186.611 -140.263)" />
	<ellipse cx="748.56926250457764" cy="560.89750957489014" rx="6.8249998092651367" ry="6.8249998092651367" stroke="none" fill="#000000" transform="matrix(0.384615 0 0 0.384615 -186.611 -140.263)" />
	<ellipse cx="1302.7687253952026" cy="501.59926128387451" rx="6.8249998092651367" ry="6.8249998092651367" stroke="none" fill="#000000" transform="matrix(0.384615 0 0 0.384615 -186.611 -140.263)" />
	<ellipse cx="1295.9263181686401" cy="483.58162212371826" rx="6.8249998092651367" ry="6.8249998092651367" stroke="none" fill="#000000" transform="matrix(0.384615 0 0 0.384615 -186.611 -140.263)" />
	<ellipse cx="1306.9199705123901" cy="473.31834697723389" rx="6.8249998092651367" ry="6.8249998092651367" stroke="none" fill="#000000" transform="matrix(0.384615 0 0 0.384615 -186.611 -140.263)" />
	<ellipse cx="1317.1254148483276" cy="471.44835186004639" rx="6.8249998092651367" ry="6.8249998092651367" stroke="none" fill="#000000" transform="matrix(0.384615 0 0 0.384615 -186.611 -140.263)" />
	<ellipse cx="1315.9510984420776" cy="505.02064800262451" rx="6.8249998092651367" ry="6.8249998092651367" stroke="none" fill="#000000" transform="matrix(0.384615 0 0 0.384615 -186.611 -140.263)" />
	<ellipse cx="1322.7938718795776" cy="488.78193950653076" rx="6.8249998092651367" ry="6.8249998092651367" stroke="none" fill="#000000" transform="matrix(0.384615 0 0 0.384615 -186.611 -140.263)" />
	<ellipse cx="1306.0535154342651" cy="461.18480205535889" rx="6.8249998092651367" ry="6.8249998092651367" stroke="none" fill="#000000" transform="matrix(0.384615 0 0 0.384615 -186.611 -140.263)" />
	<ellipse cx="1334.2308835983276" cy="492.47627544403076" rx="6.8249998092651367" ry="6.8249998092651367" stroke="none" fill="#000000" transform="matrix(0.384615 0 0 0.384615 -186.611 -140.263)" />
	<ellipse cx="1329.6351804733276" cy="478.29033184051514" rx="6.8249998092651367" ry="6.8249998092651367" stroke="none" fill="#000000" transform="matrix(0.384615 0 0 0.384615 -186.611 -140.263)" />
	<ellipse cx="1310.2842283248901" cy="487.96019268035889" rx="6.8249998092651367" ry="6.8249998092651367" stroke="none" fill="#000000" transform="matrix(0.384615 0 0 0.384615 -186.611 -140.263)" />
	<path d="M 181.481 -0 C 181.481 100.229, 100.229 181.481, -0 181.481, -100.229 181.481, -181.481 100.229, -181.481 -0, -181.481 -100.229, -100.229 -181.481, -0 -181.481, 100.229 -181.481, 181.481 -100.229, 181.481 -0 Z" fill="none" stroke="#000000" stroke-width="3.4666667" stroke-linecap="round" stroke-linejoin="round" transform="matrix(0.384615 0 -0 0.384615 280.697 78.3002)" />
	<path d="M 181.48 -0 C 181.48 100.229, 100.229 181.481, -0 181.481, -100.229 181.481, -181.48 100.229, -181.48 -0, -181.48 -100.229, -100.229 -181.481, -0 -181.481, 100.229 -181.481, 181.48 -100.229, 181.48 -0 Z" fill="none" stroke="#000000" stroke-width="3.4666667" stroke-linecap="round" stroke-linejoin="round" transform="matrix(0.384615 0 -0 0.384615 78.3002 78.3002)" />
	<path d="M 181.481 -0 C 181.481 100.229, 100.229 181.481, -0 181.481, -100.229 181.481, -181.481 100.229, -181.481 -0, -181.481 -100.229, -100.229 -181.481, -0 -181.481, 100.229 -181.481, 181.481 -100.229, 181.481 -0 Z" fill="none" stroke="#000000" stroke-width="3.4666667" stroke-linecap="round" stroke-linejoin="round" transform="matrix(0.384615 0 -0 0.384615 483.093 78.3002)" />
	<ellipse cx="688.76890850067139" cy="568.26396465301514" rx="6.8249998092651367" ry="6.8249998092651367" stroke="none" fill="#000000" transform="matrix(0.384615 0 0 0.384615 -186.611 -140.263)" />
	<ellipse cx="688.76893281936646" cy="568.26398897171021" rx="4.5499997138977051" ry="4.5499997138977051" stroke="none" fill="#FFFFFF" transform="matrix(0.384615 0 0 0.384615 -186.611 -140.263)" />
	<ellipse cx="1214.9999265670776" cy="568.26396465301514" rx="6.8249998092651367" ry="6.8249998092651367" stroke="none" fill="#000000" transform="matrix(0.384615 0 0 0.384615 -186.611 -140.263)" />
	<ellipse cx="1214.9998288154602" cy="568.26398897171021" rx="4.5499997138977051" ry="4.5499997138977051" stroke="none" fill="#FFFFFF" transform="matrix(0.384615 0 0 0.384615 -186.611 -140.263)" />
	<ellipse cx="1741.2297849655151" cy="568.26396465301514" rx="6.8249998092651367" ry="6.8249998092651367" stroke="none" fill="#000000" transform="matrix(0.384615 0 0 0.384615 -186.611 -140.263)" />
	<ellipse cx="1741.2296872138977" cy="568.26398897171021" rx="4.5499997138977051" ry="4.5499997138977051" stroke="none" fill="#FFFFFF" transform="matrix(0.384615 0 0 0.384615 -186.611 -140.263)" />
	<ellipse cx="1752.4095945358276" cy="572.14000225067139" rx="6.8249998092651367" ry="6.8249998092651367" stroke="none" fill="#000000" transform="matrix(0.384615 0 0 0.384615 -186.611 -140.263)" />
	<ellipse cx="1745.6921873092651" cy="587.07371807098389" rx="6.8249998092651367" ry="6.8249998092651367" stroke="none" fill="#000000" transform="matrix(0.384615 0 0 0.384615 -186.611 -140.263)" />
	<ellipse cx="1734.9194822311401" cy="580.87993144989014" rx="6.8249998092651367" ry="6.8249998092651367" stroke="none" fill="#000000" transform="matrix(0.384615 0 0 0.384615 -186.611 -140.263)" />
	<ellipse cx="1720.7697019577026" cy="575.75102519989014" rx="6.8249998092651367" ry="6.8249998092651367" stroke="none" fill="#000000" transform="matrix(0.384615 0 0 0.384615 -186.611 -140.263)" />
	<ellipse cx="1754.2472410202026" cy="559.01304912567139" rx="6.8249998092651367" ry="6.8249998092651367" stroke="none" fill="#000000" transform="matrix(0.384615 0 0 0.384615 -186.611 -140.263)" />
	<ellipse cx="1758.2495603561401" cy="582.68504619598389" rx="6.8249998092651367" ry="6.8249998092651367" stroke="none" fill="#000000" transform="matrix(0.384615 0 0 0.384615 -186.611 -140.263)" />
	<ellipse cx="1721.6512937545776" cy="558.74009990692139" rx="6.8249998092651367" ry="6.8249998092651367" stroke="none" fill="#000000" transform="matrix(0.384615 0 0 0.384615 -186.611 -140.263)" />
	<ellipse cx="1730.7300291061401" cy="563.94755840301514" rx="6.8249998092651367" ry="6.8249998092651367" stroke="none" fill="#000000" transform="matrix(0.384615 0 0 0.384615 -186.611 -140.263)" />
	<ellipse cx="1742.6405515670776" cy="555.12846660614014" rx="6.8249998092651367" ry="6.8249998092651367" stroke="none" fill="#000000" transform="matrix(0.384615 0 0 0.384615 -186.611 -140.263)" />
	<ellipse cx="1734.2441892623901" cy="548.01829814910889" rx="6.8249998092651367" ry="6.8249998092651367" stroke="none" fill="#000000" transform="matrix(0.384615 0 0 0.384615 -186.611 -140.263)" />
	<g transform="matrix(1 0 -0 1 67.5718 163.857)">
		<svg width="81.075737" height="59.8723221">
			<defs />
			<path d="M 15.1734 15.7749 C 15.1734 16.0136, 15.1299 16.2335, 15.0417 16.435, 14.9535 16.6365, 14.8345 16.8186, 14.6833 16.98, 14.5322 17.142, 14.353 17.2686, 14.1452 17.3596, 13.9379 17.4512, 13.7146 17.497, 13.4753 17.497, 13.0288 17.497, 12.6624 17.3355, 12.3761 17.0121, 12.0899 16.6886, 11.9404 16.4321, 11.9278 16.2421, 11.8213 16.4928, 11.5414 16.7819, 11.0885 17.1083, 10.6357 17.4346, 10.1164 17.5978, 9.53131 17.5978, 9.15402 17.5978, 8.77502 17.5583, 8.3943 17.4787, 8.01416 17.3997, 7.66492 17.2812, 7.34718 17.122, 7.03001 16.9634, 6.77353 16.751, 6.5783 16.4854, 6.38365 16.2197, 6.28575 15.8945, 6.28575 15.5092, 6.28575 14.9665, 6.4512 14.4902, 6.78154 14.0808, 7.11188 13.6721, 7.51607 13.3452, 7.99355 13.1001, 8.59754 12.8076, 9.22158 12.6095, 9.86622 12.5053, 10.5109 12.4017, 11.1355 12.3341, 11.7395 12.3032 L 11.7395 11.5704 C 11.7395 11.2961, 11.6925 11.0231, 11.5981 10.7511, 11.5036 10.4797, 11.3622 10.2427, 11.1733 10.0406, 10.8086 9.61983, 10.3649 9.41201, 9.84275 9.41774, 9.41509 9.41831, 9.02063 9.48701, 8.6588 9.62441, 8.29698 9.76182, 8.05366 9.90666, 7.92771 10.0589 L 7.83324 10.0589 C 8.05996 10.0595, 8.27064 10.1208, 8.46529 10.2422, 8.6983 10.4013, 8.81452 10.6521, 8.81452 10.9933, 8.81452 11.3116, 8.70918 11.5498, 8.4985 11.7084, 8.28782 11.8675, 8.06625 11.9465, 7.83324 11.9459, 7.59451 11.9465, 7.36951 11.8675, 7.15883 11.7084, 6.94814 11.5498, 6.84223 11.3116, 6.84223 10.9933, 6.84223 10.6395, 6.93211 10.3252, 7.11131 10.0504, 7.29108 9.77556, 7.52351 9.54655, 7.80977 9.36335, 8.09602 9.18015, 8.41663 9.04446, 8.77216 8.95572, 9.12769 8.86756, 9.48436 8.8229, 9.84275 8.82233, 10.2836 8.8229, 10.7095 8.88702, 11.1217 9.01526, 11.5339 9.14351, 11.9095 9.34217, 12.2484 9.6101, 12.557 9.86086, 12.8055 10.1528, 12.9944 10.4855, 13.1833 10.8187, 13.2772 11.1799, 13.2772 11.5704 L 13.2772 15.7749 C 13.2772 16.0256, 13.3293 16.2461, 13.433 16.435, 13.5372 16.6245, 13.6923 16.719, 13.8996 16.7184, 14.0948 16.719, 14.2425 16.6245, 14.3433 16.435, 14.444 16.2461, 14.4944 16.0256, 14.4944 15.7749 L 14.4944 14.4833, 15.1734 14.4833, 15.1734 15.7749 Z M 11.7395 12.8894 C 11.3181 12.9083, 10.8727 12.9667, 10.4044 13.0641, 9.93607 13.162, 9.50039 13.3326, 9.09734 13.5764, 8.75155 13.7848, 8.47674 14.0642, 8.27236 14.4152, 8.06797 14.7667, 7.96549 15.1314, 7.96549 15.5092, 7.96549 15.7234, 8.00671 15.9192, 8.08801 16.0961, 8.16988 16.2735, 8.28495 16.4293, 8.43266 16.5632, 8.58037 16.6978, 8.75212 16.8031, 8.94677 16.8793, 9.14143 16.956, 9.34925 16.9938, 9.56909 16.9932, 9.87767 16.9938, 10.1611 16.9388, 10.4187 16.8289, 10.6763 16.719, 10.9042 16.5632, 11.1023 16.3617, 11.3004 16.1602, 11.4561 15.9255, 11.5694 15.6564, 11.6828 15.3879, 11.7395 15.1039, 11.7395 14.8039 Z" stroke="none" fill="#000000" />
			<path d="M 1.5467 8.95625 C -4.56906 4.92594, -4.56906 -4.92594, 1.5467 -8.95625 L 2.50721 -8.95625 C -3.00823 -4.92594, -3.00823 4.92594, 2.50721 8.95625" stroke="none" fill="#000000" transform="matrix(1 0 -0 1 2.814 11.7703)" />
			<path d="M 1.5467 8.95625 C -4.56906 4.92594, -4.56906 -4.92594, 1.5467 -8.95625 L 2.50721 -8.95625 C -3.00823 -4.92594, -3.00823 4.92594, 2.50721 8.95625" stroke="none" fill="#000000" transform="matrix(-1 1.50996e-007 -1.50996e-007 -1 18.6428 11.7703)" />
			<rect />
		</svg>
	</g>
	<g transform="matrix(1 0 -0 1 269.563 163.857)">
		<svg width="83.946167" height="59.8723221">
			<defs />
			<path d="M 15.9823 13.265 C 15.9823 13.8398, 15.8696 14.3923, 15.6428 14.9236, 15.4167 15.4549, 15.0961 15.922, 14.6805 16.3245, 14.2786 16.7344, 13.8051 17.0487, 13.2612 17.2686, 12.7173 17.4884, 12.1494 17.5978, 11.558 17.5978, 10.9986 17.5978, 10.5034 17.4684, 10.0729 17.209, 9.64237 16.9497, 9.31032 16.6485, 9.07731 16.3062 L 8.42636 17.3871, 7.79431 17.3871, 7.79431 6.0926 C 7.79431 5.93459, 7.78687 5.78058, 7.77084 5.63059, 7.75538 5.48116, 7.69069 5.36666, 7.57733 5.28651, 7.47084 5.2138, 7.29909 5.17143, 7.06322 5.15884, 6.82734 5.14682, 6.568 5.14052, 6.28518 5.13995 L 6.28518 4.39797, 9.2565 4.17813, 9.2565 9.98567 C 9.46432 9.73605, 9.79752 9.49503, 10.2567 9.26259, 10.7158 9.03072, 11.2219 8.9145, 11.775 8.91393, 12.3538 8.9145, 12.9011 9.02614, 13.4164 9.24885, 13.9322 9.47213, 14.3787 9.78758, 14.756 10.1964, 15.1648 10.612, 15.4717 11.0843, 15.6761 11.6122, 15.8804 12.1406, 15.9823 12.6913, 15.9823 13.265 Z M 14.1898 13.265 C 14.1898 12.7709, 14.1509 12.2935, 14.0719 11.832, 13.9934 11.3711, 13.8314 10.9544, 13.5864 10.5811, 13.3603 10.2639, 13.0866 10.0091, 12.766 9.81678, 12.4454 9.62441, 12.1024 9.52823, 11.7372 9.52766, 11.203 9.52823, 10.7204 9.66449, 10.2899 9.93586, 9.85935 10.2078, 9.5336 10.5605, 9.31318 10.9933 L 9.31318 15.4543 C 9.521 15.9066, 9.81355 16.2764, 10.1908 16.5632, 10.5681 16.8506, 11.0049 16.9938, 11.5019 16.9932, 11.8981 16.9938, 12.2725 16.8976, 12.6246 16.7052, 12.9767 16.5129, 13.2721 16.2609, 13.5108 15.9489, 13.8005 15.5768, 13.986 15.1606, 14.0673 14.6991, 14.1492 14.2383, 14.1898 13.7602, 14.1898 13.265 Z" stroke="none" fill="#000000" />
			<path d="M 1.5467 8.95625 C -4.56906 4.92594, -4.56906 -4.92594, 1.5467 -8.95625 L 2.50721 -8.95625 C -3.00823 -4.92594, -3.00823 4.92594, 2.50721 8.95625" stroke="none" fill="#000000" transform="matrix(1 0 -0 1 2.814 11.7703)" />
			<path d="M 1.5467 8.95625 C -4.56906 4.92594, -4.56906 -4.92594, 1.5467 -8.95625 L 2.50721 -8.95625 C -3.00823 -4.92594, -3.00823 4.92594, 2.50721 8.95625" stroke="none" fill="#000000" transform="matrix(-1 1.50996e-007 -1.50996e-007 -1 19.4524 11.7703)" />
			<rect />
		</svg>
	</g>
	<g transform="matrix(1 0 -0 1 473.026 163.857)">
		<svg width="75.0478287" height="59.8723221">
			<defs />
			<path d="M 13.8515 15.0696 C 13.745 15.8333, 13.3849 16.4459, 12.7717 16.9067, 12.1586 17.3676, 11.4183 17.5978, 10.5504 17.5978, 9.97214 17.5978, 9.42196 17.485, 8.89983 17.2594, 8.3777 17.0338, 7.92198 16.7218, 7.53153 16.3245, 7.12276 15.91, 6.81303 15.44, 6.60235 14.9144, 6.39166 14.3894, 6.28632 13.8398, 6.28632 13.265, 6.28632 12.6793, 6.39052 12.1148, 6.59777 11.5709, 6.80559 11.0276, 7.11703 10.545, 7.53153 10.1231, 7.92198 9.7143, 8.3777 9.39541, 8.89983 9.16641, 9.42196 8.9374, 9.97214 8.8229, 10.5504 8.82233, 10.9151 8.8229, 11.2797 8.86126, 11.6444 8.9374, 12.0097 9.01412, 12.3383 9.13435, 12.6303 9.29923, 12.9229 9.46411, 13.1633 9.67937, 13.3522 9.94502, 13.5412 10.2107, 13.6351 10.5238, 13.6351 10.8834, 13.6351 11.2017, 13.5331 11.4427, 13.3288 11.6076, 13.1244 11.7725, 12.8994 11.8549, 12.6538 11.8543, 12.4087 11.8549, 12.1837 11.7725, 11.9794 11.6076, 11.775 11.4427, 11.6725 11.2017, 11.6725 10.8834, 11.6725 10.5662, 11.783 10.3223, 12.0028 10.1506, 12.1918 10.0166, 12.3961 9.94674, 12.616 9.93987 L 12.4368 9.93987 C 12.3303 9.84254, 12.0973 9.74063, 11.7389 9.63357, 11.3805 9.52709, 10.9843 9.47327, 10.5504 9.4727, 10.1983 9.47327, 9.8605 9.56831, 9.53646 9.75724, 9.21242 9.94674, 8.94391 10.1998, 8.72979 10.517, 8.47216 10.9143, 8.30213 11.3454, 8.22026 11.8091, 8.13896 12.2734, 8.09774 12.7589, 8.09774 13.265, 8.09774 13.7482, 8.14698 14.2154, 8.2443 14.6671, 8.34163 15.1194, 8.52884 15.5344, 8.80536 15.9123, 9.03208 16.2243, 9.31032 16.4733, 9.64008 16.6594, 9.97042 16.8461, 10.3179 16.9388, 10.682 16.9382, 11.3553 16.9388, 11.9021 16.759, 12.3234 16.3983, 12.7448 16.0382, 13.0311 15.5739, 13.1822 15.0054, 13.22 14.8594, 13.311 14.7862, 13.4553 14.7856 L 13.6253 14.8039 C 13.7765 14.8411, 13.8515 14.9299, 13.8515 15.0696 Z" stroke="none" fill="#000000" />
			<path d="M 1.5467 8.95625 C -4.56906 4.92594, -4.56906 -4.92594, 1.5467 -8.95625 L 2.50721 -8.95625 C -3.00823 -4.92594, -3.00823 4.92594, 2.50721 8.95625" stroke="none" fill="#000000" transform="matrix(1 0 -0 1 2.814 11.7703)" />
			<path d="M 1.5467 8.95625 C -4.56906 4.92594, -4.56906 -4.92594, 1.5467 -8.95625 L 2.50721 -8.95625 C -3.00823 -4.92594, -3.00823 4.92594, 2.50721 8.95625" stroke="none" fill="#000000" transform="matrix(-1 1.50996e-007 -1.50996e-007 -1 17.3203 11.7703)" />
			<rect />
		</svg>
	</g>
</svg>
