<?xml version="1.0"?>
<svg xmlns="http://www.w3.org/2000/svg" xmlns:xlink="http://www.w3.org/1999/xlink" width="231.463364" height="187.322861">
	<defs />
	<g transform="matrix(1 0 -0 1 48.8965 9)">
		<svg width="42.0378685" height="45.2233963">
			<defs />
			<path d="M 12.3983 16.5678 C 12.3296 16.751, 12.2099 16.8426, 12.0399 16.8426, 11.4113 16.806, 10.7849 16.7876, 10.1621 16.7876 L 9.85061 16.7876 C 9.11493 16.8002, 8.37582 16.8185, 7.63385 16.8426, 7.46439 16.8426, 7.37279 16.7636, 7.36019 16.6044 L 7.36019 16.5311, 7.39798 16.3754 C 7.44836 16.1745, 7.57088 16.0766, 7.76553 16.0823, 7.99854 16.0829, 8.20636 16.0754, 8.38842 16.06, 8.57105 16.0451, 8.74738 15.9913, 8.91685 15.8991, 8.97982 15.8693, 9.03364 15.8264, 9.07715 15.7709, 9.10234 15.7228, 9.11837 15.6735, 9.12409 15.6243 L 9.12409 15.5693, 8.89795 12.5282, 4.63333 12.5282, 3.13335 15.093 C 3.05148 15.2401, 3.01026 15.3747, 3.01026 15.4961, 3.01026 15.6002, 3.04175 15.6953, 3.10473 15.78, 3.24327 15.9821, 3.50148 16.0829, 3.87819 16.0823, 4.04822 16.0829, 4.13925 16.1562, 4.15185 16.3021, 4.15185 16.3394, 4.14555 16.3789, 4.13295 16.4212 L 4.09574 16.5678 C 4.02647 16.751, 3.90395 16.8426, 3.72762 16.8426, 3.14938 16.8185, 2.57687 16.8002, 2.01009 16.7876 L 1.75589 16.7876 C 1.26525 16.7876, 0.768314 16.806, 0.265078 16.8426, 0.170614 16.8426, 0.101341 16.8123, 0.0572573 16.751, 0.0194716 16.7149, 0.000578821 16.672, 0.000578821 16.6228, 0.000578821 16.5867, 0.00687641 16.55, 0.0194716 16.5128 L 0.0572573 16.3754 C 0.107638 16.1745, 0.230728 16.0766, 0.425381 16.0823, 0.626904 16.0829, 0.824993 16.0617, 1.01965 16.0188, 1.21487 15.9764, 1.3975 15.8997, 1.56697 15.7897, 1.737 15.6798, 1.89444 15.547, 2.03871 15.3913, 2.18356 15.2356, 2.31237 15.0598, 2.42573 14.864 L 9.08631 3.45961 C 9.19967 3.289, 9.34451 3.20656, 9.52084 3.21228 L 9.70004 3.21228 C 9.90156 3.21285, 10.0143 3.30732, 10.0395 3.49625 L 10.8697 15.4319 C 10.8823 15.5911, 10.9012 15.7119, 10.9264 15.7943, 10.9515 15.8768, 10.9956 15.9363, 11.0586 15.9724, 11.1468 16.0279, 11.2928 16.06, 11.4971 16.0691, 11.7021 16.0783, 11.9328 16.0829, 12.1905 16.0823, 12.3668 16.0829, 12.455 16.1562, 12.455 16.3021, 12.455 16.3394, 12.4487 16.3789, 12.4361 16.4212 Z M 8.4451 6.03361 L 5.08618 11.7862, 8.84127 11.7862 Z" stroke="none" fill="#000000" />
			<rect />
		</svg>
	</g>
	<g transform="matrix(1 0 -0 1 9.00001 119.626)">
		<svg width="44.9082985" height="45.2233963">
			<defs />
			<path d="M 13.6778 10.4854 C 13.4643 11.3104, 13.1265 12.1074, 12.6639 12.8768, 12.2013 13.6463, 11.6214 14.3453, 10.9235 14.9739, 10.288 15.5424, 9.59012 15.9959, 8.82925 16.3348, 8.06838 16.6737, 7.30752 16.8426, 6.54608 16.8426 L 0.273665 16.8426 C 0.104202 16.8426, 0.0131732 16.7636, 5.44265e-006 16.6044 L 5.44265e-006 16.5311, 0.0377911 16.3754 C 0.0881719 16.1745, 0.210689 16.0766, 0.405342 16.0823, 0.70133 16.0829, 0.981287 16.0783, 1.24521 16.0691, 1.50971 16.06, 1.70437 16.0279, 1.82975 15.9724, 1.9494 15.906, 2.04043 15.7411, 2.10341 15.4777 L 4.75413 5.15423 C 4.79191 5.02027, 4.8108 4.91664, 4.8108 4.84279, 4.8108 4.77008, 4.79535 4.72714, 4.76329 4.71455, 4.67569 4.66016, 4.50451 4.62695, 4.24974 4.61436, 3.99498 4.60234, 3.71674 4.59604, 3.41445 4.59547, 3.23869 4.59604, 3.15053 4.5136, 3.15053 4.34814 L 3.15053 4.27486, 3.20721 4.11914 C 3.24499 3.93651, 3.36121 3.84491, 3.55586 3.84433 L 9.84774 3.84433 C 10.6275 3.84491, 11.3071 4.02525, 11.8853 4.38535, 12.4641 4.74604, 12.9296 5.21893, 13.2817 5.80461, 13.6589 6.46471, 13.8725 7.19752, 13.9229 8.00304, 13.9355 8.1748, 13.9418 8.33338, 13.9418 8.47937, 13.9418 9.13318, 13.8542 9.80187, 13.6778 10.4854 Z M 11.8573 6.22597 C 11.6437 5.71988, 11.3088 5.32141, 10.8525 5.03115, 10.3968 4.74146, 9.86378 4.59604, 9.25348 4.59547 L 7.22565 4.59547 C 6.90505 4.59604, 6.71325 4.62066, 6.65028 4.66932, 6.5873 4.71856, 6.52146 4.89203, 6.45219 5.19088 L 3.78258 15.5144 C 3.7322 15.7228, 3.70701 15.8722, 3.70701 15.9632 L 3.70701 16.0365 C 3.7322 16.0617, 3.8988 16.0766, 4.20681 16.0823 L 6.23521 16.0823 C 6.85123 16.0829, 7.4661 15.9443, 8.07926 15.6661, 8.69242 15.3884, 9.24088 15.002, 9.72523 14.5068, 10.2788 13.9331, 10.7036 13.2936, 10.9991 12.5883, 11.2945 11.8829, 11.5304 11.1702, 11.7061 10.4488, 11.9013 9.69825, 12.0364 8.95627, 12.112 8.22289, 12.1246 8.05228, 12.1309 7.8874, 12.1309 7.72824, 12.1309 7.19123, 12.0399 6.69085, 11.8573 6.22597 Z" stroke="none" fill="#000000" />
			<rect />
		</svg>
	</g>
	<g transform="matrix(1 0 -0 1 209.499 155.908)">
		<svg width="42.0378685" height="48.0957298">
			<defs />
			<path d="M 11.6723 8.71754 C 11.6345 8.88929, 11.5246 8.97746, 11.342 8.98318 L 11.1347 8.98318 C 10.9905 8.98375, 10.9115 8.91047, 10.8989 8.76334 L 10.8989 8.69006 C 10.9618 8.3059, 10.9968 7.93663, 11.0025 7.58168, 11.0025 7.38073, 10.9962 7.17634, 10.9836 6.96795, 10.9206 6.43093, 10.7792 5.95632, 10.5594 5.54411, 10.3395 5.13191, 10.0435 4.80214, 9.67256 4.55482, 9.30157 4.30749, 8.84814 4.18383, 8.31342 4.18326, 7.65961 4.18383, 7.00237 4.34299, 6.34169 4.66016, 5.68159 4.9779, 5.08389 5.40213, 4.54917 5.93285, 3.92628 6.56261, 3.43907 7.25878, 3.08698 8.02194, 2.73488 8.78566, 2.45779 9.56371, 2.25627 10.3572, 2.03642 11.1639, 1.91047 11.9453, 1.87898 12.7022 L 1.87898 12.9587 C 1.87898 13.6251, 2.01123 14.2325, 2.27516 14.7816, 2.52706 15.3014, 2.89461 15.7199, 3.37896 16.0371, 3.8633 16.3548, 4.43924 16.5134, 5.10565 16.5128, 5.64667 16.5134, 6.17796 16.3978, 6.70009 16.1653, 7.22221 15.9334, 7.70198 15.6203, 8.13938 15.2264, 8.57677 14.8325, 8.95864 14.3762, 9.28554 13.857, 9.61302 13.3383, 9.84889 12.7881, 9.99316 12.2076, 10.0309 12.0369, 10.1414 11.9516, 10.3235 11.9511 L 10.5307 11.9511 C 10.6882 11.9516, 10.7729 12.0186, 10.7855 12.1526, 10.7855 12.1898, 10.7764 12.2236, 10.7575 12.2534, 10.588 12.9255, 10.308 13.5638, 9.91759 14.1684, 9.52771 14.773, 9.06398 15.3031, 8.52582 15.7577, 7.98823 16.2128, 7.39855 16.5758, 6.75676 16.8472, 6.11555 17.1191, 5.45488 17.2548, 4.77531 17.2548, 3.90738 17.2548, 3.13564 17.0733, 2.45951 16.7103, 1.78337 16.3474, 1.23434 15.8447, 0.812968 15.2029, 0.372708 14.5136, 0.114506 13.7499, 0.0389352 12.9129, 0.0137447 12.6873, 0.00114954 12.4526, 0.00114954 12.2076, 0.00114954 11.5915, 0.0801558 10.9623, 0.237023 10.3206, 0.476333 9.42344, 0.855906 8.55781, 1.3746 7.72423, 1.89329 6.89066, 2.54252 6.13208, 3.32228 5.44736, 4.05853 4.82504, 4.85603 4.33039, 5.7148 3.96399, 6.57356 3.59758, 7.43347 3.41438, 8.29453 3.41381, 8.98039 3.41438, 9.56721 3.56552, 10.0544 3.86781, 10.5422 4.17009, 10.9023 4.53478, 11.1347 4.96187 L 12.4086 3.54205 C 12.459 3.45732, 12.5437 3.41438, 12.6633 3.41381 L 12.7383 3.41381 C 12.8895 3.41438, 12.9651 3.48766, 12.9651 3.63365 L 12.9651 3.70693 Z" stroke="none" fill="#000000" />
			<rect />
		</svg>
	</g>
	<g transform="matrix(1 0 -0 1 66.846 45.1124)">
		<svg width="38.880394" height="33.1595688">
			<defs />
			<path d="M 7.25141 12.0496 C 7.18712 12.3068, 7.1145 12.5816, 7.03353 12.8745, 6.95256 13.168, 6.8446 13.4399, 6.70965 13.6911, 6.57519 13.9424, 6.4054 14.1597, 6.20028 14.3428, 5.99565 14.5258, 5.73949 14.6171, 5.43181 14.6171, 5.02255 14.6171, 4.69474 14.5037, 4.44938 14.276, 4.20402 14.0483, 4.06269 13.8167, 4.02491 13.5807, 3.84138 13.7907, 3.56804 14.016, 3.20393 14.2564, 2.8403 14.4969, 2.45607 14.6171, 2.05171 14.6171, 1.62576 14.6171, 1.26852 14.5101, 0.979973 14.2957, 0.691429 14.0812, 0.466678 13.8113, 0.304739 13.4865, 0.110904 13.0998, 0.00834268 12.6836, -0.00245327 12.2381 L -0.00245327 12.1203 C -0.00245327 11.7071, 0.0544706 11.2939, 0.167337 10.8798, 0.296888 10.4249, 0.477473 9.97486, 0.709095 9.52977, 0.941206 9.08518, 1.2484 8.6715, 1.63116 8.28873, 1.94424 7.97516, 2.30149 7.71115, 2.7029 7.49622, 3.10431 7.28177, 3.51259 7.1743, 3.92774 7.17381, 4.28892 7.1743, 4.58286 7.26999, 4.80908 7.46089, 5.0358 7.65227, 5.1786 7.81028, 5.23797 7.93541 L 5.20559 8.06889 C 5.24337 7.87555, 5.33366 7.72931, 5.47646 7.62969, 5.61976 7.53057, 5.76403 7.48052, 5.90928 7.48002, 6.07613 7.48052, 6.21647 7.53008, 6.32983 7.6292, 6.4 7.70821, 6.43779 7.81273, 6.4427 7.94327, 6.4427 7.99087, 6.4373 8.04337, 6.4265 8.1003 L 5.26202 12.6385 C 5.20804 12.8534, 5.17025 13.0551, 5.14866 13.2431, 5.13836 13.3378, 5.13296 13.4241, 5.13296 13.5022, 5.13296 13.5709, 5.13836 13.644, 5.14866 13.722, 5.16535 13.8481, 5.20313 13.9424, 5.26202 14.0052, 5.3214 14.068, 5.40482 14.0994, 5.51278 14.0989, 5.62614 14.0994, 5.73262 14.0523, 5.83224 13.9581, 5.93235 13.8638, 6.02411 13.724, 6.10753 13.538, 6.19096 13.3525, 6.27045 13.1297, 6.34603 12.8706, 6.4216 12.6115, 6.49962 12.3303, 6.5801 12.0261, 6.61249 11.8906, 6.70425 11.8224, 6.8554 11.8219 L 7.04138 11.8219 C 7.18173 11.8224, 7.25141 11.8798, 7.25141 11.9947 L 7.25141 12.0496 Z M 4.93863 9.16026 C 4.91704 9.06653, 4.89839 8.96839, 4.8822 8.86632, 4.86601 8.76425, 4.84147 8.66365, 4.80908 8.56354, 4.72321 8.31818, 4.60052 8.11257, 4.44153 7.94768, 4.28254 7.7828, 4.08134 7.70036, 3.83892 7.69987, 3.6127 7.70036, 3.38893 7.78182, 3.16761 7.94376, 2.94679 8.10619, 2.74461 8.31523, 2.56108 8.57139, 2.30247 8.93305, 2.10864 9.30895, 1.97908 9.69858, 1.84953 10.0887, 1.73078 10.4955, 1.62282 10.919, 1.51535 11.3381, 1.42653 11.7439, 1.35587 12.136, 1.31317 12.3352, 1.29158 12.5237, 1.29158 12.7013, 1.29158 12.8902, 1.31317 13.0733, 1.35587 13.2509, 1.40494 13.4973, 1.49229 13.7004, 1.61889 13.8599, 1.7455 14.0199, 1.92216 14.0994, 2.14838 14.0989, 2.39669 14.0994, 2.64598 14.013, 2.89674 13.8403, 3.1475 13.6675, 3.38059 13.4556, 3.59602 13.2038, 3.68238 13.0998, 3.76482 12.9992, 3.84285 12.902, 3.92136 12.8053, 3.99007 12.7018, 4.04895 12.5914 L 4.93863 9.16026 Z" stroke="none" fill="#000000" />
			<path d="M 2.03372 2.7404 C 1.47834 2.72281, 0.938069 2.71402, 0.412642 2.71402, -0.112509 2.71402, -0.652775 2.72281, -1.20816 2.7404 L -1.20816 2.36227, -0.895703 2.36227 C -0.796223 2.36254, -0.702515 2.36117, -0.615127 2.35814, -0.527464 2.3554, -0.444473 2.34798, -0.365879 2.33616, -0.287285 2.32462, -0.219408 2.3128, -0.162249 2.30071, -0.113883 2.29219, -0.0740366 2.26526, -0.042434 2.21964, -0.0105567 2.1743, 0.00510716 2.12374, 0.00510716 2.06768 L 0.00510716 -2.8876 C -0.145486 -2.81396, -0.331254 -2.75817, -0.551647 -2.72025, -0.77204 -2.68205, -1.01332 -2.66309, -1.27603 -2.66336 L -1.27603 -3.0371 C -0.91384 -3.03682, -0.579402 -3.07997, -0.272995 -3.16653, 0.033412 -3.25282, 0.298324 -3.41495, 0.521465 -3.65266 L 0.66189 -3.65266 C 0.76137 -3.65238, 0.811109 -3.60402, 0.811109 -3.50756 L 0.811109 2.06768 C 0.811109 2.12648, 0.826224 2.17787, 0.856452 2.22184, 0.886681 2.26581, 0.930649 2.29219, 0.987809 2.30071, 1.03617 2.3128, 1.09828 2.32462, 1.17358 2.33616, 1.24887 2.34798, 1.33406 2.3554, 1.42915 2.35814, 1.52423 2.36117, 1.61711 2.36254, 1.7078 2.36227 L 2.03372 2.36227, 2.03372 2.7404 Z" stroke="none" fill="#000000" transform="matrix(1.12 0 0 1 9.36502 13.9768)" />
			<rect />
		</svg>
	</g>
	<path d="M -200.177 -236.22 L -328.823 108.683, 328.823 237.329, 311.079 -182.987, 311.079 -182.987, -200.177 -237.329" fill="none" stroke="#000000" stroke-width="5.33333349" stroke-linecap="round" stroke-linejoin="round" transform="matrix(0.25 0 -0 0.25 118.372 95.898)" />
	<path d="M -264.531 -237.828 L 264.531 237.828" fill="none" stroke="#000000" stroke-width="5.33333349" stroke-linecap="round" stroke-linejoin="round" transform="matrix(0.25 0 0 0.25 134.445 96.0227)" />
	<path d="M 319.167 -144.583 L -319.166 144.583" fill="none" stroke="#000000" stroke-width="5.33333349" stroke-linecap="round" stroke-linejoin="round" transform="matrix(0.25 0 0 0.25 116.02 86.834)" />
	<path d="M -256.56 -7.70207 L 256.56 -7.70207, 256.56 7.70207, -256.56 7.70207 Z" stroke="none" fill="#FFFFFF" transform="matrix(0.24848 0.0275227 -0.0275227 0.24848 132.062 43.627)" />
	<path d="M -256.56 -7.70207 L 256.56 -7.70207, 256.56 7.70207, -256.56 7.70207 Z" fill="none" stroke="#000000" stroke-width="4.80000019" stroke-linecap="round" stroke-linejoin="round" transform="matrix(0.24848 0.0275227 -0.0275227 0.24848 132.062 43.627)" />
	<path d="M 0 -16.3207 L 17.0217 16.3207, -17.0217 16.3207 Z" stroke="none" fill="#FFFFFF" transform="matrix(0.25 0 -0 0.25 195.812 50.6882)" />
	<path d="M 0 -16.3207 L 17.0217 16.3207, -17.0217 16.3207 Z" fill="none" stroke="#000000" stroke-width="4.80000019" stroke-linecap="round" stroke-linejoin="round" transform="matrix(0.25 0 -0 0.25 195.812 50.6882)" />
	<path d="M 0 -16.3207 L 17.0217 16.3207, -17.0217 16.3207 Z" stroke="none" fill="#FFFFFF" transform="matrix(0.25 0 -0 0.25 68.3121 36.3132)" />
	<path d="M 0 -16.3207 L 17.0217 16.3207, -17.0217 16.3207 Z" fill="none" stroke="#000000" stroke-width="4.80000019" stroke-linecap="round" stroke-linejoin="round" transform="matrix(0.25 0 -0 0.25 68.3121 36.3132)" />
	<ellipse cx="896.98907470703125" cy="737.27362060546875" rx="16" ry="16" stroke="none" fill="#000000" transform="matrix(0.25 0 0 0.25 -188.018 -61.3386)" />
	<ellipse cx="896.98905467987061" cy="737.27360057830811" rx="10.666666984558105" ry="10.666666984558105" stroke="none" fill="#FFFFFF" transform="matrix(0.25 0 0 0.25 -188.018 -61.3386)" />
	<ellipse cx="1552.8221435546875" cy="867.27349853515625" rx="16" ry="16" stroke="none" fill="#000000" transform="matrix(0.25 0 0 0.25 -188.018 -61.3386)" />
	<ellipse cx="1552.8221845626831" cy="867.27347850799561" rx="10.666666984558105" ry="10.666666984558105" stroke="none" fill="#FFFFFF" transform="matrix(0.25 0 0 0.25 -188.018 -61.3386)" />
	<g transform="matrix(1 0 -0 1 205.111 28.6917)">
		<svg width="44.9082985" height="45.2233963">
			<defs />
			<path d="M 13.0332 7.12367 C 12.9267 7.56393, 12.7143 7.97614, 12.3966 8.36086, 12.0788 8.74559, 11.7124 9.07249, 11.2973 9.34043, 10.9704 9.56084, 10.6355 9.73489, 10.2926 9.86313, 9.94965 9.99137, 9.82828 10.0463, 9.92904 10.0274, 9.91072 10.0217, 10.0756 10.1001, 10.4248 10.2616, 10.7741 10.4236, 11.0804 10.6446, 11.3443 10.9251, 11.6403 11.2251, 11.8418 11.5852, 11.9483 12.006, 11.9987 12.2144, 12.0273 12.4188, 12.033 12.6198, 12.033 12.8522, 11.9987 13.0938, 11.9294 13.3434, 11.8103 13.814, 11.5899 14.2634, 11.2693 14.6905, 10.9487 15.1182, 10.5645 15.4903, 10.118 15.8075, 9.64622 16.1499, 9.1447 16.4081, 8.61342 16.5821, 8.08213 16.7561, 7.55198 16.8426, 7.02298 16.8426 L 0.267942 16.8426 C 0.173478 16.8426, 0.104204 16.8151, 0.0601207 16.7602, 0.0166099 16.7178, -0.00571795 16.672, -0.00571795 16.6228, -0.00571795 16.5867, 0.000579656 16.55, 0.0131749 16.5128 L 0.0509605 16.3754 C 0.0887462 16.1745, 0.211263 16.0766, 0.418512 16.0823, 0.714499 16.0829, 0.991594 16.0783, 1.24922 16.0691, 1.50685 16.06, 1.70208 16.0279, 1.83376 15.9724, 1.94711 15.9117, 2.03528 15.7468, 2.09826 15.4777 L 4.74955 5.15423 C 4.78733 5.02027, 4.80565 4.91664, 4.80565 4.84279, 4.80565 4.77008, 4.7902 4.72714, 4.75871 4.71455, 4.67054 4.66016, 4.49936 4.62695, 4.24459 4.61436, 3.98983 4.60234, 3.71159 4.59604, 3.4093 4.59547, 3.31541 4.59604, 3.24614 4.56569, 3.20205 4.50386, 3.16427 4.4678, 3.14538 4.422, 3.14538 4.36646, 3.14538 4.33039, 3.15511 4.29662, 3.17343 4.2657 L 3.20205 4.1283 C 3.22095 4.04357, 3.26675 3.97486, 3.33888 3.92277, 3.41102 3.87124, 3.48831 3.84491, 3.57018 3.84433 L 9.82542 3.84433 C 10.3413 3.84491, 10.8285 3.92162, 11.2876 4.07391, 11.7468 4.22677, 12.1275 4.4678, 12.4292 4.79699, 12.7252 5.09698, 12.933 5.44507, 13.0521 5.84125, 13.1025 6.04334, 13.1277 6.24773, 13.1277 6.45498, 13.1277 6.67539, 13.0962 6.8981, 13.0332 7.12367 Z M 11.1273 7.08703 C 11.1903 6.84314, 11.2218 6.59925, 11.2218 6.35422 L 11.2218 6.13437 C 11.1966 5.84182, 11.1084 5.56988, 10.9573 5.31912, 10.8256 5.09355, 10.651 4.91664, 10.434 4.7884, 10.217 4.66016, 9.96397 4.59604, 9.67428 4.59547 L 7.18329 4.59547 C 6.85009 4.59604, 6.6583 4.61722, 6.60791 4.65959, 6.53234 4.72142, 6.46021 4.89832, 6.39093 5.19088 L 5.2213 9.78927, 7.79702 9.78927 C 8.15541 9.78985, 8.51094 9.72, 8.86303 9.57916, 9.2157 9.4389, 9.55176 9.24024, 9.87236 8.98318, 10.5393 8.44617, 10.9578 7.81412, 11.1273 7.08703 Z M 9.96683 13.2885 C 10.055 12.9776, 10.0991 12.669, 10.0991 12.3633 L 10.0991 12.1709 C 10.0739 11.8297, 9.98286 11.5148, 9.82542 11.2274, 9.68687 10.9778, 9.49966 10.7746, 9.26379 10.6188, 9.02791 10.4631, 8.75311 10.3853, 8.43823 10.3847 L 5.05126 10.3847, 3.73964 15.5144 C 3.68926 15.7228, 3.66407 15.8722, 3.66407 15.9632, 3.66407 16.0125, 3.6675 16.0399, 3.6738 16.0457, 3.6864 16.0646, 3.85014 16.0766, 4.16444 16.0823 L 6.68349 16.0823 C 7.02928 16.0829, 7.37851 16.0084, 7.73061 15.8585, 8.08327 15.709, 8.40731 15.5121, 8.70273 15.267, 9.0302 14.9928, 9.29871 14.6848, 9.50939 14.3424, 9.72008 14.0007, 9.87294 13.6491, 9.96683 13.2885 Z" stroke="none" fill="#000000" />
			<rect />
		</svg>
	</g>
	<g transform="matrix(1 0 -0 1 94.8905 38.8899)">
		<svg width="42.0378685" height="33.1595688">
			<defs />
			<path d="M 7.25141 12.0496 C 7.18712 12.3068, 7.1145 12.5816, 7.03353 12.8745, 6.95256 13.168, 6.8446 13.4399, 6.70965 13.6911, 6.57519 13.9424, 6.4054 14.1597, 6.20028 14.3428, 5.99565 14.5258, 5.73949 14.6171, 5.43181 14.6171, 5.02255 14.6171, 4.69474 14.5037, 4.44938 14.276, 4.20402 14.0483, 4.06269 13.8167, 4.02491 13.5807, 3.84138 13.7907, 3.56804 14.016, 3.20393 14.2564, 2.8403 14.4969, 2.45607 14.6171, 2.05171 14.6171, 1.62576 14.6171, 1.26852 14.5101, 0.979973 14.2957, 0.691429 14.0812, 0.466678 13.8113, 0.304739 13.4865, 0.110904 13.0998, 0.00834268 12.6836, -0.00245327 12.2381 L -0.00245327 12.1203 C -0.00245327 11.7071, 0.0544706 11.2939, 0.167337 10.8798, 0.296888 10.4249, 0.477473 9.97486, 0.709095 9.52977, 0.941206 9.08518, 1.2484 8.6715, 1.63116 8.28873, 1.94424 7.97516, 2.30149 7.71115, 2.7029 7.49622, 3.10431 7.28177, 3.51259 7.1743, 3.92774 7.17381, 4.28892 7.1743, 4.58286 7.26999, 4.80908 7.46089, 5.0358 7.65227, 5.1786 7.81028, 5.23797 7.93541 L 5.20559 8.06889 C 5.24337 7.87555, 5.33366 7.72931, 5.47646 7.62969, 5.61976 7.53057, 5.76403 7.48052, 5.90928 7.48002, 6.07613 7.48052, 6.21647 7.53008, 6.32983 7.6292, 6.4 7.70821, 6.43779 7.81273, 6.4427 7.94327, 6.4427 7.99087, 6.4373 8.04337, 6.4265 8.1003 L 5.26202 12.6385 C 5.20804 12.8534, 5.17025 13.0551, 5.14866 13.2431, 5.13836 13.3378, 5.13296 13.4241, 5.13296 13.5022, 5.13296 13.5709, 5.13836 13.644, 5.14866 13.722, 5.16535 13.8481, 5.20313 13.9424, 5.26202 14.0052, 5.3214 14.068, 5.40482 14.0994, 5.51278 14.0989, 5.62614 14.0994, 5.73262 14.0523, 5.83224 13.9581, 5.93235 13.8638, 6.02411 13.724, 6.10753 13.538, 6.19096 13.3525, 6.27045 13.1297, 6.34603 12.8706, 6.4216 12.6115, 6.49962 12.3303, 6.5801 12.0261, 6.61249 11.8906, 6.70425 11.8224, 6.8554 11.8219 L 7.04138 11.8219 C 7.18173 11.8224, 7.25141 11.8798, 7.25141 11.9947 L 7.25141 12.0496 Z M 4.93863 9.16026 C 4.91704 9.06653, 4.89839 8.96839, 4.8822 8.86632, 4.86601 8.76425, 4.84147 8.66365, 4.80908 8.56354, 4.72321 8.31818, 4.60052 8.11257, 4.44153 7.94768, 4.28254 7.7828, 4.08134 7.70036, 3.83892 7.69987, 3.6127 7.70036, 3.38893 7.78182, 3.16761 7.94376, 2.94679 8.10619, 2.74461 8.31523, 2.56108 8.57139, 2.30247 8.93305, 2.10864 9.30895, 1.97908 9.69858, 1.84953 10.0887, 1.73078 10.4955, 1.62282 10.919, 1.51535 11.3381, 1.42653 11.7439, 1.35587 12.136, 1.31317 12.3352, 1.29158 12.5237, 1.29158 12.7013, 1.29158 12.8902, 1.31317 13.0733, 1.35587 13.2509, 1.40494 13.4973, 1.49229 13.7004, 1.61889 13.8599, 1.7455 14.0199, 1.92216 14.0994, 2.14838 14.0989, 2.39669 14.0994, 2.64598 14.013, 2.89674 13.8403, 3.1475 13.6675, 3.38059 13.4556, 3.59602 13.2038, 3.68238 13.0998, 3.76482 12.9992, 3.84285 12.902, 3.92136 12.8053, 3.99007 12.7018, 4.04895 12.5914 L 4.93863 9.16026 Z" stroke="none" fill="#000000" />
			<path d="M 2.04975 2.7404 L -1.63593 2.7404, -1.63593 2.49857 C -1.63593 2.48126, -1.62686 2.45487, -1.60872 2.41943 L -0.128074 0.810169 C 0.0472517 0.616981, 0.224501 0.419122, 0.404223 0.216866, 0.583945 0.0146096, 0.744431 -0.192044, 0.88623 -0.403094, 1.02803 -0.614144, 1.14125 -0.831789, 1.22589 -1.05603, 1.31053 -1.28027, 1.35257 -1.5155, 1.35257 -1.762, 1.35257 -1.96976, 1.32564 -2.16404, 1.27123 -2.34431, 1.21682 -2.52459, 1.1385 -2.68287, 1.03572 -2.81918, 0.932947 -2.95548, 0.804614 -3.0654, 0.650723 -3.14894, 0.496832 -3.23248, 0.318759 -3.27425, 0.116503 -3.27453, -0.185233 -3.27425, -0.451793 -3.18412, -0.682629 -3.00385, -0.913465 -2.82357, -1.06681 -2.62489, -1.14238 -2.40834, -1.15722 -2.4023, -1.13303 -2.39928, -1.06983 -2.39955 L -0.992884 -2.39955 C -0.902198 -2.37866, -0.823879 -2.34706, -0.757376 -2.30474, -0.690874 -2.26215, -0.635088 -2.20361, -0.589745 -2.12887, -0.544403 -2.05412, -0.521869 -1.96398, -0.521869 -1.85873, -0.521869 -1.68258, -0.579028 -1.54766, -0.693896 -1.45395, -0.808765 -1.35996, -0.937099 -1.31325, -1.0789 -1.31352, -1.21465 -1.31325, -1.34134 -1.35996, -1.45923 -1.45395, -1.57684 -1.54766, -1.63593 -1.68258, -1.63593 -1.85873, -1.63593 -2.10468, -1.58756 -2.33772, -1.49083 -2.55756, -1.3941 -2.77741, -1.26302 -2.96785, -1.09703 -3.12916, -0.931053 -3.29019, -0.734842 -3.4177, -0.508403 -3.51168, -0.281964 -3.60539, -0.041785 -3.65238, 0.211585 -3.65266, 0.525412 -3.65238, 0.813133 -3.60622, 1.0742 -3.51388, 1.33526 -3.42155, 1.55785 -3.28882, 1.74197 -3.11597, 1.92609 -2.94284, 2.07036 -2.74278, 2.17451 -2.51579, 2.27867 -2.28853, 2.3306 -2.03736, 2.3306 -1.762, 2.3306 -1.45697, 2.26135 -1.17612, 2.1223 -0.919726, 1.98353 -0.663059, 1.8115 -0.427826, 1.60622 -0.214028, 1.40094 4.48227e-005, 1.18274 0.201477, 0.951909 0.390542, 0.721073 0.579608, 0.511946 0.763452, 0.324805 0.942075 L -0.716705 1.92258, 0.646326 1.92258 C 0.836491 1.92285, 1.01401 1.92148, 1.17835 1.91846, 1.34296 1.91571, 1.48256 1.90966, 1.59715 1.90087, 1.71202 1.89208, 1.77083 1.8863, 1.77357 1.88301, 1.79776 1.86267, 1.82057 1.82173, 1.84173 1.76017, 1.86289 1.69861, 1.8824 1.62606, 1.90053 1.54252, 1.91867 1.45898, 1.93681 1.37407, 1.95495 1.2875, 1.97308 1.20122, 1.98957 1.10641, 2.00469 1.00363 L 2.33967 1.00363 Z" stroke="none" fill="#000000" transform="matrix(1.12 0 0 1 9.72749 13.9768)" />
			<rect />
		</svg>
	</g>
	<g transform="matrix(1 0 -0 1 149.177 47.4614)">
		<svg width="36.0099602" height="45.2233963">
			<defs />
			<path d="M 5.68919 10.9269 C 5.56013 11.3827, 5.37808 11.8332, 5.14351 12.2778, 4.90895 12.7229, 4.60323 13.1336, 4.22586 13.51, 3.91327 13.8246, 3.55897 14.0876, 3.16246 14.2996, 2.76645 14.5116, 2.35523 14.6171, 1.92928 14.6171, 1.52002 14.6171, 1.17749 14.5077, 0.902686 14.2878, 0.627881 14.068, 0.417852 13.7956, 0.272108 13.4708, 0.0998639 13.0841, 0.00809884 12.6679, -0.00269705 12.2224 L -0.00269705 12.1203 C -0.00269705 11.7071, 0.0512824 11.2964, 0.158751 10.8876 L 1.78402 4.56709 C 1.82721 4.39485, 1.8542 4.26383, 1.86499 4.17452 L 1.86499 4.15096 C 1.86499 4.10434, 1.8542 4.07048, 1.83261 4.04889, 1.76783 4.00767, 1.64662 3.97872, 1.46898 3.96301, 1.29134 3.94731, 1.08622 3.93946, 0.854105 3.93897, 0.773626 3.93946, 0.714249 3.91345, 0.676463 3.86045, 0.644075 3.82954, 0.627881 3.79028, 0.627881 3.74268, 0.627881 3.71176, 0.636224 3.68281, 0.651927 3.65631 L 0.676463 3.53069 C 0.719647 3.40555, 0.816319 3.32704, 0.967462 3.29514 L 3.10996 3.12241, 3.14234 3.12241 C 3.20712 3.1229, 3.2611 3.144, 3.30379 3.18522, 3.32538 3.22742, 3.33618 3.26962, 3.33618 3.31084, 3.33618 3.34274, 3.32833 3.37169, 3.31213 3.39721 L 2.14765 7.91971 C 2.2664 7.79998, 2.48478 7.6454, 2.80276 7.45696, 3.12075 7.26852, 3.45493 7.1743, 3.80531 7.17381, 4.23126 7.1743, 4.59145 7.28423, 4.8849 7.50407, 5.17884 7.72391, 5.40359 7.99332, 5.55964 8.31229, 5.74317 8.69996, 5.84034 9.11904, 5.85113 9.56854 L 5.85113 9.67846 C 5.85113 10.0818, 5.79715 10.498, 5.68919 10.9269 Z M 4.51686 8.53998 C 4.46877 8.28923, 4.377 8.08656, 4.24205 7.93198, 4.1076 7.77789, 3.93241 7.70036, 3.71649 7.69987, 3.45788 7.70036, 3.20467 7.78427, 2.95636 7.95161, 2.70855 8.11944, 2.47692 8.33094, 2.26101 8.58709, 2.09416 8.80203, 1.94842 9.00372, 1.82426 9.19166 L 1.37967 10.919 C 1.2722 11.3381, 1.19123 11.7415, 1.13725 12.1281, 1.11566 12.2911, 1.10486 12.4452, 1.10486 12.5914, 1.10486 12.822, 1.13185 13.0419, 1.18583 13.2509, 1.24521 13.4924, 1.34336 13.694, 1.48076 13.856, 1.61816 14.0184, 1.80022 14.0994, 2.02644 14.0989, 2.25315 14.0994, 2.47791 14.016, 2.70168 13.8481, 2.92544 13.6808, 3.12615 13.4713, 3.30379 13.2195, 3.56289 12.8691, 3.7582 12.4967, 3.89021 12.1012, 4.0227 11.7061, 4.14244 11.3018, 4.24991 10.8876, 4.35786 10.4587, 4.45257 10.0455, 4.53305 9.64706, 4.56544 9.45911, 4.58163 9.27607, 4.58163 9.09745, 4.58163 8.9095, 4.56004 8.72352, 4.51686 8.53998 Z" stroke="none" fill="#000000" />
			<path d="M 2.03755 2.7404 C 1.48217 2.72281, 0.941631 2.71402, 0.416204 2.71402, -0.108947 2.71402, -0.649488 2.72281, -1.20514 2.7404 L -1.20514 2.36227, -0.892416 2.36227 C -0.792936 2.36254, -0.699228 2.36117, -0.61184 2.35814, -0.524177 2.3554, -0.441186 2.34798, -0.362592 2.33616, -0.283998 2.32462, -0.216121 2.3128, -0.158962 2.30071, -0.110596 2.29219, -0.0704747 2.26526, -0.0388722 2.21964, -0.00699496 2.1743, 0.0086689 2.12374, 0.0086689 2.06768 L 0.0086689 -2.8876 C -0.142199 -2.81396, -0.327967 -2.75817, -0.54836 -2.72025, -0.768753 -2.68205, -1.01031 -2.66309, -1.27302 -2.66336 L -1.27302 -3.0371 C -0.910553 -3.03682, -0.576115 -3.07997, -0.269708 -3.16653, 0.0366991 -3.25282, 0.301611 -3.41495, 0.525027 -3.65266 L 0.665452 -3.65266 C 0.764931 -3.65238, 0.814671 -3.60402, 0.814671 -3.50756 L 0.814671 2.06768 C 0.814671 2.12648, 0.829785 2.17787, 0.860014 2.22184, 0.890242 2.26581, 0.934211 2.29219, 0.99137 2.30071, 1.03974 2.3128, 1.10184 2.32462, 1.17714 2.33616, 1.25271 2.34798, 1.3379 2.3554, 1.43298 2.35814, 1.52806 2.36117, 1.62095 2.36254, 1.71136 2.36227 L 2.03755 2.36227, 2.03755 2.7404 Z" stroke="none" fill="#000000" transform="matrix(1.12 0 0 1 7.96499 13.9768)" />
			<rect />
		</svg>
	</g>
	<g transform="matrix(1 0 -0 1 184.044 118.176)">
		<svg width="36.0099602" height="33.1595688">
			<defs />
			<path d="M 6.06116 12.5207 C 6.09944 12.558, 6.11809 12.5973, 6.11809 12.6385, 6.11809 12.6861, 6.09649 12.7386, 6.05331 12.7955, 5.62736 13.3873, 5.08462 13.8393, 4.42411 14.1504, 3.7636 14.4615, 3.1021 14.6171, 2.43914 14.6171, 1.97001 14.6171, 1.5632 14.514, 1.21822 14.3074, 0.873242 14.1009, 0.600891 13.83, 0.401658 13.4943, 0.175435 13.1179, 0.0458841 12.7072, 0.0134964 12.2616, 0.00270045 12.1522, -0.00269747 12.0423, -0.00269747 11.9319, -0.00269747 11.5972, 0.0404861 11.2493, 0.126363 10.8876, 0.255913 10.4067, 0.454165 9.94345, 0.721118 9.49837, 0.988072 9.05377, 1.32323 8.645, 1.72759 8.27303, 2.09956 7.94915, 2.51078 7.68466, 2.96078 7.48052, 3.41077 7.27637, 3.86223 7.1743, 4.31468 7.17381, 4.58998 7.1743, 4.8476 7.21651, 5.08708 7.29993, 5.32704 7.38384, 5.53167 7.50554, 5.70146 7.66503, 5.87125 7.825, 5.99393 8.01197, 6.0695 8.22592, 6.0911 8.34173, 6.10189 8.45656, 6.10189 8.57139, 6.10189 8.69751, 6.0857 8.83098, 6.05331 8.97182, 5.99393 9.20786, 5.87272 9.38746, 5.68919 9.51014, 5.50615 9.63332, 5.32311 9.69466, 5.13959 9.69416, 4.94575 9.69466, 4.78921 9.62644, 4.67045 9.49002, 4.57918 9.40169, 4.53305 9.28637, 4.53305 9.14456, 4.53305 9.08763, 4.54385 9.01697, 4.56544 8.93256, 4.62482 8.7029, 4.7421 8.53164, 4.91729 8.41878, 5.09248 8.3064, 5.22841 8.24751, 5.32557 8.24163, 5.27159 8.11109, 5.14351 7.98841, 4.94133 7.87309, 4.73916 7.75826, 4.49821 7.70036, 4.21801 7.69987, 3.9486 7.70036, 3.67232 7.7828, 3.38918 7.94768, 3.10652 8.11257, 2.85723 8.32603, 2.64132 8.58709, 2.35032 8.92766, 2.12802 9.2957, 1.97442 9.69073, 1.82083 10.0863, 1.6898 10.4955, 1.58185 10.919, 1.47438 11.3381, 1.39095 11.7439, 1.33109 12.136, 1.30949 12.2621, 1.2987 12.3799, 1.2987 12.4893, 1.2987 12.7465, 1.34188 12.9923, 1.42825 13.2274, 1.50922 13.4894, 1.64515 13.7004, 1.83653 13.8599, 2.02791 14.0199, 2.25855 14.0994, 2.52796 14.0989, 3.09916 14.0994, 3.65711 13.9531, 4.20181 13.6597, 4.74652 13.3667, 5.19651 12.9688, 5.55179 12.4658, 5.58418 12.4088, 5.6465 12.3642, 5.73778 12.3323 L 5.80255 12.3323 C 5.85653 12.3328, 5.90266 12.3509, 5.93995 12.3873 L 6.06116 12.5207 Z" stroke="none" fill="#000000" />
			<path d="M 2.03755 2.7404 C 1.48217 2.72281, 0.941631 2.71402, 0.416204 2.71402, -0.108947 2.71402, -0.649488 2.72281, -1.20514 2.7404 L -1.20514 2.36227, -0.892416 2.36227 C -0.792936 2.36254, -0.699228 2.36117, -0.61184 2.35814, -0.524177 2.3554, -0.441186 2.34798, -0.362592 2.33616, -0.283998 2.32462, -0.216121 2.3128, -0.158962 2.30071, -0.110596 2.29219, -0.0704747 2.26526, -0.0388722 2.21964, -0.00699496 2.1743, 0.0086689 2.12374, 0.0086689 2.06768 L 0.0086689 -2.8876 C -0.142199 -2.81396, -0.327967 -2.75817, -0.54836 -2.72025, -0.768753 -2.68205, -1.01031 -2.66309, -1.27302 -2.66336 L -1.27302 -3.0371 C -0.910553 -3.03682, -0.576115 -3.07997, -0.269708 -3.16653, 0.0366991 -3.25282, 0.301611 -3.41495, 0.525027 -3.65266 L 0.665452 -3.65266 C 0.764931 -3.65238, 0.814671 -3.60402, 0.814671 -3.50756 L 0.814671 2.06768 C 0.814671 2.12648, 0.829785 2.17787, 0.860014 2.22184, 0.890242 2.26581, 0.934211 2.29219, 0.99137 2.30071, 1.03974 2.3128, 1.10184 2.32462, 1.17714 2.33616, 1.25271 2.34798, 1.3379 2.3554, 1.43298 2.35814, 1.52806 2.36117, 1.62095 2.36254, 1.71136 2.36227 L 2.03755 2.36227, 2.03755 2.7404 Z" stroke="none" fill="#000000" transform="matrix(1.12 0 0 1 8.23194 13.9768)" />
			<rect />
		</svg>
	</g>
	<g transform="matrix(1 0 -0 1 66.1361 108.533)">
		<svg width="42.0378685" height="45.2233963">
			<defs />
			<path d="M 5.26398 12.6464 C 5.16731 12.982, 5.11873 13.275, 5.11873 13.5257, 5.11873 13.5944, 5.12413 13.6597, 5.13492 13.722, 5.16191 13.9738, 5.28852 14.0994, 5.51474 14.0989, 5.6281 14.0994, 5.73459 14.0523, 5.8342 13.9581, 5.93431 13.8638, 6.02607 13.724, 6.1095 13.538, 6.19292 13.3525, 6.27242 13.1297, 6.34799 12.8706, 6.42356 12.6115, 6.50159 12.3303, 6.58206 12.0261, 6.61445 11.8906, 6.70622 11.8224, 6.85736 11.8219 L 7.04334 11.8219 C 7.18369 11.8224, 7.25337 11.8798, 7.25337 11.9947 L 7.25337 12.0496 C 7.18909 12.3068, 7.11646 12.5816, 7.03549 12.8745, 6.95452 13.168, 6.84656 13.4399, 6.71161 13.6911, 6.57716 13.9424, 6.40737 14.1597, 6.20224 14.3428, 5.99761 14.5258, 5.74146 14.6171, 5.43377 14.6171, 5.02451 14.6171, 4.69671 14.5037, 4.45135 14.276, 4.20598 14.0483, 4.06466 13.8167, 4.02687 13.5807, 3.84334 13.7907, 3.57001 14.016, 3.20589 14.2564, 2.84227 14.4969, 2.45803 14.6171, 2.05368 14.6171, 1.62773 14.6171, 1.27048 14.5101, 0.981937 14.2957, 0.693392 14.0812, 0.468641 13.8113, 0.306703 13.4865, 0.112867 13.0998, 0.0103062 12.6836, -0.000489712 12.2381 L -0.000489712 12.1203 C -0.000489712 11.7071, 0.0564342 11.2939, 0.1693 10.8798, 0.298851 10.4249, 0.479437 9.97486, 0.711058 9.52977, 0.94317 9.08518, 1.25036 8.6715, 1.63313 8.28873, 1.94621 7.97516, 2.30345 7.71115, 2.70486 7.49622, 3.10628 7.28177, 3.51456 7.1743, 3.92971 7.17381, 4.29088 7.1743, 4.58482 7.26999, 4.81105 7.46089, 5.03776 7.65227, 5.18056 7.81273, 5.23994 7.94327 L 6.11342 4.56709 C 6.15661 4.39485, 6.18311 4.26383, 6.1939 4.17452 L 6.1939 4.16666 C 6.1939 4.11465, 6.17525 4.07539, 6.13747 4.04889, 6.08938 4.00767, 5.97602 3.97872, 5.79789 3.96301, 5.62025 3.94731, 5.41513 3.93946, 5.18301 3.93897, 5.03236 3.93946, 4.95679 3.8688, 4.95679 3.72698 L 4.95679 3.66416, 5.00537 3.53069 C 5.03776 3.41095, 5.13492 3.33244, 5.29637 3.29514 L 6.83282 3.16952, 7.42316 3.12241, 7.45555 3.12241 C 7.52032 3.1229, 7.57725 3.14645, 7.62534 3.19307, 7.64202 3.24067, 7.64988 3.28533, 7.64988 3.32655 L 7.64988 3.38151 Z M 4.9406 9.16026 C 4.919 9.06653, 4.90036 8.96839, 4.88416 8.86632, 4.86797 8.76425, 4.84343 8.66365, 4.81105 8.56354, 4.72517 8.31818, 4.60249 8.11257, 4.44349 7.94768, 4.2845 7.7828, 4.0833 7.70036, 3.84089 7.69987, 3.61466 7.70036, 3.39089 7.78182, 3.16958 7.94376, 2.94875 8.10619, 2.74658 8.31523, 2.56305 8.57139, 2.30443 8.93305, 2.1106 9.30895, 1.98105 9.69858, 1.8515 10.0887, 1.73274 10.4955, 1.62478 10.919, 1.51732 11.3381, 1.42849 11.7439, 1.35783 12.136, 1.31514 12.3352, 1.29355 12.5237, 1.29355 12.7013, 1.29355 12.8902, 1.31514 13.0733, 1.35783 13.2509, 1.4069 13.4973, 1.49425 13.7004, 1.62086 13.8599, 1.74746 14.0199, 1.92412 14.0994, 2.15035 14.0989, 2.39865 14.0994, 2.64794 14.013, 2.8987 13.8403, 3.14946 13.6675, 3.38255 13.4556, 3.59798 13.2038, 3.68435 13.0998, 3.76679 12.9992, 3.84481 12.902, 3.92333 12.8053, 3.99203 12.7018, 4.05092 12.5914 L 4.9406 9.16026 Z" stroke="none" fill="#000000" />
			<path d="M 2.03755 2.7404 C 1.48217 2.72281, 0.941631 2.71402, 0.416204 2.71402, -0.108947 2.71402, -0.649488 2.72281, -1.20514 2.7404 L -1.20514 2.36227, -0.892416 2.36227 C -0.792936 2.36254, -0.699228 2.36117, -0.61184 2.35814, -0.524177 2.3554, -0.441186 2.34798, -0.362592 2.33616, -0.283998 2.32462, -0.216121 2.3128, -0.158962 2.30071, -0.110596 2.29219, -0.0704747 2.26526, -0.0388722 2.21964, -0.00699496 2.1743, 0.0086689 2.12374, 0.0086689 2.06768 L 0.0086689 -2.8876 C -0.142199 -2.81396, -0.327967 -2.75817, -0.54836 -2.72025, -0.768753 -2.68205, -1.01031 -2.66309, -1.27302 -2.66336 L -1.27302 -3.0371 C -0.910553 -3.03682, -0.576115 -3.07997, -0.269708 -3.16653, 0.0366991 -3.25282, 0.301611 -3.41495, 0.525027 -3.65266 L 0.665452 -3.65266 C 0.764931 -3.65238, 0.814671 -3.60402, 0.814671 -3.50756 L 0.814671 2.06768 C 0.814671 2.12648, 0.829785 2.17787, 0.860014 2.22184, 0.890242 2.26581, 0.934211 2.29219, 0.99137 2.30071, 1.03974 2.3128, 1.10184 2.32462, 1.17714 2.33616, 1.25271 2.34798, 1.3379 2.3554, 1.43298 2.35814, 1.52806 2.36117, 1.62095 2.36254, 1.71136 2.36227 L 2.03755 2.36227, 2.03755 2.7404 Z" stroke="none" fill="#000000" transform="matrix(1.12 0 0 1 9.76152 13.9768)" />
			<rect />
		</svg>
	</g>
	<g transform="matrix(1 0 -0 1 180.233 57.8185)">
		<svg width="36.0099602" height="45.2233963">
			<defs />
			<path d="M 5.68919 10.9269 C 5.56013 11.3827, 5.37808 11.8332, 5.14351 12.2778, 4.90895 12.7229, 4.60323 13.1336, 4.22586 13.51, 3.91327 13.8246, 3.55897 14.0876, 3.16246 14.2996, 2.76645 14.5116, 2.35523 14.6171, 1.92928 14.6171, 1.52002 14.6171, 1.17749 14.5077, 0.902686 14.2878, 0.627881 14.068, 0.417852 13.7956, 0.272108 13.4708, 0.0998639 13.0841, 0.00809884 12.6679, -0.00269705 12.2224 L -0.00269705 12.1203 C -0.00269705 11.7071, 0.0512824 11.2964, 0.158751 10.8876 L 1.78402 4.56709 C 1.82721 4.39485, 1.8542 4.26383, 1.86499 4.17452 L 1.86499 4.15096 C 1.86499 4.10434, 1.8542 4.07048, 1.83261 4.04889, 1.76783 4.00767, 1.64662 3.97872, 1.46898 3.96301, 1.29134 3.94731, 1.08622 3.93946, 0.854105 3.93897, 0.773626 3.93946, 0.714249 3.91345, 0.676463 3.86045, 0.644075 3.82954, 0.627881 3.79028, 0.627881 3.74268, 0.627881 3.71176, 0.636224 3.68281, 0.651927 3.65631 L 0.676463 3.53069 C 0.719647 3.40555, 0.816319 3.32704, 0.967462 3.29514 L 3.10996 3.12241, 3.14234 3.12241 C 3.20712 3.1229, 3.2611 3.144, 3.30379 3.18522, 3.32538 3.22742, 3.33618 3.26962, 3.33618 3.31084, 3.33618 3.34274, 3.32833 3.37169, 3.31213 3.39721 L 2.14765 7.91971 C 2.2664 7.79998, 2.48478 7.6454, 2.80276 7.45696, 3.12075 7.26852, 3.45493 7.1743, 3.80531 7.17381, 4.23126 7.1743, 4.59145 7.28423, 4.8849 7.50407, 5.17884 7.72391, 5.40359 7.99332, 5.55964 8.31229, 5.74317 8.69996, 5.84034 9.11904, 5.85113 9.56854 L 5.85113 9.67846 C 5.85113 10.0818, 5.79715 10.498, 5.68919 10.9269 Z M 4.51686 8.53998 C 4.46877 8.28923, 4.377 8.08656, 4.24205 7.93198, 4.1076 7.77789, 3.93241 7.70036, 3.71649 7.69987, 3.45788 7.70036, 3.20467 7.78427, 2.95636 7.95161, 2.70855 8.11944, 2.47692 8.33094, 2.26101 8.58709, 2.09416 8.80203, 1.94842 9.00372, 1.82426 9.19166 L 1.37967 10.919 C 1.2722 11.3381, 1.19123 11.7415, 1.13725 12.1281, 1.11566 12.2911, 1.10486 12.4452, 1.10486 12.5914, 1.10486 12.822, 1.13185 13.0419, 1.18583 13.2509, 1.24521 13.4924, 1.34336 13.694, 1.48076 13.856, 1.61816 14.0184, 1.80022 14.0994, 2.02644 14.0989, 2.25315 14.0994, 2.47791 14.016, 2.70168 13.8481, 2.92544 13.6808, 3.12615 13.4713, 3.30379 13.2195, 3.56289 12.8691, 3.7582 12.4967, 3.89021 12.1012, 4.0227 11.7061, 4.14244 11.3018, 4.24991 10.8876, 4.35786 10.4587, 4.45257 10.0455, 4.53305 9.64706, 4.56544 9.45911, 4.58163 9.27607, 4.58163 9.09745, 4.58163 8.9095, 4.56004 8.72352, 4.51686 8.53998 Z" stroke="none" fill="#000000" />
			<path d="M 2.04965 2.7404 L -1.63658 2.7404, -1.63658 2.49857 C -1.63658 2.48126, -1.62751 2.45487, -1.60937 2.41943 L -0.128447 0.810169 C 0.0466034 0.616981, 0.223852 0.419122, 0.403575 0.216866, 0.583297 0.0146096, 0.744333 -0.192044, 0.886132 -0.403094, 1.02793 -0.614144, 1.14115 -0.831789, 1.22579 -1.05603, 1.31043 -1.28027, 1.35248 -1.5155, 1.35248 -1.762, 1.35248 -1.96976, 1.32527 -2.16404, 1.27086 -2.34431, 1.21645 -2.52459, 1.13813 -2.68287, 1.03535 -2.81918, 0.932848 -2.95548, 0.804515 -3.0654, 0.650624 -3.14894, 0.496733 -3.23248, 0.318385 -3.27425, 0.116129 -3.27453, -0.185606 -3.27425, -0.452167 -3.18412, -0.683278 -3.00385, -0.914114 -2.82357, -1.06745 -2.62489, -1.14303 -2.40834, -1.15787 -2.4023, -1.13368 -2.39928, -1.07048 -2.39955 L -0.993532 -2.39955 C -0.902847 -2.37866, -0.824527 -2.34706, -0.758025 -2.30474, -0.691522 -2.26215, -0.635737 -2.20361, -0.590394 -2.12887, -0.545051 -2.05412, -0.522517 -1.96398, -0.522517 -1.85873, -0.522517 -1.68258, -0.579676 -1.54766, -0.694545 -1.45395, -0.809413 -1.35996, -0.937747 -1.31325, -1.07955 -1.31352, -1.2153 -1.31325, -1.34226 -1.35996, -1.45988 -1.45395, -1.57749 -1.54766, -1.63658 -1.68258, -1.63658 -1.85873, -1.63658 -2.10468, -1.58821 -2.33772, -1.49148 -2.55756, -1.39475 -2.77741, -1.26367 -2.96785, -1.09768 -3.12916, -0.931701 -3.29019, -0.735491 -3.4177, -0.509052 -3.51168, -0.282613 -3.60539, -0.0424333 -3.65238, 0.211211 -3.65266, 0.525313 -3.65238, 0.813034 -3.60622, 1.0741 -3.51388, 1.33516 -3.42155, 1.55775 -3.28882, 1.74187 -3.11597, 1.92599 -2.94284, 2.07027 -2.74278, 2.17442 -2.51579, 2.27857 -2.28853, 2.33051 -2.03736, 2.33051 -1.762, 2.33051 -1.45697, 2.26125 -1.17612, 2.1222 -0.919726, 1.98343 -0.663059, 1.8114 -0.427826, 1.60612 -0.214028, 1.40084 4.48227e-005, 1.18265 0.201477, 0.951535 0.390542, 0.720699 0.579608, 0.511573 0.763452, 0.324431 0.942075 L -0.717353 1.92258, 0.645952 1.92258 C 0.836117 1.92285, 1.01364 1.92148, 1.17797 1.91846, 1.34258 1.91571, 1.48218 1.90966, 1.59705 1.90087, 1.71192 1.89208, 1.77073 1.8863, 1.77348 1.88301, 1.79766 1.86267, 1.82047 1.82173, 1.84163 1.76017, 1.86279 1.69861, 1.8823 1.62606, 1.90044 1.54252, 1.91857 1.45898, 1.93671 1.37407, 1.95485 1.2875, 1.97298 1.20122, 1.98947 1.10641, 2.00459 1.00363 L 2.33957 1.00363 Z" stroke="none" fill="#000000" transform="matrix(1.12 0 0 1 8.32718 13.9768)" />
			<rect />
		</svg>
	</g>
	<g transform="matrix(1 0 -0 1 162.957 127.818)">
		<svg width="38.880394" height="33.1595688">
			<defs />
			<path d="M 6.06116 12.5207 C 6.09944 12.558, 6.11809 12.5973, 6.11809 12.6385, 6.11809 12.6861, 6.09649 12.7386, 6.05331 12.7955, 5.62736 13.3873, 5.08462 13.8393, 4.42411 14.1504, 3.7636 14.4615, 3.1021 14.6171, 2.43914 14.6171, 1.97001 14.6171, 1.5632 14.514, 1.21822 14.3074, 0.873242 14.1009, 0.600891 13.83, 0.401658 13.4943, 0.175435 13.1179, 0.0458841 12.7072, 0.0134964 12.2616, 0.00270045 12.1522, -0.00269747 12.0423, -0.00269747 11.9319, -0.00269747 11.5972, 0.0404861 11.2493, 0.126363 10.8876, 0.255913 10.4067, 0.454165 9.94345, 0.721118 9.49837, 0.988072 9.05377, 1.32323 8.645, 1.72759 8.27303, 2.09956 7.94915, 2.51078 7.68466, 2.96078 7.48052, 3.41077 7.27637, 3.86223 7.1743, 4.31468 7.17381, 4.58998 7.1743, 4.8476 7.21651, 5.08708 7.29993, 5.32704 7.38384, 5.53167 7.50554, 5.70146 7.66503, 5.87125 7.825, 5.99393 8.01197, 6.0695 8.22592, 6.0911 8.34173, 6.10189 8.45656, 6.10189 8.57139, 6.10189 8.69751, 6.0857 8.83098, 6.05331 8.97182, 5.99393 9.20786, 5.87272 9.38746, 5.68919 9.51014, 5.50615 9.63332, 5.32311 9.69466, 5.13959 9.69416, 4.94575 9.69466, 4.78921 9.62644, 4.67045 9.49002, 4.57918 9.40169, 4.53305 9.28637, 4.53305 9.14456, 4.53305 9.08763, 4.54385 9.01697, 4.56544 8.93256, 4.62482 8.7029, 4.7421 8.53164, 4.91729 8.41878, 5.09248 8.3064, 5.22841 8.24751, 5.32557 8.24163, 5.27159 8.11109, 5.14351 7.98841, 4.94133 7.87309, 4.73916 7.75826, 4.49821 7.70036, 4.21801 7.69987, 3.9486 7.70036, 3.67232 7.7828, 3.38918 7.94768, 3.10652 8.11257, 2.85723 8.32603, 2.64132 8.58709, 2.35032 8.92766, 2.12802 9.2957, 1.97442 9.69073, 1.82083 10.0863, 1.6898 10.4955, 1.58185 10.919, 1.47438 11.3381, 1.39095 11.7439, 1.33109 12.136, 1.30949 12.2621, 1.2987 12.3799, 1.2987 12.4893, 1.2987 12.7465, 1.34188 12.9923, 1.42825 13.2274, 1.50922 13.4894, 1.64515 13.7004, 1.83653 13.8599, 2.02791 14.0199, 2.25855 14.0994, 2.52796 14.0989, 3.09916 14.0994, 3.65711 13.9531, 4.20181 13.6597, 4.74652 13.3667, 5.19651 12.9688, 5.55179 12.4658, 5.58418 12.4088, 5.6465 12.3642, 5.73778 12.3323 L 5.80255 12.3323 C 5.85653 12.3328, 5.90266 12.3509, 5.93995 12.3873 L 6.06116 12.5207 Z" stroke="none" fill="#000000" />
			<path d="M 2.04965 2.7404 L -1.63658 2.7404, -1.63658 2.49857 C -1.63658 2.48126, -1.62751 2.45487, -1.60937 2.41943 L -0.128447 0.810169 C 0.0466034 0.616981, 0.223852 0.419122, 0.403575 0.216866, 0.583297 0.0146096, 0.744333 -0.192044, 0.886132 -0.403094, 1.02793 -0.614144, 1.14115 -0.831789, 1.22579 -1.05603, 1.31043 -1.28027, 1.35248 -1.5155, 1.35248 -1.762, 1.35248 -1.96976, 1.32527 -2.16404, 1.27086 -2.34431, 1.21645 -2.52459, 1.13813 -2.68287, 1.03535 -2.81918, 0.932848 -2.95548, 0.804515 -3.0654, 0.650624 -3.14894, 0.496733 -3.23248, 0.318385 -3.27425, 0.116129 -3.27453, -0.185606 -3.27425, -0.452167 -3.18412, -0.683278 -3.00385, -0.914114 -2.82357, -1.06745 -2.62489, -1.14303 -2.40834, -1.15787 -2.4023, -1.13368 -2.39928, -1.07048 -2.39955 L -0.993532 -2.39955 C -0.902847 -2.37866, -0.824527 -2.34706, -0.758025 -2.30474, -0.691522 -2.26215, -0.635737 -2.20361, -0.590394 -2.12887, -0.545051 -2.05412, -0.522517 -1.96398, -0.522517 -1.85873, -0.522517 -1.68258, -0.579676 -1.54766, -0.694545 -1.45395, -0.809413 -1.35996, -0.937747 -1.31325, -1.07955 -1.31352, -1.2153 -1.31325, -1.34226 -1.35996, -1.45988 -1.45395, -1.57749 -1.54766, -1.63658 -1.68258, -1.63658 -1.85873, -1.63658 -2.10468, -1.58821 -2.33772, -1.49148 -2.55756, -1.39475 -2.77741, -1.26367 -2.96785, -1.09768 -3.12916, -0.931701 -3.29019, -0.735491 -3.4177, -0.509052 -3.51168, -0.282613 -3.60539, -0.0424333 -3.65238, 0.211211 -3.65266, 0.525313 -3.65238, 0.813034 -3.60622, 1.0741 -3.51388, 1.33516 -3.42155, 1.55775 -3.28882, 1.74187 -3.11597, 1.92599 -2.94284, 2.07027 -2.74278, 2.17442 -2.51579, 2.27857 -2.28853, 2.33051 -2.03736, 2.33051 -1.762, 2.33051 -1.45697, 2.26125 -1.17612, 2.1222 -0.919726, 1.98343 -0.663059, 1.8114 -0.427826, 1.60612 -0.214028, 1.40084 4.48227e-005, 1.18265 0.201477, 0.951535 0.390542, 0.720699 0.579608, 0.511573 0.763452, 0.324431 0.942075 L -0.717353 1.92258, 0.645952 1.92258 C 0.836117 1.92285, 1.01364 1.92148, 1.17797 1.91846, 1.34258 1.91571, 1.48218 1.90966, 1.59705 1.90087, 1.71192 1.89208, 1.77073 1.8863, 1.77348 1.88301, 1.79766 1.86267, 1.82047 1.82173, 1.84163 1.76017, 1.86279 1.69861, 1.8823 1.62606, 1.90044 1.54252, 1.91857 1.45898, 1.93671 1.37407, 1.95485 1.2875, 1.97298 1.20122, 1.98947 1.10641, 2.00459 1.00363 L 2.33957 1.00363 Z" stroke="none" fill="#000000" transform="matrix(1.12 0 0 1 8.59413 13.9768)" />
			<rect />
		</svg>
	</g>
	<g transform="matrix(1 0 -0 1 49.6927 88.5328)">
		<svg width="42.0378685" height="45.2233963">
			<defs />
			<path d="M 5.2657 12.6464 C 5.16854 12.982, 5.11996 13.275, 5.11996 13.5257, 5.11996 13.5944, 5.12535 13.6597, 5.13615 13.722, 5.16314 13.9738, 5.28975 14.0994, 5.51597 14.0989, 5.62933 14.0994, 5.73581 14.0523, 5.83543 13.9581, 5.93554 13.8638, 6.0273 13.724, 6.11072 13.538, 6.19415 13.3525, 6.27364 13.1297, 6.34922 12.8706, 6.42479 12.6115, 6.50281 12.3303, 6.58329 12.0261, 6.61568 11.8906, 6.70744 11.8224, 6.85859 11.8219 L 7.04457 11.8219 C 7.18492 11.8224, 7.2546 11.8798, 7.2546 11.9947 L 7.2546 12.0496 C 7.18982 12.3068, 7.1172 12.5816, 7.03623 12.8745, 6.95575 13.168, 6.84779 13.4399, 6.71284 13.6911, 6.57838 13.9424, 6.40859 14.1597, 6.20347 14.3428, 5.99884 14.5258, 5.74268 14.6171, 5.43549 14.6171, 5.02574 14.6171, 4.69842 14.5037, 4.45306 14.276, 4.2077 14.0483, 4.06637 13.8167, 4.02859 13.5807, 3.84555 13.7907, 3.57222 14.016, 3.2081 14.2564, 2.84398 14.4969, 2.45975 14.6171, 2.05539 14.6171, 1.62994 14.6171, 1.27318 14.5101, 0.984636 14.2957, 0.696091 14.0812, 0.47134 13.8113, 0.309402 13.4865, 0.115075 13.0998, 0.0125144 12.6836, 0.00171852 12.2381 L 0.00171852 12.1203 C 0.00171852 11.7071, 0.0586423 11.2939, 0.171509 10.8798, 0.301059 10.4249, 0.482136 9.97486, 0.713757 9.52977, 0.945378 9.08518, 1.25257 8.6715, 1.63533 8.28873, 1.94792 7.97516, 2.30517 7.71115, 2.70658 7.49622, 3.10799 7.28177, 3.51627 7.1743, 3.93143 7.17381, 4.2926 7.1743, 4.58654 7.26999, 4.81276 7.46089, 5.03948 7.65227, 5.18228 7.81273, 5.24116 7.94327 L 6.11465 4.56709 C 6.15783 4.39485, 6.18482 4.26383, 6.19513 4.17452 L 6.19513 4.16666 C 6.19513 4.11465, 6.17648 4.07539, 6.1387 4.04889, 6.0906 4.00767, 5.97725 3.97872, 5.79912 3.96301, 5.62147 3.94731, 5.41635 3.93946, 5.18473 3.93897, 5.03408 3.93946, 4.95851 3.8688, 4.95851 3.72698 L 4.95851 3.66416, 5.0066 3.53069 C 5.03899 3.41095, 5.13615 3.33244, 5.29809 3.29514 L 6.83405 3.16952, 7.42439 3.12241, 7.45678 3.12241 C 7.52155 3.1229, 7.57848 3.14645, 7.62657 3.19307, 7.64276 3.24067, 7.65061 3.28533, 7.65061 3.32655 L 7.65061 3.38151 Z M 4.94231 9.16026 C 4.92072 9.06653, 4.90207 8.96839, 4.88588 8.86632, 4.86969 8.76425, 4.84515 8.66365, 4.81276 8.56354, 4.7264 8.31818, 4.60372 8.11257, 4.44472 7.94768, 4.28573 7.7828, 4.08502 7.70036, 3.8426 7.69987, 3.61638 7.70036, 3.39261 7.78182, 3.17179 7.94376, 2.95096 8.10619, 2.74829 8.31523, 2.56476 8.57139, 2.30664 8.93305, 2.11281 9.30895, 1.98326 9.69858, 1.85371 10.0887, 1.73495 10.4955, 1.62699 10.919, 1.51952 11.3381, 1.4307 11.7439, 1.36004 12.136, 1.31735 12.3352, 1.29575 12.5237, 1.29575 12.7013, 1.29575 12.8902, 1.31735 13.0733, 1.36004 13.2509, 1.40911 13.4973, 1.49646 13.7004, 1.62307 13.8599, 1.74967 14.0199, 1.92633 14.0994, 2.15256 14.0989, 2.40086 14.0994, 2.65015 14.013, 2.90042 13.8403, 3.15118 13.6675, 3.38427 13.4556, 3.5997 13.2038, 3.68606 13.0998, 3.76851 12.9992, 3.84653 12.902, 3.92505 12.8053, 3.99375 12.7018, 4.05263 12.5914 L 4.94231 9.16026 Z" stroke="none" fill="#000000" />
			<path d="M 2.04965 2.7404 L -1.63658 2.7404, -1.63658 2.49857 C -1.63658 2.48126, -1.62751 2.45487, -1.60937 2.41943 L -0.128447 0.810169 C 0.0466034 0.616981, 0.223852 0.419122, 0.403575 0.216866, 0.583297 0.0146096, 0.744333 -0.192044, 0.886132 -0.403094, 1.02793 -0.614144, 1.14115 -0.831789, 1.22579 -1.05603, 1.31043 -1.28027, 1.35248 -1.5155, 1.35248 -1.762, 1.35248 -1.96976, 1.32527 -2.16404, 1.27086 -2.34431, 1.21645 -2.52459, 1.13813 -2.68287, 1.03535 -2.81918, 0.932848 -2.95548, 0.804515 -3.0654, 0.650624 -3.14894, 0.496733 -3.23248, 0.318385 -3.27425, 0.116129 -3.27453, -0.185606 -3.27425, -0.452167 -3.18412, -0.683278 -3.00385, -0.914114 -2.82357, -1.06745 -2.62489, -1.14303 -2.40834, -1.15787 -2.4023, -1.13368 -2.39928, -1.07048 -2.39955 L -0.993532 -2.39955 C -0.902847 -2.37866, -0.824527 -2.34706, -0.758025 -2.30474, -0.691522 -2.26215, -0.635737 -2.20361, -0.590394 -2.12887, -0.545051 -2.05412, -0.522517 -1.96398, -0.522517 -1.85873, -0.522517 -1.68258, -0.579676 -1.54766, -0.694545 -1.45395, -0.809413 -1.35996, -0.937747 -1.31325, -1.07955 -1.31352, -1.2153 -1.31325, -1.34226 -1.35996, -1.45988 -1.45395, -1.57749 -1.54766, -1.63658 -1.68258, -1.63658 -1.85873, -1.63658 -2.10468, -1.58821 -2.33772, -1.49148 -2.55756, -1.39475 -2.77741, -1.26367 -2.96785, -1.09768 -3.12916, -0.931701 -3.29019, -0.735491 -3.4177, -0.509052 -3.51168, -0.282613 -3.60539, -0.0424333 -3.65238, 0.211211 -3.65266, 0.525313 -3.65238, 0.813034 -3.60622, 1.0741 -3.51388, 1.33516 -3.42155, 1.55775 -3.28882, 1.74187 -3.11597, 1.92599 -2.94284, 2.07027 -2.74278, 2.17442 -2.51579, 2.27857 -2.28853, 2.33051 -2.03736, 2.33051 -1.762, 2.33051 -1.45697, 2.26125 -1.17612, 2.1222 -0.919726, 1.98343 -0.663059, 1.8114 -0.427826, 1.60612 -0.214028, 1.40084 4.48227e-005, 1.18265 0.201477, 0.951535 0.390542, 0.720699 0.579608, 0.511573 0.763452, 0.324431 0.942075 L -0.717353 1.92258, 0.645952 1.92258 C 0.836117 1.92285, 1.01364 1.92148, 1.17797 1.91846, 1.34258 1.91571, 1.48218 1.90966, 1.59705 1.90087, 1.71192 1.89208, 1.77073 1.8863, 1.77348 1.88301, 1.79766 1.86267, 1.82047 1.82173, 1.84163 1.76017, 1.86279 1.69861, 1.8823 1.62606, 1.90044 1.54252, 1.91857 1.45898, 1.93671 1.37407, 1.95485 1.2875, 1.97298 1.20122, 1.98947 1.10641, 2.00459 1.00363 L 2.33957 1.00363 Z" stroke="none" fill="#000000" transform="matrix(1.12 0 0 1 10.1222 13.9768)" />
			<rect />
		</svg>
	</g>
</svg>
