<?xml version="1.0"?>
<svg xmlns="http://www.w3.org/2000/svg" xmlns:xlink="http://www.w3.org/1999/xlink" width="177.066391" height="189.371063">
	<defs>
		<marker id="CustomMarker-01" markerUnits="strokeWidth" markerWidth="15.000001" markerHeight="9" viewBox="-15 -4.5 15 9" orient="auto-start-reverse">
			<path d="M 0 -0 L -10 -3, -8 -0.5, -8 0.5, -10 3 Z" fill="#000000" stroke="#000000" stroke-linejoin="round" />
		</marker>
		<marker id="CustomMarker-02" markerUnits="strokeWidth" markerWidth="15.000001" markerHeight="9" viewBox="-15 -4.5 15 9" orient="auto-start-reverse">
			<path d="M 0 -0 L -10 -3, -8 -0.5, -8 0.5, -10 3 Z" fill="#000000" stroke="#000000" stroke-linejoin="round" />
		</marker>
		<marker id="CustomMarker-03" markerUnits="strokeWidth" markerWidth="15.000001" markerHeight="9" viewBox="-15 -4.5 15 9" orient="auto-start-reverse">
			<path d="M 0 -0 L -10 -3, -8 -0.5, -8 0.5, -10 3 Z" fill="#000000" stroke="#000000" stroke-linejoin="round" />
		</marker>
	</defs>
	<path d="M -124.688 149.488 L 124.688 -149.488" fill="none" stroke="#000000" stroke-width="4.53333378" stroke-linecap="round" stroke-linejoin="round" marker-end="url(#CustomMarker-01)" transform="matrix(0.294118 0 0 0.294118 71.1187 71.8559)" />
	<path d="M -185.823 58.9469 L 185.822 -58.9464" fill="none" stroke="#000000" stroke-width="4.53333378" stroke-linecap="round" stroke-linejoin="round" marker-end="url(#CustomMarker-02)" transform="matrix(0.294118 0 0 0.294118 89.1 98.4861)" />
	<path d="M 55.3928 -66.41 C 68.0612 -55.8432, 77.443 -41.8734, 82.4312 -26.1488" fill="none" stroke="#000000" stroke-width="4.53333378" stroke-linecap="round" stroke-linejoin="round" transform="matrix(0.294118 0 -0 0.294118 34.4463 115.823)" />
	<g transform="matrix(1 0 -0 1 8.99999 105.454)">
		<svg width="41.9788857" height="47.9999886">
			<defs />
			<path d="M 12.2634 10.4122 C 12.0367 11.2984, 11.6703 12.1532, 11.1642 12.9776, 10.6581 13.802, 10.0209 14.556, 9.25376 15.2396, 8.56217 15.8567, 7.80531 16.3474, 6.98433 16.7103, 6.16336 17.0733, 5.34123 17.2548, 4.51739 17.2548, 3.68725 17.2548, 2.94929 17.0722, 2.30464 16.7058, 1.65999 16.3394, 1.14588 15.8447, 0.762298 15.2212, 0.340931 14.5319, 0.0987594 13.7682, 0.0357833 12.9312, 0.0105929 12.7303, -0.00200236 12.5287, -0.00200236 12.3266, -0.00200236 11.698, 0.0798666 11.0477, 0.243032 10.3755, 0.482341 9.4784, 0.85161 8.60704, 1.35198 7.76087, 1.85236 6.91528, 2.49185 6.1504, 3.27161 5.46568, 3.96377 4.84966, 4.72006 4.35329, 5.54104 3.97773, 6.36202 3.60216, 7.19044 3.41438, 8.02687 3.41381, 8.85701 3.41438, 9.59154 3.60388, 10.2299 3.98231, 10.8688 4.36131, 11.3795 4.86168, 11.7631 5.484, 12.1844 6.17445, 12.4329 6.9439, 12.5085 7.79236, 12.5211 8.00075, 12.5274 8.20514, 12.5274 8.40609, 12.5274 9.0599, 12.4398 9.72859, 12.2634 10.4122 Z M 10.3576 5.79545 C 10.1503 5.28305, 9.83887 4.86626, 9.42323 4.54566, 9.00816 4.22505, 8.49862 4.06475, 7.89462 4.06418, 7.2975 4.06475, 6.70323 4.22849, 6.11183 4.55482, 5.521 4.88172, 4.99257 5.30423, 4.52655 5.82293, 3.94144 6.45269, 3.47943 7.13512, 3.13993 7.87079, 2.80043 8.60704, 2.53593 9.35302, 2.34701 10.1099, 2.12716 10.9349, 1.99205 11.7381, 1.94167 12.519, 1.92907 12.6661, 1.92278 12.8127, 1.92278 12.9587, 1.92278 13.5701, 2.02354 14.1684, 2.22449 14.7541, 2.41971 15.2739, 2.71856 15.709, 3.12104 16.06, 3.52351 16.4115, 4.02675 16.5867, 4.63017 16.5861, 5.25306 16.5867, 5.86222 16.4081, 6.45648 16.0508, 7.05075 15.6936, 7.58375 15.2522, 8.0555 14.7266, 8.6658 14.019, 9.14041 13.2707, 9.4799 12.4829, 9.81997 11.6952, 10.0965 10.8919, 10.31 10.0732, 10.5053 9.31066, 10.6278 8.55952, 10.6782 7.81984 L 10.6782 7.49924 C 10.6782 6.88894, 10.5717 6.32101, 10.3576 5.79545 Z" stroke="none" fill="#000000" />
			<rect />
		</svg>
	</g>
	<g transform="matrix(1 0 -0 1 111.879 9)">
		<svg width="53.9427032" height="38.9999924">
			<defs />
			<path d="M 11.024 9.57859 C 10.7978 10.4339, 10.4772 11.2589, 10.0616 12.0524, 9.6465 12.8465, 9.15586 13.5667, 8.58965 14.2136, 8.58965 14.5136, 8.59595 14.8039, 8.60854 15.0844, 8.62114 15.3655, 8.64977 15.6111, 8.69385 15.8218, 8.73793 16.0325, 8.79461 16.1899, 8.86331 16.2936, 8.93258 16.3978, 9.02361 16.4493, 9.13697 16.4487, 9.34479 16.4493, 9.54288 16.3668, 9.73181 16.202, 9.92074 16.0371, 10.0433 15.8384, 10.0994 15.606, 10.1371 15.4354, 10.2476 15.3501, 10.4297 15.3495 L 10.5431 15.3495 C 10.6879 15.3501, 10.7663 15.4233, 10.7789 15.5693 L 10.7789 15.6335 C 10.7348 15.8293, 10.6564 16.013, 10.5431 16.1836, 10.4297 16.3548, 10.2929 16.506, 10.1326 16.6371, 9.97226 16.7682, 9.79765 16.8701, 9.60872 16.9434, 9.42036 17.0166, 9.22227 17.0533, 9.01445 17.0533, 8.46713 17.0533, 8.05206 16.889, 7.76925 16.5592, 7.48643 16.2294, 7.30379 15.8842, 7.22193 15.5235, 6.67461 15.9701, 6.04885 16.3365, 5.34409 16.6233, 4.63991 16.9102, 3.90709 17.0533, 3.14566 17.0533, 2.59261 17.0533, 2.08938 16.9405, 1.63652 16.7149, 1.18367 16.4894, 0.825274 16.1653, 0.560775 15.7434, 0.277955 15.3346, 0.101622 14.8617, 0.0323482 14.3236, 0.00715774 14.1713, -0.00543743 14.0064, -0.00543743 13.8289, -0.00543743 13.4631, 0.0483785 13.0846, 0.154865 12.693, 0.306008 12.1257, 0.547035 11.5807, 0.8768 11.0585, 1.20714 10.5364, 1.61763 10.0647, 2.1077 9.64271, 2.58631 9.25226, 3.10386 8.94253, 3.66034 8.71353, 4.21682 8.48452, 4.77216 8.37002, 5.3252 8.36945, 5.85363 8.37002, 6.3208 8.46964, 6.72613 8.66773, 7.13204 8.86639, 7.47497 9.13375, 7.75493 9.46924, 8.03489 9.8053, 8.24386 10.1975, 8.3824 10.6463, 8.52095 11.0952, 8.58965 11.5669, 8.58965 12.061 L 8.58965 13.2701 C 8.92342 12.8373, 9.25663 12.2848, 9.58983 11.6127, 9.92303 10.9412, 10.1778 10.2542, 10.3541 9.55111, 10.3919 9.3805, 10.5024 9.29234, 10.6845 9.28547 L 10.7789 9.28547 C 10.9427 9.28604, 11.024 9.35932, 11.024 9.50531 L 11.024 9.57859 Z M 7.09884 14.8732 C 7.09311 14.8308, 7.08681 14.7672, 7.08052 14.6814, 7.07422 14.5961, 7.07078 14.5102, 7.07078 14.4243 L 7.07078 12.3633 C 7.07078 11.9179, 7.04101 11.4925, 6.98147 11.086, 6.92193 10.6801, 6.82403 10.3183, 6.68892 10.0005, 6.55381 9.68336, 6.36774 9.43432, 6.13187 9.25398, 5.89599 9.07421, 5.5897 8.98375, 5.21184 8.98318, 4.85975 8.98375, 4.50422 9.07707, 4.14583 9.26314, 3.78744 9.44978, 3.46683 9.70454, 3.18344 10.0274, 2.83135 10.419, 2.56227 10.845, 2.37678 11.3059, 2.19128 11.7673, 2.03556 12.2448, 1.90961 12.7388, 1.78423 13.2278, 1.6932 13.6984, 1.63595 14.1495, 1.62335 14.2663, 1.61706 14.3819, 1.61706 14.4976, 1.61706 14.8216, 1.67087 15.1331, 1.77793 15.4319, 1.89758 15.7377, 2.08308 15.9838, 2.33441 16.1699, 2.58631 16.3565, 2.88803 16.4493, 3.24012 16.4487, 3.95118 16.4493, 4.63533 16.309, 5.29257 16.0279, 5.94981 15.7474, 6.55209 15.3621, 7.09884 14.8732 Z" stroke="none" fill="#000000" />
			<path d="M 2.37267 3.19713 C 1.72472 3.17661, 1.09441 3.16635, 0.481416 3.16635, -0.131261 3.16635, -0.761571 3.17661, -1.40951 3.19713 L -1.40951 2.75598, -1.04499 2.75598 C -0.928927 2.7563, -0.819601 2.75469, -0.717648 2.75117, -0.615375 2.74796, -0.518552 2.7393, -0.426859 2.72552, -0.335166 2.71205, -0.255976 2.69827, -0.18929 2.68416, -0.132864 2.67422, -0.086376 2.6428, -0.0495062 2.58958, -0.012316 2.53668, 0.00595856 2.47769, 0.00595856 2.41229 L 0.00595856 -3.36887 C -0.169733 -3.28295, -0.386463 -3.21787, -0.643588 -3.17362, -0.900714 -3.12906, -1.18221 -3.10694, -1.4887 -3.10726 L -1.4887 -3.54328 C -1.06615 -3.54296, -0.675969 -3.59329, -0.318494 -3.69429, 0.0389807 -3.79496, 0.348044 -3.98411, 0.608376 -4.26144 L 0.772206 -4.26144 C 0.888265 -4.26112, 0.946294 -4.20469, 0.946294 -4.09216 L 0.946294 2.41229 C 0.946294 2.4809, 0.963928 2.54085, 0.999194 2.59215, 1.03446 2.64344, 1.08576 2.67422, 1.15244 2.68416, 1.20887 2.69827, 1.28133 2.71205, 1.36917 2.72552, 1.45702 2.7393, 1.55641 2.74796, 1.66734 2.75117, 1.77827 2.75469, 1.88663 2.7563, 1.99243 2.75598 L 2.37267 2.75598, 2.37267 3.19713 Z" stroke="none" fill="#000000" transform="matrix(1.12 0 0 1 13.4924 16.3063)" />
			<rect />
		</svg>
	</g>
	<path d="M -155.054 -93.9557 L 155.054 93.9558" fill="none" stroke="#000000" stroke-width="4.53333378" stroke-linecap="round" stroke-linejoin="round" marker-end="url(#CustomMarker-03)" transform="matrix(0.294118 0 0 0.294118 80.0507 143.457)" />
	<g transform="matrix(1 0 -0 1 151.279 68.2168)">
		<svg width="53.9427032" height="38.9999924">
			<defs />
			<path d="M 11.024 9.57859 C 10.7978 10.4339, 10.4772 11.2589, 10.0616 12.0524, 9.6465 12.8465, 9.15586 13.5667, 8.58965 14.2136, 8.58965 14.5136, 8.59595 14.8039, 8.60854 15.0844, 8.62114 15.3655, 8.64977 15.6111, 8.69385 15.8218, 8.73793 16.0325, 8.79461 16.1899, 8.86331 16.2936, 8.93258 16.3978, 9.02361 16.4493, 9.13697 16.4487, 9.34479 16.4493, 9.54288 16.3668, 9.73181 16.202, 9.92074 16.0371, 10.0433 15.8384, 10.0994 15.606, 10.1371 15.4354, 10.2476 15.3501, 10.4297 15.3495 L 10.5431 15.3495 C 10.6879 15.3501, 10.7663 15.4233, 10.7789 15.5693 L 10.7789 15.6335 C 10.7348 15.8293, 10.6564 16.013, 10.5431 16.1836, 10.4297 16.3548, 10.2929 16.506, 10.1326 16.6371, 9.97226 16.7682, 9.79765 16.8701, 9.60872 16.9434, 9.42036 17.0166, 9.22227 17.0533, 9.01445 17.0533, 8.46713 17.0533, 8.05206 16.889, 7.76925 16.5592, 7.48643 16.2294, 7.30379 15.8842, 7.22193 15.5235, 6.67461 15.9701, 6.04885 16.3365, 5.34409 16.6233, 4.63991 16.9102, 3.90709 17.0533, 3.14566 17.0533, 2.59261 17.0533, 2.08938 16.9405, 1.63652 16.7149, 1.18367 16.4894, 0.825274 16.1653, 0.560775 15.7434, 0.277955 15.3346, 0.101622 14.8617, 0.0323482 14.3236, 0.00715774 14.1713, -0.00543743 14.0064, -0.00543743 13.8289, -0.00543743 13.4631, 0.0483785 13.0846, 0.154865 12.693, 0.306008 12.1257, 0.547035 11.5807, 0.8768 11.0585, 1.20714 10.5364, 1.61763 10.0647, 2.1077 9.64271, 2.58631 9.25226, 3.10386 8.94253, 3.66034 8.71353, 4.21682 8.48452, 4.77216 8.37002, 5.3252 8.36945, 5.85363 8.37002, 6.3208 8.46964, 6.72613 8.66773, 7.13204 8.86639, 7.47497 9.13375, 7.75493 9.46924, 8.03489 9.8053, 8.24386 10.1975, 8.3824 10.6463, 8.52095 11.0952, 8.58965 11.5669, 8.58965 12.061 L 8.58965 13.2701 C 8.92342 12.8373, 9.25663 12.2848, 9.58983 11.6127, 9.92303 10.9412, 10.1778 10.2542, 10.3541 9.55111, 10.3919 9.3805, 10.5024 9.29234, 10.6845 9.28547 L 10.7789 9.28547 C 10.9427 9.28604, 11.024 9.35932, 11.024 9.50531 L 11.024 9.57859 Z M 7.09884 14.8732 C 7.09311 14.8308, 7.08681 14.7672, 7.08052 14.6814, 7.07422 14.5961, 7.07078 14.5102, 7.07078 14.4243 L 7.07078 12.3633 C 7.07078 11.9179, 7.04101 11.4925, 6.98147 11.086, 6.92193 10.6801, 6.82403 10.3183, 6.68892 10.0005, 6.55381 9.68336, 6.36774 9.43432, 6.13187 9.25398, 5.89599 9.07421, 5.5897 8.98375, 5.21184 8.98318, 4.85975 8.98375, 4.50422 9.07707, 4.14583 9.26314, 3.78744 9.44978, 3.46683 9.70454, 3.18344 10.0274, 2.83135 10.419, 2.56227 10.845, 2.37678 11.3059, 2.19128 11.7673, 2.03556 12.2448, 1.90961 12.7388, 1.78423 13.2278, 1.6932 13.6984, 1.63595 14.1495, 1.62335 14.2663, 1.61706 14.3819, 1.61706 14.4976, 1.61706 14.8216, 1.67087 15.1331, 1.77793 15.4319, 1.89758 15.7377, 2.08308 15.9838, 2.33441 16.1699, 2.58631 16.3565, 2.88803 16.4493, 3.24012 16.4487, 3.95118 16.4493, 4.63533 16.309, 5.29257 16.0279, 5.94981 15.7474, 6.55209 15.3621, 7.09884 14.8732 Z" stroke="none" fill="#000000" />
			<path d="M 2.39138 3.19713 L -1.90858 3.19713, -1.90858 2.915 C -1.90858 2.8948, -1.898 2.86402, -1.87684 2.82266 L -0.149418 0.945196 C 0.0551279 0.71981, 0.261918 0.488975, 0.471594 0.253009, 0.68127 0.0170434, 0.868504 -0.224052, 1.03394 -0.470277, 1.19937 -0.716502, 1.33146 -0.970422, 1.4302 -1.23204, 1.52895 -1.49365, 1.578 -1.76809, 1.578 -2.05567, 1.578 -2.29805, 1.54658 -2.52472, 1.4831 -2.73503, 1.41962 -2.94535, 1.32825 -3.13002, 1.20835 -3.28904, 1.08844 -3.44806, 0.938716 -3.5763, 0.759177 -3.67377, 0.579638 -3.77123, 0.371886 -3.81996, 0.13592 -3.82028, -0.216105 -3.81996, -0.527092 -3.7148, -0.7964 -3.50449, -1.06571 -3.29417, -1.24461 -3.06237, -1.33277 -2.80974, -1.35009 -2.80268, -1.32187 -2.79915, -1.24813 -2.79948 L -1.15836 -2.79948 C -1.05256 -2.77511, -0.961191 -2.73824, -0.883605 -2.68887, -0.806018 -2.63917, -0.740935 -2.57088, -0.688036 -2.48368, -0.635136 -2.39647, -0.608846 -2.29132, -0.608846 -2.16852, -0.608846 -1.96302, -0.675532 -1.8056, -0.809545 -1.69627, -0.943558 -1.58663, -1.09328 -1.53212, -1.25871 -1.53244, -1.41709 -1.53212, -1.56489 -1.58663, -1.70243 -1.69627, -1.83965 -1.8056, -1.90858 -1.96302, -1.90858 -2.16852, -1.90858 -2.45547, -1.85215 -2.72734, -1.7393 -2.98382, -1.62645 -3.24031, -1.47352 -3.46249, -1.27987 -3.65068, -1.08623 -3.83856, -0.857315 -3.98732, -0.593136 -4.09697, -0.328958 -4.20629, -0.0487483 -4.26112, 0.24685 -4.26144, 0.612981 -4.26112, 0.948655 -4.20725, 1.25323 -4.09953, 1.55781 -3.99181, 1.8175 -3.83695, 2.0323 -3.63529, 2.24711 -3.43331, 2.41543 -3.19991, 2.53693 -2.93509, 2.65844 -2.66995, 2.71904 -2.37692, 2.71904 -2.05567, 2.71904 -1.6998, 2.63825 -1.37214, 2.47602 -1.07302, 2.31411 -0.77357, 2.11342 -0.499131, 1.87392 -0.2497, 1.63443 5.126e-005, 1.37987 0.235055, 1.11056 0.455632, 0.841252 0.676208, 0.597272 0.890693, 0.378939 1.09909 L -0.836155 2.24301, 0.754048 2.24301 C 0.975907 2.24333, 1.18302 2.24172, 1.37474 2.2382, 1.56678 2.23499, 1.72965 2.22794, 1.86334 2.21768, 1.99736 2.20742, 2.06597 2.20069, 2.06917 2.19684, 2.09738 2.17312, 2.12399 2.12534, 2.14868 2.05353, 2.17337 1.98171, 2.19613 1.89707, 2.21729 1.79961, 2.23845 1.70215, 2.25961 1.60308, 2.28077 1.50209, 2.30193 1.40142, 2.32117 1.29081, 2.3388 1.1709 L 2.72962 1.1709 Z" stroke="none" fill="#000000" transform="matrix(1.12 0 0 1 13.9153 16.3063)" />
			<rect />
		</svg>
	</g>
	<g transform="matrix(1 0 -0 1 133.596 157.84)">
		<svg width="57.0301361" height="38.9999924">
			<defs />
			<path d="M 11.024 9.57859 C 10.7978 10.4339, 10.4772 11.2589, 10.0616 12.0524, 9.6465 12.8465, 9.15586 13.5667, 8.58965 14.2136, 8.58965 14.5136, 8.59595 14.8039, 8.60854 15.0844, 8.62114 15.3655, 8.64977 15.6111, 8.69385 15.8218, 8.73793 16.0325, 8.79461 16.1899, 8.86331 16.2936, 8.93258 16.3978, 9.02361 16.4493, 9.13697 16.4487, 9.34479 16.4493, 9.54288 16.3668, 9.73181 16.202, 9.92074 16.0371, 10.0433 15.8384, 10.0994 15.606, 10.1371 15.4354, 10.2476 15.3501, 10.4297 15.3495 L 10.5431 15.3495 C 10.6879 15.3501, 10.7663 15.4233, 10.7789 15.5693 L 10.7789 15.6335 C 10.7348 15.8293, 10.6564 16.013, 10.5431 16.1836, 10.4297 16.3548, 10.2929 16.506, 10.1326 16.6371, 9.97226 16.7682, 9.79765 16.8701, 9.60872 16.9434, 9.42036 17.0166, 9.22227 17.0533, 9.01445 17.0533, 8.46713 17.0533, 8.05206 16.889, 7.76925 16.5592, 7.48643 16.2294, 7.30379 15.8842, 7.22193 15.5235, 6.67461 15.9701, 6.04885 16.3365, 5.34409 16.6233, 4.63991 16.9102, 3.90709 17.0533, 3.14566 17.0533, 2.59261 17.0533, 2.08938 16.9405, 1.63652 16.7149, 1.18367 16.4894, 0.825274 16.1653, 0.560775 15.7434, 0.277955 15.3346, 0.101622 14.8617, 0.0323482 14.3236, 0.00715774 14.1713, -0.00543743 14.0064, -0.00543743 13.8289, -0.00543743 13.4631, 0.0483785 13.0846, 0.154865 12.693, 0.306008 12.1257, 0.547035 11.5807, 0.8768 11.0585, 1.20714 10.5364, 1.61763 10.0647, 2.1077 9.64271, 2.58631 9.25226, 3.10386 8.94253, 3.66034 8.71353, 4.21682 8.48452, 4.77216 8.37002, 5.3252 8.36945, 5.85363 8.37002, 6.3208 8.46964, 6.72613 8.66773, 7.13204 8.86639, 7.47497 9.13375, 7.75493 9.46924, 8.03489 9.8053, 8.24386 10.1975, 8.3824 10.6463, 8.52095 11.0952, 8.58965 11.5669, 8.58965 12.061 L 8.58965 13.2701 C 8.92342 12.8373, 9.25663 12.2848, 9.58983 11.6127, 9.92303 10.9412, 10.1778 10.2542, 10.3541 9.55111, 10.3919 9.3805, 10.5024 9.29234, 10.6845 9.28547 L 10.7789 9.28547 C 10.9427 9.28604, 11.024 9.35932, 11.024 9.50531 L 11.024 9.57859 Z M 7.09884 14.8732 C 7.09311 14.8308, 7.08681 14.7672, 7.08052 14.6814, 7.07422 14.5961, 7.07078 14.5102, 7.07078 14.4243 L 7.07078 12.3633 C 7.07078 11.9179, 7.04101 11.4925, 6.98147 11.086, 6.92193 10.6801, 6.82403 10.3183, 6.68892 10.0005, 6.55381 9.68336, 6.36774 9.43432, 6.13187 9.25398, 5.89599 9.07421, 5.5897 8.98375, 5.21184 8.98318, 4.85975 8.98375, 4.50422 9.07707, 4.14583 9.26314, 3.78744 9.44978, 3.46683 9.70454, 3.18344 10.0274, 2.83135 10.419, 2.56227 10.845, 2.37678 11.3059, 2.19128 11.7673, 2.03556 12.2448, 1.90961 12.7388, 1.78423 13.2278, 1.6932 13.6984, 1.63595 14.1495, 1.62335 14.2663, 1.61706 14.3819, 1.61706 14.4976, 1.61706 14.8216, 1.67087 15.1331, 1.77793 15.4319, 1.89758 15.7377, 2.08308 15.9838, 2.33441 16.1699, 2.58631 16.3565, 2.88803 16.4493, 3.24012 16.4487, 3.95118 16.4493, 4.63533 16.309, 5.29257 16.0279, 5.94981 15.7474, 6.55209 15.3621, 7.09884 14.8732 Z" stroke="none" fill="#000000" />
			<path d="M 2.81931 1.26324 C 2.81931 1.55755, 2.75423 1.84001, 2.62406 2.10996, 2.4939 2.38023, 2.31949 2.61106, 2.10083 2.80214, 1.85461 3.01791, 1.58242 3.17757, 1.28489 3.28177, 0.987372 3.38629, 0.676384 3.43822, 0.352252 3.43822, 0.0601807 3.43822, -0.224838 3.39719, -0.503123 3.31511, -0.781409 3.23304, -1.03212 3.11537, -1.2559 2.96148, -1.47969 2.80759, -1.65826 2.61876, -1.79228 2.39465, -1.92597 2.17087, -1.99298 1.91342, -1.99298 1.62232, -1.99298 1.40366, -1.91988 1.24047, -1.77368 1.13275, -1.62749 1.02503, -1.4736 0.971165, -1.31169 0.970845, -1.14241 0.971165, -0.984993 1.02503, -0.838797 1.13275, -0.692601 1.24047, -0.619503 1.40366, -0.619503 1.62232, -0.619503 1.75248, -0.644831 1.86117, -0.696128 1.94837, -0.747104 2.03558, -0.812187 2.10835, -0.891697 2.16638, -0.970886 2.22473, -1.06162 2.26032, -1.16357 2.27379, -1.21615 2.28789, -1.26552 2.29462, -1.31169 2.2943, -1.35722 2.29462, -1.36427 2.29815, -1.33285 2.30456, -1.22352 2.49629, -1.00872 2.66589, -0.688112 2.81272, -0.367507 2.95988, -0.0209324 3.0333, 0.352252 3.03298, 0.528585 3.0333, 0.693056 2.9897, 0.846305 2.90249, 0.999555 2.81529, 1.12748 2.69827, 1.22943 2.55079, 1.35639 2.35971, 1.44263 2.15452, 1.48816 1.93555, 1.534 1.71689, 1.55677 1.49279, 1.55677 1.26324, 1.55677 1.02759, 1.534 0.801244, 1.48816 0.583874, 1.44263 0.366824, 1.35639 0.165804, 1.22943 -0.0191851, 1.12363 -0.169228, 0.995066 -0.290738, 0.84374 -0.383072, 0.692415 -0.475407, 0.528585 -0.521574, 0.352252 -0.521894 L -0.413674 -0.521894 C -0.515627 -0.521574, -0.57013 -0.569344, -0.577183 -0.665526 L -0.577183 -0.721952 C -0.577183 -0.762669, -0.564679 -0.79505, -0.540313 -0.819416, -0.508573 -0.849874, -0.468177 -0.865263, -0.418804 -0.865584, -0.316531 -0.879049, -0.211051 -0.885782, -0.102046 -0.886102, 0.00375414 -0.885782, 0.107951 -0.892514, 0.209903 -0.906621, 0.400023 -0.920087, 0.565455 -0.978757, 0.706201 -1.08327, 0.847267 -1.18747, 0.96525 -1.32084, 1.06015 -1.48339, 1.15537 -1.64562, 1.22751 -1.83285, 1.27688 -2.04509, 1.32625 -2.25701, 1.35094 -2.47438, 1.35094 -2.69688, 1.35094 -2.86071, 1.33331 -3.01621, 1.29804 -3.16336, 1.26277 -3.3102, 1.19769 -3.43876, 1.10247 -3.54841, 0.905297 -3.7738, 0.655225 -3.88505, 0.352252 -3.88184, 0.0284407 -3.88152, -0.268119 -3.8206, -0.537428 -3.69942, -0.806736 -3.57791, -0.987558 -3.4471, -1.07925 -3.30731, -1.10362 -3.30347, -1.09143 -3.30186, -1.04206 -3.30219, -0.915101 -3.30186, -0.795515 -3.26435, -0.682983 -3.18933, -0.513703 -3.08994, -0.429384 -2.92227, -0.429384 -2.68662, -0.429384 -2.48785, -0.493505 -2.33812, -0.622068 -2.23745, -0.75063 -2.13646, -0.894262 -2.08613, -1.05264 -2.08645, -1.20749 -2.08613, -1.35273 -2.1355, -1.48834 -2.23489, -1.62396 -2.33396, -1.69193 -2.48464, -1.69193 -2.68662, -1.69193 -2.93605, -1.63197 -3.15631, -1.51239 -3.34803, -1.39248 -3.53943, -1.23859 -3.70358, -1.05008 -3.84048, -0.86156 -3.97706, -0.644189 -4.08158, -0.397644 -4.15339, -0.151098 -4.22521, 0.098974 -4.26112, 0.352252 -4.26144, 0.623485 -4.26112, 0.88606 -4.22521, 1.13966 -4.15339, 1.39326 -4.08158, 1.63275 -3.97033, 1.85782 -3.82028, 2.0412 -3.69012, 2.19509 -3.53014, 2.32013 -3.34034, 2.44516 -3.15054, 2.50768 -2.93605, 2.50768 -2.69688, 2.50768 -2.45707, 2.46472 -2.23136, 2.37848 -2.01944, 2.29224 -1.8072, 2.17778 -1.6158, 2.03511 -1.44492, 1.89244 -1.27371, 1.72252 -1.12335, 1.52535 -0.993505, 1.32818 -0.863339, 1.18006 -0.781585, 1.08131 -0.747601, 1.16595 -0.737021, 1.31054 -0.686365, 1.51477 -0.595954, 1.71899 -0.505223, 1.91424 -0.384675, 2.10083 -0.234632, 2.31949 -0.0461159, 2.4939 0.178629, 2.62406 0.440243, 2.75423 0.701857, 2.81931 0.976295, 2.81931 1.26324 Z" stroke="none" fill="#000000" transform="matrix(1.12 0 0 1 13.9996 16.3063)" />
			<rect />
		</svg>
	</g>
	<path d="M 62.1625 -19.7189 C 67.8487 -1.79369, 65.5202 17.7136, 55.7745 33.7968" fill="none" stroke="#000000" stroke-width="4.53333378" stroke-linecap="round" stroke-linejoin="round" transform="matrix(0.294118 0 -0 0.294118 34.4456 115.823)" />
	<ellipse cx="945.10451793670654" cy="608.86873912811279" rx="13.600001335144043" ry="13.600001335144043" stroke="none" fill="#000000" transform="matrix(0.294118 0 0 0.294118 -243.526 -63.2557)" />
	<ellipse cx="945.1045093536377" cy="608.86873054504395" rx="9.0666675567626953" ry="9.0666675567626953" stroke="none" fill="#FFFFFF" transform="matrix(0.294118 0 0 0.294118 -243.526 -63.2557)" />
	<g transform="matrix(1 0 -0 1 67.2158 74.6434)">
		<svg width="53.9427032" height="56.9999886">
			<defs />
			<path d="M 10.9882 6.6565 C 10.8817 7.08474, 10.6928 7.49408, 10.4225 7.88453, 10.1523 8.27556, 9.82484 8.61735, 9.44126 8.9099, 9.2718 9.05074, 9.15214 9.13948, 9.0823 9.17554, 9.30271 9.31066, 9.52599 9.53336, 9.75271 9.84424, 10.0355 10.2599, 10.2147 10.727, 10.2903 11.2457, 10.3029 11.4175, 10.3092 11.5881, 10.3092 11.7587, 10.3092 12.1137, 10.2651 12.4766, 10.1769 12.8488, 10.0264 13.411, 9.78591 13.9474, 9.45557 14.4569, 9.12524 14.9671, 8.70845 15.4233, 8.20521 15.8258, 7.74606 16.2174, 7.23996 16.5254, 6.68634 16.751, 6.13273 16.9771, 5.57625 17.0899, 5.01633 17.0899, 4.19249 17.0899, 3.51292 16.881, 2.9782 16.463, 2.44348 16.0451, 2.11371 15.6065, 1.98776 15.148 L 0.676138 20.2502 C 0.607437 20.403, 0.496942 20.4792, 0.3458 20.4792 L 0.251336 20.4792 C 0.170039 20.4792, 0.109926 20.4551, 0.0721399 20.4059, 0.0217591 20.3818, -0.00343132 20.3389, -0.00343132 20.2777, -0.00343132 20.2536, 0.00630134 20.2261, 0.0251942 20.1952 L 2.9782 8.64425 C 3.15453 7.9853, 3.41674 7.34294, 3.76597 6.71661, 4.1152 6.09086, 4.53085 5.53381, 5.01175 5.04489, 5.49266 4.55653, 6.03082 4.16265, 6.62509 3.86323, 7.21935 3.56438, 7.84396 3.41438, 8.49777 3.41381, 8.93803 3.41438, 9.33764 3.49854, 9.69603 3.66628, 10.0544 3.8346, 10.3567 4.06761, 10.6017 4.36646, 10.8285 4.66646, 10.9762 5.01741, 11.0449 5.41988, 11.0701 5.57904, 11.0826 5.73476, 11.0826 5.88705, 11.0826 6.1441, 11.0512 6.40059, 10.9882 6.6565 Z M 7.42202 9.20302 C 7.4661 9.18528, 7.43175 9.18871, 7.3184 9.21276, 7.20504 9.23738, 7.09512 9.2494, 6.98806 9.24883, 6.56039 9.2494, 6.29647 9.23738, 6.1957 9.21276, 6.09494 9.18871, 6.04456 9.19444, 6.04456 9.2305, 6.03826 9.2494, 6.09952 9.24654, 6.22834 9.22192, 6.35772 9.19787, 6.63253 9.18528, 7.0539 9.1847, 7.27431 9.18528, 7.39683 9.19157, 7.42202 9.20302 Z M 9.55405 4.72371 C 9.3279 4.25998, 8.93803 4.02811, 8.38441 4.02754, 7.84396 4.02811, 7.32183 4.15635, 6.81859 4.41284, 6.31536 4.66932, 5.85449 5.01454, 5.43598 5.44793, 5.01805 5.8819, 4.65165 6.37941, 4.33676 6.94104, 4.02246 7.50324, 3.79288 8.0832, 3.64804 8.6809 L 2.58202 12.8488 C 2.50645 13.1671, 2.46867 13.4785, 2.46867 13.7831, 2.46867 13.9423, 2.48126 14.1043, 2.50645 14.2686, 2.56943 14.7026, 2.71255 15.0816, 2.93583 15.405, 3.15911 15.7291, 3.45968 15.9884, 3.83696 16.1836, 4.21425 16.3794, 4.64821 16.4768, 5.13885 16.4762, 5.49152 16.4768, 5.84361 16.3823, 6.1957 16.1928, 6.5478 16.0039, 6.8684 15.756, 7.15809 15.4503, 7.50389 15.0781, 7.76953 14.6665, 7.95503 14.2142, 8.14052 13.7625, 8.29796 13.2936, 8.42677 12.8081, 8.55616 12.3226, 8.64547 11.8509, 8.69585 11.3923 L 8.69585 11.1083 C 8.69585 10.7854, 8.63918 10.4769, 8.52582 10.1832, 8.47544 10.0675, 8.41761 9.96103, 8.3512 9.86313, 8.28536 9.7658, 8.22067 9.68279, 8.15769 9.61523, 7.76152 9.76866, 7.34015 9.84481, 6.89359 9.84424 L 6.48768 9.84424 C 6.31192 9.84481, 6.13616 9.83107, 5.95983 9.80359, 5.7835 9.77611, 5.63922 9.71657, 5.52587 9.62439, 5.41251 9.56371, 5.35583 9.46294, 5.35583 9.32211, 5.35583 9.27402, 5.36213 9.22822, 5.37472 9.1847, 5.41881 9.00837, 5.52415 8.87841, 5.69075 8.79597, 5.85792 8.71353, 6.03712 8.65571, 6.22891 8.62193, 6.4207 8.58872, 6.60448 8.57155, 6.78024 8.57097 L 7.16725 8.57097 C 7.57603 8.57155, 7.95045 8.63853, 8.28994 8.7725, 8.32201 8.74845, 8.35979 8.71353, 8.4033 8.66773, 8.44738 8.62193, 8.50063 8.56868, 8.5636 8.50685, 8.81551 8.25094, 9.0136 7.9624, 9.15787 7.64179, 9.30271 7.32119, 9.41893 6.98054, 9.5071 6.61986, 9.60786 6.26032, 9.67084 5.9151, 9.69603 5.58476 L 9.69603 5.4382 C 9.69603 5.17599, 9.64908 4.93783, 9.55405 4.72371 Z" stroke="none" fill="#000000" />
			<path d="M 2.37714 3.19713 C 1.7292 3.17661, 1.09857 3.16635, 0.485571 3.16635, -0.127106 3.16635, -0.757737 3.17661, -1.406 3.19713 L -1.406 2.75598, -1.04115 2.75598 C -0.925093 2.7563, -0.815766 2.75469, -0.713814 2.75117, -0.611541 2.74796, -0.514718 2.7393, -0.423025 2.72552, -0.331331 2.71205, -0.252142 2.69827, -0.185456 2.68416, -0.12903 2.67422, -0.082221 2.6428, -0.0453515 2.58958, -0.00816131 2.53668, 0.0101132 2.47769, 0.0101132 2.41229 L 0.0101132 -3.36887 C -0.165899 -3.28295, -0.382628 -3.21787, -0.639754 -3.17362, -0.89688 -3.12906, -1.17869 -3.10694, -1.48519 -3.10726 L -1.48519 -3.54328 C -1.06231 -3.54296, -0.672135 -3.59329, -0.31466 -3.69429, 0.042815 -3.79496, 0.351879 -3.98411, 0.612531 -4.26144 L 0.77636 -4.26144 C 0.89242 -4.26112, 0.950449 -4.20469, 0.950449 -4.09216 L 0.950449 2.41229 C 0.950449 2.4809, 0.968082 2.54085, 1.00335 2.59215, 1.03862 2.64344, 1.08991 2.67422, 1.1566 2.68416, 1.21302 2.69827, 1.28548 2.71205, 1.37333 2.72552, 1.46149 2.7393, 1.56088 2.74796, 1.67181 2.75117, 1.78274 2.75469, 1.89111 2.7563, 1.99658 2.75598 L 2.37714 2.75598, 2.37714 3.19713 Z" stroke="none" fill="#000000" transform="matrix(1.12 0 0 1 13.5491 16.3063)" />
			<rect />
		</svg>
	</g>
	<g transform="matrix(1 0 -0 1 64.1498 106.712)">
		<svg width="57.0301361" height="56.9999886">
			<defs />
			<path d="M 10.9882 6.6565 C 10.8817 7.08474, 10.6928 7.49408, 10.4225 7.88453, 10.1523 8.27556, 9.82484 8.61735, 9.44126 8.9099, 9.2718 9.05074, 9.15214 9.13948, 9.0823 9.17554, 9.30271 9.31066, 9.52599 9.53336, 9.75271 9.84424, 10.0355 10.2599, 10.2147 10.727, 10.2903 11.2457, 10.3029 11.4175, 10.3092 11.5881, 10.3092 11.7587, 10.3092 12.1137, 10.2651 12.4766, 10.1769 12.8488, 10.0264 13.411, 9.78591 13.9474, 9.45557 14.4569, 9.12524 14.9671, 8.70845 15.4233, 8.20521 15.8258, 7.74606 16.2174, 7.23996 16.5254, 6.68634 16.751, 6.13273 16.9771, 5.57625 17.0899, 5.01633 17.0899, 4.19249 17.0899, 3.51292 16.881, 2.9782 16.463, 2.44348 16.0451, 2.11371 15.6065, 1.98776 15.148 L 0.676138 20.2502 C 0.607437 20.403, 0.496942 20.4792, 0.3458 20.4792 L 0.251336 20.4792 C 0.170039 20.4792, 0.109926 20.4551, 0.0721399 20.4059, 0.0217591 20.3818, -0.00343132 20.3389, -0.00343132 20.2777, -0.00343132 20.2536, 0.00630134 20.2261, 0.0251942 20.1952 L 2.9782 8.64425 C 3.15453 7.9853, 3.41674 7.34294, 3.76597 6.71661, 4.1152 6.09086, 4.53085 5.53381, 5.01175 5.04489, 5.49266 4.55653, 6.03082 4.16265, 6.62509 3.86323, 7.21935 3.56438, 7.84396 3.41438, 8.49777 3.41381, 8.93803 3.41438, 9.33764 3.49854, 9.69603 3.66628, 10.0544 3.8346, 10.3567 4.06761, 10.6017 4.36646, 10.8285 4.66646, 10.9762 5.01741, 11.0449 5.41988, 11.0701 5.57904, 11.0826 5.73476, 11.0826 5.88705, 11.0826 6.1441, 11.0512 6.40059, 10.9882 6.6565 Z M 7.42202 9.20302 C 7.4661 9.18528, 7.43175 9.18871, 7.3184 9.21276, 7.20504 9.23738, 7.09512 9.2494, 6.98806 9.24883, 6.56039 9.2494, 6.29647 9.23738, 6.1957 9.21276, 6.09494 9.18871, 6.04456 9.19444, 6.04456 9.2305, 6.03826 9.2494, 6.09952 9.24654, 6.22834 9.22192, 6.35772 9.19787, 6.63253 9.18528, 7.0539 9.1847, 7.27431 9.18528, 7.39683 9.19157, 7.42202 9.20302 Z M 9.55405 4.72371 C 9.3279 4.25998, 8.93803 4.02811, 8.38441 4.02754, 7.84396 4.02811, 7.32183 4.15635, 6.81859 4.41284, 6.31536 4.66932, 5.85449 5.01454, 5.43598 5.44793, 5.01805 5.8819, 4.65165 6.37941, 4.33676 6.94104, 4.02246 7.50324, 3.79288 8.0832, 3.64804 8.6809 L 2.58202 12.8488 C 2.50645 13.1671, 2.46867 13.4785, 2.46867 13.7831, 2.46867 13.9423, 2.48126 14.1043, 2.50645 14.2686, 2.56943 14.7026, 2.71255 15.0816, 2.93583 15.405, 3.15911 15.7291, 3.45968 15.9884, 3.83696 16.1836, 4.21425 16.3794, 4.64821 16.4768, 5.13885 16.4762, 5.49152 16.4768, 5.84361 16.3823, 6.1957 16.1928, 6.5478 16.0039, 6.8684 15.756, 7.15809 15.4503, 7.50389 15.0781, 7.76953 14.6665, 7.95503 14.2142, 8.14052 13.7625, 8.29796 13.2936, 8.42677 12.8081, 8.55616 12.3226, 8.64547 11.8509, 8.69585 11.3923 L 8.69585 11.1083 C 8.69585 10.7854, 8.63918 10.4769, 8.52582 10.1832, 8.47544 10.0675, 8.41761 9.96103, 8.3512 9.86313, 8.28536 9.7658, 8.22067 9.68279, 8.15769 9.61523, 7.76152 9.76866, 7.34015 9.84481, 6.89359 9.84424 L 6.48768 9.84424 C 6.31192 9.84481, 6.13616 9.83107, 5.95983 9.80359, 5.7835 9.77611, 5.63922 9.71657, 5.52587 9.62439, 5.41251 9.56371, 5.35583 9.46294, 5.35583 9.32211, 5.35583 9.27402, 5.36213 9.22822, 5.37472 9.1847, 5.41881 9.00837, 5.52415 8.87841, 5.69075 8.79597, 5.85792 8.71353, 6.03712 8.65571, 6.22891 8.62193, 6.4207 8.58872, 6.60448 8.57155, 6.78024 8.57097 L 7.16725 8.57097 C 7.57603 8.57155, 7.95045 8.63853, 8.28994 8.7725, 8.32201 8.74845, 8.35979 8.71353, 8.4033 8.66773, 8.44738 8.62193, 8.50063 8.56868, 8.5636 8.50685, 8.81551 8.25094, 9.0136 7.9624, 9.15787 7.64179, 9.30271 7.32119, 9.41893 6.98054, 9.5071 6.61986, 9.60786 6.26032, 9.67084 5.9151, 9.69603 5.58476 L 9.69603 5.4382 C 9.69603 5.17599, 9.64908 4.93783, 9.55405 4.72371 Z" stroke="none" fill="#000000" />
			<path d="M 2.39138 3.19713 L -1.90858 3.19713, -1.90858 2.915 C -1.90858 2.8948, -1.898 2.86402, -1.87684 2.82266 L -0.149418 0.945196 C 0.0551279 0.71981, 0.261918 0.488975, 0.471594 0.253009, 0.68127 0.0170434, 0.868504 -0.224052, 1.03394 -0.470277, 1.19937 -0.716502, 1.33146 -0.970422, 1.4302 -1.23204, 1.52895 -1.49365, 1.578 -1.76809, 1.578 -2.05567, 1.578 -2.29805, 1.54658 -2.52472, 1.4831 -2.73503, 1.41962 -2.94535, 1.32825 -3.13002, 1.20835 -3.28904, 1.08844 -3.44806, 0.938716 -3.5763, 0.759177 -3.67377, 0.579638 -3.77123, 0.371886 -3.81996, 0.13592 -3.82028, -0.216105 -3.81996, -0.527092 -3.7148, -0.7964 -3.50449, -1.06571 -3.29417, -1.24461 -3.06237, -1.33277 -2.80974, -1.35009 -2.80268, -1.32187 -2.79915, -1.24813 -2.79948 L -1.15836 -2.79948 C -1.05256 -2.77511, -0.961191 -2.73824, -0.883605 -2.68887, -0.806018 -2.63917, -0.740935 -2.57088, -0.688036 -2.48368, -0.635136 -2.39647, -0.608846 -2.29132, -0.608846 -2.16852, -0.608846 -1.96302, -0.675532 -1.8056, -0.809545 -1.69627, -0.943558 -1.58663, -1.09328 -1.53212, -1.25871 -1.53244, -1.41709 -1.53212, -1.56489 -1.58663, -1.70243 -1.69627, -1.83965 -1.8056, -1.90858 -1.96302, -1.90858 -2.16852, -1.90858 -2.45547, -1.85215 -2.72734, -1.7393 -2.98382, -1.62645 -3.24031, -1.47352 -3.46249, -1.27987 -3.65068, -1.08623 -3.83856, -0.857315 -3.98732, -0.593136 -4.09697, -0.328958 -4.20629, -0.0487483 -4.26112, 0.24685 -4.26144, 0.612981 -4.26112, 0.948655 -4.20725, 1.25323 -4.09953, 1.55781 -3.99181, 1.8175 -3.83695, 2.0323 -3.63529, 2.24711 -3.43331, 2.41543 -3.19991, 2.53693 -2.93509, 2.65844 -2.66995, 2.71904 -2.37692, 2.71904 -2.05567, 2.71904 -1.6998, 2.63825 -1.37214, 2.47602 -1.07302, 2.31411 -0.77357, 2.11342 -0.499131, 1.87392 -0.2497, 1.63443 5.126e-005, 1.37987 0.235055, 1.11056 0.455632, 0.841252 0.676208, 0.597272 0.890693, 0.378939 1.09909 L -0.836155 2.24301, 0.754048 2.24301 C 0.975907 2.24333, 1.18302 2.24172, 1.37474 2.2382, 1.56678 2.23499, 1.72965 2.22794, 1.86334 2.21768, 1.99736 2.20742, 2.06597 2.20069, 2.06917 2.19684, 2.09738 2.17312, 2.12399 2.12534, 2.14868 2.05353, 2.17337 1.98171, 2.19613 1.89707, 2.21729 1.79961, 2.23845 1.70215, 2.25961 1.60308, 2.28077 1.50209, 2.30193 1.40142, 2.32117 1.29081, 2.3388 1.1709 L 2.72962 1.1709 Z" stroke="none" fill="#000000" transform="matrix(1.12 0 0 1 13.972 16.3063)" />
			<rect />
		</svg>
	</g>
</svg>
