<?xml version="1.0"?>
<svg xmlns="http://www.w3.org/2000/svg" xmlns:xlink="http://www.w3.org/1999/xlink" width="170.086746" height="76.879715">
	<defs />
	<path d="M 189.89 -63.2052 L -189.89 63.2052" fill="none" stroke="#000000" stroke-width="5.44000006" stroke-linecap="round" stroke-linejoin="round" transform="matrix(0.294118 0 0 0.294118 84.8349 40.3597)" />
	<g transform="matrix(1 0 -0 1 152.644 9)">
		<svg width="30.0150681" height="47.9999886">
			<defs />
			<path d="M 8.37153 9.90836 C 8.30282 10.1774, 8.16256 10.3807, 7.95188 10.5181, 7.74119 10.6555, 7.52937 10.7242, 7.31525 10.7236, 7.0954 10.7242, 6.91277 10.6538, 6.76793 10.5129, 6.66144 10.4099, 6.60762 10.2753, 6.60762 10.1099, 6.60762 10.0435, 6.62022 9.95759, 6.64541 9.8534, 6.71468 9.60951, 6.8372 9.42058, 7.01353 9.28604, 7.18987 9.15207, 7.32498 9.07822, 7.41887 9.06562, 7.37536 9.01123, 7.25571 8.98375, 7.06048 8.98318, 6.6643 8.98375, 6.30591 9.10455, 5.98531 9.34558, 5.6647 9.58718, 5.34753 9.87572, 5.03265 10.2112, 4.71834 10.5473, 4.4006 10.8982, 4.07999 11.2646, 3.75939 11.631, 3.47943 11.8847, 3.24012 12.0244, 3.46684 12.0495, 3.75939 12.12, 4.11778 12.2356, 4.47617 12.3518, 4.78132 12.5121, 5.03265 12.7165, 5.28455 12.9215, 5.46031 13.1699, 5.5605 13.4625, 5.61775 13.6217, 5.64924 13.7991, 5.65497 13.9938, 5.65497 14.1529, 5.63608 14.3213, 5.59829 14.4976, 5.52329 14.785, 5.47005 15.0506, 5.43799 15.2945, 5.4128 15.448, 5.4002 15.5882, 5.4002 15.7159, 5.4002 15.7835, 5.4065 15.8567, 5.41909 15.9357, 5.43169 16.1075, 5.47577 16.2357, 5.55134 16.321, 5.62691 16.4069, 5.74027 16.4493, 5.89084 16.4487, 6.07347 16.4493, 6.23378 16.3897, 6.37232 16.2707, 6.51087 16.1516, 6.63625 15.9838, 6.74961 15.7668, 6.86296 15.5504, 6.96315 15.2922, 7.05132 14.9928, 7.13949 14.694, 7.22708 14.3728, 7.31525 14.0304, 7.35303 13.8724, 7.46353 13.7928, 7.64558 13.7923 L 7.85283 13.7923 C 8.01027 13.7928, 8.095 13.8598, 8.1076 13.9938 L 8.1076 14.0579 C 8.03203 14.3699, 7.9347 14.6997, 7.81505 15.0478, 7.69597 15.3959, 7.54654 15.7182, 7.36734 16.0142, 7.18815 16.3107, 6.97117 16.5575, 6.7164 16.7556, 6.46221 16.9542, 6.14618 17.0533, 5.76832 17.0533, 5.42883 17.0533, 5.13513 16.9789, 4.88666 16.8289, 4.63819 16.68, 4.44983 16.4848, 4.32045 16.2432, 4.19163 16.0021, 4.11434 15.7228, 4.08915 15.4045 L 4.08915 15.1938 C 4.08915 14.9499, 4.11434 14.706, 4.16472 14.461, 4.20251 14.315, 4.22484 14.1776, 4.23056 14.0487, 4.23056 13.7133, 4.10518 13.4236, 3.85328 13.1785, 3.48916 12.8556, 3.01112 12.6541, 2.41972 12.574 L 1.43843 16.3754 C 1.38233 16.6021, 1.26725 16.771, 1.09436 16.8838, 0.921458 16.9972, 0.746842 17.0533, 0.570509 17.0533, 0.388451 17.0533, 0.237881 16.9926, 0.117654 16.8701, 0.0363577 16.7911, -0.00486302 16.6811, -0.00486302 16.5403, -0.00486302 16.4739, 0.00143456 16.4063, 0.0140298 16.3388 L 2.85368 5.32828 C 2.90406 5.12733, 2.93497 4.97447, 2.94757 4.87027 L 2.94757 4.84279 C 2.94757 4.7884, 2.93555 4.7489, 2.91036 4.72371, 2.83479 4.67562, 2.69338 4.64184, 2.48555 4.62352, 2.27831 4.6052, 2.039 4.59604, 1.76877 4.59547, 1.67488 4.59604, 1.60561 4.56569, 1.56095 4.50386, 1.52374 4.4678, 1.50485 4.422, 1.50485 4.36646, 1.50485 4.33039, 1.51458 4.29662, 1.5329 4.2657 L 1.56095 4.11914 C 1.61133 3.97315, 1.73099 3.88155, 1.91934 3.84433 L 4.38171 3.64281, 4.41949 3.64281 C 4.49506 3.64338, 4.55747 3.668, 4.60785 3.71609, 4.64563 3.77162, 4.66453 3.82029, 4.66453 3.86265, 4.66453 3.89987, 4.65537 3.93364, 4.63647 3.96342 L 2.6367 11.7312 C 2.78784 11.6768, 2.97963 11.5457, 3.21207 11.3379, 3.44451 11.1307, 3.6758 10.9017, 3.90538 10.6509, 4.13495 10.4007, 4.36911 10.1414, 4.60785 9.87229, 4.84716 9.60378, 5.09677 9.35817, 5.35784 9.1349, 5.6189 8.91219, 5.89771 8.72899, 6.19313 8.58529, 6.48854 8.44216, 6.81888 8.37002, 7.183 8.36945, 7.62955 8.37002, 7.96962 8.51945, 8.20206 8.8183, 8.3595 9.02669, 8.43794 9.2557, 8.43794 9.50531, 8.43794 9.64042, 8.41618 9.77439, 8.37153 9.90836 Z" stroke="none" fill="#000000" />
			<rect />
		</svg>
	</g>
	<g transform="matrix(1 0 -0 1 9 45.4648)">
		<svg width="27.0562763" height="54.0428391">
			<defs />
			<path d="M 7.73747 5.19088 C 7.6619 5.42961, 7.52679 5.62656, 7.33213 5.78228, 7.13748 5.938, 6.91707 6.01586, 6.67146 6.01529, 6.42013 6.01586, 6.22834 5.93056, 6.09609 5.75881, 6.00792 5.66148, 5.96384 5.53037, 5.96384 5.36492, 5.96384 5.29851, 5.97013 5.22809, 5.98273 5.15423, 6.052 4.91664, 6.18883 4.7197, 6.39322 4.56398, 6.5976 4.40825, 6.81917 4.33039, 7.0579 4.32982, 7.30981 4.33039, 7.50217 4.41284, 7.63385 4.57715, 7.70942 4.69394, 7.75007 4.83134, 7.75636 4.98935, 7.75636 5.05691, 7.75007 5.12446, 7.73747 5.19088 Z M 5.14343 17.8044 C 5.03694 18.1891, 4.86863 18.559, 4.63905 18.9128, 4.40947 19.2672, 4.13581 19.5786, 3.81807 19.8471, 3.5009 20.1162, 3.14995 20.3269, 2.76637 20.4792, 2.38279 20.632, 1.99291 20.7082, 1.59673 20.7082, 1.37002 20.7082, 1.15075 20.6778, 0.936628 20.6166, 0.723082 20.5559, 0.539307 20.4654, 0.384729 20.3464, 0.231296 20.2273, 0.122519 20.0733, 0.0589708 19.8838, 0.01546 19.7864, -0.00629532 19.6731, -0.00686777 19.5448, -0.00629532 19.4658, 0.00629985 19.3708, 0.0303453 19.2609, 0.100191 18.9861, 0.245036 18.7817, 0.46488 18.6471, 0.685297 18.5132, 0.898843 18.4456, 1.10609 18.4456, 1.32651 18.4456, 1.51143 18.516, 1.66257 18.6563, 1.76963 18.7605, 1.82287 18.8945, 1.82287 19.0594, 1.82287 19.1269, 1.81028 19.2094, 1.78509 19.3067, 1.72898 19.5082, 1.6265 19.6748, 1.4788 19.8059, 1.33109 19.9376, 1.24178 20.0091, 1.20972 20.0212, 1.27956 20.0641, 1.43929 20.0887, 1.69062 20.0944, 1.91734 20.0944, 2.1326 20.032, 2.33699 19.9067, 2.54137 19.7819, 2.7366 19.6135, 2.92209 19.4029, 3.10759 19.1922, 3.26789 18.9466, 3.403 18.6655, 3.53811 18.3849, 3.64345 18.0855, 3.71903 17.7678 L 5.53961 10.6686 C 5.64037 10.2725, 5.69018 9.93011, 5.69018 9.64271 L 5.69018 9.42287 C 5.65926 9.13032, 5.51155 8.98375, 5.24705 8.98318, 5.00832 8.98375, 4.78218 9.04959, 4.56806 9.1807, 4.35394 9.31237, 4.15299 9.48928, 3.96406 9.71199, 3.7757 9.93526, 3.60452 10.1946, 3.45052 10.4906, 3.29651 10.7872, 3.15625 11.0969, 3.0303 11.4198, 2.96732 11.5669, 2.86083 11.6431, 2.70969 11.6488 L 2.49271 11.6488 C 2.35416 11.631, 2.27859 11.5549, 2.266 11.4198 L 2.266 11.3465 C 2.39825 10.999, 2.56313 10.6463, 2.76122 10.2891, 2.95931 9.93183, 3.18774 9.61294, 3.44537 9.33184, 3.703 9.05131, 3.98925 8.82059, 4.30356 8.64025, 4.61844 8.46048, 4.96423 8.37002, 5.34152 8.36945, 5.66899 8.37002, 5.95181 8.433, 6.19055 8.55781, 6.42986 8.68319, 6.62165 8.85437, 6.76592 9.07078, 6.91077 9.28776, 7.0018 9.53623, 7.03958 9.81676 L 7.03958 10.0732 C 7.03958 10.2816, 7.01439 10.4923, 6.96401 10.7053 Z" stroke="none" fill="#000000" />
			<rect />
		</svg>
	</g>
	<path d="M 0 -16.2633 L 16.9626 16.2633, -16.9626 16.2633 Z" stroke="none" fill="#FFFFFF" transform="matrix(0.294118 0 -0 0.294118 28.9848 57.387)" />
	<path d="M 0 -16.2633 L 16.9626 16.2633, -16.9626 16.2633 Z" fill="none" stroke="#000000" stroke-width="4.0800004" stroke-linecap="round" stroke-linejoin="round" transform="matrix(0.294118 0 -0 0.294118 28.9848 57.387)" />
	<g transform="matrix(1 0 -0 1 67.1643 12.9255)">
		<svg width="71.9527512" height="59.9571304">
			<defs />
			<path d="M 9.44326 16.5953 C 9.38716 16.7602, 9.26407 16.8426, 9.07514 16.8426 L 0.27452 16.8426 C 0.180056 16.8426, 0.110782 16.8151, 0.0666986 16.7602, 0.0231878 16.7178, 0.00143247 16.672, 0.000859957 16.6228, 0.00143247 16.5867, 0.00773007 16.55, 0.0197528 16.5128 L 0.0575384 16.3754 C 0.0764312 16.2964, 0.120514 16.2283, 0.189788 16.1699, 0.259062 16.1121, 0.337496 16.0829, 0.42509 16.0823, 0.721077 16.0829, 0.998172 16.0783, 1.2558 16.0691, 1.51343 16.06, 1.70866 16.0279, 1.84033 15.9724, 1.95369 15.9117, 2.04128 15.7468, 2.10426 15.4777 L 4.77387 5.15423 C 4.79906 5.03859, 4.81166 4.94699, 4.81166 4.87943, 4.81166 4.7884, 4.79277 4.73058, 4.75498 4.70539, 4.67368 4.6573, 4.50365 4.62695, 4.24602 4.61436, 3.98839 4.60234, 3.7113 4.59604, 3.41531 4.59547, 3.32142 4.59604, 3.25214 4.56569, 3.20806 4.50386, 3.17027 4.4678, 3.15138 4.422, 3.15138 4.36646, 3.15138 4.33039, 3.16111 4.29662, 3.17943 4.2657 L 3.20806 4.11914 C 3.27733 3.93651, 3.39985 3.84491, 3.57561 3.84433, 4.31186 3.88155, 5.0504 3.89987, 5.79237 3.89929, 5.91832 3.89987, 6.04771 3.89357, 6.17938 3.88097, 7.04101 3.88155, 7.9181 3.86952, 8.81121 3.84433, 8.89938 3.84491, 8.97495 3.87525, 9.03735 3.93593, 9.06254 3.98517, 9.07514 4.03097, 9.07514 4.07334, 9.07514 4.11055, 9.06598 4.14433, 9.04709 4.1741 L 9.01846 4.3115 C 9.00014 4.39165, 8.95777 4.45864, 8.89136 4.5136, 8.82552 4.56856, 8.74537 4.59604, 8.65091 4.59547, 8.30511 4.59604, 7.95817 4.60234, 7.60894 4.61436, 7.25971 4.62695, 7.00323 4.66016, 6.83949 4.71455, 6.68262 4.77638, 6.5727 4.93496, 6.50972 5.19088 L 3.859 15.5235 C 3.79603 15.7377, 3.76454 15.8968, 3.76454 15.9999 L 3.76454 16.0365 C 3.78973 16.0617, 3.96606 16.0766, 4.29296 16.0823 L 5.95267 16.0823 C 6.39923 16.0829, 6.84464 16.0188, 7.28776 15.8905, 7.73146 15.7623, 8.13565 15.5424, 8.49977 15.2304, 8.9406 14.8829, 9.29441 14.4237, 9.5612 13.8524, 9.82856 13.2816, 10.0787 12.6936, 10.3112 12.0885, 10.3616 11.9242, 10.4715 11.8417, 10.641 11.8411 L 10.8201 11.8411 C 10.9839 11.8417, 11.0658 11.9213, 11.0658 12.0793 L 11.0658 12.1526 Z" stroke="none" fill="#000000" />
			<path d="M 2.05885 -3.31757 C 2.01653 -3.18388, 1.94087 -3.07359, 1.83186 -2.98639, 1.72286 -2.89918, 1.59942 -2.85558, 1.46189 -2.8559, 1.32114 -2.85558, 1.21374 -2.90335, 1.13968 -2.99953, 1.0903 -3.05404, 1.06562 -3.12746, 1.06562 -3.22011, 1.06562 -3.2573, 1.06914 -3.29674, 1.0762 -3.33809, 1.11499 -3.47114, 1.19161 -3.58143, 1.30607 -3.66864, 1.42053 -3.75584, 1.5446 -3.79944, 1.67829 -3.79976, 1.81936 -3.79944, 1.92708 -3.75328, 2.00082 -3.66126, 2.04314 -3.59586, 2.06591 -3.51891, 2.06943 -3.43043, 2.06943 -3.3926, 2.06591 -3.35476, 2.05885 -3.31757 Z M 0.606189 3.74601 C 0.546556 3.96145, 0.452298 4.16856, 0.323736 4.3667, 0.195173 4.56515, 0.0419234 4.73956, -0.136013 4.88993, -0.313628 5.04061, -0.510159 5.15859, -0.724965 5.24387, -0.939771 5.32948, -1.1581 5.37212, -1.37996 5.37212, -1.50692 5.37212, -1.62971 5.35512, -1.74962 5.32082, -1.86921 5.28684, -1.97212 5.23618, -2.05868 5.16949, -2.14461 5.10281, -2.20552 5.01656, -2.24111 4.91044, -2.26547 4.85594, -2.27766 4.79246, -2.27798 4.72065, -2.27766 4.6764, -2.2706 4.62318, -2.25714 4.56163, -2.21802 4.40773, -2.13691 4.29328, -2.0138 4.21794, -1.89037 4.14291, -1.77078 4.10508, -1.65472 4.10508, -1.53129 4.10508, -1.42773 4.14452, -1.34309 4.22307, -1.28314 4.28142, -1.25332 4.35644, -1.25332 4.44877, -1.25332 4.4866, -1.26038 4.53277, -1.27448 4.58727, -1.3059 4.70013, -1.36329 4.79342, -1.44601 4.86684, -1.52872 4.94058, -1.57874 4.98066, -1.59669 4.98739, -1.55758 5.01144, -1.46813 5.02522, -1.32738 5.02843, -1.20042 5.02843, -1.07988 4.99348, -0.965419 4.92327, -0.850963 4.85338, -0.741636 4.75912, -0.63776 4.64114, -0.533884 4.52315, -0.444114 4.38561, -0.368452 4.2282, -0.292789 4.0711, -0.233797 3.90342, -0.191477 3.72549 L 0.828048 -0.250021 C 0.884475 -0.47188, 0.912367 -0.663602, 0.912367 -0.824546 L 0.912367 -0.947659 C 0.895054 -1.11149, 0.812338 -1.19356, 0.664219 -1.19388, 0.530526 -1.19356, 0.403887 -1.15669, 0.28398 -1.08328, 0.164074 -1.00954, 0.0515416 -0.910468, -0.0542582 -0.785753, -0.159737 -0.660717, -0.255598 -0.515482, -0.341841 -0.34973, -0.428084 -0.183656, -0.506633 -0.0102084, -0.577166 0.170613, -0.612432 0.253009, -0.672065 0.295649, -0.756705 0.298855 L -0.878214 0.298855 C -0.955801 0.288917, -0.998121 0.246276, -1.00517 0.170613 L -1.00517 0.129576 C -0.931114 -0.0650318, -0.83878 -0.262525, -0.72785 -0.462583, -0.616921 -0.66264, -0.488999 -0.841218, -0.344727 -0.998635, -0.200454 -1.15573, -0.0401516 -1.28494, 0.135861 -1.38593, 0.312194 -1.4866, 0.505839 -1.53725, 0.717118 -1.53757, 0.900505 -1.53725, 1.05888 -1.50199, 1.19258 -1.43209, 1.32659 -1.36188, 1.43399 -1.26602, 1.51478 -1.14483, 1.5959 -1.02332, 1.64687 -0.884179, 1.66803 -0.727082 L 1.66803 -0.583451 C 1.66803 -0.46675, 1.65393 -0.348768, 1.62571 -0.229502 Z" stroke="none" fill="#000000" transform="matrix(1.12 0 0 1 14.314 16.3063)" />
			<path d="M 2.81447 -0.675785 C 2.77567 -0.525101, 2.69712 -0.411286, 2.57914 -0.33434, 2.46116 -0.257395, 2.34253 -0.218922, 2.22263 -0.219243, 2.09951 -0.218922, 1.99724 -0.258357, 1.91613 -0.337226, 1.8565 -0.394935, 1.82636 -0.470277, 1.82636 -0.562932, 1.82636 -0.600122, 1.83341 -0.648213, 1.84752 -0.706563, 1.88631 -0.843141, 1.95492 -0.948941, 2.05367 -1.02428, 2.15241 -1.09931, 2.22808 -1.14066, 2.28066 -1.14772, 2.25629 -1.17817, 2.18928 -1.19356, 2.07996 -1.19388, 1.8581 -1.19356, 1.6574 -1.12592, 1.47786 -0.99094, 1.29832 -0.855645, 1.12039 -0.69406, 0.944053 -0.506185, 0.76804 -0.31799, 0.590104 -0.121458, 0.410565 0.083729, 0.231026 0.288917, 0.0739295 0.430945, -0.0600834 0.509173, 0.0668762 0.523279, 0.230706 0.562714, 0.431405 0.627476, 0.632104 0.692559, 0.802986 0.782328, 0.944053 0.896785, 1.08512 1.01156, 1.18355 1.1507, 1.23997 1.31453, 1.27171 1.40366, 1.28935 1.50305, 1.29255 1.61206, 1.29255 1.70118, 1.28197 1.79544, 1.26081 1.89419, 1.21881 2.05513, 1.189 2.20389, 1.17104 2.34047, 1.15693 2.42639, 1.14988 2.50494, 1.14988 2.57644, 1.14988 2.61427, 1.15341 2.65531, 1.16046 2.69955, 1.16751 2.79573, 1.1922 2.86755, 1.23452 2.91532, 1.27684 2.96341, 1.34032 2.98713, 1.42464 2.98681, 1.52691 2.98713, 1.61668 2.95379, 1.69427 2.8871, 1.77186 2.82042, 1.84207 2.72648, 1.90555 2.60497, 1.96903 2.48378, 2.02545 2.33919, 2.07483 2.17151, 2.1242 2.00416, 2.17325 1.8243, 2.22263 1.63257, 2.24379 1.54409, 2.30566 1.49952, 2.40762 1.4992 L 2.52368 1.4992 C 2.61184 1.49952, 2.65929 1.53703, 2.66635 1.61206 L 2.66635 1.64796 C 2.62403 1.82269, 2.56952 2.00736, 2.50252 2.20229, 2.43583 2.39722, 2.35215 2.57772, 2.2518 2.74347, 2.15145 2.90955, 2.02994 3.04773, 1.88727 3.15866, 1.7446 3.26991, 1.56763 3.32537, 1.35603 3.32537, 1.16591 3.32537, 1.00112 3.28369, 0.861978 3.19969, 0.722835 3.11634, 0.617356 3.00701, 0.54522 2.87171, 0.473083 2.73674, 0.429802 2.58028, 0.415695 2.40203 L 0.415695 2.28404 C 0.415695 2.14747, 0.429802 2.01089, 0.458015 1.87367, 0.479175 1.79192, 0.491358 1.71497, 0.494884 1.64283, 0.494884 1.45496, 0.424672 1.29273, 0.283606 1.15551, 0.0793798 0.974692, -0.188326 0.861839, -0.519511 0.816954 L -1.06903 2.94577 C -1.10045 3.07273, -1.16489 3.16731, -1.26171 3.23047, -1.35854 3.29395, -1.45632 3.32537, -1.55507 3.32537, -1.65702 3.32537, -1.74166 3.29139, -1.80867 3.22278, -1.85451 3.17853, -1.8776 3.11698, -1.8776 3.03811, -1.8776 3.00092, -1.87407 2.96309, -1.86702 2.92526 L -0.276492 -3.24063 C -0.248279 -3.35316, -0.230646 -3.43876, -0.223592 -3.49711 L -0.223592 -3.5125 C -0.223592 -3.54296, -0.230646 -3.56508, -0.244752 -3.57919, -0.287072 -3.60612, -0.366262 -3.62504, -0.482641 -3.63529, -0.598701 -3.64555, -0.732714 -3.65068, -0.88404 -3.651, -0.936939 -3.65068, -0.975733 -3.66768, -1.00042 -3.7023, -1.02158 -3.7225, -1.03216 -3.74815, -1.03216 -3.77925, -1.03216 -3.79944, -1.02671 -3.81836, -1.01613 -3.83567 L -1.00042 -3.91775 C -0.972206 -3.9995, -0.905199 -4.0508, -0.79972 -4.07164 L 0.579525 -4.18449, 0.600364 -4.18449 C 0.642684 -4.18417, 0.67795 -4.17039, 0.706164 -4.14345, 0.727324 -4.11236, 0.737904 -4.0851, 0.737904 -4.06138, 0.737904 -4.04054, 0.732774 -4.02162, 0.722194 -4.00495 L -0.398002 0.345023 C -0.313362 0.314565, -0.205959 0.241146, -0.0757931 0.124767, 0.0546932 0.00870752, 0.184218 -0.119535, 0.312781 -0.25996, 0.441344 -0.400064, 0.572471 -0.545299, 0.706164 -0.695983, 0.840177 -0.846348, 0.979961 -0.983887, 1.12616 -1.10892, 1.27235 -1.23364, 1.42849 -1.33623, 1.59392 -1.4167, 1.75935 -1.49686, 1.94434 -1.53725, 2.14857 -1.53757, 2.39864 -1.53725, 2.58908 -1.45357, 2.71924 -1.28622, 2.80741 -1.16952, 2.85133 -1.04128, 2.85133 -0.901491, 2.85133 -0.825829, 2.83915 -0.750807, 2.81447 -0.675785 Z" stroke="none" fill="#000000" transform="matrix(1.12 0 0 1 19.164 16.3063)" />
			<rect />
		</svg>
	</g>
	<ellipse cx="677.18130016326904" cy="475.32232189178467" rx="13.600001335144043" ry="13.600001335144043" stroke="none" fill="#000000" transform="matrix(0.294118 0 0 0.294118 -58.486 -118.031)" />
	<ellipse cx="677.1812915802002" cy="475.32231330871582" rx="9.0666675567626953" ry="9.0666675567626953" stroke="none" fill="#FFFFFF" transform="matrix(0.294118 0 0 0.294118 -58.486 -118.031)" />
</svg>
