<?xml version="1.0"?>
<svg xmlns="http://www.w3.org/2000/svg" xmlns:xlink="http://www.w3.org/1999/xlink" width="579.757324" height="184.569687">
	<defs />
	<path d="M -17.5183 -37.8666 C 3.39487 -47.5416, 28.1915 -38.4314, 37.8666 -17.5183, 38.7417 -15.6267, 39.4738 -13.6722, 40.0569 -11.6712" fill="none" stroke="#000000" stroke-width="3.20000029" stroke-linecap="round" stroke-linejoin="round" transform="matrix(0.416667 0 -0 0.416667 425.992 151.946)" />
	<path d="M -35.2213 -22.6438 C -22.7157 -42.0963, 3.19124 -47.7277, 22.6434 -35.2219, 27.1815 -32.3044, 31.113 -28.5373, 34.2217 -24.128" fill="none" stroke="#000000" stroke-width="3.20000029" stroke-linecap="round" stroke-linejoin="round" transform="matrix(0.416667 0 -0 0.416667 263.522 131.781)" />
	<path d="M -18.97 -39.8916 C 0.454189 -49.1286, 23.7079 -43.0321, 36.1016 -25.4531" fill="none" stroke="#000000" stroke-width="3.20000029" stroke-linecap="round" stroke-linejoin="round" transform="matrix(0.416667 0 -0 0.416667 81.2195 138.766)" />
	<g transform="matrix(1 0 -0 1 9.00001 37.2203)">
		<svg width="53.9427032" height="45.0428467">
			<defs />
			<path d="M 12.3983 16.5678 C 12.3296 16.751, 12.2099 16.8426, 12.0399 16.8426, 11.4113 16.806, 10.7849 16.7876, 10.1621 16.7876 L 9.85061 16.7876 C 9.11493 16.8002, 8.37582 16.8185, 7.63385 16.8426, 7.46439 16.8426, 7.37279 16.7636, 7.36019 16.6044 L 7.36019 16.5311, 7.39798 16.3754 C 7.44836 16.1745, 7.57088 16.0766, 7.76553 16.0823, 7.99854 16.0829, 8.20636 16.0754, 8.38842 16.06, 8.57105 16.0451, 8.74738 15.9913, 8.91685 15.8991, 8.97982 15.8693, 9.03364 15.8264, 9.07715 15.7709, 9.10234 15.7228, 9.11837 15.6735, 9.12409 15.6243 L 9.12409 15.5693, 8.89795 12.5282, 4.63333 12.5282, 3.13335 15.093 C 3.05148 15.2401, 3.01026 15.3747, 3.01026 15.4961, 3.01026 15.6002, 3.04175 15.6953, 3.10473 15.78, 3.24327 15.9821, 3.50148 16.0829, 3.87819 16.0823, 4.04822 16.0829, 4.13925 16.1562, 4.15185 16.3021, 4.15185 16.3394, 4.14555 16.3789, 4.13295 16.4212 L 4.09574 16.5678 C 4.02647 16.751, 3.90395 16.8426, 3.72762 16.8426, 3.14938 16.8185, 2.57687 16.8002, 2.01009 16.7876 L 1.75589 16.7876 C 1.26525 16.7876, 0.768314 16.806, 0.265078 16.8426, 0.170614 16.8426, 0.101341 16.8123, 0.0572573 16.751, 0.0194716 16.7149, 0.000578821 16.672, 0.000578821 16.6228, 0.000578821 16.5867, 0.00687641 16.55, 0.0194716 16.5128 L 0.0572573 16.3754 C 0.107638 16.1745, 0.230728 16.0766, 0.425381 16.0823, 0.626904 16.0829, 0.824993 16.0617, 1.01965 16.0188, 1.21487 15.9764, 1.3975 15.8997, 1.56697 15.7897, 1.737 15.6798, 1.89444 15.547, 2.03871 15.3913, 2.18356 15.2356, 2.31237 15.0598, 2.42573 14.864 L 9.08631 3.45961 C 9.19967 3.289, 9.34451 3.20656, 9.52084 3.21228 L 9.70004 3.21228 C 9.90156 3.21285, 10.0143 3.30732, 10.0395 3.49625 L 10.8697 15.4319 C 10.8823 15.5911, 10.9012 15.7119, 10.9264 15.7943, 10.9515 15.8768, 10.9956 15.9363, 11.0586 15.9724, 11.1468 16.0279, 11.2928 16.06, 11.4971 16.0691, 11.7021 16.0783, 11.9328 16.0829, 12.1905 16.0823, 12.3668 16.0829, 12.455 16.1562, 12.455 16.3021, 12.455 16.3394, 12.4487 16.3789, 12.4361 16.4212 Z M 8.4451 6.03361 L 5.08618 11.7862, 8.84127 11.7862 Z" stroke="none" fill="#000000" />
			<path d="M 14.4836 10.119 C 14.4332 10.2599, 14.3485 10.3303, 14.2289 10.3297 L 14.1533 10.3297, 14.0966 10.3022 C 13.9775 10.2725, 13.9111 10.19, 13.8985 10.0549 L 13.8985 9.9908, 14.8512 4.0825 C 14.8958 3.80197, 15.0292 3.59014, 15.2525 3.44644, 15.4758 3.30331, 15.7008 3.23117, 15.9269 3.2306, 16.1725 3.23117, 16.3706 3.30732, 16.5212 3.4596, 16.6162 3.55178, 16.6632 3.67372, 16.6632 3.82601, 16.6632 3.93651, 16.6351 4.06475, 16.5779 4.21074 Z" stroke="none" fill="#000000" />
			<rect />
		</svg>
	</g>
	<g transform="matrix(1 0 -0 1 56.5875 145.245)">
		<svg width="41.9788857" height="45.0428467">
			<defs />
			<path d="M 12.3983 16.5678 C 12.3296 16.751, 12.2099 16.8426, 12.0399 16.8426, 11.4113 16.806, 10.7849 16.7876, 10.1621 16.7876 L 9.85061 16.7876 C 9.11493 16.8002, 8.37582 16.8185, 7.63385 16.8426, 7.46439 16.8426, 7.37279 16.7636, 7.36019 16.6044 L 7.36019 16.5311, 7.39798 16.3754 C 7.44836 16.1745, 7.57088 16.0766, 7.76553 16.0823, 7.99854 16.0829, 8.20636 16.0754, 8.38842 16.06, 8.57105 16.0451, 8.74738 15.9913, 8.91685 15.8991, 8.97982 15.8693, 9.03364 15.8264, 9.07715 15.7709, 9.10234 15.7228, 9.11837 15.6735, 9.12409 15.6243 L 9.12409 15.5693, 8.89795 12.5282, 4.63333 12.5282, 3.13335 15.093 C 3.05148 15.2401, 3.01026 15.3747, 3.01026 15.4961, 3.01026 15.6002, 3.04175 15.6953, 3.10473 15.78, 3.24327 15.9821, 3.50148 16.0829, 3.87819 16.0823, 4.04822 16.0829, 4.13925 16.1562, 4.15185 16.3021, 4.15185 16.3394, 4.14555 16.3789, 4.13295 16.4212 L 4.09574 16.5678 C 4.02647 16.751, 3.90395 16.8426, 3.72762 16.8426, 3.14938 16.8185, 2.57687 16.8002, 2.01009 16.7876 L 1.75589 16.7876 C 1.26525 16.7876, 0.768314 16.806, 0.265078 16.8426, 0.170614 16.8426, 0.101341 16.8123, 0.0572573 16.751, 0.0194716 16.7149, 0.000578821 16.672, 0.000578821 16.6228, 0.000578821 16.5867, 0.00687641 16.55, 0.0194716 16.5128 L 0.0572573 16.3754 C 0.107638 16.1745, 0.230728 16.0766, 0.425381 16.0823, 0.626904 16.0829, 0.824993 16.0617, 1.01965 16.0188, 1.21487 15.9764, 1.3975 15.8997, 1.56697 15.7897, 1.737 15.6798, 1.89444 15.547, 2.03871 15.3913, 2.18356 15.2356, 2.31237 15.0598, 2.42573 14.864 L 9.08631 3.45961 C 9.19967 3.289, 9.34451 3.20656, 9.52084 3.21228 L 9.70004 3.21228 C 9.90156 3.21285, 10.0143 3.30732, 10.0395 3.49625 L 10.8697 15.4319 C 10.8823 15.5911, 10.9012 15.7119, 10.9264 15.7943, 10.9515 15.8768, 10.9956 15.9363, 11.0586 15.9724, 11.1468 16.0279, 11.2928 16.06, 11.4971 16.0691, 11.7021 16.0783, 11.9328 16.0829, 12.1905 16.0823, 12.3668 16.0829, 12.455 16.1562, 12.455 16.3021, 12.455 16.3394, 12.4487 16.3789, 12.4361 16.4212 Z M 8.4451 6.03361 L 5.08618 11.7862, 8.84127 11.7862 Z" stroke="none" fill="#000000" />
			<rect />
		</svg>
	</g>
	<path d="M -120.039 -5.41649 L 120.039 -5.41649, 120.039 5.41649, -120.039 5.41649 Z" stroke="none" fill="#FFFFFF" transform="matrix(-0.178939 -0.376287 0.376287 -0.178939 59.7398 93.5968)" />
	<path d="M -120.039 -5.41649 L 120.039 -5.41649, 120.039 5.41649, -120.039 5.41649 Z" fill="none" stroke="#000000" stroke-width="2.88000011" stroke-linecap="round" stroke-linejoin="round" transform="matrix(-0.178939 -0.376287 0.376287 -0.178939 59.7398 93.5968)" />
	<path d="M 110.556 -77.9471 L -110.557 77.9463" fill="none" stroke="#000000" stroke-width="3.20000029" stroke-linecap="round" stroke-linejoin="round" transform="matrix(0.416667 0 0 0.416667 127.285 106.288)" />
	<path d="M 108.207 69.5651 L -108.206 -69.5648" fill="none" stroke="#000000" stroke-width="3.20000029" stroke-linecap="round" stroke-linejoin="round" transform="matrix(0.416667 0 0 0.416667 218.436 102.796)" />
	<path d="M 64.9912 -45.8209 L -64.9902 45.8213" fill="none" stroke="#000000" stroke-width="3.20000029" stroke-linecap="round" stroke-linejoin="round" transform="matrix(0.416667 0 0 0.416667 290.602 112.689)" />
	<path d="M 25.6013 -18.0494 L -25.6002 18.049" fill="none" stroke="#000000" stroke-width="3.20000029" stroke-linecap="round" stroke-linejoin="round" transform="matrix(0.416667 0 0 0.416667 368.331 57.8868)" />
	<path d="M 47.9805 -33.8271 L -47.9789 33.8269" fill="none" stroke="#000000" stroke-width="3.20000029" stroke-linecap="round" stroke-linejoin="round" stroke-dasharray="11.216, 7.984" transform="matrix(0.416667 0 0 0.416667 337.672 79.5028)" />
	<path d="M 56.3929 121.896 L -56.3922 -121.896" fill="none" stroke="#000000" stroke-width="3.20000029" stroke-linecap="round" stroke-linejoin="round" transform="matrix(0.416667 0 0 0.416667 402.495 101.156)" />
	<path d="M -168.404 -5.41634 L 168.404 -5.41634, 168.404 5.41634, -168.404 5.41634 Z" stroke="none" fill="#FFFFFF" transform="matrix(-0.400032 0.116555 -0.116555 -0.400032 493.359 132.317)" />
	<path d="M -168.404 -5.41634 L 168.404 -5.41634, 168.404 5.41634, -168.404 5.41634 Z" fill="none" stroke="#000000" stroke-width="2.88000011" stroke-linecap="round" stroke-linejoin="round" transform="matrix(-0.400032 0.116555 -0.116555 -0.400032 493.359 132.317)" />
	<g transform="matrix(1 0 -0 1 553.22 80.4357)">
		<svg width="57.0301361" height="45.0428467">
			<defs />
			<path d="M 13.0332 7.12367 C 12.9267 7.56393, 12.7143 7.97614, 12.3966 8.36086, 12.0788 8.74559, 11.7124 9.07249, 11.2973 9.34043, 10.9704 9.56084, 10.6355 9.73489, 10.2926 9.86313, 9.94965 9.99137, 9.82828 10.0463, 9.92904 10.0274, 9.91072 10.0217, 10.0756 10.1001, 10.4248 10.2616, 10.7741 10.4236, 11.0804 10.6446, 11.3443 10.9251, 11.6403 11.2251, 11.8418 11.5852, 11.9483 12.006, 11.9987 12.2144, 12.0273 12.4188, 12.033 12.6198, 12.033 12.8522, 11.9987 13.0938, 11.9294 13.3434, 11.8103 13.814, 11.5899 14.2634, 11.2693 14.6905, 10.9487 15.1182, 10.5645 15.4903, 10.118 15.8075, 9.64622 16.1499, 9.1447 16.4081, 8.61342 16.5821, 8.08213 16.7561, 7.55198 16.8426, 7.02298 16.8426 L 0.267942 16.8426 C 0.173478 16.8426, 0.104204 16.8151, 0.0601207 16.7602, 0.0166099 16.7178, -0.00571795 16.672, -0.00571795 16.6228, -0.00571795 16.5867, 0.000579656 16.55, 0.0131749 16.5128 L 0.0509605 16.3754 C 0.0887462 16.1745, 0.211263 16.0766, 0.418512 16.0823, 0.714499 16.0829, 0.991594 16.0783, 1.24922 16.0691, 1.50685 16.06, 1.70208 16.0279, 1.83376 15.9724, 1.94711 15.9117, 2.03528 15.7468, 2.09826 15.4777 L 4.74955 5.15423 C 4.78733 5.02027, 4.80565 4.91664, 4.80565 4.84279, 4.80565 4.77008, 4.7902 4.72714, 4.75871 4.71455, 4.67054 4.66016, 4.49936 4.62695, 4.24459 4.61436, 3.98983 4.60234, 3.71159 4.59604, 3.4093 4.59547, 3.31541 4.59604, 3.24614 4.56569, 3.20205 4.50386, 3.16427 4.4678, 3.14538 4.422, 3.14538 4.36646, 3.14538 4.33039, 3.15511 4.29662, 3.17343 4.2657 L 3.20205 4.1283 C 3.22095 4.04357, 3.26675 3.97486, 3.33888 3.92277, 3.41102 3.87124, 3.48831 3.84491, 3.57018 3.84433 L 9.82542 3.84433 C 10.3413 3.84491, 10.8285 3.92162, 11.2876 4.07391, 11.7468 4.22677, 12.1275 4.4678, 12.4292 4.79699, 12.7252 5.09698, 12.933 5.44507, 13.0521 5.84125, 13.1025 6.04334, 13.1277 6.24773, 13.1277 6.45498, 13.1277 6.67539, 13.0962 6.8981, 13.0332 7.12367 Z M 11.1273 7.08703 C 11.1903 6.84314, 11.2218 6.59925, 11.2218 6.35422 L 11.2218 6.13437 C 11.1966 5.84182, 11.1084 5.56988, 10.9573 5.31912, 10.8256 5.09355, 10.651 4.91664, 10.434 4.7884, 10.217 4.66016, 9.96397 4.59604, 9.67428 4.59547 L 7.18329 4.59547 C 6.85009 4.59604, 6.6583 4.61722, 6.60791 4.65959, 6.53234 4.72142, 6.46021 4.89832, 6.39093 5.19088 L 5.2213 9.78927, 7.79702 9.78927 C 8.15541 9.78985, 8.51094 9.72, 8.86303 9.57916, 9.2157 9.4389, 9.55176 9.24024, 9.87236 8.98318, 10.5393 8.44617, 10.9578 7.81412, 11.1273 7.08703 Z M 9.96683 13.2885 C 10.055 12.9776, 10.0991 12.669, 10.0991 12.3633 L 10.0991 12.1709 C 10.0739 11.8297, 9.98286 11.5148, 9.82542 11.2274, 9.68687 10.9778, 9.49966 10.7746, 9.26379 10.6188, 9.02791 10.4631, 8.75311 10.3853, 8.43823 10.3847 L 5.05126 10.3847, 3.73964 15.5144 C 3.68926 15.7228, 3.66407 15.8722, 3.66407 15.9632, 3.66407 16.0125, 3.6675 16.0399, 3.6738 16.0457, 3.6864 16.0646, 3.85014 16.0766, 4.16444 16.0823 L 6.68349 16.0823 C 7.02928 16.0829, 7.37851 16.0084, 7.73061 15.8585, 8.08327 15.709, 8.40731 15.5121, 8.70273 15.267, 9.0302 14.9928, 9.29871 14.6848, 9.50939 14.3424, 9.72008 14.0007, 9.87294 13.6491, 9.96683 13.2885 Z" stroke="none" fill="#000000" />
			<path d="M 15.1626 10.119 C 15.1122 10.2599, 15.0275 10.3303, 14.9079 10.3297 L 14.8323 10.3297, 14.7756 10.3022 C 14.6565 10.2725, 14.5901 10.19, 14.5775 10.0549 L 14.5775 9.9908, 15.5302 4.0825 C 15.5748 3.80197, 15.7082 3.59014, 15.9315 3.44644, 16.1548 3.30331, 16.3798 3.23117, 16.6059 3.2306, 16.8515 3.23117, 17.0496 3.30732, 17.2002 3.4596, 17.2952 3.55178, 17.3422 3.67372, 17.3422 3.82601, 17.3422 3.93651, 17.3141 4.06475, 17.2569 4.21074 Z" stroke="none" fill="#000000" />
			<rect />
		</svg>
	</g>
	<g transform="matrix(1 0 -0 1 437.368 153.155)">
		<svg width="44.9376793" height="45.0428467">
			<defs />
			<path d="M 13.0332 7.12367 C 12.9267 7.56393, 12.7143 7.97614, 12.3966 8.36086, 12.0788 8.74559, 11.7124 9.07249, 11.2973 9.34043, 10.9704 9.56084, 10.6355 9.73489, 10.2926 9.86313, 9.94965 9.99137, 9.82828 10.0463, 9.92904 10.0274, 9.91072 10.0217, 10.0756 10.1001, 10.4248 10.2616, 10.7741 10.4236, 11.0804 10.6446, 11.3443 10.9251, 11.6403 11.2251, 11.8418 11.5852, 11.9483 12.006, 11.9987 12.2144, 12.0273 12.4188, 12.033 12.6198, 12.033 12.8522, 11.9987 13.0938, 11.9294 13.3434, 11.8103 13.814, 11.5899 14.2634, 11.2693 14.6905, 10.9487 15.1182, 10.5645 15.4903, 10.118 15.8075, 9.64622 16.1499, 9.1447 16.4081, 8.61342 16.5821, 8.08213 16.7561, 7.55198 16.8426, 7.02298 16.8426 L 0.267942 16.8426 C 0.173478 16.8426, 0.104204 16.8151, 0.0601207 16.7602, 0.0166099 16.7178, -0.00571795 16.672, -0.00571795 16.6228, -0.00571795 16.5867, 0.000579656 16.55, 0.0131749 16.5128 L 0.0509605 16.3754 C 0.0887462 16.1745, 0.211263 16.0766, 0.418512 16.0823, 0.714499 16.0829, 0.991594 16.0783, 1.24922 16.0691, 1.50685 16.06, 1.70208 16.0279, 1.83376 15.9724, 1.94711 15.9117, 2.03528 15.7468, 2.09826 15.4777 L 4.74955 5.15423 C 4.78733 5.02027, 4.80565 4.91664, 4.80565 4.84279, 4.80565 4.77008, 4.7902 4.72714, 4.75871 4.71455, 4.67054 4.66016, 4.49936 4.62695, 4.24459 4.61436, 3.98983 4.60234, 3.71159 4.59604, 3.4093 4.59547, 3.31541 4.59604, 3.24614 4.56569, 3.20205 4.50386, 3.16427 4.4678, 3.14538 4.422, 3.14538 4.36646, 3.14538 4.33039, 3.15511 4.29662, 3.17343 4.2657 L 3.20205 4.1283 C 3.22095 4.04357, 3.26675 3.97486, 3.33888 3.92277, 3.41102 3.87124, 3.48831 3.84491, 3.57018 3.84433 L 9.82542 3.84433 C 10.3413 3.84491, 10.8285 3.92162, 11.2876 4.07391, 11.7468 4.22677, 12.1275 4.4678, 12.4292 4.79699, 12.7252 5.09698, 12.933 5.44507, 13.0521 5.84125, 13.1025 6.04334, 13.1277 6.24773, 13.1277 6.45498, 13.1277 6.67539, 13.0962 6.8981, 13.0332 7.12367 Z M 11.1273 7.08703 C 11.1903 6.84314, 11.2218 6.59925, 11.2218 6.35422 L 11.2218 6.13437 C 11.1966 5.84182, 11.1084 5.56988, 10.9573 5.31912, 10.8256 5.09355, 10.651 4.91664, 10.434 4.7884, 10.217 4.66016, 9.96397 4.59604, 9.67428 4.59547 L 7.18329 4.59547 C 6.85009 4.59604, 6.6583 4.61722, 6.60791 4.65959, 6.53234 4.72142, 6.46021 4.89832, 6.39093 5.19088 L 5.2213 9.78927, 7.79702 9.78927 C 8.15541 9.78985, 8.51094 9.72, 8.86303 9.57916, 9.2157 9.4389, 9.55176 9.24024, 9.87236 8.98318, 10.5393 8.44617, 10.9578 7.81412, 11.1273 7.08703 Z M 9.96683 13.2885 C 10.055 12.9776, 10.0991 12.669, 10.0991 12.3633 L 10.0991 12.1709 C 10.0739 11.8297, 9.98286 11.5148, 9.82542 11.2274, 9.68687 10.9778, 9.49966 10.7746, 9.26379 10.6188, 9.02791 10.4631, 8.75311 10.3853, 8.43823 10.3847 L 5.05126 10.3847, 3.73964 15.5144 C 3.68926 15.7228, 3.66407 15.8722, 3.66407 15.9632, 3.66407 16.0125, 3.6675 16.0399, 3.6738 16.0457, 3.6864 16.0646, 3.85014 16.0766, 4.16444 16.0823 L 6.68349 16.0823 C 7.02928 16.0829, 7.37851 16.0084, 7.73061 15.8585, 8.08327 15.709, 8.40731 15.5121, 8.70273 15.267, 9.0302 14.9928, 9.29871 14.6848, 9.50939 14.3424, 9.72008 14.0007, 9.87294 13.6491, 9.96683 13.2885 Z" stroke="none" fill="#000000" />
			<rect />
		</svg>
	</g>
	<path d="M -25.5463 18.011 C -35.4936 3.90219, -32.1199 -15.599, -18.0111 -25.5462, -3.90225 -35.4934, 15.5991 -32.1198, 25.5463 -18.011, 32.8794 -7.61007, 33.1745 6.19824, 26.2926 16.903" fill="none" stroke="#000000" stroke-width="3.20000029" stroke-linecap="round" stroke-linejoin="round" transform="matrix(0.416667 0 -0 0.416667 173.35 73.8106)" />
	<path d="M -25.546 18.011 C -35.4931 3.9022, -32.1195 -15.599, -18.0109 -25.5462, -3.9022 -35.4934, 15.5989 -32.1198, 25.546 -18.011, 35.4931 -3.90222, 32.1195 15.599, 18.0109 25.5462, 16.4704 26.6323, 14.8347 27.5769, 13.124 28.3683" fill="none" stroke="#000000" stroke-width="3.20000029" stroke-linecap="round" stroke-linejoin="round" transform="matrix(0.416667 0 -0 0.416667 378.998 50.3662)" />
	<path d="M 0 -11.4796 L 11.972 11.4796, -11.972 11.4796 Z" stroke="none" fill="#FFFFFF" transform="matrix(0.416667 0 -0 0.416667 39.3987 47.9313)" />
	<path d="M 0 -11.4796 L 11.972 11.4796, -11.972 11.4796 Z" fill="none" stroke="#000000" stroke-width="2.88000011" stroke-linecap="round" stroke-linejoin="round" transform="matrix(0.416667 0 -0 0.416667 39.3987 47.9313)" />
	<path d="M 0 -11.4794 L 11.972 11.4794, -11.972 11.4794 Z" stroke="none" fill="#FFFFFF" transform="matrix(0.416667 0 -0 0.416667 82.2843 138.925)" />
	<path d="M 0 -11.4794 L 11.972 11.4794, -11.972 11.4794 Z" fill="none" stroke="#000000" stroke-width="2.88000011" stroke-linecap="round" stroke-linejoin="round" transform="matrix(0.416667 0 -0 0.416667 82.2843 138.925)" />
	<path d="M 0 -11.4797 L 11.9725 11.4797, -11.9725 11.4797 Z" stroke="none" fill="#FFFFFF" transform="matrix(0.416667 0 -0 0.416667 425.751 151.669)" />
	<path d="M 0 -11.4797 L 11.9725 11.4797, -11.9725 11.4797 Z" fill="none" stroke="#000000" stroke-width="2.88000011" stroke-linecap="round" stroke-linejoin="round" transform="matrix(0.416667 0 -0 0.416667 425.751 151.669)" />
	<g transform="matrix(1 0 -0 1 163.489 85.1123)">
		<svg width="53.9427032" height="54.0428391">
			<defs />
			<path d="M 12.9791 7.44427 C 12.8411 7.9395, 12.6052 8.39636, 12.272 8.81429, 11.9388 9.23279, 11.5421 9.59462, 11.0829 9.8992, 10.586 10.2416, 10.0564 10.4998, 9.49308 10.6738, 8.9303 10.8478, 8.3721 10.9349, 7.81848 10.9343 L 5.01605 10.9343, 3.83668 15.5144 C 3.79889 15.6495, 3.78 15.756, 3.78 15.835, 3.78 15.9088, 3.79603 15.9546, 3.82752 15.9724, 3.91569 16.0279, 4.08858 16.06, 4.34621 16.0691, 4.60441 16.0783, 4.88094 16.0829, 5.17635 16.0823, 5.35269 16.0829, 5.44085 16.1682, 5.44085 16.3388 L 5.44085 16.4029, 5.40307 16.5678 C 5.33379 16.751, 5.21128 16.8426, 5.03494 16.8426, 4.24889 16.806, 3.4594 16.7876, 2.66704 16.7876, 1.86839 16.7876, 1.06974 16.806, 0.270517 16.8426, 0.101054 16.8426, 0.0100247 16.7636, -0.00314299 16.6044 L -0.00314299 16.5311, 0.0346427 16.3754 C 0.0850235 16.1745, 0.207541 16.0766, 0.402194 16.0823, 0.698181 16.0829, 0.978139 16.0783, 1.24207 16.0691, 1.50657 16.06, 1.70122 16.0279, 1.82717 15.9724, 1.94683 15.906, 2.03785 15.7411, 2.10083 15.4777 L 4.75212 5.15423 C 4.78991 5.02027, 4.80823 4.91664, 4.80823 4.84279, 4.80823 4.77008, 4.79277 4.72714, 4.76128 4.71455, 4.67312 4.66016, 4.50194 4.62695, 4.24717 4.61436, 3.9924 4.60234, 3.71416 4.59604, 3.41188 4.59547, 3.23612 4.59604, 3.14795 4.5136, 3.14795 4.34814 L 3.14795 4.27486, 3.20463 4.11914 C 3.24241 3.93651, 3.35921 3.84491, 3.55386 3.84433 L 9.60128 3.84433 C 10.1555 3.84491, 10.6696 3.93193, 11.1442 4.10597, 11.6194 4.28001, 12.0264 4.54108, 12.3659 4.88859, 12.6739 5.21263, 12.8909 5.59736, 13.0169 6.04277, 13.0547 6.25116, 13.0736 6.46185, 13.0736 6.67482, 13.0736 6.91986, 13.0421 7.17634, 12.9791 7.44427 Z M 10.9696 7.39847 C 11.0766 7.01432, 11.1488 6.64162, 11.1866 6.28093 L 11.1866 6.11605 C 11.1866 5.83552, 11.1081 5.57904, 10.9507 5.3466, 10.7434 5.07237, 10.4663 4.87886, 10.1205 4.7655, 9.77475 4.65272, 9.40033 4.59604, 8.99786 4.59547 L 7.22365 4.59547 C 6.90304 4.59604, 6.71125 4.62066, 6.64827 4.66932, 6.5853 4.71856, 6.51946 4.89203, 6.45019 5.19088 L 5.13857 10.2473, 7.49731 10.2473 C 7.90608 10.2479, 8.31542 10.19, 8.7242 10.0738, 9.13297 9.95817, 9.51655 9.7595, 9.87494 9.47783, 10.1961 9.2036, 10.4337 8.88299, 10.5877 8.51659, 10.7417 8.15018, 10.8688 7.77748, 10.9696 7.39847 Z" stroke="none" fill="#000000" />
			<path d="M 2.37714 3.19713 C 1.7292 3.17661, 1.09857 3.16635, 0.485571 3.16635, -0.127106 3.16635, -0.757737 3.17661, -1.406 3.19713 L -1.406 2.75598, -1.04115 2.75598 C -0.925093 2.7563, -0.815766 2.75469, -0.713814 2.75117, -0.611541 2.74796, -0.514718 2.7393, -0.423025 2.72552, -0.331331 2.71205, -0.252142 2.69827, -0.185456 2.68416, -0.12903 2.67422, -0.082221 2.6428, -0.0453515 2.58958, -0.00816131 2.53668, 0.0101132 2.47769, 0.0101132 2.41229 L 0.0101132 -3.36887 C -0.165899 -3.28295, -0.382628 -3.21787, -0.639754 -3.17362, -0.89688 -3.12906, -1.17869 -3.10694, -1.48519 -3.10726 L -1.48519 -3.54328 C -1.06231 -3.54296, -0.672135 -3.59329, -0.31466 -3.69429, 0.042815 -3.79496, 0.351879 -3.98411, 0.612531 -4.26144 L 0.77636 -4.26144 C 0.89242 -4.26112, 0.950449 -4.20469, 0.950449 -4.09216 L 0.950449 2.41229 C 0.950449 2.4809, 0.968082 2.54085, 1.00335 2.59215, 1.03862 2.64344, 1.08991 2.67422, 1.1566 2.68416, 1.21302 2.69827, 1.28548 2.71205, 1.37333 2.72552, 1.46149 2.7393, 1.56088 2.74796, 1.67181 2.75117, 1.78274 2.75469, 1.89111 2.7563, 1.99658 2.75598 L 2.37714 2.75598, 2.37714 3.19713 Z" stroke="none" fill="#000000" transform="matrix(1.12 0 0 1 13.6637 16.3063)" />
			<rect />
		</svg>
	</g>
	<g transform="matrix(1 0 -0 1 257.422 140.68)">
		<svg width="57.0301361" height="54.0428391">
			<defs />
			<path d="M 12.9791 7.44427 C 12.8411 7.9395, 12.6052 8.39636, 12.272 8.81429, 11.9388 9.23279, 11.5421 9.59462, 11.0829 9.8992, 10.586 10.2416, 10.0564 10.4998, 9.49308 10.6738, 8.9303 10.8478, 8.3721 10.9349, 7.81848 10.9343 L 5.01605 10.9343, 3.83668 15.5144 C 3.79889 15.6495, 3.78 15.756, 3.78 15.835, 3.78 15.9088, 3.79603 15.9546, 3.82752 15.9724, 3.91569 16.0279, 4.08858 16.06, 4.34621 16.0691, 4.60441 16.0783, 4.88094 16.0829, 5.17635 16.0823, 5.35269 16.0829, 5.44085 16.1682, 5.44085 16.3388 L 5.44085 16.4029, 5.40307 16.5678 C 5.33379 16.751, 5.21128 16.8426, 5.03494 16.8426, 4.24889 16.806, 3.4594 16.7876, 2.66704 16.7876, 1.86839 16.7876, 1.06974 16.806, 0.270517 16.8426, 0.101054 16.8426, 0.0100247 16.7636, -0.00314299 16.6044 L -0.00314299 16.5311, 0.0346427 16.3754 C 0.0850235 16.1745, 0.207541 16.0766, 0.402194 16.0823, 0.698181 16.0829, 0.978139 16.0783, 1.24207 16.0691, 1.50657 16.06, 1.70122 16.0279, 1.82717 15.9724, 1.94683 15.906, 2.03785 15.7411, 2.10083 15.4777 L 4.75212 5.15423 C 4.78991 5.02027, 4.80823 4.91664, 4.80823 4.84279, 4.80823 4.77008, 4.79277 4.72714, 4.76128 4.71455, 4.67312 4.66016, 4.50194 4.62695, 4.24717 4.61436, 3.9924 4.60234, 3.71416 4.59604, 3.41188 4.59547, 3.23612 4.59604, 3.14795 4.5136, 3.14795 4.34814 L 3.14795 4.27486, 3.20463 4.11914 C 3.24241 3.93651, 3.35921 3.84491, 3.55386 3.84433 L 9.60128 3.84433 C 10.1555 3.84491, 10.6696 3.93193, 11.1442 4.10597, 11.6194 4.28001, 12.0264 4.54108, 12.3659 4.88859, 12.6739 5.21263, 12.8909 5.59736, 13.0169 6.04277, 13.0547 6.25116, 13.0736 6.46185, 13.0736 6.67482, 13.0736 6.91986, 13.0421 7.17634, 12.9791 7.44427 Z M 10.9696 7.39847 C 11.0766 7.01432, 11.1488 6.64162, 11.1866 6.28093 L 11.1866 6.11605 C 11.1866 5.83552, 11.1081 5.57904, 10.9507 5.3466, 10.7434 5.07237, 10.4663 4.87886, 10.1205 4.7655, 9.77475 4.65272, 9.40033 4.59604, 8.99786 4.59547 L 7.22365 4.59547 C 6.90304 4.59604, 6.71125 4.62066, 6.64827 4.66932, 6.5853 4.71856, 6.51946 4.89203, 6.45019 5.19088 L 5.13857 10.2473, 7.49731 10.2473 C 7.90608 10.2479, 8.31542 10.19, 8.7242 10.0738, 9.13297 9.95817, 9.51655 9.7595, 9.87494 9.47783, 10.1961 9.2036, 10.4337 8.88299, 10.5877 8.51659, 10.7417 8.15018, 10.8688 7.77748, 10.9696 7.39847 Z" stroke="none" fill="#000000" />
			<path d="M 2.39126 3.19713 L -1.90934 3.19713, -1.90934 2.915 C -1.90934 2.8948, -1.89876 2.86402, -1.8776 2.82266 L -0.149855 0.945196 C 0.0543709 0.71981, 0.261161 0.488975, 0.470837 0.253009, 0.680513 0.0170434, 0.868388 -0.224052, 1.03382 -0.470277, 1.19925 -0.716502, 1.33134 -0.970422, 1.43009 -1.23204, 1.52884 -1.49365, 1.57789 -1.76809, 1.57789 -2.05567, 1.57789 -2.29805, 1.54615 -2.52472, 1.48267 -2.73503, 1.41919 -2.94535, 1.32782 -3.13002, 1.20791 -3.28904, 1.08832 -3.44806, 0.938601 -3.5763, 0.759062 -3.67377, 0.579523 -3.77123, 0.371449 -3.81996, 0.135484 -3.82028, -0.216541 -3.81996, -0.527528 -3.7148, -0.797157 -3.50449, -1.06647 -3.29417, -1.24536 -3.06237, -1.33353 -2.80974, -1.35084 -2.80268, -1.32263 -2.79915, -1.24889 -2.79948 L -1.15912 -2.79948 C -1.05332 -2.77511, -0.961949 -2.73824, -0.884362 -2.68887, -0.806775 -2.63917, -0.741693 -2.57088, -0.688793 -2.48368, -0.635893 -2.39647, -0.609603 -2.29132, -0.609603 -2.16852, -0.609603 -1.96302, -0.676289 -1.8056, -0.810302 -1.69627, -0.944315 -1.58663, -1.09404 -1.53212, -1.25947 -1.53244, -1.41785 -1.53212, -1.56597 -1.58663, -1.70319 -1.69627, -1.84041 -1.8056, -1.90934 -1.96302, -1.90934 -2.16852, -1.90934 -2.45547, -1.85291 -2.72734, -1.74006 -2.98382, -1.6272 -3.24031, -1.47428 -3.46249, -1.28063 -3.65068, -1.08698 -3.83856, -0.858072 -3.98732, -0.593893 -4.09697, -0.329715 -4.20629, -0.0495055 -4.26112, 0.246413 -4.26144, 0.612865 -4.26112, 0.948539 -4.20725, 1.25311 -4.09953, 1.55769 -3.99181, 1.81738 -3.83695, 2.03219 -3.63529, 2.24699 -3.43331, 2.41531 -3.19991, 2.53682 -2.93509, 2.65833 -2.66995, 2.71892 -2.37692, 2.71892 -2.05567, 2.71892 -1.6998, 2.63813 -1.37214, 2.4759 -1.07302, 2.314 -0.77357, 2.1133 -0.499131, 1.87381 -0.2497, 1.63431 5.126e-005, 1.37975 0.235055, 1.11012 0.455632, 0.840816 0.676208, 0.596835 0.890693, 0.378503 1.09909 L -0.836912 2.24301, 0.753611 2.24301 C 0.97547 2.24333, 1.18258 2.24172, 1.3743 2.2382, 1.56635 2.23499, 1.72921 2.22794, 1.86323 2.21768, 1.99724 2.20742, 2.06585 2.20069, 2.06906 2.19684, 2.09727 2.17312, 2.12388 2.12534, 2.14857 2.05353, 2.17325 1.98171, 2.19602 1.89707, 2.21718 1.79961, 2.23833 1.70215, 2.2595 1.60308, 2.28066 1.50209, 2.30181 1.40142, 2.32105 1.29081, 2.33868 1.1709 L 2.7295 1.1709 Z" stroke="none" fill="#000000" transform="matrix(1.12 0 0 1 14.0863 16.3063)" />
			<rect />
		</svg>
	</g>
	<g transform="matrix(1 0 -0 1 363.339 64.8001)">
		<svg width="68.9939575" height="54.0428391">
			<defs />
			<path d="M 12.9791 7.44427 C 12.8411 7.9395, 12.6052 8.39636, 12.272 8.81429, 11.9388 9.23279, 11.5421 9.59462, 11.0829 9.8992, 10.586 10.2416, 10.0564 10.4998, 9.49308 10.6738, 8.9303 10.8478, 8.3721 10.9349, 7.81848 10.9343 L 5.01605 10.9343, 3.83668 15.5144 C 3.79889 15.6495, 3.78 15.756, 3.78 15.835, 3.78 15.9088, 3.79603 15.9546, 3.82752 15.9724, 3.91569 16.0279, 4.08858 16.06, 4.34621 16.0691, 4.60441 16.0783, 4.88094 16.0829, 5.17635 16.0823, 5.35269 16.0829, 5.44085 16.1682, 5.44085 16.3388 L 5.44085 16.4029, 5.40307 16.5678 C 5.33379 16.751, 5.21128 16.8426, 5.03494 16.8426, 4.24889 16.806, 3.4594 16.7876, 2.66704 16.7876, 1.86839 16.7876, 1.06974 16.806, 0.270517 16.8426, 0.101054 16.8426, 0.0100247 16.7636, -0.00314299 16.6044 L -0.00314299 16.5311, 0.0346427 16.3754 C 0.0850235 16.1745, 0.207541 16.0766, 0.402194 16.0823, 0.698181 16.0829, 0.978139 16.0783, 1.24207 16.0691, 1.50657 16.06, 1.70122 16.0279, 1.82717 15.9724, 1.94683 15.906, 2.03785 15.7411, 2.10083 15.4777 L 4.75212 5.15423 C 4.78991 5.02027, 4.80823 4.91664, 4.80823 4.84279, 4.80823 4.77008, 4.79277 4.72714, 4.76128 4.71455, 4.67312 4.66016, 4.50194 4.62695, 4.24717 4.61436, 3.9924 4.60234, 3.71416 4.59604, 3.41188 4.59547, 3.23612 4.59604, 3.14795 4.5136, 3.14795 4.34814 L 3.14795 4.27486, 3.20463 4.11914 C 3.24241 3.93651, 3.35921 3.84491, 3.55386 3.84433 L 9.60128 3.84433 C 10.1555 3.84491, 10.6696 3.93193, 11.1442 4.10597, 11.6194 4.28001, 12.0264 4.54108, 12.3659 4.88859, 12.6739 5.21263, 12.8909 5.59736, 13.0169 6.04277, 13.0547 6.25116, 13.0736 6.46185, 13.0736 6.67482, 13.0736 6.91986, 13.0421 7.17634, 12.9791 7.44427 Z M 10.9696 7.39847 C 11.0766 7.01432, 11.1488 6.64162, 11.1866 6.28093 L 11.1866 6.11605 C 11.1866 5.83552, 11.1081 5.57904, 10.9507 5.3466, 10.7434 5.07237, 10.4663 4.87886, 10.1205 4.7655, 9.77475 4.65272, 9.40033 4.59604, 8.99786 4.59547 L 7.22365 4.59547 C 6.90304 4.59604, 6.71125 4.62066, 6.64827 4.66932, 6.5853 4.71856, 6.51946 4.89203, 6.45019 5.19088 L 5.13857 10.2473, 7.49731 10.2473 C 7.90608 10.2479, 8.31542 10.19, 8.7242 10.0738, 9.13297 9.95817, 9.51655 9.7595, 9.87494 9.47783, 10.1961 9.2036, 10.4337 8.88299, 10.5877 8.51659, 10.7417 8.15018, 10.8688 7.77748, 10.9696 7.39847 Z" stroke="none" fill="#000000" />
			<path d="M 4.50258 1.65822 C 4.46026 1.83969, 4.3971 2.02884, 4.31246 2.22537, 4.22782 2.42223, 4.12651 2.6008, 4.00853 2.76143, 3.89055 2.92237, 3.75237 3.05638, 3.59399 3.16379, 3.43561 3.27151, 3.25222 3.32537, 3.04415 3.32537, 2.86814 3.32537, 2.71681 3.28786, 2.58985 3.21252, 2.46321 3.1375, 2.36735 3.03843, 2.30195 2.91532, 2.23686 2.7922, 2.20063 2.64857, 2.19358 2.4841 L 2.19358 2.44306 C 2.19358 2.29623, 2.22372 2.14747, 2.28335 1.99678, 2.39973 1.69605, 2.50713 1.39693, 2.60588 1.09941, 2.70463 0.801885, 2.7944 0.50276, 2.87519 0.201391, 2.93161 0.00325727, 2.97041 -0.189747, 2.99157 -0.378263, 2.99862 -0.425713, 3.00215 -0.47701, 3.00215 -0.532154, 3.00215 -0.651419, 2.98452 -0.764272, 2.94925 -0.870713, 2.88577 -1.08584, 2.75208 -1.19356, 2.54753 -1.19388, 2.18845 -1.19356, 1.87843 -1.06949, 1.61777 -0.821661, 1.35712 -0.573512, 1.12981 -0.244571, 0.936167 0.165483, 0.827161 0.631003, 0.710781 1.09524, 0.587348 1.55851, 0.464235 2.02211, 0.342726 2.48442, 0.222819 2.94577, 0.1914 3.07273, 0.126317 3.16731, 0.0275707 3.23047, -0.0711756 3.29395, -0.167999 3.32537, -0.263218 3.32537, -0.365171 3.32537, -0.449811 3.29139, -0.516817 3.22278, -0.562343 3.17853, -0.58703 3.11698, -0.590877 3.03811, -0.590877 3.00092, -0.58735 2.96309, -0.580297 2.92526 L 0.1276 0.201391 C 0.184026 0.00325727, 0.222819 -0.189747, 0.243979 -0.378263 L 0.243979 -0.532154 C 0.243979 -0.654946, 0.229873 -0.767799, 0.20166 -0.870713, 0.1385 -1.08584, 0.00480795 -1.19356, -0.199739 -1.19388, -0.558816 -1.19356, -0.868842 -1.06949, -1.12949 -0.821661, -1.39015 -0.573512, -1.61906 -0.244571, -1.81655 0.165483 L -2.54048 2.94577 C -2.5719 3.07273, -2.63634 3.16731, -2.73316 3.23047, -2.82999 3.29395, -2.92777 3.32537, -3.02652 3.32537, -3.132 3.32537, -3.21311 3.29139, -3.26954 3.22278, -3.31506 3.17853, -3.33815 3.11698, -3.33815 3.03811, -3.33815 3.00765, -3.33462 2.97014, -3.32757 2.92526 L -2.51419 -0.250021 C -2.45776 -0.47188, -2.42955 -0.663602, -2.42955 -0.824546 L -2.42955 -0.947659 C -2.44686 -1.11149, -2.52958 -1.19356, -2.6777 -1.19388, -2.83287 -1.19356, -2.9624 -1.06853, -3.06627 -0.819096, -3.17015 -0.569344, -3.27114 -0.244571, -3.36989 0.155224, -3.40868 0.247879, -3.47376 0.295649, -3.56545 0.298855 L -3.68696 0.298855 C -3.7716 0.299176, -3.81392 0.256536, -3.81392 0.170613 L -3.81392 0.134705 C -3.7716 -0.0255973, -3.72383 -0.200969, -3.67093 -0.390767, -3.61803 -0.580565, -3.5475 -0.760104, -3.45965 -0.929384, -3.37149 -1.09866, -3.26056 -1.2423, -3.12687 -1.36028, -2.99285 -1.47826, -2.82582 -1.53725, -2.62512 -1.53757, -2.33593 -1.53725, -2.10862 -1.45005, -1.94319 -1.27564, -1.77776 -1.10123, -1.69152 -0.931949, -1.68446 -0.76812, -1.53634 -0.962727, -1.33051 -1.1397, -1.06633 -1.29872, -0.802156 -1.45774, -0.495657 -1.53725, -0.147159 -1.53757, 0.0679669 -1.53725, 0.26546 -1.49878, 0.444999 -1.42183, 0.624538 -1.34489, 0.763681 -1.22081, 0.862107 -1.05025, 0.946747 -0.902774, 0.992593 -0.779661, 0.999647 -0.680915, 1.15482 -0.899568, 1.36963 -1.09674, 1.64438 -1.27307, 1.91914 -1.44909, 2.24135 -1.53725, 2.61101 -1.53757, 2.81876 -1.53725, 3.01273 -1.49878, 3.19227 -1.42183, 3.37181 -1.34489, 3.51287 -1.22081, 3.61483 -1.05025, 3.72062 -0.875522, 3.77192 -0.678991, 3.76807 -0.460338 L 3.76807 -0.43469 C 3.76102 -0.215396, 3.7296 0.00518084, 3.67318 0.22704, 3.59206 0.538668, 3.49877 0.844846, 3.39297 1.14557, 3.28749 1.44662, 3.17656 1.75088, 3.06018 2.05834, 2.95438 2.33566, 2.90148 2.5681, 2.90148 2.75598, 2.90148 2.91019, 2.96848 2.98713, 3.1025 2.98681, 3.2224 2.98713, 3.33045 2.95122, 3.42727 2.87941, 3.52409 2.80759, 3.61226 2.71109, 3.69145 2.58958, 3.77096 2.46839, 3.84213 2.32476, 3.90561 2.15869, 3.96909 1.99293, 4.0252 1.81756, 4.07457 1.63257, 4.09573 1.54409, 4.15761 1.49952, 4.25956 1.4992 L 4.37562 1.4992 C 4.41474 1.49952, 4.45513 1.51139, 4.49713 1.53511, 4.51124 1.56621, 4.51829 1.59186, 4.51829 1.61206, 4.51829 1.62616, 4.51316 1.64155, 4.50258 1.65822 Z" stroke="none" fill="#000000" transform="matrix(1.12 0 0 1 15.989 16.3063)" />
			<rect />
		</svg>
	</g>
	<g transform="matrix(1 0 -0 1 82.063 94.308)">
		<svg width="53.9427032" height="56.9999886">
			<defs />
			<path d="M 10.9882 6.6565 C 10.8817 7.08474, 10.6928 7.49408, 10.4225 7.88453, 10.1523 8.27556, 9.82484 8.61735, 9.44126 8.9099, 9.2718 9.05074, 9.15214 9.13948, 9.0823 9.17554, 9.30271 9.31066, 9.52599 9.53336, 9.75271 9.84424, 10.0355 10.2599, 10.2147 10.727, 10.2903 11.2457, 10.3029 11.4175, 10.3092 11.5881, 10.3092 11.7587, 10.3092 12.1137, 10.2651 12.4766, 10.1769 12.8488, 10.0264 13.411, 9.78591 13.9474, 9.45557 14.4569, 9.12524 14.9671, 8.70845 15.4233, 8.20521 15.8258, 7.74606 16.2174, 7.23996 16.5254, 6.68634 16.751, 6.13273 16.9771, 5.57625 17.0899, 5.01633 17.0899, 4.19249 17.0899, 3.51292 16.881, 2.9782 16.463, 2.44348 16.0451, 2.11371 15.6065, 1.98776 15.148 L 0.676138 20.2502 C 0.607437 20.403, 0.496942 20.4792, 0.3458 20.4792 L 0.251336 20.4792 C 0.170039 20.4792, 0.109926 20.4551, 0.0721399 20.4059, 0.0217591 20.3818, -0.00343132 20.3389, -0.00343132 20.2777, -0.00343132 20.2536, 0.00630134 20.2261, 0.0251942 20.1952 L 2.9782 8.64425 C 3.15453 7.9853, 3.41674 7.34294, 3.76597 6.71661, 4.1152 6.09086, 4.53085 5.53381, 5.01175 5.04489, 5.49266 4.55653, 6.03082 4.16265, 6.62509 3.86323, 7.21935 3.56438, 7.84396 3.41438, 8.49777 3.41381, 8.93803 3.41438, 9.33764 3.49854, 9.69603 3.66628, 10.0544 3.8346, 10.3567 4.06761, 10.6017 4.36646, 10.8285 4.66646, 10.9762 5.01741, 11.0449 5.41988, 11.0701 5.57904, 11.0826 5.73476, 11.0826 5.88705, 11.0826 6.1441, 11.0512 6.40059, 10.9882 6.6565 Z M 7.42202 9.20302 C 7.4661 9.18528, 7.43175 9.18871, 7.3184 9.21276, 7.20504 9.23738, 7.09512 9.2494, 6.98806 9.24883, 6.56039 9.2494, 6.29647 9.23738, 6.1957 9.21276, 6.09494 9.18871, 6.04456 9.19444, 6.04456 9.2305, 6.03826 9.2494, 6.09952 9.24654, 6.22834 9.22192, 6.35772 9.19787, 6.63253 9.18528, 7.0539 9.1847, 7.27431 9.18528, 7.39683 9.19157, 7.42202 9.20302 Z M 9.55405 4.72371 C 9.3279 4.25998, 8.93803 4.02811, 8.38441 4.02754, 7.84396 4.02811, 7.32183 4.15635, 6.81859 4.41284, 6.31536 4.66932, 5.85449 5.01454, 5.43598 5.44793, 5.01805 5.8819, 4.65165 6.37941, 4.33676 6.94104, 4.02246 7.50324, 3.79288 8.0832, 3.64804 8.6809 L 2.58202 12.8488 C 2.50645 13.1671, 2.46867 13.4785, 2.46867 13.7831, 2.46867 13.9423, 2.48126 14.1043, 2.50645 14.2686, 2.56943 14.7026, 2.71255 15.0816, 2.93583 15.405, 3.15911 15.7291, 3.45968 15.9884, 3.83696 16.1836, 4.21425 16.3794, 4.64821 16.4768, 5.13885 16.4762, 5.49152 16.4768, 5.84361 16.3823, 6.1957 16.1928, 6.5478 16.0039, 6.8684 15.756, 7.15809 15.4503, 7.50389 15.0781, 7.76953 14.6665, 7.95503 14.2142, 8.14052 13.7625, 8.29796 13.2936, 8.42677 12.8081, 8.55616 12.3226, 8.64547 11.8509, 8.69585 11.3923 L 8.69585 11.1083 C 8.69585 10.7854, 8.63918 10.4769, 8.52582 10.1832, 8.47544 10.0675, 8.41761 9.96103, 8.3512 9.86313, 8.28536 9.7658, 8.22067 9.68279, 8.15769 9.61523, 7.76152 9.76866, 7.34015 9.84481, 6.89359 9.84424 L 6.48768 9.84424 C 6.31192 9.84481, 6.13616 9.83107, 5.95983 9.80359, 5.7835 9.77611, 5.63922 9.71657, 5.52587 9.62439, 5.41251 9.56371, 5.35583 9.46294, 5.35583 9.32211, 5.35583 9.27402, 5.36213 9.22822, 5.37472 9.1847, 5.41881 9.00837, 5.52415 8.87841, 5.69075 8.79597, 5.85792 8.71353, 6.03712 8.65571, 6.22891 8.62193, 6.4207 8.58872, 6.60448 8.57155, 6.78024 8.57097 L 7.16725 8.57097 C 7.57603 8.57155, 7.95045 8.63853, 8.28994 8.7725, 8.32201 8.74845, 8.35979 8.71353, 8.4033 8.66773, 8.44738 8.62193, 8.50063 8.56868, 8.5636 8.50685, 8.81551 8.25094, 9.0136 7.9624, 9.15787 7.64179, 9.30271 7.32119, 9.41893 6.98054, 9.5071 6.61986, 9.60786 6.26032, 9.67084 5.9151, 9.69603 5.58476 L 9.69603 5.4382 C 9.69603 5.17599, 9.64908 4.93783, 9.55405 4.72371 Z" stroke="none" fill="#000000" />
			<path d="M 2.37714 3.19713 C 1.7292 3.17661, 1.09857 3.16635, 0.485571 3.16635, -0.127106 3.16635, -0.757737 3.17661, -1.406 3.19713 L -1.406 2.75598, -1.04115 2.75598 C -0.925093 2.7563, -0.815766 2.75469, -0.713814 2.75117, -0.611541 2.74796, -0.514718 2.7393, -0.423025 2.72552, -0.331331 2.71205, -0.252142 2.69827, -0.185456 2.68416, -0.12903 2.67422, -0.082221 2.6428, -0.0453515 2.58958, -0.00816131 2.53668, 0.0101132 2.47769, 0.0101132 2.41229 L 0.0101132 -3.36887 C -0.165899 -3.28295, -0.382628 -3.21787, -0.639754 -3.17362, -0.89688 -3.12906, -1.17869 -3.10694, -1.48519 -3.10726 L -1.48519 -3.54328 C -1.06231 -3.54296, -0.672135 -3.59329, -0.31466 -3.69429, 0.042815 -3.79496, 0.351879 -3.98411, 0.612531 -4.26144 L 0.77636 -4.26144 C 0.89242 -4.26112, 0.950449 -4.20469, 0.950449 -4.09216 L 0.950449 2.41229 C 0.950449 2.4809, 0.968082 2.54085, 1.00335 2.59215, 1.03862 2.64344, 1.08991 2.67422, 1.1566 2.68416, 1.21302 2.69827, 1.28548 2.71205, 1.37333 2.72552, 1.46149 2.7393, 1.56088 2.74796, 1.67181 2.75117, 1.78274 2.75469, 1.89111 2.7563, 1.99658 2.75598 L 2.37714 2.75598, 2.37714 3.19713 Z" stroke="none" fill="#000000" transform="matrix(1.12 0 0 1 13.5491 16.3063)" />
			<rect />
		</svg>
	</g>
	<g transform="matrix(1 0 -0 1 168.107 34.4981)">
		<svg width="57.0301361" height="56.9999886">
			<defs />
			<path d="M 10.9882 6.6565 C 10.8817 7.08474, 10.6928 7.49408, 10.4225 7.88453, 10.1523 8.27556, 9.82484 8.61735, 9.44126 8.9099, 9.2718 9.05074, 9.15214 9.13948, 9.0823 9.17554, 9.30271 9.31066, 9.52599 9.53336, 9.75271 9.84424, 10.0355 10.2599, 10.2147 10.727, 10.2903 11.2457, 10.3029 11.4175, 10.3092 11.5881, 10.3092 11.7587, 10.3092 12.1137, 10.2651 12.4766, 10.1769 12.8488, 10.0264 13.411, 9.78591 13.9474, 9.45557 14.4569, 9.12524 14.9671, 8.70845 15.4233, 8.20521 15.8258, 7.74606 16.2174, 7.23996 16.5254, 6.68634 16.751, 6.13273 16.9771, 5.57625 17.0899, 5.01633 17.0899, 4.19249 17.0899, 3.51292 16.881, 2.9782 16.463, 2.44348 16.0451, 2.11371 15.6065, 1.98776 15.148 L 0.676138 20.2502 C 0.607437 20.403, 0.496942 20.4792, 0.3458 20.4792 L 0.251336 20.4792 C 0.170039 20.4792, 0.109926 20.4551, 0.0721399 20.4059, 0.0217591 20.3818, -0.00343132 20.3389, -0.00343132 20.2777, -0.00343132 20.2536, 0.00630134 20.2261, 0.0251942 20.1952 L 2.9782 8.64425 C 3.15453 7.9853, 3.41674 7.34294, 3.76597 6.71661, 4.1152 6.09086, 4.53085 5.53381, 5.01175 5.04489, 5.49266 4.55653, 6.03082 4.16265, 6.62509 3.86323, 7.21935 3.56438, 7.84396 3.41438, 8.49777 3.41381, 8.93803 3.41438, 9.33764 3.49854, 9.69603 3.66628, 10.0544 3.8346, 10.3567 4.06761, 10.6017 4.36646, 10.8285 4.66646, 10.9762 5.01741, 11.0449 5.41988, 11.0701 5.57904, 11.0826 5.73476, 11.0826 5.88705, 11.0826 6.1441, 11.0512 6.40059, 10.9882 6.6565 Z M 7.42202 9.20302 C 7.4661 9.18528, 7.43175 9.18871, 7.3184 9.21276, 7.20504 9.23738, 7.09512 9.2494, 6.98806 9.24883, 6.56039 9.2494, 6.29647 9.23738, 6.1957 9.21276, 6.09494 9.18871, 6.04456 9.19444, 6.04456 9.2305, 6.03826 9.2494, 6.09952 9.24654, 6.22834 9.22192, 6.35772 9.19787, 6.63253 9.18528, 7.0539 9.1847, 7.27431 9.18528, 7.39683 9.19157, 7.42202 9.20302 Z M 9.55405 4.72371 C 9.3279 4.25998, 8.93803 4.02811, 8.38441 4.02754, 7.84396 4.02811, 7.32183 4.15635, 6.81859 4.41284, 6.31536 4.66932, 5.85449 5.01454, 5.43598 5.44793, 5.01805 5.8819, 4.65165 6.37941, 4.33676 6.94104, 4.02246 7.50324, 3.79288 8.0832, 3.64804 8.6809 L 2.58202 12.8488 C 2.50645 13.1671, 2.46867 13.4785, 2.46867 13.7831, 2.46867 13.9423, 2.48126 14.1043, 2.50645 14.2686, 2.56943 14.7026, 2.71255 15.0816, 2.93583 15.405, 3.15911 15.7291, 3.45968 15.9884, 3.83696 16.1836, 4.21425 16.3794, 4.64821 16.4768, 5.13885 16.4762, 5.49152 16.4768, 5.84361 16.3823, 6.1957 16.1928, 6.5478 16.0039, 6.8684 15.756, 7.15809 15.4503, 7.50389 15.0781, 7.76953 14.6665, 7.95503 14.2142, 8.14052 13.7625, 8.29796 13.2936, 8.42677 12.8081, 8.55616 12.3226, 8.64547 11.8509, 8.69585 11.3923 L 8.69585 11.1083 C 8.69585 10.7854, 8.63918 10.4769, 8.52582 10.1832, 8.47544 10.0675, 8.41761 9.96103, 8.3512 9.86313, 8.28536 9.7658, 8.22067 9.68279, 8.15769 9.61523, 7.76152 9.76866, 7.34015 9.84481, 6.89359 9.84424 L 6.48768 9.84424 C 6.31192 9.84481, 6.13616 9.83107, 5.95983 9.80359, 5.7835 9.77611, 5.63922 9.71657, 5.52587 9.62439, 5.41251 9.56371, 5.35583 9.46294, 5.35583 9.32211, 5.35583 9.27402, 5.36213 9.22822, 5.37472 9.1847, 5.41881 9.00837, 5.52415 8.87841, 5.69075 8.79597, 5.85792 8.71353, 6.03712 8.65571, 6.22891 8.62193, 6.4207 8.58872, 6.60448 8.57155, 6.78024 8.57097 L 7.16725 8.57097 C 7.57603 8.57155, 7.95045 8.63853, 8.28994 8.7725, 8.32201 8.74845, 8.35979 8.71353, 8.4033 8.66773, 8.44738 8.62193, 8.50063 8.56868, 8.5636 8.50685, 8.81551 8.25094, 9.0136 7.9624, 9.15787 7.64179, 9.30271 7.32119, 9.41893 6.98054, 9.5071 6.61986, 9.60786 6.26032, 9.67084 5.9151, 9.69603 5.58476 L 9.69603 5.4382 C 9.69603 5.17599, 9.64908 4.93783, 9.55405 4.72371 Z" stroke="none" fill="#000000" />
			<path d="M 2.39126 3.19713 L -1.90934 3.19713, -1.90934 2.915 C -1.90934 2.8948, -1.89876 2.86402, -1.8776 2.82266 L -0.149855 0.945196 C 0.0543709 0.71981, 0.261161 0.488975, 0.470837 0.253009, 0.680513 0.0170434, 0.868388 -0.224052, 1.03382 -0.470277, 1.19925 -0.716502, 1.33134 -0.970422, 1.43009 -1.23204, 1.52884 -1.49365, 1.57789 -1.76809, 1.57789 -2.05567, 1.57789 -2.29805, 1.54615 -2.52472, 1.48267 -2.73503, 1.41919 -2.94535, 1.32782 -3.13002, 1.20791 -3.28904, 1.08832 -3.44806, 0.938601 -3.5763, 0.759062 -3.67377, 0.579523 -3.77123, 0.371449 -3.81996, 0.135484 -3.82028, -0.216541 -3.81996, -0.527528 -3.7148, -0.797157 -3.50449, -1.06647 -3.29417, -1.24536 -3.06237, -1.33353 -2.80974, -1.35084 -2.80268, -1.32263 -2.79915, -1.24889 -2.79948 L -1.15912 -2.79948 C -1.05332 -2.77511, -0.961949 -2.73824, -0.884362 -2.68887, -0.806775 -2.63917, -0.741693 -2.57088, -0.688793 -2.48368, -0.635893 -2.39647, -0.609603 -2.29132, -0.609603 -2.16852, -0.609603 -1.96302, -0.676289 -1.8056, -0.810302 -1.69627, -0.944315 -1.58663, -1.09404 -1.53212, -1.25947 -1.53244, -1.41785 -1.53212, -1.56597 -1.58663, -1.70319 -1.69627, -1.84041 -1.8056, -1.90934 -1.96302, -1.90934 -2.16852, -1.90934 -2.45547, -1.85291 -2.72734, -1.74006 -2.98382, -1.6272 -3.24031, -1.47428 -3.46249, -1.28063 -3.65068, -1.08698 -3.83856, -0.858072 -3.98732, -0.593893 -4.09697, -0.329715 -4.20629, -0.0495055 -4.26112, 0.246413 -4.26144, 0.612865 -4.26112, 0.948539 -4.20725, 1.25311 -4.09953, 1.55769 -3.99181, 1.81738 -3.83695, 2.03219 -3.63529, 2.24699 -3.43331, 2.41531 -3.19991, 2.53682 -2.93509, 2.65833 -2.66995, 2.71892 -2.37692, 2.71892 -2.05567, 2.71892 -1.6998, 2.63813 -1.37214, 2.4759 -1.07302, 2.314 -0.77357, 2.1133 -0.499131, 1.87381 -0.2497, 1.63431 5.126e-005, 1.37975 0.235055, 1.11012 0.455632, 0.840816 0.676208, 0.596835 0.890693, 0.378503 1.09909 L -0.836912 2.24301, 0.753611 2.24301 C 0.97547 2.24333, 1.18258 2.24172, 1.3743 2.2382, 1.56635 2.23499, 1.72921 2.22794, 1.86323 2.21768, 1.99724 2.20742, 2.06585 2.20069, 2.06906 2.19684, 2.09727 2.17312, 2.12388 2.12534, 2.14857 2.05353, 2.17325 1.98171, 2.19602 1.89707, 2.21718 1.79961, 2.23833 1.70215, 2.2595 1.60308, 2.28066 1.50209, 2.30181 1.40142, 2.32105 1.29081, 2.33868 1.1709 L 2.7295 1.1709 Z" stroke="none" fill="#000000" transform="matrix(1.12 0 0 1 13.9717 16.3063)" />
			<rect />
		</svg>
	</g>
	<g transform="matrix(1 0 -0 1 257.382 85.9787)">
		<svg width="57.0301361" height="56.9999886">
			<defs />
			<path d="M 10.9882 6.6565 C 10.8817 7.08474, 10.6928 7.49408, 10.4225 7.88453, 10.1523 8.27556, 9.82484 8.61735, 9.44126 8.9099, 9.2718 9.05074, 9.15214 9.13948, 9.0823 9.17554, 9.30271 9.31066, 9.52599 9.53336, 9.75271 9.84424, 10.0355 10.2599, 10.2147 10.727, 10.2903 11.2457, 10.3029 11.4175, 10.3092 11.5881, 10.3092 11.7587, 10.3092 12.1137, 10.2651 12.4766, 10.1769 12.8488, 10.0264 13.411, 9.78591 13.9474, 9.45557 14.4569, 9.12524 14.9671, 8.70845 15.4233, 8.20521 15.8258, 7.74606 16.2174, 7.23996 16.5254, 6.68634 16.751, 6.13273 16.9771, 5.57625 17.0899, 5.01633 17.0899, 4.19249 17.0899, 3.51292 16.881, 2.9782 16.463, 2.44348 16.0451, 2.11371 15.6065, 1.98776 15.148 L 0.676138 20.2502 C 0.607437 20.403, 0.496942 20.4792, 0.3458 20.4792 L 0.251336 20.4792 C 0.170039 20.4792, 0.109926 20.4551, 0.0721399 20.4059, 0.0217591 20.3818, -0.00343132 20.3389, -0.00343132 20.2777, -0.00343132 20.2536, 0.00630134 20.2261, 0.0251942 20.1952 L 2.9782 8.64425 C 3.15453 7.9853, 3.41674 7.34294, 3.76597 6.71661, 4.1152 6.09086, 4.53085 5.53381, 5.01175 5.04489, 5.49266 4.55653, 6.03082 4.16265, 6.62509 3.86323, 7.21935 3.56438, 7.84396 3.41438, 8.49777 3.41381, 8.93803 3.41438, 9.33764 3.49854, 9.69603 3.66628, 10.0544 3.8346, 10.3567 4.06761, 10.6017 4.36646, 10.8285 4.66646, 10.9762 5.01741, 11.0449 5.41988, 11.0701 5.57904, 11.0826 5.73476, 11.0826 5.88705, 11.0826 6.1441, 11.0512 6.40059, 10.9882 6.6565 Z M 7.42202 9.20302 C 7.4661 9.18528, 7.43175 9.18871, 7.3184 9.21276, 7.20504 9.23738, 7.09512 9.2494, 6.98806 9.24883, 6.56039 9.2494, 6.29647 9.23738, 6.1957 9.21276, 6.09494 9.18871, 6.04456 9.19444, 6.04456 9.2305, 6.03826 9.2494, 6.09952 9.24654, 6.22834 9.22192, 6.35772 9.19787, 6.63253 9.18528, 7.0539 9.1847, 7.27431 9.18528, 7.39683 9.19157, 7.42202 9.20302 Z M 9.55405 4.72371 C 9.3279 4.25998, 8.93803 4.02811, 8.38441 4.02754, 7.84396 4.02811, 7.32183 4.15635, 6.81859 4.41284, 6.31536 4.66932, 5.85449 5.01454, 5.43598 5.44793, 5.01805 5.8819, 4.65165 6.37941, 4.33676 6.94104, 4.02246 7.50324, 3.79288 8.0832, 3.64804 8.6809 L 2.58202 12.8488 C 2.50645 13.1671, 2.46867 13.4785, 2.46867 13.7831, 2.46867 13.9423, 2.48126 14.1043, 2.50645 14.2686, 2.56943 14.7026, 2.71255 15.0816, 2.93583 15.405, 3.15911 15.7291, 3.45968 15.9884, 3.83696 16.1836, 4.21425 16.3794, 4.64821 16.4768, 5.13885 16.4762, 5.49152 16.4768, 5.84361 16.3823, 6.1957 16.1928, 6.5478 16.0039, 6.8684 15.756, 7.15809 15.4503, 7.50389 15.0781, 7.76953 14.6665, 7.95503 14.2142, 8.14052 13.7625, 8.29796 13.2936, 8.42677 12.8081, 8.55616 12.3226, 8.64547 11.8509, 8.69585 11.3923 L 8.69585 11.1083 C 8.69585 10.7854, 8.63918 10.4769, 8.52582 10.1832, 8.47544 10.0675, 8.41761 9.96103, 8.3512 9.86313, 8.28536 9.7658, 8.22067 9.68279, 8.15769 9.61523, 7.76152 9.76866, 7.34015 9.84481, 6.89359 9.84424 L 6.48768 9.84424 C 6.31192 9.84481, 6.13616 9.83107, 5.95983 9.80359, 5.7835 9.77611, 5.63922 9.71657, 5.52587 9.62439, 5.41251 9.56371, 5.35583 9.46294, 5.35583 9.32211, 5.35583 9.27402, 5.36213 9.22822, 5.37472 9.1847, 5.41881 9.00837, 5.52415 8.87841, 5.69075 8.79597, 5.85792 8.71353, 6.03712 8.65571, 6.22891 8.62193, 6.4207 8.58872, 6.60448 8.57155, 6.78024 8.57097 L 7.16725 8.57097 C 7.57603 8.57155, 7.95045 8.63853, 8.28994 8.7725, 8.32201 8.74845, 8.35979 8.71353, 8.4033 8.66773, 8.44738 8.62193, 8.50063 8.56868, 8.5636 8.50685, 8.81551 8.25094, 9.0136 7.9624, 9.15787 7.64179, 9.30271 7.32119, 9.41893 6.98054, 9.5071 6.61986, 9.60786 6.26032, 9.67084 5.9151, 9.69603 5.58476 L 9.69603 5.4382 C 9.69603 5.17599, 9.64908 4.93783, 9.55405 4.72371 Z" stroke="none" fill="#000000" />
			<path d="M 2.81866 1.26324 C 2.81866 1.55755, 2.75357 1.84001, 2.62341 2.10996, 2.49324 2.38023, 2.31883 2.61106, 2.10018 2.80214, 1.85363 3.01791, 1.58144 3.17757, 1.28392 3.28177, 0.986397 3.38629, 0.675409 3.43822, 0.351277 3.43822, 0.0588849 3.43822, -0.226133 3.39719, -0.504419 3.31511, -0.782704 3.23304, -1.03342 3.11537, -1.2572 2.96148, -1.48098 2.80759, -1.65956 2.61876, -1.79357 2.39465, -1.92759 2.17087, -1.99459 1.91342, -1.99459 1.62232, -1.99459 1.40366, -1.9215 1.24047, -1.7753 1.13275, -1.6291 1.02503, -1.47489 0.971165, -1.31299 0.970845, -1.14371 0.971165, -0.986289 1.02503, -0.840093 1.13275, -0.693897 1.24047, -0.620799 1.40366, -0.620799 1.62232, -0.620799 1.75248, -0.646127 1.86117, -0.697423 1.94837, -0.7484 2.03558, -0.813483 2.10835, -0.892993 2.16638, -0.972182 2.22473, -1.06291 2.26032, -1.16519 2.27379, -1.21777 2.28789, -1.26714 2.29462, -1.31299 2.2943, -1.35851 2.29462, -1.36557 2.29815, -1.33415 2.30456, -1.22482 2.49629, -1.01001 2.66589, -0.689408 2.81272, -0.368803 2.95988, -0.0219078 3.0333, 0.351277 3.03298, 0.52761 3.0333, 0.692081 2.9897, 0.84533 2.90249, 0.99858 2.81529, 1.1265 2.69827, 1.22845 2.55079, 1.35541 2.35971, 1.44166 2.15452, 1.4875 1.93555, 1.53335 1.71689, 1.55611 1.49279, 1.55611 1.26324, 1.55611 1.02759, 1.53335 0.801244, 1.4875 0.583874, 1.44166 0.366824, 1.35541 0.165804, 1.22845 -0.0191851, 1.12265 -0.169228, 0.994091 -0.290738, 0.842765 -0.383072, 0.691439 -0.475407, 0.52761 -0.521574, 0.351277 -0.521894 L -0.414649 -0.521894 C -0.516602 -0.521574, -0.571425 -0.569344, -0.578479 -0.665526 L -0.578479 -0.721952 C -0.578479 -0.762669, -0.565975 -0.79505, -0.541609 -0.819416, -0.509869 -0.849874, -0.469473 -0.865263, -0.4201 -0.865584, -0.317827 -0.879049, -0.212027 -0.885782, -0.103021 -0.886102, 0.00277901 -0.885782, 0.106655 -0.892514, 0.208608 -0.906621, 0.399047 -0.920087, 0.56448 -0.978757, 0.705546 -1.08327, 0.846612 -1.18747, 0.964595 -1.32084, 1.05949 -1.48339, 1.15439 -1.64562, 1.22653 -1.83285, 1.2759 -2.04509, 1.32528 -2.25701, 1.34996 -2.47438, 1.34996 -2.69688, 1.34996 -2.86071, 1.33233 -3.01621, 1.29706 -3.16336, 1.2618 -3.3102, 1.19671 -3.43876, 1.10149 -3.54841, 0.904321 -3.7738, 0.654249 -3.88505, 0.351277 -3.88184, 0.0274656 -3.88152, -0.269415 -3.8206, -0.538724 -3.69942, -0.808032 -3.57791, -0.988854 -3.4471, -1.08055 -3.30731, -1.10491 -3.30347, -1.09273 -3.30186, -1.04336 -3.30219, -0.916397 -3.30186, -0.796811 -3.26435, -0.684279 -3.18933, -0.514999 -3.08994, -0.43068 -2.92227, -0.43068 -2.68662, -0.43068 -2.48785, -0.494801 -2.33812, -0.623363 -2.23745, -0.751926 -2.13646, -0.895558 -2.08613, -1.05394 -2.08645, -1.20911 -2.08613, -1.35434 -2.1355, -1.48996 -2.23489, -1.62558 -2.33396, -1.69354 -2.48464, -1.69354 -2.68662, -1.69354 -2.93605, -1.63359 -3.15631, -1.51368 -3.34803, -1.39378 -3.53943, -1.23989 -3.70358, -1.05137 -3.84048, -0.862856 -3.97706, -0.645485 -4.08158, -0.39894 -4.15339, -0.152074 -4.22521, 0.0979986 -4.26112, 0.351277 -4.26144, 0.622509 -4.26112, 0.885085 -4.22521, 1.13868 -4.15339, 1.39228 -4.08158, 1.63178 -3.97033, 1.85716 -3.82028, 2.04055 -3.69012, 2.19444 -3.53014, 2.31947 -3.34034, 2.44451 -3.15054, 2.50703 -2.93605, 2.50703 -2.69688, 2.50703 -2.45707, 2.46407 -2.23136, 2.37782 -2.01944, 2.29158 -1.8072, 2.17713 -1.6158, 2.03446 -1.44492, 1.89179 -1.27371, 1.72187 -1.12335, 1.52437 -0.993505, 1.3272 -0.863339, 1.17908 -0.781585, 1.08033 -0.747601, 1.16497 -0.737021, 1.30957 -0.686365, 1.51379 -0.595954, 1.71834 -0.505223, 1.91359 -0.384675, 2.10018 -0.234632, 2.31883 -0.0461159, 2.49324 0.178629, 2.62341 0.440243, 2.75357 0.701857, 2.81866 0.976295, 2.81866 1.26324 Z" stroke="none" fill="#000000" transform="matrix(1.12 0 0 1 14.0563 16.3063)" />
			<rect />
		</svg>
	</g>
	<g transform="matrix(1 0 -0 1 364.142 9.00001)">
		<svg width="134.987915" height="99.0428467">
			<defs />
			<path d="M 10.9882 6.6565 C 10.8817 7.08474, 10.6928 7.49408, 10.4225 7.88453, 10.1523 8.27556, 9.82484 8.61735, 9.44126 8.9099, 9.2718 9.05074, 9.15214 9.13948, 9.0823 9.17554, 9.30271 9.31066, 9.52599 9.53336, 9.75271 9.84424, 10.0355 10.2599, 10.2147 10.727, 10.2903 11.2457, 10.3029 11.4175, 10.3092 11.5881, 10.3092 11.7587, 10.3092 12.1137, 10.2651 12.4766, 10.1769 12.8488, 10.0264 13.411, 9.78591 13.9474, 9.45557 14.4569, 9.12524 14.9671, 8.70845 15.4233, 8.20521 15.8258, 7.74606 16.2174, 7.23996 16.5254, 6.68634 16.751, 6.13273 16.9771, 5.57625 17.0899, 5.01633 17.0899, 4.19249 17.0899, 3.51292 16.881, 2.9782 16.463, 2.44348 16.0451, 2.11371 15.6065, 1.98776 15.148 L 0.676138 20.2502 C 0.607437 20.403, 0.496942 20.4792, 0.3458 20.4792 L 0.251336 20.4792 C 0.170039 20.4792, 0.109926 20.4551, 0.0721399 20.4059, 0.0217591 20.3818, -0.00343132 20.3389, -0.00343132 20.2777, -0.00343132 20.2536, 0.00630134 20.2261, 0.0251942 20.1952 L 2.9782 8.64425 C 3.15453 7.9853, 3.41674 7.34294, 3.76597 6.71661, 4.1152 6.09086, 4.53085 5.53381, 5.01175 5.04489, 5.49266 4.55653, 6.03082 4.16265, 6.62509 3.86323, 7.21935 3.56438, 7.84396 3.41438, 8.49777 3.41381, 8.93803 3.41438, 9.33764 3.49854, 9.69603 3.66628, 10.0544 3.8346, 10.3567 4.06761, 10.6017 4.36646, 10.8285 4.66646, 10.9762 5.01741, 11.0449 5.41988, 11.0701 5.57904, 11.0826 5.73476, 11.0826 5.88705, 11.0826 6.1441, 11.0512 6.40059, 10.9882 6.6565 Z M 7.42202 9.20302 C 7.4661 9.18528, 7.43175 9.18871, 7.3184 9.21276, 7.20504 9.23738, 7.09512 9.2494, 6.98806 9.24883, 6.56039 9.2494, 6.29647 9.23738, 6.1957 9.21276, 6.09494 9.18871, 6.04456 9.19444, 6.04456 9.2305, 6.03826 9.2494, 6.09952 9.24654, 6.22834 9.22192, 6.35772 9.19787, 6.63253 9.18528, 7.0539 9.1847, 7.27431 9.18528, 7.39683 9.19157, 7.42202 9.20302 Z M 9.55405 4.72371 C 9.3279 4.25998, 8.93803 4.02811, 8.38441 4.02754, 7.84396 4.02811, 7.32183 4.15635, 6.81859 4.41284, 6.31536 4.66932, 5.85449 5.01454, 5.43598 5.44793, 5.01805 5.8819, 4.65165 6.37941, 4.33676 6.94104, 4.02246 7.50324, 3.79288 8.0832, 3.64804 8.6809 L 2.58202 12.8488 C 2.50645 13.1671, 2.46867 13.4785, 2.46867 13.7831, 2.46867 13.9423, 2.48126 14.1043, 2.50645 14.2686, 2.56943 14.7026, 2.71255 15.0816, 2.93583 15.405, 3.15911 15.7291, 3.45968 15.9884, 3.83696 16.1836, 4.21425 16.3794, 4.64821 16.4768, 5.13885 16.4762, 5.49152 16.4768, 5.84361 16.3823, 6.1957 16.1928, 6.5478 16.0039, 6.8684 15.756, 7.15809 15.4503, 7.50389 15.0781, 7.76953 14.6665, 7.95503 14.2142, 8.14052 13.7625, 8.29796 13.2936, 8.42677 12.8081, 8.55616 12.3226, 8.64547 11.8509, 8.69585 11.3923 L 8.69585 11.1083 C 8.69585 10.7854, 8.63918 10.4769, 8.52582 10.1832, 8.47544 10.0675, 8.41761 9.96103, 8.3512 9.86313, 8.28536 9.7658, 8.22067 9.68279, 8.15769 9.61523, 7.76152 9.76866, 7.34015 9.84481, 6.89359 9.84424 L 6.48768 9.84424 C 6.31192 9.84481, 6.13616 9.83107, 5.95983 9.80359, 5.7835 9.77611, 5.63922 9.71657, 5.52587 9.62439, 5.41251 9.56371, 5.35583 9.46294, 5.35583 9.32211, 5.35583 9.27402, 5.36213 9.22822, 5.37472 9.1847, 5.41881 9.00837, 5.52415 8.87841, 5.69075 8.79597, 5.85792 8.71353, 6.03712 8.65571, 6.22891 8.62193, 6.4207 8.58872, 6.60448 8.57155, 6.78024 8.57097 L 7.16725 8.57097 C 7.57603 8.57155, 7.95045 8.63853, 8.28994 8.7725, 8.32201 8.74845, 8.35979 8.71353, 8.4033 8.66773, 8.44738 8.62193, 8.50063 8.56868, 8.5636 8.50685, 8.81551 8.25094, 9.0136 7.9624, 9.15787 7.64179, 9.30271 7.32119, 9.41893 6.98054, 9.5071 6.61986, 9.60786 6.26032, 9.67084 5.9151, 9.69603 5.58476 L 9.69603 5.4382 C 9.69603 5.17599, 9.64908 4.93783, 9.55405 4.72371 Z" stroke="none" fill="#000000" />
			<path d="M 4.50258 1.65822 C 4.46026 1.83969, 4.3971 2.02884, 4.31246 2.22537, 4.22782 2.42223, 4.12651 2.6008, 4.00853 2.76143, 3.89055 2.92237, 3.75237 3.05638, 3.59399 3.16379, 3.43561 3.27151, 3.25222 3.32537, 3.04415 3.32537, 2.86814 3.32537, 2.71681 3.28786, 2.58985 3.21252, 2.46321 3.1375, 2.36735 3.03843, 2.30195 2.91532, 2.23686 2.7922, 2.20063 2.64857, 2.19358 2.4841 L 2.19358 2.44306 C 2.19358 2.29623, 2.22372 2.14747, 2.28335 1.99678, 2.39973 1.69605, 2.50713 1.39693, 2.60588 1.09941, 2.70463 0.801885, 2.7944 0.50276, 2.87519 0.201391, 2.93161 0.00325727, 2.97041 -0.189747, 2.99157 -0.378263, 2.99862 -0.425713, 3.00215 -0.47701, 3.00215 -0.532154, 3.00215 -0.651419, 2.98452 -0.764272, 2.94925 -0.870713, 2.88577 -1.08584, 2.75208 -1.19356, 2.54753 -1.19388, 2.18845 -1.19356, 1.87843 -1.06949, 1.61777 -0.821661, 1.35712 -0.573512, 1.12981 -0.244571, 0.936167 0.165483, 0.827161 0.631003, 0.710781 1.09524, 0.587348 1.55851, 0.464235 2.02211, 0.342726 2.48442, 0.222819 2.94577, 0.1914 3.07273, 0.126317 3.16731, 0.0275707 3.23047, -0.0711756 3.29395, -0.167999 3.32537, -0.263218 3.32537, -0.365171 3.32537, -0.449811 3.29139, -0.516817 3.22278, -0.562343 3.17853, -0.58703 3.11698, -0.590877 3.03811, -0.590877 3.00092, -0.58735 2.96309, -0.580297 2.92526 L 0.1276 0.201391 C 0.184026 0.00325727, 0.222819 -0.189747, 0.243979 -0.378263 L 0.243979 -0.532154 C 0.243979 -0.654946, 0.229873 -0.767799, 0.20166 -0.870713, 0.1385 -1.08584, 0.00480795 -1.19356, -0.199739 -1.19388, -0.558816 -1.19356, -0.868842 -1.06949, -1.12949 -0.821661, -1.39015 -0.573512, -1.61906 -0.244571, -1.81655 0.165483 L -2.54048 2.94577 C -2.5719 3.07273, -2.63634 3.16731, -2.73316 3.23047, -2.82999 3.29395, -2.92777 3.32537, -3.02652 3.32537, -3.132 3.32537, -3.21311 3.29139, -3.26954 3.22278, -3.31506 3.17853, -3.33815 3.11698, -3.33815 3.03811, -3.33815 3.00765, -3.33462 2.97014, -3.32757 2.92526 L -2.51419 -0.250021 C -2.45776 -0.47188, -2.42955 -0.663602, -2.42955 -0.824546 L -2.42955 -0.947659 C -2.44686 -1.11149, -2.52958 -1.19356, -2.6777 -1.19388, -2.83287 -1.19356, -2.9624 -1.06853, -3.06627 -0.819096, -3.17015 -0.569344, -3.27114 -0.244571, -3.36989 0.155224, -3.40868 0.247879, -3.47376 0.295649, -3.56545 0.298855 L -3.68696 0.298855 C -3.7716 0.299176, -3.81392 0.256536, -3.81392 0.170613 L -3.81392 0.134705 C -3.7716 -0.0255973, -3.72383 -0.200969, -3.67093 -0.390767, -3.61803 -0.580565, -3.5475 -0.760104, -3.45965 -0.929384, -3.37149 -1.09866, -3.26056 -1.2423, -3.12687 -1.36028, -2.99285 -1.47826, -2.82582 -1.53725, -2.62512 -1.53757, -2.33593 -1.53725, -2.10862 -1.45005, -1.94319 -1.27564, -1.77776 -1.10123, -1.69152 -0.931949, -1.68446 -0.76812, -1.53634 -0.962727, -1.33051 -1.1397, -1.06633 -1.29872, -0.802156 -1.45774, -0.495657 -1.53725, -0.147159 -1.53757, 0.0679669 -1.53725, 0.26546 -1.49878, 0.444999 -1.42183, 0.624538 -1.34489, 0.763681 -1.22081, 0.862107 -1.05025, 0.946747 -0.902774, 0.992593 -0.779661, 0.999647 -0.680915, 1.15482 -0.899568, 1.36963 -1.09674, 1.64438 -1.27307, 1.91914 -1.44909, 2.24135 -1.53725, 2.61101 -1.53757, 2.81876 -1.53725, 3.01273 -1.49878, 3.19227 -1.42183, 3.37181 -1.34489, 3.51287 -1.22081, 3.61483 -1.05025, 3.72062 -0.875522, 3.77192 -0.678991, 3.76807 -0.460338 L 3.76807 -0.43469 C 3.76102 -0.215396, 3.7296 0.00518084, 3.67318 0.22704, 3.59206 0.538668, 3.49877 0.844846, 3.39297 1.14557, 3.28749 1.44662, 3.17656 1.75088, 3.06018 2.05834, 2.95438 2.33566, 2.90148 2.5681, 2.90148 2.75598, 2.90148 2.91019, 2.96848 2.98713, 3.1025 2.98681, 3.2224 2.98713, 3.33045 2.95122, 3.42727 2.87941, 3.52409 2.80759, 3.61226 2.71109, 3.69145 2.58958, 3.77096 2.46839, 3.84213 2.32476, 3.90561 2.15869, 3.96909 1.99293, 4.0252 1.81756, 4.07457 1.63257, 4.09573 1.54409, 4.15761 1.49952, 4.25956 1.4992 L 4.37562 1.4992 C 4.41474 1.49952, 4.45513 1.51139, 4.49713 1.53511, 4.51124 1.56621, 4.51829 1.59186, 4.51829 1.61206, 4.51829 1.62616, 4.51316 1.64155, 4.50258 1.65822 Z" stroke="none" fill="#000000" transform="matrix(1.12 0 0 1 15.8744 16.3063)" />
			<polyline points="-3.67696 0 3.67696 0" fill="none" stroke="#000000" stroke-width="0.420223981" stroke-linecap="round" stroke-linejoin="round" transform="matrix(1 0 0 1 27.7045 16.3063)" />
			<polyline points="0 -3.67696 0 3.67696" fill="none" stroke="#000000" stroke-width="0.420223981" stroke-linecap="round" stroke-linejoin="round" transform="matrix(1 0 0 1 27.7045 16.3063)" />
			<path d="M 2.37714 3.19713 C 1.7292 3.17661, 1.09857 3.16635, 0.485571 3.16635, -0.127106 3.16635, -0.757737 3.17661, -1.406 3.19713 L -1.406 2.75598, -1.04115 2.75598 C -0.925093 2.7563, -0.815766 2.75469, -0.713814 2.75117, -0.611541 2.74796, -0.514718 2.7393, -0.423025 2.72552, -0.331331 2.71205, -0.252142 2.69827, -0.185456 2.68416, -0.12903 2.67422, -0.082221 2.6428, -0.0453515 2.58958, -0.00816131 2.53668, 0.0101132 2.47769, 0.0101132 2.41229 L 0.0101132 -3.36887 C -0.165899 -3.28295, -0.382628 -3.21787, -0.639754 -3.17362, -0.89688 -3.12906, -1.17869 -3.10694, -1.48519 -3.10726 L -1.48519 -3.54328 C -1.06231 -3.54296, -0.672135 -3.59329, -0.31466 -3.69429, 0.042815 -3.79496, 0.351879 -3.98411, 0.612531 -4.26144 L 0.77636 -4.26144 C 0.89242 -4.26112, 0.950449 -4.20469, 0.950449 -4.09216 L 0.950449 2.41229 C 0.950449 2.4809, 0.968082 2.54085, 1.00335 2.59215, 1.03862 2.64344, 1.08991 2.67422, 1.1566 2.68416, 1.21302 2.69827, 1.28548 2.71205, 1.37333 2.72552, 1.46149 2.7393, 1.56088 2.74796, 1.67181 2.75117, 1.78274 2.75469, 1.89111 2.7563, 1.99658 2.75598 L 2.37714 2.75598, 2.37714 3.19713 Z" stroke="none" fill="#000000" transform="matrix(1.12 0 0 1 36.3283 16.3063)" />
			<rect />
		</svg>
	</g>
	<g transform="matrix(1 0 -0 1 430.465 110.138)">
		<svg width="134.987915" height="99.0428467">
			<defs />
			<path d="M 10.9882 6.6565 C 10.8817 7.08474, 10.6928 7.49408, 10.4225 7.88453, 10.1523 8.27556, 9.82484 8.61735, 9.44126 8.9099, 9.2718 9.05074, 9.15214 9.13948, 9.0823 9.17554, 9.30271 9.31066, 9.52599 9.53336, 9.75271 9.84424, 10.0355 10.2599, 10.2147 10.727, 10.2903 11.2457, 10.3029 11.4175, 10.3092 11.5881, 10.3092 11.7587, 10.3092 12.1137, 10.2651 12.4766, 10.1769 12.8488, 10.0264 13.411, 9.78591 13.9474, 9.45557 14.4569, 9.12524 14.9671, 8.70845 15.4233, 8.20521 15.8258, 7.74606 16.2174, 7.23996 16.5254, 6.68634 16.751, 6.13273 16.9771, 5.57625 17.0899, 5.01633 17.0899, 4.19249 17.0899, 3.51292 16.881, 2.9782 16.463, 2.44348 16.0451, 2.11371 15.6065, 1.98776 15.148 L 0.676138 20.2502 C 0.607437 20.403, 0.496942 20.4792, 0.3458 20.4792 L 0.251336 20.4792 C 0.170039 20.4792, 0.109926 20.4551, 0.0721399 20.4059, 0.0217591 20.3818, -0.00343132 20.3389, -0.00343132 20.2777, -0.00343132 20.2536, 0.00630134 20.2261, 0.0251942 20.1952 L 2.9782 8.64425 C 3.15453 7.9853, 3.41674 7.34294, 3.76597 6.71661, 4.1152 6.09086, 4.53085 5.53381, 5.01175 5.04489, 5.49266 4.55653, 6.03082 4.16265, 6.62509 3.86323, 7.21935 3.56438, 7.84396 3.41438, 8.49777 3.41381, 8.93803 3.41438, 9.33764 3.49854, 9.69603 3.66628, 10.0544 3.8346, 10.3567 4.06761, 10.6017 4.36646, 10.8285 4.66646, 10.9762 5.01741, 11.0449 5.41988, 11.0701 5.57904, 11.0826 5.73476, 11.0826 5.88705, 11.0826 6.1441, 11.0512 6.40059, 10.9882 6.6565 Z M 7.42202 9.20302 C 7.4661 9.18528, 7.43175 9.18871, 7.3184 9.21276, 7.20504 9.23738, 7.09512 9.2494, 6.98806 9.24883, 6.56039 9.2494, 6.29647 9.23738, 6.1957 9.21276, 6.09494 9.18871, 6.04456 9.19444, 6.04456 9.2305, 6.03826 9.2494, 6.09952 9.24654, 6.22834 9.22192, 6.35772 9.19787, 6.63253 9.18528, 7.0539 9.1847, 7.27431 9.18528, 7.39683 9.19157, 7.42202 9.20302 Z M 9.55405 4.72371 C 9.3279 4.25998, 8.93803 4.02811, 8.38441 4.02754, 7.84396 4.02811, 7.32183 4.15635, 6.81859 4.41284, 6.31536 4.66932, 5.85449 5.01454, 5.43598 5.44793, 5.01805 5.8819, 4.65165 6.37941, 4.33676 6.94104, 4.02246 7.50324, 3.79288 8.0832, 3.64804 8.6809 L 2.58202 12.8488 C 2.50645 13.1671, 2.46867 13.4785, 2.46867 13.7831, 2.46867 13.9423, 2.48126 14.1043, 2.50645 14.2686, 2.56943 14.7026, 2.71255 15.0816, 2.93583 15.405, 3.15911 15.7291, 3.45968 15.9884, 3.83696 16.1836, 4.21425 16.3794, 4.64821 16.4768, 5.13885 16.4762, 5.49152 16.4768, 5.84361 16.3823, 6.1957 16.1928, 6.5478 16.0039, 6.8684 15.756, 7.15809 15.4503, 7.50389 15.0781, 7.76953 14.6665, 7.95503 14.2142, 8.14052 13.7625, 8.29796 13.2936, 8.42677 12.8081, 8.55616 12.3226, 8.64547 11.8509, 8.69585 11.3923 L 8.69585 11.1083 C 8.69585 10.7854, 8.63918 10.4769, 8.52582 10.1832, 8.47544 10.0675, 8.41761 9.96103, 8.3512 9.86313, 8.28536 9.7658, 8.22067 9.68279, 8.15769 9.61523, 7.76152 9.76866, 7.34015 9.84481, 6.89359 9.84424 L 6.48768 9.84424 C 6.31192 9.84481, 6.13616 9.83107, 5.95983 9.80359, 5.7835 9.77611, 5.63922 9.71657, 5.52587 9.62439, 5.41251 9.56371, 5.35583 9.46294, 5.35583 9.32211, 5.35583 9.27402, 5.36213 9.22822, 5.37472 9.1847, 5.41881 9.00837, 5.52415 8.87841, 5.69075 8.79597, 5.85792 8.71353, 6.03712 8.65571, 6.22891 8.62193, 6.4207 8.58872, 6.60448 8.57155, 6.78024 8.57097 L 7.16725 8.57097 C 7.57603 8.57155, 7.95045 8.63853, 8.28994 8.7725, 8.32201 8.74845, 8.35979 8.71353, 8.4033 8.66773, 8.44738 8.62193, 8.50063 8.56868, 8.5636 8.50685, 8.81551 8.25094, 9.0136 7.9624, 9.15787 7.64179, 9.30271 7.32119, 9.41893 6.98054, 9.5071 6.61986, 9.60786 6.26032, 9.67084 5.9151, 9.69603 5.58476 L 9.69603 5.4382 C 9.69603 5.17599, 9.64908 4.93783, 9.55405 4.72371 Z" stroke="none" fill="#000000" />
			<path d="M 4.50258 1.65822 C 4.46026 1.83969, 4.3971 2.02884, 4.31246 2.22537, 4.22782 2.42223, 4.12651 2.6008, 4.00853 2.76143, 3.89055 2.92237, 3.75237 3.05638, 3.59399 3.16379, 3.43561 3.27151, 3.25222 3.32537, 3.04415 3.32537, 2.86814 3.32537, 2.71681 3.28786, 2.58985 3.21252, 2.46321 3.1375, 2.36735 3.03843, 2.30195 2.91532, 2.23686 2.7922, 2.20063 2.64857, 2.19358 2.4841 L 2.19358 2.44306 C 2.19358 2.29623, 2.22372 2.14747, 2.28335 1.99678, 2.39973 1.69605, 2.50713 1.39693, 2.60588 1.09941, 2.70463 0.801885, 2.7944 0.50276, 2.87519 0.201391, 2.93161 0.00325727, 2.97041 -0.189747, 2.99157 -0.378263, 2.99862 -0.425713, 3.00215 -0.47701, 3.00215 -0.532154, 3.00215 -0.651419, 2.98452 -0.764272, 2.94925 -0.870713, 2.88577 -1.08584, 2.75208 -1.19356, 2.54753 -1.19388, 2.18845 -1.19356, 1.87843 -1.06949, 1.61777 -0.821661, 1.35712 -0.573512, 1.12981 -0.244571, 0.936167 0.165483, 0.827161 0.631003, 0.710781 1.09524, 0.587348 1.55851, 0.464235 2.02211, 0.342726 2.48442, 0.222819 2.94577, 0.1914 3.07273, 0.126317 3.16731, 0.0275707 3.23047, -0.0711756 3.29395, -0.167999 3.32537, -0.263218 3.32537, -0.365171 3.32537, -0.449811 3.29139, -0.516817 3.22278, -0.562343 3.17853, -0.58703 3.11698, -0.590877 3.03811, -0.590877 3.00092, -0.58735 2.96309, -0.580297 2.92526 L 0.1276 0.201391 C 0.184026 0.00325727, 0.222819 -0.189747, 0.243979 -0.378263 L 0.243979 -0.532154 C 0.243979 -0.654946, 0.229873 -0.767799, 0.20166 -0.870713, 0.1385 -1.08584, 0.00480795 -1.19356, -0.199739 -1.19388, -0.558816 -1.19356, -0.868842 -1.06949, -1.12949 -0.821661, -1.39015 -0.573512, -1.61906 -0.244571, -1.81655 0.165483 L -2.54048 2.94577 C -2.5719 3.07273, -2.63634 3.16731, -2.73316 3.23047, -2.82999 3.29395, -2.92777 3.32537, -3.02652 3.32537, -3.132 3.32537, -3.21311 3.29139, -3.26954 3.22278, -3.31506 3.17853, -3.33815 3.11698, -3.33815 3.03811, -3.33815 3.00765, -3.33462 2.97014, -3.32757 2.92526 L -2.51419 -0.250021 C -2.45776 -0.47188, -2.42955 -0.663602, -2.42955 -0.824546 L -2.42955 -0.947659 C -2.44686 -1.11149, -2.52958 -1.19356, -2.6777 -1.19388, -2.83287 -1.19356, -2.9624 -1.06853, -3.06627 -0.819096, -3.17015 -0.569344, -3.27114 -0.244571, -3.36989 0.155224, -3.40868 0.247879, -3.47376 0.295649, -3.56545 0.298855 L -3.68696 0.298855 C -3.7716 0.299176, -3.81392 0.256536, -3.81392 0.170613 L -3.81392 0.134705 C -3.7716 -0.0255973, -3.72383 -0.200969, -3.67093 -0.390767, -3.61803 -0.580565, -3.5475 -0.760104, -3.45965 -0.929384, -3.37149 -1.09866, -3.26056 -1.2423, -3.12687 -1.36028, -2.99285 -1.47826, -2.82582 -1.53725, -2.62512 -1.53757, -2.33593 -1.53725, -2.10862 -1.45005, -1.94319 -1.27564, -1.77776 -1.10123, -1.69152 -0.931949, -1.68446 -0.76812, -1.53634 -0.962727, -1.33051 -1.1397, -1.06633 -1.29872, -0.802156 -1.45774, -0.495657 -1.53725, -0.147159 -1.53757, 0.0679669 -1.53725, 0.26546 -1.49878, 0.444999 -1.42183, 0.624538 -1.34489, 0.763681 -1.22081, 0.862107 -1.05025, 0.946747 -0.902774, 0.992593 -0.779661, 0.999647 -0.680915, 1.15482 -0.899568, 1.36963 -1.09674, 1.64438 -1.27307, 1.91914 -1.44909, 2.24135 -1.53725, 2.61101 -1.53757, 2.81876 -1.53725, 3.01273 -1.49878, 3.19227 -1.42183, 3.37181 -1.34489, 3.51287 -1.22081, 3.61483 -1.05025, 3.72062 -0.875522, 3.77192 -0.678991, 3.76807 -0.460338 L 3.76807 -0.43469 C 3.76102 -0.215396, 3.7296 0.00518084, 3.67318 0.22704, 3.59206 0.538668, 3.49877 0.844846, 3.39297 1.14557, 3.28749 1.44662, 3.17656 1.75088, 3.06018 2.05834, 2.95438 2.33566, 2.90148 2.5681, 2.90148 2.75598, 2.90148 2.91019, 2.96848 2.98713, 3.1025 2.98681, 3.2224 2.98713, 3.33045 2.95122, 3.42727 2.87941, 3.52409 2.80759, 3.61226 2.71109, 3.69145 2.58958, 3.77096 2.46839, 3.84213 2.32476, 3.90561 2.15869, 3.96909 1.99293, 4.0252 1.81756, 4.07457 1.63257, 4.09573 1.54409, 4.15761 1.49952, 4.25956 1.4992 L 4.37562 1.4992 C 4.41474 1.49952, 4.45513 1.51139, 4.49713 1.53511, 4.51124 1.56621, 4.51829 1.59186, 4.51829 1.61206, 4.51829 1.62616, 4.51316 1.64155, 4.50258 1.65822 Z" stroke="none" fill="#000000" transform="matrix(1.12 0 0 1 15.8744 16.3063)" />
			<polyline points="-3.67696 0 3.67696 0" fill="none" stroke="#000000" stroke-width="0.420223981" stroke-linecap="round" stroke-linejoin="round" transform="matrix(1 0 0 1 27.7045 16.3063)" />
			<polyline points="0 -3.67696 0 3.67696" fill="none" stroke="#000000" stroke-width="0.420223981" stroke-linecap="round" stroke-linejoin="round" transform="matrix(1 0 0 1 27.7045 16.3063)" />
			<path d="M 2.39126 3.19713 L -1.90934 3.19713, -1.90934 2.915 C -1.90934 2.8948, -1.89876 2.86402, -1.8776 2.82266 L -0.149855 0.945196 C 0.0543709 0.71981, 0.261161 0.488975, 0.470837 0.253009, 0.680513 0.0170434, 0.868388 -0.224052, 1.03382 -0.470277, 1.19925 -0.716502, 1.33134 -0.970422, 1.43009 -1.23204, 1.52884 -1.49365, 1.57789 -1.76809, 1.57789 -2.05567, 1.57789 -2.29805, 1.54615 -2.52472, 1.48267 -2.73503, 1.41919 -2.94535, 1.32782 -3.13002, 1.20791 -3.28904, 1.08832 -3.44806, 0.938601 -3.5763, 0.759062 -3.67377, 0.579523 -3.77123, 0.371449 -3.81996, 0.135484 -3.82028, -0.216541 -3.81996, -0.527528 -3.7148, -0.797157 -3.50449, -1.06647 -3.29417, -1.24536 -3.06237, -1.33353 -2.80974, -1.35084 -2.80268, -1.32263 -2.79915, -1.24889 -2.79948 L -1.15912 -2.79948 C -1.05332 -2.77511, -0.961949 -2.73824, -0.884362 -2.68887, -0.806775 -2.63917, -0.741693 -2.57088, -0.688793 -2.48368, -0.635893 -2.39647, -0.609603 -2.29132, -0.609603 -2.16852, -0.609603 -1.96302, -0.676289 -1.8056, -0.810302 -1.69627, -0.944315 -1.58663, -1.09404 -1.53212, -1.25947 -1.53244, -1.41785 -1.53212, -1.56597 -1.58663, -1.70319 -1.69627, -1.84041 -1.8056, -1.90934 -1.96302, -1.90934 -2.16852, -1.90934 -2.45547, -1.85291 -2.72734, -1.74006 -2.98382, -1.6272 -3.24031, -1.47428 -3.46249, -1.28063 -3.65068, -1.08698 -3.83856, -0.858072 -3.98732, -0.593893 -4.09697, -0.329715 -4.20629, -0.0495055 -4.26112, 0.246413 -4.26144, 0.612865 -4.26112, 0.948539 -4.20725, 1.25311 -4.09953, 1.55769 -3.99181, 1.81738 -3.83695, 2.03219 -3.63529, 2.24699 -3.43331, 2.41531 -3.19991, 2.53682 -2.93509, 2.65833 -2.66995, 2.71892 -2.37692, 2.71892 -2.05567, 2.71892 -1.6998, 2.63813 -1.37214, 2.4759 -1.07302, 2.314 -0.77357, 2.1133 -0.499131, 1.87381 -0.2497, 1.63431 5.126e-005, 1.37975 0.235055, 1.11012 0.455632, 0.840816 0.676208, 0.596835 0.890693, 0.378503 1.09909 L -0.836912 2.24301, 0.753611 2.24301 C 0.97547 2.24333, 1.18258 2.24172, 1.3743 2.2382, 1.56635 2.23499, 1.72921 2.22794, 1.86323 2.21768, 1.99724 2.20742, 2.06585 2.20069, 2.06906 2.19684, 2.09727 2.17312, 2.12388 2.12534, 2.14857 2.05353, 2.17325 1.98171, 2.19602 1.89707, 2.21718 1.79961, 2.23833 1.70215, 2.2595 1.60308, 2.28066 1.50209, 2.30181 1.40142, 2.32105 1.29081, 2.33868 1.1709 L 2.7295 1.1709 Z" stroke="none" fill="#000000" transform="matrix(1.12 0 0 1 36.7509 16.3063)" />
			<rect />
		</svg>
	</g>
	<path d="M 0 -11.4796 L 11.9724 11.4796, -11.9724 11.4796 Z" stroke="none" fill="#FFFFFF" transform="matrix(0.416667 0 -0 0.416667 560.531 112.874)" />
	<path d="M 0 -11.4796 L 11.9724 11.4796, -11.9724 11.4796 Z" fill="none" stroke="#000000" stroke-width="2.88000011" stroke-linecap="round" stroke-linejoin="round" transform="matrix(0.416667 0 -0 0.416667 560.531 112.874)" />
	<g transform="matrix(1 0 -0 1 115.416 78.2333)">
		<svg width="53.9427032" height="54.0428391">
			<defs />
			<path d="M 9.8841 7.99388 C 9.84631 8.16564, 9.75242 8.25094, 9.60128 8.25037, 9.58868 8.26296, 9.55719 8.26926, 9.50681 8.26869, 9.47532 8.26926, 9.45013 8.26296, 9.43124 8.25037 L 9.34651 8.25037 C 9.18277 8.25094, 9.1009 8.18968, 9.1009 8.06717 L 9.1009 8.00304 C 9.17647 7.55191, 9.21426 7.1334, 9.21426 6.7481 L 9.21426 6.40002 C 9.17647 5.93056, 9.07113 5.52579, 8.89823 5.18687, 8.72534 4.84794, 8.47229 4.58573, 8.13908 4.39909, 7.80588 4.21303, 7.38394 4.11971, 6.87441 4.11914, 6.579 4.11971, 6.27843 4.18383, 5.97328 4.31207, 5.66871 4.44032, 5.38417 4.61436, 5.11967 4.83363, 4.83055 5.07237, 4.59468 5.34259, 4.41205 5.64488, 4.22999 5.94716, 4.09774 6.25689, 4.0153 6.57406, 3.95289 6.80077, 3.91854 7.01718, 3.91167 7.22443, 3.91167 7.51183, 3.97465 7.78664, 4.1006 8.04884, 4.28323 8.4891, 4.61014 8.77021, 5.08188 8.89158 L 7.2517 9.49615 C 7.64787 9.61294, 7.98623 9.79786, 8.26618 10.0509, 8.54614 10.3045, 8.75682 10.604, 8.89823 10.9486, 9.04022 11.2938, 9.12323 11.6705, 9.14842 12.0793 L 9.14842 12.2442 C 9.14842 12.5992, 9.09804 12.9621, 8.99728 13.3343, 8.8656 13.8478, 8.65492 14.3424, 8.36523 14.8188, 8.07611 15.2951, 7.71772 15.7228, 7.28948 16.1006, 6.88071 16.4493, 6.43301 16.7287, 5.94523 16.9388, 5.45745 17.1495, 4.96853 17.2548, 4.47789 17.2548, 3.75481 17.2548, 3.13821 17.1392, 2.62868 16.9067, 2.11915 16.6754, 1.74186 16.3823, 1.49625 16.0273 L 0.562492 17.1357 C 0.481195 17.2153, 0.395891 17.2548, 0.307725 17.2548 L 0.251046 17.2548 C 0.0941787 17.2548, 0.00887477 17.1941, -0.0037204 17.0716, -0.0037204 17.035, 0.00601226 17.0018, 0.0243326 16.9708 L 1.11897 12.6839 C 1.15676 12.5133, 1.26725 12.4251, 1.44931 12.4182 L 1.65656 12.4182 C 1.73213 12.4188, 1.8014 12.4492, 1.86438 12.5098, 1.88957 12.5591, 1.90216 12.602, 1.90216 12.6381, 1.90216 12.6633, 1.89587 12.6936, 1.88327 12.7297, 1.76991 13.1699, 1.71324 13.5793, 1.71324 13.9571, 1.71324 14.5623, 1.86152 15.0753, 2.15693 15.4961, 2.62868 16.1745, 3.45309 16.5134, 4.62903 16.5128, 4.92444 16.5134, 5.22501 16.4447, 5.53016 16.3073, 5.83531 16.1699, 6.11984 15.985, 6.38377 15.7525, 6.67346 15.4846, 6.91678 15.1869, 7.11487 14.86, 7.31295 14.5337, 7.45952 14.1959, 7.55341 13.8472, 7.61638 13.5667, 7.64787 13.3045, 7.64787 13.0595, 7.64787 12.7549, 7.60722 12.4618, 7.52535 12.1801, 7.337 11.7106, 6.98777 11.4083, 6.47823 11.2732 L 4.33648 10.6686 C 3.95289 10.5656, 3.62256 10.3961, 3.34546 10.1608, 3.06894 9.9261, 2.85368 9.64672, 2.69967 9.32268, 2.54567 8.99921, 2.45578 8.64196, 2.43059 8.25037 L 2.43059 8.04884 C 2.43059 7.74427, 2.46838 7.42366, 2.54395 7.08703, 2.6762 6.59925, 2.88688 6.13208, 3.176 5.6861, 3.46569 5.24068, 3.82408 4.84622, 4.25117 4.50386, 4.65422 4.17467, 5.0962 3.91074, 5.5771 3.71208, 6.05859 3.514, 6.53491 3.41438, 7.00666 3.41381, 7.65474 3.41438, 8.18889 3.53518, 8.61026 3.7762, 9.03163 4.0178, 9.33678 4.30291, 9.5257 4.63211 L 10.4314 3.54205 C 10.4818 3.45732, 10.5637 3.41438, 10.6764 3.41381 L 10.7618 3.41381 C 10.9129 3.41438, 10.9879 3.48766, 10.9879 3.63365 L 10.9879 3.70693 Z" stroke="none" fill="#000000" />
			<path d="M 2.37714 3.19713 C 1.7292 3.17661, 1.09857 3.16635, 0.485571 3.16635, -0.127106 3.16635, -0.757737 3.17661, -1.406 3.19713 L -1.406 2.75598, -1.04115 2.75598 C -0.925093 2.7563, -0.815766 2.75469, -0.713814 2.75117, -0.611541 2.74796, -0.514718 2.7393, -0.423025 2.72552, -0.331331 2.71205, -0.252142 2.69827, -0.185456 2.68416, -0.12903 2.67422, -0.082221 2.6428, -0.0453515 2.58958, -0.00816131 2.53668, 0.0101132 2.47769, 0.0101132 2.41229 L 0.0101132 -3.36887 C -0.165899 -3.28295, -0.382628 -3.21787, -0.639754 -3.17362, -0.89688 -3.12906, -1.17869 -3.10694, -1.48519 -3.10726 L -1.48519 -3.54328 C -1.06231 -3.54296, -0.672135 -3.59329, -0.31466 -3.69429, 0.042815 -3.79496, 0.351879 -3.98411, 0.612531 -4.26144 L 0.77636 -4.26144 C 0.89242 -4.26112, 0.950449 -4.20469, 0.950449 -4.09216 L 0.950449 2.41229 C 0.950449 2.4809, 0.968082 2.54085, 1.00335 2.59215, 1.03862 2.64344, 1.08991 2.67422, 1.1566 2.68416, 1.21302 2.69827, 1.28548 2.71205, 1.37333 2.72552, 1.46149 2.7393, 1.56088 2.74796, 1.67181 2.75117, 1.78274 2.75469, 1.89111 2.7563, 1.99658 2.75598 L 2.37714 2.75598, 2.37714 3.19713 Z" stroke="none" fill="#000000" transform="matrix(1.12 0 0 1 13.4546 16.3063)" />
			<rect />
		</svg>
	</g>
	<g transform="matrix(1 0 -0 1 212.909 75.1603)">
		<svg width="53.9427032" height="54.0428391">
			<defs />
			<path d="M 9.8841 7.99388 C 9.84631 8.16564, 9.75242 8.25094, 9.60128 8.25037, 9.58868 8.26296, 9.55719 8.26926, 9.50681 8.26869, 9.47532 8.26926, 9.45013 8.26296, 9.43124 8.25037 L 9.34651 8.25037 C 9.18277 8.25094, 9.1009 8.18968, 9.1009 8.06717 L 9.1009 8.00304 C 9.17647 7.55191, 9.21426 7.1334, 9.21426 6.7481 L 9.21426 6.40002 C 9.17647 5.93056, 9.07113 5.52579, 8.89823 5.18687, 8.72534 4.84794, 8.47229 4.58573, 8.13908 4.39909, 7.80588 4.21303, 7.38394 4.11971, 6.87441 4.11914, 6.579 4.11971, 6.27843 4.18383, 5.97328 4.31207, 5.66871 4.44032, 5.38417 4.61436, 5.11967 4.83363, 4.83055 5.07237, 4.59468 5.34259, 4.41205 5.64488, 4.22999 5.94716, 4.09774 6.25689, 4.0153 6.57406, 3.95289 6.80077, 3.91854 7.01718, 3.91167 7.22443, 3.91167 7.51183, 3.97465 7.78664, 4.1006 8.04884, 4.28323 8.4891, 4.61014 8.77021, 5.08188 8.89158 L 7.2517 9.49615 C 7.64787 9.61294, 7.98623 9.79786, 8.26618 10.0509, 8.54614 10.3045, 8.75682 10.604, 8.89823 10.9486, 9.04022 11.2938, 9.12323 11.6705, 9.14842 12.0793 L 9.14842 12.2442 C 9.14842 12.5992, 9.09804 12.9621, 8.99728 13.3343, 8.8656 13.8478, 8.65492 14.3424, 8.36523 14.8188, 8.07611 15.2951, 7.71772 15.7228, 7.28948 16.1006, 6.88071 16.4493, 6.43301 16.7287, 5.94523 16.9388, 5.45745 17.1495, 4.96853 17.2548, 4.47789 17.2548, 3.75481 17.2548, 3.13821 17.1392, 2.62868 16.9067, 2.11915 16.6754, 1.74186 16.3823, 1.49625 16.0273 L 0.562492 17.1357 C 0.481195 17.2153, 0.395891 17.2548, 0.307725 17.2548 L 0.251046 17.2548 C 0.0941787 17.2548, 0.00887477 17.1941, -0.0037204 17.0716, -0.0037204 17.035, 0.00601226 17.0018, 0.0243326 16.9708 L 1.11897 12.6839 C 1.15676 12.5133, 1.26725 12.4251, 1.44931 12.4182 L 1.65656 12.4182 C 1.73213 12.4188, 1.8014 12.4492, 1.86438 12.5098, 1.88957 12.5591, 1.90216 12.602, 1.90216 12.6381, 1.90216 12.6633, 1.89587 12.6936, 1.88327 12.7297, 1.76991 13.1699, 1.71324 13.5793, 1.71324 13.9571, 1.71324 14.5623, 1.86152 15.0753, 2.15693 15.4961, 2.62868 16.1745, 3.45309 16.5134, 4.62903 16.5128, 4.92444 16.5134, 5.22501 16.4447, 5.53016 16.3073, 5.83531 16.1699, 6.11984 15.985, 6.38377 15.7525, 6.67346 15.4846, 6.91678 15.1869, 7.11487 14.86, 7.31295 14.5337, 7.45952 14.1959, 7.55341 13.8472, 7.61638 13.5667, 7.64787 13.3045, 7.64787 13.0595, 7.64787 12.7549, 7.60722 12.4618, 7.52535 12.1801, 7.337 11.7106, 6.98777 11.4083, 6.47823 11.2732 L 4.33648 10.6686 C 3.95289 10.5656, 3.62256 10.3961, 3.34546 10.1608, 3.06894 9.9261, 2.85368 9.64672, 2.69967 9.32268, 2.54567 8.99921, 2.45578 8.64196, 2.43059 8.25037 L 2.43059 8.04884 C 2.43059 7.74427, 2.46838 7.42366, 2.54395 7.08703, 2.6762 6.59925, 2.88688 6.13208, 3.176 5.6861, 3.46569 5.24068, 3.82408 4.84622, 4.25117 4.50386, 4.65422 4.17467, 5.0962 3.91074, 5.5771 3.71208, 6.05859 3.514, 6.53491 3.41438, 7.00666 3.41381, 7.65474 3.41438, 8.18889 3.53518, 8.61026 3.7762, 9.03163 4.0178, 9.33678 4.30291, 9.5257 4.63211 L 10.4314 3.54205 C 10.4818 3.45732, 10.5637 3.41438, 10.6764 3.41381 L 10.7618 3.41381 C 10.9129 3.41438, 10.9879 3.48766, 10.9879 3.63365 L 10.9879 3.70693 Z" stroke="none" fill="#000000" />
			<path d="M 2.39126 3.19713 L -1.90934 3.19713, -1.90934 2.915 C -1.90934 2.8948, -1.89876 2.86402, -1.8776 2.82266 L -0.149855 0.945196 C 0.0543709 0.71981, 0.261161 0.488975, 0.470837 0.253009, 0.680513 0.0170434, 0.868388 -0.224052, 1.03382 -0.470277, 1.19925 -0.716502, 1.33134 -0.970422, 1.43009 -1.23204, 1.52884 -1.49365, 1.57789 -1.76809, 1.57789 -2.05567, 1.57789 -2.29805, 1.54615 -2.52472, 1.48267 -2.73503, 1.41919 -2.94535, 1.32782 -3.13002, 1.20791 -3.28904, 1.08832 -3.44806, 0.938601 -3.5763, 0.759062 -3.67377, 0.579523 -3.77123, 0.371449 -3.81996, 0.135484 -3.82028, -0.216541 -3.81996, -0.527528 -3.7148, -0.797157 -3.50449, -1.06647 -3.29417, -1.24536 -3.06237, -1.33353 -2.80974, -1.35084 -2.80268, -1.32263 -2.79915, -1.24889 -2.79948 L -1.15912 -2.79948 C -1.05332 -2.77511, -0.961949 -2.73824, -0.884362 -2.68887, -0.806775 -2.63917, -0.741693 -2.57088, -0.688793 -2.48368, -0.635893 -2.39647, -0.609603 -2.29132, -0.609603 -2.16852, -0.609603 -1.96302, -0.676289 -1.8056, -0.810302 -1.69627, -0.944315 -1.58663, -1.09404 -1.53212, -1.25947 -1.53244, -1.41785 -1.53212, -1.56597 -1.58663, -1.70319 -1.69627, -1.84041 -1.8056, -1.90934 -1.96302, -1.90934 -2.16852, -1.90934 -2.45547, -1.85291 -2.72734, -1.74006 -2.98382, -1.6272 -3.24031, -1.47428 -3.46249, -1.28063 -3.65068, -1.08698 -3.83856, -0.858072 -3.98732, -0.593893 -4.09697, -0.329715 -4.20629, -0.0495055 -4.26112, 0.246413 -4.26144, 0.612865 -4.26112, 0.948539 -4.20725, 1.25311 -4.09953, 1.55769 -3.99181, 1.81738 -3.83695, 2.03219 -3.63529, 2.24699 -3.43331, 2.41531 -3.19991, 2.53682 -2.93509, 2.65833 -2.66995, 2.71892 -2.37692, 2.71892 -2.05567, 2.71892 -1.6998, 2.63813 -1.37214, 2.4759 -1.07302, 2.314 -0.77357, 2.1133 -0.499131, 1.87381 -0.2497, 1.63431 5.126e-005, 1.37975 0.235055, 1.11012 0.455632, 0.840816 0.676208, 0.596835 0.890693, 0.378503 1.09909 L -0.836912 2.24301, 0.753611 2.24301 C 0.97547 2.24333, 1.18258 2.24172, 1.3743 2.2382, 1.56635 2.23499, 1.72921 2.22794, 1.86323 2.21768, 1.99724 2.20742, 2.06585 2.20069, 2.06906 2.19684, 2.09727 2.17312, 2.12388 2.12534, 2.14857 2.05353, 2.17325 1.98171, 2.19602 1.89707, 2.21718 1.79961, 2.23833 1.70215, 2.2595 1.60308, 2.28066 1.50209, 2.30181 1.40142, 2.32105 1.29081, 2.33868 1.1709 L 2.7295 1.1709 Z" stroke="none" fill="#000000" transform="matrix(1.12 0 0 1 13.8772 16.3063)" />
			<rect />
		</svg>
	</g>
	<g transform="matrix(1 0 -0 1 294.337 72.4961)">
		<svg width="57.0301361" height="54.0428391">
			<defs />
			<path d="M 9.8841 7.99388 C 9.84631 8.16564, 9.75242 8.25094, 9.60128 8.25037, 9.58868 8.26296, 9.55719 8.26926, 9.50681 8.26869, 9.47532 8.26926, 9.45013 8.26296, 9.43124 8.25037 L 9.34651 8.25037 C 9.18277 8.25094, 9.1009 8.18968, 9.1009 8.06717 L 9.1009 8.00304 C 9.17647 7.55191, 9.21426 7.1334, 9.21426 6.7481 L 9.21426 6.40002 C 9.17647 5.93056, 9.07113 5.52579, 8.89823 5.18687, 8.72534 4.84794, 8.47229 4.58573, 8.13908 4.39909, 7.80588 4.21303, 7.38394 4.11971, 6.87441 4.11914, 6.579 4.11971, 6.27843 4.18383, 5.97328 4.31207, 5.66871 4.44032, 5.38417 4.61436, 5.11967 4.83363, 4.83055 5.07237, 4.59468 5.34259, 4.41205 5.64488, 4.22999 5.94716, 4.09774 6.25689, 4.0153 6.57406, 3.95289 6.80077, 3.91854 7.01718, 3.91167 7.22443, 3.91167 7.51183, 3.97465 7.78664, 4.1006 8.04884, 4.28323 8.4891, 4.61014 8.77021, 5.08188 8.89158 L 7.2517 9.49615 C 7.64787 9.61294, 7.98623 9.79786, 8.26618 10.0509, 8.54614 10.3045, 8.75682 10.604, 8.89823 10.9486, 9.04022 11.2938, 9.12323 11.6705, 9.14842 12.0793 L 9.14842 12.2442 C 9.14842 12.5992, 9.09804 12.9621, 8.99728 13.3343, 8.8656 13.8478, 8.65492 14.3424, 8.36523 14.8188, 8.07611 15.2951, 7.71772 15.7228, 7.28948 16.1006, 6.88071 16.4493, 6.43301 16.7287, 5.94523 16.9388, 5.45745 17.1495, 4.96853 17.2548, 4.47789 17.2548, 3.75481 17.2548, 3.13821 17.1392, 2.62868 16.9067, 2.11915 16.6754, 1.74186 16.3823, 1.49625 16.0273 L 0.562492 17.1357 C 0.481195 17.2153, 0.395891 17.2548, 0.307725 17.2548 L 0.251046 17.2548 C 0.0941787 17.2548, 0.00887477 17.1941, -0.0037204 17.0716, -0.0037204 17.035, 0.00601226 17.0018, 0.0243326 16.9708 L 1.11897 12.6839 C 1.15676 12.5133, 1.26725 12.4251, 1.44931 12.4182 L 1.65656 12.4182 C 1.73213 12.4188, 1.8014 12.4492, 1.86438 12.5098, 1.88957 12.5591, 1.90216 12.602, 1.90216 12.6381, 1.90216 12.6633, 1.89587 12.6936, 1.88327 12.7297, 1.76991 13.1699, 1.71324 13.5793, 1.71324 13.9571, 1.71324 14.5623, 1.86152 15.0753, 2.15693 15.4961, 2.62868 16.1745, 3.45309 16.5134, 4.62903 16.5128, 4.92444 16.5134, 5.22501 16.4447, 5.53016 16.3073, 5.83531 16.1699, 6.11984 15.985, 6.38377 15.7525, 6.67346 15.4846, 6.91678 15.1869, 7.11487 14.86, 7.31295 14.5337, 7.45952 14.1959, 7.55341 13.8472, 7.61638 13.5667, 7.64787 13.3045, 7.64787 13.0595, 7.64787 12.7549, 7.60722 12.4618, 7.52535 12.1801, 7.337 11.7106, 6.98777 11.4083, 6.47823 11.2732 L 4.33648 10.6686 C 3.95289 10.5656, 3.62256 10.3961, 3.34546 10.1608, 3.06894 9.9261, 2.85368 9.64672, 2.69967 9.32268, 2.54567 8.99921, 2.45578 8.64196, 2.43059 8.25037 L 2.43059 8.04884 C 2.43059 7.74427, 2.46838 7.42366, 2.54395 7.08703, 2.6762 6.59925, 2.88688 6.13208, 3.176 5.6861, 3.46569 5.24068, 3.82408 4.84622, 4.25117 4.50386, 4.65422 4.17467, 5.0962 3.91074, 5.5771 3.71208, 6.05859 3.514, 6.53491 3.41438, 7.00666 3.41381, 7.65474 3.41438, 8.18889 3.53518, 8.61026 3.7762, 9.03163 4.0178, 9.33678 4.30291, 9.5257 4.63211 L 10.4314 3.54205 C 10.4818 3.45732, 10.5637 3.41438, 10.6764 3.41381 L 10.7618 3.41381 C 10.9129 3.41438, 10.9879 3.48766, 10.9879 3.63365 L 10.9879 3.70693 Z" stroke="none" fill="#000000" />
			<path d="M 2.81866 1.26324 C 2.81866 1.55755, 2.75357 1.84001, 2.62341 2.10996, 2.49324 2.38023, 2.31883 2.61106, 2.10018 2.80214, 1.85363 3.01791, 1.58144 3.17757, 1.28392 3.28177, 0.986397 3.38629, 0.675409 3.43822, 0.351277 3.43822, 0.0588849 3.43822, -0.226133 3.39719, -0.504419 3.31511, -0.782704 3.23304, -1.03342 3.11537, -1.2572 2.96148, -1.48098 2.80759, -1.65956 2.61876, -1.79357 2.39465, -1.92759 2.17087, -1.99459 1.91342, -1.99459 1.62232, -1.99459 1.40366, -1.9215 1.24047, -1.7753 1.13275, -1.6291 1.02503, -1.47489 0.971165, -1.31299 0.970845, -1.14371 0.971165, -0.986289 1.02503, -0.840093 1.13275, -0.693897 1.24047, -0.620799 1.40366, -0.620799 1.62232, -0.620799 1.75248, -0.646127 1.86117, -0.697423 1.94837, -0.7484 2.03558, -0.813483 2.10835, -0.892993 2.16638, -0.972182 2.22473, -1.06291 2.26032, -1.16519 2.27379, -1.21777 2.28789, -1.26714 2.29462, -1.31299 2.2943, -1.35851 2.29462, -1.36557 2.29815, -1.33415 2.30456, -1.22482 2.49629, -1.01001 2.66589, -0.689408 2.81272, -0.368803 2.95988, -0.0219078 3.0333, 0.351277 3.03298, 0.52761 3.0333, 0.692081 2.9897, 0.84533 2.90249, 0.99858 2.81529, 1.1265 2.69827, 1.22845 2.55079, 1.35541 2.35971, 1.44166 2.15452, 1.4875 1.93555, 1.53335 1.71689, 1.55611 1.49279, 1.55611 1.26324, 1.55611 1.02759, 1.53335 0.801244, 1.4875 0.583874, 1.44166 0.366824, 1.35541 0.165804, 1.22845 -0.0191851, 1.12265 -0.169228, 0.994091 -0.290738, 0.842765 -0.383072, 0.691439 -0.475407, 0.52761 -0.521574, 0.351277 -0.521894 L -0.414649 -0.521894 C -0.516602 -0.521574, -0.571425 -0.569344, -0.578479 -0.665526 L -0.578479 -0.721952 C -0.578479 -0.762669, -0.565975 -0.79505, -0.541609 -0.819416, -0.509869 -0.849874, -0.469473 -0.865263, -0.4201 -0.865584, -0.317827 -0.879049, -0.212027 -0.885782, -0.103021 -0.886102, 0.00277901 -0.885782, 0.106655 -0.892514, 0.208608 -0.906621, 0.399047 -0.920087, 0.56448 -0.978757, 0.705546 -1.08327, 0.846612 -1.18747, 0.964595 -1.32084, 1.05949 -1.48339, 1.15439 -1.64562, 1.22653 -1.83285, 1.2759 -2.04509, 1.32528 -2.25701, 1.34996 -2.47438, 1.34996 -2.69688, 1.34996 -2.86071, 1.33233 -3.01621, 1.29706 -3.16336, 1.2618 -3.3102, 1.19671 -3.43876, 1.10149 -3.54841, 0.904321 -3.7738, 0.654249 -3.88505, 0.351277 -3.88184, 0.0274656 -3.88152, -0.269415 -3.8206, -0.538724 -3.69942, -0.808032 -3.57791, -0.988854 -3.4471, -1.08055 -3.30731, -1.10491 -3.30347, -1.09273 -3.30186, -1.04336 -3.30219, -0.916397 -3.30186, -0.796811 -3.26435, -0.684279 -3.18933, -0.514999 -3.08994, -0.43068 -2.92227, -0.43068 -2.68662, -0.43068 -2.48785, -0.494801 -2.33812, -0.623363 -2.23745, -0.751926 -2.13646, -0.895558 -2.08613, -1.05394 -2.08645, -1.20911 -2.08613, -1.35434 -2.1355, -1.48996 -2.23489, -1.62558 -2.33396, -1.69354 -2.48464, -1.69354 -2.68662, -1.69354 -2.93605, -1.63359 -3.15631, -1.51368 -3.34803, -1.39378 -3.53943, -1.23989 -3.70358, -1.05137 -3.84048, -0.862856 -3.97706, -0.645485 -4.08158, -0.39894 -4.15339, -0.152074 -4.22521, 0.0979986 -4.26112, 0.351277 -4.26144, 0.622509 -4.26112, 0.885085 -4.22521, 1.13868 -4.15339, 1.39228 -4.08158, 1.63178 -3.97033, 1.85716 -3.82028, 2.04055 -3.69012, 2.19444 -3.53014, 2.31947 -3.34034, 2.44451 -3.15054, 2.50703 -2.93605, 2.50703 -2.69688, 2.50703 -2.45707, 2.46407 -2.23136, 2.37782 -2.01944, 2.29158 -1.8072, 2.17713 -1.6158, 2.03446 -1.44492, 1.89179 -1.27371, 1.72187 -1.12335, 1.52437 -0.993505, 1.3272 -0.863339, 1.17908 -0.781585, 1.08033 -0.747601, 1.16497 -0.737021, 1.30957 -0.686365, 1.51379 -0.595954, 1.71834 -0.505223, 1.91359 -0.384675, 2.10018 -0.234632, 2.31883 -0.0461159, 2.49324 0.178629, 2.62341 0.440243, 2.75357 0.701857, 2.81866 0.976295, 2.81866 1.26324 Z" stroke="none" fill="#000000" transform="matrix(1.12 0 0 1 13.9618 16.3063)" />
			<rect />
		</svg>
	</g>
	<g transform="matrix(1 0 -0 1 406.662 75.5689)">
		<svg width="134.987915" height="99.0428467">
			<defs />
			<path d="M 9.8841 7.99388 C 9.84631 8.16564, 9.75242 8.25094, 9.60128 8.25037, 9.58868 8.26296, 9.55719 8.26926, 9.50681 8.26869, 9.47532 8.26926, 9.45013 8.26296, 9.43124 8.25037 L 9.34651 8.25037 C 9.18277 8.25094, 9.1009 8.18968, 9.1009 8.06717 L 9.1009 8.00304 C 9.17647 7.55191, 9.21426 7.1334, 9.21426 6.7481 L 9.21426 6.40002 C 9.17647 5.93056, 9.07113 5.52579, 8.89823 5.18687, 8.72534 4.84794, 8.47229 4.58573, 8.13908 4.39909, 7.80588 4.21303, 7.38394 4.11971, 6.87441 4.11914, 6.579 4.11971, 6.27843 4.18383, 5.97328 4.31207, 5.66871 4.44032, 5.38417 4.61436, 5.11967 4.83363, 4.83055 5.07237, 4.59468 5.34259, 4.41205 5.64488, 4.22999 5.94716, 4.09774 6.25689, 4.0153 6.57406, 3.95289 6.80077, 3.91854 7.01718, 3.91167 7.22443, 3.91167 7.51183, 3.97465 7.78664, 4.1006 8.04884, 4.28323 8.4891, 4.61014 8.77021, 5.08188 8.89158 L 7.2517 9.49615 C 7.64787 9.61294, 7.98623 9.79786, 8.26618 10.0509, 8.54614 10.3045, 8.75682 10.604, 8.89823 10.9486, 9.04022 11.2938, 9.12323 11.6705, 9.14842 12.0793 L 9.14842 12.2442 C 9.14842 12.5992, 9.09804 12.9621, 8.99728 13.3343, 8.8656 13.8478, 8.65492 14.3424, 8.36523 14.8188, 8.07611 15.2951, 7.71772 15.7228, 7.28948 16.1006, 6.88071 16.4493, 6.43301 16.7287, 5.94523 16.9388, 5.45745 17.1495, 4.96853 17.2548, 4.47789 17.2548, 3.75481 17.2548, 3.13821 17.1392, 2.62868 16.9067, 2.11915 16.6754, 1.74186 16.3823, 1.49625 16.0273 L 0.562492 17.1357 C 0.481195 17.2153, 0.395891 17.2548, 0.307725 17.2548 L 0.251046 17.2548 C 0.0941787 17.2548, 0.00887477 17.1941, -0.0037204 17.0716, -0.0037204 17.035, 0.00601226 17.0018, 0.0243326 16.9708 L 1.11897 12.6839 C 1.15676 12.5133, 1.26725 12.4251, 1.44931 12.4182 L 1.65656 12.4182 C 1.73213 12.4188, 1.8014 12.4492, 1.86438 12.5098, 1.88957 12.5591, 1.90216 12.602, 1.90216 12.6381, 1.90216 12.6633, 1.89587 12.6936, 1.88327 12.7297, 1.76991 13.1699, 1.71324 13.5793, 1.71324 13.9571, 1.71324 14.5623, 1.86152 15.0753, 2.15693 15.4961, 2.62868 16.1745, 3.45309 16.5134, 4.62903 16.5128, 4.92444 16.5134, 5.22501 16.4447, 5.53016 16.3073, 5.83531 16.1699, 6.11984 15.985, 6.38377 15.7525, 6.67346 15.4846, 6.91678 15.1869, 7.11487 14.86, 7.31295 14.5337, 7.45952 14.1959, 7.55341 13.8472, 7.61638 13.5667, 7.64787 13.3045, 7.64787 13.0595, 7.64787 12.7549, 7.60722 12.4618, 7.52535 12.1801, 7.337 11.7106, 6.98777 11.4083, 6.47823 11.2732 L 4.33648 10.6686 C 3.95289 10.5656, 3.62256 10.3961, 3.34546 10.1608, 3.06894 9.9261, 2.85368 9.64672, 2.69967 9.32268, 2.54567 8.99921, 2.45578 8.64196, 2.43059 8.25037 L 2.43059 8.04884 C 2.43059 7.74427, 2.46838 7.42366, 2.54395 7.08703, 2.6762 6.59925, 2.88688 6.13208, 3.176 5.6861, 3.46569 5.24068, 3.82408 4.84622, 4.25117 4.50386, 4.65422 4.17467, 5.0962 3.91074, 5.5771 3.71208, 6.05859 3.514, 6.53491 3.41438, 7.00666 3.41381, 7.65474 3.41438, 8.18889 3.53518, 8.61026 3.7762, 9.03163 4.0178, 9.33678 4.30291, 9.5257 4.63211 L 10.4314 3.54205 C 10.4818 3.45732, 10.5637 3.41438, 10.6764 3.41381 L 10.7618 3.41381 C 10.9129 3.41438, 10.9879 3.48766, 10.9879 3.63365 L 10.9879 3.70693 Z" stroke="none" fill="#000000" />
			<path d="M 4.50258 1.65822 C 4.46026 1.83969, 4.3971 2.02884, 4.31246 2.22537, 4.22782 2.42223, 4.12651 2.6008, 4.00853 2.76143, 3.89055 2.92237, 3.75237 3.05638, 3.59399 3.16379, 3.43561 3.27151, 3.25222 3.32537, 3.04415 3.32537, 2.86814 3.32537, 2.71681 3.28786, 2.58985 3.21252, 2.46321 3.1375, 2.36735 3.03843, 2.30195 2.91532, 2.23686 2.7922, 2.20063 2.64857, 2.19358 2.4841 L 2.19358 2.44306 C 2.19358 2.29623, 2.22372 2.14747, 2.28335 1.99678, 2.39973 1.69605, 2.50713 1.39693, 2.60588 1.09941, 2.70463 0.801885, 2.7944 0.50276, 2.87519 0.201391, 2.93161 0.00325727, 2.97041 -0.189747, 2.99157 -0.378263, 2.99862 -0.425713, 3.00215 -0.47701, 3.00215 -0.532154, 3.00215 -0.651419, 2.98452 -0.764272, 2.94925 -0.870713, 2.88577 -1.08584, 2.75208 -1.19356, 2.54753 -1.19388, 2.18845 -1.19356, 1.87843 -1.06949, 1.61777 -0.821661, 1.35712 -0.573512, 1.12981 -0.244571, 0.936167 0.165483, 0.827161 0.631003, 0.710781 1.09524, 0.587348 1.55851, 0.464235 2.02211, 0.342726 2.48442, 0.222819 2.94577, 0.1914 3.07273, 0.126317 3.16731, 0.0275707 3.23047, -0.0711756 3.29395, -0.167999 3.32537, -0.263218 3.32537, -0.365171 3.32537, -0.449811 3.29139, -0.516817 3.22278, -0.562343 3.17853, -0.58703 3.11698, -0.590877 3.03811, -0.590877 3.00092, -0.58735 2.96309, -0.580297 2.92526 L 0.1276 0.201391 C 0.184026 0.00325727, 0.222819 -0.189747, 0.243979 -0.378263 L 0.243979 -0.532154 C 0.243979 -0.654946, 0.229873 -0.767799, 0.20166 -0.870713, 0.1385 -1.08584, 0.00480795 -1.19356, -0.199739 -1.19388, -0.558816 -1.19356, -0.868842 -1.06949, -1.12949 -0.821661, -1.39015 -0.573512, -1.61906 -0.244571, -1.81655 0.165483 L -2.54048 2.94577 C -2.5719 3.07273, -2.63634 3.16731, -2.73316 3.23047, -2.82999 3.29395, -2.92777 3.32537, -3.02652 3.32537, -3.132 3.32537, -3.21311 3.29139, -3.26954 3.22278, -3.31506 3.17853, -3.33815 3.11698, -3.33815 3.03811, -3.33815 3.00765, -3.33462 2.97014, -3.32757 2.92526 L -2.51419 -0.250021 C -2.45776 -0.47188, -2.42955 -0.663602, -2.42955 -0.824546 L -2.42955 -0.947659 C -2.44686 -1.11149, -2.52958 -1.19356, -2.6777 -1.19388, -2.83287 -1.19356, -2.9624 -1.06853, -3.06627 -0.819096, -3.17015 -0.569344, -3.27114 -0.244571, -3.36989 0.155224, -3.40868 0.247879, -3.47376 0.295649, -3.56545 0.298855 L -3.68696 0.298855 C -3.7716 0.299176, -3.81392 0.256536, -3.81392 0.170613 L -3.81392 0.134705 C -3.7716 -0.0255973, -3.72383 -0.200969, -3.67093 -0.390767, -3.61803 -0.580565, -3.5475 -0.760104, -3.45965 -0.929384, -3.37149 -1.09866, -3.26056 -1.2423, -3.12687 -1.36028, -2.99285 -1.47826, -2.82582 -1.53725, -2.62512 -1.53757, -2.33593 -1.53725, -2.10862 -1.45005, -1.94319 -1.27564, -1.77776 -1.10123, -1.69152 -0.931949, -1.68446 -0.76812, -1.53634 -0.962727, -1.33051 -1.1397, -1.06633 -1.29872, -0.802156 -1.45774, -0.495657 -1.53725, -0.147159 -1.53757, 0.0679669 -1.53725, 0.26546 -1.49878, 0.444999 -1.42183, 0.624538 -1.34489, 0.763681 -1.22081, 0.862107 -1.05025, 0.946747 -0.902774, 0.992593 -0.779661, 0.999647 -0.680915, 1.15482 -0.899568, 1.36963 -1.09674, 1.64438 -1.27307, 1.91914 -1.44909, 2.24135 -1.53725, 2.61101 -1.53757, 2.81876 -1.53725, 3.01273 -1.49878, 3.19227 -1.42183, 3.37181 -1.34489, 3.51287 -1.22081, 3.61483 -1.05025, 3.72062 -0.875522, 3.77192 -0.678991, 3.76807 -0.460338 L 3.76807 -0.43469 C 3.76102 -0.215396, 3.7296 0.00518084, 3.67318 0.22704, 3.59206 0.538668, 3.49877 0.844846, 3.39297 1.14557, 3.28749 1.44662, 3.17656 1.75088, 3.06018 2.05834, 2.95438 2.33566, 2.90148 2.5681, 2.90148 2.75598, 2.90148 2.91019, 2.96848 2.98713, 3.1025 2.98681, 3.2224 2.98713, 3.33045 2.95122, 3.42727 2.87941, 3.52409 2.80759, 3.61226 2.71109, 3.69145 2.58958, 3.77096 2.46839, 3.84213 2.32476, 3.90561 2.15869, 3.96909 1.99293, 4.0252 1.81756, 4.07457 1.63257, 4.09573 1.54409, 4.15761 1.49952, 4.25956 1.4992 L 4.37562 1.4992 C 4.41474 1.49952, 4.45513 1.51139, 4.49713 1.53511, 4.51124 1.56621, 4.51829 1.59186, 4.51829 1.61206, 4.51829 1.62616, 4.51316 1.64155, 4.50258 1.65822 Z" stroke="none" fill="#000000" transform="matrix(1.12 0 0 1 15.7799 16.3063)" />
			<polyline points="-3.67696 0 3.67696 0" fill="none" stroke="#000000" stroke-width="0.420223981" stroke-linecap="round" stroke-linejoin="round" transform="matrix(1 0 0 1 27.6101 16.3063)" />
			<polyline points="0 -3.67696 0 3.67696" fill="none" stroke="#000000" stroke-width="0.420223981" stroke-linecap="round" stroke-linejoin="round" transform="matrix(1 0 0 1 27.6101 16.3063)" />
			<path d="M 2.37714 3.19713 C 1.7292 3.17661, 1.09857 3.16635, 0.485571 3.16635, -0.127106 3.16635, -0.757737 3.17661, -1.406 3.19713 L -1.406 2.75598, -1.04115 2.75598 C -0.925093 2.7563, -0.815766 2.75469, -0.713814 2.75117, -0.611541 2.74796, -0.514718 2.7393, -0.423025 2.72552, -0.331331 2.71205, -0.252142 2.69827, -0.185456 2.68416, -0.12903 2.67422, -0.082221 2.6428, -0.0453515 2.58958, -0.00816131 2.53668, 0.0101132 2.47769, 0.0101132 2.41229 L 0.0101132 -3.36887 C -0.165899 -3.28295, -0.382628 -3.21787, -0.639754 -3.17362, -0.89688 -3.12906, -1.17869 -3.10694, -1.48519 -3.10726 L -1.48519 -3.54328 C -1.06231 -3.54296, -0.672135 -3.59329, -0.31466 -3.69429, 0.042815 -3.79496, 0.351879 -3.98411, 0.612531 -4.26144 L 0.77636 -4.26144 C 0.89242 -4.26112, 0.950449 -4.20469, 0.950449 -4.09216 L 0.950449 2.41229 C 0.950449 2.4809, 0.968082 2.54085, 1.00335 2.59215, 1.03862 2.64344, 1.08991 2.67422, 1.1566 2.68416, 1.21302 2.69827, 1.28548 2.71205, 1.37333 2.72552, 1.46149 2.7393, 1.56088 2.74796, 1.67181 2.75117, 1.78274 2.75469, 1.89111 2.7563, 1.99658 2.75598 L 2.37714 2.75598, 2.37714 3.19713 Z" stroke="none" fill="#000000" transform="matrix(1.12 0 0 1 36.2339 16.3063)" />
			<rect />
		</svg>
	</g>
	<ellipse cx="849.33126258850098" cy="492.6618595123291" rx="9.6000003814697266" ry="9.6000003814697266" stroke="none" fill="#000000" transform="matrix(0.416667 0 0 0.416667 -180.538 -131.465)" />
	<ellipse cx="849.33121395111084" cy="492.66187191009521" rx="6.4000005722045898" ry="6.4000005722045898" stroke="none" fill="#FFFFFF" transform="matrix(0.416667 0 0 0.416667 -180.538 -131.465)" />
	<ellipse cx="1065.7408695220947" cy="631.78811073303223" rx="9.6000003814697266" ry="9.6000003814697266" stroke="none" fill="#000000" transform="matrix(0.416667 0 0 0.416667 -180.538 -131.465)" />
	<ellipse cx="1065.7408208847046" cy="631.78806209564209" rx="6.4000005722045898" ry="6.4000005722045898" stroke="none" fill="#FFFFFF" transform="matrix(0.416667 0 0 0.416667 -180.538 -131.465)" />
	<ellipse cx="1342.8867435455322" cy="436.39730262756348" rx="9.6000003814697266" ry="9.6000003814697266" stroke="none" fill="#000000" transform="matrix(0.416667 0 0 0.416667 -180.538 -131.465)" />
	<ellipse cx="1342.8866949081421" cy="436.39731502532959" rx="6.4000005722045898" ry="6.4000005722045898" stroke="none" fill="#FFFFFF" transform="matrix(0.416667 0 0 0.416667 -180.538 -131.465)" />
</svg>
