<?xml version="1.0"?>
<svg xmlns="http://www.w3.org/2000/svg" xmlns:xlink="http://www.w3.org/1999/xlink" width="193.17305" height="169.540665">
	<defs />
	<path d="M -144.446 -210.073 L 288.891 210.073, -288.891 210.073 Z" fill="none" stroke="#000000" stroke-width="5.86666679" stroke-linecap="round" stroke-linejoin="round" transform="matrix(0.219529 -0.0588226 0.0588226 0.219529 84.2772 71.6103)" />
	<path d="M -217.271 -8.47211 L 217.271 -8.47211, 217.271 8.47211, -217.271 8.47211 Z" stroke="none" fill="#FFFFFF" transform="matrix(0.0164885 -0.226674 0.226674 0.0164885 36.3487 84.9242)" />
	<path d="M -217.271 -8.47211 L 217.271 -8.47211, 217.271 8.47211, -217.271 8.47211 Z" fill="none" stroke="#000000" stroke-width="5.28000021" stroke-linecap="round" stroke-linejoin="round" transform="matrix(0.0164885 -0.226674 0.226674 0.0164885 36.3487 84.9242)" />
	<path d="M 0 -17.9527 L 18.7242 17.9527, -18.7242 17.9527 Z" stroke="none" fill="#FFFFFF" transform="matrix(0.227273 0 -0 0.227273 40.081 34.5012)" />
	<path d="M 0 -17.9527 L 18.7242 17.9527, -18.7242 17.9527 Z" fill="none" stroke="#000000" stroke-width="5.28000021" stroke-linecap="round" stroke-linejoin="round" transform="matrix(0.227273 0 -0 0.227273 40.081 34.5012)" />
	<path d="M 0 -17.9522 L 18.7249 17.9522, -18.7249 17.9522 Z" stroke="none" fill="#FFFFFF" transform="matrix(0.227273 0 -0 0.227273 33.0223 134.207)" />
	<path d="M 0 -17.9522 L 18.7249 17.9522, -18.7249 17.9522 Z" fill="none" stroke="#000000" stroke-width="5.28000021" stroke-linecap="round" stroke-linejoin="round" transform="matrix(0.227273 0 -0 0.227273 33.0223 134.207)" />
	<ellipse cx="1490.4937992095947" cy="687.40480995178223" rx="17.600000381469727" ry="17.600000381469727" stroke="none" fill="#000000" transform="matrix(0.227273 0 0 0.227273 -179.55 -56.1388)" />
	<ellipse cx="1490.4938316345215" cy="687.40478134155273" rx="11.733333587646484" ry="11.733333587646484" stroke="none" fill="#FFFFFF" transform="matrix(0.227273 0 0 0.227273 -179.55 -56.1388)" />
	<g transform="matrix(1 0 -0 1 19.3375 10.4997)">
		<svg width="42.0378685" height="45.2233963">
			<defs />
			<path d="M 12.3983 16.5678 C 12.3296 16.751, 12.2099 16.8426, 12.0399 16.8426, 11.4113 16.806, 10.7849 16.7876, 10.1621 16.7876 L 9.85061 16.7876 C 9.11493 16.8002, 8.37582 16.8185, 7.63385 16.8426, 7.46439 16.8426, 7.37279 16.7636, 7.36019 16.6044 L 7.36019 16.5311, 7.39798 16.3754 C 7.44836 16.1745, 7.57088 16.0766, 7.76553 16.0823, 7.99854 16.0829, 8.20636 16.0754, 8.38842 16.06, 8.57105 16.0451, 8.74738 15.9913, 8.91685 15.8991, 8.97982 15.8693, 9.03364 15.8264, 9.07715 15.7709, 9.10234 15.7228, 9.11837 15.6735, 9.12409 15.6243 L 9.12409 15.5693, 8.89795 12.5282, 4.63333 12.5282, 3.13335 15.093 C 3.05148 15.2401, 3.01026 15.3747, 3.01026 15.4961, 3.01026 15.6002, 3.04175 15.6953, 3.10473 15.78, 3.24327 15.9821, 3.50148 16.0829, 3.87819 16.0823, 4.04822 16.0829, 4.13925 16.1562, 4.15185 16.3021, 4.15185 16.3394, 4.14555 16.3789, 4.13295 16.4212 L 4.09574 16.5678 C 4.02647 16.751, 3.90395 16.8426, 3.72762 16.8426, 3.14938 16.8185, 2.57687 16.8002, 2.01009 16.7876 L 1.75589 16.7876 C 1.26525 16.7876, 0.768314 16.806, 0.265078 16.8426, 0.170614 16.8426, 0.101341 16.8123, 0.0572573 16.751, 0.0194716 16.7149, 0.000578821 16.672, 0.000578821 16.6228, 0.000578821 16.5867, 0.00687641 16.55, 0.0194716 16.5128 L 0.0572573 16.3754 C 0.107638 16.1745, 0.230728 16.0766, 0.425381 16.0823, 0.626904 16.0829, 0.824993 16.0617, 1.01965 16.0188, 1.21487 15.9764, 1.3975 15.8997, 1.56697 15.7897, 1.737 15.6798, 1.89444 15.547, 2.03871 15.3913, 2.18356 15.2356, 2.31237 15.0598, 2.42573 14.864 L 9.08631 3.45961 C 9.19967 3.289, 9.34451 3.20656, 9.52084 3.21228 L 9.70004 3.21228 C 9.90156 3.21285, 10.0143 3.30732, 10.0395 3.49625 L 10.8697 15.4319 C 10.8823 15.5911, 10.9012 15.7119, 10.9264 15.7943, 10.9515 15.8768, 10.9956 15.9363, 11.0586 15.9724, 11.1468 16.0279, 11.2928 16.06, 11.4971 16.0691, 11.7021 16.0783, 11.9328 16.0829, 12.1905 16.0823, 12.3668 16.0829, 12.455 16.1562, 12.455 16.3021, 12.455 16.3394, 12.4487 16.3789, 12.4361 16.4212 Z M 8.4451 6.03361 L 5.08618 11.7862, 8.84127 11.7862 Z" stroke="none" fill="#000000" />
			<rect />
		</svg>
	</g>
	<g transform="matrix(1 0 -0 1 10.4471 138.126)">
		<svg width="44.9082985" height="45.2233963">
			<defs />
			<path d="M 13.0332 7.12367 C 12.9267 7.56393, 12.7143 7.97614, 12.3966 8.36086, 12.0788 8.74559, 11.7124 9.07249, 11.2973 9.34043, 10.9704 9.56084, 10.6355 9.73489, 10.2926 9.86313, 9.94965 9.99137, 9.82828 10.0463, 9.92904 10.0274, 9.91072 10.0217, 10.0756 10.1001, 10.4248 10.2616, 10.7741 10.4236, 11.0804 10.6446, 11.3443 10.9251, 11.6403 11.2251, 11.8418 11.5852, 11.9483 12.006, 11.9987 12.2144, 12.0273 12.4188, 12.033 12.6198, 12.033 12.8522, 11.9987 13.0938, 11.9294 13.3434, 11.8103 13.814, 11.5899 14.2634, 11.2693 14.6905, 10.9487 15.1182, 10.5645 15.4903, 10.118 15.8075, 9.64622 16.1499, 9.1447 16.4081, 8.61342 16.5821, 8.08213 16.7561, 7.55198 16.8426, 7.02298 16.8426 L 0.267942 16.8426 C 0.173478 16.8426, 0.104204 16.8151, 0.0601207 16.7602, 0.0166099 16.7178, -0.00571795 16.672, -0.00571795 16.6228, -0.00571795 16.5867, 0.000579656 16.55, 0.0131749 16.5128 L 0.0509605 16.3754 C 0.0887462 16.1745, 0.211263 16.0766, 0.418512 16.0823, 0.714499 16.0829, 0.991594 16.0783, 1.24922 16.0691, 1.50685 16.06, 1.70208 16.0279, 1.83376 15.9724, 1.94711 15.9117, 2.03528 15.7468, 2.09826 15.4777 L 4.74955 5.15423 C 4.78733 5.02027, 4.80565 4.91664, 4.80565 4.84279, 4.80565 4.77008, 4.7902 4.72714, 4.75871 4.71455, 4.67054 4.66016, 4.49936 4.62695, 4.24459 4.61436, 3.98983 4.60234, 3.71159 4.59604, 3.4093 4.59547, 3.31541 4.59604, 3.24614 4.56569, 3.20205 4.50386, 3.16427 4.4678, 3.14538 4.422, 3.14538 4.36646, 3.14538 4.33039, 3.15511 4.29662, 3.17343 4.2657 L 3.20205 4.1283 C 3.22095 4.04357, 3.26675 3.97486, 3.33888 3.92277, 3.41102 3.87124, 3.48831 3.84491, 3.57018 3.84433 L 9.82542 3.84433 C 10.3413 3.84491, 10.8285 3.92162, 11.2876 4.07391, 11.7468 4.22677, 12.1275 4.4678, 12.4292 4.79699, 12.7252 5.09698, 12.933 5.44507, 13.0521 5.84125, 13.1025 6.04334, 13.1277 6.24773, 13.1277 6.45498, 13.1277 6.67539, 13.0962 6.8981, 13.0332 7.12367 Z M 11.1273 7.08703 C 11.1903 6.84314, 11.2218 6.59925, 11.2218 6.35422 L 11.2218 6.13437 C 11.1966 5.84182, 11.1084 5.56988, 10.9573 5.31912, 10.8256 5.09355, 10.651 4.91664, 10.434 4.7884, 10.217 4.66016, 9.96397 4.59604, 9.67428 4.59547 L 7.18329 4.59547 C 6.85009 4.59604, 6.6583 4.61722, 6.60791 4.65959, 6.53234 4.72142, 6.46021 4.89832, 6.39093 5.19088 L 5.2213 9.78927, 7.79702 9.78927 C 8.15541 9.78985, 8.51094 9.72, 8.86303 9.57916, 9.2157 9.4389, 9.55176 9.24024, 9.87236 8.98318, 10.5393 8.44617, 10.9578 7.81412, 11.1273 7.08703 Z M 9.96683 13.2885 C 10.055 12.9776, 10.0991 12.669, 10.0991 12.3633 L 10.0991 12.1709 C 10.0739 11.8297, 9.98286 11.5148, 9.82542 11.2274, 9.68687 10.9778, 9.49966 10.7746, 9.26379 10.6188, 9.02791 10.4631, 8.75311 10.3853, 8.43823 10.3847 L 5.05126 10.3847, 3.73964 15.5144 C 3.68926 15.7228, 3.66407 15.8722, 3.66407 15.9632, 3.66407 16.0125, 3.6675 16.0399, 3.6738 16.0457, 3.6864 16.0646, 3.85014 16.0766, 4.16444 16.0823 L 6.68349 16.0823 C 7.02928 16.0829, 7.37851 16.0084, 7.73061 15.8585, 8.08327 15.709, 8.40731 15.5121, 8.70273 15.267, 9.0302 14.9928, 9.29871 14.6848, 9.50939 14.3424, 9.72008 14.0007, 9.87294 13.6491, 9.96683 13.2885 Z" stroke="none" fill="#000000" />
			<rect />
		</svg>
	</g>
	<g transform="matrix(1 0 -0 1 171.209 87.741)">
		<svg width="42.0378685" height="48.0957298">
			<defs />
			<path d="M 11.6723 8.71754 C 11.6345 8.88929, 11.5246 8.97746, 11.342 8.98318 L 11.1347 8.98318 C 10.9905 8.98375, 10.9115 8.91047, 10.8989 8.76334 L 10.8989 8.69006 C 10.9618 8.3059, 10.9968 7.93663, 11.0025 7.58168, 11.0025 7.38073, 10.9962 7.17634, 10.9836 6.96795, 10.9206 6.43093, 10.7792 5.95632, 10.5594 5.54411, 10.3395 5.13191, 10.0435 4.80214, 9.67256 4.55482, 9.30157 4.30749, 8.84814 4.18383, 8.31342 4.18326, 7.65961 4.18383, 7.00237 4.34299, 6.34169 4.66016, 5.68159 4.9779, 5.08389 5.40213, 4.54917 5.93285, 3.92628 6.56261, 3.43907 7.25878, 3.08698 8.02194, 2.73488 8.78566, 2.45779 9.56371, 2.25627 10.3572, 2.03642 11.1639, 1.91047 11.9453, 1.87898 12.7022 L 1.87898 12.9587 C 1.87898 13.6251, 2.01123 14.2325, 2.27516 14.7816, 2.52706 15.3014, 2.89461 15.7199, 3.37896 16.0371, 3.8633 16.3548, 4.43924 16.5134, 5.10565 16.5128, 5.64667 16.5134, 6.17796 16.3978, 6.70009 16.1653, 7.22221 15.9334, 7.70198 15.6203, 8.13938 15.2264, 8.57677 14.8325, 8.95864 14.3762, 9.28554 13.857, 9.61302 13.3383, 9.84889 12.7881, 9.99316 12.2076, 10.0309 12.0369, 10.1414 11.9516, 10.3235 11.9511 L 10.5307 11.9511 C 10.6882 11.9516, 10.7729 12.0186, 10.7855 12.1526, 10.7855 12.1898, 10.7764 12.2236, 10.7575 12.2534, 10.588 12.9255, 10.308 13.5638, 9.91759 14.1684, 9.52771 14.773, 9.06398 15.3031, 8.52582 15.7577, 7.98823 16.2128, 7.39855 16.5758, 6.75676 16.8472, 6.11555 17.1191, 5.45488 17.2548, 4.77531 17.2548, 3.90738 17.2548, 3.13564 17.0733, 2.45951 16.7103, 1.78337 16.3474, 1.23434 15.8447, 0.812968 15.2029, 0.372708 14.5136, 0.114506 13.7499, 0.0389352 12.9129, 0.0137447 12.6873, 0.00114954 12.4526, 0.00114954 12.2076, 0.00114954 11.5915, 0.0801558 10.9623, 0.237023 10.3206, 0.476333 9.42344, 0.855906 8.55781, 1.3746 7.72423, 1.89329 6.89066, 2.54252 6.13208, 3.32228 5.44736, 4.05853 4.82504, 4.85603 4.33039, 5.7148 3.96399, 6.57356 3.59758, 7.43347 3.41438, 8.29453 3.41381, 8.98039 3.41438, 9.56721 3.56552, 10.0544 3.86781, 10.5422 4.17009, 10.9023 4.53478, 11.1347 4.96187 L 12.4086 3.54205 C 12.459 3.45732, 12.5437 3.41438, 12.6633 3.41381 L 12.7383 3.41381 C 12.8895 3.41438, 12.9651 3.48766, 12.9651 3.63365 L 12.9651 3.70693 Z" stroke="none" fill="#000000" />
			<rect />
		</svg>
	</g>
	<g transform="matrix(1 0 -0 1 46.3553 40.708)">
		<svg width="29.9820557" height="32.8723297">
			<defs />
			<path d="M 8.45998 14.0579 C 8.38498 14.3579, 8.30025 14.6785, 8.20578 15.0203, 8.11132 15.3627, 7.98537 15.6798, 7.82793 15.973, 7.67106 16.2661, 7.47297 16.5197, 7.23366 16.7332, 6.99493 16.9468, 6.69607 17.0533, 6.33711 17.0533, 5.85964 17.0533, 5.4772 16.921, 5.19095 16.6554, 4.90469 16.3897, 4.73981 16.1195, 4.69573 15.8441, 4.48161 16.0892, 4.16272 16.352, 3.73792 16.6325, 3.31369 16.913, 2.86541 17.0533, 2.39366 17.0533, 1.89673 17.0533, 1.47994 16.9285, 1.1433 16.6783, 0.806667 16.4281, 0.544458 16.1132, 0.35553 15.7342, 0.129388 15.2831, 0.00973374 14.7976, -0.00286144 14.2778 L -0.00286144 14.1403 C -0.00286144 13.6583, 0.0635496 13.1762, 0.195227 12.693, 0.34637 12.1623, 0.557053 11.6373, 0.827278 11.1181, 1.09807 10.5994, 1.45647 10.1167, 1.90302 9.67019, 2.26828 9.30436, 2.68507 8.99635, 3.15338 8.74559, 3.6217 8.4954, 4.09803 8.37002, 4.58237 8.36945, 5.00374 8.37002, 5.34667 8.48166, 5.6106 8.70437, 5.8751 8.92765, 6.0417 9.112, 6.11097 9.25799 L 6.07318 9.41371 C 6.11727 9.18814, 6.22261 9.01753, 6.38921 8.90131, 6.55638 8.78566, 6.7247 8.72727, 6.89416 8.7267, 7.08882 8.72727, 7.25255 8.78509, 7.3848 8.90074, 7.46667 8.99291, 7.51076 9.11486, 7.51648 9.26715, 7.51648 9.32268, 7.51018 9.38394, 7.49759 9.45035 L 6.13902 14.7449 C 6.07605 14.9957, 6.03196 15.231, 6.00677 15.4503, 5.99475 15.5607, 5.98845 15.6615, 5.98845 15.7525, 5.98845 15.8327, 5.99475 15.918, 6.00677 16.009, 6.02624 16.1562, 6.07032 16.2661, 6.13902 16.3394, 6.2083 16.4126, 6.30562 16.4493, 6.43158 16.4487, 6.56383 16.4493, 6.68806 16.3943, 6.80428 16.2844, 6.92107 16.1745, 7.02813 16.0113, 7.12546 15.7943, 7.22278 15.5779, 7.31553 15.318, 7.4037 15.0157, 7.49186 14.7134, 7.58289 14.3854, 7.67678 14.0304, 7.71457 13.8724, 7.82163 13.7928, 7.99796 13.7923 L 8.21494 13.7923 C 8.37868 13.7928, 8.45998 13.8598, 8.45998 13.9938 L 8.45998 14.0579 Z M 5.76174 10.687 C 5.73655 10.5776, 5.71479 10.4631, 5.6959 10.344, 5.67701 10.225, 5.64838 10.1076, 5.6106 9.9908, 5.51041 9.70454, 5.36728 9.46466, 5.18179 9.2723, 4.99629 9.07994, 4.76156 8.98375, 4.47874 8.98318, 4.21482 8.98375, 3.95375 9.07879, 3.69555 9.26772, 3.43792 9.45722, 3.20205 9.70111, 2.98793 9.99996, 2.68622 10.4219, 2.46008 10.8604, 2.30893 11.315, 2.15779 11.7702, 2.01924 12.2448, 1.89329 12.7388, 1.76791 13.2278, 1.66429 13.7012, 1.58185 14.1587, 1.53204 14.3911, 1.50685 14.611, 1.50685 14.8182, 1.50685 15.0386, 1.53204 15.2522, 1.58185 15.4594, 1.6391 15.7468, 1.741 15.9838, 1.88871 16.1699, 2.03642 16.3565, 2.24252 16.4493, 2.50645 16.4487, 2.79614 16.4493, 3.08697 16.3485, 3.37953 16.147, 3.67208 15.9455, 3.94402 15.6981, 4.19535 15.4045, 4.29611 15.2831, 4.3923 15.1657, 4.48332 15.0524, 4.57493 14.9396, 4.65508 14.8188, 4.72378 14.69 L 5.76174 10.687 Z" stroke="none" fill="#000000" />
			<rect />
		</svg>
	</g>
	<g transform="matrix(1 0 -0 1 40.9214 107.375)">
		<svg width="23.9541492" height="48.0957298">
			<defs />
			<path d="M 6.63739 12.748 C 6.48625 13.2799, 6.27442 13.8054, 6.00076 14.3241, 5.7271 14.8434, 5.37043 15.3226, 4.9296 15.7617, 4.56491 16.1287, 4.15155 16.4355, 3.68897 16.6829, 3.22695 16.9302, 2.74719 17.0533, 2.25025 17.0533, 1.7722 17.0533, 1.37259 16.9256, 1.05199 16.6691, 0.731382 16.4126, 0.485775 16.0949, 0.31574 15.7159, 0.114789 15.2648, 0.00772941 14.7793, -0.00486588 14.2594 L -0.00486588 14.1403 C -0.00486588 13.6583, 0.0581102 13.1791, 0.184062 12.7022 L 2.08021 5.32828 C 2.1306 5.12733, 2.16208 4.97447, 2.17468 4.87027 L 2.17468 4.84279 C 2.17468 4.7884, 2.16208 4.7489, 2.13689 4.72371, 2.06132 4.67562, 1.91991 4.64184, 1.71209 4.62352, 1.50484 4.6052, 1.26553 4.59604, 0.995309 4.59547, 0.901417 4.59604, 0.832143 4.56569, 0.787488 4.50386, 0.749702 4.4678, 0.730809 4.422, 0.730809 4.36646, 0.730809 4.33039, 0.740542 4.29662, 0.759435 4.2657 L 0.787488 4.11914 C 0.837869 3.97315, 0.951226 3.88155, 1.12756 3.84433 L 3.62771 3.64281, 3.66549 3.64281 C 3.74107 3.64338, 3.80347 3.668, 3.85385 3.71609, 3.87904 3.76533, 3.89164 3.81456, 3.89164 3.86265, 3.89164 3.89987, 3.88248 3.93364, 3.86358 3.96342 L 2.50502 9.23967 C 2.64356 9.09997, 2.89833 8.91963, 3.26932 8.69979, 3.6403 8.47994, 4.03018 8.37002, 4.43895 8.36945, 4.93589 8.37002, 5.35612 8.49827, 5.69848 8.75475, 6.04141 9.01123, 6.30419 9.32554, 6.48625 9.69767, 6.70037 10.15, 6.81315 10.6389, 6.82575 11.1633 L 6.82575 11.2915 C 6.82575 11.7621, 6.76334 12.2476, 6.63739 12.748 Z M 5.26909 9.96332 C 5.21299 9.67076, 5.10593 9.43432, 4.94849 9.25398, 4.79162 9.07421, 4.58723 8.98375, 4.33533 8.98318, 4.03362 8.98375, 3.7382 9.08165, 3.44851 9.27688, 3.1594 9.47268, 2.8886 9.71943, 2.63669 10.0183, 2.44204 10.269, 2.27201 10.5043, 2.12716 10.7236 L 1.60847 12.7388 C 1.48251 13.2278, 1.38862 13.6984, 1.32565 14.1495, 1.30046 14.3396, 1.28786 14.5194, 1.28786 14.69, 1.28786 14.959, 1.31935 15.2155, 1.38233 15.4594, 1.4516 15.7411, 1.5661 15.9764, 1.7264 16.1653, 1.88671 16.3548, 2.09911 16.4493, 2.36303 16.4487, 2.62753 16.4493, 2.89032 16.352, 3.15138 16.1562, 3.41244 15.9609, 3.6466 15.7165, 3.85385 15.4228, 4.15614 15.014, 4.38399 14.5795, 4.538 14.118, 4.69258 13.6572, 4.83227 13.1854, 4.95765 12.7022, 5.0836 12.2018, 5.1941 11.7198, 5.28799 11.2549, 5.32577 11.0356, 5.34467 10.8221, 5.34467 10.6137, 5.34467 10.3944, 5.31947 10.1774, 5.26909 9.96332 Z" stroke="none" fill="#000000" />
			<rect />
		</svg>
	</g>
	<g transform="matrix(1 0 -0 1 128.414 83.208)">
		<svg width="27.1116219" height="32.8723297">
			<defs />
			<path d="M 7.07136 14.6075 C 7.11544 14.651, 7.13719 14.6968, 7.13719 14.7449, 7.13719 14.8005, 7.11258 14.8617, 7.0622 14.9281, 6.56526 15.6186, 5.93149 16.1458, 5.16089 16.5088, 4.39029 16.8718, 3.61855 17.0533, 2.84452 17.0533, 2.2972 17.0533, 1.82259 16.9331, 1.42011 16.692, 1.01764 16.451, 0.699895 16.135, 0.466884 15.7434, 0.202957 15.3043, 0.051814 14.8251, 0.0140283 14.3052, 0.00143313 14.1776, -0.00486451 14.0493, -0.00486451 13.9205, -0.00486451 13.5301, 0.0455164 13.1241, 0.146278 12.7022, 0.297421 12.1411, 0.528142 11.6007, 0.839587 11.0814, 1.15103 10.5627, 1.54263 10.0858, 2.01438 9.65187, 2.44834 9.27402, 2.9281 8.96543, 3.45309 8.72727, 3.97866 8.4891, 4.50537 8.37002, 5.03322 8.36945, 5.3544 8.37002, 5.65497 8.41926, 5.93492 8.51659, 6.21488 8.61448, 6.45362 8.75647, 6.65171 8.94253, 6.84979 9.12917, 6.99292 9.3473, 7.08109 9.59691, 7.10628 9.73202, 7.1183 9.86599, 7.1183 9.99996, 7.1183 10.1471, 7.09998 10.3028, 7.0622 10.4671, 6.99292 10.7425, 6.85151 10.952, 6.63739 11.0952, 6.42385 11.2389, 6.20973 11.3104, 5.99561 11.3099, 5.76947 11.3104, 5.58741 11.2309, 5.44886 11.0717, 5.3418 10.9686, 5.28799 10.8341, 5.28799 10.6686, 5.28799 10.6022, 5.30058 10.5198, 5.32577 10.4213, 5.39562 10.1534, 5.53245 9.95358, 5.73684 9.82191, 5.94122 9.6908, 6.09981 9.6221, 6.21259 9.61523, 6.15019 9.46294, 6.00076 9.31982, 5.76489 9.18528, 5.52901 9.05131, 5.24791 8.98375, 4.92044 8.98318, 4.60613 8.98375, 4.28381 9.07994, 3.95347 9.2723, 3.62313 9.46466, 3.33229 9.7137, 3.08039 10.0183, 2.74089 10.4156, 2.48155 10.845, 2.30235 11.3059, 2.12315 11.7673, 1.97029 12.2448, 1.84434 12.7388, 1.71896 13.2278, 1.62164 13.7012, 1.55179 14.1587, 1.5266 14.3058, 1.514 14.4432, 1.514 14.5709, 1.514 14.8709, 1.56438 15.1577, 1.66515 15.4319, 1.75961 15.7377, 1.9182 15.9838, 2.14147 16.1699, 2.36475 16.3565, 2.63383 16.4493, 2.94814 16.4487, 3.61511 16.4493, 4.26606 16.2787, 4.90154 15.9363, 5.53703 15.5945, 6.06202 15.1302, 6.47709 14.5434, 6.51488 14.477, 6.58758 14.4249, 6.69407 14.3877 L 6.76964 14.3877 C 6.83262 14.3882, 6.88644 14.4094, 6.92995 14.4518 L 7.07136 14.6075 Z" stroke="none" fill="#000000" />
			<rect />
		</svg>
	</g>
</svg>
