<?xml version="1.0"?>
<svg xmlns="http://www.w3.org/2000/svg" xmlns:xlink="http://www.w3.org/1999/xlink" width="600.193726" height="141.651199">
	<defs>
		<marker id="CustomMarker-01" markerUnits="strokeWidth" markerWidth="9" markerHeight="6" viewBox="-9 -3 9 6" orient="auto-start-reverse">
			<path d="M 0 -0 L -6 -2, -6 -0.5, -6 0.5, -6 2 Z" fill="#FF9900" stroke="#FF9900" stroke-linejoin="round" />
		</marker>
		<marker id="CustomMarker-02" markerUnits="strokeWidth" markerWidth="9" markerHeight="6" viewBox="-9 -3 9 6" orient="auto-start-reverse">
			<path d="M 0 -0 L -6 -2, -6 -0.5, -6 0.5, -6 2 Z" fill="#FF9900" stroke="#FF9900" stroke-linejoin="round" />
		</marker>
		<marker id="CustomMarker-03" markerUnits="strokeWidth" markerWidth="9" markerHeight="6" viewBox="-9 -3 9 6" orient="auto-start-reverse">
			<path d="M 0 -0 L -6 -2, -6 -0.5, -6 0.5, -6 2 Z" fill="#FF9900" stroke="#FF9900" stroke-linejoin="round" />
		</marker>
		<marker id="CustomMarker-04" markerUnits="strokeWidth" markerWidth="9" markerHeight="6" viewBox="-9 -3 9 6" orient="auto-start-reverse">
			<path d="M 0 -0 L -6 -2, -6 -0.5, -6 0.5, -6 2 Z" fill="#FF9900" stroke="#FF9900" stroke-linejoin="round" />
		</marker>
	</defs>
	<rect x="-180.039886" y="-121.553055" width="360.079773" height="243.10611" stroke="none" fill="#FFD966" fill-opacity="0.392156839" transform="matrix(0.2 0 -0 0.2 64.6324 66.3911)" />
	<rect x="-180.041748" y="-121.553055" width="360.083496" height="243.10611" stroke="none" fill="#FFD966" fill-opacity="0.392156839" transform="matrix(0.2 0 -0 0.2 532.887 66.3911)" />
	<rect x="-148.943939" y="-121.553055" width="297.887878" height="243.10611" stroke="none" fill="#FFD966" fill-opacity="0.392156839" transform="matrix(0.2 0 -0 0.2 298.792 66.391)" />
	<rect x="-306.397949" y="-47.3572235" width="612.795898" height="94.714447" stroke="none" fill="#A0E281" fill-opacity="0.392156839" transform="matrix(0.2 0 -0 0.2 435.6 81.2302)" />
	<rect x="-306.557861" y="-47.3572235" width="613.115723" height="94.714447" stroke="none" fill="#A0E281" fill-opacity="0.392156839" transform="matrix(0.2 0 -0 0.2 161.952 81.2302)" />
	<rect x="-114.349213" y="-47.3572235" width="228.698425" height="94.714447" stroke="none" fill="#E36856" fill-opacity="0.392156839" transform="matrix(0.2 0 -0 0.2 246.133 81.2302)" />
	<rect x="-114.347839" y="-47.3572235" width="228.695679" height="94.714447" stroke="none" fill="#E36856" fill-opacity="0.392156839" transform="matrix(0.2 0 -0 0.2 351.451 81.2302)" />
	<path d="M -1350.68 0 L 1350.68 0" fill="none" stroke="#000000" stroke-width="10" stroke-linecap="round" stroke-linejoin="round" transform="matrix(0.2 0 0 0.2 298.76 81.2302)" />
	<g transform="matrix(1 0 -0 1 322.879 108.261)">
		<svg width="141.067749" height="77.968071">
			<defs />
			<path d="M 8.15094 18.0887 L 0.0873122 18.0887, 0.0873122 17.5597 C 0.0873122 17.5219, 0.10715 17.4641, 0.146825 17.3866 L 3.38634 13.8664 C 3.76927 13.4438, 4.157 13.0109, 4.55014 12.5685, 4.94328 12.1261, 5.29555 11.674, 5.60573 11.2123, 5.91592 10.7507, 6.16359 10.2746, 6.34874 9.78404, 6.53389 9.29352, 6.62586 8.77894, 6.62586 8.23973, 6.62586 7.78527, 6.56635 7.36026, 6.44732 6.96592, 6.3283 6.57158, 6.15697 6.22532, 5.93215 5.92716, 5.70793 5.62899, 5.4272 5.38854, 5.09056 5.2058, 4.75392 5.02305, 4.36379 4.93168, 3.92135 4.93108, 3.26131 4.93168, 2.67821 5.12885, 2.17265 5.5232, 1.6677 5.91754, 1.33226 6.35216, 1.16695 6.82586, 1.13449 6.83908, 1.18739 6.84569, 1.32565 6.84509 L 1.49397 6.84509 C 1.69234 6.89078, 1.86367 6.95991, 2.00914 7.05248, 2.15462 7.14566, 2.27665 7.2737, 2.37583 7.43721, 2.47502 7.60072, 2.52431 7.79789, 2.52431 8.02813, 2.52431 8.41345, 2.39928 8.70861, 2.148 8.9136, 1.89673 9.11919, 1.616 9.22138, 1.30581 9.22078, 1.00885 9.22138, 0.731128 9.11919, 0.473842 8.9136, 0.216556 8.70861, 0.0873122 8.41345, 0.0873122 8.02813, 0.0873122 7.49011, 0.193112 6.98035, 0.404712 6.49944, 0.616311 6.01853, 0.903053 5.60194, 1.26614 5.24908, 1.62922 4.89681, 2.05843 4.61789, 2.55377 4.4123, 3.04911 4.20731, 3.5745 4.10452, 4.12935 4.10392, 4.81644 4.10452, 5.44583 4.20551, 6.01691 4.40749, 6.58799 4.60947, 7.07491 4.89982, 7.47767 5.27793, 7.88043 5.65665, 8.19602 6.09427, 8.42386 6.59081, 8.65169 7.08795, 8.7653 7.63739, 8.7653 8.23973, 8.7653 8.90699, 8.61381 9.52135, 8.30964 10.0822, 8.00607 10.6437, 7.62976 11.1582, 7.18071 11.6259, 6.73166 12.0942, 6.25436 12.5348, 5.7488 12.9484, 5.24385 13.362, 4.78639 13.7642, 4.37701 14.1549 L 2.09811 16.2997, 5.08034 16.2997 C 5.49633 16.3003, 5.88466 16.2973, 6.24414 16.2907, 6.60422 16.2847, 6.9096 16.2715, 7.16087 16.2523, 7.41214 16.233, 7.54079 16.2204, 7.5468 16.2132, 7.5997 16.1687, 7.64959 16.0791, 7.69588 15.9445, 7.74217 15.8098, 7.78485 15.6511, 7.82452 15.4684, 7.8642 15.2856, 7.90387 15.0999, 7.94355 14.9105, 7.98322 14.7218, 8.01929 14.5144, 8.05235 14.2896 L 8.78514 14.2896 Z" stroke="none" fill="#000000" />
			<polyline points="-2.44255 0 2.44255 0" fill="none" stroke="#000000" stroke-width="0.450240016" stroke-linecap="round" stroke-linejoin="round" transform="matrix(1 0 0 1 12.9259 6.66907)" />
			<path d="M 2.54664 3.4255 C 1.85241 3.40351, 1.17674 3.39252, 0.519953 3.39252, -0.136487 3.39252, -0.812163 3.40351, -1.50673 3.4255 L -1.50673 2.95283, -1.11582 2.95283 C -0.991473 2.95318, -0.874338 2.95146, -0.765103 2.94768, -0.655525 2.94424, -0.551786 2.93497, -0.453543 2.9202, -0.355301 2.90577, -0.270455 2.891, -0.199005 2.87589, -0.138548 2.86524, -0.0883965 2.83157, -0.0488932 2.77455, -0.00904655 2.71787, 0.0105331 2.65467, 0.0105331 2.58459 L 0.0105331 -3.6095 C -0.178051 -3.51744, -0.410261 -3.44771, -0.685753 -3.40031, -0.961245 -3.35256, -1.26319 -3.32886, -1.59158 -3.3292 L -1.59158 -3.79637 C -1.13849 -3.79603, -0.720447 -3.84996, -0.337438 -3.95816, 0.0455709 -4.06602, 0.37671 -4.26869, 0.655981 -4.56582 L 0.831512 -4.56582 C 0.955861 -4.56548, 1.01804 -4.50502, 1.01804 -4.38445 L 1.01804 2.58459 C 1.01804 2.6581, 1.03693 2.72234, 1.07471 2.7773, 1.1125 2.83226, 1.16746 2.86524, 1.23891 2.87589, 1.29937 2.891, 1.377 2.90577, 1.47112 2.9202, 1.56558 2.93497, 1.67207 2.94424, 1.79092 2.94768, 1.90978 2.95146, 2.02588 2.95318, 2.1389 2.95283 L 2.54664 2.95283, 2.54664 3.4255 Z" stroke="none" fill="#000000" transform="matrix(1.12 0 0 1 20.6686 6.66907)" />
			<path d="M 3.05573 -0.399786 C 3.05573 0.128183, 3.01897 0.65306, 2.94546 1.17519, 2.87195 1.69732, 2.6899 2.1875, 2.39929 2.64505, 2.19181 2.97894, 1.91426 3.23519, 1.56732 3.4145, 1.22038 3.59416, 0.842864 3.68381, 0.435123 3.68381, 0.0428391 3.68381, -0.327804 3.59416, -0.676806 3.4145, -1.02581 3.23519, -1.30439 2.97894, -1.51187 2.64505, -1.80213 2.1875, -1.98419 1.69732, -2.0577 1.17519, -2.13121 0.65306, -2.16831 0.128183, -2.16831 -0.399786, -2.16831 -0.934281, -2.13121 -1.46843, -2.0577 -2.00155, -1.98419 -2.53467, -1.80213 -3.03379, -1.51187 -3.49958, -1.30439 -3.83622, -1.02684 -4.09831, -0.679897 -4.28518, -0.332613 -4.47205, 0.0390606 -4.56548, 0.435123 -4.56582, 0.839086 -4.56548, 1.21522 -4.47205, 1.56423 -4.28518, 1.91323 -4.09831, 2.19181 -3.83622, 2.39929 -3.49958, 2.6899 -3.03379, 2.87195 -2.53467, 2.94546 -2.00155, 3.01897 -1.46843, 3.05573 -0.934281, 3.05573 -0.399786 Z M 1.93487 -0.592149 C 1.93487 -0.822641, 1.93315 -1.06619, 1.92937 -1.32279, 1.92594 -1.57904, 1.91632 -1.83014, 1.90121 -2.07575, 1.88609 -2.32101, 1.85895 -2.55288, 1.81911 -2.77101, 1.7796 -2.98879, 1.73151 -3.17497, 1.67484 -3.3292, 1.56148 -3.5779, 1.39557 -3.78229, 1.17675 -3.94167, 0.957939 -4.10106, 0.710614 -4.18076, 0.435123 -4.1811, 0.167188 -4.18076, -0.0749834 -4.10003, -0.292079 -3.93893, -0.508831 -3.77748, -0.674058 -3.57447, -0.787415 -3.3292, -0.84375 -3.17497, -0.89184 -2.98879, -0.931687 -2.77101, -0.97119 -2.55288, -0.998671 -2.32101, -1.01378 -2.07575, -1.0289 -1.83014, -1.03817 -1.57904, -1.04195 -1.32279, -1.04573 -1.06619, -1.04779 -0.822641, -1.04779 -0.592149, -1.04779 -0.335206, -1.04573 -0.0648673, -1.04195 0.218868, -1.03817 0.502948, -1.0289 0.777753, -1.01378 1.04328, -0.998671 1.30916, -0.97119 1.56095, -0.931687 1.799, -0.89184 2.03739, -0.84375 2.23697, -0.787415 2.39773, -0.681615 2.66566, -0.518106 2.8855, -0.297575 3.0576, -0.0770445 3.23004, 0.167188 3.31592, 0.435123 3.31557, 0.714393 3.31592, 0.964465 3.23004, 1.185 3.0576, 1.40587 2.8855, 1.56904 2.66566, 1.67484 2.39773, 1.73151 2.23697, 1.7796 2.03739, 1.81911 1.799, 1.85895 1.56095, 1.88609 1.30916, 1.90121 1.04328, 1.91632 0.777753, 1.92594 0.502948, 1.92937 0.218868, 1.93315 -0.0648673, 1.93487 -0.335206, 1.93487 -0.592149 Z" stroke="none" fill="#000000" transform="matrix(1.12 0 0 1 27.3147 6.66907)" />
			<path d="M 3.35561 -4.01072 C 3.35561 -3.98839, 3.34634 -3.95713, 3.32744 -3.91729 L 1.62949 -1.59244 C 1.41068 -1.28809, 1.23996 -0.9518, 1.11733 -0.583561, 0.994694 -0.215323, 0.9071 0.171465, 0.8542 0.576115, 0.8013 0.981108, 0.768323 1.39435, 0.754927 1.81548, 0.741874 2.23697, 0.735003 2.66188, 0.735003 3.09023, 0.735003 3.28844, 0.670081 3.43855, 0.539892 3.54091, 0.410047 3.64362, 0.267492 3.6948, 0.112571 3.6948, -0.042007 3.6948, -0.182501 3.64362, -0.308911 3.54091, -0.435321 3.43855, -0.498526 3.28844, -0.498526 3.09023, -0.498526 2.19643, -0.342918 1.33664, -0.0317018 0.510162, 0.279515 -0.31597, 0.699279 -1.09195, 1.22759 -1.81778 L 2.30276 -3.27424, 0.265431 -3.27424 C 0.00917554 -3.2739, -0.229561 -3.27184, -0.450435 -3.2684, -0.670966 -3.26462, -0.858864 -3.2581, -1.01344 -3.24917, -1.16802 -3.23989, -1.24737 -3.23371, -1.25149 -3.23027, -1.28928 -3.19695, -1.32225 -3.14199, -1.35042 -3.06505, -1.37859 -2.9881, -1.40504 -2.8981, -1.42977 -2.79574, -1.45416 -2.69303, -1.4758 -2.58689, -1.49469 -2.47697, -1.51359 -2.36704, -1.53248 -2.24991, -1.55137 -2.12556 L -1.97011 -2.12556, -1.56271 -4.68674, -1.14947 -4.68674, -1.14947 -4.57682 C -1.14947 -4.53628, -1.1268 -4.49781, -1.0818 -4.4614, -1.00245 -4.40987, -0.919321 -4.3769, -0.832757 -4.36247, -0.730736 -4.34736, -0.606043 -4.33362, -0.459023 -4.32091, -0.312002 -4.30785, -0.154333 -4.29961, 0.0136411 -4.29617, 0.181615 -4.29239, 0.350277 -4.29068, 0.519969 -4.29102 L 3.35561 -4.29102, 3.35561 -4.01072 Z" stroke="none" fill="#000000" transform="matrix(1.12 0 0 1 33.9608 6.66907)" />
			<path d="M 2.91318 0.996222 C 2.91318 1.35553, 2.8455 1.69835, 2.70948 2.02434, 2.57379 2.35067, 2.37765 2.64368, 2.12071 2.90337, 1.86033 3.15653, 1.56698 3.34992, 1.24065 3.4832, 0.914315 3.61717, 0.568405 3.68381, 0.202227 3.68381, -0.114485 3.68381, -0.4099 3.62439, -0.683331 3.50519, -0.956761 3.38634, -1.19447 3.22351, -1.39645 3.01638, -1.59843 2.80959, -1.75679 2.56948, -1.8722 2.29639, -1.98728 2.02365, -2.04499 1.73304, -2.04499 1.42492, -2.04499 1.21263, -1.97423 1.05256, -1.8327 0.944353, -1.69118 0.836492, -1.54484 0.782218, -1.39404 0.781875, -1.23534 0.782218, -1.08626 0.835462, -0.9468 0.941605, -0.806993 1.04809, -0.737261 1.2092, -0.737261 1.42492, -0.737261 1.55717, -0.766459 1.66812, -0.824855 1.75777, -0.883251 1.84777, -0.955044 1.91716, -1.04023 1.96663, -1.12508 2.01609, -1.22023 2.0446, -1.32603 2.05147 L -1.39404 2.05147, -1.50706 2.05147 C -1.42015 2.3596, -1.21817 2.63646, -0.901457 2.88173, -0.584401 3.12733, -0.216506 3.24996, 0.202227 3.24962, 0.421041 3.24996, 0.634358 3.19329, 0.841835 3.07959, 1.04931 2.96623, 1.219 2.81577, 1.35091 2.62856, 1.50583 2.40528, 1.60511 2.15178, 1.64839 1.8677, 1.69167 1.58396, 1.71331 1.29335, 1.71331 0.996222, 1.71331 0.695998, 1.70404 0.407797, 1.68514 0.130931, 1.66625 -0.145591, 1.58896 -0.406656, 1.45293 -0.652606, 1.35503 -0.831916, 1.22965 -0.980997, 1.07679 -1.10019, 0.923933 -1.21905, 0.753211 -1.27882, 0.564282 -1.27916, 0.206006 -1.27882, -0.105211 -1.20634, -0.369366 -1.06172, -0.633522 -0.916762, -0.84684 -0.708941, -1.00897 -0.438258, -1.04298 -0.37574, -1.0976 -0.344481, -1.17317 -0.344825 L -1.21851 -0.344825 C -1.35042 -0.344481, -1.41672 -0.404938, -1.41672 -0.526196 L -1.41672 -4.38445 C -1.41672 -4.47926, -1.36175 -4.53972, -1.25252 -4.56582, -1.23328 -4.56548, -1.2192 -4.56342, -1.20993 -4.55999, -1.20031 -4.55621, -1.19206 -4.55449, -1.18451 -4.55483, -0.637301 -4.30545, -0.0732644 -4.18076, 0.507604 -4.1811, 1.09637 -4.18076, 1.66075 -4.30545, 2.20006 -4.55483, 2.20761 -4.55449, 2.21517 -4.55621, 2.22273 -4.55999, 2.23029 -4.56342, 2.24162 -4.56548, 2.25674 -4.56582, 2.38109 -4.56548, 2.44154 -4.5088, 2.43776 -4.39545, 2.43776 -4.32915, 2.42643 -4.28518, 2.40376 -4.26354, 2.13582 -3.89668, 1.79541 -3.60985, 1.38217 -3.40306, 0.969276 -3.19592, 0.530619 -3.09253, 0.0661991 -3.09287, -0.318528 -3.09253, -0.650354 -3.1365, -0.929968 -3.22478 L -0.929968 -1.12527 C -0.797718 -1.26405, -0.598485 -1.38771, -0.332611 -1.49591, -0.0667379 -1.60377, 0.232456 -1.65805, 0.564282 -1.65839, 0.888896 -1.65805, 1.19565 -1.58454, 1.48419 -1.4382, 1.77274 -1.29153, 2.02659 -1.10122, 2.2454 -0.866954, 2.47177 -0.602798, 2.63974 -0.310474, 2.74898 0.0100172, 2.85856 0.330852, 2.91318 0.659587, 2.91318 0.996222 Z" stroke="none" fill="#000000" transform="matrix(1.12 0 0 1 40.6069 6.66907)" />
			<rect />
		</svg>
	</g>
	<g transform="matrix(1 0 -0 1 390.88 108.261)">
		<svg width="141.067749" height="77.968071">
			<defs />
			<path d="M 8.15094 18.0887 L 0.0873122 18.0887, 0.0873122 17.5597 C 0.0873122 17.5219, 0.10715 17.4641, 0.146825 17.3866 L 3.38634 13.8664 C 3.76927 13.4438, 4.157 13.0109, 4.55014 12.5685, 4.94328 12.1261, 5.29555 11.674, 5.60573 11.2123, 5.91592 10.7507, 6.16359 10.2746, 6.34874 9.78404, 6.53389 9.29352, 6.62586 8.77894, 6.62586 8.23973, 6.62586 7.78527, 6.56635 7.36026, 6.44732 6.96592, 6.3283 6.57158, 6.15697 6.22532, 5.93215 5.92716, 5.70793 5.62899, 5.4272 5.38854, 5.09056 5.2058, 4.75392 5.02305, 4.36379 4.93168, 3.92135 4.93108, 3.26131 4.93168, 2.67821 5.12885, 2.17265 5.5232, 1.6677 5.91754, 1.33226 6.35216, 1.16695 6.82586, 1.13449 6.83908, 1.18739 6.84569, 1.32565 6.84509 L 1.49397 6.84509 C 1.69234 6.89078, 1.86367 6.95991, 2.00914 7.05248, 2.15462 7.14566, 2.27665 7.2737, 2.37583 7.43721, 2.47502 7.60072, 2.52431 7.79789, 2.52431 8.02813, 2.52431 8.41345, 2.39928 8.70861, 2.148 8.9136, 1.89673 9.11919, 1.616 9.22138, 1.30581 9.22078, 1.00885 9.22138, 0.731128 9.11919, 0.473842 8.9136, 0.216556 8.70861, 0.0873122 8.41345, 0.0873122 8.02813, 0.0873122 7.49011, 0.193112 6.98035, 0.404712 6.49944, 0.616311 6.01853, 0.903053 5.60194, 1.26614 5.24908, 1.62922 4.89681, 2.05843 4.61789, 2.55377 4.4123, 3.04911 4.20731, 3.5745 4.10452, 4.12935 4.10392, 4.81644 4.10452, 5.44583 4.20551, 6.01691 4.40749, 6.58799 4.60947, 7.07491 4.89982, 7.47767 5.27793, 7.88043 5.65665, 8.19602 6.09427, 8.42386 6.59081, 8.65169 7.08795, 8.7653 7.63739, 8.7653 8.23973, 8.7653 8.90699, 8.61381 9.52135, 8.30964 10.0822, 8.00607 10.6437, 7.62976 11.1582, 7.18071 11.6259, 6.73166 12.0942, 6.25436 12.5348, 5.7488 12.9484, 5.24385 13.362, 4.78639 13.7642, 4.37701 14.1549 L 2.09811 16.2997, 5.08034 16.2997 C 5.49633 16.3003, 5.88466 16.2973, 6.24414 16.2907, 6.60422 16.2847, 6.9096 16.2715, 7.16087 16.2523, 7.41214 16.233, 7.54079 16.2204, 7.5468 16.2132, 7.5997 16.1687, 7.64959 16.0791, 7.69588 15.9445, 7.74217 15.8098, 7.78485 15.6511, 7.82452 15.4684, 7.8642 15.2856, 7.90387 15.0999, 7.94355 14.9105, 7.98322 14.7218, 8.01929 14.5144, 8.05235 14.2896 L 8.78514 14.2896 Z" stroke="none" fill="#000000" />
			<polyline points="-2.44255 0 2.44255 0" fill="none" stroke="#000000" stroke-width="0.450240016" stroke-linecap="round" stroke-linejoin="round" transform="matrix(1 0 0 1 12.9259 6.66907)" />
			<path d="M 2.54664 3.4255 C 1.85241 3.40351, 1.17674 3.39252, 0.519953 3.39252, -0.136487 3.39252, -0.812163 3.40351, -1.50673 3.4255 L -1.50673 2.95283, -1.11582 2.95283 C -0.991473 2.95318, -0.874338 2.95146, -0.765103 2.94768, -0.655525 2.94424, -0.551786 2.93497, -0.453543 2.9202, -0.355301 2.90577, -0.270455 2.891, -0.199005 2.87589, -0.138548 2.86524, -0.0883965 2.83157, -0.0488932 2.77455, -0.00904655 2.71787, 0.0105331 2.65467, 0.0105331 2.58459 L 0.0105331 -3.6095 C -0.178051 -3.51744, -0.410261 -3.44771, -0.685753 -3.40031, -0.961245 -3.35256, -1.26319 -3.32886, -1.59158 -3.3292 L -1.59158 -3.79637 C -1.13849 -3.79603, -0.720447 -3.84996, -0.337438 -3.95816, 0.0455709 -4.06602, 0.37671 -4.26869, 0.655981 -4.56582 L 0.831512 -4.56582 C 0.955861 -4.56548, 1.01804 -4.50502, 1.01804 -4.38445 L 1.01804 2.58459 C 1.01804 2.6581, 1.03693 2.72234, 1.07471 2.7773, 1.1125 2.83226, 1.16746 2.86524, 1.23891 2.87589, 1.29937 2.891, 1.377 2.90577, 1.47112 2.9202, 1.56558 2.93497, 1.67207 2.94424, 1.79092 2.94768, 1.90978 2.95146, 2.02588 2.95318, 2.1389 2.95283 L 2.54664 2.95283, 2.54664 3.4255 Z" stroke="none" fill="#000000" transform="matrix(1.12 0 0 1 20.6686 6.66907)" />
			<path d="M 3.05573 -0.399786 C 3.05573 0.128183, 3.01897 0.65306, 2.94546 1.17519, 2.87195 1.69732, 2.6899 2.1875, 2.39929 2.64505, 2.19181 2.97894, 1.91426 3.23519, 1.56732 3.4145, 1.22038 3.59416, 0.842864 3.68381, 0.435123 3.68381, 0.0428391 3.68381, -0.327804 3.59416, -0.676806 3.4145, -1.02581 3.23519, -1.30439 2.97894, -1.51187 2.64505, -1.80213 2.1875, -1.98419 1.69732, -2.0577 1.17519, -2.13121 0.65306, -2.16831 0.128183, -2.16831 -0.399786, -2.16831 -0.934281, -2.13121 -1.46843, -2.0577 -2.00155, -1.98419 -2.53467, -1.80213 -3.03379, -1.51187 -3.49958, -1.30439 -3.83622, -1.02684 -4.09831, -0.679897 -4.28518, -0.332613 -4.47205, 0.0390606 -4.56548, 0.435123 -4.56582, 0.839086 -4.56548, 1.21522 -4.47205, 1.56423 -4.28518, 1.91323 -4.09831, 2.19181 -3.83622, 2.39929 -3.49958, 2.6899 -3.03379, 2.87195 -2.53467, 2.94546 -2.00155, 3.01897 -1.46843, 3.05573 -0.934281, 3.05573 -0.399786 Z M 1.93487 -0.592149 C 1.93487 -0.822641, 1.93315 -1.06619, 1.92937 -1.32279, 1.92594 -1.57904, 1.91632 -1.83014, 1.90121 -2.07575, 1.88609 -2.32101, 1.85895 -2.55288, 1.81911 -2.77101, 1.7796 -2.98879, 1.73151 -3.17497, 1.67484 -3.3292, 1.56148 -3.5779, 1.39557 -3.78229, 1.17675 -3.94167, 0.957939 -4.10106, 0.710614 -4.18076, 0.435123 -4.1811, 0.167188 -4.18076, -0.0749834 -4.10003, -0.292079 -3.93893, -0.508831 -3.77748, -0.674058 -3.57447, -0.787415 -3.3292, -0.84375 -3.17497, -0.89184 -2.98879, -0.931687 -2.77101, -0.97119 -2.55288, -0.998671 -2.32101, -1.01378 -2.07575, -1.0289 -1.83014, -1.03817 -1.57904, -1.04195 -1.32279, -1.04573 -1.06619, -1.04779 -0.822641, -1.04779 -0.592149, -1.04779 -0.335206, -1.04573 -0.0648673, -1.04195 0.218868, -1.03817 0.502948, -1.0289 0.777753, -1.01378 1.04328, -0.998671 1.30916, -0.97119 1.56095, -0.931687 1.799, -0.89184 2.03739, -0.84375 2.23697, -0.787415 2.39773, -0.681615 2.66566, -0.518106 2.8855, -0.297575 3.0576, -0.0770445 3.23004, 0.167188 3.31592, 0.435123 3.31557, 0.714393 3.31592, 0.964465 3.23004, 1.185 3.0576, 1.40587 2.8855, 1.56904 2.66566, 1.67484 2.39773, 1.73151 2.23697, 1.7796 2.03739, 1.81911 1.799, 1.85895 1.56095, 1.88609 1.30916, 1.90121 1.04328, 1.91632 0.777753, 1.92594 0.502948, 1.92937 0.218868, 1.93315 -0.0648673, 1.93487 -0.335206, 1.93487 -0.592149 Z" stroke="none" fill="#000000" transform="matrix(1.12 0 0 1 27.3147 6.66907)" />
			<path d="M 2.56417 3.4255 L -2.04362 3.4255, -2.04362 3.12321 C -2.04362 3.10157, -2.03228 3.06859, -2.00961 3.02428 L -0.158455 1.01271 C 0.0603578 0.771226, 0.281919 0.523902, 0.506572 0.271081, 0.731225 0.0182612, 0.932519 -0.240055, 1.10977 -0.503868, 1.28702 -0.76768, 1.42854 -1.03974, 1.53434 -1.32004, 1.64014 -1.60034, 1.6927 -1.89438, 1.6927 -2.2025, 1.6927 -2.46219, 1.65869 -2.70505, 1.59068 -2.93039, 1.52266 -3.15573, 1.42476 -3.35359, 1.29629 -3.52397, 1.16816 -3.69435, 1.00775 -3.83175, 0.815384 -3.93618, 0.62302 -4.0406, 0.400085 -4.09282, 0.147265 -4.09316, -0.229905 -4.09282, -0.563105 -3.98015, -0.851994 -3.75481, -1.14054 -3.52947, -1.33221 -3.28111, -1.42668 -3.01043, -1.44523 -3.00287, -1.415 -2.99909, -1.33599 -2.99944 L -1.23981 -2.99944 C -1.12645 -2.97333, -1.02856 -2.93383, -0.945427 -2.88093, -0.862299 -2.82769, -0.792567 -2.75452, -0.735889 -2.66108, -0.67921 -2.56765, -0.651043 -2.45498, -0.651043 -2.32342, -0.651043 -2.10323, -0.722492 -1.93457, -0.866077 -1.81743, -1.00966 -1.69996, -1.17008 -1.64156, -1.34733 -1.6419, -1.51702 -1.64156, -1.67572 -1.69996, -1.82274 -1.81743, -1.96976 -1.93457, -2.04362 -2.10323, -2.04362 -2.32342, -2.04362 -2.63086, -1.98316 -2.92215, -1.86224 -3.19695, -1.74133 -3.47176, -1.57748 -3.70981, -1.37 -3.91145, -1.16252 -4.11274, -0.91726 -4.27213, -0.634211 -4.38961, -0.351162 -4.50674, -0.0509381 -4.56548, 0.266118 -4.56582, 0.658745 -4.56548, 1.0184 -4.50777, 1.34473 -4.39235, 1.67106 -4.27694, 1.9493 -4.11102, 2.17945 -3.89496, 2.40959 -3.67855, 2.58994 -3.42848, 2.72012 -3.14474, 2.85031 -2.86066, 2.91524 -2.5467, 2.91524 -2.2025, 2.91524 -1.82121, 2.82867 -1.47015, 2.65486 -1.14966, 2.48139 -0.828824, 2.26635 -0.534783, 2.00975 -0.267536, 1.75315 5.53131e-005, 1.48041 0.251845, 1.19152 0.488177, 0.902978 0.724509, 0.64157 0.954315, 0.407642 1.17759 L -0.894588 2.40322, 0.809544 2.40322 C 1.04725 2.40357, 1.26916 2.40185, 1.47457 2.39807, 1.68033 2.39463, 1.85483 2.38708, 1.99842 2.37609, 2.142 2.36509, 2.21551 2.35788, 2.21895 2.35376, 2.24918 2.32834, 2.27769 2.27716, 2.30414 2.20021, 2.33059 2.12327, 2.35498 2.03258, 2.37765 1.92815, 2.40032 1.82373, 2.42299 1.71758, 2.44566 1.60938, 2.46833 1.50152, 2.48894 1.38301, 2.50784 1.25454 L 2.92657 1.25454 Z" stroke="none" fill="#000000" transform="matrix(1.12 0 0 1 33.9608 6.66907)" />
			<path d="M 2.56314 3.4255 L -2.04464 3.4255, -2.04464 3.12321 C -2.04464 3.10157, -2.03331 3.06859, -2.01064 3.02428 L -0.159484 1.01271 C 0.0593288 0.771226, 0.28089 0.523902, 0.505543 0.271081, 0.730196 0.0182612, 0.93149 -0.240055, 1.10874 -0.503868, 1.28599 -0.76768, 1.42751 -1.03974, 1.53331 -1.32004, 1.63911 -1.60034, 1.69167 -1.89438, 1.69167 -2.2025, 1.69167 -2.46219, 1.65766 -2.70505, 1.58965 -2.93039, 1.52163 -3.15573, 1.42373 -3.35359, 1.29526 -3.52397, 1.16714 -3.69435, 1.00672 -3.83175, 0.814355 -3.93618, 0.621991 -4.0406, 0.399056 -4.09282, 0.146236 -4.09316, -0.230934 -4.09282, -0.564134 -3.98015, -0.853023 -3.75481, -1.14157 -3.52947, -1.33324 -3.28111, -1.42771 -3.01043, -1.44626 -3.00287, -1.41603 -2.99909, -1.33702 -2.99944 L -1.24084 -2.99944 C -1.12748 -2.97333, -1.02958 -2.93383, -0.946456 -2.88093, -0.863328 -2.82769, -0.793596 -2.75452, -0.736918 -2.66108, -0.680239 -2.56765, -0.652072 -2.45498, -0.652072 -2.32342, -0.652072 -2.10323, -0.723521 -1.93457, -0.867106 -1.81743, -1.01069 -1.69996, -1.17111 -1.64156, -1.34836 -1.6419, -1.51805 -1.64156, -1.67675 -1.69996, -1.82377 -1.81743, -1.97079 -1.93457, -2.04464 -2.10323, -2.04464 -2.32342, -2.04464 -2.63086, -1.98419 -2.92215, -1.86327 -3.19695, -1.74236 -3.47176, -1.57851 -3.70981, -1.37103 -3.91145, -1.16355 -4.11274, -0.918289 -4.27213, -0.63524 -4.38961, -0.352191 -4.50674, -0.0519671 -4.56548, 0.265089 -4.56582, 0.657716 -4.56548, 1.01737 -4.50777, 1.3437 -4.39235, 1.67003 -4.27694, 1.94827 -4.11102, 2.17842 -3.89496, 2.40857 -3.67855, 2.58891 -3.42848, 2.71909 -3.14474, 2.84928 -2.86066, 2.91421 -2.5467, 2.91421 -2.2025, 2.91421 -1.82121, 2.82764 -1.47015, 2.65383 -1.14966, 2.48036 -0.828824, 2.26532 -0.534783, 2.00872 -0.267536, 1.75213 5.53131e-005, 1.47938 0.251845, 1.19049 0.488177, 0.901949 0.724509, 0.640541 0.954315, 0.406613 1.17759 L -0.895617 2.40322, 0.808515 2.40322 C 1.04622 2.40357, 1.26813 2.40185, 1.47354 2.39807, 1.6793 2.39463, 1.8538 2.38708, 1.99739 2.37609, 2.14097 2.36509, 2.21448 2.35788, 2.21792 2.35376, 2.24815 2.32834, 2.27666 2.27716, 2.30311 2.20021, 2.32956 2.12327, 2.35395 2.03258, 2.37662 1.92815, 2.39929 1.82373, 2.42196 1.71758, 2.44463 1.60938, 2.4673 1.50152, 2.48792 1.38301, 2.50681 1.25454 L 2.92554 1.25454 Z" stroke="none" fill="#000000" transform="matrix(1.12 0 0 1 40.6069 6.66907)" />
			<rect />
		</svg>
	</g>
	<ellipse cx="2160.438232421875" cy="470.50057983398437" rx="20" ry="20" stroke="none" fill="#58931B" transform="matrix(0.2 0 0 0.2 64.8548 -12.87)" />
	<ellipse cx="2160.4383144378662" cy="470.50057029724121" rx="13.333333969116211" ry="13.333333969116211" stroke="none" fill="#FFFFFF" transform="matrix(0.2 0 0 0.2 64.8548 -12.87)" />
	<g transform="matrix(1 0 -0 1 479.052 95.5499)">
		<svg width="114.085693" height="53.8404121">
			<defs />
			<path d="M 8.15094 18.0887 L 0.0873122 18.0887, 0.0873122 17.5597 C 0.0873122 17.5219, 0.10715 17.4641, 0.146825 17.3866 L 3.38634 13.8664 C 3.76927 13.4438, 4.157 13.0109, 4.55014 12.5685, 4.94328 12.1261, 5.29555 11.674, 5.60573 11.2123, 5.91592 10.7507, 6.16359 10.2746, 6.34874 9.78404, 6.53389 9.29352, 6.62586 8.77894, 6.62586 8.23973, 6.62586 7.78527, 6.56635 7.36026, 6.44732 6.96592, 6.3283 6.57158, 6.15697 6.22532, 5.93215 5.92716, 5.70793 5.62899, 5.4272 5.38854, 5.09056 5.2058, 4.75392 5.02305, 4.36379 4.93168, 3.92135 4.93108, 3.26131 4.93168, 2.67821 5.12885, 2.17265 5.5232, 1.6677 5.91754, 1.33226 6.35216, 1.16695 6.82586, 1.13449 6.83908, 1.18739 6.84569, 1.32565 6.84509 L 1.49397 6.84509 C 1.69234 6.89078, 1.86367 6.95991, 2.00914 7.05248, 2.15462 7.14566, 2.27665 7.2737, 2.37583 7.43721, 2.47502 7.60072, 2.52431 7.79789, 2.52431 8.02813, 2.52431 8.41345, 2.39928 8.70861, 2.148 8.9136, 1.89673 9.11919, 1.616 9.22138, 1.30581 9.22078, 1.00885 9.22138, 0.731128 9.11919, 0.473842 8.9136, 0.216556 8.70861, 0.0873122 8.41345, 0.0873122 8.02813, 0.0873122 7.49011, 0.193112 6.98035, 0.404712 6.49944, 0.616311 6.01853, 0.903053 5.60194, 1.26614 5.24908, 1.62922 4.89681, 2.05843 4.61789, 2.55377 4.4123, 3.04911 4.20731, 3.5745 4.10452, 4.12935 4.10392, 4.81644 4.10452, 5.44583 4.20551, 6.01691 4.40749, 6.58799 4.60947, 7.07491 4.89982, 7.47767 5.27793, 7.88043 5.65665, 8.19602 6.09427, 8.42386 6.59081, 8.65169 7.08795, 8.7653 7.63739, 8.7653 8.23973, 8.7653 8.90699, 8.61381 9.52135, 8.30964 10.0822, 8.00607 10.6437, 7.62976 11.1582, 7.18071 11.6259, 6.73166 12.0942, 6.25436 12.5348, 5.7488 12.9484, 5.24385 13.362, 4.78639 13.7642, 4.37701 14.1549 L 2.09811 16.2997, 5.08034 16.2997 C 5.49633 16.3003, 5.88466 16.2973, 6.24414 16.2907, 6.60422 16.2847, 6.9096 16.2715, 7.16087 16.2523, 7.41214 16.233, 7.54079 16.2204, 7.5468 16.2132, 7.5997 16.1687, 7.64959 16.0791, 7.69588 15.9445, 7.74217 15.8098, 7.78485 15.6511, 7.82452 15.4684, 7.8642 15.2856, 7.90387 15.0999, 7.94355 14.9105, 7.98322 14.7218, 8.01929 14.5144, 8.05235 14.2896 L 8.78514 14.2896 Z" stroke="none" fill="#000000" />
			<path d="M 2.54664 3.4255 C 1.85241 3.40351, 1.17674 3.39252, 0.519953 3.39252, -0.136487 3.39252, -0.812163 3.40351, -1.50673 3.4255 L -1.50673 2.95283, -1.11582 2.95283 C -0.991473 2.95318, -0.874338 2.95146, -0.765103 2.94768, -0.655525 2.94424, -0.551786 2.93497, -0.453543 2.9202, -0.355301 2.90577, -0.270455 2.891, -0.199005 2.87589, -0.138548 2.86524, -0.0883965 2.83157, -0.0488932 2.77455, -0.00904655 2.71787, 0.0105331 2.65467, 0.0105331 2.58459 L 0.0105331 -3.6095 C -0.178051 -3.51744, -0.410261 -3.44771, -0.685753 -3.40031, -0.961245 -3.35256, -1.26319 -3.32886, -1.59158 -3.3292 L -1.59158 -3.79637 C -1.13849 -3.79603, -0.720447 -3.84996, -0.337438 -3.95816, 0.0455709 -4.06602, 0.37671 -4.26869, 0.655981 -4.56582 L 0.831512 -4.56582 C 0.955861 -4.56548, 1.01804 -4.50502, 1.01804 -4.38445 L 1.01804 2.58459 C 1.01804 2.6581, 1.03693 2.72234, 1.07471 2.7773, 1.1125 2.83226, 1.16746 2.86524, 1.23891 2.87589, 1.29937 2.891, 1.377 2.90577, 1.47112 2.9202, 1.56558 2.93497, 1.67207 2.94424, 1.79092 2.94768, 1.90978 2.95146, 2.02588 2.95318, 2.1389 2.95283 L 2.54664 2.95283, 2.54664 3.4255 Z" stroke="none" fill="#000000" transform="matrix(1.12 0 0 1 12.5193 6.66907)" />
			<path d="M 3.05573 -0.399786 C 3.05573 0.128183, 3.01897 0.65306, 2.94546 1.17519, 2.87195 1.69732, 2.6899 2.1875, 2.39929 2.64505, 2.19181 2.97894, 1.91426 3.23519, 1.56732 3.4145, 1.22038 3.59416, 0.842864 3.68381, 0.435123 3.68381, 0.0428391 3.68381, -0.327804 3.59416, -0.676806 3.4145, -1.02581 3.23519, -1.30439 2.97894, -1.51187 2.64505, -1.80213 2.1875, -1.98419 1.69732, -2.0577 1.17519, -2.13121 0.65306, -2.16831 0.128183, -2.16831 -0.399786, -2.16831 -0.934281, -2.13121 -1.46843, -2.0577 -2.00155, -1.98419 -2.53467, -1.80213 -3.03379, -1.51187 -3.49958, -1.30439 -3.83622, -1.02684 -4.09831, -0.679897 -4.28518, -0.332613 -4.47205, 0.0390606 -4.56548, 0.435123 -4.56582, 0.839086 -4.56548, 1.21522 -4.47205, 1.56423 -4.28518, 1.91323 -4.09831, 2.19181 -3.83622, 2.39929 -3.49958, 2.6899 -3.03379, 2.87195 -2.53467, 2.94546 -2.00155, 3.01897 -1.46843, 3.05573 -0.934281, 3.05573 -0.399786 Z M 1.93487 -0.592149 C 1.93487 -0.822641, 1.93315 -1.06619, 1.92937 -1.32279, 1.92594 -1.57904, 1.91632 -1.83014, 1.90121 -2.07575, 1.88609 -2.32101, 1.85895 -2.55288, 1.81911 -2.77101, 1.7796 -2.98879, 1.73151 -3.17497, 1.67484 -3.3292, 1.56148 -3.5779, 1.39557 -3.78229, 1.17675 -3.94167, 0.957939 -4.10106, 0.710614 -4.18076, 0.435123 -4.1811, 0.167188 -4.18076, -0.0749834 -4.10003, -0.292079 -3.93893, -0.508831 -3.77748, -0.674058 -3.57447, -0.787415 -3.3292, -0.84375 -3.17497, -0.89184 -2.98879, -0.931687 -2.77101, -0.97119 -2.55288, -0.998671 -2.32101, -1.01378 -2.07575, -1.0289 -1.83014, -1.03817 -1.57904, -1.04195 -1.32279, -1.04573 -1.06619, -1.04779 -0.822641, -1.04779 -0.592149, -1.04779 -0.335206, -1.04573 -0.0648673, -1.04195 0.218868, -1.03817 0.502948, -1.0289 0.777753, -1.01378 1.04328, -0.998671 1.30916, -0.97119 1.56095, -0.931687 1.799, -0.89184 2.03739, -0.84375 2.23697, -0.787415 2.39773, -0.681615 2.66566, -0.518106 2.8855, -0.297575 3.0576, -0.0770445 3.23004, 0.167188 3.31592, 0.435123 3.31557, 0.714393 3.31592, 0.964465 3.23004, 1.185 3.0576, 1.40587 2.8855, 1.56904 2.66566, 1.67484 2.39773, 1.73151 2.23697, 1.7796 2.03739, 1.81911 1.799, 1.85895 1.56095, 1.88609 1.30916, 1.90121 1.04328, 1.91632 0.777753, 1.92594 0.502948, 1.92937 0.218868, 1.93315 -0.0648673, 1.93487 -0.335206, 1.93487 -0.592149 Z" stroke="none" fill="#000000" transform="matrix(1.12 0 0 1 19.1654 6.66907)" />
			<path d="M 2.56417 3.4255 L -2.04362 3.4255, -2.04362 3.12321 C -2.04362 3.10157, -2.03228 3.06859, -2.00961 3.02428 L -0.158455 1.01271 C 0.0603578 0.771226, 0.281919 0.523902, 0.506572 0.271081, 0.731225 0.0182612, 0.932519 -0.240055, 1.10977 -0.503868, 1.28702 -0.76768, 1.42854 -1.03974, 1.53434 -1.32004, 1.64014 -1.60034, 1.6927 -1.89438, 1.6927 -2.2025, 1.6927 -2.46219, 1.65869 -2.70505, 1.59068 -2.93039, 1.52266 -3.15573, 1.42476 -3.35359, 1.29629 -3.52397, 1.16816 -3.69435, 1.00775 -3.83175, 0.815384 -3.93618, 0.62302 -4.0406, 0.400085 -4.09282, 0.147265 -4.09316, -0.229905 -4.09282, -0.563105 -3.98015, -0.851994 -3.75481, -1.14054 -3.52947, -1.33221 -3.28111, -1.42668 -3.01043, -1.44523 -3.00287, -1.415 -2.99909, -1.33599 -2.99944 L -1.23981 -2.99944 C -1.12645 -2.97333, -1.02856 -2.93383, -0.945427 -2.88093, -0.862299 -2.82769, -0.792567 -2.75452, -0.735889 -2.66108, -0.67921 -2.56765, -0.651043 -2.45498, -0.651043 -2.32342, -0.651043 -2.10323, -0.722492 -1.93457, -0.866077 -1.81743, -1.00966 -1.69996, -1.17008 -1.64156, -1.34733 -1.6419, -1.51702 -1.64156, -1.67572 -1.69996, -1.82274 -1.81743, -1.96976 -1.93457, -2.04362 -2.10323, -2.04362 -2.32342, -2.04362 -2.63086, -1.98316 -2.92215, -1.86224 -3.19695, -1.74133 -3.47176, -1.57748 -3.70981, -1.37 -3.91145, -1.16252 -4.11274, -0.91726 -4.27213, -0.634211 -4.38961, -0.351162 -4.50674, -0.0509381 -4.56548, 0.266118 -4.56582, 0.658745 -4.56548, 1.0184 -4.50777, 1.34473 -4.39235, 1.67106 -4.27694, 1.9493 -4.11102, 2.17945 -3.89496, 2.40959 -3.67855, 2.58994 -3.42848, 2.72012 -3.14474, 2.85031 -2.86066, 2.91524 -2.5467, 2.91524 -2.2025, 2.91524 -1.82121, 2.82867 -1.47015, 2.65486 -1.14966, 2.48139 -0.828824, 2.26635 -0.534783, 2.00975 -0.267536, 1.75315 5.53131e-005, 1.48041 0.251845, 1.19152 0.488177, 0.902978 0.724509, 0.64157 0.954315, 0.407642 1.17759 L -0.894588 2.40322, 0.809544 2.40322 C 1.04725 2.40357, 1.26916 2.40185, 1.47457 2.39807, 1.68033 2.39463, 1.85483 2.38708, 1.99842 2.37609, 2.142 2.36509, 2.21551 2.35788, 2.21895 2.35376, 2.24918 2.32834, 2.27769 2.27716, 2.30414 2.20021, 2.33059 2.12327, 2.35498 2.03258, 2.37765 1.92815, 2.40032 1.82373, 2.42299 1.71758, 2.44566 1.60938, 2.46833 1.50152, 2.48894 1.38301, 2.50784 1.25454 L 2.92657 1.25454 Z" stroke="none" fill="#000000" transform="matrix(1.12 0 0 1 25.8115 6.66907)" />
			<path d="M 1.97918 1.46889 L 1.97918 2.58459 C 1.97918 2.65089, 1.99155 2.71238, 2.01628 2.76906, 2.04101 2.82608, 2.08155 2.86352, 2.13788 2.88138, 2.22479 2.92192, 2.36631 2.94424, 2.56246 2.94768, 2.7586 2.95146, 2.95646 2.95318, 3.15638 2.95283 L 3.15638 3.4255 C 2.57929 3.40351, 2.01353 3.39252, 1.45843 3.39252, 0.911567 3.39252, 0.336195 3.40351, -0.267689 3.4255 L -0.267689 2.95283 C -0.0602112 2.95318, 0.140053 2.95146, 0.332416 2.94768, 0.524779 2.94424, 0.668365 2.92192, 0.762486 2.88138, 0.819164 2.86352, 0.860728 2.82608, 0.887178 2.76906, 0.913628 2.71238, 0.926681 2.65089, 0.926681 2.58459 L 0.926681 1.46889, -2.29953 1.46889, -2.29953 1.0237, 1.4811 -4.5988 C 1.53056 -4.66441, 1.59274 -4.69739, 1.66797 -4.69773 L 1.79266 -4.69773 C 1.91701 -4.69739, 1.97918 -4.63521, 1.97918 -4.51086 L 1.97918 0.98523, 3.19622 0.98523, 3.19622 1.46889 Z M 0.983016 -3.15333 L -1.80144 0.98523, 0.983016 0.98523 Z" stroke="none" fill="#000000" transform="matrix(1.12 0 0 1 32.4576 6.66907)" />
			<rect />
		</svg>
	</g>
	<g transform="matrix(1 0 -0 1 546.848 95.6119)">
		<svg width="182.976044" height="129.095718">
			<defs />
			<polyline points="-7.035 0 7.035 0" fill="none" stroke="#000000" stroke-width="0.80400002" stroke-linecap="round" stroke-linejoin="round" transform="matrix(1 0 0 1 7.035 12.008)" />
			<polyline points="0 -7.035 0 7.035" fill="none" stroke="#000000" stroke-width="0.80400002" stroke-linecap="round" stroke-linejoin="round" transform="matrix(1 0 0 1 7.035 12.008)" />
			<path d="M 26.4145 18.026 C 25.303 17.9867, 24.2142 17.9671, 23.1493 17.9671, 22.0979 17.9671, 21.0128 17.9867, 19.894 18.026 L 19.894 17.2114 C 20.2786 17.212, 20.6509 17.2071, 21.0116 17.1973, 21.3723 17.1875, 21.6465 17.1531, 21.8348 17.0936, 21.9293 17.0617, 22.0022 16.9979, 22.0525 16.9029, 22.1028 16.8084, 22.128 16.7017, 22.128 16.5833 L 22.128 5.52239 C 22.128 5.40523, 22.1028 5.29912, 22.0525 5.20404, 22.0022 5.10957, 21.9293 5.04517, 21.8348 5.01204, 21.6465 4.95377, 21.3723 4.92126, 21.0116 4.91451, 20.6509 4.90838, 20.2786 4.9047, 19.894 4.90408 L 19.894 4.0993 C 21.0128 4.12629, 22.0979 4.13917, 23.1493 4.13856, 24.2142 4.13917, 25.303 4.12629, 26.4145 4.0993 L 26.4145 4.90408 C 26.0305 4.9047, 25.6581 4.90838, 25.2975 4.91451, 24.9368 4.92126, 24.6656 4.95377, 24.4835 5.01204, 24.389 5.04517, 24.3154 5.1108, 24.2614 5.20895, 24.2074 5.30709, 24.1804 5.41198, 24.1804 5.52239 L 24.1804 16.5833 C 24.1804 16.7017, 24.2062 16.8084, 24.2565 16.9029, 24.3068 16.9979, 24.3829 17.0617, 24.4835 17.0936, 24.6724 17.1531, 24.9454 17.1875, 25.3024 17.1973, 25.6594 17.2071, 26.0305 17.212, 26.4145 17.2114 L 26.4145 18.026 Z" stroke="none" fill="#000000" />
			<path d="M 37.8856 18.0358 C 37.0299 17.9904, 36.2146 17.9671, 35.4393 17.9671, 34.6517 17.9671, 33.8463 17.9904, 33.0243 18.0358 L 33.0243 17.2114 C 33.3274 17.212, 33.6052 17.2071, 33.8579 17.1973, 34.1107 17.1875, 34.3014 17.1531, 34.429 17.0936, 34.5032 17.055, 34.5523 16.9881, 34.5756 16.8931, 34.5989 16.7986, 34.6106 16.6949, 34.6106 16.5833 L 34.6106 11.7938 C 34.6106 11.4675, 34.594 11.1565, 34.5603 10.8621, 34.5272 10.5676, 34.4327 10.2996, 34.2775 10.0567, 34.1831 9.90025, 34.0432 9.78616, 33.8579 9.71378, 33.6727 9.64201, 33.4758 9.60582, 33.2666 9.60521, 32.8826 9.60582, 32.5244 9.68618, 32.1907 9.84627, 31.857 10.007, 31.5724 10.2229, 31.3362 10.494, 31.1007 10.7658, 30.9118 11.0847, 30.7701 11.4509, 30.629 11.8178, 30.5578 12.1999, 30.5578 12.5986 L 30.5578 16.5833 C 30.5578 16.6949, 30.5713 16.7986, 30.5983 16.8931, 30.6253 16.9881, 30.6793 17.055, 30.7603 17.0936, 30.8885 17.1531, 31.0805 17.1875, 31.3362 17.1973, 31.5926 17.2071, 31.8687 17.212, 32.165 17.2114 L 32.165 18.026 C 31.8214 18.0131, 31.5049 18.0033, 31.2154 17.9966, 30.9259 17.9904, 30.6425 17.9806, 30.3658 17.9671 L 29.7291 17.9671 C 28.9409 17.9671, 28.1355 17.9904, 27.3135 18.0358 L 27.3135 17.2114 C 27.6172 17.212, 27.8951 17.2071, 28.1478 17.1973, 28.4005 17.1875, 28.5913 17.1531, 28.7189 17.0936, 28.7998 17.055, 28.8532 16.9881, 28.8802 16.8931, 28.9072 16.7986, 28.9207 16.6949, 28.9207 16.5833 L 28.9207 11.0087 C 28.9207 10.8259, 28.9127 10.6596, 28.8955 10.5087, 28.879 10.3585, 28.8133 10.237, 28.6986 10.145, 28.5845 10.0671, 28.3993 10.0217, 28.1429 10.0082, 27.8865 9.99533, 27.6104 9.98858, 27.3135 9.98797 L 27.3135 9.17337, 29.0519 9.04578, 30.4468 8.93782, 30.4468 10.6259 C 30.575 10.3253, 30.9038 9.9708, 31.4326 9.56166, 31.9613 9.15313, 32.5864 8.94825, 33.3071 8.94764, 33.685 8.94825, 34.0739 8.99242, 34.4744 9.08075, 34.8756 9.16908, 35.2277 9.36046, 35.5307 9.65489, 35.8337 9.94933, 36.0325 10.2879, 36.1269 10.6707, 36.2214 11.0535, 36.2686 11.4282, 36.2686 11.7938 L 36.2686 16.5833 C 36.2686 16.6949, 36.2821 16.7986, 36.3091 16.8931, 36.3361 16.9881, 36.3895 17.055, 36.4704 17.0936, 36.5986 17.1531, 36.7906 17.1875, 37.0464 17.1973, 37.3028 17.2071, 37.5825 17.212, 37.8856 17.2114 L 37.8856 18.0358 Z" stroke="none" fill="#000000" />
			<path d="M 45.5438 5.1887 C 45.5438 5.51626, 45.4365 5.76224, 45.2206 5.9254, 45.0047 6.08918, 44.7691 6.17076, 44.5127 6.17015, 44.2637 6.17076, 44.0367 6.08918, 43.8306 5.9254, 43.6251 5.76224, 43.5221 5.51626, 43.5221 5.1887, 43.5221 4.92126, 43.6705 4.62989, 43.9668 4.31522, 43.9539 4.30908, 43.819 4.30295, 43.5626 4.29559, 43.3203 4.2962, 43.0945 4.35877, 42.886 4.48268, 42.6774 4.6072, 42.4952 4.78018, 42.34 5.00223, 42.1511 5.25802, 42.0131 5.54448, 41.9254 5.86161, 41.8383 6.17935, 41.7941 6.5112, 41.7941 6.85716 L 41.7941 9.16356, 44.1993 9.16356, 44.1993 9.98797, 41.8647 9.98797, 41.8647 16.5833 C 41.8647 16.7017, 41.8849 16.8084, 41.9254 16.9029, 41.9659 16.9979, 42.0303 17.0617, 42.1174 17.0936, 42.2793 17.1531, 42.5253 17.1875, 42.8553 17.1973, 43.1853 17.2071, 43.5227 17.212, 43.8662 17.2114 L 43.8662 18.026 C 42.9565 18.0002, 42.0873 17.9806, 41.2586 17.9671 L 40.9151 17.9671 C 40.2011 17.9671, 39.4497 17.9904, 38.6609 18.0358 L 38.6609 17.2114 C 38.9645 17.212, 39.2424 17.2071, 39.4951 17.1973, 39.7478 17.1875, 39.938 17.1531, 40.0662 17.0936, 40.1471 17.055, 40.2005 16.9881, 40.2275 16.8931, 40.2545 16.7986, 40.268 16.6949, 40.268 16.5833 L 40.268 9.98797, 38.6105 9.98797, 38.6105 9.16356, 40.268 9.16356, 40.268 6.85716 C 40.268 6.43268, 40.3538 6.02048, 40.5256 5.62115, 40.6973 5.22244, 40.9421 4.87832, 41.2586 4.59002, 41.569 4.28945, 41.926 4.05575, 42.3302 3.8889, 42.7345 3.72206, 43.1589 3.63863, 43.603 3.63802, 43.8392 3.63863, 44.0698 3.67482, 44.2956 3.74659, 44.5213 3.81897, 44.7305 3.91712, 44.9225 4.04103, 45.1145 4.16555, 45.266 4.32564, 45.377 4.52193, 45.4886 4.71822, 45.5438 4.94089, 45.5438 5.1887 Z" stroke="none" fill="#000000" />
			<rect />
		</svg>
	</g>
	<ellipse cx="178.92721557617187" cy="470.50057983398437" rx="20" ry="20" stroke="none" fill="#58931B" transform="matrix(0.2 0 0 0.2 64.8548 -12.87)" />
	<ellipse cx="178.92722129821777" cy="470.50057029724121" rx="13.333333969116211" ry="13.333333969116211" stroke="none" fill="#FFFFFF" transform="matrix(0.2 0 0 0.2 64.8548 -12.87)" />
	<g transform="matrix(1 0 -0 1 218.54 108.261)">
		<svg width="222.013885" height="99.2233734">
			<defs />
			<polyline points="-4.3617 0 4.3617 0" fill="none" stroke="#000000" stroke-width="0.80400002" stroke-linecap="round" stroke-linejoin="round" transform="matrix(1 0 0 1 4.3617 12.1321)" />
			<path d="M 22.7033 18.0887 L 14.6397 18.0887, 14.6397 17.5597 C 14.6397 17.5219, 14.6595 17.4641, 14.6992 17.3866 L 17.9387 13.8664 C 18.3217 13.4438, 18.7094 13.0109, 19.1025 12.5685, 19.4957 12.1261, 19.8479 11.674, 20.1581 11.2123, 20.4683 10.7507, 20.716 10.2746, 20.9011 9.78404, 21.0863 9.29352, 21.1783 8.77894, 21.1783 8.23973, 21.1783 7.78527, 21.1187 7.36026, 20.9997 6.96592, 20.8807 6.57158, 20.7094 6.22532, 20.4846 5.92716, 20.2603 5.62899, 19.9796 5.38854, 19.643 5.2058, 19.3063 5.02305, 18.9162 4.93168, 18.4738 4.93108, 17.8137 4.93168, 17.2306 5.12885, 16.725 5.5232, 16.2201 5.91754, 15.8847 6.35216, 15.7194 6.82586, 15.6869 6.83908, 15.7398 6.84569, 15.8781 6.84509 L 16.0464 6.84509 C 16.2447 6.89078, 16.4161 6.95991, 16.5615 7.05248, 16.707 7.14566, 16.829 7.2737, 16.9282 7.43721, 17.0274 7.60072, 17.0767 7.79789, 17.0767 8.02813, 17.0767 8.41345, 16.9517 8.70861, 16.7004 8.9136, 16.4491 9.11919, 16.1684 9.22138, 15.8582 9.22078, 15.5613 9.22138, 15.2835 9.11919, 15.0262 8.9136, 14.769 8.70861, 14.6397 8.41345, 14.6397 8.02813, 14.6397 7.49011, 14.7455 6.98035, 14.9571 6.49944, 15.1687 6.01853, 15.4555 5.60194, 15.8185 5.24908, 16.1816 4.89681, 16.6108 4.61789, 17.1062 4.4123, 17.6015 4.20731, 18.1269 4.10452, 18.6817 4.10392, 19.3688 4.10452, 19.9982 4.20551, 20.5693 4.40749, 21.1404 4.60947, 21.6273 4.89982, 22.0301 5.27793, 22.4328 5.65665, 22.7484 6.09427, 22.9763 6.59081, 23.2041 7.08795, 23.3177 7.63739, 23.3177 8.23973, 23.3177 8.90699, 23.1662 9.52135, 22.862 10.0822, 22.5585 10.6437, 22.1822 11.1582, 21.7331 11.6259, 21.2841 12.0942, 20.8068 12.5348, 20.3012 12.9484, 19.7962 13.362, 19.3388 13.7642, 18.9294 14.1549 L 16.6505 16.2997, 19.6327 16.2997 C 20.0487 16.3003, 20.4371 16.2973, 20.7965 16.2907, 21.1566 16.2847, 21.462 16.2715, 21.7133 16.2523, 21.9645 16.233, 22.0932 16.2204, 22.0992 16.2132, 22.1521 16.1687, 22.202 16.0791, 22.2483 15.9445, 22.2946 15.8098, 22.3372 15.6511, 22.3769 15.4684, 22.4166 15.2856, 22.4563 15.0999, 22.4959 14.9105, 22.5356 14.7218, 22.5717 14.5144, 22.6048 14.2896 L 23.3375 14.2896 Z" stroke="none" fill="#000000" />
			<polyline points="-2.44255 0 2.44255 0" fill="none" stroke="#000000" stroke-width="0.450240016" stroke-linecap="round" stroke-linejoin="round" transform="matrix(1 0 0 1 27.4783 6.66907)" />
			<path d="M 2.54664 3.4255 C 1.85241 3.40351, 1.17674 3.39252, 0.519953 3.39252, -0.136487 3.39252, -0.812163 3.40351, -1.50673 3.4255 L -1.50673 2.95283, -1.11582 2.95283 C -0.991473 2.95318, -0.874338 2.95146, -0.765103 2.94768, -0.655525 2.94424, -0.551786 2.93497, -0.453543 2.9202, -0.355301 2.90577, -0.270455 2.891, -0.199005 2.87589, -0.138548 2.86524, -0.0883965 2.83157, -0.0488932 2.77455, -0.00904655 2.71787, 0.0105331 2.65467, 0.0105331 2.58459 L 0.0105331 -3.6095 C -0.178051 -3.51744, -0.410261 -3.44771, -0.685753 -3.40031, -0.961245 -3.35256, -1.26319 -3.32886, -1.59158 -3.3292 L -1.59158 -3.79637 C -1.13849 -3.79603, -0.720447 -3.84996, -0.337438 -3.95816, 0.0455709 -4.06602, 0.37671 -4.26869, 0.655981 -4.56582 L 0.831512 -4.56582 C 0.955861 -4.56548, 1.01804 -4.50502, 1.01804 -4.38445 L 1.01804 2.58459 C 1.01804 2.6581, 1.03693 2.72234, 1.07471 2.7773, 1.1125 2.83226, 1.16746 2.86524, 1.23891 2.87589, 1.29937 2.891, 1.377 2.90577, 1.47112 2.9202, 1.56558 2.93497, 1.67207 2.94424, 1.79092 2.94768, 1.90978 2.95146, 2.02588 2.95318, 2.1389 2.95283 L 2.54664 2.95283, 2.54664 3.4255 Z" stroke="none" fill="#000000" transform="matrix(1.12 0 0 1 35.221 6.66907)" />
			<path d="M 3.05573 -0.399786 C 3.05573 0.128183, 3.01897 0.65306, 2.94546 1.17519, 2.87195 1.69732, 2.6899 2.1875, 2.39929 2.64505, 2.19181 2.97894, 1.91426 3.23519, 1.56732 3.4145, 1.22038 3.59416, 0.842864 3.68381, 0.435123 3.68381, 0.0428391 3.68381, -0.327804 3.59416, -0.676806 3.4145, -1.02581 3.23519, -1.30439 2.97894, -1.51187 2.64505, -1.80213 2.1875, -1.98419 1.69732, -2.0577 1.17519, -2.13121 0.65306, -2.16831 0.128183, -2.16831 -0.399786, -2.16831 -0.934281, -2.13121 -1.46843, -2.0577 -2.00155, -1.98419 -2.53467, -1.80213 -3.03379, -1.51187 -3.49958, -1.30439 -3.83622, -1.02684 -4.09831, -0.679897 -4.28518, -0.332613 -4.47205, 0.0390606 -4.56548, 0.435123 -4.56582, 0.839086 -4.56548, 1.21522 -4.47205, 1.56423 -4.28518, 1.91323 -4.09831, 2.19181 -3.83622, 2.39929 -3.49958, 2.6899 -3.03379, 2.87195 -2.53467, 2.94546 -2.00155, 3.01897 -1.46843, 3.05573 -0.934281, 3.05573 -0.399786 Z M 1.93487 -0.592149 C 1.93487 -0.822641, 1.93315 -1.06619, 1.92937 -1.32279, 1.92594 -1.57904, 1.91632 -1.83014, 1.90121 -2.07575, 1.88609 -2.32101, 1.85895 -2.55288, 1.81911 -2.77101, 1.7796 -2.98879, 1.73151 -3.17497, 1.67484 -3.3292, 1.56148 -3.5779, 1.39557 -3.78229, 1.17675 -3.94167, 0.957939 -4.10106, 0.710614 -4.18076, 0.435123 -4.1811, 0.167188 -4.18076, -0.0749834 -4.10003, -0.292079 -3.93893, -0.508831 -3.77748, -0.674058 -3.57447, -0.787415 -3.3292, -0.84375 -3.17497, -0.89184 -2.98879, -0.931687 -2.77101, -0.97119 -2.55288, -0.998671 -2.32101, -1.01378 -2.07575, -1.0289 -1.83014, -1.03817 -1.57904, -1.04195 -1.32279, -1.04573 -1.06619, -1.04779 -0.822641, -1.04779 -0.592149, -1.04779 -0.335206, -1.04573 -0.0648673, -1.04195 0.218868, -1.03817 0.502948, -1.0289 0.777753, -1.01378 1.04328, -0.998671 1.30916, -0.97119 1.56095, -0.931687 1.799, -0.89184 2.03739, -0.84375 2.23697, -0.787415 2.39773, -0.681615 2.66566, -0.518106 2.8855, -0.297575 3.0576, -0.0770445 3.23004, 0.167188 3.31592, 0.435123 3.31557, 0.714393 3.31592, 0.964465 3.23004, 1.185 3.0576, 1.40587 2.8855, 1.56904 2.66566, 1.67484 2.39773, 1.73151 2.23697, 1.7796 2.03739, 1.81911 1.799, 1.85895 1.56095, 1.88609 1.30916, 1.90121 1.04328, 1.91632 0.777753, 1.92594 0.502948, 1.92937 0.218868, 1.93315 -0.0648673, 1.93487 -0.335206, 1.93487 -0.592149 Z" stroke="none" fill="#000000" transform="matrix(1.12 0 0 1 41.8671 6.66907)" />
			<path d="M 3.35561 -4.01072 C 3.35561 -3.98839, 3.34634 -3.95713, 3.32744 -3.91729 L 1.62949 -1.59244 C 1.41068 -1.28809, 1.23996 -0.9518, 1.11733 -0.583561, 0.994694 -0.215323, 0.9071 0.171465, 0.8542 0.576115, 0.8013 0.981108, 0.768323 1.39435, 0.754927 1.81548, 0.741874 2.23697, 0.735003 2.66188, 0.735003 3.09023, 0.735003 3.28844, 0.670081 3.43855, 0.539892 3.54091, 0.410047 3.64362, 0.267492 3.6948, 0.112571 3.6948, -0.042007 3.6948, -0.182501 3.64362, -0.308911 3.54091, -0.435321 3.43855, -0.498526 3.28844, -0.498526 3.09023, -0.498526 2.19643, -0.342918 1.33664, -0.0317018 0.510162, 0.279515 -0.31597, 0.699279 -1.09195, 1.22759 -1.81778 L 2.30276 -3.27424, 0.265431 -3.27424 C 0.00917554 -3.2739, -0.229561 -3.27184, -0.450435 -3.2684, -0.670966 -3.26462, -0.858864 -3.2581, -1.01344 -3.24917, -1.16802 -3.23989, -1.24737 -3.23371, -1.25149 -3.23027, -1.28928 -3.19695, -1.32225 -3.14199, -1.35042 -3.06505, -1.37859 -2.9881, -1.40504 -2.8981, -1.42977 -2.79574, -1.45416 -2.69303, -1.4758 -2.58689, -1.49469 -2.47697, -1.51359 -2.36704, -1.53248 -2.24991, -1.55137 -2.12556 L -1.97011 -2.12556, -1.56271 -4.68674, -1.14947 -4.68674, -1.14947 -4.57682 C -1.14947 -4.53628, -1.1268 -4.49781, -1.0818 -4.4614, -1.00245 -4.40987, -0.919321 -4.3769, -0.832757 -4.36247, -0.730736 -4.34736, -0.606043 -4.33362, -0.459023 -4.32091, -0.312002 -4.30785, -0.154333 -4.29961, 0.0136411 -4.29617, 0.181615 -4.29239, 0.350277 -4.29068, 0.519969 -4.29102 L 3.35561 -4.29102, 3.35561 -4.01072 Z" stroke="none" fill="#000000" transform="matrix(1.12 0 0 1 48.5132 6.66907)" />
			<path d="M 2.91318 0.996222 C 2.91318 1.35553, 2.8455 1.69835, 2.70948 2.02434, 2.57379 2.35067, 2.37765 2.64368, 2.12071 2.90337, 1.86033 3.15653, 1.56698 3.34992, 1.24065 3.4832, 0.914315 3.61717, 0.568405 3.68381, 0.202227 3.68381, -0.114485 3.68381, -0.4099 3.62439, -0.683331 3.50519, -0.956761 3.38634, -1.19447 3.22351, -1.39645 3.01638, -1.59843 2.80959, -1.75679 2.56948, -1.8722 2.29639, -1.98728 2.02365, -2.04499 1.73304, -2.04499 1.42492, -2.04499 1.21263, -1.97423 1.05256, -1.8327 0.944353, -1.69118 0.836492, -1.54484 0.782218, -1.39404 0.781875, -1.23534 0.782218, -1.08626 0.835462, -0.9468 0.941605, -0.806993 1.04809, -0.737261 1.2092, -0.737261 1.42492, -0.737261 1.55717, -0.766459 1.66812, -0.824855 1.75777, -0.883251 1.84777, -0.955044 1.91716, -1.04023 1.96663, -1.12508 2.01609, -1.22023 2.0446, -1.32603 2.05147 L -1.39404 2.05147, -1.50706 2.05147 C -1.42015 2.3596, -1.21817 2.63646, -0.901457 2.88173, -0.584401 3.12733, -0.216506 3.24996, 0.202227 3.24962, 0.421041 3.24996, 0.634358 3.19329, 0.841835 3.07959, 1.04931 2.96623, 1.219 2.81577, 1.35091 2.62856, 1.50583 2.40528, 1.60511 2.15178, 1.64839 1.8677, 1.69167 1.58396, 1.71331 1.29335, 1.71331 0.996222, 1.71331 0.695998, 1.70404 0.407797, 1.68514 0.130931, 1.66625 -0.145591, 1.58896 -0.406656, 1.45293 -0.652606, 1.35503 -0.831916, 1.22965 -0.980997, 1.07679 -1.10019, 0.923933 -1.21905, 0.753211 -1.27882, 0.564282 -1.27916, 0.206006 -1.27882, -0.105211 -1.20634, -0.369366 -1.06172, -0.633522 -0.916762, -0.84684 -0.708941, -1.00897 -0.438258, -1.04298 -0.37574, -1.0976 -0.344481, -1.17317 -0.344825 L -1.21851 -0.344825 C -1.35042 -0.344481, -1.41672 -0.404938, -1.41672 -0.526196 L -1.41672 -4.38445 C -1.41672 -4.47926, -1.36175 -4.53972, -1.25252 -4.56582, -1.23328 -4.56548, -1.2192 -4.56342, -1.20993 -4.55999, -1.20031 -4.55621, -1.19206 -4.55449, -1.18451 -4.55483, -0.637301 -4.30545, -0.0732644 -4.18076, 0.507604 -4.1811, 1.09637 -4.18076, 1.66075 -4.30545, 2.20006 -4.55483, 2.20761 -4.55449, 2.21517 -4.55621, 2.22273 -4.55999, 2.23029 -4.56342, 2.24162 -4.56548, 2.25674 -4.56582, 2.38109 -4.56548, 2.44154 -4.5088, 2.43776 -4.39545, 2.43776 -4.32915, 2.42643 -4.28518, 2.40376 -4.26354, 2.13582 -3.89668, 1.79541 -3.60985, 1.38217 -3.40306, 0.969276 -3.19592, 0.530619 -3.09253, 0.0661991 -3.09287, -0.318528 -3.09253, -0.650354 -3.1365, -0.929968 -3.22478 L -0.929968 -1.12527 C -0.797718 -1.26405, -0.598485 -1.38771, -0.332611 -1.49591, -0.0667379 -1.60377, 0.232456 -1.65805, 0.564282 -1.65839, 0.888896 -1.65805, 1.19565 -1.58454, 1.48419 -1.4382, 1.77274 -1.29153, 2.02659 -1.10122, 2.2454 -0.866954, 2.47177 -0.602798, 2.63974 -0.310474, 2.74898 0.0100172, 2.85856 0.330852, 2.91318 0.659587, 2.91318 0.996222 Z" stroke="none" fill="#000000" transform="matrix(1.12 0 0 1 55.1593 6.66907)" />
			<rect />
		</svg>
	</g>
	<g transform="matrix(1 0 -0 1 137.554 108.261)">
		<svg width="222.013885" height="99.2233734">
			<defs />
			<polyline points="-4.3617 0 4.3617 0" fill="none" stroke="#000000" stroke-width="0.80400002" stroke-linecap="round" stroke-linejoin="round" transform="matrix(1 0 0 1 4.3617 12.1321)" />
			<path d="M 22.7033 18.0887 L 14.6397 18.0887, 14.6397 17.5597 C 14.6397 17.5219, 14.6595 17.4641, 14.6992 17.3866 L 17.9387 13.8664 C 18.3217 13.4438, 18.7094 13.0109, 19.1025 12.5685, 19.4957 12.1261, 19.8479 11.674, 20.1581 11.2123, 20.4683 10.7507, 20.716 10.2746, 20.9011 9.78404, 21.0863 9.29352, 21.1783 8.77894, 21.1783 8.23973, 21.1783 7.78527, 21.1187 7.36026, 20.9997 6.96592, 20.8807 6.57158, 20.7094 6.22532, 20.4846 5.92716, 20.2603 5.62899, 19.9796 5.38854, 19.643 5.2058, 19.3063 5.02305, 18.9162 4.93168, 18.4738 4.93108, 17.8137 4.93168, 17.2306 5.12885, 16.725 5.5232, 16.2201 5.91754, 15.8847 6.35216, 15.7194 6.82586, 15.6869 6.83908, 15.7398 6.84569, 15.8781 6.84509 L 16.0464 6.84509 C 16.2447 6.89078, 16.4161 6.95991, 16.5615 7.05248, 16.707 7.14566, 16.829 7.2737, 16.9282 7.43721, 17.0274 7.60072, 17.0767 7.79789, 17.0767 8.02813, 17.0767 8.41345, 16.9517 8.70861, 16.7004 8.9136, 16.4491 9.11919, 16.1684 9.22138, 15.8582 9.22078, 15.5613 9.22138, 15.2835 9.11919, 15.0262 8.9136, 14.769 8.70861, 14.6397 8.41345, 14.6397 8.02813, 14.6397 7.49011, 14.7455 6.98035, 14.9571 6.49944, 15.1687 6.01853, 15.4555 5.60194, 15.8185 5.24908, 16.1816 4.89681, 16.6108 4.61789, 17.1062 4.4123, 17.6015 4.20731, 18.1269 4.10452, 18.6817 4.10392, 19.3688 4.10452, 19.9982 4.20551, 20.5693 4.40749, 21.1404 4.60947, 21.6273 4.89982, 22.0301 5.27793, 22.4328 5.65665, 22.7484 6.09427, 22.9763 6.59081, 23.2041 7.08795, 23.3177 7.63739, 23.3177 8.23973, 23.3177 8.90699, 23.1662 9.52135, 22.862 10.0822, 22.5585 10.6437, 22.1822 11.1582, 21.7331 11.6259, 21.2841 12.0942, 20.8068 12.5348, 20.3012 12.9484, 19.7962 13.362, 19.3388 13.7642, 18.9294 14.1549 L 16.6505 16.2997, 19.6327 16.2997 C 20.0487 16.3003, 20.4371 16.2973, 20.7965 16.2907, 21.1566 16.2847, 21.462 16.2715, 21.7133 16.2523, 21.9645 16.233, 22.0932 16.2204, 22.0992 16.2132, 22.1521 16.1687, 22.202 16.0791, 22.2483 15.9445, 22.2946 15.8098, 22.3372 15.6511, 22.3769 15.4684, 22.4166 15.2856, 22.4563 15.0999, 22.4959 14.9105, 22.5356 14.7218, 22.5717 14.5144, 22.6048 14.2896 L 23.3375 14.2896 Z" stroke="none" fill="#000000" />
			<polyline points="-2.44255 0 2.44255 0" fill="none" stroke="#000000" stroke-width="0.450240016" stroke-linecap="round" stroke-linejoin="round" transform="matrix(1 0 0 1 27.4783 6.66907)" />
			<path d="M 2.54664 3.4255 C 1.85241 3.40351, 1.17674 3.39252, 0.519953 3.39252, -0.136487 3.39252, -0.812163 3.40351, -1.50673 3.4255 L -1.50673 2.95283, -1.11582 2.95283 C -0.991473 2.95318, -0.874338 2.95146, -0.765103 2.94768, -0.655525 2.94424, -0.551786 2.93497, -0.453543 2.9202, -0.355301 2.90577, -0.270455 2.891, -0.199005 2.87589, -0.138548 2.86524, -0.0883965 2.83157, -0.0488932 2.77455, -0.00904655 2.71787, 0.0105331 2.65467, 0.0105331 2.58459 L 0.0105331 -3.6095 C -0.178051 -3.51744, -0.410261 -3.44771, -0.685753 -3.40031, -0.961245 -3.35256, -1.26319 -3.32886, -1.59158 -3.3292 L -1.59158 -3.79637 C -1.13849 -3.79603, -0.720447 -3.84996, -0.337438 -3.95816, 0.0455709 -4.06602, 0.37671 -4.26869, 0.655981 -4.56582 L 0.831512 -4.56582 C 0.955861 -4.56548, 1.01804 -4.50502, 1.01804 -4.38445 L 1.01804 2.58459 C 1.01804 2.6581, 1.03693 2.72234, 1.07471 2.7773, 1.1125 2.83226, 1.16746 2.86524, 1.23891 2.87589, 1.29937 2.891, 1.377 2.90577, 1.47112 2.9202, 1.56558 2.93497, 1.67207 2.94424, 1.79092 2.94768, 1.90978 2.95146, 2.02588 2.95318, 2.1389 2.95283 L 2.54664 2.95283, 2.54664 3.4255 Z" stroke="none" fill="#000000" transform="matrix(1.12 0 0 1 35.221 6.66907)" />
			<path d="M 3.05573 -0.399786 C 3.05573 0.128183, 3.01897 0.65306, 2.94546 1.17519, 2.87195 1.69732, 2.6899 2.1875, 2.39929 2.64505, 2.19181 2.97894, 1.91426 3.23519, 1.56732 3.4145, 1.22038 3.59416, 0.842864 3.68381, 0.435123 3.68381, 0.0428391 3.68381, -0.327804 3.59416, -0.676806 3.4145, -1.02581 3.23519, -1.30439 2.97894, -1.51187 2.64505, -1.80213 2.1875, -1.98419 1.69732, -2.0577 1.17519, -2.13121 0.65306, -2.16831 0.128183, -2.16831 -0.399786, -2.16831 -0.934281, -2.13121 -1.46843, -2.0577 -2.00155, -1.98419 -2.53467, -1.80213 -3.03379, -1.51187 -3.49958, -1.30439 -3.83622, -1.02684 -4.09831, -0.679897 -4.28518, -0.332613 -4.47205, 0.0390606 -4.56548, 0.435123 -4.56582, 0.839086 -4.56548, 1.21522 -4.47205, 1.56423 -4.28518, 1.91323 -4.09831, 2.19181 -3.83622, 2.39929 -3.49958, 2.6899 -3.03379, 2.87195 -2.53467, 2.94546 -2.00155, 3.01897 -1.46843, 3.05573 -0.934281, 3.05573 -0.399786 Z M 1.93487 -0.592149 C 1.93487 -0.822641, 1.93315 -1.06619, 1.92937 -1.32279, 1.92594 -1.57904, 1.91632 -1.83014, 1.90121 -2.07575, 1.88609 -2.32101, 1.85895 -2.55288, 1.81911 -2.77101, 1.7796 -2.98879, 1.73151 -3.17497, 1.67484 -3.3292, 1.56148 -3.5779, 1.39557 -3.78229, 1.17675 -3.94167, 0.957939 -4.10106, 0.710614 -4.18076, 0.435123 -4.1811, 0.167188 -4.18076, -0.0749834 -4.10003, -0.292079 -3.93893, -0.508831 -3.77748, -0.674058 -3.57447, -0.787415 -3.3292, -0.84375 -3.17497, -0.89184 -2.98879, -0.931687 -2.77101, -0.97119 -2.55288, -0.998671 -2.32101, -1.01378 -2.07575, -1.0289 -1.83014, -1.03817 -1.57904, -1.04195 -1.32279, -1.04573 -1.06619, -1.04779 -0.822641, -1.04779 -0.592149, -1.04779 -0.335206, -1.04573 -0.0648673, -1.04195 0.218868, -1.03817 0.502948, -1.0289 0.777753, -1.01378 1.04328, -0.998671 1.30916, -0.97119 1.56095, -0.931687 1.799, -0.89184 2.03739, -0.84375 2.23697, -0.787415 2.39773, -0.681615 2.66566, -0.518106 2.8855, -0.297575 3.0576, -0.0770445 3.23004, 0.167188 3.31592, 0.435123 3.31557, 0.714393 3.31592, 0.964465 3.23004, 1.185 3.0576, 1.40587 2.8855, 1.56904 2.66566, 1.67484 2.39773, 1.73151 2.23697, 1.7796 2.03739, 1.81911 1.799, 1.85895 1.56095, 1.88609 1.30916, 1.90121 1.04328, 1.91632 0.777753, 1.92594 0.502948, 1.92937 0.218868, 1.93315 -0.0648673, 1.93487 -0.335206, 1.93487 -0.592149 Z" stroke="none" fill="#000000" transform="matrix(1.12 0 0 1 41.8671 6.66907)" />
			<path d="M 2.56417 3.4255 L -2.04362 3.4255, -2.04362 3.12321 C -2.04362 3.10157, -2.03228 3.06859, -2.00961 3.02428 L -0.158455 1.01271 C 0.0603578 0.771226, 0.281919 0.523902, 0.506572 0.271081, 0.731225 0.0182612, 0.932519 -0.240055, 1.10977 -0.503868, 1.28702 -0.76768, 1.42854 -1.03974, 1.53434 -1.32004, 1.64014 -1.60034, 1.6927 -1.89438, 1.6927 -2.2025, 1.6927 -2.46219, 1.65869 -2.70505, 1.59068 -2.93039, 1.52266 -3.15573, 1.42476 -3.35359, 1.29629 -3.52397, 1.16816 -3.69435, 1.00775 -3.83175, 0.815384 -3.93618, 0.62302 -4.0406, 0.400085 -4.09282, 0.147265 -4.09316, -0.229905 -4.09282, -0.563105 -3.98015, -0.851994 -3.75481, -1.14054 -3.52947, -1.33221 -3.28111, -1.42668 -3.01043, -1.44523 -3.00287, -1.415 -2.99909, -1.33599 -2.99944 L -1.23981 -2.99944 C -1.12645 -2.97333, -1.02856 -2.93383, -0.945427 -2.88093, -0.862299 -2.82769, -0.792567 -2.75452, -0.735889 -2.66108, -0.67921 -2.56765, -0.651043 -2.45498, -0.651043 -2.32342, -0.651043 -2.10323, -0.722492 -1.93457, -0.866077 -1.81743, -1.00966 -1.69996, -1.17008 -1.64156, -1.34733 -1.6419, -1.51702 -1.64156, -1.67572 -1.69996, -1.82274 -1.81743, -1.96976 -1.93457, -2.04362 -2.10323, -2.04362 -2.32342, -2.04362 -2.63086, -1.98316 -2.92215, -1.86224 -3.19695, -1.74133 -3.47176, -1.57748 -3.70981, -1.37 -3.91145, -1.16252 -4.11274, -0.91726 -4.27213, -0.634211 -4.38961, -0.351162 -4.50674, -0.0509381 -4.56548, 0.266118 -4.56582, 0.658745 -4.56548, 1.0184 -4.50777, 1.34473 -4.39235, 1.67106 -4.27694, 1.9493 -4.11102, 2.17945 -3.89496, 2.40959 -3.67855, 2.58994 -3.42848, 2.72012 -3.14474, 2.85031 -2.86066, 2.91524 -2.5467, 2.91524 -2.2025, 2.91524 -1.82121, 2.82867 -1.47015, 2.65486 -1.14966, 2.48139 -0.828824, 2.26635 -0.534783, 2.00975 -0.267536, 1.75315 5.53131e-005, 1.48041 0.251845, 1.19152 0.488177, 0.902978 0.724509, 0.64157 0.954315, 0.407642 1.17759 L -0.894588 2.40322, 0.809544 2.40322 C 1.04725 2.40357, 1.26916 2.40185, 1.47457 2.39807, 1.68033 2.39463, 1.85483 2.38708, 1.99842 2.37609, 2.142 2.36509, 2.21551 2.35788, 2.21895 2.35376, 2.24918 2.32834, 2.27769 2.27716, 2.30414 2.20021, 2.33059 2.12327, 2.35498 2.03258, 2.37765 1.92815, 2.40032 1.82373, 2.42299 1.71758, 2.44566 1.60938, 2.46833 1.50152, 2.48894 1.38301, 2.50784 1.25454 L 2.92657 1.25454 Z" stroke="none" fill="#000000" transform="matrix(1.12 0 0 1 48.5132 6.66907)" />
			<path d="M 2.56314 3.4255 L -2.04464 3.4255, -2.04464 3.12321 C -2.04464 3.10157, -2.03331 3.06859, -2.01064 3.02428 L -0.159484 1.01271 C 0.0593288 0.771226, 0.28089 0.523902, 0.505543 0.271081, 0.730196 0.0182612, 0.93149 -0.240055, 1.10874 -0.503868, 1.28599 -0.76768, 1.42751 -1.03974, 1.53331 -1.32004, 1.63911 -1.60034, 1.69167 -1.89438, 1.69167 -2.2025, 1.69167 -2.46219, 1.65766 -2.70505, 1.58965 -2.93039, 1.52163 -3.15573, 1.42373 -3.35359, 1.29526 -3.52397, 1.16714 -3.69435, 1.00672 -3.83175, 0.814355 -3.93618, 0.621991 -4.0406, 0.399056 -4.09282, 0.146236 -4.09316, -0.230934 -4.09282, -0.564134 -3.98015, -0.853023 -3.75481, -1.14157 -3.52947, -1.33324 -3.28111, -1.42771 -3.01043, -1.44626 -3.00287, -1.41603 -2.99909, -1.33702 -2.99944 L -1.24084 -2.99944 C -1.12748 -2.97333, -1.02958 -2.93383, -0.946456 -2.88093, -0.863328 -2.82769, -0.793596 -2.75452, -0.736918 -2.66108, -0.680239 -2.56765, -0.652072 -2.45498, -0.652072 -2.32342, -0.652072 -2.10323, -0.723521 -1.93457, -0.867106 -1.81743, -1.01069 -1.69996, -1.17111 -1.64156, -1.34836 -1.6419, -1.51805 -1.64156, -1.67675 -1.69996, -1.82377 -1.81743, -1.97079 -1.93457, -2.04464 -2.10323, -2.04464 -2.32342, -2.04464 -2.63086, -1.98419 -2.92215, -1.86327 -3.19695, -1.74236 -3.47176, -1.57851 -3.70981, -1.37103 -3.91145, -1.16355 -4.11274, -0.918289 -4.27213, -0.63524 -4.38961, -0.352191 -4.50674, -0.0519671 -4.56548, 0.265089 -4.56582, 0.657716 -4.56548, 1.01737 -4.50777, 1.3437 -4.39235, 1.67003 -4.27694, 1.94827 -4.11102, 2.17842 -3.89496, 2.40857 -3.67855, 2.58891 -3.42848, 2.71909 -3.14474, 2.84928 -2.86066, 2.91421 -2.5467, 2.91421 -2.2025, 2.91421 -1.82121, 2.82764 -1.47015, 2.65383 -1.14966, 2.48036 -0.828824, 2.26532 -0.534783, 2.00872 -0.267536, 1.75213 5.53131e-005, 1.47938 0.251845, 1.19049 0.488177, 0.901949 0.724509, 0.640541 0.954315, 0.406613 1.17759 L -0.895617 2.40322, 0.808515 2.40322 C 1.04622 2.40357, 1.26813 2.40185, 1.47354 2.39807, 1.6793 2.39463, 1.8538 2.38708, 1.99739 2.37609, 2.14097 2.36509, 2.21448 2.35788, 2.21792 2.35376, 2.24815 2.32834, 2.27666 2.27716, 2.30311 2.20021, 2.32956 2.12327, 2.35395 2.03258, 2.37662 1.92815, 2.39929 1.82373, 2.42196 1.71758, 2.44463 1.60938, 2.4673 1.50152, 2.48792 1.38301, 2.50681 1.25454 L 2.92554 1.25454 Z" stroke="none" fill="#000000" transform="matrix(1.12 0 0 1 55.1593 6.66907)" />
			<rect />
		</svg>
	</g>
	<g transform="matrix(1 0 -0 1 75.2418 95.5499)">
		<svg width="197.902267" height="87.1595535">
			<defs />
			<polyline points="-4.3617 0 4.3617 0" fill="none" stroke="#000000" stroke-width="0.80400002" stroke-linecap="round" stroke-linejoin="round" transform="matrix(1 0 0 1 4.3617 12.1321)" />
			<path d="M 22.7033 18.0887 L 14.6397 18.0887, 14.6397 17.5597 C 14.6397 17.5219, 14.6595 17.4641, 14.6992 17.3866 L 17.9387 13.8664 C 18.3217 13.4438, 18.7094 13.0109, 19.1025 12.5685, 19.4957 12.1261, 19.8479 11.674, 20.1581 11.2123, 20.4683 10.7507, 20.716 10.2746, 20.9011 9.78404, 21.0863 9.29352, 21.1783 8.77894, 21.1783 8.23973, 21.1783 7.78527, 21.1187 7.36026, 20.9997 6.96592, 20.8807 6.57158, 20.7094 6.22532, 20.4846 5.92716, 20.2603 5.62899, 19.9796 5.38854, 19.643 5.2058, 19.3063 5.02305, 18.9162 4.93168, 18.4738 4.93108, 17.8137 4.93168, 17.2306 5.12885, 16.725 5.5232, 16.2201 5.91754, 15.8847 6.35216, 15.7194 6.82586, 15.6869 6.83908, 15.7398 6.84569, 15.8781 6.84509 L 16.0464 6.84509 C 16.2447 6.89078, 16.4161 6.95991, 16.5615 7.05248, 16.707 7.14566, 16.829 7.2737, 16.9282 7.43721, 17.0274 7.60072, 17.0767 7.79789, 17.0767 8.02813, 17.0767 8.41345, 16.9517 8.70861, 16.7004 8.9136, 16.4491 9.11919, 16.1684 9.22138, 15.8582 9.22078, 15.5613 9.22138, 15.2835 9.11919, 15.0262 8.9136, 14.769 8.70861, 14.6397 8.41345, 14.6397 8.02813, 14.6397 7.49011, 14.7455 6.98035, 14.9571 6.49944, 15.1687 6.01853, 15.4555 5.60194, 15.8185 5.24908, 16.1816 4.89681, 16.6108 4.61789, 17.1062 4.4123, 17.6015 4.20731, 18.1269 4.10452, 18.6817 4.10392, 19.3688 4.10452, 19.9982 4.20551, 20.5693 4.40749, 21.1404 4.60947, 21.6273 4.89982, 22.0301 5.27793, 22.4328 5.65665, 22.7484 6.09427, 22.9763 6.59081, 23.2041 7.08795, 23.3177 7.63739, 23.3177 8.23973, 23.3177 8.90699, 23.1662 9.52135, 22.862 10.0822, 22.5585 10.6437, 22.1822 11.1582, 21.7331 11.6259, 21.2841 12.0942, 20.8068 12.5348, 20.3012 12.9484, 19.7962 13.362, 19.3388 13.7642, 18.9294 14.1549 L 16.6505 16.2997, 19.6327 16.2997 C 20.0487 16.3003, 20.4371 16.2973, 20.7965 16.2907, 21.1566 16.2847, 21.462 16.2715, 21.7133 16.2523, 21.9645 16.233, 22.0932 16.2204, 22.0992 16.2132, 22.1521 16.1687, 22.202 16.0791, 22.2483 15.9445, 22.2946 15.8098, 22.3372 15.6511, 22.3769 15.4684, 22.4166 15.2856, 22.4563 15.0999, 22.4959 14.9105, 22.5356 14.7218, 22.5717 14.5144, 22.6048 14.2896 L 23.3375 14.2896 Z" stroke="none" fill="#000000" />
			<path d="M 2.54664 3.4255 C 1.85241 3.40351, 1.17674 3.39252, 0.519953 3.39252, -0.136487 3.39252, -0.812163 3.40351, -1.50673 3.4255 L -1.50673 2.95283, -1.11582 2.95283 C -0.991473 2.95318, -0.874338 2.95146, -0.765103 2.94768, -0.655525 2.94424, -0.551786 2.93497, -0.453543 2.9202, -0.355301 2.90577, -0.270455 2.891, -0.199005 2.87589, -0.138548 2.86524, -0.0883965 2.83157, -0.0488932 2.77455, -0.00904655 2.71787, 0.0105331 2.65467, 0.0105331 2.58459 L 0.0105331 -3.6095 C -0.178051 -3.51744, -0.410261 -3.44771, -0.685753 -3.40031, -0.961245 -3.35256, -1.26319 -3.32886, -1.59158 -3.3292 L -1.59158 -3.79637 C -1.13849 -3.79603, -0.720447 -3.84996, -0.337438 -3.95816, 0.0455709 -4.06602, 0.37671 -4.26869, 0.655981 -4.56582 L 0.831512 -4.56582 C 0.955861 -4.56548, 1.01804 -4.50502, 1.01804 -4.38445 L 1.01804 2.58459 C 1.01804 2.6581, 1.03693 2.72234, 1.07471 2.7773, 1.1125 2.83226, 1.16746 2.86524, 1.23891 2.87589, 1.29937 2.891, 1.377 2.90577, 1.47112 2.9202, 1.56558 2.93497, 1.67207 2.94424, 1.79092 2.94768, 1.90978 2.95146, 2.02588 2.95318, 2.1389 2.95283 L 2.54664 2.95283, 2.54664 3.4255 Z" stroke="none" fill="#000000" transform="matrix(1.12 0 0 1 27.0717 6.66907)" />
			<path d="M 3.05573 -0.399786 C 3.05573 0.128183, 3.01897 0.65306, 2.94546 1.17519, 2.87195 1.69732, 2.6899 2.1875, 2.39929 2.64505, 2.19181 2.97894, 1.91426 3.23519, 1.56732 3.4145, 1.22038 3.59416, 0.842864 3.68381, 0.435123 3.68381, 0.0428391 3.68381, -0.327804 3.59416, -0.676806 3.4145, -1.02581 3.23519, -1.30439 2.97894, -1.51187 2.64505, -1.80213 2.1875, -1.98419 1.69732, -2.0577 1.17519, -2.13121 0.65306, -2.16831 0.128183, -2.16831 -0.399786, -2.16831 -0.934281, -2.13121 -1.46843, -2.0577 -2.00155, -1.98419 -2.53467, -1.80213 -3.03379, -1.51187 -3.49958, -1.30439 -3.83622, -1.02684 -4.09831, -0.679897 -4.28518, -0.332613 -4.47205, 0.0390606 -4.56548, 0.435123 -4.56582, 0.839086 -4.56548, 1.21522 -4.47205, 1.56423 -4.28518, 1.91323 -4.09831, 2.19181 -3.83622, 2.39929 -3.49958, 2.6899 -3.03379, 2.87195 -2.53467, 2.94546 -2.00155, 3.01897 -1.46843, 3.05573 -0.934281, 3.05573 -0.399786 Z M 1.93487 -0.592149 C 1.93487 -0.822641, 1.93315 -1.06619, 1.92937 -1.32279, 1.92594 -1.57904, 1.91632 -1.83014, 1.90121 -2.07575, 1.88609 -2.32101, 1.85895 -2.55288, 1.81911 -2.77101, 1.7796 -2.98879, 1.73151 -3.17497, 1.67484 -3.3292, 1.56148 -3.5779, 1.39557 -3.78229, 1.17675 -3.94167, 0.957939 -4.10106, 0.710614 -4.18076, 0.435123 -4.1811, 0.167188 -4.18076, -0.0749834 -4.10003, -0.292079 -3.93893, -0.508831 -3.77748, -0.674058 -3.57447, -0.787415 -3.3292, -0.84375 -3.17497, -0.89184 -2.98879, -0.931687 -2.77101, -0.97119 -2.55288, -0.998671 -2.32101, -1.01378 -2.07575, -1.0289 -1.83014, -1.03817 -1.57904, -1.04195 -1.32279, -1.04573 -1.06619, -1.04779 -0.822641, -1.04779 -0.592149, -1.04779 -0.335206, -1.04573 -0.0648673, -1.04195 0.218868, -1.03817 0.502948, -1.0289 0.777753, -1.01378 1.04328, -0.998671 1.30916, -0.97119 1.56095, -0.931687 1.799, -0.89184 2.03739, -0.84375 2.23697, -0.787415 2.39773, -0.681615 2.66566, -0.518106 2.8855, -0.297575 3.0576, -0.0770445 3.23004, 0.167188 3.31592, 0.435123 3.31557, 0.714393 3.31592, 0.964465 3.23004, 1.185 3.0576, 1.40587 2.8855, 1.56904 2.66566, 1.67484 2.39773, 1.73151 2.23697, 1.7796 2.03739, 1.81911 1.799, 1.85895 1.56095, 1.88609 1.30916, 1.90121 1.04328, 1.91632 0.777753, 1.92594 0.502948, 1.92937 0.218868, 1.93315 -0.0648673, 1.93487 -0.335206, 1.93487 -0.592149 Z" stroke="none" fill="#000000" transform="matrix(1.12 0 0 1 33.7178 6.66907)" />
			<path d="M 2.56417 3.4255 L -2.04362 3.4255, -2.04362 3.12321 C -2.04362 3.10157, -2.03228 3.06859, -2.00961 3.02428 L -0.158455 1.01271 C 0.0603578 0.771226, 0.281919 0.523902, 0.506572 0.271081, 0.731225 0.0182612, 0.932519 -0.240055, 1.10977 -0.503868, 1.28702 -0.76768, 1.42854 -1.03974, 1.53434 -1.32004, 1.64014 -1.60034, 1.6927 -1.89438, 1.6927 -2.2025, 1.6927 -2.46219, 1.65869 -2.70505, 1.59068 -2.93039, 1.52266 -3.15573, 1.42476 -3.35359, 1.29629 -3.52397, 1.16816 -3.69435, 1.00775 -3.83175, 0.815384 -3.93618, 0.62302 -4.0406, 0.400085 -4.09282, 0.147265 -4.09316, -0.229905 -4.09282, -0.563105 -3.98015, -0.851994 -3.75481, -1.14054 -3.52947, -1.33221 -3.28111, -1.42668 -3.01043, -1.44523 -3.00287, -1.415 -2.99909, -1.33599 -2.99944 L -1.23981 -2.99944 C -1.12645 -2.97333, -1.02856 -2.93383, -0.945427 -2.88093, -0.862299 -2.82769, -0.792567 -2.75452, -0.735889 -2.66108, -0.67921 -2.56765, -0.651043 -2.45498, -0.651043 -2.32342, -0.651043 -2.10323, -0.722492 -1.93457, -0.866077 -1.81743, -1.00966 -1.69996, -1.17008 -1.64156, -1.34733 -1.6419, -1.51702 -1.64156, -1.67572 -1.69996, -1.82274 -1.81743, -1.96976 -1.93457, -2.04362 -2.10323, -2.04362 -2.32342, -2.04362 -2.63086, -1.98316 -2.92215, -1.86224 -3.19695, -1.74133 -3.47176, -1.57748 -3.70981, -1.37 -3.91145, -1.16252 -4.11274, -0.91726 -4.27213, -0.634211 -4.38961, -0.351162 -4.50674, -0.0509381 -4.56548, 0.266118 -4.56582, 0.658745 -4.56548, 1.0184 -4.50777, 1.34473 -4.39235, 1.67106 -4.27694, 1.9493 -4.11102, 2.17945 -3.89496, 2.40959 -3.67855, 2.58994 -3.42848, 2.72012 -3.14474, 2.85031 -2.86066, 2.91524 -2.5467, 2.91524 -2.2025, 2.91524 -1.82121, 2.82867 -1.47015, 2.65486 -1.14966, 2.48139 -0.828824, 2.26635 -0.534783, 2.00975 -0.267536, 1.75315 5.53131e-005, 1.48041 0.251845, 1.19152 0.488177, 0.902978 0.724509, 0.64157 0.954315, 0.407642 1.17759 L -0.894588 2.40322, 0.809544 2.40322 C 1.04725 2.40357, 1.26916 2.40185, 1.47457 2.39807, 1.68033 2.39463, 1.85483 2.38708, 1.99842 2.37609, 2.142 2.36509, 2.21551 2.35788, 2.21895 2.35376, 2.24918 2.32834, 2.27769 2.27716, 2.30414 2.20021, 2.33059 2.12327, 2.35498 2.03258, 2.37765 1.92815, 2.40032 1.82373, 2.42299 1.71758, 2.44566 1.60938, 2.46833 1.50152, 2.48894 1.38301, 2.50784 1.25454 L 2.92657 1.25454 Z" stroke="none" fill="#000000" transform="matrix(1.12 0 0 1 40.3639 6.66907)" />
			<path d="M 1.97918 1.46889 L 1.97918 2.58459 C 1.97918 2.65089, 1.99155 2.71238, 2.01628 2.76906, 2.04101 2.82608, 2.08155 2.86352, 2.13788 2.88138, 2.22479 2.92192, 2.36631 2.94424, 2.56246 2.94768, 2.7586 2.95146, 2.95646 2.95318, 3.15638 2.95283 L 3.15638 3.4255 C 2.57929 3.40351, 2.01353 3.39252, 1.45843 3.39252, 0.911567 3.39252, 0.336195 3.40351, -0.267689 3.4255 L -0.267689 2.95283 C -0.0602112 2.95318, 0.140053 2.95146, 0.332416 2.94768, 0.524779 2.94424, 0.668365 2.92192, 0.762486 2.88138, 0.819164 2.86352, 0.860728 2.82608, 0.887178 2.76906, 0.913628 2.71238, 0.926681 2.65089, 0.926681 2.58459 L 0.926681 1.46889, -2.29953 1.46889, -2.29953 1.0237, 1.4811 -4.5988 C 1.53056 -4.66441, 1.59274 -4.69739, 1.66797 -4.69773 L 1.79266 -4.69773 C 1.91701 -4.69739, 1.97918 -4.63521, 1.97918 -4.51086 L 1.97918 0.98523, 3.19622 0.98523, 3.19622 1.46889 Z M 0.983016 -3.15333 L -1.80144 0.98523, 0.983016 0.98523 Z" stroke="none" fill="#000000" transform="matrix(1.12 0 0 1 47.01 6.66907)" />
			<rect />
		</svg>
	</g>
	<g transform="matrix(1 0 -0 1 9.25002 95.6119)">
		<svg width="168.049805" height="87.1595535">
			<defs />
			<polyline points="-4.3617 0 4.3617 0" fill="none" stroke="#000000" stroke-width="0.80400002" stroke-linecap="round" stroke-linejoin="round" transform="matrix(1 0 0 1 4.3617 12.008)" />
			<path d="M 21.066 18.026 C 19.9545 17.9867, 18.867 17.9671, 17.8021 17.9671, 16.7507 17.9671, 15.6662 17.9867, 14.5474 18.026 L 14.5474 17.2114 C 14.9314 17.212, 15.3037 17.2071, 15.6644 17.1973, 16.0251 17.1875, 16.2993 17.1531, 16.4882 17.0936, 16.5827 17.0617, 16.655 16.9979, 16.7053 16.9029, 16.7556 16.8084, 16.7808 16.7017, 16.7808 16.5833 L 16.7808 5.52239 C 16.7808 5.40523, 16.7556 5.29912, 16.7053 5.20404, 16.655 5.10957, 16.5827 5.04517, 16.4882 5.01204, 16.2993 4.95377, 16.0251 4.92126, 15.6644 4.91451, 15.3037 4.90838, 14.9314 4.9047, 14.5474 4.90408 L 14.5474 4.0993 C 15.6662 4.12629, 16.7507 4.13917, 17.8021 4.13856, 18.867 4.13917, 19.9545 4.12629, 21.066 4.0993 L 21.066 4.90408 C 20.682 4.9047, 20.3103 4.90838, 19.9496 4.91451, 19.5889 4.92126, 19.3178 4.95377, 19.1356 5.01204, 19.0418 5.04517, 18.9676 5.1108, 18.9136 5.20895, 18.8596 5.30709, 18.8326 5.41198, 18.8326 5.52239 L 18.8326 16.5833 C 18.8326 16.7017, 18.8584 16.8084, 18.9087 16.9029, 18.959 16.9979, 19.035 17.0617, 19.1356 17.0936, 19.3246 17.1531, 19.5975 17.1875, 19.9545 17.1973, 20.3115 17.2071, 20.682 17.212, 21.066 17.2114 L 21.066 18.026 Z" stroke="none" fill="#000000" />
			<path d="M 32.539 18.0358 C 31.6833 17.9904, 30.868 17.9671, 30.0927 17.9671, 29.3051 17.9671, 28.4997 17.9904, 27.6777 18.0358 L 27.6777 17.2114 C 27.9808 17.212, 28.2586 17.2071, 28.5113 17.1973, 28.7641 17.1875, 28.9548 17.1531, 29.0824 17.0936, 29.1566 17.055, 29.2057 16.9881, 29.229 16.8931, 29.2523 16.7986, 29.264 16.6949, 29.264 16.5833 L 29.264 11.7938 C 29.264 11.4675, 29.2474 11.1565, 29.2137 10.8621, 29.1806 10.5676, 29.0861 10.2996, 28.9309 10.0567, 28.8365 9.90025, 28.6966 9.78616, 28.5113 9.71378, 28.3261 9.64201, 28.1292 9.60582, 27.92 9.60521, 27.536 9.60582, 27.1778 9.68618, 26.8441 9.84627, 26.5104 10.007, 26.2258 10.2229, 25.9896 10.494, 25.7541 10.7658, 25.5652 11.0847, 25.4235 11.4509, 25.2824 11.8178, 25.2112 12.1999, 25.2112 12.5986 L 25.2112 16.5833 C 25.2112 16.6949, 25.2247 16.7986, 25.2517 16.8931, 25.2787 16.9881, 25.3327 17.055, 25.4137 17.0936, 25.5419 17.1531, 25.7339 17.1875, 25.9896 17.1973, 26.246 17.2071, 26.5221 17.212, 26.8184 17.2114 L 26.8184 18.026 C 26.4748 18.0131, 26.1583 18.0033, 25.8688 17.9966, 25.5793 17.9904, 25.2959 17.9806, 25.0192 17.9671 L 24.3825 17.9671 C 23.5943 17.9671, 22.7889 17.9904, 21.9669 18.0358 L 21.9669 17.2114 C 22.2706 17.212, 22.5485 17.2071, 22.8012 17.1973, 23.0539 17.1875, 23.2447 17.1531, 23.3723 17.0936, 23.4532 17.055, 23.5066 16.9881, 23.5336 16.8931, 23.5606 16.7986, 23.5741 16.6949, 23.5741 16.5833 L 23.5741 11.0087 C 23.5741 10.8259, 23.5661 10.6596, 23.5489 10.5087, 23.5324 10.3585, 23.4667 10.237, 23.352 10.145, 23.2379 10.0671, 23.0527 10.0217, 22.7963 10.0082, 22.5399 9.99533, 22.2638 9.98858, 21.9669 9.98797 L 21.9669 9.17337, 23.7053 9.04578, 25.1002 8.93782, 25.1002 10.6259 C 25.2284 10.3253, 25.5572 9.9708, 26.086 9.56166, 26.6147 9.15313, 27.2398 8.94825, 27.9605 8.94764, 28.3384 8.94825, 28.7273 8.99242, 29.1278 9.08075, 29.529 9.16908, 29.8811 9.36046, 30.1841 9.65489, 30.4871 9.94933, 30.6859 10.2879, 30.7803 10.6707, 30.8748 11.0535, 30.922 11.4282, 30.922 11.7938 L 30.922 16.5833 C 30.922 16.6949, 30.9355 16.7986, 30.9625 16.8931, 30.9895 16.9881, 31.0429 17.055, 31.1238 17.0936, 31.252 17.1531, 31.444 17.1875, 31.6998 17.1973, 31.9562 17.2071, 32.2359 17.212, 32.539 17.2114 L 32.539 18.0358 Z" stroke="none" fill="#000000" />
			<path d="M 40.1972 5.1887 C 40.1972 5.51626, 40.0899 5.76224, 39.874 5.9254, 39.6581 6.08918, 39.4225 6.17076, 39.1661 6.17015, 38.9171 6.17076, 38.6901 6.08918, 38.484 5.9254, 38.2785 5.76224, 38.1755 5.51626, 38.1755 5.1887, 38.1755 4.92126, 38.3239 4.62989, 38.6202 4.31522, 38.6073 4.30908, 38.4724 4.30295, 38.216 4.29559, 37.9737 4.2962, 37.7479 4.35877, 37.5394 4.48268, 37.3308 4.6072, 37.1486 4.78018, 36.9934 5.00223, 36.8045 5.25802, 36.6665 5.54448, 36.5788 5.86161, 36.4917 6.17935, 36.4475 6.5112, 36.4475 6.85716 L 36.4475 9.16356, 38.8527 9.16356, 38.8527 9.98797, 36.5181 9.98797, 36.5181 16.5833 C 36.5181 16.7017, 36.5383 16.8084, 36.5788 16.9029, 36.6193 16.9979, 36.6837 17.0617, 36.7708 17.0936, 36.9327 17.1531, 37.1787 17.1875, 37.5087 17.1973, 37.8387 17.2071, 38.1761 17.212, 38.5196 17.2114 L 38.5196 18.026 C 37.6099 18.0002, 36.7407 17.9806, 35.912 17.9671 L 35.5685 17.9671 C 34.8545 17.9671, 34.1031 17.9904, 33.3142 18.0358 L 33.3142 17.2114 C 33.6179 17.212, 33.8958 17.2071, 34.1485 17.1973, 34.4012 17.1875, 34.5914 17.1531, 34.7196 17.0936, 34.8005 17.055, 34.8539 16.9881, 34.8809 16.8931, 34.9079 16.7986, 34.9214 16.6949, 34.9214 16.5833 L 34.9214 9.98797, 33.2639 9.98797, 33.2639 9.16356, 34.9214 9.16356, 34.9214 6.85716 C 34.9214 6.43268, 35.0072 6.02048, 35.179 5.62115, 35.3507 5.22244, 35.5955 4.87832, 35.912 4.59002, 36.2224 4.28945, 36.5794 4.05575, 36.9836 3.8889, 37.3879 3.72206, 37.8123 3.63863, 38.2564 3.63802, 38.4926 3.63863, 38.7232 3.67482, 38.949 3.74659, 39.1747 3.81897, 39.3839 3.91712, 39.5759 4.04103, 39.7679 4.16555, 39.9194 4.32564, 40.0304 4.52193, 40.142 4.71822, 40.1972 4.94089, 40.1972 5.1887 Z" stroke="none" fill="#000000" />
			<rect />
		</svg>
	</g>
	<g transform="matrix(1 0 -0 1 294.127 95.6119)">
		<svg width="33.1395264" height="47.8084984">
			<defs />
			<path d="M 9.23676 11.2703 C 9.23676 12.1943, 9.17244 13.1128, 9.0438 14.0265, 8.91516 14.9403, 8.59656 15.7981, 8.088 16.5988, 7.72491 17.1831, 7.23919 17.6315, 6.63205 17.9453, 6.0249 18.2597, 5.36425 18.4166, 4.6507 18.4166, 3.96421 18.4166, 3.31558 18.2597, 2.70483 17.9453, 2.09408 17.6315, 1.60656 17.1831, 1.24347 16.5988, 0.735511 15.7981, 0.41691 14.9403, 0.288267 14.0265, 0.159624 13.1128, 0.0947011 12.1943, 0.0947011 11.2703, 0.0947011 10.335, 0.159624 9.40019, 0.288267 8.46723, 0.41691 7.53427, 0.735511 6.66082, 1.24347 5.84568, 1.60656 5.25657, 2.09227 4.7979, 2.69942 4.47089, 3.30717 4.14387, 3.9576 3.98036, 4.6507 3.97976, 5.35764 3.98036, 6.01588 4.14387, 6.62664 4.47089, 7.23739 4.7979, 7.72491 5.25657, 8.088 5.84568, 8.59656 6.66082, 8.91516 7.53427, 9.0438 8.46723, 9.17244 9.40019, 9.23676 10.335, 9.23676 11.2703 Z M 7.27526 10.9337 C 7.27526 10.5303, 7.27226 10.1041, 7.26564 9.65508, 7.25963 9.20663, 7.2428 8.7672, 7.21635 8.33739, 7.1899 7.90818, 7.14241 7.50241, 7.07268 7.12069, 7.00355 6.73957, 6.91939 6.41375, 6.8202 6.14384, 6.62183 5.70862, 6.33148 5.35095, 5.94856 5.07202, 5.56563 4.79309, 5.13281 4.65363, 4.6507 4.65303, 4.18182 4.65363, 3.75802 4.7949, 3.3781 5.07683, 2.99879 5.35936, 2.70964 5.71463, 2.51126 6.14384, 2.41268 6.41375, 2.32852 6.73957, 2.25879 7.12069, 2.18966 7.50241, 2.14157 7.90818, 2.11512 8.33739, 2.08867 8.7672, 2.07244 9.20663, 2.06582 9.65508, 2.05921 10.1041, 2.0556 10.5303, 2.0556 10.9337, 2.0556 11.3833, 2.05921 11.8564, 2.06582 12.353, 2.07244 12.8501, 2.08867 13.331, 2.11512 13.7957, 2.14157 14.261, 2.18966 14.7016, 2.25879 15.1182, 2.32852 15.5354, 2.41268 15.8846, 2.51126 16.166, 2.69641 16.6349, 2.98255 17.0196, 3.36848 17.3208, 3.75441 17.6225, 4.18182 17.7728, 4.6507 17.7722, 5.13943 17.7728, 5.57705 17.6225, 5.96298 17.3208, 6.34951 17.0196, 6.63505 16.6349, 6.8202 16.166, 6.91939 15.8846, 7.00355 15.5354, 7.07268 15.1182, 7.14241 14.7016, 7.1899 14.261, 7.21635 13.7957, 7.2428 13.331, 7.25963 12.8501, 7.26564 12.353, 7.27226 11.8564, 7.27526 11.3833, 7.27526 10.9337 Z" stroke="none" fill="#000000" />
			<rect />
		</svg>
	</g>
	<path d="M -126.642 65.9744 L 126.643 -65.9744" fill="none" stroke="#000000" stroke-opacity="0.490196049" stroke-width="5" stroke-linecap="round" stroke-linejoin="round" stroke-dasharray="17.525, 12.475" transform="matrix(0.2 0 0 0.2 197.935 94.425)" />
	<path d="M -44.9894 65.5715 L 44.9919 -65.5716" fill="none" stroke="#000000" stroke-opacity="0.490196049" stroke-width="5" stroke-linecap="round" stroke-linejoin="round" stroke-dasharray="17.525, 12.475" transform="matrix(0.2 0 0 0.2 260.005 94.3445)" />
	<path d="M 40.4999 65.5715 L -40.4999 -65.5716" fill="none" stroke="#000000" stroke-opacity="0.490196049" stroke-width="5" stroke-linecap="round" stroke-linejoin="round" stroke-dasharray="17.525, 12.475" transform="matrix(0.2 0 0 0.2 336.681 94.3445)" />
	<path d="M 96.1564 65.9744 L -96.1532 -65.9744" fill="none" stroke="#000000" stroke-opacity="0.490196049" stroke-width="5" stroke-linecap="round" stroke-linejoin="round" stroke-dasharray="17.525, 12.475" transform="matrix(0.2 0 0 0.2 393.55 94.425)" />
	<ellipse cx="1318.6292724609375" cy="470.50057983398437" rx="16" ry="16" stroke="none" fill="#CC0000" transform="matrix(0.2 0 0 0.2 64.8548 -12.87)" />
	<ellipse cx="1547.324951171875" cy="470.50057983398437" rx="16" ry="16" stroke="none" fill="#CC0000" transform="matrix(0.2 0 0 0.2 64.8548 -12.87)" />
	<ellipse cx="1020.7413940429687" cy="470.50057983398437" rx="16" ry="16" stroke="none" fill="#CC0000" transform="matrix(0.2 0 0 0.2 64.8548 -12.87)" />
	<ellipse cx="792.04296875" cy="470.50057983398437" rx="16" ry="16" stroke="none" fill="#CC0000" transform="matrix(0.2 0 0 0.2 64.8548 -12.87)" />
	<path d="M -74.4717 0 L 74.469 0" fill="none" stroke="#FF9900" stroke-width="8.66666698" stroke-linecap="round" stroke-linejoin="round" marker-end="url(#CustomMarker-01)" transform="matrix(0.2 0 0 0.2 283.897 55.0746)" />
	<path d="M 74.4736 0 L -74.4735 0" fill="none" stroke="#FF9900" stroke-width="8.66666698" stroke-linecap="round" stroke-linejoin="round" marker-end="url(#CustomMarker-02)" transform="matrix(0.2 0 0 0.2 313.686 55.0746)" />
	<g transform="matrix(1 0 -0 1 259.722 9)">
		<svg width="228.041809" height="59.8723221">
			<defs />
			<path d="M 3.06492 10.7333 L 1.82793 11.69, 0.785577 10.5457 C 1.94518 9.72142, 3.02388 8.79045, 4.02168 7.75162, 5.02065 6.71395, 5.83553 5.65636, 6.46634 4.58 L 8.01169 5.06776 C 7.85692 5.34447, 7.60015 5.7443, 7.23902 6.2684 L 14.3877 6.2684, 14.3877 7.63788, 11.9337 10.2268, 15.7021 10.2268, 15.7021 17.8058, 14.1568 17.8058, 14.1568 11.6525, 4.6302 11.6525, 4.6302 17.8246, 3.06492 17.8246 Z M 6.19549 7.63788 C 5.44861 8.55243, 4.59855 9.41539, 3.6453 10.2268 L 9.92521 10.2268, 12.3593 7.63788 Z M 16.7644 22.1018 C 15.8499 21.6024, 14.6457 20.9704, 13.1519 20.2083, 11.6582 19.4461, 10.3497 18.8013, 9.22875 18.2748, 8.66243 19.0393, 7.77016 19.7334, 6.5531 20.3583, 5.33605 20.9833, 3.66406 21.5836, 1.53832 22.1581 L 0.746884 20.6761 C 2.97581 20.1391, 4.65014 19.5927, 5.77105 19.0358, 6.89196 18.48, 7.63532 17.8726, 8.00231 17.216, 8.36931 16.5594, 8.55222 15.7246, 8.55222 14.7104 L 8.55222 12.7781, 10.1949 12.7781, 10.1949 14.8605 C 10.1949 15.7492, 10.0858 16.4879, 9.86659 17.0742, 11.0262 17.5877, 12.3886 18.2103, 13.9539 18.942, 15.5192 19.6736, 16.7198 20.2587, 17.557 20.6948 Z" stroke="none" fill="#FF9900" />
			<path d="M 35.9907 7.4878 L 35.9907 19.588 C 35.9907 20.3525, 35.8336 20.8918, 35.5182 21.2107, 35.2028 21.5297, 34.6646 21.6891, 33.9048 21.6891, 33.1192 21.6891, 32.3266 21.6516, 31.5282 21.5766 L 31.2573 20.0758 C 32.057 20.1766, 32.8097 20.227, 33.5179 20.2258, 33.879 20.227, 34.1264 20.1332, 34.2624 19.9456, 34.3984 19.758, 34.4653 19.445, 34.4653 19.0064 L 34.4653 8.8948, 22.5234 8.8948, 22.5234 21.7079, 20.9393 21.7079, 20.9393 7.4878, 26.0209 7.4878 C 26.4723 6.52635, 26.8593 5.60711, 27.1805 4.73008 L 29.0354 5.01148 C 28.74 5.78768, 28.3788 6.61312, 27.9532 7.4878 Z M 24.8414 11.2398 L 32.0687 11.2398, 32.0687 18.3686, 24.8414 18.3686 Z M 26.3879 16.9053 L 30.5808 16.9053, 30.5808 12.7031, 26.3879 12.7031 Z" stroke="none" fill="#FF9900" />
			<path d="M 55.8361 8.16316 L 55.8361 9.62644, 44.532 9.62644, 44.532 8.16316, 47.7974 8.16316 C 47.5394 7.76451, 46.8957 6.88279, 45.8651 5.518 L 47.0435 4.78636 C 48.1011 6.13826, 48.8034 7.0575, 49.1505 7.54408 L 48.1069 8.16316, 51.1789 8.16316 C 52.0043 7.02584, 52.7512 5.88851, 53.4207 4.74884 L 54.7151 5.40544 C 54.2391 6.21916, 53.6329 7.1384, 52.8989 8.16316 Z M 43.1402 8.95108 C 42.6771 8.55243, 42.1272 8.10219, 41.4893 7.60154, 40.8515 7.10205, 40.3462 6.71982, 39.9721 6.456 L 40.841 5.3304 C 41.3698 5.69388, 42.4391 6.4947, 44.0489 7.73168 Z M 39.8361 9.38256 C 40.3133 9.72142, 40.9066 10.1658, 41.6148 10.7157, 42.323 11.2668, 42.9034 11.7287, 43.3536 12.1028 L 42.4062 13.3034 C 41.956 12.879, 41.3733 12.383, 40.658 11.8132, 39.9428 11.2445, 39.3601 10.8036, 38.9087 10.4894 Z M 49.0344 11.0522 C 48.4552 11.6537, 47.7364 12.3009, 46.8793 12.995, 46.0234 13.6892, 45.2015 14.3047, 44.4159 14.8417 L 43.5658 13.6223 C 44.3139 13.1862, 45.0831 12.6456, 45.8757 12.0008, 46.6683 11.3571, 47.3659 10.7028, 47.9709 10.0392 Z M 52.2224 10.1705 C 53.7174 11.2726, 55.2111 12.4791, 56.7049 13.7912 L 55.7774 14.898 C 53.9999 13.3984, 52.5062 12.1919, 51.295 11.2773 Z M 45.6529 14.1664 L 54.6952 14.1664, 54.6952 19.9444, 56.3191 19.9444, 56.3191 21.2952, 44.0677 21.2952, 44.0677 19.9444, 45.6529 19.9444 Z M 39.4691 21.4828 C 39.6122 21.0829, 39.9241 20.03, 40.4071 18.3229, 40.8902 16.6157, 41.2478 15.3178, 41.4788 14.429 L 42.9667 14.823 C 42.7228 15.7, 42.3558 17.0191, 41.8657 18.7825, 41.3768 20.5459, 41.1001 21.5836, 41.0344 21.8955 Z M 48.3192 15.4796 L 46.9661 15.4796, 46.9661 19.9444, 48.3192 19.9444 Z M 49.5362 19.9444 L 50.8893 19.9444, 50.8893 15.4796, 49.5362 15.4796 Z M 52.1263 19.9444 L 53.4008 19.9444, 53.4008 15.4796, 52.1263 15.4796 Z" stroke="none" fill="#FF9900" />
			<path d="M 72.8445 19.6443 L 72.8445 14.4665, 74.4086 14.4665, 74.4086 21.9518, 72.8445 21.9518, 72.8445 21.0888, 59.5694 21.0888, 59.5694 14.504, 61.1535 14.504, 61.1535 19.6443, 66.1777 19.6443, 66.1777 13.022, 60.1299 13.022, 60.1299 6.53104, 61.6753 6.53104, 61.6753 11.5587, 66.1777 11.5587, 66.1777 4.82388, 67.7617 4.82388, 67.7617 11.5587, 72.284 11.5587, 72.284 6.53104, 73.8294 6.53104, 73.8294 13.022, 67.7617 13.022, 67.7617 19.6443 Z" stroke="none" fill="#FF9900" />
			<rect />
		</svg>
	</g>
	<ellipse cx="2520.204345703125" cy="470.50057983398437" rx="16" ry="16" stroke="none" fill="#1155CC" transform="matrix(0.2 0 0 0.2 64.8548 -12.87)" />
	<ellipse cx="-181.15126037597656" cy="470.50057983398437" rx="16" ry="16" stroke="none" fill="#1155CC" transform="matrix(0.2 0 0 0.2 64.8548 -12.87)" />
	<path d="M -179.883 0 L 179.883 0" fill="none" stroke="#FF9900" stroke-width="8.66666698" stroke-linecap="round" stroke-linejoin="round" marker-end="url(#CustomMarker-03)" transform="matrix(0.2 0 0 0.2 532.919 55.0746)" />
	<path d="M 179.302 0 L -179.302 0" fill="none" stroke="#FF9900" stroke-width="8.66666698" stroke-linecap="round" stroke-linejoin="round" marker-end="url(#CustomMarker-04)" transform="matrix(0.2 0 0 0.2 64.4848 55.0746)" />
	<g transform="matrix(1 0 -0 1 494.7 9)">
		<svg width="228.041809" height="56.9999886">
			<defs />
			<path d="M 11.0262 13.8474 L 11.0262 19.7193, 18.1949 19.7193, 18.1949 21.2201, 0.592114 21.2201, 0.592114 19.7193, 3.60661 19.7193, 3.60661 10.2268, 5.19066 10.2268, 5.19066 19.7193, 9.42221 19.7193, 9.42221 7.75044, 1.49963 7.75044, 1.49963 6.2684, 17.5769 6.2684, 17.5769 7.75044, 11.0262 7.75044, 11.0262 12.4029, 16.9391 12.4029, 16.9391 13.8474 Z" stroke="none" fill="#FF9900" />
			<path d="M 35.9907 7.4878 L 35.9907 19.588 C 35.9907 20.3525, 35.8336 20.8918, 35.5182 21.2107, 35.2028 21.5297, 34.6646 21.6891, 33.9048 21.6891, 33.1192 21.6891, 32.3266 21.6516, 31.5282 21.5766 L 31.2573 20.0758 C 32.057 20.1766, 32.8097 20.227, 33.5179 20.2258, 33.879 20.227, 34.1264 20.1332, 34.2624 19.9456, 34.3984 19.758, 34.4653 19.445, 34.4653 19.0064 L 34.4653 8.8948, 22.5234 8.8948, 22.5234 21.7079, 20.9393 21.7079, 20.9393 7.4878, 26.0209 7.4878 C 26.4723 6.52635, 26.8593 5.60711, 27.1805 4.73008 L 29.0354 5.01148 C 28.74 5.78768, 28.3788 6.61312, 27.9532 7.4878 Z M 24.8414 11.2398 L 32.0687 11.2398, 32.0687 18.3686, 24.8414 18.3686 Z M 26.3879 16.9053 L 30.5808 16.9053, 30.5808 12.7031, 26.3879 12.7031 Z" stroke="none" fill="#FF9900" />
			<path d="M 55.8361 8.16316 L 55.8361 9.62644, 44.532 9.62644, 44.532 8.16316, 47.7974 8.16316 C 47.5394 7.76451, 46.8957 6.88279, 45.8651 5.518 L 47.0435 4.78636 C 48.1011 6.13826, 48.8034 7.0575, 49.1505 7.54408 L 48.1069 8.16316, 51.1789 8.16316 C 52.0043 7.02584, 52.7512 5.88851, 53.4207 4.74884 L 54.7151 5.40544 C 54.2391 6.21916, 53.6329 7.1384, 52.8989 8.16316 Z M 43.1402 8.95108 C 42.6771 8.55243, 42.1272 8.10219, 41.4893 7.60154, 40.8515 7.10205, 40.3462 6.71982, 39.9721 6.456 L 40.841 5.3304 C 41.3698 5.69388, 42.4391 6.4947, 44.0489 7.73168 Z M 39.8361 9.38256 C 40.3133 9.72142, 40.9066 10.1658, 41.6148 10.7157, 42.323 11.2668, 42.9034 11.7287, 43.3536 12.1028 L 42.4062 13.3034 C 41.956 12.879, 41.3733 12.383, 40.658 11.8132, 39.9428 11.2445, 39.3601 10.8036, 38.9087 10.4894 Z M 49.0344 11.0522 C 48.4552 11.6537, 47.7364 12.3009, 46.8793 12.995, 46.0234 13.6892, 45.2015 14.3047, 44.4159 14.8417 L 43.5658 13.6223 C 44.3139 13.1862, 45.0831 12.6456, 45.8757 12.0008, 46.6683 11.3571, 47.3659 10.7028, 47.9709 10.0392 Z M 52.2224 10.1705 C 53.7174 11.2726, 55.2111 12.4791, 56.7049 13.7912 L 55.7774 14.898 C 53.9999 13.3984, 52.5062 12.1919, 51.295 11.2773 Z M 45.6529 14.1664 L 54.6952 14.1664, 54.6952 19.9444, 56.3191 19.9444, 56.3191 21.2952, 44.0677 21.2952, 44.0677 19.9444, 45.6529 19.9444 Z M 39.4691 21.4828 C 39.6122 21.0829, 39.9241 20.03, 40.4071 18.3229, 40.8902 16.6157, 41.2478 15.3178, 41.4788 14.429 L 42.9667 14.823 C 42.7228 15.7, 42.3558 17.0191, 41.8657 18.7825, 41.3768 20.5459, 41.1001 21.5836, 41.0344 21.8955 Z M 48.3192 15.4796 L 46.9661 15.4796, 46.9661 19.9444, 48.3192 19.9444 Z M 49.5362 19.9444 L 50.8893 19.9444, 50.8893 15.4796, 49.5362 15.4796 Z M 52.1263 19.9444 L 53.4008 19.9444, 53.4008 15.4796, 52.1263 15.4796 Z" stroke="none" fill="#FF9900" />
			<path d="M 72.8445 19.6443 L 72.8445 14.4665, 74.4086 14.4665, 74.4086 21.9518, 72.8445 21.9518, 72.8445 21.0888, 59.5694 21.0888, 59.5694 14.504, 61.1535 14.504, 61.1535 19.6443, 66.1777 19.6443, 66.1777 13.022, 60.1299 13.022, 60.1299 6.53104, 61.6753 6.53104, 61.6753 11.5587, 66.1777 11.5587, 66.1777 4.82388, 67.7617 4.82388, 67.7617 11.5587, 72.284 11.5587, 72.284 6.53104, 73.8294 6.53104, 73.8294 13.022, 67.7617 13.022, 67.7617 19.6443 Z" stroke="none" fill="#FF9900" />
			<rect />
		</svg>
	</g>
	<g transform="matrix(1 0 -0 1 26.4448 9)">
		<svg width="228.041809" height="56.9999886">
			<defs />
			<path d="M 11.0262 13.8474 L 11.0262 19.7193, 18.1949 19.7193, 18.1949 21.2201, 0.592114 21.2201, 0.592114 19.7193, 3.60661 19.7193, 3.60661 10.2268, 5.19066 10.2268, 5.19066 19.7193, 9.42221 19.7193, 9.42221 7.75044, 1.49963 7.75044, 1.49963 6.2684, 17.5769 6.2684, 17.5769 7.75044, 11.0262 7.75044, 11.0262 12.4029, 16.9391 12.4029, 16.9391 13.8474 Z" stroke="none" fill="#FF9900" />
			<path d="M 35.9907 7.4878 L 35.9907 19.588 C 35.9907 20.3525, 35.8336 20.8918, 35.5182 21.2107, 35.2028 21.5297, 34.6646 21.6891, 33.9048 21.6891, 33.1192 21.6891, 32.3266 21.6516, 31.5282 21.5766 L 31.2573 20.0758 C 32.057 20.1766, 32.8097 20.227, 33.5179 20.2258, 33.879 20.227, 34.1264 20.1332, 34.2624 19.9456, 34.3984 19.758, 34.4653 19.445, 34.4653 19.0064 L 34.4653 8.8948, 22.5234 8.8948, 22.5234 21.7079, 20.9393 21.7079, 20.9393 7.4878, 26.0209 7.4878 C 26.4723 6.52635, 26.8593 5.60711, 27.1805 4.73008 L 29.0354 5.01148 C 28.74 5.78768, 28.3788 6.61312, 27.9532 7.4878 Z M 24.8414 11.2398 L 32.0687 11.2398, 32.0687 18.3686, 24.8414 18.3686 Z M 26.3879 16.9053 L 30.5808 16.9053, 30.5808 12.7031, 26.3879 12.7031 Z" stroke="none" fill="#FF9900" />
			<path d="M 55.8361 8.16316 L 55.8361 9.62644, 44.532 9.62644, 44.532 8.16316, 47.7974 8.16316 C 47.5394 7.76451, 46.8957 6.88279, 45.8651 5.518 L 47.0435 4.78636 C 48.1011 6.13826, 48.8034 7.0575, 49.1505 7.54408 L 48.1069 8.16316, 51.1789 8.16316 C 52.0043 7.02584, 52.7512 5.88851, 53.4207 4.74884 L 54.7151 5.40544 C 54.2391 6.21916, 53.6329 7.1384, 52.8989 8.16316 Z M 43.1402 8.95108 C 42.6771 8.55243, 42.1272 8.10219, 41.4893 7.60154, 40.8515 7.10205, 40.3462 6.71982, 39.9721 6.456 L 40.841 5.3304 C 41.3698 5.69388, 42.4391 6.4947, 44.0489 7.73168 Z M 39.8361 9.38256 C 40.3133 9.72142, 40.9066 10.1658, 41.6148 10.7157, 42.323 11.2668, 42.9034 11.7287, 43.3536 12.1028 L 42.4062 13.3034 C 41.956 12.879, 41.3733 12.383, 40.658 11.8132, 39.9428 11.2445, 39.3601 10.8036, 38.9087 10.4894 Z M 49.0344 11.0522 C 48.4552 11.6537, 47.7364 12.3009, 46.8793 12.995, 46.0234 13.6892, 45.2015 14.3047, 44.4159 14.8417 L 43.5658 13.6223 C 44.3139 13.1862, 45.0831 12.6456, 45.8757 12.0008, 46.6683 11.3571, 47.3659 10.7028, 47.9709 10.0392 Z M 52.2224 10.1705 C 53.7174 11.2726, 55.2111 12.4791, 56.7049 13.7912 L 55.7774 14.898 C 53.9999 13.3984, 52.5062 12.1919, 51.295 11.2773 Z M 45.6529 14.1664 L 54.6952 14.1664, 54.6952 19.9444, 56.3191 19.9444, 56.3191 21.2952, 44.0677 21.2952, 44.0677 19.9444, 45.6529 19.9444 Z M 39.4691 21.4828 C 39.6122 21.0829, 39.9241 20.03, 40.4071 18.3229, 40.8902 16.6157, 41.2478 15.3178, 41.4788 14.429 L 42.9667 14.823 C 42.7228 15.7, 42.3558 17.0191, 41.8657 18.7825, 41.3768 20.5459, 41.1001 21.5836, 41.0344 21.8955 Z M 48.3192 15.4796 L 46.9661 15.4796, 46.9661 19.9444, 48.3192 19.9444 Z M 49.5362 19.9444 L 50.8893 19.9444, 50.8893 15.4796, 49.5362 15.4796 Z M 52.1263 19.9444 L 53.4008 19.9444, 53.4008 15.4796, 52.1263 15.4796 Z" stroke="none" fill="#FF9900" />
			<path d="M 72.8445 19.6443 L 72.8445 14.4665, 74.4086 14.4665, 74.4086 21.9518, 72.8445 21.9518, 72.8445 21.0888, 59.5694 21.0888, 59.5694 14.504, 61.1535 14.504, 61.1535 19.6443, 66.1777 19.6443, 66.1777 13.022, 60.1299 13.022, 60.1299 6.53104, 61.6753 6.53104, 61.6753 11.5587, 66.1777 11.5587, 66.1777 4.82388, 67.7617 4.82388, 67.7617 11.5587, 72.284 11.5587, 72.284 6.53104, 73.8294 6.53104, 73.8294 13.022, 67.7617 13.022, 67.7617 19.6443 Z" stroke="none" fill="#FF9900" />
			<rect />
		</svg>
	</g>
	<path d="M 0 -121.553 L 0 121.553" fill="none" stroke="#000000" stroke-width="6.66666698" stroke-linecap="round" stroke-linejoin="round" transform="matrix(0.2 0 0 0.2 298.791 66.391)" />
	<ellipse cx="1169.68212890625" cy="470.50057983398437" rx="16" ry="16" stroke="none" fill="#CC0000" transform="matrix(0.2 0 0 0.2 64.8548 -12.87)" />
</svg>
