<?xml version="1.0"?>
<svg xmlns="http://www.w3.org/2000/svg" xmlns:xlink="http://www.w3.org/1999/xlink" width="681.841858" height="293.046082">
	<defs />
	<rect x="-201.953156" y="-41.8087616" width="403.906311" height="83.6175232" stroke="none" fill="#69B5F4" fill-opacity="0.392156839" transform="matrix(0.454545 0 -0 0.454545 234.65 108.763)" />
	<g transform="matrix(1 0 -0 1 213.335 96.7549)">
		<svg width="134.752792" height="98.9361496">
			<defs />
			<path d="M 7.49916 15.6509 C 7.5464 15.6975, 7.5697 15.7466, 7.5697 15.7981, 7.5697 15.8576, 7.54333 15.9233, 7.48935 15.9944, 6.95692 16.7342, 6.27788 17.2991, 5.45224 17.688, 4.6266 18.0769, 3.79973 18.2714, 2.97041 18.2714, 2.3705 18.2714, 1.86015 18.1211, 1.43874 17.8205, 1.01794 17.5199, 0.686093 17.1501, 0.443185 16.7109, 0.173901 16.1815, 0.0322052 15.6055, 0.0187104 14.9835, 0.00521553 14.9185, -0.00153196 14.8467, -0.00153196 14.7676, -0.00153196 14.2119, 0.0726899 13.6426, 0.221133 13.0599, 0.36283 12.5238, 0.595309 12.0073, 0.918573 11.5098, 1.24245 11.013, 1.65343 10.5676, 2.15151 10.1744, 2.61647 9.79536, 3.1256 9.4997, 3.67827 9.28685, 4.23095 9.07461, 4.77688 8.96788, 5.31545 8.96727, 5.64607 8.96788, 5.95645 9.02554, 6.24598 9.13963, 6.53551 9.25434, 6.77473 9.40953, 6.96366 9.60582, 7.15259 9.80211, 7.28386 10.0377, 7.35747 10.3118, 7.38446 10.437, 7.39795 10.5707, 7.39795 10.7142, 7.39795 10.8719, 7.37771 11.0387, 7.33723 11.2148, 7.20964 11.7521, 6.94526 12.1692, 6.5441 12.4667, 6.14293 12.7648, 5.68288 12.982, 5.16394 13.1194, 4.645 13.2568, 4.096 13.339, 3.51634 13.3648, 2.93728 13.3911, 2.41834 13.404, 1.95952 13.4034, 1.81844 13.9144, 1.72029 14.4278, 1.66631 14.9443, 1.63932 15.1215, 1.62583 15.2915, 1.62583 15.4546, 1.62583 15.7822, 1.66631 16.0932, 1.74728 16.387, 1.84849 16.7477, 2.00859 17.0439, 2.22758 17.2758, 2.44656 17.5083, 2.73118 17.6242, 3.08143 17.6236, 3.79605 17.6242, 4.49349 17.4414, 5.17437 17.0746, 5.85524 16.7084, 6.4208 16.2109, 6.87227 15.5822, 6.92625 15.4914, 7.00415 15.4356, 7.10475 15.4154 L 7.15566 15.4154 C 7.23663 15.416, 7.30103 15.4387, 7.34765 15.4841 L 7.49916 15.6509 Z M 6.37725 11.1755 C 6.41773 11.0191, 6.43798 10.8786, 6.43798 10.7535, 6.43798 10.4922, 6.36069 10.2634, 6.2055 10.0665, 5.97608 9.77267, 5.63933 9.62545, 5.19461 9.62484, 4.8511 9.62545, 4.50576 9.71255, 4.15857 9.88553, 3.81138 10.0591, 3.50345 10.2959, 3.23356 10.5965, 2.93054 10.9179, 2.69254 11.2731, 2.52078 11.6619, 2.34903 12.0515, 2.21224 12.4195, 2.11103 12.7655, 2.549 12.7661, 3.0158 12.7464, 3.51143 12.7072, 4.00706 12.6679, 4.44994 12.5931, 4.84067 12.4815, 5.23203 12.3704, 5.56204 12.2085, 5.83132 11.9956, 6.10122 11.7834, 6.28278 11.5098, 6.37725 11.1755 Z" stroke="none" fill="#000000" />
			<polyline points="-7.035 -2.1105 7.035 -2.1105" fill="none" stroke="#000000" stroke-width="0.80400002" stroke-linecap="round" stroke-linejoin="round" transform="matrix(1 0 0 1 20.4352 12.008)" />
			<polyline points="-7.035 2.1105 7.035 2.1105" fill="none" stroke="#000000" stroke-width="0.80400002" stroke-linecap="round" stroke-linejoin="round" transform="matrix(1 0 0 1 20.4352 12.008)" />
			<path d="M 42.535 11.2703 C 42.535 12.1943, 42.4707 13.1128, 42.3421 14.0265, 42.2134 14.9403, 41.8948 15.7981, 41.3863 16.5988, 41.0232 17.1831, 40.5375 17.6315, 39.9297 17.9453, 39.3226 18.2597, 38.6619 18.4166, 37.9484 18.4166, 37.2619 18.4166, 36.6127 18.2597, 36.0019 17.9453, 35.3912 17.6315, 34.9036 17.1831, 34.5405 16.5988, 34.032 15.7981, 33.7134 14.9403, 33.5847 14.0265, 33.4561 13.1128, 33.3912 12.1943, 33.3912 11.2703, 33.3912 10.335, 33.4561 9.40019, 33.5847 8.46723, 33.7134 7.53427, 34.032 6.66082, 34.5405 5.84568, 34.9036 5.25657, 35.3893 4.7979, 35.9971 4.47089, 36.6048 4.14387, 37.2553 3.98036, 37.9484 3.97976, 38.6553 3.98036, 39.3142 4.14387, 39.9249 4.47089, 40.5357 4.7979, 41.0232 5.25657, 41.3863 5.84568, 41.8948 6.66082, 42.2134 7.53427, 42.3421 8.46723, 42.4707 9.40019, 42.535 10.335, 42.535 11.2703 Z M 40.5735 10.9337 C 40.5735 10.5303, 40.5705 10.1041, 40.5639 9.65508, 40.5573 9.20663, 40.5405 8.7672, 40.514 8.33739, 40.4876 7.90818, 40.4401 7.50241, 40.3704 7.12069, 40.3012 6.73957, 40.2171 6.41375, 40.1179 6.14384, 39.9201 5.70862, 39.6298 5.35095, 39.2462 5.07202, 38.8633 4.79309, 38.4305 4.65363, 37.9484 4.65303, 37.4795 4.65363, 37.0557 4.7949, 36.6758 5.07683, 36.2959 5.35936, 36.0067 5.71463, 35.8083 6.14384, 35.7098 6.41375, 35.6256 6.73957, 35.5559 7.12069, 35.4867 7.50241, 35.4386 7.90818, 35.4122 8.33739, 35.3857 8.7672, 35.3695 9.20663, 35.3629 9.65508, 35.3563 10.1041, 35.3527 10.5303, 35.3527 10.9337, 35.3527 11.3833, 35.3563 11.8564, 35.3629 12.353, 35.3695 12.8501, 35.3857 13.331, 35.4122 13.7957, 35.4386 14.261, 35.4867 14.7016, 35.5559 15.1182, 35.6256 15.5354, 35.7098 15.8846, 35.8083 16.166, 35.9935 16.6349, 36.2796 17.0196, 36.6656 17.3208, 37.0521 17.6225, 37.4795 17.7728, 37.9484 17.7722, 38.4377 17.7728, 38.8753 17.6225, 39.2613 17.3208, 39.6478 17.0196, 39.9333 16.6349, 40.1179 16.166, 40.2171 15.8846, 40.3012 15.5354, 40.3704 15.1182, 40.4401 14.7016, 40.4876 14.261, 40.514 13.7957, 40.5405 13.331, 40.5573 12.8501, 40.5639 12.353, 40.5705 11.8564, 40.5735 11.3833, 40.5735 10.9337 Z" stroke="none" fill="#000000" />
			<rect />
		</svg>
	</g>
	<path d="M -608.636 -41.8087 L 608.636 -41.8087, 608.636 41.8087, -608.636 41.8087 Z" fill="none" stroke="#000000" stroke-width="5.86666679" stroke-linecap="round" stroke-linejoin="round" transform="matrix(0.454545 0 -0 0.454545 394.356 108.763)" />
	<path d="M 0 54.4331 L 0 -54.4343" fill="none" stroke="#000000" stroke-width="2.9333334" stroke-linecap="round" stroke-linejoin="round" transform="matrix(0.454545 0 0 0.454545 142.853 108.763)" />
	<path d="M 0 54.4331 L 0 -54.4343" fill="none" stroke="#000000" stroke-width="2.9333334" stroke-linecap="round" stroke-linejoin="round" transform="matrix(0.454545 0 0 0.454545 326.447 108.763)" />
	<g transform="matrix(1 0 -0 1 494.024 97.5557)">
		<svg width="33.1395264" height="56.9999886">
			<defs />
			<path d="M 9.35195 5.05347 C 9.28268 5.32255, 9.14127 5.52923, 8.92715 5.67236, 8.7136 5.81606, 8.50292 5.88762, 8.2951 5.88705, 8.06896 5.88762, 7.88633 5.80804, 7.74778 5.64888, 7.64129 5.54583, 7.58461 5.41416, 7.57774 5.255, 7.57774 5.18859, 7.59034 5.10271, 7.61553 4.99851, 7.68537 4.76722, 7.80331 4.58402, 7.96991 4.44948, 8.13651 4.31551, 8.26075 4.24165, 8.34204 4.22906, 8.22296 4.09509, 7.98709 4.02811, 7.63442 4.02754, 7.42717 4.02811, 7.22908 4.20845, 7.04016 4.56799, 7.00237 4.62352, 6.96 4.74718, 6.91306 4.93954, 6.86611 5.13191, 6.8123 5.36721, 6.75276 5.64488, 6.69321 5.92312, 6.63138 6.21739, 6.56841 6.52883, 6.50543 6.84028, 6.44875 7.1397, 6.39837 7.42595 L 6.1625 8.58929, 7.88919 8.58929 C 8.05293 8.58987, 8.13479 8.67231, 8.13479 8.83662 L 8.13479 8.90074, 8.09701 9.06562 C 8.02773 9.2494, 7.90522 9.341, 7.72889 9.34043 L 6.01193 9.34043, 5.10622 13.9022 C 5.01805 14.3304, 4.92416 14.7867, 4.8234 15.2722, 4.72264 15.7577, 4.61271 16.2403, 4.49306 16.7195, 4.37341 17.1987, 4.23658 17.6521, 4.08257 18.0792, 3.92857 18.5069, 3.76311 18.8796, 3.58678 19.1968, 3.48029 19.3742, 3.35892 19.5529, 3.22381 19.7326, 3.08869 19.913, 2.93984 20.0733, 2.7761 20.2135, 2.61237 20.3544, 2.43489 20.4717, 2.24252 20.5662, 2.05073 20.6612, 1.84463 20.7082, 1.62479 20.7082, 1.37975 20.7082, 1.15018 20.6687, 0.936057 20.5891, 0.722511 20.5101, 0.538735 20.4002, 0.384158 20.2593, 0.230725 20.1191, 0.115651 19.9479, 0.0395067 19.7464, 0.0148888 19.6364, 0.00229359 19.5265, 0.00172102 19.4166, 0.00229359 19.313, 0.0148888 19.2002, 0.0395067 19.0777, 0.109353 18.8029, 0.254198 18.5968, 0.474042 18.4594, 0.694458 18.322, 0.911439 18.2533, 1.12441 18.2533, 1.3454 18.2533, 1.52746 18.3265, 1.67173 18.4731, 1.77879 18.5773, 1.83203 18.7084, 1.83203 18.867, 1.83203 18.9345, 1.81944 19.0198, 1.79425 19.1235, 1.72555 19.3559, 1.60589 19.542, 1.43643 19.6822, 1.26697 19.8231, 1.14102 19.8992, 1.05857 19.9112, 1.16621 20.0338, 1.38605 20.0944, 1.71868 20.0944, 1.88242 20.0944, 2.03528 20.0028, 2.17669 19.8196, 2.3181 19.6364, 2.4326 19.3863, 2.52076 19.0685, 2.74118 18.3237, 2.94099 17.4981, 3.12018 16.5913, 3.29938 15.6844, 3.47686 14.8005, 3.65319 13.9388 L 4.58695 9.34043, 3.17171 9.34043 C 3.07782 9.341, 3.00854 9.31066, 2.96446 9.24883, 2.92667 9.21276, 2.90778 9.16696, 2.90778 9.11142, 2.90778 9.07535, 2.91751 9.04158, 2.93583 9.01066 L 2.96446 8.87326 C 2.98335 8.79425, 3.02572 8.72727, 3.09156 8.67231, 3.15797 8.61735, 3.22839 8.58987, 3.30396 8.58929 L 4.73809 8.58929, 4.95508 7.44427 C 4.99286 7.20668, 5.04324 6.94447, 5.10622 6.65707, 5.16919 6.37025, 5.24419 6.08456, 5.33236 5.8006, 5.42053 5.51663, 5.52014 5.24355, 5.63006 4.98076, 5.73999 4.71856, 5.87395 4.49528, 6.03082 4.3115, 6.25753 4.04929, 6.5186 3.8346, 6.81401 3.66628, 7.10943 3.49854, 7.42087 3.41438, 7.74778 3.41381, 7.99338 3.41438, 8.22754 3.45102, 8.45082 3.5243, 8.6741 3.59758, 8.86303 3.70464, 9.01703 3.84491, 9.17104 3.98574, 9.27924 4.15349, 9.34222 4.34814, 9.3863 4.44661, 9.40806 4.5594, 9.40806 4.68707, 9.40806 4.79126, 9.38974 4.91378, 9.35195 5.05347 Z" stroke="none" fill="#000000" />
			<rect />
		</svg>
	</g>
	<g transform="matrix(1 0 -0 1 127.774 97.5557)">
		<svg width="23.9541492" height="32.8723297">
			<defs />
			<path d="M 6.74646 10.4671 C 6.69035 10.7059, 6.56783 10.8879, 6.37891 11.0127, 6.18998 11.1381, 6.00448 11.2005, 5.82185 11.1999, 5.6335 11.2005, 5.48235 11.1335, 5.369 10.9984, 5.27511 10.9074, 5.22473 10.7854, 5.21843 10.632, 5.21843 10.5656, 5.22473 10.498, 5.23675 10.4305, 5.294 10.2175, 5.4022 10.0526, 5.56251 9.93641, 5.72281 9.82076, 5.85334 9.75321, 5.9541 9.73431, 5.91059 9.54539, 5.76288 9.37306, 5.51098 9.21734, 5.25908 9.06161, 4.95736 8.98375, 4.6047 8.98318, 4.39115 8.98375, 4.18677 9.00665, 3.99154 9.05245, 3.79689 9.09826, 3.61426 9.18814, 3.44422 9.32211, 3.28735 9.4389, 3.15854 9.58088, 3.05778 9.74863, 2.95701 9.91694, 2.88488 10.095, 2.84079 10.2839, 2.80301 10.3881, 2.78412 10.4923, 2.78412 10.5954, 2.78412 10.7671, 2.8345 10.9286, 2.93469 11.0809, 3.07953 11.3076, 3.29995 11.4478, 3.59536 11.5022 L 4.53886 11.7037 C 4.84687 11.7713, 5.12511 11.8875, 5.37358 12.0524, 5.62205 12.2173, 5.82357 12.4159, 5.97758 12.6478, 6.13215 12.8803, 6.24036 13.1425, 6.30333 13.435, 6.31593 13.5518, 6.32223 13.6617, 6.32223 13.7648, 6.32223 13.9606, 6.29417 14.1655, 6.23692 14.3785, 6.13044 14.7335, 5.973 15.0879, 5.76575 15.4417, 5.5585 15.796, 5.27854 16.1012, 4.92588 16.3571, 4.54229 16.6262, 4.14268 16.8094, 3.72761 16.9067, 3.31254 17.0046, 2.91293 17.0533, 2.52935 17.0533, 2.14577 17.0533, 1.78852 17.0018, 1.45818 16.8976, 1.12842 16.7939, 0.840446 16.6405, 0.595412 16.4355, 0.350378 16.2312, 0.183205 15.9821, 0.0950381 15.6884, 0.0389322 15.5424, 0.00744417 15.3838, 0.000574052 15.2121, 0.000574052 15.0541, 0.0229019 14.8858, 0.0664127 14.7083, 0.136259 14.434, 0.275951 14.2279, 0.486635 14.0905, 0.697318 13.9531, 0.909719 13.8844, 1.12327 13.8839, 1.34368 13.8844, 1.53261 13.9549, 1.68948 14.0945, 1.79654 14.1987, 1.85322 14.3333, 1.85951 14.4976, 1.85951 14.5835, 1.84406 14.6693, 1.81199 14.7541, 1.74329 15.0232, 1.60303 15.2264, 1.39235 15.3638, 1.18166 15.5012, 1.01048 15.5728, 0.878232 15.5785, 0.947505 15.8052, 1.14559 16.0067, 1.4725 16.1836, 1.79997 16.3611, 2.18642 16.4493, 2.63297 16.4487, 2.91007 16.4493, 3.18201 16.4207, 3.44937 16.3623, 3.71673 16.3044, 3.96062 16.1899, 4.18047 16.0182, 4.39459 15.8722, 4.5692 15.6953, 4.70431 15.4875, 4.83943 15.2802, 4.93561 15.0541, 4.99171 14.809, 5.0295 14.6997, 5.04839 14.5835, 5.04839 14.461, 5.04839 14.2297, 4.97626 14.0218, 4.83141 13.8381, 4.62416 13.5701, 4.32818 13.3898, 3.94459 13.2976 L 3.0011 13.0869 C 2.44748 12.9713, 2.03871 12.6936, 1.77421 12.2534, 1.59845 11.9791, 1.51028 11.6705, 1.51028 11.3282, 1.51028 11.1335, 1.53547 10.9349, 1.58585 10.7328, 1.66772 10.4219, 1.79825 10.1105, 1.97745 9.79901, 2.15665 9.48756, 2.39882 9.21619, 2.70396 8.98375, 3.00911 8.75189, 3.33945 8.59158, 3.69441 8.50284, 4.04994 8.41468, 4.39115 8.37002, 4.71805 8.36945, 5.03923 8.37002, 5.3398 8.41926, 5.61918 8.51659, 5.89914 8.61448, 6.13845 8.75647, 6.33654 8.94253, 6.53463 9.12917, 6.67776 9.3473, 6.76535 9.59691, 6.79054 9.73202, 6.80313 9.86599, 6.80313 9.99996, 6.80313 10.1471, 6.78424 10.3028, 6.74646 10.4671 Z" stroke="none" fill="#000000" />
			<rect />
		</svg>
	</g>
	<rect x="-201.953156" y="-41.8087158" width="403.906311" height="83.6174316" stroke="none" fill="#69B5F4" fill-opacity="0.392156839" transform="matrix(0.454545 0 -0 0.454545 234.65 184.283)" />
	<g transform="matrix(1 0 -0 1 197.338 172.275)">
		<svg width="230.912247" height="98.9361496">
			<defs />
			<path d="M 7.49916 15.6509 C 7.5464 15.6975, 7.5697 15.7466, 7.5697 15.7981, 7.5697 15.8576, 7.54333 15.9233, 7.48935 15.9944, 6.95692 16.7342, 6.27788 17.2991, 5.45224 17.688, 4.6266 18.0769, 3.79973 18.2714, 2.97041 18.2714, 2.3705 18.2714, 1.86015 18.1211, 1.43874 17.8205, 1.01794 17.5199, 0.686093 17.1501, 0.443185 16.7109, 0.173901 16.1815, 0.0322052 15.6055, 0.0187104 14.9835, 0.00521553 14.9185, -0.00153196 14.8467, -0.00153196 14.7676, -0.00153196 14.2119, 0.0726899 13.6426, 0.221133 13.0599, 0.36283 12.5238, 0.595309 12.0073, 0.918573 11.5098, 1.24245 11.013, 1.65343 10.5676, 2.15151 10.1744, 2.61647 9.79536, 3.1256 9.4997, 3.67827 9.28685, 4.23095 9.07461, 4.77688 8.96788, 5.31545 8.96727, 5.64607 8.96788, 5.95645 9.02554, 6.24598 9.13963, 6.53551 9.25434, 6.77473 9.40953, 6.96366 9.60582, 7.15259 9.80211, 7.28386 10.0377, 7.35747 10.3118, 7.38446 10.437, 7.39795 10.5707, 7.39795 10.7142, 7.39795 10.8719, 7.37771 11.0387, 7.33723 11.2148, 7.20964 11.7521, 6.94526 12.1692, 6.5441 12.4667, 6.14293 12.7648, 5.68288 12.982, 5.16394 13.1194, 4.645 13.2568, 4.096 13.339, 3.51634 13.3648, 2.93728 13.3911, 2.41834 13.404, 1.95952 13.4034, 1.81844 13.9144, 1.72029 14.4278, 1.66631 14.9443, 1.63932 15.1215, 1.62583 15.2915, 1.62583 15.4546, 1.62583 15.7822, 1.66631 16.0932, 1.74728 16.387, 1.84849 16.7477, 2.00859 17.0439, 2.22758 17.2758, 2.44656 17.5083, 2.73118 17.6242, 3.08143 17.6236, 3.79605 17.6242, 4.49349 17.4414, 5.17437 17.0746, 5.85524 16.7084, 6.4208 16.2109, 6.87227 15.5822, 6.92625 15.4914, 7.00415 15.4356, 7.10475 15.4154 L 7.15566 15.4154 C 7.23663 15.416, 7.30103 15.4387, 7.34765 15.4841 L 7.49916 15.6509 Z M 6.37725 11.1755 C 6.41773 11.0191, 6.43798 10.8786, 6.43798 10.7535, 6.43798 10.4922, 6.36069 10.2634, 6.2055 10.0665, 5.97608 9.77267, 5.63933 9.62545, 5.19461 9.62484, 4.8511 9.62545, 4.50576 9.71255, 4.15857 9.88553, 3.81138 10.0591, 3.50345 10.2959, 3.23356 10.5965, 2.93054 10.9179, 2.69254 11.2731, 2.52078 11.6619, 2.34903 12.0515, 2.21224 12.4195, 2.11103 12.7655, 2.549 12.7661, 3.0158 12.7464, 3.51143 12.7072, 4.00706 12.6679, 4.44994 12.5931, 4.84067 12.4815, 5.23203 12.3704, 5.56204 12.2085, 5.83132 11.9956, 6.10122 11.7834, 6.28278 11.5098, 6.37725 11.1755 Z" stroke="none" fill="#000000" />
			<polyline points="-7.035 -2.1105 7.035 -2.1105" fill="none" stroke="#000000" stroke-width="0.80400002" stroke-linecap="round" stroke-linejoin="round" transform="matrix(1 0 0 1 20.4352 12.008)" />
			<polyline points="-7.035 2.1105 7.035 2.1105" fill="none" stroke="#000000" stroke-width="0.80400002" stroke-linecap="round" stroke-linejoin="round" transform="matrix(1 0 0 1 20.4352 12.008)" />
			<path d="M 41.4531 17.9646 L 33.3894 17.9646, 33.3894 17.4356 C 33.3894 17.3977, 33.4093 17.34, 33.4489 17.2624 L 36.6885 13.7422 C 37.0714 13.3196, 37.4591 12.8868, 37.8523 12.4443, 38.2454 12.0019, 38.5977 11.5499, 38.9078 11.0882, 39.218 10.6265, 39.4657 10.1504, 39.6509 9.65988, 39.836 9.16936, 39.928 8.65479, 39.928 8.11557, 39.928 7.66111, 39.8685 7.23611, 39.7494 6.84176, 39.6304 6.44742, 39.4591 6.10116, 39.2343 5.803, 39.01 5.50484, 38.7293 5.26438, 38.3927 5.08164, 38.056 4.89889, 37.6659 4.80752, 37.2235 4.80692, 36.5634 4.80752, 35.9803 5.00469, 35.4748 5.39904, 34.9698 5.79338, 34.6344 6.228, 34.4691 6.7017, 34.4366 6.71492, 34.4895 6.72154, 34.6278 6.72093 L 34.7961 6.72093 C 34.9945 6.76662, 35.1658 6.83575, 35.3113 6.92833, 35.4567 7.0215, 35.5788 7.14954, 35.6779 7.31305, 35.7771 7.47656, 35.8264 7.67373, 35.8264 7.90397, 35.8264 8.2893, 35.7014 8.58445, 35.4501 8.78944, 35.1988 8.99503, 34.9181 9.09722, 34.6079 9.09662, 34.311 9.09722, 34.0332 8.99503, 33.776 8.78944, 33.5187 8.58445, 33.3894 8.2893, 33.3894 7.90397, 33.3894 7.36595, 33.4952 6.85619, 33.7068 6.37528, 33.9184 5.89437, 34.2052 5.47779, 34.5683 5.12492, 34.9313 4.77266, 35.3605 4.49373, 35.8559 4.28814, 36.3512 4.08315, 36.8766 3.98036, 37.4315 3.97976, 38.1186 3.98036, 38.7479 4.08135, 39.319 4.28333, 39.8901 4.48531, 40.377 4.77566, 40.7798 5.15378, 41.1825 5.53249, 41.4981 5.97012, 41.726 6.46665, 41.9538 6.96379, 42.0674 7.51323, 42.0674 8.11557, 42.0674 8.78283, 41.9159 9.39719, 41.6118 9.95805, 41.3082 10.5195, 40.9319 11.0341, 40.4828 11.5018, 40.0338 11.97, 39.5565 12.4107, 39.0509 12.8243, 38.546 13.2378, 38.0885 13.64, 37.6791 14.0307 L 35.4002 16.1756, 38.3825 16.1756 C 38.7984 16.1762, 39.1868 16.1732, 39.5463 16.1666, 39.9063 16.1606, 40.2117 16.1473, 40.463 16.1281, 40.7143 16.1089, 40.8429 16.0962, 40.8489 16.089, 40.9018 16.0445, 40.9517 15.955, 40.998 15.8203, 41.0443 15.6857, 41.087 15.527, 41.1266 15.3442, 41.1663 15.1615, 41.206 14.9757, 41.2457 14.7864, 41.2853 14.5976, 41.3214 14.3902, 41.3545 14.1654 L 42.0873 14.1654 Z" stroke="none" fill="#000000" />
			<path d="M 52.9046 11.2703 C 52.9046 12.1943, 52.8403 13.1128, 52.7117 14.0265, 52.583 14.9403, 52.2644 15.7981, 51.7559 16.5988, 51.3928 17.1831, 50.9071 17.6315, 50.2993 17.9453, 49.6922 18.2597, 49.0315 18.4166, 48.318 18.4166, 47.6315 18.4166, 46.9823 18.2597, 46.3715 17.9453, 45.7607 17.6315, 45.2732 17.1831, 44.9101 16.5988, 44.4016 15.7981, 44.083 14.9403, 43.9543 14.0265, 43.8257 13.1128, 43.7608 12.1943, 43.7608 11.2703, 43.7608 10.335, 43.8257 9.40019, 43.9543 8.46723, 44.083 7.53427, 44.4016 6.66082, 44.9101 5.84568, 45.2732 5.25657, 45.7589 4.7979, 46.3667 4.47089, 46.9744 4.14387, 47.6249 3.98036, 48.318 3.97976, 49.0249 3.98036, 49.6838 4.14387, 50.2945 4.47089, 50.9053 4.7979, 51.3928 5.25657, 51.7559 5.84568, 52.2644 6.66082, 52.583 7.53427, 52.7117 8.46723, 52.8403 9.40019, 52.9046 10.335, 52.9046 11.2703 Z M 50.9431 10.9337 C 50.9431 10.5303, 50.9401 10.1041, 50.9335 9.65508, 50.9269 9.20663, 50.9101 8.7672, 50.8836 8.33739, 50.8572 7.90818, 50.8097 7.50241, 50.7399 7.12069, 50.6708 6.73957, 50.5867 6.41375, 50.4875 6.14384, 50.2897 5.70862, 49.9994 5.35095, 49.6158 5.07202, 49.2329 4.79309, 48.8001 4.65363, 48.318 4.65303, 47.8491 4.65363, 47.4253 4.7949, 47.0454 5.07683, 46.6655 5.35936, 46.3763 5.71463, 46.1779 6.14384, 46.0793 6.41375, 45.9952 6.73957, 45.9255 7.12069, 45.8563 7.50241, 45.8082 7.90818, 45.7818 8.33739, 45.7553 8.7672, 45.7391 9.20663, 45.7325 9.65508, 45.7259 10.1041, 45.7223 10.5303, 45.7223 10.9337, 45.7223 11.3833, 45.7259 11.8564, 45.7325 12.353, 45.7391 12.8501, 45.7553 13.331, 45.7818 13.7957, 45.8082 14.261, 45.8563 14.7016, 45.9255 15.1182, 45.9952 15.5354, 46.0793 15.8846, 46.1779 16.166, 46.3631 16.6349, 46.6492 17.0196, 47.0352 17.3208, 47.4217 17.6225, 47.8491 17.7728, 48.318 17.7722, 48.8073 17.7728, 49.2449 17.6225, 49.6309 17.3208, 50.0174 17.0196, 50.3029 16.6349, 50.4875 16.166, 50.5867 15.8846, 50.6708 15.5354, 50.7399 15.1182, 50.8097 14.7016, 50.8572 14.261, 50.8836 13.7957, 50.9101 13.331, 50.9269 12.8501, 50.9335 12.353, 50.9401 11.8564, 50.9431 11.3833, 50.9431 10.9337 Z" stroke="none" fill="#000000" />
			<path d="M 61.6171 14.5405 L 61.6171 16.493 C 61.6171 16.609, 61.6388 16.7166, 61.6821 16.8158, 61.7254 16.9156, 61.7963 16.9811, 61.8949 17.0124, 62.047 17.0833, 62.2946 17.1224, 62.6379 17.1284, 62.9811 17.135, 63.3274 17.138, 63.6772 17.1374 L 63.6772 17.9646 C 62.6673 17.9261, 61.6773 17.9069, 60.7058 17.9069, 59.7488 17.9069, 58.7419 17.9261, 57.6851 17.9646 L 57.6851 17.1374 C 58.0482 17.138, 58.3987 17.135, 58.7353 17.1284, 59.0719 17.1224, 59.3232 17.0833, 59.4879 17.0124, 59.5871 16.9811, 59.6599 16.9156, 59.7061 16.8158, 59.7524 16.7166, 59.7753 16.609, 59.7753 16.493 L 59.7753 14.5405, 54.1294 14.5405, 54.1294 13.7614, 60.7455 3.92205 C 60.8321 3.80723, 60.9409 3.74952, 61.0725 3.74892 L 61.2907 3.74892 C 61.5083 3.74952, 61.6171 3.85833, 61.6171 4.07594 L 61.6171 13.6941, 63.747 13.6941, 63.747 14.5405 Z M 59.8739 6.45163 L 55.0011 13.6941, 59.8739 13.6941 Z" stroke="none" fill="#000000" />
			<path d="M 74.6272 4.95119 C 74.6272 4.99027, 74.611 5.04497, 74.5779 5.1147 L 71.6065 9.18318 C 71.2236 9.71579, 70.9248 10.3043, 70.7102 10.9487, 70.4956 11.5931, 70.3423 12.27, 70.2498 12.9782, 70.1572 13.6869, 70.0995 14.4101, 70.076 15.147, 70.0532 15.8846, 70.0412 16.6282, 70.0412 17.3779, 70.0412 17.7247, 69.9276 17.9874, 69.6997 18.1665, 69.4725 18.3463, 69.223 18.4359, 68.9519 18.4359, 68.6814 18.4359, 68.4355 18.3463, 68.2143 18.1665, 67.9931 17.9874, 67.8825 17.7247, 67.8825 17.3779, 67.8825 15.8137, 68.1548 14.3091, 68.6994 12.8627, 69.2441 11.417, 69.9787 10.059, 70.9032 8.78884 L 72.7848 6.24003, 69.2194 6.24003 C 68.771 6.24063, 68.3532 6.24423, 67.9667 6.25025, 67.5807 6.25686, 67.2519 6.26828, 66.9814 6.28391, 66.7109 6.30014, 66.572 6.31096, 66.5648 6.31697, 66.4987 6.37528, 66.441 6.47146, 66.3917 6.60612, 66.3424 6.74077, 66.2961 6.89827, 66.2528 7.07741, 66.2101 7.25715, 66.1723 7.4429, 66.1392 7.63526, 66.1061 7.82762, 66.0731 8.03261, 66.04 8.25022 L 65.3072 8.25022, 66.0202 3.76816, 66.7433 3.76816, 66.7433 3.96052 C 66.7433 4.03146, 66.783 4.09878, 66.8618 4.1625, 67.0006 4.25267, 67.1461 4.31038, 67.2976 4.33563, 67.4761 4.36208, 67.6943 4.38613, 67.9516 4.40837, 68.2089 4.43121, 68.4848 4.44564, 68.7788 4.45165, 69.0727 4.45826, 69.3679 4.46127, 69.6649 4.46067 L 74.6272 4.46067, 74.6272 4.95119 Z" stroke="none" fill="#000000" />
			<rect />
		</svg>
	</g>
	<path d="M 0 54.4332 L 0 -54.4341" fill="none" stroke="#000000" stroke-width="2.9333334" stroke-linecap="round" stroke-linejoin="round" transform="matrix(0.454545 0 0 0.454545 142.853 184.283)" />
	<path d="M 0 54.4332 L 0 -54.4341" fill="none" stroke="#000000" stroke-width="2.9333334" stroke-linecap="round" stroke-linejoin="round" transform="matrix(0.454545 0 0 0.454545 326.447 184.283)" />
	<g transform="matrix(1 0 -0 1 477.663 173.076)">
		<svg width="131.88237" height="98.936142">
			<defs />
			<path d="M 9.35195 5.05347 C 9.28268 5.32255, 9.14127 5.52923, 8.92715 5.67236, 8.7136 5.81606, 8.50292 5.88762, 8.2951 5.88705, 8.06896 5.88762, 7.88633 5.80804, 7.74778 5.64888, 7.64129 5.54583, 7.58461 5.41416, 7.57774 5.255, 7.57774 5.18859, 7.59034 5.10271, 7.61553 4.99851, 7.68537 4.76722, 7.80331 4.58402, 7.96991 4.44948, 8.13651 4.31551, 8.26075 4.24165, 8.34204 4.22906, 8.22296 4.09509, 7.98709 4.02811, 7.63442 4.02754, 7.42717 4.02811, 7.22908 4.20845, 7.04016 4.56799, 7.00237 4.62352, 6.96 4.74718, 6.91306 4.93954, 6.86611 5.13191, 6.8123 5.36721, 6.75276 5.64488, 6.69321 5.92312, 6.63138 6.21739, 6.56841 6.52883, 6.50543 6.84028, 6.44875 7.1397, 6.39837 7.42595 L 6.1625 8.58929, 7.88919 8.58929 C 8.05293 8.58987, 8.13479 8.67231, 8.13479 8.83662 L 8.13479 8.90074, 8.09701 9.06562 C 8.02773 9.2494, 7.90522 9.341, 7.72889 9.34043 L 6.01193 9.34043, 5.10622 13.9022 C 5.01805 14.3304, 4.92416 14.7867, 4.8234 15.2722, 4.72264 15.7577, 4.61271 16.2403, 4.49306 16.7195, 4.37341 17.1987, 4.23658 17.6521, 4.08257 18.0792, 3.92857 18.5069, 3.76311 18.8796, 3.58678 19.1968, 3.48029 19.3742, 3.35892 19.5529, 3.22381 19.7326, 3.08869 19.913, 2.93984 20.0733, 2.7761 20.2135, 2.61237 20.3544, 2.43489 20.4717, 2.24252 20.5662, 2.05073 20.6612, 1.84463 20.7082, 1.62479 20.7082, 1.37975 20.7082, 1.15018 20.6687, 0.936057 20.5891, 0.722511 20.5101, 0.538735 20.4002, 0.384158 20.2593, 0.230725 20.1191, 0.115651 19.9479, 0.0395067 19.7464, 0.0148888 19.6364, 0.00229359 19.5265, 0.00172102 19.4166, 0.00229359 19.313, 0.0148888 19.2002, 0.0395067 19.0777, 0.109353 18.8029, 0.254198 18.5968, 0.474042 18.4594, 0.694458 18.322, 0.911439 18.2533, 1.12441 18.2533, 1.3454 18.2533, 1.52746 18.3265, 1.67173 18.4731, 1.77879 18.5773, 1.83203 18.7084, 1.83203 18.867, 1.83203 18.9345, 1.81944 19.0198, 1.79425 19.1235, 1.72555 19.3559, 1.60589 19.542, 1.43643 19.6822, 1.26697 19.8231, 1.14102 19.8992, 1.05857 19.9112, 1.16621 20.0338, 1.38605 20.0944, 1.71868 20.0944, 1.88242 20.0944, 2.03528 20.0028, 2.17669 19.8196, 2.3181 19.6364, 2.4326 19.3863, 2.52076 19.0685, 2.74118 18.3237, 2.94099 17.4981, 3.12018 16.5913, 3.29938 15.6844, 3.47686 14.8005, 3.65319 13.9388 L 4.58695 9.34043, 3.17171 9.34043 C 3.07782 9.341, 3.00854 9.31066, 2.96446 9.24883, 2.92667 9.21276, 2.90778 9.16696, 2.90778 9.11142, 2.90778 9.07535, 2.91751 9.04158, 2.93583 9.01066 L 2.96446 8.87326 C 2.98335 8.79425, 3.02572 8.72727, 3.09156 8.67231, 3.15797 8.61735, 3.22839 8.58987, 3.30396 8.58929 L 4.73809 8.58929, 4.95508 7.44427 C 4.99286 7.20668, 5.04324 6.94447, 5.10622 6.65707, 5.16919 6.37025, 5.24419 6.08456, 5.33236 5.8006, 5.42053 5.51663, 5.52014 5.24355, 5.63006 4.98076, 5.73999 4.71856, 5.87395 4.49528, 6.03082 4.3115, 6.25753 4.04929, 6.5186 3.8346, 6.81401 3.66628, 7.10943 3.49854, 7.42087 3.41438, 7.74778 3.41381, 7.99338 3.41438, 8.22754 3.45102, 8.45082 3.5243, 8.6741 3.59758, 8.86303 3.70464, 9.01703 3.84491, 9.17104 3.98574, 9.27924 4.15349, 9.34222 4.34814, 9.3863 4.44661, 9.40806 4.5594, 9.40806 4.68707, 9.40806 4.79126, 9.38974 4.91378, 9.35195 5.05347 Z" stroke="none" fill="#000000" />
			<polyline points="-6.566 -1.9698 6.566 -1.9698" fill="none" stroke="#000000" stroke-width="0.750400007" stroke-linecap="round" stroke-linejoin="round" transform="matrix(1 0 0 1 21.4127 11.2074)" />
			<polyline points="-6.566 1.9698 6.566 1.9698" fill="none" stroke="#000000" stroke-width="0.750400007" stroke-linecap="round" stroke-linejoin="round" transform="matrix(1 0 0 1 21.4127 11.2074)" />
			<path d="M 42.0392 10.519 C 42.0392 11.3813, 41.9792 12.2386, 41.8591 13.0914, 41.7391 13.9442, 41.4417 14.7449, 40.967 15.4922, 40.6282 16.0376, 40.1748 16.4561, 39.6076 16.749, 39.0409 17.0424, 38.4243 17.1888, 37.7583 17.1888, 37.1176 17.1888, 36.5117 17.0424, 35.9416 16.749, 35.3716 16.4561, 34.9166 16.0376, 34.5777 15.4922, 34.103 14.7449, 33.8057 13.9442, 33.6856 13.0914, 33.5655 12.2386, 33.5049 11.3813, 33.5049 10.519, 33.5049 9.64596, 33.5655 8.77352, 33.6856 7.90275, 33.8057 7.03199, 34.103 6.21677, 34.5777 5.45597, 34.9166 4.90613, 35.3699 4.47804, 35.9371 4.17283, 36.5044 3.86761, 37.1114 3.715, 37.7583 3.71444, 38.4181 3.715, 39.0331 3.86761, 39.6031 4.17283, 40.1731 4.47804, 40.6282 4.90613, 40.967 5.45597, 41.4417 6.21677, 41.7391 7.03199, 41.8591 7.90275, 41.9792 8.77352, 42.0392 9.64596, 42.0392 10.519 Z M 40.2085 10.2048 C 40.2085 9.82831, 40.2057 9.43052, 40.1995 9.0114, 40.1933 8.59285, 40.1776 8.18272, 40.1529 7.78156, 40.1283 7.38097, 40.0839 7.00225, 40.0188 6.64598, 39.9543 6.29027, 39.8758 5.98617, 39.7832 5.73426, 39.5986 5.32805, 39.3276 4.99422, 38.9697 4.73389, 38.6123 4.47355, 38.2083 4.34339, 37.7583 4.34283, 37.3207 4.34339, 36.9252 4.47524, 36.5706 4.73837, 36.216 5.00207, 35.9461 5.33366, 35.761 5.73426, 35.6689 5.98617, 35.5904 6.29027, 35.5253 6.64598, 35.4608 7.00225, 35.4159 7.38097, 35.3912 7.78156, 35.3665 8.18272, 35.3514 8.59285, 35.3452 9.0114, 35.339 9.43052, 35.3357 9.82831, 35.3357 10.2048, 35.3357 10.6245, 35.339 11.066, 35.3452 11.5294, 35.3514 11.9934, 35.3665 12.4423, 35.3912 12.876, 35.4159 13.3102, 35.4608 13.7215, 35.5253 14.1103, 35.5904 14.4997, 35.6689 14.8257, 35.761 15.0882, 35.9338 15.5259, 36.2008 15.8849, 36.561 16.166, 36.9218 16.4477, 37.3207 16.588, 37.7583 16.5874, 38.215 16.588, 38.6235 16.4477, 38.9837 16.166, 39.3445 15.8849, 39.611 15.5259, 39.7832 15.0882, 39.8758 14.8257, 39.9543 14.4997, 40.0188 14.1103, 40.0839 13.7215, 40.1283 13.3102, 40.1529 12.876, 40.1776 12.4423, 40.1933 11.9934, 40.1995 11.5294, 40.2057 11.066, 40.2085 10.6245, 40.2085 10.2048 Z" stroke="none" fill="#000000" />
			<rect />
		</svg>
	</g>
	<path d="M -608.636 -41.8087 L 608.636 -41.8087, 608.636 41.8087, -608.636 41.8087 Z" fill="none" stroke="#000000" stroke-width="5.86666679" stroke-linecap="round" stroke-linejoin="round" transform="matrix(0.454545 0 -0 0.454545 394.356 184.283)" />
	<g transform="matrix(1 0 -0 1 127.774 173.076)">
		<svg width="23.9541492" height="32.8723297">
			<defs />
			<path d="M 6.74646 10.4671 C 6.69035 10.7059, 6.56783 10.8879, 6.37891 11.0127, 6.18998 11.1381, 6.00448 11.2005, 5.82185 11.1999, 5.6335 11.2005, 5.48235 11.1335, 5.369 10.9984, 5.27511 10.9074, 5.22473 10.7854, 5.21843 10.632, 5.21843 10.5656, 5.22473 10.498, 5.23675 10.4305, 5.294 10.2175, 5.4022 10.0526, 5.56251 9.93641, 5.72281 9.82076, 5.85334 9.75321, 5.9541 9.73431, 5.91059 9.54539, 5.76288 9.37306, 5.51098 9.21734, 5.25908 9.06161, 4.95736 8.98375, 4.6047 8.98318, 4.39115 8.98375, 4.18677 9.00665, 3.99154 9.05245, 3.79689 9.09826, 3.61426 9.18814, 3.44422 9.32211, 3.28735 9.4389, 3.15854 9.58088, 3.05778 9.74863, 2.95701 9.91694, 2.88488 10.095, 2.84079 10.2839, 2.80301 10.3881, 2.78412 10.4923, 2.78412 10.5954, 2.78412 10.7671, 2.8345 10.9286, 2.93469 11.0809, 3.07953 11.3076, 3.29995 11.4478, 3.59536 11.5022 L 4.53886 11.7037 C 4.84687 11.7713, 5.12511 11.8875, 5.37358 12.0524, 5.62205 12.2173, 5.82357 12.4159, 5.97758 12.6478, 6.13215 12.8803, 6.24036 13.1425, 6.30333 13.435, 6.31593 13.5518, 6.32223 13.6617, 6.32223 13.7648, 6.32223 13.9606, 6.29417 14.1655, 6.23692 14.3785, 6.13044 14.7335, 5.973 15.0879, 5.76575 15.4417, 5.5585 15.796, 5.27854 16.1012, 4.92588 16.3571, 4.54229 16.6262, 4.14268 16.8094, 3.72761 16.9067, 3.31254 17.0046, 2.91293 17.0533, 2.52935 17.0533, 2.14577 17.0533, 1.78852 17.0018, 1.45818 16.8976, 1.12842 16.7939, 0.840446 16.6405, 0.595412 16.4355, 0.350378 16.2312, 0.183205 15.9821, 0.0950381 15.6884, 0.0389322 15.5424, 0.00744417 15.3838, 0.000574052 15.2121, 0.000574052 15.0541, 0.0229019 14.8858, 0.0664127 14.7083, 0.136259 14.434, 0.275951 14.2279, 0.486635 14.0905, 0.697318 13.9531, 0.909719 13.8844, 1.12327 13.8839, 1.34368 13.8844, 1.53261 13.9549, 1.68948 14.0945, 1.79654 14.1987, 1.85322 14.3333, 1.85951 14.4976, 1.85951 14.5835, 1.84406 14.6693, 1.81199 14.7541, 1.74329 15.0232, 1.60303 15.2264, 1.39235 15.3638, 1.18166 15.5012, 1.01048 15.5728, 0.878232 15.5785, 0.947505 15.8052, 1.14559 16.0067, 1.4725 16.1836, 1.79997 16.3611, 2.18642 16.4493, 2.63297 16.4487, 2.91007 16.4493, 3.18201 16.4207, 3.44937 16.3623, 3.71673 16.3044, 3.96062 16.1899, 4.18047 16.0182, 4.39459 15.8722, 4.5692 15.6953, 4.70431 15.4875, 4.83943 15.2802, 4.93561 15.0541, 4.99171 14.809, 5.0295 14.6997, 5.04839 14.5835, 5.04839 14.461, 5.04839 14.2297, 4.97626 14.0218, 4.83141 13.8381, 4.62416 13.5701, 4.32818 13.3898, 3.94459 13.2976 L 3.0011 13.0869 C 2.44748 12.9713, 2.03871 12.6936, 1.77421 12.2534, 1.59845 11.9791, 1.51028 11.6705, 1.51028 11.3282, 1.51028 11.1335, 1.53547 10.9349, 1.58585 10.7328, 1.66772 10.4219, 1.79825 10.1105, 1.97745 9.79901, 2.15665 9.48756, 2.39882 9.21619, 2.70396 8.98375, 3.00911 8.75189, 3.33945 8.59158, 3.69441 8.50284, 4.04994 8.41468, 4.39115 8.37002, 4.71805 8.36945, 5.03923 8.37002, 5.3398 8.41926, 5.61918 8.51659, 5.89914 8.61448, 6.13845 8.75647, 6.33654 8.94253, 6.53463 9.12917, 6.67776 9.3473, 6.76535 9.59691, 6.79054 9.73202, 6.80313 9.86599, 6.80313 9.99996, 6.80313 10.1471, 6.78424 10.3028, 6.74646 10.4671 Z" stroke="none" fill="#000000" />
			<rect />
		</svg>
	</g>
	<rect x="-201.953003" y="-41.8087158" width="403.906006" height="83.6174316" stroke="none" fill="#69B5F4" fill-opacity="0.392156839" transform="matrix(0.454545 0 -0 0.454545 234.65 259.803)" />
	<g transform="matrix(1 0 -0 1 197.338 247.795)">
		<svg width="230.912247" height="98.9361496">
			<defs />
			<path d="M 7.49916 15.6509 C 7.5464 15.6975, 7.5697 15.7466, 7.5697 15.7981, 7.5697 15.8576, 7.54333 15.9233, 7.48935 15.9944, 6.95692 16.7342, 6.27788 17.2991, 5.45224 17.688, 4.6266 18.0769, 3.79973 18.2714, 2.97041 18.2714, 2.3705 18.2714, 1.86015 18.1211, 1.43874 17.8205, 1.01794 17.5199, 0.686093 17.1501, 0.443185 16.7109, 0.173901 16.1815, 0.0322052 15.6055, 0.0187104 14.9835, 0.00521553 14.9185, -0.00153196 14.8467, -0.00153196 14.7676, -0.00153196 14.2119, 0.0726899 13.6426, 0.221133 13.0599, 0.36283 12.5238, 0.595309 12.0073, 0.918573 11.5098, 1.24245 11.013, 1.65343 10.5676, 2.15151 10.1744, 2.61647 9.79536, 3.1256 9.4997, 3.67827 9.28685, 4.23095 9.07461, 4.77688 8.96788, 5.31545 8.96727, 5.64607 8.96788, 5.95645 9.02554, 6.24598 9.13963, 6.53551 9.25434, 6.77473 9.40953, 6.96366 9.60582, 7.15259 9.80211, 7.28386 10.0377, 7.35747 10.3118, 7.38446 10.437, 7.39795 10.5707, 7.39795 10.7142, 7.39795 10.8719, 7.37771 11.0387, 7.33723 11.2148, 7.20964 11.7521, 6.94526 12.1692, 6.5441 12.4667, 6.14293 12.7648, 5.68288 12.982, 5.16394 13.1194, 4.645 13.2568, 4.096 13.339, 3.51634 13.3648, 2.93728 13.3911, 2.41834 13.404, 1.95952 13.4034, 1.81844 13.9144, 1.72029 14.4278, 1.66631 14.9443, 1.63932 15.1215, 1.62583 15.2915, 1.62583 15.4546, 1.62583 15.7822, 1.66631 16.0932, 1.74728 16.387, 1.84849 16.7477, 2.00859 17.0439, 2.22758 17.2758, 2.44656 17.5083, 2.73118 17.6242, 3.08143 17.6236, 3.79605 17.6242, 4.49349 17.4414, 5.17437 17.0746, 5.85524 16.7084, 6.4208 16.2109, 6.87227 15.5822, 6.92625 15.4914, 7.00415 15.4356, 7.10475 15.4154 L 7.15566 15.4154 C 7.23663 15.416, 7.30103 15.4387, 7.34765 15.4841 L 7.49916 15.6509 Z M 6.37725 11.1755 C 6.41773 11.0191, 6.43798 10.8786, 6.43798 10.7535, 6.43798 10.4922, 6.36069 10.2634, 6.2055 10.0665, 5.97608 9.77267, 5.63933 9.62545, 5.19461 9.62484, 4.8511 9.62545, 4.50576 9.71255, 4.15857 9.88553, 3.81138 10.0591, 3.50345 10.2959, 3.23356 10.5965, 2.93054 10.9179, 2.69254 11.2731, 2.52078 11.6619, 2.34903 12.0515, 2.21224 12.4195, 2.11103 12.7655, 2.549 12.7661, 3.0158 12.7464, 3.51143 12.7072, 4.00706 12.6679, 4.44994 12.5931, 4.84067 12.4815, 5.23203 12.3704, 5.56204 12.2085, 5.83132 11.9956, 6.10122 11.7834, 6.28278 11.5098, 6.37725 11.1755 Z" stroke="none" fill="#000000" />
			<polyline points="-7.035 -2.1105 7.035 -2.1105" fill="none" stroke="#000000" stroke-width="0.80400002" stroke-linecap="round" stroke-linejoin="round" transform="matrix(1 0 0 1 20.4352 12.008)" />
			<polyline points="-7.035 2.1105 7.035 2.1105" fill="none" stroke="#000000" stroke-width="0.80400002" stroke-linecap="round" stroke-linejoin="round" transform="matrix(1 0 0 1 20.4352 12.008)" />
			<path d="M 41.4531 17.9646 L 33.3894 17.9646, 33.3894 17.4356 C 33.3894 17.3977, 33.4093 17.34, 33.4489 17.2624 L 36.6885 13.7422 C 37.0714 13.3196, 37.4591 12.8868, 37.8523 12.4443, 38.2454 12.0019, 38.5977 11.5499, 38.9078 11.0882, 39.218 10.6265, 39.4657 10.1504, 39.6509 9.65988, 39.836 9.16936, 39.928 8.65479, 39.928 8.11557, 39.928 7.66111, 39.8685 7.23611, 39.7494 6.84176, 39.6304 6.44742, 39.4591 6.10116, 39.2343 5.803, 39.01 5.50484, 38.7293 5.26438, 38.3927 5.08164, 38.056 4.89889, 37.6659 4.80752, 37.2235 4.80692, 36.5634 4.80752, 35.9803 5.00469, 35.4748 5.39904, 34.9698 5.79338, 34.6344 6.228, 34.4691 6.7017, 34.4366 6.71492, 34.4895 6.72154, 34.6278 6.72093 L 34.7961 6.72093 C 34.9945 6.76662, 35.1658 6.83575, 35.3113 6.92833, 35.4567 7.0215, 35.5788 7.14954, 35.6779 7.31305, 35.7771 7.47656, 35.8264 7.67373, 35.8264 7.90397, 35.8264 8.2893, 35.7014 8.58445, 35.4501 8.78944, 35.1988 8.99503, 34.9181 9.09722, 34.6079 9.09662, 34.311 9.09722, 34.0332 8.99503, 33.776 8.78944, 33.5187 8.58445, 33.3894 8.2893, 33.3894 7.90397, 33.3894 7.36595, 33.4952 6.85619, 33.7068 6.37528, 33.9184 5.89437, 34.2052 5.47779, 34.5683 5.12492, 34.9313 4.77266, 35.3605 4.49373, 35.8559 4.28814, 36.3512 4.08315, 36.8766 3.98036, 37.4315 3.97976, 38.1186 3.98036, 38.7479 4.08135, 39.319 4.28333, 39.8901 4.48531, 40.377 4.77566, 40.7798 5.15378, 41.1825 5.53249, 41.4981 5.97012, 41.726 6.46665, 41.9538 6.96379, 42.0674 7.51323, 42.0674 8.11557, 42.0674 8.78283, 41.9159 9.39719, 41.6118 9.95805, 41.3082 10.5195, 40.9319 11.0341, 40.4828 11.5018, 40.0338 11.97, 39.5565 12.4107, 39.0509 12.8243, 38.546 13.2378, 38.0885 13.64, 37.6791 14.0307 L 35.4002 16.1756, 38.3825 16.1756 C 38.7984 16.1762, 39.1868 16.1732, 39.5463 16.1666, 39.9063 16.1606, 40.2117 16.1473, 40.463 16.1281, 40.7143 16.1089, 40.8429 16.0962, 40.8489 16.089, 40.9018 16.0445, 40.9517 15.955, 40.998 15.8203, 41.0443 15.6857, 41.087 15.527, 41.1266 15.3442, 41.1663 15.1615, 41.206 14.9757, 41.2457 14.7864, 41.2853 14.5976, 41.3214 14.3902, 41.3545 14.1654 L 42.0873 14.1654 Z" stroke="none" fill="#000000" />
			<path d="M 52.9046 11.2703 C 52.9046 12.1943, 52.8403 13.1128, 52.7117 14.0265, 52.583 14.9403, 52.2644 15.7981, 51.7559 16.5988, 51.3928 17.1831, 50.9071 17.6315, 50.2993 17.9453, 49.6922 18.2597, 49.0315 18.4166, 48.318 18.4166, 47.6315 18.4166, 46.9823 18.2597, 46.3715 17.9453, 45.7607 17.6315, 45.2732 17.1831, 44.9101 16.5988, 44.4016 15.7981, 44.083 14.9403, 43.9543 14.0265, 43.8257 13.1128, 43.7608 12.1943, 43.7608 11.2703, 43.7608 10.335, 43.8257 9.40019, 43.9543 8.46723, 44.083 7.53427, 44.4016 6.66082, 44.9101 5.84568, 45.2732 5.25657, 45.7589 4.7979, 46.3667 4.47089, 46.9744 4.14387, 47.6249 3.98036, 48.318 3.97976, 49.0249 3.98036, 49.6838 4.14387, 50.2945 4.47089, 50.9053 4.7979, 51.3928 5.25657, 51.7559 5.84568, 52.2644 6.66082, 52.583 7.53427, 52.7117 8.46723, 52.8403 9.40019, 52.9046 10.335, 52.9046 11.2703 Z M 50.9431 10.9337 C 50.9431 10.5303, 50.9401 10.1041, 50.9335 9.65508, 50.9269 9.20663, 50.9101 8.7672, 50.8836 8.33739, 50.8572 7.90818, 50.8097 7.50241, 50.7399 7.12069, 50.6708 6.73957, 50.5867 6.41375, 50.4875 6.14384, 50.2897 5.70862, 49.9994 5.35095, 49.6158 5.07202, 49.2329 4.79309, 48.8001 4.65363, 48.318 4.65303, 47.8491 4.65363, 47.4253 4.7949, 47.0454 5.07683, 46.6655 5.35936, 46.3763 5.71463, 46.1779 6.14384, 46.0793 6.41375, 45.9952 6.73957, 45.9255 7.12069, 45.8563 7.50241, 45.8082 7.90818, 45.7818 8.33739, 45.7553 8.7672, 45.7391 9.20663, 45.7325 9.65508, 45.7259 10.1041, 45.7223 10.5303, 45.7223 10.9337, 45.7223 11.3833, 45.7259 11.8564, 45.7325 12.353, 45.7391 12.8501, 45.7553 13.331, 45.7818 13.7957, 45.8082 14.261, 45.8563 14.7016, 45.9255 15.1182, 45.9952 15.5354, 46.0793 15.8846, 46.1779 16.166, 46.3631 16.6349, 46.6492 17.0196, 47.0352 17.3208, 47.4217 17.6225, 47.8491 17.7728, 48.318 17.7722, 48.8073 17.7728, 49.2449 17.6225, 49.6309 17.3208, 50.0174 17.0196, 50.3029 16.6349, 50.4875 16.166, 50.5867 15.8846, 50.6708 15.5354, 50.7399 15.1182, 50.8097 14.7016, 50.8572 14.261, 50.8836 13.7957, 50.9101 13.331, 50.9269 12.8501, 50.9335 12.353, 50.9401 11.8564, 50.9431 11.3833, 50.9431 10.9337 Z" stroke="none" fill="#000000" />
			<path d="M 61.6171 14.5405 L 61.6171 16.493 C 61.6171 16.609, 61.6388 16.7166, 61.6821 16.8158, 61.7254 16.9156, 61.7963 16.9811, 61.8949 17.0124, 62.047 17.0833, 62.2946 17.1224, 62.6379 17.1284, 62.9811 17.135, 63.3274 17.138, 63.6772 17.1374 L 63.6772 17.9646 C 62.6673 17.9261, 61.6773 17.9069, 60.7058 17.9069, 59.7488 17.9069, 58.7419 17.9261, 57.6851 17.9646 L 57.6851 17.1374 C 58.0482 17.138, 58.3987 17.135, 58.7353 17.1284, 59.0719 17.1224, 59.3232 17.0833, 59.4879 17.0124, 59.5871 16.9811, 59.6599 16.9156, 59.7061 16.8158, 59.7524 16.7166, 59.7753 16.609, 59.7753 16.493 L 59.7753 14.5405, 54.1294 14.5405, 54.1294 13.7614, 60.7455 3.92205 C 60.8321 3.80723, 60.9409 3.74952, 61.0725 3.74892 L 61.2907 3.74892 C 61.5083 3.74952, 61.6171 3.85833, 61.6171 4.07594 L 61.6171 13.6941, 63.747 13.6941, 63.747 14.5405 Z M 59.8739 6.45163 L 55.0011 13.6941, 59.8739 13.6941 Z" stroke="none" fill="#000000" />
			<path d="M 74.6272 4.95119 C 74.6272 4.99027, 74.611 5.04497, 74.5779 5.1147 L 71.6065 9.18318 C 71.2236 9.71579, 70.9248 10.3043, 70.7102 10.9487, 70.4956 11.5931, 70.3423 12.27, 70.2498 12.9782, 70.1572 13.6869, 70.0995 14.4101, 70.076 15.147, 70.0532 15.8846, 70.0412 16.6282, 70.0412 17.3779, 70.0412 17.7247, 69.9276 17.9874, 69.6997 18.1665, 69.4725 18.3463, 69.223 18.4359, 68.9519 18.4359, 68.6814 18.4359, 68.4355 18.3463, 68.2143 18.1665, 67.9931 17.9874, 67.8825 17.7247, 67.8825 17.3779, 67.8825 15.8137, 68.1548 14.3091, 68.6994 12.8627, 69.2441 11.417, 69.9787 10.059, 70.9032 8.78884 L 72.7848 6.24003, 69.2194 6.24003 C 68.771 6.24063, 68.3532 6.24423, 67.9667 6.25025, 67.5807 6.25686, 67.2519 6.26828, 66.9814 6.28391, 66.7109 6.30014, 66.572 6.31096, 66.5648 6.31697, 66.4987 6.37528, 66.441 6.47146, 66.3917 6.60612, 66.3424 6.74077, 66.2961 6.89827, 66.2528 7.07741, 66.2101 7.25715, 66.1723 7.4429, 66.1392 7.63526, 66.1061 7.82762, 66.0731 8.03261, 66.04 8.25022 L 65.3072 8.25022, 66.0202 3.76816, 66.7433 3.76816, 66.7433 3.96052 C 66.7433 4.03146, 66.783 4.09878, 66.8618 4.1625, 67.0006 4.25267, 67.1461 4.31038, 67.2976 4.33563, 67.4761 4.36208, 67.6943 4.38613, 67.9516 4.40837, 68.2089 4.43121, 68.4848 4.44564, 68.7788 4.45165, 69.0727 4.45826, 69.3679 4.46127, 69.6649 4.46067 L 74.6272 4.46067, 74.6272 4.95119 Z" stroke="none" fill="#000000" />
			<rect />
		</svg>
	</g>
	<path d="M 0 54.4332 L 0 -54.4343" fill="none" stroke="#000000" stroke-width="2.9333334" stroke-linecap="round" stroke-linejoin="round" transform="matrix(0.454545 0 0 0.454545 142.853 259.804)" />
	<path d="M 0 54.4332 L 0 -54.4343" fill="none" stroke="#000000" stroke-width="2.9333334" stroke-linecap="round" stroke-linejoin="round" transform="matrix(0.454545 0 0 0.454545 326.447 259.804)" />
	<g transform="matrix(1 0 -0 1 477.664 248.596)">
		<svg width="131.88237" height="128.808472">
			<defs />
			<path d="M 9.35195 5.05347 C 9.28268 5.32255, 9.14127 5.52923, 8.92715 5.67236, 8.7136 5.81606, 8.50292 5.88762, 8.2951 5.88705, 8.06896 5.88762, 7.88633 5.80804, 7.74778 5.64888, 7.64129 5.54583, 7.58461 5.41416, 7.57774 5.255, 7.57774 5.18859, 7.59034 5.10271, 7.61553 4.99851, 7.68537 4.76722, 7.80331 4.58402, 7.96991 4.44948, 8.13651 4.31551, 8.26075 4.24165, 8.34204 4.22906, 8.22296 4.09509, 7.98709 4.02811, 7.63442 4.02754, 7.42717 4.02811, 7.22908 4.20845, 7.04016 4.56799, 7.00237 4.62352, 6.96 4.74718, 6.91306 4.93954, 6.86611 5.13191, 6.8123 5.36721, 6.75276 5.64488, 6.69321 5.92312, 6.63138 6.21739, 6.56841 6.52883, 6.50543 6.84028, 6.44875 7.1397, 6.39837 7.42595 L 6.1625 8.58929, 7.88919 8.58929 C 8.05293 8.58987, 8.13479 8.67231, 8.13479 8.83662 L 8.13479 8.90074, 8.09701 9.06562 C 8.02773 9.2494, 7.90522 9.341, 7.72889 9.34043 L 6.01193 9.34043, 5.10622 13.9022 C 5.01805 14.3304, 4.92416 14.7867, 4.8234 15.2722, 4.72264 15.7577, 4.61271 16.2403, 4.49306 16.7195, 4.37341 17.1987, 4.23658 17.6521, 4.08257 18.0792, 3.92857 18.5069, 3.76311 18.8796, 3.58678 19.1968, 3.48029 19.3742, 3.35892 19.5529, 3.22381 19.7326, 3.08869 19.913, 2.93984 20.0733, 2.7761 20.2135, 2.61237 20.3544, 2.43489 20.4717, 2.24252 20.5662, 2.05073 20.6612, 1.84463 20.7082, 1.62479 20.7082, 1.37975 20.7082, 1.15018 20.6687, 0.936057 20.5891, 0.722511 20.5101, 0.538735 20.4002, 0.384158 20.2593, 0.230725 20.1191, 0.115651 19.9479, 0.0395067 19.7464, 0.0148888 19.6364, 0.00229359 19.5265, 0.00172102 19.4166, 0.00229359 19.313, 0.0148888 19.2002, 0.0395067 19.0777, 0.109353 18.8029, 0.254198 18.5968, 0.474042 18.4594, 0.694458 18.322, 0.911439 18.2533, 1.12441 18.2533, 1.3454 18.2533, 1.52746 18.3265, 1.67173 18.4731, 1.77879 18.5773, 1.83203 18.7084, 1.83203 18.867, 1.83203 18.9345, 1.81944 19.0198, 1.79425 19.1235, 1.72555 19.3559, 1.60589 19.542, 1.43643 19.6822, 1.26697 19.8231, 1.14102 19.8992, 1.05857 19.9112, 1.16621 20.0338, 1.38605 20.0944, 1.71868 20.0944, 1.88242 20.0944, 2.03528 20.0028, 2.17669 19.8196, 2.3181 19.6364, 2.4326 19.3863, 2.52076 19.0685, 2.74118 18.3237, 2.94099 17.4981, 3.12018 16.5913, 3.29938 15.6844, 3.47686 14.8005, 3.65319 13.9388 L 4.58695 9.34043, 3.17171 9.34043 C 3.07782 9.341, 3.00854 9.31066, 2.96446 9.24883, 2.92667 9.21276, 2.90778 9.16696, 2.90778 9.11142, 2.90778 9.07535, 2.91751 9.04158, 2.93583 9.01066 L 2.96446 8.87326 C 2.98335 8.79425, 3.02572 8.72727, 3.09156 8.67231, 3.15797 8.61735, 3.22839 8.58987, 3.30396 8.58929 L 4.73809 8.58929, 4.95508 7.44427 C 4.99286 7.20668, 5.04324 6.94447, 5.10622 6.65707, 5.16919 6.37025, 5.24419 6.08456, 5.33236 5.8006, 5.42053 5.51663, 5.52014 5.24355, 5.63006 4.98076, 5.73999 4.71856, 5.87395 4.49528, 6.03082 4.3115, 6.25753 4.04929, 6.5186 3.8346, 6.81401 3.66628, 7.10943 3.49854, 7.42087 3.41438, 7.74778 3.41381, 7.99338 3.41438, 8.22754 3.45102, 8.45082 3.5243, 8.6741 3.59758, 8.86303 3.70464, 9.01703 3.84491, 9.17104 3.98574, 9.27924 4.15349, 9.34222 4.34814, 9.3863 4.44661, 9.40806 4.5594, 9.40806 4.68707, 9.40806 4.79126, 9.38974 4.91378, 9.35195 5.05347 Z" stroke="none" fill="#000000" />
			<polyline points="-6.566 -1.9698 6.566 -1.9698" fill="none" stroke="#000000" stroke-width="0.750400007" stroke-linecap="round" stroke-linejoin="round" transform="matrix(1 0 0 1 21.4127 11.2074)" />
			<polyline points="-6.566 1.9698 6.566 1.9698" fill="none" stroke="#000000" stroke-width="0.750400007" stroke-linecap="round" stroke-linejoin="round" transform="matrix(1 0 0 1 21.4127 11.2074)" />
			<polyline points="2.49508 -6.566 -2.49508 6.566" fill="none" stroke="#000000" stroke-width="0.750400007" stroke-linecap="round" stroke-linejoin="round" transform="matrix(1 0 0 1 21.4127 11.2074)" />
			<path d="M 42.0392 10.519 C 42.0392 11.3813, 41.9792 12.2386, 41.8591 13.0914, 41.7391 13.9442, 41.4417 14.7449, 40.967 15.4922, 40.6282 16.0376, 40.1748 16.4561, 39.6076 16.749, 39.0409 17.0424, 38.4243 17.1888, 37.7583 17.1888, 37.1176 17.1888, 36.5117 17.0424, 35.9416 16.749, 35.3716 16.4561, 34.9166 16.0376, 34.5777 15.4922, 34.103 14.7449, 33.8057 13.9442, 33.6856 13.0914, 33.5655 12.2386, 33.5049 11.3813, 33.5049 10.519, 33.5049 9.64596, 33.5655 8.77352, 33.6856 7.90275, 33.8057 7.03199, 34.103 6.21677, 34.5777 5.45597, 34.9166 4.90613, 35.3699 4.47804, 35.9371 4.17283, 36.5044 3.86761, 37.1114 3.715, 37.7583 3.71444, 38.4181 3.715, 39.0331 3.86761, 39.6031 4.17283, 40.1731 4.47804, 40.6282 4.90613, 40.967 5.45597, 41.4417 6.21677, 41.7391 7.03199, 41.8591 7.90275, 41.9792 8.77352, 42.0392 9.64596, 42.0392 10.519 Z M 40.2085 10.2048 C 40.2085 9.82831, 40.2057 9.43052, 40.1995 9.0114, 40.1933 8.59285, 40.1776 8.18272, 40.1529 7.78156, 40.1283 7.38097, 40.0839 7.00225, 40.0188 6.64598, 39.9543 6.29027, 39.8758 5.98617, 39.7832 5.73426, 39.5986 5.32805, 39.3276 4.99422, 38.9697 4.73389, 38.6123 4.47355, 38.2083 4.34339, 37.7583 4.34283, 37.3207 4.34339, 36.9252 4.47524, 36.5706 4.73837, 36.216 5.00207, 35.9461 5.33366, 35.761 5.73426, 35.6689 5.98617, 35.5904 6.29027, 35.5253 6.64598, 35.4608 7.00225, 35.4159 7.38097, 35.3912 7.78156, 35.3665 8.18272, 35.3514 8.59285, 35.3452 9.0114, 35.339 9.43052, 35.3357 9.82831, 35.3357 10.2048, 35.3357 10.6245, 35.339 11.066, 35.3452 11.5294, 35.3514 11.9934, 35.3665 12.4423, 35.3912 12.876, 35.4159 13.3102, 35.4608 13.7215, 35.5253 14.1103, 35.5904 14.4997, 35.6689 14.8257, 35.761 15.0882, 35.9338 15.5259, 36.2008 15.8849, 36.561 16.166, 36.9218 16.4477, 37.3207 16.588, 37.7583 16.5874, 38.215 16.588, 38.6235 16.4477, 38.9837 16.166, 39.3445 15.8849, 39.611 15.5259, 39.7832 15.0882, 39.8758 14.8257, 39.9543 14.4997, 40.0188 14.1103, 40.0839 13.7215, 40.1283 13.3102, 40.1529 12.876, 40.1776 12.4423, 40.1933 11.9934, 40.1995 11.5294, 40.2057 11.066, 40.2085 10.6245, 40.2085 10.2048 Z" stroke="none" fill="#000000" />
			<rect />
		</svg>
	</g>
	<path d="M -608.636 -41.8087 L 608.636 -41.8087, 608.636 41.8087, -608.636 41.8087 Z" fill="none" stroke="#000000" stroke-width="5.86666679" stroke-linecap="round" stroke-linejoin="round" transform="matrix(0.454545 0 -0 0.454545 394.356 259.803)" />
	<g transform="matrix(1 0 -0 1 127.774 248.596)">
		<svg width="23.9541492" height="32.8723297">
			<defs />
			<path d="M 6.74646 10.4671 C 6.69035 10.7059, 6.56783 10.8879, 6.37891 11.0127, 6.18998 11.1381, 6.00448 11.2005, 5.82185 11.1999, 5.6335 11.2005, 5.48235 11.1335, 5.369 10.9984, 5.27511 10.9074, 5.22473 10.7854, 5.21843 10.632, 5.21843 10.5656, 5.22473 10.498, 5.23675 10.4305, 5.294 10.2175, 5.4022 10.0526, 5.56251 9.93641, 5.72281 9.82076, 5.85334 9.75321, 5.9541 9.73431, 5.91059 9.54539, 5.76288 9.37306, 5.51098 9.21734, 5.25908 9.06161, 4.95736 8.98375, 4.6047 8.98318, 4.39115 8.98375, 4.18677 9.00665, 3.99154 9.05245, 3.79689 9.09826, 3.61426 9.18814, 3.44422 9.32211, 3.28735 9.4389, 3.15854 9.58088, 3.05778 9.74863, 2.95701 9.91694, 2.88488 10.095, 2.84079 10.2839, 2.80301 10.3881, 2.78412 10.4923, 2.78412 10.5954, 2.78412 10.7671, 2.8345 10.9286, 2.93469 11.0809, 3.07953 11.3076, 3.29995 11.4478, 3.59536 11.5022 L 4.53886 11.7037 C 4.84687 11.7713, 5.12511 11.8875, 5.37358 12.0524, 5.62205 12.2173, 5.82357 12.4159, 5.97758 12.6478, 6.13215 12.8803, 6.24036 13.1425, 6.30333 13.435, 6.31593 13.5518, 6.32223 13.6617, 6.32223 13.7648, 6.32223 13.9606, 6.29417 14.1655, 6.23692 14.3785, 6.13044 14.7335, 5.973 15.0879, 5.76575 15.4417, 5.5585 15.796, 5.27854 16.1012, 4.92588 16.3571, 4.54229 16.6262, 4.14268 16.8094, 3.72761 16.9067, 3.31254 17.0046, 2.91293 17.0533, 2.52935 17.0533, 2.14577 17.0533, 1.78852 17.0018, 1.45818 16.8976, 1.12842 16.7939, 0.840446 16.6405, 0.595412 16.4355, 0.350378 16.2312, 0.183205 15.9821, 0.0950381 15.6884, 0.0389322 15.5424, 0.00744417 15.3838, 0.000574052 15.2121, 0.000574052 15.0541, 0.0229019 14.8858, 0.0664127 14.7083, 0.136259 14.434, 0.275951 14.2279, 0.486635 14.0905, 0.697318 13.9531, 0.909719 13.8844, 1.12327 13.8839, 1.34368 13.8844, 1.53261 13.9549, 1.68948 14.0945, 1.79654 14.1987, 1.85322 14.3333, 1.85951 14.4976, 1.85951 14.5835, 1.84406 14.6693, 1.81199 14.7541, 1.74329 15.0232, 1.60303 15.2264, 1.39235 15.3638, 1.18166 15.5012, 1.01048 15.5728, 0.878232 15.5785, 0.947505 15.8052, 1.14559 16.0067, 1.4725 16.1836, 1.79997 16.3611, 2.18642 16.4493, 2.63297 16.4487, 2.91007 16.4493, 3.18201 16.4207, 3.44937 16.3623, 3.71673 16.3044, 3.96062 16.1899, 4.18047 16.0182, 4.39459 15.8722, 4.5692 15.6953, 4.70431 15.4875, 4.83943 15.2802, 4.93561 15.0541, 4.99171 14.809, 5.0295 14.6997, 5.04839 14.5835, 5.04839 14.461, 5.04839 14.2297, 4.97626 14.0218, 4.83141 13.8381, 4.62416 13.5701, 4.32818 13.3898, 3.94459 13.2976 L 3.0011 13.0869 C 2.44748 12.9713, 2.03871 12.6936, 1.77421 12.2534, 1.59845 11.9791, 1.51028 11.6705, 1.51028 11.3282, 1.51028 11.1335, 1.53547 10.9349, 1.58585 10.7328, 1.66772 10.4219, 1.79825 10.1105, 1.97745 9.79901, 2.15665 9.48756, 2.39882 9.21619, 2.70396 8.98375, 3.00911 8.75189, 3.33945 8.59158, 3.69441 8.50284, 4.04994 8.41468, 4.39115 8.37002, 4.71805 8.36945, 5.03923 8.37002, 5.3398 8.41926, 5.61918 8.51659, 5.89914 8.61448, 6.13845 8.75647, 6.33654 8.94253, 6.53463 9.12917, 6.67776 9.3473, 6.76535 9.59691, 6.79054 9.73202, 6.80313 9.86599, 6.80313 9.99996, 6.80313 10.1471, 6.78424 10.3028, 6.74646 10.4671 Z" stroke="none" fill="#000000" />
			<rect />
		</svg>
	</g>
	<rect x="-201.953156" y="-41.8088226" width="403.906311" height="83.6176453" stroke="none" fill="#69B5F4" fill-opacity="0.392156839" transform="matrix(0.454545 0 -0 0.454545 234.65 33.2427)" />
	<g transform="matrix(1 0 -0 1 179.808 21.2347)">
		<svg width="333.099609" height="54.1276474">
			<defs />
			<path d="M 9.23581 11.2703 C 9.23581 12.1943, 9.17149 13.1128, 9.04284 14.0265, 8.9142 14.9403, 8.5956 15.7981, 8.08704 16.5988, 7.72395 17.1831, 7.23824 17.6315, 6.63049 17.9453, 6.02334 18.2597, 5.36269 18.4166, 4.64915 18.4166, 3.96265 18.4166, 3.31342 18.2597, 2.70267 17.9453, 2.09192 17.6315, 1.6044 17.1831, 1.24131 16.5988, 0.732751 15.7981, 0.41415 14.9403, 0.285507 14.0265, 0.156864 13.1128, 0.0919411 12.1943, 0.0919411 11.2703, 0.0919411 10.335, 0.156864 9.40019, 0.285507 8.46723, 0.41415 7.53427, 0.732751 6.66082, 1.24131 5.84568, 1.6044 5.25657, 2.09011 4.7979, 2.69786 4.47089, 3.30561 4.14387, 3.95604 3.98036, 4.64915 3.97976, 5.35608 3.98036, 6.01493 4.14387, 6.62568 4.47089, 7.23643 4.7979, 7.72395 5.25657, 8.08704 5.84568, 8.5956 6.66082, 8.9142 7.53427, 9.04284 8.46723, 9.17149 9.40019, 9.23581 10.335, 9.23581 11.2703 Z M 7.2743 10.9337 C 7.2743 10.5303, 7.2713 10.1041, 7.26469 9.65508, 7.25807 9.20663, 7.24124 8.7672, 7.21479 8.33739, 7.18834 7.90818, 7.14085 7.50241, 7.07112 7.12069, 7.00199 6.73957, 6.91783 6.41375, 6.81864 6.14384, 6.62087 5.70862, 6.33052 5.35095, 5.947 5.07202, 5.56407 4.79309, 5.13126 4.65363, 4.64915 4.65303, 4.18026 4.65363, 3.75646 4.7949, 3.37654 5.07683, 2.99663 5.35936, 2.70748 5.71463, 2.50911 6.14384, 2.41052 6.41375, 2.32636 6.73957, 2.25663 7.12069, 2.1875 7.50241, 2.13941 7.90818, 2.11296 8.33739, 2.08651 8.7672, 2.07028 9.20663, 2.06366 9.65508, 2.05705 10.1041, 2.05345 10.5303, 2.05345 10.9337, 2.05345 11.3833, 2.05705 11.8564, 2.06366 12.353, 2.07028 12.8501, 2.08651 13.331, 2.11296 13.7957, 2.13941 14.261, 2.1875 14.7016, 2.25663 15.1182, 2.32636 15.5354, 2.41052 15.8846, 2.50911 16.166, 2.69426 16.6349, 2.9804 17.0196, 3.36632 17.3208, 3.75285 17.6225, 4.18026 17.7728, 4.64915 17.7722, 5.13847 17.7728, 5.5761 17.6225, 5.96203 17.3208, 6.34856 17.0196, 6.6341 16.6349, 6.81864 16.166, 6.91783 15.8846, 7.00199 15.5354, 7.07112 15.1182, 7.14085 14.7016, 7.18834 14.261, 7.21479 13.7957, 7.24124 13.331, 7.25807 12.8501, 7.26469 12.353, 7.2713 11.8564, 7.2743 11.3833, 7.2743 10.9337 Z" stroke="none" fill="#000000" />
			<polyline points="-5.628 6.4722 0 -6.4722" fill="none" stroke="#000000" stroke-width="0.80400002" stroke-linecap="round" stroke-linejoin="round" transform="matrix(-4.37114e-008 -1 1 -4.37114e-008 22.1945 12.008)" />
			<polyline points="0 -6.4722 5.628 6.4722" fill="none" stroke="#000000" stroke-width="0.80400002" stroke-linecap="round" stroke-linejoin="round" transform="matrix(-4.37114e-008 -1 1 -4.37114e-008 22.1945 12.008)" />
			<ellipse cx="-5.6279997229576111" cy="6.4721999764442444" rx="0.40200001001358032" ry="0.40200001001358032" stroke="none" fill="#000000" transform="matrix(-4.37114e-008 -1 1 -4.37114e-008 22.1945 12.008)" />
			<ellipse cx="-0" cy="-6.4721998572349548" rx="0.40200001001358032" ry="0.40200001001358032" stroke="none" fill="#000000" transform="matrix(-4.37114e-008 -1 1 -4.37114e-008 22.1945 12.008)" />
			<ellipse cx="5.6279998421669006" cy="6.4721999764442444" rx="0.40200001001358032" ry="0.40200001001358032" stroke="none" fill="#000000" transform="matrix(-4.37114e-008 -1 1 -4.37114e-008 22.1945 12.008)" />
			<path d="M 42.5576 15.6509 C 42.6049 15.6975, 42.6282 15.7466, 42.6282 15.7981, 42.6282 15.8576, 42.6018 15.9233, 42.5478 15.9944, 42.0154 16.7342, 41.3364 17.2991, 40.5107 17.688, 39.6851 18.0769, 38.8582 18.2714, 38.0289 18.2714, 37.429 18.2714, 36.9186 18.1211, 36.4972 17.8205, 36.0764 17.5199, 35.7446 17.1501, 35.5017 16.7109, 35.2324 16.1815, 35.0907 15.6055, 35.0772 14.9835, 35.0637 14.9185, 35.0569 14.8467, 35.0569 14.7676, 35.0569 14.2119, 35.1312 13.6426, 35.2796 13.0599, 35.4213 12.5238, 35.6538 12.0073, 35.977 11.5098, 36.3009 11.013, 36.7119 10.5676, 37.21 10.1744, 37.6749 9.79536, 38.1841 9.4997, 38.7368 9.28685, 39.2894 9.07461, 39.8354 8.96788, 40.3739 8.96727, 40.7045 8.96788, 41.0149 9.02554, 41.3045 9.13963, 41.594 9.25434, 41.8332 9.40953, 42.0221 9.60582, 42.2111 9.80211, 42.3423 10.0377, 42.4159 10.3118, 42.4429 10.437, 42.4564 10.5707, 42.4564 10.7142, 42.4564 10.8719, 42.4362 11.0387, 42.3957 11.2148, 42.2681 11.7521, 42.0037 12.1692, 41.6026 12.4667, 41.2014 12.7648, 40.7414 12.982, 40.2224 13.1194, 39.7035 13.2568, 39.1545 13.339, 38.5748 13.3648, 37.9958 13.3911, 37.4768 13.404, 37.018 13.4034, 36.8769 13.9144, 36.7788 14.4278, 36.7248 14.9443, 36.6978 15.1215, 36.6843 15.2915, 36.6843 15.4546, 36.6843 15.7822, 36.7248 16.0932, 36.8058 16.387, 36.907 16.7477, 37.0671 17.0439, 37.2861 17.2758, 37.505 17.5083, 37.7897 17.6242, 38.1399 17.6236, 38.8545 17.6242, 39.552 17.4414, 40.2328 17.0746, 40.9137 16.7084, 41.4793 16.2109, 41.9307 15.5822, 41.9847 15.4914, 42.0626 15.4356, 42.1632 15.4154 L 42.2141 15.4154 C 42.2951 15.416, 42.3595 15.4387, 42.4061 15.4841 L 42.5576 15.6509 Z M 41.4357 11.1755 C 41.4762 11.0191, 41.4965 10.8786, 41.4965 10.7535, 41.4965 10.4922, 41.4192 10.2634, 41.264 10.0665, 41.0346 9.77267, 40.6978 9.62545, 40.2531 9.62484, 39.9096 9.62545, 39.5642 9.71255, 39.217 9.88553, 38.8699 10.0591, 38.5619 10.2959, 38.292 10.5965, 37.989 10.9179, 37.751 11.2731, 37.5793 11.6619, 37.4075 12.0515, 37.2707 12.4195, 37.1695 12.7655, 37.6075 12.7661, 38.0743 12.7464, 38.5699 12.7072, 39.0655 12.6679, 39.5084 12.5931, 39.8992 12.4815, 40.2905 12.3704, 40.6205 12.2085, 40.8898 11.9956, 41.1597 11.7834, 41.3413 11.5098, 41.4357 11.1755 Z" stroke="none" fill="#000000" />
			<polyline points="-5.628 6.4722 0 -6.4722" fill="none" stroke="#000000" stroke-width="0.80400002" stroke-linecap="round" stroke-linejoin="round" transform="matrix(-4.37114e-008 -1 1 -4.37114e-008 55.4937 12.008)" />
			<polyline points="0 -6.4722 5.628 6.4722" fill="none" stroke="#000000" stroke-width="0.80400002" stroke-linecap="round" stroke-linejoin="round" transform="matrix(-4.37114e-008 -1 1 -4.37114e-008 55.4937 12.008)" />
			<ellipse cx="-5.6279997229576111" cy="6.4721999764442444" rx="0.40200001001358032" ry="0.40200001001358032" stroke="none" fill="#000000" transform="matrix(-4.37114e-008 -1 1 -4.37114e-008 55.4937 12.008)" />
			<ellipse cx="-0" cy="-6.4721998572349548" rx="0.40200001001358032" ry="0.40200001001358032" stroke="none" fill="#000000" transform="matrix(-4.37114e-008 -1 1 -4.37114e-008 55.4937 12.008)" />
			<ellipse cx="5.6279998421669006" cy="6.4721999764442444" rx="0.40200001001358032" ry="0.40200001001358032" stroke="none" fill="#000000" transform="matrix(-4.37114e-008 -1 1 -4.37114e-008 55.4937 12.008)" />
			<path d="M 76.5115 17.9646 L 68.4479 17.9646, 68.4479 17.4356 C 68.4479 17.3977, 68.4677 17.34, 68.5074 17.2624 L 71.7469 13.7422 C 72.1299 13.3196, 72.5176 12.8868, 72.9107 12.4443, 73.3039 12.0019, 73.6561 11.5499, 73.9663 11.0882, 74.2765 10.6265, 74.5242 10.1504, 74.7093 9.65988, 74.8945 9.16936, 74.9865 8.65479, 74.9865 8.11557, 74.9865 7.66111, 74.9269 7.23611, 74.8079 6.84176, 74.6889 6.44742, 74.5176 6.10116, 74.2927 5.803, 74.0685 5.50484, 73.7878 5.26438, 73.4511 5.08164, 73.1145 4.89889, 72.7244 4.80752, 72.2819 4.80692, 71.6219 4.80752, 71.0388 5.00469, 70.5332 5.39904, 70.0283 5.79338, 69.6928 6.228, 69.5275 6.7017, 69.4951 6.71492, 69.548 6.72154, 69.6862 6.72093 L 69.8546 6.72093 C 70.0529 6.76662, 70.2243 6.83575, 70.3697 6.92833, 70.5152 7.0215, 70.6372 7.14954, 70.7364 7.31305, 70.8356 7.47656, 70.8849 7.67373, 70.8849 7.90397, 70.8849 8.2893, 70.7599 8.58445, 70.5086 8.78944, 70.2573 8.99503, 69.9766 9.09722, 69.6664 9.09662, 69.3694 9.09722, 69.0917 8.99503, 68.8344 8.78944, 68.5771 8.58445, 68.4479 8.2893, 68.4479 7.90397, 68.4479 7.36595, 68.5537 6.85619, 68.7653 6.37528, 68.9769 5.89437, 69.2636 5.47779, 69.6267 5.12492, 69.9898 4.77266, 70.419 4.49373, 70.9144 4.28814, 71.4097 4.08315, 71.9351 3.98036, 72.4899 3.97976, 73.177 3.98036, 73.8064 4.08135, 74.3775 4.28333, 74.9486 4.48531, 75.4355 4.77566, 75.8383 5.15378, 76.241 5.53249, 76.5566 5.97012, 76.7844 6.46665, 77.0123 6.96379, 77.1259 7.51323, 77.1259 8.11557, 77.1259 8.78283, 76.9744 9.39719, 76.6702 9.95805, 76.3667 10.5195, 75.9903 11.0341, 75.5413 11.5018, 75.0922 11.97, 74.6149 12.4107, 74.1094 12.8243, 73.6044 13.2378, 73.147 13.64, 72.7376 14.0307 L 70.4587 16.1756, 73.4409 16.1756 C 73.8569 16.1762, 74.2452 16.1732, 74.6047 16.1666, 74.9648 16.1606, 75.2702 16.1473, 75.5215 16.1281, 75.7727 16.1089, 75.9014 16.0962, 75.9074 16.089, 75.9603 16.0445, 76.0102 15.955, 76.0565 15.8203, 76.1028 15.6857, 76.1454 15.527, 76.1851 15.3442, 76.2248 15.1615, 76.2645 14.9757, 76.3041 14.7864, 76.3438 14.5976, 76.3799 14.3902, 76.4129 14.1654 L 77.1457 14.1654 Z" stroke="none" fill="#000000" />
			<path d="M 87.9631 11.2703 C 87.9631 12.1943, 87.8988 13.1128, 87.7701 14.0265, 87.6415 14.9403, 87.3229 15.7981, 86.8143 16.5988, 86.4513 17.1831, 85.9655 17.6315, 85.3578 17.9453, 84.7506 18.2597, 84.09 18.4166, 83.3764 18.4166, 82.6899 18.4166, 82.0407 18.2597, 81.43 17.9453, 80.8192 17.6315, 80.3317 17.1831, 79.9686 16.5988, 79.4601 15.7981, 79.1414 14.9403, 79.0128 14.0265, 78.8842 13.1128, 78.8192 12.1943, 78.8192 11.2703, 78.8192 10.335, 78.8842 9.40019, 79.0128 8.46723, 79.1414 7.53427, 79.4601 6.66082, 79.9686 5.84568, 80.3317 5.25657, 80.8174 4.7979, 81.4252 4.47089, 82.0329 4.14387, 82.6833 3.98036, 83.3764 3.97976, 84.0834 3.98036, 84.7422 4.14387, 85.353 4.47089, 85.9637 4.7979, 86.4513 5.25657, 86.8143 5.84568, 87.3229 6.66082, 87.6415 7.53427, 87.7701 8.46723, 87.8988 9.40019, 87.9631 10.335, 87.9631 11.2703 Z M 86.0016 10.9337 C 86.0016 10.5303, 85.9986 10.1041, 85.992 9.65508, 85.9854 9.20663, 85.9685 8.7672, 85.9421 8.33739, 85.9156 7.90818, 85.8682 7.50241, 85.7984 7.12069, 85.7293 6.73957, 85.6451 6.41375, 85.5459 6.14384, 85.3482 5.70862, 85.0578 5.35095, 84.6743 5.07202, 84.2914 4.79309, 83.8586 4.65363, 83.3764 4.65303, 82.9076 4.65363, 82.4838 4.7949, 82.1038 5.07683, 81.7239 5.35936, 81.4348 5.71463, 81.2364 6.14384, 81.1378 6.41375, 81.0537 6.73957, 80.9839 7.12069, 80.9148 7.50241, 80.8667 7.90818, 80.8403 8.33739, 80.8138 8.7672, 80.7976 9.20663, 80.791 9.65508, 80.7844 10.1041, 80.7807 10.5303, 80.7807 10.9337, 80.7807 11.3833, 80.7844 11.8564, 80.791 12.353, 80.7976 12.8501, 80.8138 13.331, 80.8403 13.7957, 80.8667 14.261, 80.9148 14.7016, 80.9839 15.1182, 81.0537 15.5354, 81.1378 15.8846, 81.2364 16.166, 81.4216 16.6349, 81.7077 17.0196, 82.0936 17.3208, 82.4802 17.6225, 82.9076 17.7728, 83.3764 17.7722, 83.8658 17.7728, 84.3034 17.6225, 84.6893 17.3208, 85.0759 17.0196, 85.3614 16.6349, 85.5459 16.166, 85.6451 15.8846, 85.7293 15.5354, 85.7984 15.1182, 85.8682 14.7016, 85.9156 14.261, 85.9421 13.7957, 85.9685 13.331, 85.9854 12.8501, 85.992 12.353, 85.9986 11.8564, 86.0016 11.3833, 86.0016 10.9337 Z" stroke="none" fill="#000000" />
			<path d="M 96.6756 14.5405 L 96.6756 16.493 C 96.6756 16.609, 96.6973 16.7166, 96.7405 16.8158, 96.7838 16.9156, 96.8548 16.9811, 96.9533 17.0124, 97.1054 17.0833, 97.3531 17.1224, 97.6963 17.1284, 98.0396 17.135, 98.3858 17.138, 98.7357 17.1374 L 98.7357 17.9646 C 97.7258 17.9261, 96.7357 17.9069, 95.7643 17.9069, 94.8073 17.9069, 93.8004 17.9261, 92.7436 17.9646 L 92.7436 17.1374 C 93.1067 17.138, 93.4571 17.135, 93.7938 17.1284, 94.1304 17.1224, 94.3817 17.0833, 94.5464 17.0124, 94.6456 16.9811, 94.7183 16.9156, 94.7646 16.8158, 94.8109 16.7166, 94.8337 16.609, 94.8337 16.493 L 94.8337 14.5405, 89.1879 14.5405, 89.1879 13.7614, 95.804 3.92205 C 95.8905 3.80723, 95.9993 3.74952, 96.131 3.74892 L 96.3492 3.74892 C 96.5668 3.74952, 96.6756 3.85833, 96.6756 4.07594 L 96.6756 13.6941, 98.8054 13.6941, 98.8054 14.5405 Z M 94.9323 6.45163 L 90.0595 13.6941, 94.9323 13.6941 Z" stroke="none" fill="#000000" />
			<path d="M 109.686 4.95119 C 109.686 4.99027, 109.669 5.04497, 109.636 5.1147 L 106.665 9.18318 C 106.282 9.71579, 105.983 10.3043, 105.769 10.9487, 105.554 11.5931, 105.401 12.27, 105.308 12.9782, 105.216 13.6869, 105.158 14.4101, 105.134 15.147, 105.112 15.8846, 105.1 16.6282, 105.1 17.3779, 105.1 17.7247, 104.986 17.9874, 104.758 18.1665, 104.531 18.3463, 104.281 18.4359, 104.01 18.4359, 103.74 18.4359, 103.494 18.3463, 103.273 18.1665, 103.052 17.9874, 102.941 17.7247, 102.941 17.3779, 102.941 15.8137, 103.213 14.3091, 103.758 12.8627, 104.303 11.417, 105.037 10.059, 105.962 8.78884 L 107.843 6.24003, 104.278 6.24003 C 103.829 6.24063, 103.412 6.24423, 103.025 6.25025, 102.639 6.25686, 102.31 6.26828, 102.04 6.28391, 101.769 6.30014, 101.63 6.31096, 101.623 6.31697, 101.557 6.37528, 101.499 6.47146, 101.45 6.60612, 101.401 6.74077, 101.355 6.89827, 101.311 7.07741, 101.269 7.25715, 101.231 7.4429, 101.198 7.63526, 101.165 7.82762, 101.132 8.03261, 101.098 8.25022 L 100.366 8.25022, 101.079 3.76816, 101.802 3.76816, 101.802 3.96052 C 101.802 4.03146, 101.841 4.09878, 101.92 4.1625, 102.059 4.25267, 102.205 4.31038, 102.356 4.33563, 102.535 4.36208, 102.753 4.38613, 103.01 4.40837, 103.267 4.43121, 103.543 4.44564, 103.837 4.45165, 104.131 4.45826, 104.426 4.46127, 104.723 4.46067 L 109.686 4.46067, 109.686 4.95119 Z" stroke="none" fill="#000000" />
			<rect />
		</svg>
	</g>
	<path d="M 0 54.4332 L 0 -54.4343" fill="none" stroke="#000000" stroke-width="2.9333334" stroke-linecap="round" stroke-linejoin="round" transform="matrix(0.454545 0 0 0.454545 142.853 33.2429)" />
	<path d="M 0 54.4332 L 0 -54.4343" fill="none" stroke="#000000" stroke-width="2.9333334" stroke-linecap="round" stroke-linejoin="round" transform="matrix(0.454545 0 0 0.454545 326.447 33.2429)" />
	<g transform="matrix(1 0 -0 1 494.024 22.0354)">
		<svg width="33.1395264" height="56.9999886">
			<defs />
			<path d="M 9.35195 5.05347 C 9.28268 5.32255, 9.14127 5.52923, 8.92715 5.67236, 8.7136 5.81606, 8.50292 5.88762, 8.2951 5.88705, 8.06896 5.88762, 7.88633 5.80804, 7.74778 5.64888, 7.64129 5.54583, 7.58461 5.41416, 7.57774 5.255, 7.57774 5.18859, 7.59034 5.10271, 7.61553 4.99851, 7.68537 4.76722, 7.80331 4.58402, 7.96991 4.44948, 8.13651 4.31551, 8.26075 4.24165, 8.34204 4.22906, 8.22296 4.09509, 7.98709 4.02811, 7.63442 4.02754, 7.42717 4.02811, 7.22908 4.20845, 7.04016 4.56799, 7.00237 4.62352, 6.96 4.74718, 6.91306 4.93954, 6.86611 5.13191, 6.8123 5.36721, 6.75276 5.64488, 6.69321 5.92312, 6.63138 6.21739, 6.56841 6.52883, 6.50543 6.84028, 6.44875 7.1397, 6.39837 7.42595 L 6.1625 8.58929, 7.88919 8.58929 C 8.05293 8.58987, 8.13479 8.67231, 8.13479 8.83662 L 8.13479 8.90074, 8.09701 9.06562 C 8.02773 9.2494, 7.90522 9.341, 7.72889 9.34043 L 6.01193 9.34043, 5.10622 13.9022 C 5.01805 14.3304, 4.92416 14.7867, 4.8234 15.2722, 4.72264 15.7577, 4.61271 16.2403, 4.49306 16.7195, 4.37341 17.1987, 4.23658 17.6521, 4.08257 18.0792, 3.92857 18.5069, 3.76311 18.8796, 3.58678 19.1968, 3.48029 19.3742, 3.35892 19.5529, 3.22381 19.7326, 3.08869 19.913, 2.93984 20.0733, 2.7761 20.2135, 2.61237 20.3544, 2.43489 20.4717, 2.24252 20.5662, 2.05073 20.6612, 1.84463 20.7082, 1.62479 20.7082, 1.37975 20.7082, 1.15018 20.6687, 0.936057 20.5891, 0.722511 20.5101, 0.538735 20.4002, 0.384158 20.2593, 0.230725 20.1191, 0.115651 19.9479, 0.0395067 19.7464, 0.0148888 19.6364, 0.00229359 19.5265, 0.00172102 19.4166, 0.00229359 19.313, 0.0148888 19.2002, 0.0395067 19.0777, 0.109353 18.8029, 0.254198 18.5968, 0.474042 18.4594, 0.694458 18.322, 0.911439 18.2533, 1.12441 18.2533, 1.3454 18.2533, 1.52746 18.3265, 1.67173 18.4731, 1.77879 18.5773, 1.83203 18.7084, 1.83203 18.867, 1.83203 18.9345, 1.81944 19.0198, 1.79425 19.1235, 1.72555 19.3559, 1.60589 19.542, 1.43643 19.6822, 1.26697 19.8231, 1.14102 19.8992, 1.05857 19.9112, 1.16621 20.0338, 1.38605 20.0944, 1.71868 20.0944, 1.88242 20.0944, 2.03528 20.0028, 2.17669 19.8196, 2.3181 19.6364, 2.4326 19.3863, 2.52076 19.0685, 2.74118 18.3237, 2.94099 17.4981, 3.12018 16.5913, 3.29938 15.6844, 3.47686 14.8005, 3.65319 13.9388 L 4.58695 9.34043, 3.17171 9.34043 C 3.07782 9.341, 3.00854 9.31066, 2.96446 9.24883, 2.92667 9.21276, 2.90778 9.16696, 2.90778 9.11142, 2.90778 9.07535, 2.91751 9.04158, 2.93583 9.01066 L 2.96446 8.87326 C 2.98335 8.79425, 3.02572 8.72727, 3.09156 8.67231, 3.15797 8.61735, 3.22839 8.58987, 3.30396 8.58929 L 4.73809 8.58929, 4.95508 7.44427 C 4.99286 7.20668, 5.04324 6.94447, 5.10622 6.65707, 5.16919 6.37025, 5.24419 6.08456, 5.33236 5.8006, 5.42053 5.51663, 5.52014 5.24355, 5.63006 4.98076, 5.73999 4.71856, 5.87395 4.49528, 6.03082 4.3115, 6.25753 4.04929, 6.5186 3.8346, 6.81401 3.66628, 7.10943 3.49854, 7.42087 3.41438, 7.74778 3.41381, 7.99338 3.41438, 8.22754 3.45102, 8.45082 3.5243, 8.6741 3.59758, 8.86303 3.70464, 9.01703 3.84491, 9.17104 3.98574, 9.27924 4.15349, 9.34222 4.34814, 9.3863 4.44661, 9.40806 4.5594, 9.40806 4.68707, 9.40806 4.79126, 9.38974 4.91378, 9.35195 5.05347 Z" stroke="none" fill="#000000" />
			<rect />
		</svg>
	</g>
	<path d="M -608.636 -41.8087 L 608.636 -41.8087, 608.636 41.8087, -608.636 41.8087 Z" fill="none" stroke="#000000" stroke-width="5.86666679" stroke-linecap="round" stroke-linejoin="round" transform="matrix(0.454545 0 -0 0.454545 394.356 33.2427)" />
	<g transform="matrix(1 0 -0 1 127.774 22.0354)">
		<svg width="23.9541492" height="32.8723297">
			<defs />
			<path d="M 6.74646 10.4671 C 6.69035 10.7059, 6.56783 10.8879, 6.37891 11.0127, 6.18998 11.1381, 6.00448 11.2005, 5.82185 11.1999, 5.6335 11.2005, 5.48235 11.1335, 5.369 10.9984, 5.27511 10.9074, 5.22473 10.7854, 5.21843 10.632, 5.21843 10.5656, 5.22473 10.498, 5.23675 10.4305, 5.294 10.2175, 5.4022 10.0526, 5.56251 9.93641, 5.72281 9.82076, 5.85334 9.75321, 5.9541 9.73431, 5.91059 9.54539, 5.76288 9.37306, 5.51098 9.21734, 5.25908 9.06161, 4.95736 8.98375, 4.6047 8.98318, 4.39115 8.98375, 4.18677 9.00665, 3.99154 9.05245, 3.79689 9.09826, 3.61426 9.18814, 3.44422 9.32211, 3.28735 9.4389, 3.15854 9.58088, 3.05778 9.74863, 2.95701 9.91694, 2.88488 10.095, 2.84079 10.2839, 2.80301 10.3881, 2.78412 10.4923, 2.78412 10.5954, 2.78412 10.7671, 2.8345 10.9286, 2.93469 11.0809, 3.07953 11.3076, 3.29995 11.4478, 3.59536 11.5022 L 4.53886 11.7037 C 4.84687 11.7713, 5.12511 11.8875, 5.37358 12.0524, 5.62205 12.2173, 5.82357 12.4159, 5.97758 12.6478, 6.13215 12.8803, 6.24036 13.1425, 6.30333 13.435, 6.31593 13.5518, 6.32223 13.6617, 6.32223 13.7648, 6.32223 13.9606, 6.29417 14.1655, 6.23692 14.3785, 6.13044 14.7335, 5.973 15.0879, 5.76575 15.4417, 5.5585 15.796, 5.27854 16.1012, 4.92588 16.3571, 4.54229 16.6262, 4.14268 16.8094, 3.72761 16.9067, 3.31254 17.0046, 2.91293 17.0533, 2.52935 17.0533, 2.14577 17.0533, 1.78852 17.0018, 1.45818 16.8976, 1.12842 16.7939, 0.840446 16.6405, 0.595412 16.4355, 0.350378 16.2312, 0.183205 15.9821, 0.0950381 15.6884, 0.0389322 15.5424, 0.00744417 15.3838, 0.000574052 15.2121, 0.000574052 15.0541, 0.0229019 14.8858, 0.0664127 14.7083, 0.136259 14.434, 0.275951 14.2279, 0.486635 14.0905, 0.697318 13.9531, 0.909719 13.8844, 1.12327 13.8839, 1.34368 13.8844, 1.53261 13.9549, 1.68948 14.0945, 1.79654 14.1987, 1.85322 14.3333, 1.85951 14.4976, 1.85951 14.5835, 1.84406 14.6693, 1.81199 14.7541, 1.74329 15.0232, 1.60303 15.2264, 1.39235 15.3638, 1.18166 15.5012, 1.01048 15.5728, 0.878232 15.5785, 0.947505 15.8052, 1.14559 16.0067, 1.4725 16.1836, 1.79997 16.3611, 2.18642 16.4493, 2.63297 16.4487, 2.91007 16.4493, 3.18201 16.4207, 3.44937 16.3623, 3.71673 16.3044, 3.96062 16.1899, 4.18047 16.0182, 4.39459 15.8722, 4.5692 15.6953, 4.70431 15.4875, 4.83943 15.2802, 4.93561 15.0541, 4.99171 14.809, 5.0295 14.6997, 5.04839 14.5835, 5.04839 14.461, 5.04839 14.2297, 4.97626 14.0218, 4.83141 13.8381, 4.62416 13.5701, 4.32818 13.3898, 3.94459 13.2976 L 3.0011 13.0869 C 2.44748 12.9713, 2.03871 12.6936, 1.77421 12.2534, 1.59845 11.9791, 1.51028 11.6705, 1.51028 11.3282, 1.51028 11.1335, 1.53547 10.9349, 1.58585 10.7328, 1.66772 10.4219, 1.79825 10.1105, 1.97745 9.79901, 2.15665 9.48756, 2.39882 9.21619, 2.70396 8.98375, 3.00911 8.75189, 3.33945 8.59158, 3.69441 8.50284, 4.04994 8.41468, 4.39115 8.37002, 4.71805 8.36945, 5.03923 8.37002, 5.3398 8.41926, 5.61918 8.51659, 5.89914 8.61448, 6.13845 8.75647, 6.33654 8.94253, 6.53463 9.12917, 6.67776 9.3473, 6.76535 9.59691, 6.79054 9.73202, 6.80313 9.86599, 6.80313 9.99996, 6.80313 10.1471, 6.78424 10.3028, 6.74646 10.4671 Z" stroke="none" fill="#000000" />
			<rect />
		</svg>
	</g>
	<g transform="matrix(1 0 -0 1 29.8081 19.4732)">
		<svg width="186.13353" height="63.0318985">
			<defs />
			<path d="M 6.90686 21.0072 C 6.27246 20.0839, 5.5476 19.1191, 4.73355 18.1128, 4.49989 19.1329, 4.14814 20.0613, 3.6783 20.898, 3.20846 21.7359, 2.56652 22.6492, 1.75247 23.6403 L 0.405769 22.4946 C 1.13816 21.6517, 1.71478 20.8678, 2.13562 20.1442, 2.55647 19.4206, 2.88058 18.6505, 3.10796 17.8327, 3.3366 17.0161, 3.49112 16.0438, 3.57403 14.9169 L 0.675862 14.9169, 0.675862 13.2888, 3.63559 13.2888 C 3.65066 12.9823, 3.65694 12.4999, 3.65694 11.8416 L 3.65694 10.1733, 1.04771 10.1733, 1.04771 8.56535, 3.65694 8.56535, 3.65694 5.32925, 5.25112 5.32925, 5.25112 8.56535, 7.839 8.56535, 7.839 10.1733, 5.25112 10.1733, 5.25112 11.8416 C 5.25112 12.4999, 5.24484 12.9823, 5.22977 13.2888 L 8.08774 13.2888, 8.08774 14.9169, 5.16821 14.9169 C 5.15439 15.2134, 5.11922 15.628, 5.06394 16.1631, 5.5476 16.7008, 6.10286 17.3541, 6.73099 18.1242, 7.35911 18.8955, 7.85282 19.5211, 8.21085 20.0022 Z M 16.4506 7.78145 L 10.447 7.78145, 10.447 17.4495, 8.87415 17.4495, 8.87415 6.21365, 18.0247 6.21365, 18.0247 17.4294, 16.4506 17.4294 Z M 19.35 19.1379 C 19.35 19.702, 19.3299 20.305, 19.2872 20.9469, 19.247 21.5248, 19.1641 21.957, 19.0397 22.2434, 18.9154 22.5323, 18.7081 22.7333, 18.4179 22.8464, 18.1289 22.9607, 17.6943 23.0373, 17.1139 23.0775, 16.6993 23.1052, 16.3752 23.1177, 16.1403 23.1177, 15.9343 23.1177, 15.6102 23.1052, 15.168 23.0775, 14.4506 23.0373, 13.9544 22.8703, 13.678 22.575, 13.4017 22.2811, 13.2635 21.7384, 13.2635 20.9469 L 13.2635 17.7108 C 12.7936 18.8779, 12.114 19.9369, 11.2233 20.8879, 10.3339 21.8401, 9.18444 22.7559, 7.77619 23.6403 L 6.69958 22.374 C 8.25984 21.4105, 9.45454 20.4997, 10.2824 19.6417, 11.1103 18.7849, 11.6932 17.8365, 12.0311 16.7976, 12.3703 15.7599, 12.5386 14.4496, 12.5386 12.8667 L 12.5801 8.96735, 14.1944 8.96735 C 14.1944 9.51758, 14.1881 10.2048, 14.1743 11.0289, 14.1604 11.853, 14.1466 12.5401, 14.1328 13.0878, 14.0914 14.2951, 13.9532 15.3541, 13.7182 16.2636 L 14.8564 16.2636, 14.8564 20.4042 C 14.8564 20.8615, 14.923 21.1593, 15.0536 21.3, 15.1855 21.4407, 15.4582 21.5248, 15.8715 21.5499 L 16.3061 21.57 C 16.7483 21.5713, 17.0687 21.5449, 17.2684 21.4909, 17.4694 21.4381, 17.6076 21.3301, 17.683 21.1693, 17.7596 21.0085, 17.8048 20.7535, 17.8174 20.4042 L 17.8588 18.756 Z" stroke="none" fill="#000000" />
			<path d="M 35.1043 12.5652 C 36.4158 13.3303, 38.1067 13.9597, 40.177 14.4546 L 39.618 15.942 C 37.2713 15.3403, 35.3392 14.53, 33.8216 13.5099, 32.2614 14.5426, 30.3292 15.4006, 28.024 16.0827 L 27.362 14.6556 C 29.529 13.9873, 31.24 13.2637, 32.4963 12.4848, 31.7237 11.8165, 31.0064 11.0188, 30.3431 10.0929, 29.7916 10.858, 29.3016 11.4673, 28.8733 11.922 L 27.8381 10.7964 C 28.5416 10.0201, 29.2212 9.09674, 29.877 8.0239, 30.5328 6.95232, 31.0755 5.91968, 31.5026 4.92725 L 33.0754 5.42975 C 32.745 6.12822, 32.49 6.64328, 32.3091 6.97745 L 38.4999 6.97745, 38.4999 8.40455 C 37.5615 10.0678, 36.4296 11.4547, 35.1043 12.5652 Z M 26.6987 14.9169 C 26.161 14.1544, 25.6786 13.525, 25.2502 13.0275 L 25.2502 23.379, 23.7176 23.379, 23.7176 14.1933 C 23.0694 16.0174, 22.332 17.5852, 21.5028 18.8967 L 20.7164 17.2887 C 21.337 16.3252, 21.9099 15.2335, 22.435 14.0137, 22.9601 12.7951, 23.3734 11.6155, 23.6761 10.4748 L 21.337 10.4748, 21.337 8.94725, 23.7176 8.94725, 23.7176 5.12825, 25.2502 5.12825, 25.2502 8.94725, 27.4034 8.94725, 27.4034 10.4748, 25.2502 10.4748, 25.2502 11.3592 C 26.1196 12.0841, 26.9336 12.8542, 27.6924 13.6707 Z M 31.2124 8.82665 C 31.9862 9.96732, 32.8279 10.9045, 33.7387 11.6406, 34.7877 10.7977, 35.7399 9.71859, 36.5954 8.40455 L 31.4812 8.40455 C 31.3707 8.59298, 31.2815 8.73368, 31.2124 8.82665 Z M 30.7162 23.4996 L 29.1635 23.4996, 29.1635 16.143, 38.1682 16.143, 38.1682 23.4996, 36.6369 23.4996, 36.6369 22.3941, 30.7162 22.3941 Z M 36.6369 20.9871 L 36.6369 17.5701, 30.7162 17.5701, 30.7162 20.9871 Z" stroke="none" fill="#000000" />
			<path d="M 56.6403 18.4143 C 57.5925 19.7686, 58.9242 21.0889, 60.6352 22.374 L 59.6 23.7207 C 57.9996 22.462, 56.7094 21.1555, 55.7295 19.8012, 54.8326 21.0349, 53.5839 22.3137, 51.9821 23.6403 L 50.947 22.3137 C 52.6178 21.0022, 53.9004 19.6756, 54.7974 18.3339, 53.9281 16.7536, 53.266 14.8717, 52.81 12.6858, 52.7145 12.8743, 52.6216 13.0389, 52.5311 13.1796, 52.4407 13.3203, 52.3691 13.4371, 52.3138 13.53 L 51.1744 12.324 C 51.8377 11.2939, 52.4243 10.162, 52.9344 8.9284, 53.4457 7.69602, 53.8326 6.4762, 54.0939 5.26895 L 55.6466 5.53025 C 55.4532 6.42972, 55.1567 7.441, 54.7559 8.56535 L 60.3048 8.56535, 60.3048 10.1733, 58.8551 10.1733 C 58.6767 11.9836, 58.4141 13.5451, 58.0687 14.8579, 57.7245 16.1719, 57.2483 17.3566, 56.6403 18.4143 Z M 41.6721 14.2134 C 42.3907 13.7989, 43.0766 13.3039, 43.7323 12.7273, 44.3881 12.1519, 44.9635 11.5351, 45.4609 10.8768 L 42.1897 10.8768, 42.1897 9.55025, 46.2888 9.55025, 46.2888 5.38955, 47.7586 5.38955, 47.7586 9.55025, 51.3816 9.55025, 51.3816 10.8768, 47.7586 10.8768, 47.7586 11.1582, 51.2372 13.4496, 50.4709 14.5551 C 49.7397 13.9672, 48.8352 13.324, 47.7586 12.6255 L 47.7586 14.6757, 46.2888 14.6757, 46.2888 11.7612 C 45.8064 12.4459, 45.2361 13.1029, 44.5803 13.7323, 43.9245 14.3629, 43.2248 14.9182, 42.4799 15.3993 Z M 44.3014 9.18845 C 43.9019 8.53268, 43.2876 7.642, 42.4585 6.51515 L 43.4937 5.83175, 45.4195 8.48495 Z M 51.6505 6.55535 C 51.0299 7.441, 50.354 8.35178, 49.6216 9.28895 L 48.545 8.54525 C 49.3189 7.55532, 49.9809 6.6571, 50.5324 5.85185 Z M 53.8665 10.6758 C 54.0738 11.9497, 54.3188 13.0791, 54.6014 14.064, 54.8841 15.0489, 55.2396 15.9634, 55.6667 16.8063, 56.0951 15.9232, 56.4443 14.9421, 56.7132 13.863, 56.982 12.7851, 57.1931 11.5552, 57.3438 10.1733 L 54.0939 10.1733, 53.8665 10.6758 Z M 50.2837 22.6956 C 49.6493 22.3075, 48.7938 21.8464, 47.7172 21.3087, 46.4484 22.1529, 44.6193 22.9444, 42.2311 23.6805 L 41.5477 22.3137 C 43.5502 21.7522, 45.0954 21.1831, 46.1845 20.6052, 45.1645 20.1505, 44.412 19.8226, 43.9283 19.6203 L 43.1004 19.2585 C 43.5565 18.55, 43.9158 17.947, 44.1771 17.4495 L 41.8166 17.4495, 41.8166 16.143, 44.8605 16.143 C 45.1506 15.4873, 45.3366 15.0451, 45.4195 14.8164 L 46.9509 15.1983 C 46.785 15.628, 46.6544 15.9433, 46.5576 16.143 L 50.9256 16.143, 50.9256 17.3892 C 50.388 18.5827, 49.7334 19.555, 48.9596 20.3037, 49.5953 20.6002, 50.2988 20.9683, 51.0714 21.4092 Z M 45.2122 18.7158 C 45.4609 18.8239, 45.9446 19.0186, 46.6607 19.2987 L 47.5928 19.6806 C 48.2837 19.1191, 48.8352 18.3754, 49.2485 17.4495 L 45.9157 17.4495 C 45.6129 18.0136, 45.378 18.4357, 45.2122 18.7158 Z" stroke="none" fill="#000000" />
			<rect />
		</svg>
	</g>
	<g transform="matrix(1 0 -0 1 9.25 94.9934)">
		<svg width="248.995972" height="63.0318985">
			<defs />
			<path d="M 13.1391 18.0123 L 19.35 18.0123, 19.35 19.6002, 13.1391 19.6002, 13.1391 23.5599, 11.5236 23.5599, 11.5236 5.30915, 13.1391 5.30915, 13.1391 8.28395, 18.791 8.28395, 18.791 9.81155, 13.1391 9.81155, 13.1391 13.0476, 18.4179 13.0476, 18.4179 14.5953, 13.1391 14.5953 Z M 1.31781 8.28395 L 6.96967 8.28395, 6.96967 5.44985, 8.58395 5.44985, 8.58395 23.5599, 6.96967 23.5599, 6.96967 19.6002, 0.758775 19.6002, 0.758775 18.0123, 6.96967 18.0123, 6.96967 14.5953, 1.68966 14.5953, 1.68966 13.0476, 6.96967 13.0476, 6.96967 9.81155, 1.31781 9.81155 Z" stroke="none" fill="#000000" />
			<path d="M 27.465 21.0072 C 26.8306 20.0839, 26.1057 19.1191, 25.2917 18.1128, 25.058 19.1329, 24.7063 20.0613, 24.2364 20.898, 23.7666 21.7359, 23.1247 22.6492, 22.3106 23.6403 L 20.9639 22.4946 C 21.6963 21.6517, 22.2729 20.8678, 22.6938 20.1442, 23.1146 19.4206, 23.4387 18.6505, 23.6661 17.8327, 23.8947 17.0161, 24.0493 16.0438, 24.1322 14.9169 L 21.234 14.9169, 21.234 13.2888, 24.1937 13.2888 C 24.2088 12.9823, 24.2151 12.4999, 24.2151 11.8416 L 24.2151 10.1733, 21.6059 10.1733, 21.6059 8.56535, 24.2151 8.56535, 24.2151 5.32925, 25.8093 5.32925, 25.8093 8.56535, 28.3971 8.56535, 28.3971 10.1733, 25.8093 10.1733, 25.8093 11.8416 C 25.8093 12.4999, 25.803 12.9823, 25.7879 13.2888 L 28.6459 13.2888, 28.6459 14.9169, 25.7263 14.9169 C 25.7125 15.2134, 25.6774 15.628, 25.6221 16.1631, 26.1057 16.7008, 26.661 17.3541, 27.2891 18.1242, 27.9172 18.8955, 28.411 19.5211, 28.769 20.0022 Z M 37.0087 7.78145 L 31.0051 7.78145, 31.0051 17.4495, 29.4323 17.4495, 29.4323 6.21365, 38.5828 6.21365, 38.5828 17.4294, 37.0087 17.4294 Z M 39.9082 19.1379 C 39.9082 19.702, 39.8881 20.305, 39.8453 20.9469, 39.8051 21.5248, 39.7222 21.957, 39.5979 22.2434, 39.4735 22.5323, 39.2662 22.7333, 38.976 22.8464, 38.6871 22.9607, 38.2524 23.0373, 37.672 23.0775, 37.2575 23.1052, 36.9334 23.1177, 36.6984 23.1177, 36.4924 23.1177, 36.1683 23.1052, 35.7261 23.0775, 35.0088 23.0373, 34.5126 22.8703, 34.2362 22.575, 33.9598 22.2811, 33.8216 21.7384, 33.8216 20.9469 L 33.8216 17.7108 C 33.3518 18.8779, 32.6722 19.9369, 31.7815 20.8879, 30.892 21.8401, 29.7426 22.7559, 28.3343 23.6403 L 27.2577 22.374 C 28.818 21.4105, 30.0127 20.4997, 30.8405 19.6417, 31.6684 18.7849, 32.2513 17.8365, 32.5892 16.7976, 32.9284 15.7599, 33.0968 14.4496, 33.0968 12.8667 L 33.1382 8.96735, 34.7525 8.96735 C 34.7525 9.51758, 34.7462 10.2048, 34.7324 11.0289, 34.7186 11.853, 34.7048 12.5401, 34.6909 13.0878, 34.6495 14.2951, 34.5113 15.3541, 34.2764 16.2636 L 35.4145 16.2636, 35.4145 20.4042 C 35.4145 20.8615, 35.4811 21.1593, 35.6118 21.3, 35.7437 21.4407, 36.0163 21.5248, 36.4296 21.5499 L 36.8643 21.57 C 37.3065 21.5713, 37.6268 21.5449, 37.8265 21.4909, 38.0275 21.4381, 38.1657 21.3301, 38.2411 21.1693, 38.3177 21.0085, 38.363 20.7535, 38.3755 20.4042 L 38.417 18.756 Z" stroke="none" fill="#000000" />
			<path d="M 55.6624 12.5652 C 56.9739 13.3303, 58.6648 13.9597, 60.7351 14.4546 L 60.1761 15.942 C 57.8294 15.3403, 55.8973 14.53, 54.3798 13.5099, 52.8195 14.5426, 50.8874 15.4006, 48.5822 16.0827 L 47.9201 14.6556 C 50.0872 13.9873, 51.7982 13.2637, 53.0544 12.4848, 52.2818 11.8165, 51.5645 11.0188, 50.9012 10.0929, 50.3497 10.858, 49.8598 11.4673, 49.4314 11.922 L 48.3962 10.7964 C 49.0997 10.0201, 49.7794 9.09674, 50.4351 8.0239, 51.0909 6.95232, 51.6336 5.91968, 52.0607 4.92725 L 53.6335 5.42975 C 53.3032 6.12822, 53.0481 6.64328, 52.8672 6.97745 L 59.058 6.97745, 59.058 8.40455 C 58.1196 10.0678, 56.9877 11.4547, 55.6624 12.5652 Z M 47.2568 14.9169 C 46.7192 14.1544, 46.2367 13.525, 45.8084 13.0275 L 45.8084 23.379, 44.2757 23.379, 44.2757 14.1933 C 43.6275 16.0174, 42.8901 17.5852, 42.061 18.8967 L 41.2746 17.2887 C 41.8951 16.3252, 42.468 15.2335, 42.9931 14.0137, 43.5182 12.7951, 43.9315 11.6155, 44.2343 10.4748 L 41.8951 10.4748, 41.8951 8.94725, 44.2757 8.94725, 44.2757 5.12825, 45.8084 5.12825, 45.8084 8.94725, 47.9616 8.94725, 47.9616 10.4748, 45.8084 10.4748, 45.8084 11.3592 C 46.6777 12.0841, 47.4917 12.8542, 48.2505 13.6707 Z M 51.7705 8.82665 C 52.5444 9.96732, 53.3861 10.9045, 54.2968 11.6406, 55.3458 10.7977, 56.2981 9.71859, 57.1536 8.40455 L 52.0394 8.40455 C 51.9288 8.59298, 51.8396 8.73368, 51.7705 8.82665 Z M 51.2743 23.4996 L 49.7216 23.4996, 49.7216 16.143, 58.7264 16.143, 58.7264 23.4996, 57.195 23.4996, 57.195 22.3941, 51.2743 22.3941 Z M 57.195 20.9871 L 57.195 17.5701, 51.2743 17.5701, 51.2743 20.9871 Z" stroke="none" fill="#000000" />
			<path d="M 77.1984 18.4143 C 78.1507 19.7686, 79.4823 21.0889, 81.1933 22.374 L 80.1582 23.7207 C 78.5577 22.462, 77.2675 21.1555, 76.2877 19.8012, 75.3907 21.0349, 74.142 22.3137, 72.5403 23.6403 L 71.5051 22.3137 C 73.1759 21.0022, 74.4586 19.6756, 75.3555 18.3339, 74.4862 16.7536, 73.8242 14.8717, 73.3681 12.6858, 73.2727 12.8743, 73.1797 13.0389, 73.0892 13.1796, 72.9988 13.3203, 72.9272 13.4371, 72.8719 13.53 L 71.7325 12.324 C 72.3958 11.2939, 72.9825 10.162, 73.4925 8.9284, 74.0038 7.69602, 74.3907 6.4762, 74.652 5.26895 L 76.2048 5.53025 C 76.0113 6.42972, 75.7148 7.441, 75.3141 8.56535 L 80.8629 8.56535, 80.8629 10.1733, 79.4132 10.1733 C 79.2348 11.9836, 78.9723 13.5451, 78.6268 14.8579, 78.2826 16.1719, 77.8065 17.3566, 77.1984 18.4143 Z M 62.2302 14.2134 C 62.9488 13.7989, 63.6347 13.3039, 64.2905 12.7273, 64.9462 12.1519, 65.5216 11.5351, 66.0191 10.8768 L 62.7478 10.8768, 62.7478 9.55025, 66.8469 9.55025, 66.8469 5.38955, 68.3168 5.38955, 68.3168 9.55025, 71.9398 9.55025, 71.9398 10.8768, 68.3168 10.8768, 68.3168 11.1582, 71.7953 13.4496, 71.029 14.5551 C 70.2979 13.9672, 69.3934 13.324, 68.3168 12.6255 L 68.3168 14.6757, 66.8469 14.6757, 66.8469 11.7612 C 66.3645 12.4459, 65.7942 13.1029, 65.1384 13.7323, 64.4827 14.3629, 63.783 14.9182, 63.038 15.3993 Z M 64.8596 9.18845 C 64.4601 8.53268, 63.8458 7.642, 63.0166 6.51515 L 64.0518 5.83175, 65.9776 8.48495 Z M 72.2086 6.55535 C 71.588 7.441, 70.9122 8.35178, 70.1798 9.28895 L 69.1032 8.54525 C 69.877 7.55532, 70.5391 6.6571, 71.0906 5.85185 Z M 74.4246 10.6758 C 74.6319 11.9497, 74.8769 13.0791, 75.1596 14.064, 75.4422 15.0489, 75.7977 15.9634, 76.2249 16.8063, 76.6532 15.9232, 77.0025 14.9421, 77.2713 13.863, 77.5401 12.7851, 77.7512 11.5552, 77.9019 10.1733 L 74.652 10.1733, 74.4246 10.6758 Z M 70.8418 22.6956 C 70.2074 22.3075, 69.3519 21.8464, 68.2753 21.3087, 67.0065 22.1529, 65.1774 22.9444, 62.7893 23.6805 L 62.1059 22.3137 C 64.1083 21.7522, 65.6535 21.1831, 66.7427 20.6052, 65.7226 20.1505, 64.9701 19.8226, 64.4865 19.6203 L 63.6586 19.2585 C 64.1146 18.55, 64.4739 17.947, 64.7352 17.4495 L 62.3747 17.4495, 62.3747 16.143, 65.4186 16.143 C 65.7088 15.4873, 65.8947 15.0451, 65.9776 14.8164 L 67.509 15.1983 C 67.3432 15.628, 67.2125 15.9433, 67.1158 16.143 L 71.4838 16.143, 71.4838 17.3892 C 70.9461 18.5827, 70.2916 19.555, 69.5177 20.3037, 70.1534 20.6002, 70.8569 20.9683, 71.6295 21.4092 Z M 65.7703 18.7158 C 66.0191 18.8239, 66.5027 19.0186, 67.2188 19.2987 L 68.1509 19.6806 C 68.8419 19.1191, 69.3934 18.3754, 69.8067 17.4495 L 66.4738 17.4495 C 66.1711 18.0136, 65.9362 18.4357, 65.7703 18.7158 Z" stroke="none" fill="#000000" />
			<rect />
		</svg>
	</g>
	<g transform="matrix(1 0 -0 1 29.8081 170.514)">
		<svg width="183.263077" height="60.1595573">
			<defs />
			<path d="M 19.0799 12.1632 L 19.0799 13.6707, 9.74347 13.6707 C 9.35655 15.8164, 8.58772 17.6656, 7.43449 19.2196, 6.28251 20.7748, 4.52627 22.2409, 2.16577 23.6202 L 1.17208 22.1328 C 3.28509 20.9419, 4.86922 19.6819, 5.92447 18.3553, 6.97972 17.0287, 7.69453 15.4672, 8.06638 13.6707 L 1.06907 13.6707, 1.06907 12.1632, 8.31512 12.1632 C 8.37039 11.7085, 8.42567 11.0653, 8.48094 10.2336, 8.49476 10.0339, 8.50104 9.79647, 8.50104 9.52135, 8.50104 9.24749, 8.50858 8.9686, 8.5224 8.68595 L 8.5425 7.96235, 2.24869 7.96235, 2.24869 6.45485, 17.8802 6.45485, 17.8802 7.96235, 10.158 7.96235, 10.1367 8.76635 C 10.1241 9.049, 10.1166 9.3304, 10.1166 9.6118, 10.1166 9.8932, 10.1103 10.1344, 10.0952 10.3341, 10.0827 10.7776, 10.0337 11.3869, 9.95076 12.1632 Z M 17.3827 19.9821 C 17.4242 19.0588, 17.4443 18.2887, 17.4443 17.6706 L 19.0799 17.9721, 18.9568 20.6655 C 18.9292 21.2434, 18.8324 21.6856, 18.6666 21.9934, 18.5008 22.3012, 18.242 22.5248, 17.8903 22.6655, 17.5385 22.8062, 17.0322 22.8966, 16.3689 22.9368, 15.776 22.977, 15.217 22.9971, 14.6918 22.9971, 14.1818 22.9971, 13.6228 22.977, 13.0147 22.9368, 12.1869 22.8841, 11.5939 22.6793, 11.2346 22.3238, 10.8754 21.9695, 10.6957 21.3301, 10.6957 20.4042 L 10.6957 14.7561, 12.3514 14.7561, 12.3514 19.962 C 12.3514 20.4859, 12.4457 20.8515, 12.6316 21.0588, 12.8175 21.2673, 13.1391 21.3841, 13.5939 21.4092, 14.1743 21.4369, 14.5675 21.4507, 14.7748 21.4494, 14.982 21.4507, 15.3752 21.4369, 15.9544 21.4092, 16.5071 21.3703, 16.879 21.2598, 17.0724 21.0789, 17.2659 20.898, 17.3702 20.5324, 17.3827 19.9821 Z" stroke="none" fill="#000000" />
			<path d="M 24.0078 8.80655 L 24.0078 11.0577, 22.3106 11.0577, 22.3106 7.25885, 30.0943 7.25885, 29.0592 5.24885, 30.7564 4.96745 C 31.1295 5.6119, 31.5365 6.3757, 31.9787 7.25885 L 38.9145 7.25885, 38.9145 11.0577, 37.2374 11.0577, 37.2374 8.80655 Z M 29.2665 11.2989 C 28.2175 11.8492, 27.068 12.3957, 25.8193 12.9384, 24.5706 13.4811, 23.3458 13.9534, 22.1448 14.3541 L 21.5443 12.9471 C 22.69 12.5866, 23.891 12.1381, 25.1472 11.6017, 26.4035 11.0665, 27.5278 10.5226, 28.5215 9.97235 Z M 32.392 10.0326 C 33.1382 10.3291, 34.2701 10.8078, 35.7877 11.4711, 37.3065 12.1344, 38.5137 12.6733, 39.4107 13.0878 L 38.873 14.5149 C 37.976 14.0878, 36.7851 13.5489, 35.3015 12.8982, 33.8179 12.2487, 32.6345 11.7562, 31.7513 11.4195 Z M 30.0328 12.7863 C 30.0051 13.27, 29.9298 14.1004, 29.8041 15.2787 L 37.6921 15.2787 C 37.6796 15.883, 37.6142 16.7511, 37.4962 17.883, 37.3793 19.0161, 37.2725 19.8829, 37.1746 20.4846, 37.064 21.2095, 36.8919 21.756, 36.657 22.1228, 36.4233 22.4921, 36.0716 22.7534, 35.6017 22.9067, 35.1319 23.0612, 34.4623 23.1378, 33.593 23.1378, 32.9309 23.1378, 31.9511 23.0976, 30.6534 23.0172 L 30.3217 21.4695 C 31.5378 21.6052, 32.6206 21.6718, 33.5729 21.6705, 34.0289 21.6718, 34.3706 21.6291, 34.598 21.5412, 34.8254 21.4545, 35.005 21.2874, 35.1357 21.0387, 35.2676 20.7912, 35.3819 20.4055, 35.4774 19.8816, 35.657 18.8377, 35.76 17.8126, 35.7877 16.8063 L 29.5768 16.8063 C 29.3431 17.9068, 28.9562 18.8452, 28.4185 19.6216, 27.8808 20.3992, 27.1384 21.1027, 26.1924 21.7321, 25.2477 22.3615, 24.0091 22.9909, 22.4764 23.6202 L 21.6059 22.0725 C 22.9726 21.5512, 24.0706 21.0462, 24.8985 20.5563, 25.7263 20.0676, 26.3746 19.5286, 26.8444 18.9382, 27.3142 18.349, 27.6585 17.638, 27.8796 16.8063 L 22.6825 16.8063, 22.6825 15.2787, 28.1484 15.2787, 28.1484 15.2586 C 28.2866 13.9735, 28.3557 13.1494, 28.3557 12.7863 Z" stroke="none" fill="#000000" />
			<path d="M 51.9821 12.0225 C 52.4658 14.1808, 53.3942 16.0576, 54.7672 17.6518, 56.1403 19.2472, 58.0825 20.6869, 60.595 21.972 L 59.5184 23.4795 C 55.3778 21.163, 52.6379 18.3289, 51.2987 14.9772, 50.0852 18.1405, 47.324 20.9947, 43.0175 23.5398 L 41.9208 21.9921 C 44.309 20.7334, 46.2486 19.2472, 47.7385 17.5312, 49.2284 15.8164, 50.0563 13.8994, 50.2221 11.7813 L 42.2927 11.7813, 42.2927 10.1532, 50.2636 10.1532, 50.2636 5.06795, 52.0236 5.06795, 52.0236 10.1532, 60.0774 10.1532, 60.0774 11.7813, 52.0022 11.7813 C 51.9897 11.8366, 51.9821 11.917, 51.9821 12.0225 Z" stroke="none" fill="#000000" />
			<rect />
		</svg>
	</g>
	<g transform="matrix(1 0 -0 1 50.8115 247.796)">
		<svg width="122.984032" height="47.8084984">
			<defs />
			<path d="M 14.31 4.90408 C 13.9732 4.9047, 13.6702 4.92126, 13.4003 4.95377, 13.131 4.98689, 12.8881 5.07154, 12.6722 5.20833, 12.5109 5.30034, 12.3882 5.4267, 12.3035 5.5868, 12.2195 5.74751, 12.1772 5.91559, 12.1772 6.09163 L 12.1772 17.7021 C 12.1772 17.9187, 12.0692 18.026, 11.8533 18.026 L 11.7325 18.026 C 11.6184 18.026, 11.527 17.9806, 11.4595 17.8886 L 2.86694 5.58128 C 2.81296 5.50338, 2.82645 5.50338, 2.90742 5.58128 L 2.90742 16.0337 C 2.90742 16.4005, 3.07243 16.6919, 3.40244 16.9072, 3.6251 17.0452, 3.86924 17.1304, 4.13545 17.1629, 4.40167 17.1961, 4.70346 17.212, 5.04022 17.2114 L 5.04022 18.0358 C 4.17103 17.9904, 3.32883 17.9671, 2.513 17.9671, 1.71128 17.9671, 0.872148 17.9904, -0.00440568 18.0358 L -0.00440568 17.2114 C 0.332966 17.212, 0.634147 17.1942, 0.900364 17.158, 1.16658 17.1225, 1.41133 17.0384, 1.63338 16.9072, 1.95726 16.6986, 2.12226 16.4072, 2.12901 16.0337 L 2.12901 5.04149 C 2.13576 5.0421, 2.12533 5.03229, 2.09834 5.01204, 1.88304 4.95377, 1.58186 4.92126, 1.19418 4.91451, 0.806513 4.90838, 0.407188 4.9047, -0.00440568 4.90408 L -0.00440568 4.0993, 3.91831 4.0993 C 4.03301 4.09991, 4.1238 4.14592, 4.19127 4.2367 L 11.3988 14.5713, 11.3988 6.09163 C 11.3988 5.91559, 11.357 5.74874, 11.2724 5.59171, 11.1884 5.43468, 11.0688 5.30402, 10.9136 5.19852, 10.6915 5.06173, 10.4455 4.97831, 10.1756 4.94886, 9.90635 4.91942, 9.60333 4.9047, 9.26596 4.90408 L 9.26596 4.0993 C 10.1486 4.12629, 10.9908 4.13917, 11.7932 4.13856, 12.609 4.13917, 13.4475 4.12629, 14.31 4.0993 L 14.31 4.90408 Z" stroke="none" fill="#000000" />
			<path d="M 25.0836 16.2987 C 25.0836 16.5545, 25.0364 16.79, 24.9419 17.0059, 24.8475 17.2218, 24.7199 17.4169, 24.5579 17.5899, 24.3966 17.7635, 24.2046 17.899, 23.982 17.9966, 23.7599 18.0947, 23.5207 18.1438, 23.2643 18.1438, 22.7858 18.1438, 22.3939 17.9708, 22.0872 17.6242, 21.7805 17.2777, 21.6204 17.0029, 21.6069 16.7992, 21.4928 17.0679, 21.1928 17.3776, 20.7076 17.7273, 20.2224 18.0769, 19.6667 18.2517, 19.0398 18.2517, 18.6355 18.2517, 18.2295 18.2094, 17.8222 18.1242, 17.4149 18.0395, 17.0407 17.9125, 16.7003 17.742, 16.3598 17.5721, 16.085 17.3445, 15.8764 17.0599, 15.6679 16.7753, 15.563 16.4269, 15.563 16.014, 15.563 15.4325, 15.7403 14.9222, 16.0936 14.4836, 16.4475 14.0456, 16.8806 13.6954, 17.3922 13.4328, 18.0393 13.1194, 18.7079 12.9072, 19.3986 12.7955, 20.0893 12.6845, 20.7579 12.6121, 21.4044 12.579 L 21.4044 11.7938 C 21.4044 11.5, 21.3541 11.2074, 21.2529 10.916, 21.1523 10.6253, 21.0008 10.3713, 20.7984 10.1548, 20.4077 9.70397, 19.9329 9.4813, 19.3735 9.48743, 18.9152 9.48805, 18.4926 9.56166, 18.1049 9.70887, 17.7173 9.85609, 17.4566 10.0113, 17.3216 10.1744 L 17.2204 10.1744 C 17.4633 10.1751, 17.6891 10.2407, 17.8976 10.3707, 18.1473 10.5413, 18.2718 10.8099, 18.2718 11.1755, 18.2718 11.5166, 18.1589 11.7717, 17.9332 11.9417, 17.7075 12.1122, 17.4701 12.1968, 17.2204 12.1962, 16.9646 12.1968, 16.7236 12.1122, 16.4978 11.9417, 16.2721 11.7717, 16.1592 11.5166, 16.1592 11.1755, 16.1592 10.7964, 16.2555 10.4597, 16.4475 10.1652, 16.6395 9.87081, 16.8886 9.62545, 17.1953 9.42916, 17.502 9.23287, 17.8455 9.08749, 18.2258 8.99242, 18.6067 8.89795, 18.9895 8.85011, 19.3735 8.84949, 19.8452 8.85011, 20.3015 8.91881, 20.7426 9.05621, 21.1842 9.19361, 21.5866 9.40646, 21.9504 9.69354, 22.2804 9.96221, 22.5466 10.275, 22.749 10.6314, 22.9514 10.9884, 23.052 11.3755, 23.052 11.7938 L 23.052 16.2987 C 23.052 16.5673, 23.1079 16.8035, 23.2189 17.0059, 23.3305 17.209, 23.4968 17.3102, 23.7188 17.3096, 23.928 17.3102, 24.0862 17.209, 24.1942 17.0059, 24.3022 16.8035, 24.3555 16.5673, 24.3555 16.2987 L 24.3555 14.9148, 25.0836 14.9148, 25.0836 16.2987 Z M 21.4044 13.2071 C 20.953 13.2274, 20.4764 13.2899, 19.9746 13.3942, 19.4728 13.4991, 19.006 13.6819, 18.5748 13.9432, 18.2043 14.1665, 17.9099 14.4658, 17.6909 14.8418, 17.4719 15.2185, 17.3621 15.6092, 17.3621 16.014, 17.3621 16.2435, 17.4063 16.4532, 17.4934 16.6428, 17.5811 16.8329, 17.7038 16.9998, 17.862 17.1433, 18.0203 17.2875, 18.2043 17.4003, 18.4129 17.4819, 18.622 17.5641, 18.8447 17.6046, 19.0803 17.604, 19.4103 17.6046, 19.7139 17.5457, 19.9899 17.4279, 20.266 17.3102, 20.5101 17.1433, 20.7223 16.9274, 20.9346 16.7115, 21.1014 16.46, 21.2229 16.1717, 21.3443 15.884, 21.4044 15.5798, 21.4044 15.2583 Z" stroke="none" fill="#000000" />
			<path d="M 39.9132 4.90408 C 39.5765 4.9047, 39.2734 4.92126, 39.0035 4.95377, 38.7343 4.98689, 38.4913 5.07154, 38.2754 5.20833, 38.1141 5.30034, 37.9914 5.4267, 37.9068 5.5868, 37.8227 5.74751, 37.7804 5.91559, 37.7804 6.09163 L 37.7804 17.7021 C 37.7804 17.9187, 37.6725 18.026, 37.4565 18.026 L 37.3357 18.026 C 37.2216 18.026, 37.1302 17.9806, 37.0627 17.8886 L 28.4702 5.58128 C 28.4162 5.50338, 28.4297 5.50338, 28.5107 5.58128 L 28.5107 16.0337 C 28.5107 16.4005, 28.6757 16.6919, 29.0057 16.9072, 29.2283 17.0452, 29.4725 17.1304, 29.7387 17.1629, 30.0049 17.1961, 30.3067 17.212, 30.6435 17.2114 L 30.6435 18.0358 C 29.7743 17.9904, 28.9321 17.9671, 28.1162 17.9671, 27.3145 17.9671, 26.4754 17.9904, 25.5988 18.0358 L 25.5988 17.2114 C 25.9362 17.212, 26.2374 17.1942, 26.5036 17.158, 26.7698 17.1225, 27.0146 17.0384, 27.2366 16.9072, 27.5605 16.6986, 27.7255 16.4072, 27.7323 16.0337 L 27.7323 5.04149 C 27.739 5.0421, 27.7286 5.03229, 27.7016 5.01204, 27.4863 4.95377, 27.1851 4.92126, 26.7974 4.91451, 26.4098 4.90838, 26.0104 4.9047, 25.5988 4.90408 L 25.5988 4.0993, 29.5216 4.0993 C 29.6363 4.09991, 29.727 4.14592, 29.7945 4.2367 L 37.002 14.5713, 37.002 6.09163 C 37.002 5.91559, 36.9603 5.74874, 36.8756 5.59171, 36.7916 5.43468, 36.672 5.30402, 36.5168 5.19852, 36.2948 5.06173, 36.0488 4.97831, 35.7789 4.94886, 35.5096 4.91942, 35.2066 4.9047, 34.8692 4.90408 L 34.8692 4.0993 C 35.7519 4.12629, 36.5941 4.13917, 37.3964 4.13856, 38.2122 4.13917, 39.0508 4.12629, 39.9132 4.0993 L 39.9132 4.90408 Z" stroke="none" fill="#000000" />
			<rect />
		</svg>
	</g>
</svg>
