<?xml version="1.0"?>
<svg xmlns="http://www.w3.org/2000/svg" xmlns:xlink="http://www.w3.org/1999/xlink" width="574.972595" height="66.4852219">
	<defs />
	<rect x="-238.671814" y="-49.410408" width="477.343628" height="98.820816" stroke="none" fill="#69B5F4" fill-opacity="0.392156839" transform="matrix(0.384615 0 -0 0.384615 127.781 33.2427)" />
	<g transform="matrix(1 0 -0 1 72.9403 21.2347)">
		<svg width="333.099609" height="54.1276474">
			<defs />
			<path d="M 9.23676 11.2703 C 9.23676 12.1943, 9.17244 13.1128, 9.0438 14.0265, 8.91516 14.9403, 8.59656 15.7981, 8.088 16.5988, 7.72491 17.1831, 7.23919 17.6315, 6.63205 17.9453, 6.0249 18.2597, 5.36425 18.4166, 4.6507 18.4166, 3.96421 18.4166, 3.31558 18.2597, 2.70483 17.9453, 2.09408 17.6315, 1.60656 17.1831, 1.24347 16.5988, 0.735511 15.7981, 0.41691 14.9403, 0.288267 14.0265, 0.159624 13.1128, 0.0947011 12.1943, 0.0947011 11.2703, 0.0947011 10.335, 0.159624 9.40019, 0.288267 8.46723, 0.41691 7.53427, 0.735511 6.66082, 1.24347 5.84568, 1.60656 5.25657, 2.09227 4.7979, 2.69942 4.47089, 3.30717 4.14387, 3.9576 3.98036, 4.6507 3.97976, 5.35764 3.98036, 6.01588 4.14387, 6.62664 4.47089, 7.23739 4.7979, 7.72491 5.25657, 8.088 5.84568, 8.59656 6.66082, 8.91516 7.53427, 9.0438 8.46723, 9.17244 9.40019, 9.23676 10.335, 9.23676 11.2703 Z M 7.27526 10.9337 C 7.27526 10.5303, 7.27226 10.1041, 7.26564 9.65508, 7.25963 9.20663, 7.2428 8.7672, 7.21635 8.33739, 7.1899 7.90818, 7.14241 7.50241, 7.07268 7.12069, 7.00355 6.73957, 6.91939 6.41375, 6.8202 6.14384, 6.62183 5.70862, 6.33148 5.35095, 5.94856 5.07202, 5.56563 4.79309, 5.13281 4.65363, 4.6507 4.65303, 4.18182 4.65363, 3.75802 4.7949, 3.3781 5.07683, 2.99879 5.35936, 2.70964 5.71463, 2.51126 6.14384, 2.41268 6.41375, 2.32852 6.73957, 2.25879 7.12069, 2.18966 7.50241, 2.14157 7.90818, 2.11512 8.33739, 2.08867 8.7672, 2.07244 9.20663, 2.06582 9.65508, 2.05921 10.1041, 2.0556 10.5303, 2.0556 10.9337, 2.0556 11.3833, 2.05921 11.8564, 2.06582 12.353, 2.07244 12.8501, 2.08867 13.331, 2.11512 13.7957, 2.14157 14.261, 2.18966 14.7016, 2.25879 15.1182, 2.32852 15.5354, 2.41268 15.8846, 2.51126 16.166, 2.69641 16.6349, 2.98255 17.0196, 3.36848 17.3208, 3.75441 17.6225, 4.18182 17.7728, 4.6507 17.7722, 5.13943 17.7728, 5.57705 17.6225, 5.96298 17.3208, 6.34951 17.0196, 6.63505 16.6349, 6.8202 16.166, 6.91939 15.8846, 7.00355 15.5354, 7.07268 15.1182, 7.14241 14.7016, 7.1899 14.261, 7.21635 13.7957, 7.2428 13.331, 7.25963 12.8501, 7.26564 12.353, 7.27226 11.8564, 7.27526 11.3833, 7.27526 10.9337 Z" stroke="none" fill="#000000" />
			<polyline points="-5.628 6.4722 0 -6.4722" fill="none" stroke="#000000" stroke-width="0.80400002" stroke-linecap="round" stroke-linejoin="round" transform="matrix(-4.37114e-008 -1 1 -4.37114e-008 22.1926 12.008)" />
			<polyline points="0 -6.4722 5.628 6.4722" fill="none" stroke="#000000" stroke-width="0.80400002" stroke-linecap="round" stroke-linejoin="round" transform="matrix(-4.37114e-008 -1 1 -4.37114e-008 22.1926 12.008)" />
			<ellipse cx="-5.6279997229576111" cy="6.4721999764442444" rx="0.40200001001358032" ry="0.40200001001358032" stroke="none" fill="#000000" transform="matrix(-4.37114e-008 -1 1 -4.37114e-008 22.1926 12.008)" />
			<ellipse cx="-0" cy="-6.4721998572349548" rx="0.40200001001358032" ry="0.40200001001358032" stroke="none" fill="#000000" transform="matrix(-4.37114e-008 -1 1 -4.37114e-008 22.1926 12.008)" />
			<ellipse cx="5.6279998421669006" cy="6.4721999764442444" rx="0.40200001001358032" ry="0.40200001001358032" stroke="none" fill="#000000" transform="matrix(-4.37114e-008 -1 1 -4.37114e-008 22.1926 12.008)" />
			<path d="M 42.5558 15.6509 C 42.603 15.6975, 42.6263 15.7466, 42.6263 15.7981, 42.6263 15.8576, 42.6 15.9233, 42.546 15.9944, 42.0136 16.7342, 41.3345 17.2991, 40.5089 17.688, 39.6832 18.0769, 38.8564 18.2714, 38.027 18.2714, 37.4271 18.2714, 36.9168 18.1211, 36.4954 17.8205, 36.0746 17.5199, 35.7427 17.1501, 35.4998 16.7109, 35.2305 16.1815, 35.0888 15.6055, 35.0753 14.9835, 35.0619 14.9185, 35.0551 14.8467, 35.0551 14.7676, 35.0551 14.2119, 35.1293 13.6426, 35.2778 13.0599, 35.4195 12.5238, 35.6519 12.0073, 35.9752 11.5098, 36.2991 11.013, 36.7101 10.5676, 37.2081 10.1744, 37.6731 9.79536, 38.1822 9.4997, 38.7349 9.28685, 39.2876 9.07461, 39.8335 8.96788, 40.3721 8.96727, 40.7027 8.96788, 41.0131 9.02554, 41.3026 9.13963, 41.5921 9.25434, 41.8314 9.40953, 42.0203 9.60582, 42.2092 9.80211, 42.3405 10.0377, 42.4141 10.3118, 42.4411 10.437, 42.4546 10.5707, 42.4546 10.7142, 42.4546 10.8719, 42.4343 11.0387, 42.3939 11.2148, 42.2663 11.7521, 42.0019 12.1692, 41.6007 12.4667, 41.1996 12.7648, 40.7395 12.982, 40.2206 13.1194, 39.7016 13.2568, 39.1526 13.339, 38.573 13.3648, 37.9939 13.3911, 37.475 13.404, 37.0162 13.4034, 36.8751 13.9144, 36.7769 14.4278, 36.7229 14.9443, 36.696 15.1215, 36.6825 15.2915, 36.6825 15.4546, 36.6825 15.7822, 36.7229 16.0932, 36.8039 16.387, 36.9051 16.7477, 37.0652 17.0439, 37.2842 17.2758, 37.5032 17.5083, 37.7878 17.6242, 38.1381 17.6236, 38.8527 17.6242, 39.5501 17.4414, 40.231 17.0746, 40.9119 16.7084, 41.4774 16.2109, 41.9289 15.5822, 41.9829 15.4914, 42.0608 15.4356, 42.1614 15.4154 L 42.2123 15.4154 C 42.2933 15.416, 42.3577 15.4387, 42.4043 15.4841 L 42.5558 15.6509 Z M 41.4339 11.1755 C 41.4744 11.0191, 41.4946 10.8786, 41.4946 10.7535, 41.4946 10.4922, 41.4173 10.2634, 41.2621 10.0665, 41.0327 9.77267, 40.696 9.62545, 40.2512 9.62484, 39.9077 9.62545, 39.5624 9.71255, 39.2152 9.88553, 38.868 10.0591, 38.5601 10.2959, 38.2902 10.5965, 37.9872 10.9179, 37.7492 11.2731, 37.5774 11.6619, 37.4057 12.0515, 37.2689 12.4195, 37.1677 12.7655, 37.6056 12.7661, 38.0724 12.7464, 38.5681 12.7072, 39.0637 12.6679, 39.5066 12.5931, 39.8973 12.4815, 40.2887 12.3704, 40.6187 12.2085, 40.888 11.9956, 41.1579 11.7834, 41.3394 11.5098, 41.4339 11.1755 Z" stroke="none" fill="#000000" />
			<polyline points="-5.628 6.4722 0 -6.4722" fill="none" stroke="#000000" stroke-width="0.80400002" stroke-linecap="round" stroke-linejoin="round" transform="matrix(-4.37114e-008 -1 1 -4.37114e-008 55.4919 12.008)" />
			<polyline points="0 -6.4722 5.628 6.4722" fill="none" stroke="#000000" stroke-width="0.80400002" stroke-linecap="round" stroke-linejoin="round" transform="matrix(-4.37114e-008 -1 1 -4.37114e-008 55.4919 12.008)" />
			<ellipse cx="-5.6279997229576111" cy="6.4721999764442444" rx="0.40200001001358032" ry="0.40200001001358032" stroke="none" fill="#000000" transform="matrix(-4.37114e-008 -1 1 -4.37114e-008 55.4919 12.008)" />
			<ellipse cx="-0" cy="-6.4721998572349548" rx="0.40200001001358032" ry="0.40200001001358032" stroke="none" fill="#000000" transform="matrix(-4.37114e-008 -1 1 -4.37114e-008 55.4919 12.008)" />
			<ellipse cx="5.6279998421669006" cy="6.4721999764442444" rx="0.40200001001358032" ry="0.40200001001358032" stroke="none" fill="#000000" transform="matrix(-4.37114e-008 -1 1 -4.37114e-008 55.4919 12.008)" />
			<path d="M 76.5097 17.9646 L 68.4461 17.9646, 68.4461 17.4356 C 68.4461 17.3977, 68.4659 17.34, 68.5056 17.2624 L 71.7451 13.7422 C 72.128 13.3196, 72.5157 12.8868, 72.9089 12.4443, 73.302 12.0019, 73.6543 11.5499, 73.9645 11.0882, 74.2747 10.6265, 74.5223 10.1504, 74.7075 9.65988, 74.8926 9.16936, 74.9846 8.65479, 74.9846 8.11557, 74.9846 7.66111, 74.9251 7.23611, 74.8061 6.84176, 74.687 6.44742, 74.5157 6.10116, 74.2909 5.803, 74.0667 5.50484, 73.7859 5.26438, 73.4493 5.08164, 73.1127 4.89889, 72.7225 4.80752, 72.2801 4.80692, 71.6201 4.80752, 71.037 5.00469, 70.5314 5.39904, 70.0264 5.79338, 69.691 6.228, 69.5257 6.7017, 69.4932 6.71492, 69.5461 6.72154, 69.6844 6.72093 L 69.8527 6.72093 C 70.0511 6.76662, 70.2224 6.83575, 70.3679 6.92833, 70.5134 7.0215, 70.6354 7.14954, 70.7346 7.31305, 70.8338 7.47656, 70.8831 7.67373, 70.8831 7.90397, 70.8831 8.2893, 70.758 8.58445, 70.5068 8.78944, 70.2555 8.99503, 69.9747 9.09722, 69.6646 9.09662, 69.3676 9.09722, 69.0899 8.99503, 68.8326 8.78944, 68.5753 8.58445, 68.4461 8.2893, 68.4461 7.90397, 68.4461 7.36595, 68.5519 6.85619, 68.7635 6.37528, 68.9751 5.89437, 69.2618 5.47779, 69.6249 5.12492, 69.988 4.77266, 70.4172 4.49373, 70.9125 4.28814, 71.4079 4.08315, 71.9333 3.98036, 72.4881 3.97976, 73.1752 3.98036, 73.8046 4.08135, 74.3757 4.28333, 74.9467 4.48531, 75.4337 4.77566, 75.8364 5.15378, 76.2392 5.53249, 76.5548 5.97012, 76.7826 6.46665, 77.0104 6.96379, 77.124 7.51323, 77.124 8.11557, 77.124 8.78283, 76.9726 9.39719, 76.6684 9.95805, 76.3648 10.5195, 75.9885 11.0341, 75.5395 11.5018, 75.0904 11.97, 74.6131 12.4107, 74.1076 12.8243, 73.6026 13.2378, 73.1451 13.64, 72.7358 14.0307 L 70.4569 16.1756, 73.4391 16.1756 C 73.8551 16.1762, 74.2434 16.1732, 74.6029 16.1666, 74.963 16.1606, 75.2683 16.1473, 75.5196 16.1281, 75.7709 16.1089, 75.8995 16.0962, 75.9055 16.089, 75.9585 16.0445, 76.0083 15.955, 76.0546 15.8203, 76.1009 15.6857, 76.1436 15.527, 76.1833 15.3442, 76.2229 15.1615, 76.2626 14.9757, 76.3023 14.7864, 76.342 14.5976, 76.378 14.3902, 76.4111 14.1654 L 77.1439 14.1654 Z" stroke="none" fill="#000000" />
			<path d="M 87.9595 11.2703 C 87.9595 12.1943, 87.8951 13.1128, 87.7665 14.0265, 87.6379 14.9403, 87.3193 15.7981, 86.8107 16.5988, 86.4476 17.1831, 85.9619 17.6315, 85.3547 17.9453, 84.7476 18.2597, 84.0869 18.4166, 83.3734 18.4166, 82.6869 18.4166, 82.0383 18.2597, 81.4275 17.9453, 80.8168 17.6315, 80.3293 17.1831, 79.9662 16.5988, 79.4582 15.7981, 79.1396 14.9403, 79.011 14.0265, 78.8823 13.1128, 78.8174 12.1943, 78.8174 11.2703, 78.8174 10.335, 78.8823 9.40019, 79.011 8.46723, 79.1396 7.53427, 79.4582 6.66082, 79.9662 5.84568, 80.3293 5.25657, 80.815 4.7979, 81.4221 4.47089, 82.0299 4.14387, 82.6803 3.98036, 83.3734 3.97976, 84.0803 3.98036, 84.7386 4.14387, 85.3493 4.47089, 85.9601 4.7979, 86.4476 5.25657, 86.8107 5.84568, 87.3193 6.66082, 87.6379 7.53427, 87.7665 8.46723, 87.8951 9.40019, 87.9595 10.335, 87.9595 11.2703 Z M 85.998 10.9337 C 85.998 10.5303, 85.9949 10.1041, 85.9883 9.65508, 85.9823 9.20663, 85.9655 8.7672, 85.939 8.33739, 85.9126 7.90818, 85.8651 7.50241, 85.7954 7.12069, 85.7262 6.73957, 85.6421 6.41375, 85.5429 6.14384, 85.3445 5.70862, 85.0542 5.35095, 84.6712 5.07202, 84.2883 4.79309, 83.8555 4.65363, 83.3734 4.65303, 82.9045 4.65363, 82.4807 4.7949, 82.1008 5.07683, 81.7215 5.35936, 81.4323 5.71463, 81.234 6.14384, 81.1354 6.41375, 81.0512 6.73957, 80.9815 7.12069, 80.9124 7.50241, 80.8643 7.90818, 80.8378 8.33739, 80.8114 8.7672, 80.7951 9.20663, 80.7885 9.65508, 80.7819 10.1041, 80.7783 10.5303, 80.7783 10.9337, 80.7783 11.3833, 80.7819 11.8564, 80.7885 12.353, 80.7951 12.8501, 80.8114 13.331, 80.8378 13.7957, 80.8643 14.261, 80.9124 14.7016, 80.9815 15.1182, 81.0512 15.5354, 81.1354 15.8846, 81.234 16.166, 81.4191 16.6349, 81.7052 17.0196, 82.0912 17.3208, 82.4771 17.6225, 82.9045 17.7728, 83.3734 17.7722, 83.8621 17.7728, 84.2998 17.6225, 84.6857 17.3208, 85.0722 17.0196, 85.3577 16.6349, 85.5429 16.166, 85.6421 15.8846, 85.7262 15.5354, 85.7954 15.1182, 85.8651 14.7016, 85.9126 14.261, 85.939 13.7957, 85.9655 13.331, 85.9823 12.8501, 85.9883 12.353, 85.9949 11.8564, 85.998 11.3833, 85.998 10.9337 Z" stroke="none" fill="#000000" />
			<path d="M 96.6738 14.5405 L 96.6738 16.493 C 96.6738 16.609, 96.6954 16.7166, 96.7387 16.8158, 96.782 16.9156, 96.8529 16.9811, 96.9515 17.0124, 97.1036 17.0833, 97.3513 17.1224, 97.6945 17.1284, 98.0378 17.135, 98.384 17.138, 98.7339 17.1374 L 98.7339 17.9646 C 97.724 17.9261, 96.7339 17.9069, 95.7625 17.9069, 94.8055 17.9069, 93.7986 17.9261, 92.7418 17.9646 L 92.7418 17.1374 C 93.1049 17.138, 93.4553 17.135, 93.7919 17.1284, 94.1286 17.1224, 94.3799 17.0833, 94.5446 17.0124, 94.6438 16.9811, 94.7165 16.9156, 94.7628 16.8158, 94.8091 16.7166, 94.8319 16.609, 94.8319 16.493 L 94.8319 14.5405, 89.1861 14.5405, 89.1861 13.7614, 95.8021 3.92205 C 95.8887 3.80723, 95.9975 3.74952, 96.1292 3.74892 L 96.3474 3.74892 C 96.565 3.74952, 96.6738 3.85833, 96.6738 4.07594 L 96.6738 13.6941, 98.8036 13.6941, 98.8036 14.5405 Z M 94.9305 6.45163 L 90.0577 13.6941, 94.9305 13.6941 Z" stroke="none" fill="#000000" />
			<path d="M 109.684 4.95119 C 109.684 4.99027, 109.668 5.04497, 109.635 5.1147 L 106.663 9.18318 C 106.28 9.71579, 105.981 10.3043, 105.767 10.9487, 105.552 11.5931, 105.399 12.27, 105.306 12.9782, 105.214 13.6869, 105.156 14.4101, 105.133 15.147, 105.11 15.8846, 105.098 16.6282, 105.098 17.3779, 105.098 17.7247, 104.984 17.9874, 104.756 18.1665, 104.529 18.3463, 104.28 18.4359, 104.009 18.4359, 103.738 18.4359, 103.492 18.3463, 103.271 18.1665, 103.05 17.9874, 102.939 17.7247, 102.939 17.3779, 102.939 15.8137, 103.211 14.3091, 103.756 12.8627, 104.301 11.417, 105.035 10.059, 105.96 8.78884 L 107.841 6.24003, 104.276 6.24003 C 103.828 6.24063, 103.41 6.24423, 103.023 6.25025, 102.637 6.25686, 102.309 6.26828, 102.038 6.28391, 101.768 6.30014, 101.629 6.31096, 101.621 6.31697, 101.555 6.37528, 101.498 6.47146, 101.448 6.60612, 101.399 6.74077, 101.353 6.89827, 101.309 7.07741, 101.267 7.25715, 101.229 7.4429, 101.196 7.63526, 101.163 7.82762, 101.13 8.03261, 101.097 8.25022 L 100.364 8.25022, 101.077 3.76816, 101.8 3.76816, 101.8 3.96052 C 101.8 4.03146, 101.84 4.09878, 101.918 4.1625, 102.057 4.25267, 102.203 4.31038, 102.354 4.33563, 102.533 4.36208, 102.751 4.38613, 103.008 4.40837, 103.266 4.43121, 103.541 4.44564, 103.835 4.45165, 104.129 4.45826, 104.425 4.46127, 104.721 4.46067 L 109.684 4.46067, 109.684 4.95119 Z" stroke="none" fill="#000000" />
			<rect />
		</svg>
	</g>
	<path d="M 0 64.3303 L 0 -64.3314" fill="none" stroke="#000000" stroke-width="3.4666667" stroke-linecap="round" stroke-linejoin="round" transform="matrix(0.384615 0 0 0.384615 35.9841 33.2428)" />
	<path d="M 0 64.3303 L 0 -64.3314" fill="none" stroke="#000000" stroke-width="3.4666667" stroke-linecap="round" stroke-linejoin="round" transform="matrix(0.384615 0 0 0.384615 219.578 33.2428)" />
	<g transform="matrix(1 0 -0 1 387.155 22.0354)">
		<svg width="33.1395264" height="56.9999886">
			<defs />
			<path d="M 9.35195 5.05347 C 9.28268 5.32255, 9.14127 5.52923, 8.92715 5.67236, 8.7136 5.81606, 8.50292 5.88762, 8.2951 5.88705, 8.06896 5.88762, 7.88633 5.80804, 7.74778 5.64888, 7.64129 5.54583, 7.58461 5.41416, 7.57774 5.255, 7.57774 5.18859, 7.59034 5.10271, 7.61553 4.99851, 7.68537 4.76722, 7.80331 4.58402, 7.96991 4.44948, 8.13651 4.31551, 8.26075 4.24165, 8.34204 4.22906, 8.22296 4.09509, 7.98709 4.02811, 7.63442 4.02754, 7.42717 4.02811, 7.22908 4.20845, 7.04016 4.56799, 7.00237 4.62352, 6.96 4.74718, 6.91306 4.93954, 6.86611 5.13191, 6.8123 5.36721, 6.75276 5.64488, 6.69321 5.92312, 6.63138 6.21739, 6.56841 6.52883, 6.50543 6.84028, 6.44875 7.1397, 6.39837 7.42595 L 6.1625 8.58929, 7.88919 8.58929 C 8.05293 8.58987, 8.13479 8.67231, 8.13479 8.83662 L 8.13479 8.90074, 8.09701 9.06562 C 8.02773 9.2494, 7.90522 9.341, 7.72889 9.34043 L 6.01193 9.34043, 5.10622 13.9022 C 5.01805 14.3304, 4.92416 14.7867, 4.8234 15.2722, 4.72264 15.7577, 4.61271 16.2403, 4.49306 16.7195, 4.37341 17.1987, 4.23658 17.6521, 4.08257 18.0792, 3.92857 18.5069, 3.76311 18.8796, 3.58678 19.1968, 3.48029 19.3742, 3.35892 19.5529, 3.22381 19.7326, 3.08869 19.913, 2.93984 20.0733, 2.7761 20.2135, 2.61237 20.3544, 2.43489 20.4717, 2.24252 20.5662, 2.05073 20.6612, 1.84463 20.7082, 1.62479 20.7082, 1.37975 20.7082, 1.15018 20.6687, 0.936057 20.5891, 0.722511 20.5101, 0.538735 20.4002, 0.384158 20.2593, 0.230725 20.1191, 0.115651 19.9479, 0.0395067 19.7464, 0.0148888 19.6364, 0.00229359 19.5265, 0.00172102 19.4166, 0.00229359 19.313, 0.0148888 19.2002, 0.0395067 19.0777, 0.109353 18.8029, 0.254198 18.5968, 0.474042 18.4594, 0.694458 18.322, 0.911439 18.2533, 1.12441 18.2533, 1.3454 18.2533, 1.52746 18.3265, 1.67173 18.4731, 1.77879 18.5773, 1.83203 18.7084, 1.83203 18.867, 1.83203 18.9345, 1.81944 19.0198, 1.79425 19.1235, 1.72555 19.3559, 1.60589 19.542, 1.43643 19.6822, 1.26697 19.8231, 1.14102 19.8992, 1.05857 19.9112, 1.16621 20.0338, 1.38605 20.0944, 1.71868 20.0944, 1.88242 20.0944, 2.03528 20.0028, 2.17669 19.8196, 2.3181 19.6364, 2.4326 19.3863, 2.52076 19.0685, 2.74118 18.3237, 2.94099 17.4981, 3.12018 16.5913, 3.29938 15.6844, 3.47686 14.8005, 3.65319 13.9388 L 4.58695 9.34043, 3.17171 9.34043 C 3.07782 9.341, 3.00854 9.31066, 2.96446 9.24883, 2.92667 9.21276, 2.90778 9.16696, 2.90778 9.11142, 2.90778 9.07535, 2.91751 9.04158, 2.93583 9.01066 L 2.96446 8.87326 C 2.98335 8.79425, 3.02572 8.72727, 3.09156 8.67231, 3.15797 8.61735, 3.22839 8.58987, 3.30396 8.58929 L 4.73809 8.58929, 4.95508 7.44427 C 4.99286 7.20668, 5.04324 6.94447, 5.10622 6.65707, 5.16919 6.37025, 5.24419 6.08456, 5.33236 5.8006, 5.42053 5.51663, 5.52014 5.24355, 5.63006 4.98076, 5.73999 4.71856, 5.87395 4.49528, 6.03082 4.3115, 6.25753 4.04929, 6.5186 3.8346, 6.81401 3.66628, 7.10943 3.49854, 7.42087 3.41438, 7.74778 3.41381, 7.99338 3.41438, 8.22754 3.45102, 8.45082 3.5243, 8.6741 3.59758, 8.86303 3.70464, 9.01703 3.84491, 9.17104 3.98574, 9.27924 4.15349, 9.34222 4.34814, 9.3863 4.44661, 9.40806 4.5594, 9.40806 4.68707, 9.40806 4.79126, 9.38974 4.91378, 9.35195 5.05347 Z" stroke="none" fill="#000000" />
			<rect />
		</svg>
	</g>
	<path d="M -719.298 -49.4103 L 719.298 -49.4103, 719.298 49.4103, -719.298 49.4103 Z" fill="none" stroke="#000000" stroke-width="6.9333334" stroke-linecap="round" stroke-linejoin="round" transform="matrix(0.384615 0 -0 0.384615 287.487 33.2427)" />
	<g transform="matrix(1 0 -0 1 20.9049 22.0354)">
		<svg width="23.9541492" height="32.8723297">
			<defs />
			<path d="M 6.74646 10.4671 C 6.69035 10.7059, 6.56783 10.8879, 6.37891 11.0127, 6.18998 11.1381, 6.00448 11.2005, 5.82185 11.1999, 5.6335 11.2005, 5.48235 11.1335, 5.369 10.9984, 5.27511 10.9074, 5.22473 10.7854, 5.21843 10.632, 5.21843 10.5656, 5.22473 10.498, 5.23675 10.4305, 5.294 10.2175, 5.4022 10.0526, 5.56251 9.93641, 5.72281 9.82076, 5.85334 9.75321, 5.9541 9.73431, 5.91059 9.54539, 5.76288 9.37306, 5.51098 9.21734, 5.25908 9.06161, 4.95736 8.98375, 4.6047 8.98318, 4.39115 8.98375, 4.18677 9.00665, 3.99154 9.05245, 3.79689 9.09826, 3.61426 9.18814, 3.44422 9.32211, 3.28735 9.4389, 3.15854 9.58088, 3.05778 9.74863, 2.95701 9.91694, 2.88488 10.095, 2.84079 10.2839, 2.80301 10.3881, 2.78412 10.4923, 2.78412 10.5954, 2.78412 10.7671, 2.8345 10.9286, 2.93469 11.0809, 3.07953 11.3076, 3.29995 11.4478, 3.59536 11.5022 L 4.53886 11.7037 C 4.84687 11.7713, 5.12511 11.8875, 5.37358 12.0524, 5.62205 12.2173, 5.82357 12.4159, 5.97758 12.6478, 6.13215 12.8803, 6.24036 13.1425, 6.30333 13.435, 6.31593 13.5518, 6.32223 13.6617, 6.32223 13.7648, 6.32223 13.9606, 6.29417 14.1655, 6.23692 14.3785, 6.13044 14.7335, 5.973 15.0879, 5.76575 15.4417, 5.5585 15.796, 5.27854 16.1012, 4.92588 16.3571, 4.54229 16.6262, 4.14268 16.8094, 3.72761 16.9067, 3.31254 17.0046, 2.91293 17.0533, 2.52935 17.0533, 2.14577 17.0533, 1.78852 17.0018, 1.45818 16.8976, 1.12842 16.7939, 0.840446 16.6405, 0.595412 16.4355, 0.350378 16.2312, 0.183205 15.9821, 0.0950381 15.6884, 0.0389322 15.5424, 0.00744417 15.3838, 0.000574052 15.2121, 0.000574052 15.0541, 0.0229019 14.8858, 0.0664127 14.7083, 0.136259 14.434, 0.275951 14.2279, 0.486635 14.0905, 0.697318 13.9531, 0.909719 13.8844, 1.12327 13.8839, 1.34368 13.8844, 1.53261 13.9549, 1.68948 14.0945, 1.79654 14.1987, 1.85322 14.3333, 1.85951 14.4976, 1.85951 14.5835, 1.84406 14.6693, 1.81199 14.7541, 1.74329 15.0232, 1.60303 15.2264, 1.39235 15.3638, 1.18166 15.5012, 1.01048 15.5728, 0.878232 15.5785, 0.947505 15.8052, 1.14559 16.0067, 1.4725 16.1836, 1.79997 16.3611, 2.18642 16.4493, 2.63297 16.4487, 2.91007 16.4493, 3.18201 16.4207, 3.44937 16.3623, 3.71673 16.3044, 3.96062 16.1899, 4.18047 16.0182, 4.39459 15.8722, 4.5692 15.6953, 4.70431 15.4875, 4.83943 15.2802, 4.93561 15.0541, 4.99171 14.809, 5.0295 14.6997, 5.04839 14.5835, 5.04839 14.461, 5.04839 14.2297, 4.97626 14.0218, 4.83141 13.8381, 4.62416 13.5701, 4.32818 13.3898, 3.94459 13.2976 L 3.0011 13.0869 C 2.44748 12.9713, 2.03871 12.6936, 1.77421 12.2534, 1.59845 11.9791, 1.51028 11.6705, 1.51028 11.3282, 1.51028 11.1335, 1.53547 10.9349, 1.58585 10.7328, 1.66772 10.4219, 1.79825 10.1105, 1.97745 9.79901, 2.15665 9.48756, 2.39882 9.21619, 2.70396 8.98375, 3.00911 8.75189, 3.33945 8.59158, 3.69441 8.50284, 4.04994 8.41468, 4.39115 8.37002, 4.71805 8.36945, 5.03923 8.37002, 5.3398 8.41926, 5.61918 8.51659, 5.89914 8.61448, 6.13845 8.75647, 6.33654 8.94253, 6.53463 9.12917, 6.67776 9.3473, 6.76535 9.59691, 6.79054 9.73202, 6.80313 9.86599, 6.80313 9.99996, 6.80313 10.1471, 6.78424 10.3028, 6.74646 10.4671 Z" stroke="none" fill="#000000" />
			<rect />
		</svg>
	</g>
</svg>
