<?xml version="1.0"?>
<svg xmlns="http://www.w3.org/2000/svg" xmlns:xlink="http://www.w3.org/1999/xlink" width="595.689209" height="110.551529">
	<defs>
		<marker id="CustomMarker-01" markerUnits="strokeWidth" markerWidth="9" markerHeight="6" viewBox="-9 -3 9 6" orient="auto-start-reverse">
			<path d="M 0 -0 L -6 -2, -4.8 -0.5, -4.8 0.5, -6 2 Z" fill="#000000" stroke="#000000" stroke-linejoin="round" />
		</marker>
		<marker id="CustomMarker-02" markerUnits="strokeWidth" markerWidth="9" markerHeight="6" viewBox="-9 -3 9 6" orient="auto-start-reverse">
			<path d="M 0 -0 L -6 -2, -4.8 -0.5, -4.8 0.5, -6 2 Z" fill="#000000" stroke="#000000" stroke-linejoin="round" />
		</marker>
	</defs>
	<path d="M 0 -22.7314 L 0 22.7314" fill="none" stroke="#000000" stroke-width="3.20000029" stroke-linecap="round" stroke-linejoin="round" transform="matrix(0.416667 0 0 0.416667 304.66 50.1305)" />
	<rect x="-186.071777" y="-22.7314453" width="372.143555" height="45.4628906" stroke="none" fill="#A0E281" fill-opacity="0.392156839" transform="matrix(0.416667 0 -0 0.416667 457.719 50.1305)" />
	<rect x="-186.073273" y="-22.7314453" width="372.146545" height="45.4628906" stroke="none" fill="#A0E281" fill-opacity="0.392156839" transform="matrix(0.416667 0 -0 0.416667 151.602 50.1305)" />
	<rect x="-54.8874512" y="-22.7314453" width="109.774902" height="45.4628906" stroke="none" fill="#E36856" fill-opacity="0.392156839" transform="matrix(0.416667 0 -0 0.416667 252.002 50.1305)" />
	<rect x="-54.887207" y="-22.7314453" width="109.774414" height="45.4628906" stroke="none" fill="#E36856" fill-opacity="0.392156839" transform="matrix(0.416667 0 -0 0.416667 357.319 50.1305)" />
	<path d="M -632.646 0 L 632.645 0" fill="none" stroke="#000000" stroke-width="4.80000019" stroke-linecap="round" stroke-linejoin="round" marker-start="url(#CustomMarker-01)" marker-end="url(#CustomMarker-02)" transform="matrix(0.416667 0 0 0.416667 304.66 50.1305)" />
	<g transform="matrix(1 0 -0 1 328.748 77.1614)">
		<svg width="141.067749" height="77.968071">
			<defs />
			<path d="M 8.15094 18.0887 L 0.0873122 18.0887, 0.0873122 17.5597 C 0.0873122 17.5219, 0.10715 17.4641, 0.146825 17.3866 L 3.38634 13.8664 C 3.76927 13.4438, 4.157 13.0109, 4.55014 12.5685, 4.94328 12.1261, 5.29555 11.674, 5.60573 11.2123, 5.91592 10.7507, 6.16359 10.2746, 6.34874 9.78404, 6.53389 9.29352, 6.62586 8.77894, 6.62586 8.23973, 6.62586 7.78527, 6.56635 7.36026, 6.44732 6.96592, 6.3283 6.57158, 6.15697 6.22532, 5.93215 5.92716, 5.70793 5.62899, 5.4272 5.38854, 5.09056 5.2058, 4.75392 5.02305, 4.36379 4.93168, 3.92135 4.93108, 3.26131 4.93168, 2.67821 5.12885, 2.17265 5.5232, 1.6677 5.91754, 1.33226 6.35216, 1.16695 6.82586, 1.13449 6.83908, 1.18739 6.84569, 1.32565 6.84509 L 1.49397 6.84509 C 1.69234 6.89078, 1.86367 6.95991, 2.00914 7.05248, 2.15462 7.14566, 2.27665 7.2737, 2.37583 7.43721, 2.47502 7.60072, 2.52431 7.79789, 2.52431 8.02813, 2.52431 8.41345, 2.39928 8.70861, 2.148 8.9136, 1.89673 9.11919, 1.616 9.22138, 1.30581 9.22078, 1.00885 9.22138, 0.731128 9.11919, 0.473842 8.9136, 0.216556 8.70861, 0.0873122 8.41345, 0.0873122 8.02813, 0.0873122 7.49011, 0.193112 6.98035, 0.404712 6.49944, 0.616311 6.01853, 0.903053 5.60194, 1.26614 5.24908, 1.62922 4.89681, 2.05843 4.61789, 2.55377 4.4123, 3.04911 4.20731, 3.5745 4.10452, 4.12935 4.10392, 4.81644 4.10452, 5.44583 4.20551, 6.01691 4.40749, 6.58799 4.60947, 7.07491 4.89982, 7.47767 5.27793, 7.88043 5.65665, 8.19602 6.09427, 8.42386 6.59081, 8.65169 7.08795, 8.7653 7.63739, 8.7653 8.23973, 8.7653 8.90699, 8.61381 9.52135, 8.30964 10.0822, 8.00607 10.6437, 7.62976 11.1582, 7.18071 11.6259, 6.73166 12.0942, 6.25436 12.5348, 5.7488 12.9484, 5.24385 13.362, 4.78639 13.7642, 4.37701 14.1549 L 2.09811 16.2997, 5.08034 16.2997 C 5.49633 16.3003, 5.88466 16.2973, 6.24414 16.2907, 6.60422 16.2847, 6.9096 16.2715, 7.16087 16.2523, 7.41214 16.233, 7.54079 16.2204, 7.5468 16.2132, 7.5997 16.1687, 7.64959 16.0791, 7.69588 15.9445, 7.74217 15.8098, 7.78485 15.6511, 7.82452 15.4684, 7.8642 15.2856, 7.90387 15.0999, 7.94355 14.9105, 7.98322 14.7218, 8.01929 14.5144, 8.05235 14.2896 L 8.78514 14.2896 Z" stroke="none" fill="#000000" />
			<polyline points="-2.44255 0 2.44255 0" fill="none" stroke="#000000" stroke-width="0.450240016" stroke-linecap="round" stroke-linejoin="round" transform="matrix(1 0 0 1 12.9259 6.66907)" />
			<path d="M 2.54664 3.4255 C 1.85241 3.40351, 1.17674 3.39252, 0.519953 3.39252, -0.136487 3.39252, -0.812163 3.40351, -1.50673 3.4255 L -1.50673 2.95283, -1.11582 2.95283 C -0.991473 2.95318, -0.874338 2.95146, -0.765103 2.94768, -0.655525 2.94424, -0.551786 2.93497, -0.453543 2.9202, -0.355301 2.90577, -0.270455 2.891, -0.199005 2.87589, -0.138548 2.86524, -0.0883965 2.83157, -0.0488932 2.77455, -0.00904655 2.71787, 0.0105331 2.65467, 0.0105331 2.58459 L 0.0105331 -3.6095 C -0.178051 -3.51744, -0.410261 -3.44771, -0.685753 -3.40031, -0.961245 -3.35256, -1.26319 -3.32886, -1.59158 -3.3292 L -1.59158 -3.79637 C -1.13849 -3.79603, -0.720447 -3.84996, -0.337438 -3.95816, 0.0455709 -4.06602, 0.37671 -4.26869, 0.655981 -4.56582 L 0.831512 -4.56582 C 0.955861 -4.56548, 1.01804 -4.50502, 1.01804 -4.38445 L 1.01804 2.58459 C 1.01804 2.6581, 1.03693 2.72234, 1.07471 2.7773, 1.1125 2.83226, 1.16746 2.86524, 1.23891 2.87589, 1.29937 2.891, 1.377 2.90577, 1.47112 2.9202, 1.56558 2.93497, 1.67207 2.94424, 1.79092 2.94768, 1.90978 2.95146, 2.02588 2.95318, 2.1389 2.95283 L 2.54664 2.95283, 2.54664 3.4255 Z" stroke="none" fill="#000000" transform="matrix(1.12 0 0 1 20.6686 6.66907)" />
			<path d="M 3.05573 -0.399786 C 3.05573 0.128183, 3.01897 0.65306, 2.94546 1.17519, 2.87195 1.69732, 2.6899 2.1875, 2.39929 2.64505, 2.19181 2.97894, 1.91426 3.23519, 1.56732 3.4145, 1.22038 3.59416, 0.842864 3.68381, 0.435123 3.68381, 0.0428391 3.68381, -0.327804 3.59416, -0.676806 3.4145, -1.02581 3.23519, -1.30439 2.97894, -1.51187 2.64505, -1.80213 2.1875, -1.98419 1.69732, -2.0577 1.17519, -2.13121 0.65306, -2.16831 0.128183, -2.16831 -0.399786, -2.16831 -0.934281, -2.13121 -1.46843, -2.0577 -2.00155, -1.98419 -2.53467, -1.80213 -3.03379, -1.51187 -3.49958, -1.30439 -3.83622, -1.02684 -4.09831, -0.679897 -4.28518, -0.332613 -4.47205, 0.0390606 -4.56548, 0.435123 -4.56582, 0.839086 -4.56548, 1.21522 -4.47205, 1.56423 -4.28518, 1.91323 -4.09831, 2.19181 -3.83622, 2.39929 -3.49958, 2.6899 -3.03379, 2.87195 -2.53467, 2.94546 -2.00155, 3.01897 -1.46843, 3.05573 -0.934281, 3.05573 -0.399786 Z M 1.93487 -0.592149 C 1.93487 -0.822641, 1.93315 -1.06619, 1.92937 -1.32279, 1.92594 -1.57904, 1.91632 -1.83014, 1.90121 -2.07575, 1.88609 -2.32101, 1.85895 -2.55288, 1.81911 -2.77101, 1.7796 -2.98879, 1.73151 -3.17497, 1.67484 -3.3292, 1.56148 -3.5779, 1.39557 -3.78229, 1.17675 -3.94167, 0.957939 -4.10106, 0.710614 -4.18076, 0.435123 -4.1811, 0.167188 -4.18076, -0.0749834 -4.10003, -0.292079 -3.93893, -0.508831 -3.77748, -0.674058 -3.57447, -0.787415 -3.3292, -0.84375 -3.17497, -0.89184 -2.98879, -0.931687 -2.77101, -0.97119 -2.55288, -0.998671 -2.32101, -1.01378 -2.07575, -1.0289 -1.83014, -1.03817 -1.57904, -1.04195 -1.32279, -1.04573 -1.06619, -1.04779 -0.822641, -1.04779 -0.592149, -1.04779 -0.335206, -1.04573 -0.0648673, -1.04195 0.218868, -1.03817 0.502948, -1.0289 0.777753, -1.01378 1.04328, -0.998671 1.30916, -0.97119 1.56095, -0.931687 1.799, -0.89184 2.03739, -0.84375 2.23697, -0.787415 2.39773, -0.681615 2.66566, -0.518106 2.8855, -0.297575 3.0576, -0.0770445 3.23004, 0.167188 3.31592, 0.435123 3.31557, 0.714393 3.31592, 0.964465 3.23004, 1.185 3.0576, 1.40587 2.8855, 1.56904 2.66566, 1.67484 2.39773, 1.73151 2.23697, 1.7796 2.03739, 1.81911 1.799, 1.85895 1.56095, 1.88609 1.30916, 1.90121 1.04328, 1.91632 0.777753, 1.92594 0.502948, 1.92937 0.218868, 1.93315 -0.0648673, 1.93487 -0.335206, 1.93487 -0.592149 Z" stroke="none" fill="#000000" transform="matrix(1.12 0 0 1 27.3147 6.66907)" />
			<path d="M 3.35561 -4.01072 C 3.35561 -3.98839, 3.34634 -3.95713, 3.32744 -3.91729 L 1.62949 -1.59244 C 1.41068 -1.28809, 1.23996 -0.9518, 1.11733 -0.583561, 0.994694 -0.215323, 0.9071 0.171465, 0.8542 0.576115, 0.8013 0.981108, 0.768323 1.39435, 0.754927 1.81548, 0.741874 2.23697, 0.735003 2.66188, 0.735003 3.09023, 0.735003 3.28844, 0.670081 3.43855, 0.539892 3.54091, 0.410047 3.64362, 0.267492 3.6948, 0.112571 3.6948, -0.042007 3.6948, -0.182501 3.64362, -0.308911 3.54091, -0.435321 3.43855, -0.498526 3.28844, -0.498526 3.09023, -0.498526 2.19643, -0.342918 1.33664, -0.0317018 0.510162, 0.279515 -0.31597, 0.699279 -1.09195, 1.22759 -1.81778 L 2.30276 -3.27424, 0.265431 -3.27424 C 0.00917554 -3.2739, -0.229561 -3.27184, -0.450435 -3.2684, -0.670966 -3.26462, -0.858864 -3.2581, -1.01344 -3.24917, -1.16802 -3.23989, -1.24737 -3.23371, -1.25149 -3.23027, -1.28928 -3.19695, -1.32225 -3.14199, -1.35042 -3.06505, -1.37859 -2.9881, -1.40504 -2.8981, -1.42977 -2.79574, -1.45416 -2.69303, -1.4758 -2.58689, -1.49469 -2.47697, -1.51359 -2.36704, -1.53248 -2.24991, -1.55137 -2.12556 L -1.97011 -2.12556, -1.56271 -4.68674, -1.14947 -4.68674, -1.14947 -4.57682 C -1.14947 -4.53628, -1.1268 -4.49781, -1.0818 -4.4614, -1.00245 -4.40987, -0.919321 -4.3769, -0.832757 -4.36247, -0.730736 -4.34736, -0.606043 -4.33362, -0.459023 -4.32091, -0.312002 -4.30785, -0.154333 -4.29961, 0.0136411 -4.29617, 0.181615 -4.29239, 0.350277 -4.29068, 0.519969 -4.29102 L 3.35561 -4.29102, 3.35561 -4.01072 Z" stroke="none" fill="#000000" transform="matrix(1.12 0 0 1 33.9608 6.66907)" />
			<path d="M 2.91318 0.996222 C 2.91318 1.35553, 2.8455 1.69835, 2.70948 2.02434, 2.57379 2.35067, 2.37765 2.64368, 2.12071 2.90337, 1.86033 3.15653, 1.56698 3.34992, 1.24065 3.4832, 0.914315 3.61717, 0.568405 3.68381, 0.202227 3.68381, -0.114485 3.68381, -0.4099 3.62439, -0.683331 3.50519, -0.956761 3.38634, -1.19447 3.22351, -1.39645 3.01638, -1.59843 2.80959, -1.75679 2.56948, -1.8722 2.29639, -1.98728 2.02365, -2.04499 1.73304, -2.04499 1.42492, -2.04499 1.21263, -1.97423 1.05256, -1.8327 0.944353, -1.69118 0.836492, -1.54484 0.782218, -1.39404 0.781875, -1.23534 0.782218, -1.08626 0.835462, -0.9468 0.941605, -0.806993 1.04809, -0.737261 1.2092, -0.737261 1.42492, -0.737261 1.55717, -0.766459 1.66812, -0.824855 1.75777, -0.883251 1.84777, -0.955044 1.91716, -1.04023 1.96663, -1.12508 2.01609, -1.22023 2.0446, -1.32603 2.05147 L -1.39404 2.05147, -1.50706 2.05147 C -1.42015 2.3596, -1.21817 2.63646, -0.901457 2.88173, -0.584401 3.12733, -0.216506 3.24996, 0.202227 3.24962, 0.421041 3.24996, 0.634358 3.19329, 0.841835 3.07959, 1.04931 2.96623, 1.219 2.81577, 1.35091 2.62856, 1.50583 2.40528, 1.60511 2.15178, 1.64839 1.8677, 1.69167 1.58396, 1.71331 1.29335, 1.71331 0.996222, 1.71331 0.695998, 1.70404 0.407797, 1.68514 0.130931, 1.66625 -0.145591, 1.58896 -0.406656, 1.45293 -0.652606, 1.35503 -0.831916, 1.22965 -0.980997, 1.07679 -1.10019, 0.923933 -1.21905, 0.753211 -1.27882, 0.564282 -1.27916, 0.206006 -1.27882, -0.105211 -1.20634, -0.369366 -1.06172, -0.633522 -0.916762, -0.84684 -0.708941, -1.00897 -0.438258, -1.04298 -0.37574, -1.0976 -0.344481, -1.17317 -0.344825 L -1.21851 -0.344825 C -1.35042 -0.344481, -1.41672 -0.404938, -1.41672 -0.526196 L -1.41672 -4.38445 C -1.41672 -4.47926, -1.36175 -4.53972, -1.25252 -4.56582, -1.23328 -4.56548, -1.2192 -4.56342, -1.20993 -4.55999, -1.20031 -4.55621, -1.19206 -4.55449, -1.18451 -4.55483, -0.637301 -4.30545, -0.0732644 -4.18076, 0.507604 -4.1811, 1.09637 -4.18076, 1.66075 -4.30545, 2.20006 -4.55483, 2.20761 -4.55449, 2.21517 -4.55621, 2.22273 -4.55999, 2.23029 -4.56342, 2.24162 -4.56548, 2.25674 -4.56582, 2.38109 -4.56548, 2.44154 -4.5088, 2.43776 -4.39545, 2.43776 -4.32915, 2.42643 -4.28518, 2.40376 -4.26354, 2.13582 -3.89668, 1.79541 -3.60985, 1.38217 -3.40306, 0.969276 -3.19592, 0.530619 -3.09253, 0.0661991 -3.09287, -0.318528 -3.09253, -0.650354 -3.1365, -0.929968 -3.22478 L -0.929968 -1.12527 C -0.797718 -1.26405, -0.598485 -1.38771, -0.332611 -1.49591, -0.0667379 -1.60377, 0.232456 -1.65805, 0.564282 -1.65839, 0.888896 -1.65805, 1.19565 -1.58454, 1.48419 -1.4382, 1.77274 -1.29153, 2.02659 -1.10122, 2.2454 -0.866954, 2.47177 -0.602798, 2.63974 -0.310474, 2.74898 0.0100172, 2.85856 0.330852, 2.91318 0.659587, 2.91318 0.996222 Z" stroke="none" fill="#000000" transform="matrix(1.12 0 0 1 40.6069 6.66907)" />
			<rect />
		</svg>
	</g>
	<ellipse cx="1231.3570022583008" cy="607.65137481689453" rx="7.6800003051757812" ry="7.6800003051757812" stroke="none" fill="#CC0000" transform="matrix(0.416667 0 0 0.416667 -208.405 -203.058)" />
	<g transform="matrix(1 0 -0 1 396.748 77.1614)">
		<svg width="141.067749" height="77.968071">
			<defs />
			<path d="M 8.15094 18.0887 L 0.0873122 18.0887, 0.0873122 17.5597 C 0.0873122 17.5219, 0.10715 17.4641, 0.146825 17.3866 L 3.38634 13.8664 C 3.76927 13.4438, 4.157 13.0109, 4.55014 12.5685, 4.94328 12.1261, 5.29555 11.674, 5.60573 11.2123, 5.91592 10.7507, 6.16359 10.2746, 6.34874 9.78404, 6.53389 9.29352, 6.62586 8.77894, 6.62586 8.23973, 6.62586 7.78527, 6.56635 7.36026, 6.44732 6.96592, 6.3283 6.57158, 6.15697 6.22532, 5.93215 5.92716, 5.70793 5.62899, 5.4272 5.38854, 5.09056 5.2058, 4.75392 5.02305, 4.36379 4.93168, 3.92135 4.93108, 3.26131 4.93168, 2.67821 5.12885, 2.17265 5.5232, 1.6677 5.91754, 1.33226 6.35216, 1.16695 6.82586, 1.13449 6.83908, 1.18739 6.84569, 1.32565 6.84509 L 1.49397 6.84509 C 1.69234 6.89078, 1.86367 6.95991, 2.00914 7.05248, 2.15462 7.14566, 2.27665 7.2737, 2.37583 7.43721, 2.47502 7.60072, 2.52431 7.79789, 2.52431 8.02813, 2.52431 8.41345, 2.39928 8.70861, 2.148 8.9136, 1.89673 9.11919, 1.616 9.22138, 1.30581 9.22078, 1.00885 9.22138, 0.731128 9.11919, 0.473842 8.9136, 0.216556 8.70861, 0.0873122 8.41345, 0.0873122 8.02813, 0.0873122 7.49011, 0.193112 6.98035, 0.404712 6.49944, 0.616311 6.01853, 0.903053 5.60194, 1.26614 5.24908, 1.62922 4.89681, 2.05843 4.61789, 2.55377 4.4123, 3.04911 4.20731, 3.5745 4.10452, 4.12935 4.10392, 4.81644 4.10452, 5.44583 4.20551, 6.01691 4.40749, 6.58799 4.60947, 7.07491 4.89982, 7.47767 5.27793, 7.88043 5.65665, 8.19602 6.09427, 8.42386 6.59081, 8.65169 7.08795, 8.7653 7.63739, 8.7653 8.23973, 8.7653 8.90699, 8.61381 9.52135, 8.30964 10.0822, 8.00607 10.6437, 7.62976 11.1582, 7.18071 11.6259, 6.73166 12.0942, 6.25436 12.5348, 5.7488 12.9484, 5.24385 13.362, 4.78639 13.7642, 4.37701 14.1549 L 2.09811 16.2997, 5.08034 16.2997 C 5.49633 16.3003, 5.88466 16.2973, 6.24414 16.2907, 6.60422 16.2847, 6.9096 16.2715, 7.16087 16.2523, 7.41214 16.233, 7.54079 16.2204, 7.5468 16.2132, 7.5997 16.1687, 7.64959 16.0791, 7.69588 15.9445, 7.74217 15.8098, 7.78485 15.6511, 7.82452 15.4684, 7.8642 15.2856, 7.90387 15.0999, 7.94355 14.9105, 7.98322 14.7218, 8.01929 14.5144, 8.05235 14.2896 L 8.78514 14.2896 Z" stroke="none" fill="#000000" />
			<polyline points="-2.44255 0 2.44255 0" fill="none" stroke="#000000" stroke-width="0.450240016" stroke-linecap="round" stroke-linejoin="round" transform="matrix(1 0 0 1 12.9259 6.66907)" />
			<path d="M 2.54664 3.4255 C 1.85241 3.40351, 1.17674 3.39252, 0.519953 3.39252, -0.136487 3.39252, -0.812163 3.40351, -1.50673 3.4255 L -1.50673 2.95283, -1.11582 2.95283 C -0.991473 2.95318, -0.874338 2.95146, -0.765103 2.94768, -0.655525 2.94424, -0.551786 2.93497, -0.453543 2.9202, -0.355301 2.90577, -0.270455 2.891, -0.199005 2.87589, -0.138548 2.86524, -0.0883965 2.83157, -0.0488932 2.77455, -0.00904655 2.71787, 0.0105331 2.65467, 0.0105331 2.58459 L 0.0105331 -3.6095 C -0.178051 -3.51744, -0.410261 -3.44771, -0.685753 -3.40031, -0.961245 -3.35256, -1.26319 -3.32886, -1.59158 -3.3292 L -1.59158 -3.79637 C -1.13849 -3.79603, -0.720447 -3.84996, -0.337438 -3.95816, 0.0455709 -4.06602, 0.37671 -4.26869, 0.655981 -4.56582 L 0.831512 -4.56582 C 0.955861 -4.56548, 1.01804 -4.50502, 1.01804 -4.38445 L 1.01804 2.58459 C 1.01804 2.6581, 1.03693 2.72234, 1.07471 2.7773, 1.1125 2.83226, 1.16746 2.86524, 1.23891 2.87589, 1.29937 2.891, 1.377 2.90577, 1.47112 2.9202, 1.56558 2.93497, 1.67207 2.94424, 1.79092 2.94768, 1.90978 2.95146, 2.02588 2.95318, 2.1389 2.95283 L 2.54664 2.95283, 2.54664 3.4255 Z" stroke="none" fill="#000000" transform="matrix(1.12 0 0 1 20.6686 6.66907)" />
			<path d="M 3.05573 -0.399786 C 3.05573 0.128183, 3.01897 0.65306, 2.94546 1.17519, 2.87195 1.69732, 2.6899 2.1875, 2.39929 2.64505, 2.19181 2.97894, 1.91426 3.23519, 1.56732 3.4145, 1.22038 3.59416, 0.842864 3.68381, 0.435123 3.68381, 0.0428391 3.68381, -0.327804 3.59416, -0.676806 3.4145, -1.02581 3.23519, -1.30439 2.97894, -1.51187 2.64505, -1.80213 2.1875, -1.98419 1.69732, -2.0577 1.17519, -2.13121 0.65306, -2.16831 0.128183, -2.16831 -0.399786, -2.16831 -0.934281, -2.13121 -1.46843, -2.0577 -2.00155, -1.98419 -2.53467, -1.80213 -3.03379, -1.51187 -3.49958, -1.30439 -3.83622, -1.02684 -4.09831, -0.679897 -4.28518, -0.332613 -4.47205, 0.0390606 -4.56548, 0.435123 -4.56582, 0.839086 -4.56548, 1.21522 -4.47205, 1.56423 -4.28518, 1.91323 -4.09831, 2.19181 -3.83622, 2.39929 -3.49958, 2.6899 -3.03379, 2.87195 -2.53467, 2.94546 -2.00155, 3.01897 -1.46843, 3.05573 -0.934281, 3.05573 -0.399786 Z M 1.93487 -0.592149 C 1.93487 -0.822641, 1.93315 -1.06619, 1.92937 -1.32279, 1.92594 -1.57904, 1.91632 -1.83014, 1.90121 -2.07575, 1.88609 -2.32101, 1.85895 -2.55288, 1.81911 -2.77101, 1.7796 -2.98879, 1.73151 -3.17497, 1.67484 -3.3292, 1.56148 -3.5779, 1.39557 -3.78229, 1.17675 -3.94167, 0.957939 -4.10106, 0.710614 -4.18076, 0.435123 -4.1811, 0.167188 -4.18076, -0.0749834 -4.10003, -0.292079 -3.93893, -0.508831 -3.77748, -0.674058 -3.57447, -0.787415 -3.3292, -0.84375 -3.17497, -0.89184 -2.98879, -0.931687 -2.77101, -0.97119 -2.55288, -0.998671 -2.32101, -1.01378 -2.07575, -1.0289 -1.83014, -1.03817 -1.57904, -1.04195 -1.32279, -1.04573 -1.06619, -1.04779 -0.822641, -1.04779 -0.592149, -1.04779 -0.335206, -1.04573 -0.0648673, -1.04195 0.218868, -1.03817 0.502948, -1.0289 0.777753, -1.01378 1.04328, -0.998671 1.30916, -0.97119 1.56095, -0.931687 1.799, -0.89184 2.03739, -0.84375 2.23697, -0.787415 2.39773, -0.681615 2.66566, -0.518106 2.8855, -0.297575 3.0576, -0.0770445 3.23004, 0.167188 3.31592, 0.435123 3.31557, 0.714393 3.31592, 0.964465 3.23004, 1.185 3.0576, 1.40587 2.8855, 1.56904 2.66566, 1.67484 2.39773, 1.73151 2.23697, 1.7796 2.03739, 1.81911 1.799, 1.85895 1.56095, 1.88609 1.30916, 1.90121 1.04328, 1.91632 0.777753, 1.92594 0.502948, 1.92937 0.218868, 1.93315 -0.0648673, 1.93487 -0.335206, 1.93487 -0.592149 Z" stroke="none" fill="#000000" transform="matrix(1.12 0 0 1 27.3147 6.66907)" />
			<path d="M 2.56417 3.4255 L -2.04362 3.4255, -2.04362 3.12321 C -2.04362 3.10157, -2.03228 3.06859, -2.00961 3.02428 L -0.158455 1.01271 C 0.0603578 0.771226, 0.281919 0.523902, 0.506572 0.271081, 0.731225 0.0182612, 0.932519 -0.240055, 1.10977 -0.503868, 1.28702 -0.76768, 1.42854 -1.03974, 1.53434 -1.32004, 1.64014 -1.60034, 1.6927 -1.89438, 1.6927 -2.2025, 1.6927 -2.46219, 1.65869 -2.70505, 1.59068 -2.93039, 1.52266 -3.15573, 1.42476 -3.35359, 1.29629 -3.52397, 1.16816 -3.69435, 1.00775 -3.83175, 0.815384 -3.93618, 0.62302 -4.0406, 0.400085 -4.09282, 0.147265 -4.09316, -0.229905 -4.09282, -0.563105 -3.98015, -0.851994 -3.75481, -1.14054 -3.52947, -1.33221 -3.28111, -1.42668 -3.01043, -1.44523 -3.00287, -1.415 -2.99909, -1.33599 -2.99944 L -1.23981 -2.99944 C -1.12645 -2.97333, -1.02856 -2.93383, -0.945427 -2.88093, -0.862299 -2.82769, -0.792567 -2.75452, -0.735889 -2.66108, -0.67921 -2.56765, -0.651043 -2.45498, -0.651043 -2.32342, -0.651043 -2.10323, -0.722492 -1.93457, -0.866077 -1.81743, -1.00966 -1.69996, -1.17008 -1.64156, -1.34733 -1.6419, -1.51702 -1.64156, -1.67572 -1.69996, -1.82274 -1.81743, -1.96976 -1.93457, -2.04362 -2.10323, -2.04362 -2.32342, -2.04362 -2.63086, -1.98316 -2.92215, -1.86224 -3.19695, -1.74133 -3.47176, -1.57748 -3.70981, -1.37 -3.91145, -1.16252 -4.11274, -0.91726 -4.27213, -0.634211 -4.38961, -0.351162 -4.50674, -0.0509381 -4.56548, 0.266118 -4.56582, 0.658745 -4.56548, 1.0184 -4.50777, 1.34473 -4.39235, 1.67106 -4.27694, 1.9493 -4.11102, 2.17945 -3.89496, 2.40959 -3.67855, 2.58994 -3.42848, 2.72012 -3.14474, 2.85031 -2.86066, 2.91524 -2.5467, 2.91524 -2.2025, 2.91524 -1.82121, 2.82867 -1.47015, 2.65486 -1.14966, 2.48139 -0.828824, 2.26635 -0.534783, 2.00975 -0.267536, 1.75315 5.53131e-005, 1.48041 0.251845, 1.19152 0.488177, 0.902978 0.724509, 0.64157 0.954315, 0.407642 1.17759 L -0.894588 2.40322, 0.809544 2.40322 C 1.04725 2.40357, 1.26916 2.40185, 1.47457 2.39807, 1.68033 2.39463, 1.85483 2.38708, 1.99842 2.37609, 2.142 2.36509, 2.21551 2.35788, 2.21895 2.35376, 2.24918 2.32834, 2.27769 2.27716, 2.30414 2.20021, 2.33059 2.12327, 2.35498 2.03258, 2.37765 1.92815, 2.40032 1.82373, 2.42299 1.71758, 2.44566 1.60938, 2.46833 1.50152, 2.48894 1.38301, 2.50784 1.25454 L 2.92657 1.25454 Z" stroke="none" fill="#000000" transform="matrix(1.12 0 0 1 33.9608 6.66907)" />
			<path d="M 2.56314 3.4255 L -2.04464 3.4255, -2.04464 3.12321 C -2.04464 3.10157, -2.03331 3.06859, -2.01064 3.02428 L -0.159484 1.01271 C 0.0593288 0.771226, 0.28089 0.523902, 0.505543 0.271081, 0.730196 0.0182612, 0.93149 -0.240055, 1.10874 -0.503868, 1.28599 -0.76768, 1.42751 -1.03974, 1.53331 -1.32004, 1.63911 -1.60034, 1.69167 -1.89438, 1.69167 -2.2025, 1.69167 -2.46219, 1.65766 -2.70505, 1.58965 -2.93039, 1.52163 -3.15573, 1.42373 -3.35359, 1.29526 -3.52397, 1.16714 -3.69435, 1.00672 -3.83175, 0.814355 -3.93618, 0.621991 -4.0406, 0.399056 -4.09282, 0.146236 -4.09316, -0.230934 -4.09282, -0.564134 -3.98015, -0.853023 -3.75481, -1.14157 -3.52947, -1.33324 -3.28111, -1.42771 -3.01043, -1.44626 -3.00287, -1.41603 -2.99909, -1.33702 -2.99944 L -1.24084 -2.99944 C -1.12748 -2.97333, -1.02958 -2.93383, -0.946456 -2.88093, -0.863328 -2.82769, -0.793596 -2.75452, -0.736918 -2.66108, -0.680239 -2.56765, -0.652072 -2.45498, -0.652072 -2.32342, -0.652072 -2.10323, -0.723521 -1.93457, -0.867106 -1.81743, -1.01069 -1.69996, -1.17111 -1.64156, -1.34836 -1.6419, -1.51805 -1.64156, -1.67675 -1.69996, -1.82377 -1.81743, -1.97079 -1.93457, -2.04464 -2.10323, -2.04464 -2.32342, -2.04464 -2.63086, -1.98419 -2.92215, -1.86327 -3.19695, -1.74236 -3.47176, -1.57851 -3.70981, -1.37103 -3.91145, -1.16355 -4.11274, -0.918289 -4.27213, -0.63524 -4.38961, -0.352191 -4.50674, -0.0519671 -4.56548, 0.265089 -4.56582, 0.657716 -4.56548, 1.01737 -4.50777, 1.3437 -4.39235, 1.67003 -4.27694, 1.94827 -4.11102, 2.17842 -3.89496, 2.40857 -3.67855, 2.58891 -3.42848, 2.71909 -3.14474, 2.84928 -2.86066, 2.91421 -2.5467, 2.91421 -2.2025, 2.91421 -1.82121, 2.82764 -1.47015, 2.65383 -1.14966, 2.48036 -0.828824, 2.26532 -0.534783, 2.00872 -0.267536, 1.75213 5.53131e-005, 1.47938 0.251845, 1.19049 0.488177, 0.901949 0.724509, 0.640541 0.954315, 0.406613 1.17759 L -0.895617 2.40322, 0.808515 2.40322 C 1.04622 2.40357, 1.26813 2.40185, 1.47354 2.39807, 1.6793 2.39463, 1.8538 2.38708, 1.99739 2.37609, 2.14097 2.36509, 2.21448 2.35788, 2.21792 2.35376, 2.24815 2.32834, 2.27666 2.27716, 2.30311 2.20021, 2.32956 2.12327, 2.35395 2.03258, 2.37662 1.92815, 2.39929 1.82373, 2.42196 1.71758, 2.44463 1.60938, 2.4673 1.50152, 2.48792 1.38301, 2.50681 1.25454 L 2.92554 1.25454 Z" stroke="none" fill="#000000" transform="matrix(1.12 0 0 1 40.6069 6.66907)" />
			<rect />
		</svg>
	</g>
	<ellipse cx="1784.7698001861572" cy="607.65139198303223" rx="9.6000003814697266" ry="9.6000003814697266" stroke="none" fill="#58931B" transform="matrix(0.416667 0 0 0.416667 -208.405 -203.058)" />
	<ellipse cx="1784.7697515487671" cy="607.65134334564209" rx="6.4000005722045898" ry="6.4000005722045898" stroke="none" fill="#FFFFFF" transform="matrix(0.416667 0 0 0.416667 -208.405 -203.058)" />
	<g transform="matrix(1 0 -0 1 517.421 64.4502)">
		<svg width="114.085693" height="53.8404121">
			<defs />
			<path d="M 8.15094 18.0887 L 0.0873122 18.0887, 0.0873122 17.5597 C 0.0873122 17.5219, 0.10715 17.4641, 0.146825 17.3866 L 3.38634 13.8664 C 3.76927 13.4438, 4.157 13.0109, 4.55014 12.5685, 4.94328 12.1261, 5.29555 11.674, 5.60573 11.2123, 5.91592 10.7507, 6.16359 10.2746, 6.34874 9.78404, 6.53389 9.29352, 6.62586 8.77894, 6.62586 8.23973, 6.62586 7.78527, 6.56635 7.36026, 6.44732 6.96592, 6.3283 6.57158, 6.15697 6.22532, 5.93215 5.92716, 5.70793 5.62899, 5.4272 5.38854, 5.09056 5.2058, 4.75392 5.02305, 4.36379 4.93168, 3.92135 4.93108, 3.26131 4.93168, 2.67821 5.12885, 2.17265 5.5232, 1.6677 5.91754, 1.33226 6.35216, 1.16695 6.82586, 1.13449 6.83908, 1.18739 6.84569, 1.32565 6.84509 L 1.49397 6.84509 C 1.69234 6.89078, 1.86367 6.95991, 2.00914 7.05248, 2.15462 7.14566, 2.27665 7.2737, 2.37583 7.43721, 2.47502 7.60072, 2.52431 7.79789, 2.52431 8.02813, 2.52431 8.41345, 2.39928 8.70861, 2.148 8.9136, 1.89673 9.11919, 1.616 9.22138, 1.30581 9.22078, 1.00885 9.22138, 0.731128 9.11919, 0.473842 8.9136, 0.216556 8.70861, 0.0873122 8.41345, 0.0873122 8.02813, 0.0873122 7.49011, 0.193112 6.98035, 0.404712 6.49944, 0.616311 6.01853, 0.903053 5.60194, 1.26614 5.24908, 1.62922 4.89681, 2.05843 4.61789, 2.55377 4.4123, 3.04911 4.20731, 3.5745 4.10452, 4.12935 4.10392, 4.81644 4.10452, 5.44583 4.20551, 6.01691 4.40749, 6.58799 4.60947, 7.07491 4.89982, 7.47767 5.27793, 7.88043 5.65665, 8.19602 6.09427, 8.42386 6.59081, 8.65169 7.08795, 8.7653 7.63739, 8.7653 8.23973, 8.7653 8.90699, 8.61381 9.52135, 8.30964 10.0822, 8.00607 10.6437, 7.62976 11.1582, 7.18071 11.6259, 6.73166 12.0942, 6.25436 12.5348, 5.7488 12.9484, 5.24385 13.362, 4.78639 13.7642, 4.37701 14.1549 L 2.09811 16.2997, 5.08034 16.2997 C 5.49633 16.3003, 5.88466 16.2973, 6.24414 16.2907, 6.60422 16.2847, 6.9096 16.2715, 7.16087 16.2523, 7.41214 16.233, 7.54079 16.2204, 7.5468 16.2132, 7.5997 16.1687, 7.64959 16.0791, 7.69588 15.9445, 7.74217 15.8098, 7.78485 15.6511, 7.82452 15.4684, 7.8642 15.2856, 7.90387 15.0999, 7.94355 14.9105, 7.98322 14.7218, 8.01929 14.5144, 8.05235 14.2896 L 8.78514 14.2896 Z" stroke="none" fill="#000000" />
			<path d="M 2.54664 3.4255 C 1.85241 3.40351, 1.17674 3.39252, 0.519953 3.39252, -0.136487 3.39252, -0.812163 3.40351, -1.50673 3.4255 L -1.50673 2.95283, -1.11582 2.95283 C -0.991473 2.95318, -0.874338 2.95146, -0.765103 2.94768, -0.655525 2.94424, -0.551786 2.93497, -0.453543 2.9202, -0.355301 2.90577, -0.270455 2.891, -0.199005 2.87589, -0.138548 2.86524, -0.0883965 2.83157, -0.0488932 2.77455, -0.00904655 2.71787, 0.0105331 2.65467, 0.0105331 2.58459 L 0.0105331 -3.6095 C -0.178051 -3.51744, -0.410261 -3.44771, -0.685753 -3.40031, -0.961245 -3.35256, -1.26319 -3.32886, -1.59158 -3.3292 L -1.59158 -3.79637 C -1.13849 -3.79603, -0.720447 -3.84996, -0.337438 -3.95816, 0.0455709 -4.06602, 0.37671 -4.26869, 0.655981 -4.56582 L 0.831512 -4.56582 C 0.955861 -4.56548, 1.01804 -4.50502, 1.01804 -4.38445 L 1.01804 2.58459 C 1.01804 2.6581, 1.03693 2.72234, 1.07471 2.7773, 1.1125 2.83226, 1.16746 2.86524, 1.23891 2.87589, 1.29937 2.891, 1.377 2.90577, 1.47112 2.9202, 1.56558 2.93497, 1.67207 2.94424, 1.79092 2.94768, 1.90978 2.95146, 2.02588 2.95318, 2.1389 2.95283 L 2.54664 2.95283, 2.54664 3.4255 Z" stroke="none" fill="#000000" transform="matrix(1.12 0 0 1 12.5193 6.66907)" />
			<path d="M 3.05573 -0.399786 C 3.05573 0.128183, 3.01897 0.65306, 2.94546 1.17519, 2.87195 1.69732, 2.6899 2.1875, 2.39929 2.64505, 2.19181 2.97894, 1.91426 3.23519, 1.56732 3.4145, 1.22038 3.59416, 0.842864 3.68381, 0.435123 3.68381, 0.0428391 3.68381, -0.327804 3.59416, -0.676806 3.4145, -1.02581 3.23519, -1.30439 2.97894, -1.51187 2.64505, -1.80213 2.1875, -1.98419 1.69732, -2.0577 1.17519, -2.13121 0.65306, -2.16831 0.128183, -2.16831 -0.399786, -2.16831 -0.934281, -2.13121 -1.46843, -2.0577 -2.00155, -1.98419 -2.53467, -1.80213 -3.03379, -1.51187 -3.49958, -1.30439 -3.83622, -1.02684 -4.09831, -0.679897 -4.28518, -0.332613 -4.47205, 0.0390606 -4.56548, 0.435123 -4.56582, 0.839086 -4.56548, 1.21522 -4.47205, 1.56423 -4.28518, 1.91323 -4.09831, 2.19181 -3.83622, 2.39929 -3.49958, 2.6899 -3.03379, 2.87195 -2.53467, 2.94546 -2.00155, 3.01897 -1.46843, 3.05573 -0.934281, 3.05573 -0.399786 Z M 1.93487 -0.592149 C 1.93487 -0.822641, 1.93315 -1.06619, 1.92937 -1.32279, 1.92594 -1.57904, 1.91632 -1.83014, 1.90121 -2.07575, 1.88609 -2.32101, 1.85895 -2.55288, 1.81911 -2.77101, 1.7796 -2.98879, 1.73151 -3.17497, 1.67484 -3.3292, 1.56148 -3.5779, 1.39557 -3.78229, 1.17675 -3.94167, 0.957939 -4.10106, 0.710614 -4.18076, 0.435123 -4.1811, 0.167188 -4.18076, -0.0749834 -4.10003, -0.292079 -3.93893, -0.508831 -3.77748, -0.674058 -3.57447, -0.787415 -3.3292, -0.84375 -3.17497, -0.89184 -2.98879, -0.931687 -2.77101, -0.97119 -2.55288, -0.998671 -2.32101, -1.01378 -2.07575, -1.0289 -1.83014, -1.03817 -1.57904, -1.04195 -1.32279, -1.04573 -1.06619, -1.04779 -0.822641, -1.04779 -0.592149, -1.04779 -0.335206, -1.04573 -0.0648673, -1.04195 0.218868, -1.03817 0.502948, -1.0289 0.777753, -1.01378 1.04328, -0.998671 1.30916, -0.97119 1.56095, -0.931687 1.799, -0.89184 2.03739, -0.84375 2.23697, -0.787415 2.39773, -0.681615 2.66566, -0.518106 2.8855, -0.297575 3.0576, -0.0770445 3.23004, 0.167188 3.31592, 0.435123 3.31557, 0.714393 3.31592, 0.964465 3.23004, 1.185 3.0576, 1.40587 2.8855, 1.56904 2.66566, 1.67484 2.39773, 1.73151 2.23697, 1.7796 2.03739, 1.81911 1.799, 1.85895 1.56095, 1.88609 1.30916, 1.90121 1.04328, 1.91632 0.777753, 1.92594 0.502948, 1.92937 0.218868, 1.93315 -0.0648673, 1.93487 -0.335206, 1.93487 -0.592149 Z" stroke="none" fill="#000000" transform="matrix(1.12 0 0 1 19.1654 6.66907)" />
			<path d="M 2.56417 3.4255 L -2.04362 3.4255, -2.04362 3.12321 C -2.04362 3.10157, -2.03228 3.06859, -2.00961 3.02428 L -0.158455 1.01271 C 0.0603578 0.771226, 0.281919 0.523902, 0.506572 0.271081, 0.731225 0.0182612, 0.932519 -0.240055, 1.10977 -0.503868, 1.28702 -0.76768, 1.42854 -1.03974, 1.53434 -1.32004, 1.64014 -1.60034, 1.6927 -1.89438, 1.6927 -2.2025, 1.6927 -2.46219, 1.65869 -2.70505, 1.59068 -2.93039, 1.52266 -3.15573, 1.42476 -3.35359, 1.29629 -3.52397, 1.16816 -3.69435, 1.00775 -3.83175, 0.815384 -3.93618, 0.62302 -4.0406, 0.400085 -4.09282, 0.147265 -4.09316, -0.229905 -4.09282, -0.563105 -3.98015, -0.851994 -3.75481, -1.14054 -3.52947, -1.33221 -3.28111, -1.42668 -3.01043, -1.44523 -3.00287, -1.415 -2.99909, -1.33599 -2.99944 L -1.23981 -2.99944 C -1.12645 -2.97333, -1.02856 -2.93383, -0.945427 -2.88093, -0.862299 -2.82769, -0.792567 -2.75452, -0.735889 -2.66108, -0.67921 -2.56765, -0.651043 -2.45498, -0.651043 -2.32342, -0.651043 -2.10323, -0.722492 -1.93457, -0.866077 -1.81743, -1.00966 -1.69996, -1.17008 -1.64156, -1.34733 -1.6419, -1.51702 -1.64156, -1.67572 -1.69996, -1.82274 -1.81743, -1.96976 -1.93457, -2.04362 -2.10323, -2.04362 -2.32342, -2.04362 -2.63086, -1.98316 -2.92215, -1.86224 -3.19695, -1.74133 -3.47176, -1.57748 -3.70981, -1.37 -3.91145, -1.16252 -4.11274, -0.91726 -4.27213, -0.634211 -4.38961, -0.351162 -4.50674, -0.0509381 -4.56548, 0.266118 -4.56582, 0.658745 -4.56548, 1.0184 -4.50777, 1.34473 -4.39235, 1.67106 -4.27694, 1.9493 -4.11102, 2.17945 -3.89496, 2.40959 -3.67855, 2.58994 -3.42848, 2.72012 -3.14474, 2.85031 -2.86066, 2.91524 -2.5467, 2.91524 -2.2025, 2.91524 -1.82121, 2.82867 -1.47015, 2.65486 -1.14966, 2.48139 -0.828824, 2.26635 -0.534783, 2.00975 -0.267536, 1.75315 5.53131e-005, 1.48041 0.251845, 1.19152 0.488177, 0.902978 0.724509, 0.64157 0.954315, 0.407642 1.17759 L -0.894588 2.40322, 0.809544 2.40322 C 1.04725 2.40357, 1.26916 2.40185, 1.47457 2.39807, 1.68033 2.39463, 1.85483 2.38708, 1.99842 2.37609, 2.142 2.36509, 2.21551 2.35788, 2.21895 2.35376, 2.24918 2.32834, 2.27769 2.27716, 2.30414 2.20021, 2.33059 2.12327, 2.35498 2.03258, 2.37765 1.92815, 2.40032 1.82373, 2.42299 1.71758, 2.44566 1.60938, 2.46833 1.50152, 2.48894 1.38301, 2.50784 1.25454 L 2.92657 1.25454 Z" stroke="none" fill="#000000" transform="matrix(1.12 0 0 1 25.8115 6.66907)" />
			<path d="M 1.97918 1.46889 L 1.97918 2.58459 C 1.97918 2.65089, 1.99155 2.71238, 2.01628 2.76906, 2.04101 2.82608, 2.08155 2.86352, 2.13788 2.88138, 2.22479 2.92192, 2.36631 2.94424, 2.56246 2.94768, 2.7586 2.95146, 2.95646 2.95318, 3.15638 2.95283 L 3.15638 3.4255 C 2.57929 3.40351, 2.01353 3.39252, 1.45843 3.39252, 0.911567 3.39252, 0.336195 3.40351, -0.267689 3.4255 L -0.267689 2.95283 C -0.0602112 2.95318, 0.140053 2.95146, 0.332416 2.94768, 0.524779 2.94424, 0.668365 2.92192, 0.762486 2.88138, 0.819164 2.86352, 0.860728 2.82608, 0.887178 2.76906, 0.913628 2.71238, 0.926681 2.65089, 0.926681 2.58459 L 0.926681 1.46889, -2.29953 1.46889, -2.29953 1.0237, 1.4811 -4.5988 C 1.53056 -4.66441, 1.59274 -4.69739, 1.66797 -4.69773 L 1.79266 -4.69773 C 1.91701 -4.69739, 1.97918 -4.63521, 1.97918 -4.51086 L 1.97918 0.98523, 3.19622 0.98523, 3.19622 1.46889 Z M 0.983016 -3.15333 L -1.80144 0.98523, 0.983016 0.98523 Z" stroke="none" fill="#000000" transform="matrix(1.12 0 0 1 32.4576 6.66907)" />
			<rect />
		</svg>
	</g>
	<g transform="matrix(1 0 -0 1 567.903 22.4463)">
		<svg width="60.1215858" height="32.8723297">
			<defs />
			<path d="M 18.5315 13.6095 C 18.5315 14.2119, 18.434 14.7897, 18.2383 15.3424, 18.0433 15.8957, 17.7685 16.3876, 17.4145 16.8194, 17.0612 17.2513, 16.6367 17.5985, 16.1411 17.8598, 15.6461 18.1211, 15.0922 18.2517, 14.4788 18.2517, 13.9801 18.2517, 13.5065 18.183, 13.0588 18.0456, 12.611 17.9088, 12.1847 17.7175, 11.7804 17.4721, 11.3762 17.2267, 10.9989 16.9458, 10.6481 16.6281, 10.2978 16.3109, 9.97456 15.9656, 9.67767 15.592 L 9.11211 14.8854 C 8.86921 15.2786, 8.5625 15.6846, 8.19201 16.103, 7.82151 16.5219, 7.4228 16.8881, 6.99465 17.2022, 6.56649 17.5163, 6.1003 17.7696, 5.59486 17.9622, 5.08942 18.1554, 4.54717 18.2517, 3.9675 18.2517, 3.36821 18.2517, 2.82228 18.1211, 2.33033 17.8598, 1.83838 17.5985, 1.42065 17.2513, 1.07714 16.8194, 0.733639 16.3876, 0.467422 15.8957, 0.278494 15.3424, 0.0901788 14.7897, -0.00428522 14.2119, -0.00428522 13.6095, -0.00428522 13.0084, 0.0938593 12.4275, 0.288922 11.8681, 0.483984 11.3086, 0.756948 10.813, 1.1072 10.3812, 1.45807 9.94933, 1.88254 9.60275, 2.38063 9.34083, 2.87932 9.07952, 3.43507 8.94825, 4.04847 8.94764, 5.03237 8.94825, 5.93162 9.20343, 6.74683 9.71378, 7.56266 10.2241, 8.26316 10.8523, 8.84896 11.5975 L 9.41514 12.3238 C 9.65804 11.9318, 9.96413 11.5264, 10.3346 11.1074, 10.7051 10.6891, 11.1044 10.3192, 11.5326 9.9984, 11.9608 9.6782, 12.4269 9.42303, 12.9324 9.23287, 13.4378 9.04333, 13.9801 8.94825, 14.5591 8.94764, 15.159 8.94825, 15.705 9.07952, 16.1969 9.34083, 16.6889 9.60275, 17.1066 9.94933, 17.4501 10.3812, 17.7936 10.813, 18.0598 11.3086, 18.2488 11.8681, 18.4377 12.4275, 18.5315 13.0084, 18.5315 13.6095 Z M 17.8746 13.6095 C 17.8746 13.0998, 17.7973 12.6109, 17.6421 12.1429, 17.4875 11.6754, 17.2685 11.2694, 16.9851 10.9259, 16.7024 10.5824, 16.3674 10.3063, 15.9798 10.0965, 15.5921 9.88737, 15.1695 9.78248, 14.7113 9.78187, 14.1991 9.78248, 13.7237 9.87572, 13.2857 10.0622, 12.8477 10.2487, 12.4355 10.4959, 12.0479 10.8032, 11.6608 11.1111, 11.3001 11.4742, 10.9664 11.8926, 10.6327 12.3115, 10.3414 12.7336, 10.0923 13.158 L 11.1431 14.4928 C 11.4062 14.8271, 11.6743 15.1498, 11.9473 15.4601, 12.2202 15.7711, 12.5012 16.0478, 12.7907 16.2895, 13.0802 16.5318, 13.3888 16.725, 13.7157 16.8685, 14.0427 17.0127, 14.3947 17.0844, 14.7714 17.0838, 15.2167 17.0844, 15.6277 16.9912, 16.0049 16.8047, 16.3822 16.6182, 16.7103 16.3649, 16.9901 16.0441, 17.2698 15.7239, 17.4875 15.354, 17.6421 14.9351, 17.7973 14.5167, 17.8746 14.0745, 17.8746 13.6095 Z M 7.38354 12.7164 C 7.10751 12.3833, 6.83639 12.0582, 6.57017 11.7405, 6.30395 11.4233, 6.02302 11.1436, 5.72613 10.9013, 5.42985 10.6596, 5.12193 10.4664, 4.80173 10.3223, 4.48153 10.1787, 4.13312 10.1064, 3.75526 10.1057, 3.31055 10.1064, 2.89957 10.1996, 2.52232 10.3861, 2.14508 10.5725, 1.81691 10.8265, 1.5372 11.1467, 1.25749 11.4675, 1.04034 11.8404, 0.88515 12.2655, 0.730572 12.6912, 0.65267 13.139, 0.65267 13.6095, 0.65267 14.1205, 0.730572 14.6051, 0.88515 15.0627, 1.04034 15.5209, 1.25933 15.9214, 1.5421 16.2649, 1.8255 16.6084, 2.16041 16.8851, 2.54747 17.0942, 2.93514 17.304, 3.35778 17.4083, 3.81599 17.4077, 4.31469 17.4083, 4.78639 17.3169, 5.23111 17.1335, 5.67583 16.9507, 6.09172 16.7035, 6.47939 16.3925, 6.86706 16.0821, 7.22713 15.7172, 7.56082 15.2982, 7.89451 14.8799, 8.18587 14.4609, 8.43492 14.0413 Z" stroke="none" fill="#000000" />
			<rect />
		</svg>
	</g>
	<ellipse cx="677.94381141662598" cy="607.65139198303223" rx="9.6000003814697266" ry="9.6000003814697266" stroke="none" fill="#58931B" transform="matrix(0.416667 0 0 0.416667 -208.405 -203.058)" />
	<ellipse cx="677.94376277923584" cy="607.65134334564209" rx="6.4000005722045898" ry="6.4000005722045898" stroke="none" fill="#FFFFFF" transform="matrix(0.416667 0 0 0.416667 -208.405 -203.058)" />
	<g transform="matrix(1 0 -0 1 224.409 77.1614)">
		<svg width="222.013885" height="99.2233734">
			<defs />
			<polyline points="-4.3617 0 4.3617 0" fill="none" stroke="#000000" stroke-width="0.80400002" stroke-linecap="round" stroke-linejoin="round" transform="matrix(1 0 0 1 4.3617 12.1321)" />
			<path d="M 22.7033 18.0887 L 14.6397 18.0887, 14.6397 17.5597 C 14.6397 17.5219, 14.6595 17.4641, 14.6992 17.3866 L 17.9387 13.8664 C 18.3217 13.4438, 18.7094 13.0109, 19.1025 12.5685, 19.4957 12.1261, 19.8479 11.674, 20.1581 11.2123, 20.4683 10.7507, 20.716 10.2746, 20.9011 9.78404, 21.0863 9.29352, 21.1783 8.77894, 21.1783 8.23973, 21.1783 7.78527, 21.1187 7.36026, 20.9997 6.96592, 20.8807 6.57158, 20.7094 6.22532, 20.4846 5.92716, 20.2603 5.62899, 19.9796 5.38854, 19.643 5.2058, 19.3063 5.02305, 18.9162 4.93168, 18.4738 4.93108, 17.8137 4.93168, 17.2306 5.12885, 16.725 5.5232, 16.2201 5.91754, 15.8847 6.35216, 15.7194 6.82586, 15.6869 6.83908, 15.7398 6.84569, 15.8781 6.84509 L 16.0464 6.84509 C 16.2447 6.89078, 16.4161 6.95991, 16.5615 7.05248, 16.707 7.14566, 16.829 7.2737, 16.9282 7.43721, 17.0274 7.60072, 17.0767 7.79789, 17.0767 8.02813, 17.0767 8.41345, 16.9517 8.70861, 16.7004 8.9136, 16.4491 9.11919, 16.1684 9.22138, 15.8582 9.22078, 15.5613 9.22138, 15.2835 9.11919, 15.0262 8.9136, 14.769 8.70861, 14.6397 8.41345, 14.6397 8.02813, 14.6397 7.49011, 14.7455 6.98035, 14.9571 6.49944, 15.1687 6.01853, 15.4555 5.60194, 15.8185 5.24908, 16.1816 4.89681, 16.6108 4.61789, 17.1062 4.4123, 17.6015 4.20731, 18.1269 4.10452, 18.6817 4.10392, 19.3688 4.10452, 19.9982 4.20551, 20.5693 4.40749, 21.1404 4.60947, 21.6273 4.89982, 22.0301 5.27793, 22.4328 5.65665, 22.7484 6.09427, 22.9763 6.59081, 23.2041 7.08795, 23.3177 7.63739, 23.3177 8.23973, 23.3177 8.90699, 23.1662 9.52135, 22.862 10.0822, 22.5585 10.6437, 22.1822 11.1582, 21.7331 11.6259, 21.2841 12.0942, 20.8068 12.5348, 20.3012 12.9484, 19.7962 13.362, 19.3388 13.7642, 18.9294 14.1549 L 16.6505 16.2997, 19.6327 16.2997 C 20.0487 16.3003, 20.4371 16.2973, 20.7965 16.2907, 21.1566 16.2847, 21.462 16.2715, 21.7133 16.2523, 21.9645 16.233, 22.0932 16.2204, 22.0992 16.2132, 22.1521 16.1687, 22.202 16.0791, 22.2483 15.9445, 22.2946 15.8098, 22.3372 15.6511, 22.3769 15.4684, 22.4166 15.2856, 22.4563 15.0999, 22.4959 14.9105, 22.5356 14.7218, 22.5717 14.5144, 22.6048 14.2896 L 23.3375 14.2896 Z" stroke="none" fill="#000000" />
			<polyline points="-2.44255 0 2.44255 0" fill="none" stroke="#000000" stroke-width="0.450240016" stroke-linecap="round" stroke-linejoin="round" transform="matrix(1 0 0 1 27.4783 6.66907)" />
			<path d="M 2.54664 3.4255 C 1.85241 3.40351, 1.17674 3.39252, 0.519953 3.39252, -0.136487 3.39252, -0.812163 3.40351, -1.50673 3.4255 L -1.50673 2.95283, -1.11582 2.95283 C -0.991473 2.95318, -0.874338 2.95146, -0.765103 2.94768, -0.655525 2.94424, -0.551786 2.93497, -0.453543 2.9202, -0.355301 2.90577, -0.270455 2.891, -0.199005 2.87589, -0.138548 2.86524, -0.0883965 2.83157, -0.0488932 2.77455, -0.00904655 2.71787, 0.0105331 2.65467, 0.0105331 2.58459 L 0.0105331 -3.6095 C -0.178051 -3.51744, -0.410261 -3.44771, -0.685753 -3.40031, -0.961245 -3.35256, -1.26319 -3.32886, -1.59158 -3.3292 L -1.59158 -3.79637 C -1.13849 -3.79603, -0.720447 -3.84996, -0.337438 -3.95816, 0.0455709 -4.06602, 0.37671 -4.26869, 0.655981 -4.56582 L 0.831512 -4.56582 C 0.955861 -4.56548, 1.01804 -4.50502, 1.01804 -4.38445 L 1.01804 2.58459 C 1.01804 2.6581, 1.03693 2.72234, 1.07471 2.7773, 1.1125 2.83226, 1.16746 2.86524, 1.23891 2.87589, 1.29937 2.891, 1.377 2.90577, 1.47112 2.9202, 1.56558 2.93497, 1.67207 2.94424, 1.79092 2.94768, 1.90978 2.95146, 2.02588 2.95318, 2.1389 2.95283 L 2.54664 2.95283, 2.54664 3.4255 Z" stroke="none" fill="#000000" transform="matrix(1.12 0 0 1 35.221 6.66907)" />
			<path d="M 3.05573 -0.399786 C 3.05573 0.128183, 3.01897 0.65306, 2.94546 1.17519, 2.87195 1.69732, 2.6899 2.1875, 2.39929 2.64505, 2.19181 2.97894, 1.91426 3.23519, 1.56732 3.4145, 1.22038 3.59416, 0.842864 3.68381, 0.435123 3.68381, 0.0428391 3.68381, -0.327804 3.59416, -0.676806 3.4145, -1.02581 3.23519, -1.30439 2.97894, -1.51187 2.64505, -1.80213 2.1875, -1.98419 1.69732, -2.0577 1.17519, -2.13121 0.65306, -2.16831 0.128183, -2.16831 -0.399786, -2.16831 -0.934281, -2.13121 -1.46843, -2.0577 -2.00155, -1.98419 -2.53467, -1.80213 -3.03379, -1.51187 -3.49958, -1.30439 -3.83622, -1.02684 -4.09831, -0.679897 -4.28518, -0.332613 -4.47205, 0.0390606 -4.56548, 0.435123 -4.56582, 0.839086 -4.56548, 1.21522 -4.47205, 1.56423 -4.28518, 1.91323 -4.09831, 2.19181 -3.83622, 2.39929 -3.49958, 2.6899 -3.03379, 2.87195 -2.53467, 2.94546 -2.00155, 3.01897 -1.46843, 3.05573 -0.934281, 3.05573 -0.399786 Z M 1.93487 -0.592149 C 1.93487 -0.822641, 1.93315 -1.06619, 1.92937 -1.32279, 1.92594 -1.57904, 1.91632 -1.83014, 1.90121 -2.07575, 1.88609 -2.32101, 1.85895 -2.55288, 1.81911 -2.77101, 1.7796 -2.98879, 1.73151 -3.17497, 1.67484 -3.3292, 1.56148 -3.5779, 1.39557 -3.78229, 1.17675 -3.94167, 0.957939 -4.10106, 0.710614 -4.18076, 0.435123 -4.1811, 0.167188 -4.18076, -0.0749834 -4.10003, -0.292079 -3.93893, -0.508831 -3.77748, -0.674058 -3.57447, -0.787415 -3.3292, -0.84375 -3.17497, -0.89184 -2.98879, -0.931687 -2.77101, -0.97119 -2.55288, -0.998671 -2.32101, -1.01378 -2.07575, -1.0289 -1.83014, -1.03817 -1.57904, -1.04195 -1.32279, -1.04573 -1.06619, -1.04779 -0.822641, -1.04779 -0.592149, -1.04779 -0.335206, -1.04573 -0.0648673, -1.04195 0.218868, -1.03817 0.502948, -1.0289 0.777753, -1.01378 1.04328, -0.998671 1.30916, -0.97119 1.56095, -0.931687 1.799, -0.89184 2.03739, -0.84375 2.23697, -0.787415 2.39773, -0.681615 2.66566, -0.518106 2.8855, -0.297575 3.0576, -0.0770445 3.23004, 0.167188 3.31592, 0.435123 3.31557, 0.714393 3.31592, 0.964465 3.23004, 1.185 3.0576, 1.40587 2.8855, 1.56904 2.66566, 1.67484 2.39773, 1.73151 2.23697, 1.7796 2.03739, 1.81911 1.799, 1.85895 1.56095, 1.88609 1.30916, 1.90121 1.04328, 1.91632 0.777753, 1.92594 0.502948, 1.92937 0.218868, 1.93315 -0.0648673, 1.93487 -0.335206, 1.93487 -0.592149 Z" stroke="none" fill="#000000" transform="matrix(1.12 0 0 1 41.8671 6.66907)" />
			<path d="M 3.35561 -4.01072 C 3.35561 -3.98839, 3.34634 -3.95713, 3.32744 -3.91729 L 1.62949 -1.59244 C 1.41068 -1.28809, 1.23996 -0.9518, 1.11733 -0.583561, 0.994694 -0.215323, 0.9071 0.171465, 0.8542 0.576115, 0.8013 0.981108, 0.768323 1.39435, 0.754927 1.81548, 0.741874 2.23697, 0.735003 2.66188, 0.735003 3.09023, 0.735003 3.28844, 0.670081 3.43855, 0.539892 3.54091, 0.410047 3.64362, 0.267492 3.6948, 0.112571 3.6948, -0.042007 3.6948, -0.182501 3.64362, -0.308911 3.54091, -0.435321 3.43855, -0.498526 3.28844, -0.498526 3.09023, -0.498526 2.19643, -0.342918 1.33664, -0.0317018 0.510162, 0.279515 -0.31597, 0.699279 -1.09195, 1.22759 -1.81778 L 2.30276 -3.27424, 0.265431 -3.27424 C 0.00917554 -3.2739, -0.229561 -3.27184, -0.450435 -3.2684, -0.670966 -3.26462, -0.858864 -3.2581, -1.01344 -3.24917, -1.16802 -3.23989, -1.24737 -3.23371, -1.25149 -3.23027, -1.28928 -3.19695, -1.32225 -3.14199, -1.35042 -3.06505, -1.37859 -2.9881, -1.40504 -2.8981, -1.42977 -2.79574, -1.45416 -2.69303, -1.4758 -2.58689, -1.49469 -2.47697, -1.51359 -2.36704, -1.53248 -2.24991, -1.55137 -2.12556 L -1.97011 -2.12556, -1.56271 -4.68674, -1.14947 -4.68674, -1.14947 -4.57682 C -1.14947 -4.53628, -1.1268 -4.49781, -1.0818 -4.4614, -1.00245 -4.40987, -0.919321 -4.3769, -0.832757 -4.36247, -0.730736 -4.34736, -0.606043 -4.33362, -0.459023 -4.32091, -0.312002 -4.30785, -0.154333 -4.29961, 0.0136411 -4.29617, 0.181615 -4.29239, 0.350277 -4.29068, 0.519969 -4.29102 L 3.35561 -4.29102, 3.35561 -4.01072 Z" stroke="none" fill="#000000" transform="matrix(1.12 0 0 1 48.5132 6.66907)" />
			<path d="M 2.91318 0.996222 C 2.91318 1.35553, 2.8455 1.69835, 2.70948 2.02434, 2.57379 2.35067, 2.37765 2.64368, 2.12071 2.90337, 1.86033 3.15653, 1.56698 3.34992, 1.24065 3.4832, 0.914315 3.61717, 0.568405 3.68381, 0.202227 3.68381, -0.114485 3.68381, -0.4099 3.62439, -0.683331 3.50519, -0.956761 3.38634, -1.19447 3.22351, -1.39645 3.01638, -1.59843 2.80959, -1.75679 2.56948, -1.8722 2.29639, -1.98728 2.02365, -2.04499 1.73304, -2.04499 1.42492, -2.04499 1.21263, -1.97423 1.05256, -1.8327 0.944353, -1.69118 0.836492, -1.54484 0.782218, -1.39404 0.781875, -1.23534 0.782218, -1.08626 0.835462, -0.9468 0.941605, -0.806993 1.04809, -0.737261 1.2092, -0.737261 1.42492, -0.737261 1.55717, -0.766459 1.66812, -0.824855 1.75777, -0.883251 1.84777, -0.955044 1.91716, -1.04023 1.96663, -1.12508 2.01609, -1.22023 2.0446, -1.32603 2.05147 L -1.39404 2.05147, -1.50706 2.05147 C -1.42015 2.3596, -1.21817 2.63646, -0.901457 2.88173, -0.584401 3.12733, -0.216506 3.24996, 0.202227 3.24962, 0.421041 3.24996, 0.634358 3.19329, 0.841835 3.07959, 1.04931 2.96623, 1.219 2.81577, 1.35091 2.62856, 1.50583 2.40528, 1.60511 2.15178, 1.64839 1.8677, 1.69167 1.58396, 1.71331 1.29335, 1.71331 0.996222, 1.71331 0.695998, 1.70404 0.407797, 1.68514 0.130931, 1.66625 -0.145591, 1.58896 -0.406656, 1.45293 -0.652606, 1.35503 -0.831916, 1.22965 -0.980997, 1.07679 -1.10019, 0.923933 -1.21905, 0.753211 -1.27882, 0.564282 -1.27916, 0.206006 -1.27882, -0.105211 -1.20634, -0.369366 -1.06172, -0.633522 -0.916762, -0.84684 -0.708941, -1.00897 -0.438258, -1.04298 -0.37574, -1.0976 -0.344481, -1.17317 -0.344825 L -1.21851 -0.344825 C -1.35042 -0.344481, -1.41672 -0.404938, -1.41672 -0.526196 L -1.41672 -4.38445 C -1.41672 -4.47926, -1.36175 -4.53972, -1.25252 -4.56582, -1.23328 -4.56548, -1.2192 -4.56342, -1.20993 -4.55999, -1.20031 -4.55621, -1.19206 -4.55449, -1.18451 -4.55483, -0.637301 -4.30545, -0.0732644 -4.18076, 0.507604 -4.1811, 1.09637 -4.18076, 1.66075 -4.30545, 2.20006 -4.55483, 2.20761 -4.55449, 2.21517 -4.55621, 2.22273 -4.55999, 2.23029 -4.56342, 2.24162 -4.56548, 2.25674 -4.56582, 2.38109 -4.56548, 2.44154 -4.5088, 2.43776 -4.39545, 2.43776 -4.32915, 2.42643 -4.28518, 2.40376 -4.26354, 2.13582 -3.89668, 1.79541 -3.60985, 1.38217 -3.40306, 0.969276 -3.19592, 0.530619 -3.09253, 0.0661991 -3.09287, -0.318528 -3.09253, -0.650354 -3.1365, -0.929968 -3.22478 L -0.929968 -1.12527 C -0.797718 -1.26405, -0.598485 -1.38771, -0.332611 -1.49591, -0.0667379 -1.60377, 0.232456 -1.65805, 0.564282 -1.65839, 0.888896 -1.65805, 1.19565 -1.58454, 1.48419 -1.4382, 1.77274 -1.29153, 2.02659 -1.10122, 2.2454 -0.866954, 2.47177 -0.602798, 2.63974 -0.310474, 2.74898 0.0100172, 2.85856 0.330852, 2.91318 0.659587, 2.91318 0.996222 Z" stroke="none" fill="#000000" transform="matrix(1.12 0 0 1 55.1593 6.66907)" />
			<rect />
		</svg>
	</g>
	<g transform="matrix(1 0 -0 1 143.423 77.1614)">
		<svg width="222.013885" height="99.2233734">
			<defs />
			<polyline points="-4.3617 0 4.3617 0" fill="none" stroke="#000000" stroke-width="0.80400002" stroke-linecap="round" stroke-linejoin="round" transform="matrix(1 0 0 1 4.3617 12.1321)" />
			<path d="M 22.7033 18.0887 L 14.6397 18.0887, 14.6397 17.5597 C 14.6397 17.5219, 14.6595 17.4641, 14.6992 17.3866 L 17.9387 13.8664 C 18.3217 13.4438, 18.7094 13.0109, 19.1025 12.5685, 19.4957 12.1261, 19.8479 11.674, 20.1581 11.2123, 20.4683 10.7507, 20.716 10.2746, 20.9011 9.78404, 21.0863 9.29352, 21.1783 8.77894, 21.1783 8.23973, 21.1783 7.78527, 21.1187 7.36026, 20.9997 6.96592, 20.8807 6.57158, 20.7094 6.22532, 20.4846 5.92716, 20.2603 5.62899, 19.9796 5.38854, 19.643 5.2058, 19.3063 5.02305, 18.9162 4.93168, 18.4738 4.93108, 17.8137 4.93168, 17.2306 5.12885, 16.725 5.5232, 16.2201 5.91754, 15.8847 6.35216, 15.7194 6.82586, 15.6869 6.83908, 15.7398 6.84569, 15.8781 6.84509 L 16.0464 6.84509 C 16.2447 6.89078, 16.4161 6.95991, 16.5615 7.05248, 16.707 7.14566, 16.829 7.2737, 16.9282 7.43721, 17.0274 7.60072, 17.0767 7.79789, 17.0767 8.02813, 17.0767 8.41345, 16.9517 8.70861, 16.7004 8.9136, 16.4491 9.11919, 16.1684 9.22138, 15.8582 9.22078, 15.5613 9.22138, 15.2835 9.11919, 15.0262 8.9136, 14.769 8.70861, 14.6397 8.41345, 14.6397 8.02813, 14.6397 7.49011, 14.7455 6.98035, 14.9571 6.49944, 15.1687 6.01853, 15.4555 5.60194, 15.8185 5.24908, 16.1816 4.89681, 16.6108 4.61789, 17.1062 4.4123, 17.6015 4.20731, 18.1269 4.10452, 18.6817 4.10392, 19.3688 4.10452, 19.9982 4.20551, 20.5693 4.40749, 21.1404 4.60947, 21.6273 4.89982, 22.0301 5.27793, 22.4328 5.65665, 22.7484 6.09427, 22.9763 6.59081, 23.2041 7.08795, 23.3177 7.63739, 23.3177 8.23973, 23.3177 8.90699, 23.1662 9.52135, 22.862 10.0822, 22.5585 10.6437, 22.1822 11.1582, 21.7331 11.6259, 21.2841 12.0942, 20.8068 12.5348, 20.3012 12.9484, 19.7962 13.362, 19.3388 13.7642, 18.9294 14.1549 L 16.6505 16.2997, 19.6327 16.2997 C 20.0487 16.3003, 20.4371 16.2973, 20.7965 16.2907, 21.1566 16.2847, 21.462 16.2715, 21.7133 16.2523, 21.9645 16.233, 22.0932 16.2204, 22.0992 16.2132, 22.1521 16.1687, 22.202 16.0791, 22.2483 15.9445, 22.2946 15.8098, 22.3372 15.6511, 22.3769 15.4684, 22.4166 15.2856, 22.4563 15.0999, 22.4959 14.9105, 22.5356 14.7218, 22.5717 14.5144, 22.6048 14.2896 L 23.3375 14.2896 Z" stroke="none" fill="#000000" />
			<polyline points="-2.44255 0 2.44255 0" fill="none" stroke="#000000" stroke-width="0.450240016" stroke-linecap="round" stroke-linejoin="round" transform="matrix(1 0 0 1 27.4783 6.66907)" />
			<path d="M 2.54664 3.4255 C 1.85241 3.40351, 1.17674 3.39252, 0.519953 3.39252, -0.136487 3.39252, -0.812163 3.40351, -1.50673 3.4255 L -1.50673 2.95283, -1.11582 2.95283 C -0.991473 2.95318, -0.874338 2.95146, -0.765103 2.94768, -0.655525 2.94424, -0.551786 2.93497, -0.453543 2.9202, -0.355301 2.90577, -0.270455 2.891, -0.199005 2.87589, -0.138548 2.86524, -0.0883965 2.83157, -0.0488932 2.77455, -0.00904655 2.71787, 0.0105331 2.65467, 0.0105331 2.58459 L 0.0105331 -3.6095 C -0.178051 -3.51744, -0.410261 -3.44771, -0.685753 -3.40031, -0.961245 -3.35256, -1.26319 -3.32886, -1.59158 -3.3292 L -1.59158 -3.79637 C -1.13849 -3.79603, -0.720447 -3.84996, -0.337438 -3.95816, 0.0455709 -4.06602, 0.37671 -4.26869, 0.655981 -4.56582 L 0.831512 -4.56582 C 0.955861 -4.56548, 1.01804 -4.50502, 1.01804 -4.38445 L 1.01804 2.58459 C 1.01804 2.6581, 1.03693 2.72234, 1.07471 2.7773, 1.1125 2.83226, 1.16746 2.86524, 1.23891 2.87589, 1.29937 2.891, 1.377 2.90577, 1.47112 2.9202, 1.56558 2.93497, 1.67207 2.94424, 1.79092 2.94768, 1.90978 2.95146, 2.02588 2.95318, 2.1389 2.95283 L 2.54664 2.95283, 2.54664 3.4255 Z" stroke="none" fill="#000000" transform="matrix(1.12 0 0 1 35.221 6.66907)" />
			<path d="M 3.05573 -0.399786 C 3.05573 0.128183, 3.01897 0.65306, 2.94546 1.17519, 2.87195 1.69732, 2.6899 2.1875, 2.39929 2.64505, 2.19181 2.97894, 1.91426 3.23519, 1.56732 3.4145, 1.22038 3.59416, 0.842864 3.68381, 0.435123 3.68381, 0.0428391 3.68381, -0.327804 3.59416, -0.676806 3.4145, -1.02581 3.23519, -1.30439 2.97894, -1.51187 2.64505, -1.80213 2.1875, -1.98419 1.69732, -2.0577 1.17519, -2.13121 0.65306, -2.16831 0.128183, -2.16831 -0.399786, -2.16831 -0.934281, -2.13121 -1.46843, -2.0577 -2.00155, -1.98419 -2.53467, -1.80213 -3.03379, -1.51187 -3.49958, -1.30439 -3.83622, -1.02684 -4.09831, -0.679897 -4.28518, -0.332613 -4.47205, 0.0390606 -4.56548, 0.435123 -4.56582, 0.839086 -4.56548, 1.21522 -4.47205, 1.56423 -4.28518, 1.91323 -4.09831, 2.19181 -3.83622, 2.39929 -3.49958, 2.6899 -3.03379, 2.87195 -2.53467, 2.94546 -2.00155, 3.01897 -1.46843, 3.05573 -0.934281, 3.05573 -0.399786 Z M 1.93487 -0.592149 C 1.93487 -0.822641, 1.93315 -1.06619, 1.92937 -1.32279, 1.92594 -1.57904, 1.91632 -1.83014, 1.90121 -2.07575, 1.88609 -2.32101, 1.85895 -2.55288, 1.81911 -2.77101, 1.7796 -2.98879, 1.73151 -3.17497, 1.67484 -3.3292, 1.56148 -3.5779, 1.39557 -3.78229, 1.17675 -3.94167, 0.957939 -4.10106, 0.710614 -4.18076, 0.435123 -4.1811, 0.167188 -4.18076, -0.0749834 -4.10003, -0.292079 -3.93893, -0.508831 -3.77748, -0.674058 -3.57447, -0.787415 -3.3292, -0.84375 -3.17497, -0.89184 -2.98879, -0.931687 -2.77101, -0.97119 -2.55288, -0.998671 -2.32101, -1.01378 -2.07575, -1.0289 -1.83014, -1.03817 -1.57904, -1.04195 -1.32279, -1.04573 -1.06619, -1.04779 -0.822641, -1.04779 -0.592149, -1.04779 -0.335206, -1.04573 -0.0648673, -1.04195 0.218868, -1.03817 0.502948, -1.0289 0.777753, -1.01378 1.04328, -0.998671 1.30916, -0.97119 1.56095, -0.931687 1.799, -0.89184 2.03739, -0.84375 2.23697, -0.787415 2.39773, -0.681615 2.66566, -0.518106 2.8855, -0.297575 3.0576, -0.0770445 3.23004, 0.167188 3.31592, 0.435123 3.31557, 0.714393 3.31592, 0.964465 3.23004, 1.185 3.0576, 1.40587 2.8855, 1.56904 2.66566, 1.67484 2.39773, 1.73151 2.23697, 1.7796 2.03739, 1.81911 1.799, 1.85895 1.56095, 1.88609 1.30916, 1.90121 1.04328, 1.91632 0.777753, 1.92594 0.502948, 1.92937 0.218868, 1.93315 -0.0648673, 1.93487 -0.335206, 1.93487 -0.592149 Z" stroke="none" fill="#000000" transform="matrix(1.12 0 0 1 41.8671 6.66907)" />
			<path d="M 2.56417 3.4255 L -2.04362 3.4255, -2.04362 3.12321 C -2.04362 3.10157, -2.03228 3.06859, -2.00961 3.02428 L -0.158455 1.01271 C 0.0603578 0.771226, 0.281919 0.523902, 0.506572 0.271081, 0.731225 0.0182612, 0.932519 -0.240055, 1.10977 -0.503868, 1.28702 -0.76768, 1.42854 -1.03974, 1.53434 -1.32004, 1.64014 -1.60034, 1.6927 -1.89438, 1.6927 -2.2025, 1.6927 -2.46219, 1.65869 -2.70505, 1.59068 -2.93039, 1.52266 -3.15573, 1.42476 -3.35359, 1.29629 -3.52397, 1.16816 -3.69435, 1.00775 -3.83175, 0.815384 -3.93618, 0.62302 -4.0406, 0.400085 -4.09282, 0.147265 -4.09316, -0.229905 -4.09282, -0.563105 -3.98015, -0.851994 -3.75481, -1.14054 -3.52947, -1.33221 -3.28111, -1.42668 -3.01043, -1.44523 -3.00287, -1.415 -2.99909, -1.33599 -2.99944 L -1.23981 -2.99944 C -1.12645 -2.97333, -1.02856 -2.93383, -0.945427 -2.88093, -0.862299 -2.82769, -0.792567 -2.75452, -0.735889 -2.66108, -0.67921 -2.56765, -0.651043 -2.45498, -0.651043 -2.32342, -0.651043 -2.10323, -0.722492 -1.93457, -0.866077 -1.81743, -1.00966 -1.69996, -1.17008 -1.64156, -1.34733 -1.6419, -1.51702 -1.64156, -1.67572 -1.69996, -1.82274 -1.81743, -1.96976 -1.93457, -2.04362 -2.10323, -2.04362 -2.32342, -2.04362 -2.63086, -1.98316 -2.92215, -1.86224 -3.19695, -1.74133 -3.47176, -1.57748 -3.70981, -1.37 -3.91145, -1.16252 -4.11274, -0.91726 -4.27213, -0.634211 -4.38961, -0.351162 -4.50674, -0.0509381 -4.56548, 0.266118 -4.56582, 0.658745 -4.56548, 1.0184 -4.50777, 1.34473 -4.39235, 1.67106 -4.27694, 1.9493 -4.11102, 2.17945 -3.89496, 2.40959 -3.67855, 2.58994 -3.42848, 2.72012 -3.14474, 2.85031 -2.86066, 2.91524 -2.5467, 2.91524 -2.2025, 2.91524 -1.82121, 2.82867 -1.47015, 2.65486 -1.14966, 2.48139 -0.828824, 2.26635 -0.534783, 2.00975 -0.267536, 1.75315 5.53131e-005, 1.48041 0.251845, 1.19152 0.488177, 0.902978 0.724509, 0.64157 0.954315, 0.407642 1.17759 L -0.894588 2.40322, 0.809544 2.40322 C 1.04725 2.40357, 1.26916 2.40185, 1.47457 2.39807, 1.68033 2.39463, 1.85483 2.38708, 1.99842 2.37609, 2.142 2.36509, 2.21551 2.35788, 2.21895 2.35376, 2.24918 2.32834, 2.27769 2.27716, 2.30414 2.20021, 2.33059 2.12327, 2.35498 2.03258, 2.37765 1.92815, 2.40032 1.82373, 2.42299 1.71758, 2.44566 1.60938, 2.46833 1.50152, 2.48894 1.38301, 2.50784 1.25454 L 2.92657 1.25454 Z" stroke="none" fill="#000000" transform="matrix(1.12 0 0 1 48.5132 6.66907)" />
			<path d="M 2.56314 3.4255 L -2.04464 3.4255, -2.04464 3.12321 C -2.04464 3.10157, -2.03331 3.06859, -2.01064 3.02428 L -0.159484 1.01271 C 0.0593288 0.771226, 0.28089 0.523902, 0.505543 0.271081, 0.730196 0.0182612, 0.93149 -0.240055, 1.10874 -0.503868, 1.28599 -0.76768, 1.42751 -1.03974, 1.53331 -1.32004, 1.63911 -1.60034, 1.69167 -1.89438, 1.69167 -2.2025, 1.69167 -2.46219, 1.65766 -2.70505, 1.58965 -2.93039, 1.52163 -3.15573, 1.42373 -3.35359, 1.29526 -3.52397, 1.16714 -3.69435, 1.00672 -3.83175, 0.814355 -3.93618, 0.621991 -4.0406, 0.399056 -4.09282, 0.146236 -4.09316, -0.230934 -4.09282, -0.564134 -3.98015, -0.853023 -3.75481, -1.14157 -3.52947, -1.33324 -3.28111, -1.42771 -3.01043, -1.44626 -3.00287, -1.41603 -2.99909, -1.33702 -2.99944 L -1.24084 -2.99944 C -1.12748 -2.97333, -1.02958 -2.93383, -0.946456 -2.88093, -0.863328 -2.82769, -0.793596 -2.75452, -0.736918 -2.66108, -0.680239 -2.56765, -0.652072 -2.45498, -0.652072 -2.32342, -0.652072 -2.10323, -0.723521 -1.93457, -0.867106 -1.81743, -1.01069 -1.69996, -1.17111 -1.64156, -1.34836 -1.6419, -1.51805 -1.64156, -1.67675 -1.69996, -1.82377 -1.81743, -1.97079 -1.93457, -2.04464 -2.10323, -2.04464 -2.32342, -2.04464 -2.63086, -1.98419 -2.92215, -1.86327 -3.19695, -1.74236 -3.47176, -1.57851 -3.70981, -1.37103 -3.91145, -1.16355 -4.11274, -0.918289 -4.27213, -0.63524 -4.38961, -0.352191 -4.50674, -0.0519671 -4.56548, 0.265089 -4.56582, 0.657716 -4.56548, 1.01737 -4.50777, 1.3437 -4.39235, 1.67003 -4.27694, 1.94827 -4.11102, 2.17842 -3.89496, 2.40857 -3.67855, 2.58891 -3.42848, 2.71909 -3.14474, 2.84928 -2.86066, 2.91421 -2.5467, 2.91421 -2.2025, 2.91421 -1.82121, 2.82764 -1.47015, 2.65383 -1.14966, 2.48036 -0.828824, 2.26532 -0.534783, 2.00872 -0.267536, 1.75213 5.53131e-005, 1.47938 0.251845, 1.19049 0.488177, 0.901949 0.724509, 0.640541 0.954315, 0.406613 1.17759 L -0.895617 2.40322, 0.808515 2.40322 C 1.04622 2.40357, 1.26813 2.40185, 1.47354 2.39807, 1.6793 2.39463, 1.8538 2.38708, 1.99739 2.37609, 2.14097 2.36509, 2.21448 2.35788, 2.21792 2.35376, 2.24815 2.32834, 2.27666 2.27716, 2.30311 2.20021, 2.32956 2.12327, 2.35395 2.03258, 2.37662 1.92815, 2.39929 1.82373, 2.42196 1.71758, 2.44463 1.60938, 2.4673 1.50152, 2.48792 1.38301, 2.50681 1.25454 L 2.92554 1.25454 Z" stroke="none" fill="#000000" transform="matrix(1.12 0 0 1 55.1593 6.66907)" />
			<rect />
		</svg>
	</g>
	<g transform="matrix(1 0 -0 1 48.9677 64.4502)">
		<svg width="197.902267" height="87.1595535">
			<defs />
			<polyline points="-4.3617 0 4.3617 0" fill="none" stroke="#000000" stroke-width="0.80400002" stroke-linecap="round" stroke-linejoin="round" transform="matrix(1 0 0 1 4.3617 12.1321)" />
			<path d="M 22.7033 18.0887 L 14.6397 18.0887, 14.6397 17.5597 C 14.6397 17.5219, 14.6595 17.4641, 14.6992 17.3866 L 17.9387 13.8664 C 18.3217 13.4438, 18.7094 13.0109, 19.1025 12.5685, 19.4957 12.1261, 19.8479 11.674, 20.1581 11.2123, 20.4683 10.7507, 20.716 10.2746, 20.9011 9.78404, 21.0863 9.29352, 21.1783 8.77894, 21.1783 8.23973, 21.1783 7.78527, 21.1187 7.36026, 20.9997 6.96592, 20.8807 6.57158, 20.7094 6.22532, 20.4846 5.92716, 20.2603 5.62899, 19.9796 5.38854, 19.643 5.2058, 19.3063 5.02305, 18.9162 4.93168, 18.4738 4.93108, 17.8137 4.93168, 17.2306 5.12885, 16.725 5.5232, 16.2201 5.91754, 15.8847 6.35216, 15.7194 6.82586, 15.6869 6.83908, 15.7398 6.84569, 15.8781 6.84509 L 16.0464 6.84509 C 16.2447 6.89078, 16.4161 6.95991, 16.5615 7.05248, 16.707 7.14566, 16.829 7.2737, 16.9282 7.43721, 17.0274 7.60072, 17.0767 7.79789, 17.0767 8.02813, 17.0767 8.41345, 16.9517 8.70861, 16.7004 8.9136, 16.4491 9.11919, 16.1684 9.22138, 15.8582 9.22078, 15.5613 9.22138, 15.2835 9.11919, 15.0262 8.9136, 14.769 8.70861, 14.6397 8.41345, 14.6397 8.02813, 14.6397 7.49011, 14.7455 6.98035, 14.9571 6.49944, 15.1687 6.01853, 15.4555 5.60194, 15.8185 5.24908, 16.1816 4.89681, 16.6108 4.61789, 17.1062 4.4123, 17.6015 4.20731, 18.1269 4.10452, 18.6817 4.10392, 19.3688 4.10452, 19.9982 4.20551, 20.5693 4.40749, 21.1404 4.60947, 21.6273 4.89982, 22.0301 5.27793, 22.4328 5.65665, 22.7484 6.09427, 22.9763 6.59081, 23.2041 7.08795, 23.3177 7.63739, 23.3177 8.23973, 23.3177 8.90699, 23.1662 9.52135, 22.862 10.0822, 22.5585 10.6437, 22.1822 11.1582, 21.7331 11.6259, 21.2841 12.0942, 20.8068 12.5348, 20.3012 12.9484, 19.7962 13.362, 19.3388 13.7642, 18.9294 14.1549 L 16.6505 16.2997, 19.6327 16.2997 C 20.0487 16.3003, 20.4371 16.2973, 20.7965 16.2907, 21.1566 16.2847, 21.462 16.2715, 21.7133 16.2523, 21.9645 16.233, 22.0932 16.2204, 22.0992 16.2132, 22.1521 16.1687, 22.202 16.0791, 22.2483 15.9445, 22.2946 15.8098, 22.3372 15.6511, 22.3769 15.4684, 22.4166 15.2856, 22.4563 15.0999, 22.4959 14.9105, 22.5356 14.7218, 22.5717 14.5144, 22.6048 14.2896 L 23.3375 14.2896 Z" stroke="none" fill="#000000" />
			<path d="M 2.54664 3.4255 C 1.85241 3.40351, 1.17674 3.39252, 0.519953 3.39252, -0.136487 3.39252, -0.812163 3.40351, -1.50673 3.4255 L -1.50673 2.95283, -1.11582 2.95283 C -0.991473 2.95318, -0.874338 2.95146, -0.765103 2.94768, -0.655525 2.94424, -0.551786 2.93497, -0.453543 2.9202, -0.355301 2.90577, -0.270455 2.891, -0.199005 2.87589, -0.138548 2.86524, -0.0883965 2.83157, -0.0488932 2.77455, -0.00904655 2.71787, 0.0105331 2.65467, 0.0105331 2.58459 L 0.0105331 -3.6095 C -0.178051 -3.51744, -0.410261 -3.44771, -0.685753 -3.40031, -0.961245 -3.35256, -1.26319 -3.32886, -1.59158 -3.3292 L -1.59158 -3.79637 C -1.13849 -3.79603, -0.720447 -3.84996, -0.337438 -3.95816, 0.0455709 -4.06602, 0.37671 -4.26869, 0.655981 -4.56582 L 0.831512 -4.56582 C 0.955861 -4.56548, 1.01804 -4.50502, 1.01804 -4.38445 L 1.01804 2.58459 C 1.01804 2.6581, 1.03693 2.72234, 1.07471 2.7773, 1.1125 2.83226, 1.16746 2.86524, 1.23891 2.87589, 1.29937 2.891, 1.377 2.90577, 1.47112 2.9202, 1.56558 2.93497, 1.67207 2.94424, 1.79092 2.94768, 1.90978 2.95146, 2.02588 2.95318, 2.1389 2.95283 L 2.54664 2.95283, 2.54664 3.4255 Z" stroke="none" fill="#000000" transform="matrix(1.12 0 0 1 27.0717 6.66907)" />
			<path d="M 3.05573 -0.399786 C 3.05573 0.128183, 3.01897 0.65306, 2.94546 1.17519, 2.87195 1.69732, 2.6899 2.1875, 2.39929 2.64505, 2.19181 2.97894, 1.91426 3.23519, 1.56732 3.4145, 1.22038 3.59416, 0.842864 3.68381, 0.435123 3.68381, 0.0428391 3.68381, -0.327804 3.59416, -0.676806 3.4145, -1.02581 3.23519, -1.30439 2.97894, -1.51187 2.64505, -1.80213 2.1875, -1.98419 1.69732, -2.0577 1.17519, -2.13121 0.65306, -2.16831 0.128183, -2.16831 -0.399786, -2.16831 -0.934281, -2.13121 -1.46843, -2.0577 -2.00155, -1.98419 -2.53467, -1.80213 -3.03379, -1.51187 -3.49958, -1.30439 -3.83622, -1.02684 -4.09831, -0.679897 -4.28518, -0.332613 -4.47205, 0.0390606 -4.56548, 0.435123 -4.56582, 0.839086 -4.56548, 1.21522 -4.47205, 1.56423 -4.28518, 1.91323 -4.09831, 2.19181 -3.83622, 2.39929 -3.49958, 2.6899 -3.03379, 2.87195 -2.53467, 2.94546 -2.00155, 3.01897 -1.46843, 3.05573 -0.934281, 3.05573 -0.399786 Z M 1.93487 -0.592149 C 1.93487 -0.822641, 1.93315 -1.06619, 1.92937 -1.32279, 1.92594 -1.57904, 1.91632 -1.83014, 1.90121 -2.07575, 1.88609 -2.32101, 1.85895 -2.55288, 1.81911 -2.77101, 1.7796 -2.98879, 1.73151 -3.17497, 1.67484 -3.3292, 1.56148 -3.5779, 1.39557 -3.78229, 1.17675 -3.94167, 0.957939 -4.10106, 0.710614 -4.18076, 0.435123 -4.1811, 0.167188 -4.18076, -0.0749834 -4.10003, -0.292079 -3.93893, -0.508831 -3.77748, -0.674058 -3.57447, -0.787415 -3.3292, -0.84375 -3.17497, -0.89184 -2.98879, -0.931687 -2.77101, -0.97119 -2.55288, -0.998671 -2.32101, -1.01378 -2.07575, -1.0289 -1.83014, -1.03817 -1.57904, -1.04195 -1.32279, -1.04573 -1.06619, -1.04779 -0.822641, -1.04779 -0.592149, -1.04779 -0.335206, -1.04573 -0.0648673, -1.04195 0.218868, -1.03817 0.502948, -1.0289 0.777753, -1.01378 1.04328, -0.998671 1.30916, -0.97119 1.56095, -0.931687 1.799, -0.89184 2.03739, -0.84375 2.23697, -0.787415 2.39773, -0.681615 2.66566, -0.518106 2.8855, -0.297575 3.0576, -0.0770445 3.23004, 0.167188 3.31592, 0.435123 3.31557, 0.714393 3.31592, 0.964465 3.23004, 1.185 3.0576, 1.40587 2.8855, 1.56904 2.66566, 1.67484 2.39773, 1.73151 2.23697, 1.7796 2.03739, 1.81911 1.799, 1.85895 1.56095, 1.88609 1.30916, 1.90121 1.04328, 1.91632 0.777753, 1.92594 0.502948, 1.92937 0.218868, 1.93315 -0.0648673, 1.93487 -0.335206, 1.93487 -0.592149 Z" stroke="none" fill="#000000" transform="matrix(1.12 0 0 1 33.7178 6.66907)" />
			<path d="M 2.56417 3.4255 L -2.04362 3.4255, -2.04362 3.12321 C -2.04362 3.10157, -2.03228 3.06859, -2.00961 3.02428 L -0.158455 1.01271 C 0.0603578 0.771226, 0.281919 0.523902, 0.506572 0.271081, 0.731225 0.0182612, 0.932519 -0.240055, 1.10977 -0.503868, 1.28702 -0.76768, 1.42854 -1.03974, 1.53434 -1.32004, 1.64014 -1.60034, 1.6927 -1.89438, 1.6927 -2.2025, 1.6927 -2.46219, 1.65869 -2.70505, 1.59068 -2.93039, 1.52266 -3.15573, 1.42476 -3.35359, 1.29629 -3.52397, 1.16816 -3.69435, 1.00775 -3.83175, 0.815384 -3.93618, 0.62302 -4.0406, 0.400085 -4.09282, 0.147265 -4.09316, -0.229905 -4.09282, -0.563105 -3.98015, -0.851994 -3.75481, -1.14054 -3.52947, -1.33221 -3.28111, -1.42668 -3.01043, -1.44523 -3.00287, -1.415 -2.99909, -1.33599 -2.99944 L -1.23981 -2.99944 C -1.12645 -2.97333, -1.02856 -2.93383, -0.945427 -2.88093, -0.862299 -2.82769, -0.792567 -2.75452, -0.735889 -2.66108, -0.67921 -2.56765, -0.651043 -2.45498, -0.651043 -2.32342, -0.651043 -2.10323, -0.722492 -1.93457, -0.866077 -1.81743, -1.00966 -1.69996, -1.17008 -1.64156, -1.34733 -1.6419, -1.51702 -1.64156, -1.67572 -1.69996, -1.82274 -1.81743, -1.96976 -1.93457, -2.04362 -2.10323, -2.04362 -2.32342, -2.04362 -2.63086, -1.98316 -2.92215, -1.86224 -3.19695, -1.74133 -3.47176, -1.57748 -3.70981, -1.37 -3.91145, -1.16252 -4.11274, -0.91726 -4.27213, -0.634211 -4.38961, -0.351162 -4.50674, -0.0509381 -4.56548, 0.266118 -4.56582, 0.658745 -4.56548, 1.0184 -4.50777, 1.34473 -4.39235, 1.67106 -4.27694, 1.9493 -4.11102, 2.17945 -3.89496, 2.40959 -3.67855, 2.58994 -3.42848, 2.72012 -3.14474, 2.85031 -2.86066, 2.91524 -2.5467, 2.91524 -2.2025, 2.91524 -1.82121, 2.82867 -1.47015, 2.65486 -1.14966, 2.48139 -0.828824, 2.26635 -0.534783, 2.00975 -0.267536, 1.75315 5.53131e-005, 1.48041 0.251845, 1.19152 0.488177, 0.902978 0.724509, 0.64157 0.954315, 0.407642 1.17759 L -0.894588 2.40322, 0.809544 2.40322 C 1.04725 2.40357, 1.26916 2.40185, 1.47457 2.39807, 1.68033 2.39463, 1.85483 2.38708, 1.99842 2.37609, 2.142 2.36509, 2.21551 2.35788, 2.21895 2.35376, 2.24918 2.32834, 2.27769 2.27716, 2.30414 2.20021, 2.33059 2.12327, 2.35498 2.03258, 2.37765 1.92815, 2.40032 1.82373, 2.42299 1.71758, 2.44566 1.60938, 2.46833 1.50152, 2.48894 1.38301, 2.50784 1.25454 L 2.92657 1.25454 Z" stroke="none" fill="#000000" transform="matrix(1.12 0 0 1 40.3639 6.66907)" />
			<path d="M 1.97918 1.46889 L 1.97918 2.58459 C 1.97918 2.65089, 1.99155 2.71238, 2.01628 2.76906, 2.04101 2.82608, 2.08155 2.86352, 2.13788 2.88138, 2.22479 2.92192, 2.36631 2.94424, 2.56246 2.94768, 2.7586 2.95146, 2.95646 2.95318, 3.15638 2.95283 L 3.15638 3.4255 C 2.57929 3.40351, 2.01353 3.39252, 1.45843 3.39252, 0.911567 3.39252, 0.336195 3.40351, -0.267689 3.4255 L -0.267689 2.95283 C -0.0602112 2.95318, 0.140053 2.95146, 0.332416 2.94768, 0.524779 2.94424, 0.668365 2.92192, 0.762486 2.88138, 0.819164 2.86352, 0.860728 2.82608, 0.887178 2.76906, 0.913628 2.71238, 0.926681 2.65089, 0.926681 2.58459 L 0.926681 1.46889, -2.29953 1.46889, -2.29953 1.0237, 1.4811 -4.5988 C 1.53056 -4.66441, 1.59274 -4.69739, 1.66797 -4.69773 L 1.79266 -4.69773 C 1.91701 -4.69739, 1.97918 -4.63521, 1.97918 -4.51086 L 1.97918 0.98523, 3.19622 0.98523, 3.19622 1.46889 Z M 0.983016 -3.15333 L -1.80144 0.98523, 0.983016 0.98523 Z" stroke="none" fill="#000000" transform="matrix(1.12 0 0 1 47.01 6.66907)" />
			<rect />
		</svg>
	</g>
	<g transform="matrix(1 0 -0 1 123.008 8.99998)">
		<svg width="174.077713" height="59.8723221">
			<defs />
			<path d="M 6.44641 19.6068 C 5.85429 18.745, 5.17776 17.8445, 4.41798 16.9053, 4.1999 17.8574, 3.8716 18.7239, 3.43308 19.5048, 2.99457 20.2868, 2.39542 21.1392, 1.63564 22.0643 L 0.378719 20.995 C 1.06229 20.2083, 1.60046 19.4766, 1.99325 18.8013, 2.38604 18.1259, 2.68854 17.4072, 2.90077 16.6439, 3.11416 15.8817, 3.25838 14.9742, 3.33576 13.9225 L 0.630807 13.9225, 0.630807 12.4029, 3.39322 12.4029 C 3.40729 12.1168, 3.41315 11.6666, 3.41315 11.0522 L 3.41315 9.49512, 0.977867 9.49512, 0.977867 7.99432, 3.41315 7.99432, 3.41315 4.97396, 4.90105 4.97396, 4.90105 7.99432, 7.3164 7.99432, 7.3164 9.49512, 4.90105 9.49512, 4.90105 11.0522 C 4.90105 11.6666, 4.89519 12.1168, 4.88112 12.4029 L 7.54856 12.4029, 7.54856 13.9225, 4.82367 13.9225 C 4.81077 14.1992, 4.77794 14.5861, 4.72635 15.0856, 5.17776 15.5874, 5.69601 16.1971, 6.28226 16.9159, 6.86851 17.6358, 7.3293 18.2197, 7.66346 18.6688 Z M 15.3539 7.26268 L 9.75051 7.26268, 9.75051 16.2862, 8.28254 16.2862, 8.28254 5.7994, 16.823 5.7994, 16.823 16.2675, 15.3539 16.2675 Z M 18.06 17.8621 C 18.06 18.3885, 18.0413 18.9513, 18.0014 19.5505, 17.9639 20.0898, 17.8865 20.4932, 17.7704 20.7605, 17.6543 21.0302, 17.4609 21.2178, 17.19 21.3233, 16.9203 21.43, 16.5147 21.5015, 15.973 21.539, 15.586 21.5648, 15.2835 21.5766, 15.0643 21.5766, 14.872 21.5766, 14.5695 21.5648, 14.1568 21.539, 13.4873 21.5015, 13.0241 21.3456, 12.7662 21.07, 12.5082 20.7957, 12.3793 20.2892, 12.3793 19.5505 L 12.3793 16.5301 C 11.9407 17.6194, 11.3064 18.6078, 10.4751 19.4954, 9.64499 20.3841, 8.57215 21.2389, 7.25778 22.0643 L 6.25294 20.8824 C 7.70919 19.9831, 8.82423 19.1331, 9.59691 18.3323, 10.3696 17.5326, 10.9136 16.6474, 11.229 15.6777, 11.5456 14.7092, 11.7027 13.4863, 11.7027 12.009 L 11.7414 8.36952, 13.2481 8.36952 C 13.2481 8.88308, 13.2422 9.52444, 13.2293 10.2936, 13.2164 11.0628, 13.2035 11.7041, 13.1906 12.2153, 13.1519 13.3421, 13.023 14.3305, 12.8037 15.1794 L 13.866 15.1794, 13.866 19.044 C 13.866 19.4708, 13.9281 19.7486, 14.0501 19.88, 14.1732 20.0113, 14.4276 20.0898, 14.8134 20.1133 L 15.2191 20.132 C 15.6318 20.1332, 15.9308 20.1086, 16.1172 20.0582, 16.3048 20.0089, 16.4338 19.9081, 16.5041 19.758, 16.5756 19.6079, 16.6178 19.3699, 16.6296 19.044 L 16.6683 17.5056 Z" stroke="none" fill="#58931B" />
			<path d="M 32.764 11.7276 C 33.9881 12.4416, 35.5662 13.029, 37.4985 13.491 L 36.9768 14.8792 C 34.7865 14.3176, 32.9832 13.5614, 31.5668 12.6093, 30.1106 13.5731, 28.3073 14.3739, 26.1558 15.0106 L 25.5379 13.6786 C 27.5604 13.0548, 29.1574 12.3795, 30.3299 11.6525, 29.6088 11.0288, 28.9393 10.2842, 28.3202 9.42008, 27.8055 10.1341, 27.3482 10.7028, 26.9484 11.1272 L 25.9822 10.0767 C 26.6388 9.35208, 27.2732 8.49029, 27.8852 7.48898, 28.4972 6.48883, 29.0038 5.52504, 29.4024 4.59876 L 30.8704 5.06776 C 30.562 5.71967, 30.324 6.2004, 30.1552 6.51228 L 35.9332 6.51228, 35.9332 7.84424 C 35.0574 9.39663, 34.001 10.6911, 32.764 11.7276 Z M 24.9188 13.9225 C 24.4169 13.2108, 23.9667 12.6234, 23.5669 12.159 L 23.5669 21.8204, 22.1364 21.8204, 22.1364 13.2471 C 21.5314 14.9496, 20.8432 16.4129, 20.0693 17.637 L 19.3353 16.1362 C 19.9145 15.2369, 20.4492 14.218, 20.9393 13.0795, 21.4294 11.9421, 21.8152 10.8412, 22.0977 9.77652 L 19.9145 9.77652, 19.9145 8.35076, 22.1364 8.35076, 22.1364 4.78636, 23.5669 4.78636, 23.5669 8.35076, 25.5765 8.35076, 25.5765 9.77652, 23.5669 9.77652, 23.5669 10.602 C 24.3783 11.2785, 25.138 11.9972, 25.8462 12.7594 Z M 29.1316 8.2382 C 29.8538 9.30283, 30.6394 10.1775, 31.4895 10.8646, 32.4685 10.0779, 33.3573 9.07068, 34.1557 7.84424 L 29.3825 7.84424 C 29.2793 8.02012, 29.1961 8.15144, 29.1316 8.2382 Z M 28.6684 21.933 L 27.2192 21.933, 27.2192 15.0668, 35.6237 15.0668, 35.6237 21.933, 34.1944 21.933, 34.1944 20.9012, 28.6684 20.9012 Z M 34.1944 19.588 L 34.1944 16.3988, 28.6684 16.3988, 28.6684 19.588 Z" stroke="none" fill="#58931B" />
			<path d="M 52.8643 17.1867 C 53.753 18.4507, 54.9959 19.683, 56.5928 20.8824 L 55.6267 22.1394 C 54.1329 20.9645, 52.9288 19.7451, 52.0142 18.4812, 51.1771 19.6326, 50.0116 20.8262, 48.5167 22.0643 L 47.5505 20.8262 C 49.1099 19.6021, 50.3071 18.3639, 51.1442 17.1117, 50.3329 15.6367, 49.7149 13.8803, 49.2893 11.8401, 49.2002 12.016, 49.1135 12.1696, 49.029 12.3009, 48.9446 12.4322, 48.8778 12.5413, 48.8262 12.628 L 47.7627 11.5024 C 48.3818 10.541, 48.9294 9.48457, 49.4054 8.33318, 49.8826 7.18295, 50.2437 6.04446, 50.4876 4.91768 L 51.9368 5.16156 C 51.7563 6.00107, 51.4796 6.94494, 51.1055 7.99432 L 56.2845 7.99432, 56.2845 9.49512, 54.9314 9.49512 C 54.7649 11.1847, 54.5199 12.6421, 54.1974 13.8674, 53.8761 15.0938, 53.4318 16.1995, 52.8643 17.1867 Z M 38.8939 13.2659 C 39.5646 12.879, 40.2048 12.417, 40.8168 11.8788, 41.4289 11.3418, 41.9659 10.7661, 42.4302 10.1517 L 39.377 10.1517, 39.377 8.91356, 43.2029 8.91356, 43.2029 5.03024, 44.5747 5.03024, 44.5747 8.91356, 47.9562 8.91356, 47.9562 10.1517, 44.5747 10.1517, 44.5747 10.4144, 47.8214 12.553, 47.1061 13.5848 C 46.4237 13.0361, 45.5795 12.4358, 44.5747 11.7838 L 44.5747 13.6974, 43.2029 13.6974, 43.2029 10.9772 C 42.7526 11.6162, 42.2203 12.2294, 41.6083 12.8168, 40.9962 13.4054, 40.3432 13.9237, 39.6479 14.3727 Z M 41.348 8.57588 C 40.9751 7.96384, 40.4018 7.13254, 39.6279 6.0808 L 40.5941 5.44296, 42.3915 7.91928 Z M 48.2071 6.11832 C 47.6279 6.94494, 46.9971 7.795, 46.3135 8.66968 L 45.3087 7.97556 C 46.031 7.05163, 46.6489 6.2133, 47.1636 5.46172 Z M 50.2754 9.96412 C 50.4689 11.153, 50.6975 12.2071, 50.9613 13.1264, 51.2251 14.0456, 51.5569 14.8992, 51.9556 15.6859, 52.3554 14.8617, 52.6814 13.9459, 52.9323 12.9388, 53.1832 11.9328, 53.3802 10.7849, 53.5209 9.49512 L 50.4876 9.49512, 50.2754 9.96412 Z M 46.9314 21.1826 C 46.3393 20.8203, 45.5408 20.39, 44.536 19.8882, 43.3518 20.6761, 41.6446 21.4148, 39.4157 22.1018 L 38.7779 20.8262 C 40.6468 20.3021, 42.089 19.7709, 43.1056 19.2316, 42.1535 18.8071, 41.4512 18.5011, 40.9998 18.3123 L 40.2271 17.9746 C 40.6527 17.3134, 40.988 16.7506, 41.2319 16.2862 L 39.0288 16.2862, 39.0288 15.0668, 41.8698 15.0668 C 42.1406 14.4548, 42.3141 14.0421, 42.3915 13.8287 L 43.8208 14.1851 C 43.666 14.5861, 43.5441 14.8804, 43.4538 15.0668 L 47.5306 15.0668, 47.5306 16.23 C 47.0288 17.3438, 46.4179 18.2514, 45.6956 18.9502, 46.2889 19.2269, 46.9455 19.5704, 47.6666 19.982 Z M 42.1981 17.4681 C 42.4302 17.569, 42.8816 17.7507, 43.5499 18.0122 L 44.4199 18.3686 C 45.0648 17.8445, 45.5795 17.1504, 45.9653 16.2862 L 42.8546 16.2862 C 42.5721 16.8127, 42.3528 17.2067, 42.1981 17.4681 Z" stroke="none" fill="#58931B" />
			<rect />
		</svg>
	</g>
	<g transform="matrix(1 0 -0 1 429.125 8.99998)">
		<svg width="174.077713" height="59.8723221">
			<defs />
			<path d="M 6.44641 19.6068 C 5.85429 18.745, 5.17776 17.8445, 4.41798 16.9053, 4.1999 17.8574, 3.8716 18.7239, 3.43308 19.5048, 2.99457 20.2868, 2.39542 21.1392, 1.63564 22.0643 L 0.378719 20.995 C 1.06229 20.2083, 1.60046 19.4766, 1.99325 18.8013, 2.38604 18.1259, 2.68854 17.4072, 2.90077 16.6439, 3.11416 15.8817, 3.25838 14.9742, 3.33576 13.9225 L 0.630807 13.9225, 0.630807 12.4029, 3.39322 12.4029 C 3.40729 12.1168, 3.41315 11.6666, 3.41315 11.0522 L 3.41315 9.49512, 0.977867 9.49512, 0.977867 7.99432, 3.41315 7.99432, 3.41315 4.97396, 4.90105 4.97396, 4.90105 7.99432, 7.3164 7.99432, 7.3164 9.49512, 4.90105 9.49512, 4.90105 11.0522 C 4.90105 11.6666, 4.89519 12.1168, 4.88112 12.4029 L 7.54856 12.4029, 7.54856 13.9225, 4.82367 13.9225 C 4.81077 14.1992, 4.77794 14.5861, 4.72635 15.0856, 5.17776 15.5874, 5.69601 16.1971, 6.28226 16.9159, 6.86851 17.6358, 7.3293 18.2197, 7.66346 18.6688 Z M 15.3539 7.26268 L 9.75051 7.26268, 9.75051 16.2862, 8.28254 16.2862, 8.28254 5.7994, 16.823 5.7994, 16.823 16.2675, 15.3539 16.2675 Z M 18.06 17.8621 C 18.06 18.3885, 18.0413 18.9513, 18.0014 19.5505, 17.9639 20.0898, 17.8865 20.4932, 17.7704 20.7605, 17.6543 21.0302, 17.4609 21.2178, 17.19 21.3233, 16.9203 21.43, 16.5147 21.5015, 15.973 21.539, 15.586 21.5648, 15.2835 21.5766, 15.0643 21.5766, 14.872 21.5766, 14.5695 21.5648, 14.1568 21.539, 13.4873 21.5015, 13.0241 21.3456, 12.7662 21.07, 12.5082 20.7957, 12.3793 20.2892, 12.3793 19.5505 L 12.3793 16.5301 C 11.9407 17.6194, 11.3064 18.6078, 10.4751 19.4954, 9.64499 20.3841, 8.57215 21.2389, 7.25778 22.0643 L 6.25294 20.8824 C 7.70919 19.9831, 8.82423 19.1331, 9.59691 18.3323, 10.3696 17.5326, 10.9136 16.6474, 11.229 15.6777, 11.5456 14.7092, 11.7027 13.4863, 11.7027 12.009 L 11.7414 8.36952, 13.2481 8.36952 C 13.2481 8.88308, 13.2422 9.52444, 13.2293 10.2936, 13.2164 11.0628, 13.2035 11.7041, 13.1906 12.2153, 13.1519 13.3421, 13.023 14.3305, 12.8037 15.1794 L 13.866 15.1794, 13.866 19.044 C 13.866 19.4708, 13.9281 19.7486, 14.0501 19.88, 14.1732 20.0113, 14.4276 20.0898, 14.8134 20.1133 L 15.2191 20.132 C 15.6318 20.1332, 15.9308 20.1086, 16.1172 20.0582, 16.3048 20.0089, 16.4338 19.9081, 16.5041 19.758, 16.5756 19.6079, 16.6178 19.3699, 16.6296 19.044 L 16.6683 17.5056 Z" stroke="none" fill="#58931B" />
			<path d="M 32.764 11.7276 C 33.9881 12.4416, 35.5662 13.029, 37.4985 13.491 L 36.9768 14.8792 C 34.7865 14.3176, 32.9832 13.5614, 31.5668 12.6093, 30.1106 13.5731, 28.3073 14.3739, 26.1558 15.0106 L 25.5379 13.6786 C 27.5604 13.0548, 29.1574 12.3795, 30.3299 11.6525, 29.6088 11.0288, 28.9393 10.2842, 28.3202 9.42008, 27.8055 10.1341, 27.3482 10.7028, 26.9484 11.1272 L 25.9822 10.0767 C 26.6388 9.35208, 27.2732 8.49029, 27.8852 7.48898, 28.4972 6.48883, 29.0038 5.52504, 29.4024 4.59876 L 30.8704 5.06776 C 30.562 5.71967, 30.324 6.2004, 30.1552 6.51228 L 35.9332 6.51228, 35.9332 7.84424 C 35.0574 9.39663, 34.001 10.6911, 32.764 11.7276 Z M 24.9188 13.9225 C 24.4169 13.2108, 23.9667 12.6234, 23.5669 12.159 L 23.5669 21.8204, 22.1364 21.8204, 22.1364 13.2471 C 21.5314 14.9496, 20.8432 16.4129, 20.0693 17.637 L 19.3353 16.1362 C 19.9145 15.2369, 20.4492 14.218, 20.9393 13.0795, 21.4294 11.9421, 21.8152 10.8412, 22.0977 9.77652 L 19.9145 9.77652, 19.9145 8.35076, 22.1364 8.35076, 22.1364 4.78636, 23.5669 4.78636, 23.5669 8.35076, 25.5765 8.35076, 25.5765 9.77652, 23.5669 9.77652, 23.5669 10.602 C 24.3783 11.2785, 25.138 11.9972, 25.8462 12.7594 Z M 29.1316 8.2382 C 29.8538 9.30283, 30.6394 10.1775, 31.4895 10.8646, 32.4685 10.0779, 33.3573 9.07068, 34.1557 7.84424 L 29.3825 7.84424 C 29.2793 8.02012, 29.1961 8.15144, 29.1316 8.2382 Z M 28.6684 21.933 L 27.2192 21.933, 27.2192 15.0668, 35.6237 15.0668, 35.6237 21.933, 34.1944 21.933, 34.1944 20.9012, 28.6684 20.9012 Z M 34.1944 19.588 L 34.1944 16.3988, 28.6684 16.3988, 28.6684 19.588 Z" stroke="none" fill="#58931B" />
			<path d="M 52.8643 17.1867 C 53.753 18.4507, 54.9959 19.683, 56.5928 20.8824 L 55.6267 22.1394 C 54.1329 20.9645, 52.9288 19.7451, 52.0142 18.4812, 51.1771 19.6326, 50.0116 20.8262, 48.5167 22.0643 L 47.5505 20.8262 C 49.1099 19.6021, 50.3071 18.3639, 51.1442 17.1117, 50.3329 15.6367, 49.7149 13.8803, 49.2893 11.8401, 49.2002 12.016, 49.1135 12.1696, 49.029 12.3009, 48.9446 12.4322, 48.8778 12.5413, 48.8262 12.628 L 47.7627 11.5024 C 48.3818 10.541, 48.9294 9.48457, 49.4054 8.33318, 49.8826 7.18295, 50.2437 6.04446, 50.4876 4.91768 L 51.9368 5.16156 C 51.7563 6.00107, 51.4796 6.94494, 51.1055 7.99432 L 56.2845 7.99432, 56.2845 9.49512, 54.9314 9.49512 C 54.7649 11.1847, 54.5199 12.6421, 54.1974 13.8674, 53.8761 15.0938, 53.4318 16.1995, 52.8643 17.1867 Z M 38.8939 13.2659 C 39.5646 12.879, 40.2048 12.417, 40.8168 11.8788, 41.4289 11.3418, 41.9659 10.7661, 42.4302 10.1517 L 39.377 10.1517, 39.377 8.91356, 43.2029 8.91356, 43.2029 5.03024, 44.5747 5.03024, 44.5747 8.91356, 47.9562 8.91356, 47.9562 10.1517, 44.5747 10.1517, 44.5747 10.4144, 47.8214 12.553, 47.1061 13.5848 C 46.4237 13.0361, 45.5795 12.4358, 44.5747 11.7838 L 44.5747 13.6974, 43.2029 13.6974, 43.2029 10.9772 C 42.7526 11.6162, 42.2203 12.2294, 41.6083 12.8168, 40.9962 13.4054, 40.3432 13.9237, 39.6479 14.3727 Z M 41.348 8.57588 C 40.9751 7.96384, 40.4018 7.13254, 39.6279 6.0808 L 40.5941 5.44296, 42.3915 7.91928 Z M 48.2071 6.11832 C 47.6279 6.94494, 46.9971 7.795, 46.3135 8.66968 L 45.3087 7.97556 C 46.031 7.05163, 46.6489 6.2133, 47.1636 5.46172 Z M 50.2754 9.96412 C 50.4689 11.153, 50.6975 12.2071, 50.9613 13.1264, 51.2251 14.0456, 51.5569 14.8992, 51.9556 15.6859, 52.3554 14.8617, 52.6814 13.9459, 52.9323 12.9388, 53.1832 11.9328, 53.3802 10.7849, 53.5209 9.49512 L 50.4876 9.49512, 50.2754 9.96412 Z M 46.9314 21.1826 C 46.3393 20.8203, 45.5408 20.39, 44.536 19.8882, 43.3518 20.6761, 41.6446 21.4148, 39.4157 22.1018 L 38.7779 20.8262 C 40.6468 20.3021, 42.089 19.7709, 43.1056 19.2316, 42.1535 18.8071, 41.4512 18.5011, 40.9998 18.3123 L 40.2271 17.9746 C 40.6527 17.3134, 40.988 16.7506, 41.2319 16.2862 L 39.0288 16.2862, 39.0288 15.0668, 41.8698 15.0668 C 42.1406 14.4548, 42.3141 14.0421, 42.3915 13.8287 L 43.8208 14.1851 C 43.666 14.5861, 43.5441 14.8804, 43.4538 15.0668 L 47.5306 15.0668, 47.5306 16.23 C 47.0288 17.3438, 46.4179 18.2514, 45.6956 18.9502, 46.2889 19.2269, 46.9455 19.5704, 47.6666 19.982 Z M 42.1981 17.4681 C 42.4302 17.569, 42.8816 17.7507, 43.5499 18.0122 L 44.4199 18.3686 C 45.0648 17.8445, 45.5795 17.1504, 45.9653 16.2862 L 42.8546 16.2862 C 42.5721 16.8127, 42.3528 17.2067, 42.1981 17.4681 Z" stroke="none" fill="#58931B" />
			<rect />
		</svg>
	</g>
	<g transform="matrix(1 0 -0 1 266.472 8.99998)">
		<svg width="230.912262" height="59.8723221">
			<defs />
			<path d="M 12.2632 16.8115 L 18.06 16.8115, 18.06 18.2936, 12.2632 18.2936, 12.2632 21.9893, 10.7553 21.9893, 10.7553 4.9552, 12.2632 4.9552, 12.2632 7.73168, 17.5383 7.73168, 17.5383 9.15744, 12.2632 9.15744, 12.2632 12.1778, 17.19 12.1778, 17.19 13.6223, 12.2632 13.6223 Z M 1.22995 7.73168 L 6.50503 7.73168, 6.50503 5.08652, 8.01169 5.08652, 8.01169 21.9893, 6.50503 21.9893, 6.50503 18.2936, 0.708192 18.2936, 0.708192 16.8115, 6.50503 16.8115, 6.50503 13.6223, 1.57701 13.6223, 1.57701 12.1778, 6.50503 12.1778, 6.50503 9.15744, 1.22995 9.15744 Z" stroke="none" fill="#CC0000" />
			<path d="M 25.634 19.6068 C 25.0419 18.745, 24.3654 17.8445, 23.6056 16.9053, 23.3875 17.8574, 23.0592 18.7239, 22.6207 19.5048, 22.1822 20.2868, 21.583 21.1392, 20.8232 22.0643 L 19.5663 20.995 C 20.2499 20.2083, 20.7881 19.4766, 21.1808 18.8013, 21.5736 18.1259, 21.8761 17.4072, 22.0884 16.6439, 22.3018 15.8817, 22.446 14.9742, 22.5234 13.9225 L 19.8184 13.9225, 19.8184 12.4029, 22.5808 12.4029 C 22.5949 12.1168, 22.6007 11.6666, 22.6007 11.0522 L 22.6007 9.49512, 20.1655 9.49512, 20.1655 7.99432, 22.6007 7.99432, 22.6007 4.97396, 24.0886 4.97396, 24.0886 7.99432, 26.504 7.99432, 26.504 9.49512, 24.0886 9.49512, 24.0886 11.0522 C 24.0886 11.6666, 24.0828 12.1168, 24.0687 12.4029 L 26.7361 12.4029, 26.7361 13.9225, 24.0113 13.9225 C 23.9984 14.1992, 23.9655 14.5861, 23.9139 15.0856, 24.3654 15.5874, 24.8836 16.1971, 25.4698 16.9159, 26.0561 17.6358, 26.5169 18.2197, 26.8511 18.6688 Z M 34.5415 7.26268 L 28.9381 7.26268, 28.9381 16.2862, 27.4701 16.2862, 27.4701 5.7994, 36.0106 5.7994, 36.0106 16.2675, 34.5415 16.2675 Z M 37.2476 17.8621 C 37.2476 18.3885, 37.2289 18.9513, 37.189 19.5505, 37.1515 20.0898, 37.0741 20.4932, 36.958 20.7605, 36.8419 21.0302, 36.6485 21.2178, 36.3776 21.3233, 36.1079 21.43, 35.7023 21.5015, 35.1606 21.539, 34.7736 21.5648, 34.4711 21.5766, 34.2519 21.5766, 34.0596 21.5766, 33.7571 21.5648, 33.3444 21.539, 32.6749 21.5015, 32.2117 21.3456, 31.9538 21.07, 31.6958 20.7957, 31.5668 20.2892, 31.5668 19.5505 L 31.5668 16.5301 C 31.1283 17.6194, 30.494 18.6078, 29.6627 19.4954, 28.8326 20.3841, 27.7597 21.2389, 26.4454 22.0643 L 25.4405 20.8824 C 26.8968 19.9831, 28.0118 19.1331, 28.7845 18.3323, 29.5572 17.5326, 30.1012 16.6474, 30.4166 15.6777, 30.7332 14.7092, 30.8903 13.4863, 30.8903 12.009 L 30.929 8.36952, 32.4357 8.36952 C 32.4357 8.88308, 32.4298 9.52444, 32.4169 10.2936, 32.404 11.0628, 32.3911 11.7041, 32.3782 12.2153, 32.3395 13.3421, 32.2106 14.3305, 31.9913 15.1794 L 33.0536 15.1794, 33.0536 19.044 C 33.0536 19.4708, 33.1157 19.7486, 33.2377 19.88, 33.3608 20.0113, 33.6152 20.0898, 34.001 20.1133 L 34.4066 20.132 C 34.8194 20.1332, 35.1184 20.1086, 35.3048 20.0582, 35.4924 20.0089, 35.6214 19.9081, 35.6917 19.758, 35.7632 19.6079, 35.8054 19.3699, 35.8172 19.044 L 35.8559 17.5056 Z" stroke="none" fill="#CC0000" />
			<path d="M 51.9516 11.7276 C 53.1757 12.4416, 54.7538 13.029, 56.6861 13.491 L 56.1644 14.8792 C 53.9741 14.3176, 52.1708 13.5614, 50.7544 12.6093, 49.2982 13.5731, 47.4949 14.3739, 45.3434 15.0106 L 44.7254 13.6786 C 46.748 13.0548, 48.345 12.3795, 49.5175 11.6525, 48.7964 11.0288, 48.1269 10.2842, 47.5078 9.42008, 46.9931 10.1341, 46.5358 10.7028, 46.136 11.1272 L 45.1698 10.0767 C 45.8264 9.35208, 46.4608 8.49029, 47.0728 7.48898, 47.6848 6.48883, 48.1914 5.52504, 48.59 4.59876 L 50.058 5.06776 C 49.7496 5.71967, 49.5116 6.2004, 49.3428 6.51228 L 55.1208 6.51228, 55.1208 7.84424 C 54.245 9.39663, 53.1886 10.6911, 51.9516 11.7276 Z M 44.1064 13.9225 C 43.6045 13.2108, 43.1543 12.6234, 42.7545 12.159 L 42.7545 21.8204, 41.324 21.8204, 41.324 13.2471 C 40.719 14.9496, 40.0308 16.4129, 39.2569 17.637 L 38.5229 16.1362 C 39.1021 15.2369, 39.6368 14.218, 40.1269 13.0795, 40.617 11.9421, 41.0028 10.8412, 41.2853 9.77652 L 39.1021 9.77652, 39.1021 8.35076, 41.324 8.35076, 41.324 4.78636, 42.7545 4.78636, 42.7545 8.35076, 44.7641 8.35076, 44.7641 9.77652, 42.7545 9.77652, 42.7545 10.602 C 43.5658 11.2785, 44.3256 11.9972, 45.0338 12.7594 Z M 48.3192 8.2382 C 49.0414 9.30283, 49.827 10.1775, 50.6771 10.8646, 51.6561 10.0779, 52.5448 9.07068, 53.3433 7.84424 L 48.5701 7.84424 C 48.4669 8.02012, 48.3836 8.15144, 48.3192 8.2382 Z M 47.856 21.933 L 46.4068 21.933, 46.4068 15.0668, 54.8113 15.0668, 54.8113 21.933, 53.382 21.933, 53.382 20.9012, 47.856 20.9012 Z M 53.382 19.588 L 53.382 16.3988, 47.856 16.3988, 47.856 19.588 Z" stroke="none" fill="#CC0000" />
			<path d="M 72.0519 17.1867 C 72.9406 18.4507, 74.1835 19.683, 75.7804 20.8824 L 74.8143 22.1394 C 73.3205 20.9645, 72.1164 19.7451, 71.2018 18.4812, 70.3646 19.6326, 69.1992 20.8262, 67.7042 22.0643 L 66.7381 20.8262 C 68.2975 19.6021, 69.4947 18.3639, 70.3318 17.1117, 69.5204 15.6367, 68.9025 13.8803, 68.4769 11.8401, 68.3878 12.016, 68.301 12.1696, 68.2166 12.3009, 68.1322 12.4322, 68.0654 12.5413, 68.0138 12.628 L 66.9503 11.5024 C 67.5694 10.541, 68.117 9.48457, 68.593 8.33318, 69.0702 7.18295, 69.4313 6.04446, 69.6752 4.91768 L 71.1244 5.16156 C 70.9439 6.00107, 70.6672 6.94494, 70.2931 7.99432 L 75.4721 7.99432, 75.4721 9.49512, 74.119 9.49512 C 73.9525 11.1847, 73.7074 12.6421, 73.385 13.8674, 73.0637 15.0938, 72.6194 16.1995, 72.0519 17.1867 Z M 58.0815 13.2659 C 58.7522 12.879, 59.3924 12.417, 60.0044 11.8788, 60.6165 11.3418, 61.1535 10.7661, 61.6178 10.1517 L 58.5646 10.1517, 58.5646 8.91356, 62.3905 8.91356, 62.3905 5.03024, 63.7623 5.03024, 63.7623 8.91356, 67.1438 8.91356, 67.1438 10.1517, 63.7623 10.1517, 63.7623 10.4144, 67.0089 12.553, 66.2937 13.5848 C 65.6113 13.0361, 64.7671 12.4358, 63.7623 11.7838 L 63.7623 13.6974, 62.3905 13.6974, 62.3905 10.9772 C 61.9402 11.6162, 61.4079 12.2294, 60.7959 12.8168, 60.1838 13.4054, 59.5308 13.9237, 58.8355 14.3727 Z M 60.5356 8.57588 C 60.1627 7.96384, 59.5894 7.13254, 58.8155 6.0808 L 59.7817 5.44296, 61.5791 7.91928 Z M 67.3947 6.11832 C 66.8155 6.94494, 66.1847 7.795, 65.5011 8.66968 L 64.4963 7.97556 C 65.2185 7.05163, 65.8365 6.2133, 66.3512 5.46172 Z M 69.463 9.96412 C 69.6565 11.153, 69.8851 12.2071, 70.1489 13.1264, 70.4127 14.0456, 70.7445 14.8992, 71.1432 15.6859, 71.543 14.8617, 71.869 13.9459, 72.1199 12.9388, 72.3708 11.9328, 72.5678 10.7849, 72.7085 9.49512 L 69.6752 9.49512, 69.463 9.96412 Z M 66.119 21.1826 C 65.5269 20.8203, 64.7284 20.39, 63.7236 19.8882, 62.5394 20.6761, 60.8322 21.4148, 58.6033 22.1018 L 57.9655 20.8262 C 59.8344 20.3021, 61.2766 19.7709, 62.2932 19.2316, 61.3411 18.8071, 60.6388 18.5011, 60.1874 18.3123 L 59.4147 17.9746 C 59.8403 17.3134, 60.1756 16.7506, 60.4195 16.2862 L 58.2164 16.2862, 58.2164 15.0668, 61.0573 15.0668 C 61.3282 14.4548, 61.5017 14.0421, 61.5791 13.8287 L 63.0084 14.1851 C 62.8536 14.5861, 62.7317 14.8804, 62.6414 15.0668 L 66.7182 15.0668, 66.7182 16.23 C 66.2163 17.3438, 65.6055 18.2514, 64.8832 18.9502, 65.4765 19.2269, 66.1331 19.5704, 66.8542 19.982 Z M 61.3856 17.4681 C 61.6178 17.569, 62.0692 17.7507, 62.7375 18.0122 L 63.6075 18.3686 C 64.2524 17.8445, 64.7671 17.1504, 65.1529 16.2862 L 62.0422 16.2862 C 61.7597 16.8127, 61.5404 17.2067, 61.3856 17.4681 Z" stroke="none" fill="#CC0000" />
			<rect />
		</svg>
	</g>
	<g transform="matrix(1 0 -0 1 9.24999 22.4463)">
		<svg width="146.808609" height="87.1595535">
			<defs />
			<polyline points="-4.3617 0 4.3617 0" fill="none" stroke="#000000" stroke-width="0.80400002" stroke-linecap="round" stroke-linejoin="round" transform="matrix(1 0 0 1 4.3617 12.008)" />
			<path d="M 33.0919 13.6095 C 33.0919 14.2119, 32.9944 14.7897, 32.7987 15.3424, 32.6036 15.8957, 32.3288 16.3876, 31.9749 16.8194, 31.6216 17.2513, 31.1971 17.5985, 30.7015 17.8598, 30.2065 18.1211, 29.6519 18.2517, 29.0385 18.2517, 28.5398 18.2517, 28.0663 18.183, 27.6179 18.0456, 27.1701 17.9088, 26.7438 17.7175, 26.3396 17.4721, 25.9353 17.2267, 25.5581 16.9458, 25.2072 16.6281, 24.857 16.3109, 24.5337 15.9656, 24.2368 15.592 L 23.6706 14.8854 C 23.4284 15.2786, 23.1217 15.6846, 22.7512 16.103, 22.3807 16.5219, 21.9813 16.8881, 21.5532 17.2022, 21.125 17.5163, 20.6582 17.7696, 20.1528 17.9622, 19.6473 18.1554, 19.1051 18.2517, 18.5254 18.2517, 17.9255 18.2517, 17.3796 18.1211, 16.8876 17.8598, 16.3957 17.5985, 15.978 17.2513, 15.6345 16.8194, 15.2909 16.3876, 15.0247 15.8957, 14.8358 15.3424, 14.6469 14.7897, 14.5524 14.2119, 14.5524 13.6095, 14.5524 13.0084, 14.6506 12.4275, 14.8456 11.8681, 15.0413 11.3086, 15.3143 10.813, 15.6645 10.3812, 16.0154 9.94933, 16.4398 9.60275, 16.9385 9.34083, 17.4372 9.07952, 17.993 8.94825, 18.6058 8.94764, 19.5903 8.94825, 20.4902 9.20343, 21.3054 9.71378, 22.1212 10.2241, 22.8217 10.8523, 23.4075 11.5975 L 23.9737 12.3238 C 24.2166 11.9318, 24.5233 11.5264, 24.8938 11.1074, 25.2643 10.6891, 25.6636 10.3192, 26.0918 9.9984, 26.5199 9.6782, 26.9861 9.42303, 27.4915 9.23287, 27.997 9.04333, 28.5398 8.94825, 29.1195 8.94764, 29.7194 8.94825, 30.2647 9.07952, 30.7567 9.34083, 31.2486 9.60275, 31.667 9.94933, 32.0105 10.3812, 32.354 10.813, 32.6202 11.3086, 32.8091 11.8681, 32.9981 12.4275, 33.0919 13.0084, 33.0919 13.6095 Z M 32.435 13.6095 C 32.435 13.0998, 32.3577 12.6109, 32.2025 12.1429, 32.0479 11.6754, 31.8289 11.2694, 31.5455 10.9259, 31.2627 10.5824, 30.9278 10.3063, 30.5402 10.0965, 30.1525 9.88737, 29.7298 9.78248, 29.271 9.78187, 28.7588 9.78248, 28.2834 9.87572, 27.8455 10.0622, 27.4075 10.2487, 26.9953 10.4959, 26.6076 10.8032, 26.22 11.1111, 25.8593 11.4742, 25.5256 11.8926, 25.1919 12.3115, 24.9005 12.7336, 24.6515 13.158 L 25.7022 14.4928 C 25.9654 14.8271, 26.2334 15.1498, 26.5064 15.4601, 26.7794 15.7711, 27.0609 16.0478, 27.3505 16.2895, 27.64 16.5318, 27.9485 16.725, 28.2755 16.8685, 28.6024 17.0127, 28.9545 17.0844, 29.3317 17.0838, 29.7765 17.0844, 30.1874 16.9912, 30.5647 16.8047, 30.9425 16.6182, 31.2707 16.3649, 31.5504 16.0441, 31.8301 15.7239, 32.0479 15.354, 32.2025 14.9351, 32.3577 14.5167, 32.435 14.0745, 32.435 13.6095 Z M 21.9421 12.7164 C 21.666 12.3833, 21.3943 12.0582, 21.1281 11.7405, 20.8619 11.4233, 20.5809 11.1436, 20.284 10.9013, 19.9878 10.6596, 19.6792 10.4664, 19.359 10.3223, 19.0388 10.1787, 18.6904 10.1064, 18.3132 10.1057, 17.8685 10.1064, 17.4575 10.1996, 17.0796 10.3861, 16.7024 10.5725, 16.3736 10.8265, 16.0939 11.1467, 15.8142 11.4675, 15.597 11.8404, 15.4418 12.2655, 15.2873 12.6912, 15.2094 13.139, 15.2094 13.6095, 15.2094 14.1205, 15.2873 14.6051, 15.4418 15.0627, 15.597 15.5209, 15.816 15.9214, 16.0994 16.2649, 16.3828 16.6084, 16.7177 16.8851, 17.1054 17.0942, 17.4931 17.304, 17.9157 17.4083, 18.3733 17.4077, 18.8726 17.4083, 19.3443 17.3169, 19.789 17.1335, 20.2337 16.9507, 20.6496 16.7035, 21.0373 16.3925, 21.425 16.0821, 21.7857 15.7172, 22.1194 15.2982, 22.453 14.8799, 22.7444 14.4609, 22.9935 14.0413 Z" stroke="none" fill="#000000" />
			<rect />
		</svg>
	</g>
	<g transform="matrix(1 0 -0 1 299.996 64.5123)">
		<svg width="33.1395264" height="47.8084984">
			<defs />
			<path d="M 9.23676 11.2703 C 9.23676 12.1943, 9.17244 13.1128, 9.0438 14.0265, 8.91516 14.9403, 8.59656 15.7981, 8.088 16.5988, 7.72491 17.1831, 7.23919 17.6315, 6.63205 17.9453, 6.0249 18.2597, 5.36425 18.4166, 4.6507 18.4166, 3.96421 18.4166, 3.31558 18.2597, 2.70483 17.9453, 2.09408 17.6315, 1.60656 17.1831, 1.24347 16.5988, 0.735511 15.7981, 0.41691 14.9403, 0.288267 14.0265, 0.159624 13.1128, 0.0947011 12.1943, 0.0947011 11.2703, 0.0947011 10.335, 0.159624 9.40019, 0.288267 8.46723, 0.41691 7.53427, 0.735511 6.66082, 1.24347 5.84568, 1.60656 5.25657, 2.09227 4.7979, 2.69942 4.47089, 3.30717 4.14387, 3.9576 3.98036, 4.6507 3.97976, 5.35764 3.98036, 6.01588 4.14387, 6.62664 4.47089, 7.23739 4.7979, 7.72491 5.25657, 8.088 5.84568, 8.59656 6.66082, 8.91516 7.53427, 9.0438 8.46723, 9.17244 9.40019, 9.23676 10.335, 9.23676 11.2703 Z M 7.27526 10.9337 C 7.27526 10.5303, 7.27226 10.1041, 7.26564 9.65508, 7.25963 9.20663, 7.2428 8.7672, 7.21635 8.33739, 7.1899 7.90818, 7.14241 7.50241, 7.07268 7.12069, 7.00355 6.73957, 6.91939 6.41375, 6.8202 6.14384, 6.62183 5.70862, 6.33148 5.35095, 5.94856 5.07202, 5.56563 4.79309, 5.13281 4.65363, 4.6507 4.65303, 4.18182 4.65363, 3.75802 4.7949, 3.3781 5.07683, 2.99879 5.35936, 2.70964 5.71463, 2.51126 6.14384, 2.41268 6.41375, 2.32852 6.73957, 2.25879 7.12069, 2.18966 7.50241, 2.14157 7.90818, 2.11512 8.33739, 2.08867 8.7672, 2.07244 9.20663, 2.06582 9.65508, 2.05921 10.1041, 2.0556 10.5303, 2.0556 10.9337, 2.0556 11.3833, 2.05921 11.8564, 2.06582 12.353, 2.07244 12.8501, 2.08867 13.331, 2.11512 13.7957, 2.14157 14.261, 2.18966 14.7016, 2.25879 15.1182, 2.32852 15.5354, 2.41268 15.8846, 2.51126 16.166, 2.69641 16.6349, 2.98255 17.0196, 3.36848 17.3208, 3.75441 17.6225, 4.18182 17.7728, 4.6507 17.7722, 5.13943 17.7728, 5.57705 17.6225, 5.96298 17.3208, 6.34951 17.0196, 6.63505 16.6349, 6.8202 16.166, 6.91939 15.8846, 7.00355 15.5354, 7.07268 15.1182, 7.14241 14.7016, 7.1899 14.261, 7.21635 13.7957, 7.2428 13.331, 7.25963 12.8501, 7.26564 12.353, 7.27226 11.8564, 7.27526 11.3833, 7.27526 10.9337 Z" stroke="none" fill="#000000" />
			<rect />
		</svg>
	</g>
	<path d="M -60.788 31.6677 L 60.788 -31.6678" fill="none" stroke="#000000" stroke-opacity="0.490196049" stroke-width="2.4000001" stroke-linecap="round" stroke-linejoin="round" stroke-dasharray="8.412, 5.988" transform="matrix(0.416667 0 0 0.416667 203.804 63.3254)" />
	<path d="M -21.5952 31.4744 L 21.5957 -31.4744" fill="none" stroke="#000000" stroke-opacity="0.490196049" stroke-width="2.4000001" stroke-linecap="round" stroke-linejoin="round" stroke-dasharray="8.412, 5.988" transform="matrix(0.416667 0 0 0.416667 265.874 63.2448)" />
	<path d="M 19.4401 31.4744 L -19.4399 -31.4744" fill="none" stroke="#000000" stroke-opacity="0.490196049" stroke-width="2.4000001" stroke-linecap="round" stroke-linejoin="round" stroke-dasharray="8.412, 5.988" transform="matrix(0.416667 0 0 0.416667 342.549 63.2448)" />
	<path d="M 46.1538 31.6677 L -46.1538 -31.6678" fill="none" stroke="#000000" stroke-opacity="0.490196049" stroke-width="2.4000001" stroke-linecap="round" stroke-linejoin="round" stroke-dasharray="8.412, 5.988" transform="matrix(0.416667 0 0 0.416667 399.42 63.3254)" />
	<ellipse cx="1302.8517532348633" cy="607.65137481689453" rx="7.6800003051757812" ry="7.6800003051757812" stroke="none" fill="#CC0000" transform="matrix(0.416667 0 0 0.416667 -208.405 -203.058)" />
	<ellipse cx="1412.6261672973633" cy="607.65137481689453" rx="7.6800003051757812" ry="7.6800003051757812" stroke="none" fill="#CC0000" transform="matrix(0.416667 0 0 0.416667 -208.405 -203.058)" />
	<ellipse cx="1159.8651809692383" cy="607.65137481689453" rx="7.6800003051757812" ry="7.6800003051757812" stroke="none" fill="#CC0000" transform="matrix(0.416667 0 0 0.416667 -208.405 -203.058)" />
	<ellipse cx="1050.0902786254883" cy="607.65137481689453" rx="7.6800003051757812" ry="7.6800003051757812" stroke="none" fill="#CC0000" transform="matrix(0.416667 0 0 0.416667 -208.405 -203.058)" />
</svg>
