<?xml version="1.0"?>
<svg xmlns="http://www.w3.org/2000/svg" xmlns:xlink="http://www.w3.org/1999/xlink" width="574.972534" height="66.4852448">
	<defs />
	<rect x="-238.671814" y="-49.410408" width="477.343628" height="98.820816" stroke="none" fill="#69B5F4" fill-opacity="0.392156839" transform="matrix(0.384615 0 -0 0.384615 127.781 33.2427)" />
	<g transform="matrix(1 0 -0 1 106.466 21.2347)">
		<svg width="134.752792" height="98.9361496">
			<defs />
			<path d="M 7.49916 15.6509 C 7.5464 15.6975, 7.5697 15.7466, 7.5697 15.7981, 7.5697 15.8576, 7.54333 15.9233, 7.48935 15.9944, 6.95692 16.7342, 6.27788 17.2991, 5.45224 17.688, 4.6266 18.0769, 3.79973 18.2714, 2.97041 18.2714, 2.3705 18.2714, 1.86015 18.1211, 1.43874 17.8205, 1.01794 17.5199, 0.686093 17.1501, 0.443185 16.7109, 0.173901 16.1815, 0.0322052 15.6055, 0.0187104 14.9835, 0.00521553 14.9185, -0.00153196 14.8467, -0.00153196 14.7676, -0.00153196 14.2119, 0.0726899 13.6426, 0.221133 13.0599, 0.36283 12.5238, 0.595309 12.0073, 0.918573 11.5098, 1.24245 11.013, 1.65343 10.5676, 2.15151 10.1744, 2.61647 9.79536, 3.1256 9.4997, 3.67827 9.28685, 4.23095 9.07461, 4.77688 8.96788, 5.31545 8.96727, 5.64607 8.96788, 5.95645 9.02554, 6.24598 9.13963, 6.53551 9.25434, 6.77473 9.40953, 6.96366 9.60582, 7.15259 9.80211, 7.28386 10.0377, 7.35747 10.3118, 7.38446 10.437, 7.39795 10.5707, 7.39795 10.7142, 7.39795 10.8719, 7.37771 11.0387, 7.33723 11.2148, 7.20964 11.7521, 6.94526 12.1692, 6.5441 12.4667, 6.14293 12.7648, 5.68288 12.982, 5.16394 13.1194, 4.645 13.2568, 4.096 13.339, 3.51634 13.3648, 2.93728 13.3911, 2.41834 13.404, 1.95952 13.4034, 1.81844 13.9144, 1.72029 14.4278, 1.66631 14.9443, 1.63932 15.1215, 1.62583 15.2915, 1.62583 15.4546, 1.62583 15.7822, 1.66631 16.0932, 1.74728 16.387, 1.84849 16.7477, 2.00859 17.0439, 2.22758 17.2758, 2.44656 17.5083, 2.73118 17.6242, 3.08143 17.6236, 3.79605 17.6242, 4.49349 17.4414, 5.17437 17.0746, 5.85524 16.7084, 6.4208 16.2109, 6.87227 15.5822, 6.92625 15.4914, 7.00415 15.4356, 7.10475 15.4154 L 7.15566 15.4154 C 7.23663 15.416, 7.30103 15.4387, 7.34765 15.4841 L 7.49916 15.6509 Z M 6.37725 11.1755 C 6.41773 11.0191, 6.43798 10.8786, 6.43798 10.7535, 6.43798 10.4922, 6.36069 10.2634, 6.2055 10.0665, 5.97608 9.77267, 5.63933 9.62545, 5.19461 9.62484, 4.8511 9.62545, 4.50576 9.71255, 4.15857 9.88553, 3.81138 10.0591, 3.50345 10.2959, 3.23356 10.5965, 2.93054 10.9179, 2.69254 11.2731, 2.52078 11.6619, 2.34903 12.0515, 2.21224 12.4195, 2.11103 12.7655, 2.549 12.7661, 3.0158 12.7464, 3.51143 12.7072, 4.00706 12.6679, 4.44994 12.5931, 4.84067 12.4815, 5.23203 12.3704, 5.56204 12.2085, 5.83132 11.9956, 6.10122 11.7834, 6.28278 11.5098, 6.37725 11.1755 Z" stroke="none" fill="#000000" />
			<polyline points="-7.035 -2.1105 7.035 -2.1105" fill="none" stroke="#000000" stroke-width="0.80400002" stroke-linecap="round" stroke-linejoin="round" transform="matrix(1 0 0 1 20.4352 12.008)" />
			<polyline points="-7.035 2.1105 7.035 2.1105" fill="none" stroke="#000000" stroke-width="0.80400002" stroke-linecap="round" stroke-linejoin="round" transform="matrix(1 0 0 1 20.4352 12.008)" />
			<path d="M 42.535 11.2703 C 42.535 12.1943, 42.4707 13.1128, 42.3421 14.0265, 42.2134 14.9403, 41.8948 15.7981, 41.3863 16.5988, 41.0232 17.1831, 40.5375 17.6315, 39.9297 17.9453, 39.3226 18.2597, 38.6619 18.4166, 37.9484 18.4166, 37.2619 18.4166, 36.6127 18.2597, 36.0019 17.9453, 35.3912 17.6315, 34.9036 17.1831, 34.5405 16.5988, 34.032 15.7981, 33.7134 14.9403, 33.5847 14.0265, 33.4561 13.1128, 33.3912 12.1943, 33.3912 11.2703, 33.3912 10.335, 33.4561 9.40019, 33.5847 8.46723, 33.7134 7.53427, 34.032 6.66082, 34.5405 5.84568, 34.9036 5.25657, 35.3893 4.7979, 35.9971 4.47089, 36.6048 4.14387, 37.2553 3.98036, 37.9484 3.97976, 38.6553 3.98036, 39.3142 4.14387, 39.9249 4.47089, 40.5357 4.7979, 41.0232 5.25657, 41.3863 5.84568, 41.8948 6.66082, 42.2134 7.53427, 42.3421 8.46723, 42.4707 9.40019, 42.535 10.335, 42.535 11.2703 Z M 40.5735 10.9337 C 40.5735 10.5303, 40.5705 10.1041, 40.5639 9.65508, 40.5573 9.20663, 40.5405 8.7672, 40.514 8.33739, 40.4876 7.90818, 40.4401 7.50241, 40.3704 7.12069, 40.3012 6.73957, 40.2171 6.41375, 40.1179 6.14384, 39.9201 5.70862, 39.6298 5.35095, 39.2462 5.07202, 38.8633 4.79309, 38.4305 4.65363, 37.9484 4.65303, 37.4795 4.65363, 37.0557 4.7949, 36.6758 5.07683, 36.2959 5.35936, 36.0067 5.71463, 35.8083 6.14384, 35.7098 6.41375, 35.6256 6.73957, 35.5559 7.12069, 35.4867 7.50241, 35.4386 7.90818, 35.4122 8.33739, 35.3857 8.7672, 35.3695 9.20663, 35.3629 9.65508, 35.3563 10.1041, 35.3527 10.5303, 35.3527 10.9337, 35.3527 11.3833, 35.3563 11.8564, 35.3629 12.353, 35.3695 12.8501, 35.3857 13.331, 35.4122 13.7957, 35.4386 14.261, 35.4867 14.7016, 35.5559 15.1182, 35.6256 15.5354, 35.7098 15.8846, 35.8083 16.166, 35.9935 16.6349, 36.2796 17.0196, 36.6656 17.3208, 37.0521 17.6225, 37.4795 17.7728, 37.9484 17.7722, 38.4377 17.7728, 38.8753 17.6225, 39.2613 17.3208, 39.6478 17.0196, 39.9333 16.6349, 40.1179 16.166, 40.2171 15.8846, 40.3012 15.5354, 40.3704 15.1182, 40.4401 14.7016, 40.4876 14.261, 40.514 13.7957, 40.5405 13.331, 40.5573 12.8501, 40.5639 12.353, 40.5705 11.8564, 40.5735 11.3833, 40.5735 10.9337 Z" stroke="none" fill="#000000" />
			<rect />
		</svg>
	</g>
	<path d="M 0 64.3303 L 0 -64.3314" fill="none" stroke="#000000" stroke-width="3.4666667" stroke-linecap="round" stroke-linejoin="round" transform="matrix(0.384615 0 0 0.384615 35.9841 33.2428)" />
	<path d="M 0 64.3303 L 0 -64.3314" fill="none" stroke="#000000" stroke-width="3.4666667" stroke-linecap="round" stroke-linejoin="round" transform="matrix(0.384615 0 0 0.384615 219.578 33.2428)" />
	<g transform="matrix(1 0 -0 1 387.155 22.0354)">
		<svg width="33.1395264" height="56.9999886">
			<defs />
			<path d="M 9.35195 5.05347 C 9.28268 5.32255, 9.14127 5.52923, 8.92715 5.67236, 8.7136 5.81606, 8.50292 5.88762, 8.2951 5.88705, 8.06896 5.88762, 7.88633 5.80804, 7.74778 5.64888, 7.64129 5.54583, 7.58461 5.41416, 7.57774 5.255, 7.57774 5.18859, 7.59034 5.10271, 7.61553 4.99851, 7.68537 4.76722, 7.80331 4.58402, 7.96991 4.44948, 8.13651 4.31551, 8.26075 4.24165, 8.34204 4.22906, 8.22296 4.09509, 7.98709 4.02811, 7.63442 4.02754, 7.42717 4.02811, 7.22908 4.20845, 7.04016 4.56799, 7.00237 4.62352, 6.96 4.74718, 6.91306 4.93954, 6.86611 5.13191, 6.8123 5.36721, 6.75276 5.64488, 6.69321 5.92312, 6.63138 6.21739, 6.56841 6.52883, 6.50543 6.84028, 6.44875 7.1397, 6.39837 7.42595 L 6.1625 8.58929, 7.88919 8.58929 C 8.05293 8.58987, 8.13479 8.67231, 8.13479 8.83662 L 8.13479 8.90074, 8.09701 9.06562 C 8.02773 9.2494, 7.90522 9.341, 7.72889 9.34043 L 6.01193 9.34043, 5.10622 13.9022 C 5.01805 14.3304, 4.92416 14.7867, 4.8234 15.2722, 4.72264 15.7577, 4.61271 16.2403, 4.49306 16.7195, 4.37341 17.1987, 4.23658 17.6521, 4.08257 18.0792, 3.92857 18.5069, 3.76311 18.8796, 3.58678 19.1968, 3.48029 19.3742, 3.35892 19.5529, 3.22381 19.7326, 3.08869 19.913, 2.93984 20.0733, 2.7761 20.2135, 2.61237 20.3544, 2.43489 20.4717, 2.24252 20.5662, 2.05073 20.6612, 1.84463 20.7082, 1.62479 20.7082, 1.37975 20.7082, 1.15018 20.6687, 0.936057 20.5891, 0.722511 20.5101, 0.538735 20.4002, 0.384158 20.2593, 0.230725 20.1191, 0.115651 19.9479, 0.0395067 19.7464, 0.0148888 19.6364, 0.00229359 19.5265, 0.00172102 19.4166, 0.00229359 19.313, 0.0148888 19.2002, 0.0395067 19.0777, 0.109353 18.8029, 0.254198 18.5968, 0.474042 18.4594, 0.694458 18.322, 0.911439 18.2533, 1.12441 18.2533, 1.3454 18.2533, 1.52746 18.3265, 1.67173 18.4731, 1.77879 18.5773, 1.83203 18.7084, 1.83203 18.867, 1.83203 18.9345, 1.81944 19.0198, 1.79425 19.1235, 1.72555 19.3559, 1.60589 19.542, 1.43643 19.6822, 1.26697 19.8231, 1.14102 19.8992, 1.05857 19.9112, 1.16621 20.0338, 1.38605 20.0944, 1.71868 20.0944, 1.88242 20.0944, 2.03528 20.0028, 2.17669 19.8196, 2.3181 19.6364, 2.4326 19.3863, 2.52076 19.0685, 2.74118 18.3237, 2.94099 17.4981, 3.12018 16.5913, 3.29938 15.6844, 3.47686 14.8005, 3.65319 13.9388 L 4.58695 9.34043, 3.17171 9.34043 C 3.07782 9.341, 3.00854 9.31066, 2.96446 9.24883, 2.92667 9.21276, 2.90778 9.16696, 2.90778 9.11142, 2.90778 9.07535, 2.91751 9.04158, 2.93583 9.01066 L 2.96446 8.87326 C 2.98335 8.79425, 3.02572 8.72727, 3.09156 8.67231, 3.15797 8.61735, 3.22839 8.58987, 3.30396 8.58929 L 4.73809 8.58929, 4.95508 7.44427 C 4.99286 7.20668, 5.04324 6.94447, 5.10622 6.65707, 5.16919 6.37025, 5.24419 6.08456, 5.33236 5.8006, 5.42053 5.51663, 5.52014 5.24355, 5.63006 4.98076, 5.73999 4.71856, 5.87395 4.49528, 6.03082 4.3115, 6.25753 4.04929, 6.5186 3.8346, 6.81401 3.66628, 7.10943 3.49854, 7.42087 3.41438, 7.74778 3.41381, 7.99338 3.41438, 8.22754 3.45102, 8.45082 3.5243, 8.6741 3.59758, 8.86303 3.70464, 9.01703 3.84491, 9.17104 3.98574, 9.27924 4.15349, 9.34222 4.34814, 9.3863 4.44661, 9.40806 4.5594, 9.40806 4.68707, 9.40806 4.79126, 9.38974 4.91378, 9.35195 5.05347 Z" stroke="none" fill="#000000" />
			<rect />
		</svg>
	</g>
	<path d="M -719.298 -49.4103 L 719.298 -49.4103, 719.298 49.4103, -719.298 49.4103 Z" fill="none" stroke="#000000" stroke-width="6.9333334" stroke-linecap="round" stroke-linejoin="round" transform="matrix(0.384615 0 -0 0.384615 287.487 33.2427)" />
	<g transform="matrix(1 0 -0 1 20.9049 22.0354)">
		<svg width="23.9541492" height="32.8723297">
			<defs />
			<path d="M 6.74646 10.4671 C 6.69035 10.7059, 6.56783 10.8879, 6.37891 11.0127, 6.18998 11.1381, 6.00448 11.2005, 5.82185 11.1999, 5.6335 11.2005, 5.48235 11.1335, 5.369 10.9984, 5.27511 10.9074, 5.22473 10.7854, 5.21843 10.632, 5.21843 10.5656, 5.22473 10.498, 5.23675 10.4305, 5.294 10.2175, 5.4022 10.0526, 5.56251 9.93641, 5.72281 9.82076, 5.85334 9.75321, 5.9541 9.73431, 5.91059 9.54539, 5.76288 9.37306, 5.51098 9.21734, 5.25908 9.06161, 4.95736 8.98375, 4.6047 8.98318, 4.39115 8.98375, 4.18677 9.00665, 3.99154 9.05245, 3.79689 9.09826, 3.61426 9.18814, 3.44422 9.32211, 3.28735 9.4389, 3.15854 9.58088, 3.05778 9.74863, 2.95701 9.91694, 2.88488 10.095, 2.84079 10.2839, 2.80301 10.3881, 2.78412 10.4923, 2.78412 10.5954, 2.78412 10.7671, 2.8345 10.9286, 2.93469 11.0809, 3.07953 11.3076, 3.29995 11.4478, 3.59536 11.5022 L 4.53886 11.7037 C 4.84687 11.7713, 5.12511 11.8875, 5.37358 12.0524, 5.62205 12.2173, 5.82357 12.4159, 5.97758 12.6478, 6.13215 12.8803, 6.24036 13.1425, 6.30333 13.435, 6.31593 13.5518, 6.32223 13.6617, 6.32223 13.7648, 6.32223 13.9606, 6.29417 14.1655, 6.23692 14.3785, 6.13044 14.7335, 5.973 15.0879, 5.76575 15.4417, 5.5585 15.796, 5.27854 16.1012, 4.92588 16.3571, 4.54229 16.6262, 4.14268 16.8094, 3.72761 16.9067, 3.31254 17.0046, 2.91293 17.0533, 2.52935 17.0533, 2.14577 17.0533, 1.78852 17.0018, 1.45818 16.8976, 1.12842 16.7939, 0.840446 16.6405, 0.595412 16.4355, 0.350378 16.2312, 0.183205 15.9821, 0.0950381 15.6884, 0.0389322 15.5424, 0.00744417 15.3838, 0.000574052 15.2121, 0.000574052 15.0541, 0.0229019 14.8858, 0.0664127 14.7083, 0.136259 14.434, 0.275951 14.2279, 0.486635 14.0905, 0.697318 13.9531, 0.909719 13.8844, 1.12327 13.8839, 1.34368 13.8844, 1.53261 13.9549, 1.68948 14.0945, 1.79654 14.1987, 1.85322 14.3333, 1.85951 14.4976, 1.85951 14.5835, 1.84406 14.6693, 1.81199 14.7541, 1.74329 15.0232, 1.60303 15.2264, 1.39235 15.3638, 1.18166 15.5012, 1.01048 15.5728, 0.878232 15.5785, 0.947505 15.8052, 1.14559 16.0067, 1.4725 16.1836, 1.79997 16.3611, 2.18642 16.4493, 2.63297 16.4487, 2.91007 16.4493, 3.18201 16.4207, 3.44937 16.3623, 3.71673 16.3044, 3.96062 16.1899, 4.18047 16.0182, 4.39459 15.8722, 4.5692 15.6953, 4.70431 15.4875, 4.83943 15.2802, 4.93561 15.0541, 4.99171 14.809, 5.0295 14.6997, 5.04839 14.5835, 5.04839 14.461, 5.04839 14.2297, 4.97626 14.0218, 4.83141 13.8381, 4.62416 13.5701, 4.32818 13.3898, 3.94459 13.2976 L 3.0011 13.0869 C 2.44748 12.9713, 2.03871 12.6936, 1.77421 12.2534, 1.59845 11.9791, 1.51028 11.6705, 1.51028 11.3282, 1.51028 11.1335, 1.53547 10.9349, 1.58585 10.7328, 1.66772 10.4219, 1.79825 10.1105, 1.97745 9.79901, 2.15665 9.48756, 2.39882 9.21619, 2.70396 8.98375, 3.00911 8.75189, 3.33945 8.59158, 3.69441 8.50284, 4.04994 8.41468, 4.39115 8.37002, 4.71805 8.36945, 5.03923 8.37002, 5.3398 8.41926, 5.61918 8.51659, 5.89914 8.61448, 6.13845 8.75647, 6.33654 8.94253, 6.53463 9.12917, 6.67776 9.3473, 6.76535 9.59691, 6.79054 9.73202, 6.80313 9.86599, 6.80313 9.99996, 6.80313 10.1471, 6.78424 10.3028, 6.74646 10.4671 Z" stroke="none" fill="#000000" />
			<rect />
		</svg>
	</g>
</svg>
