<?xml version="1.0"?>
<svg xmlns="http://www.w3.org/2000/svg" xmlns:xlink="http://www.w3.org/1999/xlink" width="574.972656" height="108.926514">
	<defs />
	<g transform="matrix(1 0 -0 1 18.9774 75.6605)">
		<svg width="27.1116219" height="32.8723297">
			<defs />
			<path d="M 7.22835 11.2148 C 7.16823 11.4706, 7.03697 11.6656, 6.83454 11.7994, 6.63212 11.9337, 6.43338 12.0005, 6.2377 11.9999, 6.03589 12.0005, 5.87395 11.9288, 5.7525 11.784, 5.6519 11.6865, 5.59792 11.5558, 5.59117 11.3914, 5.59117 11.3203, 5.59792 11.2479, 5.6108 11.1755, 5.67214 10.9473, 5.78808 10.7707, 5.95983 10.6462, 6.13158 10.5222, 6.27144 10.4499, 6.3794 10.4296, 6.33278 10.2272, 6.17452 10.0426, 5.90462 9.87572, 5.63473 9.70887, 5.31146 9.62545, 4.93361 9.62484, 4.70481 9.62545, 4.48582 9.64999, 4.27665 9.69906, 4.06809 9.74813, 3.87242 9.84443, 3.69024 9.98797, 3.52216 10.1131, 3.38415 10.2652, 3.27619 10.445, 3.16823 10.6253, 3.09094 10.8161, 3.04371 11.0185, 3.00323 11.1301, 2.98298 11.2418, 2.98298 11.3522, 2.98298 11.5362, 3.03696 11.7092, 3.14431 11.8723, 3.2995 12.1153, 3.53566 12.2655, 3.85218 12.3238 L 4.86306 12.5397 C 5.19308 12.6121, 5.49119 12.7366, 5.75741 12.9133, 6.02362 13.09, 6.23954 13.3028, 6.40455 13.5512, 6.57017 13.8003, 6.6861 14.0812, 6.75357 14.3947, 6.76707 14.5198, 6.77382 14.6376, 6.77382 14.748, 6.77382 14.9578, 6.74376 15.1774, 6.68242 15.4055, 6.56833 15.7859, 6.39964 16.1656, 6.17759 16.5446, 5.95554 16.9243, 5.65558 17.2513, 5.27773 17.5255, 4.86674 17.8138, 4.43859 18.0101, 3.99387 18.1143, 3.54915 18.2192, 3.121 18.2714, 2.71002 18.2714, 2.29904 18.2714, 1.91628 18.2162, 1.56234 18.1045, 1.20902 17.9935, 0.900479 17.8291, 0.637943 17.6095, 0.375406 17.3905, 0.196292 17.1237, 0.101828 16.809, 0.0417147 16.6526, 0.00797755 16.4827, 0.000616729 16.2987, 0.000616729 16.1294, 0.0245394 15.949, 0.0711581 15.7589, 0.145993 15.465, 0.295664 15.2442, 0.521396 15.097, 0.747129 14.9498, 0.974701 14.8762, 1.2035 14.8756, 1.43966 14.8762, 1.64208 14.9516, 1.81016 15.1013, 1.92486 15.2129, 1.98559 15.3571, 1.99234 15.5331, 1.99234 15.6251, 1.97578 15.7172, 1.94142 15.8079, 1.86782 16.0962, 1.71753 16.314, 1.4918 16.4612, 1.26607 16.6084, 1.08266 16.6851, 0.940964 16.6912, 1.01519 16.9341, 1.22742 17.1501, 1.57768 17.3396, 1.92854 17.5298, 2.34259 17.6242, 2.82104 17.6236, 3.11793 17.6242, 3.4093 17.5936, 3.69576 17.531, 3.98222 17.469, 4.24353 17.3464, 4.47907 17.1623, 4.70849 17.0059, 4.89558 16.8164, 5.04034 16.5937, 5.1851 16.3717, 5.28815 16.1294, 5.34827 15.8668, 5.38875 15.7497, 5.40899 15.6251, 5.40899 15.4939, 5.40899 15.2461, 5.3317 15.0234, 5.17651 14.8265, 4.95446 14.5394, 4.63733 14.3462, 4.22635 14.2474 L 3.21546 14.0217 C 2.6223 13.8978, 2.18433 13.6003, 1.90094 13.1286, 1.71263 12.8348, 1.61816 12.5042, 1.61816 12.1373, 1.61816 11.9288, 1.64515 11.7159, 1.69913 11.4994, 1.78685 11.1663, 1.9267 10.8326, 2.1187 10.4989, 2.31069 10.1652, 2.57016 9.87449, 2.89711 9.62545, 3.22405 9.37702, 3.57798 9.20527, 3.95829 9.11019, 4.33922 9.01573, 4.70481 8.96788, 5.05506 8.96727, 5.39918 8.96788, 5.72122 9.02063, 6.02056 9.12491, 6.32051 9.2298, 6.57691 9.38193, 6.78915 9.58128, 7.00139 9.78125, 7.15474 10.015, 7.24859 10.2824, 7.27558 10.4272, 7.28907 10.5707, 7.28907 10.7142, 7.28907 10.8719, 7.26883 11.0387, 7.22835 11.2148 Z" stroke="none" fill="#000000" />
			<rect />
		</svg>
	</g>
	<g transform="matrix(1 0 -0 1 107.649 75.6605)">
		<svg width="27.1116219" height="32.8723297">
			<defs />
			<path d="M 7.49916 15.6509 C 7.5464 15.6975, 7.5697 15.7466, 7.5697 15.7981, 7.5697 15.8576, 7.54333 15.9233, 7.48935 15.9944, 6.95692 16.7342, 6.27788 17.2991, 5.45224 17.688, 4.6266 18.0769, 3.79973 18.2714, 2.97041 18.2714, 2.3705 18.2714, 1.86015 18.1211, 1.43874 17.8205, 1.01794 17.5199, 0.686093 17.1501, 0.443185 16.7109, 0.173901 16.1815, 0.0322052 15.6055, 0.0187104 14.9835, 0.00521553 14.9185, -0.00153196 14.8467, -0.00153196 14.7676, -0.00153196 14.2119, 0.0726899 13.6426, 0.221133 13.0599, 0.36283 12.5238, 0.595309 12.0073, 0.918573 11.5098, 1.24245 11.013, 1.65343 10.5676, 2.15151 10.1744, 2.61647 9.79536, 3.1256 9.4997, 3.67827 9.28685, 4.23095 9.07461, 4.77688 8.96788, 5.31545 8.96727, 5.64607 8.96788, 5.95645 9.02554, 6.24598 9.13963, 6.53551 9.25434, 6.77473 9.40953, 6.96366 9.60582, 7.15259 9.80211, 7.28386 10.0377, 7.35747 10.3118, 7.38446 10.437, 7.39795 10.5707, 7.39795 10.7142, 7.39795 10.8719, 7.37771 11.0387, 7.33723 11.2148, 7.20964 11.7521, 6.94526 12.1692, 6.5441 12.4667, 6.14293 12.7648, 5.68288 12.982, 5.16394 13.1194, 4.645 13.2568, 4.096 13.339, 3.51634 13.3648, 2.93728 13.3911, 2.41834 13.404, 1.95952 13.4034, 1.81844 13.9144, 1.72029 14.4278, 1.66631 14.9443, 1.63932 15.1215, 1.62583 15.2915, 1.62583 15.4546, 1.62583 15.7822, 1.66631 16.0932, 1.74728 16.387, 1.84849 16.7477, 2.00859 17.0439, 2.22758 17.2758, 2.44656 17.5083, 2.73118 17.6242, 3.08143 17.6236, 3.79605 17.6242, 4.49349 17.4414, 5.17437 17.0746, 5.85524 16.7084, 6.4208 16.2109, 6.87227 15.5822, 6.92625 15.4914, 7.00415 15.4356, 7.10475 15.4154 L 7.15566 15.4154 C 7.23663 15.416, 7.30103 15.4387, 7.34765 15.4841 L 7.49916 15.6509 Z M 6.37725 11.1755 C 6.41773 11.0191, 6.43798 10.8786, 6.43798 10.7535, 6.43798 10.4922, 6.36069 10.2634, 6.2055 10.0665, 5.97608 9.77267, 5.63933 9.62545, 5.19461 9.62484, 4.8511 9.62545, 4.50576 9.71255, 4.15857 9.88553, 3.81138 10.0591, 3.50345 10.2959, 3.23356 10.5965, 2.93054 10.9179, 2.69254 11.2731, 2.52078 11.6619, 2.34903 12.0515, 2.21224 12.4195, 2.11103 12.7655, 2.549 12.7661, 3.0158 12.7464, 3.51143 12.7072, 4.00706 12.6679, 4.44994 12.5931, 4.84067 12.4815, 5.23203 12.3704, 5.56204 12.2085, 5.83132 11.9956, 6.10122 11.7834, 6.28278 11.5098, 6.37725 11.1755 Z" stroke="none" fill="#000000" />
			<rect />
		</svg>
	</g>
	<g transform="matrix(1 0 -0 1 357.898 75.6605)">
		<svg width="36.0099602" height="63.0318985">
			<defs />
			<path d="M 10.0199 5.41444 C 9.94572 5.70273, 9.79421 5.92417, 9.5648 6.07752, 9.336 6.23149, 9.11027 6.30816, 8.8876 6.30755, 8.64531 6.30816, 8.44963 6.2229, 8.30119 6.05237, 8.1871 5.94196, 8.12637 5.80088, 8.11901 5.63035, 8.11901 5.5592, 8.1325 5.46719, 8.15949 5.35555, 8.23433 5.10773, 8.36069 4.91144, 8.53919 4.76729, 8.71769 4.62376, 8.8508 4.54463, 8.9379 4.53113, 8.81031 4.3876, 8.55759 4.31583, 8.17974 4.31522, 7.95768 4.31583, 7.74545 4.50905, 7.54302 4.89427, 7.50254 4.95377, 7.45715 5.08626, 7.40685 5.29237, 7.35655 5.49847, 7.29889 5.75058, 7.23509 6.04808, 7.1713 6.3462, 7.10505 6.66148, 7.03758 6.99518, 6.9701 7.32887, 6.90938 7.64968, 6.8554 7.95638 L 6.60268 9.20281, 8.4527 9.20281 C 8.62813 9.20343, 8.71585 9.29176, 8.71585 9.4678 L 8.71585 9.53651, 8.67536 9.71317 C 8.60114 9.91007, 8.46987 10.0082, 8.28095 10.0076 L 6.44135 10.0076, 5.47095 14.8952 C 5.37648 15.354, 5.27588 15.8429, 5.16793 16.3631, 5.05997 16.8832, 4.94219 17.4003, 4.81399 17.9138, 4.68579 18.4272, 4.53919 18.913, 4.37418 19.3706, 4.20918 19.8288, 4.0319 20.2281, 3.84297 20.568, 3.72888 20.7581, 3.59884 20.9495, 3.45408 21.1421, 3.30931 21.3353, 3.14983 21.5071, 2.9744 21.6574, 2.79896 21.8083, 2.60881 21.934, 2.4027 22.0352, 2.19721 22.137, 1.97639 22.1873, 1.74084 22.1873, 1.4783 22.1873, 1.23233 22.145, 1.00292 22.0597, 0.774117 21.9751, 0.577215 21.8573, 0.411596 21.7064, 0.247204 21.5561, 0.12391 21.3727, 0.042327 21.1568, 0.0159507 21.039, 0.00245583 20.9213, 0.0018425 20.8035, 0.00245583 20.6925, 0.0159507 20.5716, 0.042327 20.4404, 0.117162 20.1459, 0.272353 19.9251, 0.5079 19.7779, 0.744061 19.6307, 0.97654 19.5571, 1.20473 19.5571, 1.4415 19.5571, 1.63656 19.6356, 1.79114 19.7926, 1.90585 19.9042, 1.96289 20.0447, 1.96289 20.2146, 1.96289 20.287, 1.9494 20.3784, 1.92241 20.4894, 1.8488 20.7385, 1.7206 20.9378, 1.53903 21.0881, 1.35746 21.239, 1.22252 21.3206, 1.13418 21.3335, 1.2495 21.4647, 1.48505 21.5298, 1.84144 21.5298, 2.01687 21.5298, 2.18065 21.4316, 2.33216 21.2353, 2.48367 21.039, 2.60635 20.771, 2.70082 20.4305, 2.93698 19.6325, 3.15106 18.748, 3.34305 17.7764, 3.53505 16.8047, 3.7252 15.8576, 3.91413 14.9345 L 4.91459 10.0076, 3.39826 10.0076 C 3.29766 10.0082, 3.22344 9.9757, 3.1762 9.90946, 3.13572 9.87081, 3.11548 9.82174, 3.11548 9.76224, 3.11548 9.72359, 3.12591 9.6874, 3.14553 9.65428 L 3.1762 9.50706 C 3.19645 9.42241, 3.24184 9.35064, 3.31238 9.29176, 3.38353 9.23287, 3.45898 9.20343, 3.53995 9.20281 L 5.07653 9.20281, 5.30901 7.97601 C 5.34949 7.72145, 5.40347 7.44051, 5.47095 7.13258, 5.53842 6.82526, 5.61878 6.51917, 5.71324 6.21493, 5.8077 5.91068, 5.91444 5.61808, 6.03221 5.33653, 6.14998 5.05559, 6.29352 4.81637, 6.46159 4.61946, 6.7045 4.33853, 6.98421 4.1085, 7.30073 3.92816, 7.61724 3.74843, 7.95094 3.65826, 8.30119 3.65765, 8.56434 3.65826, 8.81522 3.69752, 9.05445 3.77604, 9.29368 3.85455, 9.4961 3.96926, 9.6611 4.11954, 9.82611 4.27044, 9.94204 4.45016, 10.0095 4.65872, 10.0567 4.76423, 10.0801 4.88507, 10.0801 5.02186, 10.0801 5.1335, 10.0604 5.26476, 10.0199 5.41444 Z" stroke="none" fill="#000000" />
			<rect />
		</svg>
	</g>
	<path d="M 0 64.33 L 0 -64.3309" fill="none" stroke="#000000" stroke-width="3.4666667" stroke-linecap="round" stroke-linejoin="round" transform="matrix(0.384615 0 0 0.384615 35.9838 51.9786)" />
	<path d="M 0 49.4098 L 0 -49.4107" fill="none" stroke="#C1C1C1" stroke-width="3.4666667" stroke-linecap="round" stroke-linejoin="round" transform="matrix(0.384615 0 0 0.384615 61.1337 51.9786)" />
	<path d="M 0 49.4098 L 0 -49.4107" fill="none" stroke="#C1C1C1" stroke-width="3.4666667" stroke-linecap="round" stroke-linejoin="round" transform="matrix(0.384615 0 0 0.384615 86.2841 51.9786)" />
	<path d="M 0 49.4098 L 0 -49.4107" fill="none" stroke="#C1C1C1" stroke-width="3.4666667" stroke-linecap="round" stroke-linejoin="round" transform="matrix(0.384615 0 0 0.384615 136.585 51.9786)" />
	<path d="M 0 49.4098 L 0 -49.4107" fill="none" stroke="#C1C1C1" stroke-width="3.4666667" stroke-linecap="round" stroke-linejoin="round" transform="matrix(0.384615 0 0 0.384615 161.735 51.9786)" />
	<path d="M 0 64.33 L 0 -64.3309" fill="none" stroke="#000000" stroke-width="3.4666667" stroke-linecap="round" stroke-linejoin="round" transform="matrix(0.384615 0 0 0.384615 186.885 51.9786)" />
	<path d="M 0 49.4098 L 0 -49.4107" fill="none" stroke="#C1C1C1" stroke-width="3.4666667" stroke-linecap="round" stroke-linejoin="round" transform="matrix(0.384615 0 0 0.384615 212.036 51.9786)" />
	<path d="M 0 49.4098 L 0 -49.4107" fill="none" stroke="#C1C1C1" stroke-width="3.4666667" stroke-linecap="round" stroke-linejoin="round" transform="matrix(0.384615 0 0 0.384615 237.186 51.9786)" />
	<path d="M 0 49.4098 L 0 -49.4107" fill="none" stroke="#C1C1C1" stroke-width="3.4666667" stroke-linecap="round" stroke-linejoin="round" transform="matrix(0.384615 0 0 0.384615 262.336 51.9786)" />
	<path d="M 0 49.4098 L 0 -49.4107" fill="none" stroke="#C1C1C1" stroke-width="3.4666667" stroke-linecap="round" stroke-linejoin="round" transform="matrix(0.384615 0 0 0.384615 287.486 51.9786)" />
	<path d="M 0 49.4098 L 0 -49.4107" fill="none" stroke="#C1C1C1" stroke-width="3.4666667" stroke-linecap="round" stroke-linejoin="round" transform="matrix(0.384615 0 0 0.384615 312.636 51.9786)" />
	<path d="M 0 49.4098 L 0 -49.4107" fill="none" stroke="#C1C1C1" stroke-width="3.4666667" stroke-linecap="round" stroke-linejoin="round" transform="matrix(0.384615 0 0 0.384615 337.787 51.9786)" />
	<path d="M 0 49.4098 L 0 -49.4107" fill="none" stroke="#C1C1C1" stroke-width="3.4666667" stroke-linecap="round" stroke-linejoin="round" transform="matrix(0.384615 0 0 0.384615 388.087 51.9786)" />
	<path d="M 0 49.4098 L 0 -49.4107" fill="none" stroke="#C1C1C1" stroke-width="3.4666667" stroke-linecap="round" stroke-linejoin="round" transform="matrix(0.384615 0 0 0.384615 413.238 51.9786)" />
	<path d="M 0 49.4098 L 0 -49.4107" fill="none" stroke="#C1C1C1" stroke-width="3.4666667" stroke-linecap="round" stroke-linejoin="round" transform="matrix(0.384615 0 0 0.384615 438.387 51.9786)" />
	<path d="M 0 49.4098 L 0 -49.4107" fill="none" stroke="#C1C1C1" stroke-width="3.4666667" stroke-linecap="round" stroke-linejoin="round" transform="matrix(0.384615 0 0 0.384615 463.539 51.9786)" />
	<path d="M 0 49.4098 L 0 -49.4107" fill="none" stroke="#C1C1C1" stroke-width="3.4666667" stroke-linecap="round" stroke-linejoin="round" transform="matrix(0.384615 0 0 0.384615 488.688 51.9786)" />
	<path d="M 0 49.4098 L 0 -49.4107" fill="none" stroke="#C1C1C1" stroke-width="3.4666667" stroke-linecap="round" stroke-linejoin="round" transform="matrix(0.384615 0 0 0.384615 513.84 51.9786)" />
	<path d="M 0 49.4098 L 0 -49.4107" fill="none" stroke="#000000" stroke-width="3.4666667" stroke-linecap="round" stroke-linejoin="round" transform="matrix(0.384615 0 0 0.384615 538.989 51.9786)" />
	<g transform="matrix(1 0 -0 1 104.868 40.7712)">
		<svg width="47.7787285" height="12.1914883">
			<defs />
			<ellipse cx="-0" cy="-0" rx="1.1556160449981689" ry="1.1556160449981689" stroke="none" fill="#C1C1C1" transform="matrix(1 0 0 1 6.566 11.2074)" />
			<ellipse cx="-0" cy="-0" rx="1.1556160449981689" ry="1.1556160449981689" stroke="none" fill="#C1C1C1" transform="matrix(1 0 0 1 0.6566 11.2074)" />
			<ellipse cx="-0" cy="-0" rx="1.1556160449981689" ry="1.1556160449981689" stroke="none" fill="#C1C1C1" transform="matrix(1 0 0 1 12.4754 11.2074)" />
			<rect />
		</svg>
	</g>
	<g transform="matrix(1 0 -0 1 356.371 40.7712)">
		<svg width="47.7787285" height="12.1914883">
			<defs />
			<ellipse cx="-0" cy="-0" rx="1.1556160449981689" ry="1.1556160449981689" stroke="none" fill="#C1C1C1" transform="matrix(1 0 0 1 6.566 11.2074)" />
			<ellipse cx="-0" cy="-0" rx="1.1556160449981689" ry="1.1556160449981689" stroke="none" fill="#C1C1C1" transform="matrix(1 0 0 1 0.6566 11.2074)" />
			<ellipse cx="-0" cy="-0" rx="1.1556160449981689" ry="1.1556160449981689" stroke="none" fill="#C1C1C1" transform="matrix(1 0 0 1 12.4754 11.2074)" />
			<rect />
		</svg>
	</g>
	<path d="M -719.298 -49.4102 L 719.298 -49.4102, 719.298 49.4102, -719.298 49.4102 Z" fill="none" stroke="#000000" stroke-width="6.9333334" stroke-linecap="round" stroke-linejoin="round" transform="matrix(0.384615 0 -0 0.384615 287.487 51.9786)" />
	<g transform="matrix(1 0 -0 1 14.5039 8.49998)">
		<svg width="50.936203" height="39.1914787">
			<defs />
			<path d="M 7.29266 10.9399 C 7.29266 11.4737, 7.21379 11.9522, 7.05509 12.3754, 6.89687 12.7986, 6.62756 13.2156, 6.24668 13.6253, 5.87157 14.0105, 5.48733 14.2913, 5.09346 14.4678, 4.70008 14.6448, 4.22591 14.7333, 3.67094 14.7333, 3.10587 14.7333, 2.58793 14.5938, 2.1176 14.3139, 1.64728 14.035, 1.27217 13.6565, 0.99228 13.179, 0.596011 12.5279, 0.344015 11.8406, 0.23533 11.1173, 0.127126 10.3941, 0.0727832 9.67318, 0.0727832 8.9547, 0.0727832 8.23719, 0.17714 7.53074, 0.385854 6.83534, 0.594569 6.14043, 0.9288 5.49794, 1.38855 4.90738, 1.77424 4.40531, 2.24456 3.99221, 2.79953 3.66904, 3.3545 3.34587, 3.96429 3.18429, 4.62987 3.18381, 5.26948 3.18429, 5.8004 3.34876, 6.22312 3.67674, 6.64584 4.0052, 6.85695 4.47697, 6.85695 5.09205, 6.85695 5.37963, 6.76991 5.59268, 6.59534 5.73118, 6.42125 5.86968, 6.22023 5.93893, 5.99324 5.93845, 5.77683 5.93893, 5.58255 5.86968, 5.41086 5.73118, 5.23918 5.59268, 5.1531 5.37963, 5.1531 5.09205, 5.1531 4.78475, 5.26659 4.55391, 5.49358 4.39954, 5.6417 4.30769, 5.80857 4.26152, 5.99324 4.26104, 6.05143 4.26152, 6.05913 4.25912, 6.01681 4.25335, 5.94275 4.14081, 5.78068 4.02972, 5.52965 3.91911, 5.27861 3.80899, 4.97901 3.75368, 4.62987 3.7532, 4.15954 3.75368, 3.73682 3.89363, 3.36171 4.17303, 2.98661 4.45292, 2.66969 4.80254, 2.41096 5.22286, 2.10462 5.75666, 1.91947 6.33808, 1.85599 6.96615, 1.79251 7.5947, 1.75548 8.0958, 1.7449 8.46995, 1.84012 8.24969, 2.06903 7.97942, 2.43068 7.65866, 2.7928 7.33837, 3.25111 7.17775, 3.80559 7.17727, 4.33411 7.17775, 4.79001 7.26624, 5.17281 7.44321, 5.5561 7.62018, 5.92447 7.89574, 6.27842 8.26989, 6.64872 8.68059, 6.91034 9.09369, 7.06326 9.50919, 7.21619 9.9247, 7.29266 10.4018, 7.29266 10.9399 Z M 5.60467 10.9399 C 5.60467 10.4479, 5.5888 10.0055, 5.55706 9.61307, 5.52532 9.22065, 5.42 8.87584, 5.24014 8.57767, 5.05547 8.27566, 4.84916 8.05252, 4.62217 7.90873, 4.39519 7.76542, 4.1177 7.69328, 3.78972 7.6928, 3.43577 7.69328, 3.13328 7.78321, 2.88225 7.96259, 2.63121 8.14245, 2.41865 8.37809, 2.24456 8.67049, 2.07048 8.96288, 1.94592 9.30384, 1.87186 9.69338, 1.81896 9.96076, 1.79251 10.2455, 1.79251 10.5475, 1.79251 10.6658, 1.7978 10.7918, 1.80838 10.9245 L 1.80838 10.9861 C 1.82954 11.3713, 1.85888 11.7305, 1.89591 12.0638, 1.93294 12.3975, 1.99113 12.6692, 2.06999 12.8789, 2.21811 13.2487, 2.43597 13.5488, 2.72403 13.7797, 3.01209 14.0105, 3.32757 14.1259, 3.67094 14.1254, 4.02489 14.1259, 4.32353 14.0581, 4.56639 13.922, 4.80973 13.7864, 5.02373 13.5666, 5.2084 13.2636, 5.39884 12.9616, 5.51234 12.6192, 5.54937 12.2369, 5.5864 11.8551, 5.60467 11.4227, 5.60467 10.9399 Z" stroke="none" fill="#000000" />
			<path d="M 15.7716 11.4708 C 15.7716 11.9123, 15.674 12.336, 15.4787 12.7409, 15.2835 13.1463, 15.0219 13.4926, 14.6939 13.7792, 14.3241 14.1028, 13.9158 14.3423, 13.4695 14.4986, 13.0232 14.6554, 12.5567 14.7333, 12.0705 14.7333, 11.6319 14.7333, 11.2044 14.6717, 10.787 14.5486, 10.3696 14.4255, 9.99349 14.249, 9.65781 14.0182, 9.32214 13.7874, 9.05427 13.5041, 8.85326 13.1679, 8.65224 12.8323, 8.55173 12.4461, 8.55173 12.0094, 8.55173 11.6815, 8.66137 11.4367, 8.88067 11.2751, 9.09996 11.1135, 9.33128 11.0327, 9.57414 11.0322, 9.82806 11.0327, 10.0642 11.1135, 10.2835 11.2751, 10.5028 11.4367, 10.6124 11.6815, 10.6124 12.0094, 10.6124 12.2047, 10.5744 12.3677, 10.4975 12.4985, 10.421 12.6293, 10.3234 12.7385, 10.2041 12.8255, 10.0853 12.9131, 9.94925 12.9664, 9.79584 12.9866, 9.71697 13.0078, 9.64291 13.0179, 9.57414 13.0174, 9.50585 13.0179, 9.49527 13.0232, 9.5424 13.0328, 9.70639 13.3204, 10.0286 13.5748, 10.5095 13.795, 10.9904 14.0158, 11.5108 14.1259, 12.0705 14.1254, 12.335 14.1259, 12.5817 14.0605, 12.8116 13.9297, 13.0415 13.7989, 13.2334 13.6234, 13.3863 13.4021, 13.5767 13.1155, 13.7061 12.8077, 13.7749 12.4793, 13.8436 12.1513, 13.8778 11.8151, 13.8778 11.4708, 13.8778 11.1173, 13.8436 10.7778, 13.7749 10.4518, 13.7061 10.1262, 13.5767 9.82467, 13.3863 9.54718, 13.2276 9.32212, 13.0348 9.13985, 12.8078 9.00135, 12.5808 8.86285, 12.335 8.7936, 12.0705 8.79312 L 10.9216 8.79312 C 10.7687 8.7936, 10.6865 8.72194, 10.6759 8.57767 L 10.6759 8.49303 C 10.6759 8.43196, 10.6947 8.38338, 10.7312 8.34684, 10.7788 8.30115, 10.8394 8.27807, 10.9135 8.27759, 11.0669 8.25739, 11.2256 8.24729, 11.3891 8.24681, 11.5478 8.24729, 11.7036 8.23719, 11.8565 8.21603, 12.1422 8.19583, 12.3903 8.10782, 12.6019 7.95105, 12.8135 7.79475, 12.9905 7.5947, 13.1329 7.35088, 13.2752 7.10754, 13.3834 6.82669, 13.4575 6.50832, 13.5315 6.19044, 13.5686 5.86439, 13.5686 5.53064, 13.5686 5.28489, 13.5421 5.05165, 13.4892 4.83092, 13.4363 4.61066, 13.3387 4.41782, 13.1959 4.25335, 12.9001 3.91527, 12.525 3.74839, 12.0705 3.7532, 11.5848 3.75368, 11.1395 3.84505, 10.7355 4.02684, 10.3316 4.2091, 10.0603 4.40531, 9.9228 4.61499, 9.88625 4.62076, 9.90452 4.62316, 9.97858 4.62268, 10.169 4.62316, 10.3484 4.67943, 10.5172 4.79196, 10.7711 4.94104, 10.8976 5.19256, 10.8976 5.54603, 10.8976 5.84419, 10.8014 6.06877, 10.6086 6.21978, 10.4157 6.37127, 10.2003 6.44677, 9.96271 6.44629, 9.72995 6.44677, 9.5121 6.37271, 9.30868 6.22363, 9.10525 6.07503, 9.0033 5.849, 9.0033 5.54603, 9.0033 5.17188, 9.09323 4.8415, 9.27309 4.55391, 9.45295 4.26681, 9.68378 4.02059, 9.96656 3.81524, 10.2493 3.61037, 10.5754 3.4536, 10.9452 3.34587, 11.3155 3.23815, 11.6906 3.18429, 12.0705 3.18381, 12.4774 3.18429, 12.8712 3.23815, 13.2516 3.34587, 13.632 3.4536, 13.9913 3.62047, 14.3294 3.84554, 14.6044 4.04078, 14.8353 4.28076, 15.0228 4.56545, 15.2104 4.85015, 15.3042 5.17188, 15.3042 5.53064, 15.3042 5.89036, 15.2397 6.22892, 15.1104 6.5468, 14.981 6.86516, 14.8093 7.15226, 14.5953 7.40858, 14.3813 7.66539, 14.1264 7.89094, 13.8302 8.0857, 13.5344 8.28095, 13.3122 8.40358, 13.1641 8.45456, 13.2911 8.47043, 13.508 8.54641, 13.8143 8.68203, 14.1211 8.81813, 14.414 8.99895, 14.6939 9.22401, 15.0219 9.50679, 15.2835 9.8439, 15.4787 10.2363, 15.674 10.6287, 15.7716 11.0404, 15.7716 11.4708 Z" stroke="none" fill="#000000" />
			<rect />
		</svg>
	</g>
	<g transform="matrix(1 0 -0 1 40.6063 8.49998)">
		<svg width="50.936203" height="39.1914787">
			<defs />
			<path d="M 7.29266 10.9399 C 7.29266 11.4737, 7.21379 11.9522, 7.05509 12.3754, 6.89687 12.7986, 6.62756 13.2156, 6.24668 13.6253, 5.87157 14.0105, 5.48733 14.2913, 5.09346 14.4678, 4.70008 14.6448, 4.22591 14.7333, 3.67094 14.7333, 3.10587 14.7333, 2.58793 14.5938, 2.1176 14.3139, 1.64728 14.035, 1.27217 13.6565, 0.99228 13.179, 0.596011 12.5279, 0.344015 11.8406, 0.23533 11.1173, 0.127126 10.3941, 0.0727832 9.67318, 0.0727832 8.9547, 0.0727832 8.23719, 0.17714 7.53074, 0.385854 6.83534, 0.594569 6.14043, 0.9288 5.49794, 1.38855 4.90738, 1.77424 4.40531, 2.24456 3.99221, 2.79953 3.66904, 3.3545 3.34587, 3.96429 3.18429, 4.62987 3.18381, 5.26948 3.18429, 5.8004 3.34876, 6.22312 3.67674, 6.64584 4.0052, 6.85695 4.47697, 6.85695 5.09205, 6.85695 5.37963, 6.76991 5.59268, 6.59534 5.73118, 6.42125 5.86968, 6.22023 5.93893, 5.99324 5.93845, 5.77683 5.93893, 5.58255 5.86968, 5.41086 5.73118, 5.23918 5.59268, 5.1531 5.37963, 5.1531 5.09205, 5.1531 4.78475, 5.26659 4.55391, 5.49358 4.39954, 5.6417 4.30769, 5.80857 4.26152, 5.99324 4.26104, 6.05143 4.26152, 6.05913 4.25912, 6.01681 4.25335, 5.94275 4.14081, 5.78068 4.02972, 5.52965 3.91911, 5.27861 3.80899, 4.97901 3.75368, 4.62987 3.7532, 4.15954 3.75368, 3.73682 3.89363, 3.36171 4.17303, 2.98661 4.45292, 2.66969 4.80254, 2.41096 5.22286, 2.10462 5.75666, 1.91947 6.33808, 1.85599 6.96615, 1.79251 7.5947, 1.75548 8.0958, 1.7449 8.46995, 1.84012 8.24969, 2.06903 7.97942, 2.43068 7.65866, 2.7928 7.33837, 3.25111 7.17775, 3.80559 7.17727, 4.33411 7.17775, 4.79001 7.26624, 5.17281 7.44321, 5.5561 7.62018, 5.92447 7.89574, 6.27842 8.26989, 6.64872 8.68059, 6.91034 9.09369, 7.06326 9.50919, 7.21619 9.9247, 7.29266 10.4018, 7.29266 10.9399 Z M 5.60467 10.9399 C 5.60467 10.4479, 5.5888 10.0055, 5.55706 9.61307, 5.52532 9.22065, 5.42 8.87584, 5.24014 8.57767, 5.05547 8.27566, 4.84916 8.05252, 4.62217 7.90873, 4.39519 7.76542, 4.1177 7.69328, 3.78972 7.6928, 3.43577 7.69328, 3.13328 7.78321, 2.88225 7.96259, 2.63121 8.14245, 2.41865 8.37809, 2.24456 8.67049, 2.07048 8.96288, 1.94592 9.30384, 1.87186 9.69338, 1.81896 9.96076, 1.79251 10.2455, 1.79251 10.5475, 1.79251 10.6658, 1.7978 10.7918, 1.80838 10.9245 L 1.80838 10.9861 C 1.82954 11.3713, 1.85888 11.7305, 1.89591 12.0638, 1.93294 12.3975, 1.99113 12.6692, 2.06999 12.8789, 2.21811 13.2487, 2.43597 13.5488, 2.72403 13.7797, 3.01209 14.0105, 3.32757 14.1259, 3.67094 14.1254, 4.02489 14.1259, 4.32353 14.0581, 4.56639 13.922, 4.80973 13.7864, 5.02373 13.5666, 5.2084 13.2636, 5.39884 12.9616, 5.51234 12.6192, 5.54937 12.2369, 5.5864 11.8551, 5.60467 11.4227, 5.60467 10.9399 Z" stroke="none" fill="#000000" />
			<path d="M 15.1296 14.3717 L 8.67869 14.3717, 8.67869 13.9485 C 8.67869 13.9182, 8.69456 13.872, 8.7263 13.81 L 11.3179 10.9938 C 11.6242 10.6557, 11.9344 10.3094, 12.2489 9.95547, 12.5635 9.60153, 12.8453 9.23988, 13.0934 8.87055, 13.3416 8.50121, 13.5397 8.12033, 13.6878 7.72791, 13.8359 7.33549, 13.9095 6.92383, 13.9095 6.49245, 13.9095 6.12889, 13.8619 5.78889, 13.7667 5.47341, 13.6715 5.15793, 13.5344 4.88093, 13.3546 4.6424, 13.1752 4.40387, 12.9506 4.21151, 12.6813 4.06531, 12.412 3.91911, 12.0999 3.84602, 11.7459 3.84554, 11.2179 3.84602, 10.7514 4.00375, 10.347 4.31923, 9.94299 4.63471, 9.67465 4.9824, 9.5424 5.36136, 9.51643 5.37194, 9.55875 5.37723, 9.66936 5.37675 L 9.80401 5.37675 C 9.96271 5.4133, 10.0998 5.4686, 10.2161 5.54266, 10.3325 5.6172, 10.4302 5.71964, 10.5095 5.85044, 10.5889 5.98125, 10.6283 6.13899, 10.6283 6.32317, 10.6283 6.63144, 10.5283 6.86756, 10.3272 7.03155, 10.1262 7.19602, 9.90164 7.27778, 9.65349 7.2773, 9.41592 7.27778, 9.19374 7.19602, 8.98791 7.03155, 8.78208 6.86756, 8.67869 6.63144, 8.67869 6.32317, 8.67869 5.89276, 8.76333 5.48495, 8.9326 5.10022, 9.10188 4.7155, 9.33128 4.38223, 9.62175 4.09994, 9.91222 3.81812, 10.2556 3.59498, 10.6519 3.43051, 11.0481 3.26652, 11.4684 3.18429, 11.9123 3.18381, 12.462 3.18429, 12.9655 3.26508, 13.4224 3.42666, 13.8792 3.58825, 14.2688 3.82053, 14.591 4.12302, 14.9132 4.42599, 15.1657 4.77609, 15.3479 5.17332, 15.5302 5.57103, 15.6211 6.01058, 15.6211 6.49245, 15.6211 7.02626, 15.4999 7.51775, 15.2565 7.96644, 15.0137 8.41561, 14.7126 8.82726, 14.3534 9.20141, 13.9942 9.57604, 13.6123 9.92854, 13.2079 10.2594, 12.8039 10.5903, 12.4379 10.912, 12.1104 11.2246 L 10.2873 12.9405, 12.6731 12.9405 C 13.0059 12.941, 13.3166 12.9385, 13.6041 12.9333, 13.8922 12.9284, 14.1365 12.9179, 14.3375 12.9025, 14.5386 12.8871, 14.6415 12.877, 14.6463 12.8712, 14.6886 12.8356, 14.7285 12.764, 14.7655 12.6563, 14.8026 12.5485, 14.8367 12.4216, 14.8685 12.2754, 14.9002 12.1292, 14.9319 11.9806, 14.9637 11.8291, 14.9954 11.6781, 15.0243 11.5122, 15.0507 11.3323 L 15.6369 11.3323 Z" stroke="none" fill="#000000" />
			<rect />
		</svg>
	</g>
	<g transform="matrix(1 0 -0 1 165.383 8.49998)">
		<svg width="50.936203" height="39.1914787">
			<defs />
			<path d="M 7.01455 10.9707 C 7.01455 11.4737, 6.91981 11.9536, 6.72937 12.41, 6.53941 12.8669, 6.26481 13.2771, 5.90509 13.6407, 5.54056 13.9951, 5.12987 14.2659, 4.673 14.4524, 4.21614 14.64, 3.73091 14.7333, 3.21826 14.7333, 2.77486 14.7333, 2.36128 14.6501, 1.978 14.4832, 1.59519 14.3168, 1.2624 14.0889, 0.97963 13.7989, 0.696856 13.5094, 0.475157 13.1732, 0.314053 12.7909, 0.152949 12.4091, 0.0721561 12.0022, 0.0721561 11.5708, 0.0721561 11.2736, 0.171223 11.0495, 0.369357 10.8981, 0.567491 10.747, 0.772358 10.6711, 0.983477 10.6706, 1.20566 10.6711, 1.41437 10.7456, 1.60962 10.8942, 1.80535 11.0433, 1.90297 11.2688, 1.90297 11.5708, 1.90297 11.756, 1.8621 11.9113, 1.78034 12.0368, 1.69859 12.1628, 1.59808 12.26, 1.47881 12.3292, 1.36003 12.3985, 1.22682 12.4384, 1.0787 12.448 L 0.983477 12.448, 0.824777 12.448 C 0.946447 12.8794, 1.22922 13.267, 1.6731 13.6104, 2.11698 13.9542, 2.63203 14.1259, 3.21826 14.1254, 3.52508 14.1259, 3.82372 14.0466, 4.11419 13.8874, 4.40466 13.7287, 4.64271 13.518, 4.82738 13.2559, 5.04378 12.9434, 5.18277 12.5884, 5.24336 12.1907, 5.30396 11.7935, 5.33425 11.3867, 5.33425 10.9707, 5.33425 10.5504, 5.32127 10.1469, 5.29482 9.75926, 5.26885 9.37213, 5.16016 9.00664, 4.96972 8.66231, 4.83267 8.41128, 4.65713 8.20256, 4.44313 8.03569, 4.22913 7.86929, 3.99011 7.78562, 3.72562 7.78514, 3.22355 7.78562, 2.78784 7.88709, 2.41803 8.08955, 2.04821 8.29249, 1.74956 8.58344, 1.52258 8.9624, 1.47497 9.04992, 1.3985 9.09369, 1.2927 9.09321 L 1.22922 9.09321 C 1.04455 9.09369, 0.951737 9.00905, 0.951737 8.83929 L 0.951737 3.43773 C 0.951737 3.30499, 1.02868 3.22036, 1.18161 3.18381, 1.20806 3.18429, 1.22778 3.18717, 1.24124 3.19198, 1.25471 3.19727, 1.26625 3.19968, 1.27683 3.19919, 2.04292 3.54833, 2.83257 3.7229, 3.64627 3.72242, 4.47054 3.7229, 5.26067 3.54833, 6.01618 3.19919, 6.02676 3.19968, 6.03734 3.19727, 6.04792 3.19198, 6.0585 3.18717, 6.07437 3.18429, 6.09553 3.18381, 6.26962 3.18429, 6.35426 3.26364, 6.34897 3.42234, 6.34897 3.51515, 6.3331 3.57671, 6.30136 3.60701, 5.92625 4.12062, 5.44967 4.52217, 4.87114 4.81168, 4.29261 5.10167, 3.67849 5.24642, 3.0283 5.24594, 2.48968 5.24642, 2.02464 5.18486, 1.63318 5.06127 L 1.63318 8.00058 C 1.81833 7.8063, 2.09726 7.63317, 2.46948 7.48168, 2.84219 7.33068, 3.26106 7.25469, 3.72562 7.25421, 4.18007 7.25469, 4.60952 7.35761, 5.01349 7.56248, 5.41793 7.76782, 5.77332 8.03425, 6.07966 8.36223, 6.39658 8.73204, 6.63174 9.1413, 6.78467 9.58998, 6.93808 10.0392, 7.01455 10.4994, 7.01455 10.9707 Z" stroke="none" fill="#000000" />
			<path d="M 15 14.3717 L 8.54913 14.3717, 8.54913 13.9485 C 8.54913 13.9182, 8.565 13.872, 8.59674 13.81 L 11.1884 10.9938 C 11.4947 10.6557, 11.8049 10.3094, 12.1194 9.95547, 12.4339 9.60153, 12.7157 9.23988, 12.9639 8.87055, 13.212 8.50121, 13.4102 8.12033, 13.5583 7.72791, 13.7064 7.33549, 13.78 6.92383, 13.78 6.49245, 13.78 6.12889, 13.7324 5.78889, 13.6371 5.47341, 13.5419 5.15793, 13.4049 4.88093, 13.225 4.6424, 13.0456 4.40387, 12.821 4.21151, 12.5517 4.06531, 12.2824 3.91911, 11.9703 3.84602, 11.6164 3.84554, 11.0883 3.84602, 10.6218 4.00375, 10.2174 4.31923, 9.81344 4.63471, 9.5451 4.9824, 9.41285 5.36136, 9.38688 5.37194, 9.4292 5.37723, 9.53981 5.37675 L 9.67446 5.37675 C 9.83316 5.4133, 9.97022 5.4686, 10.0866 5.54266, 10.203 5.6172, 10.3006 5.71964, 10.38 5.85044, 10.4593 5.98125, 10.4987 6.13899, 10.4987 6.32317, 10.4987 6.63144, 10.3987 6.86756, 10.1977 7.03155, 9.99667 7.19602, 9.77208 7.27778, 9.52394 7.2773, 9.28637 7.27778, 9.06419 7.19602, 8.85836 7.03155, 8.65253 6.86756, 8.54913 6.63144, 8.54913 6.32317, 8.54913 5.89276, 8.63377 5.48495, 8.80305 5.10022, 8.97233 4.7155, 9.20173 4.38223, 9.4922 4.09994, 9.78266 3.81812, 10.126 3.59498, 10.5223 3.43051, 10.9186 3.26652, 11.3389 3.18429, 11.7828 3.18381, 12.3324 3.18429, 12.8359 3.26508, 13.2928 3.42666, 13.7497 3.58825, 14.1392 3.82053, 14.4614 4.12302, 14.7836 4.42599, 15.0361 4.77609, 15.2184 5.17332, 15.4006 5.57103, 15.4915 6.01058, 15.4915 6.49245, 15.4915 7.02626, 15.3703 7.51775, 15.127 7.96644, 14.8841 8.41561, 14.5831 8.82726, 14.2239 9.20141, 13.8646 9.57604, 13.4828 9.92854, 13.0783 10.2594, 12.6744 10.5903, 12.3084 10.912, 11.9809 11.2246 L 10.1578 12.9405, 12.5436 12.9405 C 12.8763 12.941, 13.187 12.9385, 13.4746 12.9333, 13.7627 12.9284, 14.007 12.9179, 14.208 12.9025, 14.409 12.8871, 14.5119 12.877, 14.5167 12.8712, 14.559 12.8356, 14.599 12.764, 14.636 12.6563, 14.673 12.5485, 14.7072 12.4216, 14.7389 12.2754, 14.7706 12.1292, 14.8024 11.9806, 14.8341 11.8291, 14.8659 11.6781, 14.8947 11.5122, 14.9212 11.3323 L 15.5074 11.3323 Z" stroke="none" fill="#000000" />
			<rect />
		</svg>
	</g>
	<g transform="matrix(1 0 -0 1 191.932 8.50463)">
		<svg width="48.065773" height="39.1914787">
			<defs />
			<path d="M 7.01455 10.9707 C 7.01455 11.4737, 6.91981 11.9536, 6.72937 12.41, 6.53941 12.8669, 6.26481 13.2771, 5.90509 13.6407, 5.54056 13.9951, 5.12987 14.2659, 4.673 14.4524, 4.21614 14.64, 3.73091 14.7333, 3.21826 14.7333, 2.77486 14.7333, 2.36128 14.6501, 1.978 14.4832, 1.59519 14.3168, 1.2624 14.0889, 0.97963 13.7989, 0.696856 13.5094, 0.475157 13.1732, 0.314053 12.7909, 0.152949 12.4091, 0.0721561 12.0022, 0.0721561 11.5708, 0.0721561 11.2736, 0.171223 11.0495, 0.369357 10.8981, 0.567491 10.747, 0.772358 10.6711, 0.983477 10.6706, 1.20566 10.6711, 1.41437 10.7456, 1.60962 10.8942, 1.80535 11.0433, 1.90297 11.2688, 1.90297 11.5708, 1.90297 11.756, 1.8621 11.9113, 1.78034 12.0368, 1.69859 12.1628, 1.59808 12.26, 1.47881 12.3292, 1.36003 12.3985, 1.22682 12.4384, 1.0787 12.448 L 0.983477 12.448, 0.824777 12.448 C 0.946447 12.8794, 1.22922 13.267, 1.6731 13.6104, 2.11698 13.9542, 2.63203 14.1259, 3.21826 14.1254, 3.52508 14.1259, 3.82372 14.0466, 4.11419 13.8874, 4.40466 13.7287, 4.64271 13.518, 4.82738 13.2559, 5.04378 12.9434, 5.18277 12.5884, 5.24336 12.1907, 5.30396 11.7935, 5.33425 11.3867, 5.33425 10.9707, 5.33425 10.5504, 5.32127 10.1469, 5.29482 9.75926, 5.26885 9.37213, 5.16016 9.00664, 4.96972 8.66231, 4.83267 8.41128, 4.65713 8.20256, 4.44313 8.03569, 4.22913 7.86929, 3.99011 7.78562, 3.72562 7.78514, 3.22355 7.78562, 2.78784 7.88709, 2.41803 8.08955, 2.04821 8.29249, 1.74956 8.58344, 1.52258 8.9624, 1.47497 9.04992, 1.3985 9.09369, 1.2927 9.09321 L 1.22922 9.09321 C 1.04455 9.09369, 0.951737 9.00905, 0.951737 8.83929 L 0.951737 3.43773 C 0.951737 3.30499, 1.02868 3.22036, 1.18161 3.18381, 1.20806 3.18429, 1.22778 3.18717, 1.24124 3.19198, 1.25471 3.19727, 1.26625 3.19968, 1.27683 3.19919, 2.04292 3.54833, 2.83257 3.7229, 3.64627 3.72242, 4.47054 3.7229, 5.26067 3.54833, 6.01618 3.19919, 6.02676 3.19968, 6.03734 3.19727, 6.04792 3.19198, 6.0585 3.18717, 6.07437 3.18429, 6.09553 3.18381, 6.26962 3.18429, 6.35426 3.26364, 6.34897 3.42234, 6.34897 3.51515, 6.3331 3.57671, 6.30136 3.60701, 5.92625 4.12062, 5.44967 4.52217, 4.87114 4.81168, 4.29261 5.10167, 3.67849 5.24642, 3.0283 5.24594, 2.48968 5.24642, 2.02464 5.18486, 1.63318 5.06127 L 1.63318 8.00058 C 1.81833 7.8063, 2.09726 7.63317, 2.46948 7.48168, 2.84219 7.33068, 3.26106 7.25469, 3.72562 7.25421, 4.18007 7.25469, 4.60952 7.35761, 5.01349 7.56248, 5.41793 7.76782, 5.77332 8.03425, 6.07966 8.36223, 6.39658 8.73204, 6.63174 9.1413, 6.78467 9.58998, 6.93808 10.0392, 7.01455 10.4994, 7.01455 10.9707 Z" stroke="none" fill="#000000" />
			<path d="M 14.9765 14.3717 C 14.0046 14.3409, 13.0586 14.3255, 12.1391 14.3255, 11.2201 14.3255, 10.2742 14.3409, 9.30176 14.3717 L 9.30176 13.7099, 9.84903 13.7099 C 10.0231 13.7104, 10.1871 13.708, 10.34 13.7027, 10.4934 13.6979, 10.6387 13.6849, 10.7762 13.6642, 10.9138 13.644, 11.0325 13.6234, 11.1326 13.6022, 11.2172 13.5873, 11.2874 13.5402, 11.3427 13.4603, 11.3985 13.381, 11.4259 13.2925, 11.4259 13.1944 L 11.4259 4.52265 C 11.1619 4.65154, 10.8368 4.74916, 10.4511 4.81553, 10.0654 4.88237, 9.64272 4.91556, 9.18297 4.91508 L 9.18297 4.26104 C 9.81729 4.26152, 10.4026 4.18602, 10.9388 4.03453, 11.475 3.88353, 11.9386 3.59979, 12.3296 3.18381 L 12.5753 3.18381 C 12.7494 3.18429, 12.8364 3.26893, 12.8364 3.43773 L 12.8364 13.1944 C 12.8364 13.2973, 12.8629 13.3872, 12.9158 13.4642, 12.9687 13.5411, 13.0456 13.5873, 13.1457 13.6022, 13.2303 13.6234, 13.339 13.644, 13.4707 13.6642, 13.603 13.6849, 13.7521 13.6979, 13.9185 13.7027, 14.0849 13.708, 14.2474 13.7104, 14.4056 13.7099 L 14.9765 13.7099, 14.9765 14.3717 Z" stroke="none" fill="#000000" />
			<rect />
		</svg>
	</g>
	<g transform="matrix(1 0 -0 1 548.129 8.50463)">
		<svg width="27.1116219" height="39.1914787">
			<defs />
			<path d="M 7.38865 9.01626 C 7.38865 9.75542, 7.33719 10.4902, 7.23428 11.2212, 7.13136 11.9522, 6.87648 12.6385, 6.46963 13.279, 6.17916 13.7465, 5.79059 14.1052, 5.30439 14.3563, 4.81867 14.6078, 4.29016 14.7333, 3.71932 14.7333, 3.17012 14.7333, 2.65074 14.6078, 2.16214 14.3563, 1.67353 14.1052, 1.28352 13.7465, 0.993049 13.279, 0.586201 12.6385, 0.33132 11.9522, 0.228406 11.2212, 0.125491 10.4902, 0.0735531 9.75542, 0.0735531 9.01626, 0.0735531 8.26797, 0.125491 7.52015, 0.228406 6.77379, 0.33132 6.02742, 0.586201 5.32866, 0.993049 4.67655, 1.28352 4.20525, 1.67209 3.83832, 2.15829 3.57671, 2.64449 3.31509, 3.16483 3.18429, 3.71932 3.18381, 4.28487 3.18429, 4.81194 3.31509, 5.30054 3.57671, 5.78915 3.83832, 6.17916 4.20525, 6.46963 4.67655, 6.87648 5.32866, 7.13136 6.02742, 7.23428 6.77379, 7.33719 7.52015, 7.38865 8.26797, 7.38865 9.01626 Z M 5.81944 8.74695 C 5.81944 8.42426, 5.81704 8.0833, 5.81175 7.72406, 5.80646 7.3653, 5.79299 7.01376, 5.77183 6.66991, 5.75067 6.32654, 5.71268 6.00193, 5.6569 5.69655, 5.60159 5.39165, 5.53427 5.131, 5.45492 4.91508, 5.2967 4.5669, 5.06442 4.28076, 4.7576 4.05762, 4.45126 3.83447, 4.10501 3.7229, 3.71932 3.72242, 3.34421 3.7229, 3.00517 3.83592, 2.70124 4.06146, 2.3973 4.28749, 2.16598 4.57171, 2.00728 4.91508, 1.92842 5.131, 1.86109 5.39165, 1.8053 5.69655, 1.75 6.00193, 1.71153 6.32654, 1.69037 6.66991, 1.66921 7.01376, 1.65622 7.3653, 1.65093 7.72406, 1.64564 8.0833, 1.64276 8.42426, 1.64276 8.74695, 1.64276 9.10667, 1.64564 9.48515, 1.65093 9.88238, 1.65622 10.2801, 1.66921 10.6648, 1.69037 11.0366, 1.71153 11.4088, 1.75 11.7613, 1.8053 12.0946, 1.86109 12.4283, 1.92842 12.7077, 2.00728 12.9328, 2.1554 13.3079, 2.38432 13.6157, 2.69306 13.8566, 3.00228 14.098, 3.34421 14.2182, 3.71932 14.2178, 4.11078 14.2182, 4.46088 14.098, 4.76962 13.8566, 5.07885 13.6157, 5.30728 13.3079, 5.45492 12.9328, 5.53427 12.7077, 5.60159 12.4283, 5.6569 12.0946, 5.71268 11.7613, 5.75067 11.4088, 5.77183 11.0366, 5.79299 10.6648, 5.80646 10.2801, 5.81175 9.88238, 5.81704 9.48515, 5.81944 9.10667, 5.81944 8.74695 Z" stroke="none" fill="#000000" />
			<rect />
		</svg>
	</g>
</svg>
