<?xml version="1.0"?>
<svg xmlns="http://www.w3.org/2000/svg" xmlns:xlink="http://www.w3.org/1999/xlink" width="333.888885" height="214.444443">
	<defs />
	<path d="M 0 -54.657 L 0 -36.4374" fill="none" stroke="#000000" stroke-width="2.4000001" stroke-linecap="round" stroke-linejoin="round" transform="matrix(0.416667 0 -0 0.416667 272.367 160.743)" />
	<path d="M 0 54.657 L 0 36.4374" fill="none" stroke="#000000" stroke-width="2.4000001" stroke-linecap="round" stroke-linejoin="round" transform="matrix(0.416667 0 -0 0.416667 272.367 160.743)" />
	<path d="M 36.4374 -0 C 36.4374 20.1238, 20.1238 36.4374, -0 36.4374, -20.1238 36.4374, -36.4374 20.1238, -36.4374 -0, -36.4374 -20.1238, -20.1238 -36.4374, -0 -36.4374, 20.1238 -36.4374, 36.4374 -20.1238, 36.4374 -0 Z" stroke="none" fill="#FFFFFF" transform="matrix(0.416667 0 -0 0.416667 272.367 160.743)" />
	<path d="M 36.4374 -0 C 36.4374 20.1238, 20.1238 36.4374, -0 36.4374, -20.1238 36.4374, -36.4374 20.1238, -36.4374 -0, -36.4374 -20.1238, -20.1238 -36.4374, -0 -36.4374, 20.1238 -36.4374, 36.4374 -20.1238, 36.4374 -0 Z" fill="none" stroke="#000000" stroke-width="3.60000014" stroke-linecap="round" stroke-linejoin="round" transform="matrix(0.416667 0 -0 0.416667 272.367 160.743)" />
	<path d="M 0 -36.4374 L 0 36.4374" fill="none" stroke="#000000" stroke-width="2.4000001" stroke-linecap="round" stroke-linejoin="round" transform="matrix(0.416667 0 -0 0.416667 272.367 160.743)" />
	<path d="M 25.5062 -54.657 L 47.3686 -54.657" fill="none" stroke="#000000" stroke-width="2.4000001" stroke-linecap="round" stroke-linejoin="round" transform="matrix(0.416667 0 -0 0.416667 272.367 160.743)" />
	<path d="M 36.4374 -65.5882 L 36.4374 -43.7258" fill="none" stroke="#000000" stroke-width="2.4000001" stroke-linecap="round" stroke-linejoin="round" transform="matrix(0.416667 0 -0 0.416667 272.367 160.743)" />
	<path d="M 25.5062 54.657 L 47.3686 54.657" fill="none" stroke="#000000" stroke-width="2.4000001" stroke-linecap="round" stroke-linejoin="round" transform="matrix(0.416667 0 -0 0.416667 272.367 160.743)" />
	<path d="M 0 -72.8767 L 0 -51.0137" fill="none" stroke="#000000" stroke-width="2.4000001" stroke-linecap="round" stroke-linejoin="round" transform="matrix(0.416667 0 -0 0.416667 168.14 166.006)" />
	<path d="M 0 51.0137 L 0 72.8767" fill="none" stroke="#000000" stroke-width="2.4000001" stroke-linecap="round" stroke-linejoin="round" transform="matrix(0.416667 0 -0 0.416667 168.14 166.006)" />
	<path d="M 0 -51.0137 L -36.438 0, 0 51.0137, 36.438 0 Z" stroke="none" fill="#FFFFFF" transform="matrix(0.416667 0 -0 0.416667 168.14 166.006)" />
	<path d="M 0 -51.0137 L -36.438 0, 0 51.0137, 36.438 0 Z" fill="none" stroke="#000000" stroke-width="3.60000014" stroke-linecap="round" stroke-linejoin="round" transform="matrix(0.416667 0 -0 0.416667 168.14 166.006)" />
	<path d="M 0 -72.8767 L 0 72.8767" fill="none" stroke="#000000" stroke-width="2.4000001" stroke-linecap="round" stroke-linejoin="round" transform="matrix(0.416667 0 -0 0.416667 168.14 166.006)" />
	<path d="M 25.5066 -72.8767 L 47.3693 -72.8767" fill="none" stroke="#000000" stroke-width="2.4000001" stroke-linecap="round" stroke-linejoin="round" transform="matrix(0.416667 0 -0 0.416667 168.14 166.006)" />
	<path d="M 36.438 -83.8081 L 36.438 -61.9453" fill="none" stroke="#000000" stroke-width="2.4000001" stroke-linecap="round" stroke-linejoin="round" transform="matrix(0.416667 0 -0 0.416667 168.14 166.006)" />
	<path d="M 25.5066 72.8767 L 47.3693 72.8767" fill="none" stroke="#000000" stroke-width="2.4000001" stroke-linecap="round" stroke-linejoin="round" transform="matrix(0.416667 0 -0 0.416667 168.14 166.006)" />
	<path d="M 0 -54.6569 L 0 -36.438" fill="none" stroke="#000000" stroke-width="2.4000001" stroke-linecap="round" stroke-linejoin="round" transform="matrix(0.416667 0 -0 0.416667 63.9115 137.97)" />
	<path d="M 0 54.6569 L 0 36.438" fill="none" stroke="#000000" stroke-width="2.4000001" stroke-linecap="round" stroke-linejoin="round" transform="matrix(0.416667 0 -0 0.416667 63.9115 137.97)" />
	<path d="M 36.438 -0 C 36.438 20.1241, 20.1241 36.438, -0 36.438, -20.1241 36.438, -36.438 20.1241, -36.438 -0, -36.438 -20.1241, -20.1241 -36.438, -0 -36.438, 20.1241 -36.438, 36.438 -20.1241, 36.438 -0 Z" stroke="none" fill="#FFFFFF" transform="matrix(0.416667 0 -0 0.416667 63.9115 137.97)" />
	<path d="M 36.438 -0 C 36.438 20.1241, 20.1241 36.438, -0 36.438, -20.1241 36.438, -36.438 20.1241, -36.438 -0, -36.438 -20.1241, -20.1241 -36.438, -0 -36.438, 20.1241 -36.438, 36.438 -20.1241, 36.438 -0 Z" fill="none" stroke="#000000" stroke-width="3.60000014" stroke-linecap="round" stroke-linejoin="round" transform="matrix(0.416667 0 -0 0.416667 63.9115 137.97)" />
	<path d="M 0 -36.438 L 0 36.438" fill="none" stroke="#000000" stroke-width="2.4000001" stroke-linecap="round" stroke-linejoin="round" transform="matrix(0.416667 0 -0 0.416667 63.9115 137.97)" />
	<path d="M -47.3694 -54.6569 L -25.5066 -54.6569" fill="none" stroke="#000000" stroke-width="2.4000001" stroke-linecap="round" stroke-linejoin="round" transform="matrix(0.416667 0 -0 0.416667 63.9115 137.97)" />
	<path d="M -36.438 -65.5883 L -36.438 -43.7255" fill="none" stroke="#000000" stroke-width="2.4000001" stroke-linecap="round" stroke-linejoin="round" transform="matrix(0.416667 0 -0 0.416667 63.9115 137.97)" />
	<path d="M -47.3694 54.6569 L -25.5066 54.6569" fill="none" stroke="#000000" stroke-width="2.4000001" stroke-linecap="round" stroke-linejoin="round" transform="matrix(0.416667 0 -0 0.416667 63.9115 137.97)" />
	<path d="M 0 -209.157 L 0 209.157" fill="none" stroke="#000000" stroke-width="3.20000029" stroke-linecap="round" stroke-linejoin="round" transform="matrix(0.416667 0 0 0.416667 63.9114 118.947)" />
	<path d="M 0 -208.625 L 0 208.625" fill="none" stroke="#000000" stroke-width="3.20000029" stroke-linecap="round" stroke-linejoin="round" transform="matrix(0.416667 0 0 0.416667 272.367 119.169)" />
	<path d="M -250.148 0 L 250.146 0" fill="none" stroke="#000000" stroke-width="3.20000029" stroke-linecap="round" stroke-linejoin="round" transform="matrix(0.416667 0 0 0.416667 168.14 31.7983)" />
	<path d="M -250.148 0 L 250.147 0" fill="none" stroke="#000000" stroke-width="3.20000029" stroke-linecap="round" stroke-linejoin="round" transform="matrix(0.416667 0 0 0.416667 168.14 206.096)" />
	<rect x="-43.7260818" y="-10.9314518" width="87.4521637" height="21.8629036" stroke="none" fill="#FFFFFF" transform="matrix(0.416667 0 -0 0.416667 237.198 31.7983)" />
	<path d="M -43.7261 -10.9315 L 43.7261 -10.9315, 43.7261 10.9315, -43.7261 10.9315 Z" fill="none" stroke="#000000" stroke-width="3.60000014" stroke-linecap="round" stroke-linejoin="round" transform="matrix(0.416667 0 -0 0.416667 237.198 31.7983)" />
	<path d="M 0 -208.625 L 0 208.625" fill="none" stroke="#000000" stroke-width="3.20000029" stroke-linecap="round" stroke-linejoin="round" transform="matrix(0.416667 0 0 0.416667 168.14 119.169)" />
	<ellipse cx="229.59353351593018" cy="417.92023944854736" rx="6.3000001907348633" ry="6.3000001907348633" stroke="none" fill="#000000" transform="matrix(0.416667 0 0 0.416667 72.4756 -142.335)" />
	<ellipse cx="229.59206867218018" cy="836.23438739776611" rx="6.3000001907348633" ry="6.3000001907348633" stroke="none" fill="#000000" transform="matrix(0.416667 0 0 0.416667 72.4756 -142.335)" />
	<path d="M -43.7256 -10.9314 L 43.7256 -10.9314, 43.7256 10.9314, -43.7256 10.9314 Z" stroke="none" fill="#FFFFFF" transform="matrix(3.14575e-008 0.416667 -0.416667 3.14575e-008 168.139 97.644)" />
	<path d="M -43.7256 -10.9314 L 43.7256 -10.9314, 43.7256 10.9314, -43.7256 10.9314 Z" fill="none" stroke="#000000" stroke-width="3.60000014" stroke-linecap="round" stroke-linejoin="round" transform="matrix(3.14575e-008 0.416667 -0.416667 3.14575e-008 168.139 97.644)" />
	<path d="M -43.726 -10.9316 L 43.726 -10.9316, 43.726 10.9316, -43.726 10.9316 Z" stroke="none" fill="#FFFFFF" transform="matrix(3.14575e-008 0.416667 -0.416667 3.14575e-008 272.367 82.7338)" />
	<path d="M -43.726 -10.9316 L 43.726 -10.9316, 43.726 10.9316, -43.726 10.9316 Z" fill="none" stroke="#000000" stroke-width="3.60000014" stroke-linecap="round" stroke-linejoin="round" transform="matrix(3.14575e-008 0.416667 -0.416667 3.14575e-008 272.367 82.7338)" />
	<g transform="matrix(1 0 -0 1 4.04075 126.762)">
		<svg width="107.972839" height="47.9999886">
			<defs />
			<path d="M 7.61023 16.7669 L 0.0841818 16.7669, 0.0841818 16.2732 C 0.0841818 16.2379, 0.102697 16.184, 0.139727 16.1116 L 3.16328 12.826 C 3.52067 12.4316, 3.88255 12.0277, 4.24949 11.6147, 4.61642 11.2018, 4.9452 10.7799, 5.23471 10.349, 5.52422 9.91808, 5.75537 9.47372, 5.92818 9.01589, 6.10098 8.55807, 6.18683 8.0778, 6.18683 7.57453, 6.18683 7.15037, 6.13128 6.7537, 6.02019 6.38565, 5.9091 6.01759, 5.7492 5.69442, 5.53936 5.41613, 5.33009 5.13785, 5.06807 4.91343, 4.75388 4.74286, 4.43969 4.5723, 4.07556 4.48702, 3.66262 4.48646, 3.04658 4.48702, 2.50235 4.67105, 2.0305 5.0391, 1.55921 5.40716, 1.24614 5.8128, 1.09184 6.25492, 1.06155 6.26726, 1.11092 6.27343, 1.23996 6.27287 L 1.39706 6.27287 C 1.58221 6.31551, 1.74211 6.38004, 1.87789 6.46644, 2.01367 6.5534, 2.12756 6.67291, 2.22014 6.82552, 2.31271 6.97812, 2.35872 7.16215, 2.35872 7.37704, 2.35872 7.73668, 2.24202 8.01216, 2.00749 8.20348, 1.77297 8.39536, 1.51096 8.49074, 1.22145 8.49018, 0.944286 8.49074, 0.685077 8.39536, 0.444943 8.20348, 0.20481 8.01216, 0.0841818 7.73668, 0.0841818 7.37704, 0.0841818 6.87489, 0.182928 6.39911, 0.380421 5.95026, 0.577914 5.50142, 0.84554 5.1126, 1.18442 4.78326, 1.5233 4.45448, 1.9239 4.19415, 2.38621 4.00226, 2.84852 3.81094, 3.33889 3.715, 3.85675 3.71444, 4.49804 3.715, 5.08547 3.80926, 5.61847 3.99778, 6.15148 4.18629, 6.60594 4.45728, 6.98185 4.81019, 7.35776 5.16366, 7.65231 5.57211, 7.86496 6.03554, 8.0776 6.49954, 8.18364 7.01235, 8.18364 7.57453, 8.18364 8.19731, 8.04225 8.77071, 7.75835 9.29418, 7.47502 9.81821, 7.1238 10.2985, 6.70468 10.735, 6.28557 11.172, 5.84009 11.5833, 5.36824 11.9693, 4.89695 12.3553, 4.46998 12.7307, 4.0879 13.0954 L 1.96093 15.0972, 4.74434 15.0972 C 5.1326 15.0978, 5.49504 15.095, 5.83055 15.0888, 6.16663 15.0832, 6.45165 15.0708, 6.68617 15.0529, 6.92069 15.0349, 7.04076 15.0232, 7.04637 15.0164, 7.09574 14.9749, 7.14231 14.8913, 7.18551 14.7656, 7.22871 14.64, 7.26855 14.4918, 7.30558 14.3213, 7.34261 14.1507, 7.37964 13.9773, 7.41667 13.8006, 7.4537 13.6244, 7.48736 13.4309, 7.51822 13.221 L 8.20215 13.221 Z" stroke="none" fill="#000000" />
			<path d="M 16.5465 13.5711 L 16.5465 15.3935 C 16.5465 15.5017, 16.5667 15.6022, 16.6065 15.6947, 16.6469 15.7879, 16.7131 15.849, 16.8051 15.8782, 16.9476 15.9444, 17.1788 15.9809, 17.4991 15.9865, 17.8195 15.9927, 18.1432 15.9955, 18.4698 15.9949 L 18.4698 16.7669 C 17.5266 16.731, 16.602 16.7131, 15.6959 16.7131, 14.8021 16.7131, 13.8618 16.731, 12.8754 16.7669 L 12.8754 15.9949 C 13.2149 15.9955, 13.542 15.9927, 13.8562 15.9865, 14.1704 15.9809, 14.4049 15.9444, 14.5586 15.8782, 14.6512 15.849, 14.7191 15.7879, 14.7623 15.6947, 14.8055 15.6022, 14.8268 15.5017, 14.8268 15.3935 L 14.8268 13.5711, 9.55622 13.5711, 9.55622 12.844, 15.7329 3.66058 C 15.8132 3.55342, 15.9147 3.49956, 16.0381 3.49899 L 16.2412 3.49899 C 16.4449 3.49956, 16.5465 3.60111, 16.5465 3.80421 L 16.5465 12.7812, 18.5343 12.7812, 18.5343 13.5711 Z M 14.9194 6.02152 L 10.3698 12.7812, 14.9194 12.7812 Z" stroke="none" fill="#000000" />
			<path d="M 34.9679 4.57714 C 34.6788 4.57772, 34.424 4.59947, 34.2036 4.64184, 33.9838 4.68478, 33.7794 4.75806, 33.5905 4.86111, 33.2761 5.05118, 33.0368 5.33801, 32.8731 5.72216 L 28.5048 16.98 C 28.4236 17.1575, 28.285 17.2428, 28.0898 17.2365 L 27.9386 17.2365 C 27.744 17.2365, 27.606 17.1512, 27.5236 16.98 L 22.9481 5.19087 C 22.8977 5.07523, 22.841 4.9716, 22.778 4.88, 22.7151 4.7884, 22.624 4.72142, 22.5044 4.67791, 22.3601 4.62352, 22.1569 4.59317, 21.8958 4.58688, 21.6347 4.58115, 21.3565 4.57772, 21.0611 4.57714 L 21.0611 3.81685 C 21.8723 3.86036, 22.6492 3.88154, 23.3912 3.88097, 23.5045 3.88154, 23.6276 3.87525, 23.7593 3.86265, 24.6215 3.86322, 25.5238 3.8512, 26.4673 3.82601 L 26.4673 4.57714 C 26.1845 4.57772, 25.9326 4.58401, 25.7121 4.59604, 25.4923 4.60863, 25.2942 4.65386, 25.1179 4.73287, 25.0366 4.77638, 24.9736 4.8342, 24.929 4.90691, 24.898 4.95615, 24.882 5.00195, 24.882 5.04431, 24.882 5.0695, 24.8854 5.09698, 24.8912 5.12675 L 28.5902 14.5984, 32.0807 5.64888 C 32.1128 5.57617, 32.1283 5.49373, 32.1283 5.40156, 32.1283 5.22522, 32.0435 5.06034, 31.8735 4.90691, 31.7292 4.77924, 31.5672 4.69222, 31.3874 4.64642, 31.2082 4.60062, 30.9804 4.57772, 30.7033 4.57714 L 30.7033 3.82601 C 31.4647 3.8512, 32.1815 3.86322, 32.8548 3.86265, 32.9429 3.87525, 33.0368 3.88154, 33.1376 3.88097, 33.7164 3.88154, 34.3267 3.86036, 34.9679 3.81685 L 34.9679 4.57714 Z" stroke="none" fill="#000000" />
			<rect />
		</svg>
	</g>
	<g transform="matrix(1 0 -0 1 190.916 154.741)">
		<svg width="87.0040054" height="54.0428391">
			<defs />
			<path d="M 8.5048 13.3826 C 8.5048 13.8977, 8.39091 14.392, 8.16312 14.8644, 7.93533 15.3374, 7.63011 15.7413, 7.24747 16.0757, 6.81602 16.4533, 6.33968 16.7327, 5.81901 16.9151, 5.29835 17.098, 4.75412 17.1888, 4.18689 17.1888, 3.6752 17.1888, 3.17642 17.117, 2.68942 16.9734, 2.20242 16.8298, 1.76367 16.6239, 1.37206 16.3546, 0.980436 16.0852, 0.667926 15.7548, 0.433403 15.3626, 0.19888 14.971, 0.0816184 14.5204, 0.0816184 14.011, 0.0816184 13.6284, 0.20954 13.3428, 0.465383 13.1543, 0.721226 12.9658, 0.991096 12.8715, 1.27443 12.8709, 1.57067 12.8715, 1.84615 12.9658, 2.10199 13.1543, 2.35784 13.3428, 2.48576 13.6284, 2.48576 14.011, 2.48576 14.2388, 2.44143 14.429, 2.35167 14.5816, 2.26246 14.7342, 2.14856 14.8616, 2.00942 14.9631, 1.87084 15.0652, 1.71206 15.1275, 1.53308 15.1511, 1.44107 15.1758, 1.35466 15.1875, 1.27443 15.187, 1.19476 15.1875, 1.18242 15.1937, 1.2374 15.2049, 1.42872 15.5405, 1.80463 15.8373, 2.36569 16.0942, 2.92675 16.3517, 3.53382 16.4802, 4.18689 16.4797, 4.49547 16.4802, 4.7833 16.4039, 5.05148 16.2513, 5.31967 16.0987, 5.54353 15.8939, 5.72195 15.6358, 5.94413 15.3014, 6.09505 14.9424, 6.17529 14.5592, 6.25552 14.1765, 6.29535 13.7843, 6.29535 13.3826, 6.29535 12.9702, 6.25552 12.5741, 6.17529 12.1937, 6.09505 11.8139, 5.94413 11.4621, 5.72195 11.1384, 5.5368 10.8758, 5.31182 10.6632, 5.047 10.5016, 4.78218 10.34, 4.49547 10.2592, 4.18689 10.2586 L 2.84652 10.2586 C 2.6681 10.2592, 2.57216 10.1756, 2.55982 10.0073 L 2.55982 9.90854 C 2.55982 9.83728, 2.5817 9.78062, 2.62434 9.73798, 2.67989 9.68468, 2.75058 9.65775, 2.83698 9.65718, 3.01596 9.63362, 3.20111 9.62184, 3.39187 9.62128, 3.57702 9.62184, 3.7588 9.61005, 3.93722 9.58537, 4.27049 9.5618, 4.56 9.45913, 4.80686 9.27623, 5.05373 9.09388, 5.2602 8.86048, 5.42627 8.57602, 5.59235 8.29213, 5.71858 7.96447, 5.80499 7.59305, 5.89139 7.22219, 5.93459 6.84179, 5.93459 6.45241, 5.93459 6.16571, 5.90373 5.8936, 5.84202 5.63607, 5.7803 5.37911, 5.66641 5.15412, 5.49977 4.96224, 5.15472 4.56781, 4.71709 4.37313, 4.18689 4.37874, 3.62022 4.3793, 3.10068 4.4859, 2.62939 4.69798, 2.1581 4.91062, 1.84166 5.13953, 1.6812 5.38415, 1.63856 5.39089, 1.65988 5.39369, 1.74628 5.39313, 1.96846 5.39369, 2.17774 5.45934, 2.37467 5.59062, 2.67091 5.76455, 2.81847 6.05799, 2.81847 6.47037, 2.81847 6.81822, 2.70625 7.08024, 2.48127 7.25641, 2.25629 7.43314, 2.00493 7.52123, 1.72777 7.52067, 1.45621 7.52123, 1.20205 7.43483, 0.964726 7.2609, 0.727398 7.08753, 0.608453 6.82383, 0.608453 6.47037, 0.608453 6.03386, 0.713371 5.64841, 0.923208 5.3129, 1.13304 4.97795, 1.40235 4.69069, 1.73226 4.45111, 2.06216 4.2121, 2.44256 4.0292, 2.87401 3.90352, 3.30603 3.77784, 3.74365 3.715, 4.18689 3.71444, 4.66155 3.715, 5.12106 3.77784, 5.56485 3.90352, 6.00865 4.0292, 6.42776 4.22388, 6.82219 4.48646, 7.14311 4.71425, 7.41242 4.99422, 7.63124 5.32637, 7.85005 5.65851, 7.95946 6.03386, 7.95946 6.45241, 7.95946 6.87208, 7.88427 7.26707, 7.73335 7.63793, 7.58242 8.00935, 7.38213 8.34431, 7.13245 8.64335, 6.88278 8.94296, 6.58542 9.20609, 6.23981 9.43332, 5.89476 9.66111, 5.63555 9.80418, 5.46274 9.86365, 5.61086 9.88217, 5.8639 9.97082, 6.22129 10.129, 6.57925 10.2878, 6.92093 10.4988, 7.24747 10.7613, 7.63011 11.0913, 7.93533 11.4846, 8.16312 11.9424, 8.39091 12.4002, 8.5048 12.8805, 8.5048 13.3826 Z" stroke="none" fill="#000000" />
			<path d="M 23.0742 4.3115 C 23.0553 4.39738, 23.0095 4.46665, 22.9373 4.51818, 22.8652 4.57028, 22.7879 4.59604, 22.706 4.59547, 22.4799 4.59604, 22.26 4.61321, 22.0459 4.64642, 21.8318 4.6802, 21.6337 4.76092, 21.4511 4.88859, 21.3005 4.98076, 21.1809 5.10156, 21.0927 5.25099, 21.0045 5.40099, 20.9387 5.56072, 20.8946 5.73133 L 19.149 12.4915 C 18.9859 13.103, 18.7357 13.6938, 18.399 14.2646, 18.0624 14.8359, 17.633 15.3621, 17.1109 15.8441, 16.6517 16.2661, 16.1428 16.6067, 15.5829 16.8655, 15.023 17.1254, 14.4539 17.2548, 13.8751 17.2548, 13.2465 17.2548, 12.6848 17.13, 12.1907 16.8792, 11.6972 16.6296, 11.2994 16.2873, 10.9971 15.8533, 10.6639 15.3896, 10.4658 14.8617, 10.4028 14.2686, 10.3776 14.0923, 10.365 13.9056, 10.365 13.7098, 10.365 13.301, 10.4154 12.8831, 10.5162 12.4549 L 12.4123 5.15423 C 12.4375 5.03859, 12.4501 4.94699, 12.4501 4.87943, 12.4501 4.7884, 12.4312 4.73058, 12.3934 4.70539, 12.3121 4.6573, 12.1421 4.62695, 11.8845 4.61436, 11.6268 4.60234, 11.3497 4.59604, 11.0537 4.59547, 10.9599 4.59604, 10.8906 4.56569, 10.8465 4.50386, 10.8087 4.4678, 10.7898 4.422, 10.7898 4.36646, 10.7898 4.33039, 10.7996 4.29662, 10.8179 4.2657 L 10.8465 4.11914 C 10.9158 3.93651, 11.0383 3.84491, 11.214 3.84433, 12.0007 3.86952, 12.793 3.88155, 13.5917 3.88097, 14.3909 3.88155, 15.1896 3.86952, 15.9882 3.84433, 16.1645 3.84491, 16.2527 3.92735, 16.2527 4.09166 L 16.2527 4.16494, 16.196 4.32066 C 16.1582 4.50444, 16.042 4.59604, 15.8468 4.59547, 15.5514 4.59604, 15.272 4.60234, 15.0075 4.61436, 14.743 4.62695, 14.5512 4.65901, 14.4316 4.71054, 14.3125 4.76264, 14.218 4.92294, 14.1487 5.19088 L 12.2709 12.4915 C 12.1266 13.0297, 12.0413 13.5455, 12.0161 14.0396, 12.0035 14.1134, 11.9972 14.1867, 11.9972 14.2594, 11.9972 14.6751, 12.0791 15.0569, 12.2428 15.4045, 12.4066 15.7348, 12.6407 16.0021, 12.9459 16.2065, 13.251 16.4115, 13.6077 16.5134, 14.0165 16.5128, 14.4699 16.5134, 14.9245 16.4098, 15.3802 16.202, 15.8359 15.9947, 16.259 15.7136, 16.6489 15.3586, 17.0954 14.9625, 17.459 14.5108, 17.7389 14.0035, 18.0189 13.4968, 18.2279 12.9804, 18.3658 12.4549 L 20.1023 5.67636 C 20.14 5.56701, 20.1584 5.4508, 20.1584 5.32828 L 20.1584 5.20004 C 20.14 5.07237, 20.0862 4.96531, 19.9981 4.87943, 19.8664 4.75176, 19.7107 4.67275, 19.5315 4.64184, 19.3523 4.6115, 19.1433 4.59604, 18.904 4.59547, 18.8095 4.59604, 18.7403 4.56856, 18.6962 4.51302, 18.6527 4.47066, 18.6303 4.422, 18.6303 4.36646, 18.6303 4.33039, 18.6401 4.29375, 18.6584 4.25654 L 18.6962 4.1283 C 18.7156 4.04929, 18.758 3.98231, 18.8238 3.92735, 18.8903 3.87239, 18.967 3.84491, 19.0546 3.84433, 19.6838 3.86952, 20.3158 3.88155, 20.9513 3.88097, 21.5805 3.88155, 22.2188 3.86952, 22.8663 3.84433, 22.9545 3.84491, 23.0301 3.87525, 23.0931 3.93593, 23.1182 3.98517, 23.1308 4.03097, 23.1308 4.07334, 23.1308 4.11055, 23.1217 4.14433, 23.1022 4.1741 Z" stroke="none" fill="#000000" />
			<path d="M 2.37714 3.19713 C 1.7292 3.17661, 1.09857 3.16635, 0.485571 3.16635, -0.127106 3.16635, -0.757737 3.17661, -1.406 3.19713 L -1.406 2.75598, -1.04115 2.75598 C -0.925093 2.7563, -0.815766 2.75469, -0.713814 2.75117, -0.611541 2.74796, -0.514718 2.7393, -0.423025 2.72552, -0.331331 2.71205, -0.252142 2.69827, -0.185456 2.68416, -0.12903 2.67422, -0.082221 2.6428, -0.0453515 2.58958, -0.00816131 2.53668, 0.0101132 2.47769, 0.0101132 2.41229 L 0.0101132 -3.36887 C -0.165899 -3.28295, -0.382628 -3.21787, -0.639754 -3.17362, -0.89688 -3.12906, -1.17869 -3.10694, -1.48519 -3.10726 L -1.48519 -3.54328 C -1.06231 -3.54296, -0.672135 -3.59329, -0.31466 -3.69429, 0.042815 -3.79496, 0.351879 -3.98411, 0.612531 -4.26144 L 0.77636 -4.26144 C 0.89242 -4.26112, 0.950449 -4.20469, 0.950449 -4.09216 L 0.950449 2.41229 C 0.950449 2.4809, 0.968082 2.54085, 1.00335 2.59215, 1.03862 2.64344, 1.08991 2.67422, 1.1566 2.68416, 1.21302 2.69827, 1.28548 2.71205, 1.37333 2.72552, 1.46149 2.7393, 1.56088 2.74796, 1.67181 2.75117, 1.78274 2.75469, 1.89111 2.7563, 1.99658 2.75598 L 2.37714 2.75598, 2.37714 3.19713 Z" stroke="none" fill="#000000" transform="matrix(1.12 0 0 1 24.5743 16.3063)" />
			<rect />
		</svg>
	</g>
	<g transform="matrix(1 0 -0 1 128.092 86.4365)">
		<svg width="77.9989777" height="47.9999886">
			<defs />
			<path d="M 8.50389 12.7632 C 8.50389 13.386, 8.41188 13.9442, 8.22673 14.438, 8.04214 14.9317, 7.72794 15.4181, 7.28359 15.8962, 6.84596 16.3456, 6.39767 16.6732, 5.93816 16.8791, 5.47922 17.0856, 4.92601 17.1888, 4.27855 17.1888, 3.61931 17.1888, 3.01504 17.0261, 2.46633 16.6996, 1.91761 16.3742, 1.47999 15.9326, 1.15345 15.3755, 0.691136 14.6158, 0.397141 13.8141, 0.270341 12.9702, 0.144103 12.1264, 0.0807031 11.2854, 0.0807031 10.4472, 0.0807031 9.61005, 0.202453 8.78586, 0.445953 7.97457, 0.689453 7.16384, 1.07939 6.41426, 1.61576 5.72528, 2.06573 5.13953, 2.61445 4.65758, 3.26191 4.28055, 3.90937 3.90352, 4.6208 3.715, 5.3973 3.71444, 6.14351 3.715, 6.76292 3.90689, 7.25609 4.28953, 7.74926 4.67273, 7.99557 5.22313, 7.99557 5.94073, 7.99557 6.27624, 7.89402 6.52479, 7.69035 6.68637, 7.48725 6.84796, 7.25273 6.92875, 6.98791 6.92819, 6.73543 6.92875, 6.50876 6.84796, 6.30846 6.68637, 6.10817 6.52479, 6.00774 6.27624, 6.00774 5.94073, 6.00774 5.58221, 6.14015 5.3129, 6.40497 5.1328, 6.57777 5.02564, 6.77246 4.97178, 6.98791 4.97122, 7.0558 4.97178, 7.06477 4.96897, 7.0154 4.96224, 6.929 4.83095, 6.73992 4.70135, 6.44705 4.5723, 6.15417 4.44382, 5.80463 4.3793, 5.3973 4.37874, 4.84859 4.3793, 4.35542 4.54257, 3.91779 4.86854, 3.48016 5.19508, 3.11042 5.60297, 2.80857 6.09333, 2.45118 6.71611, 2.23517 7.39443, 2.16111 8.12718, 2.08705 8.86048, 2.04385 9.4451, 2.03151 9.88161, 2.1426 9.62464, 2.40966 9.30933, 2.83158 8.9351, 3.25406 8.56143, 3.78875 8.37404, 4.43565 8.37348, 5.05225 8.37404, 5.58414 8.47728, 6.03074 8.68375, 6.4779 8.89022, 6.90768 9.2117, 7.32062 9.64821, 7.75263 10.1274, 8.05785 10.6093, 8.23626 11.0941, 8.41468 11.5788, 8.50389 12.1354, 8.50389 12.7632 Z M 6.53457 12.7632 C 6.53457 12.1892, 6.51606 11.6731, 6.47903 11.2152, 6.442 10.7574, 6.31912 10.3551, 6.10929 10.0073, 5.89384 9.65494, 5.65315 9.39461, 5.38833 9.22685, 5.12351 9.05966, 4.79977 8.9755, 4.41713 8.97494, 4.00419 8.9755, 3.65129 9.08041, 3.35841 9.28969, 3.06554 9.49953, 2.81755 9.77445, 2.61445 10.1156, 2.41134 10.4567, 2.26603 10.8545, 2.17963 11.3089, 2.11791 11.6209, 2.08705 11.953, 2.08705 12.3054, 2.08705 12.4434, 2.09322 12.5904, 2.10557 12.7453 L 2.10557 12.8171 C 2.13025 13.2665, 2.16448 13.6856, 2.20768 14.0744, 2.25088 14.4638, 2.31877 14.7808, 2.41078 15.0254, 2.58359 15.4569, 2.83775 15.807, 3.17382 16.0763, 3.5099 16.3456, 3.87795 16.4802, 4.27855 16.4797, 4.69149 16.4802, 5.03991 16.4011, 5.32324 16.2423, 5.60714 16.0841, 5.85681 15.8277, 6.07226 15.4742, 6.29444 15.1219, 6.42685 14.7224, 6.47005 14.2764, 6.51325 13.8309, 6.53457 13.3265, 6.53457 12.7632 Z" stroke="none" fill="#000000" />
			<path d="M 23.5498 16.6044 C 23.5121 16.751, 23.4084 16.8243, 23.2384 16.8243 L 20.1154 16.8243 C 19.9081 16.8243, 19.8039 16.7241, 19.8039 16.522, 19.8039 15.7714, 19.9156 15.0478, 20.1388 14.3516, 20.3621 13.6554, 20.606 12.9673, 20.8699 12.286, 21.1344 11.6053, 21.3732 10.9257, 21.5873 10.2479, 21.8014 9.57, 21.9079 8.88013, 21.9079 8.17708, 21.9079 7.62805, 21.8232 7.09561, 21.6531 6.57921, 21.4837 6.06338, 21.2163 5.60995, 20.851 5.21893, 20.4863 4.82848, 20.0558 4.52905, 19.5589 4.32123, 19.0619 4.11398, 18.5432 4.00979, 18.0017 4.00921, 17.4612 4.00979, 16.9419 4.11398, 16.445 4.32123, 15.9481 4.52905, 15.5192 4.82848, 15.1574 5.21893, 14.7956 5.60995, 14.5282 6.06338, 14.3553 6.57921, 14.1824 7.09561, 14.096 7.62805, 14.096 8.17708, 14.096 8.88013, 14.2048 9.57, 14.4217 10.2479, 14.6387 10.9257, 14.8792 11.6053, 15.1431 12.286, 15.4076 12.9673, 15.6509 13.6571, 15.8742 14.3562, 16.0975 15.0558, 16.2091 15.7777, 16.2091 16.522, 16.2091 16.7241, 16.1118 16.8243, 15.9166 16.8243 L 12.7655 16.8243 C 12.6023 16.8243, 12.5016 16.751, 12.4638 16.6044 L 11.8031 13.9846 C 11.8031 13.8203, 11.8913 13.7167, 12.067 13.6732 L 12.1712 13.6732 C 12.335 13.6738, 12.4351 13.7499, 12.4729 13.9022, 12.5737 14.3241, 12.667 14.6722, 12.7517 14.947, 12.8365 15.2218, 12.8949 15.3684, 12.9258 15.3861, 12.9888 15.4354, 13.1399 15.4663, 13.3786 15.4783, 13.6179 15.4909, 13.9042 15.4966, 14.2374 15.496 L 15.4448 15.496 C 15.3131 14.947, 15.063 14.3825, 14.6948 13.802, 14.3273 13.222, 13.9448 12.6387, 13.5487 12.0524, 13.1525 11.4662, 12.8021 10.8587, 12.497 10.2295, 12.1918 9.60092, 12.039 8.91677, 12.039 8.17708, 12.039 7.49351, 12.1998 6.86203, 12.5204 6.28151, 12.841 5.70155, 13.2721 5.20347, 13.8126 4.78783, 14.3977 4.31837, 15.0521 3.96857, 15.7752 3.73956, 16.4988 3.51056, 17.2408 3.39606, 18.0017 3.39548, 18.7631 3.39606, 19.5051 3.51056, 20.2287 3.73956, 20.9524 3.96857, 21.6159 4.31837, 22.2193 4.78783, 22.7478 5.21606, 23.1754 5.71816, 23.5023 6.29525, 23.8298 6.87234, 23.993 7.49981, 23.993 8.17708, 23.993 8.91677, 23.8407 9.60092, 23.5355 10.2295, 23.231 10.8587, 22.8771 11.4662, 22.4741 12.0524, 22.0716 12.6387, 21.6846 13.222, 21.3136 13.802, 20.9426 14.3825, 20.6913 14.947, 20.5585 15.496 L 21.7756 15.496 C 22.1094 15.4966, 22.3957 15.4909, 22.6344 15.4783, 22.8737 15.4663, 23.0243 15.4354, 23.0873 15.3861, 23.1067 15.3747, 23.16 15.2281, 23.2481 14.947, 23.3363 14.6665, 23.4302 14.3178, 23.531 13.9022, 23.5687 13.7562, 23.6724 13.68, 23.8418 13.6732 L 23.946 13.6732 C 24.1161 13.7104, 24.2008 13.814, 24.2008 13.9846 Z" stroke="none" fill="#000000" />
			<rect />
		</svg>
	</g>
	<g transform="matrix(1 0 -0 1 288.665 71.4684)">
		<svg width="53.9427032" height="54.0428391">
			<defs />
			<path d="M 12.7097 4.3115 C 12.6908 4.39738, 12.645 4.46665, 12.5729 4.51818, 12.5008 4.57028, 12.4235 4.59604, 12.3416 4.59547, 12.1155 4.59604, 11.8956 4.61321, 11.6815 4.64642, 11.4674 4.6802, 11.2693 4.76092, 11.0867 4.88859, 10.9361 4.98076, 10.8164 5.10156, 10.7283 5.25099, 10.6401 5.40099, 10.5743 5.56072, 10.5302 5.73133 L 8.78459 12.4915 C 8.62143 13.103, 8.37124 13.6938, 8.0346 14.2646, 7.69797 14.8359, 7.26859 15.3621, 6.74646 15.8441, 6.2873 16.2661, 5.77834 16.6067, 5.21843 16.8655, 4.65851 17.1254, 4.08944 17.2548, 3.51063 17.2548, 2.88202 17.2548, 2.32038 17.13, 1.82631 16.8792, 1.3328 16.6296, 0.934911 16.2873, 0.632625 15.8533, 0.299425 15.3896, 0.101336 14.8617, 0.0383604 14.2686, 0.0131699 14.0923, 0.000574708 13.9056, 0.000574708 13.7098, 0.000574708 13.301, 0.0509556 12.8831, 0.151717 12.4549 L 2.04787 5.15423 C 2.07306 5.03859, 2.08566 4.94699, 2.08566 4.87943, 2.08566 4.7884, 2.06676 4.73058, 2.02898 4.70539, 1.94768 4.6573, 1.77764 4.62695, 1.52002 4.61436, 1.26239 4.60234, 0.985291 4.59604, 0.689304 4.59547, 0.595412 4.59604, 0.526139 4.56569, 0.482055 4.50386, 0.44427 4.4678, 0.425377 4.422, 0.425377 4.36646, 0.425377 4.33039, 0.43511 4.29662, 0.45343 4.2657 L 0.482055 4.11914 C 0.551329 3.93651, 0.673846 3.84491, 0.849607 3.84433, 1.63623 3.86952, 2.42859 3.88155, 3.22724 3.88097, 4.02646 3.88155, 4.82511 3.86952, 5.62377 3.84433, 5.8001 3.84491, 5.88826 3.92735, 5.88826 4.09166 L 5.88826 4.16494, 5.83159 4.32066 C 5.7938 4.50444, 5.67758 4.59604, 5.48236 4.59547, 5.18694 4.59604, 4.90756 4.60234, 4.64306 4.61436, 4.37856 4.62695, 4.18677 4.65901, 4.06711 4.71054, 3.94803 4.76264, 3.85357 4.92294, 3.78429 5.19088 L 1.90646 12.4915 C 1.76219 13.0297, 1.67688 13.5455, 1.65169 14.0396, 1.6391 14.1134, 1.6328 14.1867, 1.6328 14.2594, 1.6328 14.6751, 1.71467 15.0569, 1.87841 15.4045, 2.04214 15.7348, 2.2763 16.0021, 2.58145 16.2065, 2.8866 16.4115, 3.24327 16.5134, 3.65204 16.5128, 4.10547 16.5134, 4.56004 16.4098, 5.01576 16.202, 5.47148 15.9947, 5.89456 15.7136, 6.28444 15.3586, 6.731 14.9625, 7.09454 14.5108, 7.3745 14.0035, 7.65446 13.4968, 7.86342 12.9804, 8.0014 12.4549 L 9.73782 5.67636 C 9.77561 5.56701, 9.79393 5.4508, 9.79393 5.32828 L 9.79393 5.20004 C 9.77561 5.07237, 9.72179 4.96531, 9.63362 4.87943, 9.50195 4.75176, 9.34622 4.67275, 9.16703 4.64184, 8.98783 4.6115, 8.77887 4.59604, 8.53956 4.59547, 8.44509 4.59604, 8.37582 4.56856, 8.33174 4.51302, 8.28823 4.47066, 8.2659 4.422, 8.2659 4.36646, 8.2659 4.33039, 8.27563 4.29375, 8.29395 4.25654 L 8.33174 4.1283 C 8.3512 4.04929, 8.39357 3.98231, 8.45941 3.92735, 8.52582 3.87239, 8.60253 3.84491, 8.69013 3.84433, 9.31932 3.86952, 9.95137 3.88155, 10.5869 3.88097, 11.216 3.88155, 11.8544 3.86952, 12.5019 3.84433, 12.5901 3.84491, 12.6656 3.87525, 12.7286 3.93593, 12.7538 3.98517, 12.7664 4.03097, 12.7664 4.07334, 12.7664 4.11055, 12.7572 4.14433, 12.7378 4.1741 Z" stroke="none" fill="#000000" />
			<path d="M 2.37714 3.19713 C 1.7292 3.17661, 1.09857 3.16635, 0.485571 3.16635, -0.127106 3.16635, -0.757737 3.17661, -1.406 3.19713 L -1.406 2.75598, -1.04115 2.75598 C -0.925093 2.7563, -0.815766 2.75469, -0.713814 2.75117, -0.611541 2.74796, -0.514718 2.7393, -0.423025 2.72552, -0.331331 2.71205, -0.252142 2.69827, -0.185456 2.68416, -0.12903 2.67422, -0.082221 2.6428, -0.0453515 2.58958, -0.00816131 2.53668, 0.0101132 2.47769, 0.0101132 2.41229 L 0.0101132 -3.36887 C -0.165899 -3.28295, -0.382628 -3.21787, -0.639754 -3.17362, -0.89688 -3.12906, -1.17869 -3.10694, -1.48519 -3.10726 L -1.48519 -3.54328 C -1.06231 -3.54296, -0.672135 -3.59329, -0.31466 -3.69429, 0.042815 -3.79496, 0.351879 -3.98411, 0.612531 -4.26144 L 0.77636 -4.26144 C 0.89242 -4.26112, 0.950449 -4.20469, 0.950449 -4.09216 L 0.950449 2.41229 C 0.950449 2.4809, 0.968082 2.54085, 1.00335 2.59215, 1.03862 2.64344, 1.08991 2.67422, 1.1566 2.68416, 1.21302 2.69827, 1.28548 2.71205, 1.37333 2.72552, 1.46149 2.7393, 1.56088 2.74796, 1.67181 2.75117, 1.78274 2.75469, 1.89111 2.7563, 1.99658 2.75598 L 2.37714 2.75598, 2.37714 3.19713 Z" stroke="none" fill="#000000" transform="matrix(1.12 0 0 1 13.728 16.3063)" />
			<rect />
		</svg>
	</g>
	<path d="M -15.8322 -9.67557 L -15.8322 9.67557, 15.8322 0 Z" stroke="none" fill="#000000" transform="matrix(0.416667 0 -0 0.416667 195.727 31.7983)" />
	<g transform="matrix(1 0 -0 1 40.5802 60.5604)">
		<svg width="41.9788857" height="54.0428391">
			<defs />
			<path d="M 8.72362 4.3115 C 8.7053 4.39165, 8.66294 4.45864, 8.59652 4.5136, 8.53011 4.56856, 8.44996 4.59604, 8.3555 4.59547, 8.06008 4.59604, 7.77097 4.60234, 7.48757 4.61436, 7.20475 4.62695, 7.00037 4.66016, 6.87442 4.71455, 6.74274 4.75806, 6.64484 4.91664, 6.58186 5.19088 L 3.93057 15.5144 C 3.90538 15.6312, 3.89278 15.7319, 3.89278 15.8167, 3.89278 15.9025, 3.90881 15.9546, 3.9403 15.9724, 4.02847 16.0279, 4.21053 16.06, 4.48762 16.0691, 4.76472 16.0783, 5.0567 16.0829, 5.36471 16.0823, 5.54104 16.0829, 5.62921 16.1562, 5.62921 16.3021, 5.62921 16.3394, 5.62291 16.3789, 5.61031 16.4212 L 5.57253 16.5678 C 5.50325 16.751, 5.3836 16.8426, 5.21356 16.8426, 4.40232 16.806, 3.58134 16.7876, 2.7512 16.7876, 1.92736 16.7876, 1.09092 16.806, 0.241318 16.8426, 0.0787248 16.8426, -0.0031441 16.7636, -0.0037166 16.6044 L -0.0037166 16.5311, 0.034069 16.3754 C 0.0850224 16.1745, 0.207539 16.0766, 0.402193 16.0823, 0.710203 16.0829, 1.00619 16.0783, 1.28901 16.0691, 1.57183 16.06, 1.77622 16.0279, 1.90217 15.9724, 2.01553 15.9117, 2.10713 15.7468, 2.17583 15.4777 L 4.84601 5.15423 C 4.8712 5.03859, 4.8838 4.94699, 4.8838 4.87943, 4.8838 4.7884, 4.86834 4.73058, 4.83628 4.70539, 4.73609 4.6573, 4.54774 4.62695, 4.27064 4.61436, 3.99355 4.60234, 3.70729 4.59604, 3.41188 4.59547, 3.23554 4.59604, 3.14738 4.5136, 3.14738 4.34814 L 3.14738 4.28402, 3.18516 4.11914 C 3.25444 3.93651, 3.37409 3.84491, 3.54355 3.84433, 4.36797 3.86952, 5.19524 3.88155, 6.02538 3.88097, 6.86239 3.88155, 7.69253 3.86952, 8.5158 3.84433, 8.60397 3.84491, 8.67954 3.87525, 8.74251 3.93593, 8.7677 3.98517, 8.7803 4.03097, 8.7803 4.07334, 8.7803 4.11055, 8.77114 4.14433, 8.75167 4.1741 Z" stroke="none" fill="#000000" />
			<path d="M 2.37714 3.19713 C 1.7292 3.17661, 1.09857 3.16635, 0.485571 3.16635, -0.127106 3.16635, -0.757737 3.17661, -1.406 3.19713 L -1.406 2.75598, -1.04115 2.75598 C -0.925093 2.7563, -0.815766 2.75469, -0.713814 2.75117, -0.611541 2.74796, -0.514718 2.7393, -0.423025 2.72552, -0.331331 2.71205, -0.252142 2.69827, -0.185456 2.68416, -0.12903 2.67422, -0.082221 2.6428, -0.0453515 2.58958, -0.00816131 2.53668, 0.0101132 2.47769, 0.0101132 2.41229 L 0.0101132 -3.36887 C -0.165899 -3.28295, -0.382628 -3.21787, -0.639754 -3.17362, -0.89688 -3.12906, -1.17869 -3.10694, -1.48519 -3.10726 L -1.48519 -3.54328 C -1.06231 -3.54296, -0.672135 -3.59329, -0.31466 -3.69429, 0.042815 -3.79496, 0.351879 -3.98411, 0.612531 -4.26144 L 0.77636 -4.26144 C 0.89242 -4.26112, 0.950449 -4.20469, 0.950449 -4.09216 L 0.950449 2.41229 C 0.950449 2.4809, 0.968082 2.54085, 1.00335 2.59215, 1.03862 2.64344, 1.08991 2.67422, 1.1566 2.68416, 1.21302 2.69827, 1.28548 2.71205, 1.37333 2.72552, 1.46149 2.7393, 1.56088 2.74796, 1.67181 2.75117, 1.78274 2.75469, 1.89111 2.7563, 1.99658 2.75598 L 2.37714 2.75598, 2.37714 3.19713 Z" stroke="none" fill="#000000" transform="matrix(1.12 0 0 1 10.309 16.3063)" />
			<rect />
		</svg>
	</g>
	<g transform="matrix(1 0 -0 1 280.984 43.0433)">
		<svg width="125.98288" height="128.999969">
			<defs />
			<polyline points="-6.566 0 6.566 0" fill="none" stroke="#000000" stroke-width="0.750400007" stroke-linecap="round" stroke-linejoin="round" transform="matrix(1 0 0 1 6.566 11.2074)" />
			<polyline points="0 -6.566 0 6.566" fill="none" stroke="#000000" stroke-width="0.750400007" stroke-linecap="round" stroke-linejoin="round" transform="matrix(1 0 0 1 6.566 11.2074)" />
			<rect />
		</svg>
	</g>
	<g transform="matrix(1 0 -0 1 280.984 96.1936)">
		<svg width="125.98288" height="86.9571228">
			<defs />
			<polyline points="-6.566 0 6.566 0" fill="none" stroke="#000000" stroke-width="0.750400007" stroke-linecap="round" stroke-linejoin="round" transform="matrix(1 0 0 1 6.566 11.2074)" />
			<rect />
		</svg>
	</g>
	<g transform="matrix(1 0 -0 1 176.52 44.7491)">
		<svg width="44.9376793" height="54.0428391">
			<defs />
			<path d="M 8.72362 4.3115 C 8.7053 4.39165, 8.66294 4.45864, 8.59652 4.5136, 8.53011 4.56856, 8.44996 4.59604, 8.3555 4.59547, 8.06008 4.59604, 7.77097 4.60234, 7.48757 4.61436, 7.20475 4.62695, 7.00037 4.66016, 6.87442 4.71455, 6.74274 4.75806, 6.64484 4.91664, 6.58186 5.19088 L 3.93057 15.5144 C 3.90538 15.6312, 3.89278 15.7319, 3.89278 15.8167, 3.89278 15.9025, 3.90881 15.9546, 3.9403 15.9724, 4.02847 16.0279, 4.21053 16.06, 4.48762 16.0691, 4.76472 16.0783, 5.0567 16.0829, 5.36471 16.0823, 5.54104 16.0829, 5.62921 16.1562, 5.62921 16.3021, 5.62921 16.3394, 5.62291 16.3789, 5.61031 16.4212 L 5.57253 16.5678 C 5.50325 16.751, 5.3836 16.8426, 5.21356 16.8426, 4.40232 16.806, 3.58134 16.7876, 2.7512 16.7876, 1.92736 16.7876, 1.09092 16.806, 0.241318 16.8426, 0.0787248 16.8426, -0.0031441 16.7636, -0.0037166 16.6044 L -0.0037166 16.5311, 0.034069 16.3754 C 0.0850224 16.1745, 0.207539 16.0766, 0.402193 16.0823, 0.710203 16.0829, 1.00619 16.0783, 1.28901 16.0691, 1.57183 16.06, 1.77622 16.0279, 1.90217 15.9724, 2.01553 15.9117, 2.10713 15.7468, 2.17583 15.4777 L 4.84601 5.15423 C 4.8712 5.03859, 4.8838 4.94699, 4.8838 4.87943, 4.8838 4.7884, 4.86834 4.73058, 4.83628 4.70539, 4.73609 4.6573, 4.54774 4.62695, 4.27064 4.61436, 3.99355 4.60234, 3.70729 4.59604, 3.41188 4.59547, 3.23554 4.59604, 3.14738 4.5136, 3.14738 4.34814 L 3.14738 4.28402, 3.18516 4.11914 C 3.25444 3.93651, 3.37409 3.84491, 3.54355 3.84433, 4.36797 3.86952, 5.19524 3.88155, 6.02538 3.88097, 6.86239 3.88155, 7.69253 3.86952, 8.5158 3.84433, 8.60397 3.84491, 8.67954 3.87525, 8.74251 3.93593, 8.7677 3.98517, 8.7803 4.03097, 8.7803 4.07334, 8.7803 4.11055, 8.77114 4.14433, 8.75167 4.1741 Z" stroke="none" fill="#000000" />
			<path d="M 2.39126 3.19713 L -1.90934 3.19713, -1.90934 2.915 C -1.90934 2.8948, -1.89876 2.86402, -1.8776 2.82266 L -0.149855 0.945196 C 0.0543709 0.71981, 0.261161 0.488975, 0.470837 0.253009, 0.680513 0.0170434, 0.868388 -0.224052, 1.03382 -0.470277, 1.19925 -0.716502, 1.33134 -0.970422, 1.43009 -1.23204, 1.52884 -1.49365, 1.57789 -1.76809, 1.57789 -2.05567, 1.57789 -2.29805, 1.54615 -2.52472, 1.48267 -2.73503, 1.41919 -2.94535, 1.32782 -3.13002, 1.20791 -3.28904, 1.08832 -3.44806, 0.938601 -3.5763, 0.759062 -3.67377, 0.579523 -3.77123, 0.371449 -3.81996, 0.135484 -3.82028, -0.216541 -3.81996, -0.527528 -3.7148, -0.797157 -3.50449, -1.06647 -3.29417, -1.24536 -3.06237, -1.33353 -2.80974, -1.35084 -2.80268, -1.32263 -2.79915, -1.24889 -2.79948 L -1.15912 -2.79948 C -1.05332 -2.77511, -0.961949 -2.73824, -0.884362 -2.68887, -0.806775 -2.63917, -0.741693 -2.57088, -0.688793 -2.48368, -0.635893 -2.39647, -0.609603 -2.29132, -0.609603 -2.16852, -0.609603 -1.96302, -0.676289 -1.8056, -0.810302 -1.69627, -0.944315 -1.58663, -1.09404 -1.53212, -1.25947 -1.53244, -1.41785 -1.53212, -1.56597 -1.58663, -1.70319 -1.69627, -1.84041 -1.8056, -1.90934 -1.96302, -1.90934 -2.16852, -1.90934 -2.45547, -1.85291 -2.72734, -1.74006 -2.98382, -1.6272 -3.24031, -1.47428 -3.46249, -1.28063 -3.65068, -1.08698 -3.83856, -0.858072 -3.98732, -0.593893 -4.09697, -0.329715 -4.20629, -0.0495055 -4.26112, 0.246413 -4.26144, 0.612865 -4.26112, 0.948539 -4.20725, 1.25311 -4.09953, 1.55769 -3.99181, 1.81738 -3.83695, 2.03219 -3.63529, 2.24699 -3.43331, 2.41531 -3.19991, 2.53682 -2.93509, 2.65833 -2.66995, 2.71892 -2.37692, 2.71892 -2.05567, 2.71892 -1.6998, 2.63813 -1.37214, 2.4759 -1.07302, 2.314 -0.77357, 2.1133 -0.499131, 1.87381 -0.2497, 1.63431 5.126e-005, 1.37975 0.235055, 1.11012 0.455632, 0.840816 0.676208, 0.596835 0.890693, 0.378503 1.09909 L -0.836912 2.24301, 0.753611 2.24301 C 0.97547 2.24333, 1.18258 2.24172, 1.3743 2.2382, 1.56635 2.23499, 1.72921 2.22794, 1.86323 2.21768, 1.99724 2.20742, 2.06585 2.20069, 2.06906 2.19684, 2.09727 2.17312, 2.12388 2.12534, 2.14857 2.05353, 2.17325 1.98171, 2.19602 1.89707, 2.21718 1.79961, 2.23833 1.70215, 2.2595 1.60308, 2.28066 1.50209, 2.30181 1.40142, 2.32105 1.29081, 2.33868 1.1709 L 2.7295 1.1709 Z" stroke="none" fill="#000000" transform="matrix(1.12 0 0 1 10.7316 16.3063)" />
			<rect />
		</svg>
	</g>
	<g transform="matrix(1 0 -0 1 188.827 -0.205083)">
		<svg width="44.9376793" height="54.0428391">
			<defs />
			<path d="M 8.72362 4.3115 C 8.7053 4.39165, 8.66294 4.45864, 8.59652 4.5136, 8.53011 4.56856, 8.44996 4.59604, 8.3555 4.59547, 8.06008 4.59604, 7.77097 4.60234, 7.48757 4.61436, 7.20475 4.62695, 7.00037 4.66016, 6.87442 4.71455, 6.74274 4.75806, 6.64484 4.91664, 6.58186 5.19088 L 3.93057 15.5144 C 3.90538 15.6312, 3.89278 15.7319, 3.89278 15.8167, 3.89278 15.9025, 3.90881 15.9546, 3.9403 15.9724, 4.02847 16.0279, 4.21053 16.06, 4.48762 16.0691, 4.76472 16.0783, 5.0567 16.0829, 5.36471 16.0823, 5.54104 16.0829, 5.62921 16.1562, 5.62921 16.3021, 5.62921 16.3394, 5.62291 16.3789, 5.61031 16.4212 L 5.57253 16.5678 C 5.50325 16.751, 5.3836 16.8426, 5.21356 16.8426, 4.40232 16.806, 3.58134 16.7876, 2.7512 16.7876, 1.92736 16.7876, 1.09092 16.806, 0.241318 16.8426, 0.0787248 16.8426, -0.0031441 16.7636, -0.0037166 16.6044 L -0.0037166 16.5311, 0.034069 16.3754 C 0.0850224 16.1745, 0.207539 16.0766, 0.402193 16.0823, 0.710203 16.0829, 1.00619 16.0783, 1.28901 16.0691, 1.57183 16.06, 1.77622 16.0279, 1.90217 15.9724, 2.01553 15.9117, 2.10713 15.7468, 2.17583 15.4777 L 4.84601 5.15423 C 4.8712 5.03859, 4.8838 4.94699, 4.8838 4.87943, 4.8838 4.7884, 4.86834 4.73058, 4.83628 4.70539, 4.73609 4.6573, 4.54774 4.62695, 4.27064 4.61436, 3.99355 4.60234, 3.70729 4.59604, 3.41188 4.59547, 3.23554 4.59604, 3.14738 4.5136, 3.14738 4.34814 L 3.14738 4.28402, 3.18516 4.11914 C 3.25444 3.93651, 3.37409 3.84491, 3.54355 3.84433, 4.36797 3.86952, 5.19524 3.88155, 6.02538 3.88097, 6.86239 3.88155, 7.69253 3.86952, 8.5158 3.84433, 8.60397 3.84491, 8.67954 3.87525, 8.74251 3.93593, 8.7677 3.98517, 8.7803 4.03097, 8.7803 4.07334, 8.7803 4.11055, 8.77114 4.14433, 8.75167 4.1741 Z" stroke="none" fill="#000000" />
			<path d="M 2.81866 1.26324 C 2.81866 1.55755, 2.75357 1.84001, 2.62341 2.10996, 2.49324 2.38023, 2.31883 2.61106, 2.10018 2.80214, 1.85363 3.01791, 1.58144 3.17757, 1.28392 3.28177, 0.986397 3.38629, 0.675409 3.43822, 0.351277 3.43822, 0.0588849 3.43822, -0.226133 3.39719, -0.504419 3.31511, -0.782704 3.23304, -1.03342 3.11537, -1.2572 2.96148, -1.48098 2.80759, -1.65956 2.61876, -1.79357 2.39465, -1.92759 2.17087, -1.99459 1.91342, -1.99459 1.62232, -1.99459 1.40366, -1.9215 1.24047, -1.7753 1.13275, -1.6291 1.02503, -1.47489 0.971165, -1.31299 0.970845, -1.14371 0.971165, -0.986289 1.02503, -0.840093 1.13275, -0.693897 1.24047, -0.620799 1.40366, -0.620799 1.62232, -0.620799 1.75248, -0.646127 1.86117, -0.697423 1.94837, -0.7484 2.03558, -0.813483 2.10835, -0.892993 2.16638, -0.972182 2.22473, -1.06291 2.26032, -1.16519 2.27379, -1.21777 2.28789, -1.26714 2.29462, -1.31299 2.2943, -1.35851 2.29462, -1.36557 2.29815, -1.33415 2.30456, -1.22482 2.49629, -1.01001 2.66589, -0.689408 2.81272, -0.368803 2.95988, -0.0219078 3.0333, 0.351277 3.03298, 0.52761 3.0333, 0.692081 2.9897, 0.84533 2.90249, 0.99858 2.81529, 1.1265 2.69827, 1.22845 2.55079, 1.35541 2.35971, 1.44166 2.15452, 1.4875 1.93555, 1.53335 1.71689, 1.55611 1.49279, 1.55611 1.26324, 1.55611 1.02759, 1.53335 0.801244, 1.4875 0.583874, 1.44166 0.366824, 1.35541 0.165804, 1.22845 -0.0191851, 1.12265 -0.169228, 0.994091 -0.290738, 0.842765 -0.383072, 0.691439 -0.475407, 0.52761 -0.521574, 0.351277 -0.521894 L -0.414649 -0.521894 C -0.516602 -0.521574, -0.571425 -0.569344, -0.578479 -0.665526 L -0.578479 -0.721952 C -0.578479 -0.762669, -0.565975 -0.79505, -0.541609 -0.819416, -0.509869 -0.849874, -0.469473 -0.865263, -0.4201 -0.865584, -0.317827 -0.879049, -0.212027 -0.885782, -0.103021 -0.886102, 0.00277901 -0.885782, 0.106655 -0.892514, 0.208608 -0.906621, 0.399047 -0.920087, 0.56448 -0.978757, 0.705546 -1.08327, 0.846612 -1.18747, 0.964595 -1.32084, 1.05949 -1.48339, 1.15439 -1.64562, 1.22653 -1.83285, 1.2759 -2.04509, 1.32528 -2.25701, 1.34996 -2.47438, 1.34996 -2.69688, 1.34996 -2.86071, 1.33233 -3.01621, 1.29706 -3.16336, 1.2618 -3.3102, 1.19671 -3.43876, 1.10149 -3.54841, 0.904321 -3.7738, 0.654249 -3.88505, 0.351277 -3.88184, 0.0274656 -3.88152, -0.269415 -3.8206, -0.538724 -3.69942, -0.808032 -3.57791, -0.988854 -3.4471, -1.08055 -3.30731, -1.10491 -3.30347, -1.09273 -3.30186, -1.04336 -3.30219, -0.916397 -3.30186, -0.796811 -3.26435, -0.684279 -3.18933, -0.514999 -3.08994, -0.43068 -2.92227, -0.43068 -2.68662, -0.43068 -2.48785, -0.494801 -2.33812, -0.623363 -2.23745, -0.751926 -2.13646, -0.895558 -2.08613, -1.05394 -2.08645, -1.20911 -2.08613, -1.35434 -2.1355, -1.48996 -2.23489, -1.62558 -2.33396, -1.69354 -2.48464, -1.69354 -2.68662, -1.69354 -2.93605, -1.63359 -3.15631, -1.51368 -3.34803, -1.39378 -3.53943, -1.23989 -3.70358, -1.05137 -3.84048, -0.862856 -3.97706, -0.645485 -4.08158, -0.39894 -4.15339, -0.152074 -4.22521, 0.0979986 -4.26112, 0.351277 -4.26144, 0.622509 -4.26112, 0.885085 -4.22521, 1.13868 -4.15339, 1.39228 -4.08158, 1.63178 -3.97033, 1.85716 -3.82028, 2.04055 -3.69012, 2.19444 -3.53014, 2.31947 -3.34034, 2.44451 -3.15054, 2.50703 -2.93605, 2.50703 -2.69688, 2.50703 -2.45707, 2.46407 -2.23136, 2.37782 -2.01944, 2.29158 -1.8072, 2.17713 -1.6158, 2.03446 -1.44492, 1.89179 -1.27371, 1.72187 -1.12335, 1.52437 -0.993505, 1.3272 -0.863339, 1.17908 -0.781585, 1.08033 -0.747601, 1.16497 -0.737021, 1.30957 -0.686365, 1.51379 -0.595954, 1.71834 -0.505223, 1.91359 -0.384675, 2.10018 -0.234632, 2.31883 -0.0461159, 2.49324 0.178629, 2.62341 0.440243, 2.75357 0.701857, 2.81866 0.976295, 2.81866 1.26324 Z" stroke="none" fill="#000000" transform="matrix(1.12 0 0 1 10.8162 16.3063)" />
			<rect />
		</svg>
	</g>
	<path d="M -34.4178 0 L 34.4178 0" fill="none" stroke="#000000" stroke-width="2.4000001" stroke-linecap="round" stroke-linejoin="round" transform="matrix(3.14575e-008 0.416667 -0.416667 3.14575e-008 168.14 56.0145)" />
	<path d="M -15.8322 -9.67568 L -15.8322 9.67568, 15.8322 0 Z" stroke="none" fill="#000000" transform="matrix(3.14575e-008 0.416667 -0.416667 3.14575e-008 168.14 56.0145)" />
	<g transform="matrix(1 0 -0 1 224.701 1.63868)">
		<svg width="77.9989777" height="45.0428467">
			<defs />
			<path d="M 7.07887 13.5711 L 7.07887 15.3935 C 7.07887 15.5017, 7.09906 15.6022, 7.1389 15.6947, 7.1793 15.7879, 7.2455 15.849, 7.33751 15.8782, 7.48002 15.9444, 7.71118 15.9809, 8.03154 15.9865, 8.35191 15.9927, 8.67564 15.9955, 9.00218 15.9949 L 9.00218 16.7669 C 8.05904 16.731, 7.13441 16.7131, 6.2283 16.7131, 5.33453 16.7131, 4.3942 16.731, 3.40785 16.7669 L 3.40785 15.9949 C 3.74729 15.9955, 4.07439 15.9927, 4.38859 15.9865, 4.70278 15.9809, 4.9373 15.9444, 5.09103 15.8782, 5.18361 15.849, 5.25149 15.7879, 5.2947 15.6947, 5.3379 15.6022, 5.35922 15.5017, 5.35922 15.3935 L 5.35922 13.5711, 0.0886252 13.5711, 0.0886252 12.844, 6.26533 3.66058 C 6.34556 3.55342, 6.44711 3.49956, 6.57055 3.49899 L 6.77365 3.49899 C 6.97731 3.49956, 7.07887 3.60111, 7.07887 3.80421 L 7.07887 12.7812, 9.0667 12.7812, 9.0667 13.5711 Z M 5.45179 6.02152 L 0.902161 12.7812, 5.45179 12.7812 Z" stroke="none" fill="#000000" />
			<path d="M 23.8235 16.6044 C 23.7857 16.751, 23.6821 16.8243, 23.5121 16.8243 L 20.389 16.8243 C 20.1818 16.8243, 20.0776 16.7241, 20.0776 16.522, 20.0776 15.7714, 20.1892 15.0478, 20.4125 14.3516, 20.6358 13.6554, 20.8797 12.9673, 21.1436 12.286, 21.4081 11.6053, 21.6468 10.9257, 21.8609 10.2479, 22.0751 9.57, 22.1815 8.88013, 22.1815 8.17708, 22.1815 7.62805, 22.0968 7.09561, 21.9268 6.57921, 21.7573 6.06338, 21.49 5.60995, 21.1247 5.21893, 20.76 4.82848, 20.3295 4.52905, 19.8325 4.32123, 19.3356 4.11398, 18.8169 4.00979, 18.2753 4.00921, 17.7349 4.00979, 17.2156 4.11398, 16.7187 4.32123, 16.2217 4.52905, 15.7929 4.82848, 15.4311 5.21893, 15.0693 5.60995, 14.8019 6.06338, 14.629 6.57921, 14.4561 7.09561, 14.3697 7.62805, 14.3697 8.17708, 14.3697 8.88013, 14.4784 9.57, 14.6954 10.2479, 14.9124 10.9257, 15.1528 11.6053, 15.4168 12.286, 15.6813 12.9673, 15.9246 13.6571, 16.1479 14.3562, 16.3711 15.0558, 16.4828 15.7777, 16.4828 16.522, 16.4828 16.7241, 16.3855 16.8243, 16.1902 16.8243 L 13.0391 16.8243 C 12.876 16.8243, 12.7752 16.751, 12.7374 16.6044 L 12.0767 13.9846 C 12.0767 13.8203, 12.1649 13.7167, 12.3407 13.6732 L 12.4449 13.6732 C 12.6086 13.6738, 12.7088 13.7499, 12.7466 13.9022, 12.8473 14.3241, 12.9407 14.6722, 13.0254 14.947, 13.1101 15.2218, 13.1685 15.3684, 13.1994 15.3861, 13.2624 15.4354, 13.4136 15.4663, 13.6523 15.4783, 13.8916 15.4909, 14.1779 15.4966, 14.5111 15.496 L 15.7185 15.496 C 15.5868 14.947, 15.3366 14.3825, 14.9685 13.802, 14.6009 13.222, 14.2185 12.6387, 13.8223 12.0524, 13.4262 11.4662, 13.0758 10.8587, 12.7706 10.2295, 12.4655 9.60092, 12.3126 8.91677, 12.3126 8.17708, 12.3126 7.49351, 12.4735 6.86203, 12.7941 6.28151, 13.1147 5.70155, 13.5458 5.20347, 14.0863 4.78783, 14.6714 4.31837, 15.3257 3.96857, 16.0488 3.73956, 16.7725 3.51056, 17.5144 3.39606, 18.2753 3.39548, 19.0368 3.39606, 19.7787 3.51056, 20.5024 3.73956, 21.226 3.96857, 21.8896 4.31837, 22.493 4.78783, 23.0214 5.21606, 23.4491 5.71816, 23.776 6.29525, 24.1035 6.87234, 24.2666 7.49981, 24.2666 8.17708, 24.2666 8.91677, 24.1143 9.60092, 23.8092 10.2295, 23.5046 10.8587, 23.1508 11.4662, 22.7478 12.0524, 22.3453 12.6387, 21.9583 13.222, 21.5873 13.802, 21.2163 14.3825, 20.965 14.947, 20.8321 15.496 L 22.0493 15.496 C 22.3831 15.4966, 22.6693 15.4909, 22.9081 15.4783, 23.1474 15.4663, 23.2979 15.4354, 23.3609 15.3861, 23.3804 15.3747, 23.4336 15.2281, 23.5218 14.947, 23.61 14.6665, 23.7038 14.3178, 23.8046 13.9022, 23.8424 13.7562, 23.946 13.68, 24.1155 13.6732 L 24.2197 13.6732 C 24.3897 13.7104, 24.4744 13.814, 24.4744 13.9846 Z" stroke="none" fill="#000000" />
			<rect />
		</svg>
	</g>
	<g transform="matrix(1 0 -0 1 293.578 149.536)">
		<svg width="107.972839" height="47.9999886">
			<defs />
			<path d="M 6.82893 16.7669 C 5.69503 16.731, 4.59143 16.7131, 3.51868 16.7131, 2.4465 16.7131, 1.34289 16.731, 0.208429 16.7669 L 0.208429 15.9949, 0.846915 15.9949 C 1.05002 15.9955, 1.24134 15.9927, 1.41976 15.9865, 1.59873 15.9809, 1.76817 15.9657, 1.92864 15.9416, 2.0891 15.918, 2.22768 15.8939, 2.34438 15.8692, 2.44313 15.8518, 2.52504 15.7969, 2.58957 15.7037, 2.65465 15.6111, 2.68663 15.5079, 2.68663 15.3935 L 2.68663 5.27643 C 2.37861 5.4268, 1.99933 5.54069, 1.54936 5.61812, 1.09939 5.6961, 0.60622 5.73482, 0.0698472 5.73426 L 0.0698472 4.97122 C 0.809885 4.97178, 1.49269 4.88369, 2.11828 4.70696, 2.74386 4.53078, 3.28472 4.19976, 3.74086 3.71444 L 4.02756 3.71444 C 4.23066 3.715, 4.33222 3.81375, 4.33222 4.01068 L 4.33222 15.3935 C 4.33222 15.5135, 4.36307 15.6184, 4.42479 15.7082, 4.48651 15.798, 4.57628 15.8518, 4.69298 15.8692, 4.79172 15.8939, 4.91852 15.918, 5.07225 15.9416, 5.22655 15.9657, 5.40047 15.9809, 5.5946 15.9865, 5.78873 15.9927, 5.97837 15.9955, 6.16295 15.9949 L 6.82893 15.9949, 6.82893 16.7669 Z" stroke="none" fill="#000000" />
			<path d="M 16.744 16.7669 L 9.21796 16.7669, 9.21796 16.2732 C 9.21796 16.2379, 9.23647 16.184, 9.2735 16.1116 L 12.2971 12.826 C 12.6544 12.4316, 13.0163 12.0277, 13.3833 11.6147, 13.7502 11.2018, 14.079 10.7799, 14.3685 10.349, 14.658 9.91808, 14.8891 9.47372, 15.062 9.01589, 15.2348 8.55807, 15.3206 8.0778, 15.3206 7.57453, 15.3206 7.15037, 15.2651 6.7537, 15.154 6.38565, 15.0429 6.01759, 14.883 5.69442, 14.6731 5.41613, 14.4639 5.13785, 14.2018 4.91343, 13.8877 4.74286, 13.5735 4.5723, 13.2093 4.48702, 12.7964 4.48646, 12.1804 4.48702, 11.6361 4.67105, 11.1643 5.0391, 10.693 5.40716, 10.3799 5.8128, 10.2256 6.25492, 10.1953 6.26726, 10.2447 6.27343, 10.3737 6.27287 L 10.5308 6.27287 C 10.716 6.31551, 10.8759 6.38004, 11.0117 6.46644, 11.1474 6.5534, 11.2613 6.67291, 11.3539 6.82552, 11.4465 6.97812, 11.4925 7.16215, 11.4925 7.37704, 11.4925 7.73668, 11.3758 8.01216, 11.1413 8.20348, 10.9067 8.39536, 10.6447 8.49074, 10.3552 8.49018, 10.0781 8.49074, 9.81885 8.39536, 9.57872 8.20348, 9.33858 8.01216, 9.21796 7.73668, 9.21796 7.37704, 9.21796 6.87489, 9.3167 6.39911, 9.5142 5.95026, 9.71169 5.50142, 9.97931 5.1126, 10.3182 4.78326, 10.6571 4.45448, 11.0577 4.19415, 11.52 4.00226, 11.9823 3.81094, 12.4727 3.715, 12.9905 3.71444, 13.6318 3.715, 14.2192 3.80926, 14.7522 3.99778, 15.2853 4.18629, 15.7397 4.45728, 16.1156 4.81019, 16.4915 5.16366, 16.7861 5.57211, 16.9987 6.03554, 17.2114 6.49954, 17.3174 7.01235, 17.3174 7.57453, 17.3174 8.19731, 17.176 8.77071, 16.8921 9.29418, 16.6088 9.81821, 16.2576 10.2985, 15.8385 10.735, 15.4193 11.172, 14.9739 11.5833, 14.502 11.9693, 14.0307 12.3553, 13.6038 12.7307, 13.2217 13.0954 L 11.0947 15.0972, 13.8781 15.0972 C 14.2664 15.0978, 14.6288 15.095, 14.9643 15.0888, 15.3004 15.0832, 15.5854 15.0708, 15.8199 15.0529, 16.0545 15.0349, 16.1745 15.0232, 16.1801 15.0164, 16.2295 14.9749, 16.2761 14.8913, 16.3193 14.7656, 16.3625 14.64, 16.4023 14.4918, 16.4394 14.3213, 16.4764 14.1507, 16.5134 13.9773, 16.5504 13.8006, 16.5875 13.6244, 16.6211 13.4309, 16.652 13.221 L 17.3359 13.221 Z" stroke="none" fill="#000000" />
			<path d="M 34.2133 4.57714 C 33.9242 4.57772, 33.6695 4.59947, 33.449 4.64184, 33.2292 4.68478, 33.0248 4.75806, 32.8359 4.86111, 32.5216 5.05118, 32.2823 5.33801, 32.1185 5.72216 L 27.7503 16.98 C 27.669 17.1575, 27.5304 17.2428, 27.3352 17.2365 L 27.1841 17.2365 C 26.9894 17.2365, 26.8514 17.1512, 26.769 16.98 L 22.1935 5.19087 C 22.1431 5.07523, 22.0864 4.9716, 22.0235 4.88, 21.9605 4.7884, 21.8695 4.72142, 21.7498 4.67791, 21.6055 4.62352, 21.4023 4.59317, 21.1412 4.58688, 20.8802 4.58115, 20.6019 4.57772, 20.3065 4.57714 L 20.3065 3.81685 C 21.1178 3.86036, 21.8946 3.88154, 22.6366 3.88097, 22.75 3.88154, 22.8731 3.87525, 23.0047 3.86265, 23.8669 3.86322, 24.7692 3.8512, 25.7127 3.82601 L 25.7127 4.57714 C 25.4299 4.57772, 25.178 4.58401, 24.9576 4.59604, 24.7377 4.60863, 24.5396 4.65386, 24.3633 4.73287, 24.282 4.77638, 24.219 4.8342, 24.1744 4.90691, 24.1435 4.95615, 24.1274 5.00195, 24.1274 5.04431, 24.1274 5.0695, 24.1309 5.09698, 24.1366 5.12675 L 27.8356 14.5984, 31.3262 5.64888 C 31.3582 5.57617, 31.3737 5.49373, 31.3737 5.40156, 31.3737 5.22522, 31.289 5.06034, 31.1189 4.90691, 30.9747 4.77924, 30.8126 4.69222, 30.6329 4.64642, 30.4537 4.60062, 30.2258 4.57772, 29.9487 4.57714 L 29.9487 3.82601 C 30.7102 3.8512, 31.4269 3.86322, 32.1002 3.86265, 32.1884 3.87525, 32.2823 3.88154, 32.383 3.88097, 32.9618 3.88154, 33.5721 3.86036, 34.2133 3.81685 L 34.2133 4.57714 Z" stroke="none" fill="#000000" />
			<rect />
		</svg>
	</g>
	<rect x="-43.7260742" y="-10.9314518" width="87.4521484" height="21.8629036" stroke="none" fill="#FFFFFF" transform="matrix(0.416667 0 -0 0.416667 115.086 32.2416)" />
	<path d="M -43.7261 -10.9315 L 43.7261 -10.9315, 43.7261 10.9315, -43.7261 10.9315 Z" fill="none" stroke="#000000" stroke-width="3.60000014" stroke-linecap="round" stroke-linejoin="round" transform="matrix(0.416667 0 -0 0.416667 115.086 32.2416)" />
	<g transform="matrix(1 0 -0 1 102.881 1.63868)">
		<svg width="77.9989777" height="47.9999886">
			<defs />
			<path d="M 8.50389 13.4455 C 8.50389 13.9846, 8.38999 14.4801, 8.1622 14.9317, 7.93441 15.3839, 7.62583 15.78, 7.23758 16.1212, 6.84933 16.4623, 6.40216 16.7254, 5.89665 16.9106, 5.39169 17.0963, 4.85195 17.1888, 4.27855 17.1888, 3.73657 17.1888, 3.21534 17.1114, 2.716 16.9554, 2.21666 16.8, 1.77286 16.5762, 1.38461 16.2827, 0.996352 15.9899, 0.682159 15.6308, 0.441464 15.2055, 0.201331 14.7808, 0.0807031 14.3078, 0.0807031 13.7866, 0.0807031 13.3445, 0.158129 12.9422, 0.31186 12.5797, 0.466151 12.2179, 0.678793 11.8874, 0.949784 11.5878, 1.22134 11.2887, 1.53385 11.0166, 1.88844 10.7709, 2.24303 10.5257, 2.56844 10.3338, 2.86412 10.1958 L 2.20712 9.78286 C 1.72685 9.48438, 1.33972 9.09556, 1.04685 8.61642, 0.753974 8.13784, 0.607538 7.61381, 0.607538 7.04489, 0.607538 6.56687, 0.709651 6.12531, 0.912754 5.72135, 1.11642 5.31739, 1.38629 4.96729, 1.7218 4.67105, 2.05788 4.37481, 2.4495 4.14141, 2.8961 3.97085, 3.34326 3.80028, 3.80389 3.715, 4.27855 3.71444, 4.74704 3.715, 5.20037 3.78401, 5.638 3.92147, 6.07562 4.05949, 6.47005 4.25699, 6.82127 4.51395, 7.1725 4.77148, 7.45022 5.08399, 7.65332 5.45204, 7.85699 5.8201, 7.95854 6.22855, 7.95854 6.67684, 7.95854 7.04265, 7.88953 7.3776, 7.75039 7.68282, 7.61181 7.98803, 7.43283 8.26968, 7.21401 8.52665, 6.9952 8.78418, 6.73487 9.01309, 6.43302 9.21339, 6.13117 9.41425, 5.86579 9.57078, 5.638 9.68412 L 6.69167 10.3574 C 7.23477 10.6929, 7.6724 11.13, 8.00511 11.6686, 8.33782 12.2072, 8.50389 12.7997, 8.50389 13.4455 Z M 6.87682 6.67684 C 6.87682 6.3604, 6.80781 6.05967, 6.66866 5.77521, 6.53008 5.49132, 6.34213 5.24726, 6.1048 5.04359, 5.86747 4.84049, 5.59311 4.6789, 5.28172 4.55884, 4.9709 4.43933, 4.63651 4.3793, 4.27855 4.37874, 3.93967 4.3793, 3.61482 4.42587, 3.30343 4.51844, 2.99204 4.61158, 2.71768 4.74455, 2.48035 4.91791, 2.24303 5.09184, 2.05507 5.29831, 1.91649 5.53732, 1.77791 5.7769, 1.70834 6.03386, 1.70834 6.30878, 1.70834 6.62073, 1.79193 6.90519, 1.95801 7.16215, 2.12408 7.41968, 2.34626 7.63176, 2.62342 7.79895 L 4.99951 9.28913 C 5.52354 9.0086, 5.9679 8.64784, 6.33147 8.20797, 6.69503 7.7681, 6.87682 7.25809, 6.87682 6.67684 Z M 7.31108 14.1187 C 7.31108 13.7484, 7.20953 13.4, 7.00642 13.0735, 6.80332 12.7475, 6.52896 12.4827, 6.18335 12.2785 L 3.49251 10.6087 C 2.87029 10.9145, 2.34177 11.3454, 1.90695 11.902, 1.47269 12.4586, 1.255 13.0869, 1.255 13.7866, 1.255 14.1524, 1.33692 14.5025, 1.50018 14.8374, 1.66401 15.173, 1.88283 15.4613, 2.15662 15.7037, 2.43098 15.9461, 2.75303 16.1363, 3.12277 16.2738, 3.49307 16.4118, 3.87795 16.4802, 4.27855 16.4797, 4.68588 16.4802, 5.07413 16.4208, 5.44387 16.3007, 5.81361 16.1812, 6.13846 16.0168, 6.41899 15.807, 6.69952 15.5977, 6.91834 15.3508, 7.07543 15.0664, 7.23253 14.7825, 7.31108 14.4666, 7.31108 14.1187 Z" stroke="none" fill="#000000" />
			<path d="M 23.5498 16.6044 C 23.5121 16.751, 23.4084 16.8243, 23.2384 16.8243 L 20.1154 16.8243 C 19.9081 16.8243, 19.8039 16.7241, 19.8039 16.522, 19.8039 15.7714, 19.9156 15.0478, 20.1388 14.3516, 20.3621 13.6554, 20.606 12.9673, 20.8699 12.286, 21.1344 11.6053, 21.3732 10.9257, 21.5873 10.2479, 21.8014 9.57, 21.9079 8.88013, 21.9079 8.17708, 21.9079 7.62805, 21.8232 7.09561, 21.6531 6.57921, 21.4837 6.06338, 21.2163 5.60995, 20.851 5.21893, 20.4863 4.82848, 20.0558 4.52905, 19.5589 4.32123, 19.0619 4.11398, 18.5432 4.00979, 18.0017 4.00921, 17.4612 4.00979, 16.9419 4.11398, 16.445 4.32123, 15.9481 4.52905, 15.5192 4.82848, 15.1574 5.21893, 14.7956 5.60995, 14.5282 6.06338, 14.3553 6.57921, 14.1824 7.09561, 14.096 7.62805, 14.096 8.17708, 14.096 8.88013, 14.2048 9.57, 14.4217 10.2479, 14.6387 10.9257, 14.8792 11.6053, 15.1431 12.286, 15.4076 12.9673, 15.6509 13.6571, 15.8742 14.3562, 16.0975 15.0558, 16.2091 15.7777, 16.2091 16.522, 16.2091 16.7241, 16.1118 16.8243, 15.9166 16.8243 L 12.7655 16.8243 C 12.6023 16.8243, 12.5016 16.751, 12.4638 16.6044 L 11.8031 13.9846 C 11.8031 13.8203, 11.8913 13.7167, 12.067 13.6732 L 12.1712 13.6732 C 12.335 13.6738, 12.4351 13.7499, 12.4729 13.9022, 12.5737 14.3241, 12.667 14.6722, 12.7517 14.947, 12.8365 15.2218, 12.8949 15.3684, 12.9258 15.3861, 12.9888 15.4354, 13.1399 15.4663, 13.3786 15.4783, 13.6179 15.4909, 13.9042 15.4966, 14.2374 15.496 L 15.4448 15.496 C 15.3131 14.947, 15.063 14.3825, 14.6948 13.802, 14.3273 13.222, 13.9448 12.6387, 13.5487 12.0524, 13.1525 11.4662, 12.8021 10.8587, 12.497 10.2295, 12.1918 9.60092, 12.039 8.91677, 12.039 8.17708, 12.039 7.49351, 12.1998 6.86203, 12.5204 6.28151, 12.841 5.70155, 13.2721 5.20347, 13.8126 4.78783, 14.3977 4.31837, 15.0521 3.96857, 15.7752 3.73956, 16.4988 3.51056, 17.2408 3.39606, 18.0017 3.39548, 18.7631 3.39606, 19.5051 3.51056, 20.2287 3.73956, 20.9524 3.96857, 21.6159 4.31837, 22.2193 4.78783, 22.7478 5.21606, 23.1754 5.71816, 23.5023 6.29525, 23.8298 6.87234, 23.993 7.49981, 23.993 8.17708, 23.993 8.91677, 23.8407 9.60092, 23.5355 10.2295, 23.231 10.8587, 22.8771 11.4662, 22.4741 12.0524, 22.0716 12.6387, 21.6846 13.222, 21.3136 13.802, 20.9426 14.3825, 20.6913 14.947, 20.5585 15.496 L 21.7756 15.496 C 22.1094 15.4966, 22.3957 15.4909, 22.6344 15.4783, 22.8737 15.4663, 23.0243 15.4354, 23.0873 15.3861, 23.1067 15.3747, 23.16 15.2281, 23.2481 14.947, 23.3363 14.6665, 23.4302 14.3178, 23.531 13.9022, 23.5687 13.7562, 23.6724 13.68, 23.8418 13.6732 L 23.946 13.6732 C 24.1161 13.7104, 24.2008 13.814, 24.2008 13.9846 Z" stroke="none" fill="#000000" />
			<rect />
		</svg>
	</g>
	<path d="M -15.8322 -9.67561 L -15.8322 9.67561, 15.8322 0 Z" stroke="none" fill="#000000" transform="matrix(-1.93713e-007 -0.416667 0.416667 -1.93713e-007 63.911 70.3553)" />
	<g transform="matrix(1 0 -0 1 234.358 71.5263)">
		<svg width="77.9989777" height="45.0428467">
			<defs />
			<path d="M 7.60405 16.7669 L 0.0791219 16.7669, 0.0791219 16.2732 C 0.0791219 16.2379, 0.0976369 16.184, 0.134667 16.1116 L 3.15766 12.826 C 3.51561 12.4316, 3.8775 12.0277, 4.24443 11.6147, 4.61136 11.2018, 4.93902 10.7799, 5.22853 10.349, 5.51803 9.91808, 5.74919 9.47372, 5.922 9.01589, 6.0948 8.55807, 6.18064 8.0778, 6.18064 7.57453, 6.18064 7.15037, 6.12566 6.7537, 6.01457 6.38565, 5.90348 6.01759, 5.74358 5.69442, 5.53374 5.41613, 5.32391 5.13785, 5.06189 4.91343, 4.7477 4.74286, 4.4335 4.5723, 4.06994 4.48702, 3.657 4.48646, 3.04096 4.48702, 2.49673 4.67105, 2.02544 5.0391, 1.55415 5.40716, 1.24108 5.8128, 1.08678 6.25492, 1.05649 6.26726, 1.10586 6.27343, 1.2349 6.27287 L 1.392 6.27287 C 1.57715 6.31551, 1.73705 6.38004, 1.87283 6.46644, 2.00861 6.5534, 2.1225 6.67291, 2.21508 6.82552, 2.30765 6.97812, 2.35366 7.16215, 2.35366 7.37704, 2.35366 7.73668, 2.23696 8.01216, 2.00243 8.20348, 1.76791 8.39536, 1.5059 8.49074, 1.21639 8.49018, 0.939226 8.49074, 0.680578 8.39536, 0.439883 8.20348, 0.19975 8.01216, 0.0791219 7.73668, 0.0791219 7.37704, 0.0791219 6.87489, 0.177868 6.39911, 0.375361 5.95026, 0.572854 5.50142, 0.84048 5.1126, 1.17936 4.78326, 1.51824 4.45448, 1.91884 4.19415, 2.38115 4.00226, 2.84346 3.81094, 3.33383 3.715, 3.85113 3.71444, 4.49186 3.715, 5.07928 3.80926, 5.61229 3.99778, 6.1453 4.18629, 6.59976 4.45728, 6.97567 4.81019, 7.35157 5.16366, 7.64613 5.57211, 7.85877 6.03554, 8.07141 6.49954, 8.17745 7.01235, 8.17745 7.57453, 8.17745 8.19731, 8.03607 8.77071, 7.75217 9.29418, 7.46884 9.81821, 7.11761 10.2985, 6.6985 10.735, 6.27939 11.172, 5.83391 11.5833, 5.36262 11.9693, 4.89133 12.3553, 4.46436 12.7307, 4.08228 13.0954 L 1.95587 15.0972, 4.73872 15.0972 C 5.12697 15.0978, 5.48942 15.095, 5.82493 15.0888, 6.16101 15.0832, 6.44603 15.0708, 6.67999 15.0529, 6.91451 15.0349, 7.03458 15.0232, 7.04019 15.0164, 7.08956 14.9749, 7.13613 14.8913, 7.17933 14.7656, 7.22253 14.64, 7.26237 14.4918, 7.2994 14.3213, 7.33643 14.1507, 7.37346 13.9773, 7.41049 13.8006, 7.44752 13.6244, 7.48118 13.4309, 7.51204 13.221 L 8.19597 13.221 Z" stroke="none" fill="#000000" />
			<path d="M 23.3964 16.6044 C 23.3586 16.751, 23.255 16.8243, 23.085 16.8243 L 19.9631 16.8243 C 19.7558 16.8243, 19.6516 16.7241, 19.6516 16.522, 19.6516 15.7714, 19.7633 15.0478, 19.9865 14.3516, 20.2098 13.6554, 20.4537 12.9673, 20.7176 12.286, 20.9821 11.6053, 21.2209 10.9257, 21.4344 10.2479, 21.6485 9.57, 21.755 8.88013, 21.755 8.17708, 21.755 7.62805, 21.6703 7.09561, 21.5003 6.57921, 21.3308 6.06338, 21.0634 5.60995, 20.6987 5.21893, 20.3341 4.82848, 19.9035 4.52905, 19.4066 4.32123, 18.9097 4.11398, 18.391 4.00979, 17.8499 4.00921, 17.3095 4.00979, 16.7908 4.11398, 16.2939 4.32123, 15.7969 4.52905, 15.3681 4.82848, 15.0063 5.21893, 14.6445 5.60995, 14.3771 6.06338, 14.2042 6.57921, 14.0313 7.09561, 13.9448 7.62805, 13.9448 8.17708, 13.9448 8.88013, 14.0536 9.57, 14.27 10.2479, 14.487 10.9257, 14.7275 11.6053, 14.9914 12.286, 15.2559 12.9673, 15.4992 13.6571, 15.7225 14.3562, 15.9458 15.0558, 16.0574 15.7777, 16.0574 16.522, 16.0574 16.7241, 15.9601 16.8243, 15.7654 16.8243 L 12.6143 16.8243 C 12.4512 16.8243, 12.3504 16.751, 12.3126 16.6044 L 11.6525 13.9846 C 11.6525 13.8203, 11.7407 13.7167, 11.9164 13.6732 L 12.0201 13.6732 C 12.1838 13.6738, 12.2846 13.7499, 12.3224 13.9022, 12.4231 14.3241, 12.5159 14.6722, 12.6006 14.947, 12.6853 15.2218, 12.7437 15.3684, 12.7746 15.3861, 12.8376 15.4354, 12.9888 15.4663, 13.2275 15.4783, 13.4668 15.4909, 13.7531 15.4966, 14.0863 15.496 L 15.2937 15.496 C 15.162 14.947, 14.9118 14.3825, 14.5437 13.802, 14.1761 13.222, 13.7937 12.6387, 13.3975 12.0524, 13.0014 11.4662, 12.651 10.8587, 12.3458 10.2295, 12.0413 9.60092, 11.8884 8.91677, 11.8884 8.17708, 11.8884 7.49351, 12.0487 6.86203, 12.3693 6.28151, 12.6899 5.70155, 13.121 5.20347, 13.6615 4.78783, 14.2466 4.31837, 14.9009 3.96857, 15.624 3.73956, 16.3471 3.51056, 17.0891 3.39606, 17.8499 3.39548, 18.6114 3.39606, 19.3533 3.51056, 20.0764 3.73956, 20.7995 3.96857, 21.463 4.31837, 22.0665 4.78783, 22.5949 5.21606, 23.0226 5.71816, 23.3495 6.29525, 23.6764 6.87234, 23.8395 7.49981, 23.8395 8.17708, 23.8395 8.91677, 23.6872 9.60092, 23.3821 10.2295, 23.0775 10.8587, 22.7237 11.4662, 22.3212 12.0524, 21.9188 12.6387, 21.5317 13.222, 21.1608 13.802, 20.7898 14.3825, 20.5384 14.947, 20.4062 15.496 L 21.6228 15.496 C 21.9565 15.4966, 22.2428 15.4909, 22.4815 15.4783, 22.7208 15.4663, 22.8714 15.4354, 22.9344 15.3861, 22.9533 15.3747, 23.0065 15.2281, 23.0947 14.947, 23.1829 14.6665, 23.2768 14.3178, 23.3775 13.9022, 23.4153 13.7562, 23.5195 13.68, 23.689 13.6732 L 23.7926 13.6732 C 23.9626 13.7104, 24.0474 13.814, 24.0474 13.9846 Z" stroke="none" fill="#000000" />
			<rect />
		</svg>
	</g>
</svg>
