<?xml version="1.0"?>
<svg xmlns="http://www.w3.org/2000/svg" xmlns:xlink="http://www.w3.org/1999/xlink" width="604.540222" height="203.741791">
	<defs />
	<path d="M -125.074 0 L 125.074 0" fill="none" stroke="#000000" stroke-width="3.20000029" stroke-linecap="round" stroke-linejoin="round" transform="matrix(0.416667 0 0 0.416667 512 39.8035)" />
	<path d="M -125.074 0 L 125.074 0" fill="none" stroke="#000000" stroke-width="3.20000029" stroke-linecap="round" stroke-linejoin="round" transform="matrix(0.416667 0 0 0.416667 512 163.105)" />
	<path d="M -34.4176 0 L 34.4176 0" fill="none" stroke="#000000" stroke-width="2.4000001" stroke-linecap="round" stroke-linejoin="round" transform="matrix(0.416667 0 -0 0.416667 526.962 39.8035)" />
	<path d="M -15.8321 -9.67569 L -15.8321 9.67569, 15.8321 0 Z" stroke="none" fill="#000000" transform="matrix(0.416667 0 -0 0.416667 526.962 39.8035)" />
	<path d="M -60.9249 -172.915 L 60.9249 -172.915, 60.9249 172.915, -60.9249 172.915 Z" fill="none" stroke="#000000" stroke-width="3.20000029" stroke-linecap="round" stroke-linejoin="round" transform="matrix(0.416667 0 -0 0.416667 434.5 101.676)" />
	<g transform="matrix(1 0 -0 1 425.795 92.0198)">
		<svg width="56.9641113" height="45.2233963">
			<defs />
			<path d="M 13.2314 3.69557 C 13.2157 3.76427, 13.1793 3.82169, 13.1224 3.8688, 13.0655 3.9159, 12.9968 3.93946, 12.9158 3.93897, 12.722 3.93946, 12.5335 3.95418, 12.35 3.98264, 12.1665 4.0116, 11.9967 4.08079, 11.8402 4.19022, 11.7111 4.26923, 11.6085 4.37277, 11.533 4.50085, 11.4574 4.62942, 11.401 4.76633, 11.3632 4.91256 L 8.97777 14.201 C 8.91839 14.358, 8.81338 14.4365, 8.66224 14.4365 L 8.47625 14.4365 C 8.37909 14.4365, 8.30646 14.3948, 8.25788 14.3109, 7.6489 12.6679, 7.04383 11.0284, 6.4427 9.39237, 5.84156 7.75679, 5.26595 6.21101, 4.71585 4.75553 L 2.62929 12.8662 C 2.59691 12.9555, 2.58071 13.0448, 2.58071 13.1331, 2.58071 13.1704, 2.58611 13.2097, 2.59691 13.2509, 2.6131 13.377, 2.66168 13.4767, 2.74216 13.5493, 2.83932 13.644, 2.96887 13.7068, 3.13081 13.7382, 3.29275 13.7696, 3.47579 13.7853, 3.68042 13.7848, 3.83156 13.7853, 3.90714 13.8481, 3.90714 13.9733, 3.90714 14.0052, 3.90174 14.039, 3.89094 14.0753 L 3.85855 14.1931 C 3.84236 14.2667, 3.8031 14.3256, 3.74127 14.3698, 3.67944 14.4144, 3.61319 14.4365, 3.54302 14.4365, 3.00421 14.4051, 2.45705 14.3894, 1.90155 14.3894, 1.35194 14.3894, 0.796445 14.4051, 0.235549 14.4365, 0.15458 14.4365, 0.0952021 14.413, 0.0574164 14.3658, 0.0201215 14.3295, 0.00147406 14.2903, 0.000983339 14.2481, 0.00147406 14.2172, 0.00687201 14.1857, 0.0171772 14.1539 L 0.0495649 14.0361 C 0.0657587 13.9684, 0.103544 13.91, 0.162922 13.8599, 0.222299 13.8103, 0.289528 13.7853, 0.364609 13.7848, 0.569731 13.7853, 0.761603 13.7696, 0.939245 13.7382, 1.11689 13.7068, 1.28668 13.6415, 1.44862 13.5414, 1.57277 13.4634, 1.67238 13.3604, 1.74796 13.2318, 1.82353 13.1037, 1.88241 12.9663, 1.9256 12.8191 L 4.18979 4.01748 C 4.09852 3.98657, 3.93265 3.96596, 3.69269 3.95516, 3.45273 3.94486, 3.19804 3.93946, 2.92814 3.93897, 2.84767 3.93946, 2.78829 3.91345, 2.7505 3.86045, 2.71811 3.82954, 2.70192 3.79028, 2.70192 3.74268, 2.70192 3.71176, 2.71026 3.68281, 2.72597 3.65631 L 2.7505 3.53069 C 2.80988 3.37415, 2.91489 3.29563, 3.06604 3.29514 L 5.59718 3.29514 C 5.69975 3.29563, 5.76697 3.33734, 5.79936 3.42077 L 8.88061 11.7277, 10.6516 4.86545 C 10.684 4.77173, 10.7002 4.67751, 10.7002 4.5828, 10.7002 4.42086, 10.6492 4.28738, 10.5466 4.18237, 10.4337 4.07294, 10.3003 4.00522, 10.1462 3.97872, 9.99259 3.95271, 9.81347 3.93946, 9.60835 3.93897, 9.52787 3.93946, 9.46849 3.9159, 9.43022 3.86831, 9.39292 3.83199, 9.37379 3.79028, 9.37379 3.74268, 9.37379 3.71176, 9.38213 3.68281, 9.39783 3.65631 L 9.42237 3.53069 C 9.48174 3.37415, 9.58676 3.29563, 9.7379 3.29514, 10.288 3.31673, 10.8406 3.32704, 11.3956 3.32655, 11.9457 3.32704, 12.4982 3.31673, 13.0532 3.29514, 13.1288 3.29563, 13.1936 3.32164, 13.2476 3.37366, 13.2691 3.41586, 13.2799 3.45512, 13.2799 3.49143, 13.2799 3.52333, 13.2721 3.55228, 13.2554 3.5778 Z" stroke="none" fill="#000000" />
			<path d="M 2.04975 2.7404 L -1.63593 2.7404, -1.63593 2.49857 C -1.63593 2.48126, -1.62686 2.45487, -1.60872 2.41943 L -0.128074 0.810169 C 0.0472517 0.616981, 0.224501 0.419122, 0.404223 0.216866, 0.583945 0.0146096, 0.744431 -0.192044, 0.88623 -0.403094, 1.02803 -0.614144, 1.14125 -0.831789, 1.22589 -1.05603, 1.31053 -1.28027, 1.35257 -1.5155, 1.35257 -1.762, 1.35257 -1.96976, 1.32564 -2.16404, 1.27123 -2.34431, 1.21682 -2.52459, 1.1385 -2.68287, 1.03572 -2.81918, 0.932947 -2.95548, 0.804614 -3.0654, 0.650723 -3.14894, 0.496832 -3.23248, 0.318759 -3.27425, 0.116503 -3.27453, -0.185233 -3.27425, -0.451793 -3.18412, -0.682629 -3.00385, -0.913465 -2.82357, -1.06681 -2.62489, -1.14238 -2.40834, -1.15722 -2.4023, -1.13303 -2.39928, -1.06983 -2.39955 L -0.992884 -2.39955 C -0.902198 -2.37866, -0.823879 -2.34706, -0.757376 -2.30474, -0.690874 -2.26215, -0.635088 -2.20361, -0.589745 -2.12887, -0.544403 -2.05412, -0.521869 -1.96398, -0.521869 -1.85873, -0.521869 -1.68258, -0.579028 -1.54766, -0.693896 -1.45395, -0.808765 -1.35996, -0.937099 -1.31325, -1.0789 -1.31352, -1.21465 -1.31325, -1.34134 -1.35996, -1.45923 -1.45395, -1.57684 -1.54766, -1.63593 -1.68258, -1.63593 -1.85873, -1.63593 -2.10468, -1.58756 -2.33772, -1.49083 -2.55756, -1.3941 -2.77741, -1.26302 -2.96785, -1.09703 -3.12916, -0.931053 -3.29019, -0.734842 -3.4177, -0.508403 -3.51168, -0.281964 -3.60539, -0.041785 -3.65238, 0.211585 -3.65266, 0.525412 -3.65238, 0.813133 -3.60622, 1.0742 -3.51388, 1.33526 -3.42155, 1.55785 -3.28882, 1.74197 -3.11597, 1.92609 -2.94284, 2.07036 -2.74278, 2.17451 -2.51579, 2.27867 -2.28853, 2.3306 -2.03736, 2.3306 -1.762, 2.3306 -1.45697, 2.26135 -1.17612, 2.1223 -0.919726, 1.98353 -0.663059, 1.8115 -0.427826, 1.60622 -0.214028, 1.40094 4.48227e-005, 1.18274 0.201477, 0.951909 0.390542, 0.721073 0.579608, 0.511946 0.763452, 0.324805 0.942075 L -0.716705 1.92258, 0.646326 1.92258 C 0.836491 1.92285, 1.01401 1.92148, 1.17835 1.91846, 1.34296 1.91571, 1.48256 1.90966, 1.59715 1.90087, 1.71202 1.89208, 1.77083 1.8863, 1.77357 1.88301, 1.79776 1.86267, 1.82057 1.82173, 1.84173 1.76017, 1.86289 1.69861, 1.8824 1.62606, 1.90053 1.54252, 1.91867 1.45898, 1.93681 1.37407, 1.95495 1.2875, 1.97308 1.20122, 1.98957 1.10641, 2.00469 1.00363 L 2.33967 1.00363 Z" stroke="none" fill="#000000" transform="matrix(1.12 0 0 1 14.9486 13.9768)" />
			<rect />
		</svg>
	</g>
	<ellipse cx="1675.0520267486572" cy="471.0383243560791" rx="9.6000003814697266" ry="9.6000003814697266" stroke="none" fill="#000000" transform="matrix(0.416667 0 0 0.416667 -203.98 -156.462)" />
	<ellipse cx="1675.0519781112671" cy="471.03833675384521" rx="6.4000005722045898" ry="6.4000005722045898" stroke="none" fill="#FFFFFF" transform="matrix(0.416667 0 0 0.416667 -203.98 -156.462)" />
	<ellipse cx="1675.0520267486572" cy="766.96236610412598" rx="9.6000003814697266" ry="9.6000003814697266" stroke="none" fill="#000000" transform="matrix(0.416667 0 0 0.416667 -203.98 -156.462)" />
	<ellipse cx="1675.0519781112671" cy="766.96231746673584" rx="6.4000005722045898" ry="6.4000005722045898" stroke="none" fill="#FFFFFF" transform="matrix(0.416667 0 0 0.416667 -203.98 -156.462)" />
	<g transform="matrix(1 0 -0 1 489.727 9)">
		<svg width="29.9820557" height="32.8723297">
			<defs />
			<path d="M 8.45998 14.0579 C 8.38498 14.3579, 8.30025 14.6785, 8.20578 15.0203, 8.11132 15.3627, 7.98537 15.6798, 7.82793 15.973, 7.67106 16.2661, 7.47297 16.5197, 7.23366 16.7332, 6.99493 16.9468, 6.69607 17.0533, 6.33711 17.0533, 5.85964 17.0533, 5.4772 16.921, 5.19095 16.6554, 4.90469 16.3897, 4.73981 16.1195, 4.69573 15.8441, 4.48161 16.0892, 4.16272 16.352, 3.73792 16.6325, 3.31369 16.913, 2.86541 17.0533, 2.39366 17.0533, 1.89673 17.0533, 1.47994 16.9285, 1.1433 16.6783, 0.806667 16.4281, 0.544458 16.1132, 0.35553 15.7342, 0.129388 15.2831, 0.00973374 14.7976, -0.00286144 14.2778 L -0.00286144 14.1403 C -0.00286144 13.6583, 0.0635496 13.1762, 0.195227 12.693, 0.34637 12.1623, 0.557053 11.6373, 0.827278 11.1181, 1.09807 10.5994, 1.45647 10.1167, 1.90302 9.67019, 2.26828 9.30436, 2.68507 8.99635, 3.15338 8.74559, 3.6217 8.4954, 4.09803 8.37002, 4.58237 8.36945, 5.00374 8.37002, 5.34667 8.48166, 5.6106 8.70437, 5.8751 8.92765, 6.0417 9.112, 6.11097 9.25799 L 6.07318 9.41371 C 6.11727 9.18814, 6.22261 9.01753, 6.38921 8.90131, 6.55638 8.78566, 6.7247 8.72727, 6.89416 8.7267, 7.08882 8.72727, 7.25255 8.78509, 7.3848 8.90074, 7.46667 8.99291, 7.51076 9.11486, 7.51648 9.26715, 7.51648 9.32268, 7.51018 9.38394, 7.49759 9.45035 L 6.13902 14.7449 C 6.07605 14.9957, 6.03196 15.231, 6.00677 15.4503, 5.99475 15.5607, 5.98845 15.6615, 5.98845 15.7525, 5.98845 15.8327, 5.99475 15.918, 6.00677 16.009, 6.02624 16.1562, 6.07032 16.2661, 6.13902 16.3394, 6.2083 16.4126, 6.30562 16.4493, 6.43158 16.4487, 6.56383 16.4493, 6.68806 16.3943, 6.80428 16.2844, 6.92107 16.1745, 7.02813 16.0113, 7.12546 15.7943, 7.22278 15.5779, 7.31553 15.318, 7.4037 15.0157, 7.49186 14.7134, 7.58289 14.3854, 7.67678 14.0304, 7.71457 13.8724, 7.82163 13.7928, 7.99796 13.7923 L 8.21494 13.7923 C 8.37868 13.7928, 8.45998 13.8598, 8.45998 13.9938 L 8.45998 14.0579 Z M 5.76174 10.687 C 5.73655 10.5776, 5.71479 10.4631, 5.6959 10.344, 5.67701 10.225, 5.64838 10.1076, 5.6106 9.9908, 5.51041 9.70454, 5.36728 9.46466, 5.18179 9.2723, 4.99629 9.07994, 4.76156 8.98375, 4.47874 8.98318, 4.21482 8.98375, 3.95375 9.07879, 3.69555 9.26772, 3.43792 9.45722, 3.20205 9.70111, 2.98793 9.99996, 2.68622 10.4219, 2.46008 10.8604, 2.30893 11.315, 2.15779 11.7702, 2.01924 12.2448, 1.89329 12.7388, 1.76791 13.2278, 1.66429 13.7012, 1.58185 14.1587, 1.53204 14.3911, 1.50685 14.611, 1.50685 14.8182, 1.50685 15.0386, 1.53204 15.2522, 1.58185 15.4594, 1.6391 15.7468, 1.741 15.9838, 1.88871 16.1699, 2.03642 16.3565, 2.24252 16.4493, 2.50645 16.4487, 2.79614 16.4493, 3.08697 16.3485, 3.37953 16.147, 3.67208 15.9455, 3.94402 15.6981, 4.19535 15.4045, 4.29611 15.2831, 4.3923 15.1657, 4.48332 15.0524, 4.57493 14.9396, 4.65508 14.8188, 4.72378 14.69 L 5.76174 10.687 Z" stroke="none" fill="#000000" />
			<rect />
		</svg>
	</g>
	<g transform="matrix(1 0 -0 1 490.544 172.327)">
		<svg width="23.9541492" height="48.0957298">
			<defs />
			<path d="M 6.63739 12.748 C 6.48682 13.2799, 6.27442 13.8054, 6.00076 14.3241, 5.7271 14.8434, 5.37043 15.3226, 4.93017 15.7617, 4.56548 16.1287, 4.15213 16.4355, 3.68954 16.6829, 3.22752 16.9302, 2.74776 17.0533, 2.25082 17.0533, 1.77335 17.0533, 1.37374 16.9256, 1.05313 16.6691, 0.732527 16.4126, 0.487493 16.0949, 0.317458 15.7159, 0.116507 15.2648, 0.00944746 14.7793, -0.00314784 14.2594 L -0.00314784 14.1403 C -0.00314784 13.6583, 0.0598283 13.1791, 0.185208 12.7022 L 2.08136 5.32828 C 2.13174 5.12733, 2.16323 4.97447, 2.17582 4.87027 L 2.17582 4.84279 C 2.17582 4.7884, 2.16323 4.7489, 2.13804 4.72371, 2.06247 4.67562, 1.92106 4.64184, 1.71381 4.62352, 1.50656 4.6052, 1.26725 4.59604, 0.996454 4.59547, 0.902563 4.59604, 0.833289 4.56569, 0.789206 4.50386, 0.75142 4.4678, 0.732527 4.422, 0.732527 4.36646, 0.732527 4.33039, 0.74226 4.29662, 0.76058 4.2657 L 0.789206 4.11914 C 0.839587 3.97315, 0.952371 3.88155, 1.1287 3.84433 L 3.62828 3.64281, 3.66607 3.64281 C 3.74164 3.64338, 3.80461 3.668, 3.85442 3.71609, 3.87961 3.76533, 3.89221 3.81456, 3.89221 3.86265, 3.89221 3.89987, 3.88305 3.93364, 3.86416 3.96342 L 2.50559 9.23967 C 2.64414 9.09997, 2.8989 8.91963, 3.26989 8.69979, 3.64088 8.47994, 4.03076 8.37002, 4.43953 8.36945, 4.93647 8.37002, 5.35669 8.49827, 5.69905 8.75475, 6.04198 9.01123, 6.30419 9.32554, 6.48625 9.69767, 6.70037 10.15, 6.81373 10.6389, 6.82632 11.1633 L 6.82632 11.2915 C 6.82632 11.7621, 6.76334 12.2476, 6.63739 12.748 Z M 5.26967 9.96332 C 5.21356 9.67076, 5.1065 9.43432, 4.94906 9.25398, 4.79219 9.07421, 4.58781 8.98375, 4.3359 8.98318, 4.03419 8.98375, 3.73878 9.08165, 3.44909 9.27688, 3.15997 9.47268, 2.88974 9.71943, 2.63784 10.0183, 2.44319 10.269, 2.27315 10.5043, 2.12831 10.7236 L 1.60961 12.7388 C 1.48423 13.2278, 1.38977 13.6984, 1.32679 14.1495, 1.3016 14.3396, 1.28901 14.5194, 1.28901 14.69, 1.28901 14.959, 1.32049 15.2155, 1.38347 15.4594, 1.45274 15.7411, 1.56725 15.9764, 1.72755 16.1653, 1.88785 16.3548, 2.10025 16.4493, 2.36418 16.4487, 2.62868 16.4493, 2.89089 16.352, 3.15195 16.1562, 3.41302 15.9609, 3.64717 15.7165, 3.85442 15.4228, 4.15671 15.014, 4.38457 14.5795, 4.53857 14.118, 4.69315 13.6572, 4.83284 13.1854, 4.95822 12.7022, 5.08417 12.2018, 5.19467 11.7198, 5.28856 11.2549, 5.32635 11.0356, 5.34524 10.8221, 5.34524 10.6137, 5.34524 10.3944, 5.32005 10.1774, 5.26967 9.96332 Z" stroke="none" fill="#000000" />
			<rect />
		</svg>
	</g>
	<g transform="matrix(1 0 -0 1 489.237 90.4684)">
		<svg width="33.1395264" height="32.8723297">
			<defs />
			<path d="M 9.41235 14.0854 C 9.34365 14.3671, 9.26178 14.6785, 9.16732 15.0203, 9.07285 15.3627, 8.9469 15.6798, 8.79003 15.973, 8.63316 16.2661, 8.43507 16.5197, 8.19577 16.7332, 7.95646 16.9468, 7.65761 17.0533, 7.29922 17.0533, 6.85953 17.0533, 6.504 16.9405, 6.23378 16.7149, 5.96355 16.4894, 5.79638 16.2569, 5.7334 16.0182, 5.51986 16.2815, 5.2336 16.5197, 4.87521 16.7332, 4.51682 16.9468, 4.10175 17.0533, 3.63 17.0533, 3.20234 17.0533, 2.82047 16.9743, 2.48384 16.8151, 2.1472 16.6571, 1.88156 16.4126, 1.6869 16.0823, 1.49798 15.7285, 1.40695 15.338, 1.41324 14.9098 L 1.41324 14.8365 C 1.42584 14.3911, 1.48252 13.9486, 1.58271 13.5083, 1.68347 13.0875, 1.83003 12.6238, 2.02182 12.1165, 2.21361 11.6099, 2.39739 11.1181, 2.57315 10.6412, 2.76208 10.1351, 2.85654 9.71943, 2.85654 9.39539, 2.85654 9.12116, 2.74032 8.98375, 2.50731 8.98318, 2.29376 8.98375, 2.10026 9.04501, 1.92736 9.16696, 1.75446 9.28947, 1.59759 9.45894, 1.45561 9.67535, 1.3142 9.89233, 1.1871 10.1488, 1.07375 10.4448, 0.960389 10.7414, 0.865925 11.0568, 0.790353 11.3923, 0.721652 11.5578, 0.605433 11.6431, 0.441695 11.6488 L 0.224714 11.6488 C 0.0735712 11.6494, -0.00200012 11.5732, -0.00200012 11.4198 L -0.00200012 11.3557 C 0.0861664 11.0202, 0.202958 10.6772, 0.347231 10.3257, 0.492076 9.97477, 0.674706 9.65588, 0.89455 9.36848, 1.11439 9.08165, 1.3663 8.84349, 1.64912 8.65399, 1.93194 8.46506, 2.25598 8.37002, 2.62067 8.36945, 2.93555 8.37002, 3.20405 8.43758, 3.42733 8.57155, 3.65061 8.70609, 3.82007 8.88471, 3.93629 9.10742, 4.05309 9.33069, 4.11721 9.58203, 4.1298 9.86256 L 4.1298 9.92668 C 4.1298 10.19, 4.07656 10.4614, 3.9695 10.7419, 3.78744 11.2188, 3.60653 11.706, 3.42733 12.2035, 3.24814 12.7016, 3.10845 13.1488, 3.00768 13.5455, 2.90692 13.9428, 2.83765 14.3361, 2.79986 14.7266, 2.77467 14.8308, 2.75921 14.9442, 2.75234 15.0655, 2.75234 15.3043, 2.79356 15.5396, 2.87543 15.7709, 2.93211 15.9792, 3.03574 16.1441, 3.18688 16.2661, 3.33802 16.3886, 3.51722 16.4493, 3.72447 16.4487, 4.13953 16.4493, 4.50136 16.3245, 4.80937 16.0737, 5.11738 15.8235, 5.38761 15.4903, 5.62005 15.0747, 5.63264 15.0266, 5.64237 14.9699, 5.64867 14.9058, 5.65497 14.8417, 5.66413 14.7758, 5.67672 14.7083 L 7.09197 9.24883 C 7.14865 9.02326, 7.26315 8.85723, 7.43605 8.75017, 7.60894 8.64368, 7.78356 8.58987, 7.95932 8.58929, 8.14195 8.58987, 8.29309 8.64483, 8.41218 8.75418, 8.49462 8.83433, 8.53526 8.94081, 8.53526 9.07478, 8.53526 9.14234, 8.52897 9.21276, 8.51637 9.28547 L 7.10113 14.7449 C 7.00037 15.1239, 6.94999 15.46, 6.94999 15.7525, 6.94999 15.8327, 6.95628 15.918, 6.96888 16.009, 7.00094 16.3027, 7.14865 16.4493, 7.41257 16.4487, 7.67707 16.4493, 7.90493 16.2237, 8.09672 15.7714, 8.28851 15.3197, 8.47572 14.7392, 8.65778 14.0304, 8.69557 13.8724, 8.80263 13.7928, 8.97839 13.7923 L 9.19537 13.7923 C 9.26464 13.7928, 9.33392 13.814, 9.40262 13.8564, 9.42781 13.9119, 9.4404 13.9577, 9.4404 13.9938, 9.4404 14.019, 9.43124 14.0493, 9.41235 14.0854 Z" stroke="none" fill="#000000" />
			<rect />
		</svg>
	</g>
	<g transform="matrix(1 0 -0 1 488.33 43.8823)">
		<svg width="119.826561" height="119.904221">
			<defs />
			<polyline points="-5.628 0 5.628 0" fill="none" stroke="#000000" stroke-width="0.64319998" stroke-linecap="round" stroke-linejoin="round" transform="matrix(1 0 0 1 5.628 9.60638)" />
			<polyline points="0 -5.628 0 5.628" fill="none" stroke="#000000" stroke-width="0.64319998" stroke-linecap="round" stroke-linejoin="round" transform="matrix(1 0 0 1 5.628 9.60638)" />
			<rect />
		</svg>
	</g>
	<g transform="matrix(1 0 -0 1 488.33 139.553)">
		<svg width="119.826561" height="83.9999847">
			<defs />
			<polyline points="-5.628 0 5.628 0" fill="none" stroke="#000000" stroke-width="0.64319998" stroke-linecap="round" stroke-linejoin="round" transform="matrix(1 0 0 1 5.628 9.60638)" />
			<rect />
		</svg>
	</g>
	<g transform="matrix(1 0 -0 1 521.337 45.4062)">
		<svg width="17.9262428" height="44.9361572">
			<defs />
			<path d="M 4.85632 5.20004 C 4.79964 5.43248, 4.66911 5.62656, 4.46472 5.78228, 4.26033 5.938, 4.03877 6.01586, 3.79946 6.01529, 3.54813 6.01586, 3.35634 5.93056, 3.22409 5.75881, 3.1365 5.66148, 3.08955 5.5424, 3.08268 5.40156, 3.08268 5.31683, 3.09528 5.23095, 3.12047 5.14507, 3.17715 4.91378, 3.3094 4.7197, 3.51664 4.56398, 3.72447 4.40825, 3.94774 4.33039, 4.18648 4.32982, 4.43839 4.33039, 4.63018 4.41284, 4.76185 4.57715, 4.85002 4.69394, 4.8941 4.81874, 4.8941 4.95271, 4.8941 5.03859, 4.88151 5.12103, 4.85632 5.20004 Z M 4.95994 14.0854 C 4.89124 14.4037, 4.78418 14.738, 4.63934 15.089, 4.49506 15.4405, 4.31701 15.7594, 4.10633 16.0462, 3.89565 16.3336, 3.64889 16.5729, 3.36607 16.7647, 3.08325 16.9571, 2.75578 17.0533, 2.38479 17.0533, 2.07048 17.0533, 1.80026 16.9863, 1.57355 16.8518, 1.3474 16.7178, 1.17279 16.5409, 1.05027 16.321, 0.927755 16.1012, 0.865924 15.8567, 0.865924 15.5877, 0.853329 15.5762, 0.847031 15.5516, 0.847031 15.5144, 0.847031 15.2401, 0.907145 14.959, 1.02623 14.6716 L 2.55426 10.6412 C 2.74318 10.1351, 2.83765 9.71943, 2.83765 9.39539, 2.83765 9.12116, 2.72143 8.98375, 2.48842 8.98318, 2.27487 8.98375, 2.08308 9.04501, 1.91304 9.16696, 1.74358 9.28947, 1.58786 9.45894, 1.44645 9.67535, 1.30504 9.89233, 1.17794 10.1488, 1.06459 10.4448, 0.951228 10.7414, 0.856764 11.0568, 0.781193 11.3923, 0.712492 11.5578, 0.5957 11.6431, 0.431962 11.6488 L 0.224713 11.6488 C 0.0735708 11.6494, -0.00200051 11.5732, -0.00200051 11.4198 L -0.00200051 11.3557 C 0.0735708 11.0202, 0.186928 10.6772, 0.33807 10.3257, 0.489213 9.97477, 0.671271 9.65588, 0.884817 9.36848, 1.09894 9.08165, 1.3474 8.84349, 1.63022 8.65399, 1.91304 8.46506, 2.23709 8.37002, 2.60177 8.36945, 2.91665 8.37002, 3.18402 8.43758, 3.40386 8.57155, 3.6237 8.70609, 3.79202 8.88471, 3.90824 9.10742, 4.02503 9.33069, 4.08915 9.58203, 4.10175 9.86256 L 4.10175 9.92668 C 4.10175 10.19, 4.04851 10.4614, 3.94087 10.7419 L 2.41285 14.7907 C 2.23709 15.2859, 2.14892 15.7073, 2.14892 16.0548, 2.13632 16.0674, 2.13003 16.0674, 2.13003 16.0548, 2.13003 16.3182, 2.24968 16.4493, 2.48842 16.4487, 2.70254 16.4493, 2.89547 16.3852, 3.06837 16.2569, 3.24127 16.1287, 3.39871 15.9581, 3.54012 15.7439, 3.6821 15.5304, 3.80633 15.2739, 3.91282 14.9745, 4.01988 14.6756, 4.11721 14.3608, 4.20537 14.0304, 4.24316 13.8724, 4.35308 13.7928, 4.53514 13.7923 L 4.74296 13.7923 C 4.81223 13.7928, 4.88151 13.814, 4.95021 13.8564, 4.96967 13.9056, 4.98513 13.9486, 4.99773 13.9846, 4.99773 14.0218, 4.98513 14.0556, 4.95994 14.0854 Z" stroke="none" fill="#000000" />
			<rect />
		</svg>
	</g>
	<path d="M 0 -147.43 L 0 147.431" fill="none" stroke="#000000" stroke-width="3.20000029" stroke-linecap="round" stroke-linejoin="round" transform="matrix(0.416667 0 0 0.416667 564.114 101.676)" />
	<path d="M -43.7256 -10.9315 L 43.7256 -10.9315, 43.7256 10.9315, -43.7256 10.9315 Z" stroke="none" fill="#FFFFFF" transform="matrix(3.14575e-008 0.416667 -0.416667 3.14575e-008 564.114 101.676)" />
	<path d="M -43.7256 -10.9315 L 43.7256 -10.9315, 43.7256 10.9315, -43.7256 10.9315 Z" fill="none" stroke="#000000" stroke-width="3.60000014" stroke-linecap="round" stroke-linejoin="round" transform="matrix(3.14575e-008 0.416667 -0.416667 3.14575e-008 564.114 101.676)" />
	<path d="M 0 -147.43 L 0 147.431" fill="none" stroke="#000000" stroke-width="3.20000029" stroke-linecap="round" stroke-linejoin="round" transform="matrix(0.416667 0 0 0.416667 299.686 101.676)" />
	<path d="M -288.499 0 L 288.497 0" fill="none" stroke="#000000" stroke-width="3.20000029" stroke-linecap="round" stroke-linejoin="round" transform="matrix(0.416667 0 0 0.416667 179.478 39.8035)" />
	<path d="M -288.499 0 L 288.497 0" fill="none" stroke="#000000" stroke-width="3.20000029" stroke-linecap="round" stroke-linejoin="round" transform="matrix(0.416667 0 0 0.416667 179.478 163.105)" />
	<path d="M -34.4176 0 L 34.4176 0" fill="none" stroke="#000000" stroke-width="2.4000001" stroke-linecap="round" stroke-linejoin="round" transform="matrix(0.416667 0 -0 0.416667 126.347 39.8035)" />
	<path d="M -15.8321 -9.67569 L -15.8321 9.67569, 15.8321 0 Z" stroke="none" fill="#000000" transform="matrix(0.416667 0 -0 0.416667 126.347 39.8035)" />
	<path d="M -60.9248 -172.915 L 60.9248 -172.915, 60.9248 172.915, -60.9248 172.915 Z" fill="none" stroke="#000000" stroke-width="3.20000029" stroke-linecap="round" stroke-linejoin="round" transform="matrix(0.416667 0 -0 0.416667 33.8853 101.676)" />
	<g transform="matrix(1 0 -0 1 25.1803 92.0198)">
		<svg width="56.9641113" height="45.2233963">
			<defs />
			<path d="M 13.2314 3.69557 C 13.2157 3.76427, 13.1793 3.82169, 13.1224 3.8688, 13.0655 3.9159, 12.9968 3.93946, 12.9158 3.93897, 12.722 3.93946, 12.5335 3.95418, 12.35 3.98264, 12.1665 4.0116, 11.9967 4.08079, 11.8402 4.19022, 11.7111 4.26923, 11.6085 4.37277, 11.533 4.50085, 11.4574 4.62942, 11.401 4.76633, 11.3632 4.91256 L 8.97777 14.201 C 8.91839 14.358, 8.81338 14.4365, 8.66224 14.4365 L 8.47625 14.4365 C 8.37909 14.4365, 8.30646 14.3948, 8.25788 14.3109, 7.6489 12.6679, 7.04383 11.0284, 6.4427 9.39237, 5.84156 7.75679, 5.26595 6.21101, 4.71585 4.75553 L 2.62929 12.8662 C 2.59691 12.9555, 2.58071 13.0448, 2.58071 13.1331, 2.58071 13.1704, 2.58611 13.2097, 2.59691 13.2509, 2.6131 13.377, 2.66168 13.4767, 2.74216 13.5493, 2.83932 13.644, 2.96887 13.7068, 3.13081 13.7382, 3.29275 13.7696, 3.47579 13.7853, 3.68042 13.7848, 3.83156 13.7853, 3.90714 13.8481, 3.90714 13.9733, 3.90714 14.0052, 3.90174 14.039, 3.89094 14.0753 L 3.85855 14.1931 C 3.84236 14.2667, 3.8031 14.3256, 3.74127 14.3698, 3.67944 14.4144, 3.61319 14.4365, 3.54302 14.4365, 3.00421 14.4051, 2.45705 14.3894, 1.90155 14.3894, 1.35194 14.3894, 0.796445 14.4051, 0.235549 14.4365, 0.15458 14.4365, 0.0952021 14.413, 0.0574164 14.3658, 0.0201215 14.3295, 0.00147406 14.2903, 0.000983339 14.2481, 0.00147406 14.2172, 0.00687201 14.1857, 0.0171772 14.1539 L 0.0495649 14.0361 C 0.0657587 13.9684, 0.103544 13.91, 0.162922 13.8599, 0.222299 13.8103, 0.289528 13.7853, 0.364609 13.7848, 0.569731 13.7853, 0.761603 13.7696, 0.939245 13.7382, 1.11689 13.7068, 1.28668 13.6415, 1.44862 13.5414, 1.57277 13.4634, 1.67238 13.3604, 1.74796 13.2318, 1.82353 13.1037, 1.88241 12.9663, 1.9256 12.8191 L 4.18979 4.01748 C 4.09852 3.98657, 3.93265 3.96596, 3.69269 3.95516, 3.45273 3.94486, 3.19804 3.93946, 2.92814 3.93897, 2.84767 3.93946, 2.78829 3.91345, 2.7505 3.86045, 2.71811 3.82954, 2.70192 3.79028, 2.70192 3.74268, 2.70192 3.71176, 2.71026 3.68281, 2.72597 3.65631 L 2.7505 3.53069 C 2.80988 3.37415, 2.91489 3.29563, 3.06604 3.29514 L 5.59718 3.29514 C 5.69975 3.29563, 5.76697 3.33734, 5.79936 3.42077 L 8.88061 11.7277, 10.6516 4.86545 C 10.684 4.77173, 10.7002 4.67751, 10.7002 4.5828, 10.7002 4.42086, 10.6492 4.28738, 10.5466 4.18237, 10.4337 4.07294, 10.3003 4.00522, 10.1462 3.97872, 9.99259 3.95271, 9.81347 3.93946, 9.60835 3.93897, 9.52787 3.93946, 9.46849 3.9159, 9.43022 3.86831, 9.39292 3.83199, 9.37379 3.79028, 9.37379 3.74268, 9.37379 3.71176, 9.38213 3.68281, 9.39783 3.65631 L 9.42237 3.53069 C 9.48174 3.37415, 9.58676 3.29563, 9.7379 3.29514, 10.288 3.31673, 10.8406 3.32704, 11.3956 3.32655, 11.9457 3.32704, 12.4982 3.31673, 13.0532 3.29514, 13.1288 3.29563, 13.1936 3.32164, 13.2476 3.37366, 13.2691 3.41586, 13.2799 3.45512, 13.2799 3.49143, 13.2799 3.52333, 13.2721 3.55228, 13.2554 3.5778 Z" stroke="none" fill="#000000" />
			<path d="M 2.04975 2.7404 L -1.63593 2.7404, -1.63593 2.49857 C -1.63593 2.48126, -1.62686 2.45487, -1.60872 2.41943 L -0.128074 0.810169 C 0.0472517 0.616981, 0.224501 0.419122, 0.404223 0.216866, 0.583945 0.0146096, 0.744431 -0.192044, 0.88623 -0.403094, 1.02803 -0.614144, 1.14125 -0.831789, 1.22589 -1.05603, 1.31053 -1.28027, 1.35257 -1.5155, 1.35257 -1.762, 1.35257 -1.96976, 1.32564 -2.16404, 1.27123 -2.34431, 1.21682 -2.52459, 1.1385 -2.68287, 1.03572 -2.81918, 0.932947 -2.95548, 0.804614 -3.0654, 0.650723 -3.14894, 0.496832 -3.23248, 0.318759 -3.27425, 0.116503 -3.27453, -0.185233 -3.27425, -0.451793 -3.18412, -0.682629 -3.00385, -0.913465 -2.82357, -1.06681 -2.62489, -1.14238 -2.40834, -1.15722 -2.4023, -1.13303 -2.39928, -1.06983 -2.39955 L -0.992884 -2.39955 C -0.902198 -2.37866, -0.823879 -2.34706, -0.757376 -2.30474, -0.690874 -2.26215, -0.635088 -2.20361, -0.589745 -2.12887, -0.544403 -2.05412, -0.521869 -1.96398, -0.521869 -1.85873, -0.521869 -1.68258, -0.579028 -1.54766, -0.693896 -1.45395, -0.808765 -1.35996, -0.937099 -1.31325, -1.0789 -1.31352, -1.21465 -1.31325, -1.34134 -1.35996, -1.45923 -1.45395, -1.57684 -1.54766, -1.63593 -1.68258, -1.63593 -1.85873, -1.63593 -2.10468, -1.58756 -2.33772, -1.49083 -2.55756, -1.3941 -2.77741, -1.26302 -2.96785, -1.09703 -3.12916, -0.931053 -3.29019, -0.734842 -3.4177, -0.508403 -3.51168, -0.281964 -3.60539, -0.041785 -3.65238, 0.211585 -3.65266, 0.525412 -3.65238, 0.813133 -3.60622, 1.0742 -3.51388, 1.33526 -3.42155, 1.55785 -3.28882, 1.74197 -3.11597, 1.92609 -2.94284, 2.07036 -2.74278, 2.17451 -2.51579, 2.27867 -2.28853, 2.3306 -2.03736, 2.3306 -1.762, 2.3306 -1.45697, 2.26135 -1.17612, 2.1223 -0.919726, 1.98353 -0.663059, 1.8115 -0.427826, 1.60622 -0.214028, 1.40094 4.48227e-005, 1.18274 0.201477, 0.951909 0.390542, 0.721073 0.579608, 0.511946 0.763452, 0.324805 0.942075 L -0.716705 1.92258, 0.646326 1.92258 C 0.836491 1.92285, 1.01401 1.92148, 1.17835 1.91846, 1.34296 1.91571, 1.48256 1.90966, 1.59715 1.90087, 1.71202 1.89208, 1.77083 1.8863, 1.77357 1.88301, 1.79776 1.86267, 1.82057 1.82173, 1.84173 1.76017, 1.86289 1.69861, 1.8824 1.62606, 1.90053 1.54252, 1.91867 1.45898, 1.93681 1.37407, 1.95495 1.2875, 1.97308 1.20122, 1.98957 1.10641, 2.00469 1.00363 L 2.33967 1.00363 Z" stroke="none" fill="#000000" transform="matrix(1.12 0 0 1 14.9486 13.9768)" />
			<rect />
		</svg>
	</g>
	<ellipse cx="713.57668495178223" cy="471.0383243560791" rx="9.6000003814697266" ry="9.6000003814697266" stroke="none" fill="#000000" transform="matrix(0.416667 0 0 0.416667 -203.98 -156.462)" />
	<ellipse cx="713.57663631439209" cy="471.03833675384521" rx="6.4000005722045898" ry="6.4000005722045898" stroke="none" fill="#FFFFFF" transform="matrix(0.416667 0 0 0.416667 -203.98 -156.462)" />
	<ellipse cx="713.57668495178223" cy="766.96236610412598" rx="9.6000003814697266" ry="9.6000003814697266" stroke="none" fill="#000000" transform="matrix(0.416667 0 0 0.416667 -203.98 -156.462)" />
	<ellipse cx="713.57663631439209" cy="766.96231746673584" rx="6.4000005722045898" ry="6.4000005722045898" stroke="none" fill="#FFFFFF" transform="matrix(0.416667 0 0 0.416667 -203.98 -156.462)" />
	<g transform="matrix(1 0 -0 1 89.1123 9)">
		<svg width="29.9820557" height="32.8723297">
			<defs />
			<path d="M 8.45998 14.0579 C 8.38498 14.3579, 8.30025 14.6785, 8.20578 15.0203, 8.11132 15.3627, 7.98537 15.6798, 7.82793 15.973, 7.67106 16.2661, 7.47297 16.5197, 7.23366 16.7332, 6.99493 16.9468, 6.69607 17.0533, 6.33711 17.0533, 5.85964 17.0533, 5.4772 16.921, 5.19095 16.6554, 4.90469 16.3897, 4.73981 16.1195, 4.69573 15.8441, 4.48161 16.0892, 4.16272 16.352, 3.73792 16.6325, 3.31369 16.913, 2.86541 17.0533, 2.39366 17.0533, 1.89673 17.0533, 1.47994 16.9285, 1.1433 16.6783, 0.806667 16.4281, 0.544458 16.1132, 0.35553 15.7342, 0.129388 15.2831, 0.00973374 14.7976, -0.00286144 14.2778 L -0.00286144 14.1403 C -0.00286144 13.6583, 0.0635496 13.1762, 0.195227 12.693, 0.34637 12.1623, 0.557053 11.6373, 0.827278 11.1181, 1.09807 10.5994, 1.45647 10.1167, 1.90302 9.67019, 2.26828 9.30436, 2.68507 8.99635, 3.15338 8.74559, 3.6217 8.4954, 4.09803 8.37002, 4.58237 8.36945, 5.00374 8.37002, 5.34667 8.48166, 5.6106 8.70437, 5.8751 8.92765, 6.0417 9.112, 6.11097 9.25799 L 6.07318 9.41371 C 6.11727 9.18814, 6.22261 9.01753, 6.38921 8.90131, 6.55638 8.78566, 6.7247 8.72727, 6.89416 8.7267, 7.08882 8.72727, 7.25255 8.78509, 7.3848 8.90074, 7.46667 8.99291, 7.51076 9.11486, 7.51648 9.26715, 7.51648 9.32268, 7.51018 9.38394, 7.49759 9.45035 L 6.13902 14.7449 C 6.07605 14.9957, 6.03196 15.231, 6.00677 15.4503, 5.99475 15.5607, 5.98845 15.6615, 5.98845 15.7525, 5.98845 15.8327, 5.99475 15.918, 6.00677 16.009, 6.02624 16.1562, 6.07032 16.2661, 6.13902 16.3394, 6.2083 16.4126, 6.30562 16.4493, 6.43158 16.4487, 6.56383 16.4493, 6.68806 16.3943, 6.80428 16.2844, 6.92107 16.1745, 7.02813 16.0113, 7.12546 15.7943, 7.22278 15.5779, 7.31553 15.318, 7.4037 15.0157, 7.49186 14.7134, 7.58289 14.3854, 7.67678 14.0304, 7.71457 13.8724, 7.82163 13.7928, 7.99796 13.7923 L 8.21494 13.7923 C 8.37868 13.7928, 8.45998 13.8598, 8.45998 13.9938 L 8.45998 14.0579 Z M 5.76174 10.687 C 5.73655 10.5776, 5.71479 10.4631, 5.6959 10.344, 5.67701 10.225, 5.64838 10.1076, 5.6106 9.9908, 5.51041 9.70454, 5.36728 9.46466, 5.18179 9.2723, 4.99629 9.07994, 4.76156 8.98375, 4.47874 8.98318, 4.21482 8.98375, 3.95375 9.07879, 3.69555 9.26772, 3.43792 9.45722, 3.20205 9.70111, 2.98793 9.99996, 2.68622 10.4219, 2.46008 10.8604, 2.30893 11.315, 2.15779 11.7702, 2.01924 12.2448, 1.89329 12.7388, 1.76791 13.2278, 1.66429 13.7012, 1.58185 14.1587, 1.53204 14.3911, 1.50685 14.611, 1.50685 14.8182, 1.50685 15.0386, 1.53204 15.2522, 1.58185 15.4594, 1.6391 15.7468, 1.741 15.9838, 1.88871 16.1699, 2.03642 16.3565, 2.24252 16.4493, 2.50645 16.4487, 2.79614 16.4493, 3.08697 16.3485, 3.37953 16.147, 3.67208 15.9455, 3.94402 15.6981, 4.19535 15.4045, 4.29611 15.2831, 4.3923 15.1657, 4.48332 15.0524, 4.57493 14.9396, 4.65508 14.8188, 4.72378 14.69 L 5.76174 10.687 Z" stroke="none" fill="#000000" />
			<rect />
		</svg>
	</g>
	<g transform="matrix(1 0 -0 1 89.929 172.327)">
		<svg width="23.9541492" height="48.0957298">
			<defs />
			<path d="M 6.63739 12.748 C 6.48682 13.2799, 6.27442 13.8054, 6.00076 14.3241, 5.7271 14.8434, 5.37043 15.3226, 4.93017 15.7617, 4.56548 16.1287, 4.15213 16.4355, 3.68954 16.6829, 3.22752 16.9302, 2.74776 17.0533, 2.25082 17.0533, 1.77335 17.0533, 1.37374 16.9256, 1.05313 16.6691, 0.732527 16.4126, 0.487493 16.0949, 0.317458 15.7159, 0.116507 15.2648, 0.00944746 14.7793, -0.00314784 14.2594 L -0.00314784 14.1403 C -0.00314784 13.6583, 0.0598283 13.1791, 0.185208 12.7022 L 2.08136 5.32828 C 2.13174 5.12733, 2.16323 4.97447, 2.17582 4.87027 L 2.17582 4.84279 C 2.17582 4.7884, 2.16323 4.7489, 2.13804 4.72371, 2.06247 4.67562, 1.92106 4.64184, 1.71381 4.62352, 1.50656 4.6052, 1.26725 4.59604, 0.996454 4.59547, 0.902563 4.59604, 0.833289 4.56569, 0.789206 4.50386, 0.75142 4.4678, 0.732527 4.422, 0.732527 4.36646, 0.732527 4.33039, 0.74226 4.29662, 0.76058 4.2657 L 0.789206 4.11914 C 0.839587 3.97315, 0.952371 3.88155, 1.1287 3.84433 L 3.62828 3.64281, 3.66607 3.64281 C 3.74164 3.64338, 3.80461 3.668, 3.85442 3.71609, 3.87961 3.76533, 3.89221 3.81456, 3.89221 3.86265, 3.89221 3.89987, 3.88305 3.93364, 3.86416 3.96342 L 2.50559 9.23967 C 2.64414 9.09997, 2.8989 8.91963, 3.26989 8.69979, 3.64088 8.47994, 4.03076 8.37002, 4.43953 8.36945, 4.93647 8.37002, 5.35669 8.49827, 5.69905 8.75475, 6.04198 9.01123, 6.30419 9.32554, 6.48625 9.69767, 6.70037 10.15, 6.81373 10.6389, 6.82632 11.1633 L 6.82632 11.2915 C 6.82632 11.7621, 6.76334 12.2476, 6.63739 12.748 Z M 5.26967 9.96332 C 5.21356 9.67076, 5.1065 9.43432, 4.94906 9.25398, 4.79219 9.07421, 4.58781 8.98375, 4.3359 8.98318, 4.03419 8.98375, 3.73878 9.08165, 3.44909 9.27688, 3.15997 9.47268, 2.88974 9.71943, 2.63784 10.0183, 2.44319 10.269, 2.27315 10.5043, 2.12831 10.7236 L 1.60961 12.7388 C 1.48423 13.2278, 1.38977 13.6984, 1.32679 14.1495, 1.3016 14.3396, 1.28901 14.5194, 1.28901 14.69, 1.28901 14.959, 1.32049 15.2155, 1.38347 15.4594, 1.45274 15.7411, 1.56725 15.9764, 1.72755 16.1653, 1.88785 16.3548, 2.10025 16.4493, 2.36418 16.4487, 2.62868 16.4493, 2.89089 16.352, 3.15195 16.1562, 3.41302 15.9609, 3.64717 15.7165, 3.85442 15.4228, 4.15671 15.014, 4.38457 14.5795, 4.53857 14.118, 4.69315 13.6572, 4.83284 13.1854, 4.95822 12.7022, 5.08417 12.2018, 5.19467 11.7198, 5.28856 11.2549, 5.32635 11.0356, 5.34524 10.8221, 5.34524 10.6137, 5.34524 10.3944, 5.32005 10.1774, 5.26967 9.96332 Z" stroke="none" fill="#000000" />
			<rect />
		</svg>
	</g>
	<g transform="matrix(1 0 -0 1 88.6225 90.4684)">
		<svg width="33.1395264" height="32.8723297">
			<defs />
			<path d="M 9.41235 14.0854 C 9.34365 14.3671, 9.26178 14.6785, 9.16732 15.0203, 9.07285 15.3627, 8.9469 15.6798, 8.79003 15.973, 8.63316 16.2661, 8.43507 16.5197, 8.19577 16.7332, 7.95646 16.9468, 7.65761 17.0533, 7.29922 17.0533, 6.85953 17.0533, 6.504 16.9405, 6.23378 16.7149, 5.96355 16.4894, 5.79638 16.2569, 5.7334 16.0182, 5.51986 16.2815, 5.2336 16.5197, 4.87521 16.7332, 4.51682 16.9468, 4.10175 17.0533, 3.63 17.0533, 3.20234 17.0533, 2.82047 16.9743, 2.48384 16.8151, 2.1472 16.6571, 1.88156 16.4126, 1.6869 16.0823, 1.49798 15.7285, 1.40695 15.338, 1.41324 14.9098 L 1.41324 14.8365 C 1.42584 14.3911, 1.48252 13.9486, 1.58271 13.5083, 1.68347 13.0875, 1.83003 12.6238, 2.02182 12.1165, 2.21361 11.6099, 2.39739 11.1181, 2.57315 10.6412, 2.76208 10.1351, 2.85654 9.71943, 2.85654 9.39539, 2.85654 9.12116, 2.74032 8.98375, 2.50731 8.98318, 2.29376 8.98375, 2.10026 9.04501, 1.92736 9.16696, 1.75446 9.28947, 1.59759 9.45894, 1.45561 9.67535, 1.3142 9.89233, 1.1871 10.1488, 1.07375 10.4448, 0.960389 10.7414, 0.865925 11.0568, 0.790353 11.3923, 0.721652 11.5578, 0.605433 11.6431, 0.441695 11.6488 L 0.224714 11.6488 C 0.0735712 11.6494, -0.00200012 11.5732, -0.00200012 11.4198 L -0.00200012 11.3557 C 0.0861664 11.0202, 0.202958 10.6772, 0.347231 10.3257, 0.492076 9.97477, 0.674706 9.65588, 0.89455 9.36848, 1.11439 9.08165, 1.3663 8.84349, 1.64912 8.65399, 1.93194 8.46506, 2.25598 8.37002, 2.62067 8.36945, 2.93555 8.37002, 3.20405 8.43758, 3.42733 8.57155, 3.65061 8.70609, 3.82007 8.88471, 3.93629 9.10742, 4.05309 9.33069, 4.11721 9.58203, 4.1298 9.86256 L 4.1298 9.92668 C 4.1298 10.19, 4.07656 10.4614, 3.9695 10.7419, 3.78744 11.2188, 3.60653 11.706, 3.42733 12.2035, 3.24814 12.7016, 3.10845 13.1488, 3.00768 13.5455, 2.90692 13.9428, 2.83765 14.3361, 2.79986 14.7266, 2.77467 14.8308, 2.75921 14.9442, 2.75234 15.0655, 2.75234 15.3043, 2.79356 15.5396, 2.87543 15.7709, 2.93211 15.9792, 3.03574 16.1441, 3.18688 16.2661, 3.33802 16.3886, 3.51722 16.4493, 3.72447 16.4487, 4.13953 16.4493, 4.50136 16.3245, 4.80937 16.0737, 5.11738 15.8235, 5.38761 15.4903, 5.62005 15.0747, 5.63264 15.0266, 5.64237 14.9699, 5.64867 14.9058, 5.65497 14.8417, 5.66413 14.7758, 5.67672 14.7083 L 7.09197 9.24883 C 7.14865 9.02326, 7.26315 8.85723, 7.43605 8.75017, 7.60894 8.64368, 7.78356 8.58987, 7.95932 8.58929, 8.14195 8.58987, 8.29309 8.64483, 8.41218 8.75418, 8.49462 8.83433, 8.53526 8.94081, 8.53526 9.07478, 8.53526 9.14234, 8.52897 9.21276, 8.51637 9.28547 L 7.10113 14.7449 C 7.00037 15.1239, 6.94999 15.46, 6.94999 15.7525, 6.94999 15.8327, 6.95628 15.918, 6.96888 16.009, 7.00094 16.3027, 7.14865 16.4493, 7.41257 16.4487, 7.67707 16.4493, 7.90493 16.2237, 8.09672 15.7714, 8.28851 15.3197, 8.47572 14.7392, 8.65778 14.0304, 8.69557 13.8724, 8.80263 13.7928, 8.97839 13.7923 L 9.19537 13.7923 C 9.26464 13.7928, 9.33392 13.814, 9.40262 13.8564, 9.42781 13.9119, 9.4404 13.9577, 9.4404 13.9938, 9.4404 14.019, 9.43124 14.0493, 9.41235 14.0854 Z" stroke="none" fill="#000000" />
			<rect />
		</svg>
	</g>
	<g transform="matrix(1 0 -0 1 87.7157 43.8823)">
		<svg width="119.826561" height="119.904221">
			<defs />
			<polyline points="-5.628 0 5.628 0" fill="none" stroke="#000000" stroke-width="0.64319998" stroke-linecap="round" stroke-linejoin="round" transform="matrix(1 0 0 1 5.628 9.60638)" />
			<polyline points="0 -5.628 0 5.628" fill="none" stroke="#000000" stroke-width="0.64319998" stroke-linecap="round" stroke-linejoin="round" transform="matrix(1 0 0 1 5.628 9.60638)" />
			<rect />
		</svg>
	</g>
	<g transform="matrix(1 0 -0 1 87.7157 139.553)">
		<svg width="119.826561" height="83.9999847">
			<defs />
			<polyline points="-5.628 0 5.628 0" fill="none" stroke="#000000" stroke-width="0.64319998" stroke-linecap="round" stroke-linejoin="round" transform="matrix(1 0 0 1 5.628 9.60638)" />
			<rect />
		</svg>
	</g>
	<g transform="matrix(1 0 -0 1 120.722 45.4062)">
		<svg width="17.9262428" height="44.9361572">
			<defs />
			<path d="M 4.85632 5.20004 C 4.79964 5.43248, 4.66911 5.62656, 4.46472 5.78228, 4.26033 5.938, 4.03877 6.01586, 3.79946 6.01529, 3.54813 6.01586, 3.35634 5.93056, 3.22409 5.75881, 3.1365 5.66148, 3.08955 5.5424, 3.08268 5.40156, 3.08268 5.31683, 3.09528 5.23095, 3.12047 5.14507, 3.17715 4.91378, 3.3094 4.7197, 3.51664 4.56398, 3.72447 4.40825, 3.94774 4.33039, 4.18648 4.32982, 4.43839 4.33039, 4.63018 4.41284, 4.76185 4.57715, 4.85002 4.69394, 4.8941 4.81874, 4.8941 4.95271, 4.8941 5.03859, 4.88151 5.12103, 4.85632 5.20004 Z M 4.95994 14.0854 C 4.89124 14.4037, 4.78418 14.738, 4.63934 15.089, 4.49506 15.4405, 4.31701 15.7594, 4.10633 16.0462, 3.89565 16.3336, 3.64889 16.5729, 3.36607 16.7647, 3.08325 16.9571, 2.75578 17.0533, 2.38479 17.0533, 2.07048 17.0533, 1.80026 16.9863, 1.57355 16.8518, 1.3474 16.7178, 1.17279 16.5409, 1.05027 16.321, 0.927755 16.1012, 0.865924 15.8567, 0.865924 15.5877, 0.853329 15.5762, 0.847031 15.5516, 0.847031 15.5144, 0.847031 15.2401, 0.907145 14.959, 1.02623 14.6716 L 2.55426 10.6412 C 2.74318 10.1351, 2.83765 9.71943, 2.83765 9.39539, 2.83765 9.12116, 2.72143 8.98375, 2.48842 8.98318, 2.27487 8.98375, 2.08308 9.04501, 1.91304 9.16696, 1.74358 9.28947, 1.58786 9.45894, 1.44645 9.67535, 1.30504 9.89233, 1.17794 10.1488, 1.06459 10.4448, 0.951228 10.7414, 0.856764 11.0568, 0.781193 11.3923, 0.712492 11.5578, 0.5957 11.6431, 0.431962 11.6488 L 0.224713 11.6488 C 0.0735708 11.6494, -0.00200051 11.5732, -0.00200051 11.4198 L -0.00200051 11.3557 C 0.0735708 11.0202, 0.186928 10.6772, 0.33807 10.3257, 0.489213 9.97477, 0.671271 9.65588, 0.884817 9.36848, 1.09894 9.08165, 1.3474 8.84349, 1.63022 8.65399, 1.91304 8.46506, 2.23709 8.37002, 2.60177 8.36945, 2.91665 8.37002, 3.18402 8.43758, 3.40386 8.57155, 3.6237 8.70609, 3.79202 8.88471, 3.90824 9.10742, 4.02503 9.33069, 4.08915 9.58203, 4.10175 9.86256 L 4.10175 9.92668 C 4.10175 10.19, 4.04851 10.4614, 3.94087 10.7419 L 2.41285 14.7907 C 2.23709 15.2859, 2.14892 15.7073, 2.14892 16.0548, 2.13632 16.0674, 2.13003 16.0674, 2.13003 16.0548, 2.13003 16.3182, 2.24968 16.4493, 2.48842 16.4487, 2.70254 16.4493, 2.89547 16.3852, 3.06837 16.2569, 3.24127 16.1287, 3.39871 15.9581, 3.54012 15.7439, 3.6821 15.5304, 3.80633 15.2739, 3.91282 14.9745, 4.01988 14.6756, 4.11721 14.3608, 4.20537 14.0304, 4.24316 13.8724, 4.35308 13.7928, 4.53514 13.7923 L 4.74296 13.7923 C 4.81223 13.7928, 4.88151 13.814, 4.95021 13.8564, 4.96967 13.9056, 4.98513 13.9486, 4.99773 13.9846, 4.99773 14.0218, 4.98513 14.0556, 4.95994 14.0854 Z" stroke="none" fill="#000000" />
			<rect />
		</svg>
	</g>
	<path d="M 0 -147.43 L 0 147.431" fill="none" stroke="#000000" stroke-width="3.20000029" stroke-linecap="round" stroke-linejoin="round" transform="matrix(0.416667 0 0 0.416667 163.499 101.676)" />
	<path d="M -163.424 0 L 163.424 0" fill="none" stroke="#000000" stroke-width="3.20000029" stroke-linecap="round" stroke-linejoin="round" transform="matrix(0.416667 0 0 0.416667 231.593 88.2258)" />
	<path d="M -43.7256 -10.9315 L 43.7256 -10.9315, 43.7256 10.9315, -43.7256 10.9315 Z" stroke="none" fill="#FFFFFF" transform="matrix(3.14575e-008 0.416667 -0.416667 3.14575e-008 163.499 126.282)" />
	<path d="M -43.7256 -10.9315 L 43.7256 -10.9315, 43.7256 10.9315, -43.7256 10.9315 Z" fill="none" stroke="#000000" stroke-width="3.60000014" stroke-linecap="round" stroke-linejoin="round" transform="matrix(3.14575e-008 0.416667 -0.416667 3.14575e-008 163.499 126.282)" />
	<rect x="-43.7260094" y="-10.9314518" width="87.4520187" height="21.8629036" stroke="none" fill="#FFFFFF" transform="matrix(0.416667 0 -0 0.416667 231.593 88.2258)" />
	<path d="M -43.726 -10.9315 L 43.726 -10.9315, 43.726 10.9315, -43.726 10.9315 Z" fill="none" stroke="#000000" stroke-width="3.60000014" stroke-linecap="round" stroke-linejoin="round" transform="matrix(0.416667 0 -0 0.416667 231.593 88.2258)" />
	<rect x="-43.7260437" y="-10.9314518" width="87.4520874" height="21.8629036" stroke="none" fill="#FFFFFF" transform="matrix(0.416667 0 -0 0.416667 231.196 163.105)" />
	<path d="M -43.726 -10.9315 L 43.726 -10.9315, 43.726 10.9315, -43.726 10.9315 Z" fill="none" stroke="#000000" stroke-width="3.60000014" stroke-linecap="round" stroke-linejoin="round" transform="matrix(0.416667 0 -0 0.416667 231.196 163.105)" />
	<rect x="-43.7261543" y="-10.931488" width="87.4523087" height="21.8629761" stroke="none" fill="#FFFFFF" transform="matrix(0.416667 0 -0 0.416667 202.532 40.4682)" />
	<path d="M -43.7262 -10.9315 L 43.7262 -10.9315, 43.7262 10.9315, -43.7262 10.9315 Z" fill="none" stroke="#000000" stroke-width="3.60000014" stroke-linecap="round" stroke-linejoin="round" transform="matrix(0.416667 0 -0 0.416667 202.532 40.4682)" />
	<rect x="-43.7261734" y="-10.9314518" width="87.4523468" height="21.8629036" stroke="none" fill="#FFFFFF" transform="matrix(0.416667 0 -0 0.416667 260.652 40.025)" />
	<path d="M -43.7262 -10.9315 L 43.7262 -10.9315, 43.7262 10.9315, -43.7262 10.9315 Z" fill="none" stroke="#000000" stroke-width="3.60000014" stroke-linecap="round" stroke-linejoin="round" transform="matrix(0.416667 0 -0 0.416667 260.652 40.025)" />
	<ellipse cx="881.94959735870361" cy="471.03834247589111" rx="6.3000001907348633" ry="6.3000001907348633" stroke="none" fill="#000000" transform="matrix(0.416667 0 0 0.416667 -203.98 -156.462)" />
	<ellipse cx="881.94959735870361" cy="587.25178241729736" rx="6.3000001907348633" ry="6.3000001907348633" stroke="none" fill="#000000" transform="matrix(0.416667 0 0 0.416667 -203.98 -156.462)" />
	<ellipse cx="1208.7974367141724" cy="587.25178241729736" rx="6.3000001907348633" ry="6.3000001907348633" stroke="none" fill="#000000" transform="matrix(0.416667 0 0 0.416667 -203.98 -156.462)" />
	<ellipse cx="881.94959735870361" cy="766.96235370635986" rx="6.3000001907348633" ry="6.3000001907348633" stroke="none" fill="#000000" transform="matrix(0.416667 0 0 0.416667 -203.98 -156.462)" />
	<g transform="matrix(1 0 -0 1 575.042 92.2149)">
		<svg width="69.0199203" height="50.968071">
			<defs />
			<path d="M 11.1132 12.8505 C 11.0543 13.0865, 10.9654 13.3182, 10.8467 13.5458, 10.7279 13.7735, 10.5827 13.9792, 10.4099 14.1622, 10.2372 14.3457, 10.0444 14.4954, 9.83138 14.6132, 9.61841 14.7309, 9.38826 14.7898, 9.13996 14.7898, 8.35824 14.7898, 7.77035 14.5832, 7.37679 14.1696, 7.10738 13.8874, 6.97243 13.5316, 6.97243 13.1017, 6.97243 12.8824, 7.00777 12.6444, 7.07794 12.3873 L 7.44157 10.9818 C 7.48475 10.8042, 7.50634 10.6368, 7.50634 10.4793, 7.50634 10.4013, 7.50094 10.3203, 7.49015 10.2359, 7.45776 10.0166, 7.38268 9.82323, 7.26392 9.6554, 7.14517 9.48806, 6.99305 9.35606, 6.80706 9.25889, 6.62108 9.16222, 6.40123 9.11364, 6.14753 9.11315 L 4.32008 9.11315, 3.24442 13.298 C 3.22282 13.3981, 3.21203 13.4791, 3.21203 13.5414, 3.21203 13.6204, 3.22822 13.6729, 3.26061 13.6985, 3.33078 13.7407, 3.47653 13.7657, 3.69735 13.7735, 3.91867 13.7814, 4.15569 13.7853, 4.4089 13.7848, 4.56004 13.7853, 4.63561 13.8481, 4.63561 13.9733, 4.63561 14.0052, 4.63022 14.039, 4.61942 14.0753 L 4.58703 14.201 C 4.52815 14.358, 4.42264 14.4365, 4.2715 14.4365, 3.60853 14.4051, 2.94017 14.3894, 2.26591 14.3894, 1.59215 14.3894, 0.915446 14.4051, 0.236286 14.4365, 0.0910318 14.4365, 0.0130069 14.3688, 0.00172029 14.2324 L 0.00172029 14.1696, 0.034108 14.0361 C 0.0772916 13.8638, 0.182306 13.7799, 0.349152 13.7848, 0.602856 13.7853, 0.842819 13.7814, 1.06904 13.7735, 1.29576 13.7657, 1.4626 13.7382, 1.57056 13.6906, 1.67312 13.6337, 1.75115 13.4924, 1.80513 13.2666 L 4.07766 4.41791 C 4.11005 4.30309, 4.12575 4.21426, 4.12575 4.15096, 4.12575 4.08864, 4.1125 4.05184, 4.08551 4.04104, 4.00994 3.99442, 3.86322 3.96596, 3.64485 3.95516, 3.42647 3.94486, 3.18798 3.93946, 2.92888 3.93897, 2.77823 3.93946, 2.70266 3.8688, 2.70266 3.72698 L 2.70266 3.66416, 2.75124 3.53069 C 2.78363 3.37415, 2.88373 3.29563, 3.05058 3.29514 L 7.6035 3.29514 C 8.11582 3.29563, 8.6036 3.36384, 9.06733 3.49977, 9.53106 3.63619, 9.93542 3.86094, 10.2804 4.17452, 10.566 4.42626, 10.7736 4.73492, 10.9031 5.101, 10.9841 5.30023, 11.0273 5.50732, 11.0322 5.72127, 11.0322 5.9156, 11.0027 6.10649, 10.9434 6.29444, 10.8413 6.71352, 10.6283 7.09333, 10.3044 7.43341, 9.98106 7.77397, 9.61694 8.06398, 9.21258 8.30444, 8.93238 8.46736, 8.64825 8.60231, 8.35971 8.70928, 8.07116 8.81675, 7.86506 8.88349, 7.74091 8.90901, 8.0481 9.02973, 8.33959 9.26527, 8.61439 9.61565, 8.8465 9.9199, 8.96231 10.2835, 8.96231 10.707, 8.96231 10.7963, 8.95692 10.8856, 8.94612 10.974 L 8.79203 12.3873 C 8.74934 12.7543, 8.72775 13.0733, 8.72775 13.3451, 8.72775 13.5238, 8.73855 13.6808, 8.76014 13.8162, 8.79792 14.1254, 8.95937 14.28, 9.24497 14.2795, 9.50407 14.28, 9.74109 14.1401, 9.95701 13.8599, 10.1729 13.5802, 10.3319 13.2333, 10.434 12.8191, 10.4934 12.6625, 10.5984 12.5865, 10.7495 12.5914 L 10.8786 12.5914 C 11.0243 12.5919, 11.1024 12.6601, 11.1132 12.7955 L 11.1132 12.8505 Z M 9.21258 6.24733 C 9.29895 5.93376, 9.34753 5.61969, 9.35833 5.30514 L 9.35833 5.25803 C 9.35833 4.99157, 9.27491 4.76142, 9.10757 4.56709, 8.90833 4.33744, 8.64825 4.17501, 8.32732 4.08079, 8.00639 3.98657, 7.65454 3.93946, 7.27178 3.93897 L 6.19611 3.93897 C 5.92131 3.93946, 5.75692 3.96056, 5.70294 4.00227, 5.64896 4.04447, 5.59252 4.19316, 5.53315 4.44932 L 4.46582 8.6028, 6.02632 8.6028 C 6.40909 8.60329, 6.78694 8.55618, 7.15891 8.46196, 7.53088 8.36774, 7.8842 8.20041, 8.21789 7.95897, 8.50398 7.75532, 8.7199 7.49916, 8.86515 7.19001, 9.0109 6.88134, 9.12671 6.56728, 9.21258 6.24733 Z" stroke="none" fill="#000000" />
			<path d="M 2.19417 1.62359 C 2.17026 1.81431, 2.10925 1.98441, 2.01115 2.1339, 1.91304 2.2834, 1.79158 2.41091, 1.64648 2.51643, 1.50166 2.62196, 1.34008 2.70247, 1.162 2.75798, 0.983928 2.81377, 0.799809 2.84153, 0.609644 2.84153, 0.326046 2.84153, 0.0559131 2.78739, -0.200755 2.67912, -0.457422 2.57084, -0.683861 2.41833, -0.880072 2.22157, -1.08535 2.01656, -1.23787 1.78655, -1.33735 1.53153, -1.43683 1.27651, -1.48684 1.00693, -1.48684 0.722232, -1.48684 0.446877, -1.4393 0.182515, -1.34422 -0.0711296, -1.24913 -0.324499, -1.10651 -0.552587, -0.916346 -0.755118, -0.734975 -0.951329, -0.52365 -1.10275, -0.282372 -1.20992, -0.0408182 -1.31682, 0.212826 -1.37041, 0.478288 -1.37068, 0.713795 -1.37041, 0.942433 -1.33083, 1.1642 -1.25169, 1.38624 -1.17255, 1.58163 -1.04366, 1.75063 -0.86504, 1.91964 -0.665532, 2.03588 -0.446238, 2.09909 -0.207433, 2.16257 0.0316474, 2.19417 0.272651, 2.19417 0.515579, 2.19417 0.612585, 2.14443 0.66095, 2.04495 0.660675 L -0.626427 0.660675, -0.626427 0.722232 C -0.626427 0.94235, -0.606641 1.15917, -0.567619 1.37297, -0.531345 1.6137, -0.445331 1.83052, -0.309577 2.02371, -0.194709 2.17348, -0.0537339 2.29439, 0.113897 2.38672, 0.281528 2.47906, 0.458777 2.52523, 0.645644 2.52495, 0.787718 2.52523, 0.924296 2.50269, 1.05565 2.45707, 1.18701 2.41173, 1.30847 2.3466, 1.42004 2.26141, 1.53189 2.1765, 1.62615 2.07757, 1.70309 1.96462, 1.78004 1.85195, 1.83665 1.72637, 1.87292 1.58842, 1.89106 1.51834, 1.93915 1.48317, 2.01774 1.48289 L 2.06748 1.48289 C 2.1491 1.50075, 2.19142 1.54774, 2.19417 1.62359 Z M 1.48352 0.383672 C 1.47748 0.205049, 1.45632 0.0220292, 1.42004 -0.165662, 1.38377 -0.353079, 1.3115 -0.52758, 1.20267 -0.689165, 1.11831 -0.812003, 1.01278 -0.908734, 0.885823 -0.979084, 0.759138 -1.04943, 0.623385 -1.08461, 0.478288 -1.08488, 0.309283 -1.08461, 0.153744 -1.03899, 0.0119443 -0.948306, -0.129855 -0.857346, -0.24912 -0.735607, -0.345851 -0.583365, -0.442308 -0.430849, -0.508811 -0.270363, -0.545085 -0.101908, -0.581359 0.0668223, -0.603893 0.228682, -0.612962 0.383672 L 1.48352 0.383672 Z" stroke="none" fill="#000000" transform="matrix(1.12 0 0 1 13.4343 13.9768)" />
			<path d="M 2.83179 4.48596 C 2.45751 4.47441, 2.09394 4.46837, 1.74054 4.46837, 1.39347 4.46837, 1.03127 4.47441, 0.653692 4.48596 L 0.653692 4.12981 C 0.78972 4.12981, 0.915031 4.12844, 1.02962 4.12541, 1.14449 4.12266, 1.23051 4.10783, 1.28767 4.08144, 1.32394 4.06386, 1.34812 4.0339, 1.36021 3.99131, 1.37231 3.94899, 1.37835 3.90117, 1.37835 3.84841 L 1.37835 2.27873 C 1.28767 2.40514, 1.13597 2.53045, 0.923275 2.65493, 0.710576 2.77942, 0.469847 2.84153, 0.201088 2.84153, -0.0764644 2.84153, -0.339178 2.78739, -0.586777 2.67912, -0.834101 2.57084, -1.04845 2.42107, -1.22982 2.23036, -1.42603 2.02536, -1.5747 1.79837, -1.67583 1.54912, -1.77696 1.30015, -1.82752 1.03771, -1.82752 0.761804, -1.82752 0.486449, -1.77448 0.221263, -1.66896 -0.033756, -1.56316 -0.288775, -1.41064 -0.51439, -1.21168 -0.71115, -1.00943 -0.90736, -0.780514 -1.05878, -0.525495 -1.16595, -0.270476 -1.27285, -0.00116801 -1.32644, 0.28243 -1.32671, 0.569327 -1.32644, 0.820773 -1.24784, 1.03649 -1.0912, 1.25249 -0.934291, 1.40858 -0.760614, 1.50504 -0.57045 L 1.82656 -1.32671, 2.1118 -1.32671, 2.1118 3.84841 C 2.1118 3.89842, 2.11785 3.94459, 2.12994 3.98691, 2.14203 4.02951, 2.16787 4.06111, 2.20689 4.08144, 2.25828 4.10783, 2.34127 4.12266, 2.45586 4.12541, 2.57073 4.12844, 2.69604 4.12981, 2.83179 4.12981 L 2.83179 4.48596 Z M 1.39649 0.0539067 C 1.32999 -0.244806, 1.20467 -0.497626, 1.02056 -0.704279, 0.836437 -0.910933, 0.602578 -1.01426, 0.318705 -1.01453, 0.143929 -1.01426, -0.020679 -0.968092, -0.17457 -0.875758, -0.32846 -0.783423, -0.459817 -0.661135, -0.56864 -0.508893, -0.707416 -0.329721, -0.806895 -0.131037, -0.867352 0.087158, -0.927809 0.305628, -0.958038 0.530418, -0.958038 0.761804, -0.958038 0.993739, -0.931656 1.21935, -0.878894 1.4392, -0.826131 1.65904, -0.731599 1.86267, -0.595845 2.05009, -0.493068 2.19683, -0.372429 2.3172, -0.233653 2.41091, -0.0946014 2.50489, 0.0562663 2.55161, 0.219225 2.55133, 0.497053 2.55161, 0.736958 2.46367, 0.939214 2.28779, 1.14147 2.11192, 1.29371 1.88768, 1.39649 1.6148 Z" stroke="none" fill="#000000" transform="matrix(1.12 0 0 1 18.3991 13.9768)" />
			<rect />
		</svg>
	</g>
	<rect x="-209.81955" y="-204.957733" width="419.639099" height="409.915466" stroke="none" fill="#000000" fill-opacity="0.176470578" transform="matrix(0.416667 0 -0 0.416667 229.807 101.676)" />
	<path d="M -209.82 -204.958 L 209.82 -204.958, 209.82 204.958, -209.82 204.958 Z" fill="none" stroke="#000000" stroke-width="4.80000019" stroke-linecap="round" stroke-linejoin="round" stroke-dasharray="16.824, 11.976" transform="matrix(0.416667 0 -0 0.416667 229.807 101.676)" />
</svg>
