<?xml version="1.0"?>
<svg xmlns="http://www.w3.org/2000/svg" xmlns:xlink="http://www.w3.org/1999/xlink" width="238.458603" height="179.1129">
	<defs />
	<path d="M -360.294 0 L 360.295 0" fill="none" stroke="#000000" stroke-width="5.5999999" stroke-linecap="round" stroke-linejoin="round" transform="matrix(0.238095 0 0 0.238095 107.033 9.76667)" />
	<ellipse cx="803.4832878112793" cy="284.88291549682617" rx="16.799999237060547" ry="16.799999237060547" stroke="none" fill="#000000" transform="matrix(0.238095 0 0 0.238095 -170.056 -58.0626)" />
	<ellipse cx="803.48326396942139" cy="284.88289165496826" rx="11.199999809265137" ry="11.199999809265137" stroke="none" fill="#FFFFFF" transform="matrix(0.238095 0 0 0.238095 -170.056 -58.0626)" />
	<path d="M -360.294 0 L 360.295 0" fill="none" stroke="#000000" stroke-width="5.5999999" stroke-linecap="round" stroke-linejoin="round" transform="matrix(0.238095 0 0 0.238095 107.033 169.346)" />
	<ellipse cx="803.4832878112793" cy="955.1170768737793" rx="16.799999237060547" ry="16.799999237060547" stroke="none" fill="#000000" transform="matrix(0.238095 0 0 0.238095 -170.056 -58.0626)" />
	<ellipse cx="803.48326396942139" cy="955.11705303192139" rx="11.199999809265137" ry="11.199999809265137" stroke="none" fill="#FFFFFF" transform="matrix(0.238095 0 0 0.238095 -170.056 -58.0626)" />
	<path d="M 0 -335.117 L 0 335.117" fill="none" stroke="#000000" stroke-width="5.5999999" stroke-linecap="round" stroke-linejoin="round" transform="matrix(0.238095 0 0 0.238095 91.3335 89.5564)" />
	<ellipse cx="1097.8376216888428" cy="284.88290977478027" rx="11.024999618530273" ry="11.024999618530273" stroke="none" fill="#000000" transform="matrix(0.238095 0 0 0.238095 -170.056 -58.0626)" />
	<ellipse cx="1097.8376216888428" cy="955.11704063415527" rx="11.024999618530273" ry="11.024999618530273" stroke="none" fill="#000000" transform="matrix(0.238095 0 0 0.238095 -170.056 -58.0626)" />
	<path d="M -76.5204 -19.1299 L 76.5204 -19.1299, 76.5204 19.1299, -76.5204 19.1299 Z" stroke="none" fill="#FFFFFF" transform="matrix(1.79757e-008 0.238095 -0.238095 1.79757e-008 90.857 129.451)" />
	<path d="M -76.5204 -19.1299 L 76.5204 -19.1299, 76.5204 19.1299, -76.5204 19.1299 Z" fill="none" stroke="#000000" stroke-width="6.29999971" stroke-linecap="round" stroke-linejoin="round" transform="matrix(1.79757e-008 0.238095 -0.238095 1.79757e-008 90.857 129.451)" />
	<g transform="matrix(1 0 -0 1 55.6904 118.244)">
		<svg width="75.0478287" height="45.2233963">
			<defs />
			<path d="M 6.82303 16.7669 C 5.68913 16.731, 4.58609 16.7131, 3.51334 16.7131, 2.44116 16.7131, 1.33812 16.731, 0.204215 16.7669 L 0.204215 15.9949, 0.84214 15.9949 C 1.04524 15.9955, 1.23656 15.9927, 1.41498 15.9865, 1.59396 15.9809, 1.7634 15.9657, 1.92386 15.9416, 2.08433 15.918, 2.22291 15.8939, 2.33961 15.8692, 2.43835 15.8518, 2.51971 15.7969, 2.58423 15.7037, 2.64931 15.6111, 2.68129 15.5079, 2.68129 15.3935 L 2.68129 5.27643 C 2.37383 5.4268, 1.99456 5.54069, 1.54459 5.61812, 1.09462 5.6961, 0.602006 5.73482, 0.0656334 5.73426 L 0.0656334 4.97122 C 0.80511 4.97178, 1.48792 4.88369, 2.1135 4.70696, 2.73908 4.53078, 3.27994 4.19976, 3.73552 3.71444 L 4.02223 3.71444 C 4.22533 3.715, 4.32688 3.81375, 4.32688 4.01068 L 4.32688 15.3935 C 4.32688 15.5135, 4.35774 15.6184, 4.41946 15.7082, 4.48117 15.798, 4.57094 15.8518, 4.68764 15.8692, 4.78639 15.8939, 4.91319 15.918, 5.06692 15.9416, 5.22065 15.9657, 5.39458 15.9809, 5.5887 15.9865, 5.78283 15.9927, 5.97247 15.9955, 6.15762 15.9949 L 6.82303 15.9949, 6.82303 16.7669 Z" stroke="none" fill="#000000" />
			<path d="M 22.6413 16.6044 C 22.6035 16.751, 22.4999 16.8243, 22.3298 16.8243 L 19.2079 16.8243 C 19.0007 16.8243, 18.8965 16.7241, 18.8965 16.522, 18.8965 15.7714, 19.0081 15.0478, 19.2314 14.3516, 19.4547 13.6554, 19.6986 12.9673, 19.9625 12.286, 20.227 11.6053, 20.4657 10.9257, 20.6793 10.2479, 20.8934 9.57, 20.9999 8.88013, 20.9999 8.17708, 20.9999 7.62805, 20.9152 7.09561, 20.7451 6.57921, 20.5757 6.06338, 20.3083 5.60995, 19.9436 5.21893, 19.5789 4.82848, 19.1484 4.52905, 18.6514 4.32123, 18.1545 4.11398, 17.6358 4.00979, 17.0948 4.00921, 16.5543 4.00979, 16.0357 4.11398, 15.5387 4.32123, 15.0418 4.52905, 14.613 4.82848, 14.2511 5.21893, 13.8893 5.60995, 13.622 6.06338, 13.4491 6.57921, 13.2762 7.09561, 13.1897 7.62805, 13.1897 8.17708, 13.1897 8.88013, 13.2985 9.57, 13.5149 10.2479, 13.7319 10.9257, 13.9723 11.6053, 14.2363 12.286, 14.5008 12.9673, 14.7441 13.6571, 14.9674 14.3562, 15.1906 15.0558, 15.3023 15.7777, 15.3023 16.522, 15.3023 16.7241, 15.2049 16.8243, 15.0103 16.8243 L 11.8592 16.8243 C 11.696 16.8243, 11.5953 16.751, 11.5575 16.6044 L 10.8974 13.9846 C 10.8974 13.8203, 10.9855 13.7167, 11.1613 13.6732 L 11.2649 13.6732 C 11.4287 13.6738, 11.5294 13.7499, 11.5672 13.9022, 11.668 14.3241, 11.7607 14.6722, 11.8455 14.947, 11.9302 15.2218, 11.9886 15.3684, 12.0195 15.3861, 12.0825 15.4354, 12.2336 15.4663, 12.4724 15.4783, 12.7117 15.4909, 12.9979 15.4966, 13.3311 15.496 L 14.5385 15.496 C 14.4069 14.947, 14.1567 14.3825, 13.7886 13.802, 13.421 13.222, 13.0386 12.6387, 12.6424 12.0524, 12.2462 11.4662, 11.8958 10.8587, 11.5907 10.2295, 11.2861 9.60092, 11.1333 8.91677, 11.1333 8.17708, 11.1333 7.49351, 11.2936 6.86203, 11.6142 6.28151, 11.9348 5.70155, 12.3659 5.20347, 12.9063 4.78783, 13.4914 4.31837, 14.1458 3.96857, 14.8689 3.73956, 15.592 3.51056, 16.3339 3.39606, 17.0948 3.39548, 17.8562 3.39606, 18.5982 3.51056, 19.3213 3.73956, 20.0444 3.96857, 20.7079 4.31837, 21.3113 4.78783, 21.8398 5.21606, 22.2674 5.71816, 22.5943 6.29525, 22.9212 6.87234, 23.0844 7.49981, 23.0844 8.17708, 23.0844 8.91677, 22.9321 9.60092, 22.627 10.2295, 22.3224 10.8587, 21.9686 11.4662, 21.5661 12.0524, 21.1636 12.6387, 20.7766 13.222, 20.4056 13.802, 20.0346 14.3825, 19.7833 14.947, 19.6511 15.496 L 20.8676 15.496 C 21.2014 15.4966, 21.4877 15.4909, 21.7264 15.4783, 21.9657 15.4663, 22.1163 15.4354, 22.1793 15.3861, 22.1981 15.3747, 22.2514 15.2281, 22.3396 14.947, 22.4277 14.6665, 22.5216 14.3178, 22.6224 13.9022, 22.6602 13.7562, 22.7644 13.68, 22.9338 13.6732 L 23.0374 13.6732 C 23.2075 13.7104, 23.2922 13.814, 23.2922 13.9846 Z" stroke="none" fill="#000000" />
			<rect />
		</svg>
	</g>
	<g transform="matrix(1 0 -0 1 130.628 61.4999)">
		<svg width="77.9182587" height="48.0957298">
			<defs />
			<path d="M 8.50221 12.7632 C 8.50221 13.386, 8.41019 13.9442, 8.22504 14.438, 8.03989 14.9317, 7.7257 15.4181, 7.2819 15.8962, 6.84428 16.3456, 6.39599 16.6732, 5.93704 16.8791, 5.4781 17.0856, 4.92489 17.1888, 4.27743 17.1888, 3.61818 17.1888, 3.01448 17.0261, 2.46577 16.6996, 1.91705 16.3742, 1.47942 15.9326, 1.15289 15.3755, 0.690575 14.6158, 0.39658 13.8141, 0.270341 12.9702, 0.144103 12.1264, 0.0807031 11.2854, 0.0807031 10.4472, 0.0807031 9.61005, 0.202453 8.78586, 0.445953 7.97457, 0.689453 7.16384, 1.07883 6.41426, 1.6152 5.72528, 2.06517 5.13953, 2.61389 4.65758, 3.26079 4.28055, 3.90825 3.90352, 4.61967 3.715, 5.39618 3.71444, 6.14239 3.715, 6.7618 3.90689, 7.25441 4.28953, 7.74758 4.67273, 7.99389 5.22313, 7.99389 5.94073, 7.99389 6.27624, 7.89233 6.52479, 7.68867 6.68637, 7.48557 6.84796, 7.25104 6.92875, 6.98622 6.92819, 6.73375 6.92875, 6.50708 6.84796, 6.30678 6.68637, 6.10648 6.52479, 6.00605 6.27624, 6.00605 5.94073, 6.00605 5.58221, 6.13902 5.3129, 6.40384 5.1328, 6.57665 5.02564, 6.77078 4.97178, 6.98622 4.97122, 7.05411 4.97178, 7.06309 4.96897, 7.01372 4.96224, 6.92787 4.83095, 6.73824 4.70135, 6.44536 4.5723, 6.15249 4.44382, 5.80295 4.3793, 5.39618 4.37874, 4.84746 4.3793, 4.35485 4.54257, 3.91723 4.86854, 3.4796 5.19508, 3.10986 5.60297, 2.80745 6.09333, 2.45062 6.71611, 2.23461 7.39443, 2.16055 8.12718, 2.08649 8.86048, 2.04329 9.4451, 2.03095 9.88161, 2.14204 9.62464, 2.4091 9.30933, 2.83102 8.9351, 3.25293 8.56143, 3.78762 8.37404, 4.43453 8.37348, 5.05113 8.37404, 5.58301 8.47728, 6.02962 8.68375, 6.47622 8.89022, 6.90599 9.2117, 7.31893 9.64821, 7.75039 10.1274, 8.0556 10.6093, 8.23402 11.0941, 8.413 11.5788, 8.50221 12.1354, 8.50221 12.7632 Z M 6.53289 12.7632 C 6.53289 12.1892, 6.51493 11.6731, 6.4779 11.2152, 6.44087 10.7574, 6.318 10.3551, 6.10817 10.0073, 5.89272 9.65494, 5.65202 9.39461, 5.3872 9.22685, 5.12238 9.05966, 4.79865 8.9755, 4.41601 8.97494, 4.00307 8.9755, 3.65072 9.08041, 3.35785 9.28969, 3.06498 9.49953, 2.81699 9.77445, 2.61389 10.1156, 2.41078 10.4567, 2.26547 10.8545, 2.17907 11.3089, 2.11735 11.6209, 2.08649 11.953, 2.08649 12.3054, 2.08649 12.4434, 2.09266 12.5904, 2.10501 12.7453 L 2.10501 12.8171 C 2.12969 13.2665, 2.16392 13.6856, 2.20712 14.0744, 2.25032 14.4638, 2.31821 14.7808, 2.41022 15.0254, 2.58303 15.4569, 2.83719 15.807, 3.1727 16.0763, 3.50878 16.3456, 3.87683 16.4802, 4.27743 16.4797, 4.69037 16.4802, 5.03879 16.4011, 5.32212 16.2423, 5.60602 16.0841, 5.85569 15.8277, 6.07114 15.4742, 6.29332 15.1219, 6.42573 14.7224, 6.46837 14.2764, 6.51157 13.8309, 6.53289 13.3265, 6.53289 12.7632 Z" stroke="none" fill="#000000" />
			<path d="M 23.547 16.6044 C 23.5092 16.751, 23.4056 16.8243, 23.2355 16.8243 L 20.1136 16.8243 C 19.9064 16.8243, 19.8022 16.7241, 19.8022 16.522, 19.8022 15.7714, 19.9138 15.0478, 20.1371 14.3516, 20.3604 13.6554, 20.6043 12.9673, 20.8682 12.286, 21.1327 11.6053, 21.3714 10.9257, 21.585 10.2479, 21.7991 9.57, 21.9056 8.88013, 21.9056 8.17708, 21.9056 7.62805, 21.8209 7.09561, 21.6508 6.57921, 21.4814 6.06338, 21.214 5.60995, 20.8493 5.21893, 20.4846 4.82848, 20.0541 4.52905, 19.5572 4.32123, 19.0602 4.11398, 18.5415 4.00979, 18.0005 4.00921, 17.4601 4.00979, 16.9414 4.11398, 16.4444 4.32123, 15.9475 4.52905, 15.5187 4.82848, 15.1569 5.21893, 14.795 5.60995, 14.5277 6.06338, 14.3548 6.57921, 14.1819 7.09561, 14.0954 7.62805, 14.0954 8.17708, 14.0954 8.88013, 14.2042 9.57, 14.4206 10.2479, 14.6376 10.9257, 14.878 11.6053, 15.142 12.286, 15.4065 12.9673, 15.6498 13.6571, 15.8731 14.3562, 16.0963 15.0558, 16.208 15.7777, 16.208 16.522, 16.208 16.7241, 16.1107 16.8243, 15.916 16.8243 L 12.7649 16.8243 C 12.6017 16.8243, 12.501 16.751, 12.4632 16.6044 L 11.8031 13.9846 C 11.8031 13.8203, 11.8913 13.7167, 12.067 13.6732 L 12.1706 13.6732 C 12.3344 13.6738, 12.4351 13.7499, 12.4729 13.9022, 12.5737 14.3241, 12.6664 14.6722, 12.7512 14.947, 12.8359 15.2218, 12.8943 15.3684, 12.9252 15.3861, 12.9882 15.4354, 13.1393 15.4663, 13.3781 15.4783, 13.6174 15.4909, 13.9036 15.4966, 14.2368 15.496 L 15.4443 15.496 C 15.3126 14.947, 15.0624 14.3825, 14.6943 13.802, 14.3267 13.222, 13.9443 12.6387, 13.5481 12.0524, 13.1519 11.4662, 12.8015 10.8587, 12.4964 10.2295, 12.1918 9.60092, 12.039 8.91677, 12.039 8.17708, 12.039 7.49351, 12.1993 6.86203, 12.5199 6.28151, 12.8405 5.70155, 13.2716 5.20347, 13.812 4.78783, 14.3971 4.31837, 15.0515 3.96857, 15.7746 3.73956, 16.4977 3.51056, 17.2396 3.39606, 18.0005 3.39548, 18.7619 3.39606, 19.5039 3.51056, 20.227 3.73956, 20.9501 3.96857, 21.6136 4.31837, 22.217 4.78783, 22.7455 5.21606, 23.1731 5.71816, 23.5 6.29525, 23.8269 6.87234, 23.9901 7.49981, 23.9901 8.17708, 23.9901 8.91677, 23.8378 9.60092, 23.5327 10.2295, 23.2281 10.8587, 22.8743 11.4662, 22.4718 12.0524, 22.0693 12.6387, 21.6823 13.222, 21.3113 13.802, 20.9403 14.3825, 20.689 14.947, 20.5568 15.496 L 21.7733 15.496 C 22.1071 15.4966, 22.3934 15.4909, 22.6321 15.4783, 22.8714 15.4663, 23.022 15.4354, 23.085 15.3861, 23.1039 15.3747, 23.1571 15.2281, 23.2453 14.947, 23.3334 14.6665, 23.4273 14.3178, 23.5281 13.9022, 23.5659 13.7562, 23.6701 13.68, 23.8395 13.6732 L 23.9432 13.6732 C 24.1132 13.7104, 24.1979 13.814, 24.1979 13.9846 Z" stroke="none" fill="#000000" />
			<rect />
		</svg>
	</g>
	<path d="M 0 -335.117 L 0 335.117" fill="none" stroke="#000000" stroke-width="5.5999999" stroke-linecap="round" stroke-linejoin="round" transform="matrix(0.238095 0 0 0.238095 192.818 89.5564)" />
	<g transform="matrix(1 0 -0 1 8.99999 78.2911)">
		<svg width="81.075737" height="60.1595573">
			<defs />
			<path d="M 12.9653 14.9922 C 12.8966 15.2676, 12.793 15.5378, 12.6545 15.8035, 12.5159 16.0691, 12.3465 16.309, 12.1449 16.5226, 11.9434 16.7367, 11.7184 16.9113, 11.47 17.0487, 11.2215 17.1861, 10.953 17.2548, 10.6633 17.2548, 9.75128 17.2548, 9.06541 17.0138, 8.60626 16.5311, 8.29195 16.202, 8.13451 15.7869, 8.13451 15.2854, 8.13451 15.0295, 8.17573 14.7518, 8.2576 14.4518 L 8.68183 12.8121 C 8.73221 12.6049, 8.7574 12.4097, 8.7574 12.2259, 8.7574 12.1348, 8.7511 12.0404, 8.73851 11.9419, 8.70072 11.686, 8.61313 11.4604, 8.47458 11.2646, 8.33603 11.0694, 8.15856 10.9154, 7.94158 10.802, 7.72459 10.6893, 7.46811 10.6326, 7.17212 10.632 L 5.0401 10.632, 3.78515 15.5144 C 3.75996 15.6312, 3.74737 15.7256, 3.74737 15.7983, 3.74737 15.8905, 3.76626 15.9518, 3.80405 15.9815, 3.88592 16.0308, 4.05595 16.06, 4.31358 16.0691, 4.57178 16.0783, 4.84831 16.0829, 5.14372 16.0823, 5.32005 16.0829, 5.40822 16.1562, 5.40822 16.3021, 5.40822 16.3394, 5.40192 16.3789, 5.38933 16.4212 L 5.35154 16.5678 C 5.28284 16.751, 5.15975 16.8426, 4.98342 16.8426, 4.20996 16.806, 3.4302 16.7876, 2.64357 16.7876, 1.85751 16.7876, 1.06802 16.806, 0.27567 16.8426, 0.106207 16.8426, 0.0151782 16.7636, 0.00201051 16.6044 L 0.00201051 16.5311, 0.0397962 16.3754 C 0.090177 16.1745, 0.212694 16.0766, 0.407347 16.0823, 0.703335 16.0829, 0.983292 16.0783, 1.24722 16.0691, 1.51172 16.06, 1.70637 16.0279, 1.83232 15.9724, 1.95198 15.906, 2.04301 15.7411, 2.10598 15.4777 L 4.75728 5.15423 C 4.79506 5.02027, 4.81338 4.91664, 4.81338 4.84279, 4.81338 4.77008, 4.79792 4.72714, 4.76644 4.71455, 4.67827 4.66016, 4.50709 4.62695, 4.25232 4.61436, 3.99756 4.60234, 3.71932 4.59604, 3.41703 4.59547, 3.24127 4.59604, 3.1531 4.5136, 3.1531 4.34814 L 3.1531 4.27486, 3.20978 4.11914 C 3.24757 3.93651, 3.36436 3.84491, 3.55901 3.84433 L 8.87076 3.84433 C 9.46846 3.84491, 10.0375 3.92448, 10.5786 4.08307, 11.1196 4.24223, 11.5913 4.50444, 11.9938 4.87027, 12.327 5.16397, 12.5692 5.52408, 12.7203 5.95117, 12.8148 6.18361, 12.8652 6.42521, 12.8709 6.67482, 12.8709 6.90154, 12.8365 7.12424, 12.7673 7.34351, 12.6482 7.83244, 12.3997 8.27556, 12.0219 8.67231, 11.6446 9.06963, 11.2198 9.40798, 10.748 9.68851, 10.4211 9.87859, 10.0896 10.036, 9.753 10.1608, 9.41636 10.2862, 9.17591 10.3641, 9.03106 10.3938, 9.38945 10.5347, 9.72952 10.8095, 10.0501 11.2183, 10.3209 11.5732, 10.456 11.9974, 10.456 12.4915, 10.456 12.5957, 10.4497 12.6999, 10.4371 12.803 L 10.2574 14.4518 C 10.2076 14.88, 10.1824 15.2522, 10.1824 15.5693, 10.1824 15.7777, 10.195 15.9609, 10.2202 16.1189, 10.2642 16.4796, 10.4526 16.66, 10.7858 16.6594, 11.0881 16.66, 11.3646 16.4968, 11.6165 16.1699, 11.8684 15.8436, 12.0539 15.4388, 12.173 14.9556, 12.2423 14.773, 12.3648 14.6842, 12.5411 14.69 L 12.6917 14.69 C 12.8617 14.6905, 12.9528 14.7701, 12.9653 14.9281 L 12.9653 14.9922 Z M 10.748 7.28855 C 10.8488 6.92272, 10.9055 6.55631, 10.9181 6.18933 L 10.9181 6.13437 C 10.9181 5.8235, 10.8207 5.55499, 10.6255 5.32828, 10.3931 5.06034, 10.0896 4.87084, 9.71521 4.76092, 9.34079 4.651, 8.9303 4.59604, 8.48374 4.59547 L 7.2288 4.59547 C 6.9082 4.59604, 6.7164 4.62066, 6.65343 4.66932, 6.59045 4.71856, 6.52461 4.89203, 6.45534 5.19088 L 5.21013 10.0366, 7.03071 10.0366 C 7.47727 10.0372, 7.9181 9.98221, 8.35207 9.87229, 8.78603 9.76237, 9.19823 9.56714, 9.58754 9.28547, 9.92131 9.04787, 10.1732 8.74902, 10.3427 8.38834, 10.5127 8.02823, 10.6478 7.66183, 10.748 7.28855 Z" stroke="none" fill="#000000" />
			<path d="M 2.56082 1.89419 C 2.53293 2.11669, 2.46176 2.31514, 2.34698 2.48955, 2.23252 2.66396, 2.09082 2.81272, 1.92154 2.93584, 1.75258 3.05895, 1.56406 3.15289, 1.35631 3.21765, 1.14856 3.28273, 0.933751 3.31511, 0.711572 3.31511, 0.380707 3.31511, 0.0655519 3.25195, -0.233894 3.12563, -0.533339 2.99932, -0.797518 2.82138, -1.02643 2.59183, -1.26592 2.35265, -1.44386 2.08431, -1.56024 1.78679, -1.6763 1.48926, -1.73465 1.17475, -1.73465 0.842602, -1.73465 0.521356, -1.67918 0.212933, -1.56825 -0.0829854, -1.45732 -0.378584, -1.29061 -0.644686, -1.06875 -0.880973, -0.857471 -1.10988, -0.610926 -1.28654, -0.329113 -1.41157, -0.0473012 -1.53629, 0.248618 -1.59881, 0.558323 -1.59913, 0.833402 -1.59881, 1.10015 -1.55264, 1.35887 -1.46031, 1.61792 -1.36797, 1.84587 -1.21761, 2.04305 -1.00921, 2.24054 -0.776455, 2.37616 -0.520612, 2.44989 -0.242006, 2.52395 0.036921, 2.56082 0.318092, 2.56082 0.601507, 2.56082 0.714681, 2.50279 0.771107, 2.38674 0.770787 L -0.730832 0.770787, -0.730832 0.842602 C -0.730832 1.09941, -0.707748 1.35237, -0.661902 1.6018, -0.619582 1.88265, -0.519232 2.1356, -0.360853 2.36099, -0.22684 2.53572, -0.0623696 2.67679, 0.1332 2.78451, 0.328769 2.89223, 0.53556 2.94609, 0.753892 2.94577, 0.919645 2.94609, 1.07899 2.91981, 1.23224 2.86658, 1.38548 2.81368, 1.52751 2.7377, 1.65768 2.63831, 1.78784 2.53925, 1.89813 2.42383, 1.9879 2.29206, 2.07767 2.16061, 2.14372 2.01409, 2.18572 1.85315, 2.20688 1.7714, 2.2633 1.73036, 2.355 1.73004 L 2.41303 1.73004 C 2.50824 1.75088, 2.55762 1.8057, 2.56082 1.89419 Z M 1.73142 0.447617 C 1.72436 0.239223, 1.7 0.0256999, 1.65768 -0.193274, 1.61536 -0.411927, 1.53072 -0.615511, 1.40376 -0.804027, 1.30533 -0.947338, 1.18222 -1.06019, 1.0341 -1.14227, 0.886302 -1.22434, 0.727602 -1.26538, 0.558323 -1.2657, 0.361471 -1.26538, 0.180008 -1.21216, 0.014255 -1.10636, -0.151177 -1.00024, -0.29032 -0.85821, -0.403173 -0.680594, -0.515706 -0.502658, -0.593292 -0.315424, -0.635612 -0.118893, -0.677932 0.0779583, -0.704222 0.266795, -0.714802 0.447617 L 1.73142 0.447617 Z" stroke="none" fill="#000000" transform="matrix(1.12 0 0 1 15.6733 16.3063)" />
			<path d="M 3.30376 5.23361 C 2.8671 5.22015, 2.44293 5.2131, 2.03064 5.2131, 1.62571 5.2131, 1.20315 5.22015, 0.762642 5.23361 L 0.762642 4.81811 C 0.921342 4.81811, 1.06754 4.81651, 1.20123 4.81298, 1.33524 4.80977, 1.43559 4.79246, 1.50228 4.76168, 1.5446 4.74116, 1.57281 4.70622, 1.58692 4.65653, 1.60103 4.60715, 1.60808 4.55137, 1.60808 4.48981 L 1.60808 2.65851 C 1.50228 2.80599, 1.3253 2.95219, 1.07716 3.09742, 0.829007 3.24266, 0.548157 3.31511, 0.234605 3.31511, -0.0892069 3.31511, -0.395706 3.25195, -0.684571 3.12563, -0.973116 2.99932, -1.22319 2.82459, -1.43479 2.60209, -1.6637 2.36291, -1.83715 2.09809, -1.95513 1.8073, -2.07311 1.51684, -2.1321 1.21066, -2.1321 0.88877, -2.1321 0.567523, -2.07023 0.258139, -1.94712 -0.0393832, -1.82368 -0.336905, -1.64575 -0.600122, -1.41363 -0.829676, -1.17766 -1.05859, -0.910598 -1.23524, -0.613076 -1.36028, -0.315554 -1.48499, -0.00136089 -1.54751, 0.329504 -1.54783, 0.664216 -1.54751, 0.95757 -1.45582, 1.20925 -1.27307, 1.46124 -1.09001, 1.64334 -0.887385, 1.75588 -0.665526 L 2.13099 -1.54783, 2.46377 -1.54783, 2.46377 4.48981 C 2.46377 4.54816, 2.47083 4.60202, 2.48493 4.6514, 2.49904 4.70109, 2.52918 4.73796, 2.5747 4.76168, 2.63466 4.79246, 2.73148 4.80977, 2.86517 4.81298, 2.99919 4.81651, 3.14538 4.81811, 3.30376 4.81811 L 3.30376 5.23361 Z M 1.62924 0.0628901 C 1.55165 -0.285608, 1.40546 -0.580565, 1.19065 -0.821661, 0.975845 -1.06276, 0.703009 -1.1833, 0.371824 -1.18362, 0.167919 -1.1833, -0.0241239 -1.12944, -0.203663 -1.02172, -0.383202 -0.913995, -0.536451 -0.771325, -0.663411 -0.59371, -0.825317 -0.384675, -0.941376 -0.152878, -1.01191 0.101683, -1.08244 0.356565, -1.11771 0.61882, -1.11771 0.88877, -1.11771 1.15936, -1.08693 1.42258, -1.02537 1.67906, -0.963818 1.93555, -0.85353 2.17312, -0.695151 2.39177, -0.575245 2.56297, -0.434499 2.7034, -0.272593 2.81272, -0.110367 2.92237, 0.0656457 2.97687, 0.255765 2.97655, 0.579897 2.97687, 0.859785 2.87428, 1.09575 2.66909, 1.33172 2.4639, 1.50933 2.20229, 1.62924 1.88393 Z" stroke="none" fill="#000000" transform="matrix(1.12 0 0 1 21.4656 16.3063)" />
			<rect />
		</svg>
	</g>
	<path d="M -213.117 0 L 213.117 0" fill="none" stroke="#000000" stroke-width="5.5999999" stroke-linecap="round" stroke-linejoin="round" transform="matrix(0.238095 0 0 0.238095 142.076 89.5564)" />
	<rect x="-76.5210266" y="-19.1301365" width="153.042053" height="38.260273" stroke="none" fill="#FFFFFF" transform="matrix(0.238095 0 -0 0.238095 142.654 89.5564)" />
	<path d="M -76.521 -19.1301 L 76.521 -19.1301, 76.521 19.1301, -76.521 19.1301 Z" fill="none" stroke="#000000" stroke-width="6.29999971" stroke-linecap="round" stroke-linejoin="round" transform="matrix(0.238095 0 -0 0.238095 142.654 89.5564)" />
	<path d="M -76.5204 -19.1299 L 76.5204 -19.1299, 76.5204 19.1299, -76.5204 19.1299 Z" stroke="none" fill="#FFFFFF" transform="matrix(1.79757e-008 0.238095 -0.238095 1.79757e-008 192.818 129.451)" />
	<path d="M -76.5204 -19.1299 L 76.5204 -19.1299, 76.5204 19.1299, -76.5204 19.1299 Z" fill="none" stroke="#000000" stroke-width="6.29999971" stroke-linecap="round" stroke-linejoin="round" transform="matrix(1.79757e-008 0.238095 -0.238095 1.79757e-008 192.818 129.451)" />
	<path d="M -76.5205 -19.1299 L 76.5205 -19.1299, 76.5205 19.1299, -76.5205 19.1299 Z" stroke="none" fill="#FFFFFF" transform="matrix(1.79757e-008 0.238095 -0.238095 1.79757e-008 90.857 49.6615)" />
	<path d="M -76.5205 -19.1299 L 76.5205 -19.1299, 76.5205 19.1299, -76.5205 19.1299 Z" fill="none" stroke="#000000" stroke-width="6.29999971" stroke-linecap="round" stroke-linejoin="round" transform="matrix(1.79757e-008 0.238095 -0.238095 1.79757e-008 90.857 49.6615)" />
	<path d="M -76.5205 -19.1299 L 76.5205 -19.1299, 76.5205 19.1299, -76.5205 19.1299 Z" stroke="none" fill="#FFFFFF" transform="matrix(1.79757e-008 0.238095 -0.238095 1.79757e-008 192.818 49.6615)" />
	<path d="M -76.5205 -19.1299 L 76.5205 -19.1299, 76.5205 19.1299, -76.5205 19.1299 Z" fill="none" stroke="#000000" stroke-width="6.29999971" stroke-linecap="round" stroke-linejoin="round" transform="matrix(1.79757e-008 0.238095 -0.238095 1.79757e-008 192.818 49.6615)" />
	<g transform="matrix(1 0 -0 1 204.465 118.244)">
		<svg width="77.9182587" height="45.2233963">
			<defs />
			<path d="M 7.07718 13.5711 L 7.07718 15.3935 C 7.07718 15.5017, 7.09738 15.6022, 7.13778 15.6947, 7.17817 15.7879, 7.24438 15.849, 7.33639 15.8782, 7.47834 15.9444, 7.7095 15.9809, 8.02986 15.9865, 8.35023 15.9927, 8.6734 15.9955, 8.99993 15.9949 L 8.99993 16.7669 C 8.05735 16.731, 7.13329 16.7131, 6.22662 16.7131, 5.33341 16.7131, 4.39363 16.731, 3.40729 16.7669 L 3.40729 15.9949 C 3.74617 15.9955, 4.07327 15.9927, 4.38746 15.9865, 4.70166 15.9809, 4.93618 15.9444, 5.08991 15.8782, 5.18248 15.849, 5.25037 15.7879, 5.29357 15.6947, 5.33678 15.6022, 5.3581 15.5017, 5.3581 15.3935 L 5.3581 13.5711, 0.0886252 13.5711, 0.0886252 12.844, 6.26365 3.66058 C 6.34444 3.55342, 6.44599 3.49956, 6.56886 3.49899 L 6.77253 3.49899 C 6.97563 3.49956, 7.07718 3.60111, 7.07718 3.80421 L 7.07718 12.7812, 9.06502 12.7812, 9.06502 13.5711 Z M 5.45011 6.02152 L 0.902161 12.7812, 5.45011 12.7812 Z" stroke="none" fill="#000000" />
			<path d="M 23.8206 16.6044 C 23.7829 16.751, 23.6792 16.8243, 23.5092 16.8243 L 20.3873 16.8243 C 20.1801 16.8243, 20.0759 16.7241, 20.0759 16.522, 20.0759 15.7714, 20.1875 15.0478, 20.4108 14.3516, 20.6341 13.6554, 20.8779 12.9673, 21.1419 12.286, 21.4064 11.6053, 21.6451 10.9257, 21.8587 10.2479, 22.0728 9.57, 22.1793 8.88013, 22.1793 8.17708, 22.1793 7.62805, 22.0945 7.09561, 21.9245 6.57921, 21.755 6.06338, 21.4877 5.60995, 21.123 5.21893, 20.7583 4.82848, 20.3278 4.52905, 19.8308 4.32123, 19.3339 4.11398, 18.8152 4.00979, 18.2742 4.00921, 17.7337 4.00979, 17.215 4.11398, 16.7181 4.32123, 16.2211 4.52905, 15.7923 4.82848, 15.4305 5.21893, 15.0687 5.60995, 14.8013 6.06338, 14.6284 6.57921, 14.4555 7.09561, 14.3691 7.62805, 14.3691 8.17708, 14.3691 8.88013, 14.4779 9.57, 14.6943 10.2479, 14.9112 10.9257, 15.1517 11.6053, 15.4156 12.286, 15.6801 12.9673, 15.9234 13.6571, 16.1467 14.3562, 16.37 15.0558, 16.4816 15.7777, 16.4816 16.522, 16.4816 16.7241, 16.3843 16.8243, 16.1897 16.8243 L 13.0386 16.8243 C 12.8754 16.8243, 12.7746 16.751, 12.7369 16.6044 L 12.0767 13.9846 C 12.0767 13.8203, 12.1649 13.7167, 12.3407 13.6732 L 12.4443 13.6732 C 12.608 13.6738, 12.7088 13.7499, 12.7466 13.9022, 12.8473 14.3241, 12.9401 14.6722, 13.0248 14.947, 13.1096 15.2218, 13.168 15.3684, 13.1989 15.3861, 13.2618 15.4354, 13.413 15.4663, 13.6517 15.4783, 13.891 15.4909, 14.1773 15.4966, 14.5105 15.496 L 15.7179 15.496 C 15.5862 14.947, 15.336 14.3825, 14.9679 13.802, 14.6004 13.222, 14.2179 12.6387, 13.8218 12.0524, 13.4256 11.4662, 13.0752 10.8587, 12.7701 10.2295, 12.4655 9.60092, 12.3126 8.91677, 12.3126 8.17708, 12.3126 7.49351, 12.4729 6.86203, 12.7935 6.28151, 13.1141 5.70155, 13.5452 5.20347, 14.0857 4.78783, 14.6708 4.31837, 15.3252 3.96857, 16.0482 3.73956, 16.7713 3.51056, 17.5133 3.39606, 18.2742 3.39548, 19.0356 3.39606, 19.7776 3.51056, 20.5007 3.73956, 21.2237 3.96857, 21.8873 4.31837, 22.4907 4.78783, 23.0191 5.21606, 23.4468 5.71816, 23.7737 6.29525, 24.1006 6.87234, 24.2638 7.49981, 24.2638 8.17708, 24.2638 8.91677, 24.1115 9.60092, 23.8063 10.2295, 23.5018 10.8587, 23.1479 11.4662, 22.7455 12.0524, 22.343 12.6387, 21.956 13.222, 21.585 13.802, 21.214 14.3825, 20.9627 14.947, 20.8304 15.496 L 22.047 15.496 C 22.3808 15.4966, 22.667 15.4909, 22.9058 15.4783, 23.1451 15.4663, 23.2957 15.4354, 23.3586 15.3861, 23.3775 15.3747, 23.4308 15.2281, 23.5189 14.947, 23.6071 14.6665, 23.701 14.3178, 23.8017 13.9022, 23.8395 13.7562, 23.9437 13.68, 24.1132 13.6732 L 24.2168 13.6732 C 24.3869 13.7104, 24.4716 13.814, 24.4716 13.9846 Z" stroke="none" fill="#000000" />
			<rect />
		</svg>
	</g>
	<g transform="matrix(1 0 -0 1 55.2376 38.3517)">
		<svg width="77.9182587" height="48.0957298">
			<defs />
			<path d="M 8.50221 12.7632 C 8.50221 13.386, 8.41019 13.9442, 8.22504 14.438, 8.03989 14.9317, 7.7257 15.4181, 7.2819 15.8962, 6.84428 16.3456, 6.39599 16.6732, 5.93704 16.8791, 5.4781 17.0856, 4.92489 17.1888, 4.27743 17.1888, 3.61818 17.1888, 3.01448 17.0261, 2.46577 16.6996, 1.91705 16.3742, 1.47942 15.9326, 1.15289 15.3755, 0.690575 14.6158, 0.39658 13.8141, 0.270341 12.9702, 0.144103 12.1264, 0.0807031 11.2854, 0.0807031 10.4472, 0.0807031 9.61005, 0.202453 8.78586, 0.445953 7.97457, 0.689453 7.16384, 1.07883 6.41426, 1.6152 5.72528, 2.06517 5.13953, 2.61389 4.65758, 3.26079 4.28055, 3.90825 3.90352, 4.61967 3.715, 5.39618 3.71444, 6.14239 3.715, 6.7618 3.90689, 7.25441 4.28953, 7.74758 4.67273, 7.99389 5.22313, 7.99389 5.94073, 7.99389 6.27624, 7.89233 6.52479, 7.68867 6.68637, 7.48557 6.84796, 7.25104 6.92875, 6.98622 6.92819, 6.73375 6.92875, 6.50708 6.84796, 6.30678 6.68637, 6.10648 6.52479, 6.00605 6.27624, 6.00605 5.94073, 6.00605 5.58221, 6.13902 5.3129, 6.40384 5.1328, 6.57665 5.02564, 6.77078 4.97178, 6.98622 4.97122, 7.05411 4.97178, 7.06309 4.96897, 7.01372 4.96224, 6.92787 4.83095, 6.73824 4.70135, 6.44536 4.5723, 6.15249 4.44382, 5.80295 4.3793, 5.39618 4.37874, 4.84746 4.3793, 4.35485 4.54257, 3.91723 4.86854, 3.4796 5.19508, 3.10986 5.60297, 2.80745 6.09333, 2.45062 6.71611, 2.23461 7.39443, 2.16055 8.12718, 2.08649 8.86048, 2.04329 9.4451, 2.03095 9.88161, 2.14204 9.62464, 2.4091 9.30933, 2.83102 8.9351, 3.25293 8.56143, 3.78762 8.37404, 4.43453 8.37348, 5.05113 8.37404, 5.58301 8.47728, 6.02962 8.68375, 6.47622 8.89022, 6.90599 9.2117, 7.31893 9.64821, 7.75039 10.1274, 8.0556 10.6093, 8.23402 11.0941, 8.413 11.5788, 8.50221 12.1354, 8.50221 12.7632 Z M 6.53289 12.7632 C 6.53289 12.1892, 6.51493 11.6731, 6.4779 11.2152, 6.44087 10.7574, 6.318 10.3551, 6.10817 10.0073, 5.89272 9.65494, 5.65202 9.39461, 5.3872 9.22685, 5.12238 9.05966, 4.79865 8.9755, 4.41601 8.97494, 4.00307 8.9755, 3.65072 9.08041, 3.35785 9.28969, 3.06498 9.49953, 2.81699 9.77445, 2.61389 10.1156, 2.41078 10.4567, 2.26547 10.8545, 2.17907 11.3089, 2.11735 11.6209, 2.08649 11.953, 2.08649 12.3054, 2.08649 12.4434, 2.09266 12.5904, 2.10501 12.7453 L 2.10501 12.8171 C 2.12969 13.2665, 2.16392 13.6856, 2.20712 14.0744, 2.25032 14.4638, 2.31821 14.7808, 2.41022 15.0254, 2.58303 15.4569, 2.83719 15.807, 3.1727 16.0763, 3.50878 16.3456, 3.87683 16.4802, 4.27743 16.4797, 4.69037 16.4802, 5.03879 16.4011, 5.32212 16.2423, 5.60602 16.0841, 5.85569 15.8277, 6.07114 15.4742, 6.29332 15.1219, 6.42573 14.7224, 6.46837 14.2764, 6.51157 13.8309, 6.53289 13.3265, 6.53289 12.7632 Z" stroke="none" fill="#000000" />
			<path d="M 23.547 16.6044 C 23.5092 16.751, 23.4056 16.8243, 23.2355 16.8243 L 20.1136 16.8243 C 19.9064 16.8243, 19.8022 16.7241, 19.8022 16.522, 19.8022 15.7714, 19.9138 15.0478, 20.1371 14.3516, 20.3604 13.6554, 20.6043 12.9673, 20.8682 12.286, 21.1327 11.6053, 21.3714 10.9257, 21.585 10.2479, 21.7991 9.57, 21.9056 8.88013, 21.9056 8.17708, 21.9056 7.62805, 21.8209 7.09561, 21.6508 6.57921, 21.4814 6.06338, 21.214 5.60995, 20.8493 5.21893, 20.4846 4.82848, 20.0541 4.52905, 19.5572 4.32123, 19.0602 4.11398, 18.5415 4.00979, 18.0005 4.00921, 17.4601 4.00979, 16.9414 4.11398, 16.4444 4.32123, 15.9475 4.52905, 15.5187 4.82848, 15.1569 5.21893, 14.795 5.60995, 14.5277 6.06338, 14.3548 6.57921, 14.1819 7.09561, 14.0954 7.62805, 14.0954 8.17708, 14.0954 8.88013, 14.2042 9.57, 14.4206 10.2479, 14.6376 10.9257, 14.878 11.6053, 15.142 12.286, 15.4065 12.9673, 15.6498 13.6571, 15.8731 14.3562, 16.0963 15.0558, 16.208 15.7777, 16.208 16.522, 16.208 16.7241, 16.1107 16.8243, 15.916 16.8243 L 12.7649 16.8243 C 12.6017 16.8243, 12.501 16.751, 12.4632 16.6044 L 11.8031 13.9846 C 11.8031 13.8203, 11.8913 13.7167, 12.067 13.6732 L 12.1706 13.6732 C 12.3344 13.6738, 12.4351 13.7499, 12.4729 13.9022, 12.5737 14.3241, 12.6664 14.6722, 12.7512 14.947, 12.8359 15.2218, 12.8943 15.3684, 12.9252 15.3861, 12.9882 15.4354, 13.1393 15.4663, 13.3781 15.4783, 13.6174 15.4909, 13.9036 15.4966, 14.2368 15.496 L 15.4443 15.496 C 15.3126 14.947, 15.0624 14.3825, 14.6943 13.802, 14.3267 13.222, 13.9443 12.6387, 13.5481 12.0524, 13.1519 11.4662, 12.8015 10.8587, 12.4964 10.2295, 12.1918 9.60092, 12.039 8.91677, 12.039 8.17708, 12.039 7.49351, 12.1993 6.86203, 12.5199 6.28151, 12.8405 5.70155, 13.2716 5.20347, 13.812 4.78783, 14.3971 4.31837, 15.0515 3.96857, 15.7746 3.73956, 16.4977 3.51056, 17.2396 3.39606, 18.0005 3.39548, 18.7619 3.39606, 19.5039 3.51056, 20.227 3.73956, 20.9501 3.96857, 21.6136 4.31837, 22.217 4.78783, 22.7455 5.21606, 23.1731 5.71816, 23.5 6.29525, 23.8269 6.87234, 23.9901 7.49981, 23.9901 8.17708, 23.9901 8.91677, 23.8378 9.60092, 23.5327 10.2295, 23.2281 10.8587, 22.8743 11.4662, 22.4718 12.0524, 22.0693 12.6387, 21.6823 13.222, 21.3113 13.802, 20.9403 14.3825, 20.689 14.947, 20.5568 15.496 L 21.7733 15.496 C 22.1071 15.4966, 22.3934 15.4909, 22.6321 15.4783, 22.8714 15.4663, 23.022 15.4354, 23.085 15.3861, 23.1039 15.3747, 23.1571 15.2281, 23.2453 14.947, 23.3334 14.6665, 23.4273 14.3178, 23.5281 13.9022, 23.5659 13.7562, 23.6701 13.68, 23.8395 13.6732 L 23.9432 13.6732 C 24.1132 13.7104, 24.1979 13.814, 24.1979 13.9846 Z" stroke="none" fill="#000000" />
			<rect />
		</svg>
	</g>
	<g transform="matrix(1 0 -0 1 204.602 38.4541)">
		<svg width="77.9182587" height="48.0957298">
			<defs />
			<path d="M 8.50221 12.7632 C 8.50221 13.386, 8.41019 13.9442, 8.22504 14.438, 8.03989 14.9317, 7.7257 15.4181, 7.2819 15.8962, 6.84428 16.3456, 6.39599 16.6732, 5.93704 16.8791, 5.4781 17.0856, 4.92489 17.1888, 4.27743 17.1888, 3.61818 17.1888, 3.01448 17.0261, 2.46577 16.6996, 1.91705 16.3742, 1.47942 15.9326, 1.15289 15.3755, 0.690575 14.6158, 0.39658 13.8141, 0.270341 12.9702, 0.144103 12.1264, 0.0807031 11.2854, 0.0807031 10.4472, 0.0807031 9.61005, 0.202453 8.78586, 0.445953 7.97457, 0.689453 7.16384, 1.07883 6.41426, 1.6152 5.72528, 2.06517 5.13953, 2.61389 4.65758, 3.26079 4.28055, 3.90825 3.90352, 4.61967 3.715, 5.39618 3.71444, 6.14239 3.715, 6.7618 3.90689, 7.25441 4.28953, 7.74758 4.67273, 7.99389 5.22313, 7.99389 5.94073, 7.99389 6.27624, 7.89233 6.52479, 7.68867 6.68637, 7.48557 6.84796, 7.25104 6.92875, 6.98622 6.92819, 6.73375 6.92875, 6.50708 6.84796, 6.30678 6.68637, 6.10648 6.52479, 6.00605 6.27624, 6.00605 5.94073, 6.00605 5.58221, 6.13902 5.3129, 6.40384 5.1328, 6.57665 5.02564, 6.77078 4.97178, 6.98622 4.97122, 7.05411 4.97178, 7.06309 4.96897, 7.01372 4.96224, 6.92787 4.83095, 6.73824 4.70135, 6.44536 4.5723, 6.15249 4.44382, 5.80295 4.3793, 5.39618 4.37874, 4.84746 4.3793, 4.35485 4.54257, 3.91723 4.86854, 3.4796 5.19508, 3.10986 5.60297, 2.80745 6.09333, 2.45062 6.71611, 2.23461 7.39443, 2.16055 8.12718, 2.08649 8.86048, 2.04329 9.4451, 2.03095 9.88161, 2.14204 9.62464, 2.4091 9.30933, 2.83102 8.9351, 3.25293 8.56143, 3.78762 8.37404, 4.43453 8.37348, 5.05113 8.37404, 5.58301 8.47728, 6.02962 8.68375, 6.47622 8.89022, 6.90599 9.2117, 7.31893 9.64821, 7.75039 10.1274, 8.0556 10.6093, 8.23402 11.0941, 8.413 11.5788, 8.50221 12.1354, 8.50221 12.7632 Z M 6.53289 12.7632 C 6.53289 12.1892, 6.51493 11.6731, 6.4779 11.2152, 6.44087 10.7574, 6.318 10.3551, 6.10817 10.0073, 5.89272 9.65494, 5.65202 9.39461, 5.3872 9.22685, 5.12238 9.05966, 4.79865 8.9755, 4.41601 8.97494, 4.00307 8.9755, 3.65072 9.08041, 3.35785 9.28969, 3.06498 9.49953, 2.81699 9.77445, 2.61389 10.1156, 2.41078 10.4567, 2.26547 10.8545, 2.17907 11.3089, 2.11735 11.6209, 2.08649 11.953, 2.08649 12.3054, 2.08649 12.4434, 2.09266 12.5904, 2.10501 12.7453 L 2.10501 12.8171 C 2.12969 13.2665, 2.16392 13.6856, 2.20712 14.0744, 2.25032 14.4638, 2.31821 14.7808, 2.41022 15.0254, 2.58303 15.4569, 2.83719 15.807, 3.1727 16.0763, 3.50878 16.3456, 3.87683 16.4802, 4.27743 16.4797, 4.69037 16.4802, 5.03879 16.4011, 5.32212 16.2423, 5.60602 16.0841, 5.85569 15.8277, 6.07114 15.4742, 6.29332 15.1219, 6.42573 14.7224, 6.46837 14.2764, 6.51157 13.8309, 6.53289 13.3265, 6.53289 12.7632 Z" stroke="none" fill="#000000" />
			<path d="M 23.547 16.6044 C 23.5092 16.751, 23.4056 16.8243, 23.2355 16.8243 L 20.1136 16.8243 C 19.9064 16.8243, 19.8022 16.7241, 19.8022 16.522, 19.8022 15.7714, 19.9138 15.0478, 20.1371 14.3516, 20.3604 13.6554, 20.6043 12.9673, 20.8682 12.286, 21.1327 11.6053, 21.3714 10.9257, 21.585 10.2479, 21.7991 9.57, 21.9056 8.88013, 21.9056 8.17708, 21.9056 7.62805, 21.8209 7.09561, 21.6508 6.57921, 21.4814 6.06338, 21.214 5.60995, 20.8493 5.21893, 20.4846 4.82848, 20.0541 4.52905, 19.5572 4.32123, 19.0602 4.11398, 18.5415 4.00979, 18.0005 4.00921, 17.4601 4.00979, 16.9414 4.11398, 16.4444 4.32123, 15.9475 4.52905, 15.5187 4.82848, 15.1569 5.21893, 14.795 5.60995, 14.5277 6.06338, 14.3548 6.57921, 14.1819 7.09561, 14.0954 7.62805, 14.0954 8.17708, 14.0954 8.88013, 14.2042 9.57, 14.4206 10.2479, 14.6376 10.9257, 14.878 11.6053, 15.142 12.286, 15.4065 12.9673, 15.6498 13.6571, 15.8731 14.3562, 16.0963 15.0558, 16.208 15.7777, 16.208 16.522, 16.208 16.7241, 16.1107 16.8243, 15.916 16.8243 L 12.7649 16.8243 C 12.6017 16.8243, 12.501 16.751, 12.4632 16.6044 L 11.8031 13.9846 C 11.8031 13.8203, 11.8913 13.7167, 12.067 13.6732 L 12.1706 13.6732 C 12.3344 13.6738, 12.4351 13.7499, 12.4729 13.9022, 12.5737 14.3241, 12.6664 14.6722, 12.7512 14.947, 12.8359 15.2218, 12.8943 15.3684, 12.9252 15.3861, 12.9882 15.4354, 13.1393 15.4663, 13.3781 15.4783, 13.6174 15.4909, 13.9036 15.4966, 14.2368 15.496 L 15.4443 15.496 C 15.3126 14.947, 15.0624 14.3825, 14.6943 13.802, 14.3267 13.222, 13.9443 12.6387, 13.5481 12.0524, 13.1519 11.4662, 12.8015 10.8587, 12.4964 10.2295, 12.1918 9.60092, 12.039 8.91677, 12.039 8.17708, 12.039 7.49351, 12.1993 6.86203, 12.5199 6.28151, 12.8405 5.70155, 13.2716 5.20347, 13.812 4.78783, 14.3971 4.31837, 15.0515 3.96857, 15.7746 3.73956, 16.4977 3.51056, 17.2396 3.39606, 18.0005 3.39548, 18.7619 3.39606, 19.5039 3.51056, 20.227 3.73956, 20.9501 3.96857, 21.6136 4.31837, 22.217 4.78783, 22.7455 5.21606, 23.1731 5.71816, 23.5 6.29525, 23.8269 6.87234, 23.9901 7.49981, 23.9901 8.17708, 23.9901 8.91677, 23.8378 9.60092, 23.5327 10.2295, 23.2281 10.8587, 22.8743 11.4662, 22.4718 12.0524, 22.0693 12.6387, 21.6823 13.222, 21.3113 13.802, 20.9403 14.3825, 20.689 14.947, 20.5568 15.496 L 21.7733 15.496 C 22.1071 15.4966, 22.3934 15.4909, 22.6321 15.4783, 22.8714 15.4663, 23.022 15.4354, 23.085 15.3861, 23.1039 15.3747, 23.1571 15.2281, 23.2453 14.947, 23.3334 14.6665, 23.4273 14.3178, 23.5281 13.9022, 23.5659 13.7562, 23.6701 13.68, 23.8395 13.6732 L 23.9432 13.6732 C 24.1132 13.7104, 24.1979 13.814, 24.1979 13.9846 Z" stroke="none" fill="#000000" />
			<rect />
		</svg>
	</g>
</svg>
