<?xml version="1.0"?>
<svg xmlns="http://www.w3.org/2000/svg" xmlns:xlink="http://www.w3.org/1999/xlink" width="610.367554" height="243.31517">
	<defs>
		<marker id="CustomMarker-01" markerUnits="strokeWidth" markerWidth="8.25" markerHeight="7.5" viewBox="-8.25 -3.75 8.25 7.5" orient="auto-start-reverse">
			<path d="M -5.5 -2.5 L 0 -0, -5.5 2.5" fill="none" stroke="#0080FF" stroke-linejoin="round" />
		</marker>
		<marker id="CustomMarker-02" markerUnits="strokeWidth" markerWidth="8.25" markerHeight="7.5" viewBox="-8.25 -3.75 8.25 7.5" orient="auto-start-reverse">
			<path d="M -5.5 -2.5 L 0 -0, -5.5 2.5" fill="none" stroke="#0080FF" stroke-linejoin="round" />
		</marker>
	</defs>
	<path d="M 0 125.608 L 0 -125.608" fill="none" stroke="#000000" stroke-width="3.73333335" stroke-linecap="round" stroke-linejoin="round" transform="matrix(0.357143 0 0 0.357143 484.025 159.219)" />
	<path d="M 124.914 -81.1106 L -124.915 81.1103" fill="none" stroke="#000000" stroke-width="3.73333335" stroke-linecap="round" stroke-linejoin="round" transform="matrix(0.357143 0 0 0.357143 528.637 85.3908)" />
	<path d="M -126.029 -81.4803 L 126.031 81.4806" fill="none" stroke="#000000" stroke-width="3.73333335" stroke-linecap="round" stroke-linejoin="round" transform="matrix(0.357143 0 0 0.357143 439.014 85.2586)" />
	<path d="M -105.859 0 L 105.86 0" fill="none" stroke="#0080FF" stroke-width="7.4666667" stroke-linecap="round" stroke-linejoin="round" marker-start="url(#CustomMarker-01)" marker-end="url(#CustomMarker-02)" transform="matrix(0.357143 0 0 0.357143 309.383 124.203)" />
	<g transform="matrix(1 0 -0 1 416.631 88.2356)">
		<svg width="60.1215858" height="54.1276474">
			<defs />
			<path d="M 12.9653 14.9922 C 12.8966 15.2676, 12.793 15.5378, 12.6545 15.8035, 12.5159 16.0691, 12.3465 16.309, 12.1449 16.5226, 11.9434 16.7367, 11.7184 16.9113, 11.47 17.0487, 11.2215 17.1861, 10.953 17.2548, 10.6633 17.2548, 9.75128 17.2548, 9.06541 17.0138, 8.60626 16.5311, 8.29195 16.202, 8.13451 15.7869, 8.13451 15.2854, 8.13451 15.0295, 8.17573 14.7518, 8.2576 14.4518 L 8.68183 12.8121 C 8.73221 12.6049, 8.7574 12.4097, 8.7574 12.2259, 8.7574 12.1348, 8.7511 12.0404, 8.73851 11.9419, 8.70072 11.686, 8.61313 11.4604, 8.47458 11.2646, 8.33603 11.0694, 8.15856 10.9154, 7.94158 10.802, 7.72459 10.6893, 7.46811 10.6326, 7.17212 10.632 L 5.0401 10.632, 3.78515 15.5144 C 3.75996 15.6312, 3.74737 15.7256, 3.74737 15.7983, 3.74737 15.8905, 3.76626 15.9518, 3.80405 15.9815, 3.88592 16.0308, 4.05595 16.06, 4.31358 16.0691, 4.57178 16.0783, 4.84831 16.0829, 5.14372 16.0823, 5.32005 16.0829, 5.40822 16.1562, 5.40822 16.3021, 5.40822 16.3394, 5.40192 16.3789, 5.38933 16.4212 L 5.35154 16.5678 C 5.28284 16.751, 5.15975 16.8426, 4.98342 16.8426, 4.20996 16.806, 3.4302 16.7876, 2.64357 16.7876, 1.85751 16.7876, 1.06802 16.806, 0.27567 16.8426, 0.106207 16.8426, 0.0151782 16.7636, 0.00201051 16.6044 L 0.00201051 16.5311, 0.0397962 16.3754 C 0.090177 16.1745, 0.212694 16.0766, 0.407347 16.0823, 0.703335 16.0829, 0.983292 16.0783, 1.24722 16.0691, 1.51172 16.06, 1.70637 16.0279, 1.83232 15.9724, 1.95198 15.906, 2.04301 15.7411, 2.10598 15.4777 L 4.75728 5.15423 C 4.79506 5.02027, 4.81338 4.91664, 4.81338 4.84279, 4.81338 4.77008, 4.79792 4.72714, 4.76644 4.71455, 4.67827 4.66016, 4.50709 4.62695, 4.25232 4.61436, 3.99756 4.60234, 3.71932 4.59604, 3.41703 4.59547, 3.24127 4.59604, 3.1531 4.5136, 3.1531 4.34814 L 3.1531 4.27486, 3.20978 4.11914 C 3.24757 3.93651, 3.36436 3.84491, 3.55901 3.84433 L 8.87076 3.84433 C 9.46846 3.84491, 10.0375 3.92448, 10.5786 4.08307, 11.1196 4.24223, 11.5913 4.50444, 11.9938 4.87027, 12.327 5.16397, 12.5692 5.52408, 12.7203 5.95117, 12.8148 6.18361, 12.8652 6.42521, 12.8709 6.67482, 12.8709 6.90154, 12.8365 7.12424, 12.7673 7.34351, 12.6482 7.83244, 12.3997 8.27556, 12.0219 8.67231, 11.6446 9.06963, 11.2198 9.40798, 10.748 9.68851, 10.4211 9.87859, 10.0896 10.036, 9.753 10.1608, 9.41636 10.2862, 9.17591 10.3641, 9.03106 10.3938, 9.38945 10.5347, 9.72952 10.8095, 10.0501 11.2183, 10.3209 11.5732, 10.456 11.9974, 10.456 12.4915, 10.456 12.5957, 10.4497 12.6999, 10.4371 12.803 L 10.2574 14.4518 C 10.2076 14.88, 10.1824 15.2522, 10.1824 15.5693, 10.1824 15.7777, 10.195 15.9609, 10.2202 16.1189, 10.2642 16.4796, 10.4526 16.66, 10.7858 16.6594, 11.0881 16.66, 11.3646 16.4968, 11.6165 16.1699, 11.8684 15.8436, 12.0539 15.4388, 12.173 14.9556, 12.2423 14.773, 12.3648 14.6842, 12.5411 14.69 L 12.6917 14.69 C 12.8617 14.6905, 12.9528 14.7701, 12.9653 14.9281 L 12.9653 14.9922 Z M 10.748 7.28855 C 10.8488 6.92272, 10.9055 6.55631, 10.9181 6.18933 L 10.9181 6.13437 C 10.9181 5.8235, 10.8207 5.55499, 10.6255 5.32828, 10.3931 5.06034, 10.0896 4.87084, 9.71521 4.76092, 9.34079 4.651, 8.9303 4.59604, 8.48374 4.59547 L 7.2288 4.59547 C 6.9082 4.59604, 6.7164 4.62066, 6.65343 4.66932, 6.59045 4.71856, 6.52461 4.89203, 6.45534 5.19088 L 5.21013 10.0366, 7.03071 10.0366 C 7.47727 10.0372, 7.9181 9.98221, 8.35207 9.87229, 8.78603 9.76237, 9.19823 9.56714, 9.58754 9.28547, 9.92131 9.04787, 10.1732 8.74902, 10.3427 8.38834, 10.5127 8.02823, 10.6478 7.66183, 10.748 7.28855 Z" stroke="none" fill="#000000" />
			<path d="M 2.37714 3.19713 C 1.7292 3.17661, 1.09857 3.16635, 0.485571 3.16635, -0.127106 3.16635, -0.757737 3.17661, -1.406 3.19713 L -1.406 2.75598, -1.04115 2.75598 C -0.925093 2.7563, -0.815766 2.75469, -0.713814 2.75117, -0.611541 2.74796, -0.514718 2.7393, -0.423025 2.72552, -0.331331 2.71205, -0.252142 2.69827, -0.185456 2.68416, -0.12903 2.67422, -0.082221 2.6428, -0.0453515 2.58958, -0.00816131 2.53668, 0.0101132 2.47769, 0.0101132 2.41229 L 0.0101132 -3.36887 C -0.165899 -3.28295, -0.382628 -3.21787, -0.639754 -3.17362, -0.89688 -3.12906, -1.17869 -3.10694, -1.48519 -3.10726 L -1.48519 -3.54328 C -1.06231 -3.54296, -0.672135 -3.59329, -0.31466 -3.69429, 0.042815 -3.79496, 0.351879 -3.98411, 0.612531 -4.26144 L 0.77636 -4.26144 C 0.89242 -4.26112, 0.950449 -4.20469, 0.950449 -4.09216 L 0.950449 2.41229 C 0.950449 2.4809, 0.968082 2.54085, 1.00335 2.59215, 1.03862 2.64344, 1.08991 2.67422, 1.1566 2.68416, 1.21302 2.69827, 1.28548 2.71205, 1.37333 2.72552, 1.46149 2.7393, 1.56088 2.74796, 1.67181 2.75117, 1.78274 2.75469, 1.89111 2.7563, 1.99658 2.75598 L 2.37714 2.75598, 2.37714 3.19713 Z" stroke="none" fill="#000000" transform="matrix(1.12 0 0 1 15.4263 16.3063)" />
			<rect />
		</svg>
	</g>
	<g transform="matrix(1 0 -0 1 536.474 88.2356)">
		<svg width="60.1215858" height="54.1276474">
			<defs />
			<path d="M 12.9653 14.9922 C 12.8966 15.2676, 12.793 15.5378, 12.6545 15.8035, 12.5159 16.0691, 12.3465 16.309, 12.1449 16.5226, 11.9434 16.7367, 11.7184 16.9113, 11.47 17.0487, 11.2215 17.1861, 10.953 17.2548, 10.6633 17.2548, 9.75128 17.2548, 9.06541 17.0138, 8.60626 16.5311, 8.29195 16.202, 8.13451 15.7869, 8.13451 15.2854, 8.13451 15.0295, 8.17573 14.7518, 8.2576 14.4518 L 8.68183 12.8121 C 8.73221 12.6049, 8.7574 12.4097, 8.7574 12.2259, 8.7574 12.1348, 8.7511 12.0404, 8.73851 11.9419, 8.70072 11.686, 8.61313 11.4604, 8.47458 11.2646, 8.33603 11.0694, 8.15856 10.9154, 7.94158 10.802, 7.72459 10.6893, 7.46811 10.6326, 7.17212 10.632 L 5.0401 10.632, 3.78515 15.5144 C 3.75996 15.6312, 3.74737 15.7256, 3.74737 15.7983, 3.74737 15.8905, 3.76626 15.9518, 3.80405 15.9815, 3.88592 16.0308, 4.05595 16.06, 4.31358 16.0691, 4.57178 16.0783, 4.84831 16.0829, 5.14372 16.0823, 5.32005 16.0829, 5.40822 16.1562, 5.40822 16.3021, 5.40822 16.3394, 5.40192 16.3789, 5.38933 16.4212 L 5.35154 16.5678 C 5.28284 16.751, 5.15975 16.8426, 4.98342 16.8426, 4.20996 16.806, 3.4302 16.7876, 2.64357 16.7876, 1.85751 16.7876, 1.06802 16.806, 0.27567 16.8426, 0.106207 16.8426, 0.0151782 16.7636, 0.00201051 16.6044 L 0.00201051 16.5311, 0.0397962 16.3754 C 0.090177 16.1745, 0.212694 16.0766, 0.407347 16.0823, 0.703335 16.0829, 0.983292 16.0783, 1.24722 16.0691, 1.51172 16.06, 1.70637 16.0279, 1.83232 15.9724, 1.95198 15.906, 2.04301 15.7411, 2.10598 15.4777 L 4.75728 5.15423 C 4.79506 5.02027, 4.81338 4.91664, 4.81338 4.84279, 4.81338 4.77008, 4.79792 4.72714, 4.76644 4.71455, 4.67827 4.66016, 4.50709 4.62695, 4.25232 4.61436, 3.99756 4.60234, 3.71932 4.59604, 3.41703 4.59547, 3.24127 4.59604, 3.1531 4.5136, 3.1531 4.34814 L 3.1531 4.27486, 3.20978 4.11914 C 3.24757 3.93651, 3.36436 3.84491, 3.55901 3.84433 L 8.87076 3.84433 C 9.46846 3.84491, 10.0375 3.92448, 10.5786 4.08307, 11.1196 4.24223, 11.5913 4.50444, 11.9938 4.87027, 12.327 5.16397, 12.5692 5.52408, 12.7203 5.95117, 12.8148 6.18361, 12.8652 6.42521, 12.8709 6.67482, 12.8709 6.90154, 12.8365 7.12424, 12.7673 7.34351, 12.6482 7.83244, 12.3997 8.27556, 12.0219 8.67231, 11.6446 9.06963, 11.2198 9.40798, 10.748 9.68851, 10.4211 9.87859, 10.0896 10.036, 9.753 10.1608, 9.41636 10.2862, 9.17591 10.3641, 9.03106 10.3938, 9.38945 10.5347, 9.72952 10.8095, 10.0501 11.2183, 10.3209 11.5732, 10.456 11.9974, 10.456 12.4915, 10.456 12.5957, 10.4497 12.6999, 10.4371 12.803 L 10.2574 14.4518 C 10.2076 14.88, 10.1824 15.2522, 10.1824 15.5693, 10.1824 15.7777, 10.195 15.9609, 10.2202 16.1189, 10.2642 16.4796, 10.4526 16.66, 10.7858 16.6594, 11.0881 16.66, 11.3646 16.4968, 11.6165 16.1699, 11.8684 15.8436, 12.0539 15.4388, 12.173 14.9556, 12.2423 14.773, 12.3648 14.6842, 12.5411 14.69 L 12.6917 14.69 C 12.8617 14.6905, 12.9528 14.7701, 12.9653 14.9281 L 12.9653 14.9922 Z M 10.748 7.28855 C 10.8488 6.92272, 10.9055 6.55631, 10.9181 6.18933 L 10.9181 6.13437 C 10.9181 5.8235, 10.8207 5.55499, 10.6255 5.32828, 10.3931 5.06034, 10.0896 4.87084, 9.71521 4.76092, 9.34079 4.651, 8.9303 4.59604, 8.48374 4.59547 L 7.2288 4.59547 C 6.9082 4.59604, 6.7164 4.62066, 6.65343 4.66932, 6.59045 4.71856, 6.52461 4.89203, 6.45534 5.19088 L 5.21013 10.0366, 7.03071 10.0366 C 7.47727 10.0372, 7.9181 9.98221, 8.35207 9.87229, 8.78603 9.76237, 9.19823 9.56714, 9.58754 9.28547, 9.92131 9.04787, 10.1732 8.74902, 10.3427 8.38834, 10.5127 8.02823, 10.6478 7.66183, 10.748 7.28855 Z" stroke="none" fill="#000000" />
			<path d="M 2.39138 3.19713 L -1.90858 3.19713, -1.90858 2.915 C -1.90858 2.8948, -1.898 2.86402, -1.87684 2.82266 L -0.149418 0.945196 C 0.0551279 0.71981, 0.261918 0.488975, 0.471594 0.253009, 0.68127 0.0170434, 0.868504 -0.224052, 1.03394 -0.470277, 1.19937 -0.716502, 1.33146 -0.970422, 1.4302 -1.23204, 1.52895 -1.49365, 1.578 -1.76809, 1.578 -2.05567, 1.578 -2.29805, 1.54658 -2.52472, 1.4831 -2.73503, 1.41962 -2.94535, 1.32825 -3.13002, 1.20835 -3.28904, 1.08844 -3.44806, 0.938716 -3.5763, 0.759177 -3.67377, 0.579638 -3.77123, 0.371886 -3.81996, 0.13592 -3.82028, -0.216105 -3.81996, -0.527092 -3.7148, -0.7964 -3.50449, -1.06571 -3.29417, -1.24461 -3.06237, -1.33277 -2.80974, -1.35009 -2.80268, -1.32187 -2.79915, -1.24813 -2.79948 L -1.15836 -2.79948 C -1.05256 -2.77511, -0.961191 -2.73824, -0.883605 -2.68887, -0.806018 -2.63917, -0.740935 -2.57088, -0.688036 -2.48368, -0.635136 -2.39647, -0.608846 -2.29132, -0.608846 -2.16852, -0.608846 -1.96302, -0.675532 -1.8056, -0.809545 -1.69627, -0.943558 -1.58663, -1.09328 -1.53212, -1.25871 -1.53244, -1.41709 -1.53212, -1.56489 -1.58663, -1.70243 -1.69627, -1.83965 -1.8056, -1.90858 -1.96302, -1.90858 -2.16852, -1.90858 -2.45547, -1.85215 -2.72734, -1.7393 -2.98382, -1.62645 -3.24031, -1.47352 -3.46249, -1.27987 -3.65068, -1.08623 -3.83856, -0.857315 -3.98732, -0.593136 -4.09697, -0.328958 -4.20629, -0.0487483 -4.26112, 0.24685 -4.26144, 0.612981 -4.26112, 0.948655 -4.20725, 1.25323 -4.09953, 1.55781 -3.99181, 1.8175 -3.83695, 2.0323 -3.63529, 2.24711 -3.43331, 2.41543 -3.19991, 2.53693 -2.93509, 2.65844 -2.66995, 2.71904 -2.37692, 2.71904 -2.05567, 2.71904 -1.6998, 2.63825 -1.37214, 2.47602 -1.07302, 2.31411 -0.77357, 2.11342 -0.499131, 1.87392 -0.2497, 1.63443 5.126e-005, 1.37987 0.235055, 1.11056 0.455632, 0.841252 0.676208, 0.597272 0.890693, 0.378939 1.09909 L -0.836155 2.24301, 0.754048 2.24301 C 0.975907 2.24333, 1.18302 2.24172, 1.37474 2.2382, 1.56678 2.23499, 1.72965 2.22794, 1.86334 2.21768, 1.99736 2.20742, 2.06597 2.20069, 2.06917 2.19684, 2.09738 2.17312, 2.12399 2.12534, 2.14868 2.05353, 2.17337 1.98171, 2.19613 1.89707, 2.21729 1.79961, 2.23845 1.70215, 2.25961 1.60308, 2.28077 1.50209, 2.30193 1.40142, 2.32117 1.29081, 2.3388 1.1709 L 2.72962 1.1709 Z" stroke="none" fill="#000000" transform="matrix(1.12 0 0 1 15.8492 16.3063)" />
			<rect />
		</svg>
	</g>
	<g transform="matrix(1 0 -0 1 453.272 147.953)">
		<svg width="62.9920158" height="54.1276474">
			<defs />
			<path d="M 12.9653 14.9922 C 12.8966 15.2676, 12.793 15.5378, 12.6545 15.8035, 12.5159 16.0691, 12.3465 16.309, 12.1449 16.5226, 11.9434 16.7367, 11.7184 16.9113, 11.47 17.0487, 11.2215 17.1861, 10.953 17.2548, 10.6633 17.2548, 9.75128 17.2548, 9.06541 17.0138, 8.60626 16.5311, 8.29195 16.202, 8.13451 15.7869, 8.13451 15.2854, 8.13451 15.0295, 8.17573 14.7518, 8.2576 14.4518 L 8.68183 12.8121 C 8.73221 12.6049, 8.7574 12.4097, 8.7574 12.2259, 8.7574 12.1348, 8.7511 12.0404, 8.73851 11.9419, 8.70072 11.686, 8.61313 11.4604, 8.47458 11.2646, 8.33603 11.0694, 8.15856 10.9154, 7.94158 10.802, 7.72459 10.6893, 7.46811 10.6326, 7.17212 10.632 L 5.0401 10.632, 3.78515 15.5144 C 3.75996 15.6312, 3.74737 15.7256, 3.74737 15.7983, 3.74737 15.8905, 3.76626 15.9518, 3.80405 15.9815, 3.88592 16.0308, 4.05595 16.06, 4.31358 16.0691, 4.57178 16.0783, 4.84831 16.0829, 5.14372 16.0823, 5.32005 16.0829, 5.40822 16.1562, 5.40822 16.3021, 5.40822 16.3394, 5.40192 16.3789, 5.38933 16.4212 L 5.35154 16.5678 C 5.28284 16.751, 5.15975 16.8426, 4.98342 16.8426, 4.20996 16.806, 3.4302 16.7876, 2.64357 16.7876, 1.85751 16.7876, 1.06802 16.806, 0.27567 16.8426, 0.106207 16.8426, 0.0151782 16.7636, 0.00201051 16.6044 L 0.00201051 16.5311, 0.0397962 16.3754 C 0.090177 16.1745, 0.212694 16.0766, 0.407347 16.0823, 0.703335 16.0829, 0.983292 16.0783, 1.24722 16.0691, 1.51172 16.06, 1.70637 16.0279, 1.83232 15.9724, 1.95198 15.906, 2.04301 15.7411, 2.10598 15.4777 L 4.75728 5.15423 C 4.79506 5.02027, 4.81338 4.91664, 4.81338 4.84279, 4.81338 4.77008, 4.79792 4.72714, 4.76644 4.71455, 4.67827 4.66016, 4.50709 4.62695, 4.25232 4.61436, 3.99756 4.60234, 3.71932 4.59604, 3.41703 4.59547, 3.24127 4.59604, 3.1531 4.5136, 3.1531 4.34814 L 3.1531 4.27486, 3.20978 4.11914 C 3.24757 3.93651, 3.36436 3.84491, 3.55901 3.84433 L 8.87076 3.84433 C 9.46846 3.84491, 10.0375 3.92448, 10.5786 4.08307, 11.1196 4.24223, 11.5913 4.50444, 11.9938 4.87027, 12.327 5.16397, 12.5692 5.52408, 12.7203 5.95117, 12.8148 6.18361, 12.8652 6.42521, 12.8709 6.67482, 12.8709 6.90154, 12.8365 7.12424, 12.7673 7.34351, 12.6482 7.83244, 12.3997 8.27556, 12.0219 8.67231, 11.6446 9.06963, 11.2198 9.40798, 10.748 9.68851, 10.4211 9.87859, 10.0896 10.036, 9.753 10.1608, 9.41636 10.2862, 9.17591 10.3641, 9.03106 10.3938, 9.38945 10.5347, 9.72952 10.8095, 10.0501 11.2183, 10.3209 11.5732, 10.456 11.9974, 10.456 12.4915, 10.456 12.5957, 10.4497 12.6999, 10.4371 12.803 L 10.2574 14.4518 C 10.2076 14.88, 10.1824 15.2522, 10.1824 15.5693, 10.1824 15.7777, 10.195 15.9609, 10.2202 16.1189, 10.2642 16.4796, 10.4526 16.66, 10.7858 16.6594, 11.0881 16.66, 11.3646 16.4968, 11.6165 16.1699, 11.8684 15.8436, 12.0539 15.4388, 12.173 14.9556, 12.2423 14.773, 12.3648 14.6842, 12.5411 14.69 L 12.6917 14.69 C 12.8617 14.6905, 12.9528 14.7701, 12.9653 14.9281 L 12.9653 14.9922 Z M 10.748 7.28855 C 10.8488 6.92272, 10.9055 6.55631, 10.9181 6.18933 L 10.9181 6.13437 C 10.9181 5.8235, 10.8207 5.55499, 10.6255 5.32828, 10.3931 5.06034, 10.0896 4.87084, 9.71521 4.76092, 9.34079 4.651, 8.9303 4.59604, 8.48374 4.59547 L 7.2288 4.59547 C 6.9082 4.59604, 6.7164 4.62066, 6.65343 4.66932, 6.59045 4.71856, 6.52461 4.89203, 6.45534 5.19088 L 5.21013 10.0366, 7.03071 10.0366 C 7.47727 10.0372, 7.9181 9.98221, 8.35207 9.87229, 8.78603 9.76237, 9.19823 9.56714, 9.58754 9.28547, 9.92131 9.04787, 10.1732 8.74902, 10.3427 8.38834, 10.5127 8.02823, 10.6478 7.66183, 10.748 7.28855 Z" stroke="none" fill="#000000" />
			<path d="M 2.81931 1.26324 C 2.81931 1.55755, 2.75423 1.84001, 2.62406 2.10996, 2.4939 2.38023, 2.31949 2.61106, 2.10083 2.80214, 1.85461 3.01791, 1.58242 3.17757, 1.28489 3.28177, 0.987372 3.38629, 0.676384 3.43822, 0.352252 3.43822, 0.0601807 3.43822, -0.224838 3.39719, -0.503123 3.31511, -0.781409 3.23304, -1.03212 3.11537, -1.2559 2.96148, -1.47969 2.80759, -1.65826 2.61876, -1.79228 2.39465, -1.92597 2.17087, -1.99298 1.91342, -1.99298 1.62232, -1.99298 1.40366, -1.91988 1.24047, -1.77368 1.13275, -1.62749 1.02503, -1.4736 0.971165, -1.31169 0.970845, -1.14241 0.971165, -0.984993 1.02503, -0.838797 1.13275, -0.692601 1.24047, -0.619503 1.40366, -0.619503 1.62232, -0.619503 1.75248, -0.644831 1.86117, -0.696128 1.94837, -0.747104 2.03558, -0.812187 2.10835, -0.891697 2.16638, -0.970886 2.22473, -1.06162 2.26032, -1.16357 2.27379, -1.21615 2.28789, -1.26552 2.29462, -1.31169 2.2943, -1.35722 2.29462, -1.36427 2.29815, -1.33285 2.30456, -1.22352 2.49629, -1.00872 2.66589, -0.688112 2.81272, -0.367507 2.95988, -0.0209324 3.0333, 0.352252 3.03298, 0.528585 3.0333, 0.693056 2.9897, 0.846305 2.90249, 0.999555 2.81529, 1.12748 2.69827, 1.22943 2.55079, 1.35639 2.35971, 1.44263 2.15452, 1.48816 1.93555, 1.534 1.71689, 1.55677 1.49279, 1.55677 1.26324, 1.55677 1.02759, 1.534 0.801244, 1.48816 0.583874, 1.44263 0.366824, 1.35639 0.165804, 1.22943 -0.0191851, 1.12363 -0.169228, 0.995066 -0.290738, 0.84374 -0.383072, 0.692415 -0.475407, 0.528585 -0.521574, 0.352252 -0.521894 L -0.413674 -0.521894 C -0.515627 -0.521574, -0.57013 -0.569344, -0.577183 -0.665526 L -0.577183 -0.721952 C -0.577183 -0.762669, -0.564679 -0.79505, -0.540313 -0.819416, -0.508573 -0.849874, -0.468177 -0.865263, -0.418804 -0.865584, -0.316531 -0.879049, -0.211051 -0.885782, -0.102046 -0.886102, 0.00375414 -0.885782, 0.107951 -0.892514, 0.209903 -0.906621, 0.400023 -0.920087, 0.565455 -0.978757, 0.706201 -1.08327, 0.847267 -1.18747, 0.96525 -1.32084, 1.06015 -1.48339, 1.15537 -1.64562, 1.22751 -1.83285, 1.27688 -2.04509, 1.32625 -2.25701, 1.35094 -2.47438, 1.35094 -2.69688, 1.35094 -2.86071, 1.33331 -3.01621, 1.29804 -3.16336, 1.26277 -3.3102, 1.19769 -3.43876, 1.10247 -3.54841, 0.905297 -3.7738, 0.655225 -3.88505, 0.352252 -3.88184, 0.0284407 -3.88152, -0.268119 -3.8206, -0.537428 -3.69942, -0.806736 -3.57791, -0.987558 -3.4471, -1.07925 -3.30731, -1.10362 -3.30347, -1.09143 -3.30186, -1.04206 -3.30219, -0.915101 -3.30186, -0.795515 -3.26435, -0.682983 -3.18933, -0.513703 -3.08994, -0.429384 -2.92227, -0.429384 -2.68662, -0.429384 -2.48785, -0.493505 -2.33812, -0.622068 -2.23745, -0.75063 -2.13646, -0.894262 -2.08613, -1.05264 -2.08645, -1.20749 -2.08613, -1.35273 -2.1355, -1.48834 -2.23489, -1.62396 -2.33396, -1.69193 -2.48464, -1.69193 -2.68662, -1.69193 -2.93605, -1.63197 -3.15631, -1.51239 -3.34803, -1.39248 -3.53943, -1.23859 -3.70358, -1.05008 -3.84048, -0.86156 -3.97706, -0.644189 -4.08158, -0.397644 -4.15339, -0.151098 -4.22521, 0.098974 -4.26112, 0.352252 -4.26144, 0.623485 -4.26112, 0.88606 -4.22521, 1.13966 -4.15339, 1.39326 -4.08158, 1.63275 -3.97033, 1.85782 -3.82028, 2.0412 -3.69012, 2.19509 -3.53014, 2.32013 -3.34034, 2.44516 -3.15054, 2.50768 -2.93605, 2.50768 -2.69688, 2.50768 -2.45707, 2.46472 -2.23136, 2.37848 -2.01944, 2.29224 -1.8072, 2.17778 -1.6158, 2.03511 -1.44492, 1.89244 -1.27371, 1.72252 -1.12335, 1.52535 -0.993505, 1.32818 -0.863339, 1.18006 -0.781585, 1.08131 -0.747601, 1.16595 -0.737021, 1.31054 -0.686365, 1.51477 -0.595954, 1.71899 -0.505223, 1.91424 -0.384675, 2.10083 -0.234632, 2.31949 -0.0461159, 2.4939 0.178629, 2.62406 0.440243, 2.75423 0.701857, 2.81931 0.976295, 2.81931 1.26324 Z" stroke="none" fill="#000000" transform="matrix(1.12 0 0 1 15.9335 16.3063)" />
			<rect />
		</svg>
	</g>
	<g transform="matrix(1 0 -0 1 63.4626 117.427)">
		<svg width="77.9182587" height="54.1276474">
			<defs />
			<path d="M 12.9653 14.9922 C 12.8966 15.2676, 12.793 15.5378, 12.6545 15.8035, 12.5159 16.0691, 12.3465 16.309, 12.1449 16.5226, 11.9434 16.7367, 11.7184 16.9113, 11.47 17.0487, 11.2215 17.1861, 10.953 17.2548, 10.6633 17.2548, 9.75128 17.2548, 9.06541 17.0138, 8.60626 16.5311, 8.29195 16.202, 8.13451 15.7869, 8.13451 15.2854, 8.13451 15.0295, 8.17573 14.7518, 8.2576 14.4518 L 8.68183 12.8121 C 8.73221 12.6049, 8.7574 12.4097, 8.7574 12.2259, 8.7574 12.1348, 8.7511 12.0404, 8.73851 11.9419, 8.70072 11.686, 8.61313 11.4604, 8.47458 11.2646, 8.33603 11.0694, 8.15856 10.9154, 7.94158 10.802, 7.72459 10.6893, 7.46811 10.6326, 7.17212 10.632 L 5.0401 10.632, 3.78515 15.5144 C 3.75996 15.6312, 3.74737 15.7256, 3.74737 15.7983, 3.74737 15.8905, 3.76626 15.9518, 3.80405 15.9815, 3.88592 16.0308, 4.05595 16.06, 4.31358 16.0691, 4.57178 16.0783, 4.84831 16.0829, 5.14372 16.0823, 5.32005 16.0829, 5.40822 16.1562, 5.40822 16.3021, 5.40822 16.3394, 5.40192 16.3789, 5.38933 16.4212 L 5.35154 16.5678 C 5.28284 16.751, 5.15975 16.8426, 4.98342 16.8426, 4.20996 16.806, 3.4302 16.7876, 2.64357 16.7876, 1.85751 16.7876, 1.06802 16.806, 0.27567 16.8426, 0.106207 16.8426, 0.0151782 16.7636, 0.00201051 16.6044 L 0.00201051 16.5311, 0.0397962 16.3754 C 0.090177 16.1745, 0.212694 16.0766, 0.407347 16.0823, 0.703335 16.0829, 0.983292 16.0783, 1.24722 16.0691, 1.51172 16.06, 1.70637 16.0279, 1.83232 15.9724, 1.95198 15.906, 2.04301 15.7411, 2.10598 15.4777 L 4.75728 5.15423 C 4.79506 5.02027, 4.81338 4.91664, 4.81338 4.84279, 4.81338 4.77008, 4.79792 4.72714, 4.76644 4.71455, 4.67827 4.66016, 4.50709 4.62695, 4.25232 4.61436, 3.99756 4.60234, 3.71932 4.59604, 3.41703 4.59547, 3.24127 4.59604, 3.1531 4.5136, 3.1531 4.34814 L 3.1531 4.27486, 3.20978 4.11914 C 3.24757 3.93651, 3.36436 3.84491, 3.55901 3.84433 L 8.87076 3.84433 C 9.46846 3.84491, 10.0375 3.92448, 10.5786 4.08307, 11.1196 4.24223, 11.5913 4.50444, 11.9938 4.87027, 12.327 5.16397, 12.5692 5.52408, 12.7203 5.95117, 12.8148 6.18361, 12.8652 6.42521, 12.8709 6.67482, 12.8709 6.90154, 12.8365 7.12424, 12.7673 7.34351, 12.6482 7.83244, 12.3997 8.27556, 12.0219 8.67231, 11.6446 9.06963, 11.2198 9.40798, 10.748 9.68851, 10.4211 9.87859, 10.0896 10.036, 9.753 10.1608, 9.41636 10.2862, 9.17591 10.3641, 9.03106 10.3938, 9.38945 10.5347, 9.72952 10.8095, 10.0501 11.2183, 10.3209 11.5732, 10.456 11.9974, 10.456 12.4915, 10.456 12.5957, 10.4497 12.6999, 10.4371 12.803 L 10.2574 14.4518 C 10.2076 14.88, 10.1824 15.2522, 10.1824 15.5693, 10.1824 15.7777, 10.195 15.9609, 10.2202 16.1189, 10.2642 16.4796, 10.4526 16.66, 10.7858 16.6594, 11.0881 16.66, 11.3646 16.4968, 11.6165 16.1699, 11.8684 15.8436, 12.0539 15.4388, 12.173 14.9556, 12.2423 14.773, 12.3648 14.6842, 12.5411 14.69 L 12.6917 14.69 C 12.8617 14.6905, 12.9528 14.7701, 12.9653 14.9281 L 12.9653 14.9922 Z M 10.748 7.28855 C 10.8488 6.92272, 10.9055 6.55631, 10.9181 6.18933 L 10.9181 6.13437 C 10.9181 5.8235, 10.8207 5.55499, 10.6255 5.32828, 10.3931 5.06034, 10.0896 4.87084, 9.71521 4.76092, 9.34079 4.651, 8.9303 4.59604, 8.48374 4.59547 L 7.2288 4.59547 C 6.9082 4.59604, 6.7164 4.62066, 6.65343 4.66932, 6.59045 4.71856, 6.52461 4.89203, 6.45534 5.19088 L 5.21013 10.0366, 7.03071 10.0366 C 7.47727 10.0372, 7.9181 9.98221, 8.35207 9.87229, 8.78603 9.76237, 9.19823 9.56714, 9.58754 9.28547, 9.92131 9.04787, 10.1732 8.74902, 10.3427 8.38834, 10.5127 8.02823, 10.6478 7.66183, 10.748 7.28855 Z" stroke="none" fill="#000000" />
			<path d="M 2.81801 1.26324 C 2.81801 1.55755, 2.75293 1.84001, 2.62277 2.10996, 2.4926 2.38023, 2.31819 2.61106, 2.09954 2.80214, 1.85331 3.01791, 1.58112 3.17757, 1.2836 3.28177, 0.986074 3.38629, 0.675087 3.43822, 0.350955 3.43822, 0.0588834 3.43822, -0.226135 3.39719, -0.50442 3.31511, -0.782706 3.23304, -1.03342 3.11537, -1.2572 2.96148, -1.48098 2.80759, -1.65956 2.61876, -1.79357 2.39465, -1.92727 2.17087, -1.99427 1.91342, -1.99427 1.62232, -1.99427 1.40366, -1.92118 1.24047, -1.77498 1.13275, -1.62878 1.02503, -1.47489 0.971165, -1.31299 0.970845, -1.14371 0.971165, -0.98629 1.02503, -0.840094 1.13275, -0.693898 1.24047, -0.6208 1.40366, -0.6208 1.62232, -0.6208 1.75248, -0.646128 1.86117, -0.697425 1.94837, -0.748401 2.03558, -0.813484 2.10835, -0.892994 2.16638, -0.972184 2.22473, -1.06291 2.26032, -1.16487 2.27379, -1.21745 2.28789, -1.26682 2.29462, -1.31299 2.2943, -1.35851 2.29462, -1.36557 2.29815, -1.33415 2.30456, -1.22482 2.49629, -1.01002 2.66589, -0.68941 2.81272, -0.368804 2.95988, -0.0222297 3.0333, 0.350955 3.03298, 0.527288 3.0333, 0.691759 2.9897, 0.845008 2.90249, 0.998258 2.81529, 1.12618 2.69827, 1.22813 2.55079, 1.35509 2.35971, 1.44133 2.15452, 1.48686 1.93555, 1.53271 1.71689, 1.55547 1.49279, 1.55547 1.26324, 1.55547 1.02759, 1.53271 0.801244, 1.48686 0.583874, 1.44133 0.366824, 1.35509 0.165804, 1.22813 -0.0191851, 1.12233 -0.169228, 0.993769 -0.290738, 0.842443 -0.383072, 0.691118 -0.475407, 0.527288 -0.521574, 0.350955 -0.521894 L -0.414971 -0.521894 C -0.516924 -0.521574, -0.571427 -0.569344, -0.57848 -0.665526 L -0.57848 -0.721952 C -0.57848 -0.762669, -0.565977 -0.79505, -0.54161 -0.819416, -0.509871 -0.849874, -0.469474 -0.865263, -0.420101 -0.865584, -0.317828 -0.879049, -0.212349 -0.885782, -0.103343 -0.886102, 0.0024569 -0.885782, 0.106654 -0.892514, 0.208606 -0.906621, 0.398725 -0.920087, 0.564158 -0.978757, 0.704904 -1.08327, 0.84597 -1.18747, 0.963953 -1.32084, 1.05885 -1.48339, 1.15407 -1.64562, 1.22621 -1.83285, 1.27558 -2.04509, 1.32495 -2.25701, 1.34964 -2.47438, 1.34964 -2.69688, 1.34964 -2.86071, 1.33201 -3.01621, 1.29674 -3.16336, 1.26147 -3.3102, 1.19639 -3.43876, 1.10117 -3.54841, 0.904 -3.7738, 0.653927 -3.88505, 0.350955 -3.88184, 0.0271435 -3.88152, -0.269417 -3.8206, -0.538725 -3.69942, -0.808034 -3.57791, -0.988855 -3.4471, -1.08055 -3.30731, -1.10491 -3.30347, -1.09273 -3.30186, -1.04336 -3.30219, -0.916398 -3.30186, -0.796812 -3.26435, -0.68428 -3.18933, -0.515 -3.08994, -0.430681 -2.92227, -0.430681 -2.68662, -0.430681 -2.48785, -0.494802 -2.33812, -0.623365 -2.23745, -0.751928 -2.13646, -0.895559 -2.08613, -1.05394 -2.08645, -1.20879 -2.08613, -1.35402 -2.1355, -1.48964 -2.23489, -1.62526 -2.33396, -1.69323 -2.48464, -1.69323 -2.68662, -1.69323 -2.93605, -1.63327 -3.15631, -1.51369 -3.34803, -1.39378 -3.53943, -1.23989 -3.70358, -1.05137 -3.84048, -0.862857 -3.97706, -0.645487 -4.08158, -0.398941 -4.15339, -0.152395 -4.22521, 0.0976768 -4.26112, 0.350955 -4.26144, 0.622187 -4.26112, 0.884763 -4.22521, 1.13836 -4.15339, 1.39196 -4.08158, 1.63145 -3.97033, 1.85652 -3.82028, 2.0399 -3.69012, 2.1938 -3.53014, 2.31883 -3.34034, 2.44387 -3.15054, 2.50639 -2.93605, 2.50639 -2.69688, 2.50639 -2.45707, 2.46342 -2.23136, 2.37718 -2.01944, 2.29094 -1.8072, 2.17648 -1.6158, 2.03381 -1.44492, 1.89114 -1.27371, 1.72122 -1.12335, 1.52405 -0.993505, 1.32688 -0.863339, 1.17876 -0.781585, 1.08001 -0.747601, 1.16465 -0.737021, 1.30924 -0.686365, 1.51347 -0.595954, 1.7177 -0.505223, 1.91294 -0.384675, 2.09954 -0.234632, 2.31819 -0.0461159, 2.4926 0.178629, 2.62277 0.440243, 2.75293 0.701857, 2.81801 0.976295, 2.81801 1.26324 Z" stroke="none" fill="#000000" transform="matrix(1.12 0 0 1 15.9335 16.3063)" />
			<path d="M 2.37559 3.19713 C 1.72765 3.17661, 1.09734 3.16635, 0.484342 3.16635, -0.128335 3.16635, -0.758645 3.17661, -1.40659 3.19713 L -1.40659 2.75598, -1.04206 2.75598 C -0.926001 2.7563, -0.816675 2.75469, -0.714722 2.75117, -0.612449 2.74796, -0.515626 2.7393, -0.423933 2.72552, -0.33224 2.71205, -0.25305 2.69827, -0.186364 2.68416, -0.129938 2.67422, -0.0834501 2.6428, -0.0465803 2.58958, -0.00939012 2.53668, 0.00888443 2.47769, 0.00888443 2.41229 L 0.00888443 -3.36887 C -0.166807 -3.28295, -0.383537 -3.21787, -0.640662 -3.17362, -0.897788 -3.12906, -1.17928 -3.10694, -1.48578 -3.10726 L -1.48578 -3.54328 C -1.06322 -3.54296, -0.673043 -3.59329, -0.315568 -3.69429, 0.0419066 -3.79496, 0.35097 -3.98411, 0.611302 -4.26144 L 0.775131 -4.26144 C 0.891191 -4.26112, 0.94922 -4.20469, 0.94922 -4.09216 L 0.94922 2.41229 C 0.94922 2.4809, 0.966853 2.54085, 1.00212 2.59215, 1.03739 2.64344, 1.08868 2.67422, 1.15537 2.68416, 1.2118 2.69827, 1.28425 2.71205, 1.3721 2.72552, 1.45994 2.7393, 1.55933 2.74796, 1.67026 2.75117, 1.78119 2.75469, 1.88956 2.7563, 1.99536 2.75598 L 2.37559 2.75598, 2.37559 3.19713 Z" stroke="none" fill="#000000" transform="matrix(1.12 0 0 1 22.1366 16.3063)" />
			<rect />
		</svg>
	</g>
	<g transform="matrix(1 0 -0 1 116.236 44.5394)">
		<svg width="77.9182587" height="54.1276474">
			<defs />
			<path d="M 12.9653 14.9922 C 12.8966 15.2676, 12.793 15.5378, 12.6545 15.8035, 12.5159 16.0691, 12.3465 16.309, 12.1449 16.5226, 11.9434 16.7367, 11.7184 16.9113, 11.47 17.0487, 11.2215 17.1861, 10.953 17.2548, 10.6633 17.2548, 9.75128 17.2548, 9.06541 17.0138, 8.60626 16.5311, 8.29195 16.202, 8.13451 15.7869, 8.13451 15.2854, 8.13451 15.0295, 8.17573 14.7518, 8.2576 14.4518 L 8.68183 12.8121 C 8.73221 12.6049, 8.7574 12.4097, 8.7574 12.2259, 8.7574 12.1348, 8.7511 12.0404, 8.73851 11.9419, 8.70072 11.686, 8.61313 11.4604, 8.47458 11.2646, 8.33603 11.0694, 8.15856 10.9154, 7.94158 10.802, 7.72459 10.6893, 7.46811 10.6326, 7.17212 10.632 L 5.0401 10.632, 3.78515 15.5144 C 3.75996 15.6312, 3.74737 15.7256, 3.74737 15.7983, 3.74737 15.8905, 3.76626 15.9518, 3.80405 15.9815, 3.88592 16.0308, 4.05595 16.06, 4.31358 16.0691, 4.57178 16.0783, 4.84831 16.0829, 5.14372 16.0823, 5.32005 16.0829, 5.40822 16.1562, 5.40822 16.3021, 5.40822 16.3394, 5.40192 16.3789, 5.38933 16.4212 L 5.35154 16.5678 C 5.28284 16.751, 5.15975 16.8426, 4.98342 16.8426, 4.20996 16.806, 3.4302 16.7876, 2.64357 16.7876, 1.85751 16.7876, 1.06802 16.806, 0.27567 16.8426, 0.106207 16.8426, 0.0151782 16.7636, 0.00201051 16.6044 L 0.00201051 16.5311, 0.0397962 16.3754 C 0.090177 16.1745, 0.212694 16.0766, 0.407347 16.0823, 0.703335 16.0829, 0.983292 16.0783, 1.24722 16.0691, 1.51172 16.06, 1.70637 16.0279, 1.83232 15.9724, 1.95198 15.906, 2.04301 15.7411, 2.10598 15.4777 L 4.75728 5.15423 C 4.79506 5.02027, 4.81338 4.91664, 4.81338 4.84279, 4.81338 4.77008, 4.79792 4.72714, 4.76644 4.71455, 4.67827 4.66016, 4.50709 4.62695, 4.25232 4.61436, 3.99756 4.60234, 3.71932 4.59604, 3.41703 4.59547, 3.24127 4.59604, 3.1531 4.5136, 3.1531 4.34814 L 3.1531 4.27486, 3.20978 4.11914 C 3.24757 3.93651, 3.36436 3.84491, 3.55901 3.84433 L 8.87076 3.84433 C 9.46846 3.84491, 10.0375 3.92448, 10.5786 4.08307, 11.1196 4.24223, 11.5913 4.50444, 11.9938 4.87027, 12.327 5.16397, 12.5692 5.52408, 12.7203 5.95117, 12.8148 6.18361, 12.8652 6.42521, 12.8709 6.67482, 12.8709 6.90154, 12.8365 7.12424, 12.7673 7.34351, 12.6482 7.83244, 12.3997 8.27556, 12.0219 8.67231, 11.6446 9.06963, 11.2198 9.40798, 10.748 9.68851, 10.4211 9.87859, 10.0896 10.036, 9.753 10.1608, 9.41636 10.2862, 9.17591 10.3641, 9.03106 10.3938, 9.38945 10.5347, 9.72952 10.8095, 10.0501 11.2183, 10.3209 11.5732, 10.456 11.9974, 10.456 12.4915, 10.456 12.5957, 10.4497 12.6999, 10.4371 12.803 L 10.2574 14.4518 C 10.2076 14.88, 10.1824 15.2522, 10.1824 15.5693, 10.1824 15.7777, 10.195 15.9609, 10.2202 16.1189, 10.2642 16.4796, 10.4526 16.66, 10.7858 16.6594, 11.0881 16.66, 11.3646 16.4968, 11.6165 16.1699, 11.8684 15.8436, 12.0539 15.4388, 12.173 14.9556, 12.2423 14.773, 12.3648 14.6842, 12.5411 14.69 L 12.6917 14.69 C 12.8617 14.6905, 12.9528 14.7701, 12.9653 14.9281 L 12.9653 14.9922 Z M 10.748 7.28855 C 10.8488 6.92272, 10.9055 6.55631, 10.9181 6.18933 L 10.9181 6.13437 C 10.9181 5.8235, 10.8207 5.55499, 10.6255 5.32828, 10.3931 5.06034, 10.0896 4.87084, 9.71521 4.76092, 9.34079 4.651, 8.9303 4.59604, 8.48374 4.59547 L 7.2288 4.59547 C 6.9082 4.59604, 6.7164 4.62066, 6.65343 4.66932, 6.59045 4.71856, 6.52461 4.89203, 6.45534 5.19088 L 5.21013 10.0366, 7.03071 10.0366 C 7.47727 10.0372, 7.9181 9.98221, 8.35207 9.87229, 8.78603 9.76237, 9.19823 9.56714, 9.58754 9.28547, 9.92131 9.04787, 10.1732 8.74902, 10.3427 8.38834, 10.5127 8.02823, 10.6478 7.66183, 10.748 7.28855 Z" stroke="none" fill="#000000" />
			<path d="M 2.37686 3.19713 C 1.72892 3.17661, 1.09829 3.16635, 0.485289 3.16635, -0.127388 3.16635, -0.758019 3.17661, -1.40628 3.19713 L -1.40628 2.75598, -1.04143 2.75598 C -0.925375 2.7563, -0.816049 2.75469, -0.714096 2.75117, -0.611823 2.74796, -0.515 2.7393, -0.423307 2.72552, -0.331614 2.71205, -0.252424 2.69827, -0.185739 2.68416, -0.129312 2.67422, -0.0825036 2.6428, -0.045634 2.58958, -0.00844383 2.53668, 0.00983071 2.47769, 0.00983071 2.41229 L 0.00983071 -3.36887 C -0.166182 -3.28295, -0.382911 -3.21787, -0.640036 -3.17362, -0.897162 -3.12906, -1.17897 -3.10694, -1.48547 -3.10726 L -1.48547 -3.54328 C -1.06259 -3.54296, -0.672418 -3.59329, -0.314943 -3.69429, 0.0425324 -3.79496, 0.351596 -3.98411, 0.612248 -4.26144 L 0.776078 -4.26144 C 0.892137 -4.26112, 0.950166 -4.20469, 0.950166 -4.09216 L 0.950166 2.41229 C 0.950166 2.4809, 0.9678 2.54085, 1.00307 2.59215, 1.03833 2.64344, 1.08963 2.67422, 1.15632 2.68416, 1.21274 2.69827, 1.2852 2.71205, 1.37305 2.72552, 1.46121 2.7393, 1.5606 2.74796, 1.67153 2.75117, 1.78246 2.75469, 1.89082 2.7563, 1.9963 2.75598 L 2.37686 2.75598, 2.37686 3.19713 Z" stroke="none" fill="#000000" transform="matrix(1.12 0 0 1 15.4263 16.3063)" />
			<path d="M 2.3913 3.19713 L -1.90866 3.19713, -1.90866 2.915 C -1.90866 2.8948, -1.89808 2.86402, -1.87692 2.82266 L -0.149495 0.945196 C 0.0550516 0.71981, 0.261842 0.488975, 0.471518 0.253009, 0.681194 0.0170434, 0.868428 -0.224052, 1.03386 -0.470277, 1.19929 -0.716502, 1.33138 -0.970422, 1.43013 -1.23204, 1.52887 -1.49365, 1.57793 -1.76809, 1.57793 -2.05567, 1.57793 -2.29805, 1.54651 -2.52472, 1.48303 -2.73503, 1.41955 -2.94535, 1.32818 -3.13002, 1.20827 -3.28904, 1.08836 -3.44806, 0.93864 -3.5763, 0.759101 -3.67377, 0.579562 -3.77123, 0.37181 -3.81996, 0.135844 -3.82028, -0.216181 -3.81996, -0.527168 -3.7148, -0.796476 -3.50449, -1.06579 -3.29417, -1.24468 -3.06237, -1.33285 -2.80974, -1.35016 -2.80268, -1.32195 -2.79915, -1.24821 -2.79948 L -1.15844 -2.79948 C -1.05264 -2.77511, -0.961268 -2.73824, -0.883681 -2.68887, -0.806095 -2.63917, -0.741012 -2.57088, -0.688112 -2.48368, -0.635212 -2.39647, -0.608922 -2.29132, -0.608922 -2.16852, -0.608922 -1.96302, -0.675608 -1.8056, -0.809621 -1.69627, -0.943634 -1.58663, -1.09336 -1.53212, -1.25879 -1.53244, -1.41717 -1.53212, -1.56497 -1.58663, -1.70251 -1.69627, -1.83973 -1.8056, -1.90866 -1.96302, -1.90866 -2.16852, -1.90866 -2.45547, -1.85223 -2.72734, -1.73938 -2.98382, -1.62652 -3.24031, -1.4736 -3.46249, -1.27995 -3.65068, -1.0863 -3.83856, -0.857392 -3.98732, -0.593213 -4.09697, -0.329034 -4.20629, -0.0488245 -4.26112, 0.246773 -4.26144, 0.612905 -4.26112, 0.948579 -4.20725, 1.25315 -4.09953, 1.55773 -3.99181, 1.81742 -3.83695, 2.03223 -3.63529, 2.24703 -3.43331, 2.41535 -3.19991, 2.53686 -2.93509, 2.65837 -2.66995, 2.71896 -2.37692, 2.71896 -2.05567, 2.71896 -1.6998, 2.63817 -1.37214, 2.47594 -1.07302, 2.31404 -0.77357, 2.11334 -0.499131, 1.87385 -0.2497, 1.63435 5.126e-005, 1.37979 0.235055, 1.11048 0.455632, 0.841176 0.676208, 0.597195 0.890693, 0.378863 1.09909 L -0.836232 2.24301, 0.753971 2.24301 C 0.97583 2.24333, 1.18294 2.24172, 1.37466 2.2382, 1.56671 2.23499, 1.72957 2.22794, 1.86327 2.21768, 1.99728 2.20742, 2.06589 2.20069, 2.06909 2.19684, 2.09731 2.17312, 2.12392 2.12534, 2.14861 2.05353, 2.17329 1.98171, 2.19605 1.89707, 2.21721 1.79961, 2.23837 1.70215, 2.25953 1.60308, 2.28069 1.50209, 2.30185 1.40142, 2.32109 1.29081, 2.33872 1.1709 L 2.72954 1.1709 Z" stroke="none" fill="#000000" transform="matrix(1.12 0 0 1 21.6294 16.3063)" />
			<rect />
		</svg>
	</g>
	<g transform="matrix(1 0 -0 1 168.543 117.427)">
		<svg width="81.075737" height="54.1276474">
			<defs />
			<path d="M 12.9653 14.9922 C 12.8966 15.2676, 12.793 15.5378, 12.6545 15.8035, 12.5159 16.0691, 12.3465 16.309, 12.1449 16.5226, 11.9434 16.7367, 11.7184 16.9113, 11.47 17.0487, 11.2215 17.1861, 10.953 17.2548, 10.6633 17.2548, 9.75128 17.2548, 9.06541 17.0138, 8.60626 16.5311, 8.29195 16.202, 8.13451 15.7869, 8.13451 15.2854, 8.13451 15.0295, 8.17573 14.7518, 8.2576 14.4518 L 8.68183 12.8121 C 8.73221 12.6049, 8.7574 12.4097, 8.7574 12.2259, 8.7574 12.1348, 8.7511 12.0404, 8.73851 11.9419, 8.70072 11.686, 8.61313 11.4604, 8.47458 11.2646, 8.33603 11.0694, 8.15856 10.9154, 7.94158 10.802, 7.72459 10.6893, 7.46811 10.6326, 7.17212 10.632 L 5.0401 10.632, 3.78515 15.5144 C 3.75996 15.6312, 3.74737 15.7256, 3.74737 15.7983, 3.74737 15.8905, 3.76626 15.9518, 3.80405 15.9815, 3.88592 16.0308, 4.05595 16.06, 4.31358 16.0691, 4.57178 16.0783, 4.84831 16.0829, 5.14372 16.0823, 5.32005 16.0829, 5.40822 16.1562, 5.40822 16.3021, 5.40822 16.3394, 5.40192 16.3789, 5.38933 16.4212 L 5.35154 16.5678 C 5.28284 16.751, 5.15975 16.8426, 4.98342 16.8426, 4.20996 16.806, 3.4302 16.7876, 2.64357 16.7876, 1.85751 16.7876, 1.06802 16.806, 0.27567 16.8426, 0.106207 16.8426, 0.0151782 16.7636, 0.00201051 16.6044 L 0.00201051 16.5311, 0.0397962 16.3754 C 0.090177 16.1745, 0.212694 16.0766, 0.407347 16.0823, 0.703335 16.0829, 0.983292 16.0783, 1.24722 16.0691, 1.51172 16.06, 1.70637 16.0279, 1.83232 15.9724, 1.95198 15.906, 2.04301 15.7411, 2.10598 15.4777 L 4.75728 5.15423 C 4.79506 5.02027, 4.81338 4.91664, 4.81338 4.84279, 4.81338 4.77008, 4.79792 4.72714, 4.76644 4.71455, 4.67827 4.66016, 4.50709 4.62695, 4.25232 4.61436, 3.99756 4.60234, 3.71932 4.59604, 3.41703 4.59547, 3.24127 4.59604, 3.1531 4.5136, 3.1531 4.34814 L 3.1531 4.27486, 3.20978 4.11914 C 3.24757 3.93651, 3.36436 3.84491, 3.55901 3.84433 L 8.87076 3.84433 C 9.46846 3.84491, 10.0375 3.92448, 10.5786 4.08307, 11.1196 4.24223, 11.5913 4.50444, 11.9938 4.87027, 12.327 5.16397, 12.5692 5.52408, 12.7203 5.95117, 12.8148 6.18361, 12.8652 6.42521, 12.8709 6.67482, 12.8709 6.90154, 12.8365 7.12424, 12.7673 7.34351, 12.6482 7.83244, 12.3997 8.27556, 12.0219 8.67231, 11.6446 9.06963, 11.2198 9.40798, 10.748 9.68851, 10.4211 9.87859, 10.0896 10.036, 9.753 10.1608, 9.41636 10.2862, 9.17591 10.3641, 9.03106 10.3938, 9.38945 10.5347, 9.72952 10.8095, 10.0501 11.2183, 10.3209 11.5732, 10.456 11.9974, 10.456 12.4915, 10.456 12.5957, 10.4497 12.6999, 10.4371 12.803 L 10.2574 14.4518 C 10.2076 14.88, 10.1824 15.2522, 10.1824 15.5693, 10.1824 15.7777, 10.195 15.9609, 10.2202 16.1189, 10.2642 16.4796, 10.4526 16.66, 10.7858 16.6594, 11.0881 16.66, 11.3646 16.4968, 11.6165 16.1699, 11.8684 15.8436, 12.0539 15.4388, 12.173 14.9556, 12.2423 14.773, 12.3648 14.6842, 12.5411 14.69 L 12.6917 14.69 C 12.8617 14.6905, 12.9528 14.7701, 12.9653 14.9281 L 12.9653 14.9922 Z M 10.748 7.28855 C 10.8488 6.92272, 10.9055 6.55631, 10.9181 6.18933 L 10.9181 6.13437 C 10.9181 5.8235, 10.8207 5.55499, 10.6255 5.32828, 10.3931 5.06034, 10.0896 4.87084, 9.71521 4.76092, 9.34079 4.651, 8.9303 4.59604, 8.48374 4.59547 L 7.2288 4.59547 C 6.9082 4.59604, 6.7164 4.62066, 6.65343 4.66932, 6.59045 4.71856, 6.52461 4.89203, 6.45534 5.19088 L 5.21013 10.0366, 7.03071 10.0366 C 7.47727 10.0372, 7.9181 9.98221, 8.35207 9.87229, 8.78603 9.76237, 9.19823 9.56714, 9.58754 9.28547, 9.92131 9.04787, 10.1732 8.74902, 10.3427 8.38834, 10.5127 8.02823, 10.6478 7.66183, 10.748 7.28855 Z" stroke="none" fill="#000000" />
			<path d="M 2.38824 3.19713 L -1.91172 3.19713, -1.91172 2.915 C -1.91172 2.8948, -1.90114 2.86402, -1.87998 2.82266 L -0.152556 0.945196 C 0.0519898 0.71981, 0.25878 0.488975, 0.468456 0.253009, 0.678132 0.0170434, 0.865366 -0.224052, 1.0308 -0.470277, 1.19623 -0.716502, 1.32832 -0.970422, 1.42707 -1.23204, 1.52581 -1.49365, 1.57487 -1.76809, 1.57487 -2.05567, 1.57487 -2.29805, 1.54345 -2.52472, 1.47997 -2.73503, 1.41649 -2.94535, 1.32511 -3.13002, 1.20521 -3.28904, 1.0853 -3.44806, 0.935578 -3.5763, 0.756039 -3.67377, 0.5765 -3.77123, 0.368748 -3.81996, 0.132782 -3.82028, -0.219243 -3.81996, -0.53023 -3.7148, -0.799538 -3.50449, -1.06885 -3.29417, -1.24774 -3.06237, -1.33591 -2.80974, -1.35322 -2.80268, -1.32501 -2.79915, -1.25127 -2.79948 L -1.1615 -2.79948 C -1.0557 -2.77511, -0.964329 -2.73824, -0.886743 -2.68887, -0.809156 -2.63917, -0.744074 -2.57088, -0.691174 -2.48368, -0.638274 -2.39647, -0.611984 -2.29132, -0.611984 -2.16852, -0.611984 -1.96302, -0.67867 -1.8056, -0.812683 -1.69627, -0.946696 -1.58663, -1.09642 -1.53212, -1.26185 -1.53244, -1.42023 -1.53212, -1.56803 -1.58663, -1.70557 -1.69627, -1.84279 -1.8056, -1.91172 -1.96302, -1.91172 -2.16852, -1.91172 -2.45547, -1.85529 -2.72734, -1.74244 -2.98382, -1.62959 -3.24031, -1.47666 -3.46249, -1.28301 -3.65068, -1.08937 -3.83856, -0.860453 -3.98732, -0.596274 -4.09697, -0.332096 -4.20629, -0.0518863 -4.26112, 0.243712 -4.26144, 0.609843 -4.26112, 0.945517 -4.20725, 1.25009 -4.09953, 1.55467 -3.99181, 1.81436 -3.83695, 2.02916 -3.63529, 2.24397 -3.43331, 2.41229 -3.19991, 2.5338 -2.93509, 2.65531 -2.66995, 2.7159 -2.37692, 2.7159 -2.05567, 2.7159 -1.6998, 2.63511 -1.37214, 2.47288 -1.07302, 2.31098 -0.77357, 2.11028 -0.499131, 1.87078 -0.2497, 1.63129 5.126e-005, 1.37673 0.235055, 1.10742 0.455632, 0.838114 0.676208, 0.594134 0.890693, 0.375801 1.09909 L -0.839293 2.24301, 0.75091 2.24301 C 0.972769 2.24333, 1.17988 2.24172, 1.3716 2.2382, 1.56364 2.23499, 1.72651 2.22794, 1.8602 2.21768, 1.99422 2.20742, 2.06283 2.20069, 2.06603 2.19684, 2.09425 2.17312, 2.12086 2.12534, 2.14554 2.05353, 2.17023 1.98171, 2.19299 1.89707, 2.21415 1.79961, 2.23531 1.70215, 2.25647 1.60308, 2.27763 1.50209, 2.29879 1.40142, 2.31803 1.29081, 2.33566 1.1709 L 2.72648 1.1709 Z" stroke="none" fill="#000000" transform="matrix(1.12 0 0 1 15.8492 16.3063)" />
			<path d="M 2.81931 1.26324 C 2.81931 1.55755, 2.75423 1.84001, 2.62406 2.10996, 2.4939 2.38023, 2.31949 2.61106, 2.10084 2.80214, 1.85461 3.01791, 1.58242 3.17757, 1.28489 3.28177, 0.987372 3.38629, 0.676385 3.43822, 0.352253 3.43822, 0.0601811 3.43822, -0.224837 3.39719, -0.503123 3.31511, -0.781408 3.23304, -1.03212 3.11537, -1.2559 2.96148, -1.47969 2.80759, -1.65826 2.61876, -1.79228 2.39465, -1.92597 2.17087, -1.99298 1.91342, -1.99298 1.62232, -1.99298 1.40366, -1.91988 1.24047, -1.77368 1.13275, -1.62749 1.02503, -1.4736 0.971165, -1.31169 0.970845, -1.14241 0.971165, -0.984993 1.02503, -0.838796 1.13275, -0.6926 1.24047, -0.619502 1.40366, -0.619502 1.62232, -0.619502 1.75248, -0.64483 1.86117, -0.696127 1.94837, -0.747103 2.03558, -0.812186 2.10835, -0.891696 2.16638, -0.970886 2.22473, -1.06162 2.26032, -1.16357 2.27379, -1.21615 2.28789, -1.26552 2.29462, -1.31169 2.2943, -1.35722 2.29462, -1.36427 2.29815, -1.33285 2.30456, -1.22352 2.49629, -1.00872 2.66589, -0.688112 2.81272, -0.367507 2.95988, -0.020932 3.0333, 0.352253 3.03298, 0.528586 3.0333, 0.693056 2.9897, 0.846306 2.90249, 0.999555 2.81529, 1.12748 2.69827, 1.22943 2.55079, 1.35639 2.35971, 1.44263 2.15452, 1.48816 1.93555, 1.534 1.71689, 1.55677 1.49279, 1.55677 1.26324, 1.55677 1.02759, 1.534 0.801244, 1.48816 0.583874, 1.44263 0.366824, 1.35639 0.165804, 1.22943 -0.0191851, 1.12363 -0.169228, 0.995067 -0.290738, 0.843741 -0.383072, 0.692415 -0.475407, 0.528586 -0.521574, 0.352253 -0.521894 L -0.413674 -0.521894 C -0.515626 -0.521574, -0.570129 -0.569344, -0.577182 -0.665526 L -0.577182 -0.721952 C -0.577182 -0.762669, -0.564679 -0.79505, -0.540313 -0.819416, -0.508573 -0.849874, -0.468176 -0.865263, -0.418803 -0.865584, -0.31653 -0.879049, -0.211051 -0.885782, -0.102045 -0.886102, 0.00375462 -0.885782, 0.107951 -0.892514, 0.209904 -0.906621, 0.400023 -0.920087, 0.565455 -0.978757, 0.706201 -1.08327, 0.847268 -1.18747, 0.96525 -1.32084, 1.06015 -1.48339, 1.15537 -1.64562, 1.22751 -1.83285, 1.27688 -2.04509, 1.32625 -2.25701, 1.35094 -2.47438, 1.35094 -2.69688, 1.35094 -2.86071, 1.33331 -3.01621, 1.29804 -3.16336, 1.26277 -3.3102, 1.19769 -3.43876, 1.10247 -3.54841, 0.905297 -3.7738, 0.655225 -3.88505, 0.352253 -3.88184, 0.0284412 -3.88152, -0.268119 -3.8206, -0.537427 -3.69942, -0.806736 -3.57791, -0.987557 -3.4471, -1.07925 -3.30731, -1.10362 -3.30347, -1.09143 -3.30186, -1.04206 -3.30219, -0.915101 -3.30186, -0.795515 -3.26435, -0.682982 -3.18933, -0.513703 -3.08994, -0.429383 -2.92227, -0.429383 -2.68662, -0.429383 -2.48785, -0.493504 -2.33812, -0.622067 -2.23745, -0.75063 -2.13646, -0.894261 -2.08613, -1.05264 -2.08645, -1.20749 -2.08613, -1.35273 -2.1355, -1.48834 -2.23489, -1.62396 -2.33396, -1.69193 -2.48464, -1.69193 -2.68662, -1.69193 -2.93605, -1.63197 -3.15631, -1.51239 -3.34803, -1.39248 -3.53943, -1.23859 -3.70358, -1.05008 -3.84048, -0.861559 -3.97706, -0.644189 -4.08158, -0.397643 -4.15339, -0.151098 -4.22521, 0.0989745 -4.26112, 0.352253 -4.26144, 0.623485 -4.26112, 0.886061 -4.22521, 1.13966 -4.15339, 1.39326 -4.08158, 1.63275 -3.97033, 1.85782 -3.82028, 2.0412 -3.69012, 2.19509 -3.53014, 2.32013 -3.34034, 2.44517 -3.15054, 2.50768 -2.93605, 2.50768 -2.69688, 2.50768 -2.45707, 2.46472 -2.23136, 2.37848 -2.01944, 2.29224 -1.8072, 2.17778 -1.6158, 2.03511 -1.44492, 1.89244 -1.27371, 1.72252 -1.12335, 1.52535 -0.993505, 1.32818 -0.863339, 1.18006 -0.781585, 1.08131 -0.747601, 1.16595 -0.737021, 1.31054 -0.686365, 1.51477 -0.595954, 1.71899 -0.505223, 1.91424 -0.384675, 2.10084 -0.234632, 2.31949 -0.0461159, 2.4939 0.178629, 2.62406 0.440243, 2.75423 0.701857, 2.81931 0.976295, 2.81931 1.26324 Z" stroke="none" fill="#000000" transform="matrix(1.12 0 0 1 22.0523 16.3063)" />
			<rect />
		</svg>
	</g>
	<path d="M 2.43294e-005 -139.148 L 160.6 139.148, -160.6 139.148 Z" fill="none" stroke="#000000" stroke-width="3.73333335" stroke-linecap="round" stroke-linejoin="round" transform="matrix(0.357143 -1.07854e-007 -1.07854e-007 -0.357143 126.508 124.203)" />
	<path d="M -46.1612 -26.6507 L 46.1601 26.6508" fill="none" stroke="#000000" stroke-width="3.73333335" stroke-linecap="round" stroke-linejoin="round" transform="matrix(0.357143 0 0 0.357143 52.9731 65.3229)" />
	<path d="M 45.3025 -26.156 L -45.3033 26.1552" fill="none" stroke="#000000" stroke-width="3.73333335" stroke-linecap="round" stroke-linejoin="round" transform="matrix(0.357143 0 0 0.357143 199.554 65.4999)" />
	<ellipse cx="787.86986064910889" cy="443.57139873504639" rx="11.199999809265137" ry="11.199999809265137" stroke="none" fill="#000000" transform="matrix(0.357143 0 0 0.357143 -65.649 -102.26)" />
	<ellipse cx="787.86986494064331" cy="443.57140302658081" rx="7.4666666984558105" ry="7.4666666984558105" stroke="none" fill="#FFFFFF" transform="matrix(0.357143 0 0 0.357143 -65.649 -102.26)" />
	<ellipse cx="285.98060894012451" cy="442.58107280731201" rx="11.199999809265137" ry="11.199999809265137" stroke="none" fill="#000000" transform="matrix(0.357143 0 0 0.357143 -65.649 -102.26)" />
	<ellipse cx="285.98061323165894" cy="442.58107709884644" rx="7.4666666984558105" ry="7.4666666984558105" stroke="none" fill="#FFFFFF" transform="matrix(0.357143 0 0 0.357143 -65.649 -102.26)" />
	<path d="M 0 41.7974 L 0 -41.7973" fill="none" stroke="#000000" stroke-width="3.73333335" stroke-linecap="round" stroke-linejoin="round" transform="matrix(0.357143 0 0 0.357143 126.508 189.151)" />
	<ellipse cx="538.03953838348389" cy="857.74846172332764" rx="11.199999809265137" ry="11.199999809265137" stroke="none" fill="#000000" transform="matrix(0.357143 0 0 0.357143 -65.649 -102.26)" />
	<ellipse cx="538.03954267501831" cy="857.74846601486206" rx="7.4666666984558105" ry="7.4666666984558105" stroke="none" fill="#FFFFFF" transform="matrix(0.357143 0 0 0.357143 -65.649 -102.26)" />
	<rect x="-51.0136604" y="-12.7533655" width="102.027321" height="25.506731" stroke="none" fill="#FFFFFF" transform="matrix(0.357143 0 -0 0.357143 126.508 74.5072)" />
	<path d="M -51.0137 -12.7534 L 51.0137 -12.7534, 51.0137 12.7534, -51.0137 12.7534 Z" fill="none" stroke="#000000" stroke-width="4.19999981" stroke-linecap="round" stroke-linejoin="round" transform="matrix(0.357143 0 -0 0.357143 126.508 74.5072)" />
	<path d="M -51.0138 -12.7534 L 51.0138 -12.7534, 51.0138 12.7534, -51.0138 12.7534 Z" stroke="none" fill="#FFFFFF" transform="matrix(0.178571 -0.309295 0.309295 0.178571 156.874 121.914)" />
	<path d="M -51.0138 -12.7534 L 51.0138 -12.7534, 51.0138 12.7534, -51.0138 12.7534 Z" fill="none" stroke="#000000" stroke-width="4.19999981" stroke-linecap="round" stroke-linejoin="round" transform="matrix(0.178571 -0.309295 0.309295 0.178571 156.874 121.914)" />
	<path d="M -51.0139 -12.7534 L 51.0139 -12.7534, 51.0139 12.7534, -51.0139 12.7534 Z" stroke="none" fill="#FFFFFF" transform="matrix(0.178571 0.309295 -0.309295 0.178571 96.5495 121.914)" />
	<path d="M -51.0139 -12.7534 L 51.0139 -12.7534, 51.0139 12.7534, -51.0139 12.7534 Z" fill="none" stroke="#000000" stroke-width="4.19999981" stroke-linecap="round" stroke-linejoin="round" transform="matrix(0.178571 0.309295 -0.309295 0.178571 96.5495 121.914)" />
	<g transform="matrix(1 0 -0 1 8.99996 30.703)">
		<svg width="75.0478287" height="59.8723221">
			<defs />
			<path d="M 13.1074 17.3297 C 11.9735 17.2938, 10.8699 17.2759, 9.79711 17.2759, 8.72492 17.2759, 7.62132 17.2938, 6.48686 17.3297 L 6.48686 16.5577, 7.12534 16.5577 C 7.32845 16.5583, 7.51977 16.5555, 7.69818 16.5493, 7.87716 16.5437, 8.0466 16.5285, 8.20706 16.5044, 8.36753 16.4808, 8.50611 16.4567, 8.62281 16.432, 8.72156 16.4146, 8.80347 16.3597, 8.86799 16.2665, 8.93307 16.1739, 8.96506 16.0707, 8.96506 15.9563 L 8.96506 5.83923 C 8.65703 5.98959, 8.27776 6.10349, 7.82779 6.18092, 7.37782 6.2589, 6.88465 6.29762, 6.34827 6.29706 L 6.34827 5.53401 C 7.08831 5.53458, 7.77112 5.44649, 8.3967 5.26976, 9.02228 5.09358, 9.56315 4.76256, 10.0193 4.27724 L 10.306 4.27724 C 10.5091 4.2778, 10.6106 4.37655, 10.6106 4.57348 L 10.6106 15.9563 C 10.6106 16.0763, 10.6415 16.1812, 10.7032 16.271, 10.7649 16.3608, 10.8547 16.4146, 10.9714 16.432, 11.0702 16.4567, 11.197 16.4808, 11.3507 16.5044, 11.505 16.5285, 11.6789 16.5437, 11.873 16.5493, 12.0672 16.5555, 12.2568 16.5583, 12.4414 16.5577 L 13.1074 16.5577, 13.1074 17.3297 Z" stroke="none" fill="#000000" />
			<path d="M 1.5467 8.95625 C -4.56906 4.92594, -4.56906 -4.92594, 1.5467 -8.95625 L 2.50721 -8.95625 C -3.00823 -4.92594, -3.00823 4.92594, 2.50721 8.95625" stroke="none" fill="#000000" transform="matrix(1 0 -0 1 2.814 11.7703)" />
			<path d="M 1.5467 8.95625 C -4.56906 4.92594, -4.56906 -4.92594, 1.5467 -8.95625 L 2.50721 -8.95625 C -3.00823 -4.92594, -3.00823 4.92594, 2.50721 8.95625" stroke="none" fill="#000000" transform="matrix(-1 1.50996e-007 -1.50996e-007 -1 16.6522 11.7703)" />
			<rect />
		</svg>
	</g>
	<g transform="matrix(1 0 -0 1 222.999 30.703)">
		<svg width="77.9182587" height="59.8723221">
			<defs />
			<path d="M 13.8928 17.3297 L 6.36782 17.3297, 6.36782 16.836 C 6.36782 16.8007, 6.38634 16.7468, 6.42337 16.6744 L 9.44636 13.3888 C 9.80431 12.9944, 10.1662 12.5905, 10.5331 12.1775, 10.9001 11.7646, 11.2277 11.3427, 11.5172 10.9118, 11.8067 10.4809, 12.0379 10.0365, 12.2107 9.57869, 12.3835 9.12087, 12.4693 8.6406, 12.4693 8.13733, 12.4693 7.71317, 12.4144 7.3165, 12.3033 6.94845, 12.1922 6.58039, 12.0323 6.25722, 11.8224 5.97893, 11.6126 5.70065, 11.3506 5.47622, 11.0364 5.30566, 10.7222 5.1351, 10.3586 5.04982, 9.9457 5.04926, 9.32966 5.04982, 8.78543 5.23385, 8.31414 5.6019, 7.84285 5.96996, 7.52978 6.3756, 7.37549 6.81772, 7.34519 6.83006, 7.39456 6.83623, 7.52361 6.83567 L 7.6807 6.83567 C 7.86585 6.87831, 8.02575 6.94283, 8.16153 7.02924, 8.29731 7.1162, 8.4112 7.23571, 8.50378 7.38832, 8.59635 7.54092, 8.64236 7.72495, 8.64236 7.93984, 8.64236 8.29948, 8.52566 8.57496, 8.29113 8.76628, 8.05661 8.95816, 7.7946 9.05354, 7.50509 9.05298, 7.22793 9.05354, 6.96928 8.95816, 6.72858 8.76628, 6.48845 8.57496, 6.36782 8.29948, 6.36782 7.93984, 6.36782 7.43769, 6.46657 6.96191, 6.66406 6.51306, 6.86156 6.06422, 7.12918 5.6754, 7.46806 5.34606, 7.80694 5.01728, 8.20754 4.75695, 8.66985 4.56506, 9.13216 4.37374, 9.62253 4.2778, 10.1398 4.27724, 10.7806 4.2778, 11.368 4.37206, 11.901 4.56058, 12.434 4.74909, 12.8885 5.02008, 13.2644 5.37299, 13.6403 5.72646, 13.9348 6.13491, 14.1475 6.59834, 14.3601 7.06234, 14.4662 7.57515, 14.4662 8.13733, 14.4662 8.76011, 14.3248 9.33351, 14.0409 9.85698, 13.7575 10.381, 13.4063 10.8613, 12.9872 11.2978, 12.5681 11.7348, 12.1226 12.1461, 11.6513 12.5321, 11.18 12.9181, 10.7531 13.2935, 10.371 13.6582 L 8.24457 15.66, 11.0274 15.66 C 11.4157 15.6606, 11.7781 15.6578, 12.1136 15.6516, 12.4497 15.646, 12.7347 15.6336, 12.9687 15.6157, 13.2032 15.5977, 13.3233 15.586, 13.3289 15.5792, 13.3783 15.5377, 13.4248 15.4541, 13.468 15.3284, 13.5112 15.2028, 13.5511 15.0546, 13.5881 14.8841, 13.6251 14.7135, 13.6622 14.5401, 13.6992 14.3634, 13.7362 14.1872, 13.7699 13.9937, 13.8007 13.7838 L 14.4847 13.7838 Z" stroke="none" fill="#000000" />
			<path d="M 1.5467 8.95625 C -4.56906 4.92594, -4.56906 -4.92594, 1.5467 -8.95625 L 2.50721 -8.95625 C -3.00823 -4.92594, -3.00823 4.92594, 2.50721 8.95625" stroke="none" fill="#000000" transform="matrix(1 0 -0 1 2.814 11.7703)" />
			<path d="M 1.5467 8.95625 C -4.56906 4.92594, -4.56906 -4.92594, 1.5467 -8.95625 L 2.50721 -8.95625 C -3.00823 -4.92594, -3.00823 4.92594, 2.50721 8.95625" stroke="none" fill="#000000" transform="matrix(-1 1.50996e-007 -1.50996e-007 -1 18.0377 11.7703)" />
			<rect />
		</svg>
	</g>
	<g transform="matrix(1 0 -0 1 115.927 210.775)">
		<svg width="77.9182587" height="59.8723221">
			<defs />
			<path d="M 14.7928 13.9454 C 14.7928 14.4605, 14.6789 14.9548, 14.4511 15.4272, 14.2234 15.9002, 13.9181 16.3041, 13.5355 16.6385, 13.1046 17.0161, 12.6283 17.2955, 12.1076 17.4778, 11.5869 17.6608, 11.0427 17.7516, 10.4755 17.7516, 9.96435 17.7516, 9.46557 17.6798, 8.97857 17.5362, 8.49157 17.3926, 8.05282 17.1867, 7.6612 16.9174, 7.26958 16.648, 6.95707 16.3176, 6.72255 15.9254, 6.48859 15.5338, 6.37133 15.0832, 6.37133 14.5738, 6.37133 14.1912, 6.49925 13.9056, 6.75509 13.7171, 7.01094 13.5286, 7.28024 13.4343, 7.56358 13.4337, 7.85982 13.4343, 8.1353 13.5286, 8.39114 13.7171, 8.64699 13.9056, 8.77491 14.1912, 8.77491 14.5738, 8.77491 14.8016, 8.73058 14.9918, 8.64081 15.1444, 8.5516 15.297, 8.43771 15.4244, 8.29857 15.5259, 8.15998 15.628, 8.00121 15.6903, 7.82279 15.7139, 7.73077 15.7386, 7.64437 15.7503, 7.56358 15.7498, 7.48391 15.7503, 7.47157 15.7565, 7.52655 15.7677, 7.71787 16.1033, 8.09378 16.4001, 8.65484 16.657, 9.2159 16.9145, 9.8224 17.043, 10.4755 17.0425, 10.7841 17.043, 11.0719 16.9667, 11.3401 16.8141, 11.6083 16.6615, 11.8321 16.4567, 12.0105 16.1986, 12.2327 15.8642, 12.3836 15.5052, 12.4633 15.122, 12.5435 14.7393, 12.5834 14.3471, 12.5834 13.9454, 12.5834 13.533, 12.5435 13.1369, 12.4633 12.7565, 12.3836 12.3767, 12.2327 12.0249, 12.0105 11.7012, 11.8254 11.4386, 11.6004 11.226, 11.3356 11.0644, 11.0708 10.9028, 10.7841 10.822, 10.4755 10.8214 L 9.13511 10.8214 C 8.95669 10.822, 8.86131 10.7384, 8.84897 10.5701 L 8.84897 10.4713 C 8.84897 10.4001, 8.87085 10.3434, 8.91349 10.3008, 8.96903 10.2475, 9.03973 10.2205, 9.12613 10.22, 9.30511 10.1964, 9.4897 10.1846, 9.68046 10.1841, 9.86561 10.1846, 10.048 10.1729, 10.2264 10.1482, 10.5591 10.1246, 10.8486 10.0219, 11.0949 9.83902, 11.3418 9.65668, 11.5482 9.42328, 11.7143 9.13882, 11.8809 8.85493, 12.0072 8.52727, 12.0936 8.15585, 12.18 7.78499, 12.2232 7.40459, 12.2232 7.01521, 12.2232 6.72851, 12.1923 6.4564, 12.1306 6.19887, 12.0689 5.94191, 11.955 5.71692, 11.7884 5.52504, 11.4433 5.13061, 11.0057 4.93592, 10.4755 4.94153, 9.90881 4.9421, 9.38983 5.0487, 8.91854 5.26078, 8.44725 5.47342, 8.13081 5.70233, 7.97035 5.94695, 7.92771 5.95369, 7.94903 5.95649, 8.03543 5.95593, 8.25761 5.95649, 8.46688 6.02214, 8.66382 6.15342, 8.96006 6.32735, 9.10761 6.62079, 9.10761 7.03317, 9.10761 7.38102, 8.9954 7.64304, 8.77042 7.81921, 8.54543 7.99594, 8.29408 8.08403, 8.01691 8.08347, 7.74592 8.08403, 7.49176 7.99763, 7.25444 7.8237, 7.01711 7.65033, 6.89816 7.38663, 6.89816 7.03317, 6.89816 6.59666, 7.00308 6.21121, 7.21236 5.8757, 7.42219 5.54075, 7.6915 5.25348, 8.0214 5.01391, 8.35131 4.7749, 8.7317 4.592, 9.16316 4.46632, 9.59461 4.34064, 10.0322 4.2778, 10.4755 4.27724, 10.9501 4.2778, 11.4096 4.34064, 11.8534 4.46632, 12.2972 4.592, 12.7163 4.78668, 13.1102 5.04926, 13.4311 5.27705, 13.7004 5.55702, 13.9193 5.88916, 14.1381 6.22131, 14.2475 6.59666, 14.2475 7.01521, 14.2475 7.43488, 14.1723 7.82987, 14.0214 8.20073, 13.8704 8.57215, 13.6702 8.9071, 13.4205 9.20615, 13.1708 9.50576, 12.8734 9.76889, 12.5284 9.99612, 12.1833 10.2239, 11.9241 10.367, 11.7513 10.4265, 11.8994 10.445, 12.1525 10.5336, 12.5099 10.6918, 12.8673 10.8506, 13.209 11.0616, 13.5355 11.3241, 13.9181 11.6541, 14.2234 12.0474, 14.4511 12.5052, 14.6789 12.963, 14.7928 13.4433, 14.7928 13.9454 Z" stroke="none" fill="#000000" />
			<path d="M 1.5467 8.95625 C -4.56906 4.92594, -4.56906 -4.92594, 1.5467 -8.95625 L 2.50721 -8.95625 C -3.00823 -4.92594, -3.00823 4.92594, 2.50721 8.95625" stroke="none" fill="#000000" transform="matrix(1 0 -0 1 2.814 11.7703)" />
			<path d="M 1.5467 8.95625 C -4.56906 4.92594, -4.56906 -4.92594, 1.5467 -8.95625 L 2.50721 -8.95625 C -3.00823 -4.92594, -3.00823 4.92594, 2.50721 8.95625" stroke="none" fill="#000000" transform="matrix(-1 1.50996e-007 -1.50996e-007 -1 18.3486 11.7703)" />
			<rect />
		</svg>
	</g>
	<ellipse cx="1788.9156980514526" cy="443.57139873504639" rx="11.199999809265137" ry="11.199999809265137" stroke="none" fill="#000000" transform="matrix(0.357143 0 0 0.357143 -65.649 -102.26)" />
	<ellipse cx="1788.9156413078308" cy="443.57140302658081" rx="7.4666666984558105" ry="7.4666666984558105" stroke="none" fill="#FFFFFF" transform="matrix(0.357143 0 0 0.357143 -65.649 -102.26)" />
	<ellipse cx="1287.0265378952026" cy="442.58107280731201" rx="11.199999809265137" ry="11.199999809265137" stroke="none" fill="#000000" transform="matrix(0.357143 0 0 0.357143 -65.649 -102.26)" />
	<ellipse cx="1287.0264811515808" cy="442.58107709884644" rx="7.4666666984558105" ry="7.4666666984558105" stroke="none" fill="#FFFFFF" transform="matrix(0.357143 0 0 0.357143 -65.649 -102.26)" />
	<ellipse cx="1539.0863523483276" cy="857.74846172332764" rx="11.199999809265137" ry="11.199999809265137" stroke="none" fill="#000000" transform="matrix(0.357143 0 0 0.357143 -65.649 -102.26)" />
	<ellipse cx="1539.0862956047058" cy="857.74846601486206" rx="7.4666666984558105" ry="7.4666666984558105" stroke="none" fill="#FFFFFF" transform="matrix(0.357143 0 0 0.357143 -65.649 -102.26)" />
	<g transform="matrix(1 0 -0 1 366.516 30.703)">
		<svg width="75.0478287" height="59.8723221">
			<defs />
			<path d="M 13.1074 17.3297 C 11.9735 17.2938, 10.8699 17.2759, 9.79711 17.2759, 8.72492 17.2759, 7.62132 17.2938, 6.48686 17.3297 L 6.48686 16.5577, 7.12534 16.5577 C 7.32845 16.5583, 7.51977 16.5555, 7.69818 16.5493, 7.87716 16.5437, 8.0466 16.5285, 8.20706 16.5044, 8.36753 16.4808, 8.50611 16.4567, 8.62281 16.432, 8.72156 16.4146, 8.80347 16.3597, 8.86799 16.2665, 8.93307 16.1739, 8.96506 16.0707, 8.96506 15.9563 L 8.96506 5.83923 C 8.65703 5.98959, 8.27776 6.10349, 7.82779 6.18092, 7.37782 6.2589, 6.88465 6.29762, 6.34827 6.29706 L 6.34827 5.53401 C 7.08831 5.53458, 7.77112 5.44649, 8.3967 5.26976, 9.02228 5.09358, 9.56315 4.76256, 10.0193 4.27724 L 10.306 4.27724 C 10.5091 4.2778, 10.6106 4.37655, 10.6106 4.57348 L 10.6106 15.9563 C 10.6106 16.0763, 10.6415 16.1812, 10.7032 16.271, 10.7649 16.3608, 10.8547 16.4146, 10.9714 16.432, 11.0702 16.4567, 11.197 16.4808, 11.3507 16.5044, 11.505 16.5285, 11.6789 16.5437, 11.873 16.5493, 12.0672 16.5555, 12.2568 16.5583, 12.4414 16.5577 L 13.1074 16.5577, 13.1074 17.3297 Z" stroke="none" fill="#000000" />
			<path d="M 1.5467 8.95625 C -4.56906 4.92594, -4.56906 -4.92594, 1.5467 -8.95625 L 2.50721 -8.95625 C -3.00823 -4.92594, -3.00823 4.92594, 2.50721 8.95625" stroke="none" fill="#000000" transform="matrix(1 0 -0 1 2.814 11.7703)" />
			<path d="M 1.5467 8.95625 C -4.56906 4.92594, -4.56906 -4.92594, 1.5467 -8.95625 L 2.50721 -8.95625 C -3.00823 -4.92594, -3.00823 4.92594, 2.50721 8.95625" stroke="none" fill="#000000" transform="matrix(-1 1.50996e-007 -1.50996e-007 -1 16.6522 11.7703)" />
			<rect />
		</svg>
	</g>
	<g transform="matrix(1 0 -0 1 580.515 30.703)">
		<svg width="77.9182587" height="59.8723221">
			<defs />
			<path d="M 13.8928 17.3297 L 6.36782 17.3297, 6.36782 16.836 C 6.36782 16.8007, 6.38634 16.7468, 6.42337 16.6744 L 9.44636 13.3888 C 9.80431 12.9944, 10.1662 12.5905, 10.5331 12.1775, 10.9001 11.7646, 11.2277 11.3427, 11.5172 10.9118, 11.8067 10.4809, 12.0379 10.0365, 12.2107 9.57869, 12.3835 9.12087, 12.4693 8.6406, 12.4693 8.13733, 12.4693 7.71317, 12.4144 7.3165, 12.3033 6.94845, 12.1922 6.58039, 12.0323 6.25722, 11.8224 5.97893, 11.6126 5.70065, 11.3506 5.47622, 11.0364 5.30566, 10.7222 5.1351, 10.3586 5.04982, 9.9457 5.04926, 9.32966 5.04982, 8.78543 5.23385, 8.31414 5.6019, 7.84285 5.96996, 7.52978 6.3756, 7.37549 6.81772, 7.34519 6.83006, 7.39456 6.83623, 7.52361 6.83567 L 7.6807 6.83567 C 7.86585 6.87831, 8.02575 6.94283, 8.16153 7.02924, 8.29731 7.1162, 8.4112 7.23571, 8.50378 7.38832, 8.59635 7.54092, 8.64236 7.72495, 8.64236 7.93984, 8.64236 8.29948, 8.52566 8.57496, 8.29113 8.76628, 8.05661 8.95816, 7.7946 9.05354, 7.50509 9.05298, 7.22793 9.05354, 6.96928 8.95816, 6.72858 8.76628, 6.48845 8.57496, 6.36782 8.29948, 6.36782 7.93984, 6.36782 7.43769, 6.46657 6.96191, 6.66406 6.51306, 6.86156 6.06422, 7.12918 5.6754, 7.46806 5.34606, 7.80694 5.01728, 8.20754 4.75695, 8.66985 4.56506, 9.13216 4.37374, 9.62253 4.2778, 10.1398 4.27724, 10.7806 4.2778, 11.368 4.37206, 11.901 4.56058, 12.434 4.74909, 12.8885 5.02008, 13.2644 5.37299, 13.6403 5.72646, 13.9348 6.13491, 14.1475 6.59834, 14.3601 7.06234, 14.4662 7.57515, 14.4662 8.13733, 14.4662 8.76011, 14.3248 9.33351, 14.0409 9.85698, 13.7575 10.381, 13.4063 10.8613, 12.9872 11.2978, 12.5681 11.7348, 12.1226 12.1461, 11.6513 12.5321, 11.18 12.9181, 10.7531 13.2935, 10.371 13.6582 L 8.24457 15.66, 11.0274 15.66 C 11.4157 15.6606, 11.7781 15.6578, 12.1136 15.6516, 12.4497 15.646, 12.7347 15.6336, 12.9687 15.6157, 13.2032 15.5977, 13.3233 15.586, 13.3289 15.5792, 13.3783 15.5377, 13.4248 15.4541, 13.468 15.3284, 13.5112 15.2028, 13.5511 15.0546, 13.5881 14.8841, 13.6251 14.7135, 13.6622 14.5401, 13.6992 14.3634, 13.7362 14.1872, 13.7699 13.9937, 13.8007 13.7838 L 14.4847 13.7838 Z" stroke="none" fill="#000000" />
			<path d="M 1.5467 8.95625 C -4.56906 4.92594, -4.56906 -4.92594, 1.5467 -8.95625 L 2.50721 -8.95625 C -3.00823 -4.92594, -3.00823 4.92594, 2.50721 8.95625" stroke="none" fill="#000000" transform="matrix(1 0 -0 1 2.814 11.7703)" />
			<path d="M 1.5467 8.95625 C -4.56906 4.92594, -4.56906 -4.92594, 1.5467 -8.95625 L 2.50721 -8.95625 C -3.00823 -4.92594, -3.00823 4.92594, 2.50721 8.95625" stroke="none" fill="#000000" transform="matrix(-1 1.50996e-007 -1.50996e-007 -1 18.0377 11.7703)" />
			<rect />
		</svg>
	</g>
	<g transform="matrix(1 0 -0 1 473.443 210.775)">
		<svg width="77.9182587" height="59.8723221">
			<defs />
			<path d="M 14.7928 13.9454 C 14.7928 14.4605, 14.6789 14.9548, 14.4511 15.4272, 14.2234 15.9002, 13.9181 16.3041, 13.5355 16.6385, 13.1046 17.0161, 12.6283 17.2955, 12.1076 17.4778, 11.5869 17.6608, 11.0427 17.7516, 10.4755 17.7516, 9.96435 17.7516, 9.46557 17.6798, 8.97857 17.5362, 8.49157 17.3926, 8.05282 17.1867, 7.6612 16.9174, 7.26958 16.648, 6.95707 16.3176, 6.72255 15.9254, 6.48859 15.5338, 6.37133 15.0832, 6.37133 14.5738, 6.37133 14.1912, 6.49925 13.9056, 6.75509 13.7171, 7.01094 13.5286, 7.28024 13.4343, 7.56358 13.4337, 7.85982 13.4343, 8.1353 13.5286, 8.39114 13.7171, 8.64699 13.9056, 8.77491 14.1912, 8.77491 14.5738, 8.77491 14.8016, 8.73058 14.9918, 8.64081 15.1444, 8.5516 15.297, 8.43771 15.4244, 8.29857 15.5259, 8.15998 15.628, 8.00121 15.6903, 7.82279 15.7139, 7.73077 15.7386, 7.64437 15.7503, 7.56358 15.7498, 7.48391 15.7503, 7.47157 15.7565, 7.52655 15.7677, 7.71787 16.1033, 8.09378 16.4001, 8.65484 16.657, 9.2159 16.9145, 9.8224 17.043, 10.4755 17.0425, 10.7841 17.043, 11.0719 16.9667, 11.3401 16.8141, 11.6083 16.6615, 11.8321 16.4567, 12.0105 16.1986, 12.2327 15.8642, 12.3836 15.5052, 12.4633 15.122, 12.5435 14.7393, 12.5834 14.3471, 12.5834 13.9454, 12.5834 13.533, 12.5435 13.1369, 12.4633 12.7565, 12.3836 12.3767, 12.2327 12.0249, 12.0105 11.7012, 11.8254 11.4386, 11.6004 11.226, 11.3356 11.0644, 11.0708 10.9028, 10.7841 10.822, 10.4755 10.8214 L 9.13511 10.8214 C 8.95669 10.822, 8.86131 10.7384, 8.84897 10.5701 L 8.84897 10.4713 C 8.84897 10.4001, 8.87085 10.3434, 8.91349 10.3008, 8.96903 10.2475, 9.03973 10.2205, 9.12613 10.22, 9.30511 10.1964, 9.4897 10.1846, 9.68046 10.1841, 9.86561 10.1846, 10.048 10.1729, 10.2264 10.1482, 10.5591 10.1246, 10.8486 10.0219, 11.0949 9.83902, 11.3418 9.65668, 11.5482 9.42328, 11.7143 9.13882, 11.8809 8.85493, 12.0072 8.52727, 12.0936 8.15585, 12.18 7.78499, 12.2232 7.40459, 12.2232 7.01521, 12.2232 6.72851, 12.1923 6.4564, 12.1306 6.19887, 12.0689 5.94191, 11.955 5.71692, 11.7884 5.52504, 11.4433 5.13061, 11.0057 4.93592, 10.4755 4.94153, 9.90881 4.9421, 9.38983 5.0487, 8.91854 5.26078, 8.44725 5.47342, 8.13081 5.70233, 7.97035 5.94695, 7.92771 5.95369, 7.94903 5.95649, 8.03543 5.95593, 8.25761 5.95649, 8.46688 6.02214, 8.66382 6.15342, 8.96006 6.32735, 9.10761 6.62079, 9.10761 7.03317, 9.10761 7.38102, 8.9954 7.64304, 8.77042 7.81921, 8.54543 7.99594, 8.29408 8.08403, 8.01691 8.08347, 7.74592 8.08403, 7.49176 7.99763, 7.25444 7.8237, 7.01711 7.65033, 6.89816 7.38663, 6.89816 7.03317, 6.89816 6.59666, 7.00308 6.21121, 7.21236 5.8757, 7.42219 5.54075, 7.6915 5.25348, 8.0214 5.01391, 8.35131 4.7749, 8.7317 4.592, 9.16316 4.46632, 9.59461 4.34064, 10.0322 4.2778, 10.4755 4.27724, 10.9501 4.2778, 11.4096 4.34064, 11.8534 4.46632, 12.2972 4.592, 12.7163 4.78668, 13.1102 5.04926, 13.4311 5.27705, 13.7004 5.55702, 13.9193 5.88916, 14.1381 6.22131, 14.2475 6.59666, 14.2475 7.01521, 14.2475 7.43488, 14.1723 7.82987, 14.0214 8.20073, 13.8704 8.57215, 13.6702 8.9071, 13.4205 9.20615, 13.1708 9.50576, 12.8734 9.76889, 12.5284 9.99612, 12.1833 10.2239, 11.9241 10.367, 11.7513 10.4265, 11.8994 10.445, 12.1525 10.5336, 12.5099 10.6918, 12.8673 10.8506, 13.209 11.0616, 13.5355 11.3241, 13.9181 11.6541, 14.2234 12.0474, 14.4511 12.5052, 14.6789 12.963, 14.7928 13.4433, 14.7928 13.9454 Z" stroke="none" fill="#000000" />
			<path d="M 1.5467 8.95625 C -4.56906 4.92594, -4.56906 -4.92594, 1.5467 -8.95625 L 2.50721 -8.95625 C -3.00823 -4.92594, -3.00823 4.92594, 2.50721 8.95625" stroke="none" fill="#000000" transform="matrix(1 0 -0 1 2.814 11.7703)" />
			<path d="M 1.5467 8.95625 C -4.56906 4.92594, -4.56906 -4.92594, 1.5467 -8.95625 L 2.50721 -8.95625 C -3.00823 -4.92594, -3.00823 4.92594, 2.50721 8.95625" stroke="none" fill="#000000" transform="matrix(-1 1.50996e-007 -1.50996e-007 -1 18.3486 11.7703)" />
			<rect />
		</svg>
	</g>
	<ellipse cx="1539.0863285064697" cy="606.53231239318848" rx="7.3500003814697266" ry="7.3500003814697266" stroke="none" fill="#000000" transform="matrix(0.357143 0 0 0.357143 -65.649 -102.26)" />
	<path d="M -51.0138 -12.7532 L 51.0138 -12.7532, 51.0138 12.7532, -51.0138 12.7532 Z" stroke="none" fill="#FFFFFF" transform="matrix(0.299525 0.194514 -0.194514 0.299525 442.755 87.2931)" />
	<path d="M -51.0138 -12.7532 L 51.0138 -12.7532, 51.0138 12.7532, -51.0138 12.7532 Z" fill="none" stroke="#000000" stroke-width="4.19999981" stroke-linecap="round" stroke-linejoin="round" transform="matrix(0.299525 0.194514 -0.194514 0.299525 442.755 87.2931)" />
	<path d="M -51.0137 -12.7532 L 51.0137 -12.7532, 51.0137 12.7532, -51.0137 12.7532 Z" stroke="none" fill="#FFFFFF" transform="matrix(-0.299525 0.194514 0.194514 0.299525 528.637 85.3908)" />
	<path d="M -51.0137 -12.7532 L 51.0137 -12.7532, 51.0137 12.7532, -51.0137 12.7532 Z" fill="none" stroke="#000000" stroke-width="4.19999981" stroke-linecap="round" stroke-linejoin="round" transform="matrix(-0.299525 0.194514 0.194514 0.299525 528.637 85.3908)" />
	<path d="M -51.0136 -12.7536 L 51.0136 -12.7536, 51.0136 12.7536, -51.0136 12.7536 Z" stroke="none" fill="#FFFFFF" transform="matrix(2.69635e-008 0.357143 -0.357143 2.69635e-008 484.025 159.219)" />
	<path d="M -51.0136 -12.7536 L 51.0136 -12.7536, 51.0136 12.7536, -51.0136 12.7536 Z" fill="none" stroke="#000000" stroke-width="4.19999981" stroke-linecap="round" stroke-linejoin="round" transform="matrix(2.69635e-008 0.357143 -0.357143 2.69635e-008 484.025 159.219)" />
	<g transform="matrix(1 0 -0 1 78.0111 8.43722)">
		<svg width="311.858429" height="71.9361496">
			<defs />
			<path d="M 16.9192 8.06936 L 16.9192 18.4249 C 16.9192 19.3019, 16.7585 19.9163, 16.4361 20.2727, 16.1148 20.6292, 15.5415 20.8144, 14.7172 20.8262, 13.9574 20.8262, 13.1965 20.7886, 12.4367 20.7136 L 11.9724 18.6125 C 12.656 18.7016, 13.2551 18.745, 13.7698 18.7438, 14.1052 18.745, 14.328 18.6922, 14.437 18.5855, 14.5472 18.48, 14.6011 18.2514, 14.6011 17.8996 L 14.6011 17.1117, 10.794 17.1117, 10.794 20.5448, 8.49476 20.5448, 8.49476 17.1117, 4.47543 17.1117 C 4.33473 17.8011, 4.13189 18.4518, 3.86691 19.0639, 3.60309 19.6759, 3.24548 20.3325, 2.79407 21.0325 L 0.592114 19.7756 C 1.13381 19.0639, 1.53011 18.4237, 1.78103 17.8539, 2.03194 17.2852, 2.19961 16.672, 2.28286 16.0154, 2.36728 15.3588, 2.40832 14.4548, 2.40832 13.3034 L 2.40832 10.4894 C 2.24182 10.6278, 1.97684 10.8224, 1.61571 11.071 L 0.533489 9.06364 C 1.55122 8.28979, 2.54081 7.37055, 3.49991 6.3071, 4.46019 5.24481, 5.26218 4.20011, 5.90588 3.173 L 8.32123 3.79208 C 7.9859 4.35606, 7.78657 4.68084, 7.72209 4.7676 L 14.8521 4.7676, 14.8521 6.6436, 13.9633 7.50656, 13.3829 8.06936 Z M 6.25294 6.79368 C 5.76401 7.37055, 5.38412 7.795, 5.11327 8.06936 L 10.2723 8.06936, 11.6253 6.79368 Z M 4.72635 11.615 L 8.49476 11.615, 8.49476 10.133, 4.72635 10.133 Z M 10.794 11.615 L 14.6011 11.615, 14.6011 10.133, 10.794 10.133 Z M 8.49476 15.1044 L 8.49476 13.6223, 4.72635 13.6223, 4.72635 13.9225 C 4.72635 14.4618, 4.72049 14.8558, 4.70759 15.1044 Z M 10.794 13.6223 L 10.794 15.1044, 14.6011 15.1044, 14.6011 13.6223 Z" stroke="none" fill="#000000" />
			<path d="M 29.5373 7.82548 C 30.426 7.326, 31.3734 6.67292, 32.3782 5.86624, 33.383 5.05956, 34.2401 4.26812, 34.9483 3.49192 L 36.5511 5.01148 C 35.843 5.80058, 34.9741 6.61077, 33.9435 7.44208, 32.9129 8.27455, 31.8823 9.0144, 30.8516 9.66396 Z M 30.2138 12.8532 L 28.2229 12.8532, 28.2229 20.6948, 26.0983 20.6948, 26.0983 12.8532, 24.03 12.8532 C 23.9925 14.1429, 23.8928 15.2087, 23.731 16.0529, 23.5704 16.8971, 23.316 17.6757, 22.9677 18.3885, 22.6207 19.1014, 22.1177 19.9327, 21.4611 20.8824 L 19.4514 19.6818 C 20.0963 18.8575, 20.5758 18.1517, 20.8912 17.5631, 21.2066 16.9757, 21.4388 16.3285, 21.5865 15.6214, 21.7343 14.9156, 21.8281 13.9928, 21.8668 12.8532 L 19.8571 12.8532, 19.8571 10.7333, 21.8855 10.7333, 21.8855 6.56856, 20.2428 6.56856, 20.2428 4.42992, 29.7108 4.42992, 29.7108 6.56856, 28.2229 6.56856, 28.2229 10.7333, 30.2138 10.7333 Z M 24.05 6.56856 L 24.05 10.7333, 26.0983 10.7333, 26.0983 6.56856 Z M 29.4798 13.3222 C 30.5104 12.7101, 31.5469 11.9761, 32.5904 11.119, 33.634 10.2631, 34.5427 9.40836, 35.3153 8.55712 L 36.9568 10.1517 C 36.1337 11.0405, 35.1899 11.9199, 34.1276 12.7887, 33.0653 13.6587, 31.9596 14.4548, 30.8129 15.1794 Z M 37.556 14.8792 C 35.4443 17.3438, 32.9199 19.3629, 29.9816 20.9387 L 28.591 19.044 C 31.3347 17.6569, 33.8016 15.7492, 35.9907 13.3222 Z" stroke="none" fill="#000000" />
			<path d="M 68.9544 18.6924 C 68.9733 18.7359, 68.9824 18.7754, 68.9824 18.8115, 68.9824 18.8607, 68.9698 18.8974, 68.9446 18.9214, 68.9069 18.9947, 68.8347 19.0313, 68.7277 19.0313 L 54.7642 19.0313 C 54.6634 19.0313, 54.5913 18.9947, 54.5472 18.9214, 54.522 18.8974, 54.5094 18.8607, 54.5094 18.8115, 54.5094 18.7754, 54.5191 18.7359, 54.5374 18.6924 L 61.2272 5.65749 C 61.3091 5.48116, 61.4539 5.39528, 61.6612 5.40101 L 61.8306 5.40101 C 62.0259 5.40158, 62.1707 5.48402, 62.2646 5.64833 L 68.9544 18.6924 Z M 61.1797 7.45288 L 56.0094 17.5199, 66.3409 17.5199 Z" stroke="none" fill="#000000" />
			<path d="M 93.0832 4.7676 C 92.3621 5.56959, 91.4863 6.38565, 90.4557 7.21696, 89.425 8.04943, 88.4073 8.77755, 87.4025 9.40132 L 86.5137 8.16316 C 87.4165 7.63906, 88.3756 6.96721, 89.3934 6.14764, 90.4111 5.32923, 91.2799 4.53076, 92.001 3.75456 Z M 86.9968 12.478 L 84.5615 12.478, 84.5615 20.5072, 83.1322 20.5072, 83.1322 12.478, 80.446 12.478 C 80.4202 13.8545, 80.3311 14.9742, 80.1763 15.8372, 80.0216 16.7001, 79.7707 17.4881, 79.4224 18.2009, 79.0754 18.9138, 78.5536 19.7451, 77.8571 20.6948 L 76.4853 19.9069 C 77.1818 19.0205, 77.693 18.2642, 78.0213 17.6381, 78.3496 17.0132, 78.5888 16.3156, 78.7365 15.5464, 78.8842 14.7772, 78.971 13.7548, 78.9968 12.478 L 76.6401 12.478, 76.6401 11.071, 79.0167 11.071, 79.0167 10.8646, 79.0167 6.1746, 77.258 6.1746, 77.258 4.74884, 86.4938 4.74884, 86.4938 6.1746, 84.5615 6.1746, 84.5615 11.071, 86.9968 11.071 Z M 80.466 11.071 L 83.1322 11.071, 83.1322 6.1746, 80.466 6.1746, 80.466 10.8271 Z M 86.4938 13.6974 C 87.5514 13.0607, 88.6078 12.3103, 89.6642 11.4473, 90.7206 10.5844, 91.6352 9.72142, 92.4067 8.85728 L 93.5088 9.9266 C 92.6975 10.8036, 91.7571 11.676, 90.6878 12.5448, 89.6185 13.4148, 88.5234 14.2109, 87.4025 14.9355 Z M 94.1654 14.6916 C 91.9236 17.2196, 89.3922 19.2198, 86.5712 20.6948 L 85.6249 19.4192 C 88.3428 18.0696, 90.8355 16.1432, 93.1032 13.6411 Z" stroke="none" fill="#000000" />
			<path d="M 1.66947 10.6005 C -4.44629 5.83027, -4.44629 -5.83027, 1.66947 -10.6005 L 2.62998 -10.6005 C -2.88546 -5.83027, -2.88546 5.83027, 2.62998 10.6005" stroke="none" fill="#000000" transform="matrix(1 0 -0 1 51.0392 13.4145)" />
			<path d="M 1.66947 10.6005 C -4.44629 5.83027, -4.44629 -5.83027, 1.66947 -10.6005 L 2.62998 -10.6005 C -2.88546 -5.83027, -2.88546 5.83027, 2.62998 10.6005" stroke="none" fill="#000000" transform="matrix(-1 1.50996e-007 -1.50996e-007 -1 98.2496 13.4145)" />
			<rect />
		</svg>
	</g>
	<g transform="matrix(1 0 -0 1 433.936 8.43722)">
		<svg width="308.988007" height="71.9361496">
			<defs />
			<path d="M 2.67916 4.09224 L 16.3787 4.09224, 16.3787 11.1085, 2.67916 11.1085 Z M 14.0794 6.86872 L 14.0794 5.93072, 4.97844 5.93072, 4.97844 6.86872 Z M 4.97844 8.40704 L 4.97844 9.3638, 14.0794 9.3638, 14.0794 8.40704 Z M 10.8527 18.4999 L 17.9052 18.4999, 17.9052 20.3196, 1.26865 20.3196, 1.26865 18.4999, 8.476 18.4999, 8.476 17.243, 3.45184 17.243, 3.45184 15.5358 C 3.03912 16.0119, 2.65337 16.4375, 2.29224 16.8115 L 0.649567 15.367 C 1.98973 14.0679, 3.03912 12.6609, 3.7989 11.146 L 5.96334 11.7838, 5.53889 12.553, 8.476 12.553, 8.476 11.5024, 10.8527 11.5024, 10.8527 12.553, 17.0165 12.553, 17.0165 14.3727, 10.8527 14.3727, 10.8527 15.4796, 16.32 15.4796, 16.32 17.243, 10.8527 17.243 Z M 8.476 15.4796 L 8.476 14.3727, 4.35936 14.3727 C 4.06389 14.7866, 3.77428 15.156, 3.49053 15.4796 Z" stroke="none" fill="#000000" />
			<path d="M 29.5373 7.82548 C 30.426 7.326, 31.3734 6.67292, 32.3782 5.86624, 33.383 5.05956, 34.2401 4.26812, 34.9483 3.49192 L 36.5511 5.01148 C 35.843 5.80058, 34.9741 6.61077, 33.9435 7.44208, 32.9129 8.27455, 31.8823 9.0144, 30.8516 9.66396 Z M 30.2138 12.8532 L 28.2229 12.8532, 28.2229 20.6948, 26.0983 20.6948, 26.0983 12.8532, 24.03 12.8532 C 23.9925 14.1429, 23.8928 15.2087, 23.731 16.0529, 23.5704 16.8971, 23.316 17.6757, 22.9677 18.3885, 22.6207 19.1014, 22.1177 19.9327, 21.4611 20.8824 L 19.4514 19.6818 C 20.0963 18.8575, 20.5758 18.1517, 20.8912 17.5631, 21.2066 16.9757, 21.4388 16.3285, 21.5865 15.6214, 21.7343 14.9156, 21.8281 13.9928, 21.8668 12.8532 L 19.8571 12.8532, 19.8571 10.7333, 21.8855 10.7333, 21.8855 6.56856, 20.2428 6.56856, 20.2428 4.42992, 29.7108 4.42992, 29.7108 6.56856, 28.2229 6.56856, 28.2229 10.7333, 30.2138 10.7333 Z M 24.05 6.56856 L 24.05 10.7333, 26.0983 10.7333, 26.0983 6.56856 Z M 29.4798 13.3222 C 30.5104 12.7101, 31.5469 11.9761, 32.5904 11.119, 33.634 10.2631, 34.5427 9.40836, 35.3153 8.55712 L 36.9568 10.1517 C 36.1337 11.0405, 35.1899 11.9199, 34.1276 12.7887, 33.0653 13.6587, 31.9596 14.4548, 30.8129 15.1794 Z M 37.556 14.8792 C 35.4443 17.3438, 32.9199 19.3629, 29.9816 20.9387 L 28.591 19.044 C 31.3347 17.6569, 33.8016 15.7492, 35.9907 13.3222 Z" stroke="none" fill="#000000" />
			<path d="M 68.6827 6.78419 C 68.381 6.78476, 68.1119 6.80652, 67.8761 6.84889, 67.6402 6.89182, 67.4123 6.96511, 67.1919 7.06816, 66.7894 7.27655, 66.4717 7.56624, 66.2387 7.93837 L 62.5214 13.8467, 62.5214 17.6848 C 62.5214 17.7953, 62.542 17.8949, 62.5832 17.9831, 62.6244 18.0718, 62.692 18.1313, 62.7859 18.1611, 62.9496 18.2166, 63.1918 18.2487, 63.5124 18.2579, 63.833 18.267, 64.1668 18.2716, 64.5126 18.271 L 64.5126 19.0313 C 63.5061 18.9947, 62.5345 18.9764, 61.5968 18.9764, 60.6533 18.9764, 59.6817 18.9947, 58.6816 19.0313 L 58.6816 18.271 C 59.0274 18.2716, 59.3611 18.267, 59.6817 18.2579, 60.0023 18.2487, 60.2445 18.2166, 60.4082 18.1611, 60.4964 18.1313, 60.5628 18.0718, 60.6063 17.9831, 60.6504 17.8949, 60.6722 17.7953, 60.6722 17.6848 L 60.6722 13.8467, 56.6245 7.40708 C 56.5558 7.29144, 56.474 7.18781, 56.3795 7.09621, 56.2856 7.00461, 56.1722 6.93419, 56.04 6.88495, 55.8637 6.83057, 55.6404 6.80022, 55.3702 6.79393, 55.0999 6.7882, 54.8137 6.78476, 54.5114 6.78419 L 54.5114 6.0239 C 55.3358 6.06741, 56.1247 6.08859, 56.8793 6.08802, 57.0052 6.08859, 57.1346 6.0823, 57.2663 6.0697, 58.1537 6.07027, 59.0749 6.05825, 60.031 6.03306 L 60.031 6.78419 C 59.7733 6.78476, 59.5438 6.79106, 59.3422 6.80309, 59.1407 6.81568, 58.9615 6.86091, 58.8041 6.93991, 58.7411 6.97083, 58.7067 7.02923, 58.7005 7.11396, 58.6816 7.13915, 58.6718 7.15747, 58.6718 7.16892, 58.6718 7.21243, 58.6942 7.25823, 58.7382 7.30632 L 62.2386 12.8574, 65.3805 7.84677 C 65.4624 7.7191, 65.5093 7.59086, 65.5219 7.46204 L 65.5219 7.39792 C 65.5219 7.29487, 65.4841 7.19697, 65.4085 7.1048, 65.3204 6.98343, 65.1933 6.89927, 65.0267 6.85347, 64.8601 6.80766, 64.6574 6.78476, 64.4181 6.78419 L 64.4181 6.03306 C 65.1669 6.05825, 65.8837 6.07027, 66.569 6.0697, 66.6572 6.0823, 66.7454 6.08859, 66.8335 6.08802, 67.4249 6.08859, 68.0415 6.06741, 68.6827 6.0239 L 68.6827 6.78419 Z" stroke="none" fill="#000000" />
			<path d="M 92.1964 4.7676 C 91.4753 5.56959, 90.5995 6.38565, 89.5688 7.21696, 88.5382 8.04943, 87.5205 8.77755, 86.5156 9.40132 L 85.6269 8.16316 C 86.5297 7.63906, 87.4888 6.96721, 88.5065 6.14764, 89.5243 5.32923, 90.3931 4.53076, 91.1142 3.75456 Z M 86.11 12.478 L 83.6747 12.478, 83.6747 20.5072, 82.2454 20.5072, 82.2454 12.478, 79.5592 12.478 C 79.5334 13.8545, 79.4443 14.9742, 79.2895 15.8372, 79.1348 16.7001, 78.8838 17.4881, 78.5356 18.2009, 78.1885 18.9138, 77.6668 19.7451, 76.9703 20.6948 L 75.5985 19.9069 C 76.295 19.0205, 76.8062 18.2642, 77.1345 17.6381, 77.4628 17.0132, 77.702 16.3156, 77.8497 15.5464, 77.9974 14.7772, 78.0842 13.7548, 78.11 12.478 L 75.7533 12.478, 75.7533 11.071, 78.1299 11.071, 78.1299 10.8646, 78.1299 6.1746, 76.3712 6.1746, 76.3712 4.74884, 85.607 4.74884, 85.607 6.1746, 83.6747 6.1746, 83.6747 11.071, 86.11 11.071 Z M 79.5791 11.071 L 82.2454 11.071, 82.2454 6.1746, 79.5791 6.1746, 79.5791 10.8271 Z M 85.607 13.6974 C 86.6646 13.0607, 87.721 12.3103, 88.7774 11.4473, 89.8338 10.5844, 90.7484 9.72142, 91.5199 8.85728 L 92.622 9.9266 C 91.8107 10.8036, 90.8703 11.676, 89.801 12.5448, 88.7317 13.4148, 87.6366 14.2109, 86.5156 14.9355 Z M 93.2786 14.6916 C 91.0368 17.2196, 88.5054 19.2198, 85.6843 20.6948 L 84.7381 19.4192 C 87.456 18.0696, 89.9487 16.1432, 92.2163 13.6411 Z" stroke="none" fill="#000000" />
			<path d="M 1.66947 10.6005 C -4.44629 5.83027, -4.44629 -5.83027, 1.66947 -10.6005 L 2.62998 -10.6005 C -2.88546 -5.83027, -2.88546 5.83027, 2.62998 10.6005" stroke="none" fill="#000000" transform="matrix(1 0 -0 1 51.0392 13.4145)" />
			<path d="M 1.66947 10.6005 C -4.44629 5.83027, -4.44629 -5.83027, 1.66947 -10.6005 L 2.62998 -10.6005 C -2.88546 -5.83027, -2.88546 5.83027, 2.62998 10.6005" stroke="none" fill="#000000" transform="matrix(-1 1.50996e-007 -1.50996e-007 -1 97.3627 13.4145)" />
			<rect />
		</svg>
	</g>
	<g transform="matrix(1 0 -0 1 269.503 87.7763)">
		<svg width="242.968063" height="98.936142">
			<defs />
			<path d="M 12.9653 14.9922 C 12.8966 15.2676, 12.793 15.5378, 12.6545 15.8035, 12.5159 16.0691, 12.3465 16.309, 12.1449 16.5226, 11.9434 16.7367, 11.7184 16.9113, 11.47 17.0487, 11.2215 17.1861, 10.953 17.2548, 10.6633 17.2548, 9.75128 17.2548, 9.06541 17.0138, 8.60626 16.5311, 8.29195 16.202, 8.13451 15.7869, 8.13451 15.2854, 8.13451 15.0295, 8.17573 14.7518, 8.2576 14.4518 L 8.68183 12.8121 C 8.73221 12.6049, 8.7574 12.4097, 8.7574 12.2259, 8.7574 12.1348, 8.7511 12.0404, 8.73851 11.9419, 8.70072 11.686, 8.61313 11.4604, 8.47458 11.2646, 8.33603 11.0694, 8.15856 10.9154, 7.94158 10.802, 7.72459 10.6893, 7.46811 10.6326, 7.17212 10.632 L 5.0401 10.632, 3.78515 15.5144 C 3.75996 15.6312, 3.74737 15.7256, 3.74737 15.7983, 3.74737 15.8905, 3.76626 15.9518, 3.80405 15.9815, 3.88592 16.0308, 4.05595 16.06, 4.31358 16.0691, 4.57178 16.0783, 4.84831 16.0829, 5.14372 16.0823, 5.32005 16.0829, 5.40822 16.1562, 5.40822 16.3021, 5.40822 16.3394, 5.40192 16.3789, 5.38933 16.4212 L 5.35154 16.5678 C 5.28284 16.751, 5.15975 16.8426, 4.98342 16.8426, 4.20996 16.806, 3.4302 16.7876, 2.64357 16.7876, 1.85751 16.7876, 1.06802 16.806, 0.27567 16.8426, 0.106207 16.8426, 0.0151782 16.7636, 0.00201051 16.6044 L 0.00201051 16.5311, 0.0397962 16.3754 C 0.090177 16.1745, 0.212694 16.0766, 0.407347 16.0823, 0.703335 16.0829, 0.983292 16.0783, 1.24722 16.0691, 1.51172 16.06, 1.70637 16.0279, 1.83232 15.9724, 1.95198 15.906, 2.04301 15.7411, 2.10598 15.4777 L 4.75728 5.15423 C 4.79506 5.02027, 4.81338 4.91664, 4.81338 4.84279, 4.81338 4.77008, 4.79792 4.72714, 4.76644 4.71455, 4.67827 4.66016, 4.50709 4.62695, 4.25232 4.61436, 3.99756 4.60234, 3.71932 4.59604, 3.41703 4.59547, 3.24127 4.59604, 3.1531 4.5136, 3.1531 4.34814 L 3.1531 4.27486, 3.20978 4.11914 C 3.24757 3.93651, 3.36436 3.84491, 3.55901 3.84433 L 8.87076 3.84433 C 9.46846 3.84491, 10.0375 3.92448, 10.5786 4.08307, 11.1196 4.24223, 11.5913 4.50444, 11.9938 4.87027, 12.327 5.16397, 12.5692 5.52408, 12.7203 5.95117, 12.8148 6.18361, 12.8652 6.42521, 12.8709 6.67482, 12.8709 6.90154, 12.8365 7.12424, 12.7673 7.34351, 12.6482 7.83244, 12.3997 8.27556, 12.0219 8.67231, 11.6446 9.06963, 11.2198 9.40798, 10.748 9.68851, 10.4211 9.87859, 10.0896 10.036, 9.753 10.1608, 9.41636 10.2862, 9.17591 10.3641, 9.03106 10.3938, 9.38945 10.5347, 9.72952 10.8095, 10.0501 11.2183, 10.3209 11.5732, 10.456 11.9974, 10.456 12.4915, 10.456 12.5957, 10.4497 12.6999, 10.4371 12.803 L 10.2574 14.4518 C 10.2076 14.88, 10.1824 15.2522, 10.1824 15.5693, 10.1824 15.7777, 10.195 15.9609, 10.2202 16.1189, 10.2642 16.4796, 10.4526 16.66, 10.7858 16.6594, 11.0881 16.66, 11.3646 16.4968, 11.6165 16.1699, 11.8684 15.8436, 12.0539 15.4388, 12.173 14.9556, 12.2423 14.773, 12.3648 14.6842, 12.5411 14.69 L 12.6917 14.69 C 12.8617 14.6905, 12.9528 14.7701, 12.9653 14.9281 L 12.9653 14.9922 Z M 10.748 7.28855 C 10.8488 6.92272, 10.9055 6.55631, 10.9181 6.18933 L 10.9181 6.13437 C 10.9181 5.8235, 10.8207 5.55499, 10.6255 5.32828, 10.3931 5.06034, 10.0896 4.87084, 9.71521 4.76092, 9.34079 4.651, 8.9303 4.59604, 8.48374 4.59547 L 7.2288 4.59547 C 6.9082 4.59604, 6.7164 4.62066, 6.65343 4.66932, 6.59045 4.71856, 6.52461 4.89203, 6.45534 5.19088 L 5.21013 10.0366, 7.03071 10.0366 C 7.47727 10.0372, 7.9181 9.98221, 8.35207 9.87229, 8.78603 9.76237, 9.19823 9.56714, 9.58754 9.28547, 9.92131 9.04787, 10.1732 8.74902, 10.3427 8.38834, 10.5127 8.02823, 10.6478 7.66183, 10.748 7.28855 Z" stroke="none" fill="#0080FF" />
			<path d="M 4.46511 3.00733 C 4.47569 3.0317, 4.48082 3.05382, 4.48082 3.07402, 4.48082 3.10159, 4.47376 3.12211, 4.45966 3.13557, 4.4385 3.17661, 4.3981 3.19713, 4.33815 3.19713 L -3.48142 3.19713 C -3.53785 3.19713, -3.57824 3.17661, -3.60293 3.13557, -3.61704 3.12211, -3.62409 3.10159, -3.62409 3.07402, -3.62409 3.05382, -3.61864 3.0317, -3.60838 3.00733 L 0.137896 -4.29221 C 0.183743 -4.39096, 0.264856 -4.43905, 0.380915 -4.43585 L 0.475814 -4.43585 C 0.585141 -4.43553, 0.666254 -4.38936, 0.718833 -4.29734 L 4.46511 3.00733 Z M 0.111286 -3.2868 L -2.7841 2.35073, 3.00154 2.35073 Z" stroke="none" fill="#0080FF" transform="matrix(1.12 0 0 1 17.5608 16.3063)" />
			<polyline points="-6.566 -1.9698 6.566 -1.9698" fill="none" stroke="#0080FF" stroke-width="0.750400007" stroke-linecap="round" stroke-linejoin="round" transform="matrix(1 0 0 1 35.1728 11.2074)" />
			<polyline points="-6.566 1.9698 6.566 1.9698" fill="none" stroke="#0080FF" stroke-width="0.750400007" stroke-linecap="round" stroke-linejoin="round" transform="matrix(1 0 0 1 35.1728 11.2074)" />
			<path d="M 55.684 13.3826 C 55.684 13.8977, 55.5701 14.392, 55.3424 14.8644, 55.1146 15.3374, 54.8093 15.7413, 54.4267 16.0757, 53.9952 16.4533, 53.5189 16.7327, 52.9982 16.9151, 52.4776 17.098, 51.9334 17.1888, 51.3661 17.1888, 50.8544 17.1888, 50.3557 17.117, 49.8687 16.9734, 49.3817 16.8298, 48.9429 16.6239, 48.5513 16.3546, 48.1597 16.0852, 47.8472 15.7548, 47.6126 15.3626, 47.3781 14.971, 47.2608 14.5204, 47.2608 14.011, 47.2608 13.6284, 47.3888 13.3428, 47.6446 13.1543, 47.9005 12.9658, 48.1703 12.8715, 48.4537 12.8709, 48.7499 12.8715, 49.0254 12.9658, 49.2812 13.1543, 49.5371 13.3428, 49.665 13.6284, 49.665 14.011, 49.665 14.2388, 49.6207 14.429, 49.5309 14.5816, 49.4417 14.7342, 49.3278 14.8616, 49.1886 14.9631, 49.0501 15.0652, 48.8913 15.1275, 48.7123 15.1511, 48.6203 15.1758, 48.5339 15.1875, 48.4537 15.187, 48.374 15.1875, 48.3616 15.1937, 48.4166 15.2049, 48.608 15.5405, 48.9839 15.8373, 49.5449 16.0942, 50.106 16.3517, 50.713 16.4802, 51.3661 16.4797, 51.6747 16.4802, 51.9625 16.4039, 52.2307 16.2513, 52.4989 16.0987, 52.7228 15.8939, 52.9012 15.6358, 53.1234 15.3014, 53.2743 14.9424, 53.3545 14.5592, 53.4347 14.1765, 53.4746 13.7843, 53.4746 13.3826, 53.4746 12.9702, 53.4347 12.5741, 53.3545 12.1937, 53.2743 11.8139, 53.1234 11.4621, 52.9012 11.1384, 52.716 10.8758, 52.491 10.6632, 52.2262 10.5016, 51.9614 10.34, 51.6747 10.2592, 51.3661 10.2586 L 50.0257 10.2586 C 49.8473 10.2592, 49.7514 10.1756, 49.739 10.0073 L 49.739 9.90854 C 49.739 9.83728, 49.7609 9.78062, 49.8036 9.73798, 49.8591 9.68468, 49.9298 9.65775, 50.0162 9.65718, 50.1952 9.63362, 50.3803 9.62184, 50.5711 9.62128, 50.7562 9.62184, 50.938 9.61005, 51.1164 9.58537, 51.4497 9.5618, 51.7392 9.45913, 51.9861 9.27623, 52.233 9.09388, 52.4394 8.86048, 52.6055 8.57602, 52.7716 8.29213, 52.8978 7.96447, 52.9842 7.59305, 53.0706 7.22219, 53.1138 6.84179, 53.1138 6.45241, 53.1138 6.16571, 53.083 5.8936, 53.0212 5.63607, 52.9595 5.37911, 52.8456 5.15412, 52.679 4.96224, 52.334 4.56781, 51.8963 4.37313, 51.3661 4.37874, 50.7994 4.3793, 50.2799 4.4859, 49.8086 4.69798, 49.3373 4.91062, 49.0209 5.13953, 48.8604 5.38415, 48.8178 5.39089, 48.8391 5.39369, 48.9255 5.39313, 49.1477 5.39369, 49.357 5.45934, 49.5539 5.59062, 49.8501 5.76455, 49.9977 6.05799, 49.9977 6.47037, 49.9977 6.81822, 49.8855 7.08024, 49.6605 7.25641, 49.4355 7.43314, 49.1842 7.52123, 48.907 7.52067, 48.6354 7.52123, 48.3813 7.43483, 48.144 7.2609, 47.9066 7.08753, 47.7877 6.82383, 47.7877 6.47037, 47.7877 6.03386, 47.8926 5.64841, 48.1024 5.3129, 48.3123 4.97795, 48.5816 4.69069, 48.9115 4.45111, 49.2414 4.2121, 49.6218 4.0292, 50.0532 3.90352, 50.4853 3.77784, 50.9229 3.715, 51.3661 3.71444, 51.8408 3.715, 52.3003 3.77784, 52.7441 3.90352, 53.1879 4.0292, 53.607 4.22388, 54.0014 4.48646, 54.3223 4.71425, 54.5917 4.99422, 54.8105 5.32637, 55.0293 5.65851, 55.1387 6.03386, 55.1387 6.45241, 55.1387 6.87208, 55.0635 7.26707, 54.9126 7.63793, 54.7617 8.00935, 54.5614 8.34431, 54.3117 8.64335, 54.062 8.94296, 53.7646 9.20609, 53.419 9.43332, 53.074 9.66111, 52.8148 9.80418, 52.642 9.86365, 52.7901 9.88217, 53.0431 9.97082, 53.4005 10.129, 53.7585 10.2878, 54.1002 10.4988, 54.4267 10.7613, 54.8093 11.0913, 55.1146 11.4846, 55.3424 11.9424, 55.5701 12.4002, 55.684 12.8805, 55.684 13.3826 Z" stroke="none" fill="#0080FF" />
			<path d="M 70.1712 14.9922 C 70.1025 15.2676, 69.9989 15.5378, 69.8604 15.8035, 69.7218 16.0691, 69.5523 16.309, 69.3508 16.5226, 69.1493 16.7367, 68.9243 16.9113, 68.6758 17.0487, 68.4274 17.1861, 68.1589 17.2548, 67.8692 17.2548, 66.9572 17.2548, 66.2713 17.0138, 65.8121 16.5311, 65.4978 16.202, 65.3404 15.7869, 65.3404 15.2854, 65.3404 15.0295, 65.3816 14.7518, 65.4635 14.4518 L 65.8877 12.8121 C 65.9381 12.6049, 65.9633 12.4097, 65.9633 12.2259, 65.9633 12.1348, 65.957 12.0404, 65.9444 11.9419, 65.9066 11.686, 65.819 11.4604, 65.6805 11.2646, 65.5419 11.0694, 65.3644 10.9154, 65.1475 10.802, 64.9305 10.6893, 64.674 10.6326, 64.378 10.632 L 62.246 10.632, 60.991 15.5144 C 60.9658 15.6312, 60.9533 15.7256, 60.9533 15.7983, 60.9533 15.8905, 60.9721 15.9518, 61.0099 15.9815, 61.0918 16.0308, 61.2618 16.06, 61.5195 16.0691, 61.7777 16.0783, 62.0542 16.0829, 62.3496 16.0823, 62.5259 16.0829, 62.6141 16.1562, 62.6141 16.3021, 62.6141 16.3394, 62.6078 16.3789, 62.5952 16.4212 L 62.5574 16.5678 C 62.4887 16.751, 62.3656 16.8426, 62.1893 16.8426, 61.4158 16.806, 60.6361 16.7876, 59.8495 16.7876, 59.0634 16.7876, 58.2739 16.806, 57.4816 16.8426, 57.3121 16.8426, 57.2211 16.7636, 57.2079 16.6044 L 57.2079 16.5311, 57.2457 16.3754 C 57.2961 16.1745, 57.4186 16.0766, 57.6132 16.0823, 57.9092 16.0829, 58.1892 16.0783, 58.4531 16.0691, 58.7176 16.06, 58.9123 16.0279, 59.0382 15.9724, 59.1579 15.906, 59.2489 15.7411, 59.3119 15.4777 L 61.9632 5.15423 C 62.0009 5.02027, 62.0193 4.91664, 62.0193 4.84279, 62.0193 4.77008, 62.0038 4.72714, 61.9723 4.71455, 61.8842 4.66016, 61.713 4.62695, 61.4582 4.61436, 61.2034 4.60234, 60.9252 4.59604, 60.6229 4.59547, 60.4472 4.59604, 60.359 4.5136, 60.359 4.34814 L 60.359 4.27486, 60.4157 4.11914 C 60.4535 3.93651, 60.5702 3.84491, 60.7649 3.84433 L 66.0766 3.84433 C 66.6743 3.84491, 67.2434 3.92448, 67.7844 4.08307, 68.3255 4.24223, 68.7972 4.50444, 69.1997 4.87027, 69.5329 5.16397, 69.7751 5.52408, 69.9262 5.95117, 70.0207 6.18361, 70.071 6.42521, 70.0768 6.67482, 70.0768 6.90154, 70.0424 7.12424, 69.9731 7.34351, 69.8541 7.83244, 69.6056 8.27556, 69.2277 8.67231, 68.8504 9.06963, 68.4257 9.40798, 67.9539 9.68851, 67.627 9.87859, 67.2955 10.036, 66.9589 10.1608, 66.6222 10.2862, 66.3818 10.3641, 66.2369 10.3938, 66.5953 10.5347, 66.9354 10.8095, 67.256 11.2183, 67.5268 11.5732, 67.6619 11.9974, 67.6619 12.4915, 67.6619 12.5957, 67.6556 12.6999, 67.643 12.803 L 67.4633 14.4518 C 67.4135 14.88, 67.3883 15.2522, 67.3883 15.5693, 67.3883 15.7777, 67.4009 15.9609, 67.426 16.1189, 67.4701 16.4796, 67.6585 16.66, 67.9917 16.6594, 68.294 16.66, 68.5705 16.4968, 68.8224 16.1699, 69.0743 15.8436, 69.2598 15.4388, 69.3789 14.9556, 69.4482 14.773, 69.5707 14.6842, 69.747 14.69 L 69.8976 14.69 C 70.0676 14.6905, 70.1586 14.7701, 70.1712 14.9281 L 70.1712 14.9922 Z M 67.9539 7.28855 C 68.0547 6.92272, 68.1113 6.55631, 68.1239 6.18933 L 68.1239 6.13437 C 68.1239 5.8235, 68.0266 5.55499, 67.8314 5.32828, 67.5989 5.06034, 67.2955 4.87084, 66.9211 4.76092, 66.5467 4.651, 66.1362 4.59604, 65.6896 4.59547 L 64.4347 4.59547 C 64.1141 4.59604, 63.9223 4.62066, 63.8593 4.66932, 63.7963 4.71856, 63.7305 4.89203, 63.6612 5.19088 L 62.416 10.0366, 64.2366 10.0366 C 64.6832 10.0372, 65.124 9.98221, 65.5579 9.87229, 65.9919 9.76237, 66.4041 9.56714, 66.7934 9.28547, 67.1272 9.04787, 67.3791 8.74902, 67.5486 8.38834, 67.7186 8.02823, 67.8537 7.66183, 67.9539 7.28855 Z" stroke="none" fill="#0080FF" />
			<path d="M 4.36904 -3.66126 C 4.20008 -3.66094, 4.0494 -3.64876, 3.91731 -3.62504, 3.78522 -3.60099, 3.65762 -3.55995, 3.53419 -3.50224, 3.3088 -3.38554, 3.13087 -3.22332, 3.00038 -3.01492 L 0.918688 0.293726, 0.918688 2.44306 C 0.918688 2.50494, 0.930229 2.56073, 0.953313 2.6101, 0.976397 2.65979, 1.01423 2.69314, 1.06681 2.70981, 1.1585 2.74091, 1.29412 2.75886, 1.47366 2.76399, 1.65319 2.76912, 1.84011 2.77169, 2.03375 2.77136 L 2.03375 3.19713 C 1.47013 3.17661, 0.926062 3.16635, 0.40091 3.16635, -0.127448 3.16635, -0.671515 3.17661, -1.23161 3.19713 L -1.23161 2.77136 C -1.03797 2.77169, -0.851054 2.76912, -0.671515 2.76399, -0.491976 2.75886, -0.35636 2.74091, -0.264667 2.70981, -0.215294 2.69314, -0.178103 2.65979, -0.153737 2.6101, -0.129051 2.56073, -0.116868 2.50494, -0.116868 2.44306 L -0.116868 0.293726, -2.38355 -3.31244 C -2.42202 -3.37721, -2.46787 -3.43524, -2.52077 -3.48653, -2.57335 -3.53783, -2.63683 -3.57726, -2.71089 -3.60484, -2.80963 -3.63529, -2.93467 -3.65229, -3.08599 -3.65581, -3.23732 -3.65902, -3.39762 -3.66094, -3.5669 -3.66126 L -3.5669 -4.08703 C -3.10523 -4.06266, -2.66344 -4.0508, -2.24088 -4.05112, -2.17035 -4.0508, -2.09789 -4.05433, -2.02415 -4.06138, -1.52721 -4.06106, -1.01136 -4.06779, -0.475946 -4.0819 L -0.475946 -3.66126 C -0.620218 -3.66094, -0.748781 -3.65742, -0.861634 -3.65068, -0.974487 -3.64363, -1.07484 -3.6183, -1.163 -3.57406, -1.19827 -3.55675, -1.21751 -3.52404, -1.22103 -3.47659, -1.23161 -3.46249, -1.23706 -3.45223, -1.23706 -3.44582, -1.23706 -3.42145, -1.22456 -3.3958, -1.19987 -3.36887 L 0.760309 -0.26028, 2.51979 -3.06622 C 2.56564 -3.13771, 2.59193 -3.20953, 2.59898 -3.28167 L 2.59898 -3.31757 C 2.59898 -3.37528, 2.57782 -3.43011, 2.5355 -3.48172, 2.48613 -3.54969, 2.41495 -3.59682, 2.32166 -3.62247, 2.22836 -3.64812, 2.11487 -3.66094, 1.98085 -3.66126 L 1.98085 -4.0819 C 2.40021 -4.06779, 2.8016 -4.06106, 3.18537 -4.06138, 3.23474 -4.05433, 3.28412 -4.0508, 3.33349 -4.05112, 3.66467 -4.0508, 4.00997 -4.06266, 4.36904 -4.08703 L 4.36904 -3.66126 Z" stroke="none" fill="#0080FF" transform="matrix(1.12 0 0 1 74.8502 16.3063)" />
			<rect />
		</svg>
	</g>
</svg>
