<?xml version="1.0"?>
<svg xmlns="http://www.w3.org/2000/svg" xmlns:xlink="http://www.w3.org/1999/xlink" width="374.0625" height="230">
	<defs>
		<marker id="CustomMarker-01" markerUnits="strokeWidth" markerWidth="15.000001" markerHeight="9" viewBox="-15 -4.5 15 9" orient="auto-start-reverse">
			<path d="M 0 -0 L -10 -3, -8 -0.5, -8 0.5, -10 3 Z" fill="#E60000" stroke="#E60000" stroke-linejoin="round" />
		</marker>
		<marker id="CustomMarker-02" markerUnits="strokeWidth" markerWidth="15.000001" markerHeight="9" viewBox="-15 -4.5 15 9" orient="auto-start-reverse">
			<path d="M 0 -0 L -10 -3, -8 -0.5, -8 0.5, -10 3 Z" fill="#E60000" stroke="#E60000" stroke-linejoin="round" />
		</marker>
	</defs>
	<path d="M 0 -72.8765 L 0 -48.5833" fill="none" stroke="#000000" stroke-width="3.20000005" stroke-linecap="round" stroke-linejoin="round" transform="matrix(0.3125 -9.43724e-008 9.43724e-008 0.3125 314.728 175.673)" />
	<path d="M 0 72.8765 L 0 48.5833" fill="none" stroke="#000000" stroke-width="3.20000005" stroke-linecap="round" stroke-linejoin="round" transform="matrix(0.3125 -9.43724e-008 9.43724e-008 0.3125 314.728 175.673)" />
	<path d="M 48.5833 -0 C 48.5833 26.8318, 26.8318 48.5833, -0 48.5833, -26.8318 48.5833, -48.5833 26.8318, -48.5833 -0, -48.5833 -26.8318, -26.8318 -48.5833, -0 -48.5833, 26.8318 -48.5833, 48.5833 -26.8318, 48.5833 -0 Z" stroke="none" fill="#FFFFFF" transform="matrix(0.3125 -9.43724e-008 9.43724e-008 0.3125 314.728 175.673)" />
	<path d="M 48.5833 -0 C 48.5833 26.8318, 26.8318 48.5833, -0 48.5833, -26.8318 48.5833, -48.5833 26.8318, -48.5833 -0, -48.5833 -26.8318, -26.8318 -48.5833, -0 -48.5833, 26.8318 -48.5833, 48.5833 -26.8318, 48.5833 -0 Z" fill="none" stroke="#000000" stroke-width="4.80000019" stroke-linecap="round" stroke-linejoin="round" transform="matrix(0.3125 -9.43724e-008 9.43724e-008 0.3125 314.728 175.673)" />
	<path d="M 0 -48.5833 L 0 48.5833" fill="none" stroke="#000000" stroke-width="3.20000005" stroke-linecap="round" stroke-linejoin="round" transform="matrix(0.3125 -9.43724e-008 9.43724e-008 0.3125 314.728 175.673)" />
	<path d="M 34.0083 -72.8765 L 63.1583 -72.8765" fill="none" stroke="#000000" stroke-width="3.20000005" stroke-linecap="round" stroke-linejoin="round" transform="matrix(0.3125 -9.43724e-008 9.43724e-008 0.3125 314.728 175.673)" />
	<path d="M 48.5833 -87.4515 L 48.5833 -58.3015" fill="none" stroke="#000000" stroke-width="3.20000005" stroke-linecap="round" stroke-linejoin="round" transform="matrix(0.3125 -9.43724e-008 9.43724e-008 0.3125 314.728 175.673)" />
	<path d="M 34.0083 72.8765 L 63.1583 72.8765" fill="none" stroke="#000000" stroke-width="3.20000005" stroke-linecap="round" stroke-linejoin="round" transform="matrix(0.3125 -9.43724e-008 9.43724e-008 0.3125 314.728 175.673)" />
	<path d="M 0 -97.1699 L 0 -68.0189" fill="none" stroke="#000000" stroke-width="3.20000005" stroke-linecap="round" stroke-linejoin="round" transform="matrix(2.35931e-008 0.3125 -0.3125 2.35931e-008 251.861 43.6644)" />
	<path d="M 0 68.0189 L 0 97.1699" fill="none" stroke="#000000" stroke-width="3.20000005" stroke-linecap="round" stroke-linejoin="round" transform="matrix(2.35931e-008 0.3125 -0.3125 2.35931e-008 251.861 43.6644)" />
	<path d="M 0 -68.0189 L -48.5839 0, 0 68.0189, 48.5839 0 Z" stroke="none" fill="#FFFFFF" transform="matrix(2.35931e-008 0.3125 -0.3125 2.35931e-008 251.861 43.6644)" />
	<path d="M 0 -68.0189 L -48.5839 0, 0 68.0189, 48.5839 0 Z" fill="none" stroke="#000000" stroke-width="4.80000019" stroke-linecap="round" stroke-linejoin="round" transform="matrix(2.35931e-008 0.3125 -0.3125 2.35931e-008 251.861 43.6644)" />
	<path d="M 0 -97.1699 L 0 97.1699" fill="none" stroke="#000000" stroke-width="3.20000005" stroke-linecap="round" stroke-linejoin="round" transform="matrix(2.35931e-008 0.3125 -0.3125 2.35931e-008 251.861 43.6644)" />
	<path d="M -63.1591 97.1699 L -34.0087 97.1699" fill="none" stroke="#000000" stroke-width="3.20000005" stroke-linecap="round" stroke-linejoin="round" transform="matrix(2.35931e-008 0.3125 -0.3125 2.35931e-008 251.861 43.6644)" />
	<path d="M -48.5839 82.5948 L -48.5839 111.745" fill="none" stroke="#000000" stroke-width="3.20000005" stroke-linecap="round" stroke-linejoin="round" transform="matrix(2.35931e-008 0.3125 -0.3125 2.35931e-008 251.861 43.6644)" />
	<path d="M -48.5839 -111.745 L -48.5839 -82.5948" fill="none" stroke="#000000" stroke-width="3.20000005" stroke-linecap="round" stroke-linejoin="round" transform="matrix(2.35931e-008 0.3125 -0.3125 2.35931e-008 251.861 43.6644)" />
	<path d="M 0 -97.1683 L 0 -68.0178" fill="none" stroke="#000000" stroke-width="3.20000005" stroke-linecap="round" stroke-linejoin="round" transform="matrix(0.3125 0 -0 0.3125 183.93 89.6376)" />
	<path d="M 0 68.0178 L 0 97.1683" fill="none" stroke="#000000" stroke-width="3.20000005" stroke-linecap="round" stroke-linejoin="round" transform="matrix(0.3125 0 -0 0.3125 183.93 89.6376)" />
	<path d="M 0 -68.0178 L -48.584 0, 0 68.0178, 48.584 0 Z" stroke="none" fill="#FFFFFF" transform="matrix(0.3125 0 -0 0.3125 183.93 89.6376)" />
	<path d="M 0 -68.0178 L -48.584 0, 0 68.0178, 48.584 0 Z" fill="none" stroke="#000000" stroke-width="4.80000019" stroke-linecap="round" stroke-linejoin="round" transform="matrix(0.3125 0 -0 0.3125 183.93 89.6376)" />
	<path d="M 0 -97.1683 L 0 97.1683" fill="none" stroke="#000000" stroke-width="3.20000005" stroke-linecap="round" stroke-linejoin="round" transform="matrix(0.3125 0 -0 0.3125 183.93 89.6376)" />
	<path d="M 34.0088 -97.1683 L 63.1592 -97.1683" fill="none" stroke="#000000" stroke-width="3.20000005" stroke-linecap="round" stroke-linejoin="round" transform="matrix(0.3125 0 -0 0.3125 183.93 89.6376)" />
	<path d="M 48.584 -111.744 L 48.584 -82.5931" fill="none" stroke="#000000" stroke-width="3.20000005" stroke-linecap="round" stroke-linejoin="round" transform="matrix(0.3125 0 -0 0.3125 183.93 89.6376)" />
	<path d="M 34.0088 97.1683 L 63.1592 97.1683" fill="none" stroke="#000000" stroke-width="3.20000005" stroke-linecap="round" stroke-linejoin="round" transform="matrix(0.3125 0 -0 0.3125 183.93 89.6376)" />
	<path d="M 0 -72.8765 L 0 -48.5831" fill="none" stroke="#000000" stroke-width="3.20000005" stroke-linecap="round" stroke-linejoin="round" transform="matrix(0.3125 -9.43724e-008 9.43724e-008 0.3125 59.7413 175.672)" />
	<path d="M 0 72.8765 L 0 48.5831" fill="none" stroke="#000000" stroke-width="3.20000005" stroke-linecap="round" stroke-linejoin="round" transform="matrix(0.3125 -9.43724e-008 9.43724e-008 0.3125 59.7413 175.672)" />
	<path d="M 48.5831 -0 C 48.5831 26.8317, 26.8317 48.5831, -0 48.5831, -26.8317 48.5831, -48.5831 26.8317, -48.5831 -0, -48.5831 -26.8317, -26.8317 -48.5831, -0 -48.5831, 26.8317 -48.5831, 48.5831 -26.8317, 48.5831 -0 Z" stroke="none" fill="#FFFFFF" transform="matrix(0.3125 -9.43724e-008 9.43724e-008 0.3125 59.7413 175.672)" />
	<path d="M 48.5831 -0 C 48.5831 26.8317, 26.8317 48.5831, -0 48.5831, -26.8317 48.5831, -48.5831 26.8317, -48.5831 -0, -48.5831 -26.8317, -26.8317 -48.5831, -0 -48.5831, 26.8317 -48.5831, 48.5831 -26.8317, 48.5831 -0 Z" fill="none" stroke="#000000" stroke-width="4.80000019" stroke-linecap="round" stroke-linejoin="round" transform="matrix(0.3125 -9.43724e-008 9.43724e-008 0.3125 59.7413 175.672)" />
	<path d="M 0 -48.5831 L 0 48.5831" fill="none" stroke="#000000" stroke-width="3.20000005" stroke-linecap="round" stroke-linejoin="round" transform="matrix(0.3125 -9.43724e-008 9.43724e-008 0.3125 59.7413 175.672)" />
	<path d="M -63.158 -72.8765 L -34.0081 -72.8765" fill="none" stroke="#000000" stroke-width="3.20000005" stroke-linecap="round" stroke-linejoin="round" transform="matrix(0.3125 -9.43724e-008 9.43724e-008 0.3125 59.7413 175.672)" />
	<path d="M -48.5831 -87.4514 L -48.5831 -58.3016" fill="none" stroke="#000000" stroke-width="3.20000005" stroke-linecap="round" stroke-linejoin="round" transform="matrix(0.3125 -9.43724e-008 9.43724e-008 0.3125 59.7413 175.672)" />
	<path d="M -63.158 72.8765 L -34.0081 72.8765" fill="none" stroke="#000000" stroke-width="3.20000005" stroke-linecap="round" stroke-linejoin="round" transform="matrix(0.3125 -9.43724e-008 9.43724e-008 0.3125 59.7413 175.672)" />
	<path d="M -407.979 -284.682 L 407.979 -284.682, 407.979 284.682, -407.979 284.682 Z" fill="none" stroke="#000000" stroke-width="4.26666689" stroke-linecap="round" stroke-linejoin="round" transform="matrix(0.3125 0 -0 0.3125 187.234 132.628)" />
	<path d="M -21.1097 -12.9009 L -21.1097 12.9009, 21.1097 0 Z" stroke="none" fill="#000000" transform="matrix(2.35931e-008 0.3125 0.3125 -2.35931e-008 183.93 203.533)" />
	<g transform="matrix(1 0 -0 1 194.992 192.267)">
		<svg width="44.9082985" height="54.1276474">
			<defs />
			<path d="M 8.72362 4.3115 C 8.7053 4.39165, 8.66294 4.45864, 8.59652 4.5136, 8.53011 4.56856, 8.44996 4.59604, 8.3555 4.59547, 8.06008 4.59604, 7.77097 4.60234, 7.48757 4.61436, 7.20475 4.62695, 7.00037 4.66016, 6.87442 4.71455, 6.74274 4.75806, 6.64484 4.91664, 6.58186 5.19088 L 3.93057 15.5144 C 3.90538 15.6312, 3.89278 15.7319, 3.89278 15.8167, 3.89278 15.9025, 3.90881 15.9546, 3.9403 15.9724, 4.02847 16.0279, 4.21053 16.06, 4.48762 16.0691, 4.76472 16.0783, 5.0567 16.0829, 5.36471 16.0823, 5.54104 16.0829, 5.62921 16.1562, 5.62921 16.3021, 5.62921 16.3394, 5.62291 16.3789, 5.61031 16.4212 L 5.57253 16.5678 C 5.50325 16.751, 5.3836 16.8426, 5.21356 16.8426, 4.40232 16.806, 3.58134 16.7876, 2.7512 16.7876, 1.92736 16.7876, 1.09092 16.806, 0.241318 16.8426, 0.0787248 16.8426, -0.0031441 16.7636, -0.0037166 16.6044 L -0.0037166 16.5311, 0.034069 16.3754 C 0.0850224 16.1745, 0.207539 16.0766, 0.402193 16.0823, 0.710203 16.0829, 1.00619 16.0783, 1.28901 16.0691, 1.57183 16.06, 1.77622 16.0279, 1.90217 15.9724, 2.01553 15.9117, 2.10713 15.7468, 2.17583 15.4777 L 4.84601 5.15423 C 4.8712 5.03859, 4.8838 4.94699, 4.8838 4.87943, 4.8838 4.7884, 4.86834 4.73058, 4.83628 4.70539, 4.73609 4.6573, 4.54774 4.62695, 4.27064 4.61436, 3.99355 4.60234, 3.70729 4.59604, 3.41188 4.59547, 3.23554 4.59604, 3.14738 4.5136, 3.14738 4.34814 L 3.14738 4.28402, 3.18516 4.11914 C 3.25444 3.93651, 3.37409 3.84491, 3.54355 3.84433, 4.36797 3.86952, 5.19524 3.88155, 6.02538 3.88097, 6.86239 3.88155, 7.69253 3.86952, 8.5158 3.84433, 8.60397 3.84491, 8.67954 3.87525, 8.74251 3.93593, 8.7677 3.98517, 8.7803 4.03097, 8.7803 4.07334, 8.7803 4.11055, 8.77114 4.14433, 8.75167 4.1741 Z" stroke="none" fill="#000000" />
			<path d="M 2.39138 3.19713 L -1.90858 3.19713, -1.90858 2.915 C -1.90858 2.8948, -1.898 2.86402, -1.87684 2.82266 L -0.149418 0.945196 C 0.0551279 0.71981, 0.261918 0.488975, 0.471594 0.253009, 0.68127 0.0170434, 0.868504 -0.224052, 1.03394 -0.470277, 1.19937 -0.716502, 1.33146 -0.970422, 1.4302 -1.23204, 1.52895 -1.49365, 1.578 -1.76809, 1.578 -2.05567, 1.578 -2.29805, 1.54658 -2.52472, 1.4831 -2.73503, 1.41962 -2.94535, 1.32825 -3.13002, 1.20835 -3.28904, 1.08844 -3.44806, 0.938716 -3.5763, 0.759177 -3.67377, 0.579638 -3.77123, 0.371886 -3.81996, 0.13592 -3.82028, -0.216105 -3.81996, -0.527092 -3.7148, -0.7964 -3.50449, -1.06571 -3.29417, -1.24461 -3.06237, -1.33277 -2.80974, -1.35009 -2.80268, -1.32187 -2.79915, -1.24813 -2.79948 L -1.15836 -2.79948 C -1.05256 -2.77511, -0.961191 -2.73824, -0.883605 -2.68887, -0.806018 -2.63917, -0.740935 -2.57088, -0.688036 -2.48368, -0.635136 -2.39647, -0.608846 -2.29132, -0.608846 -2.16852, -0.608846 -1.96302, -0.675532 -1.8056, -0.809545 -1.69627, -0.943558 -1.58663, -1.09328 -1.53212, -1.25871 -1.53244, -1.41709 -1.53212, -1.56489 -1.58663, -1.70243 -1.69627, -1.83965 -1.8056, -1.90858 -1.96302, -1.90858 -2.16852, -1.90858 -2.45547, -1.85215 -2.72734, -1.7393 -2.98382, -1.62645 -3.24031, -1.47352 -3.46249, -1.27987 -3.65068, -1.08623 -3.83856, -0.857315 -3.98732, -0.593136 -4.09697, -0.328958 -4.20629, -0.0487483 -4.26112, 0.24685 -4.26144, 0.612981 -4.26112, 0.948655 -4.20725, 1.25323 -4.09953, 1.55781 -3.99181, 1.8175 -3.83695, 2.0323 -3.63529, 2.24711 -3.43331, 2.41543 -3.19991, 2.53693 -2.93509, 2.65844 -2.66995, 2.71904 -2.37692, 2.71904 -2.05567, 2.71904 -1.6998, 2.63825 -1.37214, 2.47602 -1.07302, 2.31411 -0.77357, 2.11342 -0.499131, 1.87392 -0.2497, 1.63443 5.126e-005, 1.37987 0.235055, 1.11056 0.455632, 0.841252 0.676208, 0.597272 0.890693, 0.378939 1.09909 L -0.836155 2.24301, 0.754048 2.24301 C 0.975907 2.24333, 1.18302 2.24172, 1.37474 2.2382, 1.56678 2.23499, 1.72965 2.22794, 1.86334 2.21768, 1.99736 2.20742, 2.06597 2.20069, 2.06917 2.19684, 2.09738 2.17312, 2.12399 2.12534, 2.14868 2.05353, 2.17337 1.98171, 2.19613 1.89707, 2.21729 1.79961, 2.23845 1.70215, 2.25961 1.60308, 2.28077 1.50209, 2.30193 1.40142, 2.32117 1.29081, 2.3388 1.1709 L 2.72962 1.1709 Z" stroke="none" fill="#000000" transform="matrix(1.12 0 0 1 10.7319 16.3063)" />
			<rect />
		</svg>
	</g>
	<path d="M 0 -284.683 L 0 284.682" fill="none" stroke="#000000" stroke-width="4.26666689" stroke-linecap="round" stroke-linejoin="round" transform="matrix(0.3125 0 0 0.3125 183.93 132.628)" />
	<g transform="matrix(1 0 -0 1 197.784 148.085)">
		<svg width="60.1215858" height="54.1276474">
			<defs />
			<path d="M 12.9653 14.9922 C 12.8966 15.2676, 12.793 15.5378, 12.6545 15.8035, 12.5159 16.0691, 12.3465 16.309, 12.1449 16.5226, 11.9434 16.7367, 11.7184 16.9113, 11.47 17.0487, 11.2215 17.1861, 10.953 17.2548, 10.6633 17.2548, 9.75128 17.2548, 9.06541 17.0138, 8.60626 16.5311, 8.29195 16.202, 8.13451 15.7869, 8.13451 15.2854, 8.13451 15.0295, 8.17573 14.7518, 8.2576 14.4518 L 8.68183 12.8121 C 8.73221 12.6049, 8.7574 12.4097, 8.7574 12.2259, 8.7574 12.1348, 8.7511 12.0404, 8.73851 11.9419, 8.70072 11.686, 8.61313 11.4604, 8.47458 11.2646, 8.33603 11.0694, 8.15856 10.9154, 7.94158 10.802, 7.72459 10.6893, 7.46811 10.6326, 7.17212 10.632 L 5.0401 10.632, 3.78515 15.5144 C 3.75996 15.6312, 3.74737 15.7256, 3.74737 15.7983, 3.74737 15.8905, 3.76626 15.9518, 3.80405 15.9815, 3.88592 16.0308, 4.05595 16.06, 4.31358 16.0691, 4.57178 16.0783, 4.84831 16.0829, 5.14372 16.0823, 5.32005 16.0829, 5.40822 16.1562, 5.40822 16.3021, 5.40822 16.3394, 5.40192 16.3789, 5.38933 16.4212 L 5.35154 16.5678 C 5.28284 16.751, 5.15975 16.8426, 4.98342 16.8426, 4.20996 16.806, 3.4302 16.7876, 2.64357 16.7876, 1.85751 16.7876, 1.06802 16.806, 0.27567 16.8426, 0.106207 16.8426, 0.0151782 16.7636, 0.00201051 16.6044 L 0.00201051 16.5311, 0.0397962 16.3754 C 0.090177 16.1745, 0.212694 16.0766, 0.407347 16.0823, 0.703335 16.0829, 0.983292 16.0783, 1.24722 16.0691, 1.51172 16.06, 1.70637 16.0279, 1.83232 15.9724, 1.95198 15.906, 2.04301 15.7411, 2.10598 15.4777 L 4.75728 5.15423 C 4.79506 5.02027, 4.81338 4.91664, 4.81338 4.84279, 4.81338 4.77008, 4.79792 4.72714, 4.76644 4.71455, 4.67827 4.66016, 4.50709 4.62695, 4.25232 4.61436, 3.99756 4.60234, 3.71932 4.59604, 3.41703 4.59547, 3.24127 4.59604, 3.1531 4.5136, 3.1531 4.34814 L 3.1531 4.27486, 3.20978 4.11914 C 3.24757 3.93651, 3.36436 3.84491, 3.55901 3.84433 L 8.87076 3.84433 C 9.46846 3.84491, 10.0375 3.92448, 10.5786 4.08307, 11.1196 4.24223, 11.5913 4.50444, 11.9938 4.87027, 12.327 5.16397, 12.5692 5.52408, 12.7203 5.95117, 12.8148 6.18361, 12.8652 6.42521, 12.8709 6.67482, 12.8709 6.90154, 12.8365 7.12424, 12.7673 7.34351, 12.6482 7.83244, 12.3997 8.27556, 12.0219 8.67231, 11.6446 9.06963, 11.2198 9.40798, 10.748 9.68851, 10.4211 9.87859, 10.0896 10.036, 9.753 10.1608, 9.41636 10.2862, 9.17591 10.3641, 9.03106 10.3938, 9.38945 10.5347, 9.72952 10.8095, 10.0501 11.2183, 10.3209 11.5732, 10.456 11.9974, 10.456 12.4915, 10.456 12.5957, 10.4497 12.6999, 10.4371 12.803 L 10.2574 14.4518 C 10.2076 14.88, 10.1824 15.2522, 10.1824 15.5693, 10.1824 15.7777, 10.195 15.9609, 10.2202 16.1189, 10.2642 16.4796, 10.4526 16.66, 10.7858 16.6594, 11.0881 16.66, 11.3646 16.4968, 11.6165 16.1699, 11.8684 15.8436, 12.0539 15.4388, 12.173 14.9556, 12.2423 14.773, 12.3648 14.6842, 12.5411 14.69 L 12.6917 14.69 C 12.8617 14.6905, 12.9528 14.7701, 12.9653 14.9281 L 12.9653 14.9922 Z M 10.748 7.28855 C 10.8488 6.92272, 10.9055 6.55631, 10.9181 6.18933 L 10.9181 6.13437 C 10.9181 5.8235, 10.8207 5.55499, 10.6255 5.32828, 10.3931 5.06034, 10.0896 4.87084, 9.71521 4.76092, 9.34079 4.651, 8.9303 4.59604, 8.48374 4.59547 L 7.2288 4.59547 C 6.9082 4.59604, 6.7164 4.62066, 6.65343 4.66932, 6.59045 4.71856, 6.52461 4.89203, 6.45534 5.19088 L 5.21013 10.0366, 7.03071 10.0366 C 7.47727 10.0372, 7.9181 9.98221, 8.35207 9.87229, 8.78603 9.76237, 9.19823 9.56714, 9.58754 9.28547, 9.92131 9.04787, 10.1732 8.74902, 10.3427 8.38834, 10.5127 8.02823, 10.6478 7.66183, 10.748 7.28855 Z" stroke="none" fill="#000000" />
			<path d="M 2.39138 3.19713 L -1.90858 3.19713, -1.90858 2.915 C -1.90858 2.8948, -1.898 2.86402, -1.87684 2.82266 L -0.149418 0.945196 C 0.0551279 0.71981, 0.261918 0.488975, 0.471594 0.253009, 0.68127 0.0170434, 0.868504 -0.224052, 1.03394 -0.470277, 1.19937 -0.716502, 1.33146 -0.970422, 1.4302 -1.23204, 1.52895 -1.49365, 1.578 -1.76809, 1.578 -2.05567, 1.578 -2.29805, 1.54658 -2.52472, 1.4831 -2.73503, 1.41962 -2.94535, 1.32825 -3.13002, 1.20835 -3.28904, 1.08844 -3.44806, 0.938716 -3.5763, 0.759177 -3.67377, 0.579638 -3.77123, 0.371886 -3.81996, 0.13592 -3.82028, -0.216105 -3.81996, -0.527092 -3.7148, -0.7964 -3.50449, -1.06571 -3.29417, -1.24461 -3.06237, -1.33277 -2.80974, -1.35009 -2.80268, -1.32187 -2.79915, -1.24813 -2.79948 L -1.15836 -2.79948 C -1.05256 -2.77511, -0.961191 -2.73824, -0.883605 -2.68887, -0.806018 -2.63917, -0.740935 -2.57088, -0.688036 -2.48368, -0.635136 -2.39647, -0.608846 -2.29132, -0.608846 -2.16852, -0.608846 -1.96302, -0.675532 -1.8056, -0.809545 -1.69627, -0.943558 -1.58663, -1.09328 -1.53212, -1.25871 -1.53244, -1.41709 -1.53212, -1.56489 -1.58663, -1.70243 -1.69627, -1.83965 -1.8056, -1.90858 -1.96302, -1.90858 -2.16852, -1.90858 -2.45547, -1.85215 -2.72734, -1.7393 -2.98382, -1.62645 -3.24031, -1.47352 -3.46249, -1.27987 -3.65068, -1.08623 -3.83856, -0.857315 -3.98732, -0.593136 -4.09697, -0.328958 -4.20629, -0.0487483 -4.26112, 0.24685 -4.26144, 0.612981 -4.26112, 0.948655 -4.20725, 1.25323 -4.09953, 1.55781 -3.99181, 1.8175 -3.83695, 2.0323 -3.63529, 2.24711 -3.43331, 2.41543 -3.19991, 2.53693 -2.93509, 2.65844 -2.66995, 2.71904 -2.37692, 2.71904 -2.05567, 2.71904 -1.6998, 2.63825 -1.37214, 2.47602 -1.07302, 2.31411 -0.77357, 2.11342 -0.499131, 1.87392 -0.2497, 1.63443 5.126e-005, 1.37987 0.235055, 1.11056 0.455632, 0.841252 0.676208, 0.597272 0.890693, 0.378939 1.09909 L -0.836155 2.24301, 0.754048 2.24301 C 0.975907 2.24333, 1.18302 2.24172, 1.37474 2.2382, 1.56678 2.23499, 1.72965 2.22794, 1.86334 2.21768, 1.99736 2.20742, 2.06597 2.20069, 2.06917 2.19684, 2.09738 2.17312, 2.12399 2.12534, 2.14868 2.05353, 2.17337 1.98171, 2.19613 1.89707, 2.21729 1.79961, 2.23845 1.70215, 2.25961 1.60308, 2.28077 1.50209, 2.30193 1.40142, 2.32117 1.29081, 2.3388 1.1709 L 2.72962 1.1709 Z" stroke="none" fill="#000000" transform="matrix(1.12 0 0 1 15.8492 16.3063)" />
			<rect />
		</svg>
	</g>
	<path d="M -58.3012 -14.5752 L 58.3012 -14.5752, 58.3012 14.5752, -58.3012 14.5752 Z" stroke="none" fill="#FFFFFF" transform="matrix(2.35931e-008 0.3125 -0.3125 2.35931e-008 183.93 159.202)" />
	<path d="M -58.3012 -14.5752 L 58.3012 -14.5752, 58.3012 14.5752, -58.3012 14.5752 Z" fill="none" stroke="#000000" stroke-width="4.80000019" stroke-linecap="round" stroke-linejoin="round" transform="matrix(2.35931e-008 0.3125 -0.3125 2.35931e-008 183.93 159.202)" />
	<g transform="matrix(1 0 -0 1 9.26892 164.407)">
		<svg width="77.9182587" height="54.1276474">
			<defs />
			<path d="M 12.7097 4.3115 C 12.6908 4.39738, 12.645 4.46665, 12.5729 4.51818, 12.5008 4.57028, 12.4235 4.59604, 12.3416 4.59547, 12.1155 4.59604, 11.8956 4.61321, 11.6815 4.64642, 11.4674 4.6802, 11.2693 4.76092, 11.0867 4.88859, 10.9361 4.98076, 10.8164 5.10156, 10.7283 5.25099, 10.6401 5.40099, 10.5743 5.56072, 10.5302 5.73133 L 8.78459 12.4915 C 8.62143 13.103, 8.37124 13.6938, 8.0346 14.2646, 7.69797 14.8359, 7.26859 15.3621, 6.74646 15.8441, 6.2873 16.2661, 5.77834 16.6067, 5.21843 16.8655, 4.65851 17.1254, 4.08944 17.2548, 3.51063 17.2548, 2.88202 17.2548, 2.32038 17.13, 1.82631 16.8792, 1.3328 16.6296, 0.934911 16.2873, 0.632625 15.8533, 0.299425 15.3896, 0.101336 14.8617, 0.0383604 14.2686, 0.0131699 14.0923, 0.000574708 13.9056, 0.000574708 13.7098, 0.000574708 13.301, 0.0509556 12.8831, 0.151717 12.4549 L 2.04787 5.15423 C 2.07306 5.03859, 2.08566 4.94699, 2.08566 4.87943, 2.08566 4.7884, 2.06676 4.73058, 2.02898 4.70539, 1.94768 4.6573, 1.77764 4.62695, 1.52002 4.61436, 1.26239 4.60234, 0.985291 4.59604, 0.689304 4.59547, 0.595412 4.59604, 0.526139 4.56569, 0.482055 4.50386, 0.44427 4.4678, 0.425377 4.422, 0.425377 4.36646, 0.425377 4.33039, 0.43511 4.29662, 0.45343 4.2657 L 0.482055 4.11914 C 0.551329 3.93651, 0.673846 3.84491, 0.849607 3.84433, 1.63623 3.86952, 2.42859 3.88155, 3.22724 3.88097, 4.02646 3.88155, 4.82511 3.86952, 5.62377 3.84433, 5.8001 3.84491, 5.88826 3.92735, 5.88826 4.09166 L 5.88826 4.16494, 5.83159 4.32066 C 5.7938 4.50444, 5.67758 4.59604, 5.48236 4.59547, 5.18694 4.59604, 4.90756 4.60234, 4.64306 4.61436, 4.37856 4.62695, 4.18677 4.65901, 4.06711 4.71054, 3.94803 4.76264, 3.85357 4.92294, 3.78429 5.19088 L 1.90646 12.4915 C 1.76219 13.0297, 1.67688 13.5455, 1.65169 14.0396, 1.6391 14.1134, 1.6328 14.1867, 1.6328 14.2594, 1.6328 14.6751, 1.71467 15.0569, 1.87841 15.4045, 2.04214 15.7348, 2.2763 16.0021, 2.58145 16.2065, 2.8866 16.4115, 3.24327 16.5134, 3.65204 16.5128, 4.10547 16.5134, 4.56004 16.4098, 5.01576 16.202, 5.47148 15.9947, 5.89456 15.7136, 6.28444 15.3586, 6.731 14.9625, 7.09454 14.5108, 7.3745 14.0035, 7.65446 13.4968, 7.86342 12.9804, 8.0014 12.4549 L 9.73782 5.67636 C 9.77561 5.56701, 9.79393 5.4508, 9.79393 5.32828 L 9.79393 5.20004 C 9.77561 5.07237, 9.72179 4.96531, 9.63362 4.87943, 9.50195 4.75176, 9.34622 4.67275, 9.16703 4.64184, 8.98783 4.6115, 8.77887 4.59604, 8.53956 4.59547, 8.44509 4.59604, 8.37582 4.56856, 8.33174 4.51302, 8.28823 4.47066, 8.2659 4.422, 8.2659 4.36646, 8.2659 4.33039, 8.27563 4.29375, 8.29395 4.25654 L 8.33174 4.1283 C 8.3512 4.04929, 8.39357 3.98231, 8.45941 3.92735, 8.52582 3.87239, 8.60253 3.84491, 8.69013 3.84433, 9.31932 3.86952, 9.95137 3.88155, 10.5869 3.88097, 11.216 3.88155, 11.8544 3.86952, 12.5019 3.84433, 12.5901 3.84491, 12.6656 3.87525, 12.7286 3.93593, 12.7538 3.98517, 12.7664 4.03097, 12.7664 4.07334, 12.7664 4.11055, 12.7572 4.14433, 12.7378 4.1741 Z" stroke="none" fill="#000000" />
			<path d="M 3.1529 -1.74789 C 3.13174 -1.65171, 3.07916 -1.60394, 2.99452 -1.60426, 2.98746 -1.59721, 2.96983 -1.59368, 2.94162 -1.594, 2.9243 -1.59368, 2.9102 -1.59721, 2.8993 -1.60426 L 2.85185 -1.60426 C 2.76047 -1.60394, 2.71463 -1.63824, 2.71463 -1.70685 L 2.71463 -1.74276 C 2.75695 -1.9954, 2.77779 -2.22976, 2.77779 -2.44553 L 2.77779 -2.64046 C 2.75663 -2.90335, 2.69764 -3.13002, 2.60081 -3.31982, 2.50399 -3.50962, 2.36228 -3.65645, 2.17569 -3.76097, 1.9891 -3.86517, 1.75313 -3.91743, 1.46779 -3.91775, 1.30236 -3.91743, 1.13436 -3.88152, 0.963481 -3.8097, 0.792599 -3.73789, 0.633258 -3.64042, 0.485138 -3.51763, 0.323553 -3.38394, 0.191463 -3.23261, 0.0891902 -3.06333, -0.0127623 -2.89405, -0.086822 -2.72061, -0.132669 -2.54299, -0.167935 -2.41603, -0.187172 -2.29484, -0.191019 -2.17878, -0.191019 -2.01784, -0.155752 -1.86395, -0.0852191 -1.71711, 0.0170541 -1.47057, 0.20012 -1.31315, 0.464299 -1.24518 L 1.67907 -0.906621 C 1.90093 -0.841218, 2.09041 -0.737662, 2.24719 -0.595954, 2.40396 -0.453926, 2.52194 -0.28625, 2.60113 -0.093245, 2.68032 0.10008, 2.72681 0.311038, 2.74092 0.539951 L 2.74092 0.632285 C 2.74092 0.83106, 2.7127 1.03432, 2.65628 1.24272, 2.58254 1.5303, 2.46456 1.8073, 2.30233 2.07405, 2.14042 2.34079, 1.93972 2.58028, 1.70023 2.79188, 1.47132 2.98713, 1.22061 3.14359, 0.947451 3.26125, 0.674616 3.37923, 0.400819 3.43822, 0.12606 3.43822, -0.278865 3.43822, -0.623836 3.37346, -0.909175 3.2433, -1.19451 3.11377, -1.40579 2.94962, -1.54333 2.75085 L -2.06624 3.37154 C -2.11177 3.4161, -2.15954 3.43822, -2.20891 3.43822 L -2.24033 3.43822 C -2.32818 3.43822, -2.37595 3.40424, -2.383 3.33563, -2.383 3.31511, -2.37755 3.29652, -2.36729 3.2792 L -1.75461 0.87851 C -1.73345 0.78297, -1.67157 0.733596, -1.56962 0.729749 L -1.45324 0.729749 C -1.41092 0.73007, -1.37245 0.747062, -1.33718 0.781046, -1.32308 0.808618, -1.31602 0.832664, -1.31602 0.852862, -1.31602 0.866968, -1.31955 0.88396, -1.3266 0.904159, -1.39008 1.1507, -1.42182 1.37994, -1.42182 1.59154, -1.42182 1.93042, -1.33879 2.21768, -1.17335 2.45332, -0.909175 2.83324, -0.447824 3.02304, 0.2107 3.02272, 0.376132 3.02304, 0.54445 2.98457, 0.715012 2.90762, 0.885895 2.83068, 1.04524 2.72712, 1.19303 2.59696, 1.35526 2.44691, 1.49152 2.2802, 1.60245 2.09713, 1.71338 1.91439, 1.79545 1.72523, 1.84803 1.52998, 1.8833 1.37288, 1.90093 1.22605, 1.90093 1.08883, 1.90093 0.918265, 1.87817 0.754115, 1.83232 0.596377, 1.72684 0.333481, 1.53127 0.164201, 1.24593 0.0885382 L 0.0468702 -0.250021 C -0.167935 -0.30773, -0.352604 -0.402629, -0.507777 -0.534398, -0.66263 -0.665846, -0.783177 -0.822302, -0.86942 -1.00376, -0.955663 -1.18491, -1.006 -1.38496, -1.0201 -1.60426 L -1.0201 -1.71711 C -1.0201 -1.88767, -0.998945 -2.06721, -0.956945 -2.25573, -0.882885 -2.52889, -0.764903 -2.7905, -0.602997 -3.04025, -0.440771 -3.28968, -0.240072 -3.51058, -0.000579357 -3.7023, 0.224806 -3.88665, 0.472314 -4.03445, 0.741622 -4.1457, 1.01093 -4.25663, 1.27767 -4.31241, 1.54185 -4.31273, 1.90478 -4.31241, 2.2039 -4.24477, 2.43987 -4.10979, 2.67584 -3.9745, 2.84672 -3.81483, 2.9522 -3.63049 L 3.45939 -4.24092 C 3.48761 -4.28837, 3.53345 -4.31241, 3.59661 -4.31273 L 3.64406 -4.31273 C 3.7287 -4.31241, 3.77102 -4.27138, 3.77102 -4.18962 L 3.77102 -4.14858 Z" stroke="none" fill="#000000" transform="matrix(1.12 0 0 1 14.6262 16.3063)" />
			<path d="M 2.37656 3.19713 C 1.72861 3.17661, 1.09798 3.16635, 0.484983 3.16635, -0.127694 3.16635, -0.758325 3.17661, -1.40659 3.19713 L -1.40659 2.75598, -1.04174 2.75598 C -0.925681 2.7563, -0.816354 2.75469, -0.714401 2.75117, -0.612128 2.74796, -0.515306 2.7393, -0.423612 2.72552, -0.331919 2.71205, -0.25273 2.69827, -0.186044 2.68416, -0.129617 2.67422, -0.0828087 2.6428, -0.0459392 2.58958, -0.00874901 2.53668, 0.00952554 2.47769, 0.00952554 2.41229 L 0.00952554 -3.36887 C -0.166487 -3.28295, -0.383216 -3.21787, -0.640342 -3.17362, -0.897467 -3.12906, -1.17928 -3.10694, -1.48578 -3.10726 L -1.48578 -3.54328 C -1.0629 -3.54296, -0.672723 -3.59329, -0.315248 -3.69429, 0.0422273 -3.79496, 0.351291 -3.98411, 0.611943 -4.26144 L 0.775773 -4.26144 C 0.891832 -4.26112, 0.949861 -4.20469, 0.949861 -4.09216 L 0.949861 2.41229 C 0.949861 2.4809, 0.967495 2.54085, 1.00276 2.59215, 1.03803 2.64344, 1.08932 2.67422, 1.15601 2.68416, 1.21244 2.69827, 1.28489 2.71205, 1.37274 2.72552, 1.46091 2.7393, 1.56029 2.74796, 1.67122 2.75117, 1.78215 2.75469, 1.89052 2.7563, 1.996 2.75598 L 2.37656 2.75598, 2.37656 3.19713 Z" stroke="none" fill="#000000" transform="matrix(1.12 0 0 1 22.1857 16.3063)" />
			<rect />
		</svg>
	</g>
	<g transform="matrix(1 0 -0 1 207.39 78.3722)">
		<svg width="89.9740677" height="54.1276474">
			<defs />
			<path d="M 11.0259 9.57859 C 10.7997 10.4339, 10.4791 11.2589, 10.064 12.0524, 9.64898 12.8465, 9.15834 13.5667, 8.59212 14.2136, 8.59212 14.5136, 8.59842 14.8039, 8.61102 15.0844, 8.62361 15.3655, 8.65224 15.6111, 8.69575 15.8218, 8.73983 16.0325, 8.79651 16.1899, 8.86578 16.2936, 8.93506 16.3978, 9.02609 16.4493, 9.13887 16.4487, 9.34669 16.4493, 9.54478 16.3668, 9.73371 16.202, 9.92264 16.0371, 10.0452 15.8384, 10.1013 15.606, 10.139 15.4354, 10.2495 15.3501, 10.4316 15.3495 L 10.5444 15.3495 C 10.6892 15.3501, 10.7677 15.4233, 10.7803 15.5693 L 10.7803 15.6335 C 10.7367 15.8293, 10.6583 16.013, 10.545 16.1836, 10.4316 16.3548, 10.2948 16.506, 10.1345 16.6371, 9.97416 16.7682, 9.80012 16.8701, 9.61119 16.9434, 9.42226 17.0166, 9.22418 17.0533, 9.01635 17.0533, 8.46961 17.0533, 8.05454 16.889, 7.77172 16.5592, 7.4889 16.2294, 7.30627 15.8842, 7.2244 15.5235, 6.67708 15.9701, 6.05133 16.3365, 5.34714 16.6233, 4.64295 16.9102, 3.91014 17.0533, 3.14927 17.0533, 2.59623 17.0533, 2.09299 16.9405, 1.64014 16.7149, 1.18728 16.4894, 0.828892 16.1653, 0.564393 15.7434, 0.281573 15.3346, 0.105813 14.8617, 0.0365389 14.3236, 0.0113484 14.1713, -0.00124675 14.0064, -0.00124675 13.8289, -0.00124675 13.4631, 0.0525692 13.0846, 0.159056 12.693, 0.310199 12.1257, 0.550653 11.5807, 0.880418 11.0585, 1.21076 10.5364, 1.62125 10.0647, 2.11131 9.64271, 2.58993 9.25226, 3.10691 8.94253, 3.66339 8.71353, 4.21987 8.48452, 4.7752 8.37002, 5.32825 8.36945, 5.85667 8.37002, 6.32384 8.46964, 6.72918 8.66773, 7.13451 8.86639, 7.47745 9.13375, 7.75741 9.46924, 8.03736 9.8053, 8.24633 10.1975, 8.38488 10.6463, 8.52342 11.0952, 8.59212 11.5669, 8.59212 12.061 L 8.59212 13.2701 C 8.92533 12.8373, 9.2591 12.2848, 9.5923 11.6127, 9.9255 10.9412, 10.1803 10.2542, 10.356 9.55111, 10.3938 9.3805, 10.5043 9.29234, 10.6864 9.28547 L 10.7803 9.28547 C 10.944 9.28604, 11.0259 9.35932, 11.0259 9.50531 L 11.0259 9.57859 Z M 7.10131 14.8732 C 7.09558 14.8308, 7.08929 14.7672, 7.08299 14.6814, 7.07669 14.5961, 7.07326 14.5102, 7.07326 14.4243 L 7.07326 12.3633 C 7.07326 11.9179, 7.04349 11.4925, 6.98394 11.086, 6.9244 10.6801, 6.8265 10.3183, 6.69139 10.0005, 6.55628 9.68336, 6.37079 9.43432, 6.13491 9.25398, 5.89904 9.07421, 5.59275 8.98375, 5.21489 8.98318, 4.8628 8.98375, 4.50727 9.07707, 4.14888 9.26314, 3.79049 9.44978, 3.46988 9.70454, 3.18706 10.0274, 2.83497 10.419, 2.56589 10.845, 2.38039 11.3059, 2.1949 11.7673, 2.03918 12.2448, 1.91323 12.7388, 1.78785 13.2278, 1.69682 13.6984, 1.64014 14.1495, 1.62754 14.2663, 1.62125 14.3819, 1.62125 14.4976, 1.62125 14.8216, 1.67506 15.1331, 1.78155 15.4319, 1.9012 15.7377, 2.0867 15.9838, 2.33803 16.1699, 2.58993 16.3565, 2.89164 16.4493, 3.24374 16.4487, 3.95422 16.4493, 4.6378 16.309, 5.29504 16.0279, 5.95228 15.7474, 6.55456 15.3621, 7.10131 14.8732 Z" stroke="none" fill="#000000" />
			<path d="M 24.8282 4.3115 C 24.8093 4.39738, 24.7635 4.46665, 24.6914 4.51818, 24.6192 4.57028, 24.542 4.59604, 24.4601 4.59547, 24.2339 4.59604, 24.0141 4.61321, 23.8 4.64642, 23.5859 4.6802, 23.3878 4.76092, 23.2052 4.88859, 23.0546 4.98076, 22.9349 5.10156, 22.8468 5.25099, 22.7586 5.40099, 22.6928 5.56072, 22.6487 5.73133 L 20.9031 12.4915 C 20.7399 13.103, 20.4897 13.6938, 20.1531 14.2646, 19.8165 14.8359, 19.3871 15.3621, 18.865 15.8441, 18.4058 16.2661, 17.8968 16.6067, 17.3369 16.8655, 16.777 17.1254, 16.2079 17.2548, 15.6291 17.2548, 15.0005 17.2548, 14.4389 17.13, 13.9448 16.8792, 13.4513 16.6296, 13.0534 16.2873, 12.7511 15.8533, 12.4179 15.3896, 12.2198 14.8617, 12.1569 14.2686, 12.1317 14.0923, 12.1191 13.9056, 12.1191 13.7098, 12.1191 13.301, 12.1695 12.8831, 12.2702 12.4549 L 14.1664 5.15423 C 14.1916 5.03859, 14.2042 4.94699, 14.2042 4.87943, 14.2042 4.7884, 14.1853 4.73058, 14.1475 4.70539, 14.0662 4.6573, 13.8961 4.62695, 13.6385 4.61436, 13.3809 4.60234, 13.1038 4.59604, 12.8078 4.59547, 12.7139 4.59604, 12.6446 4.56569, 12.6006 4.50386, 12.5628 4.4678, 12.5439 4.422, 12.5439 4.36646, 12.5439 4.33039, 12.5536 4.29662, 12.5719 4.2657 L 12.6006 4.11914 C 12.6698 3.93651, 12.7923 3.84491, 12.9681 3.84433, 13.7547 3.86952, 14.5471 3.88155, 15.3457 3.88097, 16.145 3.88155, 16.9436 3.86952, 17.7423 3.84433, 17.9186 3.84491, 18.0068 3.92735, 18.0068 4.09166 L 18.0068 4.16494, 17.9501 4.32066 C 17.9123 4.50444, 17.7961 4.59604, 17.6009 4.59547, 17.3054 4.59604, 17.0261 4.60234, 16.7616 4.61436, 16.4971 4.62695, 16.3053 4.65901, 16.1856 4.71054, 16.0665 4.76264, 15.9721 4.92294, 15.9028 5.19088 L 14.025 12.4915 C 13.8807 13.0297, 13.7954 13.5455, 13.7702 14.0396, 13.7576 14.1134, 13.7513 14.1867, 13.7513 14.2594, 13.7513 14.6751, 13.8332 15.0569, 13.9969 15.4045, 14.1606 15.7348, 14.3948 16.0021, 14.6999 16.2065, 15.0051 16.4115, 15.3618 16.5134, 15.7705 16.5128, 16.224 16.5134, 16.6785 16.4098, 17.1343 16.202, 17.59 15.9947, 18.0131 15.7136, 18.4029 15.3586, 18.8495 14.9625, 19.213 14.5108, 19.493 14.0035, 19.773 13.4968, 19.9819 12.9804, 20.1199 12.4549 L 21.8563 5.67636 C 21.8941 5.56701, 21.9124 5.4508, 21.9124 5.32828 L 21.9124 5.20004 C 21.8941 5.07237, 21.8403 4.96531, 21.7521 4.87943, 21.6204 4.75176, 21.4647 4.67275, 21.2855 4.64184, 21.1063 4.6115, 20.8974 4.59604, 20.6581 4.59547, 20.5636 4.59604, 20.4943 4.56856, 20.4502 4.51302, 20.4067 4.47066, 20.3844 4.422, 20.3844 4.36646, 20.3844 4.33039, 20.3941 4.29375, 20.4124 4.25654 L 20.4502 4.1283 C 20.4697 4.04929, 20.5121 3.98231, 20.5779 3.92735, 20.6443 3.87239, 20.721 3.84491, 20.8086 3.84433, 21.4378 3.86952, 22.0699 3.88155, 22.7053 3.88097, 23.3345 3.88155, 23.9729 3.86952, 24.6204 3.84433, 24.7086 3.84491, 24.7841 3.87525, 24.8471 3.93593, 24.8723 3.98517, 24.8849 4.03097, 24.8849 4.07334, 24.8849 4.11055, 24.8757 4.14433, 24.8563 4.1741 Z" stroke="none" fill="#000000" />
			<path d="M 2.37714 3.19713 C 1.7292 3.17661, 1.09857 3.16635, 0.485571 3.16635, -0.127106 3.16635, -0.757737 3.17661, -1.406 3.19713 L -1.406 2.75598, -1.04115 2.75598 C -0.925093 2.7563, -0.815766 2.75469, -0.713814 2.75117, -0.611541 2.74796, -0.514718 2.7393, -0.423025 2.72552, -0.331331 2.71205, -0.252142 2.69827, -0.185456 2.68416, -0.12903 2.67422, -0.082221 2.6428, -0.0453515 2.58958, -0.00816131 2.53668, 0.0101132 2.47769, 0.0101132 2.41229 L 0.0101132 -3.36887 C -0.165899 -3.28295, -0.382628 -3.21787, -0.639754 -3.17362, -0.89688 -3.12906, -1.17869 -3.10694, -1.48519 -3.10726 L -1.48519 -3.54328 C -1.06231 -3.54296, -0.672135 -3.59329, -0.31466 -3.69429, 0.042815 -3.79496, 0.351879 -3.98411, 0.612531 -4.26144 L 0.77636 -4.26144 C 0.89242 -4.26112, 0.950449 -4.20469, 0.950449 -4.09216 L 0.950449 2.41229 C 0.950449 2.4809, 0.968082 2.54085, 1.00335 2.59215, 1.03862 2.64344, 1.08991 2.67422, 1.1566 2.68416, 1.21302 2.69827, 1.28548 2.71205, 1.37333 2.72552, 1.46149 2.7393, 1.56088 2.74796, 1.67181 2.75117, 1.78274 2.75469, 1.89111 2.7563, 1.99658 2.75598 L 2.37714 2.75598, 2.37714 3.19713 Z" stroke="none" fill="#000000" transform="matrix(1.12 0 0 1 26.3284 16.3063)" />
			<rect />
		</svg>
	</g>
	<g transform="matrix(1 0 -0 1 241.036 2.03408)">
		<svg width="69.0199203" height="54.1276474">
			<defs />
			<path d="M 7.99099 9.90836 C 7.92229 10.1774, 7.78202 10.3807, 7.57134 10.5181, 7.36066 10.6555, 7.14883 10.7242, 6.93471 10.7236, 6.71486 10.7242, 6.53223 10.6538, 6.38739 10.5129, 6.26831 10.4156, 6.20819 10.2816, 6.20819 10.1099, 6.20819 10.0251, 6.22079 9.93927, 6.24598 9.8534, 6.30266 9.64042, 6.4017 9.47268, 6.54311 9.35016, 6.68452 9.22822, 6.78013 9.16066, 6.83051 9.14806, 6.68624 9.03871, 6.38739 8.98375, 5.93453 8.98318, 5.45706 8.98375, 5.03111 9.17783, 4.65669 9.56542, 4.28227 9.95358, 3.94449 10.4769, 3.6422 11.1358 L 2.27448 16.3754 C 2.21837 16.6021, 2.1033 16.771, 1.9304 16.8838, 1.7575 16.9972, 1.58289 17.0533, 1.40655 17.0533, 1.2182 17.0533, 1.07335 16.9926, 0.972591 16.8701, 0.891295 16.7911, 0.850074 16.6811, 0.850074 16.5403, 0.850074 16.4859, 0.856372 16.4189, 0.868967 16.3388 L 2.32142 10.6686 C 2.42219 10.2725, 2.47257 9.93011, 2.47257 9.64271 L 2.47257 9.42287 C 2.44165 9.13032, 2.29394 8.98375, 2.02944 8.98318, 1.75292 8.98375, 1.52163 9.20703, 1.33614 9.65244, 1.15064 10.0984, 0.969729 10.6784, 0.793396 11.3923, 0.724695 11.5578, 0.608475 11.6431, 0.444738 11.6488 L 0.227756 11.6488 C 0.0766138 11.6494, 0.00104246 11.5732, 0.00104246 11.4198 L 0.00104246 11.3557 C 0.0766138 11.0694, 0.161918 10.7562, 0.255809 10.4173, 0.350273 10.0784, 0.476226 9.75779, 0.633093 9.4555, 0.790533 9.15322, 0.988622 8.89673, 1.22736 8.68605, 1.46667 8.47536, 1.76494 8.37002, 2.12334 8.36945, 2.60195 8.37002, 2.98725 8.50628, 3.27923 8.77765, 3.57179 9.04959, 3.73667 9.31638, 3.77445 9.57859, 3.99487 9.28604, 4.30174 9.01123, 4.69448 8.75475, 5.08722 8.49827, 5.53836 8.37002, 6.04789 8.36945, 6.29979 8.37002, 6.55571 8.39636, 6.81677 8.44788, 7.07784 8.49998, 7.30684 8.58529, 7.50493 8.70437, 7.70302 8.82345, 7.84958 8.98089, 7.94404 9.17554, 8.00072 9.29806, 8.03221 9.43546, 8.03793 9.58775, 8.03793 9.67992, 8.02248 9.78698, 7.99099 9.90836 Z" stroke="none" fill="#000000" />
			<path d="M 16.7032 4.3115 C 16.6843 4.39165, 16.6419 4.45864, 16.5755 4.5136, 16.5097 4.56856, 16.4295 4.59604, 16.335 4.59547, 16.0396 4.59604, 15.7505 4.60234, 15.4677 4.61436, 15.1849 4.62695, 14.9799 4.66016, 14.854 4.71455, 14.7223 4.75806, 14.6249 4.91664, 14.562 5.19088 L 11.9113 15.5144 C 11.8861 15.6312, 11.8735 15.7319, 11.8735 15.8167, 11.8735 15.9025, 11.8895 15.9546, 11.9204 15.9724, 12.0086 16.0279, 12.1912 16.06, 12.4677 16.0691, 12.7448 16.0783, 13.0368 16.0829, 13.3448 16.0823, 13.5212 16.0829, 13.6093 16.1562, 13.6093 16.3021, 13.6093 16.3394, 13.603 16.3789, 13.5904 16.4212 L 13.5526 16.5678 C 13.4834 16.751, 13.3637 16.8426, 13.1942 16.8426, 12.383 16.806, 11.562 16.7876, 10.7319 16.7876, 9.90861 16.7876, 9.07218 16.806, 8.22257 16.8426, 8.05998 16.8426, 7.97811 16.7636, 7.97754 16.6044 L 7.97754 16.5311, 8.01532 16.3754 C 8.06628 16.1745, 8.1888 16.0766, 8.38345 16.0823, 8.69146 16.0829, 8.98745 16.0783, 9.27027 16.0691, 9.55309 16.06, 9.75747 16.0279, 9.88285 15.9724, 9.99621 15.9117, 10.0878 15.7468, 10.1565 15.4777 L 12.8261 5.15423 C 12.8513 5.03859, 12.8639 4.94699, 12.8639 4.87943, 12.8639 4.7884, 12.8485 4.73058, 12.817 4.70539, 12.7162 4.6573, 12.5278 4.62695, 12.2508 4.61436, 11.9742 4.60234, 11.688 4.59604, 11.3926 4.59547, 11.2162 4.59604, 11.1281 4.5136, 11.1281 4.34814 L 11.1281 4.28402, 11.1658 4.11914 C 11.2351 3.93651, 11.3548 3.84491, 11.5242 3.84433, 12.3487 3.86952, 13.1754 3.88155, 14.0055 3.88097, 14.8419 3.88155, 15.6721 3.86952, 16.4953 3.84433, 16.5835 3.84491, 16.6591 3.87525, 16.7221 3.93593, 16.7472 3.98517, 16.7598 4.03097, 16.7598 4.07334, 16.7598 4.11055, 16.7507 4.14433, 16.7312 4.1741 Z" stroke="none" fill="#000000" />
			<path d="M 2.39138 3.19713 L -1.90858 3.19713, -1.90858 2.915 C -1.90858 2.8948, -1.898 2.86402, -1.87684 2.82266 L -0.149418 0.945196 C 0.0551279 0.71981, 0.261918 0.488975, 0.471594 0.253009, 0.68127 0.0170434, 0.868504 -0.224052, 1.03394 -0.470277, 1.19937 -0.716502, 1.33146 -0.970422, 1.4302 -1.23204, 1.52895 -1.49365, 1.578 -1.76809, 1.578 -2.05567, 1.578 -2.29805, 1.54658 -2.52472, 1.4831 -2.73503, 1.41962 -2.94535, 1.32825 -3.13002, 1.20835 -3.28904, 1.08844 -3.44806, 0.938716 -3.5763, 0.759177 -3.67377, 0.579638 -3.77123, 0.371886 -3.81996, 0.13592 -3.82028, -0.216105 -3.81996, -0.527092 -3.7148, -0.7964 -3.50449, -1.06571 -3.29417, -1.24461 -3.06237, -1.33277 -2.80974, -1.35009 -2.80268, -1.32187 -2.79915, -1.24813 -2.79948 L -1.15836 -2.79948 C -1.05256 -2.77511, -0.961191 -2.73824, -0.883605 -2.68887, -0.806018 -2.63917, -0.740935 -2.57088, -0.688036 -2.48368, -0.635136 -2.39647, -0.608846 -2.29132, -0.608846 -2.16852, -0.608846 -1.96302, -0.675532 -1.8056, -0.809545 -1.69627, -0.943558 -1.58663, -1.09328 -1.53212, -1.25871 -1.53244, -1.41709 -1.53212, -1.56489 -1.58663, -1.70243 -1.69627, -1.83965 -1.8056, -1.90858 -1.96302, -1.90858 -2.16852, -1.90858 -2.45547, -1.85215 -2.72734, -1.7393 -2.98382, -1.62645 -3.24031, -1.47352 -3.46249, -1.27987 -3.65068, -1.08623 -3.83856, -0.857315 -3.98732, -0.593136 -4.09697, -0.328958 -4.20629, -0.0487483 -4.26112, 0.24685 -4.26144, 0.612981 -4.26112, 0.948655 -4.20725, 1.25323 -4.09953, 1.55781 -3.99181, 1.8175 -3.83695, 2.0323 -3.63529, 2.24711 -3.43331, 2.41543 -3.19991, 2.53693 -2.93509, 2.65844 -2.66995, 2.71904 -2.37692, 2.71904 -2.05567, 2.71904 -1.6998, 2.63825 -1.37214, 2.47602 -1.07302, 2.31411 -0.77357, 2.11342 -0.499131, 1.87392 -0.2497, 1.63443 5.126e-005, 1.37987 0.235055, 1.11056 0.455632, 0.841252 0.676208, 0.597272 0.890693, 0.378939 1.09909 L -0.836155 2.24301, 0.754048 2.24301 C 0.975907 2.24333, 1.18302 2.24172, 1.37474 2.2382, 1.56678 2.23499, 1.72965 2.22794, 1.86334 2.21768, 1.99736 2.20742, 2.06597 2.20069, 2.06917 2.19684, 2.09738 2.17312, 2.12399 2.12534, 2.14868 2.05353, 2.17337 1.98171, 2.19613 1.89707, 2.21729 1.79961, 2.23845 1.70215, 2.25961 1.60308, 2.28077 1.50209, 2.30193 1.40142, 2.32117 1.29081, 2.3388 1.1709 L 2.72962 1.1709 Z" stroke="none" fill="#000000" transform="matrix(1.12 0 0 1 18.7773 16.3063)" />
			<rect />
		</svg>
	</g>
	<g transform="matrix(1 0 -0 1 339.937 164.407)">
		<svg width="81.075737" height="54.1276474">
			<defs />
			<path d="M 12.7097 4.3115 C 12.6908 4.39738, 12.645 4.46665, 12.5729 4.51818, 12.5008 4.57028, 12.4235 4.59604, 12.3416 4.59547, 12.1155 4.59604, 11.8956 4.61321, 11.6815 4.64642, 11.4674 4.6802, 11.2693 4.76092, 11.0867 4.88859, 10.9361 4.98076, 10.8164 5.10156, 10.7283 5.25099, 10.6401 5.40099, 10.5743 5.56072, 10.5302 5.73133 L 8.78459 12.4915 C 8.62143 13.103, 8.37124 13.6938, 8.0346 14.2646, 7.69797 14.8359, 7.26859 15.3621, 6.74646 15.8441, 6.2873 16.2661, 5.77834 16.6067, 5.21843 16.8655, 4.65851 17.1254, 4.08944 17.2548, 3.51063 17.2548, 2.88202 17.2548, 2.32038 17.13, 1.82631 16.8792, 1.3328 16.6296, 0.934911 16.2873, 0.632625 15.8533, 0.299425 15.3896, 0.101336 14.8617, 0.0383604 14.2686, 0.0131699 14.0923, 0.000574708 13.9056, 0.000574708 13.7098, 0.000574708 13.301, 0.0509556 12.8831, 0.151717 12.4549 L 2.04787 5.15423 C 2.07306 5.03859, 2.08566 4.94699, 2.08566 4.87943, 2.08566 4.7884, 2.06676 4.73058, 2.02898 4.70539, 1.94768 4.6573, 1.77764 4.62695, 1.52002 4.61436, 1.26239 4.60234, 0.985291 4.59604, 0.689304 4.59547, 0.595412 4.59604, 0.526139 4.56569, 0.482055 4.50386, 0.44427 4.4678, 0.425377 4.422, 0.425377 4.36646, 0.425377 4.33039, 0.43511 4.29662, 0.45343 4.2657 L 0.482055 4.11914 C 0.551329 3.93651, 0.673846 3.84491, 0.849607 3.84433, 1.63623 3.86952, 2.42859 3.88155, 3.22724 3.88097, 4.02646 3.88155, 4.82511 3.86952, 5.62377 3.84433, 5.8001 3.84491, 5.88826 3.92735, 5.88826 4.09166 L 5.88826 4.16494, 5.83159 4.32066 C 5.7938 4.50444, 5.67758 4.59604, 5.48236 4.59547, 5.18694 4.59604, 4.90756 4.60234, 4.64306 4.61436, 4.37856 4.62695, 4.18677 4.65901, 4.06711 4.71054, 3.94803 4.76264, 3.85357 4.92294, 3.78429 5.19088 L 1.90646 12.4915 C 1.76219 13.0297, 1.67688 13.5455, 1.65169 14.0396, 1.6391 14.1134, 1.6328 14.1867, 1.6328 14.2594, 1.6328 14.6751, 1.71467 15.0569, 1.87841 15.4045, 2.04214 15.7348, 2.2763 16.0021, 2.58145 16.2065, 2.8866 16.4115, 3.24327 16.5134, 3.65204 16.5128, 4.10547 16.5134, 4.56004 16.4098, 5.01576 16.202, 5.47148 15.9947, 5.89456 15.7136, 6.28444 15.3586, 6.731 14.9625, 7.09454 14.5108, 7.3745 14.0035, 7.65446 13.4968, 7.86342 12.9804, 8.0014 12.4549 L 9.73782 5.67636 C 9.77561 5.56701, 9.79393 5.4508, 9.79393 5.32828 L 9.79393 5.20004 C 9.77561 5.07237, 9.72179 4.96531, 9.63362 4.87943, 9.50195 4.75176, 9.34622 4.67275, 9.16703 4.64184, 8.98783 4.6115, 8.77887 4.59604, 8.53956 4.59547, 8.44509 4.59604, 8.37582 4.56856, 8.33174 4.51302, 8.28823 4.47066, 8.2659 4.422, 8.2659 4.36646, 8.2659 4.33039, 8.27563 4.29375, 8.29395 4.25654 L 8.33174 4.1283 C 8.3512 4.04929, 8.39357 3.98231, 8.45941 3.92735, 8.52582 3.87239, 8.60253 3.84491, 8.69013 3.84433, 9.31932 3.86952, 9.95137 3.88155, 10.5869 3.88097, 11.216 3.88155, 11.8544 3.86952, 12.5019 3.84433, 12.5901 3.84491, 12.6656 3.87525, 12.7286 3.93593, 12.7538 3.98517, 12.7664 4.03097, 12.7664 4.07334, 12.7664 4.11055, 12.7572 4.14433, 12.7378 4.1741 Z" stroke="none" fill="#000000" />
			<path d="M 3.15418 -1.74789 C 3.13302 -1.65171, 3.08044 -1.60394, 2.9958 -1.60426, 2.98875 -1.59721, 2.97111 -1.59368, 2.9429 -1.594, 2.92527 -1.59368, 2.91116 -1.59721, 2.90058 -1.60426 L 2.85313 -1.60426 C 2.76144 -1.60394, 2.71559 -1.63824, 2.71559 -1.70685 L 2.71559 -1.74276 C 2.75791 -1.9954, 2.77907 -2.22976, 2.77907 -2.44553 L 2.77907 -2.64046 C 2.75791 -2.90335, 2.69892 -3.13002, 2.6021 -3.31982, 2.50527 -3.50962, 2.36357 -3.65645, 2.17697 -3.76097, 1.99038 -3.86517, 1.75409 -3.91743, 1.46876 -3.91775, 1.30332 -3.91743, 1.13501 -3.88152, 0.964123 -3.8097, 0.793561 -3.73789, 0.63422 -3.64042, 0.4861 -3.51763, 0.324194 -3.38394, 0.192105 -3.23261, 0.0898316 -3.06333, -0.012121 -2.89405, -0.0861809 -2.72061, -0.132348 -2.54299, -0.167294 -2.41603, -0.18653 -2.29484, -0.190378 -2.17878, -0.190378 -2.01784, -0.155111 -1.86395, -0.0845778 -1.71711, 0.0176952 -1.47057, 0.200761 -1.31315, 0.46494 -1.24518 L 1.68003 -0.906621 C 1.90189 -0.841218, 2.09137 -0.737662, 2.24815 -0.595954, 2.40492 -0.453926, 2.52291 -0.28625, 2.6021 -0.093245, 2.68161 0.10008, 2.72809 0.311038, 2.7422 0.539951 L 2.7422 0.632285 C 2.7422 0.83106, 2.71399 1.03432, 2.65756 1.24272, 2.58382 1.5303, 2.46584 1.8073, 2.30361 2.07405, 2.14171 2.34079, 1.94101 2.58028, 1.70119 2.79188, 1.47228 2.98713, 1.22157 3.14359, 0.948413 3.26125, 0.675257 3.37923, 0.40146 3.43822, 0.126701 3.43822, -0.278224 3.43822, -0.623516 3.37346, -0.908854 3.2433, -1.19419 3.11377, -1.40547 2.94962, -1.54301 2.75085 L -2.06592 3.37154 C -2.11145 3.4161, -2.15922 3.43822, -2.20859 3.43822 L -2.24033 3.43822 C -2.32818 3.43822, -2.37595 3.40424, -2.383 3.33563, -2.383 3.31511, -2.37755 3.29652, -2.36729 3.2792 L -1.75429 0.87851 C -1.73313 0.78297, -1.67125 0.733596, -1.5693 0.729749 L -1.45324 0.729749 C -1.41092 0.73007, -1.37213 0.747062, -1.33686 0.781046, -1.32276 0.808618, -1.3157 0.832664, -1.3157 0.852862, -1.3157 0.866968, -1.31923 0.88396, -1.32628 0.904159, -1.38976 1.1507, -1.4215 1.37994, -1.4215 1.59154, -1.4215 1.93042, -1.33847 2.21768, -1.17303 2.45332, -0.908854 2.83324, -0.447183 3.02304, 0.211341 3.02272, 0.376773 3.02304, 0.545091 2.98457, 0.715974 2.90762, 0.886857 2.83068, 1.0462 2.72712, 1.194 2.59696, 1.35622 2.44691, 1.49248 2.2802, 1.60341 2.09713, 1.71434 1.91439, 1.79641 1.72523, 1.84899 1.52998, 1.88426 1.37288, 1.90189 1.22605, 1.90189 1.08883, 1.90189 0.918265, 1.87913 0.754115, 1.83328 0.596377, 1.7278 0.333481, 1.53224 0.164201, 1.2469 0.0885382 L 0.0475116 -0.250021 C -0.167294 -0.30773, -0.352283 -0.402629, -0.507457 -0.534398, -0.662309 -0.665846, -0.782857 -0.822302, -0.869099 -1.00376, -0.955342 -1.18491, -1.00568 -1.38496, -1.01978 -1.60426 L -1.01978 -1.71711 C -1.01978 -1.88767, -0.998624 -2.06721, -0.956304 -2.25573, -0.882244 -2.52889, -0.764261 -2.7905, -0.602356 -3.04025, -0.440129 -3.28968, -0.23943 -3.51058, -0.000258684 -3.7023, 0.225448 -3.88665, 0.472955 -4.03445, 0.742264 -4.1457, 1.01189 -4.25663, 1.27864 -4.31241, 1.54282 -4.31273, 1.90574 -4.31241, 2.20487 -4.24477, 2.44083 -4.10979, 2.6768 -3.9745, 2.84768 -3.81483, 2.95348 -3.63049 L 3.46068 -4.24092 C 3.48889 -4.28837, 3.53474 -4.31241, 3.5979 -4.31273 L 3.64567 -4.31273 C 3.73031 -4.31241, 3.77231 -4.27138, 3.77231 -4.18962 L 3.77231 -4.14858 Z" stroke="none" fill="#000000" transform="matrix(1.12 0 0 1 14.6262 16.3063)" />
			<path d="M 2.3913 3.19713 L -1.90866 3.19713, -1.90866 2.915 C -1.90866 2.8948, -1.89808 2.86402, -1.87692 2.82266 L -0.149495 0.945196 C 0.0550516 0.71981, 0.261842 0.488975, 0.471518 0.253009, 0.681194 0.0170434, 0.868428 -0.224052, 1.03386 -0.470277, 1.19929 -0.716502, 1.33138 -0.970422, 1.43013 -1.23204, 1.52887 -1.49365, 1.57793 -1.76809, 1.57793 -2.05567, 1.57793 -2.29805, 1.54651 -2.52472, 1.48303 -2.73503, 1.41955 -2.94535, 1.32818 -3.13002, 1.20827 -3.28904, 1.08836 -3.44806, 0.93864 -3.5763, 0.759101 -3.67377, 0.579562 -3.77123, 0.37181 -3.81996, 0.135844 -3.82028, -0.216181 -3.81996, -0.527168 -3.7148, -0.796476 -3.50449, -1.06579 -3.29417, -1.24468 -3.06237, -1.33285 -2.80974, -1.35016 -2.80268, -1.32195 -2.79915, -1.24821 -2.79948 L -1.15844 -2.79948 C -1.05264 -2.77511, -0.961268 -2.73824, -0.883681 -2.68887, -0.806095 -2.63917, -0.741012 -2.57088, -0.688112 -2.48368, -0.635212 -2.39647, -0.608922 -2.29132, -0.608922 -2.16852, -0.608922 -1.96302, -0.675608 -1.8056, -0.809621 -1.69627, -0.943634 -1.58663, -1.09336 -1.53212, -1.25879 -1.53244, -1.41717 -1.53212, -1.56497 -1.58663, -1.70251 -1.69627, -1.83973 -1.8056, -1.90866 -1.96302, -1.90866 -2.16852, -1.90866 -2.45547, -1.85223 -2.72734, -1.73938 -2.98382, -1.62652 -3.24031, -1.4736 -3.46249, -1.27995 -3.65068, -1.0863 -3.83856, -0.857392 -3.98732, -0.593213 -4.09697, -0.329034 -4.20629, -0.0488245 -4.26112, 0.246773 -4.26144, 0.612905 -4.26112, 0.948579 -4.20725, 1.25315 -4.09953, 1.55773 -3.99181, 1.81742 -3.83695, 2.03223 -3.63529, 2.24703 -3.43331, 2.41535 -3.19991, 2.53686 -2.93509, 2.65837 -2.66995, 2.71896 -2.37692, 2.71896 -2.05567, 2.71896 -1.6998, 2.63817 -1.37214, 2.47594 -1.07302, 2.31404 -0.77357, 2.11334 -0.499131, 1.87385 -0.2497, 1.63435 5.126e-005, 1.37979 0.235055, 1.11048 0.455632, 0.841176 0.676208, 0.597195 0.890693, 0.378863 1.09909 L -0.836232 2.24301, 0.753971 2.24301 C 0.97583 2.24333, 1.18294 2.24172, 1.37466 2.2382, 1.56671 2.23499, 1.72957 2.22794, 1.86327 2.21768, 1.99728 2.20742, 2.06589 2.20069, 2.06909 2.19684, 2.09731 2.17312, 2.12392 2.12534, 2.14861 2.05353, 2.17329 1.98171, 2.19605 1.89707, 2.21721 1.79961, 2.23837 1.70215, 2.25953 1.60308, 2.28069 1.50209, 2.30185 1.40142, 2.32109 1.29081, 2.33872 1.1709 L 2.72954 1.1709 Z" stroke="none" fill="#000000" transform="matrix(1.12 0 0 1 22.1857 16.3063)" />
			<rect />
		</svg>
	</g>
	<g transform="matrix(1 0 -0 1 328.447 86.2988)">
		<svg width="62.9920158" height="54.1276474">
			<defs />
			<path d="M 12.9653 14.9922 C 12.8966 15.2676, 12.793 15.5378, 12.6545 15.8035, 12.5159 16.0691, 12.3465 16.309, 12.1449 16.5226, 11.9434 16.7367, 11.7184 16.9113, 11.47 17.0487, 11.2215 17.1861, 10.953 17.2548, 10.6633 17.2548, 9.75128 17.2548, 9.06541 17.0138, 8.60626 16.5311, 8.29195 16.202, 8.13451 15.7869, 8.13451 15.2854, 8.13451 15.0295, 8.17573 14.7518, 8.2576 14.4518 L 8.68183 12.8121 C 8.73221 12.6049, 8.7574 12.4097, 8.7574 12.2259, 8.7574 12.1348, 8.7511 12.0404, 8.73851 11.9419, 8.70072 11.686, 8.61313 11.4604, 8.47458 11.2646, 8.33603 11.0694, 8.15856 10.9154, 7.94158 10.802, 7.72459 10.6893, 7.46811 10.6326, 7.17212 10.632 L 5.0401 10.632, 3.78515 15.5144 C 3.75996 15.6312, 3.74737 15.7256, 3.74737 15.7983, 3.74737 15.8905, 3.76626 15.9518, 3.80405 15.9815, 3.88592 16.0308, 4.05595 16.06, 4.31358 16.0691, 4.57178 16.0783, 4.84831 16.0829, 5.14372 16.0823, 5.32005 16.0829, 5.40822 16.1562, 5.40822 16.3021, 5.40822 16.3394, 5.40192 16.3789, 5.38933 16.4212 L 5.35154 16.5678 C 5.28284 16.751, 5.15975 16.8426, 4.98342 16.8426, 4.20996 16.806, 3.4302 16.7876, 2.64357 16.7876, 1.85751 16.7876, 1.06802 16.806, 0.27567 16.8426, 0.106207 16.8426, 0.0151782 16.7636, 0.00201051 16.6044 L 0.00201051 16.5311, 0.0397962 16.3754 C 0.090177 16.1745, 0.212694 16.0766, 0.407347 16.0823, 0.703335 16.0829, 0.983292 16.0783, 1.24722 16.0691, 1.51172 16.06, 1.70637 16.0279, 1.83232 15.9724, 1.95198 15.906, 2.04301 15.7411, 2.10598 15.4777 L 4.75728 5.15423 C 4.79506 5.02027, 4.81338 4.91664, 4.81338 4.84279, 4.81338 4.77008, 4.79792 4.72714, 4.76644 4.71455, 4.67827 4.66016, 4.50709 4.62695, 4.25232 4.61436, 3.99756 4.60234, 3.71932 4.59604, 3.41703 4.59547, 3.24127 4.59604, 3.1531 4.5136, 3.1531 4.34814 L 3.1531 4.27486, 3.20978 4.11914 C 3.24757 3.93651, 3.36436 3.84491, 3.55901 3.84433 L 8.87076 3.84433 C 9.46846 3.84491, 10.0375 3.92448, 10.5786 4.08307, 11.1196 4.24223, 11.5913 4.50444, 11.9938 4.87027, 12.327 5.16397, 12.5692 5.52408, 12.7203 5.95117, 12.8148 6.18361, 12.8652 6.42521, 12.8709 6.67482, 12.8709 6.90154, 12.8365 7.12424, 12.7673 7.34351, 12.6482 7.83244, 12.3997 8.27556, 12.0219 8.67231, 11.6446 9.06963, 11.2198 9.40798, 10.748 9.68851, 10.4211 9.87859, 10.0896 10.036, 9.753 10.1608, 9.41636 10.2862, 9.17591 10.3641, 9.03106 10.3938, 9.38945 10.5347, 9.72952 10.8095, 10.0501 11.2183, 10.3209 11.5732, 10.456 11.9974, 10.456 12.4915, 10.456 12.5957, 10.4497 12.6999, 10.4371 12.803 L 10.2574 14.4518 C 10.2076 14.88, 10.1824 15.2522, 10.1824 15.5693, 10.1824 15.7777, 10.195 15.9609, 10.2202 16.1189, 10.2642 16.4796, 10.4526 16.66, 10.7858 16.6594, 11.0881 16.66, 11.3646 16.4968, 11.6165 16.1699, 11.8684 15.8436, 12.0539 15.4388, 12.173 14.9556, 12.2423 14.773, 12.3648 14.6842, 12.5411 14.69 L 12.6917 14.69 C 12.8617 14.6905, 12.9528 14.7701, 12.9653 14.9281 L 12.9653 14.9922 Z M 10.748 7.28855 C 10.8488 6.92272, 10.9055 6.55631, 10.9181 6.18933 L 10.9181 6.13437 C 10.9181 5.8235, 10.8207 5.55499, 10.6255 5.32828, 10.3931 5.06034, 10.0896 4.87084, 9.71521 4.76092, 9.34079 4.651, 8.9303 4.59604, 8.48374 4.59547 L 7.2288 4.59547 C 6.9082 4.59604, 6.7164 4.62066, 6.65343 4.66932, 6.59045 4.71856, 6.52461 4.89203, 6.45534 5.19088 L 5.21013 10.0366, 7.03071 10.0366 C 7.47727 10.0372, 7.9181 9.98221, 8.35207 9.87229, 8.78603 9.76237, 9.19823 9.56714, 9.58754 9.28547, 9.92131 9.04787, 10.1732 8.74902, 10.3427 8.38834, 10.5127 8.02823, 10.6478 7.66183, 10.748 7.28855 Z" stroke="none" fill="#000000" />
			<path d="M 2.81931 1.26324 C 2.81931 1.55755, 2.75423 1.84001, 2.62406 2.10996, 2.4939 2.38023, 2.31949 2.61106, 2.10083 2.80214, 1.85461 3.01791, 1.58242 3.17757, 1.28489 3.28177, 0.987372 3.38629, 0.676384 3.43822, 0.352252 3.43822, 0.0601807 3.43822, -0.224838 3.39719, -0.503123 3.31511, -0.781409 3.23304, -1.03212 3.11537, -1.2559 2.96148, -1.47969 2.80759, -1.65826 2.61876, -1.79228 2.39465, -1.92597 2.17087, -1.99298 1.91342, -1.99298 1.62232, -1.99298 1.40366, -1.91988 1.24047, -1.77368 1.13275, -1.62749 1.02503, -1.4736 0.971165, -1.31169 0.970845, -1.14241 0.971165, -0.984993 1.02503, -0.838797 1.13275, -0.692601 1.24047, -0.619503 1.40366, -0.619503 1.62232, -0.619503 1.75248, -0.644831 1.86117, -0.696128 1.94837, -0.747104 2.03558, -0.812187 2.10835, -0.891697 2.16638, -0.970886 2.22473, -1.06162 2.26032, -1.16357 2.27379, -1.21615 2.28789, -1.26552 2.29462, -1.31169 2.2943, -1.35722 2.29462, -1.36427 2.29815, -1.33285 2.30456, -1.22352 2.49629, -1.00872 2.66589, -0.688112 2.81272, -0.367507 2.95988, -0.0209324 3.0333, 0.352252 3.03298, 0.528585 3.0333, 0.693056 2.9897, 0.846305 2.90249, 0.999555 2.81529, 1.12748 2.69827, 1.22943 2.55079, 1.35639 2.35971, 1.44263 2.15452, 1.48816 1.93555, 1.534 1.71689, 1.55677 1.49279, 1.55677 1.26324, 1.55677 1.02759, 1.534 0.801244, 1.48816 0.583874, 1.44263 0.366824, 1.35639 0.165804, 1.22943 -0.0191851, 1.12363 -0.169228, 0.995066 -0.290738, 0.84374 -0.383072, 0.692415 -0.475407, 0.528585 -0.521574, 0.352252 -0.521894 L -0.413674 -0.521894 C -0.515627 -0.521574, -0.57013 -0.569344, -0.577183 -0.665526 L -0.577183 -0.721952 C -0.577183 -0.762669, -0.564679 -0.79505, -0.540313 -0.819416, -0.508573 -0.849874, -0.468177 -0.865263, -0.418804 -0.865584, -0.316531 -0.879049, -0.211051 -0.885782, -0.102046 -0.886102, 0.00375414 -0.885782, 0.107951 -0.892514, 0.209903 -0.906621, 0.400023 -0.920087, 0.565455 -0.978757, 0.706201 -1.08327, 0.847267 -1.18747, 0.96525 -1.32084, 1.06015 -1.48339, 1.15537 -1.64562, 1.22751 -1.83285, 1.27688 -2.04509, 1.32625 -2.25701, 1.35094 -2.47438, 1.35094 -2.69688, 1.35094 -2.86071, 1.33331 -3.01621, 1.29804 -3.16336, 1.26277 -3.3102, 1.19769 -3.43876, 1.10247 -3.54841, 0.905297 -3.7738, 0.655225 -3.88505, 0.352252 -3.88184, 0.0284407 -3.88152, -0.268119 -3.8206, -0.537428 -3.69942, -0.806736 -3.57791, -0.987558 -3.4471, -1.07925 -3.30731, -1.10362 -3.30347, -1.09143 -3.30186, -1.04206 -3.30219, -0.915101 -3.30186, -0.795515 -3.26435, -0.682983 -3.18933, -0.513703 -3.08994, -0.429384 -2.92227, -0.429384 -2.68662, -0.429384 -2.48785, -0.493505 -2.33812, -0.622068 -2.23745, -0.75063 -2.13646, -0.894262 -2.08613, -1.05264 -2.08645, -1.20749 -2.08613, -1.35273 -2.1355, -1.48834 -2.23489, -1.62396 -2.33396, -1.69193 -2.48464, -1.69193 -2.68662, -1.69193 -2.93605, -1.63197 -3.15631, -1.51239 -3.34803, -1.39248 -3.53943, -1.23859 -3.70358, -1.05008 -3.84048, -0.86156 -3.97706, -0.644189 -4.08158, -0.397644 -4.15339, -0.151098 -4.22521, 0.098974 -4.26112, 0.352252 -4.26144, 0.623485 -4.26112, 0.88606 -4.22521, 1.13966 -4.15339, 1.39326 -4.08158, 1.63275 -3.97033, 1.85782 -3.82028, 2.0412 -3.69012, 2.19509 -3.53014, 2.32013 -3.34034, 2.44516 -3.15054, 2.50768 -2.93605, 2.50768 -2.69688, 2.50768 -2.45707, 2.46472 -2.23136, 2.37848 -2.01944, 2.29224 -1.8072, 2.17778 -1.6158, 2.03511 -1.44492, 1.89244 -1.27371, 1.72252 -1.12335, 1.52535 -0.993505, 1.32818 -0.863339, 1.18006 -0.781585, 1.08131 -0.747601, 1.16595 -0.737021, 1.31054 -0.686365, 1.51477 -0.595954, 1.71899 -0.505223, 1.91424 -0.384675, 2.10083 -0.234632, 2.31949 -0.0461159, 2.4939 0.178629, 2.62406 0.440243, 2.75423 0.701857, 2.81931 0.976295, 2.81931 1.26324 Z" stroke="none" fill="#000000" transform="matrix(1.12 0 0 1 15.9335 16.3063)" />
			<rect />
		</svg>
	</g>
	<path d="M -58.3014 -14.5756 L 58.3014 -14.5756, 58.3014 14.5756, -58.3014 14.5756 Z" stroke="none" fill="#FFFFFF" transform="matrix(2.35931e-008 0.3125 -0.3125 2.35931e-008 314.511 97.5642)" />
	<path d="M -58.3014 -14.5756 L 58.3014 -14.5756, 58.3014 14.5756, -58.3014 14.5756 Z" fill="none" stroke="#000000" stroke-width="4.80000019" stroke-linecap="round" stroke-linejoin="round" transform="matrix(2.35931e-008 0.3125 -0.3125 2.35931e-008 314.511 97.5642)" />
	<g transform="matrix(1 0 -0 1 25.5844 86.2988)">
		<svg width="60.1215858" height="54.1276474">
			<defs />
			<path d="M 12.9573 14.9922 C 12.8881 15.2676, 12.7844 15.5378, 12.6459 15.8035, 12.5073 16.0691, 12.3379 16.309, 12.1364 16.5226, 11.9354 16.7367, 11.7104 16.9113, 11.4619 17.0487, 11.2135 17.1861, 10.945 17.2548, 10.6553 17.2548, 9.74383 17.2548, 9.05797 17.0138, 8.59881 16.5311, 8.28508 16.202, 8.12764 15.7869, 8.12764 15.2854, 8.12764 15.0295, 8.16886 14.7518, 8.25016 14.4518 L 8.67439 12.8121 C 8.72477 12.6049, 8.74996 12.4097, 8.74996 12.2259, 8.74996 12.1348, 8.74366 12.0404, 8.73106 11.9419, 8.69328 11.686, 8.60569 11.4604, 8.46714 11.2646, 8.32859 11.0694, 8.15111 10.9154, 7.93413 10.802, 7.71715 10.6893, 7.46067 10.6326, 7.16525 10.632 L 5.03322 10.632, 3.77886 15.5144 C 3.75366 15.6312, 3.74107 15.7256, 3.74107 15.7983, 3.74107 15.8905, 3.75996 15.9518, 3.79775 15.9815, 3.87962 16.0308, 4.04965 16.06, 4.30728 16.0691, 4.56491 16.0783, 4.84143 16.0829, 5.13685 16.0823, 5.31318 16.0829, 5.40135 16.1562, 5.40135 16.3021, 5.40135 16.3394, 5.39505 16.3789, 5.38246 16.4212 L 5.34467 16.5678 C 5.27597 16.751, 5.15288 16.8426, 4.97655 16.8426, 4.20366 16.806, 3.4239 16.7876, 2.63727 16.7876, 1.85179 16.7876, 1.0623 16.806, 0.269943 16.8426, 0.10048 16.8426, 0.0094513 16.7636, -0.00371642 16.6044 L -0.00371642 16.5311, 0.0340692 16.3754 C 0.0844501 16.1745, 0.206967 16.0766, 0.40162 16.0823, 0.697608 16.0829, 0.977565 16.0783, 1.24149 16.0691, 1.50599 16.06, 1.70065 16.0279, 1.82602 15.9724, 1.94568 15.906, 2.03671 15.7411, 2.09968 15.4777 L 4.7504 5.15423 C 4.78819 5.02027, 4.80708 4.91664, 4.80708 4.84279, 4.80708 4.77008, 4.79163 4.72714, 4.75956 4.71455, 4.67197 4.66016, 4.50079 4.62695, 4.24602 4.61436, 3.99126 4.60234, 3.71302 4.59604, 3.41073 4.59547, 3.23497 4.59604, 3.1468 4.5136, 3.1468 4.34814 L 3.1468 4.27486, 3.20348 4.11914 C 3.24127 3.93651, 3.35749 3.84491, 3.55214 3.84433 L 8.86331 3.84433 C 9.46101 3.84491, 10.0301 3.92448, 10.5705 4.08307, 11.1116 4.24223, 11.5833 4.50444, 11.9852 4.87027, 12.319 5.16397, 12.5612 5.52408, 12.7117 5.95117, 12.8062 6.18361, 12.8566 6.42521, 12.8629 6.67482, 12.8629 6.90154, 12.8285 7.12424, 12.7592 7.34351, 12.6396 7.83244, 12.3911 8.27556, 12.0138 8.67231, 11.6366 9.06963, 11.2123 9.40798, 10.7406 9.68851, 10.4137 9.87859, 10.0822 10.036, 9.74555 10.1608, 9.40892 10.2862, 9.16846 10.3641, 9.02362 10.3938, 9.38201 10.5347, 9.72151 10.8095, 10.0421 11.2183, 10.3129 11.5732, 10.448 11.9974, 10.448 12.4915, 10.448 12.5957, 10.4417 12.6999, 10.4291 12.803 L 10.2499 14.4518 C 10.1996 14.88, 10.1744 15.2522, 10.1744 15.5693, 10.1744 15.7777, 10.187 15.9609, 10.2121 16.1189, 10.2562 16.4796, 10.4446 16.66, 10.7778 16.6594, 11.0801 16.66, 11.3566 16.4968, 11.6079 16.1699, 11.8598 15.8436, 12.0453 15.4388, 12.1644 14.9556, 12.2343 14.773, 12.3568 14.6842, 12.5325 14.69 L 12.6837 14.69 C 12.8537 14.6905, 12.9447 14.7701, 12.9573 14.9281 L 12.9573 14.9922 Z M 10.7406 7.28855 C 10.8413 6.92272, 10.8974 6.55631, 10.91 6.18933 L 10.91 6.13437 C 10.91 5.8235, 10.8127 5.55499, 10.6175 5.32828, 10.385 5.06034, 10.0822 4.87084, 9.70777 4.76092, 9.33334 4.651, 8.92286 4.59604, 8.4763 4.59547 L 7.22193 4.59547 C 6.90132 4.59604, 6.70953 4.62066, 6.64656 4.66932, 6.58358 4.71856, 6.51774 4.89203, 6.44847 5.19088 L 5.20326 10.0366, 7.02384 10.0366 C 7.4704 10.0372, 7.91066 9.98221, 8.34462 9.87229, 8.77858 9.76237, 9.19022 9.56714, 9.5801 9.28547, 9.9133 9.04787, 10.1652 8.74902, 10.3347 8.38834, 10.5047 8.02823, 10.6398 7.66183, 10.7406 7.28855 Z" stroke="none" fill="#000000" />
			<path d="M 2.37267 3.19713 C 1.72472 3.17661, 1.09441 3.16635, 0.481416 3.16635, -0.131261 3.16635, -0.761571 3.17661, -1.40951 3.19713 L -1.40951 2.75598, -1.04499 2.75598 C -0.928927 2.7563, -0.819601 2.75469, -0.717648 2.75117, -0.615375 2.74796, -0.518552 2.7393, -0.426859 2.72552, -0.335166 2.71205, -0.255976 2.69827, -0.18929 2.68416, -0.132864 2.67422, -0.086376 2.6428, -0.0495062 2.58958, -0.012316 2.53668, 0.00595856 2.47769, 0.00595856 2.41229 L 0.00595856 -3.36887 C -0.169733 -3.28295, -0.386463 -3.21787, -0.643588 -3.17362, -0.900714 -3.12906, -1.18221 -3.10694, -1.4887 -3.10726 L -1.4887 -3.54328 C -1.06615 -3.54296, -0.675969 -3.59329, -0.318494 -3.69429, 0.0389807 -3.79496, 0.348044 -3.98411, 0.608376 -4.26144 L 0.772206 -4.26144 C 0.888265 -4.26112, 0.946294 -4.20469, 0.946294 -4.09216 L 0.946294 2.41229 C 0.946294 2.4809, 0.963928 2.54085, 0.999194 2.59215, 1.03446 2.64344, 1.08576 2.67422, 1.15244 2.68416, 1.20887 2.69827, 1.28133 2.71205, 1.36917 2.72552, 1.45702 2.7393, 1.55641 2.74796, 1.66734 2.75117, 1.77827 2.75469, 1.88663 2.7563, 1.99243 2.75598 L 2.37267 2.75598, 2.37267 3.19713 Z" stroke="none" fill="#000000" transform="matrix(1.12 0 0 1 15.4241 16.3063)" />
			<rect />
		</svg>
	</g>
	<path d="M -58.3013 -14.5752 L 58.3013 -14.5752, 58.3013 14.5752, -58.3013 14.5752 Z" stroke="none" fill="#FFFFFF" transform="matrix(2.35931e-008 0.3125 -0.3125 2.35931e-008 59.524 97.5642)" />
	<path d="M -58.3013 -14.5752 L 58.3013 -14.5752, 58.3013 14.5752, -58.3013 14.5752 Z" fill="none" stroke="#000000" stroke-width="4.80000019" stroke-linecap="round" stroke-linejoin="round" transform="matrix(2.35931e-008 0.3125 -0.3125 2.35931e-008 59.524 97.5642)" />
	<g transform="matrix(1 0 -0 1 81.3526 86.2988)">
		<svg width="54.0936813" height="54.1276474">
			<defs />
			<path d="M 12.702 4.3115 C 12.6837 4.39738, 12.6379 4.46665, 12.5657 4.51818, 12.4936 4.57028, 12.4163 4.59604, 12.3339 4.59547, 12.1077 4.59604, 11.8879 4.61321, 11.6738 4.64642, 11.4602 4.6802, 11.2621 4.76092, 11.0795 4.88859, 10.9289 4.98076, 10.8093 5.10156, 10.7211 5.25099, 10.6329 5.40099, 10.5671 5.56072, 10.523 5.73133 L 8.77801 12.4915 C 8.61427 13.103, 8.36466 13.6938, 8.02802 14.2646, 7.69138 14.8359, 7.26258 15.3621, 6.74045 15.8441, 6.28129 16.2661, 5.77233 16.6067, 5.21242 16.8655, 4.6525 17.1254, 4.08343 17.2548, 3.50462 17.2548, 2.87601 17.2548, 2.31495 17.13, 1.82144 16.8792, 1.32794 16.6296, 0.930045 16.2873, 0.62776 15.8533, 0.294559 15.3896, 0.0964707 14.8617, 0.0334946 14.2686, 0.00830418 14.0923, -0.00429106 13.9056, -0.00429106 13.7098, -0.00429106 13.301, 0.0460898 12.8831, 0.146852 12.4549 L 2.04243 5.15423 C 2.06762 5.03859, 2.08022 4.94699, 2.08022 4.87943, 2.08022 4.7884, 2.06132 4.73058, 2.02354 4.70539, 1.94224 4.6573, 1.77221 4.62695, 1.51458 4.61436, 1.25695 4.60234, 0.979853 4.59604, 0.684438 4.59547, 0.590547 4.59604, 0.521273 4.56569, 0.476617 4.50386, 0.438831 4.4678, 0.419939 4.422, 0.419939 4.36646, 0.419939 4.33039, 0.429671 4.29662, 0.448564 4.2657 L 0.476617 4.11914 C 0.546463 3.93651, 0.66898 3.84491, 0.844741 3.84433, 1.6308 3.86952, 2.42315 3.88155, 3.2218 3.88097, 4.02102 3.88155, 4.81968 3.86952, 5.61775 3.84433, 5.79409 3.84491, 5.88168 3.92735, 5.88168 4.09166 L 5.88168 4.16494, 5.82558 4.32066 C 5.78779 4.50444, 5.67157 4.59604, 5.47634 4.59547, 5.18093 4.59604, 4.90155 4.60234, 4.63705 4.61436, 4.37255 4.62695, 4.18076 4.65901, 4.0611 4.71054, 3.94202 4.76264, 3.84755 4.92294, 3.77828 5.19088 L 1.90102 12.4915 C 1.75675 13.0297, 1.67145 13.5455, 1.64625 14.0396, 1.63366 14.1134, 1.62736 14.1867, 1.62736 14.2594, 1.62736 14.6751, 1.70923 15.0569, 1.87297 15.4045, 2.03671 15.7348, 2.27086 16.0021, 2.57544 16.2065, 2.88059 16.4115, 3.23726 16.5134, 3.64603 16.5128, 4.09946 16.5134, 4.55403 16.4098, 5.00975 16.202, 5.46547 15.9947, 5.88855 15.7136, 6.27786 15.3586, 6.72442 14.9625, 7.08796 14.5108, 7.36792 14.0035, 7.64787 13.4968, 7.85684 12.9804, 7.99481 12.4549 L 9.73066 5.67636 C 9.76845 5.56701, 9.78734 5.4508, 9.78734 5.32828 L 9.78734 5.20004 C 9.76845 5.07237, 9.71521 4.96531, 9.62704 4.87943, 9.49536 4.75176, 9.33964 4.67275, 9.15987 4.64184, 8.98068 4.6115, 8.77171 4.59604, 8.5324 4.59547, 8.43851 4.59604, 8.36924 4.56856, 8.32515 4.51302, 8.28164 4.47066, 8.25931 4.422, 8.25931 4.36646, 8.25931 4.33039, 8.26905 4.29375, 8.28737 4.25654 L 8.32515 4.1283 C 8.34405 4.04929, 8.38641 3.98231, 8.45225 3.92735, 8.51866 3.87239, 8.59538 3.84491, 8.68354 3.84433, 9.31273 3.86952, 9.94478 3.88155, 10.5797 3.88097, 11.2083 3.88155, 11.8467 3.86952, 12.4942 3.84433, 12.5823 3.84491, 12.6579 3.87525, 12.7209 3.93593, 12.7461 3.98517, 12.7587 4.03097, 12.7587 4.07334, 12.7587 4.11055, 12.7495 4.14433, 12.73 4.1741 Z" stroke="none" fill="#000000" />
			<path d="M 2.37714 3.19713 C 1.7292 3.17661, 1.09857 3.16635, 0.485571 3.16635, -0.127106 3.16635, -0.757737 3.17661, -1.406 3.19713 L -1.406 2.75598, -1.04115 2.75598 C -0.925093 2.7563, -0.815766 2.75469, -0.713814 2.75117, -0.611541 2.74796, -0.514718 2.7393, -0.423025 2.72552, -0.331331 2.71205, -0.252142 2.69827, -0.185456 2.68416, -0.12903 2.67422, -0.082221 2.6428, -0.0453515 2.58958, -0.00816131 2.53668, 0.0101132 2.47769, 0.0101132 2.41229 L 0.0101132 -3.36887 C -0.165899 -3.28295, -0.382628 -3.21787, -0.639754 -3.17362, -0.89688 -3.12906, -1.17869 -3.10694, -1.48519 -3.10726 L -1.48519 -3.54328 C -1.06231 -3.54296, -0.672135 -3.59329, -0.31466 -3.69429, 0.042815 -3.79496, 0.351879 -3.98411, 0.612531 -4.26144 L 0.77636 -4.26144 C 0.89242 -4.26112, 0.950449 -4.20469, 0.950449 -4.09216 L 0.950449 2.41229 C 0.950449 2.4809, 0.968082 2.54085, 1.00335 2.59215, 1.03862 2.64344, 1.08991 2.67422, 1.1566 2.68416, 1.21302 2.69827, 1.28548 2.71205, 1.37333 2.72552, 1.46149 2.7393, 1.56088 2.74796, 1.67181 2.75117, 1.78274 2.75469, 1.89111 2.7563, 1.99658 2.75598 L 2.37714 2.75598, 2.37714 3.19713 Z" stroke="none" fill="#000000" transform="matrix(1.12 0 0 1 13.7252 16.3063)" />
			<rect />
		</svg>
	</g>
	<g transform="matrix(1 0 -0 1 69.0785 64.0287)">
		<svg width="119.826561" height="119.904221">
			<defs />
			<polyline points="-5.628 0 5.628 0" fill="none" stroke="#000000" stroke-width="0.64319998" stroke-linecap="round" stroke-linejoin="round" transform="matrix(1 0 0 1 5.628 9.60638)" />
			<polyline points="0 -5.628 0 5.628" fill="none" stroke="#000000" stroke-width="0.64319998" stroke-linecap="round" stroke-linejoin="round" transform="matrix(1 0 0 1 5.628 9.60638)" />
			<rect />
		</svg>
	</g>
	<g transform="matrix(1 0 -0 1 69.0785 110.793)">
		<svg width="119.826561" height="83.9999847">
			<defs />
			<polyline points="-5.628 0 5.628 0" fill="none" stroke="#000000" stroke-width="0.64319998" stroke-linecap="round" stroke-linejoin="round" transform="matrix(1 0 0 1 5.628 9.60638)" />
			<rect />
		</svg>
	</g>
	<ellipse cx="1204.5760250091553" cy="402.72604942321777" rx="8.3999996185302734" ry="8.3999996185302734" stroke="none" fill="#000000" transform="matrix(0.3125 0 0 0.3125 -192.5 -82.1875)" />
	<ellipse cx="1204.5760250091553" cy="972.09091758728027" rx="8.3999996185302734" ry="8.3999996185302734" stroke="none" fill="#000000" transform="matrix(0.3125 0 0 0.3125 -192.5 -82.1875)" />
	<path d="M -26.3058 68.4743 L -49.7863 53.897 C -71.1888 34.1144, -79.5628 2.55914, -68.4736 -26.3061, -53.9453 -64.1234, -11.5111 -83.0028, 26.3057 -68.4743, 64.1227 -53.9459, 83.0019 -11.5113, 68.4736 26.306, 65.175 34.8923, 60.291 42.7816, 54.0761 49.5626" fill="none" stroke="#E60000" stroke-width="4.26666689" stroke-linecap="round" stroke-linejoin="round" marker-start="url(#CustomMarker-01)" transform="matrix(-0.3125 4.71862e-008 4.71862e-008 0.3125 127.495 136.56)" />
	<g transform="matrix(1 0 -0 1 118.304 125.294)">
		<svg width="60.1215858" height="54.1276474">
			<defs />
			<path d="M 8.72362 4.3115 C 8.7053 4.39165, 8.66294 4.45864, 8.59652 4.5136, 8.53011 4.56856, 8.44996 4.59604, 8.3555 4.59547, 8.06008 4.59604, 7.77097 4.60234, 7.48757 4.61436, 7.20475 4.62695, 7.00037 4.66016, 6.87442 4.71455, 6.74274 4.75806, 6.64484 4.91664, 6.58186 5.19088 L 3.93057 15.5144 C 3.90538 15.6312, 3.89278 15.7319, 3.89278 15.8167, 3.89278 15.9025, 3.90881 15.9546, 3.9403 15.9724, 4.02847 16.0279, 4.21053 16.06, 4.48762 16.0691, 4.76472 16.0783, 5.0567 16.0829, 5.36471 16.0823, 5.54104 16.0829, 5.62921 16.1562, 5.62921 16.3021, 5.62921 16.3394, 5.62291 16.3789, 5.61031 16.4212 L 5.57253 16.5678 C 5.50325 16.751, 5.3836 16.8426, 5.21356 16.8426, 4.40232 16.806, 3.58134 16.7876, 2.7512 16.7876, 1.92736 16.7876, 1.09092 16.806, 0.241318 16.8426, 0.0787248 16.8426, -0.0031441 16.7636, -0.0037166 16.6044 L -0.0037166 16.5311, 0.034069 16.3754 C 0.0850224 16.1745, 0.207539 16.0766, 0.402193 16.0823, 0.710203 16.0829, 1.00619 16.0783, 1.28901 16.0691, 1.57183 16.06, 1.77622 16.0279, 1.90217 15.9724, 2.01553 15.9117, 2.10713 15.7468, 2.17583 15.4777 L 4.84601 5.15423 C 4.8712 5.03859, 4.8838 4.94699, 4.8838 4.87943, 4.8838 4.7884, 4.86834 4.73058, 4.83628 4.70539, 4.73609 4.6573, 4.54774 4.62695, 4.27064 4.61436, 3.99355 4.60234, 3.70729 4.59604, 3.41188 4.59547, 3.23554 4.59604, 3.14738 4.5136, 3.14738 4.34814 L 3.14738 4.28402, 3.18516 4.11914 C 3.25444 3.93651, 3.37409 3.84491, 3.54355 3.84433, 4.36797 3.86952, 5.19524 3.88155, 6.02538 3.88097, 6.86239 3.88155, 7.69253 3.86952, 8.5158 3.84433, 8.60397 3.84491, 8.67954 3.87525, 8.74251 3.93593, 8.7677 3.98517, 8.7803 4.03097, 8.7803 4.07334, 8.7803 4.11055, 8.77114 4.14433, 8.75167 4.1741 Z" stroke="none" fill="#E60000" />
			<path d="M 0.156807 2.03269 C 0.12154 2.17312, 0.0968539 2.30488, 0.0827472 2.42768, 0.0756938 2.48955, 0.0721673 2.54598, 0.0721673 2.59696, 0.0721673 2.64184, 0.0756938 2.68961, 0.0827472 2.74059, 0.0936478 2.82298, 0.118334 2.88454, 0.156807 2.92558, 0.1956 2.96661, 0.25363 2.98713, 0.331216 2.98681, 0.405276 2.98713, 0.471321 2.95635, 0.529351 2.8948, 0.58738 2.83324, 0.644448 2.74187, 0.700874 2.62036, 0.757301 2.49917, 0.80956 2.35362, 0.857009 2.18434, 0.904459 2.01506, 0.954794 1.83456, 1.00737 1.64283, 1.02853 1.54729, 1.08849 1.49952, 1.18691 1.4992 L 1.30842 1.4992 C 1.39306 1.49952, 1.43506 1.53703, 1.43506 1.61206 L 1.43506 1.64796 C 1.40011 1.8057, 1.35427 1.98107, 1.29784 2.17408, 1.24142 2.3674, 1.1712 2.5479, 1.08656 2.71526, 1.00192 2.88294, 0.892917 3.02657, 0.758904 3.14615, 0.625212 3.26574, 0.461382 3.32537, 0.267737 3.32537, 0.0846708 3.32537, -0.0737083 3.29043, -0.207721 3.22021, -0.341414 3.15032, -0.448817 3.05318, -0.52993 2.92814, -0.610722 2.80343, -0.658493 2.66044, -0.672599 2.49949, -0.679653 2.45877, -0.683179 2.41421, -0.683179 2.36612, -0.683179 2.25006, -0.669073 2.13208, -0.640859 2.01217 L 0.711455 -3.24063 C 0.739668 -3.35316, 0.759225 -3.43876, 0.769484 -3.49711 L 0.769484 -3.5125 C 0.769484 -3.54296, 0.760828 -3.56508, 0.743194 -3.57919, 0.700874 -3.60612, 0.621685 -3.62504, 0.505626 -3.63529, 0.389567 -3.64555, 0.255554 -3.65068, 0.103907 -3.651, 0.0513278 -3.65068, 0.0125346 -3.66768, -0.0121521 -3.7023, -0.033312 -3.7225, -0.0438919 -3.74815, -0.0438919 -3.77925, -0.0438919 -3.79944, -0.0384417 -3.81836, -0.0281823 -3.83567 L -0.0121521 -3.91262 C -0.00157201 -3.96007, 0.0231146 -3.99598, 0.0619079 -4.02002, 0.100701 -4.04375, 0.143021 -4.06106, 0.188547 -4.07164 L 1.56715 -4.18449, 1.59889 -4.18449 C 1.68353 -4.18417, 1.72585 -4.14666, 1.72585 -4.07164, 1.72585 -4.0508, 1.72232 -4.02868, 1.71527 -4.00495 Z" stroke="none" fill="#E60000" transform="matrix(1.12 0 0 1 9.50418 16.3063)" />
			<path d="M 2.37559 3.19713 C 1.72765 3.17661, 1.09734 3.16635, 0.484342 3.16635, -0.128335 3.16635, -0.758645 3.17661, -1.40659 3.19713 L -1.40659 2.75598, -1.04206 2.75598 C -0.926001 2.7563, -0.816675 2.75469, -0.714722 2.75117, -0.612449 2.74796, -0.515626 2.7393, -0.423933 2.72552, -0.33224 2.71205, -0.25305 2.69827, -0.186364 2.68416, -0.129938 2.67422, -0.0834501 2.6428, -0.0465803 2.58958, -0.00939012 2.53668, 0.00888443 2.47769, 0.00888443 2.41229 L 0.00888443 -3.36887 C -0.166807 -3.28295, -0.383537 -3.21787, -0.640662 -3.17362, -0.897788 -3.12906, -1.17928 -3.10694, -1.48578 -3.10726 L -1.48578 -3.54328 C -1.06322 -3.54296, -0.673043 -3.59329, -0.315568 -3.69429, 0.0419066 -3.79496, 0.35097 -3.98411, 0.611302 -4.26144 L 0.775131 -4.26144 C 0.891191 -4.26112, 0.94922 -4.20469, 0.94922 -4.09216 L 0.94922 2.41229 C 0.94922 2.4809, 0.966853 2.54085, 1.00212 2.59215, 1.03739 2.64344, 1.08868 2.67422, 1.15537 2.68416, 1.2118 2.69827, 1.28425 2.71205, 1.3721 2.72552, 1.45994 2.7393, 1.55933 2.74796, 1.67026 2.75117, 1.78119 2.75469, 1.88956 2.7563, 1.99536 2.75598 L 2.37559 2.75598, 2.37559 3.19713 Z" stroke="none" fill="#E60000" transform="matrix(1.12 0 0 1 15.3975 16.3063)" />
			<rect />
		</svg>
	</g>
	<path d="M -26.3058 68.4739 L -49.7864 53.8965 C -71.1888 34.1141, -79.5627 2.55908, -68.4736 -26.3059, -53.9453 -64.123, -11.5111 -83.0022, 26.3057 -68.4739, 64.1226 -53.9456, 83.0018 -11.5112, 68.4736 26.3059, 65.175 34.8921, 60.2909 42.7814, 54.0761 49.5622" fill="none" stroke="#E60000" stroke-width="4.26666689" stroke-linecap="round" stroke-linejoin="round" marker-start="url(#CustomMarker-02)" transform="matrix(-0.3125 4.71862e-008 4.71862e-008 0.3125 256.692 136.56)" />
	<g transform="matrix(1 0 -0 1 247.501 125.294)">
		<svg width="60.1215858" height="54.1276474">
			<defs />
			<path d="M 8.72362 4.3115 C 8.7053 4.39165, 8.66294 4.45864, 8.59652 4.5136, 8.53011 4.56856, 8.44996 4.59604, 8.3555 4.59547, 8.06008 4.59604, 7.77097 4.60234, 7.48757 4.61436, 7.20475 4.62695, 7.00037 4.66016, 6.87442 4.71455, 6.74274 4.75806, 6.64484 4.91664, 6.58186 5.19088 L 3.93057 15.5144 C 3.90538 15.6312, 3.89278 15.7319, 3.89278 15.8167, 3.89278 15.9025, 3.90881 15.9546, 3.9403 15.9724, 4.02847 16.0279, 4.21053 16.06, 4.48762 16.0691, 4.76472 16.0783, 5.0567 16.0829, 5.36471 16.0823, 5.54104 16.0829, 5.62921 16.1562, 5.62921 16.3021, 5.62921 16.3394, 5.62291 16.3789, 5.61031 16.4212 L 5.57253 16.5678 C 5.50325 16.751, 5.3836 16.8426, 5.21356 16.8426, 4.40232 16.806, 3.58134 16.7876, 2.7512 16.7876, 1.92736 16.7876, 1.09092 16.806, 0.241318 16.8426, 0.0787248 16.8426, -0.0031441 16.7636, -0.0037166 16.6044 L -0.0037166 16.5311, 0.034069 16.3754 C 0.0850224 16.1745, 0.207539 16.0766, 0.402193 16.0823, 0.710203 16.0829, 1.00619 16.0783, 1.28901 16.0691, 1.57183 16.06, 1.77622 16.0279, 1.90217 15.9724, 2.01553 15.9117, 2.10713 15.7468, 2.17583 15.4777 L 4.84601 5.15423 C 4.8712 5.03859, 4.8838 4.94699, 4.8838 4.87943, 4.8838 4.7884, 4.86834 4.73058, 4.83628 4.70539, 4.73609 4.6573, 4.54774 4.62695, 4.27064 4.61436, 3.99355 4.60234, 3.70729 4.59604, 3.41188 4.59547, 3.23554 4.59604, 3.14738 4.5136, 3.14738 4.34814 L 3.14738 4.28402, 3.18516 4.11914 C 3.25444 3.93651, 3.37409 3.84491, 3.54355 3.84433, 4.36797 3.86952, 5.19524 3.88155, 6.02538 3.88097, 6.86239 3.88155, 7.69253 3.86952, 8.5158 3.84433, 8.60397 3.84491, 8.67954 3.87525, 8.74251 3.93593, 8.7677 3.98517, 8.7803 4.03097, 8.7803 4.07334, 8.7803 4.11055, 8.77114 4.14433, 8.75167 4.1741 Z" stroke="none" fill="#E60000" />
			<path d="M 0.157608 2.03269 C 0.122342 2.17312, 0.0976551 2.30488, 0.0835484 2.42768, 0.0764952 2.48955, 0.0729685 2.54598, 0.0729685 2.59696, 0.0729685 2.64184, 0.0764952 2.68961, 0.0835484 2.74059, 0.094449 2.82298, 0.119136 2.88454, 0.157608 2.92558, 0.196402 2.96661, 0.254431 2.98713, 0.332018 2.98681, 0.406078 2.98713, 0.472122 2.95635, 0.530152 2.8948, 0.588502 2.83324, 0.64557 2.74187, 0.701996 2.62036, 0.758423 2.49917, 0.810361 2.35362, 0.857811 2.18434, 0.90526 2.01506, 0.955595 1.83456, 1.00817 1.64283, 1.02933 1.54729, 1.08929 1.49952, 1.18803 1.4992 L 1.30954 1.4992 C 1.39418 1.49952, 1.43618 1.53703, 1.43618 1.61206 L 1.43618 1.64796 C 1.40092 1.8057, 1.35539 1.98107, 1.29896 2.17408, 1.24254 2.3674, 1.17232 2.5479, 1.08768 2.71526, 1.00304 2.88294, 0.894039 3.02657, 0.760026 3.14615, 0.626013 3.26574, 0.462183 3.32537, 0.268538 3.32537, 0.0854721 3.32537, -0.072907 3.29043, -0.20692 3.22021, -0.340613 3.15032, -0.448015 3.05318, -0.529129 2.92814, -0.609921 2.80343, -0.657691 2.66044, -0.671798 2.49949, -0.678851 2.45877, -0.682378 2.41421, -0.682378 2.36612, -0.682378 2.25006, -0.668271 2.13208, -0.640058 2.01217 L 0.712256 -3.24063 C 0.740469 -3.35316, 0.760026 -3.43876, 0.770606 -3.49711 L 0.770606 -3.5125 C 0.770606 -3.54296, 0.76195 -3.56508, 0.743996 -3.57919, 0.701676 -3.60612, 0.622486 -3.62504, 0.506427 -3.63529, 0.390368 -3.64555, 0.256355 -3.65068, 0.104708 -3.651, 0.0521291 -3.65068, 0.0133358 -3.66768, -0.0113508 -3.7023, -0.0325108 -3.7225, -0.0430907 -3.74815, -0.0430907 -3.77925, -0.0430907 -3.79944, -0.0376405 -3.81836, -0.0273811 -3.83567 L -0.0113508 -3.91262 C -0.000770807 -3.96007, 0.0239159 -3.99598, 0.0627091 -4.02002, 0.101502 -4.04375, 0.143822 -4.06106, 0.189348 -4.07164 L 1.56827 -4.18449, 1.60001 -4.18449 C 1.68465 -4.18417, 1.72697 -4.14666, 1.72697 -4.07164, 1.72697 -4.0508, 1.72345 -4.02868, 1.71639 -4.00495 Z" stroke="none" fill="#E60000" transform="matrix(1.12 0 0 1 9.50386 16.3063)" />
			<path d="M 2.3913 3.19713 L -1.90866 3.19713, -1.90866 2.915 C -1.90866 2.8948, -1.89808 2.86402, -1.87692 2.82266 L -0.149495 0.945196 C 0.0550516 0.71981, 0.261842 0.488975, 0.471518 0.253009, 0.681194 0.0170434, 0.868428 -0.224052, 1.03386 -0.470277, 1.19929 -0.716502, 1.33138 -0.970422, 1.43013 -1.23204, 1.52887 -1.49365, 1.57793 -1.76809, 1.57793 -2.05567, 1.57793 -2.29805, 1.54651 -2.52472, 1.48303 -2.73503, 1.41955 -2.94535, 1.32818 -3.13002, 1.20827 -3.28904, 1.08836 -3.44806, 0.93864 -3.5763, 0.759101 -3.67377, 0.579562 -3.77123, 0.37181 -3.81996, 0.135844 -3.82028, -0.216181 -3.81996, -0.527168 -3.7148, -0.796476 -3.50449, -1.06579 -3.29417, -1.24468 -3.06237, -1.33285 -2.80974, -1.35016 -2.80268, -1.32195 -2.79915, -1.24821 -2.79948 L -1.15844 -2.79948 C -1.05264 -2.77511, -0.961268 -2.73824, -0.883681 -2.68887, -0.806095 -2.63917, -0.741012 -2.57088, -0.688112 -2.48368, -0.635212 -2.39647, -0.608922 -2.29132, -0.608922 -2.16852, -0.608922 -1.96302, -0.675608 -1.8056, -0.809621 -1.69627, -0.943634 -1.58663, -1.09336 -1.53212, -1.25879 -1.53244, -1.41717 -1.53212, -1.56497 -1.58663, -1.70251 -1.69627, -1.83973 -1.8056, -1.90866 -1.96302, -1.90866 -2.16852, -1.90866 -2.45547, -1.85223 -2.72734, -1.73938 -2.98382, -1.62652 -3.24031, -1.4736 -3.46249, -1.27995 -3.65068, -1.0863 -3.83856, -0.857392 -3.98732, -0.593213 -4.09697, -0.329034 -4.20629, -0.0488245 -4.26112, 0.246773 -4.26144, 0.612905 -4.26112, 0.948579 -4.20725, 1.25315 -4.09953, 1.55773 -3.99181, 1.81742 -3.83695, 2.03223 -3.63529, 2.24703 -3.43331, 2.41535 -3.19991, 2.53686 -2.93509, 2.65837 -2.66995, 2.71896 -2.37692, 2.71896 -2.05567, 2.71896 -1.6998, 2.63817 -1.37214, 2.47594 -1.07302, 2.31404 -0.77357, 2.11334 -0.499131, 1.87385 -0.2497, 1.63435 5.126e-005, 1.37979 0.235055, 1.11048 0.455632, 0.841176 0.676208, 0.597195 0.890693, 0.378863 1.09909 L -0.836232 2.24301, 0.753971 2.24301 C 0.97583 2.24333, 1.18294 2.24172, 1.37466 2.2382, 1.56671 2.23499, 1.72957 2.22794, 1.86327 2.21768, 1.99728 2.20742, 2.06589 2.20069, 2.06909 2.19684, 2.09731 2.17312, 2.12392 2.12534, 2.14861 2.05353, 2.17329 1.98171, 2.19605 1.89707, 2.21721 1.79961, 2.23837 1.70215, 2.25953 1.60308, 2.28069 1.50209, 2.30185 1.40142, 2.32109 1.29081, 2.33872 1.1709 L 2.72954 1.1709 Z" stroke="none" fill="#E60000" transform="matrix(1.12 0 0 1 15.3972 16.3063)" />
			<rect />
		</svg>
	</g>
</svg>
