<?xml version="1.0"?>
<svg xmlns="http://www.w3.org/2000/svg" xmlns:xlink="http://www.w3.org/1999/xlink" width="379.689392" height="280.171417">
	<defs />
	<path d="M 0 -29.6063 L 0 0" fill="none" stroke="#E50A00" stroke-width="3.4666667" stroke-linecap="round" stroke-linejoin="round" transform="matrix(0.384615 0 -0 0.384615 269.984 260.284)" />
	<path d="M -29.6071 0 L 29.6071 0" fill="none" stroke="#E50A00" stroke-width="2.5999999" stroke-linecap="round" stroke-linejoin="round" transform="matrix(0.384615 0 -0 0.384615 269.984 260.284)" />
	<path d="M -17.7642 14.8031 L 17.7642 14.8031" fill="none" stroke="#E50A00" stroke-width="2.5999999" stroke-linecap="round" stroke-linejoin="round" transform="matrix(0.384615 0 -0 0.384615 269.984 260.284)" />
	<path d="M -5.92141 29.3102 L 5.92141 29.3102" fill="none" stroke="#E50A00" stroke-width="2.5999999" stroke-linecap="round" stroke-linejoin="round" transform="matrix(0.384615 0 -0 0.384615 269.984 260.284)" />
	<path d="M 0 -60.7439 L 0 -39.4737" fill="none" stroke="#000000" stroke-width="2.5999999" stroke-linecap="round" stroke-linejoin="round" transform="matrix(2.90377e-008 0.384615 -0.384615 2.90377e-008 223.552 51.4016)" />
	<path d="M 0 60.7439 L 0 39.4737" fill="none" stroke="#000000" stroke-width="2.5999999" stroke-linecap="round" stroke-linejoin="round" transform="matrix(2.90377e-008 0.384615 -0.384615 2.90377e-008 223.552 51.4016)" />
	<path d="M 39.4737 -0 C 39.4737 21.8007, 21.8007 39.4737, -0 39.4737, -21.8007 39.4737, -39.4737 21.8007, -39.4737 -0, -39.4737 -21.8007, -21.8007 -39.4737, -0 -39.4737, 21.8007 -39.4737, 39.4737 -21.8007, 39.4737 -0 Z" stroke="none" fill="#FFFFFF" transform="matrix(2.90377e-008 0.384615 -0.384615 2.90377e-008 223.552 51.4016)" />
	<path d="M 39.4737 -0 C 39.4737 21.8007, 21.8007 39.4737, -0 39.4737, -21.8007 39.4737, -39.4737 21.8007, -39.4737 -0, -39.4737 -21.8007, -21.8007 -39.4737, -0 -39.4737, 21.8007 -39.4737, 39.4737 -21.8007, 39.4737 -0 Z" fill="none" stroke="#000000" stroke-width="3.89999986" stroke-linecap="round" stroke-linejoin="round" transform="matrix(2.90377e-008 0.384615 -0.384615 2.90377e-008 223.552 51.4016)" />
	<path d="M 0 -39.4737 L 0 39.4737" fill="none" stroke="#000000" stroke-width="2.5999999" stroke-linecap="round" stroke-linejoin="round" transform="matrix(2.90377e-008 0.384615 -0.384615 2.90377e-008 223.552 51.4016)" />
	<path d="M -51.3158 60.7439 L -27.6316 60.7439" fill="none" stroke="#000000" stroke-width="2.5999999" stroke-linecap="round" stroke-linejoin="round" transform="matrix(2.90377e-008 0.384615 -0.384615 2.90377e-008 223.552 51.4016)" />
	<path d="M -39.4737 48.9018 L -39.4737 72.586" fill="none" stroke="#000000" stroke-width="2.5999999" stroke-linecap="round" stroke-linejoin="round" transform="matrix(2.90377e-008 0.384615 -0.384615 2.90377e-008 223.552 51.4016)" />
	<path d="M -39.4737 -72.586 L -39.4737 -48.9018" fill="none" stroke="#000000" stroke-width="2.5999999" stroke-linecap="round" stroke-linejoin="round" transform="matrix(2.90377e-008 0.384615 -0.384615 2.90377e-008 223.552 51.4016)" />
	<path d="M 0 -256.744 L 0 256.745" fill="none" stroke="#000000" stroke-width="3.4666667" stroke-linecap="round" stroke-linejoin="round" transform="matrix(0.384615 0 0 0.384615 107.897 150.149)" />
	<path d="M -374.205 -196.572 L 374.205 -196.572, 374.205 196.572, -374.205 196.572 Z" fill="none" stroke="#000000" stroke-width="3.4666667" stroke-linecap="round" stroke-linejoin="round" transform="matrix(0.384615 0 -0 0.384615 188.941 173.292)" />
	<path d="M -17.1518 -10.482 L -17.1518 10.482, 17.1518 0 Z" stroke="none" fill="#000000" transform="matrix(2.90377e-008 0.384615 0.384615 -2.90377e-008 45.016 206.734)" />
	<path d="M -47.3699 -11.8423 L 47.3699 -11.8423, 47.3699 11.8423, -47.3699 11.8423 Z" stroke="none" fill="#FFFFFF" transform="matrix(2.90377e-008 0.384615 -0.384615 2.90377e-008 107.897 173.292)" />
	<path d="M -47.3699 -11.8423 L 47.3699 -11.8423, 47.3699 11.8423, -47.3699 11.8423 Z" fill="none" stroke="#000000" stroke-width="3.89999986" stroke-linecap="round" stroke-linejoin="round" transform="matrix(2.90377e-008 0.384615 -0.384615 2.90377e-008 107.897 173.292)" />
	<path d="M 0 -59.2117 L 0 -39.4745" fill="none" stroke="#000000" stroke-width="2.5999999" stroke-linecap="round" stroke-linejoin="round" transform="matrix(0.384615 -1.16151e-007 1.16151e-007 0.384615 45.016 173.292)" />
	<path d="M 0 59.2117 L 0 39.4745" fill="none" stroke="#000000" stroke-width="2.5999999" stroke-linecap="round" stroke-linejoin="round" transform="matrix(0.384615 -1.16151e-007 1.16151e-007 0.384615 45.016 173.292)" />
	<path d="M 39.4745 -0 C 39.4745 21.8012, 21.8012 39.4745, -0 39.4745, -21.8012 39.4745, -39.4745 21.8012, -39.4745 -0, -39.4745 -21.8012, -21.8012 -39.4745, -0 -39.4745, 21.8012 -39.4745, 39.4745 -21.8012, 39.4745 -0 Z" stroke="none" fill="#FFFFFF" transform="matrix(0.384615 -1.16151e-007 1.16151e-007 0.384615 45.016 173.292)" />
	<path d="M 39.4745 -0 C 39.4745 21.8012, 21.8012 39.4745, -0 39.4745, -21.8012 39.4745, -39.4745 21.8012, -39.4745 -0, -39.4745 -21.8012, -21.8012 -39.4745, -0 -39.4745, 21.8012 -39.4745, 39.4745 -21.8012, 39.4745 -0 Z" fill="none" stroke="#000000" stroke-width="3.89999986" stroke-linecap="round" stroke-linejoin="round" transform="matrix(0.384615 -1.16151e-007 1.16151e-007 0.384615 45.016 173.292)" />
	<path d="M -39.4745 0 L 39.4745 0" fill="none" stroke="#000000" stroke-width="2.5999999" stroke-linecap="round" stroke-linejoin="round" transform="matrix(0.384615 -1.16151e-007 1.16151e-007 0.384615 45.016 173.292)" />
	<g transform="matrix(1 0 -0 1 8.99998 194.771)">
		<svg width="77.9182587" height="45.2233963">
			<defs />
			<path d="M 7.60602 16.7669 L 0.079969 16.7669, 0.079969 16.2732 C 0.079969 16.2379, 0.098484 16.184, 0.135514 16.1116 L 3.15906 12.826 C 3.51646 12.4316, 3.87834 12.0277, 4.24528 11.6147, 4.61221 11.2018, 4.94099 10.7799, 5.2305 10.349, 5.52 9.91808, 5.75116 9.47372, 5.92396 9.01589, 6.09677 8.55807, 6.18261 8.0778, 6.18261 7.57453, 6.18261 7.15037, 6.12707 6.7537, 6.01598 6.38565, 5.90489 6.01759, 5.74499 5.69442, 5.53515 5.41613, 5.32588 5.13785, 5.06386 4.91343, 4.74967 4.74286, 4.43547 4.5723, 4.07135 4.48702, 3.65841 4.48646, 3.04236 4.48702, 2.49814 4.67105, 2.02628 5.0391, 1.55499 5.40716, 1.24192 5.8128, 1.08763 6.25492, 1.05733 6.26726, 1.10671 6.27343, 1.23575 6.27287 L 1.39285 6.27287 C 1.578 6.31551, 1.7379 6.38004, 1.87368 6.46644, 2.00945 6.5534, 2.12335 6.67291, 2.21592 6.82552, 2.3085 6.97812, 2.3545 7.16215, 2.3545 7.37704, 2.3545 7.73668, 2.2378 8.01216, 2.00328 8.20348, 1.76876 8.39536, 1.50674 8.49074, 1.21724 8.49018, 0.940073 8.49074, 0.680864 8.39536, 0.44073 8.20348, 0.200597 8.01216, 0.079969 7.73668, 0.079969 7.37704, 0.079969 6.87489, 0.178716 6.39911, 0.376208 5.95026, 0.573702 5.50142, 0.841327 5.1126, 1.18021 4.78326, 1.51909 4.45448, 1.91968 4.19415, 2.382 4.00226, 2.84431 3.81094, 3.33468 3.715, 3.85253 3.71444, 4.49382 3.715, 5.08125 3.80926, 5.61426 3.99778, 6.14727 4.18629, 6.60173 4.45728, 6.97763 4.81019, 7.35354 5.16366, 7.6481 5.57211, 7.86074 6.03554, 8.07338 6.49954, 8.17942 7.01235, 8.17942 7.57453, 8.17942 8.19731, 8.03804 8.77071, 7.75414 9.29418, 7.47081 9.81821, 7.11958 10.2985, 6.70047 10.735, 6.28136 11.172, 5.83588 11.5833, 5.36403 11.9693, 4.89274 12.3553, 4.46577 12.7307, 4.08369 13.0954 L 1.95671 15.0972, 4.74013 15.0972 C 5.12838 15.0978, 5.49083 15.095, 5.82634 15.0888, 6.16242 15.0832, 6.44743 15.0708, 6.68196 15.0529, 6.91648 15.0349, 7.03655 15.0232, 7.04216 15.0164, 7.09153 14.9749, 7.1381 14.8913, 7.1813 14.7656, 7.2245 14.64, 7.26434 14.4918, 7.30137 14.3213, 7.3384 14.1507, 7.37543 13.9773, 7.41246 13.8006, 7.44949 13.6244, 7.48315 13.4309, 7.51401 13.221 L 8.19794 13.221 Z" stroke="none" fill="#000000" />
			<path d="M 24.8231 16.8334 C 24.0056 16.7911, 23.2166 16.7693, 22.4552 16.7693 L 22.0871 16.7693 C 21.2003 16.7819, 20.2785 16.8002, 19.3224 16.8243 L 19.3224 16.064 C 19.6058 16.0646, 19.8606 16.0542, 20.0867 16.0325, 20.3134 16.0113, 20.5144 15.9667, 20.6907 15.8991, 20.7726 15.8567, 20.8447 15.7926, 20.9077 15.7067, 20.9329 15.677, 20.9455 15.6369, 20.9455 15.5877, 20.9455 15.5636, 20.9426 15.5361, 20.9358 15.5052 L 19.8698 12.5465, 15.237 12.5465, 14.3599 15.0014 C 14.3284 15.0753, 14.3124 15.1457, 14.3124 15.2121, 14.3124 15.2739, 14.3221 15.3346, 14.341 15.3953, 14.3914 15.5304, 14.4733 15.6403, 14.5861 15.7251, 14.7498 15.8602, 14.9244 15.9501, 15.1099 15.9959, 15.2954 16.0417, 15.5204 16.0646, 15.7843 16.064 L 15.7843 16.8243 C 15.0235 16.8002, 14.2969 16.7819, 13.6048 16.7693 L 13.3128 16.7693 C 12.7088 16.7693, 12.0796 16.7911, 11.4258 16.8334 L 11.4258 16.064 C 11.7281 16.0646, 11.9903 16.0451, 12.2136 16.005, 12.4369 15.9655, 12.6521 15.8876, 12.8594 15.7709, 13.1994 15.5819, 13.4382 15.3043, 13.5767 14.9373 L 17.6524 3.4596 C 17.7154 3.27697, 17.8476 3.18824, 18.0486 3.19396 L 18.1997 3.19396 C 18.4013 3.19453, 18.5329 3.28327, 18.5959 3.4596 L 22.8794 15.4502 C 22.9115 15.567, 22.9602 15.6707, 23.026 15.7623, 23.0924 15.8539, 23.1817 15.9151, 23.2945 15.9449, 23.4582 16.0067, 23.6741 16.0417, 23.9414 16.0508, 24.2088 16.06, 24.5025 16.0646, 24.8231 16.064 L 24.8231 16.8334 Z M 17.5677 6.04277 L 15.5107 11.7862, 19.5961 11.7862 Z" stroke="none" fill="#000000" />
			<rect />
		</svg>
	</g>
	<ellipse cx="1001.9372434616089" cy="509.76658916473389" rx="6.8249998092651367" ry="6.8249998092651367" stroke="none" fill="#E50A00" transform="matrix(0.384615 0 0 0.384615 -277.463 -98.3758)" />
	<ellipse cx="1001.9372434616089" cy="902.91026592254639" rx="6.8249998092651367" ry="6.8249998092651367" stroke="none" fill="#000000" transform="matrix(0.384615 0 0 0.384615 -277.463 -98.3758)" />
	<ellipse cx="1423.3629636764526" cy="902.91026592254639" rx="6.8249998092651367" ry="6.8249998092651367" stroke="none" fill="#000000" transform="matrix(0.384615 0 0 0.384615 -277.463 -98.3758)" />
	<g transform="matrix(1 0 -0 1 94.1621 72.8617)">
		<svg width="29.9820518" height="45.2233963">
			<defs />
			<path d="M 7.09095 16.8477 C 5.83417 16.8062, 4.61948 16.7849, 3.44799 16.7849, 2.31409 16.7849, 1.12744 16.8062, -0.111375 16.8477 L -0.111375 15.6179, 2.10761 15.6179, 2.10761 6.08436 C 1.85514 6.17469, 1.51121 6.24089, 1.07639 6.28241, 0.642128 6.32449, 0.150639 6.34525, -0.398077 6.34469 L -0.398077 5.11485 C 0.458661 5.11541, 1.23348 5.03349, 1.92695 4.86854, 2.62042 4.70415, 3.24488 4.36415, 3.79977 3.8491 L 4.2806 3.8491 C 4.44106 3.84966, 4.56898 3.90352, 4.66436 4.01124, 4.75974 4.11897, 4.80743 4.23567, 4.80743 4.36078 L 4.80743 15.6179, 7.09095 15.6179, 7.09095 16.8477 Z" stroke="none" fill="#E50A00" />
			<rect />
		</svg>
	</g>
	<path d="M 0 -256.744 L 0 256.745" fill="none" stroke="#000000" stroke-width="3.4666667" stroke-linecap="round" stroke-linejoin="round" transform="matrix(0.384615 0 0 0.384615 269.984 150.149)" />
	<path d="M -47.3699 -11.8421 L 47.3699 -11.8421, 47.3699 11.8421, -47.3699 11.8421 Z" stroke="none" fill="#FFFFFF" transform="matrix(2.90377e-008 0.384615 -0.384615 2.90377e-008 269.984 173.292)" />
	<path d="M -47.3699 -11.8421 L 47.3699 -11.8421, 47.3699 11.8421, -47.3699 11.8421 Z" fill="none" stroke="#000000" stroke-width="3.89999986" stroke-linecap="round" stroke-linejoin="round" transform="matrix(2.90377e-008 0.384615 -0.384615 2.90377e-008 269.984 173.292)" />
	<g transform="matrix(1 0 -0 1 120.208 162.085)">
		<svg width="75.0478287" height="45.2233963">
			<defs />
			<path d="M 6.82303 16.7669 C 5.68913 16.731, 4.58609 16.7131, 3.51334 16.7131, 2.44116 16.7131, 1.33812 16.731, 0.204215 16.7669 L 0.204215 15.9949, 0.84214 15.9949 C 1.04524 15.9955, 1.23656 15.9927, 1.41498 15.9865, 1.59396 15.9809, 1.7634 15.9657, 1.92386 15.9416, 2.08433 15.918, 2.22291 15.8939, 2.33961 15.8692, 2.43835 15.8518, 2.51971 15.7969, 2.58423 15.7037, 2.64931 15.6111, 2.68129 15.5079, 2.68129 15.3935 L 2.68129 5.27643 C 2.37383 5.4268, 1.99456 5.54069, 1.54459 5.61812, 1.09462 5.6961, 0.602006 5.73482, 0.0656334 5.73426 L 0.0656334 4.97122 C 0.80511 4.97178, 1.48792 4.88369, 2.1135 4.70696, 2.73908 4.53078, 3.27994 4.19976, 3.73552 3.71444 L 4.02223 3.71444 C 4.22533 3.715, 4.32688 3.81375, 4.32688 4.01068 L 4.32688 15.3935 C 4.32688 15.5135, 4.35774 15.6184, 4.41946 15.7082, 4.48117 15.798, 4.57094 15.8518, 4.68764 15.8692, 4.78639 15.8939, 4.91319 15.918, 5.06692 15.9416, 5.22065 15.9657, 5.39458 15.9809, 5.5887 15.9865, 5.78283 15.9927, 5.97247 15.9955, 6.15762 15.9949 L 6.82303 15.9949, 6.82303 16.7669 Z" stroke="none" fill="#000000" />
			<path d="M 22.6413 16.6044 C 22.6035 16.751, 22.4999 16.8243, 22.3298 16.8243 L 19.2079 16.8243 C 19.0007 16.8243, 18.8965 16.7241, 18.8965 16.522, 18.8965 15.7714, 19.0081 15.0478, 19.2314 14.3516, 19.4547 13.6554, 19.6986 12.9673, 19.9625 12.286, 20.227 11.6053, 20.4657 10.9257, 20.6793 10.2479, 20.8934 9.57, 20.9999 8.88013, 20.9999 8.17708, 20.9999 7.62805, 20.9152 7.09561, 20.7451 6.57921, 20.5757 6.06338, 20.3083 5.60995, 19.9436 5.21893, 19.5789 4.82848, 19.1484 4.52905, 18.6514 4.32123, 18.1545 4.11398, 17.6358 4.00979, 17.0948 4.00921, 16.5543 4.00979, 16.0357 4.11398, 15.5387 4.32123, 15.0418 4.52905, 14.613 4.82848, 14.2511 5.21893, 13.8893 5.60995, 13.622 6.06338, 13.4491 6.57921, 13.2762 7.09561, 13.1897 7.62805, 13.1897 8.17708, 13.1897 8.88013, 13.2985 9.57, 13.5149 10.2479, 13.7319 10.9257, 13.9723 11.6053, 14.2363 12.286, 14.5008 12.9673, 14.7441 13.6571, 14.9674 14.3562, 15.1906 15.0558, 15.3023 15.7777, 15.3023 16.522, 15.3023 16.7241, 15.2049 16.8243, 15.0103 16.8243 L 11.8592 16.8243 C 11.696 16.8243, 11.5953 16.751, 11.5575 16.6044 L 10.8974 13.9846 C 10.8974 13.8203, 10.9855 13.7167, 11.1613 13.6732 L 11.2649 13.6732 C 11.4287 13.6738, 11.5294 13.7499, 11.5672 13.9022, 11.668 14.3241, 11.7607 14.6722, 11.8455 14.947, 11.9302 15.2218, 11.9886 15.3684, 12.0195 15.3861, 12.0825 15.4354, 12.2336 15.4663, 12.4724 15.4783, 12.7117 15.4909, 12.9979 15.4966, 13.3311 15.496 L 14.5385 15.496 C 14.4069 14.947, 14.1567 14.3825, 13.7886 13.802, 13.421 13.222, 13.0386 12.6387, 12.6424 12.0524, 12.2462 11.4662, 11.8958 10.8587, 11.5907 10.2295, 11.2861 9.60092, 11.1333 8.91677, 11.1333 8.17708, 11.1333 7.49351, 11.2936 6.86203, 11.6142 6.28151, 11.9348 5.70155, 12.3659 5.20347, 12.9063 4.78783, 13.4914 4.31837, 14.1458 3.96857, 14.8689 3.73956, 15.592 3.51056, 16.3339 3.39606, 17.0948 3.39548, 17.8562 3.39606, 18.5982 3.51056, 19.3213 3.73956, 20.0444 3.96857, 20.7079 4.31837, 21.3113 4.78783, 21.8398 5.21606, 22.2674 5.71816, 22.5943 6.29525, 22.9212 6.87234, 23.0844 7.49981, 23.0844 8.17708, 23.0844 8.91677, 22.9321 9.60092, 22.627 10.2295, 22.3224 10.8587, 21.9686 11.4662, 21.5661 12.0524, 21.1636 12.6387, 20.7766 13.222, 20.4056 13.802, 20.0346 14.3825, 19.7833 14.947, 19.6511 15.496 L 20.8676 15.496 C 21.2014 15.4966, 21.4877 15.4909, 21.7264 15.4783, 21.9657 15.4663, 22.1163 15.4354, 22.1793 15.3861, 22.1981 15.3747, 22.2514 15.2281, 22.3396 14.947, 22.4277 14.6665, 22.5216 14.3178, 22.6224 13.9022, 22.6602 13.7562, 22.7644 13.68, 22.9338 13.6732 L 23.0374 13.6732 C 23.2075 13.7104, 23.2922 13.814, 23.2922 13.9846 Z" stroke="none" fill="#000000" />
			<rect />
		</svg>
	</g>
	<g transform="matrix(1 0 -0 1 231.796 162.085)">
		<svg width="77.9182587" height="45.2233963">
			<defs />
			<path d="M 7.60405 16.7669 L 0.0791219 16.7669, 0.0791219 16.2732 C 0.0791219 16.2379, 0.0976369 16.184, 0.134667 16.1116 L 3.15766 12.826 C 3.51561 12.4316, 3.8775 12.0277, 4.24443 11.6147, 4.61136 11.2018, 4.93902 10.7799, 5.22853 10.349, 5.51803 9.91808, 5.74919 9.47372, 5.922 9.01589, 6.0948 8.55807, 6.18064 8.0778, 6.18064 7.57453, 6.18064 7.15037, 6.12566 6.7537, 6.01457 6.38565, 5.90348 6.01759, 5.74358 5.69442, 5.53374 5.41613, 5.32391 5.13785, 5.06189 4.91343, 4.7477 4.74286, 4.4335 4.5723, 4.06994 4.48702, 3.657 4.48646, 3.04096 4.48702, 2.49673 4.67105, 2.02544 5.0391, 1.55415 5.40716, 1.24108 5.8128, 1.08678 6.25492, 1.05649 6.26726, 1.10586 6.27343, 1.2349 6.27287 L 1.392 6.27287 C 1.57715 6.31551, 1.73705 6.38004, 1.87283 6.46644, 2.00861 6.5534, 2.1225 6.67291, 2.21508 6.82552, 2.30765 6.97812, 2.35366 7.16215, 2.35366 7.37704, 2.35366 7.73668, 2.23696 8.01216, 2.00243 8.20348, 1.76791 8.39536, 1.5059 8.49074, 1.21639 8.49018, 0.939226 8.49074, 0.680578 8.39536, 0.439883 8.20348, 0.19975 8.01216, 0.0791219 7.73668, 0.0791219 7.37704, 0.0791219 6.87489, 0.177868 6.39911, 0.375361 5.95026, 0.572854 5.50142, 0.84048 5.1126, 1.17936 4.78326, 1.51824 4.45448, 1.91884 4.19415, 2.38115 4.00226, 2.84346 3.81094, 3.33383 3.715, 3.85113 3.71444, 4.49186 3.715, 5.07928 3.80926, 5.61229 3.99778, 6.1453 4.18629, 6.59976 4.45728, 6.97567 4.81019, 7.35157 5.16366, 7.64613 5.57211, 7.85877 6.03554, 8.07141 6.49954, 8.17745 7.01235, 8.17745 7.57453, 8.17745 8.19731, 8.03607 8.77071, 7.75217 9.29418, 7.46884 9.81821, 7.11761 10.2985, 6.6985 10.735, 6.27939 11.172, 5.83391 11.5833, 5.36262 11.9693, 4.89133 12.3553, 4.46436 12.7307, 4.08228 13.0954 L 1.95587 15.0972, 4.73872 15.0972 C 5.12697 15.0978, 5.48942 15.095, 5.82493 15.0888, 6.16101 15.0832, 6.44603 15.0708, 6.67999 15.0529, 6.91451 15.0349, 7.03458 15.0232, 7.04019 15.0164, 7.08956 14.9749, 7.13613 14.8913, 7.17933 14.7656, 7.22253 14.64, 7.26237 14.4918, 7.2994 14.3213, 7.33643 14.1507, 7.37346 13.9773, 7.41049 13.8006, 7.44752 13.6244, 7.48118 13.4309, 7.51204 13.221 L 8.19597 13.221 Z" stroke="none" fill="#000000" />
			<path d="M 23.3964 16.6044 C 23.3586 16.751, 23.255 16.8243, 23.085 16.8243 L 19.9631 16.8243 C 19.7558 16.8243, 19.6516 16.7241, 19.6516 16.522, 19.6516 15.7714, 19.7633 15.0478, 19.9865 14.3516, 20.2098 13.6554, 20.4537 12.9673, 20.7176 12.286, 20.9821 11.6053, 21.2209 10.9257, 21.4344 10.2479, 21.6485 9.57, 21.755 8.88013, 21.755 8.17708, 21.755 7.62805, 21.6703 7.09561, 21.5003 6.57921, 21.3308 6.06338, 21.0634 5.60995, 20.6987 5.21893, 20.3341 4.82848, 19.9035 4.52905, 19.4066 4.32123, 18.9097 4.11398, 18.391 4.00979, 17.8499 4.00921, 17.3095 4.00979, 16.7908 4.11398, 16.2939 4.32123, 15.7969 4.52905, 15.3681 4.82848, 15.0063 5.21893, 14.6445 5.60995, 14.3771 6.06338, 14.2042 6.57921, 14.0313 7.09561, 13.9448 7.62805, 13.9448 8.17708, 13.9448 8.88013, 14.0536 9.57, 14.27 10.2479, 14.487 10.9257, 14.7275 11.6053, 14.9914 12.286, 15.2559 12.9673, 15.4992 13.6571, 15.7225 14.3562, 15.9458 15.0558, 16.0574 15.7777, 16.0574 16.522, 16.0574 16.7241, 15.9601 16.8243, 15.7654 16.8243 L 12.6143 16.8243 C 12.4512 16.8243, 12.3504 16.751, 12.3126 16.6044 L 11.6525 13.9846 C 11.6525 13.8203, 11.7407 13.7167, 11.9164 13.6732 L 12.0201 13.6732 C 12.1838 13.6738, 12.2846 13.7499, 12.3224 13.9022, 12.4231 14.3241, 12.5159 14.6722, 12.6006 14.947, 12.6853 15.2218, 12.7437 15.3684, 12.7746 15.3861, 12.8376 15.4354, 12.9888 15.4663, 13.2275 15.4783, 13.4668 15.4909, 13.7531 15.4966, 14.0863 15.496 L 15.2937 15.496 C 15.162 14.947, 14.9118 14.3825, 14.5437 13.802, 14.1761 13.222, 13.7937 12.6387, 13.3975 12.0524, 13.0014 11.4662, 12.651 10.8587, 12.3458 10.2295, 12.0413 9.60092, 11.8884 8.91677, 11.8884 8.17708, 11.8884 7.49351, 12.0487 6.86203, 12.3693 6.28151, 12.6899 5.70155, 13.121 5.20347, 13.6615 4.78783, 14.2466 4.31837, 14.9009 3.96857, 15.624 3.73956, 16.3471 3.51056, 17.0891 3.39606, 17.8499 3.39548, 18.6114 3.39606, 19.3533 3.51056, 20.0764 3.73956, 20.7995 3.96857, 21.463 4.31837, 22.0665 4.78783, 22.5949 5.21606, 23.0226 5.71816, 23.3495 6.29525, 23.6764 6.87234, 23.8395 7.49981, 23.8395 8.17708, 23.8395 8.91677, 23.6872 9.60092, 23.3821 10.2295, 23.0775 10.8587, 22.7237 11.4662, 22.3212 12.0524, 21.9188 12.6387, 21.5317 13.222, 21.1608 13.802, 20.7898 14.3825, 20.5384 14.947, 20.4062 15.496 L 21.6228 15.496 C 21.9565 15.4966, 22.2428 15.4909, 22.4815 15.4783, 22.7208 15.4663, 22.8714 15.4354, 22.9344 15.3861, 22.9533 15.3747, 23.0065 15.2281, 23.0947 14.947, 23.1829 14.6665, 23.2768 14.3178, 23.3775 13.9022, 23.4153 13.7562, 23.5195 13.68, 23.689 13.6732 L 23.7926 13.6732 C 23.9626 13.7104, 24.0474 13.814, 24.0474 13.9846 Z" stroke="none" fill="#000000" />
			<rect />
		</svg>
	</g>
	<path d="M -47.3699 -11.8423 L 47.3699 -11.8423, 47.3699 11.8423, -47.3699 11.8423 Z" stroke="none" fill="#FFFFFF" transform="matrix(2.90377e-008 0.384615 -0.384615 2.90377e-008 332.866 172.152)" />
	<path d="M -47.3699 -11.8423 L 47.3699 -11.8423, 47.3699 11.8423, -47.3699 11.8423 Z" fill="none" stroke="#000000" stroke-width="3.89999986" stroke-linecap="round" stroke-linejoin="round" transform="matrix(2.90377e-008 0.384615 -0.384615 2.90377e-008 332.866 172.152)" />
	<g transform="matrix(1 0 -0 1 346.876 162.085)">
		<svg width="75.0478287" height="45.2233963">
			<defs />
			<path d="M 6.82303 16.7669 C 5.68913 16.731, 4.58609 16.7131, 3.51334 16.7131, 2.44116 16.7131, 1.33812 16.731, 0.204215 16.7669 L 0.204215 15.9949, 0.84214 15.9949 C 1.04524 15.9955, 1.23656 15.9927, 1.41498 15.9865, 1.59396 15.9809, 1.7634 15.9657, 1.92386 15.9416, 2.08433 15.918, 2.22291 15.8939, 2.33961 15.8692, 2.43835 15.8518, 2.51971 15.7969, 2.58423 15.7037, 2.64931 15.6111, 2.68129 15.5079, 2.68129 15.3935 L 2.68129 5.27643 C 2.37383 5.4268, 1.99456 5.54069, 1.54459 5.61812, 1.09462 5.6961, 0.602006 5.73482, 0.0656334 5.73426 L 0.0656334 4.97122 C 0.80511 4.97178, 1.48792 4.88369, 2.1135 4.70696, 2.73908 4.53078, 3.27994 4.19976, 3.73552 3.71444 L 4.02223 3.71444 C 4.22533 3.715, 4.32688 3.81375, 4.32688 4.01068 L 4.32688 15.3935 C 4.32688 15.5135, 4.35774 15.6184, 4.41946 15.7082, 4.48117 15.798, 4.57094 15.8518, 4.68764 15.8692, 4.78639 15.8939, 4.91319 15.918, 5.06692 15.9416, 5.22065 15.9657, 5.39458 15.9809, 5.5887 15.9865, 5.78283 15.9927, 5.97247 15.9955, 6.15762 15.9949 L 6.82303 15.9949, 6.82303 16.7669 Z" stroke="none" fill="#000000" />
			<path d="M 22.6413 16.6044 C 22.6035 16.751, 22.4999 16.8243, 22.3298 16.8243 L 19.2079 16.8243 C 19.0007 16.8243, 18.8965 16.7241, 18.8965 16.522, 18.8965 15.7714, 19.0081 15.0478, 19.2314 14.3516, 19.4547 13.6554, 19.6986 12.9673, 19.9625 12.286, 20.227 11.6053, 20.4657 10.9257, 20.6793 10.2479, 20.8934 9.57, 20.9999 8.88013, 20.9999 8.17708, 20.9999 7.62805, 20.9152 7.09561, 20.7451 6.57921, 20.5757 6.06338, 20.3083 5.60995, 19.9436 5.21893, 19.5789 4.82848, 19.1484 4.52905, 18.6514 4.32123, 18.1545 4.11398, 17.6358 4.00979, 17.0948 4.00921, 16.5543 4.00979, 16.0357 4.11398, 15.5387 4.32123, 15.0418 4.52905, 14.613 4.82848, 14.2511 5.21893, 13.8893 5.60995, 13.622 6.06338, 13.4491 6.57921, 13.2762 7.09561, 13.1897 7.62805, 13.1897 8.17708, 13.1897 8.88013, 13.2985 9.57, 13.5149 10.2479, 13.7319 10.9257, 13.9723 11.6053, 14.2363 12.286, 14.5008 12.9673, 14.7441 13.6571, 14.9674 14.3562, 15.1906 15.0558, 15.3023 15.7777, 15.3023 16.522, 15.3023 16.7241, 15.2049 16.8243, 15.0103 16.8243 L 11.8592 16.8243 C 11.696 16.8243, 11.5953 16.751, 11.5575 16.6044 L 10.8974 13.9846 C 10.8974 13.8203, 10.9855 13.7167, 11.1613 13.6732 L 11.2649 13.6732 C 11.4287 13.6738, 11.5294 13.7499, 11.5672 13.9022, 11.668 14.3241, 11.7607 14.6722, 11.8455 14.947, 11.9302 15.2218, 11.9886 15.3684, 12.0195 15.3861, 12.0825 15.4354, 12.2336 15.4663, 12.4724 15.4783, 12.7117 15.4909, 12.9979 15.4966, 13.3311 15.496 L 14.5385 15.496 C 14.4069 14.947, 14.1567 14.3825, 13.7886 13.802, 13.421 13.222, 13.0386 12.6387, 12.6424 12.0524, 12.2462 11.4662, 11.8958 10.8587, 11.5907 10.2295, 11.2861 9.60092, 11.1333 8.91677, 11.1333 8.17708, 11.1333 7.49351, 11.2936 6.86203, 11.6142 6.28151, 11.9348 5.70155, 12.3659 5.20347, 12.9063 4.78783, 13.4914 4.31837, 14.1458 3.96857, 14.8689 3.73956, 15.592 3.51056, 16.3339 3.39606, 17.0948 3.39548, 17.8562 3.39606, 18.5982 3.51056, 19.3213 3.73956, 20.0444 3.96857, 20.7079 4.31837, 21.3113 4.78783, 21.8398 5.21606, 22.2674 5.71816, 22.5943 6.29525, 22.9212 6.87234, 23.0844 7.49981, 23.0844 8.17708, 23.0844 8.91677, 22.9321 9.60092, 22.627 10.2295, 22.3224 10.8587, 21.9686 11.4662, 21.5661 12.0524, 21.1636 12.6387, 20.7766 13.222, 20.4056 13.802, 20.0346 14.3825, 19.7833 14.947, 19.6511 15.496 L 20.8676 15.496 C 21.2014 15.4966, 21.4877 15.4909, 21.7264 15.4783, 21.9657 15.4663, 22.1163 15.4354, 22.1793 15.3861, 22.1981 15.3747, 22.2514 15.2281, 22.3396 14.947, 22.4277 14.6665, 22.5216 14.3178, 22.6224 13.9022, 22.6602 13.7562, 22.7644 13.68, 22.9338 13.6732 L 23.0374 13.6732 C 23.2075 13.7104, 23.2922 13.814, 23.2922 13.9846 Z" stroke="none" fill="#000000" />
			<rect />
		</svg>
	</g>
	<rect x="-47.3693848" y="-11.8422318" width="94.7387695" height="23.6844635" stroke="none" fill="#FFFFFF" transform="matrix(0.384615 0 -0 0.384615 188.941 97.6882)" />
	<path d="M -47.3694 -11.8422 L 47.3694 -11.8422, 47.3694 11.8422, -47.3694 11.8422 Z" fill="none" stroke="#000000" stroke-width="3.89999986" stroke-linecap="round" stroke-linejoin="round" transform="matrix(0.384615 0 -0 0.384615 188.941 97.6882)" />
	<path d="M -210.714 0 L 210.712 0" fill="none" stroke="#000000" stroke-width="3.4666667" stroke-linecap="round" stroke-linejoin="round" transform="matrix(0.384615 0 0 0.384615 188.941 51.4016)" />
	<rect x="-42.5705566" y="-11.8423462" width="85.1411133" height="23.6846924" stroke="none" fill="#FFFFFF" transform="matrix(0.384615 0 -0 0.384615 156.688 51.4016)" />
	<path d="M -42.5706 -11.8423 L 42.5706 -11.8423, 42.5706 11.8423, -42.5706 11.8423 Z" fill="none" stroke="#000000" stroke-width="3.89999986" stroke-linecap="round" stroke-linejoin="round" transform="matrix(0.384615 0 -0 0.384615 156.688 51.4016)" />
	<g transform="matrix(1 0 -0 1 210.908 9)">
		<svg width="81.075737" height="48.0957298">
			<defs />
			<path d="M 8.50221 12.7632 C 8.50221 13.386, 8.41019 13.9442, 8.22504 14.438, 8.03989 14.9317, 7.7257 15.4181, 7.2819 15.8962, 6.84428 16.3456, 6.39599 16.6732, 5.93704 16.8791, 5.4781 17.0856, 4.92489 17.1888, 4.27743 17.1888, 3.61818 17.1888, 3.01448 17.0261, 2.46577 16.6996, 1.91705 16.3742, 1.47942 15.9326, 1.15289 15.3755, 0.690575 14.6158, 0.39658 13.8141, 0.270341 12.9702, 0.144103 12.1264, 0.0807031 11.2854, 0.0807031 10.4472, 0.0807031 9.61005, 0.202453 8.78586, 0.445953 7.97457, 0.689453 7.16384, 1.07883 6.41426, 1.6152 5.72528, 2.06517 5.13953, 2.61389 4.65758, 3.26079 4.28055, 3.90825 3.90352, 4.61967 3.715, 5.39618 3.71444, 6.14239 3.715, 6.7618 3.90689, 7.25441 4.28953, 7.74758 4.67273, 7.99389 5.22313, 7.99389 5.94073, 7.99389 6.27624, 7.89233 6.52479, 7.68867 6.68637, 7.48557 6.84796, 7.25104 6.92875, 6.98622 6.92819, 6.73375 6.92875, 6.50708 6.84796, 6.30678 6.68637, 6.10648 6.52479, 6.00605 6.27624, 6.00605 5.94073, 6.00605 5.58221, 6.13902 5.3129, 6.40384 5.1328, 6.57665 5.02564, 6.77078 4.97178, 6.98622 4.97122, 7.05411 4.97178, 7.06309 4.96897, 7.01372 4.96224, 6.92787 4.83095, 6.73824 4.70135, 6.44536 4.5723, 6.15249 4.44382, 5.80295 4.3793, 5.39618 4.37874, 4.84746 4.3793, 4.35485 4.54257, 3.91723 4.86854, 3.4796 5.19508, 3.10986 5.60297, 2.80745 6.09333, 2.45062 6.71611, 2.23461 7.39443, 2.16055 8.12718, 2.08649 8.86048, 2.04329 9.4451, 2.03095 9.88161, 2.14204 9.62464, 2.4091 9.30933, 2.83102 8.9351, 3.25293 8.56143, 3.78762 8.37404, 4.43453 8.37348, 5.05113 8.37404, 5.58301 8.47728, 6.02962 8.68375, 6.47622 8.89022, 6.90599 9.2117, 7.31893 9.64821, 7.75039 10.1274, 8.0556 10.6093, 8.23402 11.0941, 8.413 11.5788, 8.50221 12.1354, 8.50221 12.7632 Z M 6.53289 12.7632 C 6.53289 12.1892, 6.51493 11.6731, 6.4779 11.2152, 6.44087 10.7574, 6.318 10.3551, 6.10817 10.0073, 5.89272 9.65494, 5.65202 9.39461, 5.3872 9.22685, 5.12238 9.05966, 4.79865 8.9755, 4.41601 8.97494, 4.00307 8.9755, 3.65072 9.08041, 3.35785 9.28969, 3.06498 9.49953, 2.81699 9.77445, 2.61389 10.1156, 2.41078 10.4567, 2.26547 10.8545, 2.17907 11.3089, 2.11735 11.6209, 2.08649 11.953, 2.08649 12.3054, 2.08649 12.4434, 2.09266 12.5904, 2.10501 12.7453 L 2.10501 12.8171 C 2.12969 13.2665, 2.16392 13.6856, 2.20712 14.0744, 2.25032 14.4638, 2.31821 14.7808, 2.41022 15.0254, 2.58303 15.4569, 2.83719 15.807, 3.1727 16.0763, 3.50878 16.3456, 3.87683 16.4802, 4.27743 16.4797, 4.69037 16.4802, 5.03879 16.4011, 5.32212 16.2423, 5.60602 16.0841, 5.85569 15.8277, 6.07114 15.4742, 6.29332 15.1219, 6.42573 14.7224, 6.46837 14.2764, 6.51157 13.8309, 6.53289 13.3265, 6.53289 12.7632 Z" stroke="none" fill="#000000" />
			<path d="M 25.2262 4.57714 C 24.937 4.57772, 24.6823 4.59947, 24.4624 4.64184, 24.2426 4.68478, 24.0376 4.75806, 23.8487 4.86111, 23.5344 5.05118, 23.2956 5.33801, 23.1319 5.72216 L 18.7642 16.98 C 18.6829 17.1575, 18.5444 17.2428, 18.3492 17.2365 L 18.1986 17.2365 C 18.0039 17.2365, 17.8654 17.1512, 17.7835 16.98 L 13.2086 5.19087 C 13.1582 5.07523, 13.1015 4.9716, 13.0386 4.88, 12.9756 4.7884, 12.8846 4.72142, 12.7649 4.67791, 12.6206 4.62352, 12.418 4.59317, 12.1569 4.58688, 11.8958 4.58115, 11.6176 4.57772, 11.3216 4.57714 L 11.3216 3.81685 C 12.1334 3.86036, 12.9097 3.88154, 13.6517 3.88097, 13.7651 3.88154, 13.8882 3.87525, 14.0198 3.86265, 14.8815 3.86322, 15.7837 3.8512, 16.7272 3.82601 L 16.7272 4.57714 C 16.4444 4.57772, 16.1925 4.58401, 15.9727 4.59604, 15.7528 4.60863, 15.5542 4.65386, 15.3778 4.73287, 15.2965 4.77638, 15.2336 4.8342, 15.1895 4.90691, 15.158 4.95615, 15.142 5.00195, 15.142 5.04431, 15.142 5.0695, 15.1454 5.09698, 15.1517 5.12675 L 18.8495 14.5984, 22.3396 5.64888 C 22.371 5.57617, 22.3865 5.49373, 22.3865 5.40156, 22.3865 5.22522, 22.3018 5.06034, 22.1323 4.90691, 21.988 4.77924, 21.826 4.69222, 21.6462 4.64642, 21.4671 4.60062, 21.2392 4.57772, 20.9621 4.57714 L 20.9621 3.82601 C 21.7235 3.8512, 22.4403 3.86322, 23.113 3.86265, 23.2012 3.87525, 23.2956 3.88154, 23.3958 3.88097, 23.9746 3.88154, 24.5849 3.86036, 25.2262 3.81685 L 25.2262 4.57714 Z" stroke="none" fill="#000000" />
			<rect />
		</svg>
	</g>
	<g transform="matrix(1 0 -0 1 144.403 20.7361)">
		<svg width="77.9182587" height="45.2233963">
			<defs />
			<path d="M 7.60405 16.7669 L 0.0791219 16.7669, 0.0791219 16.2732 C 0.0791219 16.2379, 0.0976369 16.184, 0.134667 16.1116 L 3.15766 12.826 C 3.51561 12.4316, 3.8775 12.0277, 4.24443 11.6147, 4.61136 11.2018, 4.93902 10.7799, 5.22853 10.349, 5.51803 9.91808, 5.74919 9.47372, 5.922 9.01589, 6.0948 8.55807, 6.18064 8.0778, 6.18064 7.57453, 6.18064 7.15037, 6.12566 6.7537, 6.01457 6.38565, 5.90348 6.01759, 5.74358 5.69442, 5.53374 5.41613, 5.32391 5.13785, 5.06189 4.91343, 4.7477 4.74286, 4.4335 4.5723, 4.06994 4.48702, 3.657 4.48646, 3.04096 4.48702, 2.49673 4.67105, 2.02544 5.0391, 1.55415 5.40716, 1.24108 5.8128, 1.08678 6.25492, 1.05649 6.26726, 1.10586 6.27343, 1.2349 6.27287 L 1.392 6.27287 C 1.57715 6.31551, 1.73705 6.38004, 1.87283 6.46644, 2.00861 6.5534, 2.1225 6.67291, 2.21508 6.82552, 2.30765 6.97812, 2.35366 7.16215, 2.35366 7.37704, 2.35366 7.73668, 2.23696 8.01216, 2.00243 8.20348, 1.76791 8.39536, 1.5059 8.49074, 1.21639 8.49018, 0.939226 8.49074, 0.680578 8.39536, 0.439883 8.20348, 0.19975 8.01216, 0.0791219 7.73668, 0.0791219 7.37704, 0.0791219 6.87489, 0.177868 6.39911, 0.375361 5.95026, 0.572854 5.50142, 0.84048 5.1126, 1.17936 4.78326, 1.51824 4.45448, 1.91884 4.19415, 2.38115 4.00226, 2.84346 3.81094, 3.33383 3.715, 3.85113 3.71444, 4.49186 3.715, 5.07928 3.80926, 5.61229 3.99778, 6.1453 4.18629, 6.59976 4.45728, 6.97567 4.81019, 7.35157 5.16366, 7.64613 5.57211, 7.85877 6.03554, 8.07141 6.49954, 8.17745 7.01235, 8.17745 7.57453, 8.17745 8.19731, 8.03607 8.77071, 7.75217 9.29418, 7.46884 9.81821, 7.11761 10.2985, 6.6985 10.735, 6.27939 11.172, 5.83391 11.5833, 5.36262 11.9693, 4.89133 12.3553, 4.46436 12.7307, 4.08228 13.0954 L 1.95587 15.0972, 4.73872 15.0972 C 5.12697 15.0978, 5.48942 15.095, 5.82493 15.0888, 6.16101 15.0832, 6.44603 15.0708, 6.67999 15.0529, 6.91451 15.0349, 7.03458 15.0232, 7.04019 15.0164, 7.08956 14.9749, 7.13613 14.8913, 7.17933 14.7656, 7.22253 14.64, 7.26237 14.4918, 7.2994 14.3213, 7.33643 14.1507, 7.37346 13.9773, 7.41049 13.8006, 7.44752 13.6244, 7.48118 13.4309, 7.51204 13.221 L 8.19597 13.221 Z" stroke="none" fill="#000000" />
			<path d="M 23.3964 16.6044 C 23.3586 16.751, 23.255 16.8243, 23.085 16.8243 L 19.9631 16.8243 C 19.7558 16.8243, 19.6516 16.7241, 19.6516 16.522, 19.6516 15.7714, 19.7633 15.0478, 19.9865 14.3516, 20.2098 13.6554, 20.4537 12.9673, 20.7176 12.286, 20.9821 11.6053, 21.2209 10.9257, 21.4344 10.2479, 21.6485 9.57, 21.755 8.88013, 21.755 8.17708, 21.755 7.62805, 21.6703 7.09561, 21.5003 6.57921, 21.3308 6.06338, 21.0634 5.60995, 20.6987 5.21893, 20.3341 4.82848, 19.9035 4.52905, 19.4066 4.32123, 18.9097 4.11398, 18.391 4.00979, 17.8499 4.00921, 17.3095 4.00979, 16.7908 4.11398, 16.2939 4.32123, 15.7969 4.52905, 15.3681 4.82848, 15.0063 5.21893, 14.6445 5.60995, 14.3771 6.06338, 14.2042 6.57921, 14.0313 7.09561, 13.9448 7.62805, 13.9448 8.17708, 13.9448 8.88013, 14.0536 9.57, 14.27 10.2479, 14.487 10.9257, 14.7275 11.6053, 14.9914 12.286, 15.2559 12.9673, 15.4992 13.6571, 15.7225 14.3562, 15.9458 15.0558, 16.0574 15.7777, 16.0574 16.522, 16.0574 16.7241, 15.9601 16.8243, 15.7654 16.8243 L 12.6143 16.8243 C 12.4512 16.8243, 12.3504 16.751, 12.3126 16.6044 L 11.6525 13.9846 C 11.6525 13.8203, 11.7407 13.7167, 11.9164 13.6732 L 12.0201 13.6732 C 12.1838 13.6738, 12.2846 13.7499, 12.3224 13.9022, 12.4231 14.3241, 12.5159 14.6722, 12.6006 14.947, 12.6853 15.2218, 12.7437 15.3684, 12.7746 15.3861, 12.8376 15.4354, 12.9888 15.4663, 13.2275 15.4783, 13.4668 15.4909, 13.7531 15.4966, 14.0863 15.496 L 15.2937 15.496 C 15.162 14.947, 14.9118 14.3825, 14.5437 13.802, 14.1761 13.222, 13.7937 12.6387, 13.3975 12.0524, 13.0014 11.4662, 12.651 10.8587, 12.3458 10.2295, 12.0413 9.60092, 11.8884 8.91677, 11.8884 8.17708, 11.8884 7.49351, 12.0487 6.86203, 12.3693 6.28151, 12.6899 5.70155, 13.121 5.20347, 13.6615 4.78783, 14.2466 4.31837, 14.9009 3.96857, 15.624 3.73956, 16.3471 3.51056, 17.0891 3.39606, 17.8499 3.39548, 18.6114 3.39606, 19.3533 3.51056, 20.0764 3.73956, 20.7995 3.96857, 21.463 4.31837, 22.0665 4.78783, 22.5949 5.21606, 23.0226 5.71816, 23.3495 6.29525, 23.6764 6.87234, 23.8395 7.49981, 23.8395 8.17708, 23.8395 8.91677, 23.6872 9.60092, 23.3821 10.2295, 23.0775 10.8587, 22.7237 11.4662, 22.3212 12.0524, 21.9188 12.6387, 21.5317 13.222, 21.1608 13.802, 20.7898 14.3825, 20.5384 14.947, 20.4062 15.496 L 21.6228 15.496 C 21.9565 15.4966, 22.2428 15.4909, 22.4815 15.4783, 22.7208 15.4663, 22.8714 15.4354, 22.9344 15.3861, 22.9533 15.3747, 23.0065 15.2281, 23.0947 14.947, 23.1829 14.6665, 23.2768 14.3178, 23.3775 13.9022, 23.4153 13.7562, 23.5195 13.68, 23.689 13.6732 L 23.7926 13.6732 C 23.9626 13.7104, 24.0474 13.814, 24.0474 13.9846 Z" stroke="none" fill="#000000" />
			<rect />
		</svg>
	</g>
	<g transform="matrix(1 0 -0 1 176.657 106.5)">
		<svg width="77.9182587" height="45.2233963">
			<defs />
			<path d="M 7.60405 16.7669 L 0.0791219 16.7669, 0.0791219 16.2732 C 0.0791219 16.2379, 0.0976369 16.184, 0.134667 16.1116 L 3.15766 12.826 C 3.51561 12.4316, 3.8775 12.0277, 4.24443 11.6147, 4.61136 11.2018, 4.93902 10.7799, 5.22853 10.349, 5.51803 9.91808, 5.74919 9.47372, 5.922 9.01589, 6.0948 8.55807, 6.18064 8.0778, 6.18064 7.57453, 6.18064 7.15037, 6.12566 6.7537, 6.01457 6.38565, 5.90348 6.01759, 5.74358 5.69442, 5.53374 5.41613, 5.32391 5.13785, 5.06189 4.91343, 4.7477 4.74286, 4.4335 4.5723, 4.06994 4.48702, 3.657 4.48646, 3.04096 4.48702, 2.49673 4.67105, 2.02544 5.0391, 1.55415 5.40716, 1.24108 5.8128, 1.08678 6.25492, 1.05649 6.26726, 1.10586 6.27343, 1.2349 6.27287 L 1.392 6.27287 C 1.57715 6.31551, 1.73705 6.38004, 1.87283 6.46644, 2.00861 6.5534, 2.1225 6.67291, 2.21508 6.82552, 2.30765 6.97812, 2.35366 7.16215, 2.35366 7.37704, 2.35366 7.73668, 2.23696 8.01216, 2.00243 8.20348, 1.76791 8.39536, 1.5059 8.49074, 1.21639 8.49018, 0.939226 8.49074, 0.680578 8.39536, 0.439883 8.20348, 0.19975 8.01216, 0.0791219 7.73668, 0.0791219 7.37704, 0.0791219 6.87489, 0.177868 6.39911, 0.375361 5.95026, 0.572854 5.50142, 0.84048 5.1126, 1.17936 4.78326, 1.51824 4.45448, 1.91884 4.19415, 2.38115 4.00226, 2.84346 3.81094, 3.33383 3.715, 3.85113 3.71444, 4.49186 3.715, 5.07928 3.80926, 5.61229 3.99778, 6.1453 4.18629, 6.59976 4.45728, 6.97567 4.81019, 7.35157 5.16366, 7.64613 5.57211, 7.85877 6.03554, 8.07141 6.49954, 8.17745 7.01235, 8.17745 7.57453, 8.17745 8.19731, 8.03607 8.77071, 7.75217 9.29418, 7.46884 9.81821, 7.11761 10.2985, 6.6985 10.735, 6.27939 11.172, 5.83391 11.5833, 5.36262 11.9693, 4.89133 12.3553, 4.46436 12.7307, 4.08228 13.0954 L 1.95587 15.0972, 4.73872 15.0972 C 5.12697 15.0978, 5.48942 15.095, 5.82493 15.0888, 6.16101 15.0832, 6.44603 15.0708, 6.67999 15.0529, 6.91451 15.0349, 7.03458 15.0232, 7.04019 15.0164, 7.08956 14.9749, 7.13613 14.8913, 7.17933 14.7656, 7.22253 14.64, 7.26237 14.4918, 7.2994 14.3213, 7.33643 14.1507, 7.37346 13.9773, 7.41049 13.8006, 7.44752 13.6244, 7.48118 13.4309, 7.51204 13.221 L 8.19597 13.221 Z" stroke="none" fill="#000000" />
			<path d="M 23.3964 16.6044 C 23.3586 16.751, 23.255 16.8243, 23.085 16.8243 L 19.9631 16.8243 C 19.7558 16.8243, 19.6516 16.7241, 19.6516 16.522, 19.6516 15.7714, 19.7633 15.0478, 19.9865 14.3516, 20.2098 13.6554, 20.4537 12.9673, 20.7176 12.286, 20.9821 11.6053, 21.2209 10.9257, 21.4344 10.2479, 21.6485 9.57, 21.755 8.88013, 21.755 8.17708, 21.755 7.62805, 21.6703 7.09561, 21.5003 6.57921, 21.3308 6.06338, 21.0634 5.60995, 20.6987 5.21893, 20.3341 4.82848, 19.9035 4.52905, 19.4066 4.32123, 18.9097 4.11398, 18.391 4.00979, 17.8499 4.00921, 17.3095 4.00979, 16.7908 4.11398, 16.2939 4.32123, 15.7969 4.52905, 15.3681 4.82848, 15.0063 5.21893, 14.6445 5.60995, 14.3771 6.06338, 14.2042 6.57921, 14.0313 7.09561, 13.9448 7.62805, 13.9448 8.17708, 13.9448 8.88013, 14.0536 9.57, 14.27 10.2479, 14.487 10.9257, 14.7275 11.6053, 14.9914 12.286, 15.2559 12.9673, 15.4992 13.6571, 15.7225 14.3562, 15.9458 15.0558, 16.0574 15.7777, 16.0574 16.522, 16.0574 16.7241, 15.9601 16.8243, 15.7654 16.8243 L 12.6143 16.8243 C 12.4512 16.8243, 12.3504 16.751, 12.3126 16.6044 L 11.6525 13.9846 C 11.6525 13.8203, 11.7407 13.7167, 11.9164 13.6732 L 12.0201 13.6732 C 12.1838 13.6738, 12.2846 13.7499, 12.3224 13.9022, 12.4231 14.3241, 12.5159 14.6722, 12.6006 14.947, 12.6853 15.2218, 12.7437 15.3684, 12.7746 15.3861, 12.8376 15.4354, 12.9888 15.4663, 13.2275 15.4783, 13.4668 15.4909, 13.7531 15.4966, 14.0863 15.496 L 15.2937 15.496 C 15.162 14.947, 14.9118 14.3825, 14.5437 13.802, 14.1761 13.222, 13.7937 12.6387, 13.3975 12.0524, 13.0014 11.4662, 12.651 10.8587, 12.3458 10.2295, 12.0413 9.60092, 11.8884 8.91677, 11.8884 8.17708, 11.8884 7.49351, 12.0487 6.86203, 12.3693 6.28151, 12.6899 5.70155, 13.121 5.20347, 13.6615 4.78783, 14.2466 4.31837, 14.9009 3.96857, 15.624 3.73956, 16.3471 3.51056, 17.0891 3.39606, 17.8499 3.39548, 18.6114 3.39606, 19.3533 3.51056, 20.0764 3.73956, 20.7995 3.96857, 21.463 4.31837, 22.0665 4.78783, 22.5949 5.21606, 23.0226 5.71816, 23.3495 6.29525, 23.6764 6.87234, 23.8395 7.49981, 23.8395 8.17708, 23.8395 8.91677, 23.6872 9.60092, 23.3821 10.2295, 23.0775 10.8587, 22.7237 11.4662, 22.3212 12.0524, 21.9188 12.6387, 21.5317 13.222, 21.1608 13.802, 20.7898 14.3825, 20.5384 14.947, 20.4062 15.496 L 21.6228 15.496 C 21.9565 15.4966, 22.2428 15.4909, 22.4815 15.4783, 22.7208 15.4663, 22.8714 15.4354, 22.9344 15.3861, 22.9533 15.3747, 23.0065 15.2281, 23.0947 14.947, 23.1829 14.6665, 23.2768 14.3178, 23.3775 13.9022, 23.4153 13.7562, 23.5195 13.68, 23.689 13.6732 L 23.7926 13.6732 C 23.9626 13.7104, 24.0474 13.814, 24.0474 13.9846 Z" stroke="none" fill="#000000" />
			<rect />
		</svg>
	</g>
	<ellipse cx="1423.3629636764526" cy="509.76658916473389" rx="6.8249998092651367" ry="6.8249998092651367" stroke="none" fill="#E50A00" transform="matrix(0.384615 0 0 0.384615 -277.463 -98.3758)" />
	<g transform="matrix(1 0 -0 1 276.545 72.129)">
		<svg width="29.9820557" height="45.2233963">
			<defs />
			<path d="M 7.62662 16.8387 L -0.00154328 16.8387, -0.00154328 16.0488 C -0.00154328 15.9534, 0.0326813 15.8608, 0.100008 15.7705 L 3.0495 12.2066 C 3.33957 11.8543, 3.61112 11.498, 3.8636 11.1389, 4.11607 10.7799, 4.33937 10.4135, 4.5335 10.0393, 4.72763 9.6656, 4.8836 9.2852, 5.00086 8.89919, 5.11812 8.51318, 5.17648 8.11652, 5.17648 7.70919, 5.17648 7.3445, 5.13945 7.00225, 5.06539 6.68189, 4.99133 6.36208, 4.88528 6.0866, 4.7467 5.85601, 4.60812 5.62597, 4.43083 5.44307, 4.21482 5.30841, 3.99937 5.17376, 3.74353 5.10643, 3.44729 5.10587, 2.82451 5.10643, 2.38408 5.23828, 2.12487 5.50086, 2.25448 5.51937, 2.46263 5.65571, 2.74933 5.90987, 3.03603 6.16459, 3.1791 6.53096, 3.1791 7.00898, 3.1791 7.53021, 3.01135 7.91622, 2.67527 8.16757, 2.33976 8.41893, 1.97731 8.5446, 1.58906 8.54404, 1.20081 8.5446, 0.838363 8.41893, 0.502288 8.16757, 0.166775 7.91622, -0.00154328 7.53021, -0.00154328 7.00898, -0.00154328 6.52479, 0.109546 6.09109, 0.331726 5.70789, 0.553906 5.32524, 0.843412 4.9931, 1.20081 4.71144, 1.5582 4.43035, 1.96665 4.21659, 2.4256 4.06959, 2.88511 3.92316, 3.35808 3.84966, 3.84508 3.8491, 4.49254 3.84966, 5.08109 3.94391, 5.6113 4.13243, 6.1415 4.32095, 6.60549 4.58577, 7.00272 4.92689, 7.39995 5.26801, 7.70685 5.67534, 7.9223 6.14776, 8.13831 6.62073, 8.24603 7.14139, 8.24603 7.70919, 8.24603 8.29044, 8.10577 8.82177, 7.82524 9.30316, 7.54471 9.78511, 7.212 10.225, 6.82655 10.6228, 6.44166 11.0211, 6.03938 11.3847, 5.62027 11.7135, 5.20116 12.0428, 4.84657 12.339, 4.55707 12.6016 L 2.92943 14.1098, 4.48301 14.1098 C 4.83423 14.1103, 5.1703 14.1075, 5.49067 14.1013, 5.81159 14.0957, 6.07024 14.0851, 6.26774 14.0699, 6.46523 14.0553, 6.56061 14.0503, 6.55388 14.0559, 6.60325 13.9964, 6.65262 13.9055, 6.702 13.7827, 6.75137 13.6603, 6.79008 13.5223, 6.81757 13.3697, 6.84563 13.2171, 6.87144 13.051, 6.89612 12.8715, 6.92081 12.692, 6.96401 12.4793, 7.02573 12.2336 L 8.27408 12.2336 Z" stroke="none" fill="#E50A00" />
			<rect />
		</svg>
	</g>
</svg>
