<svg version="1.2" xmlns="http://www.w3.org/2000/svg" viewBox="0 0 380 281" width="380" height="281">
	<title>node-volt-example</title>
	<style>
		.s0 { fill: none;stroke: #e50a00;stroke-linecap: round;stroke-linejoin: round;stroke-width: 2 } 
		.s1 { fill: none;stroke: #000000;stroke-linecap: round;stroke-linejoin: round;stroke-width: 1 } 
		.s2 { fill: #ffffff } 
		.s3 { fill: none;stroke: #000000;stroke-linecap: round;stroke-linejoin: round;stroke-width: 1.5 } 
		.s4 { fill: none;stroke: #000000;stroke-linecap: round;stroke-linejoin: round;stroke-width: 1.3 } 
		.s5 { fill: #000000 } 
		.s6 { fill: #e50a00 } 
	</style>
	<g id="Layer 1">
		<path class="s0" d="m270 250.9v11.4"/>
		<path class="s0" d="m258.6 263.3h22.8"/>
		<path class="s1" d="m246.9 51.4h-8.2"/>
		<path class="s1" d="m200.2 51.4h8.2"/>
		<path class="s2" d="m223.6 66.6c-8.4 0-15.2-6.8-15.2-15.2 0-8.4 6.8-15.2 15.2-15.2 8.3 0 15.1 6.8 15.1 15.2 0 8.4-6.8 15.2-15.1 15.2z"/>
		<path class="s3" d="m223.6 66.6c-8.4 0-15.2-6.8-15.2-15.2 0-8.4 6.8-15.2 15.2-15.2 8.3 0 15.1 6.8 15.1 15.2 0 8.4-6.8 15.2-15.1 15.2z"/>
		<path class="s1" d="m238.7 51.4h-30.3"/>
		<path class="s1" d="m200.2 31.7v9.1"/>
		<path class="s1" d="m204.7 36.2h-9.1"/>
		<path class="s1" d="m251.5 36.2h-9.1"/>
		<path class="s4" d="m107.9 51.4v197.5"/>
		<path class="s4" d="m45 97.7h287.9v151.2h-287.9z"/>
		<path class="s5" d="m41 200.1h8l-4 13.2z"/>
		<path class="s2" d="m112.5 155.1v36.4h-9.2v-36.4z"/>
		<path class="s3" d="m112.5 155.1v36.4h-9.2v-36.4z"/>
		<path class="s1" d="m45 150.5v7.6"/>
		<path class="s1" d="m45 196.1v-7.6"/>
		<path class="s2" d="m60.2 173.3c0 8.4-6.8 15.2-15.2 15.2-8.4 0-15.2-6.8-15.2-15.2 0-8.4 6.8-15.2 15.2-15.2 8.4 0 15.2 6.8 15.2 15.2z"/>
		<path class="s3" d="m60.2 173.3c0 8.4-6.8 15.2-15.2 15.2-8.4 0-15.2-6.8-15.2-15.2 0-8.4 6.8-15.2 15.2-15.2 8.4 0 15.2 6.8 15.2 15.2z"/>
		<path class="s1" d="m29.8 173.3h30.4"/>
		<g>
			<g>
				<path class="s5" d="m16.6 211.5h-7.5v-0.5q0 0 0-0.1l3.1-3.3q0.5-0.6 1-1.2 0.6-0.6 1-1.3 0.5-0.6 0.7-1.3 0.3-0.7 0.3-1.5 0-0.6-0.2-1.1-0.2-0.6-0.5-1-0.3-0.4-0.8-0.7-0.4-0.2-1-0.2-1 0-1.7 0.5-0.7 0.6-0.9 1.2-0.1 0 0.1 0h0.2q0.3 0.1 0.5 0.2 0.2 0.2 0.3 0.4 0.2 0.2 0.2 0.5 0 0.6-0.4 0.9-0.3 0.3-0.8 0.3-0.4 0-0.8-0.3-0.3-0.3-0.3-0.9 0-0.7 0.3-1.4 0.3-0.7 0.8-1.1 0.5-0.5 1.2-0.8 0.7-0.3 1.5-0.3 0.9 0 1.7 0.3 0.8 0.3 1.4 0.8 0.5 0.5 0.9 1.2 0.3 0.7 0.3 1.5 0 1-0.4 1.8-0.5 0.8-1.1 1.4-0.6 0.7-1.3 1.2-0.7 0.6-1.3 1.2l-2.1 2h2.7q0.6 0 1.1 0 0.5 0 0.9-0.1 0.3 0 0.3 0 0.1-0.1 0.2-0.3 0-0.2 0.1-0.4 0.1-0.3 0.1-0.5 0.1-0.3 0.1-0.6h0.7z"/>
				<path class="s5" d="m33.8 211.6q-1.2-0.1-2.3-0.1h-0.4q-1.3 0.1-2.8 0.1v-0.8q0.4 0 0.8 0 0.3 0 0.6-0.1 0.1-0.1 0.2-0.2 0-0.1 0-0.1 0-0.1 0-0.1l-1-3h-4.7l-0.8 2.5q-0.1 0.1-0.1 0.2 0 0.1 0 0.2 0.1 0.2 0.3 0.3 0.2 0.2 0.5 0.3 0.3 0 0.7 0v0.8q-1.2 0-2.2-0.1h-0.3q-0.9 0-1.9 0.1v-0.8q0.5 0 0.8 0 0.3-0.1 0.7-0.3 0.5-0.2 0.7-0.8l4.1-11.5q0-0.2 0.3-0.2h0.2q0.3 0 0.4 0.2l4.3 12q0 0.2 0.1 0.3 0.1 0.2 0.3 0.2 0.2 0.1 0.6 0.1 0.4 0 0.9 0zm-7.2-10.8l-2.1 5.8h4.1z"/>
				<path class="s5" d="m9 194.8z"/>
			</g>
		</g>
		<path class="s6" d="m107.9 100.3c-1.5 0-2.6-1.2-2.6-2.6 0-1.5 1.1-2.6 2.6-2.6 1.4 0 2.6 1.1 2.6 2.6 0 1.4-1.2 2.6-2.6 2.6z"/>
		<path class="s5" d="m107.9 251.5c-1.5 0-2.6-1.2-2.6-2.6 0-1.5 1.1-2.6 2.6-2.6 1.4 0 2.6 1.1 2.6 2.6 0 1.4-1.2 2.6-2.6 2.6z"/>
		<path class="s5" d="m270 251.5c-1.5 0-2.6-1.2-2.6-2.6 0-1.5 1.1-2.6 2.6-2.6 1.4 0 2.6 1.1 2.6 2.6 0 1.4-1.2 2.6-2.6 2.6z"/>
		<g>
			<g>
				<path class="s6" d="m101.3 89.7q-1.9-0.1-3.7-0.1-1.7 0-3.5 0.1v-1.2h2.2v-9.6q-0.4 0.2-1.1 0.2-0.6 0.1-1.4 0.1v-1.2q1.2 0 2.3-0.3 1-0.2 1.9-1h0.4q0.3 0 0.4 0.2 0.2 0.1 0.2 0.3v11.3h2.3z"/>
				<path class="s5" d="m94.2 72.9z"/>
			</g>
		</g>
		<path class="s4" d="m270 51.4v197.5"/>
		<path class="s2" d="m274.5 155.1v36.4h-9.1v-36.4z"/>
		<path class="s3" d="m274.5 155.1v36.4h-9.1v-36.4z"/>
		<g>
			<g>
				<path class="s5" d="m127 178.9q-1.7-0.1-3.3-0.1-1.6 0-3.3 0.1v-0.8h0.7q0.3 0 0.5 0 0.3 0 0.5-0.1 0.3 0 0.4 0 0.2-0.1 0.3-0.2 0.1-0.2 0.1-0.3v-10.1q-0.5 0.2-1.1 0.3-0.7 0.1-1.5 0.1v-0.7q1.1 0 2-0.3 1-0.3 1.6-1h0.3q0.3 0 0.3 0.3v11.4q0 0.2 0.1 0.3 0.1 0.1 0.3 0.2 0.1 0 0.4 0 0.2 0.1 0.5 0.1 0.3 0 0.6 0h0.6z"/>
				<path class="s5" d="m142.8 178.7q0 0.2-0.3 0.2h-3.1q-0.3 0-0.3-0.3 0-1.1 0.3-2.2 0.4-1 0.8-2 0.4-1.1 0.7-2.1 0.3-1 0.3-2 0-0.9-0.2-1.6-0.3-0.8-0.8-1.4-0.6-0.6-1.3-0.9-0.8-0.3-1.6-0.3-0.8 0-1.6 0.3-0.7 0.3-1.2 0.9-0.6 0.6-0.8 1.4-0.3 0.7-0.3 1.6 0 1 0.3 2 0.3 1 0.7 2.1 0.4 1 0.8 2 0.3 1.1 0.3 2.2 0 0.3-0.3 0.3h-3.1q-0.3 0-0.3-0.2l-0.7-2.6q0-0.3 0.3-0.3h0.1q0.2 0 0.3 0.2 0.1 0.6 0.3 1 0.1 0.4 0.1 0.5 0.1 0 0.5 0.1 0.3 0 0.8 0h1.2q-0.2-0.8-0.7-1.7-0.6-0.9-1.1-1.8-0.6-0.8-1.1-1.8-0.5-0.9-0.5-2 0-1.1 0.5-1.9 0.5-0.9 1.3-1.5 0.9-0.7 2-1.1 1.1-0.3 2.2-0.3 1.1 0 2.2 0.3 1.1 0.4 2 1.1 0.8 0.6 1.3 1.5 0.5 0.8 0.5 1.9 0 1.1-0.5 2-0.4 1-1 1.8-0.6 0.9-1.2 1.8-0.5 0.9-0.7 1.7h1.2q0.5 0 0.8 0 0.4-0.1 0.5-0.1 0 0 0.1-0.5 0.2-0.4 0.3-1 0.1-0.2 0.3-0.2h0.1q0.3 0 0.3 0.3z"/>
				<path class="s5" d="m120.2 162.1z"/>
			</g>
		</g>
		<g>
			<g>
				<path class="s5" d="m239.4 178.9h-7.5v-0.5q0-0.1 0-0.2l3.1-3.3q0.5-0.6 1-1.2 0.6-0.6 1-1.3 0.5-0.6 0.7-1.3 0.3-0.7 0.3-1.4 0-0.7-0.2-1.2-0.2-0.6-0.5-1-0.3-0.4-0.8-0.7-0.4-0.2-1-0.2-1 0-1.7 0.5-0.7 0.6-0.9 1.2-0.1 0.1 0.1 0.1h0.2q0.3 0 0.5 0.2 0.2 0.1 0.3 0.3 0.1 0.2 0.1 0.6 0 0.5-0.3 0.8-0.4 0.3-0.8 0.3-0.4 0-0.8-0.3-0.3-0.3-0.3-0.8 0-0.8 0.3-1.5 0.3-0.6 0.8-1.1 0.5-0.5 1.2-0.8 0.7-0.3 1.4-0.3 1 0 1.8 0.3 0.8 0.3 1.4 0.8 0.5 0.5 0.9 1.2 0.3 0.7 0.3 1.6 0 0.9-0.5 1.7-0.4 0.8-1 1.4-0.6 0.7-1.3 1.3-0.7 0.5-1.3 1.1l-2.1 2h2.7q0.6 0 1.1 0 0.5 0 0.9-0.1 0.3 0 0.3 0 0.1-0.1 0.2-0.2 0-0.2 0.1-0.5 0.1-0.2 0.1-0.5 0.1-0.3 0.1-0.6h0.7z"/>
				<path class="s5" d="m255.2 178.7q-0.1 0.2-0.3 0.2h-3.1q-0.4 0-0.4-0.3 0-1.1 0.4-2.2 0.3-1 0.7-2 0.4-1.1 0.7-2.1 0.4-1 0.4-2 0-0.9-0.3-1.6-0.3-0.8-0.8-1.4-0.6-0.6-1.3-0.9-0.7-0.3-1.6-0.3-0.8 0-1.5 0.3-0.8 0.3-1.3 0.9-0.5 0.6-0.8 1.4-0.3 0.7-0.3 1.6 0 1 0.4 2 0.3 1 0.7 2.1 0.4 1 0.7 2 0.4 1.1 0.4 2.2 0 0.3-0.3 0.3h-3.2q-0.2 0-0.3-0.2l-0.7-2.6q0-0.3 0.3-0.3h0.1q0.3 0 0.3 0.2 0.2 0.6 0.3 1 0.1 0.4 0.2 0.5 0.1 0 0.4 0.1 0.4 0 0.9 0h1.2q-0.2-0.8-0.8-1.7-0.5-0.9-1.1-1.8-0.6-0.8-1.1-1.8-0.4-0.9-0.4-2 0-1.1 0.5-1.9 0.4-0.9 1.3-1.5 0.8-0.7 1.9-1.1 1.1-0.3 2.2-0.3 1.2 0 2.3 0.3 1.1 0.4 2 1.1 0.8 0.6 1.2 1.5 0.5 0.8 0.5 1.9 0 1.1-0.4 2-0.5 1-1.1 1.8-0.6 0.9-1.1 1.8-0.6 0.9-0.8 1.7h1.2q0.5 0 0.9 0 0.3-0.1 0.4-0.1 0.1 0 0.2-0.5 0.1-0.4 0.3-1 0-0.2 0.3-0.2h0.1q0.2 0 0.2 0.3z"/>
				<path class="s5" d="m231.8 162.1z"/>
			</g>
		</g>
		<path class="s2" d="m337.4 153.9v36.5h-9.1v-36.5z"/>
		<path class="s3" d="m337.4 153.9v36.5h-9.1v-36.5z"/>
		<g>
			<g>
				<path class="s5" d="m353.7 178.9q-1.7-0.1-3.3-0.1-1.6 0-3.3 0.1v-0.8h0.6q0.3 0 0.6 0 0.3 0 0.5-0.1 0.2 0 0.4 0 0.2-0.1 0.3-0.2 0.1-0.2 0.1-0.3v-10.1q-0.5 0.2-1.2 0.3-0.7 0.1-1.5 0.1v-0.7q1.2 0 2.1-0.3 0.9-0.3 1.6-1h0.3q0.3 0 0.3 0.3v11.4q0 0.2 0.1 0.3 0.1 0.1 0.3 0.2 0.1 0 0.3 0 0.3 0.1 0.6 0.1 0.3 0 0.5 0h0.7z"/>
				<path class="s5" d="m369.5 178.7q0 0.2-0.3 0.2h-3.1q-0.3 0-0.3-0.3 0-1.1 0.3-2.2 0.3-1 0.7-2 0.4-1.1 0.8-2.1 0.3-1 0.3-2 0-0.9-0.3-1.6-0.2-0.8-0.8-1.4-0.5-0.6-1.3-0.9-0.7-0.3-1.5-0.3-0.8 0-1.6 0.3-0.7 0.3-1.3 0.9-0.5 0.6-0.8 1.4-0.2 0.7-0.2 1.6 0 1 0.3 2 0.3 1 0.7 2.1 0.4 1 0.7 2 0.4 1.1 0.4 2.2 0 0.3-0.3 0.3h-3.2q-0.2 0-0.3-0.2l-0.6-2.6q0-0.3 0.2-0.3h0.1q0.3 0 0.3 0.2 0.2 0.6 0.3 1 0.1 0.4 0.2 0.5 0.1 0 0.4 0.1 0.4 0 0.9 0h1.2q-0.2-0.8-0.7-1.7-0.6-0.9-1.2-1.8-0.6-0.8-1-1.8-0.5-0.9-0.5-2 0-1.1 0.5-1.9 0.5-0.9 1.3-1.5 0.9-0.7 1.9-1.1 1.1-0.3 2.3-0.3 1.1 0 2.2 0.3 1.1 0.4 2 1.1 0.8 0.6 1.3 1.5 0.5 0.8 0.5 1.9 0 1.1-0.5 2-0.5 1-1.1 1.8-0.6 0.9-1.1 1.8-0.6 0.9-0.8 1.7h1.2q0.5 0 0.9 0 0.4-0.1 0.5-0.1 0 0 0.1-0.5 0.1-0.4 0.3-1 0.1-0.2 0.3-0.2h0.1q0.3 0 0.3 0.3z"/>
				<path class="s5" d="m346.9 162.1z"/>
			</g>
		</g>
		<path class="s2" d="m170.7 93.1h36.5v9.1h-36.5z"/>
		<path class="s3" d="m170.7 93.1h36.5v9.1h-36.5z"/>
		<path class="s4" d="m107.9 51.4h162.1"/>
		<path class="s2" d="m140.3 46.8h32.8v9.2h-32.8z"/>
		<path class="s3" d="m140.3 46.8h32.8v9.2h-32.8z"/>
		<g>
			<g>
				<path class="s5" d="m219.4 21.8q0 0.9-0.3 1.6-0.2 0.8-0.9 1.5-0.7 0.7-1.4 1-0.6 0.3-1.6 0.3-1 0-1.8-0.5-0.8-0.5-1.3-1.3-0.7-1.2-0.9-2.4-0.2-1.3-0.2-2.6 0-1.2 0.4-2.4 0.3-1.2 1.1-2.3 0.7-0.9 1.7-1.4 0.9-0.6 2.1-0.6 1.1 0 1.9 0.6 0.7 0.6 0.7 1.6 0 0.5-0.3 0.8-0.3 0.2-0.7 0.2-0.4 0-0.7-0.2-0.3-0.3-0.3-0.8 0-0.5 0.4-0.8 0.3-0.1 0.6-0.1 0.1 0 0 0-0.1-0.2-0.5-0.4-0.5-0.2-1.1-0.2-0.8 0-1.5 0.5-0.6 0.5-1.1 1.2-0.5 0.9-0.6 2-0.1 1.1-0.2 1.8 0.2-0.4 0.8-1 0.7-0.5 1.6-0.5 1 0 1.6 0.3 0.7 0.3 1.3 0.9 0.7 0.8 0.9 1.5 0.3 0.7 0.3 1.7zm-2 0q0-0.9 0-1.6-0.1-0.7-0.4-1.2-0.3-0.5-0.7-0.8-0.4-0.2-1-0.2-0.6 0-1 0.3-0.5 0.3-0.8 0.8-0.3 0.5-0.4 1.2-0.1 0.5-0.1 1 0 0.2 0 0.4v0.1q0.1 0.7 0.1 1.3 0.1 0.6 0.2 0.9 0.3 0.7 0.8 1.1 0.5 0.4 1.1 0.4 0.6 0 1-0.3 0.5-0.2 0.8-0.7 0.3-0.6 0.4-1.2 0-0.7 0-1.5z"/>
				<path class="s5" d="m236.1 13.6q-0.4 0-0.7 0-0.4 0.1-0.6 0.3-0.5 0.2-0.8 0.8l-4.3 11.3q-0.1 0.2-0.4 0.2h-0.2q-0.3 0-0.4-0.2l-4.6-11.8q-0.1-0.2-0.2-0.3 0-0.2-0.2-0.2-0.2-0.1-0.6-0.1-0.4 0-0.9 0v-0.8q1.2 0.1 2.4 0.1 0.1 0 0.3 0 1.3 0 2.7-0.1v0.8q-0.4 0-0.7 0-0.3 0-0.6 0.1-0.1 0.1-0.2 0.2 0 0.1-0.1 0.1 0.1 0.1 0.1 0.1l3.7 9.5 3.4-9q0.1-0.1 0.1-0.2 0-0.3-0.3-0.5-0.2-0.2-0.4-0.3-0.3 0-0.7 0v-0.8q1.1 0.1 2.1 0.1 0.2 0 0.3 0 0.9 0 1.8-0.1z"/>
				<path class="s5" d="m210.9 9z"/>
			</g>
		</g>
		<g>
			<g>
				<path class="s5" d="m152 37.5h-7.5v-0.5q0 0 0-0.2l3.1-3.2q0.5-0.6 1-1.2 0.6-0.7 1-1.3 0.5-0.7 0.7-1.3 0.3-0.7 0.3-1.5 0-0.6-0.2-1.2-0.1-0.5-0.5-0.9-0.3-0.5-0.7-0.7-0.5-0.3-1.1-0.3-1 0-1.7 0.6-0.7 0.5-0.9 1.2-0.1 0 0.1 0h0.2q0.3 0.1 0.5 0.2 0.2 0.1 0.3 0.4 0.2 0.2 0.2 0.5 0 0.6-0.4 0.8-0.3 0.3-0.8 0.3-0.4 0-0.8-0.3-0.3-0.2-0.3-0.8 0-0.7 0.3-1.4 0.3-0.7 0.8-1.2 0.5-0.5 1.2-0.8 0.7-0.2 1.5-0.2 0.9 0 1.7 0.2 0.8 0.3 1.4 0.8 0.5 0.6 0.9 1.3 0.3 0.7 0.3 1.5 0 0.9-0.4 1.7-0.5 0.8-1.1 1.5-0.6 0.6-1.3 1.2-0.7 0.6-1.3 1.1l-2.1 2h2.7q0.6 0 1.1 0 0.5 0 0.9 0 0.3 0 0.3 0 0.1-0.1 0.2-0.3 0-0.2 0.1-0.4 0.1-0.3 0.1-0.6 0.1-0.2 0.1-0.5h0.7z"/>
				<path class="s5" d="m167.8 37.3q-0.1 0.3-0.3 0.3h-3.1q-0.3 0-0.3-0.3 0-1.2 0.3-2.2 0.3-1.1 0.7-2.1 0.4-1 0.7-2 0.4-1 0.4-2.1 0-0.8-0.3-1.6-0.3-0.8-0.8-1.3-0.5-0.6-1.3-0.9-0.7-0.4-1.5-0.4-0.9 0-1.6 0.4-0.7 0.3-1.3 0.9-0.5 0.5-0.8 1.3-0.3 0.8-0.3 1.6 0 1.1 0.4 2.1 0.3 1 0.7 2 0.4 1 0.7 2.1 0.4 1 0.4 2.2 0 0.3-0.3 0.3h-3.2q-0.2 0-0.3-0.3l-0.6-2.6q0-0.2 0.2-0.3h0.1q0.3 0 0.3 0.2 0.2 0.7 0.3 1.1 0.1 0.4 0.2 0.4 0.1 0.1 0.4 0.1 0.4 0 0.9 0h1.2q-0.2-0.8-0.8-1.7-0.5-0.8-1.1-1.7-0.6-0.9-1.1-1.8-0.4-1-0.4-2.1 0-1 0.5-1.9 0.5-0.9 1.3-1.5 0.8-0.7 1.9-1 1.1-0.4 2.3-0.4 1.1 0 2.2 0.4 1.1 0.3 2 1 0.8 0.7 1.3 1.5 0.4 0.9 0.4 1.9 0 1.1-0.4 2.1-0.5 0.9-1.1 1.8-0.6 0.9-1.1 1.7-0.6 0.9-0.8 1.7h1.2q0.5 0 0.9 0 0.3 0 0.4-0.1 0.1 0 0.2-0.4 0.1-0.4 0.3-1.1 0-0.2 0.3-0.2h0.1q0.3 0.1 0.3 0.3z"/>
				<path class="s5" d="m144.4 20.7z"/>
			</g>
		</g>
		<g>
			<g>
				<path class="s5" d="m184.3 123.3h-7.6v-0.5q0-0.1 0.1-0.2l3-3.3q0.6-0.6 1.1-1.2 0.6-0.6 1-1.3 0.4-0.6 0.7-1.3 0.2-0.7 0.2-1.4 0-0.7-0.1-1.2-0.2-0.6-0.5-1-0.3-0.4-0.8-0.7-0.5-0.2-1.1-0.2-0.9 0-1.6 0.5-0.7 0.6-1 1.3 0 0 0.2 0h0.1q0.3 0 0.5 0.2 0.2 0.1 0.4 0.3 0.1 0.3 0.1 0.6 0 0.5-0.3 0.8-0.4 0.3-0.8 0.3-0.4 0-0.8-0.3-0.4-0.3-0.4-0.8 0-0.8 0.3-1.4 0.3-0.7 0.8-1.2 0.5-0.5 1.2-0.8 0.7-0.3 1.5-0.3 1 0 1.8 0.3 0.8 0.3 1.3 0.8 0.6 0.5 0.9 1.2 0.3 0.7 0.3 1.6 0 0.9-0.4 1.7-0.4 0.8-1 1.4-0.7 0.7-1.4 1.3-0.7 0.5-1.3 1.1l-2.1 2h2.8q0.6 0 1.1 0 0.5 0 0.8 0 0.4-0.1 0.4-0.1 0.1 0 0.1-0.2 0.1-0.2 0.2-0.5 0-0.2 0.1-0.5 0-0.3 0.1-0.6h0.7z"/>
				<path class="s5" d="m200.1 123.1q-0.1 0.2-0.4 0.2h-3.1q-0.3 0-0.3-0.3 0-1.1 0.3-2.1 0.4-1.1 0.8-2.1 0.4-1 0.7-2.1 0.3-1 0.3-2 0-0.8-0.2-1.6-0.3-0.8-0.8-1.4-0.6-0.6-1.3-0.9-0.8-0.3-1.6-0.3-0.8 0-1.5 0.3-0.8 0.3-1.3 0.9-0.6 0.6-0.8 1.4-0.3 0.8-0.3 1.6 0 1 0.3 2 0.4 1.1 0.7 2.1 0.4 1 0.8 2.1 0.3 1 0.3 2.1 0 0.3-0.3 0.3h-3.1q-0.3 0-0.3-0.2l-0.7-2.6q0-0.3 0.3-0.3h0.1q0.2 0 0.3 0.2 0.1 0.6 0.3 1 0.1 0.5 0.1 0.5 0.1 0.1 0.5 0.1 0.3 0 0.8 0h1.3q-0.2-0.8-0.8-1.7-0.6-0.9-1.1-1.7-0.6-0.9-1.1-1.9-0.5-0.9-0.5-2 0-1 0.5-1.9 0.5-0.9 1.3-1.5 0.9-0.7 2-1.1 1.1-0.3 2.2-0.3 1.1 0 2.2 0.3 1.1 0.4 2 1.1 0.8 0.6 1.3 1.5 0.5 0.9 0.5 1.9 0 1.1-0.5 2-0.4 1-1 1.9-0.6 0.8-1.2 1.7-0.5 0.9-0.7 1.7h1.2q0.5 0 0.8 0 0.4 0 0.5-0.1 0 0 0.2-0.5 0.1-0.4 0.2-1 0.1-0.2 0.3-0.2h0.1q0.3 0 0.3 0.3z"/>
				<path class="s5" d="m176.7 106.5z"/>
			</g>
		</g>
		<path class="s6" d="m270 100.3c-1.5 0-2.6-1.2-2.6-2.6 0-1.5 1.1-2.6 2.6-2.6 1.4 0 2.6 1.1 2.6 2.6 0 1.4-1.2 2.6-2.6 2.6z"/>
		<g>
			<g>
				<path class="s6" d="m284.2 89h-7.7v-0.8q0-0.2 0.1-0.3l3-3.6q0.4-0.5 0.8-1 0.4-0.6 0.7-1.1 0.3-0.6 0.4-1.2 0.2-0.6 0.2-1.2 0-0.5-0.1-1-0.1-0.5-0.3-0.8-0.2-0.4-0.5-0.6-0.4-0.2-0.8-0.2-0.9 0-1.3 0.4 0.2 0.1 0.6 0.4 0.4 0.4 0.4 1.1 0 0.8-0.5 1.2-0.5 0.4-1.1 0.4-0.5 0-1.1-0.4-0.5-0.4-0.5-1.2 0-0.7 0.4-1.3 0.3-0.5 0.8-1 0.6-0.4 1.3-0.6 0.7-0.2 1.4-0.2 1 0 1.8 0.3 0.8 0.2 1.3 0.8 0.6 0.5 1 1.2 0.3 0.7 0.3 1.5 0 0.9-0.4 1.6-0.5 0.8-1 1.4-0.6 0.5-1.2 1-0.7 0.5-1.1 0.9l-1.6 1.5h1.5q0.6 0 1 0 0.5 0 0.8 0 0.3 0 0.3 0 0.1-0.1 0.1-0.3 0.1-0.2 0.2-0.4 0-0.2 0-0.5 0.1-0.3 0.2-0.6h1.2z"/>
				<path class="s5" d="m276.5 72.1z"/>
			</g>
		</g>
	</g>
</svg>