<?xml version="1.0"?>
<svg xmlns="http://www.w3.org/2000/svg" xmlns:xlink="http://www.w3.org/1999/xlink" width="361.24472" height="182.548706">
	<defs>
		<marker id="CustomMarker-01" markerUnits="strokeWidth" markerWidth="8.25" markerHeight="7.5" viewBox="-8.25 -3.75 8.25 7.5" orient="auto-start-reverse">
			<path d="M -5.5 -2.5 L 0 -0, -5.5 2.5" fill="none" stroke="#0080FF" stroke-linejoin="round" />
		</marker>
		<marker id="CustomMarker-02" markerUnits="strokeWidth" markerWidth="8.25" markerHeight="7.5" viewBox="-8.25 -3.75 8.25 7.5" orient="auto-start-reverse">
			<path d="M -5.5 -2.5 L 0 -0, -5.5 2.5" fill="none" stroke="#0080FF" stroke-linejoin="round" />
		</marker>
	</defs>
	<path d="M -361.292 0 L 361.292 0" fill="none" stroke="#000000" stroke-width="5.33333349" stroke-linecap="round" stroke-linejoin="round" transform="matrix(0.25 0 0 0.25 98.8231 38.1568)" />
	<rect x="-72.87677" y="-18.2190857" width="145.75354" height="36.4381714" stroke="none" fill="#FFFFFF" transform="matrix(0.25 0 -0 0.25 66.1073 38.1568)" />
	<path d="M -72.8768 -18.2191 L 72.8768 -18.2191, 72.8768 18.2191, -72.8768 18.2191 Z" fill="none" stroke="#000000" stroke-width="6" stroke-linecap="round" stroke-linejoin="round" transform="matrix(0.25 0 -0 0.25 66.1073 38.1568)" />
	<g transform="matrix(1 0 -0 1 297.767 8.5)">
		<svg width="69.0199203" height="50.968071">
			<defs />
			<path d="M 11.1132 12.8505 C 11.0543 13.0865, 10.9654 13.3182, 10.8467 13.5458, 10.7279 13.7735, 10.5827 13.9792, 10.4099 14.1622, 10.2372 14.3457, 10.0444 14.4954, 9.83138 14.6132, 9.61841 14.7309, 9.38826 14.7898, 9.13996 14.7898, 8.35824 14.7898, 7.77035 14.5832, 7.37679 14.1696, 7.10738 13.8874, 6.97243 13.5316, 6.97243 13.1017, 6.97243 12.8824, 7.00777 12.6444, 7.07794 12.3873 L 7.44157 10.9818 C 7.48475 10.8042, 7.50634 10.6368, 7.50634 10.4793, 7.50634 10.4013, 7.50094 10.3203, 7.49015 10.2359, 7.45776 10.0166, 7.38268 9.82323, 7.26392 9.6554, 7.14517 9.48806, 6.99305 9.35606, 6.80706 9.25889, 6.62108 9.16222, 6.40123 9.11364, 6.14753 9.11315 L 4.32008 9.11315, 3.24442 13.298 C 3.22282 13.3981, 3.21203 13.4791, 3.21203 13.5414, 3.21203 13.6204, 3.22822 13.6729, 3.26061 13.6985, 3.33078 13.7407, 3.47653 13.7657, 3.69735 13.7735, 3.91867 13.7814, 4.15569 13.7853, 4.4089 13.7848, 4.56004 13.7853, 4.63561 13.8481, 4.63561 13.9733, 4.63561 14.0052, 4.63022 14.039, 4.61942 14.0753 L 4.58703 14.201 C 4.52815 14.358, 4.42264 14.4365, 4.2715 14.4365, 3.60853 14.4051, 2.94017 14.3894, 2.26591 14.3894, 1.59215 14.3894, 0.915446 14.4051, 0.236286 14.4365, 0.0910318 14.4365, 0.0130069 14.3688, 0.00172029 14.2324 L 0.00172029 14.1696, 0.034108 14.0361 C 0.0772916 13.8638, 0.182306 13.7799, 0.349152 13.7848, 0.602856 13.7853, 0.842819 13.7814, 1.06904 13.7735, 1.29576 13.7657, 1.4626 13.7382, 1.57056 13.6906, 1.67312 13.6337, 1.75115 13.4924, 1.80513 13.2666 L 4.07766 4.41791 C 4.11005 4.30309, 4.12575 4.21426, 4.12575 4.15096, 4.12575 4.08864, 4.1125 4.05184, 4.08551 4.04104, 4.00994 3.99442, 3.86322 3.96596, 3.64485 3.95516, 3.42647 3.94486, 3.18798 3.93946, 2.92888 3.93897, 2.77823 3.93946, 2.70266 3.8688, 2.70266 3.72698 L 2.70266 3.66416, 2.75124 3.53069 C 2.78363 3.37415, 2.88373 3.29563, 3.05058 3.29514 L 7.6035 3.29514 C 8.11582 3.29563, 8.6036 3.36384, 9.06733 3.49977, 9.53106 3.63619, 9.93542 3.86094, 10.2804 4.17452, 10.566 4.42626, 10.7736 4.73492, 10.9031 5.101, 10.9841 5.30023, 11.0273 5.50732, 11.0322 5.72127, 11.0322 5.9156, 11.0027 6.10649, 10.9434 6.29444, 10.8413 6.71352, 10.6283 7.09333, 10.3044 7.43341, 9.98106 7.77397, 9.61694 8.06398, 9.21258 8.30444, 8.93238 8.46736, 8.64825 8.60231, 8.35971 8.70928, 8.07116 8.81675, 7.86506 8.88349, 7.74091 8.90901, 8.0481 9.02973, 8.33959 9.26527, 8.61439 9.61565, 8.8465 9.9199, 8.96231 10.2835, 8.96231 10.707, 8.96231 10.7963, 8.95692 10.8856, 8.94612 10.974 L 8.79203 12.3873 C 8.74934 12.7543, 8.72775 13.0733, 8.72775 13.3451, 8.72775 13.5238, 8.73855 13.6808, 8.76014 13.8162, 8.79792 14.1254, 8.95937 14.28, 9.24497 14.2795, 9.50407 14.28, 9.74109 14.1401, 9.95701 13.8599, 10.1729 13.5802, 10.3319 13.2333, 10.434 12.8191, 10.4934 12.6625, 10.5984 12.5865, 10.7495 12.5914 L 10.8786 12.5914 C 11.0243 12.5919, 11.1024 12.6601, 11.1132 12.7955 L 11.1132 12.8505 Z M 9.21258 6.24733 C 9.29895 5.93376, 9.34753 5.61969, 9.35833 5.30514 L 9.35833 5.25803 C 9.35833 4.99157, 9.27491 4.76142, 9.10757 4.56709, 8.90833 4.33744, 8.64825 4.17501, 8.32732 4.08079, 8.00639 3.98657, 7.65454 3.93946, 7.27178 3.93897 L 6.19611 3.93897 C 5.92131 3.93946, 5.75692 3.96056, 5.70294 4.00227, 5.64896 4.04447, 5.59252 4.19316, 5.53315 4.44932 L 4.46582 8.6028, 6.02632 8.6028 C 6.40909 8.60329, 6.78694 8.55618, 7.15891 8.46196, 7.53088 8.36774, 7.8842 8.20041, 8.21789 7.95897, 8.50398 7.75532, 8.7199 7.49916, 8.86515 7.19001, 9.0109 6.88134, 9.12671 6.56728, 9.21258 6.24733 Z" stroke="none" fill="#000000" />
			<path d="M 2.19417 1.62359 C 2.17026 1.81431, 2.10925 1.98441, 2.01115 2.1339, 1.91304 2.2834, 1.79158 2.41091, 1.64648 2.51643, 1.50166 2.62196, 1.34008 2.70247, 1.162 2.75798, 0.983928 2.81377, 0.799809 2.84153, 0.609644 2.84153, 0.326046 2.84153, 0.0559131 2.78739, -0.200755 2.67912, -0.457422 2.57084, -0.683861 2.41833, -0.880072 2.22157, -1.08535 2.01656, -1.23787 1.78655, -1.33735 1.53153, -1.43683 1.27651, -1.48684 1.00693, -1.48684 0.722232, -1.48684 0.446877, -1.4393 0.182515, -1.34422 -0.0711296, -1.24913 -0.324499, -1.10651 -0.552587, -0.916346 -0.755118, -0.734975 -0.951329, -0.52365 -1.10275, -0.282372 -1.20992, -0.0408182 -1.31682, 0.212826 -1.37041, 0.478288 -1.37068, 0.713795 -1.37041, 0.942433 -1.33083, 1.1642 -1.25169, 1.38624 -1.17255, 1.58163 -1.04366, 1.75063 -0.86504, 1.91964 -0.665532, 2.03588 -0.446238, 2.09909 -0.207433, 2.16257 0.0316474, 2.19417 0.272651, 2.19417 0.515579, 2.19417 0.612585, 2.14443 0.66095, 2.04495 0.660675 L -0.626427 0.660675, -0.626427 0.722232 C -0.626427 0.94235, -0.606641 1.15917, -0.567619 1.37297, -0.531345 1.6137, -0.445331 1.83052, -0.309577 2.02371, -0.194709 2.17348, -0.0537339 2.29439, 0.113897 2.38672, 0.281528 2.47906, 0.458777 2.52523, 0.645644 2.52495, 0.787718 2.52523, 0.924296 2.50269, 1.05565 2.45707, 1.18701 2.41173, 1.30847 2.3466, 1.42004 2.26141, 1.53189 2.1765, 1.62615 2.07757, 1.70309 1.96462, 1.78004 1.85195, 1.83665 1.72637, 1.87292 1.58842, 1.89106 1.51834, 1.93915 1.48317, 2.01774 1.48289 L 2.06748 1.48289 C 2.1491 1.50075, 2.19142 1.54774, 2.19417 1.62359 Z M 1.48352 0.383672 C 1.47748 0.205049, 1.45632 0.0220292, 1.42004 -0.165662, 1.38377 -0.353079, 1.3115 -0.52758, 1.20267 -0.689165, 1.11831 -0.812003, 1.01278 -0.908734, 0.885823 -0.979084, 0.759138 -1.04943, 0.623385 -1.08461, 0.478288 -1.08488, 0.309283 -1.08461, 0.153744 -1.03899, 0.0119443 -0.948306, -0.129855 -0.857346, -0.24912 -0.735607, -0.345851 -0.583365, -0.442308 -0.430849, -0.508811 -0.270363, -0.545085 -0.101908, -0.581359 0.0668223, -0.603893 0.228682, -0.612962 0.383672 L 1.48352 0.383672 Z" stroke="none" fill="#000000" transform="matrix(1.12 0 0 1 13.4343 13.9768)" />
			<path d="M 2.83179 4.48596 C 2.45751 4.47441, 2.09394 4.46837, 1.74054 4.46837, 1.39347 4.46837, 1.03127 4.47441, 0.653692 4.48596 L 0.653692 4.12981 C 0.78972 4.12981, 0.915031 4.12844, 1.02962 4.12541, 1.14449 4.12266, 1.23051 4.10783, 1.28767 4.08144, 1.32394 4.06386, 1.34812 4.0339, 1.36021 3.99131, 1.37231 3.94899, 1.37835 3.90117, 1.37835 3.84841 L 1.37835 2.27873 C 1.28767 2.40514, 1.13597 2.53045, 0.923275 2.65493, 0.710576 2.77942, 0.469847 2.84153, 0.201088 2.84153, -0.0764644 2.84153, -0.339178 2.78739, -0.586777 2.67912, -0.834101 2.57084, -1.04845 2.42107, -1.22982 2.23036, -1.42603 2.02536, -1.5747 1.79837, -1.67583 1.54912, -1.77696 1.30015, -1.82752 1.03771, -1.82752 0.761804, -1.82752 0.486449, -1.77448 0.221263, -1.66896 -0.033756, -1.56316 -0.288775, -1.41064 -0.51439, -1.21168 -0.71115, -1.00943 -0.90736, -0.780514 -1.05878, -0.525495 -1.16595, -0.270476 -1.27285, -0.00116801 -1.32644, 0.28243 -1.32671, 0.569327 -1.32644, 0.820773 -1.24784, 1.03649 -1.0912, 1.25249 -0.934291, 1.40858 -0.760614, 1.50504 -0.57045 L 1.82656 -1.32671, 2.1118 -1.32671, 2.1118 3.84841 C 2.1118 3.89842, 2.11785 3.94459, 2.12994 3.98691, 2.14203 4.02951, 2.16787 4.06111, 2.20689 4.08144, 2.25828 4.10783, 2.34127 4.12266, 2.45586 4.12541, 2.57073 4.12844, 2.69604 4.12981, 2.83179 4.12981 L 2.83179 4.48596 Z M 1.39649 0.0539067 C 1.32999 -0.244806, 1.20467 -0.497626, 1.02056 -0.704279, 0.836437 -0.910933, 0.602578 -1.01426, 0.318705 -1.01453, 0.143929 -1.01426, -0.020679 -0.968092, -0.17457 -0.875758, -0.32846 -0.783423, -0.459817 -0.661135, -0.56864 -0.508893, -0.707416 -0.329721, -0.806895 -0.131037, -0.867352 0.087158, -0.927809 0.305628, -0.958038 0.530418, -0.958038 0.761804, -0.958038 0.993739, -0.931656 1.21935, -0.878894 1.4392, -0.826131 1.65904, -0.731599 1.86267, -0.595845 2.05009, -0.493068 2.19683, -0.372429 2.3172, -0.233653 2.41091, -0.0946014 2.50489, 0.0562663 2.55161, 0.219225 2.55133, 0.497053 2.55161, 0.736958 2.46367, 0.939214 2.28779, 1.14147 2.11192, 1.29371 1.88768, 1.39649 1.6148 Z" stroke="none" fill="#000000" transform="matrix(1.12 0 0 1 18.3991 13.9768)" />
			<rect />
		</svg>
	</g>
	<rect x="-72.8767853" y="-18.2190857" width="145.753571" height="36.4381714" stroke="none" fill="#FFFFFF" transform="matrix(0.25 0 -0 0.25 131.539 38.1568)" />
	<path d="M -72.8768 -18.2191 L 72.8768 -18.2191, 72.8768 18.2191, -72.8768 18.2191 Z" fill="none" stroke="#000000" stroke-width="6" stroke-linecap="round" stroke-linejoin="round" transform="matrix(0.25 0 -0 0.25 131.539 38.1568)" />
	<path d="M -195.959 0 L 195.958 6.10352e-005" fill="none" stroke="#000000" stroke-width="5.33333349" stroke-linecap="round" stroke-linejoin="round" transform="matrix(0.25 0 0 0.25 303.755 38.1568)" />
	<rect x="-72.8770447" y="-18.2190857" width="145.754089" height="36.4381714" stroke="none" fill="#FFFFFF" transform="matrix(0.25 0 -0 0.25 308.266 38.1568)" />
	<path d="M -72.877 -18.2191 L 72.877 -18.2191, 72.877 18.2191, -72.877 18.2191 Z" fill="none" stroke="#000000" stroke-width="6" stroke-linecap="round" stroke-linejoin="round" transform="matrix(0.25 0 -0 0.25 308.266 38.1568)" />
	<g transform="matrix(1 0 -0 1 58.4569 8.5)">
		<svg width="50.936203" height="45.2233963">
			<defs />
			<path d="M 11.1132 12.8505 C 11.0543 13.0865, 10.9654 13.3182, 10.8467 13.5458, 10.7279 13.7735, 10.5827 13.9792, 10.4099 14.1622, 10.2372 14.3457, 10.0444 14.4954, 9.83138 14.6132, 9.61841 14.7309, 9.38826 14.7898, 9.13996 14.7898, 8.35824 14.7898, 7.77035 14.5832, 7.37679 14.1696, 7.10738 13.8874, 6.97243 13.5316, 6.97243 13.1017, 6.97243 12.8824, 7.00777 12.6444, 7.07794 12.3873 L 7.44157 10.9818 C 7.48475 10.8042, 7.50634 10.6368, 7.50634 10.4793, 7.50634 10.4013, 7.50094 10.3203, 7.49015 10.2359, 7.45776 10.0166, 7.38268 9.82323, 7.26392 9.6554, 7.14517 9.48806, 6.99305 9.35606, 6.80706 9.25889, 6.62108 9.16222, 6.40123 9.11364, 6.14753 9.11315 L 4.32008 9.11315, 3.24442 13.298 C 3.22282 13.3981, 3.21203 13.4791, 3.21203 13.5414, 3.21203 13.6204, 3.22822 13.6729, 3.26061 13.6985, 3.33078 13.7407, 3.47653 13.7657, 3.69735 13.7735, 3.91867 13.7814, 4.15569 13.7853, 4.4089 13.7848, 4.56004 13.7853, 4.63561 13.8481, 4.63561 13.9733, 4.63561 14.0052, 4.63022 14.039, 4.61942 14.0753 L 4.58703 14.201 C 4.52815 14.358, 4.42264 14.4365, 4.2715 14.4365, 3.60853 14.4051, 2.94017 14.3894, 2.26591 14.3894, 1.59215 14.3894, 0.915446 14.4051, 0.236286 14.4365, 0.0910318 14.4365, 0.0130069 14.3688, 0.00172029 14.2324 L 0.00172029 14.1696, 0.034108 14.0361 C 0.0772916 13.8638, 0.182306 13.7799, 0.349152 13.7848, 0.602856 13.7853, 0.842819 13.7814, 1.06904 13.7735, 1.29576 13.7657, 1.4626 13.7382, 1.57056 13.6906, 1.67312 13.6337, 1.75115 13.4924, 1.80513 13.2666 L 4.07766 4.41791 C 4.11005 4.30309, 4.12575 4.21426, 4.12575 4.15096, 4.12575 4.08864, 4.1125 4.05184, 4.08551 4.04104, 4.00994 3.99442, 3.86322 3.96596, 3.64485 3.95516, 3.42647 3.94486, 3.18798 3.93946, 2.92888 3.93897, 2.77823 3.93946, 2.70266 3.8688, 2.70266 3.72698 L 2.70266 3.66416, 2.75124 3.53069 C 2.78363 3.37415, 2.88373 3.29563, 3.05058 3.29514 L 7.6035 3.29514 C 8.11582 3.29563, 8.6036 3.36384, 9.06733 3.49977, 9.53106 3.63619, 9.93542 3.86094, 10.2804 4.17452, 10.566 4.42626, 10.7736 4.73492, 10.9031 5.101, 10.9841 5.30023, 11.0273 5.50732, 11.0322 5.72127, 11.0322 5.9156, 11.0027 6.10649, 10.9434 6.29444, 10.8413 6.71352, 10.6283 7.09333, 10.3044 7.43341, 9.98106 7.77397, 9.61694 8.06398, 9.21258 8.30444, 8.93238 8.46736, 8.64825 8.60231, 8.35971 8.70928, 8.07116 8.81675, 7.86506 8.88349, 7.74091 8.90901, 8.0481 9.02973, 8.33959 9.26527, 8.61439 9.61565, 8.8465 9.9199, 8.96231 10.2835, 8.96231 10.707, 8.96231 10.7963, 8.95692 10.8856, 8.94612 10.974 L 8.79203 12.3873 C 8.74934 12.7543, 8.72775 13.0733, 8.72775 13.3451, 8.72775 13.5238, 8.73855 13.6808, 8.76014 13.8162, 8.79792 14.1254, 8.95937 14.28, 9.24497 14.2795, 9.50407 14.28, 9.74109 14.1401, 9.95701 13.8599, 10.1729 13.5802, 10.3319 13.2333, 10.434 12.8191, 10.4934 12.6625, 10.5984 12.5865, 10.7495 12.5914 L 10.8786 12.5914 C 11.0243 12.5919, 11.1024 12.6601, 11.1132 12.7955 L 11.1132 12.8505 Z M 9.21258 6.24733 C 9.29895 5.93376, 9.34753 5.61969, 9.35833 5.30514 L 9.35833 5.25803 C 9.35833 4.99157, 9.27491 4.76142, 9.10757 4.56709, 8.90833 4.33744, 8.64825 4.17501, 8.32732 4.08079, 8.00639 3.98657, 7.65454 3.93946, 7.27178 3.93897 L 6.19611 3.93897 C 5.92131 3.93946, 5.75692 3.96056, 5.70294 4.00227, 5.64896 4.04447, 5.59252 4.19316, 5.53315 4.44932 L 4.46582 8.6028, 6.02632 8.6028 C 6.40909 8.60329, 6.78694 8.55618, 7.15891 8.46196, 7.53088 8.36774, 7.8842 8.20041, 8.21789 7.95897, 8.50398 7.75532, 8.7199 7.49916, 8.86515 7.19001, 9.0109 6.88134, 9.12671 6.56728, 9.21258 6.24733 Z" stroke="none" fill="#000000" />
			<path d="M 2.03372 2.7404 C 1.47834 2.72281, 0.938069 2.71402, 0.412642 2.71402, -0.112509 2.71402, -0.652775 2.72281, -1.20816 2.7404 L -1.20816 2.36227, -0.895703 2.36227 C -0.796223 2.36254, -0.702515 2.36117, -0.615127 2.35814, -0.527464 2.3554, -0.444473 2.34798, -0.365879 2.33616, -0.287285 2.32462, -0.219408 2.3128, -0.162249 2.30071, -0.113883 2.29219, -0.0740366 2.26526, -0.042434 2.21964, -0.0105567 2.1743, 0.00510716 2.12374, 0.00510716 2.06768 L 0.00510716 -2.8876 C -0.145486 -2.81396, -0.331254 -2.75817, -0.551647 -2.72025, -0.77204 -2.68205, -1.01332 -2.66309, -1.27603 -2.66336 L -1.27603 -3.0371 C -0.91384 -3.03682, -0.579402 -3.07997, -0.272995 -3.16653, 0.033412 -3.25282, 0.298324 -3.41495, 0.521465 -3.65266 L 0.66189 -3.65266 C 0.76137 -3.65238, 0.811109 -3.60402, 0.811109 -3.50756 L 0.811109 2.06768 C 0.811109 2.12648, 0.826224 2.17787, 0.856452 2.22184, 0.886681 2.26581, 0.930649 2.29219, 0.987809 2.30071, 1.03617 2.3128, 1.09828 2.32462, 1.17358 2.33616, 1.24887 2.34798, 1.33406 2.3554, 1.42915 2.35814, 1.52423 2.36117, 1.61711 2.36254, 1.7078 2.36227 L 2.03372 2.36227, 2.03372 2.7404 Z" stroke="none" fill="#000000" transform="matrix(1.12 0 0 1 13.2226 13.9768)" />
			<rect />
		</svg>
	</g>
	<g transform="matrix(1 0 -0 1 124.804 8.5)">
		<svg width="54.0936813" height="45.2233963">
			<defs />
			<path d="M 11.1132 12.8505 C 11.0543 13.0865, 10.9654 13.3182, 10.8467 13.5458, 10.7279 13.7735, 10.5827 13.9792, 10.4099 14.1622, 10.2372 14.3457, 10.0444 14.4954, 9.83138 14.6132, 9.61841 14.7309, 9.38826 14.7898, 9.13996 14.7898, 8.35824 14.7898, 7.77035 14.5832, 7.37679 14.1696, 7.10738 13.8874, 6.97243 13.5316, 6.97243 13.1017, 6.97243 12.8824, 7.00777 12.6444, 7.07794 12.3873 L 7.44157 10.9818 C 7.48475 10.8042, 7.50634 10.6368, 7.50634 10.4793, 7.50634 10.4013, 7.50094 10.3203, 7.49015 10.2359, 7.45776 10.0166, 7.38268 9.82323, 7.26392 9.6554, 7.14517 9.48806, 6.99305 9.35606, 6.80706 9.25889, 6.62108 9.16222, 6.40123 9.11364, 6.14753 9.11315 L 4.32008 9.11315, 3.24442 13.298 C 3.22282 13.3981, 3.21203 13.4791, 3.21203 13.5414, 3.21203 13.6204, 3.22822 13.6729, 3.26061 13.6985, 3.33078 13.7407, 3.47653 13.7657, 3.69735 13.7735, 3.91867 13.7814, 4.15569 13.7853, 4.4089 13.7848, 4.56004 13.7853, 4.63561 13.8481, 4.63561 13.9733, 4.63561 14.0052, 4.63022 14.039, 4.61942 14.0753 L 4.58703 14.201 C 4.52815 14.358, 4.42264 14.4365, 4.2715 14.4365, 3.60853 14.4051, 2.94017 14.3894, 2.26591 14.3894, 1.59215 14.3894, 0.915446 14.4051, 0.236286 14.4365, 0.0910318 14.4365, 0.0130069 14.3688, 0.00172029 14.2324 L 0.00172029 14.1696, 0.034108 14.0361 C 0.0772916 13.8638, 0.182306 13.7799, 0.349152 13.7848, 0.602856 13.7853, 0.842819 13.7814, 1.06904 13.7735, 1.29576 13.7657, 1.4626 13.7382, 1.57056 13.6906, 1.67312 13.6337, 1.75115 13.4924, 1.80513 13.2666 L 4.07766 4.41791 C 4.11005 4.30309, 4.12575 4.21426, 4.12575 4.15096, 4.12575 4.08864, 4.1125 4.05184, 4.08551 4.04104, 4.00994 3.99442, 3.86322 3.96596, 3.64485 3.95516, 3.42647 3.94486, 3.18798 3.93946, 2.92888 3.93897, 2.77823 3.93946, 2.70266 3.8688, 2.70266 3.72698 L 2.70266 3.66416, 2.75124 3.53069 C 2.78363 3.37415, 2.88373 3.29563, 3.05058 3.29514 L 7.6035 3.29514 C 8.11582 3.29563, 8.6036 3.36384, 9.06733 3.49977, 9.53106 3.63619, 9.93542 3.86094, 10.2804 4.17452, 10.566 4.42626, 10.7736 4.73492, 10.9031 5.101, 10.9841 5.30023, 11.0273 5.50732, 11.0322 5.72127, 11.0322 5.9156, 11.0027 6.10649, 10.9434 6.29444, 10.8413 6.71352, 10.6283 7.09333, 10.3044 7.43341, 9.98106 7.77397, 9.61694 8.06398, 9.21258 8.30444, 8.93238 8.46736, 8.64825 8.60231, 8.35971 8.70928, 8.07116 8.81675, 7.86506 8.88349, 7.74091 8.90901, 8.0481 9.02973, 8.33959 9.26527, 8.61439 9.61565, 8.8465 9.9199, 8.96231 10.2835, 8.96231 10.707, 8.96231 10.7963, 8.95692 10.8856, 8.94612 10.974 L 8.79203 12.3873 C 8.74934 12.7543, 8.72775 13.0733, 8.72775 13.3451, 8.72775 13.5238, 8.73855 13.6808, 8.76014 13.8162, 8.79792 14.1254, 8.95937 14.28, 9.24497 14.2795, 9.50407 14.28, 9.74109 14.1401, 9.95701 13.8599, 10.1729 13.5802, 10.3319 13.2333, 10.434 12.8191, 10.4934 12.6625, 10.5984 12.5865, 10.7495 12.5914 L 10.8786 12.5914 C 11.0243 12.5919, 11.1024 12.6601, 11.1132 12.7955 L 11.1132 12.8505 Z M 9.21258 6.24733 C 9.29895 5.93376, 9.34753 5.61969, 9.35833 5.30514 L 9.35833 5.25803 C 9.35833 4.99157, 9.27491 4.76142, 9.10757 4.56709, 8.90833 4.33744, 8.64825 4.17501, 8.32732 4.08079, 8.00639 3.98657, 7.65454 3.93946, 7.27178 3.93897 L 6.19611 3.93897 C 5.92131 3.93946, 5.75692 3.96056, 5.70294 4.00227, 5.64896 4.04447, 5.59252 4.19316, 5.53315 4.44932 L 4.46582 8.6028, 6.02632 8.6028 C 6.40909 8.60329, 6.78694 8.55618, 7.15891 8.46196, 7.53088 8.36774, 7.8842 8.20041, 8.21789 7.95897, 8.50398 7.75532, 8.7199 7.49916, 8.86515 7.19001, 9.0109 6.88134, 9.12671 6.56728, 9.21258 6.24733 Z" stroke="none" fill="#000000" />
			<path d="M 2.04975 2.7404 L -1.63593 2.7404, -1.63593 2.49857 C -1.63593 2.48126, -1.62686 2.45487, -1.60872 2.41943 L -0.128074 0.810169 C 0.0472517 0.616981, 0.224501 0.419122, 0.404223 0.216866, 0.583945 0.0146096, 0.744431 -0.192044, 0.88623 -0.403094, 1.02803 -0.614144, 1.14125 -0.831789, 1.22589 -1.05603, 1.31053 -1.28027, 1.35257 -1.5155, 1.35257 -1.762, 1.35257 -1.96976, 1.32564 -2.16404, 1.27123 -2.34431, 1.21682 -2.52459, 1.1385 -2.68287, 1.03572 -2.81918, 0.932947 -2.95548, 0.804614 -3.0654, 0.650723 -3.14894, 0.496832 -3.23248, 0.318759 -3.27425, 0.116503 -3.27453, -0.185233 -3.27425, -0.451793 -3.18412, -0.682629 -3.00385, -0.913465 -2.82357, -1.06681 -2.62489, -1.14238 -2.40834, -1.15722 -2.4023, -1.13303 -2.39928, -1.06983 -2.39955 L -0.992884 -2.39955 C -0.902198 -2.37866, -0.823879 -2.34706, -0.757376 -2.30474, -0.690874 -2.26215, -0.635088 -2.20361, -0.589745 -2.12887, -0.544403 -2.05412, -0.521869 -1.96398, -0.521869 -1.85873, -0.521869 -1.68258, -0.579028 -1.54766, -0.693896 -1.45395, -0.808765 -1.35996, -0.937099 -1.31325, -1.0789 -1.31352, -1.21465 -1.31325, -1.34134 -1.35996, -1.45923 -1.45395, -1.57684 -1.54766, -1.63593 -1.68258, -1.63593 -1.85873, -1.63593 -2.10468, -1.58756 -2.33772, -1.49083 -2.55756, -1.3941 -2.77741, -1.26302 -2.96785, -1.09703 -3.12916, -0.931053 -3.29019, -0.734842 -3.4177, -0.508403 -3.51168, -0.281964 -3.60539, -0.041785 -3.65238, 0.211585 -3.65266, 0.525412 -3.65238, 0.813133 -3.60622, 1.0742 -3.51388, 1.33526 -3.42155, 1.55785 -3.28882, 1.74197 -3.11597, 1.92609 -2.94284, 2.07036 -2.74278, 2.17451 -2.51579, 2.27867 -2.28853, 2.3306 -2.03736, 2.3306 -1.762, 2.3306 -1.45697, 2.26135 -1.17612, 2.1223 -0.919726, 1.98353 -0.663059, 1.8115 -0.427826, 1.60622 -0.214028, 1.40094 4.48227e-005, 1.18274 0.201477, 0.951909 0.390542, 0.721073 0.579608, 0.511946 0.763452, 0.324805 0.942075 L -0.716705 1.92258, 0.646326 1.92258 C 0.836491 1.92285, 1.01401 1.92148, 1.17835 1.91846, 1.34296 1.91571, 1.48256 1.90966, 1.59715 1.90087, 1.71202 1.89208, 1.77083 1.8863, 1.77357 1.88301, 1.79776 1.86267, 1.82057 1.82173, 1.84173 1.76017, 1.86289 1.69861, 1.8824 1.62606, 1.90053 1.54252, 1.91867 1.45898, 1.93681 1.37407, 1.95495 1.2875, 1.97308 1.20122, 1.98957 1.10641, 2.00469 1.00363 L 2.33967 1.00363 Z" stroke="none" fill="#000000" transform="matrix(1.12 0 0 1 13.5851 13.9768)" />
			<rect />
		</svg>
	</g>
	<path d="M -65.8713 0 L 65.8714 0" fill="none" stroke="#000000" stroke-width="5.33333349" stroke-linecap="round" stroke-linejoin="round" transform="matrix(0.25 0 0 0.25 27.3185 128.501)" />
	<path d="M -229.55 -121.461 L 229.55 -121.461, 229.55 121.461, -229.55 121.461 Z" fill="none" stroke="#000000" stroke-width="5.33333349" stroke-linecap="round" stroke-linejoin="round" transform="matrix(0.25 0 -0 0.25 101.174 128.501)" />
	<rect x="-72.8768005" y="-18.2190685" width="145.753601" height="36.4381371" stroke="none" fill="#FFFFFF" transform="matrix(0.25 0 -0 0.25 101.174 98.1356)" />
	<path d="M -72.8768 -18.2191 L 72.8768 -18.2191, 72.8768 18.2191, -72.8768 18.2191 Z" fill="none" stroke="#000000" stroke-width="6" stroke-linecap="round" stroke-linejoin="round" transform="matrix(0.25 0 -0 0.25 101.174 98.1356)" />
	<g transform="matrix(1 0 -0 1 93.5234 68.4789)">
		<svg width="50.936203" height="45.2233963">
			<defs />
			<path d="M 11.1132 12.8505 C 11.0543 13.0865, 10.9654 13.3182, 10.8467 13.5458, 10.7279 13.7735, 10.5827 13.9792, 10.4099 14.1622, 10.2372 14.3457, 10.0444 14.4954, 9.83138 14.6132, 9.61841 14.7309, 9.38826 14.7898, 9.13996 14.7898, 8.35824 14.7898, 7.77035 14.5832, 7.37679 14.1696, 7.10738 13.8874, 6.97243 13.5316, 6.97243 13.1017, 6.97243 12.8824, 7.00777 12.6444, 7.07794 12.3873 L 7.44157 10.9818 C 7.48475 10.8042, 7.50634 10.6368, 7.50634 10.4793, 7.50634 10.4013, 7.50094 10.3203, 7.49015 10.2359, 7.45776 10.0166, 7.38268 9.82323, 7.26392 9.6554, 7.14517 9.48806, 6.99305 9.35606, 6.80706 9.25889, 6.62108 9.16222, 6.40123 9.11364, 6.14753 9.11315 L 4.32008 9.11315, 3.24442 13.298 C 3.22282 13.3981, 3.21203 13.4791, 3.21203 13.5414, 3.21203 13.6204, 3.22822 13.6729, 3.26061 13.6985, 3.33078 13.7407, 3.47653 13.7657, 3.69735 13.7735, 3.91867 13.7814, 4.15569 13.7853, 4.4089 13.7848, 4.56004 13.7853, 4.63561 13.8481, 4.63561 13.9733, 4.63561 14.0052, 4.63022 14.039, 4.61942 14.0753 L 4.58703 14.201 C 4.52815 14.358, 4.42264 14.4365, 4.2715 14.4365, 3.60853 14.4051, 2.94017 14.3894, 2.26591 14.3894, 1.59215 14.3894, 0.915446 14.4051, 0.236286 14.4365, 0.0910318 14.4365, 0.0130069 14.3688, 0.00172029 14.2324 L 0.00172029 14.1696, 0.034108 14.0361 C 0.0772916 13.8638, 0.182306 13.7799, 0.349152 13.7848, 0.602856 13.7853, 0.842819 13.7814, 1.06904 13.7735, 1.29576 13.7657, 1.4626 13.7382, 1.57056 13.6906, 1.67312 13.6337, 1.75115 13.4924, 1.80513 13.2666 L 4.07766 4.41791 C 4.11005 4.30309, 4.12575 4.21426, 4.12575 4.15096, 4.12575 4.08864, 4.1125 4.05184, 4.08551 4.04104, 4.00994 3.99442, 3.86322 3.96596, 3.64485 3.95516, 3.42647 3.94486, 3.18798 3.93946, 2.92888 3.93897, 2.77823 3.93946, 2.70266 3.8688, 2.70266 3.72698 L 2.70266 3.66416, 2.75124 3.53069 C 2.78363 3.37415, 2.88373 3.29563, 3.05058 3.29514 L 7.6035 3.29514 C 8.11582 3.29563, 8.6036 3.36384, 9.06733 3.49977, 9.53106 3.63619, 9.93542 3.86094, 10.2804 4.17452, 10.566 4.42626, 10.7736 4.73492, 10.9031 5.101, 10.9841 5.30023, 11.0273 5.50732, 11.0322 5.72127, 11.0322 5.9156, 11.0027 6.10649, 10.9434 6.29444, 10.8413 6.71352, 10.6283 7.09333, 10.3044 7.43341, 9.98106 7.77397, 9.61694 8.06398, 9.21258 8.30444, 8.93238 8.46736, 8.64825 8.60231, 8.35971 8.70928, 8.07116 8.81675, 7.86506 8.88349, 7.74091 8.90901, 8.0481 9.02973, 8.33959 9.26527, 8.61439 9.61565, 8.8465 9.9199, 8.96231 10.2835, 8.96231 10.707, 8.96231 10.7963, 8.95692 10.8856, 8.94612 10.974 L 8.79203 12.3873 C 8.74934 12.7543, 8.72775 13.0733, 8.72775 13.3451, 8.72775 13.5238, 8.73855 13.6808, 8.76014 13.8162, 8.79792 14.1254, 8.95937 14.28, 9.24497 14.2795, 9.50407 14.28, 9.74109 14.1401, 9.95701 13.8599, 10.1729 13.5802, 10.3319 13.2333, 10.434 12.8191, 10.4934 12.6625, 10.5984 12.5865, 10.7495 12.5914 L 10.8786 12.5914 C 11.0243 12.5919, 11.1024 12.6601, 11.1132 12.7955 L 11.1132 12.8505 Z M 9.21258 6.24733 C 9.29895 5.93376, 9.34753 5.61969, 9.35833 5.30514 L 9.35833 5.25803 C 9.35833 4.99157, 9.27491 4.76142, 9.10757 4.56709, 8.90833 4.33744, 8.64825 4.17501, 8.32732 4.08079, 8.00639 3.98657, 7.65454 3.93946, 7.27178 3.93897 L 6.19611 3.93897 C 5.92131 3.93946, 5.75692 3.96056, 5.70294 4.00227, 5.64896 4.04447, 5.59252 4.19316, 5.53315 4.44932 L 4.46582 8.6028, 6.02632 8.6028 C 6.40909 8.60329, 6.78694 8.55618, 7.15891 8.46196, 7.53088 8.36774, 7.8842 8.20041, 8.21789 7.95897, 8.50398 7.75532, 8.7199 7.49916, 8.86515 7.19001, 9.0109 6.88134, 9.12671 6.56728, 9.21258 6.24733 Z" stroke="none" fill="#000000" />
			<path d="M 2.03372 2.7404 C 1.47834 2.72281, 0.938069 2.71402, 0.412642 2.71402, -0.112509 2.71402, -0.652775 2.72281, -1.20816 2.7404 L -1.20816 2.36227, -0.895703 2.36227 C -0.796223 2.36254, -0.702515 2.36117, -0.615127 2.35814, -0.527464 2.3554, -0.444473 2.34798, -0.365879 2.33616, -0.287285 2.32462, -0.219408 2.3128, -0.162249 2.30071, -0.113883 2.29219, -0.0740366 2.26526, -0.042434 2.21964, -0.0105567 2.1743, 0.00510716 2.12374, 0.00510716 2.06768 L 0.00510716 -2.8876 C -0.145486 -2.81396, -0.331254 -2.75817, -0.551647 -2.72025, -0.77204 -2.68205, -1.01332 -2.66309, -1.27603 -2.66336 L -1.27603 -3.0371 C -0.91384 -3.03682, -0.579402 -3.07997, -0.272995 -3.16653, 0.033412 -3.25282, 0.298324 -3.41495, 0.521465 -3.65266 L 0.66189 -3.65266 C 0.76137 -3.65238, 0.811109 -3.60402, 0.811109 -3.50756 L 0.811109 2.06768 C 0.811109 2.12648, 0.826224 2.17787, 0.856452 2.22184, 0.886681 2.26581, 0.930649 2.29219, 0.987809 2.30071, 1.03617 2.3128, 1.09828 2.32462, 1.17358 2.33616, 1.24887 2.34798, 1.33406 2.3554, 1.42915 2.35814, 1.52423 2.36117, 1.61711 2.36254, 1.7078 2.36227 L 2.03372 2.36227, 2.03372 2.7404 Z" stroke="none" fill="#000000" transform="matrix(1.12 0 0 1 13.2226 13.9768)" />
			<rect />
		</svg>
	</g>
	<rect x="-72.8766556" y="-18.2190323" width="145.753311" height="36.4380646" stroke="none" fill="#FFFFFF" transform="matrix(0.25 0 -0 0.25 101.174 158.866)" />
	<path d="M -72.8767 -18.219 L 72.8767 -18.219, 72.8767 18.219, -72.8767 18.219 Z" fill="none" stroke="#000000" stroke-width="6" stroke-linecap="round" stroke-linejoin="round" transform="matrix(0.25 0 -0 0.25 101.174 158.866)" />
	<g transform="matrix(1 0 -0 1 93.1505 129.209)">
		<svg width="54.0936813" height="45.2233963">
			<defs />
			<path d="M 11.1132 12.8505 C 11.0543 13.0865, 10.9654 13.3182, 10.8467 13.5458, 10.7279 13.7735, 10.5827 13.9792, 10.4099 14.1622, 10.2372 14.3457, 10.0444 14.4954, 9.83138 14.6132, 9.61841 14.7309, 9.38826 14.7898, 9.13996 14.7898, 8.35824 14.7898, 7.77035 14.5832, 7.37679 14.1696, 7.10738 13.8874, 6.97243 13.5316, 6.97243 13.1017, 6.97243 12.8824, 7.00777 12.6444, 7.07794 12.3873 L 7.44157 10.9818 C 7.48475 10.8042, 7.50634 10.6368, 7.50634 10.4793, 7.50634 10.4013, 7.50094 10.3203, 7.49015 10.2359, 7.45776 10.0166, 7.38268 9.82323, 7.26392 9.6554, 7.14517 9.48806, 6.99305 9.35606, 6.80706 9.25889, 6.62108 9.16222, 6.40123 9.11364, 6.14753 9.11315 L 4.32008 9.11315, 3.24442 13.298 C 3.22282 13.3981, 3.21203 13.4791, 3.21203 13.5414, 3.21203 13.6204, 3.22822 13.6729, 3.26061 13.6985, 3.33078 13.7407, 3.47653 13.7657, 3.69735 13.7735, 3.91867 13.7814, 4.15569 13.7853, 4.4089 13.7848, 4.56004 13.7853, 4.63561 13.8481, 4.63561 13.9733, 4.63561 14.0052, 4.63022 14.039, 4.61942 14.0753 L 4.58703 14.201 C 4.52815 14.358, 4.42264 14.4365, 4.2715 14.4365, 3.60853 14.4051, 2.94017 14.3894, 2.26591 14.3894, 1.59215 14.3894, 0.915446 14.4051, 0.236286 14.4365, 0.0910318 14.4365, 0.0130069 14.3688, 0.00172029 14.2324 L 0.00172029 14.1696, 0.034108 14.0361 C 0.0772916 13.8638, 0.182306 13.7799, 0.349152 13.7848, 0.602856 13.7853, 0.842819 13.7814, 1.06904 13.7735, 1.29576 13.7657, 1.4626 13.7382, 1.57056 13.6906, 1.67312 13.6337, 1.75115 13.4924, 1.80513 13.2666 L 4.07766 4.41791 C 4.11005 4.30309, 4.12575 4.21426, 4.12575 4.15096, 4.12575 4.08864, 4.1125 4.05184, 4.08551 4.04104, 4.00994 3.99442, 3.86322 3.96596, 3.64485 3.95516, 3.42647 3.94486, 3.18798 3.93946, 2.92888 3.93897, 2.77823 3.93946, 2.70266 3.8688, 2.70266 3.72698 L 2.70266 3.66416, 2.75124 3.53069 C 2.78363 3.37415, 2.88373 3.29563, 3.05058 3.29514 L 7.6035 3.29514 C 8.11582 3.29563, 8.6036 3.36384, 9.06733 3.49977, 9.53106 3.63619, 9.93542 3.86094, 10.2804 4.17452, 10.566 4.42626, 10.7736 4.73492, 10.9031 5.101, 10.9841 5.30023, 11.0273 5.50732, 11.0322 5.72127, 11.0322 5.9156, 11.0027 6.10649, 10.9434 6.29444, 10.8413 6.71352, 10.6283 7.09333, 10.3044 7.43341, 9.98106 7.77397, 9.61694 8.06398, 9.21258 8.30444, 8.93238 8.46736, 8.64825 8.60231, 8.35971 8.70928, 8.07116 8.81675, 7.86506 8.88349, 7.74091 8.90901, 8.0481 9.02973, 8.33959 9.26527, 8.61439 9.61565, 8.8465 9.9199, 8.96231 10.2835, 8.96231 10.707, 8.96231 10.7963, 8.95692 10.8856, 8.94612 10.974 L 8.79203 12.3873 C 8.74934 12.7543, 8.72775 13.0733, 8.72775 13.3451, 8.72775 13.5238, 8.73855 13.6808, 8.76014 13.8162, 8.79792 14.1254, 8.95937 14.28, 9.24497 14.2795, 9.50407 14.28, 9.74109 14.1401, 9.95701 13.8599, 10.1729 13.5802, 10.3319 13.2333, 10.434 12.8191, 10.4934 12.6625, 10.5984 12.5865, 10.7495 12.5914 L 10.8786 12.5914 C 11.0243 12.5919, 11.1024 12.6601, 11.1132 12.7955 L 11.1132 12.8505 Z M 9.21258 6.24733 C 9.29895 5.93376, 9.34753 5.61969, 9.35833 5.30514 L 9.35833 5.25803 C 9.35833 4.99157, 9.27491 4.76142, 9.10757 4.56709, 8.90833 4.33744, 8.64825 4.17501, 8.32732 4.08079, 8.00639 3.98657, 7.65454 3.93946, 7.27178 3.93897 L 6.19611 3.93897 C 5.92131 3.93946, 5.75692 3.96056, 5.70294 4.00227, 5.64896 4.04447, 5.59252 4.19316, 5.53315 4.44932 L 4.46582 8.6028, 6.02632 8.6028 C 6.40909 8.60329, 6.78694 8.55618, 7.15891 8.46196, 7.53088 8.36774, 7.8842 8.20041, 8.21789 7.95897, 8.50398 7.75532, 8.7199 7.49916, 8.86515 7.19001, 9.0109 6.88134, 9.12671 6.56728, 9.21258 6.24733 Z" stroke="none" fill="#000000" />
			<path d="M 2.04975 2.7404 L -1.63593 2.7404, -1.63593 2.49857 C -1.63593 2.48126, -1.62686 2.45487, -1.60872 2.41943 L -0.128074 0.810169 C 0.0472517 0.616981, 0.224501 0.419122, 0.404223 0.216866, 0.583945 0.0146096, 0.744431 -0.192044, 0.88623 -0.403094, 1.02803 -0.614144, 1.14125 -0.831789, 1.22589 -1.05603, 1.31053 -1.28027, 1.35257 -1.5155, 1.35257 -1.762, 1.35257 -1.96976, 1.32564 -2.16404, 1.27123 -2.34431, 1.21682 -2.52459, 1.1385 -2.68287, 1.03572 -2.81918, 0.932947 -2.95548, 0.804614 -3.0654, 0.650723 -3.14894, 0.496832 -3.23248, 0.318759 -3.27425, 0.116503 -3.27453, -0.185233 -3.27425, -0.451793 -3.18412, -0.682629 -3.00385, -0.913465 -2.82357, -1.06681 -2.62489, -1.14238 -2.40834, -1.15722 -2.4023, -1.13303 -2.39928, -1.06983 -2.39955 L -0.992884 -2.39955 C -0.902198 -2.37866, -0.823879 -2.34706, -0.757376 -2.30474, -0.690874 -2.26215, -0.635088 -2.20361, -0.589745 -2.12887, -0.544403 -2.05412, -0.521869 -1.96398, -0.521869 -1.85873, -0.521869 -1.68258, -0.579028 -1.54766, -0.693896 -1.45395, -0.808765 -1.35996, -0.937099 -1.31325, -1.0789 -1.31352, -1.21465 -1.31325, -1.34134 -1.35996, -1.45923 -1.45395, -1.57684 -1.54766, -1.63593 -1.68258, -1.63593 -1.85873, -1.63593 -2.10468, -1.58756 -2.33772, -1.49083 -2.55756, -1.3941 -2.77741, -1.26302 -2.96785, -1.09703 -3.12916, -0.931053 -3.29019, -0.734842 -3.4177, -0.508403 -3.51168, -0.281964 -3.60539, -0.041785 -3.65238, 0.211585 -3.65266, 0.525412 -3.65238, 0.813133 -3.60622, 1.0742 -3.51388, 1.33526 -3.42155, 1.55785 -3.28882, 1.74197 -3.11597, 1.92609 -2.94284, 2.07036 -2.74278, 2.17451 -2.51579, 2.27867 -2.28853, 2.3306 -2.03736, 2.3306 -1.762, 2.3306 -1.45697, 2.26135 -1.17612, 2.1223 -0.919726, 1.98353 -0.663059, 1.8115 -0.427826, 1.60622 -0.214028, 1.40094 4.48227e-005, 1.18274 0.201477, 0.951909 0.390542, 0.721073 0.579608, 0.511946 0.763452, 0.324805 0.942075 L -0.716705 1.92258, 0.646326 1.92258 C 0.836491 1.92285, 1.01401 1.92148, 1.17835 1.91846, 1.34296 1.91571, 1.48256 1.90966, 1.59715 1.90087, 1.71202 1.89208, 1.77083 1.8863, 1.77357 1.88301, 1.79776 1.86267, 1.82057 1.82173, 1.84173 1.76017, 1.86289 1.69861, 1.8824 1.62606, 1.90053 1.54252, 1.91867 1.45898, 1.93681 1.37407, 1.95495 1.2875, 1.97308 1.20122, 1.98957 1.10641, 2.00469 1.00363 L 2.33967 1.00363 Z" stroke="none" fill="#000000" transform="matrix(1.12 0 0 1 13.5851 13.9768)" />
			<rect />
		</svg>
	</g>
	<path d="M -65.871 0 L 65.8712 0" fill="none" stroke="#000000" stroke-width="5.33333349" stroke-linecap="round" stroke-linejoin="round" transform="matrix(0.25 0 0 0.25 175.029 128.501)" />
	<ellipse cx="667.65606689453125" cy="768.9058837890625" rx="10.5" ry="10.5" stroke="none" fill="#000000" transform="matrix(0.25 0 0 0.25 -123.128 -63.7257)" />
	<ellipse cx="1126.7554931640625" cy="768.9058837890625" rx="10.5" ry="10.5" stroke="none" fill="#000000" transform="matrix(0.25 0 0 0.25 -123.128 -63.7257)" />
	<g transform="matrix(1 0 -0 1 297.767 98.844)">
		<svg width="69.0199203" height="50.968071">
			<defs />
			<path d="M 11.1132 12.8505 C 11.0543 13.0865, 10.9654 13.3182, 10.8467 13.5458, 10.7279 13.7735, 10.5827 13.9792, 10.4099 14.1622, 10.2372 14.3457, 10.0444 14.4954, 9.83138 14.6132, 9.61841 14.7309, 9.38826 14.7898, 9.13996 14.7898, 8.35824 14.7898, 7.77035 14.5832, 7.37679 14.1696, 7.10738 13.8874, 6.97243 13.5316, 6.97243 13.1017, 6.97243 12.8824, 7.00777 12.6444, 7.07794 12.3873 L 7.44157 10.9818 C 7.48475 10.8042, 7.50634 10.6368, 7.50634 10.4793, 7.50634 10.4013, 7.50094 10.3203, 7.49015 10.2359, 7.45776 10.0166, 7.38268 9.82323, 7.26392 9.6554, 7.14517 9.48806, 6.99305 9.35606, 6.80706 9.25889, 6.62108 9.16222, 6.40123 9.11364, 6.14753 9.11315 L 4.32008 9.11315, 3.24442 13.298 C 3.22282 13.3981, 3.21203 13.4791, 3.21203 13.5414, 3.21203 13.6204, 3.22822 13.6729, 3.26061 13.6985, 3.33078 13.7407, 3.47653 13.7657, 3.69735 13.7735, 3.91867 13.7814, 4.15569 13.7853, 4.4089 13.7848, 4.56004 13.7853, 4.63561 13.8481, 4.63561 13.9733, 4.63561 14.0052, 4.63022 14.039, 4.61942 14.0753 L 4.58703 14.201 C 4.52815 14.358, 4.42264 14.4365, 4.2715 14.4365, 3.60853 14.4051, 2.94017 14.3894, 2.26591 14.3894, 1.59215 14.3894, 0.915446 14.4051, 0.236286 14.4365, 0.0910318 14.4365, 0.0130069 14.3688, 0.00172029 14.2324 L 0.00172029 14.1696, 0.034108 14.0361 C 0.0772916 13.8638, 0.182306 13.7799, 0.349152 13.7848, 0.602856 13.7853, 0.842819 13.7814, 1.06904 13.7735, 1.29576 13.7657, 1.4626 13.7382, 1.57056 13.6906, 1.67312 13.6337, 1.75115 13.4924, 1.80513 13.2666 L 4.07766 4.41791 C 4.11005 4.30309, 4.12575 4.21426, 4.12575 4.15096, 4.12575 4.08864, 4.1125 4.05184, 4.08551 4.04104, 4.00994 3.99442, 3.86322 3.96596, 3.64485 3.95516, 3.42647 3.94486, 3.18798 3.93946, 2.92888 3.93897, 2.77823 3.93946, 2.70266 3.8688, 2.70266 3.72698 L 2.70266 3.66416, 2.75124 3.53069 C 2.78363 3.37415, 2.88373 3.29563, 3.05058 3.29514 L 7.6035 3.29514 C 8.11582 3.29563, 8.6036 3.36384, 9.06733 3.49977, 9.53106 3.63619, 9.93542 3.86094, 10.2804 4.17452, 10.566 4.42626, 10.7736 4.73492, 10.9031 5.101, 10.9841 5.30023, 11.0273 5.50732, 11.0322 5.72127, 11.0322 5.9156, 11.0027 6.10649, 10.9434 6.29444, 10.8413 6.71352, 10.6283 7.09333, 10.3044 7.43341, 9.98106 7.77397, 9.61694 8.06398, 9.21258 8.30444, 8.93238 8.46736, 8.64825 8.60231, 8.35971 8.70928, 8.07116 8.81675, 7.86506 8.88349, 7.74091 8.90901, 8.0481 9.02973, 8.33959 9.26527, 8.61439 9.61565, 8.8465 9.9199, 8.96231 10.2835, 8.96231 10.707, 8.96231 10.7963, 8.95692 10.8856, 8.94612 10.974 L 8.79203 12.3873 C 8.74934 12.7543, 8.72775 13.0733, 8.72775 13.3451, 8.72775 13.5238, 8.73855 13.6808, 8.76014 13.8162, 8.79792 14.1254, 8.95937 14.28, 9.24497 14.2795, 9.50407 14.28, 9.74109 14.1401, 9.95701 13.8599, 10.1729 13.5802, 10.3319 13.2333, 10.434 12.8191, 10.4934 12.6625, 10.5984 12.5865, 10.7495 12.5914 L 10.8786 12.5914 C 11.0243 12.5919, 11.1024 12.6601, 11.1132 12.7955 L 11.1132 12.8505 Z M 9.21258 6.24733 C 9.29895 5.93376, 9.34753 5.61969, 9.35833 5.30514 L 9.35833 5.25803 C 9.35833 4.99157, 9.27491 4.76142, 9.10757 4.56709, 8.90833 4.33744, 8.64825 4.17501, 8.32732 4.08079, 8.00639 3.98657, 7.65454 3.93946, 7.27178 3.93897 L 6.19611 3.93897 C 5.92131 3.93946, 5.75692 3.96056, 5.70294 4.00227, 5.64896 4.04447, 5.59252 4.19316, 5.53315 4.44932 L 4.46582 8.6028, 6.02632 8.6028 C 6.40909 8.60329, 6.78694 8.55618, 7.15891 8.46196, 7.53088 8.36774, 7.8842 8.20041, 8.21789 7.95897, 8.50398 7.75532, 8.7199 7.49916, 8.86515 7.19001, 9.0109 6.88134, 9.12671 6.56728, 9.21258 6.24733 Z" stroke="none" fill="#000000" />
			<path d="M 2.19417 1.62359 C 2.17026 1.81431, 2.10925 1.98441, 2.01115 2.1339, 1.91304 2.2834, 1.79158 2.41091, 1.64648 2.51643, 1.50166 2.62196, 1.34008 2.70247, 1.162 2.75798, 0.983928 2.81377, 0.799809 2.84153, 0.609644 2.84153, 0.326046 2.84153, 0.0559131 2.78739, -0.200755 2.67912, -0.457422 2.57084, -0.683861 2.41833, -0.880072 2.22157, -1.08535 2.01656, -1.23787 1.78655, -1.33735 1.53153, -1.43683 1.27651, -1.48684 1.00693, -1.48684 0.722232, -1.48684 0.446877, -1.4393 0.182515, -1.34422 -0.0711296, -1.24913 -0.324499, -1.10651 -0.552587, -0.916346 -0.755118, -0.734975 -0.951329, -0.52365 -1.10275, -0.282372 -1.20992, -0.0408182 -1.31682, 0.212826 -1.37041, 0.478288 -1.37068, 0.713795 -1.37041, 0.942433 -1.33083, 1.1642 -1.25169, 1.38624 -1.17255, 1.58163 -1.04366, 1.75063 -0.86504, 1.91964 -0.665532, 2.03588 -0.446238, 2.09909 -0.207433, 2.16257 0.0316474, 2.19417 0.272651, 2.19417 0.515579, 2.19417 0.612585, 2.14443 0.66095, 2.04495 0.660675 L -0.626427 0.660675, -0.626427 0.722232 C -0.626427 0.94235, -0.606641 1.15917, -0.567619 1.37297, -0.531345 1.6137, -0.445331 1.83052, -0.309577 2.02371, -0.194709 2.17348, -0.0537339 2.29439, 0.113897 2.38672, 0.281528 2.47906, 0.458777 2.52523, 0.645644 2.52495, 0.787718 2.52523, 0.924296 2.50269, 1.05565 2.45707, 1.18701 2.41173, 1.30847 2.3466, 1.42004 2.26141, 1.53189 2.1765, 1.62615 2.07757, 1.70309 1.96462, 1.78004 1.85195, 1.83665 1.72637, 1.87292 1.58842, 1.89106 1.51834, 1.93915 1.48317, 2.01774 1.48289 L 2.06748 1.48289 C 2.1491 1.50075, 2.19142 1.54774, 2.19417 1.62359 Z M 1.48352 0.383672 C 1.47748 0.205049, 1.45632 0.0220292, 1.42004 -0.165662, 1.38377 -0.353079, 1.3115 -0.52758, 1.20267 -0.689165, 1.11831 -0.812003, 1.01278 -0.908734, 0.885823 -0.979084, 0.759138 -1.04943, 0.623385 -1.08461, 0.478288 -1.08488, 0.309283 -1.08461, 0.153744 -1.03899, 0.0119443 -0.948306, -0.129855 -0.857346, -0.24912 -0.735607, -0.345851 -0.583365, -0.442308 -0.430849, -0.508811 -0.270363, -0.545085 -0.101908, -0.581359 0.0668223, -0.603893 0.228682, -0.612962 0.383672 L 1.48352 0.383672 Z" stroke="none" fill="#000000" transform="matrix(1.12 0 0 1 13.4343 13.9768)" />
			<path d="M 2.83179 4.48596 C 2.45751 4.47441, 2.09394 4.46837, 1.74054 4.46837, 1.39347 4.46837, 1.03127 4.47441, 0.653692 4.48596 L 0.653692 4.12981 C 0.78972 4.12981, 0.915031 4.12844, 1.02962 4.12541, 1.14449 4.12266, 1.23051 4.10783, 1.28767 4.08144, 1.32394 4.06386, 1.34812 4.0339, 1.36021 3.99131, 1.37231 3.94899, 1.37835 3.90117, 1.37835 3.84841 L 1.37835 2.27873 C 1.28767 2.40514, 1.13597 2.53045, 0.923275 2.65493, 0.710576 2.77942, 0.469847 2.84153, 0.201088 2.84153, -0.0764644 2.84153, -0.339178 2.78739, -0.586777 2.67912, -0.834101 2.57084, -1.04845 2.42107, -1.22982 2.23036, -1.42603 2.02536, -1.5747 1.79837, -1.67583 1.54912, -1.77696 1.30015, -1.82752 1.03771, -1.82752 0.761804, -1.82752 0.486449, -1.77448 0.221263, -1.66896 -0.033756, -1.56316 -0.288775, -1.41064 -0.51439, -1.21168 -0.71115, -1.00943 -0.90736, -0.780514 -1.05878, -0.525495 -1.16595, -0.270476 -1.27285, -0.00116801 -1.32644, 0.28243 -1.32671, 0.569327 -1.32644, 0.820773 -1.24784, 1.03649 -1.0912, 1.25249 -0.934291, 1.40858 -0.760614, 1.50504 -0.57045 L 1.82656 -1.32671, 2.1118 -1.32671, 2.1118 3.84841 C 2.1118 3.89842, 2.11785 3.94459, 2.12994 3.98691, 2.14203 4.02951, 2.16787 4.06111, 2.20689 4.08144, 2.25828 4.10783, 2.34127 4.12266, 2.45586 4.12541, 2.57073 4.12844, 2.69604 4.12981, 2.83179 4.12981 L 2.83179 4.48596 Z M 1.39649 0.0539067 C 1.32999 -0.244806, 1.20467 -0.497626, 1.02056 -0.704279, 0.836437 -0.910933, 0.602578 -1.01426, 0.318705 -1.01453, 0.143929 -1.01426, -0.020679 -0.968092, -0.17457 -0.875758, -0.32846 -0.783423, -0.459817 -0.661135, -0.56864 -0.508893, -0.707416 -0.329721, -0.806895 -0.131037, -0.867352 0.087158, -0.927809 0.305628, -0.958038 0.530418, -0.958038 0.761804, -0.958038 0.993739, -0.931656 1.21935, -0.878894 1.4392, -0.826131 1.65904, -0.731599 1.86267, -0.595845 2.05009, -0.493068 2.19683, -0.372429 2.3172, -0.233653 2.41091, -0.0946014 2.50489, 0.0562663 2.55161, 0.219225 2.55133, 0.497053 2.55161, 0.736958 2.46367, 0.939214 2.28779, 1.14147 2.11192, 1.29371 1.88768, 1.39649 1.6148 Z" stroke="none" fill="#000000" transform="matrix(1.12 0 0 1 18.3991 13.9768)" />
			<rect />
		</svg>
	</g>
	<path d="M -195.959 0 L 195.958 0.00012207" fill="none" stroke="#000000" stroke-width="5.33333349" stroke-linecap="round" stroke-linejoin="round" transform="matrix(0.25 0 0 0.25 303.755 128.501)" />
	<rect x="-72.8770447" y="-18.2190952" width="145.754089" height="36.4381905" stroke="none" fill="#FFFFFF" transform="matrix(0.25 0 -0 0.25 308.266 128.501)" />
	<path d="M -72.877 -18.2191 L 72.877 -18.2191, 72.877 18.2191, -72.877 18.2191 Z" fill="none" stroke="#000000" stroke-width="6" stroke-linecap="round" stroke-linejoin="round" transform="matrix(0.25 0 -0 0.25 308.266 128.501)" />
	<path d="M -66.5813 0 L 66.5815 3.05176e-005" fill="none" stroke="#0080FF" stroke-width="10.666667" stroke-linecap="round" stroke-linejoin="round" marker-end="url(#CustomMarker-01)" transform="matrix(0.25 0 0 0.25 224.916 38.1568)" />
	<path d="M -66.5813 0 L 66.5815 0" fill="none" stroke="#0080FF" stroke-width="10.666667" stroke-linecap="round" stroke-linejoin="round" marker-end="url(#CustomMarker-02)" transform="matrix(0.25 0 0 0.25 224.916 128.501)" />
</svg>
