<?xml version="1.0"?>
<svg xmlns="http://www.w3.org/2000/svg" xmlns:xlink="http://www.w3.org/1999/xlink" width="539.873657" height="162.328827">
	<defs />
	<path d="M -646.466 0 L 646.468 0" fill="none" stroke="#000000" stroke-width="3.4666667" stroke-linecap="round" stroke-linejoin="round" transform="matrix(0.384615 0 0 0.384615 258.407 40.2081)" />
	<ellipse cx="538.55753135681152" cy="513.51373863220215" rx="10.399999618530273" ry="10.399999618530273" stroke="none" fill="#000000" transform="matrix(0.384615 0 0 0.384615 -197.371 -157.297)" />
	<ellipse cx="538.55753993988037" cy="513.513747215271" rx="6.9333333969116211" ry="6.9333333969116211" stroke="none" fill="#FFFFFF" transform="matrix(0.384615 0 0 0.384615 -197.371 -157.297)" />
	<path d="M -646.466 0 L 646.468 0" fill="none" stroke="#000000" stroke-width="3.4666667" stroke-linecap="round" stroke-linejoin="round" transform="matrix(0.384615 0 0 0.384615 258.407 142.121)" />
	<ellipse cx="538.55753135681152" cy="778.48807334899902" rx="10.399999618530273" ry="10.399999618530273" stroke="none" fill="#000000" transform="matrix(0.384615 0 0 0.384615 -197.371 -157.297)" />
	<ellipse cx="538.55753993988037" cy="778.48808193206787" rx="6.9333333969116211" ry="6.9333333969116211" stroke="none" fill="#FFFFFF" transform="matrix(0.384615 0 0 0.384615 -197.371 -157.297)" />
	<g transform="matrix(1 0 -0 1 515.658 29.0007)">
		<svg width="47.7787285" height="12.1914883">
			<defs />
			<ellipse cx="-0" cy="-0" rx="1.1556160449981689" ry="1.1556160449981689" stroke="none" fill="#000000" transform="matrix(1 0 0 1 6.566 11.2074)" />
			<ellipse cx="-0" cy="-0" rx="1.1556160449981689" ry="1.1556160449981689" stroke="none" fill="#000000" transform="matrix(1 0 0 1 0.6566 11.2074)" />
			<ellipse cx="-0" cy="-0" rx="1.1556160449981689" ry="1.1556160449981689" stroke="none" fill="#000000" transform="matrix(1 0 0 1 12.4754 11.2074)" />
			<rect />
		</svg>
	</g>
	<rect x="-47.3699722" y="-11.842411" width="94.7399445" height="23.6848221" stroke="none" fill="#FFFFFF" transform="matrix(0.384615 0 -0 0.384615 62.3735 40.2081)" />
	<path d="M -47.37 -11.8424 L 47.37 -11.8424, 47.37 11.8424, -47.37 11.8424 Z" fill="none" stroke="#000000" stroke-width="3.89999986" stroke-linecap="round" stroke-linejoin="round" transform="matrix(0.384615 0 -0 0.384615 62.3735 40.2081)" />
	<g transform="matrix(1 0 -0 1 45.5216 9)">
		<svg width="104.900322" height="48.0957298">
			<defs />
			<path d="M 6.82893 16.7669 C 5.69503 16.731, 4.59143 16.7131, 3.51868 16.7131, 2.4465 16.7131, 1.34289 16.731, 0.208429 16.7669 L 0.208429 15.9949, 0.846915 15.9949 C 1.05002 15.9955, 1.24134 15.9927, 1.41976 15.9865, 1.59873 15.9809, 1.76817 15.9657, 1.92864 15.9416, 2.0891 15.918, 2.22768 15.8939, 2.34438 15.8692, 2.44313 15.8518, 2.52504 15.7969, 2.58957 15.7037, 2.65465 15.6111, 2.68663 15.5079, 2.68663 15.3935 L 2.68663 5.27643 C 2.37861 5.4268, 1.99933 5.54069, 1.54936 5.61812, 1.09939 5.6961, 0.60622 5.73482, 0.0698472 5.73426 L 0.0698472 4.97122 C 0.809885 4.97178, 1.49269 4.88369, 2.11828 4.70696, 2.74386 4.53078, 3.28472 4.19976, 3.74086 3.71444 L 4.02756 3.71444 C 4.23066 3.715, 4.33222 3.81375, 4.33222 4.01068 L 4.33222 15.3935 C 4.33222 15.5135, 4.36307 15.6184, 4.42479 15.7082, 4.48651 15.798, 4.57628 15.8518, 4.69298 15.8692, 4.79172 15.8939, 4.91852 15.918, 5.07225 15.9416, 5.22655 15.9657, 5.40047 15.9809, 5.5946 15.9865, 5.78873 15.9927, 5.97837 15.9955, 6.16295 15.9949 L 6.82893 15.9949, 6.82893 16.7669 Z" stroke="none" fill="#000000" />
			<path d="M 17.5486 10.519 C 17.5486 11.3813, 17.4885 12.2386, 17.3685 13.0914, 17.2484 13.9442, 16.951 14.7449, 16.4764 15.4922, 16.1375 16.0376, 15.6842 16.4561, 15.1169 16.749, 14.5503 17.0424, 13.9337 17.1888, 13.2677 17.1888, 12.627 17.1888, 12.021 17.0424, 11.451 16.749, 10.8809 16.4561, 10.4259 16.0376, 10.087 15.4922, 9.61238 14.7449, 9.31502 13.9442, 9.19495 13.0914, 9.07489 12.2386, 9.01429 11.3813, 9.01429 10.519, 9.01429 9.64596, 9.07489 8.77352, 9.19495 7.90275, 9.31502 7.03199, 9.61238 6.21677, 10.087 5.45597, 10.4259 4.90613, 10.8793 4.47804, 11.4465 4.17283, 12.0137 3.86761, 12.6208 3.715, 13.2677 3.71444, 13.9275 3.715, 14.5424 3.86761, 15.1124 4.17283, 15.6825 4.47804, 16.1375 4.90613, 16.4764 5.45597, 16.951 6.21677, 17.2484 7.03199, 17.3685 7.90275, 17.4885 8.77352, 17.5486 9.64596, 17.5486 10.519 Z M 15.7178 10.2048 C 15.7178 9.82831, 15.715 9.43052, 15.7089 9.0114, 15.7027 8.59285, 15.687 8.18272, 15.6623 7.78156, 15.6376 7.38097, 15.5933 7.00225, 15.5282 6.64598, 15.4637 6.29027, 15.3851 5.98617, 15.2925 5.73426, 15.108 5.32805, 14.837 4.99422, 14.479 4.73389, 14.1216 4.47355, 13.7177 4.34339, 13.2677 4.34283, 12.8301 4.34339, 12.4345 4.47524, 12.0799 4.73837, 11.7253 5.00207, 11.4555 5.33366, 11.2703 5.73426, 11.1783 5.98617, 11.0998 6.29027, 11.0347 6.64598, 10.9701 7.00225, 10.9253 7.38097, 10.9006 7.78156, 10.8759 8.18272, 10.8607 8.59285, 10.8546 9.0114, 10.8484 9.43052, 10.845 9.82831, 10.845 10.2048, 10.845 10.6245, 10.8484 11.066, 10.8546 11.5294, 10.8607 11.9934, 10.8759 12.4423, 10.9006 12.876, 10.9253 13.3102, 10.9701 13.7215, 11.0347 14.1103, 11.0998 14.4997, 11.1783 14.8257, 11.2703 15.0882, 11.4431 15.5259, 11.7102 15.8849, 12.0704 16.166, 12.4311 16.4477, 12.8301 16.588, 13.2677 16.5874, 13.7244 16.588, 14.1328 16.4477, 14.493 16.166, 14.8538 15.8849, 15.1203 15.5259, 15.2925 15.0882, 15.3851 14.8257, 15.4637 14.4997, 15.5282 14.1103, 15.5933 13.7215, 15.6376 13.3102, 15.6623 12.876, 15.687 12.4423, 15.7027 11.9934, 15.7089 11.5294, 15.715 11.066, 15.7178 10.6245, 15.7178 10.2048 Z" stroke="none" fill="#000000" />
			<path d="M 32.5342 16.6044 C 32.4964 16.751, 32.3928 16.8243, 32.2227 16.8243 L 29.0997 16.8243 C 28.8924 16.8243, 28.7882 16.7241, 28.7882 16.522, 28.7882 15.7714, 28.8999 15.0478, 29.1232 14.3516, 29.3464 13.6554, 29.5903 12.9673, 29.8543 12.286, 30.1188 11.6053, 30.3575 10.9257, 30.5716 10.2479, 30.7857 9.57, 30.8922 8.88013, 30.8922 8.17708, 30.8922 7.62805, 30.8075 7.09561, 30.6374 6.57921, 30.468 6.06338, 30.2006 5.60995, 29.8354 5.21893, 29.4707 4.82848, 29.0401 4.52905, 28.5432 4.32123, 28.0463 4.11398, 27.5276 4.00979, 26.986 4.00921, 26.4455 4.00979, 25.9263 4.11398, 25.4293 4.32123, 24.9324 4.52905, 24.5036 4.82848, 24.1418 5.21893, 23.7799 5.60995, 23.5126 6.06338, 23.3397 6.57921, 23.1668 7.09561, 23.0803 7.62805, 23.0803 8.17708, 23.0803 8.88013, 23.1891 9.57, 23.4061 10.2479, 23.6231 10.9257, 23.8635 11.6053, 24.1274 12.286, 24.3919 12.9673, 24.6353 13.6571, 24.8585 14.3562, 25.0818 15.0558, 25.1935 15.7777, 25.1935 16.522, 25.1935 16.7241, 25.0961 16.8243, 24.9009 16.8243 L 21.7498 16.8243 C 21.5866 16.8243, 21.4859 16.751, 21.4481 16.6044 L 20.7874 13.9846 C 20.7874 13.8203, 20.8756 13.7167, 21.0513 13.6732 L 21.1555 13.6732 C 21.3193 13.6738, 21.4195 13.7499, 21.4573 13.9022, 21.558 14.3241, 21.6513 14.6722, 21.7361 14.947, 21.8208 15.2218, 21.8792 15.3684, 21.9101 15.3861, 21.9731 15.4354, 22.1242 15.4663, 22.363 15.4783, 22.6023 15.4909, 22.8885 15.4966, 23.2217 15.496 L 24.4291 15.496 C 24.2975 14.947, 24.0473 14.3825, 23.6792 13.802, 23.3116 13.222, 22.9292 12.6387, 22.533 12.0524, 22.1368 11.4662, 21.7864 10.8587, 21.4813 10.2295, 21.1761 9.60092, 21.0233 8.91677, 21.0233 8.17708, 21.0233 7.49351, 21.1842 6.86203, 21.5048 6.28151, 21.8254 5.70155, 22.2565 5.20347, 22.7969 4.78783, 23.382 4.31837, 24.0364 3.96857, 24.7595 3.73956, 25.4831 3.51056, 26.2251 3.39606, 26.986 3.39548, 27.7474 3.39606, 28.4894 3.51056, 29.213 3.73956, 29.9367 3.96857, 30.6002 4.31837, 31.2037 4.78783, 31.7321 5.21606, 32.1597 5.71816, 32.4867 6.29525, 32.8141 6.87234, 32.9773 7.49981, 32.9773 8.17708, 32.9773 8.91677, 32.825 9.60092, 32.5199 10.2295, 32.2153 10.8587, 31.8615 11.4662, 31.4584 12.0524, 31.056 12.6387, 30.6689 13.222, 30.2979 13.802, 29.927 14.3825, 29.6756 14.947, 29.5428 15.496 L 30.76 15.496 C 31.0937 15.4966, 31.38 15.4909, 31.6187 15.4783, 31.858 15.4663, 32.0086 15.4354, 32.0716 15.3861, 32.091 15.3747, 32.1443 15.2281, 32.2325 14.947, 32.3206 14.6665, 32.4145 14.3178, 32.5153 13.9022, 32.5531 13.7562, 32.6567 13.68, 32.8261 13.6732 L 32.9303 13.6732 C 33.1004 13.7104, 33.1851 13.814, 33.1851 13.9846 Z" stroke="none" fill="#000000" />
			<rect />
		</svg>
	</g>
	<path d="M 0 -132.487 L 0 132.487" fill="none" stroke="#000000" stroke-width="3.4666667" stroke-linecap="round" stroke-linejoin="round" transform="matrix(0.384615 0 0 0.384615 112.204 91.1647)" />
	<ellipse cx="804.89421367645264" cy="513.51372051239014" rx="6.8249998092651367" ry="6.8249998092651367" stroke="none" fill="#000000" transform="matrix(0.384615 0 0 0.384615 -197.371 -157.297)" />
	<ellipse cx="804.89421367645264" cy="778.48808574676514" rx="6.8249998092651367" ry="6.8249998092651367" stroke="none" fill="#000000" transform="matrix(0.384615 0 0 0.384615 -197.371 -157.297)" />
	<path d="M -47.3698 -11.8424 L 47.3698 -11.8424, 47.3698 11.8424, -47.3698 11.8424 Z" stroke="none" fill="#FFFFFF" transform="matrix(2.90377e-008 0.384615 -0.384615 2.90377e-008 112.204 91.1647)" />
	<path d="M -47.3698 -11.8424 L 47.3698 -11.8424, 47.3698 11.8424, -47.3698 11.8424 Z" fill="none" stroke="#000000" stroke-width="3.89999986" stroke-linecap="round" stroke-linejoin="round" transform="matrix(2.90377e-008 0.384615 -0.384615 2.90377e-008 112.204 91.1647)" />
	<g transform="matrix(1 0 -0 1 124.239 79.9572)">
		<svg width="131.88237" height="48.0957298">
			<defs />
			<path d="M 8.78267 4.62111 C 8.78267 4.65758, 8.76752 4.70864, 8.7361 4.77372 L 5.96222 8.57097 C 5.60483 9.06807, 5.32598 9.61735, 5.12568 10.2188, 4.92538 10.8203, 4.78231 11.452, 4.69591 12.1129, 4.60951 12.7744, 4.55564 13.4494, 4.53376 14.1372, 4.51244 14.8257, 4.50122 15.5197, 4.50122 16.2193, 4.50122 16.5431, 4.39518 16.7883, 4.18254 16.9554, 3.9699 17.1232, 3.73706 17.2068, 3.48458 17.2068, 3.2321 17.2068, 3.00207 17.1232, 2.7956 16.9554, 2.58913 16.7883, 2.4859 16.5431, 2.4859 16.2193, 2.4859 14.7595, 2.74062 13.3551, 3.24894 12.0052, 3.75726 10.6559, 4.44287 9.38844, 5.30578 8.20292 L 7.06246 5.82403, 3.73425 5.82403 C 3.31514 5.82459, 2.9252 5.82795, 2.56444 5.83356, 2.20424 5.83974, 1.89734 5.8504, 1.64431 5.86498, 1.39183 5.88013, 1.26222 5.89023, 1.25605 5.89584, 1.19434 5.95026, 1.14047 6.04003, 1.09447 6.16571, 1.04846 6.29139, 1.00526 6.43839, 0.964863 6.60558, 0.925027 6.77334, 0.889681 6.94671, 0.858822 7.12624, 0.827964 7.30578, 0.797106 7.4971, 0.766248 7.70021 L 0.081755 7.70021, 0.747733 3.51695, 1.42269 3.51695, 1.42269 3.69649 C 1.42269 3.76269, 1.45972 3.82553, 1.53322 3.885, 1.66282 3.96916, 1.7986 4.02302, 1.93998 4.04659, 2.10662 4.07128, 2.31028 4.09372, 2.55042 4.11448, 2.79111 4.1358, 3.04864 4.14926, 3.323 4.15487, 3.59735 4.16105, 3.87283 4.16385, 4.15 4.16329 L 8.78267 4.16329, 8.78267 4.62111 Z" stroke="none" fill="#000000" />
			<path d="M 14.5521 15.7342 C 14.5521 16.0399, 14.4439 16.2981, 14.227 16.5088, 14.01 16.7195, 13.7472 16.8243, 13.4386 16.8243, 13.1306 16.8243, 12.8667 16.7195, 12.6463 16.5088, 12.4264 16.2981, 12.3159 16.0399, 12.3159 15.7342, 12.3159 15.4354, 12.4264 15.1806, 12.6463 14.9699, 12.8667 14.7592, 13.1306 14.6539, 13.4386 14.6533, 13.7472 14.6539, 14.01 14.7592, 14.227 14.9699, 14.4439 15.1806, 14.5521 15.4354, 14.5521 15.7342 Z" stroke="none" fill="#000000" />
			<path d="M 26.9198 12.7991 C 26.9198 13.386, 26.8093 13.9459, 26.5871 14.4784, 26.3655 15.0114, 26.0451 15.49, 25.6255 15.9141, 25.2002 16.3276, 24.721 16.6435, 24.188 16.8612, 23.655 17.08, 23.0889 17.1888, 22.4908 17.1888, 21.9735 17.1888, 21.491 17.0918, 21.0438 16.8971, 20.5972 16.703, 20.209 16.437, 19.8791 16.0987, 19.5492 15.761, 19.2905 15.3688, 19.1026 14.9227, 18.9146 14.4772, 18.8204 14.0026, 18.8204 13.4993, 18.8204 13.1526, 18.9359 12.8911, 19.1671 12.7144, 19.3983 12.5382, 19.6373 12.4496, 19.8836 12.449, 20.1428 12.4496, 20.3863 12.5365, 20.6141 12.7099, 20.8424 12.8838, 20.9563 13.147, 20.9563 13.4993, 20.9563 13.7153, 20.9086 13.8966, 20.8132 14.043, 20.7179 14.19, 20.6006 14.3033, 20.4615 14.3841, 20.3229 14.4649, 20.1675 14.5115, 19.9947 14.5227 L 19.8836 14.5227, 19.6984 14.5227 C 19.8404 15.026, 20.1703 15.4782, 20.6881 15.8788, 21.206 16.2799, 21.8069 16.4802, 22.4908 16.4797, 22.8488 16.4802, 23.1972 16.3877, 23.5361 16.2019, 23.875 16.0168, 24.1527 15.7711, 24.3681 15.4653, 24.6206 15.1006, 24.7827 14.6865, 24.8534 14.2225, 24.9241 13.7591, 24.9595 13.2844, 24.9595 12.7991, 24.9595 12.3088, 24.9443 11.838, 24.9135 11.3858, 24.8832 10.9342, 24.7564 10.5078, 24.5342 10.106, 24.3743 9.81316, 24.1695 9.56966, 23.9198 9.37497, 23.6702 9.18085, 23.3913 9.08322, 23.0827 9.08266, 22.497 9.08322, 21.9887 9.2016, 21.5572 9.43781, 21.1258 9.67458, 20.7773 10.014, 20.5125 10.4561, 20.457 10.5582, 20.3678 10.6093, 20.2443 10.6087 L 20.1703 10.6087 C 19.9548 10.6093, 19.8465 10.5106, 19.8465 10.3125 L 19.8465 4.01068 C 19.8465 3.85583, 19.9363 3.75708, 20.1147 3.71444, 20.1456 3.715, 20.1686 3.71837, 20.1843 3.72398, 20.2 3.73015, 20.2135 3.73296, 20.2258 3.7324, 21.1196 4.13972, 22.0408 4.34339, 22.9902 4.34283, 23.9518 4.34339, 24.8736 4.13972, 25.7551 3.7324, 25.7674 3.73296, 25.7797 3.73015, 25.7921 3.72398, 25.8044 3.71837, 25.8229 3.715, 25.8476 3.71444, 26.0507 3.715, 26.1495 3.80758, 26.1433 3.99273, 26.1433 4.10101, 26.1248 4.17283, 26.0878 4.20817, 25.6501 4.80739, 25.0941 5.27587, 24.4192 5.61363, 23.7442 5.95195, 23.0278 6.12083, 22.2692 6.12027, 21.6408 6.12083, 21.0983 6.04901, 20.6416 5.90482 L 20.6416 9.33401 C 20.8576 9.10735, 21.183 8.90536, 21.6172 8.72863, 22.0521 8.55246, 22.5408 8.46381, 23.0827 8.46325, 23.6129 8.46381, 24.114 8.58388, 24.5853 8.82289, 25.0571 9.06246, 25.4717 9.37329, 25.8291 9.75593, 26.1989 10.1874, 26.4732 10.6648, 26.6516 11.1883, 26.8306 11.7123, 26.9198 12.2493, 26.9198 12.7991 Z" stroke="none" fill="#000000" />
			<path d="M 42.1366 16.6044 C 42.0988 16.751, 41.9952 16.8243, 41.8251 16.8243 L 38.7021 16.8243 C 38.4948 16.8243, 38.3906 16.7241, 38.3906 16.522, 38.3906 15.7714, 38.5023 15.0478, 38.7256 14.3516, 38.9488 13.6554, 39.1927 12.9673, 39.4567 12.286, 39.7212 11.6053, 39.9599 10.9257, 40.174 10.2479, 40.3881 9.57, 40.4946 8.88013, 40.4946 8.17708, 40.4946 7.62805, 40.4099 7.09561, 40.2399 6.57921, 40.0704 6.06338, 39.803 5.60995, 39.4378 5.21893, 39.0731 4.82848, 38.6426 4.52905, 38.1456 4.32123, 37.6487 4.11398, 37.13 4.00979, 36.5884 4.00921, 36.0479 4.00979, 35.5287 4.11398, 35.0317 4.32123, 34.5348 4.52905, 34.106 4.82848, 33.7442 5.21893, 33.3823 5.60995, 33.115 6.06338, 32.9421 6.57921, 32.7692 7.09561, 32.6827 7.62805, 32.6827 8.17708, 32.6827 8.88013, 32.7915 9.57, 33.0085 10.2479, 33.2255 10.9257, 33.4659 11.6053, 33.7298 12.286, 33.9943 12.9673, 34.2377 13.6571, 34.4609 14.3562, 34.6842 15.0558, 34.7959 15.7777, 34.7959 16.522, 34.7959 16.7241, 34.6985 16.8243, 34.5033 16.8243 L 31.3522 16.8243 C 31.189 16.8243, 31.0883 16.751, 31.0505 16.6044 L 30.3898 13.9846 C 30.3898 13.8203, 30.478 13.7167, 30.6538 13.6732 L 30.7579 13.6732 C 30.9217 13.6738, 31.0219 13.7499, 31.0597 13.9022, 31.1604 14.3241, 31.2537 14.6722, 31.3385 14.947, 31.4232 15.2218, 31.4816 15.3684, 31.5125 15.3861, 31.5755 15.4354, 31.7266 15.4663, 31.9654 15.4783, 32.2047 15.4909, 32.4909 15.4966, 32.8241 15.496 L 34.0316 15.496 C 33.8999 14.947, 33.6497 14.3825, 33.2816 13.802, 32.914 13.222, 32.5316 12.6387, 32.1354 12.0524, 31.7392 11.4662, 31.3889 10.8587, 31.0837 10.2295, 30.7786 9.60092, 30.6257 8.91677, 30.6257 8.17708, 30.6257 7.49351, 30.7866 6.86203, 31.1072 6.28151, 31.4278 5.70155, 31.8589 5.20347, 32.3993 4.78783, 32.9844 4.31837, 33.6388 3.96857, 34.3619 3.73956, 35.0855 3.51056, 35.8275 3.39606, 36.5884 3.39548, 37.3498 3.39606, 38.0918 3.51056, 38.8154 3.73956, 39.5391 3.96857, 40.2026 4.31837, 40.8061 4.78783, 41.3345 5.21606, 41.7622 5.71816, 42.0891 6.29525, 42.4165 6.87234, 42.5797 7.49981, 42.5797 8.17708, 42.5797 8.91677, 42.4274 9.60092, 42.1223 10.2295, 41.8177 10.8587, 41.4639 11.4662, 41.0608 12.0524, 40.6584 12.6387, 40.2713 13.222, 39.9004 13.802, 39.5294 14.3825, 39.278 14.947, 39.1452 15.496 L 40.3624 15.496 C 40.6961 15.4966, 40.9824 15.4909, 41.2211 15.4783, 41.4604 15.4663, 41.611 15.4354, 41.674 15.3861, 41.6935 15.3747, 41.7467 15.2281, 41.8349 14.947, 41.923 14.6665, 42.0169 14.3178, 42.1177 13.9022, 42.1555 13.7562, 42.2591 13.68, 42.4286 13.6732 L 42.5328 13.6732 C 42.7028 13.7104, 42.7875 13.814, 42.7875 13.9846 Z" stroke="none" fill="#000000" />
			<rect />
		</svg>
	</g>
	<rect x="-47.3698616" y="-11.842411" width="94.7397232" height="23.6848221" stroke="none" fill="#FFFFFF" transform="matrix(0.384615 0 -0 0.384615 163.858 40.2081)" />
	<path d="M -47.3699 -11.8424 L 47.3699 -11.8424, 47.3699 11.8424, -47.3699 11.8424 Z" fill="none" stroke="#000000" stroke-width="3.89999986" stroke-linecap="round" stroke-linejoin="round" transform="matrix(0.384615 0 -0 0.384615 163.858 40.2081)" />
	<g transform="matrix(1 0 -0 1 147.006 9)">
		<svg width="104.900322" height="48.0957298">
			<defs />
			<path d="M 6.82893 16.7669 C 5.69503 16.731, 4.59143 16.7131, 3.51868 16.7131, 2.4465 16.7131, 1.34289 16.731, 0.208429 16.7669 L 0.208429 15.9949, 0.846915 15.9949 C 1.05002 15.9955, 1.24134 15.9927, 1.41976 15.9865, 1.59873 15.9809, 1.76817 15.9657, 1.92864 15.9416, 2.0891 15.918, 2.22768 15.8939, 2.34438 15.8692, 2.44313 15.8518, 2.52504 15.7969, 2.58957 15.7037, 2.65465 15.6111, 2.68663 15.5079, 2.68663 15.3935 L 2.68663 5.27643 C 2.37861 5.4268, 1.99933 5.54069, 1.54936 5.61812, 1.09939 5.6961, 0.60622 5.73482, 0.0698472 5.73426 L 0.0698472 4.97122 C 0.809885 4.97178, 1.49269 4.88369, 2.11828 4.70696, 2.74386 4.53078, 3.28472 4.19976, 3.74086 3.71444 L 4.02756 3.71444 C 4.23066 3.715, 4.33222 3.81375, 4.33222 4.01068 L 4.33222 15.3935 C 4.33222 15.5135, 4.36307 15.6184, 4.42479 15.7082, 4.48651 15.798, 4.57628 15.8518, 4.69298 15.8692, 4.79172 15.8939, 4.91852 15.918, 5.07225 15.9416, 5.22655 15.9657, 5.40047 15.9809, 5.5946 15.9865, 5.78873 15.9927, 5.97837 15.9955, 6.16295 15.9949 L 6.82893 15.9949, 6.82893 16.7669 Z" stroke="none" fill="#000000" />
			<path d="M 17.5486 10.519 C 17.5486 11.3813, 17.4885 12.2386, 17.3685 13.0914, 17.2484 13.9442, 16.951 14.7449, 16.4764 15.4922, 16.1375 16.0376, 15.6842 16.4561, 15.1169 16.749, 14.5503 17.0424, 13.9337 17.1888, 13.2677 17.1888, 12.627 17.1888, 12.021 17.0424, 11.451 16.749, 10.8809 16.4561, 10.4259 16.0376, 10.087 15.4922, 9.61238 14.7449, 9.31502 13.9442, 9.19495 13.0914, 9.07489 12.2386, 9.01429 11.3813, 9.01429 10.519, 9.01429 9.64596, 9.07489 8.77352, 9.19495 7.90275, 9.31502 7.03199, 9.61238 6.21677, 10.087 5.45597, 10.4259 4.90613, 10.8793 4.47804, 11.4465 4.17283, 12.0137 3.86761, 12.6208 3.715, 13.2677 3.71444, 13.9275 3.715, 14.5424 3.86761, 15.1124 4.17283, 15.6825 4.47804, 16.1375 4.90613, 16.4764 5.45597, 16.951 6.21677, 17.2484 7.03199, 17.3685 7.90275, 17.4885 8.77352, 17.5486 9.64596, 17.5486 10.519 Z M 15.7178 10.2048 C 15.7178 9.82831, 15.715 9.43052, 15.7089 9.0114, 15.7027 8.59285, 15.687 8.18272, 15.6623 7.78156, 15.6376 7.38097, 15.5933 7.00225, 15.5282 6.64598, 15.4637 6.29027, 15.3851 5.98617, 15.2925 5.73426, 15.108 5.32805, 14.837 4.99422, 14.479 4.73389, 14.1216 4.47355, 13.7177 4.34339, 13.2677 4.34283, 12.8301 4.34339, 12.4345 4.47524, 12.0799 4.73837, 11.7253 5.00207, 11.4555 5.33366, 11.2703 5.73426, 11.1783 5.98617, 11.0998 6.29027, 11.0347 6.64598, 10.9701 7.00225, 10.9253 7.38097, 10.9006 7.78156, 10.8759 8.18272, 10.8607 8.59285, 10.8546 9.0114, 10.8484 9.43052, 10.845 9.82831, 10.845 10.2048, 10.845 10.6245, 10.8484 11.066, 10.8546 11.5294, 10.8607 11.9934, 10.8759 12.4423, 10.9006 12.876, 10.9253 13.3102, 10.9701 13.7215, 11.0347 14.1103, 11.0998 14.4997, 11.1783 14.8257, 11.2703 15.0882, 11.4431 15.5259, 11.7102 15.8849, 12.0704 16.166, 12.4311 16.4477, 12.8301 16.588, 13.2677 16.5874, 13.7244 16.588, 14.1328 16.4477, 14.493 16.166, 14.8538 15.8849, 15.1203 15.5259, 15.2925 15.0882, 15.3851 14.8257, 15.4637 14.4997, 15.5282 14.1103, 15.5933 13.7215, 15.6376 13.3102, 15.6623 12.876, 15.687 12.4423, 15.7027 11.9934, 15.7089 11.5294, 15.715 11.066, 15.7178 10.6245, 15.7178 10.2048 Z" stroke="none" fill="#000000" />
			<path d="M 32.5342 16.6044 C 32.4964 16.751, 32.3928 16.8243, 32.2227 16.8243 L 29.0997 16.8243 C 28.8924 16.8243, 28.7882 16.7241, 28.7882 16.522, 28.7882 15.7714, 28.8999 15.0478, 29.1232 14.3516, 29.3464 13.6554, 29.5903 12.9673, 29.8543 12.286, 30.1188 11.6053, 30.3575 10.9257, 30.5716 10.2479, 30.7857 9.57, 30.8922 8.88013, 30.8922 8.17708, 30.8922 7.62805, 30.8075 7.09561, 30.6374 6.57921, 30.468 6.06338, 30.2006 5.60995, 29.8354 5.21893, 29.4707 4.82848, 29.0401 4.52905, 28.5432 4.32123, 28.0463 4.11398, 27.5276 4.00979, 26.986 4.00921, 26.4455 4.00979, 25.9263 4.11398, 25.4293 4.32123, 24.9324 4.52905, 24.5036 4.82848, 24.1418 5.21893, 23.7799 5.60995, 23.5126 6.06338, 23.3397 6.57921, 23.1668 7.09561, 23.0803 7.62805, 23.0803 8.17708, 23.0803 8.88013, 23.1891 9.57, 23.4061 10.2479, 23.6231 10.9257, 23.8635 11.6053, 24.1274 12.286, 24.3919 12.9673, 24.6353 13.6571, 24.8585 14.3562, 25.0818 15.0558, 25.1935 15.7777, 25.1935 16.522, 25.1935 16.7241, 25.0961 16.8243, 24.9009 16.8243 L 21.7498 16.8243 C 21.5866 16.8243, 21.4859 16.751, 21.4481 16.6044 L 20.7874 13.9846 C 20.7874 13.8203, 20.8756 13.7167, 21.0513 13.6732 L 21.1555 13.6732 C 21.3193 13.6738, 21.4195 13.7499, 21.4573 13.9022, 21.558 14.3241, 21.6513 14.6722, 21.7361 14.947, 21.8208 15.2218, 21.8792 15.3684, 21.9101 15.3861, 21.9731 15.4354, 22.1242 15.4663, 22.363 15.4783, 22.6023 15.4909, 22.8885 15.4966, 23.2217 15.496 L 24.4291 15.496 C 24.2975 14.947, 24.0473 14.3825, 23.6792 13.802, 23.3116 13.222, 22.9292 12.6387, 22.533 12.0524, 22.1368 11.4662, 21.7864 10.8587, 21.4813 10.2295, 21.1761 9.60092, 21.0233 8.91677, 21.0233 8.17708, 21.0233 7.49351, 21.1842 6.86203, 21.5048 6.28151, 21.8254 5.70155, 22.2565 5.20347, 22.7969 4.78783, 23.382 4.31837, 24.0364 3.96857, 24.7595 3.73956, 25.4831 3.51056, 26.2251 3.39606, 26.986 3.39548, 27.7474 3.39606, 28.4894 3.51056, 29.213 3.73956, 29.9367 3.96857, 30.6002 4.31837, 31.2037 4.78783, 31.7321 5.21606, 32.1597 5.71816, 32.4867 6.29525, 32.8141 6.87234, 32.9773 7.49981, 32.9773 8.17708, 32.9773 8.91677, 32.825 9.60092, 32.5199 10.2295, 32.2153 10.8587, 31.8615 11.4662, 31.4584 12.0524, 31.056 12.6387, 30.6689 13.222, 30.2979 13.802, 29.927 14.3825, 29.6756 14.947, 29.5428 15.496 L 30.76 15.496 C 31.0937 15.4966, 31.38 15.4909, 31.6187 15.4783, 31.858 15.4663, 32.0086 15.4354, 32.0716 15.3861, 32.091 15.3747, 32.1443 15.2281, 32.2325 14.947, 32.3206 14.6665, 32.4145 14.3178, 32.5153 13.9022, 32.5531 13.7562, 32.6567 13.68, 32.8261 13.6732 L 32.9303 13.6732 C 33.1004 13.7104, 33.1851 13.814, 33.1851 13.9846 Z" stroke="none" fill="#000000" />
			<rect />
		</svg>
	</g>
	<path d="M 0 -132.487 L 0 132.487" fill="none" stroke="#000000" stroke-width="3.4666667" stroke-linecap="round" stroke-linejoin="round" transform="matrix(0.384615 0 0 0.384615 213.688 91.1647)" />
	<ellipse cx="1068.7537107467651" cy="513.51372051239014" rx="6.8249998092651367" ry="6.8249998092651367" stroke="none" fill="#000000" transform="matrix(0.384615 0 0 0.384615 -197.371 -157.297)" />
	<ellipse cx="1068.7537107467651" cy="778.48808574676514" rx="6.8249998092651367" ry="6.8249998092651367" stroke="none" fill="#000000" transform="matrix(0.384615 0 0 0.384615 -197.371 -157.297)" />
	<path d="M -47.3698 -11.8424 L 47.3698 -11.8424, 47.3698 11.8424, -47.3698 11.8424 Z" stroke="none" fill="#FFFFFF" transform="matrix(2.90377e-008 0.384615 -0.384615 2.90377e-008 213.688 91.1647)" />
	<path d="M -47.3698 -11.8424 L 47.3698 -11.8424, 47.3698 11.8424, -47.3698 11.8424 Z" fill="none" stroke="#000000" stroke-width="3.89999986" stroke-linecap="round" stroke-linejoin="round" transform="matrix(2.90377e-008 0.384615 -0.384615 2.90377e-008 213.688 91.1647)" />
	<g transform="matrix(1 0 -0 1 225.724 79.9572)">
		<svg width="131.88237" height="48.0957298">
			<defs />
			<path d="M 8.78267 4.62111 C 8.78267 4.65758, 8.76752 4.70864, 8.7361 4.77372 L 5.96222 8.57097 C 5.60483 9.06807, 5.32598 9.61735, 5.12568 10.2188, 4.92538 10.8203, 4.78231 11.452, 4.69591 12.1129, 4.60951 12.7744, 4.55564 13.4494, 4.53376 14.1372, 4.51244 14.8257, 4.50122 15.5197, 4.50122 16.2193, 4.50122 16.5431, 4.39518 16.7883, 4.18254 16.9554, 3.9699 17.1232, 3.73706 17.2068, 3.48458 17.2068, 3.2321 17.2068, 3.00207 17.1232, 2.7956 16.9554, 2.58913 16.7883, 2.4859 16.5431, 2.4859 16.2193, 2.4859 14.7595, 2.74062 13.3551, 3.24894 12.0052, 3.75726 10.6559, 4.44287 9.38844, 5.30578 8.20292 L 7.06246 5.82403, 3.73425 5.82403 C 3.31514 5.82459, 2.9252 5.82795, 2.56444 5.83356, 2.20424 5.83974, 1.89734 5.8504, 1.64431 5.86498, 1.39183 5.88013, 1.26222 5.89023, 1.25605 5.89584, 1.19434 5.95026, 1.14047 6.04003, 1.09447 6.16571, 1.04846 6.29139, 1.00526 6.43839, 0.964863 6.60558, 0.925027 6.77334, 0.889681 6.94671, 0.858822 7.12624, 0.827964 7.30578, 0.797106 7.4971, 0.766248 7.70021 L 0.081755 7.70021, 0.747733 3.51695, 1.42269 3.51695, 1.42269 3.69649 C 1.42269 3.76269, 1.45972 3.82553, 1.53322 3.885, 1.66282 3.96916, 1.7986 4.02302, 1.93998 4.04659, 2.10662 4.07128, 2.31028 4.09372, 2.55042 4.11448, 2.79111 4.1358, 3.04864 4.14926, 3.323 4.15487, 3.59735 4.16105, 3.87283 4.16385, 4.15 4.16329 L 8.78267 4.16329, 8.78267 4.62111 Z" stroke="none" fill="#000000" />
			<path d="M 14.5521 15.7342 C 14.5521 16.0399, 14.4439 16.2981, 14.227 16.5088, 14.01 16.7195, 13.7472 16.8243, 13.4386 16.8243, 13.1306 16.8243, 12.8667 16.7195, 12.6463 16.5088, 12.4264 16.2981, 12.3159 16.0399, 12.3159 15.7342, 12.3159 15.4354, 12.4264 15.1806, 12.6463 14.9699, 12.8667 14.7592, 13.1306 14.6539, 13.4386 14.6533, 13.7472 14.6539, 14.01 14.7592, 14.227 14.9699, 14.4439 15.1806, 14.5521 15.4354, 14.5521 15.7342 Z" stroke="none" fill="#000000" />
			<path d="M 26.9198 12.7991 C 26.9198 13.386, 26.8093 13.9459, 26.5871 14.4784, 26.3655 15.0114, 26.0451 15.49, 25.6255 15.9141, 25.2002 16.3276, 24.721 16.6435, 24.188 16.8612, 23.655 17.08, 23.0889 17.1888, 22.4908 17.1888, 21.9735 17.1888, 21.491 17.0918, 21.0438 16.8971, 20.5972 16.703, 20.209 16.437, 19.8791 16.0987, 19.5492 15.761, 19.2905 15.3688, 19.1026 14.9227, 18.9146 14.4772, 18.8204 14.0026, 18.8204 13.4993, 18.8204 13.1526, 18.9359 12.8911, 19.1671 12.7144, 19.3983 12.5382, 19.6373 12.4496, 19.8836 12.449, 20.1428 12.4496, 20.3863 12.5365, 20.6141 12.7099, 20.8424 12.8838, 20.9563 13.147, 20.9563 13.4993, 20.9563 13.7153, 20.9086 13.8966, 20.8132 14.043, 20.7179 14.19, 20.6006 14.3033, 20.4615 14.3841, 20.3229 14.4649, 20.1675 14.5115, 19.9947 14.5227 L 19.8836 14.5227, 19.6984 14.5227 C 19.8404 15.026, 20.1703 15.4782, 20.6881 15.8788, 21.206 16.2799, 21.8069 16.4802, 22.4908 16.4797, 22.8488 16.4802, 23.1972 16.3877, 23.5361 16.2019, 23.875 16.0168, 24.1527 15.7711, 24.3681 15.4653, 24.6206 15.1006, 24.7827 14.6865, 24.8534 14.2225, 24.9241 13.7591, 24.9595 13.2844, 24.9595 12.7991, 24.9595 12.3088, 24.9443 11.838, 24.9135 11.3858, 24.8832 10.9342, 24.7564 10.5078, 24.5342 10.106, 24.3743 9.81316, 24.1695 9.56966, 23.9198 9.37497, 23.6702 9.18085, 23.3913 9.08322, 23.0827 9.08266, 22.497 9.08322, 21.9887 9.2016, 21.5572 9.43781, 21.1258 9.67458, 20.7773 10.014, 20.5125 10.4561, 20.457 10.5582, 20.3678 10.6093, 20.2443 10.6087 L 20.1703 10.6087 C 19.9548 10.6093, 19.8465 10.5106, 19.8465 10.3125 L 19.8465 4.01068 C 19.8465 3.85583, 19.9363 3.75708, 20.1147 3.71444, 20.1456 3.715, 20.1686 3.71837, 20.1843 3.72398, 20.2 3.73015, 20.2135 3.73296, 20.2258 3.7324, 21.1196 4.13972, 22.0408 4.34339, 22.9902 4.34283, 23.9518 4.34339, 24.8736 4.13972, 25.7551 3.7324, 25.7674 3.73296, 25.7797 3.73015, 25.7921 3.72398, 25.8044 3.71837, 25.8229 3.715, 25.8476 3.71444, 26.0507 3.715, 26.1495 3.80758, 26.1433 3.99273, 26.1433 4.10101, 26.1248 4.17283, 26.0878 4.20817, 25.6501 4.80739, 25.0941 5.27587, 24.4192 5.61363, 23.7442 5.95195, 23.0278 6.12083, 22.2692 6.12027, 21.6408 6.12083, 21.0983 6.04901, 20.6416 5.90482 L 20.6416 9.33401 C 20.8576 9.10735, 21.183 8.90536, 21.6172 8.72863, 22.0521 8.55246, 22.5408 8.46381, 23.0827 8.46325, 23.6129 8.46381, 24.114 8.58388, 24.5853 8.82289, 25.0571 9.06246, 25.4717 9.37329, 25.8291 9.75593, 26.1989 10.1874, 26.4732 10.6648, 26.6516 11.1883, 26.8306 11.7123, 26.9198 12.2493, 26.9198 12.7991 Z" stroke="none" fill="#000000" />
			<path d="M 42.1366 16.6044 C 42.0988 16.751, 41.9952 16.8243, 41.8251 16.8243 L 38.7021 16.8243 C 38.4948 16.8243, 38.3906 16.7241, 38.3906 16.522, 38.3906 15.7714, 38.5023 15.0478, 38.7256 14.3516, 38.9488 13.6554, 39.1927 12.9673, 39.4567 12.286, 39.7212 11.6053, 39.9599 10.9257, 40.174 10.2479, 40.3881 9.57, 40.4946 8.88013, 40.4946 8.17708, 40.4946 7.62805, 40.4099 7.09561, 40.2399 6.57921, 40.0704 6.06338, 39.803 5.60995, 39.4378 5.21893, 39.0731 4.82848, 38.6426 4.52905, 38.1456 4.32123, 37.6487 4.11398, 37.13 4.00979, 36.5884 4.00921, 36.0479 4.00979, 35.5287 4.11398, 35.0317 4.32123, 34.5348 4.52905, 34.106 4.82848, 33.7442 5.21893, 33.3823 5.60995, 33.115 6.06338, 32.9421 6.57921, 32.7692 7.09561, 32.6827 7.62805, 32.6827 8.17708, 32.6827 8.88013, 32.7915 9.57, 33.0085 10.2479, 33.2255 10.9257, 33.4659 11.6053, 33.7298 12.286, 33.9943 12.9673, 34.2377 13.6571, 34.4609 14.3562, 34.6842 15.0558, 34.7959 15.7777, 34.7959 16.522, 34.7959 16.7241, 34.6985 16.8243, 34.5033 16.8243 L 31.3522 16.8243 C 31.189 16.8243, 31.0883 16.751, 31.0505 16.6044 L 30.3898 13.9846 C 30.3898 13.8203, 30.478 13.7167, 30.6538 13.6732 L 30.7579 13.6732 C 30.9217 13.6738, 31.0219 13.7499, 31.0597 13.9022, 31.1604 14.3241, 31.2537 14.6722, 31.3385 14.947, 31.4232 15.2218, 31.4816 15.3684, 31.5125 15.3861, 31.5755 15.4354, 31.7266 15.4663, 31.9654 15.4783, 32.2047 15.4909, 32.4909 15.4966, 32.8241 15.496 L 34.0316 15.496 C 33.8999 14.947, 33.6497 14.3825, 33.2816 13.802, 32.914 13.222, 32.5316 12.6387, 32.1354 12.0524, 31.7392 11.4662, 31.3889 10.8587, 31.0837 10.2295, 30.7786 9.60092, 30.6257 8.91677, 30.6257 8.17708, 30.6257 7.49351, 30.7866 6.86203, 31.1072 6.28151, 31.4278 5.70155, 31.8589 5.20347, 32.3993 4.78783, 32.9844 4.31837, 33.6388 3.96857, 34.3619 3.73956, 35.0855 3.51056, 35.8275 3.39606, 36.5884 3.39548, 37.3498 3.39606, 38.0918 3.51056, 38.8154 3.73956, 39.5391 3.96857, 40.2026 4.31837, 40.8061 4.78783, 41.3345 5.21606, 41.7622 5.71816, 42.0891 6.29525, 42.4165 6.87234, 42.5797 7.49981, 42.5797 8.17708, 42.5797 8.91677, 42.4274 9.60092, 42.1223 10.2295, 41.8177 10.8587, 41.4639 11.4662, 41.0608 12.0524, 40.6584 12.6387, 40.2713 13.222, 39.9004 13.802, 39.5294 14.3825, 39.278 14.947, 39.1452 15.496 L 40.3624 15.496 C 40.6961 15.4966, 40.9824 15.4909, 41.2211 15.4783, 41.4604 15.4663, 41.611 15.4354, 41.674 15.3861, 41.6935 15.3747, 41.7467 15.2281, 41.8349 14.947, 41.923 14.6665, 42.0169 14.3178, 42.1177 13.9022, 42.1555 13.7562, 42.2591 13.68, 42.4286 13.6732 L 42.5328 13.6732 C 42.7028 13.7104, 42.7875 13.814, 42.7875 13.9846 Z" stroke="none" fill="#000000" />
			<rect />
		</svg>
	</g>
	<rect x="-47.3700447" y="-11.842411" width="94.7400894" height="23.6848221" stroke="none" fill="#FFFFFF" transform="matrix(0.384615 0 -0 0.384615 265.343 40.2081)" />
	<path d="M -47.37 -11.8424 L 47.37 -11.8424, 47.37 11.8424, -47.37 11.8424 Z" fill="none" stroke="#000000" stroke-width="3.89999986" stroke-linecap="round" stroke-linejoin="round" transform="matrix(0.384615 0 -0 0.384615 265.343 40.2081)" />
	<g transform="matrix(1 0 -0 1 248.491 9)">
		<svg width="104.900322" height="48.0957298">
			<defs />
			<path d="M 6.82893 16.7669 C 5.69503 16.731, 4.59143 16.7131, 3.51868 16.7131, 2.4465 16.7131, 1.34289 16.731, 0.208429 16.7669 L 0.208429 15.9949, 0.846915 15.9949 C 1.05002 15.9955, 1.24134 15.9927, 1.41976 15.9865, 1.59873 15.9809, 1.76817 15.9657, 1.92864 15.9416, 2.0891 15.918, 2.22768 15.8939, 2.34438 15.8692, 2.44313 15.8518, 2.52504 15.7969, 2.58957 15.7037, 2.65465 15.6111, 2.68663 15.5079, 2.68663 15.3935 L 2.68663 5.27643 C 2.37861 5.4268, 1.99933 5.54069, 1.54936 5.61812, 1.09939 5.6961, 0.60622 5.73482, 0.0698472 5.73426 L 0.0698472 4.97122 C 0.809885 4.97178, 1.49269 4.88369, 2.11828 4.70696, 2.74386 4.53078, 3.28472 4.19976, 3.74086 3.71444 L 4.02756 3.71444 C 4.23066 3.715, 4.33222 3.81375, 4.33222 4.01068 L 4.33222 15.3935 C 4.33222 15.5135, 4.36307 15.6184, 4.42479 15.7082, 4.48651 15.798, 4.57628 15.8518, 4.69298 15.8692, 4.79172 15.8939, 4.91852 15.918, 5.07225 15.9416, 5.22655 15.9657, 5.40047 15.9809, 5.5946 15.9865, 5.78873 15.9927, 5.97837 15.9955, 6.16295 15.9949 L 6.82893 15.9949, 6.82893 16.7669 Z" stroke="none" fill="#000000" />
			<path d="M 17.5486 10.519 C 17.5486 11.3813, 17.4885 12.2386, 17.3685 13.0914, 17.2484 13.9442, 16.951 14.7449, 16.4764 15.4922, 16.1375 16.0376, 15.6842 16.4561, 15.1169 16.749, 14.5503 17.0424, 13.9337 17.1888, 13.2677 17.1888, 12.627 17.1888, 12.021 17.0424, 11.451 16.749, 10.8809 16.4561, 10.4259 16.0376, 10.087 15.4922, 9.61238 14.7449, 9.31502 13.9442, 9.19495 13.0914, 9.07489 12.2386, 9.01429 11.3813, 9.01429 10.519, 9.01429 9.64596, 9.07489 8.77352, 9.19495 7.90275, 9.31502 7.03199, 9.61238 6.21677, 10.087 5.45597, 10.4259 4.90613, 10.8793 4.47804, 11.4465 4.17283, 12.0137 3.86761, 12.6208 3.715, 13.2677 3.71444, 13.9275 3.715, 14.5424 3.86761, 15.1124 4.17283, 15.6825 4.47804, 16.1375 4.90613, 16.4764 5.45597, 16.951 6.21677, 17.2484 7.03199, 17.3685 7.90275, 17.4885 8.77352, 17.5486 9.64596, 17.5486 10.519 Z M 15.7178 10.2048 C 15.7178 9.82831, 15.715 9.43052, 15.7089 9.0114, 15.7027 8.59285, 15.687 8.18272, 15.6623 7.78156, 15.6376 7.38097, 15.5933 7.00225, 15.5282 6.64598, 15.4637 6.29027, 15.3851 5.98617, 15.2925 5.73426, 15.108 5.32805, 14.837 4.99422, 14.479 4.73389, 14.1216 4.47355, 13.7177 4.34339, 13.2677 4.34283, 12.8301 4.34339, 12.4345 4.47524, 12.0799 4.73837, 11.7253 5.00207, 11.4555 5.33366, 11.2703 5.73426, 11.1783 5.98617, 11.0998 6.29027, 11.0347 6.64598, 10.9701 7.00225, 10.9253 7.38097, 10.9006 7.78156, 10.8759 8.18272, 10.8607 8.59285, 10.8546 9.0114, 10.8484 9.43052, 10.845 9.82831, 10.845 10.2048, 10.845 10.6245, 10.8484 11.066, 10.8546 11.5294, 10.8607 11.9934, 10.8759 12.4423, 10.9006 12.876, 10.9253 13.3102, 10.9701 13.7215, 11.0347 14.1103, 11.0998 14.4997, 11.1783 14.8257, 11.2703 15.0882, 11.4431 15.5259, 11.7102 15.8849, 12.0704 16.166, 12.4311 16.4477, 12.8301 16.588, 13.2677 16.5874, 13.7244 16.588, 14.1328 16.4477, 14.493 16.166, 14.8538 15.8849, 15.1203 15.5259, 15.2925 15.0882, 15.3851 14.8257, 15.4637 14.4997, 15.5282 14.1103, 15.5933 13.7215, 15.6376 13.3102, 15.6623 12.876, 15.687 12.4423, 15.7027 11.9934, 15.7089 11.5294, 15.715 11.066, 15.7178 10.6245, 15.7178 10.2048 Z" stroke="none" fill="#000000" />
			<path d="M 32.5342 16.6044 C 32.4964 16.751, 32.3928 16.8243, 32.2227 16.8243 L 29.0997 16.8243 C 28.8924 16.8243, 28.7882 16.7241, 28.7882 16.522, 28.7882 15.7714, 28.8999 15.0478, 29.1232 14.3516, 29.3464 13.6554, 29.5903 12.9673, 29.8543 12.286, 30.1188 11.6053, 30.3575 10.9257, 30.5716 10.2479, 30.7857 9.57, 30.8922 8.88013, 30.8922 8.17708, 30.8922 7.62805, 30.8075 7.09561, 30.6374 6.57921, 30.468 6.06338, 30.2006 5.60995, 29.8354 5.21893, 29.4707 4.82848, 29.0401 4.52905, 28.5432 4.32123, 28.0463 4.11398, 27.5276 4.00979, 26.986 4.00921, 26.4455 4.00979, 25.9263 4.11398, 25.4293 4.32123, 24.9324 4.52905, 24.5036 4.82848, 24.1418 5.21893, 23.7799 5.60995, 23.5126 6.06338, 23.3397 6.57921, 23.1668 7.09561, 23.0803 7.62805, 23.0803 8.17708, 23.0803 8.88013, 23.1891 9.57, 23.4061 10.2479, 23.6231 10.9257, 23.8635 11.6053, 24.1274 12.286, 24.3919 12.9673, 24.6353 13.6571, 24.8585 14.3562, 25.0818 15.0558, 25.1935 15.7777, 25.1935 16.522, 25.1935 16.7241, 25.0961 16.8243, 24.9009 16.8243 L 21.7498 16.8243 C 21.5866 16.8243, 21.4859 16.751, 21.4481 16.6044 L 20.7874 13.9846 C 20.7874 13.8203, 20.8756 13.7167, 21.0513 13.6732 L 21.1555 13.6732 C 21.3193 13.6738, 21.4195 13.7499, 21.4573 13.9022, 21.558 14.3241, 21.6513 14.6722, 21.7361 14.947, 21.8208 15.2218, 21.8792 15.3684, 21.9101 15.3861, 21.9731 15.4354, 22.1242 15.4663, 22.363 15.4783, 22.6023 15.4909, 22.8885 15.4966, 23.2217 15.496 L 24.4291 15.496 C 24.2975 14.947, 24.0473 14.3825, 23.6792 13.802, 23.3116 13.222, 22.9292 12.6387, 22.533 12.0524, 22.1368 11.4662, 21.7864 10.8587, 21.4813 10.2295, 21.1761 9.60092, 21.0233 8.91677, 21.0233 8.17708, 21.0233 7.49351, 21.1842 6.86203, 21.5048 6.28151, 21.8254 5.70155, 22.2565 5.20347, 22.7969 4.78783, 23.382 4.31837, 24.0364 3.96857, 24.7595 3.73956, 25.4831 3.51056, 26.2251 3.39606, 26.986 3.39548, 27.7474 3.39606, 28.4894 3.51056, 29.213 3.73956, 29.9367 3.96857, 30.6002 4.31837, 31.2037 4.78783, 31.7321 5.21606, 32.1597 5.71816, 32.4867 6.29525, 32.8141 6.87234, 32.9773 7.49981, 32.9773 8.17708, 32.9773 8.91677, 32.825 9.60092, 32.5199 10.2295, 32.2153 10.8587, 31.8615 11.4662, 31.4584 12.0524, 31.056 12.6387, 30.6689 13.222, 30.2979 13.802, 29.927 14.3825, 29.6756 14.947, 29.5428 15.496 L 30.76 15.496 C 31.0937 15.4966, 31.38 15.4909, 31.6187 15.4783, 31.858 15.4663, 32.0086 15.4354, 32.0716 15.3861, 32.091 15.3747, 32.1443 15.2281, 32.2325 14.947, 32.3206 14.6665, 32.4145 14.3178, 32.5153 13.9022, 32.5531 13.7562, 32.6567 13.68, 32.8261 13.6732 L 32.9303 13.6732 C 33.1004 13.7104, 33.1851 13.814, 33.1851 13.9846 Z" stroke="none" fill="#000000" />
			<rect />
		</svg>
	</g>
	<path d="M 0 -132.487 L 0 132.487" fill="none" stroke="#000000" stroke-width="3.4666667" stroke-linecap="round" stroke-linejoin="round" transform="matrix(0.384615 0 0 0.384615 315.173 91.1647)" />
	<ellipse cx="1332.6135740280151" cy="513.51372051239014" rx="6.8249998092651367" ry="6.8249998092651367" stroke="none" fill="#000000" transform="matrix(0.384615 0 0 0.384615 -197.371 -157.297)" />
	<ellipse cx="1332.6135740280151" cy="778.48808574676514" rx="6.8249998092651367" ry="6.8249998092651367" stroke="none" fill="#000000" transform="matrix(0.384615 0 0 0.384615 -197.371 -157.297)" />
	<path d="M -47.3698 -11.8423 L 47.3698 -11.8423, 47.3698 11.8423, -47.3698 11.8423 Z" stroke="none" fill="#FFFFFF" transform="matrix(2.90377e-008 0.384615 -0.384615 2.90377e-008 315.173 91.1647)" />
	<path d="M -47.3698 -11.8423 L 47.3698 -11.8423, 47.3698 11.8423, -47.3698 11.8423 Z" fill="none" stroke="#000000" stroke-width="3.89999986" stroke-linecap="round" stroke-linejoin="round" transform="matrix(2.90377e-008 0.384615 -0.384615 2.90377e-008 315.173 91.1647)" />
	<g transform="matrix(1 0 -0 1 327.208 79.9572)">
		<svg width="131.88237" height="48.0957298">
			<defs />
			<path d="M 8.78267 4.62111 C 8.78267 4.65758, 8.76752 4.70864, 8.7361 4.77372 L 5.96222 8.57097 C 5.60483 9.06807, 5.32598 9.61735, 5.12568 10.2188, 4.92538 10.8203, 4.78231 11.452, 4.69591 12.1129, 4.60951 12.7744, 4.55564 13.4494, 4.53376 14.1372, 4.51244 14.8257, 4.50122 15.5197, 4.50122 16.2193, 4.50122 16.5431, 4.39518 16.7883, 4.18254 16.9554, 3.9699 17.1232, 3.73706 17.2068, 3.48458 17.2068, 3.2321 17.2068, 3.00207 17.1232, 2.7956 16.9554, 2.58913 16.7883, 2.4859 16.5431, 2.4859 16.2193, 2.4859 14.7595, 2.74062 13.3551, 3.24894 12.0052, 3.75726 10.6559, 4.44287 9.38844, 5.30578 8.20292 L 7.06246 5.82403, 3.73425 5.82403 C 3.31514 5.82459, 2.9252 5.82795, 2.56444 5.83356, 2.20424 5.83974, 1.89734 5.8504, 1.64431 5.86498, 1.39183 5.88013, 1.26222 5.89023, 1.25605 5.89584, 1.19434 5.95026, 1.14047 6.04003, 1.09447 6.16571, 1.04846 6.29139, 1.00526 6.43839, 0.964863 6.60558, 0.925027 6.77334, 0.889681 6.94671, 0.858822 7.12624, 0.827964 7.30578, 0.797106 7.4971, 0.766248 7.70021 L 0.081755 7.70021, 0.747733 3.51695, 1.42269 3.51695, 1.42269 3.69649 C 1.42269 3.76269, 1.45972 3.82553, 1.53322 3.885, 1.66282 3.96916, 1.7986 4.02302, 1.93998 4.04659, 2.10662 4.07128, 2.31028 4.09372, 2.55042 4.11448, 2.79111 4.1358, 3.04864 4.14926, 3.323 4.15487, 3.59735 4.16105, 3.87283 4.16385, 4.15 4.16329 L 8.78267 4.16329, 8.78267 4.62111 Z" stroke="none" fill="#000000" />
			<path d="M 14.5521 15.7342 C 14.5521 16.0399, 14.4439 16.2981, 14.227 16.5088, 14.01 16.7195, 13.7472 16.8243, 13.4386 16.8243, 13.1306 16.8243, 12.8667 16.7195, 12.6463 16.5088, 12.4264 16.2981, 12.3159 16.0399, 12.3159 15.7342, 12.3159 15.4354, 12.4264 15.1806, 12.6463 14.9699, 12.8667 14.7592, 13.1306 14.6539, 13.4386 14.6533, 13.7472 14.6539, 14.01 14.7592, 14.227 14.9699, 14.4439 15.1806, 14.5521 15.4354, 14.5521 15.7342 Z" stroke="none" fill="#000000" />
			<path d="M 26.9198 12.7991 C 26.9198 13.386, 26.8093 13.9459, 26.5871 14.4784, 26.3655 15.0114, 26.0451 15.49, 25.6255 15.9141, 25.2002 16.3276, 24.721 16.6435, 24.188 16.8612, 23.655 17.08, 23.0889 17.1888, 22.4908 17.1888, 21.9735 17.1888, 21.491 17.0918, 21.0438 16.8971, 20.5972 16.703, 20.209 16.437, 19.8791 16.0987, 19.5492 15.761, 19.2905 15.3688, 19.1026 14.9227, 18.9146 14.4772, 18.8204 14.0026, 18.8204 13.4993, 18.8204 13.1526, 18.9359 12.8911, 19.1671 12.7144, 19.3983 12.5382, 19.6373 12.4496, 19.8836 12.449, 20.1428 12.4496, 20.3863 12.5365, 20.6141 12.7099, 20.8424 12.8838, 20.9563 13.147, 20.9563 13.4993, 20.9563 13.7153, 20.9086 13.8966, 20.8132 14.043, 20.7179 14.19, 20.6006 14.3033, 20.4615 14.3841, 20.3229 14.4649, 20.1675 14.5115, 19.9947 14.5227 L 19.8836 14.5227, 19.6984 14.5227 C 19.8404 15.026, 20.1703 15.4782, 20.6881 15.8788, 21.206 16.2799, 21.8069 16.4802, 22.4908 16.4797, 22.8488 16.4802, 23.1972 16.3877, 23.5361 16.2019, 23.875 16.0168, 24.1527 15.7711, 24.3681 15.4653, 24.6206 15.1006, 24.7827 14.6865, 24.8534 14.2225, 24.9241 13.7591, 24.9595 13.2844, 24.9595 12.7991, 24.9595 12.3088, 24.9443 11.838, 24.9135 11.3858, 24.8832 10.9342, 24.7564 10.5078, 24.5342 10.106, 24.3743 9.81316, 24.1695 9.56966, 23.9198 9.37497, 23.6702 9.18085, 23.3913 9.08322, 23.0827 9.08266, 22.497 9.08322, 21.9887 9.2016, 21.5572 9.43781, 21.1258 9.67458, 20.7773 10.014, 20.5125 10.4561, 20.457 10.5582, 20.3678 10.6093, 20.2443 10.6087 L 20.1703 10.6087 C 19.9548 10.6093, 19.8465 10.5106, 19.8465 10.3125 L 19.8465 4.01068 C 19.8465 3.85583, 19.9363 3.75708, 20.1147 3.71444, 20.1456 3.715, 20.1686 3.71837, 20.1843 3.72398, 20.2 3.73015, 20.2135 3.73296, 20.2258 3.7324, 21.1196 4.13972, 22.0408 4.34339, 22.9902 4.34283, 23.9518 4.34339, 24.8736 4.13972, 25.7551 3.7324, 25.7674 3.73296, 25.7797 3.73015, 25.7921 3.72398, 25.8044 3.71837, 25.8229 3.715, 25.8476 3.71444, 26.0507 3.715, 26.1495 3.80758, 26.1433 3.99273, 26.1433 4.10101, 26.1248 4.17283, 26.0878 4.20817, 25.6501 4.80739, 25.0941 5.27587, 24.4192 5.61363, 23.7442 5.95195, 23.0278 6.12083, 22.2692 6.12027, 21.6408 6.12083, 21.0983 6.04901, 20.6416 5.90482 L 20.6416 9.33401 C 20.8576 9.10735, 21.183 8.90536, 21.6172 8.72863, 22.0521 8.55246, 22.5408 8.46381, 23.0827 8.46325, 23.6129 8.46381, 24.114 8.58388, 24.5853 8.82289, 25.0571 9.06246, 25.4717 9.37329, 25.8291 9.75593, 26.1989 10.1874, 26.4732 10.6648, 26.6516 11.1883, 26.8306 11.7123, 26.9198 12.2493, 26.9198 12.7991 Z" stroke="none" fill="#000000" />
			<path d="M 42.1366 16.6044 C 42.0988 16.751, 41.9952 16.8243, 41.8251 16.8243 L 38.7021 16.8243 C 38.4948 16.8243, 38.3906 16.7241, 38.3906 16.522, 38.3906 15.7714, 38.5023 15.0478, 38.7256 14.3516, 38.9488 13.6554, 39.1927 12.9673, 39.4567 12.286, 39.7212 11.6053, 39.9599 10.9257, 40.174 10.2479, 40.3881 9.57, 40.4946 8.88013, 40.4946 8.17708, 40.4946 7.62805, 40.4099 7.09561, 40.2399 6.57921, 40.0704 6.06338, 39.803 5.60995, 39.4378 5.21893, 39.0731 4.82848, 38.6426 4.52905, 38.1456 4.32123, 37.6487 4.11398, 37.13 4.00979, 36.5884 4.00921, 36.0479 4.00979, 35.5287 4.11398, 35.0317 4.32123, 34.5348 4.52905, 34.106 4.82848, 33.7442 5.21893, 33.3823 5.60995, 33.115 6.06338, 32.9421 6.57921, 32.7692 7.09561, 32.6827 7.62805, 32.6827 8.17708, 32.6827 8.88013, 32.7915 9.57, 33.0085 10.2479, 33.2255 10.9257, 33.4659 11.6053, 33.7298 12.286, 33.9943 12.9673, 34.2377 13.6571, 34.4609 14.3562, 34.6842 15.0558, 34.7959 15.7777, 34.7959 16.522, 34.7959 16.7241, 34.6985 16.8243, 34.5033 16.8243 L 31.3522 16.8243 C 31.189 16.8243, 31.0883 16.751, 31.0505 16.6044 L 30.3898 13.9846 C 30.3898 13.8203, 30.478 13.7167, 30.6538 13.6732 L 30.7579 13.6732 C 30.9217 13.6738, 31.0219 13.7499, 31.0597 13.9022, 31.1604 14.3241, 31.2537 14.6722, 31.3385 14.947, 31.4232 15.2218, 31.4816 15.3684, 31.5125 15.3861, 31.5755 15.4354, 31.7266 15.4663, 31.9654 15.4783, 32.2047 15.4909, 32.4909 15.4966, 32.8241 15.496 L 34.0316 15.496 C 33.8999 14.947, 33.6497 14.3825, 33.2816 13.802, 32.914 13.222, 32.5316 12.6387, 32.1354 12.0524, 31.7392 11.4662, 31.3889 10.8587, 31.0837 10.2295, 30.7786 9.60092, 30.6257 8.91677, 30.6257 8.17708, 30.6257 7.49351, 30.7866 6.86203, 31.1072 6.28151, 31.4278 5.70155, 31.8589 5.20347, 32.3993 4.78783, 32.9844 4.31837, 33.6388 3.96857, 34.3619 3.73956, 35.0855 3.51056, 35.8275 3.39606, 36.5884 3.39548, 37.3498 3.39606, 38.0918 3.51056, 38.8154 3.73956, 39.5391 3.96857, 40.2026 4.31837, 40.8061 4.78783, 41.3345 5.21606, 41.7622 5.71816, 42.0891 6.29525, 42.4165 6.87234, 42.5797 7.49981, 42.5797 8.17708, 42.5797 8.91677, 42.4274 9.60092, 42.1223 10.2295, 41.8177 10.8587, 41.4639 11.4662, 41.0608 12.0524, 40.6584 12.6387, 40.2713 13.222, 39.9004 13.802, 39.5294 14.3825, 39.278 14.947, 39.1452 15.496 L 40.3624 15.496 C 40.6961 15.4966, 40.9824 15.4909, 41.2211 15.4783, 41.4604 15.4663, 41.611 15.4354, 41.674 15.3861, 41.6935 15.3747, 41.7467 15.2281, 41.8349 14.947, 41.923 14.6665, 42.0169 14.3178, 42.1177 13.9022, 42.1555 13.7562, 42.2591 13.68, 42.4286 13.6732 L 42.5328 13.6732 C 42.7028 13.7104, 42.7875 13.814, 42.7875 13.9846 Z" stroke="none" fill="#000000" />
			<rect />
		</svg>
	</g>
	<rect x="-47.3698997" y="-11.842411" width="94.7397995" height="23.6848221" stroke="none" fill="#FFFFFF" transform="matrix(0.384615 0 -0 0.384615 366.827 40.2081)" />
	<path d="M -47.3699 -11.8424 L 47.3699 -11.8424, 47.3699 11.8424, -47.3699 11.8424 Z" fill="none" stroke="#000000" stroke-width="3.89999986" stroke-linecap="round" stroke-linejoin="round" transform="matrix(0.384615 0 -0 0.384615 366.827 40.2081)" />
	<g transform="matrix(1 0 -0 1 349.975 9)">
		<svg width="104.900322" height="48.0957298">
			<defs />
			<path d="M 6.82893 16.7669 C 5.69503 16.731, 4.59143 16.7131, 3.51868 16.7131, 2.4465 16.7131, 1.34289 16.731, 0.208429 16.7669 L 0.208429 15.9949, 0.846915 15.9949 C 1.05002 15.9955, 1.24134 15.9927, 1.41976 15.9865, 1.59873 15.9809, 1.76817 15.9657, 1.92864 15.9416, 2.0891 15.918, 2.22768 15.8939, 2.34438 15.8692, 2.44313 15.8518, 2.52504 15.7969, 2.58957 15.7037, 2.65465 15.6111, 2.68663 15.5079, 2.68663 15.3935 L 2.68663 5.27643 C 2.37861 5.4268, 1.99933 5.54069, 1.54936 5.61812, 1.09939 5.6961, 0.60622 5.73482, 0.0698472 5.73426 L 0.0698472 4.97122 C 0.809885 4.97178, 1.49269 4.88369, 2.11828 4.70696, 2.74386 4.53078, 3.28472 4.19976, 3.74086 3.71444 L 4.02756 3.71444 C 4.23066 3.715, 4.33222 3.81375, 4.33222 4.01068 L 4.33222 15.3935 C 4.33222 15.5135, 4.36307 15.6184, 4.42479 15.7082, 4.48651 15.798, 4.57628 15.8518, 4.69298 15.8692, 4.79172 15.8939, 4.91852 15.918, 5.07225 15.9416, 5.22655 15.9657, 5.40047 15.9809, 5.5946 15.9865, 5.78873 15.9927, 5.97837 15.9955, 6.16295 15.9949 L 6.82893 15.9949, 6.82893 16.7669 Z" stroke="none" fill="#000000" />
			<path d="M 17.5486 10.519 C 17.5486 11.3813, 17.4885 12.2386, 17.3685 13.0914, 17.2484 13.9442, 16.951 14.7449, 16.4764 15.4922, 16.1375 16.0376, 15.6842 16.4561, 15.1169 16.749, 14.5503 17.0424, 13.9337 17.1888, 13.2677 17.1888, 12.627 17.1888, 12.021 17.0424, 11.451 16.749, 10.8809 16.4561, 10.4259 16.0376, 10.087 15.4922, 9.61238 14.7449, 9.31502 13.9442, 9.19495 13.0914, 9.07489 12.2386, 9.01429 11.3813, 9.01429 10.519, 9.01429 9.64596, 9.07489 8.77352, 9.19495 7.90275, 9.31502 7.03199, 9.61238 6.21677, 10.087 5.45597, 10.4259 4.90613, 10.8793 4.47804, 11.4465 4.17283, 12.0137 3.86761, 12.6208 3.715, 13.2677 3.71444, 13.9275 3.715, 14.5424 3.86761, 15.1124 4.17283, 15.6825 4.47804, 16.1375 4.90613, 16.4764 5.45597, 16.951 6.21677, 17.2484 7.03199, 17.3685 7.90275, 17.4885 8.77352, 17.5486 9.64596, 17.5486 10.519 Z M 15.7178 10.2048 C 15.7178 9.82831, 15.715 9.43052, 15.7089 9.0114, 15.7027 8.59285, 15.687 8.18272, 15.6623 7.78156, 15.6376 7.38097, 15.5933 7.00225, 15.5282 6.64598, 15.4637 6.29027, 15.3851 5.98617, 15.2925 5.73426, 15.108 5.32805, 14.837 4.99422, 14.479 4.73389, 14.1216 4.47355, 13.7177 4.34339, 13.2677 4.34283, 12.8301 4.34339, 12.4345 4.47524, 12.0799 4.73837, 11.7253 5.00207, 11.4555 5.33366, 11.2703 5.73426, 11.1783 5.98617, 11.0998 6.29027, 11.0347 6.64598, 10.9701 7.00225, 10.9253 7.38097, 10.9006 7.78156, 10.8759 8.18272, 10.8607 8.59285, 10.8546 9.0114, 10.8484 9.43052, 10.845 9.82831, 10.845 10.2048, 10.845 10.6245, 10.8484 11.066, 10.8546 11.5294, 10.8607 11.9934, 10.8759 12.4423, 10.9006 12.876, 10.9253 13.3102, 10.9701 13.7215, 11.0347 14.1103, 11.0998 14.4997, 11.1783 14.8257, 11.2703 15.0882, 11.4431 15.5259, 11.7102 15.8849, 12.0704 16.166, 12.4311 16.4477, 12.8301 16.588, 13.2677 16.5874, 13.7244 16.588, 14.1328 16.4477, 14.493 16.166, 14.8538 15.8849, 15.1203 15.5259, 15.2925 15.0882, 15.3851 14.8257, 15.4637 14.4997, 15.5282 14.1103, 15.5933 13.7215, 15.6376 13.3102, 15.6623 12.876, 15.687 12.4423, 15.7027 11.9934, 15.7089 11.5294, 15.715 11.066, 15.7178 10.6245, 15.7178 10.2048 Z" stroke="none" fill="#000000" />
			<path d="M 32.5342 16.6044 C 32.4964 16.751, 32.3928 16.8243, 32.2227 16.8243 L 29.0997 16.8243 C 28.8924 16.8243, 28.7882 16.7241, 28.7882 16.522, 28.7882 15.7714, 28.8999 15.0478, 29.1232 14.3516, 29.3464 13.6554, 29.5903 12.9673, 29.8543 12.286, 30.1188 11.6053, 30.3575 10.9257, 30.5716 10.2479, 30.7857 9.57, 30.8922 8.88013, 30.8922 8.17708, 30.8922 7.62805, 30.8075 7.09561, 30.6374 6.57921, 30.468 6.06338, 30.2006 5.60995, 29.8354 5.21893, 29.4707 4.82848, 29.0401 4.52905, 28.5432 4.32123, 28.0463 4.11398, 27.5276 4.00979, 26.986 4.00921, 26.4455 4.00979, 25.9263 4.11398, 25.4293 4.32123, 24.9324 4.52905, 24.5036 4.82848, 24.1418 5.21893, 23.7799 5.60995, 23.5126 6.06338, 23.3397 6.57921, 23.1668 7.09561, 23.0803 7.62805, 23.0803 8.17708, 23.0803 8.88013, 23.1891 9.57, 23.4061 10.2479, 23.6231 10.9257, 23.8635 11.6053, 24.1274 12.286, 24.3919 12.9673, 24.6353 13.6571, 24.8585 14.3562, 25.0818 15.0558, 25.1935 15.7777, 25.1935 16.522, 25.1935 16.7241, 25.0961 16.8243, 24.9009 16.8243 L 21.7498 16.8243 C 21.5866 16.8243, 21.4859 16.751, 21.4481 16.6044 L 20.7874 13.9846 C 20.7874 13.8203, 20.8756 13.7167, 21.0513 13.6732 L 21.1555 13.6732 C 21.3193 13.6738, 21.4195 13.7499, 21.4573 13.9022, 21.558 14.3241, 21.6513 14.6722, 21.7361 14.947, 21.8208 15.2218, 21.8792 15.3684, 21.9101 15.3861, 21.9731 15.4354, 22.1242 15.4663, 22.363 15.4783, 22.6023 15.4909, 22.8885 15.4966, 23.2217 15.496 L 24.4291 15.496 C 24.2975 14.947, 24.0473 14.3825, 23.6792 13.802, 23.3116 13.222, 22.9292 12.6387, 22.533 12.0524, 22.1368 11.4662, 21.7864 10.8587, 21.4813 10.2295, 21.1761 9.60092, 21.0233 8.91677, 21.0233 8.17708, 21.0233 7.49351, 21.1842 6.86203, 21.5048 6.28151, 21.8254 5.70155, 22.2565 5.20347, 22.7969 4.78783, 23.382 4.31837, 24.0364 3.96857, 24.7595 3.73956, 25.4831 3.51056, 26.2251 3.39606, 26.986 3.39548, 27.7474 3.39606, 28.4894 3.51056, 29.213 3.73956, 29.9367 3.96857, 30.6002 4.31837, 31.2037 4.78783, 31.7321 5.21606, 32.1597 5.71816, 32.4867 6.29525, 32.8141 6.87234, 32.9773 7.49981, 32.9773 8.17708, 32.9773 8.91677, 32.825 9.60092, 32.5199 10.2295, 32.2153 10.8587, 31.8615 11.4662, 31.4584 12.0524, 31.056 12.6387, 30.6689 13.222, 30.2979 13.802, 29.927 14.3825, 29.6756 14.947, 29.5428 15.496 L 30.76 15.496 C 31.0937 15.4966, 31.38 15.4909, 31.6187 15.4783, 31.858 15.4663, 32.0086 15.4354, 32.0716 15.3861, 32.091 15.3747, 32.1443 15.2281, 32.2325 14.947, 32.3206 14.6665, 32.4145 14.3178, 32.5153 13.9022, 32.5531 13.7562, 32.6567 13.68, 32.8261 13.6732 L 32.9303 13.6732 C 33.1004 13.7104, 33.1851 13.814, 33.1851 13.9846 Z" stroke="none" fill="#000000" />
			<rect />
		</svg>
	</g>
	<path d="M 0 -132.487 L 0 132.487" fill="none" stroke="#000000" stroke-width="3.4666667" stroke-linecap="round" stroke-linejoin="round" transform="matrix(0.384615 0 0 0.384615 416.657 91.1647)" />
	<ellipse cx="1596.4724607467651" cy="513.51372051239014" rx="6.8249998092651367" ry="6.8249998092651367" stroke="none" fill="#000000" transform="matrix(0.384615 0 0 0.384615 -197.371 -157.297)" />
	<ellipse cx="1596.4724607467651" cy="778.48808574676514" rx="6.8249998092651367" ry="6.8249998092651367" stroke="none" fill="#000000" transform="matrix(0.384615 0 0 0.384615 -197.371 -157.297)" />
	<path d="M -47.3698 -11.8423 L 47.3698 -11.8423, 47.3698 11.8423, -47.3698 11.8423 Z" stroke="none" fill="#FFFFFF" transform="matrix(2.90377e-008 0.384615 -0.384615 2.90377e-008 416.657 91.1647)" />
	<path d="M -47.3698 -11.8423 L 47.3698 -11.8423, 47.3698 11.8423, -47.3698 11.8423 Z" fill="none" stroke="#000000" stroke-width="3.89999986" stroke-linecap="round" stroke-linejoin="round" transform="matrix(2.90377e-008 0.384615 -0.384615 2.90377e-008 416.657 91.1647)" />
	<g transform="matrix(1 0 -0 1 428.693 79.9572)">
		<svg width="131.88237" height="48.0957298">
			<defs />
			<path d="M 8.78267 4.62111 C 8.78267 4.65758, 8.76752 4.70864, 8.7361 4.77372 L 5.96222 8.57097 C 5.60483 9.06807, 5.32598 9.61735, 5.12568 10.2188, 4.92538 10.8203, 4.78231 11.452, 4.69591 12.1129, 4.60951 12.7744, 4.55564 13.4494, 4.53376 14.1372, 4.51244 14.8257, 4.50122 15.5197, 4.50122 16.2193, 4.50122 16.5431, 4.39518 16.7883, 4.18254 16.9554, 3.9699 17.1232, 3.73706 17.2068, 3.48458 17.2068, 3.2321 17.2068, 3.00207 17.1232, 2.7956 16.9554, 2.58913 16.7883, 2.4859 16.5431, 2.4859 16.2193, 2.4859 14.7595, 2.74062 13.3551, 3.24894 12.0052, 3.75726 10.6559, 4.44287 9.38844, 5.30578 8.20292 L 7.06246 5.82403, 3.73425 5.82403 C 3.31514 5.82459, 2.9252 5.82795, 2.56444 5.83356, 2.20424 5.83974, 1.89734 5.8504, 1.64431 5.86498, 1.39183 5.88013, 1.26222 5.89023, 1.25605 5.89584, 1.19434 5.95026, 1.14047 6.04003, 1.09447 6.16571, 1.04846 6.29139, 1.00526 6.43839, 0.964863 6.60558, 0.925027 6.77334, 0.889681 6.94671, 0.858822 7.12624, 0.827964 7.30578, 0.797106 7.4971, 0.766248 7.70021 L 0.081755 7.70021, 0.747733 3.51695, 1.42269 3.51695, 1.42269 3.69649 C 1.42269 3.76269, 1.45972 3.82553, 1.53322 3.885, 1.66282 3.96916, 1.7986 4.02302, 1.93998 4.04659, 2.10662 4.07128, 2.31028 4.09372, 2.55042 4.11448, 2.79111 4.1358, 3.04864 4.14926, 3.323 4.15487, 3.59735 4.16105, 3.87283 4.16385, 4.15 4.16329 L 8.78267 4.16329, 8.78267 4.62111 Z" stroke="none" fill="#000000" />
			<path d="M 14.5521 15.7342 C 14.5521 16.0399, 14.4439 16.2981, 14.227 16.5088, 14.01 16.7195, 13.7472 16.8243, 13.4386 16.8243, 13.1306 16.8243, 12.8667 16.7195, 12.6463 16.5088, 12.4264 16.2981, 12.3159 16.0399, 12.3159 15.7342, 12.3159 15.4354, 12.4264 15.1806, 12.6463 14.9699, 12.8667 14.7592, 13.1306 14.6539, 13.4386 14.6533, 13.7472 14.6539, 14.01 14.7592, 14.227 14.9699, 14.4439 15.1806, 14.5521 15.4354, 14.5521 15.7342 Z" stroke="none" fill="#000000" />
			<path d="M 26.9198 12.7991 C 26.9198 13.386, 26.8093 13.9459, 26.5871 14.4784, 26.3655 15.0114, 26.0451 15.49, 25.6255 15.9141, 25.2002 16.3276, 24.721 16.6435, 24.188 16.8612, 23.655 17.08, 23.0889 17.1888, 22.4908 17.1888, 21.9735 17.1888, 21.491 17.0918, 21.0438 16.8971, 20.5972 16.703, 20.209 16.437, 19.8791 16.0987, 19.5492 15.761, 19.2905 15.3688, 19.1026 14.9227, 18.9146 14.4772, 18.8204 14.0026, 18.8204 13.4993, 18.8204 13.1526, 18.9359 12.8911, 19.1671 12.7144, 19.3983 12.5382, 19.6373 12.4496, 19.8836 12.449, 20.1428 12.4496, 20.3863 12.5365, 20.6141 12.7099, 20.8424 12.8838, 20.9563 13.147, 20.9563 13.4993, 20.9563 13.7153, 20.9086 13.8966, 20.8132 14.043, 20.7179 14.19, 20.6006 14.3033, 20.4615 14.3841, 20.3229 14.4649, 20.1675 14.5115, 19.9947 14.5227 L 19.8836 14.5227, 19.6984 14.5227 C 19.8404 15.026, 20.1703 15.4782, 20.6881 15.8788, 21.206 16.2799, 21.8069 16.4802, 22.4908 16.4797, 22.8488 16.4802, 23.1972 16.3877, 23.5361 16.2019, 23.875 16.0168, 24.1527 15.7711, 24.3681 15.4653, 24.6206 15.1006, 24.7827 14.6865, 24.8534 14.2225, 24.9241 13.7591, 24.9595 13.2844, 24.9595 12.7991, 24.9595 12.3088, 24.9443 11.838, 24.9135 11.3858, 24.8832 10.9342, 24.7564 10.5078, 24.5342 10.106, 24.3743 9.81316, 24.1695 9.56966, 23.9198 9.37497, 23.6702 9.18085, 23.3913 9.08322, 23.0827 9.08266, 22.497 9.08322, 21.9887 9.2016, 21.5572 9.43781, 21.1258 9.67458, 20.7773 10.014, 20.5125 10.4561, 20.457 10.5582, 20.3678 10.6093, 20.2443 10.6087 L 20.1703 10.6087 C 19.9548 10.6093, 19.8465 10.5106, 19.8465 10.3125 L 19.8465 4.01068 C 19.8465 3.85583, 19.9363 3.75708, 20.1147 3.71444, 20.1456 3.715, 20.1686 3.71837, 20.1843 3.72398, 20.2 3.73015, 20.2135 3.73296, 20.2258 3.7324, 21.1196 4.13972, 22.0408 4.34339, 22.9902 4.34283, 23.9518 4.34339, 24.8736 4.13972, 25.7551 3.7324, 25.7674 3.73296, 25.7797 3.73015, 25.7921 3.72398, 25.8044 3.71837, 25.8229 3.715, 25.8476 3.71444, 26.0507 3.715, 26.1495 3.80758, 26.1433 3.99273, 26.1433 4.10101, 26.1248 4.17283, 26.0878 4.20817, 25.6501 4.80739, 25.0941 5.27587, 24.4192 5.61363, 23.7442 5.95195, 23.0278 6.12083, 22.2692 6.12027, 21.6408 6.12083, 21.0983 6.04901, 20.6416 5.90482 L 20.6416 9.33401 C 20.8576 9.10735, 21.183 8.90536, 21.6172 8.72863, 22.0521 8.55246, 22.5408 8.46381, 23.0827 8.46325, 23.6129 8.46381, 24.114 8.58388, 24.5853 8.82289, 25.0571 9.06246, 25.4717 9.37329, 25.8291 9.75593, 26.1989 10.1874, 26.4732 10.6648, 26.6516 11.1883, 26.8306 11.7123, 26.9198 12.2493, 26.9198 12.7991 Z" stroke="none" fill="#000000" />
			<path d="M 42.1366 16.6044 C 42.0988 16.751, 41.9952 16.8243, 41.8251 16.8243 L 38.7021 16.8243 C 38.4948 16.8243, 38.3906 16.7241, 38.3906 16.522, 38.3906 15.7714, 38.5023 15.0478, 38.7256 14.3516, 38.9488 13.6554, 39.1927 12.9673, 39.4567 12.286, 39.7212 11.6053, 39.9599 10.9257, 40.174 10.2479, 40.3881 9.57, 40.4946 8.88013, 40.4946 8.17708, 40.4946 7.62805, 40.4099 7.09561, 40.2399 6.57921, 40.0704 6.06338, 39.803 5.60995, 39.4378 5.21893, 39.0731 4.82848, 38.6426 4.52905, 38.1456 4.32123, 37.6487 4.11398, 37.13 4.00979, 36.5884 4.00921, 36.0479 4.00979, 35.5287 4.11398, 35.0317 4.32123, 34.5348 4.52905, 34.106 4.82848, 33.7442 5.21893, 33.3823 5.60995, 33.115 6.06338, 32.9421 6.57921, 32.7692 7.09561, 32.6827 7.62805, 32.6827 8.17708, 32.6827 8.88013, 32.7915 9.57, 33.0085 10.2479, 33.2255 10.9257, 33.4659 11.6053, 33.7298 12.286, 33.9943 12.9673, 34.2377 13.6571, 34.4609 14.3562, 34.6842 15.0558, 34.7959 15.7777, 34.7959 16.522, 34.7959 16.7241, 34.6985 16.8243, 34.5033 16.8243 L 31.3522 16.8243 C 31.189 16.8243, 31.0883 16.751, 31.0505 16.6044 L 30.3898 13.9846 C 30.3898 13.8203, 30.478 13.7167, 30.6538 13.6732 L 30.7579 13.6732 C 30.9217 13.6738, 31.0219 13.7499, 31.0597 13.9022, 31.1604 14.3241, 31.2537 14.6722, 31.3385 14.947, 31.4232 15.2218, 31.4816 15.3684, 31.5125 15.3861, 31.5755 15.4354, 31.7266 15.4663, 31.9654 15.4783, 32.2047 15.4909, 32.4909 15.4966, 32.8241 15.496 L 34.0316 15.496 C 33.8999 14.947, 33.6497 14.3825, 33.2816 13.802, 32.914 13.222, 32.5316 12.6387, 32.1354 12.0524, 31.7392 11.4662, 31.3889 10.8587, 31.0837 10.2295, 30.7786 9.60092, 30.6257 8.91677, 30.6257 8.17708, 30.6257 7.49351, 30.7866 6.86203, 31.1072 6.28151, 31.4278 5.70155, 31.8589 5.20347, 32.3993 4.78783, 32.9844 4.31837, 33.6388 3.96857, 34.3619 3.73956, 35.0855 3.51056, 35.8275 3.39606, 36.5884 3.39548, 37.3498 3.39606, 38.0918 3.51056, 38.8154 3.73956, 39.5391 3.96857, 40.2026 4.31837, 40.8061 4.78783, 41.3345 5.21606, 41.7622 5.71816, 42.0891 6.29525, 42.4165 6.87234, 42.5797 7.49981, 42.5797 8.17708, 42.5797 8.91677, 42.4274 9.60092, 42.1223 10.2295, 41.8177 10.8587, 41.4639 11.4662, 41.0608 12.0524, 40.6584 12.6387, 40.2713 13.222, 39.9004 13.802, 39.5294 14.3825, 39.278 14.947, 39.1452 15.496 L 40.3624 15.496 C 40.6961 15.4966, 40.9824 15.4909, 41.2211 15.4783, 41.4604 15.4663, 41.611 15.4354, 41.674 15.3861, 41.6935 15.3747, 41.7467 15.2281, 41.8349 14.947, 41.923 14.6665, 42.0169 14.3178, 42.1177 13.9022, 42.1555 13.7562, 42.2591 13.68, 42.4286 13.6732 L 42.5328 13.6732 C 42.7028 13.7104, 42.7875 13.814, 42.7875 13.9846 Z" stroke="none" fill="#000000" />
			<rect />
		</svg>
	</g>
	<g transform="matrix(1 0 -0 1 515.658 130.914)">
		<svg width="47.7787285" height="12.1914883">
			<defs />
			<ellipse cx="-0" cy="-0" rx="1.1556160449981689" ry="1.1556160449981689" stroke="none" fill="#000000" transform="matrix(1 0 0 1 6.566 11.2074)" />
			<ellipse cx="-0" cy="-0" rx="1.1556160449981689" ry="1.1556160449981689" stroke="none" fill="#000000" transform="matrix(1 0 0 1 0.6566 11.2074)" />
			<ellipse cx="-0" cy="-0" rx="1.1556160449981689" ry="1.1556160449981689" stroke="none" fill="#000000" transform="matrix(1 0 0 1 12.4754 11.2074)" />
			<rect />
		</svg>
	</g>
	<g transform="matrix(1 0 -0 1 513.573 77.0159)">
		<svg width="56.9641113" height="32.8723297">
			<defs />
			<path d="M 17.2961 12.7022 C 17.2961 13.2644, 17.2051 13.8037, 17.0224 14.3195, 16.8404 14.8359, 16.5839 15.2951, 16.2536 15.6981, 15.9238 16.1012, 15.5276 16.4252, 15.065 16.6691, 14.603 16.913, 14.086 17.035, 13.5135 17.035, 13.0481 17.035, 12.6061 16.9708, 12.1882 16.8426, 11.7702 16.7149, 11.3723 16.5363, 10.9951 16.3073, 10.6178 16.0783, 10.2657 15.8161, 9.9382 15.5195, 9.6113 15.2235, 9.30959 14.9012, 9.03249 14.5526 L 8.50464 13.893 C 8.27793 14.26, 7.99167 14.639, 7.64588 15.0295, 7.30008 15.4205, 6.92795 15.7623, 6.52834 16.0554, 6.12873 16.3485, 5.69362 16.585, 5.22187 16.7647, 4.75012 16.9451, 4.24402 17.035, 3.703 17.035, 3.14366 17.035, 2.63413 16.913, 2.17497 16.6691, 1.71582 16.4252, 1.32594 16.1012, 1.00534 15.6981, 0.684731 15.2951, 0.436261 14.8359, 0.259928 14.3195, 0.084168 13.8037, -0.00399858 13.2644, -0.00399858 12.7022, -0.00399858 12.1411, 0.087603 11.599, 0.269661 11.0768, 0.451719 10.5547, 0.706486 10.0921, 1.03339 9.68908, 1.36086 9.28604, 1.75704 8.96257, 2.22192 8.71811, 2.68737 8.47422, 3.20606 8.3517, 3.77857 8.35113, 4.69688 8.3517, 5.53618 8.58986, 6.29704 9.06619, 7.05848 9.54252, 7.71229 10.1288, 8.25903 10.8244 L 8.78746 11.5022 C 9.01417 11.1364, 9.29986 10.758, 9.64565 10.3669, 9.99145 9.97648, 10.3642 9.63126, 10.7638 9.33184, 11.1634 9.03299, 11.5985 8.79482, 12.0702 8.61734, 12.542 8.44044, 13.0481 8.3517, 13.5885 8.35113, 14.1484 8.3517, 14.658 8.47422, 15.1171 8.71811, 15.5763 8.96257, 15.9662 9.28604, 16.2868 9.68908, 16.6074 10.0921, 16.8558 10.5547, 17.0322 11.0768, 17.2085 11.599, 17.2961 12.1411, 17.2961 12.7022 Z M 16.6829 12.7022 C 16.6829 12.2264, 16.6108 11.7702, 16.466 11.3333, 16.3217 10.8971, 16.1173 10.5181, 15.8528 10.1975, 15.5889 9.87687, 15.2763 9.61924, 14.9145 9.42344, 14.5526 9.22821, 14.1582 9.13031, 13.7305 9.12974, 13.2525 9.13031, 12.8088 9.21734, 12.4 9.39138, 11.9912 9.56542, 11.6065 9.79614, 11.2447 10.083, 10.8834 10.3704, 10.5468 10.7093, 10.2353 11.0997, 9.92389 11.4908, 9.65195 11.8847, 9.41951 12.2808 L 10.4002 13.5266 C 10.6458 13.8386, 10.896 14.1398, 11.1508 14.4295, 11.4055 14.7197, 11.6678 14.9779, 11.938 15.2035, 12.2082 15.4296, 12.4962 15.61, 12.8013 15.7439, 13.1065 15.8785, 13.4351 15.9455, 13.7866 15.9449, 14.2023 15.9455, 14.5858 15.8584, 14.9379 15.6844, 15.29 15.5104, 15.5963 15.2739, 15.8574 14.9745, 16.1184 14.6756, 16.3217 14.3304, 16.466 13.9394, 16.6108 13.5489, 16.6829 13.1362, 16.6829 12.7022 Z M 6.89131 11.8686 C 6.63368 11.5578, 6.38063 11.2543, 6.13216 10.9578, 5.88369 10.6618, 5.62148 10.4007, 5.34439 10.1746, 5.06787 9.949, 4.78047 9.76866, 4.48162 9.63412, 4.18277 9.50016, 3.85758 9.4326, 3.50491 9.43203, 3.08984 9.4326, 2.70626 9.51962, 2.35417 9.69366, 2.00208 9.86771, 1.69578 10.1047, 1.43472 10.4036, 1.17365 10.703, 0.970986 11.0511, 0.826141 11.4478, 0.681868 11.8452, 0.609159 12.2631, 0.609159 12.7022, 0.609159 13.1791, 0.681868 13.6314, 0.826141 14.0585, 0.970986 14.4861, 1.17537 14.86, 1.4393 15.1806, 1.7038 15.5012, 2.01639 15.7594, 2.37764 15.9546, 2.73947 16.1504, 3.13393 16.2478, 3.56159 16.2472, 4.02704 16.2478, 4.4673 16.1625, 4.88237 15.9913, 5.29744 15.8207, 5.6856 15.5899, 6.04743 15.2997, 6.40926 15.01, 6.74532 14.6693, 7.05676 14.2783, 7.36821 13.8879, 7.64015 13.4968, 7.87259 13.1052 Z" stroke="none" fill="#000000" />
			<rect />
		</svg>
	</g>
</svg>
