<?xml version="1.0"?>
<svg xmlns="http://www.w3.org/2000/svg" xmlns:xlink="http://www.w3.org/1999/xlink" width="218.848404" height="171.095627">
	<defs />
	<path d="M 0 -63.7674 L 0 -42.5109" fill="none" stroke="#000000" stroke-width="2.79999995" stroke-linecap="round" stroke-linejoin="round" transform="matrix(0.357143 0 0 -0.357143 -186.837 57.2461)" />
	<path d="M 0 63.7674 L 0 42.5109" fill="none" stroke="#000000" stroke-width="2.79999995" stroke-linecap="round" stroke-linejoin="round" transform="matrix(0.357143 0 0 -0.357143 -186.837 57.2461)" />
	<path d="M 42.5109 -0 C 42.5109 23.4781, 23.4781 42.5109, -0 42.5109, -23.4781 42.5109, -42.5109 23.4781, -42.5109 -0, -42.5109 -23.4781, -23.4781 -42.5109, -0 -42.5109, 23.4781 -42.5109, 42.5109 -23.4781, 42.5109 -0 Z" stroke="none" fill="#FFFFFF" transform="matrix(0.357143 0 0 -0.357143 -186.837 57.2461)" />
	<path d="M 42.5109 -0 C 42.5109 23.4781, 23.4781 42.5109, -0 42.5109, -23.4781 42.5109, -42.5109 23.4781, -42.5109 -0, -42.5109 -23.4781, -23.4781 -42.5109, -0 -42.5109, 23.4781 -42.5109, 42.5109 -23.4781, 42.5109 -0 Z" fill="none" stroke="#000000" stroke-width="4.19999981" stroke-linecap="round" stroke-linejoin="round" transform="matrix(0.357143 0 0 -0.357143 -186.837 57.2461)" />
	<path d="M 0 -42.5109 L 0 42.5109" fill="none" stroke="#000000" stroke-width="2.79999995" stroke-linecap="round" stroke-linejoin="round" transform="matrix(0.357143 0 0 -0.357143 -186.837 57.2461)" />
	<path d="M -55.2641 -63.7674 L -29.7576 -63.7674" fill="none" stroke="#000000" stroke-width="2.79999995" stroke-linecap="round" stroke-linejoin="round" transform="matrix(0.357143 0 0 -0.357143 -186.837 57.2461)" />
	<path d="M -42.5109 -76.5207 L -42.5109 -51.0142" fill="none" stroke="#000000" stroke-width="2.79999995" stroke-linecap="round" stroke-linejoin="round" transform="matrix(0.357143 0 0 -0.357143 -186.837 57.2461)" />
	<path d="M -55.2641 63.7674 L -29.7576 63.7674" fill="none" stroke="#000000" stroke-width="2.79999995" stroke-linecap="round" stroke-linejoin="round" transform="matrix(0.357143 0 0 -0.357143 -186.837 57.2461)" />
	<path d="M 0 -181.363 L 0 181.361" fill="none" stroke="#000000" stroke-width="3.73333335" stroke-linecap="round" stroke-linejoin="round" transform="matrix(0.357143 0 0 0.357143 -186.837 86.1163)" />
	<path d="M -136.674 0 L 136.675 0" fill="none" stroke="#000000" stroke-width="3.73333335" stroke-linecap="round" stroke-linejoin="round" transform="matrix(0.357143 0 0 0.357143 -138.025 21.3439)" />
	<path d="M -136.674 0 L 136.675 0" fill="none" stroke="#000000" stroke-width="3.73333335" stroke-linecap="round" stroke-linejoin="round" transform="matrix(0.357143 0 0 0.357143 -138.025 150.888)" />
	<ellipse cx="1131.4985837936401" cy="558.05223369598389" rx="11.199999809265137" ry="11.199999809265137" stroke="none" fill="#000000" transform="matrix(0.357143 0 0 0.357143 -493.319 -177.96)" />
	<ellipse cx="1131.4985270500183" cy="558.05223798751831" rx="7.4666666984558105" ry="7.4666666984558105" stroke="none" fill="#FFFFFF" transform="matrix(0.357143 0 0 0.357143 -493.319 -177.96)" />
	<ellipse cx="1131.4985837936401" cy="920.77598857879639" rx="11.199999809265137" ry="11.199999809265137" stroke="none" fill="#000000" transform="matrix(0.357143 0 0 0.357143 -493.319 -177.96)" />
	<ellipse cx="1131.4985270500183" cy="920.77599287033081" rx="7.4666666984558105" ry="7.4666666984558105" stroke="none" fill="#FFFFFF" transform="matrix(0.357143 0 0 0.357143 -493.319 -177.96)" />
	<path d="M -71.462 0 L -42.8772 0" fill="none" stroke="#000000" stroke-width="2.79999995" stroke-linecap="round" stroke-linejoin="round" transform="matrix(2.69635e-008 0.357143 -0.357143 2.69635e-008 -186.837 118.041)" />
	<path d="M 42.8772 0 L 71.462 0" fill="none" stroke="#000000" stroke-width="2.79999995" stroke-linecap="round" stroke-linejoin="round" transform="matrix(2.69635e-008 0.357143 -0.357143 2.69635e-008 -186.837 118.041)" />
	<path d="M -42.8772 -12.7532 L 42.8772 -12.7532, 42.8772 12.7532, -42.8772 12.7532 Z" stroke="none" fill="#FFFFFF" transform="matrix(2.69635e-008 0.357143 -0.357143 2.69635e-008 -186.837 118.041)" />
	<path d="M -42.8772 -12.7532 L 42.8772 -12.7532, 42.8772 12.7532, -42.8772 12.7532 Z" fill="none" stroke="#000000" stroke-width="4.19999981" stroke-linecap="round" stroke-linejoin="round" transform="matrix(2.69635e-008 0.357143 -0.357143 2.69635e-008 -186.837 118.041)" />
	<g transform="matrix(1 0 -0 1 -246.76 46.038)">
		<svg width="108.057793" height="48.0957298">
			<defs />
			<path d="M 6.82893 16.7669 C 5.69503 16.731, 4.59143 16.7131, 3.51868 16.7131, 2.4465 16.7131, 1.34289 16.731, 0.208429 16.7669 L 0.208429 15.9949, 0.846915 15.9949 C 1.05002 15.9955, 1.24134 15.9927, 1.41976 15.9865, 1.59873 15.9809, 1.76817 15.9657, 1.92864 15.9416, 2.0891 15.918, 2.22768 15.8939, 2.34438 15.8692, 2.44313 15.8518, 2.52504 15.7969, 2.58957 15.7037, 2.65465 15.6111, 2.68663 15.5079, 2.68663 15.3935 L 2.68663 5.27643 C 2.37861 5.4268, 1.99933 5.54069, 1.54936 5.61812, 1.09939 5.6961, 0.60622 5.73482, 0.0698472 5.73426 L 0.0698472 4.97122 C 0.809885 4.97178, 1.49269 4.88369, 2.11828 4.70696, 2.74386 4.53078, 3.28472 4.19976, 3.74086 3.71444 L 4.02756 3.71444 C 4.23066 3.715, 4.33222 3.81375, 4.33222 4.01068 L 4.33222 15.3935 C 4.33222 15.5135, 4.36307 15.6184, 4.42479 15.7082, 4.48651 15.798, 4.57628 15.8518, 4.69298 15.8692, 4.79172 15.8939, 4.91852 15.918, 5.07225 15.9416, 5.22655 15.9657, 5.40047 15.9809, 5.5946 15.9865, 5.78873 15.9927, 5.97837 15.9955, 6.16295 15.9949 L 6.82893 15.9949, 6.82893 16.7669 Z" stroke="none" fill="#000000" />
			<path d="M 17.5469 10.519 C 17.5469 11.3813, 17.4869 12.2386, 17.3668 13.0914, 17.2467 13.9442, 16.9494 14.7449, 16.4747 15.4922, 16.1358 16.0376, 15.6825 16.4561, 15.1158 16.749, 14.5491 17.0424, 13.9325 17.1888, 13.2666 17.1888, 12.6258 17.1888, 12.0204 17.0424, 11.4504 16.749, 10.8804 16.4561, 10.4254 16.0376, 10.0865 15.4922, 9.61238 14.7449, 9.31502 13.9442, 9.19495 13.0914, 9.07489 12.2386, 9.01429 11.3813, 9.01429 10.519, 9.01429 9.64596, 9.07489 8.77352, 9.19495 7.90275, 9.31502 7.03199, 9.61238 6.21677, 10.0865 5.45597, 10.4254 4.90613, 10.8787 4.47804, 11.4454 4.17283, 12.0126 3.86761, 12.6197 3.715, 13.2666 3.71444, 13.9264 3.715, 14.5407 3.86761, 15.1108 4.17283, 15.6808 4.47804, 16.1358 4.90613, 16.4747 5.45597, 16.9494 6.21677, 17.2467 7.03199, 17.3668 7.90275, 17.4869 8.77352, 17.5469 9.64596, 17.5469 10.519 Z M 15.7161 10.2048 C 15.7161 9.82831, 15.7133 9.43052, 15.7072 9.0114, 15.7016 8.59285, 15.6859 8.18272, 15.6612 7.78156, 15.6365 7.38097, 15.5922 7.00225, 15.5271 6.64598, 15.4625 6.29027, 15.384 5.98617, 15.2914 5.73426, 15.1063 5.32805, 14.8353 4.99422, 14.4779 4.73389, 14.1205 4.47355, 13.7165 4.34339, 13.2666 4.34283, 12.8289 4.34339, 12.4334 4.47524, 12.0788 4.73837, 11.7248 5.00207, 11.4549 5.33366, 11.2698 5.73426, 11.1777 5.98617, 11.0992 6.29027, 11.0341 6.64598, 10.9696 7.00225, 10.9247 7.38097, 10.9 7.78156, 10.8753 8.18272, 10.8602 8.59285, 10.854 9.0114, 10.8478 9.43052, 10.8445 9.82831, 10.8445 10.2048, 10.8445 10.6245, 10.8478 11.066, 10.854 11.5294, 10.8602 11.9934, 10.8753 12.4423, 10.9 12.876, 10.9247 13.3102, 10.9696 13.7215, 11.0341 14.1103, 11.0992 14.4997, 11.1777 14.8257, 11.2698 15.0882, 11.4426 15.5259, 11.7096 15.8849, 12.0698 16.166, 12.43 16.4477, 12.8289 16.588, 13.2666 16.5874, 13.7227 16.588, 14.1312 16.4477, 14.4914 16.166, 14.8521 15.8849, 15.1186 15.5259, 15.2914 15.0882, 15.384 14.8257, 15.4625 14.4997, 15.5271 14.1103, 15.5922 13.7215, 15.6365 13.3102, 15.6612 12.876, 15.6859 12.4423, 15.7016 11.9934, 15.7072 11.5294, 15.7133 11.066, 15.7161 10.6245, 15.7161 10.2048 Z" stroke="none" fill="#000000" />
			<path d="M 34.2105 4.57714 C 33.9214 4.57772, 33.6666 4.59947, 33.4468 4.64184, 33.2269 4.68478, 33.0219 4.75806, 32.833 4.86111, 32.5187 5.05118, 32.28 5.33801, 32.1162 5.72216 L 27.7486 16.98 C 27.6673 17.1575, 27.5287 17.2428, 27.3335 17.2365 L 27.1829 17.2365 C 26.9883 17.2365, 26.8497 17.1512, 26.7679 16.98 L 22.1929 5.19087 C 22.1425 5.07523, 22.0859 4.9716, 22.0229 4.88, 21.9599 4.7884, 21.8689 4.72142, 21.7492 4.67791, 21.605 4.62352, 21.4023 4.59317, 21.1412 4.58688, 20.8802 4.58115, 20.6019 4.57772, 20.3059 4.57714 L 20.3059 3.81685 C 21.1178 3.86036, 21.8941 3.88154, 22.636 3.88097, 22.7494 3.88154, 22.8725 3.87525, 23.0042 3.86265, 23.8658 3.86322, 24.7681 3.8512, 25.7116 3.82601 L 25.7116 4.57714 C 25.4288 4.57772, 25.1768 4.58401, 24.957 4.59604, 24.7372 4.60863, 24.5385 4.65386, 24.3622 4.73287, 24.2809 4.77638, 24.2179 4.8342, 24.1738 4.90691, 24.1423 4.95615, 24.1263 5.00195, 24.1263 5.04431, 24.1263 5.0695, 24.1297 5.09698, 24.136 5.12675 L 27.8339 14.5984, 31.3239 5.64888 C 31.3554 5.57617, 31.3708 5.49373, 31.3708 5.40156, 31.3708 5.22522, 31.2861 5.06034, 31.1166 4.90691, 30.9724 4.77924, 30.8103 4.69222, 30.6306 4.64642, 30.4514 4.60062, 30.2235 4.57772, 29.9464 4.57714 L 29.9464 3.82601 C 30.7079 3.8512, 31.4246 3.86322, 32.0973 3.86265, 32.1855 3.87525, 32.28 3.88154, 32.3802 3.88097, 32.959 3.88154, 33.5693 3.86036, 34.2105 3.81685 L 34.2105 4.57714 Z" stroke="none" fill="#000000" />
			<rect />
		</svg>
	</g>
	<path d="M 0 -180.814 L 0 180.815" fill="none" stroke="#000000" stroke-width="3.73333335" stroke-linecap="round" stroke-linejoin="round" transform="matrix(0.357143 0 0 0.357143 47.9436 86.3114)" />
	<path d="M -194.074 0 L 194.072 0" fill="none" stroke="#000000" stroke-width="3.73333335" stroke-linecap="round" stroke-linejoin="round" transform="matrix(0.357143 0 0 0.357143 117.256 21.3439)" />
	<path d="M -194.074 0 L 194.072 0" fill="none" stroke="#000000" stroke-width="3.73333335" stroke-linecap="round" stroke-linejoin="round" transform="matrix(0.357143 0 0 0.357143 117.256 150.888)" />
	<ellipse cx="1903.6815671920776" cy="558.05223369598389" rx="11.199999809265137" ry="11.199999809265137" stroke="none" fill="#000000" transform="matrix(0.357143 0 0 0.357143 -493.319 -177.96)" />
	<ellipse cx="1903.6815104484558" cy="558.05223798751831" rx="7.4666666984558105" ry="7.4666666984558105" stroke="none" fill="#FFFFFF" transform="matrix(0.357143 0 0 0.357143 -493.319 -177.96)" />
	<ellipse cx="1903.6815671920776" cy="920.77598857879639" rx="11.199999809265137" ry="11.199999809265137" stroke="none" fill="#000000" transform="matrix(0.357143 0 0 0.357143 -493.319 -177.96)" />
	<ellipse cx="1903.6815104484558" cy="920.77599287033081" rx="7.4666666984558105" ry="7.4666666984558105" stroke="none" fill="#FFFFFF" transform="matrix(0.357143 0 0 0.357143 -493.319 -177.96)" />
	<g transform="matrix(1 0 -0 1 9.00005 111.938)">
		<svg width="77.9182587" height="48.0957298">
			<defs />
			<path d="M 8.17942 12.7991 C 8.17942 13.386, 8.0689 13.9459, 7.84672 14.4784, 7.6251 15.0114, 7.30473 15.49, 6.88506 15.9141, 6.45978 16.3276, 5.98063 16.6435, 5.44763 16.8612, 4.91462 17.08, 4.34851 17.1888, 3.75042 17.1888, 3.23312 17.1888, 2.75061 17.0918, 2.30345 16.8971, 1.85684 16.703, 1.46859 16.437, 1.13869 16.0987, 0.808785 15.761, 0.550137 15.3688, 0.362182 14.9227, 0.174227 14.4772, 0.079969 14.0026, 0.079969 13.4993, 0.079969 13.1526, 0.195547 12.8911, 0.426704 12.7144, 0.65786 12.5382, 0.896872 12.4496, 1.14318 12.449, 1.40239 12.4496, 1.64589 12.5365, 1.87368 12.7099, 2.10203 12.8838, 2.21592 13.147, 2.21592 13.4993, 2.21592 13.7153, 2.16823 13.8966, 2.07285 14.043, 1.97747 14.19, 1.86021 14.3033, 1.72107 14.3841, 1.58249 14.4649, 1.42707 14.5115, 1.25427 14.5227 L 1.14318 14.5227, 0.958027 14.5227 C 1.09998 15.026, 1.42988 15.4782, 1.94774 15.8788, 2.46559 16.2799, 3.06649 16.4802, 3.75042 16.4797, 4.10838 16.4802, 4.45679 16.3877, 4.79567 16.2019, 5.13455 16.0168, 5.41228 15.7711, 5.62773 15.4653, 5.8802 15.1006, 6.04235 14.6865, 6.11304 14.2225, 6.18374 13.7591, 6.21908 13.2844, 6.21908 12.7991, 6.21908 12.3088, 6.20393 11.838, 6.17308 11.3858, 6.14278 10.9342, 6.01598 10.5078, 5.7938 10.106, 5.6339 9.81316, 5.42911 9.56966, 5.17944 9.37497, 4.92977 9.18085, 4.65092 9.08322, 4.34234 9.08266, 3.75659 9.08322, 3.24827 9.2016, 2.81682 9.43781, 2.38536 9.67458, 2.03694 10.014, 1.77212 10.4561, 1.71658 10.5582, 1.62737 10.6093, 1.50394 10.6087 L 1.42988 10.6087 C 1.21443 10.6093, 1.10615 10.5106, 1.10615 10.3125 L 1.10615 4.01068 C 1.10615 3.85583, 1.19592 3.75708, 1.37433 3.71444, 1.40519 3.715, 1.42819 3.71837, 1.4439 3.72398, 1.45961 3.73015, 1.47308 3.73296, 1.48542 3.7324, 2.37919 4.13972, 3.30045 4.34339, 4.24976 4.34283, 5.21142 4.34339, 6.13324 4.13972, 7.01466 3.7324, 7.02701 3.73296, 7.03935 3.73015, 7.05169 3.72398, 7.06404 3.71837, 7.08255 3.715, 7.10724 3.71444, 7.31034 3.715, 7.40909 3.80758, 7.40292 3.99273, 7.40292 4.10101, 7.3844 4.17283, 7.34737 4.20817, 6.90975 4.80739, 6.35374 5.27587, 5.67878 5.61363, 5.00383 5.95195, 4.28735 6.12083, 3.5288 6.12027, 2.90042 6.12083, 2.35787 6.04901, 1.90117 5.90482 L 1.90117 9.33401 C 2.11718 9.10735, 2.44259 8.90536, 2.87685 8.72863, 3.31167 8.55246, 3.80035 8.46381, 4.34234 8.46325, 4.87254 8.46381, 5.37357 8.58388, 5.84486 8.82289, 6.31671 9.06246, 6.73133 9.37329, 7.08872 9.75593, 7.45846 10.1874, 7.73282 10.6648, 7.91124 11.1883, 8.09022 11.7123, 8.17942 12.2493, 8.17942 12.7991 Z" stroke="none" fill="#000000" />
			<path d="M 24.8231 16.8334 C 24.0056 16.7911, 23.2166 16.7693, 22.4552 16.7693 L 22.0871 16.7693 C 21.2003 16.7819, 20.2785 16.8002, 19.3224 16.8243 L 19.3224 16.064 C 19.6058 16.0646, 19.8606 16.0542, 20.0867 16.0325, 20.3134 16.0113, 20.5144 15.9667, 20.6907 15.8991, 20.7726 15.8567, 20.8447 15.7926, 20.9077 15.7067, 20.9329 15.677, 20.9455 15.6369, 20.9455 15.5877, 20.9455 15.5636, 20.9426 15.5361, 20.9358 15.5052 L 19.8698 12.5465, 15.237 12.5465, 14.3599 15.0014 C 14.3284 15.0753, 14.3124 15.1457, 14.3124 15.2121, 14.3124 15.2739, 14.3221 15.3346, 14.341 15.3953, 14.3914 15.5304, 14.4733 15.6403, 14.5861 15.7251, 14.7498 15.8602, 14.9244 15.9501, 15.1099 15.9959, 15.2954 16.0417, 15.5204 16.0646, 15.7843 16.064 L 15.7843 16.8243 C 15.0235 16.8002, 14.2969 16.7819, 13.6048 16.7693 L 13.3128 16.7693 C 12.7088 16.7693, 12.0796 16.7911, 11.4258 16.8334 L 11.4258 16.064 C 11.7281 16.0646, 11.9903 16.0451, 12.2136 16.005, 12.4369 15.9655, 12.6521 15.8876, 12.8594 15.7709, 13.1994 15.5819, 13.4382 15.3043, 13.5767 14.9373 L 17.6524 3.4596 C 17.7154 3.27697, 17.8476 3.18824, 18.0486 3.19396 L 18.1997 3.19396 C 18.4013 3.19453, 18.5329 3.28327, 18.5959 3.4596 L 22.8794 15.4502 C 22.9115 15.567, 22.9602 15.6707, 23.026 15.7623, 23.0924 15.8539, 23.1817 15.9151, 23.2945 15.9449, 23.4582 16.0067, 23.6741 16.0417, 23.9414 16.0508, 24.2088 16.06, 24.5025 16.0646, 24.8231 16.064 L 24.8231 16.8334 Z M 17.5677 6.04277 L 15.5107 11.7862, 19.5961 11.7862 Z" stroke="none" fill="#000000" />
			<rect />
		</svg>
	</g>
	<g transform="matrix(1 0 -0 1 201.387 8.99996)">
		<svg width="29.9820557" height="32.8723297">
			<defs />
			<path d="M 8.46055 14.0579 C 8.38498 14.3579, 8.30025 14.6785, 8.20578 15.0203, 8.11189 15.3627, 7.98594 15.6798, 7.8285 15.973, 7.67163 16.2661, 7.47354 16.5197, 7.23423 16.7332, 6.9955 16.9468, 6.69665 17.0533, 6.33826 17.0533, 5.86021 17.0533, 5.47835 16.921, 5.19209 16.6554, 4.90584 16.3897, 4.74095 16.1195, 4.69687 15.8441, 4.48333 16.0892, 4.16444 16.352, 3.73964 16.6325, 3.31483 16.913, 2.86656 17.0533, 2.39481 17.0533, 1.89844 17.0533, 1.48223 16.9285, 1.14559 16.6783, 0.808958 16.4281, 0.546749 16.1132, 0.35782 15.7342, 0.131106 15.2831, 0.011452 14.7976, -0.00114328 14.2778 L -0.00114328 14.1403 C -0.00114328 13.6583, 0.0652679 13.1762, 0.196945 12.693, 0.348088 12.1623, 0.559344 11.6373, 0.829568 11.1181, 1.09979 10.5994, 1.45818 10.1167, 1.90474 9.67019, 2.26943 9.30436, 2.68622 8.99635, 3.15453 8.74559, 3.62284 8.4954, 4.09917 8.37002, 4.58351 8.36945, 5.00488 8.37002, 5.34782 8.48166, 5.61174 8.70437, 5.87624 8.92765, 6.04284 9.112, 6.11154 9.25799 L 6.07376 9.41371 C 6.11841 9.18814, 6.22375 9.01753, 6.39036 8.90131, 6.55696 8.78566, 6.72527 8.72727, 6.89474 8.7267, 7.08996 8.72727, 7.2537 8.78509, 7.38538 8.90074, 7.46725 8.99291, 7.51133 9.11486, 7.51705 9.26715, 7.51705 9.32268, 7.51076 9.38394, 7.49816 9.45035 L 6.14017 14.7449 C 6.07719 14.9957, 6.03311 15.231, 6.00792 15.4503, 5.99532 15.5607, 5.98903 15.6615, 5.98903 15.7525, 5.98903 15.8327, 5.99532 15.918, 6.00792 16.009, 6.02681 16.1562, 6.07089 16.2661, 6.14017 16.3394, 6.20944 16.4126, 6.30677 16.4493, 6.43215 16.4487, 6.5644 16.4493, 6.68863 16.3943, 6.80485 16.2844, 6.92164 16.1745, 7.0287 16.0113, 7.12603 15.7943, 7.22336 15.5779, 7.3161 15.318, 7.40427 15.0157, 7.49244 14.7134, 7.58347 14.3854, 7.67736 14.0304, 7.71514 13.8724, 7.8222 13.7928, 7.99853 13.7923 L 8.21552 13.7923 C 8.37925 13.7928, 8.46055 13.8598, 8.46055 13.9938 L 8.46055 14.0579 Z M 5.76288 10.687 C 5.73769 10.5776, 5.71594 10.4631, 5.69705 10.344, 5.67815 10.225, 5.64953 10.1076, 5.61174 9.9908, 5.51098 9.70454, 5.36785 9.46466, 5.18236 9.2723, 4.99687 9.07994, 4.76271 8.98375, 4.47989 8.98318, 4.21596 8.98375, 3.9549 9.07879, 3.69727 9.26772, 3.43964 9.45722, 3.20319 9.70111, 2.98908 9.99996, 2.68793 10.4219, 2.46179 10.8604, 2.31065 11.315, 2.15951 11.7702, 2.02096 12.2448, 1.89501 12.7388, 1.76963 13.2278, 1.66601 13.7012, 1.58356 14.1587, 1.53376 14.3911, 1.50856 14.611, 1.50856 14.8182, 1.50856 15.0386, 1.53376 15.2522, 1.58356 15.4594, 1.64081 15.7468, 1.74272 15.9838, 1.89043 16.1699, 2.03814 16.3565, 2.24424 16.4493, 2.50817 16.4487, 2.79786 16.4493, 3.08869 16.3485, 3.38067 16.147, 3.67322 15.9455, 3.94517 15.6981, 4.1965 15.4045, 4.29726 15.2831, 4.39344 15.1657, 4.48447 15.0524, 4.57607 14.9396, 4.65622 14.8188, 4.72492 14.69 L 5.76288 10.687 Z" stroke="none" fill="#000000" />
			<rect />
		</svg>
	</g>
	<path d="M 0 -63.767 L 0 -42.5107" fill="none" stroke="#000000" stroke-width="2.79999995" stroke-linecap="round" stroke-linejoin="round" transform="matrix(0.357143 0 -0 0.357143 47.9436 86.5073)" />
	<path d="M 0 63.767 L 0 42.5107" fill="none" stroke="#000000" stroke-width="2.79999995" stroke-linecap="round" stroke-linejoin="round" transform="matrix(0.357143 0 -0 0.357143 47.9436 86.5073)" />
	<path d="M 42.5107 -0 C 42.5107 23.478, 23.478 42.5107, -0 42.5107, -23.478 42.5107, -42.5107 23.478, -42.5107 -0, -42.5107 -23.478, -23.478 -42.5107, -0 -42.5107, 23.478 -42.5107, 42.5107 -23.478, 42.5107 -0 Z" stroke="none" fill="#FFFFFF" transform="matrix(0.357143 0 -0 0.357143 47.9436 86.5073)" />
	<path d="M 42.5107 -0 C 42.5107 23.478, 23.478 42.5107, -0 42.5107, -23.478 42.5107, -42.5107 23.478, -42.5107 -0, -42.5107 -23.478, -23.478 -42.5107, -0 -42.5107, 23.478 -42.5107, 42.5107 -23.478, 42.5107 -0 Z" fill="none" stroke="#000000" stroke-width="4.19999981" stroke-linecap="round" stroke-linejoin="round" transform="matrix(0.357143 0 -0 0.357143 47.9436 86.5073)" />
	<path d="M -42.5107 0 L 42.5107 0" fill="none" stroke="#000000" stroke-width="2.79999995" stroke-linecap="round" stroke-linejoin="round" transform="matrix(0.357143 0 -0 0.357143 47.9436 86.5073)" />
	<path d="M -13.5364 -10.2633 L -13.5364 10.2633, 13.5364 0 Z" stroke="none" fill="#000000" transform="matrix(2.69635e-008 0.357143 -0.357143 2.69635e-008 47.9436 123.146)" />
	<path d="M 0 -181.362 L 0 181.362" fill="none" stroke="#000000" stroke-width="3.73333335" stroke-linecap="round" stroke-linejoin="round" transform="matrix(0.357143 0 0 0.357143 112.483 86.5073)" />
	<path d="M -71.4608 0 L -42.8765 0" fill="none" stroke="#000000" stroke-width="2.79999995" stroke-linecap="round" stroke-linejoin="round" transform="matrix(2.69635e-008 0.357143 -0.357143 2.69635e-008 112.483 86.1161)" />
	<path d="M 42.8765 0 L 71.4608 0" fill="none" stroke="#000000" stroke-width="2.79999995" stroke-linecap="round" stroke-linejoin="round" transform="matrix(2.69635e-008 0.357143 -0.357143 2.69635e-008 112.483 86.1161)" />
	<path d="M -42.8765 -12.7536 L 42.8765 -12.7536, 42.8765 12.7536, -42.8765 12.7536 Z" stroke="none" fill="#FFFFFF" transform="matrix(2.69635e-008 0.357143 -0.357143 2.69635e-008 112.483 86.1161)" />
	<path d="M -42.8765 -12.7536 L 42.8765 -12.7536, 42.8765 12.7536, -42.8765 12.7536 Z" fill="none" stroke="#000000" stroke-width="4.19999981" stroke-linecap="round" stroke-linejoin="round" transform="matrix(2.69635e-008 0.357143 -0.357143 2.69635e-008 112.483 86.1161)" />
	<ellipse cx="1696.2450199127197" cy="558.05227088928223" rx="7.3500003814697266" ry="7.3500003814697266" stroke="none" fill="#000000" transform="matrix(0.357143 0 0 0.357143 -493.319 -177.96)" />
	<ellipse cx="1696.2450199127197" cy="920.77602577209473" rx="7.3500003814697266" ry="7.3500003814697266" stroke="none" fill="#000000" transform="matrix(0.357143 0 0 0.357143 -493.319 -177.96)" />
	<g transform="matrix(1 0 -0 1 126.196 74.9086)">
		<svg width="77.9182587" height="45.2233963">
			<defs />
			<path d="M 7.60602 16.7669 L 0.079969 16.7669, 0.079969 16.2732 C 0.079969 16.2379, 0.098484 16.184, 0.135514 16.1116 L 3.15906 12.826 C 3.51646 12.4316, 3.87834 12.0277, 4.24528 11.6147, 4.61221 11.2018, 4.94099 10.7799, 5.2305 10.349, 5.52 9.91808, 5.75116 9.47372, 5.92396 9.01589, 6.09677 8.55807, 6.18261 8.0778, 6.18261 7.57453, 6.18261 7.15037, 6.12707 6.7537, 6.01598 6.38565, 5.90489 6.01759, 5.74499 5.69442, 5.53515 5.41613, 5.32588 5.13785, 5.06386 4.91343, 4.74967 4.74286, 4.43547 4.5723, 4.07135 4.48702, 3.65841 4.48646, 3.04236 4.48702, 2.49814 4.67105, 2.02628 5.0391, 1.55499 5.40716, 1.24192 5.8128, 1.08763 6.25492, 1.05733 6.26726, 1.10671 6.27343, 1.23575 6.27287 L 1.39285 6.27287 C 1.578 6.31551, 1.7379 6.38004, 1.87368 6.46644, 2.00945 6.5534, 2.12335 6.67291, 2.21592 6.82552, 2.3085 6.97812, 2.3545 7.16215, 2.3545 7.37704, 2.3545 7.73668, 2.2378 8.01216, 2.00328 8.20348, 1.76876 8.39536, 1.50674 8.49074, 1.21724 8.49018, 0.940073 8.49074, 0.680864 8.39536, 0.44073 8.20348, 0.200597 8.01216, 0.079969 7.73668, 0.079969 7.37704, 0.079969 6.87489, 0.178716 6.39911, 0.376208 5.95026, 0.573702 5.50142, 0.841327 5.1126, 1.18021 4.78326, 1.51909 4.45448, 1.91968 4.19415, 2.382 4.00226, 2.84431 3.81094, 3.33468 3.715, 3.85253 3.71444, 4.49382 3.715, 5.08125 3.80926, 5.61426 3.99778, 6.14727 4.18629, 6.60173 4.45728, 6.97763 4.81019, 7.35354 5.16366, 7.6481 5.57211, 7.86074 6.03554, 8.07338 6.49954, 8.17942 7.01235, 8.17942 7.57453, 8.17942 8.19731, 8.03804 8.77071, 7.75414 9.29418, 7.47081 9.81821, 7.11958 10.2985, 6.70047 10.735, 6.28136 11.172, 5.83588 11.5833, 5.36403 11.9693, 4.89274 12.3553, 4.46577 12.7307, 4.08369 13.0954 L 1.95671 15.0972, 4.74013 15.0972 C 5.12838 15.0978, 5.49083 15.095, 5.82634 15.0888, 6.16242 15.0832, 6.44743 15.0708, 6.68196 15.0529, 6.91648 15.0349, 7.03655 15.0232, 7.04216 15.0164, 7.09153 14.9749, 7.1381 14.8913, 7.1813 14.7656, 7.2245 14.64, 7.26434 14.4918, 7.30137 14.3213, 7.3384 14.1507, 7.37543 13.9773, 7.41246 13.8006, 7.44949 13.6244, 7.48315 13.4309, 7.51401 13.221 L 8.19794 13.221 Z" stroke="none" fill="#000000" />
			<path d="M 23.3958 16.6044 C 23.3581 16.751, 23.2544 16.8243, 23.0844 16.8243 L 19.9625 16.8243 C 19.7552 16.8243, 19.6511 16.7241, 19.6511 16.522, 19.6511 15.7714, 19.7627 15.0478, 19.986 14.3516, 20.2092 13.6554, 20.4531 12.9673, 20.7171 12.286, 20.9816 11.6053, 21.2203 10.9257, 21.4338 10.2479, 21.648 9.57, 21.7545 8.88013, 21.7545 8.17708, 21.7545 7.62805, 21.6697 7.09561, 21.4997 6.57921, 21.3302 6.06338, 21.0629 5.60995, 20.6982 5.21893, 20.3335 4.82848, 19.903 4.52905, 19.406 4.32123, 18.9091 4.11398, 18.3904 4.00979, 17.8494 4.00921, 17.3089 4.00979, 16.7902 4.11398, 16.2933 4.32123, 15.7963 4.52905, 15.3675 4.82848, 15.0057 5.21893, 14.6439 5.60995, 14.3765 6.06338, 14.2036 6.57921, 14.0307 7.09561, 13.9443 7.62805, 13.9443 8.17708, 13.9443 8.88013, 14.0531 9.57, 14.2695 10.2479, 14.4864 10.9257, 14.7269 11.6053, 14.9908 12.286, 15.2553 12.9673, 15.4986 13.6571, 15.7219 14.3562, 15.9452 15.0558, 16.0568 15.7777, 16.0568 16.522, 16.0568 16.7241, 15.9595 16.8243, 15.7649 16.8243 L 12.6138 16.8243 C 12.4506 16.8243, 12.3498 16.751, 12.312 16.6044 L 11.6519 13.9846 C 11.6519 13.8203, 11.7401 13.7167, 11.9159 13.6732 L 12.0195 13.6732 C 12.1832 13.6738, 12.284 13.7499, 12.3218 13.9022, 12.4225 14.3241, 12.5153 14.6722, 12.6 14.947, 12.6848 15.2218, 12.7431 15.3684, 12.7741 15.3861, 12.837 15.4354, 12.9882 15.4663, 13.2269 15.4783, 13.4662 15.4909, 13.7525 15.4966, 14.0857 15.496 L 15.2931 15.496 C 15.1614 14.947, 14.9112 14.3825, 14.5431 13.802, 14.1756 13.222, 13.7931 12.6387, 13.397 12.0524, 13.0008 11.4662, 12.6504 10.8587, 12.3453 10.2295, 12.0407 9.60092, 11.8878 8.91677, 11.8878 8.17708, 11.8878 7.49351, 12.0481 6.86203, 12.3687 6.28151, 12.6893 5.70155, 13.1204 5.20347, 13.6609 4.78783, 14.246 4.31837, 14.9004 3.96857, 15.6234 3.73956, 16.3465 3.51056, 17.0885 3.39606, 17.8494 3.39548, 18.6108 3.39606, 19.3528 3.51056, 20.0759 3.73956, 20.7989 3.96857, 21.4625 4.31837, 22.0659 4.78783, 22.5943 5.21606, 23.022 5.71816, 23.3489 6.29525, 23.6758 6.87234, 23.839 7.49981, 23.839 8.17708, 23.839 8.91677, 23.6867 9.60092, 23.3815 10.2295, 23.077 10.8587, 22.7231 11.4662, 22.3207 12.0524, 21.9182 12.6387, 21.5312 13.222, 21.1602 13.802, 20.7892 14.3825, 20.5379 14.947, 20.4056 15.496 L 21.6222 15.496 C 21.956 15.4966, 22.2422 15.4909, 22.481 15.4783, 22.7203 15.4663, 22.8708 15.4354, 22.9338 15.3861, 22.9527 15.3747, 23.006 15.2281, 23.0941 14.947, 23.1823 14.6665, 23.2762 14.3178, 23.3769 13.9022, 23.4147 13.7562, 23.5189 13.68, 23.6884 13.6732 L 23.792 13.6732 C 23.9621 13.7104, 24.0468 13.814, 24.0468 13.9846 Z" stroke="none" fill="#000000" />
			<rect />
		</svg>
	</g>
	<g transform="matrix(1 0 -0 1 202.203 139.681)">
		<svg width="23.9541492" height="48.0957298">
			<defs />
			<path d="M 6.63739 12.748 C 6.48682 13.2799, 6.27442 13.8054, 6.00076 14.3241, 5.7271 14.8434, 5.37043 15.3226, 4.93017 15.7617, 4.56548 16.1287, 4.15213 16.4355, 3.68954 16.6829, 3.22752 16.9302, 2.74776 17.0533, 2.25082 17.0533, 1.77335 17.0533, 1.37374 16.9256, 1.05313 16.6691, 0.732527 16.4126, 0.487493 16.0949, 0.317458 15.7159, 0.116507 15.2648, 0.00944746 14.7793, -0.00314784 14.2594 L -0.00314784 14.1403 C -0.00314784 13.6583, 0.0598283 13.1791, 0.185208 12.7022 L 2.08136 5.32828 C 2.13174 5.12733, 2.16323 4.97447, 2.17582 4.87027 L 2.17582 4.84279 C 2.17582 4.7884, 2.16323 4.7489, 2.13804 4.72371, 2.06247 4.67562, 1.92106 4.64184, 1.71381 4.62352, 1.50656 4.6052, 1.26725 4.59604, 0.996454 4.59547, 0.902563 4.59604, 0.833289 4.56569, 0.789206 4.50386, 0.75142 4.4678, 0.732527 4.422, 0.732527 4.36646, 0.732527 4.33039, 0.74226 4.29662, 0.76058 4.2657 L 0.789206 4.11914 C 0.839587 3.97315, 0.952371 3.88155, 1.1287 3.84433 L 3.62828 3.64281, 3.66607 3.64281 C 3.74164 3.64338, 3.80461 3.668, 3.85442 3.71609, 3.87961 3.76533, 3.89221 3.81456, 3.89221 3.86265, 3.89221 3.89987, 3.88305 3.93364, 3.86416 3.96342 L 2.50559 9.23967 C 2.64414 9.09997, 2.8989 8.91963, 3.26989 8.69979, 3.64088 8.47994, 4.03076 8.37002, 4.43953 8.36945, 4.93647 8.37002, 5.35669 8.49827, 5.69905 8.75475, 6.04198 9.01123, 6.30419 9.32554, 6.48625 9.69767, 6.70037 10.15, 6.81373 10.6389, 6.82632 11.1633 L 6.82632 11.2915 C 6.82632 11.7621, 6.76334 12.2476, 6.63739 12.748 Z M 5.26967 9.96332 C 5.21356 9.67076, 5.1065 9.43432, 4.94906 9.25398, 4.79219 9.07421, 4.58781 8.98375, 4.3359 8.98318, 4.03419 8.98375, 3.73878 9.08165, 3.44909 9.27688, 3.15997 9.47268, 2.88974 9.71943, 2.63784 10.0183, 2.44319 10.269, 2.27315 10.5043, 2.12831 10.7236 L 1.60961 12.7388 C 1.48423 13.2278, 1.38977 13.6984, 1.32679 14.1495, 1.3016 14.3396, 1.28901 14.5194, 1.28901 14.69, 1.28901 14.959, 1.32049 15.2155, 1.38347 15.4594, 1.45274 15.7411, 1.56725 15.9764, 1.72755 16.1653, 1.88785 16.3548, 2.10025 16.4493, 2.36418 16.4487, 2.62868 16.4493, 2.89089 16.352, 3.15195 16.1562, 3.41302 15.9609, 3.64717 15.7165, 3.85442 15.4228, 4.15671 15.014, 4.38457 14.5795, 4.53857 14.118, 4.69315 13.6572, 4.83284 13.1854, 4.95822 12.7022, 5.08417 12.2018, 5.19467 11.7198, 5.28856 11.2549, 5.32635 11.0356, 5.34524 10.8221, 5.34524 10.6137, 5.34524 10.3944, 5.32005 10.1774, 5.26967 9.96332 Z" stroke="none" fill="#000000" />
			<rect />
		</svg>
	</g>
	<g transform="matrix(1 0 -0 1 -74.2991 8.99996)">
		<svg width="29.9820557" height="32.8723297">
			<defs />
			<path d="M 8.46055 14.0579 C 8.38498 14.3579, 8.30025 14.6785, 8.20578 15.0203, 8.11189 15.3627, 7.98594 15.6798, 7.8285 15.973, 7.67163 16.2661, 7.47354 16.5197, 7.23423 16.7332, 6.9955 16.9468, 6.69665 17.0533, 6.33826 17.0533, 5.86021 17.0533, 5.47835 16.921, 5.19209 16.6554, 4.90584 16.3897, 4.74095 16.1195, 4.69687 15.8441, 4.48333 16.0892, 4.16444 16.352, 3.73964 16.6325, 3.31483 16.913, 2.86656 17.0533, 2.39481 17.0533, 1.89844 17.0533, 1.48223 16.9285, 1.14559 16.6783, 0.808958 16.4281, 0.546749 16.1132, 0.35782 15.7342, 0.131106 15.2831, 0.011452 14.7976, -0.00114328 14.2778 L -0.00114328 14.1403 C -0.00114328 13.6583, 0.0652679 13.1762, 0.196945 12.693, 0.348088 12.1623, 0.559344 11.6373, 0.829568 11.1181, 1.09979 10.5994, 1.45818 10.1167, 1.90474 9.67019, 2.26943 9.30436, 2.68622 8.99635, 3.15453 8.74559, 3.62284 8.4954, 4.09917 8.37002, 4.58351 8.36945, 5.00488 8.37002, 5.34782 8.48166, 5.61174 8.70437, 5.87624 8.92765, 6.04284 9.112, 6.11154 9.25799 L 6.07376 9.41371 C 6.11841 9.18814, 6.22375 9.01753, 6.39036 8.90131, 6.55696 8.78566, 6.72527 8.72727, 6.89474 8.7267, 7.08996 8.72727, 7.2537 8.78509, 7.38538 8.90074, 7.46725 8.99291, 7.51133 9.11486, 7.51705 9.26715, 7.51705 9.32268, 7.51076 9.38394, 7.49816 9.45035 L 6.14017 14.7449 C 6.07719 14.9957, 6.03311 15.231, 6.00792 15.4503, 5.99532 15.5607, 5.98903 15.6615, 5.98903 15.7525, 5.98903 15.8327, 5.99532 15.918, 6.00792 16.009, 6.02681 16.1562, 6.07089 16.2661, 6.14017 16.3394, 6.20944 16.4126, 6.30677 16.4493, 6.43215 16.4487, 6.5644 16.4493, 6.68863 16.3943, 6.80485 16.2844, 6.92164 16.1745, 7.0287 16.0113, 7.12603 15.7943, 7.22336 15.5779, 7.3161 15.318, 7.40427 15.0157, 7.49244 14.7134, 7.58347 14.3854, 7.67736 14.0304, 7.71514 13.8724, 7.8222 13.7928, 7.99853 13.7923 L 8.21552 13.7923 C 8.37925 13.7928, 8.46055 13.8598, 8.46055 13.9938 L 8.46055 14.0579 Z M 5.76288 10.687 C 5.73769 10.5776, 5.71594 10.4631, 5.69705 10.344, 5.67815 10.225, 5.64953 10.1076, 5.61174 9.9908, 5.51098 9.70454, 5.36785 9.46466, 5.18236 9.2723, 4.99687 9.07994, 4.76271 8.98375, 4.47989 8.98318, 4.21596 8.98375, 3.9549 9.07879, 3.69727 9.26772, 3.43964 9.45722, 3.20319 9.70111, 2.98908 9.99996, 2.68793 10.4219, 2.46179 10.8604, 2.31065 11.315, 2.15951 11.7702, 2.02096 12.2448, 1.89501 12.7388, 1.76963 13.2278, 1.66601 13.7012, 1.58356 14.1587, 1.53376 14.3911, 1.50856 14.611, 1.50856 14.8182, 1.50856 15.0386, 1.53376 15.2522, 1.58356 15.4594, 1.64081 15.7468, 1.74272 15.9838, 1.89043 16.1699, 2.03814 16.3565, 2.24424 16.4493, 2.50817 16.4487, 2.79786 16.4493, 3.08869 16.3485, 3.38067 16.147, 3.67322 15.9455, 3.94517 15.6981, 4.1965 15.4045, 4.29726 15.2831, 4.39344 15.1657, 4.48447 15.0524, 4.57607 14.9396, 4.65622 14.8188, 4.72492 14.69 L 5.76288 10.687 Z" stroke="none" fill="#000000" />
			<rect />
		</svg>
	</g>
	<g transform="matrix(1 0 -0 1 -73.483 139.681)">
		<svg width="23.9541492" height="48.0957298">
			<defs />
			<path d="M 6.63739 12.748 C 6.48682 13.2799, 6.27442 13.8054, 6.00076 14.3241, 5.7271 14.8434, 5.37043 15.3226, 4.93017 15.7617, 4.56548 16.1287, 4.15213 16.4355, 3.68954 16.6829, 3.22752 16.9302, 2.74776 17.0533, 2.25082 17.0533, 1.77335 17.0533, 1.37374 16.9256, 1.05313 16.6691, 0.732527 16.4126, 0.487493 16.0949, 0.317458 15.7159, 0.116507 15.2648, 0.00944746 14.7793, -0.00314784 14.2594 L -0.00314784 14.1403 C -0.00314784 13.6583, 0.0598283 13.1791, 0.185208 12.7022 L 2.08136 5.32828 C 2.13174 5.12733, 2.16323 4.97447, 2.17582 4.87027 L 2.17582 4.84279 C 2.17582 4.7884, 2.16323 4.7489, 2.13804 4.72371, 2.06247 4.67562, 1.92106 4.64184, 1.71381 4.62352, 1.50656 4.6052, 1.26725 4.59604, 0.996454 4.59547, 0.902563 4.59604, 0.833289 4.56569, 0.789206 4.50386, 0.75142 4.4678, 0.732527 4.422, 0.732527 4.36646, 0.732527 4.33039, 0.74226 4.29662, 0.76058 4.2657 L 0.789206 4.11914 C 0.839587 3.97315, 0.952371 3.88155, 1.1287 3.84433 L 3.62828 3.64281, 3.66607 3.64281 C 3.74164 3.64338, 3.80461 3.668, 3.85442 3.71609, 3.87961 3.76533, 3.89221 3.81456, 3.89221 3.86265, 3.89221 3.89987, 3.88305 3.93364, 3.86416 3.96342 L 2.50559 9.23967 C 2.64414 9.09997, 2.8989 8.91963, 3.26989 8.69979, 3.64088 8.47994, 4.03076 8.37002, 4.43953 8.36945, 4.93647 8.37002, 5.35669 8.49827, 5.69905 8.75475, 6.04198 9.01123, 6.30419 9.32554, 6.48625 9.69767, 6.70037 10.15, 6.81373 10.6389, 6.82632 11.1633 L 6.82632 11.2915 C 6.82632 11.7621, 6.76334 12.2476, 6.63739 12.748 Z M 5.26967 9.96332 C 5.21356 9.67076, 5.1065 9.43432, 4.94906 9.25398, 4.79219 9.07421, 4.58781 8.98375, 4.3359 8.98318, 4.03419 8.98375, 3.73878 9.08165, 3.44909 9.27688, 3.15997 9.47268, 2.88974 9.71943, 2.63784 10.0183, 2.44319 10.269, 2.27315 10.5043, 2.12831 10.7236 L 1.60961 12.7388 C 1.48423 13.2278, 1.38977 13.6984, 1.32679 14.1495, 1.3016 14.3396, 1.28901 14.5194, 1.28901 14.69, 1.28901 14.959, 1.32049 15.2155, 1.38347 15.4594, 1.45274 15.7411, 1.56725 15.9764, 1.72755 16.1653, 1.88785 16.3548, 2.10025 16.4493, 2.36418 16.4487, 2.62868 16.4493, 2.89089 16.352, 3.15195 16.1562, 3.41302 15.9609, 3.64717 15.7165, 3.85442 15.4228, 4.15671 15.014, 4.38457 14.5795, 4.53857 14.118, 4.69315 13.6572, 4.83284 13.1854, 4.95822 12.7022, 5.08417 12.2018, 5.19467 11.7198, 5.28856 11.2549, 5.32635 11.0356, 5.34524 10.8221, 5.34524 10.6137, 5.34524 10.3944, 5.32005 10.1774, 5.26967 9.96332 Z" stroke="none" fill="#000000" />
			<rect />
		</svg>
	</g>
	<g transform="matrix(1 0 -0 1 -225.369 106.834)">
		<svg width="77.9182587" height="45.2233963">
			<defs />
			<path d="M 7.60602 16.7669 L 0.079969 16.7669, 0.079969 16.2732 C 0.079969 16.2379, 0.098484 16.184, 0.135514 16.1116 L 3.15906 12.826 C 3.51646 12.4316, 3.87834 12.0277, 4.24528 11.6147, 4.61221 11.2018, 4.94099 10.7799, 5.2305 10.349, 5.52 9.91808, 5.75116 9.47372, 5.92396 9.01589, 6.09677 8.55807, 6.18261 8.0778, 6.18261 7.57453, 6.18261 7.15037, 6.12707 6.7537, 6.01598 6.38565, 5.90489 6.01759, 5.74499 5.69442, 5.53515 5.41613, 5.32588 5.13785, 5.06386 4.91343, 4.74967 4.74286, 4.43547 4.5723, 4.07135 4.48702, 3.65841 4.48646, 3.04236 4.48702, 2.49814 4.67105, 2.02628 5.0391, 1.55499 5.40716, 1.24192 5.8128, 1.08763 6.25492, 1.05733 6.26726, 1.10671 6.27343, 1.23575 6.27287 L 1.39285 6.27287 C 1.578 6.31551, 1.7379 6.38004, 1.87368 6.46644, 2.00945 6.5534, 2.12335 6.67291, 2.21592 6.82552, 2.3085 6.97812, 2.3545 7.16215, 2.3545 7.37704, 2.3545 7.73668, 2.2378 8.01216, 2.00328 8.20348, 1.76876 8.39536, 1.50674 8.49074, 1.21724 8.49018, 0.940073 8.49074, 0.680864 8.39536, 0.44073 8.20348, 0.200597 8.01216, 0.079969 7.73668, 0.079969 7.37704, 0.079969 6.87489, 0.178716 6.39911, 0.376208 5.95026, 0.573702 5.50142, 0.841327 5.1126, 1.18021 4.78326, 1.51909 4.45448, 1.91968 4.19415, 2.382 4.00226, 2.84431 3.81094, 3.33468 3.715, 3.85253 3.71444, 4.49382 3.715, 5.08125 3.80926, 5.61426 3.99778, 6.14727 4.18629, 6.60173 4.45728, 6.97763 4.81019, 7.35354 5.16366, 7.6481 5.57211, 7.86074 6.03554, 8.07338 6.49954, 8.17942 7.01235, 8.17942 7.57453, 8.17942 8.19731, 8.03804 8.77071, 7.75414 9.29418, 7.47081 9.81821, 7.11958 10.2985, 6.70047 10.735, 6.28136 11.172, 5.83588 11.5833, 5.36403 11.9693, 4.89274 12.3553, 4.46577 12.7307, 4.08369 13.0954 L 1.95671 15.0972, 4.74013 15.0972 C 5.12838 15.0978, 5.49083 15.095, 5.82634 15.0888, 6.16242 15.0832, 6.44743 15.0708, 6.68196 15.0529, 6.91648 15.0349, 7.03655 15.0232, 7.04216 15.0164, 7.09153 14.9749, 7.1381 14.8913, 7.1813 14.7656, 7.2245 14.64, 7.26434 14.4918, 7.30137 14.3213, 7.3384 14.1507, 7.37543 13.9773, 7.41246 13.8006, 7.44949 13.6244, 7.48315 13.4309, 7.51401 13.221 L 8.19794 13.221 Z" stroke="none" fill="#000000" />
			<path d="M 23.3958 16.6044 C 23.3581 16.751, 23.2544 16.8243, 23.0844 16.8243 L 19.9625 16.8243 C 19.7552 16.8243, 19.6511 16.7241, 19.6511 16.522, 19.6511 15.7714, 19.7627 15.0478, 19.986 14.3516, 20.2092 13.6554, 20.4531 12.9673, 20.7171 12.286, 20.9816 11.6053, 21.2203 10.9257, 21.4338 10.2479, 21.648 9.57, 21.7545 8.88013, 21.7545 8.17708, 21.7545 7.62805, 21.6697 7.09561, 21.4997 6.57921, 21.3302 6.06338, 21.0629 5.60995, 20.6982 5.21893, 20.3335 4.82848, 19.903 4.52905, 19.406 4.32123, 18.9091 4.11398, 18.3904 4.00979, 17.8494 4.00921, 17.3089 4.00979, 16.7902 4.11398, 16.2933 4.32123, 15.7963 4.52905, 15.3675 4.82848, 15.0057 5.21893, 14.6439 5.60995, 14.3765 6.06338, 14.2036 6.57921, 14.0307 7.09561, 13.9443 7.62805, 13.9443 8.17708, 13.9443 8.88013, 14.0531 9.57, 14.2695 10.2479, 14.4864 10.9257, 14.7269 11.6053, 14.9908 12.286, 15.2553 12.9673, 15.4986 13.6571, 15.7219 14.3562, 15.9452 15.0558, 16.0568 15.7777, 16.0568 16.522, 16.0568 16.7241, 15.9595 16.8243, 15.7649 16.8243 L 12.6138 16.8243 C 12.4506 16.8243, 12.3498 16.751, 12.312 16.6044 L 11.6519 13.9846 C 11.6519 13.8203, 11.7401 13.7167, 11.9159 13.6732 L 12.0195 13.6732 C 12.1832 13.6738, 12.284 13.7499, 12.3218 13.9022, 12.4225 14.3241, 12.5153 14.6722, 12.6 14.947, 12.6848 15.2218, 12.7431 15.3684, 12.7741 15.3861, 12.837 15.4354, 12.9882 15.4663, 13.2269 15.4783, 13.4662 15.4909, 13.7525 15.4966, 14.0857 15.496 L 15.2931 15.496 C 15.1614 14.947, 14.9112 14.3825, 14.5431 13.802, 14.1756 13.222, 13.7931 12.6387, 13.397 12.0524, 13.0008 11.4662, 12.6504 10.8587, 12.3453 10.2295, 12.0407 9.60092, 11.8878 8.91677, 11.8878 8.17708, 11.8878 7.49351, 12.0481 6.86203, 12.3687 6.28151, 12.6893 5.70155, 13.1204 5.20347, 13.6609 4.78783, 14.246 4.31837, 14.9004 3.96857, 15.6234 3.73956, 16.3465 3.51056, 17.0885 3.39606, 17.8494 3.39548, 18.6108 3.39606, 19.3528 3.51056, 20.0759 3.73956, 20.7989 3.96857, 21.4625 4.31837, 22.0659 4.78783, 22.5943 5.21606, 23.022 5.71816, 23.3489 6.29525, 23.6758 6.87234, 23.839 7.49981, 23.839 8.17708, 23.839 8.91677, 23.6867 9.60092, 23.3815 10.2295, 23.077 10.8587, 22.7231 11.4662, 22.3207 12.0524, 21.9182 12.6387, 21.5312 13.222, 21.1602 13.802, 20.7892 14.3825, 20.5379 14.947, 20.4056 15.496 L 21.6222 15.496 C 21.956 15.4966, 22.2422 15.4909, 22.481 15.4783, 22.7203 15.4663, 22.8708 15.4354, 22.9338 15.3861, 22.9527 15.3747, 23.006 15.2281, 23.0941 14.947, 23.1823 14.6665, 23.2762 14.3178, 23.3769 13.9022, 23.4147 13.7562, 23.5189 13.68, 23.6884 13.6732 L 23.792 13.6732 C 23.9621 13.7104, 24.0468 13.814, 24.0468 13.9846 Z" stroke="none" fill="#000000" />
			<rect />
		</svg>
	</g>
</svg>
