<?xml version="1.0"?>
<svg xmlns="http://www.w3.org/2000/svg" xmlns:xlink="http://www.w3.org/1999/xlink" width="291.485168" height="225.70462">
	<defs />
	<path d="M -199.609 0 L 199.609 0" fill="none" stroke="#000000" stroke-width="4.26666689" stroke-linecap="round" stroke-linejoin="round" transform="matrix(0.3125 0 0 0.3125 200.532 39.4531)" />
	<path d="M 0 -72.877 L 0 -48.584" fill="none" stroke="#000000" stroke-width="3.20000005" stroke-linecap="round" stroke-linejoin="round" transform="matrix(-1.45285e-007 -0.3125 -0.3125 1.45285e-007 202.789 83.6966)" />
	<path d="M 0 72.877 L 0 48.584" fill="none" stroke="#000000" stroke-width="3.20000005" stroke-linecap="round" stroke-linejoin="round" transform="matrix(-1.45285e-007 -0.3125 -0.3125 1.45285e-007 202.789 83.6966)" />
	<path d="M 48.584 -0 C 48.584 26.8322, 26.8322 48.584, -0 48.584, -26.8322 48.584, -48.584 26.8322, -48.584 -0, -48.584 -26.8322, -26.8322 -48.584, -0 -48.584, 26.8322 -48.584, 48.584 -26.8322, 48.584 -0 Z" stroke="none" fill="#FFFFFF" transform="matrix(-1.45285e-007 -0.3125 -0.3125 1.45285e-007 202.789 83.6966)" />
	<path d="M 48.584 -0 C 48.584 26.8322, 26.8322 48.584, -0 48.584, -26.8322 48.584, -48.584 26.8322, -48.584 -0, -48.584 -26.8322, -26.8322 -48.584, -0 -48.584, 26.8322 -48.584, 48.584 -26.8322, 48.584 -0 Z" fill="none" stroke="#000000" stroke-width="4.80000019" stroke-linecap="round" stroke-linejoin="round" transform="matrix(-1.45285e-007 -0.3125 -0.3125 1.45285e-007 202.789 83.6966)" />
	<path d="M 0 -48.584 L 0 48.584" fill="none" stroke="#000000" stroke-width="3.20000005" stroke-linecap="round" stroke-linejoin="round" transform="matrix(-1.45285e-007 -0.3125 -0.3125 1.45285e-007 202.789 83.6966)" />
	<path d="M -63.1592 72.877 L -34.0088 72.877" fill="none" stroke="#000000" stroke-width="3.20000005" stroke-linecap="round" stroke-linejoin="round" transform="matrix(-1.45285e-007 -0.3125 -0.3125 1.45285e-007 202.789 83.6966)" />
	<path d="M -48.584 58.3018 L -48.584 87.4522" fill="none" stroke="#000000" stroke-width="3.20000005" stroke-linecap="round" stroke-linejoin="round" transform="matrix(-1.45285e-007 -0.3125 -0.3125 1.45285e-007 202.789 83.6966)" />
	<path d="M -48.584 -87.4522 L -48.584 -58.3018" fill="none" stroke="#000000" stroke-width="3.20000005" stroke-linecap="round" stroke-linejoin="round" transform="matrix(-1.45285e-007 -0.3125 -0.3125 1.45285e-007 202.789 83.6966)" />
	<path d="M -342.519 -213.613 L 342.519 -213.613, 342.519 213.613, -342.519 213.613 Z" fill="none" stroke="#000000" stroke-width="4.26666689" stroke-linecap="round" stroke-linejoin="round" transform="matrix(0.3125 0 -0 0.3125 155.873 150.451)" />
	<path d="M 0 -72.877 L 0 -48.584" fill="none" stroke="#000000" stroke-width="3.20000005" stroke-linecap="round" stroke-linejoin="round" transform="matrix(0.3125 0 0 -0.3125 138.155 125.656)" />
	<path d="M 0 72.877 L 0 48.584" fill="none" stroke="#000000" stroke-width="3.20000005" stroke-linecap="round" stroke-linejoin="round" transform="matrix(0.3125 0 0 -0.3125 138.155 125.656)" />
	<path d="M 48.584 -0 C 48.584 26.8322, 26.8322 48.584, -0 48.584, -26.8322 48.584, -48.584 26.8322, -48.584 -0, -48.584 -26.8322, -26.8322 -48.584, -0 -48.584, 26.8322 -48.584, 48.584 -26.8322, 48.584 -0 Z" stroke="none" fill="#FFFFFF" transform="matrix(0.3125 0 0 -0.3125 138.155 125.656)" />
	<path d="M 48.584 -0 C 48.584 26.8322, 26.8322 48.584, -0 48.584, -26.8322 48.584, -48.584 26.8322, -48.584 -0, -48.584 -26.8322, -26.8322 -48.584, -0 -48.584, 26.8322 -48.584, 48.584 -26.8322, 48.584 -0 Z" fill="none" stroke="#000000" stroke-width="4.80000019" stroke-linecap="round" stroke-linejoin="round" transform="matrix(0.3125 0 0 -0.3125 138.155 125.656)" />
	<path d="M 0 -48.584 L 0 48.584" fill="none" stroke="#000000" stroke-width="3.20000005" stroke-linecap="round" stroke-linejoin="round" transform="matrix(0.3125 0 0 -0.3125 138.155 125.656)" />
	<path d="M -63.1592 72.877 L -34.0088 72.877" fill="none" stroke="#000000" stroke-width="3.20000005" stroke-linecap="round" stroke-linejoin="round" transform="matrix(0.3125 0 0 -0.3125 138.155 125.656)" />
	<path d="M -48.584 58.3018 L -48.584 87.4522" fill="none" stroke="#000000" stroke-width="3.20000005" stroke-linecap="round" stroke-linejoin="round" transform="matrix(0.3125 0 0 -0.3125 138.155 125.656)" />
	<path d="M -63.1592 -72.877 L -34.0088 -72.877" fill="none" stroke="#000000" stroke-width="3.20000005" stroke-linecap="round" stroke-linejoin="round" transform="matrix(0.3125 0 0 -0.3125 138.155 125.656)" />
	<g transform="matrix(1 0 -0 1 80.9884 114.448)">
		<svg width="108.057793" height="48.0957298">
			<defs />
			<path d="M 6.82893 16.7669 C 5.69503 16.731, 4.59143 16.7131, 3.51868 16.7131, 2.4465 16.7131, 1.34289 16.731, 0.208429 16.7669 L 0.208429 15.9949, 0.846915 15.9949 C 1.05002 15.9955, 1.24134 15.9927, 1.41976 15.9865, 1.59873 15.9809, 1.76817 15.9657, 1.92864 15.9416, 2.0891 15.918, 2.22768 15.8939, 2.34438 15.8692, 2.44313 15.8518, 2.52504 15.7969, 2.58957 15.7037, 2.65465 15.6111, 2.68663 15.5079, 2.68663 15.3935 L 2.68663 5.27643 C 2.37861 5.4268, 1.99933 5.54069, 1.54936 5.61812, 1.09939 5.6961, 0.60622 5.73482, 0.0698472 5.73426 L 0.0698472 4.97122 C 0.809885 4.97178, 1.49269 4.88369, 2.11828 4.70696, 2.74386 4.53078, 3.28472 4.19976, 3.74086 3.71444 L 4.02756 3.71444 C 4.23066 3.715, 4.33222 3.81375, 4.33222 4.01068 L 4.33222 15.3935 C 4.33222 15.5135, 4.36307 15.6184, 4.42479 15.7082, 4.48651 15.798, 4.57628 15.8518, 4.69298 15.8692, 4.79172 15.8939, 4.91852 15.918, 5.07225 15.9416, 5.22655 15.9657, 5.40047 15.9809, 5.5946 15.9865, 5.78873 15.9927, 5.97837 15.9955, 6.16295 15.9949 L 6.82893 15.9949, 6.82893 16.7669 Z" stroke="none" fill="#000000" />
			<path d="M 17.5486 10.519 C 17.5486 11.3813, 17.4885 12.2386, 17.3685 13.0914, 17.2484 13.9442, 16.951 14.7449, 16.4764 15.4922, 16.1375 16.0376, 15.6842 16.4561, 15.1169 16.749, 14.5503 17.0424, 13.9337 17.1888, 13.2677 17.1888, 12.627 17.1888, 12.021 17.0424, 11.451 16.749, 10.8809 16.4561, 10.4259 16.0376, 10.087 15.4922, 9.61238 14.7449, 9.31502 13.9442, 9.19495 13.0914, 9.07489 12.2386, 9.01429 11.3813, 9.01429 10.519, 9.01429 9.64596, 9.07489 8.77352, 9.19495 7.90275, 9.31502 7.03199, 9.61238 6.21677, 10.087 5.45597, 10.4259 4.90613, 10.8793 4.47804, 11.4465 4.17283, 12.0137 3.86761, 12.6208 3.715, 13.2677 3.71444, 13.9275 3.715, 14.5424 3.86761, 15.1124 4.17283, 15.6825 4.47804, 16.1375 4.90613, 16.4764 5.45597, 16.951 6.21677, 17.2484 7.03199, 17.3685 7.90275, 17.4885 8.77352, 17.5486 9.64596, 17.5486 10.519 Z M 15.7178 10.2048 C 15.7178 9.82831, 15.715 9.43052, 15.7089 9.0114, 15.7027 8.59285, 15.687 8.18272, 15.6623 7.78156, 15.6376 7.38097, 15.5933 7.00225, 15.5282 6.64598, 15.4637 6.29027, 15.3851 5.98617, 15.2925 5.73426, 15.108 5.32805, 14.837 4.99422, 14.479 4.73389, 14.1216 4.47355, 13.7177 4.34339, 13.2677 4.34283, 12.8301 4.34339, 12.4345 4.47524, 12.0799 4.73837, 11.7253 5.00207, 11.4555 5.33366, 11.2703 5.73426, 11.1783 5.98617, 11.0998 6.29027, 11.0347 6.64598, 10.9701 7.00225, 10.9253 7.38097, 10.9006 7.78156, 10.8759 8.18272, 10.8607 8.59285, 10.8546 9.0114, 10.8484 9.43052, 10.845 9.82831, 10.845 10.2048, 10.845 10.6245, 10.8484 11.066, 10.8546 11.5294, 10.8607 11.9934, 10.8759 12.4423, 10.9006 12.876, 10.9253 13.3102, 10.9701 13.7215, 11.0347 14.1103, 11.0998 14.4997, 11.1783 14.8257, 11.2703 15.0882, 11.4431 15.5259, 11.7102 15.8849, 12.0704 16.166, 12.4311 16.4477, 12.8301 16.588, 13.2677 16.5874, 13.7244 16.588, 14.1328 16.4477, 14.493 16.166, 14.8538 15.8849, 15.1203 15.5259, 15.2925 15.0882, 15.3851 14.8257, 15.4637 14.4997, 15.5282 14.1103, 15.5933 13.7215, 15.6376 13.3102, 15.6623 12.876, 15.687 12.4423, 15.7027 11.9934, 15.7089 11.5294, 15.715 11.066, 15.7178 10.6245, 15.7178 10.2048 Z" stroke="none" fill="#000000" />
			<path d="M 34.2133 4.57714 C 33.9242 4.57772, 33.6695 4.59947, 33.449 4.64184, 33.2292 4.68478, 33.0248 4.75806, 32.8359 4.86111, 32.5216 5.05118, 32.2823 5.33801, 32.1185 5.72216 L 27.7503 16.98 C 27.669 17.1575, 27.5304 17.2428, 27.3352 17.2365 L 27.1841 17.2365 C 26.9894 17.2365, 26.8514 17.1512, 26.769 16.98 L 22.1935 5.19087 C 22.1431 5.07523, 22.0864 4.9716, 22.0235 4.88, 21.9605 4.7884, 21.8695 4.72142, 21.7498 4.67791, 21.6055 4.62352, 21.4023 4.59317, 21.1412 4.58688, 20.8802 4.58115, 20.6019 4.57772, 20.3065 4.57714 L 20.3065 3.81685 C 21.1178 3.86036, 21.8946 3.88154, 22.6366 3.88097, 22.75 3.88154, 22.8731 3.87525, 23.0047 3.86265, 23.8669 3.86322, 24.7692 3.8512, 25.7127 3.82601 L 25.7127 4.57714 C 25.4299 4.57772, 25.178 4.58401, 24.9576 4.59604, 24.7377 4.60863, 24.5396 4.65386, 24.3633 4.73287, 24.282 4.77638, 24.219 4.8342, 24.1744 4.90691, 24.1435 4.95615, 24.1274 5.00195, 24.1274 5.04431, 24.1274 5.0695, 24.1309 5.09698, 24.1366 5.12675 L 27.8356 14.5984, 31.3262 5.64888 C 31.3582 5.57617, 31.3737 5.49373, 31.3737 5.40156, 31.3737 5.22522, 31.289 5.06034, 31.1189 4.90691, 30.9747 4.77924, 30.8126 4.69222, 30.6329 4.64642, 30.4537 4.60062, 30.2258 4.57772, 29.9487 4.57714 L 29.9487 3.82601 C 30.7102 3.8512, 31.4269 3.86322, 32.1002 3.86265, 32.1884 3.87525, 32.2823 3.88154, 32.383 3.88097, 32.9618 3.88154, 33.5721 3.86036, 34.2133 3.81685 L 34.2133 4.57714 Z" stroke="none" fill="#000000" />
			<rect />
		</svg>
	</g>
	<g transform="matrix(1 0 -0 1 10.7314 146.378)">
		<svg width="77.9182587" height="45.2233963">
			<defs />
			<path d="M 6.82303 16.7669 C 5.68913 16.731, 4.58609 16.7131, 3.51334 16.7131, 2.44116 16.7131, 1.33812 16.731, 0.204215 16.7669 L 0.204215 15.9949, 0.84214 15.9949 C 1.04524 15.9955, 1.23656 15.9927, 1.41498 15.9865, 1.59396 15.9809, 1.7634 15.9657, 1.92386 15.9416, 2.08433 15.918, 2.22291 15.8939, 2.33961 15.8692, 2.43835 15.8518, 2.51971 15.7969, 2.58423 15.7037, 2.64931 15.6111, 2.68129 15.5079, 2.68129 15.3935 L 2.68129 5.27643 C 2.37383 5.4268, 1.99456 5.54069, 1.54459 5.61812, 1.09462 5.6961, 0.602006 5.73482, 0.0656334 5.73426 L 0.0656334 4.97122 C 0.80511 4.97178, 1.48792 4.88369, 2.1135 4.70696, 2.73908 4.53078, 3.27994 4.19976, 3.73552 3.71444 L 4.02223 3.71444 C 4.22533 3.715, 4.32688 3.81375, 4.32688 4.01068 L 4.32688 15.3935 C 4.32688 15.5135, 4.35774 15.6184, 4.41946 15.7082, 4.48117 15.798, 4.57094 15.8518, 4.68764 15.8692, 4.78639 15.8939, 4.91319 15.918, 5.06692 15.9416, 5.22065 15.9657, 5.39458 15.9809, 5.5887 15.9865, 5.78283 15.9927, 5.97247 15.9955, 6.15762 15.9949 L 6.82303 15.9949, 6.82303 16.7669 Z" stroke="none" fill="#000000" />
			<path d="M 24.0685 16.8334 C 23.251 16.7911, 22.4621 16.7693, 21.7006 16.7693 L 21.3325 16.7693 C 20.4457 16.7819, 19.524 16.8002, 18.5679 16.8243 L 18.5679 16.064 C 18.8513 16.0646, 19.106 16.0542, 19.3322 16.0325, 19.5589 16.0113, 19.7598 15.9667, 19.9362 15.8991, 20.018 15.8567, 20.0902 15.7926, 20.1531 15.7067, 20.1783 15.677, 20.1909 15.6369, 20.1909 15.5877, 20.1909 15.5636, 20.1881 15.5361, 20.1812 15.5052 L 19.1152 12.5465, 14.4824 12.5465, 13.6053 15.0014 C 13.5739 15.0753, 13.5578 15.1457, 13.5578 15.2121, 13.5578 15.2739, 13.5676 15.3346, 13.5865 15.3953, 13.6368 15.5304, 13.7187 15.6403, 13.8315 15.7251, 13.9952 15.8602, 14.1698 15.9501, 14.3553 15.9959, 14.5408 16.0417, 14.7658 16.0646, 15.0298 16.064 L 15.0298 16.8243 C 14.2689 16.8002, 13.5424 16.7819, 12.8502 16.7693 L 12.5582 16.7693 C 11.9542 16.7693, 11.325 16.7911, 10.6712 16.8334 L 10.6712 16.064 C 10.9735 16.0646, 11.2357 16.0451, 11.459 16.005, 11.6823 15.9655, 11.8976 15.8876, 12.1048 15.7709, 12.4449 15.5819, 12.6836 15.3043, 12.8222 14.9373 L 16.8979 3.4596 C 16.9608 3.27697, 17.0931 3.18824, 17.294 3.19396 L 17.4452 3.19396 C 17.6467 3.19453, 17.7784 3.28327, 17.8413 3.4596 L 22.1249 15.4502 C 22.1569 15.567, 22.2056 15.6707, 22.2714 15.7623, 22.3378 15.8539, 22.4272 15.9151, 22.5399 15.9449, 22.7037 16.0067, 22.9195 16.0417, 23.1869 16.0508, 23.4542 16.06, 23.7479 16.0646, 24.0685 16.064 L 24.0685 16.8334 Z M 16.8131 6.04277 L 14.7561 11.7862, 18.8415 11.7862 Z" stroke="none" fill="#000000" />
			<rect />
		</svg>
	</g>
	<path d="M 0 -72.8767 L 0 -48.5839" fill="none" stroke="#000000" stroke-width="3.20000005" stroke-linecap="round" stroke-linejoin="round" transform="matrix(0.3125 0 -0 0.3125 48.8359 187.529)" />
	<path d="M 0 72.8767 L 0 48.5839" fill="none" stroke="#000000" stroke-width="3.20000005" stroke-linecap="round" stroke-linejoin="round" transform="matrix(0.3125 0 -0 0.3125 48.8359 187.529)" />
	<path d="M 48.5839 -0 C 48.5839 26.8321, 26.8321 48.5839, -0 48.5839, -26.8321 48.5839, -48.5839 26.8321, -48.5839 -0, -48.5839 -26.8321, -26.8321 -48.5839, -0 -48.5839, 26.8321 -48.5839, 48.5839 -26.8321, 48.5839 -0 Z" stroke="none" fill="#FFFFFF" transform="matrix(0.3125 0 -0 0.3125 48.8359 187.529)" />
	<path d="M 48.5839 -0 C 48.5839 26.8321, 26.8321 48.5839, -0 48.5839, -26.8321 48.5839, -48.5839 26.8321, -48.5839 -0, -48.5839 -26.8321, -26.8321 -48.5839, -0 -48.5839, 26.8321 -48.5839, 48.5839 -26.8321, 48.5839 -0 Z" fill="none" stroke="#000000" stroke-width="4.80000019" stroke-linecap="round" stroke-linejoin="round" transform="matrix(0.3125 0 -0 0.3125 48.8359 187.529)" />
	<path d="M -48.5839 0 L 48.5839 0" fill="none" stroke="#000000" stroke-width="3.20000005" stroke-linecap="round" stroke-linejoin="round" transform="matrix(0.3125 0 -0 0.3125 48.8359 187.529)" />
	<path d="M -15.4702 -11.7295 L -15.4702 11.7295, 15.4702 0 Z" stroke="none" fill="#000000" transform="matrix(2.35931e-008 0.3125 -0.3125 2.35931e-008 262.91 122.307)" />
	<path d="M -81.6694 0 L -49.0017 0" fill="none" stroke="#000000" stroke-width="3.20000005" stroke-linecap="round" stroke-linejoin="round" transform="matrix(2.35931e-008 0.3125 -0.3125 2.35931e-008 48.8359 117.203)" />
	<path d="M 49.0017 0 L 81.6694 0" fill="none" stroke="#000000" stroke-width="3.20000005" stroke-linecap="round" stroke-linejoin="round" transform="matrix(2.35931e-008 0.3125 -0.3125 2.35931e-008 48.8359 117.203)" />
	<path d="M -49.0017 -14.5754 L 49.0017 -14.5754, 49.0017 14.5754, -49.0017 14.5754 Z" stroke="none" fill="#FFFFFF" transform="matrix(2.35931e-008 0.3125 -0.3125 2.35931e-008 48.8359 117.203)" />
	<path d="M -49.0017 -14.5754 L 49.0017 -14.5754, 49.0017 14.5754, -49.0017 14.5754 Z" fill="none" stroke="#000000" stroke-width="4.80000019" stroke-linecap="round" stroke-linejoin="round" transform="matrix(2.35931e-008 0.3125 -0.3125 2.35931e-008 48.8359 117.203)" />
	<g transform="matrix(1 0 -0 1 190.292 9.00001)">
		<svg width="77.9182587" height="45.2233963">
			<defs />
			<path d="M 7.07718 13.5711 L 7.07718 15.3935 C 7.07718 15.5017, 7.09738 15.6022, 7.13778 15.6947, 7.17817 15.7879, 7.24438 15.849, 7.33639 15.8782, 7.47834 15.9444, 7.7095 15.9809, 8.02986 15.9865, 8.35023 15.9927, 8.6734 15.9955, 8.99993 15.9949 L 8.99993 16.7669 C 8.05735 16.731, 7.13329 16.7131, 6.22662 16.7131, 5.33341 16.7131, 4.39363 16.731, 3.40729 16.7669 L 3.40729 15.9949 C 3.74617 15.9955, 4.07327 15.9927, 4.38746 15.9865, 4.70166 15.9809, 4.93618 15.9444, 5.08991 15.8782, 5.18248 15.849, 5.25037 15.7879, 5.29357 15.6947, 5.33678 15.6022, 5.3581 15.5017, 5.3581 15.3935 L 5.3581 13.5711, 0.0886252 13.5711, 0.0886252 12.844, 6.26365 3.66058 C 6.34444 3.55342, 6.44599 3.49956, 6.56886 3.49899 L 6.77253 3.49899 C 6.97563 3.49956, 7.07718 3.60111, 7.07718 3.80421 L 7.07718 12.7812, 9.06502 12.7812, 9.06502 13.5711 Z M 5.45011 6.02152 L 0.902161 12.7812, 5.45011 12.7812 Z" stroke="none" fill="#000000" />
			<path d="M 23.8206 16.6044 C 23.7829 16.751, 23.6792 16.8243, 23.5092 16.8243 L 20.3873 16.8243 C 20.1801 16.8243, 20.0759 16.7241, 20.0759 16.522, 20.0759 15.7714, 20.1875 15.0478, 20.4108 14.3516, 20.6341 13.6554, 20.8779 12.9673, 21.1419 12.286, 21.4064 11.6053, 21.6451 10.9257, 21.8587 10.2479, 22.0728 9.57, 22.1793 8.88013, 22.1793 8.17708, 22.1793 7.62805, 22.0945 7.09561, 21.9245 6.57921, 21.755 6.06338, 21.4877 5.60995, 21.123 5.21893, 20.7583 4.82848, 20.3278 4.52905, 19.8308 4.32123, 19.3339 4.11398, 18.8152 4.00979, 18.2742 4.00921, 17.7337 4.00979, 17.215 4.11398, 16.7181 4.32123, 16.2211 4.52905, 15.7923 4.82848, 15.4305 5.21893, 15.0687 5.60995, 14.8013 6.06338, 14.6284 6.57921, 14.4555 7.09561, 14.3691 7.62805, 14.3691 8.17708, 14.3691 8.88013, 14.4779 9.57, 14.6943 10.2479, 14.9112 10.9257, 15.1517 11.6053, 15.4156 12.286, 15.6801 12.9673, 15.9234 13.6571, 16.1467 14.3562, 16.37 15.0558, 16.4816 15.7777, 16.4816 16.522, 16.4816 16.7241, 16.3843 16.8243, 16.1897 16.8243 L 13.0386 16.8243 C 12.8754 16.8243, 12.7746 16.751, 12.7369 16.6044 L 12.0767 13.9846 C 12.0767 13.8203, 12.1649 13.7167, 12.3407 13.6732 L 12.4443 13.6732 C 12.608 13.6738, 12.7088 13.7499, 12.7466 13.9022, 12.8473 14.3241, 12.9401 14.6722, 13.0248 14.947, 13.1096 15.2218, 13.168 15.3684, 13.1989 15.3861, 13.2618 15.4354, 13.413 15.4663, 13.6517 15.4783, 13.891 15.4909, 14.1773 15.4966, 14.5105 15.496 L 15.7179 15.496 C 15.5862 14.947, 15.336 14.3825, 14.9679 13.802, 14.6004 13.222, 14.2179 12.6387, 13.8218 12.0524, 13.4256 11.4662, 13.0752 10.8587, 12.7701 10.2295, 12.4655 9.60092, 12.3126 8.91677, 12.3126 8.17708, 12.3126 7.49351, 12.4729 6.86203, 12.7935 6.28151, 13.1141 5.70155, 13.5452 5.20347, 14.0857 4.78783, 14.6708 4.31837, 15.3252 3.96857, 16.0482 3.73956, 16.7713 3.51056, 17.5133 3.39606, 18.2742 3.39548, 19.0356 3.39606, 19.7776 3.51056, 20.5007 3.73956, 21.2237 3.96857, 21.8873 4.31837, 22.4907 4.78783, 23.0191 5.21606, 23.4468 5.71816, 23.7737 6.29525, 24.1006 6.87234, 24.2638 7.49981, 24.2638 8.17708, 24.2638 8.91677, 24.1115 9.60092, 23.8063 10.2295, 23.5018 10.8587, 23.1479 11.4662, 22.7455 12.0524, 22.343 12.6387, 21.956 13.222, 21.585 13.802, 21.214 14.3825, 20.9627 14.947, 20.8304 15.496 L 22.047 15.496 C 22.3808 15.4966, 22.667 15.4909, 22.9058 15.4783, 23.1451 15.4663, 23.2957 15.4354, 23.3586 15.3861, 23.3775 15.3747, 23.4308 15.2281, 23.5189 14.947, 23.6071 14.6665, 23.701 14.3178, 23.8017 13.9022, 23.8395 13.7562, 23.9437 13.68, 24.1132 13.6732 L 24.2168 13.6732 C 24.3869 13.7104, 24.4716 13.814, 24.4716 13.9846 Z" stroke="none" fill="#000000" />
			<rect />
		</svg>
	</g>
	<path d="M -15.4702 -11.7293 L -15.4702 11.7293, 15.4702 0 Z" stroke="none" fill="#000000" transform="matrix(-1.45285e-007 -0.3125 -0.3125 1.45285e-007 48.8359 155.302)" />
	<g transform="matrix(1 0 -0 1 8.99999 105.995)">
		<svg width="77.9182587" height="48.0957298">
			<defs />
			<path d="M 8.50221 13.3826 C 8.50221 13.8977, 8.38831 14.392, 8.16052 14.8644, 7.93273 15.3374, 7.62751 15.7413, 7.24487 16.0757, 6.81398 16.4533, 6.33764 16.7327, 5.81698 16.9151, 5.29631 17.098, 4.75208 17.1888, 4.18485 17.1888, 3.67373 17.1888, 3.17495 17.117, 2.68795 16.9734, 2.20095 16.8298, 1.7622 16.6239, 1.37058 16.3546, 0.978959 16.0852, 0.666449 15.7548, 0.431926 15.3626, 0.197964 14.971, 0.0807031 14.5204, 0.0807031 14.011, 0.0807031 13.6284, 0.208625 13.3428, 0.464468 13.1543, 0.720311 12.9658, 0.98962 12.8715, 1.27295 12.8709, 1.56919 12.8715, 1.84467 12.9658, 2.10052 13.1543, 2.35636 13.3428, 2.48428 13.6284, 2.48428 14.011, 2.48428 14.2388, 2.43996 14.429, 2.35019 14.5816, 2.26098 14.7342, 2.14709 14.8616, 2.00794 14.9631, 1.86936 15.0652, 1.71058 15.1275, 1.53216 15.1511, 1.44015 15.1758, 1.35375 15.1875, 1.27295 15.187, 1.19328 15.1875, 1.18094 15.1937, 1.23592 15.2049, 1.42725 15.5405, 1.80316 15.8373, 2.36422 16.0942, 2.92527 16.3517, 3.53178 16.4802, 4.18485 16.4797, 4.49344 16.4802, 4.78126 16.4039, 5.04945 16.2513, 5.31763 16.0987, 5.5415 15.8939, 5.71991 15.6358, 5.94209 15.3014, 6.09302 14.9424, 6.17269 14.5592, 6.25292 14.1765, 6.29275 13.7843, 6.29275 13.3826, 6.29275 12.9702, 6.25292 12.5741, 6.17269 12.1937, 6.09302 11.8139, 5.94209 11.4621, 5.71991 11.1384, 5.53476 10.8758, 5.30978 10.6632, 5.04496 10.5016, 4.78014 10.34, 4.49344 10.2592, 4.18485 10.2586 L 2.84448 10.2586 C 2.66607 10.2592, 2.57069 10.1756, 2.55834 10.0073 L 2.55834 9.90854 C 2.55834 9.83728, 2.58022 9.78062, 2.62286 9.73798, 2.67841 9.68468, 2.7491 9.65775, 2.83551 9.65718, 3.01448 9.63362, 3.19907 9.62184, 3.38983 9.62128, 3.57498 9.62184, 3.75733 9.61005, 3.93574 9.58537, 4.26845 9.5618, 4.55796 9.45913, 4.80426 9.27623, 5.05113 9.09388, 5.2576 8.86048, 5.42367 8.57602, 5.59031 8.29213, 5.71655 7.96447, 5.80295 7.59305, 5.88935 7.22219, 5.93255 6.84179, 5.93255 6.45241, 5.93255 6.16571, 5.9017 5.8936, 5.83998 5.63607, 5.77826 5.37911, 5.66437 5.15412, 5.49773 4.96224, 5.15268 4.56781, 4.71505 4.37313, 4.18485 4.37874, 3.61818 4.3793, 3.0992 4.4859, 2.62791 4.69798, 2.15662 4.91062, 1.84019 5.13953, 1.67972 5.38415, 1.63708 5.39089, 1.6584 5.39369, 1.74481 5.39313, 1.96699 5.39369, 2.17626 5.45934, 2.37319 5.59062, 2.66943 5.76455, 2.81699 6.05799, 2.81699 6.47037, 2.81699 6.81822, 2.70478 7.08024, 2.47979 7.25641, 2.25481 7.43314, 2.00345 7.52123, 1.72629 7.52067, 1.4553 7.52123, 1.20114 7.43483, 0.963811 7.2609, 0.726483 7.08753, 0.607538 6.82383, 0.607538 6.47037, 0.607538 6.03386, 0.712456 5.64841, 0.921731 5.3129, 1.13157 4.97795, 1.40088 4.69069, 1.73078 4.45111, 2.06068 4.2121, 2.44108 4.0292, 2.87254 3.90352, 3.30399 3.77784, 3.74162 3.715, 4.18485 3.71444, 4.65951 3.715, 5.11902 3.77784, 5.56282 3.90352, 6.00661 4.0292, 6.42573 4.22388, 6.81959 4.48646, 7.14052 4.71425, 7.40982 4.99422, 7.62864 5.32637, 7.84745 5.65851, 7.95686 6.03386, 7.95686 6.45241, 7.95686 6.87208, 7.88167 7.26707, 7.73075 7.63793, 7.57982 8.00935, 7.37953 8.34431, 7.12986 8.64335, 6.88018 8.94296, 6.58282 9.20609, 6.23777 9.43332, 5.89272 9.66111, 5.63351 9.80418, 5.4607 9.86365, 5.60882 9.88217, 5.86186 9.97082, 6.21926 10.129, 6.57665 10.2878, 6.91834 10.4988, 7.24487 10.7613, 7.62751 11.0913, 7.93273 11.4846, 8.16052 11.9424, 8.38831 12.4002, 8.50221 12.8805, 8.50221 13.3826 Z" stroke="none" fill="#000000" />
			<path d="M 23.547 16.6044 C 23.5092 16.751, 23.4056 16.8243, 23.2355 16.8243 L 20.1136 16.8243 C 19.9064 16.8243, 19.8022 16.7241, 19.8022 16.522, 19.8022 15.7714, 19.9138 15.0478, 20.1371 14.3516, 20.3604 13.6554, 20.6043 12.9673, 20.8682 12.286, 21.1327 11.6053, 21.3714 10.9257, 21.585 10.2479, 21.7991 9.57, 21.9056 8.88013, 21.9056 8.17708, 21.9056 7.62805, 21.8209 7.09561, 21.6508 6.57921, 21.4814 6.06338, 21.214 5.60995, 20.8493 5.21893, 20.4846 4.82848, 20.0541 4.52905, 19.5572 4.32123, 19.0602 4.11398, 18.5415 4.00979, 18.0005 4.00921, 17.4601 4.00979, 16.9414 4.11398, 16.4444 4.32123, 15.9475 4.52905, 15.5187 4.82848, 15.1569 5.21893, 14.795 5.60995, 14.5277 6.06338, 14.3548 6.57921, 14.1819 7.09561, 14.0954 7.62805, 14.0954 8.17708, 14.0954 8.88013, 14.2042 9.57, 14.4206 10.2479, 14.6376 10.9257, 14.878 11.6053, 15.142 12.286, 15.4065 12.9673, 15.6498 13.6571, 15.8731 14.3562, 16.0963 15.0558, 16.208 15.7777, 16.208 16.522, 16.208 16.7241, 16.1107 16.8243, 15.916 16.8243 L 12.7649 16.8243 C 12.6017 16.8243, 12.501 16.751, 12.4632 16.6044 L 11.8031 13.9846 C 11.8031 13.8203, 11.8913 13.7167, 12.067 13.6732 L 12.1706 13.6732 C 12.3344 13.6738, 12.4351 13.7499, 12.4729 13.9022, 12.5737 14.3241, 12.6664 14.6722, 12.7512 14.947, 12.8359 15.2218, 12.8943 15.3684, 12.9252 15.3861, 12.9882 15.4354, 13.1393 15.4663, 13.3781 15.4783, 13.6174 15.4909, 13.9036 15.4966, 14.2368 15.496 L 15.4443 15.496 C 15.3126 14.947, 15.0624 14.3825, 14.6943 13.802, 14.3267 13.222, 13.9443 12.6387, 13.5481 12.0524, 13.1519 11.4662, 12.8015 10.8587, 12.4964 10.2295, 12.1918 9.60092, 12.039 8.91677, 12.039 8.17708, 12.039 7.49351, 12.1993 6.86203, 12.5199 6.28151, 12.8405 5.70155, 13.2716 5.20347, 13.812 4.78783, 14.3971 4.31837, 15.0515 3.96857, 15.7746 3.73956, 16.4977 3.51056, 17.2396 3.39606, 18.0005 3.39548, 18.7619 3.39606, 19.5039 3.51056, 20.227 3.73956, 20.9501 3.96857, 21.6136 4.31837, 22.217 4.78783, 22.7455 5.21606, 23.1731 5.71816, 23.5 6.29525, 23.8269 6.87234, 23.9901 7.49981, 23.9901 8.17708, 23.9901 8.91677, 23.8378 9.60092, 23.5327 10.2295, 23.2281 10.8587, 22.8743 11.4662, 22.4718 12.0524, 22.0693 12.6387, 21.6823 13.222, 21.3113 13.802, 20.9403 14.3825, 20.689 14.947, 20.5568 15.496 L 21.7733 15.496 C 22.1071 15.4966, 22.3934 15.4909, 22.6321 15.4783, 22.8714 15.4663, 23.022 15.4354, 23.085 15.3861, 23.1039 15.3747, 23.1571 15.2281, 23.2453 14.947, 23.3334 14.6665, 23.4273 14.3178, 23.5281 13.9022, 23.5659 13.7562, 23.6701 13.68, 23.8395 13.6732 L 23.9432 13.6732 C 24.1132 13.7104, 24.1979 13.814, 24.1979 13.9846 Z" stroke="none" fill="#000000" />
			<rect />
		</svg>
	</g>
	<path d="M 0 282.481 L 0 -282.481" fill="none" stroke="#000000" stroke-width="4.26666689" stroke-linecap="round" stroke-linejoin="round" transform="matrix(0.3125 0 0 0.3125 138.155 128.929)" />
	<path d="M -81.6696 0 L -49.0017 0" fill="none" stroke="#000000" stroke-width="3.20000005" stroke-linecap="round" stroke-linejoin="round" transform="matrix(2.35931e-008 0.3125 -0.3125 2.35931e-008 138.262 184.404)" />
	<path d="M 49.0017 0 L 81.6696 0" fill="none" stroke="#000000" stroke-width="3.20000005" stroke-linecap="round" stroke-linejoin="round" transform="matrix(2.35931e-008 0.3125 -0.3125 2.35931e-008 138.262 184.404)" />
	<path d="M -49.0017 -14.5755 L 49.0017 -14.5755, 49.0017 14.5755, -49.0017 14.5755 Z" stroke="none" fill="#FFFFFF" transform="matrix(2.35931e-008 0.3125 -0.3125 2.35931e-008 138.262 184.404)" />
	<path d="M -49.0017 -14.5755 L 49.0017 -14.5755, 49.0017 14.5755, -49.0017 14.5755 Z" fill="none" stroke="#000000" stroke-width="4.80000019" stroke-linecap="round" stroke-linejoin="round" transform="matrix(2.35931e-008 0.3125 -0.3125 2.35931e-008 138.262 184.404)" />
	<g transform="matrix(1 0 -0 1 99.9782 173.197)">
		<svg width="77.9182587" height="45.2233963">
			<defs />
			<path d="M 7.60602 16.7669 L 0.079969 16.7669, 0.079969 16.2732 C 0.079969 16.2379, 0.098484 16.184, 0.135514 16.1116 L 3.15906 12.826 C 3.51646 12.4316, 3.87834 12.0277, 4.24528 11.6147, 4.61221 11.2018, 4.94099 10.7799, 5.2305 10.349, 5.52 9.91808, 5.75116 9.47372, 5.92396 9.01589, 6.09677 8.55807, 6.18261 8.0778, 6.18261 7.57453, 6.18261 7.15037, 6.12707 6.7537, 6.01598 6.38565, 5.90489 6.01759, 5.74499 5.69442, 5.53515 5.41613, 5.32588 5.13785, 5.06386 4.91343, 4.74967 4.74286, 4.43547 4.5723, 4.07135 4.48702, 3.65841 4.48646, 3.04236 4.48702, 2.49814 4.67105, 2.02628 5.0391, 1.55499 5.40716, 1.24192 5.8128, 1.08763 6.25492, 1.05733 6.26726, 1.10671 6.27343, 1.23575 6.27287 L 1.39285 6.27287 C 1.578 6.31551, 1.7379 6.38004, 1.87368 6.46644, 2.00945 6.5534, 2.12335 6.67291, 2.21592 6.82552, 2.3085 6.97812, 2.3545 7.16215, 2.3545 7.37704, 2.3545 7.73668, 2.2378 8.01216, 2.00328 8.20348, 1.76876 8.39536, 1.50674 8.49074, 1.21724 8.49018, 0.940073 8.49074, 0.680864 8.39536, 0.44073 8.20348, 0.200597 8.01216, 0.079969 7.73668, 0.079969 7.37704, 0.079969 6.87489, 0.178716 6.39911, 0.376208 5.95026, 0.573702 5.50142, 0.841327 5.1126, 1.18021 4.78326, 1.51909 4.45448, 1.91968 4.19415, 2.382 4.00226, 2.84431 3.81094, 3.33468 3.715, 3.85253 3.71444, 4.49382 3.715, 5.08125 3.80926, 5.61426 3.99778, 6.14727 4.18629, 6.60173 4.45728, 6.97763 4.81019, 7.35354 5.16366, 7.6481 5.57211, 7.86074 6.03554, 8.07338 6.49954, 8.17942 7.01235, 8.17942 7.57453, 8.17942 8.19731, 8.03804 8.77071, 7.75414 9.29418, 7.47081 9.81821, 7.11958 10.2985, 6.70047 10.735, 6.28136 11.172, 5.83588 11.5833, 5.36403 11.9693, 4.89274 12.3553, 4.46577 12.7307, 4.08369 13.0954 L 1.95671 15.0972, 4.74013 15.0972 C 5.12838 15.0978, 5.49083 15.095, 5.82634 15.0888, 6.16242 15.0832, 6.44743 15.0708, 6.68196 15.0529, 6.91648 15.0349, 7.03655 15.0232, 7.04216 15.0164, 7.09153 14.9749, 7.1381 14.8913, 7.1813 14.7656, 7.2245 14.64, 7.26434 14.4918, 7.30137 14.3213, 7.3384 14.1507, 7.37543 13.9773, 7.41246 13.8006, 7.44949 13.6244, 7.48315 13.4309, 7.51401 13.221 L 8.19794 13.221 Z" stroke="none" fill="#000000" />
			<path d="M 23.3987 16.6044 C 23.3609 16.751, 23.2573 16.8243, 23.0873 16.8243 L 19.9642 16.8243 C 19.757 16.8243, 19.6528 16.7241, 19.6528 16.522, 19.6528 15.7714, 19.7644 15.0478, 19.9877 14.3516, 20.211 13.6554, 20.4549 12.9673, 20.7188 12.286, 20.9833 11.6053, 21.222 10.9257, 21.4361 10.2479, 21.6503 9.57, 21.7567 8.88013, 21.7567 8.17708, 21.7567 7.62805, 21.672 7.09561, 21.502 6.57921, 21.3325 6.06338, 21.0652 5.60995, 20.6999 5.21893, 20.3352 4.82848, 19.9047 4.52905, 19.4077 4.32123, 18.9108 4.11398, 18.3921 4.00979, 17.8505 4.00921, 17.3101 4.00979, 16.7908 4.11398, 16.2939 4.32123, 15.7969 4.52905, 15.3681 4.82848, 15.0063 5.21893, 14.6445 5.60995, 14.3771 6.06338, 14.2042 6.57921, 14.0313 7.09561, 13.9448 7.62805, 13.9448 8.17708, 13.9448 8.88013, 14.0536 9.57, 14.2706 10.2479, 14.4876 10.9257, 14.728 11.6053, 14.992 12.286, 15.2565 12.9673, 15.4998 13.6571, 15.7231 14.3562, 15.9463 15.0558, 16.058 15.7777, 16.058 16.522, 16.058 16.7241, 15.9607 16.8243, 15.7654 16.8243 L 12.6143 16.8243 C 12.4512 16.8243, 12.3504 16.751, 12.3126 16.6044 L 11.6519 13.9846 C 11.6519 13.8203, 11.7401 13.7167, 11.9159 13.6732 L 12.0201 13.6732 C 12.1838 13.6738, 12.284 13.7499, 12.3218 13.9022, 12.4225 14.3241, 12.5159 14.6722, 12.6006 14.947, 12.6853 15.2218, 12.7437 15.3684, 12.7746 15.3861, 12.8376 15.4354, 12.9888 15.4663, 13.2275 15.4783, 13.4668 15.4909, 13.7531 15.4966, 14.0863 15.496 L 15.2937 15.496 C 15.162 14.947, 14.9118 14.3825, 14.5437 13.802, 14.1761 13.222, 13.7937 12.6387, 13.3975 12.0524, 13.0014 11.4662, 12.651 10.8587, 12.3458 10.2295, 12.0407 9.60092, 11.8878 8.91677, 11.8878 8.17708, 11.8878 7.49351, 12.0487 6.86203, 12.3693 6.28151, 12.6899 5.70155, 13.121 5.20347, 13.6615 4.78783, 14.2466 4.31837, 14.9009 3.96857, 15.624 3.73956, 16.3477 3.51056, 17.0896 3.39606, 17.8505 3.39548, 18.6119 3.39606, 19.3539 3.51056, 20.0776 3.73956, 20.8012 3.96857, 21.4648 4.31837, 22.0682 4.78783, 22.5966 5.21606, 23.0243 5.71816, 23.3512 6.29525, 23.6787 6.87234, 23.8418 7.49981, 23.8418 8.17708, 23.8418 8.91677, 23.6895 9.60092, 23.3844 10.2295, 23.0798 10.8587, 22.726 11.4662, 22.323 12.0524, 21.9205 12.6387, 21.5335 13.222, 21.1625 13.802, 20.7915 14.3825, 20.5402 14.947, 20.4073 15.496 L 21.6245 15.496 C 21.9583 15.4966, 22.2445 15.4909, 22.4833 15.4783, 22.7226 15.4663, 22.8731 15.4354, 22.9361 15.3861, 22.9556 15.3747, 23.0088 15.2281, 23.097 14.947, 23.1852 14.6665, 23.279 14.3178, 23.3798 13.9022, 23.4176 13.7562, 23.5212 13.68, 23.6907 13.6732 L 23.7949 13.6732 C 23.9649 13.7104, 24.0496 13.814, 24.0496 13.9846 Z" stroke="none" fill="#000000" />
			<rect />
		</svg>
	</g>
	<path d="M -81.6696 0 L -49.0018 0" fill="none" stroke="#000000" stroke-width="3.20000005" stroke-linecap="round" stroke-linejoin="round" transform="matrix(2.35931e-008 0.3125 -0.3125 2.35931e-008 262.91 172.412)" />
	<path d="M 49.0018 0 L 81.6696 0" fill="none" stroke="#000000" stroke-width="3.20000005" stroke-linecap="round" stroke-linejoin="round" transform="matrix(2.35931e-008 0.3125 -0.3125 2.35931e-008 262.91 172.412)" />
	<path d="M -49.0018 -14.5755 L 49.0018 -14.5755, 49.0018 14.5755, -49.0018 14.5755 Z" stroke="none" fill="#FFFFFF" transform="matrix(2.35931e-008 0.3125 -0.3125 2.35931e-008 262.91 172.412)" />
	<path d="M -49.0018 -14.5755 L 49.0018 -14.5755, 49.0018 14.5755, -49.0018 14.5755 Z" fill="none" stroke="#000000" stroke-width="4.80000019" stroke-linecap="round" stroke-linejoin="round" transform="matrix(2.35931e-008 0.3125 -0.3125 2.35931e-008 262.91 172.412)" />
	<g transform="matrix(1 0 -0 1 205.411 161.204)">
		<svg width="131.88237" height="48.0957298">
			<defs />
			<path d="M 7.60602 16.7669 L 0.079969 16.7669, 0.079969 16.2732 C 0.079969 16.2379, 0.098484 16.184, 0.135514 16.1116 L 3.15906 12.826 C 3.51646 12.4316, 3.87834 12.0277, 4.24528 11.6147, 4.61221 11.2018, 4.94099 10.7799, 5.2305 10.349, 5.52 9.91808, 5.75116 9.47372, 5.92396 9.01589, 6.09677 8.55807, 6.18261 8.0778, 6.18261 7.57453, 6.18261 7.15037, 6.12707 6.7537, 6.01598 6.38565, 5.90489 6.01759, 5.74499 5.69442, 5.53515 5.41613, 5.32588 5.13785, 5.06386 4.91343, 4.74967 4.74286, 4.43547 4.5723, 4.07135 4.48702, 3.65841 4.48646, 3.04236 4.48702, 2.49814 4.67105, 2.02628 5.0391, 1.55499 5.40716, 1.24192 5.8128, 1.08763 6.25492, 1.05733 6.26726, 1.10671 6.27343, 1.23575 6.27287 L 1.39285 6.27287 C 1.578 6.31551, 1.7379 6.38004, 1.87368 6.46644, 2.00945 6.5534, 2.12335 6.67291, 2.21592 6.82552, 2.3085 6.97812, 2.3545 7.16215, 2.3545 7.37704, 2.3545 7.73668, 2.2378 8.01216, 2.00328 8.20348, 1.76876 8.39536, 1.50674 8.49074, 1.21724 8.49018, 0.940073 8.49074, 0.680864 8.39536, 0.44073 8.20348, 0.200597 8.01216, 0.079969 7.73668, 0.079969 7.37704, 0.079969 6.87489, 0.178716 6.39911, 0.376208 5.95026, 0.573702 5.50142, 0.841327 5.1126, 1.18021 4.78326, 1.51909 4.45448, 1.91968 4.19415, 2.382 4.00226, 2.84431 3.81094, 3.33468 3.715, 3.85253 3.71444, 4.49382 3.715, 5.08125 3.80926, 5.61426 3.99778, 6.14727 4.18629, 6.60173 4.45728, 6.97763 4.81019, 7.35354 5.16366, 7.6481 5.57211, 7.86074 6.03554, 8.07338 6.49954, 8.17942 7.01235, 8.17942 7.57453, 8.17942 8.19731, 8.03804 8.77071, 7.75414 9.29418, 7.47081 9.81821, 7.11958 10.2985, 6.70047 10.735, 6.28136 11.172, 5.83588 11.5833, 5.36403 11.9693, 4.89274 12.3553, 4.46577 12.7307, 4.08369 13.0954 L 1.95671 15.0972, 4.74013 15.0972 C 5.12838 15.0978, 5.49083 15.095, 5.82634 15.0888, 6.16242 15.0832, 6.44743 15.0708, 6.68196 15.0529, 6.91648 15.0349, 7.03655 15.0232, 7.04216 15.0164, 7.09153 14.9749, 7.1381 14.8913, 7.1813 14.7656, 7.2245 14.64, 7.26434 14.4918, 7.30137 14.3213, 7.3384 14.1507, 7.37543 13.9773, 7.41246 13.8006, 7.44949 13.6244, 7.48315 13.4309, 7.51401 13.221 L 8.19794 13.221 Z" stroke="none" fill="#000000" />
			<path d="M 14.6741 15.7342 C 14.6741 16.0399, 14.5659 16.2981, 14.3489 16.5088, 14.1319 16.7195, 13.8691 16.8243, 13.5606 16.8243, 13.2525 16.8243, 12.9886 16.7195, 12.7688 16.5088, 12.5489 16.2981, 12.4384 16.0399, 12.4384 15.7342, 12.4384 15.4354, 12.5489 15.1806, 12.7688 14.9699, 12.9886 14.7592, 13.2525 14.6539, 13.5606 14.6533, 13.8691 14.6539, 14.1319 14.7592, 14.3489 14.9699, 14.5659 15.1806, 14.6741 15.4354, 14.6741 15.7342 Z" stroke="none" fill="#000000" />
			<path d="M 27.0407 12.7991 C 27.0407 13.386, 26.9301 13.9459, 26.7079 14.4784, 26.4863 15.0114, 26.166 15.49, 25.7463 15.9141, 25.321 16.3276, 24.8419 16.6435, 24.3089 16.8612, 23.7758 17.08, 23.2109 17.1888, 22.6128 17.1888, 22.0955 17.1888, 21.613 17.0918, 21.1664 16.8971, 20.7198 16.703, 20.3315 16.437, 20.0016 16.0987, 19.6717 15.761, 19.413 15.3688, 19.2245 14.9227, 19.0366 14.4772, 18.9423 14.0026, 18.9423 13.4993, 18.9423 13.1526, 19.0579 12.8911, 19.2891 12.7144, 19.5202 12.5382, 19.7592 12.4496, 20.0055 12.449, 20.2647 12.4496, 20.5082 12.5365, 20.736 12.7099, 20.9644 12.8838, 21.0783 13.147, 21.0783 13.4993, 21.0783 13.7153, 21.0306 13.8966, 20.9352 14.043, 20.8398 14.19, 20.7226 14.3033, 20.5834 14.3841, 20.4448 14.4649, 20.2894 14.5115, 20.1166 14.5227 L 20.0055 14.5227, 19.8209 14.5227 C 19.9629 15.026, 20.2928 15.4782, 20.8101 15.8788, 21.3279 16.2799, 21.9288 16.4802, 22.6128 16.4797, 22.9702 16.4802, 23.3186 16.3877, 23.6575 16.2019, 23.9963 16.0168, 24.2735 15.7711, 24.489 15.4653, 24.742 15.1006, 24.9041 14.6865, 24.9748 14.2225, 25.0455 13.7591, 25.0809 13.2844, 25.0809 12.7991, 25.0809 12.3088, 25.0657 11.838, 25.0349 11.3858, 25.004 10.9342, 24.8778 10.5078, 24.6556 10.106, 24.4957 9.81316, 24.2909 9.56966, 24.0412 9.37497, 23.7916 9.18085, 23.5127 9.08322, 23.2041 9.08266, 22.6189 9.08322, 22.1106 9.2016, 21.6792 9.43781, 21.2477 9.67458, 20.8993 10.014, 20.6345 10.4561, 20.5789 10.5582, 20.4897 10.6093, 20.3663 10.6087 L 20.2922 10.6087 C 20.0768 10.6093, 19.9685 10.5106, 19.9685 10.3125 L 19.9685 4.01068 C 19.9685 3.85583, 20.0583 3.75708, 20.2367 3.71444, 20.2681 3.715, 20.2911 3.71837, 20.3063 3.72398, 20.322 3.73015, 20.3354 3.73296, 20.3478 3.7324, 21.2415 4.13972, 22.1628 4.34339, 23.1116 4.34283, 24.0732 4.34339, 24.995 4.13972, 25.8759 3.7324, 25.8882 3.73296, 25.9006 3.73015, 25.9129 3.72398, 25.9253 3.71837, 25.9438 3.715, 25.9685 3.71444, 26.1716 3.715, 26.2703 3.80758, 26.2641 3.99273, 26.2641 4.10101, 26.2456 4.17283, 26.2086 4.20817, 25.771 4.80739, 25.215 5.27587, 24.54 5.61363, 23.8656 5.95195, 23.1491 6.12083, 22.3906 6.12027, 21.7622 6.12083, 21.2202 6.04901, 20.7635 5.90482 L 20.7635 9.33401 C 20.9795 9.10735, 21.3049 8.90536, 21.7392 8.72863, 22.1735 8.55246, 22.6621 8.46381, 23.2041 8.46325, 23.7343 8.46381, 24.2354 8.58388, 24.7066 8.82289, 25.1779 9.06246, 25.5926 9.37329, 25.95 9.75593, 26.3197 10.1874, 26.594 10.6648, 26.7725 11.1883, 26.9514 11.7123, 27.0407 12.2493, 27.0407 12.7991 Z" stroke="none" fill="#000000" />
			<path d="M 42.2562 16.6044 C 42.2184 16.751, 42.1148 16.8243, 41.9448 16.8243 L 38.8229 16.8243 C 38.6156 16.8243, 38.5114 16.7241, 38.5114 16.522, 38.5114 15.7714, 38.6231 15.0478, 38.8464 14.3516, 39.0696 13.6554, 39.3135 12.9673, 39.5775 12.286, 39.842 11.6053, 40.0807 10.9257, 40.2942 10.2479, 40.5084 9.57, 40.6148 8.88013, 40.6148 8.17708, 40.6148 7.62805, 40.5301 7.09561, 40.3601 6.57921, 40.1906 6.06338, 39.9233 5.60995, 39.5586 5.21893, 39.1939 4.82848, 38.7634 4.52905, 38.2664 4.32123, 37.7695 4.11398, 37.2508 4.00979, 36.7098 4.00921, 36.1693 4.00979, 35.6506 4.11398, 35.1537 4.32123, 34.6567 4.52905, 34.2279 4.82848, 33.8661 5.21893, 33.5043 5.60995, 33.2369 6.06338, 33.064 6.57921, 32.8911 7.09561, 32.8047 7.62805, 32.8047 8.17708, 32.8047 8.88013, 32.9134 9.57, 33.1299 10.2479, 33.3468 10.9257, 33.5873 11.6053, 33.8512 12.286, 34.1157 12.9673, 34.359 13.6571, 34.5823 14.3562, 34.8056 15.0558, 34.9172 15.7777, 34.9172 16.522, 34.9172 16.7241, 34.8199 16.8243, 34.6253 16.8243 L 31.4742 16.8243 C 31.311 16.8243, 31.2102 16.751, 31.1724 16.6044 L 30.5123 13.9846 C 30.5123 13.8203, 30.6005 13.7167, 30.7763 13.6732 L 30.8799 13.6732 C 31.0436 13.6738, 31.1444 13.7499, 31.1822 13.9022, 31.2829 14.3241, 31.3757 14.6722, 31.4604 14.947, 31.5451 15.2218, 31.6035 15.3684, 31.6345 15.3861, 31.6974 15.4354, 31.8486 15.4663, 32.0873 15.4783, 32.3266 15.4909, 32.6129 15.4966, 32.9461 15.496 L 34.1535 15.496 C 34.0218 14.947, 33.7716 14.3825, 33.4035 13.802, 33.036 13.222, 32.6535 12.6387, 32.2574 12.0524, 31.8612 11.4662, 31.5108 10.8587, 31.2057 10.2295, 30.9011 9.60092, 30.7482 8.91677, 30.7482 8.17708, 30.7482 7.49351, 30.9085 6.86203, 31.2291 6.28151, 31.5497 5.70155, 31.9808 5.20347, 32.5213 4.78783, 33.1064 4.31837, 33.7608 3.96857, 34.4838 3.73956, 35.2069 3.51056, 35.9489 3.39606, 36.7098 3.39548, 37.4712 3.39606, 38.2132 3.51056, 38.9362 3.73956, 39.6593 3.96857, 40.3229 4.31837, 40.9263 4.78783, 41.4547 5.21606, 41.8824 5.71816, 42.2093 6.29525, 42.5362 6.87234, 42.6994 7.49981, 42.6994 8.17708, 42.6994 8.91677, 42.5471 9.60092, 42.2419 10.2295, 41.9373 10.8587, 41.5835 11.4662, 41.1811 12.0524, 40.7786 12.6387, 40.3916 13.222, 40.0206 13.802, 39.6496 14.3825, 39.3983 14.947, 39.266 15.496 L 40.4826 15.496 C 40.8164 15.4966, 41.1026 15.4909, 41.3414 15.4783, 41.5807 15.4663, 41.7312 15.4354, 41.7942 15.3861, 41.8131 15.3747, 41.8664 15.2281, 41.9545 14.947, 42.0427 14.6665, 42.1366 14.3178, 42.2373 13.9022, 42.2751 13.7562, 42.3793 13.68, 42.5488 13.6732 L 42.6524 13.6732 C 42.8224 13.7104, 42.9072 13.814, 42.9072 13.9846 Z" stroke="none" fill="#000000" />
			<rect />
		</svg>
	</g>
	<g transform="matrix(1 0 -0 1 190.145 105.995)">
		<svg width="81.075737" height="48.0957298">
			<defs />
			<path d="M 8.50221 13.3826 C 8.50221 13.8977, 8.38831 14.392, 8.16052 14.8644, 7.93273 15.3374, 7.62751 15.7413, 7.24487 16.0757, 6.81398 16.4533, 6.33764 16.7327, 5.81698 16.9151, 5.29631 17.098, 4.75208 17.1888, 4.18485 17.1888, 3.67373 17.1888, 3.17495 17.117, 2.68795 16.9734, 2.20095 16.8298, 1.7622 16.6239, 1.37058 16.3546, 0.978959 16.0852, 0.666449 15.7548, 0.431926 15.3626, 0.197964 14.971, 0.0807031 14.5204, 0.0807031 14.011, 0.0807031 13.6284, 0.208625 13.3428, 0.464468 13.1543, 0.720311 12.9658, 0.98962 12.8715, 1.27295 12.8709, 1.56919 12.8715, 1.84467 12.9658, 2.10052 13.1543, 2.35636 13.3428, 2.48428 13.6284, 2.48428 14.011, 2.48428 14.2388, 2.43996 14.429, 2.35019 14.5816, 2.26098 14.7342, 2.14709 14.8616, 2.00794 14.9631, 1.86936 15.0652, 1.71058 15.1275, 1.53216 15.1511, 1.44015 15.1758, 1.35375 15.1875, 1.27295 15.187, 1.19328 15.1875, 1.18094 15.1937, 1.23592 15.2049, 1.42725 15.5405, 1.80316 15.8373, 2.36422 16.0942, 2.92527 16.3517, 3.53178 16.4802, 4.18485 16.4797, 4.49344 16.4802, 4.78126 16.4039, 5.04945 16.2513, 5.31763 16.0987, 5.5415 15.8939, 5.71991 15.6358, 5.94209 15.3014, 6.09302 14.9424, 6.17269 14.5592, 6.25292 14.1765, 6.29275 13.7843, 6.29275 13.3826, 6.29275 12.9702, 6.25292 12.5741, 6.17269 12.1937, 6.09302 11.8139, 5.94209 11.4621, 5.71991 11.1384, 5.53476 10.8758, 5.30978 10.6632, 5.04496 10.5016, 4.78014 10.34, 4.49344 10.2592, 4.18485 10.2586 L 2.84448 10.2586 C 2.66607 10.2592, 2.57069 10.1756, 2.55834 10.0073 L 2.55834 9.90854 C 2.55834 9.83728, 2.58022 9.78062, 2.62286 9.73798, 2.67841 9.68468, 2.7491 9.65775, 2.83551 9.65718, 3.01448 9.63362, 3.19907 9.62184, 3.38983 9.62128, 3.57498 9.62184, 3.75733 9.61005, 3.93574 9.58537, 4.26845 9.5618, 4.55796 9.45913, 4.80426 9.27623, 5.05113 9.09388, 5.2576 8.86048, 5.42367 8.57602, 5.59031 8.29213, 5.71655 7.96447, 5.80295 7.59305, 5.88935 7.22219, 5.93255 6.84179, 5.93255 6.45241, 5.93255 6.16571, 5.9017 5.8936, 5.83998 5.63607, 5.77826 5.37911, 5.66437 5.15412, 5.49773 4.96224, 5.15268 4.56781, 4.71505 4.37313, 4.18485 4.37874, 3.61818 4.3793, 3.0992 4.4859, 2.62791 4.69798, 2.15662 4.91062, 1.84019 5.13953, 1.67972 5.38415, 1.63708 5.39089, 1.6584 5.39369, 1.74481 5.39313, 1.96699 5.39369, 2.17626 5.45934, 2.37319 5.59062, 2.66943 5.76455, 2.81699 6.05799, 2.81699 6.47037, 2.81699 6.81822, 2.70478 7.08024, 2.47979 7.25641, 2.25481 7.43314, 2.00345 7.52123, 1.72629 7.52067, 1.4553 7.52123, 1.20114 7.43483, 0.963811 7.2609, 0.726483 7.08753, 0.607538 6.82383, 0.607538 6.47037, 0.607538 6.03386, 0.712456 5.64841, 0.921731 5.3129, 1.13157 4.97795, 1.40088 4.69069, 1.73078 4.45111, 2.06068 4.2121, 2.44108 4.0292, 2.87254 3.90352, 3.30399 3.77784, 3.74162 3.715, 4.18485 3.71444, 4.65951 3.715, 5.11902 3.77784, 5.56282 3.90352, 6.00661 4.0292, 6.42573 4.22388, 6.81959 4.48646, 7.14052 4.71425, 7.40982 4.99422, 7.62864 5.32637, 7.84745 5.65851, 7.95686 6.03386, 7.95686 6.45241, 7.95686 6.87208, 7.88167 7.26707, 7.73075 7.63793, 7.57982 8.00935, 7.37953 8.34431, 7.12986 8.64335, 6.88018 8.94296, 6.58282 9.20609, 6.23777 9.43332, 5.89272 9.66111, 5.63351 9.80418, 5.4607 9.86365, 5.60882 9.88217, 5.86186 9.97082, 6.21926 10.129, 6.57665 10.2878, 6.91834 10.4988, 7.24487 10.7613, 7.62751 11.0913, 7.93273 11.4846, 8.16052 11.9424, 8.38831 12.4002, 8.50221 12.8805, 8.50221 13.3826 Z" stroke="none" fill="#000000" />
			<path d="M 25.2262 4.57714 C 24.937 4.57772, 24.6823 4.59947, 24.4624 4.64184, 24.2426 4.68478, 24.0376 4.75806, 23.8487 4.86111, 23.5344 5.05118, 23.2956 5.33801, 23.1319 5.72216 L 18.7642 16.98 C 18.6829 17.1575, 18.5444 17.2428, 18.3492 17.2365 L 18.1986 17.2365 C 18.0039 17.2365, 17.8654 17.1512, 17.7835 16.98 L 13.2086 5.19087 C 13.1582 5.07523, 13.1015 4.9716, 13.0386 4.88, 12.9756 4.7884, 12.8846 4.72142, 12.7649 4.67791, 12.6206 4.62352, 12.418 4.59317, 12.1569 4.58688, 11.8958 4.58115, 11.6176 4.57772, 11.3216 4.57714 L 11.3216 3.81685 C 12.1334 3.86036, 12.9097 3.88154, 13.6517 3.88097, 13.7651 3.88154, 13.8882 3.87525, 14.0198 3.86265, 14.8815 3.86322, 15.7837 3.8512, 16.7272 3.82601 L 16.7272 4.57714 C 16.4444 4.57772, 16.1925 4.58401, 15.9727 4.59604, 15.7528 4.60863, 15.5542 4.65386, 15.3778 4.73287, 15.2965 4.77638, 15.2336 4.8342, 15.1895 4.90691, 15.158 4.95615, 15.142 5.00195, 15.142 5.04431, 15.142 5.0695, 15.1454 5.09698, 15.1517 5.12675 L 18.8495 14.5984, 22.3396 5.64888 C 22.371 5.57617, 22.3865 5.49373, 22.3865 5.40156, 22.3865 5.22522, 22.3018 5.06034, 22.1323 4.90691, 21.988 4.77924, 21.826 4.69222, 21.6462 4.64642, 21.4671 4.60062, 21.2392 4.57772, 20.9621 4.57714 L 20.9621 3.82601 C 21.7235 3.8512, 22.4403 3.86322, 23.113 3.86265, 23.2012 3.87525, 23.2956 3.88154, 23.3958 3.88097, 23.9746 3.88154, 24.5849 3.86036, 25.2262 3.81685 L 25.2262 4.57714 Z" stroke="none" fill="#000000" />
			<rect />
		</svg>
	</g>
	<ellipse cx="1190.7184810638428" cy="526.70163536071777" rx="8.3999996185302734" ry="8.3999996185302734" stroke="none" fill="#000000" transform="matrix(0.3125 0 0 0.3125 -233.945 -80.8977)" />
	<path d="M -81.6696 0 L -49.0017 0" fill="none" stroke="#000000" stroke-width="3.20000005" stroke-linecap="round" stroke-linejoin="round" transform="matrix(0.3125 0 -0 0.3125 202.789 39.4531)" />
	<path d="M 49.0017 0 L 81.6696 0" fill="none" stroke="#000000" stroke-width="3.20000005" stroke-linecap="round" stroke-linejoin="round" transform="matrix(0.3125 0 -0 0.3125 202.789 39.4531)" />
	<rect x="-49.0017357" y="-14.5754795" width="98.0034714" height="29.150959" stroke="none" fill="#FFFFFF" transform="matrix(0.3125 0 -0 0.3125 202.789 39.4531)" />
	<path d="M -49.0017 -14.5755 L 49.0017 -14.5755, 49.0017 14.5755, -49.0017 14.5755 Z" fill="none" stroke="#000000" stroke-width="4.80000019" stroke-linecap="round" stroke-linejoin="round" transform="matrix(0.3125 0 -0 0.3125 202.789 39.4531)" />
	<path d="M 0 70.7897 L 0 -70.7896" fill="none" stroke="#000000" stroke-width="4.26666689" stroke-linecap="round" stroke-linejoin="round" transform="matrix(0.3125 0 0 0.3125 262.91 61.5748)" />
	<ellipse cx="1589.9360103607178" cy="525.37521934509277" rx="8.3999996185302734" ry="8.3999996185302734" stroke="none" fill="#000000" transform="matrix(0.3125 0 0 0.3125 -233.945 -80.8977)" />
	<ellipse cx="1190.7184810638428" cy="953.92734336853027" rx="8.3999996185302734" ry="8.3999996185302734" stroke="none" fill="#000000" transform="matrix(0.3125 0 0 0.3125 -233.945 -80.8977)" />
	<g transform="matrix(1 0 -0 1 273.701 111.1)">
		<svg width="29.9820557" height="45.2233963">
			<defs />
			<path d="M 8.72362 4.3115 C 8.7053 4.39165, 8.66294 4.45864, 8.59652 4.5136, 8.53011 4.56856, 8.44996 4.59604, 8.3555 4.59547, 8.06008 4.59604, 7.77097 4.60234, 7.48757 4.61436, 7.20475 4.62695, 7.00037 4.66016, 6.87442 4.71455, 6.74274 4.75806, 6.64484 4.91664, 6.58186 5.19088 L 3.93057 15.5144 C 3.90538 15.6312, 3.89278 15.7319, 3.89278 15.8167, 3.89278 15.9025, 3.90881 15.9546, 3.9403 15.9724, 4.02847 16.0279, 4.21053 16.06, 4.48762 16.0691, 4.76472 16.0783, 5.0567 16.0829, 5.36471 16.0823, 5.54104 16.0829, 5.62921 16.1562, 5.62921 16.3021, 5.62921 16.3394, 5.62291 16.3789, 5.61031 16.4212 L 5.57253 16.5678 C 5.50325 16.751, 5.3836 16.8426, 5.21356 16.8426, 4.40232 16.806, 3.58134 16.7876, 2.7512 16.7876, 1.92736 16.7876, 1.09092 16.806, 0.241318 16.8426, 0.0787248 16.8426, -0.0031441 16.7636, -0.0037166 16.6044 L -0.0037166 16.5311, 0.034069 16.3754 C 0.0850224 16.1745, 0.207539 16.0766, 0.402193 16.0823, 0.710203 16.0829, 1.00619 16.0783, 1.28901 16.0691, 1.57183 16.06, 1.77622 16.0279, 1.90217 15.9724, 2.01553 15.9117, 2.10713 15.7468, 2.17583 15.4777 L 4.84601 5.15423 C 4.8712 5.03859, 4.8838 4.94699, 4.8838 4.87943, 4.8838 4.7884, 4.86834 4.73058, 4.83628 4.70539, 4.73609 4.6573, 4.54774 4.62695, 4.27064 4.61436, 3.99355 4.60234, 3.70729 4.59604, 3.41188 4.59547, 3.23554 4.59604, 3.14738 4.5136, 3.14738 4.34814 L 3.14738 4.28402, 3.18516 4.11914 C 3.25444 3.93651, 3.37409 3.84491, 3.54355 3.84433, 4.36797 3.86952, 5.19524 3.88155, 6.02538 3.88097, 6.86239 3.88155, 7.69253 3.86952, 8.5158 3.84433, 8.60397 3.84491, 8.67954 3.87525, 8.74251 3.93593, 8.7677 3.98517, 8.7803 4.03097, 8.7803 4.07334, 8.7803 4.11055, 8.77114 4.14433, 8.75167 4.1741 Z" stroke="none" fill="#000000" />
			<rect />
		</svg>
	</g>
</svg>
