<?xml version="1.0"?>
<svg xmlns="http://www.w3.org/2000/svg" xmlns:xlink="http://www.w3.org/1999/xlink" width="386.765594" height="407.074738">
	<defs>
		<marker id="CustomMarker-01" markerUnits="strokeWidth" markerWidth="21" markerHeight="12" viewBox="-21 -6 21 12" orient="auto-start-reverse">
			<path d="M 0 -0 L -14 -4, -11.2 -0.5, -11.2 0.5, -14 4 Z" fill="#000000" stroke="#000000" stroke-linejoin="round" />
		</marker>
		<marker id="CustomMarker-02" markerUnits="strokeWidth" markerWidth="21" markerHeight="12" viewBox="-21 -6 21 12" orient="auto-start-reverse">
			<path d="M 0 -0 L -14 -4, -11.2 -0.5, -11.2 0.5, -14 4 Z" fill="#000000" stroke="#000000" stroke-linejoin="round" />
		</marker>
		<marker id="CustomMarker-03" markerUnits="strokeWidth" markerWidth="21" markerHeight="12" viewBox="-21 -6 21 12" orient="auto-start-reverse">
			<path d="M 0 -0 L -14 -4, -11.2 -0.5, -11.2 0.5, -14 4 Z" fill="#000000" stroke="#000000" stroke-linejoin="round" />
		</marker>
		<marker id="CustomMarker-04" markerUnits="strokeWidth" markerWidth="15.000001" markerHeight="9" viewBox="-15 -4.5 15 9" orient="auto-start-reverse">
			<path d="M 0 -0 L -10 -3, -8 -0.5, -8 0.5, -10 3 Z" fill="#000000" stroke="#000000" stroke-linejoin="round" />
		</marker>
		<marker id="CustomMarker-05" markerUnits="strokeWidth" markerWidth="15.000001" markerHeight="9" viewBox="-15 -4.5 15 9" orient="auto-start-reverse">
			<path d="M 0 -0 L -10 -3, -8 -0.5, -8 0.5, -10 3 Z" fill="#000000" stroke="#000000" stroke-linejoin="round" />
		</marker>
		<marker id="CustomMarker-06" markerUnits="strokeWidth" markerWidth="15.000001" markerHeight="9" viewBox="-15 -4.5 15 9" orient="auto-start-reverse">
			<path d="M 0 -0 L -10 -3, -8 -0.5, -8 0.5, -10 3 Z" fill="#000000" stroke="#000000" stroke-linejoin="round" />
		</marker>
		<marker id="CustomMarker-07" markerUnits="strokeWidth" markerWidth="15.000001" markerHeight="9" viewBox="-15 -4.5 15 9" orient="auto-start-reverse">
			<path d="M 0 -0 L -10 -3, -8 -0.5, -8 0.5, -10 3 Z" fill="#000000" stroke="#000000" stroke-linejoin="round" />
		</marker>
		<marker id="CustomMarker-08" markerUnits="strokeWidth" markerWidth="15.000001" markerHeight="9" viewBox="-15 -4.5 15 9" orient="auto-start-reverse">
			<path d="M 0 -0 L -10 -3, -8 -0.5, -8 0.5, -10 3 Z" fill="#000000" stroke="#000000" stroke-linejoin="round" />
		</marker>
		<marker id="CustomMarker-09" markerUnits="strokeWidth" markerWidth="15.000001" markerHeight="9" viewBox="-15 -4.5 15 9" orient="auto-start-reverse">
			<path d="M 0 -0 L -10 -3, -8 -0.5, -8 0.5, -10 3 Z" fill="#000000" stroke="#000000" stroke-linejoin="round" />
		</marker>
		<marker id="CustomMarker-10" markerUnits="strokeWidth" markerWidth="15.000001" markerHeight="9" viewBox="-15 -4.5 15 9" orient="auto-start-reverse">
			<path d="M 0 -0 L -10 -3, -8 -0.5, -8 0.5, -10 3 Z" fill="#000000" stroke="#000000" stroke-linejoin="round" />
		</marker>
	</defs>
	<g transform="matrix(1 0 -0 1 319.872 230.399)">
		<svg width="44.9082985" height="54.1276474">
			<defs />
			<path d="M 8.38011 12.6747 C 8.22954 13.2615, 7.99825 13.8295, 7.68681 14.3791, 7.37536 14.9287, 6.96201 15.4205, 6.44618 15.8533, 5.97443 16.2752, 5.45287 16.5821, 4.88036 16.7739, 4.30785 16.9663, 3.73534 17.0624, 3.16283 17.0624, 2.59719 17.0624, 2.07507 16.9577, 1.59702 16.747, 1.11897 16.5363, 0.744553 16.2083, 0.473756 15.7617, 0.172043 15.2859, 0.0146033 14.7575, 0.00200808 14.177 L 0.00200808 14.0487 C 0.00200808 13.5364, 0.0684192 13.0234, 0.200096 12.5098 L 2.18155 4.84279 C 2.18155 4.76378, 2.07507 4.77638, 1.86095 4.87943, 2.00579 4.91035, 1.84205 4.9258, 1.37031 4.92523, 1.22603 4.9258, 1.10294 4.88, 1.00218 4.7884, 0.901421 4.6968, 0.85104 4.57486, 0.85104 4.42142, 0.85104 4.34242, 0.863635 4.29089, 0.888826 4.2657 L 0.926611 4.10998 C 0.983862 3.84777, 1.14417 3.71666, 1.40809 3.71609 L 3.097 3.62449 C 3.29165 3.61304, 3.48516 3.60102, 3.67695 3.58842, 3.86931 3.5764, 4.05938 3.5701, 4.24774 3.56953, 4.39259 3.5701, 4.5151 3.61304, 4.61586 3.69834, 4.71663 3.78422, 4.76701 3.90273, 4.76701 4.05502 L 4.76701 4.16494, 4.5214 5.07179 C 4.35194 5.70155, 4.18992 6.32616, 4.03591 6.94562, 3.88191 7.56565, 3.75767 8.06487, 3.66264 8.44273, 4.04679 8.21144, 4.58151 8.09236, 5.26681 8.08549, 5.83302 8.08606, 6.36431 8.19312, 6.86125 8.40666, 7.35819 8.62078, 7.7578 8.94998, 8.05951 9.39539, 8.36179 9.86027, 8.52496 10.3853, 8.55015 10.9709 L 8.55015 11.1999 C 8.55015 11.7015, 8.49347 12.1927, 8.38011 12.6747 Z M 6.11584 9.82592 C 6.05973 9.61294, 5.95439 9.43718, 5.79981 9.29978, 5.64581 9.16238, 5.45574 9.09367, 5.22902 9.0931, 4.92101 9.09367, 4.60384 9.17783, 4.27637 9.34558, 3.94946 9.5139, 3.66321 9.73202, 3.4176 9.99996, 3.37409 10.0618, 3.33001 10.115, 3.28592 10.1608, 3.24184 10.2066, 3.21035 10.2479, 3.19089 10.2839 L 2.54968 12.7114 C 2.41113 13.2312, 2.30407 13.7167, 2.2285 14.1678, 2.19129 14.3636, 2.17239 14.544, 2.17239 14.7083, 2.17239 14.9287, 2.20388 15.1302, 2.26628 15.3128, 2.33613 15.5453, 2.44949 15.7291, 2.60635 15.863, 2.7638 15.9976, 2.96818 16.0646, 3.21951 16.064, 3.47142 16.0646, 3.73248 15.9855, 4.00271 15.8264, 4.27293 15.6678, 4.50594 15.4537, 4.7006 15.1846, 4.9525 14.8554, 5.1586 14.4478, 5.31891 13.9623, 5.47921 13.4768, 5.62234 12.9804, 5.74772 12.4732, 5.88626 11.9608, 5.99962 11.4633, 6.08779 10.9801, 6.13817 10.7242, 6.16336 10.4952, 6.16336 10.2931, 6.16336 10.1167, 6.1479 9.96103, 6.11584 9.82592 Z" stroke="none" fill="#000000" />
			<path d="M 2.37714 3.19713 C 1.7292 3.17661, 1.09857 3.16635, 0.485571 3.16635, -0.127106 3.16635, -0.757737 3.17661, -1.406 3.19713 L -1.406 2.75598, -1.04115 2.75598 C -0.925093 2.7563, -0.815766 2.75469, -0.713814 2.75117, -0.611541 2.74796, -0.514718 2.7393, -0.423025 2.72552, -0.331331 2.71205, -0.252142 2.69827, -0.185456 2.68416, -0.12903 2.67422, -0.082221 2.6428, -0.0453515 2.58958, -0.00816131 2.53668, 0.0101132 2.47769, 0.0101132 2.41229 L 0.0101132 -3.36887 C -0.165899 -3.28295, -0.382628 -3.21787, -0.639754 -3.17362, -0.89688 -3.12906, -1.17869 -3.10694, -1.48519 -3.10726 L -1.48519 -3.54328 C -1.06231 -3.54296, -0.672135 -3.59329, -0.31466 -3.69429, 0.042815 -3.79496, 0.351879 -3.98411, 0.612531 -4.26144 L 0.77636 -4.26144 C 0.89242 -4.26112, 0.950449 -4.20469, 0.950449 -4.09216 L 0.950449 2.41229 C 0.950449 2.4809, 0.968082 2.54085, 1.00335 2.59215, 1.03862 2.64344, 1.08991 2.67422, 1.1566 2.68416, 1.21302 2.69827, 1.28548 2.71205, 1.37333 2.72552, 1.46149 2.7393, 1.56088 2.74796, 1.67181 2.75117, 1.78274 2.75469, 1.89111 2.7563, 1.99658 2.75598 L 2.37714 2.75598, 2.37714 3.19713 Z" stroke="none" fill="#000000" transform="matrix(1.12 0 0 1 11.0112 16.3063)" />
			<rect />
		</svg>
	</g>
	<path d="M -94.0364 97.4628 L -94.0364 -349.267" fill="none" stroke="#000000" stroke-width="1.67999995" stroke-linecap="round" stroke-linejoin="round" marker-end="url(#CustomMarker-01)" transform="matrix(0.555556 0 -0 0.555556 183.266 203.537)" />
	<path d="M -94.0364 97.4628 L -319.978 332.767" fill="none" stroke="#000000" stroke-width="1.67999995" stroke-linecap="round" stroke-linejoin="round" marker-end="url(#CustomMarker-02)" transform="matrix(0.555556 0 -0 0.555556 183.266 203.537)" />
	<path d="M -94.0364 97.4628 L 356.4 97.4628" fill="none" stroke="#000000" stroke-width="1.67999995" stroke-linecap="round" stroke-linejoin="round" marker-end="url(#CustomMarker-03)" transform="matrix(0.555556 0 -0 0.555556 183.266 203.537)" />
	<path d="M -87.1084 131.727 L 87.1106 -131.727" fill="none" stroke="#000000" stroke-width="2.87999988" stroke-linecap="round" stroke-linejoin="round" marker-end="url(#CustomMarker-04)" transform="matrix(0.555556 0 0 0.555556 179.417 184.502)" />
	<path d="M 0 176.294 L 0 -176.294" fill="none" stroke="#000000" stroke-width="2.87999988" stroke-linecap="round" stroke-linejoin="round" marker-end="url(#CustomMarker-05)" transform="matrix(0.555556 0 0 0.555556 226.151 209.261)" />
	<path d="M 127.501 0 L -127.501 0" fill="none" stroke="#000000" stroke-width="2.4000001" stroke-linecap="round" stroke-linejoin="round" stroke-dasharray="8.412, 5.988" transform="matrix(0.555556 0 0 0.555556 155.318 307.202)" />
	<path d="M 41.6602 -43.4515 L -41.6624 43.4531" fill="none" stroke="#000000" stroke-width="2.4000001" stroke-linecap="round" stroke-linejoin="round" stroke-dasharray="8.412, 5.988" transform="matrix(0.555556 0 0 0.555556 250.541 281.823)" />
	<path d="M -85.667 -44.5666 L 85.6648 44.566" fill="none" stroke="#000000" stroke-width="2.87999988" stroke-linecap="round" stroke-linejoin="round" marker-end="url(#CustomMarker-06)" transform="matrix(0.555556 0 0 0.555556 178.616 282.443)" />
	<path d="M -167.01 0 L 167.012 0" fill="none" stroke="#000000" stroke-width="2.87999988" stroke-linecap="round" stroke-linejoin="round" marker-end="url(#CustomMarker-07)" transform="matrix(0.555556 0 0 0.555556 223.806 257.684)" />
	<path d="M 70.24 -73.2585 L -70.2379 73.258" fill="none" stroke="#000000" stroke-width="2.87999988" stroke-linecap="round" stroke-linejoin="round" marker-end="url(#CustomMarker-08)" transform="matrix(0.555556 0 0 0.555556 92.001 298.383)" />
	<path d="M 41.6602 -43.452 L -41.6624 43.4531" fill="none" stroke="#000000" stroke-width="2.4000001" stroke-linecap="round" stroke-linejoin="round" stroke-dasharray="8.412, 5.988" transform="matrix(0.555556 0 0 0.555556 250.541 89.7777)" />
	<path d="M 0 -172.841 L 0 172.842" fill="none" stroke="#000000" stroke-width="2.4000001" stroke-linecap="round" stroke-linejoin="round" stroke-dasharray="8.412, 5.988" transform="matrix(0.555556 0 0 0.555556 273.686 161.66)" />
	<path d="M 127.501 0 L -127.501 0" fill="none" stroke="#000000" stroke-width="2.4000001" stroke-linecap="round" stroke-linejoin="round" stroke-dasharray="8.412, 5.988" transform="matrix(0.555556 0 0 0.555556 155.318 113.918)" />
	<path d="M 0 -172.841 L 0 172.841" fill="none" stroke="#000000" stroke-width="2.4000001" stroke-linecap="round" stroke-linejoin="round" stroke-dasharray="8.412, 5.988" transform="matrix(0.555556 0 0 0.555556 84.4839 209.261)" />
	<path d="M 127.501 0 L -127.501 0" fill="none" stroke="#000000" stroke-width="2.4000001" stroke-linecap="round" stroke-linejoin="round" stroke-dasharray="8.412, 5.988" transform="matrix(0.555556 0 0 0.555556 200.68 65.6377)" />
	<path d="M 41.6613 -43.452 L -41.6612 43.4531" fill="none" stroke="#000000" stroke-width="2.4000001" stroke-linecap="round" stroke-linejoin="round" stroke-dasharray="8.412, 5.988" transform="matrix(0.555556 0 0 0.555556 107.069 89.7777)" />
	<g transform="matrix(1 0 -0 1 59.9686 337.92)">
		<svg width="48.065773" height="54.1276474">
			<defs />
			<path d="M 8.38011 12.6747 C 8.22954 13.2615, 7.99825 13.8295, 7.68681 14.3791, 7.37536 14.9287, 6.96201 15.4205, 6.44618 15.8533, 5.97443 16.2752, 5.45287 16.5821, 4.88036 16.7739, 4.30785 16.9663, 3.73534 17.0624, 3.16283 17.0624, 2.59719 17.0624, 2.07507 16.9577, 1.59702 16.747, 1.11897 16.5363, 0.744553 16.2083, 0.473756 15.7617, 0.172043 15.2859, 0.0146033 14.7575, 0.00200808 14.177 L 0.00200808 14.0487 C 0.00200808 13.5364, 0.0684192 13.0234, 0.200096 12.5098 L 2.18155 4.84279 C 2.18155 4.76378, 2.07507 4.77638, 1.86095 4.87943, 2.00579 4.91035, 1.84205 4.9258, 1.37031 4.92523, 1.22603 4.9258, 1.10294 4.88, 1.00218 4.7884, 0.901421 4.6968, 0.85104 4.57486, 0.85104 4.42142, 0.85104 4.34242, 0.863635 4.29089, 0.888826 4.2657 L 0.926611 4.10998 C 0.983862 3.84777, 1.14417 3.71666, 1.40809 3.71609 L 3.097 3.62449 C 3.29165 3.61304, 3.48516 3.60102, 3.67695 3.58842, 3.86931 3.5764, 4.05938 3.5701, 4.24774 3.56953, 4.39259 3.5701, 4.5151 3.61304, 4.61586 3.69834, 4.71663 3.78422, 4.76701 3.90273, 4.76701 4.05502 L 4.76701 4.16494, 4.5214 5.07179 C 4.35194 5.70155, 4.18992 6.32616, 4.03591 6.94562, 3.88191 7.56565, 3.75767 8.06487, 3.66264 8.44273, 4.04679 8.21144, 4.58151 8.09236, 5.26681 8.08549, 5.83302 8.08606, 6.36431 8.19312, 6.86125 8.40666, 7.35819 8.62078, 7.7578 8.94998, 8.05951 9.39539, 8.36179 9.86027, 8.52496 10.3853, 8.55015 10.9709 L 8.55015 11.1999 C 8.55015 11.7015, 8.49347 12.1927, 8.38011 12.6747 Z M 6.11584 9.82592 C 6.05973 9.61294, 5.95439 9.43718, 5.79981 9.29978, 5.64581 9.16238, 5.45574 9.09367, 5.22902 9.0931, 4.92101 9.09367, 4.60384 9.17783, 4.27637 9.34558, 3.94946 9.5139, 3.66321 9.73202, 3.4176 9.99996, 3.37409 10.0618, 3.33001 10.115, 3.28592 10.1608, 3.24184 10.2066, 3.21035 10.2479, 3.19089 10.2839 L 2.54968 12.7114 C 2.41113 13.2312, 2.30407 13.7167, 2.2285 14.1678, 2.19129 14.3636, 2.17239 14.544, 2.17239 14.7083, 2.17239 14.9287, 2.20388 15.1302, 2.26628 15.3128, 2.33613 15.5453, 2.44949 15.7291, 2.60635 15.863, 2.7638 15.9976, 2.96818 16.0646, 3.21951 16.064, 3.47142 16.0646, 3.73248 15.9855, 4.00271 15.8264, 4.27293 15.6678, 4.50594 15.4537, 4.7006 15.1846, 4.9525 14.8554, 5.1586 14.4478, 5.31891 13.9623, 5.47921 13.4768, 5.62234 12.9804, 5.74772 12.4732, 5.88626 11.9608, 5.99962 11.4633, 6.08779 10.9801, 6.13817 10.7242, 6.16336 10.4952, 6.16336 10.2931, 6.16336 10.1167, 6.1479 9.96103, 6.11584 9.82592 Z" stroke="none" fill="#000000" />
			<path d="M 2.39138 3.19713 L -1.90858 3.19713, -1.90858 2.915 C -1.90858 2.8948, -1.898 2.86402, -1.87684 2.82266 L -0.149418 0.945196 C 0.0551279 0.71981, 0.261918 0.488975, 0.471594 0.253009, 0.68127 0.0170434, 0.868504 -0.224052, 1.03394 -0.470277, 1.19937 -0.716502, 1.33146 -0.970422, 1.4302 -1.23204, 1.52895 -1.49365, 1.578 -1.76809, 1.578 -2.05567, 1.578 -2.29805, 1.54658 -2.52472, 1.4831 -2.73503, 1.41962 -2.94535, 1.32825 -3.13002, 1.20835 -3.28904, 1.08844 -3.44806, 0.938716 -3.5763, 0.759177 -3.67377, 0.579638 -3.77123, 0.371886 -3.81996, 0.13592 -3.82028, -0.216105 -3.81996, -0.527092 -3.7148, -0.7964 -3.50449, -1.06571 -3.29417, -1.24461 -3.06237, -1.33277 -2.80974, -1.35009 -2.80268, -1.32187 -2.79915, -1.24813 -2.79948 L -1.15836 -2.79948 C -1.05256 -2.77511, -0.961191 -2.73824, -0.883605 -2.68887, -0.806018 -2.63917, -0.740935 -2.57088, -0.688036 -2.48368, -0.635136 -2.39647, -0.608846 -2.29132, -0.608846 -2.16852, -0.608846 -1.96302, -0.675532 -1.8056, -0.809545 -1.69627, -0.943558 -1.58663, -1.09328 -1.53212, -1.25871 -1.53244, -1.41709 -1.53212, -1.56489 -1.58663, -1.70243 -1.69627, -1.83965 -1.8056, -1.90858 -1.96302, -1.90858 -2.16852, -1.90858 -2.45547, -1.85215 -2.72734, -1.7393 -2.98382, -1.62645 -3.24031, -1.47352 -3.46249, -1.27987 -3.65068, -1.08623 -3.83856, -0.857315 -3.98732, -0.593136 -4.09697, -0.328958 -4.20629, -0.0487483 -4.26112, 0.24685 -4.26144, 0.612981 -4.26112, 0.948655 -4.20725, 1.25323 -4.09953, 1.55781 -3.99181, 1.8175 -3.83695, 2.0323 -3.63529, 2.24711 -3.43331, 2.41543 -3.19991, 2.53693 -2.93509, 2.65844 -2.66995, 2.71904 -2.37692, 2.71904 -2.05567, 2.71904 -1.6998, 2.63825 -1.37214, 2.47602 -1.07302, 2.31411 -0.77357, 2.11342 -0.499131, 1.87392 -0.2497, 1.63443 5.126e-005, 1.37987 0.235055, 1.11056 0.455632, 0.841252 0.676208, 0.597272 0.890693, 0.378939 1.09909 L -0.836155 2.24301, 0.754048 2.24301 C 0.975907 2.24333, 1.18302 2.24172, 1.37474 2.2382, 1.56678 2.23499, 1.72965 2.22794, 1.86334 2.21768, 1.99736 2.20742, 2.06597 2.20069, 2.06917 2.19684, 2.09738 2.17312, 2.12399 2.12534, 2.14868 2.05353, 2.17337 1.98171, 2.19613 1.89707, 2.21729 1.79961, 2.23845 1.70215, 2.25961 1.60308, 2.28077 1.50209, 2.30193 1.40142, 2.32117 1.29081, 2.3388 1.1709 L 2.72962 1.1709 Z" stroke="none" fill="#000000" transform="matrix(1.12 0 0 1 11.434 16.3063)" />
			<rect />
		</svg>
	</g>
	<path d="M -128.247 0 L 128.247 0" fill="none" stroke="#000000" stroke-width="2.87999988" stroke-linecap="round" stroke-linejoin="round" marker-end="url(#CustomMarker-09)" transform="matrix(0.555556 0 0 0.555556 202.437 257.51)" />
	<path d="M 42.3896 -44.2123 L -42.3896 44.2126" fill="none" stroke="#000000" stroke-width="2.87999988" stroke-linecap="round" stroke-linejoin="round" marker-end="url(#CustomMarker-10)" transform="matrix(0.555556 0 0 0.555556 107.473 282.246)" />
	<g transform="matrix(1 0 -0 1 233.856 122.813)">
		<svg width="48.065773" height="54.1276474">
			<defs />
			<path d="M 8.38011 12.6747 C 8.22954 13.2615, 7.99825 13.8295, 7.68681 14.3791, 7.37536 14.9287, 6.96201 15.4205, 6.44618 15.8533, 5.97443 16.2752, 5.45287 16.5821, 4.88036 16.7739, 4.30785 16.9663, 3.73534 17.0624, 3.16283 17.0624, 2.59719 17.0624, 2.07507 16.9577, 1.59702 16.747, 1.11897 16.5363, 0.744553 16.2083, 0.473756 15.7617, 0.172043 15.2859, 0.0146033 14.7575, 0.00200808 14.177 L 0.00200808 14.0487 C 0.00200808 13.5364, 0.0684192 13.0234, 0.200096 12.5098 L 2.18155 4.84279 C 2.18155 4.76378, 2.07507 4.77638, 1.86095 4.87943, 2.00579 4.91035, 1.84205 4.9258, 1.37031 4.92523, 1.22603 4.9258, 1.10294 4.88, 1.00218 4.7884, 0.901421 4.6968, 0.85104 4.57486, 0.85104 4.42142, 0.85104 4.34242, 0.863635 4.29089, 0.888826 4.2657 L 0.926611 4.10998 C 0.983862 3.84777, 1.14417 3.71666, 1.40809 3.71609 L 3.097 3.62449 C 3.29165 3.61304, 3.48516 3.60102, 3.67695 3.58842, 3.86931 3.5764, 4.05938 3.5701, 4.24774 3.56953, 4.39259 3.5701, 4.5151 3.61304, 4.61586 3.69834, 4.71663 3.78422, 4.76701 3.90273, 4.76701 4.05502 L 4.76701 4.16494, 4.5214 5.07179 C 4.35194 5.70155, 4.18992 6.32616, 4.03591 6.94562, 3.88191 7.56565, 3.75767 8.06487, 3.66264 8.44273, 4.04679 8.21144, 4.58151 8.09236, 5.26681 8.08549, 5.83302 8.08606, 6.36431 8.19312, 6.86125 8.40666, 7.35819 8.62078, 7.7578 8.94998, 8.05951 9.39539, 8.36179 9.86027, 8.52496 10.3853, 8.55015 10.9709 L 8.55015 11.1999 C 8.55015 11.7015, 8.49347 12.1927, 8.38011 12.6747 Z M 6.11584 9.82592 C 6.05973 9.61294, 5.95439 9.43718, 5.79981 9.29978, 5.64581 9.16238, 5.45574 9.09367, 5.22902 9.0931, 4.92101 9.09367, 4.60384 9.17783, 4.27637 9.34558, 3.94946 9.5139, 3.66321 9.73202, 3.4176 9.99996, 3.37409 10.0618, 3.33001 10.115, 3.28592 10.1608, 3.24184 10.2066, 3.21035 10.2479, 3.19089 10.2839 L 2.54968 12.7114 C 2.41113 13.2312, 2.30407 13.7167, 2.2285 14.1678, 2.19129 14.3636, 2.17239 14.544, 2.17239 14.7083, 2.17239 14.9287, 2.20388 15.1302, 2.26628 15.3128, 2.33613 15.5453, 2.44949 15.7291, 2.60635 15.863, 2.7638 15.9976, 2.96818 16.0646, 3.21951 16.064, 3.47142 16.0646, 3.73248 15.9855, 4.00271 15.8264, 4.27293 15.6678, 4.50594 15.4537, 4.7006 15.1846, 4.9525 14.8554, 5.1586 14.4478, 5.31891 13.9623, 5.47921 13.4768, 5.62234 12.9804, 5.74772 12.4732, 5.88626 11.9608, 5.99962 11.4633, 6.08779 10.9801, 6.13817 10.7242, 6.16336 10.4952, 6.16336 10.2931, 6.16336 10.1167, 6.1479 9.96103, 6.11584 9.82592 Z" stroke="none" fill="#000000" />
			<path d="M 2.81931 1.26324 C 2.81931 1.55755, 2.75423 1.84001, 2.62406 2.10996, 2.4939 2.38023, 2.31949 2.61106, 2.10083 2.80214, 1.85461 3.01791, 1.58242 3.17757, 1.28489 3.28177, 0.987372 3.38629, 0.676384 3.43822, 0.352252 3.43822, 0.0601807 3.43822, -0.224838 3.39719, -0.503123 3.31511, -0.781409 3.23304, -1.03212 3.11537, -1.2559 2.96148, -1.47969 2.80759, -1.65826 2.61876, -1.79228 2.39465, -1.92597 2.17087, -1.99298 1.91342, -1.99298 1.62232, -1.99298 1.40366, -1.91988 1.24047, -1.77368 1.13275, -1.62749 1.02503, -1.4736 0.971165, -1.31169 0.970845, -1.14241 0.971165, -0.984993 1.02503, -0.838797 1.13275, -0.692601 1.24047, -0.619503 1.40366, -0.619503 1.62232, -0.619503 1.75248, -0.644831 1.86117, -0.696128 1.94837, -0.747104 2.03558, -0.812187 2.10835, -0.891697 2.16638, -0.970886 2.22473, -1.06162 2.26032, -1.16357 2.27379, -1.21615 2.28789, -1.26552 2.29462, -1.31169 2.2943, -1.35722 2.29462, -1.36427 2.29815, -1.33285 2.30456, -1.22352 2.49629, -1.00872 2.66589, -0.688112 2.81272, -0.367507 2.95988, -0.0209324 3.0333, 0.352252 3.03298, 0.528585 3.0333, 0.693056 2.9897, 0.846305 2.90249, 0.999555 2.81529, 1.12748 2.69827, 1.22943 2.55079, 1.35639 2.35971, 1.44263 2.15452, 1.48816 1.93555, 1.534 1.71689, 1.55677 1.49279, 1.55677 1.26324, 1.55677 1.02759, 1.534 0.801244, 1.48816 0.583874, 1.44263 0.366824, 1.35639 0.165804, 1.22943 -0.0191851, 1.12363 -0.169228, 0.995066 -0.290738, 0.84374 -0.383072, 0.692415 -0.475407, 0.528585 -0.521574, 0.352252 -0.521894 L -0.413674 -0.521894 C -0.515627 -0.521574, -0.57013 -0.569344, -0.577183 -0.665526 L -0.577183 -0.721952 C -0.577183 -0.762669, -0.564679 -0.79505, -0.540313 -0.819416, -0.508573 -0.849874, -0.468177 -0.865263, -0.418804 -0.865584, -0.316531 -0.879049, -0.211051 -0.885782, -0.102046 -0.886102, 0.00375414 -0.885782, 0.107951 -0.892514, 0.209903 -0.906621, 0.400023 -0.920087, 0.565455 -0.978757, 0.706201 -1.08327, 0.847267 -1.18747, 0.96525 -1.32084, 1.06015 -1.48339, 1.15537 -1.64562, 1.22751 -1.83285, 1.27688 -2.04509, 1.32625 -2.25701, 1.35094 -2.47438, 1.35094 -2.69688, 1.35094 -2.86071, 1.33331 -3.01621, 1.29804 -3.16336, 1.26277 -3.3102, 1.19769 -3.43876, 1.10247 -3.54841, 0.905297 -3.7738, 0.655225 -3.88505, 0.352252 -3.88184, 0.0284407 -3.88152, -0.268119 -3.8206, -0.537428 -3.69942, -0.806736 -3.57791, -0.987558 -3.4471, -1.07925 -3.30731, -1.10362 -3.30347, -1.09143 -3.30186, -1.04206 -3.30219, -0.915101 -3.30186, -0.795515 -3.26435, -0.682983 -3.18933, -0.513703 -3.08994, -0.429384 -2.92227, -0.429384 -2.68662, -0.429384 -2.48785, -0.493505 -2.33812, -0.622068 -2.23745, -0.75063 -2.13646, -0.894262 -2.08613, -1.05264 -2.08645, -1.20749 -2.08613, -1.35273 -2.1355, -1.48834 -2.23489, -1.62396 -2.33396, -1.69193 -2.48464, -1.69193 -2.68662, -1.69193 -2.93605, -1.63197 -3.15631, -1.51239 -3.34803, -1.39248 -3.53943, -1.23859 -3.70358, -1.05008 -3.84048, -0.86156 -3.97706, -0.644189 -4.08158, -0.397644 -4.15339, -0.151098 -4.22521, 0.098974 -4.26112, 0.352252 -4.26144, 0.623485 -4.26112, 0.88606 -4.22521, 1.13966 -4.15339, 1.39326 -4.08158, 1.63275 -3.97033, 1.85782 -3.82028, 2.0412 -3.69012, 2.19509 -3.53014, 2.32013 -3.34034, 2.44516 -3.15054, 2.50768 -2.93605, 2.50768 -2.69688, 2.50768 -2.45707, 2.46472 -2.23136, 2.37848 -2.01944, 2.29224 -1.8072, 2.17778 -1.6158, 2.03511 -1.44492, 1.89244 -1.27371, 1.72252 -1.12335, 1.52535 -0.993505, 1.32818 -0.863339, 1.18006 -0.781585, 1.08131 -0.747601, 1.16595 -0.737021, 1.31054 -0.686365, 1.51477 -0.595954, 1.71899 -0.505223, 1.91424 -0.384675, 2.10083 -0.234632, 2.31949 -0.0461159, 2.4939 0.178629, 2.62406 0.440243, 2.75423 0.701857, 2.81931 0.976295, 2.81931 1.26324 Z" stroke="none" fill="#000000" transform="matrix(1.12 0 0 1 11.5184 16.3063)" />
			<rect />
		</svg>
	</g>
	<g transform="matrix(1 0 -0 1 182.532 117.813)">
		<svg width="54.0936813" height="38.9042473">
			<defs />
			<path d="M 10.351 14.0487 C 10.2697 14.3791, 10.1626 14.718, 10.0304 15.0661, 9.8987 15.4142, 9.73496 15.7365, 9.53973 16.0325, 9.34508 16.3291, 9.10749 16.5747, 8.82753 16.7693, 8.54815 16.9651, 8.21323 17.0624, 7.82278 17.0624, 7.35733 17.0624, 6.92794 16.9726, 6.53463 16.7922, 6.14189 16.6124, 5.87911 16.4155, 5.74686 16.2014, 5.47663 16.4281, 5.11709 16.6279, 4.6671 16.8014, 4.21711 16.9754, 3.76254 17.0624, 3.30338 17.0624, 2.72515 17.0624, 2.18871 16.9605, 1.69463 16.7556, 1.20113 16.5518, 0.809532 16.2231, 0.519842 15.7709, 0.205534 15.2951, 0.0389338 14.7701, 0.0200409 14.1953, 0.00744569 14.1346, 0.0011481 14.0676, 0.0011481 13.9938, 0.0011481 13.4934, 0.0704218 12.9867, 0.208969 12.4732, 0.353814 11.8938, 0.581673 11.3322, 0.893118 10.7883, 1.20456 10.245, 1.60818 9.75321, 2.10512 9.31295, 2.58946 8.89215, 3.11789 8.58242, 3.6904 8.38376, 4.26291 8.18567, 4.82855 8.08606, 5.38846 8.08549, 6.20028 8.08606, 6.8163 8.3059, 7.23767 8.74502, 7.33843 8.64196, 7.51763 8.55036, 7.77526 8.47021, 7.91381 8.42785, 8.05865 8.40666, 8.20979 8.40609, 8.31685 8.40666, 8.41761 8.42212, 8.51151 8.45189, 8.74452 8.50743, 8.93344 8.63853, 9.07772 8.84578, 9.14069 8.97459, 9.17161 9.12745, 9.17161 9.30379, 9.17161 9.41428, 9.15959 9.53966, 9.1344 9.67935 L 7.81304 14.7632 C 7.71915 15.1365, 7.67163 15.4354, 7.67163 15.6609, 7.67163 15.9243, 7.73804 16.0583, 7.86972 16.064, 8.09014 16.0646, 8.28193 15.8665, 8.44567 15.4691, 8.6094 15.0724, 8.7823 14.5348, 8.96436 13.8564, 9.02104 13.6617, 9.16245 13.5575, 9.38916 13.5449 L 9.91702 13.5449 C 10.2193 13.5455, 10.3636 13.6892, 10.351 13.9755 L 10.351 14.0487 Z M 6.61478 10.1007 C 6.60906 10.0709, 6.58043 9.99767, 6.53005 9.88088, 6.44188 9.64958, 6.29418 9.46008, 6.08693 9.31352, 5.87968 9.16696, 5.63407 9.09367, 5.35068 9.0931, 5.08675 9.09367, 4.82111 9.17325, 4.55375 9.33184, 4.28638 9.491, 4.04879 9.70741, 3.84097 9.98164, 3.59594 10.3, 3.39499 10.7059, 3.23755 11.2005, 3.08068 11.6952, 2.9387 12.1869, 2.81274 12.6747, 2.6742 13.2003, 2.56771 13.7041, 2.49214 14.1861, 2.44176 14.4312, 2.41657 14.6539, 2.41657 14.8548, 2.41657 15.0449, 2.4326 15.2064, 2.46351 15.3403, 2.52076 15.5607, 2.62153 15.7365, 2.7658 15.8676, 2.91064 15.9993, 3.10243 16.0646, 3.34117 16.064, 3.64918 16.0646, 3.96406 15.9821, 4.28467 15.8172, 4.60527 15.6523, 4.89496 15.4262, 5.15259 15.1388, 5.21557 15.0781, 5.26938 15.0203, 5.31347 14.9653, 5.35755 14.9104, 5.3919 14.8674, 5.41652 14.8365, 5.41652 14.8005, 5.42911 14.7151, 5.4543 14.58 L 6.61478 10.1007 Z" stroke="none" fill="#000000" />
			<path d="M 2.81866 1.26324 C 2.81866 1.55755, 2.75357 1.84001, 2.62341 2.10996, 2.49324 2.38023, 2.31883 2.61106, 2.10018 2.80214, 1.85363 3.01791, 1.58144 3.17757, 1.28392 3.28177, 0.986397 3.38629, 0.675409 3.43822, 0.351277 3.43822, 0.0588849 3.43822, -0.226133 3.39719, -0.504419 3.31511, -0.782704 3.23304, -1.03342 3.11537, -1.2572 2.96148, -1.48098 2.80759, -1.65956 2.61876, -1.79357 2.39465, -1.92759 2.17087, -1.99459 1.91342, -1.99459 1.62232, -1.99459 1.40366, -1.9215 1.24047, -1.7753 1.13275, -1.6291 1.02503, -1.47489 0.971165, -1.31299 0.970845, -1.14371 0.971165, -0.986289 1.02503, -0.840093 1.13275, -0.693897 1.24047, -0.620799 1.40366, -0.620799 1.62232, -0.620799 1.75248, -0.646127 1.86117, -0.697423 1.94837, -0.7484 2.03558, -0.813483 2.10835, -0.892993 2.16638, -0.972182 2.22473, -1.06291 2.26032, -1.16519 2.27379, -1.21777 2.28789, -1.26714 2.29462, -1.31299 2.2943, -1.35851 2.29462, -1.36557 2.29815, -1.33415 2.30456, -1.22482 2.49629, -1.01001 2.66589, -0.689408 2.81272, -0.368803 2.95988, -0.0219078 3.0333, 0.351277 3.03298, 0.52761 3.0333, 0.692081 2.9897, 0.84533 2.90249, 0.99858 2.81529, 1.1265 2.69827, 1.22845 2.55079, 1.35541 2.35971, 1.44166 2.15452, 1.4875 1.93555, 1.53335 1.71689, 1.55611 1.49279, 1.55611 1.26324, 1.55611 1.02759, 1.53335 0.801244, 1.4875 0.583874, 1.44166 0.366824, 1.35541 0.165804, 1.22845 -0.0191851, 1.12265 -0.169228, 0.994091 -0.290738, 0.842765 -0.383072, 0.691439 -0.475407, 0.52761 -0.521574, 0.351277 -0.521894 L -0.414649 -0.521894 C -0.516602 -0.521574, -0.571425 -0.569344, -0.578479 -0.665526 L -0.578479 -0.721952 C -0.578479 -0.762669, -0.565975 -0.79505, -0.541609 -0.819416, -0.509869 -0.849874, -0.469473 -0.865263, -0.4201 -0.865584, -0.317827 -0.879049, -0.212027 -0.885782, -0.103021 -0.886102, 0.00277901 -0.885782, 0.106655 -0.892514, 0.208608 -0.906621, 0.399047 -0.920087, 0.56448 -0.978757, 0.705546 -1.08327, 0.846612 -1.18747, 0.964595 -1.32084, 1.05949 -1.48339, 1.15439 -1.64562, 1.22653 -1.83285, 1.2759 -2.04509, 1.32528 -2.25701, 1.34996 -2.47438, 1.34996 -2.69688, 1.34996 -2.86071, 1.33233 -3.01621, 1.29706 -3.16336, 1.2618 -3.3102, 1.19671 -3.43876, 1.10149 -3.54841, 0.904321 -3.7738, 0.654249 -3.88505, 0.351277 -3.88184, 0.0274656 -3.88152, -0.269415 -3.8206, -0.538724 -3.69942, -0.808032 -3.57791, -0.988854 -3.4471, -1.08055 -3.30731, -1.10491 -3.30347, -1.09273 -3.30186, -1.04336 -3.30219, -0.916397 -3.30186, -0.796811 -3.26435, -0.684279 -3.18933, -0.514999 -3.08994, -0.43068 -2.92227, -0.43068 -2.68662, -0.43068 -2.48785, -0.494801 -2.33812, -0.623363 -2.23745, -0.751926 -2.13646, -0.895558 -2.08613, -1.05394 -2.08645, -1.20911 -2.08613, -1.35434 -2.1355, -1.48996 -2.23489, -1.62558 -2.33396, -1.69354 -2.48464, -1.69354 -2.68662, -1.69354 -2.93605, -1.63359 -3.15631, -1.51368 -3.34803, -1.39378 -3.53943, -1.23989 -3.70358, -1.05137 -3.84048, -0.862856 -3.97706, -0.645485 -4.08158, -0.39894 -4.15339, -0.152074 -4.22521, 0.0979986 -4.26112, 0.351277 -4.26144, 0.622509 -4.26112, 0.885085 -4.22521, 1.13868 -4.15339, 1.39228 -4.08158, 1.63178 -3.97033, 1.85716 -3.82028, 2.04055 -3.69012, 2.19444 -3.53014, 2.31947 -3.34034, 2.44451 -3.15054, 2.50703 -2.93605, 2.50703 -2.69688, 2.50703 -2.45707, 2.46407 -2.23136, 2.37782 -2.01944, 2.29158 -1.8072, 2.17713 -1.6158, 2.03446 -1.44492, 1.89179 -1.27371, 1.72187 -1.12335, 1.52437 -0.993505, 1.3272 -0.863339, 1.17908 -0.781585, 1.08033 -0.747601, 1.16497 -0.737021, 1.30957 -0.686365, 1.51379 -0.595954, 1.71834 -0.505223, 1.91359 -0.384675, 2.10018 -0.234632, 2.31883 -0.0461159, 2.49324 0.178629, 2.62341 0.440243, 2.75357 0.701857, 2.81866 0.976295, 2.81866 1.26324 Z" stroke="none" fill="#000000" transform="matrix(1.12 0 0 1 13.3326 16.3063)" />
			<rect />
		</svg>
	</g>
	<g transform="matrix(1 0 -0 1 228.097 306.939)">
		<svg width="71.8903503" height="54.1276474">
			<defs />
			<path d="M 10.351 14.0487 C 10.2697 14.3791, 10.1626 14.718, 10.0304 15.0661, 9.8987 15.4142, 9.73496 15.7365, 9.53973 16.0325, 9.34508 16.3291, 9.10749 16.5747, 8.82753 16.7693, 8.54815 16.9651, 8.21323 17.0624, 7.82278 17.0624, 7.35733 17.0624, 6.92794 16.9726, 6.53463 16.7922, 6.14189 16.6124, 5.87911 16.4155, 5.74686 16.2014, 5.47663 16.4281, 5.11709 16.6279, 4.6671 16.8014, 4.21711 16.9754, 3.76254 17.0624, 3.30338 17.0624, 2.72515 17.0624, 2.18871 16.9605, 1.69463 16.7556, 1.20113 16.5518, 0.809532 16.2231, 0.519842 15.7709, 0.205534 15.2951, 0.0389338 14.7701, 0.0200409 14.1953, 0.00744569 14.1346, 0.0011481 14.0676, 0.0011481 13.9938, 0.0011481 13.4934, 0.0704218 12.9867, 0.208969 12.4732, 0.353814 11.8938, 0.581673 11.3322, 0.893118 10.7883, 1.20456 10.245, 1.60818 9.75321, 2.10512 9.31295, 2.58946 8.89215, 3.11789 8.58242, 3.6904 8.38376, 4.26291 8.18567, 4.82855 8.08606, 5.38846 8.08549, 6.20028 8.08606, 6.8163 8.3059, 7.23767 8.74502, 7.33843 8.64196, 7.51763 8.55036, 7.77526 8.47021, 7.91381 8.42785, 8.05865 8.40666, 8.20979 8.40609, 8.31685 8.40666, 8.41761 8.42212, 8.51151 8.45189, 8.74452 8.50743, 8.93344 8.63853, 9.07772 8.84578, 9.14069 8.97459, 9.17161 9.12745, 9.17161 9.30379, 9.17161 9.41428, 9.15959 9.53966, 9.1344 9.67935 L 7.81304 14.7632 C 7.71915 15.1365, 7.67163 15.4354, 7.67163 15.6609, 7.67163 15.9243, 7.73804 16.0583, 7.86972 16.064, 8.09014 16.0646, 8.28193 15.8665, 8.44567 15.4691, 8.6094 15.0724, 8.7823 14.5348, 8.96436 13.8564, 9.02104 13.6617, 9.16245 13.5575, 9.38916 13.5449 L 9.91702 13.5449 C 10.2193 13.5455, 10.3636 13.6892, 10.351 13.9755 L 10.351 14.0487 Z M 6.61478 10.1007 C 6.60906 10.0709, 6.58043 9.99767, 6.53005 9.88088, 6.44188 9.64958, 6.29418 9.46008, 6.08693 9.31352, 5.87968 9.16696, 5.63407 9.09367, 5.35068 9.0931, 5.08675 9.09367, 4.82111 9.17325, 4.55375 9.33184, 4.28638 9.491, 4.04879 9.70741, 3.84097 9.98164, 3.59594 10.3, 3.39499 10.7059, 3.23755 11.2005, 3.08068 11.6952, 2.9387 12.1869, 2.81274 12.6747, 2.6742 13.2003, 2.56771 13.7041, 2.49214 14.1861, 2.44176 14.4312, 2.41657 14.6539, 2.41657 14.8548, 2.41657 15.0449, 2.4326 15.2064, 2.46351 15.3403, 2.52076 15.5607, 2.62153 15.7365, 2.7658 15.8676, 2.91064 15.9993, 3.10243 16.0646, 3.34117 16.064, 3.64918 16.0646, 3.96406 15.9821, 4.28467 15.8172, 4.60527 15.6523, 4.89496 15.4262, 5.15259 15.1388, 5.21557 15.0781, 5.26938 15.0203, 5.31347 14.9653, 5.35755 14.9104, 5.3919 14.8674, 5.41652 14.8365, 5.41652 14.8005, 5.42911 14.7151, 5.4543 14.58 L 6.61478 10.1007 Z" stroke="none" fill="#000000" />
			<path d="M 2.81866 1.26324 C 2.81866 1.55755, 2.75357 1.84001, 2.62341 2.10996, 2.49324 2.38023, 2.31883 2.61106, 2.10018 2.80214, 1.85363 3.01791, 1.58144 3.17757, 1.28392 3.28177, 0.986397 3.38629, 0.675409 3.43822, 0.351277 3.43822, 0.0588849 3.43822, -0.226133 3.39719, -0.504419 3.31511, -0.782704 3.23304, -1.03342 3.11537, -1.2572 2.96148, -1.48098 2.80759, -1.65956 2.61876, -1.79357 2.39465, -1.92759 2.17087, -1.99459 1.91342, -1.99459 1.62232, -1.99459 1.40366, -1.9215 1.24047, -1.7753 1.13275, -1.6291 1.02503, -1.47489 0.971165, -1.31299 0.970845, -1.14371 0.971165, -0.986289 1.02503, -0.840093 1.13275, -0.693897 1.24047, -0.620799 1.40366, -0.620799 1.62232, -0.620799 1.75248, -0.646127 1.86117, -0.697423 1.94837, -0.7484 2.03558, -0.813483 2.10835, -0.892993 2.16638, -0.972182 2.22473, -1.06291 2.26032, -1.16519 2.27379, -1.21777 2.28789, -1.26714 2.29462, -1.31299 2.2943, -1.35851 2.29462, -1.36557 2.29815, -1.33415 2.30456, -1.22482 2.49629, -1.01001 2.66589, -0.689408 2.81272, -0.368803 2.95988, -0.0219078 3.0333, 0.351277 3.03298, 0.52761 3.0333, 0.692081 2.9897, 0.84533 2.90249, 0.99858 2.81529, 1.1265 2.69827, 1.22845 2.55079, 1.35541 2.35971, 1.44166 2.15452, 1.4875 1.93555, 1.53335 1.71689, 1.55611 1.49279, 1.55611 1.26324, 1.55611 1.02759, 1.53335 0.801244, 1.4875 0.583874, 1.44166 0.366824, 1.35541 0.165804, 1.22845 -0.0191851, 1.12265 -0.169228, 0.994091 -0.290738, 0.842765 -0.383072, 0.691439 -0.475407, 0.52761 -0.521574, 0.351277 -0.521894 L -0.414649 -0.521894 C -0.516602 -0.521574, -0.571425 -0.569344, -0.578479 -0.665526 L -0.578479 -0.721952 C -0.578479 -0.762669, -0.565975 -0.79505, -0.541609 -0.819416, -0.509869 -0.849874, -0.469473 -0.865263, -0.4201 -0.865584, -0.317827 -0.879049, -0.212027 -0.885782, -0.103021 -0.886102, 0.00277901 -0.885782, 0.106655 -0.892514, 0.208608 -0.906621, 0.399047 -0.920087, 0.56448 -0.978757, 0.705546 -1.08327, 0.846612 -1.18747, 0.964595 -1.32084, 1.05949 -1.48339, 1.15439 -1.64562, 1.22653 -1.83285, 1.2759 -2.04509, 1.32528 -2.25701, 1.34996 -2.47438, 1.34996 -2.69688, 1.34996 -2.86071, 1.33233 -3.01621, 1.29706 -3.16336, 1.2618 -3.3102, 1.19671 -3.43876, 1.10149 -3.54841, 0.904321 -3.7738, 0.654249 -3.88505, 0.351277 -3.88184, 0.0274656 -3.88152, -0.269415 -3.8206, -0.538724 -3.69942, -0.808032 -3.57791, -0.988854 -3.4471, -1.08055 -3.30731, -1.10491 -3.30347, -1.09273 -3.30186, -1.04336 -3.30219, -0.916397 -3.30186, -0.796811 -3.26435, -0.684279 -3.18933, -0.514999 -3.08994, -0.43068 -2.92227, -0.43068 -2.68662, -0.43068 -2.48785, -0.494801 -2.33812, -0.623363 -2.23745, -0.751926 -2.13646, -0.895558 -2.08613, -1.05394 -2.08645, -1.20911 -2.08613, -1.35434 -2.1355, -1.48996 -2.23489, -1.62558 -2.33396, -1.69354 -2.48464, -1.69354 -2.68662, -1.69354 -2.93605, -1.63359 -3.15631, -1.51368 -3.34803, -1.39378 -3.53943, -1.23989 -3.70358, -1.05137 -3.84048, -0.862856 -3.97706, -0.645485 -4.08158, -0.39894 -4.15339, -0.152074 -4.22521, 0.0979986 -4.26112, 0.351277 -4.26144, 0.622509 -4.26112, 0.885085 -4.22521, 1.13868 -4.15339, 1.39228 -4.08158, 1.63178 -3.97033, 1.85716 -3.82028, 2.04055 -3.69012, 2.19444 -3.53014, 2.31947 -3.34034, 2.44451 -3.15054, 2.50703 -2.93605, 2.50703 -2.69688, 2.50703 -2.45707, 2.46407 -2.23136, 2.37782 -2.01944, 2.29158 -1.8072, 2.17713 -1.6158, 2.03446 -1.44492, 1.89179 -1.27371, 1.72187 -1.12335, 1.52437 -0.993505, 1.3272 -0.863339, 1.17908 -0.781585, 1.08033 -0.747601, 1.16497 -0.737021, 1.30957 -0.686365, 1.51379 -0.595954, 1.71834 -0.505223, 1.91359 -0.384675, 2.10018 -0.234632, 2.31883 -0.0461159, 2.49324 0.178629, 2.62341 0.440243, 2.75357 0.701857, 2.81866 0.976295, 2.81866 1.26324 Z" stroke="none" fill="#000000" transform="matrix(1.12 0 0 1 13.3326 16.3063)" />
			<path d="M 22.5699 5.68552 C 22.3816 6.39429, 22.0655 7.06642, 21.6218 7.70133, 21.1787 8.33682, 20.6268 8.89845, 19.9661 9.38623, 19.8974 9.41714, 19.8436 9.4326, 19.8058 9.43203 L 19.7869 9.45035 C 19.693 9.45092, 19.6203 9.41714, 19.57 9.34959 L 19.5511 9.31295 C 19.5196 9.26486, 19.5035 9.21905, 19.5035 9.17554, 19.5035 9.09081, 19.5476 9.00837, 19.6358 8.92822, 20.2083 8.48281, 20.6978 7.98072, 21.1031 7.42195, 21.509 6.86318, 21.7873 6.26948, 21.9379 5.63972, 21.963 5.58533, 21.9791 5.53209, 21.9854 5.47999, 21.9917 5.42847, 21.9819 5.46912, 21.9568 5.60308, 21.9819 5.57904, 21.9098 5.60537, 21.7398 5.68152, 21.5703 5.75823, 21.3911 5.79602, 21.2022 5.79545, 20.8186 5.79602, 20.5575 5.67407, 20.419 5.42904, 20.3377 5.29507, 20.2965 5.14279, 20.2965 4.97103, 20.2965 4.88, 20.3091 4.7821, 20.3343 4.67791, 20.4035 4.42829, 20.5593 4.19299, 20.8014 3.97315, 21.0436 3.7533, 21.3436 3.64338, 21.702 3.64281, 21.9728 3.64338, 22.1806 3.71094, 22.3249 3.84491, 22.4697 3.97945, 22.5705 4.14433, 22.6266 4.33898, 22.6644 4.49241, 22.6833 4.651, 22.6833 4.81531 L 22.6833 4.99851 C 22.6581 5.24355, 22.6203 5.47255, 22.5699 5.68552 Z" stroke="none" fill="#000000" />
			<rect />
		</svg>
	</g>
</svg>
