<?xml version="1.0"?>
<svg xmlns="http://www.w3.org/2000/svg" xmlns:xlink="http://www.w3.org/1999/xlink" width="446.210175" height="280.999969">
	<defs>
		<marker id="CustomMarker-01" markerUnits="strokeWidth" markerWidth="9" markerHeight="6" viewBox="-9 -3 9 6" orient="auto-start-reverse">
			<path d="M 0 -0 L -6 -2, -6 -0.5, -6 0.5, -6 2 Z" fill="#0080FF" stroke="#0080FF" stroke-linejoin="round" />
		</marker>
		<marker id="CustomMarker-02" markerUnits="strokeWidth" markerWidth="9" markerHeight="6" viewBox="-9 -3 9 6" orient="auto-start-reverse">
			<path d="M 0 -0 L -6 -2, -6 -0.5, -6 0.5, -6 2 Z" fill="#0080FF" stroke="#0080FF" stroke-linejoin="round" />
		</marker>
		<marker id="CustomMarker-03" markerUnits="strokeWidth" markerWidth="9" markerHeight="6" viewBox="-9 -3 9 6" orient="auto-start-reverse">
			<path d="M 0 -0 L -6 -2, -6 -0.5, -6 0.5, -6 2 Z" fill="#0080FF" stroke="#0080FF" stroke-linejoin="round" />
		</marker>
	</defs>
	<path d="M -634.815 -9.15527e-005 L 634.815 6.10352e-005" fill="none" stroke="#000000" stroke-width="9" stroke-linecap="round" stroke-linejoin="round" transform="matrix(0.333333 0 0 0.333333 223.105 11.5001)" />
	<path d="M -277.254 0 L 277.255 0" fill="none" stroke="#000000" stroke-width="9" stroke-linecap="round" stroke-linejoin="round" transform="matrix(0.333333 0 0 0.333333 103.918 159.333)" />
	<path d="M 0 -221.75 L 0 221.75" fill="none" stroke="#000000" stroke-width="9" stroke-linecap="round" stroke-linejoin="round" stroke-dasharray="31.545, 22.455" transform="matrix(0.333333 0 0 0.333333 54.0307 85.4168)" />
	<path d="M 0 -221.75 L 0 221.75" fill="none" stroke="#000000" stroke-width="9" stroke-linecap="round" stroke-linejoin="round" stroke-dasharray="31.545, 22.455" transform="matrix(0.333333 0 0 0.333333 392.374 85.4168)" />
	<path d="M -277.254 0 L 277.255 0" fill="none" stroke="#000000" stroke-width="9" stroke-linecap="round" stroke-linejoin="round" transform="matrix(0.333333 0 0 0.333333 342.292 159.333)" />
	<path d="M -80.3065 0 L 80.3064 0" fill="none" stroke="#000000" stroke-width="9" stroke-linecap="round" stroke-linejoin="round" transform="matrix(0.333333 0 0 0.333333 223.105 269.5)" />
	<path d="M 0 165.249 L 0 -165.25" fill="none" stroke="#000000" stroke-width="9" stroke-linecap="round" stroke-linejoin="round" transform="matrix(0.333333 0 0 0.333333 196.336 214.417)" />
	<path d="M 0 165.249 L 0 -165.25" fill="none" stroke="#000000" stroke-width="9" stroke-linecap="round" stroke-linejoin="round" transform="matrix(0.333333 0 0 0.333333 249.874 214.417)" />
	<path d="M -13.3063 0 L 13.3049 0" fill="none" stroke="#000000" stroke-width="9" stroke-linecap="round" stroke-linejoin="round" transform="matrix(0.333333 0 0 0.333333 212.705 159.333)" />
	<path d="M -13.3049 0 L 13.3044 0" fill="none" stroke="#000000" stroke-width="9" stroke-linecap="round" stroke-linejoin="round" transform="matrix(0.333333 0 0 0.333333 233.507 159.333)" />
	<path d="M -258.499 0 L 258.499 0" fill="none" stroke="#0080FF" stroke-width="8" stroke-linecap="round" stroke-linejoin="round" marker-end="url(#CustomMarker-01)" transform="matrix(0.333333 0 0 0.333333 348.544 72.2024)" />
	<path d="M 265.5 -219 C -210.221 -217.089, -261.617 -199.666, -265.263 165.39 L -265.5 219" fill="none" stroke="#0080FF" stroke-width="8" stroke-linecap="round" stroke-linejoin="round" stroke-dasharray="28.04, 19.96" marker-end="url(#CustomMarker-02)" transform="matrix(0.333333 0 -0 0.333333 319.822 173.111)" />
	<path d="M 296.82 -183.834 L 224.699 -184.118 C -268.266 -184.794, -294.821 -152.222, -296.82 187.166" fill="none" stroke="#0080FF" stroke-width="8" stroke-linecap="round" stroke-linejoin="round" marker-start="url(#CustomMarker-03)" transform="matrix(-0.333333 5.03319e-008 5.03319e-008 0.333333 116.596 159.722)" />
	<g transform="matrix(1 0 -0 1 344.849 43.1945)">
		<svg width="29.9820518" height="47.8084984">
			<defs />
			<path d="M 7.59744 18.0511 C 6.2509 18.0066, 4.94944 17.9838, 3.69427 17.9838, 2.47938 17.9838, 1.20798 18.0066, -0.11933 18.0511 L -0.11933 16.7334, 2.25816 16.7334, 2.25816 6.51895 C 1.98765 6.61574, 1.61915 6.68667, 1.15327 6.73115, 0.687994 6.77624, 0.1614 6.79848, -0.42651 6.79788 L -0.42651 5.48019 C 0.491423 5.48079, 1.32159 5.39303, 2.06459 5.21629, 2.8076 5.04016, 3.47666 4.67587, 4.07118 4.12403 L 4.58636 4.12403 C 4.75828 4.12463, 4.89534 4.18234, 4.99753 4.29776, 5.09973 4.41318, 5.15082 4.53821, 5.15082 4.67227 L 5.15082 16.7334, 7.59744 16.7334, 7.59744 18.0511 Z" stroke="none" fill="#0080FF" />
			<rect />
		</svg>
	</g>
	<g transform="matrix(1 0 -0 1 301.051 112.103)">
		<svg width="29.9820557" height="47.8084984">
			<defs />
			<path d="M 8.17138 18.0415 L -0.00165576 18.0415, -0.00165576 17.1951 C -0.00165576 17.0929, 0.0350135 16.9937, 0.10715 16.897 L 3.26732 13.0785 C 3.5781 12.701, 3.86905 12.3193, 4.13956 11.9346, 4.41008 11.5499, 4.64933 11.1573, 4.85732 10.7564, 5.06531 10.356, 5.23243 9.94843, 5.35807 9.53485, 5.4837 9.12127, 5.54622 8.69627, 5.54622 8.25984, 5.54622 7.8691, 5.50655 7.50241, 5.4272 7.15916, 5.34785 6.81651, 5.23423 6.52136, 5.08575 6.27429, 4.93727 6.02783, 4.74731 5.83186, 4.51588 5.68758, 4.28504 5.54331, 4.01092 5.47117, 3.69352 5.47057, 3.02626 5.47117, 2.55437 5.61244, 2.27665 5.89377, 2.41551 5.91361, 2.63853 6.05969, 2.94571 6.332, 3.25289 6.60492, 3.40618 6.99746, 3.40618 7.50962, 3.40618 8.06808, 3.22644 8.48166, 2.86636 8.75097, 2.50688 9.02028, 2.11855 9.15493, 1.70256 9.15433, 1.28658 9.15493, 0.898244 9.02028, 0.538164 8.75097, 0.178685 8.48166, -0.00165576 8.06808, -0.00165576 7.50962, -0.00165576 6.99084, 0.117369 6.52617, 0.355419 6.11559, 0.593468 5.70562, 0.903654 5.34974, 1.28658 5.04798, 1.6695 4.74681, 2.10713 4.51777, 2.59886 4.36028, 3.09118 4.20338, 3.59794 4.12463, 4.11973 4.12403, 4.81344 4.12463, 5.44403 4.22562, 6.0121 4.4276, 6.58017 4.62959, 7.07731 4.91332, 7.50292 5.27881, 7.92852 5.6443, 8.25734 6.08073, 8.48818 6.58688, 8.71961 7.09364, 8.83503 7.65149, 8.83503 8.25984, 8.83503 8.88262, 8.68475 9.45189, 8.38418 9.96767, 8.08361 10.484, 7.72714 10.9553, 7.31416 11.3815, 6.90178 11.8083, 6.47077 12.1979, 6.02172 12.5501, 5.57267 12.903, 5.19275 13.2204, 4.88257 13.5017 L 3.13867 15.1176, 4.80322 15.1176 C 5.17953 15.1182, 5.53961 15.1152, 5.88286 15.1086, 6.22671 15.1026, 6.50383 15.0911, 6.71543 15.0749, 6.92703 15.0593, 7.02922 15.0539, 7.02201 15.0599, 7.07491 14.9962, 7.12781 14.8988, 7.18071 14.7671, 7.23361 14.6361, 7.27509 14.4882, 7.30454 14.3247, 7.3346 14.1612, 7.36225 13.9832, 7.3887 13.7909, 7.41515 13.5985, 7.46144 13.3707, 7.52756 13.1074 L 8.86509 13.1074 Z" stroke="none" fill="#0080FF" />
			<rect />
		</svg>
	</g>
	<g transform="matrix(1 0 -0 1 131.051 73.4088)">
		<svg width="33.1395264" height="47.8084984">
			<defs />
			<path d="M 9.18474 14.1269 C 9.18474 14.7046, 9.06751 15.2613, 8.83307 15.7963, 8.59863 16.3319, 8.25718 16.7851, 7.80753 17.1566, 7.28635 17.5738, 6.71708 17.866, 6.09911 18.0319, 5.48174 18.199, 4.85596 18.282, 4.22176 18.282, 3.69998 18.282, 3.1836 18.2068, 2.67144 18.0559, 2.15927 17.9057, 1.70842 17.6898, 1.31888 17.4073, 0.929345 17.1254, 0.609542 16.7791, 0.358267 16.3686, 0.106993 15.9586, -0.0186448 15.4867, -0.0186448 14.9541, -0.0186448 14.371, 0.170112 13.934, 0.546422 13.6418, 0.922733 13.3503, 1.33571 13.2042, 1.78476 13.2036, 2.2272 13.2042, 2.64198 13.3503, 3.02791 13.6418, 3.41444 13.934, 3.6074 14.371, 3.6074 14.9541, 3.6074 15.4807, 3.45592 15.8846, 3.15174 16.1666, 2.84817 16.4491, 2.62695 16.5994, 2.48809 16.618, 2.5476 16.6697, 2.75379 16.7533, 3.10726 16.8687, 3.46073 16.9841, 3.83223 17.0418, 4.22176 17.0412, 4.43336 17.0418, 4.63114 16.9841, 4.81629 16.8687, 5.00144 16.7533, 5.14631 16.5964, 5.25211 16.3968, 5.4042 16.1023, 5.49677 15.7614, 5.52923 15.3731, 5.56229 14.9853, 5.57853 14.57, 5.57853 14.1269, 5.57853 13.6977, 5.56229 13.2925, 5.52923 12.9108, 5.49677 12.5297, 5.4042 12.1913, 5.25211 11.8955, 5.14631 11.6845, 4.99963 11.5198, 4.81148 11.4008, 4.62332 11.2823, 4.42675 11.2228, 4.22176 11.2222 L 3.12169 11.2222 C 2.83795 11.2228, 2.67624 11.0786, 2.63657 10.7894 L 2.63657 10.5971 C 2.63657 10.3217, 2.78565 10.1678, 3.08261 10.1354 L 3.98371 10.0681 C 4.22176 10.056, 4.42314 9.97428, 4.58785 9.82339, 4.75317 9.67311, 4.89203 9.46452, 5.00444 9.19821, 5.11685 8.93251, 5.19801 8.62473, 5.2473 8.27487, 5.29659 7.92561, 5.32124 7.5517, 5.32124 7.15375, 5.32124 6.84657, 5.30801 6.56945, 5.28156 6.32238, 5.25511 6.07592, 5.18899 5.87213, 5.08319 5.71103, 4.88542 5.42308, 4.59807 5.27881, 4.22176 5.27821, 3.88513 5.27881, 3.56472 5.34313, 3.26055 5.47117, 2.95697 5.59982, 2.78204 5.68578, 2.73576 5.73026, 2.88123 5.74349, 3.10906 5.88656, 3.41925 6.15887, 3.72943 6.43179, 3.88453 6.81471, 3.88453 7.30764, 3.88453 7.83424, 3.7132 8.23519, 3.36935 8.51051, 3.02611 8.78644, 2.64619 8.9241, 2.2302 8.92349, 1.81422 8.9241, 1.4331 8.78824, 1.08624 8.51532, 0.739988 8.24301, 0.56626 7.84025, 0.56626 7.30764, 0.56626 6.83395, 0.67206 6.40293, 0.883058 6.0146, 1.09466 5.62687, 1.36697 5.29023, 1.7006 5.00469, 2.03423 4.71976, 2.42076 4.50154, 2.85959 4.35066, 3.29902 4.20037, 3.75288 4.12463, 4.22176 4.12403, 4.75016 4.12463, 5.28156 4.17933, 5.81657 4.28814, 6.35158 4.39755, 6.86015 4.60855, 7.34226 4.92234, 7.71857 5.17962, 8.02274 5.50183, 8.25358 5.88956, 8.48501 6.2779, 8.60043 6.69929, 8.60043 7.15375, 8.60043 8.0266, 8.32812 8.77381, 7.78349 9.39539, 7.23886 10.0176, 6.76156 10.4053, 6.35158 10.5586, 6.29869 10.5526, 6.44897 10.6187, 6.80244 10.7564, 7.1559 10.8946, 7.48773 11.0852, 7.79792 11.328, 8.23434 11.6557, 8.57458 12.0662, 8.81864 12.5598, 9.06271 13.0539, 9.18474 13.5763, 9.18474 14.1269 Z" stroke="none" fill="#0080FF" />
			<rect />
		</svg>
	</g>
</svg>
