<?xml version="1.0"?>
<svg xmlns="http://www.w3.org/2000/svg" xmlns:xlink="http://www.w3.org/1999/xlink" width="446.210175" height="280.999969">
	<defs>
		<marker id="CustomMarker-01" markerUnits="strokeWidth" markerWidth="9" markerHeight="6" viewBox="-9 -3 9 6" orient="auto-start-reverse">
			<path d="M 0 -0 L -6 -2, -6 -0.5, -6 0.5, -6 2 Z" fill="#0080FF" stroke="#0080FF" stroke-linejoin="round" />
		</marker>
		<marker id="CustomMarker-02" markerUnits="strokeWidth" markerWidth="9" markerHeight="6" viewBox="-9 -3 9 6" orient="auto-start-reverse">
			<path d="M 0 -0 L -6 -2, -6 -0.5, -6 0.5, -6 2 Z" fill="#0080FF" stroke="#0080FF" stroke-linejoin="round" />
		</marker>
	</defs>
	<path d="M -634.815 -9.15527e-005 L 634.815 6.10352e-005" fill="none" stroke="#000000" stroke-width="9" stroke-linecap="round" stroke-linejoin="round" transform="matrix(0.333333 0 0 0.333333 223.105 11.5001)" />
	<path d="M -277.254 0 L 277.255 0" fill="none" stroke="#000000" stroke-width="9" stroke-linecap="round" stroke-linejoin="round" transform="matrix(0.333333 0 0 0.333333 103.918 159.333)" />
	<path d="M 0 -221.75 L 0 221.75" fill="none" stroke="#000000" stroke-width="9" stroke-linecap="round" stroke-linejoin="round" stroke-dasharray="31.545, 22.455" transform="matrix(0.333333 0 0 0.333333 54.0307 85.4168)" />
	<path d="M 0 -221.75 L 0 221.75" fill="none" stroke="#000000" stroke-width="9" stroke-linecap="round" stroke-linejoin="round" stroke-dasharray="31.545, 22.455" transform="matrix(0.333333 0 0 0.333333 392.374 85.4168)" />
	<path d="M -277.254 0 L 277.255 0" fill="none" stroke="#000000" stroke-width="9" stroke-linecap="round" stroke-linejoin="round" transform="matrix(0.333333 0 0 0.333333 342.292 159.333)" />
	<path d="M -80.3065 0 L 80.3064 0" fill="none" stroke="#000000" stroke-width="9" stroke-linecap="round" stroke-linejoin="round" transform="matrix(0.333333 0 0 0.333333 223.105 269.5)" />
	<path d="M 0 165.249 L 0 -165.25" fill="none" stroke="#000000" stroke-width="9" stroke-linecap="round" stroke-linejoin="round" transform="matrix(0.333333 0 0 0.333333 196.336 214.417)" />
	<path d="M 0 165.249 L 0 -165.25" fill="none" stroke="#000000" stroke-width="9" stroke-linecap="round" stroke-linejoin="round" transform="matrix(0.333333 0 0 0.333333 249.874 214.417)" />
	<path d="M -13.3063 0 L 13.3049 0" fill="none" stroke="#000000" stroke-width="9" stroke-linecap="round" stroke-linejoin="round" transform="matrix(0.333333 0 0 0.333333 212.705 159.333)" />
	<path d="M -13.3049 0 L 13.3044 0" fill="none" stroke="#000000" stroke-width="9" stroke-linecap="round" stroke-linejoin="round" transform="matrix(0.333333 0 0 0.333333 233.507 159.333)" />
	<path d="M 265.5 -219 C -210.221 -217.089, -261.617 -199.666, -265.263 165.39 L -265.5 219" fill="none" stroke="#0080FF" stroke-width="8" stroke-linecap="round" stroke-linejoin="round" stroke-dasharray="28.04, 19.96" marker-end="url(#CustomMarker-01)" transform="matrix(-0.333333 5.03319e-008 5.03319e-008 0.333333 128.703 175.888)" />
	<path d="M 296.82 -183.834 L 224.699 -184.118 C -268.266 -184.794, -294.821 -152.222, -296.82 187.166" fill="none" stroke="#0080FF" stroke-width="8" stroke-linecap="round" stroke-linejoin="round" marker-start="url(#CustomMarker-02)" transform="matrix(0.333333 0 -0 0.333333 331.929 162.499)" />
	<g transform="matrix(1 0 -0 1 301.062 112.103)">
		<svg width="29.9820557" height="47.8084984">
			<defs />
			<path d="M 8.83654 13.7133 C 8.83654 14.3361, 8.72112 14.9373, 8.48969 15.5173, 8.25885 16.098, 7.90178 16.6024, 7.41967 17.0316, 6.89848 17.4873, 6.31718 17.8095, 5.67637 17.9982, 5.03556 18.1876, 4.38213 18.282, 3.71487 18.282, 3.1997 18.282, 2.71759 18.178, 2.26854 17.9694, 1.81949 17.7614, 1.42635 17.4891, 1.08971 17.1524, 0.753077 16.8158, 0.486774 16.4215, 0.292006 15.9694, 0.0972387 15.5173, -0.000145257 15.0346, -0.000145257 14.5213, -0.000145257 14.0025, 0.169976 13.613, 0.510219 13.3533, 0.850461 13.0936, 1.21535 12.9637, 1.60489 12.9631, 2.00765 12.9637, 2.37795 13.0936, 2.71458 13.3533, 3.05122 13.613, 3.21953 14.0025, 3.21953 14.5213, 3.21953 15.0671, 3.0416 15.4675, 2.68452 15.7235, 2.3545 15.955, 1.99442 16.0704, 1.60489 16.0698 L 1.85255 16.0698 C 1.97158 16.2754, 2.20422 16.4888, 2.55107 16.71, 2.89793 16.9312, 3.28566 17.0418, 3.71487 17.0412, 4.01243 17.0418, 4.28835 16.9781, 4.54203 16.8495, 4.79631 16.7214, 4.99288 16.5321, 5.13175 16.2814, 5.29706 16.0061, 5.39625 15.6364, 5.42871 15.1711, 5.46177 14.7064, 5.478 14.2207, 5.478 13.7133, 5.478 13.4512, 5.47499 13.1849, 5.46838 12.9156, 5.46177 12.6463, 5.45516 12.3884, 5.44854 12.1414, 5.44193 11.8949, 5.4269 11.6797, 5.40406 11.497, 5.38122 11.3142, 5.34635 11.1747, 5.30006 11.078, 5.20148 10.8543, 5.07223 10.6746, 4.91353 10.5399, 4.75483 10.4053, 4.5769 10.338, 4.37852 10.3374, 3.34818 10.338, 2.57572 10.7101, 2.06055 11.4531, 1.96196 11.6394, 1.80326 11.7356, 1.58505 11.7416 L 1.41673 11.7416 C 1.24481 11.7422, 1.10775 11.6845, 1.00555 11.5691, 0.903361 11.4537, 0.851663 11.3286, 0.851663 11.1934 L 0.851663 4.6915 C 0.851663 4.58931, 0.861883 4.49673, 0.88172 4.41258, 0.967682 4.22081, 1.11977 4.12463, 1.33738 4.12403, 1.39028 4.12463, 1.45641 4.14387, 1.53515 4.18174, 2.45369 4.60554, 3.42092 4.81714, 4.43804 4.81654, 5.44193 4.81714, 6.41277 4.60554, 7.35054 4.18174, 7.42989 4.14387, 7.49601 4.12463, 7.54891 4.12403, 7.76712 4.12463, 7.90599 4.2142, 7.9649 4.39334, 7.99796 4.43902, 8.0208 4.50275, 8.03403 4.5857 L 8.03403 4.63379 C 8.0208 4.6921, 8.01118 4.74681, 8.00457 4.7973, 8.00457 4.86824, 7.99135 4.92955, 7.9649 4.98005, 7.48279 5.82705, 6.82394 6.4925, 5.98836 6.97642, 5.15279 7.46093, 4.23966 7.70259, 3.24899 7.70199, 2.91897 7.70259, 2.6184 7.68035, 2.34789 7.63466 L 2.34789 9.70257 C 2.77049 9.39539, 3.44736 9.2415, 4.37852 9.24089, 4.97966 9.2415, 5.56276 9.33768, 6.12723 9.53004, 6.69229 9.7224, 7.18883 10.0398, 7.61804 10.4816, 8.05447 10.9247, 8.36645 11.4284, 8.55461 11.9923, 8.74276 12.5568, 8.83654 13.1302, 8.83654 13.7133 Z" stroke="none" fill="#0080FF" />
			<rect />
		</svg>
	</g>
	<g transform="matrix(1 0 -0 1 130.748 75.0754)">
		<svg width="33.1395264" height="47.8084984">
			<defs />
			<path d="M 9.78886 18.0511 C 8.69961 18.0066, 7.65904 17.9838, 6.66837 17.9838, 5.53222 17.9838, 4.34378 18.0066, 3.10183 18.0511 L 3.10183 16.7334, 5.14269 16.7334, 5.14269 14.7906, 0.0107974 14.7906, 0.0107974 13.5979, 6.67799 4.3741 C 6.791 4.19496, 6.95571 4.1054, 7.17332 4.10479 L 7.59953 4.10479 C 7.77145 4.1054, 7.90851 4.15829, 8.0107 4.2641, 8.1129 4.36989, 8.16399 4.49974, 8.16399 4.65303 L 8.16399 13.4825, 9.78886 13.4825, 9.78886 14.7906, 8.16399 14.7906, 8.16399 16.7334, 9.78886 16.7334, 9.78886 18.0511 Z M 5.41019 8.19251 L 1.57615 13.4825, 5.41019 13.4825 Z" stroke="none" fill="#0080FF" />
			<rect />
		</svg>
	</g>
</svg>
