<?xml version="1.0"?>
<svg xmlns="http://www.w3.org/2000/svg" xmlns:xlink="http://www.w3.org/1999/xlink" width="608.571472" height="235.714294">
	<defs />
	<path d="M 369.324 369.324 C 165.352 573.296, -165.353 573.296, -369.325 369.324, -467.276 271.373, -522.304 138.524, -522.304 0.000456719" fill="none" stroke="#000000" stroke-width="8.39999962" stroke-linecap="round" stroke-linejoin="round" transform="matrix(0.357143 0 -0 0.357143 198.593 11.0469)" />
	<path d="M 227.874 227.874 C 102.022 353.725, -102.023 353.725, -227.874 227.874, -288.31 167.438, -322.262 85.4693, -322.262 0.000270373" fill="none" stroke="#000000" stroke-width="8.39999962" stroke-linecap="round" stroke-linejoin="round" transform="matrix(0.357143 0 -0 0.357143 198.69 11.0469)" />
	<path d="M -227.821 -227.926 C -101.941 -353.748, 102.103 -353.702, 227.925 -227.821, 288.329 -167.39, 322.261 -85.4443, 322.262 -0.000984925" fill="none" stroke="#000000" stroke-width="8.39999962" stroke-linecap="round" stroke-linejoin="round" transform="matrix(0.357143 0 -0 0.357143 411.804 224.259)" />
	<path d="M -369.324 -369.324 C -165.352 -573.296, 165.353 -573.296, 369.325 -369.324, 467.275 -271.374, 522.303 -138.525, 522.304 -0.00197196" fill="none" stroke="#000000" stroke-width="8.39999962" stroke-linecap="round" stroke-linejoin="round" transform="matrix(0.357143 0 -0 0.357143 411.804 224.259)" />
</svg>
