<?xml version="1.0"?>
<svg xmlns="http://www.w3.org/2000/svg" xmlns:xlink="http://www.w3.org/1999/xlink" width="361.342926" height="147.911926">
	<defs>
		<marker id="CustomMarker-01" markerUnits="strokeWidth" markerWidth="9" markerHeight="6" viewBox="-9 -3 9 6" orient="auto-start-reverse">
			<path d="M 0 -0 L -6 -2, -6 -0.5, -6 0.5, -6 2 Z" fill="#0080FF" stroke="#0080FF" stroke-linejoin="round" />
		</marker>
		<marker id="CustomMarker-02" markerUnits="strokeWidth" markerWidth="9" markerHeight="6" viewBox="-9 -3 9 6" orient="auto-start-reverse">
			<path d="M 0 -0 L -6 -2, -6 -0.5, -6 0.5, -6 2 Z" fill="#0080FF" stroke="#0080FF" stroke-linejoin="round" />
		</marker>
	</defs>
	<path d="M 0 107.075 L 0 -107.075" fill="none" stroke="#000000" stroke-width="12" stroke-linecap="round" stroke-linejoin="round" transform="matrix(0.25 0 0 0.25 297.493 38.2686)" />
	<path d="M 331.531 0 L -331.531 0" fill="none" stroke="#000000" stroke-width="12" stroke-linecap="round" stroke-linejoin="round" stroke-dasharray="42.06, 29.94" transform="matrix(0.25 0 0 0.25 214.61 65.0375)" />
	<path d="M 331.531 0 L -331.531 0" fill="none" stroke="#000000" stroke-width="12" stroke-linecap="round" stroke-linejoin="round" transform="matrix(0.25 0 0 0.25 214.61 11.5)" />
	<path d="M 0 107.075 L 0 -107.075" fill="none" stroke="#000000" stroke-width="12" stroke-linecap="round" stroke-linejoin="round" transform="matrix(0.25 0 0 0.25 131.727 38.2687)" />
	<path d="M 676.685 0 L -676.686 0" fill="none" stroke="#000000" stroke-width="12" stroke-linecap="round" stroke-linejoin="round" transform="matrix(0.25 0 0 0.25 180.672 136.412)" />
	<path d="M 240.454 0 L -240.455 0" fill="none" stroke="#000000" stroke-width="12" stroke-linecap="round" stroke-linejoin="round" transform="matrix(0.25 0 0 0.25 71.6138 65.0374)" />
	<path d="M 104.701 0 L -104.701 0" fill="none" stroke="#000000" stroke-width="12" stroke-linecap="round" stroke-linejoin="round" transform="matrix(0.25 0 0 0.25 323.668 65.0375)" />
	<path d="M -415.313 103.611 C 307.904 115.817, 14.8091 -90.5344, 347.047 -109.999 L 415.313 -111.382" fill="none" stroke="#0080FF" stroke-width="10.666667" stroke-linecap="round" stroke-linejoin="round" stroke-dasharray="37.3867, 26.6133" marker-end="url(#CustomMarker-01)" transform="matrix(0.25 0 -0 0.25 165.208 67.2584)" />
	<g transform="matrix(1 0 -0 1 224.77 96.7238)">
		<svg width="29.9820518" height="47.8084984">
			<defs />
			<path d="M 7.59744 18.0511 C 6.2509 18.0066, 4.94944 17.9838, 3.69427 17.9838, 2.47938 17.9838, 1.20798 18.0066, -0.11933 18.0511 L -0.11933 16.7334, 2.25816 16.7334, 2.25816 6.51895 C 1.98765 6.61574, 1.61915 6.68667, 1.15327 6.73115, 0.687994 6.77624, 0.1614 6.79848, -0.42651 6.79788 L -0.42651 5.48019 C 0.491423 5.48079, 1.32159 5.39303, 2.06459 5.21629, 2.8076 5.04016, 3.47666 4.67587, 4.07118 4.12403 L 4.58636 4.12403 C 4.75828 4.12463, 4.89534 4.18234, 4.99753 4.29776, 5.09973 4.41318, 5.15082 4.53821, 5.15082 4.67227 L 5.15082 16.7334, 7.59744 16.7334, 7.59744 18.0511 Z" stroke="none" fill="#0080FF" />
			<rect />
		</svg>
	</g>
	<path d="M 348.884 0 L -348.884 0" fill="none" stroke="#0080FF" stroke-width="10.666667" stroke-linecap="round" stroke-linejoin="round" marker-end="url(#CustomMarker-02)" transform="matrix(0.25 0 0 0.25 120.789 108.732)" />
	<g transform="matrix(1 0 -0 1 185.224 30.6411)">
		<svg width="29.9820557" height="47.8084984">
			<defs />
			<path d="M 8.17138 18.0415 L -0.00165576 18.0415, -0.00165576 17.1951 C -0.00165576 17.0929, 0.0350135 16.9937, 0.10715 16.897 L 3.26732 13.0785 C 3.5781 12.701, 3.86905 12.3193, 4.13956 11.9346, 4.41008 11.5499, 4.64933 11.1573, 4.85732 10.7564, 5.06531 10.356, 5.23243 9.94843, 5.35807 9.53485, 5.4837 9.12127, 5.54622 8.69627, 5.54622 8.25984, 5.54622 7.8691, 5.50655 7.50241, 5.4272 7.15916, 5.34785 6.81651, 5.23423 6.52136, 5.08575 6.27429, 4.93727 6.02783, 4.74731 5.83186, 4.51588 5.68758, 4.28504 5.54331, 4.01092 5.47117, 3.69352 5.47057, 3.02626 5.47117, 2.55437 5.61244, 2.27665 5.89377, 2.41551 5.91361, 2.63853 6.05969, 2.94571 6.332, 3.25289 6.60492, 3.40618 6.99746, 3.40618 7.50962, 3.40618 8.06808, 3.22644 8.48166, 2.86636 8.75097, 2.50688 9.02028, 2.11855 9.15493, 1.70256 9.15433, 1.28658 9.15493, 0.898244 9.02028, 0.538164 8.75097, 0.178685 8.48166, -0.00165576 8.06808, -0.00165576 7.50962, -0.00165576 6.99084, 0.117369 6.52617, 0.355419 6.11559, 0.593468 5.70562, 0.903654 5.34974, 1.28658 5.04798, 1.6695 4.74681, 2.10713 4.51777, 2.59886 4.36028, 3.09118 4.20338, 3.59794 4.12463, 4.11973 4.12403, 4.81344 4.12463, 5.44403 4.22562, 6.0121 4.4276, 6.58017 4.62959, 7.07731 4.91332, 7.50292 5.27881, 7.92852 5.6443, 8.25734 6.08073, 8.48818 6.58688, 8.71961 7.09364, 8.83503 7.65149, 8.83503 8.25984, 8.83503 8.88262, 8.68475 9.45189, 8.38418 9.96767, 8.08361 10.484, 7.72714 10.9553, 7.31416 11.3815, 6.90178 11.8083, 6.47077 12.1979, 6.02172 12.5501, 5.57267 12.903, 5.19275 13.2204, 4.88257 13.5017 L 3.13867 15.1176, 4.80322 15.1176 C 5.17953 15.1182, 5.53961 15.1152, 5.88286 15.1086, 6.22671 15.1026, 6.50383 15.0911, 6.71543 15.0749, 6.92703 15.0593, 7.02922 15.0539, 7.02201 15.0599, 7.07491 14.9962, 7.12781 14.8988, 7.18071 14.7671, 7.23361 14.6361, 7.27509 14.4882, 7.30454 14.3247, 7.3346 14.1612, 7.36225 13.9832, 7.3887 13.7909, 7.41515 13.5985, 7.46144 13.3707, 7.52756 13.1074 L 8.86509 13.1074 Z" stroke="none" fill="#0080FF" />
			<rect />
		</svg>
	</g>
</svg>
