<?xml version="1.0"?>
<svg xmlns="http://www.w3.org/2000/svg" xmlns:xlink="http://www.w3.org/1999/xlink" width="361.343048" height="147.911942">
	<defs />
	<path d="M 0 107.075 L 0 -107.075" fill="none" stroke="#000000" stroke-width="12" stroke-linecap="round" stroke-linejoin="round" transform="matrix(0.25 0 0 0.25 297.492 38.2686)" />
	<path d="M 331.531 0 L -331.531 0" fill="none" stroke="#000000" stroke-width="12" stroke-linecap="round" stroke-linejoin="round" stroke-dasharray="42.06, 29.94" transform="matrix(0.25 0 0 0.25 214.61 65.0375)" />
	<path d="M 331.531 0 L -331.531 0" fill="none" stroke="#000000" stroke-width="12" stroke-linecap="round" stroke-linejoin="round" transform="matrix(0.25 0 0 0.25 214.61 11.5)" />
	<path d="M 0 107.075 L 0 -107.075" fill="none" stroke="#000000" stroke-width="12" stroke-linecap="round" stroke-linejoin="round" transform="matrix(0.25 0 0 0.25 131.727 38.2688)" />
	<path d="M 676.686 0 L -676.686 0" fill="none" stroke="#000000" stroke-width="12" stroke-linecap="round" stroke-linejoin="round" transform="matrix(0.25 0 0 0.25 180.671 136.412)" />
	<path d="M 240.454 0 L -240.454 0" fill="none" stroke="#000000" stroke-width="12" stroke-linecap="round" stroke-linejoin="round" transform="matrix(0.25 0 0 0.25 71.6136 65.0374)" />
	<path d="M 104.701 0 L -104.701 0" fill="none" stroke="#000000" stroke-width="12" stroke-linecap="round" stroke-linejoin="round" transform="matrix(0.25 0 0 0.25 323.668 65.0375)" />
</svg>
