<?xml version="1.0"?>
<svg xmlns="http://www.w3.org/2000/svg" xmlns:xlink="http://www.w3.org/1999/xlink" width="361.342926" height="147.911926">
	<defs>
		<marker id="CustomMarker-01" markerUnits="strokeWidth" markerWidth="9" markerHeight="6" viewBox="-9 -3 9 6" orient="auto-start-reverse">
			<path d="M 0 -0 L -6 -2, -6 -0.5, -6 0.5, -6 2 Z" fill="#0080FF" stroke="#0080FF" stroke-linejoin="round" />
		</marker>
	</defs>
	<path d="M 0 107.075 L 0 -107.075" fill="none" stroke="#000000" stroke-width="12" stroke-linecap="round" stroke-linejoin="round" transform="matrix(0.25 0 0 0.25 297.493 38.2686)" />
	<path d="M 331.531 0 L -331.531 0" fill="none" stroke="#000000" stroke-width="12" stroke-linecap="round" stroke-linejoin="round" stroke-dasharray="42.06, 29.94" transform="matrix(0.25 0 0 0.25 214.61 65.0375)" />
	<path d="M 331.531 0 L -331.531 0" fill="none" stroke="#000000" stroke-width="12" stroke-linecap="round" stroke-linejoin="round" transform="matrix(0.25 0 0 0.25 214.61 11.5)" />
	<path d="M 0 107.075 L 0 -107.075" fill="none" stroke="#000000" stroke-width="12" stroke-linecap="round" stroke-linejoin="round" transform="matrix(0.25 0 0 0.25 131.727 38.2687)" />
	<path d="M 676.685 0 L -676.686 0" fill="none" stroke="#000000" stroke-width="12" stroke-linecap="round" stroke-linejoin="round" transform="matrix(0.25 0 0 0.25 180.672 136.412)" />
	<path d="M 240.454 0 L -240.455 0" fill="none" stroke="#000000" stroke-width="12" stroke-linecap="round" stroke-linejoin="round" transform="matrix(0.25 0 0 0.25 71.6138 65.0374)" />
	<path d="M 104.701 0 L -104.701 0" fill="none" stroke="#000000" stroke-width="12" stroke-linecap="round" stroke-linejoin="round" transform="matrix(0.25 0 0 0.25 323.668 65.0375)" />
	<path d="M -413.082 125.893 L -294.325 122.97 C 303.992 94.8103, 2.27438 -124.339, 413.082 -125.893" fill="none" stroke="#0080FF" stroke-width="10.666667" stroke-linecap="round" stroke-linejoin="round" marker-start="url(#CustomMarker-01)" transform="matrix(0.25 0 -0 0.25 164.651 69.1792)" />
	<g transform="matrix(1 0 -0 1 178.623 88.6445)">
		<svg width="33.1395264" height="47.8084984">
			<defs />
			<path d="M 9.18474 14.1269 C 9.18474 14.7046, 9.06751 15.2613, 8.83307 15.7963, 8.59863 16.3319, 8.25718 16.7851, 7.80753 17.1566, 7.28635 17.5738, 6.71708 17.866, 6.09911 18.0319, 5.48174 18.199, 4.85596 18.282, 4.22176 18.282, 3.69998 18.282, 3.1836 18.2068, 2.67144 18.0559, 2.15927 17.9057, 1.70842 17.6898, 1.31888 17.4073, 0.929345 17.1254, 0.609542 16.7791, 0.358267 16.3686, 0.106993 15.9586, -0.0186448 15.4867, -0.0186448 14.9541, -0.0186448 14.371, 0.170112 13.934, 0.546422 13.6418, 0.922733 13.3503, 1.33571 13.2042, 1.78476 13.2036, 2.2272 13.2042, 2.64198 13.3503, 3.02791 13.6418, 3.41444 13.934, 3.6074 14.371, 3.6074 14.9541, 3.6074 15.4807, 3.45592 15.8846, 3.15174 16.1666, 2.84817 16.4491, 2.62695 16.5994, 2.48809 16.618, 2.5476 16.6697, 2.75379 16.7533, 3.10726 16.8687, 3.46073 16.9841, 3.83223 17.0418, 4.22176 17.0412, 4.43336 17.0418, 4.63114 16.9841, 4.81629 16.8687, 5.00144 16.7533, 5.14631 16.5964, 5.25211 16.3968, 5.4042 16.1023, 5.49677 15.7614, 5.52923 15.3731, 5.56229 14.9853, 5.57853 14.57, 5.57853 14.1269, 5.57853 13.6977, 5.56229 13.2925, 5.52923 12.9108, 5.49677 12.5297, 5.4042 12.1913, 5.25211 11.8955, 5.14631 11.6845, 4.99963 11.5198, 4.81148 11.4008, 4.62332 11.2823, 4.42675 11.2228, 4.22176 11.2222 L 3.12169 11.2222 C 2.83795 11.2228, 2.67624 11.0786, 2.63657 10.7894 L 2.63657 10.5971 C 2.63657 10.3217, 2.78565 10.1678, 3.08261 10.1354 L 3.98371 10.0681 C 4.22176 10.056, 4.42314 9.97428, 4.58785 9.82339, 4.75317 9.67311, 4.89203 9.46452, 5.00444 9.19821, 5.11685 8.93251, 5.19801 8.62473, 5.2473 8.27487, 5.29659 7.92561, 5.32124 7.5517, 5.32124 7.15375, 5.32124 6.84657, 5.30801 6.56945, 5.28156 6.32238, 5.25511 6.07592, 5.18899 5.87213, 5.08319 5.71103, 4.88542 5.42308, 4.59807 5.27881, 4.22176 5.27821, 3.88513 5.27881, 3.56472 5.34313, 3.26055 5.47117, 2.95697 5.59982, 2.78204 5.68578, 2.73576 5.73026, 2.88123 5.74349, 3.10906 5.88656, 3.41925 6.15887, 3.72943 6.43179, 3.88453 6.81471, 3.88453 7.30764, 3.88453 7.83424, 3.7132 8.23519, 3.36935 8.51051, 3.02611 8.78644, 2.64619 8.9241, 2.2302 8.92349, 1.81422 8.9241, 1.4331 8.78824, 1.08624 8.51532, 0.739988 8.24301, 0.56626 7.84025, 0.56626 7.30764, 0.56626 6.83395, 0.67206 6.40293, 0.883058 6.0146, 1.09466 5.62687, 1.36697 5.29023, 1.7006 5.00469, 2.03423 4.71976, 2.42076 4.50154, 2.85959 4.35066, 3.29902 4.20037, 3.75288 4.12463, 4.22176 4.12403, 4.75016 4.12463, 5.28156 4.17933, 5.81657 4.28814, 6.35158 4.39755, 6.86015 4.60855, 7.34226 4.92234, 7.71857 5.17962, 8.02274 5.50183, 8.25358 5.88956, 8.48501 6.2779, 8.60043 6.69929, 8.60043 7.15375, 8.60043 8.0266, 8.32812 8.77381, 7.78349 9.39539, 7.23886 10.0176, 6.76156 10.4053, 6.35158 10.5586, 6.29869 10.5526, 6.44897 10.6187, 6.80244 10.7564, 7.1559 10.8946, 7.48773 11.0852, 7.79792 11.328, 8.23434 11.6557, 8.57458 12.0662, 8.81864 12.5598, 9.06271 13.0539, 9.18474 13.5763, 9.18474 14.1269 Z" stroke="none" fill="#0080FF" />
			<rect />
		</svg>
	</g>
</svg>
