<?xml version="1.0"?>
<svg xmlns="http://www.w3.org/2000/svg" xmlns:xlink="http://www.w3.org/1999/xlink" width="355.447693" height="154.469864">
	<defs>
		<marker id="CustomMarker-01" markerUnits="strokeWidth" markerWidth="8.25" markerHeight="13.5" viewBox="-8.25 -6.75 8.25 13.5" orient="auto-start-reverse">
			<path d="M -5.5 -4.5 L 0 -0, -5.5 4.5" fill="none" stroke="#000000" stroke-linejoin="round" />
		</marker>
		<marker id="CustomMarker-02" markerUnits="strokeWidth" markerWidth="8.25" markerHeight="13.5" viewBox="-8.25 -6.75 8.25 13.5" orient="auto-start-reverse">
			<path d="M -5.5 -4.5 L 0 -0, -5.5 4.5" fill="none" stroke="#000000" stroke-linejoin="round" />
		</marker>
	</defs>
	<path d="M -74.1506 0 L 74.15 0" fill="none" stroke="#000000" stroke-width="6.07999992" stroke-linecap="round" stroke-linejoin="round" transform="matrix(0.263158 0 0 0.263158 47.2947 117.056)" />
	<path d="M 33.0748 0 L -33.074 0" fill="none" stroke="#000000" stroke-width="5.0666666" stroke-linecap="round" stroke-linejoin="round" marker-start="url(#CustomMarker-01)" transform="matrix(0.263158 0 0 0.263158 50.416 117.056)" />
	<g transform="matrix(1 0 -0 1 222.104 28.2069)">
		<svg width="341.974823" height="60.0856972">
			<defs />
			<path d="M 1.80824 19.1546 C 1.66969 18.9348, 1.44985 18.6296, 1.14756 18.2386, 1.01589 18.0554, 0.911689 17.918, 0.836118 17.8264, 2.51586 17.2287, 3.85553 16.6287, 4.85571 16.027, 5.85588 15.4259, 6.62305 14.7583, 7.15777 14.0249, 7.6673 13.3293, 8.02627 12.4895, 8.23352 11.5059 L 1.10062 11.5059, 1.10062 10.141, 8.46939 10.141 C 8.55126 9.25592, 8.59191 8.16014, 8.59191 6.85253 L 2.07217 6.85253, 2.07217 5.50598, 6.37458 5.50598 C 6.2303 5.32965, 6.01619 5.05771, 5.73279 4.69073, 4.95933 3.70201, 4.37766 2.97206, 3.98778 2.50145 L 5.22326 1.83276 C 6.02878 2.71271, 6.85262 3.69285, 7.69536 4.77317 L 6.41236 5.50598, 10.5923 5.50598 C 11.542 4.34035, 12.4415 3.1003, 13.2905 1.78696 L 14.7527 2.44649 C 14.0548 3.35678, 13.2373 4.377, 12.2995 5.50598 L 16.7341 5.50598, 16.7341 6.85253, 10.1205 6.85253 C 10.0953 8.16014, 10.0547 9.25592, 9.99742 10.141 L 17.7532 10.141, 17.7532 11.5059, 10.2711 11.5059 C 10.9066 13.137, 11.8003 14.4074, 12.951 15.3165, 14.1269 16.2577, 15.8004 17.0026, 17.9702 17.5516, 17.8133 17.7777, 17.59 18.1167, 17.3004 18.5684, 17.1939 18.7458, 17.112 18.8769, 17.0547 18.9623, 14.8597 18.2294, 13.168 17.3718, 11.9789 16.3883, 10.8344 15.4425, 9.95047 14.2024, 9.32758 12.6692, 9.02587 13.6591, 8.5982 14.511, 8.04459 15.2249, 7.45948 15.9766, 6.66713 16.6665, 5.66695 17.2951, 4.68567 17.9123, 3.39982 18.5317, 1.80824 19.1546 Z" stroke="none" fill="#000000" />
			<path d="M 24.9015 19.1088 L 24.9015 15.7287, 20.0237 16.6447, 19.8067 15.2799 C 19.9453 15.2621, 20.1502 15.2346, 20.4205 15.198, 20.6907 15.1614, 20.8951 15.131, 21.0336 15.1058 L 21.0336 4.2144, 19.967 4.2144, 19.967 2.98694, 27.2041 2.98694, 27.2041 4.2144, 26.1753 4.2144, 26.1753 14.2448, 27.6381 13.9516, 27.6381 15.2432, 26.1753 15.5089, 26.1753 19.1088 Z M 27.5436 19.1088 C 27.3925 18.9136, 27.0684 18.5168, 26.5715 17.918, 28.0119 16.9539, 29.0751 15.9703, 29.761 14.9684, 30.4468 13.9797, 30.8836 12.7952, 31.072 11.4143 L 27.1474 11.4143, 27.1474 10.1227, 31.1854 10.1227 C 31.1854 10.038, 31.1888 9.90629, 31.1951 9.72882, 31.2014 9.51584, 31.2043 9.35096, 31.2043 9.23417 L 31.2043 6.88917, 27.6759 6.88917, 27.6759 5.59759, 32.2611 5.59759 C 32.9407 4.56592, 33.6546 3.32358, 34.4029 1.8694 L 35.7236 2.42817 C 35.2267 3.25316, 34.5603 4.30944, 33.7233 5.59759 L 36.5635 5.59759, 36.5635 6.88917, 32.6384 6.88917, 32.6384 9.04181 C 32.6384 9.29886, 32.6229 9.65897, 32.5914 10.1227 L 37.1389 10.1227, 37.1389 11.4143, 32.6762 11.4143 C 33.117 13.0024, 33.6701 14.2453, 34.3365 15.1425, 34.9845 16.0104, 35.9693 16.8589, 37.29 17.689, 36.9253 18.1653, 36.6236 18.6021, 36.3843 18.9989, 35.1202 18.0709, 34.1578 17.1674, 33.4972 16.2875, 32.8239 15.3841, 32.3052 14.2848, 31.9405 12.9898, 31.6577 14.2608, 31.1825 15.3566, 30.5155 16.2783, 29.8617 17.1766, 28.8707 18.1195, 27.5436 19.1088 Z M 22.3069 14.8951 C 22.6407 14.8408, 23.1536 14.7555, 23.8452 14.6387, 24.3107 14.5597, 24.6628 14.499, 24.9015 14.4555 L 24.9015 11.854, 22.3069 11.854 Z M 22.3069 10.7181 L 24.9015 10.7181, 24.9015 8.04335, 22.3069 8.04335 Z M 22.3069 6.90749 L 24.9015 6.90749, 24.9015 4.2144, 22.3069 4.2144 Z M 30.0535 5.31362 C 29.5881 4.52642, 28.9875 3.59495, 28.2512 2.51977 L 29.4209 1.90604 C 30.0249 2.74935, 30.6541 3.67166, 31.3079 4.67241 Z" stroke="none" fill="#000000" />
			<path d="M 40.9947 19.2645 C 40.8687 18.8924, 40.6867 18.4831, 40.4474 18.0371, 42.9761 17.6403, 45.2501 17.1337, 47.2688 16.5165, 49.2629 15.9005, 51.3542 15.0669, 53.5429 14.0158 L 54.3828 15.0142 C 52.2193 16.1077, 50.1062 16.9814, 48.0428 17.634, 45.9612 18.2999, 43.6116 18.8432, 40.9947 19.2645 Z M 41.8345 16.4157 C 41.7212 16.0928, 41.5294 15.7138, 41.2586 15.2799, 43.228 14.8774, 44.9748 14.4274, 46.4999 13.9293, 48.0251 13.4318, 49.6024 12.798, 51.2317 12.028 L 52.0619 12.9898 C 50.2252 13.8268, 48.5175 14.511, 46.9385 15.0417, 45.3223 15.5856, 43.6208 16.0436, 41.8345 16.4157 Z M 42.5044 13.6494 C 42.3349 13.3019, 42.1242 12.9417, 41.8723 12.5685, 44.4011 11.9645, 46.8669 11.1189, 49.2692 10.0311 L 50.0426 10.9471 C 47.5963 12.1082, 45.0835 13.0087, 42.5044 13.6494 Z M 55.6847 13.4387 C 54.2695 12.841, 53.1061 12.2147, 52.1941 11.5608, 51.2506 10.8899, 50.3735 10.0437, 49.5617 9.02349 L 46.1083 9.02349 C 45.3223 9.87881, 44.4257 10.6299, 43.4193 11.2769, 42.4826 11.8883, 41.2592 12.5295, 39.7495 13.2005, 39.5605 12.8593, 39.3155 12.4683, 39.0132 12.028, 40.1708 11.5643, 41.1555 11.0971, 41.9662 10.6265, 42.7969 10.1508, 43.5458 9.6166, 44.2122 9.02349 L 39.4758 9.02349, 39.4758 7.8693, 45.344 7.8693 C 45.7654 7.36893, 46.1146 6.92008, 46.3917 6.52276 L 47.835 6.85253 C 47.6656 7.09756, 47.4234 7.43649, 47.1085 7.8693 L 56.0815 7.8693, 56.0815 9.02349, 51.1281 9.02349 C 51.8266 9.74485, 52.5937 10.3494, 53.4302 10.8372, 54.2477 11.3261, 55.245 11.7692, 56.4209 12.1654, 56.3706 12.2576, 56.2858 12.4013, 56.1662 12.5959, 55.94 12.9692, 55.7797 13.2498, 55.6847 13.4387 Z M 53.8641 7.06321 L 52.7506 6.193 C 48.0205 6.22391, 44.7561 6.27601, 42.9572 6.34872, 42.4042 6.36761, 41.8695 6.41341, 41.3531 6.48612 L 40.7966 5.23118 C 41.4573 4.96897, 42.02 4.70676, 42.4855 4.44341, 43.8252 3.61957, 45.1087 2.69153, 46.335 1.65872 L 47.9953 2.17169 C 46.6494 3.09457, 45.1179 4.10219, 43.4004 5.19454, 46.9293 5.15847, 49.5651 5.12813, 51.3073 5.10294 L 49.1089 3.54571, 50.0615 2.73046 C 51.8924 3.95849, 53.4834 5.07603, 54.8357 6.08307 Z" stroke="none" fill="#000000" />
			<path d="M 65.1826 18.7058 C 65.0509 18.1195, 64.9375 17.6524, 64.8431 17.3043, 66.0511 17.3415, 67.3278 17.3598, 68.6737 17.3592, 69.3785 17.3598, 69.8754 17.2619, 70.1646 17.0661, 70.4416 16.8772, 70.6237 16.5199, 70.7119 15.9944, 70.7685 15.6102, 70.8281 14.9936, 70.8911 14.144 L 62.6824 14.144, 63.1639 11.799 C 62.0257 12.4225, 60.5916 13.1158, 58.8615 13.8784, 58.755 13.6162, 58.5569 13.2194, 58.2672 12.6875, 58.2294 12.6211, 58.2014 12.569, 58.1819 12.5318, 61.4029 11.2803, 64.12 9.93377, 66.3339 8.4922 L 58.522 8.4922, 58.522 7.25557, 64.6639 7.25557, 64.6639 5.00218, 59.9464 5.00218, 59.9464 3.79304, 64.6639 3.79304, 64.6639 1.80528, 66.098 1.80528, 66.098 3.79304, 70.0231 3.79304, 70.0231 5.00218, 66.098 5.00218, 66.098 7.25557, 68.155 7.25557 C 69.7151 6.12029, 71.3599 4.68844, 73.0895 2.95946 L 74.2591 3.81136 C 72.9824 5.01477, 71.6491 6.16323, 70.259 7.25557 L 75.4482 7.25557, 75.4482 8.4922, 68.5701 8.4922 C 67.859 9.01203, 67.0604 9.54332, 66.1736 10.0861 L 74.2402 10.0861, 74.2402 11.2952, 64.7297 11.2952, 64.3713 12.9532, 72.4569 12.9532 C 72.3756 14.2242, 72.2783 15.3016, 72.1649 16.1867, 72.0515 17.085, 71.775 17.7136, 71.3342 18.0737, 70.8819 18.4401, 70.1142 18.6388, 69.0321 18.6691, 68.0508 18.6937, 66.7678 18.7058, 65.1826 18.7058 Z" stroke="none" fill="#000000" />
			<path d="M 78.5964 19.2096 C 78.4521 19.0573, 78.1561 18.767, 77.7096 18.3394, 77.5584 18.1991, 77.4577 18.1046, 77.4073 18.0554, 78.609 17.1766, 79.521 16.3676, 80.1433 15.628, 80.7977 14.8591, 81.282 14.0072, 81.5964 13.0723, 81.886 12.2181, 82.0967 11.0943, 82.2284 9.70134, 82.3234 8.58437, 82.383 7.37809, 82.4082 6.08307 L 77.6907 6.08307, 77.6907 4.69989, 85.9743 4.69989 C 85.8232 4.26707, 85.5404 3.53426, 85.1253 2.50145, 85.044 2.2942, 84.9839 2.14192, 84.9461 2.04345 L 86.5497 1.75032 C 87.0466 2.93542, 87.4182 3.86689, 87.6632 4.54417 L 86.9459 4.69989, 94.5981 4.69989, 94.5981 6.08307, 83.9362 6.08307 C 83.911 7.24985, 83.8641 8.27579, 83.7948 9.16089 L 92.3429 9.16089 C 92.28 11.4269, 92.1609 13.473, 91.9845 15.2982, 91.8781 16.5079, 91.554 17.3535, 91.0124 17.8356, 90.4783 18.3062, 89.5915 18.5535, 88.352 18.5775, 87.5218 18.6021, 86.5314 18.6142, 85.3801 18.6142, 85.3171 18.1195, 85.21 17.6128, 85.0589 17.0936, 86.015 17.1308, 87.0089 17.1491, 88.0405 17.1485, 88.8833 17.1491, 89.481 16.9934, 89.8331 16.6819, 90.1857 16.3705, 90.4056 15.7963, 90.4937 14.9593, 90.6323 13.7261, 90.7262 12.2547, 90.7766 10.5441 L 83.6534 10.5441 C 83.5148 11.9003, 83.2727 13.0425, 82.9269 13.97, 82.5685 14.9478, 82.0463 15.8484, 81.3605 16.6722, 80.6941 17.4726, 79.7723 18.3182, 78.5964 19.2096 Z" stroke="none" fill="#000000" />
			<path d="M 97.7691 18.8981 L 97.7691 4.33348, 103.043 4.33348 C 103.339 3.3751, 103.566 2.50832, 103.723 1.732 L 105.307 1.90604 C 105.295 1.94326, 105.279 1.99535, 105.26 2.06177, 104.971 3.05164, 104.742 3.80907, 104.572 4.33348 L 112.855 4.33348, 112.855 16.4341 C 112.855 17.2407, 112.68 17.8264, 112.327 18.1928, 111.975 18.5592, 111.387 18.7579, 110.563 18.7882 L 108.043 18.8432 C 107.968 18.3852, 107.868 17.8785, 107.742 17.3226, 108.591 17.3718, 109.352 17.3964, 110.025 17.3959, 110.534 17.3964, 110.893 17.3048, 111.101 17.1216, 111.308 16.9384, 111.412 16.627, 111.412 16.1867 L 111.412 5.68003, 99.2222 5.68003, 99.2222 18.8981 Z M 101.694 14.8402 L 101.694 8.29983, 108.912 8.29983, 108.912 14.8402 Z M 103.109 13.5669 L 107.525 13.5669, 107.525 9.56393, 103.109 9.56393 Z" stroke="none" fill="#000000" />
			<rect />
		</svg>
	</g>
	<g transform="matrix(1 0 -0 1 52.9249 123.055)">
		<svg width="18.0512524" height="45.0428467">
			<defs />
			<path d="M 4.85574 5.20004 C 4.79907 5.43248, 4.66853 5.62656, 4.46415 5.78228, 4.25976 5.938, 4.0382 6.01586, 3.79889 6.01529, 3.54756 6.01586, 3.35577 5.93056, 3.22352 5.75881, 3.13535 5.66148, 3.08841 5.5424, 3.08154 5.40156, 3.08154 5.31683, 3.09413 5.23095, 3.11932 5.14507, 3.17657 4.91378, 3.30882 4.7197, 3.51607 4.56398, 3.72332 4.40825, 3.9466 4.33039, 4.18591 4.32982, 4.43781 4.33039, 4.6296 4.41284, 4.76128 4.57715, 4.84945 4.69394, 4.89353 4.81874, 4.89353 4.95271, 4.89353 5.03859, 4.88093 5.12103, 4.85574 5.20004 Z M 4.95937 14.0854 C 4.89067 14.4037, 4.78361 14.738, 4.63876 15.089, 4.49449 15.4405, 4.31644 15.7594, 4.10576 16.0462, 3.89507 16.3336, 3.64775 16.5729, 3.36493 16.7647, 3.08211 16.9571, 2.75463 17.0533, 2.38365 17.0533, 2.06934 17.0533, 1.79911 16.9863, 1.5724 16.8518, 1.34569 16.7178, 1.17107 16.5409, 1.04855 16.321, 0.926037 16.1012, 0.864779 15.8567, 0.864779 15.5877, 0.852184 15.5762, 0.845886 15.5516, 0.845886 15.5144, 0.845886 15.2401, 0.905999 14.959, 1.02508 14.6716 L 2.55368 10.6412 C 2.74261 10.1351, 2.8365 9.71943, 2.8365 9.39539, 2.8365 9.12116, 2.72028 8.98375, 2.48727 8.98318, 2.27373 8.98375, 2.08193 9.04501, 1.9119 9.16696, 1.74244 9.28947, 1.58671 9.45894, 1.44473 9.67535, 1.30332 9.89233, 1.17622 10.1488, 1.06287 10.4448, 0.94951 10.7414, 0.855046 11.0568, 0.779475 11.3923, 0.710774 11.5578, 0.594554 11.6431, 0.430816 11.6488 L 0.222995 11.6488 C 0.0718527 11.6494, -0.00371855 11.5732, -0.00371855 11.4198 L -0.00371855 11.3557 C 0.0718527 11.0202, 0.18521 10.6772, 0.336352 10.3257, 0.487495 9.97477, 0.669553 9.65588, 0.883672 9.36848, 1.09779 9.08165, 1.34626 8.84349, 1.62908 8.65399, 1.9119 8.46506, 2.23594 8.37002, 2.60063 8.36945, 2.91551 8.37002, 3.18287 8.43758, 3.40271 8.57155, 3.62313 8.70609, 3.79145 8.88471, 3.90767 9.10742, 4.02389 9.33069, 4.08801 9.58203, 4.1006 9.86256 L 4.1006 9.92668 C 4.1006 10.19, 4.04736 10.4614, 3.9403 10.7419 L 2.4117 14.7907 C 2.23594 15.2859, 2.14777 15.7073, 2.14777 16.0548, 2.13518 16.0674, 2.12888 16.0674, 2.12888 16.0548, 2.12888 16.3182, 2.24853 16.4493, 2.48727 16.4487, 2.70139 16.4493, 2.8949 16.3852, 3.0678 16.2569, 3.24069 16.1287, 3.39813 15.9581, 3.53954 15.7439, 3.68095 15.5304, 3.80519 15.2739, 3.91225 14.9745, 4.01931 14.6756, 4.11663 14.3608, 4.2048 14.0304, 4.24259 13.8724, 4.35251 13.7928, 4.53457 13.7923 L 4.74239 13.7923 C 4.81166 13.7928, 4.88093 13.814, 4.94964 13.8564, 4.9691 13.9056, 4.98456 13.9486, 4.99715 13.9846, 4.99715 14.0218, 4.98456 14.0556, 4.95937 14.0854 Z" stroke="none" fill="#000000" />
			<rect />
		</svg>
	</g>
	<path d="M -129.574 0 L -77.7443 0" fill="none" stroke="#000000" stroke-width="6.07999992" stroke-linecap="round" stroke-linejoin="round" transform="matrix(0.263158 -7.94715e-008 7.94715e-008 0.263158 100.906 117.056)" />
	<path d="M 77.7443 0 L 129.574 0" fill="none" stroke="#000000" stroke-width="6.07999992" stroke-linecap="round" stroke-linejoin="round" transform="matrix(0.263158 -7.94715e-008 7.94715e-008 0.263158 100.906 117.056)" />
	<rect x="-77.7443161" y="-24.7976456" width="155.488632" height="49.5952911" stroke="none" fill="#FFFFFF" transform="matrix(0.263158 -7.94715e-008 7.94715e-008 0.263158 100.906 117.056)" />
	<path d="M -77.7443 -24.7976 L 77.7443 -24.7976, 77.7443 24.7976, -77.7443 24.7976 Z" fill="none" stroke="#000000" stroke-width="6.07999992" stroke-linecap="round" stroke-linejoin="round" transform="matrix(0.263158 -7.94715e-008 7.94715e-008 0.263158 100.906 117.056)" />
	<g transform="matrix(1 0 -0 1 212.51 105.848)">
		<svg width="402.051178" height="60.0856972">
			<defs />
			<path d="M 6.39232 19.0905 L 6.39232 15.2982, 0.779439 15.2982, 0.779439 13.9516, 6.39232 13.9516, 6.39232 10.5441, 1.3737 10.5441, 1.3737 9.21585, 6.39232 9.21585, 6.39232 5.89071, 1.10004 5.89071, 1.10004 4.52585, 6.39232 4.52585, 6.39232 1.8694, 7.87283 1.8694, 7.87283 19.0905 Z M 10.8631 19.0905 L 10.8631 1.8694, 12.3539 1.8694, 12.3539 4.52585, 17.6834 4.52585, 17.6834 5.89071, 12.3539 5.89071, 12.3539 9.21585, 17.4286 9.21585, 17.4286 10.5441, 12.3539 10.5441, 12.3539 13.9516, 18.0229 13.9516, 18.0229 15.2982, 12.3539 15.2982, 12.3539 19.0905 Z" stroke="none" fill="#000000" />
			<path d="M 20.9958 19.1546 C 20.8573 18.9348, 20.6374 18.6296, 20.3352 18.2386, 20.2035 18.0554, 20.0993 17.918, 20.0237 17.8264, 21.7035 17.2287, 23.0431 16.6287, 24.0433 16.027, 25.0435 15.4259, 25.8106 14.7583, 26.3454 14.0249, 26.8549 13.3293, 27.2139 12.4895, 27.4211 11.5059 L 20.2882 11.5059, 20.2882 10.141, 27.657 10.141 C 27.7389 9.25592, 27.7795 8.16014, 27.7795 6.85253 L 21.2598 6.85253, 21.2598 5.50598, 25.5622 5.50598 C 25.4179 5.32965, 25.2038 5.05771, 24.9204 4.69073, 24.1469 3.70201, 23.5653 2.97206, 23.1754 2.50145 L 24.4109 1.83276 C 25.2164 2.71271, 26.0402 3.69285, 26.8829 4.77317 L 25.6 5.50598, 29.7799 5.50598 C 30.7296 4.34035, 31.6291 3.1003, 32.4781 1.78696 L 33.9403 2.44649 C 33.2424 3.35678, 32.4248 4.377, 31.4871 5.50598 L 35.9217 5.50598, 35.9217 6.85253, 29.3081 6.85253 C 29.2829 8.16014, 29.2423 9.25592, 29.185 10.141 L 36.9408 10.141, 36.9408 11.5059, 29.4587 11.5059 C 30.0942 13.137, 30.9878 14.4074, 32.1386 15.3165, 33.3145 16.2577, 34.988 17.0026, 37.1578 17.5516, 37.0009 17.7777, 36.7776 18.1167, 36.4879 18.5684, 36.3815 18.7458, 36.2996 18.8769, 36.2423 18.9623, 34.0473 18.2294, 32.3556 17.3718, 31.1665 16.3883, 30.022 15.4425, 29.1381 14.2024, 28.5152 12.6692, 28.2135 13.6591, 27.7858 14.511, 27.2322 15.2249, 26.6471 15.9766, 25.8547 16.6665, 24.8545 17.2951, 23.8733 17.9123, 22.5874 18.5317, 20.9958 19.1546 Z" stroke="none" fill="#000000" />
			<path d="M 44.0891 19.1088 L 44.0891 15.7287, 39.2113 16.6447, 38.9943 15.2799 C 39.1329 15.2621, 39.3378 15.2346, 39.6081 15.198, 39.8783 15.1614, 40.0827 15.131, 40.2212 15.1058 L 40.2212 4.2144, 39.1546 4.2144, 39.1546 2.98694, 46.3917 2.98694, 46.3917 4.2144, 45.3629 4.2144, 45.3629 14.2448, 46.8257 13.9516, 46.8257 15.2432, 45.3629 15.5089, 45.3629 19.1088 Z M 46.7312 19.1088 C 46.5801 18.9136, 46.256 18.5168, 45.7591 17.918, 47.1995 16.9539, 48.2627 15.9703, 48.9486 14.9684, 49.6344 13.9797, 50.0712 12.7952, 50.2596 11.4143 L 46.335 11.4143, 46.335 10.1227, 50.373 10.1227 C 50.373 10.038, 50.3764 9.90629, 50.3827 9.72882, 50.389 9.51584, 50.3918 9.35096, 50.3918 9.23417 L 50.3918 6.88917, 46.8635 6.88917, 46.8635 5.59759, 51.4487 5.59759 C 52.1283 4.56592, 52.8422 3.32358, 53.5905 1.8694 L 54.9112 2.42817 C 54.4143 3.25316, 53.7479 4.30944, 52.9109 5.59759 L 55.7511 5.59759, 55.7511 6.88917, 51.826 6.88917, 51.826 9.04181 C 51.826 9.29886, 51.8105 9.65897, 51.779 10.1227 L 56.3265 10.1227, 56.3265 11.4143, 51.8638 11.4143 C 52.3046 13.0024, 52.8576 14.2453, 53.524 15.1425, 54.1721 16.0104, 55.1568 16.8589, 56.4776 17.689, 56.1129 18.1653, 55.8112 18.6021, 55.5719 18.9989, 54.3078 18.0709, 53.3454 17.1674, 52.6847 16.2875, 52.0115 15.3841, 51.4928 14.2848, 51.1281 12.9898, 50.8453 14.2608, 50.3701 15.3566, 49.7031 16.2783, 49.0493 17.1766, 48.0583 18.1195, 46.7312 19.1088 Z M 41.4945 14.8951 C 41.8282 14.8408, 42.3412 14.7555, 43.0328 14.6387, 43.4983 14.5597, 43.8504 14.499, 44.0891 14.4555 L 44.0891 11.854, 41.4945 11.854 Z M 41.4945 10.7181 L 44.0891 10.7181, 44.0891 8.04335, 41.4945 8.04335 Z M 41.4945 6.90749 L 44.0891 6.90749, 44.0891 4.2144, 41.4945 4.2144 Z M 49.2411 5.31362 C 48.7757 4.52642, 48.1751 3.59495, 47.4388 2.51977 L 48.6085 1.90604 C 49.2125 2.74935, 49.8417 3.67166, 50.4955 4.67241 Z" stroke="none" fill="#000000" />
			<path d="M 60.1823 19.2645 C 60.0563 18.8924, 59.8743 18.4831, 59.6349 18.0371, 62.1637 17.6403, 64.4377 17.1337, 66.4564 16.5165, 68.4505 15.9005, 70.5418 15.0669, 72.7305 14.0158 L 73.5704 15.0142 C 71.4069 16.1077, 69.2938 16.9814, 67.2304 17.634, 65.1488 18.2999, 62.7992 18.8432, 60.1823 19.2645 Z M 61.0221 16.4157 C 60.9088 16.0928, 60.717 15.7138, 60.4462 15.2799, 62.4156 14.8774, 64.1624 14.4274, 65.6875 13.9293, 67.2127 13.4318, 68.7899 12.798, 70.4193 12.028 L 71.2495 12.9898 C 69.4128 13.8268, 67.705 14.511, 66.1261 15.0417, 64.5099 15.5856, 62.8084 16.0436, 61.0221 16.4157 Z M 61.692 13.6494 C 61.5225 13.3019, 61.3118 12.9417, 61.0599 12.5685, 63.5887 11.9645, 66.0545 11.1189, 68.4567 10.0311 L 69.2302 10.9471 C 66.7839 12.1082, 64.2711 13.0087, 61.692 13.6494 Z M 74.8723 13.4387 C 73.4571 12.841, 72.2937 12.2147, 71.3817 11.5608, 70.4382 10.8899, 69.5611 10.0437, 68.7493 9.02349 L 65.2959 9.02349 C 64.5099 9.87881, 63.6133 10.6299, 62.6068 11.2769, 61.6702 11.8883, 60.4468 12.5295, 58.9371 13.2005, 58.7481 12.8593, 58.5031 12.4683, 58.2008 12.028, 59.3584 11.5643, 60.3431 11.0971, 61.1538 10.6265, 61.9845 10.1508, 62.7334 9.6166, 63.3998 9.02349 L 58.6634 9.02349, 58.6634 7.8693, 64.5316 7.8693 C 64.953 7.36893, 65.3022 6.92008, 65.5793 6.52276 L 67.0226 6.85253 C 66.8531 7.09756, 66.611 7.43649, 66.2961 7.8693 L 75.269 7.8693, 75.269 9.02349, 70.3157 9.02349 C 71.0142 9.74485, 71.7813 10.3494, 72.6178 10.8372, 73.4353 11.3261, 74.4326 11.7692, 75.6085 12.1654, 75.5582 12.2576, 75.4734 12.4013, 75.3538 12.5959, 75.1276 12.9692, 74.9673 13.2498, 74.8723 13.4387 Z M 73.0517 7.06321 L 71.9382 6.193 C 67.2081 6.22391, 63.9437 6.27601, 62.1448 6.34872, 61.5918 6.36761, 61.0571 6.41341, 60.5407 6.48612 L 59.9842 5.23118 C 60.6449 4.96897, 61.2076 4.70676, 61.6731 4.44341, 63.0128 3.61957, 64.2963 2.69153, 65.5226 1.65872 L 67.1829 2.17169 C 65.8369 3.09457, 64.3055 4.10219, 62.588 5.19454, 66.1169 5.15847, 68.7527 5.12813, 70.4949 5.10294 L 68.2964 3.54571, 69.2491 2.73046 C 71.08 3.95849, 72.671 5.07603, 74.0233 6.08307 Z" stroke="none" fill="#000000" />
			<path d="M 84.3702 18.7058 C 84.2385 18.1195, 84.1251 17.6524, 84.0307 17.3043, 85.2387 17.3415, 86.5154 17.3598, 87.8613 17.3592, 88.5661 17.3598, 89.063 17.2619, 89.3521 17.0661, 89.6292 16.8772, 89.8113 16.5199, 89.8995 15.9944, 89.9561 15.6102, 90.0157 14.9936, 90.0787 14.144 L 81.87 14.144, 82.3515 11.799 C 81.2133 12.4225, 79.7792 13.1158, 78.0491 13.8784, 77.9426 13.6162, 77.7445 13.2194, 77.4548 12.6875, 77.417 12.6211, 77.389 12.569, 77.3695 12.5318, 80.5905 11.2803, 83.3076 9.93377, 85.5215 8.4922 L 77.7096 8.4922, 77.7096 7.25557, 83.8515 7.25557, 83.8515 5.00218, 79.134 5.00218, 79.134 3.79304, 83.8515 3.79304, 83.8515 1.80528, 85.2856 1.80528, 85.2856 3.79304, 89.2107 3.79304, 89.2107 5.00218, 85.2856 5.00218, 85.2856 7.25557, 87.3426 7.25557 C 88.9027 6.12029, 90.5475 4.68844, 92.2771 2.95946 L 93.4467 3.81136 C 92.17 5.01477, 90.8367 6.16323, 89.4466 7.25557 L 94.6358 7.25557, 94.6358 8.4922, 87.7577 8.4922 C 87.0466 9.01203, 86.248 9.54332, 85.3612 10.0861 L 93.4278 10.0861, 93.4278 11.2952, 83.9173 11.2952, 83.5589 12.9532, 91.6445 12.9532 C 91.5632 14.2242, 91.4659 15.3016, 91.3525 16.1867, 91.2391 17.085, 90.9626 17.7136, 90.5218 18.0737, 90.0695 18.4401, 89.3018 18.6388, 88.2197 18.6691, 87.2384 18.6937, 85.9554 18.7058, 84.3702 18.7058 Z" stroke="none" fill="#000000" />
			<path d="M 97.784 19.2096 C 97.6397 19.0573, 97.3437 18.767, 96.8972 18.3394, 96.746 18.1991, 96.6453 18.1046, 96.5949 18.0554, 97.7966 17.1766, 98.7086 16.3676, 99.3309 15.628, 99.9853 14.8591, 100.47 14.0072, 100.784 13.0723, 101.074 12.2181, 101.284 11.0943, 101.416 9.70134, 101.511 8.58437, 101.571 7.37809, 101.596 6.08307 L 96.8783 6.08307, 96.8783 4.69989, 105.162 4.69989 C 105.011 4.26707, 104.728 3.53426, 104.313 2.50145, 104.232 2.2942, 104.171 2.14192, 104.134 2.04345 L 105.737 1.75032 C 106.234 2.93542, 106.606 3.86689, 106.851 4.54417 L 106.133 4.69989, 113.786 4.69989, 113.786 6.08307, 103.124 6.08307 C 103.099 7.24985, 103.052 8.27579, 102.982 9.16089 L 111.531 9.16089 C 111.468 11.4269, 111.348 13.473, 111.172 15.2982, 111.066 16.5079, 110.742 17.3535, 110.2 17.8356, 109.666 18.3062, 108.779 18.5535, 107.54 18.5775, 106.709 18.6021, 105.719 18.6142, 104.568 18.6142, 104.505 18.1195, 104.398 17.6128, 104.246 17.0936, 105.203 17.1308, 106.196 17.1491, 107.228 17.1485, 108.071 17.1491, 108.669 16.9934, 109.021 16.6819, 109.373 16.3705, 109.593 15.7963, 109.681 14.9593, 109.82 13.7261, 109.914 12.2547, 109.964 10.5441 L 102.841 10.5441 C 102.702 11.9003, 102.46 13.0425, 102.114 13.97, 101.756 14.9478, 101.234 15.8484, 100.548 16.6722, 99.8817 17.4726, 98.9599 18.3182, 97.784 19.2096 Z" stroke="none" fill="#000000" />
			<path d="M 116.957 18.8981 L 116.957 4.33348, 122.231 4.33348 C 122.527 3.3751, 122.753 2.50832, 122.91 1.732 L 124.495 1.90604 C 124.482 1.94326, 124.467 1.99535, 124.448 2.06177, 124.159 3.05164, 123.929 3.80907, 123.759 4.33348 L 132.043 4.33348, 132.043 16.4341 C 132.043 17.2407, 131.867 17.8264, 131.514 18.1928, 131.162 18.5592, 130.574 18.7579, 129.751 18.7882 L 127.231 18.8432 C 127.156 18.3852, 127.055 17.8785, 126.929 17.3226, 127.779 17.3718, 128.54 17.3964, 129.212 17.3959, 129.722 17.3964, 130.081 17.3048, 130.288 17.1216, 130.496 16.9384, 130.6 16.627, 130.6 16.1867 L 130.6 5.68003, 118.41 5.68003, 118.41 18.8981 Z M 120.881 14.8402 L 120.881 8.29983, 128.099 8.29983, 128.099 14.8402 Z M 122.297 13.5669 L 126.712 13.5669, 126.712 9.56393, 122.297 9.56393 Z" stroke="none" fill="#000000" />
			<rect />
		</svg>
	</g>
	<ellipse cx="562.78941631317139" cy="689.31859111785889" rx="15.199999809265137" ry="15.199999809265137" stroke="none" fill="#000000" transform="matrix(0.263158 0 0 0.263158 -119.381 -64.344)" />
	<ellipse cx="562.78940010070801" cy="689.31857490539551" rx="10.133333206176758" ry="10.133333206176758" stroke="none" fill="#FFFFFF" transform="matrix(0.263158 0 0 0.263158 -119.381 -64.344)" />
	<path d="M -52.6605 0 L 52.6605 0" fill="none" stroke="#000000" stroke-width="6.07999992" stroke-linecap="round" stroke-linejoin="round" transform="matrix(0.263158 0 0 0.263158 148.863 117.056)" />
	<ellipse cx="1071.9879636764526" cy="689.31859111785889" rx="15.199999809265137" ry="15.199999809265137" stroke="none" fill="#000000" transform="matrix(0.263158 0 0 0.263158 -119.381 -64.344)" />
	<ellipse cx="1071.9879474639893" cy="689.31857490539551" rx="10.133333206176758" ry="10.133333206176758" stroke="none" fill="#FFFFFF" transform="matrix(0.263158 0 0 0.263158 -119.381 -64.344)" />
	<g transform="matrix(1 0 -0 1 8.99998 105.848)">
		<svg width="30.0150681" height="32.9571342">
			<defs />
			<path d="M 8.46055 14.0579 C 8.38498 14.3579, 8.30025 14.6785, 8.20578 15.0203, 8.11189 15.3627, 7.98594 15.6798, 7.8285 15.973, 7.67163 16.2661, 7.47354 16.5197, 7.23423 16.7332, 6.9955 16.9468, 6.69665 17.0533, 6.33826 17.0533, 5.86021 17.0533, 5.47835 16.921, 5.19209 16.6554, 4.90584 16.3897, 4.74095 16.1195, 4.69687 15.8441, 4.48333 16.0892, 4.16444 16.352, 3.73964 16.6325, 3.31483 16.913, 2.86656 17.0533, 2.39481 17.0533, 1.89844 17.0533, 1.48223 16.9285, 1.14559 16.6783, 0.808958 16.4281, 0.546749 16.1132, 0.35782 15.7342, 0.131106 15.2831, 0.011452 14.7976, -0.00114328 14.2778 L -0.00114328 14.1403 C -0.00114328 13.6583, 0.0652679 13.1762, 0.196945 12.693, 0.348088 12.1623, 0.559344 11.6373, 0.829568 11.1181, 1.09979 10.5994, 1.45818 10.1167, 1.90474 9.67019, 2.26943 9.30436, 2.68622 8.99635, 3.15453 8.74559, 3.62284 8.4954, 4.09917 8.37002, 4.58351 8.36945, 5.00488 8.37002, 5.34782 8.48166, 5.61174 8.70437, 5.87624 8.92765, 6.04284 9.112, 6.11154 9.25799 L 6.07376 9.41371 C 6.11841 9.18814, 6.22375 9.01753, 6.39036 8.90131, 6.55696 8.78566, 6.72527 8.72727, 6.89474 8.7267, 7.08996 8.72727, 7.2537 8.78509, 7.38538 8.90074, 7.46725 8.99291, 7.51133 9.11486, 7.51705 9.26715, 7.51705 9.32268, 7.51076 9.38394, 7.49816 9.45035 L 6.14017 14.7449 C 6.07719 14.9957, 6.03311 15.231, 6.00792 15.4503, 5.99532 15.5607, 5.98903 15.6615, 5.98903 15.7525, 5.98903 15.8327, 5.99532 15.918, 6.00792 16.009, 6.02681 16.1562, 6.07089 16.2661, 6.14017 16.3394, 6.20944 16.4126, 6.30677 16.4493, 6.43215 16.4487, 6.5644 16.4493, 6.68863 16.3943, 6.80485 16.2844, 6.92164 16.1745, 7.0287 16.0113, 7.12603 15.7943, 7.22336 15.5779, 7.3161 15.318, 7.40427 15.0157, 7.49244 14.7134, 7.58347 14.3854, 7.67736 14.0304, 7.71514 13.8724, 7.8222 13.7928, 7.99853 13.7923 L 8.21552 13.7923 C 8.37925 13.7928, 8.46055 13.8598, 8.46055 13.9938 L 8.46055 14.0579 Z M 5.76288 10.687 C 5.73769 10.5776, 5.71594 10.4631, 5.69705 10.344, 5.67815 10.225, 5.64953 10.1076, 5.61174 9.9908, 5.51098 9.70454, 5.36785 9.46466, 5.18236 9.2723, 4.99687 9.07994, 4.76271 8.98375, 4.47989 8.98318, 4.21596 8.98375, 3.9549 9.07879, 3.69727 9.26772, 3.43964 9.45722, 3.20319 9.70111, 2.98908 9.99996, 2.68793 10.4219, 2.46179 10.8604, 2.31065 11.315, 2.15951 11.7702, 2.02096 12.2448, 1.89501 12.7388, 1.76963 13.2278, 1.66601 13.7012, 1.58356 14.1587, 1.53376 14.3911, 1.50856 14.611, 1.50856 14.8182, 1.50856 15.0386, 1.53376 15.2522, 1.58356 15.4594, 1.64081 15.7468, 1.74272 15.9838, 1.89043 16.1699, 2.03814 16.3565, 2.24424 16.4493, 2.50817 16.4487, 2.79786 16.4493, 3.08869 16.3485, 3.38067 16.147, 3.67322 15.9455, 3.94517 15.6981, 4.1965 15.4045, 4.29726 15.2831, 4.39344 15.1657, 4.48447 15.0524, 4.57607 14.9396, 4.65622 14.8188, 4.72492 14.69 L 5.76288 10.687 Z" stroke="none" fill="#000000" />
			<rect />
		</svg>
	</g>
	<g transform="matrix(1 0 -0 1 173.934 105.848)">
		<svg width="23.9688396" height="47.9999886">
			<defs />
			<path d="M 6.63739 12.748 C 6.48682 13.2799, 6.27442 13.8054, 6.00076 14.3241, 5.7271 14.8434, 5.37043 15.3226, 4.93017 15.7617, 4.56548 16.1287, 4.15213 16.4355, 3.68954 16.6829, 3.22752 16.9302, 2.74776 17.0533, 2.25082 17.0533, 1.77335 17.0533, 1.37374 16.9256, 1.05313 16.6691, 0.732527 16.4126, 0.487493 16.0949, 0.317458 15.7159, 0.116507 15.2648, 0.00944746 14.7793, -0.00314784 14.2594 L -0.00314784 14.1403 C -0.00314784 13.6583, 0.0598283 13.1791, 0.185208 12.7022 L 2.08136 5.32828 C 2.13174 5.12733, 2.16323 4.97447, 2.17582 4.87027 L 2.17582 4.84279 C 2.17582 4.7884, 2.16323 4.7489, 2.13804 4.72371, 2.06247 4.67562, 1.92106 4.64184, 1.71381 4.62352, 1.50656 4.6052, 1.26725 4.59604, 0.996454 4.59547, 0.902563 4.59604, 0.833289 4.56569, 0.789206 4.50386, 0.75142 4.4678, 0.732527 4.422, 0.732527 4.36646, 0.732527 4.33039, 0.74226 4.29662, 0.76058 4.2657 L 0.789206 4.11914 C 0.839587 3.97315, 0.952371 3.88155, 1.1287 3.84433 L 3.62828 3.64281, 3.66607 3.64281 C 3.74164 3.64338, 3.80461 3.668, 3.85442 3.71609, 3.87961 3.76533, 3.89221 3.81456, 3.89221 3.86265, 3.89221 3.89987, 3.88305 3.93364, 3.86416 3.96342 L 2.50559 9.23967 C 2.64414 9.09997, 2.8989 8.91963, 3.26989 8.69979, 3.64088 8.47994, 4.03076 8.37002, 4.43953 8.36945, 4.93647 8.37002, 5.35669 8.49827, 5.69905 8.75475, 6.04198 9.01123, 6.30419 9.32554, 6.48625 9.69767, 6.70037 10.15, 6.81373 10.6389, 6.82632 11.1633 L 6.82632 11.2915 C 6.82632 11.7621, 6.76334 12.2476, 6.63739 12.748 Z M 5.26967 9.96332 C 5.21356 9.67076, 5.1065 9.43432, 4.94906 9.25398, 4.79219 9.07421, 4.58781 8.98375, 4.3359 8.98318, 4.03419 8.98375, 3.73878 9.08165, 3.44909 9.27688, 3.15997 9.47268, 2.88974 9.71943, 2.63784 10.0183, 2.44319 10.269, 2.27315 10.5043, 2.12831 10.7236 L 1.60961 12.7388 C 1.48423 13.2278, 1.38977 13.6984, 1.32679 14.1495, 1.3016 14.3396, 1.28901 14.5194, 1.28901 14.69, 1.28901 14.959, 1.32049 15.2155, 1.38347 15.4594, 1.45274 15.7411, 1.56725 15.9764, 1.72755 16.1653, 1.88785 16.3548, 2.10025 16.4493, 2.36418 16.4487, 2.62868 16.4493, 2.89089 16.352, 3.15195 16.1562, 3.41302 15.9609, 3.64717 15.7165, 3.85442 15.4228, 4.15671 15.014, 4.38457 14.5795, 4.53857 14.118, 4.69315 13.6572, 4.83284 13.1854, 4.95822 12.7022, 5.08417 12.2018, 5.19467 11.7198, 5.28856 11.2549, 5.32635 11.0356, 5.34524 10.8221, 5.34524 10.6137, 5.34524 10.3944, 5.32005 10.1774, 5.26967 9.96332 Z" stroke="none" fill="#000000" />
			<rect />
		</svg>
	</g>
	<g transform="matrix(1 0 -0 1 96.1849 86.6412)">
		<svg width="32.9738617" height="32.9571342">
			<defs />
			<path d="M 9.41235 14.0854 C 9.34365 14.3671, 9.26178 14.6785, 9.16732 15.0203, 9.07285 15.3627, 8.9469 15.6798, 8.79003 15.973, 8.63316 16.2661, 8.43507 16.5197, 8.19577 16.7332, 7.95646 16.9468, 7.65761 17.0533, 7.29922 17.0533, 6.85953 17.0533, 6.504 16.9405, 6.23378 16.7149, 5.96355 16.4894, 5.79638 16.2569, 5.7334 16.0182, 5.51986 16.2815, 5.2336 16.5197, 4.87521 16.7332, 4.51682 16.9468, 4.10175 17.0533, 3.63 17.0533, 3.20234 17.0533, 2.82047 16.9743, 2.48384 16.8151, 2.1472 16.6571, 1.88156 16.4126, 1.6869 16.0823, 1.49798 15.7285, 1.40695 15.338, 1.41324 14.9098 L 1.41324 14.8365 C 1.42584 14.3911, 1.48252 13.9486, 1.58271 13.5083, 1.68347 13.0875, 1.83003 12.6238, 2.02182 12.1165, 2.21361 11.6099, 2.39739 11.1181, 2.57315 10.6412, 2.76208 10.1351, 2.85654 9.71943, 2.85654 9.39539, 2.85654 9.12116, 2.74032 8.98375, 2.50731 8.98318, 2.29376 8.98375, 2.10026 9.04501, 1.92736 9.16696, 1.75446 9.28947, 1.59759 9.45894, 1.45561 9.67535, 1.3142 9.89233, 1.1871 10.1488, 1.07375 10.4448, 0.960389 10.7414, 0.865925 11.0568, 0.790353 11.3923, 0.721652 11.5578, 0.605433 11.6431, 0.441695 11.6488 L 0.224714 11.6488 C 0.0735712 11.6494, -0.00200012 11.5732, -0.00200012 11.4198 L -0.00200012 11.3557 C 0.0861664 11.0202, 0.202958 10.6772, 0.347231 10.3257, 0.492076 9.97477, 0.674706 9.65588, 0.89455 9.36848, 1.11439 9.08165, 1.3663 8.84349, 1.64912 8.65399, 1.93194 8.46506, 2.25598 8.37002, 2.62067 8.36945, 2.93555 8.37002, 3.20405 8.43758, 3.42733 8.57155, 3.65061 8.70609, 3.82007 8.88471, 3.93629 9.10742, 4.05309 9.33069, 4.11721 9.58203, 4.1298 9.86256 L 4.1298 9.92668 C 4.1298 10.19, 4.07656 10.4614, 3.9695 10.7419, 3.78744 11.2188, 3.60653 11.706, 3.42733 12.2035, 3.24814 12.7016, 3.10845 13.1488, 3.00768 13.5455, 2.90692 13.9428, 2.83765 14.3361, 2.79986 14.7266, 2.77467 14.8308, 2.75921 14.9442, 2.75234 15.0655, 2.75234 15.3043, 2.79356 15.5396, 2.87543 15.7709, 2.93211 15.9792, 3.03574 16.1441, 3.18688 16.2661, 3.33802 16.3886, 3.51722 16.4493, 3.72447 16.4487, 4.13953 16.4493, 4.50136 16.3245, 4.80937 16.0737, 5.11738 15.8235, 5.38761 15.4903, 5.62005 15.0747, 5.63264 15.0266, 5.64237 14.9699, 5.64867 14.9058, 5.65497 14.8417, 5.66413 14.7758, 5.67672 14.7083 L 7.09197 9.24883 C 7.14865 9.02326, 7.26315 8.85723, 7.43605 8.75017, 7.60894 8.64368, 7.78356 8.58987, 7.95932 8.58929, 8.14195 8.58987, 8.29309 8.64483, 8.41218 8.75418, 8.49462 8.83433, 8.53526 8.94081, 8.53526 9.07478, 8.53526 9.14234, 8.52897 9.21276, 8.51637 9.28547 L 7.10113 14.7449 C 7.00037 15.1239, 6.94999 15.46, 6.94999 15.7525, 6.94999 15.8327, 6.95628 15.918, 6.96888 16.009, 7.00094 16.3027, 7.14865 16.4493, 7.41257 16.4487, 7.67707 16.4493, 7.90493 16.2237, 8.09672 15.7714, 8.28851 15.3197, 8.47572 14.7392, 8.65778 14.0304, 8.69557 13.8724, 8.80263 13.7928, 8.97839 13.7923 L 9.19537 13.7923 C 9.26464 13.7928, 9.33392 13.814, 9.40262 13.8564, 9.42781 13.9119, 9.4404 13.9577, 9.4404 13.9938, 9.4404 14.019, 9.43124 14.0493, 9.41235 14.0854 Z" stroke="none" fill="#000000" />
			<rect />
		</svg>
	</g>
	<g transform="matrix(1 0 -0 1 70.544 90.2423)">
		<svg width="119.936646" height="83.9999847">
			<defs />
			<polyline points="-5.628 0 5.628 0" fill="none" stroke="#000000" stroke-width="0.64319998" stroke-linecap="round" stroke-linejoin="round" transform="matrix(1 0 0 1 5.628 9.60638)" />
			<rect />
		</svg>
	</g>
	<g transform="matrix(1 0 -0 1 120.25 90.2423)">
		<svg width="119.936646" height="119.999977">
			<defs />
			<polyline points="-5.628 0 5.628 0" fill="none" stroke="#000000" stroke-width="0.64319998" stroke-linecap="round" stroke-linejoin="round" transform="matrix(1 0 0 1 5.628 9.60638)" />
			<polyline points="0 -5.628 0 5.628" fill="none" stroke="#000000" stroke-width="0.64319998" stroke-linecap="round" stroke-linejoin="round" transform="matrix(1 0 0 1 5.628 9.60638)" />
			<rect />
		</svg>
	</g>
	<path d="M -74.1506 0 L 74.15 0" fill="none" stroke="#000000" stroke-width="6.07999992" stroke-linecap="round" stroke-linejoin="round" transform="matrix(0.263158 0 0 0.263158 47.2947 39.4143)" />
	<path d="M 33.0748 0 L -33.074 0" fill="none" stroke="#000000" stroke-width="5.0666666" stroke-linecap="round" stroke-linejoin="round" marker-start="url(#CustomMarker-02)" transform="matrix(0.263158 0 0 0.263158 50.416 39.4143)" />
	<g transform="matrix(1 0 -0 1 52.9249 45.4136)">
		<svg width="18.0512524" height="45.0428467">
			<defs />
			<path d="M 4.85574 5.20004 C 4.79907 5.43248, 4.66853 5.62656, 4.46415 5.78228, 4.25976 5.938, 4.0382 6.01586, 3.79889 6.01529, 3.54756 6.01586, 3.35577 5.93056, 3.22352 5.75881, 3.13535 5.66148, 3.08841 5.5424, 3.08154 5.40156, 3.08154 5.31683, 3.09413 5.23095, 3.11932 5.14507, 3.17657 4.91378, 3.30882 4.7197, 3.51607 4.56398, 3.72332 4.40825, 3.9466 4.33039, 4.18591 4.32982, 4.43781 4.33039, 4.6296 4.41284, 4.76128 4.57715, 4.84945 4.69394, 4.89353 4.81874, 4.89353 4.95271, 4.89353 5.03859, 4.88093 5.12103, 4.85574 5.20004 Z M 4.95937 14.0854 C 4.89067 14.4037, 4.78361 14.738, 4.63876 15.089, 4.49449 15.4405, 4.31644 15.7594, 4.10576 16.0462, 3.89507 16.3336, 3.64775 16.5729, 3.36493 16.7647, 3.08211 16.9571, 2.75463 17.0533, 2.38365 17.0533, 2.06934 17.0533, 1.79911 16.9863, 1.5724 16.8518, 1.34569 16.7178, 1.17107 16.5409, 1.04855 16.321, 0.926037 16.1012, 0.864779 15.8567, 0.864779 15.5877, 0.852184 15.5762, 0.845886 15.5516, 0.845886 15.5144, 0.845886 15.2401, 0.905999 14.959, 1.02508 14.6716 L 2.55368 10.6412 C 2.74261 10.1351, 2.8365 9.71943, 2.8365 9.39539, 2.8365 9.12116, 2.72028 8.98375, 2.48727 8.98318, 2.27373 8.98375, 2.08193 9.04501, 1.9119 9.16696, 1.74244 9.28947, 1.58671 9.45894, 1.44473 9.67535, 1.30332 9.89233, 1.17622 10.1488, 1.06287 10.4448, 0.94951 10.7414, 0.855046 11.0568, 0.779475 11.3923, 0.710774 11.5578, 0.594554 11.6431, 0.430816 11.6488 L 0.222995 11.6488 C 0.0718527 11.6494, -0.00371855 11.5732, -0.00371855 11.4198 L -0.00371855 11.3557 C 0.0718527 11.0202, 0.18521 10.6772, 0.336352 10.3257, 0.487495 9.97477, 0.669553 9.65588, 0.883672 9.36848, 1.09779 9.08165, 1.34626 8.84349, 1.62908 8.65399, 1.9119 8.46506, 2.23594 8.37002, 2.60063 8.36945, 2.91551 8.37002, 3.18287 8.43758, 3.40271 8.57155, 3.62313 8.70609, 3.79145 8.88471, 3.90767 9.10742, 4.02389 9.33069, 4.08801 9.58203, 4.1006 9.86256 L 4.1006 9.92668 C 4.1006 10.19, 4.04736 10.4614, 3.9403 10.7419 L 2.4117 14.7907 C 2.23594 15.2859, 2.14777 15.7073, 2.14777 16.0548, 2.13518 16.0674, 2.12888 16.0674, 2.12888 16.0548, 2.12888 16.3182, 2.24853 16.4493, 2.48727 16.4487, 2.70139 16.4493, 2.8949 16.3852, 3.0678 16.2569, 3.24069 16.1287, 3.39813 15.9581, 3.53954 15.7439, 3.68095 15.5304, 3.80519 15.2739, 3.91225 14.9745, 4.01931 14.6756, 4.11663 14.3608, 4.2048 14.0304, 4.24259 13.8724, 4.35251 13.7928, 4.53457 13.7923 L 4.74239 13.7923 C 4.81166 13.7928, 4.88093 13.814, 4.94964 13.8564, 4.9691 13.9056, 4.98456 13.9486, 4.99715 13.9846, 4.99715 14.0218, 4.98456 14.0556, 4.95937 14.0854 Z" stroke="none" fill="#000000" />
			<rect />
		</svg>
	</g>
	<path d="M -129.574 0 L -77.7443 0" fill="none" stroke="#000000" stroke-width="6.07999992" stroke-linecap="round" stroke-linejoin="round" transform="matrix(0.263158 -7.94715e-008 7.94715e-008 0.263158 100.906 39.4143)" />
	<path d="M 77.7443 0 L 129.574 0" fill="none" stroke="#000000" stroke-width="6.07999992" stroke-linecap="round" stroke-linejoin="round" transform="matrix(0.263158 -7.94715e-008 7.94715e-008 0.263158 100.906 39.4143)" />
	<rect x="-77.7443161" y="-24.7976627" width="155.488632" height="49.5953255" stroke="none" fill="#FFFFFF" transform="matrix(0.263158 -7.94715e-008 7.94715e-008 0.263158 100.906 39.4143)" />
	<path d="M -77.7443 -24.7977 L 77.7443 -24.7977, 77.7443 24.7977, -77.7443 24.7977 Z" fill="none" stroke="#000000" stroke-width="6.07999992" stroke-linecap="round" stroke-linejoin="round" transform="matrix(0.263158 -7.94715e-008 7.94715e-008 0.263158 100.906 39.4143)" />
	<ellipse cx="562.78941631317139" cy="394.28163433074951" rx="15.199999809265137" ry="15.199999809265137" stroke="none" fill="#000000" transform="matrix(0.263158 0 0 0.263158 -119.381 -64.344)" />
	<ellipse cx="562.78940010070801" cy="394.28164863586426" rx="10.133333206176758" ry="10.133333206176758" stroke="none" fill="#FFFFFF" transform="matrix(0.263158 0 0 0.263158 -119.381 -64.344)" />
	<path d="M -52.6605 0 L 52.6605 0" fill="none" stroke="#000000" stroke-width="6.07999992" stroke-linecap="round" stroke-linejoin="round" transform="matrix(0.263158 0 0 0.263158 148.863 39.4143)" />
	<ellipse cx="1071.9879636764526" cy="394.28163433074951" rx="15.199999809265137" ry="15.199999809265137" stroke="none" fill="#000000" transform="matrix(0.263158 0 0 0.263158 -119.381 -64.344)" />
	<ellipse cx="1071.9879474639893" cy="394.28164863586426" rx="10.133333206176758" ry="10.133333206176758" stroke="none" fill="#FFFFFF" transform="matrix(0.263158 0 0 0.263158 -119.381 -64.344)" />
	<g transform="matrix(1 0 -0 1 8.99998 28.2069)">
		<svg width="30.0150681" height="32.9571342">
			<defs />
			<path d="M 8.46055 14.0579 C 8.38498 14.3579, 8.30025 14.6785, 8.20578 15.0203, 8.11189 15.3627, 7.98594 15.6798, 7.8285 15.973, 7.67163 16.2661, 7.47354 16.5197, 7.23423 16.7332, 6.9955 16.9468, 6.69665 17.0533, 6.33826 17.0533, 5.86021 17.0533, 5.47835 16.921, 5.19209 16.6554, 4.90584 16.3897, 4.74095 16.1195, 4.69687 15.8441, 4.48333 16.0892, 4.16444 16.352, 3.73964 16.6325, 3.31483 16.913, 2.86656 17.0533, 2.39481 17.0533, 1.89844 17.0533, 1.48223 16.9285, 1.14559 16.6783, 0.808958 16.4281, 0.546749 16.1132, 0.35782 15.7342, 0.131106 15.2831, 0.011452 14.7976, -0.00114328 14.2778 L -0.00114328 14.1403 C -0.00114328 13.6583, 0.0652679 13.1762, 0.196945 12.693, 0.348088 12.1623, 0.559344 11.6373, 0.829568 11.1181, 1.09979 10.5994, 1.45818 10.1167, 1.90474 9.67019, 2.26943 9.30436, 2.68622 8.99635, 3.15453 8.74559, 3.62284 8.4954, 4.09917 8.37002, 4.58351 8.36945, 5.00488 8.37002, 5.34782 8.48166, 5.61174 8.70437, 5.87624 8.92765, 6.04284 9.112, 6.11154 9.25799 L 6.07376 9.41371 C 6.11841 9.18814, 6.22375 9.01753, 6.39036 8.90131, 6.55696 8.78566, 6.72527 8.72727, 6.89474 8.7267, 7.08996 8.72727, 7.2537 8.78509, 7.38538 8.90074, 7.46725 8.99291, 7.51133 9.11486, 7.51705 9.26715, 7.51705 9.32268, 7.51076 9.38394, 7.49816 9.45035 L 6.14017 14.7449 C 6.07719 14.9957, 6.03311 15.231, 6.00792 15.4503, 5.99532 15.5607, 5.98903 15.6615, 5.98903 15.7525, 5.98903 15.8327, 5.99532 15.918, 6.00792 16.009, 6.02681 16.1562, 6.07089 16.2661, 6.14017 16.3394, 6.20944 16.4126, 6.30677 16.4493, 6.43215 16.4487, 6.5644 16.4493, 6.68863 16.3943, 6.80485 16.2844, 6.92164 16.1745, 7.0287 16.0113, 7.12603 15.7943, 7.22336 15.5779, 7.3161 15.318, 7.40427 15.0157, 7.49244 14.7134, 7.58347 14.3854, 7.67736 14.0304, 7.71514 13.8724, 7.8222 13.7928, 7.99853 13.7923 L 8.21552 13.7923 C 8.37925 13.7928, 8.46055 13.8598, 8.46055 13.9938 L 8.46055 14.0579 Z M 5.76288 10.687 C 5.73769 10.5776, 5.71594 10.4631, 5.69705 10.344, 5.67815 10.225, 5.64953 10.1076, 5.61174 9.9908, 5.51098 9.70454, 5.36785 9.46466, 5.18236 9.2723, 4.99687 9.07994, 4.76271 8.98375, 4.47989 8.98318, 4.21596 8.98375, 3.9549 9.07879, 3.69727 9.26772, 3.43964 9.45722, 3.20319 9.70111, 2.98908 9.99996, 2.68793 10.4219, 2.46179 10.8604, 2.31065 11.315, 2.15951 11.7702, 2.02096 12.2448, 1.89501 12.7388, 1.76963 13.2278, 1.66601 13.7012, 1.58356 14.1587, 1.53376 14.3911, 1.50856 14.611, 1.50856 14.8182, 1.50856 15.0386, 1.53376 15.2522, 1.58356 15.4594, 1.64081 15.7468, 1.74272 15.9838, 1.89043 16.1699, 2.03814 16.3565, 2.24424 16.4493, 2.50817 16.4487, 2.79786 16.4493, 3.08869 16.3485, 3.38067 16.147, 3.67322 15.9455, 3.94517 15.6981, 4.1965 15.4045, 4.29726 15.2831, 4.39344 15.1657, 4.48447 15.0524, 4.57607 14.9396, 4.65622 14.8188, 4.72492 14.69 L 5.76288 10.687 Z" stroke="none" fill="#000000" />
			<rect />
		</svg>
	</g>
	<g transform="matrix(1 0 -0 1 173.934 28.2069)">
		<svg width="23.9688396" height="47.9999886">
			<defs />
			<path d="M 6.63739 12.748 C 6.48682 13.2799, 6.27442 13.8054, 6.00076 14.3241, 5.7271 14.8434, 5.37043 15.3226, 4.93017 15.7617, 4.56548 16.1287, 4.15213 16.4355, 3.68954 16.6829, 3.22752 16.9302, 2.74776 17.0533, 2.25082 17.0533, 1.77335 17.0533, 1.37374 16.9256, 1.05313 16.6691, 0.732527 16.4126, 0.487493 16.0949, 0.317458 15.7159, 0.116507 15.2648, 0.00944746 14.7793, -0.00314784 14.2594 L -0.00314784 14.1403 C -0.00314784 13.6583, 0.0598283 13.1791, 0.185208 12.7022 L 2.08136 5.32828 C 2.13174 5.12733, 2.16323 4.97447, 2.17582 4.87027 L 2.17582 4.84279 C 2.17582 4.7884, 2.16323 4.7489, 2.13804 4.72371, 2.06247 4.67562, 1.92106 4.64184, 1.71381 4.62352, 1.50656 4.6052, 1.26725 4.59604, 0.996454 4.59547, 0.902563 4.59604, 0.833289 4.56569, 0.789206 4.50386, 0.75142 4.4678, 0.732527 4.422, 0.732527 4.36646, 0.732527 4.33039, 0.74226 4.29662, 0.76058 4.2657 L 0.789206 4.11914 C 0.839587 3.97315, 0.952371 3.88155, 1.1287 3.84433 L 3.62828 3.64281, 3.66607 3.64281 C 3.74164 3.64338, 3.80461 3.668, 3.85442 3.71609, 3.87961 3.76533, 3.89221 3.81456, 3.89221 3.86265, 3.89221 3.89987, 3.88305 3.93364, 3.86416 3.96342 L 2.50559 9.23967 C 2.64414 9.09997, 2.8989 8.91963, 3.26989 8.69979, 3.64088 8.47994, 4.03076 8.37002, 4.43953 8.36945, 4.93647 8.37002, 5.35669 8.49827, 5.69905 8.75475, 6.04198 9.01123, 6.30419 9.32554, 6.48625 9.69767, 6.70037 10.15, 6.81373 10.6389, 6.82632 11.1633 L 6.82632 11.2915 C 6.82632 11.7621, 6.76334 12.2476, 6.63739 12.748 Z M 5.26967 9.96332 C 5.21356 9.67076, 5.1065 9.43432, 4.94906 9.25398, 4.79219 9.07421, 4.58781 8.98375, 4.3359 8.98318, 4.03419 8.98375, 3.73878 9.08165, 3.44909 9.27688, 3.15997 9.47268, 2.88974 9.71943, 2.63784 10.0183, 2.44319 10.269, 2.27315 10.5043, 2.12831 10.7236 L 1.60961 12.7388 C 1.48423 13.2278, 1.38977 13.6984, 1.32679 14.1495, 1.3016 14.3396, 1.28901 14.5194, 1.28901 14.69, 1.28901 14.959, 1.32049 15.2155, 1.38347 15.4594, 1.45274 15.7411, 1.56725 15.9764, 1.72755 16.1653, 1.88785 16.3548, 2.10025 16.4493, 2.36418 16.4487, 2.62868 16.4493, 2.89089 16.352, 3.15195 16.1562, 3.41302 15.9609, 3.64717 15.7165, 3.85442 15.4228, 4.15671 15.014, 4.38457 14.5795, 4.53857 14.118, 4.69315 13.6572, 4.83284 13.1854, 4.95822 12.7022, 5.08417 12.2018, 5.19467 11.7198, 5.28856 11.2549, 5.32635 11.0356, 5.34524 10.8221, 5.34524 10.6137, 5.34524 10.3944, 5.32005 10.1774, 5.26967 9.96332 Z" stroke="none" fill="#000000" />
			<rect />
		</svg>
	</g>
	<g transform="matrix(1 0 -0 1 96.1849 8.99998)">
		<svg width="32.9738617" height="32.9571342">
			<defs />
			<path d="M 9.41235 14.0854 C 9.34365 14.3671, 9.26178 14.6785, 9.16732 15.0203, 9.07285 15.3627, 8.9469 15.6798, 8.79003 15.973, 8.63316 16.2661, 8.43507 16.5197, 8.19577 16.7332, 7.95646 16.9468, 7.65761 17.0533, 7.29922 17.0533, 6.85953 17.0533, 6.504 16.9405, 6.23378 16.7149, 5.96355 16.4894, 5.79638 16.2569, 5.7334 16.0182, 5.51986 16.2815, 5.2336 16.5197, 4.87521 16.7332, 4.51682 16.9468, 4.10175 17.0533, 3.63 17.0533, 3.20234 17.0533, 2.82047 16.9743, 2.48384 16.8151, 2.1472 16.6571, 1.88156 16.4126, 1.6869 16.0823, 1.49798 15.7285, 1.40695 15.338, 1.41324 14.9098 L 1.41324 14.8365 C 1.42584 14.3911, 1.48252 13.9486, 1.58271 13.5083, 1.68347 13.0875, 1.83003 12.6238, 2.02182 12.1165, 2.21361 11.6099, 2.39739 11.1181, 2.57315 10.6412, 2.76208 10.1351, 2.85654 9.71943, 2.85654 9.39539, 2.85654 9.12116, 2.74032 8.98375, 2.50731 8.98318, 2.29376 8.98375, 2.10026 9.04501, 1.92736 9.16696, 1.75446 9.28947, 1.59759 9.45894, 1.45561 9.67535, 1.3142 9.89233, 1.1871 10.1488, 1.07375 10.4448, 0.960389 10.7414, 0.865925 11.0568, 0.790353 11.3923, 0.721652 11.5578, 0.605433 11.6431, 0.441695 11.6488 L 0.224714 11.6488 C 0.0735712 11.6494, -0.00200012 11.5732, -0.00200012 11.4198 L -0.00200012 11.3557 C 0.0861664 11.0202, 0.202958 10.6772, 0.347231 10.3257, 0.492076 9.97477, 0.674706 9.65588, 0.89455 9.36848, 1.11439 9.08165, 1.3663 8.84349, 1.64912 8.65399, 1.93194 8.46506, 2.25598 8.37002, 2.62067 8.36945, 2.93555 8.37002, 3.20405 8.43758, 3.42733 8.57155, 3.65061 8.70609, 3.82007 8.88471, 3.93629 9.10742, 4.05309 9.33069, 4.11721 9.58203, 4.1298 9.86256 L 4.1298 9.92668 C 4.1298 10.19, 4.07656 10.4614, 3.9695 10.7419, 3.78744 11.2188, 3.60653 11.706, 3.42733 12.2035, 3.24814 12.7016, 3.10845 13.1488, 3.00768 13.5455, 2.90692 13.9428, 2.83765 14.3361, 2.79986 14.7266, 2.77467 14.8308, 2.75921 14.9442, 2.75234 15.0655, 2.75234 15.3043, 2.79356 15.5396, 2.87543 15.7709, 2.93211 15.9792, 3.03574 16.1441, 3.18688 16.2661, 3.33802 16.3886, 3.51722 16.4493, 3.72447 16.4487, 4.13953 16.4493, 4.50136 16.3245, 4.80937 16.0737, 5.11738 15.8235, 5.38761 15.4903, 5.62005 15.0747, 5.63264 15.0266, 5.64237 14.9699, 5.64867 14.9058, 5.65497 14.8417, 5.66413 14.7758, 5.67672 14.7083 L 7.09197 9.24883 C 7.14865 9.02326, 7.26315 8.85723, 7.43605 8.75017, 7.60894 8.64368, 7.78356 8.58987, 7.95932 8.58929, 8.14195 8.58987, 8.29309 8.64483, 8.41218 8.75418, 8.49462 8.83433, 8.53526 8.94081, 8.53526 9.07478, 8.53526 9.14234, 8.52897 9.21276, 8.51637 9.28547 L 7.10113 14.7449 C 7.00037 15.1239, 6.94999 15.46, 6.94999 15.7525, 6.94999 15.8327, 6.95628 15.918, 6.96888 16.009, 7.00094 16.3027, 7.14865 16.4493, 7.41257 16.4487, 7.67707 16.4493, 7.90493 16.2237, 8.09672 15.7714, 8.28851 15.3197, 8.47572 14.7392, 8.65778 14.0304, 8.69557 13.8724, 8.80263 13.7928, 8.97839 13.7923 L 9.19537 13.7923 C 9.26464 13.7928, 9.33392 13.814, 9.40262 13.8564, 9.42781 13.9119, 9.4404 13.9577, 9.4404 13.9938, 9.4404 14.019, 9.43124 14.0493, 9.41235 14.0854 Z" stroke="none" fill="#000000" />
			<rect />
		</svg>
	</g>
	<g transform="matrix(1 0 -0 1 70.544 12.601)">
		<svg width="119.936646" height="119.999977">
			<defs />
			<polyline points="-5.628 0 5.628 0" fill="none" stroke="#000000" stroke-width="0.64319998" stroke-linecap="round" stroke-linejoin="round" transform="matrix(1 0 0 1 5.628 9.60638)" />
			<polyline points="0 -5.628 0 5.628" fill="none" stroke="#000000" stroke-width="0.64319998" stroke-linecap="round" stroke-linejoin="round" transform="matrix(1 0 0 1 5.628 9.60638)" />
			<rect />
		</svg>
	</g>
	<g transform="matrix(1 0 -0 1 120.25 12.601)">
		<svg width="119.936646" height="83.9999847">
			<defs />
			<polyline points="-5.628 0 5.628 0" fill="none" stroke="#000000" stroke-width="0.64319998" stroke-linecap="round" stroke-linejoin="round" transform="matrix(1 0 0 1 5.628 9.60638)" />
			<rect />
		</svg>
	</g>
</svg>
