<?xml version="1.0"?>
<svg xmlns="http://www.w3.org/2000/svg" xmlns:xlink="http://www.w3.org/1999/xlink" width="306.838989" height="220.852097">
	<defs>
		<marker id="CustomMarker-01" markerUnits="strokeWidth" markerWidth="14.25" markerHeight="13.5" viewBox="-14.25 -6.75 14.25 13.5" orient="auto-start-reverse">
			<path d="M -9.5 -4.5 L 0 -0, -9.5 4.5" fill="none" stroke="#000000" stroke-linejoin="round" />
		</marker>
		<marker id="CustomMarker-02" markerUnits="strokeWidth" markerWidth="14.25" markerHeight="13.5" viewBox="-14.25 -6.75 14.25 13.5" orient="auto-start-reverse">
			<path d="M -9.5 -4.5 L 0 -0, -9.5 4.5" fill="none" stroke="#000000" stroke-linejoin="round" />
		</marker>
		<marker id="CustomMarker-03" markerUnits="strokeWidth" markerWidth="14.25" markerHeight="13.5" viewBox="-14.25 -6.75 14.25 13.5" orient="auto-start-reverse">
			<path d="M -9.5 -4.5 L 0 -0, -9.5 4.5" fill="none" stroke="#000000" stroke-linejoin="round" />
		</marker>
	</defs>
	<path d="M -204.523 0 L 204.523 0" fill="none" stroke="#000000" stroke-width="2.4000001" stroke-linecap="round" stroke-linejoin="round" transform="matrix(0.555556 0 0 0.555556 153.322 212.352)" />
	<path d="M -87.1129 0 L 87.1133 0" fill="none" stroke="#000000" stroke-width="2.4000001" stroke-linecap="round" stroke-linejoin="round" transform="matrix(0.555556 0 0 0.555556 88.0937 40.3901)" />
	<path d="M 0 84.4496 L 0 -84.4494" fill="none" stroke="#000000" stroke-width="2.4000001" stroke-linecap="round" stroke-linejoin="round" transform="matrix(0.555556 0 0 0.555556 266.946 87.3064)" />
	<path d="M 0 28.9385 L 0 -28.9385" fill="none" stroke="#000000" stroke-width="2.4000001" stroke-linecap="round" stroke-linejoin="round" transform="matrix(0.555556 0 0 0.555556 266.946 196.275)" />
	<path d="M -30.4738 -8.19863 L 30.4738 -8.19863, 30.4738 8.19863, -30.4738 8.19863 Z" fill="none" stroke="#000000" stroke-width="2.69999981" stroke-linecap="round" stroke-linejoin="round" transform="matrix(0.555556 0 -0 0.555556 153.322 40.3901)" />
	<path d="M -86.8242 0 L 86.8236 0" fill="none" stroke="#000000" stroke-width="2.4000001" stroke-linecap="round" stroke-linejoin="round" transform="matrix(0.555556 0 0 0.555556 218.711 40.3901)" />
	<g transform="matrix(1 0 -0 1 48.7339 121.856)">
		<svg width="119.936646" height="119.999977">
			<defs />
			<polyline points="-5.628 0 5.628 0" fill="none" stroke="#000000" stroke-width="0.64319998" stroke-linecap="round" stroke-linejoin="round" transform="matrix(1 0 0 1 5.628 9.60638)" />
			<polyline points="0 -5.628 0 5.628" fill="none" stroke="#000000" stroke-width="0.64319998" stroke-linecap="round" stroke-linejoin="round" transform="matrix(1 0 0 1 5.628 9.60638)" />
			<rect />
		</svg>
	</g>
	<g transform="matrix(1 0 -0 1 48.2161 173.103)">
		<svg width="119.936646" height="83.9999847">
			<defs />
			<polyline points="-5.628 0 5.628 0" fill="none" stroke="#000000" stroke-width="0.64319998" stroke-linecap="round" stroke-linejoin="round" transform="matrix(1 0 0 1 5.628 9.60638)" />
			<rect />
		</svg>
	</g>
	<path d="M -41.3781 0 L 0 -25.4636, 41.3781 0, 0 25.4636 Z" fill="none" stroke="#000000" stroke-width="2.4000001" stroke-linecap="round" stroke-linejoin="round" transform="matrix(4.19433e-008 0.555556 -0.555556 4.19433e-008 39.6977 157.211)" />
	<path d="M 0 154.766 L 0 -154.766" fill="none" stroke="#000000" stroke-width="2.4000001" stroke-linecap="round" stroke-linejoin="round" transform="matrix(0.555556 0 0 0.555556 39.6977 126.371)" />
	<path d="M -41.3781 0 L 0 -25.4632, 41.3781 0, 0 25.4632 Z" fill="none" stroke="#000000" stroke-width="2.4000001" stroke-linecap="round" stroke-linejoin="round" transform="matrix(4.19433e-008 0.555556 -0.555556 4.19433e-008 266.946 157.211)" />
	<path d="M -25.4633 0 L 25.463 0" fill="none" stroke="#000000" stroke-width="2.4000001" stroke-linecap="round" stroke-linejoin="round" transform="matrix(0.555556 0 0 0.555556 266.946 157.086)" />
	<path d="M 28.7021 -0 C 28.7021 15.8519, 15.8518 28.7023, -0 28.7023, -15.8518 28.7023, -28.7021 15.8519, -28.7021 -0, -28.7021 -15.8519, -15.8518 -28.7023, -0 -28.7023, 15.8518 -28.7023, 28.7021 -15.8519, 28.7021 -0 Z" fill="none" stroke="#000000" stroke-width="2.4000001" stroke-linecap="round" stroke-linejoin="round" transform="matrix(0.555556 0 -0 0.555556 153.322 99.5076)" />
	<path d="M 0 -28.7025 L 0 28.7018" fill="none" stroke="#000000" stroke-width="2.4000001" stroke-linecap="round" stroke-linejoin="round" transform="matrix(0.555556 0 0 0.555556 153.322 99.5076)" />
	<path d="M -87.9105 0 L 87.9103 0" fill="none" stroke="#000000" stroke-width="2.4000001" stroke-linecap="round" stroke-linejoin="round" transform="matrix(0.555556 0 0 0.555556 88.5369 99.5076)" />
	<path d="M -87.911 0 L 87.9106 0" fill="none" stroke="#000000" stroke-width="2.4000001" stroke-linecap="round" stroke-linejoin="round" transform="matrix(0.555556 0 0 0.555556 218.107 99.5076)" />
	<ellipse cx="283.30077505111694" cy="513.34679555892944" rx="4.7249999046325684" ry="4.7249999046325684" stroke="none" fill="#000000" transform="matrix(0.555556 0 0 0.555556 -117.692 -185.685)" />
	<ellipse cx="692.34755849838257" cy="513.34679555892944" rx="4.7249999046325684" ry="4.7249999046325684" stroke="none" fill="#000000" transform="matrix(0.555556 0 0 0.555556 -117.692 -185.685)" />
	<path d="M 0 -8.50671 L 0 8.50616" fill="none" stroke="#000000" stroke-width="1.92000008" stroke-linecap="round" stroke-linejoin="round" marker-end="url(#CustomMarker-01)" transform="matrix(0.555556 0 0 0.555556 266.946 196.275)" />
	<g transform="matrix(1 0 -0 1 234.267 180.284)">
		<svg width="66.0351563" height="54.0428391">
			<defs />
			<path d="M 7.60694 16.7669 L 0.0808844 16.7669, 0.0808844 16.2732 C 0.0808844 16.2379, 0.0993994 16.184, 0.136429 16.1116 L 3.15998 12.826 C 3.51737 12.4316, 3.87926 12.0277, 4.24619 11.6147, 4.61312 11.2018, 4.9419 10.7799, 5.23141 10.349, 5.52092 9.91808, 5.75207 9.47372, 5.92488 9.01589, 6.09769 8.55807, 6.18353 8.0778, 6.18353 7.57453, 6.18353 7.15037, 6.12798 6.7537, 6.01689 6.38565, 5.9058 6.01759, 5.7459 5.69442, 5.53607 5.41613, 5.32679 5.13785, 5.06478 4.91343, 4.75058 4.74286, 4.43639 4.5723, 4.07226 4.48702, 3.65932 4.48646, 3.04328 4.48702, 2.49905 4.67105, 2.0272 5.0391, 1.55591 5.40716, 1.24284 5.8128, 1.08855 6.25492, 1.05825 6.26726, 1.10762 6.27343, 1.23667 6.27287 L 1.39376 6.27287 C 1.57891 6.31551, 1.73882 6.38004, 1.87459 6.46644, 2.01037 6.5534, 2.12426 6.67291, 2.21684 6.82552, 2.30941 6.97812, 2.35542 7.16215, 2.35542 7.37704, 2.35542 7.73668, 2.23872 8.01216, 2.0042 8.20348, 1.76967 8.39536, 1.50766 8.49074, 1.21815 8.49018, 0.940989 8.49074, 0.681779 8.39536, 0.441646 8.20348, 0.201512 8.01216, 0.0808844 7.73668, 0.0808844 7.37704, 0.0808844 6.87489, 0.179631 6.39911, 0.377124 5.95026, 0.574617 5.50142, 0.842242 5.1126, 1.18112 4.78326, 1.52 4.45448, 1.9206 4.19415, 2.38291 4.00226, 2.84522 3.81094, 3.33559 3.715, 3.85345 3.71444, 4.49474 3.715, 5.08217 3.80926, 5.61518 3.99778, 6.14818 4.18629, 6.60264 4.45728, 6.97855 4.81019, 7.35446 5.16366, 7.64902 5.57211, 7.86166 6.03554, 8.0743 6.49954, 8.18034 7.01235, 8.18034 7.57453, 8.18034 8.19731, 8.03895 8.77071, 7.75506 9.29418, 7.47172 9.81821, 7.1205 10.2985, 6.70139 10.735, 6.28228 11.172, 5.83679 11.5833, 5.36494 11.9693, 4.89365 12.3553, 4.46669 12.7307, 4.08461 13.0954 L 1.95763 15.0972, 4.74104 15.0972 C 5.1293 15.0978, 5.49174 15.095, 5.82726 15.0888, 6.16333 15.0832, 6.44835 15.0708, 6.68287 15.0529, 6.9174 15.0349, 7.03746 15.0232, 7.04307 15.0164, 7.09245 14.9749, 7.13901 14.8913, 7.18222 14.7656, 7.22542 14.64, 7.26525 14.4918, 7.30228 14.3213, 7.33931 14.1507, 7.37634 13.9773, 7.41337 13.8006, 7.4504 13.6244, 7.48407 13.4309, 7.51492 13.221 L 8.19885 13.221 Z" stroke="none" fill="#000000" />
			<path d="M 15.0261 5.20004 C 14.9694 5.43248, 14.8389 5.62656, 14.6345 5.78228, 14.4301 5.938, 14.2086 6.01586, 13.9693 6.01529, 13.7179 6.01586, 13.5261 5.93056, 13.3939 5.75881, 13.3057 5.66148, 13.2588 5.5424, 13.2519 5.40156, 13.2519 5.31683, 13.2645 5.23095, 13.2897 5.14507, 13.3469 4.91378, 13.4792 4.7197, 13.6864 4.56398, 13.8937 4.40825, 14.117 4.33039, 14.3563 4.32982, 14.6082 4.33039, 14.8 4.41284, 14.9316 4.57715, 15.0198 4.69394, 15.0639 4.81874, 15.0639 4.95271, 15.0639 5.03859, 15.0513 5.12103, 15.0261 5.20004 Z M 15.1297 14.0854 C 15.061 14.4037, 14.954 14.738, 14.8091 15.089, 14.6649 15.4405, 14.4868 15.7594, 14.2761 16.0462, 14.0654 16.3336, 13.8181 16.5729, 13.5353 16.7647, 13.2525 16.9571, 12.925 17.0533, 12.554 17.0533, 12.2397 17.0533, 11.9695 16.9863, 11.7428 16.8518, 11.516 16.7178, 11.3414 16.5409, 11.2189 16.321, 11.0964 16.1012, 11.0351 15.8567, 11.0351 15.5877, 11.0225 15.5762, 11.0162 15.5516, 11.0162 15.5144, 11.0162 15.2401, 11.0764 14.959, 11.1954 14.6716 L 12.724 10.6412 C 12.913 10.1351, 13.0069 9.71943, 13.0069 9.39539, 13.0069 9.12116, 12.8906 8.98375, 12.6576 8.98318, 12.4441 8.98375, 12.2523 9.04501, 12.0823 9.16696, 11.9128 9.28947, 11.7571 9.45894, 11.6151 9.67535, 11.4737 9.89233, 11.3466 10.1488, 11.2332 10.4448, 11.1199 10.7414, 11.0254 11.0568, 10.9498 11.3923, 10.8811 11.5578, 10.7649 11.6431, 10.6012 11.6488 L 10.3934 11.6488 C 10.2422 11.6494, 10.1666 11.5732, 10.1666 11.4198 L 10.1666 11.3557 C 10.2422 11.0202, 10.3556 10.6772, 10.5067 10.3257, 10.6579 9.97477, 10.8399 9.65588, 11.054 9.36848, 11.2682 9.08165, 11.5166 8.84349, 11.7994 8.65399, 12.0823 8.46506, 12.4063 8.37002, 12.771 8.36945, 13.0859 8.37002, 13.3532 8.43758, 13.5731 8.57155, 13.7935 8.70609, 13.9618 8.88471, 14.078 9.10742, 14.1942 9.33069, 14.2584 9.58203, 14.271 9.86256 L 14.271 9.92668 C 14.271 10.19, 14.2177 10.4614, 14.1107 10.7419 L 12.5821 14.7907 C 12.4063 15.2859, 12.3181 15.7073, 12.3181 16.0548, 12.3055 16.0674, 12.2992 16.0674, 12.2992 16.0548, 12.2992 16.3182, 12.4189 16.4493, 12.6576 16.4487, 12.8717 16.4493, 13.0653 16.3852, 13.2382 16.2569, 13.4111 16.1287, 13.5685 15.9581, 13.7099 15.7439, 13.8513 15.5304, 13.9755 15.2739, 14.0826 14.9745, 14.1897 14.6756, 14.287 14.3608, 14.3752 14.0304, 14.4129 13.8724, 14.5229 13.7928, 14.7049 13.7923 L 14.9127 13.7923 C 14.982 13.7928, 15.0513 13.814, 15.12 13.8564, 15.1395 13.9056, 15.1549 13.9486, 15.1675 13.9846, 15.1675 14.0218, 15.1549 14.0556, 15.1297 14.0854 Z" stroke="none" fill="#000000" />
			<path d="M 2.37267 3.19713 C 1.72472 3.17661, 1.09441 3.16635, 0.481416 3.16635, -0.131261 3.16635, -0.761571 3.17661, -1.40951 3.19713 L -1.40951 2.75598, -1.04499 2.75598 C -0.928927 2.7563, -0.819601 2.75469, -0.717648 2.75117, -0.615375 2.74796, -0.518552 2.7393, -0.426859 2.72552, -0.335166 2.71205, -0.255976 2.69827, -0.18929 2.68416, -0.132864 2.67422, -0.086376 2.6428, -0.0495062 2.58958, -0.012316 2.53668, 0.00595856 2.47769, 0.00595856 2.41229 L 0.00595856 -3.36887 C -0.169733 -3.28295, -0.386463 -3.21787, -0.643588 -3.17362, -0.900714 -3.12906, -1.18221 -3.10694, -1.4887 -3.10726 L -1.4887 -3.54328 C -1.06615 -3.54296, -0.675969 -3.59329, -0.318494 -3.69429, 0.0389807 -3.79496, 0.348044 -3.98411, 0.608376 -4.26144 L 0.772206 -4.26144 C 0.888265 -4.26112, 0.946294 -4.20469, 0.946294 -4.09216 L 0.946294 2.41229 C 0.946294 2.4809, 0.963928 2.54085, 0.999194 2.59215, 1.03446 2.64344, 1.08576 2.67422, 1.15244 2.68416, 1.20887 2.69827, 1.28133 2.71205, 1.36917 2.72552, 1.45702 2.7393, 1.55641 2.74796, 1.66734 2.75117, 1.77827 2.75469, 1.88663 2.7563, 1.99243 2.75598 L 2.37267 2.75598, 2.37267 3.19713 Z" stroke="none" fill="#000000" transform="matrix(1.12 0 0 1 18.0645 16.3063)" />
			<rect />
		</svg>
	</g>
	<g transform="matrix(1 0 -0 1 66.4902 145.945)">
		<svg width="80.9577713" height="54.0428391">
			<defs />
			<path d="M 8.50312 13.3826 C 8.50312 13.8977, 8.38923 14.392, 8.16144 14.8644, 7.93365 15.3374, 7.62843 15.7413, 7.24579 16.0757, 6.81489 16.4533, 6.33855 16.7327, 5.81789 16.9151, 5.29723 17.098, 4.753 17.1888, 4.18577 17.1888, 3.67464 17.1888, 3.17586 17.117, 2.68886 16.9734, 2.20186 16.8298, 1.76311 16.6239, 1.37149 16.3546, 0.979875 16.0852, 0.667365 15.7548, 0.432842 15.3626, 0.19888 14.971, 0.0816184 14.5204, 0.0816184 14.011, 0.0816184 13.6284, 0.20954 13.3428, 0.465383 13.1543, 0.721226 12.9658, 0.990535 12.8715, 1.27387 12.8709, 1.57011 12.8715, 1.84559 12.9658, 2.10143 13.1543, 2.35728 13.3428, 2.4852 13.6284, 2.4852 14.011, 2.4852 14.2388, 2.44087 14.429, 2.3511 14.5816, 2.2619 14.7342, 2.148 14.8616, 2.00886 14.9631, 1.87028 15.0652, 1.7115 15.1275, 1.53308 15.1511, 1.44107 15.1758, 1.35466 15.1875, 1.27387 15.187, 1.1942 15.1875, 1.18186 15.1937, 1.23684 15.2049, 1.42816 15.5405, 1.80407 15.8373, 2.36513 16.0942, 2.92619 16.3517, 3.5327 16.4802, 4.18577 16.4797, 4.49435 16.4802, 4.78218 16.4039, 5.05036 16.2513, 5.31855 16.0987, 5.54241 15.8939, 5.72083 15.6358, 5.94301 15.3014, 6.09393 14.9424, 6.1736 14.5592, 6.25383 14.1765, 6.29367 13.7843, 6.29367 13.3826, 6.29367 12.9702, 6.25383 12.5741, 6.1736 12.1937, 6.09393 11.8139, 5.94301 11.4621, 5.72083 11.1384, 5.53568 10.8758, 5.31069 10.6632, 5.04587 10.5016, 4.78105 10.34, 4.49435 10.2592, 4.18577 10.2586 L 2.8454 10.2586 C 2.66698 10.2592, 2.5716 10.1756, 2.55926 10.0073 L 2.55926 9.90854 C 2.55926 9.83728, 2.58114 9.78062, 2.62378 9.73798, 2.67932 9.68468, 2.75002 9.65775, 2.83642 9.65718, 3.0154 9.63362, 3.19999 9.62184, 3.39075 9.62128, 3.5759 9.62184, 3.75824 9.61005, 3.93666 9.58537, 4.26937 9.5618, 4.55887 9.45913, 4.80518 9.27623, 5.05204 9.09388, 5.25851 8.86048, 5.42459 8.57602, 5.59122 8.29213, 5.71746 7.96447, 5.80386 7.59305, 5.89027 7.22219, 5.93347 6.84179, 5.93347 6.45241, 5.93347 6.16571, 5.90261 5.8936, 5.84089 5.63607, 5.77918 5.37911, 5.66528 5.15412, 5.49865 4.96224, 5.1536 4.56781, 4.71597 4.37313, 4.18577 4.37874, 3.6191 4.3793, 3.10012 4.4859, 2.62883 4.69798, 2.15754 4.91062, 1.8411 5.13953, 1.68064 5.38415, 1.638 5.39089, 1.65932 5.39369, 1.74572 5.39313, 1.9679 5.39369, 2.17718 5.45934, 2.37411 5.59062, 2.67035 5.76455, 2.81791 6.05799, 2.81791 6.47037, 2.81791 6.81822, 2.70569 7.08024, 2.48071 7.25641, 2.25572 7.43314, 2.00437 7.52123, 1.72721 7.52067, 1.45621 7.52123, 1.20205 7.43483, 0.964726 7.2609, 0.727398 7.08753, 0.608453 6.82383, 0.608453 6.47037, 0.608453 6.03386, 0.713371 5.64841, 0.922647 5.3129, 1.13248 4.97795, 1.40179 4.69069, 1.73169 4.45111, 2.0616 4.2121, 2.442 4.0292, 2.87345 3.90352, 3.30491 3.77784, 3.74253 3.715, 4.18577 3.71444, 4.66043 3.715, 5.11993 3.77784, 5.56373 3.90352, 6.00753 4.0292, 6.42664 4.22388, 6.8205 4.48646, 7.14143 4.71425, 7.41074 4.99422, 7.62955 5.32637, 7.84837 5.65851, 7.95777 6.03386, 7.95777 6.45241, 7.95777 6.87208, 7.88259 7.26707, 7.73167 7.63793, 7.58074 8.00935, 7.38044 8.34431, 7.13077 8.64335, 6.8811 8.94296, 6.58374 9.20609, 6.23869 9.43332, 5.89363 9.66111, 5.63442 9.80418, 5.46162 9.86365, 5.60974 9.88217, 5.86278 9.97082, 6.22017 10.129, 6.57757 10.2878, 6.91925 10.4988, 7.24579 10.7613, 7.62843 11.0913, 7.93365 11.4846, 8.16144 11.9424, 8.38923 12.4002, 8.50312 12.8805, 8.50312 13.3826 Z" stroke="none" fill="#000000" />
			<path d="M 19.6388 14.0854 C 19.5701 14.3671, 19.4882 14.6785, 19.3938 15.0203, 19.2993 15.3627, 19.1734 15.6798, 19.0165 15.973, 18.8596 16.2661, 18.6615 16.5197, 18.4222 16.7332, 18.1829 16.9468, 17.8841 17.0533, 17.5257 17.0533, 17.086 17.0533, 16.7305 16.9405, 16.4602 16.7149, 16.19 16.4894, 16.0228 16.2569, 15.9599 16.0182, 15.7463 16.2815, 15.4601 16.5197, 15.1017 16.7332, 14.7433 16.9468, 14.3282 17.0533, 13.8565 17.0533, 13.4288 17.0533, 13.0469 16.9743, 12.7103 16.8151, 12.3737 16.6571, 12.108 16.4126, 11.9134 16.0823, 11.7244 15.7285, 11.6334 15.338, 11.6397 14.9098 L 11.6397 14.8365 C 11.6523 14.3911, 11.709 13.9486, 11.8092 13.5083, 11.9099 13.0875, 12.0565 12.6238, 12.2483 12.1165, 12.4401 11.6099, 12.6239 11.1181, 12.7996 10.6412, 12.9885 10.1351, 13.083 9.71943, 13.083 9.39539, 13.083 9.12116, 12.9668 8.98375, 12.7338 8.98318, 12.5202 8.98375, 12.3267 9.04501, 12.1538 9.16696, 11.9809 9.28947, 11.8241 9.45894, 11.6821 9.67535, 11.5407 9.89233, 11.4136 10.1488, 11.3002 10.4448, 11.1869 10.7414, 11.0924 11.0568, 11.0168 11.3923, 10.9481 11.5578, 10.8319 11.6431, 10.6682 11.6488 L 10.4512 11.6488 C 10.3 11.6494, 10.2245 11.5732, 10.2245 11.4198 L 10.2245 11.3557 C 10.3126 11.0202, 10.4294 10.6772, 10.5737 10.3257, 10.7185 9.97477, 10.9012 9.65588, 11.121 9.36848, 11.3409 9.08165, 11.5928 8.84349, 11.8756 8.65399, 12.1584 8.46506, 12.4824 8.37002, 12.8471 8.36945, 13.162 8.37002, 13.4305 8.43758, 13.6538 8.57155, 13.8771 8.70609, 14.0465 8.88471, 14.1628 9.10742, 14.2796 9.33069, 14.3437 9.58203, 14.3563 9.86256 L 14.3563 9.92668 C 14.3563 10.19, 14.303 10.4614, 14.196 10.7419, 14.0139 11.2188, 13.833 11.706, 13.6538 12.2035, 13.4746 12.7016, 13.3349 13.1488, 13.2341 13.5455, 13.1334 13.9428, 13.0641 14.3361, 13.0263 14.7266, 13.0011 14.8308, 12.9857 14.9442, 12.9788 15.0655, 12.9788 15.3043, 13.02 15.5396, 13.1019 15.7709, 13.1586 15.9792, 13.2622 16.1441, 13.4133 16.2661, 13.5645 16.3886, 13.7437 16.4493, 13.9509 16.4487, 14.366 16.4493, 14.7278 16.3245, 15.0358 16.0737, 15.3438 15.8235, 15.6141 15.4903, 15.8465 15.0747, 15.8591 15.0266, 15.8688 14.9699, 15.8751 14.9058, 15.8814 14.8417, 15.8906 14.7758, 15.9032 14.7083 L 17.3184 9.24883 C 17.3751 9.02326, 17.4896 8.85723, 17.6625 8.75017, 17.8354 8.64368, 18.01 8.58987, 18.1858 8.58929, 18.3684 8.58987, 18.5196 8.64483, 18.6386 8.75418, 18.7211 8.83433, 18.7617 8.94081, 18.7617 9.07478, 18.7617 9.14234, 18.7554 9.21276, 18.7428 9.28547 L 17.3276 14.7449 C 17.2268 15.1239, 17.1765 15.46, 17.1765 15.7525, 17.1765 15.8327, 17.1827 15.918, 17.1953 16.009, 17.2274 16.3027, 17.3751 16.4493, 17.639 16.4487, 17.9035 16.4493, 18.1314 16.2237, 18.3232 15.7714, 18.515 15.3197, 18.7022 14.7392, 18.8842 14.0304, 18.922 13.8724, 19.0291 13.7928, 19.2049 13.7923 L 19.4218 13.7923 C 19.4911 13.7928, 19.5604 13.814, 19.6291 13.8564, 19.6543 13.9119, 19.6669 13.9577, 19.6669 13.9938, 19.6669 14.019, 19.6577 14.0493, 19.6388 14.0854 Z" stroke="none" fill="#000000" />
			<path d="M 2.37714 3.19713 C 1.7292 3.17661, 1.09857 3.16635, 0.485571 3.16635, -0.127106 3.16635, -0.757737 3.17661, -1.406 3.19713 L -1.406 2.75598, -1.04115 2.75598 C -0.925093 2.7563, -0.815766 2.75469, -0.713814 2.75117, -0.611541 2.74796, -0.514718 2.7393, -0.423025 2.72552, -0.331331 2.71205, -0.252142 2.69827, -0.185456 2.68416, -0.12903 2.67422, -0.082221 2.6428, -0.0453515 2.58958, -0.00816131 2.53668, 0.0101132 2.47769, 0.0101132 2.41229 L 0.0101132 -3.36887 C -0.165899 -3.28295, -0.382628 -3.21787, -0.639754 -3.17362, -0.89688 -3.12906, -1.17869 -3.10694, -1.48519 -3.10726 L -1.48519 -3.54328 C -1.06231 -3.54296, -0.672135 -3.59329, -0.31466 -3.69429, 0.042815 -3.79496, 0.351879 -3.98411, 0.612531 -4.26144 L 0.77636 -4.26144 C 0.89242 -4.26112, 0.950449 -4.20469, 0.950449 -4.09216 L 0.950449 2.41229 C 0.950449 2.4809, 0.968082 2.54085, 1.00335 2.59215, 1.03862 2.64344, 1.08991 2.67422, 1.1566 2.68416, 1.21302 2.69827, 1.28548 2.71205, 1.37333 2.72552, 1.46149 2.7393, 1.56088 2.74796, 1.67181 2.75117, 1.78274 2.75469, 1.89111 2.7563, 1.99658 2.75598 L 2.37714 2.75598, 2.37714 3.19713 Z" stroke="none" fill="#000000" transform="matrix(1.12 0 0 1 22.4591 16.3063)" />
			<rect />
		</svg>
	</g>
	<g transform="matrix(1 0 -0 1 123.17 45.9664)">
		<svg width="119.936646" height="119.999977">
			<defs />
			<polyline points="-5.628 0 5.628 0" fill="none" stroke="#000000" stroke-width="0.64319998" stroke-linecap="round" stroke-linejoin="round" transform="matrix(1 0 0 1 5.628 9.60638)" />
			<polyline points="0 -5.628 0 5.628" fill="none" stroke="#000000" stroke-width="0.64319998" stroke-linecap="round" stroke-linejoin="round" transform="matrix(1 0 0 1 5.628 9.60638)" />
			<rect />
		</svg>
	</g>
	<g transform="matrix(1 0 -0 1 172.539 45.9664)">
		<svg width="119.936646" height="83.9999847">
			<defs />
			<polyline points="-5.628 0 5.628 0" fill="none" stroke="#000000" stroke-width="0.64319998" stroke-linecap="round" stroke-linejoin="round" transform="matrix(1 0 0 1 5.628 9.60638)" />
			<rect />
		</svg>
	</g>
	<g transform="matrix(1 0 -0 1 146.155 44.3074)">
		<svg width="48.0251122" height="38.9999924">
			<defs />
			<path d="M 9.41063 14.0854 C 9.34193 14.3671, 9.26006 14.6785, 9.1656 15.0203, 9.0717 15.3627, 8.94575 15.6798, 8.78831 15.973, 8.63144 16.2661, 8.43336 16.5197, 8.19405 16.7332, 7.95474 16.9468, 7.65589 17.0533, 7.2975 17.0533, 6.85724 17.0533, 6.50171 16.9405, 6.23148 16.7149, 5.96126 16.4894, 5.79409 16.2569, 5.73111 16.0182, 5.51756 16.2815, 5.23131 16.5197, 4.87292 16.7332, 4.51453 16.9468, 4.09889 17.0533, 3.62714 17.0533, 3.20005 17.0533, 2.81761 16.9743, 2.48097 16.8151, 2.14434 16.6571, 1.87869 16.4126, 1.68347 16.0823, 1.49511 15.7285, 1.40408 15.338, 1.40981 14.9098 L 1.40981 14.8365 C 1.4224 14.3911, 1.47908 13.9486, 1.57984 13.5083, 1.6806 13.0875, 1.82717 12.6238, 2.01896 12.1165, 2.21075 11.6099, 2.39452 11.1181, 2.57029 10.6412, 2.75921 10.1351, 2.85368 9.71943, 2.85368 9.39539, 2.85368 9.12116, 2.73746 8.98375, 2.50445 8.98318, 2.2909 8.98375, 2.09739 9.04501, 1.92449 9.16696, 1.7516 9.28947, 1.59416 9.45894, 1.45275 9.67535, 1.31134 9.89233, 1.18367 10.1488, 1.07031 10.4448, 0.956953 10.7414, 0.863061 11.0568, 0.78749 11.3923, 0.718216 11.5578, 0.601997 11.6431, 0.438259 11.6488 L 0.221278 11.6488 C 0.0701351 11.6494, -0.00543621 11.5732, -0.00543621 11.4198 L -0.00543621 11.3557 C 0.0827303 11.0202, 0.199522 10.6772, 0.343795 10.3257, 0.48864 9.97477, 0.67127 9.65588, 0.891114 9.36848, 1.11153 9.08165, 1.36343 8.84349, 1.64625 8.65399, 1.92907 8.46506, 2.25311 8.37002, 2.6178 8.36945, 2.93268 8.37002, 3.20119 8.43758, 3.42447 8.57155, 3.64775 8.70609, 3.81778 8.88471, 3.934 9.10742, 4.0508 9.33069, 4.11492 9.58203, 4.12751 9.86256 L 4.12751 9.92668 C 4.12751 10.19, 4.07427 10.4614, 3.96664 10.7419, 3.78458 11.2188, 3.60424 11.706, 3.42447 12.2035, 3.24527 12.7016, 3.10558 13.1488, 3.00482 13.5455, 2.90406 13.9428, 2.83478 14.3361, 2.797 14.7266, 2.77181 14.8308, 2.75635 14.9442, 2.75005 15.0655, 2.75005 15.3043, 2.79127 15.5396, 2.87257 15.7709, 2.92925 15.9792, 3.03287 16.1441, 3.18402 16.2661, 3.33516 16.3886, 3.51435 16.4493, 3.7216 16.4487, 4.13724 16.4493, 4.49907 16.3245, 4.80708 16.0737, 5.11509 15.8235, 5.38532 15.4903, 5.61775 15.0747, 5.63035 15.0266, 5.64008 14.9699, 5.64638 14.9058, 5.65268 14.8417, 5.66184 14.7758, 5.67443 14.7083 L 7.08968 9.24883 C 7.14693 9.02326, 7.26143 8.85723, 7.43433 8.75017, 7.60723 8.64368, 7.78184 8.58987, 7.9576 8.58929, 8.14023 8.58987, 8.29137 8.64483, 8.41103 8.75418, 8.4929 8.83433, 8.53355 8.94081, 8.53355 9.07478, 8.53355 9.14234, 8.52725 9.21276, 8.51465 9.28547 L 7.09941 14.7449 C 6.99865 15.1239, 6.94827 15.46, 6.94827 15.7525, 6.94827 15.8327, 6.95456 15.918, 6.96716 16.009, 6.99865 16.3027, 7.14636 16.4493, 7.41085 16.4487, 7.67535 16.4493, 7.90321 16.2237, 8.095 15.7714, 8.28679 15.3197, 8.474 14.7392, 8.65606 14.0304, 8.69385 13.8724, 8.80091 13.7928, 8.97667 13.7923 L 9.19365 13.7923 C 9.2635 13.7928, 9.33277 13.814, 9.40147 13.8564, 9.42666 13.9119, 9.43926 13.9577, 9.43926 13.9938, 9.43926 14.019, 9.4301 14.0493, 9.41063 14.0854 Z" stroke="none" fill="#000000" />
			<path d="M 2.37714 3.19713 C 1.7292 3.17661, 1.09857 3.16635, 0.485571 3.16635, -0.127106 3.16635, -0.757737 3.17661, -1.406 3.19713 L -1.406 2.75598, -1.04115 2.75598 C -0.925093 2.7563, -0.815766 2.75469, -0.713814 2.75117, -0.611541 2.74796, -0.514718 2.7393, -0.423025 2.72552, -0.331331 2.71205, -0.252142 2.69827, -0.185456 2.68416, -0.12903 2.67422, -0.082221 2.6428, -0.0453515 2.58958, -0.00816131 2.53668, 0.0101132 2.47769, 0.0101132 2.41229 L 0.0101132 -3.36887 C -0.165899 -3.28295, -0.382628 -3.21787, -0.639754 -3.17362, -0.89688 -3.12906, -1.17869 -3.10694, -1.48519 -3.10726 L -1.48519 -3.54328 C -1.06231 -3.54296, -0.672135 -3.59329, -0.31466 -3.69429, 0.042815 -3.79496, 0.351879 -3.98411, 0.612531 -4.26144 L 0.77636 -4.26144 C 0.89242 -4.26112, 0.950449 -4.20469, 0.950449 -4.09216 L 0.950449 2.41229 C 0.950449 2.4809, 0.968082 2.54085, 1.00335 2.59215, 1.03862 2.64344, 1.08991 2.67422, 1.1566 2.68416, 1.21302 2.69827, 1.28548 2.71205, 1.37333 2.72552, 1.46149 2.7393, 1.56088 2.74796, 1.67181 2.75117, 1.78274 2.75469, 1.89111 2.7563, 1.99658 2.75598 L 2.37714 2.75598, 2.37714 3.19713 Z" stroke="none" fill="#000000" transform="matrix(1.12 0 0 1 11.9077 16.3063)" />
			<rect />
		</svg>
	</g>
	<path d="M -8.50671 0 L 8.50623 0" fill="none" stroke="#000000" stroke-width="1.92000008" stroke-linecap="round" stroke-linejoin="round" marker-end="url(#CustomMarker-02)" transform="matrix(0.555556 0 0 0.555556 203.857 99.5076)" />
	<g transform="matrix(1 0 -0 1 191.213 108.16)">
		<svg width="77.9989777" height="47.9999886">
			<defs />
			<path d="M 8.50221 10.4472 C 8.50221 11.2854, 8.38663 12.1073, 8.15547 12.9119, 7.92431 13.717, 7.55345 14.4756, 7.04177 15.187, 6.62883 15.7559, 6.11434 16.2322, 5.49773 16.6149, 4.88169 16.9975, 4.1972 17.1888, 3.44538 17.1888, 3.06386 17.1888, 2.69692 17.1473, 2.3457 17.0632, 1.99448 16.9796, 1.68589 16.8466, 1.42107 16.6643, 1.15625 16.4819, 0.948101 16.253, 0.797176 15.9775, 0.646251 15.7026, 0.570508 15.3733, 0.570508 14.9895, 0.570508 14.6669, 0.675426 14.42, 0.885262 14.2495, 1.0951 14.0789, 1.31952 13.9936, 1.55966 13.9931, 1.82504 13.9936, 2.06068 14.0778, 2.26715 14.245, 2.47362 14.4127, 2.57686 14.6607, 2.57686 14.9895, 2.57686 15.3491, 2.44781 15.6095, 2.1886 15.7705, 1.99784 15.8906, 1.80035 15.9534, 1.59669 15.959, 1.52936 15.9596, 1.5417 15.9685, 1.63372 15.9859, 1.72012 16.106, 1.93164 16.2188, 2.26715 16.3231, 2.60323 16.4281, 2.99597 16.4802, 3.44538 16.4797, 3.95089 16.4802, 4.40984 16.3203, 4.82278 16, 5.23572 15.6802, 5.57179 15.2773, 5.83044 14.792, 6.17605 14.1524, 6.37635 13.4763, 6.4319 12.7638, 6.48744 12.0518, 6.5183 11.4739, 6.52391 11.0307, 6.41282 11.3005, 6.14968 11.6226, 5.73338 11.9962, 5.31763 12.3705, 4.78911 12.5573, 4.14838 12.5567, 3.53234 12.5573, 2.99597 12.4529, 2.53983 12.2431, 2.08369 12.0338, 1.65504 11.7073, 1.25444 11.2641, 0.817374 10.786, 0.512719 10.303, 0.339913 9.81484, 0.167106 9.32728, 0.0807031 8.77183, 0.0807031 8.14906, 0.0807031 7.51506, 0.173278 6.95456, 0.357866 6.46644, 0.543016 5.97888, 0.869553 5.49524, 1.33804 5.0161, 1.77566 4.56781, 2.23293 4.23903, 2.71039 4.0292, 3.18841 3.81992, 3.75676 3.715, 4.41601 3.71444, 5.06347 3.715, 5.65202 3.88276, 6.18166 4.21771, 6.71187 4.55323, 7.14052 4.9959, 7.46705 5.54574, 7.91702 6.29419, 8.20204 7.09202, 8.32211 7.93866, 8.44217 8.78586, 8.50221 9.62184, 8.50221 10.4472 Z M 6.49642 8.05929 C 6.47173 7.62278, 6.43807 7.20872, 6.39487 6.81654, 6.35167 6.42492, 6.27424 6.10287, 6.16315 5.85096, 6.00942 5.43241, 5.77714 5.08287, 5.46575 4.80121, 5.15436 4.52012, 4.80426 4.3793, 4.41601 4.37874, 3.97894 4.3793, 3.61257 4.46009, 3.31633 4.62167, 3.02065 4.78326, 2.75583 5.0464, 2.52131 5.41109, 2.28118 5.76455, 2.13755 6.16908, 2.09154 6.62354, 2.04553 7.07855, 2.02197 7.58687, 2.02197 8.14906, 2.02197 8.72414, 2.04553 9.24032, 2.09154 9.69814, 2.13755 10.156, 2.26547 10.5554, 2.47474 10.896, 2.68458 11.2618, 2.92023 11.5294, 3.18224 11.7, 3.44425 11.8706, 3.77247 11.9558, 4.16634 11.9553, 4.56694 11.9558, 4.91704 11.8498, 5.21608 11.6372, 5.51513 11.4251, 5.76648 11.1496, 5.96958 10.8113, 6.17269 10.4735, 6.31744 10.0707, 6.40384 9.60332, 6.46556 9.2925, 6.49642 8.96035, 6.49642 8.60688, 6.49642 8.46998, 6.49025 8.32298, 6.4779 8.16701, 6.4779 8.10754, 6.48408 8.07163, 6.49642 8.05929 Z" stroke="none" fill="#000000" />
			<path d="M 24.9742 16.8334 C 24.1567 16.7911, 23.3678 16.7693, 22.6063 16.7693 L 22.2382 16.7693 C 21.3514 16.7819, 20.4297 16.8002, 19.4736 16.8243 L 19.4736 16.064 C 19.757 16.0646, 20.0117 16.0542, 20.2379 16.0325, 20.4646 16.0113, 20.6655 15.9667, 20.8419 15.8991, 20.9237 15.8567, 20.9959 15.7926, 21.0589 15.7067, 21.084 15.677, 21.0966 15.6369, 21.0966 15.5877, 21.0966 15.5636, 21.0938 15.5361, 21.0869 15.5052 L 20.0209 12.5465, 15.3881 12.5465, 14.5111 15.0014 C 14.4796 15.0753, 14.4635 15.1457, 14.4635 15.2121, 14.4635 15.2739, 14.4733 15.3346, 14.4922 15.3953, 14.5425 15.5304, 14.6244 15.6403, 14.7372 15.7251, 14.9009 15.8602, 15.0756 15.9501, 15.261 15.9959, 15.4465 16.0417, 15.6715 16.0646, 15.9355 16.064 L 15.9355 16.8243 C 15.1746 16.8002, 14.4481 16.7819, 13.7559 16.7693 L 13.4639 16.7693 C 12.8599 16.7693, 12.2308 16.7911, 11.5769 16.8334 L 11.5769 16.064 C 11.8792 16.0646, 12.1414 16.0451, 12.3647 16.005, 12.588 15.9655, 12.8033 15.8876, 13.0105 15.7709, 13.3506 15.5819, 13.5893 15.3043, 13.7279 14.9373 L 17.8036 3.4596 C 17.8665 3.27697, 17.9988 3.18824, 18.1997 3.19396 L 18.3509 3.19396 C 18.5524 3.19453, 18.6841 3.28327, 18.7471 3.4596 L 23.0306 15.4502 C 23.0626 15.567, 23.1113 15.6707, 23.1771 15.7623, 23.2436 15.8539, 23.3329 15.9151, 23.4456 15.9449, 23.6094 16.0067, 23.8252 16.0417, 24.0926 16.0508, 24.3599 16.06, 24.6536 16.0646, 24.9742 16.064 L 24.9742 16.8334 Z M 17.7188 6.04277 L 15.6618 11.7862, 19.7472 11.7862 Z" stroke="none" fill="#000000" />
			<rect />
		</svg>
	</g>
	<g transform="matrix(1 0 -0 1 141.037 9.00002)">
		<svg width="77.9989777" height="45.0428467">
			<defs />
			<path d="M 7.60405 16.7669 L 0.0791219 16.7669, 0.0791219 16.2732 C 0.0791219 16.2379, 0.0976369 16.184, 0.134667 16.1116 L 3.15766 12.826 C 3.51561 12.4316, 3.8775 12.0277, 4.24443 11.6147, 4.61136 11.2018, 4.93902 10.7799, 5.22853 10.349, 5.51803 9.91808, 5.74919 9.47372, 5.922 9.01589, 6.0948 8.55807, 6.18064 8.0778, 6.18064 7.57453, 6.18064 7.15037, 6.12566 6.7537, 6.01457 6.38565, 5.90348 6.01759, 5.74358 5.69442, 5.53374 5.41613, 5.32391 5.13785, 5.06189 4.91343, 4.7477 4.74286, 4.4335 4.5723, 4.06994 4.48702, 3.657 4.48646, 3.04096 4.48702, 2.49673 4.67105, 2.02544 5.0391, 1.55415 5.40716, 1.24108 5.8128, 1.08678 6.25492, 1.05649 6.26726, 1.10586 6.27343, 1.2349 6.27287 L 1.392 6.27287 C 1.57715 6.31551, 1.73705 6.38004, 1.87283 6.46644, 2.00861 6.5534, 2.1225 6.67291, 2.21508 6.82552, 2.30765 6.97812, 2.35366 7.16215, 2.35366 7.37704, 2.35366 7.73668, 2.23696 8.01216, 2.00243 8.20348, 1.76791 8.39536, 1.5059 8.49074, 1.21639 8.49018, 0.939226 8.49074, 0.680578 8.39536, 0.439883 8.20348, 0.19975 8.01216, 0.0791219 7.73668, 0.0791219 7.37704, 0.0791219 6.87489, 0.177868 6.39911, 0.375361 5.95026, 0.572854 5.50142, 0.84048 5.1126, 1.17936 4.78326, 1.51824 4.45448, 1.91884 4.19415, 2.38115 4.00226, 2.84346 3.81094, 3.33383 3.715, 3.85113 3.71444, 4.49186 3.715, 5.07928 3.80926, 5.61229 3.99778, 6.1453 4.18629, 6.59976 4.45728, 6.97567 4.81019, 7.35157 5.16366, 7.64613 5.57211, 7.85877 6.03554, 8.07141 6.49954, 8.17745 7.01235, 8.17745 7.57453, 8.17745 8.19731, 8.03607 8.77071, 7.75217 9.29418, 7.46884 9.81821, 7.11761 10.2985, 6.6985 10.735, 6.27939 11.172, 5.83391 11.5833, 5.36262 11.9693, 4.89133 12.3553, 4.46436 12.7307, 4.08228 13.0954 L 1.95587 15.0972, 4.73872 15.0972 C 5.12697 15.0978, 5.48942 15.095, 5.82493 15.0888, 6.16101 15.0832, 6.44603 15.0708, 6.67999 15.0529, 6.91451 15.0349, 7.03458 15.0232, 7.04019 15.0164, 7.08956 14.9749, 7.13613 14.8913, 7.17933 14.7656, 7.22253 14.64, 7.26237 14.4918, 7.2994 14.3213, 7.33643 14.1507, 7.37346 13.9773, 7.41049 13.8006, 7.44752 13.6244, 7.48118 13.4309, 7.51204 13.221 L 8.19597 13.221 Z" stroke="none" fill="#000000" />
			<path d="M 23.3964 16.6044 C 23.3586 16.751, 23.255 16.8243, 23.085 16.8243 L 19.9631 16.8243 C 19.7558 16.8243, 19.6516 16.7241, 19.6516 16.522, 19.6516 15.7714, 19.7633 15.0478, 19.9865 14.3516, 20.2098 13.6554, 20.4537 12.9673, 20.7176 12.286, 20.9821 11.6053, 21.2209 10.9257, 21.4344 10.2479, 21.6485 9.57, 21.755 8.88013, 21.755 8.17708, 21.755 7.62805, 21.6703 7.09561, 21.5003 6.57921, 21.3308 6.06338, 21.0634 5.60995, 20.6987 5.21893, 20.3341 4.82848, 19.9035 4.52905, 19.4066 4.32123, 18.9097 4.11398, 18.391 4.00979, 17.8499 4.00921, 17.3095 4.00979, 16.7908 4.11398, 16.2939 4.32123, 15.7969 4.52905, 15.3681 4.82848, 15.0063 5.21893, 14.6445 5.60995, 14.3771 6.06338, 14.2042 6.57921, 14.0313 7.09561, 13.9448 7.62805, 13.9448 8.17708, 13.9448 8.88013, 14.0536 9.57, 14.27 10.2479, 14.487 10.9257, 14.7275 11.6053, 14.9914 12.286, 15.2559 12.9673, 15.4992 13.6571, 15.7225 14.3562, 15.9458 15.0558, 16.0574 15.7777, 16.0574 16.522, 16.0574 16.7241, 15.9601 16.8243, 15.7654 16.8243 L 12.6143 16.8243 C 12.4512 16.8243, 12.3504 16.751, 12.3126 16.6044 L 11.6525 13.9846 C 11.6525 13.8203, 11.7407 13.7167, 11.9164 13.6732 L 12.0201 13.6732 C 12.1838 13.6738, 12.2846 13.7499, 12.3224 13.9022, 12.4231 14.3241, 12.5159 14.6722, 12.6006 14.947, 12.6853 15.2218, 12.7437 15.3684, 12.7746 15.3861, 12.8376 15.4354, 12.9888 15.4663, 13.2275 15.4783, 13.4668 15.4909, 13.7531 15.4966, 14.0863 15.496 L 15.2937 15.496 C 15.162 14.947, 14.9118 14.3825, 14.5437 13.802, 14.1761 13.222, 13.7937 12.6387, 13.3975 12.0524, 13.0014 11.4662, 12.651 10.8587, 12.3458 10.2295, 12.0413 9.60092, 11.8884 8.91677, 11.8884 8.17708, 11.8884 7.49351, 12.0487 6.86203, 12.3693 6.28151, 12.6899 5.70155, 13.121 5.20347, 13.6615 4.78783, 14.2466 4.31837, 14.9009 3.96857, 15.624 3.73956, 16.3471 3.51056, 17.0891 3.39606, 17.8499 3.39548, 18.6114 3.39606, 19.3533 3.51056, 20.0764 3.73956, 20.7995 3.96857, 21.463 4.31837, 22.0665 4.78783, 22.5949 5.21606, 23.0226 5.71816, 23.3495 6.29525, 23.6764 6.87234, 23.8395 7.49981, 23.8395 8.17708, 23.8395 8.91677, 23.6872 9.60092, 23.3821 10.2295, 23.0775 10.8587, 22.7237 11.4662, 22.3212 12.0524, 21.9188 12.6387, 21.5317 13.222, 21.1608 13.802, 20.7898 14.3825, 20.5384 14.947, 20.4062 15.496 L 21.6228 15.496 C 21.9565 15.4966, 22.2428 15.4909, 22.4815 15.4783, 22.7208 15.4663, 22.8714 15.4354, 22.9344 15.3861, 22.9533 15.3747, 23.0065 15.2281, 23.0947 14.947, 23.1829 14.6665, 23.2768 14.3178, 23.3775 13.9022, 23.4153 13.7562, 23.5195 13.68, 23.689 13.6732 L 23.7926 13.6732 C 23.9626 13.7104, 24.0474 13.814, 24.0474 13.9846 Z" stroke="none" fill="#000000" />
			<rect />
		</svg>
	</g>
	<path d="M 0 8.50671 L 0 -8.50616" fill="none" stroke="#000000" stroke-width="1.92000008" stroke-linecap="round" stroke-linejoin="round" marker-end="url(#CustomMarker-03)" transform="matrix(0.555556 0 0 0.555556 266.946 66.8358)" />
	<g transform="matrix(1 0 -0 1 244.57 55.5704)">
		<svg width="36.0612984" height="51.0856972">
			<defs />
			<path d="M 4.85574 5.20004 C 4.79907 5.43248, 4.66853 5.62656, 4.46415 5.78228, 4.25976 5.938, 4.0382 6.01586, 3.79889 6.01529, 3.54756 6.01586, 3.35577 5.93056, 3.22352 5.75881, 3.13535 5.66148, 3.08841 5.5424, 3.08154 5.40156, 3.08154 5.31683, 3.09413 5.23095, 3.11932 5.14507, 3.17657 4.91378, 3.30882 4.7197, 3.51607 4.56398, 3.72332 4.40825, 3.9466 4.33039, 4.18591 4.32982, 4.43781 4.33039, 4.6296 4.41284, 4.76128 4.57715, 4.84945 4.69394, 4.89353 4.81874, 4.89353 4.95271, 4.89353 5.03859, 4.88093 5.12103, 4.85574 5.20004 Z M 4.95937 14.0854 C 4.89067 14.4037, 4.78361 14.738, 4.63876 15.089, 4.49449 15.4405, 4.31644 15.7594, 4.10576 16.0462, 3.89507 16.3336, 3.64775 16.5729, 3.36493 16.7647, 3.08211 16.9571, 2.75463 17.0533, 2.38365 17.0533, 2.06934 17.0533, 1.79911 16.9863, 1.5724 16.8518, 1.34569 16.7178, 1.17107 16.5409, 1.04855 16.321, 0.926037 16.1012, 0.864779 15.8567, 0.864779 15.5877, 0.852184 15.5762, 0.845886 15.5516, 0.845886 15.5144, 0.845886 15.2401, 0.905999 14.959, 1.02508 14.6716 L 2.55368 10.6412 C 2.74261 10.1351, 2.8365 9.71943, 2.8365 9.39539, 2.8365 9.12116, 2.72028 8.98375, 2.48727 8.98318, 2.27373 8.98375, 2.08193 9.04501, 1.9119 9.16696, 1.74244 9.28947, 1.58671 9.45894, 1.44473 9.67535, 1.30332 9.89233, 1.17622 10.1488, 1.06287 10.4448, 0.94951 10.7414, 0.855046 11.0568, 0.779475 11.3923, 0.710774 11.5578, 0.594554 11.6431, 0.430816 11.6488 L 0.222995 11.6488 C 0.0718527 11.6494, -0.00371855 11.5732, -0.00371855 11.4198 L -0.00371855 11.3557 C 0.0718527 11.0202, 0.18521 10.6772, 0.336352 10.3257, 0.487495 9.97477, 0.669553 9.65588, 0.883672 9.36848, 1.09779 9.08165, 1.34626 8.84349, 1.62908 8.65399, 1.9119 8.46506, 2.23594 8.37002, 2.60063 8.36945, 2.91551 8.37002, 3.18287 8.43758, 3.40271 8.57155, 3.62313 8.70609, 3.79145 8.88471, 3.90767 9.10742, 4.02389 9.33069, 4.08801 9.58203, 4.1006 9.86256 L 4.1006 9.92668 C 4.1006 10.19, 4.04736 10.4614, 3.9403 10.7419 L 2.4117 14.7907 C 2.23594 15.2859, 2.14777 15.7073, 2.14777 16.0548, 2.13518 16.0674, 2.12888 16.0674, 2.12888 16.0548, 2.12888 16.3182, 2.24853 16.4493, 2.48727 16.4487, 2.70139 16.4493, 2.8949 16.3852, 3.0678 16.2569, 3.24069 16.1287, 3.39813 15.9581, 3.53954 15.7439, 3.68095 15.5304, 3.80519 15.2739, 3.91225 14.9745, 4.01931 14.6756, 4.11663 14.3608, 4.2048 14.0304, 4.24259 13.8724, 4.35251 13.7928, 4.53457 13.7923 L 4.74239 13.7923 C 4.81166 13.7928, 4.88093 13.814, 4.94964 13.8564, 4.9691 13.9056, 4.98456 13.9486, 4.99715 13.9846, 4.99715 14.0218, 4.98456 14.0556, 4.95937 14.0854 Z" stroke="none" fill="#000000" />
			<path d="M 2.37714 3.19713 C 1.7292 3.17661, 1.09857 3.16635, 0.485571 3.16635, -0.127106 3.16635, -0.757737 3.17661, -1.406 3.19713 L -1.406 2.75598, -1.04115 2.75598 C -0.925093 2.7563, -0.815766 2.75469, -0.713814 2.75117, -0.611541 2.74796, -0.514718 2.7393, -0.423025 2.72552, -0.331331 2.71205, -0.252142 2.69827, -0.185456 2.68416, -0.12903 2.67422, -0.082221 2.6428, -0.0453515 2.58958, -0.00816131 2.53668, 0.0101132 2.47769, 0.0101132 2.41229 L 0.0101132 -3.36887 C -0.165899 -3.28295, -0.382628 -3.21787, -0.639754 -3.17362, -0.89688 -3.12906, -1.17869 -3.10694, -1.48519 -3.10726 L -1.48519 -3.54328 C -1.06231 -3.54296, -0.672135 -3.59329, -0.31466 -3.69429, 0.042815 -3.79496, 0.351879 -3.98411, 0.612531 -4.26144 L 0.77636 -4.26144 C 0.89242 -4.26112, 0.950449 -4.20469, 0.950449 -4.09216 L 0.950449 2.41229 C 0.950449 2.4809, 0.968082 2.54085, 1.00335 2.59215, 1.03862 2.64344, 1.08991 2.67422, 1.1566 2.68416, 1.21302 2.69827, 1.28548 2.71205, 1.37333 2.72552, 1.46149 2.7393, 1.56088 2.74796, 1.67181 2.75117, 1.78274 2.75469, 1.89111 2.7563, 1.99658 2.75598 L 2.37714 2.75598, 2.37714 3.19713 Z" stroke="none" fill="#000000" transform="matrix(1.12 0 0 1 7.46389 16.3063)" />
			<rect />
		</svg>
	</g>
	<g transform="matrix(1 0 -0 1 9 87.7374)">
		<svg width="75.0401764" height="59.9571304">
			<defs />
			<path d="M 13.3755 17.4105 C 12.1188 17.369, 10.9041 17.3477, 9.73258 17.3477, 8.59868 17.3477, 7.41204 17.369, 6.17322 17.4105 L 6.17322 16.1807, 8.39221 16.1807, 8.39221 6.64716 C 8.13974 6.73749, 7.79581 6.80369, 7.36099 6.84521, 6.92673 6.88729, 6.43524 6.90805, 5.88652 6.90749 L 5.88652 5.67765 C 6.74326 5.67821, 7.51808 5.59629, 8.21155 5.43134, 8.90502 5.26695, 9.52948 4.92695, 10.0844 4.41189 L 10.5652 4.41189 C 10.7257 4.41246, 10.8536 4.46632, 10.949 4.57404, 11.0443 4.68176, 11.092 4.79846, 11.092 4.92358 L 11.092 16.1807, 13.3755 16.1807, 13.3755 17.4105 Z" stroke="none" fill="#000000" />
			<path d="M 1.5467 8.95625 C -4.56906 4.92594, -4.56906 -4.92594, 1.5467 -8.95625 L 2.50721 -8.95625 C -3.00823 -4.92594, -3.00823 4.92594, 2.50721 8.95625" stroke="none" fill="#000000" transform="matrix(1 0 -0 1 2.814 11.7703)" />
			<path d="M 1.5467 8.95625 C -4.56906 4.92594, -4.56906 -4.92594, 1.5467 -8.95625 L 2.50721 -8.95625 C -3.00823 -4.92594, -3.00823 4.92594, 2.50721 8.95625" stroke="none" fill="#000000" transform="matrix(-1 1.50996e-007 -1.50996e-007 -1 16.6522 11.7703)" />
			<rect />
		</svg>
	</g>
	<g transform="matrix(1 0 -0 1 276.986 87.7374)">
		<svg width="77.99897" height="59.9571304">
			<defs />
			<path d="M 13.9112 17.4015 L 6.28306 17.4015, 6.28306 16.6116 C 6.28306 16.5162, 6.31728 16.4236, 6.38461 16.3333 L 9.3341 12.7694 C 9.62417 12.4171, 9.89572 12.0608, 10.1482 11.7017, 10.4007 11.3427, 10.624 10.9763, 10.8181 10.6021, 11.0122 10.2284, 11.1682 9.848, 11.2855 9.46199, 11.4027 9.07598, 11.4611 8.67931, 11.4611 8.27199, 11.4611 7.9073, 11.424 7.56505, 11.35 7.24469, 11.2759 6.92488, 11.1699 6.6494, 11.0313 6.41881, 10.8927 6.18877, 10.7154 6.00587, 10.4994 5.87121, 10.284 5.73656, 10.0281 5.66923, 9.73189 5.66867, 9.10911 5.66923, 8.66868 5.80108, 8.40947 6.06365, 8.53908 6.08217, 8.74723 6.21851, 9.03393 6.47267, 9.32063 6.72739, 9.4637 7.09376, 9.4637 7.57178, 9.4637 8.09301, 9.29595 8.47902, 8.95987 8.73037, 8.62436 8.98173, 8.26191 9.1074, 7.87366 9.10684, 7.48541 9.1074, 7.12296 8.98173, 6.78689 8.73037, 6.45137 8.47902, 6.28306 8.09301, 6.28306 7.57178, 6.28306 7.08759, 6.39415 6.65389, 6.61633 6.27069, 6.83851 5.88804, 7.12801 5.5559, 7.48541 5.27424, 7.8428 4.99315, 8.25125 4.77939, 8.7102 4.63239, 9.16971 4.48596, 9.64268 4.41246, 10.1297 4.41189, 10.7771 4.41246, 11.3657 4.50671, 11.8959 4.69523, 12.4261 4.88375, 12.8901 5.14857, 13.2873 5.48969, 13.6846 5.83081, 13.9915 6.23814, 14.2069 6.71056, 14.4229 7.18353, 14.5306 7.70419, 14.5306 8.27199, 14.5306 8.85324, 14.3904 9.38457, 14.1098 9.86596, 13.8293 10.3479, 13.4966 10.7878, 13.1112 11.1856, 12.7263 11.5839, 12.324 11.9475, 11.9049 12.2763, 11.4858 12.6056, 11.1312 12.9018, 10.8417 13.1644 L 9.21403 14.6726, 10.7676 14.6726 C 11.1188 14.6731, 11.4549 14.6703, 11.7753 14.6641, 12.0962 14.6585, 12.3548 14.6479, 12.5523 14.6327, 12.7498 14.6181, 12.8452 14.6131, 12.8385 14.6187, 12.8878 14.5592, 12.9372 14.4683, 12.9866 14.3455, 13.036 14.2231, 13.0747 14.0851, 13.1022 13.9325, 13.1302 13.7799, 13.156 13.6138, 13.1807 13.4343, 13.2054 13.2548, 13.2486 13.0421, 13.3103 12.7964 L 14.5587 12.7964 Z" stroke="none" fill="#000000" />
			<path d="M 1.5467 8.95625 C -4.56906 4.92594, -4.56906 -4.92594, 1.5467 -8.95625 L 2.50721 -8.95625 C -3.00823 -4.92594, -3.00823 4.92594, 2.50721 8.95625" stroke="none" fill="#000000" transform="matrix(1 0 -0 1 2.814 11.7703)" />
			<path d="M 1.5467 8.95625 C -4.56906 4.92594, -4.56906 -4.92594, 1.5467 -8.95625 L 2.50721 -8.95625 C -3.00823 -4.92594, -3.00823 4.92594, 2.50721 8.95625" stroke="none" fill="#000000" transform="matrix(-1 1.50996e-007 -1.50996e-007 -1 18.0388 11.7703)" />
			<rect />
		</svg>
	</g>
</svg>
