<?xml version="1.0"?>
<svg xmlns="http://www.w3.org/2000/svg" xmlns:xlink="http://www.w3.org/1999/xlink" width="313.856476" height="195.603424">
	<defs>
		<marker id="CustomMarker-01" markerUnits="strokeWidth" markerWidth="9" markerHeight="6" viewBox="-9 -3 9 6" orient="auto-start-reverse">
			<path d="M 0 -0 L -6 -2, -6 -0.5, -6 0.5, -6 2 Z" fill="#0080FF" stroke="#0080FF" stroke-linejoin="round" />
		</marker>
		<marker id="CustomMarker-02" markerUnits="strokeWidth" markerWidth="8.25" markerHeight="13.5" viewBox="-8.25 -6.75 8.25 13.5" orient="auto-start-reverse">
			<path d="M -5.5 -4.5 L 0 -0, -5.5 4.5" fill="none" stroke="#000000" stroke-linejoin="round" />
		</marker>
	</defs>
	<g transform="matrix(1 0 -0 1 123.494 9.00002)">
		<svg width="227.996933" height="60.0856972">
			<defs />
			<path d="M 2.61949 19.2645 C 2.49353 18.8924, 2.31148 18.4831, 2.07217 18.0371, 4.60094 17.6403, 6.87495 17.1337, 8.89362 16.5165, 10.8877 15.9005, 12.979 15.0669, 15.1678 14.0158 L 16.0076 15.0142 C 13.8441 16.1077, 11.731 16.9814, 9.66765 17.634, 7.58601 18.2999, 5.23643 18.8432, 2.61949 19.2645 Z M 3.45936 16.4157 C 3.346 16.0928, 3.15421 15.7138, 2.88341 15.2799, 4.85285 14.8774, 6.59957 14.4274, 8.12474 13.9293, 9.64991 13.4318, 11.2272 12.798, 12.8565 12.028 L 13.6867 12.9898 C 11.8501 13.8268, 10.1423 14.511, 8.56328 15.0417, 6.94709 15.5856, 5.24559 16.0436, 3.45936 16.4157 Z M 4.12919 13.6494 C 3.95973 13.3019, 3.74905 12.9417, 3.49714 12.5685, 6.02592 11.9645, 8.49172 11.1189, 10.894 10.0311 L 11.6674 10.9471 C 9.2211 12.1082, 6.70835 13.0087, 4.12919 13.6494 Z M 17.3095 13.4387 C 15.8943 12.841, 14.7309 12.2147, 13.8189 11.5608, 12.8754 10.8899, 11.9983 10.0437, 11.1865 9.02349 L 7.73314 9.02349 C 6.94709 9.87881, 6.05054 10.6299, 5.04406 11.2769, 4.10744 11.8883, 2.88399 12.5295, 1.37428 13.2005, 1.18535 12.8593, 0.940315 12.4683, 0.63803 12.028, 1.79564 11.5643, 2.78036 11.0971, 3.59103 10.6265, 4.42175 10.1508, 5.17059 9.6166, 5.83699 9.02349 L 1.10062 9.02349, 1.10062 7.8693, 6.96884 7.8693 C 7.39021 7.36893, 7.73944 6.92008, 8.01653 6.52276 L 9.45983 6.85253 C 9.29037 7.09756, 9.0482 7.43649, 8.73332 7.8693 L 17.7063 7.8693, 17.7063 9.02349, 12.7529 9.02349 C 13.4514 9.74485, 14.2185 10.3494, 15.055 10.8372, 15.8725 11.3261, 16.8698 11.7692, 18.0458 12.1654, 17.9954 12.2576, 17.9106 12.4013, 17.791 12.5959, 17.5649 12.9692, 17.4045 13.2498, 17.3095 13.4387 Z M 15.4889 7.06321 L 14.3754 6.193 C 9.64532 6.22391, 6.38087 6.27601, 4.58205 6.34872, 4.029 6.36761, 3.49428 6.41341, 2.97788 6.48612 L 2.4214 5.23118 C 3.08207 4.96897, 3.64485 4.70676, 4.1103 4.44341, 5.44997 3.61957, 6.73354 2.69153, 7.95986 1.65872 L 9.62013 2.17169 C 8.27416 3.09457, 6.7427 4.10219, 5.02517 5.19454, 8.55412 5.15847, 11.19 5.12813, 12.9321 5.10294 L 10.7337 3.54571, 11.6863 2.73046 C 13.5172 3.95849, 15.1082 5.07603, 16.4605 6.08307 Z" stroke="none" fill="#0080FF" />
			<path d="M 26.8074 18.7058 C 26.6757 18.1195, 26.5623 17.6524, 26.4679 17.3043, 27.6759 17.3415, 28.9526 17.3598, 30.2985 17.3592, 31.0033 17.3598, 31.5002 17.2619, 31.7894 17.0661, 32.0665 16.8772, 32.2485 16.5199, 32.3367 15.9944, 32.3934 15.6102, 32.4529 14.9936, 32.5159 14.144 L 24.3072 14.144, 24.7887 11.799 C 23.6506 12.4225, 22.2164 13.1158, 20.4863 13.8784, 20.3798 13.6162, 20.1817 13.2194, 19.892 12.6875, 19.8542 12.6211, 19.8262 12.569, 19.8067 12.5318, 23.0277 11.2803, 25.7448 9.93377, 27.9587 8.4922 L 20.1468 8.4922, 20.1468 7.25557, 26.2887 7.25557, 26.2887 5.00218, 21.5712 5.00218, 21.5712 3.79304, 26.2887 3.79304, 26.2887 1.80528, 27.7228 1.80528, 27.7228 3.79304, 31.6479 3.79304, 31.6479 5.00218, 27.7228 5.00218, 27.7228 7.25557, 29.7799 7.25557 C 31.3399 6.12029, 32.9848 4.68844, 34.7143 2.95946 L 35.8839 3.81136 C 34.6073 5.01477, 33.2739 6.16323, 31.8838 7.25557 L 37.0731 7.25557, 37.0731 8.4922, 30.1949 8.4922 C 29.4839 9.01203, 28.6852 9.54332, 27.7984 10.0861 L 35.8651 10.0861, 35.8651 11.2952, 26.3545 11.2952, 25.9961 12.9532, 34.0817 12.9532 C 34.0004 14.2242, 33.9031 15.3016, 33.7897 16.1867, 33.6763 17.085, 33.3998 17.7136, 32.959 18.0737, 32.5067 18.4401, 31.739 18.6388, 30.6569 18.6691, 29.6757 18.6937, 28.3927 18.7058, 26.8074 18.7058 Z" stroke="none" fill="#0080FF" />
			<path d="M 40.2212 19.2096 C 40.0769 19.0573, 39.781 18.767, 39.3344 18.3394, 39.1833 18.1991, 39.0825 18.1046, 39.0321 18.0554, 40.2338 17.1766, 41.1458 16.3676, 41.7681 15.628, 42.4225 14.8591, 42.9069 14.0072, 43.2212 13.0723, 43.5109 12.2181, 43.7215 11.0943, 43.8532 9.70134, 43.9482 8.58437, 44.0078 7.37809, 44.033 6.08307 L 39.3155 6.08307, 39.3155 4.69989, 47.5991 4.69989 C 47.448 4.26707, 47.1652 3.53426, 46.7501 2.50145, 46.6688 2.2942, 46.6087 2.14192, 46.5709 2.04345 L 48.1745 1.75032 C 48.6715 2.93542, 49.043 3.86689, 49.288 4.54417 L 48.5707 4.69989, 56.2229 4.69989, 56.2229 6.08307, 45.561 6.08307 C 45.5358 7.24985, 45.4889 8.27579, 45.4196 9.16089 L 53.9677 9.16089 C 53.9048 11.4269, 53.7857 13.473, 53.6094 15.2982, 53.5029 16.5079, 53.1788 17.3535, 52.6372 17.8356, 52.1031 18.3062, 51.2163 18.5535, 49.9768 18.5775, 49.1466 18.6021, 48.1562 18.6142, 47.0049 18.6142, 46.9419 18.1195, 46.8348 17.6128, 46.6837 17.0936, 47.6398 17.1308, 48.6337 17.1491, 49.6653 17.1485, 50.5081 17.1491, 51.1058 16.9934, 51.4579 16.6819, 51.8105 16.3705, 52.0304 15.7963, 52.1185 14.9593, 52.2571 13.7261, 52.351 12.2547, 52.4014 10.5441 L 45.2782 10.5441 C 45.1396 11.9003, 44.8975 13.0425, 44.5517 13.97, 44.1933 14.9478, 43.6712 15.8484, 42.9853 16.6722, 42.3189 17.4726, 41.3971 18.3182, 40.2212 19.2096 Z" stroke="none" fill="#0080FF" />
			<path d="M 59.3939 18.8981 L 59.3939 4.33348, 64.6679 4.33348 C 64.9639 3.3751, 65.1906 2.50832, 65.3475 1.732 L 66.9322 1.90604 C 66.9196 1.94326, 66.9041 1.99535, 66.8852 2.06177, 66.5961 3.05164, 66.3665 3.80907, 66.1965 4.33348 L 74.4801 4.33348, 74.4801 16.4341 C 74.4801 17.2407, 74.3044 17.8264, 73.9517 18.1928, 73.5996 18.5592, 73.0117 18.7579, 72.1878 18.7882 L 69.6682 18.8432 C 69.5932 18.3852, 69.4924 17.8785, 69.3665 17.3226, 70.2161 17.3718, 70.977 17.3964, 71.6497 17.3959, 72.1592 17.3964, 72.5182 17.3048, 72.7254 17.1216, 72.9332 16.9384, 73.0368 16.627, 73.0368 16.1867 L 73.0368 5.68003, 60.847 5.68003, 60.847 18.8981 Z M 63.3185 14.8402 L 63.3185 8.29983, 70.5367 8.29983, 70.5367 14.8402 Z M 64.7337 13.5669 L 69.1495 13.5669, 69.1495 9.56393, 64.7337 9.56393 Z" stroke="none" fill="#0080FF" />
			<rect />
		</svg>
	</g>
	<path d="M 0 -78.754 L 0 -6.09057" fill="none" stroke="#000000" stroke-width="2.24000001" stroke-linecap="round" stroke-linejoin="round" transform="matrix(0.714286 0 -0 0.714286 69.3249 97.8058)" />
	<path d="M 0 78.754 L 0 6.09057" fill="none" stroke="#000000" stroke-width="2.24000001" stroke-linecap="round" stroke-linejoin="round" transform="matrix(0.714286 0 -0 0.714286 69.3249 97.8058)" />
	<path d="M -21.9261 -6.09057 L 21.9261 -6.09057" fill="none" stroke="#000000" stroke-width="2.24000001" stroke-linecap="round" stroke-linejoin="round" transform="matrix(0.714286 0 -0 0.714286 69.3249 97.8058)" />
	<path d="M -10.963 6.09057 L 10.963 6.09057" fill="none" stroke="#000000" stroke-width="2.24000001" stroke-linecap="round" stroke-linejoin="round" transform="matrix(0.714286 0 -0 0.714286 69.3249 97.8058)" />
	<path d="M -47.7376 0 L -28.6426 0" fill="none" stroke="#000000" stroke-width="2.24000001" stroke-linecap="round" stroke-linejoin="round" transform="matrix(5.39271e-008 0.714286 -0.714286 5.39271e-008 254.037 97.8058)" />
	<path d="M 28.6426 0 L 47.7376 0" fill="none" stroke="#000000" stroke-width="2.24000001" stroke-linecap="round" stroke-linejoin="round" transform="matrix(5.39271e-008 0.714286 -0.714286 5.39271e-008 254.037 97.8058)" />
	<path d="M -28.6426 -9.13594 L 28.6426 -9.13594, 28.6426 9.13594, -28.6426 9.13594 Z" stroke="none" fill="#FFFFFF" transform="matrix(5.39271e-008 0.714286 -0.714286 5.39271e-008 254.037 97.8058)" />
	<path d="M -28.6426 -9.13594 L 28.6426 -9.13594, 28.6426 9.13594, -28.6426 9.13594 Z" fill="none" stroke="#000000" stroke-width="2.24000001" stroke-linecap="round" stroke-linejoin="round" transform="matrix(5.39271e-008 0.714286 -0.714286 5.39271e-008 254.037 97.8058)" />
	<path d="M -129.299 0 L 129.298 0" fill="none" stroke="#000000" stroke-width="2.24000001" stroke-linecap="round" stroke-linejoin="round" transform="matrix(0.714286 0 0 0.714286 161.681 41.5529)" />
	<path d="M -129.299 0 L 129.298 0" fill="none" stroke="#000000" stroke-width="2.24000001" stroke-linecap="round" stroke-linejoin="round" transform="matrix(0.714286 0 0 0.714286 161.681 154.059)" />
	<path d="M 0 -15.5083 L 0 15.5081" fill="none" stroke="#000000" stroke-width="2.24000001" stroke-linecap="round" stroke-linejoin="round" transform="matrix(0.714286 0 0 0.714286 254.037 52.6303)" />
	<path d="M 0 -15.5081 L 0 15.5082" fill="none" stroke="#000000" stroke-width="2.24000001" stroke-linecap="round" stroke-linejoin="round" transform="matrix(0.714286 0 0 0.714286 254.037 142.981)" />
	<path d="M -31.5985 0 L 31.599 0" fill="none" stroke="#0080FF" stroke-width="3.73333335" stroke-linecap="round" stroke-linejoin="round" marker-start="url(#CustomMarker-01)" transform="matrix(0.714286 0 0 0.714286 159.242 41.5529)" />
	<g transform="matrix(1 0 -0 1 8.99999 86.5983)">
		<svg width="107.972839" height="47.9999886">
			<defs />
			<path d="M 6.82893 16.7669 C 5.69503 16.731, 4.59143 16.7131, 3.51868 16.7131, 2.4465 16.7131, 1.34289 16.731, 0.208429 16.7669 L 0.208429 15.9949, 0.846915 15.9949 C 1.05002 15.9955, 1.24134 15.9927, 1.41976 15.9865, 1.59873 15.9809, 1.76817 15.9657, 1.92864 15.9416, 2.0891 15.918, 2.22768 15.8939, 2.34438 15.8692, 2.44313 15.8518, 2.52504 15.7969, 2.58957 15.7037, 2.65465 15.6111, 2.68663 15.5079, 2.68663 15.3935 L 2.68663 5.27643 C 2.37861 5.4268, 1.99933 5.54069, 1.54936 5.61812, 1.09939 5.6961, 0.60622 5.73482, 0.0698472 5.73426 L 0.0698472 4.97122 C 0.809885 4.97178, 1.49269 4.88369, 2.11828 4.70696, 2.74386 4.53078, 3.28472 4.19976, 3.74086 3.71444 L 4.02756 3.71444 C 4.23066 3.715, 4.33222 3.81375, 4.33222 4.01068 L 4.33222 15.3935 C 4.33222 15.5135, 4.36307 15.6184, 4.42479 15.7082, 4.48651 15.798, 4.57628 15.8518, 4.69298 15.8692, 4.79172 15.8939, 4.91852 15.918, 5.07225 15.9416, 5.22655 15.9657, 5.40047 15.9809, 5.5946 15.9865, 5.78873 15.9927, 5.97837 15.9955, 6.16295 15.9949 L 6.82893 15.9949, 6.82893 16.7669 Z" stroke="none" fill="#000000" />
			<path d="M 17.5469 10.519 C 17.5469 11.3813, 17.4869 12.2386, 17.3668 13.0914, 17.2467 13.9442, 16.9494 14.7449, 16.4747 15.4922, 16.1358 16.0376, 15.6825 16.4561, 15.1158 16.749, 14.5491 17.0424, 13.9325 17.1888, 13.2666 17.1888, 12.6258 17.1888, 12.0204 17.0424, 11.4504 16.749, 10.8804 16.4561, 10.4254 16.0376, 10.0865 15.4922, 9.61238 14.7449, 9.31502 13.9442, 9.19495 13.0914, 9.07489 12.2386, 9.01429 11.3813, 9.01429 10.519, 9.01429 9.64596, 9.07489 8.77352, 9.19495 7.90275, 9.31502 7.03199, 9.61238 6.21677, 10.0865 5.45597, 10.4254 4.90613, 10.8787 4.47804, 11.4454 4.17283, 12.0126 3.86761, 12.6197 3.715, 13.2666 3.71444, 13.9264 3.715, 14.5407 3.86761, 15.1108 4.17283, 15.6808 4.47804, 16.1358 4.90613, 16.4747 5.45597, 16.9494 6.21677, 17.2467 7.03199, 17.3668 7.90275, 17.4869 8.77352, 17.5469 9.64596, 17.5469 10.519 Z M 15.7161 10.2048 C 15.7161 9.82831, 15.7133 9.43052, 15.7072 9.0114, 15.7016 8.59285, 15.6859 8.18272, 15.6612 7.78156, 15.6365 7.38097, 15.5922 7.00225, 15.5271 6.64598, 15.4625 6.29027, 15.384 5.98617, 15.2914 5.73426, 15.1063 5.32805, 14.8353 4.99422, 14.4779 4.73389, 14.1205 4.47355, 13.7165 4.34339, 13.2666 4.34283, 12.8289 4.34339, 12.4334 4.47524, 12.0788 4.73837, 11.7248 5.00207, 11.4549 5.33366, 11.2698 5.73426, 11.1777 5.98617, 11.0992 6.29027, 11.0341 6.64598, 10.9696 7.00225, 10.9247 7.38097, 10.9 7.78156, 10.8753 8.18272, 10.8602 8.59285, 10.854 9.0114, 10.8478 9.43052, 10.8445 9.82831, 10.8445 10.2048, 10.8445 10.6245, 10.8478 11.066, 10.854 11.5294, 10.8602 11.9934, 10.8753 12.4423, 10.9 12.876, 10.9247 13.3102, 10.9696 13.7215, 11.0341 14.1103, 11.0992 14.4997, 11.1777 14.8257, 11.2698 15.0882, 11.4426 15.5259, 11.7096 15.8849, 12.0698 16.166, 12.43 16.4477, 12.8289 16.588, 13.2666 16.5874, 13.7227 16.588, 14.1312 16.4477, 14.4914 16.166, 14.8521 15.8849, 15.1186 15.5259, 15.2914 15.0882, 15.384 14.8257, 15.4625 14.4997, 15.5271 14.1103, 15.5922 13.7215, 15.6365 13.3102, 15.6612 12.876, 15.6859 12.4423, 15.7016 11.9934, 15.7072 11.5294, 15.7133 11.066, 15.7161 10.6245, 15.7161 10.2048 Z" stroke="none" fill="#000000" />
			<path d="M 34.2105 4.57714 C 33.9214 4.57772, 33.6666 4.59947, 33.4468 4.64184, 33.2269 4.68478, 33.0219 4.75806, 32.833 4.86111, 32.5187 5.05118, 32.28 5.33801, 32.1162 5.72216 L 27.7486 16.98 C 27.6673 17.1575, 27.5287 17.2428, 27.3335 17.2365 L 27.1829 17.2365 C 26.9883 17.2365, 26.8497 17.1512, 26.7679 16.98 L 22.1929 5.19087 C 22.1425 5.07523, 22.0859 4.9716, 22.0229 4.88, 21.9599 4.7884, 21.8689 4.72142, 21.7492 4.67791, 21.605 4.62352, 21.4023 4.59317, 21.1412 4.58688, 20.8802 4.58115, 20.6019 4.57772, 20.3059 4.57714 L 20.3059 3.81685 C 21.1178 3.86036, 21.8941 3.88154, 22.636 3.88097, 22.7494 3.88154, 22.8725 3.87525, 23.0042 3.86265, 23.8658 3.86322, 24.7681 3.8512, 25.7116 3.82601 L 25.7116 4.57714 C 25.4288 4.57772, 25.1768 4.58401, 24.957 4.59604, 24.7372 4.60863, 24.5385 4.65386, 24.3622 4.73287, 24.2809 4.77638, 24.2179 4.8342, 24.1738 4.90691, 24.1423 4.95615, 24.1263 5.00195, 24.1263 5.04431, 24.1263 5.0695, 24.1297 5.09698, 24.136 5.12675 L 27.8339 14.5984, 31.3239 5.64888 C 31.3554 5.57617, 31.3708 5.49373, 31.3708 5.40156, 31.3708 5.22522, 31.2861 5.06034, 31.1166 4.90691, 30.9724 4.77924, 30.8103 4.69222, 30.6306 4.64642, 30.4514 4.60062, 30.2235 4.57772, 29.9464 4.57714 L 29.9464 3.82601 C 30.7079 3.8512, 31.4246 3.86322, 32.0973 3.86265, 32.1855 3.87525, 32.28 3.88154, 32.3802 3.88097, 32.959 3.88154, 33.5693 3.86036, 34.2105 3.81685 L 34.2105 4.57714 Z" stroke="none" fill="#000000" />
			<rect />
		</svg>
	</g>
	<g transform="matrix(1 0 -0 1 271.153 86.5983)">
		<svg width="105.014053" height="47.9999886">
			<defs />
			<path d="M 6.82893 16.7669 C 5.69503 16.731, 4.59143 16.7131, 3.51868 16.7131, 2.4465 16.7131, 1.34289 16.731, 0.208429 16.7669 L 0.208429 15.9949, 0.846915 15.9949 C 1.05002 15.9955, 1.24134 15.9927, 1.41976 15.9865, 1.59873 15.9809, 1.76817 15.9657, 1.92864 15.9416, 2.0891 15.918, 2.22768 15.8939, 2.34438 15.8692, 2.44313 15.8518, 2.52504 15.7969, 2.58957 15.7037, 2.65465 15.6111, 2.68663 15.5079, 2.68663 15.3935 L 2.68663 5.27643 C 2.37861 5.4268, 1.99933 5.54069, 1.54936 5.61812, 1.09939 5.6961, 0.60622 5.73482, 0.0698472 5.73426 L 0.0698472 4.97122 C 0.809885 4.97178, 1.49269 4.88369, 2.11828 4.70696, 2.74386 4.53078, 3.28472 4.19976, 3.74086 3.71444 L 4.02756 3.71444 C 4.23066 3.715, 4.33222 3.81375, 4.33222 4.01068 L 4.33222 15.3935 C 4.33222 15.5135, 4.36307 15.6184, 4.42479 15.7082, 4.48651 15.798, 4.57628 15.8518, 4.69298 15.8692, 4.79172 15.8939, 4.91852 15.918, 5.07225 15.9416, 5.22655 15.9657, 5.40047 15.9809, 5.5946 15.9865, 5.78873 15.9927, 5.97837 15.9955, 6.16295 15.9949 L 6.82893 15.9949, 6.82893 16.7669 Z" stroke="none" fill="#000000" />
			<path d="M 17.5469 10.519 C 17.5469 11.3813, 17.4869 12.2386, 17.3668 13.0914, 17.2467 13.9442, 16.9494 14.7449, 16.4747 15.4922, 16.1358 16.0376, 15.6825 16.4561, 15.1158 16.749, 14.5491 17.0424, 13.9325 17.1888, 13.2666 17.1888, 12.6258 17.1888, 12.0204 17.0424, 11.4504 16.749, 10.8804 16.4561, 10.4254 16.0376, 10.0865 15.4922, 9.61238 14.7449, 9.31502 13.9442, 9.19495 13.0914, 9.07489 12.2386, 9.01429 11.3813, 9.01429 10.519, 9.01429 9.64596, 9.07489 8.77352, 9.19495 7.90275, 9.31502 7.03199, 9.61238 6.21677, 10.0865 5.45597, 10.4254 4.90613, 10.8787 4.47804, 11.4454 4.17283, 12.0126 3.86761, 12.6197 3.715, 13.2666 3.71444, 13.9264 3.715, 14.5407 3.86761, 15.1108 4.17283, 15.6808 4.47804, 16.1358 4.90613, 16.4747 5.45597, 16.9494 6.21677, 17.2467 7.03199, 17.3668 7.90275, 17.4869 8.77352, 17.5469 9.64596, 17.5469 10.519 Z M 15.7161 10.2048 C 15.7161 9.82831, 15.7133 9.43052, 15.7072 9.0114, 15.7016 8.59285, 15.6859 8.18272, 15.6612 7.78156, 15.6365 7.38097, 15.5922 7.00225, 15.5271 6.64598, 15.4625 6.29027, 15.384 5.98617, 15.2914 5.73426, 15.1063 5.32805, 14.8353 4.99422, 14.4779 4.73389, 14.1205 4.47355, 13.7165 4.34339, 13.2666 4.34283, 12.8289 4.34339, 12.4334 4.47524, 12.0788 4.73837, 11.7248 5.00207, 11.4549 5.33366, 11.2698 5.73426, 11.1777 5.98617, 11.0992 6.29027, 11.0341 6.64598, 10.9696 7.00225, 10.9247 7.38097, 10.9 7.78156, 10.8753 8.18272, 10.8602 8.59285, 10.854 9.0114, 10.8478 9.43052, 10.8445 9.82831, 10.8445 10.2048, 10.8445 10.6245, 10.8478 11.066, 10.854 11.5294, 10.8602 11.9934, 10.8753 12.4423, 10.9 12.876, 10.9247 13.3102, 10.9696 13.7215, 11.0341 14.1103, 11.0992 14.4997, 11.1777 14.8257, 11.2698 15.0882, 11.4426 15.5259, 11.7096 15.8849, 12.0698 16.166, 12.43 16.4477, 12.8289 16.588, 13.2666 16.5874, 13.7227 16.588, 14.1312 16.4477, 14.4914 16.166, 14.8521 15.8849, 15.1186 15.5259, 15.2914 15.0882, 15.384 14.8257, 15.4625 14.4997, 15.5271 14.1103, 15.5922 13.7215, 15.6365 13.3102, 15.6612 12.876, 15.6859 12.4423, 15.7016 11.9934, 15.7072 11.5294, 15.7133 11.066, 15.7161 10.6245, 15.7161 10.2048 Z" stroke="none" fill="#000000" />
			<path d="M 32.5313 16.6044 C 32.4935 16.751, 32.3899 16.8243, 32.2199 16.8243 L 29.098 16.8243 C 28.8907 16.8243, 28.7865 16.7241, 28.7865 16.522, 28.7865 15.7714, 28.8982 15.0478, 29.1214 14.3516, 29.3447 13.6554, 29.5886 12.9673, 29.8525 12.286, 30.117 11.6053, 30.3558 10.9257, 30.5693 10.2479, 30.7834 9.57, 30.8899 8.88013, 30.8899 8.17708, 30.8899 7.62805, 30.8052 7.09561, 30.6352 6.57921, 30.4657 6.06338, 30.1983 5.60995, 29.8336 5.21893, 29.469 4.82848, 29.0384 4.52905, 28.5415 4.32123, 28.0445 4.11398, 27.5259 4.00979, 26.9848 4.00921, 26.4444 4.00979, 25.9257 4.11398, 25.4288 4.32123, 24.9318 4.52905, 24.503 4.82848, 24.1412 5.21893, 23.7794 5.60995, 23.512 6.06338, 23.3391 6.57921, 23.1662 7.09561, 23.0797 7.62805, 23.0797 8.17708, 23.0797 8.88013, 23.1885 9.57, 23.4049 10.2479, 23.6219 10.9257, 23.8624 11.6053, 24.1263 12.286, 24.3908 12.9673, 24.6341 13.6571, 24.8574 14.3562, 25.0807 15.0558, 25.1923 15.7777, 25.1923 16.522, 25.1923 16.7241, 25.095 16.8243, 24.9003 16.8243 L 21.7492 16.8243 C 21.5861 16.8243, 21.4853 16.751, 21.4475 16.6044 L 20.7874 13.9846 C 20.7874 13.8203, 20.8756 13.7167, 21.0513 13.6732 L 21.155 13.6732 C 21.3187 13.6738, 21.4195 13.7499, 21.4573 13.9022, 21.558 14.3241, 21.6508 14.6722, 21.7355 14.947, 21.8202 15.2218, 21.8786 15.3684, 21.9095 15.3861, 21.9725 15.4354, 22.1237 15.4663, 22.3624 15.4783, 22.6017 15.4909, 22.888 15.4966, 23.2212 15.496 L 24.4286 15.496 C 24.2969 14.947, 24.0467 14.3825, 23.6786 13.802, 23.311 13.222, 22.9286 12.6387, 22.5324 12.0524, 22.1362 11.4662, 21.7859 10.8587, 21.4807 10.2295, 21.1761 9.60092, 21.0233 8.91677, 21.0233 8.17708, 21.0233 7.49351, 21.1836 6.86203, 21.5042 6.28151, 21.8248 5.70155, 22.2559 5.20347, 22.7964 4.78783, 23.3815 4.31837, 24.0358 3.96857, 24.7589 3.73956, 25.482 3.51056, 26.224 3.39606, 26.9848 3.39548, 27.7463 3.39606, 28.4882 3.51056, 29.2113 3.73956, 29.9344 3.96857, 30.5979 4.31837, 31.2014 4.78783, 31.7298 5.21606, 32.1575 5.71816, 32.4844 6.29525, 32.8113 6.87234, 32.9744 7.49981, 32.9744 8.17708, 32.9744 8.91677, 32.8221 9.60092, 32.517 10.2295, 32.2124 10.8587, 31.8586 11.4662, 31.4561 12.0524, 31.0537 12.6387, 30.6666 13.222, 30.2957 13.802, 29.9247 14.3825, 29.6733 14.947, 29.5411 15.496 L 30.7577 15.496 C 31.0914 15.4966, 31.3777 15.4909, 31.6164 15.4783, 31.8557 15.4663, 32.0063 15.4354, 32.0693 15.3861, 32.0882 15.3747, 32.1414 15.2281, 32.2296 14.947, 32.3178 14.6665, 32.4117 14.3178, 32.5124 13.9022, 32.5502 13.7562, 32.6544 13.68, 32.8239 13.6732 L 32.9275 13.6732 C 33.0975 13.7104, 33.1823 13.814, 33.1823 13.9846 Z" stroke="none" fill="#000000" />
			<rect />
		</svg>
	</g>
	<g transform="matrix(1 0 -0 1 123.337 164.131)">
		<svg width="234.043167" height="99.0428314">
			<defs />
			<path d="M 8.72362 4.3115 C 8.7053 4.39165, 8.66294 4.45864, 8.59652 4.5136, 8.53011 4.56856, 8.44996 4.59604, 8.3555 4.59547, 8.06008 4.59604, 7.77097 4.60234, 7.48757 4.61436, 7.20475 4.62695, 7.00037 4.66016, 6.87442 4.71455, 6.74274 4.75806, 6.64484 4.91664, 6.58186 5.19088 L 3.93057 15.5144 C 3.90538 15.6312, 3.89278 15.7319, 3.89278 15.8167, 3.89278 15.9025, 3.90881 15.9546, 3.9403 15.9724, 4.02847 16.0279, 4.21053 16.06, 4.48762 16.0691, 4.76472 16.0783, 5.0567 16.0829, 5.36471 16.0823, 5.54104 16.0829, 5.62921 16.1562, 5.62921 16.3021, 5.62921 16.3394, 5.62291 16.3789, 5.61031 16.4212 L 5.57253 16.5678 C 5.50325 16.751, 5.3836 16.8426, 5.21356 16.8426, 4.40232 16.806, 3.58134 16.7876, 2.7512 16.7876, 1.92736 16.7876, 1.09092 16.806, 0.241318 16.8426, 0.0787248 16.8426, -0.0031441 16.7636, -0.0037166 16.6044 L -0.0037166 16.5311, 0.034069 16.3754 C 0.0850224 16.1745, 0.207539 16.0766, 0.402193 16.0823, 0.710203 16.0829, 1.00619 16.0783, 1.28901 16.0691, 1.57183 16.06, 1.77622 16.0279, 1.90217 15.9724, 2.01553 15.9117, 2.10713 15.7468, 2.17583 15.4777 L 4.84601 5.15423 C 4.8712 5.03859, 4.8838 4.94699, 4.8838 4.87943, 4.8838 4.7884, 4.86834 4.73058, 4.83628 4.70539, 4.73609 4.6573, 4.54774 4.62695, 4.27064 4.61436, 3.99355 4.60234, 3.70729 4.59604, 3.41188 4.59547, 3.23554 4.59604, 3.14738 4.5136, 3.14738 4.34814 L 3.14738 4.28402, 3.18516 4.11914 C 3.25444 3.93651, 3.37409 3.84491, 3.54355 3.84433, 4.36797 3.86952, 5.19524 3.88155, 6.02538 3.88097, 6.86239 3.88155, 7.69253 3.86952, 8.5158 3.84433, 8.60397 3.84491, 8.67954 3.87525, 8.74251 3.93593, 8.7677 3.98517, 8.7803 4.03097, 8.7803 4.07334, 8.7803 4.11055, 8.77114 4.14433, 8.75167 4.1741 Z" stroke="none" fill="#000000" />
			<polyline points="-6.566 -1.9698 6.566 -1.9698" fill="none" stroke="#000000" stroke-width="0.750400007" stroke-linecap="round" stroke-linejoin="round" transform="matrix(1 0 0 1 20.7904 11.2074)" />
			<polyline points="-6.566 1.9698 6.566 1.9698" fill="none" stroke="#000000" stroke-width="0.750400007" stroke-linecap="round" stroke-linejoin="round" transform="matrix(1 0 0 1 20.7904 11.2074)" />
			<polyline points="-6.566 0 6.566 0" fill="none" stroke="#000000" stroke-width="0.750400007" stroke-linecap="round" stroke-linejoin="round" transform="matrix(1 0 0 1 40.3008 11.2074)" />
			<path d="M 59.1319 16.7669 C 57.998 16.731, 56.8944 16.7131, 55.8217 16.7131, 54.7495 16.7131, 53.6459 16.731, 52.5114 16.7669 L 52.5114 15.9949, 53.1499 15.9949 C 53.353 15.9955, 53.5443 15.9927, 53.7228 15.9865, 53.9017 15.9809, 54.0712 15.9657, 54.2316 15.9416, 54.3921 15.918, 54.5307 15.8939, 54.6474 15.8692, 54.7461 15.8518, 54.828 15.7969, 54.8926 15.7037, 54.9576 15.6111, 54.9896 15.5079, 54.9896 15.3935 L 54.9896 5.27643 C 54.6816 5.4268, 54.3023 5.54069, 53.8524 5.61812, 53.4024 5.6961, 52.9092 5.73482, 52.3728 5.73426 L 52.3728 4.97122 C 53.1129 4.97178, 53.7957 4.88369, 54.4213 4.70696, 55.0469 4.53078, 55.5877 4.19976, 56.0439 3.71444 L 56.3306 3.71444 C 56.5337 3.715, 56.6352 3.81375, 56.6352 4.01068 L 56.6352 15.3935 C 56.6352 15.5135, 56.6661 15.6184, 56.7278 15.7082, 56.7895 15.798, 56.8793 15.8518, 56.996 15.8692, 57.0947 15.8939, 57.2215 15.918, 57.3753 15.9416, 57.5295 15.9657, 57.7035 15.9809, 57.8976 15.9865, 58.0917 15.9927, 58.2814 15.9955, 58.466 15.9949 L 59.1319 15.9949, 59.1319 16.7669 Z" stroke="none" fill="#000000" />
			<path d="M 76.3757 16.8334 C 75.5582 16.7911, 74.7693 16.7693, 74.0079 16.7693 L 73.6397 16.7693 C 72.7529 16.7819, 71.8312 16.8002, 70.8751 16.8243 L 70.8751 16.064 C 71.1585 16.0646, 71.4132 16.0542, 71.6394 16.0325, 71.8661 16.0113, 72.067 15.9667, 72.2434 15.8991, 72.3252 15.8567, 72.3974 15.7926, 72.4604 15.7067, 72.4855 15.677, 72.4981 15.6369, 72.4981 15.5877, 72.4981 15.5636, 72.4953 15.5361, 72.4884 15.5052 L 71.4224 12.5465, 66.7896 12.5465, 65.9126 15.0014 C 65.8811 15.0753, 65.865 15.1457, 65.865 15.2121, 65.865 15.2739, 65.8748 15.3346, 65.8937 15.3953, 65.9441 15.5304, 66.0259 15.6403, 66.1387 15.7251, 66.3024 15.8602, 66.4771 15.9501, 66.6626 15.9959, 66.848 16.0417, 67.073 16.0646, 67.337 16.064 L 67.337 16.8243 C 66.5761 16.8002, 65.8496 16.7819, 65.1574 16.7693 L 64.8654 16.7693 C 64.2614 16.7693, 63.6323 16.7911, 62.9785 16.8334 L 62.9785 16.064 C 63.2807 16.0646, 63.5429 16.0451, 63.7662 16.005, 63.9895 15.9655, 64.2048 15.8876, 64.412 15.7709, 64.7521 15.5819, 64.9908 15.3043, 65.1294 14.9373 L 69.2051 3.4596 C 69.268 3.27697, 69.4003 3.18824, 69.6012 3.19396 L 69.7524 3.19396 C 69.9539 3.19453, 70.0856 3.28327, 70.1486 3.4596 L 74.4321 15.4502 C 74.4641 15.567, 74.5128 15.6707, 74.5786 15.7623, 74.6451 15.8539, 74.7344 15.9151, 74.8472 15.9449, 75.0109 16.0067, 75.2267 16.0417, 75.4941 16.0508, 75.7615 16.06, 76.0551 16.0646, 76.3757 16.064 L 76.3757 16.8334 Z M 69.1203 6.04277 L 67.0633 11.7862, 71.1487 11.7862 Z" stroke="none" fill="#000000" />
			<rect />
		</svg>
	</g>
	<path d="M -26.4095 0 L 26.4089 0" fill="none" stroke="#000000" stroke-width="1.86666667" stroke-linecap="round" stroke-linejoin="round" marker-start="url(#CustomMarker-02)" transform="matrix(0.714286 0 0 0.714286 178.106 154.059)" />
</svg>
