<?xml version="1.0"?>
<svg xmlns="http://www.w3.org/2000/svg" xmlns:xlink="http://www.w3.org/1999/xlink" width="562.612671" height="131.597748">
	<defs>
		<marker id="CustomMarker-01" markerUnits="strokeWidth" markerWidth="8.25" markerHeight="13.5" viewBox="-8.25 -6.75 8.25 13.5" orient="auto-start-reverse">
			<path d="M -5.5 -4.5 L 0 -0, -5.5 4.5" fill="none" stroke="#0080FF" stroke-linejoin="round" />
		</marker>
		<marker id="CustomMarker-02" markerUnits="strokeWidth" markerWidth="15.000001" markerHeight="9" viewBox="-15 -4.5 15 9" orient="auto-start-reverse">
			<path d="M 0 -0 L -10 -3, -8 -0.5, -8 0.5, -10 3 Z" fill="#000000" stroke="#000000" stroke-linejoin="round" />
		</marker>
		<marker id="CustomMarker-03" markerUnits="strokeWidth" markerWidth="15.000001" markerHeight="9" viewBox="-15 -4.5 15 9" orient="auto-start-reverse">
			<path d="M 0 -0 L -10 -3, -8 -0.5, -8 0.5, -10 3 Z" fill="#000000" stroke="#000000" stroke-linejoin="round" />
		</marker>
	</defs>
	<path d="M 20.8894 0 L -20.8887 0" fill="none" stroke="#0080FF" stroke-width="3.20000029" stroke-linecap="round" stroke-linejoin="round" marker-start="url(#CustomMarker-01)" transform="matrix(0.416667 0 0 0.416667 31.3346 60.0167)" />
	<path d="M -46.832 0 L 46.8318 0" fill="none" stroke="#000000" stroke-width="3.84000015" stroke-linecap="round" stroke-linejoin="round" transform="matrix(0.416667 0 0 0.416667 28.2133 60.0167)" />
	<g transform="matrix(1 0 -0 1 381.299 39.5569)">
		<svg width="513.07019" height="60.0856972">
			<defs />
			<path d="M 10.6484 18.5775 C 9.70487 18.5775, 9.02759 18.3731, 8.61538 17.9638, 8.20374 17.555, 7.99764 16.8863, 7.99764 15.9577 L 7.99764 14.0524, 2.97788 14.0524, 2.97788 15.3165, 1.53458 15.3165, 1.53458 4.077, 7.99764 4.077, 7.99764 1.76864, 9.47872 1.76864, 9.47872 4.077, 15.9698 4.077, 15.9698 14.0524, 9.47872 14.0524, 9.47872 15.7104 C 9.47872 16.2669, 9.60181 16.659, 9.84685 16.8881, 10.0919 17.1171, 10.5258 17.2316, 11.1487 17.231 L 14.404 17.231 C 14.9639 17.2316, 15.3819 17.1337, 15.6584 16.9379, 15.9229 16.7489, 16.1118 16.4346, 16.2246 15.9944, 16.3757 15.3291, 16.4954 14.6238, 16.583 13.8784, 17.0994 14.0742, 17.5803 14.227, 18.0269 14.3364, 17.9078 15.1551, 17.7566 15.9766, 17.574 16.8005, 17.4103 17.4239, 17.1212 17.8722, 16.7061 18.147, 16.2658 18.4344, 15.6086 18.5775, 14.7338 18.5775 Z M 2.97788 12.7059 L 7.99764 12.7059, 7.99764 9.70134, 2.97788 9.70134 Z M 9.47872 12.7059 L 14.5168 12.7059, 14.5168 9.70134, 9.47872 9.70134 Z M 2.97788 8.39143 L 7.99764 8.39143, 7.99764 5.42354, 2.97788 5.42354 Z M 9.47872 8.39143 L 14.5168 8.39143, 14.5168 5.42354, 9.47872 5.42354 Z" stroke="none" fill="#0080FF" />
			<path d="M 24.4864 19.1729 C 24.2099 18.9044, 23.8389 18.5901, 23.3735 18.2294, 24.2225 17.6008, 24.8328 16.9596, 25.2038 16.3058, 25.5942 15.6222, 25.8364 14.7371, 25.9303 13.6494, 25.987 12.9967, 26.015 12.1414, 26.015 11.0845 L 27.3833 11.0845 C 27.3833 12.0194, 27.349 12.9234, 27.2791 13.7959, 27.1852 15.0726, 26.9242 16.1112, 26.4965 16.9104, 26.0877 17.6678, 25.4173 18.4218, 24.4864 19.1729 Z M 21.6748 18.9165 L 20.2029 18.4768 C 20.914 16.2909, 21.562 14.1051, 22.1466 11.9181, 22.3985 12.0349, 22.8164 12.1872, 23.4015 12.3761, 23.4645 12.395, 23.5086 12.407, 23.5338 12.4127, 22.7351 15.0635, 22.1157 17.2316, 21.6748 18.9165 Z M 29.4398 18.7424 L 29.4398 11.0845, 30.827 11.0845, 30.827 18.7424 Z M 34.601 18.7058 C 33.9975 18.7058, 33.5584 18.5638, 33.2848 18.2798, 33.0111 17.9959, 32.8743 17.5493, 32.8743 16.9379 L 32.8743 11.0296, 34.2237 11.0296, 34.2237 16.6905 C 34.2237 16.9596, 34.2786 17.1525, 34.3886 17.2682, 34.4985 17.3844, 34.6731 17.4422, 34.9124 17.4417 L 35.3086 17.4417 C 35.529 17.4422, 35.6973 17.3827, 35.8135 17.2636, 35.9297 17.1445, 36.0065 16.9476, 36.0443 16.6722, 36.1267 15.9703, 36.1925 15.198, 36.2423 14.3547, 36.6643 14.5322, 37.0416 14.6547, 37.3748 14.7211, 37.2935 15.7173, 37.199 16.5199, 37.0919 17.1302, 36.9156 18.1808, 36.3494 18.7058, 35.3933 18.7058 Z M 35.4878 10.8555 L 34.5534 9.71966 C 32.8239 9.75687, 30.5562 9.83015, 27.7509 9.9395, 27.4051 9.9521, 27.1446 9.96126, 26.9683 9.96698, 26.8864 9.97385, 26.773 9.98301, 26.6282 9.99446, 26.0374 10.0254, 25.6 10.062, 25.3171 10.1044 L 24.7223 8.83112 C 25.1505 8.61815, 25.5622 8.35537, 25.9583 8.04335, 26.7513 7.40271, 27.6633 6.46551, 28.6944 5.23118 L 24.5431 5.23118, 24.5431 3.9854, 30.1571 3.9854 C 29.9058 3.41804, 29.6007 2.77683, 29.2417 2.06177 L 30.8081 1.71368, 31.7796 3.82968, 31.289 3.9854, 36.7616 3.9854, 36.7616 5.23118, 30.3552 5.23118, 30.5722 5.2953 C 29.3144 6.59662, 28.1253 7.73877, 27.0055 8.7212, 28.0818 8.70975, 29.8869 8.66681, 32.4214 8.59296, 32.9372 8.58151, 33.318 8.57235, 33.563 8.56548, 33.1983 8.12636, 32.6699 7.53725, 31.9777 6.79757 L 33.0724 6.10139 C 34.3622 7.43305, 35.5696 8.73723, 36.6952 10.0128 Z M 22.5428 10.1227 C 21.6119 9.28054, 20.6998 8.50479, 19.8067 7.79602 L 20.7411 6.79757 C 21.7916 7.58591, 22.7288 8.32789, 23.5527 9.02349 Z M 23.062 5.45102 C 22.2949 4.71878, 21.3828 3.92185, 20.326 3.06022 L 21.2975 2.08009 C 22.1529 2.73389, 23.0775 3.48503, 24.0714 4.33348 Z" stroke="none" fill="#0080FF" />
			<path d="M 47.0805 18.8249 C 47.0175 18.3611, 46.9139 17.8144, 46.769 17.1852, 47.8573 17.2653, 49.106 17.3048, 50.5144 17.3043, 51.4327 17.3048, 52.0905 17.152, 52.4867 16.8463, 52.8639 16.5537, 53.0935 16.0379, 53.1754 15.2982, 53.3454 13.6253, 53.4616 11.8757, 53.524 10.0494 L 41.6931 10.0494, 42.4855 1.75032, 44.033 1.75032, 43.7782 4.38845, 56.3076 4.38845, 56.3076 5.78995, 43.6551 5.78995, 43.3815 8.65708, 55.1941 8.65708 C 55.1941 8.66967, 55.1941 8.68513, 55.1941 8.70288, 54.9931 11.9032, 54.8328 14.1721, 54.7132 15.5089, 54.6067 16.6819, 54.2792 17.5092, 53.7319 17.9913, 53.1788 18.4802, 52.2571 18.7458, 50.9672 18.7882, 50.867 18.7882, 50.7193 18.7882, 50.5241 18.7882, 48.8827 18.8128, 47.7348 18.8249, 47.0805 18.8249 Z M 39.0321 14.2081 L 39.0321 12.7791, 51.779 12.7791, 51.779 14.2081 Z" stroke="none" fill="#0080FF" />
			<path d="M 60.1823 19.2645 C 60.0563 18.8924, 59.8743 18.4831, 59.6349 18.0371, 62.1637 17.6403, 64.4377 17.1337, 66.4564 16.5165, 68.4505 15.9005, 70.5418 15.0669, 72.7305 14.0158 L 73.5704 15.0142 C 71.4069 16.1077, 69.2938 16.9814, 67.2304 17.634, 65.1488 18.2999, 62.7992 18.8432, 60.1823 19.2645 Z M 61.0221 16.4157 C 60.9088 16.0928, 60.717 15.7138, 60.4462 15.2799, 62.4156 14.8774, 64.1624 14.4274, 65.6875 13.9293, 67.2127 13.4318, 68.7899 12.798, 70.4193 12.028 L 71.2495 12.9898 C 69.4128 13.8268, 67.705 14.511, 66.1261 15.0417, 64.5099 15.5856, 62.8084 16.0436, 61.0221 16.4157 Z M 61.692 13.6494 C 61.5225 13.3019, 61.3118 12.9417, 61.0599 12.5685, 63.5887 11.9645, 66.0545 11.1189, 68.4567 10.0311 L 69.2302 10.9471 C 66.7839 12.1082, 64.2711 13.0087, 61.692 13.6494 Z M 74.8723 13.4387 C 73.4571 12.841, 72.2937 12.2147, 71.3817 11.5608, 70.4382 10.8899, 69.5611 10.0437, 68.7493 9.02349 L 65.2959 9.02349 C 64.5099 9.87881, 63.6133 10.6299, 62.6068 11.2769, 61.6702 11.8883, 60.4468 12.5295, 58.9371 13.2005, 58.7481 12.8593, 58.5031 12.4683, 58.2008 12.028, 59.3584 11.5643, 60.3431 11.0971, 61.1538 10.6265, 61.9845 10.1508, 62.7334 9.6166, 63.3998 9.02349 L 58.6634 9.02349, 58.6634 7.8693, 64.5316 7.8693 C 64.953 7.36893, 65.3022 6.92008, 65.5793 6.52276 L 67.0226 6.85253 C 66.8531 7.09756, 66.611 7.43649, 66.2961 7.8693 L 75.269 7.8693, 75.269 9.02349, 70.3157 9.02349 C 71.0142 9.74485, 71.7813 10.3494, 72.6178 10.8372, 73.4353 11.3261, 74.4326 11.7692, 75.6085 12.1654, 75.5582 12.2576, 75.4734 12.4013, 75.3538 12.5959, 75.1276 12.9692, 74.9673 13.2498, 74.8723 13.4387 Z M 73.0517 7.06321 L 71.9382 6.193 C 67.2081 6.22391, 63.9437 6.27601, 62.1448 6.34872, 61.5918 6.36761, 61.0571 6.41341, 60.5407 6.48612 L 59.9842 5.23118 C 60.6449 4.96897, 61.2076 4.70676, 61.6731 4.44341, 63.0128 3.61957, 64.2963 2.69153, 65.5226 1.65872 L 67.1829 2.17169 C 65.8369 3.09457, 64.3055 4.10219, 62.588 5.19454, 66.1169 5.15847, 68.7527 5.12813, 70.4949 5.10294 L 68.2964 3.54571, 69.2491 2.73046 C 71.08 3.95849, 72.671 5.07603, 74.0233 6.08307 Z" stroke="none" fill="#0080FF" />
			<path d="M 84.3702 18.7058 C 84.2385 18.1195, 84.1251 17.6524, 84.0307 17.3043, 85.2387 17.3415, 86.5154 17.3598, 87.8613 17.3592, 88.5661 17.3598, 89.063 17.2619, 89.3521 17.0661, 89.6292 16.8772, 89.8113 16.5199, 89.8995 15.9944, 89.9561 15.6102, 90.0157 14.9936, 90.0787 14.144 L 81.87 14.144, 82.3515 11.799 C 81.2133 12.4225, 79.7792 13.1158, 78.0491 13.8784, 77.9426 13.6162, 77.7445 13.2194, 77.4548 12.6875, 77.417 12.6211, 77.389 12.569, 77.3695 12.5318, 80.5905 11.2803, 83.3076 9.93377, 85.5215 8.4922 L 77.7096 8.4922, 77.7096 7.25557, 83.8515 7.25557, 83.8515 5.00218, 79.134 5.00218, 79.134 3.79304, 83.8515 3.79304, 83.8515 1.80528, 85.2856 1.80528, 85.2856 3.79304, 89.2107 3.79304, 89.2107 5.00218, 85.2856 5.00218, 85.2856 7.25557, 87.3426 7.25557 C 88.9027 6.12029, 90.5475 4.68844, 92.2771 2.95946 L 93.4467 3.81136 C 92.17 5.01477, 90.8367 6.16323, 89.4466 7.25557 L 94.6358 7.25557, 94.6358 8.4922, 87.7577 8.4922 C 87.0466 9.01203, 86.248 9.54332, 85.3612 10.0861 L 93.4278 10.0861, 93.4278 11.2952, 83.9173 11.2952, 83.5589 12.9532, 91.6445 12.9532 C 91.5632 14.2242, 91.4659 15.3016, 91.3525 16.1867, 91.2391 17.085, 90.9626 17.7136, 90.5218 18.0737, 90.0695 18.4401, 89.3018 18.6388, 88.2197 18.6691, 87.2384 18.6937, 85.9554 18.7058, 84.3702 18.7058 Z" stroke="none" fill="#0080FF" />
			<path d="M 97.784 19.2096 C 97.6397 19.0573, 97.3437 18.767, 96.8972 18.3394, 96.746 18.1991, 96.6453 18.1046, 96.5949 18.0554, 97.7966 17.1766, 98.7086 16.3676, 99.3309 15.628, 99.9853 14.8591, 100.47 14.0072, 100.784 13.0723, 101.074 12.2181, 101.284 11.0943, 101.416 9.70134, 101.511 8.58437, 101.571 7.37809, 101.596 6.08307 L 96.8783 6.08307, 96.8783 4.69989, 105.162 4.69989 C 105.011 4.26707, 104.728 3.53426, 104.313 2.50145, 104.232 2.2942, 104.171 2.14192, 104.134 2.04345 L 105.737 1.75032 C 106.234 2.93542, 106.606 3.86689, 106.851 4.54417 L 106.133 4.69989, 113.786 4.69989, 113.786 6.08307, 103.124 6.08307 C 103.099 7.24985, 103.052 8.27579, 102.982 9.16089 L 111.531 9.16089 C 111.468 11.4269, 111.348 13.473, 111.172 15.2982, 111.066 16.5079, 110.742 17.3535, 110.2 17.8356, 109.666 18.3062, 108.779 18.5535, 107.54 18.5775, 106.709 18.6021, 105.719 18.6142, 104.568 18.6142, 104.505 18.1195, 104.398 17.6128, 104.246 17.0936, 105.203 17.1308, 106.196 17.1491, 107.228 17.1485, 108.071 17.1491, 108.669 16.9934, 109.021 16.6819, 109.373 16.3705, 109.593 15.7963, 109.681 14.9593, 109.82 13.7261, 109.914 12.2547, 109.964 10.5441 L 102.841 10.5441 C 102.702 11.9003, 102.46 13.0425, 102.114 13.97, 101.756 14.9478, 101.234 15.8484, 100.548 16.6722, 99.8817 17.4726, 98.9599 18.3182, 97.784 19.2096 Z" stroke="none" fill="#0080FF" />
			<path d="M 116.953 18.8981 L 116.953 4.33348, 122.227 4.33348 C 122.523 3.3751, 122.749 2.50832, 122.906 1.732 L 124.491 1.90604 C 124.478 1.94326, 124.463 1.99535, 124.444 2.06177, 124.155 3.05164, 123.925 3.80907, 123.755 4.33348 L 132.039 4.33348, 132.039 16.4341 C 132.039 17.2407, 131.863 17.8264, 131.51 18.1928, 131.158 18.5592, 130.57 18.7579, 129.747 18.7882 L 127.227 18.8432 C 127.152 18.3852, 127.051 17.8785, 126.925 17.3226, 127.775 17.3718, 128.536 17.3964, 129.208 17.3959, 129.718 17.3964, 130.077 17.3048, 130.284 17.1216, 130.492 16.9384, 130.596 16.627, 130.596 16.1867 L 130.596 5.68003, 118.406 5.68003, 118.406 18.8981 Z M 120.877 14.8402 L 120.877 8.29983, 128.095 8.29983, 128.095 14.8402 Z M 122.292 13.5669 L 126.708 13.5669, 126.708 9.56393, 122.292 9.56393 Z" stroke="none" fill="#0080FF" />
			<path d="M 142.405 19.1363 L 142.405 2.92282, 151.642 2.92282, 151.642 19.1363, 150.236 19.1363, 150.236 17.918, 143.82 17.918, 143.82 19.1363 Z M 137.754 19.1088 L 137.754 9.56393 C 137.181 11.317, 136.408 12.9291, 135.433 14.4005, 135.382 14.2482, 135.304 14.0072, 135.197 13.6768, 135.058 13.2194, 134.951 12.8896, 134.876 12.6875, 136.09 10.9723, 137.027 8.95078, 137.687 6.62352 L 135.235 6.62352, 135.235 5.33194, 137.754 5.33194, 137.754 1.8694, 139.121 1.8694, 139.121 5.33194, 141.48 5.33194, 141.48 6.62352, 139.121 6.62352, 139.121 9.50897, 139.631 8.96852 C 140.166 9.45172, 140.892 10.1599, 141.81 11.0937, 141.848 11.1372, 141.877 11.1675, 141.895 11.1853 L 140.961 12.1654 C 140.446 11.5431, 139.832 10.8624, 139.121 10.1227 L 139.121 19.1088 Z M 143.82 16.6264 L 150.236 16.6264, 150.236 13.3196, 143.82 13.3196 Z M 143.82 12.0647 L 150.236 12.0647, 150.236 8.75784, 143.82 8.75784 Z M 143.82 7.5029 L 150.236 7.5029, 150.236 4.2144, 143.82 4.2144 Z" stroke="none" fill="#0080FF" />
			<path d="M 155.275 18.9165 L 155.275 2.69382, 170.485 2.69382, 170.485 16.3424 C 170.485 17.2104, 170.312 17.8235, 169.966 18.1836, 169.62 18.5443, 169.013 18.7458, 168.145 18.7882, 167.415 18.8128, 166.528 18.8249, 165.484 18.8249, 165.421 18.3852, 165.323 17.8905, 165.191 17.3409, 165.582 17.3718, 166.223 17.3844, 167.116 17.3775, 167.336 17.3781, 167.5 17.3781, 167.607 17.3775, 168.166 17.3781, 168.547 17.2882, 168.749 17.1079, 168.95 16.9281, 169.05 16.5812, 169.05 16.0676 L 169.05 4.02204, 156.719 4.02204, 156.719 18.9165 Z M 159.163 15.2616 L 159.163 9.54561, 166.616 9.54561, 166.616 15.2616 Z M 160.549 13.9883 L 165.229 13.9883, 165.229 10.8189, 160.549 10.8189 Z M 157.936 7.44794 L 157.936 6.15636, 167.842 6.15636, 167.842 7.44794 Z" stroke="none" fill="#0080FF" />
			<rect />
		</svg>
	</g>
	<path d="M -221.656 0 L 221.654 0" fill="none" stroke="#000000" stroke-width="3.20000029" stroke-linecap="round" stroke-linejoin="round" marker-end="url(#CustomMarker-02)" transform="matrix(0.416667 0 0 0.416667 253.674 72.5167)" />
	<g transform="matrix(1 0 -0 1 33.8436 27.0569)">
		<svg width="18.0512524" height="45.0428467">
			<defs />
			<path d="M 4.85574 5.20004 C 4.79907 5.43248, 4.66853 5.62656, 4.46415 5.78228, 4.25976 5.938, 4.0382 6.01586, 3.79889 6.01529, 3.54756 6.01586, 3.35577 5.93056, 3.22352 5.75881, 3.13535 5.66148, 3.08841 5.5424, 3.08154 5.40156, 3.08154 5.31683, 3.09413 5.23095, 3.11932 5.14507, 3.17657 4.91378, 3.30882 4.7197, 3.51607 4.56398, 3.72332 4.40825, 3.9466 4.33039, 4.18591 4.32982, 4.43781 4.33039, 4.6296 4.41284, 4.76128 4.57715, 4.84945 4.69394, 4.89353 4.81874, 4.89353 4.95271, 4.89353 5.03859, 4.88093 5.12103, 4.85574 5.20004 Z M 4.95937 14.0854 C 4.89067 14.4037, 4.78361 14.738, 4.63876 15.089, 4.49449 15.4405, 4.31644 15.7594, 4.10576 16.0462, 3.89507 16.3336, 3.64775 16.5729, 3.36493 16.7647, 3.08211 16.9571, 2.75463 17.0533, 2.38365 17.0533, 2.06934 17.0533, 1.79911 16.9863, 1.5724 16.8518, 1.34569 16.7178, 1.17107 16.5409, 1.04855 16.321, 0.926037 16.1012, 0.864779 15.8567, 0.864779 15.5877, 0.852184 15.5762, 0.845886 15.5516, 0.845886 15.5144, 0.845886 15.2401, 0.905999 14.959, 1.02508 14.6716 L 2.55368 10.6412 C 2.74261 10.1351, 2.8365 9.71943, 2.8365 9.39539, 2.8365 9.12116, 2.72028 8.98375, 2.48727 8.98318, 2.27373 8.98375, 2.08193 9.04501, 1.9119 9.16696, 1.74244 9.28947, 1.58671 9.45894, 1.44473 9.67535, 1.30332 9.89233, 1.17622 10.1488, 1.06287 10.4448, 0.94951 10.7414, 0.855046 11.0568, 0.779475 11.3923, 0.710774 11.5578, 0.594554 11.6431, 0.430816 11.6488 L 0.222995 11.6488 C 0.0718527 11.6494, -0.00371855 11.5732, -0.00371855 11.4198 L -0.00371855 11.3557 C 0.0718527 11.0202, 0.18521 10.6772, 0.336352 10.3257, 0.487495 9.97477, 0.669553 9.65588, 0.883672 9.36848, 1.09779 9.08165, 1.34626 8.84349, 1.62908 8.65399, 1.9119 8.46506, 2.23594 8.37002, 2.60063 8.36945, 2.91551 8.37002, 3.18287 8.43758, 3.40271 8.57155, 3.62313 8.70609, 3.79145 8.88471, 3.90767 9.10742, 4.02389 9.33069, 4.08801 9.58203, 4.1006 9.86256 L 4.1006 9.92668 C 4.1006 10.19, 4.04736 10.4614, 3.9403 10.7419 L 2.4117 14.7907 C 2.23594 15.2859, 2.14777 15.7073, 2.14777 16.0548, 2.13518 16.0674, 2.12888 16.0674, 2.12888 16.0548, 2.12888 16.3182, 2.24853 16.4493, 2.48727 16.4487, 2.70139 16.4493, 2.8949 16.3852, 3.0678 16.2569, 3.24069 16.1287, 3.39813 15.9581, 3.53954 15.7439, 3.68095 15.5304, 3.80519 15.2739, 3.91225 14.9745, 4.01931 14.6756, 4.11663 14.3608, 4.2048 14.0304, 4.24259 13.8724, 4.35251 13.7928, 4.53457 13.7923 L 4.74239 13.7923 C 4.81166 13.7928, 4.88093 13.814, 4.94964 13.8564, 4.9691 13.9056, 4.98456 13.9486, 4.99715 13.9846, 4.99715 14.0218, 4.98456 14.0556, 4.95937 14.0854 Z" stroke="none" fill="#0080FF" />
			<rect />
		</svg>
	</g>
	<path d="M -81.8361 0 L -49.1016 0" fill="none" stroke="#000000" stroke-width="3.84000015" stroke-linecap="round" stroke-linejoin="round" transform="matrix(0.416667 -1.2583e-007 1.2583e-007 0.416667 81.8249 60.0167)" />
	<path d="M 49.1016 0 L 81.8361 0" fill="none" stroke="#000000" stroke-width="3.84000015" stroke-linecap="round" stroke-linejoin="round" transform="matrix(0.416667 -1.2583e-007 1.2583e-007 0.416667 81.8249 60.0167)" />
	<rect x="-49.1016388" y="-15.6616707" width="98.2032776" height="31.3233414" stroke="none" fill="#FFFFFF" transform="matrix(0.416667 -1.2583e-007 1.2583e-007 0.416667 81.8249 60.0167)" />
	<path d="M -49.1016 -15.6617 L 49.1016 -15.6617, 49.1016 15.6617, -49.1016 15.6617 Z" fill="none" stroke="#000000" stroke-width="3.84000015" stroke-linecap="round" stroke-linejoin="round" transform="matrix(0.416667 -1.2583e-007 1.2583e-007 0.416667 81.8249 60.0167)" />
	<path d="M -26.5854 0 L 26.5854 0" fill="none" stroke="#000000" stroke-width="3.84000015" stroke-linecap="round" stroke-linejoin="round" transform="matrix(0.416667 0 0 0.416667 127.001 60.0167)" />
	<g transform="matrix(1 0 -0 1 28.2306 81.9768)">
		<svg width="299.908447" height="99.0428314">
			<defs />
			<path d="M 4.85574 5.20004 C 4.79907 5.43248, 4.66853 5.62656, 4.46415 5.78228, 4.25976 5.938, 4.0382 6.01586, 3.79889 6.01529, 3.54756 6.01586, 3.35577 5.93056, 3.22352 5.75881, 3.13535 5.66148, 3.08841 5.5424, 3.08154 5.40156, 3.08154 5.31683, 3.09413 5.23095, 3.11932 5.14507, 3.17657 4.91378, 3.30882 4.7197, 3.51607 4.56398, 3.72332 4.40825, 3.9466 4.33039, 4.18591 4.32982, 4.43781 4.33039, 4.6296 4.41284, 4.76128 4.57715, 4.84945 4.69394, 4.89353 4.81874, 4.89353 4.95271, 4.89353 5.03859, 4.88093 5.12103, 4.85574 5.20004 Z M 4.95937 14.0854 C 4.89067 14.4037, 4.78361 14.738, 4.63876 15.089, 4.49449 15.4405, 4.31644 15.7594, 4.10576 16.0462, 3.89507 16.3336, 3.64775 16.5729, 3.36493 16.7647, 3.08211 16.9571, 2.75463 17.0533, 2.38365 17.0533, 2.06934 17.0533, 1.79911 16.9863, 1.5724 16.8518, 1.34569 16.7178, 1.17107 16.5409, 1.04855 16.321, 0.926037 16.1012, 0.864779 15.8567, 0.864779 15.5877, 0.852184 15.5762, 0.845886 15.5516, 0.845886 15.5144, 0.845886 15.2401, 0.905999 14.959, 1.02508 14.6716 L 2.55368 10.6412 C 2.74261 10.1351, 2.8365 9.71943, 2.8365 9.39539, 2.8365 9.12116, 2.72028 8.98375, 2.48727 8.98318, 2.27373 8.98375, 2.08193 9.04501, 1.9119 9.16696, 1.74244 9.28947, 1.58671 9.45894, 1.44473 9.67535, 1.30332 9.89233, 1.17622 10.1488, 1.06287 10.4448, 0.94951 10.7414, 0.855046 11.0568, 0.779475 11.3923, 0.710774 11.5578, 0.594554 11.6431, 0.430816 11.6488 L 0.222995 11.6488 C 0.0718527 11.6494, -0.00371855 11.5732, -0.00371855 11.4198 L -0.00371855 11.3557 C 0.0718527 11.0202, 0.18521 10.6772, 0.336352 10.3257, 0.487495 9.97477, 0.669553 9.65588, 0.883672 9.36848, 1.09779 9.08165, 1.34626 8.84349, 1.62908 8.65399, 1.9119 8.46506, 2.23594 8.37002, 2.60063 8.36945, 2.91551 8.37002, 3.18287 8.43758, 3.40271 8.57155, 3.62313 8.70609, 3.79145 8.88471, 3.90767 9.10742, 4.02389 9.33069, 4.08801 9.58203, 4.1006 9.86256 L 4.1006 9.92668 C 4.1006 10.19, 4.04736 10.4614, 3.9403 10.7419 L 2.4117 14.7907 C 2.23594 15.2859, 2.14777 15.7073, 2.14777 16.0548, 2.13518 16.0674, 2.12888 16.0674, 2.12888 16.0548, 2.12888 16.3182, 2.24853 16.4493, 2.48727 16.4487, 2.70139 16.4493, 2.8949 16.3852, 3.0678 16.2569, 3.24069 16.1287, 3.39813 15.9581, 3.53954 15.7439, 3.68095 15.5304, 3.80519 15.2739, 3.91225 14.9745, 4.01931 14.6756, 4.11663 14.3608, 4.2048 14.0304, 4.24259 13.8724, 4.35251 13.7928, 4.53457 13.7923 L 4.74239 13.7923 C 4.81166 13.7928, 4.88093 13.814, 4.94964 13.8564, 4.9691 13.9056, 4.98456 13.9486, 4.99715 13.9846, 4.99715 14.0218, 4.98456 14.0556, 4.95937 14.0854 Z" stroke="none" fill="#000000" />
			<polyline points="-6.566 -1.9698 6.566 -1.9698" fill="none" stroke="#000000" stroke-width="0.750400007" stroke-linecap="round" stroke-linejoin="round" transform="matrix(1 0 0 1 17.0073 11.2074)" />
			<polyline points="-6.566 1.9698 6.566 1.9698" fill="none" stroke="#000000" stroke-width="0.750400007" stroke-linecap="round" stroke-linejoin="round" transform="matrix(1 0 0 1 17.0073 11.2074)" />
			<path d="M 37.7381 4.3115 C 37.7193 4.39165, 37.6769 4.45864, 37.6105 4.5136, 37.5446 4.56856, 37.4645 4.59604, 37.37 4.59547, 37.0746 4.59604, 36.7855 4.60234, 36.5027 4.61436, 36.2199 4.62695, 36.0149 4.66016, 35.8889 4.71455, 35.7573 4.75806, 35.6599 4.91664, 35.597 5.19088 L 32.9462 15.5144 C 32.9211 15.6312, 32.9085 15.7319, 32.9085 15.8167, 32.9085 15.9025, 32.9245 15.9546, 32.9554 15.9724, 33.0436 16.0279, 33.2262 16.06, 33.5027 16.0691, 33.7798 16.0783, 34.0718 16.0829, 34.3798 16.0823, 34.5561 16.0829, 34.6443 16.1562, 34.6443 16.3021, 34.6443 16.3394, 34.638 16.3789, 34.6254 16.4212 L 34.5876 16.5678 C 34.5184 16.751, 34.3987 16.8426, 34.2292 16.8426, 33.418 16.806, 32.597 16.7876, 31.7669 16.7876, 30.9436 16.7876, 30.1072 16.806, 29.2576 16.8426, 29.095 16.8426, 29.0131 16.7636, 29.0125 16.6044 L 29.0125 16.5311, 29.0503 16.3754 C 29.1013 16.1745, 29.2238 16.0766, 29.4184 16.0823, 29.7264 16.0829, 30.0224 16.0783, 30.3053 16.0691, 30.5881 16.06, 30.7925 16.0279, 30.9178 15.9724, 31.0312 15.9117, 31.1228 15.7468, 31.1915 15.4777 L 33.8611 5.15423 C 33.8863 5.03859, 33.8989 4.94699, 33.8989 4.87943, 33.8989 4.7884, 33.8834 4.73058, 33.852 4.70539, 33.7512 4.6573, 33.5628 4.62695, 33.2857 4.61436, 33.0092 4.60234, 32.723 4.59604, 32.4275 4.59547, 32.2512 4.59604, 32.163 4.5136, 32.163 4.34814 L 32.163 4.28402, 32.2008 4.11914 C 32.2701 3.93651, 32.3898 3.84491, 32.5592 3.84433, 33.3836 3.86952, 34.2103 3.88155, 35.0405 3.88097, 35.8769 3.88155, 36.7071 3.86952, 37.5303 3.84433, 37.6185 3.84491, 37.6941 3.87525, 37.757 3.93593, 37.7822 3.98517, 37.7948 4.03097, 37.7948 4.07334, 37.7948 4.11055, 37.7857 4.14433, 37.7662 4.1741 Z" stroke="none" fill="#000000" />
			<path d="M 4.50335 1.65822 C 4.46135 1.83969, 4.39819 2.02884, 4.31355 2.22537, 4.22891 2.42223, 4.1276 2.6008, 4.00962 2.76143, 3.89164 2.92237, 3.75346 3.05638, 3.59508 3.16379, 3.4367 3.27151, 3.25331 3.32537, 3.04556 3.32537, 2.86955 3.32537, 2.71822 3.28786, 2.59126 3.21252, 2.46462 3.1375, 2.36876 3.03843, 2.30336 2.91532, 2.23827 2.7922, 2.20205 2.64857, 2.19499 2.4841 L 2.19499 2.44306 C 2.19499 2.29623, 2.22513 2.14747, 2.28476 1.99678, 2.40114 1.69605, 2.50855 1.39693, 2.60729 1.09941, 2.70604 0.801885, 2.79581 0.50276, 2.8766 0.201391, 2.93303 0.00325727, 2.9715 -0.189747, 2.99266 -0.378263, 2.99971 -0.425713, 3.00324 -0.47701, 3.00324 -0.532154, 3.00324 -0.651419, 2.98561 -0.764272, 2.95034 -0.870713, 2.88718 -1.08584, 2.75349 -1.19356, 2.54894 -1.19388, 2.18986 -1.19356, 1.87984 -1.06949, 1.61919 -0.821661, 1.35885 -0.573512, 1.13154 -0.244571, 0.937899 0.165483, 0.828893 0.631003, 0.712513 1.09524, 0.589401 1.55851, 0.466289 2.02211, 0.344458 2.48442, 0.224552 2.94577, 0.193132 3.07273, 0.128049 3.16731, 0.0293031 3.23047, -0.0694432 3.29395, -0.166266 3.32537, -0.261165 3.32537, -0.363118 3.32537, -0.447758 3.29139, -0.514764 3.22278, -0.560611 3.17853, -0.585298 3.11698, -0.588824 3.03811, -0.588824 3.00092, -0.585298 2.96309, -0.578244 2.92526 L 0.129653 0.201391 C 0.186079 0.00325727, 0.224552 -0.189747, 0.245712 -0.378263 L 0.245712 -0.532154 C 0.245712 -0.654946, 0.231605 -0.767799, 0.203392 -0.870713, 0.140233 -1.08584, 0.0065403 -1.19356, -0.198006 -1.19388, -0.557084 -1.19356, -0.866789 -1.06949, -1.12744 -0.821661, -1.38809 -0.573512, -1.61701 -0.244571, -1.8145 0.165483 L -2.53811 2.94577 C -2.56952 3.07273, -2.63397 3.16731, -2.73079 3.23047, -2.82761 3.29395, -2.9254 3.32537, -3.02414 3.32537, -3.12962 3.32537, -3.21074 3.29139, -3.26716 3.22278, -3.31269 3.17853, -3.33577 3.11698, -3.33577 3.03811, -3.33577 3.00765, -3.33225 2.97014, -3.32519 2.92526 L -2.51182 -0.250021 C -2.45539 -0.47188, -2.42718 -0.663602, -2.42718 -0.824546 L -2.42718 -0.947659 C -2.44449 -1.11149, -2.5272 -1.19356, -2.67532 -1.19388, -2.83018 -1.19356, -2.9597 -1.06853, -3.06358 -0.819096, -3.16745 -0.569344, -3.26877 -0.244571, -3.36751 0.155224, -3.40598 0.247879, -3.47107 0.295649, -3.56276 0.298855 L -3.68427 0.298855 C -3.76891 0.299176, -3.81123 0.256536, -3.81123 0.170613 L -3.81123 0.134705 C -3.76891 -0.0255973, -3.72114 -0.200969, -3.66856 -0.390767, -3.61566 -0.580565, -3.54513 -0.760104, -3.45728 -0.929384, -3.36911 -1.09866, -3.25819 -1.2423, -3.12449 -1.36028, -2.99048 -1.47826, -2.82344 -1.53725, -2.62275 -1.53757, -2.33356 -1.53725, -2.10657 -1.45005, -1.94114 -1.27564, -1.77571 -1.10123, -1.68946 -0.931949, -1.68241 -0.76812, -1.53429 -0.962727, -1.32846 -1.1397, -1.06428 -1.29872, -0.800103 -1.45774, -0.493604 -1.53725, -0.145106 -1.53757, 0.0696993 -1.53725, 0.267192 -1.49878, 0.446732 -1.42183, 0.62627 -1.34489, 0.765413 -1.22081, 0.863839 -1.05025, 0.948479 -0.902774, 0.994005 -0.779661, 1.00106 -0.680915, 1.15623 -0.899568, 1.37104 -1.09674, 1.6458 -1.27307, 1.92055 -1.44909, 2.24276 -1.53725, 2.61242 -1.53757, 2.82017 -1.53725, 3.01382 -1.49878, 3.19336 -1.42183, 3.3729 -1.34489, 3.51396 -1.22081, 3.61592 -1.05025, 3.72172 -0.875522, 3.77301 -0.678991, 3.76917 -0.460338 L 3.76917 -0.43469 C 3.76211 -0.215396, 3.73069 0.00518084, 3.67427 0.22704, 3.59347 0.538668, 3.50018 0.844846, 3.39438 1.14557, 3.28858 1.44662, 3.17765 1.75088, 3.06127 2.05834, 2.95579 2.33566, 2.90289 2.5681, 2.90289 2.75598, 2.90289 2.91019, 2.9699 2.98713, 3.10359 2.98681, 3.2235 2.98713, 3.33154 2.95122, 3.42836 2.87941, 3.52519 2.80759, 3.61335 2.71109, 3.69254 2.58958, 3.77205 2.46839, 3.84323 2.32476, 3.90671 2.15869, 3.97019 1.99293, 4.02629 1.81756, 4.07566 1.63257, 4.09682 1.54409, 4.15838 1.49952, 4.26033 1.4992 L 4.37671 1.4992 C 4.41551 1.49952, 4.4559 1.51139, 4.49822 1.53511, 4.51233 1.56621, 4.51938 1.59186, 4.51938 1.61206, 4.51938 1.62616, 4.51425 1.64155, 4.50335 1.65822 Z" stroke="none" fill="#000000" transform="matrix(1.12 0 0 1 41.6463 16.3063)" />
			<path d="M 56.417 14.3144 C 56.417 14.6877, 56.3511 15.0524, 56.2189 15.4096, 56.0872 15.7668, 55.8639 16.0766, 55.549 16.3388, 55.2095 16.6079, 54.834 16.7911, 54.4218 16.8884, 54.0101 16.9863, 53.5933 17.035, 53.172 17.035, 52.7065 17.035, 52.3006 16.9588, 51.9548 16.806, 51.609 16.6537, 51.3262 16.4676, 51.1058 16.2472 L 50.5023 16.9434 C 50.452 16.9983, 50.3764 17.0292, 50.2756 17.035 L 50.2195 17.035 C 50.0306 17.035, 49.9361 16.9405, 49.9361 16.751 L 49.9361 13.7281 C 49.9361 13.5942, 50.0088 13.5089, 50.1531 13.4717, 50.1978 13.4602, 50.2384 13.4539, 50.2756 13.4533, 50.326 13.4539, 50.3735 13.4631, 50.4176 13.4808, 50.5121 13.518, 50.5751 13.5821, 50.606 13.6732, 50.7697 14.5102, 51.0497 15.1795, 51.4458 15.6798, 51.842 16.1808, 52.4174 16.431, 53.172 16.4304, 53.4742 16.431, 53.7662 16.4023, 54.049 16.3439, 54.3319 16.2861, 54.5775 16.1716, 54.7847 15.9999, 54.9548 15.8602, 55.0807 15.6878, 55.162 15.4829, 55.2439 15.2785, 55.2845 15.0569, 55.2845 14.8182, 55.2845 14.4277, 55.1305 14.094, 54.8225 13.8157, 54.5145 13.5381, 54.1344 13.3531, 53.6809 13.261 L 52.3796 12.9953 C 52.0653 12.9346, 51.7619 12.839, 51.4693 12.7074, 51.1773 12.5763, 50.9191 12.4142, 50.6959 12.2219, 50.4726 12.0295, 50.2905 11.8022, 50.1485 11.5394, 50.0071 11.2772, 49.9361 10.987, 49.9361 10.6686, 49.9361 10.3211, 50.0106 9.98679, 50.1583 9.66618, 50.306 9.34558, 50.5275 9.08165, 50.823 8.87326, 51.1688 8.61734, 51.5495 8.45132, 51.9645 8.3746, 52.3796 8.29846, 52.7821 8.2601, 53.172 8.25953, 53.8887 8.2601, 54.4676 8.42498, 54.9072 8.75418 L 55.3979 8.31449 C 55.4735 8.27842, 55.5364 8.2601, 55.5868 8.25953 L 55.6526 8.25953 C 55.8416 8.2601, 55.9355 8.3454, 55.9355 8.51601 L 55.9355 10.9526 C 55.9355 11.1364, 55.8416 11.2309, 55.6526 11.2366 L 55.549 11.2366 C 55.3607 11.2372, 55.2662 11.1427, 55.2662 10.9526, 55.2662 10.2874, 55.0859 9.76122, 54.724 9.37306, 54.3622 8.98547, 53.8452 8.79139, 53.172 8.79082, 52.8828 8.79139, 52.5983 8.81601, 52.3184 8.86467, 52.0384 8.91391, 51.7882 9.01409, 51.5684 9.16638, 51.2352 9.3868, 51.068 9.7137, 51.068 10.1465, 51.068 10.4648, 51.2128 10.7368, 51.502 10.9623, 51.7916 11.1885, 52.1563 11.3442, 52.5966 11.4289 L 53.8887 11.6671 C 54.2288 11.7289, 54.5523 11.8389, 54.8603 11.9974, 55.1683 12.1566, 55.4374 12.3472, 55.667 12.57, 55.8965 12.7932, 56.0792 13.0554, 56.2143 13.3577, 56.3494 13.66, 56.417 13.9789, 56.417 14.3144 Z" stroke="none" fill="#000000" />
			<path d="M 60.4358 5.15423 C 60.4358 5.45423, 60.3259 5.71071, 60.1061 5.92426, 59.8862 6.13838, 59.6217 6.24486, 59.3131 6.24429, 59.0051 6.24486, 58.7429 6.13838, 58.5259 5.92426, 58.3089 5.71071, 58.2002 5.45423, 58.2002 5.15423, 58.2002 4.85538, 58.3089 4.60062, 58.5259 4.38993, 58.7429 4.17925, 59.0051 4.07391, 59.3131 4.07333, 59.6217 4.07391, 59.8862 4.17925, 60.1061 4.38993, 60.3259 4.60062, 60.4358 4.85538, 60.4358 5.15423 Z M 61.7097 16.8334 C 60.9551 16.7911, 60.2286 16.7693, 59.5301 16.7693, 58.8454 16.7693, 58.1252 16.7911, 57.37 16.8334 L 57.37 16.064 C 57.6534 16.0646, 57.9128 16.06, 58.1486 16.0508, 58.3845 16.0417, 58.5626 16.0096, 58.6816 15.9541, 58.7572 15.918, 58.807 15.8556, 58.8322 15.7668, 58.8574 15.6787, 58.87 15.5819, 58.87 15.4777 L 58.87 10.2748 C 58.87 10.1042, 58.8626 9.949, 58.8465 9.80817, 58.8311 9.6679, 58.7761 9.55454, 58.6816 9.46867, 58.5746 9.39596, 58.4126 9.35359, 58.1956 9.341, 57.9792 9.32897, 57.729 9.32268, 57.4456 9.3221 L 57.4456 8.56181, 60.3511 8.34197, 60.3511 15.4777 C 60.3511 15.5819, 60.3608 15.6787, 60.3797 15.7668, 60.3986 15.8556, 60.4455 15.918, 60.5205 15.9541, 60.6213 16.0096, 60.7805 16.0417, 60.9974 16.0508, 61.2144 16.06, 61.452 16.0646, 61.7097 16.064 L 61.7097 16.8334 Z" stroke="none" fill="#000000" />
			<path d="M 72.4538 16.8334 C 71.6551 16.7911, 70.8942 16.7693, 70.1706 16.7693, 69.4355 16.7693, 68.6838 16.7911, 67.9166 16.8334 L 67.9166 16.064 C 68.1994 16.0646, 68.4588 16.06, 68.6947 16.0508, 68.9305 16.0417, 69.1086 16.0096, 69.2277 15.9541, 69.2969 15.918, 69.3427 15.8556, 69.3645 15.7668, 69.3862 15.6787, 69.3971 15.5819, 69.3971 15.4777 L 69.3971 11.0076 C 69.3971 10.703, 69.3817 10.4127, 69.3502 10.1379, 69.3193 9.86313, 69.2311 9.61294, 69.0863 9.38623, 68.9981 9.24024, 68.8676 9.13375, 68.6947 9.06619, 68.5218 8.99921, 68.338 8.96543, 68.1428 8.96486, 67.7844 8.96543, 67.45 9.04043, 67.1386 9.18985, 66.8271 9.33985, 66.5615 9.54138, 66.3411 9.79443, 66.1212 10.048, 65.9449 10.3458, 65.8126 10.6875, 65.681 11.0299, 65.6145 11.3866, 65.6145 11.7587 L 65.6145 15.4777 C 65.6145 15.5819, 65.6271 15.6787, 65.6523 15.7668, 65.6775 15.8556, 65.7279 15.918, 65.8035 15.9541, 65.9231 16.0096, 66.1023 16.0417, 66.3411 16.0508, 66.5804 16.06, 66.838 16.0646, 67.1145 16.064 L 67.1145 16.8243 C 66.7939 16.8123, 66.4985 16.8031, 66.2283 16.7968, 65.9581 16.7911, 65.6936 16.7819, 65.4354 16.7693 L 64.8411 16.7693 C 64.1054 16.7693, 63.3537 16.7911, 62.5865 16.8334 L 62.5865 16.064 C 62.8699 16.0646, 63.1293 16.06, 63.3652 16.0508, 63.601 16.0417, 63.7791 16.0096, 63.8982 15.9541, 63.9737 15.918, 64.0235 15.8556, 64.0487 15.7668, 64.0739 15.6787, 64.0865 15.5819, 64.0865 15.4777 L 64.0865 10.2748 C 64.0865 10.1042, 64.0791 9.949, 64.063 9.80817, 64.0476 9.6679, 63.9863 9.55454, 63.8793 9.46867, 63.7728 9.39596, 63.5999 9.35359, 63.3606 9.341, 63.1213 9.32897, 62.8636 9.32268, 62.5865 9.3221 L 62.5865 8.56181, 64.209 8.44273, 65.5109 8.34197, 65.5109 9.91751 C 65.6306 9.63698, 65.9374 9.30607, 66.4309 8.92421, 66.9245 8.54292, 67.5078 8.3517, 68.1805 8.35113, 68.5332 8.3517, 68.8962 8.39292, 69.27 8.47536, 69.6444 8.5578, 69.9731 8.73643, 70.2559 9.01123, 70.5387 9.28604, 70.7242 9.60206, 70.8124 9.95931, 70.9005 10.3166, 70.9446 10.6664, 70.9446 11.0076 L 70.9446 15.4777 C 70.9446 15.5819, 70.9572 15.6787, 70.9824 15.7668, 71.0076 15.8556, 71.0574 15.918, 71.133 15.9541, 71.2526 16.0096, 71.4318 16.0417, 71.6706 16.0508, 71.9099 16.06, 72.1709 16.0646, 72.4538 16.064 L 72.4538 16.8334 Z" stroke="none" fill="#000000" />
			<path d="M 86.1495 8.53433 C 86.3441 8.70609, 86.4701 8.94711, 86.5267 9.25799, 86.5393 9.41714, 86.5456 9.58203, 86.5456 9.75263, 86.5456 9.90607, 86.5393 10.0584, 86.5267 10.2106, 86.489 10.553, 86.4277 10.9028, 86.343 11.2601, 86.2582 11.6173, 86.1775 11.9396, 86.1019 12.2259, 85.9514 12.8064, 85.7407 13.3823, 85.4705 13.9531, 85.2002 14.5245, 84.8745 15.0386, 84.4938 15.4966, 84.1136 15.9546, 83.6796 16.3291, 83.1919 16.6187, 82.7047 16.9084, 82.1751 17.0533, 81.6026 17.0533, 80.9929 17.0533, 80.5463 16.8781, 80.2635 16.5271, 79.9807 16.1762, 79.8169 15.8201, 79.7728 15.4594, 79.5152 15.851, 79.1442 16.2146, 78.6599 16.55, 78.1755 16.8855, 77.6219 17.0533, 76.999 17.0533, 76.4334 17.0533, 75.992 16.901, 75.6742 16.5958, 75.3565 16.2907, 75.1441 15.906, 75.037 15.4411, 74.962 15.1365, 74.9214 14.7976, 74.9145 14.4243, 74.9145 14.248, 74.9208 14.0705, 74.9334 13.893, 74.9838 13.3257, 75.0817 12.7577, 75.226 12.1892, 75.3897 11.5852, 75.6158 10.9961, 75.905 10.4219, 76.1946 9.84824, 76.5404 9.2952, 76.9429 8.76334, 77.0059 8.67231, 77.0872 8.61448, 77.188 8.58929 L 77.2538 8.58929 C 77.3042 8.58987, 77.3546 8.59903, 77.4049 8.61677, 77.4868 8.65399, 77.5372 8.71811, 77.5561 8.80914 L 77.5561 8.85494 C 77.5561 8.91047, 77.5309 8.97459, 77.4805 9.0473, 77.1158 9.56084, 76.7952 10.0818, 76.5181 10.6097, 76.2416 11.1381, 76.0343 11.6768, 75.8958 12.2259, 75.7824 12.6478, 75.7258 13.0509, 75.7258 13.435 L 75.7447 13.4533 C 75.7447 13.8816, 75.8065 14.2451, 75.929 14.544, 76.0515 14.8434, 76.2307 15.0798, 76.4666 15.2539, 76.7025 15.4279, 76.9962 15.5149, 77.3483 15.5144, 77.82 15.5149, 78.2654 15.3764, 78.6833 15.0982, 79.1013 14.8205, 79.4551 14.4552, 79.7442 14.0029, 79.7694 13.7167, 79.8152 13.419, 79.881 13.1104, 79.9474 12.8024, 80.0179 12.495, 80.0934 12.1892, 80.106 12.1411, 80.1266 12.0633, 80.1547 11.9562, 80.1833 11.8497, 80.2257 11.7444, 80.2824 11.6402, 80.3391 11.5366, 80.4146 11.4375, 80.5085 11.3425, 80.603 11.248, 80.7352 11.2005, 80.9047 11.1999, 81.0684 11.2005, 81.1829 11.2526, 81.2488 11.3562, 81.3152 11.4604, 81.3478 11.5698, 81.3478 11.6854, 81.3478 11.7896, 81.3352 11.8938, 81.31 11.9974, 81.2848 12.1016, 81.2659 12.1778, 81.2533 12.2259, 81.1783 12.5442, 81.0827 12.8619, 80.966 13.1791, 80.8497 13.4968, 80.7255 13.7991, 80.5932 14.0854, 80.6436 14.501, 80.7776 14.8434, 80.9946 15.1119, 81.2116 15.381, 81.5276 15.5149, 81.9421 15.5144, 82.3257 15.5149, 82.7029 15.4251, 83.0739 15.2447, 83.4449 15.065, 83.7878 14.8234, 84.1022 14.5211, 84.417 14.2188, 84.689 13.865, 84.9186 13.4585, 85.1481 13.0526, 85.3165 12.6295, 85.4229 12.1892, 85.4859 11.9579, 85.5208 11.7289, 85.5266 11.5022, 85.5266 11.295, 85.4985 11.0969, 85.4418 10.9068, 85.3227 10.5043, 85.1086 10.1654, 84.8006 9.89004, 84.6369 9.75607, 84.555 9.59748, 84.555 9.41371, 84.555 9.36562, 84.5613 9.32268, 84.5739 9.28547, 84.618 9.06619, 84.7205 8.87555, 84.8808 8.71353, 85.0411 8.55208, 85.2374 8.43701, 85.4699 8.36945, 85.5329 8.358, 85.5958 8.3517, 85.6588 8.35113, 85.8414 8.3517, 86.0052 8.41296, 86.1495 8.53433 Z" stroke="none" fill="#000000" />
			<path d="M 94.1404 9.06562 C 94.0717 9.2494, 93.9486 9.341, 93.7722 9.34043 L 92.0181 9.34043, 90.6217 14.7541 C 90.5089 15.1457, 90.4523 15.4875, 90.4523 15.78, 90.4523 15.8602, 90.4586 15.9363, 90.4712 16.009, 90.5026 16.3027, 90.6504 16.4493, 90.9143 16.4487, 91.1536 16.4493, 91.3797 16.384, 91.5938 16.2523, 91.808 16.1212, 92.0089 15.9455, 92.1973 15.7256, 92.3862 15.5058, 92.5557 15.2464, 92.7068 14.947, 92.8579 14.6482, 92.9959 14.3333, 93.1219 14.0029, 93.1408 13.9302, 93.1814 13.877, 93.2444 13.8432, 93.3074 13.81, 93.3675 13.7928, 93.4236 13.7923 L 93.6595 13.7923 C 93.7413 13.7928, 93.8072 13.8266, 93.8576 13.893, 93.8764 13.9365, 93.8856 13.976, 93.8856 14.0121 L 93.8856 14.0671 C 93.7539 14.4277, 93.5885 14.7838, 93.3904 15.1348, 93.1923 15.4863, 92.9644 15.8023, 92.7068 16.0829, 92.4492 16.364, 92.1646 16.5958, 91.8532 16.7785, 91.5417 16.9617, 91.1977 17.0533, 90.8198 17.0533, 90.4929 17.0533, 90.2101 16.9909, 89.9708 16.8655, 89.732 16.7407, 89.5403 16.5672, 89.3954 16.3439, 89.2511 16.1212, 89.1658 15.8659, 89.1406 15.5785, 89.128 15.5058, 89.1217 15.4262, 89.1217 15.3403, 89.1217 15.1331, 89.1469 14.9224, 89.1973 14.7083 L 90.5839 9.34043, 88.8109 9.34043 C 88.654 9.341, 88.5687 9.25856, 88.5561 9.0931 L 88.5561 9.01982, 88.6128 8.8641 C 88.6758 8.68147, 88.792 8.58987, 88.9614 8.58929 L 90.7631 8.58929, 91.5366 5.58476 C 91.5938 5.35919, 91.7084 5.19145, 91.8812 5.08153, 92.0541 4.9716, 92.2288 4.91664, 92.4045 4.91607, 92.5872 4.91664, 92.7383 4.97447, 92.8574 5.09011, 92.9392 5.17027, 92.9799 5.28019, 92.9799 5.41988, 92.9799 5.48744, 92.9736 5.55499, 92.961 5.6214 L 92.1973 8.58929, 93.9331 8.58929 C 94.0969 8.58987, 94.1782 8.67231, 94.1782 8.83662 L 94.1782 8.90074 Z" stroke="none" fill="#000000" />
			<rect />
		</svg>
	</g>
	<path d="M -154.636 -0 C -153.92 -2.34184, -151.772 -9.4385, -150.34 -14.051, -148.908 -18.6635, -147.477 -23.2739, -146.045 -27.6751, -144.613 -32.0763, -143.181 -36.4021, -141.749 -40.4583, -140.317 -44.5145, -138.886 -48.4243, -137.454 -52.0122, -136.022 -55.6001, -134.59 -58.9751, -133.158 -61.9857, -131.727 -64.9963, -130.295 -67.734, -128.863 -70.0758, -127.431 -72.4177, -125.999 -74.4348, -124.568 -76.0367, -123.136 -77.6386, -121.704 -78.874, -120.272 -79.6873, -118.84 -80.5006, -117.409 -80.9166, -115.977 -80.9166, -114.545 -80.9166, -113.113 -80.5006, -111.681 -79.6873, -110.249 -78.874, -108.818 -77.6386, -107.386 -76.0367, -105.954 -74.4348, -104.522 -72.4177, -103.09 -70.0758, -101.659 -67.734, -100.227 -64.9963, -98.795 -61.9857, -97.3631 -58.9751, -95.9313 -55.6001, -94.4995 -52.0122, -93.0677 -48.4243, -91.6359 -44.5145, -90.2041 -40.4583, -88.7723 -36.4021, -87.3405 -32.0763, -85.9087 -27.6751, -84.4768 -23.2739, -83.045 -18.6635, -81.6132 -14.051, -80.1814 -9.4385, -78.7496 -4.68367, -77.3178 -9.90942e-015, -75.886 4.68367, -74.4542 9.4385, -73.0224 14.051, -71.5905 18.6635, -70.1587 23.2739, -68.7269 27.6751, -67.2951 32.0763, -65.8633 36.4021, -64.4315 40.4583, -62.9997 44.5145, -61.5679 48.4243, -60.1361 52.0122, -58.7043 55.6001, -57.2724 58.9751, -55.8406 61.9857, -54.4088 64.9963, -52.977 67.734, -51.5452 70.0758, -50.1134 72.4176, -48.6816 74.4348, -47.2498 76.0367, -45.818 77.6386, -44.3861 78.874, -42.9543 79.6873, -41.5225 80.5006, -40.0907 80.9166, -38.6589 80.9166, -37.2271 80.9166, -35.7953 80.5006, -34.3635 79.6873, -32.9317 78.874, -31.4998 77.6386, -30.068 76.0367, -28.6362 74.4348, -27.2044 72.4176, -25.7726 70.0758, -24.3408 67.734, -22.909 64.9963, -21.4772 61.9857, -20.0454 58.9751, -18.6135 55.6001, -17.1817 52.0122, -15.7499 48.4243, -14.3181 44.5145, -12.8863 40.4583, -11.4545 36.4021, -10.0227 32.0763, -8.59087 27.6751, -7.15906 23.2739, -5.72725 18.6635, -4.29543 14.051, -2.86362 9.4385, -1.43181 4.68367, -1.90735e-006 1.98188e-014, 1.43181 -4.68367, 2.86362 -9.4385, 4.29543 -14.051, 5.72724 -18.6635, 7.15905 -23.2739, 8.59086 -27.6751, 10.0227 -32.0763, 11.4545 -36.4021, 12.8863 -40.4583, 14.3181 -44.5145, 15.7499 -48.4243, 17.1817 -52.0122, 18.6135 -55.6001, 20.0453 -58.9751, 21.4772 -61.9857, 22.909 -64.9963, 24.3408 -67.734, 25.7726 -70.0758, 27.2044 -72.4177, 28.6362 -74.4348, 30.068 -76.0367, 31.4998 -77.6386, 32.9316 -78.874, 34.3635 -79.6873, 35.7953 -80.5006, 37.2271 -80.9166, 38.6589 -80.9166, 40.0907 -80.9166, 41.5225 -80.5006, 42.9543 -79.6873, 44.3861 -78.874, 45.8179 -77.6386, 47.2498 -76.0367, 48.6816 -74.4348, 50.1134 -72.4177, 51.5452 -70.0758, 52.977 -67.734, 54.4088 -64.9963, 55.8406 -61.9857, 57.2724 -58.9751, 58.7042 -55.6001, 60.1361 -52.0122, 61.5679 -48.4243, 62.9997 -44.5145, 64.4315 -40.4583, 65.8633 -36.4021, 67.2951 -32.0763, 68.7269 -27.6751, 70.1587 -23.2739, 71.5905 -18.6635, 73.0224 -14.051, 74.4542 -9.4385, 75.886 -4.68367, 77.3178 -2.97283e-014, 78.7496 4.68367, 80.1814 9.4385, 81.6132 14.051, 83.045 18.6635, 84.4768 23.2739, 85.9086 27.6751, 87.3405 32.0763, 88.7723 36.4021, 90.2041 40.4583, 91.6359 44.5145, 93.0677 48.4243, 94.4995 52.0122, 95.9313 55.6001, 97.3631 58.9751, 98.7949 61.9857, 100.227 64.9963, 101.659 67.734, 103.09 70.0758, 104.522 72.4176, 105.954 74.4348, 107.386 76.0367, 108.818 77.6386, 110.249 78.874, 111.681 79.6873, 113.113 80.5006, 114.545 80.9166, 115.977 80.9166, 117.408 80.9166, 118.84 80.5006, 120.272 79.6873, 121.704 78.874, 123.136 77.6386, 124.568 76.0367, 125.999 74.4348, 127.431 72.4176, 128.863 70.0758, 130.295 67.734, 131.727 64.9963, 133.158 61.9857, 134.59 58.9751, 136.022 55.6001, 137.454 52.0122, 138.886 48.4243, 140.317 44.5145, 141.749 40.4583, 143.181 36.4021, 144.613 32.0763, 146.045 27.6751, 147.477 23.2739, 148.908 18.6635, 150.34 14.051, 151.772 9.4385, 153.92 2.34184, 154.636 3.96377e-014" fill="none" stroke="#000000" stroke-width="3.20000029" stroke-linecap="round" stroke-linejoin="round" transform="matrix(0.416667 0 -0 0.416667 247.03 72.5167)" />
	<path d="M 0 129.966 L 0 -129.966" fill="none" stroke="#000000" stroke-width="3.20000029" stroke-linecap="round" stroke-linejoin="round" marker-end="url(#CustomMarker-03)" transform="matrix(0.416667 0 0 0.416667 182.497 68.9453)" />
	<g transform="matrix(1 0 -0 1 163.99 9)">
		<svg width="18.0512524" height="45.0428467">
			<defs />
			<path d="M 4.85574 5.20004 C 4.79907 5.43248, 4.66853 5.62656, 4.46415 5.78228, 4.25976 5.938, 4.0382 6.01586, 3.79889 6.01529, 3.54756 6.01586, 3.35577 5.93056, 3.22352 5.75881, 3.13535 5.66148, 3.08841 5.5424, 3.08154 5.40156, 3.08154 5.31683, 3.09413 5.23095, 3.11932 5.14507, 3.17657 4.91378, 3.30882 4.7197, 3.51607 4.56398, 3.72332 4.40825, 3.9466 4.33039, 4.18591 4.32982, 4.43781 4.33039, 4.6296 4.41284, 4.76128 4.57715, 4.84945 4.69394, 4.89353 4.81874, 4.89353 4.95271, 4.89353 5.03859, 4.88093 5.12103, 4.85574 5.20004 Z M 4.95937 14.0854 C 4.89067 14.4037, 4.78361 14.738, 4.63876 15.089, 4.49449 15.4405, 4.31644 15.7594, 4.10576 16.0462, 3.89507 16.3336, 3.64775 16.5729, 3.36493 16.7647, 3.08211 16.9571, 2.75463 17.0533, 2.38365 17.0533, 2.06934 17.0533, 1.79911 16.9863, 1.5724 16.8518, 1.34569 16.7178, 1.17107 16.5409, 1.04855 16.321, 0.926037 16.1012, 0.864779 15.8567, 0.864779 15.5877, 0.852184 15.5762, 0.845886 15.5516, 0.845886 15.5144, 0.845886 15.2401, 0.905999 14.959, 1.02508 14.6716 L 2.55368 10.6412 C 2.74261 10.1351, 2.8365 9.71943, 2.8365 9.39539, 2.8365 9.12116, 2.72028 8.98375, 2.48727 8.98318, 2.27373 8.98375, 2.08193 9.04501, 1.9119 9.16696, 1.74244 9.28947, 1.58671 9.45894, 1.44473 9.67535, 1.30332 9.89233, 1.17622 10.1488, 1.06287 10.4448, 0.94951 10.7414, 0.855046 11.0568, 0.779475 11.3923, 0.710774 11.5578, 0.594554 11.6431, 0.430816 11.6488 L 0.222995 11.6488 C 0.0718527 11.6494, -0.00371855 11.5732, -0.00371855 11.4198 L -0.00371855 11.3557 C 0.0718527 11.0202, 0.18521 10.6772, 0.336352 10.3257, 0.487495 9.97477, 0.669553 9.65588, 0.883672 9.36848, 1.09779 9.08165, 1.34626 8.84349, 1.62908 8.65399, 1.9119 8.46506, 2.23594 8.37002, 2.60063 8.36945, 2.91551 8.37002, 3.18287 8.43758, 3.40271 8.57155, 3.62313 8.70609, 3.79145 8.88471, 3.90767 9.10742, 4.02389 9.33069, 4.08801 9.58203, 4.1006 9.86256 L 4.1006 9.92668 C 4.1006 10.19, 4.04736 10.4614, 3.9403 10.7419 L 2.4117 14.7907 C 2.23594 15.2859, 2.14777 15.7073, 2.14777 16.0548, 2.13518 16.0674, 2.12888 16.0674, 2.12888 16.0548, 2.12888 16.3182, 2.24853 16.4493, 2.48727 16.4487, 2.70139 16.4493, 2.8949 16.3852, 3.0678 16.2569, 3.24069 16.1287, 3.39813 15.9581, 3.53954 15.7439, 3.68095 15.5304, 3.80519 15.2739, 3.91225 14.9745, 4.01931 14.6756, 4.11663 14.3608, 4.2048 14.0304, 4.24259 13.8724, 4.35251 13.7928, 4.53457 13.7923 L 4.74239 13.7923 C 4.81166 13.7928, 4.88093 13.814, 4.94964 13.8564, 4.9691 13.9056, 4.98456 13.9486, 4.99715 13.9846, 4.99715 14.0218, 4.98456 14.0556, 4.95937 14.0854 Z" stroke="none" fill="#000000" />
			<rect />
		</svg>
	</g>
	<g transform="matrix(1 0 -0 1 355.254 61.3093)">
		<svg width="21.010046" height="45.0428467">
			<defs />
			<path d="M 5.58312 9.06562 C 5.51441 9.2494, 5.39132 9.341, 5.21499 9.34043 L 3.46082 9.34043, 2.06447 14.7541 C 1.95169 15.1457, 1.89501 15.4875, 1.89501 15.78, 1.89501 15.8602, 1.90131 15.9363, 1.9139 16.009, 1.94539 16.3027, 2.0931 16.4493, 2.35702 16.4487, 2.59633 16.4493, 2.82247 16.384, 3.03659 16.2523, 3.25071 16.1212, 3.45166 15.9455, 3.64002 15.7256, 3.82895 15.5058, 3.99841 15.2464, 4.14955 14.947, 4.30069 14.6482, 4.43867 14.3333, 4.56462 14.0029, 4.58351 13.9302, 4.62416 13.877, 4.68714 13.8432, 4.75011 13.81, 4.81023 13.7928, 4.86633 13.7923 L 5.10221 13.7923 C 5.18408 13.7928, 5.24991 13.8266, 5.3003 13.893, 5.31919 13.9365, 5.32835 13.976, 5.32835 14.0121 L 5.32835 14.0671 C 5.19667 14.4277, 5.03122 14.7838, 4.83313 15.1348, 4.63504 15.4863, 4.40718 15.8023, 4.14955 16.0829, 3.89192 16.364, 3.60738 16.5958, 3.29594 16.7785, 2.98449 16.9617, 2.64042 17.0533, 2.26256 17.0533, 1.93566 17.0533, 1.65284 16.9909, 1.41353 16.8655, 1.17479 16.7407, 0.983 16.5672, 0.838155 16.3439, 0.693882 16.1212, 0.608579 15.8659, 0.583388 15.5785, 0.570793 15.5058, 0.564495 15.4262, 0.564495 15.3403, 0.564495 15.1331, 0.589686 14.9224, 0.640067 14.7083 L 2.02668 9.34043, 0.253622 9.34043 C 0.0967548 9.341, 0.0114508 9.25856, -0.00114438 9.0931 L -0.00114438 9.01982, 0.0555341 8.8641 C 0.11851 8.68147, 0.23473 8.58987, 0.404193 8.58929 L 2.20588 8.58929, 2.97934 5.58476 C 3.03659 5.35919, 3.15109 5.19145, 3.32399 5.08153, 3.49689 4.9716, 3.67151 4.91664, 3.84727 4.91607, 4.0299 4.91664, 4.18104 4.97447, 4.30012 5.09011, 4.38199 5.17027, 4.42264 5.28019, 4.42264 5.41988, 4.42264 5.48744, 4.41634 5.55499, 4.40375 5.6214 L 3.64002 8.58929, 5.37587 8.58929 C 5.5396 8.58987, 5.6209 8.67231, 5.6209 8.83662 L 5.6209 8.90074 Z" stroke="none" fill="#000000" />
			<rect />
		</svg>
	</g>
	<rect x="-169.920685" y="-50.5727234" width="339.84137" height="101.145447" stroke="none" fill="#0080FF" fill-opacity="0.24313724" transform="matrix(0.416667 0 -0 0.416667 253.297 51.4447)" />
	<rect x="-169.92099" y="-50.572998" width="339.84198" height="101.145996" stroke="none" fill="#E60000" fill-opacity="0.19607842" transform="matrix(0.416667 0 -0 0.416667 253.674 94.269)" />
	<g transform="matrix(1 0 -0 1 381.299 83.0616)">
		<svg width="516.028992" height="60.0856972">
			<defs />
			<path d="M 10.6484 18.5775 C 9.70487 18.5775, 9.02759 18.3731, 8.61538 17.9638, 8.20374 17.555, 7.99764 16.8863, 7.99764 15.9577 L 7.99764 14.0524, 2.97788 14.0524, 2.97788 15.3165, 1.53458 15.3165, 1.53458 4.077, 7.99764 4.077, 7.99764 1.76864, 9.47872 1.76864, 9.47872 4.077, 15.9698 4.077, 15.9698 14.0524, 9.47872 14.0524, 9.47872 15.7104 C 9.47872 16.2669, 9.60181 16.659, 9.84685 16.8881, 10.0919 17.1171, 10.5258 17.2316, 11.1487 17.231 L 14.404 17.231 C 14.9639 17.2316, 15.3819 17.1337, 15.6584 16.9379, 15.9229 16.7489, 16.1118 16.4346, 16.2246 15.9944, 16.3757 15.3291, 16.4954 14.6238, 16.583 13.8784, 17.0994 14.0742, 17.5803 14.227, 18.0269 14.3364, 17.9078 15.1551, 17.7566 15.9766, 17.574 16.8005, 17.4103 17.4239, 17.1212 17.8722, 16.7061 18.147, 16.2658 18.4344, 15.6086 18.5775, 14.7338 18.5775 Z M 2.97788 12.7059 L 7.99764 12.7059, 7.99764 9.70134, 2.97788 9.70134 Z M 9.47872 12.7059 L 14.5168 12.7059, 14.5168 9.70134, 9.47872 9.70134 Z M 2.97788 8.39143 L 7.99764 8.39143, 7.99764 5.42354, 2.97788 5.42354 Z M 9.47872 8.39143 L 14.5168 8.39143, 14.5168 5.42354, 9.47872 5.42354 Z" stroke="none" fill="#E60000" />
			<path d="M 24.4864 19.1729 C 24.2099 18.9044, 23.8389 18.5901, 23.3735 18.2294, 24.2225 17.6008, 24.8328 16.9596, 25.2038 16.3058, 25.5942 15.6222, 25.8364 14.7371, 25.9303 13.6494, 25.987 12.9967, 26.015 12.1414, 26.015 11.0845 L 27.3833 11.0845 C 27.3833 12.0194, 27.349 12.9234, 27.2791 13.7959, 27.1852 15.0726, 26.9242 16.1112, 26.4965 16.9104, 26.0877 17.6678, 25.4173 18.4218, 24.4864 19.1729 Z M 21.6748 18.9165 L 20.2029 18.4768 C 20.914 16.2909, 21.562 14.1051, 22.1466 11.9181, 22.3985 12.0349, 22.8164 12.1872, 23.4015 12.3761, 23.4645 12.395, 23.5086 12.407, 23.5338 12.4127, 22.7351 15.0635, 22.1157 17.2316, 21.6748 18.9165 Z M 29.4398 18.7424 L 29.4398 11.0845, 30.827 11.0845, 30.827 18.7424 Z M 34.601 18.7058 C 33.9975 18.7058, 33.5584 18.5638, 33.2848 18.2798, 33.0111 17.9959, 32.8743 17.5493, 32.8743 16.9379 L 32.8743 11.0296, 34.2237 11.0296, 34.2237 16.6905 C 34.2237 16.9596, 34.2786 17.1525, 34.3886 17.2682, 34.4985 17.3844, 34.6731 17.4422, 34.9124 17.4417 L 35.3086 17.4417 C 35.529 17.4422, 35.6973 17.3827, 35.8135 17.2636, 35.9297 17.1445, 36.0065 16.9476, 36.0443 16.6722, 36.1267 15.9703, 36.1925 15.198, 36.2423 14.3547, 36.6643 14.5322, 37.0416 14.6547, 37.3748 14.7211, 37.2935 15.7173, 37.199 16.5199, 37.0919 17.1302, 36.9156 18.1808, 36.3494 18.7058, 35.3933 18.7058 Z M 35.4878 10.8555 L 34.5534 9.71966 C 32.8239 9.75687, 30.5562 9.83015, 27.7509 9.9395, 27.4051 9.9521, 27.1446 9.96126, 26.9683 9.96698, 26.8864 9.97385, 26.773 9.98301, 26.6282 9.99446, 26.0374 10.0254, 25.6 10.062, 25.3171 10.1044 L 24.7223 8.83112 C 25.1505 8.61815, 25.5622 8.35537, 25.9583 8.04335, 26.7513 7.40271, 27.6633 6.46551, 28.6944 5.23118 L 24.5431 5.23118, 24.5431 3.9854, 30.1571 3.9854 C 29.9058 3.41804, 29.6007 2.77683, 29.2417 2.06177 L 30.8081 1.71368, 31.7796 3.82968, 31.289 3.9854, 36.7616 3.9854, 36.7616 5.23118, 30.3552 5.23118, 30.5722 5.2953 C 29.3144 6.59662, 28.1253 7.73877, 27.0055 8.7212, 28.0818 8.70975, 29.8869 8.66681, 32.4214 8.59296, 32.9372 8.58151, 33.318 8.57235, 33.563 8.56548, 33.1983 8.12636, 32.6699 7.53725, 31.9777 6.79757 L 33.0724 6.10139 C 34.3622 7.43305, 35.5696 8.73723, 36.6952 10.0128 Z M 22.5428 10.1227 C 21.6119 9.28054, 20.6998 8.50479, 19.8067 7.79602 L 20.7411 6.79757 C 21.7916 7.58591, 22.7288 8.32789, 23.5527 9.02349 Z M 23.062 5.45102 C 22.2949 4.71878, 21.3828 3.92185, 20.326 3.06022 L 21.2975 2.08009 C 22.1529 2.73389, 23.0775 3.48503, 24.0714 4.33348 Z" stroke="none" fill="#E60000" />
			<path d="M 47.0805 18.8249 C 47.0175 18.3611, 46.9139 17.8144, 46.769 17.1852, 47.8573 17.2653, 49.106 17.3048, 50.5144 17.3043, 51.4327 17.3048, 52.0905 17.152, 52.4867 16.8463, 52.8639 16.5537, 53.0935 16.0379, 53.1754 15.2982, 53.3454 13.6253, 53.4616 11.8757, 53.524 10.0494 L 41.6931 10.0494, 42.4855 1.75032, 44.033 1.75032, 43.7782 4.38845, 56.3076 4.38845, 56.3076 5.78995, 43.6551 5.78995, 43.3815 8.65708, 55.1941 8.65708 C 55.1941 8.66967, 55.1941 8.68513, 55.1941 8.70288, 54.9931 11.9032, 54.8328 14.1721, 54.7132 15.5089, 54.6067 16.6819, 54.2792 17.5092, 53.7319 17.9913, 53.1788 18.4802, 52.2571 18.7458, 50.9672 18.7882, 50.867 18.7882, 50.7193 18.7882, 50.5241 18.7882, 48.8827 18.8128, 47.7348 18.8249, 47.0805 18.8249 Z M 39.0321 14.2081 L 39.0321 12.7791, 51.779 12.7791, 51.779 14.2081 Z" stroke="none" fill="#E60000" />
			<path d="M 60.1823 19.2645 C 60.0563 18.8924, 59.8743 18.4831, 59.6349 18.0371, 62.1637 17.6403, 64.4377 17.1337, 66.4564 16.5165, 68.4505 15.9005, 70.5418 15.0669, 72.7305 14.0158 L 73.5704 15.0142 C 71.4069 16.1077, 69.2938 16.9814, 67.2304 17.634, 65.1488 18.2999, 62.7992 18.8432, 60.1823 19.2645 Z M 61.0221 16.4157 C 60.9088 16.0928, 60.717 15.7138, 60.4462 15.2799, 62.4156 14.8774, 64.1624 14.4274, 65.6875 13.9293, 67.2127 13.4318, 68.7899 12.798, 70.4193 12.028 L 71.2495 12.9898 C 69.4128 13.8268, 67.705 14.511, 66.1261 15.0417, 64.5099 15.5856, 62.8084 16.0436, 61.0221 16.4157 Z M 61.692 13.6494 C 61.5225 13.3019, 61.3118 12.9417, 61.0599 12.5685, 63.5887 11.9645, 66.0545 11.1189, 68.4567 10.0311 L 69.2302 10.9471 C 66.7839 12.1082, 64.2711 13.0087, 61.692 13.6494 Z M 74.8723 13.4387 C 73.4571 12.841, 72.2937 12.2147, 71.3817 11.5608, 70.4382 10.8899, 69.5611 10.0437, 68.7493 9.02349 L 65.2959 9.02349 C 64.5099 9.87881, 63.6133 10.6299, 62.6068 11.2769, 61.6702 11.8883, 60.4468 12.5295, 58.9371 13.2005, 58.7481 12.8593, 58.5031 12.4683, 58.2008 12.028, 59.3584 11.5643, 60.3431 11.0971, 61.1538 10.6265, 61.9845 10.1508, 62.7334 9.6166, 63.3998 9.02349 L 58.6634 9.02349, 58.6634 7.8693, 64.5316 7.8693 C 64.953 7.36893, 65.3022 6.92008, 65.5793 6.52276 L 67.0226 6.85253 C 66.8531 7.09756, 66.611 7.43649, 66.2961 7.8693 L 75.269 7.8693, 75.269 9.02349, 70.3157 9.02349 C 71.0142 9.74485, 71.7813 10.3494, 72.6178 10.8372, 73.4353 11.3261, 74.4326 11.7692, 75.6085 12.1654, 75.5582 12.2576, 75.4734 12.4013, 75.3538 12.5959, 75.1276 12.9692, 74.9673 13.2498, 74.8723 13.4387 Z M 73.0517 7.06321 L 71.9382 6.193 C 67.2081 6.22391, 63.9437 6.27601, 62.1448 6.34872, 61.5918 6.36761, 61.0571 6.41341, 60.5407 6.48612 L 59.9842 5.23118 C 60.6449 4.96897, 61.2076 4.70676, 61.6731 4.44341, 63.0128 3.61957, 64.2963 2.69153, 65.5226 1.65872 L 67.1829 2.17169 C 65.8369 3.09457, 64.3055 4.10219, 62.588 5.19454, 66.1169 5.15847, 68.7527 5.12813, 70.4949 5.10294 L 68.2964 3.54571, 69.2491 2.73046 C 71.08 3.95849, 72.671 5.07603, 74.0233 6.08307 Z" stroke="none" fill="#E60000" />
			<path d="M 84.3702 18.7058 C 84.2385 18.1195, 84.1251 17.6524, 84.0307 17.3043, 85.2387 17.3415, 86.5154 17.3598, 87.8613 17.3592, 88.5661 17.3598, 89.063 17.2619, 89.3521 17.0661, 89.6292 16.8772, 89.8113 16.5199, 89.8995 15.9944, 89.9561 15.6102, 90.0157 14.9936, 90.0787 14.144 L 81.87 14.144, 82.3515 11.799 C 81.2133 12.4225, 79.7792 13.1158, 78.0491 13.8784, 77.9426 13.6162, 77.7445 13.2194, 77.4548 12.6875, 77.417 12.6211, 77.389 12.569, 77.3695 12.5318, 80.5905 11.2803, 83.3076 9.93377, 85.5215 8.4922 L 77.7096 8.4922, 77.7096 7.25557, 83.8515 7.25557, 83.8515 5.00218, 79.134 5.00218, 79.134 3.79304, 83.8515 3.79304, 83.8515 1.80528, 85.2856 1.80528, 85.2856 3.79304, 89.2107 3.79304, 89.2107 5.00218, 85.2856 5.00218, 85.2856 7.25557, 87.3426 7.25557 C 88.9027 6.12029, 90.5475 4.68844, 92.2771 2.95946 L 93.4467 3.81136 C 92.17 5.01477, 90.8367 6.16323, 89.4466 7.25557 L 94.6358 7.25557, 94.6358 8.4922, 87.7577 8.4922 C 87.0466 9.01203, 86.248 9.54332, 85.3612 10.0861 L 93.4278 10.0861, 93.4278 11.2952, 83.9173 11.2952, 83.5589 12.9532, 91.6445 12.9532 C 91.5632 14.2242, 91.4659 15.3016, 91.3525 16.1867, 91.2391 17.085, 90.9626 17.7136, 90.5218 18.0737, 90.0695 18.4401, 89.3018 18.6388, 88.2197 18.6691, 87.2384 18.6937, 85.9554 18.7058, 84.3702 18.7058 Z" stroke="none" fill="#E60000" />
			<path d="M 97.784 19.2096 C 97.6397 19.0573, 97.3437 18.767, 96.8972 18.3394, 96.746 18.1991, 96.6453 18.1046, 96.5949 18.0554, 97.7966 17.1766, 98.7086 16.3676, 99.3309 15.628, 99.9853 14.8591, 100.47 14.0072, 100.784 13.0723, 101.074 12.2181, 101.284 11.0943, 101.416 9.70134, 101.511 8.58437, 101.571 7.37809, 101.596 6.08307 L 96.8783 6.08307, 96.8783 4.69989, 105.162 4.69989 C 105.011 4.26707, 104.728 3.53426, 104.313 2.50145, 104.232 2.2942, 104.171 2.14192, 104.134 2.04345 L 105.737 1.75032 C 106.234 2.93542, 106.606 3.86689, 106.851 4.54417 L 106.133 4.69989, 113.786 4.69989, 113.786 6.08307, 103.124 6.08307 C 103.099 7.24985, 103.052 8.27579, 102.982 9.16089 L 111.531 9.16089 C 111.468 11.4269, 111.348 13.473, 111.172 15.2982, 111.066 16.5079, 110.742 17.3535, 110.2 17.8356, 109.666 18.3062, 108.779 18.5535, 107.54 18.5775, 106.709 18.6021, 105.719 18.6142, 104.568 18.6142, 104.505 18.1195, 104.398 17.6128, 104.246 17.0936, 105.203 17.1308, 106.196 17.1491, 107.228 17.1485, 108.071 17.1491, 108.669 16.9934, 109.021 16.6819, 109.373 16.3705, 109.593 15.7963, 109.681 14.9593, 109.82 13.7261, 109.914 12.2547, 109.964 10.5441 L 102.841 10.5441 C 102.702 11.9003, 102.46 13.0425, 102.114 13.97, 101.756 14.9478, 101.234 15.8484, 100.548 16.6722, 99.8817 17.4726, 98.9599 18.3182, 97.784 19.2096 Z" stroke="none" fill="#E60000" />
			<path d="M 116.953 18.8981 L 116.953 4.33348, 122.227 4.33348 C 122.523 3.3751, 122.749 2.50832, 122.906 1.732 L 124.491 1.90604 C 124.478 1.94326, 124.463 1.99535, 124.444 2.06177, 124.155 3.05164, 123.925 3.80907, 123.755 4.33348 L 132.039 4.33348, 132.039 16.4341 C 132.039 17.2407, 131.863 17.8264, 131.51 18.1928, 131.158 18.5592, 130.57 18.7579, 129.747 18.7882 L 127.227 18.8432 C 127.152 18.3852, 127.051 17.8785, 126.925 17.3226, 127.775 17.3718, 128.536 17.3964, 129.208 17.3959, 129.718 17.3964, 130.077 17.3048, 130.284 17.1216, 130.492 16.9384, 130.596 16.627, 130.596 16.1867 L 130.596 5.68003, 118.406 5.68003, 118.406 18.8981 Z M 120.877 14.8402 L 120.877 8.29983, 128.095 8.29983, 128.095 14.8402 Z M 122.292 13.5669 L 126.708 13.5669, 126.708 9.56393, 122.292 9.56393 Z" stroke="none" fill="#E60000" />
			<path d="M 142.405 19.1363 L 142.405 2.92282, 151.642 2.92282, 151.642 19.1363, 150.236 19.1363, 150.236 17.918, 143.82 17.918, 143.82 19.1363 Z M 137.754 19.1088 L 137.754 9.56393 C 137.181 11.317, 136.408 12.9291, 135.433 14.4005, 135.382 14.2482, 135.304 14.0072, 135.197 13.6768, 135.058 13.2194, 134.951 12.8896, 134.876 12.6875, 136.09 10.9723, 137.027 8.95078, 137.687 6.62352 L 135.235 6.62352, 135.235 5.33194, 137.754 5.33194, 137.754 1.8694, 139.121 1.8694, 139.121 5.33194, 141.48 5.33194, 141.48 6.62352, 139.121 6.62352, 139.121 9.50897, 139.631 8.96852 C 140.166 9.45172, 140.892 10.1599, 141.81 11.0937, 141.848 11.1372, 141.877 11.1675, 141.895 11.1853 L 140.961 12.1654 C 140.446 11.5431, 139.832 10.8624, 139.121 10.1227 L 139.121 19.1088 Z M 143.82 16.6264 L 150.236 16.6264, 150.236 13.3196, 143.82 13.3196 Z M 143.82 12.0647 L 150.236 12.0647, 150.236 8.75784, 143.82 8.75784 Z M 143.82 7.5029 L 150.236 7.5029, 150.236 4.2144, 143.82 4.2144 Z" stroke="none" fill="#E60000" />
			<path d="M 157.906 19.2096 C 157.762 18.9228, 157.507 18.5014, 157.142 17.9455, 157.092 17.8722, 157.058 17.8172, 157.039 17.7806, 159.397 17.0484, 161.413 16.1323, 163.085 15.0325, 162.28 14.2574, 161.557 13.3505, 160.916 12.312, 160.306 11.317, 159.727 10.1261, 159.18 8.73952 L 159.501 8.63876, 157.774 8.63876, 157.774 8.7212 C 157.774 10.4193, 157.702 11.8208, 157.557 12.9257, 157.407 14.1051, 157.143 15.1734, 156.765 16.1318, 156.401 17.0604, 155.872 18.0405, 155.18 19.0722, 154.816 18.7487, 154.426 18.4161, 154.011 18.0737, 154.621 17.1949, 155.08 16.3676, 155.388 15.5913, 155.721 14.7555, 155.957 13.7994, 156.096 12.7242, 156.228 11.6988, 156.297 10.3586, 156.303 8.70288 L 156.322 2.92282 C 158.252 2.9171, 160.444 2.85011, 162.896 2.7213, 165.368 2.59363, 167.764 2.42588, 170.084 2.21749 L 170.575 3.60067 C 166.708 3.92471, 162.441 4.14799, 157.774 4.26936 L 157.774 7.25557, 169.802 7.25557, 169.802 8.70288 C 169.236 10.0592, 168.613 11.2408, 167.934 12.2479, 167.23 13.3047, 166.419 14.239, 165.5 15.0509, 167.022 16.0407, 169.057 16.8623, 171.603 17.5149, 171.327 17.9609, 171.056 18.4619, 170.792 19.0172, 167.981 18.1321, 165.808 17.1308, 164.274 16.0127, 162.708 17.1371, 160.586 18.202, 157.906 19.2096 Z M 164.293 14.1257 C 165.978 12.7036, 167.28 10.8744, 168.198 8.63876 L 160.671 8.63876 C 161.136 9.83645, 161.661 10.8773, 162.246 11.7624, 162.837 12.6669, 163.519 13.4547, 164.293 14.1257 Z" stroke="none" fill="#E60000" />
			<rect />
		</svg>
	</g>
</svg>
