<?xml version="1.0"?>
<svg xmlns="http://www.w3.org/2000/svg" xmlns:xlink="http://www.w3.org/1999/xlink" width="281.397003" height="182.288239">
	<defs>
		<marker id="CustomMarker-01" markerUnits="strokeWidth" markerWidth="15.000001" markerHeight="9" viewBox="-15 -4.5 15 9" orient="auto-start-reverse">
			<path d="M 0 -0 L -10 -3, -10 -0.5, -10 0.5, -10 3 Z" fill="#000000" stroke="#000000" stroke-linejoin="round" />
		</marker>
		<marker id="CustomMarker-02" markerUnits="strokeWidth" markerWidth="15.000001" markerHeight="9" viewBox="-15 -4.5 15 9" orient="auto-start-reverse">
			<path d="M 0 -0 L -10 -3, -10 -0.5, -10 0.5, -10 3 Z" fill="#000000" stroke="#000000" stroke-linejoin="round" />
		</marker>
		<marker id="CustomMarker-03" markerUnits="strokeWidth" markerWidth="8.25" markerHeight="10.5" viewBox="-8.25 -5.25 8.25 10.5" orient="auto-start-reverse">
			<path d="M -5.5 -3.5 L 0 -0, -5.5 3.5" fill="none" stroke="#000000" stroke-linejoin="round" />
		</marker>
	</defs>
	<g transform="matrix(1 0 -0 1 9.00001 51.3709)">
		<svg width="18.0512524" height="45.0428467">
			<defs />
			<path d="M 4.85574 5.20004 C 4.79907 5.43248, 4.66853 5.62656, 4.46415 5.78228, 4.25976 5.938, 4.0382 6.01586, 3.79889 6.01529, 3.54756 6.01586, 3.35577 5.93056, 3.22352 5.75881, 3.13535 5.66148, 3.08841 5.5424, 3.08154 5.40156, 3.08154 5.31683, 3.09413 5.23095, 3.11932 5.14507, 3.17657 4.91378, 3.30882 4.7197, 3.51607 4.56398, 3.72332 4.40825, 3.9466 4.33039, 4.18591 4.32982, 4.43781 4.33039, 4.6296 4.41284, 4.76128 4.57715, 4.84945 4.69394, 4.89353 4.81874, 4.89353 4.95271, 4.89353 5.03859, 4.88093 5.12103, 4.85574 5.20004 Z M 4.95937 14.0854 C 4.89067 14.4037, 4.78361 14.738, 4.63876 15.089, 4.49449 15.4405, 4.31644 15.7594, 4.10576 16.0462, 3.89507 16.3336, 3.64775 16.5729, 3.36493 16.7647, 3.08211 16.9571, 2.75463 17.0533, 2.38365 17.0533, 2.06934 17.0533, 1.79911 16.9863, 1.5724 16.8518, 1.34569 16.7178, 1.17107 16.5409, 1.04855 16.321, 0.926037 16.1012, 0.864779 15.8567, 0.864779 15.5877, 0.852184 15.5762, 0.845886 15.5516, 0.845886 15.5144, 0.845886 15.2401, 0.905999 14.959, 1.02508 14.6716 L 2.55368 10.6412 C 2.74261 10.1351, 2.8365 9.71943, 2.8365 9.39539, 2.8365 9.12116, 2.72028 8.98375, 2.48727 8.98318, 2.27373 8.98375, 2.08193 9.04501, 1.9119 9.16696, 1.74244 9.28947, 1.58671 9.45894, 1.44473 9.67535, 1.30332 9.89233, 1.17622 10.1488, 1.06287 10.4448, 0.94951 10.7414, 0.855046 11.0568, 0.779475 11.3923, 0.710774 11.5578, 0.594554 11.6431, 0.430816 11.6488 L 0.222995 11.6488 C 0.0718527 11.6494, -0.00371855 11.5732, -0.00371855 11.4198 L -0.00371855 11.3557 C 0.0718527 11.0202, 0.18521 10.6772, 0.336352 10.3257, 0.487495 9.97477, 0.669553 9.65588, 0.883672 9.36848, 1.09779 9.08165, 1.34626 8.84349, 1.62908 8.65399, 1.9119 8.46506, 2.23594 8.37002, 2.60063 8.36945, 2.91551 8.37002, 3.18287 8.43758, 3.40271 8.57155, 3.62313 8.70609, 3.79145 8.88471, 3.90767 9.10742, 4.02389 9.33069, 4.08801 9.58203, 4.1006 9.86256 L 4.1006 9.92668 C 4.1006 10.19, 4.04736 10.4614, 3.9403 10.7419 L 2.4117 14.7907 C 2.23594 15.2859, 2.14777 15.7073, 2.14777 16.0548, 2.13518 16.0674, 2.12888 16.0674, 2.12888 16.0548, 2.12888 16.3182, 2.24853 16.4493, 2.48727 16.4487, 2.70139 16.4493, 2.8949 16.3852, 3.0678 16.2569, 3.24069 16.1287, 3.39813 15.9581, 3.53954 15.7439, 3.68095 15.5304, 3.80519 15.2739, 3.91225 14.9745, 4.01931 14.6756, 4.11663 14.3608, 4.2048 14.0304, 4.24259 13.8724, 4.35251 13.7928, 4.53457 13.7923 L 4.74239 13.7923 C 4.81166 13.7928, 4.88093 13.814, 4.94964 13.8564, 4.9691 13.9056, 4.98456 13.9486, 4.99715 13.9846, 4.99715 14.0218, 4.98456 14.0556, 4.95937 14.0854 Z" stroke="none" fill="#000000" />
			<rect />
		</svg>
	</g>
	<g transform="matrix(1 0 -0 1 84.1378 8.99999)">
		<svg width="39.020092" height="56.9999886">
			<defs />
			<path d="M 11.5072 8.54349 C 11.6961 8.70895, 11.8186 8.93795, 11.8747 9.2305, 11.8999 9.41428, 11.9159 9.59462, 11.9222 9.77095, 11.9222 9.89977, 11.9131 10.0343, 11.8936 10.174, 11.8564 10.5164, 11.7969 10.8633, 11.715 11.2143, 11.6331 11.5658, 11.5512 11.8875, 11.4694 12.1801, 11.3056 12.7852, 11.04 13.3795, 10.6719 13.9623, 10.3043 14.5457, 9.8652 15.065, 9.35567 15.5195, 8.84614 15.9747, 8.28966 16.3439, 7.68566 16.6279, 7.08223 16.9119, 6.47824 17.0533, 5.87424 17.0533 L 5.65726 17.0533, 4.77044 20.4425 C 4.73265 20.6137, 4.62273 20.7025, 4.4401 20.7082 L 4.34564 20.7082 C 4.18247 20.7082, 4.1006 20.6349, 4.1006 20.4883 L 4.1006 20.4151, 4.97826 17.0166 C 4.55689 16.9863, 4.11606 16.9067, 3.65691 16.7785, 3.19776 16.6508, 2.78784 16.4373, 2.42601 16.1378, 2.06419 15.839, 1.83003 15.4537, 1.72297 14.9831, 1.67259 14.7638, 1.64454 14.5468, 1.63824 14.3327, 1.63824 14.0648, 1.67316 13.79, 1.74186 13.5083, 1.84263 13.0875, 1.99205 12.6238, 2.19014 12.1165, 2.38823 11.6099, 2.57544 11.1181, 2.7512 10.6412, 2.91494 10.2084, 2.9968 9.83851, 2.9968 9.53279 L 2.9968 9.39539 C 2.97791 9.12116, 2.8491 8.98375, 2.60979 8.98318, 2.38365 8.98375, 2.17296 9.04787, 1.97774 9.17612, 1.78308 9.30436, 1.60217 9.4784, 1.43557 9.69825, 1.26897 9.91809, 1.12241 10.1746, 0.996456 10.4677, 0.870503 10.7608, 0.770314 11.0694, 0.694743 11.3923, 0.625469 11.5578, 0.515547 11.6431, 0.364405 11.6488 L 0.251048 11.6488 C 0.169752 11.6494, 0.106775 11.6219, 0.0626922 11.5663, 0.018609 11.524, -0.00371891 11.4753, -0.00371891 11.4198, -0.00371891 11.3957, 0.00601375 11.3654, 0.0249066 11.3282, 0.106775 10.999, 0.224712 10.6589, 0.378718 10.3074, 0.532723 9.95645, 0.722796 9.63756, 0.94951 9.35016, 1.17622 9.06333, 1.43385 8.82803, 1.72297 8.64483, 2.01266 8.46162, 2.33956 8.37002, 2.70425 8.36945, 3.03173 8.37002, 3.31798 8.43758, 3.56302 8.57155, 3.80805 8.70609, 3.99698 8.88185, 4.12866 9.09826, 4.26091 9.31524, 4.33934 9.56371, 4.36453 9.84424 L 4.36453 9.98164 C 4.36453 10.2204, 4.30842 10.4769, 4.19507 10.7511, 4.01301 11.2217, 3.83038 11.706, 3.64775 12.2035, 3.46569 12.7016, 3.32371 13.1488, 3.22295 13.5449, 3.14795 13.8386, 3.11016 14.1197, 3.11016 14.3877, 3.11016 14.5102, 3.11646 14.6327, 3.12848 14.7541, 3.17886 15.1211, 3.32371 15.4325, 3.56302 15.6884, 3.76454 15.8968, 4.00786 16.0571, 4.29411 16.1699, 4.58037 16.2833, 4.86204 16.3605, 5.13856 16.4029 L 8.36523 3.88097 C 8.40301 3.72296, 8.51351 3.64338, 8.69557 3.64281 L 8.78946 3.64281 C 8.9532 3.64338, 9.03506 3.71037, 9.03506 3.84433 L 9.03506 3.90845, 5.79867 16.4487, 5.9687 16.4487 C 6.48453 16.4493, 7.00037 16.3291, 7.5162 16.0875, 8.03203 15.8464, 8.50836 15.5212, 8.94575 15.1119, 9.38315 14.7031, 9.76845 14.2388, 10.1017 13.7196, 10.4349 13.2009, 10.6679 12.6724, 10.7995 12.1343, 10.8499 11.915, 10.8751 11.7043, 10.8751 11.5022, 10.8751 11.283, 10.8499 11.0723, 10.7995 10.8702, 10.6805 10.486, 10.4698 10.1683, 10.1675 9.91752, 9.98543 9.77782, 9.89383 9.6158, 9.89383 9.43203, 9.89383 9.38394, 9.90013 9.341, 9.91272 9.30379, 9.95681 9.08451, 10.0621 8.89101, 10.2287 8.72269, 10.3953 8.55494, 10.5952 8.43701, 10.8276 8.36945, 10.8906 8.358, 10.9535 8.3517, 11.0165 8.35113, 11.1992 8.3517, 11.3629 8.41582, 11.5072 8.54349 Z" stroke="none" fill="#000000" />
			<rect />
		</svg>
	</g>
	<path d="M -101.981 -183.762 L 101.981 -183.762, 101.981 183.762, -101.981 183.762 Z" fill="none" stroke="#000000" stroke-opacity="0.34117645" stroke-width="7.19999981" stroke-linecap="round" stroke-linejoin="round" transform="matrix(0.277778 0 -0 0.277778 90.1008 102.683)" />
	<path d="M -168.475 0 L 168.475 0" fill="none" stroke="#000000" stroke-width="4.80000019" stroke-linecap="round" stroke-linejoin="round" transform="matrix(0.277778 0 0 0.277778 71.4955 62.5784)" />
	<path d="M -3.39081e-005 -21.4794 C 11.3348 -21.4794, 20.5235 -11.8628, 20.5236 -3.05767e-005, 20.5236 11.8627, 11.3349 21.4794, 4.44464e-005 21.4794, 4.28153e-005 21.4794, 4.11843e-005 21.4794, 3.95532e-005 21.4794" fill="none" stroke="#000000" stroke-width="4.80000019" stroke-linecap="round" stroke-linejoin="round" transform="matrix(0.277778 0 -0 0.277778 118.572 68.5446)" />
	<path d="M -101.982 0 L 101.98 0" fill="none" stroke="#000000" stroke-width="4.80000019" stroke-linecap="round" stroke-linejoin="round" transform="matrix(0.277778 0 0 0.277778 90.1008 85.2707)" />
	<path d="M -101.982 0 L 101.98 0" fill="none" stroke="#000000" stroke-width="4.80000019" stroke-linecap="round" stroke-linejoin="round" transform="matrix(0.277778 0 0 0.277778 90.1008 107.963)" />
	<path d="M -101.982 0 L 101.98 0" fill="none" stroke="#000000" stroke-width="4.80000019" stroke-linecap="round" stroke-linejoin="round" transform="matrix(0.277778 0 0 0.277778 90.1008 130.656)" />
	<path d="M -66.7357 0 L 66.7372 0" fill="none" stroke="#000000" stroke-width="4.80000019" stroke-linecap="round" stroke-linejoin="round" transform="matrix(0.277778 0 0 0.277778 43.2345 142.82)" />
	<path d="M -3.39081e-005 -21.4794 C 11.3348 -21.4794, 20.5235 -11.8628, 20.5236 -3.05767e-005, 20.5236 11.8627, 11.3349 21.4794, 4.44464e-005 21.4794, 4.28153e-005 21.4794, 4.11843e-005 21.4794, 3.95532e-005 21.4794" fill="none" stroke="#000000" stroke-width="4.80000019" stroke-linecap="round" stroke-linejoin="round" transform="matrix(0.277778 0 -0 0.277778 118.572 91.2372)" />
	<path d="M -3.39081e-005 -21.4793 C 11.3348 -21.4794, 20.5235 -11.8627, 20.5236 -3.1251e-005, 20.5236 11.8627, 11.3349 21.4793, 4.44464e-005 21.4793, 4.28153e-005 21.4793, 4.11843e-005 21.4793, 3.95532e-005 21.4793" fill="none" stroke="#000000" stroke-width="4.80000019" stroke-linecap="round" stroke-linejoin="round" transform="matrix(0.277778 0 -0 0.277778 118.572 113.93)" />
	<path d="M -3.39081e-005 -21.8958 C 11.3348 -21.8958, 20.5235 -12.0927, 20.5236 -3.12686e-005, 20.5236 12.0927, 11.3349 21.8957, 4.44464e-005 21.8957, 4.28153e-005 21.8957, 4.11843e-005 21.8958, 3.95532e-005 21.8957" fill="none" stroke="#000000" stroke-width="4.80000019" stroke-linecap="round" stroke-linejoin="round" transform="matrix(0.277778 0 -0 0.277778 118.571 136.738)" />
	<path d="M -2.49173e-005 -17.7595 C 8.39629 -17.7595, 15.2029 -9.80833, 15.2029 -2.50251e-005, 15.2029 9.80828, 8.39634 17.7595, 3.29238e-005 17.7595, 3.17156e-005 17.7595, 3.05074e-005 17.7595, 2.92991e-005 17.7595" fill="none" stroke="#000000" stroke-width="4.80000019" stroke-linecap="round" stroke-linejoin="round" transform="matrix(-0.277778 4.19433e-008 -4.19433e-008 -0.277778 61.1878 80.3372)" />
	<path d="M -2.49174e-005 -18.3824 C 8.3969 -18.3825, 15.204 -10.1524, 15.204 -2.64e-005, 15.204 10.1523, 8.39694 18.3824, 3.29262e-005 18.3824, 3.17179e-005 18.3824, 3.05096e-005 18.3824, 2.93013e-005 18.3824" fill="none" stroke="#000000" stroke-width="4.80000019" stroke-linecap="round" stroke-linejoin="round" transform="matrix(-0.277778 4.19433e-008 -4.19433e-008 -0.277778 61.1878 102.857)" />
	<path d="M -2.49173e-005 -19.3676 C 8.39629 -19.3677, 15.2029 -10.6965, 15.2029 -2.77903e-005, 15.2029 10.6964, 8.39634 19.3676, 3.29238e-005 19.3676, 3.17156e-005 19.3676, 3.05074e-005 19.3676, 2.92991e-005 19.3676" fill="none" stroke="#000000" stroke-width="4.80000019" stroke-linecap="round" stroke-linejoin="round" transform="matrix(-0.277778 4.19433e-008 -4.19433e-008 -0.277778 61.1878 125.276)" />
	<path d="M -31.822 269.895 C 17.2922 251.495, 40.7367 -147.214, -27.5185 -251.88 L -44.0365 -269.895" fill="none" stroke="#000000" stroke-width="4.80000019" stroke-linecap="round" stroke-linejoin="round" stroke-dasharray="16.824, 11.976" marker-end="url(#CustomMarker-01)" transform="matrix(0.277778 0 -0 0.277778 75.5897 98.8175)" />
	<path d="M -31.8212 269.895 C 17.2918 251.495, 40.7357 -147.214, -27.5178 -251.88 L -44.0354 -269.895" fill="none" stroke="#000000" stroke-width="4.80000019" stroke-linecap="round" stroke-linejoin="round" stroke-dasharray="16.824, 11.976" marker-end="url(#CustomMarker-02)" transform="matrix(-0.277778 4.19433e-008 4.19433e-008 0.277778 103.358 98.8175)" />
	<path d="M -7.97168 0 L 7.97351 0" fill="none" stroke="#000000" stroke-width="4.80000019" stroke-linecap="round" stroke-linejoin="round" marker-end="url(#CustomMarker-03)" transform="matrix(0.277778 0 0 0.277778 43.2345 62.5784)" />
	<path d="M -132.407 0 L -99.3054 0" fill="none" stroke="#000000" stroke-width="4.80000019" stroke-linecap="round" stroke-linejoin="round" transform="matrix(0.277778 0 -0 0.277778 236.117 74.5827)" />
	<path d="M 99.3054 0 L 132.407 0" fill="none" stroke="#000000" stroke-width="4.80000019" stroke-linecap="round" stroke-linejoin="round" transform="matrix(0.277778 0 -0 0.277778 236.117 74.5827)" />
	<path d="M -99.3054 1.70215e-005 C -99.3054 -10.969, -90.4133 -19.8611, -79.4443 -19.8611, -68.4753 -19.8611, -59.5832 -10.969, -59.5832 -2.36762e-006, -59.5832 -7.89208e-007, -59.5832 7.89208e-007, -59.5832 2.36762e-006 L -59.5832 1.70215e-005 C -59.5832 -10.969, -50.6911 -19.8611, -39.7222 -19.8611, -28.7532 -19.8611, -19.8611 -10.969, -19.8611 -2.36762e-006, -19.8611 -7.89208e-007, -19.8611 7.89208e-007, -19.8611 2.36762e-006 L -19.8611 1.70215e-005 C -19.8611 -10.969, -10.969 -19.8611, -3.06242e-005 -19.8611, 10.9689 -19.8611, 19.8611 -10.969, 19.8611 -2.36762e-006, 19.8611 -7.89208e-007, 19.8611 7.89208e-007, 19.8611 2.36762e-006 L 19.8611 1.70215e-005 C 19.8611 -10.969, 28.7532 -19.8611, 39.7221 -19.8611, 50.6911 -19.8611, 59.5832 -10.969, 59.5832 -2.36762e-006, 59.5832 -7.89208e-007, 59.5832 7.89208e-007, 59.5832 2.36762e-006 L 59.5832 1.70215e-005 C 59.5832 -10.969, 68.4753 -19.8611, 79.4442 -19.8611, 90.4132 -19.8611, 99.3053 -10.969, 99.3053 -2.36762e-006, 99.3054 -7.89208e-007, 99.3054 7.89208e-007, 99.3053 2.36762e-006" fill="none" stroke="#000000" stroke-width="5.39999962" stroke-linecap="round" stroke-linejoin="round" transform="matrix(0.277778 0 -0 0.277778 236.117 74.5827)" />
	<path d="M -132.407 0 L -99.3052 0" fill="none" stroke="#000000" stroke-width="4.80000019" stroke-linecap="round" stroke-linejoin="round" transform="matrix(0.277778 0 -0 0.277778 236.117 142.82)" />
	<path d="M 99.3052 0 L 132.407 0" fill="none" stroke="#000000" stroke-width="4.80000019" stroke-linecap="round" stroke-linejoin="round" transform="matrix(0.277778 0 -0 0.277778 236.117 142.82)" />
	<path d="M -99.3052 1.70215e-005 C -99.3053 -10.9689, -90.4132 -19.861, -79.4442 -19.861, -68.4753 -19.8611, -59.5832 -10.969, -59.5831 -2.36762e-006, -59.5831 -7.89207e-007, -59.5831 7.89207e-007, -59.5831 2.36762e-006 L -59.5831 1.70215e-005 C -59.5832 -10.9689, -50.6911 -19.861, -39.7221 -19.861, -28.7532 -19.8611, -19.8611 -10.969, -19.8611 -2.36762e-006, -19.861 -7.89207e-007, -19.861 7.89207e-007, -19.8611 2.36762e-006 L -19.861 1.70215e-005 C -19.8611 -10.9689, -10.969 -19.861, -3.06242e-005 -19.861, 10.9689 -19.8611, 19.861 -10.969, 19.861 -2.36762e-006, 19.861 -7.89207e-007, 19.861 7.89207e-007, 19.861 2.36762e-006 L 19.861 1.70215e-005 C 19.861 -10.9689, 28.7531 -19.861, 39.7221 -19.861, 50.691 -19.8611, 59.5831 -10.969, 59.5831 -2.36762e-006, 59.5831 -7.89207e-007, 59.5831 7.89207e-007, 59.5831 2.36762e-006 L 59.5831 1.70215e-005 C 59.5831 -10.9689, 68.4752 -19.861, 79.4442 -19.861, 90.4131 -19.8611, 99.3052 -10.969, 99.3052 -2.36762e-006, 99.3052 -7.89207e-007, 99.3052 7.89207e-007, 99.3052 2.36762e-006" fill="none" stroke="#000000" stroke-width="5.39999962" stroke-linecap="round" stroke-linejoin="round" transform="matrix(0.277778 0 -0 0.277778 236.117 142.82)" />
	<path d="M -99.3052 -39.7221 L 99.3052 -39.7221" fill="none" stroke="#000000" stroke-width="7.20000029" stroke-linecap="round" stroke-linejoin="round" transform="matrix(0.277778 0 -0 0.277778 236.117 142.82)" />
	<g transform="matrix(1 0 -0 1 230.584 40.8187)">
		<svg width="39.020092" height="45.0428467">
			<defs />
			<path d="M 9.44155 16.5953 C 9.38544 16.7602, 9.26235 16.8426, 9.07342 16.8426 L 0.271085 16.8426 C 0.176621 16.8426, 0.107348 16.8151, 0.0632644 16.7602, 0.0197537 16.7178, -0.00200171 16.672, -0.00257422 16.6228, -0.00200171 16.5867, 0.00429589 16.55, 0.0163186 16.5128 L 0.0541042 16.3754 C 0.0729971 16.2964, 0.11708 16.2283, 0.186354 16.1699, 0.255628 16.1121, 0.334062 16.0829, 0.421656 16.0823, 0.717643 16.0829, 0.994738 16.0783, 1.25237 16.0691, 1.51 16.06, 1.70522 16.0279, 1.8369 15.9724, 1.95026 15.9117, 2.03842 15.7468, 2.1014 15.4777 L 4.77158 5.15423 C 4.79677 5.03859, 4.80937 4.94699, 4.80937 4.87943, 4.80937 4.7884, 4.79048 4.73058, 4.75269 4.70539, 4.67082 4.6573, 4.50079 4.62695, 4.24316 4.61436, 3.98553 4.60234, 3.70843 4.59604, 3.41245 4.59547, 3.31855 4.59604, 3.24928 4.56569, 3.2052 4.50386, 3.16741 4.4678, 3.14852 4.422, 3.14852 4.36646, 3.14852 4.33039, 3.15825 4.29662, 3.17657 4.2657 L 3.2052 4.11914 C 3.27447 3.93651, 3.39699 3.84491, 3.57332 3.84433, 4.30957 3.88155, 5.04811 3.89987, 5.79008 3.89929, 5.91603 3.89987, 6.04542 3.89357, 6.1771 3.88097, 7.0393 3.88155, 7.91638 3.86952, 8.80949 3.84433, 8.89766 3.84491, 8.97323 3.87525, 9.03621 3.93593, 9.0614 3.98517, 9.07342 4.03097, 9.07342 4.07334, 9.07342 4.11055, 9.06426 4.14433, 9.04537 4.1741 L 9.01732 4.3115 C 8.99842 4.39165, 8.95606 4.45864, 8.88965 4.5136, 8.82381 4.56856, 8.74366 4.59604, 8.64919 4.59547, 8.3034 4.59604, 7.95588 4.60234, 7.60665 4.61436, 7.25742 4.62695, 7.00151 4.66016, 6.83777 4.71455, 6.6809 4.77638, 6.57041 4.93496, 6.50743 5.19088 L 3.85614 15.5235 C 3.79317 15.7377, 3.76168 15.8968, 3.76168 15.9999 L 3.76168 16.0365 C 3.78687 16.0617, 3.9632 16.0766, 4.2901 16.0823 L 5.95095 16.0823 C 6.39751 16.0829, 6.84292 16.0188, 7.28605 15.8905, 7.72917 15.7623, 8.13336 15.5424, 8.49805 15.2304, 8.93888 14.8829, 9.29269 14.4237, 9.56006 13.8524, 9.82742 13.2816, 10.077 12.6936, 10.3095 12.0885, 10.3599 11.9242, 10.4703 11.8417, 10.6398 11.8411 L 10.819 11.8411 C 10.9827 11.8417, 11.0646 11.9213, 11.0646 12.0793 L 11.0646 12.1526 Z" stroke="none" fill="#000000" />
			<rect />
		</svg>
	</g>
	<g transform="matrix(1 0 -0 1 230.584 104.643)">
		<svg width="39.020092" height="45.0428467">
			<defs />
			<path d="M 9.44155 16.5953 C 9.38544 16.7602, 9.26235 16.8426, 9.07342 16.8426 L 0.271085 16.8426 C 0.176621 16.8426, 0.107348 16.8151, 0.0632644 16.7602, 0.0197537 16.7178, -0.00200171 16.672, -0.00257422 16.6228, -0.00200171 16.5867, 0.00429589 16.55, 0.0163186 16.5128 L 0.0541042 16.3754 C 0.0729971 16.2964, 0.11708 16.2283, 0.186354 16.1699, 0.255628 16.1121, 0.334062 16.0829, 0.421656 16.0823, 0.717643 16.0829, 0.994738 16.0783, 1.25237 16.0691, 1.51 16.06, 1.70522 16.0279, 1.8369 15.9724, 1.95026 15.9117, 2.03842 15.7468, 2.1014 15.4777 L 4.77158 5.15423 C 4.79677 5.03859, 4.80937 4.94699, 4.80937 4.87943, 4.80937 4.7884, 4.79048 4.73058, 4.75269 4.70539, 4.67082 4.6573, 4.50079 4.62695, 4.24316 4.61436, 3.98553 4.60234, 3.70843 4.59604, 3.41245 4.59547, 3.31855 4.59604, 3.24928 4.56569, 3.2052 4.50386, 3.16741 4.4678, 3.14852 4.422, 3.14852 4.36646, 3.14852 4.33039, 3.15825 4.29662, 3.17657 4.2657 L 3.2052 4.11914 C 3.27447 3.93651, 3.39699 3.84491, 3.57332 3.84433, 4.30957 3.88155, 5.04811 3.89987, 5.79008 3.89929, 5.91603 3.89987, 6.04542 3.89357, 6.1771 3.88097, 7.0393 3.88155, 7.91638 3.86952, 8.80949 3.84433, 8.89766 3.84491, 8.97323 3.87525, 9.03621 3.93593, 9.0614 3.98517, 9.07342 4.03097, 9.07342 4.07334, 9.07342 4.11055, 9.06426 4.14433, 9.04537 4.1741 L 9.01732 4.3115 C 8.99842 4.39165, 8.95606 4.45864, 8.88965 4.5136, 8.82381 4.56856, 8.74366 4.59604, 8.64919 4.59547, 8.3034 4.59604, 7.95588 4.60234, 7.60665 4.61436, 7.25742 4.62695, 7.00151 4.66016, 6.83777 4.71455, 6.6809 4.77638, 6.57041 4.93496, 6.50743 5.19088 L 3.85614 15.5235 C 3.79317 15.7377, 3.76168 15.8968, 3.76168 15.9999 L 3.76168 16.0365 C 3.78687 16.0617, 3.9632 16.0766, 4.2901 16.0823 L 5.95095 16.0823 C 6.39751 16.0829, 6.84292 16.0188, 7.28605 15.8905, 7.72917 15.7623, 8.13336 15.5424, 8.49805 15.2304, 8.93888 14.8829, 9.29269 14.4237, 9.56006 13.8524, 9.82742 13.2816, 10.077 12.6936, 10.3095 12.0885, 10.3599 11.9242, 10.4703 11.8417, 10.6398 11.8411 L 10.819 11.8411 C 10.9827 11.8417, 11.0646 11.9213, 11.0646 12.0793 L 11.0646 12.1526 Z" stroke="none" fill="#000000" />
			<rect />
		</svg>
	</g>
</svg>
