<?xml version="1.0"?>
<svg xmlns="http://www.w3.org/2000/svg" xmlns:xlink="http://www.w3.org/1999/xlink" width="198.078735" height="175.87088">
	<defs>
		<marker id="CustomMarker-01" markerUnits="strokeWidth" markerWidth="14.25" markerHeight="13.5" viewBox="-14.25 -6.75 14.25 13.5" orient="auto-start-reverse">
			<path d="M -9.5 -4.5 L 0 -0, -9.5 4.5" fill="none" stroke="#000000" stroke-linejoin="round" />
		</marker>
	</defs>
	<g transform="matrix(1 0 -0 1 8.99941 93.3802)">
		<svg width="108.057793" height="59.8723221">
			<defs />
			<path d="M 4.85574 5.76284 C 4.79907 5.99527, 4.66853 6.18935, 4.46415 6.34508, 4.25976 6.5008, 4.0382 6.57866, 3.79889 6.57809, 3.54756 6.57866, 3.35577 6.49336, 3.22352 6.3216, 3.13535 6.22428, 3.08841 6.1052, 3.08154 5.96436, 3.08154 5.87963, 3.09413 5.79375, 3.11932 5.70787, 3.17657 5.47658, 3.30882 5.2825, 3.51607 5.12678, 3.72332 4.97105, 3.9466 4.89319, 4.18591 4.89262, 4.43781 4.89319, 4.6296 4.97563, 4.76128 5.13995, 4.84945 5.25674, 4.89353 5.38154, 4.89353 5.51551, 4.89353 5.60139, 4.88093 5.68383, 4.85574 5.76284 Z M 4.95937 14.6482 C 4.89067 14.9665, 4.78361 15.3008, 4.63876 15.6518, 4.49449 16.0033, 4.31644 16.3222, 4.10576 16.609, 3.89507 16.8964, 3.64775 17.1357, 3.36493 17.3275, 3.08211 17.5199, 2.75463 17.6161, 2.38365 17.6161, 2.06934 17.6161, 1.79911 17.5491, 1.5724 17.4146, 1.34569 17.2806, 1.17107 17.1037, 1.04855 16.8838, 0.926037 16.664, 0.864779 16.4195, 0.864779 16.1505, 0.852184 16.139, 0.845886 16.1144, 0.845886 16.0772, 0.845886 15.8029, 0.905999 15.5218, 1.02508 15.2344 L 2.55368 11.204 C 2.74261 10.6979, 2.8365 10.2822, 2.8365 9.95819, 2.8365 9.68396, 2.72028 9.54655, 2.48727 9.54598, 2.27373 9.54655, 2.08193 9.60781, 1.9119 9.72976, 1.74244 9.85227, 1.58671 10.0217, 1.44473 10.2381, 1.30332 10.4551, 1.17622 10.7116, 1.06287 11.0076, 0.94951 11.3042, 0.855046 11.6196, 0.779475 11.9551, 0.710774 12.1206, 0.594554 12.2059, 0.430816 12.2116 L 0.222995 12.2116 C 0.0718527 12.2122, -0.00371855 12.136, -0.00371855 11.9826 L -0.00371855 11.9185 C 0.0718527 11.583, 0.18521 11.24, 0.336352 10.8885, 0.487495 10.5376, 0.669553 10.2187, 0.883672 9.93128, 1.09779 9.64445, 1.34626 9.40629, 1.62908 9.21679, 1.9119 9.02786, 2.23594 8.93282, 2.60063 8.93225, 2.91551 8.93282, 3.18287 9.00038, 3.40271 9.13435, 3.62313 9.26889, 3.79145 9.44751, 3.90767 9.67021, 4.02389 9.89349, 4.08801 10.1448, 4.1006 10.4254 L 4.1006 10.4895 C 4.1006 10.7528, 4.04736 11.0242, 3.9403 11.3047 L 2.4117 15.3535 C 2.23594 15.8487, 2.14777 16.2701, 2.14777 16.6176, 2.13518 16.6302, 2.12888 16.6302, 2.12888 16.6176, 2.12888 16.881, 2.24853 17.0121, 2.48727 17.0115, 2.70139 17.0121, 2.8949 16.948, 3.0678 16.8197, 3.24069 16.6915, 3.39813 16.5209, 3.53954 16.3067, 3.68095 16.0932, 3.80519 15.8367, 3.91225 15.5373, 4.01931 15.2384, 4.11663 14.9236, 4.2048 14.5932, 4.24259 14.4352, 4.35251 14.3556, 4.53457 14.3551 L 4.74239 14.3551 C 4.81166 14.3556, 4.88093 14.3768, 4.94964 14.4192, 4.9691 14.4684, 4.98456 14.5114, 4.99715 14.5474, 4.99715 14.5846, 4.98456 14.6184, 4.95937 14.6482 Z" stroke="none" fill="#000000" />
			<path d="M 2.24993 -0.362874 C 2.21851 -0.229182, 2.1499 -0.127229, 2.0441 -0.0573373, 1.9383 0.0128753, 1.83442 0.0478213, 1.73215 0.0475006, 1.62667 0.0478213, 1.54203 0.0103104, 1.47855 -0.0653524, 1.42597 -0.116329, 1.39776 -0.184618, 1.39423 -0.27054, 1.39423 -0.30773, 1.39776 -0.345562, 1.40449 -0.383393, 1.43655 -0.502658, 1.49715 -0.594993, 1.58692 -0.660076, 1.67669 -0.724838, 1.74978 -0.762669, 1.80621 -0.773249, 1.78184 -0.879049, 1.69913 -0.975551, 1.55806 -1.06276, 1.41699 -1.14996, 1.24804 -1.19356, 1.05054 -1.19388, 0.930957 -1.19356, 0.816501 -1.18074, 0.707174 -1.15509, 0.598168 -1.12944, 0.495895 -1.07911, 0.400675 -1.00409, 0.31283 -0.938682, 0.240693 -0.859172, 0.184267 -0.765234, 0.12784 -0.670976, 0.0874439 -0.571268, 0.0627574 -0.465468, 0.0415974 -0.407118, 0.0310174 -0.348768, 0.0310174 -0.291059, 0.0310174 -0.194877, 0.0592307 -0.104466, 0.115337 -0.0191853, 0.19645 0.107774, 0.319883 0.186323, 0.485315 0.21678 L 1.01367 0.329633 C 1.18616 0.367465, 1.34197 0.432548, 1.48112 0.524882, 1.62026 0.617217, 1.73311 0.728467, 1.81935 0.858312, 1.90592 0.988478, 1.96651 1.13532, 2.00178 1.29914, 2.00883 1.36455, 2.01236 1.4261, 2.01236 1.48381, 2.01236 1.59346, 1.99665 1.70824, 1.96459 1.8275, 1.90496 2.02628, 1.81679 2.22473, 1.70073 2.42287, 1.58467 2.62132, 1.4279 2.7922, 1.2304 2.93551, 1.0156 3.0862, 0.791814 3.18879, 0.559375 3.2433, 0.326936 3.29812, 0.103154 3.32537, -0.111652 3.32537, -0.326458 3.32537, -0.526515 3.29652, -0.711505 3.23817, -0.896174 3.18014, -1.05744 3.09421, -1.19466 2.97944, -1.33188 2.86498, -1.42549 2.72552, -1.47487 2.56105, -1.50629 2.47929, -1.52392 2.39049, -1.52777 2.2943, -1.52777 2.20582, -1.51526 2.11156, -1.4909 2.01217, -1.45178 1.8586, -1.37356 1.74318, -1.25557 1.66624, -1.13759 1.58929, -1.01864 1.55082, -0.899059 1.5505, -0.775626 1.55082, -0.669826 1.59025, -0.58198 1.66848, -0.522027 1.72683, -0.490287 1.80217, -0.48676 1.89419, -0.48676 1.94228, -0.495417 1.99037, -0.513371 2.03782, -0.551843 2.1885, -0.630392 2.30232, -0.748374 2.37926, -0.866357 2.45621, -0.962218 2.49629, -1.03628 2.49949, -0.997485 2.62645, -0.886555 2.7393, -0.70349 2.83837, -0.520103 2.93776, -0.303695 2.98713, -0.0536225 2.98681, 0.101551 2.98713, 0.253838 2.9711, 0.403561 2.9384, 0.553284 2.90602, 0.689862 2.8419, 0.812974 2.74572, 0.932881 2.66396, 1.03067 2.56489, 1.10633 2.44852, 1.18199 2.33246, 1.23585 2.20582, 1.26727 2.0686, 1.28843 2.00736, 1.29901 1.94228, 1.29901 1.87367, 1.29901 1.74414, 1.25862 1.62777, 1.1775 1.52485, 1.06144 1.37481, 0.89569 1.27382, 0.680885 1.2222 L 0.152527 1.10422 C -0.157499 1.03945, -0.386411 0.88396, -0.534531 0.637415, -0.632957 0.483845, -0.68233 0.311038, -0.68233 0.119316, -0.68233 0.0103104, -0.668223 -0.10094, -0.64001 -0.214113, -0.594163 -0.388202, -0.521065 -0.562612, -0.420716 -0.737021, -0.320366 -0.911431, -0.18475 -1.0634, -0.0138674 -1.19356, 0.157015 -1.32341, 0.342005 -1.41318, 0.54078 -1.46287, 0.739876 -1.51224, 0.930957 -1.53725, 1.11402 -1.53757, 1.29388 -1.53725, 1.4622 -1.50968, 1.61866 -1.45518, 1.77543 -1.40035, 1.90944 -1.32084, 2.02037 -1.21665, 2.1313 -1.11213, 2.21146 -0.989979, 2.26051 -0.850195, 2.27461 -0.774532, 2.28167 -0.69951, 2.28167 -0.624488, 2.28167 -0.542093, 2.27109 -0.454888, 2.24993 -0.362874 Z" stroke="none" fill="#000000" transform="matrix(1.12 0 0 1 7.5028 16.8691)" />
			<path d="M 26.7626 9.62842 C 26.6939 9.8122, 26.5708 9.9038, 26.3945 9.90323 L 24.6397 9.90323, 23.2434 15.3169 C 23.1306 15.7085, 23.0739 16.0503, 23.0739 16.3428, 23.0739 16.423, 23.0802 16.4991, 23.0928 16.5718, 23.1243 16.8655, 23.272 17.0121, 23.5359 17.0115, 23.7752 17.0121, 24.0014 16.9468, 24.2155 16.8151, 24.4296 16.684, 24.6306 16.5083, 24.8195 16.2884, 25.0084 16.0686, 25.1779 15.8092, 25.329 15.5098, 25.4802 15.211, 25.6181 14.8961, 25.7435 14.5657, 25.763 14.493, 25.8036 14.4398, 25.8666 14.406, 25.9296 14.3728, 25.9891 14.3556, 26.0458 14.3551 L 26.2817 14.3551 C 26.3635 14.3556, 26.4294 14.3894, 26.4798 14.4558, 26.4987 14.4993, 26.5078 14.5388, 26.5078 14.5749 L 26.5078 14.6299 C 26.3761 14.9905, 26.2107 15.3466, 26.0126 15.6976, 25.8145 16.0491, 25.5866 16.3651, 25.329 16.6457, 25.0714 16.9268, 24.7863 17.1586, 24.4748 17.3413, 24.1634 17.5245, 23.8193 17.6161, 23.4415 17.6161, 23.1145 17.6161, 22.8317 17.5537, 22.5924 17.4283, 22.3537 17.3035, 22.1619 17.13, 22.017 16.9067, 21.8728 16.684, 21.7875 16.4287, 21.7623 16.1413, 21.7497 16.0686, 21.7434 15.989, 21.7434 15.9031, 21.7434 15.6959, 21.7686 15.4852, 21.819 15.2711 L 23.2056 9.90323, 21.4319 9.90323 C 21.2751 9.9038, 21.1898 9.82136, 21.1772 9.6559 L 21.1772 9.58262, 21.2339 9.4269 C 21.2968 9.24427, 21.4136 9.15267, 21.5831 9.15209 L 23.3848 9.15209, 24.1588 6.14756 C 24.2155 5.92199, 24.33 5.75425, 24.5029 5.64433, 24.6758 5.5344, 24.8504 5.47944, 25.0267 5.47887, 25.2094 5.47944, 25.3605 5.53727, 25.4796 5.65291, 25.5615 5.73306, 25.6021 5.84299, 25.6021 5.98268, 25.6021 6.05024, 25.5958 6.11779, 25.5832 6.1842 L 24.8189 9.15209, 26.5553 9.15209 C 26.7191 9.15267, 26.8004 9.23511, 26.8004 9.39942 L 26.8004 9.46354 Z" stroke="none" fill="#000000" />
			<path d="M 1.5467 8.95625 C -4.56906 4.92594, -4.56906 -4.92594, 1.5467 -8.95625 L 2.50721 -8.95625 C -3.00823 -4.92594, -3.00823 4.92594, 2.50721 8.95625" stroke="none" fill="#000000" transform="matrix(1 0 -0 1 17.7094 11.7703)" />
			<path d="M 1.5467 8.95625 C -4.56906 4.92594, -4.56906 -4.92594, 1.5467 -8.95625 L 2.50721 -8.95625 C -3.00823 -4.92594, -3.00823 4.92594, 2.50721 8.95625" stroke="none" fill="#000000" transform="matrix(-1 1.50996e-007 -1.50996e-007 -1 30.2738 11.7703)" />
			<rect />
		</svg>
	</g>
	<path d="M -206.688 0 L 206.687 0" fill="none" stroke="#000000" stroke-width="5.5999999" stroke-linecap="round" stroke-linejoin="round" transform="matrix(0.238095 0 0 0.238095 124.173 42.9296)" />
	<path d="M -206.688 0 L 206.688 0" fill="none" stroke="#000000" stroke-width="5.5999999" stroke-linecap="round" stroke-linejoin="round" transform="matrix(0.238095 0 0 0.238095 124.173 167.371)" />
	<path d="M 0 94.7256 L 0 -94.7256" fill="none" stroke="#000000" stroke-width="5.5999999" stroke-linecap="round" stroke-linejoin="round" transform="matrix(0.238095 0 0 0.238095 74.9614 65.4833)" />
	<path d="M 71.8773 -0 C 71.8773 39.696, 39.6967 71.876, -0 71.876, -39.6967 71.876, -71.8773 39.696, -71.8773 -0, -71.8773 -39.696, -39.6967 -71.876, -0 -71.876, 39.6967 -71.876, 71.8773 -39.696, 71.8773 -0 Z" fill="none" stroke="#000000" stroke-width="5.5999999" stroke-linecap="round" stroke-linejoin="round" transform="matrix(0.238095 0 -0 0.238095 74.9614 105.15)" />
	<g transform="matrix(1 0 -0 1 52.9858 68.044)">
		<svg width="119.826561" height="119.904221">
			<defs />
			<polyline points="-5.628 0 5.628 0" fill="none" stroke="#000000" stroke-width="0.64319998" stroke-linecap="round" stroke-linejoin="round" transform="matrix(1 0 0 1 5.628 9.60638)" />
			<polyline points="0 -5.628 0 5.628" fill="none" stroke="#000000" stroke-width="0.64319998" stroke-linecap="round" stroke-linejoin="round" transform="matrix(1 0 0 1 5.628 9.60638)" />
			<rect />
		</svg>
	</g>
	<g transform="matrix(1 0 -0 1 52.4304 123.044)">
		<svg width="119.826561" height="83.9999847">
			<defs />
			<polyline points="-5.628 0 5.628 0" fill="none" stroke="#000000" stroke-width="0.64319998" stroke-linecap="round" stroke-linejoin="round" transform="matrix(1 0 0 1 5.628 9.60638)" />
			<rect />
		</svg>
	</g>
	<g transform="matrix(1 0 -0 1 157.69 93.3802)">
		<svg width="104.900322" height="59.8723221">
			<defs />
			<path d="M 9.41063 14.6482 C 9.34193 14.9299, 9.26006 15.2413, 9.1656 15.5831, 9.0717 15.9255, 8.94575 16.2426, 8.78831 16.5358, 8.63144 16.8289, 8.43336 17.0825, 8.19405 17.296, 7.95474 17.5096, 7.65589 17.6161, 7.2975 17.6161, 6.85724 17.6161, 6.50171 17.5033, 6.23148 17.2777, 5.96126 17.0522, 5.79409 16.8197, 5.73111 16.581, 5.51756 16.8443, 5.23131 17.0825, 4.87292 17.296, 4.51453 17.5096, 4.09889 17.6161, 3.62714 17.6161, 3.20005 17.6161, 2.81761 17.5371, 2.48097 17.3779, 2.14434 17.2199, 1.87869 16.9754, 1.68347 16.6451, 1.49511 16.2913, 1.40408 15.9008, 1.40981 15.4726 L 1.40981 15.3993 C 1.4224 14.9539, 1.47908 14.5114, 1.57984 14.0711, 1.6806 13.6503, 1.82717 13.1866, 2.01896 12.6793, 2.21075 12.1727, 2.39452 11.6809, 2.57029 11.204, 2.75921 10.6979, 2.85368 10.2822, 2.85368 9.95819, 2.85368 9.68396, 2.73746 9.54655, 2.50445 9.54598, 2.2909 9.54655, 2.09739 9.60781, 1.92449 9.72976, 1.7516 9.85227, 1.59416 10.0217, 1.45275 10.2381, 1.31134 10.4551, 1.18367 10.7116, 1.07031 11.0076, 0.956953 11.3042, 0.863061 11.6196, 0.78749 11.9551, 0.718216 12.1206, 0.601997 12.2059, 0.438259 12.2116 L 0.221278 12.2116 C 0.0701351 12.2122, -0.00543621 12.136, -0.00543621 11.9826 L -0.00543621 11.9185 C 0.0827303 11.583, 0.199522 11.24, 0.343795 10.8885, 0.48864 10.5376, 0.67127 10.2187, 0.891114 9.93128, 1.11153 9.64445, 1.36343 9.40629, 1.64625 9.21679, 1.92907 9.02786, 2.25311 8.93282, 2.6178 8.93225, 2.93268 8.93282, 3.20119 9.00038, 3.42447 9.13435, 3.64775 9.26889, 3.81778 9.44751, 3.934 9.67021, 4.0508 9.89349, 4.11492 10.1448, 4.12751 10.4254 L 4.12751 10.4895 C 4.12751 10.7528, 4.07427 11.0242, 3.96664 11.3047, 3.78458 11.7816, 3.60424 12.2688, 3.42447 12.7663, 3.24527 13.2644, 3.10558 13.7116, 3.00482 14.1083, 2.90406 14.5056, 2.83478 14.8989, 2.797 15.2894, 2.77181 15.3936, 2.75635 15.507, 2.75005 15.6283, 2.75005 15.8671, 2.79127 16.1024, 2.87257 16.3337, 2.92925 16.542, 3.03287 16.7069, 3.18402 16.8289, 3.33516 16.9514, 3.51435 17.0121, 3.7216 17.0115, 4.13724 17.0121, 4.49907 16.8873, 4.80708 16.6365, 5.11509 16.3863, 5.38532 16.0531, 5.61775 15.6375, 5.63035 15.5894, 5.64008 15.5327, 5.64638 15.4686, 5.65268 15.4045, 5.66184 15.3386, 5.67443 15.2711 L 7.08968 9.81162 C 7.14693 9.58606, 7.26143 9.42003, 7.43433 9.31297, 7.60723 9.20648, 7.78184 9.15267, 7.9576 9.15209, 8.14023 9.15267, 8.29137 9.20763, 8.41103 9.31698, 8.4929 9.39713, 8.53355 9.50361, 8.53355 9.63758, 8.53355 9.70514, 8.52725 9.77556, 8.51465 9.84827 L 7.09941 15.3077 C 6.99865 15.6867, 6.94827 16.0228, 6.94827 16.3153, 6.94827 16.3955, 6.95456 16.4808, 6.96716 16.5718, 6.99865 16.8655, 7.14636 17.0121, 7.41085 17.0115, 7.67535 17.0121, 7.90321 16.7865, 8.095 16.3342, 8.28679 15.8825, 8.474 15.302, 8.65606 14.5932, 8.69385 14.4352, 8.80091 14.3556, 8.97667 14.3551 L 9.19365 14.3551 C 9.2635 14.3556, 9.33277 14.3768, 9.40147 14.4192, 9.42666 14.4747, 9.43926 14.5205, 9.43926 14.5566, 9.43926 14.5818, 9.4301 14.6121, 9.41063 14.6482 Z" stroke="none" fill="#000000" />
			<path d="M 25.0638 9.62842 C 24.9951 9.8122, 24.872 9.9038, 24.6957 9.90323 L 22.941 9.90323, 21.5446 15.3169 C 21.4318 15.7085, 21.3752 16.0503, 21.3752 16.3428, 21.3752 16.423, 21.3815 16.4991, 21.394 16.5718, 21.4255 16.8655, 21.5732 17.0121, 21.8372 17.0115, 22.0765 17.0121, 22.3026 16.9468, 22.5167 16.8151, 22.7309 16.684, 22.9318 16.5083, 23.1207 16.2884, 23.3097 16.0686, 23.4791 15.8092, 23.6303 15.5098, 23.7814 15.211, 23.9194 14.8961, 24.0448 14.5657, 24.0642 14.493, 24.1049 14.4398, 24.1679 14.406, 24.2308 14.3728, 24.2904 14.3556, 24.3471 14.3551 L 24.5829 14.3551 C 24.6648 14.3556, 24.7306 14.3894, 24.781 14.4558, 24.7999 14.4993, 24.8091 14.5388, 24.8091 14.5749 L 24.8091 14.6299 C 24.6774 14.9905, 24.5119 15.3466, 24.3138 15.6976, 24.1158 16.0491, 23.8879 16.3651, 23.6303 16.6457, 23.3726 16.9268, 23.0875 17.1586, 22.7761 17.3413, 22.4646 17.5245, 22.1206 17.6161, 21.7427 17.6161, 21.4158 17.6161, 21.133 17.5537, 20.8937 17.4283, 20.6549 17.3035, 20.4631 17.13, 20.3183 16.9067, 20.174 16.684, 20.0887 16.4287, 20.0635 16.1413, 20.0509 16.0686, 20.0446 15.989, 20.0446 15.9031, 20.0446 15.6959, 20.0698 15.4852, 20.1202 15.2711 L 21.5068 9.90323, 19.7332 9.90323 C 19.5763 9.9038, 19.491 9.82136, 19.4784 9.6559 L 19.4784 9.58262, 19.5351 9.4269 C 19.5981 9.24427, 19.7149 9.15267, 19.8843 9.15209 L 21.686 9.15209, 22.4601 6.14756 C 22.5167 5.92199, 22.6312 5.75425, 22.8041 5.64433, 22.977 5.5344, 23.1517 5.47944, 23.328 5.47887, 23.5106 5.47944, 23.6618 5.53727, 23.7808 5.65291, 23.8627 5.73306, 23.9034 5.84299, 23.9034 5.98268, 23.9034 6.05024, 23.8971 6.11779, 23.8845 6.1842 L 23.1202 9.15209, 24.8566 9.15209 C 25.0203 9.15267, 25.1016 9.23511, 25.1016 9.39942 L 25.1016 9.46354 Z" stroke="none" fill="#000000" />
			<path d="M 1.5467 8.95625 C -4.56906 4.92594, -4.56906 -4.92594, 1.5467 -8.95625 L 2.50721 -8.95625 C -3.00823 -4.92594, -3.00823 4.92594, 2.50721 8.95625" stroke="none" fill="#000000" transform="matrix(1 0 -0 1 16.0107 11.7703)" />
			<path d="M 1.5467 8.95625 C -4.56906 4.92594, -4.56906 -4.92594, 1.5467 -8.95625 L 2.50721 -8.95625 C -3.00823 -4.92594, -3.00823 4.92594, 2.50721 8.95625" stroke="none" fill="#000000" transform="matrix(-1 1.50996e-007 -1.50996e-007 -1 28.5751 11.7703)" />
			<rect />
		</svg>
	</g>
	<g transform="matrix(1 0 -0 1 110.7 9)">
		<svg width="89.9740677" height="59.8723221">
			<defs />
			<path d="M 4.85574 5.76284 C 4.79907 5.99527, 4.66853 6.18935, 4.46415 6.34508, 4.25976 6.5008, 4.0382 6.57866, 3.79889 6.57809, 3.54756 6.57866, 3.35577 6.49336, 3.22352 6.3216, 3.13535 6.22428, 3.08841 6.1052, 3.08154 5.96436, 3.08154 5.87963, 3.09413 5.79375, 3.11932 5.70787, 3.17657 5.47658, 3.30882 5.2825, 3.51607 5.12678, 3.72332 4.97105, 3.9466 4.89319, 4.18591 4.89262, 4.43781 4.89319, 4.6296 4.97563, 4.76128 5.13995, 4.84945 5.25674, 4.89353 5.38154, 4.89353 5.51551, 4.89353 5.60139, 4.88093 5.68383, 4.85574 5.76284 Z M 4.95937 14.6482 C 4.89067 14.9665, 4.78361 15.3008, 4.63876 15.6518, 4.49449 16.0033, 4.31644 16.3222, 4.10576 16.609, 3.89507 16.8964, 3.64775 17.1357, 3.36493 17.3275, 3.08211 17.5199, 2.75463 17.6161, 2.38365 17.6161, 2.06934 17.6161, 1.79911 17.5491, 1.5724 17.4146, 1.34569 17.2806, 1.17107 17.1037, 1.04855 16.8838, 0.926037 16.664, 0.864779 16.4195, 0.864779 16.1505, 0.852184 16.139, 0.845886 16.1144, 0.845886 16.0772, 0.845886 15.8029, 0.905999 15.5218, 1.02508 15.2344 L 2.55368 11.204 C 2.74261 10.6979, 2.8365 10.2822, 2.8365 9.95819, 2.8365 9.68396, 2.72028 9.54655, 2.48727 9.54598, 2.27373 9.54655, 2.08193 9.60781, 1.9119 9.72976, 1.74244 9.85227, 1.58671 10.0217, 1.44473 10.2381, 1.30332 10.4551, 1.17622 10.7116, 1.06287 11.0076, 0.94951 11.3042, 0.855046 11.6196, 0.779475 11.9551, 0.710774 12.1206, 0.594554 12.2059, 0.430816 12.2116 L 0.222995 12.2116 C 0.0718527 12.2122, -0.00371855 12.136, -0.00371855 11.9826 L -0.00371855 11.9185 C 0.0718527 11.583, 0.18521 11.24, 0.336352 10.8885, 0.487495 10.5376, 0.669553 10.2187, 0.883672 9.93128, 1.09779 9.64445, 1.34626 9.40629, 1.62908 9.21679, 1.9119 9.02786, 2.23594 8.93282, 2.60063 8.93225, 2.91551 8.93282, 3.18287 9.00038, 3.40271 9.13435, 3.62313 9.26889, 3.79145 9.44751, 3.90767 9.67021, 4.02389 9.89349, 4.08801 10.1448, 4.1006 10.4254 L 4.1006 10.4895 C 4.1006 10.7528, 4.04736 11.0242, 3.9403 11.3047 L 2.4117 15.3535 C 2.23594 15.8487, 2.14777 16.2701, 2.14777 16.6176, 2.13518 16.6302, 2.12888 16.6302, 2.12888 16.6176, 2.12888 16.881, 2.24853 17.0121, 2.48727 17.0115, 2.70139 17.0121, 2.8949 16.948, 3.0678 16.8197, 3.24069 16.6915, 3.39813 16.5209, 3.53954 16.3067, 3.68095 16.0932, 3.80519 15.8367, 3.91225 15.5373, 4.01931 15.2384, 4.11663 14.9236, 4.2048 14.5932, 4.24259 14.4352, 4.35251 14.3556, 4.53457 14.3551 L 4.74239 14.3551 C 4.81166 14.3556, 4.88093 14.3768, 4.94964 14.4192, 4.9691 14.4684, 4.98456 14.5114, 4.99715 14.5474, 4.99715 14.5846, 4.98456 14.6184, 4.95937 14.6482 Z" stroke="none" fill="#000000" />
			<path d="M 20.62 9.62842 C 20.5513 9.8122, 20.4282 9.9038, 20.2519 9.90323 L 18.4971 9.90323, 17.1008 15.3169 C 16.988 15.7085, 16.9313 16.0503, 16.9313 16.3428, 16.9313 16.423, 16.9376 16.4991, 16.9502 16.5718, 16.9817 16.8655, 17.1294 17.0121, 17.3933 17.0115, 17.6327 17.0121, 17.8588 16.9468, 18.0729 16.8151, 18.287 16.684, 18.488 16.5083, 18.6769 16.2884, 18.8658 16.0686, 19.0353 15.8092, 19.1865 15.5098, 19.3376 15.211, 19.4756 14.8961, 19.6009 14.5657, 19.6204 14.493, 19.6611 14.4398, 19.724 14.406, 19.787 14.3728, 19.8466 14.3556, 19.9032 14.3551 L 20.1391 14.3551 C 20.221 14.3556, 20.2868 14.3894, 20.3372 14.4558, 20.3561 14.4993, 20.3652 14.5388, 20.3652 14.5749 L 20.3652 14.6299 C 20.2336 14.9905, 20.0681 15.3466, 19.87 15.6976, 19.6719 16.0491, 19.4441 16.3651, 19.1865 16.6457, 18.9288 16.9268, 18.6437 17.1586, 18.3323 17.3413, 18.0208 17.5245, 17.6767 17.6161, 17.2989 17.6161, 16.972 17.6161, 16.6892 17.5537, 16.4499 17.4283, 16.2111 17.3035, 16.0193 17.13, 15.8745 16.9067, 15.7302 16.684, 15.6449 16.4287, 15.6197 16.1413, 15.6071 16.0686, 15.6008 15.989, 15.6008 15.9031, 15.6008 15.6959, 15.626 15.4852, 15.6764 15.2711 L 17.063 9.90323, 15.2894 9.90323 C 15.1325 9.9038, 15.0472 9.82136, 15.0346 9.6559 L 15.0346 9.58262, 15.0913 9.4269 C 15.1543 9.24427, 15.2711 9.15267, 15.4405 9.15209 L 17.2422 9.15209, 18.0162 6.14756 C 18.0729 5.92199, 18.1874 5.75425, 18.3603 5.64433, 18.5332 5.5344, 18.7078 5.47944, 18.8842 5.47887, 19.0668 5.47944, 19.2179 5.53727, 19.337 5.65291, 19.4189 5.73306, 19.4595 5.84299, 19.4595 5.98268, 19.4595 6.05024, 19.4532 6.11779, 19.4406 6.1842 L 18.6763 9.15209, 20.4128 9.15209 C 20.5765 9.15267, 20.6578 9.23511, 20.6578 9.39942 L 20.6578 9.46354 Z" stroke="none" fill="#000000" />
			<path d="M 1.5467 8.95625 C -4.56906 4.92594, -4.56906 -4.92594, 1.5467 -8.95625 L 2.50721 -8.95625 C -3.00823 -4.92594, -3.00823 4.92594, 2.50721 8.95625" stroke="none" fill="#000000" transform="matrix(1 0 -0 1 11.5669 11.7703)" />
			<path d="M 1.5467 8.95625 C -4.56906 4.92594, -4.56906 -4.92594, 1.5467 -8.95625 L 2.50721 -8.95625 C -3.00823 -4.92594, -3.00823 4.92594, 2.50721 8.95625" stroke="none" fill="#000000" transform="matrix(-1 1.50996e-007 -1.50996e-007 -1 24.1313 11.7703)" />
			<rect />
		</svg>
	</g>
	<path d="M -21.301 0 L 21.3014 0" fill="none" stroke="#000000" stroke-width="4.48000002" stroke-linecap="round" stroke-linejoin="round" marker-end="url(#CustomMarker-01)" transform="matrix(0.238095 0 0 0.238095 126.747 42.9296)" />
	<g transform="matrix(1 0 -0 1 169.505 48.1641)">
		<svg width="119.826561" height="119.904221">
			<defs />
			<polyline points="-5.628 0 5.628 0" fill="none" stroke="#000000" stroke-width="0.64319998" stroke-linecap="round" stroke-linejoin="round" transform="matrix(1 0 0 1 5.628 9.60638)" />
			<polyline points="0 -5.628 0 5.628" fill="none" stroke="#000000" stroke-width="0.64319998" stroke-linecap="round" stroke-linejoin="round" transform="matrix(1 0 0 1 5.628 9.60638)" />
			<rect />
		</svg>
	</g>
	<g transform="matrix(1 0 -0 1 168.949 142.097)">
		<svg width="119.826561" height="83.9999847">
			<defs />
			<polyline points="-5.628 0 5.628 0" fill="none" stroke="#000000" stroke-width="0.64319998" stroke-linecap="round" stroke-linejoin="round" transform="matrix(1 0 0 1 5.628 9.60638)" />
			<rect />
		</svg>
	</g>
	<path d="M 0 94.7249 L 0 -94.7252" fill="none" stroke="#000000" stroke-width="5.5999999" stroke-linecap="round" stroke-linejoin="round" transform="matrix(0.238095 0 0 0.238095 74.9614 144.817)" />
	<path d="M -71.8773 0 L 71.8773 0" fill="none" stroke="#000000" stroke-width="5.5999999" stroke-linecap="round" stroke-linejoin="round" transform="matrix(0.238095 0 0 0.238095 74.9614 105.15)" />
</svg>
