<?xml version="1.0"?>
<svg xmlns="http://www.w3.org/2000/svg" xmlns:xlink="http://www.w3.org/1999/xlink" width="277.492737" height="175.30809">
	<defs>
		<marker id="CustomMarker-01" markerUnits="strokeWidth" markerWidth="14.25" markerHeight="13.5" viewBox="-14.25 -6.75 14.25 13.5" orient="auto-start-reverse">
			<path d="M -9.5 -4.5 L 0 -0, -9.5 4.5" fill="none" stroke="#000000" stroke-linejoin="round" />
		</marker>
		<marker id="CustomMarker-02" markerUnits="strokeWidth" markerWidth="14.25" markerHeight="13.5" viewBox="-14.25 -6.75 14.25 13.5" orient="auto-start-reverse">
			<path d="M -9.5 -4.5 L 0 -0, -9.5 4.5" fill="none" stroke="#000000" stroke-linejoin="round" />
		</marker>
		<marker id="CustomMarker-03" markerUnits="strokeWidth" markerWidth="14.25" markerHeight="13.5" viewBox="-14.25 -6.75 14.25 13.5" orient="auto-start-reverse">
			<path d="M -9.5 -4.5 L 0 -0, -9.5 4.5" fill="none" stroke="#000000" stroke-linejoin="round" />
		</marker>
	</defs>
	<g transform="matrix(1 0 -0 1 8.99999 64.7366)">
		<svg width="77.9182587" height="45.2233963">
			<defs />
			<path d="M 7.60602 16.7669 L 0.079969 16.7669, 0.079969 16.2732 C 0.079969 16.2379, 0.098484 16.184, 0.135514 16.1116 L 3.15906 12.826 C 3.51646 12.4316, 3.87834 12.0277, 4.24528 11.6147, 4.61221 11.2018, 4.94099 10.7799, 5.2305 10.349, 5.52 9.91808, 5.75116 9.47372, 5.92396 9.01589, 6.09677 8.55807, 6.18261 8.0778, 6.18261 7.57453, 6.18261 7.15037, 6.12707 6.7537, 6.01598 6.38565, 5.90489 6.01759, 5.74499 5.69442, 5.53515 5.41613, 5.32588 5.13785, 5.06386 4.91343, 4.74967 4.74286, 4.43547 4.5723, 4.07135 4.48702, 3.65841 4.48646, 3.04236 4.48702, 2.49814 4.67105, 2.02628 5.0391, 1.55499 5.40716, 1.24192 5.8128, 1.08763 6.25492, 1.05733 6.26726, 1.10671 6.27343, 1.23575 6.27287 L 1.39285 6.27287 C 1.578 6.31551, 1.7379 6.38004, 1.87368 6.46644, 2.00945 6.5534, 2.12335 6.67291, 2.21592 6.82552, 2.3085 6.97812, 2.3545 7.16215, 2.3545 7.37704, 2.3545 7.73668, 2.2378 8.01216, 2.00328 8.20348, 1.76876 8.39536, 1.50674 8.49074, 1.21724 8.49018, 0.940073 8.49074, 0.680864 8.39536, 0.44073 8.20348, 0.200597 8.01216, 0.079969 7.73668, 0.079969 7.37704, 0.079969 6.87489, 0.178716 6.39911, 0.376208 5.95026, 0.573702 5.50142, 0.841327 5.1126, 1.18021 4.78326, 1.51909 4.45448, 1.91968 4.19415, 2.382 4.00226, 2.84431 3.81094, 3.33468 3.715, 3.85253 3.71444, 4.49382 3.715, 5.08125 3.80926, 5.61426 3.99778, 6.14727 4.18629, 6.60173 4.45728, 6.97763 4.81019, 7.35354 5.16366, 7.6481 5.57211, 7.86074 6.03554, 8.07338 6.49954, 8.17942 7.01235, 8.17942 7.57453, 8.17942 8.19731, 8.03804 8.77071, 7.75414 9.29418, 7.47081 9.81821, 7.11958 10.2985, 6.70047 10.735, 6.28136 11.172, 5.83588 11.5833, 5.36403 11.9693, 4.89274 12.3553, 4.46577 12.7307, 4.08369 13.0954 L 1.95671 15.0972, 4.74013 15.0972 C 5.12838 15.0978, 5.49083 15.095, 5.82634 15.0888, 6.16242 15.0832, 6.44743 15.0708, 6.68196 15.0529, 6.91648 15.0349, 7.03655 15.0232, 7.04216 15.0164, 7.09153 14.9749, 7.1381 14.8913, 7.1813 14.7656, 7.2245 14.64, 7.26434 14.4918, 7.30137 14.3213, 7.3384 14.1507, 7.37543 13.9773, 7.41246 13.8006, 7.44949 13.6244, 7.48315 13.4309, 7.51401 13.221 L 8.19794 13.221 Z" stroke="none" fill="#000000" />
			<path d="M 24.8231 16.8334 C 24.0056 16.7911, 23.2166 16.7693, 22.4552 16.7693 L 22.0871 16.7693 C 21.2003 16.7819, 20.2785 16.8002, 19.3224 16.8243 L 19.3224 16.064 C 19.6058 16.0646, 19.8606 16.0542, 20.0867 16.0325, 20.3134 16.0113, 20.5144 15.9667, 20.6907 15.8991, 20.7726 15.8567, 20.8447 15.7926, 20.9077 15.7067, 20.9329 15.677, 20.9455 15.6369, 20.9455 15.5877, 20.9455 15.5636, 20.9426 15.5361, 20.9358 15.5052 L 19.8698 12.5465, 15.237 12.5465, 14.3599 15.0014 C 14.3284 15.0753, 14.3124 15.1457, 14.3124 15.2121, 14.3124 15.2739, 14.3221 15.3346, 14.341 15.3953, 14.3914 15.5304, 14.4733 15.6403, 14.5861 15.7251, 14.7498 15.8602, 14.9244 15.9501, 15.1099 15.9959, 15.2954 16.0417, 15.5204 16.0646, 15.7843 16.064 L 15.7843 16.8243 C 15.0235 16.8002, 14.2969 16.7819, 13.6048 16.7693 L 13.3128 16.7693 C 12.7088 16.7693, 12.0796 16.7911, 11.4258 16.8334 L 11.4258 16.064 C 11.7281 16.0646, 11.9903 16.0451, 12.2136 16.005, 12.4369 15.9655, 12.6521 15.8876, 12.8594 15.7709, 13.1994 15.5819, 13.4382 15.3043, 13.5767 14.9373 L 17.6524 3.4596 C 17.7154 3.27697, 17.8476 3.18824, 18.0486 3.19396 L 18.1997 3.19396 C 18.4013 3.19453, 18.5329 3.28327, 18.5959 3.4596 L 22.8794 15.4502 C 22.9115 15.567, 22.9602 15.6707, 23.026 15.7623, 23.0924 15.8539, 23.1817 15.9151, 23.2945 15.9449, 23.4582 16.0067, 23.6741 16.0417, 23.9414 16.0508, 24.2088 16.06, 24.5025 16.0646, 24.8231 16.064 L 24.8231 16.8334 Z M 17.5677 6.04277 L 15.5107 11.7862, 19.5961 11.7862 Z" stroke="none" fill="#000000" />
			<rect />
		</svg>
	</g>
	<path d="M -105.626 0 L 105.626 0" fill="none" stroke="#000000" stroke-width="5.5999999" stroke-linecap="round" stroke-linejoin="round" transform="matrix(0.238095 0 0 0.238095 79.2305 42.3668)" />
	<path d="M -451.314 0 L 451.314 0" fill="none" stroke="#000000" stroke-width="5.5999999" stroke-linecap="round" stroke-linejoin="round" transform="matrix(0.238095 0 0 0.238095 161.537 166.808)" />
	<path d="M 0 94.7256 L 0 -94.7256" fill="none" stroke="#000000" stroke-width="5.5999999" stroke-linecap="round" stroke-linejoin="round" transform="matrix(0.238095 0 0 0.238095 54.0815 64.9205)" />
	<path d="M 71.8773 -0 C 71.8773 39.696, 39.6967 71.876, -0 71.876, -39.6967 71.876, -71.8773 39.696, -71.8773 -0, -71.8773 -39.696, -39.6967 -71.876, -0 -71.876, 39.6967 -71.876, 71.8773 -39.696, 71.8773 -0 Z" fill="none" stroke="#000000" stroke-width="5.5999999" stroke-linecap="round" stroke-linejoin="round" transform="matrix(0.238095 0 -0 0.238095 54.0815 104.588)" />
	<g transform="matrix(1 0 -0 1 227.506 53.7131)">
		<svg width="29.9820557" height="45.2233963">
			<defs />
			<path d="M 8.72448 4.3115 C 8.70559 4.39165, 8.66322 4.45864, 8.59681 4.5136, 8.53097 4.56856, 8.45082 4.59604, 8.35636 4.59547, 8.06094 4.59604, 7.77182 4.60234, 7.489 4.61436, 7.20618 4.62695, 7.00123 4.66016, 6.87527 4.71455, 6.7436 4.75806, 6.64627 4.91664, 6.58329 5.19088 L 3.93257 15.5144 C 3.90738 15.6312, 3.89479 15.7319, 3.89479 15.8167, 3.89479 15.9025, 3.91082 15.9546, 3.94173 15.9724, 4.0299 16.0279, 4.21253 16.06, 4.48905 16.0691, 4.76615 16.0783, 5.05813 16.0829, 5.36614 16.0823, 5.54247 16.0829, 5.63064 16.1562, 5.63064 16.3021, 5.63064 16.3394, 5.62434 16.3789, 5.61174 16.4212 L 5.57396 16.5678 C 5.50468 16.751, 5.38503 16.8426, 5.21557 16.8426, 4.40432 16.806, 3.58334 16.7876, 2.7532 16.7876, 1.92993 16.7876, 1.0935 16.806, 0.243893 16.8426, 0.0813007 16.8426, -0.000568226 16.7636, -0.00114073 16.6044 L -0.00114073 16.5311, 0.0366449 16.3754 C 0.0875983 16.1745, 0.210115 16.0766, 0.404769 16.0823, 0.712779 16.0829, 1.00877 16.0783, 1.29159 16.0691, 1.57441 16.06, 1.77879 16.0279, 1.90417 15.9724, 2.01753 15.9117, 2.10913 15.7468, 2.17783 15.4777 L 4.84744 5.15423 C 4.87263 5.03859, 4.88523 4.94699, 4.88523 4.87943, 4.88523 4.7884, 4.86977 4.73058, 4.83828 4.70539, 4.73752 4.6573, 4.54917 4.62695, 4.27207 4.61436, 3.99555 4.60234, 3.70929 4.59604, 3.41388 4.59547, 3.23755 4.59604, 3.14938 4.5136, 3.14938 4.34814 L 3.14938 4.28402, 3.18717 4.11914 C 3.25644 3.93651, 3.37609 3.84491, 3.54556 3.84433, 4.36997 3.86952, 5.19667 3.88155, 6.02681 3.88097, 6.86325 3.88155, 7.69339 3.86952, 8.51666 3.84433, 8.60483 3.84491, 8.6804 3.87525, 8.74337 3.93593, 8.76856 3.98517, 8.78116 4.03097, 8.78116 4.07334, 8.78116 4.11055, 8.772 4.14433, 8.75253 4.1741 Z" stroke="none" fill="#000000" />
			<rect />
		</svg>
	</g>
	<path d="M -21.301 0 L 21.3014 0" fill="none" stroke="#000000" stroke-width="4.48000002" stroke-linecap="round" stroke-linejoin="round" marker-end="url(#CustomMarker-01)" transform="matrix(0.238095 0 0 0.238095 151.106 42.3668)" />
	<path d="M 0 94.7249 L 0 -94.7252" fill="none" stroke="#000000" stroke-width="5.5999999" stroke-linecap="round" stroke-linejoin="round" transform="matrix(0.238095 0 0 0.238095 54.0815 144.255)" />
	<path d="M -71.8773 0 L 71.8773 0" fill="none" stroke="#000000" stroke-width="5.5999999" stroke-linecap="round" stroke-linejoin="round" transform="matrix(0.238095 0 0 0.238095 54.0815 104.588)" />
	<path d="M 71.8773 -0 C 71.8773 39.696, 39.6967 71.876, -0 71.876, -39.6967 71.876, -71.8773 39.696, -71.8773 -0, -71.8773 -39.696, -39.6967 -71.876, -0 -71.876, 39.6967 -71.876, 71.8773 -39.696, 71.8773 -0 Z" fill="none" stroke="#000000" stroke-width="5.5999999" stroke-linecap="round" stroke-linejoin="round" transform="matrix(1.79757e-008 0.238095 -0.238095 1.79757e-008 121.493 42.3668)" />
	<path d="M 0 -71.8773 L 0 71.8773" fill="none" stroke="#000000" stroke-width="5.5999999" stroke-linecap="round" stroke-linejoin="round" transform="matrix(0.238095 0 0 0.238095 121.493 42.3669)" />
	<path d="M -273.812 -3.05176e-005 L 273.812 1.52588e-005" fill="none" stroke="#000000" stroke-width="5.5999999" stroke-linecap="round" stroke-linejoin="round" transform="matrix(0.238095 0 0 0.238095 203.799 42.3668)" />
	<path d="M 0 21.301 L 0 -21.3014" fill="none" stroke="#000000" stroke-width="4.48000002" stroke-linecap="round" stroke-linejoin="round" marker-end="url(#CustomMarker-02)" transform="matrix(0.238095 0 0 0.238095 54.0815 75.9441)" />
	<g transform="matrix(1 0 -0 1 143.534 9)">
		<svg width="77.9182587" height="48.0957298">
			<defs />
			<path d="M 8.50221 13.3826 C 8.50221 13.8977, 8.38831 14.392, 8.16052 14.8644, 7.93273 15.3374, 7.62751 15.7413, 7.24487 16.0757, 6.81398 16.4533, 6.33764 16.7327, 5.81698 16.9151, 5.29631 17.098, 4.75208 17.1888, 4.18485 17.1888, 3.67373 17.1888, 3.17495 17.117, 2.68795 16.9734, 2.20095 16.8298, 1.7622 16.6239, 1.37058 16.3546, 0.978959 16.0852, 0.666449 15.7548, 0.431926 15.3626, 0.197964 14.971, 0.0807031 14.5204, 0.0807031 14.011, 0.0807031 13.6284, 0.208625 13.3428, 0.464468 13.1543, 0.720311 12.9658, 0.98962 12.8715, 1.27295 12.8709, 1.56919 12.8715, 1.84467 12.9658, 2.10052 13.1543, 2.35636 13.3428, 2.48428 13.6284, 2.48428 14.011, 2.48428 14.2388, 2.43996 14.429, 2.35019 14.5816, 2.26098 14.7342, 2.14709 14.8616, 2.00794 14.9631, 1.86936 15.0652, 1.71058 15.1275, 1.53216 15.1511, 1.44015 15.1758, 1.35375 15.1875, 1.27295 15.187, 1.19328 15.1875, 1.18094 15.1937, 1.23592 15.2049, 1.42725 15.5405, 1.80316 15.8373, 2.36422 16.0942, 2.92527 16.3517, 3.53178 16.4802, 4.18485 16.4797, 4.49344 16.4802, 4.78126 16.4039, 5.04945 16.2513, 5.31763 16.0987, 5.5415 15.8939, 5.71991 15.6358, 5.94209 15.3014, 6.09302 14.9424, 6.17269 14.5592, 6.25292 14.1765, 6.29275 13.7843, 6.29275 13.3826, 6.29275 12.9702, 6.25292 12.5741, 6.17269 12.1937, 6.09302 11.8139, 5.94209 11.4621, 5.71991 11.1384, 5.53476 10.8758, 5.30978 10.6632, 5.04496 10.5016, 4.78014 10.34, 4.49344 10.2592, 4.18485 10.2586 L 2.84448 10.2586 C 2.66607 10.2592, 2.57069 10.1756, 2.55834 10.0073 L 2.55834 9.90854 C 2.55834 9.83728, 2.58022 9.78062, 2.62286 9.73798, 2.67841 9.68468, 2.7491 9.65775, 2.83551 9.65718, 3.01448 9.63362, 3.19907 9.62184, 3.38983 9.62128, 3.57498 9.62184, 3.75733 9.61005, 3.93574 9.58537, 4.26845 9.5618, 4.55796 9.45913, 4.80426 9.27623, 5.05113 9.09388, 5.2576 8.86048, 5.42367 8.57602, 5.59031 8.29213, 5.71655 7.96447, 5.80295 7.59305, 5.88935 7.22219, 5.93255 6.84179, 5.93255 6.45241, 5.93255 6.16571, 5.9017 5.8936, 5.83998 5.63607, 5.77826 5.37911, 5.66437 5.15412, 5.49773 4.96224, 5.15268 4.56781, 4.71505 4.37313, 4.18485 4.37874, 3.61818 4.3793, 3.0992 4.4859, 2.62791 4.69798, 2.15662 4.91062, 1.84019 5.13953, 1.67972 5.38415, 1.63708 5.39089, 1.6584 5.39369, 1.74481 5.39313, 1.96699 5.39369, 2.17626 5.45934, 2.37319 5.59062, 2.66943 5.76455, 2.81699 6.05799, 2.81699 6.47037, 2.81699 6.81822, 2.70478 7.08024, 2.47979 7.25641, 2.25481 7.43314, 2.00345 7.52123, 1.72629 7.52067, 1.4553 7.52123, 1.20114 7.43483, 0.963811 7.2609, 0.726483 7.08753, 0.607538 6.82383, 0.607538 6.47037, 0.607538 6.03386, 0.712456 5.64841, 0.921731 5.3129, 1.13157 4.97795, 1.40088 4.69069, 1.73078 4.45111, 2.06068 4.2121, 2.44108 4.0292, 2.87254 3.90352, 3.30399 3.77784, 3.74162 3.715, 4.18485 3.71444, 4.65951 3.715, 5.11902 3.77784, 5.56282 3.90352, 6.00661 4.0292, 6.42573 4.22388, 6.81959 4.48646, 7.14052 4.71425, 7.40982 4.99422, 7.62864 5.32637, 7.84745 5.65851, 7.95686 6.03386, 7.95686 6.45241, 7.95686 6.87208, 7.88167 7.26707, 7.73075 7.63793, 7.57982 8.00935, 7.37953 8.34431, 7.12986 8.64335, 6.88018 8.94296, 6.58282 9.20609, 6.23777 9.43332, 5.89272 9.66111, 5.63351 9.80418, 5.4607 9.86365, 5.60882 9.88217, 5.86186 9.97082, 6.21926 10.129, 6.57665 10.2878, 6.91834 10.4988, 7.24487 10.7613, 7.62751 11.0913, 7.93273 11.4846, 8.16052 11.9424, 8.38831 12.4002, 8.50221 12.8805, 8.50221 13.3826 Z" stroke="none" fill="#000000" />
			<path d="M 24.9742 16.8334 C 24.1567 16.7911, 23.3678 16.7693, 22.6063 16.7693 L 22.2382 16.7693 C 21.3514 16.7819, 20.4297 16.8002, 19.4736 16.8243 L 19.4736 16.064 C 19.757 16.0646, 20.0117 16.0542, 20.2379 16.0325, 20.4646 16.0113, 20.6655 15.9667, 20.8419 15.8991, 20.9237 15.8567, 20.9959 15.7926, 21.0589 15.7067, 21.084 15.677, 21.0966 15.6369, 21.0966 15.5877, 21.0966 15.5636, 21.0938 15.5361, 21.0869 15.5052 L 20.0209 12.5465, 15.3881 12.5465, 14.5111 15.0014 C 14.4796 15.0753, 14.4635 15.1457, 14.4635 15.2121, 14.4635 15.2739, 14.4733 15.3346, 14.4922 15.3953, 14.5425 15.5304, 14.6244 15.6403, 14.7372 15.7251, 14.9009 15.8602, 15.0756 15.9501, 15.261 15.9959, 15.4465 16.0417, 15.6715 16.0646, 15.9355 16.064 L 15.9355 16.8243 C 15.1746 16.8002, 14.4481 16.7819, 13.7559 16.7693 L 13.4639 16.7693 C 12.8599 16.7693, 12.2308 16.7911, 11.5769 16.8334 L 11.5769 16.064 C 11.8792 16.0646, 12.1414 16.0451, 12.3647 16.005, 12.588 15.9655, 12.8033 15.8876, 13.0105 15.7709, 13.3506 15.5819, 13.5893 15.3043, 13.7279 14.9373 L 17.8036 3.4596 C 17.8665 3.27697, 17.9988 3.18824, 18.1997 3.19396 L 18.3509 3.19396 C 18.5524 3.19453, 18.6841 3.28327, 18.7471 3.4596 L 23.0306 15.4502 C 23.0626 15.567, 23.1113 15.6707, 23.1771 15.7623, 23.2436 15.8539, 23.3329 15.9151, 23.4456 15.9449, 23.6094 16.0067, 23.8252 16.0417, 24.0926 16.0508, 24.3599 16.06, 24.6536 16.0646, 24.9742 16.064 L 24.9742 16.8334 Z M 17.7188 6.04277 L 15.6618 11.7862, 19.7472 11.7862 Z" stroke="none" fill="#000000" />
			<rect />
		</svg>
	</g>
	<path d="M -21.301 0 L 21.3014 0" fill="none" stroke="#000000" stroke-width="4.48000002" stroke-linecap="round" stroke-linejoin="round" marker-end="url(#CustomMarker-03)" transform="matrix(0.238095 0 0 0.238095 233.397 42.3668)" />
</svg>
