<?xml version="1.0"?>
<svg xmlns="http://www.w3.org/2000/svg" xmlns:xlink="http://www.w3.org/1999/xlink" width="287.600128" height="242.200089">
	<defs>
		<marker id="CustomMarker-01" markerUnits="strokeWidth" markerWidth="27.0000019" markerHeight="21" viewBox="-27 -10.5 27 21" orient="auto-start-reverse">
			<path d="M 0 -0 L -18 -7, -14.4 -0.5, -14.4 0.5, -18 7 Z" fill="#000000" stroke="#000000" stroke-linejoin="round" />
		</marker>
		<marker id="CustomMarker-02" markerUnits="strokeWidth" markerWidth="27.0000019" markerHeight="21" viewBox="-27 -10.5 27 21" orient="auto-start-reverse">
			<path d="M 0 -0 L -18 -7, -14.4 -0.5, -14.4 0.5, -18 7 Z" fill="#000000" stroke="#000000" stroke-linejoin="round" />
		</marker>
		<marker id="CustomMarker-03" markerUnits="strokeWidth" markerWidth="27.0000019" markerHeight="21" viewBox="-27 -10.5 27 21" orient="auto-start-reverse">
			<path d="M 0 -0 L -18 -7, -14.4 -0.5, -14.4 0.5, -18 7 Z" fill="#000000" stroke="#000000" stroke-linejoin="round" />
		</marker>
		<marker id="CustomMarker-04" markerUnits="strokeWidth" markerWidth="27.0000019" markerHeight="21" viewBox="-27 -10.5 27 21" orient="auto-start-reverse">
			<path d="M 0 -0 L -18 -7, -14.4 -0.5, -14.4 0.5, -18 7 Z" fill="#000000" stroke="#000000" stroke-linejoin="round" />
		</marker>
		<marker id="CustomMarker-05" markerUnits="strokeWidth" markerWidth="27.0000019" markerHeight="21" viewBox="-27 -10.5 27 21" orient="auto-start-reverse">
			<path d="M 0 -0 L -18 -7, -14.4 -0.5, -14.4 0.5, -18 7 Z" fill="#000000" stroke="#000000" stroke-linejoin="round" />
		</marker>
		<marker id="CustomMarker-06" markerUnits="strokeWidth" markerWidth="27.0000019" markerHeight="21" viewBox="-27 -10.5 27 21" orient="auto-start-reverse">
			<path d="M 0 -0 L -18 -7, -14.4 -0.5, -14.4 0.5, -18 7 Z" fill="#000000" stroke="#000000" stroke-linejoin="round" />
		</marker>
	</defs>
	<ellipse cx="696.32891845703125" cy="495.5125732421875" rx="5.25" ry="5.25" stroke="none" fill="#000000" transform="matrix(0.5 0 0 0.5 -100.2 -145.4)" />
	<path d="M -209.501 -165.03 L 209.501 -165.03, 209.501 165.03, -209.501 165.03 Z" fill="none" stroke="#000000" stroke-width="2.66666675" stroke-linecap="round" stroke-linejoin="round" transform="matrix(0.5 0 -0 0.5 143.214 120.392)" />
	<rect x="-29.7781448" y="-31.2252502" width="59.5562897" height="62.4505005" stroke="none" fill="#E1E1E1" transform="matrix(0.5 0 -0 0.5 38.4632 150.952)" />
	<path d="M -29.7781 -31.2253 L 29.7781 -31.2253, 29.7781 31.2253, -29.7781 31.2253 Z" fill="none" stroke="#000000" stroke-width="2.66666675" stroke-linecap="round" stroke-linejoin="round" transform="matrix(0.5 0 -0 0.5 38.4632 150.952)" />
	<g transform="matrix(1 0 -0 1 35.0147 139.744)">
		<svg width="23.9688396" height="45.0428467">
			<defs />
			<path d="M 6.82276 16.7669 C 5.68886 16.731, 4.58525 16.7131, 3.51251 16.7131, 2.44032 16.7131, 1.33672 16.731, 0.202257 16.7669 L 0.202257 15.9949, 0.840743 15.9949 C 1.04385 15.9955, 1.23517 15.9927, 1.41358 15.9865, 1.59256 15.9809, 1.762 15.9657, 1.92247 15.9416, 2.08293 15.918, 2.22151 15.8939, 2.33821 15.8692, 2.43696 15.8518, 2.51887 15.7969, 2.58339 15.7037, 2.64848 15.6111, 2.68046 15.5079, 2.68046 15.3935 L 2.68046 5.27643 C 2.37244 5.4268, 1.99316 5.54069, 1.54319 5.61812, 1.09322 5.6961, 0.600048 5.73482, 0.0636752 5.73426 L 0.0636752 4.97122 C 0.803713 4.97178, 1.48652 4.88369, 2.1121 4.70696, 2.73768 4.53078, 3.27855 4.19976, 3.73469 3.71444 L 4.02139 3.71444 C 4.22449 3.715, 4.32604 3.81375, 4.32604 4.01068 L 4.32604 15.3935 C 4.32604 15.5135, 4.3569 15.6184, 4.41862 15.7082, 4.48034 15.798, 4.57011 15.8518, 4.68681 15.8692, 4.78555 15.8939, 4.91235 15.918, 5.06608 15.9416, 5.22037 15.9657, 5.3943 15.9809, 5.58843 15.9865, 5.78256 15.9927, 5.97219 15.9955, 6.15678 15.9949 L 6.82276 15.9949, 6.82276 16.7669 Z" stroke="none" fill="#000000" />
			<rect />
		</svg>
	</g>
	<path d="M -209.502 0 L 209.5 0" fill="none" stroke="#000000" stroke-width="2.66666675" stroke-linecap="round" stroke-linejoin="round" transform="matrix(0.5 0 0 0.5 143.214 102.356)" />
	<rect x="-29.7778625" y="-31.2241058" width="59.5557251" height="62.4482117" stroke="none" fill="#E1E1E1" transform="matrix(0.5 0 -0 0.5 100.219 102.337)" />
	<path d="M -29.7779 -31.2241 L 29.7779 -31.2241, 29.7779 31.2241, -29.7779 31.2241 Z" fill="none" stroke="#000000" stroke-width="2.66666675" stroke-linecap="round" stroke-linejoin="round" transform="matrix(0.5 0 -0 0.5 100.219 102.337)" />
	<g transform="matrix(1 0 -0 1 96.0777 91.1294)">
		<svg width="30.0150681" height="45.0428467">
			<defs />
			<path d="M 7.60815 16.7669 L 0.0832232 16.7669, 0.0832232 16.2732 C 0.0832232 16.2379, 0.101738 16.184, 0.138768 16.1116 L 3.16176 12.826 C 3.51971 12.4316, 3.8816 12.0277, 4.24853 11.6147, 4.61546 11.2018, 4.94312 10.7799, 5.23263 10.349, 5.52213 9.91808, 5.75329 9.47372, 5.9261 9.01589, 6.0989 8.55807, 6.18475 8.0778, 6.18475 7.57453, 6.18475 7.15037, 6.12976 6.7537, 6.01867 6.38565, 5.90758 6.01759, 5.74768 5.69442, 5.53784 5.41613, 5.32801 5.13785, 5.06599 4.91343, 4.7518 4.74286, 4.43761 4.5723, 4.07404 4.48702, 3.6611 4.48646, 3.04506 4.48702, 2.50083 4.67105, 2.02954 5.0391, 1.55825 5.40716, 1.24518 5.8128, 1.09089 6.25492, 1.06059 6.26726, 1.10996 6.27343, 1.23901 6.27287 L 1.3961 6.27287 C 1.58125 6.31551, 1.74115 6.38004, 1.87693 6.46644, 2.01271 6.5534, 2.1266 6.67291, 2.21918 6.82552, 2.31175 6.97812, 2.35776 7.16215, 2.35776 7.37704, 2.35776 7.73668, 2.24106 8.01216, 2.00654 8.20348, 1.77201 8.39536, 1.51 8.49074, 1.22049 8.49018, 0.943327 8.49074, 0.684679 8.39536, 0.443984 8.20348, 0.203851 8.01216, 0.0832232 7.73668, 0.0832232 7.37704, 0.0832232 6.87489, 0.18197 6.39911, 0.379463 5.95026, 0.576956 5.50142, 0.844581 5.1126, 1.18346 4.78326, 1.52234 4.45448, 1.92294 4.19415, 2.38525 4.00226, 2.84756 3.81094, 3.33793 3.715, 3.85523 3.71444, 4.49596 3.715, 5.08339 3.80926, 5.61639 3.99778, 6.1494 4.18629, 6.60386 4.45728, 6.97977 4.81019, 7.35568 5.16366, 7.65023 5.57211, 7.86287 6.03554, 8.07552 6.49954, 8.18156 7.01235, 8.18156 7.57453, 8.18156 8.19731, 8.04017 8.77071, 7.75627 9.29418, 7.47294 9.81821, 7.12172 10.2985, 6.7026 10.735, 6.28349 11.172, 5.83801 11.5833, 5.36672 11.9693, 4.89543 12.3553, 4.46846 12.7307, 4.08638 13.0954 L 1.95997 15.0972, 4.74282 15.0972 C 5.13108 15.0978, 5.49352 15.095, 5.82903 15.0888, 6.16511 15.0832, 6.45013 15.0708, 6.68409 15.0529, 6.91861 15.0349, 7.03868 15.0232, 7.04429 15.0164, 7.09366 14.9749, 7.14023 14.8913, 7.18343 14.7656, 7.22663 14.64, 7.26647 14.4918, 7.3035 14.3213, 7.34053 14.1507, 7.37756 13.9773, 7.41459 13.8006, 7.45162 13.6244, 7.48528 13.4309, 7.51614 13.221 L 8.20007 13.221 Z" stroke="none" fill="#000000" />
			<rect />
		</svg>
	</g>
	<rect x="-29.776947" y="-31.2241058" width="59.553894" height="62.4482117" stroke="none" fill="#E1E1E1" transform="matrix(0.5 0 -0 0.5 186.815 102.337)" />
	<path d="M -29.7769 -31.2241 L 29.7769 -31.2241, 29.7769 31.2241, -29.7769 31.2241 Z" fill="none" stroke="#000000" stroke-width="2.66666675" stroke-linecap="round" stroke-linejoin="round" transform="matrix(0.5 0 -0 0.5 186.815 102.337)" />
	<g transform="matrix(1 0 -0 1 182.377 91.1294)">
		<svg width="30.0150681" height="47.9999886">
			<defs />
			<path d="M 8.77761 4.62111 C 8.77761 4.65758, 8.76246 4.70864, 8.7316 4.77372 L 5.95828 8.57097 C 5.60089 9.06807, 5.32204 9.61735, 5.12174 10.2188, 4.92144 10.8203, 4.77837 11.452, 4.69197 12.1129, 4.60557 12.7744, 4.55171 13.4494, 4.52982 14.1372, 4.5085 14.8257, 4.49728 15.5197, 4.49728 16.2193, 4.49728 16.5431, 4.39124 16.7883, 4.1786 16.9554, 3.96652 17.1232, 3.73368 17.2068, 3.48064 17.2068, 3.22817 17.2068, 2.99869 17.1232, 2.79222 16.9554, 2.58575 16.7883, 2.48252 16.5431, 2.48252 16.2193, 2.48252 14.7595, 2.73668 13.3551, 3.245 12.0052, 3.75332 10.6559, 4.43893 9.38844, 5.30184 8.20292 L 7.05796 5.82403, 3.73031 5.82403 C 3.31176 5.82459, 2.92183 5.82795, 2.56107 5.83356, 2.20087 5.83974, 1.89397 5.8504, 1.64149 5.86498, 1.38901 5.88013, 1.25941 5.89023, 1.25268 5.89584, 1.19096 5.95026, 1.1371 6.04003, 1.09109 6.16571, 1.04508 6.29139, 1.00188 6.43839, 0.961485 6.60558, 0.92165 6.77334, 0.886303 6.94671, 0.855445 7.12624, 0.824587 7.30578, 0.793728 7.4971, 0.76287 7.70021 L 0.0789385 7.70021, 0.744355 3.51695, 1.41931 3.51695, 1.41931 3.69649 C 1.41931 3.76269, 1.45634 3.82553, 1.52984 3.885, 1.65944 3.96916, 1.79522 4.02302, 1.93661 4.04659, 2.10324 4.07128, 2.30691 4.09372, 2.54704 4.11448, 2.78717 4.1358, 3.0447 4.14926, 3.31906 4.15487, 3.59342 4.16105, 3.8689 4.16385, 4.14606 4.16329 L 8.77761 4.16329, 8.77761 4.62111 Z" stroke="none" fill="#000000" />
			<rect />
		</svg>
	</g>
	<ellipse cx="486.8284912109375" cy="495.5125732421875" rx="5.25" ry="5.25" stroke="none" fill="#000000" transform="matrix(0.5 0 0 0.5 -100.2 -145.4)" />
	<ellipse cx="486.8284912109375" cy="696.61541748046875" rx="5.25" ry="5.25" stroke="none" fill="#000000" transform="matrix(0.5 0 0 0.5 -100.2 -145.4)" />
	<path d="M 0 -101.321 L 0 101.323" fill="none" stroke="#000000" stroke-width="2.66666675" stroke-linecap="round" stroke-linejoin="round" transform="matrix(0.5 0 0 0.5 143.214 152.997)" />
	<rect x="-29.7781372" y="-31.2252502" width="59.5562744" height="62.4505005" stroke="none" fill="#E1E1E1" transform="matrix(0.5 0 -0 0.5 143.214 150.952)" />
	<path d="M -29.7781 -31.2253 L 29.7781 -31.2253, 29.7781 31.2253, -29.7781 31.2253 Z" fill="none" stroke="#000000" stroke-width="2.66666675" stroke-linecap="round" stroke-linejoin="round" transform="matrix(0.5 0 -0 0.5 143.214 150.952)" />
	<g transform="matrix(1 0 -0 1 139.083 139.744)">
		<svg width="30.0150681" height="47.9999886">
			<defs />
			<path d="M 8.18297 12.7991 C 8.18297 13.386, 8.07244 13.9459, 7.85026 14.4784, 7.62864 15.0114, 7.30827 15.49, 6.8886 15.9141, 6.46332 16.3276, 5.98417 16.6435, 5.45117 16.8612, 4.91816 17.08, 4.35317 17.1888, 3.75508 17.1888, 3.23779 17.1888, 2.75528 17.0918, 2.30867 16.8971, 1.86207 16.703, 1.47382 16.437, 1.14391 16.0987, 0.81401 15.761, 0.555362 15.3688, 0.366846 14.9227, 0.178891 14.4772, 0.0846326 14.0026, 0.0846326 13.4993, 0.0846326 13.1526, 0.200211 12.8911, 0.431367 12.7144, 0.662524 12.5382, 0.901535 12.4496, 1.14784 12.449, 1.40705 12.4496, 1.65055 12.5365, 1.87834 12.7099, 2.10669 12.8838, 2.22059 13.147, 2.22059 13.4993, 2.22059 13.7153, 2.1729 13.8966, 2.07752 14.043, 1.98214 14.19, 1.86487 14.3033, 1.72573 14.3841, 1.58715 14.4649, 1.43174 14.5115, 1.25893 14.5227 L 1.14784 14.5227, 0.963252 14.5227 C 1.1052 15.026, 1.4351 15.4782, 1.9524 15.8788, 2.47026 16.2799, 3.07115 16.4802, 3.75508 16.4797, 4.11248 16.4802, 4.4609 16.3877, 4.79978 16.2019, 5.13866 16.0168, 5.41582 15.7711, 5.63127 15.4653, 5.88431 15.1006, 6.04645 14.6865, 6.11714 14.2225, 6.18784 13.7591, 6.22319 13.2844, 6.22319 12.7991, 6.22319 12.3088, 6.20804 11.838, 6.17718 11.3858, 6.14632 10.9342, 6.02008 10.5078, 5.7979 10.106, 5.638 9.81316, 5.43321 9.56966, 5.18354 9.37497, 4.93387 9.18085, 4.65502 9.08322, 4.34644 9.08266, 3.76126 9.08322, 3.25294 9.2016, 2.82148 9.43781, 2.39003 9.67458, 2.04161 10.014, 1.77679 10.4561, 1.72124 10.5582, 1.63203 10.6093, 1.5086 10.6087 L 1.43454 10.6087 C 1.21909 10.6093, 1.11081 10.5106, 1.11081 10.3125 L 1.11081 4.01068 C 1.11081 3.85583, 1.20058 3.75708, 1.379 3.71444, 1.41042 3.715, 1.43342 3.71837, 1.44857 3.72398, 1.46428 3.73015, 1.47774 3.73296, 1.49009 3.7324, 2.38385 4.13972, 3.30511 4.34339, 4.25387 4.34283, 5.21552 4.34339, 6.13734 4.13972, 7.01821 3.7324, 7.03055 3.73296, 7.04289 3.73015, 7.05524 3.72398, 7.06758 3.71837, 7.08609 3.715, 7.11078 3.71444, 7.31388 3.715, 7.41263 3.80758, 7.40646 3.99273, 7.40646 4.10101, 7.38794 4.17283, 7.35091 4.20817, 6.91329 4.80739, 6.35728 5.27587, 5.68232 5.61363, 5.00793 5.95195, 4.29146 6.12083, 3.5329 6.12027, 2.90452 6.12083, 2.36253 6.04901, 1.90583 5.90482 L 1.90583 9.33401 C 2.12184 9.10735, 2.44725 8.90536, 2.88151 8.72863, 3.31577 8.55246, 3.80446 8.46381, 4.34644 8.46325, 4.87664 8.46381, 5.37767 8.58388, 5.84896 8.82289, 6.32025 9.06246, 6.73487 9.37329, 7.09227 9.75593, 7.462 10.1874, 7.73636 10.6648, 7.91478 11.1883, 8.09376 11.7123, 8.18297 12.2493, 8.18297 12.7991 Z" stroke="none" fill="#000000" />
			<rect />
		</svg>
	</g>
	<rect x="-29.77771" y="-31.2252502" width="59.5554199" height="62.4505005" stroke="none" fill="#E1E1E1" transform="matrix(0.5 0 -0 0.5 247.965 150.952)" />
	<path d="M -29.7777 -31.2253 L 29.7777 -31.2253, 29.7777 31.2253, -29.7777 31.2253 Z" fill="none" stroke="#000000" stroke-width="2.66666675" stroke-linecap="round" stroke-linejoin="round" transform="matrix(0.5 0 -0 0.5 247.965 150.952)" />
	<g transform="matrix(1 0 -0 1 243.668 139.744)">
		<svg width="30.0150681" height="47.9999886">
			<defs />
			<path d="M 8.50823 12.7632 C 8.50823 13.386, 8.41622 13.9442, 8.23107 14.438, 8.04592 14.9317, 7.73173 15.4181, 7.28793 15.8962, 6.8503 16.3456, 6.40201 16.6732, 5.94307 16.8791, 5.48412 17.0856, 4.93092 17.1888, 4.28345 17.1888, 3.62421 17.1888, 3.02051 17.0261, 2.47179 16.6996, 1.92308 16.3742, 1.48545 15.9326, 1.15891 15.3755, 0.6966 14.6158, 0.402605 13.8141, 0.276366 12.9702, 0.150128 12.1264, 0.0867284 11.2854, 0.0867284 10.4472, 0.0867284 9.61005, 0.208478 8.78586, 0.451978 7.97457, 0.695478 7.16384, 1.08485 6.41426, 1.62123 5.72528, 2.0712 5.13953, 2.61991 4.65758, 3.26681 4.28055, 3.91428 3.90352, 4.6257 3.715, 5.40221 3.71444, 6.14842 3.715, 6.76783 3.90689, 7.26044 4.28953, 7.75361 4.67273, 7.99991 5.22313, 7.99991 5.94073, 7.99991 6.27624, 7.89836 6.52479, 7.6947 6.68637, 7.49159 6.84796, 7.25707 6.92875, 6.99225 6.92819, 6.73977 6.92875, 6.5131 6.84796, 6.31281 6.68637, 6.11251 6.52479, 6.01208 6.27624, 6.01208 5.94073, 6.01208 5.58221, 6.14505 5.3129, 6.40987 5.1328, 6.58268 5.02564, 6.7768 4.97178, 6.99225 4.97122, 7.06014 4.97178, 7.06911 4.96897, 7.01974 4.96224, 6.9339 4.83095, 6.74426 4.70135, 6.45139 4.5723, 6.15851 4.44382, 5.80897 4.3793, 5.40221 4.37874, 4.85349 4.3793, 4.36088 4.54257, 3.92325 4.86854, 3.48563 5.19508, 3.11589 5.60297, 2.81348 6.09333, 2.45664 6.71611, 2.24064 7.39443, 2.16658 8.12718, 2.09252 8.86048, 2.04931 9.4451, 2.03697 9.88161, 2.14806 9.62464, 2.41513 9.30933, 2.83704 8.9351, 3.25896 8.56143, 3.79365 8.37404, 4.44055 8.37348, 5.05715 8.37404, 5.58904 8.47728, 6.03564 8.68375, 6.48225 8.89022, 6.91202 9.2117, 7.32496 9.64821, 7.75641 10.1274, 8.06163 10.6093, 8.24004 11.0941, 8.41902 11.5788, 8.50823 12.1354, 8.50823 12.7632 Z M 6.53891 12.7632 C 6.53891 12.1892, 6.52096 11.6731, 6.48393 11.2152, 6.4469 10.7574, 6.32403 10.3551, 6.11419 10.0073, 5.89874 9.65494, 5.65805 9.39461, 5.39323 9.22685, 5.12841 9.05966, 4.80468 8.9755, 4.42204 8.97494, 4.0091 8.9755, 3.65675 9.08041, 3.36388 9.28969, 3.071 9.49953, 2.82302 9.77445, 2.61991 10.1156, 2.41681 10.4567, 2.27149 10.8545, 2.18509 11.3089, 2.12337 11.6209, 2.09252 11.953, 2.09252 12.3054, 2.09252 12.4434, 2.09869 12.5904, 2.11103 12.7453 L 2.11103 12.8171 C 2.13572 13.2665, 2.16994 13.6856, 2.21314 14.0744, 2.25635 14.4638, 2.32423 14.7808, 2.41625 15.0254, 2.58905 15.4569, 2.84321 15.807, 3.17873 16.0763, 3.5148 16.3456, 3.88286 16.4802, 4.28345 16.4797, 4.69639 16.4802, 5.04481 16.4011, 5.32815 16.2423, 5.61204 16.0841, 5.86171 15.8277, 6.07716 15.4742, 6.29934 15.1219, 6.43175 14.7224, 6.47439 14.2764, 6.51759 13.8309, 6.53891 13.3265, 6.53891 12.7632 Z" stroke="none" fill="#000000" />
			<rect />
		</svg>
	</g>
	<rect x="-29.7778778" y="-31.2242584" width="59.5557556" height="62.4485168" stroke="none" fill="#E1E1E1" transform="matrix(0.5 0 -0 0.5 105.219 37.8777)" />
	<path d="M -29.7779 -31.2243 L 29.7779 -31.2243, 29.7779 31.2243, -29.7779 31.2243 Z" fill="none" stroke="#000000" stroke-width="2.66666675" stroke-linecap="round" stroke-linejoin="round" transform="matrix(0.5 0 -0 0.5 105.219 37.8777)" />
	<g transform="matrix(1 0 -0 1 100.922 26.6702)">
		<svg width="30.0150681" height="47.9999886">
			<defs />
			<path d="M 8.50823 13.3826 C 8.50823 13.8977, 8.39434 14.392, 8.16655 14.8644, 7.93876 15.3374, 7.63354 15.7413, 7.2509 16.0757, 6.82 16.4533, 6.34366 16.7327, 5.823 16.9151, 5.30234 17.098, 4.75811 17.1888, 4.19088 17.1888, 3.67975 17.1888, 3.18097 17.117, 2.69397 16.9734, 2.20697 16.8298, 1.76822 16.6239, 1.3766 16.3546, 0.984985 16.0852, 0.672475 15.7548, 0.437952 15.3626, 0.20399 14.971, 0.0867284 14.5204, 0.0867284 14.011, 0.0867284 13.6284, 0.21465 13.3428, 0.470493 13.1543, 0.726336 12.9658, 0.995645 12.8715, 1.27898 12.8709, 1.57522 12.8715, 1.8507 12.9658, 2.10654 13.1543, 2.36239 13.3428, 2.49031 13.6284, 2.49031 14.011, 2.49031 14.2388, 2.44598 14.429, 2.35621 14.5816, 2.26701 14.7342, 2.15311 14.8616, 2.01397 14.9631, 1.87539 15.0652, 1.71661 15.1275, 1.53819 15.1511, 1.44618 15.1758, 1.35977 15.1875, 1.27898 15.187, 1.19931 15.1875, 1.18697 15.1937, 1.24195 15.2049, 1.43327 15.5405, 1.80918 15.8373, 2.37024 16.0942, 2.9313 16.3517, 3.53781 16.4802, 4.19088 16.4797, 4.49946 16.4802, 4.78728 16.4039, 5.05547 16.2513, 5.32366 16.0987, 5.54752 15.8939, 5.72594 15.6358, 5.94812 15.3014, 6.09904 14.9424, 6.17871 14.5592, 6.25894 14.1765, 6.29878 13.7843, 6.29878 13.3826, 6.29878 12.9702, 6.25894 12.5741, 6.17871 12.1937, 6.09904 11.8139, 5.94812 11.4621, 5.72594 11.1384, 5.54079 10.8758, 5.3158 10.6632, 5.05098 10.5016, 4.78616 10.34, 4.49946 10.2592, 4.19088 10.2586 L 2.85051 10.2586 C 2.67209 10.2592, 2.57671 10.1756, 2.56437 10.0073 L 2.56437 9.90854 C 2.56437 9.83728, 2.58625 9.78062, 2.62889 9.73798, 2.68443 9.68468, 2.75513 9.65775, 2.84153 9.65718, 3.02051 9.63362, 3.2051 9.62184, 3.39586 9.62128, 3.58101 9.62184, 3.76335 9.61005, 3.94177 9.58537, 4.27448 9.5618, 4.56398 9.45913, 4.81029 9.27623, 5.05715 9.09388, 5.26362 8.86048, 5.4297 8.57602, 5.59633 8.29213, 5.72257 7.96447, 5.80897 7.59305, 5.89538 7.22219, 5.93858 6.84179, 5.93858 6.45241, 5.93858 6.16571, 5.90772 5.8936, 5.846 5.63607, 5.78429 5.37911, 5.67039 5.15412, 5.50376 4.96224, 5.15871 4.56781, 4.72108 4.37313, 4.19088 4.37874, 3.62421 4.3793, 3.10523 4.4859, 2.63394 4.69798, 2.16265 4.91062, 1.84621 5.13953, 1.68575 5.38415, 1.64311 5.39089, 1.66443 5.39369, 1.75083 5.39313, 1.97301 5.39369, 2.18229 5.45934, 2.37922 5.59062, 2.67546 5.76455, 2.82302 6.05799, 2.82302 6.47037, 2.82302 6.81822, 2.7108 7.08024, 2.48582 7.25641, 2.26083 7.43314, 2.00948 7.52123, 1.73232 7.52067, 1.46132 7.52123, 1.20716 7.43483, 0.969836 7.2609, 0.732508 7.08753, 0.613563 6.82383, 0.613563 6.47037, 0.613563 6.03386, 0.718481 5.64841, 0.927757 5.3129, 1.13759 4.97795, 1.4069 4.69069, 1.7368 4.45111, 2.06671 4.2121, 2.44711 4.0292, 2.87856 3.90352, 3.31002 3.77784, 3.74764 3.715, 4.19088 3.71444, 4.66553 3.715, 5.12504 3.77784, 5.56884 3.90352, 6.01264 4.0292, 6.43175 4.22388, 6.82561 4.48646, 7.14654 4.71425, 7.41585 4.99422, 7.63466 5.32637, 7.85348 5.65851, 7.96288 6.03386, 7.96288 6.45241, 7.96288 6.87208, 7.8877 7.26707, 7.73677 7.63793, 7.58585 8.00935, 7.38555 8.34431, 7.13588 8.64335, 6.88621 8.94296, 6.58885 9.20609, 6.2438 9.43332, 5.89874 9.66111, 5.63953 9.80418, 5.46673 9.86365, 5.61485 9.88217, 5.86789 9.97082, 6.22528 10.129, 6.58268 10.2878, 6.92436 10.4988, 7.2509 10.7613, 7.63354 11.0913, 7.93876 11.4846, 8.16655 11.9424, 8.39434 12.4002, 8.50823 12.8805, 8.50823 13.3826 Z" stroke="none" fill="#000000" />
			<rect />
		</svg>
	</g>
	<rect x="-29.7769775" y="-31.2242584" width="59.5539551" height="62.4485168" stroke="none" fill="#E1E1E1" transform="matrix(0.5 0 -0 0.5 183.482 37.8777)" />
	<path d="M -29.777 -31.2243 L 29.777 -31.2243, 29.777 31.2243, -29.777 31.2243 Z" fill="none" stroke="#000000" stroke-width="2.66666675" stroke-linecap="round" stroke-linejoin="round" transform="matrix(0.5 0 -0 0.5 183.482 37.8777)" />
	<g transform="matrix(1 0 -0 1 178.902 26.6702)">
		<svg width="32.9738617" height="45.0428467">
			<defs />
			<path d="M 7.07527 13.5711 L 7.07527 15.3935 C 7.07527 15.5017, 7.09547 15.6022, 7.13587 15.6947, 7.17626 15.7879, 7.24247 15.849, 7.33448 15.8782, 7.47643 15.9444, 7.70759 15.9809, 8.02795 15.9865, 8.34832 15.9927, 8.67149 15.9955, 8.99802 15.9949 L 8.99802 16.7669 C 8.05544 16.731, 7.13138 16.7131, 6.22471 16.7131, 5.3315 16.7131, 4.39173 16.731, 3.40538 16.7669 L 3.40538 15.9949 C 3.74426 15.9955, 4.07136 15.9927, 4.38555 15.9865, 4.69975 15.9809, 4.93427 15.9444, 5.088 15.8782, 5.18057 15.849, 5.24846 15.7879, 5.29166 15.6947, 5.33487 15.6022, 5.35619 15.5017, 5.35619 15.3935 L 5.35619 13.5711, 0.0867158 13.5711, 0.0867158 12.844, 6.26174 3.66058 C 6.34253 3.55342, 6.44408 3.49956, 6.56695 3.49899 L 6.77062 3.49899 C 6.97372 3.49956, 7.07527 3.60111, 7.07527 3.80421 L 7.07527 12.7812, 9.06311 12.7812, 9.06311 13.5711 Z M 5.4482 6.02152 L 0.900252 12.7812, 5.4482 12.7812 Z" stroke="none" fill="#000000" />
			<rect />
		</svg>
	</g>
	<ellipse cx="277.32632446289062" cy="495.5125732421875" rx="5.25" ry="5.25" stroke="none" fill="#000000" transform="matrix(0.5 0 0 0.5 -100.2 -145.4)" />
	<path d="M -14.8436 0 L 14.8433 0" fill="none" stroke="#000000" stroke-width="1.33333337" stroke-linecap="round" stroke-linejoin="round" marker-end="url(#CustomMarker-01)" transform="matrix(0.5 0 0 0.5 65.9751 37.8777)" />
	<g transform="matrix(1 0 -0 1 18.6301 172.757)">
		<svg width="36.0612984" height="51.0856972">
			<defs />
			<path d="M 4.85574 5.20004 C 4.79907 5.43248, 4.66853 5.62656, 4.46415 5.78228, 4.25976 5.938, 4.0382 6.01586, 3.79889 6.01529, 3.54756 6.01586, 3.35577 5.93056, 3.22352 5.75881, 3.13535 5.66148, 3.08841 5.5424, 3.08154 5.40156, 3.08154 5.31683, 3.09413 5.23095, 3.11932 5.14507, 3.17657 4.91378, 3.30882 4.7197, 3.51607 4.56398, 3.72332 4.40825, 3.9466 4.33039, 4.18591 4.32982, 4.43781 4.33039, 4.6296 4.41284, 4.76128 4.57715, 4.84945 4.69394, 4.89353 4.81874, 4.89353 4.95271, 4.89353 5.03859, 4.88093 5.12103, 4.85574 5.20004 Z M 4.95937 14.0854 C 4.89067 14.4037, 4.78361 14.738, 4.63876 15.089, 4.49449 15.4405, 4.31644 15.7594, 4.10576 16.0462, 3.89507 16.3336, 3.64775 16.5729, 3.36493 16.7647, 3.08211 16.9571, 2.75463 17.0533, 2.38365 17.0533, 2.06934 17.0533, 1.79911 16.9863, 1.5724 16.8518, 1.34569 16.7178, 1.17107 16.5409, 1.04855 16.321, 0.926037 16.1012, 0.864779 15.8567, 0.864779 15.5877, 0.852184 15.5762, 0.845886 15.5516, 0.845886 15.5144, 0.845886 15.2401, 0.905999 14.959, 1.02508 14.6716 L 2.55368 10.6412 C 2.74261 10.1351, 2.8365 9.71943, 2.8365 9.39539, 2.8365 9.12116, 2.72028 8.98375, 2.48727 8.98318, 2.27373 8.98375, 2.08193 9.04501, 1.9119 9.16696, 1.74244 9.28947, 1.58671 9.45894, 1.44473 9.67535, 1.30332 9.89233, 1.17622 10.1488, 1.06287 10.4448, 0.94951 10.7414, 0.855046 11.0568, 0.779475 11.3923, 0.710774 11.5578, 0.594554 11.6431, 0.430816 11.6488 L 0.222995 11.6488 C 0.0718527 11.6494, -0.00371855 11.5732, -0.00371855 11.4198 L -0.00371855 11.3557 C 0.0718527 11.0202, 0.18521 10.6772, 0.336352 10.3257, 0.487495 9.97477, 0.669553 9.65588, 0.883672 9.36848, 1.09779 9.08165, 1.34626 8.84349, 1.62908 8.65399, 1.9119 8.46506, 2.23594 8.37002, 2.60063 8.36945, 2.91551 8.37002, 3.18287 8.43758, 3.40271 8.57155, 3.62313 8.70609, 3.79145 8.88471, 3.90767 9.10742, 4.02389 9.33069, 4.08801 9.58203, 4.1006 9.86256 L 4.1006 9.92668 C 4.1006 10.19, 4.04736 10.4614, 3.9403 10.7419 L 2.4117 14.7907 C 2.23594 15.2859, 2.14777 15.7073, 2.14777 16.0548, 2.13518 16.0674, 2.12888 16.0674, 2.12888 16.0548, 2.12888 16.3182, 2.24853 16.4493, 2.48727 16.4487, 2.70139 16.4493, 2.8949 16.3852, 3.0678 16.2569, 3.24069 16.1287, 3.39813 15.9581, 3.53954 15.7439, 3.68095 15.5304, 3.80519 15.2739, 3.91225 14.9745, 4.01931 14.6756, 4.11663 14.3608, 4.2048 14.0304, 4.24259 13.8724, 4.35251 13.7928, 4.53457 13.7923 L 4.74239 13.7923 C 4.81166 13.7928, 4.88093 13.814, 4.94964 13.8564, 4.9691 13.9056, 4.98456 13.9486, 4.99715 13.9846, 4.99715 14.0218, 4.98456 14.0556, 4.95937 14.0854 Z" stroke="none" fill="#000000" />
			<path d="M 2.37267 3.19713 C 1.72472 3.17661, 1.09441 3.16635, 0.481416 3.16635, -0.131261 3.16635, -0.761571 3.17661, -1.40951 3.19713 L -1.40951 2.75598, -1.04499 2.75598 C -0.928927 2.7563, -0.819601 2.75469, -0.717648 2.75117, -0.615375 2.74796, -0.518552 2.7393, -0.426859 2.72552, -0.335166 2.71205, -0.255976 2.69827, -0.18929 2.68416, -0.132864 2.67422, -0.086376 2.6428, -0.0495062 2.58958, -0.012316 2.53668, 0.00595856 2.47769, 0.00595856 2.41229 L 0.00595856 -3.36887 C -0.169733 -3.28295, -0.386463 -3.21787, -0.643588 -3.17362, -0.900714 -3.12906, -1.18221 -3.10694, -1.4887 -3.10726 L -1.4887 -3.54328 C -1.06615 -3.54296, -0.675969 -3.59329, -0.318494 -3.69429, 0.0389807 -3.79496, 0.348044 -3.98411, 0.608376 -4.26144 L 0.772206 -4.26144 C 0.888265 -4.26112, 0.946294 -4.20469, 0.946294 -4.09216 L 0.946294 2.41229 C 0.946294 2.4809, 0.963928 2.54085, 0.999194 2.59215, 1.03446 2.64344, 1.08576 2.67422, 1.15244 2.68416, 1.20887 2.69827, 1.28133 2.71205, 1.36917 2.72552, 1.45702 2.7393, 1.55641 2.74796, 1.66734 2.75117, 1.77827 2.75469, 1.88663 2.7563, 1.99243 2.75598 L 2.37267 2.75598, 2.37267 3.19713 Z" stroke="none" fill="#000000" transform="matrix(1.12 0 0 1 7.46389 16.3063)" />
			<rect />
		</svg>
	</g>
	<g transform="matrix(1 0 -0 1 57.6792 73.7929)">
		<svg width="36.0612984" height="51.0856972">
			<defs />
			<path d="M 4.85574 5.20004 C 4.79907 5.43248, 4.66853 5.62656, 4.46415 5.78228, 4.25976 5.938, 4.0382 6.01586, 3.79889 6.01529, 3.54756 6.01586, 3.35577 5.93056, 3.22352 5.75881, 3.13535 5.66148, 3.08841 5.5424, 3.08154 5.40156, 3.08154 5.31683, 3.09413 5.23095, 3.11932 5.14507, 3.17657 4.91378, 3.30882 4.7197, 3.51607 4.56398, 3.72332 4.40825, 3.9466 4.33039, 4.18591 4.32982, 4.43781 4.33039, 4.6296 4.41284, 4.76128 4.57715, 4.84945 4.69394, 4.89353 4.81874, 4.89353 4.95271, 4.89353 5.03859, 4.88093 5.12103, 4.85574 5.20004 Z M 4.95937 14.0854 C 4.89067 14.4037, 4.78361 14.738, 4.63876 15.089, 4.49449 15.4405, 4.31644 15.7594, 4.10576 16.0462, 3.89507 16.3336, 3.64775 16.5729, 3.36493 16.7647, 3.08211 16.9571, 2.75463 17.0533, 2.38365 17.0533, 2.06934 17.0533, 1.79911 16.9863, 1.5724 16.8518, 1.34569 16.7178, 1.17107 16.5409, 1.04855 16.321, 0.926037 16.1012, 0.864779 15.8567, 0.864779 15.5877, 0.852184 15.5762, 0.845886 15.5516, 0.845886 15.5144, 0.845886 15.2401, 0.905999 14.959, 1.02508 14.6716 L 2.55368 10.6412 C 2.74261 10.1351, 2.8365 9.71943, 2.8365 9.39539, 2.8365 9.12116, 2.72028 8.98375, 2.48727 8.98318, 2.27373 8.98375, 2.08193 9.04501, 1.9119 9.16696, 1.74244 9.28947, 1.58671 9.45894, 1.44473 9.67535, 1.30332 9.89233, 1.17622 10.1488, 1.06287 10.4448, 0.94951 10.7414, 0.855046 11.0568, 0.779475 11.3923, 0.710774 11.5578, 0.594554 11.6431, 0.430816 11.6488 L 0.222995 11.6488 C 0.0718527 11.6494, -0.00371855 11.5732, -0.00371855 11.4198 L -0.00371855 11.3557 C 0.0718527 11.0202, 0.18521 10.6772, 0.336352 10.3257, 0.487495 9.97477, 0.669553 9.65588, 0.883672 9.36848, 1.09779 9.08165, 1.34626 8.84349, 1.62908 8.65399, 1.9119 8.46506, 2.23594 8.37002, 2.60063 8.36945, 2.91551 8.37002, 3.18287 8.43758, 3.40271 8.57155, 3.62313 8.70609, 3.79145 8.88471, 3.90767 9.10742, 4.02389 9.33069, 4.08801 9.58203, 4.1006 9.86256 L 4.1006 9.92668 C 4.1006 10.19, 4.04736 10.4614, 3.9403 10.7419 L 2.4117 14.7907 C 2.23594 15.2859, 2.14777 15.7073, 2.14777 16.0548, 2.13518 16.0674, 2.12888 16.0674, 2.12888 16.0548, 2.12888 16.3182, 2.24853 16.4493, 2.48727 16.4487, 2.70139 16.4493, 2.8949 16.3852, 3.0678 16.2569, 3.24069 16.1287, 3.39813 15.9581, 3.53954 15.7439, 3.68095 15.5304, 3.80519 15.2739, 3.91225 14.9745, 4.01931 14.6756, 4.11663 14.3608, 4.2048 14.0304, 4.24259 13.8724, 4.35251 13.7928, 4.53457 13.7923 L 4.74239 13.7923 C 4.81166 13.7928, 4.88093 13.814, 4.94964 13.8564, 4.9691 13.9056, 4.98456 13.9486, 4.99715 13.9846, 4.99715 14.0218, 4.98456 14.0556, 4.95937 14.0854 Z" stroke="none" fill="#000000" />
			<path d="M 2.39138 3.19713 L -1.90858 3.19713, -1.90858 2.915 C -1.90858 2.8948, -1.898 2.86402, -1.87684 2.82266 L -0.149418 0.945196 C 0.0551279 0.71981, 0.261918 0.488975, 0.471594 0.253009, 0.68127 0.0170434, 0.868504 -0.224052, 1.03394 -0.470277, 1.19937 -0.716502, 1.33146 -0.970422, 1.4302 -1.23204, 1.52895 -1.49365, 1.578 -1.76809, 1.578 -2.05567, 1.578 -2.29805, 1.54658 -2.52472, 1.4831 -2.73503, 1.41962 -2.94535, 1.32825 -3.13002, 1.20835 -3.28904, 1.08844 -3.44806, 0.938716 -3.5763, 0.759177 -3.67377, 0.579638 -3.77123, 0.371886 -3.81996, 0.13592 -3.82028, -0.216105 -3.81996, -0.527092 -3.7148, -0.7964 -3.50449, -1.06571 -3.29417, -1.24461 -3.06237, -1.33277 -2.80974, -1.35009 -2.80268, -1.32187 -2.79915, -1.24813 -2.79948 L -1.15836 -2.79948 C -1.05256 -2.77511, -0.961191 -2.73824, -0.883605 -2.68887, -0.806018 -2.63917, -0.740935 -2.57088, -0.688036 -2.48368, -0.635136 -2.39647, -0.608846 -2.29132, -0.608846 -2.16852, -0.608846 -1.96302, -0.675532 -1.8056, -0.809545 -1.69627, -0.943558 -1.58663, -1.09328 -1.53212, -1.25871 -1.53244, -1.41709 -1.53212, -1.56489 -1.58663, -1.70243 -1.69627, -1.83965 -1.8056, -1.90858 -1.96302, -1.90858 -2.16852, -1.90858 -2.45547, -1.85215 -2.72734, -1.7393 -2.98382, -1.62645 -3.24031, -1.47352 -3.46249, -1.27987 -3.65068, -1.08623 -3.83856, -0.857315 -3.98732, -0.593136 -4.09697, -0.328958 -4.20629, -0.0487483 -4.26112, 0.24685 -4.26144, 0.612981 -4.26112, 0.948655 -4.20725, 1.25323 -4.09953, 1.55781 -3.99181, 1.8175 -3.83695, 2.0323 -3.63529, 2.24711 -3.43331, 2.41543 -3.19991, 2.53693 -2.93509, 2.65844 -2.66995, 2.71904 -2.37692, 2.71904 -2.05567, 2.71904 -1.6998, 2.63825 -1.37214, 2.47602 -1.07302, 2.31411 -0.77357, 2.11342 -0.499131, 1.87392 -0.2497, 1.63443 5.126e-005, 1.37987 0.235055, 1.11056 0.455632, 0.841252 0.676208, 0.597272 0.890693, 0.378939 1.09909 L -0.836155 2.24301, 0.754048 2.24301 C 0.975907 2.24333, 1.18302 2.24172, 1.37474 2.2382, 1.56678 2.23499, 1.72965 2.22794, 1.86334 2.21768, 1.99736 2.20742, 2.06597 2.20069, 2.06917 2.19684, 2.09738 2.17312, 2.12399 2.12534, 2.14868 2.05353, 2.17337 1.98171, 2.19613 1.89707, 2.21729 1.79961, 2.23845 1.70215, 2.25961 1.60308, 2.28077 1.50209, 2.30193 1.40142, 2.32117 1.29081, 2.3388 1.1709 L 2.72962 1.1709 Z" stroke="none" fill="#000000" transform="matrix(1.12 0 0 1 7.88677 16.3063)" />
			<rect />
		</svg>
	</g>
	<g transform="matrix(1 0 -0 1 60.4984 9.00001)">
		<svg width="39.020092" height="51.0856972">
			<defs />
			<path d="M 4.85574 5.20004 C 4.79907 5.43248, 4.66853 5.62656, 4.46415 5.78228, 4.25976 5.938, 4.0382 6.01586, 3.79889 6.01529, 3.54756 6.01586, 3.35577 5.93056, 3.22352 5.75881, 3.13535 5.66148, 3.08841 5.5424, 3.08154 5.40156, 3.08154 5.31683, 3.09413 5.23095, 3.11932 5.14507, 3.17657 4.91378, 3.30882 4.7197, 3.51607 4.56398, 3.72332 4.40825, 3.9466 4.33039, 4.18591 4.32982, 4.43781 4.33039, 4.6296 4.41284, 4.76128 4.57715, 4.84945 4.69394, 4.89353 4.81874, 4.89353 4.95271, 4.89353 5.03859, 4.88093 5.12103, 4.85574 5.20004 Z M 4.95937 14.0854 C 4.89067 14.4037, 4.78361 14.738, 4.63876 15.089, 4.49449 15.4405, 4.31644 15.7594, 4.10576 16.0462, 3.89507 16.3336, 3.64775 16.5729, 3.36493 16.7647, 3.08211 16.9571, 2.75463 17.0533, 2.38365 17.0533, 2.06934 17.0533, 1.79911 16.9863, 1.5724 16.8518, 1.34569 16.7178, 1.17107 16.5409, 1.04855 16.321, 0.926037 16.1012, 0.864779 15.8567, 0.864779 15.5877, 0.852184 15.5762, 0.845886 15.5516, 0.845886 15.5144, 0.845886 15.2401, 0.905999 14.959, 1.02508 14.6716 L 2.55368 10.6412 C 2.74261 10.1351, 2.8365 9.71943, 2.8365 9.39539, 2.8365 9.12116, 2.72028 8.98375, 2.48727 8.98318, 2.27373 8.98375, 2.08193 9.04501, 1.9119 9.16696, 1.74244 9.28947, 1.58671 9.45894, 1.44473 9.67535, 1.30332 9.89233, 1.17622 10.1488, 1.06287 10.4448, 0.94951 10.7414, 0.855046 11.0568, 0.779475 11.3923, 0.710774 11.5578, 0.594554 11.6431, 0.430816 11.6488 L 0.222995 11.6488 C 0.0718527 11.6494, -0.00371855 11.5732, -0.00371855 11.4198 L -0.00371855 11.3557 C 0.0718527 11.0202, 0.18521 10.6772, 0.336352 10.3257, 0.487495 9.97477, 0.669553 9.65588, 0.883672 9.36848, 1.09779 9.08165, 1.34626 8.84349, 1.62908 8.65399, 1.9119 8.46506, 2.23594 8.37002, 2.60063 8.36945, 2.91551 8.37002, 3.18287 8.43758, 3.40271 8.57155, 3.62313 8.70609, 3.79145 8.88471, 3.90767 9.10742, 4.02389 9.33069, 4.08801 9.58203, 4.1006 9.86256 L 4.1006 9.92668 C 4.1006 10.19, 4.04736 10.4614, 3.9403 10.7419 L 2.4117 14.7907 C 2.23594 15.2859, 2.14777 15.7073, 2.14777 16.0548, 2.13518 16.0674, 2.12888 16.0674, 2.12888 16.0548, 2.12888 16.3182, 2.24853 16.4493, 2.48727 16.4487, 2.70139 16.4493, 2.8949 16.3852, 3.0678 16.2569, 3.24069 16.1287, 3.39813 15.9581, 3.53954 15.7439, 3.68095 15.5304, 3.80519 15.2739, 3.91225 14.9745, 4.01931 14.6756, 4.11663 14.3608, 4.2048 14.0304, 4.24259 13.8724, 4.35251 13.7928, 4.53457 13.7923 L 4.74239 13.7923 C 4.81166 13.7928, 4.88093 13.814, 4.94964 13.8564, 4.9691 13.9056, 4.98456 13.9486, 4.99715 13.9846, 4.99715 14.0218, 4.98456 14.0556, 4.95937 14.0854 Z" stroke="none" fill="#000000" />
			<path d="M 2.81931 1.26324 C 2.81931 1.55755, 2.75423 1.84001, 2.62406 2.10996, 2.4939 2.38023, 2.31949 2.61106, 2.10083 2.80214, 1.85461 3.01791, 1.58242 3.17757, 1.28489 3.28177, 0.987372 3.38629, 0.676384 3.43822, 0.352252 3.43822, 0.0601807 3.43822, -0.224838 3.39719, -0.503123 3.31511, -0.781409 3.23304, -1.03212 3.11537, -1.2559 2.96148, -1.47969 2.80759, -1.65826 2.61876, -1.79228 2.39465, -1.92597 2.17087, -1.99298 1.91342, -1.99298 1.62232, -1.99298 1.40366, -1.91988 1.24047, -1.77368 1.13275, -1.62749 1.02503, -1.4736 0.971165, -1.31169 0.970845, -1.14241 0.971165, -0.984993 1.02503, -0.838797 1.13275, -0.692601 1.24047, -0.619503 1.40366, -0.619503 1.62232, -0.619503 1.75248, -0.644831 1.86117, -0.696128 1.94837, -0.747104 2.03558, -0.812187 2.10835, -0.891697 2.16638, -0.970886 2.22473, -1.06162 2.26032, -1.16357 2.27379, -1.21615 2.28789, -1.26552 2.29462, -1.31169 2.2943, -1.35722 2.29462, -1.36427 2.29815, -1.33285 2.30456, -1.22352 2.49629, -1.00872 2.66589, -0.688112 2.81272, -0.367507 2.95988, -0.0209324 3.0333, 0.352252 3.03298, 0.528585 3.0333, 0.693056 2.9897, 0.846305 2.90249, 0.999555 2.81529, 1.12748 2.69827, 1.22943 2.55079, 1.35639 2.35971, 1.44263 2.15452, 1.48816 1.93555, 1.534 1.71689, 1.55677 1.49279, 1.55677 1.26324, 1.55677 1.02759, 1.534 0.801244, 1.48816 0.583874, 1.44263 0.366824, 1.35639 0.165804, 1.22943 -0.0191851, 1.12363 -0.169228, 0.995066 -0.290738, 0.84374 -0.383072, 0.692415 -0.475407, 0.528585 -0.521574, 0.352252 -0.521894 L -0.413674 -0.521894 C -0.515627 -0.521574, -0.57013 -0.569344, -0.577183 -0.665526 L -0.577183 -0.721952 C -0.577183 -0.762669, -0.564679 -0.79505, -0.540313 -0.819416, -0.508573 -0.849874, -0.468177 -0.865263, -0.418804 -0.865584, -0.316531 -0.879049, -0.211051 -0.885782, -0.102046 -0.886102, 0.00375414 -0.885782, 0.107951 -0.892514, 0.209903 -0.906621, 0.400023 -0.920087, 0.565455 -0.978757, 0.706201 -1.08327, 0.847267 -1.18747, 0.96525 -1.32084, 1.06015 -1.48339, 1.15537 -1.64562, 1.22751 -1.83285, 1.27688 -2.04509, 1.32625 -2.25701, 1.35094 -2.47438, 1.35094 -2.69688, 1.35094 -2.86071, 1.33331 -3.01621, 1.29804 -3.16336, 1.26277 -3.3102, 1.19769 -3.43876, 1.10247 -3.54841, 0.905297 -3.7738, 0.655225 -3.88505, 0.352252 -3.88184, 0.0284407 -3.88152, -0.268119 -3.8206, -0.537428 -3.69942, -0.806736 -3.57791, -0.987558 -3.4471, -1.07925 -3.30731, -1.10362 -3.30347, -1.09143 -3.30186, -1.04206 -3.30219, -0.915101 -3.30186, -0.795515 -3.26435, -0.682983 -3.18933, -0.513703 -3.08994, -0.429384 -2.92227, -0.429384 -2.68662, -0.429384 -2.48785, -0.493505 -2.33812, -0.622068 -2.23745, -0.75063 -2.13646, -0.894262 -2.08613, -1.05264 -2.08645, -1.20749 -2.08613, -1.35273 -2.1355, -1.48834 -2.23489, -1.62396 -2.33396, -1.69193 -2.48464, -1.69193 -2.68662, -1.69193 -2.93605, -1.63197 -3.15631, -1.51239 -3.34803, -1.39248 -3.53943, -1.23859 -3.70358, -1.05008 -3.84048, -0.86156 -3.97706, -0.644189 -4.08158, -0.397644 -4.15339, -0.151098 -4.22521, 0.098974 -4.26112, 0.352252 -4.26144, 0.623485 -4.26112, 0.88606 -4.22521, 1.13966 -4.15339, 1.39326 -4.08158, 1.63275 -3.97033, 1.85782 -3.82028, 2.0412 -3.69012, 2.19509 -3.53014, 2.32013 -3.34034, 2.44516 -3.15054, 2.50768 -2.93605, 2.50768 -2.69688, 2.50768 -2.45707, 2.46472 -2.23136, 2.37848 -2.01944, 2.29224 -1.8072, 2.17778 -1.6158, 2.03511 -1.44492, 1.89244 -1.27371, 1.72252 -1.12335, 1.52535 -0.993505, 1.32818 -0.863339, 1.18006 -0.781585, 1.08131 -0.747601, 1.16595 -0.737021, 1.31054 -0.686365, 1.51477 -0.595954, 1.71899 -0.505223, 1.91424 -0.384675, 2.10083 -0.234632, 2.31949 -0.0461159, 2.4939 0.178629, 2.62406 0.440243, 2.75423 0.701857, 2.81931 0.976295, 2.81931 1.26324 Z" stroke="none" fill="#000000" transform="matrix(1.12 0 0 1 7.97108 16.3063)" />
			<rect />
		</svg>
	</g>
	<g transform="matrix(1 0 -0 1 221.067 73.7929)">
		<svg width="39.020092" height="51.0856972">
			<defs />
			<path d="M 4.85574 5.20004 C 4.79907 5.43248, 4.66853 5.62656, 4.46415 5.78228, 4.25976 5.938, 4.0382 6.01586, 3.79889 6.01529, 3.54756 6.01586, 3.35577 5.93056, 3.22352 5.75881, 3.13535 5.66148, 3.08841 5.5424, 3.08154 5.40156, 3.08154 5.31683, 3.09413 5.23095, 3.11932 5.14507, 3.17657 4.91378, 3.30882 4.7197, 3.51607 4.56398, 3.72332 4.40825, 3.9466 4.33039, 4.18591 4.32982, 4.43781 4.33039, 4.6296 4.41284, 4.76128 4.57715, 4.84945 4.69394, 4.89353 4.81874, 4.89353 4.95271, 4.89353 5.03859, 4.88093 5.12103, 4.85574 5.20004 Z M 4.95937 14.0854 C 4.89067 14.4037, 4.78361 14.738, 4.63876 15.089, 4.49449 15.4405, 4.31644 15.7594, 4.10576 16.0462, 3.89507 16.3336, 3.64775 16.5729, 3.36493 16.7647, 3.08211 16.9571, 2.75463 17.0533, 2.38365 17.0533, 2.06934 17.0533, 1.79911 16.9863, 1.5724 16.8518, 1.34569 16.7178, 1.17107 16.5409, 1.04855 16.321, 0.926037 16.1012, 0.864779 15.8567, 0.864779 15.5877, 0.852184 15.5762, 0.845886 15.5516, 0.845886 15.5144, 0.845886 15.2401, 0.905999 14.959, 1.02508 14.6716 L 2.55368 10.6412 C 2.74261 10.1351, 2.8365 9.71943, 2.8365 9.39539, 2.8365 9.12116, 2.72028 8.98375, 2.48727 8.98318, 2.27373 8.98375, 2.08193 9.04501, 1.9119 9.16696, 1.74244 9.28947, 1.58671 9.45894, 1.44473 9.67535, 1.30332 9.89233, 1.17622 10.1488, 1.06287 10.4448, 0.94951 10.7414, 0.855046 11.0568, 0.779475 11.3923, 0.710774 11.5578, 0.594554 11.6431, 0.430816 11.6488 L 0.222995 11.6488 C 0.0718527 11.6494, -0.00371855 11.5732, -0.00371855 11.4198 L -0.00371855 11.3557 C 0.0718527 11.0202, 0.18521 10.6772, 0.336352 10.3257, 0.487495 9.97477, 0.669553 9.65588, 0.883672 9.36848, 1.09779 9.08165, 1.34626 8.84349, 1.62908 8.65399, 1.9119 8.46506, 2.23594 8.37002, 2.60063 8.36945, 2.91551 8.37002, 3.18287 8.43758, 3.40271 8.57155, 3.62313 8.70609, 3.79145 8.88471, 3.90767 9.10742, 4.02389 9.33069, 4.08801 9.58203, 4.1006 9.86256 L 4.1006 9.92668 C 4.1006 10.19, 4.04736 10.4614, 3.9403 10.7419 L 2.4117 14.7907 C 2.23594 15.2859, 2.14777 15.7073, 2.14777 16.0548, 2.13518 16.0674, 2.12888 16.0674, 2.12888 16.0548, 2.12888 16.3182, 2.24853 16.4493, 2.48727 16.4487, 2.70139 16.4493, 2.8949 16.3852, 3.0678 16.2569, 3.24069 16.1287, 3.39813 15.9581, 3.53954 15.7439, 3.68095 15.5304, 3.80519 15.2739, 3.91225 14.9745, 4.01931 14.6756, 4.11663 14.3608, 4.2048 14.0304, 4.24259 13.8724, 4.35251 13.7928, 4.53457 13.7923 L 4.74239 13.7923 C 4.81166 13.7928, 4.88093 13.814, 4.94964 13.8564, 4.9691 13.9056, 4.98456 13.9486, 4.99715 13.9846, 4.99715 14.0218, 4.98456 14.0556, 4.95937 14.0854 Z" stroke="none" fill="#000000" />
			<path d="M 3.13161 -3.74334 C 3.13161 -3.7225, 3.12295 -3.69332, 3.10532 -3.65613 L 1.52056 -1.48628 C 1.31634 -1.20222, 1.157 -0.888346, 1.04254 -0.544657, 0.928084 -0.200968, 0.84633 0.160033, 0.796957 0.537707, 0.747583 0.9157, 0.716805 1.30139, 0.704302 1.69445, 0.692119 2.08783, 0.685706 2.48442, 0.685706 2.88422, 0.685706 3.06921, 0.625112 3.20931, 0.503603 3.30485, 0.382414 3.40071, 0.249362 3.44848, 0.104769 3.44848, -0.0395031 3.44848, -0.170631 3.40071, -0.288614 3.30485, -0.406596 3.20931, -0.465588 3.06921, -0.465588 2.88422, -0.465588 2.05, -0.320354 1.24753, -0.0298851 0.476151, 0.260584 -0.294906, 0.652364 -1.01915, 1.14545 -1.69659 L 2.14895 -3.05596, 0.247439 -3.05596 C 0.00826716 -3.05564, -0.214554 -3.05372, -0.420703 -3.05051, -0.626532 -3.04698, -0.801903 -3.04089, -0.946175 -3.03256, -1.09045 -3.0239, -1.16451 -3.01813, -1.16835 -3.01492, -1.20362 -2.98382, -1.2344 -2.93253, -1.26069 -2.86071, -1.28698 -2.7889, -1.31167 -2.7049, -1.33475 -2.60936, -1.35751 -2.5135, -1.37771 -2.41443, -1.39534 -2.31184, -1.41298 -2.20924, -1.43061 -2.09991, -1.44824 -1.98386 L -1.83906 -1.98386, -1.45882 -4.37429, -1.07314 -4.37429, -1.07314 -4.2717 C -1.07314 -4.23386, -1.05198 -4.19796, -1.00998 -4.16397, -0.935916 -4.11588, -0.858329 -4.0851, -0.777537 -4.07164, -0.682317 -4.05753, -0.565937 -4.04471, -0.428718 -4.03285, -0.291499 -4.02066, -0.144341 -4.01297, 0.012435 -4.00976, 0.169211 -4.00624, 0.326628 -4.00463, 0.485008 -4.00495 L 3.13161 -4.00495, 3.13161 -3.74334 Z" stroke="none" fill="#000000" transform="matrix(1.12 0 0 1 7.81784 16.3063)" />
			<rect />
		</svg>
	</g>
	<g transform="matrix(1 0 -0 1 122.952 172.757)">
		<svg width="36.0612984" height="51.0856972">
			<defs />
			<path d="M 4.85574 5.20004 C 4.79907 5.43248, 4.66853 5.62656, 4.46415 5.78228, 4.25976 5.938, 4.0382 6.01586, 3.79889 6.01529, 3.54756 6.01586, 3.35577 5.93056, 3.22352 5.75881, 3.13535 5.66148, 3.08841 5.5424, 3.08154 5.40156, 3.08154 5.31683, 3.09413 5.23095, 3.11932 5.14507, 3.17657 4.91378, 3.30882 4.7197, 3.51607 4.56398, 3.72332 4.40825, 3.9466 4.33039, 4.18591 4.32982, 4.43781 4.33039, 4.6296 4.41284, 4.76128 4.57715, 4.84945 4.69394, 4.89353 4.81874, 4.89353 4.95271, 4.89353 5.03859, 4.88093 5.12103, 4.85574 5.20004 Z M 4.95937 14.0854 C 4.89067 14.4037, 4.78361 14.738, 4.63876 15.089, 4.49449 15.4405, 4.31644 15.7594, 4.10576 16.0462, 3.89507 16.3336, 3.64775 16.5729, 3.36493 16.7647, 3.08211 16.9571, 2.75463 17.0533, 2.38365 17.0533, 2.06934 17.0533, 1.79911 16.9863, 1.5724 16.8518, 1.34569 16.7178, 1.17107 16.5409, 1.04855 16.321, 0.926037 16.1012, 0.864779 15.8567, 0.864779 15.5877, 0.852184 15.5762, 0.845886 15.5516, 0.845886 15.5144, 0.845886 15.2401, 0.905999 14.959, 1.02508 14.6716 L 2.55368 10.6412 C 2.74261 10.1351, 2.8365 9.71943, 2.8365 9.39539, 2.8365 9.12116, 2.72028 8.98375, 2.48727 8.98318, 2.27373 8.98375, 2.08193 9.04501, 1.9119 9.16696, 1.74244 9.28947, 1.58671 9.45894, 1.44473 9.67535, 1.30332 9.89233, 1.17622 10.1488, 1.06287 10.4448, 0.94951 10.7414, 0.855046 11.0568, 0.779475 11.3923, 0.710774 11.5578, 0.594554 11.6431, 0.430816 11.6488 L 0.222995 11.6488 C 0.0718527 11.6494, -0.00371855 11.5732, -0.00371855 11.4198 L -0.00371855 11.3557 C 0.0718527 11.0202, 0.18521 10.6772, 0.336352 10.3257, 0.487495 9.97477, 0.669553 9.65588, 0.883672 9.36848, 1.09779 9.08165, 1.34626 8.84349, 1.62908 8.65399, 1.9119 8.46506, 2.23594 8.37002, 2.60063 8.36945, 2.91551 8.37002, 3.18287 8.43758, 3.40271 8.57155, 3.62313 8.70609, 3.79145 8.88471, 3.90767 9.10742, 4.02389 9.33069, 4.08801 9.58203, 4.1006 9.86256 L 4.1006 9.92668 C 4.1006 10.19, 4.04736 10.4614, 3.9403 10.7419 L 2.4117 14.7907 C 2.23594 15.2859, 2.14777 15.7073, 2.14777 16.0548, 2.13518 16.0674, 2.12888 16.0674, 2.12888 16.0548, 2.12888 16.3182, 2.24853 16.4493, 2.48727 16.4487, 2.70139 16.4493, 2.8949 16.3852, 3.0678 16.2569, 3.24069 16.1287, 3.39813 15.9581, 3.53954 15.7439, 3.68095 15.5304, 3.80519 15.2739, 3.91225 14.9745, 4.01931 14.6756, 4.11663 14.3608, 4.2048 14.0304, 4.24259 13.8724, 4.35251 13.7928, 4.53457 13.7923 L 4.74239 13.7923 C 4.81166 13.7928, 4.88093 13.814, 4.94964 13.8564, 4.9691 13.9056, 4.98456 13.9486, 4.99715 13.9846, 4.99715 14.0218, 4.98456 14.0556, 4.95937 14.0854 Z" stroke="none" fill="#000000" />
			<path d="M 2.71629 0.929807 C 2.71629 1.26516, 2.65313 1.58512, 2.52617 1.88938, 2.39954 2.19395, 2.21647 2.46743, 1.97666 2.70981, 1.73364 2.94609, 1.45984 3.1266, 1.15527 3.25099, 0.850691 3.37603, 0.527841 3.43822, 0.186076 3.43822, -0.109523 3.43822, -0.385243 3.38276, -0.640445 3.27151, -0.895647 3.16058, -1.11751 3.00861, -1.30602 2.81529, -1.49454 2.62228, -1.64234 2.39818, -1.75006 2.1433, -1.85746 1.88874, -1.91133 1.61751, -1.91133 1.32992, -1.91133 1.13179, -1.84528 0.982387, -1.71319 0.881396, -1.5811 0.780726, -1.44452 0.73007, -1.30378 0.729749, -1.15566 0.73007, -1.01652 0.779764, -0.88635 0.878831, -0.755863 0.978219, -0.69078 1.12858, -0.69078 1.32992, -0.69078 1.45336, -0.718032 1.55691, -0.772535 1.64059, -0.827038 1.72459, -0.894044 1.78935, -0.973554 1.83552, -1.05274 1.88168, -1.14155 1.9083, -1.2403 1.91471 L -1.30378 1.91471, -1.40926 1.91471 C -1.32814 2.20229, -1.13963 2.4607, -0.84403 2.68961, -0.548111 2.91884, -0.204742 3.0333, 0.186076 3.03298, 0.390301 3.0333, 0.589397 2.9804, 0.783043 2.87428, 0.976689 2.76848, 1.13507 2.62805, 1.25818 2.45332, 1.40277 2.24493, 1.49543 2.00832, 1.53582 1.74318, 1.57622 1.47836, 1.59642 1.20713, 1.59642 0.929807, 1.59642 0.649598, 1.58776 0.38061, 1.57013 0.122202, 1.5525 -0.135885, 1.48036 -0.379545, 1.3534 -0.609099, 1.26203 -0.776455, 1.14501 -0.915598, 1.00234 -1.02685, 0.859668 -1.13778, 0.700327 -1.19356, 0.523994 -1.19388, 0.189602 -1.19356, -0.100866 -1.12592, -0.347412 -0.99094, -0.593957 -0.855645, -0.793053 -0.661678, -0.944379 -0.409041, -0.976119 -0.350691, -1.0271 -0.321516, -1.09763 -0.321836 L -1.13995 -0.321836 C -1.26306 -0.321516, -1.32494 -0.377943, -1.32494 -0.491116 L -1.32494 -4.09216 C -1.32494 -4.18064, -1.27364 -4.23707, -1.17169 -4.26144, -1.15373 -4.26112, -1.14059 -4.25919, -1.13193 -4.25599, -1.12296 -4.25246, -1.11526 -4.25086, -1.10821 -4.25118, -0.597484 -4.01842, -0.0710499 -3.90204, 0.471094 -3.90236, 1.02061 -3.90204, 1.54737 -4.01842, 2.05072 -4.25118, 2.05777 -4.25086, 2.06482 -4.25246, 2.07188 -4.25599, 2.07893 -4.25919, 2.08951 -4.26112, 2.10362 -4.26144, 2.21968 -4.26112, 2.2761 -4.20822, 2.27258 -4.10242, 2.27258 -4.04054, 2.262 -3.9995, 2.24084 -3.9793, 1.99076 -3.6369, 1.67304 -3.36919, 1.28736 -3.17619, 0.901988 -2.98286, 0.492574 -2.88636, 0.0591159 -2.88668, -0.299962 -2.88636, -0.609667 -2.9274, -0.87064 -3.00979 L -0.87064 -1.05025 C -0.747207 -1.17978, -0.561256 -1.29519, -0.313107 -1.39619, -0.0649586 -1.49686, 0.214289 -1.54751, 0.523994 -1.54783, 0.826966 -1.54751, 1.11327 -1.4789, 1.38258 -1.34232, 1.65188 -1.20543, 1.88881 -1.02781, 2.09304 -0.809157, 2.30432 -0.562611, 2.46109 -0.289776, 2.56304 0.00934887, 2.66532 0.308794, 2.71629 0.615614, 2.71629 0.929807 Z" stroke="none" fill="#000000" transform="matrix(1.12 0 0 1 7.88677 16.3063)" />
			<rect />
		</svg>
	</g>
	<g transform="matrix(1 0 -0 1 226.654 172.757)">
		<svg width="39.020092" height="51.0856972">
			<defs />
			<path d="M 4.85574 5.20004 C 4.79907 5.43248, 4.66853 5.62656, 4.46415 5.78228, 4.25976 5.938, 4.0382 6.01586, 3.79889 6.01529, 3.54756 6.01586, 3.35577 5.93056, 3.22352 5.75881, 3.13535 5.66148, 3.08841 5.5424, 3.08154 5.40156, 3.08154 5.31683, 3.09413 5.23095, 3.11932 5.14507, 3.17657 4.91378, 3.30882 4.7197, 3.51607 4.56398, 3.72332 4.40825, 3.9466 4.33039, 4.18591 4.32982, 4.43781 4.33039, 4.6296 4.41284, 4.76128 4.57715, 4.84945 4.69394, 4.89353 4.81874, 4.89353 4.95271, 4.89353 5.03859, 4.88093 5.12103, 4.85574 5.20004 Z M 4.95937 14.0854 C 4.89067 14.4037, 4.78361 14.738, 4.63876 15.089, 4.49449 15.4405, 4.31644 15.7594, 4.10576 16.0462, 3.89507 16.3336, 3.64775 16.5729, 3.36493 16.7647, 3.08211 16.9571, 2.75463 17.0533, 2.38365 17.0533, 2.06934 17.0533, 1.79911 16.9863, 1.5724 16.8518, 1.34569 16.7178, 1.17107 16.5409, 1.04855 16.321, 0.926037 16.1012, 0.864779 15.8567, 0.864779 15.5877, 0.852184 15.5762, 0.845886 15.5516, 0.845886 15.5144, 0.845886 15.2401, 0.905999 14.959, 1.02508 14.6716 L 2.55368 10.6412 C 2.74261 10.1351, 2.8365 9.71943, 2.8365 9.39539, 2.8365 9.12116, 2.72028 8.98375, 2.48727 8.98318, 2.27373 8.98375, 2.08193 9.04501, 1.9119 9.16696, 1.74244 9.28947, 1.58671 9.45894, 1.44473 9.67535, 1.30332 9.89233, 1.17622 10.1488, 1.06287 10.4448, 0.94951 10.7414, 0.855046 11.0568, 0.779475 11.3923, 0.710774 11.5578, 0.594554 11.6431, 0.430816 11.6488 L 0.222995 11.6488 C 0.0718527 11.6494, -0.00371855 11.5732, -0.00371855 11.4198 L -0.00371855 11.3557 C 0.0718527 11.0202, 0.18521 10.6772, 0.336352 10.3257, 0.487495 9.97477, 0.669553 9.65588, 0.883672 9.36848, 1.09779 9.08165, 1.34626 8.84349, 1.62908 8.65399, 1.9119 8.46506, 2.23594 8.37002, 2.60063 8.36945, 2.91551 8.37002, 3.18287 8.43758, 3.40271 8.57155, 3.62313 8.70609, 3.79145 8.88471, 3.90767 9.10742, 4.02389 9.33069, 4.08801 9.58203, 4.1006 9.86256 L 4.1006 9.92668 C 4.1006 10.19, 4.04736 10.4614, 3.9403 10.7419 L 2.4117 14.7907 C 2.23594 15.2859, 2.14777 15.7073, 2.14777 16.0548, 2.13518 16.0674, 2.12888 16.0674, 2.12888 16.0548, 2.12888 16.3182, 2.24853 16.4493, 2.48727 16.4487, 2.70139 16.4493, 2.8949 16.3852, 3.0678 16.2569, 3.24069 16.1287, 3.39813 15.9581, 3.53954 15.7439, 3.68095 15.5304, 3.80519 15.2739, 3.91225 14.9745, 4.01931 14.6756, 4.11663 14.3608, 4.2048 14.0304, 4.24259 13.8724, 4.35251 13.7928, 4.53457 13.7923 L 4.74239 13.7923 C 4.81166 13.7928, 4.88093 13.814, 4.94964 13.8564, 4.9691 13.9056, 4.98456 13.9486, 4.99715 13.9846, 4.99715 14.0218, 4.98456 14.0556, 4.95937 14.0854 Z" stroke="none" fill="#000000" />
			<path d="M 2.81931 0.909288 C 2.81931 1.26516, 2.76673 1.58416, 2.66093 1.8663, 2.55513 2.14843, 2.37559 2.42639, 2.12199 2.69955, 1.87192 2.95635, 1.61576 3.14359, 1.3535 3.26125, 1.09125 3.37923, 0.775131 3.43822, 0.405152 3.43822, 0.0284407 3.43822, -0.316531 3.34525, -0.630083 3.15866, -0.943635 2.97271, -1.19371 2.72039, -1.3803 2.40203, -1.64448 1.96793, -1.81248 1.50978, -1.88461 1.02759, -1.95675 0.545401, -1.99298 0.0648136, -1.99298 -0.414171, -1.99298 -0.892514, -1.92341 -1.36348, -1.78426 -1.82708, -1.64512 -2.29035, -1.42262 -2.71868, -1.11612 -3.11239, -0.858995 -3.4471, -0.545443 -3.7225, -0.175785 -3.93795, 0.194194 -4.15339, 0.600722 -4.26112, 1.04444 -4.26144, 1.47084 -4.26112, 1.82479 -4.15147, 2.10628 -3.93282, 2.3881 -3.71384, 2.52884 -3.39933, 2.52884 -2.98927, 2.52884 -2.79755, 2.47081 -2.65552, 2.35443 -2.56319, 2.23837 -2.47085, 2.10436 -2.42469, 1.95304 -2.42501, 1.80876 -2.42469, 1.67924 -2.47085, 1.56478 -2.56319, 1.45033 -2.65552, 1.39294 -2.79755, 1.39294 -2.98927, 1.39294 -3.19414, 1.46892 -3.34803, 1.62025 -3.45095, 1.71899 -3.51218, 1.82992 -3.54296, 1.95304 -3.54328, 1.99183 -3.54296, 1.99696 -3.54456, 1.96874 -3.54841, 1.91969 -3.62343, 1.81133 -3.69749, 1.64397 -3.77123, 1.47662 -3.84465, 1.27688 -3.88152, 1.04444 -3.88184, 0.730887 -3.88152, 0.449396 -3.78822, 0.199323 -3.60195, -0.0507488 -3.41536, -0.262028 -3.18228, -0.434834 -2.90207, -0.638739 -2.5462, -0.762172 -2.15859, -0.804492 -1.73987, -0.846812 -1.32084, -0.871499 -0.986772, -0.878552 -0.737341, -0.815072 -0.884179, -0.662464 -1.06436, -0.421369 -1.2782, -0.180273 -1.49173, 0.125264 -1.59881, 0.494922 -1.59913, 0.847267 -1.59881, 1.1512 -1.53982, 1.4064 -1.42183, 1.66161 -1.30385, 1.90719 -1.12014, 2.14315 -0.870713, 2.3897 -0.596916, 2.56411 -0.321516, 2.66606 -0.0445127, 2.76834 0.23249, 2.81931 0.550531, 2.81931 0.909288 Z M 1.69399 0.909288 C 1.69399 0.581309, 1.68373 0.286352, 1.66257 0.0247378, 1.64141 -0.236876, 1.57119 -0.46675, 1.45129 -0.665526, 1.32818 -0.866866, 1.19064 -1.01563, 1.03931 -1.11149, 0.887984 -1.20703, 0.702995 -1.25512, 0.484342 -1.25544, 0.248376 -1.25512, 0.0470359 -1.19517, -0.12032 -1.07558, -0.287676 -0.955673, -0.429384 -0.798577, -0.545443 -0.603649, -0.661502 -0.408721, -0.744539 -0.181411, -0.793912 0.078279, -0.829179 0.256536, -0.846812 0.446334, -0.846812 0.647674, -0.846812 0.726543, -0.843285 0.810542, -0.836232 0.899029 L -0.836232 0.940067 C -0.822125 1.19687, -0.802569 1.43636, -0.777882 1.65854, -0.753195 1.88104, -0.714402 2.06219, -0.661823 2.20197, -0.563076 2.44852, -0.417842 2.64857, -0.22612 2.80246, -0.0340772 2.95635, 0.17624 3.0333, 0.405152 3.03298, 0.641118 3.0333, 0.840214 2.98809, 1.00212 2.89736, 1.16435 2.80695, 1.30702 2.66044, 1.43013 2.45845, 1.55709 2.25711, 1.63275 2.02884, 1.65712 1.77396, 1.6818 1.5194, 1.69399 1.23118, 1.69399 0.909288 Z" stroke="none" fill="#000000" transform="matrix(1.12 0 0 1 7.97108 16.3063)" />
			<rect />
		</svg>
	</g>
	<path d="M -14.8436 0 L 14.8433 0" fill="none" stroke="#000000" stroke-width="1.33333337" stroke-linecap="round" stroke-linejoin="round" marker-end="url(#CustomMarker-02)" transform="matrix(0.5 0 0 0.5 62.3033 102.356)" />
	<path d="M 0 -14.8438 L 0 14.8433" fill="none" stroke="#000000" stroke-width="1.33333337" stroke-linecap="round" stroke-linejoin="round" marker-end="url(#CustomMarker-03)" transform="matrix(0.5 0 0 0.5 247.965 184.023)" />
	<path d="M 0 -14.8438 L 0 14.8433" fill="none" stroke="#000000" stroke-width="1.33333337" stroke-linecap="round" stroke-linejoin="round" marker-end="url(#CustomMarker-04)" transform="matrix(0.5 0 0 0.5 38.4632 184.023)" />
	<path d="M -14.8438 0 L 14.8432 0" fill="none" stroke="#000000" stroke-width="1.33333337" stroke-linecap="round" stroke-linejoin="round" marker-end="url(#CustomMarker-05)" transform="matrix(0.5 0 0 0.5 226.632 102.356)" />
	<path d="M 0 -14.8438 L 0 14.8433" fill="none" stroke="#000000" stroke-width="1.33333337" stroke-linecap="round" stroke-linejoin="round" marker-end="url(#CustomMarker-06)" transform="matrix(0.5 0 0 0.5 143.214 184.023)" />
	<g transform="matrix(1 0 -0 1 9 90.5861)">
		<svg width="75.0401764" height="59.9571304">
			<defs />
			<path d="M 13.1074 17.3297 C 11.9735 17.2938, 10.8699 17.2759, 9.79711 17.2759, 8.72492 17.2759, 7.62132 17.2938, 6.48686 17.3297 L 6.48686 16.5577, 7.12534 16.5577 C 7.32845 16.5583, 7.51977 16.5555, 7.69818 16.5493, 7.87716 16.5437, 8.0466 16.5285, 8.20706 16.5044, 8.36753 16.4808, 8.50611 16.4567, 8.62281 16.432, 8.72156 16.4146, 8.80347 16.3597, 8.86799 16.2665, 8.93307 16.1739, 8.96506 16.0707, 8.96506 15.9563 L 8.96506 5.83923 C 8.65703 5.98959, 8.27776 6.10349, 7.82779 6.18092, 7.37782 6.2589, 6.88465 6.29762, 6.34827 6.29706 L 6.34827 5.53401 C 7.08831 5.53458, 7.77112 5.44649, 8.3967 5.26976, 9.02228 5.09358, 9.56315 4.76256, 10.0193 4.27724 L 10.306 4.27724 C 10.5091 4.2778, 10.6106 4.37655, 10.6106 4.57348 L 10.6106 15.9563 C 10.6106 16.0763, 10.6415 16.1812, 10.7032 16.271, 10.7649 16.3608, 10.8547 16.4146, 10.9714 16.432, 11.0702 16.4567, 11.197 16.4808, 11.3507 16.5044, 11.505 16.5285, 11.6789 16.5437, 11.873 16.5493, 12.0672 16.5555, 12.2568 16.5583, 12.4414 16.5577 L 13.1074 16.5577, 13.1074 17.3297 Z" stroke="none" fill="#000000" />
			<path d="M 1.5467 8.95625 C -4.56906 4.92594, -4.56906 -4.92594, 1.5467 -8.95625 L 2.50721 -8.95625 C -3.00823 -4.92594, -3.00823 4.92594, 2.50721 8.95625" stroke="none" fill="#000000" transform="matrix(1 0 -0 1 2.814 11.7703)" />
			<path d="M 1.5467 8.95625 C -4.56906 4.92594, -4.56906 -4.92594, 1.5467 -8.95625 L 2.50721 -8.95625 C -3.00823 -4.92594, -3.00823 4.92594, 2.50721 8.95625" stroke="none" fill="#000000" transform="matrix(-1 1.50996e-007 -1.50996e-007 -1 16.6522 11.7703)" />
			<rect />
		</svg>
	</g>
	<g transform="matrix(1 0 -0 1 132.788 72.5168)">
		<svg width="77.99897" height="59.9571304">
			<defs />
			<path d="M 13.8928 17.3297 L 6.36782 17.3297, 6.36782 16.836 C 6.36782 16.8007, 6.38634 16.7468, 6.42337 16.6744 L 9.44636 13.3888 C 9.80431 12.9944, 10.1662 12.5905, 10.5331 12.1775, 10.9001 11.7646, 11.2277 11.3427, 11.5172 10.9118, 11.8067 10.4809, 12.0379 10.0365, 12.2107 9.57869, 12.3835 9.12087, 12.4693 8.6406, 12.4693 8.13733, 12.4693 7.71317, 12.4144 7.3165, 12.3033 6.94845, 12.1922 6.58039, 12.0323 6.25722, 11.8224 5.97893, 11.6126 5.70065, 11.3506 5.47622, 11.0364 5.30566, 10.7222 5.1351, 10.3586 5.04982, 9.9457 5.04926, 9.32966 5.04982, 8.78543 5.23385, 8.31414 5.6019, 7.84285 5.96996, 7.52978 6.3756, 7.37549 6.81772, 7.34519 6.83006, 7.39456 6.83623, 7.52361 6.83567 L 7.6807 6.83567 C 7.86585 6.87831, 8.02575 6.94283, 8.16153 7.02924, 8.29731 7.1162, 8.4112 7.23571, 8.50378 7.38832, 8.59635 7.54092, 8.64236 7.72495, 8.64236 7.93984, 8.64236 8.29948, 8.52566 8.57496, 8.29113 8.76628, 8.05661 8.95816, 7.7946 9.05354, 7.50509 9.05298, 7.22793 9.05354, 6.96928 8.95816, 6.72858 8.76628, 6.48845 8.57496, 6.36782 8.29948, 6.36782 7.93984, 6.36782 7.43769, 6.46657 6.96191, 6.66406 6.51306, 6.86156 6.06422, 7.12918 5.6754, 7.46806 5.34606, 7.80694 5.01728, 8.20754 4.75695, 8.66985 4.56506, 9.13216 4.37374, 9.62253 4.2778, 10.1398 4.27724, 10.7806 4.2778, 11.368 4.37206, 11.901 4.56058, 12.434 4.74909, 12.8885 5.02008, 13.2644 5.37299, 13.6403 5.72646, 13.9348 6.13491, 14.1475 6.59834, 14.3601 7.06234, 14.4662 7.57515, 14.4662 8.13733, 14.4662 8.76011, 14.3248 9.33351, 14.0409 9.85698, 13.7575 10.381, 13.4063 10.8613, 12.9872 11.2978, 12.5681 11.7348, 12.1226 12.1461, 11.6513 12.5321, 11.18 12.9181, 10.7531 13.2935, 10.371 13.6582 L 8.24457 15.66, 11.0274 15.66 C 11.4157 15.6606, 11.7781 15.6578, 12.1136 15.6516, 12.4497 15.646, 12.7347 15.6336, 12.9687 15.6157, 13.2032 15.5977, 13.3233 15.586, 13.3289 15.5792, 13.3783 15.5377, 13.4248 15.4541, 13.468 15.3284, 13.5112 15.2028, 13.5511 15.0546, 13.5881 14.8841, 13.6251 14.7135, 13.6622 14.5401, 13.6992 14.3634, 13.7362 14.1872, 13.7699 13.9937, 13.8007 13.7838 L 14.4847 13.7838 Z" stroke="none" fill="#000000" />
			<path d="M 1.5467 8.95625 C -4.56906 4.92594, -4.56906 -4.92594, 1.5467 -8.95625 L 2.50721 -8.95625 C -3.00823 -4.92594, -3.00823 4.92594, 2.50721 8.95625" stroke="none" fill="#000000" transform="matrix(1 0 -0 1 2.814 11.7703)" />
			<path d="M 1.5467 8.95625 C -4.56906 4.92594, -4.56906 -4.92594, 1.5467 -8.95625 L 2.50721 -8.95625 C -3.00823 -4.92594, -3.00823 4.92594, 2.50721 8.95625" stroke="none" fill="#000000" transform="matrix(-1 1.50996e-007 -1.50996e-007 -1 18.0377 11.7703)" />
			<rect />
		</svg>
	</g>
	<g transform="matrix(1 0 -0 1 257.438 90.5861)">
		<svg width="77.99897" height="59.9571304">
			<defs />
			<path d="M 14.7928 13.9454 C 14.7928 14.4605, 14.6789 14.9548, 14.4511 15.4272, 14.2234 15.9002, 13.9181 16.3041, 13.5355 16.6385, 13.1046 17.0161, 12.6283 17.2955, 12.1076 17.4778, 11.5869 17.6608, 11.0427 17.7516, 10.4755 17.7516, 9.96435 17.7516, 9.46557 17.6798, 8.97857 17.5362, 8.49157 17.3926, 8.05282 17.1867, 7.6612 16.9174, 7.26958 16.648, 6.95707 16.3176, 6.72255 15.9254, 6.48859 15.5338, 6.37133 15.0832, 6.37133 14.5738, 6.37133 14.1912, 6.49925 13.9056, 6.75509 13.7171, 7.01094 13.5286, 7.28024 13.4343, 7.56358 13.4337, 7.85982 13.4343, 8.1353 13.5286, 8.39114 13.7171, 8.64699 13.9056, 8.77491 14.1912, 8.77491 14.5738, 8.77491 14.8016, 8.73058 14.9918, 8.64081 15.1444, 8.5516 15.297, 8.43771 15.4244, 8.29857 15.5259, 8.15998 15.628, 8.00121 15.6903, 7.82279 15.7139, 7.73077 15.7386, 7.64437 15.7503, 7.56358 15.7498, 7.48391 15.7503, 7.47157 15.7565, 7.52655 15.7677, 7.71787 16.1033, 8.09378 16.4001, 8.65484 16.657, 9.2159 16.9145, 9.8224 17.043, 10.4755 17.0425, 10.7841 17.043, 11.0719 16.9667, 11.3401 16.8141, 11.6083 16.6615, 11.8321 16.4567, 12.0105 16.1986, 12.2327 15.8642, 12.3836 15.5052, 12.4633 15.122, 12.5435 14.7393, 12.5834 14.3471, 12.5834 13.9454, 12.5834 13.533, 12.5435 13.1369, 12.4633 12.7565, 12.3836 12.3767, 12.2327 12.0249, 12.0105 11.7012, 11.8254 11.4386, 11.6004 11.226, 11.3356 11.0644, 11.0708 10.9028, 10.7841 10.822, 10.4755 10.8214 L 9.13511 10.8214 C 8.95669 10.822, 8.86131 10.7384, 8.84897 10.5701 L 8.84897 10.4713 C 8.84897 10.4001, 8.87085 10.3434, 8.91349 10.3008, 8.96903 10.2475, 9.03973 10.2205, 9.12613 10.22, 9.30511 10.1964, 9.4897 10.1846, 9.68046 10.1841, 9.86561 10.1846, 10.048 10.1729, 10.2264 10.1482, 10.5591 10.1246, 10.8486 10.0219, 11.0949 9.83902, 11.3418 9.65668, 11.5482 9.42328, 11.7143 9.13882, 11.8809 8.85493, 12.0072 8.52727, 12.0936 8.15585, 12.18 7.78499, 12.2232 7.40459, 12.2232 7.01521, 12.2232 6.72851, 12.1923 6.4564, 12.1306 6.19887, 12.0689 5.94191, 11.955 5.71692, 11.7884 5.52504, 11.4433 5.13061, 11.0057 4.93592, 10.4755 4.94153, 9.90881 4.9421, 9.38983 5.0487, 8.91854 5.26078, 8.44725 5.47342, 8.13081 5.70233, 7.97035 5.94695, 7.92771 5.95369, 7.94903 5.95649, 8.03543 5.95593, 8.25761 5.95649, 8.46688 6.02214, 8.66382 6.15342, 8.96006 6.32735, 9.10761 6.62079, 9.10761 7.03317, 9.10761 7.38102, 8.9954 7.64304, 8.77042 7.81921, 8.54543 7.99594, 8.29408 8.08403, 8.01691 8.08347, 7.74592 8.08403, 7.49176 7.99763, 7.25444 7.8237, 7.01711 7.65033, 6.89816 7.38663, 6.89816 7.03317, 6.89816 6.59666, 7.00308 6.21121, 7.21236 5.8757, 7.42219 5.54075, 7.6915 5.25348, 8.0214 5.01391, 8.35131 4.7749, 8.7317 4.592, 9.16316 4.46632, 9.59461 4.34064, 10.0322 4.2778, 10.4755 4.27724, 10.9501 4.2778, 11.4096 4.34064, 11.8534 4.46632, 12.2972 4.592, 12.7163 4.78668, 13.1102 5.04926, 13.4311 5.27705, 13.7004 5.55702, 13.9193 5.88916, 14.1381 6.22131, 14.2475 6.59666, 14.2475 7.01521, 14.2475 7.43488, 14.1723 7.82987, 14.0214 8.20073, 13.8704 8.57215, 13.6702 8.9071, 13.4205 9.20615, 13.1708 9.50576, 12.8734 9.76889, 12.5284 9.99612, 12.1833 10.2239, 11.9241 10.367, 11.7513 10.4265, 11.8994 10.445, 12.1525 10.5336, 12.5099 10.6918, 12.8673 10.8506, 13.209 11.0616, 13.5355 11.3241, 13.9181 11.6541, 14.2234 12.0474, 14.4511 12.5052, 14.6789 12.963, 14.7928 13.4433, 14.7928 13.9454 Z" stroke="none" fill="#000000" />
			<path d="M 1.5467 8.95625 C -4.56906 4.92594, -4.56906 -4.92594, 1.5467 -8.95625 L 2.50721 -8.95625 C -3.00823 -4.92594, -3.00823 4.92594, 2.50721 8.95625" stroke="none" fill="#000000" transform="matrix(1 0 -0 1 2.814 11.7703)" />
			<path d="M 1.5467 8.95625 C -4.56906 4.92594, -4.56906 -4.92594, 1.5467 -8.95625 L 2.50721 -8.95625 C -3.00823 -4.92594, -3.00823 4.92594, 2.50721 8.95625" stroke="none" fill="#000000" transform="matrix(-1 1.50996e-007 -1.50996e-007 -1 18.3486 11.7703)" />
			<rect />
		</svg>
	</g>
	<g transform="matrix(1 0 -0 1 132.35 209.66)">
		<svg width="81.0864105" height="59.9571304">
			<defs />
			<path d="M 13.3599 14.1339 L 13.3599 15.9563 C 13.3599 16.0645, 13.3801 16.165, 13.4205 16.2575, 13.4609 16.3507, 13.5271 16.4118, 13.6191 16.441, 13.761 16.5072, 13.9922 16.5437, 14.3126 16.5493, 14.6329 16.5555, 14.9561 16.5583, 15.2826 16.5577 L 15.2826 17.3297 C 14.34 17.2938, 13.416 17.2759, 12.5093 17.2759, 11.6161 17.2759, 10.6763 17.2938, 9.68998 17.3297 L 9.68998 16.5577 C 10.0289 16.5583, 10.356 16.5555, 10.6702 16.5493, 10.9843 16.5437, 11.2189 16.5072, 11.3726 16.441, 11.4652 16.4118, 11.5331 16.3507, 11.5763 16.2575, 11.6195 16.165, 11.6408 16.0645, 11.6408 15.9563 L 11.6408 14.1339, 6.37132 14.1339, 6.37132 13.4068, 12.5463 4.22338 C 12.6271 4.11622, 12.7287 4.06236, 12.8516 4.06179 L 13.0552 4.06179 C 13.2583 4.06236, 13.3599 4.16391, 13.3599 4.36701 L 13.3599 13.344, 15.3477 13.344, 15.3477 14.1339 Z M 11.7328 6.58432 L 7.18485 13.344, 11.7328 13.344 Z" stroke="none" fill="#000000" />
			<path d="M 1.5467 8.95625 C -4.56906 4.92594, -4.56906 -4.92594, 1.5467 -8.95625 L 2.50721 -8.95625 C -3.00823 -4.92594, -3.00823 4.92594, 2.50721 8.95625" stroke="none" fill="#000000" transform="matrix(1 0 -0 1 2.814 11.7703)" />
			<path d="M 1.5467 8.95625 C -4.56906 4.92594, -4.56906 -4.92594, 1.5467 -8.95625 L 2.50721 -8.95625 C -3.00823 -4.92594, -3.00823 4.92594, 2.50721 8.95625" stroke="none" fill="#000000" transform="matrix(-1 1.50996e-007 -1.50996e-007 -1 18.9148 11.7703)" />
			<rect />
		</svg>
	</g>
</svg>
