<?xml version="1.0"?>
<svg xmlns="http://www.w3.org/2000/svg" xmlns:xlink="http://www.w3.org/1999/xlink" width="272.423035" height="189.935059">
	<defs />
	<path d="M 0 -145.753 L 0 -102.027" fill="none" stroke="#000000" stroke-width="4.80000019" stroke-linecap="round" stroke-linejoin="round" transform="matrix(0.208333 0 -0 0.208333 157.451 141.464)" />
	<path d="M 0 102.027 L 0 145.753" fill="none" stroke="#000000" stroke-width="4.80000019" stroke-linecap="round" stroke-linejoin="round" transform="matrix(0.208333 0 -0 0.208333 157.451 141.464)" />
	<path d="M 0 -102.027 L -72.876 0, 0 102.027, 72.876 0 Z" stroke="none" fill="#FFFFFF" transform="matrix(0.208333 0 -0 0.208333 157.451 141.464)" />
	<path d="M 0 -102.027 L -72.876 0, 0 102.027, 72.876 0 Z" fill="none" stroke="#000000" stroke-width="7.20000029" stroke-linecap="round" stroke-linejoin="round" transform="matrix(0.208333 0 -0 0.208333 157.451 141.464)" />
	<path d="M 0 -145.753 L 0 145.753" fill="none" stroke="#000000" stroke-width="4.80000019" stroke-linecap="round" stroke-linejoin="round" transform="matrix(0.208333 0 -0 0.208333 157.451 141.464)" />
	<path d="M -94.7388 -145.753 L -51.0132 -145.753" fill="none" stroke="#000000" stroke-width="4.80000019" stroke-linecap="round" stroke-linejoin="round" transform="matrix(0.208333 0 -0 0.208333 157.451 141.464)" />
	<path d="M -72.876 -167.616 L -72.876 -123.89" fill="none" stroke="#000000" stroke-width="4.80000019" stroke-linecap="round" stroke-linejoin="round" transform="matrix(0.208333 0 -0 0.208333 157.451 141.464)" />
	<path d="M -94.7388 145.753 L -51.0132 145.753" fill="none" stroke="#000000" stroke-width="4.80000019" stroke-linecap="round" stroke-linejoin="round" transform="matrix(0.208333 0 -0 0.208333 157.451 141.464)" />
	<path d="M 0 -109.314 L 0 -72.8757" fill="none" stroke="#000000" stroke-width="4.80000019" stroke-linecap="round" stroke-linejoin="round" transform="matrix(0.208333 0 -0 0.208333 23.6823 106.307)" />
	<path d="M 0 109.314 L 0 72.8757" fill="none" stroke="#000000" stroke-width="4.80000019" stroke-linecap="round" stroke-linejoin="round" transform="matrix(0.208333 0 -0 0.208333 23.6823 106.307)" />
	<path d="M 72.8757 -0 C 72.8757 40.2481, 40.2481 72.8757, -0 72.8757, -40.2481 72.8757, -72.8757 40.2481, -72.8757 -0, -72.8757 -40.2481, -40.2481 -72.8757, -0 -72.8757, 40.2481 -72.8757, 72.8757 -40.2481, 72.8757 -0 Z" stroke="none" fill="#FFFFFF" transform="matrix(0.208333 0 -0 0.208333 23.6823 106.307)" />
	<path d="M 72.8757 -0 C 72.8757 40.2481, 40.2481 72.8757, -0 72.8757, -40.2481 72.8757, -72.8757 40.2481, -72.8757 -0, -72.8757 -40.2481, -40.2481 -72.8757, -0 -72.8757, 40.2481 -72.8757, 72.8757 -40.2481, 72.8757 -0 Z" fill="none" stroke="#000000" stroke-width="7.20000029" stroke-linecap="round" stroke-linejoin="round" transform="matrix(0.208333 0 -0 0.208333 23.6823 106.307)" />
	<path d="M 0 -72.8757 L 0 72.8757" fill="none" stroke="#000000" stroke-width="4.80000019" stroke-linecap="round" stroke-linejoin="round" transform="matrix(0.208333 0 -0 0.208333 23.6823 106.307)" />
	<path d="M 51.013 -109.314 L 94.7384 -109.314" fill="none" stroke="#000000" stroke-width="4.80000019" stroke-linecap="round" stroke-linejoin="round" transform="matrix(0.208333 0 -0 0.208333 23.6823 106.307)" />
	<path d="M 72.8757 -131.177 L 72.8757 -87.4515" fill="none" stroke="#000000" stroke-width="4.80000019" stroke-linecap="round" stroke-linejoin="round" transform="matrix(0.208333 0 -0 0.208333 23.6823 106.307)" />
	<path d="M 51.013 109.314 L 94.7384 109.314" fill="none" stroke="#000000" stroke-width="4.80000019" stroke-linecap="round" stroke-linejoin="round" transform="matrix(0.208333 0 -0 0.208333 23.6823 106.307)" />
	<path d="M 0 -350.251 L 0 350.25" fill="none" stroke="#000000" stroke-width="6.40000057" stroke-linecap="round" stroke-linejoin="round" transform="matrix(0.208333 0 0 0.208333 23.6823 106.307)" />
	<path d="M 0 -350.25 L 0 350.25" fill="none" stroke="#000000" stroke-width="6.40000057" stroke-linecap="round" stroke-linejoin="round" transform="matrix(0.208333 0 0 0.208333 232.139 106.751)" />
	<path d="M -500.297 0 L 500.293 0" fill="none" stroke="#000000" stroke-width="6.40000057" stroke-linecap="round" stroke-linejoin="round" transform="matrix(0.208333 0 0 0.208333 127.911 33.3385)" />
	<path d="M -500.297 0 L 500.293 0" fill="none" stroke="#000000" stroke-width="6.40000057" stroke-linecap="round" stroke-linejoin="round" transform="matrix(0.208333 0 0 0.208333 127.911 179.719)" />
	<rect x="-87.4519272" y="-21.8629055" width="174.903854" height="43.725811" stroke="none" fill="#FFFFFF" transform="matrix(0.208333 0 -0 0.208333 90.576 33.3385)" />
	<path d="M -87.4519 -21.8629 L 87.4519 -21.8629, 87.4519 21.8629, -87.4519 21.8629 Z" fill="none" stroke="#000000" stroke-width="7.20000029" stroke-linecap="round" stroke-linejoin="round" transform="matrix(0.208333 0 -0 0.208333 90.576 33.3385)" />
	<path d="M 0 -350.25 L 0 350.25" fill="none" stroke="#000000" stroke-width="6.40000057" stroke-linecap="round" stroke-linejoin="round" transform="matrix(0.208333 0 0 0.208333 157.451 106.751)" />
	<ellipse cx="1204.7604007720947" cy="100.52264595031738" rx="12.600000381469727" ry="12.600000381469727" stroke="none" fill="#000000" transform="matrix(0.208333 0 0 0.208333 -93.5406 12.3963)" />
	<ellipse cx="1204.7604007720947" cy="803.15035438537598" rx="12.600000381469727" ry="12.600000381469727" stroke="none" fill="#000000" transform="matrix(0.208333 0 0 0.208333 -93.5406 12.3963)" />
	<path d="M -87.4516 -21.8628 L 87.4516 -21.8628, 87.4516 21.8628, -87.4516 21.8628 Z" stroke="none" fill="#FFFFFF" transform="matrix(1.57287e-008 0.208333 -0.208333 1.57287e-008 157.451 68.7459)" />
	<path d="M -87.4516 -21.8628 L 87.4516 -21.8628, 87.4516 21.8628, -87.4516 21.8628 Z" fill="none" stroke="#000000" stroke-width="7.20000029" stroke-linecap="round" stroke-linejoin="round" transform="matrix(1.57287e-008 0.208333 -0.208333 1.57287e-008 157.451 68.7459)" />
	<path d="M -87.4521 -21.8632 L 87.4521 -21.8632, 87.4521 21.8632, -87.4521 21.8632 Z" stroke="none" fill="#FFFFFF" transform="matrix(1.57287e-008 0.208333 -0.208333 1.57287e-008 232.139 106.307)" />
	<path d="M -87.4521 -21.8632 L 87.4521 -21.8632, 87.4521 21.8632, -87.4521 21.8632 Z" fill="none" stroke="#000000" stroke-width="7.20000029" stroke-linecap="round" stroke-linejoin="round" transform="matrix(1.57287e-008 0.208333 -0.208333 1.57287e-008 232.139 106.307)" />
	<g transform="matrix(1 0 -0 1 46.7623 97.1441)">
		<svg width="93.0502319" height="38.9999886">
			<defs />
			<path d="M 6.52306 14.3717 L 0.0721561 14.3717, 0.0721561 13.9485 C 0.0721561 13.9182, 0.088026 13.872, 0.119766 13.81 L 2.71138 10.9938 C 3.01772 10.6557, 3.3279 10.3094, 3.64242 9.95547, 3.95693 9.60153, 4.23874 9.23988, 4.48689 8.87055, 4.73504 8.50121, 4.93318 8.12033, 5.0813 7.72791, 5.22942 7.33549, 5.30299 6.92383, 5.30299 6.49245, 5.30299 6.12889, 5.25538 5.78889, 5.16016 5.47341, 5.06494 5.15793, 4.92789 4.88093, 4.74803 4.6424, 4.56865 4.40387, 4.34406 4.21151, 4.07475 4.06531, 3.80545 3.91911, 3.49334 3.84602, 3.13939 3.84554, 2.61135 3.84602, 2.14487 4.00375, 1.74043 4.31923, 1.33646 4.63471, 1.06812 4.9824, 0.935867 5.36136, 0.909898 5.37194, 0.952218 5.37723, 1.06283 5.37675 L 1.19748 5.37675 C 1.35618 5.4133, 1.49324 5.4686, 1.60962 5.54266, 1.726 5.6172, 1.82362 5.71964, 1.90297 5.85044, 1.98232 5.98125, 2.02176 6.13899, 2.02176 6.32317, 2.02176 6.63144, 1.92173 6.86756, 1.72071 7.03155, 1.51969 7.19602, 1.29511 7.27778, 1.04696 7.2773, 0.809388 7.27778, 0.587209 7.19602, 0.38138 7.03155, 0.175551 6.86756, 0.0721561 6.63144, 0.0721561 6.32317, 0.0721561 5.89276, 0.156796 5.48495, 0.326076 5.10022, 0.495355 4.7155, 0.724749 4.38223, 1.01522 4.09994, 1.30569 3.81812, 1.64905 3.59498, 2.04532 3.43051, 2.44159 3.26652, 2.8619 3.18429, 3.30578 3.18381, 3.85546 3.18429, 4.35897 3.26508, 4.81583 3.42666, 5.2727 3.58825, 5.66223 3.82053, 5.98444 4.12302, 6.30665 4.42599, 6.55913 4.77609, 6.74139 5.17332, 6.92366 5.57103, 7.01455 6.01058, 7.01455 6.49245, 7.01455 7.02626, 6.89336 7.51775, 6.65002 7.96644, 6.40716 8.41561, 6.10611 8.82726, 5.74687 9.20141, 5.38763 9.57604, 5.00579 9.92854, 4.60135 10.2594, 4.19739 10.5903, 3.83142 10.912, 3.50392 11.2246 L 1.68079 12.9405, 4.06658 12.9405 C 4.39937 12.941, 4.71003 12.9385, 4.99762 12.9333, 5.28568 12.9284, 5.52998 12.9179, 5.731 12.9025, 5.93202 12.8871, 6.03494 12.877, 6.03975 12.8712, 6.08207 12.8356, 6.12198 12.764, 6.15901 12.6563, 6.19604 12.5485, 6.23019 12.4216, 6.26193 12.2754, 6.29366 12.1292, 6.32541 11.9806, 6.35714 11.8291, 6.38889 11.6781, 6.41774 11.5122, 6.44419 11.3323 L 7.03042 11.3323 Z" stroke="none" fill="#000000" />
			<path d="M 15.6884 9.01626 C 15.6884 9.75542, 15.6369 10.4902, 15.534 11.2212, 15.4311 11.9522, 15.1762 12.6385, 14.7694 13.279, 14.4789 13.7465, 14.0903 14.1052, 13.6041 14.3563, 13.1184 14.6078, 12.5899 14.7333, 12.0191 14.7333, 11.4699 14.7333, 10.9505 14.6078, 10.4619 14.3563, 9.97329 14.1052, 9.58327 13.7465, 9.2928 13.279, 8.88596 12.6385, 8.63108 11.9522, 8.52816 11.2212, 8.42525 10.4902, 8.37331 9.75542, 8.37331 9.01626, 8.37331 8.26797, 8.42525 7.52015, 8.52816 6.77379, 8.63108 6.02742, 8.88596 5.32866, 9.2928 4.67655, 9.58327 4.20525, 9.97185 3.83832, 10.458 3.57671, 10.9442 3.31509, 11.4646 3.18429, 12.0191 3.18381, 12.5846 3.18429, 13.1117 3.31509, 13.6003 3.57671, 14.0889 3.83832, 14.4789 4.20525, 14.7694 4.67655, 15.1762 5.32866, 15.4311 6.02742, 15.534 6.77379, 15.6369 7.52015, 15.6884 8.26797, 15.6884 9.01626 Z M 14.1192 8.74695 C 14.1192 8.42426, 14.1168 8.0833, 14.1115 7.72406, 14.1062 7.3653, 14.0927 7.01376, 14.0716 6.66991, 14.0504 6.32654, 14.0124 6.00193, 13.9567 5.69655, 13.9013 5.39165, 13.834 5.131, 13.7547 4.91508, 13.5965 4.5669, 13.3642 4.28076, 13.0574 4.05762, 12.751 3.83447, 12.4048 3.7229, 12.0191 3.72242, 11.644 3.7229, 11.3049 3.83592, 11.001 4.06146, 10.6971 4.28749, 10.4657 4.57171, 10.307 4.91508, 10.2282 5.131, 10.1608 5.39165, 10.1051 5.69655, 10.0498 6.00193, 10.0113 6.32654, 9.99012 6.66991, 9.96896 7.01376, 9.95598 7.3653, 9.95069 7.72406, 9.9454 8.0833, 9.94251 8.42426, 9.94251 8.74695, 9.94251 9.10667, 9.9454 9.48515, 9.95069 9.88238, 9.95598 10.2801, 9.96896 10.6648, 9.99012 11.0366, 10.0113 11.4088, 10.0498 11.7613, 10.1051 12.0946, 10.1608 12.4283, 10.2282 12.7077, 10.307 12.9328, 10.4552 13.3079, 10.6841 13.6157, 10.9928 13.8566, 11.302 14.098, 11.644 14.2182, 12.0191 14.2178, 12.4105 14.2182, 12.7606 14.098, 13.0694 13.8566, 13.3786 13.6157, 13.607 13.3079, 13.7547 12.9328, 13.834 12.7077, 13.9013 12.4283, 13.9567 12.0946, 14.0124 11.7613, 14.0504 11.4088, 14.0716 11.0366, 14.0927 10.6648, 14.1062 10.2801, 14.1115 9.88238, 14.1168 9.48515, 14.1192 9.10667, 14.1192 8.74695 Z" stroke="none" fill="#000000" />
			<path d="M 29.9725 3.92327 C 29.7247 3.92376, 29.5063 3.9424, 29.3174 3.97872, 29.1289 4.01552, 28.9538 4.07833, 28.7918 4.16666, 28.5224 4.32958, 28.3173 4.57544, 28.1769 4.90471 L 24.4327 14.5543 C 24.363 14.7064, 24.2443 14.7795, 24.077 14.7741 L 23.9474 14.7741 C 23.7806 14.7741, 23.6623 14.701, 23.5916 14.5543 L 19.6698 4.44932 C 19.6266 4.35019, 19.578 4.26137, 19.524 4.18286, 19.47 4.10434, 19.392 4.04693, 19.2895 4.00963, 19.1658 3.96301, 18.9916 3.93701, 18.7678 3.93161, 18.5441 3.9267, 18.3056 3.92376, 18.0524 3.92327 L 18.0524 3.27159 C 18.7477 3.30888, 19.4136 3.32704, 20.0496 3.32655, 20.1468 3.32704, 20.2523 3.32164, 20.3651 3.31084, 21.1042 3.31133, 21.8775 3.30103, 22.6862 3.27944 L 22.6862 3.92327 C 22.4438 3.92376, 22.2279 3.92915, 22.039 3.93946, 21.8505 3.95026, 21.6808 3.98902, 21.5296 4.05674, 21.4599 4.09404, 21.406 4.1436, 21.3677 4.20592, 21.3412 4.24812, 21.3274 4.28738, 21.3274 4.3237, 21.3274 4.34529, 21.3304 4.36884, 21.3353 4.39436 L 24.5058 12.5129, 27.4978 4.8419 C 27.5253 4.77958, 27.5385 4.70891, 27.5385 4.62991, 27.5385 4.47876, 27.4659 4.33744, 27.3201 4.20592, 27.1965 4.09649, 27.0576 4.0219, 26.9035 3.98264, 26.7499 3.94339, 26.5546 3.92376, 26.3171 3.92327 L 26.3171 3.27944 C 26.9698 3.30103, 27.5841 3.31133, 28.1612 3.31084, 28.2368 3.32164, 28.3173 3.32704, 28.4037 3.32655, 28.8998 3.32704, 29.4229 3.30888, 29.9725 3.27159 L 29.9725 3.92327 Z" stroke="none" fill="#000000" />
			<rect />
		</svg>
	</g>
	<g transform="matrix(1 0 -0 1 99.8404 131.808)">
		<svg width="114.019073" height="45.0428467">
			<defs />
			<path d="M 7.29266 10.9399 C 7.29266 11.4737, 7.21379 11.9522, 7.05509 12.3754, 6.89687 12.7986, 6.62756 13.2156, 6.24668 13.6253, 5.87157 14.0105, 5.48733 14.2913, 5.09346 14.4678, 4.70008 14.6448, 4.22591 14.7333, 3.67094 14.7333, 3.10587 14.7333, 2.58793 14.5938, 2.1176 14.3139, 1.64728 14.035, 1.27217 13.6565, 0.99228 13.179, 0.596011 12.5279, 0.344015 11.8406, 0.23533 11.1173, 0.127126 10.3941, 0.0727832 9.67318, 0.0727832 8.9547, 0.0727832 8.23719, 0.17714 7.53074, 0.385854 6.83534, 0.594569 6.14043, 0.9288 5.49794, 1.38855 4.90738, 1.77424 4.40531, 2.24456 3.99221, 2.79953 3.66904, 3.3545 3.34587, 3.96429 3.18429, 4.62987 3.18381, 5.26948 3.18429, 5.8004 3.34876, 6.22312 3.67674, 6.64584 4.0052, 6.85695 4.47697, 6.85695 5.09205, 6.85695 5.37963, 6.76991 5.59268, 6.59534 5.73118, 6.42125 5.86968, 6.22023 5.93893, 5.99324 5.93845, 5.77683 5.93893, 5.58255 5.86968, 5.41086 5.73118, 5.23918 5.59268, 5.1531 5.37963, 5.1531 5.09205, 5.1531 4.78475, 5.26659 4.55391, 5.49358 4.39954, 5.6417 4.30769, 5.80857 4.26152, 5.99324 4.26104, 6.05143 4.26152, 6.05913 4.25912, 6.01681 4.25335, 5.94275 4.14081, 5.78068 4.02972, 5.52965 3.91911, 5.27861 3.80899, 4.97901 3.75368, 4.62987 3.7532, 4.15954 3.75368, 3.73682 3.89363, 3.36171 4.17303, 2.98661 4.45292, 2.66969 4.80254, 2.41096 5.22286, 2.10462 5.75666, 1.91947 6.33808, 1.85599 6.96615, 1.79251 7.5947, 1.75548 8.0958, 1.7449 8.46995, 1.84012 8.24969, 2.06903 7.97942, 2.43068 7.65866, 2.7928 7.33837, 3.25111 7.17775, 3.80559 7.17727, 4.33411 7.17775, 4.79001 7.26624, 5.17281 7.44321, 5.5561 7.62018, 5.92447 7.89574, 6.27842 8.26989, 6.64872 8.68059, 6.91034 9.09369, 7.06326 9.50919, 7.21619 9.9247, 7.29266 10.4018, 7.29266 10.9399 Z M 5.60467 10.9399 C 5.60467 10.4479, 5.5888 10.0055, 5.55706 9.61307, 5.52532 9.22065, 5.42 8.87584, 5.24014 8.57767, 5.05547 8.27566, 4.84916 8.05252, 4.62217 7.90873, 4.39519 7.76542, 4.1177 7.69328, 3.78972 7.6928, 3.43577 7.69328, 3.13328 7.78321, 2.88225 7.96259, 2.63121 8.14245, 2.41865 8.37809, 2.24456 8.67049, 2.07048 8.96288, 1.94592 9.30384, 1.87186 9.69338, 1.81896 9.96076, 1.79251 10.2455, 1.79251 10.5475, 1.79251 10.6658, 1.7978 10.7918, 1.80838 10.9245 L 1.80838 10.9861 C 1.82954 11.3713, 1.85888 11.7305, 1.89591 12.0638, 1.93294 12.3975, 1.99113 12.6692, 2.06999 12.8789, 2.21811 13.2487, 2.43597 13.5488, 2.72403 13.7797, 3.01209 14.0105, 3.32757 14.1259, 3.67094 14.1254, 4.02489 14.1259, 4.32353 14.0581, 4.56639 13.922, 4.80973 13.7864, 5.02373 13.5666, 5.2084 13.2636, 5.39884 12.9616, 5.51234 12.6192, 5.54937 12.2369, 5.5864 11.8551, 5.60467 11.4227, 5.60467 10.9399 Z" stroke="none" fill="#000000" />
			<path d="M 15.8139 9.01626 C 15.8139 9.75542, 15.7624 10.4902, 15.6595 11.2212, 15.5566 11.9522, 15.3017 12.6385, 14.8949 13.279, 14.6044 13.7465, 14.2158 14.1052, 13.7296 14.3563, 13.2439 14.6078, 12.7154 14.7333, 12.1445 14.7333, 11.5953 14.7333, 11.076 14.6078, 10.5874 14.3563, 10.0988 14.1052, 9.70874 13.7465, 9.41827 13.279, 9.01143 12.6385, 8.75654 11.9522, 8.65363 11.2212, 8.55071 10.4902, 8.49878 9.75542, 8.49878 9.01626, 8.49878 8.26797, 8.55071 7.52015, 8.65363 6.77379, 8.75654 6.02742, 9.01143 5.32866, 9.41827 4.67655, 9.70874 4.20525, 10.0973 3.83832, 10.5835 3.57671, 11.0697 3.31509, 11.5901 3.18429, 12.1445 3.18381, 12.7101 3.18429, 13.2372 3.31509, 13.7258 3.57671, 14.2144 3.83832, 14.6044 4.20525, 14.8949 4.67655, 15.3017 5.32866, 15.5566 6.02742, 15.6595 6.77379, 15.7624 7.52015, 15.8139 8.26797, 15.8139 9.01626 Z M 14.2447 8.74695 C 14.2447 8.42426, 14.2423 8.0833, 14.237 7.72406, 14.2317 7.3653, 14.2182 7.01376, 14.1971 6.66991, 14.1759 6.32654, 14.1379 6.00193, 14.0821 5.69655, 14.0268 5.39165, 13.9595 5.131, 13.8801 4.91508, 13.7219 4.5669, 13.4896 4.28076, 13.1828 4.05762, 12.8765 3.83447, 12.5302 3.7229, 12.1445 3.72242, 11.7694 3.7229, 11.4304 3.83592, 11.1265 4.06146, 10.8225 4.28749, 10.5912 4.57171, 10.4325 4.91508, 10.3536 5.131, 10.2863 5.39165, 10.2305 5.69655, 10.1752 6.00193, 10.1368 6.32654, 10.1156 6.66991, 10.0944 7.01376, 10.0814 7.3653, 10.0762 7.72406, 10.0709 8.0833, 10.068 8.42426, 10.068 8.74695, 10.068 9.10667, 10.0709 9.48515, 10.0762 9.88238, 10.0814 10.2801, 10.0944 10.6648, 10.1156 11.0366, 10.1368 11.4088, 10.1752 11.7613, 10.2305 12.0946, 10.2863 12.4283, 10.3536 12.7077, 10.4325 12.9328, 10.5806 13.3079, 10.8095 13.6157, 11.1183 13.8566, 11.4275 14.098, 11.7694 14.2182, 12.1445 14.2178, 12.536 14.2182, 12.8861 14.098, 13.1948 13.8566, 13.5041 13.6157, 13.7325 13.3079, 13.8801 12.9328, 13.9595 12.7077, 14.0268 12.4283, 14.0821 12.0946, 14.1379 11.7613, 14.1759 11.4088, 14.1971 11.0366, 14.2182 10.6648, 14.2317 10.2801, 14.237 9.88238, 14.2423 9.48515, 14.2447 9.10667, 14.2447 8.74695 Z" stroke="none" fill="#000000" />
			<path d="M 24.2959 9.01626 C 24.2959 9.75542, 24.2445 10.4902, 24.1415 11.2212, 24.0386 11.9522, 23.7837 12.6385, 23.3769 13.279, 23.0864 13.7465, 22.6979 14.1052, 22.2117 14.3563, 21.7259 14.6078, 21.1974 14.7333, 20.6266 14.7333, 20.0774 14.7333, 19.558 14.6078, 19.0694 14.3563, 18.5808 14.1052, 18.1908 13.7465, 17.9003 13.279, 17.4935 12.6385, 17.2386 11.9522, 17.1357 11.2212, 17.0328 10.4902, 16.9808 9.75542, 16.9808 9.01626, 16.9808 8.26797, 17.0328 7.52015, 17.1357 6.77379, 17.2386 6.02742, 17.4935 5.32866, 17.9003 4.67655, 18.1908 4.20525, 18.5794 3.83832, 19.0656 3.57671, 19.5518 3.31509, 20.0721 3.18429, 20.6266 3.18381, 21.1921 3.18429, 21.7192 3.31509, 22.2078 3.57671, 22.6964 3.83832, 23.0864 4.20525, 23.3769 4.67655, 23.7837 5.32866, 24.0386 6.02742, 24.1415 6.77379, 24.2445 7.52015, 24.2959 8.26797, 24.2959 9.01626 Z M 22.7267 8.74695 C 22.7267 8.42426, 22.7243 8.0833, 22.719 7.72406, 22.7137 7.3653, 22.7003 7.01376, 22.6791 6.66991, 22.6579 6.32654, 22.6199 6.00193, 22.5642 5.69655, 22.5089 5.39165, 22.4415 5.131, 22.3622 4.91508, 22.204 4.5669, 21.9717 4.28076, 21.6649 4.05762, 21.3585 3.83447, 21.0123 3.7229, 20.6266 3.72242, 20.2515 3.7229, 19.9124 3.83592, 19.6085 4.06146, 19.3046 4.28749, 19.0732 4.57171, 18.9146 4.91508, 18.8357 5.131, 18.7684 5.39165, 18.7126 5.69655, 18.6573 6.00193, 18.6188 6.32654, 18.5976 6.66991, 18.5765 7.01376, 18.5635 7.3653, 18.5582 7.72406, 18.5529 8.0833, 18.55 8.42426, 18.55 8.74695, 18.55 9.10667, 18.5529 9.48515, 18.5582 9.88238, 18.5635 10.2801, 18.5765 10.6648, 18.5976 11.0366, 18.6188 11.4088, 18.6573 11.7613, 18.7126 12.0946, 18.7684 12.4283, 18.8357 12.7077, 18.9146 12.9328, 19.0627 13.3079, 19.2916 13.6157, 19.6003 13.8566, 19.9095 14.098, 20.2515 14.2182, 20.6266 14.2178, 21.018 14.2182, 21.3681 14.098, 21.6769 13.8566, 21.9861 13.6157, 22.2145 13.3079, 22.3622 12.9328, 22.4415 12.7077, 22.5089 12.4283, 22.5642 12.0946, 22.6199 11.7613, 22.6579 11.4088, 22.6791 11.0366, 22.7003 10.6648, 22.7137 10.2801, 22.719 9.88238, 22.7243 9.48515, 22.7267 9.10667, 22.7267 8.74695 Z" stroke="none" fill="#000000" />
			<path d="M 32.9745 3.69557 C 32.9588 3.76427, 32.9225 3.82169, 32.8656 3.8688, 32.8086 3.9159, 32.7399 3.93946, 32.659 3.93897, 32.4057 3.93946, 32.1579 3.94486, 31.915 3.95516, 31.6726 3.96596, 31.4974 3.99442, 31.3895 4.04104, 31.2766 4.07833, 31.1927 4.21426, 31.1387 4.44932 L 28.8662 13.298 C 28.8446 13.3981, 28.8338 13.4845, 28.8338 13.5571, 28.8338 13.6307, 28.8475 13.6754, 28.8745 13.6906, 28.9501 13.7382, 29.1061 13.7657, 29.3436 13.7735, 29.5811 13.7814, 29.8314 13.7853, 30.0954 13.7848, 30.2466 13.7853, 30.3221 13.8481, 30.3221 13.9733, 30.3221 14.0052, 30.3167 14.039, 30.3059 14.0753 L 30.2736 14.201 C 30.2142 14.358, 30.1116 14.4365, 29.9659 14.4365, 29.2705 14.4051, 28.5668 14.3894, 27.8553 14.3894, 27.1491 14.3894, 26.4322 14.4051, 25.7039 14.4365, 25.5646 14.4365, 25.4944 14.3688, 25.4939 14.2324 L 25.4939 14.1696, 25.5263 14.0361 C 25.57 13.8638, 25.675 13.7799, 25.8418 13.7848, 26.1058 13.7853, 26.3596 13.7814, 26.602 13.7735, 26.8444 13.7657, 27.0196 13.7382, 27.1275 13.6906, 27.2247 13.6386, 27.3032 13.4973, 27.3621 13.2666 L 29.6508 4.41791 C 29.6724 4.31879, 29.6832 4.24027, 29.6832 4.18237, 29.6832 4.10434, 29.67 4.05478, 29.6425 4.03319, 29.5566 3.99197, 29.3952 3.96596, 29.1577 3.95516, 28.9201 3.94486, 28.6748 3.93946, 28.4216 3.93897, 28.2704 3.93946, 28.1949 3.8688, 28.1949 3.72698 L 28.1949 3.67202, 28.2272 3.53069 C 28.2866 3.37415, 28.3892 3.29563, 28.5344 3.29514, 29.2411 3.31673, 29.9502 3.32704, 30.6617 3.32655, 31.3792 3.32704, 32.0907 3.31673, 32.7964 3.29514, 32.8719 3.29563, 32.9367 3.32164, 32.9907 3.37366, 33.0123 3.41586, 33.0231 3.45512, 33.0231 3.49143, 33.0231 3.52333, 33.0152 3.55228, 32.9985 3.5778 Z" stroke="none" fill="#000000" />
			<path d="M 2.03755 2.7404 C 1.48217 2.72281, 0.941631 2.71402, 0.416204 2.71402, -0.108947 2.71402, -0.649488 2.72281, -1.20514 2.7404 L -1.20514 2.36227, -0.892416 2.36227 C -0.792936 2.36254, -0.699228 2.36117, -0.61184 2.35814, -0.524177 2.3554, -0.441186 2.34798, -0.362592 2.33616, -0.283998 2.32462, -0.216121 2.3128, -0.158962 2.30071, -0.110596 2.29219, -0.0704747 2.26526, -0.0388722 2.21964, -0.00699496 2.1743, 0.0086689 2.12374, 0.0086689 2.06768 L 0.0086689 -2.8876 C -0.142199 -2.81396, -0.327967 -2.75817, -0.54836 -2.72025, -0.768753 -2.68205, -1.01031 -2.66309, -1.27302 -2.66336 L -1.27302 -3.0371 C -0.910553 -3.03682, -0.576115 -3.07997, -0.269708 -3.16653, 0.0366991 -3.25282, 0.301611 -3.41495, 0.525027 -3.65266 L 0.665452 -3.65266 C 0.764931 -3.65238, 0.814671 -3.60402, 0.814671 -3.50756 L 0.814671 2.06768 C 0.814671 2.12648, 0.829785 2.17787, 0.860014 2.22184, 0.890242 2.26581, 0.934211 2.29219, 0.99137 2.30071, 1.03974 2.3128, 1.10184 2.32462, 1.17714 2.33616, 1.25271 2.34798, 1.3379 2.3554, 1.43298 2.35814, 1.52806 2.36117, 1.62095 2.36254, 1.71136 2.36227 L 2.03755 2.36227, 2.03755 2.7404 Z" stroke="none" fill="#000000" transform="matrix(1.12 0 0 1 34.3921 13.9768)" />
			<rect />
		</svg>
	</g>
	<g transform="matrix(1 0 -0 1 118.02 59.1395)">
		<svg width="93.0502319" height="41.9571304">
			<defs />
			<path d="M 7.28905 10.9399 C 7.28905 11.4737, 7.21018 11.9522, 7.05148 12.3754, 6.89326 12.7986, 6.62395 13.2156, 6.24307 13.6253, 5.86796 14.0105, 5.48372 14.2913, 5.08985 14.4678, 4.69647 14.6448, 4.22229 14.7333, 3.66733 14.7333, 3.10226 14.7333, 2.58432 14.5938, 2.11399 14.3139, 1.64367 14.035, 1.26856 13.6565, 0.988668 13.179, 0.5924 12.5279, 0.340404 11.8406, 0.231719 11.1173, 0.123514 10.3941, 0.0691717 9.67318, 0.0691717 8.9547, 0.0691717 8.23719, 0.173529 7.53074, 0.382243 6.83534, 0.590957 6.14043, 0.925188 5.49794, 1.38494 4.90738, 1.77062 4.40531, 2.24095 3.99221, 2.79592 3.66904, 3.35089 3.34587, 3.96068 3.18429, 4.62626 3.18381, 5.26587 3.18429, 5.79679 3.34876, 6.21951 3.67674, 6.64222 4.0052, 6.85334 4.47697, 6.85334 5.09205, 6.85334 5.37963, 6.7663 5.59268, 6.59173 5.73118, 6.41764 5.86968, 6.21662 5.93893, 5.98963 5.93845, 5.77322 5.93893, 5.57894 5.86968, 5.40725 5.73118, 5.23557 5.59268, 5.14949 5.37963, 5.14949 5.09205, 5.14949 4.78475, 5.26298 4.55391, 5.48997 4.39954, 5.63809 4.30769, 5.80496 4.26152, 5.98963 4.26104, 6.04782 4.26152, 6.05552 4.25912, 6.0132 4.25335, 5.93914 4.14081, 5.77707 4.02972, 5.52604 3.91911, 5.275 3.80899, 4.9754 3.75368, 4.62626 3.7532, 4.15593 3.75368, 3.73321 3.89363, 3.3581 4.17303, 2.98299 4.45292, 2.66608 4.80254, 2.40735 5.22286, 2.10101 5.75666, 1.91586 6.33808, 1.85238 6.96615, 1.7889 7.5947, 1.75187 8.0958, 1.74129 8.46995, 1.83651 8.24969, 2.06542 7.97942, 2.42706 7.65866, 2.78919 7.33837, 3.24749 7.17775, 3.80198 7.17727, 4.3305 7.17775, 4.7864 7.26624, 5.1692 7.44321, 5.55249 7.62018, 5.92086 7.89574, 6.27481 8.26989, 6.64511 8.68059, 6.90672 9.09369, 7.05965 9.50919, 7.21258 9.9247, 7.28905 10.4018, 7.28905 10.9399 Z M 5.60106 10.9399 C 5.60106 10.4479, 5.58519 10.0055, 5.55345 9.61307, 5.52171 9.22065, 5.41639 8.87584, 5.23653 8.57767, 5.05186 8.27566, 4.84555 8.05252, 4.61856 7.90873, 4.39157 7.76542, 4.11409 7.69328, 3.78611 7.6928, 3.43216 7.69328, 3.12967 7.78321, 2.87864 7.96259, 2.6276 8.14245, 2.41504 8.37809, 2.24095 8.67049, 2.06686 8.96288, 1.94231 9.30384, 1.86825 9.69338, 1.81535 9.96076, 1.7889 10.2455, 1.7889 10.5475, 1.7889 10.6658, 1.79419 10.7918, 1.80477 10.9245 L 1.80477 10.9861 C 1.82593 11.3713, 1.85526 11.7305, 1.89229 12.0638, 1.92932 12.3975, 1.98751 12.6692, 2.06638 12.8789, 2.2145 13.2487, 2.43235 13.5488, 2.72042 13.7797, 3.00848 14.0105, 3.32396 14.1259, 3.66733 14.1254, 4.02128 14.1259, 4.31992 14.0581, 4.56278 13.922, 4.80612 13.7864, 5.02012 13.5666, 5.20479 13.2636, 5.39523 12.9616, 5.50872 12.6192, 5.54575 12.2369, 5.58278 11.8551, 5.60106 11.4227, 5.60106 10.9399 Z" stroke="none" fill="#000000" />
			<path d="M 17.9744 14.4287 C 17.4674 14.3923, 16.9821 14.3737, 16.5184 14.3737 L 16.3084 14.3737 C 15.7695 14.3845, 15.2003 14.4002, 14.6016 14.4208 L 14.6016 13.7691 C 14.7744 13.7696, 14.9093 13.7578, 15.0065 13.7343, 15.1036 13.7107, 15.1625 13.6543, 15.1841 13.565, 15.1949 13.5395, 15.2003 13.5081, 15.2003 13.4708, 15.2003 13.403, 15.1763 13.3275, 15.1277 13.2431, 15.0575 13.1125, 14.9765 12.9899, 14.8848 12.874 L 13.3081 10.6992, 12.3453 11.5, 12.3453 13.2666 C 12.3453 13.3559, 12.3561 13.4389, 12.3777 13.5144, 12.3993 13.5905, 12.4454 13.644, 12.5156 13.6749, 12.6181 13.7225, 12.7703 13.75, 12.9724 13.7578, 13.1746 13.7657, 13.3969 13.7696, 13.6393 13.7691 L 13.6393 14.4287 C 12.9764 14.3923, 12.3428 14.3737, 11.7388 14.3737, 11.1406 14.3737, 10.51 14.3923, 9.84653 14.4287 L 9.84653 13.7691 C 10.0894 13.7696, 10.3117 13.7657, 10.5139 13.7578, 10.7161 13.75, 10.8687 13.7225, 10.9708 13.6749, 11.0355 13.644, 11.0802 13.589, 11.1042 13.5105, 11.1288 13.432, 11.1406 13.351, 11.1406 13.2666 L 11.1406 4.73983 C 11.1406 4.60439, 11.1342 4.47238, 11.1204 4.34382, 11.1072 4.21574, 11.0517 4.11759, 10.9546 4.04889, 10.8633 3.98657, 10.7161 3.95026, 10.5139 3.93946, 10.3117 3.92915, 10.0894 3.92376, 9.84653 3.92327 L 9.84653 3.28729, 12.3939 3.09885, 12.3939 10.7149, 14.5854 8.8776 C 14.6885 8.79958, 14.7749 8.70536, 14.8445 8.59495, 14.8931 8.51152, 14.9172 8.4281, 14.9172 8.3437 L 14.9172 8.24948 C 14.9123 8.17685, 14.8705 8.11551, 14.792 8.06546, 14.714 8.01589, 14.5967 7.99087, 14.4402 7.99038 L 14.4402 7.32299 C 15.1252 7.36029, 15.7745 7.37844, 16.3888 7.37795, 16.5778 7.37844, 16.7677 7.37599, 16.9591 7.37059, 17.1504 7.36569, 17.3678 7.34949, 17.6103 7.32299 L 17.6103 7.99038 C 17.2113 7.99087, 16.831 8.07478, 16.4698 8.24163, 16.2544 8.33634, 16.0551 8.4492, 15.8716 8.57973, 15.6881 8.71076, 15.5021 8.85208, 15.3137 9.00323 L 14.1894 9.95327, 16.2514 12.7798 C 16.3756 12.932, 16.4997 13.0895, 16.6234 13.2514, 16.7476 13.4138, 16.8756 13.5341, 17.0076 13.6126, 17.1401 13.6911, 17.2829 13.7372, 17.4365 13.75, 17.5901 13.7632, 17.7692 13.7696, 17.9744 13.7691 L 17.9744 14.4287 Z" stroke="none" fill="#000000" />
			<path d="M 28.7962 14.2324 C 28.7638 14.358, 28.675 14.4208, 28.5293 14.4208 L 25.8524 14.4208 C 25.6747 14.4208, 25.5854 14.3349, 25.5854 14.1617, 25.5854 13.5184, 25.6811 12.8981, 25.8725 12.3014, 26.0639 11.7047, 26.2729 11.1148, 26.4992 10.5308, 26.7259 9.94738, 26.9305 9.36489, 27.114 8.78387, 27.2976 8.20286, 27.3888 7.61154, 27.3888 7.00893, 27.3888 6.53833, 27.3162 6.08195, 27.1705 5.63932, 27.0252 5.19718, 26.796 4.80853, 26.483 4.47337, 26.1704 4.13869, 25.8014 3.88205, 25.3754 3.70391, 24.9495 3.52627, 24.5049 3.43696, 24.0406 3.43647, 23.5774 3.43696, 23.1323 3.52627, 22.7064 3.70391, 22.2804 3.88205, 21.9129 4.13869, 21.6027 4.47337, 21.2926 4.80853, 21.0634 5.19718, 20.9152 5.63932, 20.767 6.08195, 20.6929 6.53833, 20.6929 7.00893, 20.6929 7.61154, 20.7862 8.20286, 20.9721 8.78387, 21.1581 9.36489, 21.3642 9.94738, 21.5905 10.5308, 21.8172 11.1148, 22.0257 11.7061, 22.2171 12.3053, 22.4085 12.905, 22.5042 13.5238, 22.5042 14.1617, 22.5042 14.3349, 22.4208 14.4208, 22.2534 14.4208 L 19.5525 14.4208 C 19.4126 14.4208, 19.3263 14.358, 19.2939 14.2324 L 18.7276 11.9868 C 18.7276 11.846, 18.8032 11.7572, 18.9538 11.7199 L 19.0431 11.7199 C 19.1835 11.7204, 19.2693 11.7856, 19.3017 11.9162, 19.3881 12.2778, 19.4681 12.5762, 19.5407 12.8117, 19.6133 13.0473, 19.6634 13.1729, 19.6899 13.1881, 19.7439 13.2303, 19.8734 13.2568, 20.0781 13.2671, 20.2832 13.2779, 20.5285 13.2828, 20.8141 13.2823 L 21.8491 13.2823 C 21.7362 12.8117, 21.5218 12.3279, 21.2062 11.8303, 20.8912 11.3332, 20.5634 10.8331, 20.2238 10.3306, 19.8842 9.82813, 19.5839 9.30748, 19.3223 8.76817, 19.0608 8.22936, 18.9298 7.64294, 18.9298 7.00893, 18.9298 6.42301, 19.0677 5.88174, 19.3425 5.38415, 19.6173 4.88704, 19.9868 4.46012, 20.45 4.10385, 20.9515 3.70146, 21.5124 3.40163, 22.1322 3.20534, 22.7525 3.00905, 23.3885 2.9109, 24.0406 2.91041, 24.6933 2.9109, 25.3293 3.00905, 25.9495 3.20534, 26.5698 3.40163, 27.1386 3.70146, 27.6558 4.10385, 28.1087 4.47091, 28.4753 4.90128, 28.7555 5.39592, 29.0362 5.89057, 29.1761 6.42841, 29.1761 7.00893, 29.1761 7.64294, 29.0455 8.22936, 28.784 8.76817, 28.5229 9.30748, 28.2196 9.82813, 27.8742 10.3306, 27.5292 10.8331, 27.1975 11.3332, 26.8795 11.8303, 26.5615 12.3279, 26.3461 12.8117, 26.2322 13.2823 L 27.2755 13.2823 C 27.5616 13.2828, 27.8069 13.2779, 28.0116 13.2671, 28.2167 13.2568, 28.3457 13.2303, 28.3997 13.1881, 28.4164 13.1783, 28.462 13.0527, 28.5376 12.8117, 28.6132 12.5713, 28.6937 12.2724, 28.78 11.9162, 28.8124 11.791, 28.9012 11.7258, 29.0465 11.7199 L 29.1358 11.7199 C 29.2816 11.7518, 29.3542 11.8406, 29.3542 11.9868 Z" stroke="none" fill="#000000" />
			<rect />
		</svg>
	</g>
	<g transform="matrix(1 0 -0 1 76.0648 8.54966)">
		<svg width="89.9627991" height="41.9571304">
			<defs />
			<path d="M 5.84976 14.3717 C 4.87784 14.3409, 3.9319 14.3255, 3.0124 14.3255, 2.09338 14.3255, 1.14744 14.3409, 0.17504 14.3717 L 0.17504 13.7099, 0.722314 13.7099 C 0.896402 13.7104, 1.06039 13.708, 1.21332 13.7027, 1.36673 13.6979, 1.51196 13.6849, 1.6495 13.6642, 1.78704 13.644, 1.90583 13.6234, 2.00586 13.6022, 2.0905 13.5873, 2.16071 13.5402, 2.21601 13.4603, 2.2718 13.381, 2.29921 13.2925, 2.29921 13.1944 L 2.29921 4.52265 C 2.03519 4.65154, 1.7101 4.74916, 1.32441 4.81553, 0.938722 4.88237, 0.516004 4.91556, 0.0562559 4.91508 L 0.0562559 4.26104 C 0.690574 4.26152, 1.27584 4.18602, 1.81205 4.03453, 2.34826 3.88353, 2.81186 3.59979, 3.20284 3.18381 L 3.44858 3.18381 C 3.62267 3.18429, 3.70972 3.26893, 3.70972 3.43773 L 3.70972 13.1944 C 3.70972 13.2973, 3.73617 13.3872, 3.78907 13.4642, 3.84196 13.5411, 3.91891 13.5873, 4.01894 13.6022, 4.10358 13.6234, 4.21226 13.644, 4.34403 13.6642, 4.47628 13.6849, 4.62536 13.6979, 4.79176 13.7027, 4.95815 13.708, 5.1207 13.7104, 5.27892 13.7099 L 5.84976 13.7099, 5.84976 14.3717 Z" stroke="none" fill="#000000" />
			<path d="M 17.198 14.4287 C 16.6911 14.3923, 16.2058 14.3737, 15.7421 14.3737 L 15.532 14.3737 C 14.9932 14.3845, 14.424 14.4002, 13.8253 14.4208 L 13.8253 13.7691 C 13.998 13.7696, 14.133 13.7578, 14.2302 13.7343, 14.3273 13.7107, 14.3862 13.6543, 14.4078 13.565, 14.4186 13.5395, 14.424 13.5081, 14.424 13.4708, 14.424 13.403, 14.3999 13.3275, 14.3514 13.2431, 14.2812 13.1125, 14.2002 12.9899, 14.1085 12.874 L 12.5318 10.6992, 11.569 11.5, 11.569 13.2666 C 11.569 13.3559, 11.5798 13.4389, 11.6014 13.5144, 11.6229 13.5905, 11.6691 13.644, 11.7392 13.6749, 11.8418 13.7225, 11.9939 13.75, 12.1961 13.7578, 12.3983 13.7657, 12.6206 13.7696, 12.863 13.7691 L 12.863 14.4287 C 12.2 14.3923, 11.5665 14.3737, 10.9624 14.3737, 10.3642 14.3737, 9.73366 14.3923, 9.0702 14.4287 L 9.0702 13.7691 C 9.31311 13.7696, 9.53541 13.7657, 9.73759 13.7578, 9.93976 13.75, 10.0924 13.7225, 10.1944 13.6749, 10.2592 13.644, 10.3039 13.589, 10.3279 13.5105, 10.3525 13.432, 10.3642 13.351, 10.3642 13.2666 L 10.3642 4.73983 C 10.3642 4.60439, 10.3579 4.47238, 10.3441 4.34382, 10.3309 4.21574, 10.2754 4.11759, 10.1783 4.04889, 10.087 3.98657, 9.93976 3.95026, 9.73759 3.93946, 9.53541 3.92915, 9.31311 3.92376, 9.0702 3.92327 L 9.0702 3.28729, 11.6175 3.09885, 11.6175 10.7149, 13.8091 8.8776 C 13.9122 8.79958, 13.9985 8.70536, 14.0682 8.59495, 14.1168 8.51152, 14.1408 8.4281, 14.1408 8.3437 L 14.1408 8.24948 C 14.1359 8.17685, 14.0942 8.11551, 14.0157 8.06546, 13.9377 8.01589, 13.8204 7.99087, 13.6639 7.99038 L 13.6639 7.32299 C 14.3489 7.36029, 14.9981 7.37844, 15.6125 7.37795, 15.8014 7.37844, 15.9914 7.37599, 16.1827 7.37059, 16.3741 7.36569, 16.5915 7.34949, 16.8339 7.32299 L 16.8339 7.99038 C 16.435 7.99087, 16.0547 8.07478, 15.6935 8.24163, 15.4781 8.33634, 15.2788 8.4492, 15.0953 8.57973, 14.9118 8.71076, 14.7258 8.85208, 14.5373 9.00323 L 13.4131 9.95327, 15.4751 12.7798 C 15.5993 12.932, 15.7234 13.0895, 15.8471 13.2514, 15.9712 13.4138, 16.0993 13.5341, 16.2313 13.6126, 16.3638 13.6911, 16.5066 13.7372, 16.6602 13.75, 16.8138 13.7632, 16.9929 13.7696, 17.198 13.7691 L 17.198 14.4287 Z" stroke="none" fill="#000000" />
			<path d="M 28.0199 14.2324 C 27.9875 14.358, 27.8987 14.4208, 27.753 14.4208 L 25.0761 14.4208 C 24.8984 14.4208, 24.8091 14.3349, 24.8091 14.1617, 24.8091 13.5184, 24.9048 12.8981, 25.0962 12.3014, 25.2876 11.7047, 25.4966 11.1148, 25.7228 10.5308, 25.9496 9.94738, 26.1542 9.36489, 26.3377 8.78387, 26.5212 8.20286, 26.6125 7.61154, 26.6125 7.00893, 26.6125 6.53833, 26.5399 6.08195, 26.3941 5.63932, 26.2489 5.19718, 26.0197 4.80853, 25.7066 4.47337, 25.3941 4.13869, 25.025 3.88205, 24.5991 3.70391, 24.1731 3.52627, 23.7285 3.43696, 23.2643 3.43647, 22.8011 3.43696, 22.356 3.52627, 21.93 3.70391, 21.5041 3.88205, 21.1365 4.13869, 20.8264 4.47337, 20.5163 4.80853, 20.2871 5.19718, 20.1389 5.63932, 19.9907 6.08195, 19.9166 6.53833, 19.9166 7.00893, 19.9166 7.61154, 20.0098 8.20286, 20.1958 8.78387, 20.3818 9.36489, 20.5879 9.94738, 20.8141 10.5308, 21.0409 11.1148, 21.2494 11.7061, 21.4408 12.3053, 21.6322 12.905, 21.7279 13.5238, 21.7279 14.1617, 21.7279 14.3349, 21.6444 14.4208, 21.4771 14.4208 L 18.7762 14.4208 C 18.6363 14.4208, 18.5499 14.358, 18.5176 14.2324 L 17.9513 11.9868 C 17.9513 11.846, 18.0268 11.7572, 18.1775 11.7199 L 18.2668 11.7199 C 18.4071 11.7204, 18.493 11.7856, 18.5254 11.9162, 18.6118 12.2778, 18.6918 12.5762, 18.7644 12.8117, 18.837 13.0473, 18.8871 13.1729, 18.9136 13.1881, 18.9675 13.2303, 19.0971 13.2568, 19.3017 13.2671, 19.5069 13.2779, 19.7522 13.2828, 20.0378 13.2823 L 21.0728 13.2823 C 20.9599 12.8117, 20.7454 12.3279, 20.4299 11.8303, 20.1149 11.3332, 19.7871 10.8331, 19.4475 10.3306, 19.1079 9.82813, 18.8076 9.30748, 18.546 8.76817, 18.2845 8.22936, 18.1534 7.64294, 18.1534 7.00893, 18.1534 6.42301, 18.2913 5.88174, 18.5661 5.38415, 18.8409 4.88704, 19.2105 4.46012, 19.6737 4.10385, 20.1752 3.70146, 20.7361 3.40163, 21.3559 3.20534, 21.9762 3.00905, 22.6121 2.9109, 23.2643 2.91041, 23.917 2.9109, 24.553 3.00905, 25.1732 3.20534, 25.7935 3.40163, 26.3622 3.70146, 26.8795 4.10385, 27.3324 4.47091, 27.699 4.90128, 27.9792 5.39592, 28.2599 5.89057, 28.3997 6.42841, 28.3997 7.00893, 28.3997 7.64294, 28.2692 8.22936, 28.0076 8.76817, 27.7466 9.30748, 27.4433 9.82813, 27.0978 10.3306, 26.7529 10.8331, 26.4211 11.3332, 26.1031 11.8303, 25.7852 12.3279, 25.5697 12.8117, 25.4559 13.2823 L 26.4992 13.2823 C 26.7853 13.2828, 27.0306 13.2779, 27.2352 13.2671, 27.4404 13.2568, 27.5694 13.2303, 27.6234 13.1881, 27.6401 13.1783, 27.6857 13.0527, 27.7613 12.8117, 27.8369 12.5713, 27.9173 12.2724, 28.0037 11.9162, 28.0361 11.791, 28.1249 11.7258, 28.2702 11.7199 L 28.3595 11.7199 C 28.5052 11.7518, 28.5779 11.8406, 28.5779 11.9868 Z" stroke="none" fill="#000000" />
			<rect />
		</svg>
	</g>
	<g transform="matrix(1 0 -0 1 192.304 97.6385)">
		<svg width="93.0502319" height="41.9571304">
			<defs />
			<path d="M 7.01093 10.9707 C 7.01093 11.4737, 6.91619 11.9536, 6.72576 12.41, 6.5358 12.8669, 6.2612 13.2771, 5.90148 13.6407, 5.53695 13.9951, 5.12625 14.2659, 4.66939 14.4524, 4.21253 14.64, 3.72729 14.7333, 3.21464 14.7333, 2.77125 14.7333, 2.35767 14.6501, 1.97438 14.4832, 1.59158 14.3168, 1.25879 14.0889, 0.976017 13.7989, 0.693243 13.5094, 0.471545 13.1732, 0.310441 12.7909, 0.149336 12.4091, 0.0685437 12.0022, 0.0685437 11.5708, 0.0685437 11.2736, 0.167611 11.0495, 0.365745 10.8981, 0.563879 10.747, 0.768746 10.6711, 0.979865 10.6706, 1.20204 10.6711, 1.41076 10.7456, 1.60601 10.8942, 1.80174 11.0433, 1.89936 11.2688, 1.89936 11.5708, 1.89936 11.756, 1.85848 11.9113, 1.77673 12.0368, 1.69498 12.1628, 1.59447 12.26, 1.4752 12.3292, 1.35642 12.3985, 1.2232 12.4384, 1.07508 12.448 L 0.979865 12.448, 0.821165 12.448 C 0.942835 12.8794, 1.22561 13.267, 1.66949 13.6104, 2.11337 13.9542, 2.62842 14.1259, 3.21464 14.1254, 3.52146 14.1259, 3.82011 14.0466, 4.11058 13.8874, 4.40105 13.7287, 4.63909 13.518, 4.82376 13.2559, 5.04017 12.9434, 5.17915 12.5884, 5.23975 12.1907, 5.30034 11.7935, 5.33064 11.3867, 5.33064 10.9707, 5.33064 10.5504, 5.31766 10.1469, 5.29121 9.75926, 5.26524 9.37213, 5.15655 9.00664, 4.96611 8.66231, 4.82905 8.41128, 4.65352 8.20256, 4.43952 8.03569, 4.22551 7.86929, 3.9865 7.78562, 3.722 7.78514, 3.21993 7.78562, 2.78423 7.88709, 2.41441 8.08955, 2.0446 8.29249, 1.74595 8.58344, 1.51896 8.9624, 1.47135 9.04992, 1.39489 9.09369, 1.28909 9.09321 L 1.22561 9.09321 C 1.04094 9.09369, 0.948125 9.00905, 0.948125 8.83929 L 0.948125 3.43773 C 0.948125 3.30499, 1.02507 3.22036, 1.178 3.18381, 1.20445 3.18429, 1.22417 3.18717, 1.23763 3.19198, 1.2511 3.19727, 1.26264 3.19968, 1.27322 3.19919, 2.03931 3.54833, 2.82896 3.7229, 3.64265 3.72242, 4.46693 3.7229, 5.25706 3.54833, 6.01257 3.19919, 6.02315 3.19968, 6.03373 3.19727, 6.04431 3.19198, 6.05489 3.18717, 6.07076 3.18429, 6.09192 3.18381, 6.26601 3.18429, 6.35065 3.26364, 6.34536 3.42234, 6.34536 3.51515, 6.32949 3.57671, 6.29775 3.60701, 5.92264 4.12062, 5.44606 4.52217, 4.86753 4.81168, 4.28899 5.10167, 3.67487 5.24642, 3.02469 5.24594, 2.48607 5.24642, 2.02103 5.18486, 1.62957 5.06127 L 1.62957 8.00058 C 1.81472 7.8063, 2.09365 7.63317, 2.46587 7.48168, 2.83857 7.33068, 3.25745 7.25469, 3.722 7.25421, 4.17646 7.25469, 4.60591 7.35761, 5.00987 7.56248, 5.41432 7.76782, 5.76971 8.03425, 6.07605 8.36223, 6.39297 8.73204, 6.62813 9.1413, 6.78106 9.58998, 6.93447 10.0392, 7.01093 10.4994, 7.01093 10.9707 Z" stroke="none" fill="#000000" />
			<path d="M 17.8448 14.4287 C 17.3379 14.3923, 16.8526 14.3737, 16.3888 14.3737 L 16.1788 14.3737 C 15.64 14.3845, 15.0708 14.4002, 14.4721 14.4208 L 14.4721 13.7691 C 14.6448 13.7696, 14.7798 13.7578, 14.8769 13.7343, 14.9741 13.7107, 15.033 13.6543, 15.0546 13.565, 15.0654 13.5395, 15.0708 13.5081, 15.0708 13.4708, 15.0708 13.403, 15.0467 13.3275, 14.9981 13.2431, 14.928 13.1125, 14.847 12.9899, 14.7552 12.874 L 13.1785 10.6992, 12.2157 11.5, 12.2157 13.2666 C 12.2157 13.3559, 12.2265 13.4389, 12.2481 13.5144, 12.2697 13.5905, 12.3158 13.644, 12.386 13.6749, 12.4886 13.7225, 12.6407 13.75, 12.8429 13.7578, 13.0451 13.7657, 13.2674 13.7696, 13.5098 13.7691 L 13.5098 14.4287 C 12.8468 14.3923, 12.2133 14.3737, 11.6092 14.3737, 11.011 14.3737, 10.3804 14.3923, 9.71698 14.4287 L 9.71698 13.7691 C 9.95988 13.7696, 10.1822 13.7657, 10.3844 13.7578, 10.5865 13.75, 10.7392 13.7225, 10.8412 13.6749, 10.906 13.644, 10.9507 13.589, 10.9747 13.5105, 10.9992 13.432, 11.011 13.351, 11.011 13.2666 L 11.011 4.73983 C 11.011 4.60439, 11.0046 4.47238, 10.9909 4.34382, 10.9776 4.21574, 10.9222 4.11759, 10.825 4.04889, 10.7338 3.98657, 10.5865 3.95026, 10.3844 3.93946, 10.1822 3.92915, 9.95988 3.92376, 9.71698 3.92327 L 9.71698 3.28729, 12.2643 3.09885, 12.2643 10.7149, 14.4559 8.8776 C 14.5589 8.79958, 14.6453 8.70536, 14.715 8.59495, 14.7636 8.51152, 14.7876 8.4281, 14.7876 8.3437 L 14.7876 8.24948 C 14.7827 8.17685, 14.741 8.11551, 14.6625 8.06546, 14.5845 8.01589, 14.4672 7.99087, 14.3106 7.99038 L 14.3106 7.32299 C 14.9957 7.36029, 15.6449 7.37844, 16.2593 7.37795, 16.4482 7.37844, 16.6381 7.37599, 16.8295 7.37059, 17.0209 7.36569, 17.2383 7.34949, 17.4807 7.32299 L 17.4807 7.99038 C 17.0817 7.99087, 16.7014 8.07478, 16.3403 8.24163, 16.1248 8.33634, 15.9256 8.4492, 15.7421 8.57973, 15.5585 8.71076, 15.3726 8.85208, 15.1841 9.00323 L 14.0599 9.95327, 16.1219 12.7798 C 16.246 12.932, 16.3702 13.0895, 16.4939 13.2514, 16.618 13.4138, 16.7461 13.5341, 16.8781 13.6126, 17.0106 13.6911, 17.1534 13.7372, 17.307 13.75, 17.4606 13.7632, 17.6397 13.7696, 17.8448 13.7691 L 17.8448 14.4287 Z" stroke="none" fill="#000000" />
			<path d="M 28.6667 14.2324 C 28.6343 14.358, 28.5455 14.4208, 28.3997 14.4208 L 25.7228 14.4208 C 25.5452 14.4208, 25.4559 14.3349, 25.4559 14.1617, 25.4559 13.5184, 25.5516 12.8981, 25.743 12.3014, 25.9343 11.7047, 26.1434 11.1148, 26.3696 10.5308, 26.5963 9.94738, 26.801 9.36489, 26.9845 8.78387, 27.168 8.20286, 27.2593 7.61154, 27.2593 7.00893, 27.2593 6.53833, 27.1867 6.08195, 27.0409 5.63932, 26.8957 5.19718, 26.6665 4.80853, 26.3534 4.47337, 26.0408 4.13869, 25.6718 3.88205, 25.2459 3.70391, 24.8199 3.52627, 24.3753 3.43696, 23.9111 3.43647, 23.4478 3.43696, 23.0028 3.52627, 22.5768 3.70391, 22.1509 3.88205, 21.7833 4.13869, 21.4732 4.47337, 21.163 4.80853, 20.9339 5.19718, 20.7857 5.63932, 20.6375 6.08195, 20.5634 6.53833, 20.5634 7.00893, 20.5634 7.61154, 20.6566 8.20286, 20.8426 8.78387, 21.0286 9.36489, 21.2347 9.94738, 21.4609 10.5308, 21.6876 11.1148, 21.8962 11.7061, 22.0876 12.3053, 22.2789 12.905, 22.3746 13.5238, 22.3746 14.1617, 22.3746 14.3349, 22.2912 14.4208, 22.1239 14.4208 L 19.4229 14.4208 C 19.2831 14.4208, 19.1967 14.358, 19.1643 14.2324 L 18.598 11.9868 C 18.598 11.846, 18.6736 11.7572, 18.8243 11.7199 L 18.9136 11.7199 C 19.0539 11.7204, 19.1398 11.7856, 19.1722 11.9162, 19.2585 12.2778, 19.3385 12.5762, 19.4112 12.8117, 19.4838 13.0473, 19.5338 13.1729, 19.5603 13.1881, 19.6143 13.2303, 19.7439 13.2568, 19.9485 13.2671, 20.1536 13.2779, 20.399 13.2828, 20.6846 13.2823 L 21.7195 13.2823 C 21.6067 12.8117, 21.3922 12.3279, 21.0767 11.8303, 20.7616 11.3332, 20.4338 10.8331, 20.0942 10.3306, 19.7547 9.82813, 19.4543 9.30748, 19.1928 8.76817, 18.9312 8.22936, 18.8002 7.64294, 18.8002 7.00893, 18.8002 6.42301, 18.9381 5.88174, 19.2129 5.38415, 19.4877 4.88704, 19.8572 4.46012, 20.3205 4.10385, 20.822 3.70146, 21.3829 3.40163, 22.0027 3.20534, 22.6229 3.00905, 23.2589 2.9109, 23.9111 2.91041, 24.5637 2.9109, 25.1997 3.00905, 25.82 3.20534, 26.4403 3.40163, 27.009 3.70146, 27.5262 4.10385, 27.9792 4.47091, 28.3457 4.90128, 28.6259 5.39592, 28.9066 5.89057, 29.0465 6.42841, 29.0465 7.00893, 29.0465 7.64294, 28.916 8.22936, 28.6544 8.76817, 28.3933 9.30748, 28.0901 9.82813, 27.7446 10.3306, 27.3996 10.8331, 27.0679 11.3332, 26.7499 11.8303, 26.4319 12.3279, 26.2165 12.8117, 26.1027 13.2823 L 27.1459 13.2823 C 27.432 13.2828, 27.6774 13.2779, 27.882 13.2671, 28.0871 13.2568, 28.2162 13.2303, 28.2702 13.1881, 28.2869 13.1783, 28.3325 13.0527, 28.4081 12.8117, 28.4836 12.5713, 28.5641 12.2724, 28.6505 11.9162, 28.6829 11.791, 28.7717 11.7258, 28.9169 11.7199 L 29.0063 11.7199 C 29.152 11.7518, 29.2246 11.8406, 29.2246 11.9868 Z" stroke="none" fill="#000000" />
			<rect />
		</svg>
	</g>
	<g transform="matrix(1 0 -0 1 249.104 97.5889)">
		<svg width="48.0251122" height="45.0428467">
			<defs />
			<path d="M 10.894 3.69557 C 10.8779 3.76918, 10.8386 3.82856, 10.7768 3.87272, 10.7149 3.91738, 10.6487 3.93946, 10.5785 3.93897, 10.3847 3.93946, 10.1962 3.95418, 10.0127 3.98264, 9.82918 4.0116, 9.65939 4.08079, 9.50284 4.19022, 9.37379 4.26923, 9.27122 4.37277, 9.19565 4.50085, 9.12008 4.62942, 9.06365 4.76633, 9.02586 4.91256 L 7.52965 10.707 C 7.38979 11.2311, 7.17535 11.7375, 6.8868 12.2268, 6.59826 12.7165, 6.23022 13.1675, 5.78268 13.5807, 5.38912 13.9424, 4.95287 14.2343, 4.47294 14.4561, 3.99301 14.6789, 3.50523 14.7898, 3.00911 14.7898, 2.4703 14.7898, 1.9889 14.6829, 1.56541 14.4679, 1.1424 14.254, 0.801352 13.9605, 0.542251 13.5885, 0.25665 13.1911, 0.0868602 12.7386, 0.0328807 12.2302, 0.0112889 12.0791, 0.00049305 11.9191, 0.00049305 11.7513, 0.00049305 11.4009, 0.0436766 11.0427, 0.130044 10.6756 L 1.75532 4.41791 C 1.77691 4.31879, 1.7877 4.24027, 1.7877 4.18237, 1.7877 4.10434, 1.77151 4.05478, 1.73912 4.03319, 1.66944 3.99197, 1.5237 3.96596, 1.30287 3.95516, 1.08205 3.94486, 0.844536 3.93946, 0.590832 3.93897, 0.510354 3.93946, 0.450976 3.91345, 0.413191 3.86045, 0.380803 3.82954, 0.364609 3.79028, 0.364609 3.74268, 0.364609 3.71176, 0.372952 3.68281, 0.388655 3.65631 L 0.413191 3.53069 C 0.472568 3.37415, 0.577583 3.29563, 0.728235 3.29514, 1.40249 3.31673, 2.08165 3.32704, 2.76621 3.32655, 3.45125 3.32704, 4.13581 3.31673, 4.82037 3.29514, 4.97151 3.29563, 5.04708 3.3663, 5.04708 3.50713 L 5.04708 3.56995, 4.9985 3.70342 C 4.96611 3.86094, 4.8665 3.93946, 4.69916 3.93897, 4.44595 3.93946, 4.20648 3.94486, 3.97976 3.95516, 3.75305 3.96596, 3.58866 3.99344, 3.4861 4.0376, 3.38403 4.08226, 3.30306 4.21966, 3.24368 4.44932 L 1.63411 10.707 C 1.51045 11.1683, 1.43733 11.6104, 1.41574 12.0339, 1.40494 12.0972, 1.39954 12.16, 1.39954 12.2224, 1.39954 12.5786, 1.46972 12.9059, 1.61006 13.2038, 1.75041 13.487, 1.95112 13.7161, 2.21267 13.8913, 2.47423 14.067, 2.77995 14.1543, 3.13032 14.1539, 3.51897 14.1543, 3.90861 14.0655, 4.29922 13.8874, 4.68984 13.7097, 5.05248 13.4688, 5.38666 13.1646, 5.76943 12.825, 6.08104 12.4378, 6.321 12.003, 6.56096 11.5687, 6.74008 11.1261, 6.85834 10.6756 L 8.3467 4.86545 C 8.37909 4.77173, 8.39479 4.67211, 8.39479 4.56709 L 8.39479 4.45717 C 8.37909 4.34774, 8.33296 4.25598, 8.25739 4.18237, 8.14452 4.07294, 8.01105 4.00522, 7.85745 3.97872, 7.70386 3.95271, 7.52474 3.93946, 7.31962 3.93897, 7.23865 3.93946, 7.17927 3.9159, 7.14149 3.86831, 7.10419 3.83199, 7.08506 3.79028, 7.08506 3.74268, 7.08506 3.71176, 7.0934 3.68036, 7.1091 3.64846 L 7.14149 3.53854 C 7.15817 3.47082, 7.19449 3.41341, 7.25092 3.3663, 7.30784 3.31919, 7.3736 3.29563, 7.44868 3.29514, 7.98799 3.31673, 8.52974 3.32704, 9.07444 3.32655, 9.61375 3.32704, 10.1609 3.31673, 10.7159 3.29514, 10.7915 3.29563, 10.8563 3.32164, 10.9102 3.37366, 10.9318 3.41586, 10.9426 3.45512, 10.9426 3.49143, 10.9426 3.52333, 10.9348 3.55228, 10.9181 3.5778 Z" stroke="none" fill="#000000" />
			<path d="M 2.44412 -0.319828 C 2.44412 0.102547, 2.41472 0.522449, 2.35591 0.940152, 2.2971 1.35785, 2.15145 1.75, 1.91897 2.11604, 1.75299 2.38315, 1.53094 2.58816, 1.25312 2.7316, 0.975564 2.87533, 0.673554 2.94705, 0.34736 2.94705, 0.0335336 2.94705, -0.263255 2.87533, -0.542457 2.7316, -0.821659 2.58816, -1.04453 2.38315, -1.21051 2.11604, -1.44299 1.75, -1.58864 1.35785, -1.64745 0.940152, -1.70625 0.522449, -1.73593 0.102547, -1.73593 -0.319828, -1.73593 -0.747424, -1.70625 -1.17475, -1.64745 -1.60124, -1.58864 -2.02774, -1.44299 -2.42703, -1.21051 -2.79967, -1.04453 -3.06897, -0.822483 -3.27865, -0.544655 -3.42814, -0.266828 -3.57764, 0.0305107 -3.65238, 0.34736 -3.65266, 0.670531 -3.65238, 0.971717 -3.57764, 1.25092 -3.42814, 1.53012 -3.27865, 1.75299 -3.06897, 1.91897 -2.79967, 2.15145 -2.42703, 2.2971 -2.02774, 2.35591 -1.60124, 2.41472 -1.17475, 2.44412 -0.747424, 2.44412 -0.319828 Z M 1.54743 -0.473718 C 1.54743 -0.658112, 1.54606 -0.852949, 1.54304 -1.05823, 1.54001 -1.26323, 1.53232 -1.46411, 1.52023 -1.6606, 1.50814 -1.85681, 1.48643 -2.0423, 1.45455 -2.2168, 1.42295 -2.39103, 1.38447 -2.53997, 1.33913 -2.66336, 1.24872 -2.86232, 1.11599 -3.02583, 0.940664 -3.15334, 0.765613 -3.28085, 0.567754 -3.3446, 0.34736 -3.34488, 0.133013 -3.3446, -0.0607244 -3.28002, -0.234401 -3.15114, -0.408077 -3.02198, -0.540259 -2.85957, -0.630944 -2.66336, -0.676012 -2.53997, -0.714485 -2.39103, -0.746362 -2.2168, -0.777965 -2.0423, -0.799949 -1.85681, -0.81204 -1.6606, -0.824132 -1.46411, -0.831552 -1.26323, -0.834574 -1.05823, -0.837597 -0.852949, -0.839246 -0.658112, -0.839246 -0.473718, -0.839246 -0.268164, -0.837597 -0.0518932, -0.834574 0.175096, -0.831552 0.402359, -0.824132 0.622203, -0.81204 0.834627, -0.799949 1.04733, -0.777965 1.24876, -0.746362 1.4392, -0.714485 1.62991, -0.676012 1.78957, -0.630944 1.91818, -0.546304 2.13253, -0.415497 2.3084, -0.239073 2.44608, -0.0623733 2.58403, 0.133013 2.65273, 0.34736 2.65246, 0.571052 2.65273, 0.771109 2.58403, 0.947534 2.44608, 1.12423 2.3084, 1.25477 2.13253, 1.33913 1.91818, 1.38447 1.78957, 1.42295 1.62991, 1.45455 1.4392, 1.48643 1.24876, 1.50814 1.04733, 1.52023 0.834627, 1.53232 0.622203, 1.54001 0.402359, 1.54304 0.175096, 1.54606 -0.0518932, 1.54743 -0.268164, 1.54743 -0.473718 Z" stroke="none" fill="#000000" transform="matrix(1.12 0 0 1 12.2288 13.9768)" />
			<rect />
		</svg>
	</g>
	<path d="M -68.8354 0 L 68.8354 0" fill="none" stroke="#000000" stroke-width="4.80000019" stroke-linecap="round" stroke-linejoin="round" transform="matrix(0.208333 0 -0 0.208333 45.3327 33.3385)" />
	<path d="M -31.6643 -19.3512 L -31.6643 19.3512, 31.6643 0 Z" stroke="none" fill="#000000" transform="matrix(0.208333 0 -0 0.208333 45.3327 33.3385)" />
	<g transform="matrix(1 0 -0 1 38.7898 8.5)">
		<svg width="39.020092" height="45.0428467">
			<defs />
			<path d="M 7.47739 3.69557 C 7.46169 3.76427, 7.42537 3.82169, 7.36845 3.8688, 7.31153 3.9159, 7.24282 3.93946, 7.16185 3.93897, 6.90864 3.93946, 6.66083 3.94486, 6.41792 3.95516, 6.1755 3.96596, 6.00031 3.99442, 5.89235 4.04104, 5.77949 4.07833, 5.69558 4.21426, 5.6416 4.44932 L 3.36906 13.298 C 3.34747 13.3981, 3.33667 13.4845, 3.33667 13.5571, 3.33667 13.6307, 3.35041 13.6754, 3.3774 13.6906, 3.45297 13.7382, 3.60902 13.7657, 3.84653 13.7735, 4.08404 13.7814, 4.33431 13.7853, 4.59832 13.7848, 4.74946 13.7853, 4.82503 13.8481, 4.82503 13.9733, 4.82503 14.0052, 4.81964 14.039, 4.80884 14.0753 L 4.77645 14.201 C 4.71707 14.358, 4.61451 14.4365, 4.46877 14.4365, 3.77341 14.4051, 3.06972 14.3894, 2.35817 14.3894, 1.65202 14.3894, 0.935075 14.4051, 0.206843 14.4365, 0.0674777 14.4365, -0.00269562 14.3688, -0.00318635 14.2324 L -0.00318635 14.1696, 0.0292014 14.0361 C 0.0728757 13.8638, 0.17789 13.7799, 0.344736 13.7848, 0.608745 13.7853, 0.862448 13.7814, 1.10487 13.7735, 1.34728 13.7657, 1.52247 13.7382, 1.63043 13.6906, 1.72759 13.6386, 1.80611 13.4973, 1.86499 13.2666 L 4.15372 4.41791 C 4.17532 4.31879, 4.18611 4.24027, 4.18611 4.18237, 4.18611 4.10434, 4.17286 4.05478, 4.14538 4.03319, 4.05951 3.99197, 3.89806 3.96596, 3.66055 3.95516, 3.42304 3.94486, 3.17768 3.93946, 2.92446 3.93897, 2.77332 3.93946, 2.69775 3.8688, 2.69775 3.72698 L 2.69775 3.67202, 2.73014 3.53069 C 2.78952 3.37415, 2.89208 3.29563, 3.03733 3.29514, 3.74397 3.31673, 4.45307 3.32704, 5.16461 3.32655, 5.88205 3.32704, 6.5936 3.31673, 7.29926 3.29514, 7.37483 3.29563, 7.4396 3.32164, 7.49358 3.37366, 7.51517 3.41586, 7.52597 3.45512, 7.52597 3.49143, 7.52597 3.52333, 7.51812 3.55228, 7.50143 3.5778 Z" stroke="none" fill="#000000" />
			<path d="M 2.03755 2.7404 C 1.48217 2.72281, 0.941631 2.71402, 0.416204 2.71402, -0.108947 2.71402, -0.649488 2.72281, -1.20514 2.7404 L -1.20514 2.36227, -0.892416 2.36227 C -0.792936 2.36254, -0.699228 2.36117, -0.61184 2.35814, -0.524177 2.3554, -0.441186 2.34798, -0.362592 2.33616, -0.283998 2.32462, -0.216121 2.3128, -0.158962 2.30071, -0.110596 2.29219, -0.0704747 2.26526, -0.0388722 2.21964, -0.00699496 2.1743, 0.0086689 2.12374, 0.0086689 2.06768 L 0.0086689 -2.8876 C -0.142199 -2.81396, -0.327967 -2.75817, -0.54836 -2.72025, -0.768753 -2.68205, -1.01031 -2.66309, -1.27302 -2.66336 L -1.27302 -3.0371 C -0.910553 -3.03682, -0.576115 -3.07997, -0.269708 -3.16653, 0.0366991 -3.25282, 0.301611 -3.41495, 0.525027 -3.65266 L 0.665452 -3.65266 C 0.764931 -3.65238, 0.814671 -3.60402, 0.814671 -3.50756 L 0.814671 2.06768 C 0.814671 2.12648, 0.829785 2.17787, 0.860014 2.22184, 0.890242 2.26581, 0.934211 2.29219, 0.99137 2.30071, 1.03974 2.3128, 1.10184 2.32462, 1.17714 2.33616, 1.25271 2.34798, 1.3379 2.3554, 1.43298 2.35814, 1.52806 2.36117, 1.62095 2.36254, 1.71136 2.36227 L 2.03755 2.36227, 2.03755 2.7404 Z" stroke="none" fill="#000000" transform="matrix(1.12 0 0 1 8.83631 13.9768)" />
			<rect />
		</svg>
	</g>
	<g transform="matrix(1 0 -0 1 250.886 29.3315)">
		<svg width="119.936646" height="119.999977">
			<defs />
			<polyline points="-5.628 0 5.628 0" fill="none" stroke="#000000" stroke-width="0.64319998" stroke-linecap="round" stroke-linejoin="round" transform="matrix(1 0 0 1 5.628 9.60638)" />
			<polyline points="0 -5.628 0 5.628" fill="none" stroke="#000000" stroke-width="0.64319998" stroke-linecap="round" stroke-linejoin="round" transform="matrix(1 0 0 1 5.628 9.60638)" />
			<rect />
		</svg>
	</g>
	<g transform="matrix(1 0 -0 1 250.886 162.222)">
		<svg width="119.936646" height="83.9999847">
			<defs />
			<polyline points="-5.628 0 5.628 0" fill="none" stroke="#000000" stroke-width="0.64319998" stroke-linecap="round" stroke-linejoin="round" transform="matrix(1 0 0 1 5.628 9.60638)" />
			<rect />
		</svg>
	</g>
</svg>
