<?xml version="1.0"?>
<svg xmlns="http://www.w3.org/2000/svg" xmlns:xlink="http://www.w3.org/1999/xlink" width="497.519531" height="159.51738">
	<defs>
		<marker id="CustomMarker-01" markerUnits="strokeWidth" markerWidth="15.000001" markerHeight="9" viewBox="-15 -4.5 15 9" orient="auto-start-reverse">
			<path d="M 0 -0 L -10 -3, -8 -0.5, -8 0.5, -10 3 Z" fill="#000000" stroke="#000000" stroke-linejoin="round" />
		</marker>
		<marker id="CustomMarker-02" markerUnits="strokeWidth" markerWidth="15.000001" markerHeight="9" viewBox="-15 -4.5 15 9" orient="auto-start-reverse">
			<path d="M 0 -0 L -10 -3, -8 -0.5, -8 0.5, -10 3 Z" fill="#000000" stroke="#000000" stroke-linejoin="round" />
		</marker>
		<marker id="CustomMarker-03" markerUnits="strokeWidth" markerWidth="15.000001" markerHeight="9" viewBox="-15 -4.5 15 9" orient="auto-start-reverse">
			<path d="M 0 -0 L -10 -3, -8 -0.5, -8 0.5, -10 3 Z" fill="#000000" stroke="#000000" stroke-linejoin="round" />
		</marker>
		<marker id="CustomMarker-04" markerUnits="strokeWidth" markerWidth="8.25" markerHeight="7.5" viewBox="-8.25 -3.75 8.25 7.5" orient="auto-start-reverse">
			<path d="M -5.5 -2.5 L 0 -0, -5.5 2.5" fill="none" stroke="#000000" stroke-linejoin="round" />
		</marker>
		<marker id="CustomMarker-05" markerUnits="strokeWidth" markerWidth="15.000001" markerHeight="9" viewBox="-15 -4.5 15 9" orient="auto-start-reverse">
			<path d="M 0 -0 L -10 -3, -8 -0.5, -8 0.5, -10 3 Z" fill="#000000" stroke="#000000" stroke-linejoin="round" />
		</marker>
		<marker id="CustomMarker-06" markerUnits="strokeWidth" markerWidth="15.000001" markerHeight="9" viewBox="-15 -4.5 15 9" orient="auto-start-reverse">
			<path d="M 0 -0 L -10 -3, -8 -0.5, -8 0.5, -10 3 Z" fill="#000000" stroke="#000000" stroke-linejoin="round" />
		</marker>
		<marker id="CustomMarker-07" markerUnits="strokeWidth" markerWidth="15.000001" markerHeight="9" viewBox="-15 -4.5 15 9" orient="auto-start-reverse">
			<path d="M 0 -0 L -10 -3, -8 -0.5, -8 0.5, -10 3 Z" fill="#000000" stroke="#000000" stroke-linejoin="round" />
		</marker>
	</defs>
	<path d="M -29.606 51.2791 L 29.606 -51.2791" fill="none" stroke="#000000" stroke-width="1.60000014" stroke-linecap="round" stroke-linejoin="round" transform="matrix(0.833333 0 0 0.833333 103.815 89.2104)" />
	<path d="M -29.606 -51.2791 L 29.6062 51.2791" fill="none" stroke="#000000" stroke-width="1.60000014" stroke-linecap="round" stroke-linejoin="round" transform="matrix(0.833333 0 0 0.833333 153.048 89.2104)" />
	<path d="M -36.4382 0 L -21.8629 0" fill="none" stroke="#000000" stroke-width="1.20000005" stroke-linecap="round" stroke-linejoin="round" transform="matrix(-0.416667 -0.721688 0.721688 -0.416667 153.048 89.2104)" />
	<path d="M 21.8629 0 L 36.4382 0" fill="none" stroke="#000000" stroke-width="1.20000005" stroke-linecap="round" stroke-linejoin="round" transform="matrix(-0.416667 -0.721688 0.721688 -0.416667 153.048 89.2104)" />
	<path d="M -21.8629 -5.46572 L 21.8629 -5.46572, 21.8629 5.46572, -21.8629 5.46572 Z" stroke="none" fill="#FFFFFF" transform="matrix(-0.416667 -0.721688 0.721688 -0.416667 153.048 89.2104)" />
	<path d="M -21.8629 -5.46572 L 21.8629 -5.46572, 21.8629 5.46572, -21.8629 5.46572 Z" fill="none" stroke="#000000" stroke-width="1.80000007" stroke-linecap="round" stroke-linejoin="round" transform="matrix(-0.416667 -0.721688 0.721688 -0.416667 153.048 89.2104)" />
	<path d="M -59.2123 0 L 59.2121 0" fill="none" stroke="#000000" stroke-width="1.60000014" stroke-linecap="round" stroke-linejoin="round" transform="matrix(0.833333 0 0 0.833333 128.487 131.943)" />
	<path d="M -36.4381 0 L -21.8629 0" fill="none" stroke="#000000" stroke-width="1.20000005" stroke-linecap="round" stroke-linejoin="round" transform="matrix(0.416667 -0.721688 0.721688 0.416667 103.815 89.2104)" />
	<path d="M 21.8629 0 L 36.4381 0" fill="none" stroke="#000000" stroke-width="1.20000005" stroke-linecap="round" stroke-linejoin="round" transform="matrix(0.416667 -0.721688 0.721688 0.416667 103.815 89.2104)" />
	<path d="M -21.8629 -5.46571 L 21.8629 -5.46571, 21.8629 5.46571, -21.8629 5.46571 Z" stroke="none" fill="#FFFFFF" transform="matrix(0.416667 -0.721688 0.721688 0.416667 103.815 89.2104)" />
	<path d="M -21.8629 -5.46571 L 21.8629 -5.46571, 21.8629 5.46571, -21.8629 5.46571 Z" fill="none" stroke="#000000" stroke-width="1.80000007" stroke-linecap="round" stroke-linejoin="round" transform="matrix(0.416667 -0.721688 0.721688 0.416667 103.815 89.2104)" />
	<path d="M -36.4382 0 L -21.8629 0" fill="none" stroke="#000000" stroke-width="1.20000005" stroke-linecap="round" stroke-linejoin="round" transform="matrix(0.833333 -2.5166e-007 2.5166e-007 0.833333 128.351 131.943)" />
	<path d="M 21.8629 0 L 36.4382 0" fill="none" stroke="#000000" stroke-width="1.20000005" stroke-linecap="round" stroke-linejoin="round" transform="matrix(0.833333 -2.5166e-007 2.5166e-007 0.833333 128.351 131.943)" />
	<rect x="-21.8629036" y="-5.46569824" width="43.7258072" height="10.9313965" stroke="none" fill="#FFFFFF" transform="matrix(0.833333 -2.5166e-007 2.5166e-007 0.833333 128.351 131.943)" />
	<path d="M -21.8629 -5.4657 L 21.8629 -5.4657, 21.8629 5.4657, -21.8629 5.4657 Z" fill="none" stroke="#000000" stroke-width="1.80000007" stroke-linecap="round" stroke-linejoin="round" transform="matrix(0.833333 -2.5166e-007 2.5166e-007 0.833333 128.351 131.943)" />
	<ellipse cx="343.60669565200806" cy="493.17755746841431" rx="3.1500000953674316" ry="3.1500000953674316" stroke="none" fill="#000000" transform="matrix(0.833333 0 0 0.833333 -157.907 -364.408)" />
	<ellipse cx="284.46054697036743" cy="595.62113046646118" rx="3.1500000953674316" ry="3.1500000953674316" stroke="none" fill="#000000" transform="matrix(0.833333 0 0 0.833333 -157.907 -364.408)" />
	<ellipse cx="402.75247812271118" cy="595.62113046646118" rx="3.1500000953674316" ry="3.1500000953674316" stroke="none" fill="#000000" transform="matrix(0.833333 0 0 0.833333 -157.907 -364.408)" />
	<path d="M -20.0216 11.5594 L 20.0216 -11.5591" fill="none" stroke="#000000" stroke-width="1.60000014" stroke-linecap="round" stroke-linejoin="round" marker-start="url(#CustomMarker-01)" transform="matrix(0.833333 0 0 0.833333 62.3098 141.384)" />
	<path d="M 20.0214 11.5594 L -20.0215 -11.5591" fill="none" stroke="#000000" stroke-width="1.60000014" stroke-linecap="round" stroke-linejoin="round" marker-start="url(#CustomMarker-02)" transform="matrix(0.833333 0 0 0.833333 194.28 141.384)" />
	<path d="M 0 23.119 L 0 -23.1188" fill="none" stroke="#000000" stroke-width="1.60000014" stroke-linecap="round" stroke-linejoin="round" marker-start="url(#CustomMarker-03)" transform="matrix(0.833333 0 0 0.833333 128.351 27.7656)" />
	<g transform="matrix(1 0 -0 1 93.1238 11.3804)">
		<svg width="77.9989777" height="45.0428467">
			<defs />
			<path d="M 6.82472 16.7669 C 5.69082 16.731, 4.58721 16.7131, 3.51447 16.7131, 2.44228 16.7131, 1.33868 16.731, 0.204215 16.7669 L 0.204215 15.9949, 0.842701 15.9949 C 1.0458 15.9955, 1.23713 15.9927, 1.41554 15.9865, 1.59452 15.9809, 1.76396 15.9657, 1.92442 15.9416, 2.08489 15.918, 2.22347 15.8939, 2.34017 15.8692, 2.43892 15.8518, 2.52083 15.7969, 2.58535 15.7037, 2.65043 15.6111, 2.68242 15.5079, 2.68242 15.3935 L 2.68242 5.27643 C 2.37439 5.4268, 1.99512 5.54069, 1.54515 5.61812, 1.09518 5.6961, 0.602006 5.73482, 0.0656334 5.73426 L 0.0656334 4.97122 C 0.805671 4.97178, 1.48848 4.88369, 2.11406 4.70696, 2.73964 4.53078, 3.2805 4.19976, 3.73665 3.71444 L 4.02335 3.71444 C 4.22645 3.715, 4.328 3.81375, 4.328 4.01068 L 4.328 15.3935 C 4.328 15.5135, 4.35886 15.6184, 4.42058 15.7082, 4.48229 15.798, 4.57206 15.8518, 4.68876 15.8692, 4.78751 15.8939, 4.91431 15.918, 5.06804 15.9416, 5.22233 15.9657, 5.39626 15.9809, 5.59039 15.9865, 5.78451 15.9927, 5.97415 15.9955, 6.15874 15.9949 L 6.82472 15.9949, 6.82472 16.7669 Z" stroke="none" fill="#000000" />
			<path d="M 24.0685 16.8334 C 23.251 16.7911, 22.4621 16.7693, 21.7006 16.7693 L 21.3325 16.7693 C 20.4457 16.7819, 19.524 16.8002, 18.5679 16.8243 L 18.5679 16.064 C 18.8513 16.0646, 19.106 16.0542, 19.3322 16.0325, 19.5589 16.0113, 19.7598 15.9667, 19.9362 15.8991, 20.018 15.8567, 20.0902 15.7926, 20.1531 15.7067, 20.1783 15.677, 20.1909 15.6369, 20.1909 15.5877, 20.1909 15.5636, 20.1881 15.5361, 20.1812 15.5052 L 19.1152 12.5465, 14.4824 12.5465, 13.6053 15.0014 C 13.5739 15.0753, 13.5578 15.1457, 13.5578 15.2121, 13.5578 15.2739, 13.5676 15.3346, 13.5865 15.3953, 13.6368 15.5304, 13.7187 15.6403, 13.8315 15.7251, 13.9952 15.8602, 14.1698 15.9501, 14.3553 15.9959, 14.5408 16.0417, 14.7658 16.0646, 15.0298 16.064 L 15.0298 16.8243 C 14.2689 16.8002, 13.5424 16.7819, 12.8502 16.7693 L 12.5582 16.7693 C 11.9542 16.7693, 11.325 16.7911, 10.6712 16.8334 L 10.6712 16.064 C 10.9735 16.0646, 11.2357 16.0451, 11.459 16.005, 11.6823 15.9655, 11.8976 15.8876, 12.1048 15.7709, 12.4449 15.5819, 12.6836 15.3043, 12.8222 14.9373 L 16.8979 3.4596 C 16.9608 3.27697, 17.0931 3.18824, 17.294 3.19396 L 17.4452 3.19396 C 17.6467 3.19453, 17.7784 3.28327, 17.8413 3.4596 L 22.1249 15.4502 C 22.1569 15.567, 22.2056 15.6707, 22.2714 15.7623, 22.3378 15.8539, 22.4272 15.9151, 22.5399 15.9449, 22.7037 16.0067, 22.9195 16.0417, 23.1869 16.0508, 23.4542 16.06, 23.7479 16.0646, 24.0685 16.064 L 24.0685 16.8334 Z M 16.8131 6.04277 L 14.7561 11.7862, 18.8415 11.7862 Z" stroke="none" fill="#000000" />
			<rect />
		</svg>
	</g>
	<g transform="matrix(1 0 -0 1 9 120.735)">
		<svg width="161.874329" height="86.9571228">
			<defs />
			<polyline points="-4.07092 0 4.07092 0" fill="none" stroke="#000000" stroke-width="0.750400007" stroke-linecap="round" stroke-linejoin="round" transform="matrix(1 0 0 1 4.07092 11.2074)" />
			<path d="M 21.1863 16.7669 L 13.6614 16.7669, 13.6614 16.2732 C 13.6614 16.2379, 13.6799 16.184, 13.7169 16.1116 L 16.7399 12.826 C 17.0979 12.4316, 17.4597 12.0277, 17.8267 11.6147, 18.1936 11.2018, 18.5213 10.7799, 18.8108 10.349, 19.1003 9.91808, 19.3314 9.47372, 19.5042 9.01589, 19.677 8.55807, 19.7629 8.0778, 19.7629 7.57453, 19.7629 7.15037, 19.7079 6.7537, 19.5968 6.38565, 19.4857 6.01759, 19.3258 5.69442, 19.116 5.41613, 18.9061 5.13785, 18.6441 4.91343, 18.3299 4.74286, 18.0157 4.5723, 17.6522 4.48702, 17.2392 4.48646, 16.6232 4.48702, 16.079 4.67105, 15.6077 5.0391, 15.1364 5.40716, 14.8233 5.8128, 14.669 6.25492, 14.6387 6.26726, 14.6881 6.27343, 14.8171 6.27287 L 14.9742 6.27287 C 15.1594 6.31551, 15.3193 6.38004, 15.4551 6.46644, 15.5908 6.5534, 15.7047 6.67291, 15.7973 6.82552, 15.8899 6.97812, 15.9359 7.16215, 15.9359 7.37704, 15.9359 7.73668, 15.8192 8.01216, 15.5847 8.20348, 15.3502 8.39536, 15.0881 8.49074, 14.7986 8.49018, 14.5215 8.49074, 14.2628 8.39536, 14.0221 8.20348, 13.782 8.01216, 13.6614 7.73668, 13.6614 7.37704, 13.6614 6.87489, 13.7601 6.39911, 13.9576 5.95026, 14.1551 5.50142, 14.4227 5.1126, 14.7616 4.78326, 15.1005 4.45448, 15.5011 4.19415, 15.9634 4.00226, 16.4257 3.81094, 16.9161 3.715, 17.4334 3.71444, 18.0741 3.715, 18.6615 3.80926, 19.1945 3.99778, 19.7275 4.18629, 20.182 4.45728, 20.5579 4.81019, 20.9338 5.16366, 21.2284 5.57211, 21.441 6.03554, 21.6537 6.49954, 21.7597 7.01235, 21.7597 7.57453, 21.7597 8.19731, 21.6183 8.77071, 21.3344 9.29418, 21.0511 9.81821, 20.6999 10.2985, 20.2807 10.735, 19.8616 11.172, 19.4161 11.5833, 18.9449 11.9693, 18.4736 12.3553, 18.0466 12.7307, 17.6645 13.0954 L 15.5381 15.0972, 18.321 15.0972 C 18.7092 15.0978, 19.0717 15.095, 19.4072 15.0888, 19.7432 15.0832, 20.0283 15.0708, 20.2622 15.0529, 20.4967 15.0349, 20.6168 15.0232, 20.6224 15.0164, 20.6718 14.9749, 20.7184 14.8913, 20.7616 14.7656, 20.8048 14.64, 20.8446 14.4918, 20.8816 14.3213, 20.9187 14.1507, 20.9557 13.9773, 20.9927 13.8006, 21.0298 13.6244, 21.0634 13.4309, 21.0943 13.221 L 21.7782 13.221 Z" stroke="none" fill="#000000" />
			<path d="M 38.4059 16.8334 C 37.5884 16.7911, 36.7995 16.7693, 36.038 16.7693 L 35.6699 16.7693 C 34.7831 16.7819, 33.8613 16.8002, 32.9052 16.8243 L 32.9052 16.064 C 33.1886 16.0646, 33.4434 16.0542, 33.6695 16.0325, 33.8963 16.0113, 34.0972 15.9667, 34.2735 15.8991, 34.3554 15.8567, 34.4275 15.7926, 34.4905 15.7067, 34.5157 15.677, 34.5283 15.6369, 34.5283 15.5877, 34.5283 15.5636, 34.5254 15.5361, 34.5186 15.5052 L 33.4526 12.5465, 28.8198 12.5465, 27.9427 15.0014 C 27.9112 15.0753, 27.8952 15.1457, 27.8952 15.2121, 27.8952 15.2739, 27.9049 15.3346, 27.9238 15.3953, 27.9742 15.5304, 28.0561 15.6403, 28.1689 15.7251, 28.3326 15.8602, 28.5072 15.9501, 28.6927 15.9959, 28.8782 16.0417, 29.1032 16.0646, 29.3671 16.064 L 29.3671 16.8243 C 28.6063 16.8002, 27.8798 16.7819, 27.1876 16.7693 L 26.8956 16.7693 C 26.2916 16.7693, 25.6624 16.7911, 25.0086 16.8334 L 25.0086 16.064 C 25.3109 16.0646, 25.5731 16.0451, 25.7964 16.005, 26.0197 15.9655, 26.2349 15.8876, 26.4422 15.7709, 26.7823 15.5819, 27.021 15.3043, 27.1595 14.9373 L 31.2352 3.4596 C 31.2982 3.27697, 31.4305 3.18824, 31.6314 3.19396 L 31.7826 3.19396 C 31.9841 3.19453, 32.1158 3.28327, 32.1787 3.4596 L 36.4622 15.4502 C 36.4943 15.567, 36.543 15.6707, 36.6088 15.7623, 36.6752 15.8539, 36.7645 15.9151, 36.8773 15.9449, 37.0411 16.0067, 37.2569 16.0417, 37.5243 16.0508, 37.7916 16.06, 38.0853 16.0646, 38.4059 16.064 L 38.4059 16.8334 Z M 31.1505 6.04277 L 29.0935 11.7862, 33.1789 11.7862 Z" stroke="none" fill="#000000" />
			<rect />
		</svg>
	</g>
	<g transform="matrix(1 0 -0 1 210.968 120.678)">
		<svg width="48.0251122" height="54.0428391">
			<defs />
			<path d="M 8.72362 4.3115 C 8.7053 4.39165, 8.66294 4.45864, 8.59652 4.5136, 8.53011 4.56856, 8.44996 4.59604, 8.3555 4.59547, 8.06008 4.59604, 7.77097 4.60234, 7.48757 4.61436, 7.20475 4.62695, 7.00037 4.66016, 6.87442 4.71455, 6.74274 4.75806, 6.64484 4.91664, 6.58186 5.19088 L 3.93057 15.5144 C 3.90538 15.6312, 3.89278 15.7319, 3.89278 15.8167, 3.89278 15.9025, 3.90881 15.9546, 3.9403 15.9724, 4.02847 16.0279, 4.21053 16.06, 4.48762 16.0691, 4.76472 16.0783, 5.0567 16.0829, 5.36471 16.0823, 5.54104 16.0829, 5.62921 16.1562, 5.62921 16.3021, 5.62921 16.3394, 5.62291 16.3789, 5.61031 16.4212 L 5.57253 16.5678 C 5.50325 16.751, 5.3836 16.8426, 5.21356 16.8426, 4.40232 16.806, 3.58134 16.7876, 2.7512 16.7876, 1.92736 16.7876, 1.09092 16.806, 0.241318 16.8426, 0.0787248 16.8426, -0.0031441 16.7636, -0.0037166 16.6044 L -0.0037166 16.5311, 0.034069 16.3754 C 0.0850224 16.1745, 0.207539 16.0766, 0.402193 16.0823, 0.710203 16.0829, 1.00619 16.0783, 1.28901 16.0691, 1.57183 16.06, 1.77622 16.0279, 1.90217 15.9724, 2.01553 15.9117, 2.10713 15.7468, 2.17583 15.4777 L 4.84601 5.15423 C 4.8712 5.03859, 4.8838 4.94699, 4.8838 4.87943, 4.8838 4.7884, 4.86834 4.73058, 4.83628 4.70539, 4.73609 4.6573, 4.54774 4.62695, 4.27064 4.61436, 3.99355 4.60234, 3.70729 4.59604, 3.41188 4.59547, 3.23554 4.59604, 3.14738 4.5136, 3.14738 4.34814 L 3.14738 4.28402, 3.18516 4.11914 C 3.25444 3.93651, 3.37409 3.84491, 3.54355 3.84433, 4.36797 3.86952, 5.19524 3.88155, 6.02538 3.88097, 6.86239 3.88155, 7.69253 3.86952, 8.5158 3.84433, 8.60397 3.84491, 8.67954 3.87525, 8.74251 3.93593, 8.7677 3.98517, 8.7803 4.03097, 8.7803 4.07334, 8.7803 4.11055, 8.77114 4.14433, 8.75167 4.1741 Z" stroke="none" fill="#000000" />
			<path d="M 2.98718 -0.680915 C 2.94871 -0.526704, 2.87016 -0.411286, 2.75218 -0.33434, 2.63419 -0.257395, 2.51557 -0.218922, 2.39566 -0.219243, 2.27255 -0.218922, 2.17028 -0.258357, 2.08916 -0.337226, 2.02953 -0.394935, 1.99779 -0.470277, 1.99394 -0.562932, 1.99394 -0.600122, 2.001 -0.648213, 2.0151 -0.706563, 2.05422 -0.836088, 2.11417 -0.934514, 2.19496 -1.0012, 2.27608 -1.06789, 2.3325 -1.10636, 2.36392 -1.11694, 2.29724 -1.16791, 2.1597 -1.19356, 1.95195 -1.19388, 1.76888 -1.19356, 1.60505 -1.09866, 1.46078 -0.908866, 1.31651 -0.719067, 1.20878 -0.490796, 1.13825 -0.224373 L 0.652211 1.65309 C 0.603158 1.84161, 0.566288 2.02115, 0.541281 2.19171, 0.527495 2.25006, 0.520442 2.30136, 0.520442 2.3456, 0.520442 2.45204, 0.538075 2.55271, 0.573021 2.64825, 0.608288 2.75117, 0.661188 2.83324, 0.731721 2.8948, 0.802254 2.95635, 0.892024 2.98713, 1.00103 2.98681, 1.1421 2.98713, 1.27771 2.95058, 1.40788 2.87684, 1.53804 2.80343, 1.65795 2.70436, 1.76696 2.57932, 1.87628 2.45461, 1.97311 2.30937, 2.05774 2.1433, 2.14239 1.97755, 2.20907 1.8073, 2.25812 1.63257, 2.27928 1.54409, 2.33924 1.49952, 2.43798 1.4992 L 2.55917 1.4992 C 2.65087 1.49952, 2.69671 1.53383, 2.69671 1.6018, 2.69671 1.62264, 2.69158 1.64155, 2.68068 1.65822, 2.63163 1.86373, 2.55148 2.06635, 2.44055 2.26641, 2.32962 2.46647, 2.20041 2.64344, 2.05229 2.79733, 1.9045 2.95122, 1.7365 3.07786, 1.54798 3.17661, 1.35947 3.276, 1.15781 3.32537, 0.943 3.32537, 0.724668 3.32537, 0.536152 3.27856, 0.377773 3.1843, 0.219393 3.09069, 0.0908306 2.96822, -0.00791597 2.81753, -0.0393353 2.78034, -0.0640218 2.74187, -0.081655 2.70243, -0.0992883 2.66332, -0.104739 2.65723, -0.0976853 2.68416, -0.182325 2.82459, -0.316018 2.96661, -0.499083 3.11024, -0.682149 3.25388, -0.893428 3.32537, -1.13324 3.32537, -1.26693 3.32537, -1.39902 3.30838, -1.52919 3.27407, -1.65935 3.24009, -1.77317 3.18719, -1.86999 3.11537, -1.96682 3.04356, -2.03991 2.95635, -2.08929 2.85344, -2.11365 2.7922, -2.12584 2.72552, -2.12616 2.65338, -2.12584 2.60241, -2.11878 2.54245, -2.105 2.47384, -2.0662 2.32027, -1.98701 2.20485, -1.86743 2.12791, -1.74752 2.05096, -1.62794 2.01249, -1.50803 2.01217, -1.38492 2.01249, -1.27912 2.05193, -1.19127 2.13015, -1.13132 2.1885, -1.1015 2.26385, -1.1015 2.35586, -1.1015 2.40395, -1.10855 2.45204, -1.12266 2.49949, -1.15408 2.6194, -1.21147 2.71622, -1.29418 2.78964, -1.3769 2.86338, -1.43589 2.90345, -1.47116 2.90987, -1.40415 2.96501, -1.26854 2.99066, -1.06431 2.98681, -0.881245 2.98713, -0.715813 2.89159, -0.568014 2.69987, -0.419894 2.50847, -0.312491 2.27924, -0.245805 2.01217 L 0.245683 0.124446 C 0.295056 -0.0531695, 0.333529 -0.227579, 0.361742 -0.398782, 0.368796 -0.453285, 0.372322 -0.504582, 0.372322 -0.552673, 0.372322 -0.658473, 0.356612 -0.75754, 0.324872 -0.850195, 0.289606 -0.952468, 0.235103 -1.03518, 0.161043 -1.09866, 0.0873039 -1.16182, -0.00438929 -1.19356, -0.113716 -1.19388, -0.254461 -1.19356, -0.390719 -1.15669, -0.522808 -1.08328, -0.654898 -1.00954, -0.775445 -0.911431, -0.884772 -0.788318, -0.993778 -0.665205, -1.0906 -0.522215, -1.17524 -0.359989, -1.25988 -0.197442, -1.32144 -0.0255973, -1.36023 0.155224, -1.3987 0.247879, -1.46411 0.295649, -1.5558 0.298855 L -1.67186 0.298855 C -1.7565 0.299176, -1.79882 0.256536, -1.79882 0.170613 L -1.79882 0.134705 C -1.74592 -0.0768943, -1.6648 -0.283044, -1.5558 -0.483101, -1.44647 -0.683159, -1.31599 -0.860133, -1.16466 -1.01402, -1.01333 -1.16791, -0.844055 -1.29359, -0.657462 -1.39106, -0.47087 -1.48852, -0.268247 -1.53725, -0.0502357 -1.53757, 0.161364 -1.53725, 0.347956 -1.49108, 0.509862 -1.39875, 0.671768 -1.30642, 0.803857 -1.1833, 0.90581 -1.02973, 0.92697 -0.991902, 0.946527 -0.951506, 0.96416 -0.908866, 0.981793 -0.865905, 0.986923 -0.855004, 0.97987 -0.875843, 1.06804 -1.02589, 1.20365 -1.17369, 1.38672 -1.31924, 1.56978 -1.46447, 1.77914 -1.53725, 2.0151 -1.53757, 2.14912 -1.53725, 2.28217 -1.5209, 2.41426 -1.48852, 2.54635 -1.45582, 2.66048 -1.40388, 2.75731 -1.33206, 2.85413 -1.26025, 2.92562 -1.17144, 2.97147 -1.06564, 2.99616 -1.00376, 3.00834 -0.933552, 3.00834 -0.855325, 3.00834 -0.803707, 3.00129 -0.745677, 2.98718 -0.680915 Z" stroke="none" fill="#000000" transform="matrix(1.12 0 0 1 10.9463 16.3063)" />
			<rect />
		</svg>
	</g>
	<path d="M -36.7727 0 L 36.7726 0" fill="none" stroke="#000000" stroke-width="3.20000029" stroke-linecap="round" stroke-linejoin="round" marker-end="url(#CustomMarker-04)" transform="matrix(0.833333 0 0 0.833333 296.863 89.2104)" />
	<ellipse cx="708.16261005401611" cy="544.34211444854736" rx="4.8000001907348633" ry="4.8000001907348633" stroke="none" fill="#000000" transform="matrix(0.833333 0 0 0.833333 -157.907 -364.408)" />
	<path d="M -20.0215 11.5594 L 20.0215 -11.5591" fill="none" stroke="#000000" stroke-width="1.60000014" stroke-linecap="round" stroke-linejoin="round" marker-start="url(#CustomMarker-05)" transform="matrix(0.833333 0 0 0.833333 414.339 99.471)" />
	<path d="M 20.0215 11.5594 L -20.0215 -11.5591" fill="none" stroke="#000000" stroke-width="1.60000014" stroke-linecap="round" stroke-linejoin="round" marker-start="url(#CustomMarker-06)" transform="matrix(0.833333 0 0 0.833333 450.833 99.471)" />
	<path d="M 0 23.1188 L 0 -23.1188" fill="none" stroke="#000000" stroke-width="1.60000014" stroke-linecap="round" stroke-linejoin="round" marker-start="url(#CustomMarker-07)" transform="matrix(0.833333 0 0 0.833333 432.229 68.4214)" />
	<g transform="matrix(1 0 -0 1 420.038 16.5582)">
		<svg width="77.9989777" height="45.0428467">
			<defs />
			<path d="M 6.82472 16.7669 C 5.69082 16.731, 4.58721 16.7131, 3.51447 16.7131, 2.44228 16.7131, 1.33868 16.731, 0.204215 16.7669 L 0.204215 15.9949, 0.842701 15.9949 C 1.0458 15.9955, 1.23713 15.9927, 1.41554 15.9865, 1.59452 15.9809, 1.76396 15.9657, 1.92442 15.9416, 2.08489 15.918, 2.22347 15.8939, 2.34017 15.8692, 2.43892 15.8518, 2.52083 15.7969, 2.58535 15.7037, 2.65043 15.6111, 2.68242 15.5079, 2.68242 15.3935 L 2.68242 5.27643 C 2.37439 5.4268, 1.99512 5.54069, 1.54515 5.61812, 1.09518 5.6961, 0.602006 5.73482, 0.0656334 5.73426 L 0.0656334 4.97122 C 0.805671 4.97178, 1.48848 4.88369, 2.11406 4.70696, 2.73964 4.53078, 3.2805 4.19976, 3.73665 3.71444 L 4.02335 3.71444 C 4.22645 3.715, 4.328 3.81375, 4.328 4.01068 L 4.328 15.3935 C 4.328 15.5135, 4.35886 15.6184, 4.42058 15.7082, 4.48229 15.798, 4.57206 15.8518, 4.68876 15.8692, 4.78751 15.8939, 4.91431 15.918, 5.06804 15.9416, 5.22233 15.9657, 5.39626 15.9809, 5.59039 15.9865, 5.78451 15.9927, 5.97415 15.9955, 6.15874 15.9949 L 6.82472 15.9949, 6.82472 16.7669 Z" stroke="none" fill="#000000" />
			<path d="M 24.0685 16.8334 C 23.251 16.7911, 22.4621 16.7693, 21.7006 16.7693 L 21.3325 16.7693 C 20.4457 16.7819, 19.524 16.8002, 18.5679 16.8243 L 18.5679 16.064 C 18.8513 16.0646, 19.106 16.0542, 19.3322 16.0325, 19.5589 16.0113, 19.7598 15.9667, 19.9362 15.8991, 20.018 15.8567, 20.0902 15.7926, 20.1531 15.7067, 20.1783 15.677, 20.1909 15.6369, 20.1909 15.5877, 20.1909 15.5636, 20.1881 15.5361, 20.1812 15.5052 L 19.1152 12.5465, 14.4824 12.5465, 13.6053 15.0014 C 13.5739 15.0753, 13.5578 15.1457, 13.5578 15.2121, 13.5578 15.2739, 13.5676 15.3346, 13.5865 15.3953, 13.6368 15.5304, 13.7187 15.6403, 13.8315 15.7251, 13.9952 15.8602, 14.1698 15.9501, 14.3553 15.9959, 14.5408 16.0417, 14.7658 16.0646, 15.0298 16.064 L 15.0298 16.8243 C 14.2689 16.8002, 13.5424 16.7819, 12.8502 16.7693 L 12.5582 16.7693 C 11.9542 16.7693, 11.325 16.7911, 10.6712 16.8334 L 10.6712 16.064 C 10.9735 16.0646, 11.2357 16.0451, 11.459 16.005, 11.6823 15.9655, 11.8976 15.8876, 12.1048 15.7709, 12.4449 15.5819, 12.6836 15.3043, 12.8222 14.9373 L 16.8979 3.4596 C 16.9608 3.27697, 17.0931 3.18824, 17.294 3.19396 L 17.4452 3.19396 C 17.6467 3.19453, 17.7784 3.28327, 17.8413 3.4596 L 22.1249 15.4502 C 22.1569 15.567, 22.2056 15.6707, 22.2714 15.7623, 22.3378 15.8539, 22.4272 15.9151, 22.5399 15.9449, 22.7037 16.0067, 22.9195 16.0417, 23.1869 16.0508, 23.4542 16.06, 23.7479 16.0646, 24.0685 16.064 L 24.0685 16.8334 Z M 16.8131 6.04277 L 14.7561 11.7862, 18.8415 11.7862 Z" stroke="none" fill="#000000" />
			<rect />
		</svg>
	</g>
	<g transform="matrix(1 0 -0 1 358.509 111.892)">
		<svg width="161.874329" height="86.9571228">
			<defs />
			<polyline points="-4.07092 0 4.07092 0" fill="none" stroke="#000000" stroke-width="0.750400007" stroke-linecap="round" stroke-linejoin="round" transform="matrix(1 0 0 1 4.07092 11.2074)" />
			<path d="M 21.1863 16.7669 L 13.6614 16.7669, 13.6614 16.2732 C 13.6614 16.2379, 13.6799 16.184, 13.7169 16.1116 L 16.7399 12.826 C 17.0979 12.4316, 17.4597 12.0277, 17.8267 11.6147, 18.1936 11.2018, 18.5213 10.7799, 18.8108 10.349, 19.1003 9.91808, 19.3314 9.47372, 19.5042 9.01589, 19.677 8.55807, 19.7629 8.0778, 19.7629 7.57453, 19.7629 7.15037, 19.7079 6.7537, 19.5968 6.38565, 19.4857 6.01759, 19.3258 5.69442, 19.116 5.41613, 18.9061 5.13785, 18.6441 4.91343, 18.3299 4.74286, 18.0157 4.5723, 17.6522 4.48702, 17.2392 4.48646, 16.6232 4.48702, 16.079 4.67105, 15.6077 5.0391, 15.1364 5.40716, 14.8233 5.8128, 14.669 6.25492, 14.6387 6.26726, 14.6881 6.27343, 14.8171 6.27287 L 14.9742 6.27287 C 15.1594 6.31551, 15.3193 6.38004, 15.4551 6.46644, 15.5908 6.5534, 15.7047 6.67291, 15.7973 6.82552, 15.8899 6.97812, 15.9359 7.16215, 15.9359 7.37704, 15.9359 7.73668, 15.8192 8.01216, 15.5847 8.20348, 15.3502 8.39536, 15.0881 8.49074, 14.7986 8.49018, 14.5215 8.49074, 14.2628 8.39536, 14.0221 8.20348, 13.782 8.01216, 13.6614 7.73668, 13.6614 7.37704, 13.6614 6.87489, 13.7601 6.39911, 13.9576 5.95026, 14.1551 5.50142, 14.4227 5.1126, 14.7616 4.78326, 15.1005 4.45448, 15.5011 4.19415, 15.9634 4.00226, 16.4257 3.81094, 16.9161 3.715, 17.4334 3.71444, 18.0741 3.715, 18.6615 3.80926, 19.1945 3.99778, 19.7275 4.18629, 20.182 4.45728, 20.5579 4.81019, 20.9338 5.16366, 21.2284 5.57211, 21.441 6.03554, 21.6537 6.49954, 21.7597 7.01235, 21.7597 7.57453, 21.7597 8.19731, 21.6183 8.77071, 21.3344 9.29418, 21.0511 9.81821, 20.6999 10.2985, 20.2807 10.735, 19.8616 11.172, 19.4161 11.5833, 18.9449 11.9693, 18.4736 12.3553, 18.0466 12.7307, 17.6645 13.0954 L 15.5381 15.0972, 18.321 15.0972 C 18.7092 15.0978, 19.0717 15.095, 19.4072 15.0888, 19.7432 15.0832, 20.0283 15.0708, 20.2622 15.0529, 20.4967 15.0349, 20.6168 15.0232, 20.6224 15.0164, 20.6718 14.9749, 20.7184 14.8913, 20.7616 14.7656, 20.8048 14.64, 20.8446 14.4918, 20.8816 14.3213, 20.9187 14.1507, 20.9557 13.9773, 20.9927 13.8006, 21.0298 13.6244, 21.0634 13.4309, 21.0943 13.221 L 21.7782 13.221 Z" stroke="none" fill="#000000" />
			<path d="M 38.4059 16.8334 C 37.5884 16.7911, 36.7995 16.7693, 36.038 16.7693 L 35.6699 16.7693 C 34.7831 16.7819, 33.8613 16.8002, 32.9052 16.8243 L 32.9052 16.064 C 33.1886 16.0646, 33.4434 16.0542, 33.6695 16.0325, 33.8963 16.0113, 34.0972 15.9667, 34.2735 15.8991, 34.3554 15.8567, 34.4275 15.7926, 34.4905 15.7067, 34.5157 15.677, 34.5283 15.6369, 34.5283 15.5877, 34.5283 15.5636, 34.5254 15.5361, 34.5186 15.5052 L 33.4526 12.5465, 28.8198 12.5465, 27.9427 15.0014 C 27.9112 15.0753, 27.8952 15.1457, 27.8952 15.2121, 27.8952 15.2739, 27.9049 15.3346, 27.9238 15.3953, 27.9742 15.5304, 28.0561 15.6403, 28.1689 15.7251, 28.3326 15.8602, 28.5072 15.9501, 28.6927 15.9959, 28.8782 16.0417, 29.1032 16.0646, 29.3671 16.064 L 29.3671 16.8243 C 28.6063 16.8002, 27.8798 16.7819, 27.1876 16.7693 L 26.8956 16.7693 C 26.2916 16.7693, 25.6624 16.7911, 25.0086 16.8334 L 25.0086 16.064 C 25.3109 16.0646, 25.5731 16.0451, 25.7964 16.005, 26.0197 15.9655, 26.2349 15.8876, 26.4422 15.7709, 26.7823 15.5819, 27.021 15.3043, 27.1595 14.9373 L 31.2352 3.4596 C 31.2982 3.27697, 31.4305 3.18824, 31.6314 3.19396 L 31.7826 3.19396 C 31.9841 3.19453, 32.1158 3.28327, 32.1787 3.4596 L 36.4622 15.4502 C 36.4943 15.567, 36.543 15.6707, 36.6088 15.7623, 36.6752 15.8539, 36.7645 15.9151, 36.8773 15.9449, 37.0411 16.0067, 37.2569 16.0417, 37.5243 16.0508, 37.7916 16.06, 38.0853 16.0646, 38.4059 16.064 L 38.4059 16.8334 Z M 31.1505 6.04277 L 29.0935 11.7862, 33.1789 11.7862 Z" stroke="none" fill="#000000" />
			<rect />
		</svg>
	</g>
	<g transform="matrix(1 0 -0 1 474.36 111.833)">
		<svg width="48.0251122" height="54.0428391">
			<defs />
			<path d="M 8.72362 4.3115 C 8.7053 4.39165, 8.66294 4.45864, 8.59652 4.5136, 8.53011 4.56856, 8.44996 4.59604, 8.3555 4.59547, 8.06008 4.59604, 7.77097 4.60234, 7.48757 4.61436, 7.20475 4.62695, 7.00037 4.66016, 6.87442 4.71455, 6.74274 4.75806, 6.64484 4.91664, 6.58186 5.19088 L 3.93057 15.5144 C 3.90538 15.6312, 3.89278 15.7319, 3.89278 15.8167, 3.89278 15.9025, 3.90881 15.9546, 3.9403 15.9724, 4.02847 16.0279, 4.21053 16.06, 4.48762 16.0691, 4.76472 16.0783, 5.0567 16.0829, 5.36471 16.0823, 5.54104 16.0829, 5.62921 16.1562, 5.62921 16.3021, 5.62921 16.3394, 5.62291 16.3789, 5.61031 16.4212 L 5.57253 16.5678 C 5.50325 16.751, 5.3836 16.8426, 5.21356 16.8426, 4.40232 16.806, 3.58134 16.7876, 2.7512 16.7876, 1.92736 16.7876, 1.09092 16.806, 0.241318 16.8426, 0.0787248 16.8426, -0.0031441 16.7636, -0.0037166 16.6044 L -0.0037166 16.5311, 0.034069 16.3754 C 0.0850224 16.1745, 0.207539 16.0766, 0.402193 16.0823, 0.710203 16.0829, 1.00619 16.0783, 1.28901 16.0691, 1.57183 16.06, 1.77622 16.0279, 1.90217 15.9724, 2.01553 15.9117, 2.10713 15.7468, 2.17583 15.4777 L 4.84601 5.15423 C 4.8712 5.03859, 4.8838 4.94699, 4.8838 4.87943, 4.8838 4.7884, 4.86834 4.73058, 4.83628 4.70539, 4.73609 4.6573, 4.54774 4.62695, 4.27064 4.61436, 3.99355 4.60234, 3.70729 4.59604, 3.41188 4.59547, 3.23554 4.59604, 3.14738 4.5136, 3.14738 4.34814 L 3.14738 4.28402, 3.18516 4.11914 C 3.25444 3.93651, 3.37409 3.84491, 3.54355 3.84433, 4.36797 3.86952, 5.19524 3.88155, 6.02538 3.88097, 6.86239 3.88155, 7.69253 3.86952, 8.5158 3.84433, 8.60397 3.84491, 8.67954 3.87525, 8.74251 3.93593, 8.7677 3.98517, 8.7803 4.03097, 8.7803 4.07334, 8.7803 4.11055, 8.77114 4.14433, 8.75167 4.1741 Z" stroke="none" fill="#000000" />
			<path d="M 2.98718 -0.680915 C 2.94871 -0.526704, 2.87016 -0.411286, 2.75218 -0.33434, 2.63419 -0.257395, 2.51557 -0.218922, 2.39566 -0.219243, 2.27255 -0.218922, 2.17028 -0.258357, 2.08916 -0.337226, 2.02953 -0.394935, 1.99779 -0.470277, 1.99394 -0.562932, 1.99394 -0.600122, 2.001 -0.648213, 2.0151 -0.706563, 2.05422 -0.836088, 2.11417 -0.934514, 2.19496 -1.0012, 2.27608 -1.06789, 2.3325 -1.10636, 2.36392 -1.11694, 2.29724 -1.16791, 2.1597 -1.19356, 1.95195 -1.19388, 1.76888 -1.19356, 1.60505 -1.09866, 1.46078 -0.908866, 1.31651 -0.719067, 1.20878 -0.490796, 1.13825 -0.224373 L 0.652211 1.65309 C 0.603158 1.84161, 0.566288 2.02115, 0.541281 2.19171, 0.527495 2.25006, 0.520442 2.30136, 0.520442 2.3456, 0.520442 2.45204, 0.538075 2.55271, 0.573021 2.64825, 0.608288 2.75117, 0.661188 2.83324, 0.731721 2.8948, 0.802254 2.95635, 0.892024 2.98713, 1.00103 2.98681, 1.1421 2.98713, 1.27771 2.95058, 1.40788 2.87684, 1.53804 2.80343, 1.65795 2.70436, 1.76696 2.57932, 1.87628 2.45461, 1.97311 2.30937, 2.05774 2.1433, 2.14239 1.97755, 2.20907 1.8073, 2.25812 1.63257, 2.27928 1.54409, 2.33924 1.49952, 2.43798 1.4992 L 2.55917 1.4992 C 2.65087 1.49952, 2.69671 1.53383, 2.69671 1.6018, 2.69671 1.62264, 2.69158 1.64155, 2.68068 1.65822, 2.63163 1.86373, 2.55148 2.06635, 2.44055 2.26641, 2.32962 2.46647, 2.20041 2.64344, 2.05229 2.79733, 1.9045 2.95122, 1.7365 3.07786, 1.54798 3.17661, 1.35947 3.276, 1.15781 3.32537, 0.943 3.32537, 0.724668 3.32537, 0.536152 3.27856, 0.377773 3.1843, 0.219393 3.09069, 0.0908306 2.96822, -0.00791597 2.81753, -0.0393353 2.78034, -0.0640218 2.74187, -0.081655 2.70243, -0.0992883 2.66332, -0.104739 2.65723, -0.0976853 2.68416, -0.182325 2.82459, -0.316018 2.96661, -0.499083 3.11024, -0.682149 3.25388, -0.893428 3.32537, -1.13324 3.32537, -1.26693 3.32537, -1.39902 3.30838, -1.52919 3.27407, -1.65935 3.24009, -1.77317 3.18719, -1.86999 3.11537, -1.96682 3.04356, -2.03991 2.95635, -2.08929 2.85344, -2.11365 2.7922, -2.12584 2.72552, -2.12616 2.65338, -2.12584 2.60241, -2.11878 2.54245, -2.105 2.47384, -2.0662 2.32027, -1.98701 2.20485, -1.86743 2.12791, -1.74752 2.05096, -1.62794 2.01249, -1.50803 2.01217, -1.38492 2.01249, -1.27912 2.05193, -1.19127 2.13015, -1.13132 2.1885, -1.1015 2.26385, -1.1015 2.35586, -1.1015 2.40395, -1.10855 2.45204, -1.12266 2.49949, -1.15408 2.6194, -1.21147 2.71622, -1.29418 2.78964, -1.3769 2.86338, -1.43589 2.90345, -1.47116 2.90987, -1.40415 2.96501, -1.26854 2.99066, -1.06431 2.98681, -0.881245 2.98713, -0.715813 2.89159, -0.568014 2.69987, -0.419894 2.50847, -0.312491 2.27924, -0.245805 2.01217 L 0.245683 0.124446 C 0.295056 -0.0531695, 0.333529 -0.227579, 0.361742 -0.398782, 0.368796 -0.453285, 0.372322 -0.504582, 0.372322 -0.552673, 0.372322 -0.658473, 0.356612 -0.75754, 0.324872 -0.850195, 0.289606 -0.952468, 0.235103 -1.03518, 0.161043 -1.09866, 0.0873039 -1.16182, -0.00438929 -1.19356, -0.113716 -1.19388, -0.254461 -1.19356, -0.390719 -1.15669, -0.522808 -1.08328, -0.654898 -1.00954, -0.775445 -0.911431, -0.884772 -0.788318, -0.993778 -0.665205, -1.0906 -0.522215, -1.17524 -0.359989, -1.25988 -0.197442, -1.32144 -0.0255973, -1.36023 0.155224, -1.3987 0.247879, -1.46411 0.295649, -1.5558 0.298855 L -1.67186 0.298855 C -1.7565 0.299176, -1.79882 0.256536, -1.79882 0.170613 L -1.79882 0.134705 C -1.74592 -0.0768943, -1.6648 -0.283044, -1.5558 -0.483101, -1.44647 -0.683159, -1.31599 -0.860133, -1.16466 -1.01402, -1.01333 -1.16791, -0.844055 -1.29359, -0.657462 -1.39106, -0.47087 -1.48852, -0.268247 -1.53725, -0.0502357 -1.53757, 0.161364 -1.53725, 0.347956 -1.49108, 0.509862 -1.39875, 0.671768 -1.30642, 0.803857 -1.1833, 0.90581 -1.02973, 0.92697 -0.991902, 0.946527 -0.951506, 0.96416 -0.908866, 0.981793 -0.865905, 0.986923 -0.855004, 0.97987 -0.875843, 1.06804 -1.02589, 1.20365 -1.17369, 1.38672 -1.31924, 1.56978 -1.46447, 1.77914 -1.53725, 2.0151 -1.53757, 2.14912 -1.53725, 2.28217 -1.5209, 2.41426 -1.48852, 2.54635 -1.45582, 2.66048 -1.40388, 2.75731 -1.33206, 2.85413 -1.26025, 2.92562 -1.17144, 2.97147 -1.06564, 2.99616 -1.00376, 3.00834 -0.933552, 3.00834 -0.855325, 3.00834 -0.803707, 3.00129 -0.745677, 2.98718 -0.680915 Z" stroke="none" fill="#000000" transform="matrix(1.12 0 0 1 10.9463 16.3063)" />
			<rect />
		</svg>
	</g>
</svg>
