<?xml version="1.0"?>
<svg xmlns="http://www.w3.org/2000/svg" xmlns:xlink="http://www.w3.org/1999/xlink" width="408.847839" height="129.595703">
	<defs>
		<marker id="CustomMarker-01" markerUnits="strokeWidth" markerWidth="8.25" markerHeight="13.5" viewBox="-8.25 -6.75 8.25 13.5" orient="auto-start-reverse">
			<path d="M -5.5 -4.5 L 0 -0, -5.5 4.5" fill="none" stroke="#000000" stroke-linejoin="round" />
		</marker>
		<marker id="CustomMarker-02" markerUnits="strokeWidth" markerWidth="8.25" markerHeight="13.5" viewBox="-8.25 -6.75 8.25 13.5" orient="auto-start-reverse">
			<path d="M -5.5 -4.5 L 0 -0, -5.5 4.5" fill="none" stroke="#000000" stroke-linejoin="round" />
		</marker>
		<marker id="CustomMarker-03" markerUnits="strokeWidth" markerWidth="8.25" markerHeight="13.5" viewBox="-8.25 -6.75 8.25 13.5" orient="auto-start-reverse">
			<path d="M -5.5 -4.5 L 0 -0, -5.5 4.5" fill="none" stroke="#000000" stroke-linejoin="round" />
		</marker>
		<marker id="CustomMarker-04" markerUnits="strokeWidth" markerWidth="8.25" markerHeight="13.5" viewBox="-8.25 -6.75 8.25 13.5" orient="auto-start-reverse">
			<path d="M -5.5 -4.5 L 0 -0, -5.5 4.5" fill="none" stroke="#000000" stroke-linejoin="round" />
		</marker>
	</defs>
	<path d="M -86.186 0 L 86.186 0" fill="none" stroke="#000000" stroke-width="1.86666667" stroke-linecap="round" stroke-linejoin="round" transform="matrix(0.714286 0 0 0.714286 70.0614 64.7978)" />
	<path d="M 0 -78.817 L 0 78.817" fill="none" stroke="#000000" stroke-width="1.86666667" stroke-linecap="round" stroke-linejoin="round" transform="matrix(0.714286 0 0 0.714286 70.0614 64.7978)" />
	<ellipse cx="299.89256000518799" cy="532.99995136260986" rx="3.6750001907348633" ry="3.6750001907348633" stroke="none" fill="#000000" transform="matrix(0.714286 0 0 0.714286 -144.148 -315.916)" />
	<path d="M -5.81114 0 L 5.81123 0" fill="none" stroke="#000000" stroke-width="1.49333334" stroke-linecap="round" stroke-linejoin="round" marker-end="url(#CustomMarker-01)" transform="matrix(0.714286 0 0 0.714286 38.2422 64.7978)" />
	<path d="M -5.81104 0 L 5.81134 0" fill="none" stroke="#000000" stroke-width="1.49333334" stroke-linecap="round" stroke-linejoin="round" marker-end="url(#CustomMarker-02)" transform="matrix(0.714286 0 0 0.714286 103.021 64.7978)" />
	<path d="M 0 5.81116 L 0 -5.81122" fill="none" stroke="#000000" stroke-width="1.49333334" stroke-linecap="round" stroke-linejoin="round" marker-end="url(#CustomMarker-03)" transform="matrix(0.714286 0 0 0.714286 70.0614 31.0475)" />
	<path d="M 0 5.81097 L 0 -5.8114" fill="none" stroke="#000000" stroke-width="1.49333334" stroke-linecap="round" stroke-linejoin="round" marker-end="url(#CustomMarker-04)" transform="matrix(0.714286 0 0 0.714286 70.0614 99.6171)" />
	<g transform="matrix(1 0 -0 1 23.4232 34.0869)">
		<svg width="39.020092" height="51.0856972">
			<defs />
			<path d="M 4.85574 5.20004 C 4.79907 5.43248, 4.66853 5.62656, 4.46415 5.78228, 4.25976 5.938, 4.0382 6.01586, 3.79889 6.01529, 3.54756 6.01586, 3.35577 5.93056, 3.22352 5.75881, 3.13535 5.66148, 3.08841 5.5424, 3.08154 5.40156, 3.08154 5.31683, 3.09413 5.23095, 3.11932 5.14507, 3.17657 4.91378, 3.30882 4.7197, 3.51607 4.56398, 3.72332 4.40825, 3.9466 4.33039, 4.18591 4.32982, 4.43781 4.33039, 4.6296 4.41284, 4.76128 4.57715, 4.84945 4.69394, 4.89353 4.81874, 4.89353 4.95271, 4.89353 5.03859, 4.88093 5.12103, 4.85574 5.20004 Z M 4.95937 14.0854 C 4.89067 14.4037, 4.78361 14.738, 4.63876 15.089, 4.49449 15.4405, 4.31644 15.7594, 4.10576 16.0462, 3.89507 16.3336, 3.64775 16.5729, 3.36493 16.7647, 3.08211 16.9571, 2.75463 17.0533, 2.38365 17.0533, 2.06934 17.0533, 1.79911 16.9863, 1.5724 16.8518, 1.34569 16.7178, 1.17107 16.5409, 1.04855 16.321, 0.926037 16.1012, 0.864779 15.8567, 0.864779 15.5877, 0.852184 15.5762, 0.845886 15.5516, 0.845886 15.5144, 0.845886 15.2401, 0.905999 14.959, 1.02508 14.6716 L 2.55368 10.6412 C 2.74261 10.1351, 2.8365 9.71943, 2.8365 9.39539, 2.8365 9.12116, 2.72028 8.98375, 2.48727 8.98318, 2.27373 8.98375, 2.08193 9.04501, 1.9119 9.16696, 1.74244 9.28947, 1.58671 9.45894, 1.44473 9.67535, 1.30332 9.89233, 1.17622 10.1488, 1.06287 10.4448, 0.94951 10.7414, 0.855046 11.0568, 0.779475 11.3923, 0.710774 11.5578, 0.594554 11.6431, 0.430816 11.6488 L 0.222995 11.6488 C 0.0718527 11.6494, -0.00371855 11.5732, -0.00371855 11.4198 L -0.00371855 11.3557 C 0.0718527 11.0202, 0.18521 10.6772, 0.336352 10.3257, 0.487495 9.97477, 0.669553 9.65588, 0.883672 9.36848, 1.09779 9.08165, 1.34626 8.84349, 1.62908 8.65399, 1.9119 8.46506, 2.23594 8.37002, 2.60063 8.36945, 2.91551 8.37002, 3.18287 8.43758, 3.40271 8.57155, 3.62313 8.70609, 3.79145 8.88471, 3.90767 9.10742, 4.02389 9.33069, 4.08801 9.58203, 4.1006 9.86256 L 4.1006 9.92668 C 4.1006 10.19, 4.04736 10.4614, 3.9403 10.7419 L 2.4117 14.7907 C 2.23594 15.2859, 2.14777 15.7073, 2.14777 16.0548, 2.13518 16.0674, 2.12888 16.0674, 2.12888 16.0548, 2.12888 16.3182, 2.24853 16.4493, 2.48727 16.4487, 2.70139 16.4493, 2.8949 16.3852, 3.0678 16.2569, 3.24069 16.1287, 3.39813 15.9581, 3.53954 15.7439, 3.68095 15.5304, 3.80519 15.2739, 3.91225 14.9745, 4.01931 14.6756, 4.11663 14.3608, 4.2048 14.0304, 4.24259 13.8724, 4.35251 13.7928, 4.53457 13.7923 L 4.74239 13.7923 C 4.81166 13.7928, 4.88093 13.814, 4.94964 13.8564, 4.9691 13.9056, 4.98456 13.9486, 4.99715 13.9846, 4.99715 14.0218, 4.98456 14.0556, 4.95937 14.0854 Z" stroke="none" fill="#000000" />
			<path d="M 2.81931 1.26324 C 2.81931 1.55755, 2.75423 1.84001, 2.62406 2.10996, 2.4939 2.38023, 2.31949 2.61106, 2.10083 2.80214, 1.85461 3.01791, 1.58242 3.17757, 1.28489 3.28177, 0.987372 3.38629, 0.676384 3.43822, 0.352252 3.43822, 0.0601807 3.43822, -0.224838 3.39719, -0.503123 3.31511, -0.781409 3.23304, -1.03212 3.11537, -1.2559 2.96148, -1.47969 2.80759, -1.65826 2.61876, -1.79228 2.39465, -1.92597 2.17087, -1.99298 1.91342, -1.99298 1.62232, -1.99298 1.40366, -1.91988 1.24047, -1.77368 1.13275, -1.62749 1.02503, -1.4736 0.971165, -1.31169 0.970845, -1.14241 0.971165, -0.984993 1.02503, -0.838797 1.13275, -0.692601 1.24047, -0.619503 1.40366, -0.619503 1.62232, -0.619503 1.75248, -0.644831 1.86117, -0.696128 1.94837, -0.747104 2.03558, -0.812187 2.10835, -0.891697 2.16638, -0.970886 2.22473, -1.06162 2.26032, -1.16357 2.27379, -1.21615 2.28789, -1.26552 2.29462, -1.31169 2.2943, -1.35722 2.29462, -1.36427 2.29815, -1.33285 2.30456, -1.22352 2.49629, -1.00872 2.66589, -0.688112 2.81272, -0.367507 2.95988, -0.0209324 3.0333, 0.352252 3.03298, 0.528585 3.0333, 0.693056 2.9897, 0.846305 2.90249, 0.999555 2.81529, 1.12748 2.69827, 1.22943 2.55079, 1.35639 2.35971, 1.44263 2.15452, 1.48816 1.93555, 1.534 1.71689, 1.55677 1.49279, 1.55677 1.26324, 1.55677 1.02759, 1.534 0.801244, 1.48816 0.583874, 1.44263 0.366824, 1.35639 0.165804, 1.22943 -0.0191851, 1.12363 -0.169228, 0.995066 -0.290738, 0.84374 -0.383072, 0.692415 -0.475407, 0.528585 -0.521574, 0.352252 -0.521894 L -0.413674 -0.521894 C -0.515627 -0.521574, -0.57013 -0.569344, -0.577183 -0.665526 L -0.577183 -0.721952 C -0.577183 -0.762669, -0.564679 -0.79505, -0.540313 -0.819416, -0.508573 -0.849874, -0.468177 -0.865263, -0.418804 -0.865584, -0.316531 -0.879049, -0.211051 -0.885782, -0.102046 -0.886102, 0.00375414 -0.885782, 0.107951 -0.892514, 0.209903 -0.906621, 0.400023 -0.920087, 0.565455 -0.978757, 0.706201 -1.08327, 0.847267 -1.18747, 0.96525 -1.32084, 1.06015 -1.48339, 1.15537 -1.64562, 1.22751 -1.83285, 1.27688 -2.04509, 1.32625 -2.25701, 1.35094 -2.47438, 1.35094 -2.69688, 1.35094 -2.86071, 1.33331 -3.01621, 1.29804 -3.16336, 1.26277 -3.3102, 1.19769 -3.43876, 1.10247 -3.54841, 0.905297 -3.7738, 0.655225 -3.88505, 0.352252 -3.88184, 0.0284407 -3.88152, -0.268119 -3.8206, -0.537428 -3.69942, -0.806736 -3.57791, -0.987558 -3.4471, -1.07925 -3.30731, -1.10362 -3.30347, -1.09143 -3.30186, -1.04206 -3.30219, -0.915101 -3.30186, -0.795515 -3.26435, -0.682983 -3.18933, -0.513703 -3.08994, -0.429384 -2.92227, -0.429384 -2.68662, -0.429384 -2.48785, -0.493505 -2.33812, -0.622068 -2.23745, -0.75063 -2.13646, -0.894262 -2.08613, -1.05264 -2.08645, -1.20749 -2.08613, -1.35273 -2.1355, -1.48834 -2.23489, -1.62396 -2.33396, -1.69193 -2.48464, -1.69193 -2.68662, -1.69193 -2.93605, -1.63197 -3.15631, -1.51239 -3.34803, -1.39248 -3.53943, -1.23859 -3.70358, -1.05008 -3.84048, -0.86156 -3.97706, -0.644189 -4.08158, -0.397644 -4.15339, -0.151098 -4.22521, 0.098974 -4.26112, 0.352252 -4.26144, 0.623485 -4.26112, 0.88606 -4.22521, 1.13966 -4.15339, 1.39326 -4.08158, 1.63275 -3.97033, 1.85782 -3.82028, 2.0412 -3.69012, 2.19509 -3.53014, 2.32013 -3.34034, 2.44516 -3.15054, 2.50768 -2.93605, 2.50768 -2.69688, 2.50768 -2.45707, 2.46472 -2.23136, 2.37848 -2.01944, 2.29224 -1.8072, 2.17778 -1.6158, 2.03511 -1.44492, 1.89244 -1.27371, 1.72252 -1.12335, 1.52535 -0.993505, 1.32818 -0.863339, 1.18006 -0.781585, 1.08131 -0.747601, 1.16595 -0.737021, 1.31054 -0.686365, 1.51477 -0.595954, 1.71899 -0.505223, 1.91424 -0.384675, 2.10083 -0.234632, 2.31949 -0.0461159, 2.4939 0.178629, 2.62406 0.440243, 2.75423 0.701857, 2.81931 0.976295, 2.81931 1.26324 Z" stroke="none" fill="#000000" transform="matrix(1.12 0 0 1 7.97108 16.3063)" />
			<rect />
		</svg>
	</g>
	<g transform="matrix(1 0 -0 1 50.2492 89.01)">
		<svg width="36.0612984" height="51.0856972">
			<defs />
			<path d="M 4.85574 5.20004 C 4.79907 5.43248, 4.66853 5.62656, 4.46415 5.78228, 4.25976 5.938, 4.0382 6.01586, 3.79889 6.01529, 3.54756 6.01586, 3.35577 5.93056, 3.22352 5.75881, 3.13535 5.66148, 3.08841 5.5424, 3.08154 5.40156, 3.08154 5.31683, 3.09413 5.23095, 3.11932 5.14507, 3.17657 4.91378, 3.30882 4.7197, 3.51607 4.56398, 3.72332 4.40825, 3.9466 4.33039, 4.18591 4.32982, 4.43781 4.33039, 4.6296 4.41284, 4.76128 4.57715, 4.84945 4.69394, 4.89353 4.81874, 4.89353 4.95271, 4.89353 5.03859, 4.88093 5.12103, 4.85574 5.20004 Z M 4.95937 14.0854 C 4.89067 14.4037, 4.78361 14.738, 4.63876 15.089, 4.49449 15.4405, 4.31644 15.7594, 4.10576 16.0462, 3.89507 16.3336, 3.64775 16.5729, 3.36493 16.7647, 3.08211 16.9571, 2.75463 17.0533, 2.38365 17.0533, 2.06934 17.0533, 1.79911 16.9863, 1.5724 16.8518, 1.34569 16.7178, 1.17107 16.5409, 1.04855 16.321, 0.926037 16.1012, 0.864779 15.8567, 0.864779 15.5877, 0.852184 15.5762, 0.845886 15.5516, 0.845886 15.5144, 0.845886 15.2401, 0.905999 14.959, 1.02508 14.6716 L 2.55368 10.6412 C 2.74261 10.1351, 2.8365 9.71943, 2.8365 9.39539, 2.8365 9.12116, 2.72028 8.98375, 2.48727 8.98318, 2.27373 8.98375, 2.08193 9.04501, 1.9119 9.16696, 1.74244 9.28947, 1.58671 9.45894, 1.44473 9.67535, 1.30332 9.89233, 1.17622 10.1488, 1.06287 10.4448, 0.94951 10.7414, 0.855046 11.0568, 0.779475 11.3923, 0.710774 11.5578, 0.594554 11.6431, 0.430816 11.6488 L 0.222995 11.6488 C 0.0718527 11.6494, -0.00371855 11.5732, -0.00371855 11.4198 L -0.00371855 11.3557 C 0.0718527 11.0202, 0.18521 10.6772, 0.336352 10.3257, 0.487495 9.97477, 0.669553 9.65588, 0.883672 9.36848, 1.09779 9.08165, 1.34626 8.84349, 1.62908 8.65399, 1.9119 8.46506, 2.23594 8.37002, 2.60063 8.36945, 2.91551 8.37002, 3.18287 8.43758, 3.40271 8.57155, 3.62313 8.70609, 3.79145 8.88471, 3.90767 9.10742, 4.02389 9.33069, 4.08801 9.58203, 4.1006 9.86256 L 4.1006 9.92668 C 4.1006 10.19, 4.04736 10.4614, 3.9403 10.7419 L 2.4117 14.7907 C 2.23594 15.2859, 2.14777 15.7073, 2.14777 16.0548, 2.13518 16.0674, 2.12888 16.0674, 2.12888 16.0548, 2.12888 16.3182, 2.24853 16.4493, 2.48727 16.4487, 2.70139 16.4493, 2.8949 16.3852, 3.0678 16.2569, 3.24069 16.1287, 3.39813 15.9581, 3.53954 15.7439, 3.68095 15.5304, 3.80519 15.2739, 3.91225 14.9745, 4.01931 14.6756, 4.11663 14.3608, 4.2048 14.0304, 4.24259 13.8724, 4.35251 13.7928, 4.53457 13.7923 L 4.74239 13.7923 C 4.81166 13.7928, 4.88093 13.814, 4.94964 13.8564, 4.9691 13.9056, 4.98456 13.9486, 4.99715 13.9846, 4.99715 14.0218, 4.98456 14.0556, 4.95937 14.0854 Z" stroke="none" fill="#000000" />
			<path d="M 2.39138 3.19713 L -1.90858 3.19713, -1.90858 2.915 C -1.90858 2.8948, -1.898 2.86402, -1.87684 2.82266 L -0.149418 0.945196 C 0.0551279 0.71981, 0.261918 0.488975, 0.471594 0.253009, 0.68127 0.0170434, 0.868504 -0.224052, 1.03394 -0.470277, 1.19937 -0.716502, 1.33146 -0.970422, 1.4302 -1.23204, 1.52895 -1.49365, 1.578 -1.76809, 1.578 -2.05567, 1.578 -2.29805, 1.54658 -2.52472, 1.4831 -2.73503, 1.41962 -2.94535, 1.32825 -3.13002, 1.20835 -3.28904, 1.08844 -3.44806, 0.938716 -3.5763, 0.759177 -3.67377, 0.579638 -3.77123, 0.371886 -3.81996, 0.13592 -3.82028, -0.216105 -3.81996, -0.527092 -3.7148, -0.7964 -3.50449, -1.06571 -3.29417, -1.24461 -3.06237, -1.33277 -2.80974, -1.35009 -2.80268, -1.32187 -2.79915, -1.24813 -2.79948 L -1.15836 -2.79948 C -1.05256 -2.77511, -0.961191 -2.73824, -0.883605 -2.68887, -0.806018 -2.63917, -0.740935 -2.57088, -0.688036 -2.48368, -0.635136 -2.39647, -0.608846 -2.29132, -0.608846 -2.16852, -0.608846 -1.96302, -0.675532 -1.8056, -0.809545 -1.69627, -0.943558 -1.58663, -1.09328 -1.53212, -1.25871 -1.53244, -1.41709 -1.53212, -1.56489 -1.58663, -1.70243 -1.69627, -1.83965 -1.8056, -1.90858 -1.96302, -1.90858 -2.16852, -1.90858 -2.45547, -1.85215 -2.72734, -1.7393 -2.98382, -1.62645 -3.24031, -1.47352 -3.46249, -1.27987 -3.65068, -1.08623 -3.83856, -0.857315 -3.98732, -0.593136 -4.09697, -0.328958 -4.20629, -0.0487483 -4.26112, 0.24685 -4.26144, 0.612981 -4.26112, 0.948655 -4.20725, 1.25323 -4.09953, 1.55781 -3.99181, 1.8175 -3.83695, 2.0323 -3.63529, 2.24711 -3.43331, 2.41543 -3.19991, 2.53693 -2.93509, 2.65844 -2.66995, 2.71904 -2.37692, 2.71904 -2.05567, 2.71904 -1.6998, 2.63825 -1.37214, 2.47602 -1.07302, 2.31411 -0.77357, 2.11342 -0.499131, 1.87392 -0.2497, 1.63443 5.126e-005, 1.37987 0.235055, 1.11056 0.455632, 0.841252 0.676208, 0.597272 0.890693, 0.378939 1.09909 L -0.836155 2.24301, 0.754048 2.24301 C 0.975907 2.24333, 1.18302 2.24172, 1.37474 2.2382, 1.56678 2.23499, 1.72965 2.22794, 1.86334 2.21768, 1.99736 2.20742, 2.06597 2.20069, 2.06917 2.19684, 2.09738 2.17312, 2.12399 2.12534, 2.14868 2.05353, 2.17337 1.98171, 2.19613 1.89707, 2.21729 1.79961, 2.23845 1.70215, 2.25961 1.60308, 2.28077 1.50209, 2.30193 1.40142, 2.32117 1.29081, 2.3388 1.1709 L 2.72962 1.1709 Z" stroke="none" fill="#000000" transform="matrix(1.12 0 0 1 7.88677 16.3063)" />
			<rect />
		</svg>
	</g>
	<g transform="matrix(1 0 -0 1 108.008 68.0353)">
		<svg width="36.0612984" height="51.0856972">
			<defs />
			<path d="M 4.85574 5.20004 C 4.79907 5.43248, 4.66853 5.62656, 4.46415 5.78228, 4.25976 5.938, 4.0382 6.01586, 3.79889 6.01529, 3.54756 6.01586, 3.35577 5.93056, 3.22352 5.75881, 3.13535 5.66148, 3.08841 5.5424, 3.08154 5.40156, 3.08154 5.31683, 3.09413 5.23095, 3.11932 5.14507, 3.17657 4.91378, 3.30882 4.7197, 3.51607 4.56398, 3.72332 4.40825, 3.9466 4.33039, 4.18591 4.32982, 4.43781 4.33039, 4.6296 4.41284, 4.76128 4.57715, 4.84945 4.69394, 4.89353 4.81874, 4.89353 4.95271, 4.89353 5.03859, 4.88093 5.12103, 4.85574 5.20004 Z M 4.95937 14.0854 C 4.89067 14.4037, 4.78361 14.738, 4.63876 15.089, 4.49449 15.4405, 4.31644 15.7594, 4.10576 16.0462, 3.89507 16.3336, 3.64775 16.5729, 3.36493 16.7647, 3.08211 16.9571, 2.75463 17.0533, 2.38365 17.0533, 2.06934 17.0533, 1.79911 16.9863, 1.5724 16.8518, 1.34569 16.7178, 1.17107 16.5409, 1.04855 16.321, 0.926037 16.1012, 0.864779 15.8567, 0.864779 15.5877, 0.852184 15.5762, 0.845886 15.5516, 0.845886 15.5144, 0.845886 15.2401, 0.905999 14.959, 1.02508 14.6716 L 2.55368 10.6412 C 2.74261 10.1351, 2.8365 9.71943, 2.8365 9.39539, 2.8365 9.12116, 2.72028 8.98375, 2.48727 8.98318, 2.27373 8.98375, 2.08193 9.04501, 1.9119 9.16696, 1.74244 9.28947, 1.58671 9.45894, 1.44473 9.67535, 1.30332 9.89233, 1.17622 10.1488, 1.06287 10.4448, 0.94951 10.7414, 0.855046 11.0568, 0.779475 11.3923, 0.710774 11.5578, 0.594554 11.6431, 0.430816 11.6488 L 0.222995 11.6488 C 0.0718527 11.6494, -0.00371855 11.5732, -0.00371855 11.4198 L -0.00371855 11.3557 C 0.0718527 11.0202, 0.18521 10.6772, 0.336352 10.3257, 0.487495 9.97477, 0.669553 9.65588, 0.883672 9.36848, 1.09779 9.08165, 1.34626 8.84349, 1.62908 8.65399, 1.9119 8.46506, 2.23594 8.37002, 2.60063 8.36945, 2.91551 8.37002, 3.18287 8.43758, 3.40271 8.57155, 3.62313 8.70609, 3.79145 8.88471, 3.90767 9.10742, 4.02389 9.33069, 4.08801 9.58203, 4.1006 9.86256 L 4.1006 9.92668 C 4.1006 10.19, 4.04736 10.4614, 3.9403 10.7419 L 2.4117 14.7907 C 2.23594 15.2859, 2.14777 15.7073, 2.14777 16.0548, 2.13518 16.0674, 2.12888 16.0674, 2.12888 16.0548, 2.12888 16.3182, 2.24853 16.4493, 2.48727 16.4487, 2.70139 16.4493, 2.8949 16.3852, 3.0678 16.2569, 3.24069 16.1287, 3.39813 15.9581, 3.53954 15.7439, 3.68095 15.5304, 3.80519 15.2739, 3.91225 14.9745, 4.01931 14.6756, 4.11663 14.3608, 4.2048 14.0304, 4.24259 13.8724, 4.35251 13.7928, 4.53457 13.7923 L 4.74239 13.7923 C 4.81166 13.7928, 4.88093 13.814, 4.94964 13.8564, 4.9691 13.9056, 4.98456 13.9486, 4.99715 13.9846, 4.99715 14.0218, 4.98456 14.0556, 4.95937 14.0854 Z" stroke="none" fill="#000000" />
			<path d="M 2.37267 3.19713 C 1.72472 3.17661, 1.09441 3.16635, 0.481416 3.16635, -0.131261 3.16635, -0.761571 3.17661, -1.40951 3.19713 L -1.40951 2.75598, -1.04499 2.75598 C -0.928927 2.7563, -0.819601 2.75469, -0.717648 2.75117, -0.615375 2.74796, -0.518552 2.7393, -0.426859 2.72552, -0.335166 2.71205, -0.255976 2.69827, -0.18929 2.68416, -0.132864 2.67422, -0.086376 2.6428, -0.0495062 2.58958, -0.012316 2.53668, 0.00595856 2.47769, 0.00595856 2.41229 L 0.00595856 -3.36887 C -0.169733 -3.28295, -0.386463 -3.21787, -0.643588 -3.17362, -0.900714 -3.12906, -1.18221 -3.10694, -1.4887 -3.10726 L -1.4887 -3.54328 C -1.06615 -3.54296, -0.675969 -3.59329, -0.318494 -3.69429, 0.0389807 -3.79496, 0.348044 -3.98411, 0.608376 -4.26144 L 0.772206 -4.26144 C 0.888265 -4.26112, 0.946294 -4.20469, 0.946294 -4.09216 L 0.946294 2.41229 C 0.946294 2.4809, 0.963928 2.54085, 0.999194 2.59215, 1.03446 2.64344, 1.08576 2.67422, 1.15244 2.68416, 1.20887 2.69827, 1.28133 2.71205, 1.36917 2.72552, 1.45702 2.7393, 1.55641 2.74796, 1.66734 2.75117, 1.77827 2.75469, 1.88663 2.7563, 1.99243 2.75598 L 2.37267 2.75598, 2.37267 3.19713 Z" stroke="none" fill="#000000" transform="matrix(1.12 0 0 1 7.46389 16.3063)" />
			<rect />
		</svg>
	</g>
	<g transform="matrix(1 0 -0 1 82.294 17.1018)">
		<svg width="39.020092" height="51.0856972">
			<defs />
			<path d="M 4.85574 5.20004 C 4.79907 5.43248, 4.66853 5.62656, 4.46415 5.78228, 4.25976 5.938, 4.0382 6.01586, 3.79889 6.01529, 3.54756 6.01586, 3.35577 5.93056, 3.22352 5.75881, 3.13535 5.66148, 3.08841 5.5424, 3.08154 5.40156, 3.08154 5.31683, 3.09413 5.23095, 3.11932 5.14507, 3.17657 4.91378, 3.30882 4.7197, 3.51607 4.56398, 3.72332 4.40825, 3.9466 4.33039, 4.18591 4.32982, 4.43781 4.33039, 4.6296 4.41284, 4.76128 4.57715, 4.84945 4.69394, 4.89353 4.81874, 4.89353 4.95271, 4.89353 5.03859, 4.88093 5.12103, 4.85574 5.20004 Z M 4.95937 14.0854 C 4.89067 14.4037, 4.78361 14.738, 4.63876 15.089, 4.49449 15.4405, 4.31644 15.7594, 4.10576 16.0462, 3.89507 16.3336, 3.64775 16.5729, 3.36493 16.7647, 3.08211 16.9571, 2.75463 17.0533, 2.38365 17.0533, 2.06934 17.0533, 1.79911 16.9863, 1.5724 16.8518, 1.34569 16.7178, 1.17107 16.5409, 1.04855 16.321, 0.926037 16.1012, 0.864779 15.8567, 0.864779 15.5877, 0.852184 15.5762, 0.845886 15.5516, 0.845886 15.5144, 0.845886 15.2401, 0.905999 14.959, 1.02508 14.6716 L 2.55368 10.6412 C 2.74261 10.1351, 2.8365 9.71943, 2.8365 9.39539, 2.8365 9.12116, 2.72028 8.98375, 2.48727 8.98318, 2.27373 8.98375, 2.08193 9.04501, 1.9119 9.16696, 1.74244 9.28947, 1.58671 9.45894, 1.44473 9.67535, 1.30332 9.89233, 1.17622 10.1488, 1.06287 10.4448, 0.94951 10.7414, 0.855046 11.0568, 0.779475 11.3923, 0.710774 11.5578, 0.594554 11.6431, 0.430816 11.6488 L 0.222995 11.6488 C 0.0718527 11.6494, -0.00371855 11.5732, -0.00371855 11.4198 L -0.00371855 11.3557 C 0.0718527 11.0202, 0.18521 10.6772, 0.336352 10.3257, 0.487495 9.97477, 0.669553 9.65588, 0.883672 9.36848, 1.09779 9.08165, 1.34626 8.84349, 1.62908 8.65399, 1.9119 8.46506, 2.23594 8.37002, 2.60063 8.36945, 2.91551 8.37002, 3.18287 8.43758, 3.40271 8.57155, 3.62313 8.70609, 3.79145 8.88471, 3.90767 9.10742, 4.02389 9.33069, 4.08801 9.58203, 4.1006 9.86256 L 4.1006 9.92668 C 4.1006 10.19, 4.04736 10.4614, 3.9403 10.7419 L 2.4117 14.7907 C 2.23594 15.2859, 2.14777 15.7073, 2.14777 16.0548, 2.13518 16.0674, 2.12888 16.0674, 2.12888 16.0548, 2.12888 16.3182, 2.24853 16.4493, 2.48727 16.4487, 2.70139 16.4493, 2.8949 16.3852, 3.0678 16.2569, 3.24069 16.1287, 3.39813 15.9581, 3.53954 15.7439, 3.68095 15.5304, 3.80519 15.2739, 3.91225 14.9745, 4.01931 14.6756, 4.11663 14.3608, 4.2048 14.0304, 4.24259 13.8724, 4.35251 13.7928, 4.53457 13.7923 L 4.74239 13.7923 C 4.81166 13.7928, 4.88093 13.814, 4.94964 13.8564, 4.9691 13.9056, 4.98456 13.9486, 4.99715 13.9846, 4.99715 14.0218, 4.98456 14.0556, 4.95937 14.0854 Z" stroke="none" fill="#000000" />
			<path d="M 1.84803 1.37096 L 1.84803 2.41229 C 1.84803 2.47416, 1.85957 2.53155, 1.88265 2.58445, 1.90574 2.63767, 1.94357 2.67262, 1.99615 2.68929, 2.07726 2.72712, 2.20935 2.74796, 2.39242 2.75117, 2.57548 2.75469, 2.76015 2.7563, 2.94674 2.75598 L 2.94674 3.19713 C 2.40813 3.17661, 1.88009 3.16635, 1.36199 3.16635, 0.851588 3.16635, 0.314573 3.17661, -0.249051 3.19713 L -0.249051 2.75598 C -0.0554054 2.7563, 0.131508 2.75469, 0.311047 2.75117, 0.490586 2.74796, 0.624599 2.72712, 0.712445 2.68929, 0.765345 2.67262, 0.804138 2.63767, 0.828825 2.58445, 0.853511 2.53155, 0.865694 2.47416, 0.865694 2.41229 L 0.865694 1.37096, -2.14543 1.37096, -2.14543 0.955456, 1.38315 -4.29221 C 1.42932 -4.35345, 1.48735 -4.38423, 1.55756 -4.38455 L 1.67394 -4.38455 C 1.79 -4.38423, 1.84803 -4.3262, 1.84803 -4.21014 L 1.84803 0.919548, 2.98393 0.919548, 2.98393 1.37096 Z M 0.918273 -2.94311 L -1.68055 0.919548, 0.918273 0.919548 Z" stroke="none" fill="#000000" transform="matrix(1.12 0 0 1 8.12433 16.3063)" />
			<rect />
		</svg>
	</g>
	<g transform="matrix(1 0 -0 1 164.258 47.4746)">
		<svg width="711.052124" height="126.042824">
			<defs />
			<path d="M 36.7512 11.3158 C 36.6946 11.5483, 36.564 11.7423, 36.3596 11.8981, 36.1553 12.0538, 35.9337 12.1316, 35.6944 12.1311, 35.4431 12.1316, 35.2513 12.0463, 35.119 11.8746, 35.0308 11.7773, 34.9839 11.6582, 34.977 11.5173, 34.977 11.4326, 34.9896 11.3467, 35.0148 11.2609, 35.0721 11.0296, 35.2043 10.8355, 35.4116 10.6798, 35.6188 10.524, 35.8421 10.4462, 36.0814 10.4456, 36.3333 10.4462, 36.5251 10.5286, 36.6568 10.6929, 36.7449 10.8097, 36.789 10.9345, 36.789 11.0685, 36.789 11.1544, 36.7764 11.2368, 36.7512 11.3158 Z M 36.8549 20.2012 C 36.7862 20.5195, 36.6791 20.8538, 36.5343 21.2048, 36.39 21.5563, 36.2119 21.8752, 36.0012 22.162, 35.7906 22.4494, 35.5432 22.6887, 35.2604 22.8805, 34.9776 23.0729, 34.6501 23.1691, 34.2791 23.1691, 33.9648 23.1691, 33.6946 23.1021, 33.4679 22.9675, 33.2412 22.8336, 33.0666 22.6567, 32.944 22.4368, 32.8215 22.217, 32.7603 21.9725, 32.7603 21.7034, 32.7477 21.692, 32.7414 21.6674, 32.7414 21.6301, 32.7414 21.3559, 32.8015 21.0748, 32.9206 20.7874 L 34.4492 16.7569 C 34.6381 16.2508, 34.732 15.8352, 34.732 15.5112, 34.732 15.2369, 34.6158 15.0995, 34.3828 15.099, 34.1692 15.0995, 33.9774 15.1608, 33.8074 15.2827, 33.6379 15.4053, 33.4822 15.5747, 33.3402 15.7911, 33.1988 16.0081, 33.0717 16.2646, 32.9584 16.5606, 32.845 16.8571, 32.7505 17.1726, 32.675 17.5081, 32.6063 17.6735, 32.49 17.7588, 32.3263 17.7646 L 32.1185 17.7646 C 31.9673 17.7651, 31.8918 17.689, 31.8918 17.5356 L 31.8918 17.4714 C 31.9673 17.1359, 32.0807 16.793, 32.2318 16.4415, 32.383 16.0905, 32.565 15.7717, 32.7792 15.4843, 32.9933 15.1974, 33.2417 14.9593, 33.5246 14.7698, 33.8074 14.5808, 34.1314 14.4858, 34.4961 14.4852, 34.811 14.4858, 35.0784 14.5534, 35.2982 14.6873, 35.5186 14.8219, 35.6869 15.0005, 35.8032 15.2232, 35.9194 15.4465, 35.9835 15.6978, 35.9961 15.9783 L 35.9961 16.0425 C 35.9961 16.3058, 35.9428 16.5772, 35.8358 16.8577 L 34.3072 20.9065 C 34.1314 21.4017, 34.0433 21.8231, 34.0433 22.1706, 34.0307 22.1832, 34.0244 22.1832, 34.0244 22.1706, 34.0244 22.434, 34.144 22.5651, 34.3828 22.5645, 34.5969 22.5651, 34.7904 22.5009, 34.9633 22.3727, 35.1362 22.2445, 35.2936 22.0738, 35.435 21.8597, 35.5764 21.6462, 35.7007 21.3897, 35.8077 21.0903, 35.9148 20.7914, 36.0121 20.4765, 36.1003 20.1462, 36.1381 19.9882, 36.248 19.9086, 36.4301 19.908 L 36.6379 19.908 C 36.7071 19.9086, 36.7764 19.9298, 36.8451 19.9722, 36.8646 20.0214, 36.88 20.0643, 36.8926 20.1004, 36.8926 20.1376, 36.88 20.1714, 36.8549 20.2012 Z" stroke="none" fill="#000000" />
			<path d="M 52.5155 15.1814 C 52.4468 15.3652, 52.3237 15.4568, 52.1474 15.4562 L 50.3926 15.4562, 48.9963 20.8699 C 48.8835 21.2615, 48.8268 21.6032, 48.8268 21.8958, 48.8268 21.9759, 48.8331 22.0521, 48.8457 22.1248, 48.8772 22.4185, 49.0249 22.5651, 49.2888 22.5645, 49.5281 22.5651, 49.7543 22.4998, 49.9684 22.3681, 50.1825 22.237, 50.3835 22.0612, 50.5724 21.8414, 50.7613 21.6216, 50.9308 21.3622, 51.0819 21.0628, 51.2331 20.7639, 51.3711 20.4491, 51.4964 20.1187, 51.5159 20.046, 51.5565 19.9928, 51.6195 19.959, 51.6825 19.9258, 51.742 19.9086, 51.7987 19.908 L 52.0346 19.908 C 52.1165 19.9086, 52.1823 19.9424, 52.2327 20.0088, 52.2516 20.0523, 52.2607 20.0918, 52.2607 20.1279 L 52.2607 20.1828 C 52.1291 20.5435, 51.9636 20.8996, 51.7655 21.2506, 51.5674 21.6021, 51.3396 21.9181, 51.0819 22.1987, 50.8243 22.4798, 50.5392 22.7116, 50.2278 22.8943, 49.9163 23.0775, 49.5722 23.1691, 49.1944 23.1691, 48.8675 23.1691, 48.5847 23.1067, 48.3453 22.9813, 48.1066 22.8565, 47.9148 22.683, 47.77 22.4597, 47.6257 22.237, 47.5404 21.9817, 47.5152 21.6943, 47.5026 21.6216, 47.4963 21.542, 47.4963 21.4561, 47.4963 21.2489, 47.5215 21.0382, 47.5719 20.8241 L 48.9585 15.4562, 47.1849 15.4562 C 47.028 15.4568, 46.9427 15.3743, 46.9301 15.2089 L 46.9301 15.1356, 46.9868 14.9799 C 47.0498 14.7972, 47.1665 14.7056, 47.336 14.7051 L 49.1377 14.7051, 49.9117 11.7005 C 49.9684 11.475, 50.0829 11.3072, 50.2558 11.1973, 50.4287 11.0874, 50.6033 11.0324, 50.7797 11.0318, 50.9623 11.0324, 51.1134 11.0902, 51.2325 11.2059, 51.3144 11.286, 51.355 11.396, 51.355 11.5357, 51.355 11.6032, 51.3487 11.6708, 51.3361 11.7372 L 50.5718 14.7051, 52.3083 14.7051 C 52.472 14.7056, 52.5533 14.7881, 52.5533 14.9524 L 52.5533 15.0165 Z" stroke="none" fill="#000000" />
			<path d="M 1.5467 8.95625 C -4.56906 4.92594, -4.56906 -4.92594, 1.5467 -8.95625 L 2.50721 -8.95625 C -3.00823 -4.92594, -3.00823 4.92594, 2.50721 8.95625" stroke="none" fill="#000000" transform="matrix(1 0 -0 1 43.4624 17.3232)" />
			<path d="M 1.5467 8.95625 C -4.56906 4.92594, -4.56906 -4.92594, 1.5467 -8.95625 L 2.50721 -8.95625 C -3.00823 -4.92594, -3.00823 4.92594, 2.50721 8.95625" stroke="none" fill="#000000" transform="matrix(-1 1.50996e-007 -1.50996e-007 -1 56.0268 17.3232)" />
			<polyline points="-6.566 -1.9698 6.566 -1.9698" fill="none" stroke="#000000" stroke-width="0.750400007" stroke-linecap="round" stroke-linejoin="round" transform="matrix(1 0 0 1 70.8472 17.3232)" />
			<polyline points="-6.566 1.9698 6.566 1.9698" fill="none" stroke="#000000" stroke-width="0.750400007" stroke-linecap="round" stroke-linejoin="round" transform="matrix(1 0 0 1 70.8472 17.3232)" />
			<path d="M 87.7093 11.3158 C 87.6526 11.5483, 87.5221 11.7423, 87.3177 11.8981, 87.1133 12.0538, 86.8917 12.1316, 86.6524 12.1311, 86.4011 12.1316, 86.2093 12.0463, 86.0771 11.8746, 85.9889 11.7773, 85.942 11.6582, 85.9351 11.5173, 85.9351 11.4326, 85.9477 11.3467, 85.9729 11.2609, 86.0301 11.0296, 86.1624 10.8355, 86.3696 10.6798, 86.5769 10.524, 86.8001 10.4462, 87.0395 10.4456, 87.2914 10.4462, 87.4831 10.5286, 87.6148 10.6929, 87.703 10.8097, 87.7471 10.9345, 87.7471 11.0685, 87.7471 11.1544, 87.7345 11.2368, 87.7093 11.3158 Z M 87.8129 20.2012 C 87.7442 20.5195, 87.6372 20.8538, 87.4923 21.2048, 87.348 21.5563, 87.17 21.8752, 86.9593 22.162, 86.7486 22.4494, 86.5013 22.6887, 86.2185 22.8805, 85.9357 23.0729, 85.6082 23.1691, 85.2372 23.1691, 84.9229 23.1691, 84.6527 23.1021, 84.4259 22.9675, 84.1992 22.8336, 84.0246 22.6567, 83.9021 22.4368, 83.7796 22.217, 83.7183 21.9725, 83.7183 21.7034, 83.7057 21.692, 83.6994 21.6674, 83.6994 21.6301, 83.6994 21.3559, 83.7595 21.0748, 83.8786 20.7874 L 85.4072 16.7569 C 85.5962 16.2508, 85.69 15.8352, 85.69 15.5112, 85.69 15.2369, 85.5738 15.0995, 85.3408 15.099, 85.1273 15.0995, 84.9355 15.1608, 84.7654 15.2827, 84.596 15.4053, 84.4403 15.5747, 84.2983 15.7911, 84.1569 16.0081, 84.0298 16.2646, 83.9164 16.5606, 83.8031 16.8571, 83.7086 17.1726, 83.633 17.5081, 83.5643 17.6735, 83.4481 17.7588, 83.2844 17.7646 L 83.0765 17.7646 C 82.9254 17.7651, 82.8498 17.689, 82.8498 17.5356 L 82.8498 17.4714 C 82.9254 17.1359, 83.0388 16.793, 83.1899 16.4415, 83.341 16.0905, 83.5231 15.7717, 83.7372 15.4843, 83.9513 15.1974, 84.1998 14.9593, 84.4826 14.7698, 84.7654 14.5808, 85.0895 14.4858, 85.4542 14.4852, 85.7691 14.4858, 86.0364 14.5534, 86.2563 14.6873, 86.4767 14.8219, 86.645 15.0005, 86.7612 15.2232, 86.8774 15.4465, 86.9416 15.6978, 86.9541 15.9783 L 86.9541 16.0425 C 86.9541 16.3058, 86.9009 16.5772, 86.7938 16.8577 L 85.2652 20.9065 C 85.0895 21.4017, 85.0013 21.8231, 85.0013 22.1706, 84.9887 22.1832, 84.9824 22.1832, 84.9824 22.1706, 84.9824 22.434, 85.1021 22.5651, 85.3408 22.5645, 85.5549 22.5651, 85.7484 22.5009, 85.9213 22.3727, 86.0942 22.2445, 86.2517 22.0738, 86.3931 21.8597, 86.5345 21.6462, 86.6587 21.3897, 86.7658 21.0903, 86.8729 20.7914, 86.9702 20.4765, 87.0583 20.1462, 87.0961 19.9882, 87.2061 19.9086, 87.3881 19.908 L 87.5959 19.908 C 87.6652 19.9086, 87.7345 19.9298, 87.8032 19.9722, 87.8226 20.0214, 87.8381 20.0643, 87.8507 20.1004, 87.8507 20.1376, 87.8381 20.1714, 87.8129 20.2012 Z" stroke="none" fill="#000000" />
			<path d="M 2.37714 3.19713 C 1.7292 3.17661, 1.09857 3.16635, 0.485571 3.16635, -0.127106 3.16635, -0.757737 3.17661, -1.406 3.19713 L -1.406 2.75598, -1.04115 2.75598 C -0.925093 2.7563, -0.815766 2.75469, -0.713814 2.75117, -0.611541 2.74796, -0.514718 2.7393, -0.423025 2.72552, -0.331331 2.71205, -0.252142 2.69827, -0.185456 2.68416, -0.12903 2.67422, -0.082221 2.6428, -0.0453515 2.58958, -0.00816131 2.53668, 0.0101132 2.47769, 0.0101132 2.41229 L 0.0101132 -3.36887 C -0.165899 -3.28295, -0.382628 -3.21787, -0.639754 -3.17362, -0.89688 -3.12906, -1.17869 -3.10694, -1.48519 -3.10726 L -1.48519 -3.54328 C -1.06231 -3.54296, -0.672135 -3.59329, -0.31466 -3.69429, 0.042815 -3.79496, 0.351879 -3.98411, 0.612531 -4.26144 L 0.77636 -4.26144 C 0.89242 -4.26112, 0.950449 -4.20469, 0.950449 -4.09216 L 0.950449 2.41229 C 0.950449 2.4809, 0.968082 2.54085, 1.00335 2.59215, 1.03862 2.64344, 1.08991 2.67422, 1.1566 2.68416, 1.21302 2.69827, 1.28548 2.71205, 1.37333 2.72552, 1.46149 2.7393, 1.56088 2.74796, 1.67181 2.75117, 1.78274 2.75469, 1.89111 2.7563, 1.99658 2.75598 L 2.37714 2.75598, 2.37714 3.19713 Z" stroke="none" fill="#000000" transform="matrix(1.12 0 0 1 90.3174 22.4221)" />
			<polyline points="-6.566 0 6.566 0" fill="none" stroke="#000000" stroke-width="0.750400007" stroke-linecap="round" stroke-linejoin="round" transform="matrix(1 0 0 1 105.312 17.3232)" />
			<path d="M 122.174 11.3158 C 122.118 11.5483, 121.987 11.7423, 121.783 11.8981, 121.578 12.0538, 121.357 12.1316, 121.118 12.1311, 120.866 12.1316, 120.674 12.0463, 120.542 11.8746, 120.454 11.7773, 120.407 11.6582, 120.4 11.5173, 120.4 11.4326, 120.413 11.3467, 120.438 11.2609, 120.495 11.0296, 120.627 10.8355, 120.835 10.6798, 121.042 10.524, 121.265 10.4462, 121.505 10.4456, 121.756 10.4462, 121.948 10.5286, 122.08 10.6929, 122.168 10.8097, 122.212 10.9345, 122.212 11.0685, 122.212 11.1544, 122.2 11.2368, 122.174 11.3158 Z M 122.278 20.2012 C 122.209 20.5195, 122.102 20.8538, 121.957 21.2048, 121.813 21.5563, 121.635 21.8752, 121.424 22.162, 121.214 22.4494, 120.966 22.6887, 120.684 22.8805, 120.401 23.0729, 120.073 23.1691, 119.702 23.1691, 119.388 23.1691, 119.118 23.1021, 118.891 22.9675, 118.664 22.8336, 118.49 22.6567, 118.367 22.4368, 118.245 22.217, 118.183 21.9725, 118.183 21.7034, 118.171 21.692, 118.165 21.6674, 118.165 21.6301, 118.165 21.3559, 118.225 21.0748, 118.344 20.7874 L 119.872 16.7569 C 120.061 16.2508, 120.155 15.8352, 120.155 15.5112, 120.155 15.2369, 120.039 15.0995, 119.806 15.099, 119.592 15.0995, 119.401 15.1608, 119.231 15.2827, 119.061 15.4053, 118.905 15.5747, 118.763 15.7911, 118.622 16.0081, 118.495 16.2646, 118.382 16.5606, 118.268 16.8571, 118.174 17.1726, 118.098 17.5081, 118.029 17.6735, 117.913 17.7588, 117.749 17.7646 L 117.542 17.7646 C 117.39 17.7651, 117.315 17.689, 117.315 17.5356 L 117.315 17.4714 C 117.39 17.1359, 117.504 16.793, 117.655 16.4415, 117.806 16.0905, 117.988 15.7717, 118.202 15.4843, 118.416 15.1974, 118.665 14.9593, 118.948 14.7698, 119.231 14.5808, 119.555 14.4858, 119.919 14.4852, 120.234 14.4858, 120.502 14.5534, 120.721 14.6873, 120.942 14.8219, 121.11 15.0005, 121.226 15.2232, 121.343 15.4465, 121.407 15.6978, 121.419 15.9783 L 121.419 16.0425 C 121.419 16.3058, 121.366 16.5772, 121.259 16.8577 L 119.73 20.9065 C 119.555 21.4017, 119.466 21.8231, 119.466 22.1706, 119.454 22.1832, 119.448 22.1832, 119.448 22.1706, 119.448 22.434, 119.567 22.5651, 119.806 22.5645, 120.02 22.5651, 120.214 22.5009, 120.386 22.3727, 120.559 22.2445, 120.717 22.0738, 120.858 21.8597, 121 21.6462, 121.124 21.3897, 121.231 21.0903, 121.338 20.7914, 121.435 20.4765, 121.523 20.1462, 121.561 19.9882, 121.671 19.9086, 121.853 19.908 L 122.061 19.908 C 122.13 19.9086, 122.2 19.9298, 122.268 19.9722, 122.288 20.0214, 122.303 20.0643, 122.316 20.1004, 122.316 20.1376, 122.303 20.1714, 122.278 20.2012 Z" stroke="none" fill="#000000" />
			<path d="M 2.39126 3.19713 L -1.90934 3.19713, -1.90934 2.915 C -1.90934 2.8948, -1.89876 2.86402, -1.8776 2.82266 L -0.149855 0.945196 C 0.0543709 0.71981, 0.261161 0.488975, 0.470837 0.253009, 0.680513 0.0170434, 0.868388 -0.224052, 1.03382 -0.470277, 1.19925 -0.716502, 1.33134 -0.970422, 1.43009 -1.23204, 1.52884 -1.49365, 1.57789 -1.76809, 1.57789 -2.05567, 1.57789 -2.29805, 1.54615 -2.52472, 1.48267 -2.73503, 1.41919 -2.94535, 1.32782 -3.13002, 1.20791 -3.28904, 1.08832 -3.44806, 0.938601 -3.5763, 0.759062 -3.67377, 0.579523 -3.77123, 0.371449 -3.81996, 0.135484 -3.82028, -0.216541 -3.81996, -0.527528 -3.7148, -0.797157 -3.50449, -1.06647 -3.29417, -1.24536 -3.06237, -1.33353 -2.80974, -1.35084 -2.80268, -1.32263 -2.79915, -1.24889 -2.79948 L -1.15912 -2.79948 C -1.05332 -2.77511, -0.961949 -2.73824, -0.884362 -2.68887, -0.806775 -2.63917, -0.741693 -2.57088, -0.688793 -2.48368, -0.635893 -2.39647, -0.609603 -2.29132, -0.609603 -2.16852, -0.609603 -1.96302, -0.676289 -1.8056, -0.810302 -1.69627, -0.944315 -1.58663, -1.09404 -1.53212, -1.25947 -1.53244, -1.41785 -1.53212, -1.56597 -1.58663, -1.70319 -1.69627, -1.84041 -1.8056, -1.90934 -1.96302, -1.90934 -2.16852, -1.90934 -2.45547, -1.85291 -2.72734, -1.74006 -2.98382, -1.6272 -3.24031, -1.47428 -3.46249, -1.28063 -3.65068, -1.08698 -3.83856, -0.858072 -3.98732, -0.593893 -4.09697, -0.329715 -4.20629, -0.0495055 -4.26112, 0.246413 -4.26144, 0.612865 -4.26112, 0.948539 -4.20725, 1.25311 -4.09953, 1.55769 -3.99181, 1.81738 -3.83695, 2.03219 -3.63529, 2.24699 -3.43331, 2.41531 -3.19991, 2.53682 -2.93509, 2.65833 -2.66995, 2.71892 -2.37692, 2.71892 -2.05567, 2.71892 -1.6998, 2.63813 -1.37214, 2.4759 -1.07302, 2.314 -0.77357, 2.1133 -0.499131, 1.87381 -0.2497, 1.63431 5.126e-005, 1.37975 0.235055, 1.11012 0.455632, 0.840816 0.676208, 0.596835 0.890693, 0.378503 1.09909 L -0.836912 2.24301, 0.753611 2.24301 C 0.97547 2.24333, 1.18258 2.24172, 1.3743 2.2382, 1.56635 2.23499, 1.72921 2.22794, 1.86323 2.21768, 1.99724 2.20742, 2.06585 2.20069, 2.06906 2.19684, 2.09727 2.17312, 2.12388 2.12534, 2.14857 2.05353, 2.17325 1.98171, 2.19602 1.89707, 2.21718 1.79961, 2.23833 1.70215, 2.2595 1.60308, 2.28066 1.50209, 2.30181 1.40142, 2.32105 1.29081, 2.33868 1.1709 L 2.7295 1.1709 Z" stroke="none" fill="#000000" transform="matrix(1.12 0 0 1 125.205 22.4221)" />
			<polyline points="-6.566 0 6.566 0" fill="none" stroke="#000000" stroke-width="0.750400007" stroke-linecap="round" stroke-linejoin="round" transform="matrix(1 0 0 1 140.647 17.3232)" />
			<path d="M 157.509 11.3158 C 157.452 11.5483, 157.322 11.7423, 157.118 11.8981, 156.913 12.0538, 156.692 12.1316, 156.452 12.1311, 156.201 12.1316, 156.009 12.0463, 155.877 11.8746, 155.789 11.7773, 155.742 11.6582, 155.735 11.5173, 155.735 11.4326, 155.748 11.3467, 155.773 11.2609, 155.83 11.0296, 155.962 10.8355, 156.169 10.6798, 156.377 10.524, 156.6 10.4462, 156.839 10.4456, 157.091 10.4462, 157.283 10.5286, 157.415 10.6929, 157.503 10.8097, 157.547 10.9345, 157.547 11.0685, 157.547 11.1544, 157.534 11.2368, 157.509 11.3158 Z M 157.613 20.2012 C 157.544 20.5195, 157.437 20.8538, 157.292 21.2048, 157.148 21.5563, 156.97 21.8752, 156.759 22.162, 156.548 22.4494, 156.301 22.6887, 156.018 22.8805, 155.736 23.0729, 155.408 23.1691, 155.037 23.1691, 154.723 23.1691, 154.453 23.1021, 154.226 22.9675, 153.999 22.8336, 153.824 22.6567, 153.702 22.4368, 153.579 22.217, 153.518 21.9725, 153.518 21.7034, 153.506 21.692, 153.499 21.6674, 153.499 21.6301, 153.499 21.3559, 153.559 21.0748, 153.678 20.7874 L 155.207 16.7569 C 155.396 16.2508, 155.49 15.8352, 155.49 15.5112, 155.49 15.2369, 155.374 15.0995, 155.141 15.099, 154.927 15.0995, 154.735 15.1608, 154.565 15.2827, 154.396 15.4053, 154.24 15.5747, 154.098 15.7911, 153.957 16.0081, 153.83 16.2646, 153.716 16.5606, 153.603 16.8571, 153.508 17.1726, 153.433 17.5081, 153.364 17.6735, 153.248 17.7588, 153.084 17.7646 L 152.876 17.7646 C 152.725 17.7651, 152.65 17.689, 152.65 17.5356 L 152.65 17.4714 C 152.725 17.1359, 152.839 16.793, 152.99 16.4415, 153.141 16.0905, 153.323 15.7717, 153.537 15.4843, 153.751 15.1974, 154 14.9593, 154.282 14.7698, 154.565 14.5808, 154.889 14.4858, 155.254 14.4852, 155.569 14.4858, 155.836 14.5534, 156.056 14.6873, 156.277 14.8219, 156.445 15.0005, 156.561 15.2232, 156.677 15.4465, 156.741 15.6978, 156.754 15.9783 L 156.754 16.0425 C 156.754 16.3058, 156.701 16.5772, 156.594 16.8577 L 155.065 20.9065 C 154.889 21.4017, 154.801 21.8231, 154.801 22.1706, 154.789 22.1832, 154.782 22.1832, 154.782 22.1706, 154.782 22.434, 154.902 22.5651, 155.141 22.5645, 155.355 22.5651, 155.548 22.5009, 155.721 22.3727, 155.894 22.2445, 156.052 22.0738, 156.193 21.8597, 156.334 21.6462, 156.459 21.3897, 156.566 21.0903, 156.673 20.7914, 156.77 20.4765, 156.858 20.1462, 156.896 19.9882, 157.006 19.9086, 157.188 19.908 L 157.396 19.908 C 157.465 19.9086, 157.534 19.9298, 157.603 19.9722, 157.622 20.0214, 157.638 20.0643, 157.651 20.1004, 157.651 20.1376, 157.638 20.1714, 157.613 20.2012 Z" stroke="none" fill="#000000" />
			<path d="M 2.81866 1.26324 C 2.81866 1.55755, 2.75357 1.84001, 2.62341 2.10996, 2.49324 2.38023, 2.31883 2.61106, 2.10018 2.80214, 1.85363 3.01791, 1.58144 3.17757, 1.28392 3.28177, 0.986397 3.38629, 0.675409 3.43822, 0.351277 3.43822, 0.0588849 3.43822, -0.226133 3.39719, -0.504419 3.31511, -0.782704 3.23304, -1.03342 3.11537, -1.2572 2.96148, -1.48098 2.80759, -1.65956 2.61876, -1.79357 2.39465, -1.92759 2.17087, -1.99459 1.91342, -1.99459 1.62232, -1.99459 1.40366, -1.9215 1.24047, -1.7753 1.13275, -1.6291 1.02503, -1.47489 0.971165, -1.31299 0.970845, -1.14371 0.971165, -0.986289 1.02503, -0.840093 1.13275, -0.693897 1.24047, -0.620799 1.40366, -0.620799 1.62232, -0.620799 1.75248, -0.646127 1.86117, -0.697423 1.94837, -0.7484 2.03558, -0.813483 2.10835, -0.892993 2.16638, -0.972182 2.22473, -1.06291 2.26032, -1.16519 2.27379, -1.21777 2.28789, -1.26714 2.29462, -1.31299 2.2943, -1.35851 2.29462, -1.36557 2.29815, -1.33415 2.30456, -1.22482 2.49629, -1.01001 2.66589, -0.689408 2.81272, -0.368803 2.95988, -0.0219078 3.0333, 0.351277 3.03298, 0.52761 3.0333, 0.692081 2.9897, 0.84533 2.90249, 0.99858 2.81529, 1.1265 2.69827, 1.22845 2.55079, 1.35541 2.35971, 1.44166 2.15452, 1.4875 1.93555, 1.53335 1.71689, 1.55611 1.49279, 1.55611 1.26324, 1.55611 1.02759, 1.53335 0.801244, 1.4875 0.583874, 1.44166 0.366824, 1.35541 0.165804, 1.22845 -0.0191851, 1.12265 -0.169228, 0.994091 -0.290738, 0.842765 -0.383072, 0.691439 -0.475407, 0.52761 -0.521574, 0.351277 -0.521894 L -0.414649 -0.521894 C -0.516602 -0.521574, -0.571425 -0.569344, -0.578479 -0.665526 L -0.578479 -0.721952 C -0.578479 -0.762669, -0.565975 -0.79505, -0.541609 -0.819416, -0.509869 -0.849874, -0.469473 -0.865263, -0.4201 -0.865584, -0.317827 -0.879049, -0.212027 -0.885782, -0.103021 -0.886102, 0.00277901 -0.885782, 0.106655 -0.892514, 0.208608 -0.906621, 0.399047 -0.920087, 0.56448 -0.978757, 0.705546 -1.08327, 0.846612 -1.18747, 0.964595 -1.32084, 1.05949 -1.48339, 1.15439 -1.64562, 1.22653 -1.83285, 1.2759 -2.04509, 1.32528 -2.25701, 1.34996 -2.47438, 1.34996 -2.69688, 1.34996 -2.86071, 1.33233 -3.01621, 1.29706 -3.16336, 1.2618 -3.3102, 1.19671 -3.43876, 1.10149 -3.54841, 0.904321 -3.7738, 0.654249 -3.88505, 0.351277 -3.88184, 0.0274656 -3.88152, -0.269415 -3.8206, -0.538724 -3.69942, -0.808032 -3.57791, -0.988854 -3.4471, -1.08055 -3.30731, -1.10491 -3.30347, -1.09273 -3.30186, -1.04336 -3.30219, -0.916397 -3.30186, -0.796811 -3.26435, -0.684279 -3.18933, -0.514999 -3.08994, -0.43068 -2.92227, -0.43068 -2.68662, -0.43068 -2.48785, -0.494801 -2.33812, -0.623363 -2.23745, -0.751926 -2.13646, -0.895558 -2.08613, -1.05394 -2.08645, -1.20911 -2.08613, -1.35434 -2.1355, -1.48996 -2.23489, -1.62558 -2.33396, -1.69354 -2.48464, -1.69354 -2.68662, -1.69354 -2.93605, -1.63359 -3.15631, -1.51368 -3.34803, -1.39378 -3.53943, -1.23989 -3.70358, -1.05137 -3.84048, -0.862856 -3.97706, -0.645485 -4.08158, -0.39894 -4.15339, -0.152074 -4.22521, 0.0979986 -4.26112, 0.351277 -4.26144, 0.622509 -4.26112, 0.885085 -4.22521, 1.13868 -4.15339, 1.39228 -4.08158, 1.63178 -3.97033, 1.85716 -3.82028, 2.04055 -3.69012, 2.19444 -3.53014, 2.31947 -3.34034, 2.44451 -3.15054, 2.50703 -2.93605, 2.50703 -2.69688, 2.50703 -2.45707, 2.46407 -2.23136, 2.37782 -2.01944, 2.29158 -1.8072, 2.17713 -1.6158, 2.03446 -1.44492, 1.89179 -1.27371, 1.72187 -1.12335, 1.52437 -0.993505, 1.3272 -0.863339, 1.17908 -0.781585, 1.08033 -0.747601, 1.16497 -0.737021, 1.30957 -0.686365, 1.51379 -0.595954, 1.71834 -0.505223, 1.91359 -0.384675, 2.10018 -0.234632, 2.31883 -0.0461159, 2.49324 0.178629, 2.62341 0.440243, 2.75357 0.701857, 2.81866 0.976295, 2.81866 1.26324 Z" stroke="none" fill="#000000" transform="matrix(1.12 0 0 1 160.624 22.4221)" />
			<polyline points="-6.566 0 6.566 0" fill="none" stroke="#000000" stroke-width="0.750400007" stroke-linecap="round" stroke-linejoin="round" transform="matrix(1 0 0 1 176.177 17.3232)" />
			<polyline points="0 -6.566 0 6.566" fill="none" stroke="#000000" stroke-width="0.750400007" stroke-linecap="round" stroke-linejoin="round" transform="matrix(1 0 0 1 176.177 17.3232)" />
			<path d="M 193.039 11.3158 C 192.983 11.5483, 192.852 11.7423, 192.648 11.8981, 192.443 12.0538, 192.222 12.1316, 191.982 12.1311, 191.731 12.1316, 191.539 12.0463, 191.407 11.8746, 191.319 11.7773, 191.272 11.6582, 191.265 11.5173, 191.265 11.4326, 191.278 11.3467, 191.303 11.2609, 191.36 11.0296, 191.492 10.8355, 191.7 10.6798, 191.907 10.524, 192.13 10.4462, 192.369 10.4456, 192.621 10.4462, 192.813 10.5286, 192.945 10.6929, 193.033 10.8097, 193.077 10.9345, 193.077 11.0685, 193.077 11.1544, 193.064 11.2368, 193.039 11.3158 Z M 193.143 20.2012 C 193.074 20.5195, 192.967 20.8538, 192.822 21.2048, 192.678 21.5563, 192.5 21.8752, 192.289 22.162, 192.079 22.4494, 191.831 22.6887, 191.548 22.8805, 191.266 23.0729, 190.938 23.1691, 190.567 23.1691, 190.253 23.1691, 189.983 23.1021, 189.756 22.9675, 189.529 22.8336, 189.355 22.6567, 189.232 22.4368, 189.11 22.217, 189.048 21.9725, 189.048 21.7034, 189.036 21.692, 189.029 21.6674, 189.029 21.6301, 189.029 21.3559, 189.089 21.0748, 189.209 20.7874 L 190.737 16.7569 C 190.926 16.2508, 191.02 15.8352, 191.02 15.5112, 191.02 15.2369, 190.904 15.0995, 190.671 15.099, 190.457 15.0995, 190.265 15.1608, 190.095 15.2827, 189.926 15.4053, 189.77 15.5747, 189.628 15.7911, 189.487 16.0081, 189.36 16.2646, 189.246 16.5606, 189.133 16.8571, 189.039 17.1726, 188.963 17.5081, 188.894 17.6735, 188.778 17.7588, 188.614 17.7646 L 188.406 17.7646 C 188.255 17.7651, 188.18 17.689, 188.18 17.5356 L 188.18 17.4714 C 188.255 17.1359, 188.369 16.793, 188.52 16.4415, 188.671 16.0905, 188.853 15.7717, 189.067 15.4843, 189.281 15.1974, 189.53 14.9593, 189.813 14.7698, 190.095 14.5808, 190.419 14.4858, 190.784 14.4852, 191.099 14.4858, 191.366 14.5534, 191.586 14.6873, 191.807 14.8219, 191.975 15.0005, 192.091 15.2232, 192.207 15.4465, 192.272 15.6978, 192.284 15.9783 L 192.284 16.0425 C 192.284 16.3058, 192.231 16.5772, 192.124 16.8577 L 190.595 20.9065 C 190.419 21.4017, 190.331 21.8231, 190.331 22.1706, 190.319 22.1832, 190.312 22.1832, 190.312 22.1706, 190.312 22.434, 190.432 22.5651, 190.671 22.5645, 190.885 22.5651, 191.078 22.5009, 191.251 22.3727, 191.424 22.2445, 191.582 22.0738, 191.723 21.8597, 191.864 21.6462, 191.989 21.3897, 192.096 21.0903, 192.203 20.7914, 192.3 20.4765, 192.388 20.1462, 192.426 19.9882, 192.536 19.9086, 192.718 19.908 L 192.926 19.908 C 192.995 19.9086, 193.064 19.9298, 193.133 19.9722, 193.153 20.0214, 193.168 20.0643, 193.181 20.1004, 193.181 20.1376, 193.168 20.1714, 193.143 20.2012 Z" stroke="none" fill="#000000" />
			<path d="M 1.84737 1.37096 L 1.84737 2.41229 C 1.84737 2.47416, 1.85892 2.53155, 1.88168 2.58445, 1.90476 2.63767, 1.94259 2.67262, 1.99517 2.68929, 2.07661 2.72712, 2.2087 2.74796, 2.39176 2.75117, 2.57483 2.75469, 2.75982 2.7563, 2.94641 2.75598 L 2.94641 3.19713 C 2.40747 3.17661, 1.87911 3.16635, 1.36134 3.16635, 0.850612 3.16635, 0.313277 3.17661, -0.250347 3.19713 L -0.250347 2.75598 C -0.0563805 2.7563, 0.130532 2.75469, 0.310071 2.75117, 0.48961 2.74796, 0.623624 2.72712, 0.711469 2.68929, 0.764369 2.67262, 0.803163 2.63767, 0.827849 2.58445, 0.852536 2.53155, 0.864719 2.47416, 0.864719 2.41229 L 0.864719 1.37096, -2.14705 1.37096, -2.14705 0.955456, 1.3825 -4.29221 C 1.42834 -4.35345, 1.48637 -4.38423, 1.55691 -4.38455 L 1.67297 -4.38455 C 1.78934 -4.38423, 1.84737 -4.3262, 1.84737 -4.21014 L 1.84737 0.919548, 2.98328 0.919548, 2.98328 1.37096 Z M 0.917619 -2.94311 L -1.68217 0.919548, 0.917619 0.919548 Z" stroke="none" fill="#000000" transform="matrix(1.12 0 0 1 196.308 22.4221)" />
			<path d="M 10.7368 11.4612 L -12.8523 11.4612 C -12.8951 11.4612, -12.9594 11.4407, -13.045 11.3989, -13.1093 11.358, -13.1414 11.2743, -13.1414 11.1497, -13.1414 11.0563, -13.1307 10.9892, -13.1093 10.9473 L -2.9902 -1.19906, -13.1093 -14.6846 C -13.1307 -14.7255, -13.1414 -14.7927, -13.1414 -14.8871 L -13.1414 -15.3543 C -13.1414 -15.5713, -13.045 -15.6803, -12.8523 -15.6813 L 10.7368 -15.6813, 13.1261 -9.29664, 12.437 -9.29664 C 12.0945 -10.23, 11.5679 -11.0368, 10.8574 -11.7172, 10.147 -12.3965, 9.32552 -12.9503, 8.39507 -13.3766, 7.7644 -13.6763, 7.08311 -13.907, 6.35121 -14.0686, 5.61932 -14.2292, 4.85725 -14.3508, 4.06598 -14.4345, 3.27569 -14.5172, 2.48151 -14.564, 1.68537 -14.5747, 0.889242 -14.5844, 0.105762 -14.5902, -0.665065 -14.5912 L -10.1583 -14.5912, -0.921034 -2.28912 C -0.835386 -2.13243, -0.835386 -2.01272, -0.921034 -1.93096 L -10.8153 9.9351, -0.504476 9.9351 C 0.265378 9.9351, 1.0508 9.93024, 1.85278 9.91953, 2.65475 9.9098, 3.43823 9.86503, 4.20224 9.78717, 4.96723 9.70931, 5.71567 9.59251, 6.44757 9.43679, 7.17946 9.28107, 7.86659 9.05332, 8.50797 8.75161, 9.42771 8.32629, 10.2375 7.77445, 10.9372 7.09414, 11.638 6.4148, 12.1373 5.60699, 12.437 4.67168 L 13.1261 4.67168 Z" stroke="none" fill="#000000" transform="matrix(1 0 0 1 14.0794 19.4333)" />
			<polyline points="-6.566 -1.9698 6.566 -1.9698" fill="none" stroke="#000000" stroke-width="0.750400007" stroke-linecap="round" stroke-linejoin="round" transform="matrix(1 0 0 1 214.876 17.3232)" />
			<polyline points="-6.566 1.9698 6.566 1.9698" fill="none" stroke="#000000" stroke-width="0.750400007" stroke-linecap="round" stroke-linejoin="round" transform="matrix(1 0 0 1 214.876 17.3232)" />
			<path d="M 235.504 16.6348 C 235.504 17.4971, 235.444 18.3544, 235.324 19.2072, 235.204 20.06, 234.906 20.8607, 234.432 21.608, 234.093 22.1533, 233.639 22.5719, 233.073 22.8648, 232.506 23.1582, 231.889 23.3046, 231.223 23.3046, 230.583 23.3046, 229.977 23.1582, 229.407 22.8648, 228.837 22.5719, 228.382 22.1533, 228.043 21.608, 227.569 20.8607, 227.272 20.06, 227.152 19.2072, 227.032 18.3544, 226.971 17.4971, 226.971 16.6348, 226.971 15.7617, 227.032 14.8893, 227.152 14.0185, 227.272 13.1478, 227.569 12.3325, 228.043 11.5718, 228.382 11.0219, 228.836 10.5938, 229.402 10.2886, 229.969 9.98339, 230.576 9.83078, 231.223 9.83022, 231.883 9.83078, 232.498 9.98339, 233.068 10.2886, 233.638 10.5938, 234.093 11.0219, 234.432 11.5718, 234.906 12.3325, 235.204 13.1478, 235.324 14.0185, 235.444 14.8893, 235.504 15.7617, 235.504 16.6348 Z M 233.673 16.3206 C 233.673 15.9441, 233.67 15.5463, 233.664 15.1272, 233.658 14.7086, 233.643 14.2985, 233.618 13.8973, 233.593 13.4967, 233.549 13.118, 233.484 12.7618, 233.419 12.406, 233.341 12.102, 233.248 11.85, 233.063 11.4438, 232.792 11.11, 232.435 10.8497, 232.077 10.5893, 231.673 10.4592, 231.223 10.4586, 230.786 10.4592, 230.39 10.591, 230.036 10.8542, 229.682 11.1179, 229.412 11.4494, 229.227 11.85, 229.135 12.102, 229.056 12.406, 228.991 12.7618, 228.926 13.118, 228.882 13.4967, 228.857 13.8973, 228.832 14.2985, 228.817 14.7086, 228.811 15.1272, 228.805 15.5463, 228.801 15.9441, 228.801 16.3206, 228.801 16.7402, 228.805 17.1818, 228.811 17.6452, 228.817 18.1092, 228.832 18.5581, 228.857 18.9918, 228.882 19.426, 228.926 19.8373, 228.991 20.2261, 229.056 20.6155, 229.135 20.9414, 229.227 21.204, 229.399 21.6416, 229.666 22.0007, 230.027 22.2818, 230.387 22.5635, 230.786 22.7037, 231.223 22.7032, 231.68 22.7037, 232.088 22.5635, 232.448 22.2818, 232.809 22.0007, 233.075 21.6416, 233.248 21.204, 233.341 20.9414, 233.419 20.6155, 233.484 20.2261, 233.549 19.8373, 233.593 19.426, 233.618 18.9918, 233.643 18.5581, 233.658 18.1092, 233.664 17.6452, 233.67 17.1818, 233.673 16.7402, 233.673 16.3206 Z" stroke="none" fill="#000000" />
			<rect />
		</svg>
	</g>
</svg>
