<?xml version="1.0"?>
<svg xmlns="http://www.w3.org/2000/svg" xmlns:xlink="http://www.w3.org/1999/xlink" width="520.714294" height="135.714294">
	<defs>
		<marker id="CustomMarker-01" markerUnits="strokeWidth" markerWidth="15.000001" markerHeight="9" viewBox="-15 -4.5 15 9" orient="auto-start-reverse">
			<path d="M 0 -0 L -10 -3, -8 -0.5, -8 0.5, -10 3 Z" fill="#E60000" stroke="#E60000" stroke-linejoin="round" />
		</marker>
	</defs>
	<g transform="matrix(1 0 -0 1 276.397 56.3509)">
		<svg width="707.964661" height="126.042824">
			<defs />
			<path d="M 41.3061 20.2012 C 41.2374 20.4828, 41.1556 20.7943, 41.0611 21.1361, 40.9672 21.4784, 40.8412 21.7956, 40.6838 22.0887, 40.5269 22.3819, 40.3288 22.6355, 40.0895 22.849, 39.8502 23.0626, 39.5514 23.1691, 39.193 23.1691, 38.7527 23.1691, 38.3972 23.0563, 38.127 22.8307, 37.8568 22.6051, 37.6896 22.3727, 37.6266 22.134, 37.4131 22.3973, 37.1268 22.6355, 36.7684 22.849, 36.41 23.0626, 35.9944 23.1691, 35.5226 23.1691, 35.0955 23.1691, 34.7131 23.09, 34.3765 22.9309, 34.0398 22.7729, 33.7742 22.5284, 33.579 22.1981, 33.3906 21.8443, 33.2996 21.4538, 33.3053 21.0256 L 33.3053 20.9523 C 33.3179 20.5069, 33.3746 20.0643, 33.4753 19.6241, 33.5761 19.2033, 33.7227 18.7395, 33.9145 18.2323, 34.1062 17.7256, 34.29 17.2338, 34.4658 16.7569, 34.6547 16.2508, 34.7492 15.8352, 34.7492 15.5112, 34.7492 15.2369, 34.6329 15.0995, 34.3999 15.099, 34.1864 15.0995, 33.9929 15.1608, 33.82 15.2827, 33.6471 15.4053, 33.4896 15.5747, 33.3482 15.7911, 33.2068 16.0081, 33.0792 16.2646, 32.9658 16.5606, 32.8524 16.8571, 32.7586 17.1726, 32.683 17.5081, 32.6137 17.6735, 32.4975 17.7588, 32.3338 17.7646 L 32.1168 17.7646 C 31.9656 17.7651, 31.8901 17.689, 31.8901 17.5356 L 31.8901 17.4714 C 31.9782 17.1359, 32.095 16.793, 32.2393 16.4415, 32.3841 16.0905, 32.5668 15.7717, 32.7866 15.4843, 33.007 15.1974, 33.2589 14.9593, 33.5417 14.7698, 33.8246 14.5808, 34.1486 14.4858, 34.5133 14.4852, 34.8282 14.4858, 35.0967 14.5534, 35.32 14.6873, 35.5432 14.8219, 35.7133 15.0005, 35.8295 15.2232, 35.9463 15.4465, 36.0104 15.6978, 36.023 15.9783 L 36.023 16.0425 C 36.023 16.3058, 35.9698 16.5772, 35.8621 16.8577, 35.6801 17.3346, 35.4997 17.8218, 35.32 18.3193, 35.1408 18.8174, 35.0011 19.2645, 34.9003 19.6613, 34.7995 20.0586, 34.7303 20.4519, 34.6925 20.8424, 34.6673 20.9466, 34.6518 21.0599, 34.6455 21.1813, 34.6455 21.42, 34.6868 21.6553, 34.7681 21.8866, 34.8247 22.095, 34.9284 22.2599, 35.0795 22.3819, 35.2307 22.5044, 35.4098 22.5651, 35.6171 22.5645, 36.0327 22.5651, 36.3946 22.4403, 36.7026 22.1895, 37.0106 21.9393, 37.2808 21.6061, 37.5132 21.1905, 37.5258 21.1424, 37.5356 21.0857, 37.5419 21.0216, 37.5482 20.9575, 37.5573 20.8916, 37.5699 20.8241 L 38.9852 15.3646 C 39.0424 15.139, 39.1569 14.973, 39.3298 14.8659, 39.5027 14.7595, 39.6773 14.7056, 39.8531 14.7051, 40.0357 14.7056, 40.1869 14.7606, 40.3065 14.87, 40.3884 14.9501, 40.429 15.0566, 40.429 15.1906, 40.429 15.2581, 40.4227 15.3285, 40.4101 15.4012 L 38.9949 20.8607 C 38.8941 21.2397, 38.8438 21.5758, 38.8438 21.8683, 38.8438 21.9485, 38.8501 22.0338, 38.8627 22.1248, 38.8941 22.4185, 39.0418 22.5651, 39.3063 22.5645, 39.5708 22.5651, 39.7987 22.3395, 39.9905 21.8872, 40.1823 21.4355, 40.3695 20.855, 40.5516 20.1462, 40.5893 19.9882, 40.6964 19.9086, 40.8722 19.908 L 41.0891 19.908 C 41.159 19.9086, 41.2283 19.9298, 41.297 19.9722, 41.3222 20.0277, 41.3348 20.0735, 41.3348 20.1096, 41.3348 20.1348, 41.3256 20.1651, 41.3061 20.2012 Z" stroke="none" fill="#000000" />
			<path d="M 56.9593 15.1814 C 56.8906 15.3652, 56.7675 15.4568, 56.5912 15.4562 L 54.8365 15.4562, 53.4401 20.8699 C 53.3273 21.2615, 53.2706 21.6032, 53.2706 21.8958, 53.2706 21.9759, 53.2769 22.0521, 53.2895 22.1248, 53.321 22.4185, 53.4687 22.5651, 53.7327 22.5645, 53.972 22.5651, 54.1981 22.4998, 54.4122 22.3681, 54.6264 22.237, 54.8273 22.0612, 55.0162 21.8414, 55.2052 21.6216, 55.3746 21.3622, 55.5258 21.0628, 55.6769 20.7639, 55.8149 20.4491, 55.9403 20.1187, 55.9597 20.046, 56.0004 19.9928, 56.0634 19.959, 56.1263 19.9258, 56.1859 19.9086, 56.2425 19.908 L 56.4784 19.908 C 56.5603 19.9086, 56.6261 19.9424, 56.6765 20.0088, 56.6954 20.0523, 56.7046 20.0918, 56.7046 20.1279 L 56.7046 20.1828 C 56.5729 20.5435, 56.4074 20.8996, 56.2093 21.2506, 56.0112 21.6021, 55.7834 21.9181, 55.5258 22.1987, 55.2681 22.4798, 54.983 22.7116, 54.6716 22.8943, 54.3601 23.0775, 54.0161 23.1691, 53.6382 23.1691, 53.3113 23.1691, 53.0285 23.1067, 52.7892 22.9813, 52.5504 22.8565, 52.3586 22.683, 52.2138 22.4597, 52.0695 22.237, 51.9842 21.9817, 51.959 21.6943, 51.9464 21.6216, 51.9401 21.542, 51.9401 21.4561, 51.9401 21.2489, 51.9653 21.0382, 52.0157 20.8241 L 53.4023 15.4562, 51.6287 15.4562 C 51.4718 15.4568, 51.3865 15.3743, 51.3739 15.2089 L 51.3739 15.1356, 51.4306 14.9799 C 51.4936 14.7972, 51.6104 14.7056, 51.7798 14.7051 L 53.5815 14.7051, 54.3556 11.7005 C 54.4122 11.475, 54.5267 11.3072, 54.6996 11.1973, 54.8725 11.0874, 55.0471 11.0324, 55.2235 11.0318, 55.4061 11.0324, 55.5573 11.0902, 55.6763 11.2059, 55.7582 11.286, 55.7989 11.396, 55.7989 11.5357, 55.7989 11.6032, 55.7926 11.6708, 55.78 11.7372 L 55.0157 14.7051, 56.7521 14.7051 C 56.9158 14.7056, 56.9971 14.7881, 56.9971 14.9524 L 56.9971 15.0165 Z" stroke="none" fill="#000000" />
			<path d="M 1.5467 8.95625 C -4.56906 4.92594, -4.56906 -4.92594, 1.5467 -8.95625 L 2.50721 -8.95625 C -3.00823 -4.92594, -3.00823 4.92594, 2.50721 8.95625" stroke="none" fill="#000000" transform="matrix(1 0 -0 1 47.9062 17.3232)" />
			<path d="M 1.5467 8.95625 C -4.56906 4.92594, -4.56906 -4.92594, 1.5467 -8.95625 L 2.50721 -8.95625 C -3.00823 -4.92594, -3.00823 4.92594, 2.50721 8.95625" stroke="none" fill="#000000" transform="matrix(-1 1.50996e-007 -1.50996e-007 -1 60.4706 17.3232)" />
			<polyline points="-6.566 -1.9698 6.566 -1.9698" fill="none" stroke="#000000" stroke-width="0.750400007" stroke-linecap="round" stroke-linejoin="round" transform="matrix(1 0 0 1 75.291 17.3232)" />
			<polyline points="-6.566 1.9698 6.566 1.9698" fill="none" stroke="#000000" stroke-width="0.750400007" stroke-linecap="round" stroke-linejoin="round" transform="matrix(1 0 0 1 75.291 17.3232)" />
			<polyline points="-6.566 0 6.566 0" fill="none" stroke="#000000" stroke-width="0.750400007" stroke-linecap="round" stroke-linejoin="round" transform="matrix(1 0 0 1 94.8014 17.3232)" />
			<path d="M 116.218 20.2012 C 116.15 20.4828, 116.068 20.7943, 115.973 21.1361, 115.879 21.4784, 115.754 21.7956, 115.596 22.0887, 115.439 22.3819, 115.241 22.6355, 115.002 22.849, 114.762 23.0626, 114.464 23.1691, 114.105 23.1691, 113.665 23.1691, 113.309 23.0563, 113.039 22.8307, 112.769 22.6051, 112.602 22.3727, 112.539 22.134, 112.325 22.3973, 112.039 22.6355, 111.681 22.849, 111.322 23.0626, 110.907 23.1691, 110.435 23.1691, 110.008 23.1691, 109.625 23.09, 109.289 22.9309, 108.952 22.7729, 108.686 22.5284, 108.491 22.1981, 108.303 21.8443, 108.212 21.4538, 108.218 21.0256 L 108.218 20.9523 C 108.23 20.5069, 108.287 20.0643, 108.388 19.6241, 108.488 19.2033, 108.635 18.7395, 108.827 18.2323, 109.019 17.7256, 109.202 17.2338, 109.378 16.7569, 109.567 16.2508, 109.661 15.8352, 109.661 15.5112, 109.661 15.2369, 109.545 15.0995, 109.312 15.099, 109.099 15.0995, 108.905 15.1608, 108.732 15.2827, 108.559 15.4053, 108.402 15.5747, 108.261 15.7911, 108.119 16.0081, 107.991 16.2646, 107.878 16.5606, 107.765 16.8571, 107.671 17.1726, 107.595 17.5081, 107.526 17.6735, 107.41 17.7588, 107.246 17.7646 L 107.029 17.7646 C 106.878 17.7651, 106.802 17.689, 106.802 17.5356 L 106.802 17.4714 C 106.89 17.1359, 107.007 16.793, 107.152 16.4415, 107.296 16.0905, 107.479 15.7717, 107.699 15.4843, 107.919 15.1974, 108.171 14.9593, 108.454 14.7698, 108.737 14.5808, 109.061 14.4858, 109.426 14.4852, 109.74 14.4858, 110.009 14.5534, 110.232 14.6873, 110.456 14.8219, 110.626 15.0005, 110.742 15.2232, 110.859 15.4465, 110.923 15.6978, 110.935 15.9783 L 110.935 16.0425 C 110.935 16.3058, 110.882 16.5772, 110.774 16.8577, 110.592 17.3346, 110.412 17.8218, 110.232 18.3193, 110.053 18.8174, 109.913 19.2645, 109.813 19.6613, 109.712 20.0586, 109.643 20.4519, 109.605 20.8424, 109.58 20.9466, 109.564 21.0599, 109.558 21.1813, 109.558 21.42, 109.599 21.6553, 109.68 21.8866, 109.737 22.095, 109.841 22.2599, 109.992 22.3819, 110.143 22.5044, 110.322 22.5651, 110.529 22.5645, 110.945 22.5651, 111.307 22.4403, 111.615 22.1895, 111.923 21.9393, 112.193 21.6061, 112.426 21.1905, 112.438 21.1424, 112.448 21.0857, 112.454 21.0216, 112.46 20.9575, 112.47 20.8916, 112.482 20.8241 L 113.897 15.3646 C 113.955 15.139, 114.069 14.973, 114.242 14.8659, 114.415 14.7595, 114.59 14.7056, 114.765 14.7051, 114.948 14.7056, 115.099 14.7606, 115.219 14.87, 115.301 14.9501, 115.341 15.0566, 115.341 15.1906, 115.341 15.2581, 115.335 15.3285, 115.322 15.4012 L 113.907 20.8607 C 113.806 21.2397, 113.756 21.5758, 113.756 21.8683, 113.756 21.9485, 113.762 22.0338, 113.775 22.1248, 113.806 22.4185, 113.954 22.5651, 114.219 22.5645, 114.483 22.5651, 114.711 22.3395, 114.903 21.8872, 115.095 21.4355, 115.282 20.855, 115.464 20.1462, 115.502 19.9882, 115.609 19.9086, 115.784 19.908 L 116.001 19.908 C 116.071 19.9086, 116.141 19.9298, 116.209 19.9722, 116.234 20.0277, 116.247 20.0735, 116.247 20.1096, 116.247 20.1348, 116.238 20.1651, 116.218 20.2012 Z" stroke="none" fill="#000000" />
			<path d="M 2.37714 3.19713 C 1.7292 3.17661, 1.09857 3.16635, 0.485571 3.16635, -0.127106 3.16635, -0.757737 3.17661, -1.406 3.19713 L -1.406 2.75598, -1.04115 2.75598 C -0.925093 2.7563, -0.815766 2.75469, -0.713814 2.75117, -0.611541 2.74796, -0.514718 2.7393, -0.423025 2.72552, -0.331331 2.71205, -0.252142 2.69827, -0.185456 2.68416, -0.12903 2.67422, -0.082221 2.6428, -0.0453515 2.58958, -0.00816131 2.53668, 0.0101132 2.47769, 0.0101132 2.41229 L 0.0101132 -3.36887 C -0.165899 -3.28295, -0.382628 -3.21787, -0.639754 -3.17362, -0.89688 -3.12906, -1.17869 -3.10694, -1.48519 -3.10726 L -1.48519 -3.54328 C -1.06231 -3.54296, -0.672135 -3.59329, -0.31466 -3.69429, 0.042815 -3.79496, 0.351879 -3.98411, 0.612531 -4.26144 L 0.77636 -4.26144 C 0.89242 -4.26112, 0.950449 -4.20469, 0.950449 -4.09216 L 0.950449 2.41229 C 0.950449 2.4809, 0.968082 2.54085, 1.00335 2.59215, 1.03862 2.64344, 1.08991 2.67422, 1.1566 2.68416, 1.21302 2.69827, 1.28548 2.71205, 1.37333 2.72552, 1.46149 2.7393, 1.56088 2.74796, 1.67181 2.75117, 1.78274 2.75469, 1.89111 2.7563, 1.99658 2.75598 L 2.37714 2.75598, 2.37714 3.19713 Z" stroke="none" fill="#000000" transform="matrix(1.12 0 0 1 118.715 22.4221)" />
			<polyline points="-6.566 0 6.566 0" fill="none" stroke="#000000" stroke-width="0.750400007" stroke-linecap="round" stroke-linejoin="round" transform="matrix(1 0 0 1 133.71 17.3232)" />
			<path d="M 155.127 20.2012 C 155.059 20.4828, 154.977 20.7943, 154.882 21.1361, 154.788 21.4784, 154.662 21.7956, 154.505 22.0887, 154.348 22.3819, 154.15 22.6355, 153.911 22.849, 153.671 23.0626, 153.373 23.1691, 153.014 23.1691, 152.574 23.1691, 152.218 23.0563, 151.948 22.8307, 151.678 22.6051, 151.511 22.3727, 151.448 22.134, 151.234 22.3973, 150.948 22.6355, 150.59 22.849, 150.231 23.0626, 149.816 23.1691, 149.344 23.1691, 148.917 23.1691, 148.534 23.09, 148.198 22.9309, 147.861 22.7729, 147.595 22.5284, 147.4 22.1981, 147.212 21.8443, 147.121 21.4538, 147.126 21.0256 L 147.126 20.9523 C 147.139 20.5069, 147.196 20.0643, 147.296 19.6241, 147.397 19.2033, 147.544 18.7395, 147.736 18.2323, 147.927 17.7256, 148.111 17.2338, 148.287 16.7569, 148.476 16.2508, 148.57 15.8352, 148.57 15.5112, 148.57 15.2369, 148.454 15.0995, 148.221 15.099, 148.008 15.0995, 147.814 15.1608, 147.641 15.2827, 147.468 15.4053, 147.311 15.5747, 147.169 15.7911, 147.028 16.0081, 146.9 16.2646, 146.787 16.5606, 146.674 16.8571, 146.58 17.1726, 146.504 17.5081, 146.435 17.6735, 146.319 17.7588, 146.155 17.7646 L 145.938 17.7646 C 145.787 17.7651, 145.711 17.689, 145.711 17.5356 L 145.711 17.4714 C 145.799 17.1359, 145.916 16.793, 146.06 16.4415, 146.205 16.0905, 146.388 15.7717, 146.608 15.4843, 146.828 15.1974, 147.08 14.9593, 147.363 14.7698, 147.646 14.5808, 147.97 14.4858, 148.334 14.4852, 148.649 14.4858, 148.918 14.5534, 149.141 14.6873, 149.364 14.8219, 149.534 15.0005, 149.651 15.2232, 149.767 15.4465, 149.832 15.6978, 149.844 15.9783 L 149.844 16.0425 C 149.844 16.3058, 149.791 16.5772, 149.683 16.8577, 149.501 17.3346, 149.321 17.8218, 149.141 18.3193, 148.962 18.8174, 148.822 19.2645, 148.721 19.6613, 148.621 20.0586, 148.551 20.4519, 148.514 20.8424, 148.488 20.9466, 148.473 21.0599, 148.467 21.1813, 148.467 21.42, 148.508 21.6553, 148.589 21.8866, 148.646 22.095, 148.75 22.2599, 148.901 22.3819, 149.052 22.5044, 149.231 22.5651, 149.438 22.5645, 149.854 22.5651, 150.216 22.4403, 150.524 22.1895, 150.832 21.9393, 151.102 21.6061, 151.334 21.1905, 151.347 21.1424, 151.357 21.0857, 151.363 21.0216, 151.369 20.9575, 151.378 20.8916, 151.391 20.8241 L 152.806 15.3646 C 152.864 15.139, 152.978 14.973, 153.151 14.8659, 153.324 14.7595, 153.498 14.7056, 153.674 14.7051, 153.857 14.7056, 154.008 14.7606, 154.128 14.87, 154.21 14.9501, 154.25 15.0566, 154.25 15.1906, 154.25 15.2581, 154.244 15.3285, 154.231 15.4012 L 152.816 20.8607 C 152.715 21.2397, 152.665 21.5758, 152.665 21.8683, 152.665 21.9485, 152.671 22.0338, 152.684 22.1248, 152.715 22.4185, 152.863 22.5651, 153.128 22.5645, 153.392 22.5651, 153.62 22.3395, 153.812 21.8872, 154.003 21.4355, 154.191 20.855, 154.373 20.1462, 154.411 19.9882, 154.518 19.9086, 154.693 19.908 L 154.91 19.908 C 154.98 19.9086, 155.049 19.9298, 155.118 19.9722, 155.143 20.0277, 155.156 20.0735, 155.156 20.1096, 155.156 20.1348, 155.147 20.1651, 155.127 20.2012 Z" stroke="none" fill="#000000" />
			<path d="M 2.39126 3.19713 L -1.90934 3.19713, -1.90934 2.915 C -1.90934 2.8948, -1.89876 2.86402, -1.8776 2.82266 L -0.149855 0.945196 C 0.0543709 0.71981, 0.261161 0.488975, 0.470837 0.253009, 0.680513 0.0170434, 0.868388 -0.224052, 1.03382 -0.470277, 1.19925 -0.716502, 1.33134 -0.970422, 1.43009 -1.23204, 1.52884 -1.49365, 1.57789 -1.76809, 1.57789 -2.05567, 1.57789 -2.29805, 1.54615 -2.52472, 1.48267 -2.73503, 1.41919 -2.94535, 1.32782 -3.13002, 1.20791 -3.28904, 1.08832 -3.44806, 0.938601 -3.5763, 0.759062 -3.67377, 0.579523 -3.77123, 0.371449 -3.81996, 0.135484 -3.82028, -0.216541 -3.81996, -0.527528 -3.7148, -0.797157 -3.50449, -1.06647 -3.29417, -1.24536 -3.06237, -1.33353 -2.80974, -1.35084 -2.80268, -1.32263 -2.79915, -1.24889 -2.79948 L -1.15912 -2.79948 C -1.05332 -2.77511, -0.961949 -2.73824, -0.884362 -2.68887, -0.806775 -2.63917, -0.741693 -2.57088, -0.688793 -2.48368, -0.635893 -2.39647, -0.609603 -2.29132, -0.609603 -2.16852, -0.609603 -1.96302, -0.676289 -1.8056, -0.810302 -1.69627, -0.944315 -1.58663, -1.09404 -1.53212, -1.25947 -1.53244, -1.41785 -1.53212, -1.56597 -1.58663, -1.70319 -1.69627, -1.84041 -1.8056, -1.90934 -1.96302, -1.90934 -2.16852, -1.90934 -2.45547, -1.85291 -2.72734, -1.74006 -2.98382, -1.6272 -3.24031, -1.47428 -3.46249, -1.28063 -3.65068, -1.08698 -3.83856, -0.858072 -3.98732, -0.593893 -4.09697, -0.329715 -4.20629, -0.0495055 -4.26112, 0.246413 -4.26144, 0.612865 -4.26112, 0.948539 -4.20725, 1.25311 -4.09953, 1.55769 -3.99181, 1.81738 -3.83695, 2.03219 -3.63529, 2.24699 -3.43331, 2.41531 -3.19991, 2.53682 -2.93509, 2.65833 -2.66995, 2.71892 -2.37692, 2.71892 -2.05567, 2.71892 -1.6998, 2.63813 -1.37214, 2.4759 -1.07302, 2.314 -0.77357, 2.1133 -0.499131, 1.87381 -0.2497, 1.63431 5.126e-005, 1.37975 0.235055, 1.11012 0.455632, 0.840816 0.676208, 0.596835 0.890693, 0.378503 1.09909 L -0.836912 2.24301, 0.753611 2.24301 C 0.97547 2.24333, 1.18258 2.24172, 1.3743 2.2382, 1.56635 2.23499, 1.72921 2.22794, 1.86323 2.21768, 1.99724 2.20742, 2.06585 2.20069, 2.06906 2.19684, 2.09727 2.17312, 2.12388 2.12534, 2.14857 2.05353, 2.17325 1.98171, 2.19602 1.89707, 2.21718 1.79961, 2.23833 1.70215, 2.2595 1.60308, 2.28066 1.50209, 2.30181 1.40142, 2.32105 1.29081, 2.33868 1.1709 L 2.7295 1.1709 Z" stroke="none" fill="#000000" transform="matrix(1.12 0 0 1 158.047 22.4221)" />
			<polyline points="-6.566 0 6.566 0" fill="none" stroke="#000000" stroke-width="0.750400007" stroke-linecap="round" stroke-linejoin="round" transform="matrix(1 0 0 1 173.489 17.3232)" />
			<polyline points="0 -6.566 0 6.566" fill="none" stroke="#000000" stroke-width="0.750400007" stroke-linecap="round" stroke-linejoin="round" transform="matrix(1 0 0 1 173.489 17.3232)" />
			<path d="M 194.906 20.2012 C 194.837 20.4828, 194.755 20.7943, 194.661 21.1361, 194.567 21.4784, 194.441 21.7956, 194.284 22.0887, 194.127 22.3819, 193.929 22.6355, 193.689 22.849, 193.45 23.0626, 193.151 23.1691, 192.793 23.1691, 192.352 23.1691, 191.997 23.0563, 191.727 22.8307, 191.457 22.6051, 191.289 22.3727, 191.226 22.134, 191.013 22.3973, 190.727 22.6355, 190.368 22.849, 190.01 23.0626, 189.594 23.1691, 189.122 23.1691, 188.695 23.1691, 188.313 23.09, 187.976 22.9309, 187.64 22.7729, 187.374 22.5284, 187.179 22.1981, 186.99 21.8443, 186.899 21.4538, 186.905 21.0256 L 186.905 20.9523 C 186.918 20.5069, 186.974 20.0643, 187.075 19.6241, 187.176 19.2033, 187.322 18.7395, 187.514 18.2323, 187.706 17.7256, 187.89 17.2338, 188.066 16.7569, 188.254 16.2508, 188.349 15.8352, 188.349 15.5112, 188.349 15.2369, 188.233 15.0995, 188 15.099, 187.786 15.0995, 187.593 15.1608, 187.42 15.2827, 187.247 15.4053, 187.089 15.5747, 186.948 15.7911, 186.807 16.0081, 186.679 16.2646, 186.566 16.5606, 186.452 16.8571, 186.358 17.1726, 186.283 17.5081, 186.213 17.6735, 186.097 17.7588, 185.934 17.7646 L 185.717 17.7646 C 185.565 17.7651, 185.49 17.689, 185.49 17.5356 L 185.49 17.4714 C 185.578 17.1359, 185.695 16.793, 185.839 16.4415, 185.984 16.0905, 186.167 15.7717, 186.386 15.4843, 186.607 15.1974, 186.859 14.9593, 187.141 14.7698, 187.424 14.5808, 187.748 14.4858, 188.113 14.4852, 188.428 14.4858, 188.696 14.5534, 188.92 14.6873, 189.143 14.8219, 189.313 15.0005, 189.429 15.2232, 189.546 15.4465, 189.61 15.6978, 189.623 15.9783 L 189.623 16.0425 C 189.623 16.3058, 189.57 16.5772, 189.462 16.8577, 189.28 17.3346, 189.099 17.8218, 188.92 18.3193, 188.741 18.8174, 188.601 19.2645, 188.5 19.6613, 188.399 20.0586, 188.33 20.4519, 188.292 20.8424, 188.267 20.9466, 188.252 21.0599, 188.245 21.1813, 188.245 21.42, 188.287 21.6553, 188.368 21.8866, 188.424 22.095, 188.528 22.2599, 188.679 22.3819, 188.83 22.5044, 189.01 22.5651, 189.217 22.5645, 189.632 22.5651, 189.994 22.4403, 190.302 22.1895, 190.61 21.9393, 190.881 21.6061, 191.113 21.1905, 191.126 21.1424, 191.135 21.0857, 191.142 21.0216, 191.148 20.9575, 191.157 20.8916, 191.17 20.8241 L 192.585 15.3646 C 192.642 15.139, 192.757 14.973, 192.93 14.8659, 193.102 14.7595, 193.277 14.7056, 193.453 14.7051, 193.635 14.7056, 193.787 14.7606, 193.906 14.87, 193.988 14.9501, 194.029 15.0566, 194.029 15.1906, 194.029 15.2581, 194.022 15.3285, 194.01 15.4012 L 192.595 20.8607 C 192.494 21.2397, 192.444 21.5758, 192.444 21.8683, 192.444 21.9485, 192.45 22.0338, 192.462 22.1248, 192.494 22.4185, 192.642 22.5651, 192.906 22.5645, 193.171 22.5651, 193.398 22.3395, 193.59 21.8872, 193.782 21.4355, 193.969 20.855, 194.151 20.1462, 194.189 19.9882, 194.296 19.9086, 194.472 19.908 L 194.689 19.908 C 194.759 19.9086, 194.828 19.9298, 194.897 19.9722, 194.922 20.0277, 194.935 20.0735, 194.935 20.1096, 194.935 20.1348, 194.925 20.1651, 194.906 20.2012 Z" stroke="none" fill="#000000" />
			<path d="M 2.81866 1.26324 C 2.81866 1.55755, 2.75357 1.84001, 2.62341 2.10996, 2.49324 2.38023, 2.31883 2.61106, 2.10018 2.80214, 1.85363 3.01791, 1.58144 3.17757, 1.28392 3.28177, 0.986397 3.38629, 0.675409 3.43822, 0.351277 3.43822, 0.0588849 3.43822, -0.226133 3.39719, -0.504419 3.31511, -0.782704 3.23304, -1.03342 3.11537, -1.2572 2.96148, -1.48098 2.80759, -1.65956 2.61876, -1.79357 2.39465, -1.92759 2.17087, -1.99459 1.91342, -1.99459 1.62232, -1.99459 1.40366, -1.9215 1.24047, -1.7753 1.13275, -1.6291 1.02503, -1.47489 0.971165, -1.31299 0.970845, -1.14371 0.971165, -0.986289 1.02503, -0.840093 1.13275, -0.693897 1.24047, -0.620799 1.40366, -0.620799 1.62232, -0.620799 1.75248, -0.646127 1.86117, -0.697423 1.94837, -0.7484 2.03558, -0.813483 2.10835, -0.892993 2.16638, -0.972182 2.22473, -1.06291 2.26032, -1.16519 2.27379, -1.21777 2.28789, -1.26714 2.29462, -1.31299 2.2943, -1.35851 2.29462, -1.36557 2.29815, -1.33415 2.30456, -1.22482 2.49629, -1.01001 2.66589, -0.689408 2.81272, -0.368803 2.95988, -0.0219078 3.0333, 0.351277 3.03298, 0.52761 3.0333, 0.692081 2.9897, 0.84533 2.90249, 0.99858 2.81529, 1.1265 2.69827, 1.22845 2.55079, 1.35541 2.35971, 1.44166 2.15452, 1.4875 1.93555, 1.53335 1.71689, 1.55611 1.49279, 1.55611 1.26324, 1.55611 1.02759, 1.53335 0.801244, 1.4875 0.583874, 1.44166 0.366824, 1.35541 0.165804, 1.22845 -0.0191851, 1.12265 -0.169228, 0.994091 -0.290738, 0.842765 -0.383072, 0.691439 -0.475407, 0.52761 -0.521574, 0.351277 -0.521894 L -0.414649 -0.521894 C -0.516602 -0.521574, -0.571425 -0.569344, -0.578479 -0.665526 L -0.578479 -0.721952 C -0.578479 -0.762669, -0.565975 -0.79505, -0.541609 -0.819416, -0.509869 -0.849874, -0.469473 -0.865263, -0.4201 -0.865584, -0.317827 -0.879049, -0.212027 -0.885782, -0.103021 -0.886102, 0.00277901 -0.885782, 0.106655 -0.892514, 0.208608 -0.906621, 0.399047 -0.920087, 0.56448 -0.978757, 0.705546 -1.08327, 0.846612 -1.18747, 0.964595 -1.32084, 1.05949 -1.48339, 1.15439 -1.64562, 1.22653 -1.83285, 1.2759 -2.04509, 1.32528 -2.25701, 1.34996 -2.47438, 1.34996 -2.69688, 1.34996 -2.86071, 1.33233 -3.01621, 1.29706 -3.16336, 1.2618 -3.3102, 1.19671 -3.43876, 1.10149 -3.54841, 0.904321 -3.7738, 0.654249 -3.88505, 0.351277 -3.88184, 0.0274656 -3.88152, -0.269415 -3.8206, -0.538724 -3.69942, -0.808032 -3.57791, -0.988854 -3.4471, -1.08055 -3.30731, -1.10491 -3.30347, -1.09273 -3.30186, -1.04336 -3.30219, -0.916397 -3.30186, -0.796811 -3.26435, -0.684279 -3.18933, -0.514999 -3.08994, -0.43068 -2.92227, -0.43068 -2.68662, -0.43068 -2.48785, -0.494801 -2.33812, -0.623363 -2.23745, -0.751926 -2.13646, -0.895558 -2.08613, -1.05394 -2.08645, -1.20911 -2.08613, -1.35434 -2.1355, -1.48996 -2.23489, -1.62558 -2.33396, -1.69354 -2.48464, -1.69354 -2.68662, -1.69354 -2.93605, -1.63359 -3.15631, -1.51368 -3.34803, -1.39378 -3.53943, -1.23989 -3.70358, -1.05137 -3.84048, -0.862856 -3.97706, -0.645485 -4.08158, -0.39894 -4.15339, -0.152074 -4.22521, 0.0979986 -4.26112, 0.351277 -4.26144, 0.622509 -4.26112, 0.885085 -4.22521, 1.13868 -4.15339, 1.39228 -4.08158, 1.63178 -3.97033, 1.85716 -3.82028, 2.04055 -3.69012, 2.19444 -3.53014, 2.31947 -3.34034, 2.44451 -3.15054, 2.50703 -2.93605, 2.50703 -2.69688, 2.50703 -2.45707, 2.46407 -2.23136, 2.37782 -2.01944, 2.29158 -1.8072, 2.17713 -1.6158, 2.03446 -1.44492, 1.89179 -1.27371, 1.72187 -1.12335, 1.52437 -0.993505, 1.3272 -0.863339, 1.17908 -0.781585, 1.08033 -0.747601, 1.16497 -0.737021, 1.30957 -0.686365, 1.51379 -0.595954, 1.71834 -0.505223, 1.91359 -0.384675, 2.10018 -0.234632, 2.31883 -0.0461159, 2.49324 0.178629, 2.62341 0.440243, 2.75357 0.701857, 2.81866 0.976295, 2.81866 1.26324 Z" stroke="none" fill="#000000" transform="matrix(1.12 0 0 1 197.91 22.4221)" />
			<polyline points="-6.566 -1.9698 6.566 -1.9698" fill="none" stroke="#000000" stroke-width="0.750400007" stroke-linecap="round" stroke-linejoin="round" transform="matrix(1 0 0 1 213.463 17.3232)" />
			<polyline points="-6.566 1.9698 6.566 1.9698" fill="none" stroke="#000000" stroke-width="0.750400007" stroke-linecap="round" stroke-linejoin="round" transform="matrix(1 0 0 1 213.463 17.3232)" />
			<path d="M 234.089 16.6348 C 234.089 17.4971, 234.029 18.3544, 233.909 19.2072, 233.789 20.06, 233.492 20.8607, 233.017 21.608, 232.678 22.1533, 232.225 22.5719, 231.658 22.8648, 231.091 23.1582, 230.474 23.3046, 229.808 23.3046, 229.168 23.3046, 228.562 23.1582, 227.992 22.8648, 227.422 22.5719, 226.967 22.1533, 226.628 21.608, 226.153 20.8607, 225.856 20.06, 225.736 19.2072, 225.616 18.3544, 225.555 17.4971, 225.555 16.6348, 225.555 15.7617, 225.616 14.8893, 225.736 14.0185, 225.856 13.1478, 226.153 12.3325, 226.628 11.5718, 226.967 11.0219, 227.42 10.5938, 227.987 10.2886, 228.554 9.98339, 229.161 9.83078, 229.808 9.83022, 230.468 9.83078, 231.083 9.98339, 231.653 10.2886, 232.223 10.5938, 232.678 11.0219, 233.017 11.5718, 233.492 12.3325, 233.789 13.1478, 233.909 14.0185, 234.029 14.8893, 234.089 15.7617, 234.089 16.6348 Z M 232.259 16.3206 C 232.259 15.9441, 232.256 15.5463, 232.25 15.1272, 232.243 14.7086, 232.228 14.2985, 232.203 13.8973, 232.178 13.4967, 232.134 13.118, 232.069 12.7618, 232.004 12.406, 231.926 12.102, 231.833 11.85, 231.649 11.4438, 231.378 11.11, 231.02 10.8497, 230.662 10.5893, 230.258 10.4592, 229.808 10.4586, 229.371 10.4592, 228.975 10.591, 228.621 10.8542, 228.266 11.1179, 227.996 11.4494, 227.811 11.85, 227.719 12.102, 227.64 12.406, 227.575 12.7618, 227.511 13.118, 227.466 13.4967, 227.441 13.8973, 227.417 14.2985, 227.401 14.7086, 227.395 15.1272, 227.389 15.5463, 227.386 15.9441, 227.386 16.3206, 227.386 16.7402, 227.389 17.1818, 227.395 17.6452, 227.401 18.1092, 227.417 18.5581, 227.441 18.9918, 227.466 19.426, 227.511 19.8373, 227.575 20.2261, 227.64 20.6155, 227.719 20.9414, 227.811 21.204, 227.984 21.6416, 228.251 22.0007, 228.611 22.2818, 228.972 22.5635, 229.371 22.7037, 229.808 22.7032, 230.265 22.7037, 230.674 22.5635, 231.034 22.2818, 231.394 22.0007, 231.661 21.6416, 231.833 21.204, 231.926 20.9414, 232.004 20.6155, 232.069 20.2261, 232.134 19.8373, 232.178 19.426, 232.203 18.9918, 232.228 18.5581, 232.243 18.1092, 232.25 17.6452, 232.256 17.1818, 232.259 16.7402, 232.259 16.3206 Z" stroke="none" fill="#000000" />
			<path d="M 10.7368 11.4612 L -12.8523 11.4612 C -12.8951 11.4612, -12.9594 11.4407, -13.045 11.3989, -13.1093 11.358, -13.1414 11.2743, -13.1414 11.1497, -13.1414 11.0563, -13.1307 10.9892, -13.1093 10.9473 L -2.9902 -1.19906, -13.1093 -14.6846 C -13.1307 -14.7255, -13.1414 -14.7927, -13.1414 -14.8871 L -13.1414 -15.3543 C -13.1414 -15.5713, -13.045 -15.6803, -12.8523 -15.6813 L 10.7368 -15.6813, 13.1261 -9.29664, 12.437 -9.29664 C 12.0945 -10.23, 11.5679 -11.0368, 10.8574 -11.7172, 10.147 -12.3965, 9.32552 -12.9503, 8.39507 -13.3766, 7.7644 -13.6763, 7.08311 -13.907, 6.35121 -14.0686, 5.61932 -14.2292, 4.85725 -14.3508, 4.06598 -14.4345, 3.27569 -14.5172, 2.48151 -14.564, 1.68537 -14.5747, 0.889242 -14.5844, 0.105762 -14.5902, -0.665065 -14.5912 L -10.1583 -14.5912, -0.921034 -2.28912 C -0.835386 -2.13243, -0.835386 -2.01272, -0.921034 -1.93096 L -10.8153 9.9351, -0.504476 9.9351 C 0.265378 9.9351, 1.0508 9.93024, 1.85278 9.91953, 2.65475 9.9098, 3.43823 9.86503, 4.20224 9.78717, 4.96723 9.70931, 5.71567 9.59251, 6.44757 9.43679, 7.17946 9.28107, 7.86659 9.05332, 8.50797 8.75161, 9.42771 8.32629, 10.2375 7.77445, 10.9372 7.09414, 11.638 6.4148, 12.1373 5.60699, 12.437 4.67168 L 13.1261 4.67168 Z" stroke="none" fill="#000000" transform="matrix(1 0 0 1 14.0794 19.4333)" />
			<rect />
		</svg>
	</g>
	<path d="M -293.303 0 L 293.3 0" fill="none" stroke="#000000" stroke-width="3.73333335" stroke-linecap="round" stroke-linejoin="round" transform="matrix(0.357143 0 0 0.357143 113.406 28.0599)" />
	<path d="M -85.0227 0 L -51.0136 0" fill="none" stroke="#000000" stroke-width="2.79999995" stroke-linecap="round" stroke-linejoin="round" transform="matrix(0.357143 0 -0 0.357143 113.406 28.0599)" />
	<path d="M 51.0136 0 L 85.0227 0" fill="none" stroke="#000000" stroke-width="2.79999995" stroke-linecap="round" stroke-linejoin="round" transform="matrix(0.357143 0 -0 0.357143 113.406 28.0599)" />
	<rect x="-51.013607" y="-12.7533331" width="102.027214" height="25.5066662" stroke="none" fill="#FFFFFF" transform="matrix(0.357143 0 -0 0.357143 113.406 28.0599)" />
	<path d="M -51.0136 -12.7533 L 51.0136 -12.7533, 51.0136 12.7533, -51.0136 12.7533 Z" fill="none" stroke="#000000" stroke-width="4.19999981" stroke-linecap="round" stroke-linejoin="round" transform="matrix(0.357143 0 -0 0.357143 113.406 28.0599)" />
	<g transform="matrix(1 0 -0 1 19.7827 65.2442)">
		<svg width="48.0251122" height="38.9999924">
			<defs />
			<path d="M 9.41063 14.0854 C 9.34193 14.3671, 9.26006 14.6785, 9.1656 15.0203, 9.0717 15.3627, 8.94575 15.6798, 8.78831 15.973, 8.63144 16.2661, 8.43336 16.5197, 8.19405 16.7332, 7.95474 16.9468, 7.65589 17.0533, 7.2975 17.0533, 6.85724 17.0533, 6.50171 16.9405, 6.23148 16.7149, 5.96126 16.4894, 5.79409 16.2569, 5.73111 16.0182, 5.51756 16.2815, 5.23131 16.5197, 4.87292 16.7332, 4.51453 16.9468, 4.09889 17.0533, 3.62714 17.0533, 3.20005 17.0533, 2.81761 16.9743, 2.48097 16.8151, 2.14434 16.6571, 1.87869 16.4126, 1.68347 16.0823, 1.49511 15.7285, 1.40408 15.338, 1.40981 14.9098 L 1.40981 14.8365 C 1.4224 14.3911, 1.47908 13.9486, 1.57984 13.5083, 1.6806 13.0875, 1.82717 12.6238, 2.01896 12.1165, 2.21075 11.6099, 2.39452 11.1181, 2.57029 10.6412, 2.75921 10.1351, 2.85368 9.71943, 2.85368 9.39539, 2.85368 9.12116, 2.73746 8.98375, 2.50445 8.98318, 2.2909 8.98375, 2.09739 9.04501, 1.92449 9.16696, 1.7516 9.28947, 1.59416 9.45894, 1.45275 9.67535, 1.31134 9.89233, 1.18367 10.1488, 1.07031 10.4448, 0.956953 10.7414, 0.863061 11.0568, 0.78749 11.3923, 0.718216 11.5578, 0.601997 11.6431, 0.438259 11.6488 L 0.221278 11.6488 C 0.0701351 11.6494, -0.00543621 11.5732, -0.00543621 11.4198 L -0.00543621 11.3557 C 0.0827303 11.0202, 0.199522 10.6772, 0.343795 10.3257, 0.48864 9.97477, 0.67127 9.65588, 0.891114 9.36848, 1.11153 9.08165, 1.36343 8.84349, 1.64625 8.65399, 1.92907 8.46506, 2.25311 8.37002, 2.6178 8.36945, 2.93268 8.37002, 3.20119 8.43758, 3.42447 8.57155, 3.64775 8.70609, 3.81778 8.88471, 3.934 9.10742, 4.0508 9.33069, 4.11492 9.58203, 4.12751 9.86256 L 4.12751 9.92668 C 4.12751 10.19, 4.07427 10.4614, 3.96664 10.7419, 3.78458 11.2188, 3.60424 11.706, 3.42447 12.2035, 3.24527 12.7016, 3.10558 13.1488, 3.00482 13.5455, 2.90406 13.9428, 2.83478 14.3361, 2.797 14.7266, 2.77181 14.8308, 2.75635 14.9442, 2.75005 15.0655, 2.75005 15.3043, 2.79127 15.5396, 2.87257 15.7709, 2.92925 15.9792, 3.03287 16.1441, 3.18402 16.2661, 3.33516 16.3886, 3.51435 16.4493, 3.7216 16.4487, 4.13724 16.4493, 4.49907 16.3245, 4.80708 16.0737, 5.11509 15.8235, 5.38532 15.4903, 5.61775 15.0747, 5.63035 15.0266, 5.64008 14.9699, 5.64638 14.9058, 5.65268 14.8417, 5.66184 14.7758, 5.67443 14.7083 L 7.08968 9.24883 C 7.14693 9.02326, 7.26143 8.85723, 7.43433 8.75017, 7.60723 8.64368, 7.78184 8.58987, 7.9576 8.58929, 8.14023 8.58987, 8.29137 8.64483, 8.41103 8.75418, 8.4929 8.83433, 8.53355 8.94081, 8.53355 9.07478, 8.53355 9.14234, 8.52725 9.21276, 8.51465 9.28547 L 7.09941 14.7449 C 6.99865 15.1239, 6.94827 15.46, 6.94827 15.7525, 6.94827 15.8327, 6.95456 15.918, 6.96716 16.009, 6.99865 16.3027, 7.14636 16.4493, 7.41085 16.4487, 7.67535 16.4493, 7.90321 16.2237, 8.095 15.7714, 8.28679 15.3197, 8.474 14.7392, 8.65606 14.0304, 8.69385 13.8724, 8.80091 13.7928, 8.97667 13.7923 L 9.19365 13.7923 C 9.2635 13.7928, 9.33277 13.814, 9.40147 13.8564, 9.42666 13.9119, 9.43926 13.9577, 9.43926 13.9938, 9.43926 14.019, 9.4301 14.0493, 9.41063 14.0854 Z" stroke="none" fill="#000000" />
			<path d="M 2.37267 3.19713 C 1.72472 3.17661, 1.09441 3.16635, 0.481416 3.16635, -0.131261 3.16635, -0.761571 3.17661, -1.40951 3.19713 L -1.40951 2.75598, -1.04499 2.75598 C -0.928927 2.7563, -0.819601 2.75469, -0.717648 2.75117, -0.615375 2.74796, -0.518552 2.7393, -0.426859 2.72552, -0.335166 2.71205, -0.255976 2.69827, -0.18929 2.68416, -0.132864 2.67422, -0.086376 2.6428, -0.0495062 2.58958, -0.012316 2.53668, 0.00595856 2.47769, 0.00595856 2.41229 L 0.00595856 -3.36887 C -0.169733 -3.28295, -0.386463 -3.21787, -0.643588 -3.17362, -0.900714 -3.12906, -1.18221 -3.10694, -1.4887 -3.10726 L -1.4887 -3.54328 C -1.06615 -3.54296, -0.675969 -3.59329, -0.318494 -3.69429, 0.0389807 -3.79496, 0.348044 -3.98411, 0.608376 -4.26144 L 0.772206 -4.26144 C 0.888265 -4.26112, 0.946294 -4.20469, 0.946294 -4.09216 L 0.946294 2.41229 C 0.946294 2.4809, 0.963928 2.54085, 0.999194 2.59215, 1.03446 2.64344, 1.08576 2.67422, 1.15244 2.68416, 1.20887 2.69827, 1.28133 2.71205, 1.36917 2.72552, 1.45702 2.7393, 1.55641 2.74796, 1.66734 2.75117, 1.77827 2.75469, 1.88663 2.7563, 1.99243 2.75598 L 2.37267 2.75598, 2.37267 3.19713 Z" stroke="none" fill="#000000" transform="matrix(1.12 0 0 1 11.9077 16.3063)" />
			<rect />
		</svg>
	</g>
	<g transform="matrix(1 0 -0 1 105.805 -2.55467)">
		<svg width="50.9839096" height="38.9999924">
			<defs />
			<path d="M 9.41063 14.0854 C 9.34193 14.3671, 9.26006 14.6785, 9.1656 15.0203, 9.0717 15.3627, 8.94575 15.6798, 8.78831 15.973, 8.63144 16.2661, 8.43336 16.5197, 8.19405 16.7332, 7.95474 16.9468, 7.65589 17.0533, 7.2975 17.0533, 6.85724 17.0533, 6.50171 16.9405, 6.23148 16.7149, 5.96126 16.4894, 5.79409 16.2569, 5.73111 16.0182, 5.51756 16.2815, 5.23131 16.5197, 4.87292 16.7332, 4.51453 16.9468, 4.09889 17.0533, 3.62714 17.0533, 3.20005 17.0533, 2.81761 16.9743, 2.48097 16.8151, 2.14434 16.6571, 1.87869 16.4126, 1.68347 16.0823, 1.49511 15.7285, 1.40408 15.338, 1.40981 14.9098 L 1.40981 14.8365 C 1.4224 14.3911, 1.47908 13.9486, 1.57984 13.5083, 1.6806 13.0875, 1.82717 12.6238, 2.01896 12.1165, 2.21075 11.6099, 2.39452 11.1181, 2.57029 10.6412, 2.75921 10.1351, 2.85368 9.71943, 2.85368 9.39539, 2.85368 9.12116, 2.73746 8.98375, 2.50445 8.98318, 2.2909 8.98375, 2.09739 9.04501, 1.92449 9.16696, 1.7516 9.28947, 1.59416 9.45894, 1.45275 9.67535, 1.31134 9.89233, 1.18367 10.1488, 1.07031 10.4448, 0.956953 10.7414, 0.863061 11.0568, 0.78749 11.3923, 0.718216 11.5578, 0.601997 11.6431, 0.438259 11.6488 L 0.221278 11.6488 C 0.0701351 11.6494, -0.00543621 11.5732, -0.00543621 11.4198 L -0.00543621 11.3557 C 0.0827303 11.0202, 0.199522 10.6772, 0.343795 10.3257, 0.48864 9.97477, 0.67127 9.65588, 0.891114 9.36848, 1.11153 9.08165, 1.36343 8.84349, 1.64625 8.65399, 1.92907 8.46506, 2.25311 8.37002, 2.6178 8.36945, 2.93268 8.37002, 3.20119 8.43758, 3.42447 8.57155, 3.64775 8.70609, 3.81778 8.88471, 3.934 9.10742, 4.0508 9.33069, 4.11492 9.58203, 4.12751 9.86256 L 4.12751 9.92668 C 4.12751 10.19, 4.07427 10.4614, 3.96664 10.7419, 3.78458 11.2188, 3.60424 11.706, 3.42447 12.2035, 3.24527 12.7016, 3.10558 13.1488, 3.00482 13.5455, 2.90406 13.9428, 2.83478 14.3361, 2.797 14.7266, 2.77181 14.8308, 2.75635 14.9442, 2.75005 15.0655, 2.75005 15.3043, 2.79127 15.5396, 2.87257 15.7709, 2.92925 15.9792, 3.03287 16.1441, 3.18402 16.2661, 3.33516 16.3886, 3.51435 16.4493, 3.7216 16.4487, 4.13724 16.4493, 4.49907 16.3245, 4.80708 16.0737, 5.11509 15.8235, 5.38532 15.4903, 5.61775 15.0747, 5.63035 15.0266, 5.64008 14.9699, 5.64638 14.9058, 5.65268 14.8417, 5.66184 14.7758, 5.67443 14.7083 L 7.08968 9.24883 C 7.14693 9.02326, 7.26143 8.85723, 7.43433 8.75017, 7.60723 8.64368, 7.78184 8.58987, 7.9576 8.58929, 8.14023 8.58987, 8.29137 8.64483, 8.41103 8.75418, 8.4929 8.83433, 8.53355 8.94081, 8.53355 9.07478, 8.53355 9.14234, 8.52725 9.21276, 8.51465 9.28547 L 7.09941 14.7449 C 6.99865 15.1239, 6.94827 15.46, 6.94827 15.7525, 6.94827 15.8327, 6.95456 15.918, 6.96716 16.009, 6.99865 16.3027, 7.14636 16.4493, 7.41085 16.4487, 7.67535 16.4493, 7.90321 16.2237, 8.095 15.7714, 8.28679 15.3197, 8.474 14.7392, 8.65606 14.0304, 8.69385 13.8724, 8.80091 13.7928, 8.97667 13.7923 L 9.19365 13.7923 C 9.2635 13.7928, 9.33277 13.814, 9.40147 13.8564, 9.42666 13.9119, 9.43926 13.9577, 9.43926 13.9938, 9.43926 14.019, 9.4301 14.0493, 9.41063 14.0854 Z" stroke="none" fill="#000000" />
			<path d="M 2.39138 3.19713 L -1.90858 3.19713, -1.90858 2.915 C -1.90858 2.8948, -1.898 2.86402, -1.87684 2.82266 L -0.149418 0.945196 C 0.0551279 0.71981, 0.261918 0.488975, 0.471594 0.253009, 0.68127 0.0170434, 0.868504 -0.224052, 1.03394 -0.470277, 1.19937 -0.716502, 1.33146 -0.970422, 1.4302 -1.23204, 1.52895 -1.49365, 1.578 -1.76809, 1.578 -2.05567, 1.578 -2.29805, 1.54658 -2.52472, 1.4831 -2.73503, 1.41962 -2.94535, 1.32825 -3.13002, 1.20835 -3.28904, 1.08844 -3.44806, 0.938716 -3.5763, 0.759177 -3.67377, 0.579638 -3.77123, 0.371886 -3.81996, 0.13592 -3.82028, -0.216105 -3.81996, -0.527092 -3.7148, -0.7964 -3.50449, -1.06571 -3.29417, -1.24461 -3.06237, -1.33277 -2.80974, -1.35009 -2.80268, -1.32187 -2.79915, -1.24813 -2.79948 L -1.15836 -2.79948 C -1.05256 -2.77511, -0.961191 -2.73824, -0.883605 -2.68887, -0.806018 -2.63917, -0.740935 -2.57088, -0.688036 -2.48368, -0.635136 -2.39647, -0.608846 -2.29132, -0.608846 -2.16852, -0.608846 -1.96302, -0.675532 -1.8056, -0.809545 -1.69627, -0.943558 -1.58663, -1.09328 -1.53212, -1.25871 -1.53244, -1.41709 -1.53212, -1.56489 -1.58663, -1.70243 -1.69627, -1.83965 -1.8056, -1.90858 -1.96302, -1.90858 -2.16852, -1.90858 -2.45547, -1.85215 -2.72734, -1.7393 -2.98382, -1.62645 -3.24031, -1.47352 -3.46249, -1.27987 -3.65068, -1.08623 -3.83856, -0.857315 -3.98732, -0.593136 -4.09697, -0.328958 -4.20629, -0.0487483 -4.26112, 0.24685 -4.26144, 0.612981 -4.26112, 0.948655 -4.20725, 1.25323 -4.09953, 1.55781 -3.99181, 1.8175 -3.83695, 2.0323 -3.63529, 2.24711 -3.43331, 2.41543 -3.19991, 2.53693 -2.93509, 2.65844 -2.66995, 2.71904 -2.37692, 2.71904 -2.05567, 2.71904 -1.6998, 2.63825 -1.37214, 2.47602 -1.07302, 2.31411 -0.77357, 2.11342 -0.499131, 1.87392 -0.2497, 1.63443 5.126e-005, 1.37987 0.235055, 1.11056 0.455632, 0.841252 0.676208, 0.597272 0.890693, 0.378939 1.09909 L -0.836155 2.24301, 0.754048 2.24301 C 0.975907 2.24333, 1.18302 2.24172, 1.37474 2.2382, 1.56678 2.23499, 1.72965 2.22794, 1.86334 2.21768, 1.99736 2.20742, 2.06597 2.20069, 2.06917 2.19684, 2.09738 2.17312, 2.12399 2.12534, 2.14868 2.05353, 2.17337 1.98171, 2.19613 1.89707, 2.21729 1.79961, 2.23845 1.70215, 2.25961 1.60308, 2.28077 1.50209, 2.30193 1.40142, 2.32117 1.29081, 2.3388 1.1709 L 2.72962 1.1709 Z" stroke="none" fill="#000000" transform="matrix(1.12 0 0 1 12.3306 16.3063)" />
			<rect />
		</svg>
	</g>
	<g transform="matrix(1 0 -0 1 192.165 65.2443)">
		<svg width="50.9839096" height="38.9999924">
			<defs />
			<path d="M 9.41063 14.0854 C 9.34193 14.3671, 9.26006 14.6785, 9.1656 15.0203, 9.0717 15.3627, 8.94575 15.6798, 8.78831 15.973, 8.63144 16.2661, 8.43336 16.5197, 8.19405 16.7332, 7.95474 16.9468, 7.65589 17.0533, 7.2975 17.0533, 6.85724 17.0533, 6.50171 16.9405, 6.23148 16.7149, 5.96126 16.4894, 5.79409 16.2569, 5.73111 16.0182, 5.51756 16.2815, 5.23131 16.5197, 4.87292 16.7332, 4.51453 16.9468, 4.09889 17.0533, 3.62714 17.0533, 3.20005 17.0533, 2.81761 16.9743, 2.48097 16.8151, 2.14434 16.6571, 1.87869 16.4126, 1.68347 16.0823, 1.49511 15.7285, 1.40408 15.338, 1.40981 14.9098 L 1.40981 14.8365 C 1.4224 14.3911, 1.47908 13.9486, 1.57984 13.5083, 1.6806 13.0875, 1.82717 12.6238, 2.01896 12.1165, 2.21075 11.6099, 2.39452 11.1181, 2.57029 10.6412, 2.75921 10.1351, 2.85368 9.71943, 2.85368 9.39539, 2.85368 9.12116, 2.73746 8.98375, 2.50445 8.98318, 2.2909 8.98375, 2.09739 9.04501, 1.92449 9.16696, 1.7516 9.28947, 1.59416 9.45894, 1.45275 9.67535, 1.31134 9.89233, 1.18367 10.1488, 1.07031 10.4448, 0.956953 10.7414, 0.863061 11.0568, 0.78749 11.3923, 0.718216 11.5578, 0.601997 11.6431, 0.438259 11.6488 L 0.221278 11.6488 C 0.0701351 11.6494, -0.00543621 11.5732, -0.00543621 11.4198 L -0.00543621 11.3557 C 0.0827303 11.0202, 0.199522 10.6772, 0.343795 10.3257, 0.48864 9.97477, 0.67127 9.65588, 0.891114 9.36848, 1.11153 9.08165, 1.36343 8.84349, 1.64625 8.65399, 1.92907 8.46506, 2.25311 8.37002, 2.6178 8.36945, 2.93268 8.37002, 3.20119 8.43758, 3.42447 8.57155, 3.64775 8.70609, 3.81778 8.88471, 3.934 9.10742, 4.0508 9.33069, 4.11492 9.58203, 4.12751 9.86256 L 4.12751 9.92668 C 4.12751 10.19, 4.07427 10.4614, 3.96664 10.7419, 3.78458 11.2188, 3.60424 11.706, 3.42447 12.2035, 3.24527 12.7016, 3.10558 13.1488, 3.00482 13.5455, 2.90406 13.9428, 2.83478 14.3361, 2.797 14.7266, 2.77181 14.8308, 2.75635 14.9442, 2.75005 15.0655, 2.75005 15.3043, 2.79127 15.5396, 2.87257 15.7709, 2.92925 15.9792, 3.03287 16.1441, 3.18402 16.2661, 3.33516 16.3886, 3.51435 16.4493, 3.7216 16.4487, 4.13724 16.4493, 4.49907 16.3245, 4.80708 16.0737, 5.11509 15.8235, 5.38532 15.4903, 5.61775 15.0747, 5.63035 15.0266, 5.64008 14.9699, 5.64638 14.9058, 5.65268 14.8417, 5.66184 14.7758, 5.67443 14.7083 L 7.08968 9.24883 C 7.14693 9.02326, 7.26143 8.85723, 7.43433 8.75017, 7.60723 8.64368, 7.78184 8.58987, 7.9576 8.58929, 8.14023 8.58987, 8.29137 8.64483, 8.41103 8.75418, 8.4929 8.83433, 8.53355 8.94081, 8.53355 9.07478, 8.53355 9.14234, 8.52725 9.21276, 8.51465 9.28547 L 7.09941 14.7449 C 6.99865 15.1239, 6.94827 15.46, 6.94827 15.7525, 6.94827 15.8327, 6.95456 15.918, 6.96716 16.009, 6.99865 16.3027, 7.14636 16.4493, 7.41085 16.4487, 7.67535 16.4493, 7.90321 16.2237, 8.095 15.7714, 8.28679 15.3197, 8.474 14.7392, 8.65606 14.0304, 8.69385 13.8724, 8.80091 13.7928, 8.97667 13.7923 L 9.19365 13.7923 C 9.2635 13.7928, 9.33277 13.814, 9.40147 13.8564, 9.42666 13.9119, 9.43926 13.9577, 9.43926 13.9938, 9.43926 14.019, 9.4301 14.0493, 9.41063 14.0854 Z" stroke="none" fill="#000000" />
			<path d="M 2.81931 1.26324 C 2.81931 1.55755, 2.75423 1.84001, 2.62406 2.10996, 2.4939 2.38023, 2.31949 2.61106, 2.10083 2.80214, 1.85461 3.01791, 1.58242 3.17757, 1.28489 3.28177, 0.987372 3.38629, 0.676384 3.43822, 0.352252 3.43822, 0.0601807 3.43822, -0.224838 3.39719, -0.503123 3.31511, -0.781409 3.23304, -1.03212 3.11537, -1.2559 2.96148, -1.47969 2.80759, -1.65826 2.61876, -1.79228 2.39465, -1.92597 2.17087, -1.99298 1.91342, -1.99298 1.62232, -1.99298 1.40366, -1.91988 1.24047, -1.77368 1.13275, -1.62749 1.02503, -1.4736 0.971165, -1.31169 0.970845, -1.14241 0.971165, -0.984993 1.02503, -0.838797 1.13275, -0.692601 1.24047, -0.619503 1.40366, -0.619503 1.62232, -0.619503 1.75248, -0.644831 1.86117, -0.696128 1.94837, -0.747104 2.03558, -0.812187 2.10835, -0.891697 2.16638, -0.970886 2.22473, -1.06162 2.26032, -1.16357 2.27379, -1.21615 2.28789, -1.26552 2.29462, -1.31169 2.2943, -1.35722 2.29462, -1.36427 2.29815, -1.33285 2.30456, -1.22352 2.49629, -1.00872 2.66589, -0.688112 2.81272, -0.367507 2.95988, -0.0209324 3.0333, 0.352252 3.03298, 0.528585 3.0333, 0.693056 2.9897, 0.846305 2.90249, 0.999555 2.81529, 1.12748 2.69827, 1.22943 2.55079, 1.35639 2.35971, 1.44263 2.15452, 1.48816 1.93555, 1.534 1.71689, 1.55677 1.49279, 1.55677 1.26324, 1.55677 1.02759, 1.534 0.801244, 1.48816 0.583874, 1.44263 0.366824, 1.35639 0.165804, 1.22943 -0.0191851, 1.12363 -0.169228, 0.995066 -0.290738, 0.84374 -0.383072, 0.692415 -0.475407, 0.528585 -0.521574, 0.352252 -0.521894 L -0.413674 -0.521894 C -0.515627 -0.521574, -0.57013 -0.569344, -0.577183 -0.665526 L -0.577183 -0.721952 C -0.577183 -0.762669, -0.564679 -0.79505, -0.540313 -0.819416, -0.508573 -0.849874, -0.468177 -0.865263, -0.418804 -0.865584, -0.316531 -0.879049, -0.211051 -0.885782, -0.102046 -0.886102, 0.00375414 -0.885782, 0.107951 -0.892514, 0.209903 -0.906621, 0.400023 -0.920087, 0.565455 -0.978757, 0.706201 -1.08327, 0.847267 -1.18747, 0.96525 -1.32084, 1.06015 -1.48339, 1.15537 -1.64562, 1.22751 -1.83285, 1.27688 -2.04509, 1.32625 -2.25701, 1.35094 -2.47438, 1.35094 -2.69688, 1.35094 -2.86071, 1.33331 -3.01621, 1.29804 -3.16336, 1.26277 -3.3102, 1.19769 -3.43876, 1.10247 -3.54841, 0.905297 -3.7738, 0.655225 -3.88505, 0.352252 -3.88184, 0.0284407 -3.88152, -0.268119 -3.8206, -0.537428 -3.69942, -0.806736 -3.57791, -0.987558 -3.4471, -1.07925 -3.30731, -1.10362 -3.30347, -1.09143 -3.30186, -1.04206 -3.30219, -0.915101 -3.30186, -0.795515 -3.26435, -0.682983 -3.18933, -0.513703 -3.08994, -0.429384 -2.92227, -0.429384 -2.68662, -0.429384 -2.48785, -0.493505 -2.33812, -0.622068 -2.23745, -0.75063 -2.13646, -0.894262 -2.08613, -1.05264 -2.08645, -1.20749 -2.08613, -1.35273 -2.1355, -1.48834 -2.23489, -1.62396 -2.33396, -1.69193 -2.48464, -1.69193 -2.68662, -1.69193 -2.93605, -1.63197 -3.15631, -1.51239 -3.34803, -1.39248 -3.53943, -1.23859 -3.70358, -1.05008 -3.84048, -0.86156 -3.97706, -0.644189 -4.08158, -0.397644 -4.15339, -0.151098 -4.22521, 0.098974 -4.26112, 0.352252 -4.26144, 0.623485 -4.26112, 0.88606 -4.22521, 1.13966 -4.15339, 1.39326 -4.08158, 1.63275 -3.97033, 1.85782 -3.82028, 2.0412 -3.69012, 2.19509 -3.53014, 2.32013 -3.34034, 2.44516 -3.15054, 2.50768 -2.93605, 2.50768 -2.69688, 2.50768 -2.45707, 2.46472 -2.23136, 2.37848 -2.01944, 2.29224 -1.8072, 2.17778 -1.6158, 2.03511 -1.44492, 1.89244 -1.27371, 1.72252 -1.12335, 1.52535 -0.993505, 1.32818 -0.863339, 1.18006 -0.781585, 1.08131 -0.747601, 1.16595 -0.737021, 1.31054 -0.686365, 1.51477 -0.595954, 1.71899 -0.505223, 1.91424 -0.384675, 2.10083 -0.234632, 2.31949 -0.0461159, 2.4939 0.178629, 2.62406 0.440243, 2.75423 0.701857, 2.81931 0.976295, 2.81931 1.26324 Z" stroke="none" fill="#000000" transform="matrix(1.12 0 0 1 12.4149 16.3063)" />
			<rect />
		</svg>
	</g>
	<g transform="matrix(1 0 -0 1 138.144 3.27101)">
		<svg width="119.936646" height="119.999977">
			<defs />
			<polyline points="-5.628 0 5.628 0" fill="none" stroke="#000000" stroke-width="0.64319998" stroke-linecap="round" stroke-linejoin="round" transform="matrix(1 0 0 1 5.628 9.60638)" />
			<polyline points="0 -5.628 0 5.628" fill="none" stroke="#000000" stroke-width="0.64319998" stroke-linecap="round" stroke-linejoin="round" transform="matrix(1 0 0 1 5.628 9.60638)" />
			<rect />
		</svg>
	</g>
	<g transform="matrix(1 0 -0 1 77.413 3.27101)">
		<svg width="119.936646" height="83.9999847">
			<defs />
			<polyline points="-5.628 0 5.628 0" fill="none" stroke="#000000" stroke-width="0.64319998" stroke-linecap="round" stroke-linejoin="round" transform="matrix(1 0 0 1 5.628 9.60638)" />
			<rect />
		</svg>
	</g>
	<path d="M -293.303 0 L 293.3 0" fill="none" stroke="#000000" stroke-width="3.73333335" stroke-linecap="round" stroke-linejoin="round" transform="matrix(0.357143 0 0 0.357143 113.406 127.34)" />
	<path d="M 0 -138.993 L 0 138.992" fill="none" stroke="#000000" stroke-width="3.73333335" stroke-linecap="round" stroke-linejoin="round" transform="matrix(0.357143 0 0 0.357143 179.919 77.7001)" />
	<path d="M 0 -138.992 L 0 138.993" fill="none" stroke="#000000" stroke-width="3.73333335" stroke-linecap="round" stroke-linejoin="round" transform="matrix(0.357143 0 0 0.357143 46.8933 77.7001)" />
	<ellipse cx="587.30117225646973" cy="442.5677433013916" rx="7.3500003814697266" ry="7.3500003814697266" stroke="none" fill="#000000" transform="matrix(0.357143 0 0 0.357143 -162.857 -130)" />
	<ellipse cx="959.77456092834473" cy="442.5677433013916" rx="7.3500003814697266" ry="7.3500003814697266" stroke="none" fill="#000000" transform="matrix(0.357143 0 0 0.357143 -162.857 -130)" />
	<ellipse cx="959.77456092834473" cy="720.55275917053223" rx="7.3500003814697266" ry="7.3500003814697266" stroke="none" fill="#000000" transform="matrix(0.357143 0 0 0.357143 -162.857 -130)" />
	<ellipse cx="587.30117225646973" cy="720.55275917053223" rx="7.3500003814697266" ry="7.3500003814697266" stroke="none" fill="#000000" transform="matrix(0.357143 0 0 0.357143 -162.857 -130)" />
	<path d="M -85.0227 0 L -51.0136 0" fill="none" stroke="#000000" stroke-width="2.79999995" stroke-linecap="round" stroke-linejoin="round" transform="matrix(2.69635e-008 0.357143 -0.357143 2.69635e-008 46.8933 77.7001)" />
	<path d="M 51.0136 0 L 85.0227 0" fill="none" stroke="#000000" stroke-width="2.79999995" stroke-linecap="round" stroke-linejoin="round" transform="matrix(2.69635e-008 0.357143 -0.357143 2.69635e-008 46.8933 77.7001)" />
	<path d="M -51.0136 -12.7533 L 51.0136 -12.7533, 51.0136 12.7533, -51.0136 12.7533 Z" stroke="none" fill="#FFFFFF" transform="matrix(2.69635e-008 0.357143 -0.357143 2.69635e-008 46.8933 77.7001)" />
	<path d="M -51.0136 -12.7533 L 51.0136 -12.7533, 51.0136 12.7533, -51.0136 12.7533 Z" fill="none" stroke="#000000" stroke-width="4.19999981" stroke-linecap="round" stroke-linejoin="round" transform="matrix(2.69635e-008 0.357143 -0.357143 2.69635e-008 46.8933 77.7001)" />
	<path d="M -85.0227 0 L -51.0136 0" fill="none" stroke="#000000" stroke-width="2.79999995" stroke-linecap="round" stroke-linejoin="round" transform="matrix(2.69635e-008 0.357143 -0.357143 2.69635e-008 179.919 77.7001)" />
	<path d="M 51.0136 0 L 85.0227 0" fill="none" stroke="#000000" stroke-width="2.79999995" stroke-linecap="round" stroke-linejoin="round" transform="matrix(2.69635e-008 0.357143 -0.357143 2.69635e-008 179.919 77.7001)" />
	<path d="M -51.0136 -12.7534 L 51.0136 -12.7534, 51.0136 12.7534, -51.0136 12.7534 Z" stroke="none" fill="#FFFFFF" transform="matrix(2.69635e-008 0.357143 -0.357143 2.69635e-008 179.919 77.7001)" />
	<path d="M -51.0136 -12.7534 L 51.0136 -12.7534, 51.0136 12.7534, -51.0136 12.7534 Z" fill="none" stroke="#000000" stroke-width="4.19999981" stroke-linecap="round" stroke-linejoin="round" transform="matrix(2.69635e-008 0.357143 -0.357143 2.69635e-008 179.919 77.7001)" />
	<g transform="matrix(1 0 -0 1 26.0828 38.8771)">
		<svg width="119.936646" height="119.999977">
			<defs />
			<polyline points="-5.628 0 5.628 0" fill="none" stroke="#000000" stroke-width="0.64319998" stroke-linecap="round" stroke-linejoin="round" transform="matrix(1 0 0 1 5.628 9.60638)" />
			<polyline points="0 -5.628 0 5.628" fill="none" stroke="#000000" stroke-width="0.64319998" stroke-linecap="round" stroke-linejoin="round" transform="matrix(1 0 0 1 5.628 9.60638)" />
			<rect />
		</svg>
	</g>
	<g transform="matrix(1 0 -0 1 26.0828 98.4588)">
		<svg width="119.936646" height="83.9999847">
			<defs />
			<polyline points="-5.628 0 5.628 0" fill="none" stroke="#000000" stroke-width="0.64319998" stroke-linecap="round" stroke-linejoin="round" transform="matrix(1 0 0 1 5.628 9.60638)" />
			<rect />
		</svg>
	</g>
	<g transform="matrix(1 0 -0 1 189.474 39.0616)">
		<svg width="119.936646" height="119.999977">
			<defs />
			<polyline points="-5.628 0 5.628 0" fill="none" stroke="#000000" stroke-width="0.64319998" stroke-linecap="round" stroke-linejoin="round" transform="matrix(1 0 0 1 5.628 9.60638)" />
			<polyline points="0 -5.628 0 5.628" fill="none" stroke="#000000" stroke-width="0.64319998" stroke-linecap="round" stroke-linejoin="round" transform="matrix(1 0 0 1 5.628 9.60638)" />
			<rect />
		</svg>
	</g>
	<g transform="matrix(1 0 -0 1 189.474 98.4588)">
		<svg width="119.936646" height="83.9999847">
			<defs />
			<polyline points="-5.628 0 5.628 0" fill="none" stroke="#000000" stroke-width="0.64319998" stroke-linecap="round" stroke-linejoin="round" transform="matrix(1 0 0 1 5.628 9.60638)" />
			<rect />
		</svg>
	</g>
	<path d="M 3.86496e-005 85.0224 L -24.1554 81.5421 C -59.3459 71.1337, -85.0226 38.5654, -85.0226 7.37158e-005, -85.0226 -46.9565, -46.9568 -85.0224, -0.000141151 -85.0224, 46.9565 -85.0225, 85.0225 -46.9567, 85.0226 -0.0001133, 85.0226 18.599, 78.9238 36.685, 67.6609 51.4862" fill="none" stroke="#E60000" stroke-width="3.73333335" stroke-linecap="round" stroke-linejoin="round" marker-start="url(#CustomMarker-01)" transform="matrix(-0.357143 5.39271e-008 5.39271e-008 0.357143 113.406 77.7001)" />
</svg>
