<?xml version="1.0"?>
<svg xmlns="http://www.w3.org/2000/svg" xmlns:xlink="http://www.w3.org/1999/xlink" width="279.285736" height="215.714294">
	<defs />
	<ellipse cx="1453.7367191314697" cy="545.17385292053223" rx="7.3500003814697266" ry="7.3500003814697266" stroke="none" fill="#000000" transform="matrix(0.357143 0 0 0.357143 -263.571 -88.9286)" />
	<path d="M -293.302 -231.042 L 293.302 -231.042, 293.302 231.042, -293.302 231.042 Z" fill="none" stroke="#000000" stroke-width="3.73333335" stroke-linecap="round" stroke-linejoin="round" transform="matrix(0.357143 0 -0 0.357143 150.87 123.812)" />
	<rect x="-41.6893005" y="-43.7154236" width="83.3786011" height="87.4308472" stroke="none" fill="#E1E1E1" transform="matrix(0.357143 0 -0 0.357143 46.1189 166.417)" />
	<path d="M -41.6893 -43.7154 L 41.6893 -43.7154, 41.6893 43.7154, -41.6893 43.7154 Z" fill="none" stroke="#000000" stroke-width="3.73333335" stroke-linecap="round" stroke-linejoin="round" transform="matrix(0.357143 0 -0 0.357143 46.1189 166.417)" />
	<g transform="matrix(1 0 -0 1 42.6704 155.21)">
		<svg width="23.9688396" height="45.0428467">
			<defs />
			<path d="M 6.82276 16.7669 C 5.68886 16.731, 4.58525 16.7131, 3.51251 16.7131, 2.44032 16.7131, 1.33672 16.731, 0.202257 16.7669 L 0.202257 15.9949, 0.840743 15.9949 C 1.04385 15.9955, 1.23517 15.9927, 1.41358 15.9865, 1.59256 15.9809, 1.762 15.9657, 1.92247 15.9416, 2.08293 15.918, 2.22151 15.8939, 2.33821 15.8692, 2.43696 15.8518, 2.51887 15.7969, 2.58339 15.7037, 2.64848 15.6111, 2.68046 15.5079, 2.68046 15.3935 L 2.68046 5.27643 C 2.37244 5.4268, 1.99316 5.54069, 1.54319 5.61812, 1.09322 5.6961, 0.600048 5.73482, 0.0636752 5.73426 L 0.0636752 4.97122 C 0.803713 4.97178, 1.48652 4.88369, 2.1121 4.70696, 2.73768 4.53078, 3.27855 4.19976, 3.73469 3.71444 L 4.02139 3.71444 C 4.22449 3.715, 4.32604 3.81375, 4.32604 4.01068 L 4.32604 15.3935 C 4.32604 15.5135, 4.3569 15.6184, 4.41862 15.7082, 4.48034 15.798, 4.57011 15.8518, 4.68681 15.8692, 4.78555 15.8939, 4.91235 15.918, 5.06608 15.9416, 5.22037 15.9657, 5.3943 15.9809, 5.58843 15.9865, 5.78256 15.9927, 5.97219 15.9955, 6.15678 15.9949 L 6.82276 15.9949, 6.82276 16.7669 Z" stroke="none" fill="#000000" />
			<rect />
		</svg>
	</g>
	<path d="M -293.303 0 L 293.301 0" fill="none" stroke="#000000" stroke-width="3.73333335" stroke-linecap="round" stroke-linejoin="round" transform="matrix(0.357143 0 0 0.357143 150.87 105.776)" />
	<rect x="-41.6889343" y="-43.713913" width="83.3778687" height="87.4278259" stroke="none" fill="#E1E1E1" transform="matrix(0.357143 0 -0 0.357143 99.5412 105.757)" />
	<path d="M -41.6889 -43.7139 L 41.6889 -43.7139, 41.6889 43.7139, -41.6889 43.7139 Z" fill="none" stroke="#000000" stroke-width="3.73333335" stroke-linecap="round" stroke-linejoin="round" transform="matrix(0.357143 0 -0 0.357143 99.5412 105.757)" />
	<g transform="matrix(1 0 -0 1 95.3993 94.5494)">
		<svg width="30.0150681" height="45.0428467">
			<defs />
			<path d="M 7.60755 16.7669 L 0.0814935 16.7669, 0.0814935 16.2732 C 0.0814935 16.2379, 0.100008 16.184, 0.137038 16.1116 L 3.16059 12.826 C 3.51798 12.4316, 3.87987 12.0277, 4.2468 11.6147, 4.61373 11.2018, 4.94251 10.7799, 5.23202 10.349, 5.52153 9.91808, 5.75268 9.47372, 5.92549 9.01589, 6.0983 8.55807, 6.18414 8.0778, 6.18414 7.57453, 6.18414 7.15037, 6.12859 6.7537, 6.0175 6.38565, 5.90641 6.01759, 5.74651 5.69442, 5.53668 5.41613, 5.3274 5.13785, 5.06539 4.91343, 4.75119 4.74286, 4.437 4.5723, 4.07287 4.48702, 3.65993 4.48646, 3.04389 4.48702, 2.49966 4.67105, 2.02781 5.0391, 1.55652 5.40716, 1.24345 5.8128, 1.08916 6.25492, 1.05886 6.26726, 1.10823 6.27343, 1.23728 6.27287 L 1.39437 6.27287 C 1.57952 6.31551, 1.73942 6.38004, 1.8752 6.46644, 2.01098 6.5534, 2.12487 6.67291, 2.21745 6.82552, 2.31002 6.97812, 2.35603 7.16215, 2.35603 7.37704, 2.35603 7.73668, 2.23933 8.01216, 2.00481 8.20348, 1.77028 8.39536, 1.50827 8.49074, 1.21876 8.49018, 0.941598 8.49074, 0.682388 8.39536, 0.442255 8.20348, 0.202121 8.01216, 0.0814935 7.73668, 0.0814935 7.37704, 0.0814935 6.87489, 0.18024 6.39911, 0.377733 5.95026, 0.575226 5.50142, 0.842851 5.1126, 1.18173 4.78326, 1.52061 4.45448, 1.92121 4.19415, 2.38352 4.00226, 2.84583 3.81094, 3.3362 3.715, 3.85406 3.71444, 4.49535 3.715, 5.08278 3.80926, 5.61578 3.99778, 6.14879 4.18629, 6.60325 4.45728, 6.97916 4.81019, 7.35507 5.16366, 7.64963 5.57211, 7.86227 6.03554, 8.07491 6.49954, 8.18095 7.01235, 8.18095 7.57453, 8.18095 8.19731, 8.03956 8.77071, 7.75567 9.29418, 7.47233 9.81821, 7.12111 10.2985, 6.702 10.735, 6.28288 11.172, 5.8374 11.5833, 5.36555 11.9693, 4.89426 12.3553, 4.4673 12.7307, 4.08521 13.0954 L 1.95824 15.0972, 4.74165 15.0972 C 5.12991 15.0978, 5.49235 15.095, 5.82787 15.0888, 6.16394 15.0832, 6.44896 15.0708, 6.68348 15.0529, 6.918 15.0349, 7.03807 15.0232, 7.04368 15.0164, 7.09305 14.9749, 7.13962 14.8913, 7.18282 14.7656, 7.22603 14.64, 7.26586 14.4918, 7.30289 14.3213, 7.33992 14.1507, 7.37695 13.9773, 7.41398 13.8006, 7.45101 13.6244, 7.48467 13.4309, 7.51553 13.221 L 8.19946 13.221 Z" stroke="none" fill="#000000" />
			<rect />
		</svg>
	</g>
	<rect x="-41.6881104" y="-43.713913" width="83.3762207" height="87.4278259" stroke="none" fill="#E1E1E1" transform="matrix(0.357143 0 -0 0.357143 202.804 105.757)" />
	<path d="M -41.6881 -43.7139 L 41.6881 -43.7139, 41.6881 43.7139, -41.6881 43.7139 Z" fill="none" stroke="#000000" stroke-width="3.73333335" stroke-linecap="round" stroke-linejoin="round" transform="matrix(0.357143 0 -0 0.357143 202.804 105.757)" />
	<g transform="matrix(1 0 -0 1 198.365 94.5494)">
		<svg width="30.0150681" height="47.9999886">
			<defs />
			<path d="M 8.77641 4.62111 C 8.77641 4.65758, 8.76127 4.70864, 8.72985 4.77372 L 5.95597 8.57097 C 5.59857 9.06807, 5.31973 9.61735, 5.11943 10.2188, 4.91913 10.8203, 4.77606 11.452, 4.68966 12.1129, 4.60325 12.7744, 4.54939 13.4494, 4.52751 14.1372, 4.50619 14.8257, 4.49497 15.5197, 4.49497 16.2193, 4.49497 16.5431, 4.38893 16.7883, 4.17629 16.9554, 3.96365 17.1232, 3.73081 17.2068, 3.47833 17.2068, 3.22585 17.2068, 2.99582 17.1232, 2.78935 16.9554, 2.58288 16.7883, 2.47964 16.5431, 2.47964 16.2193, 2.47964 14.7595, 2.73436 13.3551, 3.24268 12.0052, 3.751 10.6559, 4.43662 9.38844, 5.29953 8.20292 L 7.05621 5.82403, 3.728 5.82403 C 3.30889 5.82459, 2.91895 5.82795, 2.55819 5.83356, 2.19799 5.83974, 1.89109 5.8504, 1.63805 5.86498, 1.38558 5.88013, 1.25597 5.89023, 1.2498 5.89584, 1.18808 5.95026, 1.13422 6.04003, 1.08822 6.16571, 1.04221 6.29139, 0.999007 6.43839, 0.958611 6.60558, 0.918776 6.77334, 0.883429 6.94671, 0.852571 7.12624, 0.821712 7.30578, 0.790854 7.4971, 0.759996 7.70021 L 0.0755033 7.70021, 0.741481 3.51695, 1.41644 3.51695, 1.41644 3.69649 C 1.41644 3.76269, 1.45347 3.82553, 1.52696 3.885, 1.65657 3.96916, 1.79235 4.02302, 1.93373 4.04659, 2.10037 4.07128, 2.30403 4.09372, 2.54417 4.11448, 2.78486 4.1358, 3.04239 4.14926, 3.31674 4.15487, 3.5911 4.16105, 3.86658 4.16385, 4.14375 4.16329 L 8.77641 4.16329, 8.77641 4.62111 Z" stroke="none" fill="#000000" />
			<rect />
		</svg>
	</g>
	<ellipse cx="1160.4355716705322" cy="545.17385292053223" rx="7.3500003814697266" ry="7.3500003814697266" stroke="none" fill="#000000" transform="matrix(0.357143 0 0 0.357143 -263.571 -88.9286)" />
	<ellipse cx="1160.4355716705322" cy="826.71810340881348" rx="7.3500003814697266" ry="7.3500003814697266" stroke="none" fill="#000000" transform="matrix(0.357143 0 0 0.357143 -263.571 -88.9286)" />
	<path d="M 0 -141.849 L 0 141.852" fill="none" stroke="#000000" stroke-width="3.73333335" stroke-linecap="round" stroke-linejoin="round" transform="matrix(0.357143 0 0 0.357143 150.87 156.417)" />
	<rect x="-41.6890259" y="-43.7154236" width="83.3780518" height="87.4308472" stroke="none" fill="#E1E1E1" transform="matrix(0.357143 0 -0 0.357143 150.87 166.417)" />
	<path d="M -41.689 -43.7154 L 41.689 -43.7154, 41.689 43.7154, -41.689 43.7154 Z" fill="none" stroke="#000000" stroke-width="3.73333335" stroke-linecap="round" stroke-linejoin="round" transform="matrix(0.357143 0 -0 0.357143 150.87 166.417)" />
	<g transform="matrix(1 0 -0 1 146.737 155.21)">
		<svg width="30.0150681" height="47.9999886">
			<defs />
			<path d="M 8.18236 12.7991 C 8.18236 13.386, 8.07183 13.9459, 7.84965 14.4784, 7.62803 15.0114, 7.30767 15.49, 6.88799 15.9141, 6.46271 16.3276, 5.98357 16.6435, 5.45056 16.8612, 4.91755 17.08, 4.35144 17.1888, 3.75335 17.1888, 3.23606 17.1888, 2.75355 17.0918, 2.30638 16.8971, 1.85978 16.703, 1.47153 16.437, 1.14162 16.0987, 0.811719 15.761, 0.553071 15.3688, 0.365116 14.9227, 0.177161 14.4772, 0.082903 14.0026, 0.082903 13.4993, 0.082903 13.1526, 0.198481 12.8911, 0.429638 12.7144, 0.660794 12.5382, 0.899806 12.4496, 1.14611 12.449, 1.40532 12.4496, 1.64882 12.5365, 1.87661 12.7099, 2.10496 12.8838, 2.21886 13.147, 2.21886 13.4993, 2.21886 13.7153, 2.17117 13.8966, 2.07579 14.043, 1.98041 14.19, 1.86314 14.3033, 1.724 14.3841, 1.58542 14.4649, 1.43001 14.5115, 1.2572 14.5227 L 1.14611 14.5227, 0.960961 14.5227 C 1.10291 15.026, 1.43281 15.4782, 1.95067 15.8788, 2.46853 16.2799, 3.06942 16.4802, 3.75335 16.4797, 4.11131 16.4802, 4.45973 16.3877, 4.79861 16.2019, 5.13749 16.0168, 5.41521 15.7711, 5.63066 15.4653, 5.88314 15.1006, 6.04528 14.6865, 6.11598 14.2225, 6.18667 13.7591, 6.22202 13.2844, 6.22202 12.7991, 6.22202 12.3088, 6.20687 11.838, 6.17601 11.3858, 6.14571 10.9342, 6.01891 10.5078, 5.79673 10.106, 5.63683 9.81316, 5.43204 9.56966, 5.18237 9.37497, 4.9327 9.18085, 4.65385 9.08322, 4.34527 9.08266, 3.75953 9.08322, 3.25121 9.2016, 2.81975 9.43781, 2.3883 9.67458, 2.03988 10.014, 1.77506 10.4561, 1.71951 10.5582, 1.63031 10.6093, 1.50687 10.6087 L 1.43281 10.6087 C 1.21737 10.6093, 1.10908 10.5106, 1.10908 10.3125 L 1.10908 4.01068 C 1.10908 3.85583, 1.19885 3.75708, 1.37727 3.71444, 1.40813 3.715, 1.43113 3.71837, 1.44684 3.72398, 1.46255 3.73015, 1.47601 3.73296, 1.48836 3.7324, 2.38212 4.13972, 3.30338 4.34339, 4.2527 4.34283, 5.21435 4.34339, 6.13617 4.13972, 7.0176 3.7324, 7.02994 3.73296, 7.04229 3.73015, 7.05463 3.72398, 7.06697 3.71837, 7.08549 3.715, 7.11017 3.71444, 7.31328 3.715, 7.41202 3.80758, 7.40585 3.99273, 7.40585 4.10101, 7.38734 4.17283, 7.35031 4.20817, 6.91268 4.80739, 6.35667 5.27587, 5.68172 5.61363, 5.00676 5.95195, 4.29029 6.12083, 3.53174 6.12027, 2.90335 6.12083, 2.3608 6.04901, 1.9041 5.90482 L 1.9041 9.33401 C 2.12011 9.10735, 2.44552 8.90536, 2.87978 8.72863, 3.31461 8.55246, 3.80329 8.46381, 4.34527 8.46325, 4.87547 8.46381, 5.3765 8.58388, 5.84779 8.82289, 6.31964 9.06246, 6.73426 9.37329, 7.09166 9.75593, 7.4614 10.1874, 7.73575 10.6648, 7.91417 11.1883, 8.09315 11.7123, 8.18236 12.2493, 8.18236 12.7991 Z" stroke="none" fill="#000000" />
			<rect />
		</svg>
	</g>
	<rect x="-41.6889648" y="-43.7154236" width="83.3779297" height="87.4308472" stroke="none" fill="#E1E1E1" transform="matrix(0.357143 0 -0 0.357143 255.62 166.417)" />
	<path d="M -41.689 -43.7154 L 41.689 -43.7154, 41.689 43.7154, -41.689 43.7154 Z" fill="none" stroke="#000000" stroke-width="3.73333335" stroke-linecap="round" stroke-linejoin="round" transform="matrix(0.357143 0 -0 0.357143 255.62 166.417)" />
	<g transform="matrix(1 0 -0 1 251.323 155.21)">
		<svg width="30.0150681" height="47.9999886">
			<defs />
			<path d="M 8.50734 12.7632 C 8.50734 13.386, 8.41532 13.9442, 8.23017 14.438, 8.04559 14.9317, 7.73139 15.4181, 7.28703 15.8962, 6.84941 16.3456, 6.40112 16.6732, 5.94161 16.8791, 5.48267 17.0856, 4.92946 17.1888, 4.282 17.1888, 3.62275 17.1888, 3.01849 17.0261, 2.46978 16.6996, 1.92106 16.3742, 1.48343 15.9326, 1.1569 15.3755, 0.694584 14.6158, 0.400589 13.8141, 0.27379 12.9702, 0.147551 12.1264, 0.0841516 11.2854, 0.0841516 10.4472, 0.0841516 9.61005, 0.205901 8.78586, 0.449401 7.97457, 0.692901 7.16384, 1.08284 6.41426, 1.61921 5.72528, 2.06918 5.13953, 2.6179 4.65758, 3.26536 4.28055, 3.91282 3.90352, 4.62425 3.715, 5.40075 3.71444, 6.14696 3.715, 6.76637 3.90689, 7.25954 4.28953, 7.75271 4.67273, 7.99902 5.22313, 7.99902 5.94073, 7.99902 6.27624, 7.89747 6.52479, 7.6938 6.68637, 7.4907 6.84796, 7.25618 6.92875, 6.99136 6.92819, 6.73888 6.92875, 6.51221 6.84796, 6.31191 6.68637, 6.11161 6.52479, 6.01118 6.27624, 6.01118 5.94073, 6.01118 5.58221, 6.14359 5.3129, 6.40841 5.1328, 6.58122 5.02564, 6.77591 4.97178, 6.99136 4.97122, 7.05924 4.97178, 7.06822 4.96897, 7.01885 4.96224, 6.93244 4.83095, 6.74337 4.70135, 6.45049 4.5723, 6.15762 4.44382, 5.80808 4.3793, 5.40075 4.37874, 4.85204 4.3793, 4.35886 4.54257, 3.92124 4.86854, 3.48361 5.19508, 3.11387 5.60297, 2.81202 6.09333, 2.45463 6.71611, 2.23862 7.39443, 2.16456 8.12718, 2.0905 8.86048, 2.0473 9.4451, 2.03496 9.88161, 2.14605 9.62464, 2.41311 9.30933, 2.83503 8.9351, 3.2575 8.56143, 3.79219 8.37404, 4.4391 8.37348, 5.0557 8.37404, 5.58758 8.47728, 6.03419 8.68375, 6.48135 8.89022, 6.91112 9.2117, 7.32406 9.64821, 7.75608 10.1274, 8.0613 10.6093, 8.23971 11.0941, 8.41813 11.5788, 8.50734 12.1354, 8.50734 12.7632 Z M 6.53802 12.7632 C 6.53802 12.1892, 6.5195 11.6731, 6.48247 11.2152, 6.44544 10.7574, 6.32257 10.3551, 6.11274 10.0073, 5.89729 9.65494, 5.65659 9.39461, 5.39177 9.22685, 5.12695 9.05966, 4.80322 8.9755, 4.42058 8.97494, 4.00764 8.9755, 3.65473 9.08041, 3.36186 9.28969, 3.06899 9.49953, 2.821 9.77445, 2.6179 10.1156, 2.41479 10.4567, 2.26948 10.8545, 2.18308 11.3089, 2.12136 11.6209, 2.0905 11.953, 2.0905 12.3054, 2.0905 12.4434, 2.09667 12.5904, 2.10902 12.7453 L 2.10902 12.8171 C 2.1337 13.2665, 2.16793 13.6856, 2.21113 14.0744, 2.25433 14.4638, 2.32222 14.7808, 2.41423 15.0254, 2.58704 15.4569, 2.8412 15.807, 3.17727 16.0763, 3.51335 16.3456, 3.8814 16.4802, 4.282 16.4797, 4.69494 16.4802, 5.04336 16.4011, 5.32669 16.2423, 5.61059 16.0841, 5.86026 15.8277, 6.07571 15.4742, 6.29789 15.1219, 6.4303 14.7224, 6.4735 14.2764, 6.5167 13.8309, 6.53802 13.3265, 6.53802 12.7632 Z" stroke="none" fill="#000000" />
			<rect />
		</svg>
	</g>
	<rect x="-41.6891174" y="-43.7138214" width="83.3782349" height="87.4276428" stroke="none" fill="#E1E1E1" transform="matrix(0.357143 0 -0 0.357143 99.5412 41.2978)" />
	<path d="M -41.6891 -43.7138 L 41.6891 -43.7138, 41.6891 43.7138, -41.6891 43.7138 Z" fill="none" stroke="#000000" stroke-width="3.73333335" stroke-linecap="round" stroke-linejoin="round" transform="matrix(0.357143 0 -0 0.357143 99.5412 41.2978)" />
	<g transform="matrix(1 0 -0 1 95.2436 30.0903)">
		<svg width="30.0150681" height="47.9999886">
			<defs />
			<path d="M 8.50734 13.3826 C 8.50734 13.8977, 8.39344 14.392, 8.16565 14.8644, 7.93786 15.3374, 7.63265 15.7413, 7.25 16.0757, 6.81855 16.4533, 6.34221 16.7327, 5.82155 16.9151, 5.30088 17.098, 4.75666 17.1888, 4.18942 17.1888, 3.67774 17.1888, 3.17896 17.117, 2.69196 16.9734, 2.20496 16.8298, 1.76621 16.6239, 1.37459 16.3546, 0.982969 16.0852, 0.670459 15.7548, 0.435936 15.3626, 0.201413 14.971, 0.0841516 14.5204, 0.0841516 14.011, 0.0841516 13.6284, 0.212073 13.3428, 0.467916 13.1543, 0.723759 12.9658, 0.993629 12.8715, 1.27696 12.8709, 1.5732 12.8715, 1.84868 12.9658, 2.10453 13.1543, 2.36037 13.3428, 2.48829 13.6284, 2.48829 14.011, 2.48829 14.2388, 2.44397 14.429, 2.3542 14.5816, 2.26499 14.7342, 2.15109 14.8616, 2.01195 14.9631, 1.87337 15.0652, 1.71459 15.1275, 1.53561 15.1511, 1.4436 15.1758, 1.3572 15.1875, 1.27696 15.187, 1.19729 15.1875, 1.18495 15.1937, 1.23993 15.2049, 1.43126 15.5405, 1.80717 15.8373, 2.36822 16.0942, 2.92928 16.3517, 3.53635 16.4802, 4.18942 16.4797, 4.49801 16.4802, 4.78583 16.4039, 5.05402 16.2513, 5.3222 16.0987, 5.54607 15.8939, 5.72448 15.6358, 5.94666 15.3014, 6.09759 14.9424, 6.17782 14.5592, 6.25805 14.1765, 6.29789 13.7843, 6.29789 13.3826, 6.29789 12.9702, 6.25805 12.5741, 6.17782 12.1937, 6.09759 11.8139, 5.94666 11.4621, 5.72448 11.1384, 5.53933 10.8758, 5.31435 10.6632, 5.04953 10.5016, 4.78471 10.34, 4.49801 10.2592, 4.18942 10.2586 L 2.84905 10.2586 C 2.67064 10.2592, 2.57469 10.1756, 2.56235 10.0073 L 2.56235 9.90854 C 2.56235 9.83728, 2.58423 9.78062, 2.62687 9.73798, 2.68242 9.68468, 2.75311 9.65775, 2.83951 9.65718, 3.01849 9.63362, 3.20364 9.62184, 3.3944 9.62128, 3.57955 9.62184, 3.76134 9.61005, 3.93975 9.58537, 4.27302 9.5618, 4.56253 9.45913, 4.80939 9.27623, 5.05626 9.09388, 5.26273 8.86048, 5.4288 8.57602, 5.59488 8.29213, 5.72112 7.96447, 5.80752 7.59305, 5.89392 7.22219, 5.93712 6.84179, 5.93712 6.45241, 5.93712 6.16571, 5.90627 5.8936, 5.84455 5.63607, 5.78283 5.37911, 5.66894 5.15412, 5.5023 4.96224, 5.15725 4.56781, 4.71963 4.37313, 4.18942 4.37874, 3.62275 4.3793, 3.10321 4.4859, 2.63192 4.69798, 2.16063 4.91062, 1.8442 5.13953, 1.68373 5.38415, 1.64109 5.39089, 1.66241 5.39369, 1.74882 5.39313, 1.97099 5.39369, 2.18027 5.45934, 2.3772 5.59062, 2.67344 5.76455, 2.821 6.05799, 2.821 6.47037, 2.821 6.81822, 2.70879 7.08024, 2.4838 7.25641, 2.25882 7.43314, 2.00746 7.52123, 1.7303 7.52067, 1.45875 7.52123, 1.20459 7.43483, 0.967259 7.2609, 0.729931 7.08753, 0.610986 6.82383, 0.610986 6.47037, 0.610986 6.03386, 0.715905 5.64841, 0.925741 5.3129, 1.13558 4.97795, 1.40489 4.69069, 1.73479 4.45111, 2.06469 4.2121, 2.44509 4.0292, 2.87654 3.90352, 3.30856 3.77784, 3.74619 3.715, 4.18942 3.71444, 4.66408 3.715, 5.12359 3.77784, 5.56739 3.90352, 6.01118 4.0292, 6.4303 4.22388, 6.82472 4.48646, 7.14565 4.71425, 7.41496 4.99422, 7.63377 5.32637, 7.85258 5.65851, 7.96199 6.03386, 7.96199 6.45241, 7.96199 6.87208, 7.88681 7.26707, 7.73588 7.63793, 7.58496 8.00935, 7.38466 8.34431, 7.13499 8.64335, 6.88532 8.94296, 6.58795 9.20609, 6.24234 9.43332, 5.89729 9.66111, 5.63808 9.80418, 5.46527 9.86365, 5.61339 9.88217, 5.86643 9.97082, 6.22383 10.129, 6.58178 10.2878, 6.92347 10.4988, 7.25 10.7613, 7.63265 11.0913, 7.93786 11.4846, 8.16565 11.9424, 8.39344 12.4002, 8.50734 12.8805, 8.50734 13.3826 Z" stroke="none" fill="#000000" />
			<rect />
		</svg>
	</g>
	<rect x="-41.6881714" y="-43.7138214" width="83.3763428" height="87.4276428" stroke="none" fill="#E1E1E1" transform="matrix(0.357143 0 -0 0.357143 202.804 41.2978)" />
	<path d="M -41.6882 -43.7138 L 41.6882 -43.7138, 41.6882 43.7138, -41.6882 43.7138 Z" fill="none" stroke="#000000" stroke-width="3.73333335" stroke-linecap="round" stroke-linejoin="round" transform="matrix(0.357143 0 -0 0.357143 202.804 41.2978)" />
	<g transform="matrix(1 0 -0 1 198.223 30.0903)">
		<svg width="32.9738617" height="45.0428467">
			<defs />
			<path d="M 7.08336 13.5711 L 7.08336 15.3935 C 7.08336 15.5017, 7.10356 15.6022, 7.14339 15.6947, 7.18379 15.7879, 7.24999 15.849, 7.34201 15.8782, 7.48452 15.9444, 7.71567 15.9809, 8.03604 15.9865, 8.3564 15.9927, 8.68013 15.9955, 9.00667 15.9949 L 9.00667 16.7669 C 8.06353 16.731, 7.1389 16.7131, 6.23279 16.7131, 5.33902 16.7131, 4.39869 16.731, 3.41234 16.7669 L 3.41234 15.9949 C 3.75179 15.9955, 4.07888 15.9927, 4.39308 15.9865, 4.70727 15.9809, 4.94179 15.9444, 5.09552 15.8782, 5.1881 15.849, 5.25599 15.7879, 5.29919 15.6947, 5.34239 15.6022, 5.36371 15.5017, 5.36371 15.3935 L 5.36371 13.5711, 0.0931168 13.5711, 0.0931168 12.844, 6.26982 3.66058 C 6.35005 3.55342, 6.4516 3.49956, 6.57504 3.49899 L 6.77814 3.49899 C 6.98181 3.49956, 7.08336 3.60111, 7.08336 3.80421 L 7.08336 12.7812, 9.07119 12.7812, 9.07119 13.5711 Z M 5.45628 6.02152 L 0.906653 12.7812, 5.45628 12.7812 Z" stroke="none" fill="#000000" />
			<rect />
		</svg>
	</g>
	<ellipse cx="867.13302040100098" cy="545.17385292053223" rx="7.3500003814697266" ry="7.3500003814697266" stroke="none" fill="#000000" transform="matrix(0.357143 0 0 0.357143 -263.571 -88.9286)" />
	<g transform="matrix(1 0 -0 1 12.4813 134.949)">
		<svg width="119.936646" height="119.999977">
			<defs />
			<polyline points="-5.628 0 5.628 0" fill="none" stroke="#000000" stroke-width="0.64319998" stroke-linecap="round" stroke-linejoin="round" transform="matrix(1 0 0 1 5.628 9.60638)" />
			<polyline points="0 -5.628 0 5.628" fill="none" stroke="#000000" stroke-width="0.64319998" stroke-linecap="round" stroke-linejoin="round" transform="matrix(1 0 0 1 5.628 9.60638)" />
			<rect />
		</svg>
	</g>
	<g transform="matrix(1 0 -0 1 12.4813 178.674)">
		<svg width="119.936646" height="83.9999847">
			<defs />
			<polyline points="-5.628 0 5.628 0" fill="none" stroke="#000000" stroke-width="0.64319998" stroke-linecap="round" stroke-linejoin="round" transform="matrix(1 0 0 1 5.628 9.60638)" />
			<rect />
		</svg>
	</g>
	<g transform="matrix(1 0 -0 1 9.27647 153.485)">
		<svg width="48.0251122" height="38.9999924">
			<defs />
			<path d="M 9.41063 14.0854 C 9.34193 14.3671, 9.26006 14.6785, 9.1656 15.0203, 9.0717 15.3627, 8.94575 15.6798, 8.78831 15.973, 8.63144 16.2661, 8.43336 16.5197, 8.19405 16.7332, 7.95474 16.9468, 7.65589 17.0533, 7.2975 17.0533, 6.85724 17.0533, 6.50171 16.9405, 6.23148 16.7149, 5.96126 16.4894, 5.79409 16.2569, 5.73111 16.0182, 5.51756 16.2815, 5.23131 16.5197, 4.87292 16.7332, 4.51453 16.9468, 4.09889 17.0533, 3.62714 17.0533, 3.20005 17.0533, 2.81761 16.9743, 2.48097 16.8151, 2.14434 16.6571, 1.87869 16.4126, 1.68347 16.0823, 1.49511 15.7285, 1.40408 15.338, 1.40981 14.9098 L 1.40981 14.8365 C 1.4224 14.3911, 1.47908 13.9486, 1.57984 13.5083, 1.6806 13.0875, 1.82717 12.6238, 2.01896 12.1165, 2.21075 11.6099, 2.39452 11.1181, 2.57029 10.6412, 2.75921 10.1351, 2.85368 9.71943, 2.85368 9.39539, 2.85368 9.12116, 2.73746 8.98375, 2.50445 8.98318, 2.2909 8.98375, 2.09739 9.04501, 1.92449 9.16696, 1.7516 9.28947, 1.59416 9.45894, 1.45275 9.67535, 1.31134 9.89233, 1.18367 10.1488, 1.07031 10.4448, 0.956953 10.7414, 0.863061 11.0568, 0.78749 11.3923, 0.718216 11.5578, 0.601997 11.6431, 0.438259 11.6488 L 0.221278 11.6488 C 0.0701351 11.6494, -0.00543621 11.5732, -0.00543621 11.4198 L -0.00543621 11.3557 C 0.0827303 11.0202, 0.199522 10.6772, 0.343795 10.3257, 0.48864 9.97477, 0.67127 9.65588, 0.891114 9.36848, 1.11153 9.08165, 1.36343 8.84349, 1.64625 8.65399, 1.92907 8.46506, 2.25311 8.37002, 2.6178 8.36945, 2.93268 8.37002, 3.20119 8.43758, 3.42447 8.57155, 3.64775 8.70609, 3.81778 8.88471, 3.934 9.10742, 4.0508 9.33069, 4.11492 9.58203, 4.12751 9.86256 L 4.12751 9.92668 C 4.12751 10.19, 4.07427 10.4614, 3.96664 10.7419, 3.78458 11.2188, 3.60424 11.706, 3.42447 12.2035, 3.24527 12.7016, 3.10558 13.1488, 3.00482 13.5455, 2.90406 13.9428, 2.83478 14.3361, 2.797 14.7266, 2.77181 14.8308, 2.75635 14.9442, 2.75005 15.0655, 2.75005 15.3043, 2.79127 15.5396, 2.87257 15.7709, 2.92925 15.9792, 3.03287 16.1441, 3.18402 16.2661, 3.33516 16.3886, 3.51435 16.4493, 3.7216 16.4487, 4.13724 16.4493, 4.49907 16.3245, 4.80708 16.0737, 5.11509 15.8235, 5.38532 15.4903, 5.61775 15.0747, 5.63035 15.0266, 5.64008 14.9699, 5.64638 14.9058, 5.65268 14.8417, 5.66184 14.7758, 5.67443 14.7083 L 7.08968 9.24883 C 7.14693 9.02326, 7.26143 8.85723, 7.43433 8.75017, 7.60723 8.64368, 7.78184 8.58987, 7.9576 8.58929, 8.14023 8.58987, 8.29137 8.64483, 8.41103 8.75418, 8.4929 8.83433, 8.53355 8.94081, 8.53355 9.07478, 8.53355 9.14234, 8.52725 9.21276, 8.51465 9.28547 L 7.09941 14.7449 C 6.99865 15.1239, 6.94827 15.46, 6.94827 15.7525, 6.94827 15.8327, 6.95456 15.918, 6.96716 16.009, 6.99865 16.3027, 7.14636 16.4493, 7.41085 16.4487, 7.67535 16.4493, 7.90321 16.2237, 8.095 15.7714, 8.28679 15.3197, 8.474 14.7392, 8.65606 14.0304, 8.69385 13.8724, 8.80091 13.7928, 8.97667 13.7923 L 9.19365 13.7923 C 9.2635 13.7928, 9.33277 13.814, 9.40147 13.8564, 9.42666 13.9119, 9.43926 13.9577, 9.43926 13.9938, 9.43926 14.019, 9.4301 14.0493, 9.41063 14.0854 Z" stroke="none" fill="#000000" />
			<path d="M 2.37267 3.19713 C 1.72472 3.17661, 1.09441 3.16635, 0.481416 3.16635, -0.131261 3.16635, -0.761571 3.17661, -1.40951 3.19713 L -1.40951 2.75598, -1.04499 2.75598 C -0.928927 2.7563, -0.819601 2.75469, -0.717648 2.75117, -0.615375 2.74796, -0.518552 2.7393, -0.426859 2.72552, -0.335166 2.71205, -0.255976 2.69827, -0.18929 2.68416, -0.132864 2.67422, -0.086376 2.6428, -0.0495062 2.58958, -0.012316 2.53668, 0.00595856 2.47769, 0.00595856 2.41229 L 0.00595856 -3.36887 C -0.169733 -3.28295, -0.386463 -3.21787, -0.643588 -3.17362, -0.900714 -3.12906, -1.18221 -3.10694, -1.4887 -3.10726 L -1.4887 -3.54328 C -1.06615 -3.54296, -0.675969 -3.59329, -0.318494 -3.69429, 0.0389807 -3.79496, 0.348044 -3.98411, 0.608376 -4.26144 L 0.772206 -4.26144 C 0.888265 -4.26112, 0.946294 -4.20469, 0.946294 -4.09216 L 0.946294 2.41229 C 0.946294 2.4809, 0.963928 2.54085, 0.999194 2.59215, 1.03446 2.64344, 1.08576 2.67422, 1.15244 2.68416, 1.20887 2.69827, 1.28133 2.71205, 1.36917 2.72552, 1.45702 2.7393, 1.55641 2.74796, 1.66734 2.75117, 1.77827 2.75469, 1.88663 2.7563, 1.99243 2.75598 L 2.37267 2.75598, 2.37267 3.19713 Z" stroke="none" fill="#000000" transform="matrix(1.12 0 0 1 11.9077 16.3063)" />
			<rect />
		</svg>
	</g>
	<g transform="matrix(1 0 -0 1 119.148 134.949)">
		<svg width="119.936646" height="119.999977">
			<defs />
			<polyline points="-5.628 0 5.628 0" fill="none" stroke="#000000" stroke-width="0.64319998" stroke-linecap="round" stroke-linejoin="round" transform="matrix(1 0 0 1 5.628 9.60638)" />
			<polyline points="0 -5.628 0 5.628" fill="none" stroke="#000000" stroke-width="0.64319998" stroke-linecap="round" stroke-linejoin="round" transform="matrix(1 0 0 1 5.628 9.60638)" />
			<rect />
		</svg>
	</g>
	<g transform="matrix(1 0 -0 1 119.148 178.674)">
		<svg width="119.936646" height="83.9999847">
			<defs />
			<polyline points="-5.628 0 5.628 0" fill="none" stroke="#000000" stroke-width="0.64319998" stroke-linecap="round" stroke-linejoin="round" transform="matrix(1 0 0 1 5.628 9.60638)" />
			<rect />
		</svg>
	</g>
	<g transform="matrix(1 0 -0 1 115.514 153.485)">
		<svg width="50.9839096" height="38.9999924">
			<defs />
			<path d="M 9.41063 14.0854 C 9.34193 14.3671, 9.26006 14.6785, 9.1656 15.0203, 9.0717 15.3627, 8.94575 15.6798, 8.78831 15.973, 8.63144 16.2661, 8.43336 16.5197, 8.19405 16.7332, 7.95474 16.9468, 7.65589 17.0533, 7.2975 17.0533, 6.85724 17.0533, 6.50171 16.9405, 6.23148 16.7149, 5.96126 16.4894, 5.79409 16.2569, 5.73111 16.0182, 5.51756 16.2815, 5.23131 16.5197, 4.87292 16.7332, 4.51453 16.9468, 4.09889 17.0533, 3.62714 17.0533, 3.20005 17.0533, 2.81761 16.9743, 2.48097 16.8151, 2.14434 16.6571, 1.87869 16.4126, 1.68347 16.0823, 1.49511 15.7285, 1.40408 15.338, 1.40981 14.9098 L 1.40981 14.8365 C 1.4224 14.3911, 1.47908 13.9486, 1.57984 13.5083, 1.6806 13.0875, 1.82717 12.6238, 2.01896 12.1165, 2.21075 11.6099, 2.39452 11.1181, 2.57029 10.6412, 2.75921 10.1351, 2.85368 9.71943, 2.85368 9.39539, 2.85368 9.12116, 2.73746 8.98375, 2.50445 8.98318, 2.2909 8.98375, 2.09739 9.04501, 1.92449 9.16696, 1.7516 9.28947, 1.59416 9.45894, 1.45275 9.67535, 1.31134 9.89233, 1.18367 10.1488, 1.07031 10.4448, 0.956953 10.7414, 0.863061 11.0568, 0.78749 11.3923, 0.718216 11.5578, 0.601997 11.6431, 0.438259 11.6488 L 0.221278 11.6488 C 0.0701351 11.6494, -0.00543621 11.5732, -0.00543621 11.4198 L -0.00543621 11.3557 C 0.0827303 11.0202, 0.199522 10.6772, 0.343795 10.3257, 0.48864 9.97477, 0.67127 9.65588, 0.891114 9.36848, 1.11153 9.08165, 1.36343 8.84349, 1.64625 8.65399, 1.92907 8.46506, 2.25311 8.37002, 2.6178 8.36945, 2.93268 8.37002, 3.20119 8.43758, 3.42447 8.57155, 3.64775 8.70609, 3.81778 8.88471, 3.934 9.10742, 4.0508 9.33069, 4.11492 9.58203, 4.12751 9.86256 L 4.12751 9.92668 C 4.12751 10.19, 4.07427 10.4614, 3.96664 10.7419, 3.78458 11.2188, 3.60424 11.706, 3.42447 12.2035, 3.24527 12.7016, 3.10558 13.1488, 3.00482 13.5455, 2.90406 13.9428, 2.83478 14.3361, 2.797 14.7266, 2.77181 14.8308, 2.75635 14.9442, 2.75005 15.0655, 2.75005 15.3043, 2.79127 15.5396, 2.87257 15.7709, 2.92925 15.9792, 3.03287 16.1441, 3.18402 16.2661, 3.33516 16.3886, 3.51435 16.4493, 3.7216 16.4487, 4.13724 16.4493, 4.49907 16.3245, 4.80708 16.0737, 5.11509 15.8235, 5.38532 15.4903, 5.61775 15.0747, 5.63035 15.0266, 5.64008 14.9699, 5.64638 14.9058, 5.65268 14.8417, 5.66184 14.7758, 5.67443 14.7083 L 7.08968 9.24883 C 7.14693 9.02326, 7.26143 8.85723, 7.43433 8.75017, 7.60723 8.64368, 7.78184 8.58987, 7.9576 8.58929, 8.14023 8.58987, 8.29137 8.64483, 8.41103 8.75418, 8.4929 8.83433, 8.53355 8.94081, 8.53355 9.07478, 8.53355 9.14234, 8.52725 9.21276, 8.51465 9.28547 L 7.09941 14.7449 C 6.99865 15.1239, 6.94827 15.46, 6.94827 15.7525, 6.94827 15.8327, 6.95456 15.918, 6.96716 16.009, 6.99865 16.3027, 7.14636 16.4493, 7.41085 16.4487, 7.67535 16.4493, 7.90321 16.2237, 8.095 15.7714, 8.28679 15.3197, 8.474 14.7392, 8.65606 14.0304, 8.69385 13.8724, 8.80091 13.7928, 8.97667 13.7923 L 9.19365 13.7923 C 9.2635 13.7928, 9.33277 13.814, 9.40147 13.8564, 9.42666 13.9119, 9.43926 13.9577, 9.43926 13.9938, 9.43926 14.019, 9.4301 14.0493, 9.41063 14.0854 Z" stroke="none" fill="#000000" />
			<path d="M 2.71629 0.929807 C 2.71629 1.26516, 2.65313 1.58512, 2.52617 1.88938, 2.39954 2.19395, 2.21647 2.46743, 1.97666 2.70981, 1.73364 2.94609, 1.45984 3.1266, 1.15527 3.25099, 0.850691 3.37603, 0.527841 3.43822, 0.186076 3.43822, -0.109523 3.43822, -0.385243 3.38276, -0.640445 3.27151, -0.895647 3.16058, -1.11751 3.00861, -1.30602 2.81529, -1.49454 2.62228, -1.64234 2.39818, -1.75006 2.1433, -1.85746 1.88874, -1.91133 1.61751, -1.91133 1.32992, -1.91133 1.13179, -1.84528 0.982387, -1.71319 0.881396, -1.5811 0.780726, -1.44452 0.73007, -1.30378 0.729749, -1.15566 0.73007, -1.01652 0.779764, -0.88635 0.878831, -0.755863 0.978219, -0.69078 1.12858, -0.69078 1.32992, -0.69078 1.45336, -0.718032 1.55691, -0.772535 1.64059, -0.827038 1.72459, -0.894044 1.78935, -0.973554 1.83552, -1.05274 1.88168, -1.14155 1.9083, -1.2403 1.91471 L -1.30378 1.91471, -1.40926 1.91471 C -1.32814 2.20229, -1.13963 2.4607, -0.84403 2.68961, -0.548111 2.91884, -0.204742 3.0333, 0.186076 3.03298, 0.390301 3.0333, 0.589397 2.9804, 0.783043 2.87428, 0.976689 2.76848, 1.13507 2.62805, 1.25818 2.45332, 1.40277 2.24493, 1.49543 2.00832, 1.53582 1.74318, 1.57622 1.47836, 1.59642 1.20713, 1.59642 0.929807, 1.59642 0.649598, 1.58776 0.38061, 1.57013 0.122202, 1.5525 -0.135885, 1.48036 -0.379545, 1.3534 -0.609099, 1.26203 -0.776455, 1.14501 -0.915598, 1.00234 -1.02685, 0.859668 -1.13778, 0.700327 -1.19356, 0.523994 -1.19388, 0.189602 -1.19356, -0.100866 -1.12592, -0.347412 -0.99094, -0.593957 -0.855645, -0.793053 -0.661678, -0.944379 -0.409041, -0.976119 -0.350691, -1.0271 -0.321516, -1.09763 -0.321836 L -1.13995 -0.321836 C -1.26306 -0.321516, -1.32494 -0.377943, -1.32494 -0.491116 L -1.32494 -4.09216 C -1.32494 -4.18064, -1.27364 -4.23707, -1.17169 -4.26144, -1.15373 -4.26112, -1.14059 -4.25919, -1.13193 -4.25599, -1.12296 -4.25246, -1.11526 -4.25086, -1.10821 -4.25118, -0.597484 -4.01842, -0.0710499 -3.90204, 0.471094 -3.90236, 1.02061 -3.90204, 1.54737 -4.01842, 2.05072 -4.25118, 2.05777 -4.25086, 2.06482 -4.25246, 2.07188 -4.25599, 2.07893 -4.25919, 2.08951 -4.26112, 2.10362 -4.26144, 2.21968 -4.26112, 2.2761 -4.20822, 2.27258 -4.10242, 2.27258 -4.04054, 2.262 -3.9995, 2.24084 -3.9793, 1.99076 -3.6369, 1.67304 -3.36919, 1.28736 -3.17619, 0.901988 -2.98286, 0.492574 -2.88636, 0.0591159 -2.88668, -0.299962 -2.88636, -0.609667 -2.9274, -0.87064 -3.00979 L -0.87064 -1.05025 C -0.747207 -1.17978, -0.561256 -1.29519, -0.313107 -1.39619, -0.0649586 -1.49686, 0.214289 -1.54751, 0.523994 -1.54783, 0.826966 -1.54751, 1.11327 -1.4789, 1.38258 -1.34232, 1.65188 -1.20543, 1.88881 -1.02781, 2.09304 -0.809157, 2.30432 -0.562611, 2.46109 -0.289776, 2.56304 0.00934887, 2.66532 0.308794, 2.71629 0.615614, 2.71629 0.929807 Z" stroke="none" fill="#000000" transform="matrix(1.12 0 0 1 12.3306 16.3063)" />
			<rect />
		</svg>
	</g>
	<g transform="matrix(1 0 -0 1 224.148 134.949)">
		<svg width="119.936646" height="119.999977">
			<defs />
			<polyline points="-5.628 0 5.628 0" fill="none" stroke="#000000" stroke-width="0.64319998" stroke-linecap="round" stroke-linejoin="round" transform="matrix(1 0 0 1 5.628 9.60638)" />
			<polyline points="0 -5.628 0 5.628" fill="none" stroke="#000000" stroke-width="0.64319998" stroke-linecap="round" stroke-linejoin="round" transform="matrix(1 0 0 1 5.628 9.60638)" />
			<rect />
		</svg>
	</g>
	<g transform="matrix(1 0 -0 1 224.148 178.674)">
		<svg width="119.936646" height="83.9999847">
			<defs />
			<polyline points="-5.628 0 5.628 0" fill="none" stroke="#000000" stroke-width="0.64319998" stroke-linecap="round" stroke-linejoin="round" transform="matrix(1 0 0 1 5.628 9.60638)" />
			<rect />
		</svg>
	</g>
	<g transform="matrix(1 0 -0 1 220.411 153.485)">
		<svg width="50.9839096" height="38.9999924">
			<defs />
			<path d="M 9.41063 14.0854 C 9.34193 14.3671, 9.26006 14.6785, 9.1656 15.0203, 9.0717 15.3627, 8.94575 15.6798, 8.78831 15.973, 8.63144 16.2661, 8.43336 16.5197, 8.19405 16.7332, 7.95474 16.9468, 7.65589 17.0533, 7.2975 17.0533, 6.85724 17.0533, 6.50171 16.9405, 6.23148 16.7149, 5.96126 16.4894, 5.79409 16.2569, 5.73111 16.0182, 5.51756 16.2815, 5.23131 16.5197, 4.87292 16.7332, 4.51453 16.9468, 4.09889 17.0533, 3.62714 17.0533, 3.20005 17.0533, 2.81761 16.9743, 2.48097 16.8151, 2.14434 16.6571, 1.87869 16.4126, 1.68347 16.0823, 1.49511 15.7285, 1.40408 15.338, 1.40981 14.9098 L 1.40981 14.8365 C 1.4224 14.3911, 1.47908 13.9486, 1.57984 13.5083, 1.6806 13.0875, 1.82717 12.6238, 2.01896 12.1165, 2.21075 11.6099, 2.39452 11.1181, 2.57029 10.6412, 2.75921 10.1351, 2.85368 9.71943, 2.85368 9.39539, 2.85368 9.12116, 2.73746 8.98375, 2.50445 8.98318, 2.2909 8.98375, 2.09739 9.04501, 1.92449 9.16696, 1.7516 9.28947, 1.59416 9.45894, 1.45275 9.67535, 1.31134 9.89233, 1.18367 10.1488, 1.07031 10.4448, 0.956953 10.7414, 0.863061 11.0568, 0.78749 11.3923, 0.718216 11.5578, 0.601997 11.6431, 0.438259 11.6488 L 0.221278 11.6488 C 0.0701351 11.6494, -0.00543621 11.5732, -0.00543621 11.4198 L -0.00543621 11.3557 C 0.0827303 11.0202, 0.199522 10.6772, 0.343795 10.3257, 0.48864 9.97477, 0.67127 9.65588, 0.891114 9.36848, 1.11153 9.08165, 1.36343 8.84349, 1.64625 8.65399, 1.92907 8.46506, 2.25311 8.37002, 2.6178 8.36945, 2.93268 8.37002, 3.20119 8.43758, 3.42447 8.57155, 3.64775 8.70609, 3.81778 8.88471, 3.934 9.10742, 4.0508 9.33069, 4.11492 9.58203, 4.12751 9.86256 L 4.12751 9.92668 C 4.12751 10.19, 4.07427 10.4614, 3.96664 10.7419, 3.78458 11.2188, 3.60424 11.706, 3.42447 12.2035, 3.24527 12.7016, 3.10558 13.1488, 3.00482 13.5455, 2.90406 13.9428, 2.83478 14.3361, 2.797 14.7266, 2.77181 14.8308, 2.75635 14.9442, 2.75005 15.0655, 2.75005 15.3043, 2.79127 15.5396, 2.87257 15.7709, 2.92925 15.9792, 3.03287 16.1441, 3.18402 16.2661, 3.33516 16.3886, 3.51435 16.4493, 3.7216 16.4487, 4.13724 16.4493, 4.49907 16.3245, 4.80708 16.0737, 5.11509 15.8235, 5.38532 15.4903, 5.61775 15.0747, 5.63035 15.0266, 5.64008 14.9699, 5.64638 14.9058, 5.65268 14.8417, 5.66184 14.7758, 5.67443 14.7083 L 7.08968 9.24883 C 7.14693 9.02326, 7.26143 8.85723, 7.43433 8.75017, 7.60723 8.64368, 7.78184 8.58987, 7.9576 8.58929, 8.14023 8.58987, 8.29137 8.64483, 8.41103 8.75418, 8.4929 8.83433, 8.53355 8.94081, 8.53355 9.07478, 8.53355 9.14234, 8.52725 9.21276, 8.51465 9.28547 L 7.09941 14.7449 C 6.99865 15.1239, 6.94827 15.46, 6.94827 15.7525, 6.94827 15.8327, 6.95456 15.918, 6.96716 16.009, 6.99865 16.3027, 7.14636 16.4493, 7.41085 16.4487, 7.67535 16.4493, 7.90321 16.2237, 8.095 15.7714, 8.28679 15.3197, 8.474 14.7392, 8.65606 14.0304, 8.69385 13.8724, 8.80091 13.7928, 8.97667 13.7923 L 9.19365 13.7923 C 9.2635 13.7928, 9.33277 13.814, 9.40147 13.8564, 9.42666 13.9119, 9.43926 13.9577, 9.43926 13.9938, 9.43926 14.019, 9.4301 14.0493, 9.41063 14.0854 Z" stroke="none" fill="#000000" />
			<path d="M 2.81931 0.909288 C 2.81931 1.26516, 2.76673 1.58416, 2.66093 1.8663, 2.55513 2.14843, 2.37559 2.42639, 2.12199 2.69955, 1.87192 2.95635, 1.61576 3.14359, 1.3535 3.26125, 1.09125 3.37923, 0.775131 3.43822, 0.405152 3.43822, 0.0284407 3.43822, -0.316531 3.34525, -0.630083 3.15866, -0.943635 2.97271, -1.19371 2.72039, -1.3803 2.40203, -1.64448 1.96793, -1.81248 1.50978, -1.88461 1.02759, -1.95675 0.545401, -1.99298 0.0648136, -1.99298 -0.414171, -1.99298 -0.892514, -1.92341 -1.36348, -1.78426 -1.82708, -1.64512 -2.29035, -1.42262 -2.71868, -1.11612 -3.11239, -0.858995 -3.4471, -0.545443 -3.7225, -0.175785 -3.93795, 0.194194 -4.15339, 0.600722 -4.26112, 1.04444 -4.26144, 1.47084 -4.26112, 1.82479 -4.15147, 2.10628 -3.93282, 2.3881 -3.71384, 2.52884 -3.39933, 2.52884 -2.98927, 2.52884 -2.79755, 2.47081 -2.65552, 2.35443 -2.56319, 2.23837 -2.47085, 2.10436 -2.42469, 1.95304 -2.42501, 1.80876 -2.42469, 1.67924 -2.47085, 1.56478 -2.56319, 1.45033 -2.65552, 1.39294 -2.79755, 1.39294 -2.98927, 1.39294 -3.19414, 1.46892 -3.34803, 1.62025 -3.45095, 1.71899 -3.51218, 1.82992 -3.54296, 1.95304 -3.54328, 1.99183 -3.54296, 1.99696 -3.54456, 1.96874 -3.54841, 1.91969 -3.62343, 1.81133 -3.69749, 1.64397 -3.77123, 1.47662 -3.84465, 1.27688 -3.88152, 1.04444 -3.88184, 0.730887 -3.88152, 0.449396 -3.78822, 0.199323 -3.60195, -0.0507488 -3.41536, -0.262028 -3.18228, -0.434834 -2.90207, -0.638739 -2.5462, -0.762172 -2.15859, -0.804492 -1.73987, -0.846812 -1.32084, -0.871499 -0.986772, -0.878552 -0.737341, -0.815072 -0.884179, -0.662464 -1.06436, -0.421369 -1.2782, -0.180273 -1.49173, 0.125264 -1.59881, 0.494922 -1.59913, 0.847267 -1.59881, 1.1512 -1.53982, 1.4064 -1.42183, 1.66161 -1.30385, 1.90719 -1.12014, 2.14315 -0.870713, 2.3897 -0.596916, 2.56411 -0.321516, 2.66606 -0.0445127, 2.76834 0.23249, 2.81931 0.550531, 2.81931 0.909288 Z M 1.69399 0.909288 C 1.69399 0.581309, 1.68373 0.286352, 1.66257 0.0247378, 1.64141 -0.236876, 1.57119 -0.46675, 1.45129 -0.665526, 1.32818 -0.866866, 1.19064 -1.01563, 1.03931 -1.11149, 0.887984 -1.20703, 0.702995 -1.25512, 0.484342 -1.25544, 0.248376 -1.25512, 0.0470359 -1.19517, -0.12032 -1.07558, -0.287676 -0.955673, -0.429384 -0.798577, -0.545443 -0.603649, -0.661502 -0.408721, -0.744539 -0.181411, -0.793912 0.078279, -0.829179 0.256536, -0.846812 0.446334, -0.846812 0.647674, -0.846812 0.726543, -0.843285 0.810542, -0.836232 0.899029 L -0.836232 0.940067 C -0.822125 1.19687, -0.802569 1.43636, -0.777882 1.65854, -0.753195 1.88104, -0.714402 2.06219, -0.661823 2.20197, -0.563076 2.44852, -0.417842 2.64857, -0.22612 2.80246, -0.0340772 2.95635, 0.17624 3.0333, 0.405152 3.03298, 0.641118 3.0333, 0.840214 2.98809, 1.00212 2.89736, 1.16435 2.80695, 1.30702 2.66044, 1.43013 2.45845, 1.55709 2.25711, 1.63275 2.02884, 1.65712 1.77396, 1.6818 1.5194, 1.69399 1.23118, 1.69399 0.909288 Z" stroke="none" fill="#000000" transform="matrix(1.12 0 0 1 12.4149 16.3063)" />
			<rect />
		</svg>
	</g>
	<g transform="matrix(1 0 -0 1 72.7193 72.6908)">
		<svg width="119.936646" height="119.999977">
			<defs />
			<polyline points="-5.628 0 5.628 0" fill="none" stroke="#000000" stroke-width="0.64319998" stroke-linecap="round" stroke-linejoin="round" transform="matrix(1 0 0 1 5.628 9.60638)" />
			<polyline points="0 -5.628 0 5.628" fill="none" stroke="#000000" stroke-width="0.64319998" stroke-linecap="round" stroke-linejoin="round" transform="matrix(1 0 0 1 5.628 9.60638)" />
			<rect />
		</svg>
	</g>
	<g transform="matrix(1 0 -0 1 115.577 72.6908)">
		<svg width="119.936646" height="83.9999847">
			<defs />
			<polyline points="-5.628 0 5.628 0" fill="none" stroke="#000000" stroke-width="0.64319998" stroke-linecap="round" stroke-linejoin="round" transform="matrix(1 0 0 1 5.628 9.60638)" />
			<rect />
		</svg>
	</g>
	<g transform="matrix(1 0 -0 1 91.94 65.5557)">
		<svg width="50.9839096" height="38.9999924">
			<defs />
			<path d="M 9.41063 14.0854 C 9.34193 14.3671, 9.26006 14.6785, 9.1656 15.0203, 9.0717 15.3627, 8.94575 15.6798, 8.78831 15.973, 8.63144 16.2661, 8.43336 16.5197, 8.19405 16.7332, 7.95474 16.9468, 7.65589 17.0533, 7.2975 17.0533, 6.85724 17.0533, 6.50171 16.9405, 6.23148 16.7149, 5.96126 16.4894, 5.79409 16.2569, 5.73111 16.0182, 5.51756 16.2815, 5.23131 16.5197, 4.87292 16.7332, 4.51453 16.9468, 4.09889 17.0533, 3.62714 17.0533, 3.20005 17.0533, 2.81761 16.9743, 2.48097 16.8151, 2.14434 16.6571, 1.87869 16.4126, 1.68347 16.0823, 1.49511 15.7285, 1.40408 15.338, 1.40981 14.9098 L 1.40981 14.8365 C 1.4224 14.3911, 1.47908 13.9486, 1.57984 13.5083, 1.6806 13.0875, 1.82717 12.6238, 2.01896 12.1165, 2.21075 11.6099, 2.39452 11.1181, 2.57029 10.6412, 2.75921 10.1351, 2.85368 9.71943, 2.85368 9.39539, 2.85368 9.12116, 2.73746 8.98375, 2.50445 8.98318, 2.2909 8.98375, 2.09739 9.04501, 1.92449 9.16696, 1.7516 9.28947, 1.59416 9.45894, 1.45275 9.67535, 1.31134 9.89233, 1.18367 10.1488, 1.07031 10.4448, 0.956953 10.7414, 0.863061 11.0568, 0.78749 11.3923, 0.718216 11.5578, 0.601997 11.6431, 0.438259 11.6488 L 0.221278 11.6488 C 0.0701351 11.6494, -0.00543621 11.5732, -0.00543621 11.4198 L -0.00543621 11.3557 C 0.0827303 11.0202, 0.199522 10.6772, 0.343795 10.3257, 0.48864 9.97477, 0.67127 9.65588, 0.891114 9.36848, 1.11153 9.08165, 1.36343 8.84349, 1.64625 8.65399, 1.92907 8.46506, 2.25311 8.37002, 2.6178 8.36945, 2.93268 8.37002, 3.20119 8.43758, 3.42447 8.57155, 3.64775 8.70609, 3.81778 8.88471, 3.934 9.10742, 4.0508 9.33069, 4.11492 9.58203, 4.12751 9.86256 L 4.12751 9.92668 C 4.12751 10.19, 4.07427 10.4614, 3.96664 10.7419, 3.78458 11.2188, 3.60424 11.706, 3.42447 12.2035, 3.24527 12.7016, 3.10558 13.1488, 3.00482 13.5455, 2.90406 13.9428, 2.83478 14.3361, 2.797 14.7266, 2.77181 14.8308, 2.75635 14.9442, 2.75005 15.0655, 2.75005 15.3043, 2.79127 15.5396, 2.87257 15.7709, 2.92925 15.9792, 3.03287 16.1441, 3.18402 16.2661, 3.33516 16.3886, 3.51435 16.4493, 3.7216 16.4487, 4.13724 16.4493, 4.49907 16.3245, 4.80708 16.0737, 5.11509 15.8235, 5.38532 15.4903, 5.61775 15.0747, 5.63035 15.0266, 5.64008 14.9699, 5.64638 14.9058, 5.65268 14.8417, 5.66184 14.7758, 5.67443 14.7083 L 7.08968 9.24883 C 7.14693 9.02326, 7.26143 8.85723, 7.43433 8.75017, 7.60723 8.64368, 7.78184 8.58987, 7.9576 8.58929, 8.14023 8.58987, 8.29137 8.64483, 8.41103 8.75418, 8.4929 8.83433, 8.53355 8.94081, 8.53355 9.07478, 8.53355 9.14234, 8.52725 9.21276, 8.51465 9.28547 L 7.09941 14.7449 C 6.99865 15.1239, 6.94827 15.46, 6.94827 15.7525, 6.94827 15.8327, 6.95456 15.918, 6.96716 16.009, 6.99865 16.3027, 7.14636 16.4493, 7.41085 16.4487, 7.67535 16.4493, 7.90321 16.2237, 8.095 15.7714, 8.28679 15.3197, 8.474 14.7392, 8.65606 14.0304, 8.69385 13.8724, 8.80091 13.7928, 8.97667 13.7923 L 9.19365 13.7923 C 9.2635 13.7928, 9.33277 13.814, 9.40147 13.8564, 9.42666 13.9119, 9.43926 13.9577, 9.43926 13.9938, 9.43926 14.019, 9.4301 14.0493, 9.41063 14.0854 Z" stroke="none" fill="#000000" />
			<path d="M 2.39138 3.19713 L -1.90858 3.19713, -1.90858 2.915 C -1.90858 2.8948, -1.898 2.86402, -1.87684 2.82266 L -0.149418 0.945196 C 0.0551279 0.71981, 0.261918 0.488975, 0.471594 0.253009, 0.68127 0.0170434, 0.868504 -0.224052, 1.03394 -0.470277, 1.19937 -0.716502, 1.33146 -0.970422, 1.4302 -1.23204, 1.52895 -1.49365, 1.578 -1.76809, 1.578 -2.05567, 1.578 -2.29805, 1.54658 -2.52472, 1.4831 -2.73503, 1.41962 -2.94535, 1.32825 -3.13002, 1.20835 -3.28904, 1.08844 -3.44806, 0.938716 -3.5763, 0.759177 -3.67377, 0.579638 -3.77123, 0.371886 -3.81996, 0.13592 -3.82028, -0.216105 -3.81996, -0.527092 -3.7148, -0.7964 -3.50449, -1.06571 -3.29417, -1.24461 -3.06237, -1.33277 -2.80974, -1.35009 -2.80268, -1.32187 -2.79915, -1.24813 -2.79948 L -1.15836 -2.79948 C -1.05256 -2.77511, -0.961191 -2.73824, -0.883605 -2.68887, -0.806018 -2.63917, -0.740935 -2.57088, -0.688036 -2.48368, -0.635136 -2.39647, -0.608846 -2.29132, -0.608846 -2.16852, -0.608846 -1.96302, -0.675532 -1.8056, -0.809545 -1.69627, -0.943558 -1.58663, -1.09328 -1.53212, -1.25871 -1.53244, -1.41709 -1.53212, -1.56489 -1.58663, -1.70243 -1.69627, -1.83965 -1.8056, -1.90858 -1.96302, -1.90858 -2.16852, -1.90858 -2.45547, -1.85215 -2.72734, -1.7393 -2.98382, -1.62645 -3.24031, -1.47352 -3.46249, -1.27987 -3.65068, -1.08623 -3.83856, -0.857315 -3.98732, -0.593136 -4.09697, -0.328958 -4.20629, -0.0487483 -4.26112, 0.24685 -4.26144, 0.612981 -4.26112, 0.948655 -4.20725, 1.25323 -4.09953, 1.55781 -3.99181, 1.8175 -3.83695, 2.0323 -3.63529, 2.24711 -3.43331, 2.41543 -3.19991, 2.53693 -2.93509, 2.65844 -2.66995, 2.71904 -2.37692, 2.71904 -2.05567, 2.71904 -1.6998, 2.63825 -1.37214, 2.47602 -1.07302, 2.31411 -0.77357, 2.11342 -0.499131, 1.87392 -0.2497, 1.63443 5.126e-005, 1.37987 0.235055, 1.11056 0.455632, 0.841252 0.676208, 0.597272 0.890693, 0.378939 1.09909 L -0.836155 2.24301, 0.754048 2.24301 C 0.975907 2.24333, 1.18302 2.24172, 1.37474 2.2382, 1.56678 2.23499, 1.72965 2.22794, 1.86334 2.21768, 1.99736 2.20742, 2.06597 2.20069, 2.06917 2.19684, 2.09738 2.17312, 2.12399 2.12534, 2.14868 2.05353, 2.17337 1.98171, 2.19613 1.89707, 2.21729 1.79961, 2.23845 1.70215, 2.25961 1.60308, 2.28077 1.50209, 2.30193 1.40142, 2.32117 1.29081, 2.3388 1.1709 L 2.72962 1.1709 Z" stroke="none" fill="#000000" transform="matrix(1.12 0 0 1 12.3306 16.3063)" />
			<rect />
		</svg>
	</g>
	<g transform="matrix(1 0 -0 1 175.982 72.6908)">
		<svg width="119.936646" height="119.999977">
			<defs />
			<polyline points="-5.628 0 5.628 0" fill="none" stroke="#000000" stroke-width="0.64319998" stroke-linecap="round" stroke-linejoin="round" transform="matrix(1 0 0 1 5.628 9.60638)" />
			<polyline points="0 -5.628 0 5.628" fill="none" stroke="#000000" stroke-width="0.64319998" stroke-linecap="round" stroke-linejoin="round" transform="matrix(1 0 0 1 5.628 9.60638)" />
			<rect />
		</svg>
	</g>
	<g transform="matrix(1 0 -0 1 218.839 72.6908)">
		<svg width="119.936646" height="83.9999847">
			<defs />
			<polyline points="-5.628 0 5.628 0" fill="none" stroke="#000000" stroke-width="0.64319998" stroke-linecap="round" stroke-linejoin="round" transform="matrix(1 0 0 1 5.628 9.60638)" />
			<rect />
		</svg>
	</g>
	<g transform="matrix(1 0 -0 1 195.017 65.5557)">
		<svg width="50.9839096" height="38.9999924">
			<defs />
			<path d="M 9.41063 14.0854 C 9.34193 14.3671, 9.26006 14.6785, 9.1656 15.0203, 9.0717 15.3627, 8.94575 15.6798, 8.78831 15.973, 8.63144 16.2661, 8.43336 16.5197, 8.19405 16.7332, 7.95474 16.9468, 7.65589 17.0533, 7.2975 17.0533, 6.85724 17.0533, 6.50171 16.9405, 6.23148 16.7149, 5.96126 16.4894, 5.79409 16.2569, 5.73111 16.0182, 5.51756 16.2815, 5.23131 16.5197, 4.87292 16.7332, 4.51453 16.9468, 4.09889 17.0533, 3.62714 17.0533, 3.20005 17.0533, 2.81761 16.9743, 2.48097 16.8151, 2.14434 16.6571, 1.87869 16.4126, 1.68347 16.0823, 1.49511 15.7285, 1.40408 15.338, 1.40981 14.9098 L 1.40981 14.8365 C 1.4224 14.3911, 1.47908 13.9486, 1.57984 13.5083, 1.6806 13.0875, 1.82717 12.6238, 2.01896 12.1165, 2.21075 11.6099, 2.39452 11.1181, 2.57029 10.6412, 2.75921 10.1351, 2.85368 9.71943, 2.85368 9.39539, 2.85368 9.12116, 2.73746 8.98375, 2.50445 8.98318, 2.2909 8.98375, 2.09739 9.04501, 1.92449 9.16696, 1.7516 9.28947, 1.59416 9.45894, 1.45275 9.67535, 1.31134 9.89233, 1.18367 10.1488, 1.07031 10.4448, 0.956953 10.7414, 0.863061 11.0568, 0.78749 11.3923, 0.718216 11.5578, 0.601997 11.6431, 0.438259 11.6488 L 0.221278 11.6488 C 0.0701351 11.6494, -0.00543621 11.5732, -0.00543621 11.4198 L -0.00543621 11.3557 C 0.0827303 11.0202, 0.199522 10.6772, 0.343795 10.3257, 0.48864 9.97477, 0.67127 9.65588, 0.891114 9.36848, 1.11153 9.08165, 1.36343 8.84349, 1.64625 8.65399, 1.92907 8.46506, 2.25311 8.37002, 2.6178 8.36945, 2.93268 8.37002, 3.20119 8.43758, 3.42447 8.57155, 3.64775 8.70609, 3.81778 8.88471, 3.934 9.10742, 4.0508 9.33069, 4.11492 9.58203, 4.12751 9.86256 L 4.12751 9.92668 C 4.12751 10.19, 4.07427 10.4614, 3.96664 10.7419, 3.78458 11.2188, 3.60424 11.706, 3.42447 12.2035, 3.24527 12.7016, 3.10558 13.1488, 3.00482 13.5455, 2.90406 13.9428, 2.83478 14.3361, 2.797 14.7266, 2.77181 14.8308, 2.75635 14.9442, 2.75005 15.0655, 2.75005 15.3043, 2.79127 15.5396, 2.87257 15.7709, 2.92925 15.9792, 3.03287 16.1441, 3.18402 16.2661, 3.33516 16.3886, 3.51435 16.4493, 3.7216 16.4487, 4.13724 16.4493, 4.49907 16.3245, 4.80708 16.0737, 5.11509 15.8235, 5.38532 15.4903, 5.61775 15.0747, 5.63035 15.0266, 5.64008 14.9699, 5.64638 14.9058, 5.65268 14.8417, 5.66184 14.7758, 5.67443 14.7083 L 7.08968 9.24883 C 7.14693 9.02326, 7.26143 8.85723, 7.43433 8.75017, 7.60723 8.64368, 7.78184 8.58987, 7.9576 8.58929, 8.14023 8.58987, 8.29137 8.64483, 8.41103 8.75418, 8.4929 8.83433, 8.53355 8.94081, 8.53355 9.07478, 8.53355 9.14234, 8.52725 9.21276, 8.51465 9.28547 L 7.09941 14.7449 C 6.99865 15.1239, 6.94827 15.46, 6.94827 15.7525, 6.94827 15.8327, 6.95456 15.918, 6.96716 16.009, 6.99865 16.3027, 7.14636 16.4493, 7.41085 16.4487, 7.67535 16.4493, 7.90321 16.2237, 8.095 15.7714, 8.28679 15.3197, 8.474 14.7392, 8.65606 14.0304, 8.69385 13.8724, 8.80091 13.7928, 8.97667 13.7923 L 9.19365 13.7923 C 9.2635 13.7928, 9.33277 13.814, 9.40147 13.8564, 9.42666 13.9119, 9.43926 13.9577, 9.43926 13.9938, 9.43926 14.019, 9.4301 14.0493, 9.41063 14.0854 Z" stroke="none" fill="#000000" />
			<path d="M 3.13161 -3.74334 C 3.13161 -3.7225, 3.12295 -3.69332, 3.10532 -3.65613 L 1.52056 -1.48628 C 1.31634 -1.20222, 1.157 -0.888346, 1.04254 -0.544657, 0.928084 -0.200968, 0.84633 0.160033, 0.796957 0.537707, 0.747583 0.9157, 0.716805 1.30139, 0.704302 1.69445, 0.692119 2.08783, 0.685706 2.48442, 0.685706 2.88422, 0.685706 3.06921, 0.625112 3.20931, 0.503603 3.30485, 0.382414 3.40071, 0.249362 3.44848, 0.104769 3.44848, -0.0395031 3.44848, -0.170631 3.40071, -0.288614 3.30485, -0.406596 3.20931, -0.465588 3.06921, -0.465588 2.88422, -0.465588 2.05, -0.320354 1.24753, -0.0298851 0.476151, 0.260584 -0.294906, 0.652364 -1.01915, 1.14545 -1.69659 L 2.14895 -3.05596, 0.247439 -3.05596 C 0.00826716 -3.05564, -0.214554 -3.05372, -0.420703 -3.05051, -0.626532 -3.04698, -0.801903 -3.04089, -0.946175 -3.03256, -1.09045 -3.0239, -1.16451 -3.01813, -1.16835 -3.01492, -1.20362 -2.98382, -1.2344 -2.93253, -1.26069 -2.86071, -1.28698 -2.7889, -1.31167 -2.7049, -1.33475 -2.60936, -1.35751 -2.5135, -1.37771 -2.41443, -1.39534 -2.31184, -1.41298 -2.20924, -1.43061 -2.09991, -1.44824 -1.98386 L -1.83906 -1.98386, -1.45882 -4.37429, -1.07314 -4.37429, -1.07314 -4.2717 C -1.07314 -4.23386, -1.05198 -4.19796, -1.00998 -4.16397, -0.935916 -4.11588, -0.858329 -4.0851, -0.777537 -4.07164, -0.682317 -4.05753, -0.565937 -4.04471, -0.428718 -4.03285, -0.291499 -4.02066, -0.144341 -4.01297, 0.012435 -4.00976, 0.169211 -4.00624, 0.326628 -4.00463, 0.485008 -4.00495 L 3.13161 -4.00495, 3.13161 -3.74334 Z" stroke="none" fill="#000000" transform="matrix(1.12 0 0 1 12.2617 16.3063)" />
			<rect />
		</svg>
	</g>
	<g transform="matrix(1 0 -0 1 72.7193 6.98514)">
		<svg width="119.936646" height="119.999977">
			<defs />
			<polyline points="-5.628 0 5.628 0" fill="none" stroke="#000000" stroke-width="0.64319998" stroke-linecap="round" stroke-linejoin="round" transform="matrix(1 0 0 1 5.628 9.60638)" />
			<polyline points="0 -5.628 0 5.628" fill="none" stroke="#000000" stroke-width="0.64319998" stroke-linecap="round" stroke-linejoin="round" transform="matrix(1 0 0 1 5.628 9.60638)" />
			<rect />
		</svg>
	</g>
	<g transform="matrix(1 0 -0 1 115.577 6.98514)">
		<svg width="119.936646" height="83.9999847">
			<defs />
			<polyline points="-5.628 0 5.628 0" fill="none" stroke="#000000" stroke-width="0.64319998" stroke-linecap="round" stroke-linejoin="round" transform="matrix(1 0 0 1 5.628 9.60638)" />
			<rect />
		</svg>
	</g>
	<g transform="matrix(1 0 -0 1 91.8425 -0.150038)">
		<svg width="50.9839096" height="38.9999924">
			<defs />
			<path d="M 9.41063 14.0854 C 9.34193 14.3671, 9.26006 14.6785, 9.1656 15.0203, 9.0717 15.3627, 8.94575 15.6798, 8.78831 15.973, 8.63144 16.2661, 8.43336 16.5197, 8.19405 16.7332, 7.95474 16.9468, 7.65589 17.0533, 7.2975 17.0533, 6.85724 17.0533, 6.50171 16.9405, 6.23148 16.7149, 5.96126 16.4894, 5.79409 16.2569, 5.73111 16.0182, 5.51756 16.2815, 5.23131 16.5197, 4.87292 16.7332, 4.51453 16.9468, 4.09889 17.0533, 3.62714 17.0533, 3.20005 17.0533, 2.81761 16.9743, 2.48097 16.8151, 2.14434 16.6571, 1.87869 16.4126, 1.68347 16.0823, 1.49511 15.7285, 1.40408 15.338, 1.40981 14.9098 L 1.40981 14.8365 C 1.4224 14.3911, 1.47908 13.9486, 1.57984 13.5083, 1.6806 13.0875, 1.82717 12.6238, 2.01896 12.1165, 2.21075 11.6099, 2.39452 11.1181, 2.57029 10.6412, 2.75921 10.1351, 2.85368 9.71943, 2.85368 9.39539, 2.85368 9.12116, 2.73746 8.98375, 2.50445 8.98318, 2.2909 8.98375, 2.09739 9.04501, 1.92449 9.16696, 1.7516 9.28947, 1.59416 9.45894, 1.45275 9.67535, 1.31134 9.89233, 1.18367 10.1488, 1.07031 10.4448, 0.956953 10.7414, 0.863061 11.0568, 0.78749 11.3923, 0.718216 11.5578, 0.601997 11.6431, 0.438259 11.6488 L 0.221278 11.6488 C 0.0701351 11.6494, -0.00543621 11.5732, -0.00543621 11.4198 L -0.00543621 11.3557 C 0.0827303 11.0202, 0.199522 10.6772, 0.343795 10.3257, 0.48864 9.97477, 0.67127 9.65588, 0.891114 9.36848, 1.11153 9.08165, 1.36343 8.84349, 1.64625 8.65399, 1.92907 8.46506, 2.25311 8.37002, 2.6178 8.36945, 2.93268 8.37002, 3.20119 8.43758, 3.42447 8.57155, 3.64775 8.70609, 3.81778 8.88471, 3.934 9.10742, 4.0508 9.33069, 4.11492 9.58203, 4.12751 9.86256 L 4.12751 9.92668 C 4.12751 10.19, 4.07427 10.4614, 3.96664 10.7419, 3.78458 11.2188, 3.60424 11.706, 3.42447 12.2035, 3.24527 12.7016, 3.10558 13.1488, 3.00482 13.5455, 2.90406 13.9428, 2.83478 14.3361, 2.797 14.7266, 2.77181 14.8308, 2.75635 14.9442, 2.75005 15.0655, 2.75005 15.3043, 2.79127 15.5396, 2.87257 15.7709, 2.92925 15.9792, 3.03287 16.1441, 3.18402 16.2661, 3.33516 16.3886, 3.51435 16.4493, 3.7216 16.4487, 4.13724 16.4493, 4.49907 16.3245, 4.80708 16.0737, 5.11509 15.8235, 5.38532 15.4903, 5.61775 15.0747, 5.63035 15.0266, 5.64008 14.9699, 5.64638 14.9058, 5.65268 14.8417, 5.66184 14.7758, 5.67443 14.7083 L 7.08968 9.24883 C 7.14693 9.02326, 7.26143 8.85723, 7.43433 8.75017, 7.60723 8.64368, 7.78184 8.58987, 7.9576 8.58929, 8.14023 8.58987, 8.29137 8.64483, 8.41103 8.75418, 8.4929 8.83433, 8.53355 8.94081, 8.53355 9.07478, 8.53355 9.14234, 8.52725 9.21276, 8.51465 9.28547 L 7.09941 14.7449 C 6.99865 15.1239, 6.94827 15.46, 6.94827 15.7525, 6.94827 15.8327, 6.95456 15.918, 6.96716 16.009, 6.99865 16.3027, 7.14636 16.4493, 7.41085 16.4487, 7.67535 16.4493, 7.90321 16.2237, 8.095 15.7714, 8.28679 15.3197, 8.474 14.7392, 8.65606 14.0304, 8.69385 13.8724, 8.80091 13.7928, 8.97667 13.7923 L 9.19365 13.7923 C 9.2635 13.7928, 9.33277 13.814, 9.40147 13.8564, 9.42666 13.9119, 9.43926 13.9577, 9.43926 13.9938, 9.43926 14.019, 9.4301 14.0493, 9.41063 14.0854 Z" stroke="none" fill="#000000" />
			<path d="M 2.81931 1.26324 C 2.81931 1.55755, 2.75423 1.84001, 2.62406 2.10996, 2.4939 2.38023, 2.31949 2.61106, 2.10083 2.80214, 1.85461 3.01791, 1.58242 3.17757, 1.28489 3.28177, 0.987372 3.38629, 0.676384 3.43822, 0.352252 3.43822, 0.0601807 3.43822, -0.224838 3.39719, -0.503123 3.31511, -0.781409 3.23304, -1.03212 3.11537, -1.2559 2.96148, -1.47969 2.80759, -1.65826 2.61876, -1.79228 2.39465, -1.92597 2.17087, -1.99298 1.91342, -1.99298 1.62232, -1.99298 1.40366, -1.91988 1.24047, -1.77368 1.13275, -1.62749 1.02503, -1.4736 0.971165, -1.31169 0.970845, -1.14241 0.971165, -0.984993 1.02503, -0.838797 1.13275, -0.692601 1.24047, -0.619503 1.40366, -0.619503 1.62232, -0.619503 1.75248, -0.644831 1.86117, -0.696128 1.94837, -0.747104 2.03558, -0.812187 2.10835, -0.891697 2.16638, -0.970886 2.22473, -1.06162 2.26032, -1.16357 2.27379, -1.21615 2.28789, -1.26552 2.29462, -1.31169 2.2943, -1.35722 2.29462, -1.36427 2.29815, -1.33285 2.30456, -1.22352 2.49629, -1.00872 2.66589, -0.688112 2.81272, -0.367507 2.95988, -0.0209324 3.0333, 0.352252 3.03298, 0.528585 3.0333, 0.693056 2.9897, 0.846305 2.90249, 0.999555 2.81529, 1.12748 2.69827, 1.22943 2.55079, 1.35639 2.35971, 1.44263 2.15452, 1.48816 1.93555, 1.534 1.71689, 1.55677 1.49279, 1.55677 1.26324, 1.55677 1.02759, 1.534 0.801244, 1.48816 0.583874, 1.44263 0.366824, 1.35639 0.165804, 1.22943 -0.0191851, 1.12363 -0.169228, 0.995066 -0.290738, 0.84374 -0.383072, 0.692415 -0.475407, 0.528585 -0.521574, 0.352252 -0.521894 L -0.413674 -0.521894 C -0.515627 -0.521574, -0.57013 -0.569344, -0.577183 -0.665526 L -0.577183 -0.721952 C -0.577183 -0.762669, -0.564679 -0.79505, -0.540313 -0.819416, -0.508573 -0.849874, -0.468177 -0.865263, -0.418804 -0.865584, -0.316531 -0.879049, -0.211051 -0.885782, -0.102046 -0.886102, 0.00375414 -0.885782, 0.107951 -0.892514, 0.209903 -0.906621, 0.400023 -0.920087, 0.565455 -0.978757, 0.706201 -1.08327, 0.847267 -1.18747, 0.96525 -1.32084, 1.06015 -1.48339, 1.15537 -1.64562, 1.22751 -1.83285, 1.27688 -2.04509, 1.32625 -2.25701, 1.35094 -2.47438, 1.35094 -2.69688, 1.35094 -2.86071, 1.33331 -3.01621, 1.29804 -3.16336, 1.26277 -3.3102, 1.19769 -3.43876, 1.10247 -3.54841, 0.905297 -3.7738, 0.655225 -3.88505, 0.352252 -3.88184, 0.0284407 -3.88152, -0.268119 -3.8206, -0.537428 -3.69942, -0.806736 -3.57791, -0.987558 -3.4471, -1.07925 -3.30731, -1.10362 -3.30347, -1.09143 -3.30186, -1.04206 -3.30219, -0.915101 -3.30186, -0.795515 -3.26435, -0.682983 -3.18933, -0.513703 -3.08994, -0.429384 -2.92227, -0.429384 -2.68662, -0.429384 -2.48785, -0.493505 -2.33812, -0.622068 -2.23745, -0.75063 -2.13646, -0.894262 -2.08613, -1.05264 -2.08645, -1.20749 -2.08613, -1.35273 -2.1355, -1.48834 -2.23489, -1.62396 -2.33396, -1.69193 -2.48464, -1.69193 -2.68662, -1.69193 -2.93605, -1.63197 -3.15631, -1.51239 -3.34803, -1.39248 -3.53943, -1.23859 -3.70358, -1.05008 -3.84048, -0.86156 -3.97706, -0.644189 -4.08158, -0.397644 -4.15339, -0.151098 -4.22521, 0.098974 -4.26112, 0.352252 -4.26144, 0.623485 -4.26112, 0.88606 -4.22521, 1.13966 -4.15339, 1.39326 -4.08158, 1.63275 -3.97033, 1.85782 -3.82028, 2.0412 -3.69012, 2.19509 -3.53014, 2.32013 -3.34034, 2.44516 -3.15054, 2.50768 -2.93605, 2.50768 -2.69688, 2.50768 -2.45707, 2.46472 -2.23136, 2.37848 -2.01944, 2.29224 -1.8072, 2.17778 -1.6158, 2.03511 -1.44492, 1.89244 -1.27371, 1.72252 -1.12335, 1.52535 -0.993505, 1.32818 -0.863339, 1.18006 -0.781585, 1.08131 -0.747601, 1.16595 -0.737021, 1.31054 -0.686365, 1.51477 -0.595954, 1.71899 -0.505223, 1.91424 -0.384675, 2.10083 -0.234632, 2.31949 -0.0461159, 2.4939 0.178629, 2.62406 0.440243, 2.75423 0.701857, 2.81931 0.976295, 2.81931 1.26324 Z" stroke="none" fill="#000000" transform="matrix(1.12 0 0 1 12.4149 16.3063)" />
			<rect />
		</svg>
	</g>
	<g transform="matrix(1 0 -0 1 175.982 6.98514)">
		<svg width="119.936646" height="119.999977">
			<defs />
			<polyline points="-5.628 0 5.628 0" fill="none" stroke="#000000" stroke-width="0.64319998" stroke-linecap="round" stroke-linejoin="round" transform="matrix(1 0 0 1 5.628 9.60638)" />
			<polyline points="0 -5.628 0 5.628" fill="none" stroke="#000000" stroke-width="0.64319998" stroke-linecap="round" stroke-linejoin="round" transform="matrix(1 0 0 1 5.628 9.60638)" />
			<rect />
		</svg>
	</g>
	<g transform="matrix(1 0 -0 1 218.839 6.98514)">
		<svg width="119.936646" height="83.9999847">
			<defs />
			<polyline points="-5.628 0 5.628 0" fill="none" stroke="#000000" stroke-width="0.64319998" stroke-linecap="round" stroke-linejoin="round" transform="matrix(1 0 0 1 5.628 9.60638)" />
			<rect />
		</svg>
	</g>
	<g transform="matrix(1 0 -0 1 194.928 -0.150038)">
		<svg width="50.9839096" height="38.9999924">
			<defs />
			<path d="M 9.41063 14.0854 C 9.34193 14.3671, 9.26006 14.6785, 9.1656 15.0203, 9.0717 15.3627, 8.94575 15.6798, 8.78831 15.973, 8.63144 16.2661, 8.43336 16.5197, 8.19405 16.7332, 7.95474 16.9468, 7.65589 17.0533, 7.2975 17.0533, 6.85724 17.0533, 6.50171 16.9405, 6.23148 16.7149, 5.96126 16.4894, 5.79409 16.2569, 5.73111 16.0182, 5.51756 16.2815, 5.23131 16.5197, 4.87292 16.7332, 4.51453 16.9468, 4.09889 17.0533, 3.62714 17.0533, 3.20005 17.0533, 2.81761 16.9743, 2.48097 16.8151, 2.14434 16.6571, 1.87869 16.4126, 1.68347 16.0823, 1.49511 15.7285, 1.40408 15.338, 1.40981 14.9098 L 1.40981 14.8365 C 1.4224 14.3911, 1.47908 13.9486, 1.57984 13.5083, 1.6806 13.0875, 1.82717 12.6238, 2.01896 12.1165, 2.21075 11.6099, 2.39452 11.1181, 2.57029 10.6412, 2.75921 10.1351, 2.85368 9.71943, 2.85368 9.39539, 2.85368 9.12116, 2.73746 8.98375, 2.50445 8.98318, 2.2909 8.98375, 2.09739 9.04501, 1.92449 9.16696, 1.7516 9.28947, 1.59416 9.45894, 1.45275 9.67535, 1.31134 9.89233, 1.18367 10.1488, 1.07031 10.4448, 0.956953 10.7414, 0.863061 11.0568, 0.78749 11.3923, 0.718216 11.5578, 0.601997 11.6431, 0.438259 11.6488 L 0.221278 11.6488 C 0.0701351 11.6494, -0.00543621 11.5732, -0.00543621 11.4198 L -0.00543621 11.3557 C 0.0827303 11.0202, 0.199522 10.6772, 0.343795 10.3257, 0.48864 9.97477, 0.67127 9.65588, 0.891114 9.36848, 1.11153 9.08165, 1.36343 8.84349, 1.64625 8.65399, 1.92907 8.46506, 2.25311 8.37002, 2.6178 8.36945, 2.93268 8.37002, 3.20119 8.43758, 3.42447 8.57155, 3.64775 8.70609, 3.81778 8.88471, 3.934 9.10742, 4.0508 9.33069, 4.11492 9.58203, 4.12751 9.86256 L 4.12751 9.92668 C 4.12751 10.19, 4.07427 10.4614, 3.96664 10.7419, 3.78458 11.2188, 3.60424 11.706, 3.42447 12.2035, 3.24527 12.7016, 3.10558 13.1488, 3.00482 13.5455, 2.90406 13.9428, 2.83478 14.3361, 2.797 14.7266, 2.77181 14.8308, 2.75635 14.9442, 2.75005 15.0655, 2.75005 15.3043, 2.79127 15.5396, 2.87257 15.7709, 2.92925 15.9792, 3.03287 16.1441, 3.18402 16.2661, 3.33516 16.3886, 3.51435 16.4493, 3.7216 16.4487, 4.13724 16.4493, 4.49907 16.3245, 4.80708 16.0737, 5.11509 15.8235, 5.38532 15.4903, 5.61775 15.0747, 5.63035 15.0266, 5.64008 14.9699, 5.64638 14.9058, 5.65268 14.8417, 5.66184 14.7758, 5.67443 14.7083 L 7.08968 9.24883 C 7.14693 9.02326, 7.26143 8.85723, 7.43433 8.75017, 7.60723 8.64368, 7.78184 8.58987, 7.9576 8.58929, 8.14023 8.58987, 8.29137 8.64483, 8.41103 8.75418, 8.4929 8.83433, 8.53355 8.94081, 8.53355 9.07478, 8.53355 9.14234, 8.52725 9.21276, 8.51465 9.28547 L 7.09941 14.7449 C 6.99865 15.1239, 6.94827 15.46, 6.94827 15.7525, 6.94827 15.8327, 6.95456 15.918, 6.96716 16.009, 6.99865 16.3027, 7.14636 16.4493, 7.41085 16.4487, 7.67535 16.4493, 7.90321 16.2237, 8.095 15.7714, 8.28679 15.3197, 8.474 14.7392, 8.65606 14.0304, 8.69385 13.8724, 8.80091 13.7928, 8.97667 13.7923 L 9.19365 13.7923 C 9.2635 13.7928, 9.33277 13.814, 9.40147 13.8564, 9.42666 13.9119, 9.43926 13.9577, 9.43926 13.9938, 9.43926 14.019, 9.4301 14.0493, 9.41063 14.0854 Z" stroke="none" fill="#000000" />
			<path d="M 1.84803 1.37096 L 1.84803 2.41229 C 1.84803 2.47416, 1.85957 2.53155, 1.88265 2.58445, 1.90574 2.63767, 1.94357 2.67262, 1.99615 2.68929, 2.07726 2.72712, 2.20935 2.74796, 2.39242 2.75117, 2.57548 2.75469, 2.76015 2.7563, 2.94674 2.75598 L 2.94674 3.19713 C 2.40813 3.17661, 1.88009 3.16635, 1.36199 3.16635, 0.851588 3.16635, 0.314573 3.17661, -0.249051 3.19713 L -0.249051 2.75598 C -0.0554054 2.7563, 0.131508 2.75469, 0.311047 2.75117, 0.490586 2.74796, 0.624599 2.72712, 0.712445 2.68929, 0.765345 2.67262, 0.804138 2.63767, 0.828825 2.58445, 0.853511 2.53155, 0.865694 2.47416, 0.865694 2.41229 L 0.865694 1.37096, -2.14543 1.37096, -2.14543 0.955456, 1.38315 -4.29221 C 1.42932 -4.35345, 1.48735 -4.38423, 1.55756 -4.38455 L 1.67394 -4.38455 C 1.79 -4.38423, 1.84803 -4.3262, 1.84803 -4.21014 L 1.84803 0.919548, 2.98393 0.919548, 2.98393 1.37096 Z M 0.918273 -2.94311 L -1.68055 0.919548, 0.918273 0.919548 Z" stroke="none" fill="#000000" transform="matrix(1.12 0 0 1 12.5682 16.3063)" />
			<rect />
		</svg>
	</g>
</svg>
