<?xml version="1.0"?>
<svg xmlns="http://www.w3.org/2000/svg" xmlns:xlink="http://www.w3.org/1999/xlink" width="545.521118" height="174.190201">
	<defs>
		<marker id="CustomMarker-01" markerUnits="strokeWidth" markerWidth="8.25" markerHeight="13.5" viewBox="-8.25 -6.75 8.25 13.5" orient="auto-start-reverse">
			<path d="M -5.5 -4.5 L 0 -0, -5.5 4.5" fill="none" stroke="#000000" stroke-linejoin="round" />
		</marker>
		<marker id="CustomMarker-02" markerUnits="strokeWidth" markerWidth="8.25" markerHeight="13.5" viewBox="-8.25 -6.75 8.25 13.5" orient="auto-start-reverse">
			<path d="M -5.5 -4.5 L 0 -0, -5.5 4.5" fill="none" stroke="#000000" stroke-linejoin="round" />
		</marker>
		<marker id="CustomMarker-03" markerUnits="strokeWidth" markerWidth="9" markerHeight="6" viewBox="-9 -3 9 6" orient="auto-start-reverse">
			<path d="M 0 -0 L -6 -2, -6 -0.5, -6 0.5, -6 2 Z" fill="#0080FF" stroke="#0080FF" stroke-linejoin="round" />
		</marker>
		<marker id="CustomMarker-04" markerUnits="strokeWidth" markerWidth="9" markerHeight="6" viewBox="-9 -3 9 6" orient="auto-start-reverse">
			<path d="M 0 -0 L -6 -2, -6 -0.5, -6 0.5, -6 2 Z" fill="#0080FF" stroke="#0080FF" stroke-linejoin="round" />
		</marker>
	</defs>
	<rect x="-7.57745361" y="-45.0150757" width="15.1549072" height="90.0301514" stroke="none" fill="#E60000" fill-opacity="0.152941167" transform="matrix(1 0 -0 1 210.503 87.3098)" />
	<g transform="matrix(1 0 -0 1 206.941 76.1024)">
		<svg width="27.0562763" height="45.0428467">
			<defs />
			<path d="M 7.12374 6.04277 C 7.12374 6.42807, 7.03443 6.79791, 6.85523 7.15172, 6.67604 7.5061, 6.40696 7.79007, 6.04857 8.00304, 5.32491 8.47365, 4.73981 9.06619, 4.29325 9.78069, 3.84669 10.4952, 3.62342 11.2675, 3.62342 12.0976 L 3.62342 13.0411 C 3.62342 13.2129, 3.52952 13.2982, 3.3406 13.2976 L 3.21808 13.2976 C 3.04175 13.2982, 2.95358 13.2129, 2.95358 13.0411 L 2.95358 12.0976 C 2.95358 11.2492, 3.10644 10.4311, 3.41159 9.64328, 3.71673 8.85551, 4.18047 8.15934, 4.80279 7.55419, 4.99801 7.36527, 5.13198 7.1397, 5.20411 6.87692, 5.27625 6.61471, 5.31232 6.33647, 5.31232 6.04277, 5.31232 5.7256, 5.29514 5.43763, 5.26079 5.17771, 5.22644 4.91836, 5.12396 4.7031, 4.95393 4.53134, 4.74668 4.33039, 4.49821 4.19299, 4.20852 4.11971, 3.9194 4.04643, 3.61139 4.00979, 3.28392 4.00921, 2.75606 4.00979, 2.27 4.11856, 1.82631 4.33497, 1.38318 4.55195, 1.09235 4.7947, 0.953802 5.06263, 0.897124 5.07523, 0.906284 5.08152, 0.981855 5.08095, 1.18338 5.08152, 1.37517 5.13935, 1.55723 5.255, 1.81543 5.42675, 1.94424 5.68896, 1.94424 6.04277, 1.94424 6.36108, 1.8452 6.59925, 1.64711 6.75783, 1.44902 6.91699, 1.22116 6.996, 0.962963 6.99543, 0.717928 6.996, 0.495795 6.91699, 0.297706 6.75783, 0.0996178 6.59925, 0.000573695 6.36108, 0.000573695 6.04277, 0.000573695 5.64029, 0.0933203 5.27561, 0.278813 4.9487, 0.464307 4.62237, 0.709913 4.34299, 1.01506 4.11055, 1.32021 3.87868, 1.66772 3.70178, 2.0576 3.57926, 2.44748 3.45731, 2.85625 3.39606, 3.28392 3.39548, 3.75567 3.39606, 4.23085 3.43899, 4.70889 3.5243, 5.18694 3.61018, 5.63636 3.79281, 6.05773 4.07333, 6.4041 4.29375, 6.66859 4.57943, 6.85065 4.93038, 7.03271 5.2819, 7.12374 5.65232, 7.12374 6.04277 Z M 4.39745 15.7342 C 4.39745 16.0399, 4.28924 16.2981, 4.07226 16.5088, 3.85528 16.7195, 3.5925 16.8243, 3.28392 16.8243, 2.97591 16.8243, 2.71198 16.7195, 2.49156 16.5088, 2.27172 16.2981, 2.16123 16.0399, 2.16123 15.7342, 2.16123 15.4354, 2.27172 15.1806, 2.49156 14.9699, 2.71198 14.7592, 2.97591 14.6539, 3.28392 14.6533, 3.5925 14.6539, 3.85528 14.7592, 4.07226 14.9699, 4.28924 15.1806, 4.39745 15.4354, 4.39745 15.7342 Z" stroke="none" fill="#E60000" />
			<rect />
		</svg>
	</g>
	<path d="M -33.6862 0 L 33.6862 0" fill="none" stroke="#000000" stroke-width="1.60000002" stroke-linecap="round" stroke-linejoin="round" transform="matrix(1 0 0 1 244.189 42.2949)" />
	<path d="M 8.70392 0 L -8.70367 0" fill="none" stroke="#000000" stroke-width="1.33333337" stroke-linecap="round" stroke-linejoin="round" marker-start="url(#CustomMarker-01)" transform="matrix(1 0 0 1 240.505 42.2949)" />
	<ellipse cx="425.74237060546875" cy="488.19976806640625" rx="4" ry="4" stroke="none" fill="#000000" transform="matrix(1 0 0 1 -215.239 -445.905)" />
	<ellipse cx="425.74238085746765" cy="488.19977831840515" rx="2.6666667461395264" ry="2.6666667461395264" stroke="none" fill="#FFFFFF" transform="matrix(1 0 0 1 -215.239 -445.905)" />
	<g transform="matrix(1 0 -0 1 184.393 75.9088)">
		<svg width="32.9738617" height="32.9571342">
			<defs />
			<path d="M 9.41235 14.0854 C 9.34365 14.3671, 9.26178 14.6785, 9.16732 15.0203, 9.07285 15.3627, 8.9469 15.6798, 8.79003 15.973, 8.63316 16.2661, 8.43507 16.5197, 8.19577 16.7332, 7.95646 16.9468, 7.65761 17.0533, 7.29922 17.0533, 6.85953 17.0533, 6.504 16.9405, 6.23378 16.7149, 5.96355 16.4894, 5.79638 16.2569, 5.7334 16.0182, 5.51986 16.2815, 5.2336 16.5197, 4.87521 16.7332, 4.51682 16.9468, 4.10175 17.0533, 3.63 17.0533, 3.20234 17.0533, 2.82047 16.9743, 2.48384 16.8151, 2.1472 16.6571, 1.88156 16.4126, 1.6869 16.0823, 1.49798 15.7285, 1.40695 15.338, 1.41324 14.9098 L 1.41324 14.8365 C 1.42584 14.3911, 1.48252 13.9486, 1.58271 13.5083, 1.68347 13.0875, 1.83003 12.6238, 2.02182 12.1165, 2.21361 11.6099, 2.39739 11.1181, 2.57315 10.6412, 2.76208 10.1351, 2.85654 9.71943, 2.85654 9.39539, 2.85654 9.12116, 2.74032 8.98375, 2.50731 8.98318, 2.29376 8.98375, 2.10026 9.04501, 1.92736 9.16696, 1.75446 9.28947, 1.59759 9.45894, 1.45561 9.67535, 1.3142 9.89233, 1.1871 10.1488, 1.07375 10.4448, 0.960389 10.7414, 0.865925 11.0568, 0.790353 11.3923, 0.721652 11.5578, 0.605433 11.6431, 0.441695 11.6488 L 0.224714 11.6488 C 0.0735712 11.6494, -0.00200012 11.5732, -0.00200012 11.4198 L -0.00200012 11.3557 C 0.0861664 11.0202, 0.202958 10.6772, 0.347231 10.3257, 0.492076 9.97477, 0.674706 9.65588, 0.89455 9.36848, 1.11439 9.08165, 1.3663 8.84349, 1.64912 8.65399, 1.93194 8.46506, 2.25598 8.37002, 2.62067 8.36945, 2.93555 8.37002, 3.20405 8.43758, 3.42733 8.57155, 3.65061 8.70609, 3.82007 8.88471, 3.93629 9.10742, 4.05309 9.33069, 4.11721 9.58203, 4.1298 9.86256 L 4.1298 9.92668 C 4.1298 10.19, 4.07656 10.4614, 3.9695 10.7419, 3.78744 11.2188, 3.60653 11.706, 3.42733 12.2035, 3.24814 12.7016, 3.10845 13.1488, 3.00768 13.5455, 2.90692 13.9428, 2.83765 14.3361, 2.79986 14.7266, 2.77467 14.8308, 2.75921 14.9442, 2.75234 15.0655, 2.75234 15.3043, 2.79356 15.5396, 2.87543 15.7709, 2.93211 15.9792, 3.03574 16.1441, 3.18688 16.2661, 3.33802 16.3886, 3.51722 16.4493, 3.72447 16.4487, 4.13953 16.4493, 4.50136 16.3245, 4.80937 16.0737, 5.11738 15.8235, 5.38761 15.4903, 5.62005 15.0747, 5.63264 15.0266, 5.64237 14.9699, 5.64867 14.9058, 5.65497 14.8417, 5.66413 14.7758, 5.67672 14.7083 L 7.09197 9.24883 C 7.14865 9.02326, 7.26315 8.85723, 7.43605 8.75017, 7.60894 8.64368, 7.78356 8.58987, 7.95932 8.58929, 8.14195 8.58987, 8.29309 8.64483, 8.41218 8.75418, 8.49462 8.83433, 8.53526 8.94081, 8.53526 9.07478, 8.53526 9.14234, 8.52897 9.21276, 8.51637 9.28547 L 7.10113 14.7449 C 7.00037 15.1239, 6.94999 15.46, 6.94999 15.7525, 6.94999 15.8327, 6.95628 15.918, 6.96888 16.009, 7.00094 16.3027, 7.14865 16.4493, 7.41257 16.4487, 7.67707 16.4493, 7.90493 16.2237, 8.09672 15.7714, 8.28851 15.3197, 8.47572 14.7392, 8.65778 14.0304, 8.69557 13.8724, 8.80263 13.7928, 8.97839 13.7923 L 9.19537 13.7923 C 9.26464 13.7928, 9.33392 13.814, 9.40262 13.8564, 9.42781 13.9119, 9.4404 13.9577, 9.4404 13.9938, 9.4404 14.019, 9.43124 14.0493, 9.41235 14.0854 Z" stroke="none" fill="#000000" />
			<rect />
		</svg>
	</g>
	<g transform="matrix(1 0 -0 1 183.487 32.6885)">
		<svg width="119.936646" height="119.999977">
			<defs />
			<polyline points="-5.628 0 5.628 0" fill="none" stroke="#000000" stroke-width="0.64319998" stroke-linecap="round" stroke-linejoin="round" transform="matrix(1 0 0 1 5.628 9.60638)" />
			<polyline points="0 -5.628 0 5.628" fill="none" stroke="#000000" stroke-width="0.64319998" stroke-linecap="round" stroke-linejoin="round" transform="matrix(1 0 0 1 5.628 9.60638)" />
			<rect />
		</svg>
	</g>
	<path d="M -33.2311 -64.5935 L 33.2311 -64.5935, 33.2311 64.5935, -33.2311 64.5935 Z" fill="none" stroke="#000000" stroke-width="1.33333337" stroke-linecap="round" stroke-linejoin="round" transform="matrix(1 0 -0 1 311.106 87.1163)" />
	<g transform="matrix(1 0 -0 1 303.474 74.3078)">
		<svg width="50.9839096" height="51.0856972">
			<defs />
			<path d="M 15.2625 5.23102 C 14.9033 5.23168, 14.58 5.24934, 14.2921 5.28402, 14.0049 5.31935, 13.7465 5.40965, 13.5161 5.55556, 13.3434 5.6537, 13.2125 5.78849, 13.1229 5.95926, 13.0333 6.13068, 12.9881 6.30996, 12.9881 6.49774 L 12.9881 18.8823 C 12.9881 19.1132, 12.873 19.2277, 12.6427 19.2277 L 12.5138 19.2277 C 12.3914 19.2277, 12.2946 19.1793, 12.2226 19.0812 L 3.05917 5.95337 C 3.00159 5.87027, 3.01599 5.87027, 3.10235 5.95337 L 3.10235 17.1026 C 3.10235 17.4939, 3.27836 17.8046, 3.63037 18.0343, 3.86788 18.1815, 4.12829 18.2725, 4.41226 18.3071, 4.69622 18.3425, 5.01748 18.3595, 5.37669 18.3588 L 5.37669 19.2382 C 4.45021 19.1898, 3.55186 19.1649, 2.68164 19.1649, 1.82648 19.1649, 0.931397 19.1898, -0.00293851 19.2382 L -0.00293851 18.3588 C 0.356925 18.3595, 0.678185 18.3405, 0.962149 18.3019, 1.24611 18.264, 1.50652 18.1743, 1.74338 18.0343, 2.08885 17.8118, 2.26485 17.5011, 2.27205 17.1026 L 2.27205 5.37759 C 2.27925 5.37824, 2.26813 5.36777, 2.23934 5.34618, 2.00968 5.28402, 1.68842 5.24934, 1.2749 5.24215, 0.861388 5.2356, 0.43544 5.23168, -0.00293851 5.23102 L -0.00293851 4.37259, 4.17998 4.37259 C 4.30233 4.37324, 4.39917 4.42231, 4.47114 4.51915 L 12.1578 15.5427, 12.1578 6.49774 C 12.1578 6.30996, 12.1133 6.13199, 12.023 5.96449, 11.9334 5.79699, 11.8058 5.65763, 11.6403 5.54509, 11.4034 5.39918, 11.141 5.31019, 10.8532 5.27879, 10.5659 5.24738, 10.2427 5.23168, 9.88283 5.23102 L 9.88283 4.37259 C 10.825 4.40138, 11.7234 4.41512, 12.5779 4.41446, 13.4481 4.41512, 14.3425 4.40138, 15.2625 4.37259 L 15.2625 5.23102 Z" stroke="none" fill="#000000" />
			<rect />
		</svg>
	</g>
	<path d="M -33.6862 0 L 33.6862 0" fill="none" stroke="#000000" stroke-width="1.60000002" stroke-linecap="round" stroke-linejoin="round" transform="matrix(1 0 0 1 244.189 132.325)" />
	<path d="M -8.7037 0 L 8.70389 0" fill="none" stroke="#000000" stroke-width="1.33333337" stroke-linecap="round" stroke-linejoin="round" marker-start="url(#CustomMarker-02)" transform="matrix(1 0 0 1 249.208 132.325)" />
	<ellipse cx="425.74237060546875" cy="578.22991943359375" rx="4" ry="4" stroke="none" fill="#000000" transform="matrix(1 0 0 1 -215.239 -445.905)" />
	<ellipse cx="425.74238085746765" cy="578.22989916801453" rx="2.6666667461395264" ry="2.6666667461395264" stroke="none" fill="#FFFFFF" transform="matrix(1 0 0 1 -215.239 -445.905)" />
	<g transform="matrix(1 0 -0 1 183.487 122.719)">
		<svg width="119.936646" height="83.9999847">
			<defs />
			<polyline points="-5.628 0 5.628 0" fill="none" stroke="#000000" stroke-width="0.64319998" stroke-linecap="round" stroke-linejoin="round" transform="matrix(1 0 0 1 5.628 9.60638)" />
			<rect />
		</svg>
	</g>
	<g transform="matrix(1 0 -0 1 241.689 9.00001)">
		<svg width="18.0512524" height="45.0428467">
			<defs />
			<path d="M 4.85632 5.20004 C 4.79964 5.43248, 4.66911 5.62656, 4.46472 5.78228, 4.26033 5.938, 4.03877 6.01586, 3.79946 6.01529, 3.54813 6.01586, 3.35634 5.93056, 3.22409 5.75881, 3.1365 5.66148, 3.08955 5.5424, 3.08268 5.40156, 3.08268 5.31683, 3.09528 5.23095, 3.12047 5.14507, 3.17715 4.91378, 3.3094 4.7197, 3.51664 4.56398, 3.72447 4.40825, 3.94774 4.33039, 4.18648 4.32982, 4.43839 4.33039, 4.63018 4.41284, 4.76185 4.57715, 4.85002 4.69394, 4.8941 4.81874, 4.8941 4.95271, 4.8941 5.03859, 4.88151 5.12103, 4.85632 5.20004 Z M 4.95994 14.0854 C 4.89124 14.4037, 4.78418 14.738, 4.63934 15.089, 4.49506 15.4405, 4.31701 15.7594, 4.10633 16.0462, 3.89565 16.3336, 3.64889 16.5729, 3.36607 16.7647, 3.08325 16.9571, 2.75578 17.0533, 2.38479 17.0533, 2.07048 17.0533, 1.80026 16.9863, 1.57355 16.8518, 1.3474 16.7178, 1.17279 16.5409, 1.05027 16.321, 0.927755 16.1012, 0.865924 15.8567, 0.865924 15.5877, 0.853329 15.5762, 0.847031 15.5516, 0.847031 15.5144, 0.847031 15.2401, 0.907145 14.959, 1.02623 14.6716 L 2.55426 10.6412 C 2.74318 10.1351, 2.83765 9.71943, 2.83765 9.39539, 2.83765 9.12116, 2.72143 8.98375, 2.48842 8.98318, 2.27487 8.98375, 2.08308 9.04501, 1.91304 9.16696, 1.74358 9.28947, 1.58786 9.45894, 1.44645 9.67535, 1.30504 9.89233, 1.17794 10.1488, 1.06459 10.4448, 0.951228 10.7414, 0.856764 11.0568, 0.781193 11.3923, 0.712492 11.5578, 0.5957 11.6431, 0.431962 11.6488 L 0.224713 11.6488 C 0.0735708 11.6494, -0.00200051 11.5732, -0.00200051 11.4198 L -0.00200051 11.3557 C 0.0735708 11.0202, 0.186928 10.6772, 0.33807 10.3257, 0.489213 9.97477, 0.671271 9.65588, 0.884817 9.36848, 1.09894 9.08165, 1.3474 8.84349, 1.63022 8.65399, 1.91304 8.46506, 2.23709 8.37002, 2.60177 8.36945, 2.91665 8.37002, 3.18402 8.43758, 3.40386 8.57155, 3.6237 8.70609, 3.79202 8.88471, 3.90824 9.10742, 4.02503 9.33069, 4.08915 9.58203, 4.10175 9.86256 L 4.10175 9.92668 C 4.10175 10.19, 4.04851 10.4614, 3.94087 10.7419 L 2.41285 14.7907 C 2.23709 15.2859, 2.14892 15.7073, 2.14892 16.0548, 2.13632 16.0674, 2.13003 16.0674, 2.13003 16.0548, 2.13003 16.3182, 2.24968 16.4493, 2.48842 16.4487, 2.70254 16.4493, 2.89547 16.3852, 3.06837 16.2569, 3.24127 16.1287, 3.39871 15.9581, 3.54012 15.7439, 3.6821 15.5304, 3.80633 15.2739, 3.91282 14.9745, 4.01988 14.6756, 4.11721 14.3608, 4.20537 14.0304, 4.24316 13.8724, 4.35308 13.7928, 4.53514 13.7923 L 4.74296 13.7923 C 4.81223 13.7928, 4.88151 13.814, 4.95021 13.8564, 4.96967 13.9056, 4.98513 13.9486, 4.99773 13.9846, 4.99773 14.0218, 4.98513 14.0556, 4.95994 14.0854 Z" stroke="none" fill="#000000" />
			<rect />
		</svg>
	</g>
	<g transform="matrix(1 0 -0 1 241.689 142.775)">
		<svg width="18.0512524" height="45.0428467">
			<defs />
			<path d="M 4.85632 5.20004 C 4.79964 5.43248, 4.66911 5.62656, 4.46472 5.78228, 4.26033 5.938, 4.03877 6.01586, 3.79946 6.01529, 3.54813 6.01586, 3.35634 5.93056, 3.22409 5.75881, 3.1365 5.66148, 3.08955 5.5424, 3.08268 5.40156, 3.08268 5.31683, 3.09528 5.23095, 3.12047 5.14507, 3.17715 4.91378, 3.3094 4.7197, 3.51664 4.56398, 3.72447 4.40825, 3.94774 4.33039, 4.18648 4.32982, 4.43839 4.33039, 4.63018 4.41284, 4.76185 4.57715, 4.85002 4.69394, 4.8941 4.81874, 4.8941 4.95271, 4.8941 5.03859, 4.88151 5.12103, 4.85632 5.20004 Z M 4.95994 14.0854 C 4.89124 14.4037, 4.78418 14.738, 4.63934 15.089, 4.49506 15.4405, 4.31701 15.7594, 4.10633 16.0462, 3.89565 16.3336, 3.64889 16.5729, 3.36607 16.7647, 3.08325 16.9571, 2.75578 17.0533, 2.38479 17.0533, 2.07048 17.0533, 1.80026 16.9863, 1.57355 16.8518, 1.3474 16.7178, 1.17279 16.5409, 1.05027 16.321, 0.927755 16.1012, 0.865924 15.8567, 0.865924 15.5877, 0.853329 15.5762, 0.847031 15.5516, 0.847031 15.5144, 0.847031 15.2401, 0.907145 14.959, 1.02623 14.6716 L 2.55426 10.6412 C 2.74318 10.1351, 2.83765 9.71943, 2.83765 9.39539, 2.83765 9.12116, 2.72143 8.98375, 2.48842 8.98318, 2.27487 8.98375, 2.08308 9.04501, 1.91304 9.16696, 1.74358 9.28947, 1.58786 9.45894, 1.44645 9.67535, 1.30504 9.89233, 1.17794 10.1488, 1.06459 10.4448, 0.951228 10.7414, 0.856764 11.0568, 0.781193 11.3923, 0.712492 11.5578, 0.5957 11.6431, 0.431962 11.6488 L 0.224713 11.6488 C 0.0735708 11.6494, -0.00200051 11.5732, -0.00200051 11.4198 L -0.00200051 11.3557 C 0.0735708 11.0202, 0.186928 10.6772, 0.33807 10.3257, 0.489213 9.97477, 0.671271 9.65588, 0.884817 9.36848, 1.09894 9.08165, 1.3474 8.84349, 1.63022 8.65399, 1.91304 8.46506, 2.23709 8.37002, 2.60177 8.36945, 2.91665 8.37002, 3.18402 8.43758, 3.40386 8.57155, 3.6237 8.70609, 3.79202 8.88471, 3.90824 9.10742, 4.02503 9.33069, 4.08915 9.58203, 4.10175 9.86256 L 4.10175 9.92668 C 4.10175 10.19, 4.04851 10.4614, 3.94087 10.7419 L 2.41285 14.7907 C 2.23709 15.2859, 2.14892 15.7073, 2.14892 16.0548, 2.13632 16.0674, 2.13003 16.0674, 2.13003 16.0548, 2.13003 16.3182, 2.24968 16.4493, 2.48842 16.4487, 2.70254 16.4493, 2.89547 16.3852, 3.06837 16.2569, 3.24127 16.1287, 3.39871 15.9581, 3.54012 15.7439, 3.6821 15.5304, 3.80633 15.2739, 3.91282 14.9745, 4.01988 14.6756, 4.11721 14.3608, 4.20537 14.0304, 4.24316 13.8724, 4.35308 13.7928, 4.53514 13.7923 L 4.74296 13.7923 C 4.81223 13.7928, 4.88151 13.814, 4.95021 13.8564, 4.96967 13.9056, 4.98513 13.9486, 4.99773 13.9846, 4.99773 14.0218, 4.98513 14.0556, 4.95994 14.0854 Z" stroke="none" fill="#000000" />
			<rect />
		</svg>
	</g>
	<path d="M 0 -27.1105 L 0 27.1107" fill="none" stroke="#0080FF" stroke-width="2.66666675" stroke-linecap="round" stroke-linejoin="round" marker-end="url(#CustomMarker-03)" transform="matrix(1 0 0 1 376.469 94.8287)" />
	<path d="M 0 -27.1105 L 0 27.1107" fill="none" stroke="#0080FF" stroke-width="2.66666675" stroke-linecap="round" stroke-linejoin="round" marker-end="url(#CustomMarker-04)" transform="matrix(1 0 0 1 402.782 94.8287)" />
	<g transform="matrix(1 0 -0 1 371.072 40.1876)">
		<svg width="36.0612984" height="36.0428467">
			<defs />
			<path d="M 10.755 16.0976 C 10.6765 16.4195, 10.5829 16.7754, 10.475 17.1661, 10.3677 17.5573, 10.2237 17.9198, 10.0438 18.2548, 9.86451 18.5898, 9.63812 18.8797, 9.36463 19.1237, 9.09113 19.3678, 8.74959 19.4895, 8.34 19.4895, 7.83684 19.4895, 7.43052 19.3606, 7.1217 19.1028, 6.81287 18.845, 6.62181 18.5793, 6.54984 18.3065, 6.30579 18.6075, 5.97864 18.8797, 5.56905 19.1237, 5.15946 19.3678, 4.68444 19.4895, 4.1453 19.4895, 3.65719 19.4895, 3.22012 19.3992, 2.8354 19.2173, 2.45067 19.0367, 2.14708 18.7573, 1.92396 18.3798, 1.7087 17.9754, 1.60467 17.5292, 1.61121 17.0398 L 1.61121 16.956 C 1.6256 16.447, 1.69038 15.9412, 1.80553 15.4381, 1.92069 14.9571, 2.08819 14.4272, 2.30738 13.8475, 2.52657 13.2684, 2.7366 12.7064, 2.93747 12.1613, 3.15339 11.5829, 3.26135 11.1079, 3.26135 10.7376, 3.26135 10.4242, 3.12852 10.2671, 2.86222 10.2665, 2.61817 10.2671, 2.39702 10.3372, 2.19942 10.4765, 2.00182 10.6165, 1.82189 10.8102, 1.66028 11.0575, 1.49867 11.3055, 1.35276 11.5986, 1.22321 11.9369, 1.09366 12.2758, 0.986355 12.6364, 0.899988 13.0198, 0.820818 13.2089, 0.687996 13.3064, 0.500867 13.3129 L 0.252888 13.3129 C 0.0801538 13.3136, -0.0062134 13.2265, -0.0062134 13.0512 L -0.0062134 12.9779 C 0.0945483 12.5945, 0.228025 12.2026, 0.392908 11.8008, 0.558445 11.3997, 0.767165 11.0353, 1.01842 10.7068, 1.27032 10.379, 1.55821 10.1068, 1.88143 9.89027, 2.20466 9.67436, 2.57499 9.56574, 2.99177 9.56509, 3.35164 9.56574, 3.6585 9.64295, 3.91368 9.79605, 4.16885 9.94981, 4.36318 10.154, 4.496 10.4085, 4.62948 10.6637, 4.70276 10.9509, 4.71716 11.2715 L 4.71716 11.3448 C 4.71716 11.6458, 4.65631 11.9559, 4.5333 12.2765, 4.32523 12.8215, 4.11913 13.3783, 3.91368 13.9469, 3.70888 14.5162, 3.54924 15.0272, 3.43408 15.4806, 3.31892 15.9347, 3.23975 16.3842, 3.19657 16.8304, 3.16778 16.9495, 3.15011 17.079, 3.14292 17.2177, 3.14292 17.4906, 3.19003 17.7595, 3.28294 18.0238, 3.34771 18.262, 3.46614 18.4504, 3.63887 18.5898, 3.81161 18.7298, 4.0164 18.7992, 4.25326 18.7985, 4.72828 18.7992, 5.14179 18.6565, 5.49381 18.37, 5.84582 18.084, 6.15465 17.7032, 6.42029 17.2282, 6.43468 17.1733, 6.44581 17.1085, 6.45301 17.0352, 6.4602 16.9619, 6.47067 16.8867, 6.48507 16.8095 L 8.10249 10.5701 C 8.16792 10.3123, 8.29878 10.1225, 8.49637 10.0002, 8.69397 9.8785, 8.89353 9.81699, 9.0944 9.81634, 9.30312 9.81699, 9.47586 9.87981, 9.61261 10.0048, 9.70617 10.0964, 9.75262 10.2181, 9.75262 10.3712, 9.75262 10.4484, 9.74543 10.5289, 9.73103 10.612 L 8.11361 16.8513 C 7.99845 17.2845, 7.94088 17.6686, 7.94088 18.0029, 7.94088 18.0945, 7.94807 18.192, 7.96247 18.296, 7.99845 18.6317, 8.16726 18.7992, 8.46955 18.7985, 8.77183 18.7992, 9.03224 18.5414, 9.25143 18.0245, 9.47062 17.5083, 9.68458 16.8448, 9.89264 16.0348, 9.93583 15.8542, 10.0582 15.7632, 10.2591 15.7626 L 10.507 15.7626 C 10.5869 15.7632, 10.666 15.7875, 10.7445 15.8359, 10.7733 15.8993, 10.7877 15.9517, 10.7877 15.9929, 10.7877 16.0217, 10.7773 16.0564, 10.755 16.0976 Z" stroke="none" fill="#0080FF" />
			<rect />
		</svg>
	</g>
	<g transform="matrix(1 0 -0 1 399.925 40.7431)">
		<svg width="21.010046" height="47.9999886">
			<defs />
			<path d="M 5.54942 5.9429 C 5.48464 6.20855, 5.33546 6.43035, 5.10188 6.60832, 4.8683 6.78629, 4.61508 6.87527, 4.34159 6.87462, 4.05435 6.87527, 3.83516 6.77778, 3.68402 6.58149, 3.58326 6.47026, 3.52961 6.33417, 3.52175 6.17321, 3.52175 6.07638, 3.53615 5.97823, 3.56494 5.88009, 3.63037 5.61575, 3.78151 5.39395, 4.01836 5.21598, 4.25522 5.03801, 4.5104 4.94902, 4.78389 4.94837, 5.07178 4.94902, 5.29097 5.04324, 5.44146 5.23103, 5.54222 5.3645, 5.5926 5.50714, 5.5926 5.66024, 5.5926 5.75839, 5.57821 5.85261, 5.54942 5.9429 Z M 5.66785 16.0976 C 5.58933 16.4614, 5.46698 16.8435, 5.30144 17.2446, 5.13656 17.6463, 4.93307 18.0108, 4.69229 18.3386, 4.45151 18.667, 4.16885 18.9405, 3.84563 19.1597, 3.52241 19.3795, 3.14815 19.4895, 2.72417 19.4895, 2.36496 19.4895, 2.05613 19.4129, 1.79703 19.2592, 1.53793 19.106, 1.33836 18.9039, 1.19835 18.6526, 1.05833 18.4014, 0.988316 18.122, 0.988316 17.8145, 0.973922 17.8014, 0.966724 17.7732, 0.966724 17.7307, 0.966724 17.4173, 1.03543 17.096, 1.17152 16.7676 L 2.91849 12.1613 C 3.13441 11.5829, 3.24171 11.1079, 3.24171 10.7376, 3.24171 10.4242, 3.10889 10.2671, 2.84259 10.2665, 2.59854 10.2671, 2.37935 10.3372, 2.18502 10.4765, 1.99135 10.6165, 1.81338 10.8102, 1.65112 11.0575, 1.48951 11.3055, 1.34425 11.5986, 1.2147 11.9369, 1.08515 12.2758, 0.977193 12.6364, 0.890826 13.0198, 0.81231 13.2089, 0.679488 13.3064, 0.492359 13.3129 L 0.254849 13.3129 C 0.0821149 13.3136, -0.00425225 13.2265, -0.00425225 13.0512 L -0.00425225 12.9779 C 0.0821149 12.5945, 0.211666 12.2026, 0.3844 11.8008, 0.557134 11.3997, 0.765201 11.0353, 1.00991 10.7068, 1.25461 10.379, 1.53858 10.1068, 1.8618 9.89027, 2.18502 9.67436, 2.55536 9.56574, 2.97214 9.56509, 3.33201 9.56574, 3.63756 9.64295, 3.88881 9.79605, 4.14072 9.94981, 4.33308 10.154, 4.4659 10.4085, 4.59873 10.6637, 4.67201 10.9509, 4.6864 11.2715 L 4.6864 11.3448 C 4.6864 11.6458, 4.62555 11.9559, 4.5032 12.2765 L 2.75623 16.9037 C 2.55536 17.4696, 2.4546 17.9512, 2.4546 18.3484, 2.4402 18.3628, 2.433 18.3628, 2.433 18.3484, 2.433 18.6493, 2.56975 18.7992, 2.84259 18.7985, 3.0873 18.7992, 3.30845 18.7259, 3.50605 18.5793, 3.70365 18.4328, 3.88358 18.2378, 4.04519 17.9931, 4.2068 17.749, 4.34878 17.4559, 4.47114 17.1137, 4.59349 16.7722, 4.70472 16.4123, 4.80548 16.0348, 4.84867 15.8542, 4.97429 15.7632, 5.18236 15.7626 L 5.41987 15.7626 C 5.49904 15.7632, 5.57821 15.7875, 5.65672 15.8359, 5.67897 15.8921, 5.69664 15.9412, 5.71103 15.9824, 5.71103 16.025, 5.69664 16.0636, 5.66785 16.0976 Z" stroke="none" fill="#0080FF" />
			<rect />
		</svg>
	</g>
	<g transform="matrix(1 0 -0 1 421.771 75.9088)">
		<svg width="341.974823" height="60.0856972">
			<defs />
			<path d="M 1.80824 19.1546 C 1.66969 18.9348, 1.44985 18.6296, 1.14756 18.2386, 1.01589 18.0554, 0.911689 17.918, 0.836118 17.8264, 2.51586 17.2287, 3.85553 16.6287, 4.85571 16.027, 5.85588 15.4259, 6.62305 14.7583, 7.15777 14.0249, 7.6673 13.3293, 8.02627 12.4895, 8.23352 11.5059 L 1.10062 11.5059, 1.10062 10.141, 8.46939 10.141 C 8.55126 9.25592, 8.59191 8.16014, 8.59191 6.85253 L 2.07217 6.85253, 2.07217 5.50598, 6.37458 5.50598 C 6.2303 5.32965, 6.01619 5.05771, 5.73279 4.69073, 4.95933 3.70201, 4.37766 2.97206, 3.98778 2.50145 L 5.22326 1.83276 C 6.02878 2.71271, 6.85262 3.69285, 7.69536 4.77317 L 6.41236 5.50598, 10.5923 5.50598 C 11.542 4.34035, 12.4415 3.1003, 13.2905 1.78696 L 14.7527 2.44649 C 14.0548 3.35678, 13.2373 4.377, 12.2995 5.50598 L 16.7341 5.50598, 16.7341 6.85253, 10.1205 6.85253 C 10.0953 8.16014, 10.0547 9.25592, 9.99742 10.141 L 17.7532 10.141, 17.7532 11.5059, 10.2711 11.5059 C 10.9066 13.137, 11.8003 14.4074, 12.951 15.3165, 14.1269 16.2577, 15.8004 17.0026, 17.9702 17.5516, 17.8133 17.7777, 17.59 18.1167, 17.3004 18.5684, 17.1939 18.7458, 17.112 18.8769, 17.0547 18.9623, 14.8597 18.2294, 13.168 17.3718, 11.9789 16.3883, 10.8344 15.4425, 9.95047 14.2024, 9.32758 12.6692, 9.02587 13.6591, 8.5982 14.511, 8.04459 15.2249, 7.45948 15.9766, 6.66713 16.6665, 5.66695 17.2951, 4.68567 17.9123, 3.39982 18.5317, 1.80824 19.1546 Z" stroke="none" fill="#0080FF" />
			<path d="M 24.9015 19.1088 L 24.9015 15.7287, 20.0237 16.6447, 19.8067 15.2799 C 19.9453 15.2621, 20.1502 15.2346, 20.4205 15.198, 20.6907 15.1614, 20.8951 15.131, 21.0336 15.1058 L 21.0336 4.2144, 19.967 4.2144, 19.967 2.98694, 27.2041 2.98694, 27.2041 4.2144, 26.1753 4.2144, 26.1753 14.2448, 27.6381 13.9516, 27.6381 15.2432, 26.1753 15.5089, 26.1753 19.1088 Z M 27.5436 19.1088 C 27.3925 18.9136, 27.0684 18.5168, 26.5715 17.918, 28.0119 16.9539, 29.0751 15.9703, 29.761 14.9684, 30.4468 13.9797, 30.8836 12.7952, 31.072 11.4143 L 27.1474 11.4143, 27.1474 10.1227, 31.1854 10.1227 C 31.1854 10.038, 31.1888 9.90629, 31.1951 9.72882, 31.2014 9.51584, 31.2043 9.35096, 31.2043 9.23417 L 31.2043 6.88917, 27.6759 6.88917, 27.6759 5.59759, 32.2611 5.59759 C 32.9407 4.56592, 33.6546 3.32358, 34.4029 1.8694 L 35.7236 2.42817 C 35.2267 3.25316, 34.5603 4.30944, 33.7233 5.59759 L 36.5635 5.59759, 36.5635 6.88917, 32.6384 6.88917, 32.6384 9.04181 C 32.6384 9.29886, 32.6229 9.65897, 32.5914 10.1227 L 37.1389 10.1227, 37.1389 11.4143, 32.6762 11.4143 C 33.117 13.0024, 33.6701 14.2453, 34.3365 15.1425, 34.9845 16.0104, 35.9693 16.8589, 37.29 17.689, 36.9253 18.1653, 36.6236 18.6021, 36.3843 18.9989, 35.1202 18.0709, 34.1578 17.1674, 33.4972 16.2875, 32.8239 15.3841, 32.3052 14.2848, 31.9405 12.9898, 31.6577 14.2608, 31.1825 15.3566, 30.5155 16.2783, 29.8617 17.1766, 28.8707 18.1195, 27.5436 19.1088 Z M 22.3069 14.8951 C 22.6407 14.8408, 23.1536 14.7555, 23.8452 14.6387, 24.3107 14.5597, 24.6628 14.499, 24.9015 14.4555 L 24.9015 11.854, 22.3069 11.854 Z M 22.3069 10.7181 L 24.9015 10.7181, 24.9015 8.04335, 22.3069 8.04335 Z M 22.3069 6.90749 L 24.9015 6.90749, 24.9015 4.2144, 22.3069 4.2144 Z M 30.0535 5.31362 C 29.5881 4.52642, 28.9875 3.59495, 28.2512 2.51977 L 29.4209 1.90604 C 30.0249 2.74935, 30.6541 3.67166, 31.3079 4.67241 Z" stroke="none" fill="#0080FF" />
			<path d="M 40.9947 19.2645 C 40.8687 18.8924, 40.6867 18.4831, 40.4474 18.0371, 42.9761 17.6403, 45.2501 17.1337, 47.2688 16.5165, 49.2629 15.9005, 51.3542 15.0669, 53.5429 14.0158 L 54.3828 15.0142 C 52.2193 16.1077, 50.1062 16.9814, 48.0428 17.634, 45.9612 18.2999, 43.6116 18.8432, 40.9947 19.2645 Z M 41.8345 16.4157 C 41.7212 16.0928, 41.5294 15.7138, 41.2586 15.2799, 43.228 14.8774, 44.9748 14.4274, 46.4999 13.9293, 48.0251 13.4318, 49.6024 12.798, 51.2317 12.028 L 52.0619 12.9898 C 50.2252 13.8268, 48.5175 14.511, 46.9385 15.0417, 45.3223 15.5856, 43.6208 16.0436, 41.8345 16.4157 Z M 42.5044 13.6494 C 42.3349 13.3019, 42.1242 12.9417, 41.8723 12.5685, 44.4011 11.9645, 46.8669 11.1189, 49.2692 10.0311 L 50.0426 10.9471 C 47.5963 12.1082, 45.0835 13.0087, 42.5044 13.6494 Z M 55.6847 13.4387 C 54.2695 12.841, 53.1061 12.2147, 52.1941 11.5608, 51.2506 10.8899, 50.3735 10.0437, 49.5617 9.02349 L 46.1083 9.02349 C 45.3223 9.87881, 44.4257 10.6299, 43.4193 11.2769, 42.4826 11.8883, 41.2592 12.5295, 39.7495 13.2005, 39.5605 12.8593, 39.3155 12.4683, 39.0132 12.028, 40.1708 11.5643, 41.1555 11.0971, 41.9662 10.6265, 42.7969 10.1508, 43.5458 9.6166, 44.2122 9.02349 L 39.4758 9.02349, 39.4758 7.8693, 45.344 7.8693 C 45.7654 7.36893, 46.1146 6.92008, 46.3917 6.52276 L 47.835 6.85253 C 47.6656 7.09756, 47.4234 7.43649, 47.1085 7.8693 L 56.0815 7.8693, 56.0815 9.02349, 51.1281 9.02349 C 51.8266 9.74485, 52.5937 10.3494, 53.4302 10.8372, 54.2477 11.3261, 55.245 11.7692, 56.4209 12.1654, 56.3706 12.2576, 56.2858 12.4013, 56.1662 12.5959, 55.94 12.9692, 55.7797 13.2498, 55.6847 13.4387 Z M 53.8641 7.06321 L 52.7506 6.193 C 48.0205 6.22391, 44.7561 6.27601, 42.9572 6.34872, 42.4042 6.36761, 41.8695 6.41341, 41.3531 6.48612 L 40.7966 5.23118 C 41.4573 4.96897, 42.02 4.70676, 42.4855 4.44341, 43.8252 3.61957, 45.1087 2.69153, 46.335 1.65872 L 47.9953 2.17169 C 46.6494 3.09457, 45.1179 4.10219, 43.4004 5.19454, 46.9293 5.15847, 49.5651 5.12813, 51.3073 5.10294 L 49.1089 3.54571, 50.0615 2.73046 C 51.8924 3.95849, 53.4834 5.07603, 54.8357 6.08307 Z" stroke="none" fill="#0080FF" />
			<path d="M 65.1826 18.7058 C 65.0509 18.1195, 64.9375 17.6524, 64.8431 17.3043, 66.0511 17.3415, 67.3278 17.3598, 68.6737 17.3592, 69.3785 17.3598, 69.8754 17.2619, 70.1646 17.0661, 70.4416 16.8772, 70.6237 16.5199, 70.7119 15.9944, 70.7685 15.6102, 70.8281 14.9936, 70.8911 14.144 L 62.6824 14.144, 63.1639 11.799 C 62.0257 12.4225, 60.5916 13.1158, 58.8615 13.8784, 58.755 13.6162, 58.5569 13.2194, 58.2672 12.6875, 58.2294 12.6211, 58.2014 12.569, 58.1819 12.5318, 61.4029 11.2803, 64.12 9.93377, 66.3339 8.4922 L 58.522 8.4922, 58.522 7.25557, 64.6639 7.25557, 64.6639 5.00218, 59.9464 5.00218, 59.9464 3.79304, 64.6639 3.79304, 64.6639 1.80528, 66.098 1.80528, 66.098 3.79304, 70.0231 3.79304, 70.0231 5.00218, 66.098 5.00218, 66.098 7.25557, 68.155 7.25557 C 69.7151 6.12029, 71.3599 4.68844, 73.0895 2.95946 L 74.2591 3.81136 C 72.9824 5.01477, 71.6491 6.16323, 70.259 7.25557 L 75.4482 7.25557, 75.4482 8.4922, 68.5701 8.4922 C 67.859 9.01203, 67.0604 9.54332, 66.1736 10.0861 L 74.2402 10.0861, 74.2402 11.2952, 64.7297 11.2952, 64.3713 12.9532, 72.4569 12.9532 C 72.3756 14.2242, 72.2783 15.3016, 72.1649 16.1867, 72.0515 17.085, 71.775 17.7136, 71.3342 18.0737, 70.8819 18.4401, 70.1142 18.6388, 69.0321 18.6691, 68.0508 18.6937, 66.7678 18.7058, 65.1826 18.7058 Z" stroke="none" fill="#0080FF" />
			<path d="M 78.5964 19.2096 C 78.4521 19.0573, 78.1561 18.767, 77.7096 18.3394, 77.5584 18.1991, 77.4577 18.1046, 77.4073 18.0554, 78.609 17.1766, 79.521 16.3676, 80.1433 15.628, 80.7977 14.8591, 81.282 14.0072, 81.5964 13.0723, 81.886 12.2181, 82.0967 11.0943, 82.2284 9.70134, 82.3234 8.58437, 82.383 7.37809, 82.4082 6.08307 L 77.6907 6.08307, 77.6907 4.69989, 85.9743 4.69989 C 85.8232 4.26707, 85.5404 3.53426, 85.1253 2.50145, 85.044 2.2942, 84.9839 2.14192, 84.9461 2.04345 L 86.5497 1.75032 C 87.0466 2.93542, 87.4182 3.86689, 87.6632 4.54417 L 86.9459 4.69989, 94.5981 4.69989, 94.5981 6.08307, 83.9362 6.08307 C 83.911 7.24985, 83.8641 8.27579, 83.7948 9.16089 L 92.3429 9.16089 C 92.28 11.4269, 92.1609 13.473, 91.9845 15.2982, 91.8781 16.5079, 91.554 17.3535, 91.0124 17.8356, 90.4783 18.3062, 89.5915 18.5535, 88.352 18.5775, 87.5218 18.6021, 86.5314 18.6142, 85.3801 18.6142, 85.3171 18.1195, 85.21 17.6128, 85.0589 17.0936, 86.015 17.1308, 87.0089 17.1491, 88.0405 17.1485, 88.8833 17.1491, 89.481 16.9934, 89.8331 16.6819, 90.1857 16.3705, 90.4056 15.7963, 90.4937 14.9593, 90.6323 13.7261, 90.7262 12.2547, 90.7766 10.5441 L 83.6534 10.5441 C 83.5148 11.9003, 83.2727 13.0425, 82.9269 13.97, 82.5685 14.9478, 82.0463 15.8484, 81.3605 16.6722, 80.6941 17.4726, 79.7723 18.3182, 78.5964 19.2096 Z" stroke="none" fill="#0080FF" />
			<path d="M 97.7691 18.8981 L 97.7691 4.33348, 103.043 4.33348 C 103.339 3.3751, 103.566 2.50832, 103.723 1.732 L 105.307 1.90604 C 105.295 1.94326, 105.279 1.99535, 105.26 2.06177, 104.971 3.05164, 104.742 3.80907, 104.572 4.33348 L 112.855 4.33348, 112.855 16.4341 C 112.855 17.2407, 112.68 17.8264, 112.327 18.1928, 111.975 18.5592, 111.387 18.7579, 110.563 18.7882 L 108.043 18.8432 C 107.968 18.3852, 107.868 17.8785, 107.742 17.3226, 108.591 17.3718, 109.352 17.3964, 110.025 17.3959, 110.534 17.3964, 110.893 17.3048, 111.101 17.1216, 111.308 16.9384, 111.412 16.627, 111.412 16.1867 L 111.412 5.68003, 99.2222 5.68003, 99.2222 18.8981 Z M 101.694 14.8402 L 101.694 8.29983, 108.912 8.29983, 108.912 14.8402 Z M 103.109 13.5669 L 107.525 13.5669, 107.525 9.56393, 103.109 9.56393 Z" stroke="none" fill="#0080FF" />
			<rect />
		</svg>
	</g>
	<g transform="matrix(1 0 -0 1 9.00002 56.5107)">
		<svg width="461.998901" height="60.0856972">
			<defs />
			<path d="M 8.50489 19.1363 L 8.50489 8.54716 C 7.59345 9.63492, 6.58068 10.6637, 5.46772 11.6341, 4.36736 12.5874, 3.0878 13.552, 1.62847 14.5287, 1.36454 14.1326, 1.02791 13.7112, 0.619137 13.2646, 2.77635 11.8545, 4.54312 10.4714, 5.92058 9.11509, 7.26655 7.7966, 8.44534 6.30349, 9.45754 4.63577 L 1.2134 4.63577, 1.2134 3.19763, 17.787 3.19763, 17.787 4.63577, 11.2879 4.63577 C 10.4766 5.9617, 9.69055 7.09126, 8.92969 8.02503 L 10.0993 8.02503, 10.0993 19.1363 Z M 16.9568 14.0891 C 14.8128 12.4591, 12.8634 11.0605, 11.1087 9.8937 L 12.0802 8.8128 C 14.8099 10.6454, 16.7908 11.9948, 18.0229 12.8616 Z" stroke="none" fill="#E60000" />
			<path d="M 20.8161 19.1363 C 20.7977 19.0876, 20.7691 19.0081, 20.7313 18.8981, 20.5424 18.3978, 20.401 18.0342, 20.3065 17.8081, 23.445 17.4972, 25.8627 17.0272, 27.5608 16.3974, 26.8818 16.1902, 25.8599 15.8787, 24.495 15.4631, 23.7719 15.2501, 23.228 15.0881, 22.8628 14.9776, 23.3849 14.4039, 23.9007 13.7936, 24.4103 13.1456 L 19.8445 13.1456, 19.8445 11.9914, 25.2965 11.9914 C 25.6801 11.491, 26.0637 10.9448, 26.4473 10.3517 L 27.9948 10.6448 C 27.6238 11.207, 27.306 11.6559, 27.0415 11.9914 L 37.286 11.9914, 37.286 13.1456, 33.6071 13.1456 C 32.8273 14.4102, 31.9222 15.4115, 30.8905 16.1501, 33.1668 16.7982, 35.0097 17.3295, 36.4181 17.744 L 35.8238 19.0172 C 34.7927 18.6754, 33.2773 18.1871, 31.277 17.5516, 30.4789 17.2957, 29.8812 17.1033, 29.485 16.9745, 28.4854 17.488, 27.2843 17.918, 25.8816 18.2661, 24.4796 18.6142, 22.7912 18.9044, 20.8161 19.1363 Z M 29.1644 15.6463 C 30.29 15.0177, 31.1957 14.1841, 31.881 13.1456 L 26.1267 13.1456 C 25.7809 13.5858, 25.407 14.0347, 25.0045 14.4921, 26.2938 14.8408, 27.6805 15.2255, 29.1644 15.6463 Z M 21.2311 10.1777 L 21.2311 5.61591, 25.6738 5.61591, 25.6738 3.75639, 20.4199 3.75639, 20.4199 2.60221, 36.7576 2.60221, 36.7576 3.75639, 31.4659 3.75639, 31.4659 5.61591, 35.9464 5.61591, 35.9464 10.1777 Z M 22.5611 9.04181 L 25.6738 9.04181, 25.6738 6.77925, 22.5611 6.77925 Z M 27.0232 9.04181 L 30.1171 9.04181, 30.1171 6.77925, 27.0232 6.77925 Z M 31.4659 9.04181 L 34.6164 9.04181, 34.6164 6.77925, 31.4659 6.77925 Z M 27.0232 5.61591 L 30.1171 5.61591, 30.1171 3.75639, 27.0232 3.75639 Z" stroke="none" fill="#E60000" />
			<path d="M 45.995 18.7058 C 45.8633 18.1195, 45.7499 17.6524, 45.6555 17.3043, 46.8635 17.3415, 48.1402 17.3598, 49.4861 17.3592, 50.1909 17.3598, 50.6878 17.2619, 50.977 17.0661, 51.254 16.8772, 51.4361 16.5199, 51.5243 15.9944, 51.581 15.6102, 51.6405 14.9936, 51.7035 14.144 L 43.4948 14.144, 43.9763 11.799 C 42.8382 12.4225, 41.404 13.1158, 39.6739 13.8784, 39.5674 13.6162, 39.3693 13.2194, 39.0796 12.6875, 39.0418 12.6211, 39.0138 12.569, 38.9943 12.5318, 42.2153 11.2803, 44.9324 9.93377, 47.1463 8.4922 L 39.3344 8.4922, 39.3344 7.25557, 45.4763 7.25557, 45.4763 5.00218, 40.7588 5.00218, 40.7588 3.79304, 45.4763 3.79304, 45.4763 1.80528, 46.9104 1.80528, 46.9104 3.79304, 50.8355 3.79304, 50.8355 5.00218, 46.9104 5.00218, 46.9104 7.25557, 48.9674 7.25557 C 50.5275 6.12029, 52.1724 4.68844, 53.9019 2.95946 L 55.0715 3.81136 C 53.7948 5.01477, 52.4615 6.16323, 51.0714 7.25557 L 56.2606 7.25557, 56.2606 8.4922, 49.3825 8.4922 C 48.6715 9.01203, 47.8728 9.54332, 46.986 10.0861 L 55.0527 10.0861, 55.0527 11.2952, 45.5421 11.2952, 45.1837 12.9532, 53.2693 12.9532 C 53.188 14.2242, 53.0907 15.3016, 52.9773 16.1867, 52.8639 17.085, 52.5874 17.7136, 52.1466 18.0737, 51.6943 18.4401, 50.9266 18.6388, 49.8445 18.6691, 48.8632 18.6937, 47.5803 18.7058, 45.995 18.7058 Z" stroke="none" fill="#E60000" />
			<path d="M 59.3138 19.0722 C 58.9176 18.7121, 58.5403 18.3915, 58.1819 18.1104, 58.8804 17.0117, 59.3516 15.9612, 59.5966 14.9593, 59.8548 13.891, 59.9836 12.395, 59.9836 10.4708 L 59.9836 5.35026, 65.7757 5.35026, 65.7757 1.75032, 67.1812 1.75032, 67.1812 2.98694, 74.2746 2.98694, 74.2746 4.09532, 67.1812 4.09532, 67.1812 5.35026, 75.3309 5.35026, 74.7933 8.25403 C 74.3158 8.1567, 73.8658 8.08056, 73.4445 8.02503 L 73.8217 6.54108, 61.4172 6.54108, 61.4172 10.5441 C 61.4172 12.5662, 61.2632 14.1841, 60.9552 15.399, 60.6597 16.572, 60.113 17.7961, 59.3138 19.0722 Z M 67.3226 18.7424 C 66.5177 18.7424, 65.9268 18.5535, 65.5495 18.1745, 65.1723 17.7961, 64.9833 17.2041, 64.9833 16.3974 L 64.9833 13.283, 66.3322 13.283, 66.3322 16.0493 C 66.3322 16.5629, 66.4392 16.9235, 66.6528 17.1308, 66.8669 17.3386, 67.2407 17.4422, 67.7755 17.4417 L 69.5205 17.4417 C 70.0489 17.4422, 70.4325 17.3587, 70.6712 17.1903, 70.9105 17.0226, 71.0737 16.7123, 71.1619 16.26, 71.2689 15.8089, 71.3571 15.2467, 71.4258 14.5745, 71.992 14.7829, 72.4351 14.9352, 72.7557 15.0325, 72.6303 15.7906, 72.4889 16.4558, 72.3315 17.0295, 72.1929 17.6157, 71.9319 18.0434, 71.5483 18.3119, 71.1521 18.5993, 70.5893 18.7424, 69.86 18.7424 Z M 62.6813 17.744 C 62.1975 17.531, 61.7698 17.3844, 61.3983 17.3043, 61.996 15.9921, 62.4775 14.6301, 62.8416 13.2188 L 64.0868 13.5669 C 63.7101 14.9535, 63.2412 16.3459, 62.6813 17.744 Z M 74.4727 17.3226 C 73.9259 16.0654, 73.3254 14.7829, 72.671 13.4753 L 73.8973 12.9898 C 74.558 14.2299, 75.174 15.4883, 75.7459 16.7638 Z M 68.8037 15.5547 C 68.3949 14.7308, 67.9203 13.8394, 67.3793 12.8799 L 68.5111 12.3578 C 68.9262 13.0425, 69.4197 13.9001, 69.9922 14.9318 Z M 67.9169 11.8723 C 67.1875 11.8729, 66.6573 11.7171, 66.327 11.4057, 65.9972 11.0943, 65.8318 10.6025, 65.8318 9.93034 L 65.8318 9.40821, 62.2662 9.58225, 62.1626 8.4922, 65.8318 8.29983, 65.8318 7.16397, 67.2184 7.16397, 67.2184 8.23571, 72.2181 7.97007, 72.2748 9.04181, 67.2184 9.33493, 67.2184 9.7563 C 67.2184 10.1536, 67.3066 10.4273, 67.4829 10.5767, 67.6592 10.7267, 67.9827 10.8011, 68.4545 10.8006 L 71.8409 10.8006 C 72.2118 10.8011, 72.4901 10.7416, 72.6756 10.6225, 72.8611 10.5034, 72.9979 10.3002, 73.0861 10.0128, 73.1679 9.67157, 73.2401 9.27768, 73.303 8.83112, 73.737 9.0086, 74.1618 9.13684, 74.5763 9.21585, 74.4761 9.73569, 74.3691 10.1599, 74.2557 10.4891, 74.1051 10.9723, 73.863 11.3204, 73.5292 11.5334, 73.1834 11.7601, 72.6996 11.8729, 72.0767 11.8723 Z" stroke="none" fill="#E60000" />
			<path d="M 84.2081 19.0905 L 84.2081 11.2952, 87.859 11.2952, 88.2741 9.52729, 83.8686 9.52729, 83.8686 8.29983, 94.8299 8.29983, 94.8299 9.52729, 89.6796 9.52729, 89.2079 11.2952, 94.179 11.2952, 94.179 17.0569 C 94.179 17.7107, 94.0502 18.1871, 93.7925 18.4859, 93.5286 18.7974, 93.0883 18.9686, 92.4717 18.9989, 92.17 19.0115, 91.6765 19.0172, 90.9907 19.0172, 90.9655 18.8769, 90.9122 18.6205, 90.8304 18.2478, 90.7868 18.0342, 90.7519 17.8785, 90.7267 17.7806 L 90.0191 17.7806, 90.0191 12.4952, 88.3119 12.4952, 88.3119 18.1104, 87.1423 18.1104, 87.1423 12.4952, 85.4345 12.4952, 85.4345 19.0905 Z M 92.0189 17.7623 C 92.3521 17.7623, 92.5914 17.6924, 92.7357 17.5522, 92.8805 17.4119, 92.9527 17.1829, 92.9527 16.8646 L 92.9527 12.4952, 91.1888 12.4952, 91.1888 17.744 C 91.3714 17.7565, 91.6479 17.7623, 92.0189 17.7623 Z M 77.5865 17.3775 L 77.3695 15.976 C 77.8476 15.9033, 78.6084 15.778, 79.6521 15.6005, 79.9418 15.5524, 80.1588 15.5157, 80.3031 15.4906, 80.9196 12.6028, 81.4418 9.9979, 81.8689 7.67694 L 83.0763 7.88763 C 82.8942 8.74925, 82.5736 10.2269, 82.1145 12.3211, 81.8317 13.6104, 81.6175 14.5906, 81.4727 15.2616, 81.5546 15.2501, 81.6771 15.2283, 81.8408 15.1974, 82.545 15.0698, 83.0637 14.969, 83.3969 14.8951, 83.3969 15.0423, 83.394 15.2741, 83.3877 15.5913, 83.382 15.8667, 83.3786 16.0774, 83.3786 16.2234, 81.203 16.627, 79.272 17.0117, 77.5865 17.3775 Z M 78.992 14.1074 C 78.7848 12.8438, 78.4733 11.128, 78.0582 8.95936, 77.9701 8.53227, 77.9071 8.2088, 77.8693 7.98839 L 78.9731 7.79602 C 79.2433 9.03035, 79.6206 10.9082, 80.105 13.4295, 80.1428 13.6316, 80.1714 13.781, 80.1897 13.8784 Z M 84.586 6.58688 L 84.586 2.73046, 85.8782 2.73046, 85.8782 5.35026, 88.51 5.35026, 88.51 1.78696, 89.821 1.78696, 89.821 5.35026, 92.4717 5.35026, 92.4717 2.73046, 93.7639 2.73046, 93.7639 6.58688 Z M 77.5865 6.4678 L 77.5865 5.23118, 83.3219 5.23118, 83.3219 6.4678 Z M 80.3408 4.92889 C 79.9698 3.84857, 79.6275 2.92339, 79.3126 2.15337 L 80.6237 1.85108 C 80.8882 2.49287, 81.2179 3.39056, 81.6141 4.54417 Z" stroke="none" fill="#E60000" />
			<path d="M 98.2265 18.4768 L 98.2265 3.46327, 112.452 3.46327, 112.452 18.4768, 110.933 18.4768, 110.933 16.8005, 99.7735 16.8005, 99.7735 18.4768 Z M 99.7735 15.3806 L 110.933 15.3806, 110.933 4.86477, 99.7735 4.86477 Z" stroke="none" fill="#E60000" />
			<path d="M 126.744 19.1088 L 126.744 1.83276, 128.234 1.83276, 128.234 7.90595, 128.951 7.2739 C 129.913 8.0319, 131.262 9.16432, 132.998 10.6723, 133.143 10.7948, 133.253 10.8864, 133.328 10.9471 L 132.215 12.0463 C 130.498 10.4284, 129.171 9.22844, 128.234 8.44639 L 128.234 19.1088 Z M 117.131 19.0355 C 116.804 18.6142, 116.455 18.2054, 116.084 17.8081, 118.456 16.2577, 120.207 14.5356, 121.339 12.6417, 120.433 11.8362, 119.461 11.0238, 118.423 10.2051 L 119.254 9.16089 C 120.178 9.85763, 121.103 10.575, 122.027 11.3135, 122.681 9.92175, 123.15 8.2151, 123.432 6.193 L 119.65 6.193 C 118.789 8.23915, 117.751 10.1324, 116.537 11.8723, 116.179 11.3845, 115.868 10.9872, 115.603 10.6815, 116.44 9.55248, 117.222 8.18132, 117.952 6.56856, 118.663 4.99359, 119.228 3.39972, 119.65 1.78696 L 121.159 2.06177 C 120.851 3.08198, 120.527 4.01059, 120.187 4.84645 L 124.885 4.84645, 124.885 6.25712 C 124.609 8.21167, 124.184 9.90629, 123.612 11.341, 123.008 12.8501, 122.189 14.2196, 121.155 15.4499, 120.12 16.6808, 118.779 17.8756, 117.131 19.0355 Z" stroke="none" fill="#E60000" />
			<path d="M 149.859 19.1088 L 149.859 18.0188, 137.474 18.0188, 137.474 19.0905, 136.068 19.0905, 136.068 6.43116, 141.738 6.43116, 142.511 4.04036, 135.172 4.04036, 135.172 2.73046, 152.18 2.73046, 152.18 4.04036, 144.134 4.04036, 143.285 6.43116, 151.227 6.43116, 151.227 19.1088 Z M 137.474 16.7638 L 140.351 16.7638, 140.351 7.67694, 137.474 7.67694 Z M 141.7 16.7638 L 145.624 16.7638, 145.624 14.4921, 141.7 14.4921 Z M 146.973 16.7638 L 149.859 16.7638, 149.859 7.67694, 146.973 7.67694 Z M 141.7 13.3746 L 145.624 13.3746, 145.624 11.0662, 141.7 11.0662 Z M 141.7 9.96698 L 145.624 9.96698, 145.624 7.67694, 141.7 7.67694 Z" stroke="none" fill="#E60000" />
			<rect />
		</svg>
	</g>
	<path d="M -25.0967 -20.8002 L 25.0966 20.8002" fill="none" stroke="#E60000" stroke-width="1" stroke-linecap="round" stroke-linejoin="round" transform="matrix(1 0 0 1 185.406 101.139)" />
	<rect x="-51.6296234" y="-77.6077576" width="103.259247" height="155.215515" stroke="none" fill="#0080FF" fill-opacity="0.266666651" transform="matrix(1 0 -0 1 311.106 87.3098)" />
</svg>
