<?xml version="1.0"?>
<svg xmlns="http://www.w3.org/2000/svg" xmlns:xlink="http://www.w3.org/1999/xlink" width="319.613098" height="79.4204865">
	<defs>
		<marker id="CustomMarker-01" markerUnits="strokeWidth" markerWidth="8.25" markerHeight="13.5" viewBox="-8.25 -6.75 8.25 13.5" orient="auto-start-reverse">
			<path d="M -5.5 -4.5 L 0 -0, -5.5 4.5" fill="none" stroke="#000000" stroke-linejoin="round" />
		</marker>
	</defs>
	<path d="M -93.6591 0 L -56.1954 0" fill="none" stroke="#000000" stroke-width="2.87999988" stroke-linecap="round" stroke-linejoin="round" transform="matrix(0.555556 0 -0 0.555556 257.814 40.3581)" />
	<path d="M 56.1954 0 L 93.6591 0" fill="none" stroke="#000000" stroke-width="2.87999988" stroke-linecap="round" stroke-linejoin="round" transform="matrix(0.555556 0 -0 0.555556 257.814 40.3581)" />
	<path d="M -56.1954 0 L -50.5759 15.4897, -39.3368 -15.4897, -28.0977 15.4897, -16.8586 -15.4897, -5.61954 15.4897, 5.61954 -15.4897, 16.8586 15.4897, 28.0977 -15.4897, 39.3368 15.4897, 50.5759 -15.4897, 56.1954 0" fill="none" stroke="#000000" stroke-width="2.6400001" stroke-linecap="round" stroke-linejoin="round" transform="matrix(0.555556 0 -0 0.555556 257.814 40.3581)" />
	<path d="M -41.7771 0 L 41.7767 0" fill="none" stroke="#000000" stroke-width="2.87999988" stroke-linecap="round" stroke-linejoin="round" transform="matrix(0.555556 0 0 0.555556 32.9762 40.3581)" />
	<path d="M 2.42673 0 L -2.42688 0" fill="none" stroke="#000000" stroke-width="2.4000001" stroke-linecap="round" stroke-linejoin="round" marker-start="url(#CustomMarker-01)" transform="matrix(0.555556 0 0 0.555556 36.2482 40.3581)" />
	<g transform="matrix(1 0 -0 1 30.642 12.7114)">
		<svg width="18.0512524" height="45.0428467">
			<defs />
			<path d="M 4.85632 5.20004 C 4.79964 5.43248, 4.66911 5.62656, 4.46472 5.78228, 4.26033 5.938, 4.03877 6.01586, 3.79946 6.01529, 3.54813 6.01586, 3.35634 5.93056, 3.22409 5.75881, 3.1365 5.66148, 3.08955 5.5424, 3.08268 5.40156, 3.08268 5.31683, 3.09528 5.23095, 3.12047 5.14507, 3.17715 4.91378, 3.3094 4.7197, 3.51664 4.56398, 3.72447 4.40825, 3.94774 4.33039, 4.18648 4.32982, 4.43839 4.33039, 4.63018 4.41284, 4.76185 4.57715, 4.85002 4.69394, 4.8941 4.81874, 4.8941 4.95271, 4.8941 5.03859, 4.88151 5.12103, 4.85632 5.20004 Z M 4.95994 14.0854 C 4.89124 14.4037, 4.78418 14.738, 4.63934 15.089, 4.49506 15.4405, 4.31701 15.7594, 4.10633 16.0462, 3.89565 16.3336, 3.64889 16.5729, 3.36607 16.7647, 3.08325 16.9571, 2.75578 17.0533, 2.38479 17.0533, 2.07048 17.0533, 1.80026 16.9863, 1.57355 16.8518, 1.3474 16.7178, 1.17279 16.5409, 1.05027 16.321, 0.927755 16.1012, 0.865924 15.8567, 0.865924 15.5877, 0.853329 15.5762, 0.847031 15.5516, 0.847031 15.5144, 0.847031 15.2401, 0.907145 14.959, 1.02623 14.6716 L 2.55426 10.6412 C 2.74318 10.1351, 2.83765 9.71943, 2.83765 9.39539, 2.83765 9.12116, 2.72143 8.98375, 2.48842 8.98318, 2.27487 8.98375, 2.08308 9.04501, 1.91304 9.16696, 1.74358 9.28947, 1.58786 9.45894, 1.44645 9.67535, 1.30504 9.89233, 1.17794 10.1488, 1.06459 10.4448, 0.951228 10.7414, 0.856764 11.0568, 0.781193 11.3923, 0.712492 11.5578, 0.5957 11.6431, 0.431962 11.6488 L 0.224713 11.6488 C 0.0735708 11.6494, -0.00200051 11.5732, -0.00200051 11.4198 L -0.00200051 11.3557 C 0.0735708 11.0202, 0.186928 10.6772, 0.33807 10.3257, 0.489213 9.97477, 0.671271 9.65588, 0.884817 9.36848, 1.09894 9.08165, 1.3474 8.84349, 1.63022 8.65399, 1.91304 8.46506, 2.23709 8.37002, 2.60177 8.36945, 2.91665 8.37002, 3.18402 8.43758, 3.40386 8.57155, 3.6237 8.70609, 3.79202 8.88471, 3.90824 9.10742, 4.02503 9.33069, 4.08915 9.58203, 4.10175 9.86256 L 4.10175 9.92668 C 4.10175 10.19, 4.04851 10.4614, 3.94087 10.7419 L 2.41285 14.7907 C 2.23709 15.2859, 2.14892 15.7073, 2.14892 16.0548, 2.13632 16.0674, 2.13003 16.0674, 2.13003 16.0548, 2.13003 16.3182, 2.24968 16.4493, 2.48842 16.4487, 2.70254 16.4493, 2.89547 16.3852, 3.06837 16.2569, 3.24127 16.1287, 3.39871 15.9581, 3.54012 15.7439, 3.6821 15.5304, 3.80633 15.2739, 3.91282 14.9745, 4.01988 14.6756, 4.11721 14.3608, 4.20537 14.0304, 4.24316 13.8724, 4.35308 13.7928, 4.53514 13.7923 L 4.74296 13.7923 C 4.81223 13.7928, 4.88151 13.814, 4.95021 13.8564, 4.96967 13.9056, 4.98513 13.9486, 4.99773 13.9846, 4.99773 14.0218, 4.98513 14.0556, 4.95994 14.0854 Z" stroke="none" fill="#000000" />
			<rect />
		</svg>
	</g>
	<ellipse cx="217.92825651168823" cy="534.16606473922729" rx="7.2000002861022949" ry="7.2000002861022949" stroke="none" fill="#000000" transform="matrix(0.555556 0 0 0.555556 -111.305 -256.401)" />
	<ellipse cx="217.92825031280518" cy="534.16608905792236" rx="4.8000001907348633" ry="4.8000001907348633" stroke="none" fill="#FFFFFF" transform="matrix(0.555556 0 0 0.555556 -111.305 -256.401)" />
	<path d="M -44.8808 0 L 44.8808 0" fill="none" stroke="#000000" stroke-width="2.87999988" stroke-linecap="round" stroke-linejoin="round" transform="matrix(0.555556 0 0 0.555556 130.987 40.3581)" />
	<ellipse cx="481.00569486618042" cy="534.16606473922729" rx="7.2000002861022949" ry="7.2000002861022949" stroke="none" fill="#000000" transform="matrix(0.555556 0 0 0.555556 -111.305 -256.401)" />
	<ellipse cx="481.00571918487549" cy="534.16608905792236" rx="4.8000001907348633" ry="4.8000001907348633" stroke="none" fill="#FFFFFF" transform="matrix(0.555556 0 0 0.555556 -111.305 -256.401)" />
	<g transform="matrix(1 0 -0 1 76.3972 48.0056)">
		<svg width="32.9738617" height="32.9571342">
			<defs />
			<path d="M 9.41063 14.0854 C 9.34193 14.3671, 9.26006 14.6785, 9.1656 15.0203, 9.0717 15.3627, 8.94575 15.6798, 8.78831 15.973, 8.63144 16.2661, 8.43336 16.5197, 8.19405 16.7332, 7.95474 16.9468, 7.65589 17.0533, 7.2975 17.0533, 6.85724 17.0533, 6.50171 16.9405, 6.23148 16.7149, 5.96126 16.4894, 5.79409 16.2569, 5.73111 16.0182, 5.51756 16.2815, 5.23131 16.5197, 4.87292 16.7332, 4.51453 16.9468, 4.09889 17.0533, 3.62714 17.0533, 3.20005 17.0533, 2.81761 16.9743, 2.48097 16.8151, 2.14434 16.6571, 1.87869 16.4126, 1.68347 16.0823, 1.49511 15.7285, 1.40408 15.338, 1.40981 14.9098 L 1.40981 14.8365 C 1.4224 14.3911, 1.47908 13.9486, 1.57984 13.5083, 1.6806 13.0875, 1.82717 12.6238, 2.01896 12.1165, 2.21075 11.6099, 2.39452 11.1181, 2.57029 10.6412, 2.75921 10.1351, 2.85368 9.71943, 2.85368 9.39539, 2.85368 9.12116, 2.73746 8.98375, 2.50445 8.98318, 2.2909 8.98375, 2.09739 9.04501, 1.92449 9.16696, 1.7516 9.28947, 1.59416 9.45894, 1.45275 9.67535, 1.31134 9.89233, 1.18367 10.1488, 1.07031 10.4448, 0.956953 10.7414, 0.863061 11.0568, 0.78749 11.3923, 0.718216 11.5578, 0.601997 11.6431, 0.438259 11.6488 L 0.221278 11.6488 C 0.0701351 11.6494, -0.00543621 11.5732, -0.00543621 11.4198 L -0.00543621 11.3557 C 0.0827303 11.0202, 0.199522 10.6772, 0.343795 10.3257, 0.48864 9.97477, 0.67127 9.65588, 0.891114 9.36848, 1.11153 9.08165, 1.36343 8.84349, 1.64625 8.65399, 1.92907 8.46506, 2.25311 8.37002, 2.6178 8.36945, 2.93268 8.37002, 3.20119 8.43758, 3.42447 8.57155, 3.64775 8.70609, 3.81778 8.88471, 3.934 9.10742, 4.0508 9.33069, 4.11492 9.58203, 4.12751 9.86256 L 4.12751 9.92668 C 4.12751 10.19, 4.07427 10.4614, 3.96664 10.7419, 3.78458 11.2188, 3.60424 11.706, 3.42447 12.2035, 3.24527 12.7016, 3.10558 13.1488, 3.00482 13.5455, 2.90406 13.9428, 2.83478 14.3361, 2.797 14.7266, 2.77181 14.8308, 2.75635 14.9442, 2.75005 15.0655, 2.75005 15.3043, 2.79127 15.5396, 2.87257 15.7709, 2.92925 15.9792, 3.03287 16.1441, 3.18402 16.2661, 3.33516 16.3886, 3.51435 16.4493, 3.7216 16.4487, 4.13724 16.4493, 4.49907 16.3245, 4.80708 16.0737, 5.11509 15.8235, 5.38532 15.4903, 5.61775 15.0747, 5.63035 15.0266, 5.64008 14.9699, 5.64638 14.9058, 5.65268 14.8417, 5.66184 14.7758, 5.67443 14.7083 L 7.08968 9.24883 C 7.14693 9.02326, 7.26143 8.85723, 7.43433 8.75017, 7.60723 8.64368, 7.78184 8.58987, 7.9576 8.58929, 8.14023 8.58987, 8.29137 8.64483, 8.41103 8.75418, 8.4929 8.83433, 8.53355 8.94081, 8.53355 9.07478, 8.53355 9.14234, 8.52725 9.21276, 8.51465 9.28547 L 7.09941 14.7449 C 6.99865 15.1239, 6.94827 15.46, 6.94827 15.7525, 6.94827 15.8327, 6.95456 15.918, 6.96716 16.009, 6.99865 16.3027, 7.14636 16.4493, 7.41085 16.4487, 7.67535 16.4493, 7.90321 16.2237, 8.095 15.7714, 8.28679 15.3197, 8.474 14.7392, 8.65606 14.0304, 8.69385 13.8724, 8.80091 13.7928, 8.97667 13.7923 L 9.19365 13.7923 C 9.2635 13.7928, 9.33277 13.814, 9.40147 13.8564, 9.42666 13.9119, 9.43926 13.9577, 9.43926 13.9938, 9.43926 14.019, 9.4301 14.0493, 9.41063 14.0854 Z" stroke="none" fill="#000000" />
			<rect />
		</svg>
	</g>
	<g transform="matrix(1 0 -0 1 50.5574 49.6067)">
		<svg width="119.936646" height="119.999977">
			<defs />
			<polyline points="-5.628 0 5.628 0" fill="none" stroke="#000000" stroke-width="0.64319998" stroke-linecap="round" stroke-linejoin="round" transform="matrix(1 0 0 1 5.628 9.60638)" />
			<polyline points="0 -5.628 0 5.628" fill="none" stroke="#000000" stroke-width="0.64319998" stroke-linecap="round" stroke-linejoin="round" transform="matrix(1 0 0 1 5.628 9.60638)" />
			<rect />
		</svg>
	</g>
	<g transform="matrix(1 0 -0 1 100.425 49.6067)">
		<svg width="119.936646" height="83.9999847">
			<defs />
			<polyline points="-5.628 0 5.628 0" fill="none" stroke="#000000" stroke-width="0.64319998" stroke-linecap="round" stroke-linejoin="round" transform="matrix(1 0 0 1 5.628 9.60638)" />
			<rect />
		</svg>
	</g>
	<path d="M -44.881 -12.4854 L 44.881 -12.4854, 44.881 12.4854, -44.881 12.4854 Z" fill="none" stroke="#000000" stroke-width="2.4000001" stroke-linecap="round" stroke-linejoin="round" transform="matrix(0.555556 0 -0 0.555556 81.1195 40.3581)" />
	<g transform="matrix(1 0 -0 1 74.639 9.00001)">
		<svg width="41.9788857" height="47.9999886">
			<defs />
			<path d="M 12.9573 14.9922 C 12.8881 15.2676, 12.7844 15.5378, 12.6459 15.8035, 12.5073 16.0691, 12.3379 16.309, 12.1364 16.5226, 11.9354 16.7367, 11.7104 16.9113, 11.4619 17.0487, 11.2135 17.1861, 10.945 17.2548, 10.6553 17.2548, 9.74383 17.2548, 9.05797 17.0138, 8.59881 16.5311, 8.28508 16.202, 8.12764 15.7869, 8.12764 15.2854, 8.12764 15.0295, 8.16886 14.7518, 8.25016 14.4518 L 8.67439 12.8121 C 8.72477 12.6049, 8.74996 12.4097, 8.74996 12.2259, 8.74996 12.1348, 8.74366 12.0404, 8.73106 11.9419, 8.69328 11.686, 8.60569 11.4604, 8.46714 11.2646, 8.32859 11.0694, 8.15111 10.9154, 7.93413 10.802, 7.71715 10.6893, 7.46067 10.6326, 7.16525 10.632 L 5.03322 10.632, 3.77886 15.5144 C 3.75366 15.6312, 3.74107 15.7256, 3.74107 15.7983, 3.74107 15.8905, 3.75996 15.9518, 3.79775 15.9815, 3.87962 16.0308, 4.04965 16.06, 4.30728 16.0691, 4.56491 16.0783, 4.84143 16.0829, 5.13685 16.0823, 5.31318 16.0829, 5.40135 16.1562, 5.40135 16.3021, 5.40135 16.3394, 5.39505 16.3789, 5.38246 16.4212 L 5.34467 16.5678 C 5.27597 16.751, 5.15288 16.8426, 4.97655 16.8426, 4.20366 16.806, 3.4239 16.7876, 2.63727 16.7876, 1.85179 16.7876, 1.0623 16.806, 0.269943 16.8426, 0.10048 16.8426, 0.0094513 16.7636, -0.00371642 16.6044 L -0.00371642 16.5311, 0.0340692 16.3754 C 0.0844501 16.1745, 0.206967 16.0766, 0.40162 16.0823, 0.697608 16.0829, 0.977565 16.0783, 1.24149 16.0691, 1.50599 16.06, 1.70065 16.0279, 1.82602 15.9724, 1.94568 15.906, 2.03671 15.7411, 2.09968 15.4777 L 4.7504 5.15423 C 4.78819 5.02027, 4.80708 4.91664, 4.80708 4.84279, 4.80708 4.77008, 4.79163 4.72714, 4.75956 4.71455, 4.67197 4.66016, 4.50079 4.62695, 4.24602 4.61436, 3.99126 4.60234, 3.71302 4.59604, 3.41073 4.59547, 3.23497 4.59604, 3.1468 4.5136, 3.1468 4.34814 L 3.1468 4.27486, 3.20348 4.11914 C 3.24127 3.93651, 3.35749 3.84491, 3.55214 3.84433 L 8.86331 3.84433 C 9.46101 3.84491, 10.0301 3.92448, 10.5705 4.08307, 11.1116 4.24223, 11.5833 4.50444, 11.9852 4.87027, 12.319 5.16397, 12.5612 5.52408, 12.7117 5.95117, 12.8062 6.18361, 12.8566 6.42521, 12.8629 6.67482, 12.8629 6.90154, 12.8285 7.12424, 12.7592 7.34351, 12.6396 7.83244, 12.3911 8.27556, 12.0138 8.67231, 11.6366 9.06963, 11.2123 9.40798, 10.7406 9.68851, 10.4137 9.87859, 10.0822 10.036, 9.74555 10.1608, 9.40892 10.2862, 9.16846 10.3641, 9.02362 10.3938, 9.38201 10.5347, 9.72151 10.8095, 10.0421 11.2183, 10.3129 11.5732, 10.448 11.9974, 10.448 12.4915, 10.448 12.5957, 10.4417 12.6999, 10.4291 12.803 L 10.2499 14.4518 C 10.1996 14.88, 10.1744 15.2522, 10.1744 15.5693, 10.1744 15.7777, 10.187 15.9609, 10.2121 16.1189, 10.2562 16.4796, 10.4446 16.66, 10.7778 16.6594, 11.0801 16.66, 11.3566 16.4968, 11.6079 16.1699, 11.8598 15.8436, 12.0453 15.4388, 12.1644 14.9556, 12.2343 14.773, 12.3568 14.6842, 12.5325 14.69 L 12.6837 14.69 C 12.8537 14.6905, 12.9447 14.7701, 12.9573 14.9281 L 12.9573 14.9922 Z M 10.7406 7.28855 C 10.8413 6.92272, 10.8974 6.55631, 10.91 6.18933 L 10.91 6.13437 C 10.91 5.8235, 10.8127 5.55499, 10.6175 5.32828, 10.385 5.06034, 10.0822 4.87084, 9.70777 4.76092, 9.33334 4.651, 8.92286 4.59604, 8.4763 4.59547 L 7.22193 4.59547 C 6.90132 4.59604, 6.70953 4.62066, 6.64656 4.66932, 6.58358 4.71856, 6.51774 4.89203, 6.44847 5.19088 L 5.20326 10.0366, 7.02384 10.0366 C 7.4704 10.0372, 7.91066 9.98221, 8.34462 9.87229, 8.77858 9.76237, 9.19022 9.56714, 9.5801 9.28547, 9.9133 9.04787, 10.1652 8.74902, 10.3347 8.38834, 10.5047 8.02823, 10.6398 7.66183, 10.7406 7.28855 Z" stroke="none" fill="#000000" />
			<rect />
		</svg>
	</g>
	<ellipse cx="570.75358915328979" cy="534.16606473922729" rx="7.2000002861022949" ry="7.2000002861022949" stroke="none" fill="#000000" transform="matrix(0.555556 0 0 0.555556 -111.305 -256.401)" />
	<ellipse cx="570.75361347198486" cy="534.16608905792236" rx="4.8000001907348633" ry="4.8000001907348633" stroke="none" fill="#FFFFFF" transform="matrix(0.555556 0 0 0.555556 -111.305 -256.401)" />
	<ellipse cx="758.07170438766479" cy="534.16606473922729" rx="7.2000002861022949" ry="7.2000002861022949" stroke="none" fill="#000000" transform="matrix(0.555556 0 0 0.555556 -111.305 -256.401)" />
	<ellipse cx="758.07172870635986" cy="534.16608905792236" rx="4.8000001907348633" ry="4.8000001907348633" stroke="none" fill="#FFFFFF" transform="matrix(0.555556 0 0 0.555556 -111.305 -256.401)" />
</svg>
