<?xml version="1.0"?>
<svg xmlns="http://www.w3.org/2000/svg" xmlns:xlink="http://www.w3.org/1999/xlink" width="417.697235" height="264.600952">
	<defs>
		<marker id="CustomMarker-01" markerUnits="strokeWidth" markerWidth="8.25" markerHeight="13.5" viewBox="-8.25 -6.75 8.25 13.5" orient="auto-start-reverse">
			<path d="M -5.5 -4.5 L 0 -0, -5.5 4.5" fill="none" stroke="#000000" stroke-linejoin="round" />
		</marker>
		<marker id="CustomMarker-02" markerUnits="strokeWidth" markerWidth="8.25" markerHeight="13.5" viewBox="-8.25 -6.75 8.25 13.5" orient="auto-start-reverse">
			<path d="M -5.5 -4.5 L 0 -0, -5.5 4.5" fill="none" stroke="#000000" stroke-linejoin="round" />
		</marker>
		<marker id="CustomMarker-03" markerUnits="strokeWidth" markerWidth="9" markerHeight="6" viewBox="-9 -3 9 6" orient="auto-start-reverse">
			<path d="M 0 -0 L -6 -2, -4.8 -0.5, -4.8 0.5, -6 2 Z" fill="#000000" stroke="#000000" stroke-linejoin="round" />
		</marker>
		<marker id="CustomMarker-04" markerUnits="strokeWidth" markerWidth="9" markerHeight="6" viewBox="-9 -3 9 6" orient="auto-start-reverse">
			<path d="M 0 -0 L -6 -2, -4.8 -0.5, -4.8 0.5, -6 2 Z" fill="#000000" stroke="#000000" stroke-linejoin="round" />
		</marker>
		<marker id="CustomMarker-05" markerUnits="strokeWidth" markerWidth="9" markerHeight="6" viewBox="-9 -3 9 6" orient="auto-start-reverse">
			<path d="M 0 -0 L -6 -2, -4.8 -0.5, -4.8 0.5, -6 2 Z" fill="#000000" stroke="#000000" stroke-linejoin="round" />
		</marker>
		<marker id="CustomMarker-06" markerUnits="strokeWidth" markerWidth="9" markerHeight="6" viewBox="-9 -3 9 6" orient="auto-start-reverse">
			<path d="M 0 -0 L -6 -2, -4.8 -0.5, -4.8 0.5, -6 2 Z" fill="#000000" stroke="#000000" stroke-linejoin="round" />
		</marker>
	</defs>
	<path d="M -37.8867 0 L 37.8871 0" fill="none" stroke="#000000" stroke-width="2.24000001" stroke-linecap="round" stroke-linejoin="round" transform="matrix(0.714286 0 0 0.714286 293.404 76.8763)" />
	<g transform="matrix(1 0 -0 1 79.4076 84.6813)">
		<svg width="32.9738617" height="32.9571342">
			<defs />
			<path d="M 9.41063 14.0854 C 9.34193 14.3671, 9.26006 14.6785, 9.1656 15.0203, 9.0717 15.3627, 8.94575 15.6798, 8.78831 15.973, 8.63144 16.2661, 8.43336 16.5197, 8.19405 16.7332, 7.95474 16.9468, 7.65589 17.0533, 7.2975 17.0533, 6.85724 17.0533, 6.50171 16.9405, 6.23148 16.7149, 5.96126 16.4894, 5.79409 16.2569, 5.73111 16.0182, 5.51756 16.2815, 5.23131 16.5197, 4.87292 16.7332, 4.51453 16.9468, 4.09889 17.0533, 3.62714 17.0533, 3.20005 17.0533, 2.81761 16.9743, 2.48097 16.8151, 2.14434 16.6571, 1.87869 16.4126, 1.68347 16.0823, 1.49511 15.7285, 1.40408 15.338, 1.40981 14.9098 L 1.40981 14.8365 C 1.4224 14.3911, 1.47908 13.9486, 1.57984 13.5083, 1.6806 13.0875, 1.82717 12.6238, 2.01896 12.1165, 2.21075 11.6099, 2.39452 11.1181, 2.57029 10.6412, 2.75921 10.1351, 2.85368 9.71943, 2.85368 9.39539, 2.85368 9.12116, 2.73746 8.98375, 2.50445 8.98318, 2.2909 8.98375, 2.09739 9.04501, 1.92449 9.16696, 1.7516 9.28947, 1.59416 9.45894, 1.45275 9.67535, 1.31134 9.89233, 1.18367 10.1488, 1.07031 10.4448, 0.956953 10.7414, 0.863061 11.0568, 0.78749 11.3923, 0.718216 11.5578, 0.601997 11.6431, 0.438259 11.6488 L 0.221278 11.6488 C 0.0701351 11.6494, -0.00543621 11.5732, -0.00543621 11.4198 L -0.00543621 11.3557 C 0.0827303 11.0202, 0.199522 10.6772, 0.343795 10.3257, 0.48864 9.97477, 0.67127 9.65588, 0.891114 9.36848, 1.11153 9.08165, 1.36343 8.84349, 1.64625 8.65399, 1.92907 8.46506, 2.25311 8.37002, 2.6178 8.36945, 2.93268 8.37002, 3.20119 8.43758, 3.42447 8.57155, 3.64775 8.70609, 3.81778 8.88471, 3.934 9.10742, 4.0508 9.33069, 4.11492 9.58203, 4.12751 9.86256 L 4.12751 9.92668 C 4.12751 10.19, 4.07427 10.4614, 3.96664 10.7419, 3.78458 11.2188, 3.60424 11.706, 3.42447 12.2035, 3.24527 12.7016, 3.10558 13.1488, 3.00482 13.5455, 2.90406 13.9428, 2.83478 14.3361, 2.797 14.7266, 2.77181 14.8308, 2.75635 14.9442, 2.75005 15.0655, 2.75005 15.3043, 2.79127 15.5396, 2.87257 15.7709, 2.92925 15.9792, 3.03287 16.1441, 3.18402 16.2661, 3.33516 16.3886, 3.51435 16.4493, 3.7216 16.4487, 4.13724 16.4493, 4.49907 16.3245, 4.80708 16.0737, 5.11509 15.8235, 5.38532 15.4903, 5.61775 15.0747, 5.63035 15.0266, 5.64008 14.9699, 5.64638 14.9058, 5.65268 14.8417, 5.66184 14.7758, 5.67443 14.7083 L 7.08968 9.24883 C 7.14693 9.02326, 7.26143 8.85723, 7.43433 8.75017, 7.60723 8.64368, 7.78184 8.58987, 7.9576 8.58929, 8.14023 8.58987, 8.29137 8.64483, 8.41103 8.75418, 8.4929 8.83433, 8.53355 8.94081, 8.53355 9.07478, 8.53355 9.14234, 8.52725 9.21276, 8.51465 9.28547 L 7.09941 14.7449 C 6.99865 15.1239, 6.94827 15.46, 6.94827 15.7525, 6.94827 15.8327, 6.95456 15.918, 6.96716 16.009, 6.99865 16.3027, 7.14636 16.4493, 7.41085 16.4487, 7.67535 16.4493, 7.90321 16.2237, 8.095 15.7714, 8.28679 15.3197, 8.474 14.7392, 8.65606 14.0304, 8.69385 13.8724, 8.80091 13.7928, 8.97667 13.7923 L 9.19365 13.7923 C 9.2635 13.7928, 9.33277 13.814, 9.40147 13.8564, 9.42666 13.9119, 9.43926 13.9577, 9.43926 13.9938, 9.43926 14.019, 9.4301 14.0493, 9.41063 14.0854 Z" stroke="none" fill="#000000" />
			<rect />
		</svg>
	</g>
	<g transform="matrix(1 0 -0 1 9.66931 84.6813)">
		<svg width="125.98288" height="128.999969">
			<defs />
			<polyline points="-6.566 0 6.566 0" fill="none" stroke="#000000" stroke-width="0.750400007" stroke-linecap="round" stroke-linejoin="round" transform="matrix(1 0 0 1 6.566 11.2074)" />
			<polyline points="0 -6.566 0 6.566" fill="none" stroke="#000000" stroke-width="0.750400007" stroke-linecap="round" stroke-linejoin="round" transform="matrix(1 0 0 1 6.566 11.2074)" />
			<rect />
		</svg>
	</g>
	<g transform="matrix(1 0 -0 1 145.458 84.6813)">
		<svg width="125.98288" height="86.9571228">
			<defs />
			<polyline points="-6.566 0 6.566 0" fill="none" stroke="#000000" stroke-width="0.750400007" stroke-linecap="round" stroke-linejoin="round" transform="matrix(1 0 0 1 6.566 11.2074)" />
			<rect />
		</svg>
	</g>
	<path d="M -95.0524 0 L 95.0519 0" fill="none" stroke="#000000" stroke-width="2.24000001" stroke-linecap="round" stroke-linejoin="round" transform="matrix(0.714286 0 0 0.714286 84.1299 76.8763)" />
	<path d="M 2.25995 0 L -2.26028 0" fill="none" stroke="#000000" stroke-width="1.86666667" stroke-linecap="round" stroke-linejoin="round" marker-start="url(#CustomMarker-01)" transform="matrix(0.714286 0 0 0.714286 47.9459 76.8763)" />
	<ellipse cx="218.34137868881226" cy="455.40615224838257" rx="5.5999999046325684" ry="5.5999999046325684" stroke="none" fill="#000000" transform="matrix(0.714286 0 0 0.714286 -139.723 -248.414)" />
	<ellipse cx="218.34138083457947" cy="455.40615439414978" rx="3.7333333492279053" ry="3.7333333492279053" stroke="none" fill="#FFFFFF" transform="matrix(0.714286 0 0 0.714286 -139.723 -248.414)" />
	<ellipse cx="408.44570302963257" cy="455.40615224838257" rx="5.5999999046325684" ry="5.5999999046325684" stroke="none" fill="#000000" transform="matrix(0.714286 0 0 0.714286 -139.723 -248.414)" />
	<ellipse cx="408.44570517539978" cy="455.40615439414978" rx="3.7333333492279053" ry="3.7333333492279053" stroke="none" fill="#FFFFFF" transform="matrix(0.714286 0 0 0.714286 -139.723 -248.414)" />
	<g transform="matrix(1 0 -0 1 41.8351 46.2401)">
		<svg width="18.0512524" height="45.0428467">
			<defs />
			<path d="M 4.85574 5.20004 C 4.79907 5.43248, 4.66853 5.62656, 4.46415 5.78228, 4.25976 5.938, 4.0382 6.01586, 3.79889 6.01529, 3.54756 6.01586, 3.35577 5.93056, 3.22352 5.75881, 3.13535 5.66148, 3.08841 5.5424, 3.08154 5.40156, 3.08154 5.31683, 3.09413 5.23095, 3.11932 5.14507, 3.17657 4.91378, 3.30882 4.7197, 3.51607 4.56398, 3.72332 4.40825, 3.9466 4.33039, 4.18591 4.32982, 4.43781 4.33039, 4.6296 4.41284, 4.76128 4.57715, 4.84945 4.69394, 4.89353 4.81874, 4.89353 4.95271, 4.89353 5.03859, 4.88093 5.12103, 4.85574 5.20004 Z M 4.95937 14.0854 C 4.89067 14.4037, 4.78361 14.738, 4.63876 15.089, 4.49449 15.4405, 4.31644 15.7594, 4.10576 16.0462, 3.89507 16.3336, 3.64775 16.5729, 3.36493 16.7647, 3.08211 16.9571, 2.75463 17.0533, 2.38365 17.0533, 2.06934 17.0533, 1.79911 16.9863, 1.5724 16.8518, 1.34569 16.7178, 1.17107 16.5409, 1.04855 16.321, 0.926037 16.1012, 0.864779 15.8567, 0.864779 15.5877, 0.852184 15.5762, 0.845886 15.5516, 0.845886 15.5144, 0.845886 15.2401, 0.905999 14.959, 1.02508 14.6716 L 2.55368 10.6412 C 2.74261 10.1351, 2.8365 9.71943, 2.8365 9.39539, 2.8365 9.12116, 2.72028 8.98375, 2.48727 8.98318, 2.27373 8.98375, 2.08193 9.04501, 1.9119 9.16696, 1.74244 9.28947, 1.58671 9.45894, 1.44473 9.67535, 1.30332 9.89233, 1.17622 10.1488, 1.06287 10.4448, 0.94951 10.7414, 0.855046 11.0568, 0.779475 11.3923, 0.710774 11.5578, 0.594554 11.6431, 0.430816 11.6488 L 0.222995 11.6488 C 0.0718527 11.6494, -0.00371855 11.5732, -0.00371855 11.4198 L -0.00371855 11.3557 C 0.0718527 11.0202, 0.18521 10.6772, 0.336352 10.3257, 0.487495 9.97477, 0.669553 9.65588, 0.883672 9.36848, 1.09779 9.08165, 1.34626 8.84349, 1.62908 8.65399, 1.9119 8.46506, 2.23594 8.37002, 2.60063 8.36945, 2.91551 8.37002, 3.18287 8.43758, 3.40271 8.57155, 3.62313 8.70609, 3.79145 8.88471, 3.90767 9.10742, 4.02389 9.33069, 4.08801 9.58203, 4.1006 9.86256 L 4.1006 9.92668 C 4.1006 10.19, 4.04736 10.4614, 3.9403 10.7419 L 2.4117 14.7907 C 2.23594 15.2859, 2.14777 15.7073, 2.14777 16.0548, 2.13518 16.0674, 2.12888 16.0674, 2.12888 16.0548, 2.12888 16.3182, 2.24853 16.4493, 2.48727 16.4487, 2.70139 16.4493, 2.8949 16.3852, 3.0678 16.2569, 3.24069 16.1287, 3.39813 15.9581, 3.53954 15.7439, 3.68095 15.5304, 3.80519 15.2739, 3.91225 14.9745, 4.01931 14.6756, 4.11663 14.3608, 4.2048 14.0304, 4.24259 13.8724, 4.35251 13.7928, 4.53457 13.7923 L 4.74239 13.7923 C 4.81166 13.7928, 4.88093 13.814, 4.94964 13.8564, 4.9691 13.9056, 4.98456 13.9486, 4.99715 13.9846, 4.99715 14.0218, 4.98456 14.0556, 4.95937 14.0854 Z" stroke="none" fill="#000000" />
			<rect />
		</svg>
	</g>
	<g transform="matrix(1 0 -0 1 329.514 84.6813)">
		<svg width="32.9738617" height="32.9571342">
			<defs />
			<path d="M 9.41063 14.0854 C 9.34193 14.3671, 9.26006 14.6785, 9.1656 15.0203, 9.0717 15.3627, 8.94575 15.6798, 8.78831 15.973, 8.63144 16.2661, 8.43336 16.5197, 8.19405 16.7332, 7.95474 16.9468, 7.65589 17.0533, 7.2975 17.0533, 6.85724 17.0533, 6.50171 16.9405, 6.23148 16.7149, 5.96126 16.4894, 5.79409 16.2569, 5.73111 16.0182, 5.51756 16.2815, 5.23131 16.5197, 4.87292 16.7332, 4.51453 16.9468, 4.09889 17.0533, 3.62714 17.0533, 3.20005 17.0533, 2.81761 16.9743, 2.48097 16.8151, 2.14434 16.6571, 1.87869 16.4126, 1.68347 16.0823, 1.49511 15.7285, 1.40408 15.338, 1.40981 14.9098 L 1.40981 14.8365 C 1.4224 14.3911, 1.47908 13.9486, 1.57984 13.5083, 1.6806 13.0875, 1.82717 12.6238, 2.01896 12.1165, 2.21075 11.6099, 2.39452 11.1181, 2.57029 10.6412, 2.75921 10.1351, 2.85368 9.71943, 2.85368 9.39539, 2.85368 9.12116, 2.73746 8.98375, 2.50445 8.98318, 2.2909 8.98375, 2.09739 9.04501, 1.92449 9.16696, 1.7516 9.28947, 1.59416 9.45894, 1.45275 9.67535, 1.31134 9.89233, 1.18367 10.1488, 1.07031 10.4448, 0.956953 10.7414, 0.863061 11.0568, 0.78749 11.3923, 0.718216 11.5578, 0.601997 11.6431, 0.438259 11.6488 L 0.221278 11.6488 C 0.0701351 11.6494, -0.00543621 11.5732, -0.00543621 11.4198 L -0.00543621 11.3557 C 0.0827303 11.0202, 0.199522 10.6772, 0.343795 10.3257, 0.48864 9.97477, 0.67127 9.65588, 0.891114 9.36848, 1.11153 9.08165, 1.36343 8.84349, 1.64625 8.65399, 1.92907 8.46506, 2.25311 8.37002, 2.6178 8.36945, 2.93268 8.37002, 3.20119 8.43758, 3.42447 8.57155, 3.64775 8.70609, 3.81778 8.88471, 3.934 9.10742, 4.0508 9.33069, 4.11492 9.58203, 4.12751 9.86256 L 4.12751 9.92668 C 4.12751 10.19, 4.07427 10.4614, 3.96664 10.7419, 3.78458 11.2188, 3.60424 11.706, 3.42447 12.2035, 3.24527 12.7016, 3.10558 13.1488, 3.00482 13.5455, 2.90406 13.9428, 2.83478 14.3361, 2.797 14.7266, 2.77181 14.8308, 2.75635 14.9442, 2.75005 15.0655, 2.75005 15.3043, 2.79127 15.5396, 2.87257 15.7709, 2.92925 15.9792, 3.03287 16.1441, 3.18402 16.2661, 3.33516 16.3886, 3.51435 16.4493, 3.7216 16.4487, 4.13724 16.4493, 4.49907 16.3245, 4.80708 16.0737, 5.11509 15.8235, 5.38532 15.4903, 5.61775 15.0747, 5.63035 15.0266, 5.64008 14.9699, 5.64638 14.9058, 5.65268 14.8417, 5.66184 14.7758, 5.67443 14.7083 L 7.08968 9.24883 C 7.14693 9.02326, 7.26143 8.85723, 7.43433 8.75017, 7.60723 8.64368, 7.78184 8.58987, 7.9576 8.58929, 8.14023 8.58987, 8.29137 8.64483, 8.41103 8.75418, 8.4929 8.83433, 8.53355 8.94081, 8.53355 9.07478, 8.53355 9.14234, 8.52725 9.21276, 8.51465 9.28547 L 7.09941 14.7449 C 6.99865 15.1239, 6.94827 15.46, 6.94827 15.7525, 6.94827 15.8327, 6.95456 15.918, 6.96716 16.009, 6.99865 16.3027, 7.14636 16.4493, 7.41085 16.4487, 7.67535 16.4493, 7.90321 16.2237, 8.095 15.7714, 8.28679 15.3197, 8.474 14.7392, 8.65606 14.0304, 8.69385 13.8724, 8.80091 13.7928, 8.97667 13.7923 L 9.19365 13.7923 C 9.2635 13.7928, 9.33277 13.814, 9.40147 13.8564, 9.42666 13.9119, 9.43926 13.9577, 9.43926 13.9938, 9.43926 14.019, 9.4301 14.0493, 9.41063 14.0854 Z" stroke="none" fill="#000000" />
			<rect />
		</svg>
	</g>
	<g transform="matrix(1 0 -0 1 259.776 84.6813)">
		<svg width="125.98288" height="128.999969">
			<defs />
			<polyline points="-6.566 0 6.566 0" fill="none" stroke="#000000" stroke-width="0.750400007" stroke-linecap="round" stroke-linejoin="round" transform="matrix(1 0 0 1 6.566 11.2074)" />
			<polyline points="0 -6.566 0 6.566" fill="none" stroke="#000000" stroke-width="0.750400007" stroke-linecap="round" stroke-linejoin="round" transform="matrix(1 0 0 1 6.566 11.2074)" />
			<rect />
		</svg>
	</g>
	<g transform="matrix(1 0 -0 1 395.565 84.6813)">
		<svg width="125.98288" height="86.9571228">
			<defs />
			<polyline points="-6.566 0 6.566 0" fill="none" stroke="#000000" stroke-width="0.750400007" stroke-linecap="round" stroke-linejoin="round" transform="matrix(1 0 0 1 6.566 11.2074)" />
			<rect />
		</svg>
	</g>
	<path d="M -36.4092 0 L 36.409 0" fill="none" stroke="#000000" stroke-width="2.24000001" stroke-linecap="round" stroke-linejoin="round" transform="matrix(0.714286 0 0 0.714286 376.125 76.8763)" />
	<path d="M 2.26001 0 L -2.26031 0" fill="none" stroke="#000000" stroke-width="1.86666667" stroke-linecap="round" stroke-linejoin="round" marker-start="url(#CustomMarker-02)" transform="matrix(0.714286 0 0 0.714286 298.052 76.8763)" />
	<ellipse cx="568.49074697494507" cy="455.40615224838257" rx="5.5999999046325684" ry="5.5999999046325684" stroke="none" fill="#000000" transform="matrix(0.714286 0 0 0.714286 -139.723 -248.414)" />
	<ellipse cx="568.49071860313416" cy="455.40615439414978" rx="3.7333333492279053" ry="3.7333333492279053" stroke="none" fill="#FFFFFF" transform="matrix(0.714286 0 0 0.714286 -139.723 -248.414)" />
	<ellipse cx="758.59572744369507" cy="455.40615224838257" rx="5.5999999046325684" ry="5.5999999046325684" stroke="none" fill="#000000" transform="matrix(0.714286 0 0 0.714286 -139.723 -248.414)" />
	<ellipse cx="758.59569907188416" cy="455.40615439414978" rx="3.7333333492279053" ry="3.7333333492279053" stroke="none" fill="#FFFFFF" transform="matrix(0.714286 0 0 0.714286 -139.723 -248.414)" />
	<g transform="matrix(1 0 -0 1 291.942 46.2401)">
		<svg width="18.0512524" height="45.0428467">
			<defs />
			<path d="M 4.85574 5.20004 C 4.79907 5.43248, 4.66853 5.62656, 4.46415 5.78228, 4.25976 5.938, 4.0382 6.01586, 3.79889 6.01529, 3.54756 6.01586, 3.35577 5.93056, 3.22352 5.75881, 3.13535 5.66148, 3.08841 5.5424, 3.08154 5.40156, 3.08154 5.31683, 3.09413 5.23095, 3.11932 5.14507, 3.17657 4.91378, 3.30882 4.7197, 3.51607 4.56398, 3.72332 4.40825, 3.9466 4.33039, 4.18591 4.32982, 4.43781 4.33039, 4.6296 4.41284, 4.76128 4.57715, 4.84945 4.69394, 4.89353 4.81874, 4.89353 4.95271, 4.89353 5.03859, 4.88093 5.12103, 4.85574 5.20004 Z M 4.95937 14.0854 C 4.89067 14.4037, 4.78361 14.738, 4.63876 15.089, 4.49449 15.4405, 4.31644 15.7594, 4.10576 16.0462, 3.89507 16.3336, 3.64775 16.5729, 3.36493 16.7647, 3.08211 16.9571, 2.75463 17.0533, 2.38365 17.0533, 2.06934 17.0533, 1.79911 16.9863, 1.5724 16.8518, 1.34569 16.7178, 1.17107 16.5409, 1.04855 16.321, 0.926037 16.1012, 0.864779 15.8567, 0.864779 15.5877, 0.852184 15.5762, 0.845886 15.5516, 0.845886 15.5144, 0.845886 15.2401, 0.905999 14.959, 1.02508 14.6716 L 2.55368 10.6412 C 2.74261 10.1351, 2.8365 9.71943, 2.8365 9.39539, 2.8365 9.12116, 2.72028 8.98375, 2.48727 8.98318, 2.27373 8.98375, 2.08193 9.04501, 1.9119 9.16696, 1.74244 9.28947, 1.58671 9.45894, 1.44473 9.67535, 1.30332 9.89233, 1.17622 10.1488, 1.06287 10.4448, 0.94951 10.7414, 0.855046 11.0568, 0.779475 11.3923, 0.710774 11.5578, 0.594554 11.6431, 0.430816 11.6488 L 0.222995 11.6488 C 0.0718527 11.6494, -0.00371855 11.5732, -0.00371855 11.4198 L -0.00371855 11.3557 C 0.0718527 11.0202, 0.18521 10.6772, 0.336352 10.3257, 0.487495 9.97477, 0.669553 9.65588, 0.883672 9.36848, 1.09779 9.08165, 1.34626 8.84349, 1.62908 8.65399, 1.9119 8.46506, 2.23594 8.37002, 2.60063 8.36945, 2.91551 8.37002, 3.18287 8.43758, 3.40271 8.57155, 3.62313 8.70609, 3.79145 8.88471, 3.90767 9.10742, 4.02389 9.33069, 4.08801 9.58203, 4.1006 9.86256 L 4.1006 9.92668 C 4.1006 10.19, 4.04736 10.4614, 3.9403 10.7419 L 2.4117 14.7907 C 2.23594 15.2859, 2.14777 15.7073, 2.14777 16.0548, 2.13518 16.0674, 2.12888 16.0674, 2.12888 16.0548, 2.12888 16.3182, 2.24853 16.4493, 2.48727 16.4487, 2.70139 16.4493, 2.8949 16.3852, 3.0678 16.2569, 3.24069 16.1287, 3.39813 15.9581, 3.53954 15.7439, 3.68095 15.5304, 3.80519 15.2739, 3.91225 14.9745, 4.01931 14.6756, 4.11663 14.3608, 4.2048 14.0304, 4.24259 13.8724, 4.35251 13.7928, 4.53457 13.7923 L 4.74239 13.7923 C 4.81166 13.7928, 4.88093 13.814, 4.94964 13.8564, 4.9691 13.9056, 4.98456 13.9486, 4.99715 13.9846, 4.99715 14.0218, 4.98456 14.0556, 4.95937 14.0854 Z" stroke="none" fill="#000000" />
			<rect />
		</svg>
	</g>
	<path d="M -95.0521 44.8529 L 95.0521 44.8529" fill="none" stroke="#000000" stroke-width="1.86666667" stroke-linecap="round" stroke-linejoin="round" marker-end="url(#CustomMarker-03)" transform="matrix(0.714286 0 -0 0.714286 326.168 193.463)" />
	<path d="M -48.3975 88.1607 L -48.3975 -88.1607" fill="none" stroke="#000000" stroke-width="1.86666667" stroke-linecap="round" stroke-linejoin="round" marker-end="url(#CustomMarker-04)" transform="matrix(0.714286 0 -0 0.714286 326.168 193.463)" />
	<g transform="matrix(1 0 -0 1 401.54 215.042)">
		<svg width="18.0512524" height="45.0428467">
			<defs />
			<path d="M 4.85574 5.20004 C 4.79907 5.43248, 4.66853 5.62656, 4.46415 5.78228, 4.25976 5.938, 4.0382 6.01586, 3.79889 6.01529, 3.54756 6.01586, 3.35577 5.93056, 3.22352 5.75881, 3.13535 5.66148, 3.08841 5.5424, 3.08154 5.40156, 3.08154 5.31683, 3.09413 5.23095, 3.11932 5.14507, 3.17657 4.91378, 3.30882 4.7197, 3.51607 4.56398, 3.72332 4.40825, 3.9466 4.33039, 4.18591 4.32982, 4.43781 4.33039, 4.6296 4.41284, 4.76128 4.57715, 4.84945 4.69394, 4.89353 4.81874, 4.89353 4.95271, 4.89353 5.03859, 4.88093 5.12103, 4.85574 5.20004 Z M 4.95937 14.0854 C 4.89067 14.4037, 4.78361 14.738, 4.63876 15.089, 4.49449 15.4405, 4.31644 15.7594, 4.10576 16.0462, 3.89507 16.3336, 3.64775 16.5729, 3.36493 16.7647, 3.08211 16.9571, 2.75463 17.0533, 2.38365 17.0533, 2.06934 17.0533, 1.79911 16.9863, 1.5724 16.8518, 1.34569 16.7178, 1.17107 16.5409, 1.04855 16.321, 0.926037 16.1012, 0.864779 15.8567, 0.864779 15.5877, 0.852184 15.5762, 0.845886 15.5516, 0.845886 15.5144, 0.845886 15.2401, 0.905999 14.959, 1.02508 14.6716 L 2.55368 10.6412 C 2.74261 10.1351, 2.8365 9.71943, 2.8365 9.39539, 2.8365 9.12116, 2.72028 8.98375, 2.48727 8.98318, 2.27373 8.98375, 2.08193 9.04501, 1.9119 9.16696, 1.74244 9.28947, 1.58671 9.45894, 1.44473 9.67535, 1.30332 9.89233, 1.17622 10.1488, 1.06287 10.4448, 0.94951 10.7414, 0.855046 11.0568, 0.779475 11.3923, 0.710774 11.5578, 0.594554 11.6431, 0.430816 11.6488 L 0.222995 11.6488 C 0.0718527 11.6494, -0.00371855 11.5732, -0.00371855 11.4198 L -0.00371855 11.3557 C 0.0718527 11.0202, 0.18521 10.6772, 0.336352 10.3257, 0.487495 9.97477, 0.669553 9.65588, 0.883672 9.36848, 1.09779 9.08165, 1.34626 8.84349, 1.62908 8.65399, 1.9119 8.46506, 2.23594 8.37002, 2.60063 8.36945, 2.91551 8.37002, 3.18287 8.43758, 3.40271 8.57155, 3.62313 8.70609, 3.79145 8.88471, 3.90767 9.10742, 4.02389 9.33069, 4.08801 9.58203, 4.1006 9.86256 L 4.1006 9.92668 C 4.1006 10.19, 4.04736 10.4614, 3.9403 10.7419 L 2.4117 14.7907 C 2.23594 15.2859, 2.14777 15.7073, 2.14777 16.0548, 2.13518 16.0674, 2.12888 16.0674, 2.12888 16.0548, 2.12888 16.3182, 2.24853 16.4493, 2.48727 16.4487, 2.70139 16.4493, 2.8949 16.3852, 3.0678 16.2569, 3.24069 16.1287, 3.39813 15.9581, 3.53954 15.7439, 3.68095 15.5304, 3.80519 15.2739, 3.91225 14.9745, 4.01931 14.6756, 4.11663 14.3608, 4.2048 14.0304, 4.24259 13.8724, 4.35251 13.7928, 4.53457 13.7923 L 4.74239 13.7923 C 4.81166 13.7928, 4.88093 13.814, 4.94964 13.8564, 4.9691 13.9056, 4.98456 13.9486, 4.99715 13.9846, 4.99715 14.0218, 4.98456 14.0556, 4.95937 14.0854 Z" stroke="none" fill="#000000" />
			<rect />
		</svg>
	</g>
	<g transform="matrix(1 0 -0 1 272.77 125.295)">
		<svg width="32.9738617" height="32.9571342">
			<defs />
			<path d="M 9.41063 14.0854 C 9.34193 14.3671, 9.26006 14.6785, 9.1656 15.0203, 9.0717 15.3627, 8.94575 15.6798, 8.78831 15.973, 8.63144 16.2661, 8.43336 16.5197, 8.19405 16.7332, 7.95474 16.9468, 7.65589 17.0533, 7.2975 17.0533, 6.85724 17.0533, 6.50171 16.9405, 6.23148 16.7149, 5.96126 16.4894, 5.79409 16.2569, 5.73111 16.0182, 5.51756 16.2815, 5.23131 16.5197, 4.87292 16.7332, 4.51453 16.9468, 4.09889 17.0533, 3.62714 17.0533, 3.20005 17.0533, 2.81761 16.9743, 2.48097 16.8151, 2.14434 16.6571, 1.87869 16.4126, 1.68347 16.0823, 1.49511 15.7285, 1.40408 15.338, 1.40981 14.9098 L 1.40981 14.8365 C 1.4224 14.3911, 1.47908 13.9486, 1.57984 13.5083, 1.6806 13.0875, 1.82717 12.6238, 2.01896 12.1165, 2.21075 11.6099, 2.39452 11.1181, 2.57029 10.6412, 2.75921 10.1351, 2.85368 9.71943, 2.85368 9.39539, 2.85368 9.12116, 2.73746 8.98375, 2.50445 8.98318, 2.2909 8.98375, 2.09739 9.04501, 1.92449 9.16696, 1.7516 9.28947, 1.59416 9.45894, 1.45275 9.67535, 1.31134 9.89233, 1.18367 10.1488, 1.07031 10.4448, 0.956953 10.7414, 0.863061 11.0568, 0.78749 11.3923, 0.718216 11.5578, 0.601997 11.6431, 0.438259 11.6488 L 0.221278 11.6488 C 0.0701351 11.6494, -0.00543621 11.5732, -0.00543621 11.4198 L -0.00543621 11.3557 C 0.0827303 11.0202, 0.199522 10.6772, 0.343795 10.3257, 0.48864 9.97477, 0.67127 9.65588, 0.891114 9.36848, 1.11153 9.08165, 1.36343 8.84349, 1.64625 8.65399, 1.92907 8.46506, 2.25311 8.37002, 2.6178 8.36945, 2.93268 8.37002, 3.20119 8.43758, 3.42447 8.57155, 3.64775 8.70609, 3.81778 8.88471, 3.934 9.10742, 4.0508 9.33069, 4.11492 9.58203, 4.12751 9.86256 L 4.12751 9.92668 C 4.12751 10.19, 4.07427 10.4614, 3.96664 10.7419, 3.78458 11.2188, 3.60424 11.706, 3.42447 12.2035, 3.24527 12.7016, 3.10558 13.1488, 3.00482 13.5455, 2.90406 13.9428, 2.83478 14.3361, 2.797 14.7266, 2.77181 14.8308, 2.75635 14.9442, 2.75005 15.0655, 2.75005 15.3043, 2.79127 15.5396, 2.87257 15.7709, 2.92925 15.9792, 3.03287 16.1441, 3.18402 16.2661, 3.33516 16.3886, 3.51435 16.4493, 3.7216 16.4487, 4.13724 16.4493, 4.49907 16.3245, 4.80708 16.0737, 5.11509 15.8235, 5.38532 15.4903, 5.61775 15.0747, 5.63035 15.0266, 5.64008 14.9699, 5.64638 14.9058, 5.65268 14.8417, 5.66184 14.7758, 5.67443 14.7083 L 7.08968 9.24883 C 7.14693 9.02326, 7.26143 8.85723, 7.43433 8.75017, 7.60723 8.64368, 7.78184 8.58987, 7.9576 8.58929, 8.14023 8.58987, 8.29137 8.64483, 8.41103 8.75418, 8.4929 8.83433, 8.53355 8.94081, 8.53355 9.07478, 8.53355 9.14234, 8.52725 9.21276, 8.51465 9.28547 L 7.09941 14.7449 C 6.99865 15.1239, 6.94827 15.46, 6.94827 15.7525, 6.94827 15.8327, 6.95456 15.918, 6.96716 16.009, 6.99865 16.3027, 7.14636 16.4493, 7.41085 16.4487, 7.67535 16.4493, 7.90321 16.2237, 8.095 15.7714, 8.28679 15.3197, 8.474 14.7392, 8.65606 14.0304, 8.69385 13.8724, 8.80091 13.7928, 8.97667 13.7923 L 9.19365 13.7923 C 9.2635 13.7928, 9.33277 13.814, 9.40147 13.8564, 9.42666 13.9119, 9.43926 13.9577, 9.43926 13.9938, 9.43926 14.019, 9.4301 14.0493, 9.41063 14.0854 Z" stroke="none" fill="#000000" />
			<rect />
		</svg>
	</g>
	<g transform="matrix(1 0 -0 1 271.228 229.51)">
		<svg width="41.9788857" height="47.9999886">
			<defs />
			<path d="M 12.2634 10.4122 C 12.0367 11.2984, 11.6703 12.1532, 11.1642 12.9776, 10.6581 13.802, 10.0209 14.556, 9.25376 15.2396, 8.56217 15.8567, 7.80531 16.3474, 6.98433 16.7103, 6.16336 17.0733, 5.34123 17.2548, 4.51739 17.2548, 3.68725 17.2548, 2.94929 17.0722, 2.30464 16.7058, 1.65999 16.3394, 1.14588 15.8447, 0.762298 15.2212, 0.340931 14.5319, 0.0987594 13.7682, 0.0357833 12.9312, 0.0105929 12.7303, -0.00200236 12.5287, -0.00200236 12.3266, -0.00200236 11.698, 0.0798666 11.0477, 0.243032 10.3755, 0.482341 9.4784, 0.85161 8.60704, 1.35198 7.76087, 1.85236 6.91528, 2.49185 6.1504, 3.27161 5.46568, 3.96377 4.84966, 4.72006 4.35329, 5.54104 3.97773, 6.36202 3.60216, 7.19044 3.41438, 8.02687 3.41381, 8.85701 3.41438, 9.59154 3.60388, 10.2299 3.98231, 10.8688 4.36131, 11.3795 4.86168, 11.7631 5.484, 12.1844 6.17445, 12.4329 6.9439, 12.5085 7.79236, 12.5211 8.00075, 12.5274 8.20514, 12.5274 8.40609, 12.5274 9.0599, 12.4398 9.72859, 12.2634 10.4122 Z M 10.3576 5.79545 C 10.1503 5.28305, 9.83887 4.86626, 9.42323 4.54566, 9.00816 4.22505, 8.49862 4.06475, 7.89462 4.06418, 7.2975 4.06475, 6.70323 4.22849, 6.11183 4.55482, 5.521 4.88172, 4.99257 5.30423, 4.52655 5.82293, 3.94144 6.45269, 3.47943 7.13512, 3.13993 7.87079, 2.80043 8.60704, 2.53593 9.35302, 2.34701 10.1099, 2.12716 10.9349, 1.99205 11.7381, 1.94167 12.519, 1.92907 12.6661, 1.92278 12.8127, 1.92278 12.9587, 1.92278 13.5701, 2.02354 14.1684, 2.22449 14.7541, 2.41971 15.2739, 2.71856 15.709, 3.12104 16.06, 3.52351 16.4115, 4.02675 16.5867, 4.63017 16.5861, 5.25306 16.5867, 5.86222 16.4081, 6.45648 16.0508, 7.05075 15.6936, 7.58375 15.2522, 8.0555 14.7266, 8.6658 14.019, 9.14041 13.2707, 9.4799 12.4829, 9.81997 11.6952, 10.0965 10.8919, 10.31 10.0732, 10.5053 9.31066, 10.6278 8.55952, 10.6782 7.81984 L 10.6782 7.49924 C 10.6782 6.88894, 10.5717 6.32101, 10.3576 5.79545 Z" stroke="none" fill="#000000" />
			<rect />
		</svg>
	</g>
	<path d="M 0 67.337 L 0 -67.3365" fill="none" stroke="#E60000" stroke-width="4.66666651" stroke-linecap="round" stroke-linejoin="round" transform="matrix(0.714286 0 0 0.714286 291.598 199.384)" />
	<path d="M -95.0523 44.8529 L 95.0523 44.8529" fill="none" stroke="#000000" stroke-width="1.86666667" stroke-linecap="round" stroke-linejoin="round" marker-end="url(#CustomMarker-05)" transform="matrix(0.714286 0 -0 0.714286 76.0612 193.463)" />
	<path d="M -48.3976 88.1607 L -48.3976 -88.1607" fill="none" stroke="#000000" stroke-width="1.86666667" stroke-linecap="round" stroke-linejoin="round" marker-end="url(#CustomMarker-06)" transform="matrix(0.714286 0 -0 0.714286 76.0612 193.463)" />
	<g transform="matrix(1 0 -0 1 151.434 215.042)">
		<svg width="18.0512524" height="45.0428467">
			<defs />
			<path d="M 4.85574 5.20004 C 4.79907 5.43248, 4.66853 5.62656, 4.46415 5.78228, 4.25976 5.938, 4.0382 6.01586, 3.79889 6.01529, 3.54756 6.01586, 3.35577 5.93056, 3.22352 5.75881, 3.13535 5.66148, 3.08841 5.5424, 3.08154 5.40156, 3.08154 5.31683, 3.09413 5.23095, 3.11932 5.14507, 3.17657 4.91378, 3.30882 4.7197, 3.51607 4.56398, 3.72332 4.40825, 3.9466 4.33039, 4.18591 4.32982, 4.43781 4.33039, 4.6296 4.41284, 4.76128 4.57715, 4.84945 4.69394, 4.89353 4.81874, 4.89353 4.95271, 4.89353 5.03859, 4.88093 5.12103, 4.85574 5.20004 Z M 4.95937 14.0854 C 4.89067 14.4037, 4.78361 14.738, 4.63876 15.089, 4.49449 15.4405, 4.31644 15.7594, 4.10576 16.0462, 3.89507 16.3336, 3.64775 16.5729, 3.36493 16.7647, 3.08211 16.9571, 2.75463 17.0533, 2.38365 17.0533, 2.06934 17.0533, 1.79911 16.9863, 1.5724 16.8518, 1.34569 16.7178, 1.17107 16.5409, 1.04855 16.321, 0.926037 16.1012, 0.864779 15.8567, 0.864779 15.5877, 0.852184 15.5762, 0.845886 15.5516, 0.845886 15.5144, 0.845886 15.2401, 0.905999 14.959, 1.02508 14.6716 L 2.55368 10.6412 C 2.74261 10.1351, 2.8365 9.71943, 2.8365 9.39539, 2.8365 9.12116, 2.72028 8.98375, 2.48727 8.98318, 2.27373 8.98375, 2.08193 9.04501, 1.9119 9.16696, 1.74244 9.28947, 1.58671 9.45894, 1.44473 9.67535, 1.30332 9.89233, 1.17622 10.1488, 1.06287 10.4448, 0.94951 10.7414, 0.855046 11.0568, 0.779475 11.3923, 0.710774 11.5578, 0.594554 11.6431, 0.430816 11.6488 L 0.222995 11.6488 C 0.0718527 11.6494, -0.00371855 11.5732, -0.00371855 11.4198 L -0.00371855 11.3557 C 0.0718527 11.0202, 0.18521 10.6772, 0.336352 10.3257, 0.487495 9.97477, 0.669553 9.65588, 0.883672 9.36848, 1.09779 9.08165, 1.34626 8.84349, 1.62908 8.65399, 1.9119 8.46506, 2.23594 8.37002, 2.60063 8.36945, 2.91551 8.37002, 3.18287 8.43758, 3.40271 8.57155, 3.62313 8.70609, 3.79145 8.88471, 3.90767 9.10742, 4.02389 9.33069, 4.08801 9.58203, 4.1006 9.86256 L 4.1006 9.92668 C 4.1006 10.19, 4.04736 10.4614, 3.9403 10.7419 L 2.4117 14.7907 C 2.23594 15.2859, 2.14777 15.7073, 2.14777 16.0548, 2.13518 16.0674, 2.12888 16.0674, 2.12888 16.0548, 2.12888 16.3182, 2.24853 16.4493, 2.48727 16.4487, 2.70139 16.4493, 2.8949 16.3852, 3.0678 16.2569, 3.24069 16.1287, 3.39813 15.9581, 3.53954 15.7439, 3.68095 15.5304, 3.80519 15.2739, 3.91225 14.9745, 4.01931 14.6756, 4.11663 14.3608, 4.2048 14.0304, 4.24259 13.8724, 4.35251 13.7928, 4.53457 13.7923 L 4.74239 13.7923 C 4.81166 13.7928, 4.88093 13.814, 4.94964 13.8564, 4.9691 13.9056, 4.98456 13.9486, 4.99715 13.9846, 4.99715 14.0218, 4.98456 14.0556, 4.95937 14.0854 Z" stroke="none" fill="#000000" />
			<rect />
		</svg>
	</g>
	<g transform="matrix(1 0 -0 1 22.6636 125.295)">
		<svg width="32.9738617" height="32.9571342">
			<defs />
			<path d="M 9.41063 14.0854 C 9.34193 14.3671, 9.26006 14.6785, 9.1656 15.0203, 9.0717 15.3627, 8.94575 15.6798, 8.78831 15.973, 8.63144 16.2661, 8.43336 16.5197, 8.19405 16.7332, 7.95474 16.9468, 7.65589 17.0533, 7.2975 17.0533, 6.85724 17.0533, 6.50171 16.9405, 6.23148 16.7149, 5.96126 16.4894, 5.79409 16.2569, 5.73111 16.0182, 5.51756 16.2815, 5.23131 16.5197, 4.87292 16.7332, 4.51453 16.9468, 4.09889 17.0533, 3.62714 17.0533, 3.20005 17.0533, 2.81761 16.9743, 2.48097 16.8151, 2.14434 16.6571, 1.87869 16.4126, 1.68347 16.0823, 1.49511 15.7285, 1.40408 15.338, 1.40981 14.9098 L 1.40981 14.8365 C 1.4224 14.3911, 1.47908 13.9486, 1.57984 13.5083, 1.6806 13.0875, 1.82717 12.6238, 2.01896 12.1165, 2.21075 11.6099, 2.39452 11.1181, 2.57029 10.6412, 2.75921 10.1351, 2.85368 9.71943, 2.85368 9.39539, 2.85368 9.12116, 2.73746 8.98375, 2.50445 8.98318, 2.2909 8.98375, 2.09739 9.04501, 1.92449 9.16696, 1.7516 9.28947, 1.59416 9.45894, 1.45275 9.67535, 1.31134 9.89233, 1.18367 10.1488, 1.07031 10.4448, 0.956953 10.7414, 0.863061 11.0568, 0.78749 11.3923, 0.718216 11.5578, 0.601997 11.6431, 0.438259 11.6488 L 0.221278 11.6488 C 0.0701351 11.6494, -0.00543621 11.5732, -0.00543621 11.4198 L -0.00543621 11.3557 C 0.0827303 11.0202, 0.199522 10.6772, 0.343795 10.3257, 0.48864 9.97477, 0.67127 9.65588, 0.891114 9.36848, 1.11153 9.08165, 1.36343 8.84349, 1.64625 8.65399, 1.92907 8.46506, 2.25311 8.37002, 2.6178 8.36945, 2.93268 8.37002, 3.20119 8.43758, 3.42447 8.57155, 3.64775 8.70609, 3.81778 8.88471, 3.934 9.10742, 4.0508 9.33069, 4.11492 9.58203, 4.12751 9.86256 L 4.12751 9.92668 C 4.12751 10.19, 4.07427 10.4614, 3.96664 10.7419, 3.78458 11.2188, 3.60424 11.706, 3.42447 12.2035, 3.24527 12.7016, 3.10558 13.1488, 3.00482 13.5455, 2.90406 13.9428, 2.83478 14.3361, 2.797 14.7266, 2.77181 14.8308, 2.75635 14.9442, 2.75005 15.0655, 2.75005 15.3043, 2.79127 15.5396, 2.87257 15.7709, 2.92925 15.9792, 3.03287 16.1441, 3.18402 16.2661, 3.33516 16.3886, 3.51435 16.4493, 3.7216 16.4487, 4.13724 16.4493, 4.49907 16.3245, 4.80708 16.0737, 5.11509 15.8235, 5.38532 15.4903, 5.61775 15.0747, 5.63035 15.0266, 5.64008 14.9699, 5.64638 14.9058, 5.65268 14.8417, 5.66184 14.7758, 5.67443 14.7083 L 7.08968 9.24883 C 7.14693 9.02326, 7.26143 8.85723, 7.43433 8.75017, 7.60723 8.64368, 7.78184 8.58987, 7.9576 8.58929, 8.14023 8.58987, 8.29137 8.64483, 8.41103 8.75418, 8.4929 8.83433, 8.53355 8.94081, 8.53355 9.07478, 8.53355 9.14234, 8.52725 9.21276, 8.51465 9.28547 L 7.09941 14.7449 C 6.99865 15.1239, 6.94827 15.46, 6.94827 15.7525, 6.94827 15.8327, 6.95456 15.918, 6.96716 16.009, 6.99865 16.3027, 7.14636 16.4493, 7.41085 16.4487, 7.67535 16.4493, 7.90321 16.2237, 8.095 15.7714, 8.28679 15.3197, 8.474 14.7392, 8.65606 14.0304, 8.69385 13.8724, 8.80091 13.7928, 8.97667 13.7923 L 9.19365 13.7923 C 9.2635 13.7928, 9.33277 13.814, 9.40147 13.8564, 9.42666 13.9119, 9.43926 13.9577, 9.43926 13.9938, 9.43926 14.019, 9.4301 14.0493, 9.41063 14.0854 Z" stroke="none" fill="#000000" />
			<rect />
		</svg>
	</g>
	<g transform="matrix(1 0 -0 1 21.1213 229.51)">
		<svg width="41.9788857" height="47.9999886">
			<defs />
			<path d="M 12.2634 10.4122 C 12.0367 11.2984, 11.6703 12.1532, 11.1642 12.9776, 10.6581 13.802, 10.0209 14.556, 9.25376 15.2396, 8.56217 15.8567, 7.80531 16.3474, 6.98433 16.7103, 6.16336 17.0733, 5.34123 17.2548, 4.51739 17.2548, 3.68725 17.2548, 2.94929 17.0722, 2.30464 16.7058, 1.65999 16.3394, 1.14588 15.8447, 0.762298 15.2212, 0.340931 14.5319, 0.0987594 13.7682, 0.0357833 12.9312, 0.0105929 12.7303, -0.00200236 12.5287, -0.00200236 12.3266, -0.00200236 11.698, 0.0798666 11.0477, 0.243032 10.3755, 0.482341 9.4784, 0.85161 8.60704, 1.35198 7.76087, 1.85236 6.91528, 2.49185 6.1504, 3.27161 5.46568, 3.96377 4.84966, 4.72006 4.35329, 5.54104 3.97773, 6.36202 3.60216, 7.19044 3.41438, 8.02687 3.41381, 8.85701 3.41438, 9.59154 3.60388, 10.2299 3.98231, 10.8688 4.36131, 11.3795 4.86168, 11.7631 5.484, 12.1844 6.17445, 12.4329 6.9439, 12.5085 7.79236, 12.5211 8.00075, 12.5274 8.20514, 12.5274 8.40609, 12.5274 9.0599, 12.4398 9.72859, 12.2634 10.4122 Z M 10.3576 5.79545 C 10.1503 5.28305, 9.83887 4.86626, 9.42323 4.54566, 9.00816 4.22505, 8.49862 4.06475, 7.89462 4.06418, 7.2975 4.06475, 6.70323 4.22849, 6.11183 4.55482, 5.521 4.88172, 4.99257 5.30423, 4.52655 5.82293, 3.94144 6.45269, 3.47943 7.13512, 3.13993 7.87079, 2.80043 8.60704, 2.53593 9.35302, 2.34701 10.1099, 2.12716 10.9349, 1.99205 11.7381, 1.94167 12.519, 1.92907 12.6661, 1.92278 12.8127, 1.92278 12.9587, 1.92278 13.5701, 2.02354 14.1684, 2.22449 14.7541, 2.41971 15.2739, 2.71856 15.709, 3.12104 16.06, 3.52351 16.4115, 4.02675 16.5867, 4.63017 16.5861, 5.25306 16.5867, 5.86222 16.4081, 6.45648 16.0508, 7.05075 15.6936, 7.58375 15.2522, 8.0555 14.7266, 8.6658 14.019, 9.14041 13.2707, 9.4799 12.4829, 9.81997 11.6952, 10.0965 10.8919, 10.31 10.0732, 10.5053 9.31066, 10.6278 8.55952, 10.6782 7.81984 L 10.6782 7.49924 C 10.6782 6.88894, 10.5717 6.32101, 10.3576 5.79545 Z" stroke="none" fill="#000000" />
			<rect />
		</svg>
	</g>
	<path d="M -72.8864 0 L 72.8864 0" fill="none" stroke="#E60000" stroke-width="4.66666651" stroke-linecap="round" stroke-linejoin="round" transform="matrix(0.714286 0 0 0.714286 71.0323 225.5)" />
	<g transform="matrix(1 0 -0 1 65.1299 9)">
		<svg width="116.977867" height="60.0856972">
			<defs />
			<path d="M 2.03438 19.292 C 1.53744 18.6634, 1.00329 18.0405, 0.430781 17.4233, 1.34909 16.4592, 2.02236 15.5278, 2.44945 14.6295, 2.88341 13.7261, 3.1731 12.6452, 3.31795 11.3868 L 0.562458 11.3868, 0.562458 9.24333, 3.44963 9.24333 C 3.47482 8.50479, 3.50001 7.41817, 3.5252 5.98231 L 3.14791 5.98231 C 2.73914 7.00882, 2.35556 7.84526, 1.9966 8.4922 L 0.374103 7.04489 C 1.2489 5.5495, 1.88381 3.75067, 2.27999 1.64956 L 4.41201 1.94268 C 4.39369 2.00451, 4.3685 2.09612, 4.33644 2.21749, 4.14179 2.95717, 3.99065 3.50678, 3.88359 3.86632 L 7.21445 3.86632, 7.21445 5.98231, 5.64806 5.98231 C 5.63547 6.8926, 5.60398 7.9798, 5.5536 9.24333 L 7.62952 9.24333, 7.62952 11.3868, 5.44081 11.3868, 5.32746 12.3944 C 5.79291 12.8467, 6.39347 13.4667, 7.12915 14.2539, 7.56368 14.7188, 7.89402 15.0669, 8.12016 15.2982 L 6.68602 17.1485 C 6.04481 16.331, 5.40589 15.5615, 4.7704 14.8402, 4.50648 15.5856, 4.15438 16.3184, 3.71412 17.0386, 3.28646 17.7291, 2.72655 18.4802, 2.03438 19.292 Z M 7.30891 18.5226 L 7.30891 16.3974, 12.9132 16.3974 C 13.6426 14.9936, 14.2369 13.7719, 14.696 12.7333 L 17.0359 13.3929 C 16.4576 14.4377, 15.8725 15.439, 15.2811 16.3974 L 18.1683 16.3974, 18.1683 18.5226 Z M 10.0827 16.3058 C 9.69284 15.4207, 9.23369 14.456, 8.70526 13.4112 L 10.8373 12.6967 C 11.5358 13.9797, 12.0201 14.8957, 12.2903 15.4448 Z M 8.28962 12.4677 L 8.28962 5.98231, 17.3759 5.98231, 17.3759 12.4677 Z M 10.5545 10.4525 L 15.1116 10.4525, 15.1116 7.99755, 10.5545 7.99755 Z M 7.74288 4.62661 L 7.74288 2.51061, 18.1305 2.51061, 18.1305 4.62661 Z" stroke="none" fill="#000000" />
			<path d="M 27.9158 19.2371 L 27.9158 11.9181, 36.4164 11.9181, 36.4164 19.2371, 34.1332 19.2371, 34.1332 18.2294, 30.1801 18.2294, 30.1801 19.2371 Z M 20.0753 18.6691 L 19.698 16.1959, 20.4148 16.1226, 20.4148 9.95782, 22.1317 9.95782, 22.1317 15.9211, 23.1886 15.7745, 23.1886 8.84028, 20.5281 8.84028, 20.5281 2.34573, 26.7645 2.34573, 26.7645 6.11055 C 27.4881 5.36629, 28.0887 4.63634, 28.5667 3.92128, 29.0196 3.23198, 29.4255 2.46252, 29.7839 1.61292 L 32.2176 1.83276 C 31.8592 2.49287, 31.589 2.99381, 31.4064 3.33503 L 36.6242 3.33503, 36.6242 5.4327 C 35.8823 6.75864, 35.0578 7.82694, 34.1521 8.63876, 35.0956 9.01776, 36.2218 9.31718, 37.5299 9.53645, 37.511 9.57996, 37.4859 9.64408, 37.4544 9.72882, 37.1401 10.6151, 36.9196 11.2654, 36.7937 11.6799, 34.9193 11.2345, 33.4004 10.6912, 32.2365 10.0494, 30.9535 10.7708, 29.3625 11.3811, 27.4629 11.8815, 27.4566 11.8637, 27.4469 11.8391, 27.4343 11.8082, 27.1074 10.9357, 26.84 10.2761, 26.6322 9.82958, 28.1104 9.49409, 29.3499 9.09734, 30.3495 8.63876, 29.8526 8.17502, 29.3682 7.58305, 28.8965 6.86169, 28.6766 7.11245, 28.3246 7.48515, 27.8402 7.97923 L 26.7645 6.29376, 26.7645 8.84028, 25.217 8.84028, 25.217 10.8372, 26.8967 10.8372, 26.8967 12.8433, 25.217 12.8433, 25.217 15.4997, 27.0851 15.2249 C 27.0542 16.0499, 27.0479 16.8193, 27.0662 17.5333, 24.9153 17.851, 22.5851 18.2294, 20.0753 18.6691 Z M 30.1801 16.1776 L 34.1332 16.1776, 34.1332 13.9791, 30.1801 13.9791 Z M 32.1987 7.55786 C 32.9224 6.9968, 33.5739 6.25139, 34.1521 5.32278 L 30.2367 5.32278 C 30.7966 6.24567, 31.4505 6.9905, 32.1987 7.55786 Z M 22.6224 6.80673 L 24.6697 6.80673, 24.6697 4.37013, 22.6224 4.37013 Z" stroke="none" fill="#000000" />
			<rect />
		</svg>
	</g>
	<g transform="matrix(1 0 -0 1 315.237 9)">
		<svg width="116.977867" height="60.0856972">
			<defs />
			<path d="M 2.9212 19.292 C 2.52502 18.8649, 1.87751 18.2294, 0.9781 17.3867, 1.909 16.7707, 2.61662 16.2148, 3.10039 15.7196, 3.62939 15.1768, 4.01641 14.5814, 4.26144 13.9333, 4.49388 13.311, 4.64503 12.5169, 4.7143 11.5517 L 0.713601 11.5517, 0.713601 9.22501, 4.7704 9.22501, 4.7704 4.88309, 1.60042 4.88309, 1.60042 2.62054, 17.4887 2.62054, 17.4887 4.88309, 14.6021 4.88309, 14.6021 9.22501, 18.2438 9.22501, 18.2438 11.5517, 14.6021 11.5517, 14.6021 18.9256, 12.0453 18.9256, 12.0453 11.5517, 7.29002 11.5517 C 7.22075 12.8347, 7.04785 13.8944, 6.77075 14.7303, 6.48164 15.6039, 6.02878 16.398, 5.41219 17.1119, 4.83395 17.784, 4.00324 18.5105, 2.9212 19.292 Z M 7.32781 9.22501 L 12.0453 9.22501, 12.0453 4.88309, 7.32781 4.88309 Z" stroke="none" fill="#000000" />
			<path d="M 27.9158 19.2371 L 27.9158 11.9181, 36.4164 11.9181, 36.4164 19.2371, 34.1332 19.2371, 34.1332 18.2294, 30.1801 18.2294, 30.1801 19.2371 Z M 20.0753 18.6691 L 19.698 16.1959, 20.4148 16.1226, 20.4148 9.95782, 22.1317 9.95782, 22.1317 15.9211, 23.1886 15.7745, 23.1886 8.84028, 20.5281 8.84028, 20.5281 2.34573, 26.7645 2.34573, 26.7645 6.11055 C 27.4881 5.36629, 28.0887 4.63634, 28.5667 3.92128, 29.0196 3.23198, 29.4255 2.46252, 29.7839 1.61292 L 32.2176 1.83276 C 31.8592 2.49287, 31.589 2.99381, 31.4064 3.33503 L 36.6242 3.33503, 36.6242 5.4327 C 35.8823 6.75864, 35.0578 7.82694, 34.1521 8.63876, 35.0956 9.01776, 36.2218 9.31718, 37.5299 9.53645, 37.511 9.57996, 37.4859 9.64408, 37.4544 9.72882, 37.1401 10.6151, 36.9196 11.2654, 36.7937 11.6799, 34.9193 11.2345, 33.4004 10.6912, 32.2365 10.0494, 30.9535 10.7708, 29.3625 11.3811, 27.4629 11.8815, 27.4566 11.8637, 27.4469 11.8391, 27.4343 11.8082, 27.1074 10.9357, 26.84 10.2761, 26.6322 9.82958, 28.1104 9.49409, 29.3499 9.09734, 30.3495 8.63876, 29.8526 8.17502, 29.3682 7.58305, 28.8965 6.86169, 28.6766 7.11245, 28.3246 7.48515, 27.8402 7.97923 L 26.7645 6.29376, 26.7645 8.84028, 25.217 8.84028, 25.217 10.8372, 26.8967 10.8372, 26.8967 12.8433, 25.217 12.8433, 25.217 15.4997, 27.0851 15.2249 C 27.0542 16.0499, 27.0479 16.8193, 27.0662 17.5333, 24.9153 17.851, 22.5851 18.2294, 20.0753 18.6691 Z M 30.1801 16.1776 L 34.1332 16.1776, 34.1332 13.9791, 30.1801 13.9791 Z M 32.1987 7.55786 C 32.9224 6.9968, 33.5739 6.25139, 34.1521 5.32278 L 30.2367 5.32278 C 30.7966 6.24567, 31.4505 6.9905, 32.1987 7.55786 Z M 22.6224 6.80673 L 24.6697 6.80673, 24.6697 4.37013, 22.6224 4.37013 Z" stroke="none" fill="#000000" />
			<rect />
		</svg>
	</g>
</svg>
