<?xml version="1.0"?>
<svg xmlns="http://www.w3.org/2000/svg" xmlns:xlink="http://www.w3.org/1999/xlink" width="334.368866" height="141.441269">
	<defs>
		<marker id="CustomMarker-01" markerUnits="strokeWidth" markerWidth="14.25" markerHeight="13.5" viewBox="-14.25 -6.75 14.25 13.5" orient="auto-start-reverse">
			<path d="M -9.5 -4.5 L 0 -0, -9.5 4.5" fill="none" stroke="#000000" stroke-linejoin="round" />
		</marker>
	</defs>
	<path d="M -568.121 0 L 568.121 0" fill="none" stroke="#000000" stroke-width="6.66666698" stroke-linecap="round" stroke-linejoin="round" transform="matrix(0.2 0 0 0.2 174.924 132.941)" />
	<path d="M -568.121 0 L 568.121 0" fill="none" stroke="#000000" stroke-width="6.66666698" stroke-linecap="round" stroke-linejoin="round" transform="matrix(0.2 0 0 0.2 174.924 8.50002)" />
	<g transform="matrix(1 0 -0 1 8.99999 59.5135)">
		<svg width="81.075737" height="48.0957298">
			<defs />
			<path d="M 8.50389 13.3826 C 8.50389 13.8977, 8.38999 14.392, 8.1622 14.8644, 7.93441 15.3374, 7.6292 15.7413, 7.24656 16.0757, 6.8151 16.4533, 6.33876 16.7327, 5.8181 16.9151, 5.29743 17.098, 4.75321 17.1888, 4.18598 17.1888, 3.67429 17.1888, 3.17551 17.117, 2.68851 16.9734, 2.20151 16.8298, 1.76276 16.6239, 1.37114 16.3546, 0.97952 16.0852, 0.66701 15.7548, 0.432487 15.3626, 0.197964 14.971, 0.0807031 14.5204, 0.0807031 14.011, 0.0807031 13.6284, 0.208625 13.3428, 0.464468 13.1543, 0.720311 12.9658, 0.990181 12.8715, 1.27352 12.8709, 1.56975 12.8715, 1.84524 12.9658, 2.10108 13.1543, 2.35692 13.3428, 2.48484 13.6284, 2.48484 14.011, 2.48484 14.2388, 2.44052 14.429, 2.35075 14.5816, 2.26154 14.7342, 2.14765 14.8616, 2.0085 14.9631, 1.86992 15.0652, 1.71114 15.1275, 1.53216 15.1511, 1.44015 15.1758, 1.35375 15.1875, 1.27352 15.187, 1.19385 15.1875, 1.1815 15.1937, 1.23649 15.2049, 1.42781 15.5405, 1.80372 15.8373, 2.36478 16.0942, 2.92584 16.3517, 3.5329 16.4802, 4.18598 16.4797, 4.49456 16.4802, 4.78238 16.4039, 5.05057 16.2513, 5.31875 16.0987, 5.54262 15.8939, 5.72103 15.6358, 5.94321 15.3014, 6.09414 14.9424, 6.17437 14.5592, 6.2546 14.1765, 6.29444 13.7843, 6.29444 13.3826, 6.29444 12.9702, 6.2546 12.5741, 6.17437 12.1937, 6.09414 11.8139, 5.94321 11.4621, 5.72103 11.1384, 5.53588 10.8758, 5.3109 10.6632, 5.04608 10.5016, 4.78126 10.34, 4.49456 10.2592, 4.18598 10.2586 L 2.8456 10.2586 C 2.66719 10.2592, 2.57125 10.1756, 2.5589 10.0073 L 2.5589 9.90854 C 2.5589 9.83728, 2.58078 9.78062, 2.62342 9.73798, 2.67897 9.68468, 2.74966 9.65775, 2.83607 9.65718, 3.01504 9.63362, 3.20019 9.62184, 3.39095 9.62128, 3.5761 9.62184, 3.75789 9.61005, 3.9363 9.58537, 4.26957 9.5618, 4.55908 9.45913, 4.80595 9.27623, 5.05281 9.09388, 5.25928 8.86048, 5.42536 8.57602, 5.59143 8.29213, 5.71767 7.96447, 5.80407 7.59305, 5.89047 7.22219, 5.93368 6.84179, 5.93368 6.45241, 5.93368 6.16571, 5.90282 5.8936, 5.8411 5.63607, 5.77938 5.37911, 5.66549 5.15412, 5.49886 4.96224, 5.1538 4.56781, 4.71618 4.37313, 4.18598 4.37874, 3.61931 4.3793, 3.09976 4.4859, 2.62847 4.69798, 2.15718 4.91062, 1.84075 5.13953, 1.68028 5.38415, 1.63764 5.39089, 1.65896 5.39369, 1.74537 5.39313, 1.96755 5.39369, 2.17682 5.45934, 2.37375 5.59062, 2.66999 5.76455, 2.81755 6.05799, 2.81755 6.47037, 2.81755 6.81822, 2.70534 7.08024, 2.48035 7.25641, 2.25537 7.43314, 2.00401 7.52123, 1.72685 7.52067, 1.4553 7.52123, 1.20114 7.43483, 0.963811 7.2609, 0.726483 7.08753, 0.607538 6.82383, 0.607538 6.47037, 0.607538 6.03386, 0.712456 5.64841, 0.922292 5.3129, 1.13213 4.97795, 1.40144 4.69069, 1.73134 4.45111, 2.06124 4.2121, 2.44164 4.0292, 2.8731 3.90352, 3.30511 3.77784, 3.74274 3.715, 4.18598 3.71444, 4.66063 3.715, 5.12014 3.77784, 5.56394 3.90352, 6.00774 4.0292, 6.42685 4.22388, 6.82127 4.48646, 7.1422 4.71425, 7.41151 4.99422, 7.63032 5.32637, 7.84913 5.65851, 7.95854 6.03386, 7.95854 6.45241, 7.95854 6.87208, 7.88336 7.26707, 7.73243 7.63793, 7.58151 8.00935, 7.38121 8.34431, 7.13154 8.64335, 6.88187 8.94296, 6.58451 9.20609, 6.23889 9.43332, 5.89384 9.66111, 5.63463 9.80418, 5.46182 9.86365, 5.60994 9.88217, 5.86298 9.97082, 6.22038 10.129, 6.57833 10.2878, 6.92002 10.4988, 7.24656 10.7613, 7.6292 11.0913, 7.93441 11.4846, 8.1622 11.9424, 8.38999 12.4002, 8.50389 12.8805, 8.50389 13.3826 Z" stroke="none" fill="#000000" />
			<path d="M 25.2262 4.57714 C 24.937 4.57772, 24.6823 4.59947, 24.4624 4.64184, 24.2426 4.68478, 24.0376 4.75806, 23.8487 4.86111, 23.5344 5.05118, 23.2956 5.33801, 23.1319 5.72216 L 18.7642 16.98 C 18.6829 17.1575, 18.5444 17.2428, 18.3492 17.2365 L 18.1986 17.2365 C 18.0039 17.2365, 17.8654 17.1512, 17.7835 16.98 L 13.2086 5.19087 C 13.1582 5.07523, 13.1015 4.9716, 13.0386 4.88, 12.9756 4.7884, 12.8846 4.72142, 12.7649 4.67791, 12.6206 4.62352, 12.418 4.59317, 12.1569 4.58688, 11.8958 4.58115, 11.6176 4.57772, 11.3216 4.57714 L 11.3216 3.81685 C 12.1334 3.86036, 12.9097 3.88154, 13.6517 3.88097, 13.7651 3.88154, 13.8882 3.87525, 14.0198 3.86265, 14.8815 3.86322, 15.7837 3.8512, 16.7272 3.82601 L 16.7272 4.57714 C 16.4444 4.57772, 16.1925 4.58401, 15.9727 4.59604, 15.7528 4.60863, 15.5542 4.65386, 15.3778 4.73287, 15.2965 4.77638, 15.2336 4.8342, 15.1895 4.90691, 15.158 4.95615, 15.142 5.00195, 15.142 5.04431, 15.142 5.0695, 15.1454 5.09698, 15.1517 5.12675 L 18.8495 14.5984, 22.3396 5.64888 C 22.371 5.57617, 22.3865 5.49373, 22.3865 5.40156, 22.3865 5.22522, 22.3018 5.06034, 22.1323 4.90691, 21.988 4.77924, 21.826 4.69222, 21.6462 4.64642, 21.4671 4.60062, 21.2392 4.57772, 20.9621 4.57714 L 20.9621 3.82601 C 21.7235 3.8512, 22.4403 3.86322, 23.113 3.86265, 23.2012 3.87525, 23.2956 3.88154, 23.3958 3.88097, 23.9746 3.88154, 24.5849 3.86036, 25.2262 3.81685 L 25.2262 4.57714 Z" stroke="none" fill="#000000" />
			<rect />
		</svg>
	</g>
	<path d="M 0 311.103 L 0 -311.103" fill="none" stroke="#000000" stroke-width="6.66666698" stroke-linecap="round" stroke-linejoin="round" transform="matrix(0.2 0 0 0.2 61.3 70.7207)" />
	<path d="M 85.5683 -0 C 85.5683 47.2571, 47.2581 85.5665, -0 85.5665, -47.2581 85.5665, -85.5683 47.2571, -85.5683 -0, -85.5683 -47.2571, -47.2581 -85.5665, -0 -85.5665, 47.2581 -85.5665, 85.5683 -47.2571, 85.5683 -0 Z" fill="none" stroke="#000000" stroke-width="6.66666698" stroke-linecap="round" stroke-linejoin="round" transform="matrix(0.2 0 -0 0.2 61.3 70.7209)" />
	<g transform="matrix(1 0 -0 1 39.3243 33.6144)">
		<svg width="119.826561" height="119.904221">
			<defs />
			<polyline points="-5.628 0 5.628 0" fill="none" stroke="#000000" stroke-width="0.64319998" stroke-linecap="round" stroke-linejoin="round" transform="matrix(1 0 0 1 5.628 9.60638)" />
			<polyline points="0 -5.628 0 5.628" fill="none" stroke="#000000" stroke-width="0.64319998" stroke-linecap="round" stroke-linejoin="round" transform="matrix(1 0 0 1 5.628 9.60638)" />
			<rect />
		</svg>
	</g>
	<g transform="matrix(1 0 -0 1 38.7689 88.6145)">
		<svg width="119.826561" height="83.9999847">
			<defs />
			<polyline points="-5.628 0 5.628 0" fill="none" stroke="#000000" stroke-width="0.64319998" stroke-linecap="round" stroke-linejoin="round" transform="matrix(1 0 0 1 5.628 9.60638)" />
			<rect />
		</svg>
	</g>
	<path d="M 0 112.769 L 0 -112.768" fill="none" stroke="#000000" stroke-width="6.66666698" stroke-linecap="round" stroke-linejoin="round" transform="matrix(0.2 0 0 0.2 174.924 31.0537)" />
	<g transform="matrix(1 0 -0 1 300.987 24.9896)">
		<svg width="77.9182587" height="45.2233963">
			<defs />
			<path d="M 6.82472 16.7669 C 5.69082 16.731, 4.58721 16.7131, 3.51447 16.7131, 2.44228 16.7131, 1.33868 16.731, 0.204215 16.7669 L 0.204215 15.9949, 0.842701 15.9949 C 1.0458 15.9955, 1.23713 15.9927, 1.41554 15.9865, 1.59452 15.9809, 1.76396 15.9657, 1.92442 15.9416, 2.08489 15.918, 2.22347 15.8939, 2.34017 15.8692, 2.43892 15.8518, 2.52083 15.7969, 2.58535 15.7037, 2.65043 15.6111, 2.68242 15.5079, 2.68242 15.3935 L 2.68242 5.27643 C 2.37439 5.4268, 1.99512 5.54069, 1.54515 5.61812, 1.09518 5.6961, 0.602006 5.73482, 0.0656334 5.73426 L 0.0656334 4.97122 C 0.805671 4.97178, 1.48848 4.88369, 2.11406 4.70696, 2.73964 4.53078, 3.2805 4.19976, 3.73665 3.71444 L 4.02335 3.71444 C 4.22645 3.715, 4.328 3.81375, 4.328 4.01068 L 4.328 15.3935 C 4.328 15.5135, 4.35886 15.6184, 4.42058 15.7082, 4.48229 15.798, 4.57206 15.8518, 4.68876 15.8692, 4.78751 15.8939, 4.91431 15.918, 5.06804 15.9416, 5.22233 15.9657, 5.39626 15.9809, 5.59039 15.9865, 5.78451 15.9927, 5.97415 15.9955, 6.15874 15.9949 L 6.82472 15.9949, 6.82472 16.7669 Z" stroke="none" fill="#000000" />
			<path d="M 24.0685 16.8334 C 23.251 16.7911, 22.4621 16.7693, 21.7006 16.7693 L 21.3325 16.7693 C 20.4457 16.7819, 19.524 16.8002, 18.5679 16.8243 L 18.5679 16.064 C 18.8513 16.0646, 19.106 16.0542, 19.3322 16.0325, 19.5589 16.0113, 19.7598 15.9667, 19.9362 15.8991, 20.018 15.8567, 20.0902 15.7926, 20.1531 15.7067, 20.1783 15.677, 20.1909 15.6369, 20.1909 15.5877, 20.1909 15.5636, 20.1881 15.5361, 20.1812 15.5052 L 19.1152 12.5465, 14.4824 12.5465, 13.6053 15.0014 C 13.5739 15.0753, 13.5578 15.1457, 13.5578 15.2121, 13.5578 15.2739, 13.5676 15.3346, 13.5865 15.3953, 13.6368 15.5304, 13.7187 15.6403, 13.8315 15.7251, 13.9952 15.8602, 14.1698 15.9501, 14.3553 15.9959, 14.5408 16.0417, 14.7658 16.0646, 15.0298 16.064 L 15.0298 16.8243 C 14.2689 16.8002, 13.5424 16.7819, 12.8502 16.7693 L 12.5582 16.7693 C 11.9542 16.7693, 11.325 16.7911, 10.6712 16.8334 L 10.6712 16.064 C 10.9735 16.0646, 11.2357 16.0451, 11.459 16.005, 11.6823 15.9655, 11.8976 15.8876, 12.1048 15.7709, 12.4449 15.5819, 12.6836 15.3043, 12.8222 14.9373 L 16.8979 3.4596 C 16.9608 3.27697, 17.0931 3.18824, 17.294 3.19396 L 17.4452 3.19396 C 17.6467 3.19453, 17.7784 3.28327, 17.8413 3.4596 L 22.1249 15.4502 C 22.1569 15.567, 22.2056 15.6707, 22.2714 15.7623, 22.3378 15.8539, 22.4272 15.9151, 22.5399 15.9449, 22.7037 16.0067, 22.9195 16.0417, 23.1869 16.0508, 23.4542 16.06, 23.7479 16.0646, 24.0685 16.064 L 24.0685 16.8334 Z M 16.8131 6.04277 L 14.7561 11.7862, 18.8415 11.7862 Z" stroke="none" fill="#000000" />
			<rect />
		</svg>
	</g>
	<path d="M 0 112.769 L 0 -112.768" fill="none" stroke="#000000" stroke-width="6.66666698" stroke-linecap="round" stroke-linejoin="round" transform="matrix(0.2 0 0 0.2 288.548 31.0537)" />
	<path d="M 85.5682 -0 C 85.5682 47.2571, 47.258 85.5665, -0 85.5665, -47.258 85.5665, -85.5682 47.2571, -85.5682 -0, -85.5682 -47.2571, -47.258 -85.5665, -0 -85.5665, 47.258 -85.5665, 85.5682 -47.2571, 85.5682 -0 Z" fill="none" stroke="#000000" stroke-width="6.66666698" stroke-linecap="round" stroke-linejoin="round" transform="matrix(0.2 0 -0 0.2 288.548 70.7209)" />
	<path d="M 0 112.768 L 0 -112.769" fill="none" stroke="#000000" stroke-width="6.66666698" stroke-linecap="round" stroke-linejoin="round" transform="matrix(0.2 0 0 0.2 288.548 110.388)" />
	<path d="M -85.5677 0 L 85.5687 0" fill="none" stroke="#000000" stroke-width="6.66666698" stroke-linecap="round" stroke-linejoin="round" transform="matrix(0.2 0 0 0.2 288.548 70.7209)" />
	<ellipse cx="1256.9422607421875" cy="373.45846557617187" rx="13.125" ry="13.125" stroke="none" fill="#000000" transform="matrix(0.2 0 0 0.2 -76.4642 -66.1917)" />
	<ellipse cx="1256.9422607421875" cy="995.66455078125" rx="13.125" ry="13.125" stroke="none" fill="#000000" transform="matrix(0.2 0 0 0.2 -76.4642 -66.1917)" />
	<path d="M -84.6492 -22.7738 L 84.6492 -22.7738, 84.6492 22.7738, -84.6492 22.7738 Z" fill="none" stroke="#000000" stroke-width="7.5" stroke-linecap="round" stroke-linejoin="round" transform="matrix(1.50996e-008 0.2 -0.2 1.50996e-008 174.924 70.7209)" />
	<g transform="matrix(1 0 -0 1 136.352 59.5132)">
		<svg width="77.9182587" height="45.2233963">
			<defs />
			<path d="M 7.60405 16.7669 L 0.0791219 16.7669, 0.0791219 16.2732 C 0.0791219 16.2379, 0.0976369 16.184, 0.134667 16.1116 L 3.15766 12.826 C 3.51561 12.4316, 3.8775 12.0277, 4.24443 11.6147, 4.61136 11.2018, 4.93902 10.7799, 5.22853 10.349, 5.51803 9.91808, 5.74919 9.47372, 5.922 9.01589, 6.0948 8.55807, 6.18064 8.0778, 6.18064 7.57453, 6.18064 7.15037, 6.12566 6.7537, 6.01457 6.38565, 5.90348 6.01759, 5.74358 5.69442, 5.53374 5.41613, 5.32391 5.13785, 5.06189 4.91343, 4.7477 4.74286, 4.4335 4.5723, 4.06994 4.48702, 3.657 4.48646, 3.04096 4.48702, 2.49673 4.67105, 2.02544 5.0391, 1.55415 5.40716, 1.24108 5.8128, 1.08678 6.25492, 1.05649 6.26726, 1.10586 6.27343, 1.2349 6.27287 L 1.392 6.27287 C 1.57715 6.31551, 1.73705 6.38004, 1.87283 6.46644, 2.00861 6.5534, 2.1225 6.67291, 2.21508 6.82552, 2.30765 6.97812, 2.35366 7.16215, 2.35366 7.37704, 2.35366 7.73668, 2.23696 8.01216, 2.00243 8.20348, 1.76791 8.39536, 1.5059 8.49074, 1.21639 8.49018, 0.939226 8.49074, 0.680578 8.39536, 0.439883 8.20348, 0.19975 8.01216, 0.0791219 7.73668, 0.0791219 7.37704, 0.0791219 6.87489, 0.177868 6.39911, 0.375361 5.95026, 0.572854 5.50142, 0.84048 5.1126, 1.17936 4.78326, 1.51824 4.45448, 1.91884 4.19415, 2.38115 4.00226, 2.84346 3.81094, 3.33383 3.715, 3.85113 3.71444, 4.49186 3.715, 5.07928 3.80926, 5.61229 3.99778, 6.1453 4.18629, 6.59976 4.45728, 6.97567 4.81019, 7.35157 5.16366, 7.64613 5.57211, 7.85877 6.03554, 8.07141 6.49954, 8.17745 7.01235, 8.17745 7.57453, 8.17745 8.19731, 8.03607 8.77071, 7.75217 9.29418, 7.46884 9.81821, 7.11761 10.2985, 6.6985 10.735, 6.27939 11.172, 5.83391 11.5833, 5.36262 11.9693, 4.89133 12.3553, 4.46436 12.7307, 4.08228 13.0954 L 1.95587 15.0972, 4.73872 15.0972 C 5.12697 15.0978, 5.48942 15.095, 5.82493 15.0888, 6.16101 15.0832, 6.44603 15.0708, 6.67999 15.0529, 6.91451 15.0349, 7.03458 15.0232, 7.04019 15.0164, 7.08956 14.9749, 7.13613 14.8913, 7.17933 14.7656, 7.22253 14.64, 7.26237 14.4918, 7.2994 14.3213, 7.33643 14.1507, 7.37346 13.9773, 7.41049 13.8006, 7.44752 13.6244, 7.48118 13.4309, 7.51204 13.221 L 8.19597 13.221 Z" stroke="none" fill="#000000" />
			<path d="M 23.3964 16.6044 C 23.3586 16.751, 23.255 16.8243, 23.085 16.8243 L 19.9631 16.8243 C 19.7558 16.8243, 19.6516 16.7241, 19.6516 16.522, 19.6516 15.7714, 19.7633 15.0478, 19.9865 14.3516, 20.2098 13.6554, 20.4537 12.9673, 20.7176 12.286, 20.9821 11.6053, 21.2209 10.9257, 21.4344 10.2479, 21.6485 9.57, 21.755 8.88013, 21.755 8.17708, 21.755 7.62805, 21.6703 7.09561, 21.5003 6.57921, 21.3308 6.06338, 21.0634 5.60995, 20.6987 5.21893, 20.3341 4.82848, 19.9035 4.52905, 19.4066 4.32123, 18.9097 4.11398, 18.391 4.00979, 17.8499 4.00921, 17.3095 4.00979, 16.7908 4.11398, 16.2939 4.32123, 15.7969 4.52905, 15.3681 4.82848, 15.0063 5.21893, 14.6445 5.60995, 14.3771 6.06338, 14.2042 6.57921, 14.0313 7.09561, 13.9448 7.62805, 13.9448 8.17708, 13.9448 8.88013, 14.0536 9.57, 14.27 10.2479, 14.487 10.9257, 14.7275 11.6053, 14.9914 12.286, 15.2559 12.9673, 15.4992 13.6571, 15.7225 14.3562, 15.9458 15.0558, 16.0574 15.7777, 16.0574 16.522, 16.0574 16.7241, 15.9601 16.8243, 15.7654 16.8243 L 12.6143 16.8243 C 12.4512 16.8243, 12.3504 16.751, 12.3126 16.6044 L 11.6525 13.9846 C 11.6525 13.8203, 11.7407 13.7167, 11.9164 13.6732 L 12.0201 13.6732 C 12.1838 13.6738, 12.2846 13.7499, 12.3224 13.9022, 12.4231 14.3241, 12.5159 14.6722, 12.6006 14.947, 12.6853 15.2218, 12.7437 15.3684, 12.7746 15.3861, 12.8376 15.4354, 12.9888 15.4663, 13.2275 15.4783, 13.4668 15.4909, 13.7531 15.4966, 14.0863 15.496 L 15.2937 15.496 C 15.162 14.947, 14.9118 14.3825, 14.5437 13.802, 14.1761 13.222, 13.7937 12.6387, 13.3975 12.0524, 13.0014 11.4662, 12.651 10.8587, 12.3458 10.2295, 12.0413 9.60092, 11.8884 8.91677, 11.8884 8.17708, 11.8884 7.49351, 12.0487 6.86203, 12.3693 6.28151, 12.6899 5.70155, 13.121 5.20347, 13.6615 4.78783, 14.2466 4.31837, 14.9009 3.96857, 15.624 3.73956, 16.3471 3.51056, 17.0891 3.39606, 17.8499 3.39548, 18.6114 3.39606, 19.3533 3.51056, 20.0764 3.73956, 20.7995 3.96857, 21.463 4.31837, 22.0665 4.78783, 22.5949 5.21606, 23.0226 5.71816, 23.3495 6.29525, 23.6764 6.87234, 23.8395 7.49981, 23.8395 8.17708, 23.8395 8.91677, 23.6872 9.60092, 23.3821 10.2295, 23.0775 10.8587, 22.7237 11.4662, 22.3212 12.0524, 21.9188 12.6387, 21.5317 13.222, 21.1608 13.802, 20.7898 14.3825, 20.5384 14.947, 20.4062 15.496 L 21.6228 15.496 C 21.9565 15.4966, 22.2428 15.4909, 22.4815 15.4783, 22.7208 15.4663, 22.8714 15.4354, 22.9344 15.3861, 22.9533 15.3747, 23.0065 15.2281, 23.0947 14.947, 23.1829 14.6665, 23.2768 14.3178, 23.3775 13.9022, 23.4153 13.7562, 23.5195 13.68, 23.689 13.6732 L 23.7926 13.6732 C 23.9626 13.7104, 24.0474 13.814, 24.0474 13.9846 Z" stroke="none" fill="#000000" />
			<rect />
		</svg>
	</g>
	<path d="M 0 25.3584 L 0 -25.3589" fill="none" stroke="#000000" stroke-width="5.33333349" stroke-linecap="round" stroke-linejoin="round" marker-end="url(#CustomMarker-01)" transform="matrix(0.2 0 0 0.2 288.548 35.0066)" />
	<path d="M 0 112.768 L 0 -112.768" fill="none" stroke="#000000" stroke-width="6.66666698" stroke-linecap="round" stroke-linejoin="round" transform="matrix(0.2 0 0 0.2 174.924 110.388)" />
</svg>
