<?xml version="1.0"?>
<svg xmlns="http://www.w3.org/2000/svg" xmlns:xlink="http://www.w3.org/1999/xlink" width="334.368927" height="174.440338">
	<defs>
		<marker id="CustomMarker-01" markerUnits="strokeWidth" markerWidth="14.25" markerHeight="13.5" viewBox="-14.25 -6.75 14.25 13.5" orient="auto-start-reverse">
			<path d="M -9.5 -4.5 L 0 -0, -9.5 4.5" fill="none" stroke="#000000" stroke-linejoin="round" />
		</marker>
		<marker id="CustomMarker-02" markerUnits="strokeWidth" markerWidth="8.25" markerHeight="7.5" viewBox="-8.25 -3.75 8.25 7.5" orient="auto-start-reverse">
			<path d="M -5.5 -2.5 L 0 -0, -5.5 2.5" fill="none" stroke="#0080FF" stroke-linejoin="round" />
		</marker>
		<marker id="CustomMarker-03" markerUnits="strokeWidth" markerWidth="8.25" markerHeight="7.5" viewBox="-8.25 -3.75 8.25 7.5" orient="auto-start-reverse">
			<path d="M -5.5 -2.5 L 0 -0, -5.5 2.5" fill="none" stroke="#0080FF" stroke-linejoin="round" />
		</marker>
		<marker id="CustomMarker-04" markerUnits="strokeWidth" markerWidth="8.25" markerHeight="7.5" viewBox="-8.25 -3.75 8.25 7.5" orient="auto-start-reverse">
			<path d="M -5.5 -2.5 L 0 -0, -5.5 2.5" fill="none" stroke="#E50A00" stroke-linejoin="round" />
		</marker>
	</defs>
	<path d="M -477.222 0 L 477.222 0" fill="none" stroke="#000000" stroke-width="5.5999999" stroke-linecap="round" stroke-linejoin="round" transform="matrix(0.238095 0 0 0.238095 174.924 165.94)" />
	<path d="M -477.222 0 L 477.222 0" fill="none" stroke="#000000" stroke-width="5.5999999" stroke-linecap="round" stroke-linejoin="round" transform="matrix(0.238095 0 0 0.238095 174.924 41.4992)" />
	<g transform="matrix(1 0 -0 1 9.00001 92.5126)">
		<svg width="81.075737" height="48.0957298">
			<defs />
			<path d="M 8.50389 13.3826 C 8.50389 13.8977, 8.38999 14.392, 8.1622 14.8644, 7.93441 15.3374, 7.6292 15.7413, 7.24656 16.0757, 6.8151 16.4533, 6.33876 16.7327, 5.8181 16.9151, 5.29743 17.098, 4.75321 17.1888, 4.18598 17.1888, 3.67429 17.1888, 3.17551 17.117, 2.68851 16.9734, 2.20151 16.8298, 1.76276 16.6239, 1.37114 16.3546, 0.97952 16.0852, 0.66701 15.7548, 0.432487 15.3626, 0.197964 14.971, 0.0807031 14.5204, 0.0807031 14.011, 0.0807031 13.6284, 0.208625 13.3428, 0.464468 13.1543, 0.720311 12.9658, 0.990181 12.8715, 1.27352 12.8709, 1.56975 12.8715, 1.84524 12.9658, 2.10108 13.1543, 2.35692 13.3428, 2.48484 13.6284, 2.48484 14.011, 2.48484 14.2388, 2.44052 14.429, 2.35075 14.5816, 2.26154 14.7342, 2.14765 14.8616, 2.0085 14.9631, 1.86992 15.0652, 1.71114 15.1275, 1.53216 15.1511, 1.44015 15.1758, 1.35375 15.1875, 1.27352 15.187, 1.19385 15.1875, 1.1815 15.1937, 1.23649 15.2049, 1.42781 15.5405, 1.80372 15.8373, 2.36478 16.0942, 2.92584 16.3517, 3.5329 16.4802, 4.18598 16.4797, 4.49456 16.4802, 4.78238 16.4039, 5.05057 16.2513, 5.31875 16.0987, 5.54262 15.8939, 5.72103 15.6358, 5.94321 15.3014, 6.09414 14.9424, 6.17437 14.5592, 6.2546 14.1765, 6.29444 13.7843, 6.29444 13.3826, 6.29444 12.9702, 6.2546 12.5741, 6.17437 12.1937, 6.09414 11.8139, 5.94321 11.4621, 5.72103 11.1384, 5.53588 10.8758, 5.3109 10.6632, 5.04608 10.5016, 4.78126 10.34, 4.49456 10.2592, 4.18598 10.2586 L 2.8456 10.2586 C 2.66719 10.2592, 2.57125 10.1756, 2.5589 10.0073 L 2.5589 9.90854 C 2.5589 9.83728, 2.58078 9.78062, 2.62342 9.73798, 2.67897 9.68468, 2.74966 9.65775, 2.83607 9.65718, 3.01504 9.63362, 3.20019 9.62184, 3.39095 9.62128, 3.5761 9.62184, 3.75789 9.61005, 3.9363 9.58537, 4.26957 9.5618, 4.55908 9.45913, 4.80595 9.27623, 5.05281 9.09388, 5.25928 8.86048, 5.42536 8.57602, 5.59143 8.29213, 5.71767 7.96447, 5.80407 7.59305, 5.89047 7.22219, 5.93368 6.84179, 5.93368 6.45241, 5.93368 6.16571, 5.90282 5.8936, 5.8411 5.63607, 5.77938 5.37911, 5.66549 5.15412, 5.49886 4.96224, 5.1538 4.56781, 4.71618 4.37313, 4.18598 4.37874, 3.61931 4.3793, 3.09976 4.4859, 2.62847 4.69798, 2.15718 4.91062, 1.84075 5.13953, 1.68028 5.38415, 1.63764 5.39089, 1.65896 5.39369, 1.74537 5.39313, 1.96755 5.39369, 2.17682 5.45934, 2.37375 5.59062, 2.66999 5.76455, 2.81755 6.05799, 2.81755 6.47037, 2.81755 6.81822, 2.70534 7.08024, 2.48035 7.25641, 2.25537 7.43314, 2.00401 7.52123, 1.72685 7.52067, 1.4553 7.52123, 1.20114 7.43483, 0.963811 7.2609, 0.726483 7.08753, 0.607538 6.82383, 0.607538 6.47037, 0.607538 6.03386, 0.712456 5.64841, 0.922292 5.3129, 1.13213 4.97795, 1.40144 4.69069, 1.73134 4.45111, 2.06124 4.2121, 2.44164 4.0292, 2.8731 3.90352, 3.30511 3.77784, 3.74274 3.715, 4.18598 3.71444, 4.66063 3.715, 5.12014 3.77784, 5.56394 3.90352, 6.00774 4.0292, 6.42685 4.22388, 6.82127 4.48646, 7.1422 4.71425, 7.41151 4.99422, 7.63032 5.32637, 7.84913 5.65851, 7.95854 6.03386, 7.95854 6.45241, 7.95854 6.87208, 7.88336 7.26707, 7.73243 7.63793, 7.58151 8.00935, 7.38121 8.34431, 7.13154 8.64335, 6.88187 8.94296, 6.58451 9.20609, 6.23889 9.43332, 5.89384 9.66111, 5.63463 9.80418, 5.46182 9.86365, 5.60994 9.88217, 5.86298 9.97082, 6.22038 10.129, 6.57833 10.2878, 6.92002 10.4988, 7.24656 10.7613, 7.6292 11.0913, 7.93441 11.4846, 8.1622 11.9424, 8.38999 12.4002, 8.50389 12.8805, 8.50389 13.3826 Z" stroke="none" fill="#000000" />
			<path d="M 25.2262 4.57714 C 24.937 4.57772, 24.6823 4.59947, 24.4624 4.64184, 24.2426 4.68478, 24.0376 4.75806, 23.8487 4.86111, 23.5344 5.05118, 23.2956 5.33801, 23.1319 5.72216 L 18.7642 16.98 C 18.6829 17.1575, 18.5444 17.2428, 18.3492 17.2365 L 18.1986 17.2365 C 18.0039 17.2365, 17.8654 17.1512, 17.7835 16.98 L 13.2086 5.19087 C 13.1582 5.07523, 13.1015 4.9716, 13.0386 4.88, 12.9756 4.7884, 12.8846 4.72142, 12.7649 4.67791, 12.6206 4.62352, 12.418 4.59317, 12.1569 4.58688, 11.8958 4.58115, 11.6176 4.57772, 11.3216 4.57714 L 11.3216 3.81685 C 12.1334 3.86036, 12.9097 3.88154, 13.6517 3.88097, 13.7651 3.88154, 13.8882 3.87525, 14.0198 3.86265, 14.8815 3.86322, 15.7837 3.8512, 16.7272 3.82601 L 16.7272 4.57714 C 16.4444 4.57772, 16.1925 4.58401, 15.9727 4.59604, 15.7528 4.60863, 15.5542 4.65386, 15.3778 4.73287, 15.2965 4.77638, 15.2336 4.8342, 15.1895 4.90691, 15.158 4.95615, 15.142 5.00195, 15.142 5.04431, 15.142 5.0695, 15.1454 5.09698, 15.1517 5.12675 L 18.8495 14.5984, 22.3396 5.64888 C 22.371 5.57617, 22.3865 5.49373, 22.3865 5.40156, 22.3865 5.22522, 22.3018 5.06034, 22.1323 4.90691, 21.988 4.77924, 21.826 4.69222, 21.6462 4.64642, 21.4671 4.60062, 21.2392 4.57772, 20.9621 4.57714 L 20.9621 3.82601 C 21.7235 3.8512, 22.4403 3.86322, 23.113 3.86265, 23.2012 3.87525, 23.2956 3.88154, 23.3958 3.88097, 23.9746 3.88154, 24.5849 3.86036, 25.2262 3.81685 L 25.2262 4.57714 Z" stroke="none" fill="#000000" />
			<rect />
		</svg>
	</g>
	<path d="M 0 261.326 L 0 -261.327" fill="none" stroke="#000000" stroke-width="5.5999999" stroke-linecap="round" stroke-linejoin="round" transform="matrix(0.238095 0 0 0.238095 61.3 103.72)" />
	<path d="M 71.8774 -0 C 71.8774 39.696, 39.6968 71.8759, -0 71.8759, -39.6968 71.8759, -71.8774 39.696, -71.8774 -0, -71.8774 -39.696, -39.6968 -71.8759, -0 -71.8759, 39.6968 -71.8759, 71.8774 -39.696, 71.8774 -0 Z" fill="none" stroke="#000000" stroke-width="5.5999999" stroke-linecap="round" stroke-linejoin="round" transform="matrix(0.238095 0 -0 0.238095 61.3 103.72)" />
	<g transform="matrix(1 0 -0 1 39.3243 66.6135)">
		<svg width="119.826561" height="119.904221">
			<defs />
			<polyline points="-5.628 0 5.628 0" fill="none" stroke="#000000" stroke-width="0.64319998" stroke-linecap="round" stroke-linejoin="round" transform="matrix(1 0 0 1 5.628 9.60638)" />
			<polyline points="0 -5.628 0 5.628" fill="none" stroke="#000000" stroke-width="0.64319998" stroke-linecap="round" stroke-linejoin="round" transform="matrix(1 0 0 1 5.628 9.60638)" />
			<rect />
		</svg>
	</g>
	<g transform="matrix(1 0 -0 1 38.7689 121.614)">
		<svg width="119.826561" height="83.9999847">
			<defs />
			<polyline points="-5.628 0 5.628 0" fill="none" stroke="#000000" stroke-width="0.64319998" stroke-linecap="round" stroke-linejoin="round" transform="matrix(1 0 0 1 5.628 9.60638)" />
			<rect />
		</svg>
	</g>
	<path d="M 0 94.7255 L 0 -94.7255" fill="none" stroke="#000000" stroke-width="5.5999999" stroke-linecap="round" stroke-linejoin="round" transform="matrix(0.238095 0 0 0.238095 174.924 64.0528)" />
	<g transform="matrix(1 0 -0 1 300.987 57.9887)">
		<svg width="77.9182587" height="45.2233963">
			<defs />
			<path d="M 6.82472 16.7669 C 5.69082 16.731, 4.58721 16.7131, 3.51447 16.7131, 2.44228 16.7131, 1.33868 16.731, 0.204215 16.7669 L 0.204215 15.9949, 0.842701 15.9949 C 1.0458 15.9955, 1.23713 15.9927, 1.41554 15.9865, 1.59452 15.9809, 1.76396 15.9657, 1.92442 15.9416, 2.08489 15.918, 2.22347 15.8939, 2.34017 15.8692, 2.43892 15.8518, 2.52083 15.7969, 2.58535 15.7037, 2.65043 15.6111, 2.68242 15.5079, 2.68242 15.3935 L 2.68242 5.27643 C 2.37439 5.4268, 1.99512 5.54069, 1.54515 5.61812, 1.09518 5.6961, 0.602006 5.73482, 0.0656334 5.73426 L 0.0656334 4.97122 C 0.805671 4.97178, 1.48848 4.88369, 2.11406 4.70696, 2.73964 4.53078, 3.2805 4.19976, 3.73665 3.71444 L 4.02335 3.71444 C 4.22645 3.715, 4.328 3.81375, 4.328 4.01068 L 4.328 15.3935 C 4.328 15.5135, 4.35886 15.6184, 4.42058 15.7082, 4.48229 15.798, 4.57206 15.8518, 4.68876 15.8692, 4.78751 15.8939, 4.91431 15.918, 5.06804 15.9416, 5.22233 15.9657, 5.39626 15.9809, 5.59039 15.9865, 5.78451 15.9927, 5.97415 15.9955, 6.15874 15.9949 L 6.82472 15.9949, 6.82472 16.7669 Z" stroke="none" fill="#000000" />
			<path d="M 24.0685 16.8334 C 23.251 16.7911, 22.4621 16.7693, 21.7006 16.7693 L 21.3325 16.7693 C 20.4457 16.7819, 19.524 16.8002, 18.5679 16.8243 L 18.5679 16.064 C 18.8513 16.0646, 19.106 16.0542, 19.3322 16.0325, 19.5589 16.0113, 19.7598 15.9667, 19.9362 15.8991, 20.018 15.8567, 20.0902 15.7926, 20.1531 15.7067, 20.1783 15.677, 20.1909 15.6369, 20.1909 15.5877, 20.1909 15.5636, 20.1881 15.5361, 20.1812 15.5052 L 19.1152 12.5465, 14.4824 12.5465, 13.6053 15.0014 C 13.5739 15.0753, 13.5578 15.1457, 13.5578 15.2121, 13.5578 15.2739, 13.5676 15.3346, 13.5865 15.3953, 13.6368 15.5304, 13.7187 15.6403, 13.8315 15.7251, 13.9952 15.8602, 14.1698 15.9501, 14.3553 15.9959, 14.5408 16.0417, 14.7658 16.0646, 15.0298 16.064 L 15.0298 16.8243 C 14.2689 16.8002, 13.5424 16.7819, 12.8502 16.7693 L 12.5582 16.7693 C 11.9542 16.7693, 11.325 16.7911, 10.6712 16.8334 L 10.6712 16.064 C 10.9735 16.0646, 11.2357 16.0451, 11.459 16.005, 11.6823 15.9655, 11.8976 15.8876, 12.1048 15.7709, 12.4449 15.5819, 12.6836 15.3043, 12.8222 14.9373 L 16.8979 3.4596 C 16.9608 3.27697, 17.0931 3.18824, 17.294 3.19396 L 17.4452 3.19396 C 17.6467 3.19453, 17.7784 3.28327, 17.8413 3.4596 L 22.1249 15.4502 C 22.1569 15.567, 22.2056 15.6707, 22.2714 15.7623, 22.3378 15.8539, 22.4272 15.9151, 22.5399 15.9449, 22.7037 16.0067, 22.9195 16.0417, 23.1869 16.0508, 23.4542 16.06, 23.7479 16.0646, 24.0685 16.064 L 24.0685 16.8334 Z M 16.8131 6.04277 L 14.7561 11.7862, 18.8415 11.7862 Z" stroke="none" fill="#000000" />
			<rect />
		</svg>
	</g>
	<path d="M 0 94.7255 L 0 -94.7255" fill="none" stroke="#000000" stroke-width="5.5999999" stroke-linecap="round" stroke-linejoin="round" transform="matrix(0.238095 0 0 0.238095 288.548 64.0528)" />
	<path d="M 71.8773 -0 C 71.8773 39.696, 39.6967 71.8759, -0 71.8759, -39.6967 71.8759, -71.8773 39.696, -71.8773 -0, -71.8773 -39.696, -39.6967 -71.8759, -0 -71.8759, 39.6967 -71.8759, 71.8773 -39.696, 71.8773 -0 Z" fill="none" stroke="#000000" stroke-width="5.5999999" stroke-linecap="round" stroke-linejoin="round" transform="matrix(0.238095 0 -0 0.238095 288.548 103.72)" />
	<path d="M 0 94.7245 L 0 -94.7256" fill="none" stroke="#000000" stroke-width="5.5999999" stroke-linecap="round" stroke-linejoin="round" transform="matrix(0.238095 0 0 0.238095 288.548 143.387)" />
	<path d="M -71.877 0 L 71.8777 0" fill="none" stroke="#000000" stroke-width="5.5999999" stroke-linecap="round" stroke-linejoin="round" transform="matrix(0.238095 0 0 0.238095 288.548 103.72)" />
	<ellipse cx="1247.5070304870605" cy="427.97175216674805" rx="16.799999237060547" ry="16.799999237060547" stroke="none" fill="#FF8040" transform="matrix(0.238095 0 0 0.238095 -122.101 -60.3989)" />
	<ellipse cx="1247.5070552825928" cy="950.62467002868652" rx="11.024999618530273" ry="11.024999618530273" stroke="none" fill="#000000" transform="matrix(0.238095 0 0 0.238095 -122.101 -60.3989)" />
	<path d="M -71.1053 -19.13 L 71.1053 -19.13, 71.1053 19.13, -71.1053 19.13 Z" fill="none" stroke="#000000" stroke-width="6.29999971" stroke-linecap="round" stroke-linejoin="round" transform="matrix(1.79757e-008 0.238095 -0.238095 1.79757e-008 174.924 103.72)" />
	<g transform="matrix(1 0 -0 1 136.352 92.5124)">
		<svg width="77.9182587" height="45.2233963">
			<defs />
			<path d="M 7.60405 16.7669 L 0.0791219 16.7669, 0.0791219 16.2732 C 0.0791219 16.2379, 0.0976369 16.184, 0.134667 16.1116 L 3.15766 12.826 C 3.51561 12.4316, 3.8775 12.0277, 4.24443 11.6147, 4.61136 11.2018, 4.93902 10.7799, 5.22853 10.349, 5.51803 9.91808, 5.74919 9.47372, 5.922 9.01589, 6.0948 8.55807, 6.18064 8.0778, 6.18064 7.57453, 6.18064 7.15037, 6.12566 6.7537, 6.01457 6.38565, 5.90348 6.01759, 5.74358 5.69442, 5.53374 5.41613, 5.32391 5.13785, 5.06189 4.91343, 4.7477 4.74286, 4.4335 4.5723, 4.06994 4.48702, 3.657 4.48646, 3.04096 4.48702, 2.49673 4.67105, 2.02544 5.0391, 1.55415 5.40716, 1.24108 5.8128, 1.08678 6.25492, 1.05649 6.26726, 1.10586 6.27343, 1.2349 6.27287 L 1.392 6.27287 C 1.57715 6.31551, 1.73705 6.38004, 1.87283 6.46644, 2.00861 6.5534, 2.1225 6.67291, 2.21508 6.82552, 2.30765 6.97812, 2.35366 7.16215, 2.35366 7.37704, 2.35366 7.73668, 2.23696 8.01216, 2.00243 8.20348, 1.76791 8.39536, 1.5059 8.49074, 1.21639 8.49018, 0.939226 8.49074, 0.680578 8.39536, 0.439883 8.20348, 0.19975 8.01216, 0.0791219 7.73668, 0.0791219 7.37704, 0.0791219 6.87489, 0.177868 6.39911, 0.375361 5.95026, 0.572854 5.50142, 0.84048 5.1126, 1.17936 4.78326, 1.51824 4.45448, 1.91884 4.19415, 2.38115 4.00226, 2.84346 3.81094, 3.33383 3.715, 3.85113 3.71444, 4.49186 3.715, 5.07928 3.80926, 5.61229 3.99778, 6.1453 4.18629, 6.59976 4.45728, 6.97567 4.81019, 7.35157 5.16366, 7.64613 5.57211, 7.85877 6.03554, 8.07141 6.49954, 8.17745 7.01235, 8.17745 7.57453, 8.17745 8.19731, 8.03607 8.77071, 7.75217 9.29418, 7.46884 9.81821, 7.11761 10.2985, 6.6985 10.735, 6.27939 11.172, 5.83391 11.5833, 5.36262 11.9693, 4.89133 12.3553, 4.46436 12.7307, 4.08228 13.0954 L 1.95587 15.0972, 4.73872 15.0972 C 5.12697 15.0978, 5.48942 15.095, 5.82493 15.0888, 6.16101 15.0832, 6.44603 15.0708, 6.67999 15.0529, 6.91451 15.0349, 7.03458 15.0232, 7.04019 15.0164, 7.08956 14.9749, 7.13613 14.8913, 7.17933 14.7656, 7.22253 14.64, 7.26237 14.4918, 7.2994 14.3213, 7.33643 14.1507, 7.37346 13.9773, 7.41049 13.8006, 7.44752 13.6244, 7.48118 13.4309, 7.51204 13.221 L 8.19597 13.221 Z" stroke="none" fill="#000000" />
			<path d="M 23.3964 16.6044 C 23.3586 16.751, 23.255 16.8243, 23.085 16.8243 L 19.9631 16.8243 C 19.7558 16.8243, 19.6516 16.7241, 19.6516 16.522, 19.6516 15.7714, 19.7633 15.0478, 19.9865 14.3516, 20.2098 13.6554, 20.4537 12.9673, 20.7176 12.286, 20.9821 11.6053, 21.2209 10.9257, 21.4344 10.2479, 21.6485 9.57, 21.755 8.88013, 21.755 8.17708, 21.755 7.62805, 21.6703 7.09561, 21.5003 6.57921, 21.3308 6.06338, 21.0634 5.60995, 20.6987 5.21893, 20.3341 4.82848, 19.9035 4.52905, 19.4066 4.32123, 18.9097 4.11398, 18.391 4.00979, 17.8499 4.00921, 17.3095 4.00979, 16.7908 4.11398, 16.2939 4.32123, 15.7969 4.52905, 15.3681 4.82848, 15.0063 5.21893, 14.6445 5.60995, 14.3771 6.06338, 14.2042 6.57921, 14.0313 7.09561, 13.9448 7.62805, 13.9448 8.17708, 13.9448 8.88013, 14.0536 9.57, 14.27 10.2479, 14.487 10.9257, 14.7275 11.6053, 14.9914 12.286, 15.2559 12.9673, 15.4992 13.6571, 15.7225 14.3562, 15.9458 15.0558, 16.0574 15.7777, 16.0574 16.522, 16.0574 16.7241, 15.9601 16.8243, 15.7654 16.8243 L 12.6143 16.8243 C 12.4512 16.8243, 12.3504 16.751, 12.3126 16.6044 L 11.6525 13.9846 C 11.6525 13.8203, 11.7407 13.7167, 11.9164 13.6732 L 12.0201 13.6732 C 12.1838 13.6738, 12.2846 13.7499, 12.3224 13.9022, 12.4231 14.3241, 12.5159 14.6722, 12.6006 14.947, 12.6853 15.2218, 12.7437 15.3684, 12.7746 15.3861, 12.8376 15.4354, 12.9888 15.4663, 13.2275 15.4783, 13.4668 15.4909, 13.7531 15.4966, 14.0863 15.496 L 15.2937 15.496 C 15.162 14.947, 14.9118 14.3825, 14.5437 13.802, 14.1761 13.222, 13.7937 12.6387, 13.3975 12.0524, 13.0014 11.4662, 12.651 10.8587, 12.3458 10.2295, 12.0413 9.60092, 11.8884 8.91677, 11.8884 8.17708, 11.8884 7.49351, 12.0487 6.86203, 12.3693 6.28151, 12.6899 5.70155, 13.121 5.20347, 13.6615 4.78783, 14.2466 4.31837, 14.9009 3.96857, 15.624 3.73956, 16.3471 3.51056, 17.0891 3.39606, 17.8499 3.39548, 18.6114 3.39606, 19.3533 3.51056, 20.0764 3.73956, 20.7995 3.96857, 21.463 4.31837, 22.0665 4.78783, 22.5949 5.21606, 23.0226 5.71816, 23.3495 6.29525, 23.6764 6.87234, 23.8395 7.49981, 23.8395 8.17708, 23.8395 8.91677, 23.6872 9.60092, 23.3821 10.2295, 23.0775 10.8587, 22.7237 11.4662, 22.3212 12.0524, 21.9188 12.6387, 21.5317 13.222, 21.1608 13.802, 20.7898 14.3825, 20.5384 14.947, 20.4062 15.496 L 21.6228 15.496 C 21.9565 15.4966, 22.2428 15.4909, 22.4815 15.4783, 22.7208 15.4663, 22.8714 15.4354, 22.9344 15.3861, 22.9533 15.3747, 23.0065 15.2281, 23.0947 14.947, 23.1829 14.6665, 23.2768 14.3178, 23.3775 13.9022, 23.4153 13.7562, 23.5195 13.68, 23.689 13.6732 L 23.7926 13.6732 C 23.9626 13.7104, 24.0474 13.814, 24.0474 13.9846 Z" stroke="none" fill="#000000" />
			<rect />
		</svg>
	</g>
	<path d="M 0 21.301 L 0 -21.3015" fill="none" stroke="#000000" stroke-width="4.48000002" stroke-linecap="round" stroke-linejoin="round" marker-end="url(#CustomMarker-01)" transform="matrix(0.238095 0 0 0.238095 288.548 68.0057)" />
	<path d="M 0 94.7247 L 0 -94.7254" fill="none" stroke="#000000" stroke-width="5.5999999" stroke-linecap="round" stroke-linejoin="round" transform="matrix(0.238095 0 0 0.238095 174.924 143.387)" />
	<path d="M 0 -38.256 L 0 38.256" fill="none" stroke="#0080FF" stroke-width="8.39999962" stroke-linecap="round" stroke-linejoin="round" marker-end="url(#CustomMarker-02)" transform="matrix(0.238095 0 0 0.238095 174.924 62.9339)" />
	<g transform="matrix(1 0 -0 1 185.023 61.8699)">
		<svg width="131.88237" height="48.0957298">
			<defs />
			<path d="M 6.82472 16.7669 C 5.69082 16.731, 4.58721 16.7131, 3.51447 16.7131, 2.44228 16.7131, 1.33868 16.731, 0.204215 16.7669 L 0.204215 15.9949, 0.842701 15.9949 C 1.0458 15.9955, 1.23713 15.9927, 1.41554 15.9865, 1.59452 15.9809, 1.76396 15.9657, 1.92442 15.9416, 2.08489 15.918, 2.22347 15.8939, 2.34017 15.8692, 2.43892 15.8518, 2.52083 15.7969, 2.58535 15.7037, 2.65043 15.6111, 2.68242 15.5079, 2.68242 15.3935 L 2.68242 5.27643 C 2.37439 5.4268, 1.99512 5.54069, 1.54515 5.61812, 1.09518 5.6961, 0.602006 5.73482, 0.0656334 5.73426 L 0.0656334 4.97122 C 0.805671 4.97178, 1.48848 4.88369, 2.11406 4.70696, 2.73964 4.53078, 3.2805 4.19976, 3.73665 3.71444 L 4.02335 3.71444 C 4.22645 3.715, 4.328 3.81375, 4.328 4.01068 L 4.328 15.3935 C 4.328 15.5135, 4.35886 15.6184, 4.42058 15.7082, 4.48229 15.798, 4.57206 15.8518, 4.68876 15.8692, 4.78751 15.8939, 4.91431 15.918, 5.06804 15.9416, 5.22233 15.9657, 5.39626 15.9809, 5.59039 15.9865, 5.78451 15.9927, 5.97415 15.9955, 6.15874 15.9949 L 6.82472 15.9949, 6.82472 16.7669 Z" stroke="none" fill="#0080FF" />
			<path d="M 13.9201 15.7342 C 13.9201 16.0399, 13.8119 16.2981, 13.5949 16.5088, 13.3779 16.7195, 13.1151 16.8243, 12.8066 16.8243, 12.4986 16.8243, 12.2346 16.7195, 12.0142 16.5088, 11.7944 16.2981, 11.6839 16.0399, 11.6839 15.7342, 11.6839 15.4354, 11.7944 15.1806, 12.0142 14.9699, 12.2346 14.7592, 12.4986 14.6539, 12.8066 14.6533, 13.1151 14.6539, 13.3779 14.7592, 13.5949 14.9699, 13.8119 15.1806, 13.9201 15.4354, 13.9201 15.7342 Z" stroke="none" fill="#0080FF" />
			<path d="M 26.2878 12.7991 C 26.2878 13.386, 26.1772 13.9459, 25.9551 14.4784, 25.7334 15.0114, 25.4131 15.49, 24.9934 15.9141, 24.5681 16.3276, 24.089 16.6435, 23.556 16.8612, 23.023 17.08, 22.4569 17.1888, 21.8588 17.1888, 21.3415 17.1888, 20.859 17.0918, 20.4118 16.8971, 19.9652 16.703, 19.5769 16.437, 19.247 16.0987, 18.9171 15.761, 18.6585 15.3688, 18.4705 14.9227, 18.2826 14.4772, 18.1883 14.0026, 18.1883 13.4993, 18.1883 13.1526, 18.3039 12.8911, 18.535 12.7144, 18.7662 12.5382, 19.0052 12.4496, 19.2515 12.449, 19.5107 12.4496, 19.7542 12.5365, 19.982 12.7099, 20.2104 12.8838, 20.3243 13.147, 20.3243 13.4993, 20.3243 13.7153, 20.2766 13.8966, 20.1812 14.043, 20.0858 14.19, 19.9686 14.3033, 19.8294 14.3841, 19.6908 14.4649, 19.5354 14.5115, 19.3626 14.5227 L 19.2515 14.5227, 19.0664 14.5227 C 19.2083 15.026, 19.5382 15.4782, 20.0561 15.8788, 20.5739 16.2799, 21.1748 16.4802, 21.8588 16.4797, 22.2167 16.4802, 22.5651 16.3877, 22.904 16.2019, 23.2429 16.0168, 23.5206 15.7711, 23.7361 15.4653, 23.9885 15.1006, 24.1507 14.6865, 24.2214 14.2225, 24.2921 13.7591, 24.3274 13.2844, 24.3274 12.7991, 24.3274 12.3088, 24.3123 11.838, 24.2814 11.3858, 24.2511 10.9342, 24.1243 10.5078, 23.9021 10.106, 23.7422 9.81316, 23.5375 9.56966, 23.2878 9.37497, 23.0381 9.18085, 22.7593 9.08322, 22.4507 9.08266, 21.8649 9.08322, 21.3566 9.2016, 20.9252 9.43781, 20.4937 9.67458, 20.1453 10.014, 19.8805 10.4561, 19.8249 10.5582, 19.7357 10.6093, 19.6123 10.6087 L 19.5382 10.6087 C 19.3228 10.6093, 19.2145 10.5106, 19.2145 10.3125 L 19.2145 4.01068 C 19.2145 3.85583, 19.3043 3.75708, 19.4827 3.71444, 19.5135 3.715, 19.5365 3.71837, 19.5522 3.72398, 19.568 3.73015, 19.5814 3.73296, 19.5938 3.7324, 20.4875 4.13972, 21.4088 4.34339, 22.3581 4.34283, 23.3198 4.34339, 24.2416 4.13972, 25.123 3.7324, 25.1354 3.73296, 25.1477 3.73015, 25.16 3.72398, 25.1724 3.71837, 25.1909 3.715, 25.2156 3.71444, 25.4187 3.715, 25.5174 3.80758, 25.5113 3.99273, 25.5113 4.10101, 25.4927 4.17283, 25.4557 4.20817, 25.0181 4.80739, 24.4621 5.27587, 23.7871 5.61363, 23.1122 5.95195, 22.3957 6.12083, 21.6371 6.12027, 21.0088 6.12083, 20.4662 6.04901, 20.0095 5.90482 L 20.0095 9.33401 C 20.2255 9.10735, 20.5509 8.90536, 20.9852 8.72863, 21.42 8.55246, 21.9087 8.46381, 22.4507 8.46325, 22.9809 8.46381, 23.4819 8.58388, 23.9532 8.82289, 24.4251 9.06246, 24.8397 9.37329, 25.1971 9.75593, 25.5668 10.1874, 25.8412 10.6648, 26.0196 11.1883, 26.1986 11.7123, 26.2878 12.2493, 26.2878 12.7991 Z" stroke="none" fill="#0080FF" />
			<path d="M 42.9289 16.8334 C 42.1114 16.7911, 41.3225 16.7693, 40.561 16.7693 L 40.1929 16.7693 C 39.3061 16.7819, 38.3843 16.8002, 37.4283 16.8243 L 37.4283 16.064 C 37.7117 16.0646, 37.9664 16.0542, 38.1926 16.0325, 38.4193 16.0113, 38.6202 15.9667, 38.7966 15.8991, 38.8784 15.8567, 38.9506 15.7926, 39.0135 15.7067, 39.0387 15.677, 39.0513 15.6369, 39.0513 15.5877, 39.0513 15.5636, 39.0485 15.5361, 39.0416 15.5052 L 37.9756 12.5465, 33.3428 12.5465, 32.4657 15.0014 C 32.4343 15.0753, 32.4182 15.1457, 32.4182 15.2121, 32.4182 15.2739, 32.428 15.3346, 32.4468 15.3953, 32.4972 15.5304, 32.5791 15.6403, 32.6919 15.7251, 32.8556 15.8602, 33.0302 15.9501, 33.2157 15.9959, 33.4012 16.0417, 33.6262 16.0646, 33.8901 16.064 L 33.8901 16.8243 C 33.1293 16.8002, 32.4028 16.7819, 31.7106 16.7693 L 31.4186 16.7693 C 30.8146 16.7693, 30.1854 16.7911, 29.5316 16.8334 L 29.5316 16.064 C 29.8339 16.0646, 30.0961 16.0451, 30.3194 16.005, 30.5427 15.9655, 30.7579 15.8876, 30.9652 15.7709, 31.3053 15.5819, 31.544 15.3043, 31.6826 14.9373 L 35.7582 3.4596 C 35.8212 3.27697, 35.9535 3.18824, 36.1544 3.19396 L 36.3056 3.19396 C 36.5071 3.19453, 36.6388 3.28327, 36.7017 3.4596 L 40.9853 15.4502 C 41.0173 15.567, 41.066 15.6707, 41.1318 15.7623, 41.1982 15.8539, 41.2875 15.9151, 41.4003 15.9449, 41.5641 16.0067, 41.7799 16.0417, 42.0473 16.0508, 42.3146 16.06, 42.6083 16.0646, 42.9289 16.064 L 42.9289 16.8334 Z M 35.6735 6.04277 L 33.6165 11.7862, 37.7019 11.7862 Z" stroke="none" fill="#0080FF" />
			<rect />
		</svg>
	</g>
	<g transform="matrix(1 0 -0 1 211.053 9)">
		<svg width="77.9182587" height="45.2233963">
			<defs />
			<path d="M 6.82472 16.7669 C 5.69082 16.731, 4.58721 16.7131, 3.51447 16.7131, 2.44228 16.7131, 1.33868 16.731, 0.204215 16.7669 L 0.204215 15.9949, 0.842701 15.9949 C 1.0458 15.9955, 1.23713 15.9927, 1.41554 15.9865, 1.59452 15.9809, 1.76396 15.9657, 1.92442 15.9416, 2.08489 15.918, 2.22347 15.8939, 2.34017 15.8692, 2.43892 15.8518, 2.52083 15.7969, 2.58535 15.7037, 2.65043 15.6111, 2.68242 15.5079, 2.68242 15.3935 L 2.68242 5.27643 C 2.37439 5.4268, 1.99512 5.54069, 1.54515 5.61812, 1.09518 5.6961, 0.602006 5.73482, 0.0656334 5.73426 L 0.0656334 4.97122 C 0.805671 4.97178, 1.48848 4.88369, 2.11406 4.70696, 2.73964 4.53078, 3.2805 4.19976, 3.73665 3.71444 L 4.02335 3.71444 C 4.22645 3.715, 4.328 3.81375, 4.328 4.01068 L 4.328 15.3935 C 4.328 15.5135, 4.35886 15.6184, 4.42058 15.7082, 4.48229 15.798, 4.57206 15.8518, 4.68876 15.8692, 4.78751 15.8939, 4.91431 15.918, 5.06804 15.9416, 5.22233 15.9657, 5.39626 15.9809, 5.59039 15.9865, 5.78451 15.9927, 5.97415 15.9955, 6.15874 15.9949 L 6.82472 15.9949, 6.82472 16.7669 Z" stroke="none" fill="#0080FF" />
			<path d="M 24.0685 16.8334 C 23.251 16.7911, 22.4621 16.7693, 21.7006 16.7693 L 21.3325 16.7693 C 20.4457 16.7819, 19.524 16.8002, 18.5679 16.8243 L 18.5679 16.064 C 18.8513 16.0646, 19.106 16.0542, 19.3322 16.0325, 19.5589 16.0113, 19.7598 15.9667, 19.9362 15.8991, 20.018 15.8567, 20.0902 15.7926, 20.1531 15.7067, 20.1783 15.677, 20.1909 15.6369, 20.1909 15.5877, 20.1909 15.5636, 20.1881 15.5361, 20.1812 15.5052 L 19.1152 12.5465, 14.4824 12.5465, 13.6053 15.0014 C 13.5739 15.0753, 13.5578 15.1457, 13.5578 15.2121, 13.5578 15.2739, 13.5676 15.3346, 13.5865 15.3953, 13.6368 15.5304, 13.7187 15.6403, 13.8315 15.7251, 13.9952 15.8602, 14.1698 15.9501, 14.3553 15.9959, 14.5408 16.0417, 14.7658 16.0646, 15.0298 16.064 L 15.0298 16.8243 C 14.2689 16.8002, 13.5424 16.7819, 12.8502 16.7693 L 12.5582 16.7693 C 11.9542 16.7693, 11.325 16.7911, 10.6712 16.8334 L 10.6712 16.064 C 10.9735 16.0646, 11.2357 16.0451, 11.459 16.005, 11.6823 15.9655, 11.8976 15.8876, 12.1048 15.7709, 12.4449 15.5819, 12.6836 15.3043, 12.8222 14.9373 L 16.8979 3.4596 C 16.9608 3.27697, 17.0931 3.18824, 17.294 3.19396 L 17.4452 3.19396 C 17.6467 3.19453, 17.7784 3.28327, 17.8413 3.4596 L 22.1249 15.4502 C 22.1569 15.567, 22.2056 15.6707, 22.2714 15.7623, 22.3378 15.8539, 22.4272 15.9151, 22.5399 15.9449, 22.7037 16.0067, 22.9195 16.0417, 23.1869 16.0508, 23.4542 16.06, 23.7479 16.0646, 24.0685 16.064 L 24.0685 16.8334 Z M 16.8131 6.04277 L 14.7561 11.7862, 18.8415 11.7862 Z" stroke="none" fill="#0080FF" />
			<rect />
		</svg>
	</g>
	<path d="M 38.2562 0 L -38.256 0" fill="none" stroke="#0080FF" stroke-width="8.39999962" stroke-linecap="round" stroke-linejoin="round" marker-end="url(#CustomMarker-03)" transform="matrix(0.238095 0 0 0.238095 206.644 41.4992)" />
	<path d="M -38.2561 0 L 38.2557 0" fill="none" stroke="#E50A00" stroke-width="8.39999962" stroke-linecap="round" stroke-linejoin="round" marker-end="url(#CustomMarker-04)" transform="matrix(0.238095 0 0 0.238095 144.027 41.4992)" />
	<g transform="matrix(1 0 -0 1 105.375 9)">
		<svg width="135.039841" height="48.0957298">
			<defs />
			<path d="M 8.62086 10.519 C 8.62086 11.3813, 8.56083 12.2386, 8.44076 13.0914, 8.3207 13.9442, 8.02333 14.7449, 7.54868 15.4922, 7.2098 16.0376, 6.75646 16.4561, 6.18923 16.749, 5.62256 17.0424, 5.00596 17.1888, 4.33998 17.1888, 3.69925 17.1888, 3.09331 17.0424, 2.52327 16.749, 1.95323 16.4561, 1.49821 16.0376, 1.15933 15.4922, 0.684677 14.7449, 0.387315 13.9442, 0.267249 13.0914, 0.147182 12.2386, 0.0865874 11.3813, 0.0865874 10.519, 0.0865874 9.64596, 0.147182 8.77352, 0.267249 7.90275, 0.387315 7.03199, 0.684677 6.21677, 1.15933 5.45597, 1.49821 4.90613, 1.95155 4.47804, 2.51878 4.17283, 3.08601 3.86761, 3.69308 3.715, 4.33998 3.71444, 4.99979 3.715, 5.61471 3.86761, 6.18474 4.17283, 6.75478 4.47804, 7.2098 4.90613, 7.54868 5.45597, 8.02333 6.21677, 8.3207 7.03199, 8.44076 7.90275, 8.56083 8.77352, 8.62086 9.64596, 8.62086 10.519 Z M 6.79013 10.2048 C 6.79013 9.82831, 6.78732 9.43052, 6.78115 9.0114, 6.77498 8.59285, 6.75927 8.18272, 6.73458 7.78156, 6.7099 7.38097, 6.66557 7.00225, 6.60049 6.64598, 6.53597 6.29027, 6.45742 5.98617, 6.36484 5.73426, 6.18025 5.32805, 5.90926 4.99422, 5.55131 4.73389, 5.19391 4.47355, 4.78995 4.34339, 4.33998 4.34283, 3.90235 4.34339, 3.50681 4.47524, 3.15222 4.73837, 2.79763 5.00207, 2.52776 5.33366, 2.34261 5.73426, 2.25059 5.98617, 2.17205 6.29027, 2.10696 6.64598, 2.04244 7.00225, 1.99756 7.38097, 1.97287 7.78156, 1.94818 8.18272, 1.93303 8.59285, 1.92686 9.0114, 1.92069 9.43052, 1.91732 9.82831, 1.91732 10.2048, 1.91732 10.6245, 1.92069 11.066, 1.92686 11.5294, 1.93303 11.9934, 1.94818 12.4423, 1.97287 12.876, 1.99756 13.3102, 2.04244 13.7215, 2.10696 14.1103, 2.17205 14.4997, 2.25059 14.8257, 2.34261 15.0882, 2.51541 15.5259, 2.78248 15.8849, 3.14268 16.166, 3.50344 16.4477, 3.90235 16.588, 4.33998 16.5874, 4.79668 16.588, 5.20513 16.4477, 5.56533 16.166, 5.9261 15.8849, 6.1926 15.5259, 6.36484 15.0882, 6.45742 14.8257, 6.53597 14.4997, 6.60049 14.1103, 6.66557 13.7215, 6.7099 13.3102, 6.73458 12.876, 6.75927 12.4423, 6.77498 11.9934, 6.78115 11.5294, 6.78732 11.066, 6.79013 10.6245, 6.79013 10.2048 Z" stroke="none" fill="#E50A00" />
			<path d="M 14.8825 15.7342 C 14.8825 16.0399, 14.7743 16.2981, 14.5573 16.5088, 14.3403 16.7195, 14.0775 16.8243, 13.7689 16.8243, 13.4609 16.8243, 13.197 16.7195, 12.9766 16.5088, 12.7568 16.2981, 12.6463 16.0399, 12.6463 15.7342, 12.6463 15.4354, 12.7568 15.1806, 12.9766 14.9699, 13.197 14.7592, 13.4609 14.6539, 13.7689 14.6533, 14.0775 14.6539, 14.3403 14.7592, 14.5573 14.9699, 14.7743 15.1806, 14.8825 15.4354, 14.8825 15.7342 Z" stroke="none" fill="#E50A00" />
			<path d="M 27.2502 12.7991 C 27.2502 13.386, 27.1396 13.9459, 26.9174 14.4784, 26.6958 15.0114, 26.3755 15.49, 25.9558 15.9141, 25.5305 16.3276, 25.0514 16.6435, 24.5184 16.8612, 23.9854 17.08, 23.4192 17.1888, 22.8212 17.1888, 22.3039 17.1888, 21.8213 17.0918, 21.3742 16.8971, 20.9276 16.703, 20.5393 16.437, 20.2094 16.0987, 19.8795 15.761, 19.6209 15.3688, 19.4329 14.9227, 19.245 14.4772, 19.1507 14.0026, 19.1507 13.4993, 19.1507 13.1526, 19.2663 12.8911, 19.4974 12.7144, 19.7286 12.5382, 19.9676 12.4496, 20.2139 12.449, 20.4731 12.4496, 20.7166 12.5365, 20.9444 12.7099, 21.1728 12.8838, 21.2867 13.147, 21.2867 13.4993, 21.2867 13.7153, 21.239 13.8966, 21.1436 14.043, 21.0482 14.19, 20.9309 14.3033, 20.7918 14.3841, 20.6532 14.4649, 20.4978 14.5115, 20.325 14.5227 L 20.2139 14.5227, 20.0288 14.5227 C 20.1707 15.026, 20.5006 15.4782, 21.0185 15.8788, 21.5363 16.2799, 22.1372 16.4802, 22.8212 16.4797, 23.1791 16.4802, 23.5275 16.3877, 23.8664 16.2019, 24.2053 16.0168, 24.483 15.7711, 24.6985 15.4653, 24.9509 15.1006, 25.1131 14.6865, 25.1838 14.2225, 25.2545 13.7591, 25.2898 13.2844, 25.2898 12.7991, 25.2898 12.3088, 25.2747 11.838, 25.2438 11.3858, 25.2135 10.9342, 25.0867 10.5078, 24.8645 10.106, 24.7046 9.81316, 24.4998 9.56966, 24.2502 9.37497, 24.0005 9.18085, 23.7217 9.08322, 23.4131 9.08266, 22.8273 9.08322, 22.319 9.2016, 21.8876 9.43781, 21.4561 9.67458, 21.1077 10.014, 20.8429 10.4561, 20.7873 10.5582, 20.6981 10.6093, 20.5747 10.6087 L 20.5006 10.6087 C 20.2852 10.6093, 20.1769 10.5106, 20.1769 10.3125 L 20.1769 4.01068 C 20.1769 3.85583, 20.2666 3.75708, 20.4451 3.71444, 20.4759 3.715, 20.4989 3.71837, 20.5146 3.72398, 20.5303 3.73015, 20.5438 3.73296, 20.5562 3.7324, 21.4499 4.13972, 22.3712 4.34339, 23.3205 4.34283, 24.2822 4.34339, 25.204 4.13972, 26.0854 3.7324, 26.0977 3.73296, 26.1101 3.73015, 26.1224 3.72398, 26.1348 3.71837, 26.1533 3.715, 26.178 3.71444, 26.3811 3.715, 26.4798 3.80758, 26.4737 3.99273, 26.4737 4.10101, 26.4551 4.17283, 26.4181 4.20817, 25.9805 4.80739, 25.4245 5.27587, 24.7495 5.61363, 24.0746 5.95195, 23.3581 6.12083, 22.5995 6.12027, 21.9711 6.12083, 21.4286 6.04901, 20.9719 5.90482 L 20.9719 9.33401 C 21.1879 9.10735, 21.5133 8.90536, 21.9476 8.72863, 22.3824 8.55246, 22.8711 8.46381, 23.4131 8.46325, 23.9433 8.46381, 24.4443 8.58388, 24.9156 8.82289, 25.3874 9.06246, 25.8021 9.37329, 26.1595 9.75593, 26.5292 10.1874, 26.8036 10.6648, 26.982 11.1883, 27.1609 11.7123, 27.2502 12.2493, 27.2502 12.7991 Z" stroke="none" fill="#E50A00" />
			<path d="M 43.8913 16.8334 C 43.0738 16.7911, 42.2849 16.7693, 41.5234 16.7693 L 41.1553 16.7693 C 40.2685 16.7819, 39.3467 16.8002, 38.3906 16.8243 L 38.3906 16.064 C 38.674 16.0646, 38.9288 16.0542, 39.1549 16.0325, 39.3817 16.0113, 39.5826 15.9667, 39.7589 15.8991, 39.8408 15.8567, 39.9129 15.7926, 39.9759 15.7067, 40.0011 15.677, 40.0137 15.6369, 40.0137 15.5877, 40.0137 15.5636, 40.0108 15.5361, 40.004 15.5052 L 38.938 12.5465, 34.3052 12.5465, 33.4281 15.0014 C 33.3966 15.0753, 33.3806 15.1457, 33.3806 15.2121, 33.3806 15.2739, 33.3903 15.3346, 33.4092 15.3953, 33.4596 15.5304, 33.5415 15.6403, 33.6543 15.7251, 33.818 15.8602, 33.9926 15.9501, 34.1781 15.9959, 34.3636 16.0417, 34.5886 16.0646, 34.8525 16.064 L 34.8525 16.8243 C 34.0917 16.8002, 33.3652 16.7819, 32.673 16.7693 L 32.381 16.7693 C 31.777 16.7693, 31.1478 16.7911, 30.494 16.8334 L 30.494 16.064 C 30.7963 16.0646, 31.0585 16.0451, 31.2818 16.005, 31.5051 15.9655, 31.7203 15.8876, 31.9276 15.7709, 32.2677 15.5819, 32.5064 15.3043, 32.6449 14.9373 L 36.7206 3.4596 C 36.7836 3.27697, 36.9159 3.18824, 37.1168 3.19396 L 37.268 3.19396 C 37.4695 3.19453, 37.6012 3.28327, 37.6641 3.4596 L 41.9476 15.4502 C 41.9797 15.567, 42.0284 15.6707, 42.0942 15.7623, 42.1606 15.8539, 42.2499 15.9151, 42.3627 15.9449, 42.5265 16.0067, 42.7423 16.0417, 43.0097 16.0508, 43.277 16.06, 43.5707 16.0646, 43.8913 16.064 L 43.8913 16.8334 Z M 36.6359 6.04277 L 34.5789 11.7862, 38.6643 11.7862 Z" stroke="none" fill="#E50A00" />
			<rect />
		</svg>
	</g>
</svg>
