<?xml version="1.0"?>
<svg xmlns="http://www.w3.org/2000/svg" xmlns:xlink="http://www.w3.org/1999/xlink" width="404.725189" height="206.296616">
	<defs>
		<marker id="CustomMarker-01" markerUnits="strokeWidth" markerWidth="14.25" markerHeight="13.5" viewBox="-14.25 -6.75 14.25 13.5" orient="auto-start-reverse">
			<path d="M -9.5 -4.5 L 0 -0, -9.5 4.5" fill="none" stroke="#000000" stroke-linejoin="round" />
		</marker>
		<marker id="CustomMarker-02" markerUnits="strokeWidth" markerWidth="14.25" markerHeight="13.5" viewBox="-14.25 -6.75 14.25 13.5" orient="auto-start-reverse">
			<path d="M -9.5 -4.5 L 0 -0, -9.5 4.5" fill="none" stroke="#000000" stroke-linejoin="round" />
		</marker>
	</defs>
	<g transform="matrix(1 0 -0 1 11.5 149.065)">
		<svg width="171.007996" height="128.999954">
			<defs />
			<path d="M 26.4127 18.9165 C 26.3692 18.8191, 26.3027 18.6571, 26.2146 18.431, 26.0262 17.9609, 25.8814 17.5974, 25.7806 17.3409, 21.378 17.7319, 18.2298 18.0159, 16.3365 18.1928 L 16.0628 16.8005 C 16.9559 16.7524, 18.5349 16.6453, 20.7992 16.4799, 20.9126 16.4684, 21.0002 16.4592, 21.0631 16.4524 L 21.0631 12.1654, 18.346 12.1654, 18.346 12.9349, 17.0155 12.9349, 17.0155 5.13958, 21.0631 5.13958, 21.0631 1.8694, 22.4503 1.8694, 22.4503 5.13958, 26.5071 5.13958, 26.5071 12.1654, 22.4503 12.1654, 22.4503 16.3608 C 22.9284 16.3247, 23.6137 16.2634, 24.5068 16.1776, 24.8469 16.1478, 25.0982 16.126, 25.2619 16.1134 L 24.3276 13.97, 25.5825 13.5486 C 26.4951 15.5764, 27.1993 17.2253, 27.6962 18.4951 Z M 10.9303 18.6325 C 10.9114 18.5289, 10.8862 18.376, 10.8547 18.1745, 10.7917 17.7411, 10.7385 17.4176, 10.6944 17.2035, 11.0654 17.247, 11.6597 17.2682, 12.4772 17.2676, 13.044 17.2682, 13.4493 17.0512, 13.6944 16.6173, 13.9526 16.1661, 14.0814 15.3932, 14.0814 14.2997, 14.0814 13.1524, 14.0407 12.1082, 13.9589 11.167, 13.072 12.3463, 12.069 13.3906, 10.9492 14.2997, 10.7225 13.8486, 10.49 13.4181, 10.2507 13.0082, 11.6224 11.9708, 12.7921 10.7582, 13.7608 9.37157, 13.5913 8.40117, 13.3743 7.59221, 13.1098 6.94413, 12.4366 7.59794, 11.7289 8.20251, 10.987 8.75784, 10.798 8.40403, 10.553 8.00098, 10.2507 7.5487, 11.0247 7.0363, 11.7919 6.41971, 12.5528 5.69835, 12.0306 4.7829, 11.3705 3.89151, 10.5719 3.02358 L 11.619 2.27245 C 12.4812 3.17072, 13.1224 3.97051, 13.5438 4.67241, 14.0974 4.06841, 14.6917 3.32014, 15.3266 2.42817 L 16.4212 3.19763 C 15.6667 4.19379, 14.9115 5.08519, 14.1569 5.87239, 14.635 6.9052, 14.9716 8.09602, 15.1663 9.44485, 15.3552 10.7158, 15.4497 12.328, 15.4497 14.2814, 15.4497 15.8026, 15.2453 16.8835, 14.8359 17.5241, 14.434 18.1596, 13.7327 18.5168, 12.732 18.5958, 12.0215 18.6205, 11.4209 18.6325, 10.9303 18.6325 Z M 18.346 10.8738 L 21.0631 10.8738, 21.0631 6.41284, 18.346 6.41284 Z M 22.4503 10.8738 L 25.1863 10.8738, 25.1863 6.41284, 22.4503 6.41284 Z" stroke="none" fill="#000000" />
			<path d="M 29.6404 18.147 L 29.6404 16.7089, 38.8395 16.7089 C 40.2422 13.8394, 41.4908 10.7582, 42.5854 7.46626 L 44.1988 8.06167 C 42.9473 11.2013, 41.7049 14.0833, 40.4717 16.7089 L 46.7178 16.7089, 46.7178 18.147 Z M 34.9808 15.4173 C 34.1318 12.908, 33.2135 10.496, 32.2259 8.18075 L 33.6314 7.6403 C 34.5623 9.80267, 35.5184 12.1906, 36.4997 14.8035 Z M 30.1408 6.50444 L 30.1408 5.08462, 37.9716 5.08462 C 37.714 4.21784, 37.3647 3.21022, 36.9245 2.06177 L 38.4903 1.732 C 38.6603 2.17856, 38.9214 2.91137, 39.2735 3.93044, 39.4057 4.32203, 39.5065 4.61516, 39.5758 4.80981 L 38.4433 5.08462, 46.2558 5.08462, 46.2558 6.50444 Z" stroke="none" fill="#000000" />
			<path d="M 10.6484 41.9121 C 9.70487 41.9121, 9.02759 41.7077, 8.61538 41.2984, 8.20374 40.8896, 7.99764 40.2209, 7.99764 39.2923 L 7.99764 37.387, 2.97788 37.387, 2.97788 38.6511, 1.53458 38.6511, 1.53458 27.4116, 7.99764 27.4116, 7.99764 25.1032, 9.47872 25.1032, 9.47872 27.4116, 15.9698 27.4116, 15.9698 37.387, 9.47872 37.387, 9.47872 39.045 C 9.47872 39.6015, 9.60181 39.9936, 9.84685 40.2226, 10.0919 40.4516, 10.5258 40.5661, 11.1487 40.5656 L 14.404 40.5656 C 14.9639 40.5661, 15.3819 40.4682, 15.6584 40.2724, 15.9229 40.0835, 16.1118 39.7692, 16.2246 39.3289, 16.3757 38.6637, 16.4954 37.9584, 16.583 37.2129, 17.0994 37.4087, 17.5803 37.5616, 18.0269 37.671, 17.9078 38.4896, 17.7566 39.3112, 17.574 40.135, 17.4103 40.7585, 17.1212 41.2068, 16.7061 41.4816, 16.2658 41.769, 15.6086 41.9121, 14.7338 41.9121 Z M 2.97788 36.0404 L 7.99764 36.0404, 7.99764 33.0359, 2.97788 33.0359 Z M 9.47872 36.0404 L 14.5168 36.0404, 14.5168 33.0359, 9.47872 33.0359 Z M 2.97788 31.726 L 7.99764 31.726, 7.99764 28.7581, 2.97788 28.7581 Z M 9.47872 31.726 L 14.5168 31.726, 14.5168 28.7581, 9.47872 28.7581 Z" stroke="none" fill="#000000" />
			<path d="M 21.1183 42.3518 C 20.76 42.022, 20.3357 41.6831, 19.8445 41.335, 20.4044 40.4929, 20.8201 39.7234, 21.0903 39.0267, 21.3857 38.2824, 21.5901 37.4305, 21.7035 36.471, 21.8168 35.5676, 21.8729 34.3527, 21.8729 32.8252 L 21.8729 26.3215, 37.0919 26.3215, 37.0919 27.7413, 23.3546 27.7413, 23.3546 32.5687 C 23.3546 34.3218, 23.2979 35.7141, 23.1845 36.7458, 23.0586 37.8576, 22.8324 38.844, 22.5055 39.7045, 22.2033 40.5175, 21.7412 41.3991, 21.1183 42.3518 Z M 23.5904 41.4816 L 23.5904 40.0801, 29.5251 40.0801, 29.5251 33.9611, 24.8265 33.9611, 24.8265 32.5504, 29.5251 32.5504, 29.5251 28.8222, 31.0531 28.8222, 31.0531 32.5504, 36.4404 32.5504, 36.4404 33.9611, 31.0531 33.9611, 31.0531 40.0801, 37.1767 40.0801, 37.1767 41.4816 Z M 34.9971 38.7702 C 34.5443 38.1908, 33.7645 37.2748, 32.6573 36.0221 L 33.7044 35.2069 C 34.3336 35.8487, 35.1546 36.7401, 36.1673 37.8816 Z" stroke="none" fill="#000000" />
			<path d="M 43.2819 42.4892 C 42.9865 42.2327, 42.5903 41.9121, 42.0933 41.5274, 42.8983 40.2942, 43.4456 39.0484, 43.7347 37.79, 44.0433 36.4836, 44.1973 34.6607, 44.1973 32.3214 L 44.1973 26.2208, 56.4439 26.2208, 56.4439 27.4757, 51.6508 27.4757, 51.0188 29.5551, 55.2926 29.5551, 55.2926 36.4801, 51.8678 36.4801, 51.8678 40.4098 C 51.8678 41.039, 51.7344 41.5033, 51.467 41.8022, 51.1997 42.1016, 50.764 42.2665, 50.16 42.2968, 49.8016 42.3094, 49.2199 42.3152, 48.4144 42.3152, 48.3892 42.1262, 48.3297 41.836, 48.2352 41.4449, 48.1917 41.268, 48.1602 41.1335, 48.1408 41.0419, 48.8266 41.0665, 49.3425 41.0785, 49.6883 41.0785, 49.9842 41.0785, 50.2029 41.007, 50.3444 40.8638, 50.4858 40.7207, 50.5562 40.49, 50.5562 40.1717 L 50.5562 36.4801, 47.0845 36.4801, 47.0845 29.5551, 49.6224 29.5551, 50.1789 27.4757, 45.5461 27.4757, 45.5461 32.3031 C 45.5461 34.722, 45.3858 36.6456, 45.0652 38.074, 44.7509 39.4915, 44.1567 40.9629, 43.2819 42.4892 Z M 40.725 42.2785 L 39.3573 41.848 C 39.9802 39.5952, 40.5081 37.3629, 40.942 35.1519, 41.3703 35.3357, 41.8071 35.4885, 42.2536 35.6099, 41.7189 37.821, 41.2094 40.044, 40.725 42.2785 Z M 46.3391 41.7747 C 46.0311 41.4816, 45.7133 41.2068, 45.3858 40.9503, 46.4364 39.827, 47.3267 38.6854, 48.056 37.5244 L 49.1507 38.1564 C 48.1946 39.5127, 47.2574 40.719, 46.3391 41.7747 Z M 55.5571 41.6007 C 54.6639 40.4287, 53.7577 39.2866, 52.8393 38.1748 L 53.8493 37.4969 C 54.8431 38.615, 55.774 39.7205, 56.642 40.8129 Z M 48.4144 35.3076 L 53.9907 35.3076, 53.9907 33.5397, 48.4144 33.5397 Z M 41.6783 33.4756 C 40.7915 32.6031, 39.9109 31.7753, 39.0361 30.9932 L 40.0552 30.1138 C 40.93 30.8226, 41.8386 31.6167, 42.7821 32.4955 Z M 48.4144 32.4955 L 53.9907 32.4955, 53.9907 30.7459, 48.4144 30.7459 Z M 42.2536 28.8222 C 41.1155 27.6623, 40.247 26.8076, 39.6493 26.2574 L 40.725 25.4147 C 41.7126 26.2883, 42.5994 27.0978, 43.3855 27.8421 Z" stroke="none" fill="#000000" />
			<rect />
		</svg>
	</g>
	<path d="M 0 87.1086 L 0 -87.1091" fill="none" stroke="#000000" stroke-width="1.86666667" stroke-linecap="round" stroke-linejoin="round" transform="matrix(0.714286 0 0 0.714286 40.0938 70.2208)" />
	<path d="M 23.9591 -0 C 23.9591 13.2319, 13.2322 23.9585, -0 23.9585, -13.2322 23.9585, -23.9591 13.2319, -23.9591 -0, -23.9591 -13.2319, -13.2322 -23.9585, -0 -23.9585, 13.2322 -23.9585, 23.9591 -13.2319, 23.9591 -0 Z" fill="none" stroke="#000000" stroke-width="1.86666667" stroke-linecap="round" stroke-linejoin="round" transform="matrix(0.714286 0 -0 0.714286 40.0938 70.2208)" />
	<g transform="matrix(1 0 -0 1 18.1182 33.1144)">
		<svg width="119.936646" height="119.999977">
			<defs />
			<polyline points="-5.628 0 5.628 0" fill="none" stroke="#000000" stroke-width="0.64319998" stroke-linecap="round" stroke-linejoin="round" transform="matrix(1 0 0 1 5.628 9.60638)" />
			<polyline points="0 -5.628 0 5.628" fill="none" stroke="#000000" stroke-width="0.64319998" stroke-linecap="round" stroke-linejoin="round" transform="matrix(1 0 0 1 5.628 9.60638)" />
			<rect />
		</svg>
	</g>
	<g transform="matrix(1 0 -0 1 17.5627 88.1144)">
		<svg width="119.936646" height="83.9999847">
			<defs />
			<polyline points="-5.628 0 5.628 0" fill="none" stroke="#000000" stroke-width="0.64319998" stroke-linecap="round" stroke-linejoin="round" transform="matrix(1 0 0 1 5.628 9.60638)" />
			<rect />
		</svg>
	</g>
	<g transform="matrix(1 0 -0 1 108.568 149.065)">
		<svg width="171.007996" height="128.999954">
			<defs />
			<path d="M 11.1278 19.2096 C 10.9269 18.7882, 10.6818 18.3273, 10.3921 17.8264, 13.4425 17.3506, 15.8287 16.7461, 17.5519 16.0127, 16.2123 15.0789, 15.0209 13.7627, 13.9766 12.0647 L 12.8539 12.0647, 12.8539 10.8189, 24.4283 10.8189, 24.4283 12.1654 C 23.3595 13.7599, 22.0513 15.0486, 20.5044 16.031, 21.3723 16.398, 22.3977 16.7031, 23.5793 16.947, 24.6928 17.1795, 26.0325 17.3753, 27.5978 17.5333, 27.4787 17.7474, 27.2835 18.1441, 27.0132 18.7241, 26.9628 18.834, 26.9251 18.9136, 26.8999 18.9623, 25.152 18.7121, 23.6429 18.4161, 22.3719 18.0737, 21.0952 17.7382, 19.9759 17.3352, 19.0141 16.8646, 17.1151 17.7749, 14.4861 18.5563, 11.1278 19.2096 Z M 19.0141 15.2982 C 20.4603 14.499, 21.7089 13.4209, 22.7589 12.0647 L 15.6272 12.0647 C 16.6147 13.4513, 17.7437 14.5293, 19.0141 15.2982 Z M 10.8261 10.9471 L 10.8261 7.56702, 21.7874 7.56702 C 22.2717 6.8594, 22.9129 5.84262, 23.7116 4.51669, 23.7619 4.42566, 23.8032 4.35868, 23.8341 4.31516 L 25.2585 4.77317 C 25.1829 4.88367, 25.073 5.04855, 24.9281 5.26782, 24.2806 6.26399, 23.7619 7.03001, 23.3721 7.56702 L 27.098 7.56702, 27.098 10.9471, 25.6547 10.9471, 25.6547 8.8128, 12.2974 8.8128, 12.2974 10.9471 Z M 14.0424 7.46626 C 13.5461 6.6241, 13.0491 5.8243, 12.5522 5.0663 L 13.901 4.63577 C 14.272 5.16763, 14.7535 5.95254, 15.3443 6.98993 Z M 18.7782 7.29222 C 18.4073 6.36475, 18.03 5.52488, 17.6458 4.77317 L 19.033 4.40677 C 19.4481 5.22546, 19.8254 6.05903, 20.1649 6.90749 Z M 11.6654 4.09532 C 11.5589 3.55258, 11.4581 3.11862, 11.3637 2.79458, 16.5769 2.77053, 21.4668 2.60909, 26.0319 2.30909 L 26.3526 3.58235 C 21.9385 3.83941, 17.0424 4.01059, 11.6654 4.09532 Z" stroke="none" fill="#000000" />
			<path d="M 29.6874 18.9623 C 29.637 18.5472, 29.5494 18.0646, 29.4234 17.5149, 29.7566 17.5401, 30.2536 17.5522, 30.9137 17.5516, 31.2223 17.5522, 31.4438 17.4789, 31.5789 17.3323, 31.7141 17.1858, 31.7816 16.9321, 31.7816 16.5715 L 31.7816 12.028, 29.5838 12.6417, 29.4046 11.1212 C 30.3984 10.9139, 31.1908 10.737, 31.7816 10.5899 L 31.7816 6.4678, 29.6215 6.4678, 29.6215 5.17622, 31.7816 5.17622, 31.7816 1.80528, 33.1682 1.80528, 33.1682 5.17622, 34.951 5.17622, 34.951 6.4678, 33.1682 6.4678, 33.1682 10.2418 C 33.3257 10.1994, 33.549 10.1416, 33.8381 10.0677, 34.3602 9.93377, 34.7466 9.83015, 34.9985 9.7563, 35.0174 10.3431, 35.0426 10.8194, 35.0735 11.1853 L 33.1682 11.6616, 33.1682 16.8188 C 33.1682 17.5401, 33.0303 18.0634, 32.7532 18.3897, 32.4766 18.7166, 32.0146 18.9016, 31.3665 18.9439, 30.9956 18.9565, 30.4362 18.9623, 29.6874 18.9623 Z M 34.8944 18.4035 L 34.8944 17.1302, 40.2903 17.1302, 40.2903 12.8158, 36.0829 12.8158, 36.0829 11.57, 45.9781 11.57, 45.9781 12.8158, 41.7336 12.8158, 41.7336 17.1302, 46.8083 17.1302, 46.8083 18.4035 Z M 45.6197 10.9929 C 44.4129 9.93721, 43.1517 8.90211, 41.8372 7.88763 L 42.724 6.98993 C 44.177 8.01644, 45.4657 8.99658, 46.5913 9.93034 Z M 36.423 10.9746 C 36.1149 10.5721, 35.8161 10.224, 35.5264 9.93034, 36.9165 9.00287, 38.1932 8.02274, 39.3565 6.98993 L 40.2903 7.93343 C 39.1584 8.93532, 37.8691 9.94923, 36.423 10.9746 Z M 35.7245 7.5029 L 35.7245 4.23272, 40.6864 4.23272 C 40.3847 3.55544, 40.02 2.85011, 39.5924 2.11673 L 40.979 1.75032 C 41.3437 2.36749, 41.7336 3.1066, 42.1486 3.96708 L 41.3563 4.23272, 46.3743 4.23272, 46.3743 7.48458, 44.9877 7.48458, 44.9877 5.52431, 37.0733 5.52431, 37.0733 7.5029 Z" stroke="none" fill="#000000" />
			<path d="M 10.6484 41.9121 C 9.70487 41.9121, 9.02759 41.7077, 8.61538 41.2984, 8.20374 40.8896, 7.99764 40.2209, 7.99764 39.2923 L 7.99764 37.387, 2.97788 37.387, 2.97788 38.6511, 1.53458 38.6511, 1.53458 27.4116, 7.99764 27.4116, 7.99764 25.1032, 9.47872 25.1032, 9.47872 27.4116, 15.9698 27.4116, 15.9698 37.387, 9.47872 37.387, 9.47872 39.045 C 9.47872 39.6015, 9.60181 39.9936, 9.84685 40.2226, 10.0919 40.4516, 10.5258 40.5661, 11.1487 40.5656 L 14.404 40.5656 C 14.9639 40.5661, 15.3819 40.4682, 15.6584 40.2724, 15.9229 40.0835, 16.1118 39.7692, 16.2246 39.3289, 16.3757 38.6637, 16.4954 37.9584, 16.583 37.2129, 17.0994 37.4087, 17.5803 37.5616, 18.0269 37.671, 17.9078 38.4896, 17.7566 39.3112, 17.574 40.135, 17.4103 40.7585, 17.1212 41.2068, 16.7061 41.4816, 16.2658 41.769, 15.6086 41.9121, 14.7338 41.9121 Z M 2.97788 36.0404 L 7.99764 36.0404, 7.99764 33.0359, 2.97788 33.0359 Z M 9.47872 36.0404 L 14.5168 36.0404, 14.5168 33.0359, 9.47872 33.0359 Z M 2.97788 31.726 L 7.99764 31.726, 7.99764 28.7581, 2.97788 28.7581 Z M 9.47872 31.726 L 14.5168 31.726, 14.5168 28.7581, 9.47872 28.7581 Z" stroke="none" fill="#000000" />
			<path d="M 21.1183 42.3518 C 20.76 42.022, 20.3357 41.6831, 19.8445 41.335, 20.4044 40.4929, 20.8201 39.7234, 21.0903 39.0267, 21.3857 38.2824, 21.5901 37.4305, 21.7035 36.471, 21.8168 35.5676, 21.8729 34.3527, 21.8729 32.8252 L 21.8729 26.3215, 37.0919 26.3215, 37.0919 27.7413, 23.3546 27.7413, 23.3546 32.5687 C 23.3546 34.3218, 23.2979 35.7141, 23.1845 36.7458, 23.0586 37.8576, 22.8324 38.844, 22.5055 39.7045, 22.2033 40.5175, 21.7412 41.3991, 21.1183 42.3518 Z M 23.5904 41.4816 L 23.5904 40.0801, 29.5251 40.0801, 29.5251 33.9611, 24.8265 33.9611, 24.8265 32.5504, 29.5251 32.5504, 29.5251 28.8222, 31.0531 28.8222, 31.0531 32.5504, 36.4404 32.5504, 36.4404 33.9611, 31.0531 33.9611, 31.0531 40.0801, 37.1767 40.0801, 37.1767 41.4816 Z M 34.9971 38.7702 C 34.5443 38.1908, 33.7645 37.2748, 32.6573 36.0221 L 33.7044 35.2069 C 34.3336 35.8487, 35.1546 36.7401, 36.1673 37.8816 Z" stroke="none" fill="#000000" />
			<path d="M 43.2819 42.4892 C 42.9865 42.2327, 42.5903 41.9121, 42.0933 41.5274, 42.8983 40.2942, 43.4456 39.0484, 43.7347 37.79, 44.0433 36.4836, 44.1973 34.6607, 44.1973 32.3214 L 44.1973 26.2208, 56.4439 26.2208, 56.4439 27.4757, 51.6508 27.4757, 51.0188 29.5551, 55.2926 29.5551, 55.2926 36.4801, 51.8678 36.4801, 51.8678 40.4098 C 51.8678 41.039, 51.7344 41.5033, 51.467 41.8022, 51.1997 42.1016, 50.764 42.2665, 50.16 42.2968, 49.8016 42.3094, 49.2199 42.3152, 48.4144 42.3152, 48.3892 42.1262, 48.3297 41.836, 48.2352 41.4449, 48.1917 41.268, 48.1602 41.1335, 48.1408 41.0419, 48.8266 41.0665, 49.3425 41.0785, 49.6883 41.0785, 49.9842 41.0785, 50.2029 41.007, 50.3444 40.8638, 50.4858 40.7207, 50.5562 40.49, 50.5562 40.1717 L 50.5562 36.4801, 47.0845 36.4801, 47.0845 29.5551, 49.6224 29.5551, 50.1789 27.4757, 45.5461 27.4757, 45.5461 32.3031 C 45.5461 34.722, 45.3858 36.6456, 45.0652 38.074, 44.7509 39.4915, 44.1567 40.9629, 43.2819 42.4892 Z M 40.725 42.2785 L 39.3573 41.848 C 39.9802 39.5952, 40.5081 37.3629, 40.942 35.1519, 41.3703 35.3357, 41.8071 35.4885, 42.2536 35.6099, 41.7189 37.821, 41.2094 40.044, 40.725 42.2785 Z M 46.3391 41.7747 C 46.0311 41.4816, 45.7133 41.2068, 45.3858 40.9503, 46.4364 39.827, 47.3267 38.6854, 48.056 37.5244 L 49.1507 38.1564 C 48.1946 39.5127, 47.2574 40.719, 46.3391 41.7747 Z M 55.5571 41.6007 C 54.6639 40.4287, 53.7577 39.2866, 52.8393 38.1748 L 53.8493 37.4969 C 54.8431 38.615, 55.774 39.7205, 56.642 40.8129 Z M 48.4144 35.3076 L 53.9907 35.3076, 53.9907 33.5397, 48.4144 33.5397 Z M 41.6783 33.4756 C 40.7915 32.6031, 39.9109 31.7753, 39.0361 30.9932 L 40.0552 30.1138 C 40.93 30.8226, 41.8386 31.6167, 42.7821 32.4955 Z M 48.4144 32.4955 L 53.9907 32.4955, 53.9907 30.7459, 48.4144 30.7459 Z M 42.2536 28.8222 C 41.1155 27.6623, 40.247 26.8076, 39.6493 26.2574 L 40.725 25.4147 C 41.7126 26.2883, 42.5994 27.0978, 43.3855 27.8421 Z" stroke="none" fill="#000000" />
			<rect />
		</svg>
	</g>
	<path d="M 0 87.1086 L 0 -87.1091" fill="none" stroke="#000000" stroke-width="1.86666667" stroke-linecap="round" stroke-linejoin="round" transform="matrix(0.714286 0 0 0.714286 137.162 70.2208)" />
	<g transform="matrix(1 0 -0 1 115.186 33.1144)">
		<svg width="119.936646" height="119.999977">
			<defs />
			<polyline points="-5.628 0 5.628 0" fill="none" stroke="#000000" stroke-width="0.64319998" stroke-linecap="round" stroke-linejoin="round" transform="matrix(1 0 0 1 5.628 9.60638)" />
			<polyline points="0 -5.628 0 5.628" fill="none" stroke="#000000" stroke-width="0.64319998" stroke-linecap="round" stroke-linejoin="round" transform="matrix(1 0 0 1 5.628 9.60638)" />
			<rect />
		</svg>
	</g>
	<g transform="matrix(1 0 -0 1 114.631 88.1147)">
		<svg width="119.936646" height="83.9999847">
			<defs />
			<polyline points="-5.628 0 5.628 0" fill="none" stroke="#000000" stroke-width="0.64319998" stroke-linecap="round" stroke-linejoin="round" transform="matrix(1 0 0 1 5.628 9.60638)" />
			<rect />
		</svg>
	</g>
	<path d="M -34.5403 0 L 0 -21.2556, 34.5403 0, 0 21.2556 Z" fill="none" stroke="#000000" stroke-width="1.86666667" stroke-linecap="round" stroke-linejoin="round" transform="matrix(5.39271e-008 0.714286 -0.714286 5.39271e-008 137.162 70.3545)" />
	<path d="M 0 31.5752 L 0 -31.5752" fill="none" stroke="#000000" stroke-width="1.86666667" stroke-linecap="round" stroke-linejoin="round" transform="matrix(0.714286 0 0 0.714286 267.563 30.5538)" />
	<path d="M 23.9591 -0 C 23.9591 13.232, 13.2322 23.9586, -0 23.9586, -13.2322 23.9586, -23.9591 13.232, -23.9591 -0, -23.9591 -13.232, -13.2322 -23.9586, -0 -23.9586, 13.2322 -23.9586, 23.9591 -13.232, 23.9591 -0 Z" fill="none" stroke="#000000" stroke-width="1.86666667" stroke-linecap="round" stroke-linejoin="round" transform="matrix(0.714286 0 -0 0.714286 267.563 70.2211)" />
	<path d="M 0 31.5748 L 0 -31.5752" fill="none" stroke="#000000" stroke-width="1.86666667" stroke-linecap="round" stroke-linejoin="round" transform="matrix(0.714286 0 0 0.714286 267.563 109.888)" />
	<path d="M -23.9587 0 L 23.9595 0" fill="none" stroke="#000000" stroke-width="1.86666667" stroke-linecap="round" stroke-linejoin="round" transform="matrix(0.714286 0 0 0.714286 267.563 70.2211)" />
	<path d="M 0 7.10034 L 0 -7.10046" fill="none" stroke="#000000" stroke-width="1.49333334" stroke-linecap="round" stroke-linejoin="round" marker-end="url(#CustomMarker-01)" transform="matrix(0.714286 0 0 0.714286 267.563 27.6885)" />
	<g transform="matrix(1 0 -0 1 238.969 149.065)">
		<svg width="171.007996" height="128.999954">
			<defs />
			<path d="M 26.4127 18.9165 C 26.3692 18.8191, 26.3027 18.6571, 26.2146 18.431, 26.0262 17.9609, 25.8814 17.5974, 25.7806 17.3409, 21.378 17.7319, 18.2298 18.0159, 16.3365 18.1928 L 16.0628 16.8005 C 16.9559 16.7524, 18.5349 16.6453, 20.7992 16.4799, 20.9126 16.4684, 21.0002 16.4592, 21.0631 16.4524 L 21.0631 12.1654, 18.346 12.1654, 18.346 12.9349, 17.0155 12.9349, 17.0155 5.13958, 21.0631 5.13958, 21.0631 1.8694, 22.4503 1.8694, 22.4503 5.13958, 26.5071 5.13958, 26.5071 12.1654, 22.4503 12.1654, 22.4503 16.3608 C 22.9284 16.3247, 23.6137 16.2634, 24.5068 16.1776, 24.8469 16.1478, 25.0982 16.126, 25.2619 16.1134 L 24.3276 13.97, 25.5825 13.5486 C 26.4951 15.5764, 27.1993 17.2253, 27.6962 18.4951 Z M 10.9303 18.6325 C 10.9114 18.5289, 10.8862 18.376, 10.8547 18.1745, 10.7917 17.7411, 10.7385 17.4176, 10.6944 17.2035, 11.0654 17.247, 11.6597 17.2682, 12.4772 17.2676, 13.044 17.2682, 13.4493 17.0512, 13.6944 16.6173, 13.9526 16.1661, 14.0814 15.3932, 14.0814 14.2997, 14.0814 13.1524, 14.0407 12.1082, 13.9589 11.167, 13.072 12.3463, 12.069 13.3906, 10.9492 14.2997, 10.7225 13.8486, 10.49 13.4181, 10.2507 13.0082, 11.6224 11.9708, 12.7921 10.7582, 13.7608 9.37157, 13.5913 8.40117, 13.3743 7.59221, 13.1098 6.94413, 12.4366 7.59794, 11.7289 8.20251, 10.987 8.75784, 10.798 8.40403, 10.553 8.00098, 10.2507 7.5487, 11.0247 7.0363, 11.7919 6.41971, 12.5528 5.69835, 12.0306 4.7829, 11.3705 3.89151, 10.5719 3.02358 L 11.619 2.27245 C 12.4812 3.17072, 13.1224 3.97051, 13.5438 4.67241, 14.0974 4.06841, 14.6917 3.32014, 15.3266 2.42817 L 16.4212 3.19763 C 15.6667 4.19379, 14.9115 5.08519, 14.1569 5.87239, 14.635 6.9052, 14.9716 8.09602, 15.1663 9.44485, 15.3552 10.7158, 15.4497 12.328, 15.4497 14.2814, 15.4497 15.8026, 15.2453 16.8835, 14.8359 17.5241, 14.434 18.1596, 13.7327 18.5168, 12.732 18.5958, 12.0215 18.6205, 11.4209 18.6325, 10.9303 18.6325 Z M 18.346 10.8738 L 21.0631 10.8738, 21.0631 6.41284, 18.346 6.41284 Z M 22.4503 10.8738 L 25.1863 10.8738, 25.1863 6.41284, 22.4503 6.41284 Z" stroke="none" fill="#000000" />
			<path d="M 29.6404 18.147 L 29.6404 16.7089, 38.8395 16.7089 C 40.2422 13.8394, 41.4908 10.7582, 42.5854 7.46626 L 44.1988 8.06167 C 42.9473 11.2013, 41.7049 14.0833, 40.4717 16.7089 L 46.7178 16.7089, 46.7178 18.147 Z M 34.9808 15.4173 C 34.1318 12.908, 33.2135 10.496, 32.2259 8.18075 L 33.6314 7.6403 C 34.5623 9.80267, 35.5184 12.1906, 36.4997 14.8035 Z M 30.1408 6.50444 L 30.1408 5.08462, 37.9716 5.08462 C 37.714 4.21784, 37.3647 3.21022, 36.9245 2.06177 L 38.4903 1.732 C 38.6603 2.17856, 38.9214 2.91137, 39.2735 3.93044, 39.4057 4.32203, 39.5065 4.61516, 39.5758 4.80981 L 38.4433 5.08462, 46.2558 5.08462, 46.2558 6.50444 Z" stroke="none" fill="#000000" />
			<path d="M 10.6484 41.9121 C 9.70487 41.9121, 9.02759 41.7077, 8.61538 41.2984, 8.20374 40.8896, 7.99764 40.2209, 7.99764 39.2923 L 7.99764 37.387, 2.97788 37.387, 2.97788 38.6511, 1.53458 38.6511, 1.53458 27.4116, 7.99764 27.4116, 7.99764 25.1032, 9.47872 25.1032, 9.47872 27.4116, 15.9698 27.4116, 15.9698 37.387, 9.47872 37.387, 9.47872 39.045 C 9.47872 39.6015, 9.60181 39.9936, 9.84685 40.2226, 10.0919 40.4516, 10.5258 40.5661, 11.1487 40.5656 L 14.404 40.5656 C 14.9639 40.5661, 15.3819 40.4682, 15.6584 40.2724, 15.9229 40.0835, 16.1118 39.7692, 16.2246 39.3289, 16.3757 38.6637, 16.4954 37.9584, 16.583 37.2129, 17.0994 37.4087, 17.5803 37.5616, 18.0269 37.671, 17.9078 38.4896, 17.7566 39.3112, 17.574 40.135, 17.4103 40.7585, 17.1212 41.2068, 16.7061 41.4816, 16.2658 41.769, 15.6086 41.9121, 14.7338 41.9121 Z M 2.97788 36.0404 L 7.99764 36.0404, 7.99764 33.0359, 2.97788 33.0359 Z M 9.47872 36.0404 L 14.5168 36.0404, 14.5168 33.0359, 9.47872 33.0359 Z M 2.97788 31.726 L 7.99764 31.726, 7.99764 28.7581, 2.97788 28.7581 Z M 9.47872 31.726 L 14.5168 31.726, 14.5168 28.7581, 9.47872 28.7581 Z" stroke="none" fill="#000000" />
			<path d="M 24.4853 42.5075 C 24.2088 42.239, 23.8378 41.9247, 23.3723 41.564, 24.2214 40.9354, 24.8316 40.2942, 25.2026 39.6404, 25.5925 38.9568, 25.8347 38.0717, 25.9286 36.9839, 25.9858 36.3313, 26.0139 35.476, 26.0139 34.4191 L 27.3816 34.4191 C 27.3816 35.354, 27.3473 36.258, 27.2774 37.1305, 27.1835 38.4072, 26.9225 39.4457, 26.4948 40.245, 26.086 41.0024, 25.4162 41.7564, 24.4853 42.5075 Z M 21.6743 42.251 L 20.2029 41.8113 C 20.914 39.6255, 21.5615 37.4397, 22.146 35.2527, 22.3979 35.3695, 22.8158 35.5218, 23.4009 35.7107, 23.4639 35.7296, 23.5074 35.7416, 23.5326 35.7473, 22.7345 38.398, 22.1151 40.5661, 21.6743 42.251 Z M 29.4381 42.077 L 29.4381 34.4191, 30.8247 34.4191, 30.8247 42.077 Z M 34.5975 42.0404 C 33.9941 42.0404, 33.5555 41.8984, 33.2819 41.6144, 33.0082 41.3304, 32.8714 40.8839, 32.8714 40.2724 L 32.8714 34.3641, 34.2202 34.3641, 34.2202 40.0251 C 34.2202 40.2942, 34.2758 40.4871, 34.3857 40.6028, 34.4956 40.719, 34.6702 40.7768, 34.909 40.7762 L 35.3051 40.7762 C 35.5256 40.7768, 35.6939 40.7173, 35.8101 40.5982, 35.9263 40.4791, 36.003 40.2822, 36.0408 40.0068, 36.1227 39.3049, 36.1885 38.5326, 36.2389 37.6893, 36.6603 37.8668, 37.0376 37.9893, 37.3708 38.0557, 37.2895 39.0518, 37.195 39.8545, 37.0879 40.4648, 36.9122 41.5154, 36.346 42.0404, 35.3899 42.0404 Z M 35.4843 34.1901 L 34.5506 33.0542 C 32.8216 33.0914, 30.5545 33.1647, 27.7492 33.2741, 27.4034 33.2867, 27.1429 33.2958, 26.9665 33.3016, 26.8847 33.3084, 26.7713 33.3176, 26.627 33.329, 26.0362 33.36, 25.5988 33.3966, 25.3154 33.439 L 24.7212 32.1657 C 25.1494 31.9527, 25.561 31.6899, 25.9572 31.3779, 26.7496 30.7373, 27.6616 29.8001, 28.6927 28.5658 L 24.542 28.5658, 24.542 27.32, 30.1548 27.32 C 29.9035 26.7526, 29.5984 26.1114, 29.24 25.3963 L 30.8058 25.0483, 31.7773 27.1643, 31.2867 27.32, 36.7576 27.32, 36.7576 28.5658, 30.3529 28.5658, 30.5699 28.6299 C 29.3121 29.9312, 28.1236 31.0734, 27.0043 32.0558, 28.0795 32.0443, 29.8846 32.0014, 32.4185 31.9275, 32.9344 31.9161, 33.3151 31.9069, 33.5601 31.9001, 33.1954 31.4609, 32.667 30.8718, 31.9754 30.1321 L 33.0695 29.436 C 34.3588 30.7676, 35.5662 32.0718, 36.6918 33.3474 Z M 22.5422 33.4573 C 21.6119 32.6151, 20.6998 31.8394, 19.8067 31.1306 L 20.7405 30.1321 C 21.791 30.9205, 22.7282 31.6625, 23.5515 32.3581 Z M 23.0609 28.7856 C 22.2937 28.0534, 21.3823 27.2564, 20.3254 26.3948 L 21.297 25.4147 C 22.1523 26.0685, 23.0769 26.8196, 24.0702 27.6681 Z" stroke="none" fill="#000000" />
			<path d="M 43.2819 42.4892 C 42.9865 42.2327, 42.5903 41.9121, 42.0933 41.5274, 42.8983 40.2942, 43.4456 39.0484, 43.7347 37.79, 44.0433 36.4836, 44.1973 34.6607, 44.1973 32.3214 L 44.1973 26.2208, 56.4439 26.2208, 56.4439 27.4757, 51.6508 27.4757, 51.0188 29.5551, 55.2926 29.5551, 55.2926 36.4801, 51.8678 36.4801, 51.8678 40.4098 C 51.8678 41.039, 51.7344 41.5033, 51.467 41.8022, 51.1997 42.1016, 50.764 42.2665, 50.16 42.2968, 49.8016 42.3094, 49.2199 42.3152, 48.4144 42.3152, 48.3892 42.1262, 48.3297 41.836, 48.2352 41.4449, 48.1917 41.268, 48.1602 41.1335, 48.1408 41.0419, 48.8266 41.0665, 49.3425 41.0785, 49.6883 41.0785, 49.9842 41.0785, 50.2029 41.007, 50.3444 40.8638, 50.4858 40.7207, 50.5562 40.49, 50.5562 40.1717 L 50.5562 36.4801, 47.0845 36.4801, 47.0845 29.5551, 49.6224 29.5551, 50.1789 27.4757, 45.5461 27.4757, 45.5461 32.3031 C 45.5461 34.722, 45.3858 36.6456, 45.0652 38.074, 44.7509 39.4915, 44.1567 40.9629, 43.2819 42.4892 Z M 40.725 42.2785 L 39.3573 41.848 C 39.9802 39.5952, 40.5081 37.3629, 40.942 35.1519, 41.3703 35.3357, 41.8071 35.4885, 42.2536 35.6099, 41.7189 37.821, 41.2094 40.044, 40.725 42.2785 Z M 46.3391 41.7747 C 46.0311 41.4816, 45.7133 41.2068, 45.3858 40.9503, 46.4364 39.827, 47.3267 38.6854, 48.056 37.5244 L 49.1507 38.1564 C 48.1946 39.5127, 47.2574 40.719, 46.3391 41.7747 Z M 55.5571 41.6007 C 54.6639 40.4287, 53.7577 39.2866, 52.8393 38.1748 L 53.8493 37.4969 C 54.8431 38.615, 55.774 39.7205, 56.642 40.8129 Z M 48.4144 35.3076 L 53.9907 35.3076, 53.9907 33.5397, 48.4144 33.5397 Z M 41.6783 33.4756 C 40.7915 32.6031, 39.9109 31.7753, 39.0361 30.9932 L 40.0552 30.1138 C 40.93 30.8226, 41.8386 31.6167, 42.7821 32.4955 Z M 48.4144 32.4955 L 53.9907 32.4955, 53.9907 30.7459, 48.4144 30.7459 Z M 42.2536 28.8222 C 41.1155 27.6623, 40.247 26.8076, 39.6493 26.2574 L 40.725 25.4147 C 41.7126 26.2883, 42.5994 27.0978, 43.3855 27.8421 Z" stroke="none" fill="#000000" />
			<rect />
		</svg>
	</g>
	<path d="M -34.5403 0 L 0 -21.2555, 34.5403 0, 0 21.2555 Z" fill="none" stroke="#000000" stroke-width="1.86666667" stroke-linecap="round" stroke-linejoin="round" transform="matrix(5.39271e-008 0.714286 -0.714286 5.39271e-008 364.631 70.3547)" />
	<path d="M 0 26.3782 L 0 -26.3781" fill="none" stroke="#000000" stroke-width="1.86666667" stroke-linecap="round" stroke-linejoin="round" transform="matrix(0.714286 0 0 0.714286 364.631 26.8416)" />
	<path d="M 0 26.3851 L 0 -26.3854" fill="none" stroke="#000000" stroke-width="1.86666667" stroke-linecap="round" stroke-linejoin="round" transform="matrix(0.714286 0 0 0.714286 364.631 113.595)" />
	<path d="M -21.2555 0 L 21.2555 0" fill="none" stroke="#000000" stroke-width="1.86666667" stroke-linecap="round" stroke-linejoin="round" transform="matrix(0.714286 0 0 0.714286 364.631 70.2211)" />
	<path d="M 0 7.10034 L 0 -7.10046" fill="none" stroke="#000000" stroke-width="1.49333334" stroke-linecap="round" stroke-linejoin="round" marker-end="url(#CustomMarker-02)" transform="matrix(0.714286 0 0 0.714286 364.631 27.6885)" />
	<g transform="matrix(1 0 -0 1 336.037 149.065)">
		<svg width="171.007996" height="128.999954">
			<defs />
			<path d="M 11.1278 19.2096 C 10.9269 18.7882, 10.6818 18.3273, 10.3921 17.8264, 13.4425 17.3506, 15.8287 16.7461, 17.5519 16.0127, 16.2123 15.0789, 15.0209 13.7627, 13.9766 12.0647 L 12.8539 12.0647, 12.8539 10.8189, 24.4283 10.8189, 24.4283 12.1654 C 23.3595 13.7599, 22.0513 15.0486, 20.5044 16.031, 21.3723 16.398, 22.3977 16.7031, 23.5793 16.947, 24.6928 17.1795, 26.0325 17.3753, 27.5978 17.5333, 27.4787 17.7474, 27.2835 18.1441, 27.0132 18.7241, 26.9628 18.834, 26.9251 18.9136, 26.8999 18.9623, 25.152 18.7121, 23.6429 18.4161, 22.3719 18.0737, 21.0952 17.7382, 19.9759 17.3352, 19.0141 16.8646, 17.1151 17.7749, 14.4861 18.5563, 11.1278 19.2096 Z M 19.0141 15.2982 C 20.4603 14.499, 21.7089 13.4209, 22.7589 12.0647 L 15.6272 12.0647 C 16.6147 13.4513, 17.7437 14.5293, 19.0141 15.2982 Z M 10.8261 10.9471 L 10.8261 7.56702, 21.7874 7.56702 C 22.2717 6.8594, 22.9129 5.84262, 23.7116 4.51669, 23.7619 4.42566, 23.8032 4.35868, 23.8341 4.31516 L 25.2585 4.77317 C 25.1829 4.88367, 25.073 5.04855, 24.9281 5.26782, 24.2806 6.26399, 23.7619 7.03001, 23.3721 7.56702 L 27.098 7.56702, 27.098 10.9471, 25.6547 10.9471, 25.6547 8.8128, 12.2974 8.8128, 12.2974 10.9471 Z M 14.0424 7.46626 C 13.5461 6.6241, 13.0491 5.8243, 12.5522 5.0663 L 13.901 4.63577 C 14.272 5.16763, 14.7535 5.95254, 15.3443 6.98993 Z M 18.7782 7.29222 C 18.4073 6.36475, 18.03 5.52488, 17.6458 4.77317 L 19.033 4.40677 C 19.4481 5.22546, 19.8254 6.05903, 20.1649 6.90749 Z M 11.6654 4.09532 C 11.5589 3.55258, 11.4581 3.11862, 11.3637 2.79458, 16.5769 2.77053, 21.4668 2.60909, 26.0319 2.30909 L 26.3526 3.58235 C 21.9385 3.83941, 17.0424 4.01059, 11.6654 4.09532 Z" stroke="none" fill="#000000" />
			<path d="M 29.6874 18.9623 C 29.637 18.5472, 29.5494 18.0646, 29.4234 17.5149, 29.7566 17.5401, 30.2536 17.5522, 30.9137 17.5516, 31.2223 17.5522, 31.4438 17.4789, 31.5789 17.3323, 31.7141 17.1858, 31.7816 16.9321, 31.7816 16.5715 L 31.7816 12.028, 29.5838 12.6417, 29.4046 11.1212 C 30.3984 10.9139, 31.1908 10.737, 31.7816 10.5899 L 31.7816 6.4678, 29.6215 6.4678, 29.6215 5.17622, 31.7816 5.17622, 31.7816 1.80528, 33.1682 1.80528, 33.1682 5.17622, 34.951 5.17622, 34.951 6.4678, 33.1682 6.4678, 33.1682 10.2418 C 33.3257 10.1994, 33.549 10.1416, 33.8381 10.0677, 34.3602 9.93377, 34.7466 9.83015, 34.9985 9.7563, 35.0174 10.3431, 35.0426 10.8194, 35.0735 11.1853 L 33.1682 11.6616, 33.1682 16.8188 C 33.1682 17.5401, 33.0303 18.0634, 32.7532 18.3897, 32.4766 18.7166, 32.0146 18.9016, 31.3665 18.9439, 30.9956 18.9565, 30.4362 18.9623, 29.6874 18.9623 Z M 34.8944 18.4035 L 34.8944 17.1302, 40.2903 17.1302, 40.2903 12.8158, 36.0829 12.8158, 36.0829 11.57, 45.9781 11.57, 45.9781 12.8158, 41.7336 12.8158, 41.7336 17.1302, 46.8083 17.1302, 46.8083 18.4035 Z M 45.6197 10.9929 C 44.4129 9.93721, 43.1517 8.90211, 41.8372 7.88763 L 42.724 6.98993 C 44.177 8.01644, 45.4657 8.99658, 46.5913 9.93034 Z M 36.423 10.9746 C 36.1149 10.5721, 35.8161 10.224, 35.5264 9.93034, 36.9165 9.00287, 38.1932 8.02274, 39.3565 6.98993 L 40.2903 7.93343 C 39.1584 8.93532, 37.8691 9.94923, 36.423 10.9746 Z M 35.7245 7.5029 L 35.7245 4.23272, 40.6864 4.23272 C 40.3847 3.55544, 40.02 2.85011, 39.5924 2.11673 L 40.979 1.75032 C 41.3437 2.36749, 41.7336 3.1066, 42.1486 3.96708 L 41.3563 4.23272, 46.3743 4.23272, 46.3743 7.48458, 44.9877 7.48458, 44.9877 5.52431, 37.0733 5.52431, 37.0733 7.5029 Z" stroke="none" fill="#000000" />
			<path d="M 10.6484 41.9121 C 9.70487 41.9121, 9.02759 41.7077, 8.61538 41.2984, 8.20374 40.8896, 7.99764 40.2209, 7.99764 39.2923 L 7.99764 37.387, 2.97788 37.387, 2.97788 38.6511, 1.53458 38.6511, 1.53458 27.4116, 7.99764 27.4116, 7.99764 25.1032, 9.47872 25.1032, 9.47872 27.4116, 15.9698 27.4116, 15.9698 37.387, 9.47872 37.387, 9.47872 39.045 C 9.47872 39.6015, 9.60181 39.9936, 9.84685 40.2226, 10.0919 40.4516, 10.5258 40.5661, 11.1487 40.5656 L 14.404 40.5656 C 14.9639 40.5661, 15.3819 40.4682, 15.6584 40.2724, 15.9229 40.0835, 16.1118 39.7692, 16.2246 39.3289, 16.3757 38.6637, 16.4954 37.9584, 16.583 37.2129, 17.0994 37.4087, 17.5803 37.5616, 18.0269 37.671, 17.9078 38.4896, 17.7566 39.3112, 17.574 40.135, 17.4103 40.7585, 17.1212 41.2068, 16.7061 41.4816, 16.2658 41.769, 15.6086 41.9121, 14.7338 41.9121 Z M 2.97788 36.0404 L 7.99764 36.0404, 7.99764 33.0359, 2.97788 33.0359 Z M 9.47872 36.0404 L 14.5168 36.0404, 14.5168 33.0359, 9.47872 33.0359 Z M 2.97788 31.726 L 7.99764 31.726, 7.99764 28.7581, 2.97788 28.7581 Z M 9.47872 31.726 L 14.5168 31.726, 14.5168 28.7581, 9.47872 28.7581 Z" stroke="none" fill="#000000" />
			<path d="M 24.4853 42.5075 C 24.2088 42.239, 23.8378 41.9247, 23.3723 41.564, 24.2214 40.9354, 24.8316 40.2942, 25.2026 39.6404, 25.5925 38.9568, 25.8347 38.0717, 25.9286 36.9839, 25.9858 36.3313, 26.0139 35.476, 26.0139 34.4191 L 27.3816 34.4191 C 27.3816 35.354, 27.3473 36.258, 27.2774 37.1305, 27.1835 38.4072, 26.9225 39.4457, 26.4948 40.245, 26.086 41.0024, 25.4162 41.7564, 24.4853 42.5075 Z M 21.6743 42.251 L 20.2029 41.8113 C 20.914 39.6255, 21.5615 37.4397, 22.146 35.2527, 22.3979 35.3695, 22.8158 35.5218, 23.4009 35.7107, 23.4639 35.7296, 23.5074 35.7416, 23.5326 35.7473, 22.7345 38.398, 22.1151 40.5661, 21.6743 42.251 Z M 29.4381 42.077 L 29.4381 34.4191, 30.8247 34.4191, 30.8247 42.077 Z M 34.5975 42.0404 C 33.9941 42.0404, 33.5555 41.8984, 33.2819 41.6144, 33.0082 41.3304, 32.8714 40.8839, 32.8714 40.2724 L 32.8714 34.3641, 34.2202 34.3641, 34.2202 40.0251 C 34.2202 40.2942, 34.2758 40.4871, 34.3857 40.6028, 34.4956 40.719, 34.6702 40.7768, 34.909 40.7762 L 35.3051 40.7762 C 35.5256 40.7768, 35.6939 40.7173, 35.8101 40.5982, 35.9263 40.4791, 36.003 40.2822, 36.0408 40.0068, 36.1227 39.3049, 36.1885 38.5326, 36.2389 37.6893, 36.6603 37.8668, 37.0376 37.9893, 37.3708 38.0557, 37.2895 39.0518, 37.195 39.8545, 37.0879 40.4648, 36.9122 41.5154, 36.346 42.0404, 35.3899 42.0404 Z M 35.4843 34.1901 L 34.5506 33.0542 C 32.8216 33.0914, 30.5545 33.1647, 27.7492 33.2741, 27.4034 33.2867, 27.1429 33.2958, 26.9665 33.3016, 26.8847 33.3084, 26.7713 33.3176, 26.627 33.329, 26.0362 33.36, 25.5988 33.3966, 25.3154 33.439 L 24.7212 32.1657 C 25.1494 31.9527, 25.561 31.6899, 25.9572 31.3779, 26.7496 30.7373, 27.6616 29.8001, 28.6927 28.5658 L 24.542 28.5658, 24.542 27.32, 30.1548 27.32 C 29.9035 26.7526, 29.5984 26.1114, 29.24 25.3963 L 30.8058 25.0483, 31.7773 27.1643, 31.2867 27.32, 36.7576 27.32, 36.7576 28.5658, 30.3529 28.5658, 30.5699 28.6299 C 29.3121 29.9312, 28.1236 31.0734, 27.0043 32.0558, 28.0795 32.0443, 29.8846 32.0014, 32.4185 31.9275, 32.9344 31.9161, 33.3151 31.9069, 33.5601 31.9001, 33.1954 31.4609, 32.667 30.8718, 31.9754 30.1321 L 33.0695 29.436 C 34.3588 30.7676, 35.5662 32.0718, 36.6918 33.3474 Z M 22.5422 33.4573 C 21.6119 32.6151, 20.6998 31.8394, 19.8067 31.1306 L 20.7405 30.1321 C 21.791 30.9205, 22.7282 31.6625, 23.5515 32.3581 Z M 23.0609 28.7856 C 22.2937 28.0534, 21.3823 27.2564, 20.3254 26.3948 L 21.297 25.4147 C 22.1523 26.0685, 23.0769 26.8196, 24.0702 27.6681 Z" stroke="none" fill="#000000" />
			<path d="M 43.2819 42.4892 C 42.9865 42.2327, 42.5903 41.9121, 42.0933 41.5274, 42.8983 40.2942, 43.4456 39.0484, 43.7347 37.79, 44.0433 36.4836, 44.1973 34.6607, 44.1973 32.3214 L 44.1973 26.2208, 56.4439 26.2208, 56.4439 27.4757, 51.6508 27.4757, 51.0188 29.5551, 55.2926 29.5551, 55.2926 36.4801, 51.8678 36.4801, 51.8678 40.4098 C 51.8678 41.039, 51.7344 41.5033, 51.467 41.8022, 51.1997 42.1016, 50.764 42.2665, 50.16 42.2968, 49.8016 42.3094, 49.2199 42.3152, 48.4144 42.3152, 48.3892 42.1262, 48.3297 41.836, 48.2352 41.4449, 48.1917 41.268, 48.1602 41.1335, 48.1408 41.0419, 48.8266 41.0665, 49.3425 41.0785, 49.6883 41.0785, 49.9842 41.0785, 50.2029 41.007, 50.3444 40.8638, 50.4858 40.7207, 50.5562 40.49, 50.5562 40.1717 L 50.5562 36.4801, 47.0845 36.4801, 47.0845 29.5551, 49.6224 29.5551, 50.1789 27.4757, 45.5461 27.4757, 45.5461 32.3031 C 45.5461 34.722, 45.3858 36.6456, 45.0652 38.074, 44.7509 39.4915, 44.1567 40.9629, 43.2819 42.4892 Z M 40.725 42.2785 L 39.3573 41.848 C 39.9802 39.5952, 40.5081 37.3629, 40.942 35.1519, 41.3703 35.3357, 41.8071 35.4885, 42.2536 35.6099, 41.7189 37.821, 41.2094 40.044, 40.725 42.2785 Z M 46.3391 41.7747 C 46.0311 41.4816, 45.7133 41.2068, 45.3858 40.9503, 46.4364 39.827, 47.3267 38.6854, 48.056 37.5244 L 49.1507 38.1564 C 48.1946 39.5127, 47.2574 40.719, 46.3391 41.7747 Z M 55.5571 41.6007 C 54.6639 40.4287, 53.7577 39.2866, 52.8393 38.1748 L 53.8493 37.4969 C 54.8431 38.615, 55.774 39.7205, 56.642 40.8129 Z M 48.4144 35.3076 L 53.9907 35.3076, 53.9907 33.5397, 48.4144 33.5397 Z M 41.6783 33.4756 C 40.7915 32.6031, 39.9109 31.7753, 39.0361 30.9932 L 40.0552 30.1138 C 40.93 30.8226, 41.8386 31.6167, 42.7821 32.4955 Z M 48.4144 32.4955 L 53.9907 32.4955, 53.9907 30.7459, 48.4144 30.7459 Z M 42.2536 28.8222 C 41.1155 27.6623, 40.247 26.8076, 39.6493 26.2574 L 40.725 25.4147 C 41.7126 26.2883, 42.5994 27.0978, 43.3855 27.8421 Z" stroke="none" fill="#000000" />
			<rect />
		</svg>
	</g>
</svg>
