<?xml version="1.0"?>
<svg xmlns="http://www.w3.org/2000/svg" xmlns:xlink="http://www.w3.org/1999/xlink" width="295.963379" height="141.441208">
	<defs />
	<g transform="matrix(1 0 -0 1 8.99999 59.5134)">
		<svg width="81.075737" height="48.0957298">
			<defs />
			<path d="M 8.17942 12.7991 C 8.17942 13.386, 8.0689 13.9459, 7.84672 14.4784, 7.6251 15.0114, 7.30473 15.49, 6.88506 15.9141, 6.45978 16.3276, 5.98063 16.6435, 5.44763 16.8612, 4.91462 17.08, 4.34851 17.1888, 3.75042 17.1888, 3.23312 17.1888, 2.75061 17.0918, 2.30345 16.8971, 1.85684 16.703, 1.46859 16.437, 1.13869 16.0987, 0.808785 15.761, 0.550137 15.3688, 0.362182 14.9227, 0.174227 14.4772, 0.079969 14.0026, 0.079969 13.4993, 0.079969 13.1526, 0.195547 12.8911, 0.426704 12.7144, 0.65786 12.5382, 0.896872 12.4496, 1.14318 12.449, 1.40239 12.4496, 1.64589 12.5365, 1.87368 12.7099, 2.10203 12.8838, 2.21592 13.147, 2.21592 13.4993, 2.21592 13.7153, 2.16823 13.8966, 2.07285 14.043, 1.97747 14.19, 1.86021 14.3033, 1.72107 14.3841, 1.58249 14.4649, 1.42707 14.5115, 1.25427 14.5227 L 1.14318 14.5227, 0.958027 14.5227 C 1.09998 15.026, 1.42988 15.4782, 1.94774 15.8788, 2.46559 16.2799, 3.06649 16.4802, 3.75042 16.4797, 4.10838 16.4802, 4.45679 16.3877, 4.79567 16.2019, 5.13455 16.0168, 5.41228 15.7711, 5.62773 15.4653, 5.8802 15.1006, 6.04235 14.6865, 6.11304 14.2225, 6.18374 13.7591, 6.21908 13.2844, 6.21908 12.7991, 6.21908 12.3088, 6.20393 11.838, 6.17308 11.3858, 6.14278 10.9342, 6.01598 10.5078, 5.7938 10.106, 5.6339 9.81316, 5.42911 9.56966, 5.17944 9.37497, 4.92977 9.18085, 4.65092 9.08322, 4.34234 9.08266, 3.75659 9.08322, 3.24827 9.2016, 2.81682 9.43781, 2.38536 9.67458, 2.03694 10.014, 1.77212 10.4561, 1.71658 10.5582, 1.62737 10.6093, 1.50394 10.6087 L 1.42988 10.6087 C 1.21443 10.6093, 1.10615 10.5106, 1.10615 10.3125 L 1.10615 4.01068 C 1.10615 3.85583, 1.19592 3.75708, 1.37433 3.71444, 1.40519 3.715, 1.42819 3.71837, 1.4439 3.72398, 1.45961 3.73015, 1.47308 3.73296, 1.48542 3.7324, 2.37919 4.13972, 3.30045 4.34339, 4.24976 4.34283, 5.21142 4.34339, 6.13324 4.13972, 7.01466 3.7324, 7.02701 3.73296, 7.03935 3.73015, 7.05169 3.72398, 7.06404 3.71837, 7.08255 3.715, 7.10724 3.71444, 7.31034 3.715, 7.40909 3.80758, 7.40292 3.99273, 7.40292 4.10101, 7.3844 4.17283, 7.34737 4.20817, 6.90975 4.80739, 6.35374 5.27587, 5.67878 5.61363, 5.00383 5.95195, 4.28735 6.12083, 3.5288 6.12027, 2.90042 6.12083, 2.35787 6.04901, 1.90117 5.90482 L 1.90117 9.33401 C 2.11718 9.10735, 2.44259 8.90536, 2.87685 8.72863, 3.31167 8.55246, 3.80035 8.46381, 4.34234 8.46325, 4.87254 8.46381, 5.37357 8.58388, 5.84486 8.82289, 6.31671 9.06246, 6.73133 9.37329, 7.08872 9.75593, 7.45846 10.1874, 7.73282 10.6648, 7.91124 11.1883, 8.09022 11.7123, 8.17942 12.2493, 8.17942 12.7991 Z" stroke="none" fill="#000000" />
			<path d="M 25.075 4.57714 C 24.7859 4.57772, 24.5311 4.59947, 24.3113 4.64184, 24.0914 4.68478, 23.8865 4.75806, 23.6976 4.86111, 23.3832 5.05118, 23.1445 5.33801, 22.9808 5.72216 L 18.6131 16.98 C 18.5318 17.1575, 18.3932 17.2428, 18.198 17.2365 L 18.0475 17.2365 C 17.8528 17.2365, 17.7143 17.1512, 17.6324 16.98 L 13.0575 5.19087 C 13.0071 5.07523, 12.9504 4.9716, 12.8874 4.88, 12.8244 4.7884, 12.7334 4.72142, 12.6138 4.67791, 12.4695 4.62352, 12.2668 4.59317, 12.0058 4.58688, 11.7447 4.58115, 11.4665 4.57772, 11.1705 4.57714 L 11.1705 3.81685 C 11.9823 3.86036, 12.7586 3.88154, 13.5006 3.88097, 13.6139 3.88154, 13.737 3.87525, 13.8687 3.86265, 14.7303 3.86322, 15.6326 3.8512, 16.5761 3.82601 L 16.5761 4.57714 C 16.2933 4.57772, 16.0414 4.58401, 15.8215 4.59604, 15.6017 4.60863, 15.403 4.65386, 15.2267 4.73287, 15.1454 4.77638, 15.0824 4.8342, 15.0383 4.90691, 15.0069 4.95615, 14.9908 5.00195, 14.9908 5.04431, 14.9908 5.0695, 14.9943 5.09698, 15.0006 5.12675 L 18.6984 14.5984, 22.1884 5.64888 C 22.2199 5.57617, 22.2354 5.49373, 22.2354 5.40156, 22.2354 5.22522, 22.1506 5.06034, 21.9812 4.90691, 21.8369 4.77924, 21.6749 4.69222, 21.4951 4.64642, 21.3159 4.60062, 21.0881 4.57772, 20.811 4.57714 L 20.811 3.82601 C 21.5724 3.8512, 22.2892 3.86322, 22.9619 3.86265, 23.05 3.87525, 23.1445 3.88154, 23.2447 3.88097, 23.8235 3.88154, 24.4338 3.86036, 25.075 3.81685 L 25.075 4.57714 Z" stroke="none" fill="#000000" />
			<rect />
		</svg>
	</g>
	<path d="M -539.458 0 L 539.458 0" fill="none" stroke="#000000" stroke-width="6.66666698" stroke-linecap="round" stroke-linejoin="round" transform="matrix(0.2 0 0 0.2 172.135 8.5)" />
	<path d="M -540.847 0 L 540.846 0" fill="none" stroke="#000000" stroke-width="6.66666698" stroke-linecap="round" stroke-linejoin="round" transform="matrix(0.2 0 0 0.2 172.413 132.941)" />
	<path d="M 0 311.102 L 0 -311.104" fill="none" stroke="#000000" stroke-width="6.66666698" stroke-linecap="round" stroke-linejoin="round" transform="matrix(0.2 0 0 0.2 64.2433 70.7208)" />
	<path d="M 85.5684 -0 C 85.5684 47.2572, 47.2581 85.5667, -0 85.5667, -47.2581 85.5667, -85.5684 47.2572, -85.5684 -0, -85.5684 -47.2572, -47.2581 -85.5667, -0 -85.5667, 47.2581 -85.5667, 85.5684 -47.2572, 85.5684 -0 Z" fill="none" stroke="#000000" stroke-width="6.66666698" stroke-linecap="round" stroke-linejoin="round" transform="matrix(0.2 0 -0 0.2 64.2433 70.7208)" />
	<g transform="matrix(1 0 -0 1 42.2677 33.6144)">
		<svg width="119.826561" height="119.904221">
			<defs />
			<polyline points="-5.628 0 5.628 0" fill="none" stroke="#000000" stroke-width="0.64319998" stroke-linecap="round" stroke-linejoin="round" transform="matrix(1 0 0 1 5.628 9.60638)" />
			<polyline points="0 -5.628 0 5.628" fill="none" stroke="#000000" stroke-width="0.64319998" stroke-linecap="round" stroke-linejoin="round" transform="matrix(1 0 0 1 5.628 9.60638)" />
			<rect />
		</svg>
	</g>
	<g transform="matrix(1 0 -0 1 41.7123 88.6144)">
		<svg width="119.826561" height="83.9999847">
			<defs />
			<polyline points="-5.628 0 5.628 0" fill="none" stroke="#000000" stroke-width="0.64319998" stroke-linecap="round" stroke-linejoin="round" transform="matrix(1 0 0 1 5.628 9.60638)" />
			<rect />
		</svg>
	</g>
	<g transform="matrix(1 0 -0 1 274.2 59.5134)">
		<svg width="42.0378685" height="48.0957298">
			<defs />
			<path d="M 12.702 4.3115 C 12.6837 4.39738, 12.6379 4.46665, 12.5657 4.51818, 12.4936 4.57028, 12.4163 4.59604, 12.3339 4.59547, 12.1077 4.59604, 11.8879 4.61321, 11.6738 4.64642, 11.4602 4.6802, 11.2621 4.76092, 11.0795 4.88859, 10.9289 4.98076, 10.8093 5.10156, 10.7211 5.25099, 10.6329 5.40099, 10.5671 5.56072, 10.523 5.73133 L 8.77801 12.4915 C 8.61427 13.103, 8.36466 13.6938, 8.02802 14.2646, 7.69138 14.8359, 7.26258 15.3621, 6.74045 15.8441, 6.28129 16.2661, 5.77233 16.6067, 5.21242 16.8655, 4.6525 17.1254, 4.08343 17.2548, 3.50462 17.2548, 2.87601 17.2548, 2.31495 17.13, 1.82144 16.8792, 1.32794 16.6296, 0.930045 16.2873, 0.62776 15.8533, 0.294559 15.3896, 0.0964707 14.8617, 0.0334946 14.2686, 0.00830418 14.0923, -0.00429106 13.9056, -0.00429106 13.7098, -0.00429106 13.301, 0.0460898 12.8831, 0.146852 12.4549 L 2.04243 5.15423 C 2.06762 5.03859, 2.08022 4.94699, 2.08022 4.87943, 2.08022 4.7884, 2.06132 4.73058, 2.02354 4.70539, 1.94224 4.6573, 1.77221 4.62695, 1.51458 4.61436, 1.25695 4.60234, 0.979853 4.59604, 0.684438 4.59547, 0.590547 4.59604, 0.521273 4.56569, 0.476617 4.50386, 0.438831 4.4678, 0.419939 4.422, 0.419939 4.36646, 0.419939 4.33039, 0.429671 4.29662, 0.448564 4.2657 L 0.476617 4.11914 C 0.546463 3.93651, 0.66898 3.84491, 0.844741 3.84433, 1.6308 3.86952, 2.42315 3.88155, 3.2218 3.88097, 4.02102 3.88155, 4.81968 3.86952, 5.61775 3.84433, 5.79409 3.84491, 5.88168 3.92735, 5.88168 4.09166 L 5.88168 4.16494, 5.82558 4.32066 C 5.78779 4.50444, 5.67157 4.59604, 5.47634 4.59547, 5.18093 4.59604, 4.90155 4.60234, 4.63705 4.61436, 4.37255 4.62695, 4.18076 4.65901, 4.0611 4.71054, 3.94202 4.76264, 3.84755 4.92294, 3.77828 5.19088 L 1.90102 12.4915 C 1.75675 13.0297, 1.67145 13.5455, 1.64625 14.0396, 1.63366 14.1134, 1.62736 14.1867, 1.62736 14.2594, 1.62736 14.6751, 1.70923 15.0569, 1.87297 15.4045, 2.03671 15.7348, 2.27086 16.0021, 2.57544 16.2065, 2.88059 16.4115, 3.23726 16.5134, 3.64603 16.5128, 4.09946 16.5134, 4.55403 16.4098, 5.00975 16.202, 5.46547 15.9947, 5.88855 15.7136, 6.27786 15.3586, 6.72442 14.9625, 7.08796 14.5108, 7.36792 14.0035, 7.64787 13.4968, 7.85684 12.9804, 7.99481 12.4549 L 9.73066 5.67636 C 9.76845 5.56701, 9.78734 5.4508, 9.78734 5.32828 L 9.78734 5.20004 C 9.76845 5.07237, 9.71521 4.96531, 9.62704 4.87943, 9.49536 4.75176, 9.33964 4.67275, 9.15987 4.64184, 8.98068 4.6115, 8.77171 4.59604, 8.5324 4.59547, 8.43851 4.59604, 8.36924 4.56856, 8.32515 4.51302, 8.28164 4.47066, 8.25931 4.422, 8.25931 4.36646, 8.25931 4.33039, 8.26905 4.29375, 8.28737 4.25654 L 8.32515 4.1283 C 8.34405 4.04929, 8.38641 3.98231, 8.45225 3.92735, 8.51866 3.87239, 8.59538 3.84491, 8.68354 3.84433, 9.31273 3.86952, 9.94478 3.88155, 10.5797 3.88097, 11.2083 3.88155, 11.8467 3.86952, 12.4942 3.84433, 12.5823 3.84491, 12.6579 3.87525, 12.7209 3.93593, 12.7461 3.98517, 12.7587 4.03097, 12.7587 4.07334, 12.7587 4.11055, 12.7495 4.14433, 12.73 4.1741 Z" stroke="none" fill="#000000" />
			<rect />
		</svg>
	</g>
	<g transform="matrix(1 0 -0 1 274.954 14.0964)">
		<svg width="119.826561" height="119.904221">
			<defs />
			<polyline points="-5.628 0 5.628 0" fill="none" stroke="#000000" stroke-width="0.64319998" stroke-linecap="round" stroke-linejoin="round" transform="matrix(1 0 0 1 5.628 9.60638)" />
			<polyline points="0 -5.628 0 5.628" fill="none" stroke="#000000" stroke-width="0.64319998" stroke-linecap="round" stroke-linejoin="round" transform="matrix(1 0 0 1 5.628 9.60638)" />
			<rect />
		</svg>
	</g>
	<g transform="matrix(1 0 -0 1 274.398 107.668)">
		<svg width="119.826561" height="83.9999847">
			<defs />
			<polyline points="-5.628 0 5.628 0" fill="none" stroke="#000000" stroke-width="0.64319998" stroke-linecap="round" stroke-linejoin="round" transform="matrix(1 0 0 1 5.628 9.60638)" />
			<rect />
		</svg>
	</g>
	<g transform="matrix(1 0 -0 1 127.078 59.5134)">
		<svg width="81.075737" height="48.0957298">
			<defs />
			<path d="M 8.50221 13.3826 C 8.50221 13.8977, 8.38831 14.392, 8.16052 14.8644, 7.93273 15.3374, 7.62751 15.7413, 7.24487 16.0757, 6.81398 16.4533, 6.33764 16.7327, 5.81698 16.9151, 5.29631 17.098, 4.75208 17.1888, 4.18485 17.1888, 3.67373 17.1888, 3.17495 17.117, 2.68795 16.9734, 2.20095 16.8298, 1.7622 16.6239, 1.37058 16.3546, 0.978959 16.0852, 0.666449 15.7548, 0.431926 15.3626, 0.197964 14.971, 0.0807031 14.5204, 0.0807031 14.011, 0.0807031 13.6284, 0.208625 13.3428, 0.464468 13.1543, 0.720311 12.9658, 0.98962 12.8715, 1.27295 12.8709, 1.56919 12.8715, 1.84467 12.9658, 2.10052 13.1543, 2.35636 13.3428, 2.48428 13.6284, 2.48428 14.011, 2.48428 14.2388, 2.43996 14.429, 2.35019 14.5816, 2.26098 14.7342, 2.14709 14.8616, 2.00794 14.9631, 1.86936 15.0652, 1.71058 15.1275, 1.53216 15.1511, 1.44015 15.1758, 1.35375 15.1875, 1.27295 15.187, 1.19328 15.1875, 1.18094 15.1937, 1.23592 15.2049, 1.42725 15.5405, 1.80316 15.8373, 2.36422 16.0942, 2.92527 16.3517, 3.53178 16.4802, 4.18485 16.4797, 4.49344 16.4802, 4.78126 16.4039, 5.04945 16.2513, 5.31763 16.0987, 5.5415 15.8939, 5.71991 15.6358, 5.94209 15.3014, 6.09302 14.9424, 6.17269 14.5592, 6.25292 14.1765, 6.29275 13.7843, 6.29275 13.3826, 6.29275 12.9702, 6.25292 12.5741, 6.17269 12.1937, 6.09302 11.8139, 5.94209 11.4621, 5.71991 11.1384, 5.53476 10.8758, 5.30978 10.6632, 5.04496 10.5016, 4.78014 10.34, 4.49344 10.2592, 4.18485 10.2586 L 2.84448 10.2586 C 2.66607 10.2592, 2.57069 10.1756, 2.55834 10.0073 L 2.55834 9.90854 C 2.55834 9.83728, 2.58022 9.78062, 2.62286 9.73798, 2.67841 9.68468, 2.7491 9.65775, 2.83551 9.65718, 3.01448 9.63362, 3.19907 9.62184, 3.38983 9.62128, 3.57498 9.62184, 3.75733 9.61005, 3.93574 9.58537, 4.26845 9.5618, 4.55796 9.45913, 4.80426 9.27623, 5.05113 9.09388, 5.2576 8.86048, 5.42367 8.57602, 5.59031 8.29213, 5.71655 7.96447, 5.80295 7.59305, 5.88935 7.22219, 5.93255 6.84179, 5.93255 6.45241, 5.93255 6.16571, 5.9017 5.8936, 5.83998 5.63607, 5.77826 5.37911, 5.66437 5.15412, 5.49773 4.96224, 5.15268 4.56781, 4.71505 4.37313, 4.18485 4.37874, 3.61818 4.3793, 3.0992 4.4859, 2.62791 4.69798, 2.15662 4.91062, 1.84019 5.13953, 1.67972 5.38415, 1.63708 5.39089, 1.6584 5.39369, 1.74481 5.39313, 1.96699 5.39369, 2.17626 5.45934, 2.37319 5.59062, 2.66943 5.76455, 2.81699 6.05799, 2.81699 6.47037, 2.81699 6.81822, 2.70478 7.08024, 2.47979 7.25641, 2.25481 7.43314, 2.00345 7.52123, 1.72629 7.52067, 1.4553 7.52123, 1.20114 7.43483, 0.963811 7.2609, 0.726483 7.08753, 0.607538 6.82383, 0.607538 6.47037, 0.607538 6.03386, 0.712456 5.64841, 0.921731 5.3129, 1.13157 4.97795, 1.40088 4.69069, 1.73078 4.45111, 2.06068 4.2121, 2.44108 4.0292, 2.87254 3.90352, 3.30399 3.77784, 3.74162 3.715, 4.18485 3.71444, 4.65951 3.715, 5.11902 3.77784, 5.56282 3.90352, 6.00661 4.0292, 6.42573 4.22388, 6.81959 4.48646, 7.14052 4.71425, 7.40982 4.99422, 7.62864 5.32637, 7.84745 5.65851, 7.95686 6.03386, 7.95686 6.45241, 7.95686 6.87208, 7.88167 7.26707, 7.73075 7.63793, 7.57982 8.00935, 7.37953 8.34431, 7.12986 8.64335, 6.88018 8.94296, 6.58282 9.20609, 6.23777 9.43332, 5.89272 9.66111, 5.63351 9.80418, 5.4607 9.86365, 5.60882 9.88217, 5.86186 9.97082, 6.21926 10.129, 6.57665 10.2878, 6.91834 10.4988, 7.24487 10.7613, 7.62751 11.0913, 7.93273 11.4846, 8.16052 11.9424, 8.38831 12.4002, 8.50221 12.8805, 8.50221 13.3826 Z" stroke="none" fill="#000000" />
			<path d="M 25.2262 4.57714 C 24.937 4.57772, 24.6823 4.59947, 24.4624 4.64184, 24.2426 4.68478, 24.0376 4.75806, 23.8487 4.86111, 23.5344 5.05118, 23.2956 5.33801, 23.1319 5.72216 L 18.7642 16.98 C 18.6829 17.1575, 18.5444 17.2428, 18.3492 17.2365 L 18.1986 17.2365 C 18.0039 17.2365, 17.8654 17.1512, 17.7835 16.98 L 13.2086 5.19087 C 13.1582 5.07523, 13.1015 4.9716, 13.0386 4.88, 12.9756 4.7884, 12.8846 4.72142, 12.7649 4.67791, 12.6206 4.62352, 12.418 4.59317, 12.1569 4.58688, 11.8958 4.58115, 11.6176 4.57772, 11.3216 4.57714 L 11.3216 3.81685 C 12.1334 3.86036, 12.9097 3.88154, 13.6517 3.88097, 13.7651 3.88154, 13.8882 3.87525, 14.0198 3.86265, 14.8815 3.86322, 15.7837 3.8512, 16.7272 3.82601 L 16.7272 4.57714 C 16.4444 4.57772, 16.1925 4.58401, 15.9727 4.59604, 15.7528 4.60863, 15.5542 4.65386, 15.3778 4.73287, 15.2965 4.77638, 15.2336 4.8342, 15.1895 4.90691, 15.158 4.95615, 15.142 5.00195, 15.142 5.04431, 15.142 5.0695, 15.1454 5.09698, 15.1517 5.12675 L 18.8495 14.5984, 22.3396 5.64888 C 22.371 5.57617, 22.3865 5.49373, 22.3865 5.40156, 22.3865 5.22522, 22.3018 5.06034, 22.1323 4.90691, 21.988 4.77924, 21.826 4.69222, 21.6462 4.64642, 21.4671 4.60062, 21.2392 4.57772, 20.9621 4.57714 L 20.9621 3.82601 C 21.7235 3.8512, 22.4403 3.86322, 23.113 3.86265, 23.2012 3.87525, 23.2956 3.88154, 23.3958 3.88097, 23.9746 3.88154, 24.5849 3.86036, 25.2262 3.81685 L 25.2262 4.57714 Z" stroke="none" fill="#000000" />
			<rect />
		</svg>
	</g>
	<path d="M 0 311.102 L 0 -311.104" fill="none" stroke="#000000" stroke-width="6.66666698" stroke-linecap="round" stroke-linejoin="round" transform="matrix(0.2 0 0 0.2 182.397 70.7208)" />
	<path d="M 85.5684 -0 C 85.5684 47.2572, 47.2581 85.5667, -0 85.5667, -47.2581 85.5667, -85.5684 47.2572, -85.5684 -0, -85.5684 -47.2572, -47.2581 -85.5667, -0 -85.5667, 47.2581 -85.5667, 85.5684 -47.2572, 85.5684 -0 Z" fill="none" stroke="#000000" stroke-width="6.66666698" stroke-linecap="round" stroke-linejoin="round" transform="matrix(0.2 0 -0 0.2 182.397 70.7208)" />
	<g transform="matrix(1 0 -0 1 160.421 33.6144)">
		<svg width="119.826561" height="119.904221">
			<defs />
			<polyline points="-5.628 0 5.628 0" fill="none" stroke="#000000" stroke-width="0.64319998" stroke-linecap="round" stroke-linejoin="round" transform="matrix(1 0 0 1 5.628 9.60638)" />
			<polyline points="0 -5.628 0 5.628" fill="none" stroke="#000000" stroke-width="0.64319998" stroke-linecap="round" stroke-linejoin="round" transform="matrix(1 0 0 1 5.628 9.60638)" />
			<rect />
		</svg>
	</g>
	<g transform="matrix(1 0 -0 1 159.866 88.6144)">
		<svg width="119.826561" height="83.9999847">
			<defs />
			<polyline points="-5.628 0 5.628 0" fill="none" stroke="#000000" stroke-width="0.64319998" stroke-linecap="round" stroke-linejoin="round" transform="matrix(1 0 0 1 5.628 9.60638)" />
			<rect />
		</svg>
	</g>
	<ellipse cx="1387.0755615234375" cy="308.89697265625" rx="13.125" ry="13.125" stroke="none" fill="#000000" transform="matrix(0.2 0 0 0.2 -95.0183 -53.2794)" />
	<ellipse cx="1387.0755615234375" cy="931.1031494140625" rx="13.125" ry="13.125" stroke="none" fill="#000000" transform="matrix(0.2 0 0 0.2 -95.0183 -53.2794)" />
</svg>
