<?xml version="1.0"?>
<svg xmlns="http://www.w3.org/2000/svg" xmlns:xlink="http://www.w3.org/1999/xlink" width="205.700241" height="175.87088">
	<defs>
		<marker id="CustomMarker-01" markerUnits="strokeWidth" markerWidth="14.25" markerHeight="13.5" viewBox="-14.25 -6.75 14.25 13.5" orient="auto-start-reverse">
			<path d="M -9.5 -4.5 L 0 -0, -9.5 4.5" fill="none" stroke="#000000" stroke-linejoin="round" />
		</marker>
	</defs>
	<g transform="matrix(1 0 -0 1 9 93.3802)">
		<svg width="122.984032" height="59.8723221">
			<defs />
			<path d="M 9.41063 14.6482 C 9.34193 14.9299, 9.26006 15.2413, 9.1656 15.5831, 9.0717 15.9255, 8.94575 16.2426, 8.78831 16.5358, 8.63144 16.8289, 8.43336 17.0825, 8.19405 17.296, 7.95474 17.5096, 7.65589 17.6161, 7.2975 17.6161, 6.85724 17.6161, 6.50171 17.5033, 6.23148 17.2777, 5.96126 17.0522, 5.79409 16.8197, 5.73111 16.581, 5.51756 16.8443, 5.23131 17.0825, 4.87292 17.296, 4.51453 17.5096, 4.09889 17.6161, 3.62714 17.6161, 3.20005 17.6161, 2.81761 17.5371, 2.48097 17.3779, 2.14434 17.2199, 1.87869 16.9754, 1.68347 16.6451, 1.49511 16.2913, 1.40408 15.9008, 1.40981 15.4726 L 1.40981 15.3993 C 1.4224 14.9539, 1.47908 14.5114, 1.57984 14.0711, 1.6806 13.6503, 1.82717 13.1866, 2.01896 12.6793, 2.21075 12.1727, 2.39452 11.6809, 2.57029 11.204, 2.75921 10.6979, 2.85368 10.2822, 2.85368 9.95819, 2.85368 9.68396, 2.73746 9.54655, 2.50445 9.54598, 2.2909 9.54655, 2.09739 9.60781, 1.92449 9.72976, 1.7516 9.85227, 1.59416 10.0217, 1.45275 10.2381, 1.31134 10.4551, 1.18367 10.7116, 1.07031 11.0076, 0.956953 11.3042, 0.863061 11.6196, 0.78749 11.9551, 0.718216 12.1206, 0.601997 12.2059, 0.438259 12.2116 L 0.221278 12.2116 C 0.0701351 12.2122, -0.00543621 12.136, -0.00543621 11.9826 L -0.00543621 11.9185 C 0.0827303 11.583, 0.199522 11.24, 0.343795 10.8885, 0.48864 10.5376, 0.67127 10.2187, 0.891114 9.93128, 1.11153 9.64445, 1.36343 9.40629, 1.64625 9.21679, 1.92907 9.02786, 2.25311 8.93282, 2.6178 8.93225, 2.93268 8.93282, 3.20119 9.00038, 3.42447 9.13435, 3.64775 9.26889, 3.81778 9.44751, 3.934 9.67021, 4.0508 9.89349, 4.11492 10.1448, 4.12751 10.4254 L 4.12751 10.4895 C 4.12751 10.7528, 4.07427 11.0242, 3.96664 11.3047, 3.78458 11.7816, 3.60424 12.2688, 3.42447 12.7663, 3.24527 13.2644, 3.10558 13.7116, 3.00482 14.1083, 2.90406 14.5056, 2.83478 14.8989, 2.797 15.2894, 2.77181 15.3936, 2.75635 15.507, 2.75005 15.6283, 2.75005 15.8671, 2.79127 16.1024, 2.87257 16.3337, 2.92925 16.542, 3.03287 16.7069, 3.18402 16.8289, 3.33516 16.9514, 3.51435 17.0121, 3.7216 17.0115, 4.13724 17.0121, 4.49907 16.8873, 4.80708 16.6365, 5.11509 16.3863, 5.38532 16.0531, 5.61775 15.6375, 5.63035 15.5894, 5.64008 15.5327, 5.64638 15.4686, 5.65268 15.4045, 5.66184 15.3386, 5.67443 15.2711 L 7.08968 9.81162 C 7.14693 9.58606, 7.26143 9.42003, 7.43433 9.31297, 7.60723 9.20648, 7.78184 9.15267, 7.9576 9.15209, 8.14023 9.15267, 8.29137 9.20763, 8.41103 9.31698, 8.4929 9.39713, 8.53355 9.50361, 8.53355 9.63758, 8.53355 9.70514, 8.52725 9.77556, 8.51465 9.84827 L 7.09941 15.3077 C 6.99865 15.6867, 6.94827 16.0228, 6.94827 16.3153, 6.94827 16.3955, 6.95456 16.4808, 6.96716 16.5718, 6.99865 16.8655, 7.14636 17.0121, 7.41085 17.0115, 7.67535 17.0121, 7.90321 16.7865, 8.095 16.3342, 8.28679 15.8825, 8.474 15.302, 8.65606 14.5932, 8.69385 14.4352, 8.80091 14.3556, 8.97667 14.3551 L 9.19365 14.3551 C 9.2635 14.3556, 9.33277 14.3768, 9.40147 14.4192, 9.42666 14.4747, 9.43926 14.5205, 9.43926 14.5566, 9.43926 14.5818, 9.4301 14.6121, 9.41063 14.6482 Z" stroke="none" fill="#000000" />
			<path d="M 2.25036 -0.362874 C 2.21862 -0.229182, 2.15001 -0.127229, 2.04421 -0.0573373, 1.93874 0.0128753, 1.83486 0.0478213, 1.73259 0.0475006, 1.62711 0.0478213, 1.54247 0.0103104, 1.47899 -0.0653524, 1.42641 -0.116329, 1.39819 -0.184618, 1.39435 -0.27054, 1.39435 -0.30773, 1.39787 -0.345562, 1.40493 -0.383393, 1.43699 -0.502658, 1.49758 -0.594993, 1.58735 -0.660076, 1.67712 -0.724838, 1.75022 -0.762669, 1.80665 -0.773249, 1.78196 -0.879049, 1.69924 -0.975551, 1.55818 -1.06276, 1.41743 -1.14996, 1.24847 -1.19356, 1.05098 -1.19388, 0.931393 -1.19356, 0.816937 -1.18074, 0.707931 -1.15509, 0.598925 -1.12944, 0.496652 -1.07911, 0.401432 -1.00409, 0.313587 -0.938682, 0.24145 -0.859172, 0.185024 -0.765234, 0.128597 -0.670976, 0.088201 -0.571268, 0.0631938 -0.465468, 0.0423545 -0.407118, 0.0317744 -0.348768, 0.0317744 -0.291059, 0.0317744 -0.194877, 0.0599878 -0.104466, 0.116094 -0.0191853, 0.197207 0.107774, 0.32064 0.186323, 0.486072 0.21678 L 1.01411 0.329633 C 1.18692 0.367465, 1.34273 0.432548, 1.48187 0.524882, 1.62102 0.617217, 1.73355 0.728467, 1.81979 0.858312, 1.90635 0.988478, 1.96695 1.13532, 2.00189 1.29914, 2.00895 1.36455, 2.01247 1.4261, 2.01247 1.48381, 2.01247 1.59346, 1.99677 1.70824, 1.96503 1.8275, 1.90539 2.02628, 1.81723 2.22473, 1.70085 2.42287, 1.58479 2.62132, 1.42801 2.7922, 1.23084 2.93551, 1.01603 3.0862, 0.792571 3.18879, 0.560132 3.2433, 0.327693 3.29812, 0.103911 3.32537, -0.110895 3.32537, -0.325701 3.32537, -0.525438 3.29652, -0.710427 3.23817, -0.895096 3.18014, -1.05636 3.09421, -1.1939 2.97944, -1.33112 2.86498, -1.42442 2.72552, -1.47379 2.56105, -1.50553 2.47929, -1.52316 2.39049, -1.52669 2.2943, -1.52669 2.20582, -1.51419 2.11156, -1.48982 2.01217, -1.45071 1.8586, -1.37248 1.74318, -1.25449 1.66624, -1.13651 1.58929, -1.01789 1.55082, -0.897981 1.5505, -0.774869 1.55082, -0.669069 1.59025, -0.581223 1.66848, -0.52127 1.72683, -0.48953 1.80217, -0.486003 1.89419, -0.486003 1.94228, -0.49466 1.99037, -0.512614 2.03782, -0.551086 2.1885, -0.629635 2.30232, -0.747617 2.37926, -0.8656 2.45621, -0.961461 2.49629, -1.03552 2.49949, -0.996728 2.62645, -0.885798 2.7393, -0.702733 2.83837, -0.519346 2.93776, -0.302938 2.98713, -0.0528654 2.98681, 0.102308 2.98713, 0.254595 2.9711, 0.403997 2.9384, 0.55372 2.90602, 0.690298 2.8419, 0.813411 2.74572, 0.933317 2.66396, 1.0311 2.56489, 1.10676 2.44852, 1.18243 2.33246, 1.23629 2.20582, 1.26771 2.0686, 1.28887 2.00736, 1.29945 1.94228, 1.29945 1.87367, 1.29945 1.74414, 1.25905 1.62777, 1.17794 1.52485, 1.06188 1.37481, 0.896127 1.27382, 0.681321 1.2222 L 0.152963 1.10422 C -0.156742 1.03945, -0.385333 0.88396, -0.533453 0.637415, -0.6322 0.483845, -0.681573 0.311038, -0.681573 0.119316, -0.681573 0.0103104, -0.667466 -0.10094, -0.639253 -0.214113, -0.593406 -0.388202, -0.520308 -0.562612, -0.419959 -0.737021, -0.319609 -0.911431, -0.183993 -1.0634, -0.0131103 -1.19356, 0.157772 -1.32341, 0.342762 -1.41318, 0.541537 -1.46287, 0.740312 -1.51224, 0.931393 -1.53725, 1.11446 -1.53757, 1.29432 -1.53725, 1.46264 -1.50968, 1.61909 -1.45518, 1.77587 -1.40035, 1.90956 -1.32084, 2.02049 -1.21665, 2.13142 -1.11213, 2.21157 -0.989979, 2.26094 -0.850195, 2.27505 -0.774532, 2.2821 -0.69951, 2.2821 -0.624488, 2.2821 -0.542093, 2.27152 -0.454888, 2.25036 -0.362874 Z" stroke="none" fill="#000000" transform="matrix(1.12 0 0 1 11.9466 16.8691)" />
			<path d="M 31.2063 9.62842 C 31.1376 9.8122, 31.0145 9.9038, 30.8381 9.90323 L 29.084 9.90323, 27.6876 15.3169 C 27.5748 15.7085, 27.5181 16.0503, 27.5181 16.3428, 27.5181 16.423, 27.5244 16.4991, 27.537 16.5718, 27.5685 16.8655, 27.7162 17.0121, 27.9802 17.0115, 28.2195 17.0121, 28.4456 16.9468, 28.6597 16.8151, 28.8738 16.684, 29.0748 16.5083, 29.2632 16.2884, 29.4521 16.0686, 29.6215 15.8092, 29.7727 15.5098, 29.9238 15.211, 30.0618 14.8961, 30.1878 14.5657, 30.2067 14.493, 30.2473 14.4398, 30.3103 14.406, 30.3733 14.3728, 30.4334 14.3556, 30.4895 14.3551 L 30.7253 14.3551 C 30.8072 14.3556, 30.8731 14.3894, 30.9234 14.4558, 30.9423 14.4993, 30.9515 14.5388, 30.9515 14.5749 L 30.9515 14.6299 C 30.8198 14.9905, 30.6544 15.3466, 30.4563 15.6976, 30.2582 16.0491, 30.0303 16.3651, 29.7727 16.6457, 29.5151 16.9268, 29.2305 17.1586, 28.9191 17.3413, 28.6076 17.5245, 28.2636 17.6161, 27.8857 17.6161, 27.5588 17.6161, 27.276 17.5537, 27.0367 17.4283, 26.7979 17.3035, 26.6061 17.13, 26.4613 16.9067, 26.317 16.684, 26.2317 16.4287, 26.2065 16.1413, 26.1939 16.0686, 26.1876 15.989, 26.1876 15.9031, 26.1876 15.6959, 26.2128 15.4852, 26.2632 15.2711 L 27.6498 9.90323, 25.8768 9.90323 C 25.7199 9.9038, 25.6346 9.82136, 25.622 9.6559 L 25.622 9.58262, 25.6787 9.4269 C 25.7416 9.24427, 25.8579 9.15267, 26.0273 9.15209 L 27.829 9.15209, 28.6025 6.14756 C 28.6597 5.92199, 28.7742 5.75425, 28.9471 5.64433, 29.12 5.5344, 29.2946 5.47944, 29.4704 5.47887, 29.653 5.47944, 29.8042 5.53727, 29.9233 5.65291, 30.0051 5.73306, 30.0458 5.84299, 30.0458 5.98268, 30.0458 6.05024, 30.0395 6.11779, 30.0269 6.1842 L 29.2632 9.15209, 30.999 9.15209 C 31.1627 9.15267, 31.244 9.23511, 31.244 9.39942 L 31.244 9.46354 Z" stroke="none" fill="#000000" />
			<path d="M 1.5467 8.95625 C -4.56906 4.92594, -4.56906 -4.92594, 1.5467 -8.95625 L 2.50721 -8.95625 C -3.00823 -4.92594, -3.00823 4.92594, 2.50721 8.95625" stroke="none" fill="#000000" transform="matrix(1 0 -0 1 22.1525 11.7703)" />
			<path d="M 1.5467 8.95625 C -4.56906 4.92594, -4.56906 -4.92594, 1.5467 -8.95625 L 2.50721 -8.95625 C -3.00823 -4.92594, -3.00823 4.92594, 2.50721 8.95625" stroke="none" fill="#000000" transform="matrix(-1 1.50996e-007 -1.50996e-007 -1 34.7158 11.7703)" />
			<rect />
		</svg>
	</g>
	<path d="M -206.688 0 L 206.688 0" fill="none" stroke="#000000" stroke-width="5.5999999" stroke-linecap="round" stroke-linejoin="round" transform="matrix(0.238095 0 0 0.238095 131.794 42.9296)" />
	<path d="M -206.688 0 L 206.688 0" fill="none" stroke="#000000" stroke-width="5.5999999" stroke-linecap="round" stroke-linejoin="round" transform="matrix(0.238095 0 0 0.238095 131.794 167.371)" />
	<path d="M 0 261.326 L 0 -261.327" fill="none" stroke="#000000" stroke-width="5.5999999" stroke-linecap="round" stroke-linejoin="round" transform="matrix(0.238095 0 0 0.238095 82.583 105.15)" />
	<path d="M 71.8774 -0 C 71.8774 39.696, 39.6968 71.876, -0 71.876, -39.6968 71.876, -71.8774 39.696, -71.8774 -0, -71.8774 -39.696, -39.6968 -71.876, -0 -71.876, 39.6968 -71.876, 71.8774 -39.696, 71.8774 -0 Z" fill="none" stroke="#000000" stroke-width="5.5999999" stroke-linecap="round" stroke-linejoin="round" transform="matrix(0.238095 0 -0 0.238095 82.583 105.15)" />
	<g transform="matrix(1 0 -0 1 60.6073 68.0441)">
		<svg width="119.826561" height="119.904221">
			<defs />
			<polyline points="-5.628 0 5.628 0" fill="none" stroke="#000000" stroke-width="0.64319998" stroke-linecap="round" stroke-linejoin="round" transform="matrix(1 0 0 1 5.628 9.60638)" />
			<polyline points="0 -5.628 0 5.628" fill="none" stroke="#000000" stroke-width="0.64319998" stroke-linecap="round" stroke-linejoin="round" transform="matrix(1 0 0 1 5.628 9.60638)" />
			<rect />
		</svg>
	</g>
	<g transform="matrix(1 0 -0 1 60.0519 123.044)">
		<svg width="119.826561" height="83.9999847">
			<defs />
			<polyline points="-5.628 0 5.628 0" fill="none" stroke="#000000" stroke-width="0.64319998" stroke-linecap="round" stroke-linejoin="round" transform="matrix(1 0 0 1 5.628 9.60638)" />
			<rect />
		</svg>
	</g>
	<g transform="matrix(1 0 -0 1 165.311 92.5809)">
		<svg width="104.900322" height="59.8723221">
			<defs />
			<path d="M 9.41063 14.6482 C 9.34193 14.9299, 9.26006 15.2413, 9.1656 15.5831, 9.0717 15.9255, 8.94575 16.2426, 8.78831 16.5358, 8.63144 16.8289, 8.43336 17.0825, 8.19405 17.296, 7.95474 17.5096, 7.65589 17.6161, 7.2975 17.6161, 6.85724 17.6161, 6.50171 17.5033, 6.23148 17.2777, 5.96126 17.0522, 5.79409 16.8197, 5.73111 16.581, 5.51756 16.8443, 5.23131 17.0825, 4.87292 17.296, 4.51453 17.5096, 4.09889 17.6161, 3.62714 17.6161, 3.20005 17.6161, 2.81761 17.5371, 2.48097 17.3779, 2.14434 17.2199, 1.87869 16.9754, 1.68347 16.6451, 1.49511 16.2913, 1.40408 15.9008, 1.40981 15.4726 L 1.40981 15.3993 C 1.4224 14.9539, 1.47908 14.5114, 1.57984 14.0711, 1.6806 13.6503, 1.82717 13.1866, 2.01896 12.6793, 2.21075 12.1727, 2.39452 11.6809, 2.57029 11.204, 2.75921 10.6979, 2.85368 10.2822, 2.85368 9.95819, 2.85368 9.68396, 2.73746 9.54655, 2.50445 9.54598, 2.2909 9.54655, 2.09739 9.60781, 1.92449 9.72976, 1.7516 9.85227, 1.59416 10.0217, 1.45275 10.2381, 1.31134 10.4551, 1.18367 10.7116, 1.07031 11.0076, 0.956953 11.3042, 0.863061 11.6196, 0.78749 11.9551, 0.718216 12.1206, 0.601997 12.2059, 0.438259 12.2116 L 0.221278 12.2116 C 0.0701351 12.2122, -0.00543621 12.136, -0.00543621 11.9826 L -0.00543621 11.9185 C 0.0827303 11.583, 0.199522 11.24, 0.343795 10.8885, 0.48864 10.5376, 0.67127 10.2187, 0.891114 9.93128, 1.11153 9.64445, 1.36343 9.40629, 1.64625 9.21679, 1.92907 9.02786, 2.25311 8.93282, 2.6178 8.93225, 2.93268 8.93282, 3.20119 9.00038, 3.42447 9.13435, 3.64775 9.26889, 3.81778 9.44751, 3.934 9.67021, 4.0508 9.89349, 4.11492 10.1448, 4.12751 10.4254 L 4.12751 10.4895 C 4.12751 10.7528, 4.07427 11.0242, 3.96664 11.3047, 3.78458 11.7816, 3.60424 12.2688, 3.42447 12.7663, 3.24527 13.2644, 3.10558 13.7116, 3.00482 14.1083, 2.90406 14.5056, 2.83478 14.8989, 2.797 15.2894, 2.77181 15.3936, 2.75635 15.507, 2.75005 15.6283, 2.75005 15.8671, 2.79127 16.1024, 2.87257 16.3337, 2.92925 16.542, 3.03287 16.7069, 3.18402 16.8289, 3.33516 16.9514, 3.51435 17.0121, 3.7216 17.0115, 4.13724 17.0121, 4.49907 16.8873, 4.80708 16.6365, 5.11509 16.3863, 5.38532 16.0531, 5.61775 15.6375, 5.63035 15.5894, 5.64008 15.5327, 5.64638 15.4686, 5.65268 15.4045, 5.66184 15.3386, 5.67443 15.2711 L 7.08968 9.81162 C 7.14693 9.58606, 7.26143 9.42003, 7.43433 9.31297, 7.60723 9.20648, 7.78184 9.15267, 7.9576 9.15209, 8.14023 9.15267, 8.29137 9.20763, 8.41103 9.31698, 8.4929 9.39713, 8.53355 9.50361, 8.53355 9.63758, 8.53355 9.70514, 8.52725 9.77556, 8.51465 9.84827 L 7.09941 15.3077 C 6.99865 15.6867, 6.94827 16.0228, 6.94827 16.3153, 6.94827 16.3955, 6.95456 16.4808, 6.96716 16.5718, 6.99865 16.8655, 7.14636 17.0121, 7.41085 17.0115, 7.67535 17.0121, 7.90321 16.7865, 8.095 16.3342, 8.28679 15.8825, 8.474 15.302, 8.65606 14.5932, 8.69385 14.4352, 8.80091 14.3556, 8.97667 14.3551 L 9.19365 14.3551 C 9.2635 14.3556, 9.33277 14.3768, 9.40147 14.4192, 9.42666 14.4747, 9.43926 14.5205, 9.43926 14.5566, 9.43926 14.5818, 9.4301 14.6121, 9.41063 14.6482 Z" stroke="none" fill="#000000" />
			<path d="M 25.0638 9.62842 C 24.9951 9.8122, 24.872 9.9038, 24.6957 9.90323 L 22.941 9.90323, 21.5446 15.3169 C 21.4318 15.7085, 21.3752 16.0503, 21.3752 16.3428, 21.3752 16.423, 21.3815 16.4991, 21.394 16.5718, 21.4255 16.8655, 21.5732 17.0121, 21.8372 17.0115, 22.0765 17.0121, 22.3026 16.9468, 22.5167 16.8151, 22.7309 16.684, 22.9318 16.5083, 23.1207 16.2884, 23.3097 16.0686, 23.4791 15.8092, 23.6303 15.5098, 23.7814 15.211, 23.9194 14.8961, 24.0448 14.5657, 24.0642 14.493, 24.1049 14.4398, 24.1679 14.406, 24.2308 14.3728, 24.2904 14.3556, 24.3471 14.3551 L 24.5829 14.3551 C 24.6648 14.3556, 24.7306 14.3894, 24.781 14.4558, 24.7999 14.4993, 24.8091 14.5388, 24.8091 14.5749 L 24.8091 14.6299 C 24.6774 14.9905, 24.5119 15.3466, 24.3138 15.6976, 24.1158 16.0491, 23.8879 16.3651, 23.6303 16.6457, 23.3726 16.9268, 23.0875 17.1586, 22.7761 17.3413, 22.4646 17.5245, 22.1206 17.6161, 21.7427 17.6161, 21.4158 17.6161, 21.133 17.5537, 20.8937 17.4283, 20.6549 17.3035, 20.4631 17.13, 20.3183 16.9067, 20.174 16.684, 20.0887 16.4287, 20.0635 16.1413, 20.0509 16.0686, 20.0446 15.989, 20.0446 15.9031, 20.0446 15.6959, 20.0698 15.4852, 20.1202 15.2711 L 21.5068 9.90323, 19.7332 9.90323 C 19.5763 9.9038, 19.491 9.82136, 19.4784 9.6559 L 19.4784 9.58262, 19.5351 9.4269 C 19.5981 9.24427, 19.7149 9.15267, 19.8843 9.15209 L 21.686 9.15209, 22.4601 6.14756 C 22.5167 5.92199, 22.6312 5.75425, 22.8041 5.64433, 22.977 5.5344, 23.1517 5.47944, 23.328 5.47887, 23.5106 5.47944, 23.6618 5.53727, 23.7808 5.65291, 23.8627 5.73306, 23.9034 5.84299, 23.9034 5.98268, 23.9034 6.05024, 23.8971 6.11779, 23.8845 6.1842 L 23.1202 9.15209, 24.8566 9.15209 C 25.0203 9.15267, 25.1016 9.23511, 25.1016 9.39942 L 25.1016 9.46354 Z" stroke="none" fill="#000000" />
			<path d="M 1.5467 8.95625 C -4.56906 4.92594, -4.56906 -4.92594, 1.5467 -8.95625 L 2.50721 -8.95625 C -3.00823 -4.92594, -3.00823 4.92594, 2.50721 8.95625" stroke="none" fill="#000000" transform="matrix(1 0 -0 1 16.0107 11.7703)" />
			<path d="M 1.5467 8.95625 C -4.56906 4.92594, -4.56906 -4.92594, 1.5467 -8.95625 L 2.50721 -8.95625 C -3.00823 -4.92594, -3.00823 4.92594, 2.50721 8.95625" stroke="none" fill="#000000" transform="matrix(-1 1.50996e-007 -1.50996e-007 -1 28.5751 11.7703)" />
			<rect />
		</svg>
	</g>
	<g transform="matrix(1 0 -0 1 118.322 9.00001)">
		<svg width="89.9740677" height="59.8723221">
			<defs />
			<path d="M 4.85632 5.76284 C 4.79964 5.99527, 4.66911 6.18935, 4.46472 6.34508, 4.26033 6.5008, 4.03877 6.57866, 3.79946 6.57809, 3.54813 6.57866, 3.35634 6.49336, 3.22409 6.3216, 3.1365 6.22428, 3.08955 6.1052, 3.08268 5.96436, 3.08268 5.87963, 3.09528 5.79375, 3.12047 5.70787, 3.17715 5.47658, 3.3094 5.2825, 3.51664 5.12678, 3.72447 4.97105, 3.94774 4.89319, 4.18648 4.89262, 4.43839 4.89319, 4.63018 4.97563, 4.76185 5.13995, 4.85002 5.25674, 4.8941 5.38154, 4.8941 5.51551, 4.8941 5.60139, 4.88151 5.68383, 4.85632 5.76284 Z M 4.95994 14.6482 C 4.89124 14.9665, 4.78418 15.3008, 4.63934 15.6518, 4.49506 16.0033, 4.31701 16.3222, 4.10633 16.609, 3.89565 16.8964, 3.64889 17.1357, 3.36607 17.3275, 3.08325 17.5199, 2.75578 17.6161, 2.38479 17.6161, 2.07048 17.6161, 1.80026 17.5491, 1.57355 17.4146, 1.3474 17.2806, 1.17279 17.1037, 1.05027 16.8838, 0.927755 16.664, 0.865924 16.4195, 0.865924 16.1505, 0.853329 16.139, 0.847031 16.1144, 0.847031 16.0772, 0.847031 15.8029, 0.907145 15.5218, 1.02623 15.2344 L 2.55426 11.204 C 2.74318 10.6979, 2.83765 10.2822, 2.83765 9.95819, 2.83765 9.68396, 2.72143 9.54655, 2.48842 9.54598, 2.27487 9.54655, 2.08308 9.60781, 1.91304 9.72976, 1.74358 9.85227, 1.58786 10.0217, 1.44645 10.2381, 1.30504 10.4551, 1.17794 10.7116, 1.06459 11.0076, 0.951228 11.3042, 0.856764 11.6196, 0.781193 11.9551, 0.712492 12.1206, 0.5957 12.2059, 0.431962 12.2116 L 0.224713 12.2116 C 0.0735708 12.2122, -0.00200051 12.136, -0.00200051 11.9826 L -0.00200051 11.9185 C 0.0735708 11.583, 0.186928 11.24, 0.33807 10.8885, 0.489213 10.5376, 0.671271 10.2187, 0.884817 9.93128, 1.09894 9.64445, 1.3474 9.40629, 1.63022 9.21679, 1.91304 9.02786, 2.23709 8.93282, 2.60177 8.93225, 2.91665 8.93282, 3.18402 9.00038, 3.40386 9.13435, 3.6237 9.26889, 3.79202 9.44751, 3.90824 9.67021, 4.02503 9.89349, 4.08915 10.1448, 4.10175 10.4254 L 4.10175 10.4895 C 4.10175 10.7528, 4.04851 11.0242, 3.94087 11.3047 L 2.41285 15.3535 C 2.23709 15.8487, 2.14892 16.2701, 2.14892 16.6176, 2.13632 16.6302, 2.13003 16.6302, 2.13003 16.6176, 2.13003 16.881, 2.24968 17.0121, 2.48842 17.0115, 2.70254 17.0121, 2.89547 16.948, 3.06837 16.8197, 3.24127 16.6915, 3.39871 16.5209, 3.54012 16.3067, 3.6821 16.0932, 3.80633 15.8367, 3.91282 15.5373, 4.01988 15.2384, 4.11721 14.9236, 4.20537 14.5932, 4.24316 14.4352, 4.35308 14.3556, 4.53514 14.3551 L 4.74296 14.3551 C 4.81223 14.3556, 4.88151 14.3768, 4.95021 14.4192, 4.96967 14.4684, 4.98513 14.5114, 4.99773 14.5474, 4.99773 14.5846, 4.98513 14.6184, 4.95994 14.6482 Z" stroke="none" fill="#000000" />
			<path d="M 20.6189 9.62842 C 20.5502 9.8122, 20.4271 9.9038, 20.2507 9.90323 L 18.496 9.90323, 17.0997 15.3169 C 16.9869 15.7085, 16.9302 16.0503, 16.9302 16.3428, 16.9302 16.423, 16.9365 16.4991, 16.9491 16.5718, 16.9806 16.8655, 17.1283 17.0121, 17.3922 17.0115, 17.6315 17.0121, 17.8577 16.9468, 18.0718 16.8151, 18.2859 16.684, 18.4868 16.5083, 18.6758 16.2884, 18.8647 16.0686, 19.0342 15.8092, 19.1853 15.5098, 19.3364 15.211, 19.4744 14.8961, 19.5998 14.5657, 19.6193 14.493, 19.6599 14.4398, 19.7229 14.406, 19.7859 14.3728, 19.8454 14.3556, 19.9021 14.3551 L 20.138 14.3551 C 20.2198 14.3556, 20.2857 14.3894, 20.3361 14.4558, 20.3549 14.4993, 20.3641 14.5388, 20.3641 14.5749 L 20.3641 14.6299 C 20.2324 14.9905, 20.067 15.3466, 19.8689 15.6976, 19.6708 16.0491, 19.4429 16.3651, 19.1853 16.6457, 18.9277 16.9268, 18.6426 17.1586, 18.3311 17.3413, 18.0197 17.5245, 17.6756 17.6161, 17.2977 17.6161, 16.9708 17.6161, 16.688 17.5537, 16.4487 17.4283, 16.21 17.3035, 16.0182 17.13, 15.8733 16.9067, 15.7291 16.684, 15.6438 16.4287, 15.6186 16.1413, 15.606 16.0686, 15.5997 15.989, 15.5997 15.9031, 15.5997 15.6959, 15.6249 15.4852, 15.6752 15.2711 L 17.0619 9.90323, 15.2882 9.90323 C 15.1314 9.9038, 15.0461 9.82136, 15.0335 9.6559 L 15.0335 9.58262, 15.0901 9.4269 C 15.1531 9.24427, 15.2699 9.15267, 15.4394 9.15209 L 17.2411 9.15209, 18.0151 6.14756 C 18.0718 5.92199, 18.1863 5.75425, 18.3592 5.64433, 18.5321 5.5344, 18.7067 5.47944, 18.883 5.47887, 19.0657 5.47944, 19.2168 5.53727, 19.3359 5.65291, 19.4177 5.73306, 19.4584 5.84299, 19.4584 5.98268, 19.4584 6.05024, 19.4521 6.11779, 19.4395 6.1842 L 18.6752 9.15209, 20.4116 9.15209 C 20.5754 9.15267, 20.6567 9.23511, 20.6567 9.39942 L 20.6567 9.46354 Z" stroke="none" fill="#000000" />
			<path d="M 1.5467 8.95625 C -4.56906 4.92594, -4.56906 -4.92594, 1.5467 -8.95625 L 2.50721 -8.95625 C -3.00823 -4.92594, -3.00823 4.92594, 2.50721 8.95625" stroke="none" fill="#000000" transform="matrix(1 0 -0 1 11.5657 11.7703)" />
			<path d="M 1.5467 8.95625 C -4.56906 4.92594, -4.56906 -4.92594, 1.5467 -8.95625 L 2.50721 -8.95625 C -3.00823 -4.92594, -3.00823 4.92594, 2.50721 8.95625" stroke="none" fill="#000000" transform="matrix(-1 1.50996e-007 -1.50996e-007 -1 24.1301 11.7703)" />
			<rect />
		</svg>
	</g>
	<path d="M -21.3008 0 L 21.3014 0" fill="none" stroke="#000000" stroke-width="4.48000002" stroke-linecap="round" stroke-linejoin="round" marker-end="url(#CustomMarker-01)" transform="matrix(0.238095 0 0 0.238095 134.369 42.9296)" />
	<g transform="matrix(1 0 -0 1 177.126 48.526)">
		<svg width="119.826561" height="119.904221">
			<defs />
			<polyline points="-5.628 0 5.628 0" fill="none" stroke="#000000" stroke-width="0.64319998" stroke-linecap="round" stroke-linejoin="round" transform="matrix(1 0 0 1 5.628 9.60638)" />
			<polyline points="0 -5.628 0 5.628" fill="none" stroke="#000000" stroke-width="0.64319998" stroke-linecap="round" stroke-linejoin="round" transform="matrix(1 0 0 1 5.628 9.60638)" />
			<rect />
		</svg>
	</g>
	<g transform="matrix(1 0 -0 1 176.571 142.097)">
		<svg width="119.826561" height="83.9999847">
			<defs />
			<polyline points="-5.628 0 5.628 0" fill="none" stroke="#000000" stroke-width="0.64319998" stroke-linecap="round" stroke-linejoin="round" transform="matrix(1 0 0 1 5.628 9.60638)" />
			<rect />
		</svg>
	</g>
</svg>
