<?xml version="1.0"?>
<svg xmlns="http://www.w3.org/2000/svg" xmlns:xlink="http://www.w3.org/1999/xlink" width="302.916656" height="260.416656">
	<defs>
		<marker id="CustomMarker-01" markerUnits="strokeWidth" markerWidth="15.000001" markerHeight="9" viewBox="-15 -4.5 15 9" orient="auto-start-reverse">
			<path d="M 0 -0 L -10 -3, -8 -0.5, -8 0.5, -10 3 Z" fill="#000000" stroke="#000000" stroke-linejoin="round" />
		</marker>
		<marker id="CustomMarker-02" markerUnits="strokeWidth" markerWidth="15.000001" markerHeight="9" viewBox="-15 -4.5 15 9" orient="auto-start-reverse">
			<path d="M 0 -0 L -10 -3, -8 -0.5, -8 0.5, -10 3 Z" fill="#000000" stroke="#000000" stroke-linejoin="round" />
		</marker>
	</defs>
	<path d="M 178 -0 C 178 98.3065, 98.3065 178, -0 178, -98.3065 178, -178 98.3065, -178 -0, -178 -98.3065, -98.3065 -178, -0 -178, 98.3065 -178, 178 -98.3065, 178 -0 Z" fill="none" stroke="#000000" stroke-width="2.4000001" stroke-linecap="round" stroke-linejoin="round" transform="matrix(0.416667 0 0 0.416667 151.563 100.102)" />
	<path d="M -304.336 276.442 L 304.336 276.442" fill="none" stroke="#000000" stroke-width="2.4000001" stroke-linecap="round" stroke-linejoin="round" marker-end="url(#CustomMarker-01)" transform="matrix(0.416667 0 -0 0.416667 151.731 123.985)" />
	<path d="M -304.336 276.442 L -304.336 -276.442" fill="none" stroke="#000000" stroke-width="2.4000001" stroke-linecap="round" stroke-linejoin="round" marker-end="url(#CustomMarker-02)" transform="matrix(0.416667 0 -0 0.416667 151.731 123.985)" />
	<g transform="matrix(1 0 -0 1 286.598 229.563)">
		<svg width="27.0562763" height="27.0428486">
			<defs />
			<path d="M 7.82261 8.48502 C 7.76373 8.72106, 7.6435 8.89772, 7.46291 9.0155, 7.28233 9.13327, 7.10076 9.19215, 6.91723 9.19166, 6.72879 9.19215, 6.57225 9.1318, 6.4481 9.01108, 6.35682 8.92275, 6.30824 8.80743, 6.30235 8.66561, 6.30235 8.60869, 6.31315 8.53508, 6.33474 8.44577, 6.39412 8.24751, 6.48588 8.09686, 6.60955 7.99479, 6.7337 7.89272, 6.82007 7.83384, 6.86865 7.81764, 6.76658 7.73962, 6.55606 7.70036, 6.23758 7.69987, 5.95738 7.70036, 5.70662 7.84561, 5.48579 8.13612, 5.26497 8.42663, 5.10008 8.77602, 4.99212 9.18381 L 4.24819 12.0575 C 4.17262 12.346, 4.11618 12.6208, 4.0784 12.8819, 4.05681 12.9712, 4.04601 13.0497, 4.04601 13.1174, 4.04601 13.2804, 4.073 13.4345, 4.12698 13.5807, 4.18096 13.7382, 4.26193 13.8638, 4.36989 13.9581, 4.47785 14.0523, 4.61525 14.0994, 4.78209 14.0989, 4.99801 14.0994, 5.20559 14.0434, 5.40482 13.9306, 5.60455 13.8182, 5.78808 13.6666, 5.95492 13.4752, 6.12177 13.2843, 6.26997 13.062, 6.39952 12.8078, 6.52907 12.5541, 6.63114 12.2935, 6.70671 12.0261, 6.7391 11.8906, 6.83086 11.8224, 6.98151 11.8219 L 7.1675 11.8219 C 7.30784 11.8224, 7.37802 11.8749, 7.37802 11.979, 7.37802 12.0109, 7.37017 12.0398, 7.35397 12.0653, 7.2784 12.3799, 7.15572 12.69, 6.98593 12.9962, 6.81614 13.3024, 6.61838 13.5733, 6.39167 13.8089, 6.16495 14.0444, 5.90781 14.2383, 5.61927 14.3894, 5.33072 14.5415, 5.02206 14.6171, 4.69327 14.6171, 4.35909 14.6171, 4.07055 14.5454, 3.82813 14.4012, 3.58571 14.2579, 3.38844 14.0704, 3.2373 13.8398, 3.18921 13.7829, 3.15142 13.724, 3.12443 13.6636, 3.09744 13.6038, 3.0891 13.5944, 3.0999 13.6356, 2.97084 13.8506, 2.76621 14.068, 2.48551 14.2878, 2.20531 14.5077, 1.88192 14.6171, 1.51486 14.6171, 1.31023 14.6171, 1.10805 14.5911, 0.908331 14.5386, 0.709097 14.4866, 0.534891 14.4056, 0.386693 14.2957, 0.238494 14.1857, 0.12661 14.0523, 0.0510383 13.8948, 0.0137434 13.801, -0.00490405 13.699, -0.00539478 13.5885, -0.00490405 13.5105, 0.00589184 13.4187, 0.0269929 13.3137, 0.0863704 13.0787, 0.207579 12.902, 0.391109 12.7842, 0.574639 12.6665, 0.757679 12.6076, 0.940718 12.6071, 1.12965 12.6076, 1.29159 12.6679, 1.42604 12.7877, 1.51781 12.877, 1.56345 12.9923, 1.56345 13.1331, 1.56345 13.2068, 1.55265 13.2804, 1.53106 13.353, 1.48297 13.5365, 1.39513 13.6847, 1.26852 13.7971, 1.14191 13.91, 1.05113 13.9713, 0.997152 13.9811, 1.09971 14.0655, 1.30729 14.1048, 1.61988 14.0989, 1.90057 14.0994, 2.15378 13.9531, 2.38001 13.6597, 2.60672 13.3667, 2.77111 13.0159, 2.87367 12.6071 L 3.62546 9.71772 C 3.70103 9.44586, 3.76041 9.17891, 3.80359 8.91686, 3.81439 8.83344, 3.81979 8.75492, 3.81979 8.68131, 3.81979 8.51937, 3.79574 8.36774, 3.74667 8.22592, 3.69318 8.06938, 3.60976 7.94278, 3.4964 7.84561, 3.38304 7.74894, 3.2427 7.70036, 3.07585 7.69987, 2.85993 7.70036, 2.65089 7.75679, 2.44871 7.86917, 2.24653 7.98203, 2.06202 8.13219, 1.89517 8.32063, 1.72833 8.50907, 1.58013 8.72793, 1.45058 8.97624, 1.32103 9.22503, 1.22681 9.48806, 1.16694 9.76483, 1.10805 9.90665, 1.00844 9.97976, 0.868091 9.98467 L 0.689959 9.98467 C 0.560899 9.98516, 0.496124 9.9199, 0.496124 9.78838 L 0.496124 9.73342 C 0.577093 9.40954, 0.701246 9.09401, 0.868091 8.7878, 1.03494 8.48159, 1.23466 8.21071, 1.46628 7.97516, 1.69839 7.73962, 1.9575 7.54725, 2.2431 7.39807, 2.5287 7.24889, 2.83883 7.1743, 3.17252 7.17381, 3.4964 7.1743, 3.782 7.24497, 4.02982 7.3863, 4.27812 7.52762, 4.4803 7.71606, 4.63635 7.95112, 4.66874 8.00902, 4.69867 8.07085, 4.72566 8.13612, 4.75265 8.20188, 4.7605 8.21856, 4.74971 8.18666, 4.88466 7.95701, 5.09223 7.73078, 5.37243 7.508, 5.65313 7.2857, 5.97357 7.1743, 6.33474 7.17381, 6.53986 7.1743, 6.74302 7.19933, 6.9452 7.24889, 7.14738 7.29895, 7.32306 7.37844, 7.47126 7.48837, 7.61945 7.59829, 7.72888 7.73422, 7.79857 7.89616, 7.83635 7.99087, 7.855 8.09833, 7.855 8.21807, 7.855 8.29708, 7.8442 8.3859, 7.82261 8.48502 Z" stroke="none" fill="#000000" />
			<rect />
		</svg>
	</g>
	<g transform="matrix(1 0 -0 1 8.87461 11.7578)">
		<svg width="27.0562763" height="36.0428467">
			<defs />
			<path d="M 5.63988 14.3737 C 5.52701 14.8134, 5.34888 15.2334, 5.10646 15.6339, 4.86405 16.0343, 4.57795 16.3906, 4.24917 16.7017, 3.92039 17.0133, 3.55136 17.266, 3.14161 17.4594, 2.73186 17.6532, 2.30591 17.7499, 1.86377 17.7499, 1.59976 17.7499, 1.35734 17.7018, 1.13652 17.6046, 0.915692 17.5079, 0.735106 17.3769, 0.594759 17.212, 0.454413 17.0472, 0.360194 16.8523, 0.311612 16.6271, 0.290021 16.528, 0.279225 16.4259, 0.279225 16.3209, 0.279225 16.185, 0.295419 16.0461, 0.327806 15.9048, 0.387184 15.6692, 0.508392 15.4925, 0.691432 15.3748, 0.874962 15.257, 1.05555 15.1981, 1.23319 15.1981, 1.42212 15.1981, 1.58111 15.2585, 1.71017 15.3787, 1.80194 15.468, 1.84757 15.5828, 1.84757 15.7242, 1.84757 15.7821, 1.83678 15.8527, 1.81519 15.9362, 1.7563 16.1717, 1.63509 16.3484, 1.45156 16.4661, 1.26852 16.5839, 1.12278 16.6428, 1.01482 16.6428, 1.04721 16.7841, 1.14829 16.9166, 1.31808 17.0393, 1.48787 17.1625, 1.70526 17.2238, 1.96927 17.2238, 2.26027 17.2238, 2.53262 17.1453, 2.78584 16.9883, 3.03905 16.8312, 3.27116 16.6207, 3.48119 16.3562, 3.69122 16.0922, 3.87573 15.786, 4.03472 15.4376, 4.19372 15.0897, 4.3218 14.7246, 4.41896 14.3423 L 4.46754 14.1539 C 4.38706 14.2275, 4.21727 14.3232, 3.95817 14.4404, 3.69956 14.5582, 3.41641 14.6171, 3.10922 14.6171, 2.74265 14.6171, 2.41534 14.5494, 2.1268 14.413, 1.83825 14.2775, 1.61056 14.068, 1.44371 13.7848, 1.28177 13.4816, 1.20375 13.1469, 1.20914 12.7798 L 1.20914 12.717 C 1.21994 12.3352, 1.26852 11.9559, 1.3544 11.5785, 1.44077 11.2179, 1.56639 10.8204, 1.73078 10.3856, 1.89517 9.9513, 2.0527 9.52977, 2.20335 9.121, 2.36529 8.6872, 2.44626 8.33094, 2.44626 8.05319, 2.44626 7.81813, 2.34664 7.70036, 2.14691 7.69987, 1.96388 7.70036, 1.79801 7.75287, 1.64981 7.85739, 1.50161 7.9624, 1.36716 8.10766, 1.24546 8.29315, 1.12425 8.47914, 1.01531 8.69898, 0.918146 8.95268, 0.820982 9.20688, 0.740013 9.47727, 0.675238 9.76483, 0.616351 9.90665, 0.516734 9.97976, 0.376388 9.98467 L 0.190404 9.98467 C 0.0608531 9.98516, -0.00392231 9.9199, -0.00392231 9.78838 L -0.00392231 9.73342 C 0.071649 9.44586, 0.171756 9.15192, 0.295419 8.85061, 0.419571 8.5498, 0.576112 8.27647, 0.764549 8.03012, 0.952987 7.78427, 1.1689 7.58013, 1.41132 7.4177, 1.65374 7.25576, 1.93149 7.1743, 2.24408 7.17381, 2.51398 7.1743, 2.74412 7.23221, 2.93551 7.34704, 3.12689 7.46236, 3.27214 7.61546, 3.37176 7.80635, 3.47187 7.99774, 3.52683 8.21316, 3.53762 8.45362 L 3.53762 8.50858 C 3.53762 8.73431, 3.49199 8.96691, 3.40022 9.20737, 3.24417 9.61614, 3.0891 10.0337, 2.93551 10.4602, 2.78191 10.8871, 2.66217 11.2704, 2.57581 11.6104, 2.48944 11.951, 2.43006 12.2881, 2.39767 12.6228, 2.37608 12.7121, 2.36283 12.8093, 2.35694 12.9133, 2.35694 13.1179, 2.39228 13.3196, 2.46245 13.5179, 2.51103 13.6965, 2.59985 13.8378, 2.7294 13.9424, 2.85895 14.0474, 3.01255 14.0994, 3.19019 14.0989, 3.53517 14.0994, 3.83696 13.9973, 4.09557 13.7932, 4.35468 13.589, 4.5809 13.3221, 4.77473 12.9918 L 6.07662 7.92756 C 6.1252 7.73422, 6.22335 7.59191, 6.37155 7.50014, 6.51974 7.40887, 6.66941 7.36274, 6.82007 7.36225, 6.97661 7.36274, 7.10616 7.40985, 7.20823 7.50358, 7.27889 7.57228, 7.31373 7.66355, 7.31373 7.77838, 7.31373 7.83629, 7.30834 7.89665, 7.29754 7.95897 Z" stroke="none" fill="#000000" />
			<rect />
		</svg>
	</g>
	<g transform="matrix(1 0 -0 1 9.4364 238.654)">
		<svg width="36.0612984" height="41.9571304">
			<defs />
			<path d="M 10.5115 8.92471 C 10.3172 9.68435, 10.0031 10.417, 9.56934 11.1236, 9.13554 11.8303, 8.58936 12.4766, 7.9318 13.0625, 7.339 13.5915, 6.69027 14.012, 5.98657 14.3232, 5.28287 14.6343, 4.5782 14.7898, 3.87205 14.7898, 3.1605 14.7898, 2.52796 14.6333, 1.9754 14.3192, 1.42285 14.0052, 0.982182 13.5812, 0.653397 13.0468, 0.292226 12.456, 0.0846499 11.8013, 0.0306704 11.0839, 0.00907862 10.9116, -0.00171733 10.7389, -0.00171733 10.5657, -0.00171733 10.0269, 0.0684561 9.46941, 0.208312 8.8933, 0.413434 8.12434, 0.72995 7.37746, 1.15884 6.65217, 1.58773 5.92738, 2.13587 5.27177, 2.80423 4.68487, 3.39752 4.15685, 4.04576 3.73139, 4.74946 3.40948, 5.45316 3.08757, 6.16323 2.92661, 6.88018 2.92612, 7.59172 2.92661, 8.22132 3.08904, 8.76848 3.41341, 9.31612 3.73826, 9.75385 4.16716, 10.0826 4.70057, 10.4438 5.29238, 10.6568 5.95191, 10.7216 6.67916, 10.7323 6.85779, 10.7377 7.03298, 10.7377 7.20522, 10.7377 7.76562, 10.6627 8.33879, 10.5115 8.92471 Z M 8.87791 4.96752 C 8.70027 4.52833, 8.43331 4.17108, 8.07705 3.89628, 7.72128 3.62147, 7.28453 3.48407, 6.76682 3.48358, 6.255 3.48407, 5.74563 3.62442, 5.23871 3.90413, 4.73228 4.18433, 4.27935 4.54648, 3.8799 4.99108, 3.37838 5.53087, 2.98237 6.11582, 2.69137 6.74639, 2.40037 7.37746, 2.17366 8.01687, 2.01172 8.66561, 1.82328 9.37274, 1.70747 10.0612, 1.66429 10.7306, 1.65349 10.8567, 1.64809 10.9823, 1.64809 11.1074, 1.64809 11.6315, 1.73446 12.1443, 1.9067 12.6464, 2.07404 13.0919, 2.3302 13.4649, 2.67517 13.7657, 3.02015 14.067, 3.4515 14.2172, 3.96872 14.2167, 4.50263 14.2172, 5.02475 14.064, 5.53412 13.7578, 6.04349 13.4516, 6.50036 13.0733, 6.90471 12.6228, 7.42782 12.0163, 7.83463 11.3749, 8.12563 10.6997, 8.41712 10.0244, 8.65414 9.33594, 8.83718 8.6342, 9.00451 7.98056, 9.10953 7.33673, 9.15271 6.70272 L 9.15271 6.42791 C 9.15271 5.9048, 9.06144 5.41801, 8.87791 4.96752 Z" stroke="none" fill="#000000" />
			<rect />
		</svg>
	</g>
	<path d="M -267 157 C -120 159, 162 94, 267 -159" fill="none" stroke="#000000" stroke-width="4" stroke-linecap="round" stroke-linejoin="round" transform="matrix(0.416667 0 -0 0.416667 136.771 153.644)" />
	<path d="M -181.375 178.527 L 181.375 -178.527" fill="none" stroke="#000000" stroke-width="2.4000001" stroke-linecap="round" stroke-linejoin="round" transform="matrix(0.416667 0 0 0.416667 191.541 164.783)" />
	<g transform="matrix(1 0 -0 1 206.173 153.575)">
		<svg width="59.9889336" height="45.0428467">
			<defs />
			<path d="M 18.2327 4.3115 C 18.1949 4.50157, 18.0787 4.59604, 17.8835 4.59547, 17.5881 4.59604, 17.3087 4.60234, 17.0442 4.61436, 16.7803 4.62695, 16.5885 4.65901, 16.4688 4.71054, 16.3497 4.76264, 16.2553 4.92294, 16.1854 5.19088 L 13.5347 15.5144 C 13.4975 15.6495, 13.4786 15.756, 13.4786 15.835, 13.4786 15.9088, 13.4975 15.9546, 13.5347 15.9724, 13.6229 16.0279, 13.7946 16.06, 14.0494 16.0691, 14.3042 16.0783, 14.579 16.0829, 14.8744 16.0823, 15.0507 16.0829, 15.1383 16.1562, 15.1383 16.3021, 15.1383 16.3394, 15.1326 16.3789, 15.12 16.4212 L 15.0822 16.5586 C 15.0633 16.6388, 15.0209 16.7058, 14.9545 16.7602, 14.8887 16.8151, 14.8114 16.8426, 14.7232 16.8426, 13.9755 16.806, 13.2147 16.7876, 12.4406 16.7876, 11.6678 16.7876, 10.888 16.806, 10.1014 16.8426, 9.9382 16.8426, 9.85634 16.7636, 9.85634 16.6044 L 9.85634 16.5311, 9.89355 16.3754 C 9.94393 16.1745, 10.067 16.0766, 10.2617 16.0823, 10.5571 16.0829, 10.8342 16.0783, 11.0918 16.0691, 11.35 16.06, 11.5418 16.0279, 11.6672 15.9724, 11.7805 15.9117, 11.8721 15.7468, 11.9408 15.4777 L 14.5916 5.24584, 7.5829 16.5861 C 7.48901 16.7573, 7.34416 16.8426, 7.14894 16.8426 L 7.05447 16.8426 C 6.85982 16.8426, 6.74303 16.7453, 6.70524 16.5495 L 5.56423 5.3466, 3.08297 15.0106 C 3.04576 15.1211, 3.02687 15.2373, 3.02687 15.3586, 3.02687 15.3896, 3.03317 15.4233, 3.04576 15.4594, 3.05836 15.6065, 3.10816 15.7228, 3.19633 15.8075, 3.30969 15.918, 3.46083 15.9913, 3.64919 16.0279, 3.83811 16.0646, 4.05166 16.0829, 4.2904 16.0823, 4.46673 16.0829, 4.5549 16.1562, 4.5549 16.3021, 4.5549 16.3394, 4.5486 16.3789, 4.536 16.4212 L 4.49822 16.5586 C 4.47932 16.6388, 4.43696 16.7058, 4.37055 16.7602, 4.30471 16.8151, 4.22456 16.8426, 4.13009 16.8426, 3.50148 16.806, 2.86656 16.7876, 2.22478 16.7876, 1.58357 16.7876, 0.932627 16.806, 0.271951 16.8426, 0.178059 16.8426, 0.108785 16.8151, 0.0647021 16.7602, 0.0211914 16.7178, -0.00113648 16.672, -0.00113648 16.6228, -0.00113648 16.5867, 0.00516113 16.55, 0.0177563 16.5128 L 0.0549695 16.3754 C 0.10535 16.1745, 0.22844 16.0766, 0.423093 16.0823, 0.662402 16.0829, 0.886826 16.0646, 1.09751 16.0279, 1.30819 15.9913, 1.50514 15.9151, 1.68719 15.7983, 1.83204 15.7073, 1.94998 15.5871, 2.04101 15.4371, 2.13261 15.2877, 2.20016 15.1274, 2.24367 14.9556 L 4.77188 5.15423 C 4.80966 5.02027, 4.82856 4.91664, 4.82856 4.84279, 4.82856 4.77008, 4.8131 4.72714, 4.78104 4.71455, 4.69344 4.66016, 4.52226 4.62695, 4.2675 4.61436, 4.01273 4.60234, 3.73735 4.59604, 3.44194 4.59547, 3.27247 4.59604, 3.18087 4.5136, 3.16828 4.34814 L 3.16828 4.28402, 3.20606 4.11914 C 3.27534 3.93651, 3.39785 3.84491, 3.57361 3.84433 L 6.63024 3.84433 C 6.83177 3.84491, 6.94455 3.9428, 6.96974 4.13746 L 8.04491 14.6075, 14.5349 4.10082 C 14.6293 3.93021, 14.7742 3.84491, 14.9688 3.84433 L 18.0249 3.84433 C 18.1131 3.84491, 18.1886 3.87525, 18.2516 3.93593, 18.2768 3.98517, 18.2894 4.03097, 18.2894 4.07334, 18.2894 4.11055, 18.2802 4.14433, 18.2608 4.1741 Z" stroke="none" fill="#000000" />
			<rect />
		</svg>
	</g>
	<g transform="matrix(1 0 -0 1 41.2118 180.32)">
		<svg width="212.945679" height="98.9142685">
			<defs />
			<path d="M 6.57986 17.3321 C 6.44818 17.8451, 6.24036 18.3351, 5.95754 18.8023, 5.67472 19.2695, 5.34095 19.6851, 4.95737 20.0481, 4.57378 20.4116, 4.14326 20.7065, 3.66521 20.9321, 3.18717 21.1582, 2.69023 21.271, 2.1744 21.271, 1.86639 21.271, 1.58357 21.2149, 1.32594 21.1015, 1.06831 20.9887, 0.857624 20.8359, 0.693887 20.6435, 0.530149 20.4511, 0.420227 20.2239, 0.363548 19.9611, 0.338358 19.8454, 0.325763 19.7263, 0.325763 19.6038, 0.325763 19.4452, 0.344656 19.2832, 0.382441 19.1183, 0.451715 18.8435, 0.593125 18.6374, 0.806671 18.5, 1.02079 18.3626, 1.23147 18.2939, 1.43872 18.2939, 1.65914 18.2939, 1.84463 18.3643, 1.9952 18.5046, 2.10226 18.6088, 2.1555 18.7428, 2.1555 18.9077, 2.1555 18.9752, 2.14291 19.0577, 2.11772 19.155, 2.04902 19.4298, 1.90761 19.6359, 1.69349 19.7733, 1.47994 19.9107, 1.30991 19.9794, 1.18395 19.9794, 1.22174 20.1443, 1.33968 20.2989, 1.53777 20.442, 1.73585 20.5857, 1.98948 20.6572, 2.29749 20.6572, 2.63698 20.6572, 2.95473 20.5656, 3.25014 20.3824, 3.54556 20.1992, 3.81635 19.9536, 4.06139 19.6451, 4.30642 19.337, 4.52169 18.9798, 4.70718 18.5733, 4.89267 18.1674, 5.0421 17.7415, 5.15546 17.2955 L 5.21213 17.0756 C 5.11824 17.1615, 4.92015 17.2731, 4.61787 17.41, 4.31616 17.5474, 3.98582 17.6161, 3.62743 17.6161, 3.19976 17.6161, 2.8179 17.5371, 2.48126 17.3779, 2.14463 17.2199, 1.87898 16.9754, 1.68433 16.6451, 1.4954 16.2913, 1.40437 15.9008, 1.41067 15.4726 L 1.41067 15.3993 C 1.42326 14.9539, 1.47994 14.5114, 1.58013 14.0711, 1.68089 13.6503, 1.82746 13.1866, 2.01925 12.6793, 2.21104 12.1727, 2.39481 11.6809, 2.57057 11.204, 2.7595 10.6979, 2.85397 10.2822, 2.85397 9.95819, 2.85397 9.68396, 2.73775 9.54655, 2.50473 9.54598, 2.29119 9.54655, 2.09768 9.60781, 1.92478 9.72976, 1.75188 9.85227, 1.59502 10.0217, 1.45303 10.2381, 1.31162 10.4551, 1.18453 10.7116, 1.07117 11.0076, 0.957814 11.3042, 0.863349 11.6196, 0.787778 11.9551, 0.719077 12.1206, 0.602858 12.2059, 0.43912 12.2116 L 0.222139 12.2116 C 0.070996 12.2122, -0.00457531 12.136, -0.00457531 11.9826 L -0.00457531 11.9185 C 0.0835912 11.583, 0.200383 11.24, 0.344656 10.8885, 0.489501 10.5376, 0.672131 10.2187, 0.891975 9.93128, 1.11182 9.64445, 1.36372 9.40629, 1.64654 9.21679, 1.92936 9.02786, 2.2534 8.93282, 2.61809 8.93225, 2.93297 8.93282, 3.20148 9.00038, 3.42476 9.13435, 3.64804 9.26889, 3.8175 9.44751, 3.93372 9.67021, 4.05051 9.89349, 4.11463 10.1448, 4.12723 10.4254 L 4.12723 10.4895 C 4.12723 10.7528, 4.07398 11.0242, 3.96692 11.3047, 3.78487 11.7816, 3.60395 12.2688, 3.42476 12.7663, 3.24556 13.2644, 3.10587 13.7116, 3.00511 14.1083, 2.90435 14.5056, 2.83507 14.8989, 2.79729 15.2894, 2.7721 15.3936, 2.75664 15.507, 2.74977 15.6283, 2.74977 15.8671, 2.79099 16.1024, 2.87286 16.3337, 2.92954 16.542, 3.03316 16.7069, 3.1843 16.8289, 3.33545 16.9514, 3.51464 17.0121, 3.72189 17.0115, 4.12436 17.0121, 4.47646 16.893, 4.77817 16.6548, 5.08046 16.4167, 5.34438 16.1052, 5.57052 15.7199 L 7.08939 9.81162 C 7.14607 9.58606, 7.26057 9.42003, 7.43347 9.31297, 7.60637 9.20648, 7.78098 9.15267, 7.95674 9.15209, 8.13937 9.15267, 8.29052 9.20763, 8.4096 9.31698, 8.49204 9.39713, 8.53269 9.50361, 8.53269 9.63758, 8.53269 9.70514, 8.52639 9.77556, 8.5138 9.84827 Z" stroke="none" fill="#000000" />
			<polyline points="-6.566 -1.9698 6.566 -1.9698" fill="none" stroke="#000000" stroke-width="0.750400007" stroke-linecap="round" stroke-linejoin="round" transform="matrix(1 0 0 1 20.5437 11.7703)" />
			<polyline points="-6.566 1.9698 6.566 1.9698" fill="none" stroke="#000000" stroke-width="0.750400007" stroke-linecap="round" stroke-linejoin="round" transform="matrix(1 0 0 1 20.5437 11.7703)" />
			<path d="M 41.8931 5.61627 C 41.8244 5.88535, 41.683 6.09203, 41.4689 6.23516, 41.2548 6.37886, 41.0441 6.45042, 40.8363 6.44985, 40.6101 6.45042, 40.4281 6.37084, 40.2895 6.21168, 40.183 6.10863, 40.1264 5.97695, 40.1195 5.8178, 40.1195 5.75139, 40.1321 5.66551, 40.1573 5.56131, 40.2266 5.33002, 40.3445 5.14682, 40.5111 5.01228, 40.6783 4.87831, 40.8025 4.80445, 40.8838 4.79186, 40.7647 4.65789, 40.5288 4.59091, 40.1762 4.59034, 39.9689 4.59091, 39.7708 4.77125, 39.5819 5.13078, 39.5441 5.18632, 39.5018 5.30998, 39.4548 5.50234, 39.4079 5.69471, 39.3541 5.93001, 39.2945 6.20768, 39.235 6.48592, 39.1731 6.78019, 39.1102 7.09163, 39.0472 7.40308, 38.9911 7.7025, 38.9407 7.98875 L 38.7048 9.15209, 40.4309 9.15209 C 40.5947 9.15267, 40.676 9.23511, 40.676 9.39942 L 40.676 9.46354, 40.6382 9.62842 C 40.5695 9.8122, 40.447 9.9038, 40.2706 9.90323 L 38.5537 9.90323, 37.648 14.465 C 37.5604 14.8932, 37.4659 15.3495, 37.3652 15.835, 37.2644 16.3205, 37.1545 16.8031, 37.0348 17.2823, 36.9157 17.7615, 36.7789 18.2149, 36.6249 18.642, 36.4709 19.0697, 36.306 19.4424, 36.1297 19.7596, 36.0232 19.937, 35.9018 20.1157, 35.7667 20.2954, 35.6316 20.4758, 35.4822 20.6361, 35.3184 20.7763, 35.1547 20.9172, 34.9772 21.0345, 34.7854 21.129, 34.5936 21.224, 34.3875 21.271, 34.1671 21.271, 33.9227 21.271, 33.6931 21.2315, 33.479 21.1519, 33.2654 21.0729, 33.0816 20.963, 32.9271 20.8221, 32.7736 20.6819, 32.6586 20.5107, 32.5824 20.3092, 32.5584 20.1992, 32.5458 20.0893, 32.5452 19.9794, 32.5458 19.8758, 32.5584 19.763, 32.5824 19.6405, 32.6523 19.3657, 32.7971 19.1596, 33.0169 19.0222, 33.2374 18.8848, 33.4543 18.8161, 33.6673 18.8161, 33.8883 18.8161, 34.0704 18.8893, 34.2146 19.0359, 34.3217 19.1401, 34.3749 19.2712, 34.3749 19.4298, 34.3749 19.4973, 34.3623 19.5826, 34.3372 19.6863, 34.2685 19.9187, 34.1488 20.1048, 33.9793 20.245, 33.8099 20.3859, 33.6839 20.462, 33.6015 20.474, 33.7091 20.5966, 33.929 20.6572, 34.2616 20.6572, 34.4253 20.6572, 34.5782 20.5656, 34.7196 20.3824, 34.861 20.1992, 34.9755 19.9491, 35.0637 19.6313, 35.2835 18.8865, 35.4833 18.0609, 35.6625 17.1541, 35.8423 16.2472, 36.0198 15.3633, 36.1955 14.5016 L 37.1293 9.90323, 35.7146 9.90323 C 35.6201 9.9038, 35.5509 9.87346, 35.5068 9.81162, 35.469 9.77556, 35.4501 9.72976, 35.4501 9.67422, 35.4501 9.63815, 35.4598 9.60438, 35.4787 9.57346 L 35.5068 9.43606 C 35.5263 9.35705, 35.5686 9.29007, 35.6345 9.23511, 35.7009 9.18015, 35.7713 9.15267, 35.8463 9.15209 L 37.2804 9.15209, 37.4974 8.00707 C 37.5352 7.76948, 37.5856 7.50727, 37.6485 7.21987, 37.7115 6.93305, 37.7865 6.64736, 37.8747 6.3634, 37.9629 6.07943, 38.0619 5.80635, 38.1718 5.54356, 38.2817 5.28135, 38.4157 5.05808, 38.5726 4.8743, 38.7993 4.61209, 39.0604 4.3974, 39.3558 4.22908, 39.6512 4.06134, 39.9626 3.97718, 40.2895 3.97661, 40.5346 3.97718, 40.7687 4.01382, 40.992 4.0871, 41.2153 4.16038, 41.4042 4.26744, 41.5582 4.40771, 41.7128 4.54854, 41.821 4.71629, 41.8834 4.91094, 41.9281 5.00941, 41.9498 5.1222, 41.9498 5.24987, 41.9498 5.35406, 41.9309 5.47658, 41.8931 5.61627 Z" stroke="none" fill="#000000" />
			<path d="M 61.1185 10.462 C 61.0498 10.7374, 60.9095 10.9435, 60.6989 11.0809, 60.4882 11.2183, 60.2764 11.287, 60.0622 11.2864, 59.8424 11.287, 59.6598 11.2166, 59.5149 11.0757, 59.4084 10.9727, 59.3517 10.8381, 59.3449 10.6727, 59.3449 10.6063, 59.3575 10.5204, 59.3827 10.4162, 59.4525 10.1849, 59.5596 10.0091, 59.7038 9.89006, 59.8487 9.77098, 59.9494 9.70228, 60.0056 9.68338, 59.8865 9.59235, 59.6409 9.54655, 59.2699 9.54598, 58.943 9.54655, 58.6504 9.71602, 58.3928 10.0549, 58.1352 10.3939, 57.9428 10.8015, 57.8168 11.2772 L 56.9489 14.6299 C 56.8613 14.9665, 56.7955 15.2871, 56.7508 15.5917, 56.7262 15.6959, 56.7136 15.7875, 56.7136 15.8665, 56.7136 16.0566, 56.7451 16.2363, 56.8075 16.4069, 56.8705 16.5907, 56.965 16.7373, 57.0909 16.8472, 57.2169 16.9571, 57.3772 17.0121, 57.5718 17.0115, 57.8237 17.0121, 58.0659 16.9468, 58.2983 16.8151, 58.5308 16.684, 58.7449 16.5071, 58.9395 16.2838, 59.1348 16.0611, 59.3077 15.8018, 59.4588 15.5052, 59.61 15.2092, 59.729 14.9052, 59.8166 14.5932, 59.8544 14.4352, 59.9615 14.3556, 60.1378 14.3551 L 60.3542 14.3551 C 60.518 14.3556, 60.5998 14.4169, 60.5998 14.5383, 60.5998 14.5755, 60.5907 14.6093, 60.5712 14.639, 60.4836 15.006, 60.3405 15.3678, 60.1424 15.7251, 59.9443 16.0823, 59.7136 16.3983, 59.4491 16.6732, 59.1851 16.948, 58.8852 17.1741, 58.5485 17.3504, 58.2119 17.5279, 57.8518 17.6161, 57.4682 17.6161, 57.0783 17.6161, 56.7417 17.5325, 56.4589 17.3642, 56.176 17.197, 55.9465 16.9783, 55.7701 16.7092, 55.714 16.6428, 55.6699 16.5741, 55.6385 16.5037, 55.607 16.4338, 55.5972 16.423, 55.6098 16.4711, 55.4587 16.7218, 55.2199 16.9754, 54.893 17.2319, 54.5661 17.4884, 54.1889 17.6161, 53.7606 17.6161, 53.5219 17.6161, 53.286 17.5857, 53.0536 17.5245, 52.8211 17.4638, 52.6179 17.3693, 52.445 17.2411, 52.2721 17.1128, 52.1416 16.9571, 52.0534 16.7733, 52.0099 16.664, 51.9881 16.5449, 51.9876 16.4161, 51.9881 16.3251, 52.0007 16.218, 52.0253 16.0955, 52.0946 15.8213, 52.236 15.6152, 52.4496 15.4778, 52.6637 15.3404, 52.8772 15.2717, 53.0914 15.2711, 53.3112 15.2717, 53.5001 15.3421, 53.657 15.4818, 53.7641 15.586, 53.8173 15.7205, 53.8173 15.8848, 53.8173 15.9707, 53.8047 16.0566, 53.7795 16.1413, 53.7234 16.3554, 53.6209 16.5283, 53.4732 16.6594, 53.3255 16.7911, 53.2202 16.8627, 53.1572 16.8741, 53.2768 16.9726, 53.519 17.0184, 53.8837 17.0115, 54.2106 17.0121, 54.506 16.8415, 54.77 16.4991, 55.0345 16.1573, 55.2262 15.748, 55.3453 15.2711 L 56.223 11.9001 C 56.3111 11.583, 56.3798 11.2715, 56.4302 10.9658, 56.4428 10.8685, 56.4491 10.7769, 56.4491 10.691, 56.4491 10.5021, 56.4211 10.3252, 56.3644 10.1597, 56.3014 9.97708, 56.2041 9.82937, 56.0718 9.71602, 55.9402 9.60323, 55.7764 9.54655, 55.5812 9.54598, 55.3299 9.54655, 55.0866 9.61239, 54.8507 9.7435, 54.6148 9.87517, 54.3995 10.0504, 54.2043 10.2702, 54.0097 10.49, 53.8368 10.7454, 53.6856 11.0351, 53.5345 11.3253, 53.4246 11.6322, 53.3553 11.9551, 53.2866 12.1206, 53.1698 12.2059, 53.0061 12.2116 L 52.7988 12.2116 C 52.6477 12.2122, 52.5721 12.136, 52.5721 11.9826 L 52.5721 11.9185 C 52.6665 11.5406, 52.8114 11.1725, 53.0061 10.8152, 53.2013 10.458, 53.4343 10.142, 53.7045 9.86716, 53.9747 9.59235, 54.277 9.36793, 54.6102 9.19389, 54.9434 9.01984, 55.3052 8.93282, 55.6946 8.93225, 56.0724 8.93282, 56.4056 9.01526, 56.6947 9.18015, 56.9838 9.34503, 57.2197 9.56487, 57.4018 9.8391, 57.4396 9.90666, 57.4745 9.9788, 57.506 10.0549, 57.5375 10.1317, 57.5466 10.1511, 57.534 10.1139, 57.6915 9.84597, 57.9336 9.58205, 58.2605 9.32213, 58.5874 9.06278, 58.9613 8.93282, 59.3827 8.93225, 59.622 8.93282, 59.8596 8.96202, 60.0954 9.01984, 60.3313 9.07824, 60.5351 9.17099, 60.708 9.29923, 60.8809 9.42747, 61.0086 9.58606, 61.0905 9.77498, 61.1345 9.88548, 61.1563 10.0109, 61.1563 10.1506, 61.1563 10.2427, 61.1437 10.3463, 61.1185 10.462 Z" stroke="none" fill="#000000" />
			<path d="M 1.5467 8.95625 C -4.56906 4.92594, -4.56906 -4.92594, 1.5467 -8.95625 L 2.50721 -8.95625 C -3.00823 -4.92594, -3.00823 4.92594, 2.50721 8.95625" stroke="none" fill="#000000" transform="matrix(1 0 -0 1 48.5207 11.7703)" />
			<path d="M 1.5467 8.95625 C -4.56906 4.92594, -4.56906 -4.92594, 1.5467 -8.95625 L 2.50721 -8.95625 C -3.00823 -4.92594, -3.00823 4.92594, 2.50721 8.95625" stroke="none" fill="#000000" transform="matrix(-1 1.50996e-007 -1.50996e-007 -1 64.6306 11.7703)" />
			<rect />
		</svg>
	</g>
	<g transform="matrix(1 0 -0 1 130.287 121.57)">
		<svg width="189.018036" height="99.0428314">
			<defs />
			<path d="M 7.82899 20.9274 C 7.70533 21.399, 7.51395 21.8573, 7.25485 22.3019, 6.99624 22.747, 6.66745 23.1523, 6.268 23.5184, 5.90683 23.8433, 5.50787 24.1092, 5.07113 24.3158, 4.63439 24.5224, 4.19764 24.6255, 3.7609 24.6255, 3.35655 24.6255, 3.01598 24.5185, 2.73823 24.3041, 2.46049 24.0896, 2.28137 23.8958, 2.2004 23.7225 L 1.27048 27.3264 C 1.2219 27.5306, 1.12081 27.6827, 0.967217 27.7818, 0.813621 27.8814, 0.656099 27.931, 0.494161 27.931, 0.338111 27.931, 0.20856 27.876, 0.105508 27.7661, 0.0358256 27.6984, 0.000493526 27.5988, 0.000493526 27.4677, 0.000493526 27.4206, 0.0058915 27.3632, 0.0166874 27.295 L 1.65865 20.896 C 1.7882 20.4254, 1.97663 19.9675, 2.22445 19.5225, 2.47275 19.0779, 2.7932 18.6691, 3.18676 18.2971, 3.53222 17.9732, 3.91744 17.7063, 4.34339 17.4967, 4.76934 17.2877, 5.19823 17.1827, 5.62908 17.1822, 6.07662 17.1827, 6.4692 17.2887, 6.80583 17.5007, 7.14296 17.7127, 7.40844 17.9781, 7.60228 18.2971, 7.82899 18.6745, 7.95609 19.0906, 7.98259 19.5455 L 7.98259 19.7497 C 7.98259 20.1324, 7.93155 20.525, 7.82899 20.9274 Z M 6.5433 18.5719 C 6.45693 18.3109, 6.33327 18.1013, 6.17133 17.9443, 6.00939 17.7873, 5.79642 17.7087, 5.53241 17.7083, 5.263 17.7087, 4.99212 17.7912, 4.71977 17.9561, 4.44742 18.1209, 4.20353 18.3344, 3.98761 18.5955, 3.70741 18.936, 3.48757 19.3041, 3.32857 19.6991, 3.16958 20.0946, 3.0361 20.5039, 2.92814 20.9274 L 2.46736 22.694 C 2.48895 22.7784, 2.51054 22.8672, 2.53213 22.9614, 2.55372 23.0557, 2.58317 23.1445, 2.62095 23.2279, 2.73971 23.485, 2.89968 23.6956, 3.10186 23.8604, 3.30404 24.0253, 3.55087 24.1078, 3.84187 24.1073, 4.11177 24.1078, 4.37332 24.0243, 4.62654 23.8565, 4.87975 23.6892, 5.11431 23.4796, 5.33023 23.2279, 5.61043 22.8775, 5.82194 22.5051, 5.96474 22.1095, 6.10803 21.7145, 6.23316 21.3102, 6.34112 20.896, 6.44908 20.4671, 6.5379 20.0485, 6.60758 19.6397, 6.62917 19.4935, 6.63997 19.3551, 6.63997 19.2236, 6.63997 18.9939, 6.60807 18.7766, 6.5433 18.5719 Z" stroke="none" fill="#000000" />
			<polyline points="-5.628 -1.6884 5.628 -1.6884" fill="none" stroke="#000000" stroke-width="0.64319998" stroke-linecap="round" stroke-linejoin="round" transform="matrix(1 0 0 1 18.2733 19.6148)" />
			<polyline points="-5.628 1.6884 5.628 1.6884" fill="none" stroke="#000000" stroke-width="0.64319998" stroke-linecap="round" stroke-linejoin="round" transform="matrix(1 0 0 1 18.2733 19.6148)" />
			<polyline points="30.4137 19.6148 47.1828 19.6148" fill="none" stroke="#000000" stroke-width="0.64319998" stroke-linecap="round" stroke-linejoin="round" />
			<path d="M 41.6905 14.3717 C 40.7185 14.3409, 39.7726 14.3255, 38.8531 14.3255, 37.9341 14.3255, 36.9881 14.3409, 36.0157 14.3717 L 36.0157 13.7099, 36.563 13.7099 C 36.7371 13.7104, 36.9011 13.708, 37.054 13.7027, 37.2074 13.6979, 37.3527 13.6849, 37.4902 13.6642, 37.6277 13.644, 37.7465 13.6234, 37.8466 13.6022, 37.9312 13.5873, 38.0014 13.5402, 38.0567 13.4603, 38.1125 13.381, 38.1399 13.2925, 38.1399 13.1944 L 38.1399 4.52265 C 37.8759 4.65154, 37.5508 4.74916, 37.1651 4.81553, 36.7794 4.88237, 36.3567 4.91556, 35.897 4.91508 L 35.897 4.26104 C 36.5313 4.26152, 37.1165 4.18602, 37.6527 4.03453, 38.189 3.88353, 38.6526 3.59979, 39.0435 3.18381 L 39.2893 3.18381 C 39.4634 3.18429, 39.5504 3.26893, 39.5504 3.43773 L 39.5504 13.1944 C 39.5504 13.2973, 39.5769 13.3872, 39.6298 13.4642, 39.6827 13.5411, 39.7596 13.5873, 39.8596 13.6022, 39.9443 13.6234, 40.053 13.644, 40.1847 13.6642, 40.317 13.6849, 40.4661 13.6979, 40.6325 13.7027, 40.7989 13.708, 40.9614 13.7104, 41.1196 13.7099 L 41.6905 13.7099, 41.6905 14.3717 Z" stroke="none" fill="#000000" />
			<path d="M 45.4456 23.7123 C 45.4294 23.781, 45.3931 23.8385, 45.3361 23.8856, 45.2797 23.9327, 45.2135 23.9562, 45.1379 23.9557, 44.9657 23.9562, 44.7944 23.9813, 44.6246 24.0308, 44.4548 24.0809, 44.2786 24.1501, 44.0951 24.2384, 43.8684 24.3434, 43.6461 24.4666, 43.4277 24.6079, 43.2098 24.7492, 42.99 24.9117, 42.7687 25.0942 L 39.55 27.6931, 41.4987 32.7338 C 41.5743 32.9281, 41.6498 33.1111, 41.7254 33.2839, 41.801 33.4566, 41.8873 33.5798, 41.984 33.6524, 42.0596 33.7157, 42.1661 33.7564, 42.3035 33.7746, 42.4409 33.7933, 42.6014 33.8021, 42.7849 33.8016, 42.9252 33.8021, 42.9949 33.8703, 42.9949 34.0057 L 42.9949 34.0764, 42.9625 34.2177 C 42.9036 34.3748, 42.7986 34.4533, 42.6475 34.4533, 42.1837 34.4219, 41.7254 34.4062, 41.2725 34.4062 L 40.9246 34.4062 C 40.3534 34.417, 39.7684 34.4327, 39.1697 34.4533, 39.0191 34.4533, 38.9435 34.3856, 38.9435 34.2491 L 38.9435 34.1785, 38.9921 34.045 C 39.0245 33.8781, 39.1241 33.7967, 39.2909 33.8016, 39.4853 33.8021, 39.6418 33.7918, 39.7606 33.7707, 39.8793 33.7501, 39.9706 33.7, 40.0354 33.621, 40.0893 33.5587, 40.1158 33.488, 40.1158 33.409 L 40.1158 33.3619 C 40.105 33.2682, 40.0702 33.1372, 40.0108 32.9693 L 38.3448 28.6745, 36.1454 30.4333, 35.4093 33.3148 C 35.3769 33.4306, 35.3607 33.5219, 35.3607 33.5896, 35.3607 33.6529, 35.3745 33.6922, 35.4015 33.7074, 35.477 33.755, 35.6252 33.7825, 35.8461 33.7903, 36.0674 33.7982, 36.3044 33.8021, 36.5576 33.8016, 36.7088 33.8021, 36.7843 33.8649, 36.7843 33.99, 36.7843 34.0219, 36.7789 34.0558, 36.7681 34.0921 L 36.7357 34.2099 C 36.7034 34.3728, 36.5983 34.4533, 36.4202 34.4533, 35.7464 34.4219, 35.0673 34.4062, 34.3822 34.4062, 33.7085 34.4062, 33.0264 34.4219, 32.3364 34.4533, 32.2554 34.4533, 32.1961 34.4297, 32.1583 34.3826, 32.121 34.3463, 32.1023 34.307, 32.1018 34.2648, 32.1023 34.2339, 32.1077 34.2025, 32.118 34.1706 L 32.1504 34.0528 C 32.1666 33.9851, 32.2044 33.9267, 32.2638 33.8767, 32.3232 33.8271, 32.3904 33.8021, 32.4655 33.8016, 32.7192 33.8021, 32.9567 33.7982, 33.1775 33.7903, 33.3983 33.7825, 33.5657 33.755, 33.6785 33.7074, 33.7757 33.6554, 33.8513 33.514, 33.9053 33.2834 L 36.194 24.4347 C 36.2156 24.3356, 36.2264 24.257, 36.2264 24.1991, 36.2264 24.1211, 36.2102 24.0715, 36.1778 24.05, 36.1076 24.0087, 35.9619 23.9827, 35.741 23.9719, 35.5202 23.9616, 35.2827 23.9562, 35.029 23.9557, 34.9485 23.9562, 34.8892 23.9302, 34.8514 23.8772, 34.819 23.8463, 34.8028 23.807, 34.8028 23.7594, 34.8028 23.7285, 34.8111 23.6996, 34.8268 23.6731 L 34.8514 23.5475 C 34.9107 23.3909, 35.0158 23.3124, 35.1669 23.3119, 35.8412 23.3335, 36.5203 23.3438, 37.2049 23.3433, 37.8899 23.3438, 38.5745 23.3335, 39.259 23.3119, 39.4102 23.3124, 39.4853 23.3831, 39.4853 23.5239 L 39.4853 23.5867, 39.4367 23.7202 C 39.4043 23.8777, 39.3047 23.9562, 39.1373 23.9557, 38.8841 23.9562, 38.6447 23.9616, 38.4179 23.9719, 38.1912 23.9827, 38.0268 24.0102, 37.9243 24.0544, 37.8222 24.099, 37.7412 24.2364, 37.6819 24.4661 L 36.3962 29.4675, 42.2917 24.7095 C 42.4051 24.6369, 42.4831 24.5451, 42.5258 24.4347, 42.5641 24.367, 42.5827 24.3095, 42.5827 24.2619, 42.5827 24.2413, 42.5773 24.2232, 42.5665 24.207, 42.5395 24.0401, 42.3967 23.9562, 42.1376 23.9557, 41.987 23.9562, 41.9114 23.8856, 41.9114 23.7437 L 41.9114 23.6809, 41.96 23.5475 C 41.9924 23.3909, 42.0895 23.3124, 42.251 23.3119, 42.5582 23.3227, 42.8644 23.331, 43.1691 23.336, 43.4739 23.3414, 43.7825 23.3438, 44.0951 23.3433 L 44.6693 23.3433 C 44.8636 23.3438, 45.0604 23.3335, 45.2596 23.3119, 45.3406 23.3124, 45.4078 23.3384, 45.4618 23.3904, 45.4834 23.4326, 45.4942 23.4719, 45.4942 23.5082, 45.4942 23.5401, 45.4863 23.569, 45.4696 23.5946 Z" stroke="none" fill="#000000" />
			<rect />
		</svg>
	</g>
	<ellipse cx="1128.7508058547974" cy="457.24580097198486" rx="6.3000001907348633" ry="6.3000001907348633" stroke="none" fill="#000000" transform="matrix(0.416667 0 0 0.416667 -318.75 -90.4167)" />
	<path d="M -61.3849 -62.3637 L 61.3846 62.364" fill="none" stroke="#000000" stroke-width="2.4000001" stroke-linecap="round" stroke-linejoin="round" transform="matrix(0.416667 0 0 0.416667 177.308 126.016)" />
	<path d="M -5.71106 5.62164 L 5.7113 -5.62152" fill="none" stroke="#000000" stroke-width="2.4000001" stroke-linecap="round" stroke-linejoin="round" transform="matrix(0.416667 0 0 0.416667 195.826 149.827)" />
	<path d="M -5.71106 -5.80237 L 5.7113 5.80219" fill="none" stroke="#000000" stroke-width="2.4000001" stroke-linecap="round" stroke-linejoin="round" transform="matrix(0.416667 0 0 0.416667 195.826 154.587)" />
	<g transform="matrix(1 0 -0 1 129.8 88.824)">
		<svg width="44.9376793" height="45.0428467">
			<defs />
			<path d="M 13.6778 10.4854 C 13.4643 11.3104, 13.1265 12.1074, 12.6639 12.8768, 12.2013 13.6463, 11.6214 14.3453, 10.9235 14.9739, 10.288 15.5424, 9.59012 15.9959, 8.82925 16.3348, 8.06838 16.6737, 7.30752 16.8426, 6.54608 16.8426 L 0.273665 16.8426 C 0.104202 16.8426, 0.0131732 16.7636, 5.44265e-006 16.6044 L 5.44265e-006 16.5311, 0.0377911 16.3754 C 0.0881719 16.1745, 0.210689 16.0766, 0.405342 16.0823, 0.70133 16.0829, 0.981287 16.0783, 1.24521 16.0691, 1.50971 16.06, 1.70437 16.0279, 1.82975 15.9724, 1.9494 15.906, 2.04043 15.7411, 2.10341 15.4777 L 4.75413 5.15423 C 4.79191 5.02027, 4.8108 4.91664, 4.8108 4.84279, 4.8108 4.77008, 4.79535 4.72714, 4.76329 4.71455, 4.67569 4.66016, 4.50451 4.62695, 4.24974 4.61436, 3.99498 4.60234, 3.71674 4.59604, 3.41445 4.59547, 3.23869 4.59604, 3.15053 4.5136, 3.15053 4.34814 L 3.15053 4.27486, 3.20721 4.11914 C 3.24499 3.93651, 3.36121 3.84491, 3.55586 3.84433 L 9.84774 3.84433 C 10.6275 3.84491, 11.3071 4.02525, 11.8853 4.38535, 12.4641 4.74604, 12.9296 5.21893, 13.2817 5.80461, 13.6589 6.46471, 13.8725 7.19752, 13.9229 8.00304, 13.9355 8.1748, 13.9418 8.33338, 13.9418 8.47937, 13.9418 9.13318, 13.8542 9.80187, 13.6778 10.4854 Z M 11.8573 6.22597 C 11.6437 5.71988, 11.3088 5.32141, 10.8525 5.03115, 10.3968 4.74146, 9.86378 4.59604, 9.25348 4.59547 L 7.22565 4.59547 C 6.90505 4.59604, 6.71325 4.62066, 6.65028 4.66932, 6.5873 4.71856, 6.52146 4.89203, 6.45219 5.19088 L 3.78258 15.5144 C 3.7322 15.7228, 3.70701 15.8722, 3.70701 15.9632 L 3.70701 16.0365 C 3.7322 16.0617, 3.8988 16.0766, 4.20681 16.0823 L 6.23521 16.0823 C 6.85123 16.0829, 7.4661 15.9443, 8.07926 15.6661, 8.69242 15.3884, 9.24088 15.002, 9.72523 14.5068, 10.2788 13.9331, 10.7036 13.2936, 10.9991 12.5883, 11.2945 11.8829, 11.5304 11.1702, 11.7061 10.4488, 11.9013 9.69825, 12.0364 8.95627, 12.112 8.22289, 12.1246 8.05228, 12.1309 7.8874, 12.1309 7.72824, 12.1309 7.19123, 12.0399 6.69085, 11.8573 6.22597 Z" stroke="none" fill="#000000" />
			<rect />
		</svg>
	</g>
</svg>
