<?xml version="1.0"?>
<svg xmlns="http://www.w3.org/2000/svg" xmlns:xlink="http://www.w3.org/1999/xlink" width="478.261261" height="234.83963">
	<defs>
		<marker id="CustomMarker-01" markerUnits="strokeWidth" markerWidth="15.000001" markerHeight="9" viewBox="-15 -4.5 15 9" orient="auto-start-reverse">
			<path d="M 0 -0 L -10 -3, -8 -0.5, -8 0.5, -10 3 Z" fill="#000000" stroke="#000000" stroke-linejoin="round" />
		</marker>
		<marker id="CustomMarker-02" markerUnits="strokeWidth" markerWidth="15.000001" markerHeight="9" viewBox="-15 -4.5 15 9" orient="auto-start-reverse">
			<path d="M 0 -0 L -10 -3, -8 -0.5, -8 0.5, -10 3 Z" fill="#000000" stroke="#000000" stroke-linejoin="round" />
		</marker>
		<marker id="CustomMarker-03" markerUnits="strokeWidth" markerWidth="15.000001" markerHeight="9" viewBox="-15 -4.5 15 9" orient="auto-start-reverse">
			<path d="M 0 -0 L -10 -3, -8 -0.5, -8 0.5, -10 3 Z" fill="#000000" stroke="#000000" stroke-linejoin="round" />
		</marker>
		<marker id="CustomMarker-04" markerUnits="strokeWidth" markerWidth="15.000001" markerHeight="9" viewBox="-15 -4.5 15 9" orient="auto-start-reverse">
			<path d="M 0 -0 L -10 -3, -8 -0.5, -8 0.5, -10 3 Z" fill="#000000" stroke="#000000" stroke-linejoin="round" />
		</marker>
		<marker id="CustomMarker-05" markerUnits="strokeWidth" markerWidth="15.000001" markerHeight="9" viewBox="-15 -4.5 15 9" orient="auto-start-reverse">
			<path d="M 0 -0 L -10 -3, -8 -0.5, -8 0.5, -10 3 Z" fill="#000000" stroke="#000000" stroke-linejoin="round" />
		</marker>
	</defs>
	<path d="M -216.359 167.125 C -114.859 51.625, 116.142 -167.125, 216.359 20.5917" fill="none" stroke="#000000" stroke-width="4.66666651" stroke-linecap="round" stroke-linejoin="round" transform="matrix(0.357143 0 -0 0.357143 86.1045 123.894)" />
	<path d="M -235.375 -96.8917 C -232.341 114.392, 196.408 133.642, 235.375 -133.642" fill="none" stroke="#000000" stroke-width="4.66666651" stroke-linecap="round" stroke-linejoin="round" transform="matrix(0.357143 0 -0 0.357143 369.185 73.7417)" />
	<path d="M -89.7873 -34.8597 C -75.7871 50.8899, 85.2141 61.3898, 89.7873 -61.3898" fill="none" stroke="#000000" stroke-width="4.66666651" stroke-linecap="round" stroke-linejoin="round" transform="matrix(0.357143 0 -0 0.357143 378.898 129.48)" />
	<path d="M -203.262 240.818 L 203.262 -240.818" fill="none" stroke="#000000" stroke-width="2.79999995" stroke-linecap="round" stroke-linejoin="round" marker-end="url(#CustomMarker-01)" transform="matrix(0.357143 0 0 0.357143 81.427 97.5747)" />
	<path d="M -203.555 109.458 L 203.554 -109.458" fill="none" stroke="#000000" stroke-width="2.79999995" stroke-linecap="round" stroke-linejoin="round" marker-end="url(#CustomMarker-02)" transform="matrix(0.357143 0 0 0.357143 120.358 98.5552)" />
	<path d="M -122.905 -135.515 L 122.905 135.515" fill="none" stroke="#000000" stroke-width="2.79999995" stroke-linecap="round" stroke-linejoin="round" marker-end="url(#CustomMarker-03)" transform="matrix(0.357143 0 0 0.357143 175.164 141.086)" />
	<ellipse cx="502.7357120513916" cy="700.83303260803223" rx="7.3500003814697266" ry="7.3500003814697266" stroke="none" fill="#000000" transform="matrix(0.357143 0 0 0.357143 -164.084 -74.3659)" />
	<ellipse cx="716.13833045959473" cy="527.35744667053223" rx="7.3500003814697266" ry="7.3500003814697266" stroke="none" fill="#000000" transform="matrix(0.357143 0 0 0.357143 -164.084 -74.3659)" />
	<ellipse cx="890.69228553771973" cy="537.99074745178223" rx="7.3500003814697266" ry="7.3500003814697266" stroke="none" fill="#000000" transform="matrix(0.357143 0 0 0.357143 -164.084 -74.3659)" />
	<g transform="matrix(1 0 -0 1 22.7739 171.802)">
		<svg width="62.9477272" height="45.0428467">
			<defs />
			<path d="M 15.6266 3.69557 C 15.5947 3.85849, 15.4951 3.93946, 15.3277 3.93897, 15.0745 3.93946, 14.8346 3.94486, 14.6078 3.95516, 14.3816 3.96596, 14.2172 3.99344, 14.1147 4.0376, 14.0126 4.08226, 13.9316 4.21966, 13.8718 4.44932 L 11.5992 13.298 C 11.5668 13.4138, 11.5506 13.5051, 11.5506 13.5728, 11.5506 13.6361, 11.5668 13.6754, 11.5992 13.6906, 11.6748 13.7382, 11.822 13.7657, 12.0404 13.7735, 12.2587 13.7814, 12.4948 13.7853, 12.748 13.7848, 12.8991 13.7853, 12.9742 13.8481, 12.9742 13.9733, 12.9742 14.0052, 12.9688 14.039, 12.958 14.0753 L 12.9256 14.1931 C 12.9099 14.2618, 12.8736 14.3192, 12.8167 14.3658, 12.7603 14.413, 12.694 14.4365, 12.6184 14.4365, 11.9771 14.4051, 11.3249 14.3894, 10.6614 14.3894, 9.99848 14.3894, 9.33011 14.4051, 8.65586 14.4365, 8.51552 14.4365, 8.44534 14.3688, 8.44534 14.2324 L 8.44534 14.1696, 8.47773 14.0361 C 8.52091 13.8638, 8.62642 13.7799, 8.79326 13.7848, 9.04648 13.7853, 9.28399 13.7814, 9.50481 13.7735, 9.72613 13.7657, 9.89052 13.7382, 9.99799 13.6906, 10.0952 13.6386, 10.1737 13.4973, 10.2326 13.2666 L 12.5051 4.49643, 6.49619 14.2167 C 6.41571 14.3634, 6.29156 14.4365, 6.12422 14.4365 L 6.04375 14.4365 C 5.8769 14.4365, 5.77679 14.3531, 5.7444 14.1853 L 4.7659 4.5828, 2.63911 12.8662 C 2.60672 12.9609, 2.59053 13.0605, 2.59053 13.1646, 2.59053 13.1911, 2.59593 13.22, 2.60672 13.2509, 2.61752 13.377, 2.6607 13.4767, 2.73578 13.5493, 2.83295 13.644, 2.9625 13.7068, 3.12444 13.7382, 3.28638 13.7696, 3.46942 13.7853, 3.67405 13.7848, 3.82519 13.7853, 3.90027 13.8481, 3.90027 13.9733, 3.90027 14.0052, 3.89487 14.039, 3.88408 14.0753 L 3.85218 14.1931 C 3.83598 14.2618, 3.79967 14.3192, 3.74275 14.3658, 3.68631 14.413, 3.61761 14.4365, 3.53664 14.4365, 2.99783 14.4051, 2.45313 14.3894, 1.90303 14.3894, 1.35342 14.3894, 0.795467 14.4051, 0.229174 14.4365, 0.148204 14.4365, 0.0888269 14.413, 0.0510413 14.3658, 0.0137464 14.3295, -0.00539182 14.2903, -0.00539182 14.2481, -0.00539182 14.2172, 6.1281e-006 14.1857, 0.010802 14.1539 L 0.042699 14.0361 C 0.0858826 13.8638, 0.191388 13.7799, 0.358234 13.7848, 0.563356 13.7853, 0.75621 13.7696, 0.936796 13.7382, 1.11738 13.7068, 1.28619 13.6415, 1.44224 13.5414, 1.56639 13.4634, 1.66748 13.3604, 1.74551 13.2318, 1.82353 13.1037, 1.88144 12.9663, 1.91922 12.8191 L 4.08625 4.41791 C 4.11864 4.30309, 4.13483 4.21426, 4.13483 4.15096, 4.13483 4.08864, 4.12159 4.05184, 4.0946 4.04104, 4.01902 3.99442, 3.8723 3.96596, 3.65393 3.95516, 3.43556 3.94486, 3.19952 3.93946, 2.9463 3.93897, 2.80105 3.93946, 2.72254 3.8688, 2.71174 3.72698 L 2.71174 3.67202, 2.74413 3.53069 C 2.8035 3.37415, 2.90852 3.29563, 3.05917 3.29514 L 5.67963 3.29514 C 5.85236 3.29563, 5.94904 3.37955, 5.97063 3.54639 L 6.8927 12.5207, 12.4565 3.51499 C 12.5375 3.36875, 12.6616 3.29563, 12.8285 3.29514 L 15.4489 3.29514 C 15.5245 3.29563, 15.5893 3.32164, 15.6428 3.37366, 15.6644 3.41586, 15.6752 3.45512, 15.6752 3.49143, 15.6752 3.52333, 15.6673 3.55228, 15.6511 3.5778 Z" stroke="none" fill="#000000" />
			<path d="M 2.03372 2.7404 C 1.47834 2.72281, 0.938069 2.71402, 0.412642 2.71402, -0.112509 2.71402, -0.652775 2.72281, -1.20816 2.7404 L -1.20816 2.36227, -0.895703 2.36227 C -0.796223 2.36254, -0.702515 2.36117, -0.615127 2.35814, -0.527464 2.3554, -0.444473 2.34798, -0.365879 2.33616, -0.287285 2.32462, -0.219408 2.3128, -0.162249 2.30071, -0.113883 2.29219, -0.0740366 2.26526, -0.042434 2.21964, -0.0105567 2.1743, 0.00510716 2.12374, 0.00510716 2.06768 L 0.00510716 -2.8876 C -0.145486 -2.81396, -0.331254 -2.75817, -0.551647 -2.72025, -0.77204 -2.68205, -1.01332 -2.66309, -1.27603 -2.66336 L -1.27603 -3.0371 C -0.91384 -3.03682, -0.579402 -3.07997, -0.272995 -3.16653, 0.033412 -3.25282, 0.298324 -3.41495, 0.521465 -3.65266 L 0.66189 -3.65266 C 0.76137 -3.65238, 0.811109 -3.60402, 0.811109 -3.50756 L 0.811109 2.06768 C 0.811109 2.12648, 0.826224 2.17787, 0.856452 2.22184, 0.886681 2.26581, 0.930649 2.29219, 0.987809 2.30071, 1.03617 2.3128, 1.09828 2.32462, 1.17358 2.33616, 1.24887 2.34798, 1.33406 2.3554, 1.42915 2.35814, 1.52423 2.36117, 1.61711 2.36254, 1.7078 2.36227 L 2.03372 2.36227, 2.03372 2.7404 Z" stroke="none" fill="#000000" transform="matrix(1.12 0 0 1 16.9877 13.9768)" />
			<rect />
		</svg>
	</g>
	<g transform="matrix(1 0 -0 1 85.559 119.96)">
		<svg width="62.9477272" height="45.0428467">
			<defs />
			<path d="M 15.6266 3.69557 C 15.5947 3.85849, 15.4951 3.93946, 15.3277 3.93897, 15.0745 3.93946, 14.8346 3.94486, 14.6078 3.95516, 14.3816 3.96596, 14.2172 3.99344, 14.1147 4.0376, 14.0126 4.08226, 13.9316 4.21966, 13.8718 4.44932 L 11.5992 13.298 C 11.5668 13.4138, 11.5506 13.5051, 11.5506 13.5728, 11.5506 13.6361, 11.5668 13.6754, 11.5992 13.6906, 11.6748 13.7382, 11.822 13.7657, 12.0404 13.7735, 12.2587 13.7814, 12.4948 13.7853, 12.748 13.7848, 12.8991 13.7853, 12.9742 13.8481, 12.9742 13.9733, 12.9742 14.0052, 12.9688 14.039, 12.958 14.0753 L 12.9256 14.1931 C 12.9099 14.2618, 12.8736 14.3192, 12.8167 14.3658, 12.7603 14.413, 12.694 14.4365, 12.6184 14.4365, 11.9771 14.4051, 11.3249 14.3894, 10.6614 14.3894, 9.99848 14.3894, 9.33011 14.4051, 8.65586 14.4365, 8.51552 14.4365, 8.44534 14.3688, 8.44534 14.2324 L 8.44534 14.1696, 8.47773 14.0361 C 8.52091 13.8638, 8.62642 13.7799, 8.79326 13.7848, 9.04648 13.7853, 9.28399 13.7814, 9.50481 13.7735, 9.72613 13.7657, 9.89052 13.7382, 9.99799 13.6906, 10.0952 13.6386, 10.1737 13.4973, 10.2326 13.2666 L 12.5051 4.49643, 6.49619 14.2167 C 6.41571 14.3634, 6.29156 14.4365, 6.12422 14.4365 L 6.04375 14.4365 C 5.8769 14.4365, 5.77679 14.3531, 5.7444 14.1853 L 4.7659 4.5828, 2.63911 12.8662 C 2.60672 12.9609, 2.59053 13.0605, 2.59053 13.1646, 2.59053 13.1911, 2.59593 13.22, 2.60672 13.2509, 2.61752 13.377, 2.6607 13.4767, 2.73578 13.5493, 2.83295 13.644, 2.9625 13.7068, 3.12444 13.7382, 3.28638 13.7696, 3.46942 13.7853, 3.67405 13.7848, 3.82519 13.7853, 3.90027 13.8481, 3.90027 13.9733, 3.90027 14.0052, 3.89487 14.039, 3.88408 14.0753 L 3.85218 14.1931 C 3.83598 14.2618, 3.79967 14.3192, 3.74275 14.3658, 3.68631 14.413, 3.61761 14.4365, 3.53664 14.4365, 2.99783 14.4051, 2.45313 14.3894, 1.90303 14.3894, 1.35342 14.3894, 0.795467 14.4051, 0.229174 14.4365, 0.148204 14.4365, 0.0888269 14.413, 0.0510413 14.3658, 0.0137464 14.3295, -0.00539182 14.2903, -0.00539182 14.2481, -0.00539182 14.2172, 6.1281e-006 14.1857, 0.010802 14.1539 L 0.042699 14.0361 C 0.0858826 13.8638, 0.191388 13.7799, 0.358234 13.7848, 0.563356 13.7853, 0.75621 13.7696, 0.936796 13.7382, 1.11738 13.7068, 1.28619 13.6415, 1.44224 13.5414, 1.56639 13.4634, 1.66748 13.3604, 1.74551 13.2318, 1.82353 13.1037, 1.88144 12.9663, 1.91922 12.8191 L 4.08625 4.41791 C 4.11864 4.30309, 4.13483 4.21426, 4.13483 4.15096, 4.13483 4.08864, 4.12159 4.05184, 4.0946 4.04104, 4.01902 3.99442, 3.8723 3.96596, 3.65393 3.95516, 3.43556 3.94486, 3.19952 3.93946, 2.9463 3.93897, 2.80105 3.93946, 2.72254 3.8688, 2.71174 3.72698 L 2.71174 3.67202, 2.74413 3.53069 C 2.8035 3.37415, 2.90852 3.29563, 3.05917 3.29514 L 5.67963 3.29514 C 5.85236 3.29563, 5.94904 3.37955, 5.97063 3.54639 L 6.8927 12.5207, 12.4565 3.51499 C 12.5375 3.36875, 12.6616 3.29563, 12.8285 3.29514 L 15.4489 3.29514 C 15.5245 3.29563, 15.5893 3.32164, 15.6428 3.37366, 15.6644 3.41586, 15.6752 3.45512, 15.6752 3.49143, 15.6752 3.52333, 15.6673 3.55228, 15.6511 3.5778 Z" stroke="none" fill="#000000" />
			<path d="M 2.04975 2.7404 L -1.63593 2.7404, -1.63593 2.49857 C -1.63593 2.48126, -1.62686 2.45487, -1.60872 2.41943 L -0.128074 0.810169 C 0.0472517 0.616981, 0.224501 0.419122, 0.404223 0.216866, 0.583945 0.0146096, 0.744431 -0.192044, 0.88623 -0.403094, 1.02803 -0.614144, 1.14125 -0.831789, 1.22589 -1.05603, 1.31053 -1.28027, 1.35257 -1.5155, 1.35257 -1.762, 1.35257 -1.96976, 1.32564 -2.16404, 1.27123 -2.34431, 1.21682 -2.52459, 1.1385 -2.68287, 1.03572 -2.81918, 0.932947 -2.95548, 0.804614 -3.0654, 0.650723 -3.14894, 0.496832 -3.23248, 0.318759 -3.27425, 0.116503 -3.27453, -0.185233 -3.27425, -0.451793 -3.18412, -0.682629 -3.00385, -0.913465 -2.82357, -1.06681 -2.62489, -1.14238 -2.40834, -1.15722 -2.4023, -1.13303 -2.39928, -1.06983 -2.39955 L -0.992884 -2.39955 C -0.902198 -2.37866, -0.823879 -2.34706, -0.757376 -2.30474, -0.690874 -2.26215, -0.635088 -2.20361, -0.589745 -2.12887, -0.544403 -2.05412, -0.521869 -1.96398, -0.521869 -1.85873, -0.521869 -1.68258, -0.579028 -1.54766, -0.693896 -1.45395, -0.808765 -1.35996, -0.937099 -1.31325, -1.0789 -1.31352, -1.21465 -1.31325, -1.34134 -1.35996, -1.45923 -1.45395, -1.57684 -1.54766, -1.63593 -1.68258, -1.63593 -1.85873, -1.63593 -2.10468, -1.58756 -2.33772, -1.49083 -2.55756, -1.3941 -2.77741, -1.26302 -2.96785, -1.09703 -3.12916, -0.931053 -3.29019, -0.734842 -3.4177, -0.508403 -3.51168, -0.281964 -3.60539, -0.041785 -3.65238, 0.211585 -3.65266, 0.525412 -3.65238, 0.813133 -3.60622, 1.0742 -3.51388, 1.33526 -3.42155, 1.55785 -3.28882, 1.74197 -3.11597, 1.92609 -2.94284, 2.07036 -2.74278, 2.17451 -2.51579, 2.27867 -2.28853, 2.3306 -2.03736, 2.3306 -1.762, 2.3306 -1.45697, 2.26135 -1.17612, 2.1223 -0.919726, 1.98353 -0.663059, 1.8115 -0.427826, 1.60622 -0.214028, 1.40094 4.48227e-005, 1.18274 0.201477, 0.951909 0.390542, 0.721073 0.579608, 0.511946 0.763452, 0.324805 0.942075 L -0.716705 1.92258, 0.646326 1.92258 C 0.836491 1.92285, 1.01401 1.92148, 1.17835 1.91846, 1.34296 1.91571, 1.48256 1.90966, 1.59715 1.90087, 1.71202 1.89208, 1.77083 1.8863, 1.77357 1.88301, 1.79776 1.86267, 1.82057 1.82173, 1.84173 1.76017, 1.86289 1.69861, 1.8824 1.62606, 1.90053 1.54252, 1.91867 1.45898, 1.93681 1.37407, 1.95495 1.2875, 1.97308 1.20122, 1.98957 1.10641, 2.00469 1.00363 L 2.33967 1.00363 Z" stroke="none" fill="#000000" transform="matrix(1.12 0 0 1 17.3502 13.9768)" />
			<rect />
		</svg>
	</g>
	<g transform="matrix(1 0 -0 1 130.407 119.96)">
		<svg width="66.0351563" height="45.0428467">
			<defs />
			<path d="M 15.6266 3.69557 C 15.5947 3.85849, 15.4951 3.93946, 15.3277 3.93897, 15.0745 3.93946, 14.8346 3.94486, 14.6078 3.95516, 14.3816 3.96596, 14.2172 3.99344, 14.1147 4.0376, 14.0126 4.08226, 13.9316 4.21966, 13.8718 4.44932 L 11.5992 13.298 C 11.5668 13.4138, 11.5506 13.5051, 11.5506 13.5728, 11.5506 13.6361, 11.5668 13.6754, 11.5992 13.6906, 11.6748 13.7382, 11.822 13.7657, 12.0404 13.7735, 12.2587 13.7814, 12.4948 13.7853, 12.748 13.7848, 12.8991 13.7853, 12.9742 13.8481, 12.9742 13.9733, 12.9742 14.0052, 12.9688 14.039, 12.958 14.0753 L 12.9256 14.1931 C 12.9099 14.2618, 12.8736 14.3192, 12.8167 14.3658, 12.7603 14.413, 12.694 14.4365, 12.6184 14.4365, 11.9771 14.4051, 11.3249 14.3894, 10.6614 14.3894, 9.99848 14.3894, 9.33011 14.4051, 8.65586 14.4365, 8.51552 14.4365, 8.44534 14.3688, 8.44534 14.2324 L 8.44534 14.1696, 8.47773 14.0361 C 8.52091 13.8638, 8.62642 13.7799, 8.79326 13.7848, 9.04648 13.7853, 9.28399 13.7814, 9.50481 13.7735, 9.72613 13.7657, 9.89052 13.7382, 9.99799 13.6906, 10.0952 13.6386, 10.1737 13.4973, 10.2326 13.2666 L 12.5051 4.49643, 6.49619 14.2167 C 6.41571 14.3634, 6.29156 14.4365, 6.12422 14.4365 L 6.04375 14.4365 C 5.8769 14.4365, 5.77679 14.3531, 5.7444 14.1853 L 4.7659 4.5828, 2.63911 12.8662 C 2.60672 12.9609, 2.59053 13.0605, 2.59053 13.1646, 2.59053 13.1911, 2.59593 13.22, 2.60672 13.2509, 2.61752 13.377, 2.6607 13.4767, 2.73578 13.5493, 2.83295 13.644, 2.9625 13.7068, 3.12444 13.7382, 3.28638 13.7696, 3.46942 13.7853, 3.67405 13.7848, 3.82519 13.7853, 3.90027 13.8481, 3.90027 13.9733, 3.90027 14.0052, 3.89487 14.039, 3.88408 14.0753 L 3.85218 14.1931 C 3.83598 14.2618, 3.79967 14.3192, 3.74275 14.3658, 3.68631 14.413, 3.61761 14.4365, 3.53664 14.4365, 2.99783 14.4051, 2.45313 14.3894, 1.90303 14.3894, 1.35342 14.3894, 0.795467 14.4051, 0.229174 14.4365, 0.148204 14.4365, 0.0888269 14.413, 0.0510413 14.3658, 0.0137464 14.3295, -0.00539182 14.2903, -0.00539182 14.2481, -0.00539182 14.2172, 6.1281e-006 14.1857, 0.010802 14.1539 L 0.042699 14.0361 C 0.0858826 13.8638, 0.191388 13.7799, 0.358234 13.7848, 0.563356 13.7853, 0.75621 13.7696, 0.936796 13.7382, 1.11738 13.7068, 1.28619 13.6415, 1.44224 13.5414, 1.56639 13.4634, 1.66748 13.3604, 1.74551 13.2318, 1.82353 13.1037, 1.88144 12.9663, 1.91922 12.8191 L 4.08625 4.41791 C 4.11864 4.30309, 4.13483 4.21426, 4.13483 4.15096, 4.13483 4.08864, 4.12159 4.05184, 4.0946 4.04104, 4.01902 3.99442, 3.8723 3.96596, 3.65393 3.95516, 3.43556 3.94486, 3.19952 3.93946, 2.9463 3.93897, 2.80105 3.93946, 2.72254 3.8688, 2.71174 3.72698 L 2.71174 3.67202, 2.74413 3.53069 C 2.8035 3.37415, 2.90852 3.29563, 3.05917 3.29514 L 5.67963 3.29514 C 5.85236 3.29563, 5.94904 3.37955, 5.97063 3.54639 L 6.8927 12.5207, 12.4565 3.51499 C 12.5375 3.36875, 12.6616 3.29563, 12.8285 3.29514 L 15.4489 3.29514 C 15.5245 3.29563, 15.5893 3.32164, 15.6428 3.37366, 15.6644 3.41586, 15.6752 3.45512, 15.6752 3.49143, 15.6752 3.52333, 15.6673 3.55228, 15.6511 3.5778 Z" stroke="none" fill="#000000" />
			<path d="M 2.41655 1.08278 C 2.41655 1.33505, 2.36077 1.57715, 2.2492 1.80853, 2.13763 2.04019, 1.98813 2.23805, 1.80072 2.40184, 1.58967 2.58678, 1.35636 2.72363, 1.10134 2.81295, 0.846319 2.90253, 0.579759 2.94705, 0.301931 2.94705, 0.051584 2.94705, -0.192717 2.91188, -0.431248 2.84153, -0.669778 2.77118, -0.884675 2.67032, -1.07649 2.53842, -1.2683 2.40651, -1.42137 2.24465, -1.53624 2.05256, -1.65083 1.86075, -1.70827 1.64008, -1.70827 1.39056, -1.70827 1.20314, -1.64561 1.06326, -1.5203 0.97093, -1.39499 0.878595, -1.26308 0.832428, -1.12431 0.832154, -0.979208 0.832428, -0.844279 0.878595, -0.718968 0.97093, -0.593657 1.06326, -0.531002 1.20314, -0.531002 1.39056, -0.531002 1.50213, -0.552711 1.59529, -0.59668 1.67003, -0.640374 1.74478, -0.696159 1.80716, -0.764311 1.8569, -0.832188 1.90691, -0.909958 1.93742, -0.997345 1.94896, -1.04241 1.96105, -1.08473 1.96682, -1.12431 1.96655, -1.16333 1.96682, -1.16937 1.96984, -1.14244 1.97534, -1.04873 2.13967, -0.864615 2.28505, -0.58981 2.41091, -0.315005 2.53704, -0.0179415 2.59997, 0.301931 2.5997, 0.453074 2.59997, 0.594049 2.5626, 0.725405 2.48785, 0.856762 2.4131, 0.966409 2.3128, 1.0538 2.18639, 1.16262 2.02261, 1.23654 1.84673, 1.27556 1.65904, 1.31486 1.47162, 1.33437 1.27954, 1.33437 1.08278, 1.33437 0.880794, 1.31486 0.686782, 1.27556 0.500464, 1.23654 0.314421, 1.16262 0.142119, 1.0538 -0.0164435, 0.963111 -0.145052, 0.852915 -0.249203, 0.723207 -0.328347, 0.593499 -0.40749, 0.453074 -0.447062, 0.301931 -0.447337 L -0.354577 -0.447337 C -0.441965 -0.447062, -0.488682 -0.488008, -0.494728 -0.57045 L -0.494728 -0.618815 C -0.494728 -0.653715, -0.48401 -0.681471, -0.463125 -0.702356, -0.435919 -0.728462, -0.401294 -0.741653, -0.358974 -0.741928, -0.271311 -0.753469, -0.180901 -0.75924, -0.0874671 -0.759515, 0.00321841 -0.75924, 0.09253 -0.765011, 0.179918 -0.777103, 0.342877 -0.788645, 0.484676 -0.838934, 0.605315 -0.92852, 0.726229 -1.01783, 0.827358 -1.13215, 0.9087 -1.27148, 0.990317 -1.41053, 1.05215 -1.57101, 1.09447 -1.75293, 1.13679 -1.93458, 1.15795 -2.1209, 1.15795 -2.31161, 1.15795 -2.45204, 1.14283 -2.58532, 1.1126 -2.71145, 1.08238 -2.83731, 1.02659 -2.94751, 0.944974 -3.04149, 0.775969 -3.23468, 0.561621 -3.33004, 0.301931 -3.32729, 0.0243783 -3.32702, -0.229816 -3.2748, -0.460652 -3.17093, -0.691488 -3.06678, -0.846478 -2.95466, -0.925072 -2.83484, -0.945957 -2.83154, -0.935514 -2.83017, -0.893194 -2.83044, -0.784372 -2.83017, -0.68187 -2.79802, -0.585413 -2.73371, -0.440316 -2.64852, -0.368043 -2.5048, -0.368043 -2.30282, -0.368043 -2.13244, -0.423004 -2.00411, -0.5332 -1.91782, -0.643397 -1.83125, -0.766509 -1.78811, -0.902263 -1.78838, -1.03499 -1.78811, -1.15948 -1.83043, -1.27572 -1.91562, -1.39196 -2.00053, -1.45022 -2.12969, -1.45022 -2.30282, -1.45022 -2.51662, -1.39884 -2.70541, -1.29633 -2.86974, -1.19356 -3.0338, -1.06165 -3.1745, -0.900064 -3.29184, -0.738479 -3.40891, -0.552162 -3.49849, -0.340837 -3.56005, -0.129512 -3.62161, 0.0848355 -3.65238, 0.301931 -3.65266, 0.534416 -3.65238, 0.759481 -3.62161, 0.976851 -3.56005, 1.19422 -3.49849, 1.3995 -3.40314, 1.59241 -3.27453, 1.7496 -3.16296, 1.88151 -3.02583, 1.98868 -2.86315, 2.09586 -2.70046, 2.14944 -2.51662, 2.14944 -2.31161, 2.14944 -2.10606, 2.11262 -1.9126, 2.0387 -1.73095, 1.96477 -1.54903, 1.86667 -1.38497, 1.74438 -1.2385, 1.62209 -1.09175, 1.47645 -0.962871, 1.30744 -0.851575, 1.13844 -0.740004, 1.01148 -0.669929, 0.926837 -0.6408, 0.999385 -0.631731, 1.12332 -0.588312, 1.29837 -0.510817, 1.47342 -0.433047, 1.64078 -0.329721, 1.80072 -0.201112, 1.98813 -0.0395269, 2.13763 0.153111, 2.2492 0.377352, 2.36077 0.601592, 2.41655 0.836825, 2.41655 1.08278 Z" stroke="none" fill="#000000" transform="matrix(1.12 0 0 1 17.4224 13.9768)" />
			<rect />
		</svg>
	</g>
	<path d="M 35.0957 -41.5805 C 40.299 -37.1887, 44.6317 -31.8593, 47.8688 -25.8691" fill="none" stroke="#000000" stroke-width="2.0999999" stroke-linecap="round" stroke-linejoin="round" transform="matrix(0.357143 0 -0 0.357143 47.6598 137.647)" />
	<path d="M 0 0 L 68.8892 -81.6178" fill="none" stroke="#000000" stroke-width="1.39999998" stroke-linecap="round" stroke-linejoin="round" stroke-dasharray="7.707, 3.493, 0.014, 4.186" transform="matrix(0.357143 0 -0 0.357143 47.6598 137.647)" />
	<path d="M 0 0 L 107.193 -57.9285" fill="none" stroke="#000000" stroke-width="1.39999998" stroke-linecap="round" stroke-linejoin="round" stroke-dasharray="7.707, 3.493, 0.014, 4.186" transform="matrix(0.357143 0 -0 0.357143 47.6598 137.647)" />
	<path d="M 27.288 -14.541 C 33.9895 -1.96518, 31.2284 13.562, 20.6023 23.0567" fill="none" stroke="#000000" stroke-width="2.0999999" stroke-linecap="round" stroke-linejoin="round" transform="matrix(0.357143 0 -0 0.357143 131.269 92.6879)" />
	<path d="M 0 0 L 41.1814 -21.9444" fill="none" stroke="#000000" stroke-width="1.39999998" stroke-linecap="round" stroke-linejoin="round" stroke-dasharray="7.707, 3.493, 0.014, 4.186" transform="matrix(0.357143 0 -0 0.357143 131.269 92.6879)" />
	<path d="M 0 0 L 22.4782 25.1561" fill="none" stroke="#000000" stroke-width="1.39999998" stroke-linecap="round" stroke-linejoin="round" stroke-dasharray="7.707, 3.493, 0.014, 4.186" transform="matrix(0.357143 0 -0 0.357143 131.269 92.6879)" />
	<g transform="matrix(1 0 -0 1 49.5467 96.1224)">
		<svg width="44.9376793" height="36.0428467">
			<defs />
			<path d="M 9.42727 10.4793 C 9.28202 11.0505, 9.03862 11.5859, 8.6961 12.0855, 8.35357 12.5855, 7.94529 13.0237, 7.47076 13.4006, 6.99623 13.7775, 6.47607 14.0748, 5.90977 14.2917, 5.34348 14.5086, 4.76688 14.6171, 4.179 14.6171 L 3.90419 14.6171 C 3.81243 14.6171, 3.7452 14.6146, 3.70201 14.6092 L 3.1843 17.318 C 3.14701 17.533, 3.04837 17.69, 2.88938 17.7891, 2.73038 17.8887, 2.56452 17.9383, 2.39178 17.9383, 2.22494 17.9383, 2.08999 17.8833, 1.98743 17.7734, 1.91775 17.7214, 1.88241 17.6321, 1.88241 17.5065, 1.88241 17.4387, 1.89321 17.3627, 1.9148 17.2788 L 2.83638 14.4601 C 2.38884 14.3658, 1.96191 14.2029, 1.55461 13.9698, 1.1478 13.7372, 0.815092 13.4467, 0.55599 13.0983, 0.297379 12.7504, 0.127589 12.3509, 0.0466201 11.9005, 0.0142325 11.7336, -0.00196135 11.5555, -0.00196135 11.3665, -0.00196135 11.0844, 0.0358243 10.7782, 0.111396 10.4479, 0.246344 9.9302, 0.421532 9.41347, 0.63696 8.89772, 0.852877 8.38246, 1.17872 7.9045, 1.61546 7.46432, 1.65864 7.39169, 1.73176 7.35244, 1.83383 7.34655 L 1.9148 7.34655 C 1.96878 7.34704, 2.01687 7.36814, 2.06006 7.40936, 2.09244 7.45696, 2.10864 7.50652, 2.10864 7.55854 L 2.10864 7.58995 C 2.10864 7.64294, 2.08459 7.69251, 2.03601 7.73913, 1.65864 8.1268, 1.37304 8.55618, 1.17872 9.02727, 0.984882 9.49837, 0.82049 9.98271, 0.685541 10.4793, 0.631562 10.6997, 0.604572 10.9038, 0.604572 11.0917, 0.604572 11.2596, 0.626164 11.4141, 0.669347 11.555, 0.750317 11.8906, 0.907838 12.1826, 1.1424 12.4309, 1.37697 12.6797, 1.67386 12.8893, 2.03208 13.059, 2.39031 13.2293, 2.76915 13.3481, 3.16811 13.4158 L 3.62104 12.0182 C 3.80457 11.4848, 4.01215 10.9342, 4.24377 10.366, 4.47539 9.7982, 4.75167 9.27754, 5.0726 8.8035, 5.39353 8.32996, 5.76599 7.93983, 6.189 7.63362, 6.612 7.32741, 7.10125 7.1743, 7.65626 7.17381, 8.07141 7.1743, 8.41933 7.26852, 8.69953 7.45696, 8.98023 7.6454, 9.19173 7.89959, 9.33453 8.21856, 9.47782 8.53802, 9.55437 8.89625, 9.56517 9.29373 L 9.56517 9.40366 C 9.56517 9.76532, 9.51953 10.124, 9.42727 10.4793 Z M 8.85313 10.4479 C 8.90711 10.2443, 8.9341 10.0426, 8.9341 9.84334, 8.9341 9.76532, 8.9287 9.68141, 8.9179 9.59209, 8.88552 9.33594, 8.80504 9.10873, 8.67549 8.9095, 8.54594 8.71076, 8.37369 8.55373, 8.15777 8.43841, 7.94235 8.32358, 7.69453 8.26567, 7.41384 8.26518, 7.02028 8.26567, 6.64978 8.36921, 6.30186 8.57581, 5.95443 8.78289, 5.6389 9.0626, 5.35575 9.41593, 5.07309 9.76925, 4.8346 10.1765, 4.64027 10.6368, 4.44595 11.0976, 4.29775 11.5712, 4.19519 12.0575 L 3.91204 13.5179 C 3.94983 13.5238, 4.01706 13.5262, 4.11422 13.5257 L 4.42975 13.5257 C 4.91508 13.5262, 5.39746 13.4492, 5.87739 13.2946, 6.35731 13.1405, 6.79798 12.927, 7.19939 12.6547, 7.60129 12.3828, 7.94922 12.057, 8.24267 11.6772, 8.53661 11.2978, 8.74026 10.8881, 8.85313 10.4479 Z" stroke="none" fill="#000000" />
			<path d="M 2.03372 2.7404 C 1.47834 2.72281, 0.938069 2.71402, 0.412642 2.71402, -0.112509 2.71402, -0.652775 2.72281, -1.20816 2.7404 L -1.20816 2.36227, -0.895703 2.36227 C -0.796223 2.36254, -0.702515 2.36117, -0.615127 2.35814, -0.527464 2.3554, -0.444473 2.34798, -0.365879 2.33616, -0.287285 2.32462, -0.219408 2.3128, -0.162249 2.30071, -0.113883 2.29219, -0.0740366 2.26526, -0.042434 2.21964, -0.0105567 2.1743, 0.00510716 2.12374, 0.00510716 2.06768 L 0.00510716 -2.8876 C -0.145486 -2.81396, -0.331254 -2.75817, -0.551647 -2.72025, -0.77204 -2.68205, -1.01332 -2.66309, -1.27603 -2.66336 L -1.27603 -3.0371 C -0.91384 -3.03682, -0.579402 -3.07997, -0.272995 -3.16653, 0.033412 -3.25282, 0.298324 -3.41495, 0.521465 -3.65266 L 0.66189 -3.65266 C 0.76137 -3.65238, 0.811109 -3.60402, 0.811109 -3.50756 L 0.811109 2.06768 C 0.811109 2.12648, 0.826224 2.17787, 0.856452 2.22184, 0.886681 2.26581, 0.930649 2.29219, 0.987809 2.30071, 1.03617 2.3128, 1.09828 2.32462, 1.17358 2.33616, 1.24887 2.34798, 1.33406 2.3554, 1.42915 2.35814, 1.52423 2.36117, 1.61711 2.36254, 1.7078 2.36227 L 2.03372 2.36227, 2.03372 2.7404 Z" stroke="none" fill="#000000" transform="matrix(1.12 0 0 1 11.6783 13.9768)" />
			<rect />
		</svg>
	</g>
	<g transform="matrix(1 0 -0 1 146.77 83.0318)">
		<svg width="48.0251122" height="36.0428467">
			<defs />
			<path d="M 9.42727 10.4793 C 9.28202 11.0505, 9.03862 11.5859, 8.6961 12.0855, 8.35357 12.5855, 7.94529 13.0237, 7.47076 13.4006, 6.99623 13.7775, 6.47607 14.0748, 5.90977 14.2917, 5.34348 14.5086, 4.76688 14.6171, 4.179 14.6171 L 3.90419 14.6171 C 3.81243 14.6171, 3.7452 14.6146, 3.70201 14.6092 L 3.1843 17.318 C 3.14701 17.533, 3.04837 17.69, 2.88938 17.7891, 2.73038 17.8887, 2.56452 17.9383, 2.39178 17.9383, 2.22494 17.9383, 2.08999 17.8833, 1.98743 17.7734, 1.91775 17.7214, 1.88241 17.6321, 1.88241 17.5065, 1.88241 17.4387, 1.89321 17.3627, 1.9148 17.2788 L 2.83638 14.4601 C 2.38884 14.3658, 1.96191 14.2029, 1.55461 13.9698, 1.1478 13.7372, 0.815092 13.4467, 0.55599 13.0983, 0.297379 12.7504, 0.127589 12.3509, 0.0466201 11.9005, 0.0142325 11.7336, -0.00196135 11.5555, -0.00196135 11.3665, -0.00196135 11.0844, 0.0358243 10.7782, 0.111396 10.4479, 0.246344 9.9302, 0.421532 9.41347, 0.63696 8.89772, 0.852877 8.38246, 1.17872 7.9045, 1.61546 7.46432, 1.65864 7.39169, 1.73176 7.35244, 1.83383 7.34655 L 1.9148 7.34655 C 1.96878 7.34704, 2.01687 7.36814, 2.06006 7.40936, 2.09244 7.45696, 2.10864 7.50652, 2.10864 7.55854 L 2.10864 7.58995 C 2.10864 7.64294, 2.08459 7.69251, 2.03601 7.73913, 1.65864 8.1268, 1.37304 8.55618, 1.17872 9.02727, 0.984882 9.49837, 0.82049 9.98271, 0.685541 10.4793, 0.631562 10.6997, 0.604572 10.9038, 0.604572 11.0917, 0.604572 11.2596, 0.626164 11.4141, 0.669347 11.555, 0.750317 11.8906, 0.907838 12.1826, 1.1424 12.4309, 1.37697 12.6797, 1.67386 12.8893, 2.03208 13.059, 2.39031 13.2293, 2.76915 13.3481, 3.16811 13.4158 L 3.62104 12.0182 C 3.80457 11.4848, 4.01215 10.9342, 4.24377 10.366, 4.47539 9.7982, 4.75167 9.27754, 5.0726 8.8035, 5.39353 8.32996, 5.76599 7.93983, 6.189 7.63362, 6.612 7.32741, 7.10125 7.1743, 7.65626 7.17381, 8.07141 7.1743, 8.41933 7.26852, 8.69953 7.45696, 8.98023 7.6454, 9.19173 7.89959, 9.33453 8.21856, 9.47782 8.53802, 9.55437 8.89625, 9.56517 9.29373 L 9.56517 9.40366 C 9.56517 9.76532, 9.51953 10.124, 9.42727 10.4793 Z M 8.85313 10.4479 C 8.90711 10.2443, 8.9341 10.0426, 8.9341 9.84334, 8.9341 9.76532, 8.9287 9.68141, 8.9179 9.59209, 8.88552 9.33594, 8.80504 9.10873, 8.67549 8.9095, 8.54594 8.71076, 8.37369 8.55373, 8.15777 8.43841, 7.94235 8.32358, 7.69453 8.26567, 7.41384 8.26518, 7.02028 8.26567, 6.64978 8.36921, 6.30186 8.57581, 5.95443 8.78289, 5.6389 9.0626, 5.35575 9.41593, 5.07309 9.76925, 4.8346 10.1765, 4.64027 10.6368, 4.44595 11.0976, 4.29775 11.5712, 4.19519 12.0575 L 3.91204 13.5179 C 3.94983 13.5238, 4.01706 13.5262, 4.11422 13.5257 L 4.42975 13.5257 C 4.91508 13.5262, 5.39746 13.4492, 5.87739 13.2946, 6.35731 13.1405, 6.79798 12.927, 7.19939 12.6547, 7.60129 12.3828, 7.94922 12.057, 8.24267 11.6772, 8.53661 11.2978, 8.74026 10.8881, 8.85313 10.4479 Z" stroke="none" fill="#000000" />
			<path d="M 2.04975 2.7404 L -1.63593 2.7404, -1.63593 2.49857 C -1.63593 2.48126, -1.62686 2.45487, -1.60872 2.41943 L -0.128074 0.810169 C 0.0472517 0.616981, 0.224501 0.419122, 0.404223 0.216866, 0.583945 0.0146096, 0.744431 -0.192044, 0.88623 -0.403094, 1.02803 -0.614144, 1.14125 -0.831789, 1.22589 -1.05603, 1.31053 -1.28027, 1.35257 -1.5155, 1.35257 -1.762, 1.35257 -1.96976, 1.32564 -2.16404, 1.27123 -2.34431, 1.21682 -2.52459, 1.1385 -2.68287, 1.03572 -2.81918, 0.932947 -2.95548, 0.804614 -3.0654, 0.650723 -3.14894, 0.496832 -3.23248, 0.318759 -3.27425, 0.116503 -3.27453, -0.185233 -3.27425, -0.451793 -3.18412, -0.682629 -3.00385, -0.913465 -2.82357, -1.06681 -2.62489, -1.14238 -2.40834, -1.15722 -2.4023, -1.13303 -2.39928, -1.06983 -2.39955 L -0.992884 -2.39955 C -0.902198 -2.37866, -0.823879 -2.34706, -0.757376 -2.30474, -0.690874 -2.26215, -0.635088 -2.20361, -0.589745 -2.12887, -0.544403 -2.05412, -0.521869 -1.96398, -0.521869 -1.85873, -0.521869 -1.68258, -0.579028 -1.54766, -0.693896 -1.45395, -0.808765 -1.35996, -0.937099 -1.31325, -1.0789 -1.31352, -1.21465 -1.31325, -1.34134 -1.35996, -1.45923 -1.45395, -1.57684 -1.54766, -1.63593 -1.68258, -1.63593 -1.85873, -1.63593 -2.10468, -1.58756 -2.33772, -1.49083 -2.55756, -1.3941 -2.77741, -1.26302 -2.96785, -1.09703 -3.12916, -0.931053 -3.29019, -0.734842 -3.4177, -0.508403 -3.51168, -0.281964 -3.60539, -0.041785 -3.65238, 0.211585 -3.65266, 0.525412 -3.65238, 0.813133 -3.60622, 1.0742 -3.51388, 1.33526 -3.42155, 1.55785 -3.28882, 1.74197 -3.11597, 1.92609 -2.94284, 2.07036 -2.74278, 2.17451 -2.51579, 2.27867 -2.28853, 2.3306 -2.03736, 2.3306 -1.762, 2.3306 -1.45697, 2.26135 -1.17612, 2.1223 -0.919726, 1.98353 -0.663059, 1.8115 -0.427826, 1.60622 -0.214028, 1.40094 4.48227e-005, 1.18274 0.201477, 0.951909 0.390542, 0.721073 0.579608, 0.511946 0.763452, 0.324805 0.942075 L -0.716705 1.92258, 0.646326 1.92258 C 0.836491 1.92285, 1.01401 1.92148, 1.17835 1.91846, 1.34296 1.91571, 1.48256 1.90966, 1.59715 1.90087, 1.71202 1.89208, 1.77083 1.8863, 1.77357 1.88301, 1.79776 1.86267, 1.82057 1.82173, 1.84173 1.76017, 1.86289 1.69861, 1.8824 1.62606, 1.90053 1.54252, 1.91867 1.45898, 1.93681 1.37407, 1.95495 1.2875, 1.97308 1.20122, 1.98957 1.10641, 2.00469 1.00363 L 2.33967 1.00363 Z" stroke="none" fill="#000000" transform="matrix(1.12 0 0 1 12.0408 13.9768)" />
			<rect />
		</svg>
	</g>
	<path d="M -216.759 -225.298 L 216.758 225.297" fill="none" stroke="#000000" stroke-width="2.79999995" stroke-linecap="round" stroke-linejoin="round" marker-end="url(#CustomMarker-04)" transform="matrix(0.357143 0 0 0.357143 334.3 110.782)" />
	<path d="M -133.267 254.177 L 133.268 -254.177" fill="none" stroke="#000000" stroke-width="2.79999995" stroke-linecap="round" stroke-linejoin="round" marker-end="url(#CustomMarker-05)" transform="matrix(0.357143 0 0 0.357143 420.271 99.2776)" />
	<ellipse cx="1302.8734378814697" cy="419.48385047912598" rx="7.3500003814697266" ry="7.3500003814697266" stroke="none" fill="#000000" transform="matrix(0.357143 0 0 0.357143 -164.084 -74.3659)" />
	<ellipse cx="1702.6219730377197" cy="359.50478553771973" rx="7.3500003814697266" ry="7.3500003814697266" stroke="none" fill="#000000" transform="matrix(0.357143 0 0 0.357143 -164.084 -74.3659)" />
	<ellipse cx="1600.3871097564697" cy="554.49526405334473" rx="7.3500003814697266" ry="7.3500003814697266" stroke="none" fill="#000000" transform="matrix(0.357143 0 0 0.357143 -164.084 -74.3659)" />
	<ellipse cx="1452.2710208892822" cy="577.44863319396973" rx="7.3500003814697266" ry="7.3500003814697266" stroke="none" fill="#000000" transform="matrix(0.357143 0 0 0.357143 -164.084 -74.3659)" />
	<g transform="matrix(1 0 -0 1 277.221 75.5306)">
		<svg width="62.9477272" height="45.0428467">
			<defs />
			<path d="M 15.6266 3.69557 C 15.5947 3.85849, 15.4951 3.93946, 15.3277 3.93897, 15.0745 3.93946, 14.8346 3.94486, 14.6078 3.95516, 14.3816 3.96596, 14.2172 3.99344, 14.1147 4.0376, 14.0126 4.08226, 13.9316 4.21966, 13.8718 4.44932 L 11.5992 13.298 C 11.5668 13.4138, 11.5506 13.5051, 11.5506 13.5728, 11.5506 13.6361, 11.5668 13.6754, 11.5992 13.6906, 11.6748 13.7382, 11.822 13.7657, 12.0404 13.7735, 12.2587 13.7814, 12.4948 13.7853, 12.748 13.7848, 12.8991 13.7853, 12.9742 13.8481, 12.9742 13.9733, 12.9742 14.0052, 12.9688 14.039, 12.958 14.0753 L 12.9256 14.1931 C 12.9099 14.2618, 12.8736 14.3192, 12.8167 14.3658, 12.7603 14.413, 12.694 14.4365, 12.6184 14.4365, 11.9771 14.4051, 11.3249 14.3894, 10.6614 14.3894, 9.99848 14.3894, 9.33011 14.4051, 8.65586 14.4365, 8.51552 14.4365, 8.44534 14.3688, 8.44534 14.2324 L 8.44534 14.1696, 8.47773 14.0361 C 8.52091 13.8638, 8.62642 13.7799, 8.79326 13.7848, 9.04648 13.7853, 9.28399 13.7814, 9.50481 13.7735, 9.72613 13.7657, 9.89052 13.7382, 9.99799 13.6906, 10.0952 13.6386, 10.1737 13.4973, 10.2326 13.2666 L 12.5051 4.49643, 6.49619 14.2167 C 6.41571 14.3634, 6.29156 14.4365, 6.12422 14.4365 L 6.04375 14.4365 C 5.8769 14.4365, 5.77679 14.3531, 5.7444 14.1853 L 4.7659 4.5828, 2.63911 12.8662 C 2.60672 12.9609, 2.59053 13.0605, 2.59053 13.1646, 2.59053 13.1911, 2.59593 13.22, 2.60672 13.2509, 2.61752 13.377, 2.6607 13.4767, 2.73578 13.5493, 2.83295 13.644, 2.9625 13.7068, 3.12444 13.7382, 3.28638 13.7696, 3.46942 13.7853, 3.67405 13.7848, 3.82519 13.7853, 3.90027 13.8481, 3.90027 13.9733, 3.90027 14.0052, 3.89487 14.039, 3.88408 14.0753 L 3.85218 14.1931 C 3.83598 14.2618, 3.79967 14.3192, 3.74275 14.3658, 3.68631 14.413, 3.61761 14.4365, 3.53664 14.4365, 2.99783 14.4051, 2.45313 14.3894, 1.90303 14.3894, 1.35342 14.3894, 0.795467 14.4051, 0.229174 14.4365, 0.148204 14.4365, 0.0888269 14.413, 0.0510413 14.3658, 0.0137464 14.3295, -0.00539182 14.2903, -0.00539182 14.2481, -0.00539182 14.2172, 6.1281e-006 14.1857, 0.010802 14.1539 L 0.042699 14.0361 C 0.0858826 13.8638, 0.191388 13.7799, 0.358234 13.7848, 0.563356 13.7853, 0.75621 13.7696, 0.936796 13.7382, 1.11738 13.7068, 1.28619 13.6415, 1.44224 13.5414, 1.56639 13.4634, 1.66748 13.3604, 1.74551 13.2318, 1.82353 13.1037, 1.88144 12.9663, 1.91922 12.8191 L 4.08625 4.41791 C 4.11864 4.30309, 4.13483 4.21426, 4.13483 4.15096, 4.13483 4.08864, 4.12159 4.05184, 4.0946 4.04104, 4.01902 3.99442, 3.8723 3.96596, 3.65393 3.95516, 3.43556 3.94486, 3.19952 3.93946, 2.9463 3.93897, 2.80105 3.93946, 2.72254 3.8688, 2.71174 3.72698 L 2.71174 3.67202, 2.74413 3.53069 C 2.8035 3.37415, 2.90852 3.29563, 3.05917 3.29514 L 5.67963 3.29514 C 5.85236 3.29563, 5.94904 3.37955, 5.97063 3.54639 L 6.8927 12.5207, 12.4565 3.51499 C 12.5375 3.36875, 12.6616 3.29563, 12.8285 3.29514 L 15.4489 3.29514 C 15.5245 3.29563, 15.5893 3.32164, 15.6428 3.37366, 15.6644 3.41586, 15.6752 3.45512, 15.6752 3.49143, 15.6752 3.52333, 15.6673 3.55228, 15.6511 3.5778 Z" stroke="none" fill="#000000" />
			<path d="M 2.03372 2.7404 C 1.47834 2.72281, 0.938069 2.71402, 0.412642 2.71402, -0.112509 2.71402, -0.652775 2.72281, -1.20816 2.7404 L -1.20816 2.36227, -0.895703 2.36227 C -0.796223 2.36254, -0.702515 2.36117, -0.615127 2.35814, -0.527464 2.3554, -0.444473 2.34798, -0.365879 2.33616, -0.287285 2.32462, -0.219408 2.3128, -0.162249 2.30071, -0.113883 2.29219, -0.0740366 2.26526, -0.042434 2.21964, -0.0105567 2.1743, 0.00510716 2.12374, 0.00510716 2.06768 L 0.00510716 -2.8876 C -0.145486 -2.81396, -0.331254 -2.75817, -0.551647 -2.72025, -0.77204 -2.68205, -1.01332 -2.66309, -1.27603 -2.66336 L -1.27603 -3.0371 C -0.91384 -3.03682, -0.579402 -3.07997, -0.272995 -3.16653, 0.033412 -3.25282, 0.298324 -3.41495, 0.521465 -3.65266 L 0.66189 -3.65266 C 0.76137 -3.65238, 0.811109 -3.60402, 0.811109 -3.50756 L 0.811109 2.06768 C 0.811109 2.12648, 0.826224 2.17787, 0.856452 2.22184, 0.886681 2.26581, 0.930649 2.29219, 0.987809 2.30071, 1.03617 2.3128, 1.09828 2.32462, 1.17358 2.33616, 1.24887 2.34798, 1.33406 2.3554, 1.42915 2.35814, 1.52423 2.36117, 1.61711 2.36254, 1.7078 2.36227 L 2.03372 2.36227, 2.03372 2.7404 Z" stroke="none" fill="#000000" transform="matrix(1.12 0 0 1 16.9877 13.9768)" />
			<rect />
		</svg>
	</g>
	<g transform="matrix(1 0 -0 1 332.371 132.127)">
		<svg width="53.9427032" height="45.0428467">
			<defs />
			<path d="M 13.225 3.69557 C 13.2093 3.76427, 13.173 3.82169, 13.116 3.8688, 13.0596 3.9159, 12.9909 3.93946, 12.9099 3.93897, 12.7161 3.93946, 12.5277 3.95418, 12.3441 3.98264, 12.1606 4.0116, 11.9908 4.08079, 11.8343 4.19022, 11.7052 4.26923, 11.6031 4.37277, 11.5276 4.50085, 11.452 4.62942, 11.3956 4.76633, 11.3573 4.91256 L 8.97237 14.201 C 8.91349 14.358, 8.80798 14.4365, 8.65684 14.4365 L 8.47086 14.4365 C 8.37418 14.4365, 8.30156 14.3948, 8.25248 14.3109, 7.6435 12.6679, 7.03844 11.0284, 6.4373 9.39237, 5.83666 7.75679, 5.26104 6.21101, 4.71143 4.75553 L 2.62537 12.8662 C 2.59298 12.9555, 2.57679 13.0448, 2.57679 13.1331, 2.57679 13.1704, 2.58219 13.2097, 2.59298 13.2509, 2.60917 13.377, 2.65776 13.4767, 2.73823 13.5493, 2.8354 13.644, 2.96495 13.7068, 3.1264 13.7382, 3.28834 13.7696, 3.47137 13.7853, 3.6765 13.7848, 3.82764 13.7853, 3.90272 13.8481, 3.90272 13.9733, 3.90272 14.0052, 3.89732 14.039, 3.88653 14.0753 L 3.85414 14.1931 C 3.83844 14.2667, 3.79918 14.3256, 3.73735 14.3698, 3.67552 14.4144, 3.60927 14.4365, 3.53909 14.4365, 3.00028 14.4051, 2.45313 14.3894, 1.89763 14.3894, 1.34802 14.3894, 0.79252 14.4051, 0.232115 14.4365, 0.151145 14.4365, 0.0917679 14.413, 0.0539823 14.3658, 0.0166874 14.3295, -0.00196008 14.2903, -0.00245081 14.2481, -0.00196008 14.2172, 0.00343787 14.1857, 0.013743 14.1539 L 0.0461307 14.0361 C 0.0623246 13.9684, 0.10011 13.91, 0.159488 13.8599, 0.218865 13.8103, 0.286094 13.7853, 0.361175 13.7848, 0.566297 13.7853, 0.757679 13.7696, 0.93532 13.7382, 1.11345 13.7068, 1.28324 13.6415, 1.44469 13.5414, 1.56884 13.4634, 1.66846 13.3604, 1.74403 13.2318, 1.8196 13.1037, 1.87849 12.9663, 1.92167 12.8191 L 4.18587 4.01748 C 4.09459 3.98657, 3.92873 3.96596, 3.68876 3.95516, 3.4488 3.94486, 3.19412 3.93946, 2.92422 3.93897, 2.84374 3.93946, 2.78436 3.91345, 2.74658 3.86045, 2.71419 3.82954, 2.698 3.79028, 2.698 3.74268, 2.698 3.71176, 2.70634 3.68281, 2.72204 3.65631 L 2.74658 3.53069 C 2.80595 3.37415, 2.91097 3.29563, 3.06162 3.29514 L 5.59277 3.29514 C 5.69533 3.29563, 5.76256 3.33734, 5.79446 3.42077 L 8.87521 11.7277, 10.6457 4.86545 C 10.6781 4.77173, 10.6943 4.67751, 10.6943 4.5828, 10.6943 4.42086, 10.6433 4.28738, 10.5407 4.18237, 10.4279 4.07294, 10.2944 4.00522, 10.1408 3.97872, 9.98719 3.95271, 9.80808 3.93946, 9.60295 3.93897, 9.52248 3.93946, 9.4631 3.9159, 9.42482 3.86831, 9.38753 3.83199, 9.36839 3.79028, 9.36839 3.74268, 9.36839 3.71176, 9.37673 3.68281, 9.39292 3.65631 L 9.41697 3.53069 C 9.47635 3.37415, 9.58136 3.29563, 9.7325 3.29514, 10.2821 3.31673, 10.8347 3.32704, 11.3897 3.32655, 11.9398 3.32704, 12.4923 3.31673, 13.0473 3.29514, 13.1229 3.29563, 13.1877 3.32164, 13.2412 3.37366, 13.2628 3.41586, 13.2736 3.45512, 13.2736 3.49143, 13.2736 3.52333, 13.2657 3.55228, 13.2495 3.5778 Z" stroke="none" fill="#000000" />
			<path d="M 2.03755 2.7404 C 1.48217 2.72281, 0.941631 2.71402, 0.416204 2.71402, -0.108947 2.71402, -0.649488 2.72281, -1.20514 2.7404 L -1.20514 2.36227, -0.892416 2.36227 C -0.792936 2.36254, -0.699228 2.36117, -0.61184 2.35814, -0.524177 2.3554, -0.441186 2.34798, -0.362592 2.33616, -0.283998 2.32462, -0.216121 2.3128, -0.158962 2.30071, -0.110596 2.29219, -0.0704747 2.26526, -0.0388722 2.21964, -0.00699496 2.1743, 0.0086689 2.12374, 0.0086689 2.06768 L 0.0086689 -2.8876 C -0.142199 -2.81396, -0.327967 -2.75817, -0.54836 -2.72025, -0.768753 -2.68205, -1.01031 -2.66309, -1.27302 -2.66336 L -1.27302 -3.0371 C -0.910553 -3.03682, -0.576115 -3.07997, -0.269708 -3.16653, 0.0366991 -3.25282, 0.301611 -3.41495, 0.525027 -3.65266 L 0.665452 -3.65266 C 0.764931 -3.65238, 0.814671 -3.60402, 0.814671 -3.50756 L 0.814671 2.06768 C 0.814671 2.12648, 0.829785 2.17787, 0.860014 2.22184, 0.890242 2.26581, 0.934211 2.29219, 0.99137 2.30071, 1.03974 2.3128, 1.10184 2.32462, 1.17714 2.33616, 1.25271 2.34798, 1.3379 2.3554, 1.43298 2.35814, 1.52806 2.36117, 1.62095 2.36254, 1.71136 2.36227 L 2.03755 2.36227, 2.03755 2.7404 Z" stroke="none" fill="#000000" transform="matrix(1.12 0 0 1 14.5832 13.9768)" />
			<rect />
		</svg>
	</g>
	<g transform="matrix(1 0 -0 1 449.95 48.2848)">
		<svg width="62.9477272" height="45.0428467">
			<defs />
			<path d="M 15.6266 3.69557 C 15.5947 3.85849, 15.4951 3.93946, 15.3277 3.93897, 15.0745 3.93946, 14.8346 3.94486, 14.6078 3.95516, 14.3816 3.96596, 14.2172 3.99344, 14.1147 4.0376, 14.0126 4.08226, 13.9316 4.21966, 13.8718 4.44932 L 11.5992 13.298 C 11.5668 13.4138, 11.5506 13.5051, 11.5506 13.5728, 11.5506 13.6361, 11.5668 13.6754, 11.5992 13.6906, 11.6748 13.7382, 11.822 13.7657, 12.0404 13.7735, 12.2587 13.7814, 12.4948 13.7853, 12.748 13.7848, 12.8991 13.7853, 12.9742 13.8481, 12.9742 13.9733, 12.9742 14.0052, 12.9688 14.039, 12.958 14.0753 L 12.9256 14.1931 C 12.9099 14.2618, 12.8736 14.3192, 12.8167 14.3658, 12.7603 14.413, 12.694 14.4365, 12.6184 14.4365, 11.9771 14.4051, 11.3249 14.3894, 10.6614 14.3894, 9.99848 14.3894, 9.33011 14.4051, 8.65586 14.4365, 8.51552 14.4365, 8.44534 14.3688, 8.44534 14.2324 L 8.44534 14.1696, 8.47773 14.0361 C 8.52091 13.8638, 8.62642 13.7799, 8.79326 13.7848, 9.04648 13.7853, 9.28399 13.7814, 9.50481 13.7735, 9.72613 13.7657, 9.89052 13.7382, 9.99799 13.6906, 10.0952 13.6386, 10.1737 13.4973, 10.2326 13.2666 L 12.5051 4.49643, 6.49619 14.2167 C 6.41571 14.3634, 6.29156 14.4365, 6.12422 14.4365 L 6.04375 14.4365 C 5.8769 14.4365, 5.77679 14.3531, 5.7444 14.1853 L 4.7659 4.5828, 2.63911 12.8662 C 2.60672 12.9609, 2.59053 13.0605, 2.59053 13.1646, 2.59053 13.1911, 2.59593 13.22, 2.60672 13.2509, 2.61752 13.377, 2.6607 13.4767, 2.73578 13.5493, 2.83295 13.644, 2.9625 13.7068, 3.12444 13.7382, 3.28638 13.7696, 3.46942 13.7853, 3.67405 13.7848, 3.82519 13.7853, 3.90027 13.8481, 3.90027 13.9733, 3.90027 14.0052, 3.89487 14.039, 3.88408 14.0753 L 3.85218 14.1931 C 3.83598 14.2618, 3.79967 14.3192, 3.74275 14.3658, 3.68631 14.413, 3.61761 14.4365, 3.53664 14.4365, 2.99783 14.4051, 2.45313 14.3894, 1.90303 14.3894, 1.35342 14.3894, 0.795467 14.4051, 0.229174 14.4365, 0.148204 14.4365, 0.0888269 14.413, 0.0510413 14.3658, 0.0137464 14.3295, -0.00539182 14.2903, -0.00539182 14.2481, -0.00539182 14.2172, 6.1281e-006 14.1857, 0.010802 14.1539 L 0.042699 14.0361 C 0.0858826 13.8638, 0.191388 13.7799, 0.358234 13.7848, 0.563356 13.7853, 0.75621 13.7696, 0.936796 13.7382, 1.11738 13.7068, 1.28619 13.6415, 1.44224 13.5414, 1.56639 13.4634, 1.66748 13.3604, 1.74551 13.2318, 1.82353 13.1037, 1.88144 12.9663, 1.91922 12.8191 L 4.08625 4.41791 C 4.11864 4.30309, 4.13483 4.21426, 4.13483 4.15096, 4.13483 4.08864, 4.12159 4.05184, 4.0946 4.04104, 4.01902 3.99442, 3.8723 3.96596, 3.65393 3.95516, 3.43556 3.94486, 3.19952 3.93946, 2.9463 3.93897, 2.80105 3.93946, 2.72254 3.8688, 2.71174 3.72698 L 2.71174 3.67202, 2.74413 3.53069 C 2.8035 3.37415, 2.90852 3.29563, 3.05917 3.29514 L 5.67963 3.29514 C 5.85236 3.29563, 5.94904 3.37955, 5.97063 3.54639 L 6.8927 12.5207, 12.4565 3.51499 C 12.5375 3.36875, 12.6616 3.29563, 12.8285 3.29514 L 15.4489 3.29514 C 15.5245 3.29563, 15.5893 3.32164, 15.6428 3.37366, 15.6644 3.41586, 15.6752 3.45512, 15.6752 3.49143, 15.6752 3.52333, 15.6673 3.55228, 15.6511 3.5778 Z" stroke="none" fill="#000000" />
			<path d="M 2.04975 2.7404 L -1.63593 2.7404, -1.63593 2.49857 C -1.63593 2.48126, -1.62686 2.45487, -1.60872 2.41943 L -0.128074 0.810169 C 0.0472517 0.616981, 0.224501 0.419122, 0.404223 0.216866, 0.583945 0.0146096, 0.744431 -0.192044, 0.88623 -0.403094, 1.02803 -0.614144, 1.14125 -0.831789, 1.22589 -1.05603, 1.31053 -1.28027, 1.35257 -1.5155, 1.35257 -1.762, 1.35257 -1.96976, 1.32564 -2.16404, 1.27123 -2.34431, 1.21682 -2.52459, 1.1385 -2.68287, 1.03572 -2.81918, 0.932947 -2.95548, 0.804614 -3.0654, 0.650723 -3.14894, 0.496832 -3.23248, 0.318759 -3.27425, 0.116503 -3.27453, -0.185233 -3.27425, -0.451793 -3.18412, -0.682629 -3.00385, -0.913465 -2.82357, -1.06681 -2.62489, -1.14238 -2.40834, -1.15722 -2.4023, -1.13303 -2.39928, -1.06983 -2.39955 L -0.992884 -2.39955 C -0.902198 -2.37866, -0.823879 -2.34706, -0.757376 -2.30474, -0.690874 -2.26215, -0.635088 -2.20361, -0.589745 -2.12887, -0.544403 -2.05412, -0.521869 -1.96398, -0.521869 -1.85873, -0.521869 -1.68258, -0.579028 -1.54766, -0.693896 -1.45395, -0.808765 -1.35996, -0.937099 -1.31325, -1.0789 -1.31352, -1.21465 -1.31325, -1.34134 -1.35996, -1.45923 -1.45395, -1.57684 -1.54766, -1.63593 -1.68258, -1.63593 -1.85873, -1.63593 -2.10468, -1.58756 -2.33772, -1.49083 -2.55756, -1.3941 -2.77741, -1.26302 -2.96785, -1.09703 -3.12916, -0.931053 -3.29019, -0.734842 -3.4177, -0.508403 -3.51168, -0.281964 -3.60539, -0.041785 -3.65238, 0.211585 -3.65266, 0.525412 -3.65238, 0.813133 -3.60622, 1.0742 -3.51388, 1.33526 -3.42155, 1.55785 -3.28882, 1.74197 -3.11597, 1.92609 -2.94284, 2.07036 -2.74278, 2.17451 -2.51579, 2.27867 -2.28853, 2.3306 -2.03736, 2.3306 -1.762, 2.3306 -1.45697, 2.26135 -1.17612, 2.1223 -0.919726, 1.98353 -0.663059, 1.8115 -0.427826, 1.60622 -0.214028, 1.40094 4.48227e-005, 1.18274 0.201477, 0.951909 0.390542, 0.721073 0.579608, 0.511946 0.763452, 0.324805 0.942075 L -0.716705 1.92258, 0.646326 1.92258 C 0.836491 1.92285, 1.01401 1.92148, 1.17835 1.91846, 1.34296 1.91571, 1.48256 1.90966, 1.59715 1.90087, 1.71202 1.89208, 1.77083 1.8863, 1.77357 1.88301, 1.79776 1.86267, 1.82057 1.82173, 1.84173 1.76017, 1.86289 1.69861, 1.8824 1.62606, 1.90053 1.54252, 1.91867 1.45898, 1.93681 1.37407, 1.95495 1.2875, 1.97308 1.20122, 1.98957 1.10641, 2.00469 1.00363 L 2.33967 1.00363 Z" stroke="none" fill="#000000" transform="matrix(1.12 0 0 1 17.3502 13.9768)" />
			<rect />
		</svg>
	</g>
	<g transform="matrix(1 0 -0 1 416.621 111.964)">
		<svg width="57.0301361" height="45.0428467">
			<defs />
			<path d="M 13.2314 3.69557 C 13.2157 3.76427, 13.1793 3.82169, 13.1224 3.8688, 13.0655 3.9159, 12.9968 3.93946, 12.9158 3.93897, 12.722 3.93946, 12.5335 3.95418, 12.35 3.98264, 12.1665 4.0116, 11.9967 4.08079, 11.8402 4.19022, 11.7111 4.26923, 11.6085 4.37277, 11.533 4.50085, 11.4574 4.62942, 11.401 4.76633, 11.3632 4.91256 L 8.97777 14.201 C 8.91839 14.358, 8.81338 14.4365, 8.66224 14.4365 L 8.47625 14.4365 C 8.37909 14.4365, 8.30646 14.3948, 8.25788 14.3109, 7.6489 12.6679, 7.04383 11.0284, 6.4427 9.39237, 5.84156 7.75679, 5.26595 6.21101, 4.71585 4.75553 L 2.62929 12.8662 C 2.59691 12.9555, 2.58071 13.0448, 2.58071 13.1331, 2.58071 13.1704, 2.58611 13.2097, 2.59691 13.2509, 2.6131 13.377, 2.66168 13.4767, 2.74216 13.5493, 2.83932 13.644, 2.96887 13.7068, 3.13081 13.7382, 3.29275 13.7696, 3.47579 13.7853, 3.68042 13.7848, 3.83156 13.7853, 3.90714 13.8481, 3.90714 13.9733, 3.90714 14.0052, 3.90174 14.039, 3.89094 14.0753 L 3.85855 14.1931 C 3.84236 14.2667, 3.8031 14.3256, 3.74127 14.3698, 3.67944 14.4144, 3.61319 14.4365, 3.54302 14.4365, 3.00421 14.4051, 2.45705 14.3894, 1.90155 14.3894, 1.35194 14.3894, 0.796445 14.4051, 0.235549 14.4365, 0.15458 14.4365, 0.0952021 14.413, 0.0574164 14.3658, 0.0201215 14.3295, 0.00147406 14.2903, 0.000983339 14.2481, 0.00147406 14.2172, 0.00687201 14.1857, 0.0171772 14.1539 L 0.0495649 14.0361 C 0.0657587 13.9684, 0.103544 13.91, 0.162922 13.8599, 0.222299 13.8103, 0.289528 13.7853, 0.364609 13.7848, 0.569731 13.7853, 0.761603 13.7696, 0.939245 13.7382, 1.11689 13.7068, 1.28668 13.6415, 1.44862 13.5414, 1.57277 13.4634, 1.67238 13.3604, 1.74796 13.2318, 1.82353 13.1037, 1.88241 12.9663, 1.9256 12.8191 L 4.18979 4.01748 C 4.09852 3.98657, 3.93265 3.96596, 3.69269 3.95516, 3.45273 3.94486, 3.19804 3.93946, 2.92814 3.93897, 2.84767 3.93946, 2.78829 3.91345, 2.7505 3.86045, 2.71811 3.82954, 2.70192 3.79028, 2.70192 3.74268, 2.70192 3.71176, 2.71026 3.68281, 2.72597 3.65631 L 2.7505 3.53069 C 2.80988 3.37415, 2.91489 3.29563, 3.06604 3.29514 L 5.59718 3.29514 C 5.69975 3.29563, 5.76697 3.33734, 5.79936 3.42077 L 8.88061 11.7277, 10.6516 4.86545 C 10.684 4.77173, 10.7002 4.67751, 10.7002 4.5828, 10.7002 4.42086, 10.6492 4.28738, 10.5466 4.18237, 10.4337 4.07294, 10.3003 4.00522, 10.1462 3.97872, 9.99259 3.95271, 9.81347 3.93946, 9.60835 3.93897, 9.52787 3.93946, 9.46849 3.9159, 9.43022 3.86831, 9.39292 3.83199, 9.37379 3.79028, 9.37379 3.74268, 9.37379 3.71176, 9.38213 3.68281, 9.39783 3.65631 L 9.42237 3.53069 C 9.48174 3.37415, 9.58676 3.29563, 9.7379 3.29514, 10.288 3.31673, 10.8406 3.32704, 11.3956 3.32655, 11.9457 3.32704, 12.4982 3.31673, 13.0532 3.29514, 13.1288 3.29563, 13.1936 3.32164, 13.2476 3.37366, 13.2691 3.41586, 13.2799 3.45512, 13.2799 3.49143, 13.2799 3.52333, 13.2721 3.55228, 13.2554 3.5778 Z" stroke="none" fill="#000000" />
			<path d="M 2.04975 2.7404 L -1.63593 2.7404, -1.63593 2.49857 C -1.63593 2.48126, -1.62686 2.45487, -1.60872 2.41943 L -0.128074 0.810169 C 0.0472517 0.616981, 0.224501 0.419122, 0.404223 0.216866, 0.583945 0.0146096, 0.744431 -0.192044, 0.88623 -0.403094, 1.02803 -0.614144, 1.14125 -0.831789, 1.22589 -1.05603, 1.31053 -1.28027, 1.35257 -1.5155, 1.35257 -1.762, 1.35257 -1.96976, 1.32564 -2.16404, 1.27123 -2.34431, 1.21682 -2.52459, 1.1385 -2.68287, 1.03572 -2.81918, 0.932947 -2.95548, 0.804614 -3.0654, 0.650723 -3.14894, 0.496832 -3.23248, 0.318759 -3.27425, 0.116503 -3.27453, -0.185233 -3.27425, -0.451793 -3.18412, -0.682629 -3.00385, -0.913465 -2.82357, -1.06681 -2.62489, -1.14238 -2.40834, -1.15722 -2.4023, -1.13303 -2.39928, -1.06983 -2.39955 L -0.992884 -2.39955 C -0.902198 -2.37866, -0.823879 -2.34706, -0.757376 -2.30474, -0.690874 -2.26215, -0.635088 -2.20361, -0.589745 -2.12887, -0.544403 -2.05412, -0.521869 -1.96398, -0.521869 -1.85873, -0.521869 -1.68258, -0.579028 -1.54766, -0.693896 -1.45395, -0.808765 -1.35996, -0.937099 -1.31325, -1.0789 -1.31352, -1.21465 -1.31325, -1.34134 -1.35996, -1.45923 -1.45395, -1.57684 -1.54766, -1.63593 -1.68258, -1.63593 -1.85873, -1.63593 -2.10468, -1.58756 -2.33772, -1.49083 -2.55756, -1.3941 -2.77741, -1.26302 -2.96785, -1.09703 -3.12916, -0.931053 -3.29019, -0.734842 -3.4177, -0.508403 -3.51168, -0.281964 -3.60539, -0.041785 -3.65238, 0.211585 -3.65266, 0.525412 -3.65238, 0.813133 -3.60622, 1.0742 -3.51388, 1.33526 -3.42155, 1.55785 -3.28882, 1.74197 -3.11597, 1.92609 -2.94284, 2.07036 -2.74278, 2.17451 -2.51579, 2.27867 -2.28853, 2.3306 -2.03736, 2.3306 -1.762, 2.3306 -1.45697, 2.26135 -1.17612, 2.1223 -0.919726, 1.98353 -0.663059, 1.8115 -0.427826, 1.60622 -0.214028, 1.40094 4.48227e-005, 1.18274 0.201477, 0.951909 0.390542, 0.721073 0.579608, 0.511946 0.763452, 0.324805 0.942075 L -0.716705 1.92258, 0.646326 1.92258 C 0.836491 1.92285, 1.01401 1.92148, 1.17835 1.91846, 1.34296 1.91571, 1.48256 1.90966, 1.59715 1.90087, 1.71202 1.89208, 1.77083 1.8863, 1.77357 1.88301, 1.79776 1.86267, 1.82057 1.82173, 1.84173 1.76017, 1.86289 1.69861, 1.8824 1.62606, 1.90053 1.54252, 1.91867 1.45898, 1.93681 1.37407, 1.95495 1.2875, 1.97308 1.20122, 1.98957 1.10641, 2.00469 1.00363 L 2.33967 1.00363 Z" stroke="none" fill="#000000" transform="matrix(1.12 0 0 1 14.9486 13.9768)" />
			<rect />
		</svg>
	</g>
	<path d="M 13.8359 -27.6516 C 29.1078 -20.0104, 35.2936 -1.43598, 27.6523 13.8356, 25.9054 17.3266, 23.5133 20.4554, 20.6023 23.0564" fill="none" stroke="#000000" stroke-width="2.0999999" stroke-linecap="round" stroke-linejoin="round" transform="matrix(0.357143 0 -0 0.357143 386.408 164.482)" />
	<path d="M 0 0 L 20.9228 -41.815" fill="none" stroke="#000000" stroke-width="1.39999998" stroke-linecap="round" stroke-linejoin="round" stroke-dasharray="7.707, 3.493, 0.014, 4.186" transform="matrix(0.357143 0 -0 0.357143 386.408 164.482)" />
	<path d="M 0 0 L 22.4782 25.1558" fill="none" stroke="#000000" stroke-width="1.39999998" stroke-linecap="round" stroke-linejoin="round" stroke-dasharray="7.707, 3.493, 0.014, 4.186" transform="matrix(0.357143 0 -0 0.357143 386.408 164.482)" />
	<g transform="matrix(1 0 -0 1 402.7 149.369)">
		<svg width="32.9738617" height="36.0428467">
			<defs />
			<path d="M 9.42727 10.4793 C 9.28202 11.0505, 9.03862 11.5859, 8.6961 12.0855, 8.35357 12.5855, 7.94529 13.0237, 7.47076 13.4006, 6.99623 13.7775, 6.47607 14.0748, 5.90977 14.2917, 5.34348 14.5086, 4.76688 14.6171, 4.179 14.6171 L 3.90419 14.6171 C 3.81243 14.6171, 3.7452 14.6146, 3.70201 14.6092 L 3.1843 17.318 C 3.14701 17.533, 3.04837 17.69, 2.88938 17.7891, 2.73038 17.8887, 2.56452 17.9383, 2.39178 17.9383, 2.22494 17.9383, 2.08999 17.8833, 1.98743 17.7734, 1.91775 17.7214, 1.88241 17.6321, 1.88241 17.5065, 1.88241 17.4387, 1.89321 17.3627, 1.9148 17.2788 L 2.83638 14.4601 C 2.38884 14.3658, 1.96191 14.2029, 1.55461 13.9698, 1.1478 13.7372, 0.815092 13.4467, 0.55599 13.0983, 0.297379 12.7504, 0.127589 12.3509, 0.0466201 11.9005, 0.0142325 11.7336, -0.00196135 11.5555, -0.00196135 11.3665, -0.00196135 11.0844, 0.0358243 10.7782, 0.111396 10.4479, 0.246344 9.9302, 0.421532 9.41347, 0.63696 8.89772, 0.852877 8.38246, 1.17872 7.9045, 1.61546 7.46432, 1.65864 7.39169, 1.73176 7.35244, 1.83383 7.34655 L 1.9148 7.34655 C 1.96878 7.34704, 2.01687 7.36814, 2.06006 7.40936, 2.09244 7.45696, 2.10864 7.50652, 2.10864 7.55854 L 2.10864 7.58995 C 2.10864 7.64294, 2.08459 7.69251, 2.03601 7.73913, 1.65864 8.1268, 1.37304 8.55618, 1.17872 9.02727, 0.984882 9.49837, 0.82049 9.98271, 0.685541 10.4793, 0.631562 10.6997, 0.604572 10.9038, 0.604572 11.0917, 0.604572 11.2596, 0.626164 11.4141, 0.669347 11.555, 0.750317 11.8906, 0.907838 12.1826, 1.1424 12.4309, 1.37697 12.6797, 1.67386 12.8893, 2.03208 13.059, 2.39031 13.2293, 2.76915 13.3481, 3.16811 13.4158 L 3.62104 12.0182 C 3.80457 11.4848, 4.01215 10.9342, 4.24377 10.366, 4.47539 9.7982, 4.75167 9.27754, 5.0726 8.8035, 5.39353 8.32996, 5.76599 7.93983, 6.189 7.63362, 6.612 7.32741, 7.10125 7.1743, 7.65626 7.17381, 8.07141 7.1743, 8.41933 7.26852, 8.69953 7.45696, 8.98023 7.6454, 9.19173 7.89959, 9.33453 8.21856, 9.47782 8.53802, 9.55437 8.89625, 9.56517 9.29373 L 9.56517 9.40366 C 9.56517 9.76532, 9.51953 10.124, 9.42727 10.4793 Z M 8.85313 10.4479 C 8.90711 10.2443, 8.9341 10.0426, 8.9341 9.84334, 8.9341 9.76532, 8.9287 9.68141, 8.9179 9.59209, 8.88552 9.33594, 8.80504 9.10873, 8.67549 8.9095, 8.54594 8.71076, 8.37369 8.55373, 8.15777 8.43841, 7.94235 8.32358, 7.69453 8.26567, 7.41384 8.26518, 7.02028 8.26567, 6.64978 8.36921, 6.30186 8.57581, 5.95443 8.78289, 5.6389 9.0626, 5.35575 9.41593, 5.07309 9.76925, 4.8346 10.1765, 4.64027 10.6368, 4.44595 11.0976, 4.29775 11.5712, 4.19519 12.0575 L 3.91204 13.5179 C 3.94983 13.5238, 4.01706 13.5262, 4.11422 13.5257 L 4.42975 13.5257 C 4.91508 13.5262, 5.39746 13.4492, 5.87739 13.2946, 6.35731 13.1405, 6.79798 12.927, 7.19939 12.6547, 7.60129 12.3828, 7.94922 12.057, 8.24267 11.6772, 8.53661 11.2978, 8.74026 10.8881, 8.85313 10.4479 Z" stroke="none" fill="#000000" />
			<rect />
		</svg>
	</g>
	<g transform="matrix(1 0 -0 1 111.213 206.162)">
		<svg width="68.9939499" height="50.9571304">
			<defs />
			<path d="M 12.6387 12.532 C 12.5739 12.7892, 12.5013 13.064, 12.4203 13.3569, 12.3398 13.6504, 12.2319 13.9223, 12.0969 14.1735, 11.9625 14.4248, 11.7927 14.6421, 11.5876 14.8252, 11.3829 15.0082, 11.1268 15.0995, 10.8196 15.0995, 10.4098 15.0995, 10.0825 14.9861, 9.83716 14.7584, 9.5918 14.5307, 9.45047 14.2991, 9.41269 14.0631, 9.22965 14.2731, 8.95632 14.4984, 8.5922 14.7388, 8.22808 14.9793, 7.84385 15.0995, 7.43949 15.0995, 7.01404 15.0995, 6.65728 14.9925, 6.36874 14.7781, 6.08019 14.5636, 5.85544 14.2937, 5.6935 13.9689, 5.49918 13.5822, 5.39662 13.166, 5.38582 12.7205 L 5.38582 12.6027 C 5.38582 12.1895, 5.44274 11.7763, 5.55561 11.3622, 5.68516 10.9073, 5.86624 10.4573, 6.09786 10.0122, 6.32948 9.56758, 6.63667 9.1539, 7.01943 8.77113, 7.33203 8.45756, 7.68927 8.19355, 8.09068 7.97862, 8.49209 7.76417, 8.90037 7.6567, 9.31553 7.65621, 9.6767 7.6567, 9.97064 7.75239, 10.1969 7.94329, 10.4236 8.13467, 10.5664 8.29268, 10.6253 8.41781 L 10.5929 8.55129 C 10.6312 8.35795, 10.7214 8.21171, 10.8642 8.11209, 11.007 8.01297, 11.1513 7.96291, 11.2966 7.96242, 11.4639 7.96291, 11.6043 8.01248, 11.7171 8.1116, 11.7873 8.19061, 11.8251 8.29513, 11.83 8.42567, 11.83 8.47327, 11.8246 8.52577, 11.8138 8.5827 L 10.6498 13.1209 C 10.5958 13.3358, 10.558 13.5375, 10.5364 13.7255, 10.5256 13.8202, 10.5203 13.9065, 10.5203 13.9846, 10.5203 14.0533, 10.5256 14.1264, 10.5364 14.2044, 10.5526 14.3305, 10.5904 14.4248, 10.6498 14.4876, 10.7092 14.5504, 10.7926 14.5818, 10.9001 14.5813, 11.0134 14.5818, 11.1199 14.5347, 11.2195 14.4405, 11.3196 14.3462, 11.4114 14.2064, 11.4948 14.0204, 11.5782 13.8349, 11.6577 13.6121, 11.7333 13.353, 11.8089 13.0939, 11.8869 12.8127, 11.9674 12.5085, 11.9998 12.373, 12.0915 12.3048, 12.2427 12.3043 L 12.4287 12.3043 C 12.569 12.3048, 12.6387 12.3622, 12.6387 12.4771 L 12.6387 12.532 Z M 10.3264 9.64266 C 10.3048 9.54893, 10.2862 9.45079, 10.27 9.34872, 10.2538 9.24664, 10.2293 9.14605, 10.1969 9.04594, 10.1105 8.80058, 9.98782 8.59496, 9.82882 8.43008, 9.66983 8.2652, 9.46912 8.18276, 9.2267 8.18227, 9.00048 8.18276, 8.77671 8.26422, 8.55589 8.42616, 8.33506 8.58859, 8.13239 8.79763, 7.94886 9.05379, 7.69074 9.41545, 7.49691 9.79135, 7.36736 10.181, 7.23781 10.5711, 7.11905 10.9779, 7.01109 11.4014, 6.90362 11.8205, 6.8148 12.2263, 6.74414 12.6184, 6.70145 12.8176, 6.67985 13.0061, 6.67985 13.1837, 6.67985 13.3726, 6.70145 13.5557, 6.74414 13.7333, 6.79321 13.9797, 6.88056 14.1828, 7.00717 14.3423, 7.13377 14.5023, 7.31043 14.5818, 7.53666 14.5813, 7.78496 14.5818, 8.03425 14.4954, 8.28452 14.3227, 8.53528 14.1499, 8.76837 13.938, 8.9838 13.6862, 9.07016 13.5822, 9.15261 13.4816, 9.23063 13.3844, 9.30915 13.2877, 9.37785 13.1842, 9.43673 13.0738 L 10.3264 9.64266 Z" stroke="none" fill="#000000" />
			<path d="M 1.32574 7.67678 C -3.91634 4.22223, -3.91634 -4.22223, 1.32574 -7.67678 L 2.14904 -7.67678 C -2.57848 -4.22223, -2.57848 4.22223, 2.14904 7.67678" stroke="none" fill="#000000" transform="matrix(1 0 -0 1 2.412 10.0888)" />
			<path d="M 1.32574 7.67678 C -3.91634 4.22223, -3.91634 -4.22223, 1.32574 -7.67678 L 2.14904 -7.67678 C -2.57848 -4.22223, -2.57848 4.22223, 2.14904 7.67678" stroke="none" fill="#000000" transform="matrix(-1 1.50996e-007 -1.50996e-007 -1 15.6145 10.0888)" />
			<rect />
		</svg>
	</g>
	<g transform="matrix(1 0 -0 1 370.584 206.162)">
		<svg width="66.0351563" height="50.9571304">
			<defs />
			<path d="M 11.076 11.4093 C 10.9469 11.8651, 10.7649 12.3156, 10.5303 12.7602, 10.2957 13.2053, 9.99002 13.616, 9.61266 13.9924, 9.30007 14.307, 8.94577 14.57, 8.54926 14.782, 8.15325 14.994, 7.74202 15.0995, 7.31608 15.0995, 6.90681 15.0995, 6.56429 14.9901, 6.28949 14.7702, 6.01468 14.5504, 5.80465 14.278, 5.65891 13.9532, 5.48666 13.5665, 5.3949 13.1503, 5.3841 12.7048 L 5.3841 12.6027 C 5.3841 12.1895, 5.43808 11.7788, 5.54555 11.37 L 7.17082 5.04949 C 7.21401 4.87725, 7.241 4.74623, 7.25179 4.65692 L 7.25179 4.63336 C 7.25179 4.58674, 7.241 4.55288, 7.21941 4.53129, 7.15463 4.49007, 7.03342 4.46112, 6.85578 4.44541, 6.67814 4.42971, 6.47302 4.42186, 6.2409 4.42137, 6.16043 4.42186, 6.10105 4.39585, 6.06326 4.34285, 6.03087 4.31194, 6.01468 4.27268, 6.01468 4.22508, 6.01468 4.19416, 6.02302 4.16521, 6.03873 4.13871 L 6.06326 4.01309 C 6.10645 3.88795, 6.20312 3.80944, 6.35426 3.77754 L 8.49676 3.60481, 8.52914 3.60481 C 8.59392 3.6053, 8.6479 3.6264, 8.69059 3.66762, 8.71218 3.70982, 8.72298 3.75202, 8.72298 3.79324, 8.72298 3.82514, 8.71513 3.85409, 8.69893 3.87961 L 7.53445 8.40211 C 7.6532 8.28238, 7.87158 8.1278, 8.18956 7.93936, 8.50755 7.75092, 8.84173 7.6567, 9.19211 7.65621, 9.61806 7.6567, 9.97825 7.76663, 10.2717 7.98647, 10.5656 8.20631, 10.7904 8.47572, 10.9464 8.79469, 11.13 9.18236, 11.2271 9.60144, 11.2379 10.0509 L 11.2379 10.1609 C 11.2379 10.5642, 11.184 10.9804, 11.076 11.4093 Z M 9.90366 9.02238 C 9.85557 8.77163, 9.7638 8.56896, 9.62885 8.41438, 9.4944 8.26029, 9.31921 8.18276, 9.10329 8.18227, 8.84468 8.18276, 8.59146 8.26667, 8.34316 8.43401, 8.09534 8.60184, 7.86372 8.81334, 7.64781 9.06949, 7.48096 9.28443, 7.33522 9.48612, 7.21106 9.67406 L 6.76647 11.4014 C 6.659 11.8205, 6.57803 12.2239, 6.52405 12.6105, 6.50246 12.7735, 6.49166 12.9276, 6.49166 13.0738, 6.49166 13.3044, 6.51865 13.5243, 6.57263 13.7333, 6.63201 13.9748, 6.73015 14.1764, 6.86756 14.3384, 7.00496 14.5008, 7.18702 14.5818, 7.41324 14.5813, 7.63995 14.5818, 7.86471 14.4984, 8.08847 14.3305, 8.31224 14.1632, 8.51295 13.9537, 8.69059 13.7019, 8.94969 13.3515, 9.145 12.9791, 9.27701 12.5836, 9.4095 12.1885, 9.52924 11.7842, 9.6367 11.37, 9.74466 10.9411, 9.83937 10.5279, 9.91985 10.1295, 9.95224 9.94151, 9.96843 9.75847, 9.96843 9.57985, 9.96843 9.3919, 9.94684 9.20592, 9.90366 9.02238 Z" stroke="none" fill="#000000" />
			<path d="M 1.32574 7.67678 C -3.91634 4.22223, -3.91634 -4.22223, 1.32574 -7.67678 L 2.14904 -7.67678 C -2.57848 -4.22223, -2.57848 4.22223, 2.14904 7.67678" stroke="none" fill="#000000" transform="matrix(1 0 -0 1 2.412 10.0888)" />
			<path d="M 1.32574 7.67678 C -3.91634 4.22223, -3.91634 -4.22223, 1.32574 -7.67678 L 2.14904 -7.67678 C -2.57848 -4.22223, -2.57848 4.22223, 2.14904 7.67678" stroke="none" fill="#000000" transform="matrix(-1 1.50996e-007 -1.50996e-007 -1 14.2154 10.0888)" />
			<rect />
		</svg>
	</g>
</svg>
