<svg width="746" height="591" xmlns="http://www.w3.org/2000/svg" xmlns:xlink="http://www.w3.org/1999/xlink" xml:space="preserve" overflow="hidden"><g transform="translate(-1805 -347)"><path d="M2543.86 734C2544.47 734.048 2545 734.265 2545.45 734.65 2545.9 735.035 2546.12 735.541 2546.12 736.166 2546.12 736.744 2545.67 738.79 2544.77 742.305 2544.59 743.123 2544.36 744.026 2544.1 745.013 2543.84 746 2543.64 746.734 2543.5 747.215L2543.36 747.937C2543.36 748.034 2544.54 748.082 2546.9 748.082L2550.5 748.082C2550.84 748.419 2551 748.683 2551 748.876 2551 749.935 2550.69 750.778 2550.08 751.404L2542.51 751.404 2539.96 761.874C2538.22 769.048 2537.32 772.827 2537.28 773.212 2537.23 773.453 2537.21 773.814 2537.21 774.295 2537.21 776.317 2537.84 777.328 2539.12 777.328 2539.45 777.328 2539.73 777.304 2539.96 777.256 2542.32 776.823 2544.47 774.897 2546.4 771.479 2546.87 770.709 2547.3 769.818 2547.68 768.807 2547.77 768.518 2547.89 768.337 2548.03 768.265 2548.17 768.193 2548.52 768.157 2549.09 768.157 2550.03 768.157 2550.5 768.35 2550.5 768.735 2550.5 768.831 2550.41 769.12 2550.22 769.601 2549.7 771.142 2548.87 772.695 2547.71 774.259 2546.56 775.824 2545.39 777.063 2544.21 777.978 2542.46 779.326 2540.6 780 2538.62 780 2536.92 780 2535.47 779.555 2534.27 778.664 2533.07 777.773 2532.25 776.606 2531.83 775.162 2531.74 774.777 2531.69 774.127 2531.69 773.212L2531.69 771.912 2534.16 761.802C2535.81 755.014 2536.66 751.596 2536.71 751.548 2536.71 751.452 2535.51 751.404 2533.1 751.404L2529.5 751.404C2529.16 751.067 2529 750.826 2529 750.681 2529 750.489 2529.08 750.092 2529.25 749.49 2529.41 748.888 2529.52 748.563 2529.57 748.515 2529.66 748.274 2529.88 748.142 2530.24 748.118 2530.59 748.094 2531.78 748.082 2533.81 748.082L2537.56 748.082 2538.9 742.305C2539.89 738.405 2540.46 736.311 2540.6 736.022 2541.17 734.674 2542.25 734 2543.86 734Z" fill-rule="evenodd"/><path d="M1823.22 403C1827.99 403 1830.87 404.655 1831.85 407.965 1831.95 408.208 1832 408.67 1832 409.352 1832 410.715 1831.63 411.822 1830.89 412.673 1830.16 413.525 1829.17 413.951 1827.94 413.951 1827.16 413.951 1826.52 413.732 1826.02 413.294 1825.53 412.856 1825.29 412.248 1825.29 411.469 1825.29 409.863 1826.02 408.695 1827.5 407.965 1827.89 407.77 1828.11 407.673 1828.16 407.673 1828.31 407.673 1828.29 407.551 1828.09 407.308 1826.91 406.237 1825.21 405.701 1823 405.701 1821.08 405.701 1819.46 406.237 1818.13 407.308 1816.8 408.378 1816.14 409.766 1816.14 411.469 1816.14 412.345 1816.51 413.124 1817.25 413.805 1817.74 414.243 1818.99 414.681 1821.01 415.119 1823.27 415.606 1824.75 416.02 1825.43 416.361 1827.75 417.383 1829.29 419.086 1830.08 421.471 1830.18 421.763 1830.25 422.396 1830.3 423.369 1830.3 425.024 1829.89 426.752 1829.05 428.553 1826.64 433.518 1822.11 436 1815.48 436 1810.21 436 1806.89 434.491 1805.52 431.474 1805.17 430.743 1805 429.892 1805 428.918 1805 427.409 1805.45 426.144 1806.36 425.122 1807.27 424.099 1808.42 423.588 1809.79 423.588 1810.73 423.588 1811.48 423.856 1812.04 424.391 1812.61 424.927 1812.89 425.633 1812.89 426.509 1812.89 427.336 1812.66 428.139 1812.19 428.918 1811.73 429.697 1811.1 430.281 1810.31 430.671 1809.67 430.914 1809.33 431.036 1809.28 431.036 1809.18 431.084 1809.09 431.121 1809.02 431.145 1808.95 431.169 1808.93 431.206 1808.98 431.255 1809.13 431.498 1809.57 431.814 1810.31 432.204 1811.74 432.934 1813.61 433.299 1815.92 433.299 1819.66 433.299 1822.29 432.106 1823.81 429.721 1824.55 428.504 1824.92 427.385 1824.92 426.363 1824.92 424.805 1824.11 423.637 1822.48 422.858 1822.04 422.566 1820.81 422.226 1818.79 421.836 1818.55 421.788 1818.17 421.702 1817.65 421.581 1817.14 421.459 1816.79 421.386 1816.62 421.362 1816.45 421.337 1816.2 421.277 1815.88 421.179 1815.56 421.082 1815.32 420.997 1815.14 420.924 1814.97 420.851 1814.77 420.753 1814.55 420.632 1814.33 420.51 1814.07 420.352 1813.78 420.157 1811.76 418.746 1810.75 416.75 1810.75 414.17 1810.75 411.445 1811.76 408.987 1813.78 406.796 1816.04 404.265 1819.19 403 1823.22 403Z" fill-rule="evenodd"/><path d="M1832.46 739.149C1831.69 739.149 1831.01 739.222 1830.42 739.369 1828.15 739.773 1826 740.801 1823.98 742.454 1823.14 743.116 1822.13 744.126 1820.95 745.485 1819.26 747.652 1817.83 750.434 1816.66 753.832 1815.48 757.229 1814.89 760.581 1814.89 763.887 1814.89 766.532 1815.42 768.772 1816.46 770.609 1817.51 772.445 1818.97 773.676 1820.84 774.3 1821.8 774.594 1822.69 774.741 1823.54 774.741 1825.78 774.741 1827.98 774.043 1830.15 772.647 1834.52 769.782 1837.71 765.081 1839.73 758.543 1840.8 755.053 1841.33 752.06 1841.33 749.562 1841.33 746.77 1840.69 744.475 1839.43 742.675 1838.16 740.875 1836.41 739.755 1834.17 739.314 1833.69 739.204 1833.12 739.149 1832.46 739.149ZM1831.52 737 1832.46 737C1833.86 737 1834.74 737.018 1835.1 737.055 1838.7 737.569 1841.58 739.149 1843.75 741.793 1845.92 744.438 1847 747.78 1847 751.821 1847 756.779 1845.4 761.481 1842.21 765.926 1840.12 768.938 1837.58 771.38 1834.61 773.253 1830.75 775.751 1826.88 777 1822.99 777 1819.06 777 1815.79 775.751 1813.19 773.253 1810.4 770.535 1809 766.899 1809 762.344 1809 761.059 1809.02 760.232 1809.06 759.865 1809.72 754.833 1811.85 750.205 1815.44 745.981 1816.47 744.805 1817.57 743.703 1818.75 742.675 1822.82 739.296 1827.08 737.404 1831.52 737Z" fill-rule="evenodd"/><path d="M1.92904e-06-3.4375 636.295-3.43714 636.295 3.43786-1.92904e-06 3.4375ZM610.527-19.0106 643.117 0.000360133 610.527 19.0112C608.888 19.9678 606.783 19.4139 605.826 17.7741 604.87 16.1342 605.423 14.0294 607.063 13.0728L634.563-2.96888 634.563 2.9696 607.063-13.0721C605.423-14.0287 604.87-16.1335 605.826-17.7734 606.783-19.4132 608.888-19.9672 610.527-19.0106Z" transform="matrix(1 0 0 -1 1866.5 757.5)"/><path d="M3.4375-2.23714e-06 3.43786 547.727-3.43714 547.727-3.4375 2.23714e-06ZM19.0112 521.96 0.000359758 554.55-19.0106 521.96C-19.9672 520.32-19.4133 518.215-17.7734 517.258-16.1335 516.302-14.0287 516.856-13.0721 518.496L2.9696 545.996-2.96888 545.996 13.0728 518.496C14.0294 516.856 16.1342 516.302 17.7741 517.258 19.4139 518.215 19.9678 520.32 19.0112 521.96Z" transform="matrix(1 0 0 -1 1866.5 937.034)"/><path d="M0 0 240.444 210.643" stroke="#000000" stroke-width="6.875" stroke-miterlimit="8" fill="none" fill-rule="evenodd" transform="matrix(1 0 0 -1 1866.5 634.143)"/><path d="M0 0 386.027 338.182" stroke="#000000" stroke-width="6.875" stroke-miterlimit="8" fill="none" fill-rule="evenodd" transform="matrix(1 0 0 -1 1866.5 758.682)"/><path d="M0 0 532.945 466.89" stroke="#000000" stroke-width="6.875" stroke-miterlimit="8" fill="none" fill-rule="evenodd" transform="matrix(1 0 0 -1 1866.5 887.39)"/><path d="M0 0 266.462 233.435" stroke="#000000" stroke-width="6.875" stroke-miterlimit="8" fill="none" fill-rule="evenodd" transform="matrix(1 0 0 -1 2162.5 756.935)"/><path d="M1866.5 470.5 2220.15 877.064" stroke="#000000" stroke-width="6.875" stroke-miterlimit="8" fill="none" fill-rule="evenodd"/><path d="M1866.5 586.5 2453.27 586.5" stroke="#000000" stroke-width="6.875" stroke-miterlimit="8" fill="none" fill-rule="evenodd"/></g></svg>