<?xml version="1.0"?>
<svg xmlns="http://www.w3.org/2000/svg" xmlns:xlink="http://www.w3.org/1999/xlink" width="362.291504" height="204.488464">
	<defs>
		<marker id="CustomMarker-01" markerUnits="strokeWidth" markerWidth="15.000001" markerHeight="9" viewBox="-15 -4.5 15 9" orient="auto-start-reverse">
			<path d="M 0 -0 L -10 -3, -8 -0.5, -8 0.5, -10 3 Z" fill="#000000" stroke="#000000" stroke-linejoin="round" />
		</marker>
		<marker id="CustomMarker-02" markerUnits="strokeWidth" markerWidth="15.000001" markerHeight="9" viewBox="-15 -4.5 15 9" orient="auto-start-reverse">
			<path d="M 0 -0 L -10 -3, -8 -0.5, -8 0.5, -10 3 Z" fill="#000000" stroke="#000000" stroke-linejoin="round" />
		</marker>
	</defs>
	<path d="M 10 -95.5816 L 9.20001 -94.3717, 8.40001 -92.7585, 6 -88.7255, 3.2 -83.4827, -0.4 -76.6266, -3.6 -70.1738, -9.60001 -58.0749, -10 -56.865, -10 95.5816, 10 95.5816 Z" stroke="none" fill="#000000" fill-opacity="0.274509788" transform="matrix(0.625 0 -0 0.625 106.44 115.873)" />
	<path d="M -225.22 131.651 L 225.22 131.651" fill="none" stroke="#000000" stroke-width="2.13333344" stroke-linecap="round" stroke-linejoin="round" marker-end="url(#CustomMarker-01)" transform="matrix(0.625 0 -0 0.625 195.981 93.33)" />
	<path d="M -225.22 131.651 L -225.22 -131.651" fill="none" stroke="#000000" stroke-width="2.13333344" stroke-linecap="round" stroke-linejoin="round" marker-end="url(#CustomMarker-02)" transform="matrix(0.625 0 -0 0.625 195.981 93.33)" />
	<g transform="matrix(1 0 -0 1 9 8.99998)">
		<svg width="111.060272" height="62.9142723">
			<defs />
			<path d="M 9.35195 5.61627 C 9.28268 5.88535, 9.14127 6.09203, 8.92715 6.23516, 8.7136 6.37886, 8.50292 6.45042, 8.2951 6.44985, 8.06896 6.45042, 7.88633 6.37084, 7.74778 6.21168, 7.64129 6.10863, 7.58461 5.97695, 7.57774 5.8178, 7.57774 5.75139, 7.59034 5.66551, 7.61553 5.56131, 7.68537 5.33002, 7.80331 5.14682, 7.96991 5.01228, 8.13651 4.87831, 8.26075 4.80445, 8.34204 4.79186, 8.22296 4.65789, 7.98709 4.59091, 7.63442 4.59034, 7.42717 4.59091, 7.22908 4.77125, 7.04016 5.13078, 7.00237 5.18632, 6.96 5.30998, 6.91306 5.50234, 6.86611 5.69471, 6.8123 5.93001, 6.75276 6.20768, 6.69321 6.48592, 6.63138 6.78019, 6.56841 7.09163, 6.50543 7.40308, 6.44875 7.7025, 6.39837 7.98875 L 6.1625 9.15209, 7.88919 9.15209 C 8.05293 9.15267, 8.13479 9.23511, 8.13479 9.39942 L 8.13479 9.46354, 8.09701 9.62842 C 8.02773 9.8122, 7.90522 9.9038, 7.72889 9.90323 L 6.01193 9.90323, 5.10622 14.465 C 5.01805 14.8932, 4.92416 15.3495, 4.8234 15.835, 4.72264 16.3205, 4.61271 16.8031, 4.49306 17.2823, 4.37341 17.7615, 4.23658 18.2149, 4.08257 18.642, 3.92857 19.0697, 3.76311 19.4424, 3.58678 19.7596, 3.48029 19.937, 3.35892 20.1157, 3.22381 20.2954, 3.08869 20.4758, 2.93984 20.6361, 2.7761 20.7763, 2.61237 20.9172, 2.43489 21.0345, 2.24252 21.129, 2.05073 21.224, 1.84463 21.271, 1.62479 21.271, 1.37975 21.271, 1.15018 21.2315, 0.936057 21.1519, 0.722511 21.0729, 0.538735 20.963, 0.384158 20.8221, 0.230725 20.6819, 0.115651 20.5107, 0.0395067 20.3092, 0.0148888 20.1992, 0.00229359 20.0893, 0.00172102 19.9794, 0.00229359 19.8758, 0.0148888 19.763, 0.0395067 19.6405, 0.109353 19.3657, 0.254198 19.1596, 0.474042 19.0222, 0.694458 18.8848, 0.911439 18.8161, 1.12441 18.8161, 1.3454 18.8161, 1.52746 18.8893, 1.67173 19.0359, 1.77879 19.1401, 1.83203 19.2712, 1.83203 19.4298, 1.83203 19.4973, 1.81944 19.5826, 1.79425 19.6863, 1.72555 19.9187, 1.60589 20.1048, 1.43643 20.245, 1.26697 20.3859, 1.14102 20.462, 1.05857 20.474, 1.16621 20.5966, 1.38605 20.6572, 1.71868 20.6572, 1.88242 20.6572, 2.03528 20.5656, 2.17669 20.3824, 2.3181 20.1992, 2.4326 19.9491, 2.52076 19.6313, 2.74118 18.8865, 2.94099 18.0609, 3.12018 17.1541, 3.29938 16.2472, 3.47686 15.3633, 3.65319 14.5016 L 4.58695 9.90323, 3.17171 9.90323 C 3.07782 9.9038, 3.00854 9.87346, 2.96446 9.81162, 2.92667 9.77556, 2.90778 9.72976, 2.90778 9.67422, 2.90778 9.63815, 2.91751 9.60438, 2.93583 9.57346 L 2.96446 9.43606 C 2.98335 9.35705, 3.02572 9.29007, 3.09156 9.23511, 3.15797 9.18015, 3.22839 9.15267, 3.30396 9.15209 L 4.73809 9.15209, 4.95508 8.00707 C 4.99286 7.76948, 5.04324 7.50727, 5.10622 7.21987, 5.16919 6.93305, 5.24419 6.64736, 5.33236 6.3634, 5.42053 6.07943, 5.52014 5.80635, 5.63006 5.54356, 5.73999 5.28135, 5.87395 5.05808, 6.03082 4.8743, 6.25753 4.61209, 6.5186 4.3974, 6.81401 4.22908, 7.10943 4.06134, 7.42087 3.97718, 7.74778 3.97661, 7.99338 3.97718, 8.22754 4.01382, 8.45082 4.0871, 8.6741 4.16038, 8.86303 4.26744, 9.01703 4.40771, 9.17104 4.54854, 9.27924 4.71629, 9.34222 4.91094, 9.3863 5.00941, 9.40806 5.1222, 9.40806 5.24987, 9.40806 5.35406, 9.38974 5.47658, 9.35195 5.61627 Z" stroke="none" fill="#000000" />
			<path d="M 27.1939 9.12461 C 27.3639 9.29007, 27.471 9.52193, 27.5145 9.82078, 27.5271 9.96792, 27.5334 10.1082, 27.5334 10.2422, 27.5334 10.4139, 27.5208 10.5845, 27.4956 10.7551, 27.4578 11.0975, 27.4 11.4444, 27.321 11.7954, 27.2425 12.1469, 27.1658 12.4595, 27.0902 12.7337, 26.9643 13.2536, 26.796 13.7969, 26.5853 14.3648, 26.3746 14.9327, 26.1153 15.4549, 25.8072 15.9312, 25.4992 16.4075, 25.1397 16.8077, 24.7275 17.1312, 24.3153 17.4546, 23.839 17.6161, 23.2979 17.6161, 22.8708 17.6161, 22.4666 17.5399, 22.0859 17.3871, 21.7058 17.2348, 21.4086 16.9875, 21.1945 16.6451, 20.9621 16.2976, 20.8487 15.9008, 20.855 15.4543, 20.855 15.4302, 20.8613 15.4062, 20.8739 15.381, 20.8739 14.9482, 20.9243 14.5114, 21.0245 14.0711, 21.1253 13.6503, 21.2718 13.1866, 21.4636 12.6793, 21.6554 12.1727, 21.8392 11.6809, 22.0149 11.204, 22.2039 10.6979, 22.2983 10.2822, 22.2983 9.95819, 22.2983 9.68396, 22.1821 9.54655, 21.9491 9.54598, 21.7356 9.54655, 21.542 9.60781, 21.3691 9.72976, 21.1962 9.85227, 21.0394 10.0217, 20.8974 10.2381, 20.756 10.4551, 20.6289 10.7116, 20.5155 11.0076, 20.4022 11.3042, 20.3077 11.6196, 20.2321 11.9551, 20.1634 12.1206, 20.0472 12.2059, 19.8835 12.2116 L 19.6665 12.2116 C 19.5154 12.2122, 19.4398 12.136, 19.4398 11.9826 L 19.4398 11.9185 C 19.528 11.583, 19.6447 11.24, 19.789 10.8885, 19.9339 10.5376, 20.1165 10.2187, 20.3363 9.93128, 20.5562 9.64445, 20.8081 9.40629, 21.0909 9.21679, 21.3737 9.02786, 21.6978 8.93282, 22.0625 8.93225, 22.3773 8.93282, 22.6458 9.00038, 22.8691 9.13435, 23.0924 9.26889, 23.2619 9.44751, 23.3781 9.67021, 23.4949 9.89349, 23.559 10.1448, 23.5716 10.4254 L 23.5716 10.4895 C 23.5716 10.7528, 23.5183 11.0242, 23.4113 11.3047, 23.2292 11.7816, 23.0483 12.2688, 22.8691 12.7663, 22.6899 13.2644, 22.5497 13.7116, 22.4489 14.1077, 22.3487 14.5234, 22.2794 14.9207, 22.2416 15.2986, 22.2291 15.3844, 22.2228 15.4669, 22.2228 15.5459, 22.2228 15.8213, 22.2703 16.0806, 22.3642 16.3245, 22.446 16.5386, 22.5794 16.7069, 22.7649 16.8289, 22.9504 16.9514, 23.1691 17.0121, 23.4204 17.0115, 23.7914 17.0121, 24.1264 16.8919, 24.4252 16.6503, 24.7241 16.4092, 24.9903 16.084, 25.2227 15.6747, 25.4551 15.2659, 25.6613 14.7999, 25.8404 14.2778, 26.0196 13.7556, 26.1782 13.2289, 26.3168 12.6971, 26.3798 12.4291, 26.4107 12.1727, 26.4107 11.9276, 26.4107 11.745, 26.3986 11.5709, 26.3735 11.4055, 26.2916 11.0093, 26.109 10.6733, 25.8261 10.3979, 25.6945 10.2702, 25.6252 10.1236, 25.6183 9.95819, 25.6183 9.8975, 25.628 9.83968, 25.6469 9.78414, 25.7036 9.57117, 25.8153 9.38625, 25.9819 9.23053, 26.1485 9.0748, 26.3448 8.97576, 26.5715 8.93225, 26.6093 8.9208, 26.6528 8.9145, 26.7032 8.91393, 26.8858 8.9145, 27.0496 8.98492, 27.1939 9.12461 Z" stroke="none" fill="#000000" />
			<path d="M 1.5467 8.95625 C -4.56906 4.92594, -4.56906 -4.92594, 1.5467 -8.95625 L 2.50721 -8.95625 C -3.00823 -4.92594, -3.00823 4.92594, 2.50721 8.95625" stroke="none" fill="#000000" transform="matrix(1 0 -0 1 15.9723 11.7703)" />
			<path d="M 1.5467 8.95625 C -4.56906 4.92594, -4.56906 -4.92594, 1.5467 -8.95625 L 2.50721 -8.95625 C -3.00823 -4.92594, -3.00823 4.92594, 2.50721 8.95625" stroke="none" fill="#000000" transform="matrix(-1 1.50996e-007 -1.50996e-007 -1 31.0071 11.7703)" />
			<rect />
		</svg>
	</g>
	<g transform="matrix(1 0 -0 1 345.196 164.404)">
		<svg width="30.0150681" height="32.9571342">
			<defs />
			<path d="M 7.75007 8.56181 C 7.9201 8.72727, 8.02716 8.95914, 8.07067 9.25799, 8.08327 9.40512, 8.08957 9.54539, 8.08957 9.67935, 8.08957 9.85111, 8.07697 10.0217, 8.05178 10.1923, 8.014 10.5347, 7.95617 10.8816, 7.87717 11.2326, 7.79873 11.5841, 7.72202 11.8967, 7.64644 12.1709, 7.52049 12.6908, 7.35217 13.2341, 7.14149 13.802, 6.93081 14.3699, 6.67146 14.8921, 6.36345 15.3684, 6.05544 15.8447, 5.69533 16.2449, 5.28312 16.5684, 4.87092 16.8918, 4.39459 17.0533, 3.85357 17.0533, 3.4259 17.0533, 3.02171 16.9771, 2.64099 16.8243, 2.26084 16.672, 1.96371 16.4247, 1.74959 16.0823, 1.51715 15.7348, 1.4038 15.338, 1.40952 14.8915, 1.40952 14.8674, 1.41582 14.8434, 1.42842 14.8182, 1.42842 14.3854, 1.4788 13.9486, 1.57956 13.5083, 1.68032 13.0875, 1.82688 12.6238, 2.01867 12.1165, 2.21046 11.6099, 2.39424 11.1181, 2.57 10.6412, 2.75893 10.1351, 2.85339 9.71943, 2.85339 9.39539, 2.85339 9.12116, 2.73717 8.98375, 2.50416 8.98318, 2.29062 8.98375, 2.09711 9.04501, 1.92421 9.16696, 1.75131 9.28947, 1.59387 9.45894, 1.45246 9.67535, 1.31105 9.89233, 1.18338 10.1488, 1.07002 10.4448, 0.956668 10.7414, 0.862776 11.0568, 0.787205 11.3923, 0.717931 11.5578, 0.601712 11.6431, 0.437974 11.6488 L 0.220993 11.6488 C 0.0698501 11.6494, -0.00572118 11.5732, -0.00572118 11.4198 L -0.00572118 11.3557 C 0.0824453 11.0202, 0.199237 10.6772, 0.34351 10.3257, 0.488355 9.97477, 0.670985 9.65588, 0.890829 9.36848, 1.11125 9.08165, 1.36315 8.84349, 1.64597 8.65399, 1.92879 8.46506, 2.25283 8.37002, 2.61752 8.36945, 2.9324 8.37002, 3.20091 8.43758, 3.42418 8.57155, 3.64746 8.70609, 3.8175 8.88471, 3.93372 9.10742, 4.05051 9.33069, 4.11463 9.58203, 4.12723 9.86256 L 4.12723 9.92668 C 4.12723 10.19, 4.07398 10.4614, 3.96635 10.7419, 3.78429 11.2188, 3.60395 11.706, 3.42418 12.2035, 3.24499 12.7016, 3.10472 13.1488, 3.00396 13.5449, 2.90377 13.9606, 2.8345 14.3579, 2.79671 14.7358, 2.78412 14.8216, 2.77782 14.9041, 2.77782 14.9831, 2.77782 15.2585, 2.82534 15.5178, 2.91923 15.7617, 3.0011 15.9758, 3.13507 16.1441, 3.32056 16.2661, 3.50605 16.3886, 3.72475 16.4493, 3.97608 16.4487, 4.34707 16.4493, 4.68199 16.3291, 4.98084 16.0875, 5.27969 15.8464, 5.54591 15.5212, 5.77834 15.1119, 6.01078 14.7031, 6.21689 14.2371, 6.39608 13.715, 6.57585 13.1928, 6.73444 12.6661, 6.87241 12.1343, 6.93539 11.8663, 6.96688 11.6099, 6.96688 11.3648, 6.96688 11.1822, 6.95428 11.0081, 6.92909 10.8427, 6.84779 10.4465, 6.66516 10.1105, 6.38177 9.83508, 6.25009 9.70741, 6.18082 9.56084, 6.17452 9.39539, 6.17452 9.3347, 6.18425 9.27688, 6.20257 9.22134, 6.25983 9.00837, 6.37146 8.82345, 6.53807 8.66773, 6.70467 8.512, 6.90104 8.41296, 7.12718 8.36945, 7.16496 8.358, 7.20905 8.3517, 7.25943 8.35113, 7.44206 8.3517, 7.6058 8.42212, 7.75007 8.56181 Z" stroke="none" fill="#000000" />
			<rect />
		</svg>
	</g>
	<path d="M -200.334 120.969 C -164.029 53.576, -110.939 -97.6966, -76.0294 -109.333, -41.1203 -120.969, -1.12027 -9.69668, 36.6979 33.2124, 74.5161 76.1214, 129.062 104.485, 200.334 105.212" fill="none" stroke="#000000" stroke-width="2.13333344" stroke-linecap="round" stroke-linejoin="round" transform="matrix(0.625 0 -0 0.625 180.428 100.006)" />
	<path d="M 0 76.2993 L 0 -76.2997" fill="none" stroke="#000000" stroke-width="2.13333344" stroke-linecap="round" stroke-linejoin="round" stroke-dasharray="7.47733, 5.32267" transform="matrix(0.625 0 0 0.625 100.213 127.925)" />
	<path d="M 0 96.0985 L 0 -96.0986" fill="none" stroke="#000000" stroke-width="2.13333344" stroke-linecap="round" stroke-linejoin="round" stroke-dasharray="7.47733, 5.32267" transform="matrix(0.625 0 0 0.625 112.8 115.55)" />
	<g transform="matrix(1 0 -0 1 88.6172 172.958)">
		<svg width="44.9376793" height="38.9999924">
			<defs />
			<path d="M 7.75007 8.56181 C 7.9201 8.72727, 8.02716 8.95914, 8.07067 9.25799, 8.08327 9.40512, 8.08957 9.54539, 8.08957 9.67935, 8.08957 9.85111, 8.07697 10.0217, 8.05178 10.1923, 8.014 10.5347, 7.95617 10.8816, 7.87717 11.2326, 7.79873 11.5841, 7.72202 11.8967, 7.64644 12.1709, 7.52049 12.6908, 7.35217 13.2341, 7.14149 13.802, 6.93081 14.3699, 6.67146 14.8921, 6.36345 15.3684, 6.05544 15.8447, 5.69533 16.2449, 5.28312 16.5684, 4.87092 16.8918, 4.39459 17.0533, 3.85357 17.0533, 3.4259 17.0533, 3.02171 16.9771, 2.64099 16.8243, 2.26084 16.672, 1.96371 16.4247, 1.74959 16.0823, 1.51715 15.7348, 1.4038 15.338, 1.40952 14.8915, 1.40952 14.8674, 1.41582 14.8434, 1.42842 14.8182, 1.42842 14.3854, 1.4788 13.9486, 1.57956 13.5083, 1.68032 13.0875, 1.82688 12.6238, 2.01867 12.1165, 2.21046 11.6099, 2.39424 11.1181, 2.57 10.6412, 2.75893 10.1351, 2.85339 9.71943, 2.85339 9.39539, 2.85339 9.12116, 2.73717 8.98375, 2.50416 8.98318, 2.29062 8.98375, 2.09711 9.04501, 1.92421 9.16696, 1.75131 9.28947, 1.59387 9.45894, 1.45246 9.67535, 1.31105 9.89233, 1.18338 10.1488, 1.07002 10.4448, 0.956668 10.7414, 0.862776 11.0568, 0.787205 11.3923, 0.717931 11.5578, 0.601712 11.6431, 0.437974 11.6488 L 0.220993 11.6488 C 0.0698501 11.6494, -0.00572118 11.5732, -0.00572118 11.4198 L -0.00572118 11.3557 C 0.0824453 11.0202, 0.199237 10.6772, 0.34351 10.3257, 0.488355 9.97477, 0.670985 9.65588, 0.890829 9.36848, 1.11125 9.08165, 1.36315 8.84349, 1.64597 8.65399, 1.92879 8.46506, 2.25283 8.37002, 2.61752 8.36945, 2.9324 8.37002, 3.20091 8.43758, 3.42418 8.57155, 3.64746 8.70609, 3.8175 8.88471, 3.93372 9.10742, 4.05051 9.33069, 4.11463 9.58203, 4.12723 9.86256 L 4.12723 9.92668 C 4.12723 10.19, 4.07398 10.4614, 3.96635 10.7419, 3.78429 11.2188, 3.60395 11.706, 3.42418 12.2035, 3.24499 12.7016, 3.10472 13.1488, 3.00396 13.5449, 2.90377 13.9606, 2.8345 14.3579, 2.79671 14.7358, 2.78412 14.8216, 2.77782 14.9041, 2.77782 14.9831, 2.77782 15.2585, 2.82534 15.5178, 2.91923 15.7617, 3.0011 15.9758, 3.13507 16.1441, 3.32056 16.2661, 3.50605 16.3886, 3.72475 16.4493, 3.97608 16.4487, 4.34707 16.4493, 4.68199 16.3291, 4.98084 16.0875, 5.27969 15.8464, 5.54591 15.5212, 5.77834 15.1119, 6.01078 14.7031, 6.21689 14.2371, 6.39608 13.715, 6.57585 13.1928, 6.73444 12.6661, 6.87241 12.1343, 6.93539 11.8663, 6.96688 11.6099, 6.96688 11.3648, 6.96688 11.1822, 6.95428 11.0081, 6.92909 10.8427, 6.84779 10.4465, 6.66516 10.1105, 6.38177 9.83508, 6.25009 9.70741, 6.18082 9.56084, 6.17452 9.39539, 6.17452 9.3347, 6.18425 9.27688, 6.20257 9.22134, 6.25983 9.00837, 6.37146 8.82345, 6.53807 8.66773, 6.70467 8.512, 6.90104 8.41296, 7.12718 8.36945, 7.16496 8.358, 7.20905 8.3517, 7.25943 8.35113, 7.44206 8.3517, 7.6058 8.42212, 7.75007 8.56181 Z" stroke="none" fill="#000000" />
			<path d="M 2.37267 3.19713 C 1.72472 3.17661, 1.09441 3.16635, 0.481416 3.16635, -0.131261 3.16635, -0.761571 3.17661, -1.40951 3.19713 L -1.40951 2.75598, -1.04499 2.75598 C -0.928927 2.7563, -0.819601 2.75469, -0.717648 2.75117, -0.615375 2.74796, -0.518552 2.7393, -0.426859 2.72552, -0.335166 2.71205, -0.255976 2.69827, -0.18929 2.68416, -0.132864 2.67422, -0.086376 2.6428, -0.0495062 2.58958, -0.012316 2.53668, 0.00595856 2.47769, 0.00595856 2.41229 L 0.00595856 -3.36887 C -0.169733 -3.28295, -0.386463 -3.21787, -0.643588 -3.17362, -0.900714 -3.12906, -1.18221 -3.10694, -1.4887 -3.10726 L -1.4887 -3.54328 C -1.06615 -3.54296, -0.675969 -3.59329, -0.318494 -3.69429, 0.0389807 -3.79496, 0.348044 -3.98411, 0.608376 -4.26144 L 0.772206 -4.26144 C 0.888265 -4.26112, 0.946294 -4.20469, 0.946294 -4.09216 L 0.946294 2.41229 C 0.946294 2.4809, 0.963928 2.54085, 0.999194 2.59215, 1.03446 2.64344, 1.08576 2.67422, 1.15244 2.68416, 1.20887 2.69827, 1.28133 2.71205, 1.36917 2.72552, 1.45702 2.7393, 1.55641 2.74796, 1.66734 2.75117, 1.77827 2.75469, 1.88663 2.7563, 1.99243 2.75598 L 2.37267 2.75598, 2.37267 3.19713 Z" stroke="none" fill="#000000" transform="matrix(1.12 0 0 1 10.5583 16.3063)" />
			<rect />
		</svg>
	</g>
	<g transform="matrix(1 0 -0 1 112.538 172.958)">
		<svg width="48.0251122" height="38.9999924">
			<defs />
			<path d="M 7.75007 8.56181 C 7.9201 8.72727, 8.02716 8.95914, 8.07067 9.25799, 8.08327 9.40512, 8.08957 9.54539, 8.08957 9.67935, 8.08957 9.85111, 8.07697 10.0217, 8.05178 10.1923, 8.014 10.5347, 7.95617 10.8816, 7.87717 11.2326, 7.79873 11.5841, 7.72202 11.8967, 7.64644 12.1709, 7.52049 12.6908, 7.35217 13.2341, 7.14149 13.802, 6.93081 14.3699, 6.67146 14.8921, 6.36345 15.3684, 6.05544 15.8447, 5.69533 16.2449, 5.28312 16.5684, 4.87092 16.8918, 4.39459 17.0533, 3.85357 17.0533, 3.4259 17.0533, 3.02171 16.9771, 2.64099 16.8243, 2.26084 16.672, 1.96371 16.4247, 1.74959 16.0823, 1.51715 15.7348, 1.4038 15.338, 1.40952 14.8915, 1.40952 14.8674, 1.41582 14.8434, 1.42842 14.8182, 1.42842 14.3854, 1.4788 13.9486, 1.57956 13.5083, 1.68032 13.0875, 1.82688 12.6238, 2.01867 12.1165, 2.21046 11.6099, 2.39424 11.1181, 2.57 10.6412, 2.75893 10.1351, 2.85339 9.71943, 2.85339 9.39539, 2.85339 9.12116, 2.73717 8.98375, 2.50416 8.98318, 2.29062 8.98375, 2.09711 9.04501, 1.92421 9.16696, 1.75131 9.28947, 1.59387 9.45894, 1.45246 9.67535, 1.31105 9.89233, 1.18338 10.1488, 1.07002 10.4448, 0.956668 10.7414, 0.862776 11.0568, 0.787205 11.3923, 0.717931 11.5578, 0.601712 11.6431, 0.437974 11.6488 L 0.220993 11.6488 C 0.0698501 11.6494, -0.00572118 11.5732, -0.00572118 11.4198 L -0.00572118 11.3557 C 0.0824453 11.0202, 0.199237 10.6772, 0.34351 10.3257, 0.488355 9.97477, 0.670985 9.65588, 0.890829 9.36848, 1.11125 9.08165, 1.36315 8.84349, 1.64597 8.65399, 1.92879 8.46506, 2.25283 8.37002, 2.61752 8.36945, 2.9324 8.37002, 3.20091 8.43758, 3.42418 8.57155, 3.64746 8.70609, 3.8175 8.88471, 3.93372 9.10742, 4.05051 9.33069, 4.11463 9.58203, 4.12723 9.86256 L 4.12723 9.92668 C 4.12723 10.19, 4.07398 10.4614, 3.96635 10.7419, 3.78429 11.2188, 3.60395 11.706, 3.42418 12.2035, 3.24499 12.7016, 3.10472 13.1488, 3.00396 13.5449, 2.90377 13.9606, 2.8345 14.3579, 2.79671 14.7358, 2.78412 14.8216, 2.77782 14.9041, 2.77782 14.9831, 2.77782 15.2585, 2.82534 15.5178, 2.91923 15.7617, 3.0011 15.9758, 3.13507 16.1441, 3.32056 16.2661, 3.50605 16.3886, 3.72475 16.4493, 3.97608 16.4487, 4.34707 16.4493, 4.68199 16.3291, 4.98084 16.0875, 5.27969 15.8464, 5.54591 15.5212, 5.77834 15.1119, 6.01078 14.7031, 6.21689 14.2371, 6.39608 13.715, 6.57585 13.1928, 6.73444 12.6661, 6.87241 12.1343, 6.93539 11.8663, 6.96688 11.6099, 6.96688 11.3648, 6.96688 11.1822, 6.95428 11.0081, 6.92909 10.8427, 6.84779 10.4465, 6.66516 10.1105, 6.38177 9.83508, 6.25009 9.70741, 6.18082 9.56084, 6.17452 9.39539, 6.17452 9.3347, 6.18425 9.27688, 6.20257 9.22134, 6.25983 9.00837, 6.37146 8.82345, 6.53807 8.66773, 6.70467 8.512, 6.90104 8.41296, 7.12718 8.36945, 7.16496 8.358, 7.20905 8.3517, 7.25943 8.35113, 7.44206 8.3517, 7.6058 8.42212, 7.75007 8.56181 Z" stroke="none" fill="#000000" />
			<path d="M 2.39138 3.19713 L -1.90858 3.19713, -1.90858 2.915 C -1.90858 2.8948, -1.898 2.86402, -1.87684 2.82266 L -0.149418 0.945196 C 0.0551279 0.71981, 0.261918 0.488975, 0.471594 0.253009, 0.68127 0.0170434, 0.868504 -0.224052, 1.03394 -0.470277, 1.19937 -0.716502, 1.33146 -0.970422, 1.4302 -1.23204, 1.52895 -1.49365, 1.578 -1.76809, 1.578 -2.05567, 1.578 -2.29805, 1.54658 -2.52472, 1.4831 -2.73503, 1.41962 -2.94535, 1.32825 -3.13002, 1.20835 -3.28904, 1.08844 -3.44806, 0.938716 -3.5763, 0.759177 -3.67377, 0.579638 -3.77123, 0.371886 -3.81996, 0.13592 -3.82028, -0.216105 -3.81996, -0.527092 -3.7148, -0.7964 -3.50449, -1.06571 -3.29417, -1.24461 -3.06237, -1.33277 -2.80974, -1.35009 -2.80268, -1.32187 -2.79915, -1.24813 -2.79948 L -1.15836 -2.79948 C -1.05256 -2.77511, -0.961191 -2.73824, -0.883605 -2.68887, -0.806018 -2.63917, -0.740935 -2.57088, -0.688036 -2.48368, -0.635136 -2.39647, -0.608846 -2.29132, -0.608846 -2.16852, -0.608846 -1.96302, -0.675532 -1.8056, -0.809545 -1.69627, -0.943558 -1.58663, -1.09328 -1.53212, -1.25871 -1.53244, -1.41709 -1.53212, -1.56489 -1.58663, -1.70243 -1.69627, -1.83965 -1.8056, -1.90858 -1.96302, -1.90858 -2.16852, -1.90858 -2.45547, -1.85215 -2.72734, -1.7393 -2.98382, -1.62645 -3.24031, -1.47352 -3.46249, -1.27987 -3.65068, -1.08623 -3.83856, -0.857315 -3.98732, -0.593136 -4.09697, -0.328958 -4.20629, -0.0487483 -4.26112, 0.24685 -4.26144, 0.612981 -4.26112, 0.948655 -4.20725, 1.25323 -4.09953, 1.55781 -3.99181, 1.8175 -3.83695, 2.0323 -3.63529, 2.24711 -3.43331, 2.41543 -3.19991, 2.53693 -2.93509, 2.65844 -2.66995, 2.71904 -2.37692, 2.71904 -2.05567, 2.71904 -1.6998, 2.63825 -1.37214, 2.47602 -1.07302, 2.31411 -0.77357, 2.11342 -0.499131, 1.87392 -0.2497, 1.63443 5.126e-005, 1.37987 0.235055, 1.11056 0.455632, 0.841252 0.676208, 0.597272 0.890693, 0.378939 1.09909 L -0.836155 2.24301, 0.754048 2.24301 C 0.975907 2.24333, 1.18302 2.24172, 1.37474 2.2382, 1.56678 2.23499, 1.72965 2.22794, 1.86334 2.21768, 1.99736 2.20742, 2.06597 2.20069, 2.06917 2.19684, 2.09738 2.17312, 2.12399 2.12534, 2.14868 2.05353, 2.17337 1.98171, 2.19613 1.89707, 2.21729 1.79961, 2.23845 1.70215, 2.25961 1.60308, 2.28077 1.50209, 2.30193 1.40142, 2.32117 1.29081, 2.3388 1.1709 L 2.72962 1.1709 Z" stroke="none" fill="#000000" transform="matrix(1.12 0 0 1 10.9812 16.3063)" />
			<rect />
		</svg>
	</g>
	<g transform="matrix(1 0 -0 1 195.676 49.0738)">
		<svg width="452.993866" height="98.9142685">
			<defs />
			<path d="M 9.8841 8.67256 C 9.84631 8.84432, 9.75242 8.92962, 9.60128 8.92905, 9.58868 8.94164, 9.55719 8.94794, 9.50681 8.94737, 9.47532 8.94794, 9.45013 8.94164, 9.43124 8.92905 L 9.34651 8.92905 C 9.18277 8.92962, 9.1009 8.86836, 9.1009 8.74584 L 9.1009 8.68172 C 9.17647 8.23059, 9.21426 7.81208, 9.21426 7.42678 L 9.21426 7.0787 C 9.17647 6.60924, 9.07113 6.20447, 8.89823 5.86555, 8.72534 5.52662, 8.47229 5.26441, 8.13908 5.07777, 7.80588 4.89171, 7.38394 4.79839, 6.87441 4.79782, 6.579 4.79839, 6.27843 4.86251, 5.97328 4.99075, 5.66871 5.11899, 5.38417 5.29304, 5.11967 5.51231, 4.83055 5.75105, 4.59468 6.02127, 4.41205 6.32355, 4.22999 6.62584, 4.09774 6.93557, 4.0153 7.25274, 3.95289 7.47945, 3.91854 7.69586, 3.91167 7.90311, 3.91167 8.19051, 3.97465 8.46531, 4.1006 8.72752, 4.28323 9.16778, 4.61014 9.44889, 5.08188 9.57026 L 7.2517 10.1748 C 7.64787 10.2916, 7.98623 10.4765, 8.26618 10.7296, 8.54614 10.9832, 8.75682 11.2826, 8.89823 11.6273, 9.04022 11.9725, 9.12323 12.3492, 9.14842 12.758 L 9.14842 12.9229 C 9.14842 13.2778, 9.09804 13.6408, 8.99728 14.0129, 8.8656 14.5265, 8.65492 15.0211, 8.36523 15.4975, 8.07611 15.9738, 7.71772 16.4014, 7.28948 16.7793, 6.88071 17.128, 6.43301 17.4073, 5.94523 17.6175, 5.45745 17.8281, 4.96853 17.9335, 4.47789 17.9335, 3.75481 17.9335, 3.13821 17.8178, 2.62868 17.5854, 2.11915 17.3541, 1.74186 17.061, 1.49625 16.706 L 0.562492 17.8144 C 0.481195 17.894, 0.395891 17.9335, 0.307725 17.9335 L 0.251046 17.9335 C 0.0941787 17.9335, 0.00887477 17.8728, -0.0037204 17.7503, -0.0037204 17.7136, 0.00601226 17.6804, 0.0243326 17.6495 L 1.11897 13.3626 C 1.15676 13.192, 1.26725 13.1038, 1.44931 13.0969 L 1.65656 13.0969 C 1.73213 13.0975, 1.8014 13.1278, 1.86438 13.1885, 1.88957 13.2378, 1.90216 13.2807, 1.90216 13.3168, 1.90216 13.342, 1.89587 13.3723, 1.88327 13.4084, 1.76991 13.8486, 1.71324 14.258, 1.71324 14.6358, 1.71324 15.241, 1.86152 15.7539, 2.15693 16.1747, 2.62868 16.8532, 3.45309 17.1921, 4.62903 17.1915, 4.92444 17.1921, 5.22501 17.1234, 5.53016 16.986, 5.83531 16.8486, 6.11984 16.6637, 6.38377 16.4312, 6.67346 16.1633, 6.91678 15.8656, 7.11487 15.5387, 7.31295 15.2123, 7.45952 14.8746, 7.55341 14.5259, 7.61638 14.2454, 7.64787 13.9832, 7.64787 13.7381, 7.64787 13.4336, 7.60722 13.1404, 7.52535 12.8588, 7.337 12.3893, 6.98777 12.087, 6.47823 11.9519 L 4.33648 11.3473 C 3.95289 11.2443, 3.62256 11.0748, 3.34546 10.8395, 3.06894 10.6048, 2.85368 10.3254, 2.69967 10.0014, 2.54567 9.67789, 2.45578 9.32064, 2.43059 8.92905 L 2.43059 8.72752 C 2.43059 8.42295, 2.46838 8.10234, 2.54395 7.76571, 2.6762 7.27793, 2.88688 6.81076, 3.176 6.36478, 3.46569 5.91936, 3.82408 5.5249, 4.25117 5.18254, 4.65422 4.85335, 5.0962 4.58942, 5.5771 4.39076, 6.05859 4.19267, 6.53491 4.09306, 7.00666 4.09248, 7.65474 4.09306, 8.18889 4.21386, 8.61026 4.45488, 9.03163 4.69648, 9.33678 4.98159, 9.5257 5.31079 L 10.4314 4.22073 C 10.4818 4.13599, 10.5637 4.09306, 10.6764 4.09248 L 10.7618 4.09248 C 10.9129 4.09306, 10.9879 4.16634, 10.9879 4.31233 L 10.9879 4.38561 Z" stroke="none" fill="#000000" />
			<polyline points="-6.566 -1.9698 6.566 -1.9698" fill="none" stroke="#000000" stroke-width="0.750400007" stroke-linecap="round" stroke-linejoin="round" transform="matrix(1 0 0 1 22.998 11.8861)" />
			<polyline points="-6.566 1.9698 6.566 1.9698" fill="none" stroke="#000000" stroke-width="0.750400007" stroke-linecap="round" stroke-linejoin="round" transform="matrix(1 0 0 1 22.998 11.8861)" />
			<path d="M 47.9849 8.12295 C 47.847 8.61817, 47.6111 9.07504, 47.2779 9.49297, 46.9447 9.91147, 46.5485 10.2733, 46.0893 10.5779, 45.5924 10.9202, 45.0628 11.1784, 44.5001 11.3525, 43.9373 11.5265, 43.3791 11.6135, 42.8255 11.613 L 40.0236 11.613, 38.8448 16.1931 C 38.807 16.3282, 38.7881 16.4346, 38.7881 16.5137, 38.7881 16.5875, 38.8042 16.6333, 38.8351 16.6511, 38.9232 16.7066, 39.0967 16.7387, 39.3543 16.7478, 39.612 16.757, 39.8885 16.7616, 40.1839 16.761, 40.3602 16.7616, 40.4484 16.8469, 40.4484 17.0175 L 40.4484 17.0816, 40.4106 17.2465 C 40.3419 17.4297, 40.2188 17.5213, 40.0425 17.5213, 39.257 17.4846, 38.4675 17.4663, 37.6752 17.4663, 36.8765 17.4663, 36.0779 17.4846, 35.2792 17.5213, 35.1098 17.5213, 35.0187 17.4423, 35.0056 17.2831 L 35.0056 17.2098, 35.0433 17.0541 C 35.0937 16.8532, 35.2162 16.7553, 35.4109 16.761, 35.7069 16.7616, 35.9868 16.757, 36.2508 16.7478, 36.5153 16.7387, 36.7099 16.7066, 36.8353 16.6511, 36.955 16.5846, 37.046 16.4198, 37.109 16.1564 L 39.7597 5.83291 C 39.7975 5.69895, 39.8164 5.59532, 39.8164 5.52147, 39.8164 5.44876, 39.8009 5.40582, 39.7688 5.39323, 39.6812 5.33884, 39.5101 5.30563, 39.2553 5.29304, 39.0005 5.28101, 38.7223 5.27472, 38.42 5.27414, 38.2442 5.27472, 38.1561 5.19228, 38.1561 5.02682 L 38.1561 4.95354, 38.2128 4.79782 C 38.2505 4.61519, 38.3668 4.52358, 38.5614 4.52301 L 44.6083 4.52301 C 45.1619 4.52358, 45.676 4.61061, 46.1506 4.78465, 46.6258 4.95869, 47.0328 5.21976, 47.3718 5.56727, 47.6804 5.89131, 47.8973 6.27604, 48.0227 6.72145, 48.0605 6.92984, 48.0794 7.14053, 48.0794 7.3535, 48.0794 7.59853, 48.0479 7.85502, 47.9849 8.12295 Z M 45.976 8.07715 C 46.083 7.693, 46.1552 7.32029, 46.193 6.95961 L 46.193 6.79473 C 46.193 6.5142, 46.1145 6.25772, 45.9571 6.02528, 45.7499 5.75105, 45.4728 5.55754, 45.127 5.44418, 44.7812 5.3314, 44.4073 5.27472, 44.0043 5.27414 L 42.2312 5.27414 C 41.9106 5.27472, 41.7188 5.29933, 41.6558 5.348, 41.5929 5.39723, 41.527 5.5707, 41.4577 5.86955 L 40.1461 10.926, 42.5049 10.926 C 42.9136 10.9265, 43.3224 10.8687, 43.7312 10.7525, 44.14 10.6368, 44.5235 10.4382, 44.8819 10.1565, 45.2025 9.88228, 45.4401 9.56167, 45.5941 9.19526, 45.7481 8.82886, 45.8752 8.45615, 45.976 8.07715 Z" stroke="none" fill="#000000" />
			<path d="M 65.8658 9.24049 C 66.0358 9.40595, 66.1429 9.63781, 66.1864 9.93666, 66.199 10.0838, 66.2053 10.2241, 66.2053 10.358, 66.2053 10.5298, 66.1927 10.7004, 66.1675 10.871, 66.1297 11.2134, 66.0719 11.5603, 65.9929 11.9113, 65.9144 12.2628, 65.8377 12.5754, 65.7621 12.8496, 65.6362 13.3694, 65.4679 13.9127, 65.2572 14.4807, 65.0465 15.0486, 64.7872 15.5707, 64.4791 16.0471, 64.1711 16.5234, 63.8116 16.9236, 63.3994 17.247, 62.9872 17.5705, 62.5109 17.732, 61.9698 17.732, 61.5427 17.732, 61.1386 17.6558, 60.7578 17.503, 60.3777 17.3507, 60.0806 17.1033, 59.8664 16.761, 59.634 16.4135, 59.5206 16.0167, 59.5269 15.5702, 59.5269 15.5461, 59.5332 15.5221, 59.5458 15.4969, 59.5458 15.0641, 59.5962 14.6272, 59.6964 14.187, 59.7972 13.7662, 59.9437 13.3024, 60.1355 12.7952, 60.3273 12.2885, 60.5111 11.7967, 60.6868 11.3198, 60.8758 10.8137, 60.9702 10.3981, 60.9702 10.0741, 60.9702 9.79983, 60.854 9.66243, 60.621 9.66186, 60.4075 9.66243, 60.214 9.72369, 60.0411 9.84563, 59.8682 9.96815, 59.7113 10.1376, 59.5693 10.354, 59.4279 10.571, 59.3008 10.8275, 59.1874 11.1235, 59.0741 11.42, 58.9796 11.7355, 58.904 12.071, 58.8353 12.2364, 58.7191 12.3217, 58.5554 12.3275 L 58.3384 12.3275 C 58.1873 12.328, 58.1117 12.2519, 58.1117 12.0985 L 58.1117 12.0343 C 58.1999 11.6988, 58.3167 11.3559, 58.4609 11.0044, 58.6058 10.6534, 58.7884 10.3346, 59.0082 10.0472, 59.2281 9.76033, 59.48 9.52217, 59.7628 9.33267, 60.0456 9.14374, 60.3697 9.0487, 60.7344 9.04813, 61.0492 9.0487, 61.3177 9.11626, 61.541 9.25023, 61.7643 9.38476, 61.9338 9.56339, 62.05 9.78609, 62.1668 10.0094, 62.2309 10.2607, 62.2435 10.5412 L 62.2435 10.6054 C 62.2435 10.8687, 62.1903 11.1401, 62.0832 11.4206, 61.9011 11.8975, 61.7202 12.3847, 61.541 12.8822, 61.3618 13.3803, 61.2216 13.8274, 61.1208 14.2236, 61.0206 14.6393, 60.9513 15.0366, 60.9136 15.4144, 60.901 15.5003, 60.8947 15.5828, 60.8947 15.6618, 60.8947 15.9371, 60.9422 16.1965, 61.0361 16.4404, 61.1179 16.6545, 61.2513 16.8228, 61.4368 16.9448, 61.6223 17.0673, 61.841 17.128, 62.0924 17.1274, 62.4633 17.128, 62.7983 17.0077, 63.0971 16.7661, 63.396 16.5251, 63.6622 16.1999, 63.8946 15.7906, 64.1271 15.3818, 64.3332 14.9158, 64.5124 14.3937, 64.6916 13.8715, 64.8501 13.3448, 64.9887 12.813, 65.0517 12.545, 65.0826 12.2885, 65.0826 12.0435, 65.0826 11.8609, 65.0705 11.6868, 65.0454 11.5214, 64.9635 11.1252, 64.7809 10.7891, 64.498 10.5138, 64.3664 10.3861, 64.2971 10.2395, 64.2902 10.0741, 64.2902 10.0134, 64.2999 9.95556, 64.3188 9.90002, 64.3755 9.68705, 64.4872 9.50213, 64.6538 9.34641, 64.8204 9.19068, 65.0167 9.09164, 65.2434 9.04813, 65.2812 9.03668, 65.3247 9.03038, 65.3751 9.02981, 65.5578 9.03038, 65.7215 9.1008, 65.8658 9.24049 Z" stroke="none" fill="#000000" />
			<path d="M 2.37267 3.19713 C 1.72472 3.17661, 1.09441 3.16635, 0.481416 3.16635, -0.131261 3.16635, -0.761571 3.17661, -1.40951 3.19713 L -1.40951 2.75598, -1.04499 2.75598 C -0.928927 2.7563, -0.819601 2.75469, -0.717648 2.75117, -0.615375 2.74796, -0.518552 2.7393, -0.426859 2.72552, -0.335166 2.71205, -0.255976 2.69827, -0.18929 2.68416, -0.132864 2.67422, -0.086376 2.6428, -0.0495062 2.58958, -0.012316 2.53668, 0.00595856 2.47769, 0.00595856 2.41229 L 0.00595856 -3.36887 C -0.169733 -3.28295, -0.386463 -3.21787, -0.643588 -3.17362, -0.900714 -3.12906, -1.18221 -3.10694, -1.4887 -3.10726 L -1.4887 -3.54328 C -1.06615 -3.54296, -0.675969 -3.59329, -0.318494 -3.69429, 0.0389807 -3.79496, 0.348044 -3.98411, 0.608376 -4.26144 L 0.772206 -4.26144 C 0.888265 -4.26112, 0.946294 -4.20469, 0.946294 -4.09216 L 0.946294 2.41229 C 0.946294 2.4809, 0.963928 2.54085, 0.999194 2.59215, 1.03446 2.64344, 1.08576 2.67422, 1.15244 2.68416, 1.20887 2.69827, 1.28133 2.71205, 1.36917 2.72552, 1.45702 2.7393, 1.55641 2.74796, 1.66734 2.75117, 1.77827 2.75469, 1.88663 2.7563, 1.99243 2.75598 L 2.37267 2.75598, 2.37267 3.19713 Z" stroke="none" fill="#000000" transform="matrix(1.12 0 0 1 68.6714 16.985)" />
			<polyline points="-5.2528 6.04072 0 -6.04072" fill="none" stroke="#000000" stroke-width="0.750400007" stroke-linecap="round" stroke-linejoin="round" transform="matrix(-4.37114e-008 -1 1 -4.37114e-008 83.6652 11.8861)" />
			<polyline points="0 -6.04072 5.2528 6.04072" fill="none" stroke="#000000" stroke-width="0.750400007" stroke-linecap="round" stroke-linejoin="round" transform="matrix(-4.37114e-008 -1 1 -4.37114e-008 83.6652 11.8861)" />
			<ellipse cx="-5.252799779176712" cy="6.0407201945781708" rx="0.37520000338554382" ry="0.37520000338554382" stroke="none" fill="#000000" transform="matrix(-4.37114e-008 -1 1 -4.37114e-008 83.6652 11.8861)" />
			<ellipse cx="-0" cy="-6.0407197773456573" rx="0.37520000338554382" ry="0.37520000338554382" stroke="none" fill="#000000" transform="matrix(-4.37114e-008 -1 1 -4.37114e-008 83.6652 11.8861)" />
			<ellipse cx="5.2528001964092255" cy="6.0407201945781708" rx="0.37520000338554382" ry="0.37520000338554382" stroke="none" fill="#000000" transform="matrix(-4.37114e-008 -1 1 -4.37114e-008 83.6652 11.8861)" />
			<path d="M 103.422 9.24049 C 103.593 9.40595, 103.7 9.63781, 103.743 9.93666, 103.756 10.0838, 103.762 10.2241, 103.762 10.358, 103.762 10.5298, 103.749 10.7004, 103.724 10.871, 103.686 11.2134, 103.629 11.5603, 103.55 11.9113, 103.471 12.2628, 103.394 12.5754, 103.319 12.8496, 103.193 13.3694, 103.025 13.9127, 102.814 14.4807, 102.603 15.0486, 102.344 15.5707, 102.036 16.0471, 101.728 16.5234, 101.368 16.9236, 100.956 17.247, 100.544 17.5705, 100.068 17.732, 99.5265 17.732, 99.0995 17.732, 98.6953 17.6558, 98.3145 17.503, 97.9344 17.3507, 97.6373 17.1033, 97.4231 16.761, 97.1907 16.4135, 97.0773 16.0167, 97.0836 15.5702, 97.0836 15.5461, 97.0899 15.5221, 97.1025 15.4969, 97.1025 15.0641, 97.1529 14.6272, 97.2531 14.187, 97.3539 13.7662, 97.5004 13.3024, 97.6922 12.7952, 97.884 12.2885, 98.0678 11.7967, 98.2436 11.3198, 98.4325 10.8137, 98.5269 10.3981, 98.5269 10.0741, 98.5269 9.79983, 98.4107 9.66243, 98.1777 9.66186, 97.9642 9.66243, 97.7707 9.72369, 97.5978 9.84563, 97.4249 9.96815, 97.268 10.1376, 97.126 10.354, 96.9846 10.571, 96.8575 10.8275, 96.7441 11.1235, 96.6308 11.42, 96.5363 11.7355, 96.4608 12.071, 96.3921 12.2364, 96.2758 12.3217, 96.1121 12.3275 L 95.8951 12.3275 C 95.744 12.328, 95.6684 12.2519, 95.6684 12.0985 L 95.6684 12.0343 C 95.7566 11.6988, 95.8734 11.3559, 96.0176 11.0044, 96.1625 10.6534, 96.3451 10.3346, 96.565 10.0472, 96.7848 9.76033, 97.0367 9.52217, 97.3195 9.33267, 97.6023 9.14374, 97.9264 9.0487, 98.2911 9.04813, 98.6059 9.0487, 98.8745 9.11626, 99.0977 9.25023, 99.321 9.38476, 99.4905 9.56339, 99.6067 9.78609, 99.7235 10.0094, 99.7876 10.2607, 99.8002 10.5412 L 99.8002 10.6054 C 99.8002 10.8687, 99.747 11.1401, 99.6399 11.4206, 99.4578 11.8975, 99.2769 12.3847, 99.0977 12.8822, 98.9185 13.3803, 98.7783 13.8274, 98.6775 14.2236, 98.5773 14.6393, 98.508 15.0366, 98.4703 15.4144, 98.4577 15.5003, 98.4514 15.5828, 98.4514 15.6618, 98.4514 15.9371, 98.4989 16.1965, 98.5928 16.4404, 98.6747 16.6545, 98.808 16.8228, 98.9935 16.9448, 99.179 17.0673, 99.3977 17.128, 99.6491 17.1274, 100.02 17.128, 100.355 17.0077, 100.654 16.7661, 100.953 16.5251, 101.219 16.1999, 101.451 15.7906, 101.684 15.3818, 101.89 14.9158, 102.069 14.3937, 102.248 13.8715, 102.407 13.3448, 102.545 12.813, 102.608 12.545, 102.639 12.2885, 102.639 12.0435, 102.639 11.8609, 102.627 11.6868, 102.602 11.5214, 102.52 11.1252, 102.338 10.7891, 102.055 10.5138, 101.923 10.3861, 101.854 10.2395, 101.847 10.0741, 101.847 10.0134, 101.857 9.95556, 101.876 9.90002, 101.932 9.68705, 102.044 9.50213, 102.21 9.34641, 102.377 9.19068, 102.573 9.09164, 102.8 9.04813, 102.838 9.03668, 102.881 9.03038, 102.932 9.02981, 103.114 9.03038, 103.278 9.1008, 103.422 9.24049 Z" stroke="none" fill="#000000" />
			<polyline points="-5.2528 6.04072 0 -6.04072" fill="none" stroke="#000000" stroke-width="0.750400007" stroke-linecap="round" stroke-linejoin="round" transform="matrix(-4.37114e-008 -1 1 -4.37114e-008 115.772 11.8861)" />
			<polyline points="0 -6.04072 5.2528 6.04072" fill="none" stroke="#000000" stroke-width="0.750400007" stroke-linecap="round" stroke-linejoin="round" transform="matrix(-4.37114e-008 -1 1 -4.37114e-008 115.772 11.8861)" />
			<ellipse cx="-5.252799779176712" cy="6.0407201945781708" rx="0.37520000338554382" ry="0.37520000338554382" stroke="none" fill="#000000" transform="matrix(-4.37114e-008 -1 1 -4.37114e-008 115.772 11.8861)" />
			<ellipse cx="-0" cy="-6.0407197773456573" rx="0.37520000338554382" ry="0.37520000338554382" stroke="none" fill="#000000" transform="matrix(-4.37114e-008 -1 1 -4.37114e-008 115.772 11.8861)" />
			<ellipse cx="5.2528001964092255" cy="6.0407201945781708" rx="0.37520000338554382" ry="0.37520000338554382" stroke="none" fill="#000000" transform="matrix(-4.37114e-008 -1 1 -4.37114e-008 115.772 11.8861)" />
			<path d="M 135.529 9.24049 C 135.699 9.40595, 135.806 9.63781, 135.849 9.93666, 135.862 10.0838, 135.868 10.2241, 135.868 10.358, 135.868 10.5298, 135.856 10.7004, 135.831 10.871, 135.793 11.2134, 135.735 11.5603, 135.656 11.9113, 135.577 12.2628, 135.501 12.5754, 135.425 12.8496, 135.299 13.3694, 135.131 13.9127, 134.92 14.4807, 134.71 15.0486, 134.45 15.5707, 134.142 16.0471, 133.834 16.5234, 133.475 16.9236, 133.062 17.247, 132.65 17.5705, 132.174 17.732, 131.633 17.732, 131.206 17.732, 130.802 17.6558, 130.421 17.503, 130.041 17.3507, 129.744 17.1033, 129.53 16.761, 129.297 16.4135, 129.184 16.0167, 129.19 15.5702, 129.19 15.5461, 129.196 15.5221, 129.209 15.4969, 129.209 15.0641, 129.259 14.6272, 129.359 14.187, 129.46 13.7662, 129.607 13.3024, 129.799 12.7952, 129.99 12.2885, 130.174 11.7967, 130.35 11.3198, 130.539 10.8137, 130.633 10.3981, 130.633 10.0741, 130.633 9.79983, 130.517 9.66243, 130.284 9.66186, 130.071 9.66243, 129.877 9.72369, 129.704 9.84563, 129.531 9.96815, 129.374 10.1376, 129.232 10.354, 129.091 10.571, 128.964 10.8275, 128.851 11.1235, 128.737 11.42, 128.643 11.7355, 128.567 12.071, 128.498 12.2364, 128.382 12.3217, 128.218 12.3275 L 128.001 12.3275 C 127.85 12.328, 127.775 12.2519, 127.775 12.0985 L 127.775 12.0343 C 127.863 11.6988, 127.98 11.3559, 128.124 11.0044, 128.269 10.6534, 128.451 10.3346, 128.671 10.0472, 128.891 9.76033, 129.143 9.52217, 129.426 9.33267, 129.709 9.14374, 130.033 9.0487, 130.397 9.04813, 130.712 9.0487, 130.981 9.11626, 131.204 9.25023, 131.427 9.38476, 131.597 9.56339, 131.713 9.78609, 131.83 10.0094, 131.894 10.2607, 131.907 10.5412 L 131.907 10.6054 C 131.907 10.8687, 131.853 11.1401, 131.746 11.4206, 131.564 11.8975, 131.383 12.3847, 131.204 12.8822, 131.025 13.3803, 130.885 13.8274, 130.784 14.2236, 130.684 14.6393, 130.614 15.0366, 130.577 15.4144, 130.564 15.5003, 130.558 15.5828, 130.558 15.6618, 130.558 15.9371, 130.605 16.1965, 130.699 16.4404, 130.781 16.6545, 130.914 16.8228, 131.1 16.9448, 131.285 17.0673, 131.504 17.128, 131.755 17.1274, 132.126 17.128, 132.461 17.0077, 132.76 16.7661, 133.059 16.5251, 133.325 16.1999, 133.558 15.7906, 133.79 15.3818, 133.996 14.9158, 134.175 14.3937, 134.355 13.8715, 134.513 13.3448, 134.652 12.813, 134.715 12.545, 134.746 12.2885, 134.746 12.0435, 134.746 11.8609, 134.734 11.6868, 134.708 11.5214, 134.627 11.1252, 134.444 10.7891, 134.161 10.5138, 134.029 10.3861, 133.96 10.2395, 133.953 10.0741, 133.953 10.0134, 133.963 9.95556, 133.982 9.90002, 134.039 9.68705, 134.15 9.50213, 134.317 9.34641, 134.483 9.19068, 134.68 9.09164, 134.907 9.04813, 134.944 9.03668, 134.988 9.03038, 135.038 9.02981, 135.221 9.03038, 135.385 9.1008, 135.529 9.24049 Z" stroke="none" fill="#000000" />
			<path d="M 2.39138 3.19713 L -1.90858 3.19713, -1.90858 2.915 C -1.90858 2.8948, -1.898 2.86402, -1.87684 2.82266 L -0.149418 0.945196 C 0.0551279 0.71981, 0.261918 0.488975, 0.471594 0.253009, 0.68127 0.0170434, 0.868504 -0.224052, 1.03394 -0.470277, 1.19937 -0.716502, 1.33146 -0.970422, 1.4302 -1.23204, 1.52895 -1.49365, 1.578 -1.76809, 1.578 -2.05567, 1.578 -2.29805, 1.54658 -2.52472, 1.4831 -2.73503, 1.41962 -2.94535, 1.32825 -3.13002, 1.20835 -3.28904, 1.08844 -3.44806, 0.938716 -3.5763, 0.759177 -3.67377, 0.579638 -3.77123, 0.371886 -3.81996, 0.13592 -3.82028, -0.216105 -3.81996, -0.527092 -3.7148, -0.7964 -3.50449, -1.06571 -3.29417, -1.24461 -3.06237, -1.33277 -2.80974, -1.35009 -2.80268, -1.32187 -2.79915, -1.24813 -2.79948 L -1.15836 -2.79948 C -1.05256 -2.77511, -0.961191 -2.73824, -0.883605 -2.68887, -0.806018 -2.63917, -0.740935 -2.57088, -0.688036 -2.48368, -0.635136 -2.39647, -0.608846 -2.29132, -0.608846 -2.16852, -0.608846 -1.96302, -0.675532 -1.8056, -0.809545 -1.69627, -0.943558 -1.58663, -1.09328 -1.53212, -1.25871 -1.53244, -1.41709 -1.53212, -1.56489 -1.58663, -1.70243 -1.69627, -1.83965 -1.8056, -1.90858 -1.96302, -1.90858 -2.16852, -1.90858 -2.45547, -1.85215 -2.72734, -1.7393 -2.98382, -1.62645 -3.24031, -1.47352 -3.46249, -1.27987 -3.65068, -1.08623 -3.83856, -0.857315 -3.98732, -0.593136 -4.09697, -0.328958 -4.20629, -0.0487483 -4.26112, 0.24685 -4.26144, 0.612981 -4.26112, 0.948655 -4.20725, 1.25323 -4.09953, 1.55781 -3.99181, 1.8175 -3.83695, 2.0323 -3.63529, 2.24711 -3.43331, 2.41543 -3.19991, 2.53693 -2.93509, 2.65844 -2.66995, 2.71904 -2.37692, 2.71904 -2.05567, 2.71904 -1.6998, 2.63825 -1.37214, 2.47602 -1.07302, 2.31411 -0.77357, 2.11342 -0.499131, 1.87392 -0.2497, 1.63443 5.126e-005, 1.37987 0.235055, 1.11056 0.455632, 0.841252 0.676208, 0.597272 0.890693, 0.378939 1.09909 L -0.836155 2.24301, 0.754048 2.24301 C 0.975907 2.24333, 1.18302 2.24172, 1.37474 2.2382, 1.56678 2.23499, 1.72965 2.22794, 1.86334 2.21768, 1.99736 2.20742, 2.06597 2.20069, 2.06917 2.19684, 2.09738 2.17312, 2.12399 2.12534, 2.14868 2.05353, 2.17337 1.98171, 2.19613 1.89707, 2.21729 1.79961, 2.23845 1.70215, 2.25961 1.60308, 2.28077 1.50209, 2.30193 1.40142, 2.32117 1.29081, 2.3388 1.1709 L 2.72962 1.1709 Z" stroke="none" fill="#000000" transform="matrix(1.12 0 0 1 138.757 16.985)" />
			<path d="M 1.55535 9.07213 C -4.56041 4.98967, -4.56041 -4.98967, 1.55535 -9.07213 L 2.51587 -9.07213 C -2.99957 -4.98967, -2.99957 4.98967, 2.51587 9.07213" stroke="none" fill="#000000" transform="matrix(1 0 -0 1 54.6442 11.8861)" />
			<path d="M 1.55535 9.07213 C -4.56041 4.98967, -4.56041 -4.98967, 1.55535 -9.07213 L 2.51587 -9.07213 C -2.99957 -4.98967, -2.99957 4.98967, 2.51587 9.07213" stroke="none" fill="#000000" transform="matrix(-1 1.50996e-007 -1.50996e-007 -1 145.1 11.8861)" />
			<rect />
		</svg>
	</g>
</svg>
