<?xml version="1.0"?>
<svg xmlns="http://www.w3.org/2000/svg" xmlns:xlink="http://www.w3.org/1999/xlink" width="364.791809" height="204.565857">
	<defs>
		<marker id="CustomMarker-01" markerUnits="strokeWidth" markerWidth="15.000001" markerHeight="9" viewBox="-15 -4.5 15 9" orient="auto-start-reverse">
			<path d="M 0 -0 L -10 -3, -8 -0.5, -8 0.5, -10 3 Z" fill="#000000" stroke="#000000" stroke-linejoin="round" />
		</marker>
		<marker id="CustomMarker-02" markerUnits="strokeWidth" markerWidth="15.000001" markerHeight="9" viewBox="-15 -4.5 15 9" orient="auto-start-reverse">
			<path d="M 0 -0 L -10 -3, -8 -0.5, -8 0.5, -10 3 Z" fill="#000000" stroke="#000000" stroke-linejoin="round" />
		</marker>
	</defs>
	<path d="M -450.138 258.777 L 450.138 258.777" fill="none" stroke="#000000" stroke-width="4.26666689" stroke-linecap="round" stroke-linejoin="round" marker-end="url(#CustomMarker-01)" transform="matrix(0.3125 0 -0 0.3125 196.382 89.3678)" />
	<path d="M -450.138 258.777 L -450.138 -258.777" fill="none" stroke="#000000" stroke-width="4.26666689" stroke-linecap="round" stroke-linejoin="round" marker-end="url(#CustomMarker-02)" transform="matrix(0.3125 0 -0 0.3125 196.382 89.3678)" />
	<g transform="matrix(1 0 -0 1 9 11.9795)">
		<svg width="111.060272" height="62.9142723">
			<defs />
			<path d="M 9.35195 5.61627 C 9.28268 5.88535, 9.14127 6.09203, 8.92715 6.23516, 8.7136 6.37886, 8.50292 6.45042, 8.2951 6.44985, 8.06896 6.45042, 7.88633 6.37084, 7.74778 6.21168, 7.64129 6.10863, 7.58461 5.97695, 7.57774 5.8178, 7.57774 5.75139, 7.59034 5.66551, 7.61553 5.56131, 7.68537 5.33002, 7.80331 5.14682, 7.96991 5.01228, 8.13651 4.87831, 8.26075 4.80445, 8.34204 4.79186, 8.22296 4.65789, 7.98709 4.59091, 7.63442 4.59034, 7.42717 4.59091, 7.22908 4.77125, 7.04016 5.13078, 7.00237 5.18632, 6.96 5.30998, 6.91306 5.50234, 6.86611 5.69471, 6.8123 5.93001, 6.75276 6.20768, 6.69321 6.48592, 6.63138 6.78019, 6.56841 7.09163, 6.50543 7.40308, 6.44875 7.7025, 6.39837 7.98875 L 6.1625 9.15209, 7.88919 9.15209 C 8.05293 9.15267, 8.13479 9.23511, 8.13479 9.39942 L 8.13479 9.46354, 8.09701 9.62842 C 8.02773 9.8122, 7.90522 9.9038, 7.72889 9.90323 L 6.01193 9.90323, 5.10622 14.465 C 5.01805 14.8932, 4.92416 15.3495, 4.8234 15.835, 4.72264 16.3205, 4.61271 16.8031, 4.49306 17.2823, 4.37341 17.7615, 4.23658 18.2149, 4.08257 18.642, 3.92857 19.0697, 3.76311 19.4424, 3.58678 19.7596, 3.48029 19.937, 3.35892 20.1157, 3.22381 20.2954, 3.08869 20.4758, 2.93984 20.6361, 2.7761 20.7763, 2.61237 20.9172, 2.43489 21.0345, 2.24252 21.129, 2.05073 21.224, 1.84463 21.271, 1.62479 21.271, 1.37975 21.271, 1.15018 21.2315, 0.936057 21.1519, 0.722511 21.0729, 0.538735 20.963, 0.384158 20.8221, 0.230725 20.6819, 0.115651 20.5107, 0.0395067 20.3092, 0.0148888 20.1992, 0.00229359 20.0893, 0.00172102 19.9794, 0.00229359 19.8758, 0.0148888 19.763, 0.0395067 19.6405, 0.109353 19.3657, 0.254198 19.1596, 0.474042 19.0222, 0.694458 18.8848, 0.911439 18.8161, 1.12441 18.8161, 1.3454 18.8161, 1.52746 18.8893, 1.67173 19.0359, 1.77879 19.1401, 1.83203 19.2712, 1.83203 19.4298, 1.83203 19.4973, 1.81944 19.5826, 1.79425 19.6863, 1.72555 19.9187, 1.60589 20.1048, 1.43643 20.245, 1.26697 20.3859, 1.14102 20.462, 1.05857 20.474, 1.16621 20.5966, 1.38605 20.6572, 1.71868 20.6572, 1.88242 20.6572, 2.03528 20.5656, 2.17669 20.3824, 2.3181 20.1992, 2.4326 19.9491, 2.52076 19.6313, 2.74118 18.8865, 2.94099 18.0609, 3.12018 17.1541, 3.29938 16.2472, 3.47686 15.3633, 3.65319 14.5016 L 4.58695 9.90323, 3.17171 9.90323 C 3.07782 9.9038, 3.00854 9.87346, 2.96446 9.81162, 2.92667 9.77556, 2.90778 9.72976, 2.90778 9.67422, 2.90778 9.63815, 2.91751 9.60438, 2.93583 9.57346 L 2.96446 9.43606 C 2.98335 9.35705, 3.02572 9.29007, 3.09156 9.23511, 3.15797 9.18015, 3.22839 9.15267, 3.30396 9.15209 L 4.73809 9.15209, 4.95508 8.00707 C 4.99286 7.76948, 5.04324 7.50727, 5.10622 7.21987, 5.16919 6.93305, 5.24419 6.64736, 5.33236 6.3634, 5.42053 6.07943, 5.52014 5.80635, 5.63006 5.54356, 5.73999 5.28135, 5.87395 5.05808, 6.03082 4.8743, 6.25753 4.61209, 6.5186 4.3974, 6.81401 4.22908, 7.10943 4.06134, 7.42087 3.97718, 7.74778 3.97661, 7.99338 3.97718, 8.22754 4.01382, 8.45082 4.0871, 8.6741 4.16038, 8.86303 4.26744, 9.01703 4.40771, 9.17104 4.54854, 9.27924 4.71629, 9.34222 4.91094, 9.3863 5.00941, 9.40806 5.1222, 9.40806 5.24987, 9.40806 5.35406, 9.38974 5.47658, 9.35195 5.61627 Z" stroke="none" fill="#000000" />
			<path d="M 27.1939 9.12461 C 27.3639 9.29007, 27.471 9.52193, 27.5145 9.82078, 27.5271 9.96792, 27.5334 10.1082, 27.5334 10.2422, 27.5334 10.4139, 27.5208 10.5845, 27.4956 10.7551, 27.4578 11.0975, 27.4 11.4444, 27.321 11.7954, 27.2425 12.1469, 27.1658 12.4595, 27.0902 12.7337, 26.9643 13.2536, 26.796 13.7969, 26.5853 14.3648, 26.3746 14.9327, 26.1153 15.4549, 25.8072 15.9312, 25.4992 16.4075, 25.1397 16.8077, 24.7275 17.1312, 24.3153 17.4546, 23.839 17.6161, 23.2979 17.6161, 22.8708 17.6161, 22.4666 17.5399, 22.0859 17.3871, 21.7058 17.2348, 21.4086 16.9875, 21.1945 16.6451, 20.9621 16.2976, 20.8487 15.9008, 20.855 15.4543, 20.855 15.4302, 20.8613 15.4062, 20.8739 15.381, 20.8739 14.9482, 20.9243 14.5114, 21.0245 14.0711, 21.1253 13.6503, 21.2718 13.1866, 21.4636 12.6793, 21.6554 12.1727, 21.8392 11.6809, 22.0149 11.204, 22.2039 10.6979, 22.2983 10.2822, 22.2983 9.95819, 22.2983 9.68396, 22.1821 9.54655, 21.9491 9.54598, 21.7356 9.54655, 21.542 9.60781, 21.3691 9.72976, 21.1962 9.85227, 21.0394 10.0217, 20.8974 10.2381, 20.756 10.4551, 20.6289 10.7116, 20.5155 11.0076, 20.4022 11.3042, 20.3077 11.6196, 20.2321 11.9551, 20.1634 12.1206, 20.0472 12.2059, 19.8835 12.2116 L 19.6665 12.2116 C 19.5154 12.2122, 19.4398 12.136, 19.4398 11.9826 L 19.4398 11.9185 C 19.528 11.583, 19.6447 11.24, 19.789 10.8885, 19.9339 10.5376, 20.1165 10.2187, 20.3363 9.93128, 20.5562 9.64445, 20.8081 9.40629, 21.0909 9.21679, 21.3737 9.02786, 21.6978 8.93282, 22.0625 8.93225, 22.3773 8.93282, 22.6458 9.00038, 22.8691 9.13435, 23.0924 9.26889, 23.2619 9.44751, 23.3781 9.67021, 23.4949 9.89349, 23.559 10.1448, 23.5716 10.4254 L 23.5716 10.4895 C 23.5716 10.7528, 23.5183 11.0242, 23.4113 11.3047, 23.2292 11.7816, 23.0483 12.2688, 22.8691 12.7663, 22.6899 13.2644, 22.5497 13.7116, 22.4489 14.1077, 22.3487 14.5234, 22.2794 14.9207, 22.2416 15.2986, 22.2291 15.3844, 22.2228 15.4669, 22.2228 15.5459, 22.2228 15.8213, 22.2703 16.0806, 22.3642 16.3245, 22.446 16.5386, 22.5794 16.7069, 22.7649 16.8289, 22.9504 16.9514, 23.1691 17.0121, 23.4204 17.0115, 23.7914 17.0121, 24.1264 16.8919, 24.4252 16.6503, 24.7241 16.4092, 24.9903 16.084, 25.2227 15.6747, 25.4551 15.2659, 25.6613 14.7999, 25.8404 14.2778, 26.0196 13.7556, 26.1782 13.2289, 26.3168 12.6971, 26.3798 12.4291, 26.4107 12.1727, 26.4107 11.9276, 26.4107 11.745, 26.3986 11.5709, 26.3735 11.4055, 26.2916 11.0093, 26.109 10.6733, 25.8261 10.3979, 25.6945 10.2702, 25.6252 10.1236, 25.6183 9.95819, 25.6183 9.8975, 25.628 9.83968, 25.6469 9.78414, 25.7036 9.57117, 25.8153 9.38625, 25.9819 9.23053, 26.1485 9.0748, 26.3448 8.97576, 26.5715 8.93225, 26.6093 8.9208, 26.6528 8.9145, 26.7032 8.91393, 26.8858 8.9145, 27.0496 8.98492, 27.1939 9.12461 Z" stroke="none" fill="#000000" />
			<path d="M 1.5467 8.95625 C -4.56906 4.92594, -4.56906 -4.92594, 1.5467 -8.95625 L 2.50721 -8.95625 C -3.00823 -4.92594, -3.00823 4.92594, 2.50721 8.95625" stroke="none" fill="#000000" transform="matrix(1 0 -0 1 15.9723 11.7703)" />
			<path d="M 1.5467 8.95625 C -4.56906 4.92594, -4.56906 -4.92594, 1.5467 -8.95625 L 2.50721 -8.95625 C -3.00823 -4.92594, -3.00823 4.92594, 2.50721 8.95625" stroke="none" fill="#000000" transform="matrix(-1 1.50996e-007 -1.50996e-007 -1 31.0071 11.7703)" />
			<rect />
		</svg>
	</g>
	<g transform="matrix(1 0 -0 1 347.696 159.028)">
		<svg width="30.0150681" height="32.9571342">
			<defs />
			<path d="M 7.75007 8.56181 C 7.9201 8.72727, 8.02716 8.95914, 8.07067 9.25799, 8.08327 9.40512, 8.08957 9.54539, 8.08957 9.67935, 8.08957 9.85111, 8.07697 10.0217, 8.05178 10.1923, 8.014 10.5347, 7.95617 10.8816, 7.87717 11.2326, 7.79873 11.5841, 7.72202 11.8967, 7.64644 12.1709, 7.52049 12.6908, 7.35217 13.2341, 7.14149 13.802, 6.93081 14.3699, 6.67146 14.8921, 6.36345 15.3684, 6.05544 15.8447, 5.69533 16.2449, 5.28312 16.5684, 4.87092 16.8918, 4.39459 17.0533, 3.85357 17.0533, 3.4259 17.0533, 3.02171 16.9771, 2.64099 16.8243, 2.26084 16.672, 1.96371 16.4247, 1.74959 16.0823, 1.51715 15.7348, 1.4038 15.338, 1.40952 14.8915, 1.40952 14.8674, 1.41582 14.8434, 1.42842 14.8182, 1.42842 14.3854, 1.4788 13.9486, 1.57956 13.5083, 1.68032 13.0875, 1.82688 12.6238, 2.01867 12.1165, 2.21046 11.6099, 2.39424 11.1181, 2.57 10.6412, 2.75893 10.1351, 2.85339 9.71943, 2.85339 9.39539, 2.85339 9.12116, 2.73717 8.98375, 2.50416 8.98318, 2.29062 8.98375, 2.09711 9.04501, 1.92421 9.16696, 1.75131 9.28947, 1.59387 9.45894, 1.45246 9.67535, 1.31105 9.89233, 1.18338 10.1488, 1.07002 10.4448, 0.956668 10.7414, 0.862776 11.0568, 0.787205 11.3923, 0.717931 11.5578, 0.601712 11.6431, 0.437974 11.6488 L 0.220993 11.6488 C 0.0698501 11.6494, -0.00572118 11.5732, -0.00572118 11.4198 L -0.00572118 11.3557 C 0.0824453 11.0202, 0.199237 10.6772, 0.34351 10.3257, 0.488355 9.97477, 0.670985 9.65588, 0.890829 9.36848, 1.11125 9.08165, 1.36315 8.84349, 1.64597 8.65399, 1.92879 8.46506, 2.25283 8.37002, 2.61752 8.36945, 2.9324 8.37002, 3.20091 8.43758, 3.42418 8.57155, 3.64746 8.70609, 3.8175 8.88471, 3.93372 9.10742, 4.05051 9.33069, 4.11463 9.58203, 4.12723 9.86256 L 4.12723 9.92668 C 4.12723 10.19, 4.07398 10.4614, 3.96635 10.7419, 3.78429 11.2188, 3.60395 11.706, 3.42418 12.2035, 3.24499 12.7016, 3.10472 13.1488, 3.00396 13.5449, 2.90377 13.9606, 2.8345 14.3579, 2.79671 14.7358, 2.78412 14.8216, 2.77782 14.9041, 2.77782 14.9831, 2.77782 15.2585, 2.82534 15.5178, 2.91923 15.7617, 3.0011 15.9758, 3.13507 16.1441, 3.32056 16.2661, 3.50605 16.3886, 3.72475 16.4493, 3.97608 16.4487, 4.34707 16.4493, 4.68199 16.3291, 4.98084 16.0875, 5.27969 15.8464, 5.54591 15.5212, 5.77834 15.1119, 6.01078 14.7031, 6.21689 14.2371, 6.39608 13.715, 6.57585 13.1928, 6.73444 12.6661, 6.87241 12.1343, 6.93539 11.8663, 6.96688 11.6099, 6.96688 11.3648, 6.96688 11.1822, 6.95428 11.0081, 6.92909 10.8427, 6.84779 10.4465, 6.66516 10.1105, 6.38177 9.83508, 6.25009 9.70741, 6.18082 9.56084, 6.17452 9.39539, 6.17452 9.3347, 6.18425 9.27688, 6.20257 9.22134, 6.25983 9.00837, 6.37146 8.82345, 6.53807 8.66773, 6.70467 8.512, 6.90104 8.41296, 7.12718 8.36945, 7.16496 8.358, 7.20905 8.3517, 7.25943 8.35113, 7.44206 8.3517, 7.6058 8.42212, 7.75007 8.56181 Z" stroke="none" fill="#000000" />
			<rect />
		</svg>
	</g>
	<g transform="matrix(1 0 -0 1 35.8638 173.151)">
		<svg width="41.9788857" height="47.9999886">
			<defs />
			<path d="M 12.2634 10.4122 C 12.0367 11.2984, 11.6703 12.1532, 11.1642 12.9776, 10.6581 13.802, 10.0209 14.556, 9.25376 15.2396, 8.56217 15.8567, 7.80531 16.3474, 6.98433 16.7103, 6.16336 17.0733, 5.34123 17.2548, 4.51739 17.2548, 3.68725 17.2548, 2.94929 17.0722, 2.30464 16.7058, 1.65999 16.3394, 1.14588 15.8447, 0.762298 15.2212, 0.340931 14.5319, 0.0987594 13.7682, 0.0357833 12.9312, 0.0105929 12.7303, -0.00200236 12.5287, -0.00200236 12.3266, -0.00200236 11.698, 0.0798666 11.0477, 0.243032 10.3755, 0.482341 9.4784, 0.85161 8.60704, 1.35198 7.76087, 1.85236 6.91528, 2.49185 6.1504, 3.27161 5.46568, 3.96377 4.84966, 4.72006 4.35329, 5.54104 3.97773, 6.36202 3.60216, 7.19044 3.41438, 8.02687 3.41381, 8.85701 3.41438, 9.59154 3.60388, 10.2299 3.98231, 10.8688 4.36131, 11.3795 4.86168, 11.7631 5.484, 12.1844 6.17445, 12.4329 6.9439, 12.5085 7.79236, 12.5211 8.00075, 12.5274 8.20514, 12.5274 8.40609, 12.5274 9.0599, 12.4398 9.72859, 12.2634 10.4122 Z M 10.3576 5.79545 C 10.1503 5.28305, 9.83887 4.86626, 9.42323 4.54566, 9.00816 4.22505, 8.49862 4.06475, 7.89462 4.06418, 7.2975 4.06475, 6.70323 4.22849, 6.11183 4.55482, 5.521 4.88172, 4.99257 5.30423, 4.52655 5.82293, 3.94144 6.45269, 3.47943 7.13512, 3.13993 7.87079, 2.80043 8.60704, 2.53593 9.35302, 2.34701 10.1099, 2.12716 10.9349, 1.99205 11.7381, 1.94167 12.519, 1.92907 12.6661, 1.92278 12.8127, 1.92278 12.9587, 1.92278 13.5701, 2.02354 14.1684, 2.22449 14.7541, 2.41971 15.2739, 2.71856 15.709, 3.12104 16.06, 3.52351 16.4115, 4.02675 16.5867, 4.63017 16.5861, 5.25306 16.5867, 5.86222 16.4081, 6.45648 16.0508, 7.05075 15.6936, 7.58375 15.2522, 8.0555 14.7266, 8.6658 14.019, 9.14041 13.2707, 9.4799 12.4829, 9.81997 11.6952, 10.0965 10.8919, 10.31 10.0732, 10.5053 9.31066, 10.6278 8.55952, 10.6782 7.81984 L 10.6782 7.49924 C 10.6782 6.88894, 10.5717 6.32101, 10.3576 5.79545 Z" stroke="none" fill="#000000" />
			<rect />
		</svg>
	</g>
	<path d="M -356.794 212.678 C -323.445 200.273, -302.604 119.512, -294.268 76.0831, -285.932 32.6546, -258.422 -88.4881, -242.021 -135.533, -225.62 -182.577, -210.072 -212.678, -185.897 -211.155, -161.721 -209.631, -147.55 -170.012, -130.044 -123.536, -112.537 -77.0596, -54.1836 70.7498, 38.3489 128.654, 130.881 186.559, 228.416 176.654, 356.794 190.369" fill="none" stroke="#000000" stroke-width="4.26666689" stroke-linecap="round" stroke-linejoin="round" transform="matrix(0.3125 0 -0 0.3125 167.212 103.774)" />
	<path d="M 0 209.631 L 0 -209.631" fill="none" stroke="#000000" stroke-opacity="0.31764704" stroke-width="4.26666689" stroke-linecap="round" stroke-linejoin="round" stroke-dasharray="14.9547, 10.6453" transform="matrix(0.3125 0 0 0.3125 108.537 104.726)" />
	<path d="M 0 124.868 L 0 -124.87" fill="none" stroke="#000000" stroke-opacity="0.31764704" stroke-width="4.26666689" stroke-linecap="round" stroke-linejoin="round" stroke-dasharray="14.9547, 10.6453" transform="matrix(0.3125 0 0 0.3125 149.32 131.214)" />
	<path d="M -356.794 126.202 C -278.975 95.5115, -254.968 49.0354, -209.437 -13.4405, -163.907 -75.9165, -109.271 -126.202, -53.8065 -123.916, 1.65772 -121.631, 74.5062 -50.7738, 135.765 0.273692, 197.024 51.3211, 278.151 69.6068, 356.794 88.6544" fill="none" stroke="#E60000" stroke-width="4.26666689" stroke-linecap="round" stroke-linejoin="round" transform="matrix(0.3125 0 -0 0.3125 167.211 130.797)" />
	<g transform="matrix(1 0 -0 1 97.5466 171.623)">
		<svg width="68.9939575" height="44.9142761">
			<defs />
			<path d="M 7.75007 8.56181 C 7.9201 8.72727, 8.02716 8.95914, 8.07067 9.25799, 8.08327 9.40512, 8.08957 9.54539, 8.08957 9.67935, 8.08957 9.85111, 8.07697 10.0217, 8.05178 10.1923, 8.014 10.5347, 7.95617 10.8816, 7.87717 11.2326, 7.79873 11.5841, 7.72202 11.8967, 7.64644 12.1709, 7.52049 12.6908, 7.35217 13.2341, 7.14149 13.802, 6.93081 14.3699, 6.67146 14.8921, 6.36345 15.3684, 6.05544 15.8447, 5.69533 16.2449, 5.28312 16.5684, 4.87092 16.8918, 4.39459 17.0533, 3.85357 17.0533, 3.4259 17.0533, 3.02171 16.9771, 2.64099 16.8243, 2.26084 16.672, 1.96371 16.4247, 1.74959 16.0823, 1.51715 15.7348, 1.4038 15.338, 1.40952 14.8915, 1.40952 14.8674, 1.41582 14.8434, 1.42842 14.8182, 1.42842 14.3854, 1.4788 13.9486, 1.57956 13.5083, 1.68032 13.0875, 1.82688 12.6238, 2.01867 12.1165, 2.21046 11.6099, 2.39424 11.1181, 2.57 10.6412, 2.75893 10.1351, 2.85339 9.71943, 2.85339 9.39539, 2.85339 9.12116, 2.73717 8.98375, 2.50416 8.98318, 2.29062 8.98375, 2.09711 9.04501, 1.92421 9.16696, 1.75131 9.28947, 1.59387 9.45894, 1.45246 9.67535, 1.31105 9.89233, 1.18338 10.1488, 1.07002 10.4448, 0.956668 10.7414, 0.862776 11.0568, 0.787205 11.3923, 0.717931 11.5578, 0.601712 11.6431, 0.437974 11.6488 L 0.220993 11.6488 C 0.0698501 11.6494, -0.00572118 11.5732, -0.00572118 11.4198 L -0.00572118 11.3557 C 0.0824453 11.0202, 0.199237 10.6772, 0.34351 10.3257, 0.488355 9.97477, 0.670985 9.65588, 0.890829 9.36848, 1.11125 9.08165, 1.36315 8.84349, 1.64597 8.65399, 1.92879 8.46506, 2.25283 8.37002, 2.61752 8.36945, 2.9324 8.37002, 3.20091 8.43758, 3.42418 8.57155, 3.64746 8.70609, 3.8175 8.88471, 3.93372 9.10742, 4.05051 9.33069, 4.11463 9.58203, 4.12723 9.86256 L 4.12723 9.92668 C 4.12723 10.19, 4.07398 10.4614, 3.96635 10.7419, 3.78429 11.2188, 3.60395 11.706, 3.42418 12.2035, 3.24499 12.7016, 3.10472 13.1488, 3.00396 13.5449, 2.90377 13.9606, 2.8345 14.3579, 2.79671 14.7358, 2.78412 14.8216, 2.77782 14.9041, 2.77782 14.9831, 2.77782 15.2585, 2.82534 15.5178, 2.91923 15.7617, 3.0011 15.9758, 3.13507 16.1441, 3.32056 16.2661, 3.50605 16.3886, 3.72475 16.4493, 3.97608 16.4487, 4.34707 16.4493, 4.68199 16.3291, 4.98084 16.0875, 5.27969 15.8464, 5.54591 15.5212, 5.77834 15.1119, 6.01078 14.7031, 6.21689 14.2371, 6.39608 13.715, 6.57585 13.1928, 6.73444 12.6661, 6.87241 12.1343, 6.93539 11.8663, 6.96688 11.6099, 6.96688 11.3648, 6.96688 11.1822, 6.95428 11.0081, 6.92909 10.8427, 6.84779 10.4465, 6.66516 10.1105, 6.38177 9.83508, 6.25009 9.70741, 6.18082 9.56084, 6.17452 9.39539, 6.17452 9.3347, 6.18425 9.27688, 6.20257 9.22134, 6.25983 9.00837, 6.37146 8.82345, 6.53807 8.66773, 6.70467 8.512, 6.90104 8.41296, 7.12718 8.36945, 7.16496 8.358, 7.20905 8.3517, 7.25943 8.35113, 7.44206 8.3517, 7.6058 8.42212, 7.75007 8.56181 Z" stroke="none" fill="#000000" />
			<path d="M 2.47495 0.914418 C 2.39416 1.21226, 2.27521 1.50658, 2.11844 1.79704, 1.96166 2.08783, 1.7584 2.35618, 1.50833 2.60209, 1.3041 2.80759, 1.07262 2.97944, 0.813575 3.11794, 0.554846 3.25644, 0.286179 3.32537, 0.00789309 3.32537, -0.221019 3.32537, -0.409215 3.26221, -0.557334 3.13589, -0.705134 3.00957, -0.79843 2.90666, -0.837223 2.82779 L -1.27581 4.51033 C -1.29665 4.59593, -1.30883 4.65909, -1.31268 4.70013, -1.31268 4.73443, -1.30563 4.75655, -1.29152 4.76681, -1.2492 4.79438, -1.16713 4.81138, -1.04562 4.81811, -0.924107 4.82516, -0.78785 4.82837, -0.636524 4.82837, -0.544831 4.82837, -0.499305 4.87293, -0.499305 4.96174 L -0.499305 4.99765, -0.520144 5.09511 C -0.558937 5.19771, -0.627547 5.2474, -0.726293 5.24387, -1.06421 5.23041, -1.39892 5.22015, -1.73011 5.2131 L -1.88304 5.2131 C -2.1719 5.2131, -2.46398 5.22336, -2.76021 5.24387, -2.85127 5.24387, -2.89711 5.19963, -2.89743 5.1105 L -2.89743 5.07459, -2.87627 4.97713 C -2.83716 4.87454, -2.76855 4.82516, -2.67012 4.82837, -2.54669 4.82837, -2.44442 4.82516, -2.36363 4.81811, -2.28283 4.81138, -2.2248 4.79599, -2.18954 4.77194, -2.15427 4.75495, -2.11708 4.66101, -2.07861 4.48981 L -0.853253 -0.250021 C -0.796827 -0.47188, -0.768613 -0.663602, -0.768613 -0.824546 L -0.768613 -0.947659 C -0.785926 -1.11149, -0.868642 -1.19356, -1.01676 -1.19388, -1.17161 -1.19356, -1.30114 -1.06853, -1.40502 -0.819096, -1.50889 -0.569344, -1.6102 -0.244571, -1.70895 0.155224, -1.74742 0.247879, -1.8125 0.295649, -1.9042 0.298855 L -2.02571 0.298855 C -2.11035 0.299176, -2.15267 0.256536, -2.15267 0.170613 L -2.15267 0.134705 C -2.11035 -0.0255973, -2.06258 -0.200969, -2.01 -0.390767, -1.9571 -0.580565, -1.88656 -0.760104, -1.79872 -0.929384, -1.71055 -1.09866, -1.59962 -1.2423, -1.46593 -1.36028, -1.33192 -1.47826, -1.16488 -1.53725, -0.964183 -1.53757, -0.696157 -1.53725, -0.482313 -1.46095, -0.32201 -1.30898, -0.161707 -1.15669, -0.06777 -1.00376, -0.0395567 -0.850195, 0.0976624 -1.00729, 0.28169 -1.16086, 0.512526 -1.31155, 0.743362 -1.46191, 0.987022 -1.53725, 1.24415 -1.53757, 1.51538 -1.53725, 1.74686 -1.46608, 1.93858 -1.32437, 2.13062 -1.18234, 2.27938 -1.00537, 2.38518 -0.793768, 2.51214 -0.54049, 2.57883 -0.266693, 2.58588 0.0269821 L 2.58588 0.0987976 C 2.58588 0.362335, 2.54901 0.634209, 2.47495 0.914418 Z M 1.69845 -0.645007 C 1.66671 -0.808836, 1.60771 -0.941247, 1.52147 -1.04224, 1.43523 -1.14291, 1.32173 -1.19356, 1.18067 -1.19388, 1.01876 -1.19356, 0.854291 -1.13874, 0.686935 -1.02941, 0.519579 -0.919766, 0.365689 -0.781585, 0.224622 -0.614229, 0.115616 -0.473804, 0.0203965 -0.342035, -0.0607166 -0.219243 L -0.641654 2.02243 C -0.627547 2.09457, -0.614402 2.16318, -0.602219 2.22794, -0.589716 2.29302, -0.573044 2.35618, -0.551884 2.41742, -0.498984 2.58541, -0.422359 2.72231, -0.32201 2.82811, -0.221661 2.93423, -0.0889299 2.98713, 0.0765026 2.98681, 0.224622 2.98713, 0.370818 2.93263, 0.515091 2.82298, 0.659363 2.71366, 0.791453 2.57676, 0.911359 2.41229, 1.08064 2.18337, 1.20728 1.94003, 1.2916 1.68163, 1.37624 1.42354, 1.4535 1.15936, 1.52404 0.888769, 1.59457 0.60856, 1.65613 0.33861, 1.70903 0.0782788, 1.73019 -0.044513, 1.74044 -0.164099, 1.74044 -0.280799, 1.74044 -0.403591, 1.72666 -0.525101, 1.69845 -0.645007 Z" stroke="none" fill="#000000" transform="matrix(1.12 0 0 1 11.967 16.3063)" />
			<path d="M 2.37559 3.19713 C 1.72765 3.17661, 1.09734 3.16635, 0.484342 3.16635, -0.128335 3.16635, -0.758645 3.17661, -1.40659 3.19713 L -1.40659 2.75598, -1.04206 2.75598 C -0.926001 2.7563, -0.816675 2.75469, -0.714722 2.75117, -0.612449 2.74796, -0.515626 2.7393, -0.423933 2.72552, -0.33224 2.71205, -0.25305 2.69827, -0.186364 2.68416, -0.129938 2.67422, -0.0834501 2.6428, -0.0465803 2.58958, -0.00939012 2.53668, 0.00888443 2.47769, 0.00888443 2.41229 L 0.00888443 -3.36887 C -0.166807 -3.28295, -0.383537 -3.21787, -0.640662 -3.17362, -0.897788 -3.12906, -1.17928 -3.10694, -1.48578 -3.10726 L -1.48578 -3.54328 C -1.06322 -3.54296, -0.673043 -3.59329, -0.315568 -3.69429, 0.0419066 -3.79496, 0.35097 -3.98411, 0.611302 -4.26144 L 0.775131 -4.26144 C 0.891191 -4.26112, 0.94922 -4.20469, 0.94922 -4.09216 L 0.94922 2.41229 C 0.94922 2.4809, 0.966853 2.54085, 1.00212 2.59215, 1.03739 2.64344, 1.08868 2.67422, 1.15537 2.68416, 1.2118 2.69827, 1.28425 2.71205, 1.3721 2.72552, 1.45994 2.7393, 1.55933 2.74796, 1.67026 2.75117, 1.78119 2.75469, 1.88956 2.7563, 1.99536 2.75598 L 2.37559 2.75598, 2.37559 3.19713 Z" stroke="none" fill="#000000" transform="matrix(1.12 0 0 1 18.9979 16.3063)" />
			<rect />
		</svg>
	</g>
	<g transform="matrix(1 0 -0 1 138.329 171.623)">
		<svg width="71.9527512" height="44.9142761">
			<defs />
			<path d="M 7.75007 8.56181 C 7.9201 8.72727, 8.02716 8.95914, 8.07067 9.25799, 8.08327 9.40512, 8.08957 9.54539, 8.08957 9.67935, 8.08957 9.85111, 8.07697 10.0217, 8.05178 10.1923, 8.014 10.5347, 7.95617 10.8816, 7.87717 11.2326, 7.79873 11.5841, 7.72202 11.8967, 7.64644 12.1709, 7.52049 12.6908, 7.35217 13.2341, 7.14149 13.802, 6.93081 14.3699, 6.67146 14.8921, 6.36345 15.3684, 6.05544 15.8447, 5.69533 16.2449, 5.28312 16.5684, 4.87092 16.8918, 4.39459 17.0533, 3.85357 17.0533, 3.4259 17.0533, 3.02171 16.9771, 2.64099 16.8243, 2.26084 16.672, 1.96371 16.4247, 1.74959 16.0823, 1.51715 15.7348, 1.4038 15.338, 1.40952 14.8915, 1.40952 14.8674, 1.41582 14.8434, 1.42842 14.8182, 1.42842 14.3854, 1.4788 13.9486, 1.57956 13.5083, 1.68032 13.0875, 1.82688 12.6238, 2.01867 12.1165, 2.21046 11.6099, 2.39424 11.1181, 2.57 10.6412, 2.75893 10.1351, 2.85339 9.71943, 2.85339 9.39539, 2.85339 9.12116, 2.73717 8.98375, 2.50416 8.98318, 2.29062 8.98375, 2.09711 9.04501, 1.92421 9.16696, 1.75131 9.28947, 1.59387 9.45894, 1.45246 9.67535, 1.31105 9.89233, 1.18338 10.1488, 1.07002 10.4448, 0.956668 10.7414, 0.862776 11.0568, 0.787205 11.3923, 0.717931 11.5578, 0.601712 11.6431, 0.437974 11.6488 L 0.220993 11.6488 C 0.0698501 11.6494, -0.00572118 11.5732, -0.00572118 11.4198 L -0.00572118 11.3557 C 0.0824453 11.0202, 0.199237 10.6772, 0.34351 10.3257, 0.488355 9.97477, 0.670985 9.65588, 0.890829 9.36848, 1.11125 9.08165, 1.36315 8.84349, 1.64597 8.65399, 1.92879 8.46506, 2.25283 8.37002, 2.61752 8.36945, 2.9324 8.37002, 3.20091 8.43758, 3.42418 8.57155, 3.64746 8.70609, 3.8175 8.88471, 3.93372 9.10742, 4.05051 9.33069, 4.11463 9.58203, 4.12723 9.86256 L 4.12723 9.92668 C 4.12723 10.19, 4.07398 10.4614, 3.96635 10.7419, 3.78429 11.2188, 3.60395 11.706, 3.42418 12.2035, 3.24499 12.7016, 3.10472 13.1488, 3.00396 13.5449, 2.90377 13.9606, 2.8345 14.3579, 2.79671 14.7358, 2.78412 14.8216, 2.77782 14.9041, 2.77782 14.9831, 2.77782 15.2585, 2.82534 15.5178, 2.91923 15.7617, 3.0011 15.9758, 3.13507 16.1441, 3.32056 16.2661, 3.50605 16.3886, 3.72475 16.4493, 3.97608 16.4487, 4.34707 16.4493, 4.68199 16.3291, 4.98084 16.0875, 5.27969 15.8464, 5.54591 15.5212, 5.77834 15.1119, 6.01078 14.7031, 6.21689 14.2371, 6.39608 13.715, 6.57585 13.1928, 6.73444 12.6661, 6.87241 12.1343, 6.93539 11.8663, 6.96688 11.6099, 6.96688 11.3648, 6.96688 11.1822, 6.95428 11.0081, 6.92909 10.8427, 6.84779 10.4465, 6.66516 10.1105, 6.38177 9.83508, 6.25009 9.70741, 6.18082 9.56084, 6.17452 9.39539, 6.17452 9.3347, 6.18425 9.27688, 6.20257 9.22134, 6.25983 9.00837, 6.37146 8.82345, 6.53807 8.66773, 6.70467 8.512, 6.90104 8.41296, 7.12718 8.36945, 7.16496 8.358, 7.20905 8.3517, 7.25943 8.35113, 7.44206 8.3517, 7.6058 8.42212, 7.75007 8.56181 Z" stroke="none" fill="#E60000" />
			<path d="M 2.47591 0.914418 C 2.39512 1.21226, 2.27618 1.50658, 2.1194 1.79704, 1.96262 2.08783, 1.75904 2.35618, 1.50897 2.60209, 1.30474 2.80759, 1.07326 2.97944, 0.814216 3.11794, 0.555487 3.25644, 0.28682 3.32537, 0.00853419 3.32537, -0.220378 3.32537, -0.408894 3.26221, -0.557014 3.13589, -0.704813 3.00957, -0.798109 2.90666, -0.836902 2.82779 L -1.27549 4.51033 C -1.29665 4.59593, -1.30883 4.65909, -1.31236 4.70013, -1.31236 4.73443, -1.30531 4.75655, -1.2912 4.76681, -1.24888 4.79438, -1.16713 4.81138, -1.04562 4.81811, -0.924107 4.82516, -0.787529 4.82837, -0.636203 4.82837, -0.54451 4.82837, -0.498664 4.87293, -0.498664 4.96174 L -0.498664 4.99765, -0.519824 5.09511 C -0.558617 5.19771, -0.627226 5.2474, -0.725973 5.24387, -1.06389 5.23041, -1.3986 5.22015, -1.72979 5.2131 L -1.88304 5.2131 C -2.17158 5.2131, -2.46398 5.22336, -2.76021 5.24387, -2.85127 5.24387, -2.89711 5.19963, -2.89743 5.1105 L -2.89743 5.07459, -2.87627 4.97713 C -2.83716 4.87454, -2.76855 4.82516, -2.67045 4.82837, -2.54669 4.82837, -2.44442 4.82516, -2.36363 4.81811, -2.28283 4.81138, -2.2248 4.79599, -2.18954 4.77194, -2.15427 4.75495, -2.11708 4.66101, -2.07861 4.48981 L -0.852933 -0.250021 C -0.796506 -0.47188, -0.768293 -0.663602, -0.768293 -0.824546 L -0.768293 -0.947659 C -0.785606 -1.11149, -0.868322 -1.19356, -1.01644 -1.19388, -1.17161 -1.19356, -1.30114 -1.06853, -1.40502 -0.819096, -1.50889 -0.569344, -1.60988 -0.244571, -1.70863 0.155224, -1.74742 0.247879, -1.8125 0.295649, -1.9042 0.298855 L -2.02571 0.298855 C -2.11035 0.299176, -2.15267 0.256536, -2.15267 0.170613 L -2.15267 0.134705 C -2.11035 -0.0255973, -2.06258 -0.200969, -2.00968 -0.390767, -1.95678 -0.580565, -1.88624 -0.760104, -1.7984 -0.929384, -1.71023 -1.09866, -1.5993 -1.2423, -1.46561 -1.36028, -1.3316 -1.47826, -1.16456 -1.53725, -0.963862 -1.53757, -0.695836 -1.53725, -0.481992 -1.46095, -0.321689 -1.30898, -0.161387 -1.15669, -0.0671287 -1.00376, -0.0392361 -0.850195, 0.0983038 -1.00729, 0.282331 -1.16086, 0.513167 -1.31155, 0.744003 -1.46191, 0.987663 -1.53725, 1.24479 -1.53757, 1.51602 -1.53725, 1.74782 -1.46608, 1.93954 -1.32437, 2.13158 -1.18234, 2.28034 -1.00537, 2.38614 -0.793768, 2.5131 -0.54049, 2.57979 -0.266693, 2.58684 0.0269821 L 2.58684 0.0987976 C 2.58684 0.362335, 2.54997 0.634209, 2.47591 0.914418 Z M 1.69909 -0.645007 C 1.66767 -0.808836, 1.60868 -0.941247, 1.52211 -1.04224, 1.43587 -1.14291, 1.32238 -1.19356, 1.18131 -1.19388, 1.0194 -1.19356, 0.854933 -1.13874, 0.687577 -1.02941, 0.520221 -0.919766, 0.366009 -0.781585, 0.224943 -0.614229, 0.115937 -0.473804, 0.0207171 -0.342035, -0.060396 -0.219243 L -0.641333 2.02243 C -0.627226 2.09457, -0.613761 2.16318, -0.601578 2.22794, -0.589395 2.29302, -0.572724 2.35618, -0.551564 2.41742, -0.498664 2.58541, -0.422039 2.72231, -0.321689 2.82811, -0.22134 2.93423, -0.0882888 2.98713, 0.0771437 2.98681, 0.225264 2.98713, 0.371459 2.93263, 0.515732 2.82298, 0.660004 2.71366, 0.792094 2.57676, 0.912 2.41229, 1.08128 2.18337, 1.20792 1.94003, 1.29256 1.68163, 1.3772 1.42354, 1.45446 1.15936, 1.52468 0.888769, 1.59521 0.60856, 1.65709 0.33861, 1.70967 0.0782788, 1.73083 -0.044513, 1.74141 -0.164099, 1.74141 -0.280799, 1.74141 -0.403591, 1.7273 -0.525101, 1.69909 -0.645007 Z" stroke="none" fill="#E60000" transform="matrix(1.12 0 0 1 11.967 16.3063)" />
			<path d="M 2.39227 3.19713 L -1.90834 3.19713, -1.90834 2.915 C -1.90834 2.8948, -1.89776 2.86402, -1.8766 2.82266 L -0.148854 0.945196 C 0.0553722 0.71981, 0.262163 0.488975, 0.471839 0.253009, 0.681515 0.0170434, 0.869389 -0.224052, 1.03482 -0.470277, 1.20025 -0.716502, 1.33234 -0.970422, 1.43109 -1.23204, 1.52984 -1.49365, 1.57889 -1.76809, 1.57889 -2.05567, 1.57889 -2.29805, 1.54715 -2.52472, 1.48367 -2.73503, 1.42019 -2.94535, 1.32882 -3.13002, 1.20891 -3.28904, 1.08932 -3.44806, 0.939602 -3.5763, 0.760063 -3.67377, 0.580524 -3.77123, 0.372451 -3.81996, 0.136485 -3.82028, -0.215539 -3.81996, -0.526527 -3.7148, -0.796156 -3.50449, -1.06546 -3.29417, -1.24436 -3.06237, -1.33253 -2.80974, -1.34984 -2.80268, -1.32163 -2.79915, -1.24789 -2.79948 L -1.15812 -2.79948 C -1.05232 -2.77511, -0.960947 -2.73824, -0.883361 -2.68887, -0.805774 -2.63917, -0.740691 -2.57088, -0.687791 -2.48368, -0.634891 -2.39647, -0.608602 -2.29132, -0.608602 -2.16852, -0.608602 -1.96302, -0.675288 -1.8056, -0.809301 -1.69627, -0.943314 -1.58663, -1.09304 -1.53212, -1.25847 -1.53244, -1.41685 -1.53212, -1.56497 -1.58663, -1.70219 -1.69627, -1.83941 -1.8056, -1.90834 -1.96302, -1.90834 -2.16852, -1.90834 -2.45547, -1.85191 -2.72734, -1.73906 -2.98382, -1.6262 -3.24031, -1.47327 -3.46249, -1.27963 -3.65068, -1.08598 -3.83856, -0.857071 -3.98732, -0.592892 -4.09697, -0.328713 -4.20629, -0.0485041 -4.26112, 0.247415 -4.26144, 0.613867 -4.26112, 0.949541 -4.20725, 1.25412 -4.09953, 1.55869 -3.99181, 1.81838 -3.83695, 2.03319 -3.63529, 2.24799 -3.43331, 2.41631 -3.19991, 2.53782 -2.93509, 2.65933 -2.66995, 2.71992 -2.37692, 2.71992 -2.05567, 2.71992 -1.6998, 2.63913 -1.37214, 2.47691 -1.07302, 2.315 -0.77357, 2.1143 -0.499131, 1.87481 -0.2497, 1.63532 5.126e-005, 1.38076 0.235055, 1.11113 0.455632, 0.841817 0.676208, 0.597836 0.890693, 0.379504 1.09909 L -0.835911 2.24301, 0.754613 2.24301 C 0.976472 2.24333, 1.18358 2.24172, 1.3753 2.2382, 1.56735 2.23499, 1.73021 2.22794, 1.86423 2.21768, 1.99824 2.20742, 2.06685 2.20069, 2.07006 2.19684, 2.09827 2.17312, 2.12488 2.12534, 2.14957 2.05353, 2.17425 1.98171, 2.19702 1.89707, 2.21818 1.79961, 2.23934 1.70215, 2.2605 1.60308, 2.28166 1.50209, 2.30282 1.40142, 2.32205 1.29081, 2.33969 1.1709 L 2.7305 1.1709 Z" stroke="none" fill="#E60000" transform="matrix(1.12 0 0 1 18.9979 16.3063)" />
			<rect />
		</svg>
	</g>
	<g transform="matrix(1 0 -0 1 134.574 44.062)">
		<svg width="50.9839096" height="54.0428391">
			<defs />
			<path d="M 11.7138 8.04884 C 11.6955 8.129, 11.656 8.1977, 11.5965 8.25552, 11.5369 8.31392, 11.4625 8.34254, 11.3743 8.34197 L 11.1951 8.34197 C 11.0194 8.34254, 10.9312 8.26926, 10.9312 8.12213 L 10.9312 8.05801 C 10.9816 7.78377, 11.0251 7.49866, 11.0629 7.2021, 11.1007 6.90612, 11.1322 6.62959, 11.1574 6.37254 L 11.1574 6.07941 C 11.1574 5.93972, 11.1511 5.81148, 11.1385 5.69468, 11.1133 5.50576, 11.0692 5.36263, 11.0062 5.26416, 10.8368 5.04489, 10.5997 4.89718, 10.2946 4.82046, 9.98944 4.74432, 9.64822 4.70596, 9.27037 4.70539 L 8.22325 4.70539 C 7.90894 4.70596, 7.71371 4.72428, 7.63814 4.76035, 7.58204 4.81588, 7.51906 4.99909, 7.44979 5.30996 L 4.81739 15.5144 C 4.7922 15.6065, 4.7796 15.6798, 4.7796 15.7342, 4.7796 15.8567, 4.81739 15.93, 4.89238 15.9541, 5.06872 16.0096, 5.35211 16.0451, 5.74199 16.06, 6.13187 16.0754, 6.52175 16.0829, 6.91163 16.0823, 7.08796 16.0829, 7.17613 16.1562, 7.17613 16.3021, 7.17613 16.3394, 7.16983 16.3789, 7.15723 16.4212 L 7.11945 16.5586 C 7.08166 16.7487, 6.95915 16.8426, 6.75132 16.8426, 5.71966 16.806, 4.67884 16.7876, 3.62828 16.7876, 2.58403 16.7876, 1.53404 16.806, 0.477189 16.8426, 0.383298 16.8426, 0.314024 16.8151, 0.269368 16.7602, 0.225858 16.7178, 0.20353 16.672, 0.20353 16.6228, 0.20353 16.5867, 0.209827 16.55, 0.222423 16.5128 L 0.260208 16.3754 C 0.279101 16.2964, 0.323184 16.2283, 0.392458 16.1699, 0.461732 16.1121, 0.540165 16.0829, 0.628332 16.0823, 1.01191 16.0829, 1.40523 16.0754, 1.8077 16.06, 2.21018 16.0451, 2.50445 16.0096, 2.68994 15.9546, 2.87543 15.8997, 2.99967 15.7411, 3.06207 15.4777 L 5.69447 5.26416 C 5.75745 5.05118, 5.78893 4.88916, 5.78893 4.77867 L 5.78893 4.74203 C 5.76374 4.71798, 5.59085 4.70596, 5.27024 4.70539 L 4.22255 4.70539 C 3.84584 4.70596, 3.47771 4.74604, 3.11932 4.82504, 2.76093 4.90462, 2.43975 5.05691, 2.15636 5.28248, 2.02468 5.38667, 1.89873 5.53667, 1.77908 5.7319, 1.65999 5.9277, 1.54206 6.15212, 1.42527 6.40517, 1.30905 6.65879, 1.19741 6.92902, 1.09035 7.21584, 0.983861 7.50324, 0.876801 7.79007, 0.769742 8.07633, 0.706766 8.2601, 0.590546 8.34884, 0.420511 8.34197 L 0.260208 8.34197 C 0.166317 8.34254, 0.097043 8.3122, 0.0523872 8.25037, 0.0146016 8.2143, -0.00429124 8.17136, -0.00429124 8.12213, -0.00429124 8.08606, 0.00544143 8.04942, 0.0243343 8.0122, 0.188072 7.39618, 0.392458 6.767, 0.637492 6.12578, 0.883099 5.48457, 1.11611 4.84622, 1.33595 4.21074, 1.39893 4.02811, 1.51801 3.93651, 1.69434 3.93593 L 12.0917 3.93593 C 12.268 3.93651, 12.3556 4.01265, 12.3556 4.16494 L 12.3556 4.22906 Z" stroke="none" fill="#000000" />
			<path d="M 2.37267 3.19713 C 1.72472 3.17661, 1.09441 3.16635, 0.481416 3.16635, -0.131261 3.16635, -0.761571 3.17661, -1.40951 3.19713 L -1.40951 2.75598, -1.04499 2.75598 C -0.928927 2.7563, -0.819601 2.75469, -0.717648 2.75117, -0.615375 2.74796, -0.518552 2.7393, -0.426859 2.72552, -0.335166 2.71205, -0.255976 2.69827, -0.18929 2.68416, -0.132864 2.67422, -0.086376 2.6428, -0.0495062 2.58958, -0.012316 2.53668, 0.00595856 2.47769, 0.00595856 2.41229 L 0.00595856 -3.36887 C -0.169733 -3.28295, -0.386463 -3.21787, -0.643588 -3.17362, -0.900714 -3.12906, -1.18221 -3.10694, -1.4887 -3.10726 L -1.4887 -3.54328 C -1.06615 -3.54296, -0.675969 -3.59329, -0.318494 -3.69429, 0.0389807 -3.79496, 0.348044 -3.98411, 0.608376 -4.26144 L 0.772206 -4.26144 C 0.888265 -4.26112, 0.946294 -4.20469, 0.946294 -4.09216 L 0.946294 2.41229 C 0.946294 2.4809, 0.963928 2.54085, 0.999194 2.59215, 1.03446 2.64344, 1.08576 2.67422, 1.15244 2.68416, 1.20887 2.69827, 1.28133 2.71205, 1.36917 2.72552, 1.45702 2.7393, 1.55641 2.74796, 1.66734 2.75117, 1.77827 2.75469, 1.88663 2.7563, 1.99243 2.75598 L 2.37267 2.75598, 2.37267 3.19713 Z" stroke="none" fill="#000000" transform="matrix(1.12 0 0 1 12.5717 16.3063)" />
			<rect />
		</svg>
	</g>
	<g transform="matrix(1 0 -0 1 213.138 102.52)">
		<svg width="53.9427032" height="54.0428391">
			<defs />
			<path d="M 11.7138 8.04884 C 11.6955 8.129, 11.656 8.1977, 11.5965 8.25552, 11.5369 8.31392, 11.4625 8.34254, 11.3743 8.34197 L 11.1951 8.34197 C 11.0194 8.34254, 10.9312 8.26926, 10.9312 8.12213 L 10.9312 8.05801 C 10.9816 7.78377, 11.0251 7.49866, 11.0629 7.2021, 11.1007 6.90612, 11.1322 6.62959, 11.1574 6.37254 L 11.1574 6.07941 C 11.1574 5.93972, 11.1511 5.81148, 11.1385 5.69468, 11.1133 5.50576, 11.0692 5.36263, 11.0062 5.26416, 10.8368 5.04489, 10.5997 4.89718, 10.2946 4.82046, 9.98944 4.74432, 9.64822 4.70596, 9.27037 4.70539 L 8.22325 4.70539 C 7.90894 4.70596, 7.71371 4.72428, 7.63814 4.76035, 7.58204 4.81588, 7.51906 4.99909, 7.44979 5.30996 L 4.81739 15.5144 C 4.7922 15.6065, 4.7796 15.6798, 4.7796 15.7342, 4.7796 15.8567, 4.81739 15.93, 4.89238 15.9541, 5.06872 16.0096, 5.35211 16.0451, 5.74199 16.06, 6.13187 16.0754, 6.52175 16.0829, 6.91163 16.0823, 7.08796 16.0829, 7.17613 16.1562, 7.17613 16.3021, 7.17613 16.3394, 7.16983 16.3789, 7.15723 16.4212 L 7.11945 16.5586 C 7.08166 16.7487, 6.95915 16.8426, 6.75132 16.8426, 5.71966 16.806, 4.67884 16.7876, 3.62828 16.7876, 2.58403 16.7876, 1.53404 16.806, 0.477189 16.8426, 0.383298 16.8426, 0.314024 16.8151, 0.269368 16.7602, 0.225858 16.7178, 0.20353 16.672, 0.20353 16.6228, 0.20353 16.5867, 0.209827 16.55, 0.222423 16.5128 L 0.260208 16.3754 C 0.279101 16.2964, 0.323184 16.2283, 0.392458 16.1699, 0.461732 16.1121, 0.540165 16.0829, 0.628332 16.0823, 1.01191 16.0829, 1.40523 16.0754, 1.8077 16.06, 2.21018 16.0451, 2.50445 16.0096, 2.68994 15.9546, 2.87543 15.8997, 2.99967 15.7411, 3.06207 15.4777 L 5.69447 5.26416 C 5.75745 5.05118, 5.78893 4.88916, 5.78893 4.77867 L 5.78893 4.74203 C 5.76374 4.71798, 5.59085 4.70596, 5.27024 4.70539 L 4.22255 4.70539 C 3.84584 4.70596, 3.47771 4.74604, 3.11932 4.82504, 2.76093 4.90462, 2.43975 5.05691, 2.15636 5.28248, 2.02468 5.38667, 1.89873 5.53667, 1.77908 5.7319, 1.65999 5.9277, 1.54206 6.15212, 1.42527 6.40517, 1.30905 6.65879, 1.19741 6.92902, 1.09035 7.21584, 0.983861 7.50324, 0.876801 7.79007, 0.769742 8.07633, 0.706766 8.2601, 0.590546 8.34884, 0.420511 8.34197 L 0.260208 8.34197 C 0.166317 8.34254, 0.097043 8.3122, 0.0523872 8.25037, 0.0146016 8.2143, -0.00429124 8.17136, -0.00429124 8.12213, -0.00429124 8.08606, 0.00544143 8.04942, 0.0243343 8.0122, 0.188072 7.39618, 0.392458 6.767, 0.637492 6.12578, 0.883099 5.48457, 1.11611 4.84622, 1.33595 4.21074, 1.39893 4.02811, 1.51801 3.93651, 1.69434 3.93593 L 12.0917 3.93593 C 12.268 3.93651, 12.3556 4.01265, 12.3556 4.16494 L 12.3556 4.22906 Z" stroke="none" fill="#E60000" />
			<path d="M 2.39126 3.19713 L -1.90934 3.19713, -1.90934 2.915 C -1.90934 2.8948, -1.89876 2.86402, -1.8776 2.82266 L -0.149855 0.945196 C 0.0543709 0.71981, 0.261161 0.488975, 0.470837 0.253009, 0.680513 0.0170434, 0.868388 -0.224052, 1.03382 -0.470277, 1.19925 -0.716502, 1.33134 -0.970422, 1.43009 -1.23204, 1.52884 -1.49365, 1.57789 -1.76809, 1.57789 -2.05567, 1.57789 -2.29805, 1.54615 -2.52472, 1.48267 -2.73503, 1.41919 -2.94535, 1.32782 -3.13002, 1.20791 -3.28904, 1.08832 -3.44806, 0.938601 -3.5763, 0.759062 -3.67377, 0.579523 -3.77123, 0.371449 -3.81996, 0.135484 -3.82028, -0.216541 -3.81996, -0.527528 -3.7148, -0.797157 -3.50449, -1.06647 -3.29417, -1.24536 -3.06237, -1.33353 -2.80974, -1.35084 -2.80268, -1.32263 -2.79915, -1.24889 -2.79948 L -1.15912 -2.79948 C -1.05332 -2.77511, -0.961949 -2.73824, -0.884362 -2.68887, -0.806775 -2.63917, -0.741693 -2.57088, -0.688793 -2.48368, -0.635893 -2.39647, -0.609603 -2.29132, -0.609603 -2.16852, -0.609603 -1.96302, -0.676289 -1.8056, -0.810302 -1.69627, -0.944315 -1.58663, -1.09404 -1.53212, -1.25947 -1.53244, -1.41785 -1.53212, -1.56597 -1.58663, -1.70319 -1.69627, -1.84041 -1.8056, -1.90934 -1.96302, -1.90934 -2.16852, -1.90934 -2.45547, -1.85291 -2.72734, -1.74006 -2.98382, -1.6272 -3.24031, -1.47428 -3.46249, -1.28063 -3.65068, -1.08698 -3.83856, -0.858072 -3.98732, -0.593893 -4.09697, -0.329715 -4.20629, -0.0495055 -4.26112, 0.246413 -4.26144, 0.612865 -4.26112, 0.948539 -4.20725, 1.25311 -4.09953, 1.55769 -3.99181, 1.81738 -3.83695, 2.03219 -3.63529, 2.24699 -3.43331, 2.41531 -3.19991, 2.53682 -2.93509, 2.65833 -2.66995, 2.71892 -2.37692, 2.71892 -2.05567, 2.71892 -1.6998, 2.63813 -1.37214, 2.4759 -1.07302, 2.314 -0.77357, 2.1133 -0.499131, 1.87381 -0.2497, 1.63431 5.126e-005, 1.37975 0.235055, 1.11012 0.455632, 0.840816 0.676208, 0.596835 0.890693, 0.378503 1.09909 L -0.836912 2.24301, 0.753611 2.24301 C 0.97547 2.24333, 1.18258 2.24172, 1.3743 2.2382, 1.56635 2.23499, 1.72921 2.22794, 1.86323 2.21768, 1.99724 2.20742, 2.06585 2.20069, 2.06906 2.19684, 2.09727 2.17312, 2.12388 2.12534, 2.14857 2.05353, 2.17325 1.98171, 2.19602 1.89707, 2.21718 1.79961, 2.23833 1.70215, 2.2595 1.60308, 2.28066 1.50209, 2.30181 1.40142, 2.32105 1.29081, 2.33868 1.1709 L 2.7295 1.1709 Z" stroke="none" fill="#E60000" transform="matrix(1.12 0 0 1 12.9943 16.3063)" />
			<rect />
		</svg>
	</g>
	<g transform="matrix(1 0 -0 1 250.99 44.062)">
		<svg width="171.008011" height="54.0428391">
			<defs />
			<path d="M 11.7138 8.04884 C 11.6955 8.129, 11.656 8.1977, 11.5965 8.25552, 11.5369 8.31392, 11.4625 8.34254, 11.3743 8.34197 L 11.1951 8.34197 C 11.0194 8.34254, 10.9312 8.26926, 10.9312 8.12213 L 10.9312 8.05801 C 10.9816 7.78377, 11.0251 7.49866, 11.0629 7.2021, 11.1007 6.90612, 11.1322 6.62959, 11.1574 6.37254 L 11.1574 6.07941 C 11.1574 5.93972, 11.1511 5.81148, 11.1385 5.69468, 11.1133 5.50576, 11.0692 5.36263, 11.0062 5.26416, 10.8368 5.04489, 10.5997 4.89718, 10.2946 4.82046, 9.98944 4.74432, 9.64822 4.70596, 9.27037 4.70539 L 8.22325 4.70539 C 7.90894 4.70596, 7.71371 4.72428, 7.63814 4.76035, 7.58204 4.81588, 7.51906 4.99909, 7.44979 5.30996 L 4.81739 15.5144 C 4.7922 15.6065, 4.7796 15.6798, 4.7796 15.7342, 4.7796 15.8567, 4.81739 15.93, 4.89238 15.9541, 5.06872 16.0096, 5.35211 16.0451, 5.74199 16.06, 6.13187 16.0754, 6.52175 16.0829, 6.91163 16.0823, 7.08796 16.0829, 7.17613 16.1562, 7.17613 16.3021, 7.17613 16.3394, 7.16983 16.3789, 7.15723 16.4212 L 7.11945 16.5586 C 7.08166 16.7487, 6.95915 16.8426, 6.75132 16.8426, 5.71966 16.806, 4.67884 16.7876, 3.62828 16.7876, 2.58403 16.7876, 1.53404 16.806, 0.477189 16.8426, 0.383298 16.8426, 0.314024 16.8151, 0.269368 16.7602, 0.225858 16.7178, 0.20353 16.672, 0.20353 16.6228, 0.20353 16.5867, 0.209827 16.55, 0.222423 16.5128 L 0.260208 16.3754 C 0.279101 16.2964, 0.323184 16.2283, 0.392458 16.1699, 0.461732 16.1121, 0.540165 16.0829, 0.628332 16.0823, 1.01191 16.0829, 1.40523 16.0754, 1.8077 16.06, 2.21018 16.0451, 2.50445 16.0096, 2.68994 15.9546, 2.87543 15.8997, 2.99967 15.7411, 3.06207 15.4777 L 5.69447 5.26416 C 5.75745 5.05118, 5.78893 4.88916, 5.78893 4.77867 L 5.78893 4.74203 C 5.76374 4.71798, 5.59085 4.70596, 5.27024 4.70539 L 4.22255 4.70539 C 3.84584 4.70596, 3.47771 4.74604, 3.11932 4.82504, 2.76093 4.90462, 2.43975 5.05691, 2.15636 5.28248, 2.02468 5.38667, 1.89873 5.53667, 1.77908 5.7319, 1.65999 5.9277, 1.54206 6.15212, 1.42527 6.40517, 1.30905 6.65879, 1.19741 6.92902, 1.09035 7.21584, 0.983861 7.50324, 0.876801 7.79007, 0.769742 8.07633, 0.706766 8.2601, 0.590546 8.34884, 0.420511 8.34197 L 0.260208 8.34197 C 0.166317 8.34254, 0.097043 8.3122, 0.0523872 8.25037, 0.0146016 8.2143, -0.00429124 8.17136, -0.00429124 8.12213, -0.00429124 8.08606, 0.00544143 8.04942, 0.0243343 8.0122, 0.188072 7.39618, 0.392458 6.767, 0.637492 6.12578, 0.883099 5.48457, 1.11611 4.84622, 1.33595 4.21074, 1.39893 4.02811, 1.51801 3.93651, 1.69434 3.93593 L 12.0917 3.93593 C 12.268 3.93651, 12.3556 4.01265, 12.3556 4.16494 L 12.3556 4.22906 Z" stroke="none" fill="#000000" />
			<path d="M 2.37714 3.19713 C 1.7292 3.17661, 1.09857 3.16635, 0.485571 3.16635, -0.127106 3.16635, -0.757737 3.17661, -1.406 3.19713 L -1.406 2.75598, -1.04115 2.75598 C -0.925093 2.7563, -0.815766 2.75469, -0.713814 2.75117, -0.611541 2.74796, -0.514718 2.7393, -0.423025 2.72552, -0.331331 2.71205, -0.252142 2.69827, -0.185456 2.68416, -0.12903 2.67422, -0.082221 2.6428, -0.0453515 2.58958, -0.00816131 2.53668, 0.0101132 2.47769, 0.0101132 2.41229 L 0.0101132 -3.36887 C -0.165899 -3.28295, -0.382628 -3.21787, -0.639754 -3.17362, -0.89688 -3.12906, -1.17869 -3.10694, -1.48519 -3.10726 L -1.48519 -3.54328 C -1.06231 -3.54296, -0.672135 -3.59329, -0.31466 -3.69429, 0.042815 -3.79496, 0.351879 -3.98411, 0.612531 -4.26144 L 0.77636 -4.26144 C 0.89242 -4.26112, 0.950449 -4.20469, 0.950449 -4.09216 L 0.950449 2.41229 C 0.950449 2.4809, 0.968082 2.54085, 1.00335 2.59215, 1.03862 2.64344, 1.08991 2.67422, 1.1566 2.68416, 1.21302 2.69827, 1.28548 2.71205, 1.37333 2.72552, 1.46149 2.7393, 1.56088 2.74796, 1.67181 2.75117, 1.78274 2.75469, 1.89111 2.7563, 1.99658 2.75598 L 2.37714 2.75598, 2.37714 3.19713 Z" stroke="none" fill="#000000" transform="matrix(1.12 0 0 1 12.5717 16.3063)" />
			<polyline points="-5.2528 6.04072 0 -6.04072" fill="none" stroke="#000000" stroke-width="0.750400007" stroke-linecap="round" stroke-linejoin="round" transform="matrix(-4.37114e-008 -1 1 -4.37114e-008 27.5665 11.2074)" />
			<polyline points="0 -6.04072 5.2528 6.04072" fill="none" stroke="#000000" stroke-width="0.750400007" stroke-linecap="round" stroke-linejoin="round" transform="matrix(-4.37114e-008 -1 1 -4.37114e-008 27.5665 11.2074)" />
			<ellipse cx="-5.252799779176712" cy="6.0407201945781708" rx="0.37520000338554382" ry="0.37520000338554382" stroke="none" fill="#000000" transform="matrix(-4.37114e-008 -1 1 -4.37114e-008 27.5665 11.2074)" />
			<ellipse cx="-0" cy="-6.0407197773456573" rx="0.37520000338554382" ry="0.37520000338554382" stroke="none" fill="#000000" transform="matrix(-4.37114e-008 -1 1 -4.37114e-008 27.5665 11.2074)" />
			<ellipse cx="5.2528001964092255" cy="6.0407201945781708" rx="0.37520000338554382" ry="0.37520000338554382" stroke="none" fill="#000000" transform="matrix(-4.37114e-008 -1 1 -4.37114e-008 27.5665 11.2074)" />
			<path d="M 51.2868 8.04884 C 51.2684 8.129, 51.2289 8.1977, 51.1694 8.25552, 51.1099 8.31392, 51.0354 8.34254, 50.9473 8.34197 L 50.7681 8.34197 C 50.5923 8.34254, 50.5041 8.26926, 50.5041 8.12213 L 50.5041 8.05801 C 50.5545 7.78377, 50.598 7.49866, 50.6358 7.2021, 50.6736 6.90612, 50.7051 6.62959, 50.7303 6.37254 L 50.7303 6.07941 C 50.7303 5.93972, 50.724 5.81148, 50.7114 5.69468, 50.6862 5.50576, 50.6421 5.36263, 50.5791 5.26416, 50.4097 5.04489, 50.1727 4.89718, 49.8675 4.82046, 49.5624 4.74432, 49.2211 4.70596, 48.8433 4.70539 L 47.7962 4.70539 C 47.4819 4.70596, 47.2866 4.72428, 47.2111 4.76035, 47.155 4.81588, 47.092 4.99909, 47.0227 5.30996 L 44.3903 15.5144 C 44.3651 15.6065, 44.3525 15.6798, 44.3525 15.7342, 44.3525 15.8567, 44.3903 15.93, 44.4653 15.9541, 44.6416 16.0096, 44.925 16.0451, 45.3149 16.06, 45.7048 16.0754, 46.0947 16.0829, 46.4845 16.0823, 46.6609 16.0829, 46.749 16.1562, 46.749 16.3021, 46.749 16.3394, 46.7427 16.3789, 46.7302 16.4212 L 46.6924 16.5586 C 46.6546 16.7487, 46.5321 16.8426, 46.3242 16.8426, 45.2926 16.806, 44.2518 16.7876, 43.2012 16.7876, 42.1569 16.7876, 41.107 16.806, 40.0501 16.8426, 39.9562 16.8426, 39.8869 16.8151, 39.8423 16.7602, 39.7988 16.7178, 39.7765 16.672, 39.7765 16.6228, 39.7765 16.5867, 39.7827 16.55, 39.7953 16.5128 L 39.8331 16.3754 C 39.852 16.2964, 39.8961 16.2283, 39.9654 16.1699, 40.0347 16.1121, 40.1131 16.0829, 40.2013 16.0823, 40.5848 16.0829, 40.9781 16.0754, 41.3806 16.06, 41.7831 16.0451, 42.0774 16.0096, 42.2629 15.9546, 42.4484 15.8997, 42.5726 15.7411, 42.635 15.4777 L 45.2674 5.26416 C 45.3304 5.05118, 45.3619 4.88916, 45.3619 4.77867 L 45.3619 4.74203 C 45.3367 4.71798, 45.1638 4.70596, 44.8432 4.70539 L 43.7955 4.70539 C 43.4188 4.70596, 43.0506 4.74604, 42.6922 4.82504, 42.3339 4.90462, 42.0127 5.05691, 41.7293 5.28248, 41.5976 5.38667, 41.4717 5.53667, 41.352 5.7319, 41.2329 5.9277, 41.115 6.15212, 40.9982 6.40517, 40.882 6.65879, 40.7703 6.92902, 40.6633 7.21584, 40.5568 7.50324, 40.4497 7.79007, 40.3427 8.07633, 40.2797 8.2601, 40.1635 8.34884, 39.9934 8.34197 L 39.8331 8.34197 C 39.7392 8.34254, 39.67 8.3122, 39.6253 8.25037, 39.5875 8.2143, 39.5686 8.17136, 39.5686 8.12213, 39.5686 8.08606, 39.5784 8.04942, 39.5973 8.0122, 39.761 7.39618, 39.9654 6.767, 40.2104 6.12578, 40.456 5.48457, 40.689 4.84622, 40.9089 4.21074, 40.9719 4.02811, 41.0909 3.93651, 41.2673 3.93593 L 51.6646 3.93593 C 51.841 3.93651, 51.9285 4.01265, 51.9285 4.16494 L 51.9285 4.22906 Z" stroke="none" fill="#000000" />
			<path d="M 2.39138 3.19713 L -1.90858 3.19713, -1.90858 2.915 C -1.90858 2.8948, -1.898 2.86402, -1.87684 2.82266 L -0.149418 0.945196 C 0.0551279 0.71981, 0.261918 0.488975, 0.471594 0.253009, 0.68127 0.0170434, 0.868504 -0.224052, 1.03394 -0.470277, 1.19937 -0.716502, 1.33146 -0.970422, 1.4302 -1.23204, 1.52895 -1.49365, 1.578 -1.76809, 1.578 -2.05567, 1.578 -2.29805, 1.54658 -2.52472, 1.4831 -2.73503, 1.41962 -2.94535, 1.32825 -3.13002, 1.20835 -3.28904, 1.08844 -3.44806, 0.938716 -3.5763, 0.759177 -3.67377, 0.579638 -3.77123, 0.371886 -3.81996, 0.13592 -3.82028, -0.216105 -3.81996, -0.527092 -3.7148, -0.7964 -3.50449, -1.06571 -3.29417, -1.24461 -3.06237, -1.33277 -2.80974, -1.35009 -2.80268, -1.32187 -2.79915, -1.24813 -2.79948 L -1.15836 -2.79948 C -1.05256 -2.77511, -0.961191 -2.73824, -0.883605 -2.68887, -0.806018 -2.63917, -0.740935 -2.57088, -0.688036 -2.48368, -0.635136 -2.39647, -0.608846 -2.29132, -0.608846 -2.16852, -0.608846 -1.96302, -0.675532 -1.8056, -0.809545 -1.69627, -0.943558 -1.58663, -1.09328 -1.53212, -1.25871 -1.53244, -1.41709 -1.53212, -1.56489 -1.58663, -1.70243 -1.69627, -1.83965 -1.8056, -1.90858 -1.96302, -1.90858 -2.16852, -1.90858 -2.45547, -1.85215 -2.72734, -1.7393 -2.98382, -1.62645 -3.24031, -1.47352 -3.46249, -1.27987 -3.65068, -1.08623 -3.83856, -0.857315 -3.98732, -0.593136 -4.09697, -0.328958 -4.20629, -0.0487483 -4.26112, 0.24685 -4.26144, 0.612981 -4.26112, 0.948655 -4.20725, 1.25323 -4.09953, 1.55781 -3.99181, 1.8175 -3.83695, 2.0323 -3.63529, 2.24711 -3.43331, 2.41543 -3.19991, 2.53693 -2.93509, 2.65844 -2.66995, 2.71904 -2.37692, 2.71904 -2.05567, 2.71904 -1.6998, 2.63825 -1.37214, 2.47602 -1.07302, 2.31411 -0.77357, 2.11342 -0.499131, 1.87392 -0.2497, 1.63443 5.126e-005, 1.37987 0.235055, 1.11056 0.455632, 0.841252 0.676208, 0.597272 0.890693, 0.378939 1.09909 L -0.836155 2.24301, 0.754048 2.24301 C 0.975907 2.24333, 1.18302 2.24172, 1.37474 2.2382, 1.56678 2.23499, 1.72965 2.22794, 1.86334 2.21768, 1.99736 2.20742, 2.06597 2.20069, 2.06917 2.19684, 2.09738 2.17312, 2.12399 2.12534, 2.14868 2.05353, 2.17337 1.98171, 2.19613 1.89707, 2.21729 1.79961, 2.23845 1.70215, 2.25961 1.60308, 2.28077 1.50209, 2.30193 1.40142, 2.32117 1.29081, 2.3388 1.1709 L 2.72962 1.1709 Z" stroke="none" fill="#000000" transform="matrix(1.12 0 0 1 52.5675 16.3063)" />
			<rect />
		</svg>
	</g>
</svg>
