<?xml version="1.0"?>
<svg xmlns="http://www.w3.org/2000/svg" xmlns:xlink="http://www.w3.org/1999/xlink" width="222.543076" height="150.849274">
	<defs />
	<path d="M -308.315 -158.048 L 308.315 -158.048, 308.315 158.048, -308.315 158.048 Z" fill="none" stroke="#000000" stroke-width="3" stroke-linecap="round" stroke-linejoin="round" transform="matrix(0.333333 0 -0 0.333333 111.272 88.6667)" />
	<g transform="matrix(1 0 -0 1 51.5301 8.99998)">
		<svg width="41.9788857" height="45.0428467">
			<defs />
			<path d="M 12.3983 16.5678 C 12.3296 16.751, 12.2099 16.8426, 12.0399 16.8426, 11.4113 16.806, 10.7849 16.7876, 10.1621 16.7876 L 9.85061 16.7876 C 9.11493 16.8002, 8.37582 16.8185, 7.63385 16.8426, 7.46439 16.8426, 7.37279 16.7636, 7.36019 16.6044 L 7.36019 16.5311, 7.39798 16.3754 C 7.44836 16.1745, 7.57088 16.0766, 7.76553 16.0823, 7.99854 16.0829, 8.20636 16.0754, 8.38842 16.06, 8.57105 16.0451, 8.74738 15.9913, 8.91685 15.8991, 8.97982 15.8693, 9.03364 15.8264, 9.07715 15.7709, 9.10234 15.7228, 9.11837 15.6735, 9.12409 15.6243 L 9.12409 15.5693, 8.89795 12.5282, 4.63333 12.5282, 3.13335 15.093 C 3.05148 15.2401, 3.01026 15.3747, 3.01026 15.4961, 3.01026 15.6002, 3.04175 15.6953, 3.10473 15.78, 3.24327 15.9821, 3.50148 16.0829, 3.87819 16.0823, 4.04822 16.0829, 4.13925 16.1562, 4.15185 16.3021, 4.15185 16.3394, 4.14555 16.3789, 4.13295 16.4212 L 4.09574 16.5678 C 4.02647 16.751, 3.90395 16.8426, 3.72762 16.8426, 3.14938 16.8185, 2.57687 16.8002, 2.01009 16.7876 L 1.75589 16.7876 C 1.26525 16.7876, 0.768314 16.806, 0.265078 16.8426, 0.170614 16.8426, 0.101341 16.8123, 0.0572573 16.751, 0.0194716 16.7149, 0.000578821 16.672, 0.000578821 16.6228, 0.000578821 16.5867, 0.00687641 16.55, 0.0194716 16.5128 L 0.0572573 16.3754 C 0.107638 16.1745, 0.230728 16.0766, 0.425381 16.0823, 0.626904 16.0829, 0.824993 16.0617, 1.01965 16.0188, 1.21487 15.9764, 1.3975 15.8997, 1.56697 15.7897, 1.737 15.6798, 1.89444 15.547, 2.03871 15.3913, 2.18356 15.2356, 2.31237 15.0598, 2.42573 14.864 L 9.08631 3.45961 C 9.19967 3.289, 9.34451 3.20656, 9.52084 3.21228 L 9.70004 3.21228 C 9.90156 3.21285, 10.0143 3.30732, 10.0395 3.49625 L 10.8697 15.4319 C 10.8823 15.5911, 10.9012 15.7119, 10.9264 15.7943, 10.9515 15.8768, 10.9956 15.9363, 11.0586 15.9724, 11.1468 16.0279, 11.2928 16.06, 11.4971 16.0691, 11.7021 16.0783, 11.9328 16.0829, 12.1905 16.0823, 12.3668 16.0829, 12.455 16.1562, 12.455 16.3021, 12.455 16.3394, 12.4487 16.3789, 12.4361 16.4212 Z M 8.4451 6.03361 L 5.08618 11.7862, 8.84127 11.7862 Z" stroke="none" fill="#000000" />
			<rect />
		</svg>
	</g>
	<g transform="matrix(1 0 -0 1 156.092 8.99998)">
		<svg width="44.9376793" height="45.0428467">
			<defs />
			<path d="M 13.0346 7.12367 C 12.9281 7.56393, 12.7157 7.97614, 12.398 8.36086, 12.0808 8.74559, 11.7144 9.07249, 11.2993 9.34043, 10.9724 9.56084, 10.6375 9.73489, 10.2946 9.86313, 9.95223 9.99137, 9.83086 10.0463, 9.93104 10.0274, 9.91272 10.0217, 10.0776 10.1001, 10.4268 10.2616, 10.7761 10.4236, 11.0824 10.6446, 11.3463 10.9251, 11.6417 11.2251, 11.8432 11.5852, 11.9497 12.006, 12.0001 12.2144, 12.0287 12.4188, 12.035 12.6198, 12.035 12.8522, 12.0007 13.0938, 11.9308 13.3434, 11.8117 13.814, 11.5913 14.2634, 11.2707 14.6905, 10.9501 15.1182, 10.5665 15.4903, 10.12 15.8075, 9.64822 16.1499, 9.14671 16.4081, 8.61542 16.5821, 8.08413 16.7561, 7.55456 16.8426, 7.02613 16.8426 L 0.271661 16.8426 C 0.177769 16.8426, 0.108495 16.8151, 0.0644122 16.7602, 0.0209015 16.7178, -0.00142642 16.672, -0.00142642 16.6228, -0.00142642 16.5867, 0.00487119 16.55, 0.0174664 16.5128 L 0.0546795 16.3754 C 0.0924652 16.1745, 0.215555 16.0766, 0.422803 16.0823, 0.718218 16.0829, 0.995313 16.0783, 1.25294 16.0691, 1.51114 16.06, 1.70637 16.0279, 1.83805 15.9724, 1.9514 15.9117, 2.039 15.7468, 2.10197 15.4777 L 4.75269 5.15423 C 4.79048 5.02027, 4.80937 4.91664, 4.80937 4.84279, 4.80937 4.77008, 4.79391 4.72714, 4.76185 4.71455, 4.67426 4.66016, 4.50308 4.62695, 4.24831 4.61436, 3.99355 4.60234, 3.71531 4.59604, 3.41302 4.59547, 3.31913 4.59604, 3.24986 4.56569, 3.20577 4.50386, 3.16799 4.4678, 3.14909 4.422, 3.14909 4.36646, 3.14909 4.33039, 3.15883 4.29662, 3.17715 4.2657 L 3.20577 4.1283 C 3.22467 4.04357, 3.27047 3.97486, 3.3426 3.92277, 3.41474 3.87124, 3.49203 3.84491, 3.57332 3.84433 L 9.82742 3.84433 C 10.3433 3.84491, 10.8305 3.92162, 11.2896 4.07391, 11.7488 4.22677, 12.1295 4.4678, 12.4312 4.79699, 12.7266 5.09698, 12.9344 5.44507, 13.0535 5.84125, 13.1039 6.04334, 13.1291 6.24773, 13.1291 6.45498, 13.1291 6.67539, 13.0976 6.8981, 13.0346 7.12367 Z M 11.1293 7.08703 C 11.1923 6.84314, 11.2238 6.59925, 11.2238 6.35422 L 11.2238 6.13437 C 11.1986 5.84182, 11.1104 5.56988, 10.9593 5.31912, 10.8276 5.09355, 10.653 4.91664, 10.436 4.7884, 10.2196 4.66016, 9.96654 4.59604, 9.67685 4.59547 L 7.18643 4.59547 C 6.85323 4.59604, 6.66144 4.61722, 6.61106 4.65959, 6.53549 4.72142, 6.46335 4.89832, 6.39408 5.19088 L 5.22444 9.78927, 7.79959 9.78927 C 8.15798 9.78985, 8.51351 9.72, 8.8656 9.57916, 9.2177 9.4389, 9.55433 9.24024, 9.87494 8.98318, 10.5413 8.44617, 10.9598 7.81412, 11.1293 7.08703 Z M 9.96883 13.2885 C 10.057 12.9776, 10.1011 12.669, 10.1011 12.3633 L 10.1011 12.1709 C 10.0759 11.8297, 9.98486 11.5148, 9.82742 11.2274, 9.68945 10.9778, 9.50224 10.7746, 9.26636 10.6188, 9.03049 10.4631, 8.75568 10.3853, 8.4408 10.3847 L 5.05441 10.3847, 3.74336 15.5144 C 3.69298 15.7228, 3.66779 15.8722, 3.66779 15.9632, 3.66779 16.0125, 3.67122 16.0399, 3.67695 16.0457, 3.68954 16.0646, 3.85328 16.0766, 4.16759 16.0823 L 6.68663 16.0823 C 7.03243 16.0829, 7.38166 16.0084, 7.73375 15.8585, 8.08585 15.709, 8.40931 15.5121, 8.70473 15.267, 9.0322 14.9928, 9.30071 14.6848, 9.5114 14.3424, 9.72208 14.0007, 9.87494 13.6491, 9.96883 13.2885 Z" stroke="none" fill="#000000" />
			<rect />
		</svg>
	</g>
	<path d="M 0 -170.998 L 0 170.998" fill="none" stroke="#000000" stroke-width="6" stroke-linecap="round" stroke-linejoin="round" transform="matrix(0.333333 0 0 0.333333 111.272 84.3496)" />
	<path d="M -22.3572 0 L 22.3572 0" fill="none" stroke="#000000" stroke-width="6" stroke-linecap="round" stroke-linejoin="round" transform="matrix(0.333333 0 0 0.333333 111.272 27.3503)" />
	<g transform="matrix(1 0 -0 1 37.4031 41.0691)">
		<svg width="125.982887" height="47.9999886">
			<defs />
			<path d="M 6.82472 16.7669 C 5.69082 16.731, 4.58721 16.7131, 3.51447 16.7131, 2.44228 16.7131, 1.33868 16.731, 0.204215 16.7669 L 0.204215 15.9949, 0.842701 15.9949 C 1.0458 15.9955, 1.23713 15.9927, 1.41554 15.9865, 1.59452 15.9809, 1.76396 15.9657, 1.92442 15.9416, 2.08489 15.918, 2.22347 15.8939, 2.34017 15.8692, 2.43892 15.8518, 2.52083 15.7969, 2.58535 15.7037, 2.65043 15.6111, 2.68242 15.5079, 2.68242 15.3935 L 2.68242 5.27643 C 2.37439 5.4268, 1.99512 5.54069, 1.54515 5.61812, 1.09518 5.6961, 0.602006 5.73482, 0.0656334 5.73426 L 0.0656334 4.97122 C 0.805671 4.97178, 1.48848 4.88369, 2.11406 4.70696, 2.73964 4.53078, 3.2805 4.19976, 3.73665 3.71444 L 4.02335 3.71444 C 4.22645 3.715, 4.328 3.81375, 4.328 4.01068 L 4.328 15.3935 C 4.328 15.5135, 4.35886 15.6184, 4.42058 15.7082, 4.48229 15.798, 4.57206 15.8518, 4.68876 15.8692, 4.78751 15.8939, 4.91431 15.918, 5.06804 15.9416, 5.22233 15.9657, 5.39626 15.9809, 5.59039 15.9865, 5.78451 15.9927, 5.97415 15.9955, 6.15874 15.9949 L 6.82472 15.9949, 6.82472 16.7669 Z" stroke="none" fill="#000000" />
			<path d="M 25.8822 16.8334 C 25.1025 16.7911, 24.3513 16.7693, 23.6277 16.7693, 22.9046 16.7693, 22.1437 16.7911, 21.3451 16.8334 L 21.3451 16.064 C 21.6279 16.0646, 21.8873 16.06, 22.1231 16.0508, 22.359 16.0417, 22.5371 16.0096, 22.6561 15.9541, 22.7317 15.918, 22.7838 15.8539, 22.8119 15.7623, 22.8405 15.6707, 22.8542 15.5762, 22.8542 15.4777 L 22.8542 11.0076 C 22.8542 10.703, 22.8353 10.4145, 22.7975 10.1425, 22.7598 9.87114, 22.6659 9.61866, 22.5147 9.38623, 22.4266 9.24024, 22.2995 9.13375, 22.1329 9.06619, 21.9663 8.99921, 21.779 8.96543, 21.5712 8.96486, 21.2128 8.96543, 20.8796 9.04043, 20.5716 9.18985, 20.2636 9.33985, 19.998 9.54138, 19.7747 9.79443, 19.5514 10.048, 19.3739 10.3458, 19.2417 10.6875, 19.11 11.0299, 19.0436 11.3866, 19.0436 11.7587 L 19.0436 15.4777 C 19.0436 15.5819, 19.0562 15.6787, 19.0814 15.7668, 19.1066 15.8556, 19.1598 15.918, 19.2417 15.9541, 19.3613 16.0096, 19.5388 16.0417, 19.7747 16.0508, 20.0106 16.06, 20.2699 16.0646, 20.5527 16.064 L 20.5527 16.8334 C 19.7541 16.7911, 18.9932 16.7693, 18.2696 16.7693, 17.5345 16.7693, 16.7828 16.7911, 16.0156 16.8334 L 16.0156 16.064 C 16.2984 16.0646, 16.5578 16.06, 16.7936 16.0508, 17.0295 16.0417, 17.2076 16.0096, 17.3266 15.9541, 17.3959 15.918, 17.4429 15.8556, 17.4681 15.7668, 17.4932 15.6787, 17.5058 15.5819, 17.5058 15.4777 L 17.5058 11.0076 C 17.5058 10.703, 17.4887 10.4145, 17.4543 10.1425, 17.42 9.87114, 17.3266 9.61866, 17.1755 9.38623, 17.0816 9.24024, 16.9511 9.13375, 16.7845 9.06619, 16.6179 8.99921, 16.4307 8.96543, 16.2228 8.96486, 15.8645 8.96543, 15.5301 9.04043, 15.2187 9.18985, 14.9072 9.33985, 14.6416 9.54138, 14.4212 9.79443, 14.2013 10.048, 14.025 10.3458, 13.8927 10.6875, 13.761 11.0299, 13.6946 11.3866, 13.6946 11.7587 L 13.6946 15.4777 C 13.6946 15.5819, 13.7072 15.6787, 13.7324 15.7668, 13.7576 15.8556, 13.808 15.918, 13.8836 15.9541, 14.0032 16.0096, 14.1824 16.0417, 14.4212 16.0508, 14.6605 16.06, 14.9181 16.0646, 15.1946 16.064 L 15.1946 16.8243 C 14.874 16.8123, 14.5786 16.8031, 14.3084 16.7968, 14.0381 16.7911, 13.7736 16.7819, 13.5154 16.7693 L 12.9212 16.7693 C 12.1855 16.7693, 11.4338 16.7911, 10.6666 16.8334 L 10.6666 16.064 C 10.95 16.0646, 11.2094 16.06, 11.4452 16.0508, 11.6811 16.0417, 11.8592 16.0096, 11.9783 15.9541, 12.0538 15.918, 12.1036 15.8556, 12.1288 15.7668, 12.154 15.6787, 12.1666 15.5819, 12.1666 15.4777 L 12.1666 10.2748 C 12.1666 10.1042, 12.1592 9.949, 12.1431 9.80817, 12.1277 9.6679, 12.0664 9.55454, 11.9594 9.46867, 11.8529 9.39596, 11.68 9.35359, 11.4407 9.341, 11.2014 9.32897, 10.9437 9.32268, 10.6666 9.3221 L 10.6666 8.56181, 12.2891 8.44273, 13.591 8.34197, 13.591 9.91751 C 13.7107 9.63698, 14.0204 9.30607, 14.5202 8.92421, 15.0206 8.54292, 15.6068 8.3517, 16.2795 8.35113, 16.6322 8.3517, 16.9952 8.39292, 17.369 8.47536, 17.7434 8.5578, 18.072 8.73643, 18.3549 9.01066, 18.5438 9.19444, 18.6869 9.39481, 18.7843 9.61122, 18.8816 9.8282, 18.9302 9.94557, 18.9302 9.96332, 19.1003 9.59748, 19.4306 9.23737, 19.9207 8.88299, 20.4113 8.52918, 20.9775 8.3517, 21.6187 8.35113, 21.9708 8.3517, 22.3372 8.39292, 22.7174 8.47536, 23.0981 8.5578, 23.4302 8.73643, 23.713 9.01123, 23.9958 9.28604, 24.1802 9.60206, 24.2649 9.95931, 24.3496 10.3166, 24.392 10.6664, 24.392 11.0076 L 24.392 15.4777 C 24.392 15.5819, 24.4046 15.6787, 24.4298 15.7668, 24.455 15.8556, 24.5088 15.918, 24.5901 15.9541, 24.7097 16.0096, 24.8872 16.0417, 25.1231 16.0508, 25.359 16.06, 25.612 16.0646, 25.8822 16.064 L 25.8822 16.8334 Z" stroke="none" fill="#000000" />
			<path d="M 35.2524 12.7388 C 35.2524 13.3136, 35.1425 13.8633, 34.9227 14.3882, 34.7028 14.9138, 34.3816 15.3775, 33.9603 15.78, 33.5584 16.1716, 33.0929 16.4785, 32.5645 16.7012, 32.0361 16.9239, 31.4761 17.035, 30.8853 17.035, 30.2945 17.035, 29.7346 16.9256, 29.2061 16.7058, 28.6783 16.4859, 28.2094 16.1773, 27.8006 15.78, 27.373 15.3712, 27.0524 14.9058, 26.8382 14.3837, 26.6247 13.8615, 26.5176 13.3136, 26.5176 12.7388, 26.5176 12.1532, 26.6264 11.5887, 26.8434 11.0448, 27.0604 10.5015, 27.3793 10.0126, 27.8006 9.57859, 28.2031 9.16982, 28.6703 8.84807, 29.2016 8.61277, 29.7329 8.37804, 30.2945 8.2601, 30.8853 8.25953, 31.4761 8.2601, 32.0361 8.37804, 32.5645 8.61277, 33.0929 8.84807, 33.5584 9.16982, 33.9603 9.57859, 34.3879 10.0188, 34.7103 10.5089, 34.9272 11.0494, 35.1442 11.5898, 35.2524 12.1532, 35.2524 12.7388 Z M 33.4605 12.5282 C 33.4605 12.0587, 33.4278 11.5944, 33.3614 11.1364, 33.2956 10.6784, 33.1336 10.2599, 32.8754 9.88087, 32.6366 9.55798, 32.3441 9.30607, 31.9983 9.12573, 31.6525 8.94597, 31.2815 8.85551, 30.8853 8.85494, 30.4891 8.85551, 30.1182 8.94597, 29.7724 9.12573, 29.4266 9.30607, 29.134 9.55798, 28.8947 9.88087, 28.6371 10.2542, 28.4756 10.6709, 28.4092 11.1318, 28.3434 11.5933, 28.3102 12.0587, 28.3102 12.5282, 28.3102 13.0234, 28.3405 13.5134, 28.4001 13.9989, 28.4596 14.4844, 28.6245 14.9316, 28.8947 15.3403, 29.1088 15.6586, 29.3951 15.9105, 29.7535 16.0966, 30.1119 16.2833, 30.4891 16.376, 30.8853 16.3754, 31.2815 16.376, 31.6588 16.2833, 32.0172 16.0966, 32.3756 15.9105, 32.6618 15.6586, 32.8754 15.3403, 33.1462 14.9316, 33.3116 14.4844, 33.3712 13.9989, 33.4307 13.5134, 33.4605 13.0234, 33.4605 12.5282 Z" stroke="none" fill="#000000" />
			<path d="M 40.6294 16.8334 C 39.8496 16.7911, 39.0985 16.7693, 38.3748 16.7693, 37.6644 16.7693, 36.9189 16.7911, 36.1392 16.8334 L 36.1392 16.064 C 36.4226 16.0646, 36.6819 16.06, 36.9178 16.0508, 37.1537 16.0417, 37.3317 16.0096, 37.4508 15.9541, 37.5264 15.918, 37.5762 15.8556, 37.6014 15.7668, 37.6266 15.6787, 37.6392 15.5819, 37.6392 15.4777 L 37.6392 5.5298 C 37.6392 5.37179, 37.6317 5.21778, 37.6157 5.06778, 37.6002 4.91836, 37.539 4.80386, 37.4319 4.72371, 37.3254 4.651, 37.1525 4.60863, 36.9132 4.59604, 36.6739 4.58401, 36.4163 4.57772, 36.1392 4.57714 L 36.1392 3.83517, 39.1203 3.61533, 39.1203 15.4777 C 39.1203 15.5762, 39.1346 15.6707, 39.1626 15.7623, 39.1912 15.8539, 39.2428 15.918, 39.3183 15.9541, 39.438 16.0096, 39.6155 16.0417, 39.8513 16.0508, 40.0872 16.06, 40.3466 16.0646, 40.6294 16.064 L 40.6294 16.8334 Z" stroke="none" fill="#000000" />
			<rect />
		</svg>
	</g>
	<g transform="matrix(1 0 -0 1 141.926 41.0691)">
		<svg width="128.941681" height="47.9999886">
			<defs />
			<path d="M 7.60405 16.7669 L 0.0791219 16.7669, 0.0791219 16.2732 C 0.0791219 16.2379, 0.0976369 16.184, 0.134667 16.1116 L 3.15766 12.826 C 3.51561 12.4316, 3.8775 12.0277, 4.24443 11.6147, 4.61136 11.2018, 4.93902 10.7799, 5.22853 10.349, 5.51803 9.91808, 5.74919 9.47372, 5.922 9.01589, 6.0948 8.55807, 6.18064 8.0778, 6.18064 7.57453, 6.18064 7.15037, 6.12566 6.7537, 6.01457 6.38565, 5.90348 6.01759, 5.74358 5.69442, 5.53374 5.41613, 5.32391 5.13785, 5.06189 4.91343, 4.7477 4.74286, 4.4335 4.5723, 4.06994 4.48702, 3.657 4.48646, 3.04096 4.48702, 2.49673 4.67105, 2.02544 5.0391, 1.55415 5.40716, 1.24108 5.8128, 1.08678 6.25492, 1.05649 6.26726, 1.10586 6.27343, 1.2349 6.27287 L 1.392 6.27287 C 1.57715 6.31551, 1.73705 6.38004, 1.87283 6.46644, 2.00861 6.5534, 2.1225 6.67291, 2.21508 6.82552, 2.30765 6.97812, 2.35366 7.16215, 2.35366 7.37704, 2.35366 7.73668, 2.23696 8.01216, 2.00243 8.20348, 1.76791 8.39536, 1.5059 8.49074, 1.21639 8.49018, 0.939226 8.49074, 0.680578 8.39536, 0.439883 8.20348, 0.19975 8.01216, 0.0791219 7.73668, 0.0791219 7.37704, 0.0791219 6.87489, 0.177868 6.39911, 0.375361 5.95026, 0.572854 5.50142, 0.84048 5.1126, 1.17936 4.78326, 1.51824 4.45448, 1.91884 4.19415, 2.38115 4.00226, 2.84346 3.81094, 3.33383 3.715, 3.85113 3.71444, 4.49186 3.715, 5.07928 3.80926, 5.61229 3.99778, 6.1453 4.18629, 6.59976 4.45728, 6.97567 4.81019, 7.35157 5.16366, 7.64613 5.57211, 7.85877 6.03554, 8.07141 6.49954, 8.17745 7.01235, 8.17745 7.57453, 8.17745 8.19731, 8.03607 8.77071, 7.75217 9.29418, 7.46884 9.81821, 7.11761 10.2985, 6.6985 10.735, 6.27939 11.172, 5.83391 11.5833, 5.36262 11.9693, 4.89133 12.3553, 4.46436 12.7307, 4.08228 13.0954 L 1.95587 15.0972, 4.73872 15.0972 C 5.12697 15.0978, 5.48942 15.095, 5.82493 15.0888, 6.16101 15.0832, 6.44603 15.0708, 6.67999 15.0529, 6.91451 15.0349, 7.03458 15.0232, 7.04019 15.0164, 7.08956 14.9749, 7.13613 14.8913, 7.17933 14.7656, 7.22253 14.64, 7.26237 14.4918, 7.2994 14.3213, 7.33643 14.1507, 7.37346 13.9773, 7.41049 13.8006, 7.44752 13.6244, 7.48118 13.4309, 7.51204 13.221 L 8.19597 13.221 Z" stroke="none" fill="#000000" />
			<path d="M 26.6374 16.8334 C 25.8576 16.7911, 25.1065 16.7693, 24.3828 16.7693, 23.6597 16.7693, 22.8989 16.7911, 22.1002 16.8334 L 22.1002 16.064 C 22.383 16.0646, 22.6424 16.06, 22.8783 16.0508, 23.1141 16.0417, 23.2922 16.0096, 23.4113 15.9541, 23.4868 15.918, 23.5389 15.8539, 23.567 15.7623, 23.5956 15.6707, 23.6094 15.5762, 23.6094 15.4777 L 23.6094 11.0076 C 23.6094 10.703, 23.5905 10.4145, 23.5527 10.1425, 23.5149 9.87114, 23.421 9.61866, 23.2699 9.38623, 23.1817 9.24024, 23.0546 9.13375, 22.888 9.06619, 22.7214 8.99921, 22.5342 8.96543, 22.3264 8.96486, 21.968 8.96543, 21.6348 9.04043, 21.3268 9.18985, 21.0188 9.33985, 20.7531 9.54138, 20.5298 9.79443, 20.3066 10.048, 20.1291 10.3458, 19.9968 10.6875, 19.8651 11.0299, 19.7987 11.3866, 19.7987 11.7587 L 19.7987 15.4777 C 19.7987 15.5819, 19.8113 15.6787, 19.8365 15.7668, 19.8617 15.8556, 19.915 15.918, 19.9968 15.9541, 20.1165 16.0096, 20.294 16.0417, 20.5298 16.0508, 20.7657 16.06, 21.0251 16.0646, 21.3079 16.064 L 21.3079 16.8334 C 20.5092 16.7911, 19.7484 16.7693, 19.0247 16.7693, 18.2896 16.7693, 17.5379 16.7911, 16.7707 16.8334 L 16.7707 16.064 C 17.0536 16.0646, 17.3129 16.06, 17.5488 16.0508, 17.7846 16.0417, 17.9627 16.0096, 18.0818 15.9541, 18.1511 15.918, 18.198 15.8556, 18.2232 15.7668, 18.2484 15.6787, 18.261 15.5819, 18.261 15.4777 L 18.261 11.0076 C 18.261 10.703, 18.2438 10.4145, 18.2094 10.1425, 18.1751 9.87114, 18.0818 9.61866, 17.9306 9.38623, 17.8367 9.24024, 17.7062 9.13375, 17.5396 9.06619, 17.373 8.99921, 17.1858 8.96543, 16.978 8.96486, 16.6196 8.96543, 16.2852 9.04043, 15.9738 9.18985, 15.6624 9.33985, 15.3967 9.54138, 15.1763 9.79443, 14.9564 10.048, 14.7801 10.3458, 14.6479 10.6875, 14.5162 11.0299, 14.4498 11.3866, 14.4498 11.7587 L 14.4498 15.4777 C 14.4498 15.5819, 14.4624 15.6787, 14.4876 15.7668, 14.5128 15.8556, 14.5631 15.918, 14.6387 15.9541, 14.7584 16.0096, 14.9376 16.0417, 15.1763 16.0508, 15.4156 16.06, 15.6732 16.0646, 15.9498 16.064 L 15.9498 16.8243 C 15.6291 16.8123, 15.3337 16.8031, 15.0635 16.7968, 14.7933 16.7911, 14.5288 16.7819, 14.2706 16.7693 L 13.6763 16.7693 C 12.9406 16.7693, 12.1889 16.7911, 11.4218 16.8334 L 11.4218 16.064 C 11.7052 16.0646, 11.9645 16.06, 12.2004 16.0508, 12.4363 16.0417, 12.6143 16.0096, 12.7334 15.9541, 12.809 15.918, 12.8588 15.8556, 12.884 15.7668, 12.9092 15.6787, 12.9218 15.5819, 12.9218 15.4777 L 12.9218 10.2748 C 12.9218 10.1042, 12.9143 9.949, 12.8983 9.80817, 12.8828 9.6679, 12.8216 9.55454, 12.7145 9.46867, 12.608 9.39596, 12.4351 9.35359, 12.1958 9.341, 11.9565 9.32897, 11.6989 9.32268, 11.4218 9.3221 L 11.4218 8.56181, 13.0443 8.44273, 14.3462 8.34197, 14.3462 9.91751 C 14.4658 9.63698, 14.7755 9.30607, 15.2753 8.92421, 15.7757 8.54292, 16.362 8.3517, 17.0347 8.35113, 17.3873 8.3517, 17.7503 8.39292, 18.1241 8.47536, 18.4986 8.5578, 18.8272 8.73643, 19.11 9.01066, 19.2989 9.19444, 19.4421 9.39481, 19.5394 9.61122, 19.6367 9.8282, 19.6854 9.94557, 19.6854 9.96332, 19.8554 9.59748, 20.1858 9.23737, 20.6758 8.88299, 21.1665 8.52918, 21.7327 8.3517, 22.3739 8.35113, 22.726 8.3517, 23.0924 8.39292, 23.4725 8.47536, 23.8533 8.5578, 24.1853 8.73643, 24.4681 9.01123, 24.7509 9.28604, 24.9353 9.60206, 25.02 9.95931, 25.1048 10.3166, 25.1471 10.6664, 25.1471 11.0076 L 25.1471 15.4777 C 25.1471 15.5819, 25.1597 15.6787, 25.1849 15.7668, 25.2101 15.8556, 25.2639 15.918, 25.3452 15.9541, 25.4649 16.0096, 25.6423 16.0417, 25.8782 16.0508, 26.1141 16.06, 26.3671 16.0646, 26.6374 16.064 L 26.6374 16.8334 Z" stroke="none" fill="#000000" />
			<path d="M 36.0076 12.7388 C 36.0076 13.3136, 35.8976 13.8633, 35.6778 14.3882, 35.458 14.9138, 35.1368 15.3775, 34.7154 15.78, 34.3135 16.1716, 33.8481 16.4785, 33.3196 16.7012, 32.7912 16.9239, 32.2313 17.035, 31.6405 17.035, 31.0496 17.035, 30.4897 16.9256, 29.9613 16.7058, 29.4334 16.4859, 28.9646 16.1773, 28.5558 15.78, 28.1281 15.3712, 27.8075 14.9058, 27.5934 14.3837, 27.3798 13.8615, 27.2728 13.3136, 27.2728 12.7388, 27.2728 12.1532, 27.3816 11.5887, 27.5985 11.0448, 27.8155 10.5015, 28.1344 10.0126, 28.5558 9.57859, 28.9583 9.16982, 29.4254 8.84807, 29.9567 8.61277, 30.488 8.37804, 31.0496 8.2601, 31.6405 8.25953, 32.2313 8.2601, 32.7912 8.37804, 33.3196 8.61277, 33.8481 8.84807, 34.3135 9.16982, 34.7154 9.57859, 35.1431 10.0188, 35.4654 10.5089, 35.6824 11.0494, 35.8994 11.5898, 36.0076 12.1532, 36.0076 12.7388 Z M 34.2156 12.5282 C 34.2156 12.0587, 34.183 11.5944, 34.1166 11.1364, 34.0507 10.6784, 33.8887 10.2599, 33.6305 9.88087, 33.3918 9.55798, 33.0992 9.30607, 32.7534 9.12573, 32.4076 8.94597, 32.0366 8.85551, 31.6405 8.85494, 31.2443 8.85551, 30.8733 8.94597, 30.5275 9.12573, 30.1817 9.30607, 29.8892 9.55798, 29.6498 9.88087, 29.3922 10.2542, 29.2308 10.6709, 29.1644 11.1318, 29.0985 11.5933, 29.0653 12.0587, 29.0653 12.5282, 29.0653 13.0234, 29.0957 13.5134, 29.1552 13.9989, 29.2147 14.4844, 29.3796 14.9316, 29.6498 15.3403, 29.864 15.6586, 30.1502 15.9105, 30.5086 16.0966, 30.867 16.2833, 31.2443 16.376, 31.6405 16.3754, 32.0366 16.376, 32.4139 16.2833, 32.7723 16.0966, 33.1307 15.9105, 33.417 15.6586, 33.6305 15.3403, 33.9013 14.9316, 34.0668 14.4844, 34.1263 13.9989, 34.1858 13.5134, 34.2156 13.0234, 34.2156 12.5282 Z" stroke="none" fill="#000000" />
			<path d="M 41.3845 16.8334 C 40.6048 16.7911, 39.8536 16.7693, 39.13 16.7693, 38.4195 16.7693, 37.6741 16.7911, 36.8943 16.8334 L 36.8943 16.064 C 37.1777 16.0646, 37.4371 16.06, 37.6729 16.0508, 37.9088 16.0417, 38.0869 16.0096, 38.206 15.9541, 38.2815 15.918, 38.3313 15.8556, 38.3565 15.7668, 38.3817 15.6787, 38.3943 15.5819, 38.3943 15.4777 L 38.3943 5.5298 C 38.3943 5.37179, 38.3869 5.21778, 38.3708 5.06778, 38.3554 4.91836, 38.2941 4.80386, 38.1871 4.72371, 38.0806 4.651, 37.9077 4.60863, 37.6684 4.59604, 37.4291 4.58401, 37.1714 4.57772, 36.8943 4.57714 L 36.8943 3.83517, 39.8754 3.61533, 39.8754 15.4777 C 39.8754 15.5762, 39.8897 15.6707, 39.9178 15.7623, 39.9464 15.8539, 39.9979 15.918, 40.0735 15.9541, 40.1931 16.0096, 40.3706 16.0417, 40.6065 16.0508, 40.8424 16.06, 41.1017 16.0646, 41.3845 16.064 L 41.3845 16.8334 Z" stroke="none" fill="#000000" />
			<rect />
		</svg>
	</g>
	<g transform="matrix(1 0 -0 1 36.489 114.329)">
		<svg width="132.029114" height="56.9999886">
			<defs />
			<path d="M 9.59355 12.748 C 9.44928 13.2799, 9.23688 13.8054, 8.95692 14.3241, 8.67696 14.8434, 8.31342 15.3226, 7.86686 15.7617, 7.50217 16.1287, 7.08882 16.4355, 6.62623 16.6829, 6.16422 16.9302, 5.68445 17.0533, 5.18752 17.0533, 4.77874 17.0533, 4.44211 16.9405, 4.17761 16.7149, 3.91368 16.4894, 3.74708 16.3056, 3.67781 16.1647 L 2.89461 19.1693 C 2.85683 19.3221, 2.83507 19.4349, 2.82877 19.5082, 2.82877 19.5695, 2.84137 19.609, 2.86656 19.6273, 2.94213 19.6765, 3.08812 19.7069, 3.3051 19.7189, 3.52208 19.7315, 3.76597 19.7372, 4.0362 19.7372, 4.19994 19.7372, 4.2818 19.8168, 4.2818 19.9754 L 4.2818 20.0395, 4.24402 20.2135 C 4.17475 20.3967, 4.05223 20.4855, 3.8759 20.4792, 3.27247 20.4551, 2.67477 20.4368, 2.08337 20.4242 L 1.80971 20.4242 C 1.29445 20.4242, 0.77232 20.4425, 0.243321 20.4792, 0.0807282 20.4792, -0.00114071 20.4002, -0.00171322 20.241 L -0.00171322 20.1769, 0.0360724 20.0028 C 0.105919 19.8196, 0.228436 19.7315, 0.403624 19.7372, 0.624612 19.7372, 0.807243 19.7315, 0.951516 19.7189, 1.09579 19.7069, 1.19941 19.6794, 1.26239 19.6364, 1.32536 19.6061, 1.39178 19.4384, 1.46048 19.1326 L 3.64918 10.6686 C 3.74994 10.2725, 3.80032 9.93011, 3.80032 9.64271 L 3.80032 9.42287 C 3.76941 9.13032, 3.6217 8.98375, 3.3572 8.98318, 3.08011 8.98375, 2.84881 9.20703, 2.66332 9.65244, 2.47783 10.0984, 2.29749 10.6784, 2.12115 11.3923, 2.05188 11.5578, 1.93566 11.6431, 1.77192 11.6488 L 1.55494 11.6488 C 1.4038 11.6494, 1.32823 11.5732, 1.32823 11.4198 L 1.32823 11.3557 C 1.4038 11.0694, 1.4891 10.7562, 1.58357 10.4173, 1.67803 10.0784, 1.80398 9.75779, 1.96085 9.4555, 2.11829 9.15322, 2.31638 8.89673, 2.55512 8.68605, 2.79442 8.47536, 3.0927 8.37002, 3.45109 8.36945, 3.92971 8.37002, 4.31157 8.50628, 4.59783 8.77765, 4.88408 9.04959, 5.0524 9.32268, 5.10221 9.59691, 5.34782 9.31638, 5.67644 9.04215, 6.08865 8.77307, 6.50085 8.50456, 6.93596 8.37002, 7.39511 8.36945, 7.87946 8.37002, 8.29338 8.49712, 8.63574 8.75017, 8.97867 9.00379, 9.24432 9.31982, 9.43325 9.69767, 9.65996 10.15, 9.77904 10.6389, 9.79164 11.1633 L 9.79164 11.2915 C 9.79164 11.7621, 9.7258 12.2476, 9.59355 12.748 Z M 8.20636 9.96332 C 8.15025 9.67076, 8.04491 9.43432, 7.89033 9.25398, 7.73633 9.07421, 7.53366 8.98375, 7.28176 8.98318, 6.99264 8.98375, 6.69894 9.08165, 6.40009 9.27688, 6.10124 9.47268, 5.82586 9.71943, 5.57396 10.0183, 5.37931 10.269, 5.20927 10.5043, 5.06443 10.7236 L 4.02704 14.7266 C 4.05223 14.8554, 4.07627 14.9779, 4.09803 15.0936, 4.11978 15.2098, 4.14955 15.3226, 4.18734 15.4319, 4.2818 15.7319, 4.41863 15.9764, 4.59783 16.1653, 4.77703 16.3548, 5.01462 16.4493, 5.31003 16.4487, 5.57453 16.4493, 5.8356 16.352, 6.09323 16.1562, 6.35085 15.9609, 6.58673 15.7165, 6.80085 15.4228, 7.10313 15.014, 7.32927 14.5795, 7.48042 14.118, 7.63156 13.6572, 7.76953 13.1854, 7.89491 12.7022, 8.02087 12.2018, 8.13136 11.7198, 8.22525 11.2549, 8.26304 11.0356, 8.28193 10.8221, 8.28193 10.6137, 8.28193 10.3944, 8.25674 10.1774, 8.20636 9.96332 Z" stroke="none" fill="#000000" />
			<path d="M 2.85213 -0.373133 C 2.85213 0.119637, 2.81782 0.609522, 2.74921 1.09684, 2.6806 1.58416, 2.51068 2.04167, 2.23945 2.46871, 2.0458 2.78034, 1.78676 3.01951, 1.46294 3.18687, 1.13913 3.35455, 0.786787 3.43822, 0.406228 3.43822, 0.0400968 3.43822, -0.305836 3.35455, -0.631572 3.18687, -0.957307 3.01951, -1.21732 2.78034, -1.41096 2.46871, -1.68188 2.04167, -1.8518 1.58416, -1.92041 1.09684, -1.98902 0.609522, -2.02364 0.119637, -2.02364 -0.373133, -2.02364 -0.871996, -1.98902 -1.37054, -1.92041 -1.86812, -1.8518 -2.3657, -1.68188 -2.83154, -1.41096 -3.26628, -1.21732 -3.58047, -0.958269 -3.82509, -0.634457 -3.9995, -0.310325 -4.17391, 0.0365701 -4.26112, 0.406228 -4.26144, 0.78326 -4.26112, 1.13432 -4.17391, 1.46006 -3.9995, 1.78579 -3.82509, 2.0458 -3.58047, 2.23945 -3.26628, 2.51068 -2.83154, 2.6806 -2.3657, 2.74921 -1.86812, 2.81782 -1.37054, 2.85213 -0.871996, 2.85213 -0.373133 Z M 1.80599 -0.552672 C 1.80599 -0.767799, 1.80439 -0.995108, 1.80086 -1.2346, 1.79766 -1.47377, 1.78868 -1.70813, 1.77457 -1.93737, 1.76047 -2.16628, 1.73514 -2.38269, 1.69795 -2.58627, 1.66108 -2.78954, 1.61619 -2.96331, 1.56329 -3.10726, 1.45749 -3.33938, 1.30264 -3.53014, 1.09842 -3.6789, 0.89419 -3.82766, 0.663354 -3.90204, 0.406228 -3.90236, 0.156156 -3.90204, -0.0698709 -3.8267, -0.272494 -3.67633, -0.474796 -3.52565, -0.629007 -3.33617, -0.734807 -3.10726, -0.787386 -2.96331, -0.832271 -2.78954, -0.869461 -2.58627, -0.90633 -2.38269, -0.931979 -2.16628, -0.946086 -1.93737, -0.960192 -1.70813, -0.968849 -1.47377, -0.972375 -1.2346, -0.975902 -0.995108, -0.977826 -0.767799, -0.977826 -0.552672, -0.977826 -0.31286, -0.975902 -0.0605431, -0.972375 0.204277, -0.968849 0.469418, -0.960192 0.725902, -0.946086 0.97373, -0.931979 1.22188, -0.90633 1.45688, -0.869461 1.67906, -0.832271 1.90156, -0.787386 2.08783, -0.734807 2.23788, -0.63606 2.48795, -0.483452 2.69314, -0.277623 2.85376, -0.0717945 3.0147, 0.156156 3.09486, 0.406228 3.09454, 0.66688 3.09486, 0.900281 3.0147, 1.10611 2.85376, 1.31226 2.69314, 1.46455 2.48795, 1.56329 2.23788, 1.61619 2.08783, 1.66108 1.90156, 1.69795 1.67906, 1.73514 1.45688, 1.76047 1.22188, 1.77457 0.97373, 1.78868 0.725902, 1.79766 0.469418, 1.80086 0.204277, 1.80439 -0.0605431, 1.80599 -0.31286, 1.80599 -0.552672 Z" stroke="none" fill="#000000" transform="matrix(1.12 0 0 1 12.7953 16.3063)" />
			<path d="M 21.456 16.696 C 21.456 17.4105, 21.31 18.0855, 21.0175 18.7204, 20.7255 19.3559, 20.315 19.9175, 19.7866 20.4059, 19.7305 20.4425, 19.6675 20.4609, 19.5977 20.4609, 19.5478 20.4609, 19.482 20.4425, 19.3996 20.4059 L 19.3526 20.3326 C 19.3022 20.2839, 19.2771 20.229, 19.2771 20.1677, 19.2771 20.1128, 19.3022 20.0486, 19.3526 19.9754, 19.8307 19.5357, 20.1971 19.0353, 20.4518 18.4731, 20.7066 17.9115, 20.8337 17.3189, 20.8337 16.696, 20.8337 16.6537, 20.8308 16.6067, 20.8245 16.5546, 20.8182 16.5031, 20.8148 16.5346, 20.8148 16.6502, 20.7141 16.7664, 20.4816 16.8243, 20.1169 16.8243, 19.7522 16.8243, 19.4757 16.7121, 19.2868 16.4859, 19.0979 16.2603, 19.0034 16.0096, 19.0034 15.7342, 19.0034 15.46, 19.0979 15.2115, 19.2868 14.9882, 19.4757 14.7655, 19.7522 14.6539, 20.1169 14.6533, 20.3871 14.6539, 20.6076 14.7226, 20.777 14.86, 20.9471 14.9974, 21.0822 15.164, 21.1829 15.3592, 21.2837 15.555, 21.3541 15.7714, 21.3948 16.0096, 21.436 16.2478, 21.456 16.4768, 21.456 16.696 Z" stroke="none" fill="#000000" />
			<path d="M 38.1979 4.32066 C 38.1607 4.50444, 38.0473 4.59604, 37.8584 4.59547, 37.6574 4.59604, 37.4656 4.61894, 37.283 4.66474, 37.1009 4.71054, 36.9229 4.7884, 36.75 4.89832, 36.5771 5.00825, 36.4185 5.14107, 36.2737 5.29679, 36.1294 5.45251, 35.9971 5.62827, 35.8775 5.82293 L 29.0011 17.0075 C 28.9072 17.1787, 28.7623 17.2611, 28.5671 17.2548 L 28.3879 17.2548 C 28.1555 17.2548, 28.0421 17.1575, 28.0484 16.9617 L 26.869 5.26416 C 26.8439 5.10614, 26.8187 4.98248, 26.7935 4.89374, 26.7683 4.80558, 26.7311 4.7426, 26.6807 4.70539, 26.5925 4.6573, 26.4528 4.62695, 26.261 4.61436, 26.0693 4.60234, 25.8506 4.59604, 25.6049 4.59547, 25.5111 4.59604, 25.4418 4.56569, 25.3977 4.50386, 25.3599 4.4678, 25.341 4.422, 25.341 4.36646, 25.341 4.33039, 25.3508 4.29662, 25.3691 4.2657 L 25.3977 4.1283 C 25.4166 4.04929, 25.459 3.98231, 25.5248 3.92735, 25.5912 3.87239, 25.6714 3.84491, 25.7653 3.84433, 26.3692 3.88155, 26.9795 3.89987, 27.5956 3.89929, 27.69 3.89987, 27.7908 3.89357, 27.8973 3.88097, 28.6267 3.88155, 29.3566 3.86952, 30.086 3.84433, 30.1741 3.84491, 30.2526 3.87525, 30.3219 3.93593, 30.347 3.98517, 30.3591 4.03097, 30.3591 4.07334, 30.3591 4.11055, 30.3499 4.14433, 30.331 4.1741 L 30.303 4.3115 C 30.2841 4.39738, 30.2383 4.46665, 30.1661 4.51818, 30.094 4.57028, 30.0167 4.59604, 29.9348 4.59547, 29.715 4.59604, 29.5135 4.6052, 29.3314 4.62352, 29.1494 4.64184, 28.9696 4.6905, 28.7933 4.76951, 28.6868 4.82504, 28.6364 4.91664, 28.6427 5.04431 L 28.6427 5.10843 C 28.8625 6.73322, 29.0389 8.36544, 29.1705 10.0051, 29.3028 11.6448, 29.4442 13.1974, 29.5953 14.6625 L 35.1607 5.60308 C 35.2426 5.47541, 35.293 5.34087, 35.3119 5.20004 L 35.3119 5.15423 C 35.3119 5.06321, 35.2901 4.98076, 35.2454 4.90691, 35.1075 4.69966, 34.8498 4.59604, 34.472 4.59547, 34.3088 4.59604, 34.2269 4.5136, 34.2269 4.34814 L 34.2269 4.28402, 34.2647 4.11914 C 34.334 3.93651, 34.4565 3.84491, 34.6323 3.84433, 35.1859 3.86952, 35.7424 3.88155, 36.3023 3.88097, 36.3779 3.89357, 36.45 3.89987, 36.5193 3.89929, 36.9973 3.89987, 37.488 3.88155, 37.9906 3.84433, 38.1607 3.84491, 38.2517 3.92735, 38.2643 4.09166 L 38.2643 4.16494 Z" stroke="none" fill="#000000" />
			<path d="M 2.85213 -0.373133 C 2.85213 0.119637, 2.81782 0.609522, 2.74921 1.09684, 2.6806 1.58416, 2.51068 2.04167, 2.23945 2.46871, 2.0458 2.78034, 1.78676 3.01951, 1.46294 3.18687, 1.13913 3.35455, 0.786787 3.43822, 0.406228 3.43822, 0.0400968 3.43822, -0.305836 3.35455, -0.631572 3.18687, -0.957307 3.01951, -1.21732 2.78034, -1.41096 2.46871, -1.68188 2.04167, -1.8518 1.58416, -1.92041 1.09684, -1.98902 0.609522, -2.02364 0.119637, -2.02364 -0.373133, -2.02364 -0.871996, -1.98902 -1.37054, -1.92041 -1.86812, -1.8518 -2.3657, -1.68188 -2.83154, -1.41096 -3.26628, -1.21732 -3.58047, -0.958269 -3.82509, -0.634457 -3.9995, -0.310325 -4.17391, 0.0365701 -4.26112, 0.406228 -4.26144, 0.78326 -4.26112, 1.13432 -4.17391, 1.46006 -3.9995, 1.78579 -3.82509, 2.0458 -3.58047, 2.23945 -3.26628, 2.51068 -2.83154, 2.6806 -2.3657, 2.74921 -1.86812, 2.81782 -1.37054, 2.85213 -0.871996, 2.85213 -0.373133 Z M 1.80599 -0.552672 C 1.80599 -0.767799, 1.80439 -0.995108, 1.80086 -1.2346, 1.79766 -1.47377, 1.78868 -1.70813, 1.77457 -1.93737, 1.76047 -2.16628, 1.73514 -2.38269, 1.69795 -2.58627, 1.66108 -2.78954, 1.61619 -2.96331, 1.56329 -3.10726, 1.45749 -3.33938, 1.30264 -3.53014, 1.09842 -3.6789, 0.89419 -3.82766, 0.663354 -3.90204, 0.406228 -3.90236, 0.156156 -3.90204, -0.0698709 -3.8267, -0.272494 -3.67633, -0.474796 -3.52565, -0.629007 -3.33617, -0.734807 -3.10726, -0.787386 -2.96331, -0.832271 -2.78954, -0.869461 -2.58627, -0.90633 -2.38269, -0.931979 -2.16628, -0.946086 -1.93737, -0.960192 -1.70813, -0.968849 -1.47377, -0.972375 -1.2346, -0.975902 -0.995108, -0.977826 -0.767799, -0.977826 -0.552672, -0.977826 -0.31286, -0.975902 -0.0605431, -0.972375 0.204277, -0.968849 0.469418, -0.960192 0.725902, -0.946086 0.97373, -0.931979 1.22188, -0.90633 1.45688, -0.869461 1.67906, -0.832271 1.90156, -0.787386 2.08783, -0.734807 2.23788, -0.63606 2.48795, -0.483452 2.69314, -0.277623 2.85376, -0.0717945 3.0147, 0.156156 3.09486, 0.406228 3.09454, 0.66688 3.09486, 0.900281 3.0147, 1.10611 2.85376, 1.31226 2.69314, 1.46455 2.48795, 1.56329 2.23788, 1.61619 2.08783, 1.66108 1.90156, 1.69795 1.67906, 1.73514 1.45688, 1.76047 1.22188, 1.77457 0.97373, 1.78868 0.725902, 1.79766 0.469418, 1.80086 0.204277, 1.80439 -0.0605431, 1.80599 -0.31286, 1.80599 -0.552672 Z" stroke="none" fill="#000000" transform="matrix(1.12 0 0 1 39.5149 16.3063)" />
			<rect />
		</svg>
	</g>
	<g transform="matrix(1 0 -0 1 141.389 114.329)">
		<svg width="132.029114" height="56.9999886">
			<defs />
			<path d="M 9.59355 12.748 C 9.44928 13.2799, 9.23688 13.8054, 8.95692 14.3241, 8.67696 14.8434, 8.31342 15.3226, 7.86686 15.7617, 7.50217 16.1287, 7.08882 16.4355, 6.62623 16.6829, 6.16422 16.9302, 5.68445 17.0533, 5.18752 17.0533, 4.77874 17.0533, 4.44211 16.9405, 4.17761 16.7149, 3.91368 16.4894, 3.74708 16.3056, 3.67781 16.1647 L 2.89461 19.1693 C 2.85683 19.3221, 2.83507 19.4349, 2.82877 19.5082, 2.82877 19.5695, 2.84137 19.609, 2.86656 19.6273, 2.94213 19.6765, 3.08812 19.7069, 3.3051 19.7189, 3.52208 19.7315, 3.76597 19.7372, 4.0362 19.7372, 4.19994 19.7372, 4.2818 19.8168, 4.2818 19.9754 L 4.2818 20.0395, 4.24402 20.2135 C 4.17475 20.3967, 4.05223 20.4855, 3.8759 20.4792, 3.27247 20.4551, 2.67477 20.4368, 2.08337 20.4242 L 1.80971 20.4242 C 1.29445 20.4242, 0.77232 20.4425, 0.243321 20.4792, 0.0807282 20.4792, -0.00114071 20.4002, -0.00171322 20.241 L -0.00171322 20.1769, 0.0360724 20.0028 C 0.105919 19.8196, 0.228436 19.7315, 0.403624 19.7372, 0.624612 19.7372, 0.807243 19.7315, 0.951516 19.7189, 1.09579 19.7069, 1.19941 19.6794, 1.26239 19.6364, 1.32536 19.6061, 1.39178 19.4384, 1.46048 19.1326 L 3.64918 10.6686 C 3.74994 10.2725, 3.80032 9.93011, 3.80032 9.64271 L 3.80032 9.42287 C 3.76941 9.13032, 3.6217 8.98375, 3.3572 8.98318, 3.08011 8.98375, 2.84881 9.20703, 2.66332 9.65244, 2.47783 10.0984, 2.29749 10.6784, 2.12115 11.3923, 2.05188 11.5578, 1.93566 11.6431, 1.77192 11.6488 L 1.55494 11.6488 C 1.4038 11.6494, 1.32823 11.5732, 1.32823 11.4198 L 1.32823 11.3557 C 1.4038 11.0694, 1.4891 10.7562, 1.58357 10.4173, 1.67803 10.0784, 1.80398 9.75779, 1.96085 9.4555, 2.11829 9.15322, 2.31638 8.89673, 2.55512 8.68605, 2.79442 8.47536, 3.0927 8.37002, 3.45109 8.36945, 3.92971 8.37002, 4.31157 8.50628, 4.59783 8.77765, 4.88408 9.04959, 5.0524 9.32268, 5.10221 9.59691, 5.34782 9.31638, 5.67644 9.04215, 6.08865 8.77307, 6.50085 8.50456, 6.93596 8.37002, 7.39511 8.36945, 7.87946 8.37002, 8.29338 8.49712, 8.63574 8.75017, 8.97867 9.00379, 9.24432 9.31982, 9.43325 9.69767, 9.65996 10.15, 9.77904 10.6389, 9.79164 11.1633 L 9.79164 11.2915 C 9.79164 11.7621, 9.7258 12.2476, 9.59355 12.748 Z M 8.20636 9.96332 C 8.15025 9.67076, 8.04491 9.43432, 7.89033 9.25398, 7.73633 9.07421, 7.53366 8.98375, 7.28176 8.98318, 6.99264 8.98375, 6.69894 9.08165, 6.40009 9.27688, 6.10124 9.47268, 5.82586 9.71943, 5.57396 10.0183, 5.37931 10.269, 5.20927 10.5043, 5.06443 10.7236 L 4.02704 14.7266 C 4.05223 14.8554, 4.07627 14.9779, 4.09803 15.0936, 4.11978 15.2098, 4.14955 15.3226, 4.18734 15.4319, 4.2818 15.7319, 4.41863 15.9764, 4.59783 16.1653, 4.77703 16.3548, 5.01462 16.4493, 5.31003 16.4487, 5.57453 16.4493, 5.8356 16.352, 6.09323 16.1562, 6.35085 15.9609, 6.58673 15.7165, 6.80085 15.4228, 7.10313 15.014, 7.32927 14.5795, 7.48042 14.118, 7.63156 13.6572, 7.76953 13.1854, 7.89491 12.7022, 8.02087 12.2018, 8.13136 11.7198, 8.22525 11.2549, 8.26304 11.0356, 8.28193 10.8221, 8.28193 10.6137, 8.28193 10.3944, 8.25674 10.1774, 8.20636 9.96332 Z" stroke="none" fill="#000000" />
			<path d="M 2.85213 -0.373133 C 2.85213 0.119637, 2.81782 0.609522, 2.74921 1.09684, 2.6806 1.58416, 2.51068 2.04167, 2.23945 2.46871, 2.0458 2.78034, 1.78676 3.01951, 1.46294 3.18687, 1.13913 3.35455, 0.786787 3.43822, 0.406228 3.43822, 0.0400968 3.43822, -0.305836 3.35455, -0.631572 3.18687, -0.957307 3.01951, -1.21732 2.78034, -1.41096 2.46871, -1.68188 2.04167, -1.8518 1.58416, -1.92041 1.09684, -1.98902 0.609522, -2.02364 0.119637, -2.02364 -0.373133, -2.02364 -0.871996, -1.98902 -1.37054, -1.92041 -1.86812, -1.8518 -2.3657, -1.68188 -2.83154, -1.41096 -3.26628, -1.21732 -3.58047, -0.958269 -3.82509, -0.634457 -3.9995, -0.310325 -4.17391, 0.0365701 -4.26112, 0.406228 -4.26144, 0.78326 -4.26112, 1.13432 -4.17391, 1.46006 -3.9995, 1.78579 -3.82509, 2.0458 -3.58047, 2.23945 -3.26628, 2.51068 -2.83154, 2.6806 -2.3657, 2.74921 -1.86812, 2.81782 -1.37054, 2.85213 -0.871996, 2.85213 -0.373133 Z M 1.80599 -0.552672 C 1.80599 -0.767799, 1.80439 -0.995108, 1.80086 -1.2346, 1.79766 -1.47377, 1.78868 -1.70813, 1.77457 -1.93737, 1.76047 -2.16628, 1.73514 -2.38269, 1.69795 -2.58627, 1.66108 -2.78954, 1.61619 -2.96331, 1.56329 -3.10726, 1.45749 -3.33938, 1.30264 -3.53014, 1.09842 -3.6789, 0.89419 -3.82766, 0.663354 -3.90204, 0.406228 -3.90236, 0.156156 -3.90204, -0.0698709 -3.8267, -0.272494 -3.67633, -0.474796 -3.52565, -0.629007 -3.33617, -0.734807 -3.10726, -0.787386 -2.96331, -0.832271 -2.78954, -0.869461 -2.58627, -0.90633 -2.38269, -0.931979 -2.16628, -0.946086 -1.93737, -0.960192 -1.70813, -0.968849 -1.47377, -0.972375 -1.2346, -0.975902 -0.995108, -0.977826 -0.767799, -0.977826 -0.552672, -0.977826 -0.31286, -0.975902 -0.0605431, -0.972375 0.204277, -0.968849 0.469418, -0.960192 0.725902, -0.946086 0.97373, -0.931979 1.22188, -0.90633 1.45688, -0.869461 1.67906, -0.832271 1.90156, -0.787386 2.08783, -0.734807 2.23788, -0.63606 2.48795, -0.483452 2.69314, -0.277623 2.85376, -0.0717945 3.0147, 0.156156 3.09486, 0.406228 3.09454, 0.66688 3.09486, 0.900281 3.0147, 1.10611 2.85376, 1.31226 2.69314, 1.46455 2.48795, 1.56329 2.23788, 1.61619 2.08783, 1.66108 1.90156, 1.69795 1.67906, 1.73514 1.45688, 1.76047 1.22188, 1.77457 0.97373, 1.78868 0.725902, 1.79766 0.469418, 1.80086 0.204277, 1.80439 -0.0605431, 1.80599 -0.31286, 1.80599 -0.552672 Z" stroke="none" fill="#000000" transform="matrix(1.12 0 0 1 12.7953 16.3063)" />
			<path d="M 21.456 16.696 C 21.456 17.4105, 21.31 18.0855, 21.0175 18.7204, 20.7255 19.3559, 20.315 19.9175, 19.7866 20.4059, 19.7305 20.4425, 19.6675 20.4609, 19.5977 20.4609, 19.5478 20.4609, 19.482 20.4425, 19.3996 20.4059 L 19.3526 20.3326 C 19.3022 20.2839, 19.2771 20.229, 19.2771 20.1677, 19.2771 20.1128, 19.3022 20.0486, 19.3526 19.9754, 19.8307 19.5357, 20.1971 19.0353, 20.4518 18.4731, 20.7066 17.9115, 20.8337 17.3189, 20.8337 16.696, 20.8337 16.6537, 20.8308 16.6067, 20.8245 16.5546, 20.8182 16.5031, 20.8148 16.5346, 20.8148 16.6502, 20.7141 16.7664, 20.4816 16.8243, 20.1169 16.8243, 19.7522 16.8243, 19.4757 16.7121, 19.2868 16.4859, 19.0979 16.2603, 19.0034 16.0096, 19.0034 15.7342, 19.0034 15.46, 19.0979 15.2115, 19.2868 14.9882, 19.4757 14.7655, 19.7522 14.6539, 20.1169 14.6533, 20.3871 14.6539, 20.6076 14.7226, 20.777 14.86, 20.9471 14.9974, 21.0822 15.164, 21.1829 15.3592, 21.2837 15.555, 21.3541 15.7714, 21.3948 16.0096, 21.436 16.2478, 21.456 16.4768, 21.456 16.696 Z" stroke="none" fill="#000000" />
			<path d="M 38.1979 4.32066 C 38.1607 4.50444, 38.0473 4.59604, 37.8584 4.59547, 37.6574 4.59604, 37.4656 4.61894, 37.283 4.66474, 37.1009 4.71054, 36.9229 4.7884, 36.75 4.89832, 36.5771 5.00825, 36.4185 5.14107, 36.2737 5.29679, 36.1294 5.45251, 35.9971 5.62827, 35.8775 5.82293 L 29.0011 17.0075 C 28.9072 17.1787, 28.7623 17.2611, 28.5671 17.2548 L 28.3879 17.2548 C 28.1555 17.2548, 28.0421 17.1575, 28.0484 16.9617 L 26.869 5.26416 C 26.8439 5.10614, 26.8187 4.98248, 26.7935 4.89374, 26.7683 4.80558, 26.7311 4.7426, 26.6807 4.70539, 26.5925 4.6573, 26.4528 4.62695, 26.261 4.61436, 26.0693 4.60234, 25.8506 4.59604, 25.6049 4.59547, 25.5111 4.59604, 25.4418 4.56569, 25.3977 4.50386, 25.3599 4.4678, 25.341 4.422, 25.341 4.36646, 25.341 4.33039, 25.3508 4.29662, 25.3691 4.2657 L 25.3977 4.1283 C 25.4166 4.04929, 25.459 3.98231, 25.5248 3.92735, 25.5912 3.87239, 25.6714 3.84491, 25.7653 3.84433, 26.3692 3.88155, 26.9795 3.89987, 27.5956 3.89929, 27.69 3.89987, 27.7908 3.89357, 27.8973 3.88097, 28.6267 3.88155, 29.3566 3.86952, 30.086 3.84433, 30.1741 3.84491, 30.2526 3.87525, 30.3219 3.93593, 30.347 3.98517, 30.3591 4.03097, 30.3591 4.07334, 30.3591 4.11055, 30.3499 4.14433, 30.331 4.1741 L 30.303 4.3115 C 30.2841 4.39738, 30.2383 4.46665, 30.1661 4.51818, 30.094 4.57028, 30.0167 4.59604, 29.9348 4.59547, 29.715 4.59604, 29.5135 4.6052, 29.3314 4.62352, 29.1494 4.64184, 28.9696 4.6905, 28.7933 4.76951, 28.6868 4.82504, 28.6364 4.91664, 28.6427 5.04431 L 28.6427 5.10843 C 28.8625 6.73322, 29.0389 8.36544, 29.1705 10.0051, 29.3028 11.6448, 29.4442 13.1974, 29.5953 14.6625 L 35.1607 5.60308 C 35.2426 5.47541, 35.293 5.34087, 35.3119 5.20004 L 35.3119 5.15423 C 35.3119 5.06321, 35.2901 4.98076, 35.2454 4.90691, 35.1075 4.69966, 34.8498 4.59604, 34.472 4.59547, 34.3088 4.59604, 34.2269 4.5136, 34.2269 4.34814 L 34.2269 4.28402, 34.2647 4.11914 C 34.334 3.93651, 34.4565 3.84491, 34.6323 3.84433, 35.1859 3.86952, 35.7424 3.88155, 36.3023 3.88097, 36.3779 3.89357, 36.45 3.89987, 36.5193 3.89929, 36.9973 3.89987, 37.488 3.88155, 37.9906 3.84433, 38.1607 3.84491, 38.2517 3.92735, 38.2643 4.09166 L 38.2643 4.16494 Z" stroke="none" fill="#000000" />
			<path d="M 2.85213 -0.373133 C 2.85213 0.119637, 2.81782 0.609522, 2.74921 1.09684, 2.6806 1.58416, 2.51068 2.04167, 2.23945 2.46871, 2.0458 2.78034, 1.78676 3.01951, 1.46294 3.18687, 1.13913 3.35455, 0.786787 3.43822, 0.406228 3.43822, 0.0400968 3.43822, -0.305836 3.35455, -0.631572 3.18687, -0.957307 3.01951, -1.21732 2.78034, -1.41096 2.46871, -1.68188 2.04167, -1.8518 1.58416, -1.92041 1.09684, -1.98902 0.609522, -2.02364 0.119637, -2.02364 -0.373133, -2.02364 -0.871996, -1.98902 -1.37054, -1.92041 -1.86812, -1.8518 -2.3657, -1.68188 -2.83154, -1.41096 -3.26628, -1.21732 -3.58047, -0.958269 -3.82509, -0.634457 -3.9995, -0.310325 -4.17391, 0.0365701 -4.26112, 0.406228 -4.26144, 0.78326 -4.26112, 1.13432 -4.17391, 1.46006 -3.9995, 1.78579 -3.82509, 2.0458 -3.58047, 2.23945 -3.26628, 2.51068 -2.83154, 2.6806 -2.3657, 2.74921 -1.86812, 2.81782 -1.37054, 2.85213 -0.871996, 2.85213 -0.373133 Z M 1.80599 -0.552672 C 1.80599 -0.767799, 1.80439 -0.995108, 1.80086 -1.2346, 1.79766 -1.47377, 1.78868 -1.70813, 1.77457 -1.93737, 1.76047 -2.16628, 1.73514 -2.38269, 1.69795 -2.58627, 1.66108 -2.78954, 1.61619 -2.96331, 1.56329 -3.10726, 1.45749 -3.33938, 1.30264 -3.53014, 1.09842 -3.6789, 0.89419 -3.82766, 0.663354 -3.90204, 0.406228 -3.90236, 0.156156 -3.90204, -0.0698709 -3.8267, -0.272494 -3.67633, -0.474796 -3.52565, -0.629007 -3.33617, -0.734807 -3.10726, -0.787386 -2.96331, -0.832271 -2.78954, -0.869461 -2.58627, -0.90633 -2.38269, -0.931979 -2.16628, -0.946086 -1.93737, -0.960192 -1.70813, -0.968849 -1.47377, -0.972375 -1.2346, -0.975902 -0.995108, -0.977826 -0.767799, -0.977826 -0.552672, -0.977826 -0.31286, -0.975902 -0.0605431, -0.972375 0.204277, -0.968849 0.469418, -0.960192 0.725902, -0.946086 0.97373, -0.931979 1.22188, -0.90633 1.45688, -0.869461 1.67906, -0.832271 1.90156, -0.787386 2.08783, -0.734807 2.23788, -0.63606 2.48795, -0.483452 2.69314, -0.277623 2.85376, -0.0717945 3.0147, 0.156156 3.09486, 0.406228 3.09454, 0.66688 3.09486, 0.900281 3.0147, 1.10611 2.85376, 1.31226 2.69314, 1.46455 2.48795, 1.56329 2.23788, 1.61619 2.08783, 1.66108 1.90156, 1.69795 1.67906, 1.73514 1.45688, 1.76047 1.22188, 1.77457 0.97373, 1.78868 0.725902, 1.79766 0.469418, 1.80086 0.204277, 1.80439 -0.0605431, 1.80599 -0.31286, 1.80599 -0.552672 Z" stroke="none" fill="#000000" transform="matrix(1.12 0 0 1 39.5149 16.3063)" />
			<rect />
		</svg>
	</g>
	<ellipse cx="328.84793090820312" cy="542.143798828125" rx="7.875" ry="7.875" stroke="none" fill="#000000" transform="matrix(0.333333 0 0 0.333333 -67.5049 -102.007)" />
	<ellipse cx="328.84793090820312" cy="542.143798828125" rx="5.25" ry="5.25" stroke="none" fill="#FFFFFF" transform="matrix(0.333333 0 0 0.333333 -67.5049 -102.007)" />
	<ellipse cx="327.24713134765625" cy="573.39404296875" rx="7.875" ry="7.875" stroke="none" fill="#000000" transform="matrix(0.333333 0 0 0.333333 -67.5049 -102.007)" />
	<ellipse cx="327.24713134765625" cy="573.39404296875" rx="5.25" ry="5.25" stroke="none" fill="#FFFFFF" transform="matrix(0.333333 0 0 0.333333 -67.5049 -102.007)" />
	<ellipse cx="358.497314453125" cy="549.6436767578125" rx="7.875" ry="7.875" stroke="none" fill="#000000" transform="matrix(0.333333 0 0 0.333333 -67.5049 -102.007)" />
	<ellipse cx="358.497314453125" cy="549.6436767578125" rx="5.25" ry="5.25" stroke="none" fill="#FFFFFF" transform="matrix(0.333333 0 0 0.333333 -67.5049 -102.007)" />
	<ellipse cx="367.24688720703125" cy="603.39404296875" rx="7.875" ry="7.875" stroke="none" fill="#000000" transform="matrix(0.333333 0 0 0.333333 -67.5049 -102.007)" />
	<ellipse cx="367.24688720703125" cy="603.39404296875" rx="5.25" ry="5.25" stroke="none" fill="#FFFFFF" transform="matrix(0.333333 0 0 0.333333 -67.5049 -102.007)" />
	<ellipse cx="420.99722290039062" cy="565.2686767578125" rx="7.875" ry="7.875" stroke="none" fill="#000000" transform="matrix(0.333333 0 0 0.333333 -67.5049 -102.007)" />
	<ellipse cx="420.99722290039062" cy="565.2686767578125" rx="5.25" ry="5.25" stroke="none" fill="#FFFFFF" transform="matrix(0.333333 0 0 0.333333 -67.5049 -102.007)" />
	<ellipse cx="380.3719482421875" cy="572.7686767578125" rx="7.875" ry="7.875" stroke="none" fill="#000000" transform="matrix(0.333333 0 0 0.333333 -67.5049 -102.007)" />
	<ellipse cx="380.3719482421875" cy="572.7686767578125" rx="5.25" ry="5.25" stroke="none" fill="#FFFFFF" transform="matrix(0.333333 0 0 0.333333 -67.5049 -102.007)" />
	<ellipse cx="430.37225341796875" cy="604.0184326171875" rx="7.875" ry="7.875" stroke="none" fill="#000000" transform="matrix(0.333333 0 0 0.333333 -67.5049 -102.007)" />
	<ellipse cx="430.37225341796875" cy="604.0184326171875" rx="5.25" ry="5.25" stroke="none" fill="#FFFFFF" transform="matrix(0.333333 0 0 0.333333 -67.5049 -102.007)" />
	<path d="M -9.17548 -6.20129 L 9.17542 6.20081" fill="none" stroke="#000000" stroke-width="3" stroke-linecap="round" stroke-linejoin="round" transform="matrix(0.333333 0 0 0.333333 137.877 79.7632)" />
	<ellipse cx="625.3201904296875" cy="551.51043701171875" rx="7.875" ry="7.875" stroke="none" fill="#000000" transform="matrix(0.333333 0 0 0.333333 -67.5049 -102.007)" />
	<ellipse cx="625.3201904296875" cy="551.51043701171875" rx="5.25" ry="5.25" stroke="none" fill="#FFFFFF" transform="matrix(0.333333 0 0 0.333333 -67.5049 -102.007)" />
	<ellipse cx="606.96929931640625" cy="539.10833740234375" rx="7.875" ry="7.875" stroke="none" fill="#000000" transform="matrix(0.333333 0 0 0.333333 -67.5049 -102.007)" />
	<ellipse cx="606.96929931640625" cy="539.10833740234375" rx="5.25" ry="5.25" stroke="none" fill="#FFFFFF" transform="matrix(0.333333 0 0 0.333333 -67.5049 -102.007)" />
	<path d="M -9.17535 -6.2016 L 9.17542 6.20172" fill="none" stroke="#000000" stroke-width="3" stroke-linecap="round" stroke-linejoin="round" transform="matrix(0.333333 0 0 0.333333 134.967 90.2663)" />
	<ellipse cx="616.5914306640625" cy="583.02069091796875" rx="7.875" ry="7.875" stroke="none" fill="#000000" transform="matrix(0.333333 0 0 0.333333 -67.5049 -102.007)" />
	<ellipse cx="616.5914306640625" cy="583.02069091796875" rx="5.25" ry="5.25" stroke="none" fill="#FFFFFF" transform="matrix(0.333333 0 0 0.333333 -67.5049 -102.007)" />
	<ellipse cx="598.24066162109375" cy="570.61737060546875" rx="7.875" ry="7.875" stroke="none" fill="#000000" transform="matrix(0.333333 0 0 0.333333 -67.5049 -102.007)" />
	<ellipse cx="598.24066162109375" cy="570.61737060546875" rx="5.25" ry="5.25" stroke="none" fill="#FFFFFF" transform="matrix(0.333333 0 0 0.333333 -67.5049 -102.007)" />
	<path d="M -9.17523 -6.20178 L 9.17542 6.20074" fill="none" stroke="#000000" stroke-width="3" stroke-linecap="round" stroke-linejoin="round" transform="matrix(0.333333 0 0 0.333333 146.73 101.324)" />
	<ellipse cx="651.87921142578125" cy="616.19390869140625" rx="7.875" ry="7.875" stroke="none" fill="#000000" transform="matrix(0.333333 0 0 0.333333 -67.5049 -102.007)" />
	<ellipse cx="651.87921142578125" cy="616.19390869140625" rx="5.25" ry="5.25" stroke="none" fill="#FFFFFF" transform="matrix(0.333333 0 0 0.333333 -67.5049 -102.007)" />
	<ellipse cx="633.528564453125" cy="603.7913818359375" rx="7.875" ry="7.875" stroke="none" fill="#000000" transform="matrix(0.333333 0 0 0.333333 -67.5049 -102.007)" />
	<ellipse cx="633.528564453125" cy="603.7913818359375" rx="5.25" ry="5.25" stroke="none" fill="#FFFFFF" transform="matrix(0.333333 0 0 0.333333 -67.5049 -102.007)" />
	<path d="M 6.20111 -9.17542 L -6.2016 9.17542" fill="none" stroke="#000000" stroke-width="3" stroke-linecap="round" stroke-linejoin="round" transform="matrix(0.333333 0 0 0.333333 150.82 89.0808)" />
	<ellipse cx="648.77178955078125" cy="582.4376220703125" rx="7.875" ry="7.875" stroke="none" fill="#000000" transform="matrix(0.333333 0 0 0.333333 -67.5049 -102.007)" />
	<ellipse cx="648.77178955078125" cy="582.4376220703125" rx="5.25" ry="5.25" stroke="none" fill="#FFFFFF" transform="matrix(0.333333 0 0 0.333333 -67.5049 -102.007)" />
	<ellipse cx="661.17449951171875" cy="564.0867919921875" rx="7.875" ry="7.875" stroke="none" fill="#000000" transform="matrix(0.333333 0 0 0.333333 -67.5049 -102.007)" />
	<ellipse cx="661.17449951171875" cy="564.0867919921875" rx="5.25" ry="5.25" stroke="none" fill="#FFFFFF" transform="matrix(0.333333 0 0 0.333333 -67.5049 -102.007)" />
	<path d="M -9.17511 -6.20123 L 9.17542 6.20178" fill="none" stroke="#000000" stroke-width="3" stroke-linecap="round" stroke-linejoin="round" transform="matrix(0.333333 0 0 0.333333 160.736 99.1435)" />
	<ellipse cx="693.89752197265625" cy="609.65234375" rx="7.875" ry="7.875" stroke="none" fill="#000000" transform="matrix(0.333333 0 0 0.333333 -67.5049 -102.007)" />
	<ellipse cx="693.89752197265625" cy="609.65234375" rx="5.25" ry="5.25" stroke="none" fill="#FFFFFF" transform="matrix(0.333333 0 0 0.333333 -67.5049 -102.007)" />
	<ellipse cx="675.5469970703125" cy="597.24932861328125" rx="7.875" ry="7.875" stroke="none" fill="#000000" transform="matrix(0.333333 0 0 0.333333 -67.5049 -102.007)" />
	<ellipse cx="675.5469970703125" cy="597.24932861328125" rx="5.25" ry="5.25" stroke="none" fill="#FFFFFF" transform="matrix(0.333333 0 0 0.333333 -67.5049 -102.007)" />
	<path d="M -9.17542 -6.20117 L 9.17542 6.2016" fill="none" stroke="#000000" stroke-width="3" stroke-linecap="round" stroke-linejoin="round" transform="matrix(0.333333 0 0 0.333333 165.061 89.6961)" />
	<ellipse cx="706.87213134765625" cy="581.3096923828125" rx="7.875" ry="7.875" stroke="none" fill="#000000" transform="matrix(0.333333 0 0 0.333333 -67.5049 -102.007)" />
	<ellipse cx="706.87213134765625" cy="581.3096923828125" rx="5.25" ry="5.25" stroke="none" fill="#FFFFFF" transform="matrix(0.333333 0 0 0.333333 -67.5049 -102.007)" />
	<ellipse cx="688.52130126953125" cy="568.90692138671875" rx="7.875" ry="7.875" stroke="none" fill="#000000" transform="matrix(0.333333 0 0 0.333333 -67.5049 -102.007)" />
	<ellipse cx="688.52130126953125" cy="568.90692138671875" rx="5.25" ry="5.25" stroke="none" fill="#FFFFFF" transform="matrix(0.333333 0 0 0.333333 -67.5049 -102.007)" />
	<path d="M -9.17529 -6.20148 L 9.17474 6.20123" fill="none" stroke="#000000" stroke-width="3" stroke-linecap="round" stroke-linejoin="round" transform="matrix(0.333333 0 0 0.333333 150.261 76.0998)" />
	<ellipse cx="662.47271728515625" cy="540.52056884765625" rx="7.875" ry="7.875" stroke="none" fill="#000000" transform="matrix(0.333333 0 0 0.333333 -67.5049 -102.007)" />
	<ellipse cx="662.47271728515625" cy="540.52056884765625" rx="5.25" ry="5.25" stroke="none" fill="#FFFFFF" transform="matrix(0.333333 0 0 0.333333 -67.5049 -102.007)" />
	<ellipse cx="644.1226806640625" cy="528.11785888671875" rx="7.875" ry="7.875" stroke="none" fill="#000000" transform="matrix(0.333333 0 0 0.333333 -67.5049 -102.007)" />
	<ellipse cx="644.1226806640625" cy="528.11785888671875" rx="5.25" ry="5.25" stroke="none" fill="#FFFFFF" transform="matrix(0.333333 0 0 0.333333 -67.5049 -102.007)" />
	<path d="M -9.17542 -6.20135 L 9.17542 6.20129" fill="none" stroke="#000000" stroke-width="3" stroke-linecap="round" stroke-linejoin="round" transform="matrix(0.333333 0 0 0.333333 170.146 79.7632)" />
	<ellipse cx="722.12847900390625" cy="551.51092529296875" rx="7.875" ry="7.875" stroke="none" fill="#000000" transform="matrix(0.333333 0 0 0.333333 -67.5049 -102.007)" />
	<ellipse cx="722.12847900390625" cy="551.51092529296875" rx="5.25" ry="5.25" stroke="none" fill="#FFFFFF" transform="matrix(0.333333 0 0 0.333333 -67.5049 -102.007)" />
	<ellipse cx="703.77764892578125" cy="539.1082763671875" rx="7.875" ry="7.875" stroke="none" fill="#000000" transform="matrix(0.333333 0 0 0.333333 -67.5049 -102.007)" />
	<ellipse cx="703.77764892578125" cy="539.1082763671875" rx="5.25" ry="5.25" stroke="none" fill="#FFFFFF" transform="matrix(0.333333 0 0 0.333333 -67.5049 -102.007)" />
	<path d="M 6.20087 -9.17493 L -6.20178 9.17535" fill="none" stroke="#000000" stroke-width="3" stroke-linecap="round" stroke-linejoin="round" transform="matrix(0.333333 0 0 0.333333 184.187 79.7632)" />
	<ellipse cx="748.87261962890625" cy="554.4849853515625" rx="7.875" ry="7.875" stroke="none" fill="#000000" transform="matrix(0.333333 0 0 0.333333 -67.5049 -102.007)" />
	<ellipse cx="748.87261962890625" cy="554.4849853515625" rx="5.25" ry="5.25" stroke="none" fill="#FFFFFF" transform="matrix(0.333333 0 0 0.333333 -67.5049 -102.007)" />
	<ellipse cx="761.2752685546875" cy="536.13470458984375" rx="7.875" ry="7.875" stroke="none" fill="#000000" transform="matrix(0.333333 0 0 0.333333 -67.5049 -102.007)" />
	<ellipse cx="761.2752685546875" cy="536.13470458984375" rx="5.25" ry="5.25" stroke="none" fill="#FFFFFF" transform="matrix(0.333333 0 0 0.333333 -67.5049 -102.007)" />
	<path d="M -9.17542 -6.20178 L 9.17542 6.20099" fill="none" stroke="#000000" stroke-width="3" stroke-linecap="round" stroke-linejoin="round" transform="matrix(0.333333 0 0 0.333333 175.508 101.941)" />
	<ellipse cx="738.21331787109375" cy="618.0443115234375" rx="7.875" ry="7.875" stroke="none" fill="#000000" transform="matrix(0.333333 0 0 0.333333 -67.5049 -102.007)" />
	<ellipse cx="738.21331787109375" cy="618.0443115234375" rx="5.25" ry="5.25" stroke="none" fill="#FFFFFF" transform="matrix(0.333333 0 0 0.333333 -67.5049 -102.007)" />
	<ellipse cx="719.86248779296875" cy="605.64154052734375" rx="7.875" ry="7.875" stroke="none" fill="#000000" transform="matrix(0.333333 0 0 0.333333 -67.5049 -102.007)" />
	<ellipse cx="719.86248779296875" cy="605.64154052734375" rx="5.25" ry="5.25" stroke="none" fill="#FFFFFF" transform="matrix(0.333333 0 0 0.333333 -67.5049 -102.007)" />
	<path d="M 6.20099 -9.17535 L -6.20172 9.17542" fill="none" stroke="#000000" stroke-width="3" stroke-linecap="round" stroke-linejoin="round" transform="matrix(0.333333 0 0 0.333333 192.619 85.6991)" />
	<ellipse cx="774.17059326171875" cy="572.2926025390625" rx="7.875" ry="7.875" stroke="none" fill="#000000" transform="matrix(0.333333 0 0 0.333333 -67.5049 -102.007)" />
	<ellipse cx="774.17059326171875" cy="572.2926025390625" rx="5.25" ry="5.25" stroke="none" fill="#FFFFFF" transform="matrix(0.333333 0 0 0.333333 -67.5049 -102.007)" />
	<ellipse cx="786.57330322265625" cy="553.94183349609375" rx="7.875" ry="7.875" stroke="none" fill="#000000" transform="matrix(0.333333 0 0 0.333333 -67.5049 -102.007)" />
	<ellipse cx="786.57330322265625" cy="553.94183349609375" rx="5.25" ry="5.25" stroke="none" fill="#FFFFFF" transform="matrix(0.333333 0 0 0.333333 -67.5049 -102.007)" />
	<path d="M -9.17542 -6.20178 L 9.17542 6.20099" fill="none" stroke="#000000" stroke-width="3" stroke-linecap="round" stroke-linejoin="round" transform="matrix(0.333333 0 0 0.333333 182.795 95.2645)" />
	<ellipse cx="760.0760498046875" cy="598.014404296875" rx="7.875" ry="7.875" stroke="none" fill="#000000" transform="matrix(0.333333 0 0 0.333333 -67.5049 -102.007)" />
	<ellipse cx="760.0760498046875" cy="598.014404296875" rx="5.25" ry="5.25" stroke="none" fill="#FFFFFF" transform="matrix(0.333333 0 0 0.333333 -67.5049 -102.007)" />
	<ellipse cx="741.7252197265625" cy="585.61163330078125" rx="7.875" ry="7.875" stroke="none" fill="#000000" transform="matrix(0.333333 0 0 0.333333 -67.5049 -102.007)" />
	<ellipse cx="741.7252197265625" cy="585.61163330078125" rx="5.25" ry="5.25" stroke="none" fill="#FFFFFF" transform="matrix(0.333333 0 0 0.333333 -67.5049 -102.007)" />
</svg>
