<?xml version="1.0"?>
<svg xmlns="http://www.w3.org/2000/svg" xmlns:xlink="http://www.w3.org/1999/xlink" width="346.669159" height="213.69519">
	<defs>
		<marker id="CustomMarker-01" markerUnits="strokeWidth" markerWidth="15.000001" markerHeight="9" viewBox="-15 -4.5 15 9" orient="auto-start-reverse">
			<path d="M 0 -0 L -10 -3, -8 -0.5, -8 0.5, -10 3 Z" fill="#000000" stroke="#000000" stroke-linejoin="round" />
		</marker>
		<marker id="CustomMarker-02" markerUnits="strokeWidth" markerWidth="15.000001" markerHeight="9" viewBox="-15 -4.5 15 9" orient="auto-start-reverse">
			<path d="M 0 -0 L -10 -3, -8 -0.5, -8 0.5, -10 3 Z" fill="#000000" stroke="#000000" stroke-linejoin="round" />
		</marker>
		<marker id="CustomMarker-03" markerUnits="strokeWidth" markerWidth="15.000001" markerHeight="12" viewBox="-15 -6 15 12" orient="auto-start-reverse">
			<path d="M 0 -0 L -10 -4, -8 -0.5, -8 0.5, -10 4 Z" fill="#000000" stroke="#000000" stroke-linejoin="round" />
		</marker>
		<marker id="CustomMarker-04" markerUnits="strokeWidth" markerWidth="15.000001" markerHeight="12" viewBox="-15 -6 15 12" orient="auto-start-reverse">
			<path d="M 0 -0 L -10 -4, -8 -0.5, -8 0.5, -10 4 Z" fill="#000000" stroke="#000000" stroke-linejoin="round" />
		</marker>
		<marker id="CustomMarker-05" markerUnits="strokeWidth" markerWidth="15.000001" markerHeight="12" viewBox="-15 -6 15 12" orient="auto-start-reverse">
			<path d="M 0 -0 L -10 -4, -8 -0.5, -8 0.5, -10 4 Z" fill="#000000" stroke="#000000" stroke-linejoin="round" />
		</marker>
	</defs>
	<path d="M -347.106 282.129 L 347.106 282.129" fill="none" stroke="#000000" stroke-width="4.53333378" stroke-linecap="round" stroke-linejoin="round" marker-end="url(#CustomMarker-01)" transform="matrix(0.294118 0 -0 0.294118 165.163 95.054)" />
	<path d="M -347.106 282.129 L -347.106 -282.129" fill="none" stroke="#000000" stroke-width="4.53333378" stroke-linecap="round" stroke-linejoin="round" marker-end="url(#CustomMarker-02)" transform="matrix(0.294118 0 -0 0.294118 165.163 95.054)" />
	<g transform="matrix(1 0 -0 1 9 9)">
		<svg width="135.039841" height="63.0318985">
			<defs />
			<path d="M 9.58915 12.748 C 9.44488 13.2799, 9.23247 13.8054, 8.95252 14.3241, 8.67256 14.8434, 8.30902 15.3226, 7.86246 15.7617, 7.49777 16.1287, 7.08442 16.4355, 6.62183 16.6829, 6.15981 16.9302, 5.68005 17.0533, 5.18311 17.0533, 4.77434 17.0533, 4.43771 16.9405, 4.17321 16.7149, 3.90928 16.4894, 3.74268 16.3056, 3.67341 16.1647 L 2.89021 19.1693 C 2.85243 19.3221, 2.83067 19.4349, 2.82437 19.5082, 2.82437 19.5695, 2.83697 19.609, 2.86216 19.6273, 2.93773 19.6765, 3.08372 19.7069, 3.3007 19.7189, 3.51768 19.7315, 3.76157 19.7372, 4.0318 19.7372, 4.19553 19.7372, 4.2774 19.8168, 4.2774 19.9754 L 4.2774 20.0395, 4.23962 20.2135 C 4.17034 20.3967, 4.04783 20.4855, 3.87149 20.4792, 3.26807 20.4551, 2.67037 20.4368, 2.07897 20.4242 L 1.80531 20.4242 C 1.29005 20.4242, 0.767918 20.4425, 0.238919 20.4792, 0.0763267 20.4792, -0.00554222 20.4002, -0.00611472 20.241 L -0.00611472 20.1769, 0.0316709 20.0028 C 0.101517 19.8196, 0.224034 19.7315, 0.399222 19.7372, 0.620211 19.7372, 0.802842 19.7315, 0.947114 19.7189, 1.09139 19.7069, 1.19501 19.6794, 1.25799 19.6364, 1.32096 19.6061, 1.38737 19.4384, 1.45608 19.1326 L 3.64478 10.6686 C 3.74554 10.2725, 3.79592 9.93011, 3.79592 9.64271 L 3.79592 9.42287 C 3.76501 9.13032, 3.6173 8.98375, 3.3528 8.98318, 3.07571 8.98375, 2.84441 9.20703, 2.65892 9.65244, 2.47342 10.0984, 2.29308 10.6784, 2.11675 11.3923, 2.04748 11.5578, 1.93126 11.6431, 1.76752 11.6488 L 1.55054 11.6488 C 1.3994 11.6494, 1.32383 11.5732, 1.32383 11.4198 L 1.32383 11.3557 C 1.3994 11.0694, 1.4847 10.7562, 1.57916 10.4173, 1.67363 10.0784, 1.79958 9.75779, 1.95645 9.4555, 2.11389 9.15322, 2.31198 8.89673, 2.55071 8.68605, 2.79002 8.47536, 3.0883 8.37002, 3.44669 8.36945, 3.92531 8.37002, 4.30717 8.50628, 4.59343 8.77765, 4.87968 9.04959, 5.048 9.32268, 5.09781 9.59691, 5.34342 9.31638, 5.67204 9.04215, 6.08424 8.77307, 6.49645 8.50456, 6.93156 8.37002, 7.39071 8.36945, 7.87505 8.37002, 8.28898 8.49712, 8.63134 8.75017, 8.97427 9.00379, 9.23992 9.31982, 9.42885 9.69767, 9.65556 10.15, 9.77464 10.6389, 9.78724 11.1633 L 9.78724 11.2915 C 9.78724 11.7621, 9.7214 12.2476, 9.58915 12.748 Z M 8.20196 9.96332 C 8.14585 9.67076, 8.04051 9.43432, 7.88593 9.25398, 7.73193 9.07421, 7.52926 8.98375, 7.27735 8.98318, 6.98824 8.98375, 6.69454 9.08165, 6.39569 9.27688, 6.09684 9.47268, 5.82146 9.71943, 5.56956 10.0183, 5.3749 10.269, 5.20487 10.5043, 5.06002 10.7236 L 4.02264 14.7266 C 4.04783 14.8554, 4.07187 14.9779, 4.09363 15.0936, 4.11538 15.2098, 4.14515 15.3226, 4.18294 15.4319, 4.2774 15.7319, 4.41423 15.9764, 4.59343 16.1653, 4.77262 16.3548, 5.01022 16.4493, 5.30563 16.4487, 5.57013 16.4493, 5.83119 16.352, 6.08882 16.1562, 6.34645 15.9609, 6.58233 15.7165, 6.79645 15.4228, 7.09873 15.014, 7.32487 14.5795, 7.47602 14.118, 7.62716 13.6572, 7.76513 13.1854, 7.89051 12.7022, 8.01646 12.2018, 8.12696 11.7198, 8.22085 11.2549, 8.25864 11.0356, 8.27753 10.8221, 8.27753 10.6137, 8.27753 10.3944, 8.25234 10.1774, 8.20196 9.96332 Z" stroke="none" fill="#000000" />
			<path d="M 11.9014 21.2028 C 11.8579 21.3253, 11.776 21.4135, 11.6564 21.4685, 11.5808 21.4994, 11.5115 21.5143, 11.4485 21.5143, 11.405 21.5143, 11.3512 21.5085, 11.2882 21.496, 11.0621 21.4169, 10.9487 21.2795, 10.9487 21.0837, 10.9487 21.0231, 10.9648 20.9555, 10.9957 20.8822 L 17.6855 2.88251 C 17.7296 2.76114, 17.8143 2.66611, 17.9402 2.59855, 18.0095 2.5808, 18.0725 2.57164, 18.1286 2.57107, 18.1732 2.57164, 18.2299 2.57794, 18.2986 2.58939, 18.5253 2.66954, 18.6353 2.80694, 18.629 3.0016, 18.629 3.06343, 18.6135 3.13041, 18.5814 3.20312 Z" stroke="none" fill="#000000" />
			<path d="M 33.5578 7.40763 C 33.5578 7.90285, 33.4324 8.36544, 33.1805 8.79597, 32.9292 9.2265, 32.5988 9.58832, 32.1901 9.88087, 31.7315 10.2358, 31.2191 10.4969, 30.6529 10.6646, 30.0872 10.833, 29.5113 10.9165, 28.9262 10.916 L 25.889 10.916, 25.889 15.4777 C 25.889 15.5882, 25.9131 15.6878, 25.96 15.776, 26.007 15.8647, 26.0779 15.9243, 26.1718 15.9541, 26.3356 16.0096, 26.5749 16.0417, 26.8892 16.0508, 27.2035 16.06, 27.5338 16.0646, 27.8796 16.064 L 27.8796 16.8243 C 26.8732 16.7876, 25.8953 16.7693, 24.9455 16.7693, 24.0026 16.7693, 23.0248 16.7876, 22.012 16.8243 L 22.012 16.064 C 22.3578 16.0646, 22.6881 16.06, 23.0024 16.0508, 23.3173 16.0417, 23.556 16.0096, 23.7192 15.9541, 23.8074 15.9243, 23.8766 15.863, 23.927 15.7714, 23.9774 15.6798, 24.0026 15.5819, 24.0026 15.4777 L 24.0026 5.15423 C 24.0026 5.05118, 23.9774 4.95328, 23.927 4.86168, 23.8766 4.77008, 23.8074 4.70882, 23.7192 4.67791, 23.556 4.62352, 23.3173 4.59317, 23.0024 4.58688, 22.6881 4.58115, 22.3578 4.57772, 22.012 4.57714 L 22.012 3.82601, 28.9262 3.82601 C 29.5113 3.82658, 30.0872 3.90903, 30.6529 4.07391, 31.2191 4.23879, 31.7315 4.50157, 32.1901 4.86111, 32.5988 5.17942, 32.9292 5.55671, 33.1805 5.99296, 33.4324 6.42979, 33.5578 6.90153, 33.5578 7.40763 Z M 31.3788 7.40763 C 31.3788 7.02978, 31.3479 6.65593, 31.2849 6.28609, 31.2219 5.91682, 31.0491 5.60079, 30.7657 5.33744, 30.4702 5.05118, 30.117 4.85252, 29.7048 4.7426, 29.2932 4.63268, 28.8638 4.57772, 28.4172 4.57714 L 26.7381 4.57714 C 26.5938 4.57772, 26.4461 4.58115, 26.2949 4.58688, 26.1438 4.59317, 26.0339 4.62065, 25.9646 4.66875, 25.9085 4.71226, 25.8753 4.78096, 25.8655 4.87542, 25.8564 4.97046, 25.8512 5.0632, 25.8512 5.15423 L 25.8512 10.229, 28.4172 10.229 C 28.8638 10.2295, 29.2932 10.1746, 29.7048 10.0646, 30.117 9.95473, 30.4702 9.75607, 30.7657 9.46867, 31.0365 9.20646, 31.2065 8.89387, 31.2752 8.53032, 31.3445 8.16735, 31.3788 7.79293, 31.3788 7.40763 Z" stroke="none" fill="#000000" />
			<path d="M 43.5898 15.2121 C 43.5898 15.4508, 43.5457 15.6707, 43.4576 15.8722, 43.3694 16.0737, 43.2503 16.2558, 43.0992 16.4172, 42.9486 16.5792, 42.7694 16.7058, 42.5616 16.7968, 42.3544 16.8884, 42.1311 16.9342, 41.8918 16.9342, 41.4452 16.9342, 41.0794 16.7727, 40.7931 16.4493, 40.5069 16.1258, 40.3574 15.8693, 40.3448 15.6793, 40.2384 15.93, 39.9584 16.2191, 39.5055 16.5455, 39.0527 16.8718, 38.534 17.035, 37.9489 17.035, 37.5716 17.035, 37.1926 16.9955, 36.8125 16.9159, 36.4323 16.8369, 36.0831 16.7184, 35.7653 16.5592, 35.4476 16.4006, 35.1911 16.1882, 34.9965 15.9226, 34.8018 15.6569, 34.7039 15.3317, 34.7039 14.9464, 34.7039 14.4037, 34.8694 13.9274, 35.1991 13.518, 35.5295 13.1093, 35.9337 12.7824, 36.4111 12.5373, 37.0151 12.2448, 37.6392 12.0467, 38.2838 11.9425, 38.9285 11.8389, 39.5525 11.7713, 40.1559 11.7404 L 40.1559 11.0076 C 40.1559 10.7333, 40.109 10.4603, 40.0145 10.1883, 39.9206 9.91694, 39.7792 9.67992, 39.5903 9.47783, 39.2256 9.05703, 38.7825 8.84921, 38.2603 8.85494, 37.8327 8.85551, 37.4382 8.92421, 37.0764 9.06161, 36.7146 9.19902, 36.4712 9.34386, 36.3453 9.49615 L 36.2508 9.49615 C 36.4775 9.49672, 36.6882 9.55798, 36.8829 9.67935, 37.1159 9.83851, 37.2321 10.0893, 37.2321 10.4305, 37.2321 10.7488, 37.1268 10.987, 36.9161 11.1455, 36.7054 11.3047, 36.4838 11.3837, 36.2508 11.3831, 36.0121 11.3837, 35.7871 11.3047, 35.5764 11.1455, 35.3657 10.987, 35.2604 10.7488, 35.2604 10.4305, 35.2604 10.0767, 35.3503 9.76236, 35.5295 9.48756, 35.7087 9.21276, 35.9411 8.98375, 36.2274 8.80055, 36.5136 8.61734, 36.8342 8.48166, 37.1892 8.39292, 37.5447 8.30476, 37.9019 8.2601, 38.2603 8.25953, 38.7006 8.2601, 39.1265 8.32422, 39.5382 8.45246, 39.9504 8.5807, 40.3259 8.77937, 40.6654 9.0473, 40.9735 9.29806, 41.2219 9.59004, 41.4109 9.92267, 41.5998 10.2559, 41.6937 10.6171, 41.6937 11.0076 L 41.6937 15.2121 C 41.6937 15.4628, 41.7458 15.6833, 41.8494 15.8722, 41.9536 16.0617, 42.1087 16.1562, 42.316 16.1556, 42.5112 16.1562, 42.6589 16.0617, 42.7597 15.8722, 42.8604 15.6833, 42.9103 15.4628, 42.9103 15.2121 L 42.9103 13.9205, 43.5898 13.9205, 43.5898 15.2121 Z M 40.1559 12.3266 C 39.7345 12.3455, 39.2897 12.4039, 38.8214 12.5013, 38.3531 12.5992, 37.9174 12.7698, 37.5149 13.0136, 37.1691 13.222, 36.8943 13.5014, 36.6899 13.8524, 36.4856 14.2039, 36.3831 14.5686, 36.3831 14.9464, 36.3831 15.1606, 36.4243 15.3564, 36.5056 15.5333, 36.5875 15.7107, 36.702 15.8665, 36.8497 16.0004, 36.9974 16.135, 37.1691 16.2403, 37.3638 16.3165, 37.559 16.3932, 37.7668 16.431, 37.9867 16.4304, 38.2947 16.431, 38.5781 16.376, 38.8357 16.2661, 39.0933 16.1562, 39.3212 16.0004, 39.5193 15.7989, 39.7174 15.5974, 39.8731 15.3627, 39.9865 15.0936, 40.0998 14.8251, 40.1559 14.5411, 40.1559 14.2411 Z" stroke="none" fill="#000000" />
			<rect />
		</svg>
	</g>
	<g transform="matrix(1 0 -0 1 277.852 166.147)">
		<svg width="189.003952" height="65.9042358">
			<defs />
			<path d="M 12.8616 4.99934 C 12.8244 5.18312, 12.711 5.27472, 12.5221 5.27414, 12.3212 5.27472, 12.1294 5.29762, 11.9467 5.34342, 11.7647 5.38922, 11.5866 5.46708, 11.4137 5.577, 11.2408 5.68692, 11.0823 5.81975, 10.9374 5.97547, 10.7926 6.13119, 10.6603 6.30695, 10.5407 6.50161 L 3.66253 17.6862 C 3.56864 17.8573, 3.42379 17.9398, 3.22857 17.9335 L 3.04937 17.9335 C 2.81693 17.9335, 2.70357 17.8362, 2.70987 17.6404 L 1.5305 5.94284 C 1.50531 5.78482, 1.48012 5.66116, 1.45493 5.57242, 1.42974 5.48426, 1.39195 5.42128, 1.34157 5.38407, 1.25398 5.33598, 1.11429 5.30563, 0.921924 5.29304, 0.730133 5.28101, 0.511434 5.27472, 0.2664 5.27414, 0.171936 5.27472, 0.102662 5.24437, 0.0585792 5.18254, 0.0207936 5.14647, 0.00190073 5.10067, 0.00190073 5.04514, 0.00190073 5.00907, 0.0116334 4.97529, 0.0305262 4.94438 L 0.0585792 4.80698 C 0.0780445 4.72797, 0.12041 4.66099, 0.186249 4.60603, 0.25266 4.55106, 0.332811 4.52358, 0.426703 4.52301, 1.0307 4.56022, 1.641 4.57854, 2.25702 4.57797, 2.35148 4.57854, 2.45224 4.57225, 2.55873 4.55965, 3.28868 4.56022, 4.01863 4.5482, 4.74801 4.52301, 4.83617 4.52358, 4.91461 4.55393, 4.98388 4.61461, 5.00907 4.66385, 5.02167 4.70965, 5.02167 4.75202, 5.02167 4.78923, 5.01251 4.82301, 4.99304 4.85278 L 4.96499 4.99018 C 4.94609 5.07606, 4.90029 5.14533, 4.82816 5.19686, 4.75602 5.24895, 4.67873 5.27472, 4.59686 5.27414, 4.37702 5.27472, 4.1755 5.28388, 3.99287 5.3022, 3.81081 5.32052, 3.63161 5.36918, 3.45528 5.44819, 3.34879 5.50372, 3.29841 5.59532, 3.30414 5.72299 L 3.30414 5.78711 C 3.52455 7.4119, 3.70089 9.04412, 3.83256 10.6838, 3.96481 12.3235, 4.10622 13.8761, 4.25737 15.3412 L 9.82388 6.28176 C 9.90575 6.15409, 9.95613 6.01955, 9.97502 5.87871 L 9.97502 5.83291 C 9.97502 5.74189, 9.95326 5.65944, 9.90861 5.58559, 9.77063 5.37834, 9.513 5.27472, 9.13515 5.27414, 8.97141 5.27472, 8.88954 5.19228, 8.88954 5.02682 L 8.88954 4.9627, 8.92733 4.79782 C 8.99717 4.61519, 9.11969 4.52358, 9.29545 4.52301, 9.84907 4.5482, 10.4055 4.56022, 10.9655 4.55965, 11.041 4.57225, 11.1137 4.57854, 11.1824 4.57797, 11.6605 4.57854, 12.1511 4.56022, 12.6544 4.52301, 12.8244 4.52358, 12.9154 4.60603, 12.928 4.77034 L 12.928 4.84362 Z" stroke="none" fill="#000000" />
			<path d="M 12.4029 21.8815 C 12.3594 22.004, 12.2775 22.0922, 12.1579 22.1472, 12.0823 22.1781, 12.013 22.193, 11.9501 22.193, 11.9066 22.193, 11.8527 22.1872, 11.7898 22.1746, 11.5636 22.0956, 11.4503 21.9582, 11.4503 21.7624, 11.4503 21.7017, 11.4663 21.6342, 11.4972 21.5609 L 18.187 3.5612 C 18.2311 3.43982, 18.3158 3.34479, 18.4418 3.27723, 18.511 3.25948, 18.574 3.25032, 18.6301 3.24975, 18.6748 3.25032, 18.7314 3.25662, 18.8001 3.26807, 19.0269 3.34822, 19.1368 3.48562, 19.1305 3.68028, 19.1305 3.74211, 19.115 3.80909, 19.083 3.8818 Z" stroke="none" fill="#000000" />
			<path d="M 44.3853 17.5121 C 43.6055 17.4697, 42.8544 17.448, 42.1307 17.448, 41.4076 17.448, 40.6468 17.4697, 39.8481 17.5121 L 39.8481 16.7427 C 40.1309 16.7432, 40.3903 16.7387, 40.6262 16.7295, 40.862 16.7203, 41.0401 16.6883, 41.1592 16.6327, 41.2347 16.5967, 41.2868 16.5325, 41.3149 16.4409, 41.3435 16.3493, 41.3572 16.2549, 41.3572 16.1564 L 41.3572 11.6863 C 41.3572 11.3817, 41.3384 11.0931, 41.3006 10.8212, 41.2628 10.5498, 41.1689 10.2973, 41.0177 10.0649, 40.9296 9.91892, 40.8025 9.81243, 40.6359 9.74487, 40.4693 9.67789, 40.2821 9.64411, 40.0743 9.64354, 39.7159 9.64411, 39.3827 9.71911, 39.0746 9.86854, 38.7666 10.0185, 38.501 10.2201, 38.2777 10.4731, 38.0544 10.7267, 37.877 11.0244, 37.7447 11.3662, 37.613 11.7086, 37.5466 12.0653, 37.5466 12.4374 L 37.5466 16.1564 C 37.5466 16.2606, 37.5592 16.3574, 37.5844 16.4455, 37.6096 16.5343, 37.6628 16.5967, 37.7447 16.6327, 37.8644 16.6883, 38.0418 16.7203, 38.2777 16.7295, 38.5136 16.7387, 38.7729 16.7432, 39.0558 16.7427 L 39.0558 17.5121 C 38.2571 17.4697, 37.4962 17.448, 36.7726 17.448, 36.0375 17.448, 35.2858 17.4697, 34.5186 17.5121 L 34.5186 16.7427 C 34.8014 16.7432, 35.0608 16.7387, 35.2967 16.7295, 35.5325 16.7203, 35.7106 16.6883, 35.8297 16.6327, 35.8989 16.5967, 35.9459 16.5343, 35.9711 16.4455, 35.9963 16.3574, 36.0089 16.2606, 36.0089 16.1564 L 36.0089 11.6863 C 36.0089 11.3817, 35.9917 11.0931, 35.9573 10.8212, 35.923 10.5498, 35.8297 10.2973, 35.6785 10.0649, 35.5846 9.91892, 35.4541 9.81243, 35.2875 9.74487, 35.1209 9.67789, 34.9337 9.64411, 34.7259 9.64354, 34.3675 9.64411, 34.0331 9.71911, 33.7217 9.86854, 33.4102 10.0185, 33.1446 10.2201, 32.9242 10.4731, 32.7043 10.7267, 32.528 11.0244, 32.3958 11.3662, 32.2641 11.7086, 32.1977 12.0653, 32.1977 12.4374 L 32.1977 16.1564 C 32.1977 16.2606, 32.2103 16.3574, 32.2355 16.4455, 32.2606 16.5343, 32.311 16.5967, 32.3866 16.6327, 32.5062 16.6883, 32.6854 16.7203, 32.9242 16.7295, 33.1635 16.7387, 33.4211 16.7432, 33.6976 16.7427 L 33.6976 17.503 C 33.377 17.4909, 33.0816 17.4818, 32.8114 17.4755, 32.5412 17.4697, 32.2767 17.4606, 32.0185 17.448 L 31.4242 17.448 C 30.6885 17.448, 29.9368 17.4697, 29.1697 17.5121 L 29.1697 16.7427 C 29.4531 16.7432, 29.7124 16.7387, 29.9483 16.7295, 30.1841 16.7203, 30.3622 16.6883, 30.4813 16.6327, 30.5569 16.5967, 30.6067 16.5343, 30.6319 16.4455, 30.657 16.3574, 30.6696 16.2606, 30.6696 16.1564 L 30.6696 10.9534 C 30.6696 10.7828, 30.6622 10.6277, 30.6462 10.4868, 30.6307 10.3466, 30.5694 10.2332, 30.4624 10.1473, 30.3559 10.0746, 30.183 10.0323, 29.9437 10.0197, 29.7044 10.0077, 29.4468 10.0014, 29.1697 10.0008 L 29.1697 9.24049, 30.7922 9.12141, 32.094 9.02065, 32.094 10.5962 C 32.2137 10.3157, 32.5234 9.98475, 33.0232 9.60289, 33.5236 9.2216, 34.1098 9.03038, 34.7825 9.02981, 35.1352 9.03038, 35.4982 9.0716, 35.872 9.15404, 36.2465 9.23648, 36.5751 9.41511, 36.8579 9.68934, 37.0468 9.87312, 37.1899 10.0735, 37.2873 10.2899, 37.3846 10.5069, 37.4333 10.6242, 37.4333 10.642, 37.6033 10.2762, 37.9336 9.91605, 38.4237 9.56167, 38.9143 9.20786, 39.4806 9.03038, 40.1218 9.02981, 40.4739 9.03038, 40.8403 9.0716, 41.2204 9.15404, 41.6011 9.23648, 41.9332 9.41511, 42.216 9.68991, 42.4988 9.96472, 42.6832 10.2807, 42.7679 10.638, 42.8526 10.9952, 42.895 11.345, 42.895 11.6863 L 42.895 16.1564 C 42.895 16.2606, 42.9076 16.3574, 42.9328 16.4455, 42.958 16.5343, 43.0118 16.5967, 43.0931 16.6327, 43.2128 16.6883, 43.3902 16.7203, 43.6261 16.7295, 43.862 16.7387, 44.115 16.7432, 44.3853 16.7427 L 44.3853 17.5121 Z" stroke="none" fill="#000000" />
			<path d="M 2.81931 1.26324 C 2.81931 1.55755, 2.75423 1.84001, 2.62406 2.10996, 2.4939 2.38023, 2.31949 2.61106, 2.10083 2.80214, 1.85461 3.01791, 1.58242 3.17757, 1.28489 3.28177, 0.987372 3.38629, 0.676384 3.43822, 0.352252 3.43822, 0.0601807 3.43822, -0.224838 3.39719, -0.503123 3.31511, -0.781409 3.23304, -1.03212 3.11537, -1.2559 2.96148, -1.47969 2.80759, -1.65826 2.61876, -1.79228 2.39465, -1.92597 2.17087, -1.99298 1.91342, -1.99298 1.62232, -1.99298 1.40366, -1.91988 1.24047, -1.77368 1.13275, -1.62749 1.02503, -1.4736 0.971165, -1.31169 0.970845, -1.14241 0.971165, -0.984993 1.02503, -0.838797 1.13275, -0.692601 1.24047, -0.619503 1.40366, -0.619503 1.62232, -0.619503 1.75248, -0.644831 1.86117, -0.696128 1.94837, -0.747104 2.03558, -0.812187 2.10835, -0.891697 2.16638, -0.970886 2.22473, -1.06162 2.26032, -1.16357 2.27379, -1.21615 2.28789, -1.26552 2.29462, -1.31169 2.2943, -1.35722 2.29462, -1.36427 2.29815, -1.33285 2.30456, -1.22352 2.49629, -1.00872 2.66589, -0.688112 2.81272, -0.367507 2.95988, -0.0209324 3.0333, 0.352252 3.03298, 0.528585 3.0333, 0.693056 2.9897, 0.846305 2.90249, 0.999555 2.81529, 1.12748 2.69827, 1.22943 2.55079, 1.35639 2.35971, 1.44263 2.15452, 1.48816 1.93555, 1.534 1.71689, 1.55677 1.49279, 1.55677 1.26324, 1.55677 1.02759, 1.534 0.801244, 1.48816 0.583874, 1.44263 0.366824, 1.35639 0.165804, 1.22943 -0.0191851, 1.12363 -0.169228, 0.995066 -0.290738, 0.84374 -0.383072, 0.692415 -0.475407, 0.528585 -0.521574, 0.352252 -0.521894 L -0.413674 -0.521894 C -0.515627 -0.521574, -0.57013 -0.569344, -0.577183 -0.665526 L -0.577183 -0.721952 C -0.577183 -0.762669, -0.564679 -0.79505, -0.540313 -0.819416, -0.508573 -0.849874, -0.468177 -0.865263, -0.418804 -0.865584, -0.316531 -0.879049, -0.211051 -0.885782, -0.102046 -0.886102, 0.00375414 -0.885782, 0.107951 -0.892514, 0.209903 -0.906621, 0.400023 -0.920087, 0.565455 -0.978757, 0.706201 -1.08327, 0.847267 -1.18747, 0.96525 -1.32084, 1.06015 -1.48339, 1.15537 -1.64562, 1.22751 -1.83285, 1.27688 -2.04509, 1.32625 -2.25701, 1.35094 -2.47438, 1.35094 -2.69688, 1.35094 -2.86071, 1.33331 -3.01621, 1.29804 -3.16336, 1.26277 -3.3102, 1.19769 -3.43876, 1.10247 -3.54841, 0.905297 -3.7738, 0.655225 -3.88505, 0.352252 -3.88184, 0.0284407 -3.88152, -0.268119 -3.8206, -0.537428 -3.69942, -0.806736 -3.57791, -0.987558 -3.4471, -1.07925 -3.30731, -1.10362 -3.30347, -1.09143 -3.30186, -1.04206 -3.30219, -0.915101 -3.30186, -0.795515 -3.26435, -0.682983 -3.18933, -0.513703 -3.08994, -0.429384 -2.92227, -0.429384 -2.68662, -0.429384 -2.48785, -0.493505 -2.33812, -0.622068 -2.23745, -0.75063 -2.13646, -0.894262 -2.08613, -1.05264 -2.08645, -1.20749 -2.08613, -1.35273 -2.1355, -1.48834 -2.23489, -1.62396 -2.33396, -1.69193 -2.48464, -1.69193 -2.68662, -1.69193 -2.93605, -1.63197 -3.15631, -1.51239 -3.34803, -1.39248 -3.53943, -1.23859 -3.70358, -1.05008 -3.84048, -0.86156 -3.97706, -0.644189 -4.08158, -0.397644 -4.15339, -0.151098 -4.22521, 0.098974 -4.26112, 0.352252 -4.26144, 0.623485 -4.26112, 0.88606 -4.22521, 1.13966 -4.15339, 1.39326 -4.08158, 1.63275 -3.97033, 1.85782 -3.82028, 2.0412 -3.69012, 2.19509 -3.53014, 2.32013 -3.34034, 2.44516 -3.15054, 2.50768 -2.93605, 2.50768 -2.69688, 2.50768 -2.45707, 2.46472 -2.23136, 2.37848 -2.01944, 2.29224 -1.8072, 2.17778 -1.6158, 2.03511 -1.44492, 1.89244 -1.27371, 1.72252 -1.12335, 1.52535 -0.993505, 1.32818 -0.863339, 1.18006 -0.781585, 1.08131 -0.747601, 1.16595 -0.737021, 1.31054 -0.686365, 1.51477 -0.595954, 1.71899 -0.505223, 1.91424 -0.384675, 2.10083 -0.234632, 2.31949 -0.0461159, 2.4939 0.178629, 2.62406 0.440243, 2.75423 0.701857, 2.81931 0.976295, 2.81931 1.26324 Z" stroke="none" fill="#000000" transform="matrix(1.12 0 0 1 48.2989 6.78726)" />
			<path d="M 1.55535 9.07213 C -4.56041 4.98967, -4.56041 -4.98967, 1.55535 -9.07213 L 2.51587 -9.07213 C -2.99957 -4.98967, -2.99957 4.98967, 2.51587 9.07213" stroke="none" fill="#000000" transform="matrix(1 0 -0 1 25.7045 11.8861)" />
			<path d="M 1.55535 9.07213 C -4.56041 4.98967, -4.56041 -4.98967, 1.55535 -9.07213 L 2.51587 -9.07213 C -2.99957 -4.98967, -2.99957 4.98967, 2.51587 9.07213" stroke="none" fill="#000000" transform="matrix(-1 1.50996e-007 -1.50996e-007 -1 57.003 11.8861)" />
			<rect />
		</svg>
	</g>
	<path d="M 0 52.3281 L 0 -52.3281" fill="none" stroke="#000000" stroke-opacity="0.388235271" stroke-width="4.53333378" stroke-linecap="round" stroke-linejoin="round" stroke-dasharray="15.8893, 11.3107" transform="matrix(0.294118 0 0 0.294118 117.235 162.643)" />
	<path d="M 0 52.3281 L 0 -52.3281" fill="none" stroke="#000000" stroke-opacity="0.388235271" stroke-width="4.53333378" stroke-linecap="round" stroke-linejoin="round" stroke-dasharray="15.8893, 11.3107" transform="matrix(0.294118 0 0 0.294118 225.56 162.643)" />
	<g transform="matrix(1 0 -0 1 111.01 29.044)">
		<svg width="42.0378685" height="45.2233963">
			<defs />
			<path d="M 12.3905 16.5678 C 12.3218 16.751, 12.2022 16.8426, 12.0322 16.8426, 11.4035 16.806, 10.7778 16.7876, 10.1549 16.7876 L 9.84402 16.7876 C 9.10835 16.8002, 8.36924 16.8185, 7.62727 16.8426, 7.4578 16.8426, 7.3662 16.7636, 7.35361 16.6044 L 7.35361 16.5311, 7.39139 16.3754 C 7.44177 16.1745, 7.56429 16.0766, 7.75894 16.0823, 7.99196 16.0829, 8.19978 16.0754, 8.38183 16.06, 8.56389 16.0451, 8.74023 15.9913, 8.90969 15.8991, 8.97266 15.8693, 9.02648 15.8264, 9.06999 15.7709, 9.09518 15.7228, 9.11121 15.6735, 9.11751 15.6243 L 9.11751 15.5693, 8.8908 12.5282, 4.62732 12.5282, 3.12734 15.093 C 3.04604 15.2401, 3.00482 15.3747, 3.00482 15.4961, 3.00482 15.6002, 3.03631 15.6953, 3.09929 15.78, 3.23784 15.9821, 3.49547 16.0829, 3.87275 16.0823, 4.04278 16.0829, 4.13381 16.1562, 4.14641 16.3021, 4.14641 16.3394, 4.14011 16.3789, 4.12752 16.4212 L 4.08973 16.5678 C 4.02103 16.751, 3.89794 16.8426, 3.72161 16.8426, 3.14337 16.8185, 2.57086 16.8002, 2.00465 16.7876 L 1.75046 16.7876 C 1.25981 16.7876, 0.762876 16.806, 0.25964 16.8426, 0.165748 16.8426, 0.0964748 16.8123, 0.0523915 16.751, 0.0146059 16.7149, -0.00428694 16.672, -0.00428694 16.6228, -0.00428694 16.5867, 0.00201064 16.55, 0.0146059 16.5128 L 0.0523915 16.3754 C 0.102772 16.1745, 0.225289 16.0766, 0.419943 16.0823, 0.621466 16.0829, 0.820127 16.0617, 1.01478 16.0188, 1.20943 15.9764, 1.39206 15.8997, 1.56153 15.7897, 1.73156 15.6798, 1.889 15.547, 2.03328 15.3913, 2.17812 15.2356, 2.30693 15.0598, 2.41972 14.864 L 9.07972 3.45961 C 9.19308 3.289, 9.33735 3.20656, 9.51369 3.21228 L 9.69288 3.21228 C 9.89441 3.21285, 10.0072 3.30732, 10.0324 3.49625 L 10.8625 15.4319 C 10.8751 15.5911, 10.894 15.7119, 10.9192 15.7943, 10.9444 15.8768, 10.9885 15.9363, 11.0514 15.9724, 11.1396 16.0279, 11.2856 16.06, 11.49 16.0691, 11.6944 16.0783, 11.9257 16.0829, 12.1833 16.0823, 12.3596 16.0829, 12.4472 16.1562, 12.4472 16.3021, 12.4472 16.3394, 12.4409 16.3789, 12.4283 16.4212 Z M 8.43851 6.03361 L 5.08017 11.7862, 8.83469 11.7862 Z" stroke="none" fill="#000000" />
			<rect />
		</svg>
	</g>
	<g transform="matrix(1 0 -0 1 25.2007 43.7007)">
		<svg width="89.9740677" height="48.0957298">
			<defs />
			<path d="M 7.0814 13.5711 L 7.0814 15.3935 C 7.0814 15.5017, 7.10159 15.6022, 7.14199 15.6947, 7.18239 15.7879, 7.24859 15.849, 7.34061 15.8782, 7.48255 15.9444, 7.71371 15.9809, 8.03407 15.9865, 8.35444 15.9927, 8.67761 15.9955, 9.00415 15.9949 L 9.00415 16.7669 C 8.06157 16.731, 7.1375 16.7131, 6.23083 16.7131, 5.33762 16.7131, 4.39785 16.731, 3.41151 16.7669 L 3.41151 15.9949 C 3.75039 15.9955, 4.07748 15.9927, 4.39168 15.9865, 4.70587 15.9809, 4.94039 15.9444, 5.09412 15.8782, 5.1867 15.849, 5.25459 15.7879, 5.29779 15.6947, 5.34099 15.6022, 5.36231 15.5017, 5.36231 15.3935 L 5.36231 13.5711, 0.0928389 13.5711, 0.0928389 12.844, 6.26786 3.66058 C 6.34865 3.55342, 6.4502 3.49956, 6.57308 3.49899 L 6.77674 3.49899 C 6.97984 3.49956, 7.0814 3.60111, 7.0814 3.80421 L 7.0814 12.7812, 9.06923 12.7812, 9.06923 13.5711 Z M 5.45432 6.02152 L 0.906375 12.7812, 5.45432 12.7812 Z" stroke="none" fill="#000000" />
			<path d="M 18.7215 10.519 C 18.7215 11.3813, 18.6615 12.2386, 18.5414 13.0914, 18.4213 13.9442, 18.124 14.7449, 17.6493 15.4922, 17.3104 16.0376, 16.8571 16.4561, 16.2904 16.749, 15.7238 17.0424, 15.1071 17.1888, 14.4412 17.1888, 13.8004 17.1888, 13.1951 17.0424, 12.625 16.749, 12.055 16.4561, 11.6 16.0376, 11.2611 15.4922, 10.787 14.7449, 10.4896 13.9442, 10.3696 13.0914, 10.2495 12.2386, 10.1889 11.3813, 10.1889 10.519, 10.1889 9.64596, 10.2495 8.77352, 10.3696 7.90275, 10.4896 7.03199, 10.787 6.21677, 11.2611 5.45597, 11.6 4.90613, 12.0533 4.47804, 12.62 4.17283, 13.1872 3.86761, 13.7943 3.715, 14.4412 3.71444, 15.101 3.715, 15.7153 3.86761, 16.2854 4.17283, 16.8554 4.47804, 17.3104 4.90613, 17.6493 5.45597, 18.124 6.21677, 18.4213 7.03199, 18.5414 7.90275, 18.6615 8.77352, 18.7215 9.64596, 18.7215 10.519 Z M 16.8908 10.2048 C 16.8908 9.82831, 16.8879 9.43052, 16.8818 9.0114, 16.8762 8.59285, 16.8605 8.18272, 16.8358 7.78156, 16.8111 7.38097, 16.7668 7.00225, 16.7017 6.64598, 16.6372 6.29027, 16.5586 5.98617, 16.466 5.73426, 16.2809 5.32805, 16.0099 4.99422, 15.6525 4.73389, 15.2951 4.47355, 14.8911 4.34339, 14.4412 4.34283, 14.0035 4.34339, 13.608 4.47524, 13.2534 4.73837, 12.8994 5.00207, 12.6295 5.33366, 12.4444 5.73426, 12.3523 5.98617, 12.2738 6.29027, 12.2087 6.64598, 12.1442 7.00225, 12.0993 7.38097, 12.0746 7.78156, 12.0499 8.18272, 12.0348 8.59285, 12.0286 9.0114, 12.0224 9.43052, 12.0191 9.82831, 12.0191 10.2048, 12.0191 10.6245, 12.0224 11.066, 12.0286 11.5294, 12.0348 11.9934, 12.0499 12.4423, 12.0746 12.876, 12.0993 13.3102, 12.1442 13.7215, 12.2087 14.1103, 12.2738 14.4997, 12.3523 14.8257, 12.4444 15.0882, 12.6172 15.5259, 12.8842 15.8849, 13.2444 16.166, 13.6046 16.4477, 14.0035 16.588, 14.4412 16.5874, 14.8973 16.588, 15.3058 16.4477, 15.666 16.166, 16.0267 15.8849, 16.2932 15.5259, 16.466 15.0882, 16.5586 14.8257, 16.6372 14.4997, 16.7017 14.1103, 16.7668 13.7215, 16.8111 13.3102, 16.8358 12.876, 16.8605 12.4423, 16.8762 11.9934, 16.8818 11.5294, 16.8879 11.066, 16.8908 10.6245, 16.8908 10.2048 Z" stroke="none" fill="#000000" />
			<path d="M 28.6178 10.519 C 28.6178 11.3813, 28.5577 12.2386, 28.4377 13.0914, 28.3176 13.9442, 28.0202 14.7449, 27.5456 15.4922, 27.2067 16.0376, 26.7534 16.4561, 26.1867 16.749, 25.62 17.0424, 25.0034 17.1888, 24.3374 17.1888, 23.6967 17.1888, 23.0913 17.0424, 22.5213 16.749, 21.9512 16.4561, 21.4962 16.0376, 21.1573 15.4922, 20.6833 14.7449, 20.3859 13.9442, 20.2658 13.0914, 20.1458 12.2386, 20.0852 11.3813, 20.0852 10.519, 20.0852 9.64596, 20.1458 8.77352, 20.2658 7.90275, 20.3859 7.03199, 20.6833 6.21677, 21.1573 5.45597, 21.4962 4.90613, 21.9496 4.47804, 22.5162 4.17283, 23.0835 3.86761, 23.6905 3.715, 24.3374 3.71444, 24.9972 3.715, 25.6116 3.86761, 26.1816 4.17283, 26.7517 4.47804, 27.2067 4.90613, 27.5456 5.45597, 28.0202 6.21677, 28.3176 7.03199, 28.4377 7.90275, 28.5577 8.77352, 28.6178 9.64596, 28.6178 10.519 Z M 26.787 10.2048 C 26.787 9.82831, 26.7842 9.43052, 26.778 9.0114, 26.7724 8.59285, 26.7567 8.18272, 26.732 7.78156, 26.7073 7.38097, 26.663 7.00225, 26.5979 6.64598, 26.5334 6.29027, 26.4549 5.98617, 26.3623 5.73426, 26.1771 5.32805, 25.9062 4.99422, 25.5488 4.73389, 25.1914 4.47355, 24.7874 4.34339, 24.3374 4.34283, 23.8998 4.34339, 23.5043 4.47524, 23.1497 4.73837, 22.7956 5.00207, 22.5258 5.33366, 22.3406 5.73426, 22.2486 5.98617, 22.1701 6.29027, 22.105 6.64598, 22.0405 7.00225, 21.9956 7.38097, 21.9709 7.78156, 21.9462 8.18272, 21.931 8.59285, 21.9249 9.0114, 21.9187 9.43052, 21.9153 9.82831, 21.9153 10.2048, 21.9153 10.6245, 21.9187 11.066, 21.9249 11.5294, 21.931 11.9934, 21.9462 12.4423, 21.9709 12.876, 21.9956 13.3102, 22.0405 13.7215, 22.105 14.1103, 22.1701 14.4997, 22.2486 14.8257, 22.3406 15.0882, 22.5134 15.5259, 22.7805 15.8849, 23.1407 16.166, 23.5009 16.4477, 23.8998 16.588, 24.3374 16.5874, 24.7936 16.588, 25.202 16.4477, 25.5622 16.166, 25.923 15.8849, 26.1895 15.5259, 26.3623 15.0882, 26.4549 14.8257, 26.5334 14.4997, 26.5979 14.1103, 26.663 13.7215, 26.7073 13.3102, 26.732 12.876, 26.7567 12.4423, 26.7724 11.9934, 26.778 11.5294, 26.7842 11.066, 26.787 10.6245, 26.787 10.2048 Z" stroke="none" fill="#000000" />
			<rect />
		</svg>
	</g>
	<g transform="matrix(1 0 -0 1 25.7903 136.044)">
		<svg width="87.1036377" height="48.0957298">
			<defs />
			<path d="M 6.82725 16.7669 C 5.69335 16.731, 4.5903 16.7131, 3.51756 16.7131, 2.44537 16.7131, 1.34233 16.731, 0.208429 16.7669 L 0.208429 15.9949, 0.846354 15.9949 C 1.04946 15.9955, 1.24078 15.9927, 1.4192 15.9865, 1.59817 15.9809, 1.76761 15.9657, 1.92808 15.9416, 2.08854 15.918, 2.22712 15.8939, 2.34382 15.8692, 2.44257 15.8518, 2.52392 15.7969, 2.58844 15.7037, 2.65353 15.6111, 2.68551 15.5079, 2.68551 15.3935 L 2.68551 5.27643 C 2.37805 5.4268, 1.99877 5.54069, 1.5488 5.61812, 1.09883 5.6961, 0.60622 5.73482, 0.0698472 5.73426 L 0.0698472 4.97122 C 0.809324 4.97178, 1.49213 4.88369, 2.11771 4.70696, 2.7433 4.53078, 3.28416 4.19976, 3.73974 3.71444 L 4.02644 3.71444 C 4.22954 3.715, 4.33109 3.81375, 4.33109 4.01068 L 4.33109 15.3935 C 4.33109 15.5135, 4.36195 15.6184, 4.42367 15.7082, 4.48539 15.798, 4.57516 15.8518, 4.69186 15.8692, 4.7906 15.8939, 4.9174 15.918, 5.07113 15.9416, 5.22486 15.9657, 5.39879 15.9809, 5.59292 15.9865, 5.78704 15.9927, 5.97668 15.9955, 6.16183 15.9949 L 6.82725 15.9949, 6.82725 16.7669 Z" stroke="none" fill="#000000" />
			<path d="M 17.5421 10.519 C 17.5421 11.3813, 17.4821 12.2386, 17.362 13.0914, 17.242 13.9442, 16.9446 14.7449, 16.4699 15.4922, 16.1311 16.0376, 15.6777 16.4561, 15.1111 16.749, 14.5444 17.0424, 13.9278 17.1888, 13.2618 17.1888, 12.6211 17.1888, 12.0157 17.0424, 11.4456 16.749, 10.8756 16.4561, 10.4206 16.0376, 10.0817 15.4922, 9.60762 14.7449, 9.31026 13.9442, 9.19019 13.0914, 9.07012 12.2386, 9.00953 11.3813, 9.00953 10.519, 9.00953 9.64596, 9.07012 8.77352, 9.19019 7.90275, 9.31026 7.03199, 9.60762 6.21677, 10.0817 5.45597, 10.4206 4.90613, 10.8739 4.47804, 11.4406 4.17283, 12.0078 3.86761, 12.6149 3.715, 13.2618 3.71444, 13.9216 3.715, 14.536 3.86761, 15.106 4.17283, 15.676 4.47804, 16.1311 4.90613, 16.4699 5.45597, 16.9446 6.21677, 17.242 7.03199, 17.362 7.90275, 17.4821 8.77352, 17.5421 9.64596, 17.5421 10.519 Z M 15.7114 10.2048 C 15.7114 9.82831, 15.7086 9.43052, 15.7024 9.0114, 15.6968 8.59285, 15.6811 8.18272, 15.6564 7.78156, 15.6317 7.38097, 15.5874 7.00225, 15.5223 6.64598, 15.4578 6.29027, 15.3792 5.98617, 15.2867 5.73426, 15.1015 5.32805, 14.8305 4.99422, 14.4731 4.73389, 14.1157 4.47355, 13.7118 4.34339, 13.2618 4.34283, 12.8242 4.34339, 12.4286 4.47524, 12.074 4.73837, 11.72 5.00207, 11.4501 5.33366, 11.265 5.73426, 11.173 5.98617, 11.0944 6.29027, 11.0293 6.64598, 10.9648 7.00225, 10.9199 7.38097, 10.8952 7.78156, 10.8706 8.18272, 10.8554 8.59285, 10.8492 9.0114, 10.8431 9.43052, 10.8397 9.82831, 10.8397 10.2048, 10.8397 10.6245, 10.8431 11.066, 10.8492 11.5294, 10.8554 11.9934, 10.8706 12.4423, 10.8952 12.876, 10.9199 13.3102, 10.9648 13.7215, 11.0293 14.1103, 11.0944 14.4997, 11.173 14.8257, 11.265 15.0882, 11.4378 15.5259, 11.7049 15.8849, 12.0651 16.166, 12.4253 16.4477, 12.8242 16.588, 13.2618 16.5874, 13.7179 16.588, 14.1264 16.4477, 14.4866 16.166, 14.8474 15.8849, 15.1139 15.5259, 15.2867 15.0882, 15.3792 14.8257, 15.4578 14.4997, 15.5223 14.1103, 15.5874 13.7215, 15.6317 13.3102, 15.6564 12.876, 15.6811 12.4423, 15.6968 11.9934, 15.7024 11.5294, 15.7086 11.066, 15.7114 10.6245, 15.7114 10.2048 Z" stroke="none" fill="#000000" />
			<path d="M 27.4384 10.519 C 27.4384 11.3813, 27.3784 12.2386, 27.2583 13.0914, 27.1382 13.9442, 26.8409 14.7449, 26.3662 15.4922, 26.0273 16.0376, 25.574 16.4561, 25.0073 16.749, 24.4406 17.0424, 23.824 17.1888, 23.1581 17.1888, 22.5173 17.1888, 21.9119 17.0424, 21.3419 16.749, 20.7719 16.4561, 20.3169 16.0376, 19.978 15.4922, 19.5039 14.7449, 19.2065 13.9442, 19.0865 13.0914, 18.9664 12.2386, 18.9058 11.3813, 18.9058 10.519, 18.9058 9.64596, 18.9664 8.77352, 19.0865 7.90275, 19.2065 7.03199, 19.5039 6.21677, 19.978 5.45597, 20.3169 4.90613, 20.7702 4.47804, 21.3369 4.17283, 21.9041 3.86761, 22.5112 3.715, 23.1581 3.71444, 23.8179 3.715, 24.4322 3.86761, 25.0023 4.17283, 25.5723 4.47804, 26.0273 4.90613, 26.3662 5.45597, 26.8409 6.21677, 27.1382 7.03199, 27.2583 7.90275, 27.3784 8.77352, 27.4384 9.64596, 27.4384 10.519 Z M 25.6076 10.2048 C 25.6076 9.82831, 25.6048 9.43052, 25.5987 9.0114, 25.5931 8.59285, 25.5774 8.18272, 25.5527 7.78156, 25.528 7.38097, 25.4837 7.00225, 25.4186 6.64598, 25.354 6.29027, 25.2755 5.98617, 25.1829 5.73426, 24.9978 5.32805, 24.7268 4.99422, 24.3694 4.73389, 24.012 4.47355, 23.608 4.34339, 23.1581 4.34283, 22.7204 4.34339, 22.3249 4.47524, 21.9703 4.73837, 21.6163 5.00207, 21.3464 5.33366, 21.1613 5.73426, 21.0692 5.98617, 20.9907 6.29027, 20.9256 6.64598, 20.8611 7.00225, 20.8162 7.38097, 20.7915 7.78156, 20.7668 8.18272, 20.7517 8.59285, 20.7455 9.0114, 20.7393 9.43052, 20.736 9.82831, 20.736 10.2048, 20.736 10.6245, 20.7393 11.066, 20.7455 11.5294, 20.7517 11.9934, 20.7668 12.4423, 20.7915 12.876, 20.8162 13.3102, 20.8611 13.7215, 20.9256 14.1103, 20.9907 14.4997, 21.0692 14.8257, 21.1613 15.0882, 21.3341 15.5259, 21.6011 15.8849, 21.9613 16.166, 22.3215 16.4477, 22.7204 16.588, 23.1581 16.5874, 23.6142 16.588, 24.0227 16.4477, 24.3829 16.166, 24.7436 15.8849, 25.0101 15.5259, 25.1829 15.0882, 25.2755 14.8257, 25.354 14.4997, 25.4186 14.1103, 25.4837 13.7215, 25.528 13.3102, 25.5527 12.876, 25.5774 12.4423, 25.5931 11.9934, 25.5987 11.5294, 25.6048 11.066, 25.6076 10.6245, 25.6076 10.2048 Z" stroke="none" fill="#000000" />
			<rect />
		</svg>
	</g>
	<g transform="matrix(1 0 -0 1 43.8537 182.28)">
		<svg width="42.0378685" height="48.0957298">
			<defs />
			<path d="M 12.2634 10.4122 C 12.0367 11.2984, 11.6703 12.1532, 11.1642 12.9776, 10.6581 13.802, 10.0209 14.556, 9.25376 15.2396, 8.56217 15.8567, 7.80531 16.3474, 6.98433 16.7103, 6.16336 17.0733, 5.34123 17.2548, 4.51739 17.2548, 3.68725 17.2548, 2.94929 17.0722, 2.30464 16.7058, 1.65999 16.3394, 1.14588 15.8447, 0.762298 15.2212, 0.340931 14.5319, 0.0987594 13.7682, 0.0357833 12.9312, 0.0105929 12.7303, -0.00200236 12.5287, -0.00200236 12.3266, -0.00200236 11.698, 0.0798666 11.0477, 0.243032 10.3755, 0.482341 9.4784, 0.85161 8.60704, 1.35198 7.76087, 1.85236 6.91528, 2.49185 6.1504, 3.27161 5.46568, 3.96377 4.84966, 4.72006 4.35329, 5.54104 3.97773, 6.36202 3.60216, 7.19044 3.41438, 8.02687 3.41381, 8.85701 3.41438, 9.59154 3.60388, 10.2299 3.98231, 10.8688 4.36131, 11.3795 4.86168, 11.7631 5.484, 12.1844 6.17445, 12.4329 6.9439, 12.5085 7.79236, 12.5211 8.00075, 12.5274 8.20514, 12.5274 8.40609, 12.5274 9.0599, 12.4398 9.72859, 12.2634 10.4122 Z M 10.3576 5.79545 C 10.1503 5.28305, 9.83887 4.86626, 9.42323 4.54566, 9.00816 4.22505, 8.49862 4.06475, 7.89462 4.06418, 7.2975 4.06475, 6.70323 4.22849, 6.11183 4.55482, 5.521 4.88172, 4.99257 5.30423, 4.52655 5.82293, 3.94144 6.45269, 3.47943 7.13512, 3.13993 7.87079, 2.80043 8.60704, 2.53593 9.35302, 2.34701 10.1099, 2.12716 10.9349, 1.99205 11.7381, 1.94167 12.519, 1.92907 12.6661, 1.92278 12.8127, 1.92278 12.9587, 1.92278 13.5701, 2.02354 14.1684, 2.22449 14.7541, 2.41971 15.2739, 2.71856 15.709, 3.12104 16.06, 3.52351 16.4115, 4.02675 16.5867, 4.63017 16.5861, 5.25306 16.5867, 5.86222 16.4081, 6.45648 16.0508, 7.05075 15.6936, 7.58375 15.2522, 8.0555 14.7266, 8.6658 14.019, 9.14041 13.2707, 9.4799 12.4829, 9.81997 11.6952, 10.0965 10.8919, 10.31 10.0732, 10.5053 9.31066, 10.6278 8.55952, 10.6782 7.81984 L 10.6782 7.49924 C 10.6782 6.88894, 10.5717 6.32101, 10.3576 5.79545 Z" stroke="none" fill="#000000" />
			<rect />
		</svg>
	</g>
	<g transform="matrix(1 0 -0 1 113.094 182.28)">
		<svg width="29.9820557" height="45.2233963">
			<defs />
			<path d="M 7.60755 16.7669 L 0.0814935 16.7669, 0.0814935 16.2732 C 0.0814935 16.2379, 0.100008 16.184, 0.137038 16.1116 L 3.16059 12.826 C 3.51798 12.4316, 3.87987 12.0277, 4.2468 11.6147, 4.61373 11.2018, 4.94251 10.7799, 5.23202 10.349, 5.52153 9.91808, 5.75268 9.47372, 5.92549 9.01589, 6.0983 8.55807, 6.18414 8.0778, 6.18414 7.57453, 6.18414 7.15037, 6.12859 6.7537, 6.0175 6.38565, 5.90641 6.01759, 5.74651 5.69442, 5.53668 5.41613, 5.3274 5.13785, 5.06539 4.91343, 4.75119 4.74286, 4.437 4.5723, 4.07287 4.48702, 3.65993 4.48646, 3.04389 4.48702, 2.49966 4.67105, 2.02781 5.0391, 1.55652 5.40716, 1.24345 5.8128, 1.08916 6.25492, 1.05886 6.26726, 1.10823 6.27343, 1.23728 6.27287 L 1.39437 6.27287 C 1.57952 6.31551, 1.73942 6.38004, 1.8752 6.46644, 2.01098 6.5534, 2.12487 6.67291, 2.21745 6.82552, 2.31002 6.97812, 2.35603 7.16215, 2.35603 7.37704, 2.35603 7.73668, 2.23933 8.01216, 2.00481 8.20348, 1.77028 8.39536, 1.50827 8.49074, 1.21876 8.49018, 0.941598 8.49074, 0.682388 8.39536, 0.442255 8.20348, 0.202121 8.01216, 0.0814935 7.73668, 0.0814935 7.37704, 0.0814935 6.87489, 0.18024 6.39911, 0.377733 5.95026, 0.575226 5.50142, 0.842851 5.1126, 1.18173 4.78326, 1.52061 4.45448, 1.92121 4.19415, 2.38352 4.00226, 2.84583 3.81094, 3.3362 3.715, 3.85406 3.71444, 4.49535 3.715, 5.08278 3.80926, 5.61578 3.99778, 6.14879 4.18629, 6.60325 4.45728, 6.97916 4.81019, 7.35507 5.16366, 7.64963 5.57211, 7.86227 6.03554, 8.07491 6.49954, 8.18095 7.01235, 8.18095 7.57453, 8.18095 8.19731, 8.03956 8.77071, 7.75567 9.29418, 7.47233 9.81821, 7.12111 10.2985, 6.702 10.735, 6.28288 11.172, 5.8374 11.5833, 5.36555 11.9693, 4.89426 12.3553, 4.4673 12.7307, 4.08521 13.0954 L 1.95824 15.0972, 4.74165 15.0972 C 5.12991 15.0978, 5.49235 15.095, 5.82787 15.0888, 6.16394 15.0832, 6.44896 15.0708, 6.68348 15.0529, 6.918 15.0349, 7.03807 15.0232, 7.04368 15.0164, 7.09305 14.9749, 7.13962 14.8913, 7.18282 14.7656, 7.22603 14.64, 7.26586 14.4918, 7.30289 14.3213, 7.33992 14.1507, 7.37695 13.9773, 7.41398 13.8006, 7.45101 13.6244, 7.48467 13.4309, 7.51553 13.221 L 8.19946 13.221 Z" stroke="none" fill="#000000" />
			<rect />
		</svg>
	</g>
	<g transform="matrix(1 0 -0 1 221.263 182.28)">
		<svg width="29.9820557" height="48.0957298">
			<defs />
			<path d="M 8.50734 12.7632 C 8.50734 13.386, 8.41532 13.9442, 8.23017 14.438, 8.04559 14.9317, 7.73139 15.4181, 7.28703 15.8962, 6.84941 16.3456, 6.40112 16.6732, 5.94161 16.8791, 5.48267 17.0856, 4.92946 17.1888, 4.282 17.1888, 3.62275 17.1888, 3.01849 17.0261, 2.46978 16.6996, 1.92106 16.3742, 1.48343 15.9326, 1.1569 15.3755, 0.694584 14.6158, 0.400589 13.8141, 0.27379 12.9702, 0.147551 12.1264, 0.0841516 11.2854, 0.0841516 10.4472, 0.0841516 9.61005, 0.205901 8.78586, 0.449401 7.97457, 0.692901 7.16384, 1.08284 6.41426, 1.61921 5.72528, 2.06918 5.13953, 2.6179 4.65758, 3.26536 4.28055, 3.91282 3.90352, 4.62425 3.715, 5.40075 3.71444, 6.14696 3.715, 6.76637 3.90689, 7.25954 4.28953, 7.75271 4.67273, 7.99902 5.22313, 7.99902 5.94073, 7.99902 6.27624, 7.89747 6.52479, 7.6938 6.68637, 7.4907 6.84796, 7.25618 6.92875, 6.99136 6.92819, 6.73888 6.92875, 6.51221 6.84796, 6.31191 6.68637, 6.11161 6.52479, 6.01118 6.27624, 6.01118 5.94073, 6.01118 5.58221, 6.14359 5.3129, 6.40841 5.1328, 6.58122 5.02564, 6.77591 4.97178, 6.99136 4.97122, 7.05924 4.97178, 7.06822 4.96897, 7.01885 4.96224, 6.93244 4.83095, 6.74337 4.70135, 6.45049 4.5723, 6.15762 4.44382, 5.80808 4.3793, 5.40075 4.37874, 4.85204 4.3793, 4.35886 4.54257, 3.92124 4.86854, 3.48361 5.19508, 3.11387 5.60297, 2.81202 6.09333, 2.45463 6.71611, 2.23862 7.39443, 2.16456 8.12718, 2.0905 8.86048, 2.0473 9.4451, 2.03496 9.88161, 2.14605 9.62464, 2.41311 9.30933, 2.83503 8.9351, 3.2575 8.56143, 3.79219 8.37404, 4.4391 8.37348, 5.0557 8.37404, 5.58758 8.47728, 6.03419 8.68375, 6.48135 8.89022, 6.91112 9.2117, 7.32406 9.64821, 7.75608 10.1274, 8.0613 10.6093, 8.23971 11.0941, 8.41813 11.5788, 8.50734 12.1354, 8.50734 12.7632 Z M 6.53802 12.7632 C 6.53802 12.1892, 6.5195 11.6731, 6.48247 11.2152, 6.44544 10.7574, 6.32257 10.3551, 6.11274 10.0073, 5.89729 9.65494, 5.65659 9.39461, 5.39177 9.22685, 5.12695 9.05966, 4.80322 8.9755, 4.42058 8.97494, 4.00764 8.9755, 3.65473 9.08041, 3.36186 9.28969, 3.06899 9.49953, 2.821 9.77445, 2.6179 10.1156, 2.41479 10.4567, 2.26948 10.8545, 2.18308 11.3089, 2.12136 11.6209, 2.0905 11.953, 2.0905 12.3054, 2.0905 12.4434, 2.09667 12.5904, 2.10902 12.7453 L 2.10902 12.8171 C 2.1337 13.2665, 2.16793 13.6856, 2.21113 14.0744, 2.25433 14.4638, 2.32222 14.7808, 2.41423 15.0254, 2.58704 15.4569, 2.8412 15.807, 3.17727 16.0763, 3.51335 16.3456, 3.8814 16.4802, 4.282 16.4797, 4.69494 16.4802, 5.04336 16.4011, 5.32669 16.2423, 5.61059 16.0841, 5.86026 15.8277, 6.07571 15.4742, 6.29789 15.1219, 6.4303 14.7224, 6.4735 14.2764, 6.5167 13.8309, 6.53802 13.3265, 6.53802 12.7632 Z" stroke="none" fill="#000000" />
			<rect />
		</svg>
	</g>
	<path d="M -92.0762 0 L 92.076 0" fill="none" stroke="#000000" stroke-opacity="0.388235271" stroke-width="4.53333378" stroke-linecap="round" stroke-linejoin="round" stroke-dasharray="15.8893, 11.3107" transform="matrix(0.294118 0 0 0.294118 90.1542 147.252)" />
	<path d="M -92.0762 0 L 92.076 0" fill="none" stroke="#000000" stroke-opacity="0.388235271" stroke-width="4.53333378" stroke-linecap="round" stroke-linejoin="round" stroke-dasharray="15.8893, 11.3107" transform="matrix(0.294118 0 0 0.294118 90.1542 54.9082)" />
	<path d="M 184.152 0.00012207 L -184.152 0" fill="none" stroke="#000000" stroke-width="4.53333378" stroke-linecap="round" stroke-linejoin="round" transform="matrix(0.294118 0 0 0.294118 171.398 147.252)" />
	<path d="M 0 -156.984 L 0 156.984" fill="none" stroke="#000000" stroke-width="4.53333378" stroke-linecap="round" stroke-linejoin="round" transform="matrix(0.294118 0 0 0.294118 117.235 101.08)" />
	<path d="M -184.152 -156.984 L 184.152 156.984" fill="none" stroke="#000000" stroke-width="4.53333378" stroke-linecap="round" stroke-linejoin="round" transform="matrix(0.294118 0 0 0.294118 171.398 101.08)" />
	<path d="M 0 78.4922 L 0 -78.4922" fill="none" stroke="#000000" stroke-width="3.4000001" stroke-linecap="round" stroke-linejoin="round" marker-end="url(#CustomMarker-03)" transform="matrix(0.294118 0 0 0.294118 117.235 124.166)" />
	<path d="M 102.675 0 L -102.675 0" fill="none" stroke="#000000" stroke-width="3.4000001" stroke-linecap="round" stroke-linejoin="round" marker-end="url(#CustomMarker-04)" transform="matrix(0.294118 0 0 0.294118 195.362 147.252)" />
	<path d="M -92.076 -78.4923 L 92.0762 78.4922" fill="none" stroke="#000000" stroke-width="3.4000001" stroke-linecap="round" stroke-linejoin="round" marker-end="url(#CustomMarker-05)" transform="matrix(0.294118 0 0 0.294118 144.317 77.9941)" />
	<g transform="matrix(1 0 -0 1 232.823 136.044)">
		<svg width="44.9082985" height="45.2233963">
			<defs />
			<path d="M 13.0346 7.12367 C 12.9281 7.56393, 12.7157 7.97614, 12.398 8.36086, 12.0808 8.74559, 11.7144 9.07249, 11.2993 9.34043, 10.9724 9.56084, 10.6375 9.73489, 10.2946 9.86313, 9.95223 9.99137, 9.83086 10.0463, 9.93104 10.0274, 9.91272 10.0217, 10.0776 10.1001, 10.4268 10.2616, 10.7761 10.4236, 11.0824 10.6446, 11.3463 10.9251, 11.6417 11.2251, 11.8432 11.5852, 11.9497 12.006, 12.0001 12.2144, 12.0287 12.4188, 12.035 12.6198, 12.035 12.8522, 12.0007 13.0938, 11.9308 13.3434, 11.8117 13.814, 11.5913 14.2634, 11.2707 14.6905, 10.9501 15.1182, 10.5665 15.4903, 10.12 15.8075, 9.64822 16.1499, 9.14671 16.4081, 8.61542 16.5821, 8.08413 16.7561, 7.55456 16.8426, 7.02613 16.8426 L 0.271661 16.8426 C 0.177769 16.8426, 0.108495 16.8151, 0.0644122 16.7602, 0.0209015 16.7178, -0.00142642 16.672, -0.00142642 16.6228, -0.00142642 16.5867, 0.00487119 16.55, 0.0174664 16.5128 L 0.0546795 16.3754 C 0.0924652 16.1745, 0.215555 16.0766, 0.422803 16.0823, 0.718218 16.0829, 0.995313 16.0783, 1.25294 16.0691, 1.51114 16.06, 1.70637 16.0279, 1.83805 15.9724, 1.9514 15.9117, 2.039 15.7468, 2.10197 15.4777 L 4.75269 5.15423 C 4.79048 5.02027, 4.80937 4.91664, 4.80937 4.84279, 4.80937 4.77008, 4.79391 4.72714, 4.76185 4.71455, 4.67426 4.66016, 4.50308 4.62695, 4.24831 4.61436, 3.99355 4.60234, 3.71531 4.59604, 3.41302 4.59547, 3.31913 4.59604, 3.24986 4.56569, 3.20577 4.50386, 3.16799 4.4678, 3.14909 4.422, 3.14909 4.36646, 3.14909 4.33039, 3.15883 4.29662, 3.17715 4.2657 L 3.20577 4.1283 C 3.22467 4.04357, 3.27047 3.97486, 3.3426 3.92277, 3.41474 3.87124, 3.49203 3.84491, 3.57332 3.84433 L 9.82742 3.84433 C 10.3433 3.84491, 10.8305 3.92162, 11.2896 4.07391, 11.7488 4.22677, 12.1295 4.4678, 12.4312 4.79699, 12.7266 5.09698, 12.9344 5.44507, 13.0535 5.84125, 13.1039 6.04334, 13.1291 6.24773, 13.1291 6.45498, 13.1291 6.67539, 13.0976 6.8981, 13.0346 7.12367 Z M 11.1293 7.08703 C 11.1923 6.84314, 11.2238 6.59925, 11.2238 6.35422 L 11.2238 6.13437 C 11.1986 5.84182, 11.1104 5.56988, 10.9593 5.31912, 10.8276 5.09355, 10.653 4.91664, 10.436 4.7884, 10.2196 4.66016, 9.96654 4.59604, 9.67685 4.59547 L 7.18643 4.59547 C 6.85323 4.59604, 6.66144 4.61722, 6.61106 4.65959, 6.53549 4.72142, 6.46335 4.89832, 6.39408 5.19088 L 5.22444 9.78927, 7.79959 9.78927 C 8.15798 9.78985, 8.51351 9.72, 8.8656 9.57916, 9.2177 9.4389, 9.55433 9.24024, 9.87494 8.98318, 10.5413 8.44617, 10.9598 7.81412, 11.1293 7.08703 Z M 9.96883 13.2885 C 10.057 12.9776, 10.1011 12.669, 10.1011 12.3633 L 10.1011 12.1709 C 10.0759 11.8297, 9.98486 11.5148, 9.82742 11.2274, 9.68945 10.9778, 9.50224 10.7746, 9.26636 10.6188, 9.03049 10.4631, 8.75568 10.3853, 8.4408 10.3847 L 5.05441 10.3847, 3.74336 15.5144 C 3.69298 15.7228, 3.66779 15.8722, 3.66779 15.9632, 3.66779 16.0125, 3.67122 16.0399, 3.67695 16.0457, 3.68954 16.0646, 3.85328 16.0766, 4.16759 16.0823 L 6.68663 16.0823 C 7.03243 16.0829, 7.38166 16.0084, 7.73375 15.8585, 8.08585 15.709, 8.40931 15.5121, 8.70473 15.267, 9.0322 14.9928, 9.30071 14.6848, 9.5114 14.3424, 9.72208 14.0007, 9.87494 13.6491, 9.96883 13.2885 Z" stroke="none" fill="#000000" />
			<rect />
		</svg>
	</g>
	<g transform="matrix(1 0 -0 1 98.4802 149.965)">
		<svg width="42.0378685" height="48.0957298">
			<defs />
			<path d="M 11.6652 8.71754 C 11.6274 8.88929, 11.5175 8.97746, 11.3348 8.98318 L 11.127 8.98318 C 10.9827 8.98375, 10.9037 8.91047, 10.8911 8.76334 L 10.8911 8.69006 C 10.9541 8.3059, 10.989 7.93663, 10.9953 7.58168, 10.9953 7.38073, 10.989 7.17634, 10.9764 6.96795, 10.9135 6.43093, 10.7721 5.95632, 10.5522 5.54411, 10.3324 5.13191, 10.0364 4.80214, 9.6654 4.55482, 9.29441 4.30749, 8.84156 4.18383, 8.30684 4.18326, 7.65303 4.18383, 6.99579 4.34299, 6.33511 4.66016, 5.67501 4.9779, 5.07788 5.40213, 4.54316 5.93285, 3.92084 6.56261, 3.43363 7.25878, 3.08097 8.02194, 2.72887 8.78566, 2.45235 9.56371, 2.25083 10.3572, 2.03098 11.1639, 1.90503 11.9453, 1.87354 12.7022 L 1.87354 12.9587 C 1.87354 13.6251, 2.00579 14.2325, 2.26972 14.7816, 2.52162 15.3014, 2.88918 15.7199, 3.37352 16.0371, 3.85786 16.3548, 4.43323 16.5134, 5.09964 16.5128, 5.64066 16.5134, 6.17195 16.3978, 6.69408 16.1653, 7.2162 15.9334, 7.69539 15.6203, 8.13222 15.2264, 8.56962 14.8325, 8.95148 14.3762, 9.27838 13.857, 9.60586 13.3383, 9.84173 12.7881, 9.98601 12.2076, 10.0238 12.0369, 10.1337 11.9516, 10.3158 11.9511 L 10.5236 11.9511 C 10.681 11.9516, 10.7658 12.0186, 10.7784 12.1526, 10.7784 12.1898, 10.7692 12.2236, 10.7497 12.2534, 10.5803 12.9255, 10.3003 13.5638, 9.91043 14.1684, 9.52056 14.773, 9.05682 15.3031, 8.51924 15.7577, 7.98165 16.2128, 7.39196 16.5758, 6.75075 16.8472, 6.10954 17.1191, 5.44887 17.2548, 4.7693 17.2548, 3.90137 17.2548, 3.12963 17.0733, 2.4535 16.7103, 1.77793 16.3474, 1.2289 15.8447, 0.80753 15.2029, 0.367843 14.5136, 0.109641 13.7499, 0.0340694 12.9129, 0.00887895 12.6873, -0.00371623 12.4526, -0.00371623 12.2076, -0.00371623 11.5915, 0.0752901 10.9623, 0.232158 10.3206, 0.471467 9.42344, 0.850468 8.55781, 1.36916 7.72423, 1.88786 6.89066, 2.53708 6.13208, 3.31684 5.44736, 4.05309 4.82504, 4.85002 4.33039, 5.70821 3.96399, 6.56698 3.59758, 7.42689 3.41438, 8.28794 3.41381, 8.97381 3.41438, 9.56006 3.56552, 10.0473 3.86781, 10.535 4.17009, 10.8946 4.53478, 11.127 4.96187 L 12.4009 3.54205 C 12.4512 3.45732, 12.5365 3.41438, 12.6556 3.41381 L 12.7306 3.41381 C 12.8818 3.41438, 12.9573 3.48766, 12.9573 3.63365 L 12.9573 3.70693 Z" stroke="none" fill="#000000" />
			<rect />
		</svg>
	</g>
</svg>
