<?xml version="1.0"?>
<svg xmlns="http://www.w3.org/2000/svg" xmlns:xlink="http://www.w3.org/1999/xlink" width="484.931335" height="183.664856">
	<defs>
		<marker id="CustomMarker-01" markerUnits="strokeWidth" markerWidth="15.000001" markerHeight="9" viewBox="-15 -4.5 15 9" orient="auto-start-reverse">
			<path d="M 0 -0 L -10 -3, -8 -0.5, -8 0.5, -10 3 Z" fill="#000000" stroke="#000000" stroke-linejoin="round" />
		</marker>
		<marker id="CustomMarker-02" markerUnits="strokeWidth" markerWidth="15.000001" markerHeight="9" viewBox="-15 -4.5 15 9" orient="auto-start-reverse">
			<path d="M 0 -0 L -10 -3, -8 -0.5, -8 0.5, -10 3 Z" fill="#000000" stroke="#000000" stroke-linejoin="round" />
		</marker>
		<marker id="CustomMarker-03" markerUnits="strokeWidth" markerWidth="15.000001" markerHeight="9" viewBox="-15 -4.5 15 9" orient="auto-start-reverse">
			<path d="M 0 -0 L -10 -3, -8 -0.5, -8 0.5, -10 3 Z" fill="#000000" stroke="#000000" stroke-linejoin="round" />
		</marker>
		<marker id="CustomMarker-04" markerUnits="strokeWidth" markerWidth="15.000001" markerHeight="9" viewBox="-15 -4.5 15 9" orient="auto-start-reverse">
			<path d="M 0 -0 L -10 -3, -8 -0.5, -8 0.5, -10 3 Z" fill="#000000" stroke="#000000" stroke-linejoin="round" />
		</marker>
		<marker id="CustomMarker-05" markerUnits="strokeWidth" markerWidth="15.000001" markerHeight="9" viewBox="-15 -4.5 15 9" orient="auto-start-reverse">
			<path d="M 0 -0 L -10 -3, -8 -0.5, -8 0.5, -10 3 Z" fill="#000000" stroke="#000000" stroke-linejoin="round" />
		</marker>
		<marker id="CustomMarker-06" markerUnits="strokeWidth" markerWidth="15.000001" markerHeight="9" viewBox="-15 -4.5 15 9" orient="auto-start-reverse">
			<path d="M 0 -0 L -10 -3, -8 -0.5, -8 0.5, -10 3 Z" fill="#000000" stroke="#000000" stroke-linejoin="round" />
		</marker>
	</defs>
	<path d="M -270.244 221.015 L 270.244 221.015" fill="none" stroke="#000000" stroke-width="4" stroke-linecap="round" stroke-linejoin="round" marker-end="url(#CustomMarker-01)" transform="matrix(0.333333 0 -0 0.333333 365.498 87.2858)" />
	<path d="M -270.244 221.015 L -270.244 -221.015" fill="none" stroke="#000000" stroke-width="4" stroke-linecap="round" stroke-linejoin="round" marker-end="url(#CustomMarker-02)" transform="matrix(0.333333 0 -0 0.333333 365.498 87.2858)" />
	<g transform="matrix(1 0 -0 1 252.465 11.5)">
		<svg width="33.1395264" height="41.7765884">
			<defs />
			<path d="M 9.59355 12.748 C 9.44928 13.2799, 9.23688 13.8054, 8.95692 14.3241, 8.67696 14.8434, 8.31342 15.3226, 7.86686 15.7617, 7.50217 16.1287, 7.08882 16.4355, 6.62623 16.6829, 6.16422 16.9302, 5.68445 17.0533, 5.18752 17.0533, 4.77874 17.0533, 4.44211 16.9405, 4.17761 16.7149, 3.91368 16.4894, 3.74708 16.3056, 3.67781 16.1647 L 2.89461 19.1693 C 2.85683 19.3221, 2.83507 19.4349, 2.82877 19.5082, 2.82877 19.5695, 2.84137 19.609, 2.86656 19.6273, 2.94213 19.6765, 3.08812 19.7069, 3.3051 19.7189, 3.52208 19.7315, 3.76597 19.7372, 4.0362 19.7372, 4.19994 19.7372, 4.2818 19.8168, 4.2818 19.9754 L 4.2818 20.0395, 4.24402 20.2135 C 4.17475 20.3967, 4.05223 20.4855, 3.8759 20.4792, 3.27247 20.4551, 2.67477 20.4368, 2.08337 20.4242 L 1.80971 20.4242 C 1.29445 20.4242, 0.77232 20.4425, 0.243321 20.4792, 0.0807282 20.4792, -0.00114071 20.4002, -0.00171322 20.241 L -0.00171322 20.1769, 0.0360724 20.0028 C 0.105919 19.8196, 0.228436 19.7315, 0.403624 19.7372, 0.624612 19.7372, 0.807243 19.7315, 0.951516 19.7189, 1.09579 19.7069, 1.19941 19.6794, 1.26239 19.6364, 1.32536 19.6061, 1.39178 19.4384, 1.46048 19.1326 L 3.64918 10.6686 C 3.74994 10.2725, 3.80032 9.93011, 3.80032 9.64271 L 3.80032 9.42287 C 3.76941 9.13032, 3.6217 8.98375, 3.3572 8.98318, 3.08011 8.98375, 2.84881 9.20703, 2.66332 9.65244, 2.47783 10.0984, 2.29749 10.6784, 2.12115 11.3923, 2.05188 11.5578, 1.93566 11.6431, 1.77192 11.6488 L 1.55494 11.6488 C 1.4038 11.6494, 1.32823 11.5732, 1.32823 11.4198 L 1.32823 11.3557 C 1.4038 11.0694, 1.4891 10.7562, 1.58357 10.4173, 1.67803 10.0784, 1.80398 9.75779, 1.96085 9.4555, 2.11829 9.15322, 2.31638 8.89673, 2.55512 8.68605, 2.79442 8.47536, 3.0927 8.37002, 3.45109 8.36945, 3.92971 8.37002, 4.31157 8.50628, 4.59783 8.77765, 4.88408 9.04959, 5.0524 9.32268, 5.10221 9.59691, 5.34782 9.31638, 5.67644 9.04215, 6.08865 8.77307, 6.50085 8.50456, 6.93596 8.37002, 7.39511 8.36945, 7.87946 8.37002, 8.29338 8.49712, 8.63574 8.75017, 8.97867 9.00379, 9.24432 9.31982, 9.43325 9.69767, 9.65996 10.15, 9.77904 10.6389, 9.79164 11.1633 L 9.79164 11.2915 C 9.79164 11.7621, 9.7258 12.2476, 9.59355 12.748 Z M 8.20636 9.96332 C 8.15025 9.67076, 8.04491 9.43432, 7.89033 9.25398, 7.73633 9.07421, 7.53366 8.98375, 7.28176 8.98318, 6.99264 8.98375, 6.69894 9.08165, 6.40009 9.27688, 6.10124 9.47268, 5.82586 9.71943, 5.57396 10.0183, 5.37931 10.269, 5.20927 10.5043, 5.06443 10.7236 L 4.02704 14.7266 C 4.05223 14.8554, 4.07627 14.9779, 4.09803 15.0936, 4.11978 15.2098, 4.14955 15.3226, 4.18734 15.4319, 4.2818 15.7319, 4.41863 15.9764, 4.59783 16.1653, 4.77703 16.3548, 5.01462 16.4493, 5.31003 16.4487, 5.57453 16.4493, 5.8356 16.352, 6.09323 16.1562, 6.35085 15.9609, 6.58673 15.7165, 6.80085 15.4228, 7.10313 15.014, 7.32927 14.5795, 7.48042 14.118, 7.63156 13.6572, 7.76953 13.1854, 7.89491 12.7022, 8.02087 12.2018, 8.13136 11.7198, 8.22525 11.2549, 8.26304 11.0356, 8.28193 10.8221, 8.28193 10.6137, 8.28193 10.3944, 8.25674 10.1774, 8.20636 9.96332 Z" stroke="none" fill="#000000" />
			<rect />
		</svg>
	</g>
	<g transform="matrix(1 0 -0 1 463.005 149.75)">
		<svg width="42.0378685" height="48.0957298">
			<defs />
			<path d="M 12.858 4.32066 C 12.8208 4.50444, 12.7074 4.59604, 12.5185 4.59547, 12.3176 4.59604, 12.1258 4.61894, 11.9431 4.66474, 11.7611 4.71054, 11.583 4.7884, 11.4101 4.89832, 11.2372 5.00825, 11.0786 5.14107, 10.9338 5.29679, 10.789 5.45251, 10.6567 5.62827, 10.537 5.82293 L 3.65892 17.0075 C 3.56503 17.1787, 3.42018 17.2611, 3.22496 17.2548 L 3.04576 17.2548 C 2.81332 17.2548, 2.69996 17.1575, 2.70626 16.9617 L 1.52689 5.26416 C 1.5017 5.10614, 1.47651 4.98248, 1.45132 4.89374, 1.42613 4.80558, 1.38834 4.7426, 1.33796 4.70539, 1.25037 4.6573, 1.11068 4.62695, 0.918313 4.61436, 0.726522 4.60234, 0.507824 4.59604, 0.26279 4.59547, 0.168325 4.59604, 0.0990518 4.56569, 0.0549685 4.50386, 0.0171829 4.4678, -0.00170994 4.422, -0.00170994 4.36646, -0.00170994 4.33039, 0.00802273 4.29662, 0.0269156 4.2657 L 0.0549685 4.1283 C 0.0744339 4.04929, 0.1168 3.98231, 0.182638 3.92735, 0.249049 3.87239, 0.329201 3.84491, 0.423092 3.84433, 1.02709 3.88155, 1.63739 3.89987, 2.25341 3.89929, 2.34787 3.89987, 2.44863 3.89357, 2.55512 3.88097, 3.28507 3.88155, 4.01502 3.86952, 4.7444 3.84433, 4.83256 3.84491, 4.911 3.87525, 4.98027 3.93593, 5.00546 3.98517, 5.01806 4.03097, 5.01806 4.07334, 5.01806 4.11055, 5.0089 4.14433, 4.98943 4.1741 L 4.96138 4.3115 C 4.94248 4.39738, 4.89668 4.46665, 4.82455 4.51818, 4.75241 4.57028, 4.67512 4.59604, 4.59325 4.59547, 4.37341 4.59604, 4.17189 4.6052, 3.98926 4.62352, 3.8072 4.64184, 3.628 4.6905, 3.45167 4.76951, 3.34518 4.82504, 3.2948 4.91664, 3.30053 5.04431 L 3.30053 5.10843 C 3.52094 6.73322, 3.69728 8.36544, 3.82895 10.0051, 3.9612 11.6448, 4.10261 13.1974, 4.25376 14.6625 L 9.82027 5.60308 C 9.90214 5.47541, 9.95252 5.34087, 9.97141 5.20004 L 9.97141 5.15423 C 9.97141 5.06321, 9.94965 4.98076, 9.905 4.90691, 9.76702 4.69966, 9.50939 4.59604, 9.13154 4.59547, 8.9678 4.59604, 8.88593 4.5136, 8.88593 4.34814 L 8.88593 4.28402, 8.92372 4.11914 C 8.99356 3.93651, 9.11608 3.84491, 9.29184 3.84433, 9.84546 3.86952, 10.4019 3.88155, 10.9619 3.88097, 11.0374 3.89357, 11.1101 3.89987, 11.1788 3.89929, 11.6569 3.89987, 12.1475 3.88155, 12.6508 3.84433, 12.8208 3.84491, 12.9118 3.92735, 12.9244 4.09166 L 12.9244 4.16494 Z" stroke="none" fill="#000000" />
			<rect />
		</svg>
	</g>
	<path d="M 0 134.831 L 0 -134.831" fill="none" stroke="#000000" stroke-width="4" stroke-linecap="round" stroke-linejoin="round" stroke-dasharray="14.02, 9.98" transform="matrix(0.333333 0 0 0.333333 305.44 116.014)" />
	<ellipse cx="1403.924560546875" cy="557.71380615234375" rx="7.875" ry="7.875" stroke="none" fill="#000000" transform="matrix(0.333333 0 0 0.333333 -162.534 -114.834)" />
	<ellipse cx="1741.424560546875" cy="557.71380615234375" rx="7.875" ry="7.875" stroke="none" fill="#000000" transform="matrix(0.333333 0 0 0.333333 -162.534 -114.834)" />
	<path d="M -168.75 7.08333 L -137.937 33.7391 C 6.93595 138.037, 22.6672 -169.57, 168.75 5.41667" fill="none" stroke="#000000" stroke-width="4" stroke-linecap="round" stroke-linejoin="round" marker-start="url(#CustomMarker-03)" transform="matrix(0.333333 0 -0 0.333333 361.413 68.9373)" />
	<path d="M 0 134.831 L 0 -134.831" fill="none" stroke="#000000" stroke-width="4" stroke-linecap="round" stroke-linejoin="round" stroke-dasharray="14.02, 9.98" transform="matrix(0.333333 0 0 0.333333 417.94 116.014)" />
	<g transform="matrix(1 0 -0 1 336.119 104.806)">
		<svg width="155.994003" height="48.0957298">
			<defs />
			<path d="M 17.8225 4.32066 C 17.7532 4.50444, 17.6336 4.59604, 17.4641 4.59547, 17.0868 4.59604, 16.7565 4.68764, 16.4737 4.87027, 16.2974 4.98706, 16.1434 5.12446, 16.0111 5.28305, 15.8794 5.44221, 15.7661 5.61568, 15.6716 5.80461 L 9.38945 16.9983 C 9.30758 17.1758, 9.16274 17.2611, 8.95549 17.2548 L 8.80435 17.2548 C 8.5845 17.2548, 8.47401 17.1575, 8.47401 16.9617 L 8.04978 7.66412, 2.82391 17.0075 C 2.73002 17.1787, 2.58518 17.2611, 2.38995 17.2548 L 2.21991 17.2548 C 2.04415 17.2548, 1.93423 17.1603, 1.89015 16.9708 L 1.35256 5.24584 C 1.33997 5.08153, 1.32623 4.95958, 1.3102 4.88, 1.29417 4.801, 1.26096 4.7426, 1.21058 4.70539, 1.13558 4.6573, 1.01478 4.62695, 0.847608 4.61436, 0.681008 4.60234, 0.481202 4.59604, 0.248763 4.59547, 0.0918951 4.59604, 0.00659117 4.5136, -0.00600407 4.34814 L -0.00600407 4.28402, 0.0317816 4.11914 C 0.101055 3.93651, 0.223572 3.84491, 0.399333 3.84433, 0.990735 3.88155, 1.5913 3.89987, 2.20102 3.89929, 2.29606 3.89987, 2.39338 3.89357, 2.49357 3.88097, 3.19833 3.88155, 3.91225 3.86952, 4.63476 3.84433, 4.7985 3.84491, 4.88037 3.92735, 4.88037 4.09166 L 4.88037 4.15578, 4.84258 4.32066 C 4.77388 4.50444, 4.65079 4.59604, 4.47446 4.59547, 4.24202 4.59604, 4.03477 4.6052, 3.85214 4.62352, 3.67008 4.64184, 3.49375 4.6905, 3.32371 4.76951, 3.17314 4.84966, 3.10101 4.96531, 3.10673 5.11759 L 3.53153 14.2594, 7.97421 6.29925, 7.93642 5.24584 C 7.92383 5.08153, 7.91009 4.95958, 7.89406 4.88, 7.8786 4.801, 7.84253 4.7426, 7.78585 4.70539, 7.71028 4.6573, 7.58776 4.62695, 7.41773 4.61436, 7.24827 4.60234, 7.05304 4.59604, 6.83262 4.59547, 6.73873 4.59604, 6.66946 4.56569, 6.62538 4.50386, 6.58759 4.4678, 6.5687 4.422, 6.5687 4.36646, 6.5687 4.33039, 6.57843 4.29662, 6.59732 4.2657 L 6.62538 4.1283 C 6.66316 3.93937, 6.78625 3.84491, 6.9935 3.84433, 7.58433 3.88155, 8.18203 3.89987, 8.78546 3.89929, 8.86732 3.89987, 8.96179 3.89357, 9.06828 3.88097, 9.77304 3.88155, 10.4835 3.86952, 11.2003 3.84433, 11.2885 3.84491, 11.364 3.87525, 11.427 3.93593, 11.4522 3.98517, 11.4642 4.03097, 11.4642 4.07334, 11.4642 4.11055, 11.4551 4.14433, 11.4362 4.1741 L 11.4081 4.3115 C 11.3892 4.39165, 11.3469 4.45864, 11.2805 4.5136, 11.2146 4.56856, 11.1379 4.59604, 11.0497 4.59547, 10.8299 4.59604, 10.6238 4.6052, 10.432 4.62352, 10.2402 4.64184, 10.0622 4.6905, 9.89841 4.76951, 9.76044 4.84966, 9.69117 4.9716, 9.69117 5.13591 L 10.0965 14.2594, 14.964 5.60308 C 15.0338 5.48171, 15.0682 5.37179, 15.0682 5.27332, 15.0682 5.15767, 15.0212 5.04489, 14.9262 4.93439, 14.8386 4.80672, 14.7144 4.71856, 14.5541 4.66932, 14.3938 4.62066, 14.2094 4.59604, 14.0022 4.59547, 13.9083 4.59604, 13.839 4.56569, 13.7943 4.50386, 13.7566 4.4678, 13.7377 4.422, 13.7377 4.36646, 13.7377 4.33039, 13.7474 4.29662, 13.7663 4.2657 L 13.7943 4.1283 C 13.8138 4.04929, 13.8562 3.98231, 13.922 3.92735, 13.9884 3.87239, 14.0651 3.84491, 14.1527 3.84433, 14.4739 3.85693, 14.798 3.86323, 15.1243 3.86265, 15.4455 3.86323, 15.7661 3.86952, 16.0867 3.88097 L 16.8412 3.88097 C 17.0994 3.88155, 17.3571 3.86952, 17.6147 3.84433, 17.7784 3.84491, 17.8603 3.92735, 17.8603 4.09166 L 17.8603 4.15578 Z" stroke="none" fill="#000000" />
			<polyline points="-5.2528 6.04072 0 -6.04072" fill="none" stroke="#000000" stroke-width="0.750400007" stroke-linecap="round" stroke-linejoin="round" transform="matrix(-4.37114e-008 -1 1 -4.37114e-008 29.8727 11.2074)" />
			<polyline points="0 -6.04072 5.2528 6.04072" fill="none" stroke="#000000" stroke-width="0.750400007" stroke-linecap="round" stroke-linejoin="round" transform="matrix(-4.37114e-008 -1 1 -4.37114e-008 29.8727 11.2074)" />
			<ellipse cx="-5.252799779176712" cy="6.0407201945781708" rx="0.37520000338554382" ry="0.37520000338554382" stroke="none" fill="#000000" transform="matrix(-4.37114e-008 -1 1 -4.37114e-008 29.8727 11.2074)" />
			<ellipse cx="-0" cy="-6.0407197773456573" rx="0.37520000338554382" ry="0.37520000338554382" stroke="none" fill="#000000" transform="matrix(-4.37114e-008 -1 1 -4.37114e-008 29.8727 11.2074)" />
			<ellipse cx="5.2528001964092255" cy="6.0407201945781708" rx="0.37520000338554382" ry="0.37520000338554382" stroke="none" fill="#000000" transform="matrix(-4.37114e-008 -1 1 -4.37114e-008 29.8727 11.2074)" />
			<path d="M 50.4992 10.519 C 50.4992 11.3813, 50.4392 12.2386, 50.3191 13.0914, 50.199 13.9442, 49.9017 14.7449, 49.427 15.4922, 49.0881 16.0376, 48.6348 16.4561, 48.0676 16.749, 47.5009 17.0424, 46.8843 17.1888, 46.2183 17.1888, 45.5776 17.1888, 44.9716 17.0424, 44.4016 16.749, 43.8316 16.4561, 43.3765 16.0376, 43.0377 15.4922, 42.563 14.7449, 42.2656 13.9442, 42.1456 13.0914, 42.0255 12.2386, 41.9649 11.3813, 41.9649 10.519, 41.9649 9.64596, 42.0255 8.77352, 42.1456 7.90275, 42.2656 7.03199, 42.563 6.21677, 43.0377 5.45597, 43.3765 4.90613, 43.8299 4.47804, 44.3971 4.17283, 44.9643 3.86761, 45.5714 3.715, 46.2183 3.71444, 46.8781 3.715, 47.493 3.86761, 48.0631 4.17283, 48.6331 4.47804, 49.0881 4.90613, 49.427 5.45597, 49.9017 6.21677, 50.199 7.03199, 50.3191 7.90275, 50.4392 8.77352, 50.4992 9.64596, 50.4992 10.519 Z M 48.6685 10.2048 C 48.6685 9.82831, 48.6657 9.43052, 48.6595 9.0114, 48.6533 8.59285, 48.6376 8.18272, 48.6129 7.78156, 48.5882 7.38097, 48.5439 7.00225, 48.4788 6.64598, 48.4143 6.29027, 48.3358 5.98617, 48.2432 5.73426, 48.0586 5.32805, 47.7876 4.99422, 47.4296 4.73389, 47.0722 4.47355, 46.6683 4.34339, 46.2183 4.34283, 45.7807 4.34339, 45.3851 4.47524, 45.0305 4.73837, 44.676 5.00207, 44.4061 5.33366, 44.2209 5.73426, 44.1289 5.98617, 44.0504 6.29027, 43.9853 6.64598, 43.9208 7.00225, 43.8759 7.38097, 43.8512 7.78156, 43.8265 8.18272, 43.8114 8.59285, 43.8052 9.0114, 43.799 9.43052, 43.7957 9.82831, 43.7957 10.2048, 43.7957 10.6245, 43.799 11.066, 43.8052 11.5294, 43.8114 11.9934, 43.8265 12.4423, 43.8512 12.876, 43.8759 13.3102, 43.9208 13.7215, 43.9853 14.1103, 44.0504 14.4997, 44.1289 14.8257, 44.2209 15.0882, 44.3937 15.5259, 44.6608 15.8849, 45.021 16.166, 45.3818 16.4477, 45.7807 16.588, 46.2183 16.5874, 46.675 16.588, 47.0835 16.4477, 47.4437 16.166, 47.8044 15.8849, 48.0709 15.5259, 48.2432 15.0882, 48.3358 14.8257, 48.4143 14.4997, 48.4788 14.1103, 48.5439 13.7215, 48.5882 13.3102, 48.6129 12.876, 48.6376 12.4423, 48.6533 11.9934, 48.6595 11.5294, 48.6657 11.066, 48.6685 10.6245, 48.6685 10.2048 Z" stroke="none" fill="#000000" />
			<rect />
		</svg>
	</g>
	<path d="M -270.244 221.015 L 270.244 221.015" fill="none" stroke="#000000" stroke-width="4" stroke-linecap="round" stroke-linejoin="round" marker-end="url(#CustomMarker-04)" transform="matrix(0.333333 0 -0 0.333333 124.533 87.2858)" />
	<path d="M -270.244 221.015 L -270.244 -221.015" fill="none" stroke="#000000" stroke-width="4" stroke-linecap="round" stroke-linejoin="round" marker-end="url(#CustomMarker-05)" transform="matrix(0.333333 0 -0 0.333333 124.533 87.2858)" />
	<g transform="matrix(1 0 -0 1 11.5 11.5)">
		<svg width="33.1395264" height="41.7765884">
			<defs />
			<path d="M 9.59355 12.748 C 9.44928 13.2799, 9.23688 13.8054, 8.95692 14.3241, 8.67696 14.8434, 8.31342 15.3226, 7.86686 15.7617, 7.50217 16.1287, 7.08882 16.4355, 6.62623 16.6829, 6.16422 16.9302, 5.68445 17.0533, 5.18752 17.0533, 4.77874 17.0533, 4.44211 16.9405, 4.17761 16.7149, 3.91368 16.4894, 3.74708 16.3056, 3.67781 16.1647 L 2.89461 19.1693 C 2.85683 19.3221, 2.83507 19.4349, 2.82877 19.5082, 2.82877 19.5695, 2.84137 19.609, 2.86656 19.6273, 2.94213 19.6765, 3.08812 19.7069, 3.3051 19.7189, 3.52208 19.7315, 3.76597 19.7372, 4.0362 19.7372, 4.19994 19.7372, 4.2818 19.8168, 4.2818 19.9754 L 4.2818 20.0395, 4.24402 20.2135 C 4.17475 20.3967, 4.05223 20.4855, 3.8759 20.4792, 3.27247 20.4551, 2.67477 20.4368, 2.08337 20.4242 L 1.80971 20.4242 C 1.29445 20.4242, 0.77232 20.4425, 0.243321 20.4792, 0.0807282 20.4792, -0.00114071 20.4002, -0.00171322 20.241 L -0.00171322 20.1769, 0.0360724 20.0028 C 0.105919 19.8196, 0.228436 19.7315, 0.403624 19.7372, 0.624612 19.7372, 0.807243 19.7315, 0.951516 19.7189, 1.09579 19.7069, 1.19941 19.6794, 1.26239 19.6364, 1.32536 19.6061, 1.39178 19.4384, 1.46048 19.1326 L 3.64918 10.6686 C 3.74994 10.2725, 3.80032 9.93011, 3.80032 9.64271 L 3.80032 9.42287 C 3.76941 9.13032, 3.6217 8.98375, 3.3572 8.98318, 3.08011 8.98375, 2.84881 9.20703, 2.66332 9.65244, 2.47783 10.0984, 2.29749 10.6784, 2.12115 11.3923, 2.05188 11.5578, 1.93566 11.6431, 1.77192 11.6488 L 1.55494 11.6488 C 1.4038 11.6494, 1.32823 11.5732, 1.32823 11.4198 L 1.32823 11.3557 C 1.4038 11.0694, 1.4891 10.7562, 1.58357 10.4173, 1.67803 10.0784, 1.80398 9.75779, 1.96085 9.4555, 2.11829 9.15322, 2.31638 8.89673, 2.55512 8.68605, 2.79442 8.47536, 3.0927 8.37002, 3.45109 8.36945, 3.92971 8.37002, 4.31157 8.50628, 4.59783 8.77765, 4.88408 9.04959, 5.0524 9.32268, 5.10221 9.59691, 5.34782 9.31638, 5.67644 9.04215, 6.08865 8.77307, 6.50085 8.50456, 6.93596 8.37002, 7.39511 8.36945, 7.87946 8.37002, 8.29338 8.49712, 8.63574 8.75017, 8.97867 9.00379, 9.24432 9.31982, 9.43325 9.69767, 9.65996 10.15, 9.77904 10.6389, 9.79164 11.1633 L 9.79164 11.2915 C 9.79164 11.7621, 9.7258 12.2476, 9.59355 12.748 Z M 8.20636 9.96332 C 8.15025 9.67076, 8.04491 9.43432, 7.89033 9.25398, 7.73633 9.07421, 7.53366 8.98375, 7.28176 8.98318, 6.99264 8.98375, 6.69894 9.08165, 6.40009 9.27688, 6.10124 9.47268, 5.82586 9.71943, 5.57396 10.0183, 5.37931 10.269, 5.20927 10.5043, 5.06443 10.7236 L 4.02704 14.7266 C 4.05223 14.8554, 4.07627 14.9779, 4.09803 15.0936, 4.11978 15.2098, 4.14955 15.3226, 4.18734 15.4319, 4.2818 15.7319, 4.41863 15.9764, 4.59783 16.1653, 4.77703 16.3548, 5.01462 16.4493, 5.31003 16.4487, 5.57453 16.4493, 5.8356 16.352, 6.09323 16.1562, 6.35085 15.9609, 6.58673 15.7165, 6.80085 15.4228, 7.10313 15.014, 7.32927 14.5795, 7.48042 14.118, 7.63156 13.6572, 7.76953 13.1854, 7.89491 12.7022, 8.02087 12.2018, 8.13136 11.7198, 8.22525 11.2549, 8.26304 11.0356, 8.28193 10.8221, 8.28193 10.6137, 8.28193 10.3944, 8.25674 10.1774, 8.20636 9.96332 Z" stroke="none" fill="#000000" />
			<rect />
		</svg>
	</g>
	<g transform="matrix(1 0 -0 1 222.04 149.75)">
		<svg width="42.0378685" height="48.0957298">
			<defs />
			<path d="M 12.858 4.32066 C 12.8208 4.50444, 12.7074 4.59604, 12.5185 4.59547, 12.3176 4.59604, 12.1258 4.61894, 11.9431 4.66474, 11.7611 4.71054, 11.583 4.7884, 11.4101 4.89832, 11.2372 5.00825, 11.0786 5.14107, 10.9338 5.29679, 10.789 5.45251, 10.6567 5.62827, 10.537 5.82293 L 3.65892 17.0075 C 3.56503 17.1787, 3.42018 17.2611, 3.22496 17.2548 L 3.04576 17.2548 C 2.81332 17.2548, 2.69996 17.1575, 2.70626 16.9617 L 1.52689 5.26416 C 1.5017 5.10614, 1.47651 4.98248, 1.45132 4.89374, 1.42613 4.80558, 1.38834 4.7426, 1.33796 4.70539, 1.25037 4.6573, 1.11068 4.62695, 0.918313 4.61436, 0.726522 4.60234, 0.507824 4.59604, 0.26279 4.59547, 0.168325 4.59604, 0.0990518 4.56569, 0.0549685 4.50386, 0.0171829 4.4678, -0.00170994 4.422, -0.00170994 4.36646, -0.00170994 4.33039, 0.00802273 4.29662, 0.0269156 4.2657 L 0.0549685 4.1283 C 0.0744339 4.04929, 0.1168 3.98231, 0.182638 3.92735, 0.249049 3.87239, 0.329201 3.84491, 0.423092 3.84433, 1.02709 3.88155, 1.63739 3.89987, 2.25341 3.89929, 2.34787 3.89987, 2.44863 3.89357, 2.55512 3.88097, 3.28507 3.88155, 4.01502 3.86952, 4.7444 3.84433, 4.83256 3.84491, 4.911 3.87525, 4.98027 3.93593, 5.00546 3.98517, 5.01806 4.03097, 5.01806 4.07334, 5.01806 4.11055, 5.0089 4.14433, 4.98943 4.1741 L 4.96138 4.3115 C 4.94248 4.39738, 4.89668 4.46665, 4.82455 4.51818, 4.75241 4.57028, 4.67512 4.59604, 4.59325 4.59547, 4.37341 4.59604, 4.17189 4.6052, 3.98926 4.62352, 3.8072 4.64184, 3.628 4.6905, 3.45167 4.76951, 3.34518 4.82504, 3.2948 4.91664, 3.30053 5.04431 L 3.30053 5.10843 C 3.52094 6.73322, 3.69728 8.36544, 3.82895 10.0051, 3.9612 11.6448, 4.10261 13.1974, 4.25376 14.6625 L 9.82027 5.60308 C 9.90214 5.47541, 9.95252 5.34087, 9.97141 5.20004 L 9.97141 5.15423 C 9.97141 5.06321, 9.94965 4.98076, 9.905 4.90691, 9.76702 4.69966, 9.50939 4.59604, 9.13154 4.59547, 8.9678 4.59604, 8.88593 4.5136, 8.88593 4.34814 L 8.88593 4.28402, 8.92372 4.11914 C 8.99356 3.93651, 9.11608 3.84491, 9.29184 3.84433, 9.84546 3.86952, 10.4019 3.88155, 10.9619 3.88097, 11.0374 3.89357, 11.1101 3.89987, 11.1788 3.89929, 11.6569 3.89987, 12.1475 3.88155, 12.6508 3.84433, 12.8208 3.84491, 12.9118 3.92735, 12.9244 4.09166 L 12.9244 4.16494 Z" stroke="none" fill="#000000" />
			<rect />
		</svg>
	</g>
	<path d="M 0 134.831 L 0 -134.831" fill="none" stroke="#000000" stroke-width="4" stroke-linecap="round" stroke-linejoin="round" stroke-dasharray="14.02, 9.98" transform="matrix(0.333333 0 0 0.333333 64.4758 116.014)" />
	<ellipse cx="681.0303955078125" cy="557.71380615234375" rx="7.875" ry="7.875" stroke="none" fill="#000000" transform="matrix(0.333333 0 0 0.333333 -162.534 -114.834)" />
	<ellipse cx="1018.5303955078125" cy="557.71380615234375" rx="7.875" ry="7.875" stroke="none" fill="#000000" transform="matrix(0.333333 0 0 0.333333 -162.534 -114.834)" />
	<path d="M -168.75 7.08333 C -5.48099 170.352, 11.3256 -137.988, 141.163 -23.4386 L 168.75 5.41667" fill="none" stroke="#000000" stroke-width="4" stroke-linecap="round" stroke-linejoin="round" marker-end="url(#CustomMarker-06)" transform="matrix(0.333333 0 -0 0.333333 120.448 68.9373)" />
	<path d="M 0 134.831 L 0 -134.831" fill="none" stroke="#000000" stroke-width="4" stroke-linecap="round" stroke-linejoin="round" stroke-dasharray="14.02, 9.98" transform="matrix(0.333333 0 0 0.333333 176.976 116.014)" />
	<g transform="matrix(1 0 -0 1 95.1542 104.806)">
		<svg width="155.994003" height="48.0957298">
			<defs />
			<path d="M 17.8225 4.32066 C 17.7532 4.50444, 17.6336 4.59604, 17.4641 4.59547, 17.0868 4.59604, 16.7565 4.68764, 16.4737 4.87027, 16.2974 4.98706, 16.1434 5.12446, 16.0111 5.28305, 15.8794 5.44221, 15.7661 5.61568, 15.6716 5.80461 L 9.38945 16.9983 C 9.30758 17.1758, 9.16274 17.2611, 8.95549 17.2548 L 8.80435 17.2548 C 8.5845 17.2548, 8.47401 17.1575, 8.47401 16.9617 L 8.04978 7.66412, 2.82391 17.0075 C 2.73002 17.1787, 2.58518 17.2611, 2.38995 17.2548 L 2.21991 17.2548 C 2.04415 17.2548, 1.93423 17.1603, 1.89015 16.9708 L 1.35256 5.24584 C 1.33997 5.08153, 1.32623 4.95958, 1.3102 4.88, 1.29417 4.801, 1.26096 4.7426, 1.21058 4.70539, 1.13558 4.6573, 1.01478 4.62695, 0.847608 4.61436, 0.681008 4.60234, 0.481202 4.59604, 0.248763 4.59547, 0.0918951 4.59604, 0.00659117 4.5136, -0.00600407 4.34814 L -0.00600407 4.28402, 0.0317816 4.11914 C 0.101055 3.93651, 0.223572 3.84491, 0.399333 3.84433, 0.990735 3.88155, 1.5913 3.89987, 2.20102 3.89929, 2.29606 3.89987, 2.39338 3.89357, 2.49357 3.88097, 3.19833 3.88155, 3.91225 3.86952, 4.63476 3.84433, 4.7985 3.84491, 4.88037 3.92735, 4.88037 4.09166 L 4.88037 4.15578, 4.84258 4.32066 C 4.77388 4.50444, 4.65079 4.59604, 4.47446 4.59547, 4.24202 4.59604, 4.03477 4.6052, 3.85214 4.62352, 3.67008 4.64184, 3.49375 4.6905, 3.32371 4.76951, 3.17314 4.84966, 3.10101 4.96531, 3.10673 5.11759 L 3.53153 14.2594, 7.97421 6.29925, 7.93642 5.24584 C 7.92383 5.08153, 7.91009 4.95958, 7.89406 4.88, 7.8786 4.801, 7.84253 4.7426, 7.78585 4.70539, 7.71028 4.6573, 7.58776 4.62695, 7.41773 4.61436, 7.24827 4.60234, 7.05304 4.59604, 6.83262 4.59547, 6.73873 4.59604, 6.66946 4.56569, 6.62538 4.50386, 6.58759 4.4678, 6.5687 4.422, 6.5687 4.36646, 6.5687 4.33039, 6.57843 4.29662, 6.59732 4.2657 L 6.62538 4.1283 C 6.66316 3.93937, 6.78625 3.84491, 6.9935 3.84433, 7.58433 3.88155, 8.18203 3.89987, 8.78546 3.89929, 8.86732 3.89987, 8.96179 3.89357, 9.06828 3.88097, 9.77304 3.88155, 10.4835 3.86952, 11.2003 3.84433, 11.2885 3.84491, 11.364 3.87525, 11.427 3.93593, 11.4522 3.98517, 11.4642 4.03097, 11.4642 4.07334, 11.4642 4.11055, 11.4551 4.14433, 11.4362 4.1741 L 11.4081 4.3115 C 11.3892 4.39165, 11.3469 4.45864, 11.2805 4.5136, 11.2146 4.56856, 11.1379 4.59604, 11.0497 4.59547, 10.8299 4.59604, 10.6238 4.6052, 10.432 4.62352, 10.2402 4.64184, 10.0622 4.6905, 9.89841 4.76951, 9.76044 4.84966, 9.69117 4.9716, 9.69117 5.13591 L 10.0965 14.2594, 14.964 5.60308 C 15.0338 5.48171, 15.0682 5.37179, 15.0682 5.27332, 15.0682 5.15767, 15.0212 5.04489, 14.9262 4.93439, 14.8386 4.80672, 14.7144 4.71856, 14.5541 4.66932, 14.3938 4.62066, 14.2094 4.59604, 14.0022 4.59547, 13.9083 4.59604, 13.839 4.56569, 13.7943 4.50386, 13.7566 4.4678, 13.7377 4.422, 13.7377 4.36646, 13.7377 4.33039, 13.7474 4.29662, 13.7663 4.2657 L 13.7943 4.1283 C 13.8138 4.04929, 13.8562 3.98231, 13.922 3.92735, 13.9884 3.87239, 14.0651 3.84491, 14.1527 3.84433, 14.4739 3.85693, 14.798 3.86323, 15.1243 3.86265, 15.4455 3.86323, 15.7661 3.86952, 16.0867 3.88097 L 16.8412 3.88097 C 17.0994 3.88155, 17.3571 3.86952, 17.6147 3.84433, 17.7784 3.84491, 17.8603 3.92735, 17.8603 4.09166 L 17.8603 4.15578 Z" stroke="none" fill="#000000" />
			<polyline points="-5.2528 6.04072 0 -6.04072" fill="none" stroke="#000000" stroke-width="0.750400007" stroke-linecap="round" stroke-linejoin="round" transform="matrix(7.54979e-008 1 -1 7.54979e-008 29.8727 11.2074)" />
			<polyline points="0 -6.04072 5.2528 6.04072" fill="none" stroke="#000000" stroke-width="0.750400007" stroke-linecap="round" stroke-linejoin="round" transform="matrix(7.54979e-008 1 -1 7.54979e-008 29.8727 11.2074)" />
			<ellipse cx="-5.252799779176712" cy="6.0407201945781708" rx="0.37520000338554382" ry="0.37520000338554382" stroke="none" fill="#000000" transform="matrix(7.54979e-008 1 -1 7.54979e-008 29.8727 11.2074)" />
			<ellipse cx="-0" cy="-6.0407197773456573" rx="0.37520000338554382" ry="0.37520000338554382" stroke="none" fill="#000000" transform="matrix(7.54979e-008 1 -1 7.54979e-008 29.8727 11.2074)" />
			<ellipse cx="5.2528001964092255" cy="6.0407201945781708" rx="0.37520000338554382" ry="0.37520000338554382" stroke="none" fill="#000000" transform="matrix(7.54979e-008 1 -1 7.54979e-008 29.8727 11.2074)" />
			<path d="M 50.4992 10.519 C 50.4992 11.3813, 50.4392 12.2386, 50.3191 13.0914, 50.199 13.9442, 49.9017 14.7449, 49.427 15.4922, 49.0881 16.0376, 48.6348 16.4561, 48.0676 16.749, 47.5009 17.0424, 46.8843 17.1888, 46.2183 17.1888, 45.5776 17.1888, 44.9716 17.0424, 44.4016 16.749, 43.8316 16.4561, 43.3765 16.0376, 43.0377 15.4922, 42.563 14.7449, 42.2656 13.9442, 42.1456 13.0914, 42.0255 12.2386, 41.9649 11.3813, 41.9649 10.519, 41.9649 9.64596, 42.0255 8.77352, 42.1456 7.90275, 42.2656 7.03199, 42.563 6.21677, 43.0377 5.45597, 43.3765 4.90613, 43.8299 4.47804, 44.3971 4.17283, 44.9643 3.86761, 45.5714 3.715, 46.2183 3.71444, 46.8781 3.715, 47.493 3.86761, 48.0631 4.17283, 48.6331 4.47804, 49.0881 4.90613, 49.427 5.45597, 49.9017 6.21677, 50.199 7.03199, 50.3191 7.90275, 50.4392 8.77352, 50.4992 9.64596, 50.4992 10.519 Z M 48.6685 10.2048 C 48.6685 9.82831, 48.6657 9.43052, 48.6595 9.0114, 48.6533 8.59285, 48.6376 8.18272, 48.6129 7.78156, 48.5882 7.38097, 48.5439 7.00225, 48.4788 6.64598, 48.4143 6.29027, 48.3358 5.98617, 48.2432 5.73426, 48.0586 5.32805, 47.7876 4.99422, 47.4296 4.73389, 47.0722 4.47355, 46.6683 4.34339, 46.2183 4.34283, 45.7807 4.34339, 45.3851 4.47524, 45.0305 4.73837, 44.676 5.00207, 44.4061 5.33366, 44.2209 5.73426, 44.1289 5.98617, 44.0504 6.29027, 43.9853 6.64598, 43.9208 7.00225, 43.8759 7.38097, 43.8512 7.78156, 43.8265 8.18272, 43.8114 8.59285, 43.8052 9.0114, 43.799 9.43052, 43.7957 9.82831, 43.7957 10.2048, 43.7957 10.6245, 43.799 11.066, 43.8052 11.5294, 43.8114 11.9934, 43.8265 12.4423, 43.8512 12.876, 43.8759 13.3102, 43.9208 13.7215, 43.9853 14.1103, 44.0504 14.4997, 44.1289 14.8257, 44.2209 15.0882, 44.3937 15.5259, 44.6608 15.8849, 45.021 16.166, 45.3818 16.4477, 45.7807 16.588, 46.2183 16.5874, 46.675 16.588, 47.0835 16.4477, 47.4437 16.166, 47.8044 15.8849, 48.0709 15.5259, 48.2432 15.0882, 48.3358 14.8257, 48.4143 14.4997, 48.4788 14.1103, 48.5439 13.7215, 48.5882 13.3102, 48.6129 12.876, 48.6376 12.4423, 48.6533 11.9934, 48.6595 11.5294, 48.6657 11.066, 48.6685 10.6245, 48.6685 10.2048 Z" stroke="none" fill="#000000" />
			<rect />
		</svg>
	</g>
</svg>
