<svg width="574" height="490" xmlns="http://www.w3.org/2000/svg" xmlns:xlink="http://www.w3.org/1999/xlink" xml:space="preserve" overflow="hidden"><defs><clipPath id="clip0"><rect x="1910" y="1028" width="574" height="490"/></clipPath></defs><g clip-path="url(#clip0)" transform="translate(-1910 -1028)"><path d="M-3.4375-3.4375 462.063-3.43714 462.063 3.43786-3.4375 3.4375ZM436.296-19.0106 468.886 0.000359655 436.296 19.0112C434.656 19.9678 432.551 19.4139 431.594 17.7741 430.638 16.1342 431.192 14.0293 432.832 13.0728L460.332-2.96889 460.332 2.96959 432.832-13.0721C431.192-14.0287 430.638-16.1335 431.594-17.7734 432.551-19.4133 434.656-19.9672 436.296-19.0106Z" transform="matrix(1 0 0 -1 1976.5 1467.5)"/><path d="M3.4375-3.4375 3.43786 395.856-3.43714 395.856-3.4375-3.4375ZM19.0112 370.089 0.000360677 402.679-19.0106 370.089C-19.9672 368.449-19.4133 366.344-17.7734 365.388-16.1335 364.431-14.0287 364.985-13.0721 366.625L2.96959 394.125-2.96889 394.125 13.0728 366.625C14.0293 364.985 16.1342 364.431 17.7741 365.388 19.4139 366.344 19.9678 368.449 19.0112 370.089Z" transform="matrix(1 0 0 -1 1976.5 1466.16)"/><path d="M0 0 406.961 326.946" stroke="#000000" stroke-width="6.875" stroke-miterlimit="8" fill="none" fill-rule="evenodd" transform="matrix(1 0 0 -1 1976.5 1466.45)"/><path d="M2476.53 1445C2477.17 1445.05 2477.73 1445.27 2478.19 1445.65 2478.66 1446.04 2478.9 1446.54 2478.9 1447.17 2478.9 1447.74 2478.43 1449.79 2477.49 1453.3 2477.29 1454.12 2477.06 1455.03 2476.79 1456.01 2476.52 1457 2476.31 1457.73 2476.16 1458.22L2476.01 1458.94C2476.01 1459.03 2477.25 1459.08 2479.71 1459.08L2483.48 1459.08C2483.83 1459.42 2484 1459.68 2484 1459.88 2484 1460.94 2483.68 1461.78 2483.04 1462.4L2475.13 1462.4 2472.46 1472.87C2470.64 1480.05 2469.7 1483.83 2469.65 1484.21 2469.6 1484.45 2469.58 1484.81 2469.58 1485.3 2469.58 1487.32 2470.24 1488.33 2471.58 1488.33 2471.92 1488.33 2472.22 1488.3 2472.46 1488.26 2474.93 1487.82 2477.17 1485.9 2479.19 1482.48 2479.69 1481.71 2480.13 1480.82 2480.52 1479.81 2480.62 1479.52 2480.75 1479.34 2480.89 1479.27 2481.04 1479.19 2481.41 1479.16 2482 1479.16 2482.99 1479.16 2483.48 1479.35 2483.48 1479.73 2483.48 1479.83 2483.38 1480.12 2483.19 1480.6 2482.64 1482.14 2481.77 1483.69 2480.56 1485.26 2479.35 1486.82 2478.13 1488.06 2476.9 1488.98 2475.08 1490.33 2473.13 1491 2471.06 1491 2469.28 1491 2467.77 1490.55 2466.51 1489.66 2465.25 1488.77 2464.4 1487.61 2463.96 1486.16 2463.86 1485.78 2463.81 1485.13 2463.81 1484.21L2463.81 1482.91 2466.4 1472.8C2468.12 1466.01 2469.01 1462.6 2469.06 1462.55 2469.06 1462.45 2467.8 1462.4 2465.29 1462.4L2461.52 1462.4C2461.17 1462.07 2461 1461.83 2461 1461.68 2461 1461.49 2461.09 1461.09 2461.26 1460.49 2461.43 1459.89 2461.54 1459.56 2461.59 1459.52 2461.69 1459.27 2461.92 1459.14 2462.29 1459.12 2462.66 1459.09 2463.91 1459.08 2466.03 1459.08L2469.95 1459.08 2471.35 1453.3C2472.39 1449.41 2472.98 1447.31 2473.13 1447.02 2473.72 1445.67 2474.85 1445 2476.53 1445Z" fill-rule="evenodd"/><path d="M1928.22 1070C1932.99 1070 1935.87 1071.66 1936.85 1074.96 1936.95 1075.21 1937 1075.67 1937 1076.35 1937 1077.71 1936.63 1078.82 1935.89 1079.67 1935.16 1080.53 1934.17 1080.95 1932.94 1080.95 1932.16 1080.95 1931.52 1080.73 1931.02 1080.29 1930.53 1079.86 1930.29 1079.25 1930.29 1078.47 1930.29 1076.86 1931.02 1075.69 1932.5 1074.96 1932.89 1074.77 1933.11 1074.67 1933.16 1074.67 1933.31 1074.67 1933.29 1074.55 1933.09 1074.31 1931.91 1073.24 1930.21 1072.7 1928 1072.7 1926.08 1072.7 1924.46 1073.24 1923.13 1074.31 1921.8 1075.38 1921.14 1076.77 1921.14 1078.47 1921.14 1079.35 1921.51 1080.12 1922.25 1080.81 1922.74 1081.24 1923.99 1081.68 1926.01 1082.12 1928.27 1082.61 1929.75 1083.02 1930.43 1083.36 1932.75 1084.38 1934.29 1086.09 1935.08 1088.47 1935.18 1088.76 1935.25 1089.4 1935.3 1090.37 1935.3 1092.02 1934.89 1093.75 1934.05 1095.55 1931.64 1100.52 1927.11 1103 1920.48 1103 1915.21 1103 1911.89 1101.49 1910.52 1098.47 1910.17 1097.74 1910 1096.89 1910 1095.92 1910 1094.41 1910.45 1093.14 1911.36 1092.12 1912.27 1091.1 1913.42 1090.59 1914.79 1090.59 1915.73 1090.59 1916.48 1090.86 1917.04 1091.39 1917.61 1091.93 1917.89 1092.63 1917.89 1093.51 1917.89 1094.34 1917.66 1095.14 1917.19 1095.92 1916.73 1096.7 1916.1 1097.28 1915.31 1097.67 1914.67 1097.91 1914.33 1098.04 1914.28 1098.04 1914.18 1098.08 1914.09 1098.12 1914.02 1098.15 1913.95 1098.17 1913.93 1098.21 1913.98 1098.25 1914.13 1098.5 1914.57 1098.81 1915.31 1099.2 1916.74 1099.93 1918.61 1100.3 1920.92 1100.3 1924.66 1100.3 1927.29 1099.11 1928.81 1096.72 1929.55 1095.5 1929.92 1094.39 1929.92 1093.36 1929.92 1091.81 1929.11 1090.64 1927.48 1089.86 1927.04 1089.57 1925.81 1089.23 1923.79 1088.84 1923.55 1088.79 1923.17 1088.7 1922.65 1088.58 1922.14 1088.46 1921.79 1088.39 1921.62 1088.36 1921.45 1088.34 1921.2 1088.28 1920.88 1088.18 1920.56 1088.08 1920.32 1088 1920.14 1087.92 1919.97 1087.85 1919.77 1087.75 1919.55 1087.63 1919.33 1087.51 1919.07 1087.35 1918.78 1087.16 1916.76 1085.75 1915.75 1083.75 1915.75 1081.17 1915.75 1078.44 1916.76 1075.99 1918.78 1073.8 1921.04 1071.27 1924.19 1070 1928.22 1070Z" fill-rule="evenodd"/><path d="M1944.84 1480.15C1944.09 1480.15 1943.43 1480.22 1942.86 1480.37 1940.64 1480.77 1938.55 1481.8 1936.59 1483.45 1935.76 1484.12 1934.78 1485.13 1933.64 1486.48 1931.99 1488.65 1930.6 1491.43 1929.45 1494.83 1928.31 1498.23 1927.74 1501.58 1927.74 1504.89 1927.74 1507.53 1928.25 1509.77 1929.27 1511.61 1930.28 1513.45 1931.71 1514.68 1933.53 1515.3 1934.46 1515.59 1935.33 1515.74 1936.16 1515.74 1938.34 1515.74 1940.48 1515.04 1942.59 1513.65 1946.85 1510.78 1949.96 1506.08 1951.92 1499.54 1952.96 1496.05 1953.48 1493.06 1953.48 1490.56 1953.48 1487.77 1952.86 1485.47 1951.63 1483.67 1950.39 1481.88 1948.69 1480.75 1946.51 1480.31 1946.04 1480.2 1945.49 1480.15 1944.84 1480.15ZM1943.93 1478 1944.84 1478C1946.2 1478 1947.06 1478.02 1947.42 1478.06 1950.92 1478.57 1953.73 1480.15 1955.84 1482.79 1957.95 1485.44 1959 1488.78 1959 1492.82 1959 1497.78 1957.45 1502.48 1954.33 1506.93 1952.3 1509.94 1949.83 1512.38 1946.93 1514.25 1943.18 1516.75 1939.41 1518 1935.62 1518 1931.8 1518 1928.61 1516.75 1926.08 1514.25 1923.36 1511.54 1922 1507.9 1922 1503.34 1922 1502.06 1922.02 1501.23 1922.05 1500.87 1922.7 1495.83 1924.77 1491.2 1928.27 1486.98 1929.27 1485.81 1930.35 1484.7 1931.49 1483.67 1935.46 1480.3 1939.61 1478.4 1943.93 1478Z" fill-rule="evenodd"/></g></svg>