<svg width="539" height="455" xmlns="http://www.w3.org/2000/svg" xmlns:xlink="http://www.w3.org/1999/xlink" xml:space="preserve" overflow="hidden"><defs><clipPath id="clip0"><rect x="1403" y="1330" width="539" height="455"/></clipPath></defs><g clip-path="url(#clip0)" transform="translate(-1403 -1330)"><path d="M1934.86 1722C1935.47 1722.05 1936 1722.26 1936.45 1722.65 1936.89 1723.03 1937.12 1723.54 1937.12 1724.17 1937.12 1724.74 1936.67 1726.79 1935.77 1730.3 1935.59 1731.12 1935.36 1732.03 1935.1 1733.01 1934.84 1734 1934.64 1734.73 1934.5 1735.22L1934.36 1735.94C1934.36 1736.03 1935.54 1736.08 1937.9 1736.08L1941.5 1736.08C1941.84 1736.42 1942 1736.68 1942 1736.88 1942 1737.94 1941.69 1738.78 1941.08 1739.4L1933.51 1739.4 1930.96 1749.87C1929.22 1757.05 1928.32 1760.83 1928.28 1761.21 1928.23 1761.45 1928.21 1761.81 1928.21 1762.3 1928.21 1764.32 1928.84 1765.33 1930.12 1765.33 1930.45 1765.33 1930.73 1765.3 1930.96 1765.26 1933.32 1764.82 1935.47 1762.9 1937.4 1759.48 1937.87 1758.71 1938.3 1757.82 1938.68 1756.81 1938.77 1756.52 1938.89 1756.34 1939.03 1756.27 1939.17 1756.19 1939.52 1756.16 1940.09 1756.16 1941.03 1756.16 1941.5 1756.35 1941.5 1756.73 1941.5 1756.83 1941.41 1757.12 1941.22 1757.6 1940.7 1759.14 1939.87 1760.69 1938.71 1762.26 1937.56 1763.82 1936.39 1765.06 1935.21 1765.98 1933.46 1767.33 1931.6 1768 1929.62 1768 1927.92 1768 1926.47 1767.55 1925.27 1766.66 1924.07 1765.77 1923.25 1764.61 1922.83 1763.16 1922.74 1762.78 1922.69 1762.13 1922.69 1761.21L1922.69 1759.91 1925.16 1749.8C1926.81 1743.01 1927.66 1739.6 1927.71 1739.55 1927.71 1739.45 1926.51 1739.4 1924.1 1739.4L1920.49 1739.4C1920.16 1739.07 1920 1738.83 1920 1738.68 1920 1738.49 1920.08 1738.09 1920.25 1737.49 1920.41 1736.89 1920.52 1736.56 1920.57 1736.52 1920.66 1736.27 1920.88 1736.14 1921.24 1736.12 1921.59 1736.09 1922.78 1736.08 1924.81 1736.08L1928.56 1736.08 1929.9 1730.3C1930.89 1726.41 1931.46 1724.31 1931.6 1724.02 1932.17 1722.67 1933.25 1722 1934.86 1722Z" fill-rule="evenodd"/><path d="M1442.46 1747.15C1441.69 1747.15 1441.01 1747.22 1440.42 1747.37 1438.15 1747.77 1436 1748.8 1433.98 1750.45 1433.14 1751.12 1432.13 1752.13 1430.95 1753.48 1429.26 1755.65 1427.83 1758.43 1426.66 1761.83 1425.48 1765.23 1424.89 1768.58 1424.89 1771.89 1424.89 1774.53 1425.42 1776.77 1426.46 1778.61 1427.51 1780.45 1428.97 1781.68 1430.84 1782.3 1431.8 1782.59 1432.69 1782.74 1433.54 1782.74 1435.78 1782.74 1437.98 1782.04 1440.15 1780.65 1444.52 1777.78 1447.71 1773.08 1449.73 1766.54 1450.8 1763.05 1451.33 1760.06 1451.33 1757.56 1451.33 1754.77 1450.69 1752.47 1449.43 1750.67 1448.16 1748.87 1446.41 1747.75 1444.17 1747.31 1443.69 1747.2 1443.12 1747.15 1442.46 1747.15ZM1441.52 1745 1442.46 1745C1443.86 1745 1444.74 1745.02 1445.1 1745.05 1448.7 1745.57 1451.58 1747.15 1453.75 1749.79 1455.92 1752.44 1457 1755.78 1457 1759.82 1457 1764.78 1455.4 1769.48 1452.21 1773.93 1450.12 1776.94 1447.58 1779.38 1444.61 1781.25 1440.75 1783.75 1436.88 1785 1432.99 1785 1429.06 1785 1425.79 1783.75 1423.19 1781.25 1420.4 1778.54 1419 1774.9 1419 1770.34 1419 1769.06 1419.02 1768.23 1419.06 1767.87 1419.72 1762.83 1421.85 1758.2 1425.44 1753.98 1426.47 1752.81 1427.57 1751.7 1428.75 1750.67 1432.82 1747.3 1437.08 1745.4 1441.52 1745Z" fill-rule="evenodd"/><path d="M-3.4375-3.4375 420.766-3.43714 420.766 3.43786-3.4375 3.4375ZM394.998-19.0106 427.588 0.00035962 394.998 19.0112C393.358 19.9678 391.253 19.4139 390.297 17.7741 389.34 16.1342 389.894 14.0293 391.534 13.0728L419.034-2.96889 419.034 2.96959 391.534-13.0721C389.894-14.0287 389.34-16.1335 390.297-17.7734 391.253-19.4133 393.358-19.9672 394.998-19.0106Z" transform="matrix(1 0 0 -1 1473.5 1746.5)"/><path d="M3.4375-3.4375 3.43785 372.596-3.43715 372.596-3.4375-3.4375ZM19.0112 346.828 0.000360303 379.418-19.0106 346.828C-19.9672 345.189-19.4133 343.084-17.7734 342.127-16.1335 341.171-14.0287 341.724-13.0721 343.364L2.96959 370.864-2.96889 370.864 13.0728 343.364C14.0293 341.724 16.1342 341.17 17.7741 342.127 19.4139 343.084 19.9678 345.189 19.0112 346.828Z" transform="matrix(1 0 0 -1 1473.5 1744.9)"/><path d="M1473.5 1541.5 1818.05 1541.5" stroke="#000000" stroke-width="6.875" stroke-miterlimit="8" fill="none" fill-rule="evenodd"/><path d="M1430.52 1398C1431.64 1398 1432.49 1398.53 1433.1 1399.59 1433.7 1400.64 1434 1401.9 1434 1403.36 1434 1405 1433.54 1407.7 1432.61 1411.46 1431.73 1415.08 1430.62 1418.23 1429.27 1420.91 1426.35 1426.97 1422.69 1430 1418.29 1430 1415.33 1430 1412.97 1429.24 1411.24 1427.71 1409.5 1426.18 1408.63 1423.94 1408.63 1420.98 1408.63 1420.13 1408.68 1419.33 1408.77 1418.58 1409.19 1416.33 1410.28 1412.87 1412.04 1408.22L1413.15 1404.84C1413.43 1403.99 1413.56 1403.19 1413.56 1402.44 1413.56 1401.27 1413.12 1400.68 1412.24 1400.68 1411.92 1400.68 1411.55 1400.75 1411.13 1400.89 1408.77 1401.74 1406.98 1404.44 1405.78 1409 1405.78 1409.04 1405.76 1409.12 1405.71 1409.24 1405.66 1409.36 1405.63 1409.43 1405.61 1409.45 1405.58 1409.48 1405.55 1409.51 1405.5 1409.56 1405.46 1409.61 1405.37 1409.63 1405.26 1409.63 1405.14 1409.63 1405.04 1409.63 1404.95 1409.63 1404.85 1409.63 1404.67 1409.63 1404.39 1409.63L1403.42 1409.63C1403.14 1409.35 1403 1409.14 1403 1409 1403 1408.85 1403.07 1408.5 1403.21 1407.94 1404.32 1404.23 1406.04 1401.45 1408.35 1399.62 1409.6 1398.63 1411.04 1398.14 1412.66 1398.14 1414.47 1398.14 1415.95 1398.66 1417.11 1399.69 1418.27 1400.73 1418.85 1402.09 1418.85 1403.78 1418.85 1404.58 1418.78 1405.19 1418.64 1405.61 1418.64 1405.94 1418.29 1406.98 1417.6 1408.71 1415.46 1414.59 1414.33 1418.77 1414.19 1421.26 1414.19 1422.53 1414.31 1423.56 1414.54 1424.36 1415.14 1426.38 1416.6 1427.39 1418.92 1427.39 1420.17 1427.39 1421.28 1427.02 1422.25 1426.26 1425.13 1424.34 1427.51 1419.9 1429.41 1412.94 1429.78 1411.63 1429.97 1410.55 1429.97 1409.7 1429.97 1407.63 1429.07 1405.78 1427.26 1404.13 1426.66 1403.57 1426.35 1402.93 1426.35 1402.23 1426.35 1401.15 1426.78 1400.17 1427.64 1399.3 1428.5 1398.43 1429.46 1398 1430.52 1398Z" fill-rule="evenodd"/></g></svg>