<?xml version="1.0"?>
<svg xmlns="http://www.w3.org/2000/svg" xmlns:xlink="http://www.w3.org/1999/xlink" width="570.688049" height="129.663467">
	<defs>
		<marker id="CustomMarker-01" markerUnits="strokeWidth" markerWidth="21" markerHeight="9" viewBox="-21 -4.5 21 9" orient="auto-start-reverse">
			<path d="M 0 -0 L -14 -3, -14 -0.5, -14 0.5, -14 3 Z" fill="#000000" stroke="#000000" stroke-linejoin="round" />
		</marker>
		<marker id="CustomMarker-02" markerUnits="strokeWidth" markerWidth="21" markerHeight="9" viewBox="-21 -4.5 21 9" orient="auto-start-reverse">
			<path d="M 0 -0 L -14 -3, -14 -0.5, -14 0.5, -14 3 Z" fill="#000000" stroke="#000000" stroke-linejoin="round" />
		</marker>
		<marker id="CustomMarker-03" markerUnits="strokeWidth" markerWidth="21" markerHeight="9" viewBox="-21 -4.5 21 9" orient="auto-start-reverse">
			<path d="M 0 -0 L -14 -3, -14 -0.5, -14 0.5, -14 3 Z" fill="#000000" stroke="#000000" stroke-linejoin="round" />
		</marker>
		<marker id="CustomMarker-04" markerUnits="strokeWidth" markerWidth="21" markerHeight="9" viewBox="-21 -4.5 21 9" orient="auto-start-reverse">
			<path d="M 0 -0 L -14 -3, -14 -0.5, -14 0.5, -14 3 Z" fill="#000000" stroke="#000000" stroke-linejoin="round" />
		</marker>
		<marker id="CustomMarker-05" markerUnits="strokeWidth" markerWidth="21" markerHeight="9" viewBox="-21 -4.5 21 9" orient="auto-start-reverse">
			<path d="M 0 -0 L -14 -3, -14 -0.5, -14 0.5, -14 3 Z" fill="#000000" stroke="#000000" stroke-linejoin="round" />
		</marker>
		<marker id="CustomMarker-06" markerUnits="strokeWidth" markerWidth="21" markerHeight="9" viewBox="-21 -4.5 21 9" orient="auto-start-reverse">
			<path d="M 0 -0 L -14 -3, -14 -0.5, -14 0.5, -14 3 Z" fill="#000000" stroke="#000000" stroke-linejoin="round" />
		</marker>
	</defs>
	<path d="M -664.426 -47.4381 L 664.426 -47.4381, 664.426 47.4381, -664.426 47.4381 Z" fill="none" stroke="#000000" stroke-opacity="0.498039186" stroke-width="2.4000001" stroke-linecap="round" stroke-linejoin="round" stroke-dasharray="8.412, 5.988" transform="matrix(0.416667 0 -0 0.416667 285.344 64.8317)" />
	<rect x="-175.797272" y="-47.4381104" width="351.594543" height="94.8762207" stroke="none" fill="#DB7C00" fill-opacity="0.392156839" transform="matrix(0.416667 0 -0 0.416667 165.117 64.8317)" />
	<g transform="matrix(1 0 -0 1 160.819 53.6242)">
		<svg width="30.0150681" height="47.9999886">
			<defs />
			<path d="M 8.50734 12.7632 C 8.50734 13.386, 8.41532 13.9442, 8.23017 14.438, 8.04559 14.9317, 7.73139 15.4181, 7.28703 15.8962, 6.84941 16.3456, 6.40112 16.6732, 5.94161 16.8791, 5.48267 17.0856, 4.92946 17.1888, 4.282 17.1888, 3.62275 17.1888, 3.01849 17.0261, 2.46978 16.6996, 1.92106 16.3742, 1.48343 15.9326, 1.1569 15.3755, 0.694584 14.6158, 0.400589 13.8141, 0.27379 12.9702, 0.147551 12.1264, 0.0841516 11.2854, 0.0841516 10.4472, 0.0841516 9.61005, 0.205901 8.78586, 0.449401 7.97457, 0.692901 7.16384, 1.08284 6.41426, 1.61921 5.72528, 2.06918 5.13953, 2.6179 4.65758, 3.26536 4.28055, 3.91282 3.90352, 4.62425 3.715, 5.40075 3.71444, 6.14696 3.715, 6.76637 3.90689, 7.25954 4.28953, 7.75271 4.67273, 7.99902 5.22313, 7.99902 5.94073, 7.99902 6.27624, 7.89747 6.52479, 7.6938 6.68637, 7.4907 6.84796, 7.25618 6.92875, 6.99136 6.92819, 6.73888 6.92875, 6.51221 6.84796, 6.31191 6.68637, 6.11161 6.52479, 6.01118 6.27624, 6.01118 5.94073, 6.01118 5.58221, 6.14359 5.3129, 6.40841 5.1328, 6.58122 5.02564, 6.77591 4.97178, 6.99136 4.97122, 7.05924 4.97178, 7.06822 4.96897, 7.01885 4.96224, 6.93244 4.83095, 6.74337 4.70135, 6.45049 4.5723, 6.15762 4.44382, 5.80808 4.3793, 5.40075 4.37874, 4.85204 4.3793, 4.35886 4.54257, 3.92124 4.86854, 3.48361 5.19508, 3.11387 5.60297, 2.81202 6.09333, 2.45463 6.71611, 2.23862 7.39443, 2.16456 8.12718, 2.0905 8.86048, 2.0473 9.4451, 2.03496 9.88161, 2.14605 9.62464, 2.41311 9.30933, 2.83503 8.9351, 3.2575 8.56143, 3.79219 8.37404, 4.4391 8.37348, 5.0557 8.37404, 5.58758 8.47728, 6.03419 8.68375, 6.48135 8.89022, 6.91112 9.2117, 7.32406 9.64821, 7.75608 10.1274, 8.0613 10.6093, 8.23971 11.0941, 8.41813 11.5788, 8.50734 12.1354, 8.50734 12.7632 Z M 6.53802 12.7632 C 6.53802 12.1892, 6.5195 11.6731, 6.48247 11.2152, 6.44544 10.7574, 6.32257 10.3551, 6.11274 10.0073, 5.89729 9.65494, 5.65659 9.39461, 5.39177 9.22685, 5.12695 9.05966, 4.80322 8.9755, 4.42058 8.97494, 4.00764 8.9755, 3.65473 9.08041, 3.36186 9.28969, 3.06899 9.49953, 2.821 9.77445, 2.6179 10.1156, 2.41479 10.4567, 2.26948 10.8545, 2.18308 11.3089, 2.12136 11.6209, 2.0905 11.953, 2.0905 12.3054, 2.0905 12.4434, 2.09667 12.5904, 2.10902 12.7453 L 2.10902 12.8171 C 2.1337 13.2665, 2.16793 13.6856, 2.21113 14.0744, 2.25433 14.4638, 2.32222 14.7808, 2.41423 15.0254, 2.58704 15.4569, 2.8412 15.807, 3.17727 16.0763, 3.51335 16.3456, 3.8814 16.4802, 4.282 16.4797, 4.69494 16.4802, 5.04336 16.4011, 5.32669 16.2423, 5.61059 16.0841, 5.86026 15.8277, 6.07571 15.4742, 6.29789 15.1219, 6.4303 14.7224, 6.4735 14.2764, 6.5167 13.8309, 6.53802 13.3265, 6.53802 12.7632 Z" stroke="none" fill="#000000" />
			<rect />
		</svg>
	</g>
	<rect x="-232.170898" y="-47.4380493" width="464.341797" height="94.8760986" stroke="none" fill="#0074FF" fill-opacity="0.392156839" transform="matrix(0.416667 0 -0 0.416667 382.082 64.8318)" />
	<g transform="matrix(1 0 -0 1 377.784 53.6243)">
		<svg width="30.0150681" height="47.9999886">
			<defs />
			<path d="M 8.50734 13.4455 C 8.50734 13.9846, 8.39344 14.4801, 8.16565 14.9317, 7.93786 15.3839, 7.62928 15.78, 7.24103 16.1212, 6.85277 16.4623, 6.40561 16.7254, 5.90009 16.9106, 5.39514 17.0963, 4.8554 17.1888, 4.282 17.1888, 3.74002 17.1888, 3.21879 17.1114, 2.71945 16.9554, 2.2201 16.8, 1.77631 16.5762, 1.38805 16.2827, 0.999801 15.9899, 0.685607 15.6308, 0.444913 15.2055, 0.204779 14.7808, 0.0841516 14.3078, 0.0841516 13.7866, 0.0841516 13.3445, 0.161578 12.9422, 0.315308 12.5797, 0.469599 12.2179, 0.682241 11.8874, 0.953233 11.5878, 1.22479 11.2887, 1.5373 11.0166, 1.89189 10.7709, 2.24647 10.5257, 2.57189 10.3338, 2.86757 10.1958 L 2.21057 9.78286 C 1.7303 9.48438, 1.34317 9.09556, 1.0503 8.61642, 0.757423 8.13784, 0.610986 7.61381, 0.610986 7.04489, 0.610986 6.56687, 0.713099 6.12531, 0.916203 5.72135, 1.11987 5.31739, 1.38974 4.96729, 1.72525 4.67105, 2.06133 4.37481, 2.45294 4.14141, 2.89955 3.97085, 3.34671 3.80028, 3.80734 3.715, 4.282 3.71444, 4.75048 3.715, 5.20382 3.78401, 5.64145 3.92147, 6.07907 4.05949, 6.4735 4.25699, 6.82472 4.51395, 7.17594 4.77148, 7.45367 5.08399, 7.65677 5.45204, 7.86044 5.8201, 7.96199 6.22855, 7.96199 6.67684, 7.96199 7.04265, 7.89298 7.3776, 7.75384 7.68282, 7.61525 7.98803, 7.43628 8.26968, 7.21746 8.52665, 6.99865 8.78418, 6.73832 9.01309, 6.43647 9.21339, 6.13462 9.41425, 5.86924 9.57078, 5.64145 9.68412 L 6.69512 10.3574 C 7.23822 10.6929, 7.67585 11.13, 8.00856 11.6686, 8.34126 12.2072, 8.50734 12.7997, 8.50734 13.4455 Z M 6.88027 6.67684 C 6.88027 6.3604, 6.81126 6.05967, 6.67211 5.77521, 6.53353 5.49132, 6.34558 5.24726, 6.10825 5.04359, 5.87092 4.84049, 5.59656 4.6789, 5.28517 4.55884, 4.97435 4.43933, 4.63996 4.3793, 4.282 4.37874, 3.94312 4.3793, 3.61827 4.42587, 3.30688 4.51844, 2.99549 4.61158, 2.72113 4.74455, 2.4838 4.91791, 2.24647 5.09184, 2.05852 5.29831, 1.91994 5.53732, 1.78136 5.7769, 1.71179 6.03386, 1.71179 6.30878, 1.71179 6.62073, 1.79538 6.90519, 1.96146 7.16215, 2.12753 7.41968, 2.34971 7.63176, 2.62687 7.79895 L 5.00296 9.28913 C 5.52699 9.0086, 5.97135 8.64784, 6.33492 8.20797, 6.69848 7.7681, 6.88027 7.25809, 6.88027 6.67684 Z M 7.31453 14.1187 C 7.31453 13.7484, 7.21297 13.4, 7.00987 13.0735, 6.80677 12.7475, 6.53241 12.4827, 6.1868 12.2785 L 3.49595 10.6087 C 2.87374 10.9145, 2.34522 11.3454, 1.9104 11.902, 1.47614 12.4586, 1.25845 13.0869, 1.25845 13.7866, 1.25845 14.1524, 1.34036 14.5025, 1.50363 14.8374, 1.66746 15.173, 1.88627 15.4613, 2.16007 15.7037, 2.43443 15.9461, 2.75648 16.1363, 3.12622 16.2738, 3.49652 16.4118, 3.8814 16.4802, 4.282 16.4797, 4.68933 16.4802, 5.07758 16.4208, 5.44732 16.3007, 5.81706 16.1812, 6.14191 16.0168, 6.42244 15.807, 6.70297 15.5977, 6.92178 15.3508, 7.07888 15.0664, 7.23598 14.7825, 7.31453 14.4666, 7.31453 14.1187 Z" stroke="none" fill="#000000" />
			<rect />
		</svg>
	</g>
	<rect x="-56.3735657" y="-47.4381104" width="112.747131" height="94.8762207" stroke="none" fill="#DB7C00" fill-opacity="0.392156839" transform="matrix(0.416667 0 -0 0.416667 261.855 64.8317)" />
	<path d="M 0 -47.4381 L 0 47.438" fill="none" stroke="#000000" stroke-width="1.20000005" stroke-linecap="round" stroke-linejoin="round" stroke-dasharray="4.206, 2.994" transform="matrix(0.416667 0 0 0.416667 238.366 64.8317)" />
	<path d="M -232.171 0 L 232.171 0" fill="none" stroke="#000000" stroke-width="5.5999999" stroke-linecap="round" stroke-linejoin="round" transform="matrix(0.416667 0 0 0.416667 188.606 84.5976)" />
	<path d="M -232.171 0 L 232.171 0" fill="none" stroke="#000000" stroke-width="5.5999999" stroke-linecap="round" stroke-linejoin="round" transform="matrix(0.416667 0 0 0.416667 382.082 45.0658)" />
	<path d="M 0 47.438 L 0 -47.4382" fill="none" stroke="#000000" stroke-width="5.5999999" stroke-linecap="round" stroke-linejoin="round" transform="matrix(0.416667 0 0 0.416667 285.344 64.8317)" />
	<path d="M -175.797 21.5151 L 175.797 21.5151" fill="none" stroke="#000000" stroke-width="1.80000007" stroke-linecap="round" stroke-linejoin="round" marker-start="url(#CustomMarker-01)" marker-end="url(#CustomMarker-02)" transform="matrix(0.416667 0 -0 0.416667 165.117 26.7829)" />
	<path d="M -175.797 -43.879 L -175.797 43.879" fill="none" stroke="#000000" stroke-width="1.20000005" stroke-linecap="round" stroke-linejoin="round" transform="matrix(0.416667 0 -0 0.416667 165.117 26.7829)" />
	<path d="M 175.797 -43.879 L 175.797 43.879" fill="none" stroke="#000000" stroke-width="1.20000005" stroke-linecap="round" stroke-linejoin="round" transform="matrix(0.416667 0 -0 0.416667 165.117 26.7829)" />
	<g transform="matrix(1 0 -0 1 132.385 11.8818)">
		<svg width="198.023071" height="51.0856972">
			<defs />
			<path d="M 1.21034 16.3005 L 0.482105 15.1306 C 1.36148 14.1364, 2.05144 13.3826, 2.55246 12.8693 L 2.55246 7.96996, 0.668089 7.96996, 0.668089 6.77652, 3.79792 6.77652, 3.79792 12.7516 C 4.31563 13.443, 4.89517 13.9376, 5.53655 14.2355, 6.13523 14.5133, 6.86886 14.6575, 7.73646 14.6673, 8.7125 14.6835, 9.93342 14.6914, 11.3997 14.6909, 13.023 14.686, 14.3843 14.6678, 15.484 14.6359, 15.2686 15.1855, 15.1282 15.6017, 15.0634 15.8843, 11.9581 15.8843, 9.4319 15.8637, 7.4857 15.8215, 6.50474 15.7955, 5.68818 15.636, 5.03552 15.3426, 4.36716 15.0447, 3.74443 14.5447, 3.16734 13.8429, 2.87094 14.1732, 2.53382 14.5736, 2.15645 15.0442, 1.75749 15.5467, 1.44196 15.9658, 1.21034 16.3005 Z M 8.61779 13.5132 C 8.55891 13.0897, 8.4696 12.6711, 8.35084 12.2569, 8.51818 12.2628, 8.73949 12.2677, 9.0143 12.2726, 9.5536 12.2834, 9.99574 12.2888, 10.3402 12.2883, 10.8418 12.2888, 11.1789 12.2103, 11.3516 12.0533, 11.5243 11.8962, 11.6102 11.59, 11.6102 11.1341 L 11.6102 5.45746, 5.3751 5.45746, 5.3751 4.34254, 11.6102 4.34254, 11.6102 1.53168, 12.8881 1.53168, 12.8881 4.34254, 15.3706 4.34254, 15.3706 5.45746, 12.8881 5.45746, 12.8881 11.299 C 12.8881 12.0533, 12.7237 12.5965, 12.3949 12.9287, 12.0661 13.2614, 11.5214 13.4454, 10.7608 13.4818, 10.2274 13.5034, 9.51287 13.5137, 8.61779 13.5132 Z M 8.52063 10.2783 C 7.71781 9.2321, 6.86837 8.20355, 5.97329 7.19266 L 6.9356 6.53313 C 7.67463 7.32417, 8.54811 8.31347, 9.55606 9.50102 Z M 3.49073 5.11199 C 2.84395 4.11779, 2.18589 3.16284, 1.51753 2.24617 L 2.55246 1.66516 C 3.40436 2.76487, 4.08941 3.6938, 4.60663 4.45246 Z" stroke="none" fill="#000000" />
			<path d="M 21.1905 16.4025 L 21.1905 14.3376 C 21.0399 14.3484, 20.8107 14.3641, 20.5035 14.3847, 19.0265 14.4951, 17.994 14.579, 17.4061 14.6359 L 17.2525 13.5446 C 17.8188 13.5294, 18.8807 13.4769, 20.4388 13.3875, 20.7729 13.3723, 21.0237 13.3591, 21.1905 13.3483 L 21.1905 11.88, 17.8428 11.88, 17.8428 10.8593 C 18.177 10.5144, 18.603 9.92009, 19.1202 9.07703 L 17.4061 9.07703, 17.4061 8.13484, 19.6624 8.13484 C 19.819 7.86298, 20.0373 7.44685, 20.3171 6.88645, 20.3229 6.87663, 20.3254 6.86878, 20.3254 6.86289 L 21.6032 7.04348 C 21.4953 7.24271, 21.3284 7.53077, 21.1017 7.90715, 21.0428 8.00726, 20.9997 8.08283, 20.9722 8.13484 L 25.3558 8.13484, 25.3558 9.07703, 20.374 9.07703 C 19.8568 9.88378, 19.4387 10.509, 19.1202 10.9536 L 21.3122 10.9536, 21.3122 9.6659, 22.3634 9.6659, 22.3634 10.9536, 25.105 10.9536, 25.105 11.88, 22.3634 11.88, 22.3634 13.2619, 25.2179 13.0499 C 25.2179 13.0764, 25.2154 13.1211, 25.2101 13.1834, 25.1831 13.5976, 25.1747 13.893, 25.1855 14.0706 L 22.3634 14.2355, 22.3634 16.4025 Z M 30.0785 16.2691 C 29.577 16.2691, 29.1187 16.0836, 28.7035 15.7116, 28.2452 15.3087, 27.8192 14.6624, 27.4257 13.7723, 26.7092 14.5633, 25.8436 15.3661, 24.8297 16.1827, 24.7331 16.0468, 24.5662 15.8294, 24.3287 15.531, 24.21 15.3794, 24.1211 15.267, 24.0618 15.1934, 25.2532 14.3042, 26.2239 13.4248, 26.9732 12.5553, 26.4987 11.0743, 26.1807 9.10108, 26.0188 6.6352, 26.0188 6.61998, 26.0163 6.60183, 26.0109 6.58073, 26.0055 6.56012, 26.0026 6.54392, 26.0026 6.53313 L 17.0665 6.53313, 17.0665 5.51242, 20.7538 5.51242, 20.7538 4.02848, 17.6568 4.02848, 17.6568 3.07059, 20.7538 3.07059, 20.7538 1.61805, 21.9266 1.61805, 21.9266 3.07059, 24.8459 3.07059, 24.8459 4.02848, 21.9266 4.02848, 21.9266 5.51242, 25.954 5.51242 C 25.8951 4.50791, 25.8652 3.19425, 25.8652 1.57094 L 27.0699 1.57094 C 27.0699 2.66034, 27.0998 3.97401, 27.1592 5.51242 L 32.0031 5.51242, 32.0031 6.53313, 27.2235 6.53313 C 27.2235 6.54932, 27.2264 6.57435, 27.2318 6.60821, 27.2372 6.64256, 27.2397 6.66709, 27.2397 6.68231, 27.3584 8.7085, 27.569 10.271, 27.8707 11.3697, 28.5342 10.3966, 29.181 9.1742, 29.8116 7.70301 L 30.8789 8.19766 C 30.0437 10.0251, 29.1888 11.5169, 28.3153 12.673, 28.8816 14.1913, 29.4587 14.9505, 30.0461 14.95, 30.1649 14.9505, 30.2723 14.8931, 30.3695 14.7778, 30.4667 14.6629, 30.5398 14.5054, 30.5879 14.3062, 30.7174 13.731, 30.8362 13.0372, 30.9437 12.2255, 31.1704 12.3202, 31.5232 12.4512, 32.0031 12.6181, 31.8952 13.4405, 31.7308 14.2934, 31.5099 15.1777, 31.3971 15.534, 31.2057 15.8088, 30.9358 16.0021, 30.688 16.1802, 30.4024 16.2691, 30.0785 16.2691 Z M 30.0623 4.81363 C 29.6256 4.33273, 28.941 3.6781, 28.0082 2.85074 L 28.8085 2.17551 C 29.5691 2.79873, 30.2861 3.42194, 30.9598 4.04418 Z" stroke="none" fill="#000000" />
			<path d="M 35.6722 16.379 L 35.6722 8.36254 C 35.2516 9.70319, 34.6314 11.0301, 33.8119 12.3433, 33.7962 12.2653, 33.7638 12.145, 33.7152 11.9821, 33.564 11.4276, 33.4453 11.035, 33.3589 10.8044, 34.3674 9.36018, 35.1383 7.66179, 35.6722 5.70871 L 33.6828 5.70871, 33.6828 4.61734, 35.6722 4.61734, 35.6722 1.54738, 36.8205 1.54738, 36.8205 4.61734, 38.6239 4.61734, 38.6239 5.70871, 36.8205 5.70871, 36.8205 8.19766, 37.2975 7.73442 C 37.8692 8.27421, 38.4811 8.89694, 39.1333 9.60309 L 38.3569 10.4275 C 37.9904 9.98291, 37.4781 9.39944, 36.8205 8.6766 L 36.8205 16.379 Z M 40.6133 16.2377 C 40.5701 15.9133, 40.4921 15.4947, 40.3787 14.9814, 40.7507 15.003, 41.2767 15.0133, 41.9559 15.0128, 42.3387 15.0133, 42.6017 14.9426, 42.7445 14.8013, 42.8873 14.66, 42.9584 14.3955, 42.9584 14.0078 L 42.9584 7.96996, 38.9311 7.96996, 38.9311 6.86289, 48.3122 6.86289, 48.3122 7.96996, 44.1799 7.96996, 44.1799 14.3533 C 44.1799 14.9662, 44.0371 15.4211, 43.751 15.7195, 43.46 16.0232, 42.9908 16.1827, 42.3441 16.1984, 42.2528 16.2038, 42.1232 16.2092, 41.9559 16.2141, 41.3847 16.2298, 40.9372 16.2377, 40.6133 16.2377 Z M 39.1656 14.7302 C 38.9502 14.5996, 38.5837 14.4087, 38.0659 14.157, 38.9556 12.6083, 39.7319 11.0507, 40.3949 9.48531 L 41.527 9.88574 C 40.8856 11.3049, 40.0985 12.9194, 39.1656 14.7302 Z M 47.3902 14.683 C 46.6354 12.9091, 45.9293 11.3309, 45.2712 9.94856 L 46.3228 9.46961 C 46.9431 10.716, 47.6733 12.2731, 48.5144 14.1413 Z M 39.6102 3.73012 L 39.6102 2.62305, 47.6007 2.62305, 47.6007 3.73012 Z" stroke="none" fill="#000000" />
			<path d="M 55.6559 15.9236 C 54.9178 15.9236, 54.3947 15.772, 54.087 15.4682, 53.769 15.1649, 53.61 14.6443, 53.61 13.9057 L 53.61 10.1291, 54.8393 10.1291, 54.8393 13.6309 C 54.8393 14.0868, 54.9311 14.3984, 55.1146 14.5658, 55.2981 14.7336, 55.6348 14.817, 56.125 14.8165 L 58.8505 14.8165 C 59.2607 14.817, 59.5679 14.7439, 59.7725 14.5967, 59.9669 14.4612, 60.1121 14.2257, 60.2093 13.89, 60.328 13.3826, 60.4222 12.7889, 60.4919 12.1077, 61.015 12.3124, 61.4194 12.4561, 61.705 12.5396, 61.5921 13.2624, 61.4493 13.9322, 61.2766 14.5496, 61.1475 15.0315, 60.913 15.3809, 60.5734 15.5978, 60.2338 15.8151, 59.7431 15.9236, 59.1012 15.9236 Z M 51.2001 14.6988 C 50.7418 14.4951, 50.3619 14.3405, 50.0597 14.2355, 50.6637 12.807, 51.1299 11.5326, 51.4587 10.4118 L 52.5913 10.773 C 52.2517 11.8987, 51.788 13.2074, 51.2001 14.6988 Z M 63.7754 14.2198 C 63.2851 13.3306, 62.6114 12.2024, 61.7536 10.8358 L 62.7728 10.3097 C 63.5334 11.4251, 64.2366 12.5322, 64.8834 13.6309 Z M 58.1306 12.5239 C 57.3062 11.404, 56.6373 10.5512, 56.125 9.96426 L 57.0794 9.33613 C 57.9961 10.347, 58.6866 11.166, 59.1498 11.7937 Z M 51.2487 8.70801 L 51.2487 7.56953, 56.7561 7.56953, 56.7561 5.03348, 50.092 5.03348, 50.092 3.895, 56.7561 3.895, 56.7561 1.46887, 58.0339 1.46887, 58.0339 3.895, 64.6734 3.895, 64.6734 5.03348, 58.0339 5.03348, 58.0339 7.56953, 63.5005 7.56953, 63.5005 8.70801 Z" stroke="none" fill="#000000" />
			<rect />
		</svg>
	</g>
	<g transform="matrix(1 0 -0 1 332.903 11.8818)">
		<svg width="296.949677" height="51.0856972">
			<defs />
			<path d="M 1.21034 16.3005 L 0.482105 15.1306 C 1.36148 14.1364, 2.05144 13.3826, 2.55246 12.8693 L 2.55246 7.96996, 0.668089 7.96996, 0.668089 6.77652, 3.79792 6.77652, 3.79792 12.7516 C 4.31563 13.443, 4.89517 13.9376, 5.53655 14.2355, 6.13523 14.5133, 6.86886 14.6575, 7.73646 14.6673, 8.7125 14.6835, 9.93342 14.6914, 11.3997 14.6909, 13.023 14.686, 14.3843 14.6678, 15.484 14.6359, 15.2686 15.1855, 15.1282 15.6017, 15.0634 15.8843, 11.9581 15.8843, 9.4319 15.8637, 7.4857 15.8215, 6.50474 15.7955, 5.68818 15.636, 5.03552 15.3426, 4.36716 15.0447, 3.74443 14.5447, 3.16734 13.8429, 2.87094 14.1732, 2.53382 14.5736, 2.15645 15.0442, 1.75749 15.5467, 1.44196 15.9658, 1.21034 16.3005 Z M 8.61779 13.5132 C 8.55891 13.0897, 8.4696 12.6711, 8.35084 12.2569, 8.51818 12.2628, 8.73949 12.2677, 9.0143 12.2726, 9.5536 12.2834, 9.99574 12.2888, 10.3402 12.2883, 10.8418 12.2888, 11.1789 12.2103, 11.3516 12.0533, 11.5243 11.8962, 11.6102 11.59, 11.6102 11.1341 L 11.6102 5.45746, 5.3751 5.45746, 5.3751 4.34254, 11.6102 4.34254, 11.6102 1.53168, 12.8881 1.53168, 12.8881 4.34254, 15.3706 4.34254, 15.3706 5.45746, 12.8881 5.45746, 12.8881 11.299 C 12.8881 12.0533, 12.7237 12.5965, 12.3949 12.9287, 12.0661 13.2614, 11.5214 13.4454, 10.7608 13.4818, 10.2274 13.5034, 9.51287 13.5137, 8.61779 13.5132 Z M 8.52063 10.2783 C 7.71781 9.2321, 6.86837 8.20355, 5.97329 7.19266 L 6.9356 6.53313 C 7.67463 7.32417, 8.54811 8.31347, 9.55606 9.50102 Z M 3.49073 5.11199 C 2.84395 4.11779, 2.18589 3.16284, 1.51753 2.24617 L 2.55246 1.66516 C 3.40436 2.76487, 4.08941 3.6938, 4.60663 4.45246 Z" stroke="none" fill="#000000" />
			<path d="M 21.1905 16.4025 L 21.1905 14.3376 C 21.0399 14.3484, 20.8107 14.3641, 20.5035 14.3847, 19.0265 14.4951, 17.994 14.579, 17.4061 14.6359 L 17.2525 13.5446 C 17.8188 13.5294, 18.8807 13.4769, 20.4388 13.3875, 20.7729 13.3723, 21.0237 13.3591, 21.1905 13.3483 L 21.1905 11.88, 17.8428 11.88, 17.8428 10.8593 C 18.177 10.5144, 18.603 9.92009, 19.1202 9.07703 L 17.4061 9.07703, 17.4061 8.13484, 19.6624 8.13484 C 19.819 7.86298, 20.0373 7.44685, 20.3171 6.88645, 20.3229 6.87663, 20.3254 6.86878, 20.3254 6.86289 L 21.6032 7.04348 C 21.4953 7.24271, 21.3284 7.53077, 21.1017 7.90715, 21.0428 8.00726, 20.9997 8.08283, 20.9722 8.13484 L 25.3558 8.13484, 25.3558 9.07703, 20.374 9.07703 C 19.8568 9.88378, 19.4387 10.509, 19.1202 10.9536 L 21.3122 10.9536, 21.3122 9.6659, 22.3634 9.6659, 22.3634 10.9536, 25.105 10.9536, 25.105 11.88, 22.3634 11.88, 22.3634 13.2619, 25.2179 13.0499 C 25.2179 13.0764, 25.2154 13.1211, 25.2101 13.1834, 25.1831 13.5976, 25.1747 13.893, 25.1855 14.0706 L 22.3634 14.2355, 22.3634 16.4025 Z M 30.0785 16.2691 C 29.577 16.2691, 29.1187 16.0836, 28.7035 15.7116, 28.2452 15.3087, 27.8192 14.6624, 27.4257 13.7723, 26.7092 14.5633, 25.8436 15.3661, 24.8297 16.1827, 24.7331 16.0468, 24.5662 15.8294, 24.3287 15.531, 24.21 15.3794, 24.1211 15.267, 24.0618 15.1934, 25.2532 14.3042, 26.2239 13.4248, 26.9732 12.5553, 26.4987 11.0743, 26.1807 9.10108, 26.0188 6.6352, 26.0188 6.61998, 26.0163 6.60183, 26.0109 6.58073, 26.0055 6.56012, 26.0026 6.54392, 26.0026 6.53313 L 17.0665 6.53313, 17.0665 5.51242, 20.7538 5.51242, 20.7538 4.02848, 17.6568 4.02848, 17.6568 3.07059, 20.7538 3.07059, 20.7538 1.61805, 21.9266 1.61805, 21.9266 3.07059, 24.8459 3.07059, 24.8459 4.02848, 21.9266 4.02848, 21.9266 5.51242, 25.954 5.51242 C 25.8951 4.50791, 25.8652 3.19425, 25.8652 1.57094 L 27.0699 1.57094 C 27.0699 2.66034, 27.0998 3.97401, 27.1592 5.51242 L 32.0031 5.51242, 32.0031 6.53313, 27.2235 6.53313 C 27.2235 6.54932, 27.2264 6.57435, 27.2318 6.60821, 27.2372 6.64256, 27.2397 6.66709, 27.2397 6.68231, 27.3584 8.7085, 27.569 10.271, 27.8707 11.3697, 28.5342 10.3966, 29.181 9.1742, 29.8116 7.70301 L 30.8789 8.19766 C 30.0437 10.0251, 29.1888 11.5169, 28.3153 12.673, 28.8816 14.1913, 29.4587 14.9505, 30.0461 14.95, 30.1649 14.9505, 30.2723 14.8931, 30.3695 14.7778, 30.4667 14.6629, 30.5398 14.5054, 30.5879 14.3062, 30.7174 13.731, 30.8362 13.0372, 30.9437 12.2255, 31.1704 12.3202, 31.5232 12.4512, 32.0031 12.6181, 31.8952 13.4405, 31.7308 14.2934, 31.5099 15.1777, 31.3971 15.534, 31.2057 15.8088, 30.9358 16.0021, 30.688 16.1802, 30.4024 16.2691, 30.0785 16.2691 Z M 30.0623 4.81363 C 29.6256 4.33273, 28.941 3.6781, 28.0082 2.85074 L 28.8085 2.17551 C 29.5691 2.79873, 30.2861 3.42194, 30.9598 4.04418 Z" stroke="none" fill="#000000" />
			<path d="M 36.108 16.4182 L 36.108 5.04918, 34.968 5.04918, 34.968 13.1834, 34.0219 13.1834, 34.0219 3.98922, 36.0756 3.98922, 36.0756 1.54738, 37.2155 1.54738, 37.2155 3.98922, 39.2535 3.98922, 39.2535 11.8643 C 39.2535 12.2363, 39.1779 12.5165, 39.0268 12.7045, 38.8815 12.888, 38.6577 12.9979, 38.356 13.0342, 38.2215 13.0607, 38.0463 13.0794, 37.8304 13.0892, 37.7602 13.0951, 37.7062 13.0975, 37.6685 13.097, 37.642 12.8777, 37.5634 12.5165, 37.4339 12.0135 L 37.9109 12.0135 C 38.0674 12.014, 38.1768 11.9762, 38.2387 11.9002, 38.3005 11.8246, 38.3314 11.6842, 38.3314 11.4796 L 38.3314 5.04918, 37.1429 5.04918, 37.1429 16.4182 Z M 39.6981 16.4182 C 39.4503 16.0208, 39.2049 15.662, 38.962 15.3426, 40.1049 14.9348, 40.97 14.5368, 41.5574 14.1491, 42.1669 13.7414, 42.609 13.26, 42.8839 12.7045, 43.1317 12.1921, 43.2907 11.4983, 43.3608 10.6238, 43.431 9.85483, 43.4659 8.96515, 43.4659 7.95426 L 44.5734 7.95426 C 44.5734 9.04366, 44.5386 9.91764, 44.4684 10.5767, 44.436 11.2264, 44.3447 11.8413, 44.1936 12.4218, 45.9509 13.6211, 47.3494 14.6153, 48.3898 15.4054 L 47.6134 16.3476 C 46.4872 15.4579, 45.2069 14.4897, 43.773 13.4425, 43.4443 14.05, 42.9565 14.5869, 42.3097 15.0521, 41.6791 15.5129, 40.8086 15.9683, 39.6981 16.4182 Z M 40.4096 12.9479 L 40.4096 5.87359, 43.1263 5.87359, 43.1263 1.50027, 44.2824 1.50027, 44.2824 3.1334, 48.3736 3.1334, 48.3736 4.16981, 44.2824 4.16981, 44.2824 5.87359, 47.5732 5.87359, 47.5732 12.9007, 46.4735 12.9007, 46.4735 6.91, 41.5093 6.91, 41.5093 12.9479 Z" stroke="none" fill="#000000" />
			<path d="M 52.2473 16.4654 C 52.21 16.429, 52.1506 16.3765, 52.0696 16.3083, 51.7301 16.0154, 51.4606 15.798, 51.2609 15.6566, 52.1128 15.2224, 52.7351 14.8116, 53.1286 14.4239, 53.5276 14.0319, 53.7891 13.5583, 53.9128 13.0028, 54.0369 12.5793, 54.0988 12.0165, 54.0988 11.3147, 52.9618 11.9694, 51.7516 12.5322, 50.4684 13.0028, 50.3771 12.8149, 50.2181 12.5219, 49.9914 12.1234, 49.9374 12.0297, 49.8972 11.959, 49.8702 11.9114, 52.2689 11.1322, 54.2121 10.1321, 55.7 8.91215 L 51.3983 8.91215, 51.3983 2.20691, 63.3808 2.20691, 63.3808 8.91215, 59.0472 8.91215 C 59.7696 9.53046, 60.5915 10.0536, 61.5131 10.4825, 62.4514 10.928, 63.5589 11.3049, 64.8363 11.6131, 64.799 11.6975, 64.7396 11.8231, 64.6586 11.99, 64.4918 12.3359, 64.3701 12.595, 64.2945 12.7673, 62.7693 12.2913, 61.5754 11.8202, 60.7127 11.354 L 60.7127 16.3162, 59.508 16.3162, 59.508 11.299, 60.6239 11.299 C 59.4923 10.6871, 58.4628 9.89163, 57.5353 8.91215 L 57.2762 8.91215 C 56.3497 9.82882, 55.2956 10.6243, 54.115 11.299 L 55.328 11.299 C 55.328 11.9747, 55.2824 12.5479, 55.1906 13.0185, 55.0454 13.7625, 54.7514 14.3955, 54.3093 14.9186, 53.8568 15.4476, 53.1693 15.9629, 52.2473 16.4654 Z M 52.603 7.88359 L 56.7992 7.88359, 56.7992 6.03848, 52.603 6.03848 Z M 57.9558 7.88359 L 62.1682 7.88359, 62.1682 6.03848, 57.9558 6.03848 Z M 52.603 5.09629 L 56.7992 5.09629, 56.7992 3.23547, 52.603 3.23547 Z M 57.9558 5.09629 L 62.1682 5.09629, 62.1682 3.23547, 57.9558 3.23547 Z" stroke="none" fill="#000000" />
			<path d="M 67.1819 16.4025 C 67.0631 16.2298, 66.8393 15.9579, 66.5106 15.586, 66.4409 15.5075, 66.3869 15.4476, 66.3491 15.4054, 67.201 14.5947, 67.8502 13.6942, 68.2978 12.7049, 68.7453 11.7156, 69.0417 10.5379, 69.187 9.17125 L 70.4324 9.32043 C 70.2872 10.2788, 70.112 11.1032, 69.9068 11.7937, 70.3976 12.6632, 70.9442 13.3306, 71.5478 13.7958, 72.1249 14.2463, 72.7771 14.5265, 73.5048 14.6359 L 73.5048 7.96996, 66.8099 7.96996, 66.8099 6.83148, 80.846 6.83148, 80.846 7.96996, 74.7822 7.96996, 74.7822 10.4903, 80.0295 10.4903, 80.0295 11.5974, 74.7822 11.5974, 74.7822 14.7145 C 76.4261 14.7464, 78.5769 14.741, 81.2342 14.6988, 81.0727 15.217, 80.954 15.6409, 80.8784 15.9707, 77.9895 15.9501, 75.7582 15.9157, 74.184 15.8686, 73.1167 15.8269, 72.2029 15.5938, 71.4428 15.1698, 70.6616 14.7306, 69.9903 14.0633, 69.4294 13.1677, 68.9391 14.2934, 68.1898 15.3715, 67.1819 16.4025 Z M 79.3665 6.00707 L 79.3665 4.38965, 68.3542 4.38965, 68.3542 5.99137, 67.1333 5.99137, 67.1333 3.28258, 73.3831 3.28258 C 73.3134 2.9587, 73.1868 2.47681, 73.0033 1.83789, 72.9768 1.74416, 72.9577 1.67595, 72.9469 1.63375 L 74.37 1.45317 C 74.4185 1.63179, 74.4887 1.92475, 74.58 2.33254, 74.6772 2.74671, 74.7557 3.06323, 74.8146 3.28258 L 80.5874 3.28258, 80.5874 6.00707 Z" stroke="none" fill="#000000" />
			<path d="M 85.1276 16.3633 L 85.1276 10.4118 C 84.5833 11.0301, 84.0014 11.6239, 83.3811 12.1941, 83.2682 11.9276, 83.0739 11.5297, 82.7991 11.0007, 83.6078 10.2788, 84.2933 9.55009, 84.8567 8.8145, 85.42 8.07939, 85.9687 7.19855, 86.5021 6.17195 L 87.6582 6.6509 C 87.2647 7.36834, 86.823 8.09362, 86.3323 8.82578 L 86.3323 16.3633 Z M 91.2321 16.2534 C 91.216 16.1905, 91.1919 16.0939, 91.1595 15.9629, 91.0682 15.5497, 90.9897 15.2277, 90.925 14.9971, 91.6311 15.0344, 92.2484 15.0447, 92.7765 15.0285, 93.2024 15.029, 93.5101 14.9402, 93.6985 14.7621, 93.887 14.5844, 93.9812 14.2988, 93.9812 13.9057 L 93.9812 9.45391, 87.5777 9.45391, 87.5777 8.33113, 93.9812 8.33113, 93.9812 6.6352, 95.2183 6.6352, 95.2183 8.33113, 97.7004 8.33113, 97.7004 9.45391, 95.2183 9.45391, 95.2183 14.0863 C 95.2183 14.8146, 95.0647 15.3401, 94.7575 15.6645, 94.4395 15.9997, 93.9085 16.1827, 93.1646 16.2141, 92.3024 16.2406, 91.6581 16.2534, 91.2321 16.2534 Z M 90.3106 13.3483 C 89.7767 12.5896, 89.1328 11.7652, 88.3781 10.875 L 89.2918 10.192 C 89.9926 10.9673, 90.6663 11.7706, 91.3131 12.6024 Z M 90.7714 6.77652 C 90.5181 6.56257, 90.1894 6.30592, 89.785 6.00707, 90.3778 5.29552, 90.8847 4.56287, 91.3048 3.80863, 91.6934 3.11279, 92.0463 2.33303, 92.3642 1.46887 L 93.6254 1.60234 C 93.6097 1.63964, 93.5852 1.69705, 93.5528 1.77508, 93.3481 2.30948, 93.1916 2.69666, 93.0836 2.93711 L 97.6356 2.93711, 97.6356 4.00492, 92.5502 4.00492 C 92.0379 4.9687, 91.4451 5.89224, 90.7714 6.77652 Z M 83.6721 6.74512 C 83.3708 6.37904, 83.0984 6.07823, 82.8555 5.84219, 84.0848 4.53932, 85.0063 3.08138, 85.6207 1.46887 L 86.8662 1.58664 C 86.6454 2.12644, 86.451 2.57103, 86.2837 2.92141 L 90.4804 2.92141, 90.4804 4.00492, 85.6934 4.00492 C 85.133 4.97361, 84.4592 5.88733, 83.6721 6.74512 Z M 87.9816 6.39965 C 87.5615 5.87163, 87.0978 5.34263, 86.5909 4.81363 L 87.4722 4.16981 C 87.963 4.6674, 88.4404 5.1856, 88.9037 5.72441 Z M 94.8463 6.36824 C 94.3723 5.80882, 93.8791 5.27982, 93.3668 4.78223 L 94.2157 4.1227 C 94.6471 4.51037, 95.1643 5.01826, 95.7679 5.6459 Z" stroke="none" fill="#000000" />
			<rect />
		</svg>
	</g>
	<path d="M -231.953 21.5151 L 231.953 21.5151" fill="none" stroke="#000000" stroke-width="1.80000007" stroke-linecap="round" stroke-linejoin="round" marker-start="url(#CustomMarker-03)" marker-end="url(#CustomMarker-04)" transform="matrix(0.416667 0 -0 0.416667 382.173 26.7829)" />
	<path d="M -231.953 -43.879 L -231.953 43.879" fill="none" stroke="#000000" stroke-width="1.20000005" stroke-linecap="round" stroke-linejoin="round" transform="matrix(0.416667 0 -0 0.416667 382.173 26.7829)" />
	<path d="M 231.953 -43.879 L 231.953 43.879" fill="none" stroke="#000000" stroke-width="1.20000005" stroke-linecap="round" stroke-linejoin="round" transform="matrix(0.416667 0 -0 0.416667 382.173 26.7829)" />
	<path d="M -232.389 21.5151 L 232.389 21.5151" fill="none" stroke="#000000" stroke-width="1.80000007" stroke-linecap="round" stroke-linejoin="round" marker-start="url(#CustomMarker-05)" marker-end="url(#CustomMarker-06)" transform="matrix(0.416667 -1.2583e-007 -1.2583e-007 -0.416667 188.697 102.881)" />
	<path d="M -232.389 -43.879 L -232.389 43.879" fill="none" stroke="#000000" stroke-width="1.20000005" stroke-linecap="round" stroke-linejoin="round" transform="matrix(0.416667 -1.2583e-007 -1.2583e-007 -0.416667 188.697 102.881)" />
	<path d="M 232.389 -43.879 L 232.389 43.879" fill="none" stroke="#000000" stroke-width="1.20000005" stroke-linecap="round" stroke-linejoin="round" transform="matrix(0.416667 -1.2583e-007 -1.2583e-007 -0.416667 188.697 102.881)" />
	<g transform="matrix(1 0 -0 1 122.981 99.5241)">
		<svg width="396.004944" height="51.0856972">
			<defs />
			<path d="M 1.21034 16.3005 L 0.482105 15.1306 C 1.36148 14.1364, 2.05144 13.3826, 2.55246 12.8693 L 2.55246 7.96996, 0.668089 7.96996, 0.668089 6.77652, 3.79792 6.77652, 3.79792 12.7516 C 4.31563 13.443, 4.89517 13.9376, 5.53655 14.2355, 6.13523 14.5133, 6.86886 14.6575, 7.73646 14.6673, 8.7125 14.6835, 9.93342 14.6914, 11.3997 14.6909, 13.023 14.686, 14.3843 14.6678, 15.484 14.6359, 15.2686 15.1855, 15.1282 15.6017, 15.0634 15.8843, 11.9581 15.8843, 9.4319 15.8637, 7.4857 15.8215, 6.50474 15.7955, 5.68818 15.636, 5.03552 15.3426, 4.36716 15.0447, 3.74443 14.5447, 3.16734 13.8429, 2.87094 14.1732, 2.53382 14.5736, 2.15645 15.0442, 1.75749 15.5467, 1.44196 15.9658, 1.21034 16.3005 Z M 8.61779 13.5132 C 8.55891 13.0897, 8.4696 12.6711, 8.35084 12.2569, 8.51818 12.2628, 8.73949 12.2677, 9.0143 12.2726, 9.5536 12.2834, 9.99574 12.2888, 10.3402 12.2883, 10.8418 12.2888, 11.1789 12.2103, 11.3516 12.0533, 11.5243 11.8962, 11.6102 11.59, 11.6102 11.1341 L 11.6102 5.45746, 5.3751 5.45746, 5.3751 4.34254, 11.6102 4.34254, 11.6102 1.53168, 12.8881 1.53168, 12.8881 4.34254, 15.3706 4.34254, 15.3706 5.45746, 12.8881 5.45746, 12.8881 11.299 C 12.8881 12.0533, 12.7237 12.5965, 12.3949 12.9287, 12.0661 13.2614, 11.5214 13.4454, 10.7608 13.4818, 10.2274 13.5034, 9.51287 13.5137, 8.61779 13.5132 Z M 8.52063 10.2783 C 7.71781 9.2321, 6.86837 8.20355, 5.97329 7.19266 L 6.9356 6.53313 C 7.67463 7.32417, 8.54811 8.31347, 9.55606 9.50102 Z M 3.49073 5.11199 C 2.84395 4.11779, 2.18589 3.16284, 1.51753 2.24617 L 2.55246 1.66516 C 3.40436 2.76487, 4.08941 3.6938, 4.60663 4.45246 Z" stroke="none" fill="#000000" />
			<path d="M 21.1905 16.4025 L 21.1905 14.3376 C 21.0399 14.3484, 20.8107 14.3641, 20.5035 14.3847, 19.0265 14.4951, 17.994 14.579, 17.4061 14.6359 L 17.2525 13.5446 C 17.8188 13.5294, 18.8807 13.4769, 20.4388 13.3875, 20.7729 13.3723, 21.0237 13.3591, 21.1905 13.3483 L 21.1905 11.88, 17.8428 11.88, 17.8428 10.8593 C 18.177 10.5144, 18.603 9.92009, 19.1202 9.07703 L 17.4061 9.07703, 17.4061 8.13484, 19.6624 8.13484 C 19.819 7.86298, 20.0373 7.44685, 20.3171 6.88645, 20.3229 6.87663, 20.3254 6.86878, 20.3254 6.86289 L 21.6032 7.04348 C 21.4953 7.24271, 21.3284 7.53077, 21.1017 7.90715, 21.0428 8.00726, 20.9997 8.08283, 20.9722 8.13484 L 25.3558 8.13484, 25.3558 9.07703, 20.374 9.07703 C 19.8568 9.88378, 19.4387 10.509, 19.1202 10.9536 L 21.3122 10.9536, 21.3122 9.6659, 22.3634 9.6659, 22.3634 10.9536, 25.105 10.9536, 25.105 11.88, 22.3634 11.88, 22.3634 13.2619, 25.2179 13.0499 C 25.2179 13.0764, 25.2154 13.1211, 25.2101 13.1834, 25.1831 13.5976, 25.1747 13.893, 25.1855 14.0706 L 22.3634 14.2355, 22.3634 16.4025 Z M 30.0785 16.2691 C 29.577 16.2691, 29.1187 16.0836, 28.7035 15.7116, 28.2452 15.3087, 27.8192 14.6624, 27.4257 13.7723, 26.7092 14.5633, 25.8436 15.3661, 24.8297 16.1827, 24.7331 16.0468, 24.5662 15.8294, 24.3287 15.531, 24.21 15.3794, 24.1211 15.267, 24.0618 15.1934, 25.2532 14.3042, 26.2239 13.4248, 26.9732 12.5553, 26.4987 11.0743, 26.1807 9.10108, 26.0188 6.6352, 26.0188 6.61998, 26.0163 6.60183, 26.0109 6.58073, 26.0055 6.56012, 26.0026 6.54392, 26.0026 6.53313 L 17.0665 6.53313, 17.0665 5.51242, 20.7538 5.51242, 20.7538 4.02848, 17.6568 4.02848, 17.6568 3.07059, 20.7538 3.07059, 20.7538 1.61805, 21.9266 1.61805, 21.9266 3.07059, 24.8459 3.07059, 24.8459 4.02848, 21.9266 4.02848, 21.9266 5.51242, 25.954 5.51242 C 25.8951 4.50791, 25.8652 3.19425, 25.8652 1.57094 L 27.0699 1.57094 C 27.0699 2.66034, 27.0998 3.97401, 27.1592 5.51242 L 32.0031 5.51242, 32.0031 6.53313, 27.2235 6.53313 C 27.2235 6.54932, 27.2264 6.57435, 27.2318 6.60821, 27.2372 6.64256, 27.2397 6.66709, 27.2397 6.68231, 27.3584 8.7085, 27.569 10.271, 27.8707 11.3697, 28.5342 10.3966, 29.181 9.1742, 29.8116 7.70301 L 30.8789 8.19766 C 30.0437 10.0251, 29.1888 11.5169, 28.3153 12.673, 28.8816 14.1913, 29.4587 14.9505, 30.0461 14.95, 30.1649 14.9505, 30.2723 14.8931, 30.3695 14.7778, 30.4667 14.6629, 30.5398 14.5054, 30.5879 14.3062, 30.7174 13.731, 30.8362 13.0372, 30.9437 12.2255, 31.1704 12.3202, 31.5232 12.4512, 32.0031 12.6181, 31.8952 13.4405, 31.7308 14.2934, 31.5099 15.1777, 31.3971 15.534, 31.2057 15.8088, 30.9358 16.0021, 30.688 16.1802, 30.4024 16.2691, 30.0785 16.2691 Z M 30.0623 4.81363 C 29.6256 4.33273, 28.941 3.6781, 28.0082 2.85074 L 28.8085 2.17551 C 29.5691 2.79873, 30.2861 3.42194, 30.9598 4.04418 Z" stroke="none" fill="#000000" />
			<path d="M 35.6722 16.379 L 35.6722 8.36254 C 35.2516 9.70319, 34.6314 11.0301, 33.8119 12.3433, 33.7962 12.2653, 33.7638 12.145, 33.7152 11.9821, 33.564 11.4276, 33.4453 11.035, 33.3589 10.8044, 34.3674 9.36018, 35.1383 7.66179, 35.6722 5.70871 L 33.6828 5.70871, 33.6828 4.61734, 35.6722 4.61734, 35.6722 1.54738, 36.8205 1.54738, 36.8205 4.61734, 38.6239 4.61734, 38.6239 5.70871, 36.8205 5.70871, 36.8205 8.19766, 37.2975 7.73442 C 37.8692 8.27421, 38.4811 8.89694, 39.1333 9.60309 L 38.3569 10.4275 C 37.9904 9.98291, 37.4781 9.39944, 36.8205 8.6766 L 36.8205 16.379 Z M 40.6133 16.2377 C 40.5701 15.9133, 40.4921 15.4947, 40.3787 14.9814, 40.7507 15.003, 41.2767 15.0133, 41.9559 15.0128, 42.3387 15.0133, 42.6017 14.9426, 42.7445 14.8013, 42.8873 14.66, 42.9584 14.3955, 42.9584 14.0078 L 42.9584 7.96996, 38.9311 7.96996, 38.9311 6.86289, 48.3122 6.86289, 48.3122 7.96996, 44.1799 7.96996, 44.1799 14.3533 C 44.1799 14.9662, 44.0371 15.4211, 43.751 15.7195, 43.46 16.0232, 42.9908 16.1827, 42.3441 16.1984, 42.2528 16.2038, 42.1232 16.2092, 41.9559 16.2141, 41.3847 16.2298, 40.9372 16.2377, 40.6133 16.2377 Z M 39.1656 14.7302 C 38.9502 14.5996, 38.5837 14.4087, 38.0659 14.157, 38.9556 12.6083, 39.7319 11.0507, 40.3949 9.48531 L 41.527 9.88574 C 40.8856 11.3049, 40.0985 12.9194, 39.1656 14.7302 Z M 47.3902 14.683 C 46.6354 12.9091, 45.9293 11.3309, 45.2712 9.94856 L 46.3228 9.46961 C 46.9431 10.716, 47.6733 12.2731, 48.5144 14.1413 Z M 39.6102 3.73012 L 39.6102 2.62305, 47.6007 2.62305, 47.6007 3.73012 Z" stroke="none" fill="#000000" />
			<path d="M 55.6524 15.9236 C 54.9144 15.9236, 54.3912 15.772, 54.0836 15.4682, 53.7656 15.1649, 53.6066 14.6443, 53.6066 13.9057 L 53.6066 10.1291, 54.8358 10.1291, 54.8358 13.6309 C 54.8358 14.0868, 54.9276 14.3984, 55.1111 14.5658, 55.2947 14.7336, 55.6313 14.817, 56.1215 14.8165 L 58.847 14.8165 C 59.2572 14.817, 59.5644 14.7439, 59.7691 14.5967, 59.9634 14.4612, 60.1087 14.2257, 60.2058 13.89, 60.3246 13.3826, 60.4188 12.7889, 60.4885 12.1077, 61.0116 12.3124, 61.4159 12.4561, 61.7015 12.5396, 61.5887 13.2624, 61.4459 13.9322, 61.2731 14.5496, 61.1441 15.0315, 60.9095 15.3809, 60.5699 15.5978, 60.2304 15.8151, 59.7396 15.9236, 59.0978 15.9236 Z M 51.1966 14.6988 C 50.7383 14.4951, 50.3585 14.3405, 50.0562 14.2355, 50.6603 12.807, 51.1265 11.5326, 51.4552 10.4118 L 52.5878 10.773 C 52.2483 11.8987, 51.7845 13.2074, 51.1966 14.6988 Z M 63.7719 14.2198 C 63.2817 13.3306, 62.6079 12.2024, 61.7501 10.8358 L 62.7693 10.3097 C 63.53 11.4251, 64.2332 12.5322, 64.8799 13.6309 Z M 58.1271 12.5239 C 57.3027 11.404, 56.6338 10.5512, 56.1215 9.96426 L 57.076 9.33613 C 57.9927 10.347, 58.6831 11.166, 59.1463 11.7937 Z M 51.2452 8.70801 L 51.2452 7.56953, 56.7526 7.56953, 56.7526 5.03348, 50.0886 5.03348, 50.0886 3.895, 56.7526 3.895, 56.7526 1.46887, 58.0304 1.46887, 58.0304 3.895, 64.6699 3.895, 64.6699 5.03348, 58.0304 5.03348, 58.0304 7.56953, 63.4971 7.56953, 63.4971 8.70801 Z" stroke="none" fill="#000000" />
			<path d="M 66.4055 15.7744 L 66.4055 14.8322, 73.2133 14.8322, 73.2133 13.7095, 67.5214 13.7095, 67.5214 12.8222, 73.2133 12.8222, 73.2133 11.6838, 68.0308 11.6838, 68.0308 6.53313, 73.2133 6.53313, 73.2133 5.29258, 66.4865 5.29258, 66.4865 4.38965, 73.2133 4.38965, 73.2133 3.1491 C 70.6047 3.2178, 68.7424 3.25706, 67.6265 3.26688 L 67.4567 2.32469 C 71.7799 2.27807, 75.9035 2.15244, 79.8273 1.94781 L 80.0457 2.9057 C 78.7197 2.97931, 76.852 3.04507, 74.4426 3.10199 L 74.4426 4.38965, 81.2342 4.38965, 81.2342 5.29258, 74.4426 5.29258, 74.4426 6.53313, 79.6413 6.53313, 79.6413 11.6838, 74.4426 11.6838, 74.4426 12.8222, 80.1507 12.8222, 80.1507 13.7095, 74.4426 13.7095, 74.4426 14.8322, 81.2666 14.8322, 81.2666 15.7744 Z M 69.2193 10.8044 L 73.2133 10.8044, 73.2133 9.51672, 69.2193 9.51672 Z M 74.4426 10.8044 L 78.4449 10.8044, 78.4449 9.51672, 74.4426 9.51672 Z M 69.2193 8.6766 L 73.2133 8.6766, 73.2133 7.38895, 69.2193 7.38895 Z M 74.4426 8.6766 L 78.4449 8.6766, 78.4449 7.38895, 74.4426 7.38895 Z" stroke="none" fill="#000000" />
			<path d="M 82.8682 15.9 L 82.8682 15.0992, 85.2291 15.0992, 85.2291 10.7887, 95.2875 10.7887, 95.2875 15.0992, 97.6807 15.0992, 97.6807 15.9 Z M 86.3853 15.0992 L 94.1151 15.0992, 94.1151 14.3219, 86.3853 14.3219 Z M 86.3853 13.678 L 94.1151 13.678, 94.1151 12.9007, 86.3853 12.9007 Z M 86.3853 12.2569 L 94.1151 12.2569, 94.1151 11.4796, 86.3853 11.4796 Z M 83.3614 11.1655 L 83.3614 9.24191, 97.1875 9.24191, 97.1875 11.1498, 96.0638 11.1498, 96.0638 9.99566, 84.4773 9.99566, 84.4773 11.1655 Z M 83.4988 9.03777 C 83.3698 8.77131, 83.2486 8.54116, 83.1352 8.34684, 84.0843 8.2163, 84.9465 8.03572, 85.7223 7.80508, 85.4583 7.72166, 85.0623 7.60928, 84.5338 7.46746, 84.1407 7.36343, 83.8443 7.28197, 83.6446 7.22406 L 83.968 6.61164 C 84.8252 6.83198, 85.7768 7.10138, 86.822 7.42035, 87.5713 7.10678, 88.1725 6.78241, 88.6249 6.44676 L 83.4424 6.44676, 83.4424 5.72441, 89.7977 5.72441, 89.7977 6.51742 C 89.2854 6.9262, 88.6627 7.31632, 87.9296 7.68731 L 89.7654 8.18195, 89.4258 8.92785 C 88.5739 8.64029, 87.7303 8.37628, 86.8946 8.13484, 85.8494 8.54901, 84.7173 8.84983, 83.4988 9.03777 Z M 90.7193 9.03777 C 90.6496 8.86013, 90.5279 8.61428, 90.3552 8.29973, 91.1423 8.2006, 91.9432 8.03572, 92.7568 7.80508, 92.3524 7.68534, 91.7543 7.52831, 90.9617 7.33399, 90.8597 7.30847, 90.7841 7.28982, 90.7355 7.27902 L 91.0187 6.6666 C 92.2425 6.96545, 93.2127 7.2113, 93.9291 7.40465, 94.6083 7.10138, 95.1908 6.78241, 95.6756 6.44676 L 90.7355 6.44676, 90.7355 5.72441, 96.8803 5.72441, 96.8803 6.51742 C 96.3523 6.9262, 95.735 7.30552, 95.0288 7.6559 L 97.3735 8.29973, 97.0339 9.03777 C 95.8915 8.6874, 94.8674 8.38659, 93.9615 8.13484, 93.0399 8.4808, 91.9589 8.78162, 90.7193 9.03777 Z M 95.627 5.55953 C 93.3633 5.12034, 91.6468 4.79597, 90.4769 4.58594, 88.725 5.00502, 86.7145 5.31417, 84.4449 5.51242, 84.4292 5.47611, 84.4076 5.42115, 84.3802 5.34754, 84.2673 5.08108, 84.1701 4.88724, 84.0892 4.76652, 85.8145 4.64139, 87.3157 4.47111, 88.593 4.25617 L 85.1565 3.71441, 85.3989 3.05488, 90.4769 3.8793 C 91.5442 3.62314, 92.5414 3.30417, 93.4684 2.92141 L 84.7036 2.92141, 84.7036 2.1441, 95.2551 2.1441, 95.2551 2.99992 C 94.3875 3.38759, 93.3555 3.76741, 92.1586 4.1384, 93.2421 4.30132, 94.5062 4.52116, 95.9504 4.79793 Z" stroke="none" fill="#000000" />
			<path d="M 108.54 16.4025 L 108.54 2.45817, 113.852 2.45817, 113.852 3.61234, 112.227 7.82078 C 112.934 8.50191, 113.438 9.15358, 113.739 9.77582, 114.02 10.3573, 114.16 10.9987, 114.16 11.6995, 114.16 12.5062, 113.995 13.1235, 113.666 13.5524, 113.322 13.998, 112.791 14.2492, 112.074 14.3062, 111.788 14.3278, 111.249 14.3381, 110.457 14.3376, 110.37 13.8253, 110.281 13.4062, 110.19 13.0813, 110.691 13.1343, 111.181 13.15, 111.661 13.1284, 112.125 13.1235, 112.462 12.9979, 112.672 12.7516, 112.871 12.5062, 112.971 12.1215, 112.971 11.5974, 112.971 10.4304, 112.303 9.23701, 110.966 8.01707 L 112.632 3.56524, 109.696 3.56524, 109.696 16.4025 Z M 100.285 16.3005 L 100.285 10.2155, 106.826 10.2155, 106.826 16.2691, 105.67 16.2691, 105.67 15.1934, 101.433 15.1934, 101.433 16.3005 Z M 101.433 14.157 L 105.67 14.157, 105.67 11.2362, 101.433 11.2362 Z M 99.2986 8.55883 L 99.2986 7.50672, 104.021 7.50672 C 104.333 6.96791, 104.77 6.1749, 105.331 5.1277, 105.411 4.97655, 105.473 4.86123, 105.517 4.78223 L 106.616 5.22977, 105.274 7.50672, 107.756 7.50672, 107.756 8.55883 Z M 101.773 7.38895 C 101.261 6.54147, 100.813 5.84808, 100.431 5.30828 L 101.385 4.79793 C 101.946 5.56787, 102.417 6.24065, 102.8 6.81578 Z M 99.6705 4.52313 L 99.6705 3.47887, 103.285 3.47887 C 102.972 2.76241, 102.694 2.1917, 102.452 1.76723 L 103.665 1.46887 C 103.934 2.01357, 104.223 2.60784, 104.53 3.25117 L 103.794 3.47887, 107.384 3.47887, 107.384 4.52313 Z" stroke="none" fill="#000000" />
			<path d="M 116.848 16.4654 C 116.617 16.1042, 116.358 15.7406, 116.072 15.374, 117.366 14.7881, 118.331 14.1442, 118.967 13.4425, 119.581 12.7624, 119.996 11.9065, 120.212 10.875, 120.325 10.4098, 120.401 9.85728, 120.438 9.21836 L 117.77 9.21836, 117.77 8.06418, 127.828 8.06418 C 127.774 9.88084, 127.694 11.6082, 127.586 13.2462, 127.527 14.2046, 127.284 14.8901, 126.858 15.3033, 126.427 15.7224, 125.718 15.9447, 124.732 15.9707, 123.816 16.0021, 123.039 16.0178, 122.403 16.0178, 122.403 16.0021, 122.4 15.9736, 122.395 15.9314, 122.309 15.3872, 122.233 14.9819, 122.169 14.7145, 123.004 14.7621, 123.807 14.7856, 124.578 14.7851, 125.176 14.7856, 125.605 14.6575, 125.863 14.4009, 126.122 14.1447, 126.278 13.6888, 126.332 13.0342, 126.413 11.9458, 126.464 10.6738, 126.486 9.21836 L 121.707 9.21836 C 121.681 9.84158, 121.603 10.4648, 121.473 11.087, 121.242 12.3281, 120.783 13.3488, 120.099 14.1491, 119.398 14.9716, 118.315 15.743, 116.848 16.4654 Z M 116.411 8.74727 C 116.207 8.40229, 115.951 8.01511, 115.644 7.58524, 116.824 6.80057, 117.838 5.9315, 118.684 4.97852, 119.508 4.05792, 120.258 2.96361, 120.932 1.69656 L 122.12 2.24617 C 121.322 3.64424, 120.5 4.82443, 119.654 5.78723, 118.775 6.80302, 117.695 7.78987, 116.411 8.74727 Z M 129.833 8.69231 C 128.464 7.77662, 127.354 6.8045, 126.502 5.77594, 125.651 4.74739, 124.901 3.47151, 124.255 1.94781 L 125.411 1.51598 C 126.036 2.96116, 126.737 4.13104, 127.513 5.02563, 128.3 5.9315, 129.338 6.75346, 130.626 7.49102, 130.545 7.64854, 130.281 8.04897, 129.833 8.69231 Z" stroke="none" fill="#000000" />
			<rect />
		</svg>
	</g>
</svg>
