<?xml version="1.0"?>
<svg xmlns="http://www.w3.org/2000/svg" xmlns:xlink="http://www.w3.org/1999/xlink" width="553.000366" height="114.641174">
	<defs>
		<marker id="CustomMarker-01" markerUnits="strokeWidth" markerWidth="21" markerHeight="9" viewBox="-21 -4.5 21 9" orient="auto-start-reverse">
			<path d="M 0 -0 L -14 -3, -14 -0.5, -14 0.5, -14 3 Z" fill="#000000" stroke="#000000" stroke-linejoin="round" />
		</marker>
		<marker id="CustomMarker-02" markerUnits="strokeWidth" markerWidth="21" markerHeight="9" viewBox="-21 -4.5 21 9" orient="auto-start-reverse">
			<path d="M 0 -0 L -14 -3, -14 -0.5, -14 0.5, -14 3 Z" fill="#000000" stroke="#000000" stroke-linejoin="round" />
		</marker>
		<marker id="CustomMarker-03" markerUnits="strokeWidth" markerWidth="21" markerHeight="9" viewBox="-21 -4.5 21 9" orient="auto-start-reverse">
			<path d="M 0 -0 L -14 -3, -14 -0.5, -14 0.5, -14 3 Z" fill="#000000" stroke="#000000" stroke-linejoin="round" />
		</marker>
		<marker id="CustomMarker-04" markerUnits="strokeWidth" markerWidth="21" markerHeight="9" viewBox="-21 -4.5 21 9" orient="auto-start-reverse">
			<path d="M 0 -0 L -14 -3, -14 -0.5, -14 0.5, -14 3 Z" fill="#000000" stroke="#000000" stroke-linejoin="round" />
		</marker>
		<marker id="CustomMarker-05" markerUnits="strokeWidth" markerWidth="21" markerHeight="9" viewBox="-21 -4.5 21 9" orient="auto-start-reverse">
			<path d="M 0 -0 L -14 -3, -14 -0.5, -14 0.5, -14 3 Z" fill="#000000" stroke="#000000" stroke-linejoin="round" />
		</marker>
		<marker id="CustomMarker-06" markerUnits="strokeWidth" markerWidth="21" markerHeight="9" viewBox="-21 -4.5 21 9" orient="auto-start-reverse">
			<path d="M 0 -0 L -14 -3, -14 -0.5, -14 0.5, -14 3 Z" fill="#000000" stroke="#000000" stroke-linejoin="round" />
		</marker>
		<marker id="CustomMarker-07" markerUnits="strokeWidth" markerWidth="21" markerHeight="9" viewBox="-21 -4.5 21 9" orient="auto-start-reverse">
			<path d="M 0 -0 L -14 -3, -14 -0.5, -14 0.5, -14 3 Z" fill="#000000" stroke="#000000" stroke-linejoin="round" />
		</marker>
		<marker id="CustomMarker-08" markerUnits="strokeWidth" markerWidth="21" markerHeight="9" viewBox="-21 -4.5 21 9" orient="auto-start-reverse">
			<path d="M 0 -0 L -14 -3, -14 -0.5, -14 0.5, -14 3 Z" fill="#000000" stroke="#000000" stroke-linejoin="round" />
		</marker>
	</defs>
	<path d="M -78.9494 -28.4521 L 78.9494 -28.4521, 78.9494 28.4521, -78.9494 28.4521 Z" fill="none" stroke="#000000" stroke-width="1.60000002" stroke-linecap="round" stroke-linejoin="round" transform="matrix(0.625 0 -0 0.625 57.8435 58.279)" />
	<g transform="matrix(1 0 -0 1 18.976 49.4732)">
		<svg width="237.001968" height="47.9999886">
			<defs />
			<path d="M 6.85554 10.4193 C 6.85554 10.8323, 6.78402 11.2272, 6.64052 11.6037, 6.49748 11.9807, 6.27976 12.3199, 5.98827 12.6217, 5.71162 12.91, 5.38775 13.1354, 5.01709 13.2982, 4.64643 13.4615, 4.25868 13.5429, 3.85338 13.5429, 3.23577 13.5429, 2.68203 13.453, 2.19261 13.2731, 1.7032 13.0936, 1.3105 12.8547, 1.01406 12.5569 L 0.450424 13.4566 C 0.391046 13.5142, 0.332119 13.5429, 0.272741 13.5429 L 0.213364 13.5429 C 0.0802144 13.5429, 0.00824183 13.4759, -0.00165445 13.3414 L -0.00165445 9.96591 C -0.00165445 9.82736, 0.0703182 9.75269, 0.213364 9.74279 L 0.30243 9.74279 C 0.450874 9.74324, 0.524646 9.81746, 0.524646 9.96591, 0.524646 10.4364, 0.603816 10.8566, 0.762155 11.2259, 0.920495 11.5956, 1.14271 11.9087, 1.42925 12.1651, 1.71579 12.422, 2.06531 12.6185, 2.47825 12.7553, 2.8912 12.892, 3.34957 12.9604, 3.85338 12.96, 4.10528 12.9604, 4.34639 12.9091, 4.57626 12.8057, 4.80612 12.7027, 5.00989 12.5551, 5.18757 12.3626, 5.55823 11.9551, 5.74131 11.4706, 5.73592 10.9087, 5.73592 10.6789, 5.70263 10.4549, 5.63605 10.2363, 5.56948 10.0181, 5.46917 9.82151, 5.33602 9.64608, 5.20287 9.4711, 5.04723 9.3186, 4.86909 9.18905, 4.69096 9.0595, 4.49079 8.96819, 4.26812 8.91511 L 2.28888 8.45448 C 1.94341 8.37351, 1.63078 8.24171, 1.35143 8.05908, 1.07209 7.8769, 0.830979 7.66098, 0.628556 7.41133, 0.426133 7.16212, 0.270492 6.88143, 0.161634 6.56925, 0.0527749 6.25752, -0.00165445 5.93364, -0.00165445 5.59717, -0.00165445 5.21391, 0.0739169 4.84325, 0.22461 4.48564, 0.375302 4.12847, 0.59167 3.81045, 0.873263 3.53155, 1.14991 3.26345, 1.47603 3.05248, 1.85164 2.89864, 2.22725 2.74525, 2.61005 2.66833, 3.0005 2.66788, 3.5493 2.66833, 4.02881 2.76189, 4.43906 2.94902, 4.8493 3.13615, 5.17273 3.36871, 5.40979 3.64671 L 5.97342 2.77584 C 6.01796 2.70432, 6.07958 2.66833, 6.15875 2.66788 L 6.21048 2.66788 C 6.35893 2.66833, 6.43315 2.74255, 6.43315 2.891 L 6.43315 6.26651 C 6.43315 6.40146, 6.35893 6.46849, 6.21048 6.46804 L 6.12907 6.46804 C 6.01031 6.46849, 5.93609 6.40866, 5.9064 6.2881, 5.88706 5.82298, 5.80429 5.40239, 5.65854 5.02543, 5.5128 4.64893, 5.31757 4.3264, 5.07287 4.0574, 4.82816 3.78885, 4.53442 3.58238, 4.19075 3.43844, 3.84708 3.29449, 3.45033 3.22252, 3.0005 3.22207, 2.48185 3.22252, 2.03472 3.4074, 1.65866 3.77626, 1.48098 3.94944, 1.34378 4.14872, 1.24752 4.37408, 1.15126 4.5999, 1.10268 4.83696, 1.10268 5.08616, 1.10268 5.30253, 1.14001 5.50765, 1.21423 5.70198, 1.28846 5.8963, 1.38832 6.07399, 1.51427 6.23457, 1.64022 6.39561, 1.79091 6.53326, 1.96635 6.64842, 2.14178 6.76357, 2.33611 6.84274, 2.54843 6.88548 L 4.52048 7.3533 C 4.87629 7.43517, 5.20017 7.57596, 5.49166 7.77479, 5.78315 7.97406, 6.0292 8.20797, 6.22938 8.47652, 6.42955 8.74552, 6.58384 9.04511, 6.6927 9.37618, 6.80156 9.70726, 6.85554 10.055, 6.85554 10.4193 Z" stroke="none" fill="#000000" />
			<path d="M 18.5391 3.59633 C 18.302 3.59678, 18.0906 3.61387, 17.9052 3.64716, 17.7199 3.68089, 17.5409 3.73847, 17.3677 3.81944, 17.0519 3.98318, 16.8023 4.21079, 16.6192 4.50318 L 13.6989 9.14542, 13.6989 12.1611 C 13.6989 12.2479, 13.7151 12.3262, 13.7475 12.3954, 13.7799 12.4652, 13.8329 12.5119, 13.9067 12.5353, 14.0354 12.579, 14.2256 12.6042, 14.4776 12.6114, 14.7295 12.6185, 14.9913 12.6221, 15.263 12.6217 L 15.263 13.2191 C 14.4726 13.1903, 13.7092 13.1759, 12.9729 13.1759, 12.2316 13.1759, 11.4682 13.1903, 10.6823 13.2191 L 10.6823 12.6217 C 10.9545 12.6221, 11.2163 12.6185, 11.4682 12.6114, 11.7201 12.6042, 11.9104 12.579, 12.039 12.5353, 12.1083 12.5119, 12.16 12.4652, 12.1947 12.3954, 12.2293 12.3262, 12.2464 12.2479, 12.2464 12.1611 L 12.2464 9.14542, 9.06701 4.08574 C 9.01258 3.99487, 8.94825 3.91346, 8.87403 3.84148, 8.80026 3.76951, 8.71119 3.71418, 8.60728 3.6755, 8.46918 3.63276, 8.29375 3.60892, 8.08143 3.60397, 7.86911 3.59948, 7.6442 3.59678, 7.40669 3.59633 L 7.40669 2.99895 C 8.05399 3.03314, 8.67386 3.04978, 9.26673 3.04933, 9.36569 3.04978, 9.46736 3.04484, 9.57082 3.03494, 10.2676 3.03539, 10.9914 3.02594, 11.7426 3.00615 L 11.7426 3.59633 C 11.5402 3.59678, 11.3598 3.60172, 11.2014 3.61117, 11.0436 3.62107, 10.9028 3.6566, 10.7791 3.71868, 10.7296 3.74297, 10.7026 3.78885, 10.6972 3.85543, 10.6828 3.87522, 10.6751 3.88962, 10.6751 3.89861, 10.6751 3.9328, 10.6927 3.96879, 10.7269 4.00657 L 13.4767 8.36811, 15.9449 4.43121 C 16.0092 4.3309, 16.0461 4.23014, 16.056 4.12892 L 16.056 4.07854 C 16.056 3.99757, 16.0263 3.92065, 15.9669 3.84823, 15.8981 3.75287, 15.7983 3.68674, 15.6669 3.65076, 15.536 3.61477, 15.3768 3.59678, 15.1887 3.59633 L 15.1887 3.00615 C 15.7771 3.02594, 16.3403 3.03539, 16.8787 3.03494, 16.948 3.04484, 17.0168 3.04978, 17.0861 3.04933, 17.5508 3.04978, 18.0352 3.03314, 18.5391 2.99895 L 18.5391 3.59633 Z" stroke="none" fill="#000000" />
			<path d="M 29.5031 3.59633 C 29.2562 3.59678, 29.034 3.60892, 28.836 3.63276, 28.6386 3.65705, 28.4609 3.71913, 28.3025 3.81944, 28.1838 3.88692, 28.0938 3.97958, 28.0322 4.09699, 27.9706 4.21484, 27.9395 4.33809, 27.9395 4.4672 L 27.9395 12.9816 C 27.9395 13.1404, 27.8604 13.2191, 27.702 13.2191 L 27.6134 13.2191 C 27.5293 13.2191, 27.4627 13.1858, 27.4132 13.1183 L 21.1134 4.09294 C 21.0738 4.03581, 21.0837 4.03581, 21.1431 4.09294 L 21.1431 11.758 C 21.1431 12.027, 21.2641 12.2407, 21.5061 12.3986, 21.6694 12.4998, 21.8484 12.5623, 22.0436 12.5862, 22.2388 12.6105, 22.4597 12.6221, 22.7067 12.6217 L 22.7067 13.2263 C 22.0697 13.193, 21.4521 13.1759, 20.8538 13.1759, 20.2659 13.1759, 19.6505 13.193, 19.0082 13.2263 L 19.0082 12.6217 C 19.2556 12.6221, 19.4764 12.6091, 19.6717 12.5826, 19.8669 12.5565, 20.0459 12.4948, 20.2088 12.3986, 20.4463 12.2456, 20.5673 12.032, 20.5722 11.758 L 20.5722 3.69709 C 20.5772 3.69754, 20.5695 3.69034, 20.5497 3.6755, 20.3918 3.63276, 20.171 3.60892, 19.8867 3.60397, 19.6024 3.59948, 19.3096 3.59678, 19.0082 3.59633 L 19.0082 3.00615, 21.8839 3.00615 C 21.9681 3.0066, 22.0346 3.04034, 22.0841 3.10691 L 27.3687 10.6856, 27.3687 4.4672 C 27.3687 4.33809, 27.3381 4.21574, 27.276 4.10058, 27.2144 3.98543, 27.1267 3.88962, 27.0129 3.81224, 26.85 3.71193, 26.6697 3.65076, 26.4717 3.62916, 26.2743 3.60757, 26.052 3.59678, 25.8046 3.59633 L 25.8046 3.00615 C 26.4524 3.02594, 27.07 3.03539, 27.6575 3.03494, 28.2558 3.03539, 28.8707 3.02594, 29.5031 3.00615 L 29.5031 3.59633 Z" stroke="none" fill="#000000" />
			<path d="M 39.8743 9.59165 C 39.8743 10.1341, 39.7682 10.6465, 39.5559 11.1287, 39.3435 11.6109, 39.0579 12.0284, 38.6998 12.381, 38.3418 12.7337, 37.918 13.0157, 37.4286 13.2263, 36.9397 13.4377, 36.4161 13.5429, 35.8574 13.5429, 35.1412 13.5429, 34.453 13.4053, 33.7936 13.1296, 33.1341 12.8538, 32.5547 12.4638, 32.0554 11.9595, 31.5417 11.4274, 31.1513 10.8314, 30.8845 10.1715, 30.6178 9.51203, 30.4842 8.82424, 30.4842 8.10901, 30.4842 7.39468, 30.6178 6.706, 30.8845 6.04385, 31.1513 5.3817, 31.5417 4.78927, 32.0554 4.26567, 32.5547 3.76231, 33.1341 3.37006, 33.7936 3.08937, 34.453 2.80868, 35.1412 2.66833, 35.8574 2.66788, 36.4358 2.66833, 36.9621 2.78618, 37.4363 3.021, 37.9104 3.25626, 38.3031 3.55134, 38.6144 3.90581 L 39.4151 2.77584 C 39.4448 2.70432, 39.5091 2.66833, 39.6076 2.66788 L 39.6521 2.66788 C 39.8006 2.66833, 39.8743 2.74255, 39.8743 2.891 L 39.8743 6.8207 C 39.8743 6.9651, 39.8006 7.03932, 39.6521 7.04382 L 39.4816 7.04382 C 39.3633 7.04427, 39.2891 6.97724, 39.2594 6.84229, 39.2396 6.35828, 39.142 5.899, 38.9666 5.46447, 38.7912 5.03038, 38.5577 4.65253, 38.2662 4.3309, 37.9747 4.00972, 37.6378 3.75287, 37.2545 3.56079, 36.8717 3.36916, 36.4556 3.2729, 36.0058 3.27245, 35.4377 3.2729, 34.9091 3.393, 34.4197 3.63276, 33.9307 3.87297, 33.5133 4.20854, 33.1669 4.63993, 32.7864 5.12035, 32.5273 5.65879, 32.3887 6.25617, 32.2506 6.85354, 32.1814 7.47115, 32.1814 8.10901, 32.1814 8.74282, 32.2506 9.35819, 32.3887 9.95556, 32.5273 10.5529, 32.7864 11.0914, 33.1669 11.5709, 33.5178 12.0032, 33.9406 12.3428, 34.4346 12.5898, 34.9285 12.8372, 35.4575 12.9604, 36.0207 12.96, 36.4849 12.9604, 36.9212 12.8718, 37.3288 12.6941, 37.7363 12.5169, 38.0885 12.2731, 38.385 11.9636, 38.6814 11.6541, 38.9162 11.2979, 39.0889 10.8948, 39.2621 10.4918, 39.3485 10.0577, 39.3485 9.59165, 39.3485 9.44815, 39.42 9.37618, 39.5631 9.37573 L 39.6521 9.37573 C 39.8006 9.37618, 39.8743 9.44815, 39.8743 9.59165 Z" stroke="none" fill="#000000" />
			<path d="M 49.1156 16.2851 C 49.1156 16.3859, 49.0787 16.4722, 49.0045 16.5442, 48.9302 16.6162, 48.8412 16.6522, 48.7373 16.6522 L 40.1028 16.6522 C 40.0043 16.6522, 39.9166 16.6162, 39.8401 16.5442, 39.7636 16.4722, 39.7249 16.3859, 39.7249 16.2851, 39.7249 16.1893, 39.7636 16.1043, 39.8401 16.0296, 39.9166 15.9554, 40.0043 15.918, 40.1028 15.918 L 48.7373 15.918 C 48.8362 15.918, 48.9244 15.9554, 49.0009 16.0296, 49.0773 16.1043, 49.1156 16.1893, 49.1156 16.2851 Z" stroke="none" fill="#000000" />
			<path d="M 55.8697 10.4193 C 55.8697 10.8323, 55.7982 11.2272, 55.6547 11.6037, 55.5116 11.9807, 55.2939 12.3199, 55.0024 12.6217, 54.7258 12.91, 54.4019 13.1354, 54.0313 13.2982, 53.6606 13.4615, 53.2728 13.5429, 52.8675 13.5429, 52.2499 13.5429, 51.6962 13.453, 51.2068 13.2731, 50.7174 13.0936, 50.3247 12.8547, 50.0282 12.5569 L 49.4646 13.4566 C 49.4052 13.5142, 49.3463 13.5429, 49.2869 13.5429 L 49.2275 13.5429 C 49.0944 13.5429, 49.0224 13.4759, 49.0125 13.3414 L 49.0125 9.96591 C 49.0125 9.82736, 49.0845 9.75269, 49.2275 9.74279 L 49.3166 9.74279 C 49.465 9.74324, 49.5388 9.81746, 49.5388 9.96591, 49.5388 10.4364, 49.618 10.8566, 49.7763 11.2259, 49.9347 11.5956, 50.1569 11.9087, 50.4434 12.1651, 50.73 12.422, 51.0795 12.6185, 51.4924 12.7553, 51.9054 12.892, 52.3637 12.9604, 52.8675 12.96, 53.1194 12.9604, 53.3606 12.9091, 53.5904 12.8057, 53.8203 12.7027, 54.0241 12.5551, 54.2017 12.3626, 54.5724 11.9551, 54.7555 11.4706, 54.7501 10.9087, 54.7501 10.6789, 54.7168 10.4549, 54.6502 10.2363, 54.5836 10.0181, 54.4833 9.82151, 54.3502 9.64608, 54.217 9.4711, 54.0614 9.3186, 53.8833 9.18905, 53.7051 9.0595, 53.505 8.96819, 53.2823 8.91511 L 51.303 8.45448 C 50.9576 8.37351, 50.6449 8.24171, 50.3656 8.05908, 50.0863 7.8769, 49.8451 7.66098, 49.6427 7.41133, 49.4403 7.16212, 49.2847 6.88143, 49.1758 6.56925, 49.0669 6.25752, 49.0125 5.93364, 49.0125 5.59717, 49.0125 5.21391, 49.0881 4.84325, 49.2388 4.48564, 49.3895 4.12847, 49.6058 3.81045, 49.8874 3.53155, 50.1641 3.26345, 50.4902 3.05248, 50.8658 2.89864, 51.2414 2.74525, 51.6242 2.66833, 52.0147 2.66788, 52.5635 2.66833, 53.043 2.76189, 53.4532 2.94902, 53.8635 3.13615, 54.1869 3.36871, 54.424 3.64671 L 54.9876 2.77584 C 55.0321 2.70432, 55.0937 2.66833, 55.1729 2.66788 L 55.2246 2.66788 C 55.3731 2.66833, 55.4473 2.74255, 55.4473 2.891 L 55.4473 6.26651 C 55.4473 6.40146, 55.3731 6.46849, 55.2246 6.46804 L 55.1432 6.46804 C 55.0245 6.46849, 54.9503 6.40866, 54.9206 6.2881, 54.9012 5.82298, 54.8185 5.40239, 54.6727 5.02543, 54.527 4.64893, 54.3317 4.3264, 54.087 4.0574, 53.8423 3.78885, 53.5486 3.58238, 53.2049 3.43844, 52.8612 3.29449, 52.4645 3.22252, 52.0147 3.22207, 51.496 3.22252, 51.0489 3.4074, 50.6728 3.77626, 50.4951 3.94944, 50.3579 4.14872, 50.2617 4.37408, 50.1654 4.5999, 50.1168 4.83696, 50.1168 5.08616, 50.1168 5.30253, 50.1542 5.50765, 50.2284 5.70198, 50.3026 5.8963, 50.4025 6.07399, 50.5284 6.23457, 50.6544 6.39561, 50.8051 6.53326, 50.9805 6.64842, 51.1559 6.76357, 51.3503 6.84274, 51.5626 6.88548 L 53.5346 7.3533 C 53.8905 7.43517, 54.2143 7.57596, 54.5058 7.77479, 54.7973 7.97406, 55.0434 8.20797, 55.2435 8.47652, 55.4437 8.74552, 55.598 9.04511, 55.7069 9.37618, 55.8157 9.70726, 55.8697 10.055, 55.8697 10.4193 Z" stroke="none" fill="#000000" />
			<path d="M 65.6134 13.2191 L 56.7414 13.2191, 56.7414 12.6217 C 57.0131 12.6221, 57.2754 12.6185, 57.5273 12.6114, 57.7792 12.6042, 57.9695 12.579, 58.0977 12.5353, 58.1669 12.5119, 58.2191 12.4652, 58.2537 12.3954, 58.2884 12.3262, 58.3055 12.2479, 58.3055 12.1611 L 58.3055 4.10013 C 58.3055 4.01422, 58.2884 3.93505, 58.2537 3.86308, 58.2191 3.7911, 58.1669 3.74297, 58.0977 3.71868, 57.9695 3.67595, 57.7792 3.65211, 57.5273 3.64716, 57.2754 3.64266, 57.0131 3.63996, 56.7414 3.63951 L 56.7414 3.03494, 65.4132 3.03494, 65.8505 6.49682, 65.3242 6.49682 C 65.29 6.24762, 65.2567 6.01416, 65.2243 5.79554, 65.1924 5.57737, 65.1478 5.3673, 65.0911 5.16578, 65.0345 4.96426, 64.9566 4.77713, 64.8577 4.60439, 64.7587 4.43166, 64.635 4.28052, 64.4866 4.15052, 64.3435 4.03086, 64.1753 3.93505, 63.9828 3.86308, 63.7902 3.7911, 63.5874 3.73847, 63.375 3.70474, 63.1627 3.67145, 62.9414 3.65211, 62.7115 3.64716, 62.4821 3.64266, 62.2559 3.63996, 62.0337 3.63951 L 60.4993 3.63951 C 60.3859 3.63996, 60.2721 3.64266, 60.1583 3.64716, 60.045 3.65211, 59.9608 3.6737, 59.9064 3.71148, 59.8524 3.75017, 59.8214 3.8055, 59.8138 3.87747, 59.8066 3.94944, 59.8025 4.02366, 59.8025 4.10013 L 59.8025 7.63399, 60.8771 7.63399 C 61.1389 7.63444, 61.407 7.62275, 61.6814 7.59846, 61.9558 7.57462, 62.1718 7.4905, 62.3301 7.3461, 62.4884 7.18821, 62.5798 6.98804, 62.6045 6.74558, 62.6292 6.50357, 62.6414 6.23098, 62.6414 5.92824 L 63.1672 5.92824, 63.1672 9.94431, 62.6414 9.94431 C 62.6414 9.64248, 62.6292 9.37033, 62.6045 9.12788, 62.5798 8.88587, 62.4884 8.68524, 62.3301 8.52645, 62.1718 8.38296, 61.9567 8.29929, 61.685 8.275, 61.4133 8.25116, 61.1443 8.23901, 60.8771 8.23856 L 59.8025 8.23856, 59.8025 12.1611 C 59.8025 12.2429, 59.8066 12.3176, 59.8138 12.3846, 59.8214 12.4521, 59.8524 12.5047, 59.9064 12.5425, 59.9559 12.5812, 60.04 12.6042, 60.1583 12.6114, 60.2771 12.6185, 60.3904 12.6221, 60.4993 12.6217 L 62.152 12.6217 C 62.3845 12.6221, 62.6193 12.6185, 62.8564 12.6114, 63.0935 12.6042, 63.3233 12.5817, 63.5455 12.543, 63.7677 12.5047, 63.9805 12.4449, 64.1829 12.363, 64.3854 12.2816, 64.5684 12.171, 64.7313 12.0315, 64.8896 11.9024, 65.0255 11.7346, 65.1388 11.5282, 65.2526 11.3221, 65.3453 11.0999, 65.4168 10.8624, 65.4888 10.6249, 65.5504 10.3744, 65.6021 10.1103, 65.6543 9.8467, 65.7025 9.57276, 65.7465 9.28936 L 66.2805 9.28936 Z" stroke="none" fill="#000000" />
			<path d="M 77.4281 9.63483 C 77.2306 9.63528, 77.0489 9.63798, 76.8834 9.64248, 76.7178 9.64743, 76.5932 9.67352, 76.5091 9.7212, 76.4497 9.75044, 76.4142 9.79992, 76.4016 9.86919, 76.3895 9.93892, 76.3832 10.0145, 76.3832 10.0955 L 76.3832 13.0032 C 76.3832 13.0612, 76.3683 13.1066, 76.3386 13.1399, 76.2945 13.193, 76.2325 13.2191, 76.1533 13.2191, 76.1236 13.2191, 76.0818 13.2047, 76.0274 13.1759, 75.8546 13.0418, 75.6913 12.8983, 75.5384 12.7445, 75.3854 12.5911, 75.2716 12.4566, 75.1974 12.341, 75.1137 12.4903, 74.968 12.6487, 74.7602 12.8165, 74.5528 12.9847, 74.3229 13.121, 74.071 13.2263, 73.8191 13.332, 73.5461 13.4111, 73.2519 13.4638, 72.9577 13.5169, 72.6599 13.5429, 72.3585 13.5429, 71.6424 13.5429, 70.9555 13.4053, 70.2983 13.1296, 69.6411 12.8538, 69.0631 12.4638, 68.5638 11.9595, 68.0501 11.4274, 67.6601 10.8314, 67.3929 10.1715, 67.1261 9.51203, 66.9925 8.82424, 66.9925 8.10901, 66.9925 7.39468, 67.1248 6.706, 67.3893 6.04385, 67.6538 5.3817, 68.0451 4.78927, 68.5638 4.26567, 69.0631 3.76231, 69.6411 3.37006, 70.2983 3.08937, 70.9555 2.80868, 71.6424 2.66833, 72.3585 2.66788, 72.937 2.66833, 73.4642 2.78618, 73.941 3.021, 74.4179 3.25626, 74.8097 3.55134, 75.1155 3.90581 L 75.9234 2.77584 C 75.9531 2.70432, 76.0152 2.66833, 76.1088 2.66788 L 76.1533 2.66788 C 76.3018 2.66833, 76.3782 2.74255, 76.3832 2.891 L 76.3832 6.8207 C 76.3832 6.9651, 76.3067 7.03932, 76.1533 7.04382 L 75.9905 7.04382 C 75.8717 7.04427, 75.7952 6.97724, 75.7606 6.84229, 75.7408 6.35828, 75.6445 5.899, 75.4718 5.46447, 75.2991 5.03038, 75.0665 4.65253, 74.775 4.3309, 74.4835 4.00972, 74.1448 3.75287, 73.7593 3.56079, 73.3743 3.36916, 72.9591 3.2729, 72.5142 3.27245, 71.9461 3.2729, 71.4175 3.393, 70.9281 3.63276, 70.4391 3.87297, 70.0217 4.20854, 69.6758 4.63993, 69.2952 5.12035, 69.0361 5.65879, 68.8976 6.25617, 68.759 6.85354, 68.6897 7.47115, 68.6897 8.10901, 68.6897 8.74282, 68.759 9.36089, 68.8976 9.96276, 69.0361 10.5651, 69.3002 11.1013, 69.6906 11.5709, 70.0464 12.0032, 70.4765 12.3428, 70.9803 12.5898, 71.4841 12.8372, 72.0203 12.9604, 72.5884 12.96, 72.8947 12.9604, 73.1862 12.9222, 73.4629 12.8453, 73.74 12.7688, 73.9833 12.6608, 74.1929 12.5214, 74.403 12.3824, 74.5713 12.2146, 74.6972 12.0176, 74.8232 11.821, 74.8861 11.6024, 74.8861 11.3622 L 74.8861 10.0955 C 74.8861 10.0001, 74.8627 9.92092, 74.816 9.8584, 74.7692 9.79632, 74.7035 9.75269, 74.6194 9.7284, 74.5452 9.7095, 74.4449 9.69196, 74.3189 9.67487, 74.1929 9.65822, 74.0611 9.64743, 73.9226 9.64248, 73.784 9.63798, 73.6383 9.63528, 73.4854 9.63483 L 72.9888 9.63483, 72.9888 9.03746 C 73.888 9.0667, 74.7674 9.08109, 75.627 9.08064, 76.2055 9.08109, 76.8056 9.06445, 77.4281 9.03026 L 77.4281 9.63483 Z" stroke="none" fill="#000000" />
			<rect />
		</svg>
	</g>
	<path d="M -78.9494 0 L 78.9494 0" fill="none" stroke="#000000" stroke-width="1.20000005" stroke-linecap="round" stroke-linejoin="round" marker-start="url(#CustomMarker-01)" marker-end="url(#CustomMarker-02)" transform="matrix(0.625 0 -0 0.625 57.8435 85.5507)" />
	<path d="M -78.9494 -15.1825 L -78.9494 15.1825" fill="none" stroke="#000000" stroke-width="0.800000012" stroke-linecap="round" stroke-linejoin="round" transform="matrix(0.625 0 -0 0.625 57.8435 85.5507)" />
	<path d="M 78.9494 -15.1825 L 78.9494 15.1825" fill="none" stroke="#000000" stroke-width="0.800000012" stroke-linecap="round" stroke-linejoin="round" transform="matrix(0.625 0 -0 0.625 57.8435 85.5507)" />
	<g transform="matrix(1 0 -0 1 42.4072 88.6884)">
		<svg width="107.972839" height="105.085678">
			<defs />
			<path d="M 5.36074 13.174 C 4.46982 13.1458, 3.6027 13.1317, 2.75983 13.1317, 1.9174 13.1317, 1.05028 13.1458, 0.158917 13.174 L 0.158917 12.5674, 0.660585 12.5674 C 0.820166 12.5679, 0.97049 12.5657, 1.11067 12.5608, 1.2513 12.5564, 1.38443 12.5445, 1.51051 12.5256, 1.63659 12.507, 1.74547 12.4881, 1.83717 12.4687, 1.91475 12.455, 1.97911 12.4118, 2.02981 12.3386, 2.08095 12.2659, 2.10607 12.1848, 2.10607 12.0949 L 2.10607 4.14577 C 1.86406 4.26391, 1.56605 4.3534, 1.21251 4.41423, 0.858959 4.47551, 0.471468 4.50593, 0.0500318 4.50549 L 0.0500318 3.90595 C 0.63149 3.90639, 1.16798 3.83718, 1.65951 3.69832, 2.15104 3.5599, 2.576 3.29981, 2.9344 2.91849 L 3.15966 2.91849 C 3.31925 2.91893, 3.39904 2.99652, 3.39904 3.15125 L 3.39904 12.0949 C 3.39904 12.1892, 3.42328 12.2716, 3.47177 12.3422, 3.52026 12.4127, 3.5908 12.455, 3.68249 12.4687, 3.76008 12.4881, 3.85971 12.507, 3.98049 12.5256, 4.10172 12.5445, 4.23838 12.5564, 4.39091 12.5608, 4.54344 12.5657, 4.69244 12.5679, 4.83747 12.5674 L 5.36074 12.5674, 5.36074 13.174 Z" stroke="none" fill="#000000" />
			<polyline points="-4.1272 -4.1272 4.1272 4.1272" fill="none" stroke="#000000" stroke-width="0.589599967" stroke-linecap="round" stroke-linejoin="round" transform="matrix(1 0 0 1 13.8209 8.80585)" />
			<polyline points="4.1272 -4.1272 -4.1272 4.1272" fill="none" stroke="#000000" stroke-width="0.589599967" stroke-linecap="round" stroke-linejoin="round" transform="matrix(1 0 0 1 13.8209 8.80585)" />
			<path d="M 26.609 7.12299 C 26.555 7.26738, 26.4583 7.33935, 26.3197 7.33891 L 24.941 7.33891, 23.8439 11.5925 C 23.7553 11.9002, 23.7107 12.1687, 23.7107 12.3986, 23.7107 12.4616, 23.7157 12.5214, 23.7256 12.5785, 23.7503 12.8093, 23.8664 12.9244, 24.0737 12.924, 24.2618 12.9244, 24.4394 12.8732, 24.6077 12.7697, 24.7759 12.6667, 24.9338 12.5286, 25.0823 12.3558, 25.2307 12.1831, 25.3638 11.9793, 25.4826 11.7441, 25.6014 11.5093, 25.7098 11.2619, 25.8083 11.0023, 25.8236 10.9452, 25.8555 10.9034, 25.905 10.8768, 25.9545 10.8507, 26.0013 10.8372, 26.0458 10.8368 L 26.2311 10.8368 C 26.2954 10.8372, 26.3472 10.8638, 26.3868 10.9159, 26.4016 10.9501, 26.4088 10.9812, 26.4088 11.0095 L 26.4088 11.0527 C 26.3053 11.3361, 26.1753 11.6159, 26.0197 11.8916, 25.8641 12.1678, 25.685 12.4161, 25.4826 12.6365, 25.2802 12.8574, 25.0562 13.0396, 24.8115 13.1831, 24.5667 13.327, 24.2964 13.399, 23.9995 13.399, 23.7427 13.399, 23.5204 13.35, 23.3324 13.2515, 23.1448 13.1534, 22.9941 13.0171, 22.8803 12.8417, 22.767 12.6667, 22.7 12.4661, 22.6802 12.2402, 22.6703 12.1831, 22.6653 12.1206, 22.6653 12.0531, 22.6653 11.8903, 22.6851 11.7247, 22.7247 11.5565 L 23.8142 7.33891, 22.4206 7.33891 C 22.2974 7.33935, 22.2303 7.27458, 22.2204 7.14458 L 22.2204 7.087, 22.265 6.96465 C 22.3145 6.82115, 22.4062 6.74918, 22.5394 6.74873 L 23.955 6.74873, 24.5632 4.38803 C 24.6077 4.21079, 24.6976 4.07899, 24.8335 3.99263, 24.9693 3.90626, 25.1065 3.86308, 25.2451 3.86263, 25.3886 3.86308, 25.5073 3.90851, 25.6009 3.99937, 25.6652 4.06235, 25.6972 4.14872, 25.6972 4.25848, 25.6972 4.31155, 25.6922 4.36464, 25.6823 4.41681 L 25.0818 6.74873, 26.4461 6.74873 C 26.5748 6.74918, 26.6387 6.81395, 26.6387 6.94306 L 26.6387 6.99344 Z" stroke="none" fill="#000000" />
			<path d="M 0.96213 3.54383 C 0.945504 3.60832, 0.937191 3.6582, 0.937191 3.69296, 0.937191 3.71991, 0.942733 3.73729, 0.953817 3.74535, 0.981526 3.76702, 1.04249 3.78037, 1.1367 3.78566, 1.23091 3.7912, 1.33722 3.79372, 1.45611 3.79372, 1.49491 3.79372, 1.52967 3.80732, 1.5599 3.83402, 1.57098 3.85569, 1.57652 3.87433, 1.57652 3.89045, 1.57652 3.90657, 1.57249 3.92144, 1.56418 3.93479 L 1.55159 3.99927 C 1.54352 4.03706, 1.52337 4.06653, 1.49163 4.08794, 1.45989 4.10961, 1.42589 4.12019, 1.38986 4.12019, 1.10219 4.10407, 0.80998 4.096, 0.51374 4.096, 0.220524 4.096, -0.0769755 4.10407, -0.378757 4.12019, -0.420069 4.12019, -0.450549 4.10684, -0.469946 4.07988, -0.486572 4.06376, -0.494885 4.04512, -0.494885 4.02346, -0.494885 4.00733, -0.490602 3.99272, -0.482541 3.97912 L -0.469946 3.91463 C -0.453321 3.83151, -0.400924 3.7912, -0.312254 3.79372, -0.198897 3.79372, -0.0928454 3.7912, 0.00539732 3.78566, 0.10364 3.78037, 0.1777 3.76551, 0.227325 3.74132, 0.268889 3.7252, 0.304911 3.65416, 0.335392 3.52771 L 0.667402 2.2299 C 0.603922 2.29187, 0.49258 2.37122, 0.333377 2.46795, 0.174173 2.56468, 0.00187063 2.61279, -0.183531 2.61279, -0.402184 2.61279, -0.58557 2.55788, -0.73369 2.44779, -0.88181 2.33771, -0.997182 2.19917, -1.08031 2.0324, -1.17981 1.8339, -1.23246 1.62029, -1.238 1.39156 L -1.238 1.3311 C -1.238 1.119, -1.20878 0.906896, -1.15084 0.694289, -1.08434 0.460774, -0.99164 0.229778, -0.872741 0.00130033, -0.75359 -0.226925, -0.595898 -0.43928, -0.399413 -0.635766, -0.238698 -0.796732, -0.0553117 -0.932257, 0.150746 -1.04259, 0.356804 -1.15267, 0.566388 -1.20784, 0.779499 -1.20809, 0.979007 -1.20784, 1.13871 -1.15141, 1.25912 -1.03856, 1.37954 -0.925708, 1.4604 -0.819656, 1.50196 -0.720406, 1.53798 -0.77129, 1.59542 -0.839556, 1.67426 -0.925708, 1.75311 -1.01161, 1.83951 -1.09222, 1.93347 -1.16779, 1.97227 -1.19978, 2.0098 -1.2159, 2.04557 -1.21615, 2.08739 -1.2159, 2.11636 -1.19449, 2.13273 -1.15167, 2.14129 -1.13529, 2.14532 -1.11917, 2.14532 -1.1033 L 2.14532 -1.07509 Z M 1.29842 -0.188384 C 1.28734 -0.236497, 1.27777 -0.286878, 1.26945 -0.339274, 1.26114 -0.39167, 1.24855 -0.443311, 1.23192 -0.494699, 1.18784 -0.620651, 1.12486 -0.726199, 1.04324 -0.810839, 0.961626 -0.895479, 0.858345 -0.937799, 0.733904 -0.938051, 0.617777 -0.937799, 0.502908 -0.895983, 0.389299 -0.812855, 0.275942 -0.729474, 0.172158 -0.622163, 0.0779457 -0.490669, -0.0548079 -0.305015, -0.15431 -0.112057, -0.220813 0.0879555, -0.287315 0.288219, -0.348276 0.497048, -0.403695 0.714441, -0.458862 0.929568, -0.504457 1.13789, -0.540731 1.33916, -0.562647 1.44144, -0.573731 1.53817, -0.573731 1.62936, -0.573731 1.72634, -0.562647 1.8203, -0.540731 1.91149, -0.515541 2.03795, -0.470702 2.14224, -0.405711 2.2241, -0.340719 2.30622, -0.250034 2.34703, -0.133906 2.34678, -0.00644219 2.34703, 0.121525 2.3027, 0.250248 2.21403, 0.378971 2.12536, 0.498626 2.01653, 0.609212 1.88731, 0.653547 1.8339, 0.695867 1.78226, 0.73592 1.73239, 0.776224 1.68276, 0.811491 1.62961, 0.84172 1.57293 L 1.29842 -0.188384 Z" stroke="none" fill="#000000" transform="matrix(1.12 0 0 1 28.6437 12.8121)" />
			<rect />
		</svg>
	</g>
	<path d="M -174.925 -28.4521 L 174.925 -28.4521, 174.925 28.4521, -174.925 28.4521 Z" fill="none" stroke="#000000" stroke-width="1.60000002" stroke-linecap="round" stroke-linejoin="round" transform="matrix(0.625 0 -0 0.625 216.515 58.279)" />
	<g transform="matrix(1 0 -0 1 169.384 49.031)">
		<svg width="288.073273" height="51.0856972">
			<defs />
			<path d="M 8.32249 15.2619 C 8.27301 14.9264, 8.18889 14.5233, 8.07013 14.0528, 8.63377 14.082, 9.31076 14.0964, 10.1016 14.096, 10.5563 14.0964, 10.8753 14.0065, 11.0579 13.8265, 11.2405 13.6466, 11.3318 13.3286, 11.3318 12.8724 L 11.3318 5.86951, 6.52812 5.86951, 6.52812 4.79712, 11.3318 4.79712, 11.3318 1.81745, 12.4663 1.81745, 12.4663 4.79712, 14.2233 4.79712, 14.2233 5.86951, 12.4663 5.86951, 12.4663 13.1891 C 12.4663 13.8661, 12.3134 14.3672, 12.0066 14.6934, 11.6904 15.0294, 11.1838 15.2093, 10.4871 15.2332, 9.67647 15.2525, 8.95495 15.2619, 8.32249 15.2619 Z M 1.06494 14.6862 L 1.06494 3.02659, 5.83133 3.02659, 5.83133 14.5062, 4.75669 14.5062, 4.75669 13.3547, 2.12474 13.3547, 2.12474 14.6862 Z M 2.12474 12.347 L 4.75669 12.347, 4.75669 8.66925, 2.12474 8.66925 Z M 8.63377 10.9796 C 8.22847 10.1595, 7.66259 9.11098, 6.93611 7.83436 L 7.85511 7.33775 C 8.43359 8.2788, 9.02692 9.29811, 9.63464 10.3966 Z M 2.12474 7.68322 L 4.75669 7.68322, 4.75669 4.02701, 2.12474 4.02701 Z" stroke="none" fill="#000000" />
			<path d="M 16.252 15.4131 L 16.252 4.81151, 17.386 4.81151, 17.386 15.4131 Z M 24.6287 15.3843 C 24.5847 15.0532, 24.5005 14.6646, 24.3768 14.2183, 25.0489 14.2471, 25.6989 14.2615, 26.3264 14.2615, 26.7663 14.2615, 27.0839 14.1684, 27.2791 13.9813, 27.4744 13.7942, 27.572 13.4847, 27.572 13.0524 L 27.572 3.64556, 20.5515 3.64556, 20.5515 2.58756, 28.7136 2.58756, 28.7136 13.2683 C 28.7136 13.9741, 28.558 14.4945, 28.2467 14.8301, 27.9354 15.1661, 27.451 15.3411, 26.7933 15.3555, 26.7834 15.3555, 26.7713 15.3555, 26.7564 15.3555, 25.8473 15.3748, 25.1379 15.3843, 24.6287 15.3843 Z M 19.5065 12.5702 L 19.5065 5.50965, 25.348 5.50965, 25.348 12.5702 Z M 20.5663 11.5913 L 24.2729 11.5913, 24.2729 9.51852, 20.5663 9.51852 Z M 20.5663 8.54689 L 24.2729 8.54689, 24.2729 6.48848, 20.5663 6.48848 Z M 18.5871 4.53802 C 17.8755 3.70853, 17.2727 3.03424, 16.7783 2.51558 L 17.6973 1.83185 C 18.3599 2.4751, 18.9874 3.12061, 19.5803 3.76791 Z" stroke="none" fill="#000000" />
			<path d="M 36.056 15.5354 C 35.9625 15.382, 35.7524 15.0798, 35.4258 14.6286, 35.4015 14.5953, 35.384 14.5688, 35.3741 14.5494, 37.0151 13.9934, 38.3173 13.3934, 39.2809 12.7501, 38.876 12.3282, 38.5076 11.8293, 38.1761 11.2531, 37.8648 10.716, 37.5634 10.0709, 37.2719 9.317 L 37.7906 9.18025, 36.805 9.18025, 36.805 8.18703, 43.395 8.18703, 43.395 9.24503 C 43.0396 10.0034, 42.6739 10.6561, 42.2979 11.2027, 41.8975 11.7983, 41.4482 12.3259, 40.9488 12.7861, 41.7495 13.3529, 42.8912 13.8517, 44.3738 14.2831, 44.1759 14.5953, 43.9735 14.943, 43.7657 15.3267, 42.1697 14.7559, 40.9515 14.1446, 40.1113 13.4914, 39.0933 14.2449, 37.7416 14.9264, 36.056 15.5354 Z M 31.8677 15.4563 L 31.8677 13.0092 C 31.7049 13.024, 31.475 13.0479, 31.1781 13.0812, 30.9955 13.1055, 30.8623 13.1226, 30.7778 13.1316 L 30.6073 12.0736, 31.8677 11.9656, 31.8677 2.76749 C 33.6274 2.65278, 35.1447 2.4634, 36.4195 2.1989 L 36.8199 3.17773 C 36.2666 3.27894, 35.6067 3.37746, 34.8402 3.47282, 34.0696 3.56909, 33.447 3.63161, 32.972 3.65995 L 32.972 5.58162, 36.308 5.58162, 36.308 6.53886, 32.972 6.53886, 32.972 8.59008, 36.2639 8.59008, 36.2639 9.56171, 32.972 9.56171, 32.972 11.8432 C 33.2293 11.8149, 33.6171 11.774, 34.1362 11.7209, 35.4758 11.5823, 36.37 11.4816, 36.8199 11.4186, 36.81 11.6543, 36.805 11.9926, 36.805 12.4334, 36.617 12.4577, 36.3134 12.4914, 35.8932 12.5342, 34.5932 12.6786, 33.6198 12.7915, 32.972 12.8724 L 32.972 15.4563 Z M 40.1261 12.0736 C 40.9218 11.3781, 41.6164 10.4137, 42.2093 9.18025 L 38.3466 9.18025 C 38.8855 10.438, 39.4788 11.4024, 40.1261 12.0736 Z M 37.0421 7.84876 C 36.7654 7.53748, 36.5009 7.28557, 36.249 7.09305, 36.7434 6.79121, 37.1041 6.51547, 37.3313 6.26536, 37.5787 5.99726, 37.7492 5.67563, 37.8428 5.30093, 37.9318 4.96086, 37.9759 4.48089, 37.9759 3.86147 L 37.9759 2.58756, 42.7131 2.58756, 42.7131 5.43048 C 42.7131 5.75705, 42.7688 5.98062, 42.88 6.10027, 42.9915 6.22038, 43.1953 6.28021, 43.4917 6.27976, 43.897 6.28021, 44.1912 6.27526, 44.3738 6.26536, 44.3194 6.46733, 44.2726 6.72419, 44.233 7.03547, 44.2231 7.13668, 44.2132 7.2136, 44.2034 7.26578, 43.9564 7.27568, 43.5632 7.28062, 43.0243 7.28018, 42.5453 7.28062, 42.1971 7.15827, 41.9794 6.91311, 41.7522 6.66391, 41.6384 6.26086, 41.6384 5.70397 L 41.6384 3.54479, 39.051 3.54479, 39.051 3.91905 C 39.051 4.62978, 38.9966 5.19567, 38.8877 5.61761, 38.7744 6.06923, 38.5715 6.46733, 38.28 6.81235, 38.0083 7.13893, 37.5958 7.4844, 37.0421 7.84876 Z" stroke="none" fill="#000000" />
			<path d="M 53.1364 13.6162 C 52.2455 13.588, 51.3788 13.5739, 50.5359 13.5739, 49.6935 13.5739, 48.8268 13.588, 47.9359 13.6162 L 47.9359 13.0096, 48.4371 13.0096 C 48.5967 13.0101, 48.747 13.0079, 48.8872 13.003, 49.0278 12.9986, 49.161 12.9867, 49.287 12.9678, 49.4131 12.9492, 49.522 12.9303, 49.6137 12.9109, 49.6913 12.8972, 49.7552 12.854, 49.8059 12.7808, 49.857 12.7081, 49.8822 12.627, 49.8822 12.5371 L 49.8822 4.58797 C 49.6406 4.70611, 49.3426 4.7956, 48.989 4.85643, 48.6355 4.91771, 48.2484 4.94813, 47.827 4.94769 L 47.827 4.34815 C 48.408 4.34859, 48.9445 4.27938, 49.436 4.14052, 49.9276 4.0021, 50.3525 3.74201, 50.7105 3.36069 L 50.9357 3.36069 C 51.0953 3.36113, 51.1751 3.43871, 51.1751 3.59345 L 51.1751 12.5371 C 51.1751 12.6314, 51.1994 12.7138, 51.2479 12.7844, 51.2963 12.8549, 51.3669 12.8972, 51.4586 12.9109, 51.5362 12.9303, 51.6358 12.9492, 51.7566 12.9678, 51.8774 12.9867, 52.014 12.9986, 52.1665 13.003, 52.3191 13.0079, 52.4681 13.0101, 52.6136 13.0096 L 53.1364 13.0096, 53.1364 13.6162 Z" stroke="none" fill="#000000" />
			<path d="M 71.8388 10.8903 C 71.8388 11.2745, 71.7462 11.6357, 71.5608 11.974, 71.3755 12.3122, 71.1299 12.6037, 70.8231 12.848, 70.4821 13.1269, 70.1043 13.332, 69.6891 13.4638, 69.2744 13.5956, 68.8493 13.6613, 68.4138 13.6613 L 62.3573 13.6613, 62.3573 13.0639 C 62.6295 13.0643, 62.8917 13.0607, 63.1436 13.0536, 63.3955 13.0464, 63.5858 13.0212, 63.714 12.9775, 63.7833 12.9541, 63.8355 12.9074, 63.8701 12.8376, 63.9048 12.7684, 63.9218 12.6901, 63.9218 12.6033 L 63.9218 4.49195 C 63.9218 4.40604, 63.9048 4.32822, 63.8701 4.25849, 63.8355 4.18922, 63.7833 4.14199, 63.714 4.1177, 63.5858 4.07496, 63.3955 4.05112, 63.1436 4.04617, 62.8917 4.04168, 62.6295 4.03898, 62.3573 4.03853 L 62.3573 3.44835, 67.9842 3.44835 C 68.4143 3.4488, 68.8389 3.50638, 69.2591 3.62154, 69.6792 3.73669, 70.0598 3.92607, 70.4007 4.18967, 70.7021 4.42043, 70.9468 4.69033, 71.1348 4.99981, 71.3229 5.30929, 71.4164 5.64622, 71.4164 6.01058, 71.4164 6.37089, 71.3215 6.70107, 71.1313 7.00065, 70.941 7.30069, 70.6976 7.55619, 70.4007 7.76671, 69.9365 8.07439, 69.5906 8.25163, 69.363 8.29931, 69.3778 8.29976, 69.5533 8.36228, 69.8893 8.48689, 70.2257 8.61194, 70.537 8.78422, 70.8231 9.00464, 71.125 9.2354, 71.3697 9.5125, 71.5572 9.83637, 71.7453 10.1603, 71.8388 10.5116, 71.8388 10.8903 Z M 69.793 6.01058 C 69.793 5.48338, 69.6126 5.02005, 69.2519 4.6215, 69.0836 4.43977, 68.8911 4.29718, 68.6734 4.19372, 68.4561 4.09071, 68.2263 4.03898, 67.9842 4.03853 L 66.0419 4.03853 C 65.9285 4.03898, 65.8111 4.04168, 65.6897 4.04617, 65.5687 4.05112, 65.4837 4.07271, 65.4342 4.1105, 65.3797 4.14918, 65.3487 4.20451, 65.3415 4.27649, 65.3343 4.34846, 65.3303 4.42043, 65.3303 4.49195 L 65.3303 8.11938, 67.5614 8.11938 C 67.8533 8.11983, 68.1363 8.0636, 68.4107 7.95069, 68.6851 7.83823, 68.9257 7.68574, 69.1331 7.49321, 69.573 7.08567, 69.793 6.59176, 69.793 6.01058 Z M 70.1709 10.8903 C 70.1709 10.5885, 70.1218 10.2983, 70.0229 10.0199, 69.9239 9.74191, 69.7782 9.48731, 69.5852 9.25654, 69.4125 9.05052, 69.2064 8.88768, 68.9667 8.76758, 68.7269 8.64793, 68.471 8.58765, 68.1993 8.5872 L 65.3303 8.5872, 65.3303 12.6033 C 65.3303 12.6851, 65.3343 12.7598, 65.3415 12.8268, 65.3487 12.8943, 65.3797 12.9469, 65.4342 12.9847, 65.4837 13.0234, 65.57 13.0464, 65.6933 13.0536, 65.817 13.0607, 65.933 13.0643, 66.0419 13.0639 L 67.9842 13.0639 C 68.2658 13.0643, 68.5416 13.0095, 68.8106 12.8988, 69.08 12.7886, 69.3184 12.6325, 69.5258 12.4305, 69.7287 12.22, 69.887 11.9825, 70.0004 11.7185, 70.1142 11.4549, 70.1709 11.1787, 70.1709 10.8903 Z" stroke="none" fill="#000000" />
			<path d="M 79.7262 10.8615 C 79.7262 11.2745, 79.6546 11.6694, 79.5116 12.0459, 79.3685 12.4229, 79.1508 12.7621, 78.8593 13.0639, 78.5827 13.3522, 78.2593 13.5776, 77.8886 13.7404, 77.5179 13.9037, 77.1302 13.9851, 76.7244 13.9851, 76.1073 13.9851, 75.554 13.8952, 75.0646 13.7153, 74.5756 13.5358, 74.1829 13.2969, 73.886 12.9991 L 73.3228 13.8988 C 73.2635 13.9564, 73.2041 13.9851, 73.1447 13.9851 L 73.0853 13.9851 C 72.9522 13.9851, 72.8807 13.9181, 72.8708 13.7836 L 72.8708 10.4081 C 72.8708 10.2696, 72.9423 10.1949, 73.0853 10.185 L 73.1744 10.185 C 73.3228 10.1854, 73.3966 10.2597, 73.3966 10.4081, 73.3966 10.8786, 73.4758 11.2988, 73.6341 11.6681, 73.7925 12.0378, 74.0147 12.3509, 74.3012 12.6073, 74.5878 12.8642, 74.9373 13.0607, 75.3498 13.1975, 75.7627 13.3342, 76.2206 13.4026, 76.7244 13.4022, 76.9768 13.4026, 77.2179 13.3513, 77.4473 13.2479, 77.6772 13.1449, 77.881 12.9973, 78.0586 12.8048, 78.4293 12.3973, 78.6124 11.9128, 78.6074 11.3509, 78.6074 11.1211, 78.5741 10.8971, 78.5076 10.6785, 78.441 10.4603, 78.3407 10.2637, 78.2071 10.0883, 78.0739 9.91329, 77.9183 9.7608, 77.7402 9.63125, 77.5625 9.5017, 77.3623 9.41039, 77.1396 9.35731 L 75.1608 8.89668 C 74.8154 8.81571, 74.5027 8.68391, 74.2234 8.50128, 73.9445 8.3191, 73.7034 8.10318, 73.501 7.85353, 73.2985 7.60432, 73.1429 7.32363, 73.034 7.01145, 72.9252 6.69972, 72.8708 6.37584, 72.8708 6.03937, 72.8708 5.65611, 72.9463 5.28545, 73.097 4.92784, 73.2477 4.57067, 73.4636 4.25265, 73.7452 3.97375, 74.0223 3.70565, 74.3484 3.49468, 74.7236 3.34084, 75.0992 3.18745, 75.482 3.11053, 75.8725 3.11008, 76.4213 3.11053, 76.9003 3.20409, 77.3106 3.39122, 77.7208 3.57835, 78.0442 3.81091, 78.2813 4.08891 L 78.8445 3.21804 C 78.889 3.14651, 78.9506 3.11053, 79.0298 3.11008 L 79.0816 3.11008 C 79.23 3.11053, 79.3038 3.18475, 79.3038 3.33319 L 79.3038 6.70871 C 79.3038 6.84366, 79.23 6.91069, 79.0816 6.91024 L 79.0001 6.91024 C 78.8814 6.91069, 78.8072 6.85086, 78.7775 6.7303, 78.7581 6.26518, 78.6754 5.84459, 78.5296 5.46763, 78.3839 5.09113, 78.1886 4.7686, 77.9439 4.4996, 77.6992 4.23105, 77.4055 4.02458, 77.0618 3.88064, 76.7186 3.73669, 76.3223 3.66472, 75.8725 3.66427, 75.3538 3.66472, 74.9067 3.8496, 74.5306 4.21846, 74.3529 4.39164, 74.2158 4.59092, 74.1195 4.81628, 74.0232 5.0421, 73.9751 5.27915, 73.9751 5.52836, 73.9751 5.74473, 74.0124 5.94985, 74.0862 6.14418, 74.1604 6.3385, 74.2603 6.51619, 74.3862 6.67677, 74.5122 6.83781, 74.6629 6.97546, 74.8383 7.09062, 75.0137 7.20577, 75.2081 7.28494, 75.4204 7.32768 L 77.3915 7.7955 C 77.7478 7.87737, 78.0712 8.01816, 78.3627 8.21699, 78.6542 8.41626, 78.9003 8.65017, 79.1004 8.91872, 79.3006 9.18772, 79.4549 9.48731, 79.5633 9.81838, 79.6722 10.1495, 79.7262 10.4972, 79.7262 10.8615 Z" stroke="none" fill="#000000" />
			<path d="M 88.2876 13.6162 C 87.3967 13.588, 86.53 13.5739, 85.6871 13.5739, 84.8447 13.5739, 83.978 13.588, 83.0871 13.6162 L 83.0871 13.0096, 83.5883 13.0096 C 83.7479 13.0101, 83.8982 13.0079, 84.0384 13.003, 84.179 12.9986, 84.3121 12.9867, 84.4382 12.9678, 84.5643 12.9492, 84.6732 12.9303, 84.7649 12.9109, 84.8425 12.8972, 84.9064 12.854, 84.9571 12.7808, 85.0082 12.7081, 85.0333 12.627, 85.0333 12.5371 L 85.0333 4.58797 C 84.7918 4.70611, 84.4938 4.7956, 84.1402 4.85643, 83.7867 4.91771, 83.3996 4.94813, 82.9782 4.94769 L 82.9782 4.34815 C 83.5592 4.34859, 84.0957 4.27938, 84.5872 4.14052, 85.0788 4.0021, 85.5037 3.74201, 85.8617 3.36069 L 86.0869 3.36069 C 86.2465 3.36113, 86.3263 3.43871, 86.3263 3.59345 L 86.3263 12.5371 C 86.3263 12.6314, 86.3506 12.7138, 86.399 12.7844, 86.4475 12.8549, 86.5181 12.8972, 86.6098 12.9109, 86.6874 12.9303, 86.787 12.9492, 86.9078 12.9678, 87.0286 12.9867, 87.1652 12.9986, 87.3177 13.003, 87.4703 13.0079, 87.6193 13.0101, 87.7647 13.0096 L 88.2876 13.0096, 88.2876 13.6162 Z" stroke="none" fill="#000000" />
			<path d="M 1.21527 7.03705 C -3.58997 3.87038, -3.58997 -3.87038, 1.21527 -7.03705 L 1.96995 -7.03705 C -2.36361 -3.87038, -2.36361 3.87038, 1.96995 7.03705" stroke="none" fill="#000000" transform="matrix(1 0 -0 1 59.6316 9.24805)" />
			<path d="M 1.21527 7.03705 C -3.58997 3.87038, -3.58997 -3.87038, 1.21527 -7.03705 L 1.96995 -7.03705 C -2.36361 -3.87038, -2.36361 3.87038, 1.96995 7.03705" stroke="none" fill="#000000" transform="matrix(-1 1.50996e-007 -1.50996e-007 -1 92.051 9.24805)" />
			<rect />
		</svg>
	</g>
	<path d="M -174.925 0 L 174.925 0" fill="none" stroke="#000000" stroke-width="1.20000005" stroke-linecap="round" stroke-linejoin="round" marker-start="url(#CustomMarker-03)" marker-end="url(#CustomMarker-04)" transform="matrix(0.625 0 -0 0.625 216.515 85.5507)" />
	<path d="M -174.925 -15.1825 L -174.925 15.1825" fill="none" stroke="#000000" stroke-width="0.800000012" stroke-linecap="round" stroke-linejoin="round" transform="matrix(0.625 0 -0 0.625 216.515 85.5507)" />
	<path d="M 174.925 -15.1825 L 174.925 15.1825" fill="none" stroke="#000000" stroke-width="0.800000012" stroke-linecap="round" stroke-linejoin="round" transform="matrix(0.625 0 -0 0.625 216.515 85.5507)" />
	<g transform="matrix(1 0 -0 1 205.788 88.6884)">
		<svg width="68.9939575" height="41.9571304">
			<defs />
			<path d="M 4.38628 7.12299 C 4.3323 7.26738, 4.23559 7.33935, 4.09704 7.33891 L 2.71832 7.33891, 1.62118 11.5925 C 1.53257 11.9002, 1.48803 12.1687, 1.48803 12.3986, 1.48803 12.4616, 1.49298 12.5214, 1.50288 12.5785, 1.52762 12.8093, 1.64368 12.9244, 1.85105 12.924, 2.03908 12.9244, 2.21676 12.8732, 2.38499 12.7697, 2.55323 12.6667, 2.71112 12.5286, 2.85956 12.3558, 3.00801 12.1831, 3.14116 11.9793, 3.25991 11.7441, 3.37867 11.5093, 3.48708 11.2619, 3.58559 11.0023, 3.60088 10.9452, 3.63282 10.9034, 3.6823 10.8768, 3.73178 10.8507, 3.77856 10.8372, 3.8231 10.8368 L 4.00843 10.8368 C 4.07275 10.8372, 4.12448 10.8638, 4.16407 10.9159, 4.17891 10.9501, 4.18611 10.9812, 4.18611 11.0095 L 4.18611 11.0527 C 4.08265 11.3361, 3.95265 11.6159, 3.79701 11.8916, 3.64137 12.1678, 3.46233 12.4161, 3.25991 12.6365, 3.05749 12.8574, 2.83347 13.0396, 2.58877 13.1831, 2.34406 13.327, 2.07371 13.399, 1.77682 13.399, 1.51997 13.399, 1.29776 13.35, 1.10973 13.2515, 0.92215 13.1534, 0.771457 13.0171, 0.65765 12.8417, 0.544293 12.6667, 0.477269 12.4661, 0.457476 12.2402, 0.44758 12.1831, 0.442632 12.1206, 0.442632 12.0531, 0.442632 11.8903, 0.462424 11.7247, 0.502009 11.5565 L 1.5915 7.33891, 0.197925 7.33891 C 0.0746717 7.33935, 0.0076471 7.27458, -0.00224912 7.14458 L -0.00224912 7.087, 0.042284 6.96465 C 0.0917652 6.82115, 0.18353 6.74918, 0.31668 6.74873 L 1.73229 6.74873, 2.34046 4.38803 C 2.38499 4.21079, 2.47496 4.07899, 2.61081 3.99263, 2.74666 3.90626, 2.88385 3.86308, 3.0224 3.86263, 3.1659 3.86308, 3.28465 3.90851, 3.37822 3.99937, 3.44254 4.06235, 3.47448 4.14872, 3.47448 4.25848, 3.47448 4.31155, 3.46953 4.36464, 3.45964 4.41681 L 2.85911 6.74873, 4.22344 6.74873 C 4.3521 6.74918, 4.41597 6.81395, 4.41597 6.94306 L 4.41597 6.99344 Z" stroke="none" fill="#000000" />
			<path d="M 2.96617 0.9603 C 2.96617 1.17543, 2.91428 1.37771, 2.81049 1.56714, 2.70671 1.75657, 2.56917 1.9198, 2.39737 2.05659, 2.20643 2.21277, 1.99483 2.32764, 1.76232 2.40144, 1.53006 2.47525, 1.29201 2.51203, 1.04842 2.51203 L -2.34246 2.51203, -2.34246 2.1775 C -2.19031 2.17775, -2.04345 2.17574, -1.90239 2.17171, -1.76132 2.16768, -1.65476 2.15357, -1.58297 2.12914, -1.54418 2.11604, -1.51496 2.08984, -1.49556 2.05079, -1.47616 2.012, -1.46659 1.96817, -1.46659 1.91955 L -1.46659 -2.62279 C -1.46659 -2.6709, -1.47616 -2.71448, -1.49556 -2.75353, -1.51496 -2.79232, -1.54418 -2.81877, -1.58297 -2.83237, -1.65476 -2.8563, -1.76132 -2.86965, -1.90239 -2.87242, -2.04345 -2.87494, -2.19031 -2.87645, -2.34246 -2.87671 L -2.34246 -3.2072, 0.807853 -3.2072 C 1.04867 -3.20695, 1.28647 -3.17471, 1.52175 -3.11022, 1.75703 -3.04573, 1.96989 -2.93968, 2.16083 -2.79207, 2.32961 -2.66284, 2.46664 -2.5117, 2.57169 -2.33839, 2.67698 -2.16508, 2.72938 -1.9764, 2.72938 -1.77236, 2.72938 -1.57058, 2.67623 -1.38568, 2.56967 -1.21792, 2.46337 -1.0499, 2.32709 -0.906815, 2.16083 -0.788924, 1.90087 -0.616621, 1.70715 -0.517371, 1.57969 -0.490669, 1.58825 -0.490417, 1.6865 -0.455402, 1.87467 -0.385625, 2.06284 -0.315595, 2.23716 -0.219116, 2.39737 -0.0956829, 2.56615 0.0335441, 2.70318 0.188717, 2.80848 0.370088, 2.91377 0.551459, 2.96617 0.748197, 2.96617 0.9603 Z M 1.82051 -1.77236 C 1.82051 -2.06759, 1.71949 -2.32705, 1.51747 -2.55024, 1.42351 -2.65201, 1.31569 -2.73186, 1.19377 -2.7898, 1.0721 -2.84749, 0.943378 -2.87645, 0.807853 -2.87671 L -0.279618 -2.87671 C -0.343097 -2.87645, -0.408844 -2.87494, -0.476607 -2.87242, -0.544369 -2.86965, -0.592231 -2.85756, -0.61994 -2.8364, -0.650169 -2.81474, -0.66755 -2.78375, -0.671833 -2.74345, -0.675863 -2.70314, -0.67813 -2.66284, -0.67813 -2.62279 L -0.67813 -0.59143, 0.571315 -0.59143 C 0.734549 -0.591179, 0.892997 -0.622667, 1.04666 -0.685895, 1.20032 -0.748871, 1.33509 -0.834266, 1.45122 -0.942081, 1.69758 -1.17031, 1.82051 -1.4469, 1.82051 -1.77236 Z M 2.03211 0.9603 C 2.03211 0.791272, 2.00465 0.628794, 1.94923 0.472865, 1.89381 0.317188, 1.8122 0.17461, 1.70438 0.0453835, 1.60765 -0.0699887, 1.49203 -0.161178, 1.35776 -0.228436, 1.22375 -0.295443, 1.08041 -0.329198, 0.928263 -0.32945 L -0.67813 -0.32945, -0.67813 1.91955 C -0.67813 1.9654, -0.675863 2.00721, -0.671833 2.04475, -0.66755 2.08253, -0.650169 2.11201, -0.61994 2.13317, -0.592231 2.15483, -0.543613 2.16768, -0.474591 2.17171, -0.40557 2.17574, -0.340579 2.17775, -0.279618 2.1775 L 0.807853 2.1775 C 0.965545 2.17775, 1.11996 2.14702, 1.2706 2.08505, 1.42149 2.02334, 1.555 1.93593, 1.67113 1.82282, 1.78474 1.70493, 1.87341 1.57192, 1.93689 1.42406, 2.00037 1.27644, 2.03211 1.12177, 2.03211 0.9603 Z" stroke="none" fill="#000000" transform="matrix(1.12 0 0 1 7.52797 12.8121)" />
			<path d="M 2.26139 0.944178 C 2.26139 1.17543, 2.22134 1.3966, 2.14124 1.60744, 2.06113 1.81854, 1.93921 2.00847, 1.77598 2.1775, 1.62105 2.33897, 1.43994 2.46518, 1.23237 2.55637, 1.0248 2.64781, 0.807655 2.6934, 0.580438 2.6934, 0.234825 2.6934, -0.0750173 2.64302, -0.349089 2.54226, -0.622909 2.44175, -0.842822 2.30799, -1.00908 2.14123 L -1.32446 2.64504 C -1.35771 2.67728, -1.39097 2.6934, -1.42422 2.6934 L -1.45747 2.6934 C -1.53203 2.6934, -1.57208 2.65587, -1.57763 2.58055 L -1.57763 0.690259 C -1.57763 0.612672, -1.53757 0.570856, -1.45747 0.565314 L -1.40759 0.565314 C -1.32446 0.565566, -1.28315 0.60713, -1.28315 0.690259, -1.28315 0.95375, -1.23882 1.18903, -1.15014 1.39584, -1.06147 1.60291, -0.937034 1.77823, -0.776571 1.92182, -0.616108 2.06566, -0.420378 2.17574, -0.189382 2.25232, 0.0418663 2.3289, 0.298305 2.36719, 0.580438 2.36693, 0.721756 2.36719, 0.856777 2.33847, 0.985248 2.28053, 1.11397 2.22284, 1.22808 2.14022, 1.32759 2.0324, 1.53515 1.80418, 1.63768 1.53288, 1.63491 1.21825, 1.63491 1.08953, 1.61627 0.964079, 1.57899 0.841653, 1.5417 0.71948, 1.48553 0.609397, 1.41071 0.511155, 1.33615 0.413164, 1.24899 0.327768, 1.14924 0.25522, 1.04974 0.182671, 0.937638 0.131535, 0.812945 0.10181 L -0.295182 -0.15614 C -0.488644 -0.201483, -0.663718 -0.275291, -0.82015 -0.377564, -0.976331 -0.479585, -1.11135 -0.600499, -1.22471 -0.740306, -1.33807 -0.879861, -1.42522 -1.03705, -1.48619 -1.21187, -1.54715 -1.38644, -1.57763 -1.56781, -1.57763 -1.75624, -1.57763 -1.97086, -1.53531 -2.17843, -1.45092 -2.37869, -1.36653 -2.5787, -1.24562 -2.7568, -1.08792 -2.91298, -0.932751 -3.06312, -0.750121 -3.18126, -0.540033 -3.26741, -0.329693 -3.35331, -0.115322 -3.39639, 0.103331 -3.39664, 0.410654 -3.39639, 0.678932 -3.34399, 0.908669 -3.2392, 1.13841 -3.1344, 1.31952 -3.00417, 1.45228 -2.84849 L 1.76766 -3.33618 C 1.7926 -3.37623, 1.82711 -3.39639, 1.87145 -3.39664 L 1.90042 -3.39664 C 1.98354 -3.39639, 2.02486 -3.35482, 2.02486 -3.27169 L 2.02486 -1.3814 C 2.02486 -1.30583, 1.98354 -1.2683, 1.90042 -1.26855 L 1.85482 -1.26855 C 1.78832 -1.2683, 1.74675 -1.3018, 1.73013 -1.36931, 1.7193 -1.62978, 1.67295 -1.86531, 1.59133 -2.07641, 1.50971 -2.28725, 1.40039 -2.46787, 1.26335 -2.6185, 1.12631 -2.76889, 0.961821 -2.88452, 0.769366 -2.96513, 0.577163 -3.04573, 0.355235 -3.08604, 0.103331 -3.08629, -0.187115 -3.08604, -0.437508 -2.98251, -0.6481 -2.77594, -0.747602 -2.67896, -0.824433 -2.56737, -0.87834 -2.44116, -0.932248 -2.31471, -0.959201 -2.18195, -0.959201 -2.0424, -0.959201 -1.92123, -0.938293 -1.80637, -0.896981 -1.69754, -0.855417 -1.58872, -0.799494 -1.48922, -0.728961 -1.39929, -0.658428 -1.30911, -0.57404 -1.23202, -0.475797 -1.16754, -0.377554 -1.10305, -0.268732 -1.05871, -0.149833 -1.03478 L 0.954012 -0.772802 C 1.15352 -0.726955, 1.33464 -0.648109, 1.49787 -0.536767, 1.66111 -0.425174, 1.7989 -0.294183, 1.911 -0.143797, 2.02309 0.00684214, 2.1095 0.17461, 2.17021 0.360012, 2.23117 0.545414, 2.26139 0.740136, 2.26139 0.944178 Z" stroke="none" fill="#000000" transform="matrix(1.12 0 0 1 13.264 12.8121)" />
			<path d="M 1.86654 2.51203 C 1.35744 2.49591, 0.862195 2.48785, 0.380554 2.48785, -0.100835 2.48785, -0.596079 2.49591, -1.10518 2.51203 L -1.10518 2.16541, -0.818762 2.16541 C -0.727573 2.16566, -0.641673 2.1644, -0.561568 2.16163, -0.48121 2.15911, -0.405135 2.15231, -0.333091 2.14148, -0.261046 2.1309, -0.198826 2.12007, -0.14643 2.10898, -0.102094 2.10117, -0.0655683 2.07649, -0.0365993 2.03467, -0.00737846 1.99311, 0.00698006 1.94676, 0.00698006 1.89537 L 0.00698006 -2.64697 C -0.131063 -2.57946, -0.301351 -2.52832, -0.503378 -2.49356, -0.705405 -2.45855, -0.926577 -2.44116, -1.1674 -2.44142 L -1.1674 -2.78401 C -0.835388 -2.78375, -0.52882 -2.8233, -0.247947 -2.90265, 0.0329263 -2.98175, 0.275762 -3.13037, 0.480308 -3.34827 L 0.609031 -3.34827 C 0.700221 -3.34802, 0.745815 -3.30368, 0.745815 -3.21527 L 0.745815 1.89537 C 0.745815 1.94928, 0.75967 1.99638, 0.78738 2.03669, 0.815089 2.07699, 0.855394 2.10117, 0.90779 2.10898, 0.952125 2.12007, 1.00906 2.1309, 1.07808 2.14148, 1.1471 2.15231, 1.22519 2.15911, 1.31235 2.16163, 1.39951 2.1644, 1.48465 2.16566, 1.56778 2.16541 L 1.86654 2.16541, 1.86654 2.51203 Z" stroke="none" fill="#000000" transform="matrix(1.12 0 0 1 19.1097 12.8121)" />
			<rect />
		</svg>
	</g>
	<path d="M -174.925 -28.4521 L 174.925 -28.4521, 174.925 28.4521, -174.925 28.4521 Z" fill="none" stroke="#000000" stroke-width="1.60000002" stroke-linecap="round" stroke-linejoin="round" transform="matrix(0.625 0 -0 0.625 435.172 58.279)" />
	<g transform="matrix(1 0 -0 1 388.041 49.031)">
		<svg width="288.073273" height="51.0856972">
			<defs />
			<path d="M 8.32249 15.2619 C 8.27301 14.9264, 8.18889 14.5233, 8.07013 14.0528, 8.63377 14.082, 9.31076 14.0964, 10.1016 14.096, 10.5563 14.0964, 10.8753 14.0065, 11.0579 13.8265, 11.2405 13.6466, 11.3318 13.3286, 11.3318 12.8724 L 11.3318 5.86951, 6.52812 5.86951, 6.52812 4.79712, 11.3318 4.79712, 11.3318 1.81745, 12.4663 1.81745, 12.4663 4.79712, 14.2233 4.79712, 14.2233 5.86951, 12.4663 5.86951, 12.4663 13.1891 C 12.4663 13.8661, 12.3134 14.3672, 12.0066 14.6934, 11.6904 15.0294, 11.1838 15.2093, 10.4871 15.2332, 9.67647 15.2525, 8.95495 15.2619, 8.32249 15.2619 Z M 1.06494 14.6862 L 1.06494 3.02659, 5.83133 3.02659, 5.83133 14.5062, 4.75669 14.5062, 4.75669 13.3547, 2.12474 13.3547, 2.12474 14.6862 Z M 2.12474 12.347 L 4.75669 12.347, 4.75669 8.66925, 2.12474 8.66925 Z M 8.63377 10.9796 C 8.22847 10.1595, 7.66259 9.11098, 6.93611 7.83436 L 7.85511 7.33775 C 8.43359 8.2788, 9.02692 9.29811, 9.63464 10.3966 Z M 2.12474 7.68322 L 4.75669 7.68322, 4.75669 4.02701, 2.12474 4.02701 Z" stroke="none" fill="#000000" />
			<path d="M 16.252 15.4131 L 16.252 4.81151, 17.386 4.81151, 17.386 15.4131 Z M 24.6287 15.3843 C 24.5847 15.0532, 24.5005 14.6646, 24.3768 14.2183, 25.0489 14.2471, 25.6989 14.2615, 26.3264 14.2615, 26.7663 14.2615, 27.0839 14.1684, 27.2791 13.9813, 27.4744 13.7942, 27.572 13.4847, 27.572 13.0524 L 27.572 3.64556, 20.5515 3.64556, 20.5515 2.58756, 28.7136 2.58756, 28.7136 13.2683 C 28.7136 13.9741, 28.558 14.4945, 28.2467 14.8301, 27.9354 15.1661, 27.451 15.3411, 26.7933 15.3555, 26.7834 15.3555, 26.7713 15.3555, 26.7564 15.3555, 25.8473 15.3748, 25.1379 15.3843, 24.6287 15.3843 Z M 19.5065 12.5702 L 19.5065 5.50965, 25.348 5.50965, 25.348 12.5702 Z M 20.5663 11.5913 L 24.2729 11.5913, 24.2729 9.51852, 20.5663 9.51852 Z M 20.5663 8.54689 L 24.2729 8.54689, 24.2729 6.48848, 20.5663 6.48848 Z M 18.5871 4.53802 C 17.8755 3.70853, 17.2727 3.03424, 16.7783 2.51558 L 17.6973 1.83185 C 18.3599 2.4751, 18.9874 3.12061, 19.5803 3.76791 Z" stroke="none" fill="#000000" />
			<path d="M 36.056 15.5354 C 35.9625 15.382, 35.7524 15.0798, 35.4258 14.6286, 35.4015 14.5953, 35.384 14.5688, 35.3741 14.5494, 37.0151 13.9934, 38.3173 13.3934, 39.2809 12.7501, 38.876 12.3282, 38.5076 11.8293, 38.1761 11.2531, 37.8648 10.716, 37.5634 10.0709, 37.2719 9.317 L 37.7906 9.18025, 36.805 9.18025, 36.805 8.18703, 43.395 8.18703, 43.395 9.24503 C 43.0396 10.0034, 42.6739 10.6561, 42.2979 11.2027, 41.8975 11.7983, 41.4482 12.3259, 40.9488 12.7861, 41.7495 13.3529, 42.8912 13.8517, 44.3738 14.2831, 44.1759 14.5953, 43.9735 14.943, 43.7657 15.3267, 42.1697 14.7559, 40.9515 14.1446, 40.1113 13.4914, 39.0933 14.2449, 37.7416 14.9264, 36.056 15.5354 Z M 31.8677 15.4563 L 31.8677 13.0092 C 31.7049 13.024, 31.475 13.0479, 31.1781 13.0812, 30.9955 13.1055, 30.8623 13.1226, 30.7778 13.1316 L 30.6073 12.0736, 31.8677 11.9656, 31.8677 2.76749 C 33.6274 2.65278, 35.1447 2.4634, 36.4195 2.1989 L 36.8199 3.17773 C 36.2666 3.27894, 35.6067 3.37746, 34.8402 3.47282, 34.0696 3.56909, 33.447 3.63161, 32.972 3.65995 L 32.972 5.58162, 36.308 5.58162, 36.308 6.53886, 32.972 6.53886, 32.972 8.59008, 36.2639 8.59008, 36.2639 9.56171, 32.972 9.56171, 32.972 11.8432 C 33.2293 11.8149, 33.6171 11.774, 34.1362 11.7209, 35.4758 11.5823, 36.37 11.4816, 36.8199 11.4186, 36.81 11.6543, 36.805 11.9926, 36.805 12.4334, 36.617 12.4577, 36.3134 12.4914, 35.8932 12.5342, 34.5932 12.6786, 33.6198 12.7915, 32.972 12.8724 L 32.972 15.4563 Z M 40.1261 12.0736 C 40.9218 11.3781, 41.6164 10.4137, 42.2093 9.18025 L 38.3466 9.18025 C 38.8855 10.438, 39.4788 11.4024, 40.1261 12.0736 Z M 37.0421 7.84876 C 36.7654 7.53748, 36.5009 7.28557, 36.249 7.09305, 36.7434 6.79121, 37.1041 6.51547, 37.3313 6.26536, 37.5787 5.99726, 37.7492 5.67563, 37.8428 5.30093, 37.9318 4.96086, 37.9759 4.48089, 37.9759 3.86147 L 37.9759 2.58756, 42.7131 2.58756, 42.7131 5.43048 C 42.7131 5.75705, 42.7688 5.98062, 42.88 6.10027, 42.9915 6.22038, 43.1953 6.28021, 43.4917 6.27976, 43.897 6.28021, 44.1912 6.27526, 44.3738 6.26536, 44.3194 6.46733, 44.2726 6.72419, 44.233 7.03547, 44.2231 7.13668, 44.2132 7.2136, 44.2034 7.26578, 43.9564 7.27568, 43.5632 7.28062, 43.0243 7.28018, 42.5453 7.28062, 42.1971 7.15827, 41.9794 6.91311, 41.7522 6.66391, 41.6384 6.26086, 41.6384 5.70397 L 41.6384 3.54479, 39.051 3.54479, 39.051 3.91905 C 39.051 4.62978, 38.9966 5.19567, 38.8877 5.61761, 38.7744 6.06923, 38.5715 6.46733, 38.28 6.81235, 38.0083 7.13893, 37.5958 7.4844, 37.0421 7.84876 Z" stroke="none" fill="#000000" />
			<path d="M 53.158 13.6162 L 47.2455 13.6162, 47.2455 13.2283 C 47.2455 13.2005, 47.2601 13.1582, 47.2892 13.1013 L 49.6644 10.5198 C 49.9456 10.2099, 50.23 9.8925, 50.5183 9.56805, 50.8066 9.2436, 51.064 8.91209, 51.2915 8.57353, 51.519 8.23497, 51.7006 7.88583, 51.8364 7.52611, 51.9721 7.1664, 52.0396 6.78904, 52.0396 6.39362, 52.0396 6.06035, 51.9964 5.74868, 51.9091 5.45949, 51.8218 5.17031, 51.6962 4.91639, 51.5313 4.69773, 51.3664 4.47908, 51.1606 4.30275, 50.9137 4.16873, 50.6668 4.03472, 50.3812 3.96771, 50.0567 3.96727, 49.5727 3.96771, 49.1451 4.11231, 48.7748 4.40149, 48.4045 4.69068, 48.1585 5.0094, 48.0373 5.35678, 48.0135 5.36648, 48.0523 5.37133, 48.1537 5.37088 L 48.2771 5.37088 C 48.4226 5.40439, 48.5482 5.45508, 48.6549 5.52297, 48.7616 5.5913, 48.8511 5.6852, 48.9238 5.8051, 48.9965 5.92501, 49.0327 6.0696, 49.0327 6.23844, 49.0327 6.52102, 48.941 6.73747, 48.7567 6.88779, 48.5724 7.03855, 48.3666 7.1135, 48.1391 7.11305, 47.9213 7.1135, 47.7181 7.03855, 47.529 6.88779, 47.3403 6.73747, 47.2455 6.52102, 47.2455 6.23844, 47.2455 5.8439, 47.3231 5.47007, 47.4783 5.11741, 47.6335 4.76474, 47.8437 4.45924, 48.11 4.20047, 48.3763 3.94215, 48.691 3.7376, 49.0543 3.58683, 49.4175 3.43651, 49.8028 3.36113, 50.2093 3.36069, 50.7127 3.36113, 51.1742 3.43519, 51.593 3.58331, 52.0118 3.73143, 52.3689 3.94435, 52.6643 4.22163, 52.9596 4.49936, 53.191 4.82028, 53.3581 5.18441, 53.5252 5.54898, 53.6085 5.9519, 53.6085 6.39362, 53.6085 6.88294, 53.4974 7.33347, 53.2744 7.74477, 53.0517 8.1565, 52.7758 8.53386, 52.4465 8.87683, 52.1172 9.22023, 51.7672 9.54336, 51.3969 9.84666, 51.0266 10.1499, 50.6911 10.4449, 50.3909 10.7314 L 48.7201 12.3043, 50.9067 12.3043 C 51.2117 12.3047, 51.4965 12.3025, 51.7601 12.2977, 52.0242 12.2933, 52.2481 12.2836, 52.4319 12.2695, 52.6162 12.2554, 52.7105 12.2461, 52.7149 12.2408, 52.7537 12.2082, 52.7903 12.1425, 52.8243 12.0438, 52.8582 11.945, 52.8895 11.8286, 52.9186 11.6946, 52.9477 11.5606, 52.9768 11.4244, 53.0059 11.2855, 53.035 11.1471, 53.0614 10.995, 53.0857 10.8302 L 53.6231 10.8302 Z" stroke="none" fill="#000000" />
			<path d="M 71.8388 10.8903 C 71.8388 11.2745, 71.7462 11.6357, 71.5608 11.974, 71.3755 12.3122, 71.1299 12.6037, 70.8231 12.848, 70.4821 13.1269, 70.1043 13.332, 69.6891 13.4638, 69.2744 13.5956, 68.8493 13.6613, 68.4138 13.6613 L 62.3573 13.6613, 62.3573 13.0639 C 62.6295 13.0643, 62.8917 13.0607, 63.1436 13.0536, 63.3955 13.0464, 63.5858 13.0212, 63.714 12.9775, 63.7833 12.9541, 63.8355 12.9074, 63.8701 12.8376, 63.9048 12.7684, 63.9218 12.6901, 63.9218 12.6033 L 63.9218 4.49195 C 63.9218 4.40604, 63.9048 4.32822, 63.8701 4.25849, 63.8355 4.18922, 63.7833 4.14199, 63.714 4.1177, 63.5858 4.07496, 63.3955 4.05112, 63.1436 4.04617, 62.8917 4.04168, 62.6295 4.03898, 62.3573 4.03853 L 62.3573 3.44835, 67.9842 3.44835 C 68.4143 3.4488, 68.8389 3.50638, 69.2591 3.62154, 69.6792 3.73669, 70.0598 3.92607, 70.4007 4.18967, 70.7021 4.42043, 70.9468 4.69033, 71.1348 4.99981, 71.3229 5.30929, 71.4164 5.64622, 71.4164 6.01058, 71.4164 6.37089, 71.3215 6.70107, 71.1313 7.00065, 70.941 7.30069, 70.6976 7.55619, 70.4007 7.76671, 69.9365 8.07439, 69.5906 8.25163, 69.363 8.29931, 69.3778 8.29976, 69.5533 8.36228, 69.8893 8.48689, 70.2257 8.61194, 70.537 8.78422, 70.8231 9.00464, 71.125 9.2354, 71.3697 9.5125, 71.5572 9.83637, 71.7453 10.1603, 71.8388 10.5116, 71.8388 10.8903 Z M 69.793 6.01058 C 69.793 5.48338, 69.6126 5.02005, 69.2519 4.6215, 69.0836 4.43977, 68.8911 4.29718, 68.6734 4.19372, 68.4561 4.09071, 68.2263 4.03898, 67.9842 4.03853 L 66.0419 4.03853 C 65.9285 4.03898, 65.8111 4.04168, 65.6897 4.04617, 65.5687 4.05112, 65.4837 4.07271, 65.4342 4.1105, 65.3797 4.14918, 65.3487 4.20451, 65.3415 4.27649, 65.3343 4.34846, 65.3303 4.42043, 65.3303 4.49195 L 65.3303 8.11938, 67.5614 8.11938 C 67.8533 8.11983, 68.1363 8.0636, 68.4107 7.95069, 68.6851 7.83823, 68.9257 7.68574, 69.1331 7.49321, 69.573 7.08567, 69.793 6.59176, 69.793 6.01058 Z M 70.1709 10.8903 C 70.1709 10.5885, 70.1218 10.2983, 70.0229 10.0199, 69.9239 9.74191, 69.7782 9.48731, 69.5852 9.25654, 69.4125 9.05052, 69.2064 8.88768, 68.9667 8.76758, 68.7269 8.64793, 68.471 8.58765, 68.1993 8.5872 L 65.3303 8.5872, 65.3303 12.6033 C 65.3303 12.6851, 65.3343 12.7598, 65.3415 12.8268, 65.3487 12.8943, 65.3797 12.9469, 65.4342 12.9847, 65.4837 13.0234, 65.57 13.0464, 65.6933 13.0536, 65.817 13.0607, 65.933 13.0643, 66.0419 13.0639 L 67.9842 13.0639 C 68.2658 13.0643, 68.5416 13.0095, 68.8106 12.8988, 69.08 12.7886, 69.3184 12.6325, 69.5258 12.4305, 69.7287 12.22, 69.887 11.9825, 70.0004 11.7185, 70.1142 11.4549, 70.1709 11.1787, 70.1709 10.8903 Z" stroke="none" fill="#000000" />
			<path d="M 79.7262 10.8615 C 79.7262 11.2745, 79.6546 11.6694, 79.5116 12.0459, 79.3685 12.4229, 79.1508 12.7621, 78.8593 13.0639, 78.5827 13.3522, 78.2593 13.5776, 77.8886 13.7404, 77.5179 13.9037, 77.1302 13.9851, 76.7244 13.9851, 76.1073 13.9851, 75.554 13.8952, 75.0646 13.7153, 74.5756 13.5358, 74.1829 13.2969, 73.886 12.9991 L 73.3228 13.8988 C 73.2635 13.9564, 73.2041 13.9851, 73.1447 13.9851 L 73.0853 13.9851 C 72.9522 13.9851, 72.8807 13.9181, 72.8708 13.7836 L 72.8708 10.4081 C 72.8708 10.2696, 72.9423 10.1949, 73.0853 10.185 L 73.1744 10.185 C 73.3228 10.1854, 73.3966 10.2597, 73.3966 10.4081, 73.3966 10.8786, 73.4758 11.2988, 73.6341 11.6681, 73.7925 12.0378, 74.0147 12.3509, 74.3012 12.6073, 74.5878 12.8642, 74.9373 13.0607, 75.3498 13.1975, 75.7627 13.3342, 76.2206 13.4026, 76.7244 13.4022, 76.9768 13.4026, 77.2179 13.3513, 77.4473 13.2479, 77.6772 13.1449, 77.881 12.9973, 78.0586 12.8048, 78.4293 12.3973, 78.6124 11.9128, 78.6074 11.3509, 78.6074 11.1211, 78.5741 10.8971, 78.5076 10.6785, 78.441 10.4603, 78.3407 10.2637, 78.2071 10.0883, 78.0739 9.91329, 77.9183 9.7608, 77.7402 9.63125, 77.5625 9.5017, 77.3623 9.41039, 77.1396 9.35731 L 75.1608 8.89668 C 74.8154 8.81571, 74.5027 8.68391, 74.2234 8.50128, 73.9445 8.3191, 73.7034 8.10318, 73.501 7.85353, 73.2985 7.60432, 73.1429 7.32363, 73.034 7.01145, 72.9252 6.69972, 72.8708 6.37584, 72.8708 6.03937, 72.8708 5.65611, 72.9463 5.28545, 73.097 4.92784, 73.2477 4.57067, 73.4636 4.25265, 73.7452 3.97375, 74.0223 3.70565, 74.3484 3.49468, 74.7236 3.34084, 75.0992 3.18745, 75.482 3.11053, 75.8725 3.11008, 76.4213 3.11053, 76.9003 3.20409, 77.3106 3.39122, 77.7208 3.57835, 78.0442 3.81091, 78.2813 4.08891 L 78.8445 3.21804 C 78.889 3.14651, 78.9506 3.11053, 79.0298 3.11008 L 79.0816 3.11008 C 79.23 3.11053, 79.3038 3.18475, 79.3038 3.33319 L 79.3038 6.70871 C 79.3038 6.84366, 79.23 6.91069, 79.0816 6.91024 L 79.0001 6.91024 C 78.8814 6.91069, 78.8072 6.85086, 78.7775 6.7303, 78.7581 6.26518, 78.6754 5.84459, 78.5296 5.46763, 78.3839 5.09113, 78.1886 4.7686, 77.9439 4.4996, 77.6992 4.23105, 77.4055 4.02458, 77.0618 3.88064, 76.7186 3.73669, 76.3223 3.66472, 75.8725 3.66427, 75.3538 3.66472, 74.9067 3.8496, 74.5306 4.21846, 74.3529 4.39164, 74.2158 4.59092, 74.1195 4.81628, 74.0232 5.0421, 73.9751 5.27915, 73.9751 5.52836, 73.9751 5.74473, 74.0124 5.94985, 74.0862 6.14418, 74.1604 6.3385, 74.2603 6.51619, 74.3862 6.67677, 74.5122 6.83781, 74.6629 6.97546, 74.8383 7.09062, 75.0137 7.20577, 75.2081 7.28494, 75.4204 7.32768 L 77.3915 7.7955 C 77.7478 7.87737, 78.0712 8.01816, 78.3627 8.21699, 78.6542 8.41626, 78.9003 8.65017, 79.1004 8.91872, 79.3006 9.18772, 79.4549 9.48731, 79.5633 9.81838, 79.6722 10.1495, 79.7262 10.4972, 79.7262 10.8615 Z" stroke="none" fill="#000000" />
			<path d="M 88.3092 13.6162 L 82.3967 13.6162, 82.3967 13.2283 C 82.3967 13.2005, 82.4113 13.1582, 82.4404 13.1013 L 84.8156 10.5198 C 85.0968 10.2099, 85.3812 9.8925, 85.6695 9.56805, 85.9578 9.2436, 86.2152 8.91209, 86.4427 8.57353, 86.6702 8.23497, 86.8518 7.88583, 86.9876 7.52611, 87.1233 7.1664, 87.1908 6.78904, 87.1908 6.39362, 87.1908 6.06035, 87.1476 5.74868, 87.0603 5.45949, 86.973 5.17031, 86.8474 4.91639, 86.6825 4.69773, 86.5176 4.47908, 86.3118 4.30275, 86.0649 4.16873, 85.818 4.03472, 85.5324 3.96771, 85.2079 3.96727, 84.7239 3.96771, 84.2963 4.11231, 83.926 4.40149, 83.5557 4.69068, 83.3097 5.0094, 83.1885 5.35678, 83.1647 5.36648, 83.2035 5.37133, 83.3048 5.37088 L 83.4283 5.37088 C 83.5738 5.40439, 83.6994 5.45508, 83.8061 5.52297, 83.9128 5.5913, 84.0022 5.6852, 84.075 5.8051, 84.1477 5.92501, 84.1839 6.0696, 84.1839 6.23844, 84.1839 6.52102, 84.0922 6.73747, 83.9079 6.88779, 83.7236 7.03855, 83.5178 7.1135, 83.2903 7.11305, 83.0725 7.1135, 82.8693 7.03855, 82.6802 6.88779, 82.4915 6.73747, 82.3967 6.52102, 82.3967 6.23844, 82.3967 5.8439, 82.4743 5.47007, 82.6295 5.11741, 82.7847 4.76474, 82.9949 4.45924, 83.2612 4.20047, 83.5275 3.94215, 83.8422 3.7376, 84.2055 3.58683, 84.5687 3.43651, 84.954 3.36113, 85.3605 3.36069, 85.8639 3.36113, 86.3254 3.43519, 86.7442 3.58331, 87.163 3.73143, 87.5201 3.94435, 87.8154 4.22163, 88.1108 4.49936, 88.3422 4.82028, 88.5093 5.18441, 88.6764 5.54898, 88.7597 5.9519, 88.7597 6.39362, 88.7597 6.88294, 88.6486 7.33347, 88.4256 7.74477, 88.2029 8.1565, 87.927 8.53386, 87.5977 8.87683, 87.2684 9.22023, 86.9184 9.54336, 86.548 9.84666, 86.1777 10.1499, 85.8423 10.4449, 85.5421 10.7314 L 83.8713 12.3043, 86.0578 12.3043 C 86.3629 12.3047, 86.6477 12.3025, 86.9113 12.2977, 87.1754 12.2933, 87.3993 12.2836, 87.5831 12.2695, 87.7674 12.2554, 87.8617 12.2461, 87.8661 12.2408, 87.9049 12.2082, 87.9415 12.1425, 87.9755 12.0438, 88.0094 11.945, 88.0407 11.8286, 88.0698 11.6946, 88.0989 11.5606, 88.128 11.4244, 88.1571 11.2855, 88.1862 11.1471, 88.2126 10.995, 88.2369 10.8302 L 88.7743 10.8302 Z" stroke="none" fill="#000000" />
			<path d="M 1.21527 7.03705 C -3.58997 3.87038, -3.58997 -3.87038, 1.21527 -7.03705 L 1.96995 -7.03705 C -2.36361 -3.87038, -2.36361 3.87038, 1.96995 7.03705" stroke="none" fill="#000000" transform="matrix(1 0 -0 1 59.6316 9.24805)" />
			<path d="M 1.21527 7.03705 C -3.58997 3.87038, -3.58997 -3.87038, 1.21527 -7.03705 L 1.96995 -7.03705 C -2.36361 -3.87038, -2.36361 3.87038, 1.96995 7.03705" stroke="none" fill="#000000" transform="matrix(-1 1.50996e-007 -1.50996e-007 -1 92.051 9.24805)" />
			<rect />
		</svg>
	</g>
	<path d="M -174.925 0 L 174.925 0" fill="none" stroke="#000000" stroke-width="1.20000005" stroke-linecap="round" stroke-linejoin="round" marker-start="url(#CustomMarker-05)" marker-end="url(#CustomMarker-06)" transform="matrix(0.625 0 -0 0.625 435.172 85.5507)" />
	<path d="M -174.925 -15.1825 L -174.925 15.1825" fill="none" stroke="#000000" stroke-width="0.800000012" stroke-linecap="round" stroke-linejoin="round" transform="matrix(0.625 0 -0 0.625 435.172 85.5507)" />
	<path d="M 174.925 -15.1825 L 174.925 15.1825" fill="none" stroke="#000000" stroke-width="0.800000012" stroke-linecap="round" stroke-linejoin="round" transform="matrix(0.625 0 -0 0.625 435.172 85.5507)" />
	<g transform="matrix(1 0 -0 1 424.445 88.6884)">
		<svg width="68.9939575" height="41.9571304">
			<defs />
			<path d="M 4.38628 7.12299 C 4.3323 7.26738, 4.23559 7.33935, 4.09704 7.33891 L 2.71832 7.33891, 1.62118 11.5925 C 1.53257 11.9002, 1.48803 12.1687, 1.48803 12.3986, 1.48803 12.4616, 1.49298 12.5214, 1.50288 12.5785, 1.52762 12.8093, 1.64368 12.9244, 1.85105 12.924, 2.03908 12.9244, 2.21676 12.8732, 2.38499 12.7697, 2.55323 12.6667, 2.71112 12.5286, 2.85956 12.3558, 3.00801 12.1831, 3.14116 11.9793, 3.25991 11.7441, 3.37867 11.5093, 3.48708 11.2619, 3.58559 11.0023, 3.60088 10.9452, 3.63282 10.9034, 3.6823 10.8768, 3.73178 10.8507, 3.77856 10.8372, 3.8231 10.8368 L 4.00843 10.8368 C 4.07275 10.8372, 4.12448 10.8638, 4.16407 10.9159, 4.17891 10.9501, 4.18611 10.9812, 4.18611 11.0095 L 4.18611 11.0527 C 4.08265 11.3361, 3.95265 11.6159, 3.79701 11.8916, 3.64137 12.1678, 3.46233 12.4161, 3.25991 12.6365, 3.05749 12.8574, 2.83347 13.0396, 2.58877 13.1831, 2.34406 13.327, 2.07371 13.399, 1.77682 13.399, 1.51997 13.399, 1.29776 13.35, 1.10973 13.2515, 0.92215 13.1534, 0.771457 13.0171, 0.65765 12.8417, 0.544293 12.6667, 0.477269 12.4661, 0.457476 12.2402, 0.44758 12.1831, 0.442632 12.1206, 0.442632 12.0531, 0.442632 11.8903, 0.462424 11.7247, 0.502009 11.5565 L 1.5915 7.33891, 0.197925 7.33891 C 0.0746717 7.33935, 0.0076471 7.27458, -0.00224912 7.14458 L -0.00224912 7.087, 0.042284 6.96465 C 0.0917652 6.82115, 0.18353 6.74918, 0.31668 6.74873 L 1.73229 6.74873, 2.34046 4.38803 C 2.38499 4.21079, 2.47496 4.07899, 2.61081 3.99263, 2.74666 3.90626, 2.88385 3.86308, 3.0224 3.86263, 3.1659 3.86308, 3.28465 3.90851, 3.37822 3.99937, 3.44254 4.06235, 3.47448 4.14872, 3.47448 4.25848, 3.47448 4.31155, 3.46953 4.36464, 3.45964 4.41681 L 2.85911 6.74873, 4.22344 6.74873 C 4.3521 6.74918, 4.41597 6.81395, 4.41597 6.94306 L 4.41597 6.99344 Z" stroke="none" fill="#000000" />
			<path d="M 2.96718 0.9603 C 2.96718 1.17543, 2.91528 1.37771, 2.8115 1.56714, 2.70772 1.75657, 2.57018 1.9198, 2.39838 2.05659, 2.20743 2.21277, 1.99583 2.32764, 1.76333 2.40144, 1.53107 2.47525, 1.29302 2.51203, 1.04918 2.51203 L -2.34246 2.51203, -2.34246 2.1775 C -2.19006 2.17775, -2.0432 2.17574, -1.90213 2.17171, -1.76107 2.16768, -1.65451 2.15357, -1.58272 2.12914, -1.54393 2.11604, -1.5147 2.08984, -1.49531 2.05079, -1.47591 2.012, -1.46634 1.96817, -1.46634 1.91955 L -1.46634 -2.62279 C -1.46634 -2.6709, -1.47591 -2.71448, -1.49531 -2.75353, -1.5147 -2.79232, -1.54393 -2.81877, -1.58272 -2.83237, -1.65451 -2.8563, -1.76107 -2.86965, -1.90213 -2.87242, -2.0432 -2.87494, -2.19006 -2.87645, -2.34246 -2.87671 L -2.34246 -3.2072, 0.808609 -3.2072 C 1.04943 -3.20695, 1.28723 -3.17471, 1.52251 -3.11022, 1.75778 -3.04573, 1.9709 -2.93968, 2.16184 -2.79207, 2.33061 -2.66284, 2.46765 -2.5117, 2.57295 -2.33839, 2.67824 -2.16508, 2.73064 -1.9764, 2.73064 -1.77236, 2.73064 -1.57058, 2.67749 -1.38568, 2.57093 -1.21792, 2.46438 -1.0499, 2.3281 -0.906815, 2.16184 -0.788924, 1.90187 -0.616621, 1.70816 -0.517371, 1.5807 -0.490669, 1.58901 -0.490417, 1.68725 -0.455402, 1.87542 -0.385625, 2.06385 -0.315595, 2.23817 -0.219116, 2.39838 -0.0956829, 2.5674 0.0335441, 2.70444 0.188717, 2.80948 0.370088, 2.91478 0.551459, 2.96718 0.748197, 2.96718 0.9603 Z M 1.82152 -1.77236 C 1.82152 -2.06759, 1.7205 -2.32705, 1.51848 -2.55024, 1.42426 -2.65201, 1.31645 -2.73186, 1.19453 -2.7898, 1.07286 -2.84749, 0.944134 -2.87645, 0.808609 -2.87671 L -0.279114 -2.87671 C -0.342594 -2.87645, -0.408341 -2.87494, -0.476355 -2.87242, -0.544117 -2.86965, -0.591727 -2.85756, -0.619437 -2.8364, -0.649917 -2.81474, -0.667298 -2.78375, -0.671329 -2.74345, -0.675359 -2.70314, -0.677626 -2.66284, -0.677626 -2.62279 L -0.677626 -0.59143, 0.571819 -0.59143 C 0.735305 -0.591179, 0.893753 -0.622667, 1.04741 -0.685895, 1.20108 -0.748871, 1.33584 -0.834266, 1.45197 -0.942081, 1.69833 -1.17031, 1.82152 -1.4469, 1.82152 -1.77236 Z M 2.03312 0.9603 C 2.03312 0.791272, 2.00566 0.628794, 1.95024 0.472865, 1.89482 0.317188, 1.8132 0.17461, 1.70514 0.0453835, 1.6084 -0.0699887, 1.49303 -0.161178, 1.35877 -0.228436, 1.2245 -0.295443, 1.08117 -0.329198, 0.929019 -0.32945 L -0.677626 -0.32945, -0.677626 1.91955 C -0.677626 1.9654, -0.675359 2.00721, -0.671329 2.04475, -0.667298 2.08253, -0.649917 2.11201, -0.619437 2.13317, -0.591727 2.15483, -0.543361 2.16768, -0.47434 2.17171, -0.405066 2.17574, -0.340075 2.17775, -0.279114 2.1775 L 0.808609 2.1775 C 0.966301 2.17775, 1.12072 2.14702, 1.27136 2.08505, 1.42225 2.02334, 1.55576 1.93593, 1.67188 1.82282, 1.78549 1.70493, 1.87416 1.57192, 1.93764 1.42406, 2.00138 1.27644, 2.03312 1.12177, 2.03312 0.9603 Z" stroke="none" fill="#000000" transform="matrix(1.12 0 0 1 7.52797 12.8121)" />
			<path d="M 2.26139 0.944178 C 2.26139 1.17543, 2.22134 1.3966, 2.14124 1.60744, 2.06113 1.81854, 1.93921 2.00847, 1.77598 2.1775, 1.62105 2.33897, 1.43994 2.46518, 1.23237 2.55637, 1.0248 2.64781, 0.807655 2.6934, 0.580438 2.6934, 0.234825 2.6934, -0.0750173 2.64302, -0.349089 2.54226, -0.622909 2.44175, -0.842822 2.30799, -1.00908 2.14123 L -1.32446 2.64504 C -1.35771 2.67728, -1.39097 2.6934, -1.42422 2.6934 L -1.45747 2.6934 C -1.53203 2.6934, -1.57208 2.65587, -1.57763 2.58055 L -1.57763 0.690259 C -1.57763 0.612672, -1.53757 0.570856, -1.45747 0.565314 L -1.40759 0.565314 C -1.32446 0.565566, -1.28315 0.60713, -1.28315 0.690259, -1.28315 0.95375, -1.23882 1.18903, -1.15014 1.39584, -1.06147 1.60291, -0.937034 1.77823, -0.776571 1.92182, -0.616108 2.06566, -0.420378 2.17574, -0.189382 2.25232, 0.0418663 2.3289, 0.298305 2.36719, 0.580438 2.36693, 0.721756 2.36719, 0.856777 2.33847, 0.985248 2.28053, 1.11397 2.22284, 1.22808 2.14022, 1.32759 2.0324, 1.53515 1.80418, 1.63768 1.53288, 1.63491 1.21825, 1.63491 1.08953, 1.61627 0.964079, 1.57899 0.841653, 1.5417 0.71948, 1.48553 0.609397, 1.41071 0.511155, 1.33615 0.413164, 1.24899 0.327768, 1.14924 0.25522, 1.04974 0.182671, 0.937638 0.131535, 0.812945 0.10181 L -0.295182 -0.15614 C -0.488644 -0.201483, -0.663718 -0.275291, -0.82015 -0.377564, -0.976331 -0.479585, -1.11135 -0.600499, -1.22471 -0.740306, -1.33807 -0.879861, -1.42522 -1.03705, -1.48619 -1.21187, -1.54715 -1.38644, -1.57763 -1.56781, -1.57763 -1.75624, -1.57763 -1.97086, -1.53531 -2.17843, -1.45092 -2.37869, -1.36653 -2.5787, -1.24562 -2.7568, -1.08792 -2.91298, -0.932751 -3.06312, -0.750121 -3.18126, -0.540033 -3.26741, -0.329693 -3.35331, -0.115322 -3.39639, 0.103331 -3.39664, 0.410654 -3.39639, 0.678932 -3.34399, 0.908669 -3.2392, 1.13841 -3.1344, 1.31952 -3.00417, 1.45228 -2.84849 L 1.76766 -3.33618 C 1.7926 -3.37623, 1.82711 -3.39639, 1.87145 -3.39664 L 1.90042 -3.39664 C 1.98354 -3.39639, 2.02486 -3.35482, 2.02486 -3.27169 L 2.02486 -1.3814 C 2.02486 -1.30583, 1.98354 -1.2683, 1.90042 -1.26855 L 1.85482 -1.26855 C 1.78832 -1.2683, 1.74675 -1.3018, 1.73013 -1.36931, 1.7193 -1.62978, 1.67295 -1.86531, 1.59133 -2.07641, 1.50971 -2.28725, 1.40039 -2.46787, 1.26335 -2.6185, 1.12631 -2.76889, 0.961821 -2.88452, 0.769366 -2.96513, 0.577163 -3.04573, 0.355235 -3.08604, 0.103331 -3.08629, -0.187115 -3.08604, -0.437508 -2.98251, -0.6481 -2.77594, -0.747602 -2.67896, -0.824433 -2.56737, -0.87834 -2.44116, -0.932248 -2.31471, -0.959201 -2.18195, -0.959201 -2.0424, -0.959201 -1.92123, -0.938293 -1.80637, -0.896981 -1.69754, -0.855417 -1.58872, -0.799494 -1.48922, -0.728961 -1.39929, -0.658428 -1.30911, -0.57404 -1.23202, -0.475797 -1.16754, -0.377554 -1.10305, -0.268732 -1.05871, -0.149833 -1.03478 L 0.954012 -0.772802 C 1.15352 -0.726955, 1.33464 -0.648109, 1.49787 -0.536767, 1.66111 -0.425174, 1.7989 -0.294183, 1.911 -0.143797, 2.02309 0.00684214, 2.1095 0.17461, 2.17021 0.360012, 2.23117 0.545414, 2.26139 0.740136, 2.26139 0.944178 Z" stroke="none" fill="#000000" transform="matrix(1.12 0 0 1 13.264 12.8121)" />
			<path d="M 1.87888 2.51203 L -1.49966 2.51203, -1.49966 2.29035 C -1.49966 2.27448, -1.49135 2.2503, -1.47472 2.21781 L -0.117461 0.742655 C 0.0432544 0.565566, 0.205733 0.384195, 0.370478 0.198793, 0.535223 0.0133917, 0.682336 -0.17604, 0.812318 -0.369503, 0.942301 -0.562965, 1.04609 -0.762474, 1.12367 -0.968027, 1.20126 -1.17358, 1.2398 -1.38921, 1.2398 -1.61517, 1.2398 -1.80561, 1.21511 -1.98371, 1.16524 -2.14895, 1.11536 -2.3142, 1.04357 -2.4593, 0.949354 -2.58425, 0.855142 -2.70919, 0.737503 -2.80995, 0.596436 -2.88653, 0.45537 -2.96311, 0.292136 -3.0014, 0.106734 -3.00165, -0.169857 -3.0014, -0.414204 -2.91877, -0.625803 -2.75353, -0.837403 -2.58828, -0.977966 -2.40615, -1.04724 -2.20765, -1.06084 -2.20211, -1.03867 -2.19934, -0.980737 -2.19959 L -0.910203 -2.19959 C -0.827075 -2.18044, -0.755282 -2.15147, -0.694322 -2.11268, -0.633361 -2.07364, -0.582224 -2.01998, -0.54066 -1.95146, -0.499096 -1.88294, -0.478439 -1.80032, -0.478439 -1.70384, -0.478439 -1.54237, -0.530836 -1.41868, -0.636132 -1.33278, -0.741428 -1.24663, -0.859067 -1.20381, -0.989049 -1.20406, -1.11349 -1.20381, -1.22962 -1.24663, -1.33769 -1.33278, -1.4455 -1.41868, -1.49966 -1.54237, -1.49966 -1.70384, -1.49966 -1.92929, -1.45532 -2.14291, -1.36665 -2.34443, -1.27798 -2.54596, -1.15783 -2.72053, -1.00568 -2.86839, -0.853525 -3.01601, -0.673665 -3.13289, -0.466096 -3.21904, -0.258527 -3.30494, -0.0383626 -3.34802, 0.193893 -3.34827, 0.481568 -3.34802, 0.745311 -3.3057, 0.984621 -3.22106, 1.22393 -3.13642, 1.42797 -3.01475, 1.59675 -2.8563, 1.76552 -2.6976, 1.89777 -2.51422, 1.99325 -2.30614, 2.08872 -2.09782, 2.13633 -1.86758, 2.13633 -1.61517, 2.13633 -1.33556, 2.07285 -1.07811, 1.94538 -0.843083, 1.81817 -0.607804, 1.66048 -0.392174, 1.47231 -0.196193, 1.28413 4.07696e-005, 1.08412 0.184687, 0.872523 0.357997, 0.660924 0.531307, 0.469224 0.699831, 0.297678 0.863569 L -0.65704 1.76236, 0.592406 1.76236 C 0.766723 1.76262, 0.929454 1.76136, 1.08009 1.75858, 1.23098 1.75607, 1.35895 1.75052, 1.46399 1.74246, 1.56929 1.7344, 1.6232 1.72911, 1.62572 1.72609, 1.64788 1.70745, 1.66879 1.66991, 1.68819 1.61349, 1.70759 1.55706, 1.72547 1.49056, 1.7421 1.41398, 1.75872 1.3374, 1.77535 1.25956, 1.79197 1.18021, 1.8086 1.10111, 1.82371 1.01421, 1.83757 0.919995 L 2.14464 0.919995 Z" stroke="none" fill="#000000" transform="matrix(1.12 0 0 1 19.1097 12.8121)" />
			<rect />
		</svg>
	</g>
	<path d="M -428.8 0 L 428.8 0" fill="none" stroke="#000000" stroke-width="1.20000005" stroke-linecap="round" stroke-linejoin="round" marker-start="url(#CustomMarker-07)" marker-end="url(#CustomMarker-08)" transform="matrix(0.625 0 -0 0.625 276.5 30.0262)" />
	<path d="M -428.8 -16.7525 L -428.8 16.7525" fill="none" stroke="#000000" stroke-width="0.800000012" stroke-linecap="round" stroke-linejoin="round" transform="matrix(0.625 0 -0 0.625 276.5 30.0262)" />
	<path d="M 428.8 -16.7525 L 428.8 16.7525" fill="none" stroke="#000000" stroke-width="0.800000012" stroke-linecap="round" stroke-linejoin="round" transform="matrix(0.625 0 -0 0.625 276.5 30.0262)" />
	<g transform="matrix(1 0 -0 1 231.42 8.25)">
		<svg width="273.022064" height="47.9999886">
			<defs />
			<path d="M 0.567883 14.1864 L 0.567883 13.078, 2.73201 13.078, 2.73201 5.7152, 3.93305 5.7152, 3.93305 13.078, 7.49795 13.078, 7.49795 3.59921, 1.22014 3.59921, 1.22014 2.49802, 13.6791 2.49802, 13.6791 3.59921, 8.71339 3.59921, 8.71339 7.52891, 13.1973 7.52891, 13.1973 8.58691, 8.71339 8.58691, 8.71339 13.078, 14.1757 13.078, 14.1757 14.1864 Z" stroke="none" fill="#000000" />
			<path d="M 21.8551 15.0501 L 21.8551 11.0988, 17.9933 11.0988, 17.9933 14.0496, 16.8593 14.0496, 16.8593 10.1631, 21.8551 10.1631, 21.8551 8.91079, 18.0527 8.91079, 18.0527 5.77998, 26.8576 5.77998, 26.8576 8.91079, 23.026 8.91079, 23.026 10.1631, 28.1028 10.1631, 28.1028 12.4734 C 28.1028 13.0209, 27.9768 13.4167, 27.7249 13.6614, 27.473 13.9061, 27.0583 14.0402, 26.4798 14.064, 26.1784 14.0834, 25.6498 14.0928, 24.8937 14.0928, 24.8343 13.7815, 24.7506 13.4289, 24.6418 13.0348, 25.1609 13.0546, 25.6278 13.0641, 26.0425 13.0636, 26.3934 13.0641, 26.6318 13.0078, 26.7578 12.8949, 26.8837 12.7825, 26.9467 12.5769, 26.9467 12.2791 L 26.9467 11.0988, 23.026 11.0988, 23.026 15.0501 Z M 19.2087 8.06151 L 25.7164 8.06151, 25.7164 6.62206, 19.2087 6.62206 Z M 16.1108 6.15424 L 16.1108 3.70716, 19.2087 3.70716 C 18.9865 3.51104, 18.5916 3.17727, 18.023 2.70675, 17.7171 2.45304, 17.4944 2.26591, 17.3559 2.14536 L 18.3491 1.70632 C 18.9573 2.17235, 19.6118 2.70719, 20.3131 3.31132 L 19.6316 3.70716, 21.8843 3.70716, 21.8843 1.40404, 23.0408 1.40404, 23.0408 3.70716, 25.1901 3.70716, 24.5527 3.29692 C 24.5972 3.26363, 24.6638 3.21325, 24.7529 3.14578, 25.613 2.50342, 26.2108 2.0356, 26.5464 1.74231 L 27.5544 2.21013 C 27.164 2.54166, 26.5909 2.99508, 25.8347 3.57042, 25.756 3.62844, 25.6966 3.67388, 25.657 3.70716 L 28.7996 3.70716, 28.7996 6.15424, 27.6655 6.15424, 27.6655 4.62842, 17.2448 4.62842, 17.2448 6.15424 Z" stroke="none" fill="#000000" />
			<path d="M 31.2313 14.8341 L 31.2313 3.69277, 32.7283 3.69277 C 32.9658 2.93976, 33.1682 2.18899, 33.336 1.44003 L 34.5294 1.63435 C 34.5096 1.71622, 34.4727 1.84352, 34.4183 2.01581, 34.1961 2.78412, 34.0256 3.3428, 33.9069 3.69277 L 36.5752 3.69277, 36.5752 14.7478, 35.4709 14.7478, 35.4709 13.6538, 32.3356 13.6538, 32.3356 14.8341 Z M 38.8653 14.7478 C 38.8059 14.441, 38.7223 14.0568, 38.6134 13.5962, 38.6382 13.5967, 38.6728 13.5967, 38.7169 13.5962, 39.6017 13.616, 40.3156 13.6254, 40.859 13.625, 41.432 13.6254, 41.84 13.5103, 42.0821 13.2795, 42.334 13.0402, 42.4748 12.6201, 42.5044 12.02, 42.5589 11.0704, 42.6182 9.00975, 42.6821 5.83756, 42.6974 5.3342, 42.7073 4.97208, 42.7118 4.75077 L 39.0507 4.75077 C 38.6656 5.60994, 38.3021 6.35126, 37.9612 6.97472, 37.5464 6.71112, 37.2176 6.5195, 36.9751 6.39894, 37.3854 5.70351, 37.7758 4.91451, 38.1465 4.03104, 38.5073 3.17277, 38.8185 2.3019, 39.0803 1.41843 L 40.2144 1.67754 C 40.0713 2.12422, 39.8338 2.78861, 39.5027 3.67118 L 43.8607 3.67118 C 43.8265 6.83348, 43.7496 9.68359, 43.6308 12.2215, 43.5917 13.0857, 43.3942 13.7024, 43.0379 14.0712, 42.6727 14.4554, 42.0551 14.6686, 41.1851 14.7118, 40.6961 14.7361, 39.9229 14.7478, 38.8653 14.7478 Z M 32.3356 12.5958 L 35.4709 12.5958, 35.4709 9.16269, 32.3356 9.16269 Z M 40.2661 10.6741 C 40.2166 10.6075, 40.1428 10.5041, 40.0439 10.3646, 39.204 9.15594, 38.5567 8.25629, 38.102 7.66566 L 38.9692 7.07549 C 39.9031 8.27068, 40.6516 9.24951, 41.2148 10.012 Z M 32.3356 8.11909 L 35.4709 8.11909, 35.4709 4.75077, 32.3356 4.75077 Z" stroke="none" fill="#000000" />
			<path d="M 47.6117 15.0644 L 47.6117 6.93874 C 47.1178 7.8366, 46.6212 8.63279, 46.1219 9.32823, 46.0086 8.8874, 45.8678 8.41957, 45.6995 7.92476, 46.3518 6.96078, 46.9154 5.96036, 47.3895 4.9235, 47.8591 3.90194, 48.2986 2.72384, 48.7084 1.38965 L 49.8276 1.74231 C 49.4871 2.75533, 49.1241 3.72201, 48.7381 4.64281 L 48.7381 15.0644 Z M 49.6279 14.3663 L 49.6279 13.2939, 54.5787 13.2939 C 54.9988 12.181, 55.4284 10.9791, 55.8684 9.68809, 56.3623 8.24909, 56.7676 6.98957, 57.0838 5.90953 L 58.2844 6.26219 C 57.4594 8.66158, 56.6295 11.0056, 55.7941 13.2939 L 59.4998 13.2939, 59.4998 14.3663 Z M 52.518 12.0992 C 52.034 10.2045, 51.4488 8.25854, 50.7614 6.26219 L 51.8658 5.94551 C 52.222 6.99677, 52.7681 8.73355, 53.5041 11.1563, 53.5882 11.4253, 53.6498 11.6246, 53.6894 11.7537 Z M 49.9981 4.98828 L 49.9981 3.93028, 54.3565 3.93028 C 54.0403 3.05761, 53.756 2.292, 53.5041 1.63435 L 54.6826 1.40404 C 54.7321 1.53404, 54.8086 1.73556, 54.912 2.00861, 55.2089 2.79131, 55.4239 3.37654, 55.5571 3.76474 L 54.7343 3.93028, 59.1368 3.93028, 59.1368 4.98828 Z" stroke="none" fill="#000000" />
			<path d="M 68.6264 14.8197 C 68.5769 14.4842, 68.4928 14.0811, 68.374 13.6106, 68.9376 13.6398, 69.6146 13.6542, 70.4054 13.6538, 70.8602 13.6542, 71.1791 13.5643, 71.3618 13.3843, 71.5444 13.2044, 71.6357 12.8864, 71.6357 12.4303 L 71.6357 5.42731, 66.832 5.42731, 66.832 4.35492, 71.6357 4.35492, 71.6357 1.37525, 72.7702 1.37525, 72.7702 4.35492, 74.5272 4.35492, 74.5272 5.42731, 72.7702 5.42731, 72.7702 12.7469 C 72.7702 13.4239, 72.6172 13.925, 72.3105 14.2512, 71.9942 14.5872, 71.4877 14.7671, 70.7909 14.791, 69.9803 14.8103, 69.2588 14.8197, 68.6264 14.8197 Z M 61.3688 14.244 L 61.3688 2.58439, 66.1352 2.58439, 66.1352 14.064, 65.0606 14.064, 65.0606 12.9125, 62.4286 12.9125, 62.4286 14.244 Z M 62.4286 11.9049 L 65.0606 11.9049, 65.0606 8.22705, 62.4286 8.22705 Z M 68.9376 10.5374 C 68.5323 9.71733, 67.9665 8.66878, 67.24 7.39216 L 68.159 6.89555 C 68.7375 7.8366, 69.3308 8.85591, 69.9385 9.95439 Z M 62.4286 7.24102 L 65.0606 7.24102, 65.0606 3.58481, 62.4286 3.58481 Z" stroke="none" fill="#000000" />
			<path d="M 76.5591 14.9709 L 76.5591 4.36931, 77.6931 4.36931, 77.6931 14.9709 Z M 84.9358 14.9421 C 84.8917 14.611, 84.8076 14.2224, 84.6839 13.7761, 85.3559 13.8049, 86.0059 13.8193, 86.6334 13.8193, 87.0734 13.8193, 87.3909 13.7262, 87.5862 13.5391, 87.7814 13.352, 87.879 13.0425, 87.879 12.6102 L 87.879 3.20336, 80.8585 3.20336, 80.8585 2.14536, 89.0207 2.14536, 89.0207 12.8261 C 89.0207 13.5319, 88.865 14.0523, 88.5537 14.3879, 88.2425 14.7239, 87.758 14.8989, 87.1003 14.9133, 87.0904 14.9133, 87.0783 14.9133, 87.0635 14.9133, 86.1544 14.9326, 85.445 14.9421, 84.9358 14.9421 Z M 79.8136 12.128 L 79.8136 5.06745, 85.655 5.06745, 85.655 12.128 Z M 80.8734 11.1491 L 84.58 11.1491, 84.58 9.07632, 80.8734 9.07632 Z M 80.8734 8.10469 L 84.58 8.10469, 84.58 6.04628, 80.8734 6.04628 Z M 78.8941 4.09582 C 78.1825 3.26633, 77.5797 2.59204, 77.0854 2.07339 L 78.0043 1.38965 C 78.6669 2.0329, 79.2945 2.67841, 79.8873 3.32571 Z" stroke="none" fill="#000000" />
			<rect />
		</svg>
	</g>
</svg>
