<?xml version="1.0"?>
<svg xmlns="http://www.w3.org/2000/svg" xmlns:xlink="http://www.w3.org/1999/xlink" width="437.329712" height="285.571259">
	<defs />
	<path d="M 53.4507 -0 C 53.4507 30.0733, 29.52 54.4526, -0 54.4526, -29.52 54.4526, -53.4507 30.0733, -53.4507 -0, -53.4507 -30.0734, -29.52 -54.4526, -0 -54.4526, 29.52 -54.4526, 53.4507 -30.0734, 53.4507 -0 Z M 42.5648 -0 C 42.5648 23.9485, 23.5079 43.3626, -0 43.3626, -23.5079 43.3626, -42.5648 23.9485, -42.5648 -0, -42.5648 -23.9485, -23.5079 -43.3626, -0 -43.3626, 23.5079 -43.3626, 42.5648 -23.9485, 42.5648 -0 Z" fill="none" stroke="#000000" stroke-width="2.20000005" stroke-linecap="round" stroke-linejoin="round" transform="matrix(0.454545 0 -0 0.454545 32.7958 33.2512)" />
	<g transform="matrix(1 0 -0 1 23.824 23.6448)">
		<svg width="53.9427032" height="41.9571304">
			<defs />
			<path d="M 7.4772 11.3665 C 7.4772 11.817, 7.39917 12.2479, 7.24263 12.6586, 7.08658 13.0698, 6.84907 13.4399, 6.53109 13.7691, 6.22929 14.0837, 5.87597 14.3295, 5.47162 14.5072, 5.06726 14.6853, 4.64426 14.7741, 4.20212 14.7741, 3.52835 14.7741, 2.92427 14.676, 2.39037 14.4797, 1.85646 14.2839, 1.42806 14.0233, 1.10468 13.6985 L 0.4898 14.6799 C 0.425025 14.7427, 0.36074 14.7741, 0.295965 14.7741 L 0.231189 14.7741 C 0.0859352 14.7741, 0.00741959 14.701, -0.00337631 14.5543 L -0.00337631 10.8719 C -0.00337631 10.7208, 0.0751393 10.6393, 0.231189 10.6285 L 0.328352 10.6285 C 0.490291 10.629, 0.570769 10.71, 0.570769 10.8719, 0.570769 11.3852, 0.657136 11.8435, 0.829871 12.2464, 1.00261 12.6498, 1.24502 12.9913, 1.55761 13.271, 1.8702 13.5512, 2.25149 13.7657, 2.70198 13.9149, 3.15246 14.064, 3.65251 14.1386, 4.20212 14.1381, 4.47692 14.1386, 4.73995 14.0827, 4.99071 13.9698, 5.24147 13.8575, 5.46376 13.6965, 5.6576 13.4865, 6.06196 13.0419, 6.26168 12.5134, 6.25579 11.9005, 6.25579 11.6497, 6.21948 11.4053, 6.14685 11.1668, 6.07422 10.9288, 5.96479 10.7144, 5.81954 10.523, 5.67428 10.3321, 5.50449 10.1657, 5.31017 10.0244, 5.11584 9.88309, 4.89747 9.78348, 4.65456 9.72557 L 2.49538 9.22307 C 2.11851 9.13474, 1.77746 8.99096, 1.47272 8.79173, 1.16798 8.59298, 0.904951 8.35744, 0.684126 8.08508, 0.463301 7.81322, 0.293511 7.50701, 0.174756 7.16645, 0.0560011 6.82638, -0.00337631 6.47306, -0.00337631 6.106, -0.00337631 5.6879, 0.0790651 5.28355, 0.243457 4.89342, 0.407849 4.50379, 0.643887 4.15685, 0.951079 3.8526, 1.25287 3.56013, 1.60865 3.32998, 2.0184 3.16216, 2.42815 2.99482, 2.84576 2.9109, 3.27171 2.91041, 3.87039 2.9109, 4.3935 3.01298, 4.84104 3.21712, 5.28858 3.42126, 5.64141 3.67496, 5.90002 3.97823 L 6.51489 3.02819 C 6.56347 2.95016, 6.6307 2.9109, 6.71707 2.91041 L 6.7735 2.91041 C 6.93544 2.9109, 7.01641 2.99187, 7.01641 3.15381 L 7.01641 6.8362 C 7.01641 6.98341, 6.93544 7.05653, 6.7735 7.05604 L 6.68468 7.05604 C 6.55513 7.05653, 6.47416 6.99126, 6.44177 6.85975, 6.42067 6.35234, 6.33038 5.89352, 6.17139 5.48229, 6.01239 5.07156, 5.79942 4.71971, 5.53247 4.42626, 5.26551 4.1333, 4.94507 3.90805, 4.57016 3.75102, 4.19525 3.59399, 3.76243 3.51548, 3.27171 3.51499, 2.7059 3.51548, 2.21812 3.71716, 1.80788 4.11956, 1.61405 4.30848, 1.46437 4.52587, 1.35936 4.77173, 1.25435 5.01807, 1.20135 5.27668, 1.20135 5.54854, 1.20135 5.78458, 1.24208 6.00835, 1.32305 6.22034, 1.40402 6.43233, 1.51296 6.62617, 1.65036 6.80135, 1.78776 6.97703, 1.95215 7.12719, 2.14354 7.25282, 2.33492 7.37844, 2.54691 7.46481, 2.77853 7.51143 L 4.92986 8.02178 C 5.31802 8.11109, 5.67134 8.26469, 5.98933 8.48159, 6.30732 8.69898, 6.57574 8.95415, 6.79411 9.24712, 7.01249 9.54057, 7.1808 9.86739, 7.29956 10.2286, 7.41831 10.5897, 7.4772 10.9691, 7.4772 11.3665 Z" stroke="none" fill="#000000" />
			<path d="M 16.8141 14.3717 C 15.8422 14.3409, 14.8963 14.3255, 13.9768 14.3255, 13.0578 14.3255, 12.1118 14.3409, 11.1394 14.3717 L 11.1394 13.7099, 11.6867 13.7099 C 11.8608 13.7104, 12.0248 13.708, 12.1777 13.7027, 12.3311 13.6979, 12.4763 13.6849, 12.6139 13.6642, 12.7514 13.644, 12.8702 13.6234, 12.9702 13.6022, 13.0549 13.5873, 13.1251 13.5402, 13.1804 13.4603, 13.2362 13.381, 13.2636 13.2925, 13.2636 13.1944 L 13.2636 4.52265 C 12.9996 4.65154, 12.6745 4.74916, 12.2888 4.81553, 11.9031 4.88237, 11.4804 4.91556, 11.0206 4.91508 L 11.0206 4.26104 C 11.6549 4.26152, 12.2402 4.18602, 12.7764 4.03453, 13.3126 3.88353, 13.7762 3.59979, 14.1672 3.18381 L 14.413 3.18381 C 14.587 3.18429, 14.6741 3.26893, 14.6741 3.43773 L 14.6741 13.1944 C 14.6741 13.2973, 14.7005 13.3872, 14.7534 13.4642, 14.8063 13.5411, 14.8833 13.5873, 14.9833 13.6022, 15.068 13.6234, 15.1766 13.644, 15.3084 13.6642, 15.4407 13.6849, 15.5897 13.6979, 15.7561 13.7027, 15.9225 13.708, 16.0851 13.7104, 16.2433 13.7099 L 16.8141 13.7099, 16.8141 14.3717 Z" stroke="none" fill="#000000" />
			<rect />
		</svg>
	</g>
	<path d="M 151.743 -0 C 151.743 83.8052, 83.8052 151.743, -0 151.743, -83.8052 151.743, -151.743 83.8052, -151.743 -0, -151.743 -83.8052, -83.8052 -151.743, -0 -151.743, 83.8052 -151.743, 151.743 -83.8052, 151.743 -0 Z" fill="none" stroke="#000000" stroke-width="2.20000005" stroke-linecap="round" stroke-linejoin="round" transform="matrix(0.454545 0 0 0.454545 92.9312 184.093)" />
	<g transform="matrix(1 0 -0 1 68.4222 89.1289)">
		<svg width="150.039169" height="51.0856972">
			<defs />
			<path d="M 2.65748 15.5075 L 2.65748 14.3533, 8.56921 14.3533, 8.56921 9.48531, 4.80096 9.48531 C 3.90588 11.1503, 2.74434 12.8487, 1.31535 14.581, 1.21328 14.4244, 1.03515 14.1756, 0.781446 13.8351, 0.657784 13.6628, 0.568473 13.5397, 0.514493 13.4661, 1.67947 12.1215, 2.64717 10.7789, 3.4181 9.43869, 4.18902 8.09902, 4.84119 6.62538, 5.3751 5.01777 L 1.07244 5.01777, 1.07244 3.84004, 5.71468 3.84004 C 5.936 3.10788, 6.14603 2.32763, 6.34526 1.50027 L 7.63144 1.64945 C 7.4803 2.28837, 7.28352 3.01857, 7.0411 3.84004 L 15.4192 3.84004, 15.4192 5.01777, 6.66914 5.01777 C 6.29717 6.1906, 5.86582 7.29522, 5.3751 8.33113 L 14.4648 8.33113, 14.4648 9.48531, 9.86325 9.48531, 9.86325 14.3533, 15.4192 14.3533, 15.4192 15.5075 Z" stroke="none" fill="#000000" />
			<path d="M 30.0623 16.4025 L 30.0623 15.7038, 22.1936 15.7038, 22.1936 12.7359, 23.334 12.7359, 23.334 14.683, 26.1238 14.683, 26.1238 11.6445, 21.296 11.6445, 21.296 10.6081, 26.1238 10.6081, 26.1238 8.62949, 23.706 8.62949 C 23.334 9.2213, 22.9724 9.72135, 22.622 10.1291, 22.5847 10.1085, 22.5278 10.0722, 22.4522 10.0192, 22.1234 9.79447, 21.8677 9.63253, 21.6842 9.53242, 22.4821 8.65894, 23.1186 7.67994, 23.5926 6.59594 L 24.7247 6.77652 C 24.6335 6.98655, 24.4931 7.26381, 24.3042 7.60879 L 31.1866 7.60879, 31.1866 8.62949, 27.3128 8.62949, 27.3128 10.6081, 31.9629 10.6081, 31.9629 11.6445, 27.3128 11.6445, 27.3128 14.683, 30.0623 14.683, 30.0623 12.7359, 31.2028 12.7359, 31.2028 16.4025 Z M 17.2849 16.2377 C 17.2255 15.7823, 17.1583 15.3794, 17.0827 15.0285, 17.4061 15.0599, 17.7349 15.0756, 18.0691 15.0756, 18.3336 15.0756, 18.5181 15.0241, 18.6231 14.9191, 18.7281 14.8146, 18.7806 14.6364, 18.7806 14.3847 L 18.7806 10.1605, 17.1632 10.8201, 16.961 9.53242 C 17.6191 9.32877, 18.2256 9.12709, 18.7806 8.92785 L 18.7806 5.59094, 17.147 5.59094, 17.147 4.46816, 18.7806 4.46816, 18.7806 1.54738, 19.9372 1.54738, 19.9372 4.46816, 21.4173 4.46816, 21.4173 5.59094, 19.9372 5.59094, 19.9372 8.48031, 21.4658 7.85219 C 21.4766 8.20355, 21.5036 8.61183, 21.5463 9.07703 L 19.9372 9.6816, 19.9372 14.5967 C 19.9372 15.1306, 19.8406 15.5183, 19.6462 15.7587, 19.4303 16.0208, 19.0559 16.167, 18.522 16.1984, 18.5166 16.1984, 18.5058 16.2013, 18.4896 16.2063, 17.994 16.2274, 17.5921 16.2377, 17.2849 16.2377 Z M 29.7551 6.86289 L 28.7197 6.38395 C 29.1942 5.72491, 29.6928 4.90589, 30.2159 3.92641 L 31.2994 4.35824 C 31.0084 4.87694, 30.5153 5.68025, 29.8194 6.76867, 29.7929 6.81087, 29.7713 6.84228, 29.7551 6.86289 Z M 23.1961 6.44676 C 23.0185 6.06007, 22.725 5.4555, 22.3148 4.63305, 22.304 4.61784, 22.2986 4.60753, 22.2986 4.60164 L 23.3821 4.28758 C 23.5656 4.62814, 23.8301 5.15174, 24.1746 5.85789, 24.2345 5.9737, 24.2777 6.06007, 24.3042 6.11699 Z M 26.5281 6.41535 C 26.3289 5.83483, 26.0619 5.12034, 25.7278 4.27188 L 26.8515 4.02848 C 27.0782 4.56287, 27.3506 5.27197, 27.6686 6.15625 Z M 21.8864 3.59664 C 21.8648 3.4455, 21.8216 3.20455, 21.7568 2.8743, 21.7244 2.71236, 21.7004 2.58968, 21.6842 2.50527, 25.2586 2.44835, 28.464 2.29377, 31.2994 2.04203 L 31.5423 3.08629 C 28.9494 3.29632, 25.7307 3.46611, 21.8864 3.59664 Z" stroke="none" fill="#000000" />
			<path d="M 35.9426 16.3633 L 35.9426 8.04848 C 35.6732 8.93374, 35.3739 9.71595, 35.0446 10.3961, 34.7158 11.0664, 34.306 11.7417, 33.8153 12.4218, 33.7672 12.1185, 33.6377 11.59, 33.4272 10.8358, 33.9935 10.1085, 34.4655 9.34987, 34.8424 8.55883, 35.2144 7.77956, 35.5598 6.83443, 35.8778 5.72441 L 33.7505 5.72441, 33.7505 4.58594, 35.9426 4.58594, 35.9426 1.53168, 37.1473 1.53168, 37.1473 4.58594, 39.2741 4.58594, 39.2741 5.72441, 37.1473 5.72441, 37.1473 8.33113, 37.6567 7.83649 C 38.0718 8.21925, 38.7461 8.89448, 39.6785 9.86219 L 38.8457 10.7259 C 38.5763 10.4123, 38.0885 9.87053, 37.3819 9.10059, 37.2798 8.98576, 37.2013 8.89939, 37.1473 8.84149 L 37.1473 16.3633 Z M 43.1965 16.3633 L 43.1965 9.38324, 39.4439 9.38324, 39.4439 8.21336, 43.1965 8.21336, 43.1965 3.76152, 39.8483 3.76152, 39.8483 2.59164, 47.8387 2.59164, 47.8387 3.76152, 44.4743 3.76152, 44.4743 8.21336, 48.3643 8.21336, 48.3643 9.38324, 44.4743 9.38324, 44.4743 16.3633 Z" stroke="none" fill="#000000" />
			<rect />
		</svg>
	</g>
	<path d="M -132.298 0 L -101.201 -23.2612, -101.201 -9.30447, -9.30447 -9.30447, -9.30447 -98.1046, -23.2612 -98.1046, 0 -129.202, 23.2612 -98.1046, 9.30447 -98.1046, 9.30447 -9.30447, 101.201 -9.30447, 101.201 -23.2612, 132.298 0, 101.201 23.2612, 101.201 9.30447, 9.30447 9.30447, 9.30447 98.1046, 23.2612 98.1046, 0 129.202, -23.2612 98.1046, -9.30447 98.1046, -9.30447 9.30447, -101.201 9.30447, -101.201 23.2612 Z" fill="none" stroke="#000000" stroke-width="2.20000005" stroke-linecap="round" stroke-linejoin="round" transform="matrix(0.454545 0 -0 0.454545 92.9312 184.093)" />
	<g transform="matrix(1 0 -0 1 170.548 174.486)">
		<svg width="27.0562763" height="38.9999886">
			<defs />
			<path d="M 6.52075 14.3717 L 0.0698506 14.3717, 0.0698506 13.9485 C 0.0698506 13.9182, 0.0857206 13.872, 0.117461 13.81 L 2.70907 10.9938 C 3.01541 10.6557, 3.3256 10.3094, 3.64011 9.95547, 3.95463 9.60153, 4.23644 9.23988, 4.48459 8.87055, 4.73274 8.50121, 4.93087 8.12033, 5.07899 7.72791, 5.22711 7.33549, 5.30069 6.92383, 5.30069 6.49245, 5.30069 6.12889, 5.25308 5.78889, 5.15786 5.47341, 5.06264 5.15793, 4.92558 4.88093, 4.74572 4.6424, 4.56634 4.40387, 4.34176 4.21151, 4.07245 4.06531, 3.80314 3.91911, 3.49103 3.84602, 3.13708 3.84554, 2.60905 3.84602, 2.14257 4.00375, 1.73812 4.31923, 1.33416 4.63471, 1.06581 4.9824, 0.933562 5.36136, 0.907593 5.37194, 0.949913 5.37723, 1.06052 5.37675 L 1.19518 5.37675 C 1.35388 5.4133, 1.49093 5.4686, 1.60731 5.54266, 1.72369 5.6172, 1.82132 5.71964, 1.90067 5.85044, 1.98002 5.98125, 2.01945 6.13899, 2.01945 6.32317, 2.01945 6.63144, 1.91942 6.86756, 1.7184 7.03155, 1.51738 7.19602, 1.2928 7.27778, 1.04465 7.2773, 0.807083 7.27778, 0.584903 7.19602, 0.379075 7.03155, 0.173246 6.86756, 0.0698506 6.63144, 0.0698506 6.32317, 0.0698506 5.89276, 0.15449 5.48495, 0.32377 5.10022, 0.49305 4.7155, 0.722443 4.38223, 1.01291 4.09994, 1.30338 3.81812, 1.64675 3.59498, 2.04302 3.43051, 2.43929 3.26652, 2.8596 3.18429, 3.30348 3.18381, 3.85316 3.18429, 4.35667 3.26508, 4.81353 3.42666, 5.27039 3.58825, 5.65993 3.82053, 5.98214 4.12302, 6.30434 4.42599, 6.55682 4.77609, 6.73909 5.17332, 6.92135 5.57103, 7.01224 6.01058, 7.01224 6.49245, 7.01224 7.02626, 6.89105 7.51775, 6.64771 7.96644, 6.40485 8.41561, 6.10381 8.82726, 5.74457 9.20141, 5.38533 9.57604, 5.00349 9.92854, 4.59904 10.2594, 4.19508 10.5903, 3.82911 10.912, 3.50161 11.2246 L 1.67849 12.9405, 4.06427 12.9405 C 4.39706 12.941, 4.70773 12.9385, 4.99531 12.9333, 5.28338 12.9284, 5.52768 12.9179, 5.7287 12.9025, 5.92972 12.8871, 6.03263 12.877, 6.03744 12.8712, 6.07976 12.8356, 6.11968 12.764, 6.15671 12.6563, 6.19374 12.5485, 6.22788 12.4216, 6.25962 12.2754, 6.29136 12.1292, 6.3231 11.9806, 6.35484 11.8291, 6.38658 11.6781, 6.41543 11.5122, 6.44188 11.3323 L 7.02811 11.3323 Z" stroke="none" fill="#000000" />
			<rect />
		</svg>
	</g>
	<g transform="matrix(1 0 -0 1 89.2476 257.858)">
		<svg width="27.0562763" height="38.9999886">
			<defs />
			<path d="M 7.292 11.4708 C 7.292 11.9123, 7.19438 12.336, 6.99913 12.7409, 6.80388 13.1463, 6.54227 13.4926, 6.21429 13.7792, 5.84447 14.1028, 5.43618 14.3423, 4.9899 14.4986, 4.54361 14.6554, 4.07713 14.7333, 3.59093 14.7333, 3.15235 14.7333, 2.72482 14.6717, 2.30739 14.5486, 1.88996 14.4255, 1.51389 14.249, 1.17822 14.0182, 0.842544 13.7874, 0.574678 13.5041, 0.373659 13.1679, 0.172639 12.8323, 0.0721291 12.4461, 0.0721291 12.0094, 0.0721291 11.6815, 0.181776 11.4367, 0.40107 11.2751, 0.620364 11.1135, 0.851681 11.0327, 1.09454 11.0322, 1.34846 11.0327, 1.58459 11.1135, 1.80388 11.2751, 2.02317 11.4367, 2.13282 11.6815, 2.13282 12.0094, 2.13282 12.2047, 2.09483 12.3677, 2.01788 12.4985, 1.94142 12.6293, 1.84379 12.7385, 1.72453 12.8255, 1.60575 12.9131, 1.46965 12.9664, 1.31624 12.9866, 1.23737 13.0078, 1.16331 13.0179, 1.09454 13.0174, 1.02625 13.0179, 1.01567 13.0232, 1.0628 13.0328, 1.22679 13.3204, 1.549 13.5748, 2.02991 13.795, 2.51081 14.0158, 3.03116 14.1259, 3.59093 14.1254, 3.85543 14.1259, 4.10214 14.0605, 4.33201 13.9297, 4.56189 13.7989, 4.75377 13.6234, 4.9067 13.4021, 5.09714 13.1155, 5.2265 12.8077, 5.29527 12.4793, 5.36404 12.1513, 5.39819 11.8151, 5.39819 11.4708, 5.39819 11.1173, 5.36404 10.7778, 5.29527 10.4518, 5.2265 10.1262, 5.09714 9.82467, 4.9067 9.54718, 4.748 9.32212, 4.55515 9.13985, 4.32817 9.00135, 4.10118 8.86285, 3.85543 8.7936, 3.59093 8.79312 L 2.44204 8.79312 C 2.28912 8.7936, 2.20688 8.72194, 2.1963 8.57767 L 2.1963 8.49303 C 2.1963 8.43196, 2.21506 8.38338, 2.2516 8.34684, 2.29921 8.30115, 2.35981 8.27807, 2.43387 8.27759, 2.58728 8.25739, 2.74598 8.24729, 2.90949 8.24681, 3.06819 8.24729, 3.224 8.23719, 3.37693 8.21603, 3.66259 8.19583, 3.91074 8.10782, 4.12234 7.95105, 4.33394 7.79475, 4.51091 7.5947, 4.65326 7.35088, 4.79561 7.10754, 4.90381 6.82669, 4.97787 6.50832, 5.05193 6.19044, 5.08896 5.86439, 5.08896 5.53064, 5.08896 5.28489, 5.06251 5.05165, 5.00961 4.83092, 4.95671 4.61066, 4.85909 4.41782, 4.71626 4.25335, 4.4205 3.91527, 4.04539 3.74839, 3.59093 3.7532, 3.10522 3.75368, 2.6599 3.84505, 2.25593 4.02684, 1.85197 4.2091, 1.58074 4.40531, 1.4432 4.61499, 1.40665 4.62076, 1.42492 4.62316, 1.49898 4.62268, 1.68942 4.62316, 1.8688 4.67943, 2.0376 4.79196, 2.29152 4.94104, 2.418 5.19256, 2.418 5.54603, 2.418 5.84419, 2.32182 6.06877, 2.12897 6.21978, 1.93613 6.37127, 1.72068 6.44677, 1.48311 6.44629, 1.25035 6.44677, 1.0325 6.37271, 0.829079 6.22363, 0.625654 6.07503, 0.523702 5.849, 0.523702 5.54603, 0.523702 5.17188, 0.613632 4.8415, 0.793491 4.55391, 0.973351 4.26681, 1.20419 4.02059, 1.48696 3.81524, 1.76973 3.61037, 2.09579 3.4536, 2.46561 3.34587, 2.83591 3.23815, 3.21102 3.18429, 3.59093 3.18381, 3.99778 3.18429, 4.39165 3.23815, 4.77204 3.34587, 5.15244 3.4536, 5.51168 3.62047, 5.84976 3.84554, 6.12484 4.04078, 6.35568 4.28076, 6.54323 4.56545, 6.73078 4.85015, 6.82456 5.17188, 6.82456 5.53064, 6.82456 5.89036, 6.76012 6.22892, 6.63075 6.5468, 6.50139 6.86516, 6.32971 7.15226, 6.1157 7.40858, 5.9017 7.66539, 5.64682 7.89094, 5.35058 8.0857, 5.05482 8.28095, 4.83264 8.40358, 4.68452 8.45456, 4.81148 8.47043, 5.02837 8.54641, 5.33471 8.68203, 5.64153 8.81813, 5.9344 8.99895, 6.21429 9.22401, 6.54227 9.50679, 6.80388 9.8439, 6.99913 10.2363, 7.19438 10.6287, 7.292 11.0404, 7.292 11.4708 Z" stroke="none" fill="#000000" />
			<rect />
		</svg>
	</g>
	<path d="M 151.743 -0 C 151.743 83.8052, 83.8052 151.743, -0 151.743, -83.8052 151.743, -151.743 83.8052, -151.743 -0, -151.743 -83.8052, -83.8052 -151.743, -0 -151.743, 83.8052 -151.743, 151.743 -83.8052, 151.743 -0 Z" fill="none" stroke="#000000" stroke-width="2.20000005" stroke-linecap="round" stroke-linejoin="round" transform="matrix(0.454545 0 0 0.454545 343.931 184.093)" />
	<g transform="matrix(1 0 -0 1 319.422 89.1289)">
		<svg width="150.039169" height="51.0856972">
			<defs />
			<path d="M 3.72431 16.3633 L 3.72431 9.99566 C 3.01276 10.7916, 2.20994 11.6239, 1.31486 12.4925, 1.1804 12.2314, 0.942894 11.8437, 0.603314 11.3304, 1.74081 10.2999, 2.72225 9.27381, 3.54667 8.25262, 4.36617 7.24271, 5.08263 6.1749, 5.69701 5.04918 L 1.19365 5.04918, 1.19365 3.8793, 6.28735 3.8793 C 6.62203 3.18345, 6.95081 2.39044, 7.27371 1.50027 L 8.60013 1.73582 C 8.30913 2.47436, 8.00439 3.18885, 7.6864 3.8793 L 15.4158 3.8793, 15.4158 5.04918, 7.10392 5.04918 C 6.52732 6.18569, 5.87269 7.24566, 5.13955 8.22906 L 13.8312 8.22906, 13.8312 16.3633, 12.5941 16.3633, 12.5941 15.1463, 4.98596 15.1463, 4.98596 16.3633 Z M 4.98596 14.0078 L 12.5941 14.0078, 12.5941 9.36754, 4.98596 9.36754 Z" stroke="none" fill="#000000" />
			<path d="M 30.0623 16.4025 L 30.0623 15.7038, 22.1936 15.7038, 22.1936 12.7359, 23.334 12.7359, 23.334 14.683, 26.1238 14.683, 26.1238 11.6445, 21.296 11.6445, 21.296 10.6081, 26.1238 10.6081, 26.1238 8.62949, 23.706 8.62949 C 23.334 9.2213, 22.9724 9.72135, 22.622 10.1291, 22.5847 10.1085, 22.5278 10.0722, 22.4522 10.0192, 22.1234 9.79447, 21.8677 9.63253, 21.6842 9.53242, 22.4821 8.65894, 23.1186 7.67994, 23.5926 6.59594 L 24.7247 6.77652 C 24.6335 6.98655, 24.4931 7.26381, 24.3042 7.60879 L 31.1866 7.60879, 31.1866 8.62949, 27.3128 8.62949, 27.3128 10.6081, 31.9629 10.6081, 31.9629 11.6445, 27.3128 11.6445, 27.3128 14.683, 30.0623 14.683, 30.0623 12.7359, 31.2028 12.7359, 31.2028 16.4025 Z M 17.2849 16.2377 C 17.2255 15.7823, 17.1583 15.3794, 17.0827 15.0285, 17.4061 15.0599, 17.7349 15.0756, 18.0691 15.0756, 18.3336 15.0756, 18.5181 15.0241, 18.6231 14.9191, 18.7281 14.8146, 18.7806 14.6364, 18.7806 14.3847 L 18.7806 10.1605, 17.1632 10.8201, 16.961 9.53242 C 17.6191 9.32877, 18.2256 9.12709, 18.7806 8.92785 L 18.7806 5.59094, 17.147 5.59094, 17.147 4.46816, 18.7806 4.46816, 18.7806 1.54738, 19.9372 1.54738, 19.9372 4.46816, 21.4173 4.46816, 21.4173 5.59094, 19.9372 5.59094, 19.9372 8.48031, 21.4658 7.85219 C 21.4766 8.20355, 21.5036 8.61183, 21.5463 9.07703 L 19.9372 9.6816, 19.9372 14.5967 C 19.9372 15.1306, 19.8406 15.5183, 19.6462 15.7587, 19.4303 16.0208, 19.0559 16.167, 18.522 16.1984, 18.5166 16.1984, 18.5058 16.2013, 18.4896 16.2063, 17.994 16.2274, 17.5921 16.2377, 17.2849 16.2377 Z M 29.7551 6.86289 L 28.7197 6.38395 C 29.1942 5.72491, 29.6928 4.90589, 30.2159 3.92641 L 31.2994 4.35824 C 31.0084 4.87694, 30.5153 5.68025, 29.8194 6.76867, 29.7929 6.81087, 29.7713 6.84228, 29.7551 6.86289 Z M 23.1961 6.44676 C 23.0185 6.06007, 22.725 5.4555, 22.3148 4.63305, 22.304 4.61784, 22.2986 4.60753, 22.2986 4.60164 L 23.3821 4.28758 C 23.5656 4.62814, 23.8301 5.15174, 24.1746 5.85789, 24.2345 5.9737, 24.2777 6.06007, 24.3042 6.11699 Z M 26.5281 6.41535 C 26.3289 5.83483, 26.0619 5.12034, 25.7278 4.27188 L 26.8515 4.02848 C 27.0782 4.56287, 27.3506 5.27197, 27.6686 6.15625 Z M 21.8864 3.59664 C 21.8648 3.4455, 21.8216 3.20455, 21.7568 2.8743, 21.7244 2.71236, 21.7004 2.58968, 21.6842 2.50527, 25.2586 2.44835, 28.464 2.29377, 31.2994 2.04203 L 31.5423 3.08629 C 28.9494 3.29632, 25.7307 3.46611, 21.8864 3.59664 Z" stroke="none" fill="#000000" />
			<path d="M 35.9426 16.3633 L 35.9426 8.04848 C 35.6732 8.93374, 35.3739 9.71595, 35.0446 10.3961, 34.7158 11.0664, 34.306 11.7417, 33.8153 12.4218, 33.7672 12.1185, 33.6377 11.59, 33.4272 10.8358, 33.9935 10.1085, 34.4655 9.34987, 34.8424 8.55883, 35.2144 7.77956, 35.5598 6.83443, 35.8778 5.72441 L 33.7505 5.72441, 33.7505 4.58594, 35.9426 4.58594, 35.9426 1.53168, 37.1473 1.53168, 37.1473 4.58594, 39.2741 4.58594, 39.2741 5.72441, 37.1473 5.72441, 37.1473 8.33113, 37.6567 7.83649 C 38.0718 8.21925, 38.7461 8.89448, 39.6785 9.86219 L 38.8457 10.7259 C 38.5763 10.4123, 38.0885 9.87053, 37.3819 9.10059, 37.2798 8.98576, 37.2013 8.89939, 37.1473 8.84149 L 37.1473 16.3633 Z M 43.1965 16.3633 L 43.1965 9.38324, 39.4439 9.38324, 39.4439 8.21336, 43.1965 8.21336, 43.1965 3.76152, 39.8483 3.76152, 39.8483 2.59164, 47.8387 2.59164, 47.8387 3.76152, 44.4743 3.76152, 44.4743 8.21336, 48.3643 8.21336, 48.3643 9.38324, 44.4743 9.38324, 44.4743 16.3633 Z" stroke="none" fill="#000000" />
			<rect />
		</svg>
	</g>
	<path d="M -132.298 0 L -101.201 -23.2612, -101.201 -9.30447, -9.30447 -9.30447, -9.30447 -98.1045, -23.2612 -98.1045, 0 -129.202, 23.2612 -98.1045, 9.30447 -98.1045, 9.30447 -9.30447, 101.201 -9.30447, 101.201 -23.2612, 132.298 0, 101.201 23.2612, 101.201 9.30447, 9.30447 9.30447, 9.30447 98.1045, 23.2612 98.1045, 0 129.202, -23.2612 98.1045, -9.30447 98.1045, -9.30447 9.30447, -101.201 9.30447, -101.201 23.2612 Z" fill="none" stroke="#000000" stroke-width="2.20000005" stroke-linecap="round" stroke-linejoin="round" transform="matrix(0.454545 0 -0 0.454545 343.931 184.093)" />
	<g transform="matrix(1 0 -0 1 421.367 174.486)">
		<svg width="27.0562763" height="38.9999886">
			<defs />
			<path d="M 7.38941 9.01626 C 7.38941 9.75542, 7.33795 10.4902, 7.23504 11.2212, 7.13213 11.9522, 6.87724 12.6385, 6.4704 13.279, 6.17993 13.7465, 5.79135 14.1052, 5.30564 14.3563, 4.81992 14.6078, 4.2914 14.7333, 3.72056 14.7333, 3.17137 14.7333, 2.65247 14.6078, 2.16386 14.3563, 1.67526 14.1052, 1.28524 13.7465, 0.994775 13.279, 0.588408 12.6385, 0.333527 11.9522, 0.230612 11.2212, 0.127698 10.4902, 0.0757599 9.75542, 0.0757599 9.01626, 0.0757599 8.26797, 0.127698 7.52015, 0.230612 6.77379, 0.333527 6.02742, 0.588408 5.32866, 0.994775 4.67655, 1.28524 4.20525, 1.67382 3.83832, 2.15953 3.57671, 2.64573 3.31509, 3.16608 3.18429, 3.72056 3.18381, 4.28611 3.18429, 4.81271 3.31509, 5.30131 3.57671, 5.78991 3.83832, 6.17993 4.20525, 6.4704 4.67655, 6.87724 5.32866, 7.13213 6.02742, 7.23504 6.77379, 7.33795 7.52015, 7.38941 8.26797, 7.38941 9.01626 Z M 5.82021 8.74695 C 5.82021 8.42426, 5.8178 8.0833, 5.81251 7.72406, 5.8077 7.3653, 5.79424 7.01376, 5.77308 6.66991, 5.75192 6.32654, 5.71393 6.00193, 5.65814 5.69655, 5.60284 5.39165, 5.53551 5.131, 5.45616 4.91508, 5.29746 4.5669, 5.06518 4.28076, 4.75884 4.05762, 4.45251 3.83447, 4.10625 3.7229, 3.72056 3.72242, 3.34545 3.7229, 3.00641 3.83592, 2.70248 4.06146, 2.39903 4.28749, 2.16771 4.57171, 2.00901 4.91508, 1.93014 5.131, 1.86281 5.39165, 1.80703 5.69655, 1.75172 6.00193, 1.71325 6.32654, 1.69209 6.66991, 1.67093 7.01376, 1.65795 7.3653, 1.65266 7.72406, 1.64737 8.0833, 1.64448 8.42426, 1.64448 8.74695, 1.64448 9.10667, 1.64737 9.48515, 1.65266 9.88238, 1.65795 10.2801, 1.67093 10.6648, 1.69209 11.0366, 1.71325 11.4088, 1.75172 11.7613, 1.80703 12.0946, 1.86281 12.4283, 1.93014 12.7077, 2.00901 12.9328, 2.15713 13.3079, 2.38604 13.6157, 2.69479 13.8566, 3.00353 14.098, 3.34545 14.2182, 3.72056 14.2178, 4.11154 14.2182, 4.46164 14.098, 4.77039 13.8566, 5.07961 13.6157, 5.30804 13.3079, 5.45616 12.9328, 5.53551 12.7077, 5.60284 12.4283, 5.65814 12.0946, 5.71393 11.7613, 5.75192 11.4088, 5.77308 11.0366, 5.79424 10.6648, 5.8077 10.2801, 5.81251 9.88238, 5.8178 9.48515, 5.82021 9.10667, 5.82021 8.74695 Z" stroke="none" fill="#000000" />
			<rect />
		</svg>
	</g>
	<g transform="matrix(1 0 -0 1 340.976 257.858)">
		<svg width="21.010046" height="38.9999886">
			<defs />
			<path d="M 5.84885 14.3717 C 4.87693 14.3409, 3.93146 14.3255, 3.01197 14.3255, 2.09295 14.3255, 1.14749 14.3409, 0.175572 14.3717 L 0.175572 13.7099, 0.722365 13.7099 C 0.896453 13.7104, 1.06044 13.708, 1.21337 13.7027, 1.36678 13.6979, 1.51202 13.6849, 1.64956 13.6642, 1.7871 13.644, 1.90588 13.6234, 2.00591 13.6022, 2.09055 13.5873, 2.16028 13.5402, 2.21558 13.4603, 2.27137 13.381, 2.29878 13.2925, 2.29878 13.1944 L 2.29878 4.52265 C 2.03524 4.65154, 1.71015 4.74916, 1.32446 4.81553, 0.938773 4.88237, 0.516536 4.91556, 0.0567876 4.91508 L 0.0567876 4.26104 C 0.690625 4.26152, 1.27589 4.18602, 1.8121 4.03453, 2.34832 3.88353, 2.81191 3.59979, 3.20241 3.18381 L 3.44815 3.18381 C 3.62224 3.18429, 3.70929 3.26893, 3.70929 3.43773 L 3.70929 13.1944 C 3.70929 13.2973, 3.73574 13.3872, 3.78864 13.4642, 3.84153 13.5411, 3.91848 13.5873, 4.01851 13.6022, 4.10315 13.6234, 4.21183 13.644, 4.3436 13.6642, 4.47537 13.6849, 4.62445 13.6979, 4.79085 13.7027, 4.95724 13.708, 5.11979 13.7104, 5.27849 13.7099 L 5.84885 13.7099, 5.84885 14.3717 Z" stroke="none" fill="#000000" />
			<rect />
		</svg>
	</g>
	<path d="M 53.4506 -0 C 53.4506 30.0733, 29.52 54.4526, -0 54.4526, -29.52 54.4526, -53.4506 30.0733, -53.4506 -0, -53.4506 -30.0734, -29.52 -54.4526, -0 -54.4526, 29.52 -54.4526, 53.4506 -30.0734, 53.4506 -0 Z M 42.5647 -0 C 42.5647 23.9485, 23.5078 43.3626, -0 43.3626, -23.5078 43.3626, -42.5647 23.9485, -42.5647 -0, -42.5647 -23.9485, -23.5078 -43.3626, -0 -43.3626, 23.5078 -43.3626, 42.5647 -23.9485, 42.5647 -0 Z" fill="none" stroke="#000000" stroke-width="2.20000005" stroke-linecap="round" stroke-linejoin="round" transform="matrix(0.454545 0 -0 0.454545 404.067 33.2512)" />
	<g transform="matrix(1 0 -0 1 395.095 23.6448)">
		<svg width="57.0301361" height="41.9571304">
			<defs />
			<path d="M 7.4772 11.3665 C 7.4772 11.817, 7.39917 12.2479, 7.24263 12.6586, 7.08658 13.0698, 6.84907 13.4399, 6.53109 13.7691, 6.22929 14.0837, 5.87597 14.3295, 5.47162 14.5072, 5.06726 14.6853, 4.64426 14.7741, 4.20212 14.7741, 3.52835 14.7741, 2.92427 14.676, 2.39037 14.4797, 1.85646 14.2839, 1.42806 14.0233, 1.10468 13.6985 L 0.4898 14.6799 C 0.425025 14.7427, 0.36074 14.7741, 0.295965 14.7741 L 0.231189 14.7741 C 0.0859352 14.7741, 0.00741959 14.701, -0.00337631 14.5543 L -0.00337631 10.8719 C -0.00337631 10.7208, 0.0751393 10.6393, 0.231189 10.6285 L 0.328352 10.6285 C 0.490291 10.629, 0.570769 10.71, 0.570769 10.8719, 0.570769 11.3852, 0.657136 11.8435, 0.829871 12.2464, 1.00261 12.6498, 1.24502 12.9913, 1.55761 13.271, 1.8702 13.5512, 2.25149 13.7657, 2.70198 13.9149, 3.15246 14.064, 3.65251 14.1386, 4.20212 14.1381, 4.47692 14.1386, 4.73995 14.0827, 4.99071 13.9698, 5.24147 13.8575, 5.46376 13.6965, 5.6576 13.4865, 6.06196 13.0419, 6.26168 12.5134, 6.25579 11.9005, 6.25579 11.6497, 6.21948 11.4053, 6.14685 11.1668, 6.07422 10.9288, 5.96479 10.7144, 5.81954 10.523, 5.67428 10.3321, 5.50449 10.1657, 5.31017 10.0244, 5.11584 9.88309, 4.89747 9.78348, 4.65456 9.72557 L 2.49538 9.22307 C 2.11851 9.13474, 1.77746 8.99096, 1.47272 8.79173, 1.16798 8.59298, 0.904951 8.35744, 0.684126 8.08508, 0.463301 7.81322, 0.293511 7.50701, 0.174756 7.16645, 0.0560011 6.82638, -0.00337631 6.47306, -0.00337631 6.106, -0.00337631 5.6879, 0.0790651 5.28355, 0.243457 4.89342, 0.407849 4.50379, 0.643887 4.15685, 0.951079 3.8526, 1.25287 3.56013, 1.60865 3.32998, 2.0184 3.16216, 2.42815 2.99482, 2.84576 2.9109, 3.27171 2.91041, 3.87039 2.9109, 4.3935 3.01298, 4.84104 3.21712, 5.28858 3.42126, 5.64141 3.67496, 5.90002 3.97823 L 6.51489 3.02819 C 6.56347 2.95016, 6.6307 2.9109, 6.71707 2.91041 L 6.7735 2.91041 C 6.93544 2.9109, 7.01641 2.99187, 7.01641 3.15381 L 7.01641 6.8362 C 7.01641 6.98341, 6.93544 7.05653, 6.7735 7.05604 L 6.68468 7.05604 C 6.55513 7.05653, 6.47416 6.99126, 6.44177 6.85975, 6.42067 6.35234, 6.33038 5.89352, 6.17139 5.48229, 6.01239 5.07156, 5.79942 4.71971, 5.53247 4.42626, 5.26551 4.1333, 4.94507 3.90805, 4.57016 3.75102, 4.19525 3.59399, 3.76243 3.51548, 3.27171 3.51499, 2.7059 3.51548, 2.21812 3.71716, 1.80788 4.11956, 1.61405 4.30848, 1.46437 4.52587, 1.35936 4.77173, 1.25435 5.01807, 1.20135 5.27668, 1.20135 5.54854, 1.20135 5.78458, 1.24208 6.00835, 1.32305 6.22034, 1.40402 6.43233, 1.51296 6.62617, 1.65036 6.80135, 1.78776 6.97703, 1.95215 7.12719, 2.14354 7.25282, 2.33492 7.37844, 2.54691 7.46481, 2.77853 7.51143 L 4.92986 8.02178 C 5.31802 8.11109, 5.67134 8.26469, 5.98933 8.48159, 6.30732 8.69898, 6.57574 8.95415, 6.79411 9.24712, 7.01249 9.54057, 7.1808 9.86739, 7.29956 10.2286, 7.41831 10.5897, 7.4772 10.9691, 7.4772 11.3665 Z" stroke="none" fill="#000000" />
			<path d="M 16.8363 14.3717 L 10.3863 14.3717, 10.3863 13.9485 C 10.3863 13.9182, 10.4022 13.872, 10.4339 13.81 L 13.0251 10.9938 C 13.3319 10.6557, 13.6421 10.3094, 13.9566 9.95547, 14.2711 9.60153, 14.5519 9.23988, 14.8001 8.87055, 15.0482 8.50121, 15.2464 8.12033, 15.3945 7.72791, 15.5426 7.33549, 15.6162 6.92383, 15.6162 6.49245, 15.6162 6.12889, 15.5691 5.78889, 15.4738 5.47341, 15.3786 5.15793, 15.2416 4.88093, 15.0617 4.6424, 14.8818 4.40387, 14.6573 4.21151, 14.3879 4.06531, 14.1186 3.91911, 13.807 3.84602, 13.4531 3.84554, 12.925 3.84602, 12.4585 4.00375, 12.0546 4.31923, 11.6506 4.63471, 11.3823 4.9824, 11.25 5.36136, 11.2241 5.37194, 11.2664 5.37723, 11.377 5.37675 L 11.5116 5.37675 C 11.6703 5.4133, 11.8074 5.4686, 11.9238 5.54266, 12.0402 5.6172, 12.1378 5.71964, 12.2171 5.85044, 12.2965 5.98125, 12.3359 6.13899, 12.3359 6.32317, 12.3359 6.63144, 12.2359 6.86756, 12.0349 7.03155, 11.8338 7.19602, 11.6093 7.27778, 11.3611 7.2773, 11.1235 7.27778, 10.9018 7.19602, 10.6955 7.03155, 10.4897 6.86756, 10.3863 6.63144, 10.3863 6.32317, 10.3863 5.89276, 10.471 5.48495, 10.6402 5.10022, 10.8095 4.7155, 11.0389 4.38223, 11.3294 4.09994, 11.6198 3.81812, 11.9632 3.59498, 12.3595 3.43051, 12.7557 3.26652, 13.1761 3.18429, 13.6195 3.18381, 14.1687 3.18429, 14.6722 3.26508, 15.129 3.42666, 15.5859 3.58825, 15.9754 3.82053, 16.2976 4.12302, 16.6198 4.42599, 16.8723 4.77609, 17.0546 5.17332, 17.2368 5.57103, 17.3277 6.01058, 17.3277 6.49245, 17.3277 7.02626, 17.2066 7.51775, 16.9632 7.96644, 16.7204 8.41561, 16.4193 8.82726, 16.0601 9.20141, 15.7008 9.57604, 15.319 9.92854, 14.915 10.2594, 14.5111 10.5903, 14.1451 10.912, 13.8176 11.2246 L 11.9949 12.9405, 14.3803 12.9405 C 14.713 12.941, 15.0237 12.9385, 15.3113 12.9333, 15.5994 12.9284, 15.8437 12.9179, 16.0442 12.9025, 16.2452 12.8871, 16.3481 12.877, 16.3529 12.8712, 16.3953 12.8356, 16.4352 12.764, 16.4722 12.6563, 16.5092 12.5485, 16.5434 12.4216, 16.5751 12.2754, 16.6069 12.1292, 16.6386 11.9806, 16.6703 11.8291, 16.7021 11.6781, 16.7309 11.5122, 16.7574 11.3323 L 17.3436 11.3323 Z" stroke="none" fill="#000000" />
			<rect />
		</svg>
	</g>
</svg>
