<svg width="1130" height="500" xmlns="http://www.w3.org/2000/svg" xmlns:xlink="http://www.w3.org/1999/xlink" xml:space="preserve" overflow="hidden"><g transform="translate(-1699 -297)"><path d="M0.125651-0.151561 41.1259-0.151561 41.1259 2.8489 0.125651 2.8489Z" fill-rule="evenodd" transform="matrix(1 0 0 -1 2386 428)"/><path d="M0.125142-0.144656 3.12524-0.144656 3.12524 65.8557 0.125142 65.8557Z" fill-rule="evenodd" transform="matrix(1 0 0 -1 2386 492)"/><path d="M0.12407-0.139437 39.1239-0.139437 39.1239 2.8603 0.12407 2.8603Z" fill-rule="evenodd" transform="matrix(1 0 0 -1 2388 492)"/><path d="M0.124041-0.143576 3.12414-0.143576 3.12414 66.8565 0.124041 66.8565Z" fill-rule="evenodd" transform="matrix(1 0 0 -1 2375 492)"/><path d="M9.34913 19.1107 7.85546 19.1107 8.42468 19.1107 6.93066 18.3902 5.7216 17.5975 6.07718 18.03 4.86813 16.8771 3.94332 15.4359 3.01852 13.9228 3.30313 14.6432 3.01852 12.8417 2.66294 10.9684 2.66294 11.6888 3.30313 7.94216 2.94755 8.37428 4.7968 5.34803 4.7968 5.78015 6.00621 4.62724 7.14429 3.54659 6.57507 3.90681 9.63374 3.18638 9.27816 3.18638 14.3993 3.18638 14.1219 3.18638 17.1734 3.90681 16.8178 3.54659 19.2435 5.70825 18.8807 5.34803 19.8055 6.86116 20.4454 8.30238 20.4454 7.94216 21.0146 9.8155 20.7371 9.45529 20.7371 13.1301 21.0146 12.4096 20.4454 14.283 19.8055 15.7961 19.8055 15.364 18.8807 16.8771 19.2435 16.8771 18.0272 18.03 18.0272 17.5975 16.8178 18.3252 17.1734 18.3252 15.6159 19.1107 15.9643 19.1107 9.34913 19.1107 9.34913 22.065 15.9643 22.065 16.5332 21.7048 18.0982 20.9194 19.2435 20.1917 19.5919 20.1917 20.8013 19.1107 20.8013 18.6785 21.7257 17.1654 22.0175 17.1654 22.5796 15.7242 22.5796 15.364 23.2198 13.4903C23.1484 9.7436 23.7245 8.15822 21.7257 4.91556L20.8013 3.47433 19.5919 2.32179C16.7468-0.920873 12.4788 0.376193 9.06452 0.0878751L6.00621 0.808306 5.65027 1.24078 4.44121 2.32179C1.88044 3.97907 0.386769 7.29363 0.244464 10.8965L0.244464 11.6169 0.600048 13.4903 0.884658 15.364 1.16927 15.7242 3.01852 18.6785 3.30313 19.1107 4.51219 20.1917 5.7216 20.9194 6.00621 20.9194 7.57085 21.7048 7.85546 22.065 9.34913 22.065 9.34913 19.1107" fill-rule="evenodd" transform="matrix(1 0 0 -1 2355 468)"/><path d="M0.12315-0.158885 27.1233-0.158885 27.1233 2.84085 0.12315 2.84085Z" fill-rule="evenodd" transform="matrix(1 0 0 -1 2412 392)"/><path d="M21.2591 9.60918 20.5255 13.1865C16.7555 21.744 2.80844 20.8324 0.629263 11.3625L0.258807 9.60918 0.629263 7.78519C2.80844-1.68436 16.7555-2.59636 20.5255 5.95448L21.2591 9.60918" fill-rule="evenodd" transform="matrix(1 0 0 -1 2415 543)"/><path d="M20.3904 10.7194 19.6307 14.3387 20.049 13.9839 18.9269 15.829 18.9269 15.4742 17.8813 16.9645 18.23 16.9645 16.7661 18.0292 17.1216 17.6672 13.5601 19.1647 13.9085 19.1647 9.93618 19.1647 10.7026 19.1647 8.54216 18.3839 7.07861 17.6672 7.42702 18.0292 6.03301 16.9645 4.56945 15.4742 4.91786 15.829 3.45431 12.1317 3.45431 12.5645 3.10589 10.7194 3.10589 11.429 3.45431 9.57679 4.22103 7.8097 4.91786 5.95715 4.56945 6.67421 6.03301 5.25475 7.42702 4.11926 7.07861 4.11926 8.54216 3.40255 8.54216 3.76448 10.7026 3.05457 9.93618 3.05457 13.9085 3.05457 13.5601 2.6998 17.1216 4.11926 16.7661 4.11926 18.23 5.25475 17.8813 4.82881 18.9269 6.31908 20.049 8.16448 19.6307 7.8097 20.3904 11.429 23.248 10.7194 22.5582 7.02183 22.5582 6.67421 21.436 4.82881 21.0943 4.46688 20.049 3.05457 18.5855 1.91192 18.23 1.5643 14.6128 0.0740307 9.58741 0.0740307 7.42702 0.847598 7.07861 0.847598 5.6147 1.5643 5.6147 1.91192 4.22103 3.05457 3.87226 3.05457 2.40871 4.46688 2.40871 4.82881 1.71187 6.67421 0.945149 8.5121 0.596733 8.87403 0.248317 10.7194 0.248317 11.429 0.596733 13.274 0.945149 13.274 1.71187 15.1194 2.40871 16.9645 2.40871 17.6672 3.87226 19.1647 4.22103 19.1647 5.6147 20.229 7.07861 20.9389 7.42702 21.2937 9.58741 22.0744 13.9085 22.0744 14.6128 21.6484 18.23 20.229 18.5855 20.229 20.049 19.1647 20.049 18.7387 21.0943 17.3193 21.436 17.3193 22.5582 15.4742 22.5582 15.1194 23.248 11.429 20.3904 10.7194" fill-rule="evenodd" transform="matrix(1 0 0 -1 2414 545)"/><path d="M0.26144 1.09497 0.26144 0.094836 3.26155 1.09497 3.26155 0.094836 0.26144 1.09497" fill-rule="evenodd" transform="matrix(1 0 0 -1 2434 534)"/><path d="M0.125651-0.109715 41.1259-0.109715 41.1259 2.89002 0.125651 2.89002Z" fill-rule="evenodd" transform="matrix(1 0 0 -1 2386 645)"/><path d="M0.125142-0.115506 3.12524-0.115506 3.12524 65.8849 0.125142 65.8849Z" fill-rule="evenodd" transform="matrix(1 0 0 -1 2386 644)"/><path d="M0.12407-0.122206 39.1239-0.122206 39.1239 2.87789 0.12407 2.87789Z" fill-rule="evenodd" transform="matrix(1 0 0 -1 2388 581)"/><path d="M0.124041-0.114331 3.12414-0.114331 3.12414 66.8857 0.124041 66.8857Z" fill-rule="evenodd" transform="matrix(1 0 0 -1 2375 645)"/><path d="M0.125228-0.102756 26.1254-0.102756 26.1254 2.89734 0.125228 2.89734Z" fill-rule="evenodd" transform="matrix(1 0 0 -1 2413 682)"/><path d="M0.0853955-0.130678 1.08567-0.130678 1.08567 2.86943 0.0853955 2.86943Z" fill-rule="evenodd" transform="matrix(1 0 0 -1 2421 535)"/><path d="M0 220 262 220 262 0 0 0Z" stroke="#000000" stroke-width="4.03189" stroke-miterlimit="8" fill="none" fill-rule="evenodd" transform="matrix(1 0 0 -1 1961 650)"/><path d="M16.7421 11.2379 12.4065 10.5401 12.4065 0.0742689 8.86778 0.0742689 8.86778 9.94198C5.67816 9.37725 2.93703 8.8624 0.64474 8.39705L0.196256 12.3344C1.82407 12.5335 3.85086 12.8492 6.27626 13.2812 6.94073 13.3476 7.80469 13.4807 8.86778 13.6798L8.86778 20.458 1.59158 20.458 1.59158 24.1959C2.75441 27.4519 3.91724 31.3059 5.08006 35.7581L0.744483 35.7581 0.744483 39.3464 5.97739 39.3464C6.57549 41.8051 7.05698 44.0479 7.42258 46.0743L10.9111 45.327C10.5458 43.5661 10.064 41.5726 9.46587 39.3464L17.6394 39.3464 17.6394 35.7581 8.56891 35.7581C7.37271 31.2062 6.22639 27.2689 5.12993 23.9465L8.86778 23.9465 8.86778 30.874 12.4065 30.874 12.4065 23.9465 16.4432 23.9465 16.4432 20.458 12.4065 20.458 12.4065 14.3278C12.9048 14.3942 13.3863 14.4609 13.8517 14.5273 14.3167 14.627 14.7655 14.7099 15.1971 14.7763L16.4931 15.0256 16.7421 11.2379M32.9395 45.4766C34.4679 42.9845 36.3785 40.6588 38.6708 38.4993 40.9968 36.3394 43.5051 34.4956 46.1963 32.9671L44.4519 29.4288C42.3257 30.6913 40.2491 32.2029 38.2223 33.9638L38.2223 30.9238 23.3208 30.9238 23.3208 33.266C21.5932 31.8377 19.7656 30.4754 17.8385 29.1794L15.7952 32.6184C18.719 34.4457 21.261 36.4061 23.4205 38.4993 25.5801 40.5924 27.4572 42.9181 29.052 45.4766L32.9395 45.4766M38.0228 34.1135C35.1988 36.5722 32.8896 39.1967 31.0953 41.9878 29.235 39.1637 26.9589 36.5389 24.2676 34.1135L38.0228 34.1135M40.1163 28.5813 43.3554 28.5813 43.3554 5.65592C43.3554 3.76224 43.0067 2.43329 42.3089 1.66908 41.6444 0.90486 40.4152 0.522752 38.6209 0.522752 37.1592 0.522752 35.6308 0.622495 34.036 0.821981L33.388 4.21072C35.1823 3.94486 36.7771 3.81211 38.1724 3.81211 38.8703 3.81211 39.3686 4.06111 39.6675 4.55946 39.9667 5.02481 40.1163 5.77252 40.1163 6.80224L40.1163 28.5813M18.5364 0.522752 18.5364 27.6844 30.6469 27.6844 30.6469 4.90856C30.6469 3.34676 30.381 2.25067 29.8496 1.61921 29.3513 0.988099 28.4873 0.672367 27.2581 0.672367 26.5269 0.672367 25.4305 0.738742 23.9688 0.871493L23.3208 4.06111C23.5533 4.0281 23.9523 3.97823 24.517 3.91185 25.0817 3.81211 25.6299 3.76224 26.1617 3.76224 26.693 3.76224 27.0586 3.92836 27.2581 4.26059 27.4906 4.55946 27.6069 5.07468 27.6069 5.80553L27.6069 9.99186 21.6262 9.99186 21.6262 0.522752 18.5364 0.522752M34.0858 8.79602 34.0858 26.9865 37.1757 26.9865 37.1757 8.79602 34.0858 8.79602M27.6069 20.3084 27.6069 24.6444 21.6262 24.6444 21.6262 20.3084 27.6069 20.3084M21.6262 17.3179 21.6262 13.0322 27.6069 13.0322 27.6069 17.3179 21.6262 17.3179Z" fill-rule="evenodd" transform="matrix(1 0 0 -1 1994 563)"/><path d="M34.1938 6.27209 34.1938 20.1783 38.2014 20.1783 38.2014 0.0750823 34.1938 0.0750823 34.1938 2.39284 0.201611 2.39284 0.201611 20.0774 4.25877 20.0774 4.25877 6.27209 17.1234 6.27209 17.1234 24.0575 1.6364 24.0575 1.6364 41.4904 5.59489 41.4904 5.59489 27.9876 17.1234 27.9876 17.1234 46.0751 21.1806 46.0751 21.1806 27.9876 32.7586 27.9876 32.7586 41.4904 36.7171 41.4904 36.7171 24.0575 21.1806 24.0575 21.1806 6.27209 34.1938 6.27209Z" fill-rule="evenodd" transform="matrix(1 0 0 -1 2048 563)"/><path d="M20.9921 36.0638 20.9921 29.9072 17.2044 29.9072 17.2044 39.8179 29.2653 39.8179C28.6008 41.7869 27.936 43.5555 27.2715 45.1237L31.0093 46.075 33.3518 39.8179 44.7648 39.8179 44.7648 29.9072 41.1263 29.9072 41.1263 36.0638 20.9921 36.0638M15.4105 22.1485 10.925 20.3969 10.925 5.68055C10.925 3.64494 10.5597 2.21038 9.82853 1.37581 9.13105 0.508453 7.9015 0.0745924 6.14059 0.0745924 4.64554 0.0745924 3.3001 0.207922 2.10391 0.474941L1.3562 4.27915C3.01737 3.94547 4.23006 3.77863 4.99427 3.77863 5.82486 3.77863 6.38994 4.02871 6.68881 4.52923 7.02105 5.03012 7.18716 5.83082 7.18716 6.93204L7.18716 18.8953C7.05441 18.8283 5.84172 18.3277 3.54909 17.3934 2.3199 16.9263 1.53882 16.6092 1.20659 16.4424L0.209889 20.3468 4.2968 21.8484C5.75848 22.4155 6.72218 22.7827 7.18716 22.9496L7.18716 32.3097 1.20659 32.3097 1.20659 36.2641 7.18716 36.2641 7.18716 45.4242 10.925 45.4242 10.925 36.2641 15.6595 36.2641 15.6595 32.3097 10.925 32.3097 10.925 24.351 12.42 24.9016C12.3206 24.8684 13.3173 25.2353 15.4105 26.0028L15.4105 22.1485M34.1989 32.1097C39.8806 28.2053 43.8843 25.369 46.21 23.6004L43.9672 20.447C41.9404 22.1485 37.9536 25.0184 32.0064 29.0564L34.1989 32.1097M29.0658 29.3065C25.9096 26.1365 22.2712 23.0998 18.1516 20.1965L16.1578 23.4C19.4805 25.5023 22.9525 28.3721 26.5741 32.0095L29.0658 29.3065M42.8707 15.2911 32.7039 15.2911 32.7039 5.48056 45.9107 5.48056 45.9107 1.72643 15.0115 1.72643 15.0115 5.48056 28.6672 5.48056 28.6672 15.2911 18.4505 15.2911 18.4505 19.0452 42.8707 19.0452 42.8707 15.2911Z" fill-rule="evenodd" transform="matrix(1 0 0 -1 2094 563)"/><path d="M16.4322 35.7189 16.4322 29.7866 27.6106 29.7866 27.6106 26.0664 16.4322 26.0664 16.4322 20.9886 25.9993 20.9886 25.9993 8.16897C25.9993 6.69413 25.6633 5.58845 24.992 4.85086 24.3544 4.11362 23.3137 3.74482 21.8703 3.74482 21.0648 3.74482 19.89 3.84543 18.3458 4.04666L17.6408 7.41472C17.9431 7.38142 18.4129 7.31447 19.0505 7.21385 19.6885 7.1469 20.259 7.11324 20.7625 7.11324 21.3668 7.11324 21.7865 7.26416 22.0214 7.56564 22.29 7.86748 22.4241 8.40349 22.4241 9.17439L22.4241 17.3187 16.4322 17.3187 16.4322 0.0749181 12.6559 0.0749181 12.6559 17.3187 6.51316 17.3187 6.51316 3.44334 2.93795 3.44334 2.93795 20.9886 12.6559 20.9886 12.6559 26.0664 0.219304 26.0664 0.219304 29.7866 12.6559 29.7866 12.6559 35.7189 6.46277 35.7189C5.85851 34.1435 5.23757 32.7359 4.59959 31.496L1.07514 32.652C2.92128 36.6404 4.23058 40.5618 5.00268 44.4159L8.72868 43.813C8.49342 42.5727 8.12441 41.0982 7.62092 39.3888L12.6559 39.3888 12.6559 46.075 16.4322 46.075 16.4322 39.3888 26.5532 39.3888 26.5532 35.7189 16.4322 35.7189M39.4432 45.4717 43.2193 45.4717 43.2193 6.91201C43.2193 4.7003 42.7832 3.1082 41.9103 2.13607 41.0375 1.13065 39.4933 0.627937 37.2781 0.627937 35.7002 0.627937 33.7029 0.778859 31.2862 1.08034L30.4804 4.95147C32.83 4.58267 34.7269 4.39845 36.1704 4.39845 37.3452 4.39845 38.1843 4.73359 38.6878 5.40387 39.1913 6.07416 39.4432 7.07958 39.4432 8.4205L39.4432 45.4717M30.6316 41.3494 34.4079 41.3494 34.4079 11.085 30.6316 11.085 30.6316 41.3494Z" fill-rule="evenodd" transform="matrix(1 0 0 -1 2145 563)"/><path d="M0.2681 37.0649 11.9383 37.0649C14.4972 37.0649 16.7794 36.5762 18.7849 35.5991 20.8251 34.6217 22.4155 33.2571 23.5566 31.5046 24.6977 29.786 25.2682 27.8148 25.2682 25.5907 25.2682 23.3666 24.6977 21.3786 23.5566 19.6261 22.4502 17.9075 20.8767 16.5596 18.8368 15.5826 16.8313 14.639 14.5319 14.167 11.9383 14.167L4.88442 14.167 4.88442 0.0644088 0.2681 0.0644088 0.2681 37.0649M4.88442 18.1098 11.3677 18.1098C14.2724 18.1098 16.5027 18.8005 18.0586 20.1822 19.6146 21.5977 20.3928 23.4004 20.3928 25.5907 20.3928 27.7809 19.6146 29.584 18.0586 30.9992 16.5027 32.4144 14.2724 33.1221 11.3677 33.1221L4.88442 33.1221 4.88442 18.1098Z" fill-rule="evenodd" transform="matrix(1 0 0 -1 2447 477)"/><path d="M18.2594 0.0536964 0.25917 0.0536964 0.25917 3.05379 18.2594 3.05379 18.2594 0.0536964Z" fill-rule="evenodd" transform="matrix(1 0 0 -1 2476 463)"/><path d="M17.4108 15.0771 30.6659 37.0649 34.2629 37.0649 34.2629 0.0644088 29.9759 0.0644088 29.9759 28.2696 18.5931 9.61802 15.9816 9.61802 4.50054 28.3708 4.50054 0.0644088 0.262859 0.0644088 0.262859 37.0649 4.10642 37.0649 17.4108 15.0771Z" fill-rule="evenodd" transform="matrix(1 0 0 -1 2502 477)"/><path d="M0.271665 19.0896C0.271665 22.8811 0.986178 26.2197 2.4152 29.1054 3.84423 31.9911 5.8051 34.2057 8.29746 35.7493 10.8232 37.2929 13.6479 38.0647 16.7718 38.0647 19.8958 38.0647 22.704 37.2758 25.1963 35.6989 27.7221 34.1554 29.6995 31.9407 31.1285 29.055 32.5575 26.2031 33.272 22.8811 33.272 19.0896 33.272 15.2643 32.541 11.9091 31.0786 9.02338 29.6496 6.17103 27.6891 3.95677 25.1963 2.37949 22.704 0.835921 19.8958 0.0641344 16.7718 0.0641344 13.6479 0.0641344 10.8232 0.835921 8.29746 2.37949 5.8051 3.92307 3.84423 6.1377 2.4152 9.02338 0.986178 11.9091 0.271665 15.2643 0.271665 19.0896M4.95745 19.0896C4.95745 16.1702 5.4229 13.5867 6.35346 11.3384 7.31702 9.09041 8.69617 7.32871 10.4909 6.05363 12.2856 4.81225 14.3793 4.19156 16.7718 4.19156 19.1648 4.19156 21.2416 4.81225 23.0029 6.05363 24.7976 7.32871 26.1768 9.09041 27.1407 11.3384 28.1043 13.5867 28.5862 16.1702 28.5862 19.0896 28.5862 22.0423 28.1043 24.6428 27.1407 26.8908 26.1768 29.1391 24.7976 30.8838 23.0029 32.1255 21.2416 33.3669 19.1648 33.9876 16.7718 33.9876 14.3793 33.9876 12.2856 33.3669 10.4909 32.1255 8.72954 30.8838 7.36691 29.1391 6.40334 26.8908 5.43941 24.6428 4.95745 22.0423 4.95745 19.0896Z" fill-rule="evenodd" transform="matrix(1 0 0 -1 2543 477)"/><path d="M26.2721 10.8351C26.2721 8.72119 25.7981 6.84209 24.8495 5.19815 23.9013 3.58754 22.5112 2.32913 20.6797 1.42328 18.8482 0.517423 16.6734 0.0641344 14.1553 0.0641344 10.6557 0.0641344 7.66336 0.903316 5.17778 2.58096 2.69219 4.2586 1.05703 6.48989 0.271938 9.27485L3.80396 11.3887C4.68723 9.07375 5.99536 7.29538 7.7287 6.05363 9.46204 4.81225 11.6206 4.19156 14.2044 4.19156 16.5589 4.19156 18.3904 4.72819 19.6986 5.80217 21.0067 6.87579 21.6608 8.36899 21.6608 10.2814 21.6608 11.825 21.2522 13.0667 20.4346 14.0059 19.617 14.9792 18.6031 15.7343 17.3928 16.2709 16.2156 16.8079 14.5801 17.3949 12.4873 18.0326 10.1652 18.7374 8.28458 19.4084 6.84578 20.0458 5.43947 20.6835 4.24577 21.6397 3.26432 22.9148 2.28322 24.1899 1.79267 25.8675 1.79267 27.9477 1.79267 30.062 2.31607 31.8737 3.3625 33.3836 4.40929 34.9271 5.84809 36.0848 7.67961 36.8566 9.54362 37.6617 11.6206 38.0647 13.9098 38.0647 16.0684 38.0647 17.9652 37.7121 19.6004 37.0077 21.2356 36.3367 22.544 35.4138 23.5251 34.2394 24.5387 33.0984 25.2585 31.8233 25.6837 30.4142L22.1513 28.3003C21.3991 30.0787 20.3526 31.4711 19.0117 32.4777 17.7035 33.4843 15.954 33.9876 13.7626 33.9876 11.5387 33.9876 9.75623 33.4676 8.41561 32.4274 7.07463 31.4208 6.40397 30.062 6.40397 28.3507 6.40397 27.0756 6.76385 26.0353 7.48325 25.2302 8.23549 24.4247 9.1675 23.7873 10.2796 23.3174 11.3917 22.8478 12.9125 22.3275 14.8418 21.7571 17.2949 21.019 19.2734 20.2976 20.7779 19.5929 22.2823 18.8881 23.5742 17.8312 24.6535 16.422 25.7324 15.0129 26.2721 13.1504 26.2721 10.8351Z" fill-rule="evenodd" transform="matrix(1 0 0 -1 2580 477)"/><path d="M16.7069 11.2142 12.371 10.5168 12.371 0.050589 8.83262 0.050589 8.83262 9.91866C5.643 9.35393 2.90187 8.83871 0.60922 8.37373L0.160737 12.3107C1.78891 12.5102 3.81534 12.8259 6.2411 13.2579 6.90557 13.3243 7.76917 13.457 8.83262 13.6565L8.83262 20.4343 1.55606 20.4343 1.55606 24.1722C2.71925 27.4282 3.88207 31.2823 5.0449 35.7345L0.708963 35.7345 0.708963 39.323 5.94187 39.323C6.53997 41.7815 7.02182 44.0242 7.38706 46.051L10.8759 45.3033C10.5103 43.5424 10.0285 41.549 9.43071 39.323L17.6039 39.323 17.6039 35.7345 8.53339 35.7345C7.33755 31.1829 6.19123 27.2456 5.09477 23.9232L8.83262 23.9232 8.83262 30.8503 12.371 30.8503 12.371 23.9232 16.4077 23.9232 16.4077 20.4343 12.371 20.4343 12.371 14.3045C12.8693 14.3708 13.3512 14.4372 13.8162 14.5036 14.2815 14.6033 14.73 14.6866 15.162 14.753L16.4576 15.002 16.7069 11.2142M32.904 45.4529C34.4324 42.9611 36.343 40.6351 38.6356 38.4756 40.9613 36.316 43.4699 34.4719 46.1608 32.9438L44.4167 29.4051C42.2902 30.6677 40.2136 32.1796 38.1868 33.9405L38.1868 30.9002 23.2853 30.9002 23.2853 33.2427C21.5577 31.814 19.7304 30.4517 17.8034 29.1561L15.7601 32.5947C18.6838 34.422 21.2255 36.3824 23.385 38.4756 25.5449 40.5688 27.4221 42.8944 29.0169 45.4529L32.904 45.4529M37.9876 34.0898C35.1633 36.5485 32.8545 39.1734 31.0602 41.9644 29.1995 39.1401 26.9237 36.5152 24.2325 34.0898L37.9876 34.0898M40.0808 28.558 43.3203 28.558 43.3203 5.6326C43.3203 3.73856 42.9712 2.40961 42.2737 1.6454 41.6092 0.881539 40.3797 0.499431 38.5857 0.499431 37.1237 0.499431 35.5952 0.598815 34.0004 0.798301L33.3528 4.1874C35.1468 3.92154 36.7416 3.78843 38.1373 3.78843 38.8347 3.78843 39.3331 4.03779 39.6323 4.53614 39.9312 5.00113 40.0808 5.74884 40.0808 6.77892L40.0808 28.558M18.5012 0.499431 18.5012 27.6607 30.6117 27.6607 30.6117 4.88488C30.6117 3.32344 30.3458 2.22699 29.8141 1.59588 29.3158 0.964419 28.4518 0.648687 27.2226 0.648687 26.4917 0.648687 25.3953 0.715062 23.9332 0.848172L23.2853 4.03779C23.5181 4.00442 23.9167 3.95455 24.4815 3.88817 25.0466 3.78843 25.5944 3.73856 26.1261 3.73856 26.6579 3.73856 27.0231 3.90468 27.2226 4.23727 27.4551 4.53614 27.5713 5.051 27.5713 5.78221L27.5713 9.96853 21.5911 9.96853 21.5911 0.499431 18.5012 0.499431M34.0503 8.77234 34.0503 26.9632 37.1402 26.9632 37.1402 8.77234 34.0503 8.77234M27.5713 20.2847 27.5713 24.6207 21.5911 24.6207 21.5911 20.2847 27.5713 20.2847M21.5911 17.2946 21.5911 13.0085 27.5713 13.0085 27.5713 17.2946 21.5911 17.2946Z" fill-rule="evenodd" transform="matrix(1 0 0 -1 1740 389)"/><path d="M34.1585 6.24852 34.1585 20.1543 38.1665 20.1543 38.1665 0.051143 34.1585 0.051143 34.1585 2.3689 0.166347 2.3689 0.166347 20.0535 4.22386 20.0535 4.22386 6.24852 17.0882 6.24852 17.0882 24.034 1.60149 24.034 1.60149 41.4665 5.55963 41.4665 5.55963 27.9636 17.0882 27.9636 17.0882 46.0516 21.1457 46.0516 21.1457 27.9636 32.7237 27.9636 32.7237 41.4665 36.6819 41.4665 36.6819 24.034 21.1457 24.034 21.1457 6.24852 34.1585 6.24852Z" fill-rule="evenodd" transform="matrix(1 0 0 -1 1794 389)"/><path d="M16.3286 42.0509 14.9238 22.5971 17.9841 22.5971C17.8501 16.0794 17.5493 10.6423 17.0809 6.28604 16.8133 3.99139 16.2282 2.37868 15.325 1.44753 14.4558 0.516385 12.9676 0.0509921 10.8607 0.0509921 8.65347 0.0509921 6.63004 0.183859 4.79079 0.449952L4.03855 4.04131C6.44623 3.70878 8.25225 3.54252 9.45591 3.54252 10.8271 3.54252 11.7802 3.82513 12.3154 4.39071 12.8506 4.95593 13.2352 6.01995 13.4692 7.58311 13.904 10.6423 14.1546 14.4997 14.2218 19.1555L2.43332 19.1555 3.83776 36.3147 7.29886 36.3147 6.09521 22.5971 11.2117 22.5971 12.466 38.4596 1.02851 38.4596 1.02851 42.0509 16.3286 42.0509M24.756 38.1102 24.756 4.83959 46.1759 4.83959 46.1759 1.04857 20.8934 1.04857 20.8934 41.9012 45.7245 41.9012 45.7245 38.1102 24.756 38.1102M25.9099 9.52835C28.5183 12.8536 31.043 16.7279 33.4846 21.1506 30.341 26.405 27.8495 30.4452 26.0103 33.2717L28.9697 35.1673C30.1402 33.3715 32.2972 29.9464 35.4409 24.8917 37.1797 28.3502 38.8186 31.925 40.357 35.6162L43.6177 34.1199C41.7781 29.6304 39.7882 25.3406 37.6481 21.2504 40.6914 16.2291 43.0489 12.2385 44.7213 9.27878L41.4104 7.43336C39.638 10.6258 37.6983 14.0009 35.5915 17.5593 33.5179 13.9011 31.2604 10.476 28.8192 7.28362L25.9099 9.52835M12.215 11.4237C11.1449 11.2574 7.26564 10.5424 0.577091 9.27878L0.175872 12.9204C0.97831 12.9868 2.88473 13.2694 5.89442 13.7682 8.9041 14.3004 10.9109 14.6829 11.9141 14.9156L12.215 11.4237Z" fill-rule="evenodd" transform="matrix(1 0 0 -1 1840 388)"/><path d="M44.1829 36.6309C44.1494 30.885 44.066 25.6069 43.9322 20.7964 43.7987 15.9859 43.5479 11.6264 43.1807 7.71772 43.0136 5.98075 42.6962 4.67775 42.2282 3.80908 41.7942 2.90722 41.1091 2.28927 40.1736 1.95522 39.2717 1.58763 37.9519 1.40401 36.2148 1.40401 34.9452 1.40401 33.3917 1.48734 31.5539 1.65436L30.8526 5.66329C32.8235 5.3628 34.5942 5.21237 36.1646 5.21237 36.9663 5.21237 37.5677 5.32925 37.9685 5.56301 38.4029 5.79677 38.7204 6.2311 38.921 6.86601 39.1548 7.50056 39.3384 8.45255 39.4722 9.72201 39.7728 12.929 39.9564 16.2864 40.0235 19.7943 40.1235 23.3353 40.1906 27.6614 40.2237 32.7724L33.1074 32.7724C32.7402 26.3252 32.2722 21.3642 31.7044 17.8899 31.1697 14.4492 30.2843 11.3926 29.0483 8.71986 27.8123 6.08103 25.9078 3.19113 23.3354 0.0508647L19.8774 2.60672C22.3162 5.41258 24.1205 7.96844 25.2897 10.2732 26.4926 12.5784 27.3779 15.3846 27.9458 18.6919 28.5136 22.0323 28.9314 26.726 29.1988 32.7724L22.9346 32.7724 22.9346 36.6309 29.3492 36.6309C29.416 38.6351 29.4827 41.7754 29.5494 46.0513L33.4585 46.0513C33.4585 45.016 33.4419 44.2306 33.4083 43.6964 33.4083 41.3912 33.3582 39.0363 33.2579 36.6309L44.1829 36.6309M2.638 42.2931 20.8796 42.2931 20.8796 38.5349 2.638 38.5349 2.638 42.2931M19.5768 5.71344 18.5245 8.77001C15.0834 7.90134 10.2554 6.76572 4.04142 5.3628 3.80764 5.32925 3.00563 5.17882 1.63576 4.91151L0.182553 9.02072C0.817521 9.28803 1.30168 9.57194 1.63576 9.87244 2.00339 10.2065 2.32088 10.6242 2.58821 11.1253 3.35631 12.5282 4.25861 14.6328 5.2944 17.439 6.36338 20.2452 7.28192 22.9512 8.05038 25.5568L0.383145 25.5568 0.383145 29.4153 22.4331 29.4153 22.4331 25.5568 12.1098 25.5568C11.3078 22.9176 10.3391 20.0281 9.20306 16.8878 8.06733 13.7811 7.09829 11.4424 6.29664 9.87244 10.7064 10.7743 14.3481 11.5596 17.2213 12.2277 15.9518 15.5015 14.7825 18.1738 13.7135 20.2452L17.2213 21.598C18.0565 19.9278 19.0422 17.7063 20.1783 14.9337 21.3475 12.1942 22.3162 9.75556 23.0847 7.61744L19.5768 5.71344Z" fill-rule="evenodd" transform="matrix(1 0 0 -1 1891 389)"/><path d="M4.22082 43.0511 20.6991 43.0511 20.6991 30.5237 4.22082 30.5237 4.22082 43.0511M25.4285 43.0511 42.0065 43.0511 42.0065 30.5237 25.4285 30.5237 25.4285 43.0511M7.80514 33.8047 17.1646 33.8047 17.1646 39.8199 7.80514 39.8199 7.80514 33.8047M28.9634 33.8047 38.5218 33.8047 38.5218 39.8199 28.9634 39.8199 28.9634 33.8047M45.093 13.6716C43.7321 13.9035 42.6039 14.119 41.7079 14.3179L41.7079 0.0508185 38.1731 0.0508185 38.1731 2.48653 28.9136 2.48653 28.9136 0.0508185 25.3787 0.0508185 25.3787 15.4116 37.5756 15.4116C32.2323 17.0686 27.9344 19.4216 24.682 22.4704L21.2966 22.4704C20.1017 21.0786 18.4756 19.8192 16.4177 18.6926 14.3932 17.5989 11.6385 16.5053 8.15386 15.4116L20.6991 15.4116 20.6991 0.0508185 17.1646 0.0508185 17.1646 2.48653 8.20367 2.48653 8.20367 0.0508185 4.619 0.0508185 4.619 14.3677 1.28377 13.4726 0.188516 17.0521C4.20434 17.8806 7.45678 18.7255 9.94583 19.5873 12.4352 20.4491 14.41 21.41 15.8701 22.4704L1.78158 22.4704 1.78158 25.9006 19.0562 25.9006C19.5874 26.8286 20.0852 28.0218 20.5497 29.4797L24.7314 28.9329C24.3003 27.773 23.8853 26.7624 23.4871 25.9006L33.7426 25.9006C33.3111 26.5967 32.6803 27.5247 31.8506 28.6845L34.4891 30.1758C35.5844 28.7175 36.5965 27.2924 37.5258 25.9006L44.4955 25.9006 44.4955 22.4704 29.959 22.4704C31.718 21.1781 33.8917 20.1009 36.4804 19.2395 39.1024 18.3777 42.3383 17.6816 46.1882 17.1512L45.093 13.6716M17.1646 5.61831 17.1646 12.1306 8.20367 12.1306 8.20367 5.61831 17.1646 5.61831M28.9136 12.1306 28.9136 5.61831 38.1731 5.61831 38.1731 12.1306 28.9136 12.1306Z" fill-rule="evenodd" transform="matrix(1 0 0 -1 1940 388)"/><path d="M0.251221 37.0493 5.32397 37.0493 17.2638 6.06425 28.6396 37.0493 33.2512 37.0493 19.0058 0.0491254 15.1626 0.0491254 0.251221 37.0493Z" fill-rule="evenodd" transform="matrix(1 0 0 -1 2346 367)"/><path d="M0.246377 24.0496 6.84374 24.0496C9.19679 24.0496 11.3081 23.5797 13.1773 22.6398 15.0685 21.6999 16.5529 20.3229 17.6306 18.5086 18.708 16.7162 19.247 14.5741 19.247 12.0821 19.247 9.56853 18.708 7.40456 17.6306 5.59058 16.5749 3.79818 15.1017 2.42089 13.2104 1.4594 11.3408 0.519494 9.21886 0.049543 6.84374 0.049543L0.246377 0.049543 0.246377 24.0496M3.18226 2.63958 6.44783 2.63958C8.44911 2.63958 10.1755 3.00019 11.6267 3.72174 13.0783 4.46489 14.1888 5.5467 14.9585 6.96752 15.7504 8.38834 16.1463 10.0933 16.1463 12.0821 16.1463 14.0493 15.7504 15.7434 14.9585 17.1642 14.1888 18.585 13.0673 19.6562 11.594 20.3774 10.1424 21.1206 8.42704 21.4921 6.44783 21.4921L3.18226 21.4921 3.18226 2.63958Z" fill-rule="evenodd" transform="matrix(1 0 0 -1 2382 373)"/><path d="M0.249582 24.0496 6.84694 24.0496C9.19999 24.0496 11.3113 23.5797 13.1805 22.6398 15.0718 21.6999 16.5561 20.3229 17.6338 18.5086 18.7115 16.7162 19.2502 14.5741 19.2502 12.0821 19.2502 9.56853 18.7115 7.40456 17.6338 5.59058 16.5781 3.79818 15.1049 2.42089 13.2136 1.4594 11.3444 0.519494 9.22207 0.049543 6.84694 0.049543L0.249582 0.049543 0.249582 24.0496M3.18546 2.63958 6.45139 2.63958C8.45231 2.63958 10.1787 3.00019 11.6303 3.72174 13.0815 4.46489 14.1923 5.5467 14.9617 6.96752 15.7536 8.38834 16.1495 10.0933 16.1495 12.0821 16.1495 14.0493 15.7536 15.7434 14.9617 17.1642 14.1923 18.585 13.0705 19.6562 11.5972 20.3774 10.1456 21.1206 8.4306 21.4921 6.45139 21.4921L3.18546 21.4921 3.18546 2.63958Z" fill-rule="evenodd" transform="matrix(1 0 0 -1 2406 373)"/><path d="M3.25772 24.0496 3.25772 0.049543 0.257619 0.049543 0.257619 24.0496 3.25772 24.0496Z" fill-rule="evenodd" transform="matrix(1 0 0 -1 2430 373)"/><path d="M0.256106 12.5667C0.256106 15.061 0.732449 17.2575 1.68513 19.156 2.63782 21.0545 3.94489 22.5116 5.60671 23.5269 7.29041 24.5423 9.17354 25.0501 11.2561 25.0501 13.3387 25.0501 15.211 24.5312 16.8725 23.4937 18.5562 22.4783 19.8748 21.0212 20.8274 19.1227 21.7801 17.2464 22.2565 15.061 22.2565 12.5667 22.2565 10.0499 21.769 7.84231 20.7941 5.94383 19.8414 4.06751 18.5343 2.61077 16.8725 1.57325 15.211 0.557535 13.3387 0.0500352 11.2561 0.0500352 9.17354 0.0500352 7.29041 0.557535 5.60671 1.57325 3.94489 2.58861 2.63782 4.04571 1.68513 5.94383 0.732449 7.84231 0.256106 10.0499 0.256106 12.5667M3.37995 12.5667C3.37995 10.6461 3.69022 8.9463 4.3104 7.46704 4.95317 5.98814 5.8725 4.82911 7.06874 3.99031 8.26533 3.17366 9.661 2.76516 11.2561 2.76516 12.8512 2.76516 14.2361 3.17366 15.4105 3.99031 16.6067 4.82911 17.526 5.98814 18.1688 7.46704 18.8112 8.9463 19.1323 10.6461 19.1323 12.5667 19.1323 14.5091 18.8112 16.22 18.1688 17.6989 17.526 19.1781 16.6067 20.3261 15.4105 21.1427 14.2361 21.9594 12.8512 22.3679 11.2561 22.3679 9.661 22.3679 8.26533 21.9594 7.06874 21.1427 5.89474 20.3261 4.98617 19.1781 4.34376 17.6989 3.70134 16.22 3.37995 14.5091 3.37995 12.5667Z" fill-rule="evenodd" transform="matrix(1 0 0 -1 2437 374)"/><path d="M3.83316 17.05 8.38074 10.761 12.9956 17.05 16.263 17.05 9.9303 8.59908 16.263 0.0498487 12.76 0.0498487 8.24586 6.33892 3.59756 0.0498487 0.2625 0.0498487 6.66286 8.46792 0.2625 17.05 3.83316 17.05Z" fill-rule="evenodd" transform="matrix(1 0 0 -1 2461 373)"/><path d="M0.247185 37.1002 5.16657 37.1002 16.7442 6.1152 27.7756 37.1002 32.2475 37.1002 18.4337 0.10007 14.707 0.10007 0.247185 37.1002Z" fill-rule="evenodd" transform="matrix(1 0 0 -1 2374 728)"/><path d="M18.2576 7.18613C18.2576 5.79551 17.9295 4.55928 17.2726 3.47745 16.616 2.41777 15.6538 1.59005 14.3858 0.993914 13.1178 0.398137 11.6123 0.10007 9.86889 0.10007 7.44621 0.10007 5.37434 0.651887 3.65364 1.75552 1.93258 2.85951 0.800597 4.32733 0.257335 6.15969L2.70238 7.55031C3.31383 6.0271 4.21963 4.85735 5.41942 4.04034 6.61959 3.2237 8.11411 2.8152 9.90262 2.8152 11.5331 2.8152 12.8011 3.1683 13.7066 3.87487 14.6124 4.58108 15.0651 5.56356 15.0651 6.82195 15.0651 7.8373 14.7821 8.65395 14.2161 9.27224 13.6501 9.91233 12.9481 10.4091 12.1105 10.7622 11.2952 11.1153 10.1633 11.5017 8.71419 11.9212 7.1064 12.3848 5.80469 12.8262 4.80835 13.2458 3.83473 13.6653 3.0081 14.2943 2.32884 15.1332 1.64958 15.972 1.31013 17.0759 1.31013 18.4444 1.31013 19.835 1.67231 21.0273 2.39702 22.0205 3.12137 23.0362 4.11772 23.7978 5.3857 24.3053 6.6764 24.8353 8.11411 25.1002 9.6988 25.1002 11.1933 25.1002 12.5068 24.8682 13.6387 24.4047 14.7707 23.9633 15.6765 23.3561 16.3558 22.5834 17.0578 21.8329 17.5559 20.9941 17.8503 20.067L15.4049 18.6764C14.884 19.8461 14.1596 20.7625 13.2311 21.4247 12.3253 22.087 11.1141 22.4179 9.5969 22.4179 8.05729 22.4179 6.8234 22.0759 5.89524 21.3915 4.96671 20.7292 4.50262 19.835 4.50262 18.7092 4.50262 17.8704 4.75153 17.186 5.2497 16.6564 5.7706 16.1267 6.41577 15.7071 7.18558 15.398 7.95538 15.0892 9.00855 14.7468 10.3443 14.3715 12.0423 13.8858 13.4122 13.4112 14.454 12.9477 15.4954 12.4841 16.3899 11.7887 17.1369 10.8616 17.884 9.93449 18.2576 8.70934 18.2576 7.18613Z" fill-rule="evenodd" transform="matrix(1 0 0 -1 2407 735)"/><path d="M17.246 7.18613C17.246 5.79551 16.9358 4.55928 16.3157 3.47745 15.6957 2.41777 14.7869 1.59005 13.5894 0.993914 12.3918 0.398137 10.9696 0.10007 9.32303 0.10007 7.03495 0.10007 5.07818 0.651887 3.45308 1.75552 1.82798 2.85951 0.758542 4.32733 0.245461 6.15969L2.55501 7.55031C3.13249 6.0271 3.98762 4.85735 5.12111 4.04034 6.25459 3.2237 7.66574 2.8152 9.35523 2.8152 10.8948 2.8152 12.0924 3.1683 12.9478 3.87487 13.803 4.58108 14.2309 5.56356 14.2309 6.82195 14.2309 7.8373 13.9636 8.65395 13.4287 9.27224 12.8942 9.91233 12.2312 10.4091 11.4401 10.7622 10.6701 11.1153 9.60104 11.5017 8.23248 11.9212 6.71436 12.3848 5.48463 12.8262 4.54363 13.2458 3.62411 13.6653 2.84375 14.2943 2.20223 15.1332 1.56071 15.972 1.23977 17.0759 1.23977 18.4444 1.23977 19.835 1.58182 21.0273 2.26628 22.0205 2.95073 23.0362 3.89138 23.7978 5.08891 24.3053 6.30791 24.8353 7.66574 25.1002 9.16274 25.1002 10.5739 25.1002 11.8143 24.8682 12.8834 24.4047 13.9529 23.9633 14.808 23.3561 15.4495 22.5834 16.1125 21.8329 16.583 20.9941 16.861 20.067L14.5515 18.6764C14.0599 19.8461 13.3754 20.7625 12.4988 21.4247 11.6433 22.087 10.4991 22.4179 9.06649 22.4179 7.61242 22.4179 6.44674 22.0759 5.57014 21.3915 4.69354 20.7292 4.2549 19.835 4.2549 18.7092 4.2549 17.8704 4.49032 17.186 4.96081 16.6564 5.45243 16.1267 6.0621 15.7071 6.78914 15.398 7.51618 15.0892 8.51048 14.7468 9.77207 14.3715 11.376 13.8858 12.6698 13.4112 13.6534 12.9477 14.637 12.4841 15.4817 11.7887 16.1873 10.8616 16.8932 9.93449 17.246 8.70934 17.246 7.18613Z" fill-rule="evenodd" transform="matrix(1 0 0 -1 2427 735)"/><path d="M0.265211 36.0837 4.10801 36.0837 24.9616 7.90325 24.9616 36.0837 29.2654 36.0837 29.2654 0.0835573 25.4227 0.0835573 4.56908 28.3132 4.56908 0.0835573 0.265211 0.0835573 0.265211 36.0837Z" fill-rule="evenodd" transform="matrix(1 0 0 -1 2447 627)"/><path d="M18.2608 0.0947851 0.260243 0.0947851 0.260243 4.09496 18.2608 4.09496 18.2608 0.0947851Z" fill-rule="evenodd" transform="matrix(1 0 0 -1 2483 614)"/><path d="M17.9242 14.6902 31.5689 36.0837 35.2721 36.0837 35.2721 0.0835573 30.859 0.0835573 30.859 27.5261 19.1413 9.3786 16.4529 9.3786 4.63405 27.6245 4.63405 0.0835573 0.271689 0.0835573 0.271689 36.0837 4.22835 36.0837 17.9242 14.6902Z" fill-rule="evenodd" transform="matrix(1 0 0 -1 2509 627)"/><path d="M0.281007 19.1106C0.281007 22.9025 1.01717 26.2411 2.4895 29.1268 3.96183 32.0125 5.98213 34.2271 8.55002 35.7703 11.1523 37.3139 14.0626 38.0857 17.2812 38.0857 20.4999 38.0857 23.3931 37.2972 25.961 35.72 28.5633 34.1767 30.6006 31.9621 32.0729 29.0764 33.5452 26.2241 34.2814 22.9025 34.2814 19.1106 34.2814 15.2854 33.5282 11.9301 32.0215 9.0444 30.5492 6.19241 28.5289 3.97778 25.961 2.40051 23.3931 0.857299 20.4999 0.0855125 17.2812 0.0855125 14.0626 0.0855125 11.1523 0.857299 8.55002 2.40051 5.98213 3.94408 3.96183 6.15871 2.4895 9.0444 1.01717 11.9301 0.281007 15.2854 0.281007 19.1106M5.10879 19.1106C5.10879 16.1916 5.58835 13.6077 6.5471 11.3598 7.53987 9.11143 8.9608 7.35009 10.8099 6.07501 12.6586 4.83327 14.8157 4.21258 17.2812 4.21258 19.7463 4.21258 21.8864 4.83327 23.7011 6.07501 25.5502 7.35009 26.9712 9.11143 27.9639 11.3598 28.9571 13.6077 29.4536 16.1916 29.4536 19.1106 29.4536 22.0637 28.9571 24.6638 27.9639 26.9122 26.9712 29.1601 25.5502 30.9052 23.7011 32.1465 21.8864 33.3879 19.7463 34.009 17.2812 34.009 14.8157 34.009 12.6586 33.3879 10.8099 32.1465 8.99519 30.9052 7.59126 29.1601 6.59812 26.9122 5.60536 24.6638 5.10879 22.0637 5.10879 19.1106Z" fill-rule="evenodd" transform="matrix(1 0 0 -1 2550 628)"/><path d="M27.2833 10.8565C27.2833 8.74257 26.7911 6.86347 25.806 5.21916 24.8213 3.60856 23.3778 2.35051 21.4759 1.44429 19.5739 0.538439 17.3155 0.0855125 14.7003 0.0855125 11.0665 0.0855125 7.95911 0.924332 5.37796 2.60197 2.7968 4.27961 1.0984 6.51091 0.283494 9.29622L3.95132 11.4101C4.86855 9.09476 6.22697 7.31639 8.02696 6.07501 9.82695 4.83327 12.0685 4.21258 14.7512 4.21258 17.1967 4.21258 19.0986 4.74957 20.4571 5.82318 21.8155 6.8968 22.4947 8.39001 22.4947 10.3028 22.4947 11.8464 22.0704 13.0878 21.221 14.0273 20.372 15.0002 19.3194 15.7553 18.0626 16.2923 16.8402 16.8289 15.1418 17.4163 12.9685 18.0536 10.5571 18.7584 8.60422 19.4295 7.10973 20.0672 5.64935 20.7045 4.40975 21.6608 3.39093 22.9358 2.37211 24.2109 1.8627 25.8885 1.8627 27.9691 1.8627 30.083 2.40622 31.8951 3.49288 33.405 4.57955 34.9485 6.07404 36.1058 7.97598 36.8776 9.91166 37.6831 12.0685 38.0857 14.4457 38.0857 16.6873 38.0857 18.6571 37.7335 20.3551 37.0287 22.0531 36.3577 23.4116 35.4348 24.4308 34.2604 25.4833 33.1198 26.2307 31.8447 26.6719 30.4352L23.0041 28.3213C22.2229 30.0997 21.1363 31.4922 19.7437 32.4987 18.3853 33.5057 16.5685 34.009 14.2928 34.009 11.9834 34.009 10.1324 33.4887 8.73991 32.4487 7.34775 31.4418 6.6513 30.083 6.6513 28.3717 6.6513 27.0966 7.02501 26.0563 7.77207 25.2512 8.55324 24.4457 9.52108 23.8083 10.676 23.3384 11.8305 22.8688 13.41 22.3488 15.4136 21.7782 17.9606 21.0401 20.0155 20.3186 21.5778 19.6139 23.1402 18.9095 24.4814 17.8525 25.6021 16.443 26.7229 15.0339 27.2833 13.1715 27.2833 10.8565Z" fill-rule="evenodd" transform="matrix(1 0 0 -1 2587 628)"/><path d="M0.296524 0.0726393 0.296524 90.0727" stroke="#000000" stroke-width="1.79039" stroke-linecap="round" stroke-linejoin="round" stroke-miterlimit="10" fill="none" fill-rule="evenodd" transform="matrix(1 0 0 -1 2426 580)"/><path d="M0.296524 0.0556985 0.296524 35.0558" stroke="#000000" stroke-width="1.79039" stroke-linecap="round" stroke-linejoin="round" stroke-miterlimit="10" fill="none" fill-rule="evenodd" transform="matrix(1 0 0 -1 2426 426)"/><path d="M0.296524 0.0932797 0.296524 36.0934" stroke="#000000" stroke-width="1.79039" stroke-linecap="round" stroke-linejoin="round" stroke-miterlimit="10" fill="none" fill-rule="evenodd" transform="matrix(1 0 0 -1 2426 680)"/><path d="M132.24 0.0495606 0.239314 0.0495606" stroke="#000000" stroke-width="1.79039" stroke-linecap="round" stroke-linejoin="round" stroke-miterlimit="10" fill="none" fill-rule="evenodd" transform="matrix(1 0 0 -1 2223 459)"/><path d="M153.241 0.0663489 0.241318 0.0663489" stroke="#000000" stroke-width="1.79039" stroke-linecap="round" stroke-linejoin="round" stroke-miterlimit="10" fill="none" fill-rule="evenodd" transform="matrix(1 0 0 -1 2223 612)"/><path d="M0.177894 0.071268 55.1779 27.4274 55.1779 136.787 0.177894 164.072 0.177894 0.071268Z" stroke="#000000" stroke-width="3.58077" stroke-linecap="round" stroke-linejoin="round" stroke-miterlimit="10" fill="none" fill-rule="evenodd" transform="matrix(1 0 0 -1 1854 622)"/><path d="M390.299 0.0873611 0.298232 0.0873611" stroke="#000000" stroke-width="3.43136" stroke-linecap="round" stroke-linejoin="round" stroke-miterlimit="10" fill="none" fill-rule="evenodd" transform="matrix(1 0 0 -1 2436.5 533.5)"/><path d="M0.190754 0.0810513 152.191 0.0810513" stroke="#000000" stroke-width="2.55331" stroke-linecap="round" stroke-linejoin="round" stroke-miterlimit="10" fill="none" fill-rule="evenodd" transform="matrix(1 0 0 -1 1700.5 496.5)"/><path d="M0.190754 0.0638408 152.191 0.0638408" stroke="#000000" stroke-width="2.55331" stroke-linecap="round" stroke-linejoin="round" stroke-miterlimit="10" fill="none" fill-rule="evenodd" transform="matrix(1 0 0 -1 1700.5 587.5)"/><path d="M0.0652578 0.0638408 52.0653 0.0638408" stroke="#000000" stroke-width="2.55331" stroke-linecap="round" stroke-linejoin="round" stroke-miterlimit="10" fill="none" fill-rule="evenodd" transform="matrix(1 0 0 -1 1910.5 541.5)"/><rect x="1722.5" y="298.5" width="1082" height="497" stroke="#000000" stroke-width="3.20833" stroke-miterlimit="8" stroke-dasharray="12.8333 9.625" fill="none"/><path d="M2570.38 752.453 2570.38 756.022 2560.8 757.539C2555.78 758.282 2552.7 758.758 2551.57 758.966L2551.21 755.352C2553.66 755.025 2557.04 754.535 2561.36 753.88 2565.67 753.226 2568.68 752.75 2570.38 752.453ZM2623.11 751.783 2630.41 755.531C2632.65 756.721 2634.4 757.628 2635.65 758.253L2634.08 761.599C2632.41 760.587 2630.25 759.36 2627.61 757.918 2624.97 756.475 2622.95 755.412 2621.54 754.728ZM2607.43 751.516 2609.58 754.103C2608.09 755.234 2606.22 756.46 2603.98 757.784 2601.74 759.108 2599.47 760.35 2597.17 761.509L2595.42 758.342C2597.43 757.449 2599.54 756.371 2601.76 755.107 2603.99 753.843 2605.88 752.646 2607.43 751.516ZM2595.92 747.679 2635.74 747.679 2635.74 750.847 2618.09 750.847 2618.09 757.271C2618.09 758.966 2617.72 760.178 2616.97 760.907 2616.23 761.636 2614.99 762 2613.25 762 2611.34 762 2609.7 761.926 2608.33 761.777L2607.7 758.386C2609.19 758.624 2610.57 758.743 2611.82 758.743 2612.54 758.743 2613.07 758.676 2613.41 758.543 2613.75 758.409 2613.99 758.148 2614.13 757.762 2614.26 757.375 2614.33 756.78 2614.33 755.977L2614.33 750.847 2595.92 750.847ZM2600.17 740.942 2631.53 740.942 2631.53 744.065 2600.17 744.065ZM2557.62 739.381 2557.62 746.207 2565.81 746.207 2565.81 739.381ZM2554.39 736.034 2569.13 736.034 2569.13 749.553 2554.39 749.553ZM2622.93 721.49 2626.02 721.49 2626.02 725.773 2634.76 725.773 2634.76 728.851 2628.22 728.851C2630.31 732.004 2633.01 734.622 2636.32 736.704L2634.35 739.514C2631.01 737.284 2628.23 734.131 2626.02 730.056L2626.02 739.202 2622.93 739.202 2622.93 730.591C2621.17 734.042 2618.93 736.838 2616.21 738.979L2614.06 736.659C2615.64 735.499 2616.99 734.287 2618.09 733.023 2619.2 731.759 2620.2 730.368 2621.09 728.851L2616.61 728.851 2616.61 725.773 2622.93 725.773ZM2604.83 721.49 2608.01 721.49 2608.01 725.773 2614.69 725.773 2614.69 728.851 2608.01 728.851 2608.01 729.833C2609.24 730.428 2611.19 731.484 2613.88 733.001L2612.36 735.544C2611.34 734.83 2609.89 733.967 2608.01 732.956L2608.01 739.202 2604.83 739.202 2604.83 731.216C2603.94 732.822 2602.87 734.309 2601.63 735.677 2600.39 737.046 2598.86 738.354 2597.04 739.604L2595.33 736.615C2598.98 734.324 2601.65 731.736 2603.35 728.851L2596.81 728.851 2596.81 725.773 2604.83 725.773ZM2573.07 721.49 2576.88 721.49 2576.97 723.007C2577.03 725.089 2577.12 726.844 2577.24 728.271L2590.86 728.271 2590.86 731.707 2577.46 731.707C2577.91 738.012 2578.51 743.039 2579.25 746.787 2581.34 743.485 2583.21 739.336 2584.85 734.339L2588.21 735.544C2587.17 738.726 2585.99 741.589 2584.7 744.132 2583.4 746.675 2581.94 749.047 2580.33 751.248 2580.87 753.003 2581.45 754.43 2582.07 755.531 2582.61 756.423 2583.1 757.048 2583.53 757.405 2583.96 757.762 2584.4 757.94 2584.85 757.94 2585.33 757.94 2585.74 757.687 2586.08 757.182 2586.43 756.676 2586.72 755.769 2586.96 754.46 2587.26 753.211 2587.53 751.679 2587.76 749.865L2591.08 751.07C2590.78 752.824 2590.44 754.594 2590.05 756.379 2589.27 760.126 2587.54 762 2584.85 762 2583.69 762 2582.64 761.613 2581.72 760.84 2580.79 760.067 2579.82 758.788 2578.8 757.003 2578.45 756.379 2578.07 755.576 2577.68 754.594 2575.8 756.795 2573.38 759.264 2570.43 762L2568.14 759.1C2571.73 755.888 2574.47 753.107 2576.39 750.757 2575.1 746.088 2574.19 739.737 2573.65 731.707L2551.34 731.707 2551.34 728.271 2573.47 728.271C2573.38 725.951 2573.25 723.691 2573.07 721.49ZM2661.14 721.356 2664.86 721.356 2664.86 734.473 2678.43 734.473 2678.43 738.131 2664.86 738.131 2664.86 757.092 2680.58 757.092 2680.58 760.573 2640.31 760.573 2640.31 757.092 2647.66 757.092 2647.66 728.851 2651.33 728.851 2651.33 757.092 2661.14 757.092ZM2582.03 721.089C2583.79 722.724 2585.4 724.346 2586.87 725.951L2584.36 728.093C2583.08 726.606 2581.49 724.925 2579.61 723.052ZM2644.52 697.81C2646.17 698.792 2647.75 699.959 2649.27 701.312 2650.79 702.666 2652.15 704.116 2653.35 705.662L2650.79 707.982C2649.57 706.257 2648.31 704.733 2647.01 703.409 2645.71 702.086 2644.3 700.874 2642.78 699.773ZM2750.29 697.632C2752.02 698.672 2753.43 699.639 2754.5 700.532L2753.07 702.718C2751.78 701.647 2750.39 700.665 2748.9 699.773ZM2760.14 697.542C2761.64 698.435 2763.01 699.401 2764.27 700.442L2762.92 702.495C2761.76 701.483 2760.37 700.472 2758.76 699.461ZM2571.19 695.178 2571.19 701.424 2579.21 701.424 2579.21 695.178ZM2760.28 691.876C2761.83 692.798 2763.19 693.735 2764.36 694.687L2763.06 696.828C2761.68 695.698 2760.31 694.717 2758.94 693.884ZM2750.29 691.876C2751.63 692.65 2753.02 693.602 2754.46 694.732L2753.02 696.918C2751.98 695.996 2750.62 694.984 2748.95 693.884ZM2734.03 690.003 2737.39 690.761C2736.37 696.234 2735.13 701.528 2733.67 706.644L2730.31 705.796C2731.74 700.799 2732.98 695.535 2734.03 690.003ZM2571.19 686.076 2571.19 692.01 2579.21 692.01 2579.21 686.076ZM2623.6 681.749C2623.54 684.545 2623.35 686.969 2623.02 689.021L2629.92 689.021 2629.92 681.749ZM2614.28 681.749 2614.28 689.021 2619.62 689.021C2619.91 687.326 2620.11 684.902 2620.2 681.749ZM2731.52 677.956C2732.5 678.7 2733.71 679.674 2735.12 680.879 2736.54 682.083 2737.78 683.177 2738.82 684.158L2736.58 686.924C2735.48 685.824 2734.25 684.686 2732.91 683.511 2731.56 682.336 2730.4 681.392 2729.41 680.678ZM2571.19 676.797 2571.19 682.909 2579.21 682.909 2579.21 676.797ZM2617.24 673.138C2616.26 674.655 2614.91 676.425 2613.21 678.447L2621.9 678.447 2626.25 673.138ZM2699.27 672.96 2699.27 683.4 2699.27 685.452 2711.94 685.452 2711.94 672.96ZM2744.38 671.577 2744.38 675.592 2764.71 675.592 2764.71 671.577ZM2687.3 669.48 2723.19 669.48 2723.19 672.96 2715.62 672.96 2715.62 685.452 2725.16 685.452 2725.16 688.976 2715.62 688.976 2715.62 706.911 2711.94 706.911 2711.94 688.976 2699.09 688.976C2698.88 691.772 2698.44 694.144 2697.79 696.092 2697.13 698.041 2696.13 699.87 2694.79 701.58 2693.44 703.29 2691.56 705.201 2689.14 707.313L2686.23 704.592C2688.5 702.747 2690.25 701.089 2691.49 699.617 2692.73 698.145 2693.65 696.583 2694.25 694.932 2694.84 693.282 2695.23 691.296 2695.41 688.976L2685.42 688.976 2685.42 685.452 2695.59 685.452 2695.59 683.801 2695.59 672.96 2687.3 672.96ZM2741.06 668.766 2768.16 668.766 2768.16 678.358 2744.38 678.358 2744.38 681.392 2770 681.392 2770 684.203 2758.17 684.203 2758.17 687.727 2768.34 687.727 2768.34 702.807C2768.34 704.294 2768.04 705.335 2767.45 705.93 2766.85 706.525 2765.76 706.822 2764.18 706.822 2763.58 706.822 2762.65 706.763 2761.4 706.644L2760.86 704.011C2761.76 704.19 2762.64 704.279 2763.5 704.279 2764.19 704.279 2764.66 704.146 2764.92 703.878 2765.17 703.61 2765.3 703.134 2765.3 702.45L2765.3 690.36 2758.17 690.36 2758.17 706.019 2755.13 706.019 2755.13 690.36 2748.32 690.36 2748.32 706.822 2745.27 706.822 2745.27 687.727 2755.13 687.727 2755.13 684.203 2744.38 684.203C2744.29 689.14 2743.92 693.312 2743.28 696.717 2742.64 700.123 2741.63 703.342 2740.25 706.376L2737.03 704.993C2738.1 702.613 2738.93 700.353 2739.49 698.212 2740.06 696.07 2740.46 693.713 2740.7 691.14 2740.94 688.567 2741.06 685.348 2741.06 681.481ZM2732.73 667.606C2733.65 668.29 2734.86 669.249 2736.33 670.484 2737.81 671.718 2739.07 672.811 2740.12 673.763L2737.93 676.529C2736.97 675.547 2735.74 674.432 2734.25 673.183 2732.76 671.934 2731.53 670.982 2730.58 670.327ZM2600.62 666.758 2604.07 666.758 2604.07 674.744 2608.68 674.744 2608.68 678.135 2604.07 678.135 2604.07 685.407 2608.19 683.98 2608.68 687.549 2604.07 689.199 2604.07 702.093C2604.07 703.402 2603.91 704.391 2603.6 705.06 2603.29 705.729 2602.79 706.183 2602.12 706.421 2601.45 706.659 2600.47 706.777 2599.19 706.777 2598.26 706.777 2597.35 706.733 2596.45 706.644L2595.78 703.164C2596.68 703.312 2597.77 703.387 2599.05 703.387 2599.65 703.387 2600.06 703.194 2600.28 702.807 2600.51 702.42 2600.62 701.766 2600.62 700.844L2600.62 690.404 2595.83 692.144 2595.11 688.575C2596.16 688.248 2597.49 687.787 2599.1 687.192L2600.62 686.656 2600.62 678.135 2595.83 678.135 2595.83 674.744 2600.62 674.744ZM2556.63 666.714 2560.12 666.714 2560.12 674.298 2564.65 674.298 2564.65 677.778 2560.12 677.778 2560.12 685.943C2561.77 685.467 2563.14 685.035 2564.25 684.649L2564.51 688.173 2560.12 689.556 2560.12 701.826C2560.12 703.61 2559.8 704.844 2559.14 705.528 2558.48 706.213 2557.32 706.554 2555.64 706.554 2554.24 706.554 2553.03 706.48 2552.02 706.331L2551.3 702.896C2552.61 703.104 2553.73 703.208 2554.66 703.208 2555.38 703.208 2555.88 703.015 2556.18 702.629 2556.48 702.242 2556.63 701.587 2556.63 700.665L2556.63 690.672C2555.64 690.939 2554.2 691.386 2552.28 692.01L2550.76 692.501 2550 688.932C2551.16 688.634 2553 688.114 2555.51 687.37L2556.63 687.058 2556.63 677.778 2551.21 677.778 2551.21 674.298 2556.63 674.298ZM2570.56 666.179 2574.06 666.848C2573.46 669.168 2572.74 671.383 2571.91 673.495L2579.66 673.495C2579.03 671.472 2578.36 669.465 2577.64 667.472L2580.78 666.535C2581.46 668.35 2582.28 670.67 2583.24 673.495L2590.81 673.495 2590.81 676.797 2582.7 676.797 2582.7 682.909 2590 682.909 2590 686.076 2582.7 686.076 2582.7 692.01 2590 692.01 2590 695.178 2582.7 695.178 2582.7 701.424 2591.48 701.424 2591.48 704.681 2571.19 704.681 2571.19 707.224 2567.7 707.224 2567.7 681.883C2567.07 682.894 2566.44 683.816 2565.81 684.649L2563.3 681.927C2566.8 677.258 2569.22 672.008 2570.56 666.179ZM2617.51 666 2620.69 667.16 2619.21 670.015 2630.5 670.015 2630.5 673.049 2626.16 678.447 2633.28 678.447 2633.28 692.233 2625.57 692.233 2625.57 700.442C2625.57 701.275 2625.72 701.84 2626 702.138 2626.28 702.435 2626.8 702.613 2627.54 702.673 2627.99 702.732 2628.6 702.762 2629.38 702.762 2630.13 702.762 2630.72 702.732 2631.17 702.673 2631.74 702.613 2632.12 702.45 2632.32 702.182 2632.51 701.914 2632.62 701.335 2632.65 700.442 2632.77 698.42 2632.83 697.111 2632.83 696.516L2636.06 697.23C2636.06 697.111 2636.01 698.212 2635.92 700.532L2635.83 701.781C2635.77 703.357 2635.46 704.435 2634.89 705.015 2634.32 705.595 2633.32 705.93 2631.89 706.019 2631.26 706.078 2630.37 706.108 2629.2 706.108 2628.07 706.108 2627.17 706.078 2626.51 706.019 2625.08 705.93 2624.03 705.565 2623.36 704.926 2622.68 704.287 2622.35 703.194 2622.35 701.647L2622.35 692.367C2621.48 695.52 2620.02 698.204 2617.96 700.42 2615.9 702.636 2612.78 704.993 2608.59 707.491L2606.62 704.369C2610.24 702.316 2612.97 700.383 2614.82 698.568 2616.67 696.754 2618 694.642 2618.81 692.233L2610.92 692.233 2610.92 681.08 2610.88 681.124 2608.86 678.358C2612.6 674.194 2615.48 670.075 2617.51 666Z" fill-rule="evenodd"/></g></svg>