<svg width="1135" height="707" xmlns="http://www.w3.org/2000/svg" xmlns:xlink="http://www.w3.org/1999/xlink" xml:space="preserve" overflow="hidden"><g transform="translate(-1031 -928)"><path d="M0 0 233.012 258.709 233.012 129.354 233.012 129.354 233.012 0 466.025 258.709 466.025 129.354 466.025 129.354 466.025 0 699.037 258.709" stroke="#000000" stroke-width="2.29167" stroke-linecap="round" stroke-linejoin="round" stroke-miterlimit="10" fill="none" fill-rule="evenodd" transform="matrix(-1 2.90888e-07 2.90888e-07 1 1968.29 1055.27)"/><path d="M1269.57 1313.81 2091.24 1313.81C2092.19 1313.81 2092.96 1314.58 2092.96 1315.53 2092.96 1316.48 2092.19 1317.25 2091.24 1317.25L1269.57 1317.25C1268.62 1317.25 1267.85 1316.48 1267.85 1315.53 1267.85 1314.58 1268.62 1313.81 1269.57 1313.81ZM2091.24 1315.53 2082.07 1301.78 2109.57 1315.53 2082.07 1329.28Z"/><path d="M1269.57 1604.86 2091.24 1604.86C2092.19 1604.86 2092.96 1605.63 2092.96 1606.58 2092.96 1607.52 2092.19 1608.29 2091.24 1608.29L1269.57 1608.29C1268.62 1608.29 1267.85 1607.52 1267.85 1606.58 1267.85 1605.63 1268.62 1604.86 1269.57 1604.86ZM2091.24 1606.58 2082.07 1592.83 2109.57 1606.58 2082.07 1620.33Z"/><path d="M1270.57 1053.52 2043.57 1053.52" stroke="#D56A00" stroke-width="3.4375" stroke-linecap="round" stroke-linejoin="round" stroke-miterlimit="10" fill="none" fill-rule="evenodd"/><path d="M1270.57 1132.52 2043.57 1132.52" stroke="#CC0000" stroke-width="3.4375" stroke-linecap="round" stroke-linejoin="round" stroke-miterlimit="10" fill="none" fill-rule="evenodd"/><path d="M1267.81 1606.54 1267.81 974.873C1267.81 973.924 1268.58 973.155 1269.53 973.155 1270.48 973.155 1271.25 973.924 1271.25 974.873L1271.25 1606.54C1271.25 1607.49 1270.48 1608.26 1269.53 1608.26 1268.58 1608.26 1267.81 1607.49 1267.81 1606.54ZM1269.53 974.874 1255.78 984.04 1269.53 956.54 1283.28 984.04Z"/><path d="M1158.01 970.743C1158.01 972.838 1157.6 974.818 1156.76 976.68 1155.92 978.542 1154.8 980.154 1153.38 981.516 1151.97 982.878 1150.3 983.967 1148.38 984.781 1146.45 985.597 1144.39 986.004 1142.19 986.004 1139.36 986.004 1136.65 985.472 1134.05 984.407 1131.45 983.342 1129.17 981.836 1127.2 979.888 1125.18 977.833 1123.64 975.531 1122.59 972.983 1121.54 970.436 1121.01 967.78 1121.01 965.017 1121.01 962.259 1121.54 959.599 1122.59 957.041 1123.64 954.484 1125.18 952.196 1127.2 950.174 1129.17 948.23 1131.45 946.715 1134.05 945.631 1136.65 944.547 1139.36 944.005 1142.19 944.003 1144.46 944.005 1146.54 944.46 1148.41 945.367 1150.27 946.276 1151.82 947.415 1153.05 948.784L1156.2 944.42C1156.32 944.144 1156.57 944.005 1156.96 944.003L1157.14 944.003C1157.72 944.005 1158.01 944.291 1158.01 944.865L1158.01 960.042C1158.01 960.599 1157.72 960.886 1157.14 960.903L1156.47 960.903C1156 960.905 1155.71 960.646 1155.59 960.125 1155.51 958.256 1155.13 956.482 1154.44 954.804 1153.74 953.127 1152.82 951.668 1151.68 950.426 1150.53 949.185 1149.2 948.194 1147.69 947.452 1146.18 946.712 1144.54 946.34 1142.77 946.338 1140.53 946.34 1138.45 946.804 1136.52 947.73 1134.59 948.658 1132.95 949.953 1131.58 951.62 1130.09 953.475 1129.06 955.555 1128.52 957.862 1127.97 960.169 1127.7 962.554 1127.7 965.017 1127.7 967.465 1127.97 969.842 1128.52 972.149 1129.06 974.456 1130.09 976.535 1131.58 978.388 1132.97 980.057 1134.63 981.369 1136.58 982.323 1138.53 983.278 1140.61 983.754 1142.83 983.752 1144.66 983.754 1146.38 983.412 1147.98 982.725 1149.59 982.041 1150.98 981.099 1152.14 979.904 1153.31 978.709 1154.24 977.333 1154.92 975.776 1155.6 974.22 1155.94 972.543 1155.94 970.743 1155.94 970.189 1156.22 969.911 1156.79 969.91L1157.14 969.91C1157.72 969.911 1158.01 970.189 1158.01 970.743Z" fill-rule="evenodd"/><path d="M1203.01 947.313C1202.03 947.315 1201.14 947.363 1200.34 947.456 1199.55 947.551 1198.84 947.794 1198.21 948.187 1197.73 948.451 1197.37 948.813 1197.13 949.273 1196.88 949.734 1196.76 950.216 1196.76 950.722L1196.76 984.046C1196.76 984.667 1196.44 984.976 1195.81 984.976L1195.45 984.976C1195.11 984.976 1194.85 984.845 1194.65 984.581L1169.44 949.257C1169.28 949.033 1169.32 949.033 1169.56 949.257L1169.56 979.257C1169.56 980.31 1170.04 981.146 1171.01 981.764 1171.66 982.16 1172.38 982.405 1173.16 982.498 1173.94 982.594 1174.83 982.639 1175.81 982.637L1175.81 985.003C1173.27 984.873 1170.79 984.806 1168.4 984.806 1166.05 984.806 1163.58 984.873 1161.01 985.003L1161.01 982.637C1162 982.639 1162.89 982.588 1163.67 982.484 1164.45 982.382 1165.17 982.141 1165.82 981.764 1166.77 981.165 1167.25 980.329 1167.27 979.257L1167.27 947.707C1167.29 947.709 1167.26 947.681 1167.18 947.623 1166.55 947.456 1165.67 947.363 1164.53 947.343 1163.39 947.326 1162.22 947.315 1161.01 947.313L1161.01 945.003 1172.52 945.003C1172.86 945.005 1173.12 945.137 1173.32 945.398L1194.47 975.06 1194.47 950.722C1194.47 950.216 1194.35 949.738 1194.1 949.287 1193.85 948.836 1193.5 948.461 1193.05 948.158 1192.4 947.766 1191.67 947.526 1190.88 947.442 1190.09 947.357 1189.2 947.315 1188.21 947.313L1188.21 945.003C1190.8 945.081 1193.28 945.118 1195.63 945.116 1198.02 945.118 1200.48 945.081 1203.01 945.003L1203.01 947.313Z" fill-rule="evenodd"/><path d="M1242.96 958.659C1242.86 957.675 1242.77 956.73 1242.68 955.822 1242.6 954.913 1242.47 954.052 1242.3 953.238 1242.12 952.425 1241.91 951.668 1241.66 950.967 1241.41 950.268 1241.09 949.727 1240.71 949.347 1239.84 948.497 1238.79 947.958 1237.57 947.731 1236.35 947.503 1235.11 947.39 1233.85 947.388L1231.19 947.388C1230.75 947.39 1230.3 947.401 1229.84 947.418 1229.37 947.438 1229.04 947.523 1228.82 947.672 1228.65 947.807 1228.54 948.02 1228.5 948.312 1228.47 948.607 1228.45 948.903 1228.45 949.205L1228.45 980.831C1228.45 981.21 1228.55 981.533 1228.76 981.797 1228.98 982.063 1229.28 982.223 1229.66 982.278 1230.01 982.356 1230.46 982.422 1231.02 982.479 1231.58 982.535 1232.18 982.578 1232.83 982.607 1233.47 982.634 1234.13 982.649 1234.81 982.647L1237.03 982.647 1237.03 985.004C1233.08 984.89 1229.24 984.833 1225.5 984.833 1221.74 984.833 1217.89 984.89 1213.96 985.004L1213.96 982.647 1216.16 982.647C1216.87 982.649 1217.55 982.634 1218.18 982.607 1218.82 982.578 1219.42 982.535 1219.99 982.479 1220.56 982.422 1221.02 982.356 1221.36 982.278 1221.75 982.223 1222.05 982.053 1222.27 981.769 1222.5 981.485 1222.61 981.173 1222.61 980.831L1222.61 949.205C1222.61 948.923 1222.59 948.635 1222.56 948.341 1222.54 948.048 1222.42 947.825 1222.2 947.672 1222.01 947.523 1221.67 947.438 1221.19 947.418 1220.71 947.401 1220.26 947.39 1219.83 947.388L1217.17 947.388C1215.92 947.39 1214.69 947.503 1213.49 947.731 1212.28 947.958 1211.25 948.497 1210.38 949.347 1209.97 949.766 1209.64 950.314 1209.38 950.995 1209.12 951.677 1208.91 952.425 1208.74 953.238 1208.58 954.052 1208.45 954.913 1208.36 955.822 1208.26 956.73 1208.16 957.675 1208.06 958.659L1206.01 958.659 1207.26 945.003 1243.83 945.003 1245.01 958.659Z" fill-rule="evenodd"/><path d="M2161 1308.03C2160.8 1308.61 2160.43 1308.89 2159.89 1308.89L2154.59 1308.89 2150.36 1325.84C2150.02 1327.07 2149.85 1328.14 2149.85 1329.05 2149.85 1329.31 2149.87 1329.54 2149.91 1329.77 2150 1330.69 2150.45 1331.15 2151.25 1331.15 2151.97 1331.15 2152.66 1330.95 2153.3 1330.53 2153.95 1330.12 2154.56 1329.57 2155.13 1328.88 2155.7 1328.2 2156.21 1327.38 2156.67 1326.45 2157.13 1325.51 2157.54 1324.52 2157.92 1323.49 2157.98 1323.26 2158.11 1323.1 2158.3 1322.99 2158.49 1322.89 2158.67 1322.83 2158.84 1322.83L2159.55 1322.83C2159.8 1322.83 2160 1322.94 2160.15 1323.15 2160.21 1323.28 2160.23 1323.41 2160.23 1323.52L2160.23 1323.69C2159.84 1324.82 2159.34 1325.94 2158.74 1327.03 2158.14 1328.13 2157.45 1329.12 2156.67 1330 2155.89 1330.88 2155.03 1331.61 2154.09 1332.18 2153.15 1332.75 2152.11 1333.04 2150.96 1333.04 2149.98 1333.04 2149.12 1332.85 2148.4 1332.45 2147.68 1332.06 2147.1 1331.52 2146.66 1330.82 2146.22 1330.12 2145.96 1329.32 2145.89 1328.42 2145.85 1328.2 2145.83 1327.95 2145.83 1327.68 2145.83 1327.03 2145.91 1326.37 2146.06 1325.7L2150.25 1308.89 2144.89 1308.89C2144.41 1308.89 2144.16 1308.64 2144.12 1308.12L2144.12 1307.89 2144.29 1307.4C2144.48 1306.83 2144.83 1306.54 2145.35 1306.54L2150.79 1306.54 2153.13 1297.13C2153.3 1296.43 2153.65 1295.9 2154.17 1295.56 2154.7 1295.21 2155.22 1295.04 2155.76 1295.04 2156.31 1295.04 2156.77 1295.22 2157.13 1295.59 2157.37 1295.84 2157.5 1296.18 2157.5 1296.62 2157.5 1296.83 2157.48 1297.04 2157.44 1297.25L2155.13 1306.54 2160.38 1306.54C2160.87 1306.54 2161.12 1306.8 2161.12 1307.31L2161.12 1307.52Z" fill-rule="evenodd"/><path d="M2165 1599.72C2164.8 1600.28 2164.42 1600.56 2163.89 1600.56L2158.59 1600.56 2154.37 1617.06C2154.02 1618.25 2153.85 1619.3 2153.85 1620.19 2153.85 1620.43 2153.87 1620.66 2153.91 1620.89 2154.01 1621.78 2154.45 1622.23 2155.25 1622.23 2155.97 1622.23 2156.66 1622.03 2157.3 1621.63 2157.95 1621.23 2158.56 1620.69 2159.13 1620.02 2159.7 1619.35 2160.21 1618.56 2160.67 1617.65 2161.13 1616.74 2161.54 1615.78 2161.92 1614.77 2161.98 1614.55 2162.11 1614.39 2162.3 1614.28 2162.49 1614.18 2162.67 1614.13 2162.84 1614.13L2163.55 1614.13C2163.8 1614.13 2164 1614.23 2164.15 1614.44 2164.21 1614.57 2164.23 1614.69 2164.23 1614.8L2164.23 1614.97C2163.84 1616.07 2163.34 1617.15 2162.74 1618.22 2162.14 1619.29 2161.45 1620.26 2160.67 1621.11 2159.89 1621.97 2159.03 1622.68 2158.09 1623.23 2157.15 1623.79 2156.11 1624.07 2154.96 1624.07 2153.98 1624.07 2153.12 1623.88 2152.4 1623.5 2151.68 1623.12 2151.1 1622.59 2150.66 1621.91 2150.22 1621.23 2149.96 1620.45 2149.89 1619.57 2149.85 1619.35 2149.83 1619.11 2149.83 1618.85 2149.83 1618.22 2149.91 1617.57 2150.06 1616.92L2154.25 1600.56 2148.89 1600.56C2148.41 1600.56 2148.16 1600.31 2148.12 1599.8L2148.12 1599.58 2148.29 1599.1C2148.48 1598.55 2148.83 1598.27 2149.35 1598.27L2154.79 1598.27 2157.13 1589.11C2157.3 1588.42 2157.65 1587.91 2158.17 1587.57 2158.7 1587.24 2159.22 1587.07 2159.76 1587.07 2160.31 1587.07 2160.77 1587.25 2161.13 1587.6 2161.37 1587.84 2161.5 1588.18 2161.5 1588.61 2161.5 1588.81 2161.48 1589.02 2161.44 1589.22L2159.13 1598.27 2164.38 1598.27C2164.87 1598.27 2165.12 1598.52 2165.12 1599.02L2165.12 1599.22Z" fill-rule="evenodd"/><path d="M1165.01 1069.01C1162.7 1068.89 1160.46 1068.83 1158.3 1068.83L1157.25 1068.83C1154.74 1068.87 1152.12 1068.92 1149.41 1068.99L1149.41 1066.81C1150.22 1066.81 1150.94 1066.78 1151.58 1066.72 1152.22 1066.66 1152.79 1066.53 1153.29 1066.34 1153.53 1066.22 1153.73 1066.04 1153.91 1065.79 1153.98 1065.71 1154.02 1065.59 1154.02 1065.45 1154.02 1065.38 1154.01 1065.3 1153.99 1065.22L1150.97 1056.76 1137.82 1056.76 1135.34 1063.77C1135.25 1063.99 1135.2 1064.19 1135.2 1064.38 1135.2 1064.55 1135.23 1064.73 1135.28 1064.9 1135.43 1065.29 1135.66 1065.6 1135.98 1065.84 1136.44 1066.23 1136.94 1066.49 1137.46 1066.62 1137.99 1066.75 1138.63 1066.81 1139.38 1066.81L1139.38 1068.99C1137.22 1068.92 1135.16 1068.87 1133.2 1068.83L1132.37 1068.83C1130.65 1068.83 1128.87 1068.89 1127.01 1069.01L1127.01 1066.81C1127.87 1066.81 1128.62 1066.76 1129.25 1066.64 1129.88 1066.53 1130.49 1066.31 1131.08 1065.97 1132.05 1065.43 1132.72 1064.64 1133.12 1063.59L1144.68 1030.77C1144.85 1030.25 1145.23 1030 1145.8 1030.01L1146.23 1030.01C1146.8 1030.02 1147.17 1030.27 1147.35 1030.77L1159.5 1065.06C1159.59 1065.39 1159.73 1065.69 1159.92 1065.95 1160.11 1066.21 1160.36 1066.39 1160.68 1066.47 1161.14 1066.65 1161.76 1066.75 1162.51 1066.78 1163.27 1066.8 1164.11 1066.81 1165.01 1066.81L1165.01 1069.01ZM1144.44 1038.16 1138.6 1054.58 1150.19 1054.58Z" fill="#D56A00" fill-rule="evenodd"/><path d="M1206.01 1063.58C1206.01 1064.34 1205.9 1065.11 1205.66 1065.89 1205.43 1066.67 1205.09 1067.36 1204.65 1067.96 1204.21 1068.57 1203.67 1069.06 1203.02 1069.44 1202.37 1069.82 1201.62 1070.01 1200.76 1070.01 1199.37 1070.01 1198.08 1069.85 1196.89 1069.52 1195.69 1069.19 1194.66 1068.69 1193.78 1068.03 1192.91 1067.36 1192.23 1066.55 1191.73 1065.58 1191.24 1064.61 1190.99 1063.47 1190.99 1062.15L1190.99 1057.48C1190.99 1056.63 1190.83 1055.83 1190.49 1055.06 1190.16 1054.3 1189.69 1053.64 1189.08 1053.06 1188.47 1052.49 1187.77 1052.05 1186.97 1051.73 1186.18 1051.41 1185.35 1051.25 1184.47 1051.25L1177.99 1051.25 1177.99 1065.03C1177.99 1065.34 1178.06 1065.62 1178.18 1065.87 1178.31 1066.13 1178.49 1066.29 1178.75 1066.38 1179.22 1066.54 1179.91 1066.63 1180.83 1066.65 1181.74 1066.68 1182.68 1066.69 1183.63 1066.69L1183.63 1068.84C1180.75 1068.74 1177.97 1068.69 1175.3 1068.69 1172.65 1068.69 1169.89 1068.74 1167.01 1068.84L1167.01 1066.69C1168 1066.69 1168.95 1066.68 1169.86 1066.65 1170.77 1066.63 1171.45 1066.54 1171.9 1066.38 1172.15 1066.29 1172.35 1066.12 1172.49 1065.86 1172.63 1065.6 1172.71 1065.32 1172.71 1065.03L1172.71 1035.78C1172.71 1035.47 1172.64 1035.19 1172.5 1034.93 1172.37 1034.68 1172.17 1034.51 1171.9 1034.43 1171.43 1034.27 1170.75 1034.19 1169.85 1034.17 1168.95 1034.15 1168 1034.14 1167.01 1034.14L1167.01 1032.01 1184.47 1032.01C1186.32 1032.01 1188.13 1032.23 1189.91 1032.66 1191.69 1033.1 1193.36 1033.84 1194.9 1034.89 1196.14 1035.73 1197.18 1036.73 1198.02 1037.92 1198.85 1039.11 1199.27 1040.42 1199.27 1041.85 1199.27 1043.25 1198.85 1044.53 1197.99 1045.68 1197.14 1046.83 1196.1 1047.79 1194.88 1048.55 1194.03 1049.1 1193.14 1049.56 1192.21 1049.91 1191.27 1050.27 1190.62 1050.48 1190.26 1050.55 1191.45 1050.91 1192.7 1051.66 1194.01 1052.81 1195.33 1053.95 1196.14 1055.45 1196.44 1057.32L1197.22 1061.99C1197.55 1063.97 1197.93 1065.52 1198.37 1066.64 1198.81 1067.77 1199.61 1068.33 1200.76 1068.33 1201.73 1068.33 1202.52 1067.86 1203.14 1066.93 1203.76 1065.99 1204.07 1064.88 1204.07 1063.58 1204.07 1063.01 1204.37 1062.73 1204.96 1062.74L1205.13 1062.74C1205.72 1062.75 1206.01 1063.02 1206.01 1063.58ZM1193.04 1041.85C1193.04 1040.8 1192.91 1039.77 1192.64 1038.76 1192.37 1037.76 1191.83 1036.93 1191.02 1036.27 1190.07 1035.44 1188.95 1034.88 1187.68 1034.58 1186.4 1034.29 1185.1 1034.14 1183.76 1034.14L1180.55 1034.14C1180.14 1034.14 1179.72 1034.15 1179.29 1034.17 1178.85 1034.19 1178.54 1034.26 1178.34 1034.4 1178.18 1034.52 1178.08 1034.72 1178.05 1034.99 1178.01 1035.26 1177.99 1035.52 1177.99 1035.78L1177.99 1049.56 1183.76 1049.56C1185.11 1049.56 1186.42 1049.41 1187.69 1049.12 1188.96 1048.83 1190.07 1048.26 1191.02 1047.43 1191.83 1046.76 1192.37 1045.93 1192.64 1044.94 1192.91 1043.95 1193.04 1042.92 1193.04 1041.85Z" fill="#D56A00" fill-rule="evenodd"/><path d="M1245.01 1063.58C1245.01 1064.34 1244.9 1065.11 1244.67 1065.89 1244.45 1066.67 1244.12 1067.36 1243.69 1067.96 1243.26 1068.57 1242.73 1069.06 1242.1 1069.44 1241.47 1069.82 1240.73 1070.01 1239.89 1070.01 1238.54 1070.01 1237.29 1069.85 1236.12 1069.52 1234.96 1069.19 1233.95 1068.69 1233.1 1068.03 1232.25 1067.36 1231.58 1066.55 1231.1 1065.58 1230.62 1064.61 1230.38 1063.47 1230.38 1062.15L1230.38 1057.48C1230.38 1056.63 1230.22 1055.83 1229.89 1055.06 1229.57 1054.3 1229.11 1053.64 1228.51 1053.06 1227.92 1052.49 1227.23 1052.05 1226.46 1051.73 1225.69 1051.41 1224.88 1051.25 1224.02 1051.25L1217.71 1051.25 1217.71 1065.03C1217.71 1065.34 1217.77 1065.62 1217.89 1065.87 1218.02 1066.13 1218.2 1066.29 1218.45 1066.38 1218.9 1066.54 1219.58 1066.63 1220.47 1066.65 1221.36 1066.68 1222.28 1066.69 1223.2 1066.69L1223.2 1068.84C1220.4 1068.74 1217.69 1068.69 1215.08 1068.69 1212.51 1068.69 1209.82 1068.74 1207.01 1068.84L1207.01 1066.69C1207.98 1066.69 1208.9 1066.68 1209.79 1066.65 1210.67 1066.63 1211.33 1066.54 1211.77 1066.38 1212.02 1066.29 1212.21 1066.12 1212.35 1065.86 1212.49 1065.6 1212.56 1065.32 1212.56 1065.03L1212.56 1035.78C1212.56 1035.47 1212.5 1035.19 1212.36 1034.93 1212.23 1034.68 1212.03 1034.51 1211.77 1034.43 1211.32 1034.27 1210.65 1034.19 1209.77 1034.17 1208.9 1034.15 1207.98 1034.14 1207.01 1034.14L1207.01 1032.01 1224.02 1032.01C1225.82 1032.01 1227.59 1032.23 1229.33 1032.66 1231.06 1033.1 1232.68 1033.84 1234.19 1034.89 1235.4 1035.73 1236.41 1036.73 1237.22 1037.92 1238.04 1039.11 1238.44 1040.42 1238.44 1041.85 1238.44 1043.25 1238.03 1044.53 1237.2 1045.68 1236.37 1046.83 1235.35 1047.79 1234.16 1048.55 1233.34 1049.1 1232.47 1049.56 1231.56 1049.91 1230.65 1050.27 1230.02 1050.48 1229.67 1050.55 1230.83 1050.91 1232.04 1051.66 1233.32 1052.81 1234.6 1053.95 1235.39 1055.45 1235.69 1057.32L1236.45 1061.99C1236.76 1063.97 1237.14 1065.52 1237.57 1066.64 1237.99 1067.77 1238.77 1068.33 1239.89 1068.33 1240.84 1068.33 1241.61 1067.86 1242.22 1066.93 1242.82 1065.99 1243.12 1064.88 1243.12 1063.58 1243.12 1063.01 1243.41 1062.73 1243.99 1062.74L1244.15 1062.74C1244.73 1062.75 1245.01 1063.02 1245.01 1063.58ZM1232.37 1041.85C1232.37 1040.8 1232.24 1039.77 1231.98 1038.76 1231.72 1037.76 1231.19 1036.93 1230.4 1036.27 1229.47 1035.44 1228.39 1034.88 1227.14 1034.58 1225.9 1034.29 1224.63 1034.14 1223.33 1034.14L1220.21 1034.14C1219.8 1034.14 1219.39 1034.15 1218.97 1034.17 1218.55 1034.19 1218.25 1034.26 1218.05 1034.4 1217.9 1034.52 1217.8 1034.72 1217.76 1034.99 1217.73 1035.26 1217.71 1035.52 1217.71 1035.78L1217.71 1049.56 1223.33 1049.56C1224.65 1049.56 1225.92 1049.41 1227.16 1049.12 1228.39 1048.83 1229.47 1048.26 1230.4 1047.43 1231.19 1046.76 1231.72 1045.93 1231.98 1044.94 1232.24 1043.95 1232.37 1042.92 1232.37 1041.85Z" fill="#D56A00" fill-rule="evenodd"/><path d="M1138.01 1134.85C1138.01 1136.8 1137.63 1138.63 1136.86 1140.36 1136.09 1142.09 1135.06 1143.59 1133.76 1144.85 1132.46 1146.12 1130.93 1147.13 1129.16 1147.89 1127.39 1148.64 1125.49 1149.02 1123.47 1149.02 1120.87 1149.02 1118.38 1148.53 1115.99 1147.54 1113.61 1146.55 1111.51 1145.15 1109.7 1143.34 1107.84 1141.43 1106.43 1139.3 1105.46 1136.93 1104.5 1134.57 1104.01 1132.1 1104.01 1129.53 1104.01 1126.97 1104.5 1124.5 1105.46 1122.13 1106.43 1119.75 1107.84 1117.63 1109.7 1115.75 1111.51 1113.95 1113.61 1112.54 1115.99 1111.53 1118.38 1110.53 1120.87 1110.02 1123.47 1110.02 1125.56 1110.02 1127.47 1110.45 1129.18 1111.29 1130.9 1112.13 1132.32 1113.19 1133.45 1114.46L1136.35 1110.41C1136.46 1110.15 1136.69 1110.02 1137.05 1110.02L1137.21 1110.02C1137.75 1110.02 1138.01 1110.29 1138.01 1110.82L1138.01 1124.91C1138.01 1125.43 1137.75 1125.7 1137.21 1125.71L1136.59 1125.71C1136.16 1125.72 1135.89 1125.48 1135.79 1124.99 1135.71 1123.26 1135.36 1121.61 1134.73 1120.05 1134.09 1118.49 1133.24 1117.14 1132.19 1115.98 1131.13 1114.83 1129.91 1113.91 1128.53 1113.22 1127.14 1112.54 1125.63 1112.19 1124.01 1112.19 1121.95 1112.19 1120.03 1112.62 1118.26 1113.48 1116.49 1114.34 1114.98 1115.55 1113.73 1117.09 1112.35 1118.82 1111.41 1120.75 1110.91 1122.89 1110.41 1125.03 1110.16 1127.25 1110.16 1129.53 1110.16 1131.81 1110.41 1134.01 1110.91 1136.16 1111.41 1138.3 1112.35 1140.23 1113.73 1141.95 1115 1143.5 1116.53 1144.72 1118.32 1145.6 1120.11 1146.49 1122.02 1146.93 1124.06 1146.93 1125.74 1146.93 1127.32 1146.61 1128.8 1145.98 1130.27 1145.34 1131.55 1144.47 1132.62 1143.36 1133.69 1142.25 1134.54 1140.97 1135.17 1139.52 1135.79 1138.08 1136.11 1136.52 1136.11 1134.85 1136.11 1134.34 1136.37 1134.08 1136.89 1134.08L1137.21 1134.08C1137.75 1134.08 1138.01 1134.34 1138.01 1134.85Z" fill="#CC0000" fill-rule="evenodd"/><path d="M1176.01 1134.85C1176.01 1136.8 1175.63 1138.63 1174.86 1140.36 1174.09 1142.09 1173.06 1143.59 1171.76 1144.85 1170.46 1146.12 1168.93 1147.13 1167.16 1147.89 1165.39 1148.64 1163.49 1149.02 1161.47 1149.02 1158.87 1149.02 1156.38 1148.53 1153.99 1147.54 1151.61 1146.55 1149.51 1145.15 1147.7 1143.34 1145.84 1141.43 1144.43 1139.3 1143.46 1136.93 1142.5 1134.57 1142.01 1132.1 1142.01 1129.53 1142.01 1126.97 1142.5 1124.5 1143.46 1122.13 1144.43 1119.75 1145.84 1117.63 1147.7 1115.75 1149.51 1113.95 1151.61 1112.54 1153.99 1111.53 1156.38 1110.53 1158.87 1110.02 1161.47 1110.02 1163.56 1110.02 1165.47 1110.45 1167.18 1111.29 1168.9 1112.13 1170.32 1113.19 1171.45 1114.46L1174.35 1110.41C1174.46 1110.15 1174.69 1110.02 1175.05 1110.02L1175.21 1110.02C1175.75 1110.02 1176.01 1110.29 1176.01 1110.82L1176.01 1124.91C1176.01 1125.43 1175.75 1125.7 1175.21 1125.71L1174.59 1125.71C1174.16 1125.72 1173.89 1125.48 1173.79 1124.99 1173.71 1123.26 1173.36 1121.61 1172.72 1120.05 1172.09 1118.49 1171.24 1117.14 1170.19 1115.98 1169.13 1114.83 1167.91 1113.91 1166.53 1113.22 1165.14 1112.54 1163.63 1112.19 1162.01 1112.19 1159.95 1112.19 1158.03 1112.62 1156.26 1113.48 1154.49 1114.34 1152.98 1115.55 1151.73 1117.09 1150.35 1118.82 1149.41 1120.75 1148.91 1122.89 1148.41 1125.03 1148.16 1127.25 1148.16 1129.53 1148.16 1131.81 1148.41 1134.01 1148.91 1136.16 1149.41 1138.3 1150.35 1140.23 1151.73 1141.95 1153 1143.5 1154.53 1144.72 1156.32 1145.6 1158.11 1146.49 1160.02 1146.93 1162.06 1146.93 1163.74 1146.93 1165.32 1146.61 1166.8 1145.98 1168.27 1145.34 1169.55 1144.47 1170.62 1143.36 1171.69 1142.25 1172.54 1140.97 1173.17 1139.52 1173.79 1138.08 1174.11 1136.52 1174.11 1134.85 1174.11 1134.34 1174.37 1134.08 1174.89 1134.08L1175.21 1134.08C1175.75 1134.08 1176.01 1134.34 1176.01 1134.85Z" fill="#CC0000" fill-rule="evenodd"/><path d="M1217.01 1142.75C1217.01 1143.5 1216.9 1144.25 1216.67 1145 1216.44 1145.76 1216.12 1146.44 1215.69 1147.03 1215.26 1147.62 1214.73 1148.09 1214.1 1148.46 1213.47 1148.84 1212.73 1149.02 1211.89 1149.02 1210.54 1149.02 1209.28 1148.86 1208.12 1148.54 1206.95 1148.22 1205.95 1147.74 1205.1 1147.09 1204.25 1146.44 1203.58 1145.65 1203.1 1144.7 1202.62 1143.76 1202.37 1142.65 1202.37 1141.36L1202.37 1136.81C1202.37 1135.99 1202.21 1135.21 1201.89 1134.46 1201.57 1133.72 1201.11 1133.07 1200.51 1132.52 1199.91 1131.96 1199.23 1131.53 1198.46 1131.22 1197.69 1130.91 1196.87 1130.75 1196.02 1130.75L1189.71 1130.75 1189.71 1144.17C1189.71 1144.47 1189.77 1144.75 1189.89 1144.99 1190.02 1145.24 1190.2 1145.4 1190.44 1145.48 1190.9 1145.64 1191.58 1145.72 1192.47 1145.75 1193.36 1145.77 1194.27 1145.79 1195.2 1145.79L1195.2 1147.88C1192.4 1147.78 1189.69 1147.73 1187.08 1147.73 1184.51 1147.73 1181.82 1147.78 1179.01 1147.88L1179.01 1145.79C1179.98 1145.79 1180.9 1145.77 1181.79 1145.75 1182.67 1145.72 1183.33 1145.64 1183.77 1145.48 1184.01 1145.4 1184.21 1145.23 1184.35 1144.98 1184.49 1144.73 1184.56 1144.46 1184.56 1144.17L1184.56 1115.69C1184.56 1115.38 1184.49 1115.11 1184.36 1114.87 1184.23 1114.62 1184.03 1114.46 1183.77 1114.37 1183.31 1114.22 1182.65 1114.14 1181.77 1114.12 1180.9 1114.1 1179.98 1114.09 1179.01 1114.09L1179.01 1112.02 1196.02 1112.02C1197.82 1112.02 1199.59 1112.23 1201.32 1112.65 1203.06 1113.08 1204.68 1113.8 1206.19 1114.83 1207.4 1115.64 1208.41 1116.62 1209.22 1117.77 1210.04 1118.93 1210.44 1120.2 1210.44 1121.6 1210.44 1122.97 1210.03 1124.21 1209.2 1125.33 1208.36 1126.45 1207.35 1127.38 1206.16 1128.12 1205.34 1128.66 1204.47 1129.1 1203.56 1129.45 1202.65 1129.79 1202.02 1130 1201.67 1130.07 1202.82 1130.42 1204.04 1131.15 1205.32 1132.27 1206.6 1133.38 1207.39 1134.84 1207.68 1136.66L1208.45 1141.21C1208.76 1143.13 1209.13 1144.64 1209.56 1145.74 1209.99 1146.83 1210.77 1147.38 1211.89 1147.38 1212.84 1147.38 1213.61 1146.92 1214.22 1146.02 1214.82 1145.1 1215.12 1144.02 1215.12 1142.75 1215.12 1142.2 1215.41 1141.93 1215.99 1141.94L1216.15 1141.94C1216.72 1141.95 1217.01 1142.22 1217.01 1142.75ZM1204.37 1121.6C1204.37 1120.57 1204.24 1119.57 1203.98 1118.59 1203.72 1117.62 1203.19 1116.81 1202.4 1116.17 1201.47 1115.36 1200.39 1114.81 1199.14 1114.52 1197.9 1114.24 1196.63 1114.09 1195.33 1114.09L1192.2 1114.09C1191.8 1114.09 1191.39 1114.1 1190.97 1114.12 1190.55 1114.14 1190.24 1114.21 1190.05 1114.35 1189.89 1114.47 1189.8 1114.66 1189.76 1114.92 1189.73 1115.18 1189.71 1115.43 1189.71 1115.69L1189.71 1129.11 1195.33 1129.11C1196.65 1129.11 1197.92 1128.96 1199.16 1128.68 1200.39 1128.39 1201.47 1127.84 1202.4 1127.03 1203.19 1126.38 1203.72 1125.57 1203.98 1124.61 1204.24 1123.65 1204.37 1122.64 1204.37 1121.6Z" fill="#CC0000" fill-rule="evenodd"/><path d="M1245.01 1148.02C1243.21 1147.9 1241.53 1147.84 1239.96 1147.84L1239.21 1147.84C1237.36 1147.88 1235.41 1147.93 1233.36 1148L1233.36 1145.89C1233.79 1145.89 1234.14 1145.85 1234.42 1145.76 1234.69 1145.68 1234.9 1145.54 1235.05 1145.35 1235.23 1145.18 1235.32 1145.02 1235.34 1144.87 1235.34 1144.72 1235.28 1144.57 1235.15 1144.41L1230.24 1138.31 1226.34 1142.99C1226.07 1143.28 1225.89 1143.59 1225.8 1143.93 1225.77 1144.08 1225.75 1144.26 1225.75 1144.46 1225.75 1144.62 1225.77 1144.79 1225.8 1145 1225.94 1145.59 1226.45 1145.89 1227.32 1145.89L1227.32 1148C1225.51 1147.93 1223.8 1147.88 1222.19 1147.84L1221.47 1147.84C1220.09 1147.84 1218.6 1147.9 1217.01 1148.02L1217.01 1145.89C1218.62 1145.89 1219.98 1145.62 1221.1 1145.07 1221.69 1144.82 1222.24 1144.48 1222.76 1144.04 1223.27 1143.61 1223.75 1143.16 1224.17 1142.68L1229.06 1136.86 1222.7 1128.96C1222.44 1128.67 1222.16 1128.39 1221.86 1128.1 1221.57 1127.81 1221.24 1127.6 1220.88 1127.46 1220.48 1127.31 1219.96 1127.23 1219.35 1127.21 1218.74 1127.19 1218.04 1127.18 1217.28 1127.18L1217.28 1125.02C1219.1 1125.18 1220.84 1125.26 1222.52 1125.28 1222.68 1125.28 1222.87 1125.25 1223.1 1125.2 1224.97 1125.2 1226.93 1125.14 1228.98 1125.02L1228.98 1127.18C1228.14 1127.18 1227.55 1127.36 1227.19 1127.71 1227.03 1127.9 1226.95 1128.07 1226.95 1128.22 1226.95 1128.38 1227 1128.52 1227.11 1128.66L1231.44 1134.02 1234.73 1130.1C1235.17 1129.61 1235.39 1129.09 1235.39 1128.53 1235.39 1128.38 1235.38 1128.23 1235.34 1128.1 1235.25 1127.84 1235.09 1127.63 1234.86 1127.45 1234.63 1127.27 1234.27 1127.18 1233.79 1127.18L1233.79 1125.02C1235.61 1125.14 1237.34 1125.2 1238.97 1125.2 1239.15 1125.23 1239.32 1125.26 1239.48 1125.28 1240.89 1125.28 1242.42 1125.19 1244.08 1125.02L1244.08 1127.18C1242.47 1127.18 1241.1 1127.45 1239.96 1127.99 1239.36 1128.27 1238.8 1128.61 1238.29 1129.03 1237.78 1129.44 1237.33 1129.9 1236.92 1130.41L1232.67 1135.47 1239.59 1144.11C1239.86 1144.43 1240.13 1144.72 1240.4 1144.99 1240.68 1145.25 1241.01 1145.45 1241.41 1145.58 1241.82 1145.74 1242.33 1145.82 1242.94 1145.85 1243.56 1145.88 1244.25 1145.89 1245.01 1145.89L1245.01 1148.02Z" fill="#CC0000" fill-rule="evenodd"/><path d="M1435.05 1137.04 1435.05 1447.04" stroke="#000000" stroke-width="1.71893" stroke-linecap="round" stroke-linejoin="round" stroke-miterlimit="10" stroke-dasharray="12.0325 6.87572" fill="none" fill-rule="evenodd"/><path d="M1666.07 1137.04 1666.07 1447.04" stroke="#000000" stroke-width="1.71893" stroke-linecap="round" stroke-linejoin="round" stroke-miterlimit="10" stroke-dasharray="12.0325 6.87572" fill="none" fill-rule="evenodd"/><path d="M1900.1 1137.04 1900.1 1447.04" stroke="#000000" stroke-width="1.71893" stroke-linecap="round" stroke-linejoin="round" stroke-miterlimit="10" stroke-dasharray="12.0325 6.87572" fill="none" fill-rule="evenodd"/><path d="M1247.03 1604.26C1247.03 1606.69 1246.86 1609.11 1246.52 1611.52 1246.18 1613.92 1245.34 1616.18 1244.01 1618.29 1243.06 1619.82 1241.78 1621 1240.19 1621.83 1238.59 1622.66 1236.86 1623.07 1234.99 1623.07 1233.18 1623.07 1231.48 1622.66 1229.88 1621.83 1228.27 1621 1226.99 1619.82 1226.04 1618.29 1224.71 1616.18 1223.87 1613.92 1223.53 1611.52 1223.2 1609.11 1223.02 1606.69 1223.02 1604.26 1223.02 1601.8 1223.2 1599.34 1223.53 1596.88 1223.87 1594.43 1224.71 1592.13 1226.04 1589.98 1226.99 1588.43 1228.27 1587.22 1229.86 1586.36 1231.46 1585.5 1233.17 1585.07 1234.99 1585.07 1236.84 1585.07 1238.57 1585.5 1240.17 1586.36 1241.78 1587.22 1243.06 1588.43 1244.01 1589.98 1245.34 1592.13 1246.18 1594.43 1246.52 1596.88 1246.86 1599.34 1247.03 1601.8 1247.03 1604.26ZM1241.88 1603.37C1241.88 1602.31 1241.87 1601.19 1241.85 1600.01 1241.83 1598.83 1241.79 1597.67 1241.72 1596.54 1241.65 1595.41 1241.53 1594.34 1241.34 1593.34 1241.16 1592.34 1240.94 1591.48 1240.68 1590.77 1240.16 1589.62 1239.4 1588.68 1238.39 1587.95 1237.39 1587.21 1236.25 1586.84 1234.99 1586.84 1233.76 1586.84 1232.64 1587.22 1231.65 1587.96 1230.65 1588.7 1229.89 1589.64 1229.37 1590.77 1229.11 1591.48 1228.89 1592.34 1228.71 1593.34 1228.52 1594.34 1228.4 1595.41 1228.33 1596.54 1228.26 1597.67 1228.22 1598.83 1228.2 1600.01 1228.18 1601.19 1228.17 1602.31 1228.17 1603.37 1228.17 1604.56 1228.18 1605.8 1228.2 1607.11 1228.22 1608.42 1228.26 1609.68 1228.33 1610.91 1228.4 1612.13 1228.52 1613.29 1228.71 1614.39 1228.89 1615.49 1229.11 1616.41 1229.37 1617.15 1229.85 1618.38 1230.61 1619.39 1231.62 1620.19 1232.63 1620.98 1233.76 1621.38 1234.99 1621.37 1236.27 1621.38 1237.42 1620.98 1238.43 1620.19 1239.45 1619.39 1240.2 1618.38 1240.68 1617.15 1240.94 1616.41 1241.16 1615.49 1241.34 1614.39 1241.53 1613.29 1241.65 1612.13 1241.72 1610.91 1241.79 1609.68 1241.83 1608.42 1241.85 1607.11 1241.87 1605.8 1241.88 1604.56 1241.88 1603.37Z" fill-rule="evenodd"/><path d="M1245.03 1462.05C1241.84 1461.95 1238.74 1461.9 1235.72 1461.9 1232.71 1461.9 1229.6 1461.95 1226.41 1462.05L1226.41 1459.92 1228.21 1459.92C1228.78 1459.93 1229.32 1459.92 1229.82 1459.9 1230.32 1459.89 1230.8 1459.84 1231.25 1459.78 1231.7 1459.71 1232.09 1459.65 1232.42 1459.58 1232.7 1459.53 1232.93 1459.38 1233.11 1459.12 1233.29 1458.87 1233.38 1458.58 1233.38 1458.26L1233.38 1430.36C1232.52 1430.78 1231.45 1431.09 1230.18 1431.3 1228.92 1431.52 1227.53 1431.63 1226.02 1431.62L1226.02 1429.52C1228.11 1429.52 1230.02 1429.28 1231.78 1428.79 1233.54 1428.3 1235.06 1427.39 1236.34 1426.05L1237.15 1426.05C1237.72 1426.05 1238.01 1426.33 1238.01 1426.87L1238.01 1458.26C1238.01 1458.6 1238.09 1458.89 1238.27 1459.13 1238.44 1459.38 1238.69 1459.53 1239.02 1459.58 1239.3 1459.65 1239.65 1459.71 1240.09 1459.78 1240.52 1459.84 1241.01 1459.89 1241.56 1459.9 1242.1 1459.92 1242.63 1459.93 1243.15 1459.92L1245.03 1459.92 1245.03 1462.05Z" fill-rule="evenodd"/><path d="M1273.54 1447.56 1435.54 1447.56" stroke="#000000" stroke-width="3.4375" stroke-linecap="round" stroke-linejoin="round" stroke-miterlimit="10" fill="none" fill-rule="evenodd"/><path d="M1048 1542.06C1045.11 1541.96 1042.27 1541.91 1039.49 1541.91 1036.75 1541.91 1033.92 1541.96 1031 1542.06L1031 1539.96C1032.01 1539.96 1032.98 1539.94 1033.92 1539.92 1034.86 1539.89 1035.57 1539.81 1036.06 1539.65 1036.31 1539.57 1036.5 1539.4 1036.63 1539.16 1036.76 1538.91 1036.83 1538.64 1036.83 1538.33L1036.83 1509.74C1036.83 1509.44 1036.76 1509.16 1036.63 1508.92 1036.5 1508.67 1036.31 1508.51 1036.06 1508.42 1035.57 1508.27 1034.86 1508.19 1033.92 1508.17 1032.98 1508.15 1032.01 1508.14 1031 1508.14L1031 1506.06C1033.92 1506.13 1036.75 1506.16 1039.49 1506.16 1042.27 1506.16 1045.11 1506.13 1048 1506.06L1048 1508.14C1047 1508.14 1046.03 1508.15 1045.09 1508.17 1044.15 1508.19 1043.44 1508.27 1042.97 1508.42 1042.72 1508.51 1042.53 1508.68 1042.39 1508.93 1042.25 1509.18 1042.18 1509.45 1042.18 1509.74L1042.18 1538.33C1042.18 1538.64 1042.25 1538.91 1042.38 1539.16 1042.51 1539.4 1042.71 1539.57 1042.97 1539.65 1043.46 1539.81 1044.17 1539.89 1045.1 1539.92 1046.03 1539.94 1047 1539.96 1048 1539.96L1048 1542.06Z" fill-rule="evenodd"/><path d="M1088 1524.73C1088 1527.26 1087.55 1529.7 1086.65 1532.05 1085.75 1534.4 1084.39 1536.51 1082.59 1538.38 1080.89 1540.16 1078.92 1541.55 1076.66 1542.55 1074.41 1543.56 1072.03 1544.06 1069.5 1544.06 1066.98 1544.06 1064.6 1543.56 1062.34 1542.55 1060.09 1541.55 1058.12 1540.16 1056.42 1538.38 1054.63 1536.53 1053.28 1534.42 1052.37 1532.06 1051.46 1529.71 1051 1527.26 1051 1524.73 1051 1522.17 1051.46 1519.7 1052.37 1517.32 1053.28 1514.95 1054.63 1512.79 1056.42 1510.84 1058.08 1509.04 1060.05 1507.62 1062.32 1506.6 1064.59 1505.58 1066.98 1505.06 1069.5 1505.06 1072.03 1505.06 1074.41 1505.58 1076.66 1506.6 1078.92 1507.62 1080.89 1509.04 1082.59 1510.84 1084.38 1512.79 1085.73 1514.95 1086.64 1517.31 1087.55 1519.68 1088 1522.15 1088 1524.73ZM1081.81 1523.88C1081.81 1521.71 1081.58 1519.59 1081.11 1517.52 1080.65 1515.44 1079.78 1513.55 1078.51 1511.82 1077.48 1510.36 1076.17 1509.18 1074.6 1508.26 1073.03 1507.35 1071.33 1506.9 1069.5 1506.9 1067.7 1506.9 1066.02 1507.35 1064.46 1508.26 1062.91 1509.18 1061.59 1510.36 1060.49 1511.82 1059.23 1513.55 1058.35 1515.44 1057.87 1517.52 1057.39 1519.59 1057.14 1521.71 1057.14 1523.88 1057.14 1526.19 1057.37 1528.45 1057.81 1530.68 1058.26 1532.91 1059.15 1535 1060.49 1536.96 1061.53 1538.48 1062.82 1539.73 1064.37 1540.71 1065.92 1541.69 1067.63 1542.18 1069.5 1542.18 1071.35 1542.18 1073.05 1541.69 1074.61 1540.71 1076.18 1539.73 1077.48 1538.48 1078.51 1536.96 1079.82 1535 1080.69 1532.91 1081.14 1530.68 1081.59 1528.45 1081.81 1526.19 1081.81 1523.88Z" fill-rule="evenodd"/><path d="M1111.13 1548.06 1109 1544.19C1110.21 1542.91 1112.05 1540.95 1114.54 1538.29 1114.8 1538.04 1114.99 1537.85 1115.11 1537.71L1115.11 1521.36 1109.87 1521.36 1109.87 1517.51 1118.97 1517.51 1118.97 1537.61C1120.47 1539.75 1122.2 1541.25 1124.14 1542.12 1125.96 1542.94 1128.37 1543.36 1131.38 1543.39 1139.77 1543.52 1148.65 1543.48 1158 1543.29 1157.9 1543.55 1157.77 1543.91 1157.61 1544.36 1157.22 1545.47 1156.95 1546.36 1156.77 1547.04 1144.62 1547.04 1135.91 1546.98 1130.64 1546.86 1127.25 1546.76 1124.57 1546.28 1122.6 1545.42 1120.64 1544.56 1118.82 1543.06 1117.16 1540.92 1114.91 1543.4 1112.89 1545.78 1111.13 1548.06ZM1126.74 1542.37C1126.58 1542.14 1126.28 1541.71 1125.84 1541.07 1125.16 1540.09 1124.69 1539.42 1124.43 1539.06 1130.49 1537.51 1135.38 1535.68 1139.06 1533.55 1142.72 1531.46 1146.13 1528.56 1149.29 1524.85L1133.08 1524.85 1131.54 1526.41C1132.99 1527.3 1135.34 1528.83 1138.59 1531.03 1138.94 1531.27 1139.2 1531.44 1139.35 1531.56L1136.34 1534.01C1133.26 1531.67 1130.81 1529.88 1128.99 1528.65 1127.31 1530.03 1125.51 1531.36 1123.59 1532.63 1122.89 1531.63 1122.05 1530.61 1121.07 1529.57 1124.09 1527.74 1126.6 1525.93 1128.6 1524.14 1130.7 1522.26 1132.65 1520.01 1134.45 1517.41L1138.38 1518.33C1138.3 1518.43 1138.17 1518.6 1138.01 1518.84 1137.05 1520.2 1136.31 1521.18 1135.79 1521.8L1153.65 1521.8 1153.65 1525.39C1150.26 1529.88 1146.55 1533.39 1142.53 1535.92 1138.52 1538.46 1133.26 1540.61 1126.74 1542.37ZM1123.88 1517.13 1123.88 1502.39 1155.35 1502.39 1155.35 1517.13ZM1127.52 1514.02 1133.45 1514.02 1133.45 1505.45 1127.52 1505.45ZM1136.7 1514.02 1142.55 1514.02 1142.55 1505.45 1136.7 1505.45ZM1145.81 1514.02 1151.71 1514.02 1151.71 1505.45 1145.81 1505.45ZM1117.97 1512.16C1116.21 1509.32 1114.2 1506.24 1111.97 1502.92L1115.22 1501.06C1117.88 1504.74 1119.98 1507.7 1121.51 1509.96Z" fill-rule="evenodd"/><path d="M1204.38 1549.06 1204.38 1542.92C1196.99 1543.36 1189.16 1543.81 1180.88 1544.29L1180.64 1540.81C1182.6 1540.74 1184.07 1540.67 1185.07 1540.6L1185.07 1520.44 1182.05 1520.44 1182.05 1517.29 1211.74 1517.29 1211.74 1520.44 1208.09 1520.44 1208.09 1539.47C1209.83 1539.4 1211.13 1539.32 1212 1539.24 1211.83 1540.39 1211.74 1541.51 1211.74 1542.59 1210.16 1542.68 1208.94 1542.72 1208.09 1542.72L1208.09 1549.06ZM1172.54 1548.99 1172.54 1537.84C1170.22 1538.12 1167.15 1538.53 1163.35 1539.08L1163 1535.14C1164.26 1535.02 1166.31 1534.82 1169.13 1534.54 1170.64 1534.39 1171.78 1534.28 1172.54 1534.21L1172.54 1526.73 1163.86 1526.73 1163.86 1522.99C1165.21 1519.16 1166.53 1515.04 1167.83 1510.64L1163.46 1510.64 1163.46 1507.15 1168.78 1507.15C1168.95 1506.61 1169.18 1505.78 1169.48 1504.68 1170.08 1502.6 1170.5 1501.06 1170.73 1500.06L1174.59 1500.55 1172.6 1507.15 1182.05 1507.15 1182.05 1510.64 1171.58 1510.64C1169.74 1516.38 1168.33 1520.58 1167.37 1523.25L1172.92 1523.25 1172.92 1514.32 1176.17 1514.32 1176.17 1523.25 1181.33 1523.25 1181.33 1526.73 1176.17 1526.73 1176.17 1533.82 1182.16 1533.12C1182.02 1534.35 1181.95 1535.58 1181.95 1536.81L1176.17 1537.46 1176.17 1548.99ZM1188.82 1540.42 1204.38 1539.68 1204.38 1535.45 1188.82 1535.45ZM1188.82 1532.4 1204.38 1532.4 1204.38 1527.97 1188.82 1527.97ZM1188.82 1524.87 1204.38 1524.87 1204.38 1520.44 1188.82 1520.44ZM1184.69 1513.45 1184.69 1502.23 1208.65 1502.23 1208.65 1513.45ZM1188.42 1510.4 1204.89 1510.4 1204.89 1505.27 1188.42 1505.27Z" fill-rule="evenodd"/><path d="M1435.55 1447.57 1435.55 1606.57" stroke="#000000" stroke-width="3.4375" stroke-linecap="round" stroke-linejoin="round" stroke-miterlimit="10" fill="none" fill-rule="evenodd"/><path d="M1502.05 1315.05 1502.05 1447.05" stroke="#000000" stroke-width="1.71893" stroke-linecap="round" stroke-linejoin="round" stroke-miterlimit="10" stroke-dasharray="12.0325 6.87572" fill="none" fill-rule="evenodd"/><path d="M1502.55 1447.57 1502.55 1606.57" stroke="#000000" stroke-width="3.4375" stroke-linecap="round" stroke-linejoin="round" stroke-miterlimit="10" fill="none" fill-rule="evenodd"/><path d="M1502.56 1447.56 1666.56 1447.56" stroke="#000000" stroke-width="3.4375" stroke-linecap="round" stroke-linejoin="round" stroke-miterlimit="10" fill="none" fill-rule="evenodd"/><path d="M1666.57 1447.57 1666.57 1606.57" stroke="#000000" stroke-width="3.4375" stroke-linecap="round" stroke-linejoin="round" stroke-miterlimit="10" fill="none" fill-rule="evenodd"/><path d="M1735.58 1447.57 1735.58 1606.57" stroke="#000000" stroke-width="3.4375" stroke-linecap="round" stroke-linejoin="round" stroke-miterlimit="10" fill="none" fill-rule="evenodd"/><path d="M1736.59 1447.56 1900.59 1447.56" stroke="#000000" stroke-width="3.4375" stroke-linecap="round" stroke-linejoin="round" stroke-miterlimit="10" fill="none" fill-rule="evenodd"/><path d="M1900.6 1447.57 1900.6 1606.57" stroke="#000000" stroke-width="3.4375" stroke-linecap="round" stroke-linejoin="round" stroke-miterlimit="10" fill="none" fill-rule="evenodd"/><path d="M1734.08 1315.05 1734.08 1447.05" stroke="#000000" stroke-width="1.71893" stroke-linecap="round" stroke-linejoin="round" stroke-miterlimit="10" stroke-dasharray="12.0325 6.87572" fill="none" fill-rule="evenodd"/><path d="M2023.1 1204.53C2023.1 1206.47 2021.76 1208.03 2020.1 1208.03 2018.44 1208.03 2017.1 1206.47 2017.1 1204.53 2017.1 1202.6 2018.44 1201.03 2020.1 1201.03 2021.76 1201.03 2023.1 1202.6 2023.1 1204.53Z" fill-rule="evenodd"/><path d="M2007.11 1204.53C2007.11 1206.47 2005.55 1208.03 2003.61 1208.03 2001.68 1208.03 2000.11 1206.47 2000.11 1204.53 2000.11 1202.6 2001.68 1201.03 2003.61 1201.03 2005.55 1201.03 2007.11 1202.6 2007.11 1204.53Z" fill-rule="evenodd"/><path d="M2040.12 1204.53C2040.12 1206.47 2038.55 1208.03 2036.62 1208.03 2034.69 1208.03 2033.12 1206.47 2033.12 1204.53 2033.12 1202.6 2034.69 1201.03 2036.62 1201.03 2038.55 1201.03 2040.12 1202.6 2040.12 1204.53Z" fill-rule="evenodd"/><path d="M2023.1 1517.57C2023.1 1519.5 2021.76 1521.07 2020.1 1521.07 2018.44 1521.07 2017.1 1519.5 2017.1 1517.57 2017.1 1515.64 2018.44 1514.07 2020.1 1514.07 2021.76 1514.07 2023.1 1515.64 2023.1 1517.57Z" fill-rule="evenodd"/><path d="M2007.11 1517.57C2007.11 1519.5 2005.55 1521.07 2003.61 1521.07 2001.68 1521.07 2000.11 1519.5 2000.11 1517.57 2000.11 1515.64 2001.68 1514.07 2003.61 1514.07 2005.55 1514.07 2007.11 1515.64 2007.11 1517.57Z" fill-rule="evenodd"/><path d="M2040.12 1517.57C2040.12 1519.5 2038.55 1521.07 2036.62 1521.07 2034.69 1521.07 2033.12 1519.5 2033.12 1517.57 2033.12 1515.64 2034.69 1514.07 2036.62 1514.07 2038.55 1514.07 2040.12 1515.64 2040.12 1517.57Z" fill-rule="evenodd"/></g></svg>