<?xml version="1.0"?>
<svg xmlns="http://www.w3.org/2000/svg" xmlns:xlink="http://www.w3.org/1999/xlink" width="163.611115" height="230.833344">
	<defs>
		<marker id="CustomMarker-01" markerUnits="strokeWidth" markerWidth="15.000001" markerHeight="9" viewBox="-15 -4.5 15 9" orient="auto-start-reverse">
			<path d="M 0 -0 L -10 -3, -8 -0.5, -8 0.5, -10 3 Z" fill="#000000" stroke="#000000" stroke-linejoin="round" />
		</marker>
		<marker id="CustomMarker-02" markerUnits="strokeWidth" markerWidth="15.000001" markerHeight="9" viewBox="-15 -4.5 15 9" orient="auto-start-reverse">
			<path d="M 0 -0 L -10 -3, -8 -0.5, -8 0.5, -10 3 Z" fill="#000000" stroke="#000000" stroke-linejoin="round" />
		</marker>
	</defs>
	<path d="M -8.99993 -206.795 L 8.99993 -206.795, 8.99993 206.795, -8.99993 206.795 Z" stroke="none" fill="#FFFFFF" transform="matrix(0.240563 -0.138889 0.138889 0.240563 108.964 104.674)" />
	<path d="M -8.99993 -206.795 L 8.99993 -206.795, 8.99993 206.795, -8.99993 206.795 Z" fill="none" stroke="#000000" stroke-width="3.5999999" stroke-linecap="round" stroke-linejoin="round" transform="matrix(0.240563 -0.138889 0.138889 0.240563 108.964 104.674)" />
	<path d="M 0 -180.521 L 0 180.521" fill="none" stroke="#000000" stroke-width="4.80000019" stroke-linecap="round" stroke-linejoin="round" stroke-dasharray="16.824, 11.976" transform="matrix(0.277778 0 0 0.277778 80.3196 104.674)" />
	<g transform="matrix(1 0 -0 1 125.951 201.959)">
		<svg width="75.040184" height="41.9571342">
			<defs />
			<path d="M 14.8519 14.0762 C 14.7764 14.4003, 14.6636 14.738, 14.5124 15.089, 14.3613 15.4405, 14.1804 15.7594, 13.9697 16.0462, 13.759 16.3336, 13.5123 16.5729, 13.2295 16.7647, 12.9466 16.9571, 12.6192 17.0533, 12.2476 17.0533, 11.9333 17.0533, 11.6631 16.9863, 11.4364 16.8518, 11.2102 16.7178, 11.039 16.5409, 10.9222 16.321, 10.806 16.1012, 10.7413 15.8447, 10.7287 15.551 L 10.7287 15.4777 C 10.7287 15.2155, 10.7825 14.9499, 10.889 14.6808, 11.0969 14.1438, 11.2886 13.6096, 11.465 13.0783, 11.6413 12.5471, 11.8016 12.0129, 11.9459 11.4747, 12.0466 11.1209, 12.1159 10.7763, 12.1537 10.4396, 12.1663 10.3549, 12.1726 10.2633, 12.1726 10.1648, 12.1726 9.95187, 12.1411 9.75034, 12.0781 9.56027, 11.9648 9.17612, 11.726 8.98375, 11.3608 8.98318, 10.7196 8.98375, 10.166 9.20531, 9.7005 9.64786, 9.23505 10.091, 8.82914 10.6784, 8.48335 11.4106, 8.28869 12.2419, 8.08087 13.0709, 7.86046 13.8982, 7.64061 14.726, 7.42363 15.5516, 7.20951 16.3754, 7.15341 16.6021, 7.03719 16.771, 6.86086 16.8838, 6.68452 16.9972, 6.51162 17.0533, 6.34159 17.0533, 6.15953 17.0533, 6.00839 16.9926, 5.88873 16.8701, 5.80744 16.7911, 5.76335 16.6811, 5.75648 16.5403, 5.75648 16.4739, 5.76278 16.4063, 5.77538 16.3388 L 7.03948 11.4747 C 7.14024 11.1209, 7.20951 10.7763, 7.2473 10.4396 L 7.2473 10.1648 C 7.2473 9.94557, 7.22211 9.74405, 7.17173 9.56027, 7.05894 9.17612, 6.82021 8.98375, 6.45495 8.98318, 5.81374 8.98375, 5.26012 9.20531, 4.79467 9.64786, 4.32922 10.091, 3.92045 10.6784, 3.56778 11.4106 L 2.27505 16.3754 C 2.21895 16.6021, 2.10387 16.771, 1.93097 16.8838, 1.75808 16.9972, 1.58346 17.0533, 1.40713 17.0533, 1.21877 17.0533, 1.07393 16.9926, 0.973165 16.8701, 0.891869 16.7911, 0.850648 16.6811, 0.850648 16.5403, 0.850648 16.4859, 0.856946 16.4189, 0.869541 16.3388 L 2.322 10.6686 C 2.42276 10.2725, 2.47314 9.93011, 2.47314 9.64271 L 2.47314 9.42287 C 2.44223 9.13032, 2.29452 8.98375, 2.03002 8.98318, 1.75292 8.98375, 1.52163 9.20703, 1.33614 9.65244, 1.15064 10.0984, 0.970303 10.6784, 0.79397 11.3923, 0.724696 11.5578, 0.608477 11.6431, 0.444739 11.6488 L 0.227758 11.6488 C 0.076615 11.6494, 0.00104374 11.5732, 0.00104374 11.4198 L 0.00104374 11.3557 C 0.076615 11.0694, 0.161919 10.7562, 0.256383 10.4173, 0.350847 10.0784, 0.476799 9.75779, 0.633667 9.4555, 0.791107 9.15322, 0.989196 8.89673, 1.22793 8.68605, 1.46724 8.47536, 1.76552 8.37002, 2.12391 8.36945, 2.64031 8.37002, 3.04622 8.52575, 3.34164 8.83719, 3.63705 9.14864, 3.79106 9.45092, 3.80365 9.74347, 4.06815 9.39596, 4.4357 9.07994, 4.90745 8.79597, 5.3792 8.512, 5.92652 8.37002, 6.54884 8.36945, 6.93299 8.37002, 7.28566 8.43872, 7.60626 8.57613, 7.92687 8.71353, 8.17534 8.93509, 8.3511 9.23967, 8.50224 9.50302, 8.58411 9.72286, 8.5967 9.8992, 8.8738 9.50874, 9.25738 9.15665, 9.74802 8.84177, 10.2387 8.52746, 10.814 8.37002, 11.4741 8.36945, 11.8451 8.37002, 12.1915 8.43872, 12.5121 8.57613, 12.8327 8.71353, 13.0846 8.93509, 13.2667 9.23967, 13.4556 9.55168, 13.5472 9.90263, 13.5403 10.2931 L 13.5403 10.3389 C 13.5277 10.7305, 13.4716 11.1244, 13.3709 11.5205, 13.226 12.077, 13.0594 12.6238, 12.8705 13.1608, 12.6821 13.6984, 12.484 14.2417, 12.2762 14.7907, 12.0873 15.2859, 11.9928 15.701, 11.9928 16.0365, 11.9928 16.3119, 12.1125 16.4493, 12.3518 16.4487, 12.5659 16.4493, 12.7589 16.3852, 12.9317 16.2569, 13.1046 16.1287, 13.2621 15.9563, 13.4035 15.7394, 13.5455 15.523, 13.6726 15.2665, 13.7859 14.9699, 13.8993 14.6739, 13.9995 14.3608, 14.0876 14.0304, 14.1254 13.8724, 14.2359 13.7928, 14.418 13.7923 L 14.6252 13.7923 C 14.6951 13.7928, 14.7672 13.814, 14.8422 13.8564, 14.8674 13.9119, 14.88 13.9577, 14.88 13.9938, 14.88 14.019, 14.8708 14.0465, 14.8519 14.0762 Z" stroke="none" fill="#000000" />
			<path d="M 21.679 17.9876 C 21.5725 18.3849, 21.3882 18.7513, 21.1271 19.0868, 20.866 19.4229, 20.5626 19.7097, 20.2168 19.9479, 19.871 20.1861, 19.4909 20.3727, 19.0758 20.5067, 18.6607 20.6412, 18.2457 20.7082, 17.83 20.7082, 17.5472 20.7082, 17.2455 20.6962, 16.9249 20.6715, 16.6043 20.6475, 16.3134 20.588, 16.0524 20.4929, 15.7913 20.3985, 15.5949 20.2502, 15.4627 20.0486, 15.3619 19.9267, 15.3087 19.771, 15.3024 19.5815, 15.3024 19.4899, 15.315 19.3834, 15.3402 19.2609, 15.4094 18.9861, 15.5509 18.7817, 15.7644 18.6471, 15.9785 18.5132, 16.1921 18.4456, 16.4056 18.4456, 16.626 18.4456, 16.8087 18.516, 16.9529 18.6563, 17.06 18.7605, 17.1132 18.8945, 17.1132 19.0594, 17.1132 19.1269, 17.1006 19.2059, 17.0754 19.2975, 17.0319 19.4933, 16.9501 19.6536, 16.8304 19.7784, 16.7113 19.9038, 16.6449 19.9662, 16.6323 19.9662, 16.6701 19.9845, 16.8167 20.0109, 17.0709 20.0441, 17.3256 20.0778, 17.6136 20.0944, 17.9342 20.0944, 18.1918 20.0944, 18.442 20.0383, 18.6842 19.925, 18.9264 19.8122, 19.1514 19.6548, 19.3586 19.4532, 19.5659 19.2517, 19.7485 19.0227, 19.9054 18.7662, 20.0628 18.5097, 20.179 18.2384, 20.2546 17.951 L 20.7544 15.9907 C 20.6101 16.1315, 20.3519 16.309, 19.9809 16.5226, 19.6099 16.7367, 19.2235 16.8426, 18.8205 16.8426, 18.3367 16.8426, 17.9205 16.7229, 17.5712 16.4813, 17.222 16.2403, 16.9529 15.93, 16.764 15.551, 16.5379 15.1119, 16.4182 14.6356, 16.4056 14.122 L 16.4056 14.0121 C 16.4056 13.5426, 16.4686 13.0663, 16.5945 12.5831, 16.7268 12.0461, 16.9312 11.5291, 17.2077 11.031, 17.4848 10.5335, 17.846 10.0675, 18.2926 9.63355, 18.6573 9.26772, 19.0706 8.96543, 19.5327 8.72727, 19.9952 8.4891, 20.4653 8.37002, 20.9433 8.36945, 21.3521 8.37002, 21.6922 8.4788, 21.9624 8.69521, 22.2326 8.91219, 22.4055 9.09367, 22.4805 9.23967 L 22.4336 9.41371 C 22.4902 9.18814, 22.6047 9.02039, 22.7776 8.91047, 22.9505 8.80055, 23.1252 8.74559, 23.3015 8.74502, 23.4841 8.74559, 23.6353 8.80341, 23.7543 8.91906, 23.8362 8.99921, 23.8769 9.10913, 23.8769 9.24883, 23.8769 9.31638, 23.8706 9.38394, 23.858 9.45035 Z M 22.1221 10.6412 C 22.1095 10.5255, 22.0906 10.4127, 22.0654 10.3028, 22.0403 10.1929, 22.0122 10.083, 21.9807 9.97248, 21.8799 9.68622, 21.7368 9.44978, 21.5513 9.26314, 21.3658 9.07707, 21.1317 8.98375, 20.8489 8.98318, 20.5849 8.98375, 20.3239 9.07879, 20.0662 9.26772, 19.8086 9.45722, 19.5727 9.69538, 19.3586 9.98164, 19.0695 10.379, 18.8497 10.802, 18.6985 11.2509, 18.5474 11.6997, 18.406 12.156, 18.2737 12.6198, 18.1604 13.0967, 18.063 13.561, 17.9812 14.0121, 17.9308 14.2325, 17.9056 14.4461, 17.9056 14.6533, 17.9056 14.8737, 17.9308 15.0844, 17.9812 15.2854, 18.0378 15.5607, 18.1449 15.7897, 18.3018 15.973, 18.4592 16.1562, 18.6699 16.2478, 18.9338 16.2472, 19.2235 16.2478, 19.5126 16.1487, 19.8017 15.9501, 20.0914 15.752, 20.3617 15.5121, 20.613 15.2304, 20.7956 15.0174, 20.9685 14.785, 21.1317 14.5342 L 22.1221 10.6412 Z" stroke="none" fill="#000000" />
			<rect />
		</svg>
	</g>
	<path d="M -255.386 0 L 255.386 0" fill="none" stroke="#000000" stroke-width="9.60000038" stroke-linecap="round" stroke-linejoin="round" transform="matrix(0.277778 0 0 0.277778 80.3196 50.3293)" />
	<path d="M 22.7357 -0 C 22.7357 12.5566, 12.5566 22.7357, -0 22.7357, -12.5566 22.7357, -22.7357 12.5566, -22.7357 -0, -22.7357 -12.5566, -12.5566 -22.7357, -0 -22.7357, 12.5566 -22.7357, 22.7357 -12.5566, 22.7357 -0 Z" stroke="none" fill="#FFFFFF" transform="matrix(0.277778 0 0 0.277778 137.909 154.449)" />
	<path d="M 22.7357 -0 C 22.7357 12.5566, 12.5566 22.7357, -0 22.7357, -12.5566 22.7357, -22.7357 12.5566, -22.7357 -0, -22.7357 -12.5566, -12.5566 -22.7357, -0 -22.7357, 12.5566 -22.7357, 22.7357 -12.5566, 22.7357 -0 Z" fill="none" stroke="#000000" stroke-width="3.5999999" stroke-linecap="round" stroke-linejoin="round" transform="matrix(0.277778 0 0 0.277778 137.909 154.449)" />
	<path d="M 15.1183 -0 C 15.1183 8.3496, 8.3496 15.1183, -0 15.1183, -8.3496 15.1183, -15.1183 8.3496, -15.1183 -0, -15.1183 -8.3496, -8.3496 -15.1183, -0 -15.1183, 8.3496 -15.1183, 15.1183 -8.3496, 15.1183 -0 Z" stroke="none" fill="#000000" transform="matrix(0.277778 0 0 0.277778 80.1448 54.8551)" />
	<path d="M 0 0 L 13.1902 22.5077, 21.5415 0 Z" stroke="none" fill="#000000" transform="matrix(0.277778 0 0 0.277778 80.3196 50.3293)" />
	<path d="M 0 0 L -13.1902 22.5066, -21.5411 0 Z" stroke="none" fill="#000000" transform="matrix(0.277778 0 0 0.277778 79.9459 50.2653)" />
	<path d="M 0 -85.9349 L 0 85.9371" fill="none" stroke="#000000" stroke-width="4.80000019" stroke-linecap="round" stroke-linejoin="round" marker-end="url(#CustomMarker-01)" transform="matrix(0.277778 0 0 0.277778 137.909 178.824)" />
	<path d="M 0 -85.9354 L 0 85.9382" fill="none" stroke="#000000" stroke-width="4.80000019" stroke-linecap="round" stroke-linejoin="round" marker-end="url(#CustomMarker-02)" transform="matrix(0.277778 0 0 0.277778 108.964 128.459)" />
	<g transform="matrix(1 0 -0 1 97.0053 151.98)">
		<svg width="75.040184" height="41.9571342">
			<defs />
			<path d="M 14.8519 14.0762 C 14.7764 14.4003, 14.6636 14.738, 14.5124 15.089, 14.3613 15.4405, 14.1804 15.7594, 13.9697 16.0462, 13.759 16.3336, 13.5123 16.5729, 13.2295 16.7647, 12.9466 16.9571, 12.6192 17.0533, 12.2476 17.0533, 11.9333 17.0533, 11.6631 16.9863, 11.4364 16.8518, 11.2102 16.7178, 11.039 16.5409, 10.9222 16.321, 10.806 16.1012, 10.7413 15.8447, 10.7287 15.551 L 10.7287 15.4777 C 10.7287 15.2155, 10.7825 14.9499, 10.889 14.6808, 11.0969 14.1438, 11.2886 13.6096, 11.465 13.0783, 11.6413 12.5471, 11.8016 12.0129, 11.9459 11.4747, 12.0466 11.1209, 12.1159 10.7763, 12.1537 10.4396, 12.1663 10.3549, 12.1726 10.2633, 12.1726 10.1648, 12.1726 9.95187, 12.1411 9.75034, 12.0781 9.56027, 11.9648 9.17612, 11.726 8.98375, 11.3608 8.98318, 10.7196 8.98375, 10.166 9.20531, 9.7005 9.64786, 9.23505 10.091, 8.82914 10.6784, 8.48335 11.4106, 8.28869 12.2419, 8.08087 13.0709, 7.86046 13.8982, 7.64061 14.726, 7.42363 15.5516, 7.20951 16.3754, 7.15341 16.6021, 7.03719 16.771, 6.86086 16.8838, 6.68452 16.9972, 6.51162 17.0533, 6.34159 17.0533, 6.15953 17.0533, 6.00839 16.9926, 5.88873 16.8701, 5.80744 16.7911, 5.76335 16.6811, 5.75648 16.5403, 5.75648 16.4739, 5.76278 16.4063, 5.77538 16.3388 L 7.03948 11.4747 C 7.14024 11.1209, 7.20951 10.7763, 7.2473 10.4396 L 7.2473 10.1648 C 7.2473 9.94557, 7.22211 9.74405, 7.17173 9.56027, 7.05894 9.17612, 6.82021 8.98375, 6.45495 8.98318, 5.81374 8.98375, 5.26012 9.20531, 4.79467 9.64786, 4.32922 10.091, 3.92045 10.6784, 3.56778 11.4106 L 2.27505 16.3754 C 2.21895 16.6021, 2.10387 16.771, 1.93097 16.8838, 1.75808 16.9972, 1.58346 17.0533, 1.40713 17.0533, 1.21877 17.0533, 1.07393 16.9926, 0.973165 16.8701, 0.891869 16.7911, 0.850648 16.6811, 0.850648 16.5403, 0.850648 16.4859, 0.856946 16.4189, 0.869541 16.3388 L 2.322 10.6686 C 2.42276 10.2725, 2.47314 9.93011, 2.47314 9.64271 L 2.47314 9.42287 C 2.44223 9.13032, 2.29452 8.98375, 2.03002 8.98318, 1.75292 8.98375, 1.52163 9.20703, 1.33614 9.65244, 1.15064 10.0984, 0.970303 10.6784, 0.79397 11.3923, 0.724696 11.5578, 0.608477 11.6431, 0.444739 11.6488 L 0.227758 11.6488 C 0.076615 11.6494, 0.00104374 11.5732, 0.00104374 11.4198 L 0.00104374 11.3557 C 0.076615 11.0694, 0.161919 10.7562, 0.256383 10.4173, 0.350847 10.0784, 0.476799 9.75779, 0.633667 9.4555, 0.791107 9.15322, 0.989196 8.89673, 1.22793 8.68605, 1.46724 8.47536, 1.76552 8.37002, 2.12391 8.36945, 2.64031 8.37002, 3.04622 8.52575, 3.34164 8.83719, 3.63705 9.14864, 3.79106 9.45092, 3.80365 9.74347, 4.06815 9.39596, 4.4357 9.07994, 4.90745 8.79597, 5.3792 8.512, 5.92652 8.37002, 6.54884 8.36945, 6.93299 8.37002, 7.28566 8.43872, 7.60626 8.57613, 7.92687 8.71353, 8.17534 8.93509, 8.3511 9.23967, 8.50224 9.50302, 8.58411 9.72286, 8.5967 9.8992, 8.8738 9.50874, 9.25738 9.15665, 9.74802 8.84177, 10.2387 8.52746, 10.814 8.37002, 11.4741 8.36945, 11.8451 8.37002, 12.1915 8.43872, 12.5121 8.57613, 12.8327 8.71353, 13.0846 8.93509, 13.2667 9.23967, 13.4556 9.55168, 13.5472 9.90263, 13.5403 10.2931 L 13.5403 10.3389 C 13.5277 10.7305, 13.4716 11.1244, 13.3709 11.5205, 13.226 12.077, 13.0594 12.6238, 12.8705 13.1608, 12.6821 13.6984, 12.484 14.2417, 12.2762 14.7907, 12.0873 15.2859, 11.9928 15.701, 11.9928 16.0365, 11.9928 16.3119, 12.1125 16.4493, 12.3518 16.4487, 12.5659 16.4493, 12.7589 16.3852, 12.9317 16.2569, 13.1046 16.1287, 13.2621 15.9563, 13.4035 15.7394, 13.5455 15.523, 13.6726 15.2665, 13.7859 14.9699, 13.8993 14.6739, 13.9995 14.3608, 14.0876 14.0304, 14.1254 13.8724, 14.2359 13.7928, 14.418 13.7923 L 14.6252 13.7923 C 14.6951 13.7928, 14.7672 13.814, 14.8422 13.8564, 14.8674 13.9119, 14.88 13.9577, 14.88 13.9938, 14.88 14.019, 14.8708 14.0465, 14.8519 14.0762 Z" stroke="none" fill="#000000" />
			<path d="M 21.679 17.9876 C 21.5725 18.3849, 21.3882 18.7513, 21.1271 19.0868, 20.866 19.4229, 20.5626 19.7097, 20.2168 19.9479, 19.871 20.1861, 19.4909 20.3727, 19.0758 20.5067, 18.6607 20.6412, 18.2457 20.7082, 17.83 20.7082, 17.5472 20.7082, 17.2455 20.6962, 16.9249 20.6715, 16.6043 20.6475, 16.3134 20.588, 16.0524 20.4929, 15.7913 20.3985, 15.5949 20.2502, 15.4627 20.0486, 15.3619 19.9267, 15.3087 19.771, 15.3024 19.5815, 15.3024 19.4899, 15.315 19.3834, 15.3402 19.2609, 15.4094 18.9861, 15.5509 18.7817, 15.7644 18.6471, 15.9785 18.5132, 16.1921 18.4456, 16.4056 18.4456, 16.626 18.4456, 16.8087 18.516, 16.9529 18.6563, 17.06 18.7605, 17.1132 18.8945, 17.1132 19.0594, 17.1132 19.1269, 17.1006 19.2059, 17.0754 19.2975, 17.0319 19.4933, 16.9501 19.6536, 16.8304 19.7784, 16.7113 19.9038, 16.6449 19.9662, 16.6323 19.9662, 16.6701 19.9845, 16.8167 20.0109, 17.0709 20.0441, 17.3256 20.0778, 17.6136 20.0944, 17.9342 20.0944, 18.1918 20.0944, 18.442 20.0383, 18.6842 19.925, 18.9264 19.8122, 19.1514 19.6548, 19.3586 19.4532, 19.5659 19.2517, 19.7485 19.0227, 19.9054 18.7662, 20.0628 18.5097, 20.179 18.2384, 20.2546 17.951 L 20.7544 15.9907 C 20.6101 16.1315, 20.3519 16.309, 19.9809 16.5226, 19.6099 16.7367, 19.2235 16.8426, 18.8205 16.8426, 18.3367 16.8426, 17.9205 16.7229, 17.5712 16.4813, 17.222 16.2403, 16.9529 15.93, 16.764 15.551, 16.5379 15.1119, 16.4182 14.6356, 16.4056 14.122 L 16.4056 14.0121 C 16.4056 13.5426, 16.4686 13.0663, 16.5945 12.5831, 16.7268 12.0461, 16.9312 11.5291, 17.2077 11.031, 17.4848 10.5335, 17.846 10.0675, 18.2926 9.63355, 18.6573 9.26772, 19.0706 8.96543, 19.5327 8.72727, 19.9952 8.4891, 20.4653 8.37002, 20.9433 8.36945, 21.3521 8.37002, 21.6922 8.4788, 21.9624 8.69521, 22.2326 8.91219, 22.4055 9.09367, 22.4805 9.23967 L 22.4336 9.41371 C 22.4902 9.18814, 22.6047 9.02039, 22.7776 8.91047, 22.9505 8.80055, 23.1252 8.74559, 23.3015 8.74502, 23.4841 8.74559, 23.6353 8.80341, 23.7543 8.91906, 23.8362 8.99921, 23.8769 9.10913, 23.8769 9.24883, 23.8769 9.31638, 23.8706 9.38394, 23.858 9.45035 Z M 22.1221 10.6412 C 22.1095 10.5255, 22.0906 10.4127, 22.0654 10.3028, 22.0403 10.1929, 22.0122 10.083, 21.9807 9.97248, 21.8799 9.68622, 21.7368 9.44978, 21.5513 9.26314, 21.3658 9.07707, 21.1317 8.98375, 20.8489 8.98318, 20.5849 8.98375, 20.3239 9.07879, 20.0662 9.26772, 19.8086 9.45722, 19.5727 9.69538, 19.3586 9.98164, 19.0695 10.379, 18.8497 10.802, 18.6985 11.2509, 18.5474 11.6997, 18.406 12.156, 18.2737 12.6198, 18.1604 13.0967, 18.063 13.561, 17.9812 14.0121, 17.9308 14.2325, 17.9056 14.4461, 17.9056 14.6533, 17.9056 14.8737, 17.9308 15.0844, 17.9812 15.2854, 18.0378 15.5607, 18.1449 15.7897, 18.3018 15.973, 18.4592 16.1562, 18.6699 16.2478, 18.9338 16.2472, 19.2235 16.2478, 19.5126 16.1487, 19.8017 15.9501, 20.0914 15.752, 20.3617 15.5121, 20.613 15.2304, 20.7956 15.0174, 20.9685 14.785, 21.1317 14.5342 L 22.1221 10.6412 Z" stroke="none" fill="#000000" />
			<rect />
		</svg>
	</g>
	<path d="M 0 -187.494 L 0 187.492" fill="none" stroke="#000000" stroke-opacity="0.494117618" stroke-width="4.80000019" stroke-linecap="round" stroke-linejoin="round" stroke-dasharray="16.824, 11.976" transform="matrix(0.277778 0 0 0.277778 137.909 102.737)" />
	<path d="M 0 -93.1592 L 0 93.1602" fill="none" stroke="#000000" stroke-opacity="0.494117618" stroke-width="4.80000019" stroke-linecap="round" stroke-linejoin="round" stroke-dasharray="16.824, 11.976" transform="matrix(0.277778 0 0 0.277778 108.964 76.5331)" />
	<path d="M -12.8474 0 L 12.8463 0" fill="none" stroke="#000000" stroke-opacity="0.494117618" stroke-width="3.5999999" stroke-linecap="round" stroke-linejoin="round" transform="matrix(0.277778 0 0 0.277778 141.99 58.4237)" />
	<path d="M 0 -12.8474 L 0 12.8469" fill="none" stroke="#000000" stroke-opacity="0.494117618" stroke-width="3.5999999" stroke-linecap="round" stroke-linejoin="round" transform="matrix(0.277778 0 0 0.277778 145.558 54.8551)" />
	<path d="M -12.8467 0 L 12.8472 0" fill="none" stroke="#000000" stroke-opacity="0.494117618" stroke-width="3.5999999" stroke-linecap="round" stroke-linejoin="round" transform="matrix(0.277778 0 0 0.277778 112.826 58.4237)" />
	<path d="M 0 -12.8474 L 0 12.8469" fill="none" stroke="#000000" stroke-opacity="0.494117618" stroke-width="3.5999999" stroke-linecap="round" stroke-linejoin="round" transform="matrix(0.277778 0 0 0.277778 116.395 54.8551)" />
	<g transform="matrix(1 0 -0 1 86.7631 2.72835)">
		<svg width="134.9879" height="117.042824">
			<defs />
			<polyline points="0.3752 22.8839 15.382 22.8839" fill="none" stroke="#000000" stroke-width="0.750400007" stroke-linecap="round" stroke-linejoin="round" />
			<path d="M 11.7865 16.5953 C 11.7304 16.7602, 11.6073 16.8426, 11.4184 16.8426 L 2.61608 16.8426 C 2.52162 16.8426, 2.45235 16.8151, 2.40826 16.7602, 2.36475 16.7178, 2.343 16.672, 2.34242 16.6228, 2.343 16.5867, 2.34929 16.55, 2.36132 16.5128 L 2.3991 16.3754 C 2.418 16.2964, 2.46208 16.2283, 2.53135 16.1699, 2.60063 16.1121, 2.67906 16.0829, 2.76665 16.0823, 3.06264 16.0829, 3.33974 16.0783, 3.59737 16.0691, 3.855 16.06, 4.05022 16.0279, 4.1819 15.9724, 4.29526 15.9117, 4.38342 15.7468, 4.4464 15.4777 L 7.11658 5.15423 C 7.14177 5.03859, 7.15437 4.94699, 7.15437 4.87943, 7.15437 4.7884, 7.13548 4.73058, 7.09769 4.70539, 7.01582 4.6573, 6.84579 4.62695, 6.58816 4.61436, 6.33053 4.60234, 6.05343 4.59604, 5.75745 4.59547, 5.66355 4.59604, 5.59428 4.56569, 5.5502 4.50386, 5.51241 4.4678, 5.49352 4.422, 5.49352 4.36646, 5.49352 4.33039, 5.50325 4.29662, 5.52157 4.2657 L 5.5502 4.11914 C 5.61947 3.93651, 5.74199 3.84491, 5.91832 3.84433, 6.65457 3.88155, 7.39311 3.89987, 8.13508 3.89929, 8.26103 3.89987, 8.39042 3.89357, 8.52209 3.88097, 9.38429 3.88155, 10.2614 3.86952, 11.1545 3.84433, 11.2427 3.84491, 11.3182 3.87525, 11.3812 3.93593, 11.4064 3.98517, 11.4184 4.03097, 11.4184 4.07334, 11.4184 4.11055, 11.4093 4.14433, 11.3904 4.1741 L 11.3623 4.3115 C 11.3434 4.39165, 11.3011 4.45864, 11.2346 4.5136, 11.1688 4.56856, 11.0887 4.59604, 10.9942 4.59547, 10.6484 4.59604, 10.3009 4.60234, 9.95165 4.61436, 9.60242 4.62695, 9.34651 4.66016, 9.18277 4.71455, 9.0259 4.77638, 8.91541 4.93496, 8.85243 5.19088 L 6.20114 15.5235 C 6.13816 15.7377, 6.10668 15.8968, 6.10668 15.9999 L 6.10668 16.0365 C 6.13187 16.0617, 6.3082 16.0766, 6.6351 16.0823 L 8.29595 16.0823 C 8.74251 16.0829, 9.18792 16.0188, 9.63105 15.8905, 10.0742 15.7623, 10.4784 15.5424, 10.843 15.2304, 11.2839 14.8829, 11.6377 14.4237, 11.9051 13.8524, 12.1724 13.2816, 12.422 12.6936, 12.6545 12.0885, 12.7049 11.9242, 12.8153 11.8417, 12.9848 11.8411 L 13.164 11.8411 C 13.3277 11.8417, 13.4096 11.9213, 13.4096 12.0793 L 13.4096 12.1526 Z" stroke="none" fill="#000000" />
			<path d="M 10.3813 36.924 L 10.3813 38.7464 C 10.3813 38.8546, 10.4015 38.9551, 10.4413 39.0476, 10.4817 39.1408, 10.5479 39.2019, 10.6399 39.2311, 10.7825 39.2973, 11.0136 39.3338, 11.334 39.3394, 11.6543 39.3456, 11.9781 39.3484, 12.3046 39.3478 L 12.3046 40.1198 C 11.3615 40.0839, 10.4368 40.066, 9.53073 40.066, 8.63697 40.066, 7.69663 40.0839, 6.71029 40.1198 L 6.71029 39.3478 C 7.04973 39.3484, 7.37683 39.3456, 7.69102 39.3394, 8.00521 39.3338, 8.23974 39.2973, 8.39347 39.2311, 8.48604 39.2019, 8.55393 39.1408, 8.59713 39.0476, 8.64033 38.9551, 8.66165 38.8546, 8.66165 38.7464 L 8.66165 36.924, 3.39106 36.924, 3.39106 36.1969, 9.56776 27.0135 C 9.64799 26.9063, 9.74955 26.8525, 9.87298 26.8519 L 10.0761 26.8519 C 10.2797 26.8525, 10.3813 26.954, 10.3813 27.1571 L 10.3813 36.1341, 12.3691 36.1341, 12.3691 36.924 Z M 8.75423 29.3744 L 4.2046 36.1341, 8.75423 36.1341 Z" stroke="none" fill="#000000" />
			<rect />
		</svg>
	</g>
	<g transform="matrix(1 0 -0 1 115.701 2.72835)">
		<svg width="134.9879" height="117.042824">
			<defs />
			<polyline points="0.3752 22.8839 15.382 22.8839" fill="none" stroke="#000000" stroke-width="0.750400007" stroke-linecap="round" stroke-linejoin="round" />
			<path d="M 11.7865 16.5953 C 11.7304 16.7602, 11.6073 16.8426, 11.4184 16.8426 L 2.61608 16.8426 C 2.52162 16.8426, 2.45235 16.8151, 2.40826 16.7602, 2.36475 16.7178, 2.343 16.672, 2.34242 16.6228, 2.343 16.5867, 2.34929 16.55, 2.36132 16.5128 L 2.3991 16.3754 C 2.418 16.2964, 2.46208 16.2283, 2.53135 16.1699, 2.60063 16.1121, 2.67906 16.0829, 2.76665 16.0823, 3.06264 16.0829, 3.33974 16.0783, 3.59737 16.0691, 3.855 16.06, 4.05022 16.0279, 4.1819 15.9724, 4.29526 15.9117, 4.38342 15.7468, 4.4464 15.4777 L 7.11658 5.15423 C 7.14177 5.03859, 7.15437 4.94699, 7.15437 4.87943, 7.15437 4.7884, 7.13548 4.73058, 7.09769 4.70539, 7.01582 4.6573, 6.84579 4.62695, 6.58816 4.61436, 6.33053 4.60234, 6.05343 4.59604, 5.75745 4.59547, 5.66355 4.59604, 5.59428 4.56569, 5.5502 4.50386, 5.51241 4.4678, 5.49352 4.422, 5.49352 4.36646, 5.49352 4.33039, 5.50325 4.29662, 5.52157 4.2657 L 5.5502 4.11914 C 5.61947 3.93651, 5.74199 3.84491, 5.91832 3.84433, 6.65457 3.88155, 7.39311 3.89987, 8.13508 3.89929, 8.26103 3.89987, 8.39042 3.89357, 8.52209 3.88097, 9.38429 3.88155, 10.2614 3.86952, 11.1545 3.84433, 11.2427 3.84491, 11.3182 3.87525, 11.3812 3.93593, 11.4064 3.98517, 11.4184 4.03097, 11.4184 4.07334, 11.4184 4.11055, 11.4093 4.14433, 11.3904 4.1741 L 11.3623 4.3115 C 11.3434 4.39165, 11.3011 4.45864, 11.2346 4.5136, 11.1688 4.56856, 11.0887 4.59604, 10.9942 4.59547, 10.6484 4.59604, 10.3009 4.60234, 9.95165 4.61436, 9.60242 4.62695, 9.34651 4.66016, 9.18277 4.71455, 9.0259 4.77638, 8.91541 4.93496, 8.85243 5.19088 L 6.20114 15.5235 C 6.13816 15.7377, 6.10668 15.8968, 6.10668 15.9999 L 6.10668 16.0365 C 6.13187 16.0617, 6.3082 16.0766, 6.6351 16.0823 L 8.29595 16.0823 C 8.74251 16.0829, 9.18792 16.0188, 9.63105 15.8905, 10.0742 15.7623, 10.4784 15.5424, 10.843 15.2304, 11.2839 14.8829, 11.6377 14.4237, 11.9051 13.8524, 12.1724 13.2816, 12.422 12.6936, 12.6545 12.0885, 12.7049 11.9242, 12.8153 11.8417, 12.9848 11.8411 L 13.164 11.8411 C 13.3277 11.8417, 13.4096 11.9213, 13.4096 12.0793 L 13.4096 12.1526 Z" stroke="none" fill="#000000" />
			<path d="M 10.3813 36.924 L 10.3813 38.7464 C 10.3813 38.8546, 10.4015 38.9551, 10.4413 39.0476, 10.4817 39.1408, 10.5479 39.2019, 10.6399 39.2311, 10.7825 39.2973, 11.0136 39.3338, 11.334 39.3394, 11.6543 39.3456, 11.9781 39.3484, 12.3046 39.3478 L 12.3046 40.1198 C 11.3615 40.0839, 10.4368 40.066, 9.53073 40.066, 8.63697 40.066, 7.69663 40.0839, 6.71029 40.1198 L 6.71029 39.3478 C 7.04973 39.3484, 7.37683 39.3456, 7.69102 39.3394, 8.00521 39.3338, 8.23974 39.2973, 8.39347 39.2311, 8.48604 39.2019, 8.55393 39.1408, 8.59713 39.0476, 8.64033 38.9551, 8.66165 38.8546, 8.66165 38.7464 L 8.66165 36.924, 3.39106 36.924, 3.39106 36.1969, 9.56776 27.0135 C 9.64799 26.9063, 9.74955 26.8525, 9.87298 26.8519 L 10.0761 26.8519 C 10.2797 26.8525, 10.3813 26.954, 10.3813 27.1571 L 10.3813 36.1341, 12.3691 36.1341, 12.3691 36.924 Z M 8.75423 29.3744 L 4.2046 36.1341, 8.75423 36.1341 Z" stroke="none" fill="#000000" />
			<rect />
		</svg>
	</g>
</svg>
