<?xml version="1.0"?>
<svg xmlns="http://www.w3.org/2000/svg" xmlns:xlink="http://www.w3.org/1999/xlink" width="248.333344" height="243.333344">
	<defs>
		<marker id="CustomMarker-01" markerUnits="strokeWidth" markerWidth="9" markerHeight="6" viewBox="-9 -3 9 6" orient="auto-start-reverse">
			<path d="M 0 -0 L -6 -2, -6 -0.5, -6 0.5, -6 2 Z" fill="#000000" stroke="#000000" stroke-linejoin="round" />
		</marker>
		<marker id="CustomMarker-02" markerUnits="strokeWidth" markerWidth="9" markerHeight="6" viewBox="-9 -3 9 6" orient="auto-start-reverse">
			<path d="M 0 -0 L -6 -2, -4.8 -0.5, -4.8 0.5, -6 2 Z" fill="#000000" stroke="#000000" stroke-linejoin="round" />
		</marker>
		<marker id="CustomMarker-03" markerUnits="strokeWidth" markerWidth="9" markerHeight="6" viewBox="-9 -3 9 6" orient="auto-start-reverse">
			<path d="M 0 -0 L -6 -2, -4.8 -0.5, -4.8 0.5, -6 2 Z" fill="#000000" stroke="#000000" stroke-linejoin="round" />
		</marker>
		<marker id="CustomMarker-04" markerUnits="strokeWidth" markerWidth="9" markerHeight="6" viewBox="-9 -3 9 6" orient="auto-start-reverse">
			<path d="M 0 -0 L -6 -2, -4.8 -0.5, -4.8 0.5, -6 2 Z" fill="#000000" stroke="#000000" stroke-linejoin="round" />
		</marker>
		<marker id="CustomMarker-05" markerUnits="strokeWidth" markerWidth="9" markerHeight="6" viewBox="-9 -3 9 6" orient="auto-start-reverse">
			<path d="M 0 -0 L -6 -2, -4.8 -0.5, -4.8 0.5, -6 2 Z" fill="#000000" stroke="#000000" stroke-linejoin="round" />
		</marker>
	</defs>
	<path d="M 109.888 190.968 C 76.4701 210.273, 38.574 220.435, -0.000114725 220.435" fill="none" stroke="#000000" stroke-width="1.92000008" stroke-linecap="round" stroke-linejoin="round" stroke-dasharray="6.7296, 4.7904" transform="matrix(0.555556 0 -0 0.555556 123.889 27.8191)" />
	<path d="M -184.388 -6.54245 L 184.388 -6.54245, 184.388 6.54245, -184.388 6.54245 Z" fill="none" stroke="#000000" stroke-width="2.4000001" stroke-linecap="round" stroke-linejoin="round" transform="matrix(0.277778 0.481125 -0.481125 0.277778 174.375 115.26)" />
	<path d="M 43.8589 76.0701 L 33.5187 81.1588 C 22.9234 85.5347, 11.5377 87.8081, -4.81248e-005 87.8081" fill="none" stroke="#000000" stroke-width="2.4000001" stroke-linecap="round" stroke-linejoin="round" marker-start="url(#CustomMarker-01)" transform="matrix(0.555556 0 -0 0.555556 123.889 27.5783)" />
	<path d="M -193.275 0 L 193.276 0" fill="none" stroke="#000000" stroke-width="2.4000001" stroke-linecap="round" stroke-linejoin="round" transform="matrix(0.555556 0 0 0.555556 123.889 20.752)" />
	<path d="M -6.61096 6.61108 L 6.61115 -6.61136" fill="none" stroke="#000000" stroke-width="1.79999995" stroke-linecap="round" stroke-linejoin="round" transform="matrix(0.555556 0 0 0.555556 26.2774 16.2016)" />
	<path d="M -6.61111 6.61108 L 6.61093 -6.61136" fill="none" stroke="#000000" stroke-width="1.79999995" stroke-linecap="round" stroke-linejoin="round" transform="matrix(0.555556 0 0 0.555556 36.1945 16.2016)" />
	<path d="M -6.61093 6.61108 L 6.61093 -6.61136" fill="none" stroke="#000000" stroke-width="1.79999995" stroke-linecap="round" stroke-linejoin="round" transform="matrix(0.555556 0 0 0.555556 46.1117 16.2016)" />
	<path d="M -6.61136 6.61108 L 6.61096 -6.61136" fill="none" stroke="#000000" stroke-width="1.79999995" stroke-linecap="round" stroke-linejoin="round" transform="matrix(0.555556 0 0 0.555556 75.8635 16.2016)" />
	<path d="M -6.61075 6.61108 L 6.61099 -6.61136" fill="none" stroke="#000000" stroke-width="1.79999995" stroke-linecap="round" stroke-linejoin="round" transform="matrix(0.555556 0 0 0.555556 85.7805 16.2016)" />
	<path d="M -6.61102 6.61108 L 6.6109 -6.61136" fill="none" stroke="#000000" stroke-width="1.79999995" stroke-linecap="round" stroke-linejoin="round" transform="matrix(0.555556 0 0 0.555556 135.367 16.2016)" />
	<path d="M -6.61145 6.61108 L 6.61066 -6.61136" fill="none" stroke="#000000" stroke-width="1.79999995" stroke-linecap="round" stroke-linejoin="round" transform="matrix(0.555556 0 0 0.555556 165.119 16.2016)" />
	<path d="M -6.6109 6.61108 L 6.61102 -6.61136" fill="none" stroke="#000000" stroke-width="1.79999995" stroke-linecap="round" stroke-linejoin="round" transform="matrix(0.555556 0 0 0.555556 214.704 16.2016)" />
	<path d="M -6.61102 6.61108 L 6.61139 -6.61136" fill="none" stroke="#000000" stroke-width="1.79999995" stroke-linecap="round" stroke-linejoin="round" transform="matrix(0.555556 0 0 0.555556 194.87 16.2016)" />
	<path d="M -6.61111 6.61108 L 6.61096 -6.61136" fill="none" stroke="#000000" stroke-width="1.79999995" stroke-linecap="round" stroke-linejoin="round" transform="matrix(0.555556 0 0 0.555556 95.698 16.2016)" />
	<path d="M -6.61139 6.61108 L 6.61078 -6.61136" fill="none" stroke="#000000" stroke-width="1.79999995" stroke-linecap="round" stroke-linejoin="round" transform="matrix(0.555556 0 0 0.555556 155.201 16.2016)" />
	<path d="M -6.61182 6.61108 L 6.6109 -6.61136" fill="none" stroke="#000000" stroke-width="1.79999995" stroke-linecap="round" stroke-linejoin="round" transform="matrix(0.555556 0 0 0.555556 184.953 16.2016)" />
	<path d="M -6.61102 6.61108 L 6.61096 -6.61136" fill="none" stroke="#000000" stroke-width="1.79999995" stroke-linecap="round" stroke-linejoin="round" transform="matrix(0.555556 0 0 0.555556 204.787 16.2016)" />
	<path d="M -6.61182 6.61108 L 6.61096 -6.61136" fill="none" stroke="#000000" stroke-width="1.79999995" stroke-linecap="round" stroke-linejoin="round" transform="matrix(0.555556 0 0 0.555556 175.035 16.2016)" />
	<path d="M -6.61102 6.61108 L 6.61102 -6.61136" fill="none" stroke="#000000" stroke-width="1.79999995" stroke-linecap="round" stroke-linejoin="round" transform="matrix(0.555556 0 0 0.555556 56.0289 16.2016)" />
	<path d="M -6.61102 6.61108 L 6.61096 -6.61136" fill="none" stroke="#000000" stroke-width="1.79999995" stroke-linecap="round" stroke-linejoin="round" transform="matrix(0.555556 0 0 0.555556 65.9461 16.2016)" />
	<path d="M -6.61063 6.61108 L 6.61127 -6.61136" fill="none" stroke="#000000" stroke-width="1.79999995" stroke-linecap="round" stroke-linejoin="round" transform="matrix(0.555556 0 0 0.555556 105.615 16.2016)" />
	<path d="M -6.61099 6.61108 L 6.61105 -6.61136" fill="none" stroke="#000000" stroke-width="1.79999995" stroke-linecap="round" stroke-linejoin="round" transform="matrix(0.555556 0 0 0.555556 115.532 16.2016)" />
	<path d="M -6.61102 6.61108 L 6.61099 -6.61136" fill="none" stroke="#000000" stroke-width="1.79999995" stroke-linecap="round" stroke-linejoin="round" transform="matrix(0.555556 0 0 0.555556 125.449 16.2016)" />
	<path d="M -6.61145 6.61108 L 6.61035 -6.61136" fill="none" stroke="#000000" stroke-width="1.79999995" stroke-linecap="round" stroke-linejoin="round" transform="matrix(0.555556 0 0 0.555556 145.284 16.2016)" />
	<path d="M -6.61108 6.61108 L 6.61096 -6.61136" fill="none" stroke="#000000" stroke-width="1.79999995" stroke-linecap="round" stroke-linejoin="round" transform="matrix(0.555556 0 0 0.555556 224.621 16.2016)" />
	<path d="M -184.388 -6.5425 L 184.388 -6.5425, 184.388 6.5425, -184.388 6.5425 Z" fill="none" stroke="#000000" stroke-opacity="0.403921545" stroke-width="2.4000001" stroke-linecap="round" stroke-linejoin="round" transform="matrix(-2.42841e-008 0.555556 -0.555556 -2.42841e-008 123.889 129.661)" />
	<path d="M 0 -10.7693 L 40.1039 0, 0 10.7693 Z" fill="none" stroke="#000000" stroke-opacity="0.403921545" stroke-width="2.4000001" stroke-linecap="round" stroke-linejoin="round" transform="matrix(0.555556 0 0 0.555556 116.462 228.906)" />
	<ellipse cx="487.99990248680115" cy="675.50942397117615" rx="3.6000001430511475" ry="3.6000001430511475" stroke="none" fill="#000000" fill-opacity="0.403921545" transform="matrix(0.555556 0 0 0.555556 -147.222 -225)" />
	<path d="M 11.4914 -0 C 11.4914 6.34651, 6.34651 11.4914, -0 11.4914, -6.34651 11.4914, -11.4914 6.34651, -11.4914 -0, -11.4914 -6.34651, -6.34651 -11.4914, -0 -11.4914, 6.34651 -11.4914, 11.4914 -6.34651, 11.4914 -0 Z" stroke="none" fill="#FFFFFF" transform="matrix(0.555556 0 0 0.555556 123.889 27.2231)" />
	<path d="M 11.4914 -0 C 11.4914 6.34651, 6.34651 11.4914, -0 11.4914, -6.34651 11.4914, -11.4914 6.34651, -11.4914 -0, -11.4914 -6.34651, -6.34651 -11.4914, -0 -11.4914, 6.34651 -11.4914, 11.4914 -6.34651, 11.4914 -0 Z" fill="none" stroke="#000000" stroke-width="2.4000001" stroke-linecap="round" stroke-linejoin="round" transform="matrix(0.555556 0 0 0.555556 123.889 27.2231)" />
	<path d="M -65.9417 0 L 65.9417 0" fill="none" stroke="#000000" stroke-width="1.92000008" stroke-linecap="round" stroke-linejoin="round" stroke-dasharray="6.7296, 4.7904" transform="matrix(0.555556 0 0 0.555556 88.9904 150.283)" />
	<path d="M -119.337 0 L 119.337 0" fill="none" stroke="#000000" stroke-width="1.92000008" stroke-linecap="round" stroke-linejoin="round" stroke-dasharray="6.7296, 4.7904" transform="matrix(0.555556 0 0 0.555556 118.654 133.119)" />
	<path d="M -5.38473 -9.32649 L 34.7311 -20.0523, 5.38473 9.32648 Z" fill="none" stroke="#000000" stroke-width="2.4000001" stroke-linecap="round" stroke-linejoin="round" transform="matrix(0.555556 0 0 0.555556 217.566 204.923)" />
	<ellipse cx="597.43410658836365" cy="644.61501479148865" rx="3.6000001430511475" ry="3.6000001430511475" stroke="none" fill="#000000" transform="matrix(0.555556 0 0 0.555556 -147.222 -225)" />
	<path d="M -49.9266 0.184539 L -15.4472 0.184539" fill="none" stroke="#000000" stroke-width="2.4000001" stroke-linecap="round" stroke-linejoin="round" marker-end="url(#CustomMarker-02)" transform="matrix(4.19433e-008 0.555556 -0.555556 4.19433e-008 57.0919 141.701)" />
	<path d="M 49.9266 0.184539 L 15.4472 0.184539" fill="none" stroke="#000000" stroke-width="2.4000001" stroke-linecap="round" stroke-linejoin="round" marker-end="url(#CustomMarker-03)" transform="matrix(4.19433e-008 0.555556 -0.555556 4.19433e-008 57.0919 141.701)" />
	<g transform="matrix(1 0 -0 1 19.7335 130.912)">
		<svg width="77.9989777" height="47.9999886">
			<defs />
			<path d="M 14.4412 16.4853 C 14.4606 16.5289, 14.4698 16.5684, 14.4698 16.6044, 14.4698 16.6537, 14.4572 16.6903, 14.432 16.7143, 14.3942 16.7876, 14.3221 16.8243, 14.215 16.8243 L 0.253805 16.8243 C 0.153616 16.8243, 0.0814795 16.7876, 0.0368237 16.7143, 0.0122058 16.6903, -0.000389338 16.6537, -0.000389338 16.6044, -0.000389338 16.5684, 0.00934333 16.5289, 0.0276636 16.4853 L 6.71572 3.45044 C 6.79759 3.27411, 6.94244 3.18824, 7.14968 3.19396 L 7.31915 3.19396 C 7.51437 3.19453, 7.65922 3.27697, 7.75311 3.44128 L 14.4412 16.4853 Z M 6.6682 5.24584 L 1.49901 15.3128, 11.8282 15.3128 Z" stroke="none" fill="#000000" />
			<path d="M 24.549 14.0579 C 24.4608 14.3945, 24.3446 14.738, 24.1998 15.089, 24.0555 15.4405, 23.8729 15.7594, 23.653 16.0462, 23.4332 16.3336, 23.1813 16.5729, 22.8979 16.7647, 22.6151 16.9571, 22.291 17.0533, 21.9263 17.0533, 21.612 17.0533, 21.3429 16.9863, 21.1197 16.8518, 20.8964 16.7178, 20.7235 16.5409, 20.601 16.321, 20.4784 16.1012, 20.4166 15.8567, 20.4166 15.5877, 20.404 15.5762, 20.3977 15.5453, 20.3977 15.4961, 20.3977 15.2338, 20.4544 14.959, 20.5678 14.6716, 20.775 14.1409, 20.9702 13.6096, 21.1523 13.0783, 21.3349 12.5471, 21.4952 12.0158, 21.6338 11.4839, 21.7219 11.1244, 21.7878 10.7763, 21.8319 10.4396, 21.8445 10.3423, 21.8507 10.2387, 21.8507 10.1282, 21.8507 9.92095, 21.8256 9.73202, 21.7752 9.56027, 21.6618 9.17612, 21.4231 8.98375, 21.0578 8.98318, 20.4166 8.98375, 19.8664 9.20245, 19.4073 9.6387, 18.9481 10.0755, 18.5388 10.6601, 18.1804 11.3923 L 16.8974 16.3754 C 16.8413 16.6021, 16.7262 16.771, 16.5533 16.8838, 16.3804 16.9972, 16.2058 17.0533, 16.0295 17.0533, 15.8474 17.0533, 15.6963 16.9926, 15.5766 16.8701, 15.4947 16.7911, 15.4535 16.6811, 15.4535 16.5403, 15.4535 16.4739, 15.4598 16.4063, 15.4724 16.3388 L 18.3126 5.32828 C 18.363 5.12733, 18.3945 4.97447, 18.4071 4.87027 L 18.4071 4.84279 C 18.4071 4.7884, 18.3945 4.7489, 18.3693 4.72371, 18.2937 4.67562, 18.1523 4.64184, 17.9445 4.62352, 17.7373 4.6052, 17.498 4.59604, 17.2277 4.59547, 17.1333 4.59604, 17.064 4.56569, 17.0199 4.50386, 16.9821 4.4678, 16.9632 4.422, 16.9632 4.36646, 16.9632 4.33039, 16.973 4.29662, 16.9919 4.2657 L 17.0199 4.11914 C 17.0703 3.97315, 17.1899 3.88155, 17.3783 3.84433 L 19.8412 3.64281, 19.8785 3.64281 C 19.954 3.64338, 20.017 3.668, 20.0674 3.71609, 20.1052 3.77162, 20.1241 3.82029, 20.1241 3.86265, 20.1241 3.89987, 20.1149 3.93364, 20.096 3.96342 L 18.6899 9.42287 C 18.8663 9.21562, 19.1777 8.98833, 19.6243 8.74101, 20.0708 8.49368, 20.5866 8.37002, 21.1712 8.36945, 21.5427 8.37002, 21.8891 8.43872, 22.2097 8.57613, 22.5303 8.71353, 22.7788 8.93509, 22.9545 9.23967, 23.1435 9.55168, 23.2374 9.90263, 23.2374 10.2931 L 23.2374 10.3389 C 23.2248 10.7305, 23.1687 11.1244, 23.0679 11.5205, 22.9236 12.077, 22.7536 12.6238, 22.5584 13.1608, 22.3637 13.6984, 22.1622 14.2445, 21.9544 14.7999, 21.766 15.2768, 21.6716 15.677, 21.6716 15.9999, 21.6716 15.9518, 21.6779 15.9272, 21.6904 15.9266, 21.6904 16.2752, 21.8067 16.4493, 22.0391 16.4487, 22.2532 16.4493, 22.4439 16.3852, 22.6105 16.2569, 22.7771 16.1287, 22.9328 15.9563, 23.0771 15.7394, 23.2219 15.523, 23.3496 15.2665, 23.4595 14.9699, 23.5694 14.6739, 23.6719 14.3608, 23.7658 14.0304, 23.8036 13.8724, 23.9106 13.7928, 24.087 13.7923 L 24.304 13.7923 C 24.4677 13.7928, 24.549 13.8598, 24.549 13.9938 L 24.549 14.0579 Z" stroke="none" fill="#000000" />
			<rect />
		</svg>
	</g>
	<g transform="matrix(1 0 -0 1 134.638 78.8354)">
		<svg width="30.0150681" height="47.9999886">
			<defs />
			<path d="M 7.9765 5.50232 C 8.12764 6.08285, 8.20264 6.67539, 8.20264 7.27939, 8.20264 7.46947, 8.19634 7.65267, 8.18374 7.829, 8.12134 8.63567, 7.98623 9.44462, 7.77841 10.2564, 7.55227 11.0751, 7.26601 11.8864, 6.92022 12.689, 6.57442 13.4923, 6.11469 14.2629, 5.54218 15.0014, 5.34753 15.2522, 5.13169 15.5001, 4.89582 15.7439, 4.65995 15.9884, 4.4069 16.2065, 4.13667 16.3989, 3.86645 16.5913, 3.58477 16.7487, 3.29222 16.8701, 2.99967 16.9926, 2.6928 17.0533, 2.3722 17.0533, 2.0453 17.0533, 1.76362 16.9909, 1.52775 16.8655, 1.29187 16.7407, 1.0892 16.5792, 0.919168 16.3806, 0.749705 16.1825, 0.609441 15.9609, 0.499519 15.7165, 0.389597 15.4726, 0.299713 15.2218, 0.230439 14.9648, 0.0735714 14.3974, -0.00543487 13.8112, -0.00543487 13.206, -0.00543487 13.0114, 0.00716031 12.819, 0.0323508 12.6289, 0.0827316 11.8354, 0.217844 11.0328, 0.437688 10.2198, 0.645509 9.40226, 0.925466 8.5933, 1.27756 7.79293, 1.63023 6.99314, 2.09854 6.22025, 2.68364 5.47484, 2.87887 5.22523, 3.09299 4.97618, 3.32543 4.72886, 3.55787 4.48154, 3.80633 4.26169, 4.07026 4.06933, 4.33476 3.87697, 4.613 3.7201, 4.90555 3.59758, 5.19811 3.47564, 5.50783 3.41438, 5.83474 3.41381, 6.16221 3.41438, 6.44217 3.47735, 6.67461 3.60216, 6.90705 3.72754, 7.11315 3.88784, 7.29235 4.08307, 7.47211 4.27887, 7.61352 4.50157, 7.71715 4.75176, 7.82135 5.00252, 7.90779 5.25271, 7.9765 5.50232 Z M 6.70266 5.71301 C 6.67747 5.47541, 6.64598 5.25271, 6.6082 5.04489, 6.57041 4.83764, 6.51545 4.6573, 6.44332 4.50444, 6.37118 4.35215, 6.27843 4.23421, 6.16508 4.15177, 6.05172 4.06933, 5.90745 4.02811, 5.73111 4.02754, 5.36642 4.02811, 5.02979 4.19757, 4.72178 4.5365, 4.41377 4.87542, 4.11492 5.28019, 3.82523 5.74965, 3.41016 6.42177, 3.08955 7.11222, 2.86284 7.82041, 2.63613 8.52918, 2.44147 9.21276, 2.27773 9.87172 L 6.11756 9.87172 C 6.28759 9.18241, 6.44503 8.47994, 6.5893 7.76488, 6.69007 7.28283, 6.74045 6.8065, 6.74045 6.3359, 6.74045 6.12865, 6.72785 5.9214, 6.70266 5.71301 Z M 2.07965 10.6137 C 1.91018 11.3041, 1.7619 12.0003, 1.63595 12.7022, 1.53576 13.2094, 1.48538 13.7167, 1.48538 14.2228, 1.48538 14.4129, 1.49168 14.5961, 1.50427 14.7724, 1.51687 15.0111, 1.54549 15.2344, 1.589 15.4417, 1.63309 15.6495, 1.69148 15.8281, 1.76362 15.9775, 1.83576 16.1275, 1.93194 16.2432, 2.05159 16.3256, 2.17125 16.4081, 2.31609 16.4493, 2.48555 16.4487, 2.84395 16.4493, 3.17886 16.2815, 3.49031 15.9455, 3.80175 15.61, 4.09545 15.2064, 4.37255 14.7358, 4.78762 14.0522, 5.10822 13.3594, 5.33494 12.657, 5.56165 11.9551, 5.7563 11.2738, 5.91947 10.6137 Z" stroke="none" fill="#000000" />
			<rect />
		</svg>
	</g>
	<path d="M -101.921 0.184745 L 101.921 0.184745" fill="none" stroke="#000000" stroke-width="2.4000001" stroke-linecap="round" stroke-linejoin="round" marker-start="url(#CustomMarker-04)" marker-end="url(#CustomMarker-05)" transform="matrix(4.19433e-008 0.555556 -0.555556 4.19433e-008 85.978 76.4969)" />
	<g transform="matrix(1 0 -0 1 167.682 59.5462)">
		<svg width="41.9788857" height="47.9999886">
			<defs />
			<path d="M 12.9573 14.9922 C 12.8881 15.2676, 12.7844 15.5378, 12.6459 15.8035, 12.5073 16.0691, 12.3379 16.309, 12.1364 16.5226, 11.9354 16.7367, 11.7104 16.9113, 11.4619 17.0487, 11.2135 17.1861, 10.945 17.2548, 10.6553 17.2548, 9.74383 17.2548, 9.05797 17.0138, 8.59881 16.5311, 8.28508 16.202, 8.12764 15.7869, 8.12764 15.2854, 8.12764 15.0295, 8.16886 14.7518, 8.25016 14.4518 L 8.67439 12.8121 C 8.72477 12.6049, 8.74996 12.4097, 8.74996 12.2259, 8.74996 12.1348, 8.74366 12.0404, 8.73106 11.9419, 8.69328 11.686, 8.60569 11.4604, 8.46714 11.2646, 8.32859 11.0694, 8.15111 10.9154, 7.93413 10.802, 7.71715 10.6893, 7.46067 10.6326, 7.16525 10.632 L 5.03322 10.632, 3.77886 15.5144 C 3.75366 15.6312, 3.74107 15.7256, 3.74107 15.7983, 3.74107 15.8905, 3.75996 15.9518, 3.79775 15.9815, 3.87962 16.0308, 4.04965 16.06, 4.30728 16.0691, 4.56491 16.0783, 4.84143 16.0829, 5.13685 16.0823, 5.31318 16.0829, 5.40135 16.1562, 5.40135 16.3021, 5.40135 16.3394, 5.39505 16.3789, 5.38246 16.4212 L 5.34467 16.5678 C 5.27597 16.751, 5.15288 16.8426, 4.97655 16.8426, 4.20366 16.806, 3.4239 16.7876, 2.63727 16.7876, 1.85179 16.7876, 1.0623 16.806, 0.269943 16.8426, 0.10048 16.8426, 0.0094513 16.7636, -0.00371642 16.6044 L -0.00371642 16.5311, 0.0340692 16.3754 C 0.0844501 16.1745, 0.206967 16.0766, 0.40162 16.0823, 0.697608 16.0829, 0.977565 16.0783, 1.24149 16.0691, 1.50599 16.06, 1.70065 16.0279, 1.82602 15.9724, 1.94568 15.906, 2.03671 15.7411, 2.09968 15.4777 L 4.7504 5.15423 C 4.78819 5.02027, 4.80708 4.91664, 4.80708 4.84279, 4.80708 4.77008, 4.79163 4.72714, 4.75956 4.71455, 4.67197 4.66016, 4.50079 4.62695, 4.24602 4.61436, 3.99126 4.60234, 3.71302 4.59604, 3.41073 4.59547, 3.23497 4.59604, 3.1468 4.5136, 3.1468 4.34814 L 3.1468 4.27486, 3.20348 4.11914 C 3.24127 3.93651, 3.35749 3.84491, 3.55214 3.84433 L 8.86331 3.84433 C 9.46101 3.84491, 10.0301 3.92448, 10.5705 4.08307, 11.1116 4.24223, 11.5833 4.50444, 11.9852 4.87027, 12.319 5.16397, 12.5612 5.52408, 12.7117 5.95117, 12.8062 6.18361, 12.8566 6.42521, 12.8629 6.67482, 12.8629 6.90154, 12.8285 7.12424, 12.7592 7.34351, 12.6396 7.83244, 12.3911 8.27556, 12.0138 8.67231, 11.6366 9.06963, 11.2123 9.40798, 10.7406 9.68851, 10.4137 9.87859, 10.0822 10.036, 9.74555 10.1608, 9.40892 10.2862, 9.16846 10.3641, 9.02362 10.3938, 9.38201 10.5347, 9.72151 10.8095, 10.0421 11.2183, 10.3129 11.5732, 10.448 11.9974, 10.448 12.4915, 10.448 12.5957, 10.4417 12.6999, 10.4291 12.803 L 10.2499 14.4518 C 10.1996 14.88, 10.1744 15.2522, 10.1744 15.5693, 10.1744 15.7777, 10.187 15.9609, 10.2121 16.1189, 10.2562 16.4796, 10.4446 16.66, 10.7778 16.6594, 11.0801 16.66, 11.3566 16.4968, 11.6079 16.1699, 11.8598 15.8436, 12.0453 15.4388, 12.1644 14.9556, 12.2343 14.773, 12.3568 14.6842, 12.5325 14.69 L 12.6837 14.69 C 12.8537 14.6905, 12.9447 14.7701, 12.9573 14.9281 L 12.9573 14.9922 Z M 10.7406 7.28855 C 10.8413 6.92272, 10.8974 6.55631, 10.91 6.18933 L 10.91 6.13437 C 10.91 5.8235, 10.8127 5.55499, 10.6175 5.32828, 10.385 5.06034, 10.0822 4.87084, 9.70777 4.76092, 9.33334 4.651, 8.92286 4.59604, 8.4763 4.59547 L 7.22193 4.59547 C 6.90132 4.59604, 6.70953 4.62066, 6.64656 4.66932, 6.58358 4.71856, 6.51774 4.89203, 6.44847 5.19088 L 5.20326 10.0366, 7.02384 10.0366 C 7.4704 10.0372, 7.91066 9.98221, 8.34462 9.87229, 8.77858 9.76237, 9.19022 9.56714, 9.5801 9.28547, 9.9133 9.04787, 10.1652 8.74902, 10.3347 8.38834, 10.5047 8.02823, 10.6398 7.66183, 10.7406 7.28855 Z" stroke="none" fill="#000000" />
			<rect />
		</svg>
	</g>
	<g transform="matrix(1 0 -0 1 21.7399 67.8429)">
		<svg width="162.002975" height="47.9999886">
			<defs />
			<path d="M 12.9636 14.9922 C 12.8949 15.2676, 12.7913 15.5378, 12.6528 15.8035, 12.5142 16.0691, 12.3448 16.309, 12.1432 16.5226, 11.9417 16.7367, 11.7167 16.9113, 11.4682 17.0487, 11.2198 17.1861, 10.9513 17.2548, 10.6616 17.2548, 9.74957 17.2548, 9.0637 17.0138, 8.60455 16.5311, 8.29024 16.202, 8.1328 15.7869, 8.1328 15.2854, 8.1328 15.0295, 8.17402 14.7518, 8.25589 14.4518 L 8.68012 12.8121 C 8.7305 12.6049, 8.75569 12.4097, 8.75569 12.2259, 8.75569 12.1348, 8.74939 12.0404, 8.7368 11.9419, 8.69901 11.686, 8.61142 11.4604, 8.47287 11.2646, 8.33432 11.0694, 8.15685 10.9154, 7.93986 10.802, 7.72288 10.6893, 7.4664 10.6326, 7.17041 10.632 L 5.03838 10.632, 3.78344 15.5144 C 3.75825 15.6312, 3.74566 15.7256, 3.74566 15.7983, 3.74566 15.8905, 3.76455 15.9518, 3.80234 15.9815, 3.88421 16.0308, 4.05424 16.06, 4.31187 16.0691, 4.57007 16.0783, 4.84659 16.0829, 5.14201 16.0823, 5.31834 16.0829, 5.40651 16.1562, 5.40651 16.3021, 5.40651 16.3394, 5.40021 16.3789, 5.38762 16.4212 L 5.34983 16.5678 C 5.28113 16.751, 5.15804 16.8426, 4.98171 16.8426, 4.20825 16.806, 3.42849 16.7876, 2.64186 16.7876, 1.8558 16.7876, 1.06631 16.806, 0.273959 16.8426, 0.104496 16.8426, 0.0134672 16.7636, 0.000299431 16.6044 L 0.000299431 16.5311, 0.0380851 16.3754 C 0.0884659 16.1745, 0.210983 16.0766, 0.405636 16.0823, 0.701624 16.0829, 0.981581 16.0783, 1.24551 16.0691, 1.51001 16.06, 1.70466 16.0279, 1.83061 15.9724, 1.95027 15.906, 2.0413 15.7411, 2.10427 15.4777 L 4.75557 5.15423 C 4.79335 5.02027, 4.81167 4.91664, 4.81167 4.84279, 4.81167 4.77008, 4.79621 4.72714, 4.76473 4.71455, 4.67656 4.66016, 4.50538 4.62695, 4.25061 4.61436, 3.99584 4.60234, 3.71761 4.59604, 3.41532 4.59547, 3.23956 4.59604, 3.15139 4.5136, 3.15139 4.34814 L 3.15139 4.27486, 3.20807 4.11914 C 3.24586 3.93651, 3.36265 3.84491, 3.5573 3.84433 L 8.86905 3.84433 C 9.46675 3.84491, 10.0358 3.92448, 10.5768 4.08307, 11.1179 4.24223, 11.5896 4.50444, 11.9921 4.87027, 12.3253 5.16397, 12.5675 5.52408, 12.7186 5.95117, 12.8131 6.18361, 12.8634 6.42521, 12.8692 6.67482, 12.8692 6.90154, 12.8348 7.12424, 12.7655 7.34351, 12.6465 7.83244, 12.398 8.27556, 12.0201 8.67231, 11.6429 9.06963, 11.2181 9.40798, 10.7463 9.68851, 10.4194 9.87859, 10.0879 10.036, 9.75129 10.1608, 9.41465 10.2862, 9.1742 10.3641, 9.02935 10.3938, 9.38774 10.5347, 9.72781 10.8095, 10.0484 11.2183, 10.3192 11.5732, 10.4543 11.9974, 10.4543 12.4915, 10.4543 12.5957, 10.448 12.6999, 10.4354 12.803 L 10.2557 14.4518 C 10.2059 14.88, 10.1807 15.2522, 10.1807 15.5693, 10.1807 15.7777, 10.1933 15.9609, 10.2185 16.1189, 10.2625 16.4796, 10.4509 16.66, 10.7841 16.6594, 11.0864 16.66, 11.3629 16.4968, 11.6148 16.1699, 11.8667 15.8436, 12.0522 15.4388, 12.1713 14.9556, 12.2406 14.773, 12.3631 14.6842, 12.5394 14.69 L 12.69 14.69 C 12.86 14.6905, 12.951 14.7701, 12.9636 14.9281 L 12.9636 14.9922 Z M 10.7463 7.28855 C 10.8471 6.92272, 10.9037 6.55631, 10.9163 6.18933 L 10.9163 6.13437 C 10.9163 5.8235, 10.819 5.55499, 10.6238 5.32828, 10.3914 5.06034, 10.0879 4.87084, 9.7135 4.76092, 9.33908 4.651, 8.92859 4.59604, 8.48203 4.59547 L 7.22709 4.59547 C 6.90648 4.59604, 6.71469 4.62066, 6.65172 4.66932, 6.58874 4.71856, 6.5229 4.89203, 6.45363 5.19088 L 5.20842 10.0366, 7.029 10.0366 C 7.47556 10.0372, 7.91639 9.98221, 8.35035 9.87229, 8.78432 9.76237, 9.19652 9.56714, 9.58583 9.28547, 9.9196 9.04787, 10.1715 8.74902, 10.341 8.38834, 10.511 8.02823, 10.6461 7.66183, 10.7463 7.28855 Z" stroke="none" fill="#000000" />
			<path d="M 24.3682 14.5068 C 24.2617 15.2705, 23.9016 15.8831, 23.2884 16.3439, 22.6753 16.8048, 21.9344 17.035, 21.0659 17.035, 20.4877 17.035, 19.9375 16.9222, 19.4154 16.6966, 18.8933 16.471, 18.4375 16.159, 18.0471 15.7617, 17.6383 15.3472, 17.3286 14.8772, 17.1179 14.3516, 16.9072 13.8266, 16.8013 13.277, 16.8013 12.7022, 16.8013 12.1165, 16.9055 11.552, 17.1127 11.0081, 17.3206 10.4648, 17.632 9.98221, 18.0471 9.56027, 18.4375 9.1515, 18.8933 8.83261, 19.4154 8.60361, 19.9375 8.3746, 20.4877 8.2601, 21.0659 8.25953, 21.4312 8.2601, 21.7959 8.29846, 22.1606 8.3746, 22.5258 8.45132, 22.8544 8.57154, 23.147 8.73643, 23.4396 8.90131, 23.68 9.11657, 23.8684 9.38222, 24.0573 9.64786, 24.1512 9.96103, 24.1512 10.3206, 24.1512 10.6389, 24.0493 10.8799, 23.8449 11.0448, 23.6405 11.2097, 23.4155 11.2921, 23.1699 11.2915, 22.9249 11.2921, 22.7004 11.2097, 22.4961 11.0448, 22.2917 10.8799, 22.1892 10.6389, 22.1892 10.3206, 22.1892 10.0034, 22.2991 9.7595, 22.519 9.58775, 22.7079 9.45378, 22.9128 9.38394, 23.1327 9.37707 L 22.9529 9.37707 C 22.8464 9.27974, 22.6134 9.17783, 22.255 9.07077, 21.8966 8.96429, 21.5005 8.91047, 21.0659 8.9099, 20.7144 8.91047, 20.3761 9.00551, 20.052 9.19444, 19.728 9.38394, 19.4595 9.63698, 19.2453 9.95416, 18.9877 10.3515, 18.8177 10.7826, 18.7358 11.2463, 18.6545 11.7106, 18.6133 12.1961, 18.6133 12.7022, 18.6133 13.1854, 18.662 13.6526, 18.7593 14.1043, 18.8566 14.5566, 19.0438 14.9716, 19.3209 15.3495, 19.5476 15.6615, 19.8259 15.9105, 20.1556 16.0966, 20.486 16.2833, 20.8335 16.376, 21.1982 16.3754, 21.8714 16.376, 22.4188 16.1962, 22.8401 15.8355, 23.2615 15.4754, 23.5478 15.0111, 23.6983 14.4426, 23.7361 14.2966, 23.8277 14.2234, 23.972 14.2228 L 24.142 14.2411 C 24.2932 14.2783, 24.3682 14.3671, 24.3682 14.5068 Z" stroke="none" fill="#000000" />
			<path d="M 33.8592 12.7388 C 33.8592 13.3136, 33.7492 13.8633, 33.5288 14.3882, 33.309 14.9138, 32.9878 15.3775, 32.5664 15.78, 32.164 16.1716, 31.6985 16.4785, 31.1701 16.7012, 30.6422 16.9239, 30.0823 17.035, 29.4903 17.035, 28.8995 17.035, 28.3396 16.9256, 27.8112 16.7058, 27.2833 16.4859, 26.8144 16.1773, 26.4051 15.78, 25.978 15.3712, 25.6574 14.9058, 25.4433 14.3837, 25.2292 13.8615, 25.1221 13.3136, 25.1221 12.7388, 25.1221 12.1532, 25.2309 11.5887, 25.4478 11.0448, 25.6648 10.5015, 25.9837 10.0126, 26.4051 9.57859, 26.8081 9.16982, 27.2753 8.84807, 27.8066 8.61277, 28.3379 8.37804, 28.8995 8.2601, 29.4903 8.25953, 30.0823 8.2601, 30.6422 8.37804, 31.1701 8.61277, 31.6985 8.84807, 32.164 9.16982, 32.5664 9.57859, 32.9947 10.0188, 33.317 10.5089, 33.534 11.0494, 33.751 11.5898, 33.8592 12.1532, 33.8592 12.7388 Z M 32.0661 12.5282 C 32.0661 12.0587, 32.0334 11.5944, 31.967 11.1364, 31.9012 10.6784, 31.7392 10.2599, 31.4815 9.88087, 31.2422 9.55798, 30.9497 9.30607, 30.6039 9.12573, 30.2581 8.94597, 29.8871 8.85551, 29.4903 8.85494, 29.0942 8.85551, 28.7232 8.94597, 28.3774 9.12573, 28.0316 9.30607, 27.739 9.55798, 27.4997 9.88087, 27.2421 10.2542, 27.0801 10.6709, 27.0137 11.1318, 26.9478 11.5933, 26.9146 12.0587, 26.9146 12.5282, 26.9146 13.0234, 26.945 13.5134, 27.0045 13.9989, 27.0646 14.4844, 27.2295 14.9316, 27.4997 15.3403, 27.7138 15.6586, 28.0001 15.9105, 28.3585 16.0966, 28.7169 16.2833, 29.0942 16.376, 29.4903 16.3754, 29.8871 16.376, 30.2644 16.2833, 30.6228 16.0966, 30.9812 15.9105, 31.2674 15.6586, 31.4815 15.3403, 31.7518 14.9316, 31.9172 14.4844, 31.9768 13.9989, 32.0363 13.5134, 32.0661 13.0234, 32.0661 12.5282 Z" stroke="none" fill="#000000" />
			<path d="M 41.2386 14.3144 C 41.2386 14.6877, 41.1728 15.0524, 41.0405 15.4096, 40.9089 15.7668, 40.6856 16.0766, 40.3707 16.3388, 40.0312 16.6079, 39.6556 16.7911, 39.2434 16.8884, 38.8312 16.9863, 38.4144 17.035, 37.9931 17.035, 37.5282 17.035, 37.1223 16.9588, 36.7765 16.806, 36.4307 16.6537, 36.1473 16.4676, 35.9269 16.2472 L 35.3229 16.9434 C 35.2725 16.9983, 35.1975 17.0292, 35.0967 17.035 L 35.0401 17.035 C 34.8511 17.035, 34.7567 16.9405, 34.7567 16.751 L 34.7567 13.7281 C 34.7567 13.5942, 34.8294 13.5089, 34.9742 13.4717, 35.0183 13.4602, 35.059 13.4539, 35.0967 13.4533, 35.1471 13.4539, 35.1946 13.4631, 35.2382 13.4808, 35.3326 13.518, 35.3956 13.5821, 35.4271 13.6732, 35.5908 14.5102, 35.8702 15.1795, 36.2664 15.6798, 36.6626 16.1808, 37.2385 16.431, 37.9931 16.4304, 38.2954 16.431, 38.5879 16.4023, 38.8707 16.3439, 39.1535 16.2861, 39.3992 16.1716, 39.6064 15.9999, 39.7764 15.8602, 39.9024 15.6878, 39.9843 15.4829, 40.0661 15.2785, 40.1068 15.0569, 40.1068 14.8182, 40.1068 14.4277, 39.9528 14.094, 39.6448 13.8157, 39.3368 13.5381, 38.956 13.3531, 38.5026 13.261 L 37.2007 12.9953 C 36.8864 12.9346, 36.583 12.839, 36.2904 12.7074, 35.9979 12.5763, 35.7397 12.4142, 35.5164 12.2219, 35.2931 12.0295, 35.1111 11.8022, 34.9691 11.5394, 34.8277 11.2772, 34.7567 10.987, 34.7567 10.6686, 34.7567 10.3211, 34.8311 9.98679, 34.9788 9.66618, 35.1265 9.34558, 35.3486 9.08165, 35.6441 8.87326, 35.9899 8.61734, 36.3706 8.45132, 36.7856 8.3746, 37.2007 8.29846, 37.6032 8.2601, 37.9931 8.25953, 38.7104 8.2601, 39.2892 8.42498, 39.7289 8.75418 L 40.2196 8.31449 C 40.2951 8.27842, 40.3581 8.2601, 40.4085 8.25953 L 40.4743 8.25953 C 40.6633 8.2601, 40.7577 8.3454, 40.7577 8.51601 L 40.7577 10.9526 C 40.7577 11.1364, 40.6633 11.2309, 40.4743 11.2366 L 40.3707 11.2366 C 40.1823 11.2372, 40.0879 11.1427, 40.0879 10.9526, 40.0879 10.2874, 39.907 9.76122, 39.5451 9.37306, 39.1833 8.98547, 38.6663 8.79139, 37.9931 8.79082, 37.704 8.79139, 37.4194 8.81601, 37.1395 8.86467, 36.8595 8.91391, 36.6093 9.01409, 36.3895 9.16638, 36.0563 9.3868, 35.8891 9.7137, 35.8891 10.1465, 35.8891 10.4648, 36.0339 10.7368, 36.3231 10.9623, 36.6127 11.1885, 36.9774 11.3442, 37.4177 11.4289 L 38.7104 11.6671 C 39.0499 11.7289, 39.374 11.8389, 39.682 11.9974, 39.9906 12.1566, 40.2596 12.3472, 40.4892 12.57, 40.7188 12.7932, 40.9008 13.0554, 41.036 13.3577, 41.1711 13.66, 41.2386 13.9789, 41.2386 14.3144 Z" stroke="none" fill="#000000" />
			<path d="M 52.3556 5.50232 C 52.5067 6.08285, 52.5817 6.67539, 52.5817 7.27939, 52.5817 7.46947, 52.5754 7.65267, 52.5628 7.829, 52.4999 8.63567, 52.3647 9.44462, 52.1575 10.2564, 51.9314 11.0751, 51.6451 11.8864, 51.2993 12.689, 50.9535 13.4923, 50.4944 14.2629, 49.9218 15.0014, 49.7272 15.2522, 49.5114 15.5001, 49.2755 15.7439, 49.0396 15.9884, 48.7866 16.2065, 48.5163 16.3989, 48.2461 16.5913, 47.9644 16.7487, 47.6719 16.8701, 47.3799 16.9926, 47.073 17.0533, 46.7524 17.0533, 46.4255 17.0533, 46.1439 16.9909, 45.908 16.8655, 45.6721 16.7407, 45.4694 16.5792, 45.2994 16.3806, 45.1299 16.1825, 44.9897 15.9609, 44.8797 15.7165, 44.7698 15.4726, 44.6805 15.2218, 44.6107 14.9648, 44.4538 14.3974, 44.3754 13.8112, 44.3754 13.206, 44.3754 13.0114, 44.388 12.819, 44.4126 12.6289, 44.463 11.8354, 44.5986 11.0328, 44.8185 10.2198, 45.0263 9.40226, 45.3063 8.5933, 45.6584 7.79293, 46.0105 6.99314, 46.4788 6.22025, 47.0633 5.47484, 47.2585 5.22523, 47.4726 4.97618, 47.7051 4.72886, 47.9375 4.48154, 48.186 4.26169, 48.4499 4.06933, 48.7144 3.87697, 48.9927 3.7201, 49.2852 3.59758, 49.5778 3.47564, 49.8875 3.41438, 50.2144 3.41381, 50.5413 3.41438, 50.8213 3.47735, 51.0537 3.60216, 51.2867 3.72754, 51.4928 3.88784, 51.672 4.08307, 51.8512 4.27887, 51.9926 4.50157, 52.0962 4.75176, 52.1999 5.00252, 52.2863 5.25271, 52.3556 5.50232 Z M 51.0817 5.71301 C 51.0566 5.47541, 51.0256 5.25271, 50.9879 5.04489, 50.9501 4.83764, 50.8951 4.6573, 50.823 4.50444, 50.7508 4.35215, 50.6581 4.23421, 50.5447 4.15177, 50.4314 4.06933, 50.2865 4.02811, 50.1102 4.02754, 49.7461 4.02811, 49.4094 4.19757, 49.1014 4.5365, 48.7934 4.87542, 48.4946 5.28019, 48.2049 5.74965, 47.7904 6.42177, 47.4698 7.11222, 47.2431 7.82041, 47.0164 8.52918, 46.8217 9.21276, 46.658 9.87172 L 50.4972 9.87172 C 50.6673 9.18241, 50.8247 8.47994, 50.969 7.76488, 51.0697 7.28283, 51.1195 6.8065, 51.1195 6.3359, 51.1195 6.12865, 51.1069 5.9214, 51.0817 5.71301 Z M 46.4599 10.6137 C 46.2904 11.3041, 46.1421 12.0003, 46.0162 12.7022, 45.916 13.2094, 45.8656 13.7167, 45.8656 14.2228, 45.8656 14.4129, 45.8719 14.5961, 45.8845 14.7724, 45.8971 15.0111, 45.9257 15.2344, 45.9692 15.4417, 46.0133 15.6495, 46.0717 15.8281, 46.1439 15.9775, 46.216 16.1275, 46.3122 16.2432, 46.4318 16.3256, 46.5515 16.4081, 46.6958 16.4493, 46.8652 16.4487, 47.2242 16.4493, 47.5591 16.2815, 47.8705 15.9455, 48.182 15.61, 48.4757 15.2064, 48.7522 14.7358, 49.1673 14.0522, 49.4879 13.3594, 49.714 12.657, 49.9407 11.9551, 50.1354 11.2738, 50.2991 10.6137 Z" stroke="none" fill="#000000" />
			<rect />
		</svg>
	</g>
</svg>
