<?xml version="1.0"?>
<svg xmlns="http://www.w3.org/2000/svg" xmlns:xlink="http://www.w3.org/1999/xlink" width="304.361084" height="206.419464">
	<defs>
		<marker id="CustomMarker-01" markerUnits="strokeWidth" markerWidth="15.000001" markerHeight="9" viewBox="-15 -4.5 15 9" orient="auto-start-reverse">
			<path d="M 0 -0 L -10 -3, -8 -0.5, -8 0.5, -10 3 Z" fill="#000000" stroke="#000000" stroke-linejoin="round" />
		</marker>
	</defs>
	<path d="M -189.015 0 L 189.015 0" fill="none" stroke="#000000" stroke-width="2.4000001" stroke-linecap="round" stroke-linejoin="round" transform="matrix(0.555556 0 0 0.555556 113.508 46.3183)" />
	<path d="M -8.75055 8.75116 L 8.75124 -8.75171" fill="none" stroke="#000000" stroke-width="1.79999995" stroke-linecap="round" stroke-linejoin="round" transform="matrix(0.555556 0 0 0.555556 21.456 51.3287)" />
	<path d="M -8.7514 8.75116 L 8.75076 -8.75171" fill="none" stroke="#000000" stroke-width="1.79999995" stroke-linecap="round" stroke-linejoin="round" transform="matrix(0.555556 0 0 0.555556 87.0947 51.3287)" />
	<path d="M -8.75211 8.75116 L 8.75052 -8.75171" fill="none" stroke="#000000" stroke-width="1.79999995" stroke-linecap="round" stroke-linejoin="round" transform="matrix(0.555556 0 0 0.555556 126.478 51.3287)" />
	<path d="M -8.7511 8.75116 L 8.75171 -8.75171" fill="none" stroke="#000000" stroke-width="1.79999995" stroke-linecap="round" stroke-linejoin="round" transform="matrix(0.555556 0 0 0.555556 192.116 51.3287)" />
	<path d="M -8.75104 8.75116 L 8.75171 -8.75171" fill="none" stroke="#000000" stroke-width="1.79999995" stroke-linecap="round" stroke-linejoin="round" transform="matrix(0.555556 0 0 0.555556 165.861 51.3287)" />
	<path d="M -8.75186 8.75116 L 8.75079 -8.75171" fill="none" stroke="#000000" stroke-width="1.79999995" stroke-linecap="round" stroke-linejoin="round" transform="matrix(0.555556 0 0 0.555556 34.584 51.3287)" />
	<path d="M -8.75195 8.75116 L 8.75092 -8.75171" fill="none" stroke="#000000" stroke-width="1.79999995" stroke-linecap="round" stroke-linejoin="round" transform="matrix(0.555556 0 0 0.555556 113.35 51.3287)" />
	<path d="M -8.75214 8.75116 L 8.75128 -8.75171" fill="none" stroke="#000000" stroke-width="1.79999995" stroke-linecap="round" stroke-linejoin="round" transform="matrix(0.555556 0 0 0.555556 152.733 51.3287)" />
	<path d="M -8.75171 8.75116 L 8.75061 -8.75171" fill="none" stroke="#000000" stroke-width="1.79999995" stroke-linecap="round" stroke-linejoin="round" transform="matrix(0.555556 0 0 0.555556 178.989 51.3287)" />
	<path d="M -8.75275 8.75116 L 8.75064 -8.75171" fill="none" stroke="#000000" stroke-width="1.79999995" stroke-linecap="round" stroke-linejoin="round" transform="matrix(0.555556 0 0 0.555556 139.606 51.3287)" />
	<path d="M -8.75089 8.75116 L 8.75146 -8.75171" fill="none" stroke="#000000" stroke-width="1.79999995" stroke-linecap="round" stroke-linejoin="round" transform="matrix(0.555556 0 0 0.555556 47.7114 51.3287)" />
	<path d="M -8.75165 8.75116 L 8.7511 -8.75171" fill="none" stroke="#000000" stroke-width="1.79999995" stroke-linecap="round" stroke-linejoin="round" transform="matrix(0.555556 0 0 0.555556 60.8393 51.3287)" />
	<path d="M -8.75089 8.75116 L 8.7514 -8.75171" fill="none" stroke="#000000" stroke-width="1.79999995" stroke-linecap="round" stroke-linejoin="round" transform="matrix(0.555556 0 0 0.555556 73.9665 51.3287)" />
	<path d="M -8.75186 8.75116 L 8.74991 -8.75171" fill="none" stroke="#000000" stroke-width="1.79999995" stroke-linecap="round" stroke-linejoin="round" transform="matrix(0.555556 0 0 0.555556 100.222 51.3287)" />
	<path d="M -8.75171 8.75116 L 8.75171 -8.75171" fill="none" stroke="#000000" stroke-width="1.79999995" stroke-linecap="round" stroke-linejoin="round" transform="matrix(0.555556 0 0 0.555556 205.244 51.3287)" />
	<path d="M 15.2119 -0 C 15.2119 8.40131, 8.40131 15.2119, -0 15.2119, -8.40131 15.2119, -15.2119 8.40131, -15.2119 -0, -15.2119 -8.40131, -8.40131 -15.2119, -0 -15.2119, 8.40131 -15.2119, 15.2119 -8.40131, 15.2119 -0 Z" fill="none" stroke="#000000" stroke-width="2.4000001" stroke-linecap="round" stroke-linejoin="round" transform="matrix(0.555556 0 0 0.555556 228.996 35.8389)" />
	<path d="M 0 -132.534 L 0 132.533" fill="none" stroke="#000000" stroke-width="2.4000001" stroke-linecap="round" stroke-linejoin="round" transform="matrix(0.555556 0 0 0.555556 218.517 119.948)" />
	<path d="M -8.75098 8.75201 L 8.75244 -8.75061" fill="none" stroke="#000000" stroke-width="1.79999995" stroke-linecap="round" stroke-linejoin="round" transform="matrix(0.555556 0 0 0.555556 213.654 176.736)" />
	<path d="M -8.75098 8.75281 L 8.75244 -8.75061" fill="none" stroke="#000000" stroke-width="1.79999995" stroke-linecap="round" stroke-linejoin="round" transform="matrix(0.555556 0 0 0.555556 213.654 137.352)" />
	<path d="M -8.75098 8.75116 L 8.75244 -8.75171" fill="none" stroke="#000000" stroke-width="1.79999995" stroke-linecap="round" stroke-linejoin="round" transform="matrix(0.555556 0 0 0.555556 213.654 71.7141)" />
	<path d="M -8.75098 8.7511 L 8.75244 -8.75232" fill="none" stroke="#000000" stroke-width="1.79999995" stroke-linecap="round" stroke-linejoin="round" transform="matrix(0.555556 0 0 0.555556 213.654 97.9699)" />
	<path d="M -8.75098 8.75232 L 8.75244 -8.75171" fill="none" stroke="#000000" stroke-width="1.79999995" stroke-linecap="round" stroke-linejoin="round" transform="matrix(0.555556 0 0 0.555556 213.654 150.481)" />
	<path d="M -8.75098 8.75275 L 8.75244 -8.75128" fill="none" stroke="#000000" stroke-width="1.79999995" stroke-linecap="round" stroke-linejoin="round" transform="matrix(0.555556 0 0 0.555556 213.654 111.097)" />
	<path d="M -8.75098 8.75006 L 8.75244 -8.75281" fill="none" stroke="#000000" stroke-width="1.79999995" stroke-linecap="round" stroke-linejoin="round" transform="matrix(0.555556 0 0 0.555556 213.654 84.8425)" />
	<path d="M -8.75098 8.75232 L 8.75244 -8.75" fill="none" stroke="#000000" stroke-width="1.79999995" stroke-linecap="round" stroke-linejoin="round" transform="matrix(0.555556 0 0 0.555556 213.654 124.225)" />
	<path d="M -8.75098 8.74988 L 8.75244 -8.75189" fill="none" stroke="#000000" stroke-width="1.79999995" stroke-linecap="round" stroke-linejoin="round" transform="matrix(0.555556 0 0 0.555556 213.654 189.864)" />
	<path d="M -8.75098 8.75153 L 8.75244 -8.75061" fill="none" stroke="#000000" stroke-width="1.79999995" stroke-linecap="round" stroke-linejoin="round" transform="matrix(0.555556 0 0 0.555556 213.654 163.609)" />
	<path d="M -8.75098 8.75171 L 8.75244 -8.75116" fill="none" stroke="#000000" stroke-width="1.79999995" stroke-linecap="round" stroke-linejoin="round" transform="matrix(0.555556 0 0 0.555556 213.654 58.5864)" />
	<path d="M -9.43176 9.43066 L 9.43103 -9.43121" fill="none" stroke="#000000" stroke-width="5.75999975" stroke-linecap="round" stroke-linejoin="round" transform="matrix(0.555556 0 0 0.555556 223.756 41.079)" />
	<path d="M 0 -89.9187 L 0 89.9187" fill="none" stroke="#000000" stroke-width="2.4000001" stroke-linecap="round" stroke-linejoin="round" transform="matrix(0.555556 0 0 0.555556 237.447 86.264)" />
	<path d="M -33.907 -25.6723 L 33.907 -25.6723, 33.907 25.6723, -33.907 25.6723 Z" fill="none" stroke="#000000" stroke-width="2.4000001" stroke-linecap="round" stroke-linejoin="round" transform="matrix(0.555556 0 -0 0.555556 237.447 150.481)" />
	<g transform="matrix(1 0 -0 1 231.413 139.274)">
		<svg width="41.9788857" height="45.0428467">
			<defs />
			<path d="M 12.0622 13.2976 C 12.0622 13.7865, 11.9443 14.2463, 11.7084 14.6768, 11.4725 15.1073, 11.1599 15.4783, 10.7695 15.7892, 10.3355 16.1441, 9.85461 16.4052, 9.32618 16.5729, 8.79833 16.7407, 8.25731 16.8243, 7.70312 16.8243 L -0.00515157 16.8243, -0.00515157 16.064 C 0.341217 16.0646, 0.67499 16.06, 0.995596 16.0508, 1.3162 16.0417, 1.55837 16.0096, 1.72154 15.9541, 1.8097 15.9243, 1.87612 15.8647, 1.9202 15.776, 1.96428 15.6878, 1.98604 15.5882, 1.98604 15.4777 L 1.98604 5.15423 C 1.98604 5.04488, 1.96428 4.94584, 1.9202 4.8571, 1.87612 4.76893, 1.8097 4.70882, 1.72154 4.67791, 1.55837 4.62352, 1.3162 4.59317, 0.995596 4.58688, 0.67499 4.58115, 0.341217 4.57772, -0.00515157 4.57714 L -0.00515157 3.82601, 7.15637 3.82601 C 7.70369 3.82658, 8.24414 3.89987, 8.77886 4.04643, 9.31359 4.19299, 9.79793 4.43402, 10.2319 4.76951, 10.6155 5.0632, 10.9269 5.40671, 11.1662 5.8006, 11.4055 6.19448, 11.5246 6.62329, 11.5246 7.08703, 11.5246 7.54561, 11.4038 7.96583, 11.1617 8.34712, 10.9195 8.72898, 10.6098 9.05417, 10.2319 9.3221, 9.64106 9.7137, 9.2008 9.93927, 8.91111 9.99996, 8.93001 10.0005, 9.15329 10.0801, 9.58095 10.2387, 10.0092 10.3979, 10.4054 10.6171, 10.7695 10.8977, 11.1536 11.1913, 11.4651 11.544, 11.7038 11.9562, 11.9431 12.3684, 12.0622 12.8156, 12.0622 13.2976 Z M 9.45843 7.08703 C 9.45843 6.41605, 9.22886 5.82636, 8.7697 5.31912, 8.55559 5.08782, 8.31055 4.90634, 8.03346 4.77466, 7.75693 4.64355, 7.46438 4.57772, 7.15637 4.57714 L 4.68428 4.57714 C 4.54 4.57772, 4.39058 4.58115, 4.236 4.58688, 4.082 4.59317, 3.97379 4.62065, 3.91082 4.66875, 3.84154 4.71798, 3.80204 4.7884, 3.79288 4.88, 3.78372 4.9716, 3.77857 5.0632, 3.77857 5.15423 L 3.77857 9.77095, 6.61821 9.77095 C 6.98977 9.77153, 7.34988 9.69996, 7.69911 9.55626, 8.04834 9.41313, 8.35464 9.21905, 8.61856 8.97402, 9.17848 8.45533, 9.45843 7.82671, 9.45843 7.08703 Z M 9.93934 13.2976 C 9.93934 12.9135, 9.87694 12.5442, 9.75099 12.1898, 9.62503 11.836, 9.43954 11.512, 9.19393 11.2183, 8.97409 10.956, 8.71188 10.7488, 8.40673 10.5959, 8.10159 10.4437, 7.77583 10.3669, 7.43003 10.3664 L 3.77857 10.3664, 3.77857 15.4777 C 3.77857 15.5819, 3.78372 15.677, 3.79288 15.7623, 3.80204 15.8481, 3.84154 15.9151, 3.91082 15.9632, 3.97379 16.0125, 4.08371 16.0417, 4.24058 16.0508, 4.39802 16.06, 4.54573 16.0646, 4.68428 16.064 L 7.15637 16.064 C 7.51476 16.0646, 7.86571 15.9947, 8.20807 15.8539, 8.55101 15.7136, 8.85444 15.5149, 9.11836 15.2579, 9.37656 14.99, 9.57809 14.6877, 9.72236 14.3516, 9.86721 14.0161, 9.93934 13.6646, 9.93934 13.2976 Z" stroke="none" fill="#000000" />
			<rect />
		</svg>
	</g>
	<path d="M -118.198 0 L 118.197 0" fill="none" stroke="#000000" stroke-width="2.4000001" stroke-linecap="round" stroke-linejoin="round" transform="matrix(0.555556 0 0 0.555556 163.331 27.3879)" />
	<path d="M -25.7044 -34.0365 L 25.7044 -34.0365, 25.7044 34.0365, -25.7044 34.0365 Z" fill="none" stroke="#000000" stroke-width="2.4000001" stroke-linecap="round" stroke-linejoin="round" transform="matrix(0.555556 0 -0 0.555556 83.3851 27.4091)" />
	<g transform="matrix(1 0 -0 1 76.6865 16.2017)">
		<svg width="44.9376793" height="45.0428467">
			<defs />
			<path d="M 13.3987 16.8334 C 12.5812 16.7911, 11.7923 16.7693, 11.0308 16.7693 L 10.6627 16.7693 C 9.77589 16.7819, 8.85415 16.8002, 7.89806 16.8243 L 7.89806 16.064 C 8.18145 16.0646, 8.43622 16.0542, 8.66236 16.0325, 8.88907 16.0113, 9.09002 15.9667, 9.26636 15.8991, 9.34823 15.8567, 9.42036 15.7926, 9.48334 15.7067, 9.50853 15.677, 9.52112 15.6369, 9.52112 15.5877, 9.52112 15.5636, 9.51826 15.5361, 9.51139 15.5052 L 8.44538 12.5465, 3.81263 12.5465, 2.93555 15.0014 C 2.90406 15.0753, 2.88803 15.1457, 2.88803 15.2121, 2.88803 15.2739, 2.89776 15.3346, 2.91665 15.3953, 2.96703 15.5304, 3.0489 15.6403, 3.16169 15.7251, 3.32542 15.8602, 3.50004 15.9501, 3.68553 15.9959, 3.87103 16.0417, 4.09602 16.0646, 4.35995 16.064 L 4.35995 16.8243 C 3.59908 16.8002, 2.87257 16.7819, 2.18041 16.7693 L 1.88843 16.7693 C 1.28443 16.7693, 0.655239 16.7911, 0.00143325 16.8334 L 0.00143325 16.064 C 0.303718 16.0646, 0.565928 16.0451, 0.789207 16.005, 1.01249 15.9655, 1.22775 15.8876, 1.435 15.7709, 1.77507 15.5819, 2.0138 15.3043, 2.15235 14.9373 L 6.22805 3.4596 C 6.29103 3.27697, 6.42327 3.18824, 6.62423 3.19396 L 6.77537 3.19396 C 6.97689 3.19453, 7.10857 3.28327, 7.17155 3.4596 L 11.4551 15.4502 C 11.4871 15.567, 11.5358 15.6707, 11.6016 15.7623, 11.668 15.8539, 11.7573 15.9151, 11.8701 15.9449, 12.0339 16.0067, 12.2497 16.0417, 12.5171 16.0508, 12.7844 16.06, 13.0781 16.0646, 13.3987 16.064 L 13.3987 16.8334 Z M 6.14332 6.04277 L 4.08629 11.7862, 8.17172 11.7862 Z" stroke="none" fill="#000000" />
			<rect />
		</svg>
	</g>
	<g transform="matrix(1 0 -0 1 40.2719 16.1805)">
		<svg width="48.0251122" height="32.9571342">
			<defs />
			<path d="M 14.8512 14.0762 C 14.7756 14.4003, 14.6628 14.738, 14.5117 15.089, 14.3606 15.4405, 14.1796 15.7594, 13.969 16.0462, 13.7583 16.3336, 13.5115 16.5729, 13.2287 16.7647, 12.9459 16.9571, 12.6184 17.0533, 12.2468 17.0533, 11.9325 17.0533, 11.6623 16.9863, 11.4356 16.8518, 11.2095 16.7178, 11.0383 16.5409, 10.9215 16.321, 10.8053 16.1012, 10.7406 15.8447, 10.728 15.551 L 10.728 15.4777 C 10.728 15.2155, 10.7818 14.9499, 10.8883 14.6808, 11.0961 14.1438, 11.2879 13.6096, 11.4642 13.0783, 11.6406 12.5471, 11.8009 12.0129, 11.9451 11.4747, 12.0459 11.1209, 12.1152 10.7763, 12.153 10.4396, 12.1656 10.3549, 12.1718 10.2633, 12.1718 10.1648, 12.1718 9.95187, 12.1404 9.75034, 12.0774 9.56027, 11.964 9.17612, 11.7253 8.98375, 11.36 8.98318, 10.7188 8.98375, 10.1652 9.20531, 9.69975 9.64786, 9.2343 10.091, 8.82839 10.6784, 8.4826 11.4106, 8.28794 12.2419, 8.08012 13.0709, 7.8597 13.8982, 7.63986 14.726, 7.42288 15.5516, 7.20876 16.3754, 7.15266 16.6021, 7.03644 16.771, 6.8601 16.8838, 6.68377 16.9972, 6.51087 17.0533, 6.34084 17.0533, 6.15878 17.0533, 6.00764 16.9926, 5.88798 16.8701, 5.80668 16.7911, 5.7626 16.6811, 5.75573 16.5403, 5.75573 16.4739, 5.76203 16.4063, 5.77462 16.3388 L 7.03873 11.4747 C 7.13949 11.1209, 7.20876 10.7763, 7.24655 10.4396 L 7.24655 10.1648 C 7.24655 9.94557, 7.22136 9.74405, 7.17098 9.56027, 7.05819 9.17612, 6.81945 8.98375, 6.45419 8.98318, 5.81298 8.98375, 5.25937 9.20531, 4.79391 9.64786, 4.32846 10.091, 3.91969 10.6784, 3.56703 11.4106 L 2.2743 16.3754 C 2.21819 16.6021, 2.10312 16.771, 1.93022 16.8838, 1.75732 16.9972, 1.58271 17.0533, 1.40637 17.0533, 1.21802 17.0533, 1.07317 16.9926, 0.972413 16.8701, 0.891116 16.7911, 0.849895 16.6811, 0.849895 16.5403, 0.849895 16.4859, 0.856193 16.4189, 0.868788 16.3388 L 2.32125 10.6686 C 2.42201 10.2725, 2.47239 9.93011, 2.47239 9.64271 L 2.47239 9.42287 C 2.44147 9.13032, 2.29376 8.98375, 2.02927 8.98318, 1.75217 8.98375, 1.52088 9.20703, 1.33538 9.65244, 1.14989 10.0984, 0.96955 10.6784, 0.793217 11.3923, 0.723943 11.5578, 0.607724 11.6431, 0.443986 11.6488 L 0.227005 11.6488 C 0.0758623 11.6494, 0.00029096 11.5732, 0.00029096 11.4198 L 0.00029096 11.3557 C 0.0758623 11.0694, 0.161166 10.7562, 0.25563 10.4173, 0.350094 10.0784, 0.476047 9.75779, 0.632914 9.4555, 0.790354 9.15322, 0.988443 8.89673, 1.22718 8.68605, 1.46649 8.47536, 1.76477 8.37002, 2.12316 8.36945, 2.63956 8.37002, 3.04547 8.52575, 3.34089 8.83719, 3.6363 9.14864, 3.79031 9.45092, 3.8029 9.74347, 4.0674 9.39596, 4.43495 9.07994, 4.9067 8.79597, 5.37845 8.512, 5.92577 8.37002, 6.54808 8.36945, 6.93224 8.37002, 7.2849 8.43872, 7.60551 8.57613, 7.92612 8.71353, 8.17458 8.93509, 8.35035 9.23967, 8.50149 9.50302, 8.58336 9.72286, 8.59595 9.8992, 8.87305 9.50874, 9.25663 9.15665, 9.74727 8.84177, 10.2379 8.52746, 10.8133 8.37002, 11.4734 8.36945, 11.8444 8.37002, 12.1907 8.43872, 12.5113 8.57613, 12.832 8.71353, 13.0839 8.93509, 13.2659 9.23967, 13.4548 9.55168, 13.5464 9.90263, 13.5396 10.2931 L 13.5396 10.3389 C 13.527 10.7305, 13.4709 11.1244, 13.3701 11.5205, 13.2253 12.077, 13.0587 12.6238, 12.8697 13.1608, 12.6814 13.6984, 12.4833 14.2417, 12.2755 14.7907, 12.0865 15.2859, 11.9921 15.701, 11.9921 16.0365, 11.9921 16.3119, 12.1117 16.4493, 12.351 16.4487, 12.5652 16.4493, 12.7581 16.3852, 12.931 16.2569, 13.1039 16.1287, 13.2613 15.9563, 13.4027 15.7394, 13.5447 15.523, 13.6718 15.2665, 13.7852 14.9699, 13.8985 14.6739, 13.9987 14.3608, 14.0869 14.0304, 14.1247 13.8724, 14.2352 13.7928, 14.4172 13.7923 L 14.6245 13.7923 C 14.6943 13.7928, 14.7665 13.814, 14.8415 13.8564, 14.8667 13.9119, 14.8792 13.9577, 14.8792 13.9938, 14.8792 14.019, 14.8701 14.0465, 14.8512 14.0762 Z" stroke="none" fill="#000000" />
			<rect />
		</svg>
	</g>
	<g transform="matrix(1 0 -0 1 270.34 139.274)">
		<svg width="77.9989777" height="47.9999886">
			<defs />
			<path d="M 7.60694 16.7669 L 0.0808844 16.7669, 0.0808844 16.2732 C 0.0808844 16.2379, 0.0993994 16.184, 0.136429 16.1116 L 3.15998 12.826 C 3.51737 12.4316, 3.87926 12.0277, 4.24619 11.6147, 4.61312 11.2018, 4.9419 10.7799, 5.23141 10.349, 5.52092 9.91808, 5.75207 9.47372, 5.92488 9.01589, 6.09769 8.55807, 6.18353 8.0778, 6.18353 7.57453, 6.18353 7.15037, 6.12798 6.7537, 6.01689 6.38565, 5.9058 6.01759, 5.7459 5.69442, 5.53607 5.41613, 5.32679 5.13785, 5.06478 4.91343, 4.75058 4.74286, 4.43639 4.5723, 4.07226 4.48702, 3.65932 4.48646, 3.04328 4.48702, 2.49905 4.67105, 2.0272 5.0391, 1.55591 5.40716, 1.24284 5.8128, 1.08855 6.25492, 1.05825 6.26726, 1.10762 6.27343, 1.23667 6.27287 L 1.39376 6.27287 C 1.57891 6.31551, 1.73882 6.38004, 1.87459 6.46644, 2.01037 6.5534, 2.12426 6.67291, 2.21684 6.82552, 2.30941 6.97812, 2.35542 7.16215, 2.35542 7.37704, 2.35542 7.73668, 2.23872 8.01216, 2.0042 8.20348, 1.76967 8.39536, 1.50766 8.49074, 1.21815 8.49018, 0.940989 8.49074, 0.681779 8.39536, 0.441646 8.20348, 0.201512 8.01216, 0.0808844 7.73668, 0.0808844 7.37704, 0.0808844 6.87489, 0.179631 6.39911, 0.377124 5.95026, 0.574617 5.50142, 0.842242 5.1126, 1.18112 4.78326, 1.52 4.45448, 1.9206 4.19415, 2.38291 4.00226, 2.84522 3.81094, 3.33559 3.715, 3.85345 3.71444, 4.49474 3.715, 5.08217 3.80926, 5.61518 3.99778, 6.14818 4.18629, 6.60264 4.45728, 6.97855 4.81019, 7.35446 5.16366, 7.64902 5.57211, 7.86166 6.03554, 8.0743 6.49954, 8.18034 7.01235, 8.18034 7.57453, 8.18034 8.19731, 8.03895 8.77071, 7.75506 9.29418, 7.47172 9.81821, 7.1205 10.2985, 6.70139 10.735, 6.28228 11.172, 5.83679 11.5833, 5.36494 11.9693, 4.89365 12.3553, 4.46669 12.7307, 4.08461 13.0954 L 1.95763 15.0972, 4.74104 15.0972 C 5.1293 15.0978, 5.49174 15.095, 5.82726 15.0888, 6.16333 15.0832, 6.44835 15.0708, 6.68287 15.0529, 6.9174 15.0349, 7.03746 15.0232, 7.04307 15.0164, 7.09245 14.9749, 7.13901 14.8913, 7.18222 14.7656, 7.22542 14.64, 7.26525 14.4918, 7.30228 14.3213, 7.33931 14.1507, 7.37634 13.9773, 7.41337 13.8006, 7.4504 13.6244, 7.48407 13.4309, 7.51492 13.221 L 8.19885 13.221 Z" stroke="none" fill="#000000" />
			<path d="M 24.6899 14.0762 C 24.6144 14.4003, 24.5016 14.738, 24.3504 15.089, 24.1993 15.4405, 24.0184 15.7594, 23.8077 16.0462, 23.597 16.3336, 23.3503 16.5729, 23.0674 16.7647, 22.7846 16.9571, 22.4572 17.0533, 22.0856 17.0533, 21.7713 17.0533, 21.5011 16.9863, 21.2743 16.8518, 21.0482 16.7178, 20.877 16.5409, 20.7602 16.321, 20.644 16.1012, 20.5793 15.8447, 20.5667 15.551 L 20.5667 15.4777 C 20.5667 15.2155, 20.6205 14.9499, 20.727 14.6808, 20.9349 14.1438, 21.1266 13.6096, 21.303 13.0783, 21.4793 12.5471, 21.6396 12.0129, 21.7839 11.4747, 21.8846 11.1209, 21.9539 10.7763, 21.9917 10.4396, 22.0043 10.3549, 22.0106 10.2633, 22.0106 10.1648, 22.0106 9.95187, 21.9791 9.75034, 21.9161 9.56027, 21.8028 9.17612, 21.564 8.98375, 21.1988 8.98318, 20.5576 8.98375, 20.004 9.20531, 19.5385 9.64786, 19.073 10.091, 18.6671 10.6784, 18.3213 11.4106, 18.1267 12.2419, 17.9189 13.0709, 17.6985 13.8982, 17.4786 14.726, 17.2616 15.5516, 17.0475 16.3754, 16.9914 16.6021, 16.8752 16.771, 16.6989 16.8838, 16.5225 16.9972, 16.3496 17.0533, 16.1796 17.0533, 15.9975 17.0533, 15.8464 16.9926, 15.7267 16.8701, 15.6454 16.7911, 15.6013 16.6811, 15.5945 16.5403, 15.5945 16.4739, 15.6008 16.4063, 15.6134 16.3388 L 16.8775 11.4747 C 16.9782 11.1209, 17.0475 10.7763, 17.0853 10.4396 L 17.0853 10.1648 C 17.0853 9.94557, 17.0601 9.74405, 17.0097 9.56027, 16.8969 9.17612, 16.6582 8.98375, 16.2929 8.98318, 15.6517 8.98375, 15.0981 9.20531, 14.6327 9.64786, 14.1672 10.091, 13.7584 10.6784, 13.4058 11.4106 L 12.113 16.3754 C 12.0569 16.6021, 11.9419 16.771, 11.769 16.8838, 11.5961 16.9972, 11.4215 17.0533, 11.2451 17.0533, 11.0568 17.0533, 10.9119 16.9926, 10.8112 16.8701, 10.7299 16.7911, 10.6886 16.6811, 10.6886 16.5403, 10.6886 16.4859, 10.6949 16.4189, 10.7075 16.3388 L 12.16 10.6686 C 12.2608 10.2725, 12.3111 9.93011, 12.3111 9.64271 L 12.3111 9.42287 C 12.2802 9.13032, 12.1325 8.98375, 11.868 8.98318, 11.5909 8.98375, 11.3596 9.20703, 11.1741 9.65244, 10.9886 10.0984, 10.8083 10.6784, 10.632 11.3923, 10.5627 11.5578, 10.4465 11.6431, 10.2827 11.6488 L 10.0658 11.6488 C 9.91461 11.6494, 9.83904 11.5732, 9.83904 11.4198 L 9.83904 11.3557 C 9.91461 11.0694, 9.99991 10.7562, 10.0944 10.4173, 10.1888 10.0784, 10.3148 9.75779, 10.4717 9.4555, 10.6291 9.15322, 10.8272 8.89673, 11.0659 8.68605, 11.3052 8.47536, 11.6035 8.37002, 11.9619 8.36945, 12.4783 8.37002, 12.8842 8.52575, 13.1796 8.83719, 13.475 9.14864, 13.6291 9.45092, 13.6416 9.74347, 13.9061 9.39596, 14.2737 9.07994, 14.7454 8.79597, 15.2172 8.512, 15.7645 8.37002, 16.3868 8.36945, 16.771 8.37002, 17.1237 8.43872, 17.4443 8.57613, 17.7649 8.71353, 18.0133 8.93509, 18.1891 9.23967, 18.3402 9.50302, 18.4221 9.72286, 18.4347 9.8992, 18.7118 9.50874, 19.0954 9.15665, 19.586 8.84177, 20.0767 8.52746, 20.652 8.37002, 21.3121 8.36945, 21.6831 8.37002, 22.0295 8.43872, 22.3501 8.57613, 22.6707 8.71353, 22.9226 8.93509, 23.1047 9.23967, 23.2936 9.55168, 23.3852 9.90263, 23.3783 10.2931 L 23.3783 10.3389 C 23.3657 10.7305, 23.3096 11.1244, 23.2089 11.5205, 23.064 12.077, 22.8974 12.6238, 22.7085 13.1608, 22.5201 13.6984, 22.322 14.2417, 22.1142 14.7907, 21.9253 15.2859, 21.8308 15.701, 21.8308 16.0365, 21.8308 16.3119, 21.9505 16.4493, 22.1898 16.4487, 22.4039 16.4493, 22.5968 16.3852, 22.7697 16.2569, 22.9426 16.1287, 23.1001 15.9563, 23.2415 15.7394, 23.3835 15.523, 23.5106 15.2665, 23.6239 14.9699, 23.7373 14.6739, 23.8375 14.3608, 23.9256 14.0304, 23.9634 13.8724, 24.0739 13.7928, 24.256 13.7923 L 24.4632 13.7923 C 24.5331 13.7928, 24.6052 13.814, 24.6802 13.8564, 24.7054 13.9119, 24.718 13.9577, 24.718 13.9938, 24.718 14.019, 24.7088 14.0465, 24.6899 14.0762 Z" stroke="none" fill="#000000" />
			<rect />
		</svg>
	</g>
	<path d="M 0 -24.3159 L 0 24.3159" fill="none" stroke="#000000" stroke-width="2.4000001" stroke-linecap="round" stroke-linejoin="round" marker-end="url(#CustomMarker-01)" transform="matrix(0.555556 0 0 0.555556 237.447 184.411)" />
	<g transform="matrix(1 0 -0 1 247.957 13.093)">
		<svg width="77.9989777" height="47.9999886">
			<defs />
			<path d="M 8.50312 13.3826 C 8.50312 13.8977, 8.38923 14.392, 8.16144 14.8644, 7.93365 15.3374, 7.62843 15.7413, 7.24579 16.0757, 6.81489 16.4533, 6.33855 16.7327, 5.81789 16.9151, 5.29723 17.098, 4.753 17.1888, 4.18577 17.1888, 3.67464 17.1888, 3.17586 17.117, 2.68886 16.9734, 2.20186 16.8298, 1.76311 16.6239, 1.37149 16.3546, 0.979875 16.0852, 0.667365 15.7548, 0.432842 15.3626, 0.19888 14.971, 0.0816184 14.5204, 0.0816184 14.011, 0.0816184 13.6284, 0.20954 13.3428, 0.465383 13.1543, 0.721226 12.9658, 0.990535 12.8715, 1.27387 12.8709, 1.57011 12.8715, 1.84559 12.9658, 2.10143 13.1543, 2.35728 13.3428, 2.4852 13.6284, 2.4852 14.011, 2.4852 14.2388, 2.44087 14.429, 2.3511 14.5816, 2.2619 14.7342, 2.148 14.8616, 2.00886 14.9631, 1.87028 15.0652, 1.7115 15.1275, 1.53308 15.1511, 1.44107 15.1758, 1.35466 15.1875, 1.27387 15.187, 1.1942 15.1875, 1.18186 15.1937, 1.23684 15.2049, 1.42816 15.5405, 1.80407 15.8373, 2.36513 16.0942, 2.92619 16.3517, 3.5327 16.4802, 4.18577 16.4797, 4.49435 16.4802, 4.78218 16.4039, 5.05036 16.2513, 5.31855 16.0987, 5.54241 15.8939, 5.72083 15.6358, 5.94301 15.3014, 6.09393 14.9424, 6.1736 14.5592, 6.25383 14.1765, 6.29367 13.7843, 6.29367 13.3826, 6.29367 12.9702, 6.25383 12.5741, 6.1736 12.1937, 6.09393 11.8139, 5.94301 11.4621, 5.72083 11.1384, 5.53568 10.8758, 5.31069 10.6632, 5.04587 10.5016, 4.78105 10.34, 4.49435 10.2592, 4.18577 10.2586 L 2.8454 10.2586 C 2.66698 10.2592, 2.5716 10.1756, 2.55926 10.0073 L 2.55926 9.90854 C 2.55926 9.83728, 2.58114 9.78062, 2.62378 9.73798, 2.67932 9.68468, 2.75002 9.65775, 2.83642 9.65718, 3.0154 9.63362, 3.19999 9.62184, 3.39075 9.62128, 3.5759 9.62184, 3.75824 9.61005, 3.93666 9.58537, 4.26937 9.5618, 4.55887 9.45913, 4.80518 9.27623, 5.05204 9.09388, 5.25851 8.86048, 5.42459 8.57602, 5.59122 8.29213, 5.71746 7.96447, 5.80386 7.59305, 5.89027 7.22219, 5.93347 6.84179, 5.93347 6.45241, 5.93347 6.16571, 5.90261 5.8936, 5.84089 5.63607, 5.77918 5.37911, 5.66528 5.15412, 5.49865 4.96224, 5.1536 4.56781, 4.71597 4.37313, 4.18577 4.37874, 3.6191 4.3793, 3.10012 4.4859, 2.62883 4.69798, 2.15754 4.91062, 1.8411 5.13953, 1.68064 5.38415, 1.638 5.39089, 1.65932 5.39369, 1.74572 5.39313, 1.9679 5.39369, 2.17718 5.45934, 2.37411 5.59062, 2.67035 5.76455, 2.81791 6.05799, 2.81791 6.47037, 2.81791 6.81822, 2.70569 7.08024, 2.48071 7.25641, 2.25572 7.43314, 2.00437 7.52123, 1.72721 7.52067, 1.45621 7.52123, 1.20205 7.43483, 0.964726 7.2609, 0.727398 7.08753, 0.608453 6.82383, 0.608453 6.47037, 0.608453 6.03386, 0.713371 5.64841, 0.922647 5.3129, 1.13248 4.97795, 1.40179 4.69069, 1.73169 4.45111, 2.0616 4.2121, 2.442 4.0292, 2.87345 3.90352, 3.30491 3.77784, 3.74253 3.715, 4.18577 3.71444, 4.66043 3.715, 5.11993 3.77784, 5.56373 3.90352, 6.00753 4.0292, 6.42664 4.22388, 6.8205 4.48646, 7.14143 4.71425, 7.41074 4.99422, 7.62955 5.32637, 7.84837 5.65851, 7.95777 6.03386, 7.95777 6.45241, 7.95777 6.87208, 7.88259 7.26707, 7.73167 7.63793, 7.58074 8.00935, 7.38044 8.34431, 7.13077 8.64335, 6.8811 8.94296, 6.58374 9.20609, 6.23869 9.43332, 5.89363 9.66111, 5.63442 9.80418, 5.46162 9.86365, 5.60974 9.88217, 5.86278 9.97082, 6.22017 10.129, 6.57757 10.2878, 6.91925 10.4988, 7.24579 10.7613, 7.62843 11.0913, 7.93365 11.4846, 8.16144 11.9424, 8.38923 12.4002, 8.50312 12.8805, 8.50312 13.3826 Z" stroke="none" fill="#000000" />
			<path d="M 24.8411 14.0762 C 24.7655 14.4003, 24.6527 14.738, 24.5016 15.089, 24.3504 15.4405, 24.1695 15.7594, 23.9588 16.0462, 23.7482 16.3336, 23.5014 16.5729, 23.2186 16.7647, 22.9358 16.9571, 22.6083 17.0533, 22.2367 17.0533, 21.9224 17.0533, 21.6522 16.9863, 21.4255 16.8518, 21.1994 16.7178, 21.0282 16.5409, 20.9114 16.321, 20.7952 16.1012, 20.7305 15.8447, 20.7179 15.551 L 20.7179 15.4777 C 20.7179 15.2155, 20.7717 14.9499, 20.8782 14.6808, 21.086 14.1438, 21.2778 13.6096, 21.4541 13.0783, 21.6304 12.5471, 21.7908 12.0129, 21.935 11.4747, 22.0358 11.1209, 22.1051 10.7763, 22.1428 10.4396, 22.1554 10.3549, 22.1617 10.2633, 22.1617 10.1648, 22.1617 9.95187, 22.1303 9.75034, 22.0673 9.56027, 21.9539 9.17612, 21.7152 8.98375, 21.3499 8.98318, 20.7087 8.98375, 20.1551 9.20531, 19.6896 9.64786, 19.2242 10.091, 18.8183 10.6784, 18.4725 11.4106, 18.2778 12.2419, 18.07 13.0709, 17.8496 13.8982, 17.6298 14.726, 17.4128 15.5516, 17.1987 16.3754, 17.1425 16.6021, 17.0263 16.771, 16.85 16.8838, 16.6737 16.9972, 16.5008 17.0533, 16.3307 17.0533, 16.1487 17.0533, 15.9975 16.9926, 15.8779 16.8701, 15.7966 16.7911, 15.7525 16.6811, 15.7456 16.5403, 15.7456 16.4739, 15.7519 16.4063, 15.7645 16.3388 L 17.0286 11.4747 C 17.1294 11.1209, 17.1987 10.7763, 17.2364 10.4396 L 17.2364 10.1648 C 17.2364 9.94557, 17.2112 9.74405, 17.1609 9.56027, 17.0481 9.17612, 16.8093 8.98375, 16.4441 8.98318, 15.8029 8.98375, 15.2493 9.20531, 14.7838 9.64786, 14.3184 10.091, 13.9096 10.6784, 13.5569 11.4106 L 12.2642 16.3754 C 12.2081 16.6021, 12.093 16.771, 11.9201 16.8838, 11.7472 16.9972, 11.5726 17.0533, 11.3963 17.0533, 11.2079 17.0533, 11.0631 16.9926, 10.9623 16.8701, 10.881 16.7911, 10.8398 16.6811, 10.8398 16.5403, 10.8398 16.4859, 10.8461 16.4189, 10.8587 16.3388 L 12.3111 10.6686 C 12.4119 10.2725, 12.4623 9.93011, 12.4623 9.64271 L 12.4623 9.42287 C 12.4314 9.13032, 12.2837 8.98375, 12.0192 8.98318, 11.7421 8.98375, 11.5108 9.20703, 11.3253 9.65244, 11.1398 10.0984, 10.9594 10.6784, 10.7831 11.3923, 10.7138 11.5578, 10.5976 11.6431, 10.4339 11.6488 L 10.2169 11.6488 C 10.0658 11.6494, 9.99018 11.5732, 9.99018 11.4198 L 9.99018 11.3557 C 10.0658 11.0694, 10.1511 10.7562, 10.2455 10.4173, 10.34 10.0784, 10.4659 9.75779, 10.6228 9.4555, 10.7802 9.15322, 10.9783 8.89673, 11.2171 8.68605, 11.4564 8.47536, 11.7547 8.37002, 12.113 8.36945, 12.6295 8.37002, 13.0354 8.52575, 13.3308 8.83719, 13.6262 9.14864, 13.7802 9.45092, 13.7928 9.74347, 14.0573 9.39596, 14.4248 9.07994, 14.8966 8.79597, 15.3683 8.512, 15.9157 8.37002, 16.538 8.36945, 16.9221 8.37002, 17.2748 8.43872, 17.5954 8.57613, 17.916 8.71353, 18.1645 8.93509, 18.3402 9.23967, 18.4914 9.50302, 18.5732 9.72286, 18.5858 9.8992, 18.8629 9.50874, 19.2465 9.15665, 19.7372 8.84177, 20.2278 8.52746, 20.8032 8.37002, 21.4633 8.36945, 21.8343 8.37002, 22.1806 8.43872, 22.5012 8.57613, 22.8218 8.71353, 23.0737 8.93509, 23.2558 9.23967, 23.4447 9.55168, 23.5363 9.90263, 23.5295 10.2931 L 23.5295 10.3389 C 23.5169 10.7305, 23.4608 11.1244, 23.36 11.5205, 23.2152 12.077, 23.0486 12.6238, 22.8596 13.1608, 22.6713 13.6984, 22.4732 14.2417, 22.2654 14.7907, 22.0764 15.2859, 21.982 15.701, 21.982 16.0365, 21.982 16.3119, 22.1016 16.4493, 22.3409 16.4487, 22.5551 16.4493, 22.748 16.3852, 22.9209 16.2569, 23.0938 16.1287, 23.2512 15.9563, 23.3926 15.7394, 23.5346 15.523, 23.6617 15.2665, 23.7751 14.9699, 23.8884 14.6739, 23.9886 14.3608, 24.0768 14.0304, 24.1146 13.8724, 24.2251 13.7928, 24.4071 13.7923 L 24.6144 13.7923 C 24.6842 13.7928, 24.7564 13.814, 24.8314 13.8564, 24.8565 13.9119, 24.8691 13.9577, 24.8691 13.9938, 24.8691 14.019, 24.86 14.0465, 24.8411 14.0762 Z" stroke="none" fill="#000000" />
			<rect />
		</svg>
	</g>
</svg>
