<?xml version="1.0"?>
<svg xmlns="http://www.w3.org/2000/svg" xmlns:xlink="http://www.w3.org/1999/xlink" width="705.261963" height="315.813843">
	<defs>
		<marker id="CustomMarker-01" markerUnits="strokeWidth" markerWidth="9" markerHeight="9" viewBox="-9 -4.5 9 9" orient="auto-start-reverse">
			<path d="M 0 -0 L -6 -3, -6 -0.5, -6 0.5, -6 3 Z" fill="#E50500" stroke="#E50500" stroke-linejoin="round" />
		</marker>
		<marker id="CustomMarker-02" markerUnits="strokeWidth" markerWidth="9" markerHeight="9" viewBox="-9 -4.5 9 9" orient="auto-start-reverse">
			<path d="M 0 -0 L -6 -3, -6 -0.5, -6 0.5, -6 3 Z" fill="#E50500" stroke="#E50500" stroke-linejoin="round" />
		</marker>
		<marker id="CustomMarker-03" markerUnits="strokeWidth" markerWidth="9" markerHeight="9" viewBox="-9 -4.5 9 9" orient="auto-start-reverse">
			<path d="M 0 -0 L -6 -3, -6 -0.5, -6 0.5, -6 3 Z" fill="#E50500" stroke="#E50500" stroke-linejoin="round" />
		</marker>
	</defs>
	<rect x="-0" y="-0" width="705.261963" height="315.813843" stroke="none" fill="#FFFFFF" />
	<path d="M -106.599 -69.2566 L 106.599 -69.2566, 106.599 69.2566, -106.599 69.2566 Z" fill="none" stroke="#000000" stroke-width="2" stroke-linecap="round" stroke-linejoin="round" transform="matrix(0.5 0 -0 0.5 313.866 87.5611)" />
	<path d="M -21.478 25.3648 C -35.4866 25.3648, -46.8428 14.0086, -46.8428 2.028e-005, -46.8428 -14.0086, -35.4866 -25.3648, -21.478 -25.3648 L 21.4779 -25.3648 C 35.4865 -25.3649, 46.8428 -14.0087, 46.8428 -3.61352e-005, 46.8428 14.0086, 35.4866 25.3648, 21.478 25.3648, 21.478 25.3648, 21.478 25.3648, 21.478 25.3648 Z" stroke="none" fill="#000000" fill-opacity="0.133333325" transform="matrix(0.25 0.433013 -0.433013 0.25 327.269 87.5611)" />
	<path d="M -21.478 25.3648 C -35.4866 25.3648, -46.8428 14.0086, -46.8428 2.028e-005, -46.8428 -14.0086, -35.4866 -25.3648, -21.478 -25.3648 L 21.4779 -25.3648 C 35.4865 -25.3649, 46.8428 -14.0087, 46.8428 -3.61352e-005, 46.8428 14.0086, 35.4866 25.3648, 21.478 25.3648, 21.478 25.3648, 21.478 25.3648, 21.478 25.3648 Z" fill="none" stroke="#000000" stroke-width="2" stroke-linecap="round" stroke-linejoin="round" transform="matrix(0.25 0.433013 -0.433013 0.25 327.269 87.5611)" />
	<path d="M -35.5432 -32.1241 L 35.5432 -32.1241, 35.5432 32.1241, -35.5432 32.1241 Z" fill="none" stroke="#000000" stroke-width="2" stroke-linecap="round" stroke-linejoin="round" stroke-dasharray="7.01, 4.99" transform="matrix(0.5 0 -0 0.5 281.855 87.5611)" />
	<path d="M -50.6482 -10.4815 L 22.5082 -10.4815, 22.5082 -26.2037, 50.6482 0, 22.5082 26.2037, 22.5082 10.4815, -50.6482 10.4815 Z" stroke="none" fill="#9F9F9F" fill-opacity="0.717647016" transform="matrix(0.5 0 -0 0.5 206.857 85.4804)" />
	<path d="M -50.6482 -10.4815 L 22.5082 -10.4815, 22.5082 -26.2037, 50.6482 0, 22.5082 26.2037, 22.5082 10.4815, -50.6482 10.4815 Z" fill="none" stroke="#000000" stroke-width="2" stroke-linecap="round" stroke-linejoin="round" transform="matrix(0.5 0 -0 0.5 206.857 85.4804)" />
	<path d="M -36.2497 52.0518 C -64.997 32.0315, -72.0718 -7.50247, -52.0516 -36.2498, -48.4159 -41.4705, -44.0298 -46.0942, -39.0544 -49.9818 L -28.2487 -56.793" fill="none" stroke="#E50500" stroke-width="2.66666675" stroke-linecap="round" stroke-linejoin="round" marker-end="url(#CustomMarker-01)" transform="matrix(0.5 0 -0 0.5 109.951 87.5611)" />
	<g transform="matrix(1 0 -0 1 9.25002 9.25001)">
		<svg width="246.125534" height="63.0318985">
			<defs />
			<path d="M 19.453 13.8918 L 19.453 16.2636, 11.5864 16.2636, 11.5864 18.8565 C 11.5864 19.8892, 11.4105 20.6153, 11.0588 21.0374, 10.707 21.4595, 10.0889 21.6705, 9.20454 21.6705, 8.15683 21.6705, 7.11414 21.6303, 6.07899 21.5499 L 5.54006 19.1178 C 6.56265 19.2397, 7.40434 19.3, 8.06638 19.2987, 8.38421 19.3, 8.61159 19.2033, 8.74978 19.0086, 8.88797 18.8151, 8.95706 18.4897, 8.95706 18.0324 L 8.95706 16.2636, 0.737419 16.2636, 0.737419 13.8918, 8.95706 13.8918, 8.95706 11.52, 2.18713 11.52, 2.18713 9.12815, 8.95706 9.12815, 8.95706 6.69605 C 6.37672 6.8581, 4.09161 6.97242, 2.10422 7.03775 L 1.93839 4.64585 C 4.05015 4.59308, 6.64807 4.45992, 9.73342 4.2451, 12.8188 4.03154, 15.4443 3.78908, 17.6101 3.52025 L 17.9619 5.93225 C 16.3338 6.12068, 14.2094 6.3154, 11.5864 6.51515 L 11.5864 9.12815, 18.0033 9.12815, 18.0033 11.52, 11.5864 11.52, 11.5864 13.8918 Z" stroke="none" fill="#000000" />
			<path d="M 39.7423 6.65585 C 39.7285 8.60052, 39.6871 10.7512, 39.618 13.1092, 39.5501 15.4684, 39.4534 17.3239, 39.3278 18.6756, 39.2599 19.3741, 39.1356 19.9168, 38.9559 20.3037, 38.7763 20.6932, 38.4961 20.9771, 38.1167 21.158, 37.7374 21.3389, 37.2235 21.4432, 36.5741 21.4695, 35.7198 21.4972, 34.9334 21.4633, 34.2148 21.369 L 33.7174 18.9369 C 34.5038 19.0726, 35.1872 19.1392, 35.7676 19.1379, 36.2223 19.1392, 36.5326 19.0287, 36.6984 18.8076, 36.8643 18.5865, 36.9823 18.148, 37.0502 17.4897, 37.1607 16.4596, 37.2411 15.1494, 37.2889 13.5615, 37.3379 11.9736, 37.3617 10.4698, 37.3617 9.04775 L 35.0842 9.04775 C 34.9736 11.5552, 34.8254 13.4748, 34.6394 14.8077, 34.4535 16.1418, 34.1143 17.3503, 33.6244 18.4357, 33.1345 19.5211, 32.3656 20.7057, 31.3154 21.9921 L 29.1635 20.5248 C 29.6735 19.9495, 30.088 19.4407, 30.4046 18.9972 L 28.9562 19.7208, 28.6044 18.756 C 25.9261 19.3465, 23.9387 19.7686, 22.641 20.0223, 22.2415 20.0902, 21.9099 20.163, 21.6473 20.2434 L 20.9438 17.7912 C 21.2064 17.6857, 21.3898 17.5714, 21.4928 17.4508, 21.5958 17.3302, 21.7101 17.1556, 21.8345 16.9269, 22.0556 16.54, 22.3558 15.8365, 22.7352 14.8177, 23.1146 13.8001, 23.4638 12.7876, 23.7804 11.7813 L 21.1096 11.7813, 21.1096 9.48995, 30.3632 9.48995, 30.3632 11.7813, 26.3884 11.7813 C 26.0995 12.7072, 25.7364 13.7398, 25.3017 14.878, 24.8671 16.0174, 24.5116 16.8679, 24.2352 17.4294 L 25.499 17.1681, 27.7966 16.6656 C 27.3972 15.6883, 27.0102 14.8039, 26.6371 14.0124 L 28.7489 13.2486 C 29.2464 14.2813, 29.9561 15.9634, 30.8807 18.2937, 31.3229 17.5714, 31.6684 16.8114, 31.9171 16.0137, 32.1659 15.2172, 32.348 14.2825, 32.4649 13.2097, 32.583 12.1381, 32.6759 10.7512, 32.745 9.04775 L 30.5704 9.04775, 30.5704 6.65585, 32.8267 6.65585, 32.9096 3.15845, 35.2286 3.15845 C 35.2286 4.09812, 35.2085 5.26392, 35.1671 6.65585 Z M 21.9589 4.30415 L 29.8041 4.30415, 29.8041 6.61565, 21.9589 6.61565 Z" stroke="none" fill="#000000" />
			<path d="M 60.4248 11.3391 L 60.4248 13.731, 56.3671 13.731, 56.3671 21.7107, 53.7994 21.7107, 53.7994 13.731, 48.7266 13.731 C 48.6173 14.9785, 48.4075 16.0438, 48.096 16.9282, 47.7857 17.8126, 47.3234 18.6367, 46.7091 19.4005, 46.0948 20.1643, 45.2493 21.0072, 44.1727 21.9318 L 42.164 20.1027 C 43.1313 19.354, 43.8863 18.6744, 44.4315 18.0639, 44.9767 17.4546, 45.3812 16.8151, 45.6425 16.1443, 45.9051 15.4747, 46.0847 14.6707, 46.1802 13.731 L 41.8951 13.731, 41.8951 11.3391, 46.2631 11.3391, 46.2631 11.2587, 46.2631 6.55535, 42.7645 6.55535, 42.7645 4.18355, 59.5141 4.18355, 59.5141 6.55535, 56.3671 6.55535, 56.3671 11.3391 Z M 48.8095 11.3391 L 53.7994 11.3391, 53.7994 6.55535, 48.8095 6.55535, 48.8095 11.0175 Z" stroke="none" fill="#000000" />
			<path d="M 65.2729 2.91725 C 65.7012 3.25392, 66.2502 3.73004, 66.9198 4.3456, 67.5894 4.96242, 68.166 5.5114, 68.6484 5.99255 L 66.8055 7.88195 C 66.3369 7.3606, 65.7854 6.78147, 65.1497 6.14455, 64.5141 5.50889, 63.9827 5.00262, 63.5556 4.62575 Z M 80.3655 18.5952 C 80.3655 19.4809, 80.2624 20.1404, 80.0552 20.5751, 79.8491 21.011, 79.5037 21.3062, 79.02 21.4595, 78.5376 21.614, 77.8128 21.6906, 76.8467 21.6906, 76.1432 21.6906, 75.3631 21.658, 74.5063 21.5901 L 73.9887 19.0977 C 74.9837 19.2196, 75.8115 19.2799, 76.4736 19.2786, 76.8605 19.2799, 77.1469 19.2397, 77.3329 19.1593, 77.5188 19.0789, 77.6469 18.9357, 77.716 18.7272, 77.7851 18.5199, 77.819 18.1945, 77.819 17.751 L 77.819 6.63575, 69.1861 6.63575, 69.1861 4.24385, 80.3655 4.24385 Z M 63.1197 7.68095 L 65.6045 7.68095, 65.6045 21.6705, 63.1197 21.6705 Z" stroke="none" fill="#000000" />
			<rect />
		</svg>
	</g>
	<g transform="matrix(1 0 -0 1 9.25002 170.403)">
		<svg width="248.995972" height="63.0318985">
			<defs />
			<path d="M 19.3086 11.3391 L 19.3086 13.731, 15.2509 13.731, 15.2509 21.7107, 12.6831 21.7107, 12.6831 13.731, 7.61036 13.731 C 7.50107 14.9785, 7.29127 16.0438, 6.97972 16.9282, 6.66943 17.8126, 6.20713 18.6367, 5.59282 19.4005, 4.97852 20.1643, 4.13306 21.0072, 3.05646 21.9318 L 1.04771 20.1027 C 2.01502 19.354, 2.77003 18.6744, 3.31524 18.0639, 3.86046 17.4546, 4.26497 16.8151, 4.52627 16.1443, 4.78882 15.4747, 4.96847 14.6707, 5.06394 13.731 L 0.778875 13.731, 0.778875 11.3391, 5.14686 11.3391, 5.14686 11.2587, 5.14686 6.55535, 1.6482 6.55535, 1.6482 4.18355, 18.3978 4.18355, 18.3978 6.55535, 15.2509 6.55535, 15.2509 11.3391 Z M 7.69327 11.3391 L 12.6831 11.3391, 12.6831 6.55535, 7.69327 6.55535, 7.69327 11.0175 Z" stroke="none" fill="#000000" />
			<path d="M 28.0039 18.5751 C 27.2728 19.0048, 26.2238 19.6555, 24.857 20.5248, 24.5681 20.6995, 24.2704 20.9005, 23.9663 21.1278 L 22.7453 19.4193 C 22.9802 19.2334, 23.1385 19.0563, 23.2214 18.888, 23.3043 18.7209, 23.3458 18.4897, 23.3458 18.1932 L 23.3458 14.9973, 21.4815 14.9973, 21.4815 12.8265, 23.3458 12.8265, 23.3458 11.1381, 22.3521 11.1381, 22.3521 10.4949, 22.2478 10.6356, 20.778 8.94725 C 21.3998 8.1043, 21.9664 7.16965, 22.4764 6.14455, 22.9865 5.11945, 23.4149 4.09058, 23.7591 3.05795 L 25.9336 3.60065 C 25.7402 4.25892, 25.5404 4.82172, 25.3331 5.28905 L 27.7753 5.28905, 27.7753 7.50005, 24.298 7.50005 C 24.0493 7.9435, 23.7666 8.41962, 23.4488 8.92715 L 27.4864 8.92715, 27.4864 11.1381, 25.6849 11.1381, 25.6849 12.8265, 27.8582 12.8265, 27.8582 14.9973, 25.6849 14.9973, 25.6849 17.5902, 27.3205 16.5651 Z M 28.8104 17.0676 L 28.8104 8.66585, 32.9724 8.66585, 32.9724 3.25895, 35.2701 3.25895, 35.2701 8.66585, 39.432 8.66585, 39.432 16.9068, 37.1331 16.9068, 37.1331 10.8165, 31.0679 10.8165, 31.0679 17.0676 Z M 30.7564 8.32415 C 30.426 7.86938, 30.0127 7.34804, 29.5152 6.7576, 29.0177 6.16842, 28.5768 5.66592, 28.1899 5.24885 L 29.8669 3.80165 C 30.6534 4.59308, 31.5302 5.5717, 32.4963 6.73625 Z M 40.0727 5.14835 C 39.0803 6.44982, 38.2034 7.4812, 37.4446 8.24375 L 35.7261 6.79655 C 36.6231 5.9134, 37.4786 4.92222, 38.2926 3.82175 Z M 39.1619 21.972 C 38.5966 21.5035, 37.8353 20.9105, 36.8756 20.1932, 35.9158 19.4771, 35.0226 18.8314, 34.1935 18.2535, 33.7249 19.0048, 33.0277 19.6857, 32.1031 20.2937, 31.1785 20.9042, 29.936 21.4834, 28.3758 22.0323 L 27.2376 19.7409 C 28.7979 19.2736, 29.9637 18.7812, 30.7363 18.2649, 31.5101 17.7498, 32.034 17.1694, 32.3104 16.5262, 32.5867 15.883, 32.7727 15.0187, 32.8681 13.932, 32.9234 13.4107, 32.951 12.6607, 32.951 11.6808 L 35.2286 11.6808 C 35.2286 12.5665, 35.2148 13.3441, 35.1872 14.0124, 35.1595 14.7913, 35.0904 15.4672, 34.9799 16.0425, 35.809 16.5526, 36.7889 17.187, 37.9208 17.9433, 39.0526 18.7008, 39.9421 19.3201, 40.5903 19.8012 Z" stroke="none" fill="#000000" />
			<path d="M 46.7807 9.67085 C 45.9943 10.0477, 45.2569 10.4058, 44.5659 10.7475, 43.8763 11.0892, 43.3662 11.3467, 43.0346 11.52 L 42.061 9.53015 C 42.5308 9.3304, 43.2142 9.02639, 44.1112 8.61685, 45.0081 8.20857, 45.8988 7.79652, 46.7807 7.37945 L 46.7807 3.23885, 49.0997 3.23885, 49.0997 11.7612, 46.7807 11.7612 Z M 50.1349 8.86685 L 53.8622 8.86685, 53.8622 7.19855, 49.8246 7.19855, 49.8246 5.18855, 53.8622 5.18855, 53.8622 3.23885, 56.18 3.23885, 56.18 5.18855, 60.2176 5.18855, 60.2176 7.19855, 56.18 7.19855, 56.18 8.86685, 59.6585 8.86685, 59.6585 10.8366, 50.1349 10.8366 Z M 44.939 7.64075 C 44.2079 6.82418, 43.3725 5.9737, 42.4341 5.08805 L 43.8825 3.72125, 44.1928 4.02275 C 45.2003 4.92222, 45.9742 5.66592, 46.5119 6.25385 Z M 56.5732 17.8716 C 57.6636 18.5023, 59.0932 19.0324, 60.8595 19.4595 L 59.7829 21.7509 C 58.1824 21.3087, 56.8433 20.7836, 55.7667 20.1731, 54.6901 19.5651, 53.7856 18.8515, 53.0544 18.0337, 52.3233 17.2171, 51.6047 16.2046, 50.9012 14.9973, 50.3083 15.5752, 49.7002 16.0903, 49.0796 16.545 L 49.0796 18.9972 C 49.3284 18.9319, 49.8598 18.7774, 50.6738 18.5349, 51.0055 18.4558, 51.7014 18.2611, 52.7642 17.952 L 52.9501 20.2032 C 50.66 20.7937, 49.0935 21.2221, 48.2505 21.4896, 47.7681 21.6379, 47.3058 21.7911, 46.8636 21.9519 L 46.0986 20.1228 C 46.3611 19.9771, 46.5332 19.8327, 46.6161 19.692, 46.699 19.5513, 46.7393 19.3264, 46.7393 19.0173 L 46.7393 18.0525 C 45.4843 18.751, 44.0496 19.4143, 42.4341 20.0424 L 41.4818 17.7912 C 42.8888 17.3365, 44.0974 16.8717, 45.1049 16.3956, 46.1124 15.9207, 47.0445 15.3742, 47.8988 14.7561 L 42.2268 14.7561, 42.2268 12.6456, 50.2392 12.6456 C 50.101 12.2989, 49.9427 11.9773, 49.7618 11.6808 L 52.1436 11.1984 C 52.3371 11.5753, 52.5708 12.0577, 52.8471 12.6456 L 60.1761 12.6456, 60.1761 14.7561, 58.0844 14.7561, 59.244 16.2435 C 58.499 16.7272, 57.6083 17.2699, 56.5732 17.8716 Z M 53.3032 14.7561 C 53.7856 15.4546, 54.2755 16.0375, 54.773 16.5048, 55.6008 16.0375, 56.5254 15.4546, 57.5468 14.7561 Z" stroke="none" fill="#000000" />
			<path d="M 78.5853 11.2788 L 78.5853 19.6605, 81.2147 19.6605, 81.2147 21.369, 62.2918 21.369, 62.2918 19.6605, 64.9211 19.6605, 64.9211 11.2788, 70.4486 11.2788, 70.4901 10.515, 62.9136 10.515, 62.9136 8.92715, 70.6144 8.92715, 70.6773 8.10305, 63.4312 8.10305, 63.4312 3.92225, 80.0765 3.92225, 80.0765 8.10305, 73.0993 8.10305, 73.0365 8.92715, 80.5941 8.92715, 80.5941 10.515, 72.9121 10.515, 72.8719 11.2788 Z M 68.2954 5.44985 L 65.8118 5.44985, 65.8118 6.65585, 68.2954 6.65585 Z M 70.47 5.44985 L 70.47 6.65585, 72.995 6.65585, 72.995 5.44985 Z M 75.1897 6.65585 L 77.716 6.65585, 77.716 5.44985, 75.1897 5.44985 Z M 76.1633 13.5501 L 76.1633 12.726, 67.3432 12.726, 67.3432 13.5501 Z M 67.3432 15.5802 L 76.1633 15.5802, 76.1633 14.7963, 67.3432 14.7963 Z M 76.1633 17.6505 L 76.1633 16.7862, 67.3432 16.7862, 67.3432 17.6505 Z M 76.1633 18.9168 L 67.3432 18.9168, 67.3432 19.6605, 76.1633 19.6605 Z" stroke="none" fill="#000000" />
			<rect />
		</svg>
	</g>
	<path d="M -106.599 -69.2566 L 106.599 -69.2566, 106.599 69.2566, -106.599 69.2566 Z" fill="none" stroke="#000000" stroke-width="2" stroke-linecap="round" stroke-linejoin="round" transform="matrix(0.5 0 -0 0.5 296.783 247.245)" />
	<path d="M -106.599 -69.2566 L 106.599 -69.2566, 106.599 69.2566, -106.599 69.2566 Z" fill="none" stroke="#000000" stroke-width="2" stroke-linecap="round" stroke-linejoin="round" transform="matrix(0.5 0 -0 0.5 98.4908 87.5611)" />
	<path d="M -21.4781 25.3651 C -35.4869 25.3651, -46.8432 14.0088, -46.8432 2.028e-005, -46.8432 -14.0087, -35.4869 -25.3651, -21.4782 -25.3651 L 21.4781 -25.3651 C 35.4869 -25.3651, 46.8432 -14.0088, 46.8432 -3.61352e-005, 46.8432 14.0087, 35.4869 25.3651, 21.4782 25.3651, 21.4782 25.3651, 21.4782 25.3651, 21.4782 25.3651 Z" stroke="none" fill="#000000" fill-opacity="0.133333325" transform="matrix(0.5 0 -0 0.5 111.894 87.5611)" />
	<path d="M -21.4781 25.3651 C -35.4869 25.3651, -46.8432 14.0088, -46.8432 2.028e-005, -46.8432 -14.0087, -35.4869 -25.3651, -21.4782 -25.3651 L 21.4781 -25.3651 C 35.4869 -25.3651, 46.8432 -14.0088, 46.8432 -3.61352e-005, 46.8432 14.0087, 35.4869 25.3651, 21.4782 25.3651, 21.4782 25.3651, 21.4782 25.3651, 21.4782 25.3651 Z" fill="none" stroke="#000000" stroke-width="2" stroke-linecap="round" stroke-linejoin="round" transform="matrix(0.5 0 -0 0.5 111.894 87.5611)" />
	<path d="M -35.5432 -32.1241 L 35.5432 -32.1241, 35.5432 32.1241, -35.5432 32.1241 Z" fill="none" stroke="#000000" stroke-width="2" stroke-linecap="round" stroke-linejoin="round" stroke-dasharray="7.01, 4.99" transform="matrix(0.5 0 -0 0.5 33.5625 87.5611)" />
	<path d="M -21.4785 25.3645 C -35.4869 25.3645, -46.843 14.0085, -46.843 2.02801e-005, -46.843 -14.0084, -35.487 -25.3645, -21.4785 -25.3645 L 21.4784 -25.3645 C 35.4869 -25.3646, 46.843 -14.0085, 46.843 -3.74839e-005, 46.843 14.0084, 35.487 25.3645, 21.4785 25.3645, 21.4785 25.3645, 21.4785 25.3645, 21.4785 25.3645 Z" fill="none" stroke="#AB00E5" stroke-width="10.666667" stroke-linecap="round" stroke-linejoin="round" transform="matrix(0.25 0.433013 -0.433013 0.25 75.2837 255.248)" />
	<g transform="matrix(1 0 -0 1 34.0111 285.282)">
		<svg width="329.942139" height="50.968071">
			<defs />
			<path d="M 7.28905 12.8802 C 7.28905 13.3216, 7.19142 13.7453, 6.99617 14.1502, 6.80092 14.5557, 6.53931 14.9019, 6.21133 15.1885, 5.84151 15.5122, 5.43322 15.7517, 4.98694 15.908, 4.54066 16.0647, 4.07417 16.1427, 3.58798 16.1427, 3.14939 16.1427, 2.72186 16.0811, 2.30443 15.958, 1.887 15.8349, 1.51093 15.6584, 1.17526 15.4275, 0.839587 15.1967, 0.571721 14.9135, 0.370701 14.5773, 0.169682 14.2416, 0.0691717 13.8555, 0.0691717 13.4188, 0.0691717 13.0908, 0.178819 12.846, 0.398113 12.6844, 0.617407 12.5229, 0.848724 12.4421, 1.09158 12.4416, 1.3455 12.4421, 1.58163 12.5229, 1.80092 12.6844, 2.02022 12.846, 2.12986 13.0908, 2.12986 13.4188, 2.12986 13.614, 2.09187 13.7771, 2.01493 13.9079, 1.93846 14.0387, 1.84084 14.1478, 1.72157 14.2349, 1.60279 14.3224, 1.46669 14.3758, 1.31328 14.396, 1.23441 14.4172, 1.16035 14.4273, 1.09158 14.4268, 1.02329 14.4273, 1.01271 14.4325, 1.05984 14.4422, 1.22383 14.7297, 1.54604 14.9841, 2.02695 15.2044, 2.50786 15.4251, 3.0282 15.5353, 3.58798 15.5348, 3.85248 15.5353, 4.09918 15.4699, 4.32906 15.3391, 4.55893 15.2082, 4.75081 15.0327, 4.90374 14.8115, 5.09418 14.5249, 5.22355 14.2171, 5.29232 13.8886, 5.36108 13.5607, 5.39523 13.2245, 5.39523 12.8802, 5.39523 12.5267, 5.36108 12.1872, 5.29232 11.8611, 5.22355 11.5356, 5.09418 11.234, 4.90374 10.9565, 4.74504 10.7315, 4.5522 10.5492, 4.32521 10.4107, 4.09822 10.2722, 3.85248 10.203, 3.58798 10.2025 L 2.43909 10.2025 C 2.28616 10.203, 2.20392 10.1313, 2.19334 9.98703 L 2.19334 9.90239 C 2.19334 9.84131, 2.2121 9.79274, 2.24865 9.75619, 2.29626 9.7105, 2.35685 9.68742, 2.43091 9.68694, 2.58432 9.66674, 2.74302 9.65664, 2.90653 9.65616, 3.06523 9.65664, 3.22104 9.64654, 3.37397 9.62538, 3.65963 9.60519, 3.90778 9.51718, 4.11938 9.3604, 4.33098 9.20411, 4.50795 9.00405, 4.6503 8.76023, 4.79265 8.51689, 4.90086 8.23604, 4.97492 7.91768, 5.04898 7.5998, 5.08601 7.27374, 5.08601 6.93999, 5.08601 6.69425, 5.05956 6.46101, 5.00666 6.24027, 4.95376 6.02002, 4.85613 5.82717, 4.7133 5.6627, 4.41754 5.32462, 4.04243 5.15775, 3.58798 5.16256, 3.10226 5.16304, 2.65694 5.25441, 2.25298 5.43619, 1.84901 5.61846, 1.57778 5.81467, 1.44024 6.02434, 1.40369 6.03011, 1.42197 6.03252, 1.49603 6.03204, 1.68647 6.03252, 1.86584 6.08879, 2.03464 6.20132, 2.28856 6.3504, 2.41504 6.60191, 2.41504 6.95538, 2.41504 7.25354, 2.31886 7.47813, 2.12602 7.62913, 1.93317 7.78062, 1.71772 7.85612, 1.48016 7.85564, 1.2474 7.85612, 1.02955 7.78206, 0.826121 7.63298, 0.622697 7.48438, 0.520745 7.25835, 0.520745 6.95538, 0.520745 6.58123, 0.610674 6.25085, 0.790534 5.96327, 0.970394 5.67617, 1.20123 5.42994, 1.484 5.22459, 1.76678 5.01973, 2.09283 4.86295, 2.46265 4.75523, 2.83295 4.6475, 3.20806 4.59364, 3.58798 4.59316, 3.99483 4.59364, 4.38869 4.6475, 4.76909 4.75523, 5.14949 4.86295, 5.50872 5.02983, 5.8468 5.25489, 6.12188 5.45014, 6.35272 5.69011, 6.54027 5.97481, 6.72783 6.25951, 6.8216 6.58123, 6.8216 6.93999, 6.8216 7.29971, 6.75716 7.63827, 6.6278 7.95615, 6.49843 8.27451, 6.32675 8.56161, 6.11274 8.81794, 5.89874 9.07474, 5.64386 9.30029, 5.34762 9.49506, 5.05186 9.69031, 4.82968 9.81294, 4.68156 9.86391, 4.80852 9.87978, 5.02541 9.95577, 5.33175 10.0914, 5.63857 10.2275, 5.93144 10.4083, 6.21133 10.6334, 6.53931 10.9161, 6.80092 11.2533, 6.99617 11.6457, 7.19142 12.0381, 7.28905 12.4498, 7.28905 12.8802 Z" stroke="none" fill="#7F7F7F" />
			<path d="M 21.2411 10.3655 C 21.2411 11.0829, 21.1189 11.7729, 20.8736 12.4348, 20.6282 13.0973, 20.2523 13.695, 19.7454 14.2284, 19.2763 14.726, 18.7291 15.1176, 18.1039 15.4027, 17.4787 15.6883, 16.8182 15.8302, 16.1224 15.8302 L 9.96774 15.8302, 9.96774 15.1785 C 10.2646 15.179, 10.5478 15.175, 10.8172 15.1672, 11.0871 15.1593, 11.2917 15.1319, 11.4316 15.0843, 11.5071 15.0587, 11.5665 15.0062, 11.6097 14.9277, 11.6529 14.8492, 11.6745 14.7653, 11.6745 14.676 L 11.6745 5.82727 C 11.6745 5.73894, 11.6529 5.65503, 11.6097 5.57651, 11.5665 5.49799, 11.5071 5.44549, 11.4316 5.41899, 11.2917 5.37237, 11.0871 5.34636, 10.8172 5.34096, 10.5478 5.33606, 10.2646 5.33311, 9.96774 5.33262 L 9.96774 4.68879, 16.1224 4.68879 C 16.829 4.68928, 17.492 4.83748, 18.1118 5.1329, 18.732 5.4288, 19.2792 5.83561, 19.7532 6.35332, 20.2548 6.90882, 20.6282 7.53155, 20.8736 8.22249, 21.1189 8.91342, 21.2411 9.62792, 21.2411 10.3655 Z M 19.4215 10.3655 C 19.4215 9.72753, 19.369 9.09303, 19.264 8.46196, 19.159 7.83138, 18.918 7.2592, 18.5402 6.7459, 18.206 6.2964, 17.7923 5.94848, 17.2991 5.70214, 16.806 5.45628, 16.2706 5.33311, 15.6935 5.33262 L 14.0196 5.33262 C 13.896 5.33311, 13.7694 5.33606, 13.6398 5.34096, 13.5103 5.34636, 13.416 5.36992, 13.3562 5.41114, 13.3081 5.44843, 13.2796 5.50732, 13.2718 5.58829, 13.2639 5.66975, 13.2595 5.74924, 13.2595 5.82727 L 13.2595 14.676 C 13.2595 14.7653, 13.2639 14.8482, 13.2718 14.9238, 13.2796 14.9999, 13.3081 15.0558, 13.3562 15.0921, 13.416 15.1343, 13.5117 15.1593, 13.6437 15.1672, 13.7757 15.175, 13.9009 15.179, 14.0196 15.1785 L 15.6935 15.1785 C 16.2544 15.179, 16.7844 15.0651, 17.2829 14.8374, 17.7815 14.6097, 18.2006 14.276, 18.5402 13.8359, 18.9229 13.3442, 19.1658 12.7975, 19.2679 12.1954, 19.3705 11.5938, 19.4215 10.9838, 19.4215 10.3655 Z" stroke="none" fill="#7F7F7F" />
			<path d="M 33.8576 10.2612 L 31.6546 10.9527, 31.6546 15.246 C 31.6546 15.7616, 31.5943 16.1415, 31.4727 16.3877, 31.3521 16.6349, 31.1481 16.8008, 30.8607 16.8862, 30.5732 16.9726, 30.1371 17.0148, 29.5512 17.0148, 29.1763 17.0148, 28.7572 16.9887, 28.2929 16.9344 L 28.0115 15.5998 C 28.5864 15.6862, 29.0225 15.7294, 29.32 15.7284, 29.728 15.7294, 29.9934 15.6681, 30.115 15.5445, 30.2366 15.4219, 30.2969 15.1616, 30.2969 14.7636 L 30.2969 11.3708, 27.7633 12.1748, 27.4809 10.8723 C 28.1994 10.6914, 29.1381 10.4281, 30.2969 10.0844 L 30.2969 6.7558, 27.7964 6.7558, 27.7964 5.56588, 30.2969 5.56588, 30.2969 2.55892, 31.6546 2.55892, 31.6546 5.56588, 33.7249 5.56588, 33.7249 6.7558, 31.6546 6.7558, 31.6546 9.68236 C 32.1742 9.52256, 32.8586 9.29744, 33.7088 9.007 Z M 42.7518 3.76492 L 42.7518 5.01916, 39.8534 5.01916, 39.8534 15.1656 C 39.8534 15.6923, 39.776 16.0963, 39.6213 16.3797, 39.4665 16.6641, 39.2183 16.8601, 38.8766 16.9666, 38.5349 17.0741, 38.0595 17.1274, 37.4515 17.1274, 37.0877 17.1274, 36.5188 17.1063, 35.746 17.0631 L 35.4646 15.7445 C 36.1821 15.842, 36.8444 15.8902, 37.4515 15.8892, 37.8384 15.8902, 38.1067 15.8098, 38.2555 15.649, 38.4042 15.4882, 38.4786 15.2149, 38.4786 14.828 L 38.4786 5.01916, 34.2385 5.01916, 34.2385 3.76492 Z" stroke="none" fill="#7F7F7F" />
			<path d="M 51.2156 3.97396 C 50.487 4.25335, 49.7001 4.51967, 48.8549 4.77092, 48.0107 5.02318, 47.2569 5.21312, 46.5946 5.34076 L 46.5946 8.31556, 51.0166 8.31556, 51.0166 9.63412, 46.5946 9.63412, 46.5946 13.9114, 51.0166 12.5768, 51.099 14.0079 C 49.6529 14.4059, 48.1454 14.845, 46.5775 15.3264 L 45.3525 15.7124, 44.7887 14.5224 C 44.9655 14.4059, 45.0902 14.2903, 45.1615 14.1777, 45.2339 14.0652, 45.269 13.9335, 45.269 13.7828 L 45.269 4.2634 C 46.0308 4.12471, 46.9504 3.90863, 48.0268 3.61316, 49.1041 3.3187, 50.0227 3.03127, 50.7845 2.75188 Z M 52.0769 3.8614 L 58.4366 3.8614, 58.4366 13.1074 C 58.4366 13.8692, 58.2989 14.4028, 58.0225 14.7084, 57.7471 15.0139, 57.327 15.1666, 56.7632 15.1656, 56.1673 15.1666, 55.5602 15.1345, 54.9422 15.0692 L 54.6768 13.7828 C 55.2396 13.8692, 55.7753 13.9124, 56.2828 13.9114, 56.6145 13.9124, 56.8356 13.8189, 56.9461 13.631, 57.0567 13.4441, 57.111 13.0973, 57.111 12.5928 L 57.111 5.1478, 53.4176 5.1478, 53.4176 17.2239, 52.0769 17.2239 Z" stroke="none" fill="#7F7F7F" />
			<path d="M 75.0157 5.00308 L 75.0157 5.67844 C 75.0157 7.03016, 74.9805 8.61203, 74.9082 10.423, 74.8358 12.2351, 74.7504 13.7245, 74.6509 14.8923, 74.6067 15.4189, 74.5082 15.8229, 74.3534 16.1063, 74.1987 16.3907, 73.9755 16.5917, 73.6821 16.7093, 73.3896 16.8279, 72.9947 16.8973, 72.4982 16.9184, 72.3766 16.9294, 72.1997 16.9344, 71.9676 16.9344, 71.7806 16.9344, 71.5676 16.9294, 71.3304 16.9184, 71.0932 16.9083, 70.9083 16.8973, 70.7756 16.8862 L 70.3284 16.854, 70.0962 15.5194 C 70.8922 15.6169, 71.5103 15.6651, 71.9515 15.6641, 72.2942 15.6651, 72.5565 15.631, 72.7384 15.5606, 72.9213 15.4913, 73.065 15.3576, 73.1695 15.1586, 73.2741 14.9606, 73.3484 14.6521, 73.3926 14.233, 73.5585 12.4119, 73.6409 10.1607, 73.6409 7.4794 L 73.6409 6.24124, 69.5334 6.24124 C 69.1576 7.15378, 68.7988 7.95175, 68.4571 8.63716 L 67.2973 7.89748 C 67.7285 7.09448, 68.1315 6.19702, 68.5063 5.20508, 68.8822 4.21415, 69.1797 3.27247, 69.4008 2.38204 L 70.7254 2.63932 C 70.4942 3.50864, 70.251 4.29656, 69.9967 5.00308 Z M 65.1275 2.7358 C 64.9728 3.44432, 64.7637 4.24832, 64.4984 5.1478 L 66.834 5.1478, 66.834 16.6128, 61.2522 16.6128, 61.2522 5.1478, 63.0411 5.1478 C 63.3065 4.38802, 63.5376 3.50362, 63.7366 2.4946 Z M 62.5437 9.60196 L 65.5255 9.60196, 65.5255 6.40204, 62.5437 6.40204 Z M 71.1394 13.0431 C 70.7867 12.5084, 70.3565 11.9024, 69.848 11.227, 69.3405 10.5517, 68.9093 10.016, 68.5556 9.61804 L 69.5495 8.86228 C 69.9143 9.27031, 70.3475 9.79592, 70.85 10.4391, 71.3525 11.0823, 71.7917 11.6662, 72.1665 12.1908 Z M 62.5437 10.8401 L 62.5437 15.3425, 65.5255 15.3425, 65.5255 10.8401 Z" stroke="none" fill="#7F7F7F" />
			<path d="M 81.1771 11.7245 L 81.1771 12.7215, 91.826 12.7215, 91.826 13.7667, 88.0171 13.7667 C 88.8231 14.5395, 89.6904 15.445, 90.617 16.4842 L 89.6894 17.3686 C 89.5246 17.1545, 89.204 16.7957, 88.7286 16.2912 L 80.8615 16.8701, 78.5932 17.0309, 78.2947 15.8571 C 78.759 15.8259, 79.1178 15.7134, 79.3711 15.5194, 80.2113 14.9094, 80.9228 14.3255, 81.5077 13.7667 L 77.1189 13.7667, 77.1189 12.7215, 79.8846 12.7215, 79.8846 8.1226 C 79.157 8.50952, 78.2897 8.90047, 77.2847 9.29644 L 76.8043 8.1226 C 77.9972 7.68442, 79.0103 7.22614, 79.8434 6.74876, 80.6776 6.27239, 81.37 5.74879, 81.9218 5.17996 L 77.4174 5.17996, 77.4174 4.07044, 82.8333 4.07044 C 83.187 3.54583, 83.4956 2.96695, 83.7599 2.3338 L 85.0192 2.7358 C 84.8644 3.10162, 84.6443 3.54583, 84.3569 4.07044 L 91.5446 4.07044, 91.5446 5.17996, 87.189 5.17996 C 88.5135 6.49952, 90.1758 7.43216, 92.1738 7.97788 L 91.7265 9.18388 C 90.6783 8.84218, 89.6954 8.40199, 88.7789 7.86532 L 81.1771 7.86532, 81.1771 8.83012, 89.4914 8.83012, 89.4914 9.811, 81.1771 9.811, 81.1771 10.7597, 89.4914 10.7597, 89.4914 11.7245 Z M 83.6283 5.17996 C 83.176 5.75984, 82.6293 6.30154, 81.9881 6.80404 L 87.205 6.80404 C 86.5438 6.29048, 85.991 5.74879, 85.5488 5.17996 Z M 87.7849 15.2943 C 87.4101 14.8983, 87.0181 14.5124, 86.6091 14.1365 L 87.0563 13.7667, 83.2303 13.7667 C 82.4795 14.5184, 81.7228 15.1988, 80.961 15.8088 L 87.7849 15.2943 Z" stroke="none" fill="#7F7F7F" />
			<path d="M 108.276 9.29644 L 108.276 10.5989, 101.751 10.5989, 101.751 14.9084 C 101.751 15.4882, 101.676 15.9254, 101.527 16.2189, 101.379 16.5143, 101.118 16.7204, 100.749 16.838, 100.379 16.9565, 99.841 17.0148, 99.1335 17.0148, 98.5597 17.0148, 97.9526 16.9726, 97.3115 16.8862 L 97.0301 15.5998 C 97.8481 15.7294, 98.5546 15.7938, 99.1506 15.7928, 99.5044 15.7938, 99.7637 15.7566, 99.9295 15.6812, 100.095 15.6068, 100.209 15.4782, 100.269 15.2953, 100.329 15.1134, 100.36 14.829, 100.36 14.442 L 100.36 10.5989, 93.6181 10.5989, 93.6181 9.29644, 100.36 9.29644, 100.36 7.60804, 104.848 4.85836, 94.8603 4.85836, 94.8603 3.58804, 107.2 3.58804, 107.2 4.87444, 101.751 8.203, 101.751 9.29644 Z" stroke="none" fill="#7F7F7F" />
			<rect />
		</svg>
	</g>
	<path d="M -16.8437 28.2202 L 16.8428 -28.2214" fill="none" stroke="#AB00E5" stroke-width="10.666667" stroke-linecap="round" stroke-linejoin="round" transform="matrix(0.5 0 0 0.5 232.67 261.356)" />
	<path d="M -159.375 -0.937501 C -28.125 -81.5626, -10.625 81.5626, 159.375 80.9376" fill="none" stroke="#000000" stroke-width="2" stroke-linecap="round" stroke-linejoin="round" transform="matrix(0.5 0 -0 0.5 145.342 233.278)" />
	<g transform="matrix(1 0 -0 1 216.385 285.282)">
		<svg width="96.0019684" height="50.968071">
			<defs />
			<path d="M 10.6429 2.75188 L 10.6429 5.13172, 14.4861 5.13172, 14.4861 17.1756, 13.1936 17.1756, 13.1936 16.3556, 2.89239 16.3556, 2.89239 17.1756, 1.61704 17.1756, 1.61704 5.13172, 5.45916 5.13172, 5.45916 2.75188, 6.75159 2.75188, 6.75159 5.13172, 9.33544 5.13172, 9.33544 2.75188 Z M 5.45916 10.0361 L 5.45916 6.36988, 2.89239 6.36988, 2.89239 10.0361 Z M 9.33544 10.0361 L 9.33544 6.36988, 6.75159 6.36988, 6.75159 10.0361 Z M 13.1936 10.0361 L 13.1936 6.36988, 10.6429 6.36988, 10.6429 10.0361 Z M 5.45916 11.2904 L 2.89239 11.2904, 2.89239 15.1656, 5.45916 15.1656 Z M 9.33544 15.1656 L 9.33544 11.2904, 6.75159 11.2904, 6.75159 15.1656 Z M 10.6429 11.2904 L 10.6429 15.1656, 13.1936 15.1656, 13.1936 11.2904 Z" stroke="none" fill="#7F7F7F" />
			<path d="M 20.4026 8.13868 C 20.7564 8.46128, 21.1423 8.83112, 21.5614 9.2492, 21.9815 9.66728, 22.3121 10.016, 22.5553 10.2934 L 21.7272 11.1778 C 21.2639 10.5889, 20.8227 10.0743, 20.4026 9.63412 L 20.4026 17.1917, 19.1765 17.1917, 19.1765 9.6502 C 18.6911 11.0984, 18.1223 12.3737, 17.471 13.4772 L 16.6922 12.3516 C 17.1896 11.5054, 17.6509 10.5899, 18.0761 9.60296, 18.5012 8.61706, 18.8409 7.67336, 19.0941 6.77188 L 17.1726 6.77188, 17.1726 5.58196, 19.1765 5.58196, 19.1765 2.54284, 20.4026 2.54284, 20.4026 5.58196, 22.2408 5.58196, 22.2408 6.77188, 20.4026 6.77188 Z M 31.9129 4.7458 L 27.7562 4.7458, 27.7391 7.0774, 31.3662 7.0774, 31.3662 15.1817 C 31.3662 15.6973, 31.2978 16.0852, 31.1591 16.3475, 31.0215 16.6108, 30.8004 16.7877, 30.4968 16.8782, 30.1933 16.9696, 29.7552 17.0148, 29.1803 17.0148, 28.927 17.0148, 28.5351 16.9937, 28.0044 16.9505 L 27.7562 15.7445 C 28.1864 15.8098, 28.6175 15.842, 29.0476 15.841, 29.3682 15.842, 29.6034 15.8129, 29.7521 15.7536, 29.9009 15.6953, 30.0034 15.5908, 30.0587 15.44, 30.1139 15.2903, 30.1411 15.0651, 30.1411 14.7636 L 30.1411 8.25124, 27.723 8.25124 C 27.7009 8.73464, 27.6517 9.18991, 27.5733 9.61804, 28.6125 10.7657, 29.4295 11.7416, 30.0245 12.5446 L 29.2798 13.622 C 28.5733 12.6692, 27.8778 11.7738, 27.1924 10.9366, 26.7844 11.9878, 26.0779 13.0652, 25.0729 14.1687 L 24.1121 13.2843 C 24.9181 12.4381, 25.509 11.6321, 25.8849 10.8652, 26.2608 10.0994, 26.4698 9.2281, 26.514 8.25124 L 24.1121 8.25124, 24.1121 17.1113, 22.887 17.1113, 22.887 7.0774, 26.5301 7.0774, 26.5301 4.7458, 22.3895 4.7458, 22.3895 3.5398, 31.9129 3.5398 Z" stroke="none" fill="#7F7F7F" />
			<rect />
		</svg>
	</g>
	<g transform="matrix(1 0 -0 1 154.533 217.608)">
		<svg width="98.872406" height="50.968071">
			<defs />
			<path d="M 4.03507 7.35076 C 4.31145 6.88042, 4.65918 6.22114, 5.07826 5.37292 L 6.10537 5.8714 C 5.61996 6.8161, 5.06218 7.87738, 4.43305 9.05624, 3.80392 10.2361, 3.31248 11.1255, 2.95872 11.7245 L 5.67423 11.017, 5.70739 12.0622 C 5.21092 12.1707, 4.4823 12.3476, 3.52152 12.5928 L 2.36275 12.8823, 1.25223 13.1878, 0.95475 11.9496 C 1.13163 11.8753, 1.28037 11.7929, 1.40197 11.7014, 1.52358 11.611, 1.64518 11.4733, 1.76578 11.2904, 2.10849 10.7657, 2.66626 9.82306, 3.43911 8.46028, 2.88736 8.53666, 2.36275 8.62711, 1.86528 8.73364, 1.28037 8.86328, 0.921585 8.94871, 0.788925 8.99092 L 0.54069 7.67236 C 0.69546 7.59799, 0.811035 7.53166, 0.88842 7.47236, 0.965805 7.41407, 1.04319 7.33066, 1.12057 7.22212, 1.408 6.72967, 1.77784 6.02818, 2.23009 5.11664, 2.68234 4.20611, 3.06927 3.37498, 3.38886 2.62324 L 4.46521 3.10564 C 4.17879 3.7609, 3.72654 4.67143, 3.10746 5.83924, 2.58888 6.86936, 2.28537 7.4804, 2.19693 7.67236 Z M 15.9433 13.7988 L 15.8277 15.3586 C 15.7946 15.7777, 15.7142 16.0902, 15.5875 16.2993, 15.4609 16.5083, 15.2559 16.6561, 14.9745 16.7415, 14.6931 16.8279, 14.2881 16.8862, 13.7574 16.9184, 13.3374 16.9405, 13.0178 16.9505, 12.7967 16.9505, 12.5977 16.9505, 12.2781 16.9405, 11.8359 16.9184, 11.3173 16.8862, 10.9163 16.8199, 10.6349 16.7174, 10.3535 16.6159, 10.1525 16.442, 10.0309 16.1948, 9.9093 15.9495, 9.84799 15.6008, 9.84799 15.1496 L 9.84799 14.1365, 6.35361 14.1365, 6.35361 8.3638, 9.84799 8.3638, 9.84799 7.14172, 6.85108 7.14172, 6.85108 3.379, 14.0388 3.379, 14.0388 7.14172, 11.0248 7.14172, 11.0248 8.3638, 14.4861 8.3638, 14.4861 14.1365, 11.0248 14.1365, 11.0248 14.9084 C 11.0248 15.2631, 11.0912 15.4993, 11.2238 15.6169, 11.3565 15.7355, 11.6268 15.8048, 12.0349 15.8249, 12.2118 15.837, 12.4761 15.842, 12.8298 15.841, 13.1725 15.842, 13.4318 15.837, 13.6077 15.8249, 13.9283 15.8048, 14.1655 15.7727, 14.3202 15.7294, 14.475 15.6872, 14.5856 15.6038, 14.6519 15.4802, 14.7182 15.3576, 14.7574 15.1666, 14.7675 14.9084 L 14.7835 14.4581, 14.8167 13.5094 Z M 12.7132 4.40812 L 8.15859 4.40812, 8.15859 6.14476, 12.7132 6.14476 Z M 9.84799 10.7758 L 9.84799 9.34468, 7.52946 9.34468, 7.52946 10.7758 Z M 13.3434 10.7758 L 13.3434 9.34468, 11.0248 9.34468, 11.0248 10.7758 Z M 7.52946 11.7406 L 7.52946 13.1556, 9.84799 13.1556, 9.84799 11.7406 Z M 11.0248 11.7406 L 11.0248 13.1556, 13.3434 13.1556, 13.3434 11.7406 Z M 0.457275 15.1817 C 2.25823 14.8079, 4.05216 14.4059, 5.84005 13.9757 L 5.84005 15.2621 C 4.2622 15.638, 2.55571 16.0299, 0.722595 16.436 Z" stroke="none" fill="#7F7F7F" />
			<path d="M 31.8466 9.29644 L 31.8466 10.5989, 25.3211 10.5989, 25.3211 14.9084 C 25.3211 15.4882, 25.2467 15.9254, 25.098 16.2189, 24.9492 16.5143, 24.689 16.7204, 24.3191 16.838, 23.9493 16.9565, 23.4116 17.0148, 22.7041 17.0148, 22.1302 17.0148, 21.5232 16.9726, 20.882 16.8862 L 20.6006 15.5998 C 21.4187 15.7294, 22.1252 15.7938, 22.7212 15.7928, 23.0749 15.7938, 23.3342 15.7566, 23.5 15.6812, 23.6659 15.6068, 23.7794 15.4782, 23.8397 15.2953, 23.9 15.1134, 23.9302 14.829, 23.9302 14.442 L 23.9302 10.5989, 17.1886 10.5989, 17.1886 9.29644, 23.9302 9.29644, 23.9302 7.60804, 28.4185 4.85836, 18.4308 4.85836, 18.4308 3.58804, 30.7702 3.58804, 30.7702 4.87444, 25.3211 8.203, 25.3211 9.29644 Z" stroke="none" fill="#7F7F7F" />
			<rect />
		</svg>
	</g>
	<path d="M -159.375 11.5624 C -36.496 -93.437, 7.5 87.187, 159.375 93.437" fill="none" stroke="#000000" stroke-width="2" stroke-linecap="round" stroke-linejoin="round" transform="matrix(0.5 0 -0 0.5 145.342 227.028)" />
	<rect x="-48.1005859" y="-23.3197632" width="96.2011719" height="46.6395264" stroke="none" fill="#000000" fill-opacity="0.152941167" transform="matrix(0.5 0 -0 0.5 267.072 247.245)" />
	<path d="M -48.1006 -23.3198 L 48.1006 -23.3198, 48.1006 23.3198, -48.1006 23.3198 Z" fill="none" stroke="#000000" stroke-width="2" stroke-linecap="round" stroke-linejoin="round" transform="matrix(0.5 0 -0 0.5 267.072 247.245)" />
	<g transform="matrix(1 0 -0 1 298.743 236.229)">
		<svg width="99.1594391" height="50.968071">
			<defs />
			<path d="M 15.5624 13.0752 C 15.5303 13.7405, 15.486 14.4159, 15.4298 15.1013, 15.3855 15.6169, 15.273 16.0058, 15.0901 16.2671, 14.9082 16.5304, 14.6378 16.7153, 14.279 16.8219, 13.9203 16.9294, 13.4147 16.9988, 12.7635 17.0309, 12.2228 17.0631, 11.665 17.0792, 11.0902 17.0792, 10.5274 17.0792, 9.96457 17.0631, 9.40077 17.0309, 8.76159 16.9887, 8.27617 16.9053, 7.94452 16.7817, 7.61287 16.6591, 7.37569 16.444, 7.23198 16.1385, 7.08826 15.834, 7.0159 15.3918, 7.0159 14.8119 L 7.0159 13.1235, 1.8492 13.1235, 1.8492 4.79404, 7.0159 4.79404, 7.0159 2.67148, 8.35758 2.67148, 8.35758 4.79404, 13.7072 4.79404, 13.7072 13.1235, 8.35758 13.1235, 8.35758 14.5546 C 8.35758 15.0269, 8.45205 15.3516, 8.63998 15.5284, 8.82792 15.7053, 9.16459 15.8098, 9.65001 15.841, 10.1023 15.8742, 10.5495 15.8902, 10.9917 15.8892, 11.4439 15.8902, 11.8912 15.8742, 12.3324 15.841, 12.7967 15.8098, 13.1474 15.7596, 13.3846 15.6892, 13.6218 15.6199, 13.8017 15.4963, 13.9233 15.3194, 14.0449 15.1425, 14.1162 14.8772, 14.1383 14.5224, 14.1936 13.5586, 14.2207 12.9747, 14.2207 12.7697 Z M 7.0159 8.37988 L 7.0159 6.00004, 3.12454 6.00004, 3.12454 8.37988 Z M 12.4158 8.37988 L 12.4158 6.00004, 8.35758 6.00004, 8.35758 8.37988 Z M 3.12454 9.52156 L 3.12454 11.9175, 7.0159 11.9175, 7.0159 9.52156 Z M 8.35758 9.52156 L 8.35758 11.9175, 12.4158 11.9175, 12.4158 9.52156 Z" stroke="none" fill="#7F7F7F" />
			<path d="M 22.4398 11.612 C 22.0197 11.1306, 21.4508 10.5245, 20.7333 9.79492 L 20.7333 17.3204, 19.4579 17.3204, 19.4579 9.90748 C 18.862 11.2592, 18.1554 12.4702, 17.3384 13.5416 L 16.6761 12.3677 C 17.1726 11.7044, 17.6831 10.8602, 18.2077 9.83612, 18.7323 8.81303, 19.1444 7.82311, 19.4418 6.86836 L 17.1062 6.86836, 17.1062 5.6302, 19.4579 5.6302, 19.4579 2.60716, 20.7333 2.60716, 20.7333 5.6302, 22.9523 5.6302, 22.9523 6.86836, 20.7333 6.86836, 20.7333 8.26732 C 21.0428 8.53666, 21.4659 8.93363, 22.0006 9.45824, 22.5362 9.98386, 22.9583 10.412, 23.2679 10.7436 Z M 32.0295 12.1748 C 32.0295 12.5828, 32.0214 13.0953, 32.0043 13.7114, 31.9883 14.3285, 31.9682 14.84, 31.9461 15.246, 31.9239 15.6762, 31.8636 15.9998, 31.7642 16.2189, 31.6657 16.439, 31.5029 16.5917, 31.2757 16.6772, 31.0496 16.7636, 30.721 16.8058, 30.2898 16.8058 L 29.5119 16.8058 C 28.9823 16.8058, 28.6095 16.6882, 28.3944 16.452, 28.1793 16.2169, 28.0708 15.7887, 28.0708 15.1656 L 28.0708 5.00308, 25.1724 5.00308, 25.1724 9.10348 C 25.1724 10.5949, 25.109 11.8009, 24.9824 12.7225, 24.8558 13.6451, 24.6347 14.4571, 24.3191 15.1586, 24.0045 15.8611, 23.5322 16.5968, 22.9031 17.3686 L 21.7272 16.6289 C 22.3242 15.8792, 22.7684 15.2018, 23.0609 14.5958, 23.3533 13.9908, 23.5573 13.2752, 23.6729 12.4491, 23.7895 11.624, 23.8468 10.5034, 23.8468 9.0874 L 23.8468 3.66844, 29.3793 3.66844, 29.3793 14.7958 C 29.3793 15.1073, 29.4155 15.3114, 29.4868 15.4078, 29.5592 15.5043, 29.7109 15.5526, 29.9421 15.5516 L 30.124 15.5516 C 30.3561 15.5526, 30.5109 15.5023, 30.5883 15.3998, 30.6657 15.2983, 30.7099 15.0702, 30.721 14.7154, 30.732 14.3626, 30.7461 13.9044, 30.7622 13.3416, 30.7793 12.7788, 30.7873 12.3155, 30.7873 11.9496 Z" stroke="none" fill="#7F7F7F" />
			<rect />
		</svg>
	</g>
	<g transform="matrix(1 0 -0 1 427.091 9.25001)">
		<svg width="248.995972" height="63.0318985">
			<defs />
			<path d="M 19.3086 11.3391 L 19.3086 13.731, 15.2509 13.731, 15.2509 21.7107, 12.6831 21.7107, 12.6831 13.731, 7.61036 13.731 C 7.50107 14.9785, 7.29127 16.0438, 6.97972 16.9282, 6.66943 17.8126, 6.20713 18.6367, 5.59282 19.4005, 4.97852 20.1643, 4.13306 21.0072, 3.05646 21.9318 L 1.04771 20.1027 C 2.01502 19.354, 2.77003 18.6744, 3.31524 18.0639, 3.86046 17.4546, 4.26497 16.8151, 4.52627 16.1443, 4.78882 15.4747, 4.96847 14.6707, 5.06394 13.731 L 0.778875 13.731, 0.778875 11.3391, 5.14686 11.3391, 5.14686 11.2587, 5.14686 6.55535, 1.6482 6.55535, 1.6482 4.18355, 18.3978 4.18355, 18.3978 6.55535, 15.2509 6.55535, 15.2509 11.3391 Z M 7.69327 11.3391 L 12.6831 11.3391, 12.6831 6.55535, 7.69327 6.55535, 7.69327 11.0175 Z" stroke="none" fill="#000000" />
			<path d="M 28.0039 18.5751 C 27.2728 19.0048, 26.2238 19.6555, 24.857 20.5248, 24.5681 20.6995, 24.2704 20.9005, 23.9663 21.1278 L 22.7453 19.4193 C 22.9802 19.2334, 23.1385 19.0563, 23.2214 18.888, 23.3043 18.7209, 23.3458 18.4897, 23.3458 18.1932 L 23.3458 14.9973, 21.4815 14.9973, 21.4815 12.8265, 23.3458 12.8265, 23.3458 11.1381, 22.3521 11.1381, 22.3521 10.4949, 22.2478 10.6356, 20.778 8.94725 C 21.3998 8.1043, 21.9664 7.16965, 22.4764 6.14455, 22.9865 5.11945, 23.4149 4.09058, 23.7591 3.05795 L 25.9336 3.60065 C 25.7402 4.25892, 25.5404 4.82172, 25.3331 5.28905 L 27.7753 5.28905, 27.7753 7.50005, 24.298 7.50005 C 24.0493 7.9435, 23.7666 8.41962, 23.4488 8.92715 L 27.4864 8.92715, 27.4864 11.1381, 25.6849 11.1381, 25.6849 12.8265, 27.8582 12.8265, 27.8582 14.9973, 25.6849 14.9973, 25.6849 17.5902, 27.3205 16.5651 Z M 28.8104 17.0676 L 28.8104 8.66585, 32.9724 8.66585, 32.9724 3.25895, 35.2701 3.25895, 35.2701 8.66585, 39.432 8.66585, 39.432 16.9068, 37.1331 16.9068, 37.1331 10.8165, 31.0679 10.8165, 31.0679 17.0676 Z M 30.7564 8.32415 C 30.426 7.86938, 30.0127 7.34804, 29.5152 6.7576, 29.0177 6.16842, 28.5768 5.66592, 28.1899 5.24885 L 29.8669 3.80165 C 30.6534 4.59308, 31.5302 5.5717, 32.4963 6.73625 Z M 40.0727 5.14835 C 39.0803 6.44982, 38.2034 7.4812, 37.4446 8.24375 L 35.7261 6.79655 C 36.6231 5.9134, 37.4786 4.92222, 38.2926 3.82175 Z M 39.1619 21.972 C 38.5966 21.5035, 37.8353 20.9105, 36.8756 20.1932, 35.9158 19.4771, 35.0226 18.8314, 34.1935 18.2535, 33.7249 19.0048, 33.0277 19.6857, 32.1031 20.2937, 31.1785 20.9042, 29.936 21.4834, 28.3758 22.0323 L 27.2376 19.7409 C 28.7979 19.2736, 29.9637 18.7812, 30.7363 18.2649, 31.5101 17.7498, 32.034 17.1694, 32.3104 16.5262, 32.5867 15.883, 32.7727 15.0187, 32.8681 13.932, 32.9234 13.4107, 32.951 12.6607, 32.951 11.6808 L 35.2286 11.6808 C 35.2286 12.5665, 35.2148 13.3441, 35.1872 14.0124, 35.1595 14.7913, 35.0904 15.4672, 34.9799 16.0425, 35.809 16.5526, 36.7889 17.187, 37.9208 17.9433, 39.0526 18.7008, 39.9421 19.3201, 40.5903 19.8012 Z" stroke="none" fill="#000000" />
			<path d="M 59.2653 15.3993 L 54.6687 15.3993, 54.6687 19.2384 C 54.6687 20.163, 54.479 20.8138, 54.0996 21.1881, 53.7202 21.5638, 53.0682 21.7509, 52.1436 21.7509, 51.3019 21.7509, 50.4665 21.7107, 49.6387 21.6303 L 49.1412 19.359 C 49.9552 19.4809, 50.6462 19.5412, 51.2115 19.5399, 51.5846 19.5412, 51.8371 19.4445, 51.9678 19.2498, 52.0984 19.0563, 52.1637 18.751, 52.1637 18.3339 L 52.1637 15.3993, 47.1739 15.3993, 47.1739 7.45985, 51.067 7.45985 C 51.3296 6.80408, 51.4954 6.36942, 51.5632 6.15335 L 45.8084 6.15335, 45.8084 10.8768 C 45.8084 12.7675, 45.7393 14.3428, 45.6011 15.6016, 45.4629 16.8616, 45.2318 17.9872, 44.9076 18.9784, 44.5835 19.9708, 44.125 20.9809, 43.5308 22.0122 L 41.2532 20.3841 C 41.8474 19.3264, 42.2858 18.403, 42.5685 17.6116, 42.8524 16.8214, 43.0484 15.9307, 43.1589 14.9383, 43.2695 13.9471, 43.3235 12.613, 43.3235 10.9371 L 43.3235 3.86195, 60.4449 3.86195, 60.4449 6.15335, 54.1926 6.15335 C 54.0544 6.637, 53.9175 7.07292, 53.7793 7.45985 L 59.2653 7.45985 Z M 56.9463 10.5552 L 56.9463 9.44975, 49.5344 9.44975, 49.5344 10.5552 Z M 56.9463 12.3039 L 49.5344 12.3039, 49.5344 13.3893, 56.9463 13.3893 Z M 50.6738 17.0274 C 50.2467 17.6455, 49.6738 18.3628, 48.9553 19.1794, 48.238 19.9972, 47.5068 20.766, 46.7606 21.4896 L 45.0421 19.7007 C 46.6023 18.3214, 47.8234 16.9948, 48.7065 15.7209 Z M 57.1322 15.8616 C 58.0028 16.6933, 59.2653 17.9395, 60.9211 19.6002 L 59.161 21.2484 C 57.8784 19.8427, 56.636 18.5299, 55.435 17.3088 Z" stroke="none" fill="#000000" />
			<path d="M 76.1218 18.9369 L 81.3177 18.9369, 81.3177 21.1479, 68.5856 21.1479, 68.5856 19.0173 C 67.7854 19.1794, 67.0266 19.3402, 66.308 19.501, 65.5907 19.6618, 64.9563 19.8025, 64.4035 19.9218 L 62.3747 20.364, 62.0229 18.0927 C 62.3131 18.0538, 63.1209 17.893, 64.445 17.6103 L 64.445 12.927, 62.4991 12.927, 62.4991 10.6959, 64.445 10.6959, 64.445 6.87695, 62.3332 6.87695, 62.3332 4.62575, 68.6685 4.62575, 68.6685 6.87695, 66.7841 6.87695, 66.7841 10.6959, 68.5441 10.6959, 68.5441 12.927, 66.7841 12.927, 66.7841 17.1078 C 67.2402 16.9885, 67.4474 16.9345, 67.406 16.947, 67.9587 16.8277, 68.3934 16.7209, 68.71 16.6254 L 68.8959 18.9369, 73.8242 18.9369, 73.8242 17.5098, 69.5177 17.5098, 69.5177 15.339, 73.8242 15.339, 73.8242 13.9119, 69.4964 13.9119, 69.4964 4.02275, 80.4484 4.02275, 80.4484 13.9119, 76.1218 13.9119, 76.1218 15.339, 80.5112 15.339, 80.5112 17.5098, 76.1218 17.5098 Z M 73.8242 7.92215 L 73.8242 6.21365, 71.8368 6.21365, 71.8368 7.92215 Z M 76.1218 7.92215 L 78.1507 7.92215, 78.1507 6.21365, 76.1218 6.21365 Z M 71.8368 10.0527 L 71.8368 11.7411, 73.8242 11.7411, 73.8242 10.0527 Z M 76.1218 10.0527 L 76.1218 11.7411, 78.1507 11.7411, 78.1507 10.0527 Z" stroke="none" fill="#000000" />
			<rect />
		</svg>
	</g>
	<path d="M -106.6 -69.2572 L 106.6 -69.2572, 106.6 69.2572, -106.6 69.2572 Z" fill="none" stroke="#000000" stroke-width="2" stroke-linecap="round" stroke-linejoin="round" transform="matrix(0.5 0 -0 0.5 502.76 233.278)" />
	<path d="M -35.5432 -32.1244 L 35.5432 -32.1244, 35.5432 32.1244, -35.5432 32.1244 Z" fill="none" stroke="#000000" stroke-width="2" stroke-linecap="round" stroke-linejoin="round" stroke-dasharray="7.01, 4.99" transform="matrix(0.5 0 -0 0.5 452.605 233.278)" />
	<path d="M -21.4786 25.3644 C -35.487 25.3644, -46.843 14.0084, -46.843 2.02801e-005, -46.843 -14.0083, -35.487 -25.3644, -21.4787 -25.3644 L 21.4786 -25.3644 C 35.487 -25.3644, 46.843 -14.0084, 46.843 -3.61352e-005, 46.843 14.0083, 35.487 25.3644, 21.4787 25.3644, 21.4787 25.3644, 21.4787 25.3644, 21.4787 25.3644 Z" fill="none" stroke="#AB00E5" stroke-opacity="0.490196049" stroke-width="10.666667" stroke-linecap="round" stroke-linejoin="round" transform="matrix(0.5 0 -0 0.5 516.164 235.243)" />
	<path d="M -49.8846 -23.9032 C -28.2464 -40.7117, 11.6289 -43.6358, 39.1794 -30.4344, 41.6211 -29.2644, 43.9129 -27.9894, 46.0388 -26.6209 L 55.4892 -18.7494" fill="none" stroke="#E50500" stroke-width="2.66666675" stroke-linecap="round" stroke-linejoin="round" marker-end="url(#CustomMarker-02)" transform="matrix(0.353553 -0.353553 0.353553 0.353553 584.957 118.838)" />
	<path d="M -106.599 -69.2569 L 106.599 -69.2569, 106.599 69.2569, -106.599 69.2569 Z" fill="none" stroke="#000000" stroke-width="2" stroke-linecap="round" stroke-linejoin="round" transform="matrix(0.353553 0.353553 -0.353553 0.353553 634.587 168.149)" />
	<path d="M -31.8635 8.0451 L 31.8652 -8.04553" fill="none" stroke="#AB00E5" stroke-opacity="0.41568625" stroke-width="10.666667" stroke-linecap="round" stroke-linejoin="round" transform="matrix(0.5 0 0 0.5 579.274 132.792)" />
	<path d="M -48.1006 -23.3193 L 48.1006 -23.3193, 48.1006 23.3193, -48.1006 23.3193 Z" stroke="none" fill="#000000" fill-opacity="0.152941167" transform="matrix(0.353553 0.353553 -0.353553 0.353553 613.579 147.141)" />
	<path d="M -48.1006 -23.3193 L 48.1006 -23.3193, 48.1006 23.3193, -48.1006 23.3193 Z" fill="none" stroke="#000000" stroke-width="2" stroke-linecap="round" stroke-linejoin="round" transform="matrix(0.353553 0.353553 -0.353553 0.353553 613.579 147.141)" />
	<path d="M 8.96484 -31.6181 L -8.96655 31.6188" fill="none" stroke="#AB00E5" stroke-width="10.666667" stroke-linecap="round" stroke-linejoin="round" transform="matrix(0.5 0 0 0.5 599.541 113.877)" />
	<path d="M -21.4788 25.3645 C -35.4872 25.3645, -46.8433 14.0084, -46.8433 2.02801e-005, -46.8433 -14.0084, -35.4873 -25.3645, -21.4788 -25.3645 L 21.4788 -25.3645 C 35.4872 -25.3645, 46.8433 -14.0085, 46.8433 -3.61352e-005, 46.8433 14.0084, 35.4873 25.3645, 21.4789 25.3645, 21.4789 25.3645, 21.4789 25.3645, 21.4789 25.3645 Z" stroke="none" fill="#DDDDDD" fill-opacity="0.819607794" transform="matrix(0.25 0.433013 -0.433013 0.25 516.164 235.243)" />
	<path d="M -21.4788 25.3645 C -35.4872 25.3645, -46.8433 14.0084, -46.8433 2.02801e-005, -46.8433 -14.0084, -35.4873 -25.3645, -21.4788 -25.3645 L 21.4788 -25.3645 C 35.4872 -25.3645, 46.8433 -14.0085, 46.8433 -3.61352e-005, 46.8433 14.0084, 35.4873 25.3645, 21.4789 25.3645, 21.4789 25.3645, 21.4789 25.3645, 21.4789 25.3645 Z" fill="none" stroke="#AB00E5" stroke-width="10.666667" stroke-linecap="round" stroke-linejoin="round" transform="matrix(0.25 0.433013 -0.433013 0.25 516.164 235.243)" />
	<path d="M -70.1648 96.1036 L 70.1655 -96.1041" fill="none" stroke="#000000" stroke-opacity="0.231372535" stroke-width="2" stroke-linecap="round" stroke-linejoin="round" transform="matrix(0.5 0 0 0.5 527.824 185.227)" />
	<path d="M -98.6724 117.94 L 98.6719 -117.94" fill="none" stroke="#000000" stroke-width="2" stroke-linecap="round" stroke-linejoin="round" transform="matrix(0.5 0 0 0.5 554.688 157.038)" />
	<path d="M -47.4066 29.2379 C -61.0058 -1.8504, -50.8055 -40.1428, -24.6236 -56.2904 L -15.0795 -60.8512" fill="none" stroke="#E50500" stroke-width="2.66666675" stroke-linecap="round" stroke-linejoin="round" marker-end="url(#CustomMarker-03)" transform="matrix(0.5 -1.50996e-007 1.50996e-007 0.5 505.352 236.136)" />
	<g transform="matrix(1 0 -0 1 502.364 278.222)">
		<svg width="443.898285" height="50.968071">
			<defs />
			<path d="M 4.74762 11.7245 L 4.74762 12.7215, 15.3966 12.7215, 15.3966 13.7667, 11.5876 13.7667 C 12.3937 14.5395, 13.261 15.445, 14.1876 16.4842 L 13.26 17.3686 C 13.0951 17.1545, 12.7746 16.7957, 12.2992 16.2912 L 4.43205 16.8701, 2.16376 17.0309, 1.86528 15.8571 C 2.32959 15.8259, 2.68837 15.7134, 2.94163 15.5194, 3.78181 14.9094, 4.49335 14.3255, 5.07826 13.7667 L 0.68943 13.7667, 0.68943 12.7215, 3.45519 12.7215, 3.45519 8.1226 C 2.72757 8.50952, 1.86025 8.90047, 0.855255 9.29644 L 0.374865 8.1226 C 1.5678 7.68442, 2.58084 7.22614, 3.41398 6.74876, 4.24813 6.27239, 4.94058 5.74879, 5.49232 5.17996 L 0.987915 5.17996, 0.987915 4.07044, 6.40386 4.07044 C 6.75762 3.54583, 7.06615 2.96695, 7.33047 2.3338 L 8.58973 2.7358 C 8.43496 3.10162, 8.21487 3.54583, 7.92744 4.07044 L 15.1152 4.07044, 15.1152 5.17996, 10.7595 5.17996 C 12.0841 6.49952, 13.7464 7.43216, 15.7443 7.97788 L 15.2971 9.18388 C 14.2489 8.84218, 13.266 8.40199, 12.3494 7.86532 L 4.74762 7.86532, 4.74762 8.83012, 13.062 8.83012, 13.062 9.811, 4.74762 9.811, 4.74762 10.7597, 13.062 10.7597, 13.062 11.7245 Z M 7.19881 5.17996 C 6.74656 5.75984, 6.19984 6.30154, 5.55865 6.80404 L 10.7756 6.80404 C 10.1143 6.29048, 9.56157 5.74879, 9.11937 5.17996 Z M 11.3555 15.2943 C 10.9806 14.8983, 10.5887 14.5124, 10.1796 14.1365 L 10.6269 13.7667, 6.80083 13.7667 C 6.0501 14.5184, 5.29333 15.1988, 4.53154 15.8088 L 11.3555 15.2943 Z" stroke="none" fill="#7F7F7F" />
			<path d="M 31.8431 9.29644 L 31.8431 10.5989, 25.3176 10.5989, 25.3176 14.9084 C 25.3176 15.4882, 25.2433 15.9254, 25.0945 16.2189, 24.9458 16.5143, 24.6855 16.7204, 24.3157 16.838, 23.9458 16.9565, 23.4081 17.0148, 22.7006 17.0148, 22.1268 17.0148, 21.5197 16.9726, 20.8786 16.8862 L 20.5972 15.5998 C 21.4152 15.7294, 22.1217 15.7938, 22.7177 15.7928, 23.0715 15.7938, 23.3308 15.7566, 23.4966 15.6812, 23.6624 15.6068, 23.776 15.4782, 23.8363 15.2953, 23.8966 15.1134, 23.9267 14.829, 23.9267 14.442 L 23.9267 10.5989, 17.1852 10.5989, 17.1852 9.29644, 23.9267 9.29644, 23.9267 7.60804, 28.4151 4.85836, 18.4274 4.85836, 18.4274 3.58804, 30.7668 3.58804, 30.7668 4.87444, 25.3176 8.203, 25.3176 9.29644 Z" stroke="none" fill="#7F7F7F" />
			<path d="M 37.6406 11.7245 L 37.6406 12.7215, 48.2896 12.7215, 48.2896 13.7667, 44.4807 13.7667 C 45.2867 14.5395, 46.154 15.445, 47.0806 16.4842 L 46.153 17.3686 C 45.9882 17.1545, 45.6676 16.7957, 45.1922 16.2912 L 37.3251 16.8701, 35.0568 17.0309, 34.7583 15.8571 C 35.2226 15.8259, 35.5814 15.7134, 35.8346 15.5194, 36.6748 14.9094, 37.3864 14.3255, 37.9713 13.7667 L 33.5824 13.7667, 33.5824 12.7215, 36.3482 12.7215, 36.3482 8.1226 C 35.6206 8.50952, 34.7533 8.90047, 33.7483 9.29644 L 33.2679 8.1226 C 34.4608 7.68442, 35.4739 7.22614, 36.307 6.74876, 37.1412 6.27239, 37.8336 5.74879, 38.3853 5.17996 L 33.8809 5.17996, 33.8809 4.07044, 39.2969 4.07044 C 39.6506 3.54583, 39.9592 2.96695, 40.2235 2.3338 L 41.4827 2.7358 C 41.328 3.10162, 41.1079 3.54583, 40.8205 4.07044 L 48.0082 4.07044, 48.0082 5.17996, 43.6525 5.17996 C 44.9771 6.49952, 46.6394 7.43216, 48.6373 7.97788 L 48.1901 9.18388 C 47.1419 8.84218, 46.159 8.40199, 45.2425 7.86532 L 37.6406 7.86532, 37.6406 8.83012, 45.955 8.83012, 45.955 9.811, 37.6406 9.811, 37.6406 10.7597, 45.955 10.7597, 45.955 11.7245 Z M 40.0918 5.17996 C 39.6396 5.75984, 39.0929 6.30154, 38.4517 6.80404 L 43.6686 6.80404 C 43.0073 6.29048, 42.4546 5.74879, 42.0124 5.17996 Z M 44.2485 15.2943 C 43.8736 14.8983, 43.4817 14.5124, 43.0727 14.1365 L 43.5199 13.7667, 39.6939 13.7667 C 38.9431 14.5184, 38.1864 15.1988, 37.4246 15.8088 L 44.2485 15.2943 Z" stroke="none" fill="#7F7F7F" />
			<path d="M 64.5703 4.52068 L 64.5703 5.74276, 55.7263 5.74276 C 55.1082 7.06232, 54.3846 8.27938, 53.5565 9.39292 L 53.5565 17.2239, 52.2319 17.2239, 52.2319 10.9848 C 51.6691 11.5858, 51.0279 12.1969, 50.3104 12.818 L 49.4993 11.6763 C 51.4319 10.1014, 53.0048 8.1236, 54.2188 5.74276 L 49.9626 5.74276, 49.9626 4.52068, 54.7987 4.52068 C 55.0861 3.86743, 55.3575 3.14986, 55.6107 2.36596 L 56.9353 2.67148 C 56.6821 3.42322, 56.4549 4.03928, 56.2559 4.52068 Z M 63.9412 10.9688 L 60.0327 10.9688, 60.0327 15.4068, 64.5542 15.4068, 64.5542 16.645, 54.2851 16.645, 54.2851 15.4068, 58.6911 15.4068, 58.6911 10.9688, 54.9816 10.9688, 54.9816 9.7306, 58.6911 9.7306, 58.6911 6.86836, 60.0327 6.86836, 60.0327 9.7306, 63.9412 9.7306 Z" stroke="none" fill="#7F7F7F" />
			<path d="M 68.5126 2.4946 C 68.8995 2.7961, 69.3638 3.1981, 69.9045 3.7016, 70.4452 4.20611, 70.8814 4.63424, 71.212 4.987 L 70.2352 6.00004 C 69.8935 5.62618, 69.4493 5.17091, 68.9025 4.63424, 68.3558 4.09858, 67.9166 3.69055, 67.585 3.41116 Z M 80.4208 14.828 C 80.4208 15.4722, 80.3495 15.9465, 80.2058 16.251, 80.0631 16.5566, 79.8118 16.7606, 79.452 16.8621, 79.0932 16.9646, 78.5385 17.0148, 77.7877 17.0148, 77.434 17.0148, 76.8822 16.9937, 76.1315 16.9505 L 75.8662 15.6159 C 76.4853 15.6812, 77.1033 15.7134, 77.7214 15.7124, 78.1194 15.7134, 78.4118 15.6812, 78.5998 15.6169, 78.7877 15.5526, 78.9143 15.432, 78.9807 15.2551, 79.047 15.0782, 79.0792 14.7918, 79.0792 14.3938 L 79.0792 4.93876, 71.9407 4.93876, 71.9407 3.68452, 80.4208 3.68452 Z M 67.2373 5.5498 L 68.5628 5.5498, 68.5628 17.0792, 67.2373 17.0792 Z" stroke="none" fill="#7F7F7F" />
			<path d="M 84.9762 5.67844 C 84.5018 6.55882, 83.9551 7.4, 83.336 8.203 L 82.5411 7.30252 C 83.0717 6.596, 83.5521 5.82718, 83.9823 4.99604, 84.4124 4.16591, 84.7712 3.33176, 85.0586 2.4946 L 86.2013 2.84836 C 86.0244 3.39608, 85.8093 3.9428, 85.5551 4.48852 L 87.9902 4.48852, 87.9902 5.67844 Z M 89.0836 13.6702 L 89.0836 7.14172, 92.4946 7.14172, 92.4946 2.575, 93.7368 2.575, 93.7368 7.14172, 97.0663 7.14172, 97.0663 13.6702, 95.8071 13.6702, 95.8071 8.2834, 90.3087 8.2834, 90.3087 13.6702 Z M 90.8223 6.64324 C 90.569 6.29048, 90.2042 5.84024, 89.7299 5.29352, 89.2555 4.7468, 88.8625 4.31264, 88.553 3.99004 L 89.4806 3.20212 C 89.768 3.50362, 90.1499 3.9217, 90.6243 4.45736, 91.0987 4.99403, 91.4796 5.43824, 91.766 5.791 Z M 97.6292 3.9418 C 96.8352 4.97192, 96.0563 5.8724, 95.2945 6.64324 L 94.3669 5.8714 C 94.7317 5.51864, 95.1297 5.09252, 95.5599 4.59404, 95.99 4.09556, 96.3548 3.63728, 96.6523 3.2182 Z M 88.3379 14.6993 C 87.8746 14.9787, 87.356 15.3003, 86.7812 15.6641 L 85.9862 16.1787 C 85.7109 16.3505, 85.4234 16.5435, 85.1249 16.7576 L 84.4626 15.7928 C 84.6506 15.6119, 84.7772 15.4671, 84.8435 15.3596, 84.9099 15.2531, 84.943 15.1073, 84.943 14.9244 L 84.943 11.7084, 83.0376 11.7084, 83.0376 10.5507, 84.943 10.5507, 84.943 8.605, 84.0154 8.605, 84.0154 7.43116, 87.758 7.43116, 87.758 8.605, 86.1852 8.605, 86.1852 10.5507, 88.1721 10.5507, 88.1721 11.7084, 86.1852 11.7084, 86.1852 14.6993, 87.9239 13.5416 Z M 97.2985 17.3364 C 96.7799 16.9184, 96.1036 16.3988, 95.2694 15.7777, 94.4363 15.1566, 93.6936 14.6199, 93.0413 14.1687, 92.6996 14.8018, 92.1418 15.3737, 91.369 15.8822, 90.5962 16.3907, 89.5088 16.8922, 88.1058 17.3847 L 87.5098 16.1626 C 88.8686 15.7345, 89.8866 15.2983, 90.566 14.8531, 91.2454 14.4089, 91.7037 13.9184, 91.9408 13.3818, 92.178 12.8461, 92.3358 12.1386, 92.4122 11.2582, 92.4564 10.7768, 92.4785 10.1336, 92.4785 9.3286 L 93.7207 9.3286 C 93.7207 10.0371, 93.7096 10.6592, 93.6875 11.1939, 93.6554 11.9667, 93.583 12.5727, 93.4725 13.0109, 94.1358 13.43, 94.9337 13.9586, 95.8664 14.5958, 96.799 15.234, 97.5417 15.7566, 98.0935 16.1626 Z" stroke="none" fill="#7F7F7F" />
			<path d="M 114.175 11.3386 L 114.175 12.5607, 107.6 12.5607, 107.6 15.1013 C 107.6 15.6279, 107.548 16.035, 107.443 16.3234, 107.338 16.6128, 107.158 16.8199, 106.904 16.9425, 106.651 17.0661, 106.292 17.1274, 105.828 17.1274, 105.078 17.1274, 104.321 17.0952, 103.558 17.0309 L 103.277 15.7445 C 104.206 15.8531, 104.901 15.9063, 105.364 15.9053, 105.674 15.9063, 105.889 15.8129, 106.011 15.6249, 106.132 15.438, 106.192 15.1184, 106.192 14.6672 L 106.192 12.5607, 99.3353 12.5607, 99.3353 11.3386, 106.192 11.3386, 106.192 8.86228, 100.495 8.86228, 100.495 7.60804, 106.192 7.60804, 106.192 4.93876 C 104.15 5.0684, 102.196 5.16488, 100.329 5.2282 L 100.214 4.00612 C 101.87 3.96391, 103.946 3.85436, 106.441 3.67748, 108.936 3.5006, 111.067 3.31066, 112.833 3.10564 L 113.032 4.35988 C 111.73 4.51063, 109.919 4.67143, 107.6 4.84228 L 107.6 7.60804, 113.016 7.60804, 113.016 8.86228, 107.6 8.86228, 107.6 11.3386 Z" stroke="none" fill="#7F7F7F" />
			<path d="M 119.078 8.13868 C 119.432 8.46128, 119.818 8.83112, 120.237 9.2492, 120.657 9.66728, 120.988 10.016, 121.231 10.2934 L 120.403 11.1778 C 119.94 10.5889, 119.498 10.0743, 119.078 9.63412 L 119.078 17.1917, 117.852 17.1917, 117.852 9.6502 C 117.367 11.0984, 116.798 12.3737, 116.147 13.4772 L 115.368 12.3516 C 115.865 11.5054, 116.327 10.5899, 116.752 9.60296, 117.177 8.61706, 117.516 7.67336, 117.77 6.77188 L 115.848 6.77188, 115.848 5.58196, 117.852 5.58196, 117.852 2.54284, 119.078 2.54284, 119.078 5.58196, 120.916 5.58196, 120.916 6.77188, 119.078 6.77188 Z M 130.589 4.7458 L 126.432 4.7458, 126.415 7.0774, 130.042 7.0774, 130.042 15.1817 C 130.042 15.6973, 129.973 16.0852, 129.835 16.3475, 129.697 16.6108, 129.476 16.7877, 129.172 16.8782, 128.869 16.9696, 128.431 17.0148, 127.856 17.0148, 127.603 17.0148, 127.211 16.9937, 126.68 16.9505 L 126.432 15.7445 C 126.862 15.8098, 127.293 15.842, 127.723 15.841, 128.044 15.842, 128.279 15.8129, 128.428 15.7536, 128.576 15.6953, 128.679 15.5908, 128.734 15.44, 128.79 15.2903, 128.817 15.0651, 128.817 14.7636 L 128.817 8.25124, 126.399 8.25124 C 126.377 8.73464, 126.327 9.18991, 126.249 9.61804, 127.288 10.7657, 128.105 11.7416, 128.7 12.5446 L 127.955 13.622 C 127.249 12.6692, 126.553 11.7738, 125.868 10.9366, 125.46 11.9878, 124.753 13.0652, 123.748 14.1687 L 122.788 13.2843 C 123.594 12.4381, 124.185 11.6321, 124.561 10.8652, 124.936 10.0994, 125.145 9.2281, 125.19 8.25124 L 122.788 8.25124, 122.788 17.1113, 121.563 17.1113, 121.563 7.0774, 125.206 7.0774, 125.206 4.7458, 121.065 4.7458, 121.065 3.5398, 130.589 3.5398 Z" stroke="none" fill="#7F7F7F" />
			<path d="M 139.767 8.5246 L 139.767 15.3264, 146.956 15.3264, 146.956 16.5807, 132.331 16.5807, 132.331 15.3264, 138.393 15.3264, 138.393 2.59108, 139.767 2.59108, 139.767 7.2382, 145.847 7.2382, 145.847 8.5246 Z" stroke="none" fill="#7F7F7F" />
			<rect />
		</svg>
	</g>
	<g transform="matrix(1 0 -0 1 440.155 63.8629)">
		<svg width="735.247009" height="53.8404121">
			<defs />
			<path d="M 10.6429 2.75188 L 10.6429 5.13172, 14.4861 5.13172, 14.4861 17.1756, 13.1936 17.1756, 13.1936 16.3556, 2.89239 16.3556, 2.89239 17.1756, 1.61704 17.1756, 1.61704 5.13172, 5.45916 5.13172, 5.45916 2.75188, 6.75159 2.75188, 6.75159 5.13172, 9.33544 5.13172, 9.33544 2.75188 Z M 5.45916 10.0361 L 5.45916 6.36988, 2.89239 6.36988, 2.89239 10.0361 Z M 9.33544 10.0361 L 9.33544 6.36988, 6.75159 6.36988, 6.75159 10.0361 Z M 13.1936 10.0361 L 13.1936 6.36988, 10.6429 6.36988, 10.6429 10.0361 Z M 5.45916 11.2904 L 2.89239 11.2904, 2.89239 15.1656, 5.45916 15.1656 Z M 9.33544 15.1656 L 9.33544 11.2904, 6.75159 11.2904, 6.75159 15.1656 Z M 10.6429 11.2904 L 10.6429 15.1656, 13.1936 15.1656, 13.1936 11.2904 Z" stroke="none" fill="#7F7F7F" />
			<path d="M 20.3992 8.13868 C 20.7529 8.46128, 21.1389 8.83112, 21.5579 9.2492, 21.978 9.66728, 22.3087 10.016, 22.5519 10.2934 L 21.7238 11.1778 C 21.2605 10.5889, 20.8193 10.0743, 20.3992 9.63412 L 20.3992 17.1917, 19.1731 17.1917, 19.1731 9.6502 C 18.6877 11.0984, 18.1188 12.3737, 17.4676 13.4772 L 16.6887 12.3516 C 17.1862 11.5054, 17.6475 10.5899, 18.0726 9.60296, 18.4977 8.61706, 18.8374 7.67336, 19.0907 6.77188 L 17.1691 6.77188, 17.1691 5.58196, 19.1731 5.58196, 19.1731 2.54284, 20.3992 2.54284, 20.3992 5.58196, 22.2373 5.58196, 22.2373 6.77188, 20.3992 6.77188 Z M 31.9094 4.7458 L 27.7528 4.7458, 27.7357 7.0774, 31.3627 7.0774, 31.3627 15.1817 C 31.3627 15.6973, 31.2944 16.0852, 31.1557 16.3475, 31.018 16.6108, 30.7969 16.7877, 30.4934 16.8782, 30.1899 16.9696, 29.7517 17.0148, 29.1768 17.0148, 28.9236 17.0148, 28.5316 16.9937, 28.001 16.9505 L 27.7528 15.7445 C 28.1829 15.8098, 28.614 15.842, 29.0442 15.841, 29.3648 15.842, 29.5999 15.8129, 29.7487 15.7536, 29.8974 15.6953, 29.9999 15.5908, 30.0552 15.44, 30.1105 15.2903, 30.1376 15.0651, 30.1376 14.7636 L 30.1376 8.25124, 27.7196 8.25124 C 27.6975 8.73464, 27.6482 9.18991, 27.5698 9.61804, 28.609 10.7657, 29.4261 11.7416, 30.021 12.5446 L 29.2763 13.622 C 28.5698 12.6692, 27.8744 11.7738, 27.189 10.9366, 26.7809 11.9878, 26.0744 13.0652, 25.0694 14.1687 L 24.1086 13.2843 C 24.9146 12.4381, 25.5056 11.6321, 25.8814 10.8652, 26.2573 10.0994, 26.4664 9.2281, 26.5106 8.25124 L 24.1086 8.25124, 24.1086 17.1113, 22.8835 17.1113, 22.8835 7.0774, 26.5267 7.0774, 26.5267 4.7458, 22.3861 4.7458, 22.3861 3.5398, 31.9094 3.5398 Z" stroke="none" fill="#7F7F7F" />
			<path d="M 39.8928 13.9596 L 37.8889 14.2491, 37.8889 17.3043, 36.6296 17.3043, 36.6296 14.426 C 35.9341 14.5234, 34.891 14.6571, 33.5 14.828 L 33.3503 13.5416, 36.6296 13.1556, 36.6296 10.7919, 33.8478 10.7919, 33.8478 9.58588 C 34.1794 8.79394, 34.6045 7.57688, 35.1231 5.93572 L 33.5824 5.93572, 33.5824 4.7458, 35.4708 4.7458 C 35.7804 3.68552, 35.9954 2.91368, 36.1161 2.43028 L 37.3582 2.6554 C 37.1934 3.33176, 37.0005 4.02823, 36.7794 4.7458 L 39.6939 4.7458, 39.6939 5.93572, 36.4145 5.93572 C 35.896 7.59799, 35.4708 8.81504, 35.1392 9.58588 L 36.6296 9.58588, 36.6296 6.80404, 37.8889 6.80404, 37.8889 9.58588, 39.6939 9.58588, 39.6939 10.7919, 37.8889 10.7919, 37.8889 12.9948, 39.8094 12.7215 Z M 48.373 9.02308 L 42.9902 9.02308 C 42.8134 9.67834, 42.6365 10.2733, 42.4596 10.808 L 47.3791 10.808, 47.3791 12.03 C 47.158 12.3848, 46.8293 12.8752, 46.3932 13.5024, 45.957 14.1295, 45.557 14.6893, 45.1922 15.1817, 45.6786 15.4611, 46.3198 15.842, 47.1138 16.3234 L 46.4515 17.449 C 45.7118 16.9666, 44.7761 16.3988, 43.6445 15.7455, 42.5129 15.0923, 41.5541 14.5606, 40.7702 14.1526 L 41.3672 13.0752 C 42.0516 13.4189, 42.9681 13.9174, 44.1158 14.5707, 44.7681 13.6823, 45.359 12.83, 45.8887 12.014 L 41.1179 12.014, 41.1179 10.808 C 41.3069 10.2622, 41.4888 9.66728, 41.6647 9.02308 L 39.9089 9.02308, 39.9089 7.86532, 41.9792 7.86532 C 42.0677 7.54472, 42.2224 6.91258, 42.4435 5.96788 L 40.6375 5.96788, 40.6375 4.79404, 42.6918 4.79404 C 42.8908 3.83024, 43.0294 3.07951, 43.1058 2.54284 L 44.4304 2.68756 C 44.354 3.17096, 44.2153 3.87346, 44.0164 4.79404 L 47.8926 4.79404, 47.8926 5.96788, 43.752 5.96788 C 43.6525 6.44023, 43.4978 7.07338, 43.2877 7.86532 L 48.373 7.86532 Z" stroke="none" fill="#7F7F7F" />
			<path d="M 64.4718 5.56588 C 64.4608 7.41106, 64.4326 9.10448, 64.3884 10.6482, 64.3442 12.1918, 64.2618 13.5908, 64.1402 14.844, 64.0859 15.4028, 63.9834 15.8229, 63.8346 16.1063, 63.6859 16.3907, 63.4588 16.5887, 63.1553 16.7013, 62.8517 16.8138, 62.4126 16.8701, 61.8377 16.8701, 61.4186 16.8701, 60.9051 16.844, 60.298 16.7897 L 60.0659 15.5033 C 60.7071 15.6008, 61.292 15.649, 61.8216 15.648, 62.0869 15.649, 62.2879 15.6119, 62.4256 15.5365, 62.5643 15.4621, 62.6688 15.3224, 62.7412 15.1184, 62.8136 14.9154, 62.8708 14.6089, 62.9141 14.2008, 63.0146 13.1727, 63.0779 12.0934, 63.105 10.9617, 63.1331 9.8311, 63.1522 8.4452, 63.1633 6.80404 L 60.8106 6.80404 C 60.69 8.87434, 60.5382 10.4632, 60.3553 11.5728, 60.1734 12.6823, 59.878 13.6632, 59.4699 14.5154, 59.0619 15.3676, 58.4318 16.2973, 57.5815 17.3043 L 56.4388 16.4842 C 57.2449 15.5847, 57.8438 14.7646, 58.2358 14.025, 58.6277 13.2853, 58.9182 12.3828, 59.1051 11.3155, 59.293 10.2492, 59.4307 8.7457, 59.5192 6.80404 L 57.4489 6.80404, 57.4489 5.56588, 59.5684 5.56588 C 59.5905 4.92368, 59.6126 3.91567, 59.6347 2.54284 L 60.9272 2.54284 C 60.9272 2.8765, 60.9221 3.12775, 60.9101 3.2986, 60.9101 4.03928, 60.894 4.79504, 60.8608 5.56588 Z M 50.7415 3.74884 L 56.7695 3.74884, 56.7695 4.95484, 50.7415 4.95484 Z M 56.3394 15.4872 L 55.9916 14.5064 C 54.854 14.7857, 53.259 15.1506, 51.2048 15.5998, 51.1284 15.6119, 50.8631 15.6601, 50.4099 15.7445 L 49.9295 14.426 C 50.1395 14.3415, 50.3023 14.2481, 50.4179 14.1456, 50.5345 14.0441, 50.636 13.9124, 50.7244 13.7506, 50.9787 13.3014, 51.2792 12.626, 51.6269 11.7255, 51.9746 10.825, 52.2761 9.95672, 52.5304 9.11956 L 49.9958 9.11956, 49.9958 7.8814, 57.283 7.8814, 57.283 9.11956, 53.8711 9.11956 C 53.6068 9.96778, 53.2872 10.8924, 52.9113 11.8944, 52.5354 12.8974, 52.2158 13.6501, 51.9505 14.1526, 53.4078 13.8642, 54.6118 13.6119, 55.5605 13.3968, 55.1414 12.3476, 54.7555 11.4893, 54.4017 10.824 L 55.5605 10.3899 C 55.8368 10.9265, 56.1655 11.6371, 56.5464 12.5215, 56.9273 13.4059, 57.2449 14.1908, 57.4981 14.8762 Z" stroke="none" fill="#7F7F7F" />
			<path d="M 69.1256 14.442 C 69.4462 14.443, 69.7055 14.5636, 69.9045 14.8048, 70.1035 15.046, 70.202 15.4189, 70.202 15.9214, 70.202 16.651, 70.006 17.251, 69.6141 17.7224, 69.2221 18.1947, 68.7066 18.4892, 68.0654 18.6068 L 68.0654 17.851 C 68.8171 17.6259, 69.2141 17.1063, 69.2583 16.2912, 69.2251 16.3023, 69.1749 16.3073, 69.1086 16.3073, 68.8332 16.3073, 68.6151 16.2169, 68.4543 16.035, 68.2945 15.8531, 68.2141 15.633, 68.2141 15.3747, 68.2141 15.1073, 68.3005 14.8852, 68.4714 14.7084, 68.6422 14.5315, 68.8603 14.443, 69.1256 14.442 Z" stroke="none" fill="#7F7F7F" />
			<path d="M 97.4141 5.26036 L 97.4141 6.46636, 88.6193 6.46636, 88.6193 5.26036, 92.3961 5.26036 C 92.1308 4.41415, 91.8494 3.6212, 91.5509 2.88052 L 92.8926 2.52676 C 93.2463 3.42824, 93.5609 4.33978, 93.8363 5.26036 Z M 87.9902 10.3577 L 86.2837 10.9366, 86.2837 15.3747 C 86.2837 15.847, 86.2294 16.1978, 86.1189 16.4279, 86.0083 16.6591, 85.8103 16.8199, 85.5229 16.9103, 85.2355 17.0018, 84.8054 17.047, 84.2305 17.047, 83.8888 17.047, 83.5521 17.0309, 83.2205 16.9988 L 82.9551 15.7606 C 83.3752 15.8259, 83.7833 15.8581, 84.1812 15.8571, 84.5129 15.8581, 84.733 15.7968, 84.8435 15.6732, 84.9541 15.5506, 85.0094 15.3114, 85.0094 14.9566 L 85.0094 11.3547 C 84.1039 11.6562, 83.3863 11.8753, 82.8556 12.014 L 82.5572 10.7436 C 83.2647 10.5406, 84.0817 10.2944, 85.0094 10.004 L 85.0094 6.80404, 82.9551 6.80404, 82.9551 5.58196, 85.0094 5.58196, 85.0094 2.575, 86.2837 2.575, 86.2837 5.58196, 87.9902 5.58196, 87.9902 6.80404, 86.2837 6.80404, 86.2837 9.60196, 87.9068 9.05524 Z M 97.6794 15.3104 L 97.6794 16.5164, 87.6917 16.5164, 87.6917 15.3104, 92.777 15.3104 C 93.0865 14.3998, 93.4835 13.1114, 93.9689 11.4441, 94.4554 9.77783, 94.8413 8.38591, 95.1287 7.27036 L 96.4533 7.62412 C 96.1669 8.6864, 95.792 9.97883, 95.3277 11.5004, 94.8634 13.023, 94.4604 14.2933, 94.1177 15.3104 Z M 90.8886 14.2973 C 90.7017 13.5154, 90.4143 12.4471, 90.0273 11.0904, 89.6414 9.73462, 89.3208 8.65927, 89.0666 7.86532 L 90.3258 7.49548 C 90.6022 8.37586, 90.9228 9.4502, 91.2866 10.7205, 91.6504 11.9908, 91.9489 13.0712, 92.18 13.9596 Z" stroke="none" fill="#7F7F7F" />
			<path d="M 113.811 5.56588 C 113.8 7.41106, 113.772 9.10448, 113.728 10.6482, 113.684 12.1918, 113.601 13.5908, 113.48 14.844, 113.425 15.4028, 113.323 15.8229, 113.174 16.1063, 113.025 16.3907, 112.798 16.5887, 112.495 16.7013, 112.191 16.8138, 111.752 16.8701, 111.177 16.8701, 110.758 16.8701, 110.245 16.844, 109.638 16.7897 L 109.405 15.5033 C 110.047 15.6008, 110.632 15.649, 111.161 15.648, 111.426 15.649, 111.627 15.6119, 111.765 15.5365, 111.904 15.4621, 112.008 15.3224, 112.081 15.1184, 112.153 14.9154, 112.21 14.6089, 112.254 14.2008, 112.354 13.1727, 112.417 12.0934, 112.445 10.9617, 112.473 9.8311, 112.492 8.4452, 112.503 6.80404 L 110.15 6.80404 C 110.03 8.87434, 109.878 10.4632, 109.695 11.5728, 109.513 12.6823, 109.217 13.6632, 108.809 14.5154, 108.401 15.3676, 107.771 16.2973, 106.921 17.3043 L 105.778 16.4842 C 106.584 15.5847, 107.183 14.7646, 107.575 14.025, 107.967 13.2853, 108.258 12.3828, 108.445 11.3155, 108.633 10.2492, 108.77 8.7457, 108.859 6.80404 L 106.788 6.80404, 106.788 5.56588, 108.908 5.56588 C 108.93 4.92368, 108.952 3.91567, 108.974 2.54284 L 110.267 2.54284 C 110.267 2.8765, 110.262 3.12775, 110.25 3.2986, 110.25 4.03928, 110.234 4.79504, 110.2 5.56588 Z M 100.081 3.74884 L 106.109 3.74884, 106.109 4.95484, 100.081 4.95484 Z M 105.679 15.4872 L 105.331 14.5064 C 104.193 14.7857, 102.599 15.1506, 100.544 15.5998, 100.468 15.6119, 100.203 15.6601, 99.7494 15.7445 L 99.269 14.426 C 99.479 14.3415, 99.6418 14.2481, 99.7574 14.1456, 99.874 14.0441, 99.9755 13.9124, 100.064 13.7506, 100.318 13.3014, 100.619 12.626, 100.966 11.7255, 101.314 10.825, 101.616 9.95672, 101.87 9.11956 L 99.3353 9.11956, 99.3353 7.8814, 106.623 7.8814, 106.623 9.11956, 103.211 9.11956 C 102.946 9.96778, 102.627 10.8924, 102.251 11.8944, 101.875 12.8974, 101.555 13.6501, 101.29 14.1526, 102.747 13.8642, 103.951 13.6119, 104.9 13.3968, 104.481 12.3476, 104.095 11.4893, 103.741 10.824 L 104.9 10.3899 C 105.176 10.9265, 105.505 11.6371, 105.886 12.5215, 106.267 13.4059, 106.584 14.1908, 106.838 14.8762 Z" stroke="none" fill="#7F7F7F" />
			<path d="M 117.852 2.4946 C 118.239 2.7961, 118.703 3.1981, 119.244 3.7016, 119.785 4.20611, 120.221 4.63424, 120.552 4.987 L 119.575 6.00004 C 119.233 5.62618, 118.789 5.17091, 118.242 4.63424, 117.695 4.09858, 117.256 3.69055, 116.925 3.41116 Z M 129.76 14.828 C 129.76 15.4722, 129.689 15.9465, 129.545 16.251, 129.403 16.5566, 129.151 16.7606, 128.792 16.8621, 128.433 16.9646, 127.878 17.0148, 127.127 17.0148, 126.774 17.0148, 126.222 16.9937, 125.471 16.9505 L 125.206 15.6159 C 125.825 15.6812, 126.443 15.7134, 127.061 15.7124, 127.459 15.7134, 127.751 15.6812, 127.939 15.6169, 128.127 15.5526, 128.254 15.432, 128.32 15.2551, 128.387 15.0782, 128.419 14.7918, 128.419 14.3938 L 128.419 4.93876, 121.28 4.93876, 121.28 3.68452, 129.76 3.68452 Z M 116.577 5.5498 L 117.902 5.5498, 117.902 17.0792, 116.577 17.0792 Z" stroke="none" fill="#7F7F7F" />
			<path d="M 134.316 5.67844 C 133.841 6.55882, 133.295 7.4, 132.676 8.203 L 131.881 7.30252 C 132.411 6.596, 132.892 5.82718, 133.322 4.99604, 133.752 4.16591, 134.111 3.33176, 134.398 2.4946 L 135.541 2.84836 C 135.364 3.39608, 135.149 3.9428, 134.895 4.48852 L 137.33 4.48852, 137.33 5.67844 Z M 138.423 13.6702 L 138.423 7.14172, 141.834 7.14172, 141.834 2.575, 143.076 2.575, 143.076 7.14172, 146.406 7.14172, 146.406 13.6702, 145.147 13.6702, 145.147 8.2834, 139.648 8.2834, 139.648 13.6702 Z M 140.162 6.64324 C 139.909 6.29048, 139.544 5.84024, 139.069 5.29352, 138.595 4.7468, 138.202 4.31264, 137.893 3.99004 L 138.82 3.20212 C 139.108 3.50362, 139.489 3.9217, 139.964 4.45736, 140.438 4.99403, 140.819 5.43824, 141.105 5.791 Z M 146.969 3.9418 C 146.175 4.97192, 145.396 5.8724, 144.634 6.64324 L 143.706 5.8714 C 144.071 5.51864, 144.469 5.09252, 144.899 4.59404, 145.33 4.09556, 145.694 3.63728, 145.992 3.2182 Z M 137.677 14.6993 C 137.214 14.9787, 136.696 15.3003, 136.121 15.6641 L 135.326 16.1787 C 135.05 16.3505, 134.763 16.5435, 134.464 16.7576 L 133.802 15.7928 C 133.99 15.6119, 134.117 15.4671, 134.183 15.3596, 134.249 15.2531, 134.283 15.1073, 134.283 14.9244 L 134.283 11.7084, 132.377 11.7084, 132.377 10.5507, 134.283 10.5507, 134.283 8.605, 133.355 8.605, 133.355 7.43116, 137.098 7.43116, 137.098 8.605, 135.525 8.605, 135.525 10.5507, 137.512 10.5507, 137.512 11.7084, 135.525 11.7084, 135.525 14.6993, 137.263 13.5416 Z M 146.638 17.3364 C 146.119 16.9184, 145.443 16.3988, 144.609 15.7777, 143.776 15.1566, 143.033 14.6199, 142.381 14.1687, 142.039 14.8018, 141.481 15.3737, 140.709 15.8822, 139.936 16.3907, 138.848 16.8922, 137.445 17.3847 L 136.849 16.1626 C 138.208 15.7345, 139.226 15.2983, 139.906 14.8531, 140.585 14.4089, 141.043 13.9184, 141.28 13.3818, 141.518 12.8461, 141.675 12.1386, 141.752 11.2582, 141.796 10.7768, 141.818 10.1336, 141.818 9.3286 L 143.06 9.3286 C 143.06 10.0371, 143.049 10.6592, 143.027 11.1939, 142.995 11.9667, 142.923 12.5727, 142.812 13.0109, 143.475 13.43, 144.273 13.9586, 145.206 14.5958, 146.139 15.234, 146.881 15.7566, 147.433 16.1626 Z" stroke="none" fill="#7F7F7F" />
			<path d="M 163.515 11.3386 L 163.515 12.5607, 156.94 12.5607, 156.94 15.1013 C 156.94 15.6279, 156.888 16.035, 156.782 16.3234, 156.678 16.6128, 156.498 16.8199, 156.243 16.9425, 155.99 17.0661, 155.631 17.1274, 155.167 17.1274, 154.417 17.1274, 153.661 17.0952, 152.898 17.0309 L 152.616 15.7445 C 153.545 15.8531, 154.241 15.9063, 154.704 15.9053, 155.013 15.9063, 155.228 15.8129, 155.35 15.6249, 155.472 15.438, 155.532 15.1184, 155.532 14.6672 L 155.532 12.5607, 148.675 12.5607, 148.675 11.3386, 155.532 11.3386, 155.532 8.86228, 149.835 8.86228, 149.835 7.60804, 155.532 7.60804, 155.532 4.93876 C 153.49 5.0684, 151.535 5.16488, 149.669 5.2282 L 149.553 4.00612 C 151.209 3.96391, 153.286 3.85436, 155.78 3.67748, 158.276 3.5006, 160.406 3.31066, 162.173 3.10564 L 162.372 4.35988 C 161.07 4.51063, 159.258 4.67143, 156.94 4.84228 L 156.94 7.60804, 162.356 7.60804, 162.356 8.86228, 156.94 8.86228, 156.94 11.3386 Z" stroke="none" fill="#7F7F7F" />
			<path d="M 168.418 8.13868 C 168.771 8.46128, 169.157 8.83112, 169.577 9.2492, 169.997 9.66728, 170.327 10.016, 170.57 10.2934 L 169.742 11.1778 C 169.279 10.5889, 168.838 10.0743, 168.418 9.63412 L 168.418 17.1917, 167.192 17.1917, 167.192 9.6502 C 166.706 11.0984, 166.137 12.3737, 165.486 13.4772 L 164.707 12.3516 C 165.205 11.5054, 165.666 10.5899, 166.091 9.60296, 166.516 8.61706, 166.856 7.67336, 167.109 6.77188 L 165.188 6.77188, 165.188 5.58196, 167.192 5.58196, 167.192 2.54284, 168.418 2.54284, 168.418 5.58196, 170.256 5.58196, 170.256 6.77188, 168.418 6.77188 Z M 179.928 4.7458 L 175.771 4.7458, 175.754 7.0774, 179.381 7.0774, 179.381 15.1817 C 179.381 15.6973, 179.313 16.0852, 179.174 16.3475, 179.037 16.6108, 178.815 16.7877, 178.512 16.8782, 178.208 16.9696, 177.77 17.0148, 177.195 17.0148, 176.942 17.0148, 176.55 16.9937, 176.02 16.9505 L 175.771 15.7445 C 176.201 15.8098, 176.633 15.842, 177.063 15.841, 177.383 15.842, 177.619 15.8129, 177.767 15.7536, 177.916 15.6953, 178.019 15.5908, 178.074 15.44, 178.129 15.2903, 178.156 15.0651, 178.156 14.7636 L 178.156 8.25124, 175.738 8.25124 C 175.716 8.73464, 175.667 9.18991, 175.588 9.61804, 176.628 10.7657, 177.445 11.7416, 178.04 12.5446 L 177.295 13.622 C 176.588 12.6692, 175.893 11.7738, 175.208 10.9366, 174.799 11.9878, 174.093 13.0652, 173.088 14.1687 L 172.127 13.2843 C 172.933 12.4381, 173.524 11.6321, 173.9 10.8652, 174.276 10.0994, 174.485 9.2281, 174.529 8.25124 L 172.127 8.25124, 172.127 17.1113, 170.902 17.1113, 170.902 7.0774, 174.545 7.0774, 174.545 4.7458, 170.405 4.7458, 170.405 3.5398, 179.928 3.5398 Z" stroke="none" fill="#7F7F7F" />
			<path d="M 183.539 5.43724 L 183.539 7.4794, 182.247 7.4794, 182.247 4.24732, 188.558 4.24732 C 188.216 3.50864, 187.962 2.99911, 187.796 2.71972 L 189.154 2.3338 C 189.253 2.4956, 189.474 2.978, 189.816 3.781 L 190.031 4.24732, 195.728 4.24732, 195.728 7.51156, 194.388 7.51156, 194.388 5.43724 Z M 188.275 9.11956 C 187.845 8.83112, 187.285 8.49947, 186.595 8.1236, 185.905 7.74874, 185.3 7.43719, 184.781 7.18996 L 185.361 6.14476 C 185.913 6.40304, 186.523 6.70655, 187.191 7.05428, 187.859 7.40302, 188.42 7.7216, 188.872 8.01004 Z M 196.292 13.027 L 190.595 13.027 C 190.539 13.1677, 190.435 13.3657, 190.28 13.622, 193.106 14.7807, 195.066 15.5737, 196.159 16.0018 L 195.513 17.2078 C 194.587 16.7897, 193.537 16.3294, 192.367 15.8259, 191.197 15.3224, 190.225 14.9144, 189.452 14.6028, 188.801 15.2149, 187.908 15.7325, 186.777 16.1546, 185.645 16.5787, 184.163 16.9666, 182.33 17.3204 L 181.849 16.0661 C 183.981 15.6812, 185.599 15.2581, 186.702 14.7968, 187.807 14.3365, 188.602 13.7466, 189.087 13.027 L 181.634 13.027, 181.634 11.8371, 189.617 11.8371 C 189.805 11.1949, 189.909 10.3376, 189.931 9.26428 L 190.015 6.25732, 191.39 6.25732 C 191.39 6.69751, 191.379 7.22915, 191.357 7.85024, 191.334 8.47234, 191.312 9.00298, 191.29 9.44116, 191.257 10.3859, 191.164 11.1838, 191.009 11.8371 L 196.292 11.8371 Z M 184.052 8.42812 C 184.627 8.69746, 185.283 9.02408, 186.023 9.41, 186.763 9.79592, 187.36 10.1336, 187.812 10.422 L 187.183 11.4351 C 186.675 11.1255, 186.054 10.7668, 185.32 10.3587, 184.586 9.9517, 183.976 9.64015, 183.489 9.42508 Z" stroke="none" fill="#7F7F7F" />
			<path d="M 210.436 4.53676 L 205.434 4.53676, 205.434 12.3677, 204.159 12.3677, 204.159 3.34684, 211.712 3.34684, 211.712 12.3516, 210.436 12.3516 Z M 203.48 14.1365 C 203.06 14.2772, 202.139 14.5425, 200.714 14.9335, 199.29 15.3254, 198.379 15.5686, 197.981 15.6641 L 197.716 14.426 C 198.158 14.3415, 198.932 14.1536, 200.035 13.8632 L 200.035 9.7306, 198.031 9.7306, 198.031 8.55676, 200.035 8.55676, 200.035 4.987, 197.948 4.987, 197.948 3.781, 203.282 3.781, 203.282 4.987, 201.311 4.987, 201.311 8.55676, 203.282 8.55676, 203.282 9.7306, 201.311 9.7306, 201.311 13.5094 C 202.404 13.2099, 203.1 13.0119, 203.397 12.9144 Z M 213.086 13.5576 C 213.086 13.8481, 213.059 14.4481, 213.003 15.3586, 212.981 15.7777, 212.912 16.0963, 212.796 16.3154, 212.68 16.5355, 212.514 16.6963, 212.299 16.7978, 212.084 16.9003, 211.784 16.9726, 211.397 17.0148, 211.055 17.047, 210.735 17.0631, 210.436 17.0631, 210.105 17.0631, 209.708 17.047, 209.243 17.0148, 208.846 16.9726, 208.538 16.8138, 208.317 16.5405, 208.096 16.2671, 207.985 15.8742, 207.985 15.3586 L 207.985 12.0944 C 207.621 13.1566, 207.033 14.1034, 206.221 14.9335, 205.41 15.7646, 204.304 16.5706, 202.901 17.3525 L 202.073 16.243 C 203.431 15.5576, 204.466 14.8752, 205.178 14.1938, 205.891 13.5134, 206.39 12.7496, 206.677 11.9024, 206.965 11.0562, 207.141 9.96778, 207.206 8.63716, 207.228 8.20903, 207.245 7.67638, 207.256 7.0382, 207.267 6.40103, 207.272 5.86738, 207.272 5.43724 L 208.581 5.43724, 208.532 8.81404 C 208.499 9.87632, 208.372 10.8039, 208.151 11.5959 L 209.243 11.5959, 209.243 14.8923 C 209.243 15.2681, 209.29 15.5184, 209.385 15.641, 209.479 15.7646, 209.658 15.837, 209.923 15.8571, 210.044 15.8691, 210.226 15.8742, 210.469 15.8732, 210.713 15.8742, 210.889 15.8691, 210.999 15.8571, 211.342 15.8259, 211.571 15.7516, 211.686 15.633, 211.803 15.5154, 211.866 15.2742, 211.877 14.9084, 211.899 14.5767, 211.91 14.0461, 211.91 13.3164 Z" stroke="none" fill="#7F7F7F" />
			<path d="M 229.185 9.39292 L 229.185 10.6632, 225.658 10.6632, 225.658 17.1274, 224.299 17.1274, 224.299 10.6632, 219.545 10.6632 C 219.469 11.6723, 219.309 12.5275, 219.066 13.229, 218.823 13.9315, 218.453 14.5908, 217.956 15.2068, 217.46 15.8239, 216.763 16.5113, 215.869 17.2721 L 214.793 16.2912 C 215.632 15.6279, 216.28 15.03, 216.738 14.4993, 217.196 13.9687, 217.536 13.4059, 217.757 12.8109, 217.978 12.216, 218.121 11.5004, 218.187 10.6632 L 214.494 10.6632, 214.494 9.39292, 218.254 9.39292, 218.254 8.79796, 218.254 4.89052, 215.189 4.89052, 215.189 3.63628, 228.456 3.63628, 228.456 4.89052, 225.658 4.89052, 225.658 9.39292 Z M 219.611 9.39292 L 224.299 9.39292, 224.299 4.89052, 219.611 4.89052, 219.611 8.65324 Z" stroke="none" fill="#7F7F7F" />
			<path d="M 232.981 2.4946 C 233.368 2.7961, 233.832 3.1981, 234.373 3.7016, 234.914 4.20611, 235.35 4.63424, 235.681 4.987 L 234.704 6.00004 C 234.362 5.62618, 233.918 5.17091, 233.371 4.63424, 232.824 4.09858, 232.385 3.69055, 232.053 3.41116 Z M 244.889 14.828 C 244.889 15.4722, 244.818 15.9465, 244.674 16.251, 244.532 16.5566, 244.28 16.7606, 243.921 16.8621, 243.562 16.9646, 243.007 17.0148, 242.256 17.0148, 241.902 17.0148, 241.351 16.9937, 240.6 16.9505 L 240.335 15.6159 C 240.954 15.6812, 241.572 15.7134, 242.19 15.7124, 242.588 15.7134, 242.88 15.6812, 243.068 15.6169, 243.256 15.5526, 243.383 15.432, 243.449 15.2551, 243.516 15.0782, 243.548 14.7918, 243.548 14.3938 L 243.548 4.93876, 236.409 4.93876, 236.409 3.68452, 244.889 3.68452 Z M 231.706 5.5498 L 233.031 5.5498, 233.031 17.0792, 231.706 17.0792 Z" stroke="none" fill="#7F7F7F" />
			<rect />
		</svg>
	</g>
</svg>
